{
  "header": {
    "keySignatures": [],
    "meta": [],
    "name": "",
    "ppq": 384,
    "tempos": [
      {
        "bpm": 147.0000955500621,
        "ticks": 0
      }
    ],
    "timeSignatures": [
      {
        "ticks": 0,
        "timeSignature": [
          1,
          4
        ],
        "measures": 0
      }
    ]
  },
  "tracks": [
    {
      "channel": 0,
      "controlChanges": {},
      "pitchBends": [],
      "instrument": {
        "family": "piano",
        "number": 0,
        "name": "acoustic grand piano"
      },
      "name": "Elec. Piano (Classic)",
      "notes": [
        {
          "duration": 0.10204075,
          "durationTicks": 96,
          "midi": 63,
          "name": "D#4",
          "ticks": 0,
          "time": 0,
          "velocity": 0.3937007874015748
        },
        {
          "duration": 0.10204075,
          "durationTicks": 96,
          "midi": 51,
          "name": "D#3",
          "ticks": 0,
          "time": 0,
          "velocity": 0.3937007874015748
        },
        {
          "duration": 0.10204074999999999,
          "durationTicks": 96,
          "midi": 58,
          "name": "A#3",
          "ticks": 192,
          "time": 0.2040815,
          "velocity": 0.3937007874015748
        },
        {
          "duration": 0.10204074999999999,
          "durationTicks": 96,
          "midi": 65,
          "name": "F4",
          "ticks": 192,
          "time": 0.2040815,
          "velocity": 0.3937007874015748
        },
        {
          "duration": 0.10204074999999996,
          "durationTicks": 96,
          "midi": 51,
          "name": "D#3",
          "ticks": 384,
          "time": 0.408163,
          "velocity": 0.3937007874015748
        },
        {
          "duration": 0.10204074999999996,
          "durationTicks": 96,
          "midi": 66,
          "name": "F#4",
          "ticks": 384,
          "time": 0.408163,
          "velocity": 0.3937007874015748
        },
        {
          "duration": 0.10204075000000001,
          "durationTicks": 96,
          "midi": 68,
          "name": "G#4",
          "ticks": 576,
          "time": 0.6122445,
          "velocity": 0.3937007874015748
        },
        {
          "duration": 0.10204075000000001,
          "durationTicks": 96,
          "midi": 58,
          "name": "A#3",
          "ticks": 576,
          "time": 0.6122445,
          "velocity": 0.3937007874015748
        },
        {
          "duration": 0.10204075000000001,
          "durationTicks": 96,
          "midi": 51,
          "name": "D#3",
          "ticks": 768,
          "time": 0.816326,
          "velocity": 0.3937007874015748
        },
        {
          "duration": 0.10204075000000001,
          "durationTicks": 96,
          "midi": 70,
          "name": "A#4",
          "ticks": 768,
          "time": 0.816326,
          "velocity": 0.3937007874015748
        },
        {
          "duration": 0.10204075000000001,
          "durationTicks": 96,
          "midi": 58,
          "name": "A#3",
          "ticks": 960,
          "time": 1.0204075,
          "velocity": 0.3937007874015748
        },
        {
          "duration": 0.10204075000000001,
          "durationTicks": 96,
          "midi": 70,
          "name": "A#4",
          "ticks": 1056,
          "time": 1.12244825,
          "velocity": 0.3937007874015748
        },
        {
          "duration": 0.10204075000000001,
          "durationTicks": 96,
          "midi": 75,
          "name": "D#5",
          "ticks": 1152,
          "time": 1.224489,
          "velocity": 0.3937007874015748
        },
        {
          "duration": 0.10204075000000001,
          "durationTicks": 96,
          "midi": 51,
          "name": "D#3",
          "ticks": 1152,
          "time": 1.224489,
          "velocity": 0.3937007874015748
        },
        {
          "duration": 0.10204075000000001,
          "durationTicks": 96,
          "midi": 73,
          "name": "C#5",
          "ticks": 1344,
          "time": 1.4285705,
          "velocity": 0.3937007874015748
        },
        {
          "duration": 0.10204075000000001,
          "durationTicks": 96,
          "midi": 58,
          "name": "A#3",
          "ticks": 1344,
          "time": 1.4285705,
          "velocity": 0.3937007874015748
        },
        {
          "duration": 0.10204075000000001,
          "durationTicks": 96,
          "midi": 70,
          "name": "A#4",
          "ticks": 1536,
          "time": 1.632652,
          "velocity": 0.3937007874015748
        },
        {
          "duration": 0.10204075000000001,
          "durationTicks": 96,
          "midi": 51,
          "name": "D#3",
          "ticks": 1536,
          "time": 1.632652,
          "velocity": 0.3937007874015748
        },
        {
          "duration": 0.10204075000000001,
          "durationTicks": 96,
          "midi": 58,
          "name": "A#3",
          "ticks": 1728,
          "time": 1.8367335,
          "velocity": 0.3937007874015748
        },
        {
          "duration": 0.10204074999999979,
          "durationTicks": 96,
          "midi": 70,
          "name": "A#4",
          "ticks": 1824,
          "time": 1.93877425,
          "velocity": 0.3937007874015748
        },
        {
          "duration": 0.10204075000000001,
          "durationTicks": 96,
          "midi": 63,
          "name": "D#4",
          "ticks": 1920,
          "time": 2.040815,
          "velocity": 0.3937007874015748
        },
        {
          "duration": 0.10204075000000001,
          "durationTicks": 96,
          "midi": 51,
          "name": "D#3",
          "ticks": 1920,
          "time": 2.040815,
          "velocity": 0.3937007874015748
        },
        {
          "duration": 0.10204075000000001,
          "durationTicks": 96,
          "midi": 58,
          "name": "A#3",
          "ticks": 2112,
          "time": 2.2448965,
          "velocity": 0.3937007874015748
        },
        {
          "duration": 0.10204075000000001,
          "durationTicks": 96,
          "midi": 63,
          "name": "D#4",
          "ticks": 2208,
          "time": 2.34693725,
          "velocity": 0.3937007874015748
        },
        {
          "duration": 0.10204075000000001,
          "durationTicks": 96,
          "midi": 51,
          "name": "D#3",
          "ticks": 2304,
          "time": 2.448978,
          "velocity": 0.3937007874015748
        },
        {
          "duration": 0.10204075000000001,
          "durationTicks": 96,
          "midi": 70,
          "name": "A#4",
          "ticks": 2304,
          "time": 2.448978,
          "velocity": 0.3937007874015748
        },
        {
          "duration": 0.10204075000000001,
          "durationTicks": 96,
          "midi": 58,
          "name": "A#3",
          "ticks": 2496,
          "time": 2.6530595,
          "velocity": 0.3937007874015748
        },
        {
          "duration": 0.10204075000000001,
          "durationTicks": 96,
          "midi": 68,
          "name": "G#4",
          "ticks": 2496,
          "time": 2.6530595,
          "velocity": 0.3937007874015748
        },
        {
          "duration": 0.10204075000000001,
          "durationTicks": 96,
          "midi": 66,
          "name": "F#4",
          "ticks": 2688,
          "time": 2.857141,
          "velocity": 0.3937007874015748
        },
        {
          "duration": 0.10204075000000001,
          "durationTicks": 96,
          "midi": 51,
          "name": "D#3",
          "ticks": 2688,
          "time": 2.857141,
          "velocity": 0.3937007874015748
        },
        {
          "duration": 0.10204075000000001,
          "durationTicks": 96,
          "midi": 65,
          "name": "F4",
          "ticks": 2880,
          "time": 3.0612225,
          "velocity": 0.3937007874015748
        },
        {
          "duration": 0.10204075000000001,
          "durationTicks": 96,
          "midi": 58,
          "name": "A#3",
          "ticks": 2880,
          "time": 3.0612225,
          "velocity": 0.3937007874015748
        },
        {
          "duration": 0.10204075000000001,
          "durationTicks": 96,
          "midi": 47,
          "name": "B2",
          "ticks": 3072,
          "time": 3.265304,
          "velocity": 0.3937007874015748
        },
        {
          "duration": 0.10204075000000001,
          "durationTicks": 96,
          "midi": 63,
          "name": "D#4",
          "ticks": 3072,
          "time": 3.265304,
          "velocity": 0.3937007874015748
        },
        {
          "duration": 0.10204075000000001,
          "durationTicks": 96,
          "midi": 54,
          "name": "F#3",
          "ticks": 3264,
          "time": 3.4693855,
          "velocity": 0.3937007874015748
        },
        {
          "duration": 0.10204075000000001,
          "durationTicks": 96,
          "midi": 65,
          "name": "F4",
          "ticks": 3264,
          "time": 3.4693855,
          "velocity": 0.3937007874015748
        },
        {
          "duration": 0.10204075000000001,
          "durationTicks": 96,
          "midi": 66,
          "name": "F#4",
          "ticks": 3456,
          "time": 3.673467,
          "velocity": 0.3937007874015748
        },
        {
          "duration": 0.10204075000000001,
          "durationTicks": 96,
          "midi": 47,
          "name": "B2",
          "ticks": 3456,
          "time": 3.673467,
          "velocity": 0.3937007874015748
        },
        {
          "duration": 0.10204075000000001,
          "durationTicks": 96,
          "midi": 54,
          "name": "F#3",
          "ticks": 3648,
          "time": 3.8775485,
          "velocity": 0.3937007874015748
        },
        {
          "duration": 0.10204075000000001,
          "durationTicks": 96,
          "midi": 68,
          "name": "G#4",
          "ticks": 3648,
          "time": 3.8775485,
          "velocity": 0.3937007874015748
        },
        {
          "duration": 0.10204075000000046,
          "durationTicks": 96,
          "midi": 47,
          "name": "B2",
          "ticks": 3840,
          "time": 4.08163,
          "velocity": 0.3937007874015748
        },
        {
          "duration": 0.10204075000000046,
          "durationTicks": 96,
          "midi": 70,
          "name": "A#4",
          "ticks": 3840,
          "time": 4.08163,
          "velocity": 0.3937007874015748
        },
        {
          "duration": 0.10204075000000046,
          "durationTicks": 96,
          "midi": 54,
          "name": "F#3",
          "ticks": 4032,
          "time": 4.2857115,
          "velocity": 0.3937007874015748
        },
        {
          "duration": 0.10204074999999957,
          "durationTicks": 96,
          "midi": 70,
          "name": "A#4",
          "ticks": 4128,
          "time": 4.38775225,
          "velocity": 0.3937007874015748
        },
        {
          "duration": 0.10204075000000046,
          "durationTicks": 96,
          "midi": 68,
          "name": "G#4",
          "ticks": 4224,
          "time": 4.489793,
          "velocity": 0.3937007874015748
        },
        {
          "duration": 0.10204075000000046,
          "durationTicks": 96,
          "midi": 47,
          "name": "B2",
          "ticks": 4224,
          "time": 4.489793,
          "velocity": 0.3937007874015748
        },
        {
          "duration": 0.10204075000000046,
          "durationTicks": 96,
          "midi": 54,
          "name": "F#3",
          "ticks": 4416,
          "time": 4.6938745,
          "velocity": 0.3937007874015748
        },
        {
          "duration": 0.10204075000000046,
          "durationTicks": 96,
          "midi": 66,
          "name": "F#4",
          "ticks": 4416,
          "time": 4.6938745,
          "velocity": 0.3937007874015748
        },
        {
          "duration": 0.10204075000000046,
          "durationTicks": 96,
          "midi": 49,
          "name": "C#3",
          "ticks": 4608,
          "time": 4.897956,
          "velocity": 0.3937007874015748
        },
        {
          "duration": 0.10204075000000046,
          "durationTicks": 96,
          "midi": 65,
          "name": "F4",
          "ticks": 4608,
          "time": 4.897956,
          "velocity": 0.3937007874015748
        },
        {
          "duration": 0.10204075000000046,
          "durationTicks": 96,
          "midi": 56,
          "name": "G#3",
          "ticks": 4800,
          "time": 5.1020375,
          "velocity": 0.3937007874015748
        },
        {
          "duration": 0.10204075000000046,
          "durationTicks": 96,
          "midi": 63,
          "name": "D#4",
          "ticks": 4800,
          "time": 5.1020375,
          "velocity": 0.3937007874015748
        },
        {
          "duration": 0.10204075000000046,
          "durationTicks": 96,
          "midi": 65,
          "name": "F4",
          "ticks": 4992,
          "time": 5.306119,
          "velocity": 0.3937007874015748
        },
        {
          "duration": 0.10204075000000046,
          "durationTicks": 96,
          "midi": 49,
          "name": "C#3",
          "ticks": 4992,
          "time": 5.306119,
          "velocity": 0.3937007874015748
        },
        {
          "duration": 0.10204075000000046,
          "durationTicks": 96,
          "midi": 66,
          "name": "F#4",
          "ticks": 5184,
          "time": 5.5102005,
          "velocity": 0.3937007874015748
        },
        {
          "duration": 0.10204075000000046,
          "durationTicks": 96,
          "midi": 56,
          "name": "G#3",
          "ticks": 5184,
          "time": 5.5102005,
          "velocity": 0.3937007874015748
        },
        {
          "duration": 0.10204075000000046,
          "durationTicks": 96,
          "midi": 65,
          "name": "F4",
          "ticks": 5376,
          "time": 5.714282,
          "velocity": 0.3937007874015748
        },
        {
          "duration": 0.10204075000000046,
          "durationTicks": 96,
          "midi": 50,
          "name": "D3",
          "ticks": 5376,
          "time": 5.714282,
          "velocity": 0.3937007874015748
        },
        {
          "duration": 0.10204075000000046,
          "durationTicks": 96,
          "midi": 58,
          "name": "A#3",
          "ticks": 5568,
          "time": 5.9183635,
          "velocity": 0.3937007874015748
        },
        {
          "duration": 0.10204075000000046,
          "durationTicks": 96,
          "midi": 63,
          "name": "D#4",
          "ticks": 5568,
          "time": 5.9183635,
          "velocity": 0.3937007874015748
        },
        {
          "duration": 0.10204075000000046,
          "durationTicks": 96,
          "midi": 50,
          "name": "D3",
          "ticks": 5760,
          "time": 6.122445,
          "velocity": 0.3937007874015748
        },
        {
          "duration": 0.10204075000000046,
          "durationTicks": 96,
          "midi": 62,
          "name": "D4",
          "ticks": 5760,
          "time": 6.122445,
          "velocity": 0.3937007874015748
        },
        {
          "duration": 0.10204075000000046,
          "durationTicks": 96,
          "midi": 58,
          "name": "A#3",
          "ticks": 5952,
          "time": 6.3265265,
          "velocity": 0.3937007874015748
        },
        {
          "duration": 0.10204075000000046,
          "durationTicks": 96,
          "midi": 65,
          "name": "F4",
          "ticks": 5952,
          "time": 6.3265265,
          "velocity": 0.3937007874015748
        },
        {
          "duration": 0.10204074999999957,
          "durationTicks": 96,
          "midi": 51,
          "name": "D#3",
          "ticks": 6144,
          "time": 6.530608,
          "velocity": 0.3937007874015748
        },
        {
          "duration": 0.10204074999999957,
          "durationTicks": 96,
          "midi": 63,
          "name": "D#4",
          "ticks": 6144,
          "time": 6.530608,
          "velocity": 0.3937007874015748
        },
        {
          "duration": 0.10204074999999957,
          "durationTicks": 96,
          "midi": 65,
          "name": "F4",
          "ticks": 6336,
          "time": 6.7346895,
          "velocity": 0.3937007874015748
        },
        {
          "duration": 0.10204074999999957,
          "durationTicks": 96,
          "midi": 58,
          "name": "A#3",
          "ticks": 6336,
          "time": 6.7346895,
          "velocity": 0.3937007874015748
        },
        {
          "duration": 0.10204074999999957,
          "durationTicks": 96,
          "midi": 51,
          "name": "D#3",
          "ticks": 6528,
          "time": 6.938771,
          "velocity": 0.3937007874015748
        },
        {
          "duration": 0.10204074999999957,
          "durationTicks": 96,
          "midi": 66,
          "name": "F#4",
          "ticks": 6528,
          "time": 6.938771,
          "velocity": 0.3937007874015748
        },
        {
          "duration": 0.10204074999999957,
          "durationTicks": 96,
          "midi": 58,
          "name": "A#3",
          "ticks": 6720,
          "time": 7.1428525,
          "velocity": 0.3937007874015748
        },
        {
          "duration": 0.10204074999999957,
          "durationTicks": 96,
          "midi": 68,
          "name": "G#4",
          "ticks": 6720,
          "time": 7.1428525,
          "velocity": 0.3937007874015748
        },
        {
          "duration": 0.10204074999999957,
          "durationTicks": 96,
          "midi": 70,
          "name": "A#4",
          "ticks": 6912,
          "time": 7.346934,
          "velocity": 0.3937007874015748
        },
        {
          "duration": 0.10204074999999957,
          "durationTicks": 96,
          "midi": 51,
          "name": "D#3",
          "ticks": 6912,
          "time": 7.346934,
          "velocity": 0.3937007874015748
        },
        {
          "duration": 0.10204074999999957,
          "durationTicks": 96,
          "midi": 58,
          "name": "A#3",
          "ticks": 7104,
          "time": 7.5510155,
          "velocity": 0.3937007874015748
        },
        {
          "duration": 0.10204075000000046,
          "durationTicks": 96,
          "midi": 70,
          "name": "A#4",
          "ticks": 7200,
          "time": 7.65305625,
          "velocity": 0.3937007874015748
        },
        {
          "duration": 0.10204074999999957,
          "durationTicks": 96,
          "midi": 75,
          "name": "D#5",
          "ticks": 7296,
          "time": 7.755097,
          "velocity": 0.3937007874015748
        },
        {
          "duration": 0.10204074999999957,
          "durationTicks": 96,
          "midi": 51,
          "name": "D#3",
          "ticks": 7296,
          "time": 7.755097,
          "velocity": 0.3937007874015748
        },
        {
          "duration": 0.10204075000000046,
          "durationTicks": 96,
          "midi": 73,
          "name": "C#5",
          "ticks": 7488,
          "time": 7.9591785,
          "velocity": 0.3937007874015748
        },
        {
          "duration": 0.10204075000000046,
          "durationTicks": 96,
          "midi": 58,
          "name": "A#3",
          "ticks": 7488,
          "time": 7.9591785,
          "velocity": 0.3937007874015748
        },
        {
          "duration": 0.10204075000000046,
          "durationTicks": 96,
          "midi": 51,
          "name": "D#3",
          "ticks": 7680,
          "time": 8.16326,
          "velocity": 0.3937007874015748
        },
        {
          "duration": 0.10204075000000046,
          "durationTicks": 96,
          "midi": 70,
          "name": "A#4",
          "ticks": 7680,
          "time": 8.16326,
          "velocity": 0.3937007874015748
        },
        {
          "duration": 0.10204075000000046,
          "durationTicks": 96,
          "midi": 58,
          "name": "A#3",
          "ticks": 7872,
          "time": 8.3673415,
          "velocity": 0.3937007874015748
        },
        {
          "duration": 0.10204074999999868,
          "durationTicks": 96,
          "midi": 70,
          "name": "A#4",
          "ticks": 7968,
          "time": 8.46938225,
          "velocity": 0.3937007874015748
        },
        {
          "duration": 0.10204075000000046,
          "durationTicks": 96,
          "midi": 51,
          "name": "D#3",
          "ticks": 8064,
          "time": 8.571423,
          "velocity": 0.3937007874015748
        },
        {
          "duration": 0.10204075000000046,
          "durationTicks": 96,
          "midi": 63,
          "name": "D#4",
          "ticks": 8064,
          "time": 8.571423,
          "velocity": 0.3937007874015748
        },
        {
          "duration": 0.10204075000000046,
          "durationTicks": 96,
          "midi": 58,
          "name": "A#3",
          "ticks": 8256,
          "time": 8.7755045,
          "velocity": 0.3937007874015748
        },
        {
          "duration": 0.10204074999999868,
          "durationTicks": 96,
          "midi": 63,
          "name": "D#4",
          "ticks": 8352,
          "time": 8.87754525,
          "velocity": 0.3937007874015748
        },
        {
          "duration": 0.10204075000000046,
          "durationTicks": 96,
          "midi": 51,
          "name": "D#3",
          "ticks": 8448,
          "time": 8.979586,
          "velocity": 0.3937007874015748
        },
        {
          "duration": 0.10204075000000046,
          "durationTicks": 96,
          "midi": 70,
          "name": "A#4",
          "ticks": 8448,
          "time": 8.979586,
          "velocity": 0.3937007874015748
        },
        {
          "duration": 0.10204075000000046,
          "durationTicks": 96,
          "midi": 58,
          "name": "A#3",
          "ticks": 8640,
          "time": 9.1836675,
          "velocity": 0.3937007874015748
        },
        {
          "duration": 0.10204075000000046,
          "durationTicks": 96,
          "midi": 68,
          "name": "G#4",
          "ticks": 8640,
          "time": 9.1836675,
          "velocity": 0.3937007874015748
        },
        {
          "duration": 0.10204075000000046,
          "durationTicks": 96,
          "midi": 51,
          "name": "D#3",
          "ticks": 8832,
          "time": 9.387749,
          "velocity": 0.3937007874015748
        },
        {
          "duration": 0.10204075000000046,
          "durationTicks": 96,
          "midi": 66,
          "name": "F#4",
          "ticks": 8832,
          "time": 9.387749,
          "velocity": 0.3937007874015748
        },
        {
          "duration": 0.10204075000000046,
          "durationTicks": 96,
          "midi": 58,
          "name": "A#3",
          "ticks": 9024,
          "time": 9.5918305,
          "velocity": 0.3937007874015748
        },
        {
          "duration": 0.10204075000000046,
          "durationTicks": 96,
          "midi": 65,
          "name": "F4",
          "ticks": 9024,
          "time": 9.5918305,
          "velocity": 0.3937007874015748
        },
        {
          "duration": 0.10204075000000046,
          "durationTicks": 96,
          "midi": 47,
          "name": "B2",
          "ticks": 9216,
          "time": 9.795912,
          "velocity": 0.3937007874015748
        },
        {
          "duration": 0.10204075000000046,
          "durationTicks": 96,
          "midi": 63,
          "name": "D#4",
          "ticks": 9216,
          "time": 9.795912,
          "velocity": 0.3937007874015748
        },
        {
          "duration": 0.10204074999999868,
          "durationTicks": 96,
          "midi": 54,
          "name": "F#3",
          "ticks": 9408,
          "time": 9.9999935,
          "velocity": 0.3937007874015748
        },
        {
          "duration": 0.10204074999999868,
          "durationTicks": 96,
          "midi": 65,
          "name": "F4",
          "ticks": 9408,
          "time": 9.9999935,
          "velocity": 0.3937007874015748
        },
        {
          "duration": 0.10204075000000046,
          "durationTicks": 96,
          "midi": 66,
          "name": "F#4",
          "ticks": 9600,
          "time": 10.204075,
          "velocity": 0.3937007874015748
        },
        {
          "duration": 0.10204075000000046,
          "durationTicks": 96,
          "midi": 47,
          "name": "B2",
          "ticks": 9600,
          "time": 10.204075,
          "velocity": 0.3937007874015748
        },
        {
          "duration": 0.10204074999999868,
          "durationTicks": 96,
          "midi": 54,
          "name": "F#3",
          "ticks": 9792,
          "time": 10.4081565,
          "velocity": 0.3937007874015748
        },
        {
          "duration": 0.10204074999999868,
          "durationTicks": 96,
          "midi": 68,
          "name": "G#4",
          "ticks": 9792,
          "time": 10.4081565,
          "velocity": 0.3937007874015748
        },
        {
          "duration": 0.10204075000000046,
          "durationTicks": 96,
          "midi": 47,
          "name": "B2",
          "ticks": 9984,
          "time": 10.612238,
          "velocity": 0.3937007874015748
        },
        {
          "duration": 0.10204075000000046,
          "durationTicks": 96,
          "midi": 70,
          "name": "A#4",
          "ticks": 9984,
          "time": 10.612238,
          "velocity": 0.3937007874015748
        },
        {
          "duration": 0.10204074999999868,
          "durationTicks": 96,
          "midi": 54,
          "name": "F#3",
          "ticks": 10176,
          "time": 10.8163195,
          "velocity": 0.3937007874015748
        },
        {
          "duration": 0.10204075000000046,
          "durationTicks": 96,
          "midi": 70,
          "name": "A#4",
          "ticks": 10272,
          "time": 10.91836025,
          "velocity": 0.3937007874015748
        },
        {
          "duration": 0.10204075000000046,
          "durationTicks": 96,
          "midi": 68,
          "name": "G#4",
          "ticks": 10368,
          "time": 11.020401,
          "velocity": 0.3937007874015748
        },
        {
          "duration": 0.10204075000000046,
          "durationTicks": 96,
          "midi": 47,
          "name": "B2",
          "ticks": 10368,
          "time": 11.020401,
          "velocity": 0.3937007874015748
        },
        {
          "duration": 0.10204074999999868,
          "durationTicks": 96,
          "midi": 54,
          "name": "F#3",
          "ticks": 10560,
          "time": 11.2244825,
          "velocity": 0.3937007874015748
        },
        {
          "duration": 0.10204074999999868,
          "durationTicks": 96,
          "midi": 66,
          "name": "F#4",
          "ticks": 10560,
          "time": 11.2244825,
          "velocity": 0.3937007874015748
        },
        {
          "duration": 0.10204075000000046,
          "durationTicks": 96,
          "midi": 65,
          "name": "F4",
          "ticks": 10752,
          "time": 11.428564,
          "velocity": 0.3937007874015748
        },
        {
          "duration": 0.10204075000000046,
          "durationTicks": 96,
          "midi": 49,
          "name": "C#3",
          "ticks": 10752,
          "time": 11.428564,
          "velocity": 0.3937007874015748
        },
        {
          "duration": 0.10204074999999868,
          "durationTicks": 96,
          "midi": 56,
          "name": "G#3",
          "ticks": 10944,
          "time": 11.6326455,
          "velocity": 0.3937007874015748
        },
        {
          "duration": 0.10204075000000046,
          "durationTicks": 96,
          "midi": 65,
          "name": "F4",
          "ticks": 11040,
          "time": 11.73468625,
          "velocity": 0.3937007874015748
        },
        {
          "duration": 0.10204075000000046,
          "durationTicks": 96,
          "midi": 49,
          "name": "C#3",
          "ticks": 11136,
          "time": 11.836727,
          "velocity": 0.3937007874015748
        },
        {
          "duration": 0.10204075000000046,
          "durationTicks": 96,
          "midi": 66,
          "name": "F#4",
          "ticks": 11136,
          "time": 11.836727,
          "velocity": 0.3937007874015748
        },
        {
          "duration": 0.10204074999999868,
          "durationTicks": 96,
          "midi": 56,
          "name": "G#3",
          "ticks": 11328,
          "time": 12.0408085,
          "velocity": 0.3937007874015748
        },
        {
          "duration": 0.10204075000000046,
          "durationTicks": 96,
          "midi": 66,
          "name": "F#4",
          "ticks": 11424,
          "time": 12.14284925,
          "velocity": 0.3937007874015748
        },
        {
          "duration": 0.10204075000000046,
          "durationTicks": 96,
          "midi": 68,
          "name": "G#4",
          "ticks": 11520,
          "time": 12.24489,
          "velocity": 0.3937007874015748
        },
        {
          "duration": 0.10204075000000046,
          "durationTicks": 96,
          "midi": 50,
          "name": "D3",
          "ticks": 11520,
          "time": 12.24489,
          "velocity": 0.3937007874015748
        },
        {
          "duration": 0.10204074999999868,
          "durationTicks": 96,
          "midi": 58,
          "name": "A#3",
          "ticks": 11712,
          "time": 12.4489715,
          "velocity": 0.3937007874015748
        },
        {
          "duration": 0.10204075000000046,
          "durationTicks": 96,
          "midi": 68,
          "name": "G#4",
          "ticks": 11808,
          "time": 12.55101225,
          "velocity": 0.3937007874015748
        },
        {
          "duration": 0.10204075000000046,
          "durationTicks": 96,
          "midi": 50,
          "name": "D3",
          "ticks": 11904,
          "time": 12.653053,
          "velocity": 0.3937007874015748
        },
        {
          "duration": 0.10204075000000046,
          "durationTicks": 96,
          "midi": 70,
          "name": "A#4",
          "ticks": 11904,
          "time": 12.653053,
          "velocity": 0.3937007874015748
        },
        {
          "duration": 0.10204074999999868,
          "durationTicks": 96,
          "midi": 58,
          "name": "A#3",
          "ticks": 12096,
          "time": 12.8571345,
          "velocity": 0.3937007874015748
        },
        {
          "duration": 0.10204075000000046,
          "durationTicks": 96,
          "midi": 70,
          "name": "A#4",
          "ticks": 12192,
          "time": 12.95917525,
          "velocity": 0.3937007874015748
        },
        {
          "duration": 0.10204075000000046,
          "durationTicks": 96,
          "midi": 51,
          "name": "D#3",
          "ticks": 12288,
          "time": 13.061216,
          "velocity": 0.3937007874015748
        },
        {
          "duration": 0.10204075000000046,
          "durationTicks": 96,
          "midi": 63,
          "name": "D#4",
          "ticks": 12288,
          "time": 13.061216,
          "velocity": 0.3937007874015748
        },
        {
          "duration": 0.10204075000000046,
          "durationTicks": 96,
          "midi": 65,
          "name": "F4",
          "ticks": 12480,
          "time": 13.265297499999999,
          "velocity": 0.3937007874015748
        },
        {
          "duration": 0.10204075000000046,
          "durationTicks": 96,
          "midi": 58,
          "name": "A#3",
          "ticks": 12480,
          "time": 13.265297499999999,
          "velocity": 0.3937007874015748
        },
        {
          "duration": 0.10204075000000046,
          "durationTicks": 96,
          "midi": 51,
          "name": "D#3",
          "ticks": 12672,
          "time": 13.469379,
          "velocity": 0.3937007874015748
        },
        {
          "duration": 0.10204075000000046,
          "durationTicks": 96,
          "midi": 66,
          "name": "F#4",
          "ticks": 12672,
          "time": 13.469379,
          "velocity": 0.3937007874015748
        },
        {
          "duration": 0.10204075000000046,
          "durationTicks": 96,
          "midi": 58,
          "name": "A#3",
          "ticks": 12864,
          "time": 13.6734605,
          "velocity": 0.3937007874015748
        },
        {
          "duration": 0.10204075000000046,
          "durationTicks": 96,
          "midi": 68,
          "name": "G#4",
          "ticks": 12864,
          "time": 13.6734605,
          "velocity": 0.3937007874015748
        },
        {
          "duration": 0.10204075000000046,
          "durationTicks": 96,
          "midi": 70,
          "name": "A#4",
          "ticks": 13056,
          "time": 13.877542,
          "velocity": 0.3937007874015748
        },
        {
          "duration": 0.10204075000000046,
          "durationTicks": 96,
          "midi": 51,
          "name": "D#3",
          "ticks": 13056,
          "time": 13.877542,
          "velocity": 0.3937007874015748
        },
        {
          "duration": 0.10204075000000046,
          "durationTicks": 96,
          "midi": 58,
          "name": "A#3",
          "ticks": 13248,
          "time": 14.0816235,
          "velocity": 0.3937007874015748
        },
        {
          "duration": 0.10204075000000046,
          "durationTicks": 96,
          "midi": 70,
          "name": "A#4",
          "ticks": 13344,
          "time": 14.18366425,
          "velocity": 0.3937007874015748
        },
        {
          "duration": 0.10204075000000046,
          "durationTicks": 96,
          "midi": 75,
          "name": "D#5",
          "ticks": 13440,
          "time": 14.285705,
          "velocity": 0.3937007874015748
        },
        {
          "duration": 0.10204075000000046,
          "durationTicks": 96,
          "midi": 51,
          "name": "D#3",
          "ticks": 13440,
          "time": 14.285705,
          "velocity": 0.3937007874015748
        },
        {
          "duration": 0.10204075000000046,
          "durationTicks": 96,
          "midi": 73,
          "name": "C#5",
          "ticks": 13632,
          "time": 14.4897865,
          "velocity": 0.3937007874015748
        },
        {
          "duration": 0.10204075000000046,
          "durationTicks": 96,
          "midi": 58,
          "name": "A#3",
          "ticks": 13632,
          "time": 14.4897865,
          "velocity": 0.3937007874015748
        },
        {
          "duration": 0.10204075000000046,
          "durationTicks": 96,
          "midi": 70,
          "name": "A#4",
          "ticks": 13824,
          "time": 14.693868,
          "velocity": 0.3937007874015748
        },
        {
          "duration": 0.10204075000000046,
          "durationTicks": 96,
          "midi": 51,
          "name": "D#3",
          "ticks": 13824,
          "time": 14.693868,
          "velocity": 0.3937007874015748
        },
        {
          "duration": 0.10204075000000046,
          "durationTicks": 96,
          "midi": 58,
          "name": "A#3",
          "ticks": 14016,
          "time": 14.8979495,
          "velocity": 0.3937007874015748
        },
        {
          "duration": 0.10204075000000046,
          "durationTicks": 96,
          "midi": 70,
          "name": "A#4",
          "ticks": 14112,
          "time": 14.99999025,
          "velocity": 0.3937007874015748
        },
        {
          "duration": 0.10204075000000046,
          "durationTicks": 96,
          "midi": 63,
          "name": "D#4",
          "ticks": 14208,
          "time": 15.102031,
          "velocity": 0.3937007874015748
        },
        {
          "duration": 0.10204075000000046,
          "durationTicks": 96,
          "midi": 51,
          "name": "D#3",
          "ticks": 14208,
          "time": 15.102031,
          "velocity": 0.3937007874015748
        },
        {
          "duration": 0.10204075000000046,
          "durationTicks": 96,
          "midi": 58,
          "name": "A#3",
          "ticks": 14400,
          "time": 15.3061125,
          "velocity": 0.3937007874015748
        },
        {
          "duration": 0.10204075000000046,
          "durationTicks": 96,
          "midi": 63,
          "name": "D#4",
          "ticks": 14496,
          "time": 15.40815325,
          "velocity": 0.3937007874015748
        },
        {
          "duration": 0.10204075000000046,
          "durationTicks": 96,
          "midi": 70,
          "name": "A#4",
          "ticks": 14592,
          "time": 15.510194,
          "velocity": 0.3937007874015748
        },
        {
          "duration": 0.10204075000000046,
          "durationTicks": 96,
          "midi": 51,
          "name": "D#3",
          "ticks": 14592,
          "time": 15.510194,
          "velocity": 0.3937007874015748
        },
        {
          "duration": 0.10204075000000046,
          "durationTicks": 96,
          "midi": 68,
          "name": "G#4",
          "ticks": 14784,
          "time": 15.7142755,
          "velocity": 0.3937007874015748
        },
        {
          "duration": 0.10204075000000046,
          "durationTicks": 96,
          "midi": 58,
          "name": "A#3",
          "ticks": 14784,
          "time": 15.7142755,
          "velocity": 0.3937007874015748
        },
        {
          "duration": 0.10204075000000046,
          "durationTicks": 96,
          "midi": 51,
          "name": "D#3",
          "ticks": 14976,
          "time": 15.918357,
          "velocity": 0.3937007874015748
        },
        {
          "duration": 0.10204075000000046,
          "durationTicks": 96,
          "midi": 66,
          "name": "F#4",
          "ticks": 14976,
          "time": 15.918357,
          "velocity": 0.3937007874015748
        },
        {
          "duration": 0.10204075000000046,
          "durationTicks": 96,
          "midi": 58,
          "name": "A#3",
          "ticks": 15168,
          "time": 16.1224385,
          "velocity": 0.3937007874015748
        },
        {
          "duration": 0.10204075000000046,
          "durationTicks": 96,
          "midi": 65,
          "name": "F4",
          "ticks": 15168,
          "time": 16.1224385,
          "velocity": 0.3937007874015748
        },
        {
          "duration": 0.10204075000000046,
          "durationTicks": 96,
          "midi": 47,
          "name": "B2",
          "ticks": 15360,
          "time": 16.32652,
          "velocity": 0.3937007874015748
        },
        {
          "duration": 0.10204075000000046,
          "durationTicks": 96,
          "midi": 63,
          "name": "D#4",
          "ticks": 15360,
          "time": 16.32652,
          "velocity": 0.3937007874015748
        },
        {
          "duration": 0.10204075000000046,
          "durationTicks": 96,
          "midi": 65,
          "name": "F4",
          "ticks": 15552,
          "time": 16.5306015,
          "velocity": 0.3937007874015748
        },
        {
          "duration": 0.10204075000000046,
          "durationTicks": 96,
          "midi": 54,
          "name": "F#3",
          "ticks": 15552,
          "time": 16.5306015,
          "velocity": 0.3937007874015748
        },
        {
          "duration": 0.10204075000000046,
          "durationTicks": 96,
          "midi": 66,
          "name": "F#4",
          "ticks": 15744,
          "time": 16.734683,
          "velocity": 0.3937007874015748
        },
        {
          "duration": 0.10204075000000046,
          "durationTicks": 96,
          "midi": 47,
          "name": "B2",
          "ticks": 15744,
          "time": 16.734683,
          "velocity": 0.3937007874015748
        },
        {
          "duration": 0.1020407499999969,
          "durationTicks": 96,
          "midi": 54,
          "name": "F#3",
          "ticks": 15936,
          "time": 16.9387645,
          "velocity": 0.3937007874015748
        },
        {
          "duration": 0.1020407499999969,
          "durationTicks": 96,
          "midi": 68,
          "name": "G#4",
          "ticks": 15936,
          "time": 16.9387645,
          "velocity": 0.3937007874015748
        },
        {
          "duration": 0.10204075000000046,
          "durationTicks": 96,
          "midi": 70,
          "name": "A#4",
          "ticks": 16128,
          "time": 17.142846,
          "velocity": 0.3937007874015748
        },
        {
          "duration": 0.10204075000000046,
          "durationTicks": 96,
          "midi": 47,
          "name": "B2",
          "ticks": 16128,
          "time": 17.142846,
          "velocity": 0.3937007874015748
        },
        {
          "duration": 0.10204075000000046,
          "durationTicks": 96,
          "midi": 54,
          "name": "F#3",
          "ticks": 16320,
          "time": 17.3469275,
          "velocity": 0.3937007874015748
        },
        {
          "duration": 0.10204075000000046,
          "durationTicks": 96,
          "midi": 70,
          "name": "A#4",
          "ticks": 16416,
          "time": 17.44896825,
          "velocity": 0.3937007874015748
        },
        {
          "duration": 0.10204075000000046,
          "durationTicks": 96,
          "midi": 47,
          "name": "B2",
          "ticks": 16512,
          "time": 17.551009,
          "velocity": 0.3937007874015748
        },
        {
          "duration": 0.10204075000000046,
          "durationTicks": 96,
          "midi": 68,
          "name": "G#4",
          "ticks": 16512,
          "time": 17.551009,
          "velocity": 0.3937007874015748
        },
        {
          "duration": 0.1020407499999969,
          "durationTicks": 96,
          "midi": 66,
          "name": "F#4",
          "ticks": 16704,
          "time": 17.7550905,
          "velocity": 0.3937007874015748
        },
        {
          "duration": 0.1020407499999969,
          "durationTicks": 96,
          "midi": 54,
          "name": "F#3",
          "ticks": 16704,
          "time": 17.7550905,
          "velocity": 0.3937007874015748
        },
        {
          "duration": 0.10204075000000046,
          "durationTicks": 96,
          "midi": 65,
          "name": "F4",
          "ticks": 16896,
          "time": 17.959172,
          "velocity": 0.3937007874015748
        },
        {
          "duration": 0.10204075000000046,
          "durationTicks": 96,
          "midi": 49,
          "name": "C#3",
          "ticks": 16896,
          "time": 17.959172,
          "velocity": 0.3937007874015748
        },
        {
          "duration": 0.10204075000000046,
          "durationTicks": 96,
          "midi": 63,
          "name": "D#4",
          "ticks": 17088,
          "time": 18.1632535,
          "velocity": 0.3937007874015748
        },
        {
          "duration": 0.10204075000000046,
          "durationTicks": 96,
          "midi": 56,
          "name": "G#3",
          "ticks": 17088,
          "time": 18.1632535,
          "velocity": 0.3937007874015748
        },
        {
          "duration": 0.10204075000000046,
          "durationTicks": 96,
          "midi": 49,
          "name": "C#3",
          "ticks": 17280,
          "time": 18.367335,
          "velocity": 0.3937007874015748
        },
        {
          "duration": 0.10204075000000046,
          "durationTicks": 96,
          "midi": 65,
          "name": "F4",
          "ticks": 17280,
          "time": 18.367335,
          "velocity": 0.3937007874015748
        },
        {
          "duration": 0.1020407499999969,
          "durationTicks": 96,
          "midi": 66,
          "name": "F#4",
          "ticks": 17472,
          "time": 18.5714165,
          "velocity": 0.3937007874015748
        },
        {
          "duration": 0.1020407499999969,
          "durationTicks": 96,
          "midi": 56,
          "name": "G#3",
          "ticks": 17472,
          "time": 18.5714165,
          "velocity": 0.3937007874015748
        },
        {
          "duration": 0.10204075000000046,
          "durationTicks": 96,
          "midi": 50,
          "name": "D3",
          "ticks": 17664,
          "time": 18.775498,
          "velocity": 0.3937007874015748
        },
        {
          "duration": 0.10204075000000046,
          "durationTicks": 96,
          "midi": 65,
          "name": "F4",
          "ticks": 17664,
          "time": 18.775498,
          "velocity": 0.3937007874015748
        },
        {
          "duration": 0.10204075000000046,
          "durationTicks": 96,
          "midi": 63,
          "name": "D#4",
          "ticks": 17856,
          "time": 18.9795795,
          "velocity": 0.3937007874015748
        },
        {
          "duration": 0.10204075000000046,
          "durationTicks": 96,
          "midi": 58,
          "name": "A#3",
          "ticks": 17856,
          "time": 18.9795795,
          "velocity": 0.3937007874015748
        },
        {
          "duration": 0.10204075000000046,
          "durationTicks": 96,
          "midi": 62,
          "name": "D4",
          "ticks": 18048,
          "time": 19.183661,
          "velocity": 0.3937007874015748
        },
        {
          "duration": 0.10204075000000046,
          "durationTicks": 96,
          "midi": 50,
          "name": "D3",
          "ticks": 18048,
          "time": 19.183661,
          "velocity": 0.3937007874015748
        },
        {
          "duration": 0.1020407499999969,
          "durationTicks": 96,
          "midi": 65,
          "name": "F4",
          "ticks": 18240,
          "time": 19.3877425,
          "velocity": 0.3937007874015748
        },
        {
          "duration": 0.1020407499999969,
          "durationTicks": 96,
          "midi": 58,
          "name": "A#3",
          "ticks": 18240,
          "time": 19.3877425,
          "velocity": 0.3937007874015748
        },
        {
          "duration": 0.10204075000000046,
          "durationTicks": 96,
          "midi": 51,
          "name": "D#3",
          "ticks": 18432,
          "time": 19.591824,
          "velocity": 0.3937007874015748
        },
        {
          "duration": 0.10204075000000046,
          "durationTicks": 96,
          "midi": 63,
          "name": "D#4",
          "ticks": 18432,
          "time": 19.591824,
          "velocity": 0.3937007874015748
        },
        {
          "duration": 0.10204075000000046,
          "durationTicks": 96,
          "midi": 65,
          "name": "F4",
          "ticks": 18624,
          "time": 19.7959055,
          "velocity": 0.3937007874015748
        },
        {
          "duration": 0.10204075000000046,
          "durationTicks": 96,
          "midi": 58,
          "name": "A#3",
          "ticks": 18624,
          "time": 19.7959055,
          "velocity": 0.3937007874015748
        },
        {
          "duration": 0.10204075000000046,
          "durationTicks": 96,
          "midi": 66,
          "name": "F#4",
          "ticks": 18816,
          "time": 19.999987,
          "velocity": 0.3937007874015748
        },
        {
          "duration": 0.10204075000000046,
          "durationTicks": 96,
          "midi": 51,
          "name": "D#3",
          "ticks": 18816,
          "time": 19.999987,
          "velocity": 0.3937007874015748
        },
        {
          "duration": 0.10204075000000046,
          "durationTicks": 96,
          "midi": 58,
          "name": "A#3",
          "ticks": 19008,
          "time": 20.204068499999998,
          "velocity": 0.3937007874015748
        },
        {
          "duration": 0.10204075000000046,
          "durationTicks": 96,
          "midi": 68,
          "name": "G#4",
          "ticks": 19008,
          "time": 20.204068499999998,
          "velocity": 0.3937007874015748
        },
        {
          "duration": 0.10204075000000046,
          "durationTicks": 96,
          "midi": 51,
          "name": "D#3",
          "ticks": 19200,
          "time": 20.40815,
          "velocity": 0.3937007874015748
        },
        {
          "duration": 0.10204075000000046,
          "durationTicks": 96,
          "midi": 70,
          "name": "A#4",
          "ticks": 19200,
          "time": 20.40815,
          "velocity": 0.3937007874015748
        },
        {
          "duration": 0.10204075000000046,
          "durationTicks": 96,
          "midi": 58,
          "name": "A#3",
          "ticks": 19392,
          "time": 20.6122315,
          "velocity": 0.3937007874015748
        },
        {
          "duration": 0.10204075000000046,
          "durationTicks": 96,
          "midi": 70,
          "name": "A#4",
          "ticks": 19488,
          "time": 20.71427225,
          "velocity": 0.3937007874015748
        },
        {
          "duration": 0.10204075000000046,
          "durationTicks": 96,
          "midi": 75,
          "name": "D#5",
          "ticks": 19584,
          "time": 20.816313,
          "velocity": 0.3937007874015748
        },
        {
          "duration": 0.10204075000000046,
          "durationTicks": 96,
          "midi": 51,
          "name": "D#3",
          "ticks": 19584,
          "time": 20.816313,
          "velocity": 0.3937007874015748
        },
        {
          "duration": 0.10204075000000046,
          "durationTicks": 96,
          "midi": 73,
          "name": "C#5",
          "ticks": 19776,
          "time": 21.0203945,
          "velocity": 0.3937007874015748
        },
        {
          "duration": 0.10204075000000046,
          "durationTicks": 96,
          "midi": 58,
          "name": "A#3",
          "ticks": 19776,
          "time": 21.0203945,
          "velocity": 0.3937007874015748
        },
        {
          "duration": 0.10204075000000046,
          "durationTicks": 96,
          "midi": 51,
          "name": "D#3",
          "ticks": 19968,
          "time": 21.224476,
          "velocity": 0.3937007874015748
        },
        {
          "duration": 0.10204075000000046,
          "durationTicks": 96,
          "midi": 70,
          "name": "A#4",
          "ticks": 19968,
          "time": 21.224476,
          "velocity": 0.3937007874015748
        },
        {
          "duration": 0.10204075000000046,
          "durationTicks": 96,
          "midi": 58,
          "name": "A#3",
          "ticks": 20160,
          "time": 21.4285575,
          "velocity": 0.3937007874015748
        },
        {
          "duration": 0.10204075000000046,
          "durationTicks": 96,
          "midi": 70,
          "name": "A#4",
          "ticks": 20256,
          "time": 21.53059825,
          "velocity": 0.3937007874015748
        },
        {
          "duration": 0.10204075000000046,
          "durationTicks": 96,
          "midi": 63,
          "name": "D#4",
          "ticks": 20352,
          "time": 21.632639,
          "velocity": 0.3937007874015748
        },
        {
          "duration": 0.10204075000000046,
          "durationTicks": 96,
          "midi": 51,
          "name": "D#3",
          "ticks": 20352,
          "time": 21.632639,
          "velocity": 0.3937007874015748
        },
        {
          "duration": 0.10204075000000046,
          "durationTicks": 96,
          "midi": 58,
          "name": "A#3",
          "ticks": 20544,
          "time": 21.8367205,
          "velocity": 0.3937007874015748
        },
        {
          "duration": 0.10204075000000046,
          "durationTicks": 96,
          "midi": 63,
          "name": "D#4",
          "ticks": 20640,
          "time": 21.93876125,
          "velocity": 0.3937007874015748
        },
        {
          "duration": 0.10204075000000046,
          "durationTicks": 96,
          "midi": 70,
          "name": "A#4",
          "ticks": 20736,
          "time": 22.040802,
          "velocity": 0.3937007874015748
        },
        {
          "duration": 0.10204075000000046,
          "durationTicks": 96,
          "midi": 51,
          "name": "D#3",
          "ticks": 20736,
          "time": 22.040802,
          "velocity": 0.3937007874015748
        },
        {
          "duration": 0.10204075000000046,
          "durationTicks": 96,
          "midi": 68,
          "name": "G#4",
          "ticks": 20928,
          "time": 22.2448835,
          "velocity": 0.3937007874015748
        },
        {
          "duration": 0.10204075000000046,
          "durationTicks": 96,
          "midi": 58,
          "name": "A#3",
          "ticks": 20928,
          "time": 22.2448835,
          "velocity": 0.3937007874015748
        },
        {
          "duration": 0.10204075000000046,
          "durationTicks": 96,
          "midi": 51,
          "name": "D#3",
          "ticks": 21120,
          "time": 22.448965,
          "velocity": 0.3937007874015748
        },
        {
          "duration": 0.10204075000000046,
          "durationTicks": 96,
          "midi": 66,
          "name": "F#4",
          "ticks": 21120,
          "time": 22.448965,
          "velocity": 0.3937007874015748
        },
        {
          "duration": 0.10204075000000046,
          "durationTicks": 96,
          "midi": 65,
          "name": "F4",
          "ticks": 21312,
          "time": 22.6530465,
          "velocity": 0.3937007874015748
        },
        {
          "duration": 0.10204075000000046,
          "durationTicks": 96,
          "midi": 58,
          "name": "A#3",
          "ticks": 21312,
          "time": 22.6530465,
          "velocity": 0.3937007874015748
        },
        {
          "duration": 0.10204075000000046,
          "durationTicks": 96,
          "midi": 47,
          "name": "B2",
          "ticks": 21504,
          "time": 22.857128,
          "velocity": 0.3937007874015748
        },
        {
          "duration": 0.10204075000000046,
          "durationTicks": 96,
          "midi": 63,
          "name": "D#4",
          "ticks": 21504,
          "time": 22.857128,
          "velocity": 0.3937007874015748
        },
        {
          "duration": 0.10204075000000046,
          "durationTicks": 96,
          "midi": 54,
          "name": "F#3",
          "ticks": 21696,
          "time": 23.0612095,
          "velocity": 0.3937007874015748
        },
        {
          "duration": 0.10204075000000046,
          "durationTicks": 96,
          "midi": 65,
          "name": "F4",
          "ticks": 21696,
          "time": 23.0612095,
          "velocity": 0.3937007874015748
        },
        {
          "duration": 0.1020407499999969,
          "durationTicks": 96,
          "midi": 47,
          "name": "B2",
          "ticks": 21888,
          "time": 23.265291,
          "velocity": 0.3937007874015748
        },
        {
          "duration": 0.1020407499999969,
          "durationTicks": 96,
          "midi": 66,
          "name": "F#4",
          "ticks": 21888,
          "time": 23.265291,
          "velocity": 0.3937007874015748
        },
        {
          "duration": 0.10204075000000046,
          "durationTicks": 96,
          "midi": 68,
          "name": "G#4",
          "ticks": 22080,
          "time": 23.4693725,
          "velocity": 0.3937007874015748
        },
        {
          "duration": 0.10204075000000046,
          "durationTicks": 96,
          "midi": 54,
          "name": "F#3",
          "ticks": 22080,
          "time": 23.4693725,
          "velocity": 0.3937007874015748
        },
        {
          "duration": 0.10204075000000046,
          "durationTicks": 96,
          "midi": 70,
          "name": "A#4",
          "ticks": 22272,
          "time": 23.673454,
          "velocity": 0.3937007874015748
        },
        {
          "duration": 0.10204075000000046,
          "durationTicks": 96,
          "midi": 47,
          "name": "B2",
          "ticks": 22272,
          "time": 23.673454,
          "velocity": 0.3937007874015748
        },
        {
          "duration": 0.10204075000000046,
          "durationTicks": 96,
          "midi": 54,
          "name": "F#3",
          "ticks": 22464,
          "time": 23.8775355,
          "velocity": 0.3937007874015748
        },
        {
          "duration": 0.10204075000000046,
          "durationTicks": 96,
          "midi": 70,
          "name": "A#4",
          "ticks": 22560,
          "time": 23.97957625,
          "velocity": 0.3937007874015748
        },
        {
          "duration": 0.1020407499999969,
          "durationTicks": 96,
          "midi": 47,
          "name": "B2",
          "ticks": 22656,
          "time": 24.081617,
          "velocity": 0.3937007874015748
        },
        {
          "duration": 0.1020407499999969,
          "durationTicks": 96,
          "midi": 68,
          "name": "G#4",
          "ticks": 22656,
          "time": 24.081617,
          "velocity": 0.3937007874015748
        },
        {
          "duration": 0.10204075000000046,
          "durationTicks": 96,
          "midi": 66,
          "name": "F#4",
          "ticks": 22848,
          "time": 24.2856985,
          "velocity": 0.3937007874015748
        },
        {
          "duration": 0.10204075000000046,
          "durationTicks": 96,
          "midi": 54,
          "name": "F#3",
          "ticks": 22848,
          "time": 24.2856985,
          "velocity": 0.3937007874015748
        },
        {
          "duration": 0.10204075000000046,
          "durationTicks": 96,
          "midi": 49,
          "name": "C#3",
          "ticks": 23040,
          "time": 24.48978,
          "velocity": 0.3937007874015748
        },
        {
          "duration": 0.10204075000000046,
          "durationTicks": 96,
          "midi": 65,
          "name": "F4",
          "ticks": 23040,
          "time": 24.48978,
          "velocity": 0.3937007874015748
        },
        {
          "duration": 0.10204075000000046,
          "durationTicks": 96,
          "midi": 56,
          "name": "G#3",
          "ticks": 23232,
          "time": 24.6938615,
          "velocity": 0.3937007874015748
        },
        {
          "duration": 0.10204075000000046,
          "durationTicks": 96,
          "midi": 65,
          "name": "F4",
          "ticks": 23328,
          "time": 24.79590225,
          "velocity": 0.3937007874015748
        },
        {
          "duration": 0.1020407499999969,
          "durationTicks": 96,
          "midi": 66,
          "name": "F#4",
          "ticks": 23424,
          "time": 24.897943,
          "velocity": 0.3937007874015748
        },
        {
          "duration": 0.1020407499999969,
          "durationTicks": 96,
          "midi": 49,
          "name": "C#3",
          "ticks": 23424,
          "time": 24.897943,
          "velocity": 0.3937007874015748
        },
        {
          "duration": 0.10204075000000046,
          "durationTicks": 96,
          "midi": 56,
          "name": "G#3",
          "ticks": 23616,
          "time": 25.1020245,
          "velocity": 0.3937007874015748
        },
        {
          "duration": 0.10204075000000046,
          "durationTicks": 96,
          "midi": 66,
          "name": "F#4",
          "ticks": 23712,
          "time": 25.20406525,
          "velocity": 0.3937007874015748
        },
        {
          "duration": 0.10204075000000046,
          "durationTicks": 96,
          "midi": 50,
          "name": "D3",
          "ticks": 23808,
          "time": 25.306106,
          "velocity": 0.3937007874015748
        },
        {
          "duration": 0.10204075000000046,
          "durationTicks": 96,
          "midi": 68,
          "name": "G#4",
          "ticks": 23808,
          "time": 25.306106,
          "velocity": 0.3937007874015748
        },
        {
          "duration": 0.10204075000000046,
          "durationTicks": 96,
          "midi": 58,
          "name": "A#3",
          "ticks": 24000,
          "time": 25.5101875,
          "velocity": 0.3937007874015748
        },
        {
          "duration": 0.10204075000000046,
          "durationTicks": 96,
          "midi": 68,
          "name": "G#4",
          "ticks": 24096,
          "time": 25.61222825,
          "velocity": 0.3937007874015748
        },
        {
          "duration": 0.1020407499999969,
          "durationTicks": 96,
          "midi": 50,
          "name": "D3",
          "ticks": 24192,
          "time": 25.714269,
          "velocity": 0.3937007874015748
        },
        {
          "duration": 0.1020407499999969,
          "durationTicks": 96,
          "midi": 70,
          "name": "A#4",
          "ticks": 24192,
          "time": 25.714269,
          "velocity": 0.3937007874015748
        },
        {
          "duration": 0.10204075000000046,
          "durationTicks": 96,
          "midi": 58,
          "name": "A#3",
          "ticks": 24384,
          "time": 25.9183505,
          "velocity": 0.3937007874015748
        },
        {
          "duration": 0.10204075000000046,
          "durationTicks": 96,
          "midi": 70,
          "name": "A#4",
          "ticks": 24480,
          "time": 26.02039125,
          "velocity": 0.3937007874015748
        },
        {
          "duration": 0.10204075000000046,
          "durationTicks": 96,
          "midi": 47,
          "name": "B2",
          "ticks": 24576,
          "time": 26.122432,
          "velocity": 0.3937007874015748
        },
        {
          "duration": 0.10204075000000046,
          "durationTicks": 96,
          "midi": 73,
          "name": "C#5",
          "ticks": 24576,
          "time": 26.122432,
          "velocity": 0.3937007874015748
        },
        {
          "duration": 0.10204075000000046,
          "durationTicks": 96,
          "midi": 54,
          "name": "F#3",
          "ticks": 24768,
          "time": 26.3265135,
          "velocity": 0.3937007874015748
        },
        {
          "duration": 0.10204075000000046,
          "durationTicks": 96,
          "midi": 75,
          "name": "D#5",
          "ticks": 24768,
          "time": 26.3265135,
          "velocity": 0.3937007874015748
        },
        {
          "duration": 0.10204075000000046,
          "durationTicks": 96,
          "midi": 70,
          "name": "A#4",
          "ticks": 24960,
          "time": 26.530594999999998,
          "velocity": 0.3937007874015748
        },
        {
          "duration": 0.10204075000000046,
          "durationTicks": 96,
          "midi": 47,
          "name": "B2",
          "ticks": 24960,
          "time": 26.530594999999998,
          "velocity": 0.3937007874015748
        },
        {
          "duration": 0.10204075000000046,
          "durationTicks": 96,
          "midi": 54,
          "name": "F#3",
          "ticks": 25152,
          "time": 26.7346765,
          "velocity": 0.3937007874015748
        },
        {
          "duration": 0.10204075000000046,
          "durationTicks": 96,
          "midi": 68,
          "name": "G#4",
          "ticks": 25152,
          "time": 26.7346765,
          "velocity": 0.3937007874015748
        },
        {
          "duration": 0.10204075000000046,
          "durationTicks": 96,
          "midi": 70,
          "name": "A#4",
          "ticks": 25344,
          "time": 26.938758,
          "velocity": 0.3937007874015748
        },
        {
          "duration": 0.10204075000000046,
          "durationTicks": 96,
          "midi": 47,
          "name": "B2",
          "ticks": 25344,
          "time": 26.938758,
          "velocity": 0.3937007874015748
        },
        {
          "duration": 0.10204075000000046,
          "durationTicks": 96,
          "midi": 54,
          "name": "F#3",
          "ticks": 25536,
          "time": 27.1428395,
          "velocity": 0.3937007874015748
        },
        {
          "duration": 0.1020407499999969,
          "durationTicks": 96,
          "midi": 70,
          "name": "A#4",
          "ticks": 25632,
          "time": 27.24488025,
          "velocity": 0.3937007874015748
        },
        {
          "duration": 0.10204075000000046,
          "durationTicks": 96,
          "midi": 47,
          "name": "B2",
          "ticks": 25728,
          "time": 27.346921,
          "velocity": 0.3937007874015748
        },
        {
          "duration": 0.10204075000000046,
          "durationTicks": 96,
          "midi": 68,
          "name": "G#4",
          "ticks": 25728,
          "time": 27.346921,
          "velocity": 0.3937007874015748
        },
        {
          "duration": 0.10204075000000046,
          "durationTicks": 96,
          "midi": 70,
          "name": "A#4",
          "ticks": 25920,
          "time": 27.5510025,
          "velocity": 0.3937007874015748
        },
        {
          "duration": 0.10204075000000046,
          "durationTicks": 96,
          "midi": 54,
          "name": "F#3",
          "ticks": 25920,
          "time": 27.5510025,
          "velocity": 0.3937007874015748
        },
        {
          "duration": 0.10204075000000046,
          "durationTicks": 96,
          "midi": 73,
          "name": "C#5",
          "ticks": 26112,
          "time": 27.755084,
          "velocity": 0.3937007874015748
        },
        {
          "duration": 0.10204075000000046,
          "durationTicks": 96,
          "midi": 49,
          "name": "C#3",
          "ticks": 26112,
          "time": 27.755084,
          "velocity": 0.3937007874015748
        },
        {
          "duration": 0.10204075000000046,
          "durationTicks": 96,
          "midi": 75,
          "name": "D#5",
          "ticks": 26304,
          "time": 27.9591655,
          "velocity": 0.3937007874015748
        },
        {
          "duration": 0.10204075000000046,
          "durationTicks": 96,
          "midi": 56,
          "name": "G#3",
          "ticks": 26304,
          "time": 27.9591655,
          "velocity": 0.3937007874015748
        },
        {
          "duration": 0.10204075000000046,
          "durationTicks": 96,
          "midi": 70,
          "name": "A#4",
          "ticks": 26496,
          "time": 28.163247,
          "velocity": 0.3937007874015748
        },
        {
          "duration": 0.10204075000000046,
          "durationTicks": 96,
          "midi": 49,
          "name": "C#3",
          "ticks": 26496,
          "time": 28.163247,
          "velocity": 0.3937007874015748
        },
        {
          "duration": 0.10204075000000046,
          "durationTicks": 96,
          "midi": 56,
          "name": "G#3",
          "ticks": 26688,
          "time": 28.3673285,
          "velocity": 0.3937007874015748
        },
        {
          "duration": 0.10204075000000046,
          "durationTicks": 96,
          "midi": 68,
          "name": "G#4",
          "ticks": 26688,
          "time": 28.3673285,
          "velocity": 0.3937007874015748
        },
        {
          "duration": 0.10204075000000046,
          "durationTicks": 96,
          "midi": 49,
          "name": "C#3",
          "ticks": 26880,
          "time": 28.57141,
          "velocity": 0.3937007874015748
        },
        {
          "duration": 0.10204075000000046,
          "durationTicks": 96,
          "midi": 70,
          "name": "A#4",
          "ticks": 26880,
          "time": 28.57141,
          "velocity": 0.3937007874015748
        },
        {
          "duration": 0.10204075000000046,
          "durationTicks": 96,
          "midi": 56,
          "name": "G#3",
          "ticks": 27072,
          "time": 28.7754915,
          "velocity": 0.3937007874015748
        },
        {
          "duration": 0.1020407499999969,
          "durationTicks": 96,
          "midi": 70,
          "name": "A#4",
          "ticks": 27168,
          "time": 28.87753225,
          "velocity": 0.3937007874015748
        },
        {
          "duration": 0.10204075000000046,
          "durationTicks": 96,
          "midi": 49,
          "name": "C#3",
          "ticks": 27264,
          "time": 28.979573,
          "velocity": 0.3937007874015748
        },
        {
          "duration": 0.10204075000000046,
          "durationTicks": 96,
          "midi": 68,
          "name": "G#4",
          "ticks": 27264,
          "time": 28.979573,
          "velocity": 0.3937007874015748
        },
        {
          "duration": 0.10204075000000046,
          "durationTicks": 96,
          "midi": 70,
          "name": "A#4",
          "ticks": 27456,
          "time": 29.1836545,
          "velocity": 0.3937007874015748
        },
        {
          "duration": 0.10204075000000046,
          "durationTicks": 96,
          "midi": 56,
          "name": "G#3",
          "ticks": 27456,
          "time": 29.1836545,
          "velocity": 0.3937007874015748
        },
        {
          "duration": 0.10204075000000046,
          "durationTicks": 96,
          "midi": 68,
          "name": "G#4",
          "ticks": 27648,
          "time": 29.387736,
          "velocity": 0.3937007874015748
        },
        {
          "duration": 0.10204075000000046,
          "durationTicks": 96,
          "midi": 51,
          "name": "D#3",
          "ticks": 27648,
          "time": 29.387736,
          "velocity": 0.3937007874015748
        },
        {
          "duration": 0.1020407499999969,
          "durationTicks": 96,
          "midi": 66,
          "name": "F#4",
          "ticks": 27840,
          "time": 29.5918175,
          "velocity": 0.3937007874015748
        },
        {
          "duration": 0.1020407499999969,
          "durationTicks": 96,
          "midi": 58,
          "name": "A#3",
          "ticks": 27840,
          "time": 29.5918175,
          "velocity": 0.3937007874015748
        },
        {
          "duration": 0.10204075000000046,
          "durationTicks": 96,
          "midi": 51,
          "name": "D#3",
          "ticks": 28032,
          "time": 29.795899,
          "velocity": 0.3937007874015748
        },
        {
          "duration": 0.10204075000000046,
          "durationTicks": 96,
          "midi": 65,
          "name": "F4",
          "ticks": 28032,
          "time": 29.795899,
          "velocity": 0.3937007874015748
        },
        {
          "duration": 0.10204075000000046,
          "durationTicks": 96,
          "midi": 58,
          "name": "A#3",
          "ticks": 28224,
          "time": 29.9999805,
          "velocity": 0.3937007874015748
        },
        {
          "duration": 0.10204075000000046,
          "durationTicks": 96,
          "midi": 61,
          "name": "C#4",
          "ticks": 28224,
          "time": 29.9999805,
          "velocity": 0.3937007874015748
        },
        {
          "duration": 0.10204075000000046,
          "durationTicks": 96,
          "midi": 63,
          "name": "D#4",
          "ticks": 28416,
          "time": 30.204062,
          "velocity": 0.3937007874015748
        },
        {
          "duration": 0.10204075000000046,
          "durationTicks": 96,
          "midi": 51,
          "name": "D#3",
          "ticks": 28416,
          "time": 30.204062,
          "velocity": 0.3937007874015748
        },
        {
          "duration": 0.1020407499999969,
          "durationTicks": 96,
          "midi": 58,
          "name": "A#3",
          "ticks": 28608,
          "time": 30.4081435,
          "velocity": 0.3937007874015748
        },
        {
          "duration": 0.10204075000000046,
          "durationTicks": 96,
          "midi": 63,
          "name": "D#4",
          "ticks": 28704,
          "time": 30.51018425,
          "velocity": 0.3937007874015748
        },
        {
          "duration": 0.10204075000000046,
          "durationTicks": 96,
          "midi": 61,
          "name": "C#4",
          "ticks": 28800,
          "time": 30.612225,
          "velocity": 0.3937007874015748
        },
        {
          "duration": 0.10204075000000046,
          "durationTicks": 96,
          "midi": 51,
          "name": "D#3",
          "ticks": 28800,
          "time": 30.612225,
          "velocity": 0.3937007874015748
        },
        {
          "duration": 0.10204075000000046,
          "durationTicks": 96,
          "midi": 63,
          "name": "D#4",
          "ticks": 28992,
          "time": 30.8163065,
          "velocity": 0.3937007874015748
        },
        {
          "duration": 0.10204075000000046,
          "durationTicks": 96,
          "midi": 58,
          "name": "A#3",
          "ticks": 28992,
          "time": 30.8163065,
          "velocity": 0.3937007874015748
        },
        {
          "duration": 0.10204075000000046,
          "durationTicks": 96,
          "midi": 51,
          "name": "D#3",
          "ticks": 29184,
          "time": 31.020388,
          "velocity": 0.3937007874015748
        },
        {
          "duration": 0.10204075000000046,
          "durationTicks": 96,
          "midi": 65,
          "name": "F4",
          "ticks": 29184,
          "time": 31.020388,
          "velocity": 0.3937007874015748
        },
        {
          "duration": 0.1020407499999969,
          "durationTicks": 96,
          "midi": 66,
          "name": "F#4",
          "ticks": 29376,
          "time": 31.2244695,
          "velocity": 0.3937007874015748
        },
        {
          "duration": 0.1020407499999969,
          "durationTicks": 96,
          "midi": 58,
          "name": "A#3",
          "ticks": 29376,
          "time": 31.2244695,
          "velocity": 0.3937007874015748
        },
        {
          "duration": 0.10204075000000046,
          "durationTicks": 96,
          "midi": 51,
          "name": "D#3",
          "ticks": 29568,
          "time": 31.428551,
          "velocity": 0.3937007874015748
        },
        {
          "duration": 0.10204075000000046,
          "durationTicks": 96,
          "midi": 68,
          "name": "G#4",
          "ticks": 29568,
          "time": 31.428551,
          "velocity": 0.3937007874015748
        },
        {
          "duration": 0.10204075000000046,
          "durationTicks": 96,
          "midi": 58,
          "name": "A#3",
          "ticks": 29760,
          "time": 31.6326325,
          "velocity": 0.3937007874015748
        },
        {
          "duration": 0.10204075000000046,
          "durationTicks": 96,
          "midi": 70,
          "name": "A#4",
          "ticks": 29760,
          "time": 31.6326325,
          "velocity": 0.3937007874015748
        },
        {
          "duration": 0.10204075000000046,
          "durationTicks": 96,
          "midi": 51,
          "name": "D#3",
          "ticks": 29952,
          "time": 31.836714,
          "velocity": 0.3937007874015748
        },
        {
          "duration": 0.10204075000000046,
          "durationTicks": 96,
          "midi": 63,
          "name": "D#4",
          "ticks": 29952,
          "time": 31.836714,
          "velocity": 0.3937007874015748
        },
        {
          "duration": 0.10204075000000046,
          "durationTicks": 96,
          "midi": 58,
          "name": "A#3",
          "ticks": 30144,
          "time": 32.0407955,
          "velocity": 0.3937007874015748
        },
        {
          "duration": 0.10204075000000046,
          "durationTicks": 96,
          "midi": 63,
          "name": "D#4",
          "ticks": 30240,
          "time": 32.14283625,
          "velocity": 0.3937007874015748
        },
        {
          "duration": 0.10204075000000046,
          "durationTicks": 96,
          "midi": 70,
          "name": "A#4",
          "ticks": 30336,
          "time": 32.244877,
          "velocity": 0.3937007874015748
        },
        {
          "duration": 0.10204075000000046,
          "durationTicks": 96,
          "midi": 51,
          "name": "D#3",
          "ticks": 30336,
          "time": 32.244877,
          "velocity": 0.3937007874015748
        },
        {
          "duration": 0.10204074999999335,
          "durationTicks": 96,
          "midi": 73,
          "name": "C#5",
          "ticks": 30528,
          "time": 32.4489585,
          "velocity": 0.3937007874015748
        },
        {
          "duration": 0.10204074999999335,
          "durationTicks": 96,
          "midi": 58,
          "name": "A#3",
          "ticks": 30528,
          "time": 32.4489585,
          "velocity": 0.3937007874015748
        },
        {
          "duration": 0.10204075000000046,
          "durationTicks": 96,
          "midi": 47,
          "name": "B2",
          "ticks": 30720,
          "time": 32.65304,
          "velocity": 0.3937007874015748
        },
        {
          "duration": 0.10204075000000046,
          "durationTicks": 96,
          "midi": 73,
          "name": "C#5",
          "ticks": 30720,
          "time": 32.65304,
          "velocity": 0.3937007874015748
        },
        {
          "duration": 0.10204075000000046,
          "durationTicks": 96,
          "midi": 75,
          "name": "D#5",
          "ticks": 30912,
          "time": 32.8571215,
          "velocity": 0.3937007874015748
        },
        {
          "duration": 0.10204075000000046,
          "durationTicks": 96,
          "midi": 54,
          "name": "F#3",
          "ticks": 30912,
          "time": 32.8571215,
          "velocity": 0.3937007874015748
        },
        {
          "duration": 0.10204075000000046,
          "durationTicks": 96,
          "midi": 70,
          "name": "A#4",
          "ticks": 31104,
          "time": 33.061203,
          "velocity": 0.3937007874015748
        },
        {
          "duration": 0.10204075000000046,
          "durationTicks": 96,
          "midi": 47,
          "name": "B2",
          "ticks": 31104,
          "time": 33.061203,
          "velocity": 0.3937007874015748
        },
        {
          "duration": 0.10204075000000046,
          "durationTicks": 96,
          "midi": 54,
          "name": "F#3",
          "ticks": 31296,
          "time": 33.2652845,
          "velocity": 0.3937007874015748
        },
        {
          "duration": 0.10204075000000046,
          "durationTicks": 96,
          "midi": 68,
          "name": "G#4",
          "ticks": 31296,
          "time": 33.2652845,
          "velocity": 0.3937007874015748
        },
        {
          "duration": 0.10204075000000046,
          "durationTicks": 96,
          "midi": 47,
          "name": "B2",
          "ticks": 31488,
          "time": 33.469366,
          "velocity": 0.3937007874015748
        },
        {
          "duration": 0.10204075000000046,
          "durationTicks": 96,
          "midi": 70,
          "name": "A#4",
          "ticks": 31488,
          "time": 33.469366,
          "velocity": 0.3937007874015748
        },
        {
          "duration": 0.10204075000000046,
          "durationTicks": 96,
          "midi": 54,
          "name": "F#3",
          "ticks": 31680,
          "time": 33.6734475,
          "velocity": 0.3937007874015748
        },
        {
          "duration": 0.10204075000000046,
          "durationTicks": 96,
          "midi": 70,
          "name": "A#4",
          "ticks": 31776,
          "time": 33.77548825,
          "velocity": 0.3937007874015748
        },
        {
          "duration": 0.10204075000000046,
          "durationTicks": 96,
          "midi": 47,
          "name": "B2",
          "ticks": 31872,
          "time": 33.877529,
          "velocity": 0.3937007874015748
        },
        {
          "duration": 0.10204075000000046,
          "durationTicks": 96,
          "midi": 68,
          "name": "G#4",
          "ticks": 31872,
          "time": 33.877529,
          "velocity": 0.3937007874015748
        },
        {
          "duration": 0.10204075000000046,
          "durationTicks": 96,
          "midi": 70,
          "name": "A#4",
          "ticks": 32064,
          "time": 34.0816105,
          "velocity": 0.3937007874015748
        },
        {
          "duration": 0.10204075000000046,
          "durationTicks": 96,
          "midi": 54,
          "name": "F#3",
          "ticks": 32064,
          "time": 34.0816105,
          "velocity": 0.3937007874015748
        },
        {
          "duration": 0.10204075000000046,
          "durationTicks": 96,
          "midi": 49,
          "name": "C#3",
          "ticks": 32256,
          "time": 34.285692,
          "velocity": 0.3937007874015748
        },
        {
          "duration": 0.10204075000000046,
          "durationTicks": 96,
          "midi": 73,
          "name": "C#5",
          "ticks": 32256,
          "time": 34.285692,
          "velocity": 0.3937007874015748
        },
        {
          "duration": 0.10204075000000046,
          "durationTicks": 96,
          "midi": 75,
          "name": "D#5",
          "ticks": 32448,
          "time": 34.4897735,
          "velocity": 0.3937007874015748
        },
        {
          "duration": 0.10204075000000046,
          "durationTicks": 96,
          "midi": 56,
          "name": "G#3",
          "ticks": 32448,
          "time": 34.4897735,
          "velocity": 0.3937007874015748
        },
        {
          "duration": 0.10204075000000046,
          "durationTicks": 96,
          "midi": 49,
          "name": "C#3",
          "ticks": 32640,
          "time": 34.693855,
          "velocity": 0.3937007874015748
        },
        {
          "duration": 0.10204075000000046,
          "durationTicks": 96,
          "midi": 70,
          "name": "A#4",
          "ticks": 32640,
          "time": 34.693855,
          "velocity": 0.3937007874015748
        },
        {
          "duration": 0.10204075000000046,
          "durationTicks": 96,
          "midi": 56,
          "name": "G#3",
          "ticks": 32832,
          "time": 34.8979365,
          "velocity": 0.3937007874015748
        },
        {
          "duration": 0.10204075000000046,
          "durationTicks": 96,
          "midi": 68,
          "name": "G#4",
          "ticks": 32832,
          "time": 34.8979365,
          "velocity": 0.3937007874015748
        },
        {
          "duration": 0.10204075000000046,
          "durationTicks": 96,
          "midi": 70,
          "name": "A#4",
          "ticks": 33024,
          "time": 35.102018,
          "velocity": 0.3937007874015748
        },
        {
          "duration": 0.10204075000000046,
          "durationTicks": 96,
          "midi": 49,
          "name": "C#3",
          "ticks": 33024,
          "time": 35.102018,
          "velocity": 0.3937007874015748
        },
        {
          "duration": 0.10204075000000046,
          "durationTicks": 96,
          "midi": 56,
          "name": "G#3",
          "ticks": 33216,
          "time": 35.3060995,
          "velocity": 0.3937007874015748
        },
        {
          "duration": 0.10204075000000046,
          "durationTicks": 96,
          "midi": 70,
          "name": "A#4",
          "ticks": 33312,
          "time": 35.40814025,
          "velocity": 0.3937007874015748
        },
        {
          "duration": 0.10204075000000046,
          "durationTicks": 96,
          "midi": 49,
          "name": "C#3",
          "ticks": 33408,
          "time": 35.510181,
          "velocity": 0.3937007874015748
        },
        {
          "duration": 0.10204075000000046,
          "durationTicks": 96,
          "midi": 68,
          "name": "G#4",
          "ticks": 33408,
          "time": 35.510181,
          "velocity": 0.3937007874015748
        },
        {
          "duration": 0.10204075000000046,
          "durationTicks": 96,
          "midi": 56,
          "name": "G#3",
          "ticks": 33600,
          "time": 35.7142625,
          "velocity": 0.3937007874015748
        },
        {
          "duration": 0.10204075000000046,
          "durationTicks": 96,
          "midi": 70,
          "name": "A#4",
          "ticks": 33600,
          "time": 35.7142625,
          "velocity": 0.3937007874015748
        },
        {
          "duration": 0.10204075000000046,
          "durationTicks": 96,
          "midi": 51,
          "name": "D#3",
          "ticks": 33792,
          "time": 35.918344,
          "velocity": 0.3937007874015748
        },
        {
          "duration": 0.10204075000000046,
          "durationTicks": 96,
          "midi": 68,
          "name": "G#4",
          "ticks": 33792,
          "time": 35.918344,
          "velocity": 0.3937007874015748
        },
        {
          "duration": 0.10204075000000046,
          "durationTicks": 96,
          "midi": 58,
          "name": "A#3",
          "ticks": 33984,
          "time": 36.1224255,
          "velocity": 0.3937007874015748
        },
        {
          "duration": 0.10204075000000046,
          "durationTicks": 96,
          "midi": 66,
          "name": "F#4",
          "ticks": 33984,
          "time": 36.1224255,
          "velocity": 0.3937007874015748
        },
        {
          "duration": 0.10204075000000046,
          "durationTicks": 96,
          "midi": 51,
          "name": "D#3",
          "ticks": 34176,
          "time": 36.326507,
          "velocity": 0.3937007874015748
        },
        {
          "duration": 0.10204075000000046,
          "durationTicks": 96,
          "midi": 65,
          "name": "F4",
          "ticks": 34176,
          "time": 36.326507,
          "velocity": 0.3937007874015748
        },
        {
          "duration": 0.10204075000000046,
          "durationTicks": 96,
          "midi": 58,
          "name": "A#3",
          "ticks": 34368,
          "time": 36.5305885,
          "velocity": 0.3937007874015748
        },
        {
          "duration": 0.10204075000000046,
          "durationTicks": 96,
          "midi": 61,
          "name": "C#4",
          "ticks": 34368,
          "time": 36.5305885,
          "velocity": 0.3937007874015748
        },
        {
          "duration": 0.10204075000000046,
          "durationTicks": 96,
          "midi": 51,
          "name": "D#3",
          "ticks": 34560,
          "time": 36.73467,
          "velocity": 0.3937007874015748
        },
        {
          "duration": 0.10204075000000046,
          "durationTicks": 96,
          "midi": 63,
          "name": "D#4",
          "ticks": 34560,
          "time": 36.73467,
          "velocity": 0.3937007874015748
        },
        {
          "duration": 0.10204075000000046,
          "durationTicks": 96,
          "midi": 58,
          "name": "A#3",
          "ticks": 34752,
          "time": 36.9387515,
          "velocity": 0.3937007874015748
        },
        {
          "duration": 0.10204075000000046,
          "durationTicks": 96,
          "midi": 63,
          "name": "D#4",
          "ticks": 34848,
          "time": 37.04079225,
          "velocity": 0.3937007874015748
        },
        {
          "duration": 0.10204074999999335,
          "durationTicks": 96,
          "midi": 61,
          "name": "C#4",
          "ticks": 34944,
          "time": 37.142833,
          "velocity": 0.3937007874015748
        },
        {
          "duration": 0.10204074999999335,
          "durationTicks": 96,
          "midi": 51,
          "name": "D#3",
          "ticks": 34944,
          "time": 37.142833,
          "velocity": 0.3937007874015748
        },
        {
          "duration": 0.10204075000000046,
          "durationTicks": 96,
          "midi": 63,
          "name": "D#4",
          "ticks": 35136,
          "time": 37.3469145,
          "velocity": 0.3937007874015748
        },
        {
          "duration": 0.10204075000000046,
          "durationTicks": 96,
          "midi": 58,
          "name": "A#3",
          "ticks": 35136,
          "time": 37.3469145,
          "velocity": 0.3937007874015748
        },
        {
          "duration": 0.10204075000000046,
          "durationTicks": 96,
          "midi": 51,
          "name": "D#3",
          "ticks": 35328,
          "time": 37.550996,
          "velocity": 0.3937007874015748
        },
        {
          "duration": 0.10204075000000046,
          "durationTicks": 96,
          "midi": 65,
          "name": "F4",
          "ticks": 35328,
          "time": 37.550996,
          "velocity": 0.3937007874015748
        },
        {
          "duration": 0.10204075000000046,
          "durationTicks": 96,
          "midi": 66,
          "name": "F#4",
          "ticks": 35520,
          "time": 37.7550775,
          "velocity": 0.3937007874015748
        },
        {
          "duration": 0.10204075000000046,
          "durationTicks": 96,
          "midi": 58,
          "name": "A#3",
          "ticks": 35520,
          "time": 37.7550775,
          "velocity": 0.3937007874015748
        },
        {
          "duration": 0.10204075000000046,
          "durationTicks": 96,
          "midi": 68,
          "name": "G#4",
          "ticks": 35712,
          "time": 37.959159,
          "velocity": 0.3937007874015748
        },
        {
          "duration": 0.10204075000000046,
          "durationTicks": 96,
          "midi": 51,
          "name": "D#3",
          "ticks": 35712,
          "time": 37.959159,
          "velocity": 0.3937007874015748
        },
        {
          "duration": 0.10204075000000046,
          "durationTicks": 96,
          "midi": 58,
          "name": "A#3",
          "ticks": 35904,
          "time": 38.1632405,
          "velocity": 0.3937007874015748
        },
        {
          "duration": 0.10204075000000046,
          "durationTicks": 96,
          "midi": 70,
          "name": "A#4",
          "ticks": 35904,
          "time": 38.1632405,
          "velocity": 0.3937007874015748
        },
        {
          "duration": 0.10204075000000046,
          "durationTicks": 96,
          "midi": 51,
          "name": "D#3",
          "ticks": 36096,
          "time": 38.367322,
          "velocity": 0.3937007874015748
        },
        {
          "duration": 0.10204075000000046,
          "durationTicks": 96,
          "midi": 63,
          "name": "D#4",
          "ticks": 36096,
          "time": 38.367322,
          "velocity": 0.3937007874015748
        },
        {
          "duration": 0.10204075000000046,
          "durationTicks": 96,
          "midi": 58,
          "name": "A#3",
          "ticks": 36288,
          "time": 38.5714035,
          "velocity": 0.3937007874015748
        },
        {
          "duration": 0.10204075000000046,
          "durationTicks": 96,
          "midi": 63,
          "name": "D#4",
          "ticks": 36384,
          "time": 38.67344425,
          "velocity": 0.3937007874015748
        },
        {
          "duration": 0.10204074999999335,
          "durationTicks": 96,
          "midi": 70,
          "name": "A#4",
          "ticks": 36480,
          "time": 38.775485,
          "velocity": 0.3937007874015748
        },
        {
          "duration": 0.10204074999999335,
          "durationTicks": 96,
          "midi": 51,
          "name": "D#3",
          "ticks": 36480,
          "time": 38.775485,
          "velocity": 0.3937007874015748
        },
        {
          "duration": 0.10204075000000046,
          "durationTicks": 96,
          "midi": 58,
          "name": "A#3",
          "ticks": 36672,
          "time": 38.9795665,
          "velocity": 0.3937007874015748
        },
        {
          "duration": 0.10204075000000046,
          "durationTicks": 96,
          "midi": 73,
          "name": "C#5",
          "ticks": 36672,
          "time": 38.9795665,
          "velocity": 0.3937007874015748
        },
        {
          "duration": 0.10204075000000046,
          "durationTicks": 96,
          "midi": 47,
          "name": "B2",
          "ticks": 36864,
          "time": 39.183648,
          "velocity": 0.3937007874015748
        },
        {
          "duration": 0.10204075000000046,
          "durationTicks": 96,
          "midi": 73,
          "name": "C#5",
          "ticks": 36864,
          "time": 39.183648,
          "velocity": 0.3937007874015748
        },
        {
          "duration": 0.10204075000000046,
          "durationTicks": 96,
          "midi": 75,
          "name": "D#5",
          "ticks": 37056,
          "time": 39.3877295,
          "velocity": 0.3937007874015748
        },
        {
          "duration": 0.10204075000000046,
          "durationTicks": 96,
          "midi": 54,
          "name": "F#3",
          "ticks": 37056,
          "time": 39.3877295,
          "velocity": 0.3937007874015748
        },
        {
          "duration": 0.10204075000000046,
          "durationTicks": 96,
          "midi": 70,
          "name": "A#4",
          "ticks": 37248,
          "time": 39.591811,
          "velocity": 0.3937007874015748
        },
        {
          "duration": 0.10204075000000046,
          "durationTicks": 96,
          "midi": 47,
          "name": "B2",
          "ticks": 37248,
          "time": 39.591811,
          "velocity": 0.3937007874015748
        },
        {
          "duration": 0.10204075000000046,
          "durationTicks": 96,
          "midi": 54,
          "name": "F#3",
          "ticks": 37440,
          "time": 39.7958925,
          "velocity": 0.3937007874015748
        },
        {
          "duration": 0.10204075000000046,
          "durationTicks": 96,
          "midi": 68,
          "name": "G#4",
          "ticks": 37440,
          "time": 39.7958925,
          "velocity": 0.3937007874015748
        },
        {
          "duration": 0.10204075000000046,
          "durationTicks": 96,
          "midi": 70,
          "name": "A#4",
          "ticks": 37632,
          "time": 39.999974,
          "velocity": 0.3937007874015748
        },
        {
          "duration": 0.10204075000000046,
          "durationTicks": 96,
          "midi": 47,
          "name": "B2",
          "ticks": 37632,
          "time": 39.999974,
          "velocity": 0.3937007874015748
        },
        {
          "duration": 0.10204075000000046,
          "durationTicks": 96,
          "midi": 54,
          "name": "F#3",
          "ticks": 37824,
          "time": 40.2040555,
          "velocity": 0.3937007874015748
        },
        {
          "duration": 0.10204074999999335,
          "durationTicks": 96,
          "midi": 70,
          "name": "A#4",
          "ticks": 37920,
          "time": 40.30609625,
          "velocity": 0.3937007874015748
        },
        {
          "duration": 0.10204075000000046,
          "durationTicks": 96,
          "midi": 68,
          "name": "G#4",
          "ticks": 38016,
          "time": 40.408136999999996,
          "velocity": 0.3937007874015748
        },
        {
          "duration": 0.10204075000000046,
          "durationTicks": 96,
          "midi": 47,
          "name": "B2",
          "ticks": 38016,
          "time": 40.408136999999996,
          "velocity": 0.3937007874015748
        },
        {
          "duration": 0.10204075000000046,
          "durationTicks": 96,
          "midi": 70,
          "name": "A#4",
          "ticks": 38208,
          "time": 40.6122185,
          "velocity": 0.3937007874015748
        },
        {
          "duration": 0.10204075000000046,
          "durationTicks": 96,
          "midi": 54,
          "name": "F#3",
          "ticks": 38208,
          "time": 40.6122185,
          "velocity": 0.3937007874015748
        },
        {
          "duration": 0.10204075000000046,
          "durationTicks": 96,
          "midi": 49,
          "name": "C#3",
          "ticks": 38400,
          "time": 40.8163,
          "velocity": 0.3937007874015748
        },
        {
          "duration": 0.10204075000000046,
          "durationTicks": 96,
          "midi": 73,
          "name": "C#5",
          "ticks": 38400,
          "time": 40.8163,
          "velocity": 0.3937007874015748
        },
        {
          "duration": 0.10204075000000046,
          "durationTicks": 96,
          "midi": 56,
          "name": "G#3",
          "ticks": 38592,
          "time": 41.0203815,
          "velocity": 0.3937007874015748
        },
        {
          "duration": 0.10204075000000046,
          "durationTicks": 96,
          "midi": 75,
          "name": "D#5",
          "ticks": 38592,
          "time": 41.0203815,
          "velocity": 0.3937007874015748
        },
        {
          "duration": 0.10204075000000046,
          "durationTicks": 96,
          "midi": 49,
          "name": "C#3",
          "ticks": 38784,
          "time": 41.224463,
          "velocity": 0.3937007874015748
        },
        {
          "duration": 0.10204075000000046,
          "durationTicks": 96,
          "midi": 70,
          "name": "A#4",
          "ticks": 38784,
          "time": 41.224463,
          "velocity": 0.3937007874015748
        },
        {
          "duration": 0.10204075000000046,
          "durationTicks": 96,
          "midi": 68,
          "name": "G#4",
          "ticks": 38976,
          "time": 41.4285445,
          "velocity": 0.3937007874015748
        },
        {
          "duration": 0.10204075000000046,
          "durationTicks": 96,
          "midi": 56,
          "name": "G#3",
          "ticks": 38976,
          "time": 41.4285445,
          "velocity": 0.3937007874015748
        },
        {
          "duration": 0.10204075000000046,
          "durationTicks": 96,
          "midi": 70,
          "name": "A#4",
          "ticks": 39168,
          "time": 41.632626,
          "velocity": 0.3937007874015748
        },
        {
          "duration": 0.10204075000000046,
          "durationTicks": 96,
          "midi": 49,
          "name": "C#3",
          "ticks": 39168,
          "time": 41.632626,
          "velocity": 0.3937007874015748
        },
        {
          "duration": 0.10204075000000046,
          "durationTicks": 96,
          "midi": 56,
          "name": "G#3",
          "ticks": 39360,
          "time": 41.8367075,
          "velocity": 0.3937007874015748
        },
        {
          "duration": 0.10204074999999335,
          "durationTicks": 96,
          "midi": 70,
          "name": "A#4",
          "ticks": 39456,
          "time": 41.93874825,
          "velocity": 0.3937007874015748
        },
        {
          "duration": 0.10204075000000046,
          "durationTicks": 96,
          "midi": 49,
          "name": "C#3",
          "ticks": 39552,
          "time": 42.040789,
          "velocity": 0.3937007874015748
        },
        {
          "duration": 0.10204075000000046,
          "durationTicks": 96,
          "midi": 68,
          "name": "G#4",
          "ticks": 39552,
          "time": 42.040789,
          "velocity": 0.3937007874015748
        },
        {
          "duration": 0.10204075000000046,
          "durationTicks": 96,
          "midi": 56,
          "name": "G#3",
          "ticks": 39744,
          "time": 42.2448705,
          "velocity": 0.3937007874015748
        },
        {
          "duration": 0.10204075000000046,
          "durationTicks": 96,
          "midi": 70,
          "name": "A#4",
          "ticks": 39744,
          "time": 42.2448705,
          "velocity": 0.3937007874015748
        },
        {
          "duration": 0.10204075000000046,
          "durationTicks": 96,
          "midi": 51,
          "name": "D#3",
          "ticks": 39936,
          "time": 42.448952,
          "velocity": 0.3937007874015748
        },
        {
          "duration": 0.10204075000000046,
          "durationTicks": 96,
          "midi": 68,
          "name": "G#4",
          "ticks": 39936,
          "time": 42.448952,
          "velocity": 0.3937007874015748
        },
        {
          "duration": 0.10204075000000046,
          "durationTicks": 96,
          "midi": 66,
          "name": "F#4",
          "ticks": 40128,
          "time": 42.6530335,
          "velocity": 0.3937007874015748
        },
        {
          "duration": 0.10204075000000046,
          "durationTicks": 96,
          "midi": 58,
          "name": "A#3",
          "ticks": 40128,
          "time": 42.6530335,
          "velocity": 0.3937007874015748
        },
        {
          "duration": 0.10204075000000046,
          "durationTicks": 96,
          "midi": 65,
          "name": "F4",
          "ticks": 40320,
          "time": 42.857115,
          "velocity": 0.3937007874015748
        },
        {
          "duration": 0.10204075000000046,
          "durationTicks": 96,
          "midi": 51,
          "name": "D#3",
          "ticks": 40320,
          "time": 42.857115,
          "velocity": 0.3937007874015748
        },
        {
          "duration": 0.10204075000000046,
          "durationTicks": 96,
          "midi": 58,
          "name": "A#3",
          "ticks": 40512,
          "time": 43.0611965,
          "velocity": 0.3937007874015748
        },
        {
          "duration": 0.10204075000000046,
          "durationTicks": 96,
          "midi": 61,
          "name": "C#4",
          "ticks": 40512,
          "time": 43.0611965,
          "velocity": 0.3937007874015748
        },
        {
          "duration": 0.10204075000000046,
          "durationTicks": 96,
          "midi": 63,
          "name": "D#4",
          "ticks": 40704,
          "time": 43.265278,
          "velocity": 0.3937007874015748
        },
        {
          "duration": 0.10204075000000046,
          "durationTicks": 96,
          "midi": 51,
          "name": "D#3",
          "ticks": 40704,
          "time": 43.265278,
          "velocity": 0.3937007874015748
        },
        {
          "duration": 0.10204074999999335,
          "durationTicks": 96,
          "midi": 58,
          "name": "A#3",
          "ticks": 40896,
          "time": 43.4693595,
          "velocity": 0.3937007874015748
        },
        {
          "duration": 0.10204075000000046,
          "durationTicks": 96,
          "midi": 63,
          "name": "D#4",
          "ticks": 40992,
          "time": 43.571400249999996,
          "velocity": 0.3937007874015748
        },
        {
          "duration": 0.10204075000000046,
          "durationTicks": 96,
          "midi": 51,
          "name": "D#3",
          "ticks": 41088,
          "time": 43.673441,
          "velocity": 0.3937007874015748
        },
        {
          "duration": 0.10204075000000046,
          "durationTicks": 96,
          "midi": 61,
          "name": "C#4",
          "ticks": 41088,
          "time": 43.673441,
          "velocity": 0.3937007874015748
        },
        {
          "duration": 0.10204075000000046,
          "durationTicks": 96,
          "midi": 58,
          "name": "A#3",
          "ticks": 41280,
          "time": 43.8775225,
          "velocity": 0.3937007874015748
        },
        {
          "duration": 0.10204075000000046,
          "durationTicks": 96,
          "midi": 63,
          "name": "D#4",
          "ticks": 41280,
          "time": 43.8775225,
          "velocity": 0.3937007874015748
        },
        {
          "duration": 0.10204075000000046,
          "durationTicks": 96,
          "midi": 65,
          "name": "F4",
          "ticks": 41472,
          "time": 44.081604,
          "velocity": 0.3937007874015748
        },
        {
          "duration": 0.10204075000000046,
          "durationTicks": 96,
          "midi": 51,
          "name": "D#3",
          "ticks": 41472,
          "time": 44.081604,
          "velocity": 0.3937007874015748
        },
        {
          "duration": 0.10204075000000046,
          "durationTicks": 96,
          "midi": 66,
          "name": "F#4",
          "ticks": 41664,
          "time": 44.2856855,
          "velocity": 0.3937007874015748
        },
        {
          "duration": 0.10204075000000046,
          "durationTicks": 96,
          "midi": 58,
          "name": "A#3",
          "ticks": 41664,
          "time": 44.2856855,
          "velocity": 0.3937007874015748
        },
        {
          "duration": 0.10204075000000046,
          "durationTicks": 96,
          "midi": 51,
          "name": "D#3",
          "ticks": 41856,
          "time": 44.489767,
          "velocity": 0.3937007874015748
        },
        {
          "duration": 0.10204075000000046,
          "durationTicks": 96,
          "midi": 68,
          "name": "G#4",
          "ticks": 41856,
          "time": 44.489767,
          "velocity": 0.3937007874015748
        },
        {
          "duration": 0.10204075000000046,
          "durationTicks": 96,
          "midi": 70,
          "name": "A#4",
          "ticks": 42048,
          "time": 44.6938485,
          "velocity": 0.3937007874015748
        },
        {
          "duration": 0.10204075000000046,
          "durationTicks": 96,
          "midi": 58,
          "name": "A#3",
          "ticks": 42048,
          "time": 44.6938485,
          "velocity": 0.3937007874015748
        },
        {
          "duration": 0.10204075000000046,
          "durationTicks": 96,
          "midi": 63,
          "name": "D#4",
          "ticks": 42240,
          "time": 44.89793,
          "velocity": 0.3937007874015748
        },
        {
          "duration": 0.10204075000000046,
          "durationTicks": 96,
          "midi": 51,
          "name": "D#3",
          "ticks": 42240,
          "time": 44.89793,
          "velocity": 0.3937007874015748
        },
        {
          "duration": 0.10204074999999335,
          "durationTicks": 96,
          "midi": 58,
          "name": "A#3",
          "ticks": 42432,
          "time": 45.1020115,
          "velocity": 0.3937007874015748
        },
        {
          "duration": 0.10204075000000046,
          "durationTicks": 96,
          "midi": 63,
          "name": "D#4",
          "ticks": 42528,
          "time": 45.20405225,
          "velocity": 0.3937007874015748
        },
        {
          "duration": 0.10204075000000046,
          "durationTicks": 96,
          "midi": 70,
          "name": "A#4",
          "ticks": 42624,
          "time": 45.306093,
          "velocity": 0.3937007874015748
        },
        {
          "duration": 0.10204075000000046,
          "durationTicks": 96,
          "midi": 51,
          "name": "D#3",
          "ticks": 42624,
          "time": 45.306093,
          "velocity": 0.3937007874015748
        },
        {
          "duration": 0.10204075000000046,
          "durationTicks": 96,
          "midi": 73,
          "name": "C#5",
          "ticks": 42816,
          "time": 45.5101745,
          "velocity": 0.3937007874015748
        },
        {
          "duration": 0.10204075000000046,
          "durationTicks": 96,
          "midi": 58,
          "name": "A#3",
          "ticks": 42816,
          "time": 45.5101745,
          "velocity": 0.3937007874015748
        },
        {
          "duration": 0.10204075000000046,
          "durationTicks": 96,
          "midi": 73,
          "name": "C#5",
          "ticks": 43008,
          "time": 45.714256,
          "velocity": 0.3937007874015748
        },
        {
          "duration": 0.10204075000000046,
          "durationTicks": 96,
          "midi": 47,
          "name": "B2",
          "ticks": 43008,
          "time": 45.714256,
          "velocity": 0.3937007874015748
        },
        {
          "duration": 0.10204075000000046,
          "durationTicks": 96,
          "midi": 75,
          "name": "D#5",
          "ticks": 43200,
          "time": 45.9183375,
          "velocity": 0.3937007874015748
        },
        {
          "duration": 0.10204075000000046,
          "durationTicks": 96,
          "midi": 54,
          "name": "F#3",
          "ticks": 43200,
          "time": 45.9183375,
          "velocity": 0.3937007874015748
        },
        {
          "duration": 0.10204075000000046,
          "durationTicks": 96,
          "midi": 70,
          "name": "A#4",
          "ticks": 43392,
          "time": 46.122419,
          "velocity": 0.3937007874015748
        },
        {
          "duration": 0.10204075000000046,
          "durationTicks": 96,
          "midi": 47,
          "name": "B2",
          "ticks": 43392,
          "time": 46.122419,
          "velocity": 0.3937007874015748
        },
        {
          "duration": 0.10204075000000046,
          "durationTicks": 96,
          "midi": 68,
          "name": "G#4",
          "ticks": 43584,
          "time": 46.3265005,
          "velocity": 0.3937007874015748
        },
        {
          "duration": 0.10204075000000046,
          "durationTicks": 96,
          "midi": 54,
          "name": "F#3",
          "ticks": 43584,
          "time": 46.3265005,
          "velocity": 0.3937007874015748
        },
        {
          "duration": 0.10204075000000046,
          "durationTicks": 96,
          "midi": 47,
          "name": "B2",
          "ticks": 43776,
          "time": 46.530582,
          "velocity": 0.3937007874015748
        },
        {
          "duration": 0.10204075000000046,
          "durationTicks": 96,
          "midi": 70,
          "name": "A#4",
          "ticks": 43776,
          "time": 46.530582,
          "velocity": 0.3937007874015748
        },
        {
          "duration": 0.10204075000000046,
          "durationTicks": 96,
          "midi": 54,
          "name": "F#3",
          "ticks": 43968,
          "time": 46.734663499999996,
          "velocity": 0.3937007874015748
        },
        {
          "duration": 0.10204075000000046,
          "durationTicks": 96,
          "midi": 70,
          "name": "A#4",
          "ticks": 44064,
          "time": 46.83670425,
          "velocity": 0.3937007874015748
        },
        {
          "duration": 0.10204075000000046,
          "durationTicks": 96,
          "midi": 68,
          "name": "G#4",
          "ticks": 44160,
          "time": 46.938745,
          "velocity": 0.3937007874015748
        },
        {
          "duration": 0.10204075000000046,
          "durationTicks": 96,
          "midi": 47,
          "name": "B2",
          "ticks": 44160,
          "time": 46.938745,
          "velocity": 0.3937007874015748
        },
        {
          "duration": 0.10204075000000046,
          "durationTicks": 96,
          "midi": 54,
          "name": "F#3",
          "ticks": 44352,
          "time": 47.1428265,
          "velocity": 0.3937007874015748
        },
        {
          "duration": 0.10204075000000046,
          "durationTicks": 96,
          "midi": 70,
          "name": "A#4",
          "ticks": 44352,
          "time": 47.1428265,
          "velocity": 0.3937007874015748
        },
        {
          "duration": 0.10204075000000046,
          "durationTicks": 96,
          "midi": 49,
          "name": "C#3",
          "ticks": 44544,
          "time": 47.346908,
          "velocity": 0.3937007874015748
        },
        {
          "duration": 0.10204075000000046,
          "durationTicks": 96,
          "midi": 73,
          "name": "C#5",
          "ticks": 44544,
          "time": 47.346908,
          "velocity": 0.3937007874015748
        },
        {
          "duration": 0.10204075000000046,
          "durationTicks": 96,
          "midi": 56,
          "name": "G#3",
          "ticks": 44736,
          "time": 47.5509895,
          "velocity": 0.3937007874015748
        },
        {
          "duration": 0.10204075000000046,
          "durationTicks": 96,
          "midi": 75,
          "name": "D#5",
          "ticks": 44736,
          "time": 47.5509895,
          "velocity": 0.3937007874015748
        },
        {
          "duration": 0.10204075000000046,
          "durationTicks": 96,
          "midi": 70,
          "name": "A#4",
          "ticks": 44928,
          "time": 47.755071,
          "velocity": 0.3937007874015748
        },
        {
          "duration": 0.10204075000000046,
          "durationTicks": 96,
          "midi": 49,
          "name": "C#3",
          "ticks": 44928,
          "time": 47.755071,
          "velocity": 0.3937007874015748
        },
        {
          "duration": 0.10204075000000046,
          "durationTicks": 96,
          "midi": 68,
          "name": "G#4",
          "ticks": 45120,
          "time": 47.9591525,
          "velocity": 0.3937007874015748
        },
        {
          "duration": 0.10204075000000046,
          "durationTicks": 96,
          "midi": 56,
          "name": "G#3",
          "ticks": 45120,
          "time": 47.9591525,
          "velocity": 0.3937007874015748
        },
        {
          "duration": 0.10204075000000046,
          "durationTicks": 96,
          "midi": 49,
          "name": "C#3",
          "ticks": 45312,
          "time": 48.163234,
          "velocity": 0.3937007874015748
        },
        {
          "duration": 0.10204075000000046,
          "durationTicks": 96,
          "midi": 70,
          "name": "A#4",
          "ticks": 45312,
          "time": 48.163234,
          "velocity": 0.3937007874015748
        },
        {
          "duration": 0.10204075000000046,
          "durationTicks": 96,
          "midi": 56,
          "name": "G#3",
          "ticks": 45504,
          "time": 48.3673155,
          "velocity": 0.3937007874015748
        },
        {
          "duration": 0.10204075000000046,
          "durationTicks": 96,
          "midi": 70,
          "name": "A#4",
          "ticks": 45600,
          "time": 48.46935625,
          "velocity": 0.3937007874015748
        },
        {
          "duration": 0.10204075000000046,
          "durationTicks": 96,
          "midi": 49,
          "name": "C#3",
          "ticks": 45696,
          "time": 48.571397,
          "velocity": 0.3937007874015748
        },
        {
          "duration": 0.10204075000000046,
          "durationTicks": 96,
          "midi": 75,
          "name": "D#5",
          "ticks": 45696,
          "time": 48.571397,
          "velocity": 0.3937007874015748
        },
        {
          "duration": 0.10204075000000046,
          "durationTicks": 96,
          "midi": 77,
          "name": "F5",
          "ticks": 45888,
          "time": 48.7754785,
          "velocity": 0.3937007874015748
        },
        {
          "duration": 0.10204075000000046,
          "durationTicks": 96,
          "midi": 56,
          "name": "G#3",
          "ticks": 45888,
          "time": 48.7754785,
          "velocity": 0.3937007874015748
        },
        {
          "duration": 0.10204075000000046,
          "durationTicks": 96,
          "midi": 51,
          "name": "D#3",
          "ticks": 46080,
          "time": 48.97956,
          "velocity": 0.3937007874015748
        },
        {
          "duration": 0.10204075000000046,
          "durationTicks": 96,
          "midi": 78,
          "name": "F#5",
          "ticks": 46080,
          "time": 48.97956,
          "velocity": 0.3937007874015748
        },
        {
          "duration": 0.10204075000000046,
          "durationTicks": 96,
          "midi": 77,
          "name": "F5",
          "ticks": 46272,
          "time": 49.1836415,
          "velocity": 0.3937007874015748
        },
        {
          "duration": 0.10204075000000046,
          "durationTicks": 96,
          "midi": 58,
          "name": "A#3",
          "ticks": 46272,
          "time": 49.1836415,
          "velocity": 0.3937007874015748
        },
        {
          "duration": 0.10204075000000046,
          "durationTicks": 96,
          "midi": 75,
          "name": "D#5",
          "ticks": 46464,
          "time": 49.387723,
          "velocity": 0.3937007874015748
        },
        {
          "duration": 0.10204075000000046,
          "durationTicks": 96,
          "midi": 51,
          "name": "D#3",
          "ticks": 46464,
          "time": 49.387723,
          "velocity": 0.3937007874015748
        },
        {
          "duration": 0.10204075000000046,
          "durationTicks": 96,
          "midi": 73,
          "name": "C#5",
          "ticks": 46656,
          "time": 49.5918045,
          "velocity": 0.3937007874015748
        },
        {
          "duration": 0.10204075000000046,
          "durationTicks": 96,
          "midi": 58,
          "name": "A#3",
          "ticks": 46656,
          "time": 49.5918045,
          "velocity": 0.3937007874015748
        },
        {
          "duration": 0.10204074999999335,
          "durationTicks": 96,
          "midi": 51,
          "name": "D#3",
          "ticks": 46848,
          "time": 49.795886,
          "velocity": 0.3937007874015748
        },
        {
          "duration": 0.10204074999999335,
          "durationTicks": 96,
          "midi": 70,
          "name": "A#4",
          "ticks": 46848,
          "time": 49.795886,
          "velocity": 0.3937007874015748
        },
        {
          "duration": 0.10204075000000046,
          "durationTicks": 96,
          "midi": 58,
          "name": "A#3",
          "ticks": 47040,
          "time": 49.9999675,
          "velocity": 0.3937007874015748
        },
        {
          "duration": 0.10204075000000046,
          "durationTicks": 96,
          "midi": 70,
          "name": "A#4",
          "ticks": 47136,
          "time": 50.10200825,
          "velocity": 0.3937007874015748
        },
        {
          "duration": 0.10204075000000046,
          "durationTicks": 96,
          "midi": 51,
          "name": "D#3",
          "ticks": 47232,
          "time": 50.204049,
          "velocity": 0.3937007874015748
        },
        {
          "duration": 0.10204075000000046,
          "durationTicks": 96,
          "midi": 68,
          "name": "G#4",
          "ticks": 47232,
          "time": 50.204049,
          "velocity": 0.3937007874015748
        },
        {
          "duration": 0.10204075000000046,
          "durationTicks": 96,
          "midi": 58,
          "name": "A#3",
          "ticks": 47424,
          "time": 50.4081305,
          "velocity": 0.3937007874015748
        },
        {
          "duration": 0.10204075000000046,
          "durationTicks": 96,
          "midi": 70,
          "name": "A#4",
          "ticks": 47424,
          "time": 50.4081305,
          "velocity": 0.3937007874015748
        },
        {
          "duration": 0.10204075000000046,
          "durationTicks": 96,
          "midi": 68,
          "name": "G#4",
          "ticks": 47616,
          "time": 50.612212,
          "velocity": 0.3937007874015748
        },
        {
          "duration": 0.10204075000000046,
          "durationTicks": 96,
          "midi": 51,
          "name": "D#3",
          "ticks": 47616,
          "time": 50.612212,
          "velocity": 0.3937007874015748
        },
        {
          "duration": 0.10204075000000046,
          "durationTicks": 96,
          "midi": 58,
          "name": "A#3",
          "ticks": 47808,
          "time": 50.8162935,
          "velocity": 0.3937007874015748
        },
        {
          "duration": 0.10204075000000046,
          "durationTicks": 96,
          "midi": 66,
          "name": "F#4",
          "ticks": 47808,
          "time": 50.8162935,
          "velocity": 0.3937007874015748
        },
        {
          "duration": 0.10204075000000046,
          "durationTicks": 96,
          "midi": 65,
          "name": "F4",
          "ticks": 48000,
          "time": 51.020375,
          "velocity": 0.3937007874015748
        },
        {
          "duration": 0.10204075000000046,
          "durationTicks": 96,
          "midi": 51,
          "name": "D#3",
          "ticks": 48000,
          "time": 51.020375,
          "velocity": 0.3937007874015748
        },
        {
          "duration": 0.10204075000000046,
          "durationTicks": 96,
          "midi": 61,
          "name": "C#4",
          "ticks": 48192,
          "time": 51.2244565,
          "velocity": 0.3937007874015748
        },
        {
          "duration": 0.10204075000000046,
          "durationTicks": 96,
          "midi": 58,
          "name": "A#3",
          "ticks": 48192,
          "time": 51.2244565,
          "velocity": 0.3937007874015748
        },
        {
          "duration": 0.10204074999999335,
          "durationTicks": 96,
          "midi": 63,
          "name": "D#4",
          "ticks": 48384,
          "time": 51.428538,
          "velocity": 0.3937007874015748
        },
        {
          "duration": 0.10204074999999335,
          "durationTicks": 96,
          "midi": 51,
          "name": "D#3",
          "ticks": 48384,
          "time": 51.428538,
          "velocity": 0.3937007874015748
        },
        {
          "duration": 0.10204075000000046,
          "durationTicks": 96,
          "midi": 58,
          "name": "A#3",
          "ticks": 48576,
          "time": 51.6326195,
          "velocity": 0.3937007874015748
        },
        {
          "duration": 0.10204075000000046,
          "durationTicks": 96,
          "midi": 63,
          "name": "D#4",
          "ticks": 48672,
          "time": 51.73466025,
          "velocity": 0.3937007874015748
        },
        {
          "duration": 0.10204075000000046,
          "durationTicks": 96,
          "midi": 51,
          "name": "D#3",
          "ticks": 48768,
          "time": 51.836701,
          "velocity": 0.3937007874015748
        },
        {
          "duration": 0.10204075000000046,
          "durationTicks": 96,
          "midi": 70,
          "name": "A#4",
          "ticks": 48768,
          "time": 51.836701,
          "velocity": 0.3937007874015748
        },
        {
          "duration": 0.10204075000000046,
          "durationTicks": 96,
          "midi": 73,
          "name": "C#5",
          "ticks": 48960,
          "time": 52.0407825,
          "velocity": 0.3937007874015748
        },
        {
          "duration": 0.10204075000000046,
          "durationTicks": 96,
          "midi": 58,
          "name": "A#3",
          "ticks": 48960,
          "time": 52.0407825,
          "velocity": 0.3937007874015748
        },
        {
          "duration": 0.10204075000000046,
          "durationTicks": 96,
          "midi": 73,
          "name": "C#5",
          "ticks": 49056,
          "time": 52.14282325,
          "velocity": 0.3937007874015748
        },
        {
          "duration": 0.20408150000000091,
          "durationTicks": 192,
          "midi": 73,
          "name": "C#5",
          "ticks": 49152,
          "time": 52.244864,
          "velocity": 0.3937007874015748
        },
        {
          "duration": 0.10204075000000046,
          "durationTicks": 96,
          "midi": 54,
          "name": "F#3",
          "ticks": 49152,
          "time": 52.244864,
          "velocity": 0.3937007874015748
        },
        {
          "duration": 0.10204075000000046,
          "durationTicks": 96,
          "midi": 47,
          "name": "B2",
          "ticks": 49152,
          "time": 52.244864,
          "velocity": 0.3937007874015748
        },
        {
          "duration": 0.20408150000000091,
          "durationTicks": 192,
          "midi": 75,
          "name": "D#5",
          "ticks": 49344,
          "time": 52.4489455,
          "velocity": 0.3937007874015748
        },
        {
          "duration": 0.20408150000000091,
          "durationTicks": 192,
          "midi": 70,
          "name": "A#4",
          "ticks": 49536,
          "time": 52.653027,
          "velocity": 0.3937007874015748
        },
        {
          "duration": 0.2040814999999938,
          "durationTicks": 192,
          "midi": 68,
          "name": "G#4",
          "ticks": 49728,
          "time": 52.8571085,
          "velocity": 0.3937007874015748
        },
        {
          "duration": 0.10204075000000046,
          "durationTicks": 96,
          "midi": 70,
          "name": "A#4",
          "ticks": 49920,
          "time": 53.061189999999996,
          "velocity": 0.3937007874015748
        },
        {
          "duration": 0.10204075000000046,
          "durationTicks": 96,
          "midi": 70,
          "name": "A#4",
          "ticks": 50208,
          "time": 53.36731225,
          "velocity": 0.3937007874015748
        },
        {
          "duration": 0.20408150000000091,
          "durationTicks": 192,
          "midi": 68,
          "name": "G#4",
          "ticks": 50304,
          "time": 53.469353,
          "velocity": 0.3937007874015748
        },
        {
          "duration": 0.20408150000000091,
          "durationTicks": 192,
          "midi": 70,
          "name": "A#4",
          "ticks": 50496,
          "time": 53.6734345,
          "velocity": 0.3937007874015748
        },
        {
          "duration": 0.10204075000000046,
          "durationTicks": 96,
          "midi": 54,
          "name": "F#3",
          "ticks": 50592,
          "time": 53.77547525,
          "velocity": 0.3937007874015748
        },
        {
          "duration": 0.10204075000000046,
          "durationTicks": 96,
          "midi": 47,
          "name": "B2",
          "ticks": 50592,
          "time": 53.77547525,
          "velocity": 0.3937007874015748
        },
        {
          "duration": 0.20408150000000091,
          "durationTicks": 192,
          "midi": 73,
          "name": "C#5",
          "ticks": 50688,
          "time": 53.877516,
          "velocity": 0.3937007874015748
        },
        {
          "duration": 0.10204075000000046,
          "durationTicks": 96,
          "midi": 49,
          "name": "C#3",
          "ticks": 50688,
          "time": 53.877516,
          "velocity": 0.3937007874015748
        },
        {
          "duration": 0.10204075000000046,
          "durationTicks": 96,
          "midi": 56,
          "name": "G#3",
          "ticks": 50688,
          "time": 53.877516,
          "velocity": 0.3937007874015748
        },
        {
          "duration": 0.20408150000000091,
          "durationTicks": 192,
          "midi": 75,
          "name": "D#5",
          "ticks": 50880,
          "time": 54.0815975,
          "velocity": 0.3937007874015748
        },
        {
          "duration": 0.20408150000000091,
          "durationTicks": 192,
          "midi": 70,
          "name": "A#4",
          "ticks": 51072,
          "time": 54.285679,
          "velocity": 0.3937007874015748
        },
        {
          "duration": 0.2040814999999938,
          "durationTicks": 192,
          "midi": 68,
          "name": "G#4",
          "ticks": 51264,
          "time": 54.4897605,
          "velocity": 0.3937007874015748
        },
        {
          "duration": 0.10204075000000046,
          "durationTicks": 96,
          "midi": 70,
          "name": "A#4",
          "ticks": 51456,
          "time": 54.693842,
          "velocity": 0.3937007874015748
        },
        {
          "duration": 0.10204075000000046,
          "durationTicks": 96,
          "midi": 70,
          "name": "A#4",
          "ticks": 51744,
          "time": 54.99996425,
          "velocity": 0.3937007874015748
        },
        {
          "duration": 0.20408150000000091,
          "durationTicks": 192,
          "midi": 68,
          "name": "G#4",
          "ticks": 51840,
          "time": 55.102005,
          "velocity": 0.3937007874015748
        },
        {
          "duration": 0.20408150000000091,
          "durationTicks": 192,
          "midi": 70,
          "name": "A#4",
          "ticks": 52032,
          "time": 55.3060865,
          "velocity": 0.3937007874015748
        },
        {
          "duration": 0.10204075000000046,
          "durationTicks": 96,
          "midi": 49,
          "name": "C#3",
          "ticks": 52128,
          "time": 55.40812725,
          "velocity": 0.3937007874015748
        },
        {
          "duration": 0.10204075000000046,
          "durationTicks": 96,
          "midi": 56,
          "name": "G#3",
          "ticks": 52128,
          "time": 55.40812725,
          "velocity": 0.3937007874015748
        },
        {
          "duration": 0.10204075000000046,
          "durationTicks": 96,
          "midi": 51,
          "name": "D#3",
          "ticks": 52224,
          "time": 55.510168,
          "velocity": 0.3937007874015748
        },
        {
          "duration": 0.10204075000000046,
          "durationTicks": 96,
          "midi": 58,
          "name": "A#3",
          "ticks": 52224,
          "time": 55.510168,
          "velocity": 0.3937007874015748
        },
        {
          "duration": 0.20408150000000091,
          "durationTicks": 192,
          "midi": 68,
          "name": "G#4",
          "ticks": 52224,
          "time": 55.510168,
          "velocity": 0.3937007874015748
        },
        {
          "duration": 0.20408150000000091,
          "durationTicks": 192,
          "midi": 66,
          "name": "F#4",
          "ticks": 52416,
          "time": 55.7142495,
          "velocity": 0.3937007874015748
        },
        {
          "duration": 0.20408150000000091,
          "durationTicks": 192,
          "midi": 65,
          "name": "F4",
          "ticks": 52608,
          "time": 55.918331,
          "velocity": 0.3937007874015748
        },
        {
          "duration": 0.2040814999999938,
          "durationTicks": 192,
          "midi": 61,
          "name": "C#4",
          "ticks": 52800,
          "time": 56.1224125,
          "velocity": 0.3937007874015748
        },
        {
          "duration": 0.10204075000000046,
          "durationTicks": 96,
          "midi": 63,
          "name": "D#4",
          "ticks": 52992,
          "time": 56.326494,
          "velocity": 0.3937007874015748
        },
        {
          "duration": 0.10204075000000046,
          "durationTicks": 96,
          "midi": 63,
          "name": "D#4",
          "ticks": 53280,
          "time": 56.63261625,
          "velocity": 0.3937007874015748
        },
        {
          "duration": 0.20408150000000091,
          "durationTicks": 192,
          "midi": 61,
          "name": "C#4",
          "ticks": 53376,
          "time": 56.734657,
          "velocity": 0.3937007874015748
        },
        {
          "duration": 0.20408150000000091,
          "durationTicks": 192,
          "midi": 63,
          "name": "D#4",
          "ticks": 53568,
          "time": 56.9387385,
          "velocity": 0.3937007874015748
        },
        {
          "duration": 0.10204075000000046,
          "durationTicks": 96,
          "midi": 58,
          "name": "A#3",
          "ticks": 53664,
          "time": 57.04077925,
          "velocity": 0.3937007874015748
        },
        {
          "duration": 0.10204075000000046,
          "durationTicks": 96,
          "midi": 51,
          "name": "D#3",
          "ticks": 53664,
          "time": 57.04077925,
          "velocity": 0.3937007874015748
        },
        {
          "duration": 0.10204075000000046,
          "durationTicks": 96,
          "midi": 58,
          "name": "A#3",
          "ticks": 53760,
          "time": 57.14282,
          "velocity": 0.3937007874015748
        },
        {
          "duration": 0.20408150000000091,
          "durationTicks": 192,
          "midi": 65,
          "name": "F4",
          "ticks": 53760,
          "time": 57.14282,
          "velocity": 0.3937007874015748
        },
        {
          "duration": 0.10204075000000046,
          "durationTicks": 96,
          "midi": 51,
          "name": "D#3",
          "ticks": 53760,
          "time": 57.14282,
          "velocity": 0.3937007874015748
        },
        {
          "duration": 0.20408150000000091,
          "durationTicks": 192,
          "midi": 66,
          "name": "F#4",
          "ticks": 53952,
          "time": 57.3469015,
          "velocity": 0.3937007874015748
        },
        {
          "duration": 0.20408150000000091,
          "durationTicks": 192,
          "midi": 68,
          "name": "G#4",
          "ticks": 54144,
          "time": 57.550983,
          "velocity": 0.3937007874015748
        },
        {
          "duration": 0.2040814999999938,
          "durationTicks": 192,
          "midi": 70,
          "name": "A#4",
          "ticks": 54336,
          "time": 57.7550645,
          "velocity": 0.3937007874015748
        },
        {
          "duration": 0.10204075000000046,
          "durationTicks": 96,
          "midi": 63,
          "name": "D#4",
          "ticks": 54528,
          "time": 57.959146,
          "velocity": 0.3937007874015748
        },
        {
          "duration": 0.10204075000000046,
          "durationTicks": 96,
          "midi": 63,
          "name": "D#4",
          "ticks": 54816,
          "time": 58.26526825,
          "velocity": 0.3937007874015748
        },
        {
          "duration": 0.20408150000000091,
          "durationTicks": 192,
          "midi": 70,
          "name": "A#4",
          "ticks": 54912,
          "time": 58.367309,
          "velocity": 0.3937007874015748
        },
        {
          "duration": 0.20408150000000091,
          "durationTicks": 192,
          "midi": 73,
          "name": "C#5",
          "ticks": 55104,
          "time": 58.5713905,
          "velocity": 0.3937007874015748
        },
        {
          "duration": 0.10204075000000046,
          "durationTicks": 96,
          "midi": 58,
          "name": "A#3",
          "ticks": 55200,
          "time": 58.67343125,
          "velocity": 0.3937007874015748
        },
        {
          "duration": 0.10204075000000046,
          "durationTicks": 96,
          "midi": 51,
          "name": "D#3",
          "ticks": 55200,
          "time": 58.67343125,
          "velocity": 0.3937007874015748
        },
        {
          "duration": 0.20408150000000091,
          "durationTicks": 192,
          "midi": 73,
          "name": "C#5",
          "ticks": 55296,
          "time": 58.775472,
          "velocity": 0.3937007874015748
        },
        {
          "duration": 0.10204075000000046,
          "durationTicks": 96,
          "midi": 54,
          "name": "F#3",
          "ticks": 55296,
          "time": 58.775472,
          "velocity": 0.3937007874015748
        },
        {
          "duration": 0.10204075000000046,
          "durationTicks": 96,
          "midi": 47,
          "name": "B2",
          "ticks": 55296,
          "time": 58.775472,
          "velocity": 0.3937007874015748
        },
        {
          "duration": 0.20408150000000091,
          "durationTicks": 192,
          "midi": 75,
          "name": "D#5",
          "ticks": 55488,
          "time": 58.9795535,
          "velocity": 0.3937007874015748
        },
        {
          "duration": 0.2040814999999938,
          "durationTicks": 192,
          "midi": 70,
          "name": "A#4",
          "ticks": 55680,
          "time": 59.183635,
          "velocity": 0.3937007874015748
        },
        {
          "duration": 0.20408150000000091,
          "durationTicks": 192,
          "midi": 68,
          "name": "G#4",
          "ticks": 55872,
          "time": 59.387716499999996,
          "velocity": 0.3937007874015748
        },
        {
          "duration": 0.10204075000000046,
          "durationTicks": 96,
          "midi": 70,
          "name": "A#4",
          "ticks": 56064,
          "time": 59.591798,
          "velocity": 0.3937007874015748
        },
        {
          "duration": 0.10204075000000046,
          "durationTicks": 96,
          "midi": 70,
          "name": "A#4",
          "ticks": 56352,
          "time": 59.89792025,
          "velocity": 0.3937007874015748
        },
        {
          "duration": 0.20408150000000091,
          "durationTicks": 192,
          "midi": 68,
          "name": "G#4",
          "ticks": 56448,
          "time": 59.999961,
          "velocity": 0.3937007874015748
        },
        {
          "duration": 0.20408150000000091,
          "durationTicks": 192,
          "midi": 70,
          "name": "A#4",
          "ticks": 56640,
          "time": 60.2040425,
          "velocity": 0.3937007874015748
        },
        {
          "duration": 0.10204075000000046,
          "durationTicks": 96,
          "midi": 47,
          "name": "B2",
          "ticks": 56736,
          "time": 60.30608325,
          "velocity": 0.3937007874015748
        },
        {
          "duration": 0.10204075000000046,
          "durationTicks": 96,
          "midi": 54,
          "name": "F#3",
          "ticks": 56736,
          "time": 60.30608325,
          "velocity": 0.3937007874015748
        },
        {
          "duration": 0.10204075000000046,
          "durationTicks": 96,
          "midi": 56,
          "name": "G#3",
          "ticks": 56832,
          "time": 60.408124,
          "velocity": 0.3937007874015748
        },
        {
          "duration": 0.20408150000000091,
          "durationTicks": 192,
          "midi": 73,
          "name": "C#5",
          "ticks": 56832,
          "time": 60.408124,
          "velocity": 0.3937007874015748
        },
        {
          "duration": 0.10204075000000046,
          "durationTicks": 96,
          "midi": 49,
          "name": "C#3",
          "ticks": 56832,
          "time": 60.408124,
          "velocity": 0.3937007874015748
        },
        {
          "duration": 0.20408150000000091,
          "durationTicks": 192,
          "midi": 75,
          "name": "D#5",
          "ticks": 57024,
          "time": 60.6122055,
          "velocity": 0.3937007874015748
        },
        {
          "duration": 0.2040814999999938,
          "durationTicks": 192,
          "midi": 70,
          "name": "A#4",
          "ticks": 57216,
          "time": 60.816287,
          "velocity": 0.3937007874015748
        },
        {
          "duration": 0.20408150000000091,
          "durationTicks": 192,
          "midi": 68,
          "name": "G#4",
          "ticks": 57408,
          "time": 61.0203685,
          "velocity": 0.3937007874015748
        },
        {
          "duration": 0.10204075000000046,
          "durationTicks": 96,
          "midi": 70,
          "name": "A#4",
          "ticks": 57600,
          "time": 61.22445,
          "velocity": 0.3937007874015748
        },
        {
          "duration": 0.10204075000000046,
          "durationTicks": 96,
          "midi": 70,
          "name": "A#4",
          "ticks": 57888,
          "time": 61.53057225,
          "velocity": 0.3937007874015748
        },
        {
          "duration": 0.20408150000000091,
          "durationTicks": 192,
          "midi": 68,
          "name": "G#4",
          "ticks": 57984,
          "time": 61.632613,
          "velocity": 0.3937007874015748
        },
        {
          "duration": 0.20408150000000091,
          "durationTicks": 192,
          "midi": 70,
          "name": "A#4",
          "ticks": 58176,
          "time": 61.8366945,
          "velocity": 0.3937007874015748
        },
        {
          "duration": 0.10204075000000046,
          "durationTicks": 96,
          "midi": 56,
          "name": "G#3",
          "ticks": 58272,
          "time": 61.93873525,
          "velocity": 0.3937007874015748
        },
        {
          "duration": 0.10204075000000046,
          "durationTicks": 96,
          "midi": 49,
          "name": "C#3",
          "ticks": 58272,
          "time": 61.93873525,
          "velocity": 0.3937007874015748
        },
        {
          "duration": 0.10204075000000046,
          "durationTicks": 96,
          "midi": 58,
          "name": "A#3",
          "ticks": 58368,
          "time": 62.040776,
          "velocity": 0.3937007874015748
        },
        {
          "duration": 0.10204075000000046,
          "durationTicks": 96,
          "midi": 51,
          "name": "D#3",
          "ticks": 58368,
          "time": 62.040776,
          "velocity": 0.3937007874015748
        },
        {
          "duration": 0.20408150000000091,
          "durationTicks": 192,
          "midi": 68,
          "name": "G#4",
          "ticks": 58368,
          "time": 62.040776,
          "velocity": 0.3937007874015748
        },
        {
          "duration": 0.20408150000000091,
          "durationTicks": 192,
          "midi": 66,
          "name": "F#4",
          "ticks": 58560,
          "time": 62.2448575,
          "velocity": 0.3937007874015748
        },
        {
          "duration": 0.2040814999999938,
          "durationTicks": 192,
          "midi": 65,
          "name": "F4",
          "ticks": 58752,
          "time": 62.448939,
          "velocity": 0.3937007874015748
        },
        {
          "duration": 0.20408150000000091,
          "durationTicks": 192,
          "midi": 61,
          "name": "C#4",
          "ticks": 58944,
          "time": 62.6530205,
          "velocity": 0.3937007874015748
        },
        {
          "duration": 0.10204075000000046,
          "durationTicks": 96,
          "midi": 63,
          "name": "D#4",
          "ticks": 59136,
          "time": 62.857102,
          "velocity": 0.3937007874015748
        },
        {
          "duration": 0.10204075000000046,
          "durationTicks": 96,
          "midi": 63,
          "name": "D#4",
          "ticks": 59424,
          "time": 63.16322425,
          "velocity": 0.3937007874015748
        },
        {
          "duration": 0.20408150000000091,
          "durationTicks": 192,
          "midi": 61,
          "name": "C#4",
          "ticks": 59520,
          "time": 63.265265,
          "velocity": 0.3937007874015748
        },
        {
          "duration": 0.20408150000000091,
          "durationTicks": 192,
          "midi": 63,
          "name": "D#4",
          "ticks": 59712,
          "time": 63.4693465,
          "velocity": 0.3937007874015748
        },
        {
          "duration": 0.10204075000000046,
          "durationTicks": 96,
          "midi": 58,
          "name": "A#3",
          "ticks": 59808,
          "time": 63.57138725,
          "velocity": 0.3937007874015748
        },
        {
          "duration": 0.10204075000000046,
          "durationTicks": 96,
          "midi": 51,
          "name": "D#3",
          "ticks": 59808,
          "time": 63.57138725,
          "velocity": 0.3937007874015748
        },
        {
          "duration": 0.10204075000000046,
          "durationTicks": 96,
          "midi": 58,
          "name": "A#3",
          "ticks": 59904,
          "time": 63.673428,
          "velocity": 0.3937007874015748
        },
        {
          "duration": 0.10204075000000046,
          "durationTicks": 96,
          "midi": 51,
          "name": "D#3",
          "ticks": 59904,
          "time": 63.673428,
          "velocity": 0.3937007874015748
        },
        {
          "duration": 0.20408150000000091,
          "durationTicks": 192,
          "midi": 65,
          "name": "F4",
          "ticks": 59904,
          "time": 63.673428,
          "velocity": 0.3937007874015748
        },
        {
          "duration": 0.20408150000000091,
          "durationTicks": 192,
          "midi": 66,
          "name": "F#4",
          "ticks": 60096,
          "time": 63.8775095,
          "velocity": 0.3937007874015748
        },
        {
          "duration": 0.20408150000000091,
          "durationTicks": 192,
          "midi": 68,
          "name": "G#4",
          "ticks": 60288,
          "time": 64.081591,
          "velocity": 0.3937007874015748
        },
        {
          "duration": 0.20408150000000091,
          "durationTicks": 192,
          "midi": 70,
          "name": "A#4",
          "ticks": 60480,
          "time": 64.2856725,
          "velocity": 0.3937007874015748
        },
        {
          "duration": 0.10204075000000046,
          "durationTicks": 96,
          "midi": 63,
          "name": "D#4",
          "ticks": 60672,
          "time": 64.489754,
          "velocity": 0.3937007874015748
        },
        {
          "duration": 0.10204075000000046,
          "durationTicks": 96,
          "midi": 63,
          "name": "D#4",
          "ticks": 60960,
          "time": 64.79587625,
          "velocity": 0.3937007874015748
        },
        {
          "duration": 0.2040814999999867,
          "durationTicks": 192,
          "midi": 70,
          "name": "A#4",
          "ticks": 61056,
          "time": 64.897917,
          "velocity": 0.3937007874015748
        },
        {
          "duration": 0.20408150000000091,
          "durationTicks": 192,
          "midi": 73,
          "name": "C#5",
          "ticks": 61248,
          "time": 65.1019985,
          "velocity": 0.3937007874015748
        },
        {
          "duration": 0.10204075000000046,
          "durationTicks": 96,
          "midi": 58,
          "name": "A#3",
          "ticks": 61344,
          "time": 65.20403925,
          "velocity": 0.3937007874015748
        },
        {
          "duration": 0.10204075000000046,
          "durationTicks": 96,
          "midi": 51,
          "name": "D#3",
          "ticks": 61344,
          "time": 65.20403925,
          "velocity": 0.3937007874015748
        },
        {
          "duration": 0.10204075000000046,
          "durationTicks": 96,
          "midi": 47,
          "name": "B2",
          "ticks": 61440,
          "time": 65.30608,
          "velocity": 0.3937007874015748
        },
        {
          "duration": 0.10204075000000046,
          "durationTicks": 96,
          "midi": 54,
          "name": "F#3",
          "ticks": 61440,
          "time": 65.30608,
          "velocity": 0.3937007874015748
        },
        {
          "duration": 0.20408150000000091,
          "durationTicks": 192,
          "midi": 73,
          "name": "C#5",
          "ticks": 61440,
          "time": 65.30608,
          "velocity": 0.3937007874015748
        },
        {
          "duration": 0.20408150000000091,
          "durationTicks": 192,
          "midi": 75,
          "name": "D#5",
          "ticks": 61632,
          "time": 65.5101615,
          "velocity": 0.3937007874015748
        },
        {
          "duration": 0.20408150000000091,
          "durationTicks": 192,
          "midi": 70,
          "name": "A#4",
          "ticks": 61824,
          "time": 65.714243,
          "velocity": 0.3937007874015748
        },
        {
          "duration": 0.20408150000000091,
          "durationTicks": 192,
          "midi": 68,
          "name": "G#4",
          "ticks": 62016,
          "time": 65.9183245,
          "velocity": 0.3937007874015748
        },
        {
          "duration": 0.10204075000000046,
          "durationTicks": 96,
          "midi": 70,
          "name": "A#4",
          "ticks": 62208,
          "time": 66.122406,
          "velocity": 0.3937007874015748
        },
        {
          "duration": 0.10204075000000046,
          "durationTicks": 96,
          "midi": 70,
          "name": "A#4",
          "ticks": 62496,
          "time": 66.42852825,
          "velocity": 0.3937007874015748
        },
        {
          "duration": 0.20408150000000091,
          "durationTicks": 192,
          "midi": 68,
          "name": "G#4",
          "ticks": 62592,
          "time": 66.530569,
          "velocity": 0.3937007874015748
        },
        {
          "duration": 0.20408150000000091,
          "durationTicks": 192,
          "midi": 70,
          "name": "A#4",
          "ticks": 62784,
          "time": 66.7346505,
          "velocity": 0.3937007874015748
        },
        {
          "duration": 0.10204075000000046,
          "durationTicks": 96,
          "midi": 54,
          "name": "F#3",
          "ticks": 62880,
          "time": 66.83669125,
          "velocity": 0.3937007874015748
        },
        {
          "duration": 0.10204075000000046,
          "durationTicks": 96,
          "midi": 47,
          "name": "B2",
          "ticks": 62880,
          "time": 66.83669125,
          "velocity": 0.3937007874015748
        },
        {
          "duration": 0.10204075000000046,
          "durationTicks": 96,
          "midi": 56,
          "name": "G#3",
          "ticks": 62976,
          "time": 66.938732,
          "velocity": 0.3937007874015748
        },
        {
          "duration": 0.10204075000000046,
          "durationTicks": 96,
          "midi": 49,
          "name": "C#3",
          "ticks": 62976,
          "time": 66.938732,
          "velocity": 0.3937007874015748
        },
        {
          "duration": 0.20408150000000091,
          "durationTicks": 192,
          "midi": 73,
          "name": "C#5",
          "ticks": 62976,
          "time": 66.938732,
          "velocity": 0.3937007874015748
        },
        {
          "duration": 0.20408150000000091,
          "durationTicks": 192,
          "midi": 75,
          "name": "D#5",
          "ticks": 63168,
          "time": 67.1428135,
          "velocity": 0.3937007874015748
        },
        {
          "duration": 0.20408150000000091,
          "durationTicks": 192,
          "midi": 70,
          "name": "A#4",
          "ticks": 63360,
          "time": 67.346895,
          "velocity": 0.3937007874015748
        },
        {
          "duration": 0.20408150000000091,
          "durationTicks": 192,
          "midi": 68,
          "name": "G#4",
          "ticks": 63552,
          "time": 67.5509765,
          "velocity": 0.3937007874015748
        },
        {
          "duration": 0.10204075000000046,
          "durationTicks": 96,
          "midi": 70,
          "name": "A#4",
          "ticks": 63744,
          "time": 67.755058,
          "velocity": 0.3937007874015748
        },
        {
          "duration": 0.10204074999998625,
          "durationTicks": 96,
          "midi": 70,
          "name": "A#4",
          "ticks": 64032,
          "time": 68.06118025,
          "velocity": 0.3937007874015748
        },
        {
          "duration": 0.20408150000000091,
          "durationTicks": 192,
          "midi": 68,
          "name": "G#4",
          "ticks": 64128,
          "time": 68.163221,
          "velocity": 0.3937007874015748
        },
        {
          "duration": 0.20408150000000091,
          "durationTicks": 192,
          "midi": 70,
          "name": "A#4",
          "ticks": 64320,
          "time": 68.3673025,
          "velocity": 0.3937007874015748
        },
        {
          "duration": 0.10204075000000046,
          "durationTicks": 96,
          "midi": 49,
          "name": "C#3",
          "ticks": 64416,
          "time": 68.46934325,
          "velocity": 0.3937007874015748
        },
        {
          "duration": 0.10204075000000046,
          "durationTicks": 96,
          "midi": 56,
          "name": "G#3",
          "ticks": 64416,
          "time": 68.46934325,
          "velocity": 0.3937007874015748
        },
        {
          "duration": 0.10204075000000046,
          "durationTicks": 96,
          "midi": 51,
          "name": "D#3",
          "ticks": 64512,
          "time": 68.571384,
          "velocity": 0.3937007874015748
        },
        {
          "duration": 0.20408150000000091,
          "durationTicks": 192,
          "midi": 68,
          "name": "G#4",
          "ticks": 64512,
          "time": 68.571384,
          "velocity": 0.3937007874015748
        },
        {
          "duration": 0.10204075000000046,
          "durationTicks": 96,
          "midi": 58,
          "name": "A#3",
          "ticks": 64512,
          "time": 68.571384,
          "velocity": 0.3937007874015748
        },
        {
          "duration": 0.20408150000000091,
          "durationTicks": 192,
          "midi": 66,
          "name": "F#4",
          "ticks": 64704,
          "time": 68.7754655,
          "velocity": 0.3937007874015748
        },
        {
          "duration": 0.20408150000000091,
          "durationTicks": 192,
          "midi": 65,
          "name": "F4",
          "ticks": 64896,
          "time": 68.979547,
          "velocity": 0.3937007874015748
        },
        {
          "duration": 0.20408150000000091,
          "durationTicks": 192,
          "midi": 61,
          "name": "C#4",
          "ticks": 65088,
          "time": 69.1836285,
          "velocity": 0.3937007874015748
        },
        {
          "duration": 0.10204075000000046,
          "durationTicks": 96,
          "midi": 63,
          "name": "D#4",
          "ticks": 65280,
          "time": 69.38771,
          "velocity": 0.3937007874015748
        },
        {
          "duration": 0.10204075000000046,
          "durationTicks": 96,
          "midi": 63,
          "name": "D#4",
          "ticks": 65568,
          "time": 69.69383225,
          "velocity": 0.3937007874015748
        },
        {
          "duration": 0.20408150000000091,
          "durationTicks": 192,
          "midi": 61,
          "name": "C#4",
          "ticks": 65664,
          "time": 69.795873,
          "velocity": 0.3937007874015748
        },
        {
          "duration": 0.20408150000000091,
          "durationTicks": 192,
          "midi": 63,
          "name": "D#4",
          "ticks": 65856,
          "time": 69.9999545,
          "velocity": 0.3937007874015748
        },
        {
          "duration": 0.10204075000000046,
          "durationTicks": 96,
          "midi": 58,
          "name": "A#3",
          "ticks": 65952,
          "time": 70.10199525,
          "velocity": 0.3937007874015748
        },
        {
          "duration": 0.10204075000000046,
          "durationTicks": 96,
          "midi": 51,
          "name": "D#3",
          "ticks": 65952,
          "time": 70.10199525,
          "velocity": 0.3937007874015748
        },
        {
          "duration": 0.10204075000000046,
          "durationTicks": 96,
          "midi": 51,
          "name": "D#3",
          "ticks": 66048,
          "time": 70.204036,
          "velocity": 0.3937007874015748
        },
        {
          "duration": 0.10204075000000046,
          "durationTicks": 96,
          "midi": 58,
          "name": "A#3",
          "ticks": 66048,
          "time": 70.204036,
          "velocity": 0.3937007874015748
        },
        {
          "duration": 0.20408150000000091,
          "durationTicks": 192,
          "midi": 65,
          "name": "F4",
          "ticks": 66048,
          "time": 70.204036,
          "velocity": 0.3937007874015748
        },
        {
          "duration": 0.20408150000000091,
          "durationTicks": 192,
          "midi": 66,
          "name": "F#4",
          "ticks": 66240,
          "time": 70.4081175,
          "velocity": 0.3937007874015748
        },
        {
          "duration": 0.20408150000000091,
          "durationTicks": 192,
          "midi": 68,
          "name": "G#4",
          "ticks": 66432,
          "time": 70.612199,
          "velocity": 0.3937007874015748
        },
        {
          "duration": 0.20408150000000091,
          "durationTicks": 192,
          "midi": 70,
          "name": "A#4",
          "ticks": 66624,
          "time": 70.8162805,
          "velocity": 0.3937007874015748
        },
        {
          "duration": 0.10204075000000046,
          "durationTicks": 96,
          "midi": 63,
          "name": "D#4",
          "ticks": 66816,
          "time": 71.020362,
          "velocity": 0.3937007874015748
        },
        {
          "duration": 0.10204075000000046,
          "durationTicks": 96,
          "midi": 63,
          "name": "D#4",
          "ticks": 67104,
          "time": 71.32648425,
          "velocity": 0.3937007874015748
        },
        {
          "duration": 0.20408150000000091,
          "durationTicks": 192,
          "midi": 70,
          "name": "A#4",
          "ticks": 67200,
          "time": 71.428525,
          "velocity": 0.3937007874015748
        },
        {
          "duration": 0.20408150000000091,
          "durationTicks": 192,
          "midi": 73,
          "name": "C#5",
          "ticks": 67392,
          "time": 71.6326065,
          "velocity": 0.3937007874015748
        },
        {
          "duration": 0.10204075000000046,
          "durationTicks": 96,
          "midi": 58,
          "name": "A#3",
          "ticks": 67488,
          "time": 71.73464725,
          "velocity": 0.3937007874015748
        },
        {
          "duration": 0.10204075000000046,
          "durationTicks": 96,
          "midi": 51,
          "name": "D#3",
          "ticks": 67488,
          "time": 71.73464725,
          "velocity": 0.3937007874015748
        },
        {
          "duration": 0.10204075000000046,
          "durationTicks": 96,
          "midi": 47,
          "name": "B2",
          "ticks": 67584,
          "time": 71.836688,
          "velocity": 0.3937007874015748
        },
        {
          "duration": 0.20408150000000091,
          "durationTicks": 192,
          "midi": 73,
          "name": "C#5",
          "ticks": 67584,
          "time": 71.836688,
          "velocity": 0.3937007874015748
        },
        {
          "duration": 0.10204075000000046,
          "durationTicks": 96,
          "midi": 54,
          "name": "F#3",
          "ticks": 67584,
          "time": 71.836688,
          "velocity": 0.3937007874015748
        },
        {
          "duration": 0.20408150000000091,
          "durationTicks": 192,
          "midi": 75,
          "name": "D#5",
          "ticks": 67776,
          "time": 72.0407695,
          "velocity": 0.3937007874015748
        },
        {
          "duration": 0.20408150000000091,
          "durationTicks": 192,
          "midi": 70,
          "name": "A#4",
          "ticks": 67968,
          "time": 72.244851,
          "velocity": 0.3937007874015748
        },
        {
          "duration": 0.20408150000000091,
          "durationTicks": 192,
          "midi": 68,
          "name": "G#4",
          "ticks": 68160,
          "time": 72.4489325,
          "velocity": 0.3937007874015748
        },
        {
          "duration": 0.10204075000000046,
          "durationTicks": 96,
          "midi": 70,
          "name": "A#4",
          "ticks": 68352,
          "time": 72.653014,
          "velocity": 0.3937007874015748
        },
        {
          "duration": 0.10204075000000046,
          "durationTicks": 96,
          "midi": 70,
          "name": "A#4",
          "ticks": 68640,
          "time": 72.95913625,
          "velocity": 0.3937007874015748
        },
        {
          "duration": 0.20408150000000091,
          "durationTicks": 192,
          "midi": 68,
          "name": "G#4",
          "ticks": 68736,
          "time": 73.061177,
          "velocity": 0.3937007874015748
        },
        {
          "duration": 0.20408150000000091,
          "durationTicks": 192,
          "midi": 70,
          "name": "A#4",
          "ticks": 68928,
          "time": 73.2652585,
          "velocity": 0.3937007874015748
        },
        {
          "duration": 0.10204075000000046,
          "durationTicks": 96,
          "midi": 54,
          "name": "F#3",
          "ticks": 69024,
          "time": 73.36729925,
          "velocity": 0.3937007874015748
        },
        {
          "duration": 0.10204075000000046,
          "durationTicks": 96,
          "midi": 47,
          "name": "B2",
          "ticks": 69024,
          "time": 73.36729925,
          "velocity": 0.3937007874015748
        },
        {
          "duration": 0.10204075000000046,
          "durationTicks": 96,
          "midi": 56,
          "name": "G#3",
          "ticks": 69120,
          "time": 73.46934,
          "velocity": 0.3937007874015748
        },
        {
          "duration": 0.10204075000000046,
          "durationTicks": 96,
          "midi": 49,
          "name": "C#3",
          "ticks": 69120,
          "time": 73.46934,
          "velocity": 0.3937007874015748
        },
        {
          "duration": 0.20408150000000091,
          "durationTicks": 192,
          "midi": 73,
          "name": "C#5",
          "ticks": 69120,
          "time": 73.46934,
          "velocity": 0.3937007874015748
        },
        {
          "duration": 0.20408150000000091,
          "durationTicks": 192,
          "midi": 75,
          "name": "D#5",
          "ticks": 69312,
          "time": 73.6734215,
          "velocity": 0.3937007874015748
        },
        {
          "duration": 0.20408150000000091,
          "durationTicks": 192,
          "midi": 70,
          "name": "A#4",
          "ticks": 69504,
          "time": 73.877503,
          "velocity": 0.3937007874015748
        },
        {
          "duration": 0.20408150000000091,
          "durationTicks": 192,
          "midi": 68,
          "name": "G#4",
          "ticks": 69696,
          "time": 74.0815845,
          "velocity": 0.3937007874015748
        },
        {
          "duration": 0.10204075000000046,
          "durationTicks": 96,
          "midi": 70,
          "name": "A#4",
          "ticks": 69888,
          "time": 74.285666,
          "velocity": 0.3937007874015748
        },
        {
          "duration": 0.10204075000000046,
          "durationTicks": 96,
          "midi": 70,
          "name": "A#4",
          "ticks": 70176,
          "time": 74.59178825,
          "velocity": 0.3937007874015748
        },
        {
          "duration": 0.20408150000000091,
          "durationTicks": 192,
          "midi": 75,
          "name": "D#5",
          "ticks": 70272,
          "time": 74.693829,
          "velocity": 0.3937007874015748
        },
        {
          "duration": 0.20408150000000091,
          "durationTicks": 192,
          "midi": 77,
          "name": "F5",
          "ticks": 70464,
          "time": 74.8979105,
          "velocity": 0.3937007874015748
        },
        {
          "duration": 0.10204075000000046,
          "durationTicks": 96,
          "midi": 56,
          "name": "G#3",
          "ticks": 70560,
          "time": 74.99995125,
          "velocity": 0.3937007874015748
        },
        {
          "duration": 0.10204075000000046,
          "durationTicks": 96,
          "midi": 49,
          "name": "C#3",
          "ticks": 70560,
          "time": 74.99995125,
          "velocity": 0.3937007874015748
        },
        {
          "duration": 0.20408150000000091,
          "durationTicks": 192,
          "midi": 78,
          "name": "F#5",
          "ticks": 70656,
          "time": 75.101992,
          "velocity": 0.3937007874015748
        },
        {
          "duration": 0.10204075000000046,
          "durationTicks": 96,
          "midi": 51,
          "name": "D#3",
          "ticks": 70656,
          "time": 75.101992,
          "velocity": 0.3937007874015748
        },
        {
          "duration": 0.10204075000000046,
          "durationTicks": 96,
          "midi": 58,
          "name": "A#3",
          "ticks": 70656,
          "time": 75.101992,
          "velocity": 0.3937007874015748
        },
        {
          "duration": 0.20408150000000091,
          "durationTicks": 192,
          "midi": 77,
          "name": "F5",
          "ticks": 70848,
          "time": 75.3060735,
          "velocity": 0.3937007874015748
        },
        {
          "duration": 0.20408150000000091,
          "durationTicks": 192,
          "midi": 75,
          "name": "D#5",
          "ticks": 71040,
          "time": 75.510155,
          "velocity": 0.3937007874015748
        },
        {
          "duration": 0.20408150000000091,
          "durationTicks": 192,
          "midi": 73,
          "name": "C#5",
          "ticks": 71232,
          "time": 75.7142365,
          "velocity": 0.3937007874015748
        },
        {
          "duration": 0.10204075000000046,
          "durationTicks": 96,
          "midi": 70,
          "name": "A#4",
          "ticks": 71424,
          "time": 75.918318,
          "velocity": 0.3937007874015748
        },
        {
          "duration": 0.10204075000000046,
          "durationTicks": 96,
          "midi": 70,
          "name": "A#4",
          "ticks": 71712,
          "time": 76.22444025,
          "velocity": 0.3937007874015748
        },
        {
          "duration": 0.20408150000000091,
          "durationTicks": 192,
          "midi": 68,
          "name": "G#4",
          "ticks": 71808,
          "time": 76.326481,
          "velocity": 0.3937007874015748
        },
        {
          "duration": 0.20408150000000091,
          "durationTicks": 192,
          "midi": 70,
          "name": "A#4",
          "ticks": 72000,
          "time": 76.5305625,
          "velocity": 0.3937007874015748
        },
        {
          "duration": 0.10204075000000046,
          "durationTicks": 96,
          "midi": 58,
          "name": "A#3",
          "ticks": 72096,
          "time": 76.63260325,
          "velocity": 0.3937007874015748
        },
        {
          "duration": 0.10204075000000046,
          "durationTicks": 96,
          "midi": 51,
          "name": "D#3",
          "ticks": 72096,
          "time": 76.63260325,
          "velocity": 0.3937007874015748
        },
        {
          "duration": 0.20408150000000091,
          "durationTicks": 192,
          "midi": 68,
          "name": "G#4",
          "ticks": 72192,
          "time": 76.734644,
          "velocity": 0.3937007874015748
        },
        {
          "duration": 0.20408150000000091,
          "durationTicks": 192,
          "midi": 66,
          "name": "F#4",
          "ticks": 72384,
          "time": 76.9387255,
          "velocity": 0.3937007874015748
        },
        {
          "duration": 0.20408150000000091,
          "durationTicks": 192,
          "midi": 65,
          "name": "F4",
          "ticks": 72576,
          "time": 77.142807,
          "velocity": 0.3937007874015748
        },
        {
          "duration": 0.20408150000000091,
          "durationTicks": 192,
          "midi": 61,
          "name": "C#4",
          "ticks": 72768,
          "time": 77.3468885,
          "velocity": 0.3937007874015748
        },
        {
          "duration": 0.10204074999998625,
          "durationTicks": 96,
          "midi": 56,
          "name": "G#3",
          "ticks": 72960,
          "time": 77.55097,
          "velocity": 0.3937007874015748
        },
        {
          "duration": 0.10204074999998625,
          "durationTicks": 96,
          "midi": 63,
          "name": "D#4",
          "ticks": 72960,
          "time": 77.55097,
          "velocity": 0.3937007874015748
        },
        {
          "duration": 0.10204075000000046,
          "durationTicks": 96,
          "midi": 56,
          "name": "G#3",
          "ticks": 73248,
          "time": 77.85709225,
          "velocity": 0.3937007874015748
        },
        {
          "duration": 0.10204075000000046,
          "durationTicks": 96,
          "midi": 63,
          "name": "D#4",
          "ticks": 73248,
          "time": 77.85709225,
          "velocity": 0.3937007874015748
        },
        {
          "duration": 0.10204075000000046,
          "durationTicks": 96,
          "midi": 54,
          "name": "F#3",
          "ticks": 73344,
          "time": 77.959133,
          "velocity": 0.3937007874015748
        },
        {
          "duration": 0.10204075000000046,
          "durationTicks": 96,
          "midi": 54,
          "name": "F#3",
          "ticks": 73632,
          "time": 78.26525525,
          "velocity": 0.3937007874015748
        },
        {
          "duration": 0.10204075000000046,
          "durationTicks": 96,
          "midi": 51,
          "name": "D#3",
          "ticks": 73728,
          "time": 78.367296,
          "velocity": 0.3937007874015748
        },
        {
          "duration": 0.10204075000000046,
          "durationTicks": 96,
          "midi": 63,
          "name": "D#4",
          "ticks": 73728,
          "time": 78.367296,
          "velocity": 0.3937007874015748
        },
        {
          "duration": 0.10204075000000046,
          "durationTicks": 96,
          "midi": 51,
          "name": "D#3",
          "ticks": 73920,
          "time": 78.5713775,
          "velocity": 0.3937007874015748
        },
        {
          "duration": 0.10204075000000046,
          "durationTicks": 96,
          "midi": 63,
          "name": "D#4",
          "ticks": 73920,
          "time": 78.5713775,
          "velocity": 0.3937007874015748
        },
        {
          "duration": 0.10204075000000046,
          "durationTicks": 96,
          "midi": 51,
          "name": "D#3",
          "ticks": 74208,
          "time": 78.87749975,
          "velocity": 0.3937007874015748
        },
        {
          "duration": 0.10204075000000046,
          "durationTicks": 96,
          "midi": 63,
          "name": "D#4",
          "ticks": 74208,
          "time": 78.87749975,
          "velocity": 0.3937007874015748
        },
        {
          "duration": 0.10204075000000046,
          "durationTicks": 96,
          "midi": 46,
          "name": "A#2",
          "ticks": 74304,
          "time": 78.9795405,
          "velocity": 0.3937007874015748
        },
        {
          "duration": 0.10204075000000046,
          "durationTicks": 96,
          "midi": 58,
          "name": "A#3",
          "ticks": 74304,
          "time": 78.9795405,
          "velocity": 0.3937007874015748
        },
        {
          "duration": 0.10204075000000046,
          "durationTicks": 96,
          "midi": 61,
          "name": "C#4",
          "ticks": 74400,
          "time": 79.08158125,
          "velocity": 0.3937007874015748
        },
        {
          "duration": 0.10204075000000046,
          "durationTicks": 96,
          "midi": 49,
          "name": "C#3",
          "ticks": 74400,
          "time": 79.08158125,
          "velocity": 0.3937007874015748
        },
        {
          "duration": 0.10204075000000046,
          "durationTicks": 96,
          "midi": 63,
          "name": "D#4",
          "ticks": 74496,
          "time": 79.183622,
          "velocity": 0.3937007874015748
        },
        {
          "duration": 0.10204075000000046,
          "durationTicks": 96,
          "midi": 51,
          "name": "D#3",
          "ticks": 74496,
          "time": 79.183622,
          "velocity": 0.3937007874015748
        },
        {
          "duration": 0.10204075000000046,
          "durationTicks": 96,
          "midi": 51,
          "name": "D#3",
          "ticks": 74688,
          "time": 79.3877035,
          "velocity": 0.3937007874015748
        },
        {
          "duration": 0.10204075000000046,
          "durationTicks": 96,
          "midi": 63,
          "name": "D#4",
          "ticks": 74688,
          "time": 79.3877035,
          "velocity": 0.3937007874015748
        },
        {
          "duration": 0.10204075000000046,
          "durationTicks": 96,
          "midi": 51,
          "name": "D#3",
          "ticks": 74976,
          "time": 79.69382575,
          "velocity": 0.3937007874015748
        },
        {
          "duration": 0.10204075000000046,
          "durationTicks": 96,
          "midi": 63,
          "name": "D#4",
          "ticks": 74976,
          "time": 79.69382575,
          "velocity": 0.3937007874015748
        },
        {
          "duration": 0.10204075000000046,
          "durationTicks": 96,
          "midi": 58,
          "name": "A#3",
          "ticks": 75072,
          "time": 79.7958665,
          "velocity": 0.3937007874015748
        },
        {
          "duration": 0.10204075000000046,
          "durationTicks": 96,
          "midi": 46,
          "name": "A#2",
          "ticks": 75072,
          "time": 79.7958665,
          "velocity": 0.3937007874015748
        },
        {
          "duration": 0.10204075000000046,
          "durationTicks": 96,
          "midi": 49,
          "name": "C#3",
          "ticks": 75168,
          "time": 79.89790725,
          "velocity": 0.3937007874015748
        },
        {
          "duration": 0.10204075000000046,
          "durationTicks": 96,
          "midi": 61,
          "name": "C#4",
          "ticks": 75168,
          "time": 79.89790725,
          "velocity": 0.3937007874015748
        },
        {
          "duration": 0.10204075000000046,
          "durationTicks": 96,
          "midi": 63,
          "name": "D#4",
          "ticks": 75264,
          "time": 79.999948,
          "velocity": 0.3937007874015748
        },
        {
          "duration": 0.10204075000000046,
          "durationTicks": 96,
          "midi": 51,
          "name": "D#3",
          "ticks": 75264,
          "time": 79.999948,
          "velocity": 0.3937007874015748
        },
        {
          "duration": 0.10204075000000046,
          "durationTicks": 96,
          "midi": 63,
          "name": "D#4",
          "ticks": 75456,
          "time": 80.2040295,
          "velocity": 0.3937007874015748
        },
        {
          "duration": 0.10204075000000046,
          "durationTicks": 96,
          "midi": 51,
          "name": "D#3",
          "ticks": 75456,
          "time": 80.2040295,
          "velocity": 0.3937007874015748
        },
        {
          "duration": 0.10204075000000046,
          "durationTicks": 96,
          "midi": 63,
          "name": "D#4",
          "ticks": 75744,
          "time": 80.51015175,
          "velocity": 0.3937007874015748
        },
        {
          "duration": 0.10204075000000046,
          "durationTicks": 96,
          "midi": 51,
          "name": "D#3",
          "ticks": 75744,
          "time": 80.51015175,
          "velocity": 0.3937007874015748
        },
        {
          "duration": 0.10204075000000046,
          "durationTicks": 96,
          "midi": 46,
          "name": "A#2",
          "ticks": 75840,
          "time": 80.6121925,
          "velocity": 0.3937007874015748
        },
        {
          "duration": 0.10204075000000046,
          "durationTicks": 96,
          "midi": 58,
          "name": "A#3",
          "ticks": 75840,
          "time": 80.6121925,
          "velocity": 0.3937007874015748
        },
        {
          "duration": 0.10204074999998625,
          "durationTicks": 96,
          "midi": 61,
          "name": "C#4",
          "ticks": 75936,
          "time": 80.71423325,
          "velocity": 0.3937007874015748
        },
        {
          "duration": 0.10204074999998625,
          "durationTicks": 96,
          "midi": 49,
          "name": "C#3",
          "ticks": 75936,
          "time": 80.71423325,
          "velocity": 0.3937007874015748
        },
        {
          "duration": 0.10204075000000046,
          "durationTicks": 96,
          "midi": 63,
          "name": "D#4",
          "ticks": 76032,
          "time": 80.81627399999999,
          "velocity": 0.3937007874015748
        },
        {
          "duration": 0.10204075000000046,
          "durationTicks": 96,
          "midi": 51,
          "name": "D#3",
          "ticks": 76032,
          "time": 80.81627399999999,
          "velocity": 0.3937007874015748
        },
        {
          "duration": 0.10204075000000046,
          "durationTicks": 96,
          "midi": 61,
          "name": "C#4",
          "ticks": 76224,
          "time": 81.0203555,
          "velocity": 0.3937007874015748
        },
        {
          "duration": 0.10204075000000046,
          "durationTicks": 96,
          "midi": 49,
          "name": "C#3",
          "ticks": 76224,
          "time": 81.0203555,
          "velocity": 0.3937007874015748
        },
        {
          "duration": 0.10204075000000046,
          "durationTicks": 96,
          "midi": 63,
          "name": "D#4",
          "ticks": 76320,
          "time": 81.12239625,
          "velocity": 0.3937007874015748
        },
        {
          "duration": 0.10204075000000046,
          "durationTicks": 96,
          "midi": 51,
          "name": "D#3",
          "ticks": 76320,
          "time": 81.12239625,
          "velocity": 0.3937007874015748
        },
        {
          "duration": 0.10204075000000046,
          "durationTicks": 96,
          "midi": 63,
          "name": "D#4",
          "ticks": 76320,
          "time": 81.12239625,
          "velocity": 0.3937007874015748
        },
        {
          "duration": 0.10204075000000046,
          "durationTicks": 96,
          "midi": 68,
          "name": "G#4",
          "ticks": 76416,
          "time": 81.224437,
          "velocity": 0.3937007874015748
        },
        {
          "duration": 0.10204075000000046,
          "durationTicks": 96,
          "midi": 56,
          "name": "G#3",
          "ticks": 76416,
          "time": 81.224437,
          "velocity": 0.3937007874015748
        },
        {
          "duration": 0.10204075000000046,
          "durationTicks": 96,
          "midi": 54,
          "name": "F#3",
          "ticks": 76608,
          "time": 81.4285185,
          "velocity": 0.3937007874015748
        },
        {
          "duration": 0.10204075000000046,
          "durationTicks": 96,
          "midi": 66,
          "name": "F#4",
          "ticks": 76608,
          "time": 81.4285185,
          "velocity": 0.3937007874015748
        },
        {
          "duration": 0.10204075000000046,
          "durationTicks": 96,
          "midi": 68,
          "name": "G#4",
          "ticks": 76704,
          "time": 81.53055925,
          "velocity": 0.3937007874015748
        },
        {
          "duration": 0.10204075000000046,
          "durationTicks": 96,
          "midi": 56,
          "name": "G#3",
          "ticks": 76704,
          "time": 81.53055925,
          "velocity": 0.3937007874015748
        },
        {
          "duration": 0.10204075000000046,
          "durationTicks": 96,
          "midi": 63,
          "name": "D#4",
          "ticks": 76800,
          "time": 81.6326,
          "velocity": 0.3937007874015748
        },
        {
          "duration": 0.10204075000000046,
          "durationTicks": 96,
          "midi": 51,
          "name": "D#3",
          "ticks": 76800,
          "time": 81.6326,
          "velocity": 0.3937007874015748
        },
        {
          "duration": 0.10204075000000046,
          "durationTicks": 96,
          "midi": 63,
          "name": "D#4",
          "ticks": 76992,
          "time": 81.8366815,
          "velocity": 0.3937007874015748
        },
        {
          "duration": 0.10204075000000046,
          "durationTicks": 96,
          "midi": 51,
          "name": "D#3",
          "ticks": 76992,
          "time": 81.8366815,
          "velocity": 0.3937007874015748
        },
        {
          "duration": 0.10204075000000046,
          "durationTicks": 96,
          "midi": 63,
          "name": "D#4",
          "ticks": 77280,
          "time": 82.14280375,
          "velocity": 0.3937007874015748
        },
        {
          "duration": 0.10204075000000046,
          "durationTicks": 96,
          "midi": 51,
          "name": "D#3",
          "ticks": 77280,
          "time": 82.14280375,
          "velocity": 0.3937007874015748
        },
        {
          "duration": 0.10204075000000046,
          "durationTicks": 96,
          "midi": 46,
          "name": "A#2",
          "ticks": 77376,
          "time": 82.2448445,
          "velocity": 0.3937007874015748
        },
        {
          "duration": 0.10204075000000046,
          "durationTicks": 96,
          "midi": 58,
          "name": "A#3",
          "ticks": 77376,
          "time": 82.2448445,
          "velocity": 0.3937007874015748
        },
        {
          "duration": 0.10204075000000046,
          "durationTicks": 96,
          "midi": 61,
          "name": "C#4",
          "ticks": 77472,
          "time": 82.34688525,
          "velocity": 0.3937007874015748
        },
        {
          "duration": 0.10204075000000046,
          "durationTicks": 96,
          "midi": 49,
          "name": "C#3",
          "ticks": 77472,
          "time": 82.34688525,
          "velocity": 0.3937007874015748
        },
        {
          "duration": 0.10204075000000046,
          "durationTicks": 96,
          "midi": 51,
          "name": "D#3",
          "ticks": 77568,
          "time": 82.448926,
          "velocity": 0.3937007874015748
        },
        {
          "duration": 0.10204075000000046,
          "durationTicks": 96,
          "midi": 63,
          "name": "D#4",
          "ticks": 77568,
          "time": 82.448926,
          "velocity": 0.3937007874015748
        },
        {
          "duration": 0.10204075000000046,
          "durationTicks": 96,
          "midi": 63,
          "name": "D#4",
          "ticks": 77760,
          "time": 82.6530075,
          "velocity": 0.3937007874015748
        },
        {
          "duration": 0.10204075000000046,
          "durationTicks": 96,
          "midi": 51,
          "name": "D#3",
          "ticks": 77760,
          "time": 82.6530075,
          "velocity": 0.3937007874015748
        },
        {
          "duration": 0.10204075000000046,
          "durationTicks": 96,
          "midi": 51,
          "name": "D#3",
          "ticks": 78048,
          "time": 82.95912975,
          "velocity": 0.3937007874015748
        },
        {
          "duration": 0.10204075000000046,
          "durationTicks": 96,
          "midi": 63,
          "name": "D#4",
          "ticks": 78048,
          "time": 82.95912975,
          "velocity": 0.3937007874015748
        },
        {
          "duration": 0.10204075000000046,
          "durationTicks": 96,
          "midi": 46,
          "name": "A#2",
          "ticks": 78144,
          "time": 83.0611705,
          "velocity": 0.3937007874015748
        },
        {
          "duration": 0.10204075000000046,
          "durationTicks": 96,
          "midi": 58,
          "name": "A#3",
          "ticks": 78144,
          "time": 83.0611705,
          "velocity": 0.3937007874015748
        },
        {
          "duration": 0.10204075000000046,
          "durationTicks": 96,
          "midi": 49,
          "name": "C#3",
          "ticks": 78240,
          "time": 83.16321125,
          "velocity": 0.3937007874015748
        },
        {
          "duration": 0.10204075000000046,
          "durationTicks": 96,
          "midi": 61,
          "name": "C#4",
          "ticks": 78240,
          "time": 83.16321125,
          "velocity": 0.3937007874015748
        },
        {
          "duration": 0.10204075000000046,
          "durationTicks": 96,
          "midi": 63,
          "name": "D#4",
          "ticks": 78336,
          "time": 83.265252,
          "velocity": 0.3937007874015748
        },
        {
          "duration": 0.10204075000000046,
          "durationTicks": 96,
          "midi": 51,
          "name": "D#3",
          "ticks": 78336,
          "time": 83.265252,
          "velocity": 0.3937007874015748
        },
        {
          "duration": 0.10204075000000046,
          "durationTicks": 96,
          "midi": 63,
          "name": "D#4",
          "ticks": 78528,
          "time": 83.4693335,
          "velocity": 0.3937007874015748
        },
        {
          "duration": 0.10204075000000046,
          "durationTicks": 96,
          "midi": 51,
          "name": "D#3",
          "ticks": 78528,
          "time": 83.4693335,
          "velocity": 0.3937007874015748
        },
        {
          "duration": 0.10204075000000046,
          "durationTicks": 96,
          "midi": 51,
          "name": "D#3",
          "ticks": 78816,
          "time": 83.77545575,
          "velocity": 0.3937007874015748
        },
        {
          "duration": 0.10204075000000046,
          "durationTicks": 96,
          "midi": 63,
          "name": "D#4",
          "ticks": 78816,
          "time": 83.77545575,
          "velocity": 0.3937007874015748
        },
        {
          "duration": 0.10204074999998625,
          "durationTicks": 96,
          "midi": 46,
          "name": "A#2",
          "ticks": 78912,
          "time": 83.8774965,
          "velocity": 0.3937007874015748
        },
        {
          "duration": 0.10204074999998625,
          "durationTicks": 96,
          "midi": 58,
          "name": "A#3",
          "ticks": 78912,
          "time": 83.8774965,
          "velocity": 0.3937007874015748
        },
        {
          "duration": 0.10204075000000046,
          "durationTicks": 96,
          "midi": 49,
          "name": "C#3",
          "ticks": 79008,
          "time": 83.97953724999999,
          "velocity": 0.3937007874015748
        },
        {
          "duration": 0.10204075000000046,
          "durationTicks": 96,
          "midi": 61,
          "name": "C#4",
          "ticks": 79008,
          "time": 83.97953724999999,
          "velocity": 0.3937007874015748
        },
        {
          "duration": 0.10204075000000046,
          "durationTicks": 96,
          "midi": 68,
          "name": "G#4",
          "ticks": 79104,
          "time": 84.081578,
          "velocity": 0.3937007874015748
        },
        {
          "duration": 0.10204075000000046,
          "durationTicks": 96,
          "midi": 56,
          "name": "G#3",
          "ticks": 79104,
          "time": 84.081578,
          "velocity": 0.3937007874015748
        },
        {
          "duration": 0.10204075000000046,
          "durationTicks": 96,
          "midi": 66,
          "name": "F#4",
          "ticks": 79296,
          "time": 84.2856595,
          "velocity": 0.3937007874015748
        },
        {
          "duration": 0.10204075000000046,
          "durationTicks": 96,
          "midi": 54,
          "name": "F#3",
          "ticks": 79296,
          "time": 84.2856595,
          "velocity": 0.3937007874015748
        },
        {
          "duration": 0.10204075000000046,
          "durationTicks": 96,
          "midi": 68,
          "name": "G#4",
          "ticks": 79392,
          "time": 84.38770025,
          "velocity": 0.3937007874015748
        },
        {
          "duration": 0.10204075000000046,
          "durationTicks": 96,
          "midi": 56,
          "name": "G#3",
          "ticks": 79392,
          "time": 84.38770025,
          "velocity": 0.3937007874015748
        },
        {
          "duration": 0.10204075000000046,
          "durationTicks": 96,
          "midi": 54,
          "name": "F#3",
          "ticks": 79488,
          "time": 84.489741,
          "velocity": 0.3937007874015748
        },
        {
          "duration": 0.10204075000000046,
          "durationTicks": 96,
          "midi": 66,
          "name": "F#4",
          "ticks": 79488,
          "time": 84.489741,
          "velocity": 0.3937007874015748
        },
        {
          "duration": 0.10204075000000046,
          "durationTicks": 96,
          "midi": 65,
          "name": "F4",
          "ticks": 79680,
          "time": 84.6938225,
          "velocity": 0.3937007874015748
        },
        {
          "duration": 0.10204075000000046,
          "durationTicks": 96,
          "midi": 53,
          "name": "F3",
          "ticks": 79680,
          "time": 84.6938225,
          "velocity": 0.3937007874015748
        },
        {
          "duration": 0.10204075000000046,
          "durationTicks": 96,
          "midi": 54,
          "name": "F#3",
          "ticks": 79776,
          "time": 84.79586325,
          "velocity": 0.3937007874015748
        },
        {
          "duration": 0.10204075000000046,
          "durationTicks": 96,
          "midi": 66,
          "name": "F#4",
          "ticks": 79776,
          "time": 84.79586325,
          "velocity": 0.3937007874015748
        },
        {
          "duration": 0.10204075000000046,
          "durationTicks": 96,
          "midi": 51,
          "name": "D#3",
          "ticks": 79872,
          "time": 84.897904,
          "velocity": 0.3937007874015748
        },
        {
          "duration": 0.10204075000000046,
          "durationTicks": 96,
          "midi": 63,
          "name": "D#4",
          "ticks": 79872,
          "time": 84.897904,
          "velocity": 0.3937007874015748
        },
        {
          "duration": 0.10204075000000046,
          "durationTicks": 96,
          "midi": 63,
          "name": "D#4",
          "ticks": 80064,
          "time": 85.1019855,
          "velocity": 0.3937007874015748
        },
        {
          "duration": 0.10204075000000046,
          "durationTicks": 96,
          "midi": 51,
          "name": "D#3",
          "ticks": 80064,
          "time": 85.1019855,
          "velocity": 0.3937007874015748
        },
        {
          "duration": 0.10204075000000046,
          "durationTicks": 96,
          "midi": 51,
          "name": "D#3",
          "ticks": 80352,
          "time": 85.40810775,
          "velocity": 0.3937007874015748
        },
        {
          "duration": 0.10204075000000046,
          "durationTicks": 96,
          "midi": 63,
          "name": "D#4",
          "ticks": 80352,
          "time": 85.40810775,
          "velocity": 0.3937007874015748
        },
        {
          "duration": 0.10204075000000046,
          "durationTicks": 96,
          "midi": 58,
          "name": "A#3",
          "ticks": 80448,
          "time": 85.5101485,
          "velocity": 0.3937007874015748
        },
        {
          "duration": 0.10204075000000046,
          "durationTicks": 96,
          "midi": 46,
          "name": "A#2",
          "ticks": 80448,
          "time": 85.5101485,
          "velocity": 0.3937007874015748
        },
        {
          "duration": 0.10204075000000046,
          "durationTicks": 96,
          "midi": 61,
          "name": "C#4",
          "ticks": 80544,
          "time": 85.61218925,
          "velocity": 0.3937007874015748
        },
        {
          "duration": 0.10204075000000046,
          "durationTicks": 96,
          "midi": 49,
          "name": "C#3",
          "ticks": 80544,
          "time": 85.61218925,
          "velocity": 0.3937007874015748
        },
        {
          "duration": 0.10204075000000046,
          "durationTicks": 96,
          "midi": 51,
          "name": "D#3",
          "ticks": 80640,
          "time": 85.71423,
          "velocity": 0.3937007874015748
        },
        {
          "duration": 0.10204075000000046,
          "durationTicks": 96,
          "midi": 63,
          "name": "D#4",
          "ticks": 80640,
          "time": 85.71423,
          "velocity": 0.3937007874015748
        },
        {
          "duration": 0.10204075000000046,
          "durationTicks": 96,
          "midi": 63,
          "name": "D#4",
          "ticks": 80832,
          "time": 85.9183115,
          "velocity": 0.3937007874015748
        },
        {
          "duration": 0.10204075000000046,
          "durationTicks": 96,
          "midi": 51,
          "name": "D#3",
          "ticks": 80832,
          "time": 85.9183115,
          "velocity": 0.3937007874015748
        },
        {
          "duration": 0.10204075000000046,
          "durationTicks": 96,
          "midi": 63,
          "name": "D#4",
          "ticks": 81120,
          "time": 86.22443375,
          "velocity": 0.3937007874015748
        },
        {
          "duration": 0.10204075000000046,
          "durationTicks": 96,
          "midi": 51,
          "name": "D#3",
          "ticks": 81120,
          "time": 86.22443375,
          "velocity": 0.3937007874015748
        },
        {
          "duration": 0.10204075000000046,
          "durationTicks": 96,
          "midi": 58,
          "name": "A#3",
          "ticks": 81216,
          "time": 86.3264745,
          "velocity": 0.3937007874015748
        },
        {
          "duration": 0.10204075000000046,
          "durationTicks": 96,
          "midi": 46,
          "name": "A#2",
          "ticks": 81216,
          "time": 86.3264745,
          "velocity": 0.3937007874015748
        },
        {
          "duration": 0.10204075000000046,
          "durationTicks": 96,
          "midi": 61,
          "name": "C#4",
          "ticks": 81312,
          "time": 86.42851525,
          "velocity": 0.3937007874015748
        },
        {
          "duration": 0.10204075000000046,
          "durationTicks": 96,
          "midi": 49,
          "name": "C#3",
          "ticks": 81312,
          "time": 86.42851525,
          "velocity": 0.3937007874015748
        },
        {
          "duration": 0.10204075000000046,
          "durationTicks": 96,
          "midi": 63,
          "name": "D#4",
          "ticks": 81408,
          "time": 86.530556,
          "velocity": 0.3937007874015748
        },
        {
          "duration": 0.10204075000000046,
          "durationTicks": 96,
          "midi": 51,
          "name": "D#3",
          "ticks": 81408,
          "time": 86.530556,
          "velocity": 0.3937007874015748
        },
        {
          "duration": 0.10204075000000046,
          "durationTicks": 96,
          "midi": 63,
          "name": "D#4",
          "ticks": 81600,
          "time": 86.7346375,
          "velocity": 0.3937007874015748
        },
        {
          "duration": 0.10204075000000046,
          "durationTicks": 96,
          "midi": 51,
          "name": "D#3",
          "ticks": 81600,
          "time": 86.7346375,
          "velocity": 0.3937007874015748
        },
        {
          "duration": 0.10204074999998625,
          "durationTicks": 96,
          "midi": 63,
          "name": "D#4",
          "ticks": 81888,
          "time": 87.04075975,
          "velocity": 0.3937007874015748
        },
        {
          "duration": 0.10204074999998625,
          "durationTicks": 96,
          "midi": 51,
          "name": "D#3",
          "ticks": 81888,
          "time": 87.04075975,
          "velocity": 0.3937007874015748
        },
        {
          "duration": 0.10204075000000046,
          "durationTicks": 96,
          "midi": 58,
          "name": "A#3",
          "ticks": 81984,
          "time": 87.14280049999999,
          "velocity": 0.3937007874015748
        },
        {
          "duration": 0.10204075000000046,
          "durationTicks": 96,
          "midi": 46,
          "name": "A#2",
          "ticks": 81984,
          "time": 87.14280049999999,
          "velocity": 0.3937007874015748
        },
        {
          "duration": 0.10204075000000046,
          "durationTicks": 96,
          "midi": 61,
          "name": "C#4",
          "ticks": 82080,
          "time": 87.24484125,
          "velocity": 0.3937007874015748
        },
        {
          "duration": 0.10204075000000046,
          "durationTicks": 96,
          "midi": 49,
          "name": "C#3",
          "ticks": 82080,
          "time": 87.24484125,
          "velocity": 0.3937007874015748
        },
        {
          "duration": 0.10204075000000046,
          "durationTicks": 96,
          "midi": 51,
          "name": "D#3",
          "ticks": 82176,
          "time": 87.346882,
          "velocity": 0.3937007874015748
        },
        {
          "duration": 0.10204075000000046,
          "durationTicks": 96,
          "midi": 63,
          "name": "D#4",
          "ticks": 82176,
          "time": 87.346882,
          "velocity": 0.3937007874015748
        },
        {
          "duration": 0.10204075000000046,
          "durationTicks": 96,
          "midi": 61,
          "name": "C#4",
          "ticks": 82368,
          "time": 87.5509635,
          "velocity": 0.3937007874015748
        },
        {
          "duration": 0.10204075000000046,
          "durationTicks": 96,
          "midi": 49,
          "name": "C#3",
          "ticks": 82368,
          "time": 87.5509635,
          "velocity": 0.3937007874015748
        },
        {
          "duration": 0.10204075000000046,
          "durationTicks": 96,
          "midi": 51,
          "name": "D#3",
          "ticks": 82464,
          "time": 87.65300425,
          "velocity": 0.3937007874015748
        },
        {
          "duration": 0.10204075000000046,
          "durationTicks": 96,
          "midi": 63,
          "name": "D#4",
          "ticks": 82464,
          "time": 87.65300425,
          "velocity": 0.3937007874015748
        },
        {
          "duration": 0.10204075000000046,
          "durationTicks": 96,
          "midi": 56,
          "name": "G#3",
          "ticks": 82560,
          "time": 87.755045,
          "velocity": 0.3937007874015748
        },
        {
          "duration": 0.10204075000000046,
          "durationTicks": 96,
          "midi": 68,
          "name": "G#4",
          "ticks": 82560,
          "time": 87.755045,
          "velocity": 0.3937007874015748
        },
        {
          "duration": 0.10204075000000046,
          "durationTicks": 96,
          "midi": 66,
          "name": "F#4",
          "ticks": 82752,
          "time": 87.9591265,
          "velocity": 0.3937007874015748
        },
        {
          "duration": 0.10204075000000046,
          "durationTicks": 96,
          "midi": 54,
          "name": "F#3",
          "ticks": 82752,
          "time": 87.9591265,
          "velocity": 0.3937007874015748
        },
        {
          "duration": 0.10204075000000046,
          "durationTicks": 96,
          "midi": 68,
          "name": "G#4",
          "ticks": 82848,
          "time": 88.06116725,
          "velocity": 0.3937007874015748
        },
        {
          "duration": 0.10204075000000046,
          "durationTicks": 96,
          "midi": 56,
          "name": "G#3",
          "ticks": 82848,
          "time": 88.06116725,
          "velocity": 0.3937007874015748
        },
        {
          "duration": 0.10204075000000046,
          "durationTicks": 96,
          "midi": 51,
          "name": "D#3",
          "ticks": 82944,
          "time": 88.163208,
          "velocity": 0.3937007874015748
        },
        {
          "duration": 0.10204075000000046,
          "durationTicks": 96,
          "midi": 63,
          "name": "D#4",
          "ticks": 82944,
          "time": 88.163208,
          "velocity": 0.3937007874015748
        },
        {
          "duration": 0.10204075000000046,
          "durationTicks": 96,
          "midi": 63,
          "name": "D#4",
          "ticks": 83136,
          "time": 88.3672895,
          "velocity": 0.3937007874015748
        },
        {
          "duration": 0.10204075000000046,
          "durationTicks": 96,
          "midi": 51,
          "name": "D#3",
          "ticks": 83136,
          "time": 88.3672895,
          "velocity": 0.3937007874015748
        },
        {
          "duration": 0.10204075000000046,
          "durationTicks": 96,
          "midi": 63,
          "name": "D#4",
          "ticks": 83424,
          "time": 88.67341175,
          "velocity": 0.3937007874015748
        },
        {
          "duration": 0.10204075000000046,
          "durationTicks": 96,
          "midi": 51,
          "name": "D#3",
          "ticks": 83424,
          "time": 88.67341175,
          "velocity": 0.3937007874015748
        },
        {
          "duration": 0.10204075000000046,
          "durationTicks": 96,
          "midi": 58,
          "name": "A#3",
          "ticks": 83520,
          "time": 88.7754525,
          "velocity": 0.3937007874015748
        },
        {
          "duration": 0.10204075000000046,
          "durationTicks": 96,
          "midi": 46,
          "name": "A#2",
          "ticks": 83520,
          "time": 88.7754525,
          "velocity": 0.3937007874015748
        },
        {
          "duration": 0.10204075000000046,
          "durationTicks": 96,
          "midi": 61,
          "name": "C#4",
          "ticks": 83616,
          "time": 88.87749325,
          "velocity": 0.3937007874015748
        },
        {
          "duration": 0.10204075000000046,
          "durationTicks": 96,
          "midi": 49,
          "name": "C#3",
          "ticks": 83616,
          "time": 88.87749325,
          "velocity": 0.3937007874015748
        },
        {
          "duration": 0.10204075000000046,
          "durationTicks": 96,
          "midi": 51,
          "name": "D#3",
          "ticks": 83712,
          "time": 88.979534,
          "velocity": 0.3937007874015748
        },
        {
          "duration": 0.10204075000000046,
          "durationTicks": 96,
          "midi": 63,
          "name": "D#4",
          "ticks": 83712,
          "time": 88.979534,
          "velocity": 0.3937007874015748
        },
        {
          "duration": 0.10204075000000046,
          "durationTicks": 96,
          "midi": 63,
          "name": "D#4",
          "ticks": 83904,
          "time": 89.1836155,
          "velocity": 0.3937007874015748
        },
        {
          "duration": 0.10204075000000046,
          "durationTicks": 96,
          "midi": 51,
          "name": "D#3",
          "ticks": 83904,
          "time": 89.1836155,
          "velocity": 0.3937007874015748
        },
        {
          "duration": 0.10204075000000046,
          "durationTicks": 96,
          "midi": 63,
          "name": "D#4",
          "ticks": 84192,
          "time": 89.48973775,
          "velocity": 0.3937007874015748
        },
        {
          "duration": 0.10204075000000046,
          "durationTicks": 96,
          "midi": 51,
          "name": "D#3",
          "ticks": 84192,
          "time": 89.48973775,
          "velocity": 0.3937007874015748
        },
        {
          "duration": 0.10204075000000046,
          "durationTicks": 96,
          "midi": 46,
          "name": "A#2",
          "ticks": 84288,
          "time": 89.5917785,
          "velocity": 0.3937007874015748
        },
        {
          "duration": 0.10204075000000046,
          "durationTicks": 96,
          "midi": 58,
          "name": "A#3",
          "ticks": 84288,
          "time": 89.5917785,
          "velocity": 0.3937007874015748
        },
        {
          "duration": 0.10204075000000046,
          "durationTicks": 96,
          "midi": 49,
          "name": "C#3",
          "ticks": 84384,
          "time": 89.69381925,
          "velocity": 0.3937007874015748
        },
        {
          "duration": 0.10204075000000046,
          "durationTicks": 96,
          "midi": 61,
          "name": "C#4",
          "ticks": 84384,
          "time": 89.69381925,
          "velocity": 0.3937007874015748
        },
        {
          "duration": 0.10204075000000046,
          "durationTicks": 96,
          "midi": 51,
          "name": "D#3",
          "ticks": 84480,
          "time": 89.79586,
          "velocity": 0.3937007874015748
        },
        {
          "duration": 0.10204075000000046,
          "durationTicks": 96,
          "midi": 63,
          "name": "D#4",
          "ticks": 84480,
          "time": 89.79586,
          "velocity": 0.3937007874015748
        },
        {
          "duration": 0.10204075000000046,
          "durationTicks": 96,
          "midi": 63,
          "name": "D#4",
          "ticks": 84672,
          "time": 89.9999415,
          "velocity": 0.3937007874015748
        },
        {
          "duration": 0.10204075000000046,
          "durationTicks": 96,
          "midi": 51,
          "name": "D#3",
          "ticks": 84672,
          "time": 89.9999415,
          "velocity": 0.3937007874015748
        },
        {
          "duration": 0.10204075000000046,
          "durationTicks": 96,
          "midi": 63,
          "name": "D#4",
          "ticks": 84960,
          "time": 90.30606374999999,
          "velocity": 0.3937007874015748
        },
        {
          "duration": 0.10204075000000046,
          "durationTicks": 96,
          "midi": 51,
          "name": "D#3",
          "ticks": 84960,
          "time": 90.30606374999999,
          "velocity": 0.3937007874015748
        },
        {
          "duration": 0.10204075000000046,
          "durationTicks": 96,
          "midi": 46,
          "name": "A#2",
          "ticks": 85056,
          "time": 90.4081045,
          "velocity": 0.3937007874015748
        },
        {
          "duration": 0.10204075000000046,
          "durationTicks": 96,
          "midi": 58,
          "name": "A#3",
          "ticks": 85056,
          "time": 90.4081045,
          "velocity": 0.3937007874015748
        },
        {
          "duration": 0.10204075000000046,
          "durationTicks": 96,
          "midi": 49,
          "name": "C#3",
          "ticks": 85152,
          "time": 90.51014525,
          "velocity": 0.3937007874015748
        },
        {
          "duration": 0.10204075000000046,
          "durationTicks": 96,
          "midi": 61,
          "name": "C#4",
          "ticks": 85152,
          "time": 90.51014525,
          "velocity": 0.3937007874015748
        },
        {
          "duration": 0.10204075000000046,
          "durationTicks": 96,
          "midi": 68,
          "name": "G#4",
          "ticks": 85248,
          "time": 90.612186,
          "velocity": 0.3937007874015748
        },
        {
          "duration": 0.10204075000000046,
          "durationTicks": 96,
          "midi": 56,
          "name": "G#3",
          "ticks": 85248,
          "time": 90.612186,
          "velocity": 0.3937007874015748
        },
        {
          "duration": 0.10204075000000046,
          "durationTicks": 96,
          "midi": 54,
          "name": "F#3",
          "ticks": 85440,
          "time": 90.8162675,
          "velocity": 0.3937007874015748
        },
        {
          "duration": 0.10204075000000046,
          "durationTicks": 96,
          "midi": 66,
          "name": "F#4",
          "ticks": 85440,
          "time": 90.8162675,
          "velocity": 0.3937007874015748
        },
        {
          "duration": 0.10204075000000046,
          "durationTicks": 96,
          "midi": 56,
          "name": "G#3",
          "ticks": 85536,
          "time": 90.91830825,
          "velocity": 0.3937007874015748
        },
        {
          "duration": 0.10204075000000046,
          "durationTicks": 96,
          "midi": 68,
          "name": "G#4",
          "ticks": 85536,
          "time": 90.91830825,
          "velocity": 0.3937007874015748
        },
        {
          "duration": 0.10204075000000046,
          "durationTicks": 96,
          "midi": 54,
          "name": "F#3",
          "ticks": 85632,
          "time": 91.020349,
          "velocity": 0.3937007874015748
        },
        {
          "duration": 0.10204075000000046,
          "durationTicks": 96,
          "midi": 66,
          "name": "F#4",
          "ticks": 85632,
          "time": 91.020349,
          "velocity": 0.3937007874015748
        },
        {
          "duration": 0.10204075000000046,
          "durationTicks": 96,
          "midi": 53,
          "name": "F3",
          "ticks": 85824,
          "time": 91.2244305,
          "velocity": 0.3937007874015748
        },
        {
          "duration": 0.10204075000000046,
          "durationTicks": 96,
          "midi": 65,
          "name": "F4",
          "ticks": 85824,
          "time": 91.2244305,
          "velocity": 0.3937007874015748
        },
        {
          "duration": 0.10204075000000046,
          "durationTicks": 96,
          "midi": 66,
          "name": "F#4",
          "ticks": 85920,
          "time": 91.32647125,
          "velocity": 0.3937007874015748
        },
        {
          "duration": 0.10204075000000046,
          "durationTicks": 96,
          "midi": 54,
          "name": "F#3",
          "ticks": 85920,
          "time": 91.32647125,
          "velocity": 0.3937007874015748
        },
        {
          "duration": 0.10204075000000046,
          "durationTicks": 96,
          "midi": 51,
          "name": "D#3",
          "ticks": 86016,
          "time": 91.428512,
          "velocity": 0.3937007874015748
        },
        {
          "duration": 0.10204075000000046,
          "durationTicks": 96,
          "midi": 63,
          "name": "D#4",
          "ticks": 86016,
          "time": 91.428512,
          "velocity": 0.3937007874015748
        },
        {
          "duration": 0.10204075000000046,
          "durationTicks": 96,
          "midi": 65,
          "name": "F4",
          "ticks": 86208,
          "time": 91.6325935,
          "velocity": 0.3937007874015748
        },
        {
          "duration": 0.10204075000000046,
          "durationTicks": 96,
          "midi": 58,
          "name": "A#3",
          "ticks": 86208,
          "time": 91.6325935,
          "velocity": 0.3937007874015748
        },
        {
          "duration": 0.10204075000000046,
          "durationTicks": 96,
          "midi": 51,
          "name": "D#3",
          "ticks": 86400,
          "time": 91.836675,
          "velocity": 0.3937007874015748
        },
        {
          "duration": 0.10204075000000046,
          "durationTicks": 96,
          "midi": 66,
          "name": "F#4",
          "ticks": 86400,
          "time": 91.836675,
          "velocity": 0.3937007874015748
        },
        {
          "duration": 0.10204075000000046,
          "durationTicks": 96,
          "midi": 68,
          "name": "G#4",
          "ticks": 86592,
          "time": 92.0407565,
          "velocity": 0.3937007874015748
        },
        {
          "duration": 0.10204075000000046,
          "durationTicks": 96,
          "midi": 58,
          "name": "A#3",
          "ticks": 86592,
          "time": 92.0407565,
          "velocity": 0.3937007874015748
        },
        {
          "duration": 0.10204075000000046,
          "durationTicks": 96,
          "midi": 70,
          "name": "A#4",
          "ticks": 86784,
          "time": 92.244838,
          "velocity": 0.3937007874015748
        },
        {
          "duration": 0.10204075000000046,
          "durationTicks": 96,
          "midi": 51,
          "name": "D#3",
          "ticks": 86784,
          "time": 92.244838,
          "velocity": 0.3937007874015748
        },
        {
          "duration": 0.10204075000000046,
          "durationTicks": 96,
          "midi": 58,
          "name": "A#3",
          "ticks": 86976,
          "time": 92.4489195,
          "velocity": 0.3937007874015748
        },
        {
          "duration": 0.10204075000000046,
          "durationTicks": 96,
          "midi": 70,
          "name": "A#4",
          "ticks": 87072,
          "time": 92.55096025,
          "velocity": 0.3937007874015748
        },
        {
          "duration": 0.10204075000000046,
          "durationTicks": 96,
          "midi": 75,
          "name": "D#5",
          "ticks": 87168,
          "time": 92.653001,
          "velocity": 0.3937007874015748
        },
        {
          "duration": 0.10204075000000046,
          "durationTicks": 96,
          "midi": 51,
          "name": "D#3",
          "ticks": 87168,
          "time": 92.653001,
          "velocity": 0.3937007874015748
        },
        {
          "duration": 0.10204075000000046,
          "durationTicks": 96,
          "midi": 58,
          "name": "A#3",
          "ticks": 87360,
          "time": 92.8570825,
          "velocity": 0.3937007874015748
        },
        {
          "duration": 0.10204075000000046,
          "durationTicks": 96,
          "midi": 73,
          "name": "C#5",
          "ticks": 87360,
          "time": 92.8570825,
          "velocity": 0.3937007874015748
        },
        {
          "duration": 0.10204075000000046,
          "durationTicks": 96,
          "midi": 70,
          "name": "A#4",
          "ticks": 87552,
          "time": 93.061164,
          "velocity": 0.3937007874015748
        },
        {
          "duration": 0.10204075000000046,
          "durationTicks": 96,
          "midi": 51,
          "name": "D#3",
          "ticks": 87552,
          "time": 93.061164,
          "velocity": 0.3937007874015748
        },
        {
          "duration": 0.10204075000000046,
          "durationTicks": 96,
          "midi": 58,
          "name": "A#3",
          "ticks": 87744,
          "time": 93.2652455,
          "velocity": 0.3937007874015748
        },
        {
          "duration": 0.10204074999998625,
          "durationTicks": 96,
          "midi": 70,
          "name": "A#4",
          "ticks": 87840,
          "time": 93.36728625,
          "velocity": 0.3937007874015748
        },
        {
          "duration": 0.10204075000000046,
          "durationTicks": 96,
          "midi": 63,
          "name": "D#4",
          "ticks": 87936,
          "time": 93.46932699999999,
          "velocity": 0.3937007874015748
        },
        {
          "duration": 0.10204075000000046,
          "durationTicks": 96,
          "midi": 51,
          "name": "D#3",
          "ticks": 87936,
          "time": 93.46932699999999,
          "velocity": 0.3937007874015748
        },
        {
          "duration": 0.10204075000000046,
          "durationTicks": 96,
          "midi": 58,
          "name": "A#3",
          "ticks": 88128,
          "time": 93.6734085,
          "velocity": 0.3937007874015748
        },
        {
          "duration": 0.10204075000000046,
          "durationTicks": 96,
          "midi": 63,
          "name": "D#4",
          "ticks": 88224,
          "time": 93.77544925,
          "velocity": 0.3937007874015748
        },
        {
          "duration": 0.10204075000000046,
          "durationTicks": 96,
          "midi": 70,
          "name": "A#4",
          "ticks": 88320,
          "time": 93.87749,
          "velocity": 0.3937007874015748
        },
        {
          "duration": 0.10204075000000046,
          "durationTicks": 96,
          "midi": 51,
          "name": "D#3",
          "ticks": 88320,
          "time": 93.87749,
          "velocity": 0.3937007874015748
        },
        {
          "duration": 0.10204075000000046,
          "durationTicks": 96,
          "midi": 68,
          "name": "G#4",
          "ticks": 88512,
          "time": 94.0815715,
          "velocity": 0.3937007874015748
        },
        {
          "duration": 0.10204075000000046,
          "durationTicks": 96,
          "midi": 58,
          "name": "A#3",
          "ticks": 88512,
          "time": 94.0815715,
          "velocity": 0.3937007874015748
        },
        {
          "duration": 0.10204075000000046,
          "durationTicks": 96,
          "midi": 66,
          "name": "F#4",
          "ticks": 88704,
          "time": 94.285653,
          "velocity": 0.3937007874015748
        },
        {
          "duration": 0.10204075000000046,
          "durationTicks": 96,
          "midi": 51,
          "name": "D#3",
          "ticks": 88704,
          "time": 94.285653,
          "velocity": 0.3937007874015748
        },
        {
          "duration": 0.10204075000000046,
          "durationTicks": 96,
          "midi": 58,
          "name": "A#3",
          "ticks": 88896,
          "time": 94.4897345,
          "velocity": 0.3937007874015748
        },
        {
          "duration": 0.10204075000000046,
          "durationTicks": 96,
          "midi": 65,
          "name": "F4",
          "ticks": 88896,
          "time": 94.4897345,
          "velocity": 0.3937007874015748
        },
        {
          "duration": 0.10204075000000046,
          "durationTicks": 96,
          "midi": 63,
          "name": "D#4",
          "ticks": 89088,
          "time": 94.693816,
          "velocity": 0.3937007874015748
        },
        {
          "duration": 0.10204075000000046,
          "durationTicks": 96,
          "midi": 47,
          "name": "B2",
          "ticks": 89088,
          "time": 94.693816,
          "velocity": 0.3937007874015748
        },
        {
          "duration": 0.10204075000000046,
          "durationTicks": 96,
          "midi": 65,
          "name": "F4",
          "ticks": 89280,
          "time": 94.8978975,
          "velocity": 0.3937007874015748
        },
        {
          "duration": 0.10204075000000046,
          "durationTicks": 96,
          "midi": 54,
          "name": "F#3",
          "ticks": 89280,
          "time": 94.8978975,
          "velocity": 0.3937007874015748
        },
        {
          "duration": 0.10204075000000046,
          "durationTicks": 96,
          "midi": 66,
          "name": "F#4",
          "ticks": 89472,
          "time": 95.101979,
          "velocity": 0.3937007874015748
        },
        {
          "duration": 0.10204075000000046,
          "durationTicks": 96,
          "midi": 47,
          "name": "B2",
          "ticks": 89472,
          "time": 95.101979,
          "velocity": 0.3937007874015748
        },
        {
          "duration": 0.10204075000000046,
          "durationTicks": 96,
          "midi": 68,
          "name": "G#4",
          "ticks": 89664,
          "time": 95.3060605,
          "velocity": 0.3937007874015748
        },
        {
          "duration": 0.10204075000000046,
          "durationTicks": 96,
          "midi": 54,
          "name": "F#3",
          "ticks": 89664,
          "time": 95.3060605,
          "velocity": 0.3937007874015748
        },
        {
          "duration": 0.10204075000000046,
          "durationTicks": 96,
          "midi": 70,
          "name": "A#4",
          "ticks": 89856,
          "time": 95.510142,
          "velocity": 0.3937007874015748
        },
        {
          "duration": 0.10204075000000046,
          "durationTicks": 96,
          "midi": 47,
          "name": "B2",
          "ticks": 89856,
          "time": 95.510142,
          "velocity": 0.3937007874015748
        },
        {
          "duration": 0.10204075000000046,
          "durationTicks": 96,
          "midi": 54,
          "name": "F#3",
          "ticks": 90048,
          "time": 95.7142235,
          "velocity": 0.3937007874015748
        },
        {
          "duration": 0.10204075000000046,
          "durationTicks": 96,
          "midi": 70,
          "name": "A#4",
          "ticks": 90144,
          "time": 95.81626425,
          "velocity": 0.3937007874015748
        },
        {
          "duration": 0.10204075000000046,
          "durationTicks": 96,
          "midi": 68,
          "name": "G#4",
          "ticks": 90240,
          "time": 95.918305,
          "velocity": 0.3937007874015748
        },
        {
          "duration": 0.10204075000000046,
          "durationTicks": 96,
          "midi": 47,
          "name": "B2",
          "ticks": 90240,
          "time": 95.918305,
          "velocity": 0.3937007874015748
        },
        {
          "duration": 0.10204075000000046,
          "durationTicks": 96,
          "midi": 54,
          "name": "F#3",
          "ticks": 90432,
          "time": 96.1223865,
          "velocity": 0.3937007874015748
        },
        {
          "duration": 0.10204075000000046,
          "durationTicks": 96,
          "midi": 66,
          "name": "F#4",
          "ticks": 90432,
          "time": 96.1223865,
          "velocity": 0.3937007874015748
        },
        {
          "duration": 0.10204075000000046,
          "durationTicks": 96,
          "midi": 65,
          "name": "F4",
          "ticks": 90624,
          "time": 96.326468,
          "velocity": 0.3937007874015748
        },
        {
          "duration": 0.10204075000000046,
          "durationTicks": 96,
          "midi": 49,
          "name": "C#3",
          "ticks": 90624,
          "time": 96.326468,
          "velocity": 0.3937007874015748
        },
        {
          "duration": 0.10204074999998625,
          "durationTicks": 96,
          "midi": 56,
          "name": "G#3",
          "ticks": 90816,
          "time": 96.5305495,
          "velocity": 0.3937007874015748
        },
        {
          "duration": 0.10204074999998625,
          "durationTicks": 96,
          "midi": 63,
          "name": "D#4",
          "ticks": 90816,
          "time": 96.5305495,
          "velocity": 0.3937007874015748
        },
        {
          "duration": 0.10204075000000046,
          "durationTicks": 96,
          "midi": 49,
          "name": "C#3",
          "ticks": 91008,
          "time": 96.734631,
          "velocity": 0.3937007874015748
        },
        {
          "duration": 0.10204075000000046,
          "durationTicks": 96,
          "midi": 65,
          "name": "F4",
          "ticks": 91008,
          "time": 96.734631,
          "velocity": 0.3937007874015748
        },
        {
          "duration": 0.10204075000000046,
          "durationTicks": 96,
          "midi": 56,
          "name": "G#3",
          "ticks": 91200,
          "time": 96.9387125,
          "velocity": 0.3937007874015748
        },
        {
          "duration": 0.10204075000000046,
          "durationTicks": 96,
          "midi": 66,
          "name": "F#4",
          "ticks": 91200,
          "time": 96.9387125,
          "velocity": 0.3937007874015748
        },
        {
          "duration": 0.10204075000000046,
          "durationTicks": 96,
          "midi": 65,
          "name": "F4",
          "ticks": 91392,
          "time": 97.142794,
          "velocity": 0.3937007874015748
        },
        {
          "duration": 0.10204075000000046,
          "durationTicks": 96,
          "midi": 50,
          "name": "D3",
          "ticks": 91392,
          "time": 97.142794,
          "velocity": 0.3937007874015748
        },
        {
          "duration": 0.10204075000000046,
          "durationTicks": 96,
          "midi": 58,
          "name": "A#3",
          "ticks": 91584,
          "time": 97.3468755,
          "velocity": 0.3937007874015748
        },
        {
          "duration": 0.10204075000000046,
          "durationTicks": 96,
          "midi": 63,
          "name": "D#4",
          "ticks": 91584,
          "time": 97.3468755,
          "velocity": 0.3937007874015748
        },
        {
          "duration": 0.10204075000000046,
          "durationTicks": 96,
          "midi": 62,
          "name": "D4",
          "ticks": 91776,
          "time": 97.550957,
          "velocity": 0.3937007874015748
        },
        {
          "duration": 0.10204075000000046,
          "durationTicks": 96,
          "midi": 50,
          "name": "D3",
          "ticks": 91776,
          "time": 97.550957,
          "velocity": 0.3937007874015748
        },
        {
          "duration": 0.10204075000000046,
          "durationTicks": 96,
          "midi": 58,
          "name": "A#3",
          "ticks": 91968,
          "time": 97.7550385,
          "velocity": 0.3937007874015748
        },
        {
          "duration": 0.10204075000000046,
          "durationTicks": 96,
          "midi": 65,
          "name": "F4",
          "ticks": 91968,
          "time": 97.7550385,
          "velocity": 0.3937007874015748
        },
        {
          "duration": 0.10204075000000046,
          "durationTicks": 96,
          "midi": 51,
          "name": "D#3",
          "ticks": 92160,
          "time": 97.95912,
          "velocity": 0.3937007874015748
        },
        {
          "duration": 0.10204075000000046,
          "durationTicks": 96,
          "midi": 63,
          "name": "D#4",
          "ticks": 92160,
          "time": 97.95912,
          "velocity": 0.3937007874015748
        },
        {
          "duration": 0.10204075000000046,
          "durationTicks": 96,
          "midi": 58,
          "name": "A#3",
          "ticks": 92352,
          "time": 98.1632015,
          "velocity": 0.3937007874015748
        },
        {
          "duration": 0.10204075000000046,
          "durationTicks": 96,
          "midi": 65,
          "name": "F4",
          "ticks": 92352,
          "time": 98.1632015,
          "velocity": 0.3937007874015748
        },
        {
          "duration": 0.10204075000000046,
          "durationTicks": 96,
          "midi": 51,
          "name": "D#3",
          "ticks": 92544,
          "time": 98.367283,
          "velocity": 0.3937007874015748
        },
        {
          "duration": 0.10204075000000046,
          "durationTicks": 96,
          "midi": 66,
          "name": "F#4",
          "ticks": 92544,
          "time": 98.367283,
          "velocity": 0.3937007874015748
        },
        {
          "duration": 0.10204075000000046,
          "durationTicks": 96,
          "midi": 58,
          "name": "A#3",
          "ticks": 92736,
          "time": 98.5713645,
          "velocity": 0.3937007874015748
        },
        {
          "duration": 0.10204075000000046,
          "durationTicks": 96,
          "midi": 68,
          "name": "G#4",
          "ticks": 92736,
          "time": 98.5713645,
          "velocity": 0.3937007874015748
        },
        {
          "duration": 0.10204075000000046,
          "durationTicks": 96,
          "midi": 51,
          "name": "D#3",
          "ticks": 92928,
          "time": 98.775446,
          "velocity": 0.3937007874015748
        },
        {
          "duration": 0.10204075000000046,
          "durationTicks": 96,
          "midi": 70,
          "name": "A#4",
          "ticks": 92928,
          "time": 98.775446,
          "velocity": 0.3937007874015748
        },
        {
          "duration": 0.10204075000000046,
          "durationTicks": 96,
          "midi": 58,
          "name": "A#3",
          "ticks": 93120,
          "time": 98.9795275,
          "velocity": 0.3937007874015748
        },
        {
          "duration": 0.10204075000000046,
          "durationTicks": 96,
          "midi": 70,
          "name": "A#4",
          "ticks": 93216,
          "time": 99.08156825,
          "velocity": 0.3937007874015748
        },
        {
          "duration": 0.10204075000000046,
          "durationTicks": 96,
          "midi": 75,
          "name": "D#5",
          "ticks": 93312,
          "time": 99.183609,
          "velocity": 0.3937007874015748
        },
        {
          "duration": 0.10204075000000046,
          "durationTicks": 96,
          "midi": 51,
          "name": "D#3",
          "ticks": 93312,
          "time": 99.183609,
          "velocity": 0.3937007874015748
        },
        {
          "duration": 0.10204075000000046,
          "durationTicks": 96,
          "midi": 58,
          "name": "A#3",
          "ticks": 93504,
          "time": 99.3876905,
          "velocity": 0.3937007874015748
        },
        {
          "duration": 0.10204075000000046,
          "durationTicks": 96,
          "midi": 73,
          "name": "C#5",
          "ticks": 93504,
          "time": 99.3876905,
          "velocity": 0.3937007874015748
        },
        {
          "duration": 0.10204075000000046,
          "durationTicks": 96,
          "midi": 51,
          "name": "D#3",
          "ticks": 93696,
          "time": 99.591772,
          "velocity": 0.3937007874015748
        },
        {
          "duration": 0.10204075000000046,
          "durationTicks": 96,
          "midi": 70,
          "name": "A#4",
          "ticks": 93696,
          "time": 99.591772,
          "velocity": 0.3937007874015748
        },
        {
          "duration": 0.10204075000000046,
          "durationTicks": 96,
          "midi": 58,
          "name": "A#3",
          "ticks": 93888,
          "time": 99.79585349999999,
          "velocity": 0.3937007874015748
        },
        {
          "duration": 0.10204075000000046,
          "durationTicks": 96,
          "midi": 70,
          "name": "A#4",
          "ticks": 93984,
          "time": 99.89789425,
          "velocity": 0.3937007874015748
        },
        {
          "duration": 0.10204075000000046,
          "durationTicks": 96,
          "midi": 51,
          "name": "D#3",
          "ticks": 94080,
          "time": 99.999935,
          "velocity": 0.3937007874015748
        },
        {
          "duration": 0.10204075000000046,
          "durationTicks": 96,
          "midi": 63,
          "name": "D#4",
          "ticks": 94080,
          "time": 99.999935,
          "velocity": 0.3937007874015748
        },
        {
          "duration": 0.10204075000000046,
          "durationTicks": 96,
          "midi": 58,
          "name": "A#3",
          "ticks": 94272,
          "time": 100.2040165,
          "velocity": 0.3937007874015748
        },
        {
          "duration": 0.10204075000000046,
          "durationTicks": 96,
          "midi": 63,
          "name": "D#4",
          "ticks": 94368,
          "time": 100.30605725,
          "velocity": 0.3937007874015748
        },
        {
          "duration": 0.10204075000000046,
          "durationTicks": 96,
          "midi": 51,
          "name": "D#3",
          "ticks": 94464,
          "time": 100.408098,
          "velocity": 0.3937007874015748
        },
        {
          "duration": 0.10204075000000046,
          "durationTicks": 96,
          "midi": 70,
          "name": "A#4",
          "ticks": 94464,
          "time": 100.408098,
          "velocity": 0.3937007874015748
        },
        {
          "duration": 0.10204075000000046,
          "durationTicks": 96,
          "midi": 68,
          "name": "G#4",
          "ticks": 94656,
          "time": 100.6121795,
          "velocity": 0.3937007874015748
        },
        {
          "duration": 0.10204075000000046,
          "durationTicks": 96,
          "midi": 58,
          "name": "A#3",
          "ticks": 94656,
          "time": 100.6121795,
          "velocity": 0.3937007874015748
        },
        {
          "duration": 0.10204075000000046,
          "durationTicks": 96,
          "midi": 51,
          "name": "D#3",
          "ticks": 94848,
          "time": 100.816261,
          "velocity": 0.3937007874015748
        },
        {
          "duration": 0.10204075000000046,
          "durationTicks": 96,
          "midi": 66,
          "name": "F#4",
          "ticks": 94848,
          "time": 100.816261,
          "velocity": 0.3937007874015748
        },
        {
          "duration": 0.10204075000000046,
          "durationTicks": 96,
          "midi": 65,
          "name": "F4",
          "ticks": 95040,
          "time": 101.0203425,
          "velocity": 0.3937007874015748
        },
        {
          "duration": 0.10204075000000046,
          "durationTicks": 96,
          "midi": 58,
          "name": "A#3",
          "ticks": 95040,
          "time": 101.0203425,
          "velocity": 0.3937007874015748
        },
        {
          "duration": 0.10204075000000046,
          "durationTicks": 96,
          "midi": 63,
          "name": "D#4",
          "ticks": 95232,
          "time": 101.224424,
          "velocity": 0.3937007874015748
        },
        {
          "duration": 0.10204075000000046,
          "durationTicks": 96,
          "midi": 47,
          "name": "B2",
          "ticks": 95232,
          "time": 101.224424,
          "velocity": 0.3937007874015748
        },
        {
          "duration": 0.10204075000000046,
          "durationTicks": 96,
          "midi": 54,
          "name": "F#3",
          "ticks": 95424,
          "time": 101.4285055,
          "velocity": 0.3937007874015748
        },
        {
          "duration": 0.10204075000000046,
          "durationTicks": 96,
          "midi": 65,
          "name": "F4",
          "ticks": 95424,
          "time": 101.4285055,
          "velocity": 0.3937007874015748
        },
        {
          "duration": 0.10204075000000046,
          "durationTicks": 96,
          "midi": 66,
          "name": "F#4",
          "ticks": 95616,
          "time": 101.632587,
          "velocity": 0.3937007874015748
        },
        {
          "duration": 0.10204075000000046,
          "durationTicks": 96,
          "midi": 47,
          "name": "B2",
          "ticks": 95616,
          "time": 101.632587,
          "velocity": 0.3937007874015748
        },
        {
          "duration": 0.10204075000000046,
          "durationTicks": 96,
          "midi": 68,
          "name": "G#4",
          "ticks": 95808,
          "time": 101.8366685,
          "velocity": 0.3937007874015748
        },
        {
          "duration": 0.10204075000000046,
          "durationTicks": 96,
          "midi": 54,
          "name": "F#3",
          "ticks": 95808,
          "time": 101.8366685,
          "velocity": 0.3937007874015748
        },
        {
          "duration": 0.10204075000000046,
          "durationTicks": 96,
          "midi": 47,
          "name": "B2",
          "ticks": 96000,
          "time": 102.04075,
          "velocity": 0.3937007874015748
        },
        {
          "duration": 0.10204075000000046,
          "durationTicks": 96,
          "midi": 70,
          "name": "A#4",
          "ticks": 96000,
          "time": 102.04075,
          "velocity": 0.3937007874015748
        },
        {
          "duration": 0.10204075000000046,
          "durationTicks": 96,
          "midi": 54,
          "name": "F#3",
          "ticks": 96192,
          "time": 102.2448315,
          "velocity": 0.3937007874015748
        },
        {
          "duration": 0.10204075000000046,
          "durationTicks": 96,
          "midi": 70,
          "name": "A#4",
          "ticks": 96288,
          "time": 102.34687225,
          "velocity": 0.3937007874015748
        },
        {
          "duration": 0.10204075000000046,
          "durationTicks": 96,
          "midi": 68,
          "name": "G#4",
          "ticks": 96384,
          "time": 102.448913,
          "velocity": 0.3937007874015748
        },
        {
          "duration": 0.10204075000000046,
          "durationTicks": 96,
          "midi": 47,
          "name": "B2",
          "ticks": 96384,
          "time": 102.448913,
          "velocity": 0.3937007874015748
        },
        {
          "duration": 0.10204075000000046,
          "durationTicks": 96,
          "midi": 54,
          "name": "F#3",
          "ticks": 96576,
          "time": 102.6529945,
          "velocity": 0.3937007874015748
        },
        {
          "duration": 0.10204075000000046,
          "durationTicks": 96,
          "midi": 66,
          "name": "F#4",
          "ticks": 96576,
          "time": 102.6529945,
          "velocity": 0.3937007874015748
        },
        {
          "duration": 0.10204074999998625,
          "durationTicks": 96,
          "midi": 49,
          "name": "C#3",
          "ticks": 96768,
          "time": 102.857076,
          "velocity": 0.3937007874015748
        },
        {
          "duration": 0.10204074999998625,
          "durationTicks": 96,
          "midi": 65,
          "name": "F4",
          "ticks": 96768,
          "time": 102.857076,
          "velocity": 0.3937007874015748
        },
        {
          "duration": 0.10204075000000046,
          "durationTicks": 96,
          "midi": 56,
          "name": "G#3",
          "ticks": 96960,
          "time": 103.0611575,
          "velocity": 0.3937007874015748
        },
        {
          "duration": 0.10204075000000046,
          "durationTicks": 96,
          "midi": 65,
          "name": "F4",
          "ticks": 97056,
          "time": 103.16319825,
          "velocity": 0.3937007874015748
        },
        {
          "duration": 0.10204075000000046,
          "durationTicks": 96,
          "midi": 66,
          "name": "F#4",
          "ticks": 97152,
          "time": 103.265239,
          "velocity": 0.3937007874015748
        },
        {
          "duration": 0.10204075000000046,
          "durationTicks": 96,
          "midi": 49,
          "name": "C#3",
          "ticks": 97152,
          "time": 103.265239,
          "velocity": 0.3937007874015748
        },
        {
          "duration": 0.10204075000000046,
          "durationTicks": 96,
          "midi": 56,
          "name": "G#3",
          "ticks": 97344,
          "time": 103.4693205,
          "velocity": 0.3937007874015748
        },
        {
          "duration": 0.10204075000000046,
          "durationTicks": 96,
          "midi": 66,
          "name": "F#4",
          "ticks": 97440,
          "time": 103.57136125,
          "velocity": 0.3937007874015748
        },
        {
          "duration": 0.10204075000000046,
          "durationTicks": 96,
          "midi": 68,
          "name": "G#4",
          "ticks": 97536,
          "time": 103.673402,
          "velocity": 0.3937007874015748
        },
        {
          "duration": 0.10204075000000046,
          "durationTicks": 96,
          "midi": 50,
          "name": "D3",
          "ticks": 97536,
          "time": 103.673402,
          "velocity": 0.3937007874015748
        },
        {
          "duration": 0.10204075000000046,
          "durationTicks": 96,
          "midi": 58,
          "name": "A#3",
          "ticks": 97728,
          "time": 103.8774835,
          "velocity": 0.3937007874015748
        },
        {
          "duration": 0.10204075000000046,
          "durationTicks": 96,
          "midi": 68,
          "name": "G#4",
          "ticks": 97824,
          "time": 103.97952425,
          "velocity": 0.3937007874015748
        },
        {
          "duration": 0.10204075000000046,
          "durationTicks": 96,
          "midi": 50,
          "name": "D3",
          "ticks": 97920,
          "time": 104.081565,
          "velocity": 0.3937007874015748
        },
        {
          "duration": 0.10204075000000046,
          "durationTicks": 96,
          "midi": 70,
          "name": "A#4",
          "ticks": 97920,
          "time": 104.081565,
          "velocity": 0.3937007874015748
        },
        {
          "duration": 0.10204075000000046,
          "durationTicks": 96,
          "midi": 58,
          "name": "A#3",
          "ticks": 98112,
          "time": 104.2856465,
          "velocity": 0.3937007874015748
        },
        {
          "duration": 0.10204075000000046,
          "durationTicks": 96,
          "midi": 70,
          "name": "A#4",
          "ticks": 98208,
          "time": 104.38768725,
          "velocity": 0.3937007874015748
        },
        {
          "duration": 0.10204075000000046,
          "durationTicks": 96,
          "midi": 63,
          "name": "D#4",
          "ticks": 98304,
          "time": 104.489728,
          "velocity": 0.3937007874015748
        },
        {
          "duration": 0.10204075000000046,
          "durationTicks": 96,
          "midi": 51,
          "name": "D#3",
          "ticks": 98304,
          "time": 104.489728,
          "velocity": 0.3937007874015748
        },
        {
          "duration": 0.10204075000000046,
          "durationTicks": 96,
          "midi": 65,
          "name": "F4",
          "ticks": 98496,
          "time": 104.6938095,
          "velocity": 0.3937007874015748
        },
        {
          "duration": 0.10204075000000046,
          "durationTicks": 96,
          "midi": 58,
          "name": "A#3",
          "ticks": 98496,
          "time": 104.6938095,
          "velocity": 0.3937007874015748
        },
        {
          "duration": 0.10204075000000046,
          "durationTicks": 96,
          "midi": 66,
          "name": "F#4",
          "ticks": 98688,
          "time": 104.897891,
          "velocity": 0.3937007874015748
        },
        {
          "duration": 0.10204075000000046,
          "durationTicks": 96,
          "midi": 51,
          "name": "D#3",
          "ticks": 98688,
          "time": 104.897891,
          "velocity": 0.3937007874015748
        },
        {
          "duration": 0.10204075000000046,
          "durationTicks": 96,
          "midi": 68,
          "name": "G#4",
          "ticks": 98880,
          "time": 105.1019725,
          "velocity": 0.3937007874015748
        },
        {
          "duration": 0.10204075000000046,
          "durationTicks": 96,
          "midi": 58,
          "name": "A#3",
          "ticks": 98880,
          "time": 105.1019725,
          "velocity": 0.3937007874015748
        },
        {
          "duration": 0.10204075000000046,
          "durationTicks": 96,
          "midi": 70,
          "name": "A#4",
          "ticks": 99072,
          "time": 105.306054,
          "velocity": 0.3937007874015748
        },
        {
          "duration": 0.10204075000000046,
          "durationTicks": 96,
          "midi": 51,
          "name": "D#3",
          "ticks": 99072,
          "time": 105.306054,
          "velocity": 0.3937007874015748
        },
        {
          "duration": 0.10204075000000046,
          "durationTicks": 96,
          "midi": 58,
          "name": "A#3",
          "ticks": 99264,
          "time": 105.5101355,
          "velocity": 0.3937007874015748
        },
        {
          "duration": 0.10204075000000046,
          "durationTicks": 96,
          "midi": 70,
          "name": "A#4",
          "ticks": 99360,
          "time": 105.61217625,
          "velocity": 0.3937007874015748
        },
        {
          "duration": 0.10204075000000046,
          "durationTicks": 96,
          "midi": 75,
          "name": "D#5",
          "ticks": 99456,
          "time": 105.714217,
          "velocity": 0.3937007874015748
        },
        {
          "duration": 0.10204075000000046,
          "durationTicks": 96,
          "midi": 51,
          "name": "D#3",
          "ticks": 99456,
          "time": 105.714217,
          "velocity": 0.3937007874015748
        },
        {
          "duration": 0.10204075000000046,
          "durationTicks": 96,
          "midi": 73,
          "name": "C#5",
          "ticks": 99648,
          "time": 105.9182985,
          "velocity": 0.3937007874015748
        },
        {
          "duration": 0.10204075000000046,
          "durationTicks": 96,
          "midi": 58,
          "name": "A#3",
          "ticks": 99648,
          "time": 105.9182985,
          "velocity": 0.3937007874015748
        },
        {
          "duration": 0.10204075000000046,
          "durationTicks": 96,
          "midi": 70,
          "name": "A#4",
          "ticks": 99840,
          "time": 106.12237999999999,
          "velocity": 0.3937007874015748
        },
        {
          "duration": 0.10204075000000046,
          "durationTicks": 96,
          "midi": 51,
          "name": "D#3",
          "ticks": 99840,
          "time": 106.12237999999999,
          "velocity": 0.3937007874015748
        },
        {
          "duration": 0.10204075000000046,
          "durationTicks": 96,
          "midi": 58,
          "name": "A#3",
          "ticks": 100032,
          "time": 106.3264615,
          "velocity": 0.3937007874015748
        },
        {
          "duration": 0.10204075000000046,
          "durationTicks": 96,
          "midi": 70,
          "name": "A#4",
          "ticks": 100128,
          "time": 106.42850225,
          "velocity": 0.3937007874015748
        },
        {
          "duration": 0.10204075000000046,
          "durationTicks": 96,
          "midi": 51,
          "name": "D#3",
          "ticks": 100224,
          "time": 106.530543,
          "velocity": 0.3937007874015748
        },
        {
          "duration": 0.10204075000000046,
          "durationTicks": 96,
          "midi": 63,
          "name": "D#4",
          "ticks": 100224,
          "time": 106.530543,
          "velocity": 0.3937007874015748
        },
        {
          "duration": 0.10204075000000046,
          "durationTicks": 96,
          "midi": 58,
          "name": "A#3",
          "ticks": 100416,
          "time": 106.7346245,
          "velocity": 0.3937007874015748
        },
        {
          "duration": 0.10204075000000046,
          "durationTicks": 96,
          "midi": 63,
          "name": "D#4",
          "ticks": 100512,
          "time": 106.83666525,
          "velocity": 0.3937007874015748
        },
        {
          "duration": 0.10204075000000046,
          "durationTicks": 96,
          "midi": 51,
          "name": "D#3",
          "ticks": 100608,
          "time": 106.938706,
          "velocity": 0.3937007874015748
        },
        {
          "duration": 0.10204075000000046,
          "durationTicks": 96,
          "midi": 70,
          "name": "A#4",
          "ticks": 100608,
          "time": 106.938706,
          "velocity": 0.3937007874015748
        },
        {
          "duration": 0.10204075000000046,
          "durationTicks": 96,
          "midi": 58,
          "name": "A#3",
          "ticks": 100800,
          "time": 107.1427875,
          "velocity": 0.3937007874015748
        },
        {
          "duration": 0.10204075000000046,
          "durationTicks": 96,
          "midi": 68,
          "name": "G#4",
          "ticks": 100800,
          "time": 107.1427875,
          "velocity": 0.3937007874015748
        },
        {
          "duration": 0.10204075000000046,
          "durationTicks": 96,
          "midi": 51,
          "name": "D#3",
          "ticks": 100992,
          "time": 107.346869,
          "velocity": 0.3937007874015748
        },
        {
          "duration": 0.10204075000000046,
          "durationTicks": 96,
          "midi": 66,
          "name": "F#4",
          "ticks": 100992,
          "time": 107.346869,
          "velocity": 0.3937007874015748
        },
        {
          "duration": 0.10204075000000046,
          "durationTicks": 96,
          "midi": 58,
          "name": "A#3",
          "ticks": 101184,
          "time": 107.5509505,
          "velocity": 0.3937007874015748
        },
        {
          "duration": 0.10204075000000046,
          "durationTicks": 96,
          "midi": 65,
          "name": "F4",
          "ticks": 101184,
          "time": 107.5509505,
          "velocity": 0.3937007874015748
        },
        {
          "duration": 0.10204075000000046,
          "durationTicks": 96,
          "midi": 63,
          "name": "D#4",
          "ticks": 101376,
          "time": 107.755032,
          "velocity": 0.3937007874015748
        },
        {
          "duration": 0.10204075000000046,
          "durationTicks": 96,
          "midi": 47,
          "name": "B2",
          "ticks": 101376,
          "time": 107.755032,
          "velocity": 0.3937007874015748
        },
        {
          "duration": 0.10204075000000046,
          "durationTicks": 96,
          "midi": 54,
          "name": "F#3",
          "ticks": 101568,
          "time": 107.9591135,
          "velocity": 0.3937007874015748
        },
        {
          "duration": 0.10204075000000046,
          "durationTicks": 96,
          "midi": 65,
          "name": "F4",
          "ticks": 101568,
          "time": 107.9591135,
          "velocity": 0.3937007874015748
        },
        {
          "duration": 0.10204075000000046,
          "durationTicks": 96,
          "midi": 66,
          "name": "F#4",
          "ticks": 101760,
          "time": 108.163195,
          "velocity": 0.3937007874015748
        },
        {
          "duration": 0.10204075000000046,
          "durationTicks": 96,
          "midi": 47,
          "name": "B2",
          "ticks": 101760,
          "time": 108.163195,
          "velocity": 0.3937007874015748
        },
        {
          "duration": 0.10204075000000046,
          "durationTicks": 96,
          "midi": 68,
          "name": "G#4",
          "ticks": 101952,
          "time": 108.3672765,
          "velocity": 0.3937007874015748
        },
        {
          "duration": 0.10204075000000046,
          "durationTicks": 96,
          "midi": 54,
          "name": "F#3",
          "ticks": 101952,
          "time": 108.3672765,
          "velocity": 0.3937007874015748
        },
        {
          "duration": 0.10204075000000046,
          "durationTicks": 96,
          "midi": 47,
          "name": "B2",
          "ticks": 102144,
          "time": 108.571358,
          "velocity": 0.3937007874015748
        },
        {
          "duration": 0.10204075000000046,
          "durationTicks": 96,
          "midi": 70,
          "name": "A#4",
          "ticks": 102144,
          "time": 108.571358,
          "velocity": 0.3937007874015748
        },
        {
          "duration": 0.10204075000000046,
          "durationTicks": 96,
          "midi": 54,
          "name": "F#3",
          "ticks": 102336,
          "time": 108.7754395,
          "velocity": 0.3937007874015748
        },
        {
          "duration": 0.10204075000000046,
          "durationTicks": 96,
          "midi": 70,
          "name": "A#4",
          "ticks": 102432,
          "time": 108.87748025,
          "velocity": 0.3937007874015748
        },
        {
          "duration": 0.10204075000000046,
          "durationTicks": 96,
          "midi": 68,
          "name": "G#4",
          "ticks": 102528,
          "time": 108.979521,
          "velocity": 0.3937007874015748
        },
        {
          "duration": 0.10204075000000046,
          "durationTicks": 96,
          "midi": 47,
          "name": "B2",
          "ticks": 102528,
          "time": 108.979521,
          "velocity": 0.3937007874015748
        },
        {
          "duration": 0.10204074999998625,
          "durationTicks": 96,
          "midi": 54,
          "name": "F#3",
          "ticks": 102720,
          "time": 109.1836025,
          "velocity": 0.3937007874015748
        },
        {
          "duration": 0.10204074999998625,
          "durationTicks": 96,
          "midi": 66,
          "name": "F#4",
          "ticks": 102720,
          "time": 109.1836025,
          "velocity": 0.3937007874015748
        },
        {
          "duration": 0.10204075000000046,
          "durationTicks": 96,
          "midi": 65,
          "name": "F4",
          "ticks": 102912,
          "time": 109.387684,
          "velocity": 0.3937007874015748
        },
        {
          "duration": 0.10204075000000046,
          "durationTicks": 96,
          "midi": 49,
          "name": "C#3",
          "ticks": 102912,
          "time": 109.387684,
          "velocity": 0.3937007874015748
        },
        {
          "duration": 0.10204075000000046,
          "durationTicks": 96,
          "midi": 63,
          "name": "D#4",
          "ticks": 103104,
          "time": 109.5917655,
          "velocity": 0.3937007874015748
        },
        {
          "duration": 0.10204075000000046,
          "durationTicks": 96,
          "midi": 56,
          "name": "G#3",
          "ticks": 103104,
          "time": 109.5917655,
          "velocity": 0.3937007874015748
        },
        {
          "duration": 0.10204075000000046,
          "durationTicks": 96,
          "midi": 65,
          "name": "F4",
          "ticks": 103296,
          "time": 109.795847,
          "velocity": 0.3937007874015748
        },
        {
          "duration": 0.10204075000000046,
          "durationTicks": 96,
          "midi": 49,
          "name": "C#3",
          "ticks": 103296,
          "time": 109.795847,
          "velocity": 0.3937007874015748
        },
        {
          "duration": 0.10204075000000046,
          "durationTicks": 96,
          "midi": 56,
          "name": "G#3",
          "ticks": 103488,
          "time": 109.9999285,
          "velocity": 0.3937007874015748
        },
        {
          "duration": 0.10204075000000046,
          "durationTicks": 96,
          "midi": 66,
          "name": "F#4",
          "ticks": 103488,
          "time": 109.9999285,
          "velocity": 0.3937007874015748
        },
        {
          "duration": 0.10204075000000046,
          "durationTicks": 96,
          "midi": 65,
          "name": "F4",
          "ticks": 103680,
          "time": 110.20401,
          "velocity": 0.3937007874015748
        },
        {
          "duration": 0.10204075000000046,
          "durationTicks": 96,
          "midi": 50,
          "name": "D3",
          "ticks": 103680,
          "time": 110.20401,
          "velocity": 0.3937007874015748
        },
        {
          "duration": 0.10204075000000046,
          "durationTicks": 96,
          "midi": 58,
          "name": "A#3",
          "ticks": 103872,
          "time": 110.4080915,
          "velocity": 0.3937007874015748
        },
        {
          "duration": 0.10204075000000046,
          "durationTicks": 96,
          "midi": 63,
          "name": "D#4",
          "ticks": 103872,
          "time": 110.4080915,
          "velocity": 0.3937007874015748
        },
        {
          "duration": 0.10204075000000046,
          "durationTicks": 96,
          "midi": 50,
          "name": "D3",
          "ticks": 104064,
          "time": 110.612173,
          "velocity": 0.3937007874015748
        },
        {
          "duration": 0.10204075000000046,
          "durationTicks": 96,
          "midi": 62,
          "name": "D4",
          "ticks": 104064,
          "time": 110.612173,
          "velocity": 0.3937007874015748
        },
        {
          "duration": 0.10204075000000046,
          "durationTicks": 96,
          "midi": 65,
          "name": "F4",
          "ticks": 104256,
          "time": 110.8162545,
          "velocity": 0.3937007874015748
        },
        {
          "duration": 0.10204075000000046,
          "durationTicks": 96,
          "midi": 58,
          "name": "A#3",
          "ticks": 104256,
          "time": 110.8162545,
          "velocity": 0.3937007874015748
        },
        {
          "duration": 0.10204075000000046,
          "durationTicks": 96,
          "midi": 51,
          "name": "D#3",
          "ticks": 104448,
          "time": 111.020336,
          "velocity": 0.3937007874015748
        },
        {
          "duration": 0.10204075000000046,
          "durationTicks": 96,
          "midi": 63,
          "name": "D#4",
          "ticks": 104448,
          "time": 111.020336,
          "velocity": 0.3937007874015748
        },
        {
          "duration": 0.10204075000000046,
          "durationTicks": 96,
          "midi": 65,
          "name": "F4",
          "ticks": 104640,
          "time": 111.2244175,
          "velocity": 0.3937007874015748
        },
        {
          "duration": 0.10204075000000046,
          "durationTicks": 96,
          "midi": 58,
          "name": "A#3",
          "ticks": 104640,
          "time": 111.2244175,
          "velocity": 0.3937007874015748
        },
        {
          "duration": 0.10204075000000046,
          "durationTicks": 96,
          "midi": 51,
          "name": "D#3",
          "ticks": 104832,
          "time": 111.428499,
          "velocity": 0.3937007874015748
        },
        {
          "duration": 0.10204075000000046,
          "durationTicks": 96,
          "midi": 66,
          "name": "F#4",
          "ticks": 104832,
          "time": 111.428499,
          "velocity": 0.3937007874015748
        },
        {
          "duration": 0.10204075000000046,
          "durationTicks": 96,
          "midi": 58,
          "name": "A#3",
          "ticks": 105024,
          "time": 111.6325805,
          "velocity": 0.3937007874015748
        },
        {
          "duration": 0.10204075000000046,
          "durationTicks": 96,
          "midi": 68,
          "name": "G#4",
          "ticks": 105024,
          "time": 111.6325805,
          "velocity": 0.3937007874015748
        },
        {
          "duration": 0.10204075000000046,
          "durationTicks": 96,
          "midi": 51,
          "name": "D#3",
          "ticks": 105216,
          "time": 111.836662,
          "velocity": 0.3937007874015748
        },
        {
          "duration": 0.10204075000000046,
          "durationTicks": 96,
          "midi": 70,
          "name": "A#4",
          "ticks": 105216,
          "time": 111.836662,
          "velocity": 0.3937007874015748
        },
        {
          "duration": 0.10204075000000046,
          "durationTicks": 96,
          "midi": 58,
          "name": "A#3",
          "ticks": 105408,
          "time": 112.0407435,
          "velocity": 0.3937007874015748
        },
        {
          "duration": 0.10204075000000046,
          "durationTicks": 96,
          "midi": 70,
          "name": "A#4",
          "ticks": 105504,
          "time": 112.14278425,
          "velocity": 0.3937007874015748
        },
        {
          "duration": 0.10204075000000046,
          "durationTicks": 96,
          "midi": 51,
          "name": "D#3",
          "ticks": 105600,
          "time": 112.244825,
          "velocity": 0.3937007874015748
        },
        {
          "duration": 0.10204075000000046,
          "durationTicks": 96,
          "midi": 75,
          "name": "D#5",
          "ticks": 105600,
          "time": 112.244825,
          "velocity": 0.3937007874015748
        },
        {
          "duration": 0.10204075000000046,
          "durationTicks": 96,
          "midi": 73,
          "name": "C#5",
          "ticks": 105792,
          "time": 112.44890649999999,
          "velocity": 0.3937007874015748
        },
        {
          "duration": 0.10204075000000046,
          "durationTicks": 96,
          "midi": 58,
          "name": "A#3",
          "ticks": 105792,
          "time": 112.44890649999999,
          "velocity": 0.3937007874015748
        },
        {
          "duration": 0.10204075000000046,
          "durationTicks": 96,
          "midi": 51,
          "name": "D#3",
          "ticks": 105984,
          "time": 112.652988,
          "velocity": 0.3937007874015748
        },
        {
          "duration": 0.10204075000000046,
          "durationTicks": 96,
          "midi": 70,
          "name": "A#4",
          "ticks": 105984,
          "time": 112.652988,
          "velocity": 0.3937007874015748
        },
        {
          "duration": 0.10204075000000046,
          "durationTicks": 96,
          "midi": 58,
          "name": "A#3",
          "ticks": 106176,
          "time": 112.8570695,
          "velocity": 0.3937007874015748
        },
        {
          "duration": 0.10204075000000046,
          "durationTicks": 96,
          "midi": 70,
          "name": "A#4",
          "ticks": 106272,
          "time": 112.95911025,
          "velocity": 0.3937007874015748
        },
        {
          "duration": 0.10204075000000046,
          "durationTicks": 96,
          "midi": 51,
          "name": "D#3",
          "ticks": 106368,
          "time": 113.061151,
          "velocity": 0.3937007874015748
        },
        {
          "duration": 0.10204075000000046,
          "durationTicks": 96,
          "midi": 63,
          "name": "D#4",
          "ticks": 106368,
          "time": 113.061151,
          "velocity": 0.3937007874015748
        },
        {
          "duration": 0.10204075000000046,
          "durationTicks": 96,
          "midi": 58,
          "name": "A#3",
          "ticks": 106560,
          "time": 113.2652325,
          "velocity": 0.3937007874015748
        },
        {
          "duration": 0.10204075000000046,
          "durationTicks": 96,
          "midi": 63,
          "name": "D#4",
          "ticks": 106656,
          "time": 113.36727325,
          "velocity": 0.3937007874015748
        },
        {
          "duration": 0.10204075000000046,
          "durationTicks": 96,
          "midi": 70,
          "name": "A#4",
          "ticks": 106752,
          "time": 113.469314,
          "velocity": 0.3937007874015748
        },
        {
          "duration": 0.10204075000000046,
          "durationTicks": 96,
          "midi": 51,
          "name": "D#3",
          "ticks": 106752,
          "time": 113.469314,
          "velocity": 0.3937007874015748
        },
        {
          "duration": 0.10204075000000046,
          "durationTicks": 96,
          "midi": 68,
          "name": "G#4",
          "ticks": 106944,
          "time": 113.6733955,
          "velocity": 0.3937007874015748
        },
        {
          "duration": 0.10204075000000046,
          "durationTicks": 96,
          "midi": 58,
          "name": "A#3",
          "ticks": 106944,
          "time": 113.6733955,
          "velocity": 0.3937007874015748
        },
        {
          "duration": 0.10204075000000046,
          "durationTicks": 96,
          "midi": 51,
          "name": "D#3",
          "ticks": 107136,
          "time": 113.877477,
          "velocity": 0.3937007874015748
        },
        {
          "duration": 0.10204075000000046,
          "durationTicks": 96,
          "midi": 66,
          "name": "F#4",
          "ticks": 107136,
          "time": 113.877477,
          "velocity": 0.3937007874015748
        },
        {
          "duration": 0.10204075000000046,
          "durationTicks": 96,
          "midi": 58,
          "name": "A#3",
          "ticks": 107328,
          "time": 114.0815585,
          "velocity": 0.3937007874015748
        },
        {
          "duration": 0.10204075000000046,
          "durationTicks": 96,
          "midi": 65,
          "name": "F4",
          "ticks": 107328,
          "time": 114.0815585,
          "velocity": 0.3937007874015748
        },
        {
          "duration": 0.10204075000000046,
          "durationTicks": 96,
          "midi": 47,
          "name": "B2",
          "ticks": 107520,
          "time": 114.28564,
          "velocity": 0.3937007874015748
        },
        {
          "duration": 0.10204075000000046,
          "durationTicks": 96,
          "midi": 63,
          "name": "D#4",
          "ticks": 107520,
          "time": 114.28564,
          "velocity": 0.3937007874015748
        },
        {
          "duration": 0.10204075000000046,
          "durationTicks": 96,
          "midi": 54,
          "name": "F#3",
          "ticks": 107712,
          "time": 114.4897215,
          "velocity": 0.3937007874015748
        },
        {
          "duration": 0.10204075000000046,
          "durationTicks": 96,
          "midi": 66,
          "name": "F#4",
          "ticks": 107904,
          "time": 114.693803,
          "velocity": 0.3937007874015748
        },
        {
          "duration": 0.10204075000000046,
          "durationTicks": 96,
          "midi": 47,
          "name": "B2",
          "ticks": 107904,
          "time": 114.693803,
          "velocity": 0.3937007874015748
        },
        {
          "duration": 0.10204075000000046,
          "durationTicks": 96,
          "midi": 54,
          "name": "F#3",
          "ticks": 108096,
          "time": 114.8978845,
          "velocity": 0.3937007874015748
        },
        {
          "duration": 0.10204075000000046,
          "durationTicks": 96,
          "midi": 68,
          "name": "G#4",
          "ticks": 108096,
          "time": 114.8978845,
          "velocity": 0.3937007874015748
        },
        {
          "duration": 0.10204075000000046,
          "durationTicks": 96,
          "midi": 47,
          "name": "B2",
          "ticks": 108288,
          "time": 115.101966,
          "velocity": 0.3937007874015748
        },
        {
          "duration": 0.10204075000000046,
          "durationTicks": 96,
          "midi": 70,
          "name": "A#4",
          "ticks": 108288,
          "time": 115.101966,
          "velocity": 0.3937007874015748
        },
        {
          "duration": 0.10204075000000046,
          "durationTicks": 96,
          "midi": 54,
          "name": "F#3",
          "ticks": 108480,
          "time": 115.3060475,
          "velocity": 0.3937007874015748
        },
        {
          "duration": 0.10204075000000046,
          "durationTicks": 96,
          "midi": 70,
          "name": "A#4",
          "ticks": 108576,
          "time": 115.40808825,
          "velocity": 0.3937007874015748
        },
        {
          "duration": 0.10204074999998625,
          "durationTicks": 96,
          "midi": 68,
          "name": "G#4",
          "ticks": 108672,
          "time": 115.510129,
          "velocity": 0.3937007874015748
        },
        {
          "duration": 0.10204074999998625,
          "durationTicks": 96,
          "midi": 47,
          "name": "B2",
          "ticks": 108672,
          "time": 115.510129,
          "velocity": 0.3937007874015748
        },
        {
          "duration": 0.10204075000000046,
          "durationTicks": 96,
          "midi": 66,
          "name": "F#4",
          "ticks": 108864,
          "time": 115.7142105,
          "velocity": 0.3937007874015748
        },
        {
          "duration": 0.10204075000000046,
          "durationTicks": 96,
          "midi": 54,
          "name": "F#3",
          "ticks": 108864,
          "time": 115.7142105,
          "velocity": 0.3937007874015748
        },
        {
          "duration": 0.10204075000000046,
          "durationTicks": 96,
          "midi": 65,
          "name": "F4",
          "ticks": 109056,
          "time": 115.918292,
          "velocity": 0.3937007874015748
        },
        {
          "duration": 0.10204075000000046,
          "durationTicks": 96,
          "midi": 49,
          "name": "C#3",
          "ticks": 109056,
          "time": 115.918292,
          "velocity": 0.3937007874015748
        },
        {
          "duration": 0.10204075000000046,
          "durationTicks": 96,
          "midi": 56,
          "name": "G#3",
          "ticks": 109248,
          "time": 116.1223735,
          "velocity": 0.3937007874015748
        },
        {
          "duration": 0.10204075000000046,
          "durationTicks": 96,
          "midi": 65,
          "name": "F4",
          "ticks": 109344,
          "time": 116.22441425,
          "velocity": 0.3937007874015748
        },
        {
          "duration": 0.10204075000000046,
          "durationTicks": 96,
          "midi": 49,
          "name": "C#3",
          "ticks": 109440,
          "time": 116.326455,
          "velocity": 0.3937007874015748
        },
        {
          "duration": 0.10204075000000046,
          "durationTicks": 96,
          "midi": 66,
          "name": "F#4",
          "ticks": 109440,
          "time": 116.326455,
          "velocity": 0.3937007874015748
        },
        {
          "duration": 0.10204075000000046,
          "durationTicks": 96,
          "midi": 56,
          "name": "G#3",
          "ticks": 109632,
          "time": 116.5305365,
          "velocity": 0.3937007874015748
        },
        {
          "duration": 0.10204075000000046,
          "durationTicks": 96,
          "midi": 66,
          "name": "F#4",
          "ticks": 109728,
          "time": 116.63257725,
          "velocity": 0.3937007874015748
        },
        {
          "duration": 0.10204075000000046,
          "durationTicks": 96,
          "midi": 50,
          "name": "D3",
          "ticks": 109824,
          "time": 116.734618,
          "velocity": 0.3937007874015748
        },
        {
          "duration": 0.10204075000000046,
          "durationTicks": 96,
          "midi": 68,
          "name": "G#4",
          "ticks": 109824,
          "time": 116.734618,
          "velocity": 0.3937007874015748
        },
        {
          "duration": 0.10204075000000046,
          "durationTicks": 96,
          "midi": 58,
          "name": "A#3",
          "ticks": 110016,
          "time": 116.9386995,
          "velocity": 0.3937007874015748
        },
        {
          "duration": 0.10204075000000046,
          "durationTicks": 96,
          "midi": 68,
          "name": "G#4",
          "ticks": 110112,
          "time": 117.04074025,
          "velocity": 0.3937007874015748
        },
        {
          "duration": 0.10204075000000046,
          "durationTicks": 96,
          "midi": 70,
          "name": "A#4",
          "ticks": 110208,
          "time": 117.142781,
          "velocity": 0.3937007874015748
        },
        {
          "duration": 0.10204075000000046,
          "durationTicks": 96,
          "midi": 50,
          "name": "D3",
          "ticks": 110208,
          "time": 117.142781,
          "velocity": 0.3937007874015748
        },
        {
          "duration": 0.10204075000000046,
          "durationTicks": 96,
          "midi": 58,
          "name": "A#3",
          "ticks": 110400,
          "time": 117.3468625,
          "velocity": 0.3937007874015748
        },
        {
          "duration": 0.10204075000000046,
          "durationTicks": 96,
          "midi": 70,
          "name": "A#4",
          "ticks": 110496,
          "time": 117.44890325,
          "velocity": 0.3937007874015748
        },
        {
          "duration": 0.10204075000000046,
          "durationTicks": 96,
          "midi": 47,
          "name": "B2",
          "ticks": 110592,
          "time": 117.550944,
          "velocity": 0.3937007874015748
        },
        {
          "duration": 0.10204075000000046,
          "durationTicks": 96,
          "midi": 73,
          "name": "C#5",
          "ticks": 110592,
          "time": 117.550944,
          "velocity": 0.3937007874015748
        },
        {
          "duration": 0.10204075000000046,
          "durationTicks": 96,
          "midi": 75,
          "name": "D#5",
          "ticks": 110784,
          "time": 117.7550255,
          "velocity": 0.3937007874015748
        },
        {
          "duration": 0.10204075000000046,
          "durationTicks": 96,
          "midi": 54,
          "name": "F#3",
          "ticks": 110784,
          "time": 117.7550255,
          "velocity": 0.3937007874015748
        },
        {
          "duration": 0.10204075000000046,
          "durationTicks": 96,
          "midi": 47,
          "name": "B2",
          "ticks": 110976,
          "time": 117.959107,
          "velocity": 0.3937007874015748
        },
        {
          "duration": 0.10204075000000046,
          "durationTicks": 96,
          "midi": 70,
          "name": "A#4",
          "ticks": 110976,
          "time": 117.959107,
          "velocity": 0.3937007874015748
        },
        {
          "duration": 0.10204075000000046,
          "durationTicks": 96,
          "midi": 68,
          "name": "G#4",
          "ticks": 111168,
          "time": 118.1631885,
          "velocity": 0.3937007874015748
        },
        {
          "duration": 0.10204075000000046,
          "durationTicks": 96,
          "midi": 54,
          "name": "F#3",
          "ticks": 111168,
          "time": 118.1631885,
          "velocity": 0.3937007874015748
        },
        {
          "duration": 0.10204075000000046,
          "durationTicks": 96,
          "midi": 70,
          "name": "A#4",
          "ticks": 111360,
          "time": 118.36727,
          "velocity": 0.3937007874015748
        },
        {
          "duration": 0.10204075000000046,
          "durationTicks": 96,
          "midi": 47,
          "name": "B2",
          "ticks": 111360,
          "time": 118.36727,
          "velocity": 0.3937007874015748
        },
        {
          "duration": 0.10204075000000046,
          "durationTicks": 96,
          "midi": 54,
          "name": "F#3",
          "ticks": 111552,
          "time": 118.5713515,
          "velocity": 0.3937007874015748
        },
        {
          "duration": 0.10204074999998625,
          "durationTicks": 96,
          "midi": 70,
          "name": "A#4",
          "ticks": 111648,
          "time": 118.67339225,
          "velocity": 0.3937007874015748
        },
        {
          "duration": 0.10204075000000046,
          "durationTicks": 96,
          "midi": 47,
          "name": "B2",
          "ticks": 111744,
          "time": 118.77543299999999,
          "velocity": 0.3937007874015748
        },
        {
          "duration": 0.10204075000000046,
          "durationTicks": 96,
          "midi": 68,
          "name": "G#4",
          "ticks": 111744,
          "time": 118.77543299999999,
          "velocity": 0.3937007874015748
        },
        {
          "duration": 0.10204075000000046,
          "durationTicks": 96,
          "midi": 70,
          "name": "A#4",
          "ticks": 111936,
          "time": 118.9795145,
          "velocity": 0.3937007874015748
        },
        {
          "duration": 0.10204075000000046,
          "durationTicks": 96,
          "midi": 54,
          "name": "F#3",
          "ticks": 111936,
          "time": 118.9795145,
          "velocity": 0.3937007874015748
        },
        {
          "duration": 0.10204075000000046,
          "durationTicks": 96,
          "midi": 49,
          "name": "C#3",
          "ticks": 112128,
          "time": 119.183596,
          "velocity": 0.3937007874015748
        },
        {
          "duration": 0.10204075000000046,
          "durationTicks": 96,
          "midi": 73,
          "name": "C#5",
          "ticks": 112128,
          "time": 119.183596,
          "velocity": 0.3937007874015748
        },
        {
          "duration": 0.10204075000000046,
          "durationTicks": 96,
          "midi": 56,
          "name": "G#3",
          "ticks": 112320,
          "time": 119.3876775,
          "velocity": 0.3937007874015748
        },
        {
          "duration": 0.10204075000000046,
          "durationTicks": 96,
          "midi": 75,
          "name": "D#5",
          "ticks": 112320,
          "time": 119.3876775,
          "velocity": 0.3937007874015748
        },
        {
          "duration": 0.10204075000000046,
          "durationTicks": 96,
          "midi": 49,
          "name": "C#3",
          "ticks": 112512,
          "time": 119.591759,
          "velocity": 0.3937007874015748
        },
        {
          "duration": 0.10204075000000046,
          "durationTicks": 96,
          "midi": 70,
          "name": "A#4",
          "ticks": 112512,
          "time": 119.591759,
          "velocity": 0.3937007874015748
        },
        {
          "duration": 0.10204075000000046,
          "durationTicks": 96,
          "midi": 68,
          "name": "G#4",
          "ticks": 112704,
          "time": 119.7958405,
          "velocity": 0.3937007874015748
        },
        {
          "duration": 0.10204075000000046,
          "durationTicks": 96,
          "midi": 56,
          "name": "G#3",
          "ticks": 112704,
          "time": 119.7958405,
          "velocity": 0.3937007874015748
        },
        {
          "duration": 0.10204075000000046,
          "durationTicks": 96,
          "midi": 70,
          "name": "A#4",
          "ticks": 112896,
          "time": 119.999922,
          "velocity": 0.3937007874015748
        },
        {
          "duration": 0.10204075000000046,
          "durationTicks": 96,
          "midi": 49,
          "name": "C#3",
          "ticks": 112896,
          "time": 119.999922,
          "velocity": 0.3937007874015748
        },
        {
          "duration": 0.10204075000000046,
          "durationTicks": 96,
          "midi": 56,
          "name": "G#3",
          "ticks": 113088,
          "time": 120.2040035,
          "velocity": 0.3937007874015748
        },
        {
          "duration": 0.10204075000000046,
          "durationTicks": 96,
          "midi": 70,
          "name": "A#4",
          "ticks": 113184,
          "time": 120.30604425,
          "velocity": 0.3937007874015748
        },
        {
          "duration": 0.10204075000000046,
          "durationTicks": 96,
          "midi": 68,
          "name": "G#4",
          "ticks": 113280,
          "time": 120.408085,
          "velocity": 0.3937007874015748
        },
        {
          "duration": 0.10204075000000046,
          "durationTicks": 96,
          "midi": 49,
          "name": "C#3",
          "ticks": 113280,
          "time": 120.408085,
          "velocity": 0.3937007874015748
        },
        {
          "duration": 0.10204075000000046,
          "durationTicks": 96,
          "midi": 70,
          "name": "A#4",
          "ticks": 113472,
          "time": 120.6121665,
          "velocity": 0.3937007874015748
        },
        {
          "duration": 0.10204075000000046,
          "durationTicks": 96,
          "midi": 56,
          "name": "G#3",
          "ticks": 113472,
          "time": 120.6121665,
          "velocity": 0.3937007874015748
        },
        {
          "duration": 0.10204075000000046,
          "durationTicks": 96,
          "midi": 68,
          "name": "G#4",
          "ticks": 113664,
          "time": 120.816248,
          "velocity": 0.3937007874015748
        },
        {
          "duration": 0.10204075000000046,
          "durationTicks": 96,
          "midi": 51,
          "name": "D#3",
          "ticks": 113664,
          "time": 120.816248,
          "velocity": 0.3937007874015748
        },
        {
          "duration": 0.10204075000000046,
          "durationTicks": 96,
          "midi": 58,
          "name": "A#3",
          "ticks": 113856,
          "time": 121.0203295,
          "velocity": 0.3937007874015748
        },
        {
          "duration": 0.10204075000000046,
          "durationTicks": 96,
          "midi": 66,
          "name": "F#4",
          "ticks": 113856,
          "time": 121.0203295,
          "velocity": 0.3937007874015748
        },
        {
          "duration": 0.10204075000000046,
          "durationTicks": 96,
          "midi": 65,
          "name": "F4",
          "ticks": 114048,
          "time": 121.224411,
          "velocity": 0.3937007874015748
        },
        {
          "duration": 0.10204075000000046,
          "durationTicks": 96,
          "midi": 51,
          "name": "D#3",
          "ticks": 114048,
          "time": 121.224411,
          "velocity": 0.3937007874015748
        },
        {
          "duration": 0.10204075000000046,
          "durationTicks": 96,
          "midi": 61,
          "name": "C#4",
          "ticks": 114240,
          "time": 121.4284925,
          "velocity": 0.3937007874015748
        },
        {
          "duration": 0.10204075000000046,
          "durationTicks": 96,
          "midi": 58,
          "name": "A#3",
          "ticks": 114240,
          "time": 121.4284925,
          "velocity": 0.3937007874015748
        },
        {
          "duration": 0.10204075000000046,
          "durationTicks": 96,
          "midi": 63,
          "name": "D#4",
          "ticks": 114432,
          "time": 121.632574,
          "velocity": 0.3937007874015748
        },
        {
          "duration": 0.10204075000000046,
          "durationTicks": 96,
          "midi": 51,
          "name": "D#3",
          "ticks": 114432,
          "time": 121.632574,
          "velocity": 0.3937007874015748
        },
        {
          "duration": 0.10204074999998625,
          "durationTicks": 96,
          "midi": 58,
          "name": "A#3",
          "ticks": 114624,
          "time": 121.8366555,
          "velocity": 0.3937007874015748
        },
        {
          "duration": 0.10204075000000046,
          "durationTicks": 96,
          "midi": 63,
          "name": "D#4",
          "ticks": 114720,
          "time": 121.93869624999999,
          "velocity": 0.3937007874015748
        },
        {
          "duration": 0.10204075000000046,
          "durationTicks": 96,
          "midi": 51,
          "name": "D#3",
          "ticks": 114816,
          "time": 122.040737,
          "velocity": 0.3937007874015748
        },
        {
          "duration": 0.10204075000000046,
          "durationTicks": 96,
          "midi": 61,
          "name": "C#4",
          "ticks": 114816,
          "time": 122.040737,
          "velocity": 0.3937007874015748
        },
        {
          "duration": 0.10204075000000046,
          "durationTicks": 96,
          "midi": 63,
          "name": "D#4",
          "ticks": 115008,
          "time": 122.2448185,
          "velocity": 0.3937007874015748
        },
        {
          "duration": 0.10204075000000046,
          "durationTicks": 96,
          "midi": 58,
          "name": "A#3",
          "ticks": 115008,
          "time": 122.2448185,
          "velocity": 0.3937007874015748
        },
        {
          "duration": 0.10204075000000046,
          "durationTicks": 96,
          "midi": 51,
          "name": "D#3",
          "ticks": 115200,
          "time": 122.4489,
          "velocity": 0.3937007874015748
        },
        {
          "duration": 0.10204075000000046,
          "durationTicks": 96,
          "midi": 65,
          "name": "F4",
          "ticks": 115200,
          "time": 122.4489,
          "velocity": 0.3937007874015748
        },
        {
          "duration": 0.10204075000000046,
          "durationTicks": 96,
          "midi": 66,
          "name": "F#4",
          "ticks": 115392,
          "time": 122.6529815,
          "velocity": 0.3937007874015748
        },
        {
          "duration": 0.10204075000000046,
          "durationTicks": 96,
          "midi": 58,
          "name": "A#3",
          "ticks": 115392,
          "time": 122.6529815,
          "velocity": 0.3937007874015748
        },
        {
          "duration": 0.10204075000000046,
          "durationTicks": 96,
          "midi": 51,
          "name": "D#3",
          "ticks": 115584,
          "time": 122.857063,
          "velocity": 0.3937007874015748
        },
        {
          "duration": 0.10204075000000046,
          "durationTicks": 96,
          "midi": 68,
          "name": "G#4",
          "ticks": 115584,
          "time": 122.857063,
          "velocity": 0.3937007874015748
        },
        {
          "duration": 0.10204075000000046,
          "durationTicks": 96,
          "midi": 70,
          "name": "A#4",
          "ticks": 115776,
          "time": 123.0611445,
          "velocity": 0.3937007874015748
        },
        {
          "duration": 0.10204075000000046,
          "durationTicks": 96,
          "midi": 58,
          "name": "A#3",
          "ticks": 115776,
          "time": 123.0611445,
          "velocity": 0.3937007874015748
        },
        {
          "duration": 0.10204075000000046,
          "durationTicks": 96,
          "midi": 63,
          "name": "D#4",
          "ticks": 115968,
          "time": 123.265226,
          "velocity": 0.3937007874015748
        },
        {
          "duration": 0.10204075000000046,
          "durationTicks": 96,
          "midi": 51,
          "name": "D#3",
          "ticks": 115968,
          "time": 123.265226,
          "velocity": 0.3937007874015748
        },
        {
          "duration": 0.10204075000000046,
          "durationTicks": 96,
          "midi": 58,
          "name": "A#3",
          "ticks": 116160,
          "time": 123.4693075,
          "velocity": 0.3937007874015748
        },
        {
          "duration": 0.10204075000000046,
          "durationTicks": 96,
          "midi": 63,
          "name": "D#4",
          "ticks": 116256,
          "time": 123.57134825,
          "velocity": 0.3937007874015748
        },
        {
          "duration": 0.10204075000000046,
          "durationTicks": 96,
          "midi": 70,
          "name": "A#4",
          "ticks": 116352,
          "time": 123.673389,
          "velocity": 0.3937007874015748
        },
        {
          "duration": 0.10204075000000046,
          "durationTicks": 96,
          "midi": 51,
          "name": "D#3",
          "ticks": 116352,
          "time": 123.673389,
          "velocity": 0.3937007874015748
        },
        {
          "duration": 0.10204075000000046,
          "durationTicks": 96,
          "midi": 58,
          "name": "A#3",
          "ticks": 116544,
          "time": 123.8774705,
          "velocity": 0.3937007874015748
        },
        {
          "duration": 0.10204075000000046,
          "durationTicks": 96,
          "midi": 73,
          "name": "C#5",
          "ticks": 116544,
          "time": 123.8774705,
          "velocity": 0.3937007874015748
        },
        {
          "duration": 0.10204075000000046,
          "durationTicks": 96,
          "midi": 47,
          "name": "B2",
          "ticks": 116736,
          "time": 124.081552,
          "velocity": 0.3937007874015748
        },
        {
          "duration": 0.10204075000000046,
          "durationTicks": 96,
          "midi": 73,
          "name": "C#5",
          "ticks": 116736,
          "time": 124.081552,
          "velocity": 0.3937007874015748
        },
        {
          "duration": 0.10204075000000046,
          "durationTicks": 96,
          "midi": 54,
          "name": "F#3",
          "ticks": 116928,
          "time": 124.2856335,
          "velocity": 0.3937007874015748
        },
        {
          "duration": 0.10204075000000046,
          "durationTicks": 96,
          "midi": 75,
          "name": "D#5",
          "ticks": 116928,
          "time": 124.2856335,
          "velocity": 0.3937007874015748
        },
        {
          "duration": 0.10204075000000046,
          "durationTicks": 96,
          "midi": 70,
          "name": "A#4",
          "ticks": 117120,
          "time": 124.489715,
          "velocity": 0.3937007874015748
        },
        {
          "duration": 0.10204075000000046,
          "durationTicks": 96,
          "midi": 47,
          "name": "B2",
          "ticks": 117120,
          "time": 124.489715,
          "velocity": 0.3937007874015748
        },
        {
          "duration": 0.10204075000000046,
          "durationTicks": 96,
          "midi": 54,
          "name": "F#3",
          "ticks": 117312,
          "time": 124.6937965,
          "velocity": 0.3937007874015748
        },
        {
          "duration": 0.10204075000000046,
          "durationTicks": 96,
          "midi": 68,
          "name": "G#4",
          "ticks": 117312,
          "time": 124.6937965,
          "velocity": 0.3937007874015748
        },
        {
          "duration": 0.10204075000000046,
          "durationTicks": 96,
          "midi": 47,
          "name": "B2",
          "ticks": 117504,
          "time": 124.897878,
          "velocity": 0.3937007874015748
        },
        {
          "duration": 0.10204075000000046,
          "durationTicks": 96,
          "midi": 70,
          "name": "A#4",
          "ticks": 117504,
          "time": 124.897878,
          "velocity": 0.3937007874015748
        },
        {
          "duration": 0.10204075000000046,
          "durationTicks": 96,
          "midi": 54,
          "name": "F#3",
          "ticks": 117696,
          "time": 125.10195949999999,
          "velocity": 0.3937007874015748
        },
        {
          "duration": 0.10204075000000046,
          "durationTicks": 96,
          "midi": 70,
          "name": "A#4",
          "ticks": 117792,
          "time": 125.20400024999999,
          "velocity": 0.3937007874015748
        },
        {
          "duration": 0.10204075000000046,
          "durationTicks": 96,
          "midi": 68,
          "name": "G#4",
          "ticks": 117888,
          "time": 125.306041,
          "velocity": 0.3937007874015748
        },
        {
          "duration": 0.10204075000000046,
          "durationTicks": 96,
          "midi": 47,
          "name": "B2",
          "ticks": 117888,
          "time": 125.306041,
          "velocity": 0.3937007874015748
        },
        {
          "duration": 0.10204075000000046,
          "durationTicks": 96,
          "midi": 54,
          "name": "F#3",
          "ticks": 118080,
          "time": 125.5101225,
          "velocity": 0.3937007874015748
        },
        {
          "duration": 0.10204075000000046,
          "durationTicks": 96,
          "midi": 70,
          "name": "A#4",
          "ticks": 118080,
          "time": 125.5101225,
          "velocity": 0.3937007874015748
        },
        {
          "duration": 0.10204075000000046,
          "durationTicks": 96,
          "midi": 49,
          "name": "C#3",
          "ticks": 118272,
          "time": 125.714204,
          "velocity": 0.3937007874015748
        },
        {
          "duration": 0.10204075000000046,
          "durationTicks": 96,
          "midi": 73,
          "name": "C#5",
          "ticks": 118272,
          "time": 125.714204,
          "velocity": 0.3937007874015748
        },
        {
          "duration": 0.10204075000000046,
          "durationTicks": 96,
          "midi": 56,
          "name": "G#3",
          "ticks": 118464,
          "time": 125.9182855,
          "velocity": 0.3937007874015748
        },
        {
          "duration": 0.10204075000000046,
          "durationTicks": 96,
          "midi": 75,
          "name": "D#5",
          "ticks": 118464,
          "time": 125.9182855,
          "velocity": 0.3937007874015748
        },
        {
          "duration": 0.10204075000000046,
          "durationTicks": 96,
          "midi": 49,
          "name": "C#3",
          "ticks": 118656,
          "time": 126.122367,
          "velocity": 0.3937007874015748
        },
        {
          "duration": 0.10204075000000046,
          "durationTicks": 96,
          "midi": 70,
          "name": "A#4",
          "ticks": 118656,
          "time": 126.122367,
          "velocity": 0.3937007874015748
        },
        {
          "duration": 0.10204075000000046,
          "durationTicks": 96,
          "midi": 56,
          "name": "G#3",
          "ticks": 118848,
          "time": 126.3264485,
          "velocity": 0.3937007874015748
        },
        {
          "duration": 0.10204075000000046,
          "durationTicks": 96,
          "midi": 68,
          "name": "G#4",
          "ticks": 118848,
          "time": 126.3264485,
          "velocity": 0.3937007874015748
        },
        {
          "duration": 0.10204075000000046,
          "durationTicks": 96,
          "midi": 70,
          "name": "A#4",
          "ticks": 119040,
          "time": 126.53053,
          "velocity": 0.3937007874015748
        },
        {
          "duration": 0.10204075000000046,
          "durationTicks": 96,
          "midi": 49,
          "name": "C#3",
          "ticks": 119040,
          "time": 126.53053,
          "velocity": 0.3937007874015748
        },
        {
          "duration": 0.10204075000000046,
          "durationTicks": 96,
          "midi": 56,
          "name": "G#3",
          "ticks": 119232,
          "time": 126.7346115,
          "velocity": 0.3937007874015748
        },
        {
          "duration": 0.10204075000000046,
          "durationTicks": 96,
          "midi": 70,
          "name": "A#4",
          "ticks": 119328,
          "time": 126.83665225,
          "velocity": 0.3937007874015748
        },
        {
          "duration": 0.10204075000000046,
          "durationTicks": 96,
          "midi": 49,
          "name": "C#3",
          "ticks": 119424,
          "time": 126.938693,
          "velocity": 0.3937007874015748
        },
        {
          "duration": 0.10204075000000046,
          "durationTicks": 96,
          "midi": 68,
          "name": "G#4",
          "ticks": 119424,
          "time": 126.938693,
          "velocity": 0.3937007874015748
        },
        {
          "duration": 0.10204075000000046,
          "durationTicks": 96,
          "midi": 70,
          "name": "A#4",
          "ticks": 119616,
          "time": 127.1427745,
          "velocity": 0.3937007874015748
        },
        {
          "duration": 0.10204075000000046,
          "durationTicks": 96,
          "midi": 56,
          "name": "G#3",
          "ticks": 119616,
          "time": 127.1427745,
          "velocity": 0.3937007874015748
        },
        {
          "duration": 0.10204075000000046,
          "durationTicks": 96,
          "midi": 51,
          "name": "D#3",
          "ticks": 119808,
          "time": 127.346856,
          "velocity": 0.3937007874015748
        },
        {
          "duration": 0.10204075000000046,
          "durationTicks": 96,
          "midi": 68,
          "name": "G#4",
          "ticks": 119808,
          "time": 127.346856,
          "velocity": 0.3937007874015748
        },
        {
          "duration": 0.10204075000000046,
          "durationTicks": 96,
          "midi": 58,
          "name": "A#3",
          "ticks": 120000,
          "time": 127.5509375,
          "velocity": 0.3937007874015748
        },
        {
          "duration": 0.10204075000000046,
          "durationTicks": 96,
          "midi": 66,
          "name": "F#4",
          "ticks": 120000,
          "time": 127.5509375,
          "velocity": 0.3937007874015748
        },
        {
          "duration": 0.10204075000000046,
          "durationTicks": 96,
          "midi": 65,
          "name": "F4",
          "ticks": 120192,
          "time": 127.755019,
          "velocity": 0.3937007874015748
        },
        {
          "duration": 0.10204075000000046,
          "durationTicks": 96,
          "midi": 51,
          "name": "D#3",
          "ticks": 120192,
          "time": 127.755019,
          "velocity": 0.3937007874015748
        },
        {
          "duration": 0.10204074999998625,
          "durationTicks": 96,
          "midi": 58,
          "name": "A#3",
          "ticks": 120384,
          "time": 127.9591005,
          "velocity": 0.3937007874015748
        },
        {
          "duration": 0.10204074999998625,
          "durationTicks": 96,
          "midi": 61,
          "name": "C#4",
          "ticks": 120384,
          "time": 127.9591005,
          "velocity": 0.3937007874015748
        },
        {
          "duration": 0.10204074999998625,
          "durationTicks": 96,
          "midi": 51,
          "name": "D#3",
          "ticks": 120576,
          "time": 128.163182,
          "velocity": 0.3937007874015748
        },
        {
          "duration": 0.10204074999998625,
          "durationTicks": 96,
          "midi": 63,
          "name": "D#4",
          "ticks": 120576,
          "time": 128.163182,
          "velocity": 0.3937007874015748
        },
        {
          "duration": 0.10204074999998625,
          "durationTicks": 96,
          "midi": 58,
          "name": "A#3",
          "ticks": 120768,
          "time": 128.3672635,
          "velocity": 0.3937007874015748
        },
        {
          "duration": 0.10204075000001467,
          "durationTicks": 96,
          "midi": 63,
          "name": "D#4",
          "ticks": 120864,
          "time": 128.46930425,
          "velocity": 0.3937007874015748
        },
        {
          "duration": 0.10204074999998625,
          "durationTicks": 96,
          "midi": 51,
          "name": "D#3",
          "ticks": 120960,
          "time": 128.571345,
          "velocity": 0.3937007874015748
        },
        {
          "duration": 0.10204074999998625,
          "durationTicks": 96,
          "midi": 61,
          "name": "C#4",
          "ticks": 120960,
          "time": 128.571345,
          "velocity": 0.3937007874015748
        },
        {
          "duration": 0.10204074999998625,
          "durationTicks": 96,
          "midi": 63,
          "name": "D#4",
          "ticks": 121152,
          "time": 128.7754265,
          "velocity": 0.3937007874015748
        },
        {
          "duration": 0.10204074999998625,
          "durationTicks": 96,
          "midi": 58,
          "name": "A#3",
          "ticks": 121152,
          "time": 128.7754265,
          "velocity": 0.3937007874015748
        },
        {
          "duration": 0.10204074999998625,
          "durationTicks": 96,
          "midi": 65,
          "name": "F4",
          "ticks": 121344,
          "time": 128.979508,
          "velocity": 0.3937007874015748
        },
        {
          "duration": 0.10204074999998625,
          "durationTicks": 96,
          "midi": 51,
          "name": "D#3",
          "ticks": 121344,
          "time": 128.979508,
          "velocity": 0.3937007874015748
        },
        {
          "duration": 0.10204074999998625,
          "durationTicks": 96,
          "midi": 58,
          "name": "A#3",
          "ticks": 121536,
          "time": 129.1835895,
          "velocity": 0.3937007874015748
        },
        {
          "duration": 0.10204074999998625,
          "durationTicks": 96,
          "midi": 66,
          "name": "F#4",
          "ticks": 121536,
          "time": 129.1835895,
          "velocity": 0.3937007874015748
        },
        {
          "duration": 0.10204074999998625,
          "durationTicks": 96,
          "midi": 68,
          "name": "G#4",
          "ticks": 121728,
          "time": 129.387671,
          "velocity": 0.3937007874015748
        },
        {
          "duration": 0.10204074999998625,
          "durationTicks": 96,
          "midi": 51,
          "name": "D#3",
          "ticks": 121728,
          "time": 129.387671,
          "velocity": 0.3937007874015748
        },
        {
          "duration": 0.10204074999998625,
          "durationTicks": 96,
          "midi": 70,
          "name": "A#4",
          "ticks": 121920,
          "time": 129.5917525,
          "velocity": 0.3937007874015748
        },
        {
          "duration": 0.10204074999998625,
          "durationTicks": 96,
          "midi": 58,
          "name": "A#3",
          "ticks": 121920,
          "time": 129.5917525,
          "velocity": 0.3937007874015748
        },
        {
          "duration": 0.10204074999998625,
          "durationTicks": 96,
          "midi": 51,
          "name": "D#3",
          "ticks": 122112,
          "time": 129.795834,
          "velocity": 0.3937007874015748
        },
        {
          "duration": 0.10204074999998625,
          "durationTicks": 96,
          "midi": 63,
          "name": "D#4",
          "ticks": 122112,
          "time": 129.795834,
          "velocity": 0.3937007874015748
        },
        {
          "duration": 0.10204075000001467,
          "durationTicks": 96,
          "midi": 58,
          "name": "A#3",
          "ticks": 122304,
          "time": 129.9999155,
          "velocity": 0.3937007874015748
        },
        {
          "duration": 0.10204074999998625,
          "durationTicks": 96,
          "midi": 63,
          "name": "D#4",
          "ticks": 122400,
          "time": 130.10195625,
          "velocity": 0.3937007874015748
        },
        {
          "duration": 0.10204075000001467,
          "durationTicks": 96,
          "midi": 51,
          "name": "D#3",
          "ticks": 122496,
          "time": 130.203997,
          "velocity": 0.3937007874015748
        },
        {
          "duration": 0.10204075000001467,
          "durationTicks": 96,
          "midi": 70,
          "name": "A#4",
          "ticks": 122496,
          "time": 130.203997,
          "velocity": 0.3937007874015748
        },
        {
          "duration": 0.10204075000001467,
          "durationTicks": 96,
          "midi": 58,
          "name": "A#3",
          "ticks": 122688,
          "time": 130.4080785,
          "velocity": 0.3937007874015748
        },
        {
          "duration": 0.10204075000001467,
          "durationTicks": 96,
          "midi": 73,
          "name": "C#5",
          "ticks": 122688,
          "time": 130.4080785,
          "velocity": 0.3937007874015748
        },
        {
          "duration": 0.10204075000001467,
          "durationTicks": 96,
          "midi": 73,
          "name": "C#5",
          "ticks": 122880,
          "time": 130.61216,
          "velocity": 0.3937007874015748
        },
        {
          "duration": 0.10204075000001467,
          "durationTicks": 96,
          "midi": 47,
          "name": "B2",
          "ticks": 122880,
          "time": 130.61216,
          "velocity": 0.3937007874015748
        },
        {
          "duration": 0.10204075000001467,
          "durationTicks": 96,
          "midi": 75,
          "name": "D#5",
          "ticks": 123072,
          "time": 130.8162415,
          "velocity": 0.3937007874015748
        },
        {
          "duration": 0.10204075000001467,
          "durationTicks": 96,
          "midi": 54,
          "name": "F#3",
          "ticks": 123072,
          "time": 130.8162415,
          "velocity": 0.3937007874015748
        },
        {
          "duration": 0.10204075000001467,
          "durationTicks": 96,
          "midi": 47,
          "name": "B2",
          "ticks": 123264,
          "time": 131.020323,
          "velocity": 0.3937007874015748
        },
        {
          "duration": 0.10204075000001467,
          "durationTicks": 96,
          "midi": 70,
          "name": "A#4",
          "ticks": 123264,
          "time": 131.020323,
          "velocity": 0.3937007874015748
        },
        {
          "duration": 0.10204075000001467,
          "durationTicks": 96,
          "midi": 68,
          "name": "G#4",
          "ticks": 123456,
          "time": 131.2244045,
          "velocity": 0.3937007874015748
        },
        {
          "duration": 0.10204075000001467,
          "durationTicks": 96,
          "midi": 54,
          "name": "F#3",
          "ticks": 123456,
          "time": 131.2244045,
          "velocity": 0.3937007874015748
        },
        {
          "duration": 0.10204075000001467,
          "durationTicks": 96,
          "midi": 70,
          "name": "A#4",
          "ticks": 123648,
          "time": 131.428486,
          "velocity": 0.3937007874015748
        },
        {
          "duration": 0.10204075000001467,
          "durationTicks": 96,
          "midi": 47,
          "name": "B2",
          "ticks": 123648,
          "time": 131.428486,
          "velocity": 0.3937007874015748
        },
        {
          "duration": 0.10204075000001467,
          "durationTicks": 96,
          "midi": 54,
          "name": "F#3",
          "ticks": 123840,
          "time": 131.6325675,
          "velocity": 0.3937007874015748
        },
        {
          "duration": 0.10204074999998625,
          "durationTicks": 96,
          "midi": 70,
          "name": "A#4",
          "ticks": 123936,
          "time": 131.73460825,
          "velocity": 0.3937007874015748
        },
        {
          "duration": 0.10204075000001467,
          "durationTicks": 96,
          "midi": 68,
          "name": "G#4",
          "ticks": 124032,
          "time": 131.836649,
          "velocity": 0.3937007874015748
        },
        {
          "duration": 0.10204075000001467,
          "durationTicks": 96,
          "midi": 47,
          "name": "B2",
          "ticks": 124032,
          "time": 131.836649,
          "velocity": 0.3937007874015748
        },
        {
          "duration": 0.10204075000001467,
          "durationTicks": 96,
          "midi": 54,
          "name": "F#3",
          "ticks": 124224,
          "time": 132.0407305,
          "velocity": 0.3937007874015748
        },
        {
          "duration": 0.10204075000001467,
          "durationTicks": 96,
          "midi": 70,
          "name": "A#4",
          "ticks": 124224,
          "time": 132.0407305,
          "velocity": 0.3937007874015748
        },
        {
          "duration": 0.10204075000001467,
          "durationTicks": 96,
          "midi": 49,
          "name": "C#3",
          "ticks": 124416,
          "time": 132.244812,
          "velocity": 0.3937007874015748
        },
        {
          "duration": 0.10204075000001467,
          "durationTicks": 96,
          "midi": 73,
          "name": "C#5",
          "ticks": 124416,
          "time": 132.244812,
          "velocity": 0.3937007874015748
        },
        {
          "duration": 0.10204075000001467,
          "durationTicks": 96,
          "midi": 56,
          "name": "G#3",
          "ticks": 124608,
          "time": 132.4488935,
          "velocity": 0.3937007874015748
        },
        {
          "duration": 0.10204075000001467,
          "durationTicks": 96,
          "midi": 75,
          "name": "D#5",
          "ticks": 124608,
          "time": 132.4488935,
          "velocity": 0.3937007874015748
        },
        {
          "duration": 0.10204075000001467,
          "durationTicks": 96,
          "midi": 70,
          "name": "A#4",
          "ticks": 124800,
          "time": 132.652975,
          "velocity": 0.3937007874015748
        },
        {
          "duration": 0.10204075000001467,
          "durationTicks": 96,
          "midi": 49,
          "name": "C#3",
          "ticks": 124800,
          "time": 132.652975,
          "velocity": 0.3937007874015748
        },
        {
          "duration": 0.10204075000001467,
          "durationTicks": 96,
          "midi": 68,
          "name": "G#4",
          "ticks": 124992,
          "time": 132.8570565,
          "velocity": 0.3937007874015748
        },
        {
          "duration": 0.10204075000001467,
          "durationTicks": 96,
          "midi": 56,
          "name": "G#3",
          "ticks": 124992,
          "time": 132.8570565,
          "velocity": 0.3937007874015748
        },
        {
          "duration": 0.10204074999998625,
          "durationTicks": 96,
          "midi": 70,
          "name": "A#4",
          "ticks": 125184,
          "time": 133.061138,
          "velocity": 0.3937007874015748
        },
        {
          "duration": 0.10204074999998625,
          "durationTicks": 96,
          "midi": 49,
          "name": "C#3",
          "ticks": 125184,
          "time": 133.061138,
          "velocity": 0.3937007874015748
        },
        {
          "duration": 0.10204074999998625,
          "durationTicks": 96,
          "midi": 56,
          "name": "G#3",
          "ticks": 125376,
          "time": 133.2652195,
          "velocity": 0.3937007874015748
        },
        {
          "duration": 0.10204075000001467,
          "durationTicks": 96,
          "midi": 70,
          "name": "A#4",
          "ticks": 125472,
          "time": 133.36726025,
          "velocity": 0.3937007874015748
        },
        {
          "duration": 0.10204074999998625,
          "durationTicks": 96,
          "midi": 68,
          "name": "G#4",
          "ticks": 125568,
          "time": 133.469301,
          "velocity": 0.3937007874015748
        },
        {
          "duration": 0.10204074999998625,
          "durationTicks": 96,
          "midi": 49,
          "name": "C#3",
          "ticks": 125568,
          "time": 133.469301,
          "velocity": 0.3937007874015748
        },
        {
          "duration": 0.10204074999998625,
          "durationTicks": 96,
          "midi": 70,
          "name": "A#4",
          "ticks": 125760,
          "time": 133.6733825,
          "velocity": 0.3937007874015748
        },
        {
          "duration": 0.10204074999998625,
          "durationTicks": 96,
          "midi": 56,
          "name": "G#3",
          "ticks": 125760,
          "time": 133.6733825,
          "velocity": 0.3937007874015748
        },
        {
          "duration": 0.10204074999998625,
          "durationTicks": 96,
          "midi": 51,
          "name": "D#3",
          "ticks": 125952,
          "time": 133.877464,
          "velocity": 0.3937007874015748
        },
        {
          "duration": 0.10204074999998625,
          "durationTicks": 96,
          "midi": 68,
          "name": "G#4",
          "ticks": 125952,
          "time": 133.877464,
          "velocity": 0.3937007874015748
        },
        {
          "duration": 0.10204074999998625,
          "durationTicks": 96,
          "midi": 58,
          "name": "A#3",
          "ticks": 126144,
          "time": 134.0815455,
          "velocity": 0.3937007874015748
        },
        {
          "duration": 0.10204074999998625,
          "durationTicks": 96,
          "midi": 66,
          "name": "F#4",
          "ticks": 126144,
          "time": 134.0815455,
          "velocity": 0.3937007874015748
        },
        {
          "duration": 0.10204074999998625,
          "durationTicks": 96,
          "midi": 51,
          "name": "D#3",
          "ticks": 126336,
          "time": 134.285627,
          "velocity": 0.3937007874015748
        },
        {
          "duration": 0.10204074999998625,
          "durationTicks": 96,
          "midi": 65,
          "name": "F4",
          "ticks": 126336,
          "time": 134.285627,
          "velocity": 0.3937007874015748
        },
        {
          "duration": 0.10204074999998625,
          "durationTicks": 96,
          "midi": 61,
          "name": "C#4",
          "ticks": 126528,
          "time": 134.4897085,
          "velocity": 0.3937007874015748
        },
        {
          "duration": 0.10204074999998625,
          "durationTicks": 96,
          "midi": 58,
          "name": "A#3",
          "ticks": 126528,
          "time": 134.4897085,
          "velocity": 0.3937007874015748
        },
        {
          "duration": 0.10204074999998625,
          "durationTicks": 96,
          "midi": 51,
          "name": "D#3",
          "ticks": 126720,
          "time": 134.69379,
          "velocity": 0.3937007874015748
        },
        {
          "duration": 0.10204074999998625,
          "durationTicks": 96,
          "midi": 63,
          "name": "D#4",
          "ticks": 126720,
          "time": 134.69379,
          "velocity": 0.3937007874015748
        },
        {
          "duration": 0.10204074999998625,
          "durationTicks": 96,
          "midi": 58,
          "name": "A#3",
          "ticks": 126912,
          "time": 134.8978715,
          "velocity": 0.3937007874015748
        },
        {
          "duration": 0.10204075000001467,
          "durationTicks": 96,
          "midi": 63,
          "name": "D#4",
          "ticks": 127008,
          "time": 134.99991225,
          "velocity": 0.3937007874015748
        },
        {
          "duration": 0.10204074999998625,
          "durationTicks": 96,
          "midi": 61,
          "name": "C#4",
          "ticks": 127104,
          "time": 135.101953,
          "velocity": 0.3937007874015748
        },
        {
          "duration": 0.10204074999998625,
          "durationTicks": 96,
          "midi": 51,
          "name": "D#3",
          "ticks": 127104,
          "time": 135.101953,
          "velocity": 0.3937007874015748
        },
        {
          "duration": 0.10204074999998625,
          "durationTicks": 96,
          "midi": 58,
          "name": "A#3",
          "ticks": 127296,
          "time": 135.3060345,
          "velocity": 0.3937007874015748
        },
        {
          "duration": 0.10204074999998625,
          "durationTicks": 96,
          "midi": 63,
          "name": "D#4",
          "ticks": 127296,
          "time": 135.3060345,
          "velocity": 0.3937007874015748
        },
        {
          "duration": 0.10204074999998625,
          "durationTicks": 96,
          "midi": 65,
          "name": "F4",
          "ticks": 127488,
          "time": 135.510116,
          "velocity": 0.3937007874015748
        },
        {
          "duration": 0.10204074999998625,
          "durationTicks": 96,
          "midi": 51,
          "name": "D#3",
          "ticks": 127488,
          "time": 135.510116,
          "velocity": 0.3937007874015748
        },
        {
          "duration": 0.10204074999998625,
          "durationTicks": 96,
          "midi": 58,
          "name": "A#3",
          "ticks": 127680,
          "time": 135.7141975,
          "velocity": 0.3937007874015748
        },
        {
          "duration": 0.10204074999998625,
          "durationTicks": 96,
          "midi": 66,
          "name": "F#4",
          "ticks": 127680,
          "time": 135.7141975,
          "velocity": 0.3937007874015748
        },
        {
          "duration": 0.10204074999998625,
          "durationTicks": 96,
          "midi": 68,
          "name": "G#4",
          "ticks": 127872,
          "time": 135.918279,
          "velocity": 0.3937007874015748
        },
        {
          "duration": 0.10204074999998625,
          "durationTicks": 96,
          "midi": 51,
          "name": "D#3",
          "ticks": 127872,
          "time": 135.918279,
          "velocity": 0.3937007874015748
        },
        {
          "duration": 0.10204074999998625,
          "durationTicks": 96,
          "midi": 70,
          "name": "A#4",
          "ticks": 128064,
          "time": 136.1223605,
          "velocity": 0.3937007874015748
        },
        {
          "duration": 0.10204074999998625,
          "durationTicks": 96,
          "midi": 58,
          "name": "A#3",
          "ticks": 128064,
          "time": 136.1223605,
          "velocity": 0.3937007874015748
        },
        {
          "duration": 0.10204075000001467,
          "durationTicks": 96,
          "midi": 51,
          "name": "D#3",
          "ticks": 128256,
          "time": 136.326442,
          "velocity": 0.3937007874015748
        },
        {
          "duration": 0.10204075000001467,
          "durationTicks": 96,
          "midi": 63,
          "name": "D#4",
          "ticks": 128256,
          "time": 136.326442,
          "velocity": 0.3937007874015748
        },
        {
          "duration": 0.10204075000001467,
          "durationTicks": 96,
          "midi": 58,
          "name": "A#3",
          "ticks": 128448,
          "time": 136.5305235,
          "velocity": 0.3937007874015748
        },
        {
          "duration": 0.10204074999998625,
          "durationTicks": 96,
          "midi": 63,
          "name": "D#4",
          "ticks": 128544,
          "time": 136.63256425,
          "velocity": 0.3937007874015748
        },
        {
          "duration": 0.10204075000001467,
          "durationTicks": 96,
          "midi": 51,
          "name": "D#3",
          "ticks": 128640,
          "time": 136.734605,
          "velocity": 0.3937007874015748
        },
        {
          "duration": 0.10204075000001467,
          "durationTicks": 96,
          "midi": 70,
          "name": "A#4",
          "ticks": 128640,
          "time": 136.734605,
          "velocity": 0.3937007874015748
        },
        {
          "duration": 0.10204075000001467,
          "durationTicks": 96,
          "midi": 73,
          "name": "C#5",
          "ticks": 128832,
          "time": 136.9386865,
          "velocity": 0.3937007874015748
        },
        {
          "duration": 0.10204075000001467,
          "durationTicks": 96,
          "midi": 58,
          "name": "A#3",
          "ticks": 128832,
          "time": 136.9386865,
          "velocity": 0.3937007874015748
        },
        {
          "duration": 0.10204075000001467,
          "durationTicks": 96,
          "midi": 73,
          "name": "C#5",
          "ticks": 129024,
          "time": 137.142768,
          "velocity": 0.3937007874015748
        },
        {
          "duration": 0.10204075000001467,
          "durationTicks": 96,
          "midi": 47,
          "name": "B2",
          "ticks": 129024,
          "time": 137.142768,
          "velocity": 0.3937007874015748
        },
        {
          "duration": 0.10204075000001467,
          "durationTicks": 96,
          "midi": 54,
          "name": "F#3",
          "ticks": 129216,
          "time": 137.3468495,
          "velocity": 0.3937007874015748
        },
        {
          "duration": 0.10204075000001467,
          "durationTicks": 96,
          "midi": 75,
          "name": "D#5",
          "ticks": 129216,
          "time": 137.3468495,
          "velocity": 0.3937007874015748
        },
        {
          "duration": 0.10204075000001467,
          "durationTicks": 96,
          "midi": 70,
          "name": "A#4",
          "ticks": 129408,
          "time": 137.550931,
          "velocity": 0.3937007874015748
        },
        {
          "duration": 0.10204075000001467,
          "durationTicks": 96,
          "midi": 47,
          "name": "B2",
          "ticks": 129408,
          "time": 137.550931,
          "velocity": 0.3937007874015748
        },
        {
          "duration": 0.10204075000001467,
          "durationTicks": 96,
          "midi": 68,
          "name": "G#4",
          "ticks": 129600,
          "time": 137.7550125,
          "velocity": 0.3937007874015748
        },
        {
          "duration": 0.10204075000001467,
          "durationTicks": 96,
          "midi": 54,
          "name": "F#3",
          "ticks": 129600,
          "time": 137.7550125,
          "velocity": 0.3937007874015748
        },
        {
          "duration": 0.10204075000001467,
          "durationTicks": 96,
          "midi": 70,
          "name": "A#4",
          "ticks": 129792,
          "time": 137.959094,
          "velocity": 0.3937007874015748
        },
        {
          "duration": 0.10204075000001467,
          "durationTicks": 96,
          "midi": 47,
          "name": "B2",
          "ticks": 129792,
          "time": 137.959094,
          "velocity": 0.3937007874015748
        },
        {
          "duration": 0.10204075000001467,
          "durationTicks": 96,
          "midi": 54,
          "name": "F#3",
          "ticks": 129984,
          "time": 138.1631755,
          "velocity": 0.3937007874015748
        },
        {
          "duration": 0.10204074999998625,
          "durationTicks": 96,
          "midi": 70,
          "name": "A#4",
          "ticks": 130080,
          "time": 138.26521625,
          "velocity": 0.3937007874015748
        },
        {
          "duration": 0.10204075000001467,
          "durationTicks": 96,
          "midi": 47,
          "name": "B2",
          "ticks": 130176,
          "time": 138.367257,
          "velocity": 0.3937007874015748
        },
        {
          "duration": 0.10204075000001467,
          "durationTicks": 96,
          "midi": 68,
          "name": "G#4",
          "ticks": 130176,
          "time": 138.367257,
          "velocity": 0.3937007874015748
        },
        {
          "duration": 0.10204075000001467,
          "durationTicks": 96,
          "midi": 54,
          "name": "F#3",
          "ticks": 130368,
          "time": 138.5713385,
          "velocity": 0.3937007874015748
        },
        {
          "duration": 0.10204075000001467,
          "durationTicks": 96,
          "midi": 70,
          "name": "A#4",
          "ticks": 130368,
          "time": 138.5713385,
          "velocity": 0.3937007874015748
        },
        {
          "duration": 0.10204075000001467,
          "durationTicks": 96,
          "midi": 49,
          "name": "C#3",
          "ticks": 130560,
          "time": 138.77542,
          "velocity": 0.3937007874015748
        },
        {
          "duration": 0.10204075000001467,
          "durationTicks": 96,
          "midi": 73,
          "name": "C#5",
          "ticks": 130560,
          "time": 138.77542,
          "velocity": 0.3937007874015748
        },
        {
          "duration": 0.10204075000001467,
          "durationTicks": 96,
          "midi": 75,
          "name": "D#5",
          "ticks": 130752,
          "time": 138.9795015,
          "velocity": 0.3937007874015748
        },
        {
          "duration": 0.10204075000001467,
          "durationTicks": 96,
          "midi": 56,
          "name": "G#3",
          "ticks": 130752,
          "time": 138.9795015,
          "velocity": 0.3937007874015748
        },
        {
          "duration": 0.10204075000001467,
          "durationTicks": 96,
          "midi": 70,
          "name": "A#4",
          "ticks": 130944,
          "time": 139.183583,
          "velocity": 0.3937007874015748
        },
        {
          "duration": 0.10204075000001467,
          "durationTicks": 96,
          "midi": 49,
          "name": "C#3",
          "ticks": 130944,
          "time": 139.183583,
          "velocity": 0.3937007874015748
        },
        {
          "duration": 0.10204074999998625,
          "durationTicks": 96,
          "midi": 56,
          "name": "G#3",
          "ticks": 131136,
          "time": 139.3876645,
          "velocity": 0.3937007874015748
        },
        {
          "duration": 0.10204074999998625,
          "durationTicks": 96,
          "midi": 68,
          "name": "G#4",
          "ticks": 131136,
          "time": 139.3876645,
          "velocity": 0.3937007874015748
        },
        {
          "duration": 0.10204074999998625,
          "durationTicks": 96,
          "midi": 70,
          "name": "A#4",
          "ticks": 131328,
          "time": 139.591746,
          "velocity": 0.3937007874015748
        },
        {
          "duration": 0.10204074999998625,
          "durationTicks": 96,
          "midi": 49,
          "name": "C#3",
          "ticks": 131328,
          "time": 139.591746,
          "velocity": 0.3937007874015748
        },
        {
          "duration": 0.10204074999998625,
          "durationTicks": 96,
          "midi": 56,
          "name": "G#3",
          "ticks": 131520,
          "time": 139.7958275,
          "velocity": 0.3937007874015748
        },
        {
          "duration": 0.10204075000001467,
          "durationTicks": 96,
          "midi": 70,
          "name": "A#4",
          "ticks": 131616,
          "time": 139.89786825,
          "velocity": 0.3937007874015748
        },
        {
          "duration": 0.10204074999998625,
          "durationTicks": 96,
          "midi": 75,
          "name": "D#5",
          "ticks": 131712,
          "time": 139.999909,
          "velocity": 0.3937007874015748
        },
        {
          "duration": 0.10204074999998625,
          "durationTicks": 96,
          "midi": 49,
          "name": "C#3",
          "ticks": 131712,
          "time": 139.999909,
          "velocity": 0.3937007874015748
        },
        {
          "duration": 0.10204074999998625,
          "durationTicks": 96,
          "midi": 77,
          "name": "F5",
          "ticks": 131904,
          "time": 140.2039905,
          "velocity": 0.3937007874015748
        },
        {
          "duration": 0.10204074999998625,
          "durationTicks": 96,
          "midi": 56,
          "name": "G#3",
          "ticks": 131904,
          "time": 140.2039905,
          "velocity": 0.3937007874015748
        },
        {
          "duration": 0.10204074999998625,
          "durationTicks": 96,
          "midi": 51,
          "name": "D#3",
          "ticks": 132096,
          "time": 140.408072,
          "velocity": 0.3937007874015748
        },
        {
          "duration": 0.10204074999998625,
          "durationTicks": 96,
          "midi": 78,
          "name": "F#5",
          "ticks": 132096,
          "time": 140.408072,
          "velocity": 0.3937007874015748
        },
        {
          "duration": 0.10204074999998625,
          "durationTicks": 96,
          "midi": 77,
          "name": "F5",
          "ticks": 132288,
          "time": 140.6121535,
          "velocity": 0.3937007874015748
        },
        {
          "duration": 0.10204074999998625,
          "durationTicks": 96,
          "midi": 58,
          "name": "A#3",
          "ticks": 132288,
          "time": 140.6121535,
          "velocity": 0.3937007874015748
        },
        {
          "duration": 0.10204074999998625,
          "durationTicks": 96,
          "midi": 75,
          "name": "D#5",
          "ticks": 132480,
          "time": 140.816235,
          "velocity": 0.3937007874015748
        },
        {
          "duration": 0.10204074999998625,
          "durationTicks": 96,
          "midi": 51,
          "name": "D#3",
          "ticks": 132480,
          "time": 140.816235,
          "velocity": 0.3937007874015748
        },
        {
          "duration": 0.10204074999998625,
          "durationTicks": 96,
          "midi": 58,
          "name": "A#3",
          "ticks": 132672,
          "time": 141.0203165,
          "velocity": 0.3937007874015748
        },
        {
          "duration": 0.10204074999998625,
          "durationTicks": 96,
          "midi": 73,
          "name": "C#5",
          "ticks": 132672,
          "time": 141.0203165,
          "velocity": 0.3937007874015748
        },
        {
          "duration": 0.10204074999998625,
          "durationTicks": 96,
          "midi": 51,
          "name": "D#3",
          "ticks": 132864,
          "time": 141.224398,
          "velocity": 0.3937007874015748
        },
        {
          "duration": 0.10204074999998625,
          "durationTicks": 96,
          "midi": 70,
          "name": "A#4",
          "ticks": 132864,
          "time": 141.224398,
          "velocity": 0.3937007874015748
        },
        {
          "duration": 0.10204074999998625,
          "durationTicks": 96,
          "midi": 58,
          "name": "A#3",
          "ticks": 133056,
          "time": 141.4284795,
          "velocity": 0.3937007874015748
        },
        {
          "duration": 0.10204075000001467,
          "durationTicks": 96,
          "midi": 70,
          "name": "A#4",
          "ticks": 133152,
          "time": 141.53052025,
          "velocity": 0.3937007874015748
        },
        {
          "duration": 0.10204074999998625,
          "durationTicks": 96,
          "midi": 51,
          "name": "D#3",
          "ticks": 133248,
          "time": 141.632561,
          "velocity": 0.3937007874015748
        },
        {
          "duration": 0.10204074999998625,
          "durationTicks": 96,
          "midi": 68,
          "name": "G#4",
          "ticks": 133248,
          "time": 141.632561,
          "velocity": 0.3937007874015748
        },
        {
          "duration": 0.10204074999998625,
          "durationTicks": 96,
          "midi": 58,
          "name": "A#3",
          "ticks": 133440,
          "time": 141.8366425,
          "velocity": 0.3937007874015748
        },
        {
          "duration": 0.10204074999998625,
          "durationTicks": 96,
          "midi": 70,
          "name": "A#4",
          "ticks": 133440,
          "time": 141.8366425,
          "velocity": 0.3937007874015748
        },
        {
          "duration": 0.10204074999998625,
          "durationTicks": 96,
          "midi": 68,
          "name": "G#4",
          "ticks": 133632,
          "time": 142.040724,
          "velocity": 0.3937007874015748
        },
        {
          "duration": 0.10204074999998625,
          "durationTicks": 96,
          "midi": 51,
          "name": "D#3",
          "ticks": 133632,
          "time": 142.040724,
          "velocity": 0.3937007874015748
        },
        {
          "duration": 0.10204074999998625,
          "durationTicks": 96,
          "midi": 58,
          "name": "A#3",
          "ticks": 133824,
          "time": 142.2448055,
          "velocity": 0.3937007874015748
        },
        {
          "duration": 0.10204074999998625,
          "durationTicks": 96,
          "midi": 66,
          "name": "F#4",
          "ticks": 133824,
          "time": 142.2448055,
          "velocity": 0.3937007874015748
        },
        {
          "duration": 0.10204074999998625,
          "durationTicks": 96,
          "midi": 51,
          "name": "D#3",
          "ticks": 134016,
          "time": 142.448887,
          "velocity": 0.3937007874015748
        },
        {
          "duration": 0.10204074999998625,
          "durationTicks": 96,
          "midi": 65,
          "name": "F4",
          "ticks": 134016,
          "time": 142.448887,
          "velocity": 0.3937007874015748
        },
        {
          "duration": 0.10204075000001467,
          "durationTicks": 96,
          "midi": 61,
          "name": "C#4",
          "ticks": 134208,
          "time": 142.6529685,
          "velocity": 0.3937007874015748
        },
        {
          "duration": 0.10204075000001467,
          "durationTicks": 96,
          "midi": 58,
          "name": "A#3",
          "ticks": 134208,
          "time": 142.6529685,
          "velocity": 0.3937007874015748
        },
        {
          "duration": 0.10204075000001467,
          "durationTicks": 96,
          "midi": 63,
          "name": "D#4",
          "ticks": 134400,
          "time": 142.85705,
          "velocity": 0.3937007874015748
        },
        {
          "duration": 0.10204075000001467,
          "durationTicks": 96,
          "midi": 51,
          "name": "D#3",
          "ticks": 134400,
          "time": 142.85705,
          "velocity": 0.3937007874015748
        },
        {
          "duration": 0.10204075000001467,
          "durationTicks": 96,
          "midi": 58,
          "name": "A#3",
          "ticks": 134592,
          "time": 143.0611315,
          "velocity": 0.3937007874015748
        },
        {
          "duration": 0.10204074999998625,
          "durationTicks": 96,
          "midi": 63,
          "name": "D#4",
          "ticks": 134688,
          "time": 143.16317225,
          "velocity": 0.3937007874015748
        },
        {
          "duration": 0.10204075000001467,
          "durationTicks": 96,
          "midi": 52,
          "name": "E3",
          "ticks": 134784,
          "time": 143.265213,
          "velocity": 0.3937007874015748
        },
        {
          "duration": 0.10204075000001467,
          "durationTicks": 96,
          "midi": 71,
          "name": "B4",
          "ticks": 134784,
          "time": 143.265213,
          "velocity": 0.3937007874015748
        },
        {
          "duration": 0.10204075000001467,
          "durationTicks": 96,
          "midi": 59,
          "name": "B3",
          "ticks": 134976,
          "time": 143.4692945,
          "velocity": 0.3937007874015748
        },
        {
          "duration": 0.10204075000001467,
          "durationTicks": 96,
          "midi": 74,
          "name": "D5",
          "ticks": 134976,
          "time": 143.4692945,
          "velocity": 0.3937007874015748
        },
        {
          "duration": 0.10204075000001467,
          "durationTicks": 96,
          "midi": 74,
          "name": "D5",
          "ticks": 135168,
          "time": 143.673376,
          "velocity": 0.3937007874015748
        },
        {
          "duration": 0.10204075000001467,
          "durationTicks": 96,
          "midi": 48,
          "name": "C3",
          "ticks": 135168,
          "time": 143.673376,
          "velocity": 0.3937007874015748
        },
        {
          "duration": 0.10204075000001467,
          "durationTicks": 96,
          "midi": 76,
          "name": "E5",
          "ticks": 135360,
          "time": 143.8774575,
          "velocity": 0.3937007874015748
        },
        {
          "duration": 0.10204075000001467,
          "durationTicks": 96,
          "midi": 55,
          "name": "G3",
          "ticks": 135360,
          "time": 143.8774575,
          "velocity": 0.3937007874015748
        },
        {
          "duration": 0.10204075000001467,
          "durationTicks": 96,
          "midi": 71,
          "name": "B4",
          "ticks": 135552,
          "time": 144.081539,
          "velocity": 0.3937007874015748
        },
        {
          "duration": 0.10204075000001467,
          "durationTicks": 96,
          "midi": 48,
          "name": "C3",
          "ticks": 135552,
          "time": 144.081539,
          "velocity": 0.3937007874015748
        },
        {
          "duration": 0.10204075000001467,
          "durationTicks": 96,
          "midi": 55,
          "name": "G3",
          "ticks": 135744,
          "time": 144.2856205,
          "velocity": 0.3937007874015748
        },
        {
          "duration": 0.10204075000001467,
          "durationTicks": 96,
          "midi": 69,
          "name": "A4",
          "ticks": 135744,
          "time": 144.2856205,
          "velocity": 0.3937007874015748
        },
        {
          "duration": 0.10204075000001467,
          "durationTicks": 96,
          "midi": 48,
          "name": "C3",
          "ticks": 135936,
          "time": 144.489702,
          "velocity": 0.3937007874015748
        },
        {
          "duration": 0.10204075000001467,
          "durationTicks": 96,
          "midi": 71,
          "name": "B4",
          "ticks": 135936,
          "time": 144.489702,
          "velocity": 0.3937007874015748
        },
        {
          "duration": 0.10204075000001467,
          "durationTicks": 96,
          "midi": 55,
          "name": "G3",
          "ticks": 136128,
          "time": 144.6937835,
          "velocity": 0.3937007874015748
        },
        {
          "duration": 0.10204074999998625,
          "durationTicks": 96,
          "midi": 71,
          "name": "B4",
          "ticks": 136224,
          "time": 144.79582425,
          "velocity": 0.3937007874015748
        },
        {
          "duration": 0.10204075000001467,
          "durationTicks": 96,
          "midi": 69,
          "name": "A4",
          "ticks": 136320,
          "time": 144.897865,
          "velocity": 0.3937007874015748
        },
        {
          "duration": 0.10204075000001467,
          "durationTicks": 96,
          "midi": 48,
          "name": "C3",
          "ticks": 136320,
          "time": 144.897865,
          "velocity": 0.3937007874015748
        },
        {
          "duration": 0.10204075000001467,
          "durationTicks": 96,
          "midi": 71,
          "name": "B4",
          "ticks": 136512,
          "time": 145.1019465,
          "velocity": 0.3937007874015748
        },
        {
          "duration": 0.10204075000001467,
          "durationTicks": 96,
          "midi": 55,
          "name": "G3",
          "ticks": 136512,
          "time": 145.1019465,
          "velocity": 0.3937007874015748
        },
        {
          "duration": 0.10204075000001467,
          "durationTicks": 96,
          "midi": 74,
          "name": "D5",
          "ticks": 136704,
          "time": 145.306028,
          "velocity": 0.3937007874015748
        },
        {
          "duration": 0.10204075000001467,
          "durationTicks": 96,
          "midi": 50,
          "name": "D3",
          "ticks": 136704,
          "time": 145.306028,
          "velocity": 0.3937007874015748
        },
        {
          "duration": 0.10204075000001467,
          "durationTicks": 96,
          "midi": 57,
          "name": "A3",
          "ticks": 136896,
          "time": 145.5101095,
          "velocity": 0.3937007874015748
        },
        {
          "duration": 0.10204075000001467,
          "durationTicks": 96,
          "midi": 76,
          "name": "E5",
          "ticks": 136896,
          "time": 145.5101095,
          "velocity": 0.3937007874015748
        },
        {
          "duration": 0.10204074999998625,
          "durationTicks": 96,
          "midi": 50,
          "name": "D3",
          "ticks": 137088,
          "time": 145.714191,
          "velocity": 0.3937007874015748
        },
        {
          "duration": 0.10204074999998625,
          "durationTicks": 96,
          "midi": 71,
          "name": "B4",
          "ticks": 137088,
          "time": 145.714191,
          "velocity": 0.3937007874015748
        },
        {
          "duration": 0.10204074999998625,
          "durationTicks": 96,
          "midi": 69,
          "name": "A4",
          "ticks": 137280,
          "time": 145.9182725,
          "velocity": 0.3937007874015748
        },
        {
          "duration": 0.10204074999998625,
          "durationTicks": 96,
          "midi": 57,
          "name": "A3",
          "ticks": 137280,
          "time": 145.9182725,
          "velocity": 0.3937007874015748
        },
        {
          "duration": 0.10204074999998625,
          "durationTicks": 96,
          "midi": 71,
          "name": "B4",
          "ticks": 137472,
          "time": 146.122354,
          "velocity": 0.3937007874015748
        },
        {
          "duration": 0.10204074999998625,
          "durationTicks": 96,
          "midi": 57,
          "name": "A3",
          "ticks": 137664,
          "time": 146.3264355,
          "velocity": 0.3937007874015748
        },
        {
          "duration": 0.10204075000001467,
          "durationTicks": 96,
          "midi": 71,
          "name": "B4",
          "ticks": 137760,
          "time": 146.42847625,
          "velocity": 0.3937007874015748
        },
        {
          "duration": 0.10204074999998625,
          "durationTicks": 96,
          "midi": 50,
          "name": "D3",
          "ticks": 137856,
          "time": 146.530517,
          "velocity": 0.3937007874015748
        },
        {
          "duration": 0.10204074999998625,
          "durationTicks": 96,
          "midi": 69,
          "name": "A4",
          "ticks": 137856,
          "time": 146.530517,
          "velocity": 0.3937007874015748
        },
        {
          "duration": 0.10204074999998625,
          "durationTicks": 96,
          "midi": 57,
          "name": "A3",
          "ticks": 138048,
          "time": 146.7345985,
          "velocity": 0.3937007874015748
        },
        {
          "duration": 0.10204074999998625,
          "durationTicks": 96,
          "midi": 71,
          "name": "B4",
          "ticks": 138048,
          "time": 146.7345985,
          "velocity": 0.3937007874015748
        },
        {
          "duration": 0.10204074999998625,
          "durationTicks": 96,
          "midi": 69,
          "name": "A4",
          "ticks": 138240,
          "time": 146.93868,
          "velocity": 0.3937007874015748
        },
        {
          "duration": 0.10204074999998625,
          "durationTicks": 96,
          "midi": 52,
          "name": "E3",
          "ticks": 138240,
          "time": 146.93868,
          "velocity": 0.3937007874015748
        },
        {
          "duration": 0.10204074999998625,
          "durationTicks": 96,
          "midi": 59,
          "name": "B3",
          "ticks": 138432,
          "time": 147.1427615,
          "velocity": 0.3937007874015748
        },
        {
          "duration": 0.10204074999998625,
          "durationTicks": 96,
          "midi": 67,
          "name": "G4",
          "ticks": 138432,
          "time": 147.1427615,
          "velocity": 0.3937007874015748
        },
        {
          "duration": 0.10204074999998625,
          "durationTicks": 96,
          "midi": 66,
          "name": "F#4",
          "ticks": 138624,
          "time": 147.346843,
          "velocity": 0.3937007874015748
        },
        {
          "duration": 0.10204074999998625,
          "durationTicks": 96,
          "midi": 52,
          "name": "E3",
          "ticks": 138624,
          "time": 147.346843,
          "velocity": 0.3937007874015748
        },
        {
          "duration": 0.10204074999998625,
          "durationTicks": 96,
          "midi": 59,
          "name": "B3",
          "ticks": 138816,
          "time": 147.5509245,
          "velocity": 0.3937007874015748
        },
        {
          "duration": 0.10204074999998625,
          "durationTicks": 96,
          "midi": 62,
          "name": "D4",
          "ticks": 138816,
          "time": 147.5509245,
          "velocity": 0.3937007874015748
        },
        {
          "duration": 0.10204074999998625,
          "durationTicks": 96,
          "midi": 64,
          "name": "E4",
          "ticks": 139008,
          "time": 147.755006,
          "velocity": 0.3937007874015748
        },
        {
          "duration": 0.10204074999998625,
          "durationTicks": 96,
          "midi": 52,
          "name": "E3",
          "ticks": 139008,
          "time": 147.755006,
          "velocity": 0.3937007874015748
        },
        {
          "duration": 0.10204074999998625,
          "durationTicks": 96,
          "midi": 59,
          "name": "B3",
          "ticks": 139200,
          "time": 147.9590875,
          "velocity": 0.3937007874015748
        },
        {
          "duration": 0.10204075000001467,
          "durationTicks": 96,
          "midi": 64,
          "name": "E4",
          "ticks": 139296,
          "time": 148.06112825,
          "velocity": 0.3937007874015748
        },
        {
          "duration": 0.10204074999998625,
          "durationTicks": 96,
          "midi": 52,
          "name": "E3",
          "ticks": 139392,
          "time": 148.163169,
          "velocity": 0.3937007874015748
        },
        {
          "duration": 0.10204074999998625,
          "durationTicks": 96,
          "midi": 62,
          "name": "D4",
          "ticks": 139392,
          "time": 148.163169,
          "velocity": 0.3937007874015748
        },
        {
          "duration": 0.10204074999998625,
          "durationTicks": 96,
          "midi": 64,
          "name": "E4",
          "ticks": 139584,
          "time": 148.3672505,
          "velocity": 0.3937007874015748
        },
        {
          "duration": 0.10204074999998625,
          "durationTicks": 96,
          "midi": 59,
          "name": "B3",
          "ticks": 139584,
          "time": 148.3672505,
          "velocity": 0.3937007874015748
        },
        {
          "duration": 0.10204074999998625,
          "durationTicks": 96,
          "midi": 52,
          "name": "E3",
          "ticks": 139776,
          "time": 148.571332,
          "velocity": 0.3937007874015748
        },
        {
          "duration": 0.10204074999998625,
          "durationTicks": 96,
          "midi": 66,
          "name": "F#4",
          "ticks": 139776,
          "time": 148.571332,
          "velocity": 0.3937007874015748
        },
        {
          "duration": 0.10204074999998625,
          "durationTicks": 96,
          "midi": 59,
          "name": "B3",
          "ticks": 139968,
          "time": 148.7754135,
          "velocity": 0.3937007874015748
        },
        {
          "duration": 0.10204074999998625,
          "durationTicks": 96,
          "midi": 67,
          "name": "G4",
          "ticks": 139968,
          "time": 148.7754135,
          "velocity": 0.3937007874015748
        },
        {
          "duration": 0.10204075000001467,
          "durationTicks": 96,
          "midi": 52,
          "name": "E3",
          "ticks": 140160,
          "time": 148.979495,
          "velocity": 0.3937007874015748
        },
        {
          "duration": 0.10204075000001467,
          "durationTicks": 96,
          "midi": 69,
          "name": "A4",
          "ticks": 140160,
          "time": 148.979495,
          "velocity": 0.3937007874015748
        },
        {
          "duration": 0.10204075000001467,
          "durationTicks": 96,
          "midi": 71,
          "name": "B4",
          "ticks": 140352,
          "time": 149.1835765,
          "velocity": 0.3937007874015748
        },
        {
          "duration": 0.10204075000001467,
          "durationTicks": 96,
          "midi": 59,
          "name": "B3",
          "ticks": 140352,
          "time": 149.1835765,
          "velocity": 0.3937007874015748
        },
        {
          "duration": 0.10204075000001467,
          "durationTicks": 96,
          "midi": 64,
          "name": "E4",
          "ticks": 140544,
          "time": 149.387658,
          "velocity": 0.3937007874015748
        },
        {
          "duration": 0.10204075000001467,
          "durationTicks": 96,
          "midi": 52,
          "name": "E3",
          "ticks": 140544,
          "time": 149.387658,
          "velocity": 0.3937007874015748
        },
        {
          "duration": 0.10204075000001467,
          "durationTicks": 96,
          "midi": 59,
          "name": "B3",
          "ticks": 140736,
          "time": 149.5917395,
          "velocity": 0.3937007874015748
        },
        {
          "duration": 0.10204074999998625,
          "durationTicks": 96,
          "midi": 64,
          "name": "E4",
          "ticks": 140832,
          "time": 149.69378025,
          "velocity": 0.3937007874015748
        },
        {
          "duration": 0.10204075000001467,
          "durationTicks": 96,
          "midi": 71,
          "name": "B4",
          "ticks": 140928,
          "time": 149.795821,
          "velocity": 0.3937007874015748
        },
        {
          "duration": 0.10204075000001467,
          "durationTicks": 96,
          "midi": 52,
          "name": "E3",
          "ticks": 140928,
          "time": 149.795821,
          "velocity": 0.3937007874015748
        },
        {
          "duration": 0.10204075000001467,
          "durationTicks": 96,
          "midi": 74,
          "name": "D5",
          "ticks": 141120,
          "time": 149.9999025,
          "velocity": 0.3937007874015748
        },
        {
          "duration": 0.10204075000001467,
          "durationTicks": 96,
          "midi": 59,
          "name": "B3",
          "ticks": 141120,
          "time": 149.9999025,
          "velocity": 0.3937007874015748
        },
        {
          "duration": 0.10204075000001467,
          "durationTicks": 96,
          "midi": 48,
          "name": "C3",
          "ticks": 141312,
          "time": 150.203984,
          "velocity": 0.3937007874015748
        },
        {
          "duration": 0.10204075000001467,
          "durationTicks": 96,
          "midi": 74,
          "name": "D5",
          "ticks": 141312,
          "time": 150.203984,
          "velocity": 0.3937007874015748
        },
        {
          "duration": 0.10204075000001467,
          "durationTicks": 96,
          "midi": 55,
          "name": "G3",
          "ticks": 141504,
          "time": 150.4080655,
          "velocity": 0.3937007874015748
        },
        {
          "duration": 0.10204075000001467,
          "durationTicks": 96,
          "midi": 76,
          "name": "E5",
          "ticks": 141504,
          "time": 150.4080655,
          "velocity": 0.3937007874015748
        },
        {
          "duration": 0.10204075000001467,
          "durationTicks": 96,
          "midi": 48,
          "name": "C3",
          "ticks": 141696,
          "time": 150.612147,
          "velocity": 0.3937007874015748
        },
        {
          "duration": 0.10204075000001467,
          "durationTicks": 96,
          "midi": 71,
          "name": "B4",
          "ticks": 141696,
          "time": 150.612147,
          "velocity": 0.3937007874015748
        },
        {
          "duration": 0.10204075000001467,
          "durationTicks": 96,
          "midi": 55,
          "name": "G3",
          "ticks": 141888,
          "time": 150.8162285,
          "velocity": 0.3937007874015748
        },
        {
          "duration": 0.10204075000001467,
          "durationTicks": 96,
          "midi": 69,
          "name": "A4",
          "ticks": 141888,
          "time": 150.8162285,
          "velocity": 0.3937007874015748
        },
        {
          "duration": 0.10204075000001467,
          "durationTicks": 96,
          "midi": 71,
          "name": "B4",
          "ticks": 142080,
          "time": 151.02031,
          "velocity": 0.3937007874015748
        },
        {
          "duration": 0.10204075000001467,
          "durationTicks": 96,
          "midi": 48,
          "name": "C3",
          "ticks": 142080,
          "time": 151.02031,
          "velocity": 0.3937007874015748
        },
        {
          "duration": 0.10204075000001467,
          "durationTicks": 96,
          "midi": 55,
          "name": "G3",
          "ticks": 142272,
          "time": 151.2243915,
          "velocity": 0.3937007874015748
        },
        {
          "duration": 0.10204074999998625,
          "durationTicks": 96,
          "midi": 71,
          "name": "B4",
          "ticks": 142368,
          "time": 151.32643225,
          "velocity": 0.3937007874015748
        },
        {
          "duration": 0.10204075000001467,
          "durationTicks": 96,
          "midi": 69,
          "name": "A4",
          "ticks": 142464,
          "time": 151.428473,
          "velocity": 0.3937007874015748
        },
        {
          "duration": 0.10204075000001467,
          "durationTicks": 96,
          "midi": 48,
          "name": "C3",
          "ticks": 142464,
          "time": 151.428473,
          "velocity": 0.3937007874015748
        },
        {
          "duration": 0.10204075000001467,
          "durationTicks": 96,
          "midi": 55,
          "name": "G3",
          "ticks": 142656,
          "time": 151.6325545,
          "velocity": 0.3937007874015748
        },
        {
          "duration": 0.10204075000001467,
          "durationTicks": 96,
          "midi": 71,
          "name": "B4",
          "ticks": 142656,
          "time": 151.6325545,
          "velocity": 0.3937007874015748
        },
        {
          "duration": 0.10204075000001467,
          "durationTicks": 96,
          "midi": 74,
          "name": "D5",
          "ticks": 142848,
          "time": 151.836636,
          "velocity": 0.3937007874015748
        },
        {
          "duration": 0.10204075000001467,
          "durationTicks": 96,
          "midi": 50,
          "name": "D3",
          "ticks": 142848,
          "time": 151.836636,
          "velocity": 0.3937007874015748
        },
        {
          "duration": 0.10204074999998625,
          "durationTicks": 96,
          "midi": 76,
          "name": "E5",
          "ticks": 143040,
          "time": 152.0407175,
          "velocity": 0.3937007874015748
        },
        {
          "duration": 0.10204074999998625,
          "durationTicks": 96,
          "midi": 57,
          "name": "A3",
          "ticks": 143040,
          "time": 152.0407175,
          "velocity": 0.3937007874015748
        },
        {
          "duration": 0.10204074999998625,
          "durationTicks": 96,
          "midi": 71,
          "name": "B4",
          "ticks": 143232,
          "time": 152.244799,
          "velocity": 0.3937007874015748
        },
        {
          "duration": 0.10204074999998625,
          "durationTicks": 96,
          "midi": 69,
          "name": "A4",
          "ticks": 143424,
          "time": 152.4488805,
          "velocity": 0.3937007874015748
        },
        {
          "duration": 0.10204074999998625,
          "durationTicks": 96,
          "midi": 57,
          "name": "A3",
          "ticks": 143424,
          "time": 152.4488805,
          "velocity": 0.3937007874015748
        },
        {
          "duration": 0.10204074999998625,
          "durationTicks": 96,
          "midi": 71,
          "name": "B4",
          "ticks": 143616,
          "time": 152.652962,
          "velocity": 0.3937007874015748
        },
        {
          "duration": 0.10204074999998625,
          "durationTicks": 96,
          "midi": 50,
          "name": "D3",
          "ticks": 143616,
          "time": 152.652962,
          "velocity": 0.3937007874015748
        },
        {
          "duration": 0.10204074999998625,
          "durationTicks": 96,
          "midi": 57,
          "name": "A3",
          "ticks": 143808,
          "time": 152.8570435,
          "velocity": 0.3937007874015748
        },
        {
          "duration": 0.10204075000001467,
          "durationTicks": 96,
          "midi": 71,
          "name": "B4",
          "ticks": 143904,
          "time": 152.95908425,
          "velocity": 0.3937007874015748
        },
        {
          "duration": 0.10204074999998625,
          "durationTicks": 96,
          "midi": 69,
          "name": "A4",
          "ticks": 144000,
          "time": 153.061125,
          "velocity": 0.3937007874015748
        },
        {
          "duration": 0.10204074999998625,
          "durationTicks": 96,
          "midi": 50,
          "name": "D3",
          "ticks": 144000,
          "time": 153.061125,
          "velocity": 0.3937007874015748
        },
        {
          "duration": 0.10204074999998625,
          "durationTicks": 96,
          "midi": 71,
          "name": "B4",
          "ticks": 144192,
          "time": 153.2652065,
          "velocity": 0.3937007874015748
        },
        {
          "duration": 0.10204074999998625,
          "durationTicks": 96,
          "midi": 57,
          "name": "A3",
          "ticks": 144192,
          "time": 153.2652065,
          "velocity": 0.3937007874015748
        },
        {
          "duration": 0.10204074999998625,
          "durationTicks": 96,
          "midi": 69,
          "name": "A4",
          "ticks": 144384,
          "time": 153.469288,
          "velocity": 0.3937007874015748
        },
        {
          "duration": 0.10204074999998625,
          "durationTicks": 96,
          "midi": 52,
          "name": "E3",
          "ticks": 144384,
          "time": 153.469288,
          "velocity": 0.3937007874015748
        },
        {
          "duration": 0.10204074999998625,
          "durationTicks": 96,
          "midi": 67,
          "name": "G4",
          "ticks": 144576,
          "time": 153.6733695,
          "velocity": 0.3937007874015748
        },
        {
          "duration": 0.10204074999998625,
          "durationTicks": 96,
          "midi": 59,
          "name": "B3",
          "ticks": 144576,
          "time": 153.6733695,
          "velocity": 0.3937007874015748
        },
        {
          "duration": 0.10204074999998625,
          "durationTicks": 96,
          "midi": 66,
          "name": "F#4",
          "ticks": 144768,
          "time": 153.877451,
          "velocity": 0.3937007874015748
        },
        {
          "duration": 0.10204074999998625,
          "durationTicks": 96,
          "midi": 52,
          "name": "E3",
          "ticks": 144768,
          "time": 153.877451,
          "velocity": 0.3937007874015748
        },
        {
          "duration": 0.10204074999998625,
          "durationTicks": 96,
          "midi": 59,
          "name": "B3",
          "ticks": 144960,
          "time": 154.0815325,
          "velocity": 0.3937007874015748
        },
        {
          "duration": 0.10204074999998625,
          "durationTicks": 96,
          "midi": 62,
          "name": "D4",
          "ticks": 144960,
          "time": 154.0815325,
          "velocity": 0.3937007874015748
        },
        {
          "duration": 0.10204074999998625,
          "durationTicks": 96,
          "midi": 52,
          "name": "E3",
          "ticks": 145152,
          "time": 154.285614,
          "velocity": 0.3937007874015748
        },
        {
          "duration": 0.10204074999998625,
          "durationTicks": 96,
          "midi": 64,
          "name": "E4",
          "ticks": 145152,
          "time": 154.285614,
          "velocity": 0.3937007874015748
        },
        {
          "duration": 0.10204074999998625,
          "durationTicks": 96,
          "midi": 59,
          "name": "B3",
          "ticks": 145344,
          "time": 154.4896955,
          "velocity": 0.3937007874015748
        },
        {
          "duration": 0.10204075000001467,
          "durationTicks": 96,
          "midi": 64,
          "name": "E4",
          "ticks": 145440,
          "time": 154.59173625,
          "velocity": 0.3937007874015748
        },
        {
          "duration": 0.10204074999998625,
          "durationTicks": 96,
          "midi": 52,
          "name": "E3",
          "ticks": 145536,
          "time": 154.693777,
          "velocity": 0.3937007874015748
        },
        {
          "duration": 0.10204074999998625,
          "durationTicks": 96,
          "midi": 62,
          "name": "D4",
          "ticks": 145536,
          "time": 154.693777,
          "velocity": 0.3937007874015748
        },
        {
          "duration": 0.10204074999998625,
          "durationTicks": 96,
          "midi": 64,
          "name": "E4",
          "ticks": 145728,
          "time": 154.8978585,
          "velocity": 0.3937007874015748
        },
        {
          "duration": 0.10204074999998625,
          "durationTicks": 96,
          "midi": 59,
          "name": "B3",
          "ticks": 145728,
          "time": 154.8978585,
          "velocity": 0.3937007874015748
        },
        {
          "duration": 0.10204074999998625,
          "durationTicks": 96,
          "midi": 52,
          "name": "E3",
          "ticks": 145920,
          "time": 155.10194,
          "velocity": 0.3937007874015748
        },
        {
          "duration": 0.10204074999998625,
          "durationTicks": 96,
          "midi": 66,
          "name": "F#4",
          "ticks": 145920,
          "time": 155.10194,
          "velocity": 0.3937007874015748
        },
        {
          "duration": 0.10204075000001467,
          "durationTicks": 96,
          "midi": 59,
          "name": "B3",
          "ticks": 146112,
          "time": 155.30602149999999,
          "velocity": 0.3937007874015748
        },
        {
          "duration": 0.10204075000001467,
          "durationTicks": 96,
          "midi": 67,
          "name": "G4",
          "ticks": 146112,
          "time": 155.30602149999999,
          "velocity": 0.3937007874015748
        },
        {
          "duration": 0.10204075000001467,
          "durationTicks": 96,
          "midi": 69,
          "name": "A4",
          "ticks": 146304,
          "time": 155.510103,
          "velocity": 0.3937007874015748
        },
        {
          "duration": 0.10204075000001467,
          "durationTicks": 96,
          "midi": 52,
          "name": "E3",
          "ticks": 146304,
          "time": 155.510103,
          "velocity": 0.3937007874015748
        },
        {
          "duration": 0.10204075000001467,
          "durationTicks": 96,
          "midi": 71,
          "name": "B4",
          "ticks": 146496,
          "time": 155.7141845,
          "velocity": 0.3937007874015748
        },
        {
          "duration": 0.10204075000001467,
          "durationTicks": 96,
          "midi": 59,
          "name": "B3",
          "ticks": 146496,
          "time": 155.7141845,
          "velocity": 0.3937007874015748
        },
        {
          "duration": 0.10204075000001467,
          "durationTicks": 96,
          "midi": 64,
          "name": "E4",
          "ticks": 146688,
          "time": 155.918266,
          "velocity": 0.3937007874015748
        },
        {
          "duration": 0.10204075000001467,
          "durationTicks": 96,
          "midi": 52,
          "name": "E3",
          "ticks": 146688,
          "time": 155.918266,
          "velocity": 0.3937007874015748
        },
        {
          "duration": 0.10204075000001467,
          "durationTicks": 96,
          "midi": 59,
          "name": "B3",
          "ticks": 146880,
          "time": 156.1223475,
          "velocity": 0.3937007874015748
        },
        {
          "duration": 0.10204074999998625,
          "durationTicks": 96,
          "midi": 64,
          "name": "E4",
          "ticks": 146976,
          "time": 156.22438825,
          "velocity": 0.3937007874015748
        },
        {
          "duration": 0.10204075000001467,
          "durationTicks": 96,
          "midi": 71,
          "name": "B4",
          "ticks": 147072,
          "time": 156.326429,
          "velocity": 0.3937007874015748
        },
        {
          "duration": 0.10204075000001467,
          "durationTicks": 96,
          "midi": 52,
          "name": "E3",
          "ticks": 147072,
          "time": 156.326429,
          "velocity": 0.3937007874015748
        },
        {
          "duration": 0.10204075000001467,
          "durationTicks": 96,
          "midi": 74,
          "name": "D5",
          "ticks": 147264,
          "time": 156.5305105,
          "velocity": 0.3937007874015748
        },
        {
          "duration": 0.10204075000001467,
          "durationTicks": 96,
          "midi": 59,
          "name": "B3",
          "ticks": 147264,
          "time": 156.5305105,
          "velocity": 0.3937007874015748
        },
        {
          "duration": 0.10204075000001467,
          "durationTicks": 96,
          "midi": 74,
          "name": "D5",
          "ticks": 147456,
          "time": 156.734592,
          "velocity": 0.3937007874015748
        },
        {
          "duration": 0.10204075000001467,
          "durationTicks": 96,
          "midi": 48,
          "name": "C3",
          "ticks": 147456,
          "time": 156.734592,
          "velocity": 0.3937007874015748
        },
        {
          "duration": 0.10204075000001467,
          "durationTicks": 96,
          "midi": 55,
          "name": "G3",
          "ticks": 147648,
          "time": 156.9386735,
          "velocity": 0.3937007874015748
        },
        {
          "duration": 0.10204075000001467,
          "durationTicks": 96,
          "midi": 76,
          "name": "E5",
          "ticks": 147648,
          "time": 156.9386735,
          "velocity": 0.3937007874015748
        },
        {
          "duration": 0.10204075000001467,
          "durationTicks": 96,
          "midi": 71,
          "name": "B4",
          "ticks": 147840,
          "time": 157.142755,
          "velocity": 0.3937007874015748
        },
        {
          "duration": 0.10204075000001467,
          "durationTicks": 96,
          "midi": 48,
          "name": "C3",
          "ticks": 147840,
          "time": 157.142755,
          "velocity": 0.3937007874015748
        },
        {
          "duration": 0.10204075000001467,
          "durationTicks": 96,
          "midi": 69,
          "name": "A4",
          "ticks": 148032,
          "time": 157.3468365,
          "velocity": 0.3937007874015748
        },
        {
          "duration": 0.10204075000001467,
          "durationTicks": 96,
          "midi": 55,
          "name": "G3",
          "ticks": 148032,
          "time": 157.3468365,
          "velocity": 0.3937007874015748
        },
        {
          "duration": 0.10204075000001467,
          "durationTicks": 96,
          "midi": 71,
          "name": "B4",
          "ticks": 148224,
          "time": 157.550918,
          "velocity": 0.3937007874015748
        },
        {
          "duration": 0.10204075000001467,
          "durationTicks": 96,
          "midi": 48,
          "name": "C3",
          "ticks": 148224,
          "time": 157.550918,
          "velocity": 0.3937007874015748
        },
        {
          "duration": 0.10204075000001467,
          "durationTicks": 96,
          "midi": 55,
          "name": "G3",
          "ticks": 148416,
          "time": 157.7549995,
          "velocity": 0.3937007874015748
        },
        {
          "duration": 0.10204074999998625,
          "durationTicks": 96,
          "midi": 71,
          "name": "B4",
          "ticks": 148512,
          "time": 157.85704025,
          "velocity": 0.3937007874015748
        },
        {
          "duration": 0.10204075000001467,
          "durationTicks": 96,
          "midi": 48,
          "name": "C3",
          "ticks": 148608,
          "time": 157.959081,
          "velocity": 0.3937007874015748
        },
        {
          "duration": 0.10204075000001467,
          "durationTicks": 96,
          "midi": 69,
          "name": "A4",
          "ticks": 148608,
          "time": 157.959081,
          "velocity": 0.3937007874015748
        },
        {
          "duration": 0.10204075000001467,
          "durationTicks": 96,
          "midi": 55,
          "name": "G3",
          "ticks": 148800,
          "time": 158.1631625,
          "velocity": 0.3937007874015748
        },
        {
          "duration": 0.10204075000001467,
          "durationTicks": 96,
          "midi": 71,
          "name": "B4",
          "ticks": 148800,
          "time": 158.1631625,
          "velocity": 0.3937007874015748
        },
        {
          "duration": 0.10204074999998625,
          "durationTicks": 96,
          "midi": 74,
          "name": "D5",
          "ticks": 148992,
          "time": 158.367244,
          "velocity": 0.3937007874015748
        },
        {
          "duration": 0.10204074999998625,
          "durationTicks": 96,
          "midi": 50,
          "name": "D3",
          "ticks": 148992,
          "time": 158.367244,
          "velocity": 0.3937007874015748
        },
        {
          "duration": 0.10204074999998625,
          "durationTicks": 96,
          "midi": 76,
          "name": "E5",
          "ticks": 149184,
          "time": 158.5713255,
          "velocity": 0.3937007874015748
        },
        {
          "duration": 0.10204074999998625,
          "durationTicks": 96,
          "midi": 57,
          "name": "A3",
          "ticks": 149184,
          "time": 158.5713255,
          "velocity": 0.3937007874015748
        },
        {
          "duration": 0.10204074999998625,
          "durationTicks": 96,
          "midi": 71,
          "name": "B4",
          "ticks": 149376,
          "time": 158.775407,
          "velocity": 0.3937007874015748
        },
        {
          "duration": 0.10204074999998625,
          "durationTicks": 96,
          "midi": 50,
          "name": "D3",
          "ticks": 149376,
          "time": 158.775407,
          "velocity": 0.3937007874015748
        },
        {
          "duration": 0.10204074999998625,
          "durationTicks": 96,
          "midi": 69,
          "name": "A4",
          "ticks": 149568,
          "time": 158.9794885,
          "velocity": 0.3937007874015748
        },
        {
          "duration": 0.10204074999998625,
          "durationTicks": 96,
          "midi": 57,
          "name": "A3",
          "ticks": 149568,
          "time": 158.9794885,
          "velocity": 0.3937007874015748
        },
        {
          "duration": 0.10204074999998625,
          "durationTicks": 96,
          "midi": 71,
          "name": "B4",
          "ticks": 149760,
          "time": 159.18357,
          "velocity": 0.3937007874015748
        },
        {
          "duration": 0.10204074999998625,
          "durationTicks": 96,
          "midi": 50,
          "name": "D3",
          "ticks": 149760,
          "time": 159.18357,
          "velocity": 0.3937007874015748
        },
        {
          "duration": 0.10204074999998625,
          "durationTicks": 96,
          "midi": 57,
          "name": "A3",
          "ticks": 149952,
          "time": 159.3876515,
          "velocity": 0.3937007874015748
        },
        {
          "duration": 0.10204075000001467,
          "durationTicks": 96,
          "midi": 71,
          "name": "B4",
          "ticks": 150048,
          "time": 159.48969225,
          "velocity": 0.3937007874015748
        },
        {
          "duration": 0.10204074999998625,
          "durationTicks": 96,
          "midi": 69,
          "name": "A4",
          "ticks": 150144,
          "time": 159.591733,
          "velocity": 0.3937007874015748
        },
        {
          "duration": 0.10204074999998625,
          "durationTicks": 96,
          "midi": 50,
          "name": "D3",
          "ticks": 150144,
          "time": 159.591733,
          "velocity": 0.3937007874015748
        },
        {
          "duration": 0.10204074999998625,
          "durationTicks": 96,
          "midi": 71,
          "name": "B4",
          "ticks": 150336,
          "time": 159.7958145,
          "velocity": 0.3937007874015748
        },
        {
          "duration": 0.10204074999998625,
          "durationTicks": 96,
          "midi": 57,
          "name": "A3",
          "ticks": 150336,
          "time": 159.7958145,
          "velocity": 0.3937007874015748
        },
        {
          "duration": 0.10204074999998625,
          "durationTicks": 96,
          "midi": 52,
          "name": "E3",
          "ticks": 150528,
          "time": 159.999896,
          "velocity": 0.3937007874015748
        },
        {
          "duration": 0.10204074999998625,
          "durationTicks": 96,
          "midi": 69,
          "name": "A4",
          "ticks": 150528,
          "time": 159.999896,
          "velocity": 0.3937007874015748
        },
        {
          "duration": 0.10204074999998625,
          "durationTicks": 96,
          "midi": 59,
          "name": "B3",
          "ticks": 150720,
          "time": 160.2039775,
          "velocity": 0.3937007874015748
        },
        {
          "duration": 0.10204074999998625,
          "durationTicks": 96,
          "midi": 67,
          "name": "G4",
          "ticks": 150720,
          "time": 160.2039775,
          "velocity": 0.3937007874015748
        },
        {
          "duration": 0.10204074999998625,
          "durationTicks": 96,
          "midi": 66,
          "name": "F#4",
          "ticks": 150912,
          "time": 160.408059,
          "velocity": 0.3937007874015748
        },
        {
          "duration": 0.10204074999998625,
          "durationTicks": 96,
          "midi": 52,
          "name": "E3",
          "ticks": 150912,
          "time": 160.408059,
          "velocity": 0.3937007874015748
        },
        {
          "duration": 0.10204074999998625,
          "durationTicks": 96,
          "midi": 59,
          "name": "B3",
          "ticks": 151104,
          "time": 160.6121405,
          "velocity": 0.3937007874015748
        },
        {
          "duration": 0.10204074999998625,
          "durationTicks": 96,
          "midi": 62,
          "name": "D4",
          "ticks": 151104,
          "time": 160.6121405,
          "velocity": 0.3937007874015748
        },
        {
          "duration": 0.10204074999998625,
          "durationTicks": 96,
          "midi": 52,
          "name": "E3",
          "ticks": 151296,
          "time": 160.816222,
          "velocity": 0.3937007874015748
        },
        {
          "duration": 0.10204074999998625,
          "durationTicks": 96,
          "midi": 64,
          "name": "E4",
          "ticks": 151296,
          "time": 160.816222,
          "velocity": 0.3937007874015748
        },
        {
          "duration": 0.10204074999998625,
          "durationTicks": 96,
          "midi": 59,
          "name": "B3",
          "ticks": 151488,
          "time": 161.0203035,
          "velocity": 0.3937007874015748
        },
        {
          "duration": 0.10204075000001467,
          "durationTicks": 96,
          "midi": 64,
          "name": "E4",
          "ticks": 151584,
          "time": 161.12234425,
          "velocity": 0.3937007874015748
        },
        {
          "duration": 0.10204074999998625,
          "durationTicks": 96,
          "midi": 62,
          "name": "D4",
          "ticks": 151680,
          "time": 161.224385,
          "velocity": 0.3937007874015748
        },
        {
          "duration": 0.10204074999998625,
          "durationTicks": 96,
          "midi": 52,
          "name": "E3",
          "ticks": 151680,
          "time": 161.224385,
          "velocity": 0.3937007874015748
        },
        {
          "duration": 0.10204074999998625,
          "durationTicks": 96,
          "midi": 64,
          "name": "E4",
          "ticks": 151872,
          "time": 161.4284665,
          "velocity": 0.3937007874015748
        },
        {
          "duration": 0.10204074999998625,
          "durationTicks": 96,
          "midi": 59,
          "name": "B3",
          "ticks": 151872,
          "time": 161.4284665,
          "velocity": 0.3937007874015748
        },
        {
          "duration": 0.10204075000001467,
          "durationTicks": 96,
          "midi": 66,
          "name": "F#4",
          "ticks": 152064,
          "time": 161.63254799999999,
          "velocity": 0.3937007874015748
        },
        {
          "duration": 0.10204075000001467,
          "durationTicks": 96,
          "midi": 52,
          "name": "E3",
          "ticks": 152064,
          "time": 161.63254799999999,
          "velocity": 0.3937007874015748
        },
        {
          "duration": 0.10204075000001467,
          "durationTicks": 96,
          "midi": 67,
          "name": "G4",
          "ticks": 152256,
          "time": 161.8366295,
          "velocity": 0.3937007874015748
        },
        {
          "duration": 0.10204075000001467,
          "durationTicks": 96,
          "midi": 59,
          "name": "B3",
          "ticks": 152256,
          "time": 161.8366295,
          "velocity": 0.3937007874015748
        },
        {
          "duration": 0.10204075000001467,
          "durationTicks": 96,
          "midi": 52,
          "name": "E3",
          "ticks": 152448,
          "time": 162.040711,
          "velocity": 0.3937007874015748
        },
        {
          "duration": 0.10204075000001467,
          "durationTicks": 96,
          "midi": 69,
          "name": "A4",
          "ticks": 152448,
          "time": 162.040711,
          "velocity": 0.3937007874015748
        },
        {
          "duration": 0.10204075000001467,
          "durationTicks": 96,
          "midi": 71,
          "name": "B4",
          "ticks": 152640,
          "time": 162.2447925,
          "velocity": 0.3937007874015748
        },
        {
          "duration": 0.10204075000001467,
          "durationTicks": 96,
          "midi": 59,
          "name": "B3",
          "ticks": 152640,
          "time": 162.2447925,
          "velocity": 0.3937007874015748
        },
        {
          "duration": 0.10204075000001467,
          "durationTicks": 96,
          "midi": 64,
          "name": "E4",
          "ticks": 152832,
          "time": 162.448874,
          "velocity": 0.3937007874015748
        },
        {
          "duration": 0.10204075000001467,
          "durationTicks": 96,
          "midi": 52,
          "name": "E3",
          "ticks": 152832,
          "time": 162.448874,
          "velocity": 0.3937007874015748
        },
        {
          "duration": 0.10204075000001467,
          "durationTicks": 96,
          "midi": 59,
          "name": "B3",
          "ticks": 153024,
          "time": 162.6529555,
          "velocity": 0.3937007874015748
        },
        {
          "duration": 0.10204074999998625,
          "durationTicks": 96,
          "midi": 64,
          "name": "E4",
          "ticks": 153120,
          "time": 162.75499625,
          "velocity": 0.3937007874015748
        },
        {
          "duration": 0.10204075000001467,
          "durationTicks": 96,
          "midi": 71,
          "name": "B4",
          "ticks": 153216,
          "time": 162.857037,
          "velocity": 0.3937007874015748
        },
        {
          "duration": 0.10204075000001467,
          "durationTicks": 96,
          "midi": 52,
          "name": "E3",
          "ticks": 153216,
          "time": 162.857037,
          "velocity": 0.3937007874015748
        },
        {
          "duration": 0.10204075000001467,
          "durationTicks": 96,
          "midi": 74,
          "name": "D5",
          "ticks": 153408,
          "time": 163.0611185,
          "velocity": 0.3937007874015748
        },
        {
          "duration": 0.10204075000001467,
          "durationTicks": 96,
          "midi": 59,
          "name": "B3",
          "ticks": 153408,
          "time": 163.0611185,
          "velocity": 0.3937007874015748
        },
        {
          "duration": 0.10204075000001467,
          "durationTicks": 96,
          "midi": 48,
          "name": "C3",
          "ticks": 153600,
          "time": 163.2652,
          "velocity": 0.3937007874015748
        },
        {
          "duration": 0.10204075000001467,
          "durationTicks": 96,
          "midi": 74,
          "name": "D5",
          "ticks": 153600,
          "time": 163.2652,
          "velocity": 0.3937007874015748
        },
        {
          "duration": 0.10204075000001467,
          "durationTicks": 96,
          "midi": 55,
          "name": "G3",
          "ticks": 153792,
          "time": 163.4692815,
          "velocity": 0.3937007874015748
        },
        {
          "duration": 0.10204075000001467,
          "durationTicks": 96,
          "midi": 76,
          "name": "E5",
          "ticks": 153792,
          "time": 163.4692815,
          "velocity": 0.3937007874015748
        },
        {
          "duration": 0.10204075000001467,
          "durationTicks": 96,
          "midi": 71,
          "name": "B4",
          "ticks": 153984,
          "time": 163.673363,
          "velocity": 0.3937007874015748
        },
        {
          "duration": 0.10204075000001467,
          "durationTicks": 96,
          "midi": 48,
          "name": "C3",
          "ticks": 153984,
          "time": 163.673363,
          "velocity": 0.3937007874015748
        },
        {
          "duration": 0.10204075000001467,
          "durationTicks": 96,
          "midi": 69,
          "name": "A4",
          "ticks": 154176,
          "time": 163.8774445,
          "velocity": 0.3937007874015748
        },
        {
          "duration": 0.10204075000001467,
          "durationTicks": 96,
          "midi": 55,
          "name": "G3",
          "ticks": 154176,
          "time": 163.8774445,
          "velocity": 0.3937007874015748
        },
        {
          "duration": 0.10204075000001467,
          "durationTicks": 96,
          "midi": 48,
          "name": "C3",
          "ticks": 154368,
          "time": 164.081526,
          "velocity": 0.3937007874015748
        },
        {
          "duration": 0.10204075000001467,
          "durationTicks": 96,
          "midi": 71,
          "name": "B4",
          "ticks": 154368,
          "time": 164.081526,
          "velocity": 0.3937007874015748
        },
        {
          "duration": 0.10204075000001467,
          "durationTicks": 96,
          "midi": 55,
          "name": "G3",
          "ticks": 154560,
          "time": 164.2856075,
          "velocity": 0.3937007874015748
        },
        {
          "duration": 0.10204074999998625,
          "durationTicks": 96,
          "midi": 71,
          "name": "B4",
          "ticks": 154656,
          "time": 164.38764825,
          "velocity": 0.3937007874015748
        },
        {
          "duration": 0.10204075000001467,
          "durationTicks": 96,
          "midi": 69,
          "name": "A4",
          "ticks": 154752,
          "time": 164.489689,
          "velocity": 0.3937007874015748
        },
        {
          "duration": 0.10204075000001467,
          "durationTicks": 96,
          "midi": 48,
          "name": "C3",
          "ticks": 154752,
          "time": 164.489689,
          "velocity": 0.3937007874015748
        },
        {
          "duration": 0.10204074999998625,
          "durationTicks": 96,
          "midi": 71,
          "name": "B4",
          "ticks": 154944,
          "time": 164.6937705,
          "velocity": 0.3937007874015748
        },
        {
          "duration": 0.10204074999998625,
          "durationTicks": 96,
          "midi": 55,
          "name": "G3",
          "ticks": 154944,
          "time": 164.6937705,
          "velocity": 0.3937007874015748
        },
        {
          "duration": 0.10204074999998625,
          "durationTicks": 96,
          "midi": 74,
          "name": "D5",
          "ticks": 155136,
          "time": 164.897852,
          "velocity": 0.3937007874015748
        },
        {
          "duration": 0.10204074999998625,
          "durationTicks": 96,
          "midi": 50,
          "name": "D3",
          "ticks": 155136,
          "time": 164.897852,
          "velocity": 0.3937007874015748
        },
        {
          "duration": 0.10204074999998625,
          "durationTicks": 96,
          "midi": 57,
          "name": "A3",
          "ticks": 155328,
          "time": 165.1019335,
          "velocity": 0.3937007874015748
        },
        {
          "duration": 0.10204074999998625,
          "durationTicks": 96,
          "midi": 76,
          "name": "E5",
          "ticks": 155328,
          "time": 165.1019335,
          "velocity": 0.3937007874015748
        },
        {
          "duration": 0.10204074999998625,
          "durationTicks": 96,
          "midi": 50,
          "name": "D3",
          "ticks": 155520,
          "time": 165.306015,
          "velocity": 0.3937007874015748
        },
        {
          "duration": 0.10204074999998625,
          "durationTicks": 96,
          "midi": 71,
          "name": "B4",
          "ticks": 155520,
          "time": 165.306015,
          "velocity": 0.3937007874015748
        },
        {
          "duration": 0.10204074999998625,
          "durationTicks": 96,
          "midi": 57,
          "name": "A3",
          "ticks": 155712,
          "time": 165.5100965,
          "velocity": 0.3937007874015748
        },
        {
          "duration": 0.10204074999998625,
          "durationTicks": 96,
          "midi": 69,
          "name": "A4",
          "ticks": 155712,
          "time": 165.5100965,
          "velocity": 0.3937007874015748
        },
        {
          "duration": 0.10204074999998625,
          "durationTicks": 96,
          "midi": 50,
          "name": "D3",
          "ticks": 155904,
          "time": 165.714178,
          "velocity": 0.3937007874015748
        },
        {
          "duration": 0.10204074999998625,
          "durationTicks": 96,
          "midi": 71,
          "name": "B4",
          "ticks": 155904,
          "time": 165.714178,
          "velocity": 0.3937007874015748
        },
        {
          "duration": 0.10204074999998625,
          "durationTicks": 96,
          "midi": 57,
          "name": "A3",
          "ticks": 156096,
          "time": 165.9182595,
          "velocity": 0.3937007874015748
        },
        {
          "duration": 0.10204075000001467,
          "durationTicks": 96,
          "midi": 71,
          "name": "B4",
          "ticks": 156192,
          "time": 166.02030025,
          "velocity": 0.3937007874015748
        },
        {
          "duration": 0.10204074999998625,
          "durationTicks": 96,
          "midi": 76,
          "name": "E5",
          "ticks": 156288,
          "time": 166.122341,
          "velocity": 0.3937007874015748
        },
        {
          "duration": 0.10204074999998625,
          "durationTicks": 96,
          "midi": 50,
          "name": "D3",
          "ticks": 156288,
          "time": 166.122341,
          "velocity": 0.3937007874015748
        },
        {
          "duration": 0.10204074999998625,
          "durationTicks": 96,
          "midi": 57,
          "name": "A3",
          "ticks": 156480,
          "time": 166.3264225,
          "velocity": 0.3937007874015748
        },
        {
          "duration": 0.10204074999998625,
          "durationTicks": 96,
          "midi": 78,
          "name": "F#5",
          "ticks": 156480,
          "time": 166.3264225,
          "velocity": 0.3937007874015748
        },
        {
          "duration": 0.10204074999998625,
          "durationTicks": 96,
          "midi": 79,
          "name": "G5",
          "ticks": 156672,
          "time": 166.530504,
          "velocity": 0.3937007874015748
        },
        {
          "duration": 0.10204074999998625,
          "durationTicks": 96,
          "midi": 52,
          "name": "E3",
          "ticks": 156672,
          "time": 166.530504,
          "velocity": 0.3937007874015748
        },
        {
          "duration": 0.10204074999998625,
          "durationTicks": 96,
          "midi": 78,
          "name": "F#5",
          "ticks": 156864,
          "time": 166.7345855,
          "velocity": 0.3937007874015748
        },
        {
          "duration": 0.10204074999998625,
          "durationTicks": 96,
          "midi": 59,
          "name": "B3",
          "ticks": 156864,
          "time": 166.7345855,
          "velocity": 0.3937007874015748
        },
        {
          "duration": 0.10204074999998625,
          "durationTicks": 96,
          "midi": 76,
          "name": "E5",
          "ticks": 157056,
          "time": 166.938667,
          "velocity": 0.3937007874015748
        },
        {
          "duration": 0.10204074999998625,
          "durationTicks": 96,
          "midi": 52,
          "name": "E3",
          "ticks": 157056,
          "time": 166.938667,
          "velocity": 0.3937007874015748
        },
        {
          "duration": 0.10204074999998625,
          "durationTicks": 96,
          "midi": 59,
          "name": "B3",
          "ticks": 157248,
          "time": 167.1427485,
          "velocity": 0.3937007874015748
        },
        {
          "duration": 0.10204074999998625,
          "durationTicks": 96,
          "midi": 74,
          "name": "D5",
          "ticks": 157248,
          "time": 167.1427485,
          "velocity": 0.3937007874015748
        },
        {
          "duration": 0.10204074999998625,
          "durationTicks": 96,
          "midi": 52,
          "name": "E3",
          "ticks": 157440,
          "time": 167.34683,
          "velocity": 0.3937007874015748
        },
        {
          "duration": 0.10204074999998625,
          "durationTicks": 96,
          "midi": 71,
          "name": "B4",
          "ticks": 157440,
          "time": 167.34683,
          "velocity": 0.3937007874015748
        },
        {
          "duration": 0.10204074999998625,
          "durationTicks": 96,
          "midi": 59,
          "name": "B3",
          "ticks": 157632,
          "time": 167.5509115,
          "velocity": 0.3937007874015748
        },
        {
          "duration": 0.10204075000001467,
          "durationTicks": 96,
          "midi": 71,
          "name": "B4",
          "ticks": 157728,
          "time": 167.65295225,
          "velocity": 0.3937007874015748
        },
        {
          "duration": 0.10204074999998625,
          "durationTicks": 96,
          "midi": 69,
          "name": "A4",
          "ticks": 157824,
          "time": 167.754993,
          "velocity": 0.3937007874015748
        },
        {
          "duration": 0.10204074999998625,
          "durationTicks": 96,
          "midi": 52,
          "name": "E3",
          "ticks": 157824,
          "time": 167.754993,
          "velocity": 0.3937007874015748
        },
        {
          "duration": 0.10204075000001467,
          "durationTicks": 96,
          "midi": 59,
          "name": "B3",
          "ticks": 158016,
          "time": 167.95907449999999,
          "velocity": 0.3937007874015748
        },
        {
          "duration": 0.10204075000001467,
          "durationTicks": 96,
          "midi": 71,
          "name": "B4",
          "ticks": 158016,
          "time": 167.95907449999999,
          "velocity": 0.3937007874015748
        },
        {
          "duration": 0.10204075000001467,
          "durationTicks": 96,
          "midi": 69,
          "name": "A4",
          "ticks": 158208,
          "time": 168.163156,
          "velocity": 0.3937007874015748
        },
        {
          "duration": 0.10204075000001467,
          "durationTicks": 96,
          "midi": 52,
          "name": "E3",
          "ticks": 158208,
          "time": 168.163156,
          "velocity": 0.3937007874015748
        },
        {
          "duration": 0.10204075000001467,
          "durationTicks": 96,
          "midi": 67,
          "name": "G4",
          "ticks": 158400,
          "time": 168.3672375,
          "velocity": 0.3937007874015748
        },
        {
          "duration": 0.10204075000001467,
          "durationTicks": 96,
          "midi": 59,
          "name": "B3",
          "ticks": 158400,
          "time": 168.3672375,
          "velocity": 0.3937007874015748
        },
        {
          "duration": 0.10204075000001467,
          "durationTicks": 96,
          "midi": 66,
          "name": "F#4",
          "ticks": 158592,
          "time": 168.571319,
          "velocity": 0.3937007874015748
        },
        {
          "duration": 0.10204075000001467,
          "durationTicks": 96,
          "midi": 52,
          "name": "E3",
          "ticks": 158592,
          "time": 168.571319,
          "velocity": 0.3937007874015748
        },
        {
          "duration": 0.10204075000001467,
          "durationTicks": 96,
          "midi": 59,
          "name": "B3",
          "ticks": 158784,
          "time": 168.7754005,
          "velocity": 0.3937007874015748
        },
        {
          "duration": 0.10204075000001467,
          "durationTicks": 96,
          "midi": 62,
          "name": "D4",
          "ticks": 158784,
          "time": 168.7754005,
          "velocity": 0.3937007874015748
        },
        {
          "duration": 0.10204075000001467,
          "durationTicks": 96,
          "midi": 59,
          "name": "B3",
          "ticks": 158976,
          "time": 168.979482,
          "velocity": 0.3937007874015748
        },
        {
          "duration": 0.10204075000001467,
          "durationTicks": 96,
          "midi": 71,
          "name": "B4",
          "ticks": 158976,
          "time": 168.979482,
          "velocity": 0.3937007874015748
        },
        {
          "duration": 0.10204075000001467,
          "durationTicks": 96,
          "midi": 64,
          "name": "E4",
          "ticks": 158976,
          "time": 168.979482,
          "velocity": 0.3937007874015748
        },
        {
          "duration": 0.10204075000001467,
          "durationTicks": 96,
          "midi": 52,
          "name": "E3",
          "ticks": 158976,
          "time": 168.979482,
          "velocity": 0.3937007874015748
        },
        {
          "duration": 0.10204074999998625,
          "durationTicks": 96,
          "midi": 59,
          "name": "B3",
          "ticks": 159648,
          "time": 169.69376725,
          "velocity": 0.3937007874015748
        },
        {
          "duration": 0.10204074999998625,
          "durationTicks": 96,
          "midi": 71,
          "name": "B4",
          "ticks": 159648,
          "time": 169.69376725,
          "velocity": 0.3937007874015748
        },
        {
          "duration": 0.10204074999998625,
          "durationTicks": 96,
          "midi": 64,
          "name": "E4",
          "ticks": 159648,
          "time": 169.69376725,
          "velocity": 0.3937007874015748
        },
        {
          "duration": 0.10204074999998625,
          "durationTicks": 96,
          "midi": 52,
          "name": "E3",
          "ticks": 159648,
          "time": 169.69376725,
          "velocity": 0.3937007874015748
        }
      ],
      "endOfTrackTicks": 159744
    },
    {
      "channel": 1,
      "controlChanges": {},
      "pitchBends": [],
      "instrument": {
        "family": "piano",
        "number": 0,
        "name": "acoustic grand piano"
      },
      "name": "Electric Piano",
      "notes": [
        {
          "duration": 0.10204075000000046,
          "durationTicks": 96,
          "midi": 65,
          "name": "F4",
          "ticks": 107712,
          "time": 114.4897215,
          "velocity": 0.3937007874015748
        },
        {
          "duration": 0.10204074999998625,
          "durationTicks": 96,
          "midi": 50,
          "name": "D3",
          "ticks": 143232,
          "time": 152.244799,
          "velocity": 0.3937007874015748
        }
      ],
      "endOfTrackTicks": 143328
    }
  ]
}
