{"tracks":[{"instrument":{"family":"pipe","number":73,"name":"flute"},"notes":[{"duration":0.059895833333333336,"midi":58,"time":0,"velocity":0.3937007874015748},{"duration":0.05989583333333333,"midi":41,"time":0.01171875,"velocity":0.3937007874015748},{"duration":0.06119791666666666,"midi":60,"time":0.17578125,"velocity":0.3937007874015748},{"duration":0.06119791666666666,"midi":64,"time":0.1875,"velocity":0.3937007874015748},{"duration":0.06119791666666666,"midi":77,"time":0.1875,"velocity":0.3937007874015748},{"duration":0.06119791666666666,"midi":51,"time":0.1875,"velocity":0.3937007874015748},{"duration":0.059895833333333315,"midi":68,"time":0.19921875,"velocity":0.3937007874015748},{"duration":0.059895833333333315,"midi":50,"time":0.2109375,"velocity":0.3937007874015748},{"duration":0.059895833333333315,"midi":61,"time":0.2109375,"velocity":0.3937007874015748},{"duration":0.05859375,"midi":46,"time":0.2591145833333333,"velocity":0.3937007874015748},{"duration":0.05859375,"midi":50,"time":0.3619791666666667,"velocity":0.3937007874015748},{"duration":0.05859375,"midi":61,"time":0.3854166666666667,"velocity":0.3937007874015748},{"duration":0.05859375,"midi":49,"time":0.4088541666666667,"velocity":0.3937007874015748},{"duration":0.059895833333333315,"midi":50,"time":0.4544270833333333,"velocity":0.3937007874015748},{"duration":0.05989583333333337,"midi":67,"time":0.734375,"velocity":0.3937007874015748},{"duration":0.05989583333333337,"midi":50,"time":0.74609375,"velocity":0.3937007874015748},{"duration":0.05989583333333337,"midi":49,"time":0.91015625,"velocity":0.3937007874015748},{"duration":0.05989583333333337,"midi":53,"time":0.9322916666666666,"velocity":0.3937007874015748},{"duration":0.05989583333333337,"midi":69,"time":0.9440104166666666,"velocity":0.3937007874015748},{"duration":0.05859375,"midi":51,"time":0.95703125,"velocity":0.3937007874015748},{"duration":0.05859375,"midi":62,"time":0.95703125,"velocity":0.3937007874015748},{"duration":0.05859375000000011,"midi":68,"time":0.9791666666666666,"velocity":0.3937007874015748},{"duration":0.05859375000000011,"midi":61,"time":0.9791666666666666,"velocity":0.3937007874015748},{"duration":0.05859375,"midi":48,"time":1.0143229166666667,"velocity":0.3937007874015748},{"duration":0.05989583333333326,"midi":67,"time":1.0260416666666667,"velocity":0.3937007874015748},{"duration":0.05989583333333326,"midi":59,"time":1.0611979166666667,"velocity":0.3937007874015748},{"duration":0.17708333333333326,"midi":66,"time":1.0611979166666667,"velocity":0.3937007874015748},{"duration":0.05989583333333326,"midi":47,"time":1.0729166666666667,"velocity":0.3937007874015748},{"duration":0.05989583333333348,"midi":63,"time":1.0950520833333333,"velocity":0.3937007874015748},{"duration":0.05989583333333326,"midi":50,"time":1.1080729166666667,"velocity":0.3937007874015748},{"duration":0.17578125,"midi":58,"time":1.1197916666666667,"velocity":0.3937007874015748},{"duration":0.05989583333333326,"midi":47,"time":1.1432291666666667,"velocity":0.3937007874015748},{"duration":0.05989583333333326,"midi":65,"time":1.1549479166666667,"velocity":0.3937007874015748},{"duration":0.05989583333333326,"midi":64,"time":1.1901041666666667,"velocity":0.3937007874015748},{"duration":0.05989583333333326,"midi":57,"time":1.1901041666666667,"velocity":0.3937007874015748},{"duration":0.05989583333333326,"midi":50,"time":1.2252604166666667,"velocity":0.3937007874015748},{"duration":0.05859375,"midi":63,"time":1.2369791666666667,"velocity":0.3937007874015748},{"duration":0.05859375,"midi":63,"time":1.2838541666666667,"velocity":0.3937007874015748},{"duration":0.05859375,"midi":45,"time":1.2838541666666667,"velocity":0.3937007874015748},{"duration":0.17447916666666652,"midi":77,"time":1.2955729166666667,"velocity":0.3937007874015748},{"duration":0.17447916666666652,"midi":91,"time":1.2955729166666667,"velocity":0.3937007874015748},{"duration":0.05989583333333326,"midi":88,"time":1.2955729166666667,"velocity":0.3937007874015748},{"duration":0.05989583333333326,"midi":86,"time":1.2955729166666667,"velocity":0.3937007874015748},{"duration":0.17578125,"midi":84,"time":1.3059895833333333,"velocity":0.3937007874015748},{"duration":0.17578125,"midi":89,"time":1.3059895833333333,"velocity":0.3937007874015748},{"duration":0.17578125,"midi":65,"time":1.3059895833333333,"velocity":0.3937007874015748},{"duration":0.17578125,"midi":55,"time":1.3177083333333333,"velocity":0.3937007874015748},{"duration":0.05989583333333348,"midi":45,"time":1.3177083333333333,"velocity":0.3937007874015748},{"duration":0.17447916666666674,"midi":87,"time":1.3294270833333333,"velocity":0.3937007874015748},{"duration":0.05859375,"midi":44,"time":1.3424479166666667,"velocity":0.3937007874015748},{"duration":0.05729166666666652,"midi":42,"time":1.3776041666666667,"velocity":0.3937007874015748},{"duration":0.17317708333333348,"midi":88,"time":1.3997395833333333,"velocity":0.3937007874015748},{"duration":0.17317708333333348,"midi":85,"time":1.3997395833333333,"velocity":0.3937007874015748},{"duration":0.17317708333333348,"midi":90,"time":1.3997395833333333,"velocity":0.3937007874015748},{"duration":0.17317708333333348,"midi":66,"time":1.3997395833333333,"velocity":0.3937007874015748},{"duration":0.17317708333333348,"midi":90,"time":1.4114583333333333,"velocity":0.3937007874015748},{"duration":0.17317708333333348,"midi":94,"time":1.4114583333333333,"velocity":0.3937007874015748},{"duration":0.05989583333333326,"midi":42,"time":1.43359375,"velocity":0.3937007874015748},{"duration":0.05989583333333326,"midi":61,"time":1.45703125,"velocity":0.3937007874015748},{"duration":0.05859375,"midi":60,"time":1.4934895833333333,"velocity":0.3937007874015748},{"duration":0.05859375,"midi":84,"time":1.50390625,"velocity":0.3937007874015748},{"duration":0.05859375,"midi":92,"time":1.50390625,"velocity":0.3937007874015748},{"duration":0.05859375,"midi":87,"time":1.50390625,"velocity":0.3937007874015748},{"duration":0.05859375,"midi":68,"time":1.50390625,"velocity":0.3937007874015748},{"duration":0.05859375,"midi":87,"time":1.50390625,"velocity":0.3937007874015748},{"duration":0.05729166666666674,"midi":89,"time":1.515625,"velocity":0.3937007874015748},{"duration":0.05729166666666674,"midi":61,"time":1.515625,"velocity":0.3937007874015748},{"duration":0.05729166666666674,"midi":85,"time":1.55078125,"velocity":0.3937007874015748},{"duration":0.05729166666666674,"midi":91,"time":1.55078125,"velocity":0.3937007874015748},{"duration":0.17057291666666674,"midi":65,"time":1.5625,"velocity":0.3937007874015748},{"duration":0.05859375,"midi":69,"time":1.5625,"velocity":0.3937007874015748},{"duration":0.05989583333333326,"midi":89,"time":1.5729166666666667,"velocity":0.3937007874015748},{"duration":0.05989583333333348,"midi":72,"time":1.5833333333333333,"velocity":0.3937007874015748},{"duration":0.05859375,"midi":88,"time":1.5950520833333333,"velocity":0.3937007874015748},{"duration":0.05859375,"midi":84,"time":1.5950520833333333,"velocity":0.3937007874015748},{"duration":0.05859375,"midi":91,"time":1.5950520833333333,"velocity":0.3937007874015748},{"duration":0.05729166666666652,"midi":42,"time":1.6080729166666667,"velocity":0.3937007874015748},{"duration":0.16796875,"midi":90,"time":1.6432291666666667,"velocity":0.3937007874015748},{"duration":0.05729166666666652,"midi":85,"time":1.6432291666666667,"velocity":0.3937007874015748},{"duration":0.05729166666666674,"midi":74,"time":1.6536458333333333,"velocity":0.3937007874015748},{"duration":0.16927083333333326,"midi":87,"time":1.6640625,"velocity":0.3937007874015748},{"duration":0.05729166666666674,"midi":86,"time":1.6640625,"velocity":0.3937007874015748},{"duration":0.16927083333333326,"midi":69,"time":1.6875,"velocity":0.3937007874015748},{"duration":0.05729166666666674,"midi":53,"time":1.6875,"velocity":0.3937007874015748},{"duration":0.05598958333333326,"midi":75,"time":1.69921875,"velocity":0.3937007874015748},{"duration":0.16796875,"midi":91,"time":1.69921875,"velocity":0.3937007874015748},{"duration":0.05598958333333326,"midi":66,"time":1.69921875,"velocity":0.3937007874015748},{"duration":0.05598958333333326,"midi":41,"time":1.7096354166666667,"velocity":0.3937007874015748},{"duration":0.05598958333333326,"midi":77,"time":1.7213541666666667,"velocity":0.3937007874015748},{"duration":0.05598958333333326,"midi":60,"time":1.7213541666666667,"velocity":0.3937007874015748},{"duration":0.17057291666666652,"midi":94,"time":1.7213541666666667,"velocity":0.3937007874015748},{"duration":0.05598958333333326,"midi":37,"time":1.7213541666666667,"velocity":0.3937007874015748},{"duration":0.17057291666666674,"midi":90,"time":1.7317708333333333,"velocity":0.3937007874015748},{"duration":0.05598958333333348,"midi":86,"time":1.7434895833333333,"velocity":0.3937007874015748},{"duration":0.05598958333333348,"midi":74,"time":1.7434895833333333,"velocity":0.3937007874015748},{"duration":0.05598958333333348,"midi":27,"time":1.7552083333333333,"velocity":0.3937007874015748},{"duration":0.2968750000000002,"midi":50,"time":1.7552083333333333,"velocity":0.3937007874015748},{"duration":0.05729166666666674,"midi":63,"time":1.765625,"velocity":0.3937007874015748},{"duration":0.05729166666666674,"midi":75,"time":1.765625,"velocity":0.3937007874015748},{"duration":0.4231770833333335,"midi":88,"time":1.765625,"velocity":0.3937007874015748},{"duration":0.05729166666666652,"midi":60,"time":1.7760416666666667,"velocity":0.3937007874015748},{"duration":0.05729166666666652,"midi":87,"time":1.7760416666666667,"velocity":0.3937007874015748},{"duration":0.05729166666666652,"midi":28,"time":1.7760416666666667,"velocity":0.3937007874015748},{"duration":0.42447916666666674,"midi":76,"time":1.7877604166666667,"velocity":0.3937007874015748},{"duration":0.05729166666666652,"midi":40,"time":1.7994791666666667,"velocity":0.3937007874015748},{"duration":0.05729166666666652,"midi":63,"time":1.7994791666666667,"velocity":0.3937007874015748},{"duration":0.39713541666666674,"midi":95,"time":1.8098958333333333,"velocity":0.3937007874015748},{"duration":0.05859375,"midi":74,"time":1.8333333333333333,"velocity":0.3937007874015748},{"duration":0.6770833333333333,"midi":65,"time":1.8333333333333333,"velocity":0.3937007874015748},{"duration":0.6796875,"midi":69,"time":1.8671875,"velocity":0.3937007874015748},{"duration":0.05989583333333326,"midi":91,"time":1.8671875,"velocity":0.3937007874015748},{"duration":0.05989583333333326,"midi":57,"time":1.87890625,"velocity":0.3937007874015748},{"duration":0.17578125,"midi":57,"time":1.94921875,"velocity":0.3937007874015748},{"duration":0.05989583333333348,"midi":50,"time":2.0768229166666665,"velocity":0.3937007874015748},{"duration":0.3020833333333335,"midi":62,"time":2.1002604166666665,"velocity":0.3937007874015748},{"duration":0.05989583333333348,"midi":75,"time":2.1119791666666665,"velocity":0.3937007874015748},{"duration":0.30078125,"midi":86,"time":2.1236979166666665,"velocity":0.3937007874015748},{"duration":0.42838541666666696,"midi":90,"time":2.1236979166666665,"velocity":0.3937007874015748},{"duration":0.17447916666666696,"midi":76,"time":2.1236979166666665,"velocity":0.3937007874015748},{"duration":0.42838541666666696,"midi":50,"time":2.1236979166666665,"velocity":0.3937007874015748},{"duration":0.30078125,"midi":74,"time":2.13671875,"velocity":0.3937007874015748},{"duration":0.08723958333333348,"midi":95,"time":2.1471354166666665,"velocity":0.3937007874015748},{"duration":0.33984375,"midi":88,"time":2.1940104166666665,"velocity":0.3937007874015748},{"duration":0.23567708333333304,"midi":85,"time":2.3333333333333335,"velocity":0.3937007874015748},{"duration":0.4296875,"midi":93,"time":2.3450520833333335,"velocity":0.3937007874015748},{"duration":0.4296875,"midi":91,"time":2.3450520833333335,"velocity":0.3937007874015748},{"duration":0.4296875,"midi":81,"time":2.3567708333333335,"velocity":0.3937007874015748},{"duration":0.36328125,"midi":88,"time":2.3567708333333335,"velocity":0.3937007874015748},{"duration":0.17708333333333348,"midi":76,"time":2.3697916666666665,"velocity":0.3937007874015748},{"duration":0.06119791666666652,"midi":68,"time":2.4856770833333335,"velocity":0.3937007874015748},{"duration":0.06119791666666652,"midi":71,"time":2.4973958333333335,"velocity":0.3937007874015748},{"duration":0.06119791666666652,"midi":60,"time":2.4973958333333335,"velocity":0.3937007874015748},{"duration":0.06119791666666652,"midi":51,"time":2.4973958333333335,"velocity":0.3937007874015748},{"duration":0.06119791666666652,"midi":75,"time":2.4973958333333335,"velocity":0.3937007874015748},{"duration":0.17578125,"midi":77,"time":2.5091145833333335,"velocity":0.3937007874015748},{"duration":0.25390625,"midi":85,"time":2.5091145833333335,"velocity":0.3937007874015748},{"duration":0.05989583333333348,"midi":90,"time":2.5221354166666665,"velocity":0.3937007874015748},{"duration":0.05859375,"midi":69,"time":2.5338541666666665,"velocity":0.3937007874015748},{"duration":0.05859375,"midi":49,"time":2.5338541666666665,"velocity":0.3937007874015748},{"duration":0.20182291666666696,"midi":88,"time":2.5455729166666665,"velocity":0.3937007874015748},{"duration":0.30078125,"midi":65,"time":2.55859375,"velocity":0.3937007874015748},{"duration":0.17578125,"midi":74,"time":2.5690104166666665,"velocity":0.3937007874015748},{"duration":0.17578125,"midi":57,"time":2.5690104166666665,"velocity":0.3937007874015748},{"duration":0.30208333333333304,"midi":50,"time":2.5911458333333335,"velocity":0.3937007874015748},{"duration":0.30208333333333304,"midi":69,"time":2.6497395833333335,"velocity":0.3937007874015748},{"duration":0.4283854166666665,"midi":62,"time":2.70703125,"velocity":0.3937007874015748},{"duration":0.17578125,"midi":89,"time":2.7317708333333335,"velocity":0.3937007874015748},{"duration":0.06119791666666652,"midi":91,"time":2.7317708333333335,"velocity":0.3937007874015748},{"duration":0.17578125,"midi":93,"time":2.7434895833333335,"velocity":0.3937007874015748},{"duration":0.17578125,"midi":87,"time":2.7434895833333335,"velocity":0.3937007874015748},{"duration":0.05989583333333348,"midi":84,"time":2.7565104166666665,"velocity":0.3937007874015748},{"duration":0.05859375,"midi":88,"time":2.79296875,"velocity":0.3937007874015748},{"duration":0.05859375,"midi":91,"time":2.8385416666666665,"velocity":0.3937007874015748},{"duration":0.05859375,"midi":65,"time":2.8606770833333335,"velocity":0.3937007874015748},{"duration":0.30078125,"midi":50,"time":2.8841145833333335,"velocity":0.3937007874015748},{"duration":0.17578125,"midi":57,"time":2.8958333333333335,"velocity":0.3937007874015748},{"duration":0.05989583333333304,"midi":66,"time":2.9075520833333335,"velocity":0.3937007874015748},{"duration":0.05989583333333348,"midi":85,"time":2.9296875,"velocity":0.3937007874015748},{"duration":0.17708333333333348,"midi":65,"time":2.94140625,"velocity":0.3937007874015748},{"duration":0.05989583333333348,"midi":93,"time":2.9765625,"velocity":0.3937007874015748},{"duration":0.17447916666666652,"midi":60,"time":3.0833333333333335,"velocity":0.3937007874015748},{"duration":0.05859375,"midi":74,"time":3.0833333333333335,"velocity":0.3937007874015748},{"duration":0.05859375,"midi":64,"time":3.0833333333333335,"velocity":0.3937007874015748},{"duration":0.55078125,"midi":76,"time":3.0833333333333335,"velocity":0.3937007874015748},{"duration":0.55078125,"midi":95,"time":3.0950520833333335,"velocity":0.3937007874015748},{"duration":0.677083333333333,"midi":88,"time":3.0950520833333335,"velocity":0.3937007874015748},{"duration":0.05859375,"midi":63,"time":3.1184895833333335,"velocity":0.3937007874015748},{"duration":0.17578125,"midi":50,"time":3.1419270833333335,"velocity":0.3937007874015748},{"duration":0.30078125,"midi":65,"time":3.1419270833333335,"velocity":0.3937007874015748},{"duration":0.17708333333333348,"midi":62,"time":3.29296875,"velocity":0.3937007874015748},{"duration":0.30078125,"midi":57,"time":3.3046875,"velocity":0.3937007874015748},{"duration":0.803385416666667,"midi":50,"time":3.33984375,"velocity":0.3937007874015748},{"duration":0.05989583333333348,"midi":60,"time":3.45703125,"velocity":0.3937007874015748},{"duration":0.05989583333333348,"midi":64,"time":3.45703125,"velocity":0.3937007874015748},{"duration":0.05859375,"midi":70,"time":3.50390625,"velocity":0.3937007874015748},{"duration":0.17578125,"midi":57,"time":3.515625,"velocity":0.3937007874015748},{"duration":0.15234375,"midi":65,"time":3.5390625,"velocity":0.3937007874015748},{"duration":0.17578125,"midi":76,"time":3.5625,"velocity":0.3937007874015748},{"duration":0.08463541666666652,"midi":65,"time":3.6302083333333335,"velocity":0.3937007874015748},{"duration":0.05989583333333348,"midi":60,"time":3.6549479166666665,"velocity":0.3937007874015748},{"duration":0.17578125,"midi":74,"time":3.6666666666666665,"velocity":0.3937007874015748},{"duration":0.05989583333333348,"midi":64,"time":3.6666666666666665,"velocity":0.3937007874015748},{"duration":0.05989583333333348,"midi":77,"time":3.6666666666666665,"velocity":0.3937007874015748},{"duration":0.42057291666666696,"midi":90,"time":3.6796875,"velocity":0.3937007874015748},{"duration":0.17578125,"midi":86,"time":3.7018229166666665,"velocity":0.3937007874015748},{"duration":0.05989583333333348,"midi":76,"time":3.7018229166666665,"velocity":0.3937007874015748},{"duration":0.42578125000000044,"midi":57,"time":3.7135416666666665,"velocity":0.3937007874015748},{"duration":0.17578125,"midi":76,"time":3.7721354166666665,"velocity":0.3937007874015748},{"duration":0.17578125,"midi":65,"time":3.7955729166666665,"velocity":0.3937007874015748},{"duration":0.42578125000000044,"midi":88,"time":3.8893229166666665,"velocity":0.3937007874015748},{"duration":0.17578125000000044,"midi":91,"time":3.8893229166666665,"velocity":0.3937007874015748},{"duration":0.42578125000000044,"midi":88,"time":3.8893229166666665,"velocity":0.3937007874015748},{"duration":0.2994791666666665,"midi":81,"time":3.8893229166666665,"velocity":0.3937007874015748},{"duration":0.05859375,"midi":76,"time":3.9010416666666665,"velocity":0.3937007874015748},{"duration":0.2994791666666665,"midi":85,"time":3.9010416666666665,"velocity":0.3937007874015748},{"duration":0.06510416666666696,"midi":90,"time":4.040364583333333,"velocity":0.3937007874015748},{"duration":0.05859375,"midi":68,"time":4.052083333333333,"velocity":0.3937007874015748},{"duration":0.05859375,"midi":51,"time":4.065104166666667,"velocity":0.3937007874015748},{"duration":0.05859375,"midi":60,"time":4.065104166666667,"velocity":0.3937007874015748},{"duration":0.05859375,"midi":64,"time":4.065104166666667,"velocity":0.3937007874015748},{"duration":0.05859375,"midi":91,"time":4.087239583333333,"velocity":0.3937007874015748},{"duration":0.05859375,"midi":50,"time":4.087239583333333,"velocity":0.3937007874015748},{"duration":0.17578125,"midi":69,"time":4.110677083333333,"velocity":0.3937007874015748},{"duration":0.17578125,"midi":57,"time":4.145833333333333,"velocity":0.3937007874015748},{"duration":0.17578125,"midi":50,"time":4.145833333333333,"velocity":0.3937007874015748},{"duration":0.05989583333333304,"midi":93,"time":4.15625,"velocity":0.3937007874015748},{"duration":0.17708333333333304,"midi":91,"time":4.15625,"velocity":0.3937007874015748},{"duration":0.30078125,"midi":65,"time":4.25,"velocity":0.3937007874015748},{"duration":0.55078125,"midi":77,"time":4.25,"velocity":0.3937007874015748},{"duration":0.17447916666666696,"midi":89,"time":4.263020833333333,"velocity":0.3937007874015748},{"duration":0.17578125,"midi":50,"time":4.3203125,"velocity":0.3937007874015748},{"duration":0.05859375,"midi":93,"time":4.35546875,"velocity":0.3937007874015748},{"duration":0.05989583333333304,"midi":56,"time":4.447916666666667,"velocity":0.3937007874015748},{"duration":0.30078125,"midi":57,"time":4.483072916666667,"velocity":0.3937007874015748},{"duration":0.30078125,"midi":50,"time":4.483072916666667,"velocity":0.3937007874015748},{"duration":0.17578125,"midi":65,"time":4.553385416666667,"velocity":0.3937007874015748},{"duration":0.17447916666666607,"midi":62,"time":4.694010416666667,"velocity":0.3937007874015748},{"duration":0.05859375,"midi":93,"time":4.705729166666667,"velocity":0.3937007874015748},{"duration":0.05989583333333304,"midi":60,"time":4.8203125,"velocity":0.3937007874015748},{"duration":0.05989583333333304,"midi":41,"time":4.84375,"velocity":0.3937007874015748},{"duration":0.05989583333333304,"midi":64,"time":4.84375,"velocity":0.3937007874015748},{"duration":0.05859375,"midi":86,"time":4.85546875,"velocity":0.3937007874015748},{"duration":0.05859375,"midi":89,"time":4.85546875,"velocity":0.3937007874015748},{"duration":0.05859375,"midi":37,"time":4.85546875,"velocity":0.3937007874015748},{"duration":0.05729166666666696,"midi":70,"time":4.8671875,"velocity":0.3937007874015748},{"duration":0.05729166666666696,"midi":51,"time":4.8671875,"velocity":0.3937007874015748},{"duration":0.05729166666666696,"midi":36,"time":4.8671875,"velocity":0.3937007874015748},{"duration":0.42317708333333304,"midi":50,"time":4.890625,"velocity":0.3937007874015748},{"duration":0.05729166666666696,"midi":60,"time":4.890625,"velocity":0.3937007874015748},{"duration":0.05598958333333304,"midi":87,"time":4.90234375,"velocity":0.3937007874015748},{"duration":0.05598958333333304,"midi":43,"time":4.90234375,"velocity":0.3937007874015748},{"duration":0.171875,"midi":91,"time":4.9140625,"velocity":0.3937007874015748},{"duration":0.42317708333333304,"midi":91,"time":4.9140625,"velocity":0.3937007874015748},{"duration":0.057291666666666075,"midi":77,"time":4.924479166666667,"velocity":0.3937007874015748},{"duration":0.4244791666666661,"midi":84,"time":4.924479166666667,"velocity":0.3937007874015748},{"duration":0.29817708333333304,"midi":72,"time":4.924479166666667,"velocity":0.3937007874015748},{"duration":0.29947916666666696,"midi":88,"time":4.934895833333333,"velocity":0.3937007874015748},{"duration":0.05859375,"midi":31,"time":4.934895833333333,"velocity":0.3937007874015748},{"duration":0.05729166666666696,"midi":59,"time":4.946614583333333,"velocity":0.3937007874015748},{"duration":0.17317708333333393,"midi":43,"time":4.958333333333333,"velocity":0.3937007874015748},{"duration":0.05859375,"midi":31,"time":4.98046875,"velocity":0.3937007874015748},{"duration":0.05859375,"midi":60,"time":5.00390625,"velocity":0.3937007874015748},{"duration":0.05859375,"midi":82,"time":5.02734375,"velocity":0.3937007874015748},{"duration":0.05729166666666696,"midi":31,"time":5.0390625,"velocity":0.3937007874015748},{"duration":0.5533854166666661,"midi":43,"time":5.084635416666667,"velocity":0.3937007874015748},{"duration":0.42708333333333304,"midi":65,"time":5.084635416666667,"velocity":0.3937007874015748},{"duration":0.059895833333333925,"midi":31,"time":5.095052083333333,"velocity":0.3937007874015748},{"duration":0.16536458333333304,"midi":31,"time":5.143229166666667,"velocity":0.3937007874015748},{"duration":0.17578125,"midi":58,"time":5.190104166666667,"velocity":0.3937007874015748},{"duration":0.30078125,"midi":89,"time":5.236979166666667,"velocity":0.3937007874015748},{"duration":0.17578125,"midi":86,"time":5.236979166666667,"velocity":0.3937007874015748},{"duration":0.30078125,"midi":94,"time":5.248697916666667,"velocity":0.3937007874015748},{"duration":0.07161458333333304,"midi":31,"time":5.248697916666667,"velocity":0.3937007874015748},{"duration":0.05859375,"midi":50,"time":5.26171875,"velocity":0.3937007874015748},{"duration":0.05859375,"midi":50,"time":5.319010416666667,"velocity":0.3937007874015748},{"duration":0.17578125,"midi":88,"time":5.329427083333333,"velocity":0.3937007874015748},{"duration":0.05989583333333304,"midi":86,"time":5.377604166666667,"velocity":0.3937007874015748},{"duration":0.05989583333333304,"midi":91,"time":5.377604166666667,"velocity":0.3937007874015748},{"duration":0.059895833333333925,"midi":31,"time":5.399739583333333,"velocity":0.3937007874015748},{"duration":0.059895833333333925,"midi":50,"time":5.399739583333333,"velocity":0.3937007874015748},{"duration":0.17708333333333393,"midi":88,"time":5.446614583333333,"velocity":0.3937007874015748},{"duration":0.17578125,"midi":31,"time":5.459635416666667,"velocity":0.3937007874015748},{"duration":0.16536458333333304,"midi":50,"time":5.459635416666667,"velocity":0.3937007874015748},{"duration":0.6744791666666661,"midi":65,"time":5.459635416666667,"velocity":0.3937007874015748},{"duration":0.42578125,"midi":77,"time":5.470052083333333,"velocity":0.3937007874015748},{"duration":0.17578125,"midi":87,"time":5.505208333333333,"velocity":0.3937007874015748},{"duration":0.059895833333333925,"midi":58,"time":5.516927083333333,"velocity":0.3937007874015748},{"duration":0.17578125,"midi":89,"time":5.540364583333333,"velocity":0.3937007874015748},{"duration":0.0703125,"midi":50,"time":5.565104166666667,"velocity":0.3937007874015748},{"duration":0.059895833333333925,"midi":93,"time":5.587239583333333,"velocity":0.3937007874015748},{"duration":0.05859375,"midi":68,"time":5.598958333333333,"velocity":0.3937007874015748},{"duration":0.05859375,"midi":50,"time":5.611979166666667,"velocity":0.3937007874015748},{"duration":0.05859375,"midi":60,"time":5.611979166666667,"velocity":0.3937007874015748},{"duration":0.057291666666666075,"midi":51,"time":5.623697916666667,"velocity":0.3937007874015748},{"duration":0.05859375,"midi":50,"time":5.634114583333333,"velocity":0.3937007874015748},{"duration":0.05859375,"midi":31,"time":5.657552083333333,"velocity":0.3937007874015748},{"duration":0.05859375,"midi":58,"time":5.680989583333333,"velocity":0.3937007874015748},{"duration":0.17578125,"midi":58,"time":5.7265625,"velocity":0.3937007874015748},{"duration":0.17578125,"midi":31,"time":5.7265625,"velocity":0.3937007874015748},{"duration":0.05989583333333304,"midi":50,"time":5.796875,"velocity":0.3937007874015748},{"duration":0.05859375,"midi":58,"time":5.84375,"velocity":0.3937007874015748},{"duration":0.42447916666666696,"midi":74,"time":5.85546875,"velocity":0.3937007874015748},{"duration":0.2994791666666661,"midi":62,"time":5.865885416666667,"velocity":0.3937007874015748},{"duration":0.17447916666666607,"midi":50,"time":6.029947916666667,"velocity":0.3937007874015748},{"duration":0.17578125,"midi":43,"time":6.052083333333333,"velocity":0.3937007874015748},{"duration":0.059895833333333925,"midi":58,"time":6.180989583333333,"velocity":0.3937007874015748},{"duration":0.059895833333333925,"midi":65,"time":6.180989583333333,"velocity":0.3937007874015748},{"duration":0.05989583333333304,"midi":63,"time":6.21484375,"velocity":0.3937007874015748},{"duration":0.05859375,"midi":60,"time":6.227864583333333,"velocity":0.3937007874015748},{"duration":0.5481770833333339,"midi":84,"time":6.239583333333333,"velocity":0.3937007874015748},{"duration":0.5481770833333339,"midi":91,"time":6.239583333333333,"velocity":0.3937007874015748},{"duration":0.5481770833333339,"midi":88,"time":6.239583333333333,"velocity":0.3937007874015748},{"duration":0.05859375,"midi":63,"time":6.25,"velocity":0.3937007874015748},{"duration":0.05989583333333304,"midi":65,"time":6.365885416666667,"velocity":0.3937007874015748},{"duration":0.05859375,"midi":60,"time":6.37890625,"velocity":0.3937007874015748},{"duration":0.05729166666666696,"midi":70,"time":6.390625,"velocity":0.3937007874015748},{"duration":0.05729166666666696,"midi":41,"time":6.390625,"velocity":0.3937007874015748},{"duration":0.171875,"midi":65,"time":6.42578125,"velocity":0.3937007874015748},{"duration":0.17317708333333304,"midi":50,"time":6.436197916666667,"velocity":0.3937007874015748},{"duration":0.057291666666666075,"midi":58,"time":6.436197916666667,"velocity":0.3937007874015748},{"duration":0.670572916666667,"midi":43,"time":6.446614583333333,"velocity":0.3937007874015748},{"duration":0.05859375,"midi":31,"time":6.493489583333333,"velocity":0.3937007874015748},{"duration":0.05989583333333304,"midi":59,"time":6.50390625,"velocity":0.3937007874015748},{"duration":0.05859375,"midi":64,"time":6.57421875,"velocity":0.3937007874015748},{"duration":0.05859375,"midi":60,"time":6.57421875,"velocity":0.3937007874015748},{"duration":0.05859375,"midi":64,"time":6.609375,"velocity":0.3937007874015748},{"duration":0.17578125,"midi":50,"time":6.609375,"velocity":0.3937007874015748},{"duration":0.17578125,"midi":65,"time":6.631510416666667,"velocity":0.3937007874015748},{"duration":0.05989583333333304,"midi":60,"time":6.643229166666667,"velocity":0.3937007874015748},{"duration":0.296875,"midi":89,"time":6.725260416666667,"velocity":0.3937007874015748},{"duration":0.05989583333333304,"midi":70,"time":6.725260416666667,"velocity":0.3937007874015748},{"duration":0.059895833333333925,"midi":31,"time":6.747395833333333,"velocity":0.3937007874015748},{"duration":0.05859375,"midi":64,"time":6.760416666666667,"velocity":0.3937007874015748},{"duration":0.05859375,"midi":60,"time":6.772135416666667,"velocity":0.3937007874015748},{"duration":0.171875,"midi":70,"time":6.783854166666667,"velocity":0.3937007874015748},{"duration":0.05859375,"midi":63,"time":6.807291666666667,"velocity":0.3937007874015748},{"duration":0.171875,"midi":86,"time":6.817708333333333,"velocity":0.3937007874015748},{"duration":0.05859375,"midi":63,"time":6.841145833333333,"velocity":0.3937007874015748},{"duration":0.05729166666666696,"midi":50,"time":6.852864583333333,"velocity":0.3937007874015748},{"duration":0.17057291666666696,"midi":94,"time":6.864583333333333,"velocity":0.3937007874015748},{"duration":0.296875,"midi":65,"time":6.876302083333333,"velocity":0.3937007874015748},{"duration":0.05729166666666696,"midi":31,"time":6.8984375,"velocity":0.3937007874015748},{"duration":0.05729166666666696,"midi":50,"time":6.91015625,"velocity":0.3937007874015748},{"duration":0.421875,"midi":77,"time":6.955729166666667,"velocity":0.3937007874015748},{"duration":0.05859375,"midi":60,"time":6.966145833333333,"velocity":0.3937007874015748},{"duration":0.05859375,"midi":70,"time":7.001302083333333,"velocity":0.3937007874015748},{"duration":0.05859375,"midi":93,"time":7.001302083333333,"velocity":0.3937007874015748},{"duration":0.05859375,"midi":31,"time":7.024739583333333,"velocity":0.3937007874015748},{"duration":0.05989583333333304,"midi":44,"time":7.0703125,"velocity":0.3937007874015748},{"duration":0.05859375,"midi":68,"time":7.140625,"velocity":0.3937007874015748},{"duration":0.05859375,"midi":60,"time":7.140625,"velocity":0.3937007874015748},{"duration":0.05859375,"midi":51,"time":7.15234375,"velocity":0.3937007874015748},{"duration":0.6744791666666661,"midi":45,"time":7.197916666666667,"velocity":0.3937007874015748},{"duration":0.05859375,"midi":52,"time":7.197916666666667,"velocity":0.3937007874015748},{"duration":0.05859375,"midi":61,"time":7.221354166666667,"velocity":0.3937007874015748},{"duration":0.17317708333333393,"midi":64,"time":7.243489583333333,"velocity":0.3937007874015748},{"duration":0.05859375,"midi":52,"time":7.278645833333333,"velocity":0.3937007874015748},{"duration":0.05859375,"midi":61,"time":7.302083333333333,"velocity":0.3937007874015748},{"duration":0.17317708333333393,"midi":33,"time":7.337239583333333,"velocity":0.3937007874015748},{"duration":0.05729166666666696,"midi":76,"time":7.337239583333333,"velocity":0.3937007874015748},{"duration":0.17447916666666696,"midi":77,"time":7.34765625,"velocity":0.3937007874015748},{"duration":0.05859375,"midi":52,"time":7.34765625,"velocity":0.3937007874015748},{"duration":0.29947916666666696,"midi":60,"time":7.34765625,"velocity":0.3937007874015748},{"duration":0.17447916666666696,"midi":65,"time":7.359375,"velocity":0.3937007874015748},{"duration":0.05859375,"midi":52,"time":7.393229166666667,"velocity":0.3937007874015748},{"duration":0.05989583333333304,"midi":33,"time":7.486979166666667,"velocity":0.3937007874015748},{"duration":0.05989583333333304,"midi":55,"time":7.522135416666667,"velocity":0.3937007874015748},{"duration":0.17578125,"midi":77,"time":7.533854166666667,"velocity":0.3937007874015748},{"duration":0.05859375,"midi":56,"time":7.545572916666667,"velocity":0.3937007874015748},{"duration":0.17578125,"midi":64,"time":7.557291666666667,"velocity":0.3937007874015748},{"duration":0.05859375,"midi":70,"time":7.569010416666667,"velocity":0.3937007874015748},{"duration":0.3020833333333339,"midi":33,"time":7.649739583333333,"velocity":0.3937007874015748},{"duration":0.059895833333333925,"midi":65,"time":7.649739583333333,"velocity":0.3937007874015748},{"duration":0.059895833333333925,"midi":60,"time":7.661458333333333,"velocity":0.3937007874015748},{"duration":0.059895833333333925,"midi":65,"time":7.696614583333333,"velocity":0.3937007874015748},{"duration":0.059895833333333925,"midi":65,"time":7.743489583333333,"velocity":0.3937007874015748},{"duration":0.05859375,"midi":65,"time":7.791666666666667,"velocity":0.3937007874015748},{"duration":0.05859375,"midi":52,"time":7.803385416666667,"velocity":0.3937007874015748},{"duration":0.17578125,"midi":64,"time":7.813802083333333,"velocity":0.3937007874015748},{"duration":0.05989583333333304,"midi":65,"time":7.89453125,"velocity":0.3937007874015748},{"duration":0.05989583333333304,"midi":64,"time":7.9296875,"velocity":0.3937007874015748},{"duration":0.4244791666666661,"midi":94,"time":7.9296875,"velocity":0.3937007874015748},{"duration":0.5494791666666661,"midi":89,"time":7.9296875,"velocity":0.3937007874015748},{"duration":0.05859375,"midi":60,"time":7.94140625,"velocity":0.3937007874015748},{"duration":0.05859375,"midi":41,"time":7.94140625,"velocity":0.3937007874015748},{"duration":0.29947916666666696,"midi":70,"time":7.954427083333333,"velocity":0.3937007874015748},{"duration":0.17447916666666696,"midi":86,"time":7.954427083333333,"velocity":0.3937007874015748},{"duration":0.42317708333333304,"midi":74,"time":7.954427083333333,"velocity":0.3937007874015748},{"duration":0.05859375000000089,"midi":37,"time":7.954427083333333,"velocity":0.3937007874015748},{"duration":0.059895833333333925,"midi":63,"time":7.96484375,"velocity":0.3937007874015748},{"duration":0.059895833333333925,"midi":47,"time":7.96484375,"velocity":0.3937007874015748},{"duration":0.80078125,"midi":53,"time":7.9765625,"velocity":0.3937007874015748},{"duration":0.17447916666666696,"midi":46,"time":7.989583333333333,"velocity":0.3937007874015748},{"duration":0.05859375000000089,"midi":30,"time":7.989583333333333,"velocity":0.3937007874015748},{"duration":0.059895833333333925,"midi":64,"time":8,"velocity":0.3937007874015748},{"duration":0.059895833333333925,"midi":60,"time":8.127604166666666,"velocity":0.3937007874015748},{"duration":0.05859375,"midi":34,"time":8.140625,"velocity":0.3937007874015748},{"duration":0.05859375,"midi":34,"time":8.17578125,"velocity":0.3937007874015748},{"duration":0.55078125,"midi":46,"time":8.17578125,"velocity":0.3937007874015748},{"duration":0.05859375,"midi":70,"time":8.197916666666666,"velocity":0.3937007874015748},{"duration":0.05859375,"midi":33,"time":8.233072916666666,"velocity":0.3937007874015748},{"duration":0.05859375,"midi":34,"time":8.256510416666666,"velocity":0.3937007874015748},{"duration":0.42578125,"midi":62,"time":8.266927083333334,"velocity":0.3937007874015748},{"duration":0.1640625,"midi":34,"time":8.32421875,"velocity":0.3937007874015748},{"duration":0.30078125,"midi":88,"time":8.337239583333334,"velocity":0.3937007874015748},{"duration":0.30078125,"midi":69,"time":8.337239583333334,"velocity":0.3937007874015748},{"duration":0.30078125,"midi":91,"time":8.337239583333334,"velocity":0.3937007874015748},{"duration":0.30078125,"midi":88,"time":8.337239583333334,"velocity":0.3937007874015748},{"duration":0.17578125,"midi":94,"time":8.393229166666666,"velocity":0.3937007874015748},{"duration":0.0703125,"midi":34,"time":8.428385416666666,"velocity":0.3937007874015748},{"duration":0.059895833333333925,"midi":85,"time":8.428385416666666,"velocity":0.3937007874015748},{"duration":0.17708333333333393,"midi":89,"time":8.463541666666666,"velocity":0.3937007874015748},{"duration":0.17578125,"midi":34,"time":8.48828125,"velocity":0.3937007874015748},{"duration":0.06119791666666785,"midi":66,"time":8.557291666666666,"velocity":0.3937007874015748},{"duration":0.17708333333333393,"midi":77,"time":8.569010416666666,"velocity":0.3937007874015748},{"duration":0.30078125,"midi":89,"time":8.580729166666666,"velocity":0.3937007874015748},{"duration":0.17708333333333393,"midi":94,"time":8.580729166666666,"velocity":0.3937007874015748},{"duration":0.17708333333333393,"midi":93,"time":8.592447916666666,"velocity":0.3937007874015748},{"duration":0.059895833333333925,"midi":88,"time":8.627604166666666,"velocity":0.3937007874015748},{"duration":0.059895833333333925,"midi":34,"time":8.67578125,"velocity":0.3937007874015748},{"duration":0.17447916666666785,"midi":84,"time":8.697916666666666,"velocity":0.3937007874015748},{"duration":0.059895833333333925,"midi":76,"time":8.709635416666666,"velocity":0.3937007874015748},{"duration":0.059895833333333925,"midi":68,"time":8.709635416666666,"velocity":0.3937007874015748},{"duration":0.059895833333333925,"midi":81,"time":8.709635416666666,"velocity":0.3937007874015748},{"duration":0.05859375,"midi":51,"time":8.72265625,"velocity":0.3937007874015748},{"duration":0.05859375,"midi":60,"time":8.72265625,"velocity":0.3937007874015748},{"duration":0.05859375,"midi":82,"time":8.72265625,"velocity":0.3937007874015748},{"duration":0.05859375,"midi":61,"time":8.744791666666666,"velocity":0.3937007874015748},{"duration":0.057291666666666075,"midi":34,"time":8.76953125,"velocity":0.3937007874015748},{"duration":0.05989583333333215,"midi":50,"time":8.895833333333334,"velocity":0.3937007874015748},{"duration":0.55078125,"midi":74,"time":8.930989583333334,"velocity":0.3937007874015748},{"duration":0.17578125,"midi":57,"time":8.930989583333334,"velocity":0.3937007874015748},{"duration":0.17578125,"midi":65,"time":8.930989583333334,"velocity":0.3937007874015748},{"duration":0.30078125,"midi":88,"time":8.942708333333334,"velocity":0.3937007874015748},{"duration":0.30078125,"midi":90,"time":8.942708333333334,"velocity":0.3937007874015748},{"duration":0.42447916666666785,"midi":62,"time":8.955729166666666,"velocity":0.3937007874015748},{"duration":0.30078125,"midi":84,"time":8.955729166666666,"velocity":0.3937007874015748},{"duration":0.05989583333333215,"midi":93,"time":8.977864583333334,"velocity":0.3937007874015748},{"duration":0.17578125,"midi":89,"time":9.013020833333334,"velocity":0.3937007874015748},{"duration":0.17578125,"midi":46,"time":9.106770833333334,"velocity":0.3937007874015748},{"duration":0.17578125,"midi":53,"time":9.106770833333334,"velocity":0.3937007874015748},{"duration":0.17578125,"midi":34,"time":9.153645833333334,"velocity":0.3937007874015748},{"duration":0.059895833333333925,"midi":33,"time":9.28125,"velocity":0.3937007874015748},{"duration":0.17447916666666607,"midi":90,"time":9.3046875,"velocity":0.3937007874015748},{"duration":0.059895833333333925,"midi":63,"time":9.3046875,"velocity":0.3937007874015748},{"duration":0.05859375,"midi":60,"time":9.31640625,"velocity":0.3937007874015748},{"duration":0.057291666666666075,"midi":63,"time":9.341145833333334,"velocity":0.3937007874015748},{"duration":0.05859375,"midi":60,"time":9.3515625,"velocity":0.3937007874015748},{"duration":0.17578125,"midi":58,"time":9.375,"velocity":0.3937007874015748},{"duration":0.17708333333333215,"midi":65,"time":9.477864583333334,"velocity":0.3937007874015748},{"duration":0.059895833333333925,"midi":58,"time":9.490885416666666,"velocity":0.3937007874015748},{"duration":0.059895833333333925,"midi":86,"time":9.490885416666666,"velocity":0.3937007874015748},{"duration":0.17578125,"midi":84,"time":9.502604166666666,"velocity":0.3937007874015748},{"duration":0.17447916666666785,"midi":53,"time":9.549479166666666,"velocity":0.3937007874015748},{"duration":0.80078125,"midi":46,"time":9.549479166666666,"velocity":0.3937007874015748},{"duration":0.05989583333333215,"midi":89,"time":9.595052083333334,"velocity":0.3937007874015748},{"duration":0.42578125,"midi":94,"time":9.595052083333334,"velocity":0.3937007874015748},{"duration":0.17447916666666607,"midi":62,"time":9.595052083333334,"velocity":0.3937007874015748},{"duration":0.17317708333333393,"midi":91,"time":9.608072916666666,"velocity":0.3937007874015748},{"duration":0.05859375,"midi":34,"time":9.619791666666666,"velocity":0.3937007874015748},{"duration":0.05859375,"midi":33,"time":9.654947916666666,"velocity":0.3937007874015748},{"duration":0.05859375,"midi":64,"time":9.678385416666666,"velocity":0.3937007874015748},{"duration":0.05859375,"midi":89,"time":9.688802083333334,"velocity":0.3937007874015748},{"duration":0.67578125,"midi":53,"time":9.688802083333334,"velocity":0.3937007874015748},{"duration":0.05859375,"midi":63,"time":9.700520833333334,"velocity":0.3937007874015748},{"duration":0.057291666666666075,"midi":34,"time":9.712239583333334,"velocity":0.3937007874015748},{"duration":0.17447916666666607,"midi":86,"time":9.735677083333334,"velocity":0.3937007874015748},{"duration":0.057291666666666075,"midi":90,"time":9.735677083333334,"velocity":0.3937007874015748},{"duration":0.30078125,"midi":34,"time":9.74609375,"velocity":0.3937007874015748},{"duration":0.05859375,"midi":91,"time":9.76953125,"velocity":0.3937007874015748},{"duration":0.17708333333333393,"midi":89,"time":9.850260416666666,"velocity":0.3937007874015748},{"duration":0.059895833333333925,"midi":60,"time":9.897135416666666,"velocity":0.3937007874015748},{"duration":0.059895833333333925,"midi":63,"time":9.91015625,"velocity":0.3937007874015748},{"duration":0.059895833333333925,"midi":77,"time":9.932291666666666,"velocity":0.3937007874015748},{"duration":0.059895833333333925,"midi":63,"time":9.944010416666666,"velocity":0.3937007874015748},{"duration":0.05859375,"midi":91,"time":10.014322916666666,"velocity":0.3937007874015748},{"duration":0.057291666666666075,"midi":34,"time":10.02734375,"velocity":0.3937007874015748},{"duration":0.17578125,"midi":62,"time":10.083333333333334,"velocity":0.3937007874015748},{"duration":0.17708333333333393,"midi":34,"time":10.09375,"velocity":0.3937007874015748},{"duration":0.17708333333333393,"midi":89,"time":10.09375,"velocity":0.3937007874015748},{"duration":0.05989583333333215,"midi":77,"time":10.106770833333334,"velocity":0.3937007874015748},{"duration":0.05989583333333215,"midi":94,"time":10.153645833333334,"velocity":0.3937007874015748},{"duration":0.1640625,"midi":34,"time":10.200520833333334,"velocity":0.3937007874015748},{"duration":0.05989583333333215,"midi":94,"time":10.259114583333334,"velocity":0.3937007874015748},{"duration":0.05989583333333215,"midi":68,"time":10.259114583333334,"velocity":0.3937007874015748},{"duration":0.05989583333333215,"midi":74,"time":10.270833333333334,"velocity":0.3937007874015748},{"duration":0.05989583333333215,"midi":51,"time":10.270833333333334,"velocity":0.3937007874015748},{"duration":0.05989583333333215,"midi":50,"time":10.294270833333334,"velocity":0.3937007874015748},{"duration":0.06901041666666607,"midi":34,"time":10.305989583333334,"velocity":0.3937007874015748},{"duration":0.05859375,"midi":60,"time":10.305989583333334,"velocity":0.3937007874015748},{"duration":0.05859375,"midi":70,"time":10.305989583333334,"velocity":0.3937007874015748},{"duration":0.17317708333333215,"midi":46,"time":10.341145833333334,"velocity":0.3937007874015748},{"duration":0.057291666666666075,"midi":62,"time":10.352864583333334,"velocity":0.3937007874015748},{"duration":0.17317708333333215,"midi":34,"time":10.352864583333334,"velocity":0.3937007874015748},{"duration":0.059895833333333925,"midi":53,"time":10.397135416666666,"velocity":0.3937007874015748},{"duration":0.05859375,"midi":34,"time":10.467447916666666,"velocity":0.3937007874015748},{"duration":0.17447916666666785,"midi":34,"time":10.526041666666666,"velocity":0.3937007874015748},{"duration":0.05859375,"midi":53,"time":10.583333333333334,"velocity":0.3937007874015748},{"duration":0.17447916666666607,"midi":46,"time":10.583333333333334,"velocity":0.3937007874015748},{"duration":0.4270833333333339,"midi":62,"time":10.65234375,"velocity":0.3937007874015748},{"duration":0.059895833333333925,"midi":34,"time":10.65234375,"velocity":0.3937007874015748},{"duration":0.059895833333333925,"midi":65,"time":10.67578125,"velocity":0.3937007874015748},{"duration":0.17578125,"midi":57,"time":10.6875,"velocity":0.3937007874015748},{"duration":0.17578125,"midi":65,"time":10.734375,"velocity":0.3937007874015748},{"duration":0.17578125,"midi":34,"time":10.76953125,"velocity":0.3937007874015748},{"duration":0.17578125,"midi":46,"time":10.76953125,"velocity":0.3937007874015748},{"duration":0.17578125,"midi":57,"time":10.861979166666666,"velocity":0.3937007874015748},{"duration":0.059895833333333925,"midi":41,"time":11.049479166666666,"velocity":0.3937007874015748},{"duration":0.059895833333333925,"midi":60,"time":11.049479166666666,"velocity":0.3937007874015748},{"duration":0.059895833333333925,"midi":64,"time":11.049479166666666,"velocity":0.3937007874015748},{"duration":0.42838541666666785,"midi":69,"time":11.072916666666666,"velocity":0.3937007874015748},{"duration":0.059895833333333925,"midi":63,"time":11.084635416666666,"velocity":0.3937007874015748},{"duration":0.059895833333333925,"midi":28,"time":11.096354166666666,"velocity":0.3937007874015748},{"duration":0.4270833333333339,"midi":57,"time":11.096354166666666,"velocity":0.3937007874015748},{"duration":0.17708333333333393,"midi":52,"time":11.096354166666666,"velocity":0.3937007874015748},{"duration":0.8020833333333339,"midi":45,"time":11.109375,"velocity":0.3937007874015748},{"duration":0.059895833333333925,"midi":33,"time":11.14453125,"velocity":0.3937007874015748},{"duration":0.059895833333333925,"midi":61,"time":11.1796875,"velocity":0.3937007874015748},{"duration":0.059895833333333925,"midi":33,"time":11.1796875,"velocity":0.3937007874015748},{"duration":0.17447916666666607,"midi":91,"time":11.23828125,"velocity":0.3937007874015748},{"duration":0.059895833333333925,"midi":52,"time":11.26171875,"velocity":0.3937007874015748},{"duration":0.05859375,"midi":33,"time":11.28515625,"velocity":0.3937007874015748},{"duration":0.17447916666666607,"midi":88,"time":11.298177083333334,"velocity":0.3937007874015748},{"duration":0.42578125,"midi":64,"time":11.298177083333334,"velocity":0.3937007874015748},{"duration":0.2994791666666661,"midi":52,"time":11.298177083333334,"velocity":0.3937007874015748},{"duration":0.05859375,"midi":33,"time":11.3203125,"velocity":0.3937007874015748},{"duration":0.05859375,"midi":85,"time":11.34375,"velocity":0.3937007874015748},{"duration":0.17447916666666785,"midi":60,"time":11.401041666666666,"velocity":0.3937007874015748},{"duration":0.05989583333333215,"midi":33,"time":11.446614583333334,"velocity":0.3937007874015748},{"duration":0.05989583333333215,"midi":84,"time":11.446614583333334,"velocity":0.3937007874015748},{"duration":0.17708333333333215,"midi":94,"time":11.446614583333334,"velocity":0.3937007874015748},{"duration":0.4270833333333339,"midi":86,"time":11.459635416666666,"velocity":0.3937007874015748},{"duration":0.2578125,"midi":89,"time":11.459635416666666,"velocity":0.3937007874015748},{"duration":0.17578125,"midi":90,"time":11.483072916666666,"velocity":0.3937007874015748},{"duration":0.17578125,"midi":58,"time":11.483072916666666,"velocity":0.3937007874015748},{"duration":0.17578125,"midi":84,"time":11.483072916666666,"velocity":0.3937007874015748},{"duration":0.17578125,"midi":33,"time":11.506510416666666,"velocity":0.3937007874015748},{"duration":0.22135416666666607,"midi":89,"time":11.540364583333334,"velocity":0.3937007874015748},{"duration":0.17708333333333215,"midi":87,"time":11.563802083333334,"velocity":0.3937007874015748},{"duration":0.17708333333333215,"midi":90,"time":11.587239583333334,"velocity":0.3937007874015748},{"duration":0.059895833333333925,"midi":52,"time":11.611979166666666,"velocity":0.3937007874015748},{"duration":0.17578125,"midi":77,"time":11.623697916666666,"velocity":0.3937007874015748},{"duration":0.05859375,"midi":58,"time":11.635416666666666,"velocity":0.3937007874015748},{"duration":0.17578125,"midi":33,"time":11.658854166666666,"velocity":0.3937007874015748},{"duration":0.05859375,"midi":60,"time":11.670572916666666,"velocity":0.3937007874015748},{"duration":0.05989583333333215,"midi":91,"time":11.704427083333334,"velocity":0.3937007874015748},{"duration":0.05989583333333215,"midi":58,"time":11.716145833333334,"velocity":0.3937007874015748},{"duration":0.05989583333333215,"midi":94,"time":11.716145833333334,"velocity":0.3937007874015748},{"duration":0.059895833333333925,"midi":60,"time":11.729166666666666,"velocity":0.3937007874015748},{"duration":0.17447916666666607,"midi":90,"time":11.751302083333334,"velocity":0.3937007874015748},{"duration":0.05989583333333215,"midi":71,"time":11.821614583333334,"velocity":0.3937007874015748},{"duration":0.05989583333333215,"midi":52,"time":11.821614583333334,"velocity":0.3937007874015748},{"duration":0.05859375,"midi":68,"time":11.833333333333334,"velocity":0.3937007874015748},{"duration":0.05859375,"midi":77,"time":11.833333333333334,"velocity":0.3937007874015748},{"duration":0.05859375,"midi":74,"time":11.833333333333334,"velocity":0.3937007874015748},{"duration":0.42578125,"midi":88,"time":11.846354166666666,"velocity":0.3937007874015748},{"duration":0.05729166666666785,"midi":60,"time":11.846354166666666,"velocity":0.3937007874015748},{"duration":0.05729166666666785,"midi":51,"time":11.846354166666666,"velocity":0.3937007874015748},{"duration":0.17447916666666785,"midi":60,"time":11.881510416666666,"velocity":0.3937007874015748},{"duration":0.059895833333333925,"midi":46,"time":11.90234375,"velocity":0.3937007874015748},{"duration":0.061197916666666075,"midi":90,"time":11.9140625,"velocity":0.3937007874015748},{"duration":0.059895833333333925,"midi":84,"time":11.9375,"velocity":0.3937007874015748},{"duration":0.17578125,"midi":77,"time":11.984375,"velocity":0.3937007874015748},{"duration":0.059895833333333925,"midi":90,"time":11.984375,"velocity":0.3937007874015748},{"duration":0.059895833333333925,"midi":50,"time":12.01953125,"velocity":0.3937007874015748},{"duration":0.17447916666666607,"midi":79,"time":12.032552083333334,"velocity":0.3937007874015748},{"duration":0.059895833333333925,"midi":84,"time":12.0546875,"velocity":0.3937007874015748},{"duration":0.059895833333333925,"midi":90,"time":12.0546875,"velocity":0.3937007874015748},{"duration":0.17447916666666607,"midi":55,"time":12.067708333333334,"velocity":0.3937007874015748},{"duration":0.17447916666666607,"midi":64,"time":12.067708333333334,"velocity":0.3937007874015748},{"duration":0.17578125,"midi":72,"time":12.125,"velocity":0.3937007874015748},{"duration":0.17578125,"midi":60,"time":12.13671875,"velocity":0.3937007874015748},{"duration":0.17708333333333393,"midi":45,"time":12.229166666666666,"velocity":0.3937007874015748},{"duration":0.3020833333333339,"midi":52,"time":12.229166666666666,"velocity":0.3937007874015748},{"duration":0.4296875,"midi":90,"time":12.252604166666666,"velocity":0.3937007874015748},{"duration":0.4296875,"midi":74,"time":12.252604166666666,"velocity":0.3937007874015748},{"duration":0.8046875,"midi":90,"time":12.265625,"velocity":0.3937007874015748},{"duration":0.4283854166666661,"midi":84,"time":12.265625,"velocity":0.3937007874015748},{"duration":0.15234375,"midi":62,"time":12.27734375,"velocity":0.3937007874015748},{"duration":0.17578125,"midi":33,"time":12.30078125,"velocity":0.3937007874015748},{"duration":0.05859375,"midi":93,"time":12.3125,"velocity":0.3937007874015748},{"duration":0.08333333333333393,"midi":62,"time":12.369791666666666,"velocity":0.3937007874015748},{"duration":0.059895833333333925,"midi":44,"time":12.393229166666666,"velocity":0.3937007874015748},{"duration":0.05859375,"midi":64,"time":12.41796875,"velocity":0.3937007874015748},{"duration":0.17447916666666607,"midi":60,"time":12.4296875,"velocity":0.3937007874015748},{"duration":0.05859375,"midi":63,"time":12.475260416666666,"velocity":0.3937007874015748},{"duration":0.05859375,"midi":64,"time":12.510416666666666,"velocity":0.3937007874015748},{"duration":0.42578125,"midi":88,"time":12.533854166666666,"velocity":0.3937007874015748},{"duration":0.17708333333333393,"midi":93,"time":12.533854166666666,"velocity":0.3937007874015748},{"duration":0.06119791666666785,"midi":63,"time":12.615885416666666,"velocity":0.3937007874015748},{"duration":0.06119791666666785,"midi":94,"time":12.627604166666666,"velocity":0.3937007874015748},{"duration":0.4270833333333339,"midi":76,"time":12.639322916666666,"velocity":0.3937007874015748},{"duration":0.059895833333333925,"midi":41,"time":12.639322916666666,"velocity":0.3937007874015748},{"duration":0.4270833333333339,"midi":92,"time":12.639322916666666,"velocity":0.3937007874015748},{"duration":0.4270833333333339,"midi":64,"time":12.639322916666666,"velocity":0.3937007874015748},{"duration":0.05859375,"midi":37,"time":12.65234375,"velocity":0.3937007874015748},{"duration":0.2981770833333339,"midi":95,"time":12.6640625,"velocity":0.3937007874015748},{"duration":0.4244791666666661,"midi":45,"time":12.67578125,"velocity":0.3937007874015748},{"duration":0.4244791666666661,"midi":52,"time":12.67578125,"velocity":0.3937007874015748},{"duration":0.17317708333333393,"midi":74,"time":12.69921875,"velocity":0.3937007874015748},{"duration":0.05859375,"midi":31,"time":12.709635416666666,"velocity":0.3937007874015748},{"duration":0.05859375,"midi":83,"time":12.813802083333334,"velocity":0.3937007874015748},{"duration":0.05859375,"midi":33,"time":12.8359375,"velocity":0.3937007874015748},{"duration":0.17838541666666607,"midi":33,"time":12.8828125,"velocity":0.3937007874015748},{"duration":0.059895833333333925,"midi":86,"time":12.91796875,"velocity":0.3937007874015748},{"duration":0.17578125,"midi":72,"time":12.986979166666666,"velocity":0.3937007874015748},{"duration":0.42578125,"midi":77,"time":13,"velocity":0.3937007874015748},{"duration":0.061197916666666075,"midi":69,"time":13,"velocity":0.3937007874015748},{"duration":0.061197916666666075,"midi":75,"time":13,"velocity":0.3937007874015748},{"duration":0.061197916666666075,"midi":60,"time":13,"velocity":0.3937007874015748},{"duration":0.061197916666666075,"midi":51,"time":13.01171875,"velocity":0.3937007874015748},{"duration":0.059895833333333925,"midi":61,"time":13.0234375,"velocity":0.3937007874015748},{"duration":0.059895833333333925,"midi":76,"time":13.0234375,"velocity":0.3937007874015748},{"duration":0.059895833333333925,"midi":68,"time":13.0234375,"velocity":0.3937007874015748},{"duration":0.059895833333333925,"midi":66,"time":13.0234375,"velocity":0.3937007874015748},{"duration":0.05859375,"midi":49,"time":13.036458333333334,"velocity":0.3937007874015748},{"duration":0.4244791666666661,"midi":89,"time":13.036458333333334,"velocity":0.3937007874015748},{"duration":0.42317708333333215,"midi":65,"time":13.048177083333334,"velocity":0.3937007874015748},{"duration":0.42057291666666785,"midi":45,"time":13.072916666666666,"velocity":0.3937007874015748},{"duration":0.05729166666666785,"midi":87,"time":13.072916666666666,"velocity":0.3937007874015748},{"duration":0.05729166666666785,"midi":90,"time":13.072916666666666,"velocity":0.3937007874015748},{"duration":0.17447916666666607,"midi":60,"time":13.083333333333334,"velocity":0.3937007874015748},{"duration":0.05859375,"midi":33,"time":13.09375,"velocity":0.3937007874015748},{"duration":0.057291666666666075,"midi":52,"time":13.10546875,"velocity":0.3937007874015748},{"duration":0.2994791666666661,"midi":93,"time":13.12890625,"velocity":0.3937007874015748},{"duration":0.05859375,"midi":90,"time":13.15234375,"velocity":0.3937007874015748},{"duration":0.05859375,"midi":33,"time":13.15234375,"velocity":0.3937007874015748},{"duration":0.17578125,"midi":60,"time":13.186197916666666,"velocity":0.3937007874015748},{"duration":0.059895833333333925,"midi":84,"time":13.244791666666666,"velocity":0.3937007874015748},{"duration":0.17447916666666785,"midi":87,"time":13.256510416666666,"velocity":0.3937007874015748},{"duration":0.13932291666666785,"midi":33,"time":13.256510416666666,"velocity":0.3937007874015748},{"duration":0.05859375,"midi":84,"time":13.256510416666666,"velocity":0.3937007874015748},{"duration":0.17317708333333393,"midi":52,"time":13.315104166666666,"velocity":0.3937007874015748},{"duration":0.09375,"midi":33,"time":13.337239583333334,"velocity":0.3937007874015748},{"duration":0.05989583333333215,"midi":60,"time":13.395833333333334,"velocity":0.3937007874015748},{"duration":0.4231770833333339,"midi":89,"time":13.40625,"velocity":0.3937007874015748},{"duration":0.059895833333333925,"midi":53,"time":13.40625,"velocity":0.3937007874015748},{"duration":0.059895833333333925,"midi":64,"time":13.40625,"velocity":0.3937007874015748},{"duration":0.059895833333333925,"midi":71,"time":13.40625,"velocity":0.3937007874015748},{"duration":0.4231770833333339,"midi":95,"time":13.40625,"velocity":0.3937007874015748},{"duration":0.27734375,"midi":91,"time":13.40625,"velocity":0.3937007874015748},{"duration":0.05859375,"midi":68,"time":13.419270833333334,"velocity":0.3937007874015748},{"duration":0.05859375,"midi":51,"time":13.419270833333334,"velocity":0.3937007874015748},{"duration":0.21875,"midi":86,"time":13.419270833333334,"velocity":0.3937007874015748},{"duration":0.421875,"midi":79,"time":13.419270833333334,"velocity":0.3937007874015748},{"duration":0.057291666666666075,"midi":63,"time":13.430989583333334,"velocity":0.3937007874015748},{"duration":0.057291666666666075,"midi":76,"time":13.430989583333334,"velocity":0.3937007874015748},{"duration":0.17057291666666607,"midi":65,"time":13.442708333333334,"velocity":0.3937007874015748},{"duration":0.05598958333333215,"midi":52,"time":13.454427083333334,"velocity":0.3937007874015748},{"duration":0.05859375,"midi":46,"time":13.486979166666666,"velocity":0.3937007874015748},{"duration":0.05859375,"midi":31,"time":13.498697916666666,"velocity":0.3937007874015748},{"duration":0.05729166666666785,"midi":45,"time":13.510416666666666,"velocity":0.3937007874015748},{"duration":0.19270833333333393,"midi":91,"time":13.510416666666666,"velocity":0.3937007874015748},{"duration":0.05729166666666785,"midi":33,"time":13.545572916666666,"velocity":0.3937007874015748},{"duration":0.17317708333333215,"midi":67,"time":13.555989583333334,"velocity":0.3937007874015748},{"duration":0.05859375,"midi":63,"time":13.567708333333334,"velocity":0.3937007874015748},{"duration":0.17447916666666607,"midi":60,"time":13.567708333333334,"velocity":0.3937007874015748},{"duration":0.13671875,"midi":86,"time":13.578125,"velocity":0.3937007874015748},{"duration":0.05859375,"midi":48,"time":13.58984375,"velocity":0.3937007874015748},{"duration":0.05859375,"midi":47,"time":13.625,"velocity":0.3937007874015748},{"duration":0.05859375,"midi":65,"time":13.625,"velocity":0.3937007874015748},{"duration":0.05859375,"midi":46,"time":13.6484375,"velocity":0.3937007874015748},{"duration":0.17578125,"midi":91,"time":13.6484375,"velocity":0.3937007874015748},{"duration":0.17578125,"midi":67,"time":13.670572916666666,"velocity":0.3937007874015748},{"duration":0.05859375,"midi":44,"time":13.68359375,"velocity":0.3937007874015748},{"duration":0.05859375,"midi":77,"time":13.68359375,"velocity":0.3937007874015748},{"duration":0.059895833333333925,"midi":81,"time":13.694010416666666,"velocity":0.3937007874015748},{"duration":0.059895833333333925,"midi":45,"time":13.705729166666666,"velocity":0.3937007874015748},{"duration":0.059895833333333925,"midi":86,"time":13.705729166666666,"velocity":0.3937007874015748},{"duration":0.059895833333333925,"midi":44,"time":13.740885416666666,"velocity":0.3937007874015748},{"duration":0.296875,"midi":93,"time":13.740885416666666,"velocity":0.3937007874015748},{"duration":0.059895833333333925,"midi":66,"time":13.776041666666666,"velocity":0.3937007874015748},{"duration":0.059895833333333925,"midi":48,"time":13.776041666666666,"velocity":0.3937007874015748},{"duration":0.17447916666666785,"midi":84,"time":13.787760416666666,"velocity":0.3937007874015748},{"duration":0.05859375,"midi":77,"time":13.787760416666666,"velocity":0.3937007874015748},{"duration":0.18619791666666785,"midi":88,"time":13.787760416666666,"velocity":0.3937007874015748},{"duration":0.05859375,"midi":45,"time":13.787760416666666,"velocity":0.3937007874015748},{"duration":0.296875,"midi":81,"time":13.80078125,"velocity":0.3937007874015748},{"duration":0.2643229166666661,"midi":88,"time":13.80078125,"velocity":0.3937007874015748},{"duration":0.1953125,"midi":91,"time":13.80078125,"velocity":0.3937007874015748},{"duration":0.17447916666666785,"midi":57,"time":13.811197916666666,"velocity":0.3937007874015748},{"duration":0.05859375,"midi":43,"time":13.822916666666666,"velocity":0.3937007874015748},{"duration":0.17317708333333393,"midi":85,"time":13.822916666666666,"velocity":0.3937007874015748},{"duration":0.17317708333333393,"midi":89,"time":13.822916666666666,"velocity":0.3937007874015748},{"duration":0.05859375,"midi":42,"time":13.846354166666666,"velocity":0.3937007874015748},{"duration":0.05859375,"midi":95,"time":13.846354166666666,"velocity":0.3937007874015748},{"duration":0.05989583333333215,"midi":42,"time":13.891927083333334,"velocity":0.3937007874015748},{"duration":0.05859375,"midi":60,"time":13.903645833333334,"velocity":0.3937007874015748},{"duration":0.05859375,"midi":61,"time":13.927083333333334,"velocity":0.3937007874015748},{"duration":0.17317708333333215,"midi":57,"time":13.938802083333334,"velocity":0.3937007874015748},{"duration":0.057291666666666075,"midi":65,"time":13.938802083333334,"velocity":0.3937007874015748},{"duration":0.15885416666666607,"midi":91,"time":13.938802083333334,"velocity":0.3937007874015748},{"duration":0.057291666666666075,"midi":89,"time":13.962239583333334,"velocity":0.3937007874015748},{"duration":0.057291666666666075,"midi":94,"time":13.97265625,"velocity":0.3937007874015748},{"duration":0.057291666666666075,"midi":89,"time":13.97265625,"velocity":0.3937007874015748},{"duration":0.057291666666666075,"midi":44,"time":13.97265625,"velocity":0.3937007874015748},{"duration":0.078125,"midi":88,"time":14.006510416666666,"velocity":0.3937007874015748},{"duration":0.05859375,"midi":64,"time":14.018229166666666,"velocity":0.3937007874015748},{"duration":0.05859375,"midi":44,"time":14.018229166666666,"velocity":0.3937007874015748},{"duration":0.17708333333333393,"midi":72,"time":14.029947916666666,"velocity":0.3937007874015748},{"duration":0.17708333333333215,"midi":84,"time":14.040364583333334,"velocity":0.3937007874015748},{"duration":0.23307291666666607,"midi":88,"time":14.040364583333334,"velocity":0.3937007874015748},{"duration":0.17708333333333215,"midi":91,"time":14.040364583333334,"velocity":0.3937007874015748},{"duration":0.17578125,"midi":93,"time":14.052083333333334,"velocity":0.3937007874015748},{"duration":0.4908854166666661,"midi":88,"time":14.098958333333334,"velocity":0.3937007874015748},{"duration":0.061197916666666075,"midi":41,"time":14.098958333333334,"velocity":0.3937007874015748},{"duration":0.17317708333333393,"midi":74,"time":14.123697916666666,"velocity":0.3937007874015748},{"duration":0.171875,"midi":90,"time":14.135416666666666,"velocity":0.3937007874015748},{"duration":0.05859375,"midi":86,"time":14.1484375,"velocity":0.3937007874015748},{"duration":0.057291666666666075,"midi":63,"time":14.16015625,"velocity":0.3937007874015748},{"duration":0.057291666666666075,"midi":41,"time":14.16015625,"velocity":0.3937007874015748},{"duration":0.17057291666666607,"midi":69,"time":14.16015625,"velocity":0.3937007874015748},{"duration":0.057291666666666075,"midi":58,"time":14.16015625,"velocity":0.3937007874015748},{"duration":0.05729166666666785,"midi":38,"time":14.170572916666666,"velocity":0.3937007874015748},{"duration":0.055989583333333925,"midi":47,"time":14.18359375,"velocity":0.3937007874015748},{"duration":0.7981770833333339,"midi":57,"time":14.18359375,"velocity":0.3937007874015748},{"duration":0.055989583333333925,"midi":60,"time":14.18359375,"velocity":0.3937007874015748},{"duration":0.055989583333333925,"midi":37,"time":14.18359375,"velocity":0.3937007874015748},{"duration":0.421875,"midi":95,"time":14.205729166666666,"velocity":0.3937007874015748},{"duration":0.421875,"midi":76,"time":14.205729166666666,"velocity":0.3937007874015748},{"duration":0.421875,"midi":50,"time":14.205729166666666,"velocity":0.3937007874015748},{"duration":0.057291666666666075,"midi":29,"time":14.216145833333334,"velocity":0.3937007874015748},{"duration":0.05859375,"midi":91,"time":14.23828125,"velocity":0.3937007874015748},{"duration":0.05859375,"midi":93,"time":14.26171875,"velocity":0.3937007874015748},{"duration":0.05859375,"midi":40,"time":14.329427083333334,"velocity":0.3937007874015748},{"duration":0.5533854166666661,"midi":65,"time":14.43359375,"velocity":0.3937007874015748},{"duration":0.059895833333333925,"midi":90,"time":14.4921875,"velocity":0.3937007874015748},{"duration":0.059895833333333925,"midi":81,"time":14.50390625,"velocity":0.3937007874015748},{"duration":0.17578125,"midi":93,"time":14.55078125,"velocity":0.3937007874015748},{"duration":0.4270833333333339,"midi":50,"time":14.55078125,"velocity":0.3937007874015748},{"duration":0.059895833333333925,"midi":88,"time":14.57421875,"velocity":0.3937007874015748},{"duration":0.3020833333333339,"midi":90,"time":14.57421875,"velocity":0.3937007874015748},{"duration":0.17578125,"midi":76,"time":14.5859375,"velocity":0.3937007874015748},{"duration":0.4270833333333339,"midi":91,"time":14.796875,"velocity":0.3937007874015748},{"duration":0.4375,"midi":88,"time":14.796875,"velocity":0.3937007874015748},{"duration":0.059895833333333925,"midi":93,"time":14.80859375,"velocity":0.3937007874015748},{"duration":0.5390625,"midi":88,"time":14.80859375,"velocity":0.3937007874015748},{"duration":0.2994791666666661,"midi":85,"time":14.8203125,"velocity":0.3937007874015748},{"duration":0.05859375,"midi":90,"time":14.84375,"velocity":0.3937007874015748},{"duration":0.17578125,"midi":81,"time":14.84375,"velocity":0.3937007874015748},{"duration":0.059895833333333925,"midi":69,"time":14.912760416666666,"velocity":0.3937007874015748},{"duration":0.061197916666666075,"midi":72,"time":14.946614583333334,"velocity":0.3937007874015748},{"duration":0.061197916666666075,"midi":76,"time":14.946614583333334,"velocity":0.3937007874015748},{"duration":0.17578125,"midi":85,"time":14.946614583333334,"velocity":0.3937007874015748},{"duration":0.061197916666666075,"midi":78,"time":14.946614583333334,"velocity":0.3937007874015748},{"duration":0.17578125,"midi":81,"time":14.946614583333334,"velocity":0.3937007874015748},{"duration":0.059895833333333925,"midi":50,"time":14.959635416666666,"velocity":0.3937007874015748},{"duration":0.17578125,"midi":57,"time":14.959635416666666,"velocity":0.3937007874015748},{"duration":0.059895833333333925,"midi":60,"time":14.959635416666666,"velocity":0.3937007874015748},{"duration":0.059895833333333925,"midi":64,"time":14.959635416666666,"velocity":0.3937007874015748},{"duration":0.17578125,"midi":69,"time":14.971354166666666,"velocity":0.3937007874015748},{"duration":0.059895833333333925,"midi":77,"time":14.971354166666666,"velocity":0.3937007874015748},{"duration":0.17578125,"midi":76,"time":14.99609375,"velocity":0.3937007874015748},{"duration":0.4231770833333339,"midi":65,"time":15.0078125,"velocity":0.3937007874015748},{"duration":0.05859375,"midi":51,"time":15.018229166666666,"velocity":0.3937007874015748},{"duration":0.16666666666666785,"midi":50,"time":15.041666666666666,"velocity":0.3937007874015748},{"duration":0.17708333333333393,"midi":62,"time":15.041666666666666,"velocity":0.3937007874015748},{"duration":0.07161458333333393,"midi":50,"time":15.147135416666666,"velocity":0.3937007874015748},{"duration":0.059895833333333925,"midi":74,"time":15.158854166666666,"velocity":0.3937007874015748},{"duration":0.05859375,"midi":81,"time":15.170572916666666,"velocity":0.3937007874015748},{"duration":0.05859375,"midi":60,"time":15.170572916666666,"velocity":0.3937007874015748},{"duration":0.421875,"midi":77,"time":15.18359375,"velocity":0.3937007874015748},{"duration":0.057291666666666075,"midi":69,"time":15.18359375,"velocity":0.3937007874015748},{"duration":0.17317708333333393,"midi":89,"time":15.1953125,"velocity":0.3937007874015748},{"duration":0.17317708333333393,"midi":93,"time":15.229166666666666,"velocity":0.3937007874015748},{"duration":0.17317708333333393,"midi":60,"time":15.229166666666666,"velocity":0.3937007874015748},{"duration":0.17317708333333215,"midi":69,"time":15.274739583333334,"velocity":0.3937007874015748},{"duration":0.05859375,"midi":61,"time":15.309895833333334,"velocity":0.3937007874015748},{"duration":0.17317708333333215,"midi":81,"time":15.309895833333334,"velocity":0.3937007874015748},{"duration":0.17447916666666607,"midi":74,"time":15.33203125,"velocity":0.3937007874015748},{"duration":0.17447916666666607,"midi":62,"time":15.33203125,"velocity":0.3937007874015748},{"duration":0.17578125,"midi":57,"time":15.35546875,"velocity":0.3937007874015748},{"duration":0.17708333333333393,"midi":50,"time":15.37890625,"velocity":0.3937007874015748},{"duration":0.17578125,"midi":81,"time":15.4140625,"velocity":0.3937007874015748},{"duration":0.17447916666666607,"midi":65,"time":15.470052083333334,"velocity":0.3937007874015748},{"duration":0.06119791666666785,"midi":75,"time":15.494791666666666,"velocity":0.3937007874015748},{"duration":0.059895833333333925,"midi":93,"time":15.518229166666666,"velocity":0.3937007874015748},{"duration":0.171875,"midi":86,"time":15.53125,"velocity":0.3937007874015748},{"duration":0.05859375,"midi":62,"time":15.53125,"velocity":0.3937007874015748},{"duration":0.057291666666666075,"midi":75,"time":15.54296875,"velocity":0.3937007874015748},{"duration":0.17057291666666607,"midi":60,"time":15.54296875,"velocity":0.3937007874015748},{"duration":0.055989583333333925,"midi":77,"time":15.56640625,"velocity":0.3937007874015748},{"duration":0.055989583333333925,"midi":64,"time":15.56640625,"velocity":0.3937007874015748},{"duration":0.055989583333333925,"midi":91,"time":15.56640625,"velocity":0.3937007874015748},{"duration":0.17057291666666607,"midi":84,"time":15.56640625,"velocity":0.3937007874015748},{"duration":0.055989583333333925,"midi":70,"time":15.588541666666666,"velocity":0.3937007874015748},{"duration":0.5403645833333339,"midi":88,"time":15.598958333333334,"velocity":0.3937007874015748},{"duration":0.171875,"midi":76,"time":15.598958333333334,"velocity":0.3937007874015748},{"duration":0.057291666666666075,"midi":65,"time":15.598958333333334,"velocity":0.3937007874015748},{"duration":0.5429687499999982,"midi":95,"time":15.598958333333334,"velocity":0.3937007874015748},{"duration":0.05859375,"midi":93,"time":15.62109375,"velocity":0.3937007874015748},{"duration":0.059895833333333925,"midi":64,"time":15.631510416666666,"velocity":0.3937007874015748},{"duration":0.05859375,"midi":74,"time":15.64453125,"velocity":0.3937007874015748},{"duration":0.05859375,"midi":63,"time":15.666666666666666,"velocity":0.3937007874015748},{"duration":0.05859375,"midi":93,"time":15.701822916666666,"velocity":0.3937007874015748},{"duration":0.17447916666666785,"midi":86,"time":15.701822916666666,"velocity":0.3937007874015748},{"duration":0.05859375,"midi":62,"time":15.712239583333334,"velocity":0.3937007874015748},{"duration":0.17578125,"midi":74,"time":15.712239583333334,"velocity":0.3937007874015748},{"duration":0.17578125,"midi":81,"time":15.725260416666666,"velocity":0.3937007874015748},{"duration":0.17578125,"midi":65,"time":15.725260416666666,"velocity":0.3937007874015748},{"duration":0.05859375,"midi":90,"time":15.735677083333334,"velocity":0.3937007874015748},{"duration":0.05859375,"midi":42,"time":15.735677083333334,"velocity":0.3937007874015748},{"duration":0.05859375,"midi":89,"time":15.747395833333334,"velocity":0.3937007874015748},{"duration":0.05859375,"midi":52,"time":15.747395833333334,"velocity":0.3937007874015748},{"duration":0.17447916666666607,"midi":62,"time":15.747395833333334,"velocity":0.3937007874015748},{"duration":0.17447916666666607,"midi":57,"time":15.747395833333334,"velocity":0.3937007874015748},{"duration":0.05859375,"midi":41,"time":15.760416666666666,"velocity":0.3937007874015748},{"duration":0.17447916666666607,"midi":76,"time":15.78125,"velocity":0.3937007874015748},{"duration":0.7968749999999982,"midi":50,"time":15.794270833333334,"velocity":0.3937007874015748},{"duration":0.05989583333333215,"midi":65,"time":15.841145833333334,"velocity":0.3937007874015748},{"duration":0.05859375,"midi":73,"time":15.852864583333334,"velocity":0.3937007874015748},{"duration":0.05859375,"midi":80,"time":15.852864583333334,"velocity":0.3937007874015748},{"duration":0.057291666666666075,"midi":81,"time":15.888020833333334,"velocity":0.3937007874015748},{"duration":0.057291666666666075,"midi":74,"time":15.888020833333334,"velocity":0.3937007874015748},{"duration":0.057291666666666075,"midi":63,"time":15.911458333333334,"velocity":0.3937007874015748},{"duration":0.057291666666666075,"midi":58,"time":15.911458333333334,"velocity":0.3937007874015748},{"duration":0.057291666666666075,"midi":82,"time":15.921875,"velocity":0.3937007874015748},{"duration":0.2955729166666661,"midi":76,"time":15.944010416666666,"velocity":0.3937007874015748},{"duration":0.058593750000001776,"midi":74,"time":15.967447916666666,"velocity":0.3937007874015748},{"duration":0.059895833333333925,"midi":62,"time":15.977864583333334,"velocity":0.3937007874015748},{"duration":0.17317708333333393,"midi":57,"time":15.989583333333334,"velocity":0.3937007874015748},{"duration":0.0598958333333357,"midi":73,"time":16.001302083333332,"velocity":0.3937007874015748},{"duration":0.05859375,"midi":61,"time":16.013020833333332,"velocity":0.3937007874015748},{"duration":0.0572916666666643,"midi":65,"time":16.026041666666668,"velocity":0.3937007874015748},{"duration":0.05729166666666785,"midi":81,"time":16.071614583333332,"velocity":0.3937007874015748},{"duration":0.05989583333333215,"midi":88,"time":16.08203125,"velocity":0.3937007874015748},{"duration":0.05859375,"midi":65,"time":16.092447916666668,"velocity":0.3937007874015748},{"duration":0.42578125,"midi":74,"time":16.115885416666668,"velocity":0.3937007874015748},{"duration":0.30078125,"midi":90,"time":16.115885416666668,"velocity":0.3937007874015748},{"duration":0.05859375,"midi":64,"time":16.127604166666668,"velocity":0.3937007874015748},{"duration":0.05859375,"midi":60,"time":16.139322916666668,"velocity":0.3937007874015748},{"duration":0.17578125,"midi":57,"time":16.161458333333332,"velocity":0.3937007874015748},{"duration":0.05859375,"midi":64,"time":16.161458333333332,"velocity":0.3937007874015748},{"duration":0.17578125,"midi":76,"time":16.196614583333332,"velocity":0.3937007874015748},{"duration":0.05859375,"midi":61,"time":16.196614583333332,"velocity":0.3937007874015748},{"duration":0.17708333333333215,"midi":65,"time":16.27734375,"velocity":0.3937007874015748},{"duration":0.0598958333333357,"midi":57,"time":16.290364583333332,"velocity":0.3937007874015748},{"duration":0.17578125,"midi":57,"time":16.372395833333332,"velocity":0.3937007874015748},{"duration":0.17578125,"midi":69,"time":16.372395833333332,"velocity":0.3937007874015748},{"duration":0.42057291666666785,"midi":88,"time":16.372395833333332,"velocity":0.3937007874015748},{"duration":0.4739583333333357,"midi":88,"time":16.372395833333332,"velocity":0.3937007874015748},{"duration":0.42057291666666785,"midi":81,"time":16.384114583333332,"velocity":0.3937007874015748},{"duration":0.17578125,"midi":91,"time":16.384114583333332,"velocity":0.3937007874015748},{"duration":0.05859375,"midi":90,"time":16.395833333333332,"velocity":0.3937007874015748},{"duration":0.17447916666666785,"midi":65,"time":16.44140625,"velocity":0.3937007874015748},{"duration":0.06119791666666785,"midi":76,"time":16.46484375,"velocity":0.3937007874015748},{"duration":0.05989583333333215,"midi":72,"time":16.4765625,"velocity":0.3937007874015748},{"duration":0.1731770833333357,"midi":85,"time":16.489583333333332,"velocity":0.3937007874015748},{"duration":0.05859375,"midi":90,"time":16.501302083333332,"velocity":0.3937007874015748},{"duration":0.1731770833333357,"midi":77,"time":16.501302083333332,"velocity":0.3937007874015748},{"duration":0.05859375,"midi":75,"time":16.501302083333332,"velocity":0.3937007874015748},{"duration":0.05729166666666785,"midi":51,"time":16.513020833333332,"velocity":0.3937007874015748},{"duration":0.05729166666666785,"midi":68,"time":16.513020833333332,"velocity":0.3937007874015748},{"duration":0.05729166666666785,"midi":60,"time":16.513020833333332,"velocity":0.3937007874015748},{"duration":0.0572916666666643,"midi":64,"time":16.526041666666668,"velocity":0.3937007874015748},{"duration":0.26171875,"midi":85,"time":16.526041666666668,"velocity":0.3937007874015748},{"duration":0.29557291666666785,"midi":73,"time":16.536458333333332,"velocity":0.3937007874015748},{"duration":0.05729166666666785,"midi":50,"time":16.536458333333332,"velocity":0.3937007874015748},{"duration":0.05729166666666785,"midi":61,"time":16.536458333333332,"velocity":0.3937007874015748},{"duration":0.17317708333333215,"midi":91,"time":16.546875,"velocity":0.3937007874015748},{"duration":0.171875,"midi":69,"time":16.559895833333332,"velocity":0.3937007874015748},{"duration":0.05859375,"midi":89,"time":16.5703125,"velocity":0.3937007874015748},{"duration":0.05859375,"midi":61,"time":16.5703125,"velocity":0.3937007874015748},{"duration":0.05859375,"midi":50,"time":16.627604166666668,"velocity":0.3937007874015748},{"duration":0.05859375,"midi":87,"time":16.639322916666668,"velocity":0.3937007874015748},{"duration":0.05859375,"midi":90,"time":16.639322916666668,"velocity":0.3937007874015748},{"duration":0.05859375,"midi":77,"time":16.661458333333332,"velocity":0.3937007874015748},{"duration":0.1731770833333357,"midi":57,"time":16.661458333333332,"velocity":0.3937007874015748},{"duration":0.0572916666666643,"midi":80,"time":16.686197916666668,"velocity":0.3937007874015748},{"duration":0.05729166666666785,"midi":50,"time":16.696614583333332,"velocity":0.3937007874015748},{"duration":0.05729166666666785,"midi":91,"time":16.696614583333332,"velocity":0.3937007874015748},{"duration":0.05729166666666785,"midi":61,"time":16.70703125,"velocity":0.3937007874015748},{"duration":0.17317708333333215,"midi":72,"time":16.73046875,"velocity":0.3937007874015748},{"duration":0.08984375,"midi":85,"time":16.73046875,"velocity":0.3937007874015748},{"duration":0.171875,"midi":60,"time":16.7421875,"velocity":0.3937007874015748},{"duration":0.5494791666666679,"midi":65,"time":16.75390625,"velocity":0.3937007874015748},{"duration":0.4244791666666643,"midi":77,"time":16.764322916666668,"velocity":0.3937007874015748},{"duration":0.17578125,"midi":89,"time":16.774739583333332,"velocity":0.3937007874015748},{"duration":0.0598958333333357,"midi":50,"time":16.774739583333332,"velocity":0.3937007874015748},{"duration":0.13020833333333215,"midi":88,"time":16.787760416666668,"velocity":0.3937007874015748},{"duration":0.05859375,"midi":79,"time":16.787760416666668,"velocity":0.3937007874015748},{"duration":0.05859375,"midi":57,"time":16.821614583333332,"velocity":0.3937007874015748},{"duration":0.05859375,"midi":50,"time":16.834635416666668,"velocity":0.3937007874015748},{"duration":0.17578125,"midi":91,"time":16.834635416666668,"velocity":0.3937007874015748},{"duration":0.05859375,"midi":80,"time":16.845052083333332,"velocity":0.3937007874015748},{"duration":0.05859375,"midi":73,"time":16.85546875,"velocity":0.3937007874015748},{"duration":0.0598958333333357,"midi":93,"time":16.903645833333332,"velocity":0.3937007874015748},{"duration":0.17578125,"midi":57,"time":16.903645833333332,"velocity":0.3937007874015748},{"duration":0.06119791666666785,"midi":72,"time":16.9140625,"velocity":0.3937007874015748},{"duration":0.30078125,"midi":50,"time":16.92578125,"velocity":0.3937007874015748},{"duration":0.17578125,"midi":62,"time":16.9375,"velocity":0.3937007874015748},{"duration":0.140625,"midi":73,"time":16.950520833333332,"velocity":0.3937007874015748},{"duration":0.0598958333333357,"midi":81,"time":16.950520833333332,"velocity":0.3937007874015748},{"duration":0.09375,"midi":73,"time":17.032552083333332,"velocity":0.3937007874015748},{"duration":0.05859375,"midi":78,"time":17.08984375,"velocity":0.3937007874015748},{"duration":0.05859375,"midi":71,"time":17.08984375,"velocity":0.3937007874015748},{"duration":0.05989583333333215,"midi":59,"time":17.1015625,"velocity":0.3937007874015748},{"duration":0.05989583333333215,"midi":93,"time":17.11328125,"velocity":0.3937007874015748},{"duration":0.05859375,"midi":73,"time":17.125,"velocity":0.3937007874015748},{"duration":0.17578125,"midi":70,"time":17.1484375,"velocity":0.3937007874015748},{"duration":0.17578125,"midi":58,"time":17.1484375,"velocity":0.3937007874015748},{"duration":0.17447916666666785,"midi":62,"time":17.18359375,"velocity":0.3937007874015748},{"duration":0.05859375,"midi":71,"time":17.240885416666668,"velocity":0.3937007874015748},{"duration":0.05989583333333215,"midi":81,"time":17.264322916666668,"velocity":0.3937007874015748},{"duration":0.05989583333333215,"midi":72,"time":17.264322916666668,"velocity":0.3937007874015748},{"duration":0.05989583333333215,"midi":79,"time":17.264322916666668,"velocity":0.3937007874015748},{"duration":0.05859375,"midi":74,"time":17.276041666666668,"velocity":0.3937007874015748},{"duration":0.05859375,"midi":60,"time":17.299479166666668,"velocity":0.3937007874015748},{"duration":0.05859375,"midi":80,"time":17.299479166666668,"velocity":0.3937007874015748},{"duration":0.05859375,"midi":41,"time":17.299479166666668,"velocity":0.3937007874015748},{"duration":0.0572916666666643,"midi":73,"time":17.311197916666668,"velocity":0.3937007874015748},{"duration":0.0572916666666643,"midi":64,"time":17.311197916666668,"velocity":0.3937007874015748},{"duration":0.0572916666666643,"midi":37,"time":17.311197916666668,"velocity":0.3937007874015748},{"duration":0.2994791666666643,"midi":91,"time":17.334635416666668,"velocity":0.3937007874015748},{"duration":0.4244791666666643,"midi":84,"time":17.334635416666668,"velocity":0.3937007874015748},{"duration":0.0572916666666643,"midi":44,"time":17.334635416666668,"velocity":0.3937007874015748},{"duration":0.2994791666666643,"midi":91,"time":17.334635416666668,"velocity":0.3937007874015748},{"duration":0.171875,"midi":50,"time":17.334635416666668,"velocity":0.3937007874015748},{"duration":0.42578125,"midi":88,"time":17.345052083333332,"velocity":0.3937007874015748},{"duration":0.05729166666666785,"midi":61,"time":17.345052083333332,"velocity":0.3937007874015748},{"duration":0.30078125,"midi":72,"time":17.345052083333332,"velocity":0.3937007874015748},{"duration":0.30078125,"midi":43,"time":17.356770833333332,"velocity":0.3937007874015748},{"duration":0.30078125,"midi":79,"time":17.356770833333332,"velocity":0.3937007874015748},{"duration":0.05729166666666785,"midi":60,"time":17.368489583333332,"velocity":0.3937007874015748},{"duration":0.05859375,"midi":60,"time":17.40234375,"velocity":0.3937007874015748},{"duration":0.17578125,"midi":50,"time":17.412760416666668,"velocity":0.3937007874015748},{"duration":0.1770833333333357,"midi":77,"time":17.434895833333332,"velocity":0.3937007874015748},{"duration":0.0598958333333357,"midi":59,"time":17.434895833333332,"velocity":0.3937007874015748},{"duration":0.0598958333333357,"midi":60,"time":17.470052083333332,"velocity":0.3937007874015748},{"duration":0.1783854166666643,"midi":70,"time":17.483072916666668,"velocity":0.3937007874015748},{"duration":0.17708333333333215,"midi":50,"time":17.494791666666668,"velocity":0.3937007874015748},{"duration":0.9244791666666643,"midi":65,"time":17.518229166666668,"velocity":0.3937007874015748},{"duration":0.1770833333333357,"midi":50,"time":17.575520833333332,"velocity":0.3937007874015748},{"duration":0.0611979166666643,"midi":60,"time":17.600260416666668,"velocity":0.3937007874015748},{"duration":0.17578125,"midi":31,"time":17.623697916666668,"velocity":0.3937007874015748},{"duration":0.05989583333333215,"midi":78,"time":17.623697916666668,"velocity":0.3937007874015748},{"duration":0.05989583333333215,"midi":83,"time":17.623697916666668,"velocity":0.3937007874015748},{"duration":0.05859375,"midi":71,"time":17.63671875,"velocity":0.3937007874015748},{"duration":0.05859375,"midi":79,"time":17.63671875,"velocity":0.3937007874015748},{"duration":0.05859375,"midi":59,"time":17.63671875,"velocity":0.3937007874015748},{"duration":0.06901041666666785,"midi":91,"time":17.6484375,"velocity":0.3937007874015748},{"duration":0.16276041666666785,"midi":91,"time":17.66015625,"velocity":0.3937007874015748},{"duration":0.16276041666666785,"midi":70,"time":17.66015625,"velocity":0.3937007874015748},{"duration":0.41927083333333215,"midi":43,"time":17.671875,"velocity":0.3937007874015748},{"duration":0.15104166666666785,"midi":58,"time":17.671875,"velocity":0.3937007874015748},{"duration":0.2955729166666643,"midi":89,"time":17.694010416666668,"velocity":0.3937007874015748},{"duration":0.4205729166666643,"midi":94,"time":17.694010416666668,"velocity":0.3937007874015748},{"duration":0.17317708333333215,"midi":50,"time":17.717447916666668,"velocity":0.3937007874015748},{"duration":0.06119791666666785,"midi":71,"time":17.727864583333332,"velocity":0.3937007874015748},{"duration":0.0598958333333357,"midi":79,"time":17.739583333333332,"velocity":0.3937007874015748},{"duration":0.0690104166666643,"midi":70,"time":17.764322916666668,"velocity":0.3937007874015748},{"duration":0.0807291666666643,"midi":58,"time":17.764322916666668,"velocity":0.3937007874015748},{"duration":0.0572916666666643,"midi":91,"time":17.776041666666668,"velocity":0.3937007874015748},{"duration":0.16927083333333215,"midi":62,"time":17.7890625,"velocity":0.3937007874015748},{"duration":0.05598958333333215,"midi":84,"time":17.7890625,"velocity":0.3937007874015748},{"duration":0.05729166666666785,"midi":91,"time":17.821614583333332,"velocity":0.3937007874015748},{"duration":0.05729166666666785,"midi":69,"time":17.821614583333332,"velocity":0.3937007874015748},{"duration":0.05859375,"midi":58,"time":17.84375,"velocity":0.3937007874015748},{"duration":0.296875,"midi":50,"time":17.854166666666668,"velocity":0.3937007874015748},{"duration":0.05859375,"midi":31,"time":17.854166666666668,"velocity":0.3937007874015748},{"duration":0.05729166666666785,"midi":57,"time":17.8671875,"velocity":0.3937007874015748},{"duration":0.0572916666666643,"midi":88,"time":17.889322916666668,"velocity":0.3937007874015748},{"duration":0.0572916666666643,"midi":58,"time":17.889322916666668,"velocity":0.3937007874015748},{"duration":0.0572916666666643,"midi":59,"time":17.912760416666668,"velocity":0.3937007874015748},{"duration":0.42578125,"midi":77,"time":17.923177083333332,"velocity":0.3937007874015748},{"duration":0.17447916666666785,"midi":31,"time":17.93359375,"velocity":0.3937007874015748},{"duration":0.17447916666666785,"midi":89,"time":17.95703125,"velocity":0.3937007874015748},{"duration":0.05859375,"midi":58,"time":17.9921875,"velocity":0.3937007874015748},{"duration":0.05859375,"midi":93,"time":18.015625,"velocity":0.3937007874015748},{"duration":0.05859375,"midi":91,"time":18.015625,"velocity":0.3937007874015748},{"duration":0.05989583333333215,"midi":75,"time":18.061197916666668,"velocity":0.3937007874015748},{"duration":0.05989583333333215,"midi":51,"time":18.061197916666668,"velocity":0.3937007874015748},{"duration":0.05859375,"midi":60,"time":18.072916666666668,"velocity":0.3937007874015748},{"duration":0.05859375,"midi":68,"time":18.072916666666668,"velocity":0.3937007874015748},{"duration":0.05859375,"midi":58,"time":18.096354166666668,"velocity":0.3937007874015748},{"duration":0.05859375,"midi":49,"time":18.108072916666668,"velocity":0.3937007874015748},{"duration":0.05859375,"midi":31,"time":18.119791666666668,"velocity":0.3937007874015748},{"duration":0.05859375,"midi":68,"time":18.119791666666668,"velocity":0.3937007874015748},{"duration":0.0598958333333357,"midi":57,"time":18.153645833333332,"velocity":0.3937007874015748},{"duration":0.0598958333333357,"midi":58,"time":18.235677083333332,"velocity":0.3937007874015748},{"duration":0.05989583333333215,"midi":50,"time":18.248697916666668,"velocity":0.3937007874015748},{"duration":0.05989583333333215,"midi":79,"time":18.283854166666668,"velocity":0.3937007874015748},{"duration":0.30078125,"midi":74,"time":18.283854166666668,"velocity":0.3937007874015748},{"duration":0.17578125,"midi":62,"time":18.283854166666668,"velocity":0.3937007874015748},{"duration":0.05989583333333215,"midi":70,"time":18.295572916666668,"velocity":0.3937007874015748},{"duration":0.05859375,"midi":50,"time":18.354166666666668,"velocity":0.3937007874015748},{"duration":0.29947916666666785,"midi":62,"time":18.423177083333332,"velocity":0.3937007874015748},{"duration":0.17447916666666785,"midi":65,"time":18.434895833333332,"velocity":0.3937007874015748},{"duration":0.17578125,"midi":43,"time":18.481770833333332,"velocity":0.3937007874015748},{"duration":0.0598958333333357,"midi":50,"time":18.493489583333332,"velocity":0.3937007874015748},{"duration":0.17578125,"midi":65,"time":18.528645833333332,"velocity":0.3937007874015748},{"duration":0.05859375,"midi":50,"time":18.563802083333332,"velocity":0.3937007874015748},{"duration":0.05989583333333215,"midi":79,"time":18.62109375,"velocity":0.3937007874015748},{"duration":0.05989583333333215,"midi":30,"time":18.64453125,"velocity":0.3937007874015748},{"duration":0.05989583333333215,"midi":42,"time":18.64453125,"velocity":0.3937007874015748},{"duration":0.05859375,"midi":60,"time":18.65625,"velocity":0.3937007874015748},{"duration":0.05729166666666785,"midi":63,"time":18.669270833333332,"velocity":0.3937007874015748},{"duration":0.05729166666666785,"midi":77,"time":18.669270833333332,"velocity":0.3937007874015748},{"duration":0.17447916666666785,"midi":91,"time":18.71484375,"velocity":0.3937007874015748},{"duration":0.5455729166666679,"midi":84,"time":18.71484375,"velocity":0.3937007874015748},{"duration":0.5455729166666679,"midi":88,"time":18.71484375,"velocity":0.3937007874015748},{"duration":0.17578125,"midi":65,"time":18.725260416666668,"velocity":0.3937007874015748},{"duration":0.0598958333333357,"midi":91,"time":18.841145833333332,"velocity":0.3937007874015748},{"duration":0.05859375,"midi":70,"time":18.852864583333332,"velocity":0.3937007874015748},{"duration":0.0572916666666643,"midi":37,"time":18.865885416666668,"velocity":0.3937007874015748},{"duration":0.29557291666666785,"midi":50,"time":18.888020833333332,"velocity":0.3937007874015748},{"duration":0.05859375,"midi":59,"time":18.911458333333332,"velocity":0.3937007874015748},{"duration":0.1731770833333357,"midi":79,"time":18.911458333333332,"velocity":0.3937007874015748},{"duration":0.6744791666666679,"midi":43,"time":18.921875,"velocity":0.3937007874015748},{"duration":0.05859375,"midi":30,"time":18.95703125,"velocity":0.3937007874015748},{"duration":0.17317708333333215,"midi":91,"time":18.98046875,"velocity":0.3937007874015748},{"duration":0.05859375,"midi":31,"time":18.98046875,"velocity":0.3937007874015748},{"duration":0.17317708333333215,"midi":91,"time":19.002604166666668,"velocity":0.3937007874015748},{"duration":0.05859375,"midi":59,"time":19.026041666666668,"velocity":0.3937007874015748},{"duration":0.0572916666666643,"midi":31,"time":19.037760416666668,"velocity":0.3937007874015748},{"duration":0.0572916666666643,"midi":64,"time":19.037760416666668,"velocity":0.3937007874015748},{"duration":0.0572916666666643,"midi":63,"time":19.061197916666668,"velocity":0.3937007874015748},{"duration":0.0572916666666643,"midi":60,"time":19.061197916666668,"velocity":0.3937007874015748},{"duration":0.1731770833333357,"midi":72,"time":19.083333333333332,"velocity":0.3937007874015748},{"duration":0.05859375,"midi":60,"time":19.095052083333332,"velocity":0.3937007874015748},{"duration":0.13932291666666785,"midi":50,"time":19.095052083333332,"velocity":0.3937007874015748},{"duration":0.05859375,"midi":31,"time":19.1171875,"velocity":0.3937007874015748},{"duration":0.05989583333333215,"midi":59,"time":19.1640625,"velocity":0.3937007874015748},{"duration":0.09375,"midi":50,"time":19.17578125,"velocity":0.3937007874015748},{"duration":0.30208333333333215,"midi":89,"time":19.17578125,"velocity":0.3937007874015748},{"duration":0.3033854166666643,"midi":94,"time":19.186197916666668,"velocity":0.3937007874015748},{"duration":0.05859375,"midi":31,"time":19.197916666666668,"velocity":0.3937007874015748},{"duration":0.17708333333333215,"midi":50,"time":19.233072916666668,"velocity":0.3937007874015748},{"duration":0.0611979166666643,"midi":64,"time":19.244791666666668,"velocity":0.3937007874015748},{"duration":0.0611979166666643,"midi":60,"time":19.256510416666668,"velocity":0.3937007874015748},{"duration":0.0611979166666643,"midi":31,"time":19.268229166666668,"velocity":0.3937007874015748},{"duration":0.05989583333333215,"midi":63,"time":19.28125,"velocity":0.3937007874015748},{"duration":0.17578125,"midi":31,"time":19.33984375,"velocity":0.3937007874015748},{"duration":0.17578125,"midi":50,"time":19.3984375,"velocity":0.3937007874015748},{"duration":0.29296875,"midi":65,"time":19.41015625,"velocity":0.3937007874015748},{"duration":0.42578125,"midi":77,"time":19.432291666666668,"velocity":0.3937007874015748},{"duration":0.17578125,"midi":31,"time":19.4453125,"velocity":0.3937007874015748},{"duration":0.17578125,"midi":89,"time":19.4453125,"velocity":0.3937007874015748},{"duration":0.05989583333333215,"midi":93,"time":19.467447916666668,"velocity":0.3937007874015748},{"duration":0.05989583333333215,"midi":58,"time":19.467447916666668,"velocity":0.3937007874015748},{"duration":0.17708333333333215,"midi":68,"time":19.596354166666668,"velocity":0.3937007874015748},{"duration":0.05989583333333215,"midi":60,"time":19.608072916666668,"velocity":0.3937007874015748},{"duration":0.05989583333333215,"midi":71,"time":19.608072916666668,"velocity":0.3937007874015748},{"duration":0.05989583333333215,"midi":63,"time":19.608072916666668,"velocity":0.3937007874015748},{"duration":0.05989583333333215,"midi":94,"time":19.643229166666668,"velocity":0.3937007874015748},{"duration":0.06770833333333215,"midi":65,"time":19.643229166666668,"velocity":0.3937007874015748},{"duration":0.6705729166666643,"midi":45,"time":19.654947916666668,"velocity":0.3937007874015748},{"duration":0.05859375,"midi":60,"time":19.654947916666668,"velocity":0.3937007874015748},{"duration":0.05859375,"midi":29,"time":19.66796875,"velocity":0.3937007874015748},{"duration":0.17447916666666785,"midi":52,"time":19.66796875,"velocity":0.3937007874015748},{"duration":0.05989583333333215,"midi":60,"time":19.713541666666668,"velocity":0.3937007874015748},{"duration":0.05989583333333215,"midi":33,"time":19.748697916666668,"velocity":0.3937007874015748},{"duration":0.05859375,"midi":67,"time":19.760416666666668,"velocity":0.3937007874015748},{"duration":0.0572916666666643,"midi":60,"time":19.807291666666668,"velocity":0.3937007874015748},{"duration":0.15104166666666785,"midi":65,"time":19.817708333333332,"velocity":0.3937007874015748},{"duration":0.05859375,"midi":55,"time":19.864583333333332,"velocity":0.3937007874015748},{"duration":0.05859375,"midi":64,"time":19.88671875,"velocity":0.3937007874015748},{"duration":0.05859375,"midi":33,"time":19.88671875,"velocity":0.3937007874015748},{"duration":0.08072916666666785,"midi":65,"time":19.91015625,"velocity":0.3937007874015748},{"duration":0.05859375,"midi":56,"time":19.921875,"velocity":0.3937007874015748},{"duration":0.05859375,"midi":33,"time":19.921875,"velocity":0.3937007874015748},{"duration":0.1744791666666643,"midi":33,"time":19.955729166666668,"velocity":0.3937007874015748},{"duration":0.05859375,"midi":56,"time":19.967447916666668,"velocity":0.3937007874015748},{"duration":0.05859375,"midi":52,"time":19.990885416666668,"velocity":0.3937007874015748},{"duration":0.1744791666666643,"midi":70,"time":20.014322916666668,"velocity":0.3937007874015748},{"duration":0.05859375,"midi":56,"time":20.026041666666668,"velocity":0.3937007874015748},{"duration":0.05859375,"midi":67,"time":20.026041666666668,"velocity":0.3937007874015748},{"duration":0.17447916666666785,"midi":64,"time":20.036458333333332,"velocity":0.3937007874015748},{"duration":0.05859375,"midi":55,"time":20.049479166666668,"velocity":0.3937007874015748},{"duration":0.05859375,"midi":60,"time":20.083333333333332,"velocity":0.3937007874015748},{"duration":0.05859375,"midi":55,"time":20.095052083333332,"velocity":0.3937007874015748},{"duration":0.1731770833333357,"midi":33,"time":20.106770833333332,"velocity":0.3937007874015748},{"duration":0.42447916666666785,"midi":60,"time":20.130208333333332,"velocity":0.3937007874015748},{"duration":0.05859375,"midi":67,"time":20.130208333333332,"velocity":0.3937007874015748},{"duration":0.05859375,"midi":55,"time":20.15234375,"velocity":0.3937007874015748},{"duration":0.05859375,"midi":55,"time":20.2109375,"velocity":0.3937007874015748},{"duration":0.05859375,"midi":33,"time":20.233072916666668,"velocity":0.3937007874015748},{"duration":0.05729166666666785,"midi":55,"time":20.24609375,"velocity":0.3937007874015748},{"duration":0.0572916666666643,"midi":53,"time":20.268229166666668,"velocity":0.3937007874015748},{"duration":0.1770833333333357,"midi":34,"time":20.302083333333332,"velocity":0.3937007874015748},{"duration":0.05989583333333215,"midi":55,"time":20.34765625,"velocity":0.3937007874015748},{"duration":0.1770833333333357,"midi":64,"time":20.360677083333332,"velocity":0.3937007874015748},{"duration":0.17578125,"midi":70,"time":20.395833333333332,"velocity":0.3937007874015748},{"duration":0.06119791666666785,"midi":52,"time":20.41796875,"velocity":0.3937007874015748},{"duration":0.5520833333333321,"midi":89,"time":20.41796875,"velocity":0.3937007874015748},{"duration":0.06119791666666785,"midi":41,"time":20.41796875,"velocity":0.3937007874015748},{"duration":0.42447916666666785,"midi":94,"time":20.41796875,"velocity":0.3937007874015748},{"duration":0.17447916666666785,"midi":86,"time":20.4296875,"velocity":0.3937007874015748},{"duration":0.06119791666666785,"midi":77,"time":20.4296875,"velocity":0.3937007874015748},{"duration":0.06119791666666785,"midi":37,"time":20.4296875,"velocity":0.3937007874015748},{"duration":0.06119791666666785,"midi":53,"time":20.442708333333332,"velocity":0.3937007874015748},{"duration":0.0598958333333357,"midi":32,"time":20.454427083333332,"velocity":0.3937007874015748},{"duration":0.8020833333333357,"midi":46,"time":20.466145833333332,"velocity":0.3937007874015748},{"duration":0.05859375,"midi":54,"time":20.479166666666668,"velocity":0.3937007874015748},{"duration":0.0572916666666643,"midi":34,"time":20.514322916666668,"velocity":0.3937007874015748},{"duration":0.67578125,"midi":65,"time":20.514322916666668,"velocity":0.3937007874015748},{"duration":0.05729166666666785,"midi":60,"time":20.536458333333332,"velocity":0.3937007874015748},{"duration":0.1731770833333357,"midi":53,"time":20.548177083333332,"velocity":0.3937007874015748},{"duration":0.05729166666666785,"midi":34,"time":20.548177083333332,"velocity":0.3937007874015748},{"duration":0.17578125,"midi":53,"time":20.649739583333332,"velocity":0.3937007874015748},{"duration":0.05859375,"midi":34,"time":20.662760416666668,"velocity":0.3937007874015748},{"duration":0.5546875,"midi":62,"time":20.696614583333332,"velocity":0.3937007874015748},{"duration":0.30338541666666785,"midi":34,"time":20.73046875,"velocity":0.3937007874015748},{"duration":0.3046875,"midi":91,"time":20.80078125,"velocity":0.3937007874015748},{"duration":0.3046875,"midi":88,"time":20.80078125,"velocity":0.3937007874015748},{"duration":0.3046875,"midi":88,"time":20.80078125,"velocity":0.3937007874015748},{"duration":0.3046875,"midi":69,"time":20.8125,"velocity":0.3937007874015748},{"duration":0.30338541666666785,"midi":81,"time":20.825520833333332,"velocity":0.3937007874015748},{"duration":0.17708333333333215,"midi":85,"time":20.84765625,"velocity":0.3937007874015748},{"duration":0.1536458333333357,"midi":53,"time":20.860677083333332,"velocity":0.3937007874015748},{"duration":0.06119791666666785,"midi":94,"time":20.91796875,"velocity":0.3937007874015748},{"duration":0.06119791666666785,"midi":89,"time":20.9296875,"velocity":0.3937007874015748},{"duration":0.0598958333333357,"midi":89,"time":20.942708333333332,"velocity":0.3937007874015748},{"duration":0.0833333333333357,"midi":53,"time":20.954427083333332,"velocity":0.3937007874015748},{"duration":0.1770833333333357,"midi":34,"time":20.954427083333332,"velocity":0.3937007874015748},{"duration":0.17578125,"midi":53,"time":21.001302083333332,"velocity":0.3937007874015748},{"duration":0.1770833333333357,"midi":77,"time":21.036458333333332,"velocity":0.3937007874015748},{"duration":0.2994791666666643,"midi":89,"time":21.049479166666668,"velocity":0.3937007874015748},{"duration":0.17708333333333215,"midi":34,"time":21.049479166666668,"velocity":0.3937007874015748},{"duration":0.05989583333333215,"midi":94,"time":21.061197916666668,"velocity":0.3937007874015748},{"duration":0.05859375,"midi":91,"time":21.072916666666668,"velocity":0.3937007874015748},{"duration":0.17578125,"midi":93,"time":21.084635416666668,"velocity":0.3937007874015748},{"duration":0.1744791666666643,"midi":88,"time":21.108072916666668,"velocity":0.3937007874015748},{"duration":0.0598958333333357,"midi":51,"time":21.188802083333332,"velocity":0.3937007874015748},{"duration":0.0598958333333357,"midi":68,"time":21.188802083333332,"velocity":0.3937007874015748},{"duration":0.0598958333333357,"midi":75,"time":21.188802083333332,"velocity":0.3937007874015748},{"duration":0.0598958333333357,"midi":84,"time":21.188802083333332,"velocity":0.3937007874015748},{"duration":0.0598958333333357,"midi":60,"time":21.200520833333332,"velocity":0.3937007874015748},{"duration":0.05859375,"midi":50,"time":21.213541666666668,"velocity":0.3937007874015748},{"duration":0.05859375,"midi":78,"time":21.213541666666668,"velocity":0.3937007874015748},{"duration":0.5494791666666643,"midi":65,"time":21.213541666666668,"velocity":0.3937007874015748},{"duration":0.17317708333333215,"midi":34,"time":21.248697916666668,"velocity":0.3937007874015748},{"duration":0.17317708333333215,"midi":88,"time":21.260416666666668,"velocity":0.3937007874015748},{"duration":0.17447916666666785,"midi":93,"time":21.270833333333332,"velocity":0.3937007874015748},{"duration":0.05729166666666785,"midi":46,"time":21.270833333333332,"velocity":0.3937007874015748},{"duration":0.17578125,"midi":62,"time":21.3046875,"velocity":0.3937007874015748},{"duration":0.05859375,"midi":91,"time":21.328125,"velocity":0.3937007874015748},{"duration":0.17578125,"midi":89,"time":21.328125,"velocity":0.3937007874015748},{"duration":0.42708333333333215,"midi":74,"time":21.420572916666668,"velocity":0.3937007874015748},{"duration":0.2799479166666643,"midi":90,"time":21.432291666666668,"velocity":0.3937007874015748},{"duration":0.1744791666666643,"midi":50,"time":21.432291666666668,"velocity":0.3937007874015748},{"duration":0.05989583333333215,"midi":57,"time":21.432291666666668,"velocity":0.3937007874015748},{"duration":0.1640625,"midi":88,"time":21.432291666666668,"velocity":0.3937007874015748},{"duration":0.1744791666666643,"midi":62,"time":21.432291666666668,"velocity":0.3937007874015748},{"duration":0.28645833333333215,"midi":90,"time":21.4453125,"velocity":0.3937007874015748},{"duration":0.05859375,"midi":89,"time":21.48046875,"velocity":0.3937007874015748},{"duration":0.0690104166666643,"midi":88,"time":21.537760416666668,"velocity":0.3937007874015748},{"duration":0.17578125,"midi":53,"time":21.596354166666668,"velocity":0.3937007874015748},{"duration":0.1770833333333357,"midi":46,"time":21.606770833333332,"velocity":0.3937007874015748},{"duration":0.0598958333333357,"midi":34,"time":21.641927083333332,"velocity":0.3937007874015748},{"duration":0.17578125,"midi":62,"time":21.653645833333332,"velocity":0.3937007874015748},{"duration":0.0911458333333357,"midi":90,"time":21.653645833333332,"velocity":0.3937007874015748},{"duration":0.1770833333333357,"midi":34,"time":21.712239583333332,"velocity":0.3937007874015748},{"duration":0.0598958333333357,"midi":45,"time":21.759114583333332,"velocity":0.3937007874015748},{"duration":0.1770833333333357,"midi":74,"time":21.759114583333332,"velocity":0.3937007874015748},{"duration":0.05859375,"midi":90,"time":21.770833333333332,"velocity":0.3937007874015748},{"duration":0.05859375,"midi":64,"time":21.770833333333332,"velocity":0.3937007874015748},{"duration":0.05859375,"midi":60,"time":21.783854166666668,"velocity":0.3937007874015748},{"duration":0.0598958333333357,"midi":63,"time":21.817708333333332,"velocity":0.3937007874015748},{"duration":0.0598958333333357,"midi":36,"time":21.817708333333332,"velocity":0.3937007874015748},{"duration":0.17838541666666785,"midi":77,"time":21.829427083333332,"velocity":0.3937007874015748},{"duration":0.17838541666666785,"midi":58,"time":21.829427083333332,"velocity":0.3937007874015748},{"duration":0.0598958333333357,"midi":90,"time":21.852864583333332,"velocity":0.3937007874015748},{"duration":0.05989583333333215,"midi":89,"time":21.947916666666668,"velocity":0.3937007874015748},{"duration":0.05859375,"midi":84,"time":21.959635416666668,"velocity":0.3937007874015748},{"duration":0.17578125,"midi":77,"time":21.994791666666668,"velocity":0.3937007874015748},{"duration":0.80078125,"midi":53,"time":21.994791666666668,"velocity":0.3937007874015748},{"duration":0.05859375,"midi":41,"time":22.006510416666668,"velocity":0.3937007874015748},{"duration":0.17578125,"midi":90,"time":22.018229166666668,"velocity":0.3937007874015748},{"duration":0.15234375,"midi":89,"time":22.018229166666668,"velocity":0.3937007874015748},{"duration":0.05989583333333215,"midi":37,"time":22.018229166666668,"velocity":0.3937007874015748},{"duration":0.421875,"midi":68,"time":22.018229166666668,"velocity":0.3937007874015748},{"duration":0.0598958333333357,"midi":32,"time":22.040364583333332,"velocity":0.3937007874015748},{"duration":0.7994791666666643,"midi":46,"time":22.053385416666668,"velocity":0.3937007874015748},{"duration":0.05859375,"midi":35,"time":22.065104166666668,"velocity":0.3937007874015748},{"duration":0.20703125,"midi":89,"time":22.110677083333332,"velocity":0.3937007874015748},{"duration":0.0598958333333357,"midi":84,"time":22.110677083333332,"velocity":0.3937007874015748},{"duration":0.0598958333333357,"midi":34,"time":22.134114583333332,"velocity":0.3937007874015748},{"duration":0.296875,"midi":94,"time":22.145833333333332,"velocity":0.3937007874015748},{"duration":0.05859375,"midi":62,"time":22.157552083333332,"velocity":0.3937007874015748},{"duration":0.05859375,"midi":90,"time":22.170572916666668,"velocity":0.3937007874015748},{"duration":0.0598958333333357,"midi":64,"time":22.180989583333332,"velocity":0.3937007874015748},{"duration":0.0598958333333357,"midi":70,"time":22.180989583333332,"velocity":0.3937007874015748},{"duration":0.0598958333333357,"midi":60,"time":22.180989583333332,"velocity":0.3937007874015748},{"duration":0.0598958333333357,"midi":63,"time":22.216145833333332,"velocity":0.3937007874015748},{"duration":0.0598958333333357,"midi":34,"time":22.216145833333332,"velocity":0.3937007874015748},{"duration":0.05859375,"midi":77,"time":22.251302083333332,"velocity":0.3937007874015748},{"duration":0.05859375,"midi":34,"time":22.251302083333332,"velocity":0.3937007874015748},{"duration":0.05729166666666785,"midi":62,"time":22.286458333333332,"velocity":0.3937007874015748},{"duration":0.05729166666666785,"midi":34,"time":22.30859375,"velocity":0.3937007874015748},{"duration":0.05859375,"midi":34,"time":22.342447916666668,"velocity":0.3937007874015748},{"duration":0.05859375,"midi":64,"time":22.352864583333332,"velocity":0.3937007874015748},{"duration":0.05859375,"midi":77,"time":22.376302083333332,"velocity":0.3937007874015748},{"duration":0.05859375,"midi":33,"time":22.376302083333332,"velocity":0.3937007874015748},{"duration":0.17447916666666785,"midi":86,"time":22.376302083333332,"velocity":0.3937007874015748},{"duration":0.17447916666666785,"midi":94,"time":22.388020833333332,"velocity":0.3937007874015748},{"duration":0.0572916666666643,"midi":90,"time":22.401041666666668,"velocity":0.3937007874015748},{"duration":0.17578125,"midi":63,"time":22.411458333333332,"velocity":0.3937007874015748},{"duration":0.05859375,"midi":34,"time":22.411458333333332,"velocity":0.3937007874015748},{"duration":0.30338541666666785,"midi":34,"time":22.50390625,"velocity":0.3937007874015748},{"duration":0.17578125,"midi":77,"time":22.57421875,"velocity":0.3937007874015748},{"duration":0.17578125,"midi":86,"time":22.5859375,"velocity":0.3937007874015748},{"duration":0.06119791666666785,"midi":68,"time":22.75,"velocity":0.3937007874015748},{"duration":0.06119791666666785,"midi":63,"time":22.75,"velocity":0.3937007874015748},{"duration":0.05989583333333215,"midi":51,"time":22.7734375,"velocity":0.3937007874015748},{"duration":0.05859375,"midi":70,"time":22.786458333333332,"velocity":0.3937007874015748},{"duration":0.05859375,"midi":61,"time":22.786458333333332,"velocity":0.3937007874015748},{"duration":0.30078125,"midi":58,"time":22.8203125,"velocity":0.3937007874015748},{"duration":0.17447916666666785,"midi":46,"time":22.84375,"velocity":0.3937007874015748},{"duration":0.17578125,"midi":53,"time":22.854166666666668,"velocity":0.3937007874015748},{"duration":0.17578125,"midi":34,"time":22.8671875,"velocity":0.3937007874015748},{"duration":0.30078125,"midi":34,"time":23.018229166666668,"velocity":0.3937007874015748},{"duration":0.05989583333333215,"midi":53,"time":23.076822916666668,"velocity":0.3937007874015748},{"duration":0.05859375,"midi":62,"time":23.13671875,"velocity":0.3937007874015748},{"duration":0.1744791666666643,"midi":65,"time":23.147135416666668,"velocity":0.3937007874015748},{"duration":0.05859375,"midi":56,"time":23.158854166666668,"velocity":0.3937007874015748},{"duration":0.1744791666666643,"midi":57,"time":23.182291666666668,"velocity":0.3937007874015748},{"duration":0.29947916666666785,"midi":62,"time":23.204427083333332,"velocity":0.3937007874015748},{"duration":0.0598958333333357,"midi":77,"time":23.286458333333332,"velocity":0.3937007874015748},{"duration":0.17447916666666785,"midi":34,"time":23.286458333333332,"velocity":0.3937007874015748},{"duration":0.05859375,"midi":57,"time":23.298177083333332,"velocity":0.3937007874015748},{"duration":0.17578125,"midi":57,"time":23.3671875,"velocity":0.3937007874015748},{"duration":0.05859375,"midi":53,"time":23.37890625,"velocity":0.3937007874015748},{"duration":0.0611979166666643,"midi":44,"time":23.541666666666668,"velocity":0.3937007874015748},{"duration":0.05989583333333215,"midi":64,"time":23.5546875,"velocity":0.3937007874015748},{"duration":0.05989583333333215,"midi":60,"time":23.5546875,"velocity":0.3937007874015748},{"duration":0.05989583333333215,"midi":67,"time":23.56640625,"velocity":0.3937007874015748},{"duration":0.05989583333333215,"midi":38,"time":23.578125,"velocity":0.3937007874015748},{"duration":0.05859375,"midi":37,"time":23.58984375,"velocity":0.3937007874015748},{"duration":0.05859375,"midi":63,"time":23.602864583333332,"velocity":0.3937007874015748},{"duration":0.05859375,"midi":58,"time":23.61328125,"velocity":0.3937007874015748},{"duration":0.05859375,"midi":88,"time":23.61328125,"velocity":0.3937007874015748},{"duration":0.05859375,"midi":64,"time":23.6484375,"velocity":0.3937007874015748},{"duration":0.8020833333333321,"midi":45,"time":23.6484375,"velocity":0.3937007874015748},{"duration":0.05859375,"midi":56,"time":23.671875,"velocity":0.3937007874015748},{"duration":0.30208333333333215,"midi":88,"time":23.694010416666668,"velocity":0.3937007874015748},{"duration":0.05859375,"midi":33,"time":23.694010416666668,"velocity":0.3937007874015748},{"duration":0.17708333333333215,"midi":52,"time":23.717447916666668,"velocity":0.3937007874015748},{"duration":0.05859375,"midi":34,"time":23.729166666666668,"velocity":0.3937007874015748},{"duration":0.0598958333333357,"midi":33,"time":23.774739583333332,"velocity":0.3937007874015748},{"duration":0.3020833333333357,"midi":90,"time":23.774739583333332,"velocity":0.3937007874015748},{"duration":0.17578125,"midi":76,"time":23.787760416666668,"velocity":0.3937007874015748},{"duration":0.17578125,"midi":91,"time":23.787760416666668,"velocity":0.3937007874015748},{"duration":0.1770833333333357,"midi":33,"time":23.809895833333332,"velocity":0.3937007874015748},{"duration":0.1770833333333357,"midi":95,"time":23.821614583333332,"velocity":0.3937007874015748},{"duration":0.05989583333333215,"midi":60,"time":23.869791666666668,"velocity":0.3937007874015748},{"duration":0.17578125,"midi":88,"time":23.881510416666668,"velocity":0.3937007874015748},{"duration":0.17578125,"midi":58,"time":23.938802083333332,"velocity":0.3937007874015748},{"duration":0.42838541666666785,"midi":86,"time":23.962239583333332,"velocity":0.3937007874015748},{"duration":0.17578125,"midi":89,"time":23.973958333333332,"velocity":0.3937007874015748},{"duration":0.17578125,"midi":84,"time":23.973958333333332,"velocity":0.3937007874015748},{"duration":0.05989583333333215,"midi":94,"time":23.986979166666668,"velocity":0.3937007874015748},{"duration":0.05989583333333215,"midi":67,"time":23.986979166666668,"velocity":0.3937007874015748},{"duration":0.17578125,"midi":33,"time":24.010416666666668,"velocity":0.3937007874015748},{"duration":0.17578125,"midi":89,"time":24.0234375,"velocity":0.3937007874015748},{"duration":0.17578125,"midi":87,"time":24.045572916666668,"velocity":0.3937007874015748},{"duration":0.1770833333333357,"midi":90,"time":24.079427083333332,"velocity":0.3937007874015748},{"duration":0.1770833333333357,"midi":33,"time":24.114583333333332,"velocity":0.3937007874015748},{"duration":0.17578125,"midi":88,"time":24.161458333333332,"velocity":0.3937007874015748},{"duration":0.05989583333333215,"midi":60,"time":24.174479166666668,"velocity":0.3937007874015748},{"duration":0.17578125,"midi":89,"time":24.221354166666668,"velocity":0.3937007874015748},{"duration":0.0598958333333357,"midi":87,"time":24.243489583333332,"velocity":0.3937007874015748},{"duration":0.05859375,"midi":33,"time":24.256510416666668,"velocity":0.3937007874015748},{"duration":0.0598958333333357,"midi":94,"time":24.313802083333332,"velocity":0.3937007874015748},{"duration":0.0598958333333357,"midi":76,"time":24.337239583333332,"velocity":0.3937007874015748},{"duration":0.1731770833333357,"midi":77,"time":24.337239583333332,"velocity":0.3937007874015748},{"duration":0.0598958333333357,"midi":52,"time":24.337239583333332,"velocity":0.3937007874015748},{"duration":0.05859375,"midi":68,"time":24.348958333333332,"velocity":0.3937007874015748},{"duration":0.1731770833333357,"midi":60,"time":24.348958333333332,"velocity":0.3937007874015748},{"duration":0.05859375,"midi":64,"time":24.360677083333332,"velocity":0.3937007874015748},{"duration":0.05859375,"midi":51,"time":24.360677083333332,"velocity":0.3937007874015748},{"duration":0.05859375,"midi":84,"time":24.360677083333332,"velocity":0.3937007874015748},{"duration":0.05859375,"midi":50,"time":24.384114583333332,"velocity":0.3937007874015748},{"duration":0.05859375,"midi":94,"time":24.384114583333332,"velocity":0.3937007874015748},{"duration":0.1731770833333357,"midi":88,"time":24.384114583333332,"velocity":0.3937007874015748},{"duration":0.05729166666666785,"midi":67,"time":24.395833333333332,"velocity":0.3937007874015748},{"duration":0.05729166666666785,"midi":33,"time":24.407552083333332,"velocity":0.3937007874015748},{"duration":0.17317708333333215,"midi":72,"time":24.4296875,"velocity":0.3937007874015748},{"duration":0.05729166666666785,"midi":90,"time":24.4296875,"velocity":0.3937007874015748},{"duration":0.17317708333333215,"midi":60,"time":24.44140625,"velocity":0.3937007874015748},{"duration":0.05859375,"midi":32,"time":24.463541666666668,"velocity":0.3937007874015748},{"duration":0.17578125,"midi":91,"time":24.473958333333332,"velocity":0.3937007874015748},{"duration":0.17578125,"midi":89,"time":24.473958333333332,"velocity":0.3937007874015748},{"duration":0.0598958333333357,"midi":79,"time":24.473958333333332,"velocity":0.3937007874015748},{"duration":0.0598958333333357,"midi":77,"time":24.497395833333332,"velocity":0.3937007874015748},{"duration":0.05859375,"midi":50,"time":24.522135416666668,"velocity":0.3937007874015748},{"duration":0.1770833333333357,"midi":60,"time":24.567708333333332,"velocity":0.3937007874015748},{"duration":0.1770833333333357,"midi":64,"time":24.579427083333332,"velocity":0.3937007874015748},{"duration":0.17838541666666785,"midi":88,"time":24.602864583333332,"velocity":0.3937007874015748},{"duration":0.17838541666666785,"midi":90,"time":24.614583333333332,"velocity":0.3937007874015748},{"duration":0.0598958333333357,"midi":50,"time":24.614583333333332,"velocity":0.3937007874015748},{"duration":0.17838541666666785,"midi":79,"time":24.614583333333332,"velocity":0.3937007874015748},{"duration":0.17838541666666785,"midi":88,"time":24.626302083333332,"velocity":0.3937007874015748},{"duration":0.3046875,"midi":45,"time":24.731770833333332,"velocity":0.3937007874015748},{"duration":0.4296875,"midi":74,"time":24.756510416666668,"velocity":0.3937007874015748},{"duration":0.1796875,"midi":52,"time":24.756510416666668,"velocity":0.3937007874015748},{"duration":0.1796875,"midi":67,"time":24.756510416666668,"velocity":0.3937007874015748},{"duration":0.5533854166666643,"midi":86,"time":24.768229166666668,"velocity":0.3937007874015748},{"duration":0.4283854166666643,"midi":90,"time":24.768229166666668,"velocity":0.3937007874015748},{"duration":0.8033854166666643,"midi":90,"time":24.768229166666668,"velocity":0.3937007874015748},{"duration":0.30208333333333215,"midi":88,"time":24.779947916666668,"velocity":0.3937007874015748},{"duration":0.06119791666666785,"midi":60,"time":24.8046875,"velocity":0.3937007874015748},{"duration":0.06119791666666785,"midi":33,"time":24.81640625,"velocity":0.3937007874015748},{"duration":0.05989583333333215,"midi":62,"time":24.828125,"velocity":0.3937007874015748},{"duration":0.29947916666666785,"midi":84,"time":24.841145833333332,"velocity":0.3937007874015748},{"duration":0.0598958333333357,"midi":33,"time":24.888020833333332,"velocity":0.3937007874015748},{"duration":0.0598958333333357,"midi":67,"time":24.888020833333332,"velocity":0.3937007874015748},{"duration":0.0598958333333357,"midi":32,"time":24.923177083333332,"velocity":0.3937007874015748},{"duration":0.05859375,"midi":60,"time":24.946614583333332,"velocity":0.3937007874015748},{"duration":0.05729166666666785,"midi":45,"time":25.005208333333332,"velocity":0.3937007874015748},{"duration":0.17578125,"midi":88,"time":25.015625,"velocity":0.3937007874015748},{"duration":0.06119791666666785,"midi":44,"time":25.130208333333332,"velocity":0.3937007874015748},{"duration":0.42578125,"midi":76,"time":25.143229166666668,"velocity":0.3937007874015748},{"duration":0.42578125,"midi":64,"time":25.143229166666668,"velocity":0.3937007874015748},{"duration":0.29817708333333215,"midi":95,"time":25.154947916666668,"velocity":0.3937007874015748},{"duration":0.05989583333333215,"midi":41,"time":25.154947916666668,"velocity":0.3937007874015748},{"duration":0.42578125,"midi":92,"time":25.154947916666668,"velocity":0.3937007874015748},{"duration":0.05989583333333215,"midi":37,"time":25.166666666666668,"velocity":0.3937007874015748},{"duration":0.05989583333333215,"midi":69,"time":25.1796875,"velocity":0.3937007874015748},{"duration":0.42447916666666785,"midi":45,"time":25.19140625,"velocity":0.3937007874015748},{"duration":0.1640625,"midi":52,"time":25.19140625,"velocity":0.3937007874015748},{"duration":0.1393229166666643,"midi":33,"time":25.248697916666668,"velocity":0.3937007874015748},{"duration":0.0703125,"midi":52,"time":25.295572916666668,"velocity":0.3937007874015748},{"duration":0.09244791666666785,"midi":33,"time":25.329427083333332,"velocity":0.3937007874015748},{"duration":0.05729166666666785,"midi":52,"time":25.388020833333332,"velocity":0.3937007874015748},{"duration":0.05729166666666785,"midi":33,"time":25.3984375,"velocity":0.3937007874015748},{"duration":0.17708333333333215,"midi":86,"time":25.421875,"velocity":0.3937007874015748},{"duration":0.05859375,"midi":33,"time":25.444010416666668,"velocity":0.3937007874015748},{"duration":0.17708333333333215,"midi":52,"time":25.455729166666668,"velocity":0.3937007874015748},{"duration":0.5520833333333321,"midi":77,"time":25.526041666666668,"velocity":0.3937007874015748},{"duration":0.30078125,"midi":65,"time":25.526041666666668,"velocity":0.3937007874015748},{"duration":0.17578125,"midi":87,"time":25.537760416666668,"velocity":0.3937007874015748},{"duration":0.0611979166666643,"midi":37,"time":25.549479166666668,"velocity":0.3937007874015748},{"duration":0.17447916666666785,"midi":60,"time":25.5625,"velocity":0.3937007874015748},{"duration":0.17447916666666785,"midi":89,"time":25.5625,"velocity":0.3937007874015748},{"duration":0.05989583333333215,"midi":46,"time":25.5625,"velocity":0.3937007874015748},{"duration":0.17317708333333215,"midi":52,"time":25.5859375,"velocity":0.3937007874015748},{"duration":0.42447916666666785,"midi":93,"time":25.59765625,"velocity":0.3937007874015748},{"duration":0.4231770833333357,"midi":45,"time":25.610677083333332,"velocity":0.3937007874015748},{"duration":0.05729166666666785,"midi":30,"time":25.610677083333332,"velocity":0.3937007874015748},{"duration":0.6783854166666643,"midi":89,"time":25.678385416666668,"velocity":0.3937007874015748},{"duration":0.05859375,"midi":87,"time":25.690104166666668,"velocity":0.3937007874015748},{"duration":0.17447916666666785,"midi":60,"time":25.735677083333332,"velocity":0.3937007874015748},{"duration":0.05859375,"midi":52,"time":25.747395833333332,"velocity":0.3937007874015748},{"duration":0.05859375,"midi":64,"time":25.747395833333332,"velocity":0.3937007874015748},{"duration":0.17708333333333215,"midi":65,"time":25.78125,"velocity":0.3937007874015748},{"duration":0.05989583333333215,"midi":91,"time":25.78125,"velocity":0.3937007874015748},{"duration":0.1770833333333357,"midi":52,"time":25.794270833333332,"velocity":0.3937007874015748},{"duration":0.1770833333333357,"midi":33,"time":25.794270833333332,"velocity":0.3937007874015748},{"duration":0.06119791666666785,"midi":91,"time":25.91015625,"velocity":0.3937007874015748},{"duration":0.17578125,"midi":95,"time":25.921875,"velocity":0.3937007874015748},{"duration":0.17578125,"midi":79,"time":25.93359375,"velocity":0.3937007874015748},{"duration":0.05989583333333215,"midi":83,"time":25.93359375,"velocity":0.3937007874015748},{"duration":0.42708333333333215,"midi":86,"time":25.9453125,"velocity":0.3937007874015748},{"duration":0.05989583333333215,"midi":51,"time":25.9453125,"velocity":0.3937007874015748},{"duration":0.05989583333333215,"midi":65,"time":25.9453125,"velocity":0.3937007874015748},{"duration":0.05859375,"midi":88,"time":25.958333333333332,"velocity":0.3937007874015748},{"duration":0.05859375,"midi":68,"time":25.958333333333332,"velocity":0.3937007874015748},{"duration":0.05859375,"midi":41,"time":25.958333333333332,"velocity":0.3937007874015748},{"duration":0.05859375,"midi":37,"time":25.970052083333332,"velocity":0.3937007874015748},{"duration":0.05859375,"midi":70,"time":25.98046875,"velocity":0.3937007874015748},{"duration":0.05859375,"midi":36,"time":25.98046875,"velocity":0.3937007874015748},{"duration":0.17447916666666785,"midi":91,"time":25.993489583333332,"velocity":0.3937007874015748},{"duration":0.05859375,"midi":52,"time":25.993489583333332,"velocity":0.3937007874015748},{"duration":0.05859375,"midi":45,"time":25.993489583333332,"velocity":0.3937007874015748},{"duration":0.05859375,"midi":35,"time":25.993489583333332,"velocity":0.3937007874015748},{"duration":0.17447916666666785,"midi":65,"time":26.015625,"velocity":0.3937007874015748},{"duration":0.05859375,"midi":46,"time":26.028645833333332,"velocity":0.3937007874015748},{"duration":0.05859375,"midi":30,"time":26.028645833333332,"velocity":0.3937007874015748},{"duration":0.05989583333333215,"midi":33,"time":26.0625,"velocity":0.3937007874015748},{"duration":0.17578125,"midi":67,"time":26.07421875,"velocity":0.3937007874015748},{"duration":0.05859375,"midi":51,"time":26.109375,"velocity":0.3937007874015748},{"duration":0.42708333333333215,"midi":77,"time":26.12109375,"velocity":0.3937007874015748},{"duration":0.17708333333333215,"midi":95,"time":26.131510416666668,"velocity":0.3937007874015748},{"duration":0.234375,"midi":91,"time":26.14453125,"velocity":0.3937007874015748},{"duration":0.17578125,"midi":65,"time":26.14453125,"velocity":0.3937007874015748},{"duration":0.17708333333333215,"midi":45,"time":26.201822916666668,"velocity":0.3937007874015748},{"duration":0.17578125,"midi":67,"time":26.213541666666668,"velocity":0.3937007874015748},{"duration":0.05989583333333215,"midi":88,"time":26.248697916666668,"velocity":0.3937007874015748},{"duration":0.05989583333333215,"midi":33,"time":26.296875,"velocity":0.3937007874015748},{"duration":0.05859375,"midi":95,"time":26.30859375,"velocity":0.3937007874015748},{"duration":0.17447916666666785,"midi":65,"time":26.30859375,"velocity":0.3937007874015748},{"duration":0.05989583333333215,"midi":89,"time":26.319010416666668,"velocity":0.3937007874015748},{"duration":0.12630208333333215,"midi":91,"time":26.319010416666668,"velocity":0.3937007874015748},{"duration":0.17578125,"midi":88,"time":26.319010416666668,"velocity":0.3937007874015748},{"duration":0.1744791666666643,"midi":72,"time":26.330729166666668,"velocity":0.3937007874015748},{"duration":0.1744791666666643,"midi":87,"time":26.330729166666668,"velocity":0.3937007874015748},{"duration":0.05859375,"midi":56,"time":26.330729166666668,"velocity":0.3937007874015748},{"duration":0.17447916666666785,"midi":92,"time":26.34375,"velocity":0.3937007874015748},{"duration":0.17447916666666785,"midi":80,"time":26.34375,"velocity":0.3937007874015748},{"duration":0.05729166666666785,"midi":32,"time":26.35546875,"velocity":0.3937007874015748},{"duration":0.17447916666666785,"midi":57,"time":26.35546875,"velocity":0.3937007874015748},{"duration":0.17578125,"midi":84,"time":26.365885416666668,"velocity":0.3937007874015748},{"duration":0.30078125,"midi":90,"time":26.365885416666668,"velocity":0.3937007874015748},{"duration":0.4270833333333357,"midi":88,"time":26.423177083333332,"velocity":0.3937007874015748},{"duration":0.0598958333333357,"midi":93,"time":26.434895833333332,"velocity":0.3937007874015748},{"duration":0.4270833333333357,"midi":88,"time":26.434895833333332,"velocity":0.3937007874015748},{"duration":0.3020833333333357,"midi":81,"time":26.446614583333332,"velocity":0.3937007874015748},{"duration":0.30208333333333215,"midi":85,"time":26.459635416666668,"velocity":0.3937007874015748},{"duration":0.06119791666666785,"midi":60,"time":26.505208333333332,"velocity":0.3937007874015748},{"duration":0.3020833333333357,"midi":91,"time":26.516927083333332,"velocity":0.3937007874015748},{"duration":0.1770833333333357,"midi":69,"time":26.634114583333332,"velocity":0.3937007874015748},{"duration":0.06119791666666785,"midi":79,"time":26.727864583333332,"velocity":0.3937007874015748},{"duration":0.17578125,"midi":74,"time":26.727864583333332,"velocity":0.3937007874015748},{"duration":0.06119791666666785,"midi":51,"time":26.727864583333332,"velocity":0.3937007874015748},{"duration":0.06119791666666785,"midi":60,"time":26.727864583333332,"velocity":0.3937007874015748},{"duration":0.17578125,"midi":83,"time":26.739583333333332,"velocity":0.3937007874015748},{"duration":0.06119791666666785,"midi":78,"time":26.739583333333332,"velocity":0.3937007874015748},{"duration":0.0598958333333357,"midi":41,"time":26.751302083333332,"velocity":0.3937007874015748},{"duration":0.0598958333333357,"midi":64,"time":26.751302083333332,"velocity":0.3937007874015748},{"duration":0.1744791666666643,"midi":81,"time":26.764322916666668,"velocity":0.3937007874015748},{"duration":0.05859375,"midi":37,"time":26.764322916666668,"velocity":0.3937007874015748},{"duration":0.0572916666666643,"midi":36,"time":26.776041666666668,"velocity":0.3937007874015748},{"duration":0.0572916666666643,"midi":55,"time":26.776041666666668,"velocity":0.3937007874015748},{"duration":0.5481770833333321,"midi":50,"time":26.787760416666668,"velocity":0.3937007874015748},{"duration":0.0572916666666643,"midi":63,"time":26.787760416666668,"velocity":0.3937007874015748},{"duration":0.05859375,"midi":80,"time":26.821614583333332,"velocity":0.3937007874015748},{"duration":0.05859375,"midi":68,"time":26.821614583333332,"velocity":0.3937007874015748},{"duration":0.17447916666666785,"midi":78,"time":26.821614583333332,"velocity":0.3937007874015748},{"duration":0.05859375,"midi":55,"time":26.821614583333332,"velocity":0.3937007874015748},{"duration":0.05989583333333215,"midi":75,"time":26.83203125,"velocity":0.3937007874015748},{"duration":0.17578125,"midi":57,"time":26.85546875,"velocity":0.3937007874015748},{"duration":0.29947916666666785,"midi":57,"time":26.94921875,"velocity":0.3937007874015748},{"duration":0.6744791666666679,"midi":65,"time":26.94921875,"velocity":0.3937007874015748},{"duration":0.1744791666666643,"midi":68,"time":27.123697916666668,"velocity":0.3937007874015748},{"duration":0.1744791666666643,"midi":56,"time":27.158854166666668,"velocity":0.3937007874015748},{"duration":0.05859375,"midi":57,"time":27.274739583333332,"velocity":0.3937007874015748},{"duration":0.0598958333333357,"midi":58,"time":27.309895833333332,"velocity":0.3937007874015748},{"duration":0.05989583333333215,"midi":69,"time":27.33203125,"velocity":0.3937007874015748},{"duration":0.0598958333333357,"midi":57,"time":27.345052083333332,"velocity":0.3937007874015748},{"duration":0.05859375,"midi":57,"time":27.391927083333332,"velocity":0.3937007874015748},{"duration":0.05859375,"midi":58,"time":27.415364583333332,"velocity":0.3937007874015748},{"duration":0.42447916666666785,"midi":74,"time":27.4609375,"velocity":0.3937007874015748},{"duration":0.29947916666666785,"midi":62,"time":27.47265625,"velocity":0.3937007874015748},{"duration":0.05859375,"midi":57,"time":27.47265625,"velocity":0.3937007874015748},{"duration":0.05989583333333215,"midi":56,"time":27.518229166666668,"velocity":0.3937007874015748},{"duration":0.2994791666666643,"midi":65,"time":27.553385416666668,"velocity":0.3937007874015748},{"duration":0.05859375,"midi":57,"time":27.600260416666668,"velocity":0.3937007874015748},{"duration":0.1744791666666643,"midi":57,"time":27.658854166666668,"velocity":0.3937007874015748},{"duration":0.17447916666666785,"midi":62,"time":27.727864583333332,"velocity":0.3937007874015748},{"duration":0.17447916666666785,"midi":57,"time":27.763020833333332,"velocity":0.3937007874015748},{"duration":0.17447916666666785,"midi":65,"time":27.774739583333332,"velocity":0.3937007874015748},{"duration":0.05859375,"midi":66,"time":27.947916666666668,"velocity":0.3937007874015748},{"duration":0.17578125,"midi":53,"time":27.983072916666668,"velocity":0.3937007874015748},{"duration":0.42578125,"midi":62,"time":28.006510416666668,"velocity":0.3937007874015748},{"duration":0.05989583333333215,"midi":66,"time":28.041666666666668,"velocity":0.3937007874015748},{"duration":0.05989583333333215,"midi":54,"time":28.076822916666668,"velocity":0.3937007874015748},{"duration":0.05989583333333215,"midi":67,"time":28.088541666666668,"velocity":0.3937007874015748},{"duration":0.05989583333333215,"midi":56,"time":28.111979166666668,"velocity":0.3937007874015748},{"duration":0.05859375,"midi":68,"time":28.123697916666668,"velocity":0.3937007874015748},{"duration":0.05859375,"midi":55,"time":28.135416666666668,"velocity":0.3937007874015748},{"duration":0.05859375,"midi":56,"time":28.158854166666668,"velocity":0.3937007874015748},{"duration":0.1744791666666643,"midi":55,"time":28.182291666666668,"velocity":0.3937007874015748},{"duration":0.05989583333333215,"midi":66,"time":28.33203125,"velocity":0.3937007874015748},{"duration":0.05989583333333215,"midi":50,"time":28.35546875,"velocity":0.3937007874015748},{"duration":0.05989583333333215,"midi":66,"time":28.3671875,"velocity":0.3937007874015748},{"duration":0.05859375,"midi":65,"time":28.4375,"velocity":0.3937007874015748},{"duration":0.42447916666666785,"midi":62,"time":28.47265625,"velocity":0.3937007874015748},{"duration":0.05859375,"midi":51,"time":28.47265625,"velocity":0.3937007874015748},{"duration":0.17447916666666785,"midi":50,"time":28.49609375,"velocity":0.3937007874015748},{"duration":0.05859375,"midi":57,"time":28.53125,"velocity":0.3937007874015748},{"duration":0.30078125,"midi":50,"time":28.576822916666668,"velocity":0.3937007874015748},{"duration":0.17578125,"midi":57,"time":28.611979166666668,"velocity":0.3937007874015748},{"duration":0.17578125,"midi":65,"time":28.634114583333332,"velocity":0.3937007874015748},{"duration":0.0598958333333357,"midi":51,"time":28.774739583333332,"velocity":0.3937007874015748},{"duration":0.05859375,"midi":51,"time":28.821614583333332,"velocity":0.3937007874015748},{"duration":0.3020833333333357,"midi":65,"time":28.845052083333332,"velocity":0.3937007874015748},{"duration":0.05859375,"midi":53,"time":28.856770833333332,"velocity":0.3937007874015748},{"duration":0.05989583333333215,"midi":57,"time":28.890625,"velocity":0.3937007874015748},{"duration":0.05989583333333215,"midi":53,"time":28.94921875,"velocity":0.3937007874015748},{"duration":0.17708333333333215,"midi":62,"time":28.97265625,"velocity":0.3937007874015748},{"duration":0.05989583333333215,"midi":53,"time":28.984375,"velocity":0.3937007874015748},{"duration":0.05989583333333215,"midi":53,"time":29.01953125,"velocity":0.3937007874015748},{"duration":0.17708333333333215,"midi":53,"time":29.0546875,"velocity":0.3937007874015748},{"duration":0.17708333333333215,"midi":60,"time":29.08984375,"velocity":0.3937007874015748},{"duration":0.05989583333333215,"midi":63,"time":29.11328125,"velocity":0.3937007874015748},{"duration":0.05989583333333215,"midi":52,"time":29.125,"velocity":0.3937007874015748},{"duration":0.05989583333333215,"midi":64,"time":29.13671875,"velocity":0.3937007874015748},{"duration":0.05989583333333215,"midi":51,"time":29.171875,"velocity":0.3937007874015748},{"duration":0.05989583333333215,"midi":62,"time":29.25390625,"velocity":0.3937007874015748},{"duration":0.05859375,"midi":50,"time":29.302083333333332,"velocity":0.3937007874015748},{"duration":0.16536458333333215,"midi":62,"time":29.404947916666668,"velocity":0.3937007874015748},{"duration":0.05859375,"midi":50,"time":29.428385416666668,"velocity":0.3937007874015748},{"duration":0.06119791666666785,"midi":66,"time":29.497395833333332,"velocity":0.3937007874015748},{"duration":0.17578125,"midi":57,"time":29.497395833333332,"velocity":0.3937007874015748},{"duration":0.0716145833333357,"midi":62,"time":29.509114583333332,"velocity":0.3937007874015748},{"duration":0.17578125,"midi":65,"time":29.520833333333332,"velocity":0.3937007874015748},{"duration":0.05989583333333215,"midi":53,"time":29.533854166666668,"velocity":0.3937007874015748},{"duration":0.05859375,"midi":52,"time":29.580729166666668,"velocity":0.3937007874015748},{"duration":0.05859375,"midi":72,"time":29.592447916666668,"velocity":0.3937007874015748},{"duration":0.05859375,"midi":53,"time":29.602864583333332,"velocity":0.3937007874015748},{"duration":0.0598958333333357,"midi":51,"time":29.661458333333332,"velocity":0.3937007874015748},{"duration":0.17578125,"midi":50,"time":29.684895833333332,"velocity":0.3937007874015748},{"duration":0.15234375,"midi":69,"time":29.684895833333332,"velocity":0.3937007874015748},{"duration":0.05859375,"midi":51,"time":29.778645833333332,"velocity":0.3937007874015748},{"duration":0.08203125,"midi":69,"time":29.778645833333332,"velocity":0.3937007874015748},{"duration":0.1731770833333357,"midi":65,"time":29.778645833333332,"velocity":0.3937007874015748},{"duration":0.05859375,"midi":50,"time":29.802083333333332,"velocity":0.3937007874015748},{"duration":0.1380208333333357,"midi":58,"time":29.813802083333332,"velocity":0.3937007874015748},{"duration":0.05859375,"midi":49,"time":29.8359375,"velocity":0.3937007874015748},{"duration":0.09244791666666785,"midi":58,"time":29.89453125,"velocity":0.3937007874015748},{"duration":0.05729166666666785,"midi":41,"time":29.89453125,"velocity":0.3937007874015748},{"duration":0.05859375,"midi":44,"time":29.904947916666668,"velocity":0.3937007874015748},{"duration":0.7981770833333321,"midi":65,"time":29.928385416666668,"velocity":0.3937007874015748},{"duration":0.05859375,"midi":42,"time":29.950520833333332,"velocity":0.3937007874015748},{"duration":0.05729166666666785,"midi":55,"time":29.985677083333332,"velocity":0.3937007874015748},{"duration":0.05729166666666785,"midi":42,"time":30.009114583333332,"velocity":0.3937007874015748},{"duration":0.05859375,"midi":31,"time":30.01953125,"velocity":0.3937007874015748},{"duration":0.05859375,"midi":43,"time":30.04296875,"velocity":0.3937007874015748},{"duration":0.05859375,"midi":58,"time":30.06640625,"velocity":0.3937007874015748},{"duration":0.17317708333333215,"midi":43,"time":30.088541666666668,"velocity":0.3937007874015748},{"duration":0.17447916666666785,"midi":58,"time":30.134114583333332,"velocity":0.3937007874015748},{"duration":0.05859375,"midi":44,"time":30.192708333333332,"velocity":0.3937007874015748},{"duration":0.17578125,"midi":62,"time":30.21484375,"velocity":0.3937007874015748},{"duration":0.05859375,"midi":31,"time":30.21484375,"velocity":0.3937007874015748},{"duration":0.30078125,"midi":43,"time":30.23828125,"velocity":0.3937007874015748},{"duration":0.17578125,"midi":58,"time":30.30859375,"velocity":0.3937007874015748},{"duration":0.17578125,"midi":31,"time":30.34375,"velocity":0.3937007874015748},{"duration":0.17578125,"midi":57,"time":30.471354166666668,"velocity":0.3937007874015748},{"duration":0.30078125,"midi":43,"time":30.471354166666668,"velocity":0.3937007874015748},{"duration":0.17578125,"midi":31,"time":30.506510416666668,"velocity":0.3937007874015748},{"duration":0.05989583333333215,"midi":58,"time":30.611979166666668,"velocity":0.3937007874015748},{"duration":0.05989583333333215,"midi":62,"time":30.658854166666668,"velocity":0.3937007874015748},{"duration":0.05859375,"midi":60,"time":30.670572916666668,"velocity":0.3937007874015748},{"duration":0.05859375,"midi":42,"time":30.682291666666668,"velocity":0.3937007874015748},{"duration":0.05859375,"midi":63,"time":30.694010416666668,"velocity":0.3937007874015748},{"duration":0.1744791666666643,"midi":43,"time":30.705729166666668,"velocity":0.3937007874015748},{"duration":0.1744791666666643,"midi":31,"time":30.717447916666668,"velocity":0.3937007874015748},{"duration":0.1744791666666643,"midi":65,"time":30.717447916666668,"velocity":0.3937007874015748},{"duration":0.17578125,"midi":58,"time":30.739583333333332,"velocity":0.3937007874015748},{"duration":0.05859375,"midi":62,"time":30.786458333333332,"velocity":0.3937007874015748},{"duration":0.05989583333333215,"midi":50,"time":31.06640625,"velocity":0.3937007874015748},{"duration":0.5481770833333321,"midi":65,"time":31.06640625,"velocity":0.3937007874015748},{"duration":0.17447916666666785,"midi":43,"time":31.078125,"velocity":0.3937007874015748},{"duration":0.05989583333333215,"midi":56,"time":31.078125,"velocity":0.3937007874015748},{"duration":0.546875,"midi":62,"time":31.08984375,"velocity":0.3937007874015748},{"duration":0.17447916666666785,"midi":50,"time":31.11328125,"velocity":0.3937007874015748},{"duration":0.05859375,"midi":31,"time":31.18359375,"velocity":0.3937007874015748},{"duration":0.05859375,"midi":53,"time":31.4375,"velocity":0.3937007874015748},{"duration":0.17317708333333215,"midi":50,"time":31.49609375,"velocity":0.3937007874015748},{"duration":0.1744791666666643,"midi":43,"time":31.506510416666668,"velocity":0.3937007874015748},{"duration":0.17578125,"midi":50,"time":31.576822916666668,"velocity":0.3937007874015748},{"duration":0.05859375,"midi":31,"time":31.598958333333332,"velocity":0.3937007874015748},{"duration":0.1770833333333357,"midi":43,"time":31.645833333333332,"velocity":0.3937007874015748},{"duration":0.0598958333333357,"midi":31,"time":31.657552083333332,"velocity":0.3937007874015748},{"duration":0.06119791666666785,"midi":64,"time":31.66796875,"velocity":0.3937007874015748},{"duration":0.06119791666666785,"midi":60,"time":31.66796875,"velocity":0.3937007874015748},{"duration":0.0598958333333357,"midi":50,"time":31.692708333333332,"velocity":0.3937007874015748},{"duration":0.0598958333333357,"midi":31,"time":31.739583333333332,"velocity":0.3937007874015748},{"duration":0.42708333333333215,"midi":43,"time":31.751302083333332,"velocity":0.3937007874015748},{"duration":0.0598958333333357,"midi":31,"time":31.786458333333332,"velocity":0.3937007874015748},{"duration":0.17578125,"midi":65,"time":31.809895833333332,"velocity":0.3937007874015748},{"duration":0.17447916666666785,"midi":62,"time":31.903645833333332,"velocity":0.3937007874015748},{"duration":0.17447916666666785,"midi":31,"time":31.903645833333332,"velocity":0.3937007874015748},{"duration":0.1770833333333357,"midi":65,"time":32.0078125,"velocity":0.3937007874015748},{"duration":0.1783854166666643,"midi":57,"time":32.078125,"velocity":0.3937007874015748},{"duration":0.0598958333333357,"midi":31,"time":32.078125,"velocity":0.3937007874015748},{"duration":0.0598958333333357,"midi":44,"time":32.08984375,"velocity":0.3937007874015748},{"duration":0.059895833333328596,"midi":60,"time":32.231770833333336,"velocity":0.3937007874015748},{"duration":0.05859375,"midi":41,"time":32.243489583333336,"velocity":0.3937007874015748},{"duration":0.05859375,"midi":37,"time":32.255208333333336,"velocity":0.3937007874015748},{"duration":0.05859375,"midi":63,"time":32.278645833333336,"velocity":0.3937007874015748},{"duration":0.1744791666666643,"midi":52,"time":32.278645833333336,"velocity":0.3937007874015748},{"duration":0.4244791666666643,"midi":45,"time":32.302083333333336,"velocity":0.3937007874015748},{"duration":0.05859375,"midi":33,"time":32.37109375,"velocity":0.3937007874015748},{"duration":0.0598958333333357,"midi":33,"time":32.475260416666664,"velocity":0.3937007874015748},{"duration":0.0598958333333357,"midi":52,"time":32.475260416666664,"velocity":0.3937007874015748},{"duration":0.1744791666666714,"midi":65,"time":32.486979166666664,"velocity":0.3937007874015748},{"duration":0.05859375,"midi":33,"time":32.510416666666664,"velocity":0.3937007874015748},{"duration":0.1744791666666714,"midi":52,"time":32.545572916666664,"velocity":0.3937007874015748},{"duration":0.05859375,"midi":33,"time":32.569010416666664,"velocity":0.3937007874015748},{"duration":0.05859375,"midi":33,"time":32.602864583333336,"velocity":0.3937007874015748},{"duration":0.1744791666666643,"midi":78,"time":32.626302083333336,"velocity":0.3937007874015748},{"duration":0.17578125,"midi":74,"time":32.63671875,"velocity":0.3937007874015748},{"duration":0.0598958333333357,"midi":51,"time":32.63671875,"velocity":0.3937007874015748},{"duration":0.059895833333328596,"midi":56,"time":32.649739583333336,"velocity":0.3937007874015748},{"duration":0.1744791666666643,"midi":69,"time":32.684895833333336,"velocity":0.3937007874015748},{"duration":0.1744791666666643,"midi":62,"time":32.696614583333336,"velocity":0.3937007874015748},{"duration":0.05859375,"midi":57,"time":32.696614583333336,"velocity":0.3937007874015748},{"duration":0.05859375,"midi":51,"time":32.696614583333336,"velocity":0.3937007874015748},{"duration":0.05859375,"midi":33,"time":32.696614583333336,"velocity":0.3937007874015748},{"duration":0.1744791666666643,"midi":45,"time":32.731770833333336,"velocity":0.3937007874015748},{"duration":0.05859375,"midi":51,"time":32.75390625,"velocity":0.3937007874015748},{"duration":0.1744791666666643,"midi":33,"time":32.75390625,"velocity":0.3937007874015748},{"duration":0.05859375,"midi":33,"time":32.928385416666664,"velocity":0.3937007874015748},{"duration":0.0611979166666643,"midi":58,"time":33.009114583333336,"velocity":0.3937007874015748},{"duration":0.059895833333328596,"midi":71,"time":33.020833333333336,"velocity":0.3937007874015748},{"duration":0.05859375,"midi":41,"time":33.033854166666664,"velocity":0.3937007874015748},{"duration":0.05859375,"midi":60,"time":33.033854166666664,"velocity":0.3937007874015748},{"duration":0.057291666666671404,"midi":37,"time":33.045572916666664,"velocity":0.3937007874015748},{"duration":0.057291666666671404,"midi":74,"time":33.057291666666664,"velocity":0.3937007874015748},{"duration":0.057291666666671404,"midi":46,"time":33.080729166666664,"velocity":0.3937007874015748},{"duration":0.1744791666666643,"midi":62,"time":33.091145833333336,"velocity":0.3937007874015748},{"duration":0.05859375,"midi":55,"time":33.1015625,"velocity":0.3937007874015748},{"duration":0.05859375,"midi":45,"time":33.125,"velocity":0.3937007874015748},{"duration":0.05859375,"midi":55,"time":33.13671875,"velocity":0.3937007874015748},{"duration":0.5520833333333357,"midi":46,"time":33.1484375,"velocity":0.3937007874015748},{"duration":0.05859375,"midi":68,"time":33.16015625,"velocity":0.3937007874015748},{"duration":0.1770833333333357,"midi":57,"time":33.18359375,"velocity":0.3937007874015748},{"duration":0.061197916666671404,"midi":53,"time":33.252604166666664,"velocity":0.3937007874015748},{"duration":0.1770833333333357,"midi":58,"time":33.252604166666664,"velocity":0.3937007874015748},{"duration":0.0598958333333357,"midi":34,"time":33.27734375,"velocity":0.3937007874015748},{"duration":0.0598958333333357,"midi":69,"time":33.2890625,"velocity":0.3937007874015748},{"duration":0.1744791666666643,"midi":57,"time":33.32421875,"velocity":0.3937007874015748},{"duration":0.1744791666666643,"midi":34,"time":33.32421875,"velocity":0.3937007874015748},{"duration":0.1744791666666643,"midi":62,"time":33.359375,"velocity":0.3937007874015748},{"duration":0.42578125,"midi":34,"time":33.4296875,"velocity":0.3937007874015748},{"duration":0.1744791666666714,"midi":62,"time":33.451822916666664,"velocity":0.3937007874015748},{"duration":0.1744791666666714,"midi":57,"time":33.475260416666664,"velocity":0.3937007874015748},{"duration":0.059895833333328596,"midi":57,"time":33.684895833333336,"velocity":0.3937007874015748},{"duration":0.059895833333328596,"midi":71,"time":33.802083333333336,"velocity":0.3937007874015748},{"duration":0.1744791666666643,"midi":58,"time":33.813802083333336,"velocity":0.3937007874015748},{"duration":0.1744791666666643,"midi":77,"time":33.813802083333336,"velocity":0.3937007874015748},{"duration":0.1744791666666643,"midi":46,"time":33.825520833333336,"velocity":0.3937007874015748},{"duration":0.1744791666666643,"midi":86,"time":33.860677083333336,"velocity":0.3937007874015748},{"duration":0.05859375,"midi":34,"time":33.884114583333336,"velocity":0.3937007874015748},{"duration":0.05859375,"midi":33,"time":33.919270833333336,"velocity":0.3937007874015748},{"duration":0.17578125,"midi":62,"time":33.94140625,"velocity":0.3937007874015748},{"duration":0.05859375,"midi":57,"time":33.9765625,"velocity":0.3937007874015748},{"duration":0.0598958333333357,"midi":56,"time":34.022135416666664,"velocity":0.3937007874015748},{"duration":0.0598958333333357,"midi":53,"time":34.221354166666664,"velocity":0.3937007874015748},{"duration":0.17578125,"midi":46,"time":34.244791666666664,"velocity":0.3937007874015748},{"duration":0.0598958333333357,"midi":53,"time":34.256510416666664,"velocity":0.3937007874015748},{"duration":0.1744791666666643,"midi":34,"time":34.26953125,"velocity":0.3937007874015748},{"duration":0.05859375,"midi":54,"time":34.31640625,"velocity":0.3937007874015748},{"duration":0.05859375,"midi":56,"time":34.361979166666664,"velocity":0.3937007874015748},{"duration":0.30078125,"midi":62,"time":34.385416666666664,"velocity":0.3937007874015748},{"duration":0.05859375,"midi":55,"time":34.420572916666664,"velocity":0.3937007874015748},{"duration":0.059895833333328596,"midi":53,"time":34.466145833333336,"velocity":0.3937007874015748},{"duration":0.059895833333328596,"midi":55,"time":34.513020833333336,"velocity":0.3937007874015748},{"duration":0.059895833333328596,"midi":56,"time":34.548177083333336,"velocity":0.3937007874015748},{"duration":0.059895833333328596,"midi":58,"time":34.618489583333336,"velocity":0.3937007874015748},{"duration":0.2994791666666643,"midi":53,"time":34.630208333333336,"velocity":0.3937007874015748},{"duration":0.2981770833333286,"midi":46,"time":34.677083333333336,"velocity":0.3937007874015748},{"duration":0.1744791666666714,"midi":34,"time":34.861979166666664,"velocity":0.3937007874015748},{"duration":0.1744791666666714,"midi":53,"time":34.908854166666664,"velocity":0.3937007874015748},{"duration":0.15234375,"midi":34,"time":34.954427083333336,"velocity":0.3937007874015748},{"duration":0.0598958333333357,"midi":68,"time":35.0234375,"velocity":0.3937007874015748},{"duration":0.1744791666666643,"midi":62,"time":35.048177083333336,"velocity":0.3937007874015748},{"duration":0.0807291666666643,"midi":34,"time":35.048177083333336,"velocity":0.3937007874015748},{"duration":0.1731770833333286,"midi":69,"time":35.059895833333336,"velocity":0.3937007874015748},{"duration":0.1744791666666643,"midi":34,"time":35.1171875,"velocity":0.3937007874015748},{"duration":0.05859375,"midi":64,"time":35.1640625,"velocity":0.3937007874015748},{"duration":0.1744791666666643,"midi":60,"time":35.1640625,"velocity":0.3937007874015748},{"duration":0.17578125,"midi":34,"time":35.233072916666664,"velocity":0.3937007874015748},{"duration":0.17578125,"midi":62,"time":35.255208333333336,"velocity":0.3937007874015748},{"duration":0.059895833333328596,"midi":46,"time":35.360677083333336,"velocity":0.3937007874015748},{"duration":0.059895833333328596,"midi":66,"time":35.384114583333336,"velocity":0.3937007874015748},{"duration":0.059895833333328596,"midi":57,"time":35.384114583333336,"velocity":0.3937007874015748},{"duration":0.05859375,"midi":45,"time":35.395833333333336,"velocity":0.3937007874015748},{"duration":0.1731770833333286,"midi":60,"time":35.407552083333336,"velocity":0.3937007874015748},{"duration":0.057291666666671404,"midi":54,"time":35.420572916666664,"velocity":0.3937007874015748},{"duration":0.0572916666666643,"midi":34,"time":35.442708333333336,"velocity":0.3937007874015748},{"duration":0.1731770833333286,"midi":65,"time":35.442708333333336,"velocity":0.3937007874015748},{"duration":0.1744791666666643,"midi":53,"time":35.453125,"velocity":0.3937007874015748},{"duration":0.05859375,"midi":34,"time":35.5,"velocity":0.3937007874015748},{"duration":0.5533854166666714,"midi":34,"time":35.545572916666664,"velocity":0.3937007874015748},{"duration":0.059895833333328596,"midi":47,"time":35.720052083333336,"velocity":0.3937007874015748},{"duration":0.3020833333333286,"midi":62,"time":35.755208333333336,"velocity":0.3937007874015748},{"duration":0.0598958333333357,"midi":57,"time":35.768229166666664,"velocity":0.3937007874015748},{"duration":0.17578125,"midi":57,"time":35.803385416666664,"velocity":0.3937007874015748},{"duration":0.059895833333328596,"midi":41,"time":36.177083333333336,"velocity":0.3937007874015748},{"duration":0.15234375,"midi":68,"time":36.177083333333336,"velocity":0.3937007874015748},{"duration":0.05859375,"midi":56,"time":36.190104166666664,"velocity":0.3937007874015748},{"duration":0.05859375,"midi":37,"time":36.190104166666664,"velocity":0.3937007874015748},{"duration":0.67578125,"midi":64,"time":36.190104166666664,"velocity":0.3937007874015748},{"duration":0.05859375,"midi":46,"time":36.212239583333336,"velocity":0.3937007874015748},{"duration":0.05859375,"midi":45,"time":36.247395833333336,"velocity":0.3937007874015748},{"duration":0.05859375,"midi":31,"time":36.2578125,"velocity":0.3937007874015748},{"duration":0.05859375,"midi":55,"time":36.270833333333336,"velocity":0.3937007874015748},{"duration":0.0807291666666643,"midi":68,"time":36.270833333333336,"velocity":0.3937007874015748},{"duration":0.17578125,"midi":45,"time":36.28125,"velocity":0.3937007874015748},{"duration":0.05859375,"midi":33,"time":36.29296875,"velocity":0.3937007874015748},{"duration":0.05859375,"midi":56,"time":36.29296875,"velocity":0.3937007874015748},{"duration":0.17578125,"midi":57,"time":36.31640625,"velocity":0.3937007874015748},{"duration":0.5520833333333357,"midi":33,"time":36.38671875,"velocity":0.3937007874015748},{"duration":0.5520833333333357,"midi":45,"time":36.3984375,"velocity":0.3937007874015748},{"duration":0.1744791666666643,"midi":57,"time":36.43359375,"velocity":0.3937007874015748},{"duration":0.05859375,"midi":56,"time":36.50390625,"velocity":0.3937007874015748},{"duration":0.1744791666666714,"midi":60,"time":36.526041666666664,"velocity":0.3937007874015748},{"duration":0.05859375,"midi":52,"time":36.549479166666664,"velocity":0.3937007874015748},{"duration":0.059895833333328596,"midi":56,"time":36.618489583333336,"velocity":0.3937007874015748},{"duration":0.059895833333328596,"midi":52,"time":36.618489583333336,"velocity":0.3937007874015748},{"duration":0.059895833333328596,"midi":57,"time":36.665364583333336,"velocity":0.3937007874015748},{"duration":0.059895833333328596,"midi":60,"time":36.700520833333336,"velocity":0.3937007874015748},{"duration":0.1770833333333286,"midi":60,"time":36.794270833333336,"velocity":0.3937007874015748},{"duration":0.1770833333333286,"midi":52,"time":36.794270833333336,"velocity":0.3937007874015748},{"duration":0.059895833333328596,"midi":77,"time":36.946614583333336,"velocity":0.3937007874015748},{"duration":0.4244791666666643,"midi":60,"time":36.946614583333336,"velocity":0.3937007874015748},{"duration":0.1744791666666643,"midi":53,"time":36.958333333333336,"velocity":0.3937007874015748},{"duration":0.059895833333328596,"midi":73,"time":36.958333333333336,"velocity":0.3937007874015748},{"duration":0.05859375,"midi":72,"time":37.006510416666664,"velocity":0.3937007874015748},{"duration":0.05859375,"midi":66,"time":37.075520833333336,"velocity":0.3937007874015748},{"duration":0.05859375,"midi":54,"time":37.087239583333336,"velocity":0.3937007874015748},{"duration":0.1744791666666643,"midi":79,"time":37.109375,"velocity":0.3937007874015748},{"duration":0.2981770833333357,"midi":55,"time":37.109375,"velocity":0.3937007874015748},{"duration":0.1744791666666643,"midi":74,"time":37.109375,"velocity":0.3937007874015748},{"duration":0.05859375,"midi":60,"time":37.341145833333336,"velocity":0.3937007874015748},{"duration":0.1744791666666643,"midi":45,"time":37.341145833333336,"velocity":0.3937007874015748},{"duration":0.42578125,"midi":60,"time":37.399739583333336,"velocity":0.3937007874015748},{"duration":0.17578125,"midi":33,"time":37.41015625,"velocity":0.3937007874015748},{"duration":0.0598958333333357,"midi":77,"time":37.736979166666664,"velocity":0.3937007874015748},{"duration":0.0598958333333357,"midi":64,"time":37.736979166666664,"velocity":0.3937007874015748},{"duration":0.0598958333333357,"midi":37,"time":37.748697916666664,"velocity":0.3937007874015748},{"duration":0.0598958333333357,"midi":65,"time":37.760416666666664,"velocity":0.3937007874015748},{"duration":0.0598958333333357,"midi":52,"time":37.760416666666664,"velocity":0.3937007874015748},{"duration":0.05859375,"midi":60,"time":37.7734375,"velocity":0.3937007874015748},{"duration":0.42578125,"midi":45,"time":37.795572916666664,"velocity":0.3937007874015748},{"duration":0.17578125,"midi":52,"time":37.830729166666664,"velocity":0.3937007874015748},{"duration":0.059895833333328596,"midi":33,"time":37.876302083333336,"velocity":0.3937007874015748},{"duration":0.30078125,"midi":65,"time":37.911458333333336,"velocity":0.3937007874015748},{"duration":0.0598958333333357,"midi":53,"time":37.924479166666664,"velocity":0.3937007874015748},{"duration":0.0598958333333357,"midi":54,"time":37.971354166666664,"velocity":0.3937007874015748},{"duration":0.17578125,"midi":53,"time":37.993489583333336,"velocity":0.3937007874015748},{"duration":0.2994791666666714,"midi":60,"time":38.041666666666664,"velocity":0.3937007874015748},{"duration":0.05859375,"midi":54,"time":38.063802083333336,"velocity":0.3937007874015748},{"duration":0.15234375,"midi":53,"time":38.087239583333336,"velocity":0.3937007874015748},{"duration":0.0598958333333357,"midi":41,"time":38.14453125,"velocity":0.3937007874015748},{"duration":0.05859375,"midi":37,"time":38.157552083333336,"velocity":0.3937007874015748},{"duration":0.08203125,"midi":53,"time":38.180989583333336,"velocity":0.3937007874015748},{"duration":0.1744791666666643,"midi":45,"time":38.204427083333336,"velocity":0.3937007874015748},{"duration":0.05859375,"midi":52,"time":38.274739583333336,"velocity":0.3937007874015748},{"duration":0.05859375,"midi":52,"time":38.33203125,"velocity":0.3937007874015748},{"duration":0.05859375,"midi":60,"time":38.35546875,"velocity":0.3937007874015748},{"duration":0.17578125,"midi":45,"time":38.377604166666664,"velocity":0.3937007874015748},{"duration":0.05859375,"midi":33,"time":38.390625,"velocity":0.3937007874015748},{"duration":0.0598958333333357,"midi":55,"time":38.506510416666664,"velocity":0.3937007874015748},{"duration":0.17578125,"midi":63,"time":38.541666666666664,"velocity":0.3937007874015748},{"duration":0.17578125,"midi":70,"time":38.553385416666664,"velocity":0.3937007874015748},{"duration":0.05859375,"midi":51,"time":38.565104166666664,"velocity":0.3937007874015748},{"duration":0.17578125,"midi":33,"time":38.588541666666664,"velocity":0.3937007874015748},{"duration":0.17578125,"midi":51,"time":38.610677083333336,"velocity":0.3937007874015748},{"duration":0.1770833333333286,"midi":45,"time":38.634114583333336,"velocity":0.3937007874015748},{"duration":0.059895833333328596,"midi":52,"time":38.680989583333336,"velocity":0.3937007874015748},{"duration":0.059895833333328596,"midi":65,"time":38.704427083333336,"velocity":0.3937007874015748},{"duration":0.059895833333328596,"midi":53,"time":38.716145833333336,"velocity":0.3937007874015748},{"duration":0.059895833333328596,"midi":64,"time":38.763020833333336,"velocity":0.3937007874015748},{"duration":0.059895833333328596,"midi":51,"time":38.798177083333336,"velocity":0.3937007874015748},{"duration":0.1744791666666714,"midi":33,"time":38.822916666666664,"velocity":0.3937007874015748},{"duration":0.05859375,"midi":64,"time":38.845052083333336,"velocity":0.3937007874015748},{"duration":0.1744791666666643,"midi":53,"time":38.868489583333336,"velocity":0.3937007874015748},{"duration":0.0598958333333357,"midi":64,"time":38.9140625,"velocity":0.3937007874015748},{"duration":0.17578125,"midi":57,"time":38.927083333333336,"velocity":0.3937007874015748},{"duration":0.05859375,"midi":33,"time":38.938802083333336,"velocity":0.3937007874015748},{"duration":0.0598958333333357,"midi":53,"time":39.04296875,"velocity":0.3937007874015748},{"duration":0.1744791666666643,"midi":33,"time":39.0546875,"velocity":0.3937007874015748},{"duration":0.05859375,"midi":57,"time":39.06640625,"velocity":0.3937007874015748},{"duration":0.0572916666666643,"midi":52,"time":39.079427083333336,"velocity":0.3937007874015748},{"duration":0.05859375,"midi":57,"time":39.135416666666664,"velocity":0.3937007874015748},{"duration":0.17578125,"midi":57,"time":39.180989583333336,"velocity":0.3937007874015748},{"duration":0.05859375,"midi":53,"time":39.227864583333336,"velocity":0.3937007874015748},{"duration":0.0598958333333357,"midi":64,"time":39.296875,"velocity":0.3937007874015748},{"duration":0.05859375,"midi":37,"time":39.309895833333336,"velocity":0.3937007874015748},{"duration":0.05859375,"midi":63,"time":39.321614583333336,"velocity":0.3937007874015748},{"duration":0.05859375,"midi":60,"time":39.321614583333336,"velocity":0.3937007874015748},{"duration":0.30078125,"midi":69,"time":39.356770833333336,"velocity":0.3937007874015748},{"duration":0.05859375,"midi":50,"time":39.356770833333336,"velocity":0.3937007874015748},{"duration":0.0598958333333357,"midi":65,"time":39.3671875,"velocity":0.3937007874015748},{"duration":0.0598958333333357,"midi":57,"time":39.3671875,"velocity":0.3937007874015748},{"duration":0.17578125,"midi":62,"time":39.40234375,"velocity":0.3937007874015748},{"duration":0.55078125,"midi":65,"time":39.4140625,"velocity":0.3937007874015748},{"duration":0.42578125,"midi":57,"time":39.51953125,"velocity":0.3937007874015748},{"duration":0.1744791666666643,"midi":50,"time":39.58984375,"velocity":0.3937007874015748},{"duration":0.05859375,"midi":51,"time":39.6953125,"velocity":0.3937007874015748},{"duration":0.05859375,"midi":50,"time":39.752604166666664,"velocity":0.3937007874015748},{"duration":0.1744791666666714,"midi":50,"time":39.811197916666664,"velocity":0.3937007874015748},{"duration":0.05859375,"midi":51,"time":39.903645833333336,"velocity":0.3937007874015748},{"duration":0.05859375,"midi":71,"time":39.915364583333336,"velocity":0.3937007874015748},{"duration":0.057291666666671404,"midi":52,"time":39.928385416666664,"velocity":0.3937007874015748},{"duration":0.057291666666671404,"midi":64,"time":39.928385416666664,"velocity":0.3937007874015748},{"duration":0.05859375,"midi":51,"time":39.9609375,"velocity":0.3937007874015748},{"duration":0.05859375,"midi":52,"time":39.984375,"velocity":0.3937007874015748},{"duration":0.05859375,"midi":62,"time":40.0078125,"velocity":0.3937007874015748},{"duration":0.05859375,"midi":52,"time":40.01953125,"velocity":0.3937007874015748},{"duration":0.05859375,"midi":53,"time":40.04296875,"velocity":0.3937007874015748},{"duration":0.0598958333333357,"midi":53,"time":40.100260416666664,"velocity":0.3937007874015748},{"duration":0.30078125,"midi":53,"time":40.135416666666664,"velocity":0.3937007874015748},{"duration":0.30078125,"midi":65,"time":40.391927083333336,"velocity":0.3937007874015748},{"duration":0.17578125,"midi":50,"time":40.484375,"velocity":0.3937007874015748},{"duration":0.05859375,"midi":56,"time":40.484375,"velocity":0.3937007874015748},{"duration":0.05859375,"midi":34,"time":40.5078125,"velocity":0.3937007874015748},{"duration":0.0598958333333357,"midi":51,"time":40.600260416666664,"velocity":0.3937007874015748},{"duration":0.5494791666666714,"midi":65,"time":40.647135416666664,"velocity":0.3937007874015748},{"duration":0.0598958333333357,"midi":68,"time":40.647135416666664,"velocity":0.3937007874015748},{"duration":0.05859375,"midi":55,"time":40.66015625,"velocity":0.3937007874015748},{"duration":0.1744791666666714,"midi":75,"time":40.670572916666664,"velocity":0.3937007874015748},{"duration":0.05859375,"midi":56,"time":40.682291666666664,"velocity":0.3937007874015748},{"duration":0.1744791666666714,"midi":68,"time":40.682291666666664,"velocity":0.3937007874015748},{"duration":0.05859375,"midi":56,"time":40.717447916666664,"velocity":0.3937007874015748},{"duration":0.059895833333328596,"midi":56,"time":40.751302083333336,"velocity":0.3937007874015748},{"duration":0.059895833333328596,"midi":56,"time":40.821614583333336,"velocity":0.3937007874015748},{"duration":0.42578125,"midi":81,"time":40.84375,"velocity":0.3937007874015748},{"duration":0.0598958333333357,"midi":84,"time":40.84375,"velocity":0.3937007874015748},{"duration":0.55078125,"midi":57,"time":40.856770833333336,"velocity":0.3937007874015748},{"duration":0.67578125,"midi":50,"time":40.9140625,"velocity":0.3937007874015748},{"duration":0.1744791666666643,"midi":76,"time":41.01953125,"velocity":0.3937007874015748},{"duration":0.17578125,"midi":68,"time":41.321614583333336,"velocity":0.3937007874015748},{"duration":0.059895833333328596,"midi":56,"time":41.356770833333336,"velocity":0.3937007874015748},{"duration":0.059895833333328596,"midi":65,"time":41.391927083333336,"velocity":0.3937007874015748},{"duration":0.059895833333328596,"midi":60,"time":41.427083333333336,"velocity":0.3937007874015748},{"duration":0.05859375,"midi":56,"time":41.438802083333336,"velocity":0.3937007874015748},{"duration":0.17578125,"midi":57,"time":41.4609375,"velocity":0.3937007874015748},{"duration":0.1770833333333357,"midi":65,"time":41.51953125,"velocity":0.3937007874015748},{"duration":0.05859375,"midi":50,"time":41.53125,"velocity":0.3937007874015748},{"duration":0.0611979166666643,"midi":62,"time":41.625,"velocity":0.3937007874015748},{"duration":0.0598958333333357,"midi":60,"time":41.6484375,"velocity":0.3937007874015748},{"duration":0.059895833333328596,"midi":64,"time":41.661458333333336,"velocity":0.3937007874015748},{"duration":0.5494791666666643,"midi":50,"time":41.696614583333336,"velocity":0.3937007874015748},{"duration":0.05859375,"midi":57,"time":41.8359375,"velocity":0.3937007874015748},{"duration":0.1744791666666714,"midi":57,"time":42.010416666666664,"velocity":0.3937007874015748},{"duration":0.05859375,"midi":57,"time":42.2890625,"velocity":0.3937007874015748},{"duration":0.059895833333328596,"midi":64,"time":42.415364583333336,"velocity":0.3937007874015748},{"duration":0.0598958333333357,"midi":41,"time":42.428385416666664,"velocity":0.3937007874015748},{"duration":0.0598958333333357,"midi":60,"time":42.428385416666664,"velocity":0.3937007874015748},{"duration":0.0598958333333357,"midi":37,"time":42.440104166666664,"velocity":0.3937007874015748},{"duration":0.0598958333333357,"midi":63,"time":42.440104166666664,"velocity":0.3937007874015748},{"duration":0.17578125,"midi":43,"time":42.475260416666664,"velocity":0.3937007874015748},{"duration":0.17578125,"midi":50,"time":42.475260416666664,"velocity":0.3937007874015748},{"duration":0.0598958333333357,"midi":29,"time":42.522135416666664,"velocity":0.3937007874015748},{"duration":0.0598958333333357,"midi":62,"time":42.557291666666664,"velocity":0.3937007874015748},{"duration":0.05859375,"midi":31,"time":42.569010416666664,"velocity":0.3937007874015748},{"duration":0.2994791666666714,"midi":50,"time":42.569010416666664,"velocity":0.3937007874015748},{"duration":0.4231770833333357,"midi":62,"time":42.615885416666664,"velocity":0.3937007874015748},{"duration":0.2981770833333357,"midi":43,"time":42.615885416666664,"velocity":0.3937007874015748},{"duration":0.4231770833333357,"midi":65,"time":42.627604166666664,"velocity":0.3937007874015748},{"duration":0.059895833333328596,"midi":58,"time":42.743489583333336,"velocity":0.3937007874015748},{"duration":0.05859375,"midi":31,"time":42.755208333333336,"velocity":0.3937007874015748},{"duration":0.1731770833333286,"midi":31,"time":42.802083333333336,"velocity":0.3937007874015748},{"duration":0.05859375,"midi":70,"time":42.813802083333336,"velocity":0.3937007874015748},{"duration":0.17578125,"midi":43,"time":42.82421875,"velocity":0.3937007874015748},{"duration":0.05859375,"midi":50,"time":42.859375,"velocity":0.3937007874015748},{"duration":0.0598958333333357,"midi":50,"time":42.951822916666664,"velocity":0.3937007874015748},{"duration":0.05859375,"midi":58,"time":42.986979166666664,"velocity":0.3937007874015748},{"duration":0.05859375,"midi":31,"time":42.986979166666664,"velocity":0.3937007874015748},{"duration":0.057291666666671404,"midi":71,"time":43.022135416666664,"velocity":0.3937007874015748},{"duration":0.171875,"midi":52,"time":43.022135416666664,"velocity":0.3937007874015748},{"duration":0.1731770833333286,"midi":31,"time":43.055989583333336,"velocity":0.3937007874015748},{"duration":0.05859375,"midi":58,"time":43.079427083333336,"velocity":0.3937007874015748},{"duration":0.1731770833333357,"midi":52,"time":43.11328125,"velocity":0.3937007874015748},{"duration":0.0572916666666643,"midi":58,"time":43.13671875,"velocity":0.3937007874015748},{"duration":0.05859375,"midi":65,"time":43.147135416666664,"velocity":0.3937007874015748},{"duration":0.0598958333333357,"midi":74,"time":43.194010416666664,"velocity":0.3937007874015748},{"duration":0.1744791666666714,"midi":53,"time":43.194010416666664,"velocity":0.3937007874015748},{"duration":0.05859375,"midi":58,"time":43.263020833333336,"velocity":0.3937007874015748},{"duration":0.1744791666666643,"midi":31,"time":43.263020833333336,"velocity":0.3937007874015748},{"duration":0.0598958333333357,"midi":58,"time":43.33203125,"velocity":0.3937007874015748},{"duration":0.17578125,"midi":53,"time":43.35546875,"velocity":0.3937007874015748},{"duration":0.05859375,"midi":31,"time":43.4140625,"velocity":0.3937007874015748},{"duration":0.17578125,"midi":53,"time":43.4375,"velocity":0.3937007874015748},{"duration":0.0598958333333357,"midi":65,"time":43.553385416666664,"velocity":0.3937007874015748},{"duration":0.0598958333333357,"midi":51,"time":43.553385416666664,"velocity":0.3937007874015748},{"duration":0.17578125,"midi":62,"time":43.576822916666664,"velocity":0.3937007874015748},{"duration":0.17578125,"midi":69,"time":43.588541666666664,"velocity":0.3937007874015748},{"duration":0.05859375,"midi":44,"time":43.600260416666664,"velocity":0.3937007874015748},{"duration":0.05859375,"midi":55,"time":43.611979166666664,"velocity":0.3937007874015748},{"duration":0.17578125,"midi":43,"time":43.623697916666664,"velocity":0.3937007874015748},{"duration":0.4244791666666714,"midi":65,"time":43.623697916666664,"velocity":0.3937007874015748},{"duration":0.17578125,"midi":50,"time":43.623697916666664,"velocity":0.3937007874015748},{"duration":0.059895833333328596,"midi":31,"time":43.727864583333336,"velocity":0.3937007874015748},{"duration":0.059895833333328596,"midi":30,"time":43.763020833333336,"velocity":0.3937007874015748},{"duration":0.05859375,"midi":70,"time":43.811197916666664,"velocity":0.3937007874015748},{"duration":0.05859375,"midi":59,"time":43.833333333333336,"velocity":0.3937007874015748},{"duration":0.05859375,"midi":82,"time":43.856770833333336,"velocity":0.3937007874015748},{"duration":0.05859375,"midi":58,"time":43.856770833333336,"velocity":0.3937007874015748},{"duration":0.05859375,"midi":83,"time":43.891927083333336,"velocity":0.3937007874015748},{"duration":0.2981770833333357,"midi":84,"time":43.9375,"velocity":0.3937007874015748},{"duration":0.0598958333333357,"midi":60,"time":43.94921875,"velocity":0.3937007874015748},{"duration":0.1744791666666643,"midi":79,"time":43.97265625,"velocity":0.3937007874015748},{"duration":0.1744791666666643,"midi":91,"time":43.97265625,"velocity":0.3937007874015748},{"duration":0.0598958333333357,"midi":70,"time":43.97265625,"velocity":0.3937007874015748},{"duration":0.05859375,"midi":42,"time":43.984375,"velocity":0.3937007874015748},{"duration":0.05859375,"midi":86,"time":43.984375,"velocity":0.3937007874015748},{"duration":0.0572916666666643,"midi":37,"time":43.99609375,"velocity":0.3937007874015748},{"duration":0.1731770833333357,"midi":72,"time":43.99609375,"velocity":0.3937007874015748},{"duration":0.2955729166666643,"midi":65,"time":44.009114583333336,"velocity":0.3937007874015748},{"duration":0.0572916666666643,"midi":50,"time":44.009114583333336,"velocity":0.3937007874015748},{"duration":0.0572916666666643,"midi":42,"time":44.03125,"velocity":0.3937007874015748},{"duration":0.1731770833333357,"midi":88,"time":44.04296875,"velocity":0.3937007874015748},{"duration":0.05859375,"midi":43,"time":44.053385416666664,"velocity":0.3937007874015748},{"duration":0.1744791666666714,"midi":60,"time":44.053385416666664,"velocity":0.3937007874015748},{"duration":0.1731770833333357,"midi":50,"time":44.088541666666664,"velocity":0.3937007874015748},{"duration":0.05859375,"midi":43,"time":44.110677083333336,"velocity":0.3937007874015748},{"duration":0.05859375,"midi":61,"time":44.169270833333336,"velocity":0.3937007874015748},{"duration":0.546875,"midi":43,"time":44.1796875,"velocity":0.3937007874015748},{"duration":0.1640625,"midi":50,"time":44.203125,"velocity":0.3937007874015748},{"duration":0.05859375,"midi":57,"time":44.203125,"velocity":0.3937007874015748},{"duration":0.05859375,"midi":57,"time":44.260416666666664,"velocity":0.3937007874015748},{"duration":0.05859375,"midi":65,"time":44.260416666666664,"velocity":0.3937007874015748},{"duration":0.140625,"midi":31,"time":44.272135416666664,"velocity":0.3937007874015748},{"duration":0.0703125,"midi":50,"time":44.307291666666664,"velocity":0.3937007874015748},{"duration":0.1731770833333357,"midi":60,"time":44.319010416666664,"velocity":0.3937007874015748},{"duration":0.0924479166666714,"midi":31,"time":44.354166666666664,"velocity":0.3937007874015748},{"duration":0.2955729166666714,"midi":65,"time":44.365885416666664,"velocity":0.3937007874015748},{"duration":0.05859375,"midi":83,"time":44.376302083333336,"velocity":0.3937007874015748},{"duration":0.057291666666671404,"midi":59,"time":44.389322916666664,"velocity":0.3937007874015748},{"duration":0.057291666666671404,"midi":50,"time":44.389322916666664,"velocity":0.3937007874015748},{"duration":0.0572916666666643,"midi":31,"time":44.411458333333336,"velocity":0.3937007874015748},{"duration":0.1731770833333286,"midi":82,"time":44.423177083333336,"velocity":0.3937007874015748},{"duration":0.421875,"midi":77,"time":44.423177083333336,"velocity":0.3937007874015748},{"duration":0.0572916666666643,"midi":58,"time":44.434895833333336,"velocity":0.3937007874015748},{"duration":0.1744791666666714,"midi":31,"time":44.479166666666664,"velocity":0.3937007874015748},{"duration":0.1731770833333357,"midi":58,"time":44.490885416666664,"velocity":0.3937007874015748},{"duration":0.05859375,"midi":59,"time":44.572916666666664,"velocity":0.3937007874015748},{"duration":0.05859375,"midi":31,"time":44.595052083333336,"velocity":0.3937007874015748},{"duration":0.421875,"midi":70,"time":44.595052083333336,"velocity":0.3937007874015748},{"duration":0.17578125,"midi":58,"time":44.595052083333336,"velocity":0.3937007874015748},{"duration":0.0598958333333357,"midi":58,"time":44.7109375,"velocity":0.3937007874015748},{"duration":0.0598958333333357,"midi":59,"time":44.74609375,"velocity":0.3937007874015748},{"duration":0.0598958333333357,"midi":64,"time":44.74609375,"velocity":0.3937007874015748},{"duration":0.05859375,"midi":78,"time":44.7578125,"velocity":0.3937007874015748},{"duration":0.0572916666666643,"midi":37,"time":44.770833333333336,"velocity":0.3937007874015748},{"duration":0.0572916666666643,"midi":53,"time":44.770833333333336,"velocity":0.3937007874015748},{"duration":0.05859375,"midi":61,"time":44.78125,"velocity":0.3937007874015748},{"duration":0.05859375,"midi":36,"time":44.78125,"velocity":0.3937007874015748},{"duration":0.0572916666666643,"midi":45,"time":44.79296875,"velocity":0.3937007874015748},{"duration":0.0572916666666643,"midi":60,"time":44.805989583333336,"velocity":0.3937007874015748},{"duration":0.171875,"midi":64,"time":44.81640625,"velocity":0.3937007874015748},{"duration":0.1731770833333357,"midi":58,"time":44.826822916666664,"velocity":0.3937007874015748},{"duration":0.05859375,"midi":30,"time":44.826822916666664,"velocity":0.3937007874015748},{"duration":0.1731770833333357,"midi":45,"time":44.850260416666664,"velocity":0.3937007874015748},{"duration":0.05859375,"midi":52,"time":44.872395833333336,"velocity":0.3937007874015748},{"duration":0.05859375,"midi":67,"time":44.895833333333336,"velocity":0.3937007874015748},{"duration":0.05859375,"midi":58,"time":44.94140625,"velocity":0.3937007874015748},{"duration":0.05859375,"midi":57,"time":44.96484375,"velocity":0.3937007874015748},{"duration":0.546875,"midi":45,"time":44.986979166666664,"velocity":0.3937007874015748},{"duration":0.05859375,"midi":33,"time":45.010416666666664,"velocity":0.3937007874015748},{"duration":0.05859375,"midi":60,"time":45.069010416666664,"velocity":0.3937007874015748},{"duration":0.421875,"midi":64,"time":45.069010416666664,"velocity":0.3937007874015748},{"duration":0.05859375,"midi":86,"time":45.126302083333336,"velocity":0.3937007874015748},{"duration":0.05859375,"midi":70,"time":45.13671875,"velocity":0.3937007874015748},{"duration":0.05859375,"midi":60,"time":45.149739583333336,"velocity":0.3937007874015748},{"duration":0.05859375,"midi":56,"time":45.149739583333336,"velocity":0.3937007874015748},{"duration":0.4244791666666643,"midi":60,"time":45.1953125,"velocity":0.3937007874015748},{"duration":0.05859375,"midi":33,"time":45.252604166666664,"velocity":0.3937007874015748},{"duration":0.05859375,"midi":52,"time":45.299479166666664,"velocity":0.3937007874015748},{"duration":0.1731770833333357,"midi":33,"time":45.311197916666664,"velocity":0.3937007874015748},{"duration":0.17578125,"midi":52,"time":45.3671875,"velocity":0.3937007874015748},{"duration":0.061197916666671404,"midi":64,"time":45.518229166666664,"velocity":0.3937007874015748},{"duration":0.061197916666671404,"midi":57,"time":45.518229166666664,"velocity":0.3937007874015748},{"duration":0.0598958333333357,"midi":38,"time":45.5546875,"velocity":0.3937007874015748},{"duration":0.0598958333333357,"midi":63,"time":45.5546875,"velocity":0.3937007874015748},{"duration":0.05859375,"midi":37,"time":45.567708333333336,"velocity":0.3937007874015748},{"duration":0.2942708333333286,"midi":62,"time":45.579427083333336,"velocity":0.3937007874015748},{"duration":0.05859375,"midi":27,"time":45.6015625,"velocity":0.3937007874015748},{"duration":0.0572916666666643,"midi":45,"time":45.614583333333336,"velocity":0.3937007874015748},{"duration":0.0572916666666643,"midi":55,"time":45.614583333333336,"velocity":0.3937007874015748},{"duration":0.05859375,"midi":46,"time":45.635416666666664,"velocity":0.3937007874015748},{"duration":0.171875,"midi":65,"time":45.635416666666664,"velocity":0.3937007874015748},{"duration":0.05859375,"midi":80,"time":45.635416666666664,"velocity":0.3937007874015748},{"duration":0.0572916666666643,"midi":75,"time":45.6484375,"velocity":0.3937007874015748},{"duration":0.0572916666666643,"midi":84,"time":45.6484375,"velocity":0.3937007874015748},{"duration":0.0572916666666643,"midi":56,"time":45.6484375,"velocity":0.3937007874015748},{"duration":0.171875,"midi":76,"time":45.670572916666664,"velocity":0.3937007874015748},{"duration":0.057291666666671404,"midi":57,"time":45.670572916666664,"velocity":0.3937007874015748},{"duration":0.171875,"midi":69,"time":45.670572916666664,"velocity":0.3937007874015748},{"duration":0.057291666666671404,"midi":46,"time":45.670572916666664,"velocity":0.3937007874015748},{"duration":0.1731770833333357,"midi":85,"time":45.682291666666664,"velocity":0.3937007874015748},{"duration":0.0572916666666643,"midi":46,"time":45.704427083333336,"velocity":0.3937007874015748},{"duration":0.05859375,"midi":58,"time":45.73828125,"velocity":0.3937007874015748},{"duration":0.55078125,"midi":46,"time":45.76171875,"velocity":0.3937007874015748},{"duration":0.546875,"midi":65,"time":45.76171875,"velocity":0.3937007874015748},{"duration":0.05859375,"midi":57,"time":45.76171875,"velocity":0.3937007874015748},{"duration":0.05859375,"midi":53,"time":45.796875,"velocity":0.3937007874015748},{"duration":0.05859375,"midi":34,"time":45.807291666666664,"velocity":0.3937007874015748},{"duration":0.17578125,"midi":53,"time":45.842447916666664,"velocity":0.3937007874015748},{"duration":0.05859375,"midi":34,"time":45.864583333333336,"velocity":0.3937007874015748},{"duration":0.059895833333328596,"midi":34,"time":45.911458333333336,"velocity":0.3937007874015748},{"duration":0.059895833333328596,"midi":59,"time":45.958333333333336,"velocity":0.3937007874015748},{"duration":0.1770833333333286,"midi":34,"time":45.958333333333336,"velocity":0.3937007874015748},{"duration":0.42578125,"midi":62,"time":46.005208333333336,"velocity":0.3937007874015748},{"duration":0.059895833333328596,"midi":69,"time":46.005208333333336,"velocity":0.3937007874015748},{"duration":0.17578125,"midi":58,"time":46.040364583333336,"velocity":0.3937007874015748},{"duration":0.17578125,"midi":34,"time":46.040364583333336,"velocity":0.3937007874015748},{"duration":0.059895833333328596,"midi":57,"time":46.122395833333336,"velocity":0.3937007874015748},{"duration":0.05859375,"midi":55,"time":46.169270833333336,"velocity":0.3937007874015748},{"duration":0.05859375,"midi":53,"time":46.192708333333336,"velocity":0.3937007874015748},{"duration":0.17578125,"midi":34,"time":46.21484375,"velocity":0.3937007874015748},{"duration":0.05859375,"midi":52,"time":46.21484375,"velocity":0.3937007874015748},{"duration":0.0625,"midi":65,"time":46.25,"velocity":0.3937007874015748},{"duration":0.0598958333333357,"midi":53,"time":46.296875,"velocity":0.3937007874015748},{"duration":0.0598958333333357,"midi":36,"time":46.330729166666664,"velocity":0.3937007874015748},{"duration":0.4205729166666643,"midi":62,"time":46.34375,"velocity":0.3937007874015748},{"duration":0.05859375,"midi":33,"time":46.35546875,"velocity":0.3937007874015748},{"duration":0.9283854166666643,"midi":65,"time":46.37890625,"velocity":0.3937007874015748},{"duration":0.0572916666666643,"midi":80,"time":46.390625,"velocity":0.3937007874015748},{"duration":0.0572916666666643,"midi":46,"time":46.4140625,"velocity":0.3937007874015748},{"duration":0.1744791666666714,"midi":76,"time":46.424479166666664,"velocity":0.3937007874015748},{"duration":0.30078125,"midi":57,"time":46.424479166666664,"velocity":0.3937007874015748},{"duration":0.1744791666666714,"midi":81,"time":46.424479166666664,"velocity":0.3937007874015748},{"duration":0.05859375,"midi":85,"time":46.424479166666664,"velocity":0.3937007874015748},{"duration":0.05859375,"midi":91,"time":46.446614583333336,"velocity":0.3937007874015748},{"duration":0.06640625,"midi":62,"time":46.703125,"velocity":0.3937007874015748},{"duration":0.0598958333333357,"midi":56,"time":46.71484375,"velocity":0.3937007874015748},{"duration":0.17578125,"midi":70,"time":46.71484375,"velocity":0.3937007874015748},{"duration":0.05859375,"midi":45,"time":46.739583333333336,"velocity":0.3937007874015748},{"duration":0.05859375,"midi":57,"time":46.739583333333336,"velocity":0.3937007874015748},{"duration":0.42578125,"midi":62,"time":46.751302083333336,"velocity":0.3937007874015748},{"duration":0.1744791666666714,"midi":46,"time":46.764322916666664,"velocity":0.3937007874015748},{"duration":0.057291666666671404,"midi":58,"time":46.764322916666664,"velocity":0.3937007874015748},{"duration":0.05859375,"midi":57,"time":46.798177083333336,"velocity":0.3937007874015748},{"duration":0.0598958333333357,"midi":34,"time":46.80859375,"velocity":0.3937007874015748},{"duration":0.0598958333333357,"midi":33,"time":46.85546875,"velocity":0.3937007874015748},{"duration":0.1770833333333357,"midi":68,"time":47.135416666666664,"velocity":0.3937007874015748},{"duration":0.0598958333333357,"midi":57,"time":47.135416666666664,"velocity":0.3937007874015748},{"duration":0.1770833333333357,"midi":53,"time":47.158854166666664,"velocity":0.3937007874015748},{"duration":0.8033854166666714,"midi":46,"time":47.170572916666664,"velocity":0.3937007874015748},{"duration":0.3020833333333357,"midi":76,"time":47.217447916666664,"velocity":0.3937007874015748},{"duration":0.0598958333333357,"midi":34,"time":47.217447916666664,"velocity":0.3937007874015748},{"duration":0.1744791666666643,"midi":69,"time":47.23046875,"velocity":0.3937007874015748},{"duration":0.0598958333333357,"midi":57,"time":47.265625,"velocity":0.3937007874015748},{"duration":0.05859375,"midi":58,"time":47.30078125,"velocity":0.3937007874015748},{"duration":0.05859375,"midi":63,"time":47.30078125,"velocity":0.3937007874015748},{"duration":0.17578125,"midi":85,"time":47.3125,"velocity":0.3937007874015748},{"duration":0.0572916666666643,"midi":57,"time":47.32421875,"velocity":0.3937007874015748},{"duration":0.17578125,"midi":53,"time":47.334635416666664,"velocity":0.3937007874015748},{"duration":0.17578125,"midi":65,"time":47.358072916666664,"velocity":0.3937007874015748},{"duration":0.059895833333328596,"midi":57,"time":47.368489583333336,"velocity":0.3937007874015748},{"duration":0.0598958333333357,"midi":34,"time":47.463541666666664,"velocity":0.3937007874015748},{"duration":0.05859375,"midi":53,"time":47.475260416666664,"velocity":0.3937007874015748},{"duration":0.057291666666671404,"midi":70,"time":47.486979166666664,"velocity":0.3937007874015748},{"duration":0.1744791666666643,"midi":53,"time":47.544270833333336,"velocity":0.3937007874015748},{"duration":0.4270833333333286,"midi":65,"time":47.567708333333336,"velocity":0.3937007874015748},{"duration":0.1744791666666643,"midi":69,"time":47.579427083333336,"velocity":0.3937007874015748},{"duration":0.17578125,"midi":34,"time":47.6015625,"velocity":0.3937007874015748},{"duration":0.1770833333333357,"midi":34,"time":47.68359375,"velocity":0.3937007874015748},{"duration":0.0598958333333357,"midi":57,"time":47.68359375,"velocity":0.3937007874015748},{"duration":0.1783854166666714,"midi":62,"time":47.705729166666664,"velocity":0.3937007874015748},{"duration":0.3020833333333357,"midi":69,"time":47.73046875,"velocity":0.3937007874015748},{"duration":0.1770833333333357,"midi":57,"time":47.765625,"velocity":0.3937007874015748},{"duration":0.0611979166666643,"midi":34,"time":47.84765625,"velocity":0.3937007874015748},{"duration":0.0598958333333357,"midi":45,"time":47.87109375,"velocity":0.3937007874015748},{"duration":0.05859375,"midi":64,"time":47.895833333333336,"velocity":0.3937007874015748},{"duration":0.05859375,"midi":60,"time":47.907552083333336,"velocity":0.3937007874015748},{"duration":0.1744791666666643,"midi":57,"time":47.919270833333336,"velocity":0.3937007874015748},{"duration":0.421875,"midi":46,"time":47.930989583333336,"velocity":0.3937007874015748},{"duration":0.05859375,"midi":63,"time":47.930989583333336,"velocity":0.3937007874015748},{"duration":0.1744791666666643,"midi":34,"time":47.94140625,"velocity":0.3937007874015748},{"duration":0.1744791666666714,"midi":34,"time":48.092447916666664,"velocity":0.3937007874015748},{"duration":0.05859375,"midi":57,"time":48.208333333333336,"velocity":0.3937007874015748},{"duration":0.05859375,"midi":34,"time":48.208333333333336,"velocity":0.3937007874015748},{"duration":0.2903645833333286,"midi":57,"time":48.266927083333336,"velocity":0.3937007874015748},{"duration":0.05859375,"midi":84,"time":48.27734375,"velocity":0.3937007874015748},{"duration":0.2994791666666643,"midi":34,"time":48.27734375,"velocity":0.3937007874015748},{"duration":0.1744791666666643,"midi":62,"time":48.30078125,"velocity":0.3937007874015748},{"duration":0.1744791666666643,"midi":46,"time":48.473958333333336,"velocity":0.3937007874015748},{"duration":0.0677083333333286,"midi":57,"time":48.497395833333336,"velocity":0.3937007874015748},{"duration":0.05859375,"midi":34,"time":48.544270833333336,"velocity":0.3937007874015748},{"duration":0.0611979166666643,"midi":63,"time":48.66015625,"velocity":0.3937007874015748},{"duration":0.0598958333333357,"midi":65,"time":48.671875,"velocity":0.3937007874015748},{"duration":0.0598958333333357,"midi":41,"time":48.671875,"velocity":0.3937007874015748},{"duration":0.30078125,"midi":60,"time":48.684895833333336,"velocity":0.3937007874015748},{"duration":0.059895833333328596,"midi":37,"time":48.684895833333336,"velocity":0.3937007874015748},{"duration":0.1744791666666643,"midi":73,"time":48.696614583333336,"velocity":0.3937007874015748},{"duration":0.05859375,"midi":90,"time":48.696614583333336,"velocity":0.3937007874015748},{"duration":0.05859375,"midi":53,"time":48.696614583333336,"velocity":0.3937007874015748},{"duration":0.05859375,"midi":66,"time":48.708333333333336,"velocity":0.3937007874015748},{"duration":0.1744791666666643,"midi":78,"time":48.708333333333336,"velocity":0.3937007874015748},{"duration":0.05859375,"midi":87,"time":48.731770833333336,"velocity":0.3937007874015748},{"duration":0.7786458333333286,"midi":45,"time":48.731770833333336,"velocity":0.3937007874015748},{"duration":0.05859375,"midi":64,"time":48.75390625,"velocity":0.3937007874015748},{"duration":0.05859375,"midi":53,"time":48.75390625,"velocity":0.3937007874015748},{"duration":0.17578125,"midi":67,"time":48.7890625,"velocity":0.3937007874015748},{"duration":0.0598958333333357,"midi":33,"time":48.80078125,"velocity":0.3937007874015748},{"duration":0.1744791666666643,"midi":64,"time":48.84765625,"velocity":0.3937007874015748},{"duration":0.0598958333333357,"midi":81,"time":48.84765625,"velocity":0.3937007874015748},{"duration":0.0598958333333357,"midi":34,"time":48.84765625,"velocity":0.3937007874015748},{"duration":0.1744791666666714,"midi":73,"time":48.869791666666664,"velocity":0.3937007874015748},{"duration":0.0598958333333357,"midi":75,"time":48.89453125,"velocity":0.3937007874015748},{"duration":0.0598958333333357,"midi":80,"time":48.89453125,"velocity":0.3937007874015748},{"duration":0.05859375,"midi":56,"time":48.90625,"velocity":0.3937007874015748},{"duration":0.1731770833333357,"midi":67,"time":48.90625,"velocity":0.3937007874015748},{"duration":0.05859375,"midi":33,"time":48.9296875,"velocity":0.3937007874015748},{"duration":0.5481770833333357,"midi":64,"time":48.94140625,"velocity":0.3937007874015748},{"duration":0.0572916666666643,"midi":81,"time":48.953125,"velocity":0.3937007874015748},{"duration":0.05859375,"midi":33,"time":48.998697916666664,"velocity":0.3937007874015748},{"duration":0.05859375,"midi":33,"time":49.044270833333336,"velocity":0.3937007874015748},{"duration":0.1731770833333286,"midi":56,"time":49.044270833333336,"velocity":0.3937007874015748},{"duration":0.1744791666666643,"midi":60,"time":49.067708333333336,"velocity":0.3937007874015748},{"duration":0.05859375,"midi":52,"time":49.1015625,"velocity":0.3937007874015748},{"duration":0.30078125,"midi":33,"time":49.11328125,"velocity":0.3937007874015748},{"duration":0.05859375,"midi":58,"time":49.1484375,"velocity":0.3937007874015748},{"duration":0.30078125,"midi":60,"time":49.170572916666664,"velocity":0.3937007874015748},{"duration":0.0598958333333357,"midi":56,"time":49.205729166666664,"velocity":0.3937007874015748},{"duration":0.3020833333333357,"midi":67,"time":49.229166666666664,"velocity":0.3937007874015748},{"duration":0.17578125,"midi":33,"time":49.322916666666664,"velocity":0.3937007874015748},{"duration":0.059895833333328596,"midi":80,"time":49.450520833333336,"velocity":0.3937007874015748},{"duration":0.0807291666666643,"midi":45,"time":49.450520833333336,"velocity":0.3937007874015748},{"duration":0.059895833333328596,"midi":66,"time":49.485677083333336,"velocity":0.3937007874015748},{"duration":0.05859375,"midi":72,"time":49.510416666666664,"velocity":0.3937007874015748},{"duration":0.17578125,"midi":53,"time":49.510416666666664,"velocity":0.3937007874015748},{"duration":0.05859375,"midi":32,"time":49.520833333333336,"velocity":0.3937007874015748},{"duration":0.05859375,"midi":66,"time":49.569010416666664,"velocity":0.3937007874015748},{"duration":0.059895833333328596,"midi":54,"time":49.579427083333336,"velocity":0.3937007874015748},{"duration":0.4244791666666643,"midi":67,"time":49.614583333333336,"velocity":0.3937007874015748},{"duration":0.059895833333328596,"midi":55,"time":49.626302083333336,"velocity":0.3937007874015748},{"duration":0.05859375,"midi":45,"time":49.661458333333336,"velocity":0.3937007874015748},{"duration":0.05859375,"midi":55,"time":49.673177083333336,"velocity":0.3937007874015748},{"duration":0.1744791666666643,"midi":74,"time":49.696614583333336,"velocity":0.3937007874015748},{"duration":0.15234375,"midi":55,"time":49.71875,"velocity":0.3937007874015748},{"duration":0.0598958333333357,"midi":60,"time":49.80078125,"velocity":0.3937007874015748},{"duration":0.0807291666666643,"midi":55,"time":49.8125,"velocity":0.3937007874015748},{"duration":0.1731770833333357,"midi":45,"time":49.859375,"velocity":0.3937007874015748},{"duration":0.1744791666666714,"midi":52,"time":49.869791666666664,"velocity":0.3937007874015748},{"duration":0.05859375,"midi":60,"time":49.869791666666664,"velocity":0.3937007874015748},{"duration":0.17578125,"midi":33,"time":49.916666666666664,"velocity":0.3937007874015748},{"duration":0.17578125,"midi":60,"time":49.950520833333336,"velocity":0.3937007874015748},{"duration":0.059895833333328596,"midi":36,"time":50.032552083333336,"velocity":0.3937007874015748},{"duration":0.17578125,"midi":55,"time":50.091145833333336,"velocity":0.3937007874015748},{"duration":0.05859375,"midi":64,"time":50.231770833333336,"velocity":0.3937007874015748},{"duration":0.1731770833333286,"midi":75,"time":50.231770833333336,"velocity":0.3937007874015748},{"duration":0.1731770833333286,"midi":67,"time":50.231770833333336,"velocity":0.3937007874015748},{"duration":0.0572916666666643,"midi":37,"time":50.243489583333336,"velocity":0.3937007874015748},{"duration":0.171875,"midi":60,"time":50.243489583333336,"velocity":0.3937007874015748},{"duration":0.421875,"midi":45,"time":50.2890625,"velocity":0.3937007874015748},{"duration":0.05859375,"midi":55,"time":50.30078125,"velocity":0.3937007874015748},{"duration":0.05859375,"midi":31,"time":50.30078125,"velocity":0.3937007874015748},{"duration":0.05859375,"midi":33,"time":50.346354166666664,"velocity":0.3937007874015748},{"duration":0.05859375,"midi":67,"time":50.368489583333336,"velocity":0.3937007874015748},{"duration":0.2994791666666643,"midi":77,"time":50.368489583333336,"velocity":0.3937007874015748},{"duration":0.05859375,"midi":53,"time":50.381510416666664,"velocity":0.3937007874015748},{"duration":0.05859375,"midi":33,"time":50.403645833333336,"velocity":0.3937007874015748},{"duration":0.05859375,"midi":53,"time":50.415364583333336,"velocity":0.3937007874015748},{"duration":0.0572916666666643,"midi":54,"time":50.462239583333336,"velocity":0.3937007874015748},{"duration":0.05859375,"midi":33,"time":50.47265625,"velocity":0.3937007874015748},{"duration":0.1536458333333357,"midi":53,"time":50.483072916666664,"velocity":0.3937007874015748},{"duration":0.08203125,"midi":53,"time":50.576822916666664,"velocity":0.3937007874015748},{"duration":0.1744791666666643,"midi":64,"time":50.598958333333336,"velocity":0.3937007874015748},{"duration":0.0598958333333357,"midi":60,"time":50.611979166666664,"velocity":0.3937007874015748},{"duration":0.0598958333333357,"midi":88,"time":50.611979166666664,"velocity":0.3937007874015748},{"duration":0.0598958333333357,"midi":50,"time":50.623697916666664,"velocity":0.3937007874015748},{"duration":0.0598958333333357,"midi":68,"time":50.623697916666664,"velocity":0.3937007874015748},{"duration":0.1744791666666714,"midi":60,"time":50.647135416666664,"velocity":0.3937007874015748},{"duration":0.057291666666671404,"midi":44,"time":50.670572916666664,"velocity":0.3937007874015748},{"duration":0.4231770833333357,"midi":45,"time":50.694010416666664,"velocity":0.3937007874015748},{"duration":0.05859375,"midi":33,"time":50.727864583333336,"velocity":0.3937007874015748},{"duration":0.0598958333333357,"midi":33,"time":50.7734375,"velocity":0.3937007874015748},{"duration":0.0598958333333357,"midi":60,"time":50.80859375,"velocity":0.3937007874015748},{"duration":0.0598958333333357,"midi":64,"time":50.80859375,"velocity":0.3937007874015748},{"duration":0.05859375,"midi":33,"time":50.83203125,"velocity":0.3937007874015748},{"duration":0.0598958333333357,"midi":33,"time":50.971354166666664,"velocity":0.3937007874015748},{"duration":0.05859375,"midi":53,"time":51.006510416666664,"velocity":0.3937007874015748},{"duration":0.057291666666671404,"midi":68,"time":51.018229166666664,"velocity":0.3937007874015748},{"duration":0.057291666666671404,"midi":77,"time":51.018229166666664,"velocity":0.3937007874015748},{"duration":0.057291666666671404,"midi":64,"time":51.018229166666664,"velocity":0.3937007874015748},{"duration":0.0572916666666643,"midi":42,"time":51.03125,"velocity":0.3937007874015748},{"duration":0.0572916666666643,"midi":51,"time":51.03125,"velocity":0.3937007874015748},{"duration":0.05859375,"midi":37,"time":51.041666666666664,"velocity":0.3937007874015748},{"duration":0.05859375,"midi":60,"time":51.065104166666664,"velocity":0.3937007874015748},{"duration":0.17578125,"midi":69,"time":51.075520833333336,"velocity":0.3937007874015748},{"duration":0.059895833333328596,"midi":31,"time":51.110677083333336,"velocity":0.3937007874015748},{"duration":0.1744791666666643,"midi":45,"time":51.122395833333336,"velocity":0.3937007874015748},{"duration":0.059895833333328596,"midi":70,"time":51.145833333333336,"velocity":0.3937007874015748},{"duration":0.059895833333328596,"midi":63,"time":51.145833333333336,"velocity":0.3937007874015748},{"duration":0.05859375,"midi":51,"time":51.157552083333336,"velocity":0.3937007874015748},{"duration":0.05859375,"midi":33,"time":51.157552083333336,"velocity":0.3937007874015748},{"duration":0.1744791666666643,"midi":71,"time":51.180989583333336,"velocity":0.3937007874015748},{"duration":0.05859375,"midi":63,"time":51.192708333333336,"velocity":0.3937007874015748},{"duration":0.05859375,"midi":48,"time":51.21484375,"velocity":0.3937007874015748},{"duration":0.05859375,"midi":64,"time":51.25,"velocity":0.3937007874015748},{"duration":0.1744791666666643,"midi":52,"time":51.26171875,"velocity":0.3937007874015748},{"duration":0.05859375,"midi":45,"time":51.2734375,"velocity":0.3937007874015748},{"duration":0.05859375,"midi":44,"time":51.296875,"velocity":0.3937007874015748},{"duration":0.05859375,"midi":60,"time":51.30859375,"velocity":0.3937007874015748},{"duration":0.05859375,"midi":45,"time":51.319010416666664,"velocity":0.3937007874015748},{"duration":0.05859375,"midi":71,"time":51.377604166666664,"velocity":0.3937007874015748},{"duration":0.05859375,"midi":45,"time":51.377604166666664,"velocity":0.3937007874015748},{"duration":0.05859375,"midi":88,"time":51.399739583333336,"velocity":0.3937007874015748},{"duration":0.05859375,"midi":44,"time":51.423177083333336,"velocity":0.3937007874015748},{"duration":0.17578125,"midi":71,"time":51.434895833333336,"velocity":0.3937007874015748},{"duration":0.0598958333333357,"midi":42,"time":51.46875,"velocity":0.3937007874015748},{"duration":0.059895833333328596,"midi":60,"time":51.563802083333336,"velocity":0.3937007874015748},{"duration":0.059895833333328596,"midi":44,"time":51.575520833333336,"velocity":0.3937007874015748},{"duration":0.1744791666666643,"midi":75,"time":51.59765625,"velocity":0.3937007874015748},{"duration":0.0598958333333357,"midi":70,"time":51.59765625,"velocity":0.3937007874015748},{"duration":0.1731770833333286,"midi":79,"time":51.610677083333336,"velocity":0.3937007874015748},{"duration":0.1731770833333286,"midi":51,"time":51.610677083333336,"velocity":0.3937007874015748},{"duration":0.05859375,"midi":57,"time":51.622395833333336,"velocity":0.3937007874015748},{"duration":0.05859375,"midi":50,"time":51.69140625,"velocity":0.3937007874015748},{"duration":0.05859375,"midi":48,"time":51.713541666666664,"velocity":0.3937007874015748},{"duration":0.05859375,"midi":49,"time":51.736979166666664,"velocity":0.3937007874015748},{"duration":0.05859375,"midi":69,"time":51.772135416666664,"velocity":0.3937007874015748},{"duration":0.05859375,"midi":41,"time":51.795572916666664,"velocity":0.3937007874015748},{"duration":0.05859375,"midi":63,"time":51.795572916666664,"velocity":0.3937007874015748},{"duration":0.1731770833333357,"midi":60,"time":51.795572916666664,"velocity":0.3937007874015748},{"duration":0.2994791666666714,"midi":74,"time":51.795572916666664,"velocity":0.3937007874015748},{"duration":0.059895833333328596,"midi":37,"time":51.805989583333336,"velocity":0.3937007874015748},{"duration":0.1731770833333286,"midi":77,"time":51.817708333333336,"velocity":0.3937007874015748},{"duration":0.1731770833333286,"midi":50,"time":51.829427083333336,"velocity":0.3937007874015748},{"duration":0.05859375,"midi":29,"time":51.852864583333336,"velocity":0.3937007874015748},{"duration":0.1744791666666643,"midi":57,"time":51.911458333333336,"velocity":0.3937007874015748},{"duration":0.05859375,"midi":49,"time":51.921875,"velocity":0.3937007874015748},{"duration":0.17578125,"midi":50,"time":51.944010416666664,"velocity":0.3937007874015748},{"duration":0.4270833333333357,"midi":65,"time":52.002604166666664,"velocity":0.3937007874015748},{"duration":0.67578125,"midi":57,"time":52.014322916666664,"velocity":0.3937007874015748},{"duration":0.3020833333333357,"midi":74,"time":52.037760416666664,"velocity":0.3937007874015748},{"duration":0.0598958333333357,"midi":50,"time":52.084635416666664,"velocity":0.3937007874015748},{"duration":0.17578125,"midi":50,"time":52.190104166666664,"velocity":0.3937007874015748},{"duration":0.17578125,"midi":93,"time":52.201822916666664,"velocity":0.3937007874015748},{"duration":0.2994791666666714,"midi":50,"time":52.342447916666664,"velocity":0.3937007874015748},{"duration":0.1744791666666643,"midi":77,"time":52.364583333333336,"velocity":0.3937007874015748},{"duration":0.1744791666666643,"midi":84,"time":52.364583333333336,"velocity":0.3937007874015748},{"duration":0.1640625,"midi":65,"time":52.434895833333336,"velocity":0.3937007874015748},{"duration":0.0598958333333357,"midi":66,"time":52.515625,"velocity":0.3937007874015748},{"duration":0.2994791666666643,"midi":77,"time":52.5390625,"velocity":0.3937007874015748},{"duration":0.0703125,"midi":65,"time":52.5390625,"velocity":0.3937007874015748},{"duration":0.1731770833333357,"midi":93,"time":52.55078125,"velocity":0.3937007874015748},{"duration":0.1380208333333286,"midi":84,"time":52.563802083333336,"velocity":0.3937007874015748},{"duration":0.171875,"midi":94,"time":52.563802083333336,"velocity":0.3937007874015748},{"duration":0.05859375,"midi":78,"time":52.563802083333336,"velocity":0.3937007874015748},{"duration":0.05859375,"midi":58,"time":52.5859375,"velocity":0.3937007874015748},{"duration":0.05859375,"midi":75,"time":52.5859375,"velocity":0.3937007874015748},{"duration":0.05859375,"midi":65,"time":52.5859375,"velocity":0.3937007874015748},{"duration":0.171875,"midi":69,"time":52.5859375,"velocity":0.3937007874015748},{"duration":0.1497395833333357,"midi":84,"time":52.5859375,"velocity":0.3937007874015748},{"duration":0.05859375,"midi":51,"time":52.59765625,"velocity":0.3937007874015748},{"duration":0.171875,"midi":91,"time":52.59765625,"velocity":0.3937007874015748},{"duration":0.05859375,"midi":89,"time":52.59765625,"velocity":0.3937007874015748},{"duration":0.05859375,"midi":50,"time":52.609375,"velocity":0.3937007874015748},{"duration":0.05859375,"midi":66,"time":52.62109375,"velocity":0.3937007874015748},{"duration":0.05859375,"midi":49,"time":52.631510416666664,"velocity":0.3937007874015748},{"duration":0.11328125,"midi":84,"time":52.64453125,"velocity":0.3937007874015748},{"duration":0.1744791666666714,"midi":65,"time":52.666666666666664,"velocity":0.3937007874015748},{"duration":0.057291666666671404,"midi":61,"time":52.666666666666664,"velocity":0.3937007874015748},{"duration":0.17578125,"midi":69,"time":52.700520833333336,"velocity":0.3937007874015748},{"duration":0.1783854166666643,"midi":50,"time":52.7578125,"velocity":0.3937007874015748},{"duration":0.0611979166666643,"midi":63,"time":52.7578125,"velocity":0.3937007874015748},{"duration":0.17578125,"midi":65,"time":52.78125,"velocity":0.3937007874015748},{"duration":0.059895833333328596,"midi":76,"time":52.794270833333336,"velocity":0.3937007874015748},{"duration":0.059895833333328596,"midi":93,"time":52.794270833333336,"velocity":0.3937007874015748},{"duration":0.17578125,"midi":74,"time":52.805989583333336,"velocity":0.3937007874015748},{"duration":0.059895833333328596,"midi":76,"time":52.852864583333336,"velocity":0.3937007874015748},{"duration":0.059895833333328596,"midi":64,"time":52.876302083333336,"velocity":0.3937007874015748},{"duration":0.05859375,"midi":50,"time":52.888020833333336,"velocity":0.3937007874015748},{"duration":0.171875,"midi":65,"time":52.899739583333336,"velocity":0.3937007874015748},{"duration":0.05859375,"midi":69,"time":52.9453125,"velocity":0.3937007874015748},{"duration":0.1731770833333357,"midi":64,"time":52.96875,"velocity":0.3937007874015748},{"duration":0.1731770833333357,"midi":88,"time":53.00390625,"velocity":0.3937007874015748},{"duration":0.0572916666666643,"midi":92,"time":53.00390625,"velocity":0.3937007874015748},{"duration":0.2994791666666714,"midi":83,"time":53.014322916666664,"velocity":0.3937007874015748},{"duration":0.17578125,"midi":74,"time":53.061197916666664,"velocity":0.3937007874015748},{"duration":0.17578125,"midi":65,"time":53.061197916666664,"velocity":0.3937007874015748},{"duration":0.059895833333328596,"midi":92,"time":53.106770833333336,"velocity":0.3937007874015748},{"duration":0.17578125,"midi":64,"time":53.118489583333336,"velocity":0.3937007874015748},{"duration":0.059895833333328596,"midi":77,"time":53.153645833333336,"velocity":0.3937007874015748},{"duration":0.17578125,"midi":60,"time":53.177083333333336,"velocity":0.3937007874015748},{"duration":0.17578125,"midi":92,"time":53.177083333333336,"velocity":0.3937007874015748},{"duration":0.17578125,"midi":88,"time":53.188802083333336,"velocity":0.3937007874015748},{"duration":0.059895833333328596,"midi":90,"time":53.188802083333336,"velocity":0.3937007874015748},{"duration":0.17578125,"midi":50,"time":53.200520833333336,"velocity":0.3937007874015748},{"duration":0.05859375,"midi":65,"time":53.235677083333336,"velocity":0.3937007874015748},{"duration":0.05859375,"midi":57,"time":53.247395833333336,"velocity":0.3937007874015748},{"duration":0.05859375,"midi":63,"time":53.270833333333336,"velocity":0.3937007874015748},{"duration":0.17578125,"midi":65,"time":53.294270833333336,"velocity":0.3937007874015748},{"duration":0.0611979166666643,"midi":58,"time":53.33984375,"velocity":0.3937007874015748},{"duration":0.0598958333333357,"midi":83,"time":53.3515625,"velocity":0.3937007874015748},{"duration":0.1419270833333357,"midi":63,"time":53.3515625,"velocity":0.3937007874015748},{"duration":0.05859375,"midi":88,"time":53.388020833333336,"velocity":0.3937007874015748},{"duration":0.05859375,"midi":84,"time":53.399739583333336,"velocity":0.3937007874015748},{"duration":0.05859375,"midi":89,"time":53.399739583333336,"velocity":0.3937007874015748},{"duration":0.7994791666666643,"midi":50,"time":53.411458333333336,"velocity":0.3937007874015748},{"duration":0.1744791666666643,"midi":93,"time":53.411458333333336,"velocity":0.3937007874015748},{"duration":0.1744791666666643,"midi":57,"time":53.411458333333336,"velocity":0.3937007874015748},{"duration":0.17578125,"midi":82,"time":53.421875,"velocity":0.3937007874015748},{"duration":0.0950520833333357,"midi":63,"time":53.43359375,"velocity":0.3937007874015748},{"duration":0.0598958333333357,"midi":65,"time":53.46875,"velocity":0.3937007874015748},{"duration":0.0598958333333357,"midi":75,"time":53.46875,"velocity":0.3937007874015748},{"duration":0.17578125,"midi":76,"time":53.50390625,"velocity":0.3937007874015748},{"duration":0.17578125,"midi":83,"time":53.50390625,"velocity":0.3937007874015748},{"duration":0.05859375,"midi":64,"time":53.515625,"velocity":0.3937007874015748},{"duration":0.17578125,"midi":90,"time":53.5390625,"velocity":0.3937007874015748},{"duration":0.0598958333333357,"midi":60,"time":53.5625,"velocity":0.3937007874015748},{"duration":0.0598958333333357,"midi":64,"time":53.5625,"velocity":0.3937007874015748},{"duration":0.2994791666666643,"midi":76,"time":53.609375,"velocity":0.3937007874015748},{"duration":0.0598958333333357,"midi":92,"time":53.609375,"velocity":0.3937007874015748},{"duration":0.05859375,"midi":64,"time":53.62109375,"velocity":0.3937007874015748},{"duration":0.1744791666666643,"midi":57,"time":53.62109375,"velocity":0.3937007874015748},{"duration":0.05859375,"midi":63,"time":53.65625,"velocity":0.3937007874015748},{"duration":0.05859375,"midi":65,"time":53.713541666666664,"velocity":0.3937007874015748},{"duration":0.05859375,"midi":60,"time":53.772135416666664,"velocity":0.3937007874015748},{"duration":0.059895833333328596,"midi":77,"time":53.782552083333336,"velocity":0.3937007874015748},{"duration":0.05859375,"midi":62,"time":53.807291666666664,"velocity":0.3937007874015748},{"duration":0.05859375,"midi":57,"time":53.829427083333336,"velocity":0.3937007874015748},{"duration":0.05859375,"midi":62,"time":53.852864583333336,"velocity":0.3937007874015748},{"duration":0.1744791666666643,"midi":65,"time":53.888020833333336,"velocity":0.3937007874015748},{"duration":0.17578125,"midi":57,"time":53.8984375,"velocity":0.3937007874015748},{"duration":0.05859375,"midi":62,"time":53.95703125,"velocity":0.3937007874015748},{"duration":0.17578125,"midi":63,"time":53.979166666666664,"velocity":0.3937007874015748},{"duration":0.1744791666666643,"midi":57,"time":53.9921875,"velocity":0.3937007874015748},{"duration":0.0598958333333357,"midi":84,"time":54.014322916666664,"velocity":0.3937007874015748},{"duration":0.17578125,"midi":81,"time":54.049479166666664,"velocity":0.3937007874015748},{"duration":0.0598958333333357,"midi":62,"time":54.049479166666664,"velocity":0.3937007874015748},{"duration":0.0598958333333357,"midi":61,"time":54.084635416666664,"velocity":0.3937007874015748},{"duration":0.05859375,"midi":65,"time":54.096354166666664,"velocity":0.3937007874015748},{"duration":0.05859375,"midi":62,"time":54.119791666666664,"velocity":0.3937007874015748},{"duration":0.059895833333328596,"midi":68,"time":54.165364583333336,"velocity":0.3937007874015748},{"duration":1.046875,"midi":72,"time":54.165364583333336,"velocity":0.3937007874015748},{"duration":0.059895833333328596,"midi":51,"time":54.165364583333336,"velocity":0.3937007874015748},{"duration":0.059895833333328596,"midi":77,"time":54.165364583333336,"velocity":0.3937007874015748},{"duration":0.059895833333328596,"midi":82,"time":54.188802083333336,"velocity":0.3937007874015748},{"duration":0.1744791666666643,"midi":69,"time":54.200520833333336,"velocity":0.3937007874015748},{"duration":0.1744791666666643,"midi":57,"time":54.200520833333336,"velocity":0.3937007874015748},{"duration":0.05859375,"midi":48,"time":54.212239583333336,"velocity":0.3937007874015748},{"duration":0.1744791666666643,"midi":62,"time":54.235677083333336,"velocity":0.3937007874015748},{"duration":0.1744791666666643,"midi":50,"time":54.259114583333336,"velocity":0.3937007874015748},{"duration":0.05859375,"midi":65,"time":54.294270833333336,"velocity":0.3937007874015748},{"duration":0.05859375,"midi":48,"time":54.375,"velocity":0.3937007874015748},{"duration":0.05859375,"midi":47,"time":54.397135416666664,"velocity":0.3937007874015748},{"duration":0.5494791666666714,"midi":65,"time":54.397135416666664,"velocity":0.3937007874015748},{"duration":0.4244791666666714,"midi":69,"time":54.397135416666664,"velocity":0.3937007874015748},{"duration":0.059895833333328596,"midi":47,"time":54.442708333333336,"velocity":0.3937007874015748},{"duration":0.1744791666666643,"midi":62,"time":54.477864583333336,"velocity":0.3937007874015748},{"duration":0.05859375,"midi":55,"time":54.526041666666664,"velocity":0.3937007874015748},{"duration":0.1744791666666714,"midi":48,"time":54.561197916666664,"velocity":0.3937007874015748},{"duration":0.1744791666666714,"midi":57,"time":54.561197916666664,"velocity":0.3937007874015748},{"duration":0.1744791666666643,"midi":74,"time":54.583333333333336,"velocity":0.3937007874015748},{"duration":0.05859375,"midi":41,"time":54.583333333333336,"velocity":0.3937007874015748},{"duration":0.17578125,"midi":41,"time":54.62890625,"velocity":0.3937007874015748},{"duration":0.0598958333333357,"midi":29,"time":54.67578125,"velocity":0.3937007874015748},{"duration":0.0598958333333357,"midi":42,"time":54.72265625,"velocity":0.3937007874015748},{"duration":0.0598958333333357,"midi":49,"time":54.744791666666664,"velocity":0.3937007874015748},{"duration":0.1744791666666643,"midi":74,"time":54.79296875,"velocity":0.3937007874015748},{"duration":0.1744791666666643,"midi":42,"time":54.79296875,"velocity":0.3937007874015748},{"duration":0.05859375,"midi":49,"time":54.838541666666664,"velocity":0.3937007874015748},{"duration":0.059895833333328596,"midi":69,"time":54.895833333333336,"velocity":0.3937007874015748},{"duration":0.059895833333328596,"midi":63,"time":54.930989583333336,"velocity":0.3937007874015748},{"duration":0.059895833333328596,"midi":40,"time":54.930989583333336,"velocity":0.3937007874015748},{"duration":0.059895833333328596,"midi":85,"time":54.930989583333336,"velocity":0.3937007874015748},{"duration":0.1744791666666643,"midi":70,"time":54.942708333333336,"velocity":0.3937007874015748},{"duration":0.059895833333328596,"midi":86,"time":54.942708333333336,"velocity":0.3937007874015748},{"duration":0.05859375,"midi":38,"time":54.955729166666664,"velocity":0.3937007874015748},{"duration":0.05859375,"midi":77,"time":54.955729166666664,"velocity":0.3937007874015748},{"duration":0.05859375,"midi":60,"time":54.955729166666664,"velocity":0.3937007874015748},{"duration":0.05859375,"midi":90,"time":54.955729166666664,"velocity":0.3937007874015748},{"duration":0.1744791666666714,"midi":64,"time":54.955729166666664,"velocity":0.3937007874015748},{"duration":0.05859375,"midi":88,"time":54.955729166666664,"velocity":0.3937007874015748},{"duration":0.2981770833333286,"midi":74,"time":54.966145833333336,"velocity":0.3937007874015748},{"duration":0.059895833333328596,"midi":37,"time":54.966145833333336,"velocity":0.3937007874015748},{"duration":0.05859375,"midi":85,"time":54.977864583333336,"velocity":0.3937007874015748},{"duration":0.05859375,"midi":67,"time":54.977864583333336,"velocity":0.3937007874015748},{"duration":0.057291666666671404,"midi":89,"time":54.990885416666664,"velocity":0.3937007874015748},{"duration":0.296875,"midi":50,"time":54.990885416666664,"velocity":0.3937007874015748},{"duration":0.2981770833333286,"midi":43,"time":55.013020833333336,"velocity":0.3937007874015748},{"duration":0.1731770833333286,"midi":65,"time":55.036458333333336,"velocity":0.3937007874015748},{"duration":0.1744791666666643,"midi":91,"time":55.046875,"velocity":0.3937007874015748},{"duration":0.0598958333333357,"midi":93,"time":55.08203125,"velocity":0.3937007874015748},{"duration":0.1731770833333357,"midi":72,"time":55.1171875,"velocity":0.3937007874015748},{"duration":0.0572916666666643,"midi":70,"time":55.141927083333336,"velocity":0.3937007874015748},{"duration":0.0572916666666643,"midi":64,"time":55.15234375,"velocity":0.3937007874015748},{"duration":0.17578125,"midi":65,"time":55.17578125,"velocity":0.3937007874015748},{"duration":0.05859375,"midi":31,"time":55.197916666666664,"velocity":0.3937007874015748},{"duration":0.05859375,"midi":62,"time":55.221354166666664,"velocity":0.3937007874015748},{"duration":0.17578125,"midi":70,"time":55.302083333333336,"velocity":0.3937007874015748},{"duration":0.0611979166666643,"midi":74,"time":55.313802083333336,"velocity":0.3937007874015748},{"duration":0.059895833333328596,"midi":63,"time":55.325520833333336,"velocity":0.3937007874015748},{"duration":0.1744791666666714,"midi":84,"time":55.338541666666664,"velocity":0.3937007874015748},{"duration":0.057291666666671404,"midi":89,"time":55.361979166666664,"velocity":0.3937007874015748},{"duration":0.2994791666666714,"midi":74,"time":55.385416666666664,"velocity":0.3937007874015748},{"duration":0.05859375,"midi":88,"time":55.395833333333336,"velocity":0.3937007874015748},{"duration":0.05859375,"midi":62,"time":55.395833333333336,"velocity":0.3937007874015748},{"duration":0.30078125,"midi":65,"time":55.419270833333336,"velocity":0.3937007874015748},{"duration":0.059895833333328596,"midi":62,"time":55.524739583333336,"velocity":0.3937007874015748},{"duration":0.1744791666666643,"midi":70,"time":55.536458333333336,"velocity":0.3937007874015748},{"duration":0.1536458333333357,"midi":62,"time":55.59375,"velocity":0.3937007874015748},{"duration":0.08203125,"midi":62,"time":55.6875,"velocity":0.3937007874015748},{"duration":0.0598958333333357,"midi":66,"time":55.72265625,"velocity":0.3937007874015748},{"duration":0.0598958333333357,"midi":85,"time":55.72265625,"velocity":0.3937007874015748},{"duration":0.0598958333333357,"midi":94,"time":55.72265625,"velocity":0.3937007874015748},{"duration":0.0598958333333357,"midi":77,"time":55.72265625,"velocity":0.3937007874015748},{"duration":0.0598958333333357,"midi":51,"time":55.72265625,"velocity":0.3937007874015748},{"duration":0.0598958333333357,"midi":60,"time":55.734375,"velocity":0.3937007874015748},{"duration":0.17578125,"midi":87,"time":55.734375,"velocity":0.3937007874015748},{"duration":0.0598958333333357,"midi":90,"time":55.74609375,"velocity":0.3937007874015748},{"duration":0.0598958333333357,"midi":88,"time":55.74609375,"velocity":0.3937007874015748},{"duration":0.0598958333333357,"midi":50,"time":55.74609375,"velocity":0.3937007874015748},{"duration":0.0611979166666643,"midi":61,"time":55.7578125,"velocity":0.3937007874015748},{"duration":0.1744791666666643,"midi":77,"time":55.76953125,"velocity":0.3937007874015748},{"duration":0.1744791666666643,"midi":89,"time":55.76953125,"velocity":0.3937007874015748},{"duration":0.0598958333333357,"midi":84,"time":55.78125,"velocity":0.3937007874015748},{"duration":0.1744791666666643,"midi":65,"time":55.78125,"velocity":0.3937007874015748},{"duration":0.05859375,"midi":84,"time":55.8515625,"velocity":0.3937007874015748},{"duration":0.05859375,"midi":55,"time":55.875,"velocity":0.3937007874015748},{"duration":0.05859375,"midi":50,"time":55.91015625,"velocity":0.3937007874015748},{"duration":0.1744791666666643,"midi":77,"time":55.91015625,"velocity":0.3937007874015748},{"duration":0.0598958333333357,"midi":63,"time":55.920572916666664,"velocity":0.3937007874015748},{"duration":0.17578125,"midi":55,"time":55.942708333333336,"velocity":0.3937007874015748},{"duration":0.30078125,"midi":74,"time":55.942708333333336,"velocity":0.3937007874015748},{"duration":0.059895833333328596,"midi":84,"time":55.942708333333336,"velocity":0.3937007874015748},{"duration":0.30078125,"midi":81,"time":55.942708333333336,"velocity":0.3937007874015748},{"duration":0.0598958333333357,"midi":86,"time":55.955729166666664,"velocity":0.3937007874015748},{"duration":0.0598958333333357,"midi":70,"time":55.955729166666664,"velocity":0.3937007874015748},{"duration":0.17578125,"midi":89,"time":55.955729166666664,"velocity":0.3937007874015748},{"duration":0.17578125,"midi":65,"time":55.967447916666664,"velocity":0.3937007874015748},{"duration":0.05859375,"midi":62,"time":55.967447916666664,"velocity":0.3937007874015748},{"duration":0.17578125,"midi":50,"time":55.990885416666664,"velocity":0.3937007874015748},{"duration":0.05859375,"midi":61,"time":56.002604166666664,"velocity":0.3937007874015748},{"duration":0.17578125,"midi":62,"time":56.026041666666664,"velocity":0.3937007874015748},{"duration":0.17578125,"midi":65,"time":56.048177083333336,"velocity":0.3937007874015748},{"duration":0.1744791666666643,"midi":70,"time":56.118489583333336,"velocity":0.3937007874015748},{"duration":0.2994791666666714,"midi":65,"time":56.143229166666664,"velocity":0.3937007874015748},{"duration":0.05859375,"midi":55,"time":56.165364583333336,"velocity":0.3937007874015748},{"duration":0.17578125,"midi":62,"time":56.165364583333336,"velocity":0.3937007874015748},{"duration":0.17578125,"midi":87,"time":56.3046875,"velocity":0.3937007874015748},{"duration":0.0611979166666643,"midi":51,"time":56.3046875,"velocity":0.3937007874015748},{"duration":0.0598958333333357,"midi":60,"time":56.31640625,"velocity":0.3937007874015748},{"duration":0.0598958333333357,"midi":84,"time":56.31640625,"velocity":0.3937007874015748},{"duration":0.1744791666666643,"midi":89,"time":56.31640625,"velocity":0.3937007874015748},{"duration":0.1744791666666643,"midi":93,"time":56.31640625,"velocity":0.3937007874015748},{"duration":0.1731770833333357,"midi":50,"time":56.328125,"velocity":0.3937007874015748},{"duration":0.1731770833333357,"midi":74,"time":56.328125,"velocity":0.3937007874015748},{"duration":0.05859375,"midi":90,"time":56.341145833333336,"velocity":0.3937007874015748},{"duration":0.05859375,"midi":85,"time":56.341145833333336,"velocity":0.3937007874015748},{"duration":0.05859375,"midi":44,"time":56.341145833333336,"velocity":0.3937007874015748},{"duration":0.171875,"midi":65,"time":56.352864583333336,"velocity":0.3937007874015748},{"duration":0.05859375,"midi":61,"time":56.352864583333336,"velocity":0.3937007874015748},{"duration":0.1705729166666643,"midi":43,"time":56.376302083333336,"velocity":0.3937007874015748},{"duration":0.05859375,"midi":84,"time":56.376302083333336,"velocity":0.3937007874015748},{"duration":0.05859375,"midi":85,"time":56.3984375,"velocity":0.3937007874015748},{"duration":0.05859375,"midi":94,"time":56.421875,"velocity":0.3937007874015748},{"duration":0.05859375,"midi":90,"time":56.421875,"velocity":0.3937007874015748},{"duration":0.0572916666666643,"midi":59,"time":56.43359375,"velocity":0.3937007874015748},{"duration":0.1705729166666643,"midi":91,"time":56.45703125,"velocity":0.3937007874015748},{"duration":0.1705729166666643,"midi":86,"time":56.45703125,"velocity":0.3937007874015748},{"duration":0.0572916666666643,"midi":31,"time":56.45703125,"velocity":0.3937007874015748},{"duration":0.057291666666671404,"midi":95,"time":56.467447916666664,"velocity":0.3937007874015748},{"duration":0.296875,"midi":65,"time":56.467447916666664,"velocity":0.3937007874015748},{"duration":0.171875,"midi":79,"time":56.467447916666664,"velocity":0.3937007874015748},{"duration":0.0559895833333357,"midi":89,"time":56.479166666666664,"velocity":0.3937007874015748},{"duration":0.0572916666666643,"midi":88,"time":56.513020833333336,"velocity":0.3937007874015748},{"duration":0.0572916666666643,"midi":60,"time":56.513020833333336,"velocity":0.3937007874015748},{"duration":0.0572916666666643,"midi":41,"time":56.524739583333336,"velocity":0.3937007874015748},{"duration":0.0572916666666643,"midi":94,"time":56.524739583333336,"velocity":0.3937007874015748},{"duration":0.0572916666666643,"midi":38,"time":56.53515625,"velocity":0.3937007874015748},{"duration":0.1744791666666714,"midi":70,"time":56.545572916666664,"velocity":0.3937007874015748},{"duration":0.05859375,"midi":74,"time":56.545572916666664,"velocity":0.3937007874015748},{"duration":0.05859375,"midi":89,"time":56.580729166666664,"velocity":0.3937007874015748},{"duration":0.17578125,"midi":50,"time":56.591145833333336,"velocity":0.3937007874015748},{"duration":0.17578125,"midi":85,"time":56.591145833333336,"velocity":0.3937007874015748},{"duration":0.4231770833333286,"midi":43,"time":56.591145833333336,"velocity":0.3937007874015748},{"duration":0.059895833333328596,"midi":31,"time":56.614583333333336,"velocity":0.3937007874015748},{"duration":0.2981770833333357,"midi":74,"time":56.639322916666664,"velocity":0.3937007874015748},{"duration":0.05859375,"midi":31,"time":56.661458333333336,"velocity":0.3937007874015748},{"duration":0.1744791666666714,"midi":50,"time":56.674479166666664,"velocity":0.3937007874015748},{"duration":0.17578125,"midi":60,"time":56.684895833333336,"velocity":0.3937007874015748},{"duration":0.059895833333328596,"midi":65,"time":56.720052083333336,"velocity":0.3937007874015748},{"duration":0.0611979166666643,"midi":85,"time":56.73046875,"velocity":0.3937007874015748},{"duration":0.0598958333333357,"midi":31,"time":56.7421875,"velocity":0.3937007874015748},{"duration":0.5481770833333357,"midi":77,"time":56.7421875,"velocity":0.3937007874015748},{"duration":0.1744791666666643,"midi":50,"time":56.755208333333336,"velocity":0.3937007874015748},{"duration":0.05859375,"midi":70,"time":56.766927083333336,"velocity":0.3937007874015748},{"duration":0.1731770833333286,"midi":65,"time":56.802083333333336,"velocity":0.3937007874015748},{"duration":0.05859375,"midi":31,"time":56.802083333333336,"velocity":0.3937007874015748},{"duration":0.1731770833333357,"midi":50,"time":56.8359375,"velocity":0.3937007874015748},{"duration":0.05859375,"midi":31,"time":56.87109375,"velocity":0.3937007874015748},{"duration":0.05859375,"midi":93,"time":56.893229166666664,"velocity":0.3937007874015748},{"duration":0.05859375,"midi":62,"time":56.893229166666664,"velocity":0.3937007874015748},{"duration":0.05859375,"midi":84,"time":56.893229166666664,"velocity":0.3937007874015748},{"duration":0.05859375,"midi":64,"time":56.916666666666664,"velocity":0.3937007874015748},{"duration":0.05859375,"midi":60,"time":56.916666666666664,"velocity":0.3937007874015748},{"duration":0.05859375,"midi":70,"time":56.916666666666664,"velocity":0.3937007874015748},{"duration":0.1731770833333357,"midi":50,"time":56.916666666666664,"velocity":0.3937007874015748},{"duration":0.05859375,"midi":63,"time":56.938802083333336,"velocity":0.3937007874015748},{"duration":0.057291666666671404,"midi":60,"time":56.951822916666664,"velocity":0.3937007874015748},{"duration":0.05859375,"midi":31,"time":56.962239583333336,"velocity":0.3937007874015748},{"duration":0.2981770833333286,"midi":84,"time":56.962239583333336,"velocity":0.3937007874015748},{"duration":0.1731770833333286,"midi":50,"time":56.997395833333336,"velocity":0.3937007874015748},{"duration":0.30078125,"midi":65,"time":57.0078125,"velocity":0.3937007874015748},{"duration":0.05859375,"midi":31,"time":57.020833333333336,"velocity":0.3937007874015748},{"duration":0.1731770833333357,"midi":60,"time":57.078125,"velocity":0.3937007874015748},{"duration":0.1744791666666714,"midi":31,"time":57.088541666666664,"velocity":0.3937007874015748},{"duration":0.05859375,"midi":70,"time":57.111979166666664,"velocity":0.3937007874015748},{"duration":0.1770833333333357,"midi":84,"time":57.23828125,"velocity":0.3937007874015748},{"duration":0.0611979166666643,"midi":52,"time":57.274739583333336,"velocity":0.3937007874015748},{"duration":0.0611979166666643,"midi":68,"time":57.274739583333336,"velocity":0.3937007874015748},{"duration":0.0598958333333357,"midi":60,"time":57.287760416666664,"velocity":0.3937007874015748},{"duration":0.0598958333333357,"midi":88,"time":57.287760416666664,"velocity":0.3937007874015748},{"duration":0.0598958333333357,"midi":71,"time":57.287760416666664,"velocity":0.3937007874015748},{"duration":0.05859375,"midi":51,"time":57.299479166666664,"velocity":0.3937007874015748},{"duration":0.17578125,"midi":92,"time":57.299479166666664,"velocity":0.3937007874015748},{"duration":0.05859375,"midi":41,"time":57.299479166666664,"velocity":0.3937007874015748},{"duration":0.1744791666666714,"midi":86,"time":57.311197916666664,"velocity":0.3937007874015748},{"duration":0.05859375,"midi":37,"time":57.311197916666664,"velocity":0.3937007874015748},{"duration":0.2981770833333357,"midi":90,"time":57.311197916666664,"velocity":0.3937007874015748},{"duration":0.2981770833333357,"midi":95,"time":57.311197916666664,"velocity":0.3937007874015748},{"duration":0.2981770833333357,"midi":88,"time":57.322916666666664,"velocity":0.3937007874015748},{"duration":0.1744791666666714,"midi":64,"time":57.322916666666664,"velocity":0.3937007874015748},{"duration":0.1744791666666643,"midi":52,"time":57.3359375,"velocity":0.3937007874015748},{"duration":0.0572916666666643,"midi":60,"time":57.3359375,"velocity":0.3937007874015748},{"duration":0.05859375,"midi":45,"time":57.346354166666664,"velocity":0.3937007874015748},{"duration":0.05859375,"midi":31,"time":57.356770833333336,"velocity":0.3937007874015748},{"duration":0.6744791666666643,"midi":45,"time":57.380208333333336,"velocity":0.3937007874015748},{"duration":0.059895833333328596,"midi":33,"time":57.415364583333336,"velocity":0.3937007874015748},{"duration":0.059895833333328596,"midi":65,"time":57.450520833333336,"velocity":0.3937007874015748},{"duration":0.05859375,"midi":61,"time":57.462239583333336,"velocity":0.3937007874015748},{"duration":0.05859375,"midi":64,"time":57.473958333333336,"velocity":0.3937007874015748},{"duration":0.05859375,"midi":52,"time":57.485677083333336,"velocity":0.3937007874015748},{"duration":0.05859375,"midi":33,"time":57.485677083333336,"velocity":0.3937007874015748},{"duration":0.1731770833333286,"midi":92,"time":57.497395833333336,"velocity":0.3937007874015748},{"duration":0.05859375,"midi":77,"time":57.520833333333336,"velocity":0.3937007874015748},{"duration":0.05859375,"midi":64,"time":57.54296875,"velocity":0.3937007874015748},{"duration":0.05859375,"midi":33,"time":57.54296875,"velocity":0.3937007874015748},{"duration":0.05859375,"midi":52,"time":57.56640625,"velocity":0.3937007874015748},{"duration":0.05859375,"midi":33,"time":57.578125,"velocity":0.3937007874015748},{"duration":0.1627604166666643,"midi":65,"time":57.578125,"velocity":0.3937007874015748},{"duration":0.05859375,"midi":52,"time":57.6015625,"velocity":0.3937007874015748},{"duration":0.0598958333333357,"midi":90,"time":57.670572916666664,"velocity":0.3937007874015748},{"duration":0.1744791666666714,"midi":62,"time":57.670572916666664,"velocity":0.3937007874015748},{"duration":0.05859375,"midi":33,"time":57.682291666666664,"velocity":0.3937007874015748},{"duration":0.2994791666666714,"midi":57,"time":57.682291666666664,"velocity":0.3937007874015748},{"duration":0.2994791666666714,"midi":81,"time":57.682291666666664,"velocity":0.3937007874015748},{"duration":0.0690104166666714,"midi":65,"time":57.682291666666664,"velocity":0.3937007874015748},{"duration":0.2994791666666714,"midi":70,"time":57.717447916666664,"velocity":0.3937007874015748},{"duration":0.057291666666671404,"midi":33,"time":57.729166666666664,"velocity":0.3937007874015748},{"duration":0.1744791666666643,"midi":65,"time":57.739583333333336,"velocity":0.3937007874015748},{"duration":0.0598958333333357,"midi":33,"time":57.7734375,"velocity":0.3937007874015748},{"duration":0.0598958333333357,"midi":52,"time":57.80859375,"velocity":0.3937007874015748},{"duration":0.17578125,"midi":33,"time":57.8203125,"velocity":0.3937007874015748},{"duration":0.17578125,"midi":63,"time":57.85546875,"velocity":0.3937007874015748},{"duration":0.17578125,"midi":52,"time":57.87890625,"velocity":0.3937007874015748},{"duration":0.17578125,"midi":65,"time":57.890625,"velocity":0.3937007874015748},{"duration":0.1783854166666643,"midi":74,"time":57.94921875,"velocity":0.3937007874015748},{"duration":0.0598958333333357,"midi":61,"time":57.94921875,"velocity":0.3937007874015748},{"duration":0.1770833333333357,"midi":62,"time":57.984375,"velocity":0.3937007874015748},{"duration":0.0611979166666643,"midi":74,"time":58.06640625,"velocity":0.3937007874015748},{"duration":0.0611979166666643,"midi":64,"time":58.06640625,"velocity":0.3937007874015748},{"duration":0.0611979166666643,"midi":41,"time":58.078125,"velocity":0.3937007874015748},{"duration":0.0611979166666643,"midi":58,"time":58.078125,"velocity":0.3937007874015748},{"duration":0.0611979166666643,"midi":77,"time":58.078125,"velocity":0.3937007874015748},{"duration":0.4296875,"midi":69,"time":58.078125,"velocity":0.3937007874015748},{"duration":0.0598958333333357,"midi":37,"time":58.08984375,"velocity":0.3937007874015748},{"duration":0.05859375,"midi":60,"time":58.102864583333336,"velocity":0.3937007874015748},{"duration":0.05859375,"midi":63,"time":58.114583333333336,"velocity":0.3937007874015748},{"duration":0.8072916666666643,"midi":53,"time":58.126302083333336,"velocity":0.3937007874015748},{"duration":0.05859375,"midi":46,"time":58.149739583333336,"velocity":0.3937007874015748},{"duration":0.0598958333333357,"midi":57,"time":58.16015625,"velocity":0.3937007874015748},{"duration":0.6822916666666643,"midi":46,"time":58.1953125,"velocity":0.3937007874015748},{"duration":0.17578125,"midi":74,"time":58.20703125,"velocity":0.3937007874015748},{"duration":0.0598958333333357,"midi":57,"time":58.23046875,"velocity":0.3937007874015748},{"duration":0.1770833333333357,"midi":77,"time":58.265625,"velocity":0.3937007874015748},{"duration":0.1770833333333357,"midi":65,"time":58.27734375,"velocity":0.3937007874015748},{"duration":0.0598958333333357,"midi":34,"time":58.27734375,"velocity":0.3937007874015748},{"duration":0.1783854166666643,"midi":57,"time":58.30078125,"velocity":0.3937007874015748},{"duration":0.1783854166666643,"midi":34,"time":58.3125,"velocity":0.3937007874015748},{"duration":0.5546875,"midi":69,"time":58.4296875,"velocity":0.3937007874015748},{"duration":0.0611979166666643,"midi":62,"time":58.4296875,"velocity":0.3937007874015748},{"duration":0.1770833333333357,"midi":75,"time":58.44140625,"velocity":0.3937007874015748},{"duration":0.3020833333333286,"midi":34,"time":58.454427083333336,"velocity":0.3937007874015748},{"duration":0.059895833333328596,"midi":89,"time":58.454427083333336,"velocity":0.3937007874015748},{"duration":0.059895833333328596,"midi":63,"time":58.454427083333336,"velocity":0.3937007874015748},{"duration":0.17578125,"midi":82,"time":58.466145833333336,"velocity":0.3937007874015748},{"duration":0.05859375,"midi":84,"time":58.477864583333336,"velocity":0.3937007874015748},{"duration":0.3020833333333286,"midi":77,"time":58.477864583333336,"velocity":0.3937007874015748},{"duration":0.05859375,"midi":65,"time":58.490885416666664,"velocity":0.3937007874015748},{"duration":0.4283854166666643,"midi":65,"time":58.571614583333336,"velocity":0.3937007874015748},{"duration":0.17578125,"midi":74,"time":58.583333333333336,"velocity":0.3937007874015748},{"duration":0.059895833333328596,"midi":93,"time":58.653645833333336,"velocity":0.3937007874015748},{"duration":0.059895833333328596,"midi":82,"time":58.677083333333336,"velocity":0.3937007874015748},{"duration":0.1770833333333286,"midi":34,"time":58.688802083333336,"velocity":0.3937007874015748},{"duration":0.1770833333333286,"midi":62,"time":58.770833333333336,"velocity":0.3937007874015748},{"duration":0.17578125,"midi":34,"time":58.805989583333336,"velocity":0.3937007874015748},{"duration":0.0611979166666643,"midi":76,"time":58.852864583333336,"velocity":0.3937007874015748},{"duration":0.1744791666666643,"midi":89,"time":58.864583333333336,"velocity":0.3937007874015748},{"duration":0.0598958333333357,"midi":60,"time":58.877604166666664,"velocity":0.3937007874015748},{"duration":0.0598958333333357,"midi":51,"time":58.877604166666664,"velocity":0.3937007874015748},{"duration":0.1744791666666714,"midi":84,"time":58.889322916666664,"velocity":0.3937007874015748},{"duration":0.05859375,"midi":61,"time":58.901041666666664,"velocity":0.3937007874015748},{"duration":0.05859375,"midi":35,"time":58.901041666666664,"velocity":0.3937007874015748},{"duration":0.0572916666666643,"midi":70,"time":58.9140625,"velocity":0.3937007874015748},{"duration":0.1744791666666714,"midi":34,"time":58.924479166666664,"velocity":0.3937007874015748},{"duration":0.057291666666671404,"midi":91,"time":58.924479166666664,"velocity":0.3937007874015748},{"duration":0.1744791666666643,"midi":69,"time":58.946614583333336,"velocity":0.3937007874015748},{"duration":0.1744791666666643,"midi":87,"time":58.970052083333336,"velocity":0.3937007874015748},{"duration":0.30078125,"midi":65,"time":58.98046875,"velocity":0.3937007874015748},{"duration":0.0598958333333357,"midi":74,"time":59.015625,"velocity":0.3937007874015748},{"duration":0.1744791666666643,"midi":86,"time":59.0390625,"velocity":0.3937007874015748},{"duration":0.1744791666666643,"midi":88,"time":59.05078125,"velocity":0.3937007874015748},{"duration":0.1744791666666643,"midi":90,"time":59.05078125,"velocity":0.3937007874015748},{"duration":0.0598958333333357,"midi":50,"time":59.05078125,"velocity":0.3937007874015748},{"duration":0.1731770833333286,"midi":95,"time":59.075520833333336,"velocity":0.3937007874015748},{"duration":0.1744791666666643,"midi":76,"time":59.0859375,"velocity":0.3937007874015748},{"duration":0.05859375,"midi":84,"time":59.0859375,"velocity":0.3937007874015748},{"duration":0.1744791666666643,"midi":74,"time":59.09765625,"velocity":0.3937007874015748},{"duration":0.05859375,"midi":50,"time":59.14453125,"velocity":0.3937007874015748},{"duration":0.05859375,"midi":64,"time":59.1796875,"velocity":0.3937007874015748},{"duration":0.3020833333333357,"midi":69,"time":59.1796875,"velocity":0.3937007874015748},{"duration":0.1770833333333357,"midi":65,"time":59.201822916666664,"velocity":0.3937007874015748},{"duration":0.17578125,"midi":95,"time":59.296875,"velocity":0.3937007874015748},{"duration":0.17578125,"midi":88,"time":59.30859375,"velocity":0.3937007874015748},{"duration":0.17578125,"midi":86,"time":59.3203125,"velocity":0.3937007874015748},{"duration":0.17578125,"midi":90,"time":59.3203125,"velocity":0.3937007874015748},{"duration":0.05859375,"midi":57,"time":59.33203125,"velocity":0.3937007874015748},{"duration":0.05859375,"midi":65,"time":59.35546875,"velocity":0.3937007874015748},{"duration":0.17578125,"midi":64,"time":59.37890625,"velocity":0.3937007874015748},{"duration":0.17578125,"midi":60,"time":59.459635416666664,"velocity":0.3937007874015748},{"duration":0.061197916666671404,"midi":45,"time":59.459635416666664,"velocity":0.3937007874015748},{"duration":0.0598958333333357,"midi":63,"time":59.483072916666664,"velocity":0.3937007874015748},{"duration":0.1744791666666643,"midi":53,"time":59.49609375,"velocity":0.3937007874015748},{"duration":0.05859375,"midi":70,"time":59.5078125,"velocity":0.3937007874015748},{"duration":0.1744791666666643,"midi":46,"time":59.51953125,"velocity":0.3937007874015748},{"duration":0.1744791666666643,"midi":62,"time":59.54296875,"velocity":0.3937007874015748},{"duration":0.1744791666666643,"midi":34,"time":59.54296875,"velocity":0.3937007874015748},{"duration":0.0598958333333357,"midi":35,"time":59.647135416666664,"velocity":0.3937007874015748},{"duration":0.05859375,"midi":45,"time":59.682291666666664,"velocity":0.3937007874015748},{"duration":0.80078125,"midi":53,"time":59.682291666666664,"velocity":0.3937007874015748},{"duration":0.1744791666666714,"midi":58,"time":59.682291666666664,"velocity":0.3937007874015748},{"duration":0.05859375,"midi":88,"time":59.682291666666664,"velocity":0.3937007874015748},{"duration":0.1744791666666714,"midi":62,"time":59.682291666666664,"velocity":0.3937007874015748},{"duration":0.7994791666666714,"midi":46,"time":59.705729166666664,"velocity":0.3937007874015748},{"duration":0.05859375,"midi":93,"time":59.716145833333336,"velocity":0.3937007874015748},{"duration":0.05859375,"midi":31,"time":59.739583333333336,"velocity":0.3937007874015748},{"duration":0.05859375,"midi":63,"time":59.763020833333336,"velocity":0.3937007874015748},{"duration":0.0598958333333357,"midi":92,"time":59.80859375,"velocity":0.3937007874015748},{"duration":0.1770833333333357,"midi":64,"time":59.80859375,"velocity":0.3937007874015748},{"duration":0.1770833333333357,"midi":34,"time":59.80859375,"velocity":0.3937007874015748},{"duration":0.0598958333333357,"midi":60,"time":59.87890625,"velocity":0.3937007874015748},{"duration":0.17578125,"midi":34,"time":59.890625,"velocity":0.3937007874015748},{"duration":0.0598958333333357,"midi":63,"time":59.9375,"velocity":0.3937007874015748},{"duration":0.0598958333333357,"midi":64,"time":59.9609375,"velocity":0.3937007874015748},{"duration":0.1744791666666643,"midi":34,"time":59.97265625,"velocity":0.3937007874015748},{"duration":0.05859375,"midi":60,"time":60.03125,"velocity":0.3937007874015748},{"duration":0.05859375,"midi":33,"time":60.06640625,"velocity":0.3937007874015748},{"duration":0.1731770833333357,"midi":74,"time":60.06640625,"velocity":0.3937007874015748},{"duration":0.05859375,"midi":34,"time":60.088541666666664,"velocity":0.3937007874015748},{"duration":0.05859375,"midi":63,"time":60.088541666666664,"velocity":0.3937007874015748},{"duration":0.05859375,"midi":35,"time":60.111979166666664,"velocity":0.3937007874015748},{"duration":0.4244791666666643,"midi":34,"time":60.134114583333336,"velocity":0.3937007874015748},{"duration":0.05859375,"midi":64,"time":60.147135416666664,"velocity":0.3937007874015748},{"duration":0.05859375,"midi":63,"time":60.169270833333336,"velocity":0.3937007874015748},{"duration":0.05859375,"midi":64,"time":60.227864583333336,"velocity":0.3937007874015748},{"duration":0.05859375,"midi":61,"time":60.23828125,"velocity":0.3937007874015748},{"duration":0.0572916666666643,"midi":75,"time":60.25,"velocity":0.3937007874015748},{"duration":0.0572916666666643,"midi":84,"time":60.2734375,"velocity":0.3937007874015748},{"duration":0.0572916666666643,"midi":75,"time":60.28515625,"velocity":0.3937007874015748},{"duration":0.0572916666666643,"midi":62,"time":60.28515625,"velocity":0.3937007874015748},{"duration":0.05859375,"midi":94,"time":60.296875,"velocity":0.3937007874015748},{"duration":0.0598958333333357,"midi":93,"time":60.307291666666664,"velocity":0.3937007874015748},{"duration":0.0598958333333357,"midi":63,"time":60.307291666666664,"velocity":0.3937007874015748},{"duration":0.0611979166666643,"midi":88,"time":60.317708333333336,"velocity":0.3937007874015748},{"duration":0.0611979166666643,"midi":81,"time":60.329427083333336,"velocity":0.3937007874015748},{"duration":0.1783854166666643,"midi":62,"time":60.329427083333336,"velocity":0.3937007874015748},{"duration":0.0598958333333357,"midi":60,"time":60.447916666666664,"velocity":0.3937007874015748},{"duration":0.0598958333333357,"midi":82,"time":60.447916666666664,"velocity":0.3937007874015748},{"duration":0.1744791666666714,"midi":74,"time":60.447916666666664,"velocity":0.3937007874015748},{"duration":0.42578125,"midi":77,"time":60.4609375,"velocity":0.3937007874015748},{"duration":0.05859375,"midi":50,"time":60.4609375,"velocity":0.3937007874015748},{"duration":0.2994791666666643,"midi":70,"time":60.47265625,"velocity":0.3937007874015748},{"duration":0.0572916666666643,"midi":68,"time":60.47265625,"velocity":0.3937007874015748},{"duration":0.0572916666666643,"midi":89,"time":60.484375,"velocity":0.3937007874015748},{"duration":0.0572916666666643,"midi":60,"time":60.484375,"velocity":0.3937007874015748},{"duration":0.1744791666666643,"midi":61,"time":60.5078125,"velocity":0.3937007874015748},{"duration":0.1744791666666643,"midi":34,"time":60.5078125,"velocity":0.3937007874015748},{"duration":0.17578125,"midi":46,"time":60.518229166666664,"velocity":0.3937007874015748},{"duration":0.1770833333333357,"midi":53,"time":60.529947916666664,"velocity":0.3937007874015748},{"duration":0.17578125,"midi":74,"time":60.598958333333336,"velocity":0.3937007874015748},{"duration":0.42578125,"midi":65,"time":60.657552083333336,"velocity":0.3937007874015748},{"duration":0.1653645833333286,"midi":53,"time":60.669270833333336,"velocity":0.3937007874015748},{"duration":0.0598958333333357,"midi":46,"time":60.682291666666664,"velocity":0.3937007874015748},{"duration":0.0598958333333357,"midi":34,"time":60.682291666666664,"velocity":0.3937007874015748},{"duration":0.17578125,"midi":62,"time":60.694010416666664,"velocity":0.3937007874015748},{"duration":0.05859375,"midi":69,"time":60.729166666666664,"velocity":0.3937007874015748},{"duration":0.1744791666666643,"midi":46,"time":60.751302083333336,"velocity":0.3937007874015748},{"duration":0.0703125,"midi":53,"time":60.774739583333336,"velocity":0.3937007874015748},{"duration":0.1640625,"midi":34,"time":60.774739583333336,"velocity":0.3937007874015748},{"duration":0.42578125,"midi":70,"time":60.786458333333336,"velocity":0.3937007874015748},{"duration":0.059895833333328596,"midi":54,"time":60.821614583333336,"velocity":0.3937007874015748},{"duration":0.05859375,"midi":61,"time":60.833333333333336,"velocity":0.3937007874015748},{"duration":0.1731770833333286,"midi":57,"time":60.856770833333336,"velocity":0.3937007874015748},{"duration":0.4270833333333286,"midi":74,"time":60.868489583333336,"velocity":0.3937007874015748},{"duration":0.2994791666666643,"midi":46,"time":60.868489583333336,"velocity":0.3937007874015748},{"duration":0.0677083333333357,"midi":34,"time":60.881510416666664,"velocity":0.3937007874015748},{"duration":0.1731770833333286,"midi":93,"time":60.891927083333336,"velocity":0.3937007874015748},{"duration":0.05859375,"midi":62,"time":60.90234375,"velocity":0.3937007874015748},{"duration":0.17578125,"midi":34,"time":60.947916666666664,"velocity":0.3937007874015748},{"duration":0.05859375,"midi":62,"time":60.983072916666664,"velocity":0.3937007874015748},{"duration":0.1770833333333357,"midi":81,"time":61.029947916666664,"velocity":0.3937007874015748},{"duration":0.1770833333333357,"midi":62,"time":61.041666666666664,"velocity":0.3937007874015748},{"duration":0.1770833333333357,"midi":90,"time":61.041666666666664,"velocity":0.3937007874015748},{"duration":0.1783854166666714,"midi":34,"time":61.076822916666664,"velocity":0.3937007874015748},{"duration":0.0598958333333357,"midi":57,"time":61.123697916666664,"velocity":0.3937007874015748},{"duration":0.061197916666671404,"midi":91,"time":61.217447916666664,"velocity":0.3937007874015748},{"duration":0.1744791666666714,"midi":82,"time":61.217447916666664,"velocity":0.3937007874015748},{"duration":0.061197916666671404,"midi":75,"time":61.217447916666664,"velocity":0.3937007874015748},{"duration":0.0598958333333357,"midi":53,"time":61.23046875,"velocity":0.3937007874015748},{"duration":0.0598958333333357,"midi":41,"time":61.2421875,"velocity":0.3937007874015748},{"duration":0.0598958333333357,"midi":64,"time":61.2421875,"velocity":0.3937007874015748},{"duration":0.0598958333333357,"midi":90,"time":61.2421875,"velocity":0.3937007874015748},{"duration":0.05859375,"midi":38,"time":61.25390625,"velocity":0.3937007874015748},{"duration":0.0572916666666643,"midi":74,"time":61.266927083333336,"velocity":0.3937007874015748},{"duration":0.0572916666666643,"midi":37,"time":61.266927083333336,"velocity":0.3937007874015748},{"duration":0.7903645833333286,"midi":45,"time":61.278645833333336,"velocity":0.3937007874015748},{"duration":0.0572916666666643,"midi":88,"time":61.278645833333336,"velocity":0.3937007874015748},{"duration":0.0572916666666643,"midi":63,"time":61.278645833333336,"velocity":0.3937007874015748},{"duration":0.0572916666666643,"midi":60,"time":61.278645833333336,"velocity":0.3937007874015748},{"duration":0.2760416666666643,"midi":52,"time":61.2890625,"velocity":0.3937007874015748},{"duration":0.05859375,"midi":61,"time":61.3125,"velocity":0.3937007874015748},{"duration":0.05859375,"midi":75,"time":61.3125,"velocity":0.3937007874015748},{"duration":0.1731770833333357,"midi":67,"time":61.322916666666664,"velocity":0.3937007874015748},{"duration":0.05859375,"midi":31,"time":61.322916666666664,"velocity":0.3937007874015748},{"duration":0.1731770833333357,"midi":83,"time":61.346354166666664,"velocity":0.3937007874015748},{"duration":0.05859375,"midi":88,"time":61.346354166666664,"velocity":0.3937007874015748},{"duration":0.421875,"midi":92,"time":61.358072916666664,"velocity":0.3937007874015748},{"duration":0.421875,"midi":76,"time":61.358072916666664,"velocity":0.3937007874015748},{"duration":0.1731770833333357,"midi":95,"time":61.381510416666664,"velocity":0.3937007874015748},{"duration":0.1731770833333357,"midi":86,"time":61.381510416666664,"velocity":0.3937007874015748},{"duration":0.05859375,"midi":88,"time":61.381510416666664,"velocity":0.3937007874015748},{"duration":0.7942708333333286,"midi":72,"time":61.415364583333336,"velocity":0.3937007874015748},{"duration":0.2981770833333286,"midi":64,"time":61.427083333333336,"velocity":0.3937007874015748},{"duration":0.05859375,"midi":61,"time":61.427083333333336,"velocity":0.3937007874015748},{"duration":0.0572916666666643,"midi":90,"time":61.438802083333336,"velocity":0.3937007874015748},{"duration":0.5455729166666643,"midi":83,"time":61.44921875,"velocity":0.3937007874015748},{"duration":0.2981770833333357,"midi":67,"time":61.49609375,"velocity":0.3937007874015748},{"duration":0.05859375,"midi":33,"time":61.49609375,"velocity":0.3937007874015748},{"duration":0.078125,"midi":52,"time":61.506510416666664,"velocity":0.3937007874015748},{"duration":0.0598958333333357,"midi":33,"time":61.565104166666664,"velocity":0.3937007874015748},{"duration":0.059895833333328596,"midi":52,"time":61.598958333333336,"velocity":0.3937007874015748},{"duration":0.1744791666666714,"midi":33,"time":61.611979166666664,"velocity":0.3937007874015748},{"duration":0.05859375,"midi":90,"time":61.658854166666664,"velocity":0.3937007874015748},{"duration":0.05859375,"midi":62,"time":61.727864583333336,"velocity":0.3937007874015748},{"duration":0.171875,"midi":76,"time":61.739583333333336,"velocity":0.3937007874015748},{"duration":0.0572916666666643,"midi":61,"time":61.763020833333336,"velocity":0.3937007874015748},{"duration":0.1731770833333357,"midi":33,"time":61.819010416666664,"velocity":0.3937007874015748},{"duration":0.057291666666671404,"midi":62,"time":61.819010416666664,"velocity":0.3937007874015748},{"duration":0.057291666666671404,"midi":75,"time":61.819010416666664,"velocity":0.3937007874015748},{"duration":0.1744791666666643,"midi":81,"time":61.829427083333336,"velocity":0.3937007874015748},{"duration":0.05859375,"midi":64,"time":61.876302083333336,"velocity":0.3937007874015748},{"duration":0.05859375,"midi":90,"time":61.876302083333336,"velocity":0.3937007874015748},{"duration":0.05859375,"midi":76,"time":61.93359375,"velocity":0.3937007874015748},{"duration":0.0598958333333357,"midi":63,"time":61.944010416666664,"velocity":0.3937007874015748},{"duration":0.05859375,"midi":82,"time":61.95703125,"velocity":0.3937007874015748},{"duration":0.1731770833333357,"midi":83,"time":61.979166666666664,"velocity":0.3937007874015748},{"duration":0.05859375,"midi":76,"time":61.9921875,"velocity":0.3937007874015748},{"duration":0.1731770833333357,"midi":92,"time":61.9921875,"velocity":0.3937007874015748},{"duration":0.0572916666666643,"midi":67,"time":62.00390625,"velocity":0.3937007874015748},{"duration":0.0572916666666643,"midi":74,"time":62.00390625,"velocity":0.3937007874015748},{"duration":0.1744791666666714,"midi":50,"time":62.014322916666664,"velocity":0.3937007874015748},{"duration":0.05859375,"midi":90,"time":62.026041666666664,"velocity":0.3937007874015748},{"duration":0.05859375,"midi":77,"time":62.026041666666664,"velocity":0.3937007874015748},{"duration":0.05859375,"midi":64,"time":62.026041666666664,"velocity":0.3937007874015748},{"duration":0.05859375,"midi":60,"time":62.026041666666664,"velocity":0.3937007874015748},{"duration":0.05859375,"midi":68,"time":62.037760416666664,"velocity":0.3937007874015748},{"duration":0.057291666666671404,"midi":61,"time":62.049479166666664,"velocity":0.3937007874015748},{"duration":0.1744791666666714,"midi":33,"time":62.061197916666664,"velocity":0.3937007874015748},{"duration":0.1744791666666643,"midi":76,"time":62.071614583333336,"velocity":0.3937007874015748},{"duration":0.05859375,"midi":70,"time":62.071614583333336,"velocity":0.3937007874015748},{"duration":0.1731770833333286,"midi":90,"time":62.083333333333336,"velocity":0.3937007874015748},{"duration":0.1744791666666643,"midi":45,"time":62.106770833333336,"velocity":0.3937007874015748},{"duration":0.1744791666666643,"midi":64,"time":62.106770833333336,"velocity":0.3937007874015748},{"duration":0.2981770833333286,"midi":67,"time":62.106770833333336,"velocity":0.3937007874015748},{"duration":0.0598958333333357,"midi":82,"time":62.1640625,"velocity":0.3937007874015748},{"duration":0.0598958333333357,"midi":75,"time":62.1640625,"velocity":0.3937007874015748},{"duration":0.05859375,"midi":77,"time":62.177083333333336,"velocity":0.3937007874015748},{"duration":0.296875,"midi":83,"time":62.188802083333336,"velocity":0.3937007874015748},{"duration":0.0572916666666643,"midi":63,"time":62.188802083333336,"velocity":0.3937007874015748},{"duration":0.5455729166666643,"midi":72,"time":62.188802083333336,"velocity":0.3937007874015748},{"duration":0.1731770833333357,"midi":33,"time":62.2109375,"velocity":0.3937007874015748},{"duration":0.0572916666666643,"midi":74,"time":62.223958333333336,"velocity":0.3937007874015748},{"duration":0.1731770833333357,"midi":45,"time":62.234375,"velocity":0.3937007874015748},{"duration":0.0572916666666643,"midi":62,"time":62.234375,"velocity":0.3937007874015748},{"duration":0.05859375,"midi":60,"time":62.268229166666664,"velocity":0.3937007874015748},{"duration":0.1744791666666714,"midi":76,"time":62.291666666666664,"velocity":0.3937007874015748},{"duration":0.059895833333328596,"midi":51,"time":62.302083333333336,"velocity":0.3937007874015748},{"duration":0.05859375,"midi":33,"time":62.360677083333336,"velocity":0.3937007874015748},{"duration":0.1744791666666643,"midi":60,"time":62.419270833333336,"velocity":0.3937007874015748},{"duration":0.05859375,"midi":79,"time":62.44140625,"velocity":0.3937007874015748},{"duration":0.0598958333333357,"midi":61,"time":62.545572916666664,"velocity":0.3937007874015748},{"duration":0.0598958333333357,"midi":76,"time":62.569010416666664,"velocity":0.3937007874015748},{"duration":0.30078125,"midi":81,"time":62.580729166666664,"velocity":0.3937007874015748},{"duration":0.05859375,"midi":62,"time":62.592447916666664,"velocity":0.3937007874015748},{"duration":0.05859375,"midi":41,"time":62.615885416666664,"velocity":0.3937007874015748},{"duration":0.2994791666666714,"midi":67,"time":62.615885416666664,"velocity":0.3937007874015748},{"duration":0.1731770833333357,"midi":70,"time":62.627604166666664,"velocity":0.3937007874015748},{"duration":0.1744791666666714,"midi":52,"time":62.639322916666664,"velocity":0.3937007874015748},{"duration":0.05859375,"midi":62,"time":62.639322916666664,"velocity":0.3937007874015748},{"duration":0.1744791666666714,"midi":45,"time":62.651041666666664,"velocity":0.3937007874015748},{"duration":0.05859375,"midi":63,"time":62.661458333333336,"velocity":0.3937007874015748},{"duration":0.05859375,"midi":62,"time":62.684895833333336,"velocity":0.3937007874015748},{"duration":0.17578125,"midi":62,"time":62.720052083333336,"velocity":0.3937007874015748},{"duration":0.0598958333333357,"midi":33,"time":62.73046875,"velocity":0.3937007874015748},{"duration":0.0611979166666643,"midi":61,"time":62.80078125,"velocity":0.3937007874015748},{"duration":0.0611979166666643,"midi":80,"time":62.80078125,"velocity":0.3937007874015748},{"duration":0.0598958333333357,"midi":53,"time":62.82421875,"velocity":0.3937007874015748},{"duration":0.05859375,"midi":45,"time":62.837239583333336,"velocity":0.3937007874015748},{"duration":0.1731770833333286,"midi":76,"time":62.848958333333336,"velocity":0.3937007874015748},{"duration":0.42578125,"midi":52,"time":62.848958333333336,"velocity":0.3937007874015748},{"duration":0.1731770833333286,"midi":95,"time":62.848958333333336,"velocity":0.3937007874015748},{"duration":0.1731770833333286,"midi":60,"time":62.872395833333336,"velocity":0.3937007874015748},{"duration":0.5533854166666643,"midi":45,"time":62.872395833333336,"velocity":0.3937007874015748},{"duration":0.05859375,"midi":33,"time":62.89453125,"velocity":0.3937007874015748},{"duration":0.05859375,"midi":32,"time":62.91796875,"velocity":0.3937007874015748},{"duration":0.05859375,"midi":33,"time":62.940104166666664,"velocity":0.3937007874015748},{"duration":0.5533854166666714,"midi":72,"time":62.986979166666664,"velocity":0.3937007874015748},{"duration":0.059895833333328596,"midi":64,"time":63.009114583333336,"velocity":0.3937007874015748},{"duration":0.0598958333333357,"midi":67,"time":63.022135416666664,"velocity":0.3937007874015748},{"duration":0.17578125,"midi":60,"time":63.022135416666664,"velocity":0.3937007874015748},{"duration":0.0598958333333357,"midi":63,"time":63.057291666666664,"velocity":0.3937007874015748},{"duration":0.1770833333333357,"midi":33,"time":63.057291666666664,"velocity":0.3937007874015748},{"duration":0.4270833333333357,"midi":79,"time":63.104166666666664,"velocity":0.3937007874015748},{"duration":0.1770833333333357,"midi":67,"time":63.139322916666664,"velocity":0.3937007874015748},{"duration":0.0611979166666643,"midi":33,"time":63.196614583333336,"velocity":0.3937007874015748},{"duration":0.0611979166666643,"midi":64,"time":63.196614583333336,"velocity":0.3937007874015748},{"duration":0.1770833333333286,"midi":52,"time":63.208333333333336,"velocity":0.3937007874015748},{"duration":0.1770833333333357,"midi":60,"time":63.221354166666664,"velocity":0.3937007874015748},{"duration":0.1770833333333357,"midi":63,"time":63.233072916666664,"velocity":0.3937007874015748},{"duration":0.17578125,"midi":67,"time":63.303385416666664,"velocity":0.3937007874015748},{"duration":0.061197916666671404,"midi":33,"time":63.373697916666664,"velocity":0.3937007874015748},{"duration":0.0598958333333357,"midi":68,"time":63.385416666666664,"velocity":0.3937007874015748},{"duration":0.0598958333333357,"midi":63,"time":63.385416666666664,"velocity":0.3937007874015748},{"duration":0.0598958333333357,"midi":50,"time":63.385416666666664,"velocity":0.3937007874015748},{"duration":0.0598958333333357,"midi":58,"time":63.385416666666664,"velocity":0.3937007874015748},{"duration":0.0572916666666643,"midi":60,"time":63.421875,"velocity":0.3937007874015748},{"duration":0.0572916666666643,"midi":67,"time":63.421875,"velocity":0.3937007874015748},{"duration":0.1497395833333357,"midi":33,"time":63.43359375,"velocity":0.3937007874015748},{"duration":0.057291666666671404,"midi":76,"time":63.444010416666664,"velocity":0.3937007874015748},{"duration":0.1731770833333357,"midi":45,"time":63.455729166666664,"velocity":0.3937007874015748},{"duration":0.1731770833333286,"midi":60,"time":63.489583333333336,"velocity":0.3937007874015748},{"duration":0.05859375,"midi":52,"time":63.501302083333336,"velocity":0.3937007874015748},{"duration":0.171875,"midi":71,"time":63.501302083333336,"velocity":0.3937007874015748},{"duration":0.05859375,"midi":78,"time":63.501302083333336,"velocity":0.3937007874015748},{"duration":0.0807291666666643,"midi":33,"time":63.524739583333336,"velocity":0.3937007874015748},{"duration":0.05859375,"midi":79,"time":63.559895833333336,"velocity":0.3937007874015748},{"duration":0.171875,"midi":84,"time":63.559895833333336,"velocity":0.3937007874015748},{"duration":0.05859375,"midi":50,"time":63.5703125,"velocity":0.3937007874015748},{"duration":0.171875,"midi":72,"time":63.5703125,"velocity":0.3937007874015748},{"duration":0.0572916666666643,"midi":77,"time":63.58203125,"velocity":0.3937007874015748},{"duration":0.0572916666666643,"midi":64,"time":63.58203125,"velocity":0.3937007874015748},{"duration":0.171875,"midi":88,"time":63.592447916666664,"velocity":0.3937007874015748},{"duration":0.05859375,"midi":51,"time":63.592447916666664,"velocity":0.3937007874015748},{"duration":0.05859375,"midi":33,"time":63.592447916666664,"velocity":0.3937007874015748},{"duration":0.0572916666666643,"midi":60,"time":63.60546875,"velocity":0.3937007874015748},{"duration":0.0572916666666643,"midi":50,"time":63.60546875,"velocity":0.3937007874015748},{"duration":0.0572916666666643,"midi":65,"time":63.60546875,"velocity":0.3937007874015748},{"duration":0.1705729166666643,"midi":91,"time":63.6171875,"velocity":0.3937007874015748},{"duration":0.171875,"midi":33,"time":63.627604166666664,"velocity":0.3937007874015748},{"duration":0.6705729166666643,"midi":76,"time":63.627604166666664,"velocity":0.3937007874015748},{"duration":0.171875,"midi":79,"time":63.627604166666664,"velocity":0.3937007874015748},{"duration":0.05859375,"midi":68,"time":63.639322916666664,"velocity":0.3937007874015748},{"duration":0.05859375,"midi":60,"time":63.639322916666664,"velocity":0.3937007874015748},{"duration":0.05859375,"midi":87,"time":63.661458333333336,"velocity":0.3937007874015748},{"duration":0.171875,"midi":45,"time":63.661458333333336,"velocity":0.3937007874015748},{"duration":0.05859375,"midi":71,"time":63.673177083333336,"velocity":0.3937007874015748},{"duration":0.0572916666666643,"midi":59,"time":63.684895833333336,"velocity":0.3937007874015748},{"duration":0.171875,"midi":67,"time":63.696614583333336,"velocity":0.3937007874015748},{"duration":0.0572916666666643,"midi":52,"time":63.70703125,"velocity":0.3937007874015748},{"duration":0.0572916666666643,"midi":60,"time":63.70703125,"velocity":0.3937007874015748},{"duration":0.7981770833333286,"midi":72,"time":63.73046875,"velocity":0.3937007874015748},{"duration":0.0598958333333357,"midi":65,"time":63.752604166666664,"velocity":0.3937007874015748},{"duration":0.05859375,"midi":69,"time":63.764322916666664,"velocity":0.3937007874015748},{"duration":0.05859375,"midi":48,"time":63.764322916666664,"velocity":0.3937007874015748},{"duration":0.05859375,"midi":66,"time":63.799479166666664,"velocity":0.3937007874015748},{"duration":0.05859375,"midi":46,"time":63.821614583333336,"velocity":0.3937007874015748},{"duration":0.05859375,"midi":45,"time":63.845052083333336,"velocity":0.3937007874015748},{"duration":0.1744791666666643,"midi":79,"time":63.856770833333336,"velocity":0.3937007874015748},{"duration":0.05859375,"midi":44,"time":63.868489583333336,"velocity":0.3937007874015748},{"duration":0.05859375,"midi":45,"time":63.890625,"velocity":0.3937007874015748},{"duration":0.0598958333333357,"midi":48,"time":63.936197916666664,"velocity":0.3937007874015748},{"duration":0.059895833333328596,"midi":60,"time":63.94921875,"velocity":0.3937007874015748},{"duration":0.059895833333328596,"midi":86,"time":63.94921875,"velocity":0.3937007874015748},{"duration":0.0598958333333357,"midi":95,"time":63.971354166666664,"velocity":0.3937007874015748},{"duration":0.059895833333328596,"midi":63,"time":63.984375,"velocity":0.3937007874015748},{"duration":0.17578125,"midi":67,"time":63.984375,"velocity":0.3937007874015748},{"duration":0.059895833333328596,"midi":46,"time":63.984375,"velocity":0.3937007874015748},{"duration":0.17578125,"midi":57,"time":63.99609375,"velocity":0.3937007874015748},{"duration":0.17578125,"midi":42,"time":64.01953125,"velocity":0.3937007874015748},{"duration":0.05859375,"midi":95,"time":64.0546875,"velocity":0.3937007874015748},{"duration":0.061197916666671404,"midi":61,"time":64.12239583333333,"velocity":0.3937007874015748},{"duration":0.059895833333328596,"midi":41,"time":64.13541666666667,"velocity":0.3937007874015748},{"duration":0.05859375,"midi":60,"time":64.14713541666667,"velocity":0.3937007874015748},{"duration":0.05989583333334281,"midi":61,"time":64.20442708333333,"velocity":0.3937007874015748},{"duration":0.05989583333334281,"midi":43,"time":64.22786458333333,"velocity":0.3937007874015748},{"duration":0.05859375,"midi":60,"time":64.23958333333333,"velocity":0.3937007874015748},{"duration":0.05859375,"midi":42,"time":64.25260416666667,"velocity":0.3937007874015748},{"duration":0.05859375,"midi":67,"time":64.28776041666667,"velocity":0.3937007874015748},{"duration":0.05989583333334281,"midi":60,"time":64.34505208333333,"velocity":0.3937007874015748},{"duration":0.05989583333334281,"midi":47,"time":64.34505208333333,"velocity":0.3937007874015748},{"duration":0.05989583333334281,"midi":64,"time":64.34505208333333,"velocity":0.3937007874015748},{"duration":0.061197916666671404,"midi":70,"time":64.35546875,"velocity":0.3937007874015748},{"duration":0.07421875,"midi":88,"time":64.35546875,"velocity":0.3937007874015748},{"duration":0.061197916666671404,"midi":93,"time":64.36848958333333,"velocity":0.3937007874015748},{"duration":0.061197916666671404,"midi":86,"time":64.36848958333333,"velocity":0.3937007874015748},{"duration":0.061197916666671404,"midi":41,"time":64.36848958333333,"velocity":0.3937007874015748},{"duration":0.1627604166666714,"midi":88,"time":64.36848958333333,"velocity":0.3937007874015748},{"duration":0.061197916666671404,"midi":77,"time":64.36848958333333,"velocity":0.3937007874015748},{"duration":0.05989583333334281,"midi":37,"time":64.38020833333333,"velocity":0.3937007874015748},{"duration":0.1744791666666714,"midi":92,"time":64.38020833333333,"velocity":0.3937007874015748},{"duration":0.05989583333334281,"midi":74,"time":64.38020833333333,"velocity":0.3937007874015748},{"duration":0.05859375,"midi":79,"time":64.39192708333333,"velocity":0.3937007874015748},{"duration":0.05859375,"midi":36,"time":64.39192708333333,"velocity":0.3937007874015748},{"duration":0.1744791666666714,"midi":64,"time":64.39192708333333,"velocity":0.3937007874015748},{"duration":0.05859375,"midi":57,"time":64.40494791666667,"velocity":0.3937007874015748},{"duration":0.05859375,"midi":50,"time":64.43880208333333,"velocity":0.3937007874015748},{"duration":0.05859375,"midi":77,"time":64.43880208333333,"velocity":0.3937007874015748},{"duration":0.05859375,"midi":57,"time":64.45052083333333,"velocity":0.3937007874015748},{"duration":0.67578125,"midi":50,"time":64.48567708333333,"velocity":0.3937007874015748},{"duration":0.17578125,"midi":93,"time":64.5078125,"velocity":0.3937007874015748},{"duration":0.1770833333333286,"midi":65,"time":64.51953125,"velocity":0.3937007874015748},{"duration":0.1770833333333286,"midi":89,"time":64.5546875,"velocity":0.3937007874015748},{"duration":0.17578125,"midi":87,"time":64.56640625,"velocity":0.3937007874015748},{"duration":0.55078125,"midi":57,"time":64.578125,"velocity":0.3937007874015748},{"duration":0.17578125,"midi":89,"time":64.578125,"velocity":0.3937007874015748},{"duration":0.17578125,"midi":74,"time":64.58984375,"velocity":0.3937007874015748},{"duration":0.8020833333333286,"midi":77,"time":64.61328125,"velocity":0.3937007874015748},{"duration":0.059895833333328596,"midi":65,"time":64.671875,"velocity":0.3937007874015748},{"duration":0.05859375,"midi":64,"time":64.70703125,"velocity":0.3937007874015748},{"duration":0.1744791666666714,"midi":65,"time":64.73046875,"velocity":0.3937007874015748},{"duration":0.17578125,"midi":93,"time":64.75390625,"velocity":0.3937007874015748},{"duration":0.17578125,"midi":74,"time":64.75390625,"velocity":0.3937007874015748},{"duration":0.1744791666666714,"midi":84,"time":64.765625,"velocity":0.3937007874015748},{"duration":0.2994791666666714,"midi":89,"time":64.765625,"velocity":0.3937007874015748},{"duration":0.17578125,"midi":84,"time":64.86979166666667,"velocity":0.3937007874015748},{"duration":0.059895833333328596,"midi":65,"time":64.86979166666667,"velocity":0.3937007874015748},{"duration":0.1744791666666572,"midi":65,"time":64.91666666666667,"velocity":0.3937007874015748},{"duration":0.05989583333334281,"midi":93,"time":64.93880208333333,"velocity":0.3937007874015748},{"duration":0.2799479166666572,"midi":74,"time":64.98697916666667,"velocity":0.3937007874015748},{"duration":0.17578125,"midi":65,"time":65.02213541666667,"velocity":0.3937007874015748},{"duration":0.061197916666671404,"midi":65,"time":65.1484375,"velocity":0.3937007874015748},{"duration":0.1770833333333286,"midi":93,"time":65.1484375,"velocity":0.3937007874015748},{"duration":0.061197916666671404,"midi":63,"time":65.16015625,"velocity":0.3937007874015748},{"duration":0.1770833333333286,"midi":84,"time":65.16015625,"velocity":0.3937007874015748},{"duration":0.061197916666671404,"midi":60,"time":65.17317708333333,"velocity":0.3937007874015748},{"duration":0.061197916666671404,"midi":86,"time":65.17317708333333,"velocity":0.3937007874015748},{"duration":0.061197916666671404,"midi":83,"time":65.17317708333333,"velocity":0.3937007874015748},{"duration":0.061197916666671404,"midi":69,"time":65.17317708333333,"velocity":0.3937007874015748},{"duration":0.05989583333334281,"midi":51,"time":65.18489583333333,"velocity":0.3937007874015748},{"duration":0.05859375,"midi":61,"time":65.19661458333333,"velocity":0.3937007874015748},{"duration":0.05859375,"midi":50,"time":65.19661458333333,"velocity":0.3937007874015748},{"duration":0.05859375,"midi":67,"time":65.20833333333333,"velocity":0.3937007874015748},{"duration":0.07942708333334281,"midi":74,"time":65.20833333333333,"velocity":0.3937007874015748},{"duration":0.1744791666666714,"midi":65,"time":65.24348958333333,"velocity":0.3937007874015748},{"duration":0.05989583333334281,"midi":87,"time":65.25520833333333,"velocity":0.3937007874015748},{"duration":0.1744791666666714,"midi":69,"time":65.25520833333333,"velocity":0.3937007874015748},{"duration":0.05859375,"midi":86,"time":65.30208333333333,"velocity":0.3937007874015748},{"duration":0.2981770833333286,"midi":92,"time":65.32421875,"velocity":0.3937007874015748},{"duration":0.2981770833333286,"midi":88,"time":65.32421875,"velocity":0.3937007874015748},{"duration":0.421875,"midi":83,"time":65.33723958333333,"velocity":0.3937007874015748},{"duration":0.171875,"midi":76,"time":65.33723958333333,"velocity":0.3937007874015748},{"duration":0.05859375,"midi":61,"time":65.33723958333333,"velocity":0.3937007874015748},{"duration":0.421875,"midi":90,"time":65.33723958333333,"velocity":0.3937007874015748},{"duration":0.05859375,"midi":50,"time":65.359375,"velocity":0.3937007874015748},{"duration":0.05859375,"midi":86,"time":65.37109375,"velocity":0.3937007874015748},{"duration":0.2981770833333286,"midi":57,"time":65.37109375,"velocity":0.3937007874015748},{"duration":0.05859375,"midi":64,"time":65.37109375,"velocity":0.3937007874015748},{"duration":0.057291666666671404,"midi":74,"time":65.3828125,"velocity":0.3937007874015748},{"duration":0.057291666666671404,"midi":93,"time":65.40625,"velocity":0.3937007874015748},{"duration":0.05729166666665719,"midi":65,"time":65.42838541666667,"velocity":0.3937007874015748},{"duration":0.1744791666666714,"midi":74,"time":65.43880208333333,"velocity":0.3937007874015748},{"duration":0.2994791666666714,"midi":76,"time":65.46223958333333,"velocity":0.3937007874015748},{"duration":0.059895833333328596,"midi":93,"time":65.53125,"velocity":0.3937007874015748},{"duration":0.17578125,"midi":65,"time":65.53125,"velocity":0.3937007874015748},{"duration":0.2994791666666714,"midi":50,"time":65.54296875,"velocity":0.3937007874015748},{"duration":0.1744791666666714,"midi":69,"time":65.58984375,"velocity":0.3937007874015748},{"duration":0.059895833333328596,"midi":64,"time":65.6015625,"velocity":0.3937007874015748},{"duration":0.05859375,"midi":63,"time":65.6484375,"velocity":0.3937007874015748},{"duration":0.1744791666666714,"midi":76,"time":65.671875,"velocity":0.3937007874015748},{"duration":0.05859375,"midi":65,"time":65.68359375,"velocity":0.3937007874015748},{"duration":0.059895833333328596,"midi":63,"time":65.75260416666667,"velocity":0.3937007874015748},{"duration":0.059895833333328596,"midi":95,"time":65.75260416666667,"velocity":0.3937007874015748},{"duration":0.1731770833333286,"midi":50,"time":65.76432291666667,"velocity":0.3937007874015748},{"duration":0.05859375,"midi":71,"time":65.77604166666667,"velocity":0.3937007874015748},{"duration":0.05859375,"midi":64,"time":65.77604166666667,"velocity":0.3937007874015748},{"duration":0.057291666666671404,"midi":60,"time":65.7890625,"velocity":0.3937007874015748},{"duration":0.05729166666665719,"midi":77,"time":65.81119791666667,"velocity":0.3937007874015748},{"duration":0.1731770833333286,"midi":57,"time":65.83463541666667,"velocity":0.3937007874015748},{"duration":0.05859375,"midi":65,"time":65.84505208333333,"velocity":0.3937007874015748},{"duration":0.05859375,"midi":65,"time":65.9140625,"velocity":0.3937007874015748},{"duration":0.1770833333333286,"midi":69,"time":65.95963541666667,"velocity":0.3937007874015748},{"duration":0.059895833333328596,"midi":62,"time":65.95963541666667,"velocity":0.3937007874015748},{"duration":0.1770833333333286,"midi":84,"time":65.97135416666667,"velocity":0.3937007874015748},{"duration":0.059895833333328596,"midi":76,"time":65.98307291666667,"velocity":0.3937007874015748},{"duration":0.1783854166666572,"midi":57,"time":65.98307291666667,"velocity":0.3937007874015748},{"duration":0.059895833333328596,"midi":93,"time":65.98307291666667,"velocity":0.3937007874015748},{"duration":0.8072916666666572,"midi":50,"time":65.99479166666667,"velocity":0.3937007874015748},{"duration":0.059895833333328596,"midi":89,"time":65.99479166666667,"velocity":0.3937007874015748},{"duration":0.1783854166666572,"midi":74,"time":65.99479166666667,"velocity":0.3937007874015748},{"duration":0.059895833333328596,"midi":63,"time":66.00651041666667,"velocity":0.3937007874015748},{"duration":0.059895833333328596,"midi":90,"time":66.01953125,"velocity":0.3937007874015748},{"duration":0.3020833333333286,"midi":64,"time":66.1015625,"velocity":0.3937007874015748},{"duration":0.1770833333333286,"midi":74,"time":66.12369791666667,"velocity":0.3937007874015748},{"duration":0.3020833333333286,"midi":86,"time":66.12369791666667,"velocity":0.3937007874015748},{"duration":0.17578125,"midi":90,"time":66.16015625,"velocity":0.3937007874015748},{"duration":0.2994791666666714,"midi":57,"time":66.17317708333333,"velocity":0.3937007874015748},{"duration":0.059895833333328596,"midi":88,"time":66.265625,"velocity":0.3937007874015748},{"duration":0.059895833333328596,"midi":93,"time":66.35807291666667,"velocity":0.3937007874015748},{"duration":0.1744791666666572,"midi":74,"time":66.35807291666667,"velocity":0.3937007874015748},{"duration":0.05859375,"midi":64,"time":66.42838541666667,"velocity":0.3937007874015748},{"duration":0.05859375,"midi":60,"time":66.42838541666667,"velocity":0.3937007874015748},{"duration":0.05859375,"midi":63,"time":66.45182291666667,"velocity":0.3937007874015748},{"duration":0.1419270833333286,"midi":57,"time":66.45182291666667,"velocity":0.3937007874015748},{"duration":0.061197916666671404,"midi":74,"time":66.52083333333333,"velocity":0.3937007874015748},{"duration":0.09505208333334281,"midi":57,"time":66.53255208333333,"velocity":0.3937007874015748},{"duration":0.1770833333333428,"midi":63,"time":66.54427083333333,"velocity":0.3937007874015748},{"duration":0.059895833333328596,"midi":77,"time":66.55729166666667,"velocity":0.3937007874015748},{"duration":0.05859375,"midi":82,"time":66.56901041666667,"velocity":0.3937007874015748},{"duration":0.1770833333333286,"midi":57,"time":66.58072916666667,"velocity":0.3937007874015748},{"duration":0.05859375,"midi":75,"time":66.58072916666667,"velocity":0.3937007874015748},{"duration":0.05859375,"midi":91,"time":66.58072916666667,"velocity":0.3937007874015748},{"duration":0.05859375,"midi":90,"time":66.61588541666667,"velocity":0.3937007874015748},{"duration":0.30078125,"midi":81,"time":66.62630208333333,"velocity":0.3937007874015748},{"duration":0.05989583333334281,"midi":74,"time":66.62630208333333,"velocity":0.3937007874015748},{"duration":0.06119791666665719,"midi":64,"time":66.73307291666667,"velocity":0.3937007874015748},{"duration":0.06119791666665719,"midi":75,"time":66.73307291666667,"velocity":0.3937007874015748},{"duration":0.059895833333328596,"midi":88,"time":66.74479166666667,"velocity":0.3937007874015748},{"duration":0.059895833333328596,"midi":68,"time":66.74479166666667,"velocity":0.3937007874015748},{"duration":0.059895833333328596,"midi":60,"time":66.74479166666667,"velocity":0.3937007874015748},{"duration":0.1744791666666572,"midi":88,"time":66.74479166666667,"velocity":0.3937007874015748},{"duration":0.05859375,"midi":82,"time":66.7578125,"velocity":0.3937007874015748},{"duration":0.05859375,"midi":51,"time":66.7578125,"velocity":0.3937007874015748},{"duration":0.1731770833333286,"midi":91,"time":66.76953125,"velocity":0.3937007874015748},{"duration":0.05859375,"midi":50,"time":66.76953125,"velocity":0.3937007874015748},{"duration":0.2981770833333286,"midi":84,"time":66.78125,"velocity":0.3937007874015748},{"duration":0.057291666666671404,"midi":72,"time":66.79427083333333,"velocity":0.3937007874015748},{"duration":0.2981770833333286,"midi":69,"time":66.8046875,"velocity":0.3937007874015748},{"duration":0.1744791666666572,"midi":57,"time":66.81510416666667,"velocity":0.3937007874015748},{"duration":0.1744791666666572,"midi":50,"time":66.83854166666667,"velocity":0.3937007874015748},{"duration":0.05859375,"midi":61,"time":66.85026041666667,"velocity":0.3937007874015748},{"duration":0.05859375,"midi":76,"time":66.86067708333333,"velocity":0.3937007874015748},{"duration":0.4205729166666714,"midi":72,"time":66.91927083333333,"velocity":0.3937007874015748},{"duration":0.059895833333328596,"midi":74,"time":66.96484375,"velocity":0.3937007874015748},{"duration":0.1744791666666714,"midi":47,"time":66.9765625,"velocity":0.3937007874015748},{"duration":0.059895833333328596,"midi":62,"time":66.9765625,"velocity":0.3937007874015748},{"duration":0.1744791666666714,"midi":77,"time":66.9765625,"velocity":0.3937007874015748},{"duration":0.1744791666666714,"midi":65,"time":66.98958333333333,"velocity":0.3937007874015748},{"duration":0.05859375,"midi":76,"time":67.08203125,"velocity":0.3937007874015748},{"duration":0.059895833333328596,"midi":88,"time":67.12760416666667,"velocity":0.3937007874015748},{"duration":0.17578125,"midi":93,"time":67.140625,"velocity":0.3937007874015748},{"duration":0.1770833333333286,"midi":57,"time":67.15104166666667,"velocity":0.3937007874015748},{"duration":0.059895833333328596,"midi":41,"time":67.16276041666667,"velocity":0.3937007874015748},{"duration":0.5481770833333286,"midi":74,"time":67.16276041666667,"velocity":0.3937007874015748},{"duration":0.05859375,"midi":65,"time":67.17578125,"velocity":0.3937007874015748},{"duration":0.1744791666666714,"midi":42,"time":67.1875,"velocity":0.3937007874015748},{"duration":0.17578125,"midi":65,"time":67.23307291666667,"velocity":0.3937007874015748},{"duration":0.17578125,"midi":57,"time":67.26822916666667,"velocity":0.3937007874015748},{"duration":0.06510416666665719,"midi":72,"time":67.27994791666667,"velocity":0.3937007874015748},{"duration":0.05859375,"midi":62,"time":67.29296875,"velocity":0.3937007874015748},{"duration":0.2981770833333286,"midi":72,"time":67.32682291666667,"velocity":0.3937007874015748},{"duration":0.2981770833333286,"midi":62,"time":67.33984375,"velocity":0.3937007874015748},{"duration":0.17578125,"midi":42,"time":67.36067708333333,"velocity":0.3937007874015748},{"duration":0.05859375,"midi":30,"time":67.42057291666667,"velocity":0.3937007874015748},{"duration":0.1731770833333428,"midi":81,"time":67.47786458333333,"velocity":0.3937007874015748},{"duration":0.05989583333334281,"midi":30,"time":67.48958333333333,"velocity":0.3937007874015748},{"duration":0.05989583333334281,"midi":87,"time":67.52473958333333,"velocity":0.3937007874015748},{"duration":0.4231770833333428,"midi":70,"time":67.52473958333333,"velocity":0.3937007874015748},{"duration":0.1731770833333428,"midi":90,"time":67.52473958333333,"velocity":0.3937007874015748},{"duration":0.1731770833333428,"midi":88,"time":67.52473958333333,"velocity":0.3937007874015748},{"duration":0.05859375,"midi":41,"time":67.54817708333333,"velocity":0.3937007874015748},{"duration":0.05859375,"midi":86,"time":67.55989583333333,"velocity":0.3937007874015748},{"duration":0.2890625,"midi":50,"time":67.55989583333333,"velocity":0.3937007874015748},{"duration":0.05859375,"midi":60,"time":67.55989583333333,"velocity":0.3937007874015748},{"duration":0.171875,"midi":67,"time":67.57161458333333,"velocity":0.3937007874015748},{"duration":0.057291666666671404,"midi":94,"time":67.58333333333333,"velocity":0.3937007874015748},{"duration":0.057291666666671404,"midi":55,"time":67.58333333333333,"velocity":0.3937007874015748},{"duration":0.057291666666671404,"midi":61,"time":67.58333333333333,"velocity":0.3937007874015748},{"duration":0.057291666666671404,"midi":89,"time":67.59375,"velocity":0.3937007874015748},{"duration":0.171875,"midi":75,"time":67.59375,"velocity":0.3937007874015748},{"duration":0.057291666666671404,"midi":85,"time":67.60677083333333,"velocity":0.3937007874015748},{"duration":0.4205729166666714,"midi":77,"time":67.60677083333333,"velocity":0.3937007874015748},{"duration":0.2981770833333286,"midi":43,"time":67.6171875,"velocity":0.3937007874015748},{"duration":0.05859375,"midi":64,"time":67.62760416666667,"velocity":0.3937007874015748},{"duration":0.057291666666671404,"midi":84,"time":67.640625,"velocity":0.3937007874015748},{"duration":0.05729166666665719,"midi":87,"time":67.65104166666667,"velocity":0.3937007874015748},{"duration":0.05859375,"midi":65,"time":67.67447916666667,"velocity":0.3937007874015748},{"duration":0.1744791666666714,"midi":67,"time":67.69661458333333,"velocity":0.3937007874015748},{"duration":0.05859375,"midi":31,"time":67.69661458333333,"velocity":0.3937007874015748},{"duration":0.17578125,"midi":81,"time":67.70703125,"velocity":0.3937007874015748},{"duration":0.059895833333328596,"midi":63,"time":67.765625,"velocity":0.3937007874015748},{"duration":0.05859375,"midi":74,"time":67.77734375,"velocity":0.3937007874015748},{"duration":0.1744791666666714,"midi":65,"time":67.79036458333333,"velocity":0.3937007874015748},{"duration":0.06640625,"midi":50,"time":67.79036458333333,"velocity":0.3937007874015748},{"duration":0.059895833333328596,"midi":29,"time":67.8359375,"velocity":0.3937007874015748},{"duration":0.059895833333328596,"midi":62,"time":67.85807291666667,"velocity":0.3937007874015748},{"duration":0.1731770833333286,"midi":89,"time":67.92838541666667,"velocity":0.3937007874015748},{"duration":0.1731770833333286,"midi":88,"time":67.92838541666667,"velocity":0.3937007874015748},{"duration":0.1731770833333286,"midi":93,"time":67.92838541666667,"velocity":0.3937007874015748},{"duration":0.059895833333328596,"midi":62,"time":67.92838541666667,"velocity":0.3937007874015748},{"duration":0.05859375,"midi":90,"time":67.94010416666667,"velocity":0.3937007874015748},{"duration":0.2981770833333286,"midi":70,"time":67.94010416666667,"velocity":0.3937007874015748},{"duration":0.05859375,"midi":65,"time":67.96354166666667,"velocity":0.3937007874015748},{"duration":0.05729166666665719,"midi":84,"time":67.97526041666667,"velocity":0.3937007874015748},{"duration":0.4244791666666714,"midi":62,"time":67.98828125,"velocity":0.3937007874015748},{"duration":0.1731770833333286,"midi":77,"time":67.99869791666667,"velocity":0.3937007874015748},{"duration":0.30078125,"midi":65,"time":68.03255208333333,"velocity":0.3937007874015748},{"duration":0.06119791666665719,"midi":69,"time":68.29947916666667,"velocity":0.3937007874015748},{"duration":0.2916666666666572,"midi":77,"time":68.29947916666667,"velocity":0.3937007874015748},{"duration":0.06119791666665719,"midi":73,"time":68.29947916666667,"velocity":0.3937007874015748},{"duration":0.3111979166666572,"midi":84,"time":68.29947916666667,"velocity":0.3937007874015748},{"duration":0.06119791666665719,"midi":60,"time":68.31119791666667,"velocity":0.3937007874015748},{"duration":0.06119791666665719,"midi":51,"time":68.31119791666667,"velocity":0.3937007874015748},{"duration":0.06119791666665719,"midi":65,"time":68.31119791666667,"velocity":0.3937007874015748},{"duration":0.4127604166666572,"midi":84,"time":68.31119791666667,"velocity":0.3937007874015748},{"duration":0.17578125,"midi":89,"time":68.31119791666667,"velocity":0.3937007874015748},{"duration":0.06119791666665719,"midi":94,"time":68.32291666666667,"velocity":0.3937007874015748},{"duration":0.17578125,"midi":74,"time":68.32291666666667,"velocity":0.3937007874015748},{"duration":0.059895833333328596,"midi":87,"time":68.3359375,"velocity":0.3937007874015748},{"duration":0.059895833333328596,"midi":68,"time":68.3359375,"velocity":0.3937007874015748},{"duration":0.059895833333328596,"midi":50,"time":68.3359375,"velocity":0.3937007874015748},{"duration":0.1744791666666714,"midi":93,"time":68.34765625,"velocity":0.3937007874015748},{"duration":0.05859375,"midi":91,"time":68.39453125,"velocity":0.3937007874015748},{"duration":0.171875,"midi":65,"time":68.39453125,"velocity":0.3937007874015748},{"duration":0.05859375,"midi":62,"time":68.44010416666667,"velocity":0.3937007874015748},{"duration":0.05859375,"midi":91,"time":68.453125,"velocity":0.3937007874015748},{"duration":0.05859375,"midi":87,"time":68.46354166666667,"velocity":0.3937007874015748},{"duration":0.05729166666665719,"midi":50,"time":68.49869791666667,"velocity":0.3937007874015748},{"duration":0.05729166666665719,"midi":63,"time":68.52213541666667,"velocity":0.3937007874015748},{"duration":0.40625,"midi":74,"time":68.52213541666667,"velocity":0.3937007874015748},{"duration":0.06640625,"midi":77,"time":68.53255208333333,"velocity":0.3937007874015748},{"duration":0.05859375,"midi":70,"time":68.55598958333333,"velocity":0.3937007874015748},{"duration":0.059895833333328596,"midi":93,"time":68.56640625,"velocity":0.3937007874015748},{"duration":0.17578125,"midi":65,"time":68.56640625,"velocity":0.3937007874015748},{"duration":0.17578125,"midi":93,"time":68.63671875,"velocity":0.3937007874015748},{"duration":0.17578125,"midi":62,"time":68.69401041666667,"velocity":0.3937007874015748},{"duration":0.059895833333328596,"midi":90,"time":68.71744791666667,"velocity":0.3937007874015748},{"duration":0.17578125,"midi":81,"time":68.72916666666667,"velocity":0.3937007874015748},{"duration":0.1731770833333286,"midi":77,"time":68.77604166666667,"velocity":0.3937007874015748},{"duration":0.05859375,"midi":90,"time":68.77604166666667,"velocity":0.3937007874015748},{"duration":0.059895833333328596,"midi":65,"time":68.83463541666667,"velocity":0.3937007874015748},{"duration":0.07421875,"midi":74,"time":68.86979166666667,"velocity":0.3937007874015748},{"duration":0.05729166666665719,"midi":82,"time":68.88151041666667,"velocity":0.3937007874015748},{"duration":0.05729166666665719,"midi":63,"time":68.88151041666667,"velocity":0.3937007874015748},{"duration":0.055989583333328596,"midi":70,"time":68.89322916666667,"velocity":0.3937007874015748},{"duration":0.055989583333328596,"midi":60,"time":68.89322916666667,"velocity":0.3937007874015748},{"duration":0.1471354166666572,"midi":77,"time":68.90494791666667,"velocity":0.3937007874015748},{"duration":0.055989583333328596,"midi":83,"time":68.90494791666667,"velocity":0.3937007874015748},{"duration":0.055989583333328596,"midi":64,"time":68.90494791666667,"velocity":0.3937007874015748},{"duration":0.05598958333334281,"midi":36,"time":68.92708333333333,"velocity":0.3937007874015748},{"duration":0.1705729166666714,"midi":93,"time":68.92708333333333,"velocity":0.3937007874015748},{"duration":0.05598958333334281,"midi":84,"time":68.92708333333333,"velocity":0.3937007874015748},{"duration":0.171875,"midi":50,"time":68.9375,"velocity":0.3937007874015748},{"duration":0.171875,"midi":74,"time":68.94921875,"velocity":0.3937007874015748},{"duration":0.171875,"midi":43,"time":68.95963541666667,"velocity":0.3937007874015748},{"duration":0.171875,"midi":70,"time":68.95963541666667,"velocity":0.3937007874015748},{"duration":0.171875,"midi":84,"time":68.98307291666667,"velocity":0.3937007874015748},{"duration":0.05859375,"midi":59,"time":68.99348958333333,"velocity":0.3937007874015748},{"duration":0.0807291666666714,"midi":77,"time":68.99348958333333,"velocity":0.3937007874015748},{"duration":0.171875,"midi":65,"time":69.00520833333333,"velocity":0.3937007874015748},{"duration":0.057291666666671404,"midi":81,"time":69.00520833333333,"velocity":0.3937007874015748},{"duration":0.05859375,"midi":85,"time":69.05208333333333,"velocity":0.3937007874015748},{"duration":0.171875,"midi":91,"time":69.0625,"velocity":0.3937007874015748},{"duration":0.05859375,"midi":94,"time":69.0625,"velocity":0.3937007874015748},{"duration":0.05859375,"midi":79,"time":69.07291666666667,"velocity":0.3937007874015748},{"duration":0.171875,"midi":89,"time":69.07291666666667,"velocity":0.3937007874015748},{"duration":0.171875,"midi":86,"time":69.07291666666667,"velocity":0.3937007874015748},{"duration":0.171875,"midi":95,"time":69.08463541666667,"velocity":0.3937007874015748},{"duration":0.171875,"midi":74,"time":69.08463541666667,"velocity":0.3937007874015748},{"duration":0.171875,"midi":86,"time":69.08463541666667,"velocity":0.3937007874015748},{"duration":0.1705729166666714,"midi":70,"time":69.09765625,"velocity":0.3937007874015748},{"duration":0.057291666666671404,"midi":41,"time":69.109375,"velocity":0.3937007874015748},{"duration":0.057291666666671404,"midi":64,"time":69.109375,"velocity":0.3937007874015748},{"duration":0.05729166666665719,"midi":37,"time":69.11979166666667,"velocity":0.3937007874015748},{"duration":0.05859375,"midi":78,"time":69.13151041666667,"velocity":0.3937007874015748},{"duration":0.05859375,"midi":94,"time":69.14192708333333,"velocity":0.3937007874015748},{"duration":0.16015625,"midi":84,"time":69.14192708333333,"velocity":0.3937007874015748},{"duration":0.05859375,"midi":43,"time":69.15364583333333,"velocity":0.3937007874015748},{"duration":0.1705729166666714,"midi":50,"time":69.15364583333333,"velocity":0.3937007874015748},{"duration":0.05729166666665719,"midi":27,"time":69.16666666666667,"velocity":0.3937007874015748},{"duration":0.057291666666671404,"midi":65,"time":69.17708333333333,"velocity":0.3937007874015748},{"duration":0.057291666666671404,"midi":31,"time":69.19921875,"velocity":0.3937007874015748},{"duration":0.171875,"midi":43,"time":69.22265625,"velocity":0.3937007874015748},{"duration":0.05729166666665719,"midi":31,"time":69.23307291666667,"velocity":0.3937007874015748},{"duration":0.1614583333333286,"midi":70,"time":69.23307291666667,"velocity":0.3937007874015748},{"duration":0.0677083333333286,"midi":84,"time":69.24479166666667,"velocity":0.3937007874015748},{"duration":0.05729166666665719,"midi":86,"time":69.24479166666667,"velocity":0.3937007874015748},{"duration":0.05859375,"midi":77,"time":69.29036458333333,"velocity":0.3937007874015748},{"duration":0.4231770833333286,"midi":43,"time":69.30078125,"velocity":0.3937007874015748},{"duration":0.1744791666666714,"midi":60,"time":69.30078125,"velocity":0.3937007874015748},{"duration":0.05859375,"midi":63,"time":69.30078125,"velocity":0.3937007874015748},{"duration":0.059895833333328596,"midi":31,"time":69.31119791666667,"velocity":0.3937007874015748},{"duration":0.2981770833333286,"midi":50,"time":69.31119791666667,"velocity":0.3937007874015748},{"duration":0.059895833333328596,"midi":74,"time":69.31119791666667,"velocity":0.3937007874015748},{"duration":0.0690104166666714,"midi":70,"time":69.3359375,"velocity":0.3937007874015748},{"duration":0.1731770833333286,"midi":86,"time":69.34765625,"velocity":0.3937007874015748},{"duration":0.05859375,"midi":31,"time":69.359375,"velocity":0.3937007874015748},{"duration":0.05859375,"midi":70,"time":69.41666666666667,"velocity":0.3937007874015748},{"duration":0.05859375,"midi":31,"time":69.44010416666667,"velocity":0.3937007874015748},{"duration":0.05859375,"midi":89,"time":69.46223958333333,"velocity":0.3937007874015748},{"duration":0.05859375,"midi":65,"time":69.46223958333333,"velocity":0.3937007874015748},{"duration":0.1731770833333428,"midi":84,"time":69.48567708333333,"velocity":0.3937007874015748},{"duration":0.05859375,"midi":59,"time":69.48567708333333,"velocity":0.3937007874015748},{"duration":0.057291666666671404,"midi":64,"time":69.49739583333333,"velocity":0.3937007874015748},{"duration":0.05859375,"midi":60,"time":69.50911458333333,"velocity":0.3937007874015748},{"duration":0.1731770833333428,"midi":65,"time":69.52083333333333,"velocity":0.3937007874015748},{"duration":0.1744791666666714,"midi":89,"time":69.54427083333333,"velocity":0.3937007874015748},{"duration":0.30078125,"midi":50,"time":69.5546875,"velocity":0.3937007874015748},{"duration":0.05859375,"midi":31,"time":69.58984375,"velocity":0.3937007874015748},{"duration":0.17578125,"midi":91,"time":69.61197916666667,"velocity":0.3937007874015748},{"duration":0.05859375,"midi":84,"time":69.61197916666667,"velocity":0.3937007874015748},{"duration":0.17578125,"midi":93,"time":69.61197916666667,"velocity":0.3937007874015748},{"duration":0.059895833333328596,"midi":31,"time":69.65885416666667,"velocity":0.3937007874015748},{"duration":0.059895833333328596,"midi":60,"time":69.67057291666667,"velocity":0.3937007874015748},{"duration":0.059895833333328596,"midi":43,"time":69.67057291666667,"velocity":0.3937007874015748},{"duration":0.05989583333334281,"midi":82,"time":69.68098958333333,"velocity":0.3937007874015748},{"duration":0.05989583333334281,"midi":84,"time":69.69270833333333,"velocity":0.3937007874015748},{"duration":0.1770833333333286,"midi":70,"time":69.70572916666667,"velocity":0.3937007874015748},{"duration":0.1770833333333286,"midi":74,"time":69.70572916666667,"velocity":0.3937007874015748},{"duration":0.1770833333333286,"midi":31,"time":69.72916666666667,"velocity":0.3937007874015748},{"duration":0.059895833333328596,"midi":65,"time":69.74088541666667,"velocity":0.3937007874015748},{"duration":0.17578125,"midi":74,"time":69.80989583333333,"velocity":0.3937007874015748},{"duration":0.061197916666671404,"midi":59,"time":69.84505208333333,"velocity":0.3937007874015748},{"duration":0.059895833333328596,"midi":68,"time":69.85807291666667,"velocity":0.3937007874015748},{"duration":0.05859375,"midi":60,"time":69.86979166666667,"velocity":0.3937007874015748},{"duration":0.05859375,"midi":63,"time":69.86979166666667,"velocity":0.3937007874015748},{"duration":0.05859375,"midi":85,"time":69.86979166666667,"velocity":0.3937007874015748},{"duration":0.05859375,"midi":77,"time":69.86979166666667,"velocity":0.3937007874015748},{"duration":0.05859375,"midi":48,"time":69.88151041666667,"velocity":0.3937007874015748},{"duration":0.05859375,"midi":37,"time":69.89453125,"velocity":0.3937007874015748},{"duration":0.1731770833333286,"midi":88,"time":69.89453125,"velocity":0.3937007874015748},{"duration":0.1731770833333286,"midi":86,"time":69.89453125,"velocity":0.3937007874015748},{"duration":0.1731770833333286,"midi":64,"time":69.89453125,"velocity":0.3937007874015748},{"duration":0.2981770833333286,"midi":95,"time":69.90625,"velocity":0.3937007874015748},{"duration":0.1380208333333286,"midi":67,"time":69.90625,"velocity":0.3937007874015748},{"duration":0.4244791666666714,"midi":90,"time":69.90625,"velocity":0.3937007874015748},{"duration":0.057291666666671404,"midi":60,"time":69.90625,"velocity":0.3937007874015748},{"duration":0.1744791666666572,"midi":74,"time":69.91666666666667,"velocity":0.3937007874015748},{"duration":0.42578125,"midi":52,"time":69.92708333333333,"velocity":0.3937007874015748},{"duration":0.8020833333333428,"midi":45,"time":69.92708333333333,"velocity":0.3937007874015748},{"duration":0.05859375,"midi":61,"time":69.96223958333333,"velocity":0.3937007874015748},{"duration":0.09375,"midi":67,"time":69.98567708333333,"velocity":0.3937007874015748},{"duration":0.1549479166666714,"midi":88,"time":70.03125,"velocity":0.3937007874015748},{"duration":0.059895833333328596,"midi":65,"time":70.03125,"velocity":0.3937007874015748},{"duration":0.17578125,"midi":67,"time":70.04427083333333,"velocity":0.3937007874015748},{"duration":0.05989583333334281,"midi":61,"time":70.04427083333333,"velocity":0.3937007874015748},{"duration":0.059895833333328596,"midi":33,"time":70.078125,"velocity":0.3937007874015748},{"duration":0.1640625,"midi":33,"time":70.11328125,"velocity":0.3937007874015748},{"duration":0.0807291666666714,"midi":88,"time":70.12630208333333,"velocity":0.3937007874015748},{"duration":0.05859375,"midi":92,"time":70.13802083333333,"velocity":0.3937007874015748},{"duration":0.05859375,"midi":65,"time":70.16145833333333,"velocity":0.3937007874015748},{"duration":0.05859375,"midi":65,"time":70.1953125,"velocity":0.3937007874015748},{"duration":0.0690104166666714,"midi":33,"time":70.21875,"velocity":0.3937007874015748},{"duration":0.1744791666666572,"midi":81,"time":70.26432291666667,"velocity":0.3937007874015748},{"duration":0.1744791666666572,"midi":90,"time":70.28776041666667,"velocity":0.3937007874015748},{"duration":0.30078125,"midi":70,"time":70.28776041666667,"velocity":0.3937007874015748},{"duration":0.1744791666666572,"midi":67,"time":70.29947916666667,"velocity":0.3937007874015748},{"duration":0.059895833333328596,"midi":86,"time":70.31119791666667,"velocity":0.3937007874015748},{"duration":0.05859375,"midi":86,"time":70.32421875,"velocity":0.3937007874015748},{"duration":0.4244791666666714,"midi":52,"time":70.32421875,"velocity":0.3937007874015748},{"duration":0.05859375,"midi":34,"time":70.3359375,"velocity":0.3937007874015748},{"duration":0.05859375,"midi":62,"time":70.3359375,"velocity":0.3937007874015748},{"duration":0.05859375,"midi":33,"time":70.359375,"velocity":0.3937007874015748},{"duration":0.05859375,"midi":74,"time":70.359375,"velocity":0.3937007874015748},{"duration":0.057291666666671404,"midi":84,"time":70.37109375,"velocity":0.3937007874015748},{"duration":0.05729166666665719,"midi":73,"time":70.38151041666667,"velocity":0.3937007874015748},{"duration":0.140625,"midi":81,"time":70.40494791666667,"velocity":0.3937007874015748},{"duration":0.1744791666666572,"midi":74,"time":70.40494791666667,"velocity":0.3937007874015748},{"duration":0.17578125,"midi":84,"time":70.42708333333333,"velocity":0.3937007874015748},{"duration":0.061197916666671404,"midi":33,"time":70.44921875,"velocity":0.3937007874015748},{"duration":0.1770833333333286,"midi":90,"time":70.44921875,"velocity":0.3937007874015748},{"duration":0.1770833333333286,"midi":62,"time":70.4609375,"velocity":0.3937007874015748},{"duration":0.09375,"midi":81,"time":70.48567708333333,"velocity":0.3937007874015748},{"duration":0.17578125,"midi":93,"time":70.54557291666667,"velocity":0.3937007874015748},{"duration":0.05859375,"midi":61,"time":70.54557291666667,"velocity":0.3937007874015748},{"duration":0.1770833333333428,"midi":65,"time":70.55598958333333,"velocity":0.3937007874015748},{"duration":0.1770833333333428,"midi":81,"time":70.55598958333333,"velocity":0.3937007874015748},{"duration":0.1770833333333428,"midi":33,"time":70.55598958333333,"velocity":0.3937007874015748},{"duration":0.17578125,"midi":62,"time":70.578125,"velocity":0.3937007874015748},{"duration":0.05989583333334281,"midi":63,"time":70.64973958333333,"velocity":0.3937007874015748},{"duration":0.05989583333334281,"midi":64,"time":70.67317708333333,"velocity":0.3937007874015748},{"duration":0.05989583333334281,"midi":41,"time":70.67317708333333,"velocity":0.3937007874015748},{"duration":0.05859375,"midi":60,"time":70.68489583333333,"velocity":0.3937007874015748},{"duration":0.05859375,"midi":74,"time":70.68489583333333,"velocity":0.3937007874015748},{"duration":0.05859375,"midi":37,"time":70.68489583333333,"velocity":0.3937007874015748},{"duration":0.171875,"midi":81,"time":70.68489583333333,"velocity":0.3937007874015748},{"duration":0.057291666666671404,"midi":63,"time":70.69661458333333,"velocity":0.3937007874015748},{"duration":0.055989583333328596,"midi":32,"time":70.70963541666667,"velocity":0.3937007874015748},{"duration":0.7903645833333286,"midi":53,"time":70.70963541666667,"velocity":0.3937007874015748},{"duration":0.7903645833333428,"midi":46,"time":70.72005208333333,"velocity":0.3937007874015748},{"duration":0.05598958333334281,"midi":61,"time":70.72005208333333,"velocity":0.3937007874015748},{"duration":0.05598958333334281,"midi":32,"time":70.74348958333333,"velocity":0.3937007874015748},{"duration":0.1731770833333286,"midi":69,"time":70.76432291666667,"velocity":0.3937007874015748},{"duration":0.4192708333333286,"midi":65,"time":70.77604166666667,"velocity":0.3937007874015748},{"duration":0.05989583333334281,"midi":62,"time":70.78645833333333,"velocity":0.3937007874015748},{"duration":0.05859375,"midi":34,"time":70.79817708333333,"velocity":0.3937007874015748},{"duration":0.05859375,"midi":68,"time":70.83333333333333,"velocity":0.3937007874015748},{"duration":0.2760416666666714,"midi":62,"time":70.84505208333333,"velocity":0.3937007874015748},{"duration":0.05859375,"midi":34,"time":70.87890625,"velocity":0.3937007874015748},{"duration":0.1731770833333286,"midi":84,"time":70.90234375,"velocity":0.3937007874015748},{"duration":0.1510416666666714,"midi":68,"time":70.90234375,"velocity":0.3937007874015748},{"duration":0.05859375,"midi":93,"time":70.9140625,"velocity":0.3937007874015748},{"duration":0.05859375,"midi":34,"time":70.9375,"velocity":0.3937007874015748},{"duration":0.08072916666665719,"midi":68,"time":70.99479166666667,"velocity":0.3937007874015748},{"duration":0.05859375,"midi":34,"time":71.00651041666667,"velocity":0.3937007874015748},{"duration":0.296875,"midi":69,"time":71.02864583333333,"velocity":0.3937007874015748},{"duration":0.057291666666671404,"midi":86,"time":71.06380208333333,"velocity":0.3937007874015748},{"duration":0.057291666666671404,"midi":89,"time":71.06380208333333,"velocity":0.3937007874015748},{"duration":0.07552083333334281,"midi":62,"time":71.06380208333333,"velocity":0.3937007874015748},{"duration":0.057291666666671404,"midi":76,"time":71.06380208333333,"velocity":0.3937007874015748},{"duration":0.057291666666671404,"midi":82,"time":71.07421875,"velocity":0.3937007874015748},{"duration":0.057291666666671404,"midi":87,"time":71.09765625,"velocity":0.3937007874015748},{"duration":0.057291666666671404,"midi":34,"time":71.09765625,"velocity":0.3937007874015748},{"duration":0.057291666666671404,"midi":64,"time":71.09765625,"velocity":0.3937007874015748},{"duration":0.1731770833333286,"midi":63,"time":71.12109375,"velocity":0.3937007874015748},{"duration":0.05859375,"midi":82,"time":71.13151041666667,"velocity":0.3937007874015748},{"duration":0.05859375,"midi":34,"time":71.13151041666667,"velocity":0.3937007874015748},{"duration":0.05859375,"midi":86,"time":71.14192708333333,"velocity":0.3937007874015748},{"duration":0.1744791666666572,"midi":74,"time":71.15494791666667,"velocity":0.3937007874015748},{"duration":0.17578125,"midi":34,"time":71.16536458333333,"velocity":0.3937007874015748},{"duration":0.05859375,"midi":76,"time":71.17708333333333,"velocity":0.3937007874015748},{"duration":0.17578125,"midi":65,"time":71.20052083333333,"velocity":0.3937007874015748},{"duration":0.17578125,"midi":84,"time":71.22265625,"velocity":0.3937007874015748},{"duration":0.05859375,"midi":86,"time":71.23567708333333,"velocity":0.3937007874015748},{"duration":0.1744791666666714,"midi":89,"time":71.28125,"velocity":0.3937007874015748},{"duration":0.1744791666666714,"midi":69,"time":71.31640625,"velocity":0.3937007874015748},{"duration":0.05859375,"midi":34,"time":71.33984375,"velocity":0.3937007874015748},{"duration":0.05859375,"midi":64,"time":71.36328125,"velocity":0.3937007874015748},{"duration":0.057291666666671404,"midi":34,"time":71.375,"velocity":0.3937007874015748},{"duration":0.057291666666671404,"midi":65,"time":71.3984375,"velocity":0.3937007874015748},{"duration":0.171875,"midi":93,"time":71.43229166666667,"velocity":0.3937007874015748},{"duration":0.171875,"midi":77,"time":71.44270833333333,"velocity":0.3937007874015748},{"duration":0.05989583333334281,"midi":69,"time":71.44270833333333,"velocity":0.3937007874015748},{"duration":0.05989583333334281,"midi":89,"time":71.44270833333333,"velocity":0.3937007874015748},{"duration":0.05989583333334281,"midi":76,"time":71.44270833333333,"velocity":0.3937007874015748},{"duration":0.171875,"midi":84,"time":71.44270833333333,"velocity":0.3937007874015748},{"duration":0.05859375,"midi":64,"time":71.45442708333333,"velocity":0.3937007874015748},{"duration":0.05859375,"midi":60,"time":71.45442708333333,"velocity":0.3937007874015748},{"duration":0.05859375,"midi":51,"time":71.46614583333333,"velocity":0.3937007874015748},{"duration":0.05859375,"midi":68,"time":71.47786458333333,"velocity":0.3937007874015748},{"duration":0.057291666666671404,"midi":61,"time":71.48958333333333,"velocity":0.3937007874015748},{"duration":0.057291666666671404,"midi":50,"time":71.48958333333333,"velocity":0.3937007874015748},{"duration":0.055989583333328596,"midi":74,"time":71.50260416666667,"velocity":0.3937007874015748},{"duration":0.057291666666671404,"midi":34,"time":71.5234375,"velocity":0.3937007874015748},{"duration":0.4231770833333286,"midi":69,"time":71.5234375,"velocity":0.3937007874015748},{"duration":0.171875,"midi":65,"time":71.5234375,"velocity":0.3937007874015748},{"duration":0.171875,"midi":46,"time":71.5234375,"velocity":0.3937007874015748},{"duration":0.057291666666671404,"midi":91,"time":71.546875,"velocity":0.3937007874015748},{"duration":0.1731770833333286,"midi":62,"time":71.55729166666667,"velocity":0.3937007874015748},{"duration":0.05859375,"midi":53,"time":71.56770833333333,"velocity":0.3937007874015748},{"duration":0.05859375,"midi":76,"time":71.56770833333333,"velocity":0.3937007874015748},{"duration":0.05859375,"midi":34,"time":71.56770833333333,"velocity":0.3937007874015748},{"duration":0.05729166666665719,"midi":88,"time":71.58072916666667,"velocity":0.3937007874015748},{"duration":0.05859375,"midi":76,"time":71.63671875,"velocity":0.3937007874015748},{"duration":0.059895833333328596,"midi":89,"time":71.6484375,"velocity":0.3937007874015748},{"duration":0.059895833333328596,"midi":34,"time":71.66015625,"velocity":0.3937007874015748},{"duration":0.1770833333333286,"midi":88,"time":71.66015625,"velocity":0.3937007874015748},{"duration":0.059895833333328596,"midi":64,"time":71.68229166666667,"velocity":0.3937007874015748},{"duration":0.1770833333333286,"midi":88,"time":71.68229166666667,"velocity":0.3937007874015748},{"duration":0.059895833333328596,"midi":46,"time":71.6953125,"velocity":0.3937007874015748},{"duration":0.059895833333328596,"midi":34,"time":71.73046875,"velocity":0.3937007874015748},{"duration":0.1770833333333286,"midi":46,"time":71.73046875,"velocity":0.3937007874015748},{"duration":0.059895833333328596,"midi":63,"time":71.7421875,"velocity":0.3937007874015748},{"duration":0.17578125,"midi":93,"time":71.7421875,"velocity":0.3937007874015748},{"duration":0.059895833333328596,"midi":59,"time":71.77734375,"velocity":0.3937007874015748},{"duration":0.059895833333328596,"midi":77,"time":71.77734375,"velocity":0.3937007874015748},{"duration":0.17578125,"midi":34,"time":71.77734375,"velocity":0.3937007874015748},{"duration":0.17578125,"midi":64,"time":71.82421875,"velocity":0.3937007874015748},{"duration":0.17578125,"midi":53,"time":71.82421875,"velocity":0.3937007874015748},{"duration":0.059895833333328596,"midi":88,"time":71.8359375,"velocity":0.3937007874015748},{"duration":0.059895833333328596,"midi":92,"time":71.84765625,"velocity":0.3937007874015748},{"duration":0.4244791666666714,"midi":83,"time":71.859375,"velocity":0.3937007874015748},{"duration":0.17578125,"midi":88,"time":71.859375,"velocity":0.3937007874015748},{"duration":0.05859375,"midi":93,"time":71.87109375,"velocity":0.3937007874015748},{"duration":0.05859375,"midi":90,"time":71.87109375,"velocity":0.3937007874015748},{"duration":0.2994791666666714,"midi":76,"time":71.88411458333333,"velocity":0.3937007874015748},{"duration":0.17578125,"midi":74,"time":71.95182291666667,"velocity":0.3937007874015748},{"duration":0.059895833333328596,"midi":65,"time":72,"velocity":0.3937007874015748},{"duration":0.1744791666666714,"midi":92,"time":72,"velocity":0.3937007874015748},{"duration":0.059895833333328596,"midi":64,"time":72.02213541666667,"velocity":0.3937007874015748},{"duration":0.059895833333328596,"midi":41,"time":72.03515625,"velocity":0.3937007874015748},{"duration":0.1744791666666714,"midi":90,"time":72.03515625,"velocity":0.3937007874015748},{"duration":0.05859375,"midi":60,"time":72.046875,"velocity":0.3937007874015748},{"duration":0.05859375,"midi":63,"time":72.06901041666667,"velocity":0.3937007874015748},{"duration":0.1744791666666714,"midi":53,"time":72.08203125,"velocity":0.3937007874015748},{"duration":0.05859375,"midi":36,"time":72.08203125,"velocity":0.3937007874015748},{"duration":0.05859375,"midi":63,"time":72.10416666666667,"velocity":0.3937007874015748},{"duration":0.1744791666666572,"midi":46,"time":72.11588541666667,"velocity":0.3937007874015748},{"duration":0.1744791666666572,"midi":65,"time":72.12760416666667,"velocity":0.3937007874015748},{"duration":0.05859375,"midi":34,"time":72.12760416666667,"velocity":0.3937007874015748},{"duration":0.05859375,"midi":34,"time":72.16276041666667,"velocity":0.3937007874015748},{"duration":0.05859375,"midi":62,"time":72.16276041666667,"velocity":0.3937007874015748},{"duration":0.1731770833333428,"midi":69,"time":72.17317708333333,"velocity":0.3937007874015748},{"duration":0.05989583333334281,"midi":34,"time":72.19661458333333,"velocity":0.3937007874015748},{"duration":0.05989583333334281,"midi":47,"time":72.19661458333333,"velocity":0.3937007874015748},{"duration":0.171875,"midi":76,"time":72.20833333333333,"velocity":0.3937007874015748},{"duration":0.05859375,"midi":63,"time":72.22005208333333,"velocity":0.3937007874015748},{"duration":0.05859375,"midi":89,"time":72.24348958333333,"velocity":0.3937007874015748},{"duration":0.05859375,"midi":67,"time":72.24348958333333,"velocity":0.3937007874015748},{"duration":0.057291666666671404,"midi":44,"time":72.25520833333333,"velocity":0.3937007874015748},{"duration":0.057291666666671404,"midi":94,"time":72.25520833333333,"velocity":0.3937007874015748},{"duration":0.7942708333333428,"midi":53,"time":72.25520833333333,"velocity":0.3937007874015748},{"duration":0.171875,"midi":82,"time":72.26692708333333,"velocity":0.3937007874015748},{"duration":0.057291666666671404,"midi":37,"time":72.26692708333333,"velocity":0.3937007874015748},{"duration":0.057291666666671404,"midi":45,"time":72.26692708333333,"velocity":0.3937007874015748},{"duration":0.7942708333333428,"midi":46,"time":72.27864583333333,"velocity":0.3937007874015748},{"duration":0.057291666666671404,"midi":75,"time":72.27864583333333,"velocity":0.3937007874015748},{"duration":0.057291666666671404,"midi":90,"time":72.27864583333333,"velocity":0.3937007874015748},{"duration":0.057291666666671404,"midi":68,"time":72.27864583333333,"velocity":0.3937007874015748},{"duration":0.057291666666671404,"midi":32,"time":72.2890625,"velocity":0.3937007874015748},{"duration":0.057291666666671404,"midi":35,"time":72.3125,"velocity":0.3937007874015748},{"duration":0.171875,"midi":69,"time":72.3125,"velocity":0.3937007874015748},{"duration":0.171875,"midi":74,"time":72.32291666666667,"velocity":0.3937007874015748},{"duration":0.171875,"midi":90,"time":72.35677083333333,"velocity":0.3937007874015748},{"duration":0.171875,"midi":95,"time":72.35677083333333,"velocity":0.3937007874015748},{"duration":0.05859375,"midi":76,"time":72.36848958333333,"velocity":0.3937007874015748},{"duration":0.05859375,"midi":88,"time":72.39192708333333,"velocity":0.3937007874015748},{"duration":0.1705729166666714,"midi":92,"time":72.39192708333333,"velocity":0.3937007874015748},{"duration":0.05859375,"midi":64,"time":72.39192708333333,"velocity":0.3937007874015748},{"duration":0.057291666666671404,"midi":68,"time":72.40364583333333,"velocity":0.3937007874015748},{"duration":0.057291666666671404,"midi":86,"time":72.40364583333333,"velocity":0.3937007874015748},{"duration":0.1705729166666714,"midi":83,"time":72.40364583333333,"velocity":0.3937007874015748},{"duration":0.057291666666671404,"midi":77,"time":72.42708333333333,"velocity":0.3937007874015748},{"duration":0.057291666666671404,"midi":34,"time":72.42708333333333,"velocity":0.3937007874015748},{"duration":0.057291666666671404,"midi":60,"time":72.4375,"velocity":0.3937007874015748},{"duration":0.057291666666671404,"midi":34,"time":72.4609375,"velocity":0.3937007874015748},{"duration":0.05729166666665719,"midi":63,"time":72.47135416666667,"velocity":0.3937007874015748},{"duration":0.05729166666665719,"midi":64,"time":72.49479166666667,"velocity":0.3937007874015748},{"duration":0.171875,"midi":34,"time":72.50520833333333,"velocity":0.3937007874015748},{"duration":0.057291666666671404,"midi":63,"time":72.51692708333333,"velocity":0.3937007874015748},{"duration":0.05859375,"midi":64,"time":72.5390625,"velocity":0.3937007874015748},{"duration":0.05859375,"midi":74,"time":72.58463541666667,"velocity":0.3937007874015748},{"duration":0.05859375,"midi":64,"time":72.60807291666667,"velocity":0.3937007874015748},{"duration":0.05859375,"midi":60,"time":72.63020833333333,"velocity":0.3937007874015748},{"duration":0.05859375,"midi":77,"time":72.64322916666667,"velocity":0.3937007874015748},{"duration":0.1770833333333428,"midi":34,"time":72.65364583333333,"velocity":0.3937007874015748},{"duration":0.05859375,"midi":74,"time":72.66536458333333,"velocity":0.3937007874015748},{"duration":0.059895833333328596,"midi":64,"time":72.67578125,"velocity":0.3937007874015748},{"duration":0.05989583333334281,"midi":63,"time":72.68880208333333,"velocity":0.3937007874015748},{"duration":0.17578125,"midi":74,"time":72.80598958333333,"velocity":0.3937007874015748},{"duration":0.05989583333334281,"midi":61,"time":72.81770833333333,"velocity":0.3937007874015748},{"duration":0.1744791666666572,"midi":34,"time":72.84244791666667,"velocity":0.3937007874015748},{"duration":0.05859375,"midi":62,"time":72.84244791666667,"velocity":0.3937007874015748},{"duration":0.17578125,"midi":62,"time":72.87760416666667,"velocity":0.3937007874015748},{"duration":0.05859375,"midi":69,"time":72.88802083333333,"velocity":0.3937007874015748},{"duration":0.059895833333328596,"midi":61,"time":72.9453125,"velocity":0.3937007874015748},{"duration":0.05989583333334281,"midi":62,"time":72.99348958333333,"velocity":0.3937007874015748},{"duration":0.05989583333334281,"midi":89,"time":73.02864583333333,"velocity":0.3937007874015748},{"duration":0.05989583333334281,"midi":60,"time":73.02864583333333,"velocity":0.3937007874015748},{"duration":0.05989583333334281,"midi":68,"time":73.02864583333333,"velocity":0.3937007874015748},{"duration":0.05989583333334281,"midi":51,"time":73.04036458333333,"velocity":0.3937007874015748},{"duration":0.05989583333334281,"midi":81,"time":73.05208333333333,"velocity":0.3937007874015748},{"duration":0.05989583333334281,"midi":50,"time":73.05208333333333,"velocity":0.3937007874015748},{"duration":0.05989583333334281,"midi":77,"time":73.05208333333333,"velocity":0.3937007874015748},{"duration":0.30078125,"midi":70,"time":73.0625,"velocity":0.3937007874015748},{"duration":0.17578125,"midi":34,"time":73.07552083333333,"velocity":0.3937007874015748},{"duration":0.17578125,"midi":65,"time":73.12239583333333,"velocity":0.3937007874015748},{"duration":0.05989583333334281,"midi":61,"time":73.12239583333333,"velocity":0.3937007874015748},{"duration":0.17578125,"midi":53,"time":73.12239583333333,"velocity":0.3937007874015748},{"duration":0.1744791666666714,"midi":62,"time":73.16927083333333,"velocity":0.3937007874015748},{"duration":0.4244791666666714,"midi":65,"time":73.25,"velocity":0.3937007874015748},{"duration":0.059895833333328596,"midi":34,"time":73.25,"velocity":0.3937007874015748},{"duration":0.05859375,"midi":46,"time":73.28515625,"velocity":0.3937007874015748},{"duration":0.2981770833333428,"midi":34,"time":73.30989583333333,"velocity":0.3937007874015748},{"duration":0.05859375,"midi":74,"time":73.3203125,"velocity":0.3937007874015748},{"duration":0.059895833333328596,"midi":53,"time":73.35416666666667,"velocity":0.3937007874015748},{"duration":0.30078125,"midi":62,"time":73.38932291666667,"velocity":0.3937007874015748},{"duration":0.1744791666666572,"midi":57,"time":73.43619791666667,"velocity":0.3937007874015748},{"duration":0.05859375,"midi":70,"time":73.44791666666667,"velocity":0.3937007874015748},{"duration":0.1744791666666572,"midi":93,"time":73.47135416666667,"velocity":0.3937007874015748},{"duration":0.42578125,"midi":74,"time":73.47135416666667,"velocity":0.3937007874015748},{"duration":0.05859375,"midi":84,"time":73.52994791666667,"velocity":0.3937007874015748},{"duration":0.3033854166666714,"midi":70,"time":73.55208333333333,"velocity":0.3937007874015748},{"duration":0.059895833333328596,"midi":57,"time":73.59765625,"velocity":0.3937007874015748},{"duration":0.3020833333333286,"midi":34,"time":73.59765625,"velocity":0.3937007874015748},{"duration":0.1770833333333428,"midi":81,"time":73.64583333333333,"velocity":0.3937007874015748},{"duration":0.05989583333334281,"midi":57,"time":73.65755208333333,"velocity":0.3937007874015748},{"duration":0.059895833333328596,"midi":63,"time":73.66796875,"velocity":0.3937007874015748},{"duration":0.05859375,"midi":82,"time":73.70442708333333,"velocity":0.3937007874015748},{"duration":0.17578125,"midi":62,"time":73.71614583333333,"velocity":0.3937007874015748},{"duration":0.05859375,"midi":93,"time":73.71614583333333,"velocity":0.3937007874015748},{"duration":0.17578125,"midi":81,"time":73.72786458333333,"velocity":0.3937007874015748},{"duration":0.171875,"midi":81,"time":73.80989583333333,"velocity":0.3937007874015748},{"duration":0.061197916666671404,"midi":69,"time":73.80989583333333,"velocity":0.3937007874015748},{"duration":0.05989583333334281,"midi":57,"time":73.82161458333333,"velocity":0.3937007874015748},{"duration":0.05989583333334281,"midi":63,"time":73.82161458333333,"velocity":0.3937007874015748},{"duration":0.05859375,"midi":90,"time":73.83333333333333,"velocity":0.3937007874015748},{"duration":0.05859375,"midi":41,"time":73.83333333333333,"velocity":0.3937007874015748},{"duration":0.171875,"midi":72,"time":73.83333333333333,"velocity":0.3937007874015748},{"duration":0.05729166666665719,"midi":37,"time":73.84635416666667,"velocity":0.3937007874015748},{"duration":0.05729166666665719,"midi":60,"time":73.84635416666667,"velocity":0.3937007874015748},{"duration":0.055989583333328596,"midi":53,"time":73.85807291666667,"velocity":0.3937007874015748},{"duration":0.055989583333328596,"midi":29,"time":73.88151041666667,"velocity":0.3937007874015748},{"duration":0.055989583333328596,"midi":69,"time":73.88151041666667,"velocity":0.3937007874015748},{"duration":0.055989583333328596,"midi":94,"time":73.88151041666667,"velocity":0.3937007874015748},{"duration":0.05598958333334281,"midi":75,"time":73.89192708333333,"velocity":0.3937007874015748},{"duration":0.7994791666666714,"midi":45,"time":73.89192708333333,"velocity":0.3937007874015748},{"duration":0.05598958333334281,"midi":82,"time":73.89192708333333,"velocity":0.3937007874015748},{"duration":0.171875,"midi":64,"time":73.91276041666667,"velocity":0.3937007874015748},{"duration":0.296875,"midi":95,"time":73.91276041666667,"velocity":0.3937007874015748},{"duration":0.4231770833333286,"midi":90,"time":73.91276041666667,"velocity":0.3937007874015748},{"duration":0.1731770833333286,"midi":52,"time":73.92447916666667,"velocity":0.3937007874015748},{"duration":0.4244791666666572,"midi":76,"time":73.92447916666667,"velocity":0.3937007874015748},{"duration":0.4244791666666572,"midi":83,"time":73.93619791666667,"velocity":0.3937007874015748},{"duration":0.1731770833333286,"midi":81,"time":73.93619791666667,"velocity":0.3937007874015748},{"duration":0.1731770833333428,"midi":86,"time":73.94661458333333,"velocity":0.3937007874015748},{"duration":0.1731770833333428,"midi":67,"time":73.94661458333333,"velocity":0.3937007874015748},{"duration":0.05989583333334281,"midi":33,"time":73.95833333333333,"velocity":0.3937007874015748},{"duration":0.05989583333334281,"midi":74,"time":73.95833333333333,"velocity":0.3937007874015748},{"duration":0.05859375,"midi":60,"time":73.99348958333333,"velocity":0.3937007874015748},{"duration":0.1731770833333428,"midi":88,"time":74.01692708333333,"velocity":0.3937007874015748},{"duration":0.057291666666671404,"midi":85,"time":74.01692708333333,"velocity":0.3937007874015748},{"duration":0.42578125,"midi":72,"time":74.02864583333333,"velocity":0.3937007874015748},{"duration":0.2994791666666714,"midi":64,"time":74.02864583333333,"velocity":0.3937007874015748},{"duration":0.05859375,"midi":74,"time":74.05078125,"velocity":0.3937007874015748},{"duration":0.1744791666666714,"midi":92,"time":74.07421875,"velocity":0.3937007874015748},{"duration":0.059895833333328596,"midi":33,"time":74.08463541666667,"velocity":0.3937007874015748},{"duration":0.05859375,"midi":69,"time":74.109375,"velocity":0.3937007874015748},{"duration":0.17578125,"midi":88,"time":74.11979166666667,"velocity":0.3937007874015748},{"duration":0.17578125,"midi":33,"time":74.15494791666667,"velocity":0.3937007874015748},{"duration":0.05989583333334281,"midi":86,"time":74.21223958333333,"velocity":0.3937007874015748},{"duration":0.1770833333333428,"midi":33,"time":74.23567708333333,"velocity":0.3937007874015748},{"duration":0.1770833333333428,"midi":67,"time":74.24739583333333,"velocity":0.3937007874015748},{"duration":0.1770833333333428,"midi":64,"time":74.31770833333333,"velocity":0.3937007874015748},{"duration":0.17578125,"midi":72,"time":74.41145833333333,"velocity":0.3937007874015748},{"duration":0.17578125,"midi":84,"time":74.42447916666667,"velocity":0.3937007874015748},{"duration":0.059895833333328596,"midi":83,"time":74.42447916666667,"velocity":0.3937007874015748},{"duration":0.17578125,"midi":90,"time":74.42447916666667,"velocity":0.3937007874015748},{"duration":0.17578125,"midi":74,"time":74.42447916666667,"velocity":0.3937007874015748},{"duration":0.059895833333328596,"midi":76,"time":74.42447916666667,"velocity":0.3937007874015748},{"duration":0.17578125,"midi":93,"time":74.43619791666667,"velocity":0.3937007874015748},{"duration":0.17578125,"midi":64,"time":74.43619791666667,"velocity":0.3937007874015748},{"duration":0.1770833333333286,"midi":88,"time":74.45963541666667,"velocity":0.3937007874015748},{"duration":0.1770833333333286,"midi":33,"time":74.45963541666667,"velocity":0.3937007874015748},{"duration":0.1770833333333286,"midi":81,"time":74.47135416666667,"velocity":0.3937007874015748},{"duration":0.1770833333333286,"midi":52,"time":74.50651041666667,"velocity":0.3937007874015748},{"duration":0.1770833333333286,"midi":62,"time":74.50651041666667,"velocity":0.3937007874015748},{"duration":0.3020833333333428,"midi":72,"time":74.56380208333333,"velocity":0.3937007874015748},{"duration":0.06119791666665719,"midi":51,"time":74.61197916666667,"velocity":0.3937007874015748},{"duration":0.06119791666665719,"midi":78,"time":74.61197916666667,"velocity":0.3937007874015748},{"duration":0.06119791666665719,"midi":76,"time":74.61197916666667,"velocity":0.3937007874015748},{"duration":0.059895833333328596,"midi":69,"time":74.62369791666667,"velocity":0.3937007874015748},{"duration":0.059895833333328596,"midi":64,"time":74.62369791666667,"velocity":0.3937007874015748},{"duration":0.05859375,"midi":77,"time":74.63541666666667,"velocity":0.3937007874015748},{"duration":0.05859375,"midi":75,"time":74.63541666666667,"velocity":0.3937007874015748},{"duration":0.057291666666671404,"midi":74,"time":74.66015625,"velocity":0.3937007874015748},{"duration":0.055989583333328596,"midi":61,"time":74.671875,"velocity":0.3937007874015748},{"duration":0.05729166666665719,"midi":84,"time":74.68229166666667,"velocity":0.3937007874015748},{"duration":0.05729166666665719,"midi":52,"time":74.68229166666667,"velocity":0.3937007874015748},{"duration":0.17578125,"midi":45,"time":74.69401041666667,"velocity":0.3937007874015748},{"duration":0.17578125,"midi":64,"time":74.69401041666667,"velocity":0.3937007874015748},{"duration":0.17578125,"midi":33,"time":74.72786458333333,"velocity":0.3937007874015748},{"duration":0.17578125,"midi":77,"time":74.78515625,"velocity":0.3937007874015748},{"duration":0.061197916666671404,"midi":65,"time":74.80859375,"velocity":0.3937007874015748},{"duration":0.17578125,"midi":95,"time":74.8203125,"velocity":0.3937007874015748},{"duration":0.4244791666666714,"midi":45,"time":74.83203125,"velocity":0.3937007874015748},{"duration":0.05859375,"midi":88,"time":74.84505208333333,"velocity":0.3937007874015748},{"duration":0.05859375,"midi":92,"time":74.84505208333333,"velocity":0.3937007874015748},{"duration":0.1744791666666714,"midi":64,"time":74.85677083333333,"velocity":0.3937007874015748},{"duration":0.05859375,"midi":33,"time":74.85677083333333,"velocity":0.3937007874015748},{"duration":0.1744791666666714,"midi":90,"time":74.86848958333333,"velocity":0.3937007874015748},{"duration":0.1744791666666714,"midi":67,"time":74.86848958333333,"velocity":0.3937007874015748},{"duration":0.2981770833333428,"midi":72,"time":74.88020833333333,"velocity":0.3937007874015748},{"duration":0.05859375,"midi":92,"time":74.90234375,"velocity":0.3937007874015748},{"duration":0.1744791666666714,"midi":33,"time":74.9375,"velocity":0.3937007874015748},{"duration":0.059895833333328596,"midi":63,"time":74.98307291666667,"velocity":0.3937007874015748},{"duration":0.05859375,"midi":64,"time":75.0078125,"velocity":0.3937007874015748},{"duration":0.1744791666666572,"midi":33,"time":75.05338541666667,"velocity":0.3937007874015748},{"duration":0.05859375,"midi":55,"time":75.05338541666667,"velocity":0.3937007874015748},{"duration":0.05859375,"midi":76,"time":75.07682291666667,"velocity":0.3937007874015748},{"duration":0.05859375,"midi":64,"time":75.11197916666667,"velocity":0.3937007874015748},{"duration":0.17578125,"midi":64,"time":75.1796875,"velocity":0.3937007874015748},{"duration":0.059895833333328596,"midi":75,"time":75.203125,"velocity":0.3937007874015748},{"duration":0.059895833333328596,"midi":77,"time":75.203125,"velocity":0.3937007874015748},{"duration":0.059895833333328596,"midi":73,"time":75.203125,"velocity":0.3937007874015748},{"duration":0.05859375,"midi":70,"time":75.21484375,"velocity":0.3937007874015748},{"duration":0.05859375,"midi":37,"time":75.22786458333333,"velocity":0.3937007874015748},{"duration":0.05859375,"midi":29,"time":75.25,"velocity":0.3937007874015748},{"duration":0.05859375,"midi":84,"time":75.26302083333333,"velocity":0.3937007874015748},{"duration":0.1770833333333286,"midi":45,"time":75.2734375,"velocity":0.3937007874015748},{"duration":0.1770833333333286,"midi":64,"time":75.29557291666667,"velocity":0.3937007874015748},{"duration":0.3033854166666714,"midi":72,"time":75.3671875,"velocity":0.3937007874015748},{"duration":0.05989583333334281,"midi":62,"time":75.38020833333333,"velocity":0.3937007874015748},{"duration":0.059895833333328596,"midi":76,"time":75.40234375,"velocity":0.3937007874015748},{"duration":0.17578125,"midi":64,"time":75.4140625,"velocity":0.3937007874015748},{"duration":0.05859375,"midi":60,"time":75.42708333333333,"velocity":0.3937007874015748},{"duration":0.05859375,"midi":37,"time":75.43880208333333,"velocity":0.3937007874015748},{"duration":0.17578125,"midi":88,"time":75.43880208333333,"velocity":0.3937007874015748},{"duration":0.4283854166666714,"midi":57,"time":75.44921875,"velocity":0.3937007874015748},{"duration":0.1770833333333286,"midi":95,"time":75.44921875,"velocity":0.3937007874015748},{"duration":0.059895833333328596,"midi":45,"time":75.484375,"velocity":0.3937007874015748},{"duration":0.3020833333333286,"midi":45,"time":75.51953125,"velocity":0.3937007874015748},{"duration":0.4270833333333286,"midi":93,"time":75.56640625,"velocity":0.3937007874015748},{"duration":0.5546875,"midi":77,"time":75.56640625,"velocity":0.3937007874015748},{"duration":0.4270833333333286,"midi":84,"time":75.56640625,"velocity":0.3937007874015748},{"duration":0.3020833333333286,"midi":89,"time":75.58984375,"velocity":0.3937007874015748},{"duration":0.1770833333333286,"midi":87,"time":75.58984375,"velocity":0.3937007874015748},{"duration":0.1770833333333286,"midi":65,"time":75.6015625,"velocity":0.3937007874015748},{"duration":0.17578125,"midi":91,"time":75.66145833333333,"velocity":0.3937007874015748},{"duration":0.17578125,"midi":33,"time":75.68489583333333,"velocity":0.3937007874015748},{"duration":0.05859375,"midi":86,"time":75.68489583333333,"velocity":0.3937007874015748},{"duration":0.4270833333333428,"midi":87,"time":75.72005208333333,"velocity":0.3937007874015748},{"duration":0.05859375,"midi":64,"time":75.74348958333333,"velocity":0.3937007874015748},{"duration":0.059895833333328596,"midi":71,"time":75.80078125,"velocity":0.3937007874015748},{"duration":0.059895833333328596,"midi":64,"time":75.80078125,"velocity":0.3937007874015748},{"duration":0.059895833333328596,"midi":81,"time":75.80078125,"velocity":0.3937007874015748},{"duration":0.059895833333328596,"midi":74,"time":75.8125,"velocity":0.3937007874015748},{"duration":0.4296875,"midi":65,"time":75.82421875,"velocity":0.3937007874015748},{"duration":0.059895833333328596,"midi":37,"time":75.82421875,"velocity":0.3937007874015748},{"duration":0.05859375,"midi":91,"time":75.84895833333333,"velocity":0.3937007874015748},{"duration":0.1744791666666714,"midi":57,"time":75.86067708333333,"velocity":0.3937007874015748},{"duration":0.17578125,"midi":45,"time":75.87109375,"velocity":0.3937007874015748},{"duration":0.3033854166666714,"midi":72,"time":75.90625,"velocity":0.3937007874015748},{"duration":0.1770833333333286,"midi":91,"time":75.9296875,"velocity":0.3937007874015748},{"duration":0.1770833333333286,"midi":84,"time":76,"velocity":0.3937007874015748},{"duration":0.30078125,"midi":93,"time":76.01171875,"velocity":0.3937007874015748},{"duration":0.059895833333328596,"midi":86,"time":76.01171875,"velocity":0.3937007874015748},{"duration":0.1770833333333286,"midi":95,"time":76.01171875,"velocity":0.3937007874015748},{"duration":0.1783854166666714,"midi":57,"time":76.03515625,"velocity":0.3937007874015748},{"duration":0.1783854166666714,"midi":88,"time":76.03515625,"velocity":0.3937007874015748},{"duration":0.1783854166666714,"midi":45,"time":76.046875,"velocity":0.3937007874015748},{"duration":0.059895833333328596,"midi":76,"time":76.10546875,"velocity":0.3937007874015748},{"duration":0.061197916666671404,"midi":76,"time":76.17578125,"velocity":0.3937007874015748},{"duration":0.05989583333334281,"midi":68,"time":76.20052083333333,"velocity":0.3937007874015748},{"duration":0.05859375,"midi":51,"time":76.21223958333333,"velocity":0.3937007874015748},{"duration":0.05859375,"midi":60,"time":76.21223958333333,"velocity":0.3937007874015748},{"duration":0.05859375,"midi":71,"time":76.21223958333333,"velocity":0.3937007874015748},{"duration":0.05859375,"midi":74,"time":76.21223958333333,"velocity":0.3937007874015748},{"duration":0.05859375,"midi":77,"time":76.21223958333333,"velocity":0.3937007874015748},{"duration":0.057291666666671404,"midi":42,"time":76.22395833333333,"velocity":0.3937007874015748},{"duration":0.05729166666665719,"midi":38,"time":76.23697916666667,"velocity":0.3937007874015748},{"duration":0.057291666666671404,"midi":70,"time":76.24739583333333,"velocity":0.3937007874015748},{"duration":0.057291666666671404,"midi":37,"time":76.24739583333333,"velocity":0.3937007874015748},{"duration":0.1731770833333428,"midi":57,"time":76.24739583333333,"velocity":0.3937007874015748},{"duration":0.057291666666671404,"midi":72,"time":76.27083333333333,"velocity":0.3937007874015748},{"duration":0.05859375,"midi":28,"time":76.28125,"velocity":0.3937007874015748},{"duration":0.05859375,"midi":63,"time":76.30338541666667,"velocity":0.3937007874015748},{"duration":0.05859375,"midi":41,"time":76.30338541666667,"velocity":0.3937007874015748},{"duration":0.059895833333328596,"midi":76,"time":76.35026041666667,"velocity":0.3937007874015748},{"duration":0.05859375,"midi":65,"time":76.36197916666667,"velocity":0.3937007874015748},{"duration":0.05859375,"midi":64,"time":76.38541666666667,"velocity":0.3937007874015748},{"duration":0.05729166666665719,"midi":89,"time":76.39713541666667,"velocity":0.3937007874015748},{"duration":0.671875,"midi":88,"time":76.39713541666667,"velocity":0.3937007874015748},{"duration":0.055989583333328596,"midi":60,"time":76.40885416666667,"velocity":0.3937007874015748},{"duration":0.057291666666671404,"midi":63,"time":76.44270833333333,"velocity":0.3937007874015748},{"duration":0.05859375,"midi":70,"time":76.453125,"velocity":0.3937007874015748},{"duration":0.05859375,"midi":60,"time":76.453125,"velocity":0.3937007874015748},{"duration":0.55078125,"midi":64,"time":76.46484375,"velocity":0.3937007874015748},{"duration":0.059895833333328596,"midi":57,"time":76.47526041666667,"velocity":0.3937007874015748},{"duration":0.1744791666666572,"midi":95,"time":76.58072916666667,"velocity":0.3937007874015748},{"duration":0.42578125,"midi":57,"time":76.61588541666667,"velocity":0.3937007874015748},{"duration":0.1744791666666572,"midi":72,"time":76.61588541666667,"velocity":0.3937007874015748},{"duration":0.1744791666666572,"midi":86,"time":76.61588541666667,"velocity":0.3937007874015748},{"duration":0.05989583333334281,"midi":45,"time":76.63802083333333,"velocity":0.3937007874015748},{"duration":0.05859375,"midi":33,"time":76.68489583333333,"velocity":0.3937007874015748},{"duration":0.1744791666666714,"midi":45,"time":76.70833333333333,"velocity":0.3937007874015748},{"duration":0.05989583333334281,"midi":67,"time":76.76692708333333,"velocity":0.3937007874015748},{"duration":0.1744791666666714,"midi":83,"time":76.80078125,"velocity":0.3937007874015748},{"duration":0.05859375,"midi":53,"time":76.81380208333333,"velocity":0.3937007874015748},{"duration":0.05859375,"midi":67,"time":76.8359375,"velocity":0.3937007874015748},{"duration":0.1744791666666572,"midi":53,"time":76.91666666666667,"velocity":0.3937007874015748},{"duration":0.06119791666665719,"midi":63,"time":76.96354166666667,"velocity":0.3937007874015748},{"duration":0.1744791666666572,"midi":74,"time":76.97526041666667,"velocity":0.3937007874015748},{"duration":0.059895833333328596,"midi":77,"time":76.98697916666667,"velocity":0.3937007874015748},{"duration":0.05859375,"midi":42,"time":77,"velocity":0.3937007874015748},{"duration":0.057291666666671404,"midi":37,"time":77.01171875,"velocity":0.3937007874015748},{"duration":0.057291666666671404,"midi":64,"time":77.01171875,"velocity":0.3937007874015748},{"duration":0.296875,"midi":69,"time":77.01171875,"velocity":0.3937007874015748},{"duration":0.057291666666671404,"midi":36,"time":77.0234375,"velocity":0.3937007874015748},{"duration":0.057291666666671404,"midi":63,"time":77.03515625,"velocity":0.3937007874015748},{"duration":0.67578125,"midi":50,"time":77.046875,"velocity":0.3937007874015748},{"duration":0.2981770833333286,"midi":62,"time":77.05729166666667,"velocity":0.3937007874015748},{"duration":0.6770833333333428,"midi":57,"time":77.06770833333333,"velocity":0.3937007874015748},{"duration":0.05859375,"midi":40,"time":77.20703125,"velocity":0.3937007874015748},{"duration":0.17578125,"midi":65,"time":77.27604166666667,"velocity":0.3937007874015748},{"duration":0.3020833333333286,"midi":62,"time":77.27604166666667,"velocity":0.3937007874015748},{"duration":0.1770833333333428,"midi":74,"time":77.48567708333333,"velocity":0.3937007874015748},{"duration":0.05989583333334281,"midi":63,"time":77.48567708333333,"velocity":0.3937007874015748},{"duration":0.1770833333333286,"midi":65,"time":77.49869791666667,"velocity":0.3937007874015748},{"duration":0.059895833333328596,"midi":93,"time":77.58072916666667,"velocity":0.3937007874015748},{"duration":0.1744791666666572,"midi":50,"time":77.62760416666667,"velocity":0.3937007874015748},{"duration":0.06119791666665719,"midi":65,"time":77.65104166666667,"velocity":0.3937007874015748},{"duration":0.059895833333328596,"midi":63,"time":77.67447916666667,"velocity":0.3937007874015748},{"duration":0.05859375,"midi":74,"time":77.68619791666667,"velocity":0.3937007874015748},{"duration":0.171875,"midi":65,"time":77.69921875,"velocity":0.3937007874015748},{"duration":0.057291666666671404,"midi":62,"time":77.69921875,"velocity":0.3937007874015748},{"duration":0.171875,"midi":57,"time":77.7109375,"velocity":0.3937007874015748},{"duration":0.05859375,"midi":85,"time":77.75520833333333,"velocity":0.3937007874015748},{"duration":0.05859375,"midi":62,"time":77.76692708333333,"velocity":0.3937007874015748},{"duration":0.05859375,"midi":49,"time":77.80078125,"velocity":0.3937007874015748},{"duration":0.05859375,"midi":51,"time":77.82421875,"velocity":0.3937007874015748},{"duration":0.059895833333328596,"midi":61,"time":77.83463541666667,"velocity":0.3937007874015748},{"duration":0.059895833333328596,"midi":50,"time":77.83463541666667,"velocity":0.3937007874015748},{"duration":0.1744791666666714,"midi":57,"time":77.84765625,"velocity":0.3937007874015748},{"duration":0.059895833333328596,"midi":63,"time":77.86979166666667,"velocity":0.3937007874015748},{"duration":0.05859375,"midi":50,"time":77.8828125,"velocity":0.3937007874015748},{"duration":0.4231770833333286,"midi":62,"time":77.94010416666667,"velocity":0.3937007874015748},{"duration":0.05859375,"midi":51,"time":77.97526041666667,"velocity":0.3937007874015748},{"duration":0.1744791666666572,"midi":50,"time":77.99869791666667,"velocity":0.3937007874015748},{"duration":0.05859375,"midi":57,"time":78.02083333333333,"velocity":0.3937007874015748},{"duration":0.1744791666666714,"midi":81,"time":78.07942708333333,"velocity":0.3937007874015748},{"duration":0.2994791666666714,"midi":65,"time":78.1015625,"velocity":0.3937007874015748},{"duration":0.1744791666666714,"midi":69,"time":78.13671875,"velocity":0.3937007874015748},{"duration":0.1744791666666572,"midi":81,"time":78.25260416666667,"velocity":0.3937007874015748},{"duration":0.17578125,"midi":50,"time":78.42708333333333,"velocity":0.3937007874015748},{"duration":0.17578125,"midi":57,"time":78.42708333333333,"velocity":0.3937007874015748},{"duration":0.059895833333328596,"midi":65,"time":78.44921875,"velocity":0.3937007874015748},{"duration":0.05989583333334281,"midi":74,"time":78.46223958333333,"velocity":0.3937007874015748},{"duration":0.4231770833333428,"midi":62,"time":78.55598958333333,"velocity":0.3937007874015748},{"duration":0.1744791666666714,"midi":81,"time":78.625,"velocity":0.3937007874015748},{"duration":0.6744791666666714,"midi":57,"time":78.63671875,"velocity":0.3937007874015748},{"duration":0.80078125,"midi":50,"time":78.63671875,"velocity":0.3937007874015748},{"duration":0.2994791666666572,"midi":65,"time":78.71744791666667,"velocity":0.3937007874015748},{"duration":0.1770833333333286,"midi":65,"time":79.24088541666667,"velocity":0.3937007874015748},{"duration":0.061197916666671404,"midi":69,"time":79.36848958333333,"velocity":0.3937007874015748},{"duration":0.061197916666671404,"midi":58,"time":79.36848958333333,"velocity":0.3937007874015748},{"duration":0.059895833333328596,"midi":61,"time":79.38151041666667,"velocity":0.3937007874015748},{"duration":0.059895833333328596,"midi":52,"time":79.39322916666667,"velocity":0.3937007874015748},{"duration":0.059895833333328596,"midi":68,"time":79.39322916666667,"velocity":0.3937007874015748},{"duration":0.059895833333328596,"midi":78,"time":79.39322916666667,"velocity":0.3937007874015748},{"duration":0.05859375,"midi":60,"time":79.40494791666667,"velocity":0.3937007874015748},{"duration":0.057291666666671404,"midi":42,"time":79.4296875,"velocity":0.3937007874015748},{"duration":0.05859375,"midi":41,"time":79.44010416666667,"velocity":0.3937007874015748},{"duration":0.05859375,"midi":51,"time":79.44010416666667,"velocity":0.3937007874015748},{"duration":0.05859375,"midi":57,"time":79.44010416666667,"velocity":0.3937007874015748},{"duration":0.05859375,"midi":65,"time":79.46354166666667,"velocity":0.3937007874015748},{"duration":0.05989583333334281,"midi":40,"time":79.47395833333333,"velocity":0.3937007874015748},{"duration":0.1744791666666714,"midi":50,"time":79.47395833333333,"velocity":0.3937007874015748},{"duration":0.05859375,"midi":57,"time":79.48567708333333,"velocity":0.3937007874015748},{"duration":0.05859375,"midi":40,"time":79.54427083333333,"velocity":0.3937007874015748},{"duration":0.05859375,"midi":61,"time":79.54427083333333,"velocity":0.3937007874015748},{"duration":0.05859375,"midi":84,"time":79.5546875,"velocity":0.3937007874015748},{"duration":0.05859375,"midi":65,"time":79.5546875,"velocity":0.3937007874015748},{"duration":0.05859375,"midi":64,"time":79.58984375,"velocity":0.3937007874015748},{"duration":0.05859375,"midi":42,"time":79.58984375,"velocity":0.3937007874015748},{"duration":0.1744791666666714,"midi":50,"time":79.58984375,"velocity":0.3937007874015748},{"duration":0.1731770833333286,"midi":80,"time":79.6015625,"velocity":0.3937007874015748},{"duration":0.05859375,"midi":61,"time":79.6015625,"velocity":0.3937007874015748},{"duration":0.1731770833333286,"midi":85,"time":79.6015625,"velocity":0.3937007874015748},{"duration":0.1731770833333286,"midi":73,"time":79.61328125,"velocity":0.3937007874015748},{"duration":0.059895833333328596,"midi":60,"time":79.63541666666667,"velocity":0.3937007874015748},{"duration":0.05859375,"midi":42,"time":79.6484375,"velocity":0.3937007874015748},{"duration":0.05859375,"midi":57,"time":79.6484375,"velocity":0.3937007874015748},{"duration":0.05859375,"midi":41,"time":79.67057291666667,"velocity":0.3937007874015748},{"duration":0.05859375,"midi":65,"time":79.70572916666667,"velocity":0.3937007874015748},{"duration":0.05859375,"midi":50,"time":79.71614583333333,"velocity":0.3937007874015748},{"duration":0.05859375,"midi":74,"time":79.71614583333333,"velocity":0.3937007874015748},{"duration":0.05859375,"midi":81,"time":79.71614583333333,"velocity":0.3937007874015748},{"duration":0.546875,"midi":65,"time":79.75130208333333,"velocity":0.3937007874015748},{"duration":0.05859375,"midi":62,"time":79.76432291666667,"velocity":0.3937007874015748},{"duration":0.05859375,"midi":73,"time":79.76432291666667,"velocity":0.3937007874015748},{"duration":0.05859375,"midi":80,"time":79.76432291666667,"velocity":0.3937007874015748},{"duration":0.17578125,"midi":57,"time":79.77473958333333,"velocity":0.3937007874015748},{"duration":0.17578125,"midi":50,"time":79.796875,"velocity":0.3937007874015748},{"duration":0.17578125,"midi":89,"time":79.796875,"velocity":0.3937007874015748},{"duration":0.17578125,"midi":72,"time":79.80989583333333,"velocity":0.3937007874015748},{"duration":0.17578125,"midi":79,"time":79.80989583333333,"velocity":0.3937007874015748},{"duration":0.05859375,"midi":50,"time":79.99739583333333,"velocity":0.3937007874015748},{"duration":0.05859375,"midi":73,"time":80.01953125,"velocity":0.3937007874015748},{"duration":0.059895833333328596,"midi":72,"time":80.06510416666667,"velocity":0.3937007874015748},{"duration":0.17578125,"midi":58,"time":80.08854166666667,"velocity":0.3937007874015748},{"duration":0.059895833333328596,"midi":55,"time":80.10026041666667,"velocity":0.3937007874015748},{"duration":0.171875,"midi":71,"time":80.16015625,"velocity":0.3937007874015748},{"duration":0.059895833333328596,"midi":48,"time":80.16015625,"velocity":0.3937007874015748},{"duration":0.059895833333328596,"midi":78,"time":80.17057291666667,"velocity":0.3937007874015748},{"duration":0.171875,"midi":86,"time":80.18229166666667,"velocity":0.3937007874015748},{"duration":0.1705729166666714,"midi":76,"time":80.1953125,"velocity":0.3937007874015748},{"duration":0.05859375,"midi":37,"time":80.1953125,"velocity":0.3937007874015748},{"duration":0.057291666666671404,"midi":64,"time":80.20703125,"velocity":0.3937007874015748},{"duration":0.057291666666671404,"midi":59,"time":80.20703125,"velocity":0.3937007874015748},{"duration":0.057291666666671404,"midi":70,"time":80.23046875,"velocity":0.3937007874015748},{"duration":0.2942708333333286,"midi":84,"time":80.23046875,"velocity":0.3937007874015748},{"duration":0.057291666666671404,"midi":43,"time":80.23046875,"velocity":0.3937007874015748},{"duration":0.05729166666665719,"midi":50,"time":80.24088541666667,"velocity":0.3937007874015748},{"duration":0.059895833333328596,"midi":65,"time":80.24088541666667,"velocity":0.3937007874015748},{"duration":0.05729166666665719,"midi":42,"time":80.25260416666667,"velocity":0.3937007874015748},{"duration":0.05729166666665719,"midi":30,"time":80.26432291666667,"velocity":0.3937007874015748},{"duration":0.057291666666671404,"midi":59,"time":80.27473958333333,"velocity":0.3937007874015748},{"duration":0.171875,"midi":43,"time":80.27473958333333,"velocity":0.3937007874015748},{"duration":0.057291666666671404,"midi":71,"time":80.27473958333333,"velocity":0.3937007874015748},{"duration":0.3919270833333428,"midi":65,"time":80.28645833333333,"velocity":0.3937007874015748},{"duration":0.1614583333333286,"midi":70,"time":80.296875,"velocity":0.3937007874015748},{"duration":0.057291666666671404,"midi":83,"time":80.296875,"velocity":0.3937007874015748},{"duration":0.1614583333333286,"midi":50,"time":80.296875,"velocity":0.3937007874015748},{"duration":0.296875,"midi":72,"time":80.296875,"velocity":0.3937007874015748},{"duration":0.2955729166666714,"midi":79,"time":80.30989583333333,"velocity":0.3937007874015748},{"duration":0.057291666666671404,"midi":60,"time":80.3203125,"velocity":0.3937007874015748},{"duration":0.05859375,"midi":86,"time":80.34244791666667,"velocity":0.3937007874015748},{"duration":0.1744791666666714,"midi":60,"time":80.36458333333333,"velocity":0.3937007874015748},{"duration":0.6731770833333428,"midi":43,"time":80.36458333333333,"velocity":0.3937007874015748},{"duration":0.0690104166666714,"midi":50,"time":80.39973958333333,"velocity":0.3937007874015748},{"duration":0.0690104166666714,"midi":70,"time":80.39973958333333,"velocity":0.3937007874015748},{"duration":0.1744791666666714,"midi":76,"time":80.42317708333333,"velocity":0.3937007874015748},{"duration":0.05859375,"midi":50,"time":80.45833333333333,"velocity":0.3937007874015748},{"duration":0.1744791666666714,"midi":60,"time":80.46875,"velocity":0.3937007874015748},{"duration":0.059895833333328596,"midi":31,"time":80.50390625,"velocity":0.3937007874015748},{"duration":0.1744791666666714,"midi":83,"time":80.50390625,"velocity":0.3937007874015748},{"duration":0.059895833333328596,"midi":71,"time":80.52734375,"velocity":0.3937007874015748},{"duration":0.05859375,"midi":78,"time":80.5390625,"velocity":0.3937007874015748},{"duration":0.05859375,"midi":59,"time":80.5390625,"velocity":0.3937007874015748},{"duration":0.1744791666666714,"midi":50,"time":80.5390625,"velocity":0.3937007874015748},{"duration":0.1744791666666714,"midi":31,"time":80.55078125,"velocity":0.3937007874015748},{"duration":0.05859375,"midi":58,"time":80.57421875,"velocity":0.3937007874015748},{"duration":0.05859375,"midi":70,"time":80.57421875,"velocity":0.3937007874015748},{"duration":0.17578125,"midi":50,"time":80.61979166666667,"velocity":0.3937007874015748},{"duration":0.0872395833333286,"midi":65,"time":80.61979166666667,"velocity":0.3937007874015748},{"duration":0.05859375,"midi":59,"time":80.63151041666667,"velocity":0.3937007874015748},{"duration":0.4244791666666572,"midi":31,"time":80.63151041666667,"velocity":0.3937007874015748},{"duration":0.1770833333333428,"midi":58,"time":80.66536458333333,"velocity":0.3937007874015748},{"duration":0.30078125,"midi":64,"time":80.67708333333333,"velocity":0.3937007874015748},{"duration":0.05989583333334281,"midi":83,"time":80.78255208333333,"velocity":0.3937007874015748},{"duration":0.05989583333334281,"midi":50,"time":80.78255208333333,"velocity":0.3937007874015748},{"duration":0.1744791666666714,"midi":71,"time":80.79427083333333,"velocity":0.3937007874015748},{"duration":0.05859375,"midi":78,"time":80.80729166666667,"velocity":0.3937007874015748},{"duration":0.1744791666666572,"midi":59,"time":80.80729166666667,"velocity":0.3937007874015748},{"duration":0.1744791666666572,"midi":50,"time":80.84244791666667,"velocity":0.3937007874015748},{"duration":0.05989583333334281,"midi":77,"time":80.85286458333333,"velocity":0.3937007874015748},{"duration":0.05989583333334281,"midi":70,"time":80.86458333333333,"velocity":0.3937007874015748},{"duration":0.05989583333334281,"midi":58,"time":80.87630208333333,"velocity":0.3937007874015748},{"duration":0.1744791666666714,"midi":62,"time":80.88802083333333,"velocity":0.3937007874015748},{"duration":0.05859375,"midi":65,"time":80.89973958333333,"velocity":0.3937007874015748},{"duration":0.05859375,"midi":57,"time":80.89973958333333,"velocity":0.3937007874015748},{"duration":0.05859375,"midi":70,"time":80.93489583333333,"velocity":0.3937007874015748},{"duration":0.05859375,"midi":68,"time":80.95833333333333,"velocity":0.3937007874015748},{"duration":0.05859375,"midi":84,"time":80.96875,"velocity":0.3937007874015748},{"duration":0.05859375,"midi":51,"time":80.96875,"velocity":0.3937007874015748},{"duration":0.05859375,"midi":74,"time":80.96875,"velocity":0.3937007874015748},{"duration":0.05859375,"midi":64,"time":80.96875,"velocity":0.3937007874015748},{"duration":0.057291666666671404,"midi":70,"time":80.98046875,"velocity":0.3937007874015748},{"duration":0.057291666666671404,"midi":75,"time":80.98046875,"velocity":0.3937007874015748},{"duration":0.2955729166666714,"midi":65,"time":80.99348958333333,"velocity":0.3937007874015748},{"duration":0.057291666666671404,"midi":60,"time":80.99348958333333,"velocity":0.3937007874015748},{"duration":0.05859375,"midi":49,"time":81.00390625,"velocity":0.3937007874015748},{"duration":0.1731770833333286,"midi":31,"time":81.00390625,"velocity":0.3937007874015748},{"duration":0.057291666666671404,"midi":71,"time":81.015625,"velocity":0.3937007874015748},{"duration":0.05859375,"midi":59,"time":81.02734375,"velocity":0.3937007874015748},{"duration":0.05859375,"midi":58,"time":81.07291666666667,"velocity":0.3937007874015748},{"duration":0.1731770833333428,"midi":84,"time":81.09505208333333,"velocity":0.3937007874015748},{"duration":0.05859375,"midi":62,"time":81.09505208333333,"velocity":0.3937007874015748},{"duration":0.05859375,"midi":69,"time":81.11848958333333,"velocity":0.3937007874015748},{"duration":0.05859375,"midi":50,"time":81.14192708333333,"velocity":0.3937007874015748},{"duration":0.05859375,"midi":62,"time":81.1640625,"velocity":0.3937007874015748},{"duration":0.05859375,"midi":58,"time":81.1640625,"velocity":0.3937007874015748},{"duration":0.05859375,"midi":59,"time":81.19921875,"velocity":0.3937007874015748},{"duration":0.17578125,"midi":76,"time":81.20963541666667,"velocity":0.3937007874015748},{"duration":0.17578125,"midi":70,"time":81.22265625,"velocity":0.3937007874015748},{"duration":0.05859375,"midi":50,"time":81.24479166666667,"velocity":0.3937007874015748},{"duration":0.05859375,"midi":58,"time":81.24479166666667,"velocity":0.3937007874015748},{"duration":0.1770833333333428,"midi":50,"time":81.34895833333333,"velocity":0.3937007874015748},{"duration":0.1770833333333428,"midi":65,"time":81.34895833333333,"velocity":0.3937007874015748},{"duration":0.1770833333333428,"midi":43,"time":81.36067708333333,"velocity":0.3937007874015748},{"duration":0.059895833333328596,"midi":57,"time":81.37369791666667,"velocity":0.3937007874015748},{"duration":0.55078125,"midi":58,"time":81.39713541666667,"velocity":0.3937007874015748},{"duration":0.17578125,"midi":84,"time":81.39713541666667,"velocity":0.3937007874015748},{"duration":0.30078125,"midi":62,"time":81.43229166666667,"velocity":0.3937007874015748},{"duration":0.3020833333333428,"midi":65,"time":81.47786458333333,"velocity":0.3937007874015748},{"duration":0.059895833333328596,"midi":31,"time":81.49088541666667,"velocity":0.3937007874015748},{"duration":0.05989583333334281,"midi":37,"time":81.55989583333333,"velocity":0.3937007874015748},{"duration":0.05859375,"midi":67,"time":81.74739583333333,"velocity":0.3937007874015748},{"duration":0.05859375,"midi":41,"time":81.77083333333333,"velocity":0.3937007874015748},{"duration":0.5520833333333428,"midi":65,"time":81.77083333333333,"velocity":0.3937007874015748},{"duration":0.1744791666666714,"midi":50,"time":81.78255208333333,"velocity":0.3937007874015748},{"duration":0.05859375,"midi":43,"time":81.80598958333333,"velocity":0.3937007874015748},{"duration":0.059895833333328596,"midi":30,"time":81.83984375,"velocity":0.3937007874015748},{"duration":0.4283854166666714,"midi":43,"time":81.83984375,"velocity":0.3937007874015748},{"duration":0.1770833333333286,"midi":50,"time":81.8984375,"velocity":0.3937007874015748},{"duration":0.059895833333328596,"midi":58,"time":81.921875,"velocity":0.3937007874015748},{"duration":0.059895833333328596,"midi":31,"time":81.921875,"velocity":0.3937007874015748},{"duration":0.17578125,"midi":31,"time":82.00390625,"velocity":0.3937007874015748},{"duration":0.17578125,"midi":70,"time":82.015625,"velocity":0.3937007874015748},{"duration":0.05859375,"midi":50,"time":82.0625,"velocity":0.3937007874015748},{"duration":0.05859375,"midi":58,"time":82.09765625,"velocity":0.3937007874015748},{"duration":0.17578125,"midi":50,"time":82.12109375,"velocity":0.3937007874015748},{"duration":0.17578125,"midi":70,"time":82.14453125,"velocity":0.3937007874015748},{"duration":0.1744791666666714,"midi":62,"time":82.19140625,"velocity":0.3937007874015748},{"duration":0.1744791666666714,"midi":58,"time":82.203125,"velocity":0.3937007874015748},{"duration":0.1744791666666714,"midi":50,"time":82.203125,"velocity":0.3937007874015748},{"duration":0.1744791666666714,"midi":31,"time":82.203125,"velocity":0.3937007874015748},{"duration":0.1731770833333286,"midi":43,"time":82.21484375,"velocity":0.3937007874015748},{"duration":0.05859375,"midi":57,"time":82.31901041666667,"velocity":0.3937007874015748},{"duration":0.05859375,"midi":56,"time":82.34244791666667,"velocity":0.3937007874015748},{"duration":0.05859375,"midi":57,"time":82.36458333333333,"velocity":0.3937007874015748},{"duration":0.05859375,"midi":62,"time":82.37760416666667,"velocity":0.3937007874015748},{"duration":0.1770833333333286,"midi":31,"time":82.37760416666667,"velocity":0.3937007874015748},{"duration":0.05989583333334281,"midi":57,"time":82.42317708333333,"velocity":0.3937007874015748},{"duration":0.1770833333333428,"midi":77,"time":82.42317708333333,"velocity":0.3937007874015748},{"duration":0.061197916666671404,"midi":57,"time":82.51692708333333,"velocity":0.3937007874015748},{"duration":0.059895833333328596,"midi":68,"time":82.52994791666667,"velocity":0.3937007874015748},{"duration":0.05859375,"midi":64,"time":82.54166666666667,"velocity":0.3937007874015748},{"duration":0.05859375,"midi":60,"time":82.54166666666667,"velocity":0.3937007874015748},{"duration":0.05859375,"midi":79,"time":82.54166666666667,"velocity":0.3937007874015748},{"duration":0.05729166666665719,"midi":63,"time":82.56510416666667,"velocity":0.3937007874015748},{"duration":0.05729166666665719,"midi":43,"time":82.56510416666667,"velocity":0.3937007874015748},{"duration":0.05729166666665719,"midi":61,"time":82.58854166666667,"velocity":0.3937007874015748},{"duration":0.05729166666665719,"midi":40,"time":82.58854166666667,"velocity":0.3937007874015748},{"duration":0.05859375,"midi":69,"time":82.59895833333333,"velocity":0.3937007874015748},{"duration":0.059895833333328596,"midi":67,"time":82.6328125,"velocity":0.3937007874015748},{"duration":0.05859375,"midi":45,"time":82.64583333333333,"velocity":0.3937007874015748},{"duration":0.05859375,"midi":45,"time":82.69270833333333,"velocity":0.3937007874015748},{"duration":0.05859375,"midi":60,"time":82.703125,"velocity":0.3937007874015748},{"duration":0.1744791666666714,"midi":77,"time":82.703125,"velocity":0.3937007874015748},{"duration":0.05859375,"midi":65,"time":82.7265625,"velocity":0.3937007874015748},{"duration":0.1744791666666714,"midi":52,"time":82.7265625,"velocity":0.3937007874015748},{"duration":0.057291666666671404,"midi":46,"time":82.73828125,"velocity":0.3937007874015748},{"duration":0.057291666666671404,"midi":67,"time":82.73828125,"velocity":0.3937007874015748},{"duration":0.057291666666671404,"midi":61,"time":82.75,"velocity":0.3937007874015748},{"duration":0.057291666666671404,"midi":33,"time":82.75,"velocity":0.3937007874015748},{"duration":0.05859375,"midi":44,"time":82.76171875,"velocity":0.3937007874015748},{"duration":0.05989583333334281,"midi":67,"time":82.79427083333333,"velocity":0.3937007874015748},{"duration":0.17578125,"midi":52,"time":82.82942708333333,"velocity":0.3937007874015748},{"duration":0.17578125,"midi":45,"time":82.82942708333333,"velocity":0.3937007874015748},{"duration":0.05989583333334281,"midi":33,"time":82.89973958333333,"velocity":0.3937007874015748},{"duration":0.05989583333334281,"midi":64,"time":82.89973958333333,"velocity":0.3937007874015748},{"duration":0.05989583333334281,"midi":57,"time":82.92317708333333,"velocity":0.3937007874015748},{"duration":0.30078125,"midi":52,"time":82.93489583333333,"velocity":0.3937007874015748},{"duration":0.1744791666666714,"midi":89,"time":82.94661458333333,"velocity":0.3937007874015748},{"duration":0.42578125,"midi":45,"time":82.94661458333333,"velocity":0.3937007874015748},{"duration":0.42578125,"midi":65,"time":82.94661458333333,"velocity":0.3937007874015748},{"duration":0.05989583333334281,"midi":84,"time":82.97005208333333,"velocity":0.3937007874015748},{"duration":0.05989583333334281,"midi":33,"time":83.00520833333333,"velocity":0.3937007874015748},{"duration":0.05859375,"midi":34,"time":83.07552083333333,"velocity":0.3937007874015748},{"duration":0.05859375,"midi":33,"time":83.09765625,"velocity":0.3937007874015748},{"duration":0.059895833333328596,"midi":33,"time":83.14453125,"velocity":0.3937007874015748},{"duration":0.059895833333328596,"midi":33,"time":83.19140625,"velocity":0.3937007874015748},{"duration":0.17578125,"midi":58,"time":83.2265625,"velocity":0.3937007874015748},{"duration":0.059895833333328596,"midi":52,"time":83.2265625,"velocity":0.3937007874015748},{"duration":0.059895833333328596,"midi":34,"time":83.26171875,"velocity":0.3937007874015748},{"duration":0.05859375,"midi":64,"time":83.30859375,"velocity":0.3937007874015748},{"duration":0.05859375,"midi":60,"time":83.3203125,"velocity":0.3937007874015748},{"duration":0.05859375,"midi":77,"time":83.3203125,"velocity":0.3937007874015748},{"duration":0.2994791666666572,"midi":76,"time":83.33072916666667,"velocity":0.3937007874015748},{"duration":0.05859375,"midi":33,"time":83.37890625,"velocity":0.3937007874015748},{"duration":0.7955729166666714,"midi":53,"time":83.37890625,"velocity":0.3937007874015748},{"duration":0.7955729166666572,"midi":46,"time":83.38932291666667,"velocity":0.3937007874015748},{"duration":0.1640625,"midi":65,"time":83.38932291666667,"velocity":0.3937007874015748},{"duration":0.5481770833333286,"midi":69,"time":83.38932291666667,"velocity":0.3937007874015748},{"duration":0.1744791666666572,"midi":86,"time":83.38932291666667,"velocity":0.3937007874015748},{"duration":0.17578125,"midi":34,"time":83.44661458333333,"velocity":0.3937007874015748},{"duration":0.0703125,"midi":65,"time":83.49348958333333,"velocity":0.3937007874015748},{"duration":0.17578125,"midi":34,"time":83.52864583333333,"velocity":0.3937007874015748},{"duration":0.059895833333328596,"midi":65,"time":83.5625,"velocity":0.3937007874015748},{"duration":0.1744791666666714,"midi":65,"time":83.61067708333333,"velocity":0.3937007874015748},{"duration":0.05859375,"midi":64,"time":83.7265625,"velocity":0.3937007874015748},{"duration":0.05859375,"midi":62,"time":83.73828125,"velocity":0.3937007874015748},{"duration":0.296875,"midi":64,"time":83.76171875,"velocity":0.3937007874015748},{"duration":0.05859375,"midi":34,"time":83.80729166666667,"velocity":0.3937007874015748},{"duration":0.1627604166666714,"midi":34,"time":83.86458333333333,"velocity":0.3937007874015748},{"duration":0.0690104166666714,"midi":34,"time":83.96875,"velocity":0.3937007874015748},{"duration":0.1744791666666714,"midi":69,"time":83.98046875,"velocity":0.3937007874015748},{"duration":0.4231770833333286,"midi":65,"time":84.02734375,"velocity":0.3937007874015748},{"duration":0.1731770833333286,"midi":62,"time":84.03776041666667,"velocity":0.3937007874015748},{"duration":0.1731770833333286,"midi":34,"time":84.03776041666667,"velocity":0.3937007874015748},{"duration":0.05989583333334281,"midi":54,"time":84.09505208333333,"velocity":0.3937007874015748},{"duration":0.05859375,"midi":68,"time":84.10807291666667,"velocity":0.3937007874015748},{"duration":0.05729166666665719,"midi":50,"time":84.11979166666667,"velocity":0.3937007874015748},{"duration":0.1731770833333286,"midi":87,"time":84.11979166666667,"velocity":0.3937007874015748},{"duration":0.055989583333328596,"midi":51,"time":84.13151041666667,"velocity":0.3937007874015748},{"duration":0.055989583333328596,"midi":61,"time":84.13151041666667,"velocity":0.3937007874015748},{"duration":0.1731770833333428,"midi":69,"time":84.16536458333333,"velocity":0.3937007874015748},{"duration":0.17578125,"midi":53,"time":84.1875,"velocity":0.3937007874015748},{"duration":0.05859375,"midi":46,"time":84.1875,"velocity":0.3937007874015748},{"duration":0.059895833333328596,"midi":34,"time":84.19791666666667,"velocity":0.3937007874015748},{"duration":0.059895833333328596,"midi":46,"time":84.23307291666667,"velocity":0.3937007874015748},{"duration":0.17578125,"midi":34,"time":84.24479166666667,"velocity":0.3937007874015748},{"duration":0.059895833333328596,"midi":66,"time":84.33854166666667,"velocity":0.3937007874015748},{"duration":0.059895833333328596,"midi":62,"time":84.33854166666667,"velocity":0.3937007874015748},{"duration":0.059895833333328596,"midi":53,"time":84.35026041666667,"velocity":0.3937007874015748},{"duration":0.059895833333328596,"midi":58,"time":84.35026041666667,"velocity":0.3937007874015748},{"duration":0.140625,"midi":34,"time":84.35026041666667,"velocity":0.3937007874015748},{"duration":0.1731770833333286,"midi":62,"time":84.42057291666667,"velocity":0.3937007874015748},{"duration":0.09244791666665719,"midi":34,"time":84.43229166666667,"velocity":0.3937007874015748},{"duration":0.05859375,"midi":65,"time":84.45572916666667,"velocity":0.3937007874015748},{"duration":0.05859375,"midi":33,"time":84.47786458333333,"velocity":0.3937007874015748},{"duration":0.05859375,"midi":65,"time":84.50130208333333,"velocity":0.3937007874015748},{"duration":0.05859375,"midi":57,"time":84.52473958333333,"velocity":0.3937007874015748},{"duration":0.1731770833333428,"midi":62,"time":84.53645833333333,"velocity":0.3937007874015748},{"duration":0.1731770833333428,"midi":67,"time":84.53645833333333,"velocity":0.3937007874015748},{"duration":0.057291666666671404,"midi":86,"time":84.55859375,"velocity":0.3937007874015748},{"duration":0.05859375,"midi":57,"time":84.61588541666667,"velocity":0.3937007874015748},{"duration":0.05989583333334281,"midi":65,"time":84.66145833333333,"velocity":0.3937007874015748},{"duration":0.1744791666666714,"midi":58,"time":84.69661458333333,"velocity":0.3937007874015748},{"duration":0.05859375,"midi":36,"time":84.70833333333333,"velocity":0.3937007874015748},{"duration":0.05859375,"midi":65,"time":84.70833333333333,"velocity":0.3937007874015748},{"duration":0.4244791666666714,"midi":62,"time":84.73177083333333,"velocity":0.3937007874015748},{"duration":0.1744791666666714,"midi":53,"time":84.73177083333333,"velocity":0.3937007874015748},{"duration":0.1744791666666714,"midi":46,"time":84.76692708333333,"velocity":0.3937007874015748},{"duration":0.1744791666666714,"midi":34,"time":84.76692708333333,"velocity":0.3937007874015748},{"duration":0.05859375,"midi":67,"time":84.77734375,"velocity":0.3937007874015748},{"duration":0.059895833333328596,"midi":67,"time":84.89322916666667,"velocity":0.3937007874015748},{"duration":0.05859375,"midi":77,"time":84.90494791666667,"velocity":0.3937007874015748},{"duration":0.05859375,"midi":80,"time":84.90494791666667,"velocity":0.3937007874015748},{"duration":0.30078125,"midi":58,"time":84.92838541666667,"velocity":0.3937007874015748},{"duration":0.42578125,"midi":53,"time":84.94010416666667,"velocity":0.3937007874015748},{"duration":0.05859375,"midi":31,"time":84.953125,"velocity":0.3937007874015748},{"duration":0.30078125,"midi":67,"time":84.96354166666667,"velocity":0.3937007874015748},{"duration":0.42578125,"midi":46,"time":84.96354166666667,"velocity":0.3937007874015748},{"duration":0.05859375,"midi":35,"time":84.99869791666667,"velocity":0.3937007874015748},{"duration":0.05859375,"midi":33,"time":85.02213541666667,"velocity":0.3937007874015748},{"duration":0.05989583333334281,"midi":34,"time":85.11458333333333,"velocity":0.3937007874015748},{"duration":0.05989583333334281,"midi":34,"time":85.14973958333333,"velocity":0.3937007874015748},{"duration":0.05989583333334281,"midi":34,"time":85.22005208333333,"velocity":0.3937007874015748},{"duration":0.4270833333333428,"midi":69,"time":85.27864583333333,"velocity":0.3937007874015748},{"duration":0.17578125,"midi":62,"time":85.2890625,"velocity":0.3937007874015748},{"duration":0.05859375,"midi":34,"time":85.30208333333333,"velocity":0.3937007874015748},{"duration":0.17578125,"midi":53,"time":85.30208333333333,"velocity":0.3937007874015748},{"duration":0.059895833333328596,"midi":45,"time":85.32421875,"velocity":0.3937007874015748},{"duration":0.42578125,"midi":46,"time":85.359375,"velocity":0.3937007874015748},{"duration":0.30078125,"midi":34,"time":85.37239583333333,"velocity":0.3937007874015748},{"duration":0.059895833333328596,"midi":85,"time":85.4296875,"velocity":0.3937007874015748},{"duration":0.05859375,"midi":62,"time":85.48958333333333,"velocity":0.3937007874015748},{"duration":0.17578125,"midi":57,"time":85.51171875,"velocity":0.3937007874015748},{"duration":0.059895833333328596,"midi":62,"time":85.55729166666667,"velocity":0.3937007874015748},{"duration":0.17578125,"midi":53,"time":85.59244791666667,"velocity":0.3937007874015748},{"duration":0.1744791666666714,"midi":69,"time":85.65234375,"velocity":0.3937007874015748},{"duration":0.059895833333328596,"midi":61,"time":85.67447916666667,"velocity":0.3937007874015748},{"duration":0.05859375,"midi":74,"time":85.6875,"velocity":0.3937007874015748},{"duration":0.05859375,"midi":51,"time":85.69921875,"velocity":0.3937007874015748},{"duration":0.05859375,"midi":60,"time":85.69921875,"velocity":0.3937007874015748},{"duration":0.057291666666671404,"midi":48,"time":85.7109375,"velocity":0.3937007874015748},{"duration":0.057291666666671404,"midi":41,"time":85.734375,"velocity":0.3937007874015748},{"duration":0.05859375,"midi":57,"time":85.74479166666667,"velocity":0.3937007874015748},{"duration":0.05859375,"midi":61,"time":85.74479166666667,"velocity":0.3937007874015748},{"duration":0.05989583333334281,"midi":61,"time":85.86067708333333,"velocity":0.3937007874015748},{"duration":0.05989583333334281,"midi":60,"time":85.88411458333333,"velocity":0.3937007874015748},{"duration":0.05859375,"midi":44,"time":85.89583333333333,"velocity":0.3937007874015748},{"duration":0.05859375,"midi":61,"time":85.90755208333333,"velocity":0.3937007874015748},{"duration":0.05859375,"midi":33,"time":85.95442708333333,"velocity":0.3937007874015748},{"duration":0.06119791666665719,"midi":56,"time":86.05729166666667,"velocity":0.3937007874015748},{"duration":0.4283854166666714,"midi":93,"time":86.0703125,"velocity":0.3937007874015748},{"duration":0.061197916666671404,"midi":73,"time":86.0703125,"velocity":0.3937007874015748},{"duration":0.3020833333333286,"midi":86,"time":86.08203125,"velocity":0.3937007874015748},{"duration":0.17578125,"midi":57,"time":86.09375,"velocity":0.3937007874015748},{"duration":0.17578125,"midi":62,"time":86.09375,"velocity":0.3937007874015748},{"duration":0.17578125,"midi":90,"time":86.10677083333333,"velocity":0.3937007874015748},{"duration":0.17578125,"midi":65,"time":86.10677083333333,"velocity":0.3937007874015748},{"duration":0.059895833333328596,"midi":35,"time":86.234375,"velocity":0.3937007874015748},{"duration":0.059895833333328596,"midi":45,"time":86.234375,"velocity":0.3937007874015748},{"duration":0.05859375,"midi":62,"time":86.29296875,"velocity":0.3937007874015748},{"duration":0.059895833333328596,"midi":35,"time":86.3046875,"velocity":0.3937007874015748},{"duration":0.059895833333328596,"midi":84,"time":86.33984375,"velocity":0.3937007874015748},{"duration":0.059895833333328596,"midi":55,"time":86.38671875,"velocity":0.3937007874015748},{"duration":0.05859375,"midi":65,"time":86.3984375,"velocity":0.3937007874015748},{"duration":0.059895833333328596,"midi":64,"time":86.45703125,"velocity":0.3937007874015748},{"duration":0.059895833333328596,"midi":72,"time":86.46744791666667,"velocity":0.3937007874015748},{"duration":0.059895833333328596,"midi":58,"time":86.46744791666667,"velocity":0.3937007874015748},{"duration":0.059895833333328596,"midi":95,"time":86.46744791666667,"velocity":0.3937007874015748},{"duration":0.4205729166666572,"midi":76,"time":86.46744791666667,"velocity":0.3937007874015748},{"duration":0.05859375,"midi":42,"time":86.47916666666667,"velocity":0.3937007874015748},{"duration":0.057291666666671404,"midi":37,"time":86.4921875,"velocity":0.3937007874015748},{"duration":0.2942708333333286,"midi":60,"time":86.50390625,"velocity":0.3937007874015748},{"duration":0.055989583333328596,"midi":36,"time":86.50390625,"velocity":0.3937007874015748},{"duration":0.5416666666666714,"midi":67,"time":86.515625,"velocity":0.3937007874015748},{"duration":0.1692708333333286,"midi":45,"time":86.515625,"velocity":0.3937007874015748},{"duration":0.055989583333328596,"midi":53,"time":86.515625,"velocity":0.3937007874015748},{"duration":0.057291666666671404,"midi":88,"time":86.52734375,"velocity":0.3937007874015748},{"duration":0.1705729166666572,"midi":95,"time":86.53776041666667,"velocity":0.3937007874015748},{"duration":0.05729166666665719,"midi":64,"time":86.53776041666667,"velocity":0.3937007874015748},{"duration":0.057291666666671404,"midi":52,"time":86.54817708333333,"velocity":0.3937007874015748},{"duration":0.057291666666671404,"midi":32,"time":86.55859375,"velocity":0.3937007874015748},{"duration":0.057291666666671404,"midi":33,"time":86.59375,"velocity":0.3937007874015748},{"duration":0.1731770833333286,"midi":64,"time":86.60546875,"velocity":0.3937007874015748},{"duration":0.05859375,"midi":52,"time":86.61588541666667,"velocity":0.3937007874015748},{"duration":0.6731770833333286,"midi":45,"time":86.65104166666667,"velocity":0.3937007874015748},{"duration":0.05859375,"midi":52,"time":86.67317708333333,"velocity":0.3937007874015748},{"duration":0.059895833333328596,"midi":52,"time":86.70703125,"velocity":0.3937007874015748},{"duration":0.057291666666671404,"midi":33,"time":86.76692708333333,"velocity":0.3937007874015748},{"duration":0.5494791666666714,"midi":60,"time":86.77734375,"velocity":0.3937007874015748},{"duration":0.1731770833333286,"midi":33,"time":86.85807291666667,"velocity":0.3937007874015748},{"duration":0.2981770833333428,"midi":64,"time":86.93880208333333,"velocity":0.3937007874015748},{"duration":0.05859375,"midi":83,"time":86.93880208333333,"velocity":0.3937007874015748},{"duration":0.30078125,"midi":33,"time":87.0078125,"velocity":0.3937007874015748},{"duration":0.05859375,"midi":83,"time":87.0078125,"velocity":0.3937007874015748},{"duration":0.1770833333333286,"midi":67,"time":87.12369791666667,"velocity":0.3937007874015748},{"duration":0.061197916666671404,"midi":65,"time":87.23958333333333,"velocity":0.3937007874015748},{"duration":0.061197916666671404,"midi":68,"time":87.23958333333333,"velocity":0.3937007874015748},{"duration":0.2916666666666572,"midi":84,"time":87.25260416666667,"velocity":0.3937007874015748},{"duration":0.4244791666666572,"midi":89,"time":87.25260416666667,"velocity":0.3937007874015748},{"duration":0.059895833333328596,"midi":64,"time":87.26432291666667,"velocity":0.3937007874015748},{"duration":0.059895833333328596,"midi":51,"time":87.26432291666667,"velocity":0.3937007874015748},{"duration":0.059895833333328596,"midi":50,"time":87.27604166666667,"velocity":0.3937007874015748},{"duration":0.17578125,"midi":67,"time":87.28776041666667,"velocity":0.3937007874015748},{"duration":0.05859375,"midi":61,"time":87.30078125,"velocity":0.3937007874015748},{"duration":0.05859375,"midi":64,"time":87.3359375,"velocity":0.3937007874015748},{"duration":0.1744791666666572,"midi":33,"time":87.34635416666667,"velocity":0.3937007874015748},{"duration":0.42578125,"midi":60,"time":87.34635416666667,"velocity":0.3937007874015748},{"duration":0.1744791666666572,"midi":83,"time":87.36979166666667,"velocity":0.3937007874015748},{"duration":0.2981770833333286,"midi":45,"time":87.38151041666667,"velocity":0.3937007874015748},{"duration":0.1731770833333286,"midi":33,"time":87.42838541666667,"velocity":0.3937007874015748},{"duration":0.05859375,"midi":65,"time":87.45182291666667,"velocity":0.3937007874015748},{"duration":0.06510416666665719,"midi":84,"time":87.48697916666667,"velocity":0.3937007874015748},{"duration":0.1731770833333428,"midi":65,"time":87.50911458333333,"velocity":0.3937007874015748},{"duration":0.059895833333328596,"midi":55,"time":87.57682291666667,"velocity":0.3937007874015748},{"duration":0.05859375,"midi":33,"time":87.58854166666667,"velocity":0.3937007874015748},{"duration":0.1770833333333286,"midi":74,"time":87.64713541666667,"velocity":0.3937007874015748},{"duration":0.061197916666671404,"midi":67,"time":87.65755208333333,"velocity":0.3937007874015748},{"duration":0.061197916666671404,"midi":41,"time":87.65755208333333,"velocity":0.3937007874015748},{"duration":0.061197916666671404,"midi":93,"time":87.65755208333333,"velocity":0.3937007874015748},{"duration":0.061197916666671404,"midi":37,"time":87.66927083333333,"velocity":0.3937007874015748},{"duration":0.1770833333333428,"midi":90,"time":87.66927083333333,"velocity":0.3937007874015748},{"duration":0.1770833333333286,"midi":65,"time":87.69401041666667,"velocity":0.3937007874015748},{"duration":0.1770833333333286,"midi":60,"time":87.70572916666667,"velocity":0.3937007874015748},{"duration":0.05859375,"midi":93,"time":87.765625,"velocity":0.3937007874015748},{"duration":0.2994791666666572,"midi":74,"time":87.83463541666667,"velocity":0.3937007874015748},{"duration":0.17578125,"midi":45,"time":87.83463541666667,"velocity":0.3937007874015748},{"duration":0.17578125,"midi":93,"time":87.85807291666667,"velocity":0.3937007874015748},{"duration":0.17578125,"midi":65,"time":87.85807291666667,"velocity":0.3937007874015748},{"duration":0.05859375,"midi":33,"time":87.90494791666667,"velocity":0.3937007874015748},{"duration":0.1744791666666572,"midi":33,"time":87.95182291666667,"velocity":0.3937007874015748},{"duration":0.1744791666666572,"midi":81,"time":87.95182291666667,"velocity":0.3937007874015748},{"duration":0.05989583333334281,"midi":51,"time":88.00911458333333,"velocity":0.3937007874015748},{"duration":0.1731770833333286,"midi":68,"time":88.02213541666667,"velocity":0.3937007874015748},{"duration":0.05859375,"midi":77,"time":88.02213541666667,"velocity":0.3937007874015748},{"duration":0.05859375,"midi":57,"time":88.03385416666667,"velocity":0.3937007874015748},{"duration":0.1731770833333286,"midi":84,"time":88.03385416666667,"velocity":0.3937007874015748},{"duration":0.05859375,"midi":50,"time":88.05598958333333,"velocity":0.3937007874015748},{"duration":0.1731770833333428,"midi":74,"time":88.05598958333333,"velocity":0.3937007874015748},{"duration":0.05729166666665719,"midi":90,"time":88.06901041666667,"velocity":0.3937007874015748},{"duration":0.05729166666665719,"midi":61,"time":88.06901041666667,"velocity":0.3937007874015748},{"duration":0.05729166666665719,"midi":88,"time":88.06901041666667,"velocity":0.3937007874015748},{"duration":0.1744791666666714,"midi":81,"time":88.07942708333333,"velocity":0.3937007874015748},{"duration":0.057291666666671404,"midi":72,"time":88.07942708333333,"velocity":0.3937007874015748},{"duration":0.17578125,"midi":45,"time":88.10286458333333,"velocity":0.3937007874015748},{"duration":0.057291666666671404,"midi":52,"time":88.11458333333333,"velocity":0.3937007874015748},{"duration":0.059895833333328596,"midi":60,"time":88.15885416666667,"velocity":0.3937007874015748},{"duration":0.1783854166666572,"midi":65,"time":88.15885416666667,"velocity":0.3937007874015748},{"duration":0.06119791666665719,"midi":56,"time":88.24088541666667,"velocity":0.3937007874015748},{"duration":0.2994791666666714,"midi":33,"time":88.25390625,"velocity":0.3937007874015748},{"duration":0.4231770833333286,"midi":45,"time":88.265625,"velocity":0.3937007874015748},{"duration":0.17578125,"midi":57,"time":88.265625,"velocity":0.3937007874015748},{"duration":0.059895833333328596,"midi":81,"time":88.2890625,"velocity":0.3937007874015748},{"duration":0.05859375,"midi":51,"time":88.34895833333333,"velocity":0.3937007874015748},{"duration":0.05859375,"midi":60,"time":88.37239583333333,"velocity":0.3937007874015748},{"duration":0.171875,"midi":60,"time":88.4296875,"velocity":0.3937007874015748},{"duration":0.171875,"midi":74,"time":88.4296875,"velocity":0.3937007874015748},{"duration":0.057291666666671404,"midi":65,"time":88.4296875,"velocity":0.3937007874015748},{"duration":0.05859375,"midi":52,"time":88.44010416666667,"velocity":0.3937007874015748},{"duration":0.1731770833333286,"midi":33,"time":88.46354166666667,"velocity":0.3937007874015748},{"duration":0.05859375,"midi":65,"time":88.48697916666667,"velocity":0.3937007874015748},{"duration":0.05859375,"midi":81,"time":88.50911458333333,"velocity":0.3937007874015748},{"duration":0.05859375,"midi":52,"time":88.53255208333333,"velocity":0.3937007874015748},{"duration":0.05859375,"midi":33,"time":88.578125,"velocity":0.3937007874015748},{"duration":0.1744791666666572,"midi":72,"time":88.62369791666667,"velocity":0.3937007874015748},{"duration":0.05859375,"midi":64,"time":88.63671875,"velocity":0.3937007874015748},{"duration":0.05859375,"midi":67,"time":88.63671875,"velocity":0.3937007874015748},{"duration":0.05859375,"midi":49,"time":88.64713541666667,"velocity":0.3937007874015748},{"duration":0.05859375,"midi":48,"time":88.65885416666667,"velocity":0.3937007874015748},{"duration":0.05859375,"midi":47,"time":88.68229166666667,"velocity":0.3937007874015748},{"duration":0.1744791666666572,"midi":81,"time":88.68229166666667,"velocity":0.3937007874015748},{"duration":0.05859375,"midi":46,"time":88.70442708333333,"velocity":0.3937007874015748},{"duration":0.05859375,"midi":44,"time":88.73958333333333,"velocity":0.3937007874015748},{"duration":0.05859375,"midi":45,"time":88.76302083333333,"velocity":0.3937007874015748},{"duration":0.059895833333328596,"midi":44,"time":88.80859375,"velocity":0.3937007874015748},{"duration":0.05859375,"midi":74,"time":88.8203125,"velocity":0.3937007874015748},{"duration":0.1744791666666714,"midi":81,"time":88.8203125,"velocity":0.3937007874015748},{"duration":0.05859375,"midi":66,"time":88.8203125,"velocity":0.3937007874015748},{"duration":0.05859375,"midi":61,"time":88.83203125,"velocity":0.3937007874015748},{"duration":0.05859375,"midi":45,"time":88.83203125,"velocity":0.3937007874015748},{"duration":0.05859375,"midi":48,"time":88.84375,"velocity":0.3937007874015748},{"duration":0.05859375,"midi":67,"time":88.85546875,"velocity":0.3937007874015748},{"duration":0.05859375,"midi":48,"time":88.86848958333333,"velocity":0.3937007874015748},{"duration":0.05859375,"midi":47,"time":88.87890625,"velocity":0.3937007874015748},{"duration":0.05859375,"midi":64,"time":88.87890625,"velocity":0.3937007874015748},{"duration":0.059895833333328596,"midi":46,"time":88.88932291666667,"velocity":0.3937007874015748},{"duration":0.1640625,"midi":67,"time":88.88932291666667,"velocity":0.3937007874015748},{"duration":0.05859375,"midi":44,"time":88.93619791666667,"velocity":0.3937007874015748},{"duration":0.1744791666666572,"midi":61,"time":88.97135416666667,"velocity":0.3937007874015748},{"duration":0.05859375,"midi":45,"time":88.97135416666667,"velocity":0.3937007874015748},{"duration":0.06901041666665719,"midi":67,"time":88.99479166666667,"velocity":0.3937007874015748},{"duration":0.05859375,"midi":45,"time":89.02994791666667,"velocity":0.3937007874015748},{"duration":0.05989583333334281,"midi":47,"time":89.06380208333333,"velocity":0.3937007874015748},{"duration":0.05989583333334281,"midi":67,"time":89.06380208333333,"velocity":0.3937007874015748},{"duration":0.05989583333334281,"midi":44,"time":89.09895833333333,"velocity":0.3937007874015748},{"duration":0.05989583333334281,"midi":44,"time":89.13411458333333,"velocity":0.3937007874015748},{"duration":0.17578125,"midi":67,"time":89.14583333333333,"velocity":0.3937007874015748},{"duration":0.05859375,"midi":33,"time":89.15755208333333,"velocity":0.3937007874015748},{"duration":0.1744791666666714,"midi":81,"time":89.19270833333333,"velocity":0.3937007874015748},{"duration":0.05859375,"midi":55,"time":89.19270833333333,"velocity":0.3937007874015748},{"duration":0.05859375,"midi":45,"time":89.19270833333333,"velocity":0.3937007874015748},{"duration":0.05859375,"midi":48,"time":89.21614583333333,"velocity":0.3937007874015748},{"duration":0.05859375,"midi":78,"time":89.21614583333333,"velocity":0.3937007874015748},{"duration":0.059895833333328596,"midi":64,"time":89.2265625,"velocity":0.3937007874015748},{"duration":0.059895833333328596,"midi":46,"time":89.23828125,"velocity":0.3937007874015748},{"duration":0.05989583333334281,"midi":45,"time":89.25130208333333,"velocity":0.3937007874015748},{"duration":0.059895833333328596,"midi":55,"time":89.26171875,"velocity":0.3937007874015748},{"duration":0.059895833333328596,"midi":63,"time":89.26171875,"velocity":0.3937007874015748},{"duration":0.1744791666666714,"midi":60,"time":89.2734375,"velocity":0.3937007874015748},{"duration":0.05859375,"midi":42,"time":89.33203125,"velocity":0.3937007874015748},{"duration":0.05859375,"midi":81,"time":89.3671875,"velocity":0.3937007874015748},{"duration":0.05859375,"midi":44,"time":89.38932291666667,"velocity":0.3937007874015748},{"duration":0.05859375,"midi":65,"time":89.38932291666667,"velocity":0.3937007874015748},{"duration":0.05859375,"midi":76,"time":89.38932291666667,"velocity":0.3937007874015748},{"duration":0.05989583333334281,"midi":60,"time":89.39973958333333,"velocity":0.3937007874015748},{"duration":0.059895833333328596,"midi":46,"time":89.44791666666667,"velocity":0.3937007874015748},{"duration":0.059895833333328596,"midi":62,"time":89.44791666666667,"velocity":0.3937007874015748},{"duration":0.1770833333333286,"midi":60,"time":89.48307291666667,"velocity":0.3937007874015748},{"duration":0.059895833333328596,"midi":43,"time":89.49479166666667,"velocity":0.3937007874015748},{"duration":0.1744791666666572,"midi":79,"time":89.56510416666667,"velocity":0.3937007874015748},{"duration":0.059895833333328596,"midi":45,"time":89.57682291666667,"velocity":0.3937007874015748},{"duration":0.059895833333328596,"midi":59,"time":89.60026041666667,"velocity":0.3937007874015748},{"duration":0.80078125,"midi":81,"time":89.60026041666667,"velocity":0.3937007874015748},{"duration":0.059895833333328596,"midi":64,"time":89.60026041666667,"velocity":0.3937007874015748},{"duration":0.05859375,"midi":53,"time":89.61197916666667,"velocity":0.3937007874015748},{"duration":0.05729166666665719,"midi":40,"time":89.62369791666667,"velocity":0.3937007874015748},{"duration":0.1731770833333286,"midi":86,"time":89.63671875,"velocity":0.3937007874015748},{"duration":0.057291666666671404,"midi":60,"time":89.63671875,"velocity":0.3937007874015748},{"duration":0.057291666666671404,"midi":37,"time":89.63671875,"velocity":0.3937007874015748},{"duration":0.05859375,"midi":74,"time":89.64713541666667,"velocity":0.3937007874015748},{"duration":0.5481770833333286,"midi":69,"time":89.65885416666667,"velocity":0.3937007874015748},{"duration":0.1731770833333286,"midi":80,"time":89.65885416666667,"velocity":0.3937007874015748},{"duration":0.1744791666666714,"midi":84,"time":89.66927083333333,"velocity":0.3937007874015748},{"duration":0.1744791666666714,"midi":73,"time":89.66927083333333,"velocity":0.3937007874015748},{"duration":0.4244791666666714,"midi":50,"time":89.66927083333333,"velocity":0.3937007874015748},{"duration":0.05859375,"midi":26,"time":89.66927083333333,"velocity":0.3937007874015748},{"duration":0.05859375,"midi":61,"time":89.68098958333333,"velocity":0.3937007874015748},{"duration":0.17578125,"midi":89,"time":89.68098958333333,"velocity":0.3937007874015748},{"duration":0.05859375,"midi":62,"time":89.71614583333333,"velocity":0.3937007874015748},{"duration":0.059895833333328596,"midi":60,"time":89.76171875,"velocity":0.3937007874015748},{"duration":0.059895833333328596,"midi":85,"time":89.76171875,"velocity":0.3937007874015748},{"duration":0.6770833333333286,"midi":74,"time":89.78385416666667,"velocity":0.3937007874015748},{"duration":0.5481770833333286,"midi":62,"time":89.796875,"velocity":0.3937007874015748},{"duration":0.1744791666666714,"midi":77,"time":89.80859375,"velocity":0.3937007874015748},{"duration":0.1731770833333286,"midi":84,"time":89.85546875,"velocity":0.3937007874015748},{"duration":0.05859375,"midi":65,"time":89.87890625,"velocity":0.3937007874015748},{"duration":0.30078125,"midi":84,"time":89.95963541666667,"velocity":0.3937007874015748},{"duration":0.17578125,"midi":57,"time":90.00520833333333,"velocity":0.3937007874015748},{"duration":0.05989583333334281,"midi":76,"time":90.00520833333333,"velocity":0.3937007874015748},{"duration":0.17578125,"midi":86,"time":90.04036458333333,"velocity":0.3937007874015748},{"duration":1.0481770833333428,"midi":65,"time":90.05208333333333,"velocity":0.3937007874015748},{"duration":0.1744791666666572,"midi":88,"time":90.06510416666667,"velocity":0.3937007874015748},{"duration":0.1744791666666572,"midi":50,"time":90.06510416666667,"velocity":0.3937007874015748},{"duration":0.17578125,"midi":90,"time":90.07552083333333,"velocity":0.3937007874015748},{"duration":0.17578125,"midi":57,"time":90.08723958333333,"velocity":0.3937007874015748},{"duration":0.059895833333328596,"midi":61,"time":90.23828125,"velocity":0.3937007874015748},{"duration":0.17578125,"midi":50,"time":90.28515625,"velocity":0.3937007874015748},{"duration":0.17578125,"midi":57,"time":90.28515625,"velocity":0.3937007874015748},{"duration":0.0638020833333286,"midi":62,"time":90.28515625,"velocity":0.3937007874015748},{"duration":0.2994791666666714,"midi":57,"time":90.42578125,"velocity":0.3937007874015748},{"duration":0.05859375,"midi":76,"time":90.42578125,"velocity":0.3937007874015748},{"duration":0.05859375,"midi":76,"time":90.484375,"velocity":0.3937007874015748},{"duration":0.1731770833333428,"midi":57,"time":90.70442708333333,"velocity":0.3937007874015748},{"duration":0.05859375,"midi":62,"time":90.75130208333333,"velocity":0.3937007874015748},{"duration":0.296875,"midi":69,"time":90.7734375,"velocity":0.3937007874015748},{"duration":0.05859375,"midi":58,"time":90.7734375,"velocity":0.3937007874015748},{"duration":0.05859375,"midi":72,"time":90.796875,"velocity":0.3937007874015748},{"duration":0.05859375,"midi":60,"time":90.81901041666667,"velocity":0.3937007874015748},{"duration":0.057291666666671404,"midi":73,"time":90.83203125,"velocity":0.3937007874015748},{"duration":0.05729166666665719,"midi":61,"time":90.85416666666667,"velocity":0.3937007874015748},{"duration":0.1744791666666714,"midi":79,"time":90.88802083333333,"velocity":0.3937007874015748},{"duration":0.1744791666666714,"midi":72,"time":90.88802083333333,"velocity":0.3937007874015748},{"duration":0.1744791666666714,"midi":60,"time":90.88802083333333,"velocity":0.3937007874015748},{"duration":0.059895833333328596,"midi":73,"time":90.9921875,"velocity":0.3937007874015748},{"duration":0.059895833333328596,"midi":80,"time":90.9921875,"velocity":0.3937007874015748},{"duration":0.05859375,"midi":61,"time":91.00390625,"velocity":0.3937007874015748},{"duration":0.05859375,"midi":72,"time":91.0390625,"velocity":0.3937007874015748},{"duration":0.05859375,"midi":60,"time":91.05078125,"velocity":0.3937007874015748},{"duration":0.05859375,"midi":28,"time":91.05078125,"velocity":0.3937007874015748},{"duration":0.1744791666666714,"midi":50,"time":91.0625,"velocity":0.3937007874015748},{"duration":0.059895833333328596,"midi":58,"time":91.08463541666667,"velocity":0.3937007874015748},{"duration":0.546875,"midi":65,"time":91.14453125,"velocity":0.3937007874015748},{"duration":0.05859375,"midi":79,"time":91.16666666666667,"velocity":0.3937007874015748},{"duration":0.057291666666671404,"midi":73,"time":91.1796875,"velocity":0.3937007874015748},{"duration":0.05729166666665719,"midi":80,"time":91.20182291666667,"velocity":0.3937007874015748},{"duration":0.05729166666665719,"midi":58,"time":91.22526041666667,"velocity":0.3937007874015748},{"duration":0.05859375,"midi":50,"time":91.23567708333333,"velocity":0.3937007874015748},{"duration":0.5494791666666714,"midi":50,"time":91.28125,"velocity":0.3937007874015748},{"duration":0.30078125,"midi":69,"time":91.3046875,"velocity":0.3937007874015748},{"duration":0.17578125,"midi":57,"time":91.33984375,"velocity":0.3937007874015748},{"duration":0.059895833333328596,"midi":58,"time":91.42057291666667,"velocity":0.3937007874015748},{"duration":0.059895833333328596,"midi":57,"time":91.46744791666667,"velocity":0.3937007874015748},{"duration":0.05859375,"midi":72,"time":91.59635416666667,"velocity":0.3937007874015748},{"duration":0.1731770833333286,"midi":88,"time":91.60807291666667,"velocity":0.3937007874015748},{"duration":0.05729166666665719,"midi":79,"time":91.60807291666667,"velocity":0.3937007874015748},{"duration":0.05729166666665719,"midi":60,"time":91.60807291666667,"velocity":0.3937007874015748},{"duration":0.05729166666665719,"midi":73,"time":91.63151041666667,"velocity":0.3937007874015748},{"duration":0.05859375,"midi":79,"time":91.65364583333333,"velocity":0.3937007874015748},{"duration":0.059895833333328596,"midi":72,"time":91.6640625,"velocity":0.3937007874015748},{"duration":0.059895833333328596,"midi":80,"time":91.69921875,"velocity":0.3937007874015748},{"duration":0.05859375,"midi":73,"time":91.71223958333333,"velocity":0.3937007874015748},{"duration":0.05859375,"midi":61,"time":91.71223958333333,"velocity":0.3937007874015748},{"duration":0.4231770833333428,"midi":74,"time":91.74739583333333,"velocity":0.3937007874015748},{"duration":0.4231770833333428,"midi":81,"time":91.74739583333333,"velocity":0.3937007874015748},{"duration":0.4231770833333428,"midi":90,"time":91.75911458333333,"velocity":0.3937007874015748},{"duration":0.1731770833333428,"midi":57,"time":91.75911458333333,"velocity":0.3937007874015748},{"duration":0.2981770833333286,"midi":50,"time":91.76953125,"velocity":0.3937007874015748},{"duration":0.1744791666666714,"midi":62,"time":91.79296875,"velocity":0.3937007874015748},{"duration":0.05859375,"midi":57,"time":91.90885416666667,"velocity":0.3937007874015748},{"duration":0.05859375,"midi":88,"time":91.96614583333333,"velocity":0.3937007874015748},{"duration":0.059895833333328596,"midi":62,"time":92.03515625,"velocity":0.3937007874015748},{"duration":0.059895833333328596,"midi":61,"time":92.08203125,"velocity":0.3937007874015748},{"duration":0.05859375,"midi":57,"time":92.13020833333333,"velocity":0.3937007874015748},{"duration":0.05859375,"midi":60,"time":92.15234375,"velocity":0.3937007874015748},{"duration":0.05859375,"midi":41,"time":92.15234375,"velocity":0.3937007874015748},{"duration":0.17578125,"midi":57,"time":92.17578125,"velocity":0.3937007874015748},{"duration":0.059895833333328596,"midi":41,"time":92.2109375,"velocity":0.3937007874015748},{"duration":0.17578125,"midi":90,"time":92.24609375,"velocity":0.3937007874015748},{"duration":0.1744791666666572,"midi":76,"time":92.33854166666667,"velocity":0.3937007874015748},{"duration":0.1744791666666572,"midi":93,"time":92.33854166666667,"velocity":0.3937007874015748},{"duration":0.05859375,"midi":86,"time":92.36328125,"velocity":0.3937007874015748},{"duration":0.1744791666666714,"midi":95,"time":92.36328125,"velocity":0.3937007874015748},{"duration":0.2981770833333286,"midi":62,"time":92.36328125,"velocity":0.3937007874015748},{"duration":0.1744791666666714,"midi":57,"time":92.375,"velocity":0.3937007874015748},{"duration":0.1744791666666572,"midi":65,"time":92.39713541666667,"velocity":0.3937007874015748},{"duration":0.05989583333334281,"midi":56,"time":92.48958333333333,"velocity":0.3937007874015748},{"duration":0.05989583333334281,"midi":75,"time":92.48958333333333,"velocity":0.3937007874015748},{"duration":0.17578125,"midi":67,"time":92.52473958333333,"velocity":0.3937007874015748},{"duration":0.1744791666666714,"midi":55,"time":92.57161458333333,"velocity":0.3937007874015748},{"duration":0.05859375,"midi":50,"time":92.59505208333333,"velocity":0.3937007874015748},{"duration":0.059895833333328596,"midi":66,"time":92.67578125,"velocity":0.3937007874015748},{"duration":0.05859375,"midi":54,"time":92.6875,"velocity":0.3937007874015748},{"duration":0.057291666666671404,"midi":55,"time":92.71223958333333,"velocity":0.3937007874015748},{"duration":0.057291666666671404,"midi":63,"time":92.734375,"velocity":0.3937007874015748},{"duration":0.057291666666671404,"midi":56,"time":92.74609375,"velocity":0.3937007874015748},{"duration":0.2981770833333286,"midi":72,"time":92.74609375,"velocity":0.3937007874015748},{"duration":0.1744791666666572,"midi":84,"time":92.75651041666667,"velocity":0.3937007874015748},{"duration":0.05859375,"midi":41,"time":92.75651041666667,"velocity":0.3937007874015748},{"duration":0.05729166666665719,"midi":75,"time":92.76822916666667,"velocity":0.3937007874015748},{"duration":0.1744791666666572,"midi":77,"time":92.76822916666667,"velocity":0.3937007874015748},{"duration":0.1627604166666572,"midi":55,"time":92.79166666666667,"velocity":0.3937007874015748},{"duration":0.1744791666666572,"midi":81,"time":92.79166666666667,"velocity":0.3937007874015748},{"duration":0.05859375,"midi":63,"time":92.80208333333333,"velocity":0.3937007874015748},{"duration":0.17578125,"midi":65,"time":92.82552083333333,"velocity":0.3937007874015748},{"duration":0.17578125,"midi":62,"time":92.82552083333333,"velocity":0.3937007874015748},{"duration":0.059895833333328596,"midi":44,"time":92.84765625,"velocity":0.3937007874015748},{"duration":0.05989583333334281,"midi":53,"time":92.86067708333333,"velocity":0.3937007874015748},{"duration":0.17578125,"midi":43,"time":92.87109375,"velocity":0.3937007874015748},{"duration":0.30078125,"midi":67,"time":92.8828125,"velocity":0.3937007874015748},{"duration":0.0716145833333286,"midi":55,"time":92.89453125,"velocity":0.3937007874015748},{"duration":0.05859375,"midi":74,"time":92.90755208333333,"velocity":0.3937007874015748},{"duration":0.55078125,"midi":62,"time":92.95442708333333,"velocity":0.3937007874015748},{"duration":0.1744791666666714,"midi":55,"time":92.96484375,"velocity":0.3937007874015748},{"duration":0.05859375,"midi":44,"time":93,"velocity":0.3937007874015748},{"duration":0.05859375,"midi":43,"time":93.0234375,"velocity":0.3937007874015748},{"duration":0.05859375,"midi":44,"time":93.05859375,"velocity":0.3937007874015748},{"duration":0.059895833333328596,"midi":55,"time":93.09244791666667,"velocity":0.3937007874015748},{"duration":0.17578125,"midi":43,"time":93.10416666666667,"velocity":0.3937007874015748},{"duration":0.17578125,"midi":58,"time":93.15104166666667,"velocity":0.3937007874015748},{"duration":0.059895833333328596,"midi":42,"time":93.17447916666667,"velocity":0.3937007874015748},{"duration":0.17578125,"midi":55,"time":93.33854166666667,"velocity":0.3937007874015748},{"duration":0.1744791666666572,"midi":43,"time":93.37369791666667,"velocity":0.3937007874015748},{"duration":0.05859375,"midi":53,"time":93.47916666666667,"velocity":0.3937007874015748},{"duration":0.057291666666671404,"midi":78,"time":93.53645833333333,"velocity":0.3937007874015748},{"duration":0.1731770833333286,"midi":66,"time":93.5703125,"velocity":0.3937007874015748},{"duration":0.1731770833333286,"midi":57,"time":93.5703125,"velocity":0.3937007874015748},{"duration":0.2981770833333286,"midi":62,"time":93.5703125,"velocity":0.3937007874015748},{"duration":0.1393229166666714,"midi":50,"time":93.59375,"velocity":0.3937007874015748},{"duration":0.09244791666665719,"midi":50,"time":93.67447916666667,"velocity":0.3937007874015748},{"duration":0.05859375,"midi":57,"time":93.69661458333333,"velocity":0.3937007874015748},{"duration":0.05729166666665719,"midi":50,"time":93.70963541666667,"velocity":0.3937007874015748},{"duration":0.057291666666671404,"midi":58,"time":93.73177083333333,"velocity":0.3937007874015748},{"duration":0.05859375,"midi":50,"time":93.74348958333333,"velocity":0.3937007874015748},{"duration":0.059895833333328596,"midi":49,"time":93.77604166666667,"velocity":0.3937007874015748},{"duration":0.059895833333328596,"midi":58,"time":93.7890625,"velocity":0.3937007874015748},{"duration":0.17578125,"midi":50,"time":93.81119791666667,"velocity":0.3937007874015748},{"duration":0.059895833333328596,"midi":57,"time":93.82421875,"velocity":0.3937007874015748},{"duration":0.059895833333328596,"midi":66,"time":93.82421875,"velocity":0.3937007874015748},{"duration":0.1744791666666714,"midi":57,"time":93.87109375,"velocity":0.3937007874015748},{"duration":0.05859375,"midi":66,"time":93.8828125,"velocity":0.3937007874015748},{"duration":0.059895833333328596,"midi":46,"time":94.01041666666667,"velocity":0.3937007874015748},{"duration":0.05989583333334281,"midi":53,"time":94.11458333333333,"velocity":0.3937007874015748},{"duration":0.1744791666666714,"midi":50,"time":94.14973958333333,"velocity":0.3937007874015748},{"duration":0.05989583333334281,"midi":66,"time":94.14973958333333,"velocity":0.3937007874015748},{"duration":0.1744791666666714,"midi":57,"time":94.16145833333333,"velocity":0.3937007874015748},{"duration":0.05859375,"midi":58,"time":94.23177083333333,"velocity":0.3937007874015748},{"duration":0.05859375,"midi":53,"time":94.25520833333333,"velocity":0.3937007874015748},{"duration":0.059895833333328596,"midi":74,"time":94.3125,"velocity":0.3937007874015748},{"duration":0.061197916666671404,"midi":79,"time":94.32421875,"velocity":0.3937007874015748},{"duration":0.061197916666671404,"midi":70,"time":94.3359375,"velocity":0.3937007874015748},{"duration":0.1770833333333286,"midi":53,"time":94.3359375,"velocity":0.3937007874015748},{"duration":0.1770833333333286,"midi":62,"time":94.34765625,"velocity":0.3937007874015748},{"duration":0.1770833333333286,"midi":46,"time":94.34765625,"velocity":0.3937007874015748},{"duration":0.05859375,"midi":52,"time":94.43098958333333,"velocity":0.3937007874015748},{"duration":0.05859375,"midi":33,"time":94.43098958333333,"velocity":0.3937007874015748},{"duration":0.17578125,"midi":50,"time":94.5,"velocity":0.3937007874015748},{"duration":0.059895833333328596,"midi":45,"time":94.6875,"velocity":0.3937007874015748},{"duration":0.2994791666666714,"midi":62,"time":94.69921875,"velocity":0.3937007874015748},{"duration":0.1744791666666714,"midi":53,"time":94.71223958333333,"velocity":0.3937007874015748},{"duration":0.1744791666666714,"midi":46,"time":94.71223958333333,"velocity":0.3937007874015748},{"duration":0.05859375,"midi":33,"time":94.734375,"velocity":0.3937007874015748},{"duration":0.05859375,"midi":34,"time":94.7578125,"velocity":0.3937007874015748},{"duration":0.05859375,"midi":34,"time":94.79296875,"velocity":0.3937007874015748},{"duration":0.059895833333328596,"midi":34,"time":94.82682291666667,"velocity":0.3937007874015748},{"duration":0.05859375,"midi":62,"time":95.01432291666667,"velocity":0.3937007874015748},{"duration":0.061197916666671404,"midi":60,"time":95.08203125,"velocity":0.3937007874015748},{"duration":0.061197916666671404,"midi":77,"time":95.09505208333333,"velocity":0.3937007874015748},{"duration":0.061197916666671404,"midi":63,"time":95.10677083333333,"velocity":0.3937007874015748},{"duration":0.061197916666671404,"midi":42,"time":95.10677083333333,"velocity":0.3937007874015748},{"duration":0.42578125,"midi":50,"time":95.11848958333333,"velocity":0.3937007874015748},{"duration":0.061197916666671404,"midi":70,"time":95.11848958333333,"velocity":0.3937007874015748},{"duration":0.4244791666666572,"midi":43,"time":95.13151041666667,"velocity":0.3937007874015748},{"duration":0.059895833333328596,"midi":76,"time":95.14322916666667,"velocity":0.3937007874015748},{"duration":0.1744791666666572,"midi":64,"time":95.19010416666667,"velocity":0.3937007874015748},{"duration":0.05859375,"midi":31,"time":95.20182291666667,"velocity":0.3937007874015748},{"duration":0.059895833333328596,"midi":59,"time":95.21354166666667,"velocity":0.3937007874015748},{"duration":0.05859375,"midi":31,"time":95.28255208333333,"velocity":0.3937007874015748},{"duration":0.30078125,"midi":64,"time":95.46875,"velocity":0.3937007874015748},{"duration":0.05859375,"midi":57,"time":95.4921875,"velocity":0.3937007874015748},{"duration":0.1744791666666714,"midi":31,"time":95.4921875,"velocity":0.3937007874015748},{"duration":0.05859375,"midi":56,"time":95.515625,"velocity":0.3937007874015748},{"duration":0.05859375,"midi":43,"time":95.515625,"velocity":0.3937007874015748},{"duration":0.05859375,"midi":50,"time":95.53776041666667,"velocity":0.3937007874015748},{"duration":0.05859375,"midi":43,"time":95.54947916666667,"velocity":0.3937007874015748},{"duration":0.05989583333334281,"midi":43,"time":95.58333333333333,"velocity":0.3937007874015748},{"duration":0.059895833333328596,"midi":60,"time":95.63151041666667,"velocity":0.3937007874015748},{"duration":0.1770833333333286,"midi":64,"time":95.71354166666667,"velocity":0.3937007874015748},{"duration":0.059895833333328596,"midi":51,"time":95.71354166666667,"velocity":0.3937007874015748},{"duration":0.17578125,"midi":45,"time":95.72526041666667,"velocity":0.3937007874015748},{"duration":0.059895833333328596,"midi":60,"time":95.76041666666667,"velocity":0.3937007874015748},{"duration":0.1744791666666572,"midi":33,"time":95.76041666666667,"velocity":0.3937007874015748},{"duration":0.059895833333328596,"midi":60,"time":95.83072916666667,"velocity":0.3937007874015748},{"duration":0.05859375,"midi":67,"time":95.86588541666667,"velocity":0.3937007874015748},{"duration":0.05729166666665719,"midi":41,"time":95.87760416666667,"velocity":0.3937007874015748},{"duration":0.055989583333328596,"midi":37,"time":95.88932291666667,"velocity":0.3937007874015748},{"duration":0.05598958333334281,"midi":62,"time":95.89973958333333,"velocity":0.3937007874015748},{"duration":0.05598958333334281,"midi":77,"time":95.89973958333333,"velocity":0.3937007874015748},{"duration":0.1705729166666714,"midi":69,"time":95.89973958333333,"velocity":0.3937007874015748},{"duration":0.1705729166666714,"midi":84,"time":95.89973958333333,"velocity":0.3937007874015748},{"duration":0.1705729166666714,"midi":81,"time":95.89973958333333,"velocity":0.3937007874015748},{"duration":0.2955729166666714,"midi":46,"time":95.92317708333333,"velocity":0.3937007874015748},{"duration":0.05598958333334281,"midi":53,"time":95.92317708333333,"velocity":0.3937007874015748},{"duration":0.05598958333334281,"midi":63,"time":95.92317708333333,"velocity":0.3937007874015748},{"duration":0.171875,"midi":83,"time":95.93359375,"velocity":0.3937007874015748},{"duration":0.171875,"midi":76,"time":95.93359375,"velocity":0.3937007874015748},{"duration":0.1731770833333286,"midi":64,"time":95.9453125,"velocity":0.3937007874015748},{"duration":0.05859375,"midi":34,"time":95.95572916666667,"velocity":0.3937007874015748},{"duration":0.05859375,"midi":54,"time":95.96614583333333,"velocity":0.3937007874015748},{"duration":0.05729166666665719,"midi":35,"time":95.97916666666667,"velocity":0.3937007874015748},{"duration":0.17578125,"midi":70,"time":96.00130208333333,"velocity":0.3937007874015748},{"duration":0.1744791666666714,"midi":53,"time":96.02473958333333,"velocity":0.3937007874015748},{"duration":0.05859375,"midi":60,"time":96.02473958333333,"velocity":0.3937007874015748},{"duration":0.5546875,"midi":77,"time":96.02473958333333,"velocity":0.3937007874015748},{"duration":0.059895833333328596,"midi":33,"time":96.03515625,"velocity":0.3937007874015748},{"duration":0.5559895833333286,"midi":65,"time":96.05859375,"velocity":0.3937007874015748},{"duration":0.059895833333328596,"midi":34,"time":96.0703125,"velocity":0.3937007874015748},{"duration":0.4270833333333286,"midi":84,"time":96.0703125,"velocity":0.3937007874015748},{"duration":0.4270833333333286,"midi":93,"time":96.0703125,"velocity":0.3937007874015748},{"duration":0.059895833333328596,"midi":87,"time":96.08203125,"velocity":0.3937007874015748},{"duration":0.059895833333328596,"midi":86,"time":96.1171875,"velocity":0.3937007874015748},{"duration":0.05859375,"midi":34,"time":96.13020833333333,"velocity":0.3937007874015748},{"duration":0.17578125,"midi":81,"time":96.15234375,"velocity":0.3937007874015748},{"duration":0.17578125,"midi":87,"time":96.15234375,"velocity":0.3937007874015748},{"duration":0.5559895833333286,"midi":46,"time":96.1640625,"velocity":0.3937007874015748},{"duration":0.30078125,"midi":89,"time":96.17708333333333,"velocity":0.3937007874015748},{"duration":0.17578125,"midi":53,"time":96.1875,"velocity":0.3937007874015748},{"duration":0.1770833333333286,"midi":34,"time":96.19791666666667,"velocity":0.3937007874015748},{"duration":0.059895833333328596,"midi":62,"time":96.23307291666667,"velocity":0.3937007874015748},{"duration":0.1770833333333286,"midi":53,"time":96.27994791666667,"velocity":0.3937007874015748},{"duration":0.17578125,"midi":62,"time":96.33984375,"velocity":0.3937007874015748},{"duration":0.2838541666666714,"midi":34,"time":96.375,"velocity":0.3937007874015748},{"duration":0.1783854166666714,"midi":91,"time":96.4453125,"velocity":0.3937007874015748},{"duration":0.3033854166666572,"midi":92,"time":96.50260416666667,"velocity":0.3937007874015748},{"duration":0.06119791666665719,"midi":64,"time":96.50260416666667,"velocity":0.3937007874015748},{"duration":0.061197916666671404,"midi":53,"time":96.515625,"velocity":0.3937007874015748},{"duration":0.061197916666671404,"midi":89,"time":96.52734375,"velocity":0.3937007874015748},{"duration":0.1783854166666714,"midi":65,"time":96.5390625,"velocity":0.3937007874015748},{"duration":0.17578125,"midi":88,"time":96.58723958333333,"velocity":0.3937007874015748},{"duration":0.17578125,"midi":53,"time":96.58723958333333,"velocity":0.3937007874015748},{"duration":0.17578125,"midi":88,"time":96.58723958333333,"velocity":0.3937007874015748},{"duration":0.07942708333334281,"midi":34,"time":96.59895833333333,"velocity":0.3937007874015748},{"duration":0.17578125,"midi":64,"time":96.61067708333333,"velocity":0.3937007874015748},{"duration":0.05989583333334281,"midi":77,"time":96.65755208333333,"velocity":0.3937007874015748},{"duration":0.05989583333334281,"midi":69,"time":96.65755208333333,"velocity":0.3937007874015748},{"duration":0.05989583333334281,"midi":93,"time":96.65755208333333,"velocity":0.3937007874015748},{"duration":0.1744791666666714,"midi":88,"time":96.68098958333333,"velocity":0.3937007874015748},{"duration":0.05989583333334281,"midi":90,"time":96.69270833333333,"velocity":0.3937007874015748},{"duration":0.05989583333334281,"midi":83,"time":96.69270833333333,"velocity":0.3937007874015748},{"duration":0.05859375,"midi":46,"time":96.70442708333333,"velocity":0.3937007874015748},{"duration":0.05859375,"midi":34,"time":96.71744791666667,"velocity":0.3937007874015748},{"duration":0.05729166666665719,"midi":65,"time":96.72916666666667,"velocity":0.3937007874015748},{"duration":0.05729166666665719,"midi":64,"time":96.75260416666667,"velocity":0.3937007874015748},{"duration":0.05729166666665719,"midi":46,"time":96.75260416666667,"velocity":0.3937007874015748},{"duration":0.1744791666666714,"midi":65,"time":96.78515625,"velocity":0.3937007874015748},{"duration":0.17578125,"midi":62,"time":96.81901041666667,"velocity":0.3937007874015748},{"duration":0.05859375,"midi":68,"time":96.90104166666667,"velocity":0.3937007874015748},{"duration":0.1770833333333428,"midi":81,"time":96.97005208333333,"velocity":0.3937007874015748},{"duration":0.1770833333333286,"midi":62,"time":96.98307291666667,"velocity":0.3937007874015748},{"duration":0.05989583333334281,"midi":87,"time":97.05208333333333,"velocity":0.3937007874015748},{"duration":0.1783854166666572,"midi":63,"time":97.06510416666667,"velocity":0.3937007874015748},{"duration":0.1783854166666572,"midi":65,"time":97.07682291666667,"velocity":0.3937007874015748},{"duration":0.059895833333328596,"midi":89,"time":97.11197916666667,"velocity":0.3937007874015748},{"duration":0.1770833333333286,"midi":76,"time":97.17057291666667,"velocity":0.3937007874015748},{"duration":0.30078125,"midi":58,"time":97.19401041666667,"velocity":0.3937007874015748},{"duration":0.06119791666665719,"midi":65,"time":97.19401041666667,"velocity":0.3937007874015748},{"duration":0.1770833333333286,"midi":90,"time":97.19401041666667,"velocity":0.3937007874015748},{"duration":0.06119791666665719,"midi":45,"time":97.19401041666667,"velocity":0.3937007874015748},{"duration":0.17578125,"midi":53,"time":97.20572916666667,"velocity":0.3937007874015748},{"duration":0.1744791666666714,"midi":64,"time":97.21875,"velocity":0.3937007874015748},{"duration":0.059895833333328596,"midi":46,"time":97.23046875,"velocity":0.3937007874015748},{"duration":0.1744791666666714,"midi":95,"time":97.23046875,"velocity":0.3937007874015748},{"duration":0.1744791666666714,"midi":46,"time":97.30078125,"velocity":0.3937007874015748},{"duration":0.05859375,"midi":34,"time":97.3125,"velocity":0.3937007874015748},{"duration":0.057291666666671404,"midi":92,"time":97.32421875,"velocity":0.3937007874015748},{"duration":0.05859375,"midi":34,"time":97.38151041666667,"velocity":0.3937007874015748},{"duration":0.05989583333334281,"midi":77,"time":97.42708333333333,"velocity":0.3937007874015748},{"duration":0.05989583333334281,"midi":75,"time":97.42708333333333,"velocity":0.3937007874015748},{"duration":0.5520833333333428,"midi":53,"time":97.45052083333333,"velocity":0.3937007874015748},{"duration":0.30078125,"midi":58,"time":97.46223958333333,"velocity":0.3937007874015748},{"duration":0.80078125,"midi":46,"time":97.49739583333333,"velocity":0.3937007874015748},{"duration":0.05989583333334281,"midi":68,"time":97.49739583333333,"velocity":0.3937007874015748},{"duration":0.05989583333334281,"midi":35,"time":97.50911458333333,"velocity":0.3937007874015748},{"duration":0.05989583333334281,"midi":33,"time":97.53255208333333,"velocity":0.3937007874015748},{"duration":0.05989583333334281,"midi":63,"time":97.59114583333333,"velocity":0.3937007874015748},{"duration":0.05989583333334281,"midi":33,"time":97.60286458333333,"velocity":0.3937007874015748},{"duration":0.17578125,"midi":74,"time":97.60286458333333,"velocity":0.3937007874015748},{"duration":0.17578125,"midi":62,"time":97.61458333333333,"velocity":0.3937007874015748},{"duration":0.05859375,"midi":35,"time":97.62630208333333,"velocity":0.3937007874015748},{"duration":0.17578125,"midi":81,"time":97.62630208333333,"velocity":0.3937007874015748},{"duration":0.6744791666666714,"midi":34,"time":97.66145833333333,"velocity":0.3937007874015748},{"duration":0.1770833333333286,"midi":61,"time":97.6953125,"velocity":0.3937007874015748},{"duration":0.061197916666671404,"midi":62,"time":97.77734375,"velocity":0.3937007874015748},{"duration":0.05859375,"midi":82,"time":97.81380208333333,"velocity":0.3937007874015748},{"duration":0.05859375,"midi":75,"time":97.81380208333333,"velocity":0.3937007874015748},{"duration":0.05859375,"midi":63,"time":97.82552083333333,"velocity":0.3937007874015748},{"duration":0.1731770833333286,"midi":74,"time":97.83854166666667,"velocity":0.3937007874015748},{"duration":0.05859375,"midi":62,"time":97.84895833333333,"velocity":0.3937007874015748},{"duration":0.05859375,"midi":61,"time":97.89453125,"velocity":0.3937007874015748},{"duration":0.05859375,"midi":62,"time":97.953125,"velocity":0.3937007874015748},{"duration":0.059895833333328596,"midi":63,"time":97.99869791666667,"velocity":0.3937007874015748},{"duration":0.1744791666666572,"midi":57,"time":98.03385416666667,"velocity":0.3937007874015748},{"duration":0.05859375,"midi":62,"time":98.04557291666667,"velocity":0.3937007874015748},{"duration":0.1731770833333286,"midi":65,"time":98.04557291666667,"velocity":0.3937007874015748},{"duration":0.1744791666666572,"midi":53,"time":98.06901041666667,"velocity":0.3937007874015748},{"duration":0.05859375,"midi":61,"time":98.10416666666667,"velocity":0.3937007874015748},{"duration":0.05859375,"midi":57,"time":98.14973958333333,"velocity":0.3937007874015748},{"duration":0.1744791666666714,"midi":62,"time":98.16145833333333,"velocity":0.3937007874015748},{"duration":0.059895833333328596,"midi":74,"time":98.23046875,"velocity":0.3937007874015748},{"duration":0.05859375,"midi":35,"time":98.2421875,"velocity":0.3937007874015748},{"duration":0.05859375,"midi":60,"time":98.25520833333333,"velocity":0.3937007874015748},{"duration":0.6744791666666714,"midi":46,"time":98.26692708333333,"velocity":0.3937007874015748},{"duration":0.42578125,"midi":53,"time":98.2890625,"velocity":0.3937007874015748},{"duration":0.17578125,"midi":62,"time":98.32291666666667,"velocity":0.3937007874015748},{"duration":0.17578125,"midi":34,"time":98.3359375,"velocity":0.3937007874015748},{"duration":0.30078125,"midi":34,"time":98.44010416666667,"velocity":0.3937007874015748},{"duration":0.2994791666666572,"midi":57,"time":98.61588541666667,"velocity":0.3937007874015748},{"duration":0.05859375,"midi":65,"time":98.62760416666667,"velocity":0.3937007874015748},{"duration":0.1731770833333286,"midi":62,"time":98.640625,"velocity":0.3937007874015748},{"duration":0.2981770833333286,"midi":34,"time":98.66276041666667,"velocity":0.3937007874015748},{"duration":0.05859375,"midi":65,"time":98.68619791666667,"velocity":0.3937007874015748},{"duration":0.296875,"midi":65,"time":98.74348958333333,"velocity":0.3937007874015748},{"duration":0.05859375,"midi":35,"time":98.8828125,"velocity":0.3937007874015748},{"duration":0.059895833333328596,"midi":77,"time":98.94010416666667,"velocity":0.3937007874015748},{"duration":0.059895833333328596,"midi":85,"time":98.95182291666667,"velocity":0.3937007874015748},{"duration":0.05859375,"midi":76,"time":98.96354166666667,"velocity":0.3937007874015748},{"duration":0.05729166666665719,"midi":80,"time":98.97526041666667,"velocity":0.3937007874015748},{"duration":0.055989583333328596,"midi":68,"time":98.98828125,"velocity":0.3937007874015748},{"duration":0.055989583333328596,"midi":75,"time":98.98828125,"velocity":0.3937007874015748},{"duration":0.0546875,"midi":46,"time":99,"velocity":0.3937007874015748},{"duration":0.1692708333333286,"midi":83,"time":99.01041666666667,"velocity":0.3937007874015748},{"duration":0.055989583333328596,"midi":60,"time":99.02213541666667,"velocity":0.3937007874015748},{"duration":0.055989583333328596,"midi":64,"time":99.02213541666667,"velocity":0.3937007874015748},{"duration":0.055989583333328596,"midi":42,"time":99.02213541666667,"velocity":0.3937007874015748},{"duration":0.1705729166666714,"midi":79,"time":99.03255208333333,"velocity":0.3937007874015748},{"duration":0.05598958333334281,"midi":37,"time":99.03255208333333,"velocity":0.3937007874015748},{"duration":0.057291666666671404,"midi":74,"time":99.04296875,"velocity":0.3937007874015748},{"duration":0.05729166666665719,"midi":64,"time":99.05338541666667,"velocity":0.3937007874015748},{"duration":0.7955729166666572,"midi":45,"time":99.06510416666667,"velocity":0.3937007874015748},{"duration":0.05729166666665719,"midi":56,"time":99.06510416666667,"velocity":0.3937007874015748},{"duration":0.05729166666665719,"midi":30,"time":99.07682291666667,"velocity":0.3937007874015748},{"duration":0.05729166666665719,"midi":75,"time":99.07682291666667,"velocity":0.3937007874015748},{"duration":0.057291666666671404,"midi":60,"time":99.08723958333333,"velocity":0.3937007874015748},{"duration":0.057291666666671404,"midi":65,"time":99.08723958333333,"velocity":0.3937007874015748},{"duration":0.171875,"midi":52,"time":99.11067708333333,"velocity":0.3937007874015748},{"duration":0.171875,"midi":81,"time":99.12109375,"velocity":0.3937007874015748},{"duration":0.05859375,"midi":33,"time":99.14453125,"velocity":0.3937007874015748},{"duration":0.05859375,"midi":85,"time":99.15494791666667,"velocity":0.3937007874015748},{"duration":0.1731770833333286,"midi":76,"time":99.15494791666667,"velocity":0.3937007874015748},{"duration":0.05729166666665719,"midi":69,"time":99.16666666666667,"velocity":0.3937007874015748},{"duration":0.05729166666665719,"midi":67,"time":99.16666666666667,"velocity":0.3937007874015748},{"duration":0.1731770833333286,"midi":33,"time":99.21354166666667,"velocity":0.3937007874015748},{"duration":0.05859375,"midi":64,"time":99.22395833333333,"velocity":0.3937007874015748},{"duration":0.05859375,"midi":56,"time":99.234375,"velocity":0.3937007874015748},{"duration":0.1744791666666714,"midi":79,"time":99.28125,"velocity":0.3937007874015748},{"duration":0.30078125,"midi":64,"time":99.31510416666667,"velocity":0.3937007874015748},{"duration":0.55078125,"midi":33,"time":99.35026041666667,"velocity":0.3937007874015748},{"duration":0.1744791666666572,"midi":52,"time":99.46744791666667,"velocity":0.3937007874015748},{"duration":0.05859375,"midi":83,"time":99.49088541666667,"velocity":0.3937007874015748},{"duration":0.05859375,"midi":52,"time":99.58333333333333,"velocity":0.3937007874015748},{"duration":0.42578125,"midi":60,"time":99.64192708333333,"velocity":0.3937007874015748},{"duration":0.059895833333328596,"midi":80,"time":99.79296875,"velocity":0.3937007874015748},{"duration":0.059895833333328596,"midi":52,"time":99.79296875,"velocity":0.3937007874015748},{"duration":0.059895833333328596,"midi":77,"time":99.79296875,"velocity":0.3937007874015748},{"duration":0.05859375,"midi":73,"time":99.8046875,"velocity":0.3937007874015748},{"duration":0.17578125,"midi":45,"time":99.83984375,"velocity":0.3937007874015748},{"duration":0.05859375,"midi":34,"time":99.83984375,"velocity":0.3937007874015748},{"duration":0.05859375,"midi":64,"time":99.8515625,"velocity":0.3937007874015748},{"duration":0.1770833333333286,"midi":33,"time":99.87369791666667,"velocity":0.3937007874015748},{"duration":0.2916666666666714,"midi":55,"time":99.9453125,"velocity":0.3937007874015748},{"duration":0.1744791666666714,"midi":74,"time":100.015625,"velocity":0.3937007874015748},{"duration":0.1744791666666714,"midi":64,"time":100.02734375,"velocity":0.3937007874015748},{"duration":0.06770833333334281,"midi":55,"time":100.17708333333333,"velocity":0.3937007874015748},{"duration":0.17578125,"midi":60,"time":100.23567708333333,"velocity":0.3937007874015748},{"duration":0.061197916666671404,"midi":51,"time":100.375,"velocity":0.3937007874015748},{"duration":0.17578125,"midi":64,"time":100.38671875,"velocity":0.3937007874015748},{"duration":0.1419270833333286,"midi":52,"time":100.3984375,"velocity":0.3937007874015748},{"duration":0.1744791666666714,"midi":45,"time":100.42317708333333,"velocity":0.3937007874015748},{"duration":0.05859375,"midi":32,"time":100.42317708333333,"velocity":0.3937007874015748},{"duration":0.05859375,"midi":33,"time":100.44661458333333,"velocity":0.3937007874015748},{"duration":0.0924479166666714,"midi":52,"time":100.48177083333333,"velocity":0.3937007874015748},{"duration":0.059895833333328596,"midi":33,"time":100.515625,"velocity":0.3937007874015748},{"duration":0.059895833333328596,"midi":58,"time":100.5625,"velocity":0.3937007874015748},{"duration":0.059895833333328596,"midi":61,"time":100.5625,"velocity":0.3937007874015748},{"duration":0.059895833333328596,"midi":57,"time":100.58463541666667,"velocity":0.3937007874015748},{"duration":0.1536458333333286,"midi":52,"time":100.59765625,"velocity":0.3937007874015748},{"duration":0.1783854166666714,"midi":45,"time":100.6328125,"velocity":0.3937007874015748},{"duration":0.059895833333328596,"midi":63,"time":100.6796875,"velocity":0.3937007874015748},{"duration":0.0833333333333286,"midi":52,"time":100.69140625,"velocity":0.3937007874015748},{"duration":0.059895833333328596,"midi":71,"time":100.703125,"velocity":0.3937007874015748},{"duration":0.061197916666671404,"midi":53,"time":100.7734375,"velocity":0.3937007874015748},{"duration":0.061197916666671404,"midi":34,"time":100.78515625,"velocity":0.3937007874015748},{"duration":0.061197916666671404,"midi":44,"time":100.78515625,"velocity":0.3937007874015748},{"duration":0.4283854166666714,"midi":60,"time":100.79817708333333,"velocity":0.3937007874015748},{"duration":0.4270833333333428,"midi":45,"time":100.80989583333333,"velocity":0.3937007874015748},{"duration":0.05859375,"midi":33,"time":100.86979166666667,"velocity":0.3937007874015748},{"duration":0.05989583333334281,"midi":64,"time":100.96223958333333,"velocity":0.3937007874015748},{"duration":0.17578125,"midi":52,"time":100.97395833333333,"velocity":0.3937007874015748},{"duration":0.17578125,"midi":33,"time":101.04427083333333,"velocity":0.3937007874015748},{"duration":0.05989583333334281,"midi":59,"time":101.14973958333333,"velocity":0.3937007874015748},{"duration":0.059895833333328596,"midi":64,"time":101.171875,"velocity":0.3937007874015748},{"duration":0.17578125,"midi":70,"time":101.171875,"velocity":0.3937007874015748},{"duration":0.059895833333328596,"midi":60,"time":101.171875,"velocity":0.3937007874015748},{"duration":0.05859375,"midi":37,"time":101.18489583333333,"velocity":0.3937007874015748},{"duration":0.17578125,"midi":63,"time":101.19661458333333,"velocity":0.3937007874015748},{"duration":0.17578125,"midi":51,"time":101.22005208333333,"velocity":0.3937007874015748},{"duration":0.06119791666665719,"midi":45,"time":101.32291666666667,"velocity":0.3937007874015748},{"duration":0.059895833333328596,"midi":64,"time":101.3359375,"velocity":0.3937007874015748},{"duration":0.05859375,"midi":60,"time":101.34765625,"velocity":0.3937007874015748},{"duration":0.05859375,"midi":52,"time":101.34765625,"velocity":0.3937007874015748},{"duration":0.057291666666671404,"midi":77,"time":101.359375,"velocity":0.3937007874015748},{"duration":0.171875,"midi":53,"time":101.37239583333333,"velocity":0.3937007874015748},{"duration":0.05859375,"midi":63,"time":101.40494791666667,"velocity":0.3937007874015748},{"duration":0.421875,"midi":45,"time":101.40494791666667,"velocity":0.3937007874015748},{"duration":0.1731770833333286,"midi":72,"time":101.41666666666667,"velocity":0.3937007874015748},{"duration":0.1731770833333286,"midi":67,"time":101.41666666666667,"velocity":0.3937007874015748},{"duration":0.05859375,"midi":64,"time":101.43880208333333,"velocity":0.3937007874015748},{"duration":0.05859375,"midi":52,"time":101.45182291666667,"velocity":0.3937007874015748},{"duration":0.05859375,"midi":51,"time":101.47395833333333,"velocity":0.3937007874015748},{"duration":0.1614583333333428,"midi":64,"time":101.49739583333333,"velocity":0.3937007874015748},{"duration":0.057291666666671404,"midi":53,"time":101.53255208333333,"velocity":0.3937007874015748},{"duration":0.1731770833333286,"midi":60,"time":101.56640625,"velocity":0.3937007874015748},{"duration":0.05729166666665719,"midi":53,"time":101.58854166666667,"velocity":0.3937007874015748},{"duration":0.06901041666665719,"midi":64,"time":101.60026041666667,"velocity":0.3937007874015748},{"duration":0.05859375,"midi":67,"time":101.60026041666667,"velocity":0.3937007874015748},{"duration":0.05859375,"midi":51,"time":101.62239583333333,"velocity":0.3937007874015748},{"duration":0.05859375,"midi":65,"time":101.64583333333333,"velocity":0.3937007874015748},{"duration":0.17578125,"midi":67,"time":101.68098958333333,"velocity":0.3937007874015748},{"duration":0.17578125,"midi":64,"time":101.68098958333333,"velocity":0.3937007874015748},{"duration":0.059895833333328596,"midi":84,"time":101.76171875,"velocity":0.3937007874015748},{"duration":0.059895833333328596,"midi":42,"time":101.76171875,"velocity":0.3937007874015748},{"duration":0.059895833333328596,"midi":37,"time":101.7734375,"velocity":0.3937007874015748},{"duration":0.1744791666666714,"midi":65,"time":101.8203125,"velocity":0.3937007874015748},{"duration":0.1744791666666714,"midi":45,"time":101.85546875,"velocity":0.3937007874015748},{"duration":0.05859375,"midi":65,"time":101.94921875,"velocity":0.3937007874015748},{"duration":0.17578125,"midi":60,"time":101.97135416666667,"velocity":0.3937007874015748},{"duration":0.17578125,"midi":45,"time":101.97135416666667,"velocity":0.3937007874015748},{"duration":0.1770833333333286,"midi":64,"time":102.00651041666667,"velocity":0.3937007874015748},{"duration":0.1770833333333286,"midi":81,"time":102.13541666666667,"velocity":0.3937007874015748},{"duration":0.1770833333333286,"midi":74,"time":102.14713541666667,"velocity":0.3937007874015748},{"duration":0.1770833333333286,"midi":84,"time":102.14713541666667,"velocity":0.3937007874015748},{"duration":0.1770833333333286,"midi":77,"time":102.14713541666667,"velocity":0.3937007874015748},{"duration":0.059895833333328596,"midi":41,"time":102.15885416666667,"velocity":0.3937007874015748},{"duration":0.059895833333328596,"midi":60,"time":102.17057291666667,"velocity":0.3937007874015748},{"duration":0.059895833333328596,"midi":37,"time":102.17057291666667,"velocity":0.3937007874015748},{"duration":0.1770833333333286,"midi":88,"time":102.18359375,"velocity":0.3937007874015748},{"duration":0.059895833333328596,"midi":50,"time":102.18359375,"velocity":0.3937007874015748},{"duration":0.3046875,"midi":62,"time":102.20572916666667,"velocity":0.3937007874015748},{"duration":0.1783854166666714,"midi":50,"time":102.21875,"velocity":0.3937007874015748},{"duration":0.4283854166666714,"midi":57,"time":102.21875,"velocity":0.3937007874015748},{"duration":0.3033854166666714,"midi":81,"time":102.3359375,"velocity":0.3937007874015748},{"duration":0.061197916666671404,"midi":65,"time":102.34765625,"velocity":0.3937007874015748},{"duration":0.061197916666671404,"midi":88,"time":102.359375,"velocity":0.3937007874015748},{"duration":0.1770833333333428,"midi":84,"time":102.37239583333333,"velocity":0.3937007874015748},{"duration":0.4270833333333428,"midi":65,"time":102.38411458333333,"velocity":0.3937007874015748},{"duration":0.05859375,"midi":50,"time":102.52604166666667,"velocity":0.3937007874015748},{"duration":0.1744791666666714,"midi":74,"time":102.54817708333333,"velocity":0.3937007874015748},{"duration":0.05859375,"midi":51,"time":102.58333333333333,"velocity":0.3937007874015748},{"duration":0.17578125,"midi":62,"time":102.58333333333333,"velocity":0.3937007874015748},{"duration":0.15234375,"midi":50,"time":102.60677083333333,"velocity":0.3937007874015748},{"duration":0.08463541666665719,"midi":50,"time":102.69791666666667,"velocity":0.3937007874015748},{"duration":0.17578125,"midi":81,"time":102.70963541666667,"velocity":0.3937007874015748},{"duration":0.1744791666666714,"midi":71,"time":102.734375,"velocity":0.3937007874015748},{"duration":0.059895833333328596,"midi":88,"time":102.74609375,"velocity":0.3937007874015748},{"duration":0.05859375,"midi":51,"time":102.76953125,"velocity":0.3937007874015748},{"duration":0.05859375,"midi":76,"time":102.76953125,"velocity":0.3937007874015748},{"duration":0.05859375,"midi":64,"time":102.78125,"velocity":0.3937007874015748},{"duration":0.1731770833333286,"midi":62,"time":102.79296875,"velocity":0.3937007874015748},{"duration":0.1731770833333286,"midi":57,"time":102.79296875,"velocity":0.3937007874015748},{"duration":0.05859375,"midi":51,"time":102.82682291666667,"velocity":0.3937007874015748},{"duration":0.05989583333334281,"midi":51,"time":102.89583333333333,"velocity":0.3937007874015748},{"duration":0.5494791666666714,"midi":65,"time":102.89583333333333,"velocity":0.3937007874015748},{"duration":0.2994791666666714,"midi":69,"time":102.89583333333333,"velocity":0.3937007874015748},{"duration":0.1744791666666714,"midi":77,"time":102.93098958333333,"velocity":0.3937007874015748},{"duration":0.05859375,"midi":57,"time":102.94270833333333,"velocity":0.3937007874015748},{"duration":0.1731770833333286,"midi":81,"time":102.95572916666667,"velocity":0.3937007874015748},{"duration":0.1731770833333286,"midi":71,"time":102.95572916666667,"velocity":0.3937007874015748},{"duration":0.1731770833333286,"midi":62,"time":102.95572916666667,"velocity":0.3937007874015748},{"duration":0.05859375,"midi":53,"time":102.96614583333333,"velocity":0.3937007874015748},{"duration":0.05859375,"midi":53,"time":103.00130208333333,"velocity":0.3937007874015748},{"duration":0.2994791666666714,"midi":50,"time":103.0703125,"velocity":0.3937007874015748},{"duration":0.05859375,"midi":57,"time":103.16276041666667,"velocity":0.3937007874015748},{"duration":0.059895833333328596,"midi":94,"time":103.32421875,"velocity":0.3937007874015748},{"duration":0.059895833333328596,"midi":56,"time":103.359375,"velocity":0.3937007874015748},{"duration":0.17578125,"midi":67,"time":103.359375,"velocity":0.3937007874015748},{"duration":0.17578125,"midi":55,"time":103.38411458333333,"velocity":0.3937007874015748},{"duration":0.1770833333333428,"midi":69,"time":103.41927083333333,"velocity":0.3937007874015748},{"duration":0.1770833333333286,"midi":65,"time":103.44140625,"velocity":0.3937007874015748},{"duration":0.2981770833333286,"midi":86,"time":103.5234375,"velocity":0.3937007874015748},{"duration":0.1770833333333286,"midi":74,"time":103.5234375,"velocity":0.3937007874015748},{"duration":0.1770833333333286,"midi":62,"time":103.5234375,"velocity":0.3937007874015748},{"duration":0.1770833333333286,"midi":79,"time":103.5234375,"velocity":0.3937007874015748},{"duration":0.17578125,"midi":89,"time":103.53515625,"velocity":0.3937007874015748},{"duration":0.17578125,"midi":67,"time":103.53515625,"velocity":0.3937007874015748},{"duration":0.061197916666671404,"midi":55,"time":103.546875,"velocity":0.3937007874015748},{"duration":0.061197916666671404,"midi":50,"time":103.546875,"velocity":0.3937007874015748},{"duration":0.05989583333334281,"midi":56,"time":103.57161458333333,"velocity":0.3937007874015748},{"duration":0.1744791666666714,"midi":83,"time":103.57161458333333,"velocity":0.3937007874015748},{"duration":0.05859375,"midi":65,"time":103.58333333333333,"velocity":0.3937007874015748},{"duration":0.05859375,"midi":55,"time":103.59505208333333,"velocity":0.3937007874015748},{"duration":0.05859375,"midi":56,"time":103.61848958333333,"velocity":0.3937007874015748},{"duration":0.05859375,"midi":55,"time":103.64192708333333,"velocity":0.3937007874015748},{"duration":0.05859375,"midi":50,"time":103.64192708333333,"velocity":0.3937007874015748},{"duration":0.05859375,"midi":56,"time":103.6640625,"velocity":0.3937007874015748},{"duration":0.05859375,"midi":55,"time":103.6875,"velocity":0.3937007874015748},{"duration":0.05859375,"midi":68,"time":103.69921875,"velocity":0.3937007874015748},{"duration":0.05859375,"midi":75,"time":103.69921875,"velocity":0.3937007874015748},{"duration":0.05859375,"midi":56,"time":103.70963541666667,"velocity":0.3937007874015748},{"duration":0.171875,"midi":81,"time":103.70963541666667,"velocity":0.3937007874015748},{"duration":0.057291666666671404,"midi":62,"time":103.72265625,"velocity":0.3937007874015748},{"duration":0.057291666666671404,"midi":53,"time":103.72265625,"velocity":0.3937007874015748},{"duration":0.05729166666665719,"midi":76,"time":103.73307291666667,"velocity":0.3937007874015748},{"duration":0.05729166666665719,"midi":57,"time":103.73307291666667,"velocity":0.3937007874015748},{"duration":0.055989583333328596,"midi":58,"time":103.76822916666667,"velocity":0.3937007874015748},{"duration":0.055989583333328596,"midi":89,"time":103.76822916666667,"velocity":0.3937007874015748},{"duration":0.057291666666671404,"midi":82,"time":103.77864583333333,"velocity":0.3937007874015748},{"duration":0.1744791666666714,"midi":57,"time":103.7890625,"velocity":0.3937007874015748},{"duration":0.05859375,"midi":76,"time":103.80078125,"velocity":0.3937007874015748},{"duration":0.059895833333328596,"midi":81,"time":103.86979166666667,"velocity":0.3937007874015748},{"duration":0.1770833333333286,"midi":57,"time":103.86979166666667,"velocity":0.3937007874015748},{"duration":0.059895833333328596,"midi":53,"time":103.91666666666667,"velocity":0.3937007874015748},{"duration":0.05989583333334281,"midi":47,"time":103.93880208333333,"velocity":0.3937007874015748},{"duration":0.059895833333328596,"midi":69,"time":103.95182291666667,"velocity":0.3937007874015748},{"duration":0.1770833333333286,"midi":57,"time":103.96354166666667,"velocity":0.3937007874015748},{"duration":0.059895833333328596,"midi":57,"time":104.08072916666667,"velocity":0.3937007874015748},{"duration":0.059895833333328596,"midi":61,"time":104.09244791666667,"velocity":0.3937007874015748},{"duration":0.17578125,"midi":86,"time":104.11588541666667,"velocity":0.3937007874015748},{"duration":0.30078125,"midi":62,"time":104.11588541666667,"velocity":0.3937007874015748},{"duration":0.059895833333328596,"midi":58,"time":104.11588541666667,"velocity":0.3937007874015748},{"duration":0.17578125,"midi":86,"time":104.11588541666667,"velocity":0.3937007874015748},{"duration":0.17578125,"midi":81,"time":104.12760416666667,"velocity":0.3937007874015748},{"duration":0.1536458333333286,"midi":57,"time":104.17447916666667,"velocity":0.3937007874015748},{"duration":0.08203125,"midi":57,"time":104.26822916666667,"velocity":0.3937007874015748},{"duration":0.05859375,"midi":57,"time":104.31510416666667,"velocity":0.3937007874015748},{"duration":0.1744791666666572,"midi":76,"time":104.31510416666667,"velocity":0.3937007874015748},{"duration":0.05859375,"midi":46,"time":104.33854166666667,"velocity":0.3937007874015748},{"duration":0.17578125,"midi":64,"time":104.33854166666667,"velocity":0.3937007874015748},{"duration":0.05859375,"midi":56,"time":104.33854166666667,"velocity":0.3937007874015748},{"duration":0.05859375,"midi":69,"time":104.35026041666667,"velocity":0.3937007874015748},{"duration":0.05859375,"midi":57,"time":104.37369791666667,"velocity":0.3937007874015748},{"duration":0.05989583333334281,"midi":35,"time":104.48958333333333,"velocity":0.3937007874015748},{"duration":0.05989583333334281,"midi":65,"time":104.48958333333333,"velocity":0.3937007874015748},{"duration":0.05989583333334281,"midi":62,"time":104.48958333333333,"velocity":0.3937007874015748},{"duration":0.05859375,"midi":76,"time":104.50130208333333,"velocity":0.3937007874015748},{"duration":0.057291666666671404,"midi":50,"time":104.51302083333333,"velocity":0.3937007874015748},{"duration":0.057291666666671404,"midi":62,"time":104.54817708333333,"velocity":0.3937007874015748},{"duration":0.057291666666671404,"midi":60,"time":104.55859375,"velocity":0.3937007874015748},{"duration":0.057291666666671404,"midi":48,"time":104.55859375,"velocity":0.3937007874015748},{"duration":0.057291666666671404,"midi":40,"time":104.55859375,"velocity":0.3937007874015748},{"duration":0.05859375,"midi":57,"time":104.5703125,"velocity":0.3937007874015748},{"duration":0.05859375,"midi":48,"time":104.59244791666667,"velocity":0.3937007874015748},{"duration":0.05859375,"midi":65,"time":104.59244791666667,"velocity":0.3937007874015748},{"duration":0.05859375,"midi":40,"time":104.61588541666667,"velocity":0.3937007874015748},{"duration":0.05859375,"midi":57,"time":104.61588541666667,"velocity":0.3937007874015748},{"duration":0.05859375,"midi":53,"time":104.61588541666667,"velocity":0.3937007874015748},{"duration":0.1744791666666572,"midi":62,"time":104.63932291666667,"velocity":0.3937007874015748},{"duration":0.05859375,"midi":48,"time":104.65104166666667,"velocity":0.3937007874015748},{"duration":0.1744791666666714,"midi":65,"time":104.66145833333333,"velocity":0.3937007874015748},{"duration":0.05989583333334281,"midi":41,"time":104.66145833333333,"velocity":0.3937007874015748},{"duration":0.3020833333333428,"midi":53,"time":104.68489583333333,"velocity":0.3937007874015748},{"duration":0.05859375,"midi":30,"time":104.76692708333333,"velocity":0.3937007874015748},{"duration":0.1653645833333286,"midi":29,"time":104.87109375,"velocity":0.3937007874015748},{"duration":0.2942708333333286,"midi":67,"time":104.87109375,"velocity":0.3937007874015748},{"duration":0.17578125,"midi":53,"time":104.91796875,"velocity":0.3937007874015748},{"duration":0.059895833333328596,"midi":57,"time":104.9296875,"velocity":0.3937007874015748},{"duration":0.0716145833333286,"midi":29,"time":104.9765625,"velocity":0.3937007874015748},{"duration":0.17578125,"midi":42,"time":105,"velocity":0.3937007874015748},{"duration":0.3020833333333286,"midi":62,"time":105.01171875,"velocity":0.3937007874015748},{"duration":0.059895833333328596,"midi":68,"time":105.0703125,"velocity":0.3937007874015748},{"duration":0.059895833333328596,"midi":49,"time":105.09244791666667,"velocity":0.3937007874015748},{"duration":0.0677083333333286,"midi":67,"time":105.10546875,"velocity":0.3937007874015748},{"duration":0.059895833333328596,"midi":57,"time":105.10546875,"velocity":0.3937007874015748},{"duration":0.1770833333333286,"midi":42,"time":105.10546875,"velocity":0.3937007874015748},{"duration":0.059895833333328596,"midi":68,"time":105.140625,"velocity":0.3937007874015748},{"duration":0.059895833333328596,"midi":57,"time":105.1875,"velocity":0.3937007874015748},{"duration":0.2981770833333286,"midi":69,"time":105.19921875,"velocity":0.3937007874015748},{"duration":0.059895833333328596,"midi":43,"time":105.22265625,"velocity":0.3937007874015748},{"duration":0.059895833333328596,"midi":37,"time":105.3046875,"velocity":0.3937007874015748},{"duration":0.059895833333328596,"midi":60,"time":105.3046875,"velocity":0.3937007874015748},{"duration":0.05859375,"midi":64,"time":105.31640625,"velocity":0.3937007874015748},{"duration":0.171875,"midi":84,"time":105.33984375,"velocity":0.3937007874015748},{"duration":0.05859375,"midi":42,"time":105.33984375,"velocity":0.3937007874015748},{"duration":0.05859375,"midi":63,"time":105.33984375,"velocity":0.3937007874015748},{"duration":0.057291666666671404,"midi":28,"time":105.3515625,"velocity":0.3937007874015748},{"duration":0.057291666666671404,"midi":50,"time":105.3515625,"velocity":0.3937007874015748},{"duration":0.296875,"midi":74,"time":105.36328125,"velocity":0.3937007874015748},{"duration":0.057291666666671404,"midi":43,"time":105.375,"velocity":0.3937007874015748},{"duration":0.1731770833333428,"midi":65,"time":105.40755208333333,"velocity":0.3937007874015748},{"duration":0.05859375,"midi":62,"time":105.41927083333333,"velocity":0.3937007874015748},{"duration":0.05859375,"midi":43,"time":105.44140625,"velocity":0.3937007874015748},{"duration":0.05859375,"midi":42,"time":105.46484375,"velocity":0.3937007874015748},{"duration":0.42578125,"midi":62,"time":105.4765625,"velocity":0.3937007874015748},{"duration":0.05859375,"midi":31,"time":105.5,"velocity":0.3937007874015748},{"duration":0.17578125,"midi":68,"time":105.5234375,"velocity":0.3937007874015748},{"duration":0.17578125,"midi":81,"time":105.55729166666667,"velocity":0.3937007874015748},{"duration":0.059895833333328596,"midi":30,"time":105.59244791666667,"velocity":0.3937007874015748},{"duration":0.1744791666666714,"midi":70,"time":105.60546875,"velocity":0.3937007874015748},{"duration":0.05859375,"midi":65,"time":105.69791666666667,"velocity":0.3937007874015748},{"duration":0.1744791666666572,"midi":50,"time":105.69791666666667,"velocity":0.3937007874015748},{"duration":0.1744791666666572,"midi":69,"time":105.69791666666667,"velocity":0.3937007874015748},{"duration":0.5520833333333286,"midi":58,"time":105.73307291666667,"velocity":0.3937007874015748},{"duration":0.1744791666666572,"midi":65,"time":105.75651041666667,"velocity":0.3937007874015748},{"duration":0.059895833333328596,"midi":52,"time":105.859375,"velocity":0.3937007874015748},{"duration":0.1744791666666714,"midi":71,"time":105.88411458333333,"velocity":0.3937007874015748},{"duration":0.1744791666666714,"midi":64,"time":105.89583333333333,"velocity":0.3937007874015748},{"duration":0.05859375,"midi":53,"time":105.89583333333333,"velocity":0.3937007874015748},{"duration":0.17578125,"midi":52,"time":105.91927083333333,"velocity":0.3937007874015748},{"duration":0.061197916666671404,"midi":68,"time":106.0703125,"velocity":0.3937007874015748},{"duration":0.061197916666671404,"midi":72,"time":106.08203125,"velocity":0.3937007874015748},{"duration":0.061197916666671404,"midi":91,"time":106.08203125,"velocity":0.3937007874015748},{"duration":0.17578125,"midi":67,"time":106.09375,"velocity":0.3937007874015748},{"duration":0.05989583333334281,"midi":86,"time":106.10677083333333,"velocity":0.3937007874015748},{"duration":0.17578125,"midi":53,"time":106.10677083333333,"velocity":0.3937007874015748},{"duration":0.17578125,"midi":95,"time":106.11848958333333,"velocity":0.3937007874015748},{"duration":0.05859375,"midi":77,"time":106.13020833333333,"velocity":0.3937007874015748},{"duration":0.05859375,"midi":91,"time":106.15364583333333,"velocity":0.3937007874015748},{"duration":0.05859375,"midi":62,"time":106.15364583333333,"velocity":0.3937007874015748},{"duration":0.3033854166666714,"midi":65,"time":106.2109375,"velocity":0.3937007874015748},{"duration":0.1770833333333286,"midi":84,"time":106.234375,"velocity":0.3937007874015748},{"duration":0.061197916666671404,"midi":58,"time":106.2578125,"velocity":0.3937007874015748},{"duration":0.061197916666671404,"midi":45,"time":106.2578125,"velocity":0.3937007874015748},{"duration":0.1770833333333286,"midi":57,"time":106.29296875,"velocity":0.3937007874015748},{"duration":0.5533854166666714,"midi":62,"time":106.41015625,"velocity":0.3937007874015748},{"duration":0.3020833333333286,"midi":58,"time":106.41015625,"velocity":0.3937007874015748},{"duration":0.17578125,"midi":81,"time":106.42317708333333,"velocity":0.3937007874015748},{"duration":0.05859375,"midi":45,"time":106.48177083333333,"velocity":0.3937007874015748},{"duration":0.17578125,"midi":70,"time":106.67838541666667,"velocity":0.3937007874015748},{"duration":0.17578125,"midi":77,"time":106.67838541666667,"velocity":0.3937007874015748},{"duration":0.17578125,"midi":58,"time":106.69140625,"velocity":0.3937007874015748},{"duration":0.17578125,"midi":65,"time":106.703125,"velocity":0.3937007874015748},{"duration":0.059895833333328596,"midi":29,"time":106.703125,"velocity":0.3937007874015748},{"duration":0.17578125,"midi":82,"time":106.703125,"velocity":0.3937007874015748},{"duration":0.059895833333328596,"midi":44,"time":106.703125,"velocity":0.3937007874015748},{"duration":0.05859375,"midi":50,"time":106.72786458333333,"velocity":0.3937007874015748},{"duration":0.17578125,"midi":43,"time":106.72786458333333,"velocity":0.3937007874015748},{"duration":0.059895833333328596,"midi":81,"time":106.7734375,"velocity":0.3937007874015748},{"duration":0.05859375,"midi":50,"time":106.78515625,"velocity":0.3937007874015748},{"duration":0.17578125,"midi":65,"time":106.84375,"velocity":0.3937007874015748},{"duration":0.1770833333333286,"midi":91,"time":106.85416666666667,"velocity":0.3937007874015748},{"duration":0.3033854166666572,"midi":84,"time":106.85416666666667,"velocity":0.3937007874015748},{"duration":0.17578125,"midi":79,"time":106.86588541666667,"velocity":0.3937007874015748},{"duration":0.17578125,"midi":72,"time":106.87890625,"velocity":0.3937007874015748},{"duration":0.17578125,"midi":50,"time":106.890625,"velocity":0.3937007874015748},{"duration":0.42578125,"midi":43,"time":106.9140625,"velocity":0.3937007874015748},{"duration":0.05859375,"midi":30,"time":106.9140625,"velocity":0.3937007874015748},{"duration":0.05859375,"midi":62,"time":106.9140625,"velocity":0.3937007874015748},{"duration":0.05859375,"midi":60,"time":106.9375,"velocity":0.3937007874015748},{"duration":0.05859375,"midi":60,"time":106.97265625,"velocity":0.3937007874015748},{"duration":0.1640625,"midi":31,"time":106.99609375,"velocity":0.3937007874015748},{"duration":0.059895833333328596,"midi":60,"time":107.03125,"velocity":0.3937007874015748},{"duration":0.1653645833333286,"midi":50,"time":107.05338541666667,"velocity":0.3937007874015748},{"duration":0.059895833333328596,"midi":71,"time":107.05338541666667,"velocity":0.3937007874015748},{"duration":0.059895833333328596,"midi":59,"time":107.06510416666667,"velocity":0.3937007874015748},{"duration":0.17578125,"midi":77,"time":107.078125,"velocity":0.3937007874015748},{"duration":0.5494791666666714,"midi":58,"time":107.08984375,"velocity":0.3937007874015748},{"duration":0.0716145833333286,"midi":31,"time":107.10026041666667,"velocity":0.3937007874015748},{"duration":0.05859375,"midi":31,"time":107.16015625,"velocity":0.3937007874015748},{"duration":0.0690104166666714,"midi":50,"time":107.16015625,"velocity":0.3937007874015748},{"duration":0.05859375,"midi":50,"time":107.21744791666667,"velocity":0.3937007874015748},{"duration":0.30078125,"midi":31,"time":107.22916666666667,"velocity":0.3937007874015748},{"duration":0.17578125,"midi":65,"time":107.24088541666667,"velocity":0.3937007874015748},{"duration":0.05859375,"midi":50,"time":107.27604166666667,"velocity":0.3937007874015748},{"duration":0.05989583333334281,"midi":50,"time":107.32161458333333,"velocity":0.3937007874015748},{"duration":0.05989583333334281,"midi":62,"time":107.40364583333333,"velocity":0.3937007874015748},{"duration":0.05859375,"midi":77,"time":107.45052083333333,"velocity":0.3937007874015748},{"duration":0.1744791666666714,"midi":63,"time":107.47395833333333,"velocity":0.3937007874015748},{"duration":0.1653645833333286,"midi":64,"time":107.61328125,"velocity":0.3937007874015748},{"duration":0.06119791666665719,"midi":78,"time":107.63541666666667,"velocity":0.3937007874015748},{"duration":0.059895833333328596,"midi":77,"time":107.66015625,"velocity":0.3937007874015748},{"duration":0.6770833333333286,"midi":45,"time":107.671875,"velocity":0.3937007874015748},{"duration":0.059895833333328596,"midi":89,"time":107.671875,"velocity":0.3937007874015748},{"duration":0.059895833333328596,"midi":63,"time":107.68359375,"velocity":0.3937007874015748},{"duration":0.059895833333328596,"midi":90,"time":107.68359375,"velocity":0.3937007874015748},{"duration":0.059895833333328596,"midi":58,"time":107.70703125,"velocity":0.3937007874015748},{"duration":0.0716145833333286,"midi":64,"time":107.71875,"velocity":0.3937007874015748},{"duration":0.05859375,"midi":52,"time":107.76692708333333,"velocity":0.3937007874015748},{"duration":0.1770833333333286,"midi":33,"time":107.7890625,"velocity":0.3937007874015748},{"duration":0.1770833333333286,"midi":58,"time":107.82421875,"velocity":0.3937007874015748},{"duration":0.1770833333333286,"midi":64,"time":107.859375,"velocity":0.3937007874015748},{"duration":0.1770833333333286,"midi":33,"time":107.87109375,"velocity":0.3937007874015748},{"duration":0.059895833333328596,"midi":52,"time":107.91796875,"velocity":0.3937007874015748},{"duration":0.059895833333328596,"midi":60,"time":107.953125,"velocity":0.3937007874015748},{"duration":0.05989583333334281,"midi":86,"time":108.03645833333333,"velocity":0.3937007874015748},{"duration":0.05859375,"midi":56,"time":108.05989583333333,"velocity":0.3937007874015748},{"duration":0.05859375,"midi":60,"time":108.10546875,"velocity":0.3937007874015748},{"duration":0.1744791666666714,"midi":33,"time":108.10546875,"velocity":0.3937007874015748},{"duration":0.1744791666666714,"midi":60,"time":108.1640625,"velocity":0.3937007874015748},{"duration":0.05859375,"midi":60,"time":108.27994791666667,"velocity":0.3937007874015748},{"duration":0.17578125,"midi":33,"time":108.29166666666667,"velocity":0.3937007874015748},{"duration":0.1744791666666714,"midi":60,"time":108.34895833333333,"velocity":0.3937007874015748},{"duration":0.061197916666671404,"midi":46,"time":108.40625,"velocity":0.3937007874015748},{"duration":0.061197916666671404,"midi":81,"time":108.40625,"velocity":0.3937007874015748},{"duration":0.059895833333328596,"midi":65,"time":108.41796875,"velocity":0.3937007874015748},{"duration":0.059895833333328596,"midi":69,"time":108.41796875,"velocity":0.3937007874015748},{"duration":0.059895833333328596,"midi":62,"time":108.41796875,"velocity":0.3937007874015748},{"duration":0.05989583333334281,"midi":41,"time":108.43098958333333,"velocity":0.3937007874015748},{"duration":0.1744791666666714,"midi":77,"time":108.44270833333333,"velocity":0.3937007874015748},{"duration":0.05859375,"midi":74,"time":108.44270833333333,"velocity":0.3937007874015748},{"duration":0.05859375,"midi":37,"time":108.44270833333333,"velocity":0.3937007874015748},{"duration":0.05859375,"midi":67,"time":108.44270833333333,"velocity":0.3937007874015748},{"duration":0.057291666666671404,"midi":56,"time":108.45442708333333,"velocity":0.3937007874015748},{"duration":0.1731770833333428,"midi":85,"time":108.45442708333333,"velocity":0.3937007874015748},{"duration":0.057291666666671404,"midi":63,"time":108.45442708333333,"velocity":0.3937007874015748},{"duration":0.057291666666671404,"midi":47,"time":108.45442708333333,"velocity":0.3937007874015748},{"duration":0.1731770833333286,"midi":84,"time":108.46744791666667,"velocity":0.3937007874015748},{"duration":0.796875,"midi":65,"time":108.47786458333333,"velocity":0.3937007874015748},{"duration":0.057291666666671404,"midi":53,"time":108.47786458333333,"velocity":0.3937007874015748},{"duration":0.40625,"midi":46,"time":108.47786458333333,"velocity":0.3937007874015748},{"duration":0.1744791666666714,"midi":69,"time":108.50130208333333,"velocity":0.3937007874015748},{"duration":0.1744791666666714,"midi":57,"time":108.51171875,"velocity":0.3937007874015748},{"duration":0.1744791666666714,"midi":76,"time":108.51171875,"velocity":0.3937007874015748},{"duration":0.05859375,"midi":53,"time":108.51171875,"velocity":0.3937007874015748},{"duration":0.059895833333328596,"midi":53,"time":108.55729166666667,"velocity":0.3937007874015748},{"duration":0.059895833333328596,"midi":62,"time":108.55729166666667,"velocity":0.3937007874015748},{"duration":0.17578125,"midi":74,"time":108.60416666666667,"velocity":0.3937007874015748},{"duration":0.059895833333328596,"midi":34,"time":108.60416666666667,"velocity":0.3937007874015748},{"duration":0.05859375,"midi":68,"time":108.6171875,"velocity":0.3937007874015748},{"duration":0.05859375,"midi":69,"time":108.65234375,"velocity":0.3937007874015748},{"duration":0.1731770833333286,"midi":34,"time":108.6640625,"velocity":0.3937007874015748},{"duration":0.2955729166666572,"midi":70,"time":108.67447916666667,"velocity":0.3937007874015748},{"duration":0.05989583333334281,"midi":84,"time":108.68489583333333,"velocity":0.3937007874015748},{"duration":0.05989583333334281,"midi":62,"time":108.72005208333333,"velocity":0.3937007874015748},{"duration":0.05989583333334281,"midi":81,"time":108.72005208333333,"velocity":0.3937007874015748},{"duration":0.1393229166666572,"midi":53,"time":108.73307291666667,"velocity":0.3937007874015748},{"duration":0.05859375,"midi":58,"time":108.73307291666667,"velocity":0.3937007874015748},{"duration":0.05859375,"midi":59,"time":108.76822916666667,"velocity":0.3937007874015748},{"duration":0.05859375,"midi":58,"time":108.79036458333333,"velocity":0.3937007874015748},{"duration":0.4244791666666714,"midi":62,"time":108.80078125,"velocity":0.3937007874015748},{"duration":0.0924479166666714,"midi":53,"time":108.81380208333333,"velocity":0.3937007874015748},{"duration":0.05859375,"midi":86,"time":108.82552083333333,"velocity":0.3937007874015748},{"duration":0.07421875,"midi":46,"time":108.82552083333333,"velocity":0.3937007874015748},{"duration":0.05859375,"midi":34,"time":108.8359375,"velocity":0.3937007874015748},{"duration":0.05859375,"midi":57,"time":108.8359375,"velocity":0.3937007874015748},{"duration":0.057291666666671404,"midi":85,"time":108.84895833333333,"velocity":0.3937007874015748},{"duration":0.057291666666671404,"midi":76,"time":108.84895833333333,"velocity":0.3937007874015748},{"duration":0.057291666666671404,"midi":53,"time":108.859375,"velocity":0.3937007874015748},{"duration":0.055989583333328596,"midi":58,"time":108.87109375,"velocity":0.3937007874015748},{"duration":0.055989583333328596,"midi":71,"time":108.89453125,"velocity":0.3937007874015748},{"duration":0.055989583333328596,"midi":83,"time":108.89453125,"velocity":0.3937007874015748},{"duration":0.055989583333328596,"midi":78,"time":108.89453125,"velocity":0.3937007874015748},{"duration":0.1731770833333428,"midi":58,"time":108.91536458333333,"velocity":0.3937007874015748},{"duration":0.05859375,"midi":82,"time":108.92708333333333,"velocity":0.3937007874015748},{"duration":0.1744791666666714,"midi":70,"time":108.92708333333333,"velocity":0.3937007874015748},{"duration":0.05859375,"midi":53,"time":108.94921875,"velocity":0.3937007874015748},{"duration":0.05859375,"midi":82,"time":108.984375,"velocity":0.3937007874015748},{"duration":0.059895833333328596,"midi":58,"time":109.1484375,"velocity":0.3937007874015748},{"duration":0.059895833333328596,"midi":95,"time":109.16015625,"velocity":0.3937007874015748},{"duration":0.059895833333328596,"midi":80,"time":109.1953125,"velocity":0.3937007874015748},{"duration":0.1744791666666714,"midi":83,"time":109.20703125,"velocity":0.3937007874015748},{"duration":0.1744791666666714,"midi":64,"time":109.2421875,"velocity":0.3937007874015748},{"duration":0.05859375,"midi":67,"time":109.2421875,"velocity":0.3937007874015748},{"duration":0.05859375,"midi":57,"time":109.27734375,"velocity":0.3937007874015748},{"duration":0.05859375,"midi":75,"time":109.27734375,"velocity":0.3937007874015748},{"duration":0.05859375,"midi":56,"time":109.29947916666667,"velocity":0.3937007874015748},{"duration":0.17578125,"midi":81,"time":109.32291666666667,"velocity":0.3937007874015748},{"duration":0.17578125,"midi":57,"time":109.33463541666667,"velocity":0.3937007874015748},{"duration":0.17578125,"midi":85,"time":109.35807291666667,"velocity":0.3937007874015748},{"duration":0.6731770833333286,"midi":65,"time":109.39322916666667,"velocity":0.3937007874015748},{"duration":0.05989583333334281,"midi":58,"time":109.41536458333333,"velocity":0.3937007874015748},{"duration":0.05989583333334281,"midi":46,"time":109.45052083333333,"velocity":0.3937007874015748},{"duration":0.17578125,"midi":74,"time":109.46354166666667,"velocity":0.3937007874015748},{"duration":0.05859375,"midi":57,"time":109.51041666666667,"velocity":0.3937007874015748},{"duration":0.05989583333334281,"midi":62,"time":109.52083333333333,"velocity":0.3937007874015748},{"duration":0.05989583333334281,"midi":71,"time":109.60286458333333,"velocity":0.3937007874015748},{"duration":0.05989583333334281,"midi":70,"time":109.63802083333333,"velocity":0.3937007874015748},{"duration":0.05989583333334281,"midi":89,"time":109.63802083333333,"velocity":0.3937007874015748},{"duration":0.05859375,"midi":76,"time":109.65104166666667,"velocity":0.3937007874015748},{"duration":0.05859375,"midi":81,"time":109.65104166666667,"velocity":0.3937007874015748},{"duration":0.171875,"midi":58,"time":109.67317708333333,"velocity":0.3937007874015748},{"duration":0.05859375,"midi":62,"time":109.68489583333333,"velocity":0.3937007874015748},{"duration":0.05859375,"midi":70,"time":109.68489583333333,"velocity":0.3937007874015748},{"duration":0.05729166666665719,"midi":90,"time":109.69791666666667,"velocity":0.3937007874015748},{"duration":0.057291666666671404,"midi":71,"time":109.70833333333333,"velocity":0.3937007874015748},{"duration":0.057291666666671404,"midi":78,"time":109.70833333333333,"velocity":0.3937007874015748},{"duration":0.1705729166666714,"midi":62,"time":109.74348958333333,"velocity":0.3937007874015748},{"duration":0.057291666666671404,"midi":70,"time":109.74348958333333,"velocity":0.3937007874015748},{"duration":0.057291666666671404,"midi":91,"time":109.75390625,"velocity":0.3937007874015748},{"duration":0.057291666666671404,"midi":76,"time":109.765625,"velocity":0.3937007874015748},{"duration":0.057291666666671404,"midi":57,"time":109.765625,"velocity":0.3937007874015748},{"duration":0.05859375,"midi":45,"time":109.77604166666667,"velocity":0.3937007874015748},{"duration":0.1731770833333286,"midi":58,"time":109.78776041666667,"velocity":0.3937007874015748},{"duration":0.05859375,"midi":46,"time":109.81119791666667,"velocity":0.3937007874015748},{"duration":0.1731770833333428,"midi":53,"time":109.82161458333333,"velocity":0.3937007874015748},{"duration":0.05859375,"midi":35,"time":109.82161458333333,"velocity":0.3937007874015748},{"duration":0.05859375,"midi":34,"time":109.84505208333333,"velocity":0.3937007874015748},{"duration":0.1744791666666714,"midi":46,"time":109.84505208333333,"velocity":0.3937007874015748},{"duration":0.05859375,"midi":33,"time":109.88020833333333,"velocity":0.3937007874015748},{"duration":0.05859375,"midi":34,"time":109.90234375,"velocity":0.3937007874015748},{"duration":0.059895833333328596,"midi":53,"time":109.97135416666667,"velocity":0.3937007874015748},{"duration":0.17578125,"midi":68,"time":109.99479166666667,"velocity":0.3937007874015748},{"duration":0.059895833333328596,"midi":74,"time":110.00651041666667,"velocity":0.3937007874015748},{"duration":0.059895833333328596,"midi":57,"time":110.00651041666667,"velocity":0.3937007874015748},{"duration":0.80078125,"midi":46,"time":110.03125,"velocity":0.3937007874015748},{"duration":0.059895833333328596,"midi":84,"time":110.05338541666667,"velocity":0.3937007874015748},{"duration":0.171875,"midi":53,"time":110.06510416666667,"velocity":0.3937007874015748},{"duration":0.296875,"midi":69,"time":110.07682291666667,"velocity":0.3937007874015748},{"duration":0.059895833333328596,"midi":85,"time":110.08854166666667,"velocity":0.3937007874015748},{"duration":0.059895833333328596,"midi":57,"time":110.08854166666667,"velocity":0.3937007874015748},{"duration":0.296875,"midi":76,"time":110.08854166666667,"velocity":0.3937007874015748},{"duration":0.05859375,"midi":91,"time":110.10026041666667,"velocity":0.3937007874015748},{"duration":0.171875,"midi":95,"time":110.10026041666667,"velocity":0.3937007874015748},{"duration":0.057291666666671404,"midi":66,"time":110.11328125,"velocity":0.3937007874015748},{"duration":0.05729166666665719,"midi":34,"time":110.12369791666667,"velocity":0.3937007874015748},{"duration":0.055989583333328596,"midi":90,"time":110.13541666666667,"velocity":0.3937007874015748},{"duration":0.055989583333328596,"midi":34,"time":110.15885416666667,"velocity":0.3937007874015748},{"duration":0.055989583333328596,"midi":57,"time":110.15885416666667,"velocity":0.3937007874015748},{"duration":0.171875,"midi":93,"time":110.16927083333333,"velocity":0.3937007874015748},{"duration":0.1731770833333286,"midi":87,"time":110.1796875,"velocity":0.3937007874015748},{"duration":0.05859375,"midi":34,"time":110.19140625,"velocity":0.3937007874015748},{"duration":0.05859375,"midi":89,"time":110.19140625,"velocity":0.3937007874015748},{"duration":0.1744791666666572,"midi":53,"time":110.20182291666667,"velocity":0.3937007874015748},{"duration":0.059895833333328596,"midi":34,"time":110.22526041666667,"velocity":0.3937007874015748},{"duration":0.059895833333328596,"midi":57,"time":110.22526041666667,"velocity":0.3937007874015748},{"duration":0.05859375,"midi":91,"time":110.23697916666667,"velocity":0.3937007874015748},{"duration":0.30078125,"midi":34,"time":110.26041666666667,"velocity":0.3937007874015748},{"duration":0.05859375,"midi":57,"time":110.27213541666667,"velocity":0.3937007874015748},{"duration":0.3020833333333428,"midi":65,"time":110.29427083333333,"velocity":0.3937007874015748},{"duration":0.17578125,"midi":57,"time":110.30598958333333,"velocity":0.3937007874015748},{"duration":0.05989583333334281,"midi":89,"time":110.30598958333333,"velocity":0.3937007874015748},{"duration":0.05989583333334281,"midi":88,"time":110.34114583333333,"velocity":0.3937007874015748},{"duration":0.05989583333334281,"midi":53,"time":110.35286458333333,"velocity":0.3937007874015748},{"duration":0.05989583333334281,"midi":92,"time":110.37630208333333,"velocity":0.3937007874015748},{"duration":0.1770833333333428,"midi":53,"time":110.45833333333333,"velocity":0.3937007874015748},{"duration":0.3033854166666714,"midi":34,"time":110.5390625,"velocity":0.3937007874015748},{"duration":0.061197916666671404,"midi":56,"time":110.55078125,"velocity":0.3937007874015748},{"duration":0.05989583333334281,"midi":57,"time":110.57552083333333,"velocity":0.3937007874015748},{"duration":0.1744791666666714,"midi":62,"time":110.58723958333333,"velocity":0.3937007874015748},{"duration":0.1744791666666572,"midi":65,"time":110.61197916666667,"velocity":0.3937007874015748},{"duration":0.17578125,"midi":88,"time":110.62239583333333,"velocity":0.3937007874015748},{"duration":0.05859375,"midi":53,"time":110.63411458333333,"velocity":0.3937007874015748},{"duration":0.1770833333333428,"midi":57,"time":110.65755208333333,"velocity":0.3937007874015748},{"duration":0.061197916666671404,"midi":64,"time":110.7734375,"velocity":0.3937007874015748},{"duration":0.061197916666671404,"midi":56,"time":110.7734375,"velocity":0.3937007874015748},{"duration":0.059895833333328596,"midi":45,"time":110.78515625,"velocity":0.3937007874015748},{"duration":0.059895833333328596,"midi":60,"time":110.796875,"velocity":0.3937007874015748},{"duration":0.4270833333333428,"midi":46,"time":110.80989583333333,"velocity":0.3937007874015748},{"duration":0.05859375,"midi":34,"time":110.82161458333333,"velocity":0.3937007874015748},{"duration":0.059895833333328596,"midi":57,"time":110.890625,"velocity":0.3937007874015748},{"duration":0.1770833333333286,"midi":34,"time":110.890625,"velocity":0.3937007874015748},{"duration":0.059895833333328596,"midi":53,"time":110.9375,"velocity":0.3937007874015748},{"duration":0.1536458333333286,"midi":34,"time":111.01953125,"velocity":0.3937007874015748},{"duration":0.05989583333334281,"midi":53,"time":111.03255208333333,"velocity":0.3937007874015748},{"duration":0.05989583333334281,"midi":57,"time":111.07942708333333,"velocity":0.3937007874015748},{"duration":0.0807291666666714,"midi":34,"time":111.11458333333333,"velocity":0.3937007874015748},{"duration":0.2994791666666714,"midi":65,"time":111.14973958333333,"velocity":0.3937007874015748},{"duration":0.1744791666666714,"midi":57,"time":111.171875,"velocity":0.3937007874015748},{"duration":0.17578125,"midi":62,"time":111.18229166666667,"velocity":0.3937007874015748},{"duration":0.17578125,"midi":89,"time":111.18229166666667,"velocity":0.3937007874015748},{"duration":0.059895833333328596,"midi":34,"time":111.1953125,"velocity":0.3937007874015748},{"duration":0.17578125,"midi":46,"time":111.1953125,"velocity":0.3937007874015748},{"duration":0.17578125,"midi":34,"time":111.265625,"velocity":0.3937007874015748},{"duration":0.1744791666666572,"midi":57,"time":111.29947916666667,"velocity":0.3937007874015748},{"duration":0.05859375,"midi":62,"time":111.3828125,"velocity":0.3937007874015748},{"duration":0.05989583333334281,"midi":89,"time":111.52083333333333,"velocity":0.3937007874015748},{"duration":0.05989583333334281,"midi":65,"time":111.52083333333333,"velocity":0.3937007874015748},{"duration":0.1705729166666714,"midi":76,"time":111.54427083333333,"velocity":0.3937007874015748},{"duration":0.05989583333334281,"midi":64,"time":111.54427083333333,"velocity":0.3937007874015748},{"duration":0.2916666666666714,"midi":79,"time":111.54427083333333,"velocity":0.3937007874015748},{"duration":0.2916666666666714,"midi":83,"time":111.55598958333333,"velocity":0.3937007874015748},{"duration":0.05859375,"midi":37,"time":111.55598958333333,"velocity":0.3937007874015748},{"duration":0.05859375,"midi":92,"time":111.55598958333333,"velocity":0.3937007874015748},{"duration":0.05859375,"midi":60,"time":111.55598958333333,"velocity":0.3937007874015748},{"duration":0.057291666666671404,"midi":94,"time":111.56770833333333,"velocity":0.3937007874015748},{"duration":0.38671875,"midi":45,"time":111.58072916666667,"velocity":0.3937007874015748},{"duration":0.055989583333328596,"midi":52,"time":111.58072916666667,"velocity":0.3937007874015748},{"duration":0.16796875,"midi":88,"time":111.59114583333333,"velocity":0.3937007874015748},{"duration":0.16796875,"midi":74,"time":111.59114583333333,"velocity":0.3937007874015748},{"duration":0.16796875,"midi":93,"time":111.59114583333333,"velocity":0.3937007874015748},{"duration":0.16796875,"midi":90,"time":111.59114583333333,"velocity":0.3937007874015748},{"duration":0.05598958333334281,"midi":29,"time":111.59114583333333,"velocity":0.3937007874015748},{"duration":0.1666666666666714,"midi":81,"time":111.60286458333333,"velocity":0.3937007874015748},{"duration":0.1666666666666714,"midi":71,"time":111.60286458333333,"velocity":0.3937007874015748},{"duration":0.1666666666666714,"midi":86,"time":111.60286458333333,"velocity":0.3937007874015748},{"duration":0.05598958333334281,"midi":61,"time":111.61458333333333,"velocity":0.3937007874015748},{"duration":0.055989583333328596,"midi":52,"time":111.625,"velocity":0.3937007874015748},{"duration":0.055989583333328596,"midi":95,"time":111.625,"velocity":0.3937007874015748},{"duration":0.055989583333328596,"midi":64,"time":111.63541666666667,"velocity":0.3937007874015748},{"duration":0.055989583333328596,"midi":60,"time":111.63541666666667,"velocity":0.3937007874015748},{"duration":0.1692708333333286,"midi":67,"time":111.64713541666667,"velocity":0.3937007874015748},{"duration":0.057291666666671404,"midi":69,"time":111.65755208333333,"velocity":0.3937007874015748},{"duration":0.057291666666671404,"midi":84,"time":111.65755208333333,"velocity":0.3937007874015748},{"duration":0.057291666666671404,"midi":52,"time":111.65755208333333,"velocity":0.3937007874015748},{"duration":0.05598958333334281,"midi":62,"time":111.66927083333333,"velocity":0.3937007874015748},{"duration":0.057291666666671404,"midi":33,"time":111.6796875,"velocity":0.3937007874015748},{"duration":0.4205729166666714,"midi":76,"time":111.69140625,"velocity":0.3937007874015748},{"duration":0.4205729166666714,"midi":60,"time":111.69140625,"velocity":0.3937007874015748},{"duration":0.171875,"midi":52,"time":111.69140625,"velocity":0.3937007874015748},{"duration":0.057291666666671404,"midi":89,"time":111.69140625,"velocity":0.3937007874015748},{"duration":0.05729166666665719,"midi":85,"time":111.70182291666667,"velocity":0.3937007874015748},{"duration":0.546875,"midi":64,"time":111.71354166666667,"velocity":0.3937007874015748},{"duration":0.5481770833333286,"midi":90,"time":111.72526041666667,"velocity":0.3937007874015748},{"duration":0.05729166666665719,"midi":33,"time":111.72526041666667,"velocity":0.3937007874015748},{"duration":0.171875,"midi":67,"time":111.72526041666667,"velocity":0.3937007874015748},{"duration":0.057291666666671404,"midi":88,"time":111.74739583333333,"velocity":0.3937007874015748},{"duration":0.5481770833333428,"midi":86,"time":111.74739583333333,"velocity":0.3937007874015748},{"duration":0.05859375,"midi":33,"time":111.76953125,"velocity":0.3937007874015748},{"duration":0.05859375,"midi":83,"time":111.8046875,"velocity":0.3937007874015748},{"duration":0.05859375,"midi":52,"time":111.8046875,"velocity":0.3937007874015748},{"duration":0.05859375,"midi":33,"time":111.81510416666667,"velocity":0.3937007874015748},{"duration":0.059895833333328596,"midi":34,"time":111.87369791666667,"velocity":0.3937007874015748},{"duration":0.059895833333328596,"midi":67,"time":111.87369791666667,"velocity":0.3937007874015748},{"duration":0.059895833333328596,"midi":52,"time":111.87369791666667,"velocity":0.3937007874015748},{"duration":0.2994791666666572,"midi":95,"time":111.87369791666667,"velocity":0.3937007874015748},{"duration":0.1770833333333428,"midi":79,"time":111.88411458333333,"velocity":0.3937007874015748},{"duration":0.08984375,"midi":45,"time":111.90755208333333,"velocity":0.3937007874015748},{"duration":0.1744791666666714,"midi":83,"time":111.94270833333333,"velocity":0.3937007874015748},{"duration":0.05989583333334281,"midi":88,"time":111.94270833333333,"velocity":0.3937007874015748},{"duration":0.2994791666666572,"midi":67,"time":111.95572916666667,"velocity":0.3937007874015748},{"duration":0.05859375,"midi":32,"time":111.96744791666667,"velocity":0.3937007874015748},{"duration":0.4231770833333286,"midi":45,"time":111.96744791666667,"velocity":0.3937007874015748},{"duration":0.05989583333334281,"midi":33,"time":112.01302083333333,"velocity":0.3937007874015748},{"duration":0.05859375,"midi":71,"time":112.04817708333333,"velocity":0.3937007874015748},{"duration":0.2994791666666714,"midi":88,"time":112.08333333333333,"velocity":0.3937007874015748},{"duration":0.05859375,"midi":32,"time":112.10677083333333,"velocity":0.3937007874015748},{"duration":0.05859375,"midi":60,"time":112.12890625,"velocity":0.3937007874015748},{"duration":0.2109375,"midi":89,"time":112.15234375,"velocity":0.3937007874015748},{"duration":0.17578125,"midi":33,"time":112.17447916666667,"velocity":0.3937007874015748},{"duration":0.17578125,"midi":95,"time":112.1875,"velocity":0.3937007874015748},{"duration":0.05859375,"midi":64,"time":112.26953125,"velocity":0.3937007874015748},{"duration":0.1471354166666714,"midi":89,"time":112.3046875,"velocity":0.3937007874015748},{"duration":0.05859375,"midi":87,"time":112.3046875,"velocity":0.3937007874015748},{"duration":0.1744791666666714,"midi":65,"time":112.3046875,"velocity":0.3937007874015748},{"duration":0.05859375,"midi":84,"time":112.3046875,"velocity":0.3937007874015748},{"duration":0.05859375,"midi":86,"time":112.32682291666667,"velocity":0.3937007874015748},{"duration":0.05859375,"midi":46,"time":112.32682291666667,"velocity":0.3937007874015748},{"duration":0.17578125,"midi":90,"time":112.33854166666667,"velocity":0.3937007874015748},{"duration":0.17578125,"midi":88,"time":112.33854166666667,"velocity":0.3937007874015748},{"duration":0.05859375,"midi":52,"time":112.35026041666667,"velocity":0.3937007874015748},{"duration":0.1744791666666572,"midi":76,"time":112.35026041666667,"velocity":0.3937007874015748},{"duration":0.1744791666666572,"midi":95,"time":112.35026041666667,"velocity":0.3937007874015748},{"duration":0.05859375,"midi":57,"time":112.35026041666667,"velocity":0.3937007874015748},{"duration":0.05859375,"midi":85,"time":112.37369791666667,"velocity":0.3937007874015748},{"duration":0.1744791666666572,"midi":33,"time":112.37369791666667,"velocity":0.3937007874015748},{"duration":0.4231770833333286,"midi":45,"time":112.37369791666667,"velocity":0.3937007874015748},{"duration":0.05859375,"midi":83,"time":112.38541666666667,"velocity":0.3937007874015748},{"duration":0.1744791666666714,"midi":86,"time":112.39583333333333,"velocity":0.3937007874015748},{"duration":0.05989583333334281,"midi":84,"time":112.41927083333333,"velocity":0.3937007874015748},{"duration":0.05989583333334281,"midi":91,"time":112.41927083333333,"velocity":0.3937007874015748},{"duration":0.05989583333334281,"midi":89,"time":112.41927083333333,"velocity":0.3937007874015748},{"duration":0.05989583333334281,"midi":64,"time":112.45442708333333,"velocity":0.3937007874015748},{"duration":0.05859375,"midi":95,"time":112.46614583333333,"velocity":0.3937007874015748},{"duration":0.2981770833333428,"midi":67,"time":112.47786458333333,"velocity":0.3937007874015748},{"duration":0.05859375,"midi":52,"time":112.48958333333333,"velocity":0.3937007874015748},{"duration":0.05859375,"midi":91,"time":112.48958333333333,"velocity":0.3937007874015748},{"duration":0.05859375,"midi":87,"time":112.48958333333333,"velocity":0.3937007874015748},{"duration":0.1744791666666714,"midi":94,"time":112.50130208333333,"velocity":0.3937007874015748},{"duration":0.1744791666666714,"midi":33,"time":112.50130208333333,"velocity":0.3937007874015748},{"duration":0.057291666666671404,"midi":63,"time":112.51302083333333,"velocity":0.3937007874015748},{"duration":0.17578125,"midi":76,"time":112.53515625,"velocity":0.3937007874015748},{"duration":0.05859375,"midi":52,"time":112.53515625,"velocity":0.3937007874015748},{"duration":0.17578125,"midi":92,"time":112.546875,"velocity":0.3937007874015748},{"duration":0.17578125,"midi":60,"time":112.546875,"velocity":0.3937007874015748},{"duration":0.05859375,"midi":86,"time":112.546875,"velocity":0.3937007874015748},{"duration":0.17578125,"midi":95,"time":112.546875,"velocity":0.3937007874015748},{"duration":0.05859375,"midi":88,"time":112.546875,"velocity":0.3937007874015748},{"duration":0.17578125,"midi":64,"time":112.546875,"velocity":0.3937007874015748},{"duration":0.059895833333328596,"midi":91,"time":112.61588541666667,"velocity":0.3937007874015748},{"duration":0.059895833333328596,"midi":84,"time":112.62760416666667,"velocity":0.3937007874015748},{"duration":0.059895833333328596,"midi":63,"time":112.62760416666667,"velocity":0.3937007874015748},{"duration":0.059895833333328596,"midi":64,"time":112.66276041666667,"velocity":0.3937007874015748},{"duration":0.2994791666666572,"midi":92,"time":112.69791666666667,"velocity":0.3937007874015748},{"duration":0.1731770833333286,"midi":33,"time":112.69791666666667,"velocity":0.3937007874015748},{"duration":0.2981770833333286,"midi":80,"time":112.70963541666667,"velocity":0.3937007874015748},{"duration":0.2981770833333286,"midi":87,"time":112.70963541666667,"velocity":0.3937007874015748},{"duration":0.2981770833333286,"midi":90,"time":112.70963541666667,"velocity":0.3937007874015748},{"duration":0.05859375,"midi":69,"time":112.70963541666667,"velocity":0.3937007874015748},{"duration":0.057291666666671404,"midi":84,"time":112.72265625,"velocity":0.3937007874015748},{"duration":0.2981770833333286,"midi":60,"time":112.73307291666667,"velocity":0.3937007874015748},{"duration":0.1744791666666572,"midi":76,"time":112.76822916666667,"velocity":0.3937007874015748},{"duration":0.17578125,"midi":84,"time":112.77864583333333,"velocity":0.3937007874015748},{"duration":0.17578125,"midi":64,"time":112.82421875,"velocity":0.3937007874015748},{"duration":0.1744791666666714,"midi":89,"time":112.91796875,"velocity":0.3937007874015748},{"duration":0.059895833333328596,"midi":95,"time":112.9296875,"velocity":0.3937007874015748},{"duration":0.05859375,"midi":52,"time":112.94140625,"velocity":0.3937007874015748},{"duration":0.05859375,"midi":86,"time":112.94140625,"velocity":0.3937007874015748},{"duration":0.05859375,"midi":79,"time":112.94140625,"velocity":0.3937007874015748},{"duration":0.057291666666671404,"midi":87,"time":112.98958333333333,"velocity":0.3937007874015748},{"duration":0.1705729166666714,"midi":80,"time":112.98958333333333,"velocity":0.3937007874015748},{"duration":0.1705729166666714,"midi":52,"time":113,"velocity":0.3937007874015748},{"duration":0.057291666666671404,"midi":79,"time":113,"velocity":0.3937007874015748},{"duration":0.057291666666671404,"midi":88,"time":113,"velocity":0.3937007874015748},{"duration":0.05859375,"midi":84,"time":113.01041666666667,"velocity":0.3937007874015748},{"duration":0.05859375,"midi":60,"time":113.03385416666667,"velocity":0.3937007874015748},{"duration":0.05859375,"midi":83,"time":113.05598958333333,"velocity":0.3937007874015748},{"duration":0.05859375,"midi":71,"time":113.05598958333333,"velocity":0.3937007874015748},{"duration":0.05859375,"midi":70,"time":113.07942708333333,"velocity":0.3937007874015748},{"duration":0.1705729166666714,"midi":80,"time":113.07942708333333,"velocity":0.3937007874015748},{"duration":0.057291666666671404,"midi":86,"time":113.09114583333333,"velocity":0.3937007874015748},{"duration":0.1705729166666714,"midi":78,"time":113.10286458333333,"velocity":0.3937007874015748},{"duration":0.057291666666671404,"midi":85,"time":113.10286458333333,"velocity":0.3937007874015748},{"duration":0.057291666666671404,"midi":53,"time":113.10286458333333,"velocity":0.3937007874015748},{"duration":0.057291666666671404,"midi":88,"time":113.10286458333333,"velocity":0.3937007874015748},{"duration":0.057291666666671404,"midi":41,"time":113.125,"velocity":0.3937007874015748},{"duration":0.057291666666671404,"midi":66,"time":113.125,"velocity":0.3937007874015748},{"duration":0.1705729166666714,"midi":57,"time":113.13802083333333,"velocity":0.3937007874015748},{"duration":0.057291666666671404,"midi":90,"time":113.1484375,"velocity":0.3937007874015748},{"duration":0.05729166666665719,"midi":85,"time":113.15885416666667,"velocity":0.3937007874015748},{"duration":0.057291666666671404,"midi":45,"time":113.16927083333333,"velocity":0.3937007874015748},{"duration":0.2981770833333286,"midi":64,"time":113.18229166666667,"velocity":0.3937007874015748},{"duration":0.057291666666671404,"midi":80,"time":113.19270833333333,"velocity":0.3937007874015748},{"duration":0.5442708333333428,"midi":79,"time":113.21614583333333,"velocity":0.3937007874015748},{"duration":0.421875,"midi":86,"time":113.21614583333333,"velocity":0.3937007874015748},{"duration":0.421875,"midi":89,"time":113.2265625,"velocity":0.3937007874015748},{"duration":0.1744791666666714,"midi":45,"time":113.2265625,"velocity":0.3937007874015748},{"duration":0.2903645833333286,"midi":95,"time":113.31901041666667,"velocity":0.3937007874015748},{"duration":0.05859375,"midi":67,"time":113.34244791666667,"velocity":0.3937007874015748},{"duration":0.17578125,"midi":45,"time":113.34244791666667,"velocity":0.3937007874015748},{"duration":0.1744791666666572,"midi":57,"time":113.37760416666667,"velocity":0.3937007874015748},{"duration":0.1744791666666714,"midi":81,"time":113.45833333333333,"velocity":0.3937007874015748},{"duration":0.05989583333334281,"midi":85,"time":113.47005208333333,"velocity":0.3937007874015748},{"duration":0.05859375,"midi":53,"time":113.48307291666667,"velocity":0.3937007874015748},{"duration":0.05859375,"midi":64,"time":113.48307291666667,"velocity":0.3937007874015748},{"duration":0.05859375,"midi":69,"time":113.48307291666667,"velocity":0.3937007874015748},{"duration":0.05859375,"midi":60,"time":113.48307291666667,"velocity":0.3937007874015748},{"duration":0.171875,"midi":77,"time":113.48307291666667,"velocity":0.3937007874015748},{"duration":0.05859375,"midi":51,"time":113.50520833333333,"velocity":0.3937007874015748},{"duration":0.05859375,"midi":68,"time":113.50520833333333,"velocity":0.3937007874015748},{"duration":0.05729166666665719,"midi":50,"time":113.52994791666667,"velocity":0.3937007874015748},{"duration":0.1692708333333286,"midi":85,"time":113.52994791666667,"velocity":0.3937007874015748},{"duration":0.05859375,"midi":58,"time":113.54036458333333,"velocity":0.3937007874015748},{"duration":0.05859375,"midi":67,"time":113.54036458333333,"velocity":0.3937007874015748},{"duration":0.05859375,"midi":52,"time":113.55078125,"velocity":0.3937007874015748},{"duration":0.05859375,"midi":65,"time":113.55078125,"velocity":0.3937007874015748},{"duration":0.06640625,"midi":95,"time":113.55078125,"velocity":0.3937007874015748},{"duration":0.05859375,"midi":45,"time":113.57421875,"velocity":0.3937007874015748},{"duration":0.057291666666671404,"midi":57,"time":113.5859375,"velocity":0.3937007874015748},{"duration":0.057291666666671404,"midi":53,"time":113.609375,"velocity":0.3937007874015748},{"duration":0.05729166666665719,"midi":64,"time":113.61979166666667,"velocity":0.3937007874015748},{"duration":0.05729166666665719,"midi":77,"time":113.61979166666667,"velocity":0.3937007874015748},{"duration":0.055989583333328596,"midi":57,"time":113.6328125,"velocity":0.3937007874015748},{"duration":0.171875,"midi":86,"time":113.64322916666667,"velocity":0.3937007874015748},{"duration":0.057291666666671404,"midi":78,"time":113.65364583333333,"velocity":0.3937007874015748},{"duration":0.171875,"midi":90,"time":113.66536458333333,"velocity":0.3937007874015748},{"duration":0.4205729166666714,"midi":87,"time":113.67708333333333,"velocity":0.3937007874015748},{"duration":0.057291666666671404,"midi":55,"time":113.67708333333333,"velocity":0.3937007874015748},{"duration":0.296875,"midi":93,"time":113.67708333333333,"velocity":0.3937007874015748},{"duration":0.057291666666671404,"midi":65,"time":113.67708333333333,"velocity":0.3937007874015748},{"duration":0.1731770833333286,"midi":77,"time":113.6875,"velocity":0.3937007874015748},{"duration":0.421875,"midi":89,"time":113.6875,"velocity":0.3937007874015748},{"duration":0.1731770833333286,"midi":86,"time":113.6875,"velocity":0.3937007874015748},{"duration":0.05859375,"midi":64,"time":113.69791666666667,"velocity":0.3937007874015748},{"duration":0.421875,"midi":84,"time":113.7109375,"velocity":0.3937007874015748},{"duration":0.1731770833333286,"midi":91,"time":113.7109375,"velocity":0.3937007874015748},{"duration":0.1744791666666572,"midi":65,"time":113.72135416666667,"velocity":0.3937007874015748},{"duration":0.1744791666666572,"midi":74,"time":113.73307291666667,"velocity":0.3937007874015748},{"duration":0.421875,"midi":79,"time":113.73307291666667,"velocity":0.3937007874015748},{"duration":0.05859375,"midi":55,"time":113.77864583333333,"velocity":0.3937007874015748},{"duration":0.05859375,"midi":60,"time":113.80208333333333,"velocity":0.3937007874015748},{"duration":0.05859375,"midi":68,"time":113.80208333333333,"velocity":0.3937007874015748},{"duration":0.1744791666666714,"midi":70,"time":113.81380208333333,"velocity":0.3937007874015748},{"duration":0.1744791666666714,"midi":76,"time":113.84765625,"velocity":0.3937007874015748},{"duration":0.059895833333328596,"midi":57,"time":113.84765625,"velocity":0.3937007874015748},{"duration":0.059895833333328596,"midi":64,"time":113.8828125,"velocity":0.3937007874015748},{"duration":0.05859375,"midi":51,"time":113.89453125,"velocity":0.3937007874015748},{"duration":0.1744791666666714,"midi":74,"time":113.89453125,"velocity":0.3937007874015748},{"duration":0.05859375,"midi":85,"time":113.9296875,"velocity":0.3937007874015748},{"duration":0.1731770833333286,"midi":77,"time":113.9296875,"velocity":0.3937007874015748},{"duration":0.05859375,"midi":60,"time":113.9296875,"velocity":0.3937007874015748},{"duration":0.05859375,"midi":64,"time":113.9296875,"velocity":0.3937007874015748},{"duration":0.1731770833333428,"midi":89,"time":113.94270833333333,"velocity":0.3937007874015748},{"duration":0.05859375,"midi":45,"time":113.953125,"velocity":0.3937007874015748},{"duration":0.05859375,"midi":69,"time":113.96354166666667,"velocity":0.3937007874015748},{"duration":0.1744791666666572,"midi":84,"time":113.96354166666667,"velocity":0.3937007874015748},{"duration":0.05859375,"midi":57,"time":113.9765625,"velocity":0.3937007874015748},{"duration":0.05859375,"midi":32,"time":113.9765625,"velocity":0.3937007874015748},{"duration":0.05859375,"midi":52,"time":113.98828125,"velocity":0.3937007874015748},{"duration":0.1731770833333286,"midi":45,"time":113.98828125,"velocity":0.3937007874015748},{"duration":0.05859375,"midi":70,"time":114.01171875,"velocity":0.3937007874015748},{"duration":0.05859375,"midi":65,"time":114.01171875,"velocity":0.3937007874015748},{"duration":0.05859375,"midi":33,"time":114.02213541666667,"velocity":0.3937007874015748},{"duration":0.05859375,"midi":61,"time":114.05729166666667,"velocity":0.3937007874015748},{"duration":0.17578125,"midi":90,"time":114.05729166666667,"velocity":0.3937007874015748},{"duration":0.2994791666666572,"midi":67,"time":114.06901041666667,"velocity":0.3937007874015748},{"duration":0.1744791666666572,"midi":86,"time":114.06901041666667,"velocity":0.3937007874015748},{"duration":0.05859375,"midi":48,"time":114.07942708333333,"velocity":0.3937007874015748},{"duration":0.05859375,"midi":71,"time":114.07942708333333,"velocity":0.3937007874015748},{"duration":0.05859375,"midi":64,"time":114.09114583333333,"velocity":0.3937007874015748},{"duration":0.05859375,"midi":33,"time":114.11458333333333,"velocity":0.3937007874015748},{"duration":0.05989583333334281,"midi":57,"time":114.12630208333333,"velocity":0.3937007874015748},{"duration":0.05989583333334281,"midi":46,"time":114.13802083333333,"velocity":0.3937007874015748},{"duration":0.061197916666671404,"midi":70,"time":114.1484375,"velocity":0.3937007874015748},{"duration":0.061197916666671404,"midi":77,"time":114.1484375,"velocity":0.3937007874015748},{"duration":0.17578125,"midi":45,"time":114.16015625,"velocity":0.3937007874015748},{"duration":0.05989583333334281,"midi":64,"time":114.17317708333333,"velocity":0.3937007874015748},{"duration":0.05989583333334281,"midi":70,"time":114.22005208333333,"velocity":0.3937007874015748},{"duration":0.05989583333334281,"midi":56,"time":114.22005208333333,"velocity":0.3937007874015748},{"duration":0.05989583333334281,"midi":33,"time":114.22005208333333,"velocity":0.3937007874015748},{"duration":0.05989583333334281,"midi":88,"time":114.25520833333333,"velocity":0.3937007874015748},{"duration":0.05989583333334281,"midi":46,"time":114.25520833333333,"velocity":0.3937007874015748},{"duration":0.1744791666666714,"midi":57,"time":114.25520833333333,"velocity":0.3937007874015748},{"duration":0.05859375,"midi":80,"time":114.26692708333333,"velocity":0.3937007874015748},{"duration":0.2981770833333428,"midi":89,"time":114.26692708333333,"velocity":0.3937007874015748},{"duration":0.05859375,"midi":87,"time":114.26692708333333,"velocity":0.3937007874015748},{"duration":0.057291666666671404,"midi":45,"time":114.27864583333333,"velocity":0.3937007874015748},{"duration":0.05859375,"midi":62,"time":114.29036458333333,"velocity":0.3937007874015748},{"duration":0.1744791666666714,"midi":91,"time":114.29036458333333,"velocity":0.3937007874015748},{"duration":0.1744791666666714,"midi":86,"time":114.30208333333333,"velocity":0.3937007874015748},{"duration":0.1744791666666714,"midi":95,"time":114.31380208333333,"velocity":0.3937007874015748},{"duration":0.17578125,"midi":79,"time":114.32552083333333,"velocity":0.3937007874015748},{"duration":0.17578125,"midi":57,"time":114.3359375,"velocity":0.3937007874015748},{"duration":0.059895833333328596,"midi":64,"time":114.359375,"velocity":0.3937007874015748},{"duration":0.2981770833333286,"midi":60,"time":114.42838541666667,"velocity":0.3937007874015748},{"duration":0.09375,"midi":90,"time":114.44140625,"velocity":0.3937007874015748},{"duration":0.059895833333328596,"midi":41,"time":114.44140625,"velocity":0.3937007874015748},{"duration":0.059895833333328596,"midi":65,"time":114.46354166666667,"velocity":0.3937007874015748},{"duration":0.1393229166666714,"midi":90,"time":114.4765625,"velocity":0.3937007874015748},{"duration":0.05859375,"midi":78,"time":114.4765625,"velocity":0.3937007874015748},{"duration":0.05859375,"midi":85,"time":114.48828125,"velocity":0.3937007874015748},{"duration":0.057291666666671404,"midi":44,"time":114.5,"velocity":0.3937007874015748},{"duration":0.171875,"midi":77,"time":114.5234375,"velocity":0.3937007874015748},{"duration":0.171875,"midi":93,"time":114.5234375,"velocity":0.3937007874015748},{"duration":0.1731770833333286,"midi":89,"time":114.53385416666667,"velocity":0.3937007874015748},{"duration":0.1731770833333286,"midi":84,"time":114.53385416666667,"velocity":0.3937007874015748},{"duration":0.05859375,"midi":79,"time":114.55729166666667,"velocity":0.3937007874015748},{"duration":0.1731770833333286,"midi":65,"time":114.55729166666667,"velocity":0.3937007874015748},{"duration":0.05859375,"midi":42,"time":114.56770833333333,"velocity":0.3937007874015748},{"duration":0.05859375,"midi":92,"time":114.61458333333333,"velocity":0.3937007874015748},{"duration":0.1731770833333428,"midi":91,"time":114.62630208333333,"velocity":0.3937007874015748},{"duration":0.1731770833333428,"midi":90,"time":114.62630208333333,"velocity":0.3937007874015748},{"duration":0.05859375,"midi":83,"time":114.62630208333333,"velocity":0.3937007874015748},{"duration":0.05859375,"midi":76,"time":114.62630208333333,"velocity":0.3937007874015748},{"duration":0.05859375,"midi":63,"time":114.62630208333333,"velocity":0.3937007874015748},{"duration":0.1744791666666714,"midi":86,"time":114.6484375,"velocity":0.3937007874015748},{"duration":0.42578125,"midi":84,"time":114.6484375,"velocity":0.3937007874015748},{"duration":0.05859375,"midi":82,"time":114.6484375,"velocity":0.3937007874015748},{"duration":0.05859375,"midi":62,"time":114.66015625,"velocity":0.3937007874015748},{"duration":0.05859375,"midi":40,"time":114.66015625,"velocity":0.3937007874015748},{"duration":0.057291666666671404,"midi":37,"time":114.67317708333333,"velocity":0.3937007874015748},{"duration":0.1744791666666714,"midi":81,"time":114.67317708333333,"velocity":0.3937007874015748},{"duration":0.1744791666666714,"midi":90,"time":114.67317708333333,"velocity":0.3937007874015748},{"duration":0.057291666666671404,"midi":77,"time":114.68359375,"velocity":0.3937007874015748},{"duration":0.057291666666671404,"midi":36,"time":114.68359375,"velocity":0.3937007874015748},{"duration":0.05859375,"midi":80,"time":114.69401041666667,"velocity":0.3937007874015748},{"duration":0.8046875,"midi":50,"time":114.70703125,"velocity":0.3937007874015748},{"duration":0.05859375,"midi":76,"time":114.72916666666667,"velocity":0.3937007874015748},{"duration":0.8033854166666572,"midi":57,"time":114.72916666666667,"velocity":0.3937007874015748},{"duration":0.5520833333333286,"midi":65,"time":114.74088541666667,"velocity":0.3937007874015748},{"duration":0.059895833333328596,"midi":73,"time":114.78776041666667,"velocity":0.3937007874015748},{"duration":0.1770833333333286,"midi":88,"time":114.78776041666667,"velocity":0.3937007874015748},{"duration":0.059895833333328596,"midi":89,"time":114.78776041666667,"velocity":0.3937007874015748},{"duration":0.1770833333333428,"midi":81,"time":114.80989583333333,"velocity":0.3937007874015748},{"duration":0.30078125,"midi":74,"time":114.82291666666667,"velocity":0.3937007874015748},{"duration":0.17578125,"midi":90,"time":114.83463541666667,"velocity":0.3937007874015748},{"duration":0.059895833333328596,"midi":82,"time":114.88151041666667,"velocity":0.3937007874015748},{"duration":0.059895833333328596,"midi":94,"time":114.89322916666667,"velocity":0.3937007874015748},{"duration":0.1744791666666714,"midi":81,"time":114.90625,"velocity":0.3937007874015748},{"duration":0.05859375,"midi":95,"time":114.94140625,"velocity":0.3937007874015748},{"duration":0.1731770833333286,"midi":84,"time":114.98697916666667,"velocity":0.3937007874015748},{"duration":0.171875,"midi":90,"time":114.99869791666667,"velocity":0.3937007874015748},{"duration":0.171875,"midi":84,"time":115.01041666666667,"velocity":0.3937007874015748},{"duration":0.05859375,"midi":38,"time":115.02213541666667,"velocity":0.3937007874015748},{"duration":0.05859375,"midi":89,"time":115.05729166666667,"velocity":0.3937007874015748},{"duration":0.05859375,"midi":95,"time":115.09114583333333,"velocity":0.3937007874015748},{"duration":0.057291666666671404,"midi":73,"time":115.10286458333333,"velocity":0.3937007874015748},{"duration":0.05598958333334281,"midi":86,"time":115.11458333333333,"velocity":0.3937007874015748},{"duration":0.061197916666671404,"midi":91,"time":115.22786458333333,"velocity":0.3937007874015748},{"duration":0.06119791666665719,"midi":65,"time":115.24088541666667,"velocity":0.3937007874015748},{"duration":0.1796875,"midi":92,"time":115.24088541666667,"velocity":0.3937007874015748},{"duration":0.06119791666665719,"midi":84,"time":115.25260416666667,"velocity":0.3937007874015748},{"duration":0.06119791666665719,"midi":83,"time":115.26432291666667,"velocity":0.3937007874015748},{"duration":0.1796875,"midi":88,"time":115.26432291666667,"velocity":0.3937007874015748},{"duration":0.4244791666666714,"midi":81,"time":115.30078125,"velocity":0.3937007874015748},{"duration":0.1770833333333286,"midi":65,"time":115.34765625,"velocity":0.3937007874015748},{"duration":0.17578125,"midi":77,"time":115.36067708333333,"velocity":0.3937007874015748},{"duration":0.27734375,"midi":84,"time":115.36067708333333,"velocity":0.3937007874015748},{"duration":0.061197916666671404,"midi":88,"time":115.40755208333333,"velocity":0.3937007874015748},{"duration":0.1731770833333428,"midi":93,"time":115.41927083333333,"velocity":0.3937007874015748},{"duration":0.1731770833333428,"midi":91,"time":115.43098958333333,"velocity":0.3937007874015748},{"duration":0.1731770833333428,"midi":90,"time":115.43098958333333,"velocity":0.3937007874015748},{"duration":0.1731770833333428,"midi":86,"time":115.43098958333333,"velocity":0.3937007874015748},{"duration":0.059895833333328596,"midi":66,"time":115.44401041666667,"velocity":0.3937007874015748},{"duration":0.05859375,"midi":73,"time":115.45572916666667,"velocity":0.3937007874015748},{"duration":0.05859375,"midi":88,"time":115.45572916666667,"velocity":0.3937007874015748},{"duration":0.05859375,"midi":75,"time":115.45572916666667,"velocity":0.3937007874015748},{"duration":0.05729166666665719,"midi":36,"time":115.46744791666667,"velocity":0.3937007874015748},{"duration":0.19140625,"midi":84,"time":115.46744791666667,"velocity":0.3937007874015748},{"duration":0.05729166666665719,"midi":50,"time":115.47916666666667,"velocity":0.3937007874015748},{"duration":0.171875,"midi":65,"time":115.47916666666667,"velocity":0.3937007874015748},{"duration":0.055989583333328596,"midi":62,"time":115.49088541666667,"velocity":0.3937007874015748},{"duration":0.055989583333328596,"midi":51,"time":115.49088541666667,"velocity":0.3937007874015748},{"duration":0.055989583333328596,"midi":78,"time":115.49088541666667,"velocity":0.3937007874015748},{"duration":0.055989583333328596,"midi":49,"time":115.51432291666667,"velocity":0.3937007874015748},{"duration":0.055989583333328596,"midi":31,"time":115.51432291666667,"velocity":0.3937007874015748},{"duration":0.1705729166666572,"midi":77,"time":115.51432291666667,"velocity":0.3937007874015748},{"duration":0.05859375,"midi":62,"time":115.54557291666667,"velocity":0.3937007874015748},{"duration":0.1744791666666572,"midi":50,"time":115.55729166666667,"velocity":0.3937007874015748},{"duration":0.05859375,"midi":92,"time":115.56901041666667,"velocity":0.3937007874015748},{"duration":0.05859375,"midi":76,"time":115.59244791666667,"velocity":0.3937007874015748},{"duration":0.05729166666665719,"midi":74,"time":115.60416666666667,"velocity":0.3937007874015748},{"duration":0.05859375,"midi":82,"time":115.61458333333333,"velocity":0.3937007874015748},{"duration":0.05859375,"midi":63,"time":115.61458333333333,"velocity":0.3937007874015748},{"duration":0.17578125,"midi":76,"time":115.63802083333333,"velocity":0.3937007874015748},{"duration":0.17578125,"midi":92,"time":115.64973958333333,"velocity":0.3937007874015748},{"duration":0.05859375,"midi":78,"time":115.64973958333333,"velocity":0.3937007874015748},{"duration":0.05859375,"midi":83,"time":115.64973958333333,"velocity":0.3937007874015748},{"duration":0.4270833333333428,"midi":50,"time":115.64973958333333,"velocity":0.3937007874015748},{"duration":0.1770833333333286,"midi":74,"time":115.66015625,"velocity":0.3937007874015748},{"duration":0.059895833333328596,"midi":84,"time":115.66015625,"velocity":0.3937007874015748},{"duration":0.1770833333333286,"midi":64,"time":115.66015625,"velocity":0.3937007874015748},{"duration":0.059895833333328596,"midi":84,"time":115.68359375,"velocity":0.3937007874015748},{"duration":0.1783854166666714,"midi":90,"time":115.68359375,"velocity":0.3937007874015748},{"duration":0.1770833333333286,"midi":93,"time":115.6953125,"velocity":0.3937007874015748},{"duration":0.05859375,"midi":83,"time":115.70833333333333,"velocity":0.3937007874015748},{"duration":0.05859375,"midi":88,"time":115.70833333333333,"velocity":0.3937007874015748},{"duration":0.061197916666671404,"midi":76,"time":115.80078125,"velocity":0.3937007874015748},{"duration":0.1770833333333286,"midi":74,"time":115.80078125,"velocity":0.3937007874015748},{"duration":0.05989583333334281,"midi":65,"time":115.82552083333333,"velocity":0.3937007874015748},{"duration":0.30078125,"midi":88,"time":115.83723958333333,"velocity":0.3937007874015748},{"duration":0.05989583333334281,"midi":64,"time":115.83723958333333,"velocity":0.3937007874015748},{"duration":0.2994791666666714,"midi":92,"time":115.84895833333333,"velocity":0.3937007874015748},{"duration":0.17578125,"midi":57,"time":115.84895833333333,"velocity":0.3937007874015748},{"duration":0.05859375,"midi":90,"time":115.86197916666667,"velocity":0.3937007874015748},{"duration":0.05859375,"midi":65,"time":115.86197916666667,"velocity":0.3937007874015748},{"duration":0.17578125,"midi":83,"time":115.87239583333333,"velocity":0.3937007874015748},{"duration":0.17578125,"midi":76,"time":115.88411458333333,"velocity":0.3937007874015748},{"duration":0.17578125,"midi":64,"time":115.90755208333333,"velocity":0.3937007874015748},{"duration":0.059895833333328596,"midi":90,"time":115.96484375,"velocity":0.3937007874015748},{"duration":0.1744791666666714,"midi":74,"time":116.01302083333333,"velocity":0.3937007874015748},{"duration":0.17578125,"midi":90,"time":116.03515625,"velocity":0.3937007874015748},{"duration":0.17578125,"midi":83,"time":116.03515625,"velocity":0.3937007874015748},{"duration":0.059895833333328596,"midi":64,"time":116.03515625,"velocity":0.3937007874015748},{"duration":0.05859375,"midi":60,"time":116.046875,"velocity":0.3937007874015748},{"duration":0.05859375,"midi":63,"time":116.08203125,"velocity":0.3937007874015748},{"duration":0.05859375,"midi":50,"time":116.08203125,"velocity":0.3937007874015748},{"duration":0.05859375,"midi":64,"time":116.10546875,"velocity":0.3937007874015748},{"duration":0.17578125,"midi":50,"time":116.12890625,"velocity":0.3937007874015748},{"duration":0.1744791666666714,"midi":74,"time":116.140625,"velocity":0.3937007874015748},{"duration":0.1744791666666572,"midi":65,"time":116.16276041666667,"velocity":0.3937007874015748},{"duration":0.059895833333328596,"midi":57,"time":116.18619791666667,"velocity":0.3937007874015748},{"duration":0.1744791666666572,"midi":92,"time":116.19791666666667,"velocity":0.3937007874015748},{"duration":0.05859375,"midi":75,"time":116.24609375,"velocity":0.3937007874015748},{"duration":0.05859375,"midi":41,"time":116.24609375,"velocity":0.3937007874015748},{"duration":0.05859375,"midi":94,"time":116.25651041666667,"velocity":0.3937007874015748},{"duration":0.2955729166666572,"midi":57,"time":116.25651041666667,"velocity":0.3937007874015748},{"duration":0.05859375,"midi":89,"time":116.25651041666667,"velocity":0.3937007874015748},{"duration":0.7942708333333286,"midi":50,"time":116.26822916666667,"velocity":0.3937007874015748},{"duration":0.171875,"midi":84,"time":116.27994791666667,"velocity":0.3937007874015748},{"duration":0.171875,"midi":65,"time":116.27994791666667,"velocity":0.3937007874015748},{"duration":0.05859375,"midi":90,"time":116.30338541666667,"velocity":0.3937007874015748},{"duration":0.05859375,"midi":74,"time":116.30338541666667,"velocity":0.3937007874015748},{"duration":0.05989583333334281,"midi":94,"time":116.32552083333333,"velocity":0.3937007874015748},{"duration":0.05859375,"midi":75,"time":116.33723958333333,"velocity":0.3937007874015748},{"duration":0.05859375,"midi":85,"time":116.34895833333333,"velocity":0.3937007874015748},{"duration":0.2942708333333286,"midi":83,"time":116.36197916666667,"velocity":0.3937007874015748},{"duration":0.057291666666671404,"midi":64,"time":116.38411458333333,"velocity":0.3937007874015748},{"duration":0.1705729166666714,"midi":86,"time":116.38411458333333,"velocity":0.3937007874015748},{"duration":0.1705729166666714,"midi":90,"time":116.38411458333333,"velocity":0.3937007874015748},{"duration":0.1705729166666714,"midi":76,"time":116.38411458333333,"velocity":0.3937007874015748},{"duration":0.057291666666671404,"midi":38,"time":116.39453125,"velocity":0.3937007874015748},{"duration":0.057291666666671404,"midi":65,"time":116.41796875,"velocity":0.3937007874015748},{"duration":0.057291666666671404,"midi":64,"time":116.44140625,"velocity":0.3937007874015748},{"duration":0.171875,"midi":92,"time":116.44140625,"velocity":0.3937007874015748},{"duration":0.057291666666671404,"midi":60,"time":116.44140625,"velocity":0.3937007874015748},{"duration":0.05729166666665719,"midi":74,"time":116.45182291666667,"velocity":0.3937007874015748},{"duration":0.05859375,"midi":38,"time":116.48567708333333,"velocity":0.3937007874015748},{"duration":0.171875,"midi":57,"time":116.49739583333333,"velocity":0.3937007874015748},{"duration":0.05859375,"midi":64,"time":116.50911458333333,"velocity":0.3937007874015748},{"duration":0.05859375,"midi":61,"time":116.53125,"velocity":0.3937007874015748},{"duration":0.059895833333328596,"midi":64,"time":116.57682291666667,"velocity":0.3937007874015748},{"duration":0.05859375,"midi":74,"time":116.58984375,"velocity":0.3937007874015748},{"duration":0.05859375,"midi":38,"time":116.60026041666667,"velocity":0.3937007874015748},{"duration":0.05859375,"midi":77,"time":116.64713541666667,"velocity":0.3937007874015748},{"duration":0.17578125,"midi":62,"time":116.65755208333333,"velocity":0.3937007874015748},{"duration":0.17578125,"midi":57,"time":116.65755208333333,"velocity":0.3937007874015748},{"duration":0.05989583333334281,"midi":84,"time":116.68098958333333,"velocity":0.3937007874015748},{"duration":0.1536458333333428,"midi":66,"time":116.72786458333333,"velocity":0.3937007874015748},{"duration":0.30078125,"midi":57,"time":116.75130208333333,"velocity":0.3937007874015748},{"duration":0.08203125,"midi":66,"time":116.82161458333333,"velocity":0.3937007874015748},{"duration":0.05989583333334281,"midi":89,"time":116.85677083333333,"velocity":0.3937007874015748},{"duration":0.05989583333334281,"midi":75,"time":116.85677083333333,"velocity":0.3937007874015748},{"duration":0.1770833333333428,"midi":84,"time":116.85677083333333,"velocity":0.3937007874015748},{"duration":0.05989583333334281,"midi":63,"time":116.86848958333333,"velocity":0.3937007874015748},{"duration":0.05859375,"midi":66,"time":116.91536458333333,"velocity":0.3937007874015748},{"duration":0.05859375,"midi":74,"time":116.91536458333333,"velocity":0.3937007874015748},{"duration":0.05989583333334281,"midi":66,"time":116.97395833333333,"velocity":0.3937007874015748},{"duration":0.05989583333334281,"midi":74,"time":116.97395833333333,"velocity":0.3937007874015748},{"duration":0.059895833333328596,"midi":81,"time":116.984375,"velocity":0.3937007874015748},{"duration":0.05859375,"midi":51,"time":116.99609375,"velocity":0.3937007874015748},{"duration":0.057291666666671404,"midi":61,"time":117.00911458333333,"velocity":0.3937007874015748},{"duration":0.29296875,"midi":91,"time":117.00911458333333,"velocity":0.3937007874015748},{"duration":0.057291666666671404,"midi":67,"time":117.00911458333333,"velocity":0.3937007874015748},{"duration":0.057291666666671404,"midi":87,"time":117.00911458333333,"velocity":0.3937007874015748},{"duration":0.057291666666671404,"midi":89,"time":117.00911458333333,"velocity":0.3937007874015748},{"duration":0.05598958333334281,"midi":55,"time":117.02083333333333,"velocity":0.3937007874015748},{"duration":0.05598958333334281,"midi":82,"time":117.02083333333333,"velocity":0.3937007874015748},{"duration":1.03515625,"midi":72,"time":117.03255208333333,"velocity":0.3937007874015748},{"duration":0.0546875,"midi":75,"time":117.03255208333333,"velocity":0.3937007874015748},{"duration":0.171875,"midi":84,"time":117.04296875,"velocity":0.3937007874015748},{"duration":0.055989583333328596,"midi":51,"time":117.04296875,"velocity":0.3937007874015748},{"duration":0.055989583333328596,"midi":68,"time":117.04296875,"velocity":0.3937007874015748},{"duration":0.05729166666665719,"midi":50,"time":117.06510416666667,"velocity":0.3937007874015748},{"duration":0.1731770833333428,"midi":69,"time":117.07552083333333,"velocity":0.3937007874015748},{"duration":0.05859375,"midi":88,"time":117.08723958333333,"velocity":0.3937007874015748},{"duration":0.1731770833333428,"midi":65,"time":117.08723958333333,"velocity":0.3937007874015748},{"duration":0.05859375,"midi":49,"time":117.08723958333333,"velocity":0.3937007874015748},{"duration":0.05859375,"midi":62,"time":117.08723958333333,"velocity":0.3937007874015748},{"duration":0.171875,"midi":50,"time":117.12239583333333,"velocity":0.3937007874015748},{"duration":0.059895833333328596,"midi":61,"time":117.14453125,"velocity":0.3937007874015748},{"duration":0.05859375,"midi":62,"time":117.1796875,"velocity":0.3937007874015748},{"duration":0.057291666666671404,"midi":84,"time":117.19140625,"velocity":0.3937007874015748},{"duration":0.05598958333334281,"midi":63,"time":117.20442708333333,"velocity":0.3937007874015748},{"duration":0.6705729166666714,"midi":65,"time":117.23828125,"velocity":0.3937007874015748},{"duration":0.055989583333328596,"midi":47,"time":117.23828125,"velocity":0.3937007874015748},{"duration":0.055989583333328596,"midi":81,"time":117.24869791666667,"velocity":0.3937007874015748},{"duration":0.057291666666671404,"midi":46,"time":117.26953125,"velocity":0.3937007874015748},{"duration":0.5494791666666714,"midi":69,"time":117.29296875,"velocity":0.3937007874015748},{"duration":0.05859375,"midi":61,"time":117.30338541666667,"velocity":0.3937007874015748},{"duration":0.05989583333334281,"midi":48,"time":117.33723958333333,"velocity":0.3937007874015748},{"duration":0.05989583333334281,"midi":62,"time":117.33723958333333,"velocity":0.3937007874015748},{"duration":0.1770833333333428,"midi":48,"time":117.40755208333333,"velocity":0.3937007874015748},{"duration":0.05989583333334281,"midi":62,"time":117.41927083333333,"velocity":0.3937007874015748},{"duration":0.05989583333334281,"midi":91,"time":117.45442708333333,"velocity":0.3937007874015748},{"duration":0.1783854166666714,"midi":57,"time":117.45442708333333,"velocity":0.3937007874015748},{"duration":0.05989583333334281,"midi":84,"time":117.45442708333333,"velocity":0.3937007874015748},{"duration":0.1783854166666572,"midi":74,"time":117.46744791666667,"velocity":0.3937007874015748},{"duration":0.05989583333334281,"midi":89,"time":117.48958333333333,"velocity":0.3937007874015748},{"duration":0.1770833333333286,"midi":48,"time":117.50260416666667,"velocity":0.3937007874015748},{"duration":0.1536458333333286,"midi":41,"time":117.51432291666667,"velocity":0.3937007874015748},{"duration":0.17578125,"midi":93,"time":117.51432291666667,"velocity":0.3937007874015748},{"duration":0.06119791666665719,"midi":42,"time":117.58463541666667,"velocity":0.3937007874015748},{"duration":0.06119791666665719,"midi":50,"time":117.59635416666667,"velocity":0.3937007874015748},{"duration":0.08203125,"midi":41,"time":117.60807291666667,"velocity":0.3937007874015748},{"duration":0.05859375,"midi":49,"time":117.62109375,"velocity":0.3937007874015748},{"duration":0.05859375,"midi":62,"time":117.62109375,"velocity":0.3937007874015748},{"duration":0.171875,"midi":74,"time":117.6328125,"velocity":0.3937007874015748},{"duration":0.057291666666671404,"midi":42,"time":117.6328125,"velocity":0.3937007874015748},{"duration":0.171875,"midi":42,"time":117.66796875,"velocity":0.3937007874015748},{"duration":0.05859375,"midi":57,"time":117.70052083333333,"velocity":0.3937007874015748},{"duration":0.05859375,"midi":49,"time":117.7578125,"velocity":0.3937007874015748},{"duration":0.059895833333328596,"midi":41,"time":117.80338541666667,"velocity":0.3937007874015748},{"duration":0.059895833333328596,"midi":63,"time":117.80338541666667,"velocity":0.3937007874015748},{"duration":0.1705729166666714,"midi":84,"time":117.81640625,"velocity":0.3937007874015748},{"duration":0.05859375,"midi":77,"time":117.81640625,"velocity":0.3937007874015748},{"duration":0.1705729166666572,"midi":86,"time":117.82682291666667,"velocity":0.3937007874015748},{"duration":0.059895833333328596,"midi":89,"time":117.82682291666667,"velocity":0.3937007874015748},{"duration":0.05859375,"midi":64,"time":117.83854166666667,"velocity":0.3937007874015748},{"duration":0.05859375,"midi":74,"time":117.83854166666667,"velocity":0.3937007874015748},{"duration":0.1692708333333286,"midi":70,"time":117.8515625,"velocity":0.3937007874015748},{"duration":0.1692708333333286,"midi":88,"time":117.8515625,"velocity":0.3937007874015748},{"duration":0.057291666666671404,"midi":60,"time":117.8515625,"velocity":0.3937007874015748},{"duration":0.057291666666671404,"midi":65,"time":117.8515625,"velocity":0.3937007874015748},{"duration":0.2942708333333286,"midi":50,"time":117.86328125,"velocity":0.3937007874015748},{"duration":0.1692708333333286,"midi":90,"time":117.86328125,"velocity":0.3937007874015748},{"duration":0.055989583333328596,"midi":31,"time":117.86328125,"velocity":0.3937007874015748},{"duration":0.1692708333333286,"midi":95,"time":117.86328125,"velocity":0.3937007874015748},{"duration":0.055989583333328596,"midi":64,"time":117.87369791666667,"velocity":0.3937007874015748},{"duration":0.055989583333328596,"midi":55,"time":117.87369791666667,"velocity":0.3937007874015748},{"duration":0.1705729166666572,"midi":43,"time":117.89713541666667,"velocity":0.3937007874015748},{"duration":0.171875,"midi":81,"time":117.90755208333333,"velocity":0.3937007874015748},{"duration":0.171875,"midi":65,"time":117.90755208333333,"velocity":0.3937007874015748},{"duration":0.057291666666671404,"midi":30,"time":117.91796875,"velocity":0.3937007874015748},{"duration":0.1731770833333286,"midi":89,"time":117.9296875,"velocity":0.3937007874015748},{"duration":0.057291666666671404,"midi":91,"time":117.9296875,"velocity":0.3937007874015748},{"duration":0.057291666666671404,"midi":59,"time":117.9296875,"velocity":0.3937007874015748},{"duration":0.05729166666665719,"midi":31,"time":117.94010416666667,"velocity":0.3937007874015748},{"duration":0.1731770833333286,"midi":84,"time":117.94010416666667,"velocity":0.3937007874015748},{"duration":0.1731770833333286,"midi":93,"time":117.94010416666667,"velocity":0.3937007874015748},{"duration":0.6770833333333286,"midi":74,"time":117.94010416666667,"velocity":0.3937007874015748},{"duration":0.05989583333334281,"midi":70,"time":117.99739583333333,"velocity":0.3937007874015748},{"duration":0.0625,"midi":72,"time":118.0078125,"velocity":0.3937007874015748},{"duration":0.17578125,"midi":81,"time":118.01953125,"velocity":0.3937007874015748},{"duration":0.059895833333328596,"midi":31,"time":118.01953125,"velocity":0.3937007874015748},{"duration":0.059895833333328596,"midi":59,"time":118.03125,"velocity":0.3937007874015748},{"duration":0.05859375,"midi":43,"time":118.04427083333333,"velocity":0.3937007874015748},{"duration":0.057291666666671404,"midi":58,"time":118.05598958333333,"velocity":0.3937007874015748},{"duration":0.1744791666666714,"midi":77,"time":118.06640625,"velocity":0.3937007874015748},{"duration":0.05859375,"midi":55,"time":118.06640625,"velocity":0.3937007874015748},{"duration":0.1744791666666714,"midi":65,"time":118.07942708333333,"velocity":0.3937007874015748},{"duration":0.05859375,"midi":43,"time":118.07942708333333,"velocity":0.3937007874015748},{"duration":0.30078125,"midi":70,"time":118.11328125,"velocity":0.3937007874015748},{"duration":0.059895833333328596,"midi":30,"time":118.11328125,"velocity":0.3937007874015748},{"duration":0.059895833333328596,"midi":29,"time":118.14713541666667,"velocity":0.3937007874015748},{"duration":0.05859375,"midi":81,"time":118.171875,"velocity":0.3937007874015748},{"duration":0.1744791666666714,"midi":84,"time":118.20703125,"velocity":0.3937007874015748},{"duration":0.05859375,"midi":55,"time":118.20703125,"velocity":0.3937007874015748},{"duration":0.05859375,"midi":63,"time":118.23046875,"velocity":0.3937007874015748},{"duration":0.1744791666666572,"midi":77,"time":118.26432291666667,"velocity":0.3937007874015748},{"duration":0.17578125,"midi":86,"time":118.27604166666667,"velocity":0.3937007874015748},{"duration":0.17578125,"midi":62,"time":118.27604166666667,"velocity":0.3937007874015748},{"duration":0.059895833333328596,"midi":55,"time":118.31119791666667,"velocity":0.3937007874015748},{"duration":0.059895833333328596,"midi":65,"time":118.34635416666667,"velocity":0.3937007874015748},{"duration":0.1666666666666572,"midi":65,"time":118.39322916666667,"velocity":0.3937007874015748},{"duration":0.06119791666665719,"midi":64,"time":118.46354166666667,"velocity":0.3937007874015748},{"duration":0.1770833333333286,"midi":70,"time":118.47526041666667,"velocity":0.3937007874015748},{"duration":0.17578125,"midi":62,"time":118.48697916666667,"velocity":0.3937007874015748},{"duration":0.0703125,"midi":65,"time":118.5,"velocity":0.3937007874015748},{"duration":0.3020833333333286,"midi":77,"time":118.55859375,"velocity":0.3937007874015748},{"duration":0.059895833333328596,"midi":65,"time":118.56901041666667,"velocity":0.3937007874015748},{"duration":0.059895833333328596,"midi":86,"time":118.59244791666667,"velocity":0.3937007874015748},{"duration":0.059895833333328596,"midi":72,"time":118.59244791666667,"velocity":0.3937007874015748},{"duration":0.05859375,"midi":50,"time":118.60416666666667,"velocity":0.3937007874015748},{"duration":0.05859375,"midi":94,"time":118.60416666666667,"velocity":0.3937007874015748},{"duration":0.05859375,"midi":60,"time":118.60416666666667,"velocity":0.3937007874015748},{"duration":0.17578125,"midi":85,"time":118.60416666666667,"velocity":0.3937007874015748},{"duration":0.05859375,"midi":88,"time":118.60416666666667,"velocity":0.3937007874015748},{"duration":0.05859375,"midi":90,"time":118.6171875,"velocity":0.3937007874015748},{"duration":0.17578125,"midi":87,"time":118.6171875,"velocity":0.3937007874015748},{"duration":0.05859375,"midi":66,"time":118.62890625,"velocity":0.3937007874015748},{"duration":0.05859375,"midi":70,"time":118.65104166666667,"velocity":0.3937007874015748},{"duration":0.1770833333333286,"midi":84,"time":118.65104166666667,"velocity":0.3937007874015748},{"duration":0.1770833333333286,"midi":89,"time":118.65104166666667,"velocity":0.3937007874015748},{"duration":0.1783854166666572,"midi":65,"time":118.66276041666667,"velocity":0.3937007874015748},{"duration":0.059895833333328596,"midi":91,"time":118.66276041666667,"velocity":0.3937007874015748},{"duration":0.059895833333328596,"midi":58,"time":118.69791666666667,"velocity":0.3937007874015748},{"duration":0.059895833333328596,"midi":46,"time":118.70963541666667,"velocity":0.3937007874015748},{"duration":0.06119791666665719,"midi":50,"time":118.77994791666667,"velocity":0.3937007874015748},{"duration":0.06119791666665719,"midi":63,"time":118.79166666666667,"velocity":0.3937007874015748},{"duration":0.2981770833333286,"midi":70,"time":118.80338541666667,"velocity":0.3937007874015748},{"duration":0.059895833333328596,"midi":67,"time":118.80338541666667,"velocity":0.3937007874015748},{"duration":0.059895833333328596,"midi":84,"time":118.81640625,"velocity":0.3937007874015748},{"duration":0.265625,"midi":62,"time":118.828125,"velocity":0.3937007874015748},{"duration":0.2981770833333286,"midi":81,"time":118.828125,"velocity":0.3937007874015748},{"duration":0.05859375,"midi":55,"time":118.86328125,"velocity":0.3937007874015748},{"duration":0.05859375,"midi":65,"time":118.88541666666667,"velocity":0.3937007874015748},{"duration":0.05859375,"midi":84,"time":118.90885416666667,"velocity":0.3937007874015748},{"duration":0.05859375,"midi":55,"time":118.93229166666667,"velocity":0.3937007874015748},{"duration":0.2786458333333428,"midi":65,"time":118.97786458333333,"velocity":0.3937007874015748},{"duration":0.05859375,"midi":46,"time":119.00130208333333,"velocity":0.3937007874015748},{"duration":0.0911458333333286,"midi":62,"time":119.03515625,"velocity":0.3937007874015748},{"duration":0.17578125,"midi":58,"time":119.05859375,"velocity":0.3937007874015748},{"duration":0.1744791666666714,"midi":81,"time":119.08203125,"velocity":0.3937007874015748},{"duration":0.059895833333328596,"midi":75,"time":119.1171875,"velocity":0.3937007874015748},{"duration":0.05859375,"midi":57,"time":119.140625,"velocity":0.3937007874015748},{"duration":0.05859375,"midi":62,"time":119.140625,"velocity":0.3937007874015748},{"duration":0.05859375,"midi":66,"time":119.17578125,"velocity":0.3937007874015748},{"duration":0.05859375,"midi":86,"time":119.17578125,"velocity":0.3937007874015748},{"duration":0.1692708333333286,"midi":87,"time":119.17578125,"velocity":0.3937007874015748},{"duration":0.05859375,"midi":78,"time":119.18619791666667,"velocity":0.3937007874015748},{"duration":0.05859375,"midi":55,"time":119.18619791666667,"velocity":0.3937007874015748},{"duration":0.1692708333333286,"midi":84,"time":119.18619791666667,"velocity":0.3937007874015748},{"duration":0.0755208333333286,"midi":65,"time":119.19921875,"velocity":0.3937007874015748},{"duration":0.16796875,"midi":89,"time":119.19921875,"velocity":0.3937007874015748},{"duration":0.16796875,"midi":93,"time":119.19921875,"velocity":0.3937007874015748},{"duration":0.057291666666671404,"midi":60,"time":119.19921875,"velocity":0.3937007874015748},{"duration":0.05729166666665719,"midi":85,"time":119.20963541666667,"velocity":0.3937007874015748},{"duration":0.055989583333328596,"midi":71,"time":119.22135416666667,"velocity":0.3937007874015748},{"duration":0.055989583333328596,"midi":94,"time":119.22135416666667,"velocity":0.3937007874015748},{"duration":0.1549479166666714,"midi":50,"time":119.234375,"velocity":0.3937007874015748},{"duration":0.0546875,"midi":63,"time":119.234375,"velocity":0.3937007874015748},{"duration":0.1666666666666714,"midi":84,"time":119.234375,"velocity":0.3937007874015748},{"duration":0.16796875,"midi":43,"time":119.24479166666667,"velocity":0.3937007874015748},{"duration":0.16796875,"midi":77,"time":119.24479166666667,"velocity":0.3937007874015748},{"duration":0.05598958333334281,"midi":70,"time":119.25520833333333,"velocity":0.3937007874015748},{"duration":0.05598958333334281,"midi":60,"time":119.25520833333333,"velocity":0.3937007874015748},{"duration":0.055989583333328596,"midi":90,"time":119.265625,"velocity":0.3937007874015748},{"duration":0.1692708333333286,"midi":65,"time":119.265625,"velocity":0.3937007874015748},{"duration":0.05729166666665719,"midi":85,"time":119.28776041666667,"velocity":0.3937007874015748},{"duration":0.05729166666665719,"midi":74,"time":119.28776041666667,"velocity":0.3937007874015748},{"duration":0.057291666666671404,"midi":86,"time":119.29817708333333,"velocity":0.3937007874015748},{"duration":0.1705729166666572,"midi":91,"time":119.31119791666667,"velocity":0.3937007874015748},{"duration":0.171875,"midi":89,"time":119.32161458333333,"velocity":0.3937007874015748},{"duration":0.057291666666671404,"midi":59,"time":119.32161458333333,"velocity":0.3937007874015748},{"duration":0.171875,"midi":95,"time":119.33203125,"velocity":0.3937007874015748},{"duration":0.057291666666671404,"midi":86,"time":119.33203125,"velocity":0.3937007874015748},{"duration":0.057291666666671404,"midi":79,"time":119.33203125,"velocity":0.3937007874015748},{"duration":0.0690104166666714,"midi":50,"time":119.33203125,"velocity":0.3937007874015748},{"duration":0.05859375,"midi":92,"time":119.36588541666667,"velocity":0.3937007874015748},{"duration":0.05859375,"midi":87,"time":119.36588541666667,"velocity":0.3937007874015748},{"duration":0.05859375,"midi":86,"time":119.38932291666667,"velocity":0.3937007874015748},{"duration":0.05859375,"midi":64,"time":119.38932291666667,"velocity":0.3937007874015748},{"duration":0.05859375,"midi":77,"time":119.38932291666667,"velocity":0.3937007874015748},{"duration":0.1731770833333428,"midi":70,"time":119.39973958333333,"velocity":0.3937007874015748},{"duration":0.05859375,"midi":90,"time":119.39973958333333,"velocity":0.3937007874015748},{"duration":0.05859375,"midi":67,"time":119.39973958333333,"velocity":0.3937007874015748},{"duration":0.05859375,"midi":41,"time":119.39973958333333,"velocity":0.3937007874015748},{"duration":0.05859375,"midi":78,"time":119.41145833333333,"velocity":0.3937007874015748},{"duration":0.05859375,"midi":37,"time":119.41145833333333,"velocity":0.3937007874015748},{"duration":0.171875,"midi":74,"time":119.42447916666667,"velocity":0.3937007874015748},{"duration":0.171875,"midi":93,"time":119.42447916666667,"velocity":0.3937007874015748},{"duration":0.05859375,"midi":77,"time":119.43489583333333,"velocity":0.3937007874015748},{"duration":0.1497395833333428,"midi":65,"time":119.43489583333333,"velocity":0.3937007874015748},{"duration":0.2942708333333428,"midi":50,"time":119.44661458333333,"velocity":0.3937007874015748},{"duration":0.05859375,"midi":43,"time":119.45833333333333,"velocity":0.3937007874015748},{"duration":0.05859375,"midi":86,"time":119.48046875,"velocity":0.3937007874015748},{"duration":0.5455729166666572,"midi":43,"time":119.52604166666667,"velocity":0.3937007874015748},{"duration":0.08072916666665719,"midi":65,"time":119.52604166666667,"velocity":0.3937007874015748},{"duration":0.057291666666671404,"midi":31,"time":119.5390625,"velocity":0.3937007874015748},{"duration":0.057291666666671404,"midi":86,"time":119.5390625,"velocity":0.3937007874015748},{"duration":0.171875,"midi":85,"time":119.54947916666667,"velocity":0.3937007874015748},{"duration":0.05729166666665719,"midi":60,"time":119.58463541666667,"velocity":0.3937007874015748},{"duration":0.05729166666665719,"midi":64,"time":119.58463541666667,"velocity":0.3937007874015748},{"duration":0.057291666666671404,"midi":31,"time":119.59505208333333,"velocity":0.3937007874015748},{"duration":0.1731770833333428,"midi":86,"time":119.60677083333333,"velocity":0.3937007874015748},{"duration":0.421875,"midi":65,"time":119.61848958333333,"velocity":0.3937007874015748},{"duration":0.421875,"midi":89,"time":119.640625,"velocity":0.3937007874015748},{"duration":0.1744791666666714,"midi":93,"time":119.65234375,"velocity":0.3937007874015748},{"duration":0.1744791666666714,"midi":74,"time":119.65234375,"velocity":0.3937007874015748},{"duration":0.1744791666666572,"midi":50,"time":119.67447916666667,"velocity":0.3937007874015748},{"duration":0.05859375,"midi":31,"time":119.67447916666667,"velocity":0.3937007874015748},{"duration":0.17578125,"midi":31,"time":119.74348958333333,"velocity":0.3937007874015748},{"duration":0.17578125,"midi":86,"time":119.74348958333333,"velocity":0.3937007874015748},{"duration":0.5494791666666714,"midi":84,"time":119.76692708333333,"velocity":0.3937007874015748},{"duration":0.17578125,"midi":93,"time":119.76692708333333,"velocity":0.3937007874015748},{"duration":0.05859375,"midi":60,"time":119.79036458333333,"velocity":0.3937007874015748},{"duration":0.1744791666666714,"midi":50,"time":119.79036458333333,"velocity":0.3937007874015748},{"duration":0.05859375,"midi":31,"time":119.88411458333333,"velocity":0.3937007874015748},{"duration":0.1393229166666714,"midi":31,"time":119.94140625,"velocity":0.3937007874015748},{"duration":0.1731770833333286,"midi":50,"time":119.9765625,"velocity":0.3937007874015748},{"duration":0.1744791666666714,"midi":93,"time":120,"velocity":0.3937007874015748},{"duration":0.1744791666666714,"midi":70,"time":120,"velocity":0.3937007874015748},{"duration":0.1744791666666714,"midi":74,"time":120,"velocity":0.3937007874015748},{"duration":0.09375,"midi":31,"time":120.02213541666667,"velocity":0.3937007874015748},{"duration":0.05989583333334281,"midi":65,"time":120.05598958333333,"velocity":0.3937007874015748},{"duration":0.1744791666666714,"midi":65,"time":120.12630208333333,"velocity":0.3937007874015748},{"duration":0.061197916666671404,"midi":88,"time":120.14973958333333,"velocity":0.3937007874015748},{"duration":0.17578125,"midi":72,"time":120.14973958333333,"velocity":0.3937007874015748},{"duration":0.061197916666671404,"midi":93,"time":120.14973958333333,"velocity":0.3937007874015748},{"duration":0.05989583333334281,"midi":45,"time":120.16145833333333,"velocity":0.3937007874015748},{"duration":0.05989583333334281,"midi":82,"time":120.16145833333333,"velocity":0.3937007874015748},{"duration":0.05989583333334281,"midi":60,"time":120.16145833333333,"velocity":0.3937007874015748},{"duration":0.05989583333334281,"midi":68,"time":120.16145833333333,"velocity":0.3937007874015748},{"duration":0.05859375,"midi":86,"time":120.17317708333333,"velocity":0.3937007874015748},{"duration":0.05859375,"midi":92,"time":120.17317708333333,"velocity":0.3937007874015748},{"duration":0.05859375,"midi":50,"time":120.17317708333333,"velocity":0.3937007874015748},{"duration":0.17578125,"midi":88,"time":120.18619791666667,"velocity":0.3937007874015748},{"duration":0.17578125,"midi":95,"time":120.18619791666667,"velocity":0.3937007874015748},{"duration":0.05729166666665719,"midi":91,"time":120.18619791666667,"velocity":0.3937007874015748},{"duration":0.05729166666665719,"midi":37,"time":120.18619791666667,"velocity":0.3937007874015748},{"duration":0.2994791666666572,"midi":90,"time":120.19791666666667,"velocity":0.3937007874015748},{"duration":0.2994791666666572,"midi":64,"time":120.19791666666667,"velocity":0.3937007874015748},{"duration":0.055989583333328596,"midi":45,"time":120.19791666666667,"velocity":0.3937007874015748},{"duration":0.055989583333328596,"midi":34,"time":120.20963541666667,"velocity":0.3937007874015748},{"duration":0.17578125,"midi":52,"time":120.22135416666667,"velocity":0.3937007874015748},{"duration":0.4231770833333428,"midi":72,"time":120.23177083333333,"velocity":0.3937007874015748},{"duration":0.6692708333333428,"midi":45,"time":120.23177083333333,"velocity":0.3937007874015748},{"duration":0.05859375,"midi":61,"time":120.2421875,"velocity":0.3937007874015748},{"duration":0.059895833333328596,"midi":89,"time":120.25260416666667,"velocity":0.3937007874015748},{"duration":0.061197916666671404,"midi":77,"time":120.30078125,"velocity":0.3937007874015748},{"duration":0.05989583333334281,"midi":34,"time":120.33723958333333,"velocity":0.3937007874015748},{"duration":0.05989583333334281,"midi":52,"time":120.33723958333333,"velocity":0.3937007874015748},{"duration":0.05989583333334281,"midi":88,"time":120.34895833333333,"velocity":0.3937007874015748},{"duration":0.1731770833333428,"midi":88,"time":120.34895833333333,"velocity":0.3937007874015748},{"duration":0.171875,"midi":92,"time":120.38411458333333,"velocity":0.3937007874015748},{"duration":0.05989583333334281,"midi":67,"time":120.38411458333333,"velocity":0.3937007874015748},{"duration":0.05989583333334281,"midi":65,"time":120.41927083333333,"velocity":0.3937007874015748},{"duration":0.05989583333334281,"midi":33,"time":120.41927083333333,"velocity":0.3937007874015748},{"duration":0.05859375,"midi":95,"time":120.43098958333333,"velocity":0.3937007874015748},{"duration":0.057291666666671404,"midi":52,"time":120.44270833333333,"velocity":0.3937007874015748},{"duration":0.057291666666671404,"midi":63,"time":120.45442708333333,"velocity":0.3937007874015748},{"duration":0.057291666666671404,"midi":33,"time":120.45442708333333,"velocity":0.3937007874015748},{"duration":0.05598958333334281,"midi":65,"time":120.46614583333333,"velocity":0.3937007874015748},{"duration":0.05598958333334281,"midi":33,"time":120.48958333333333,"velocity":0.3937007874015748},{"duration":0.1731770833333286,"midi":77,"time":120.51041666666667,"velocity":0.3937007874015748},{"duration":0.2981770833333428,"midi":89,"time":120.52083333333333,"velocity":0.3937007874015748},{"duration":0.05989583333334281,"midi":67,"time":120.53255208333333,"velocity":0.3937007874015748},{"duration":0.05859375,"midi":88,"time":120.54427083333333,"velocity":0.3937007874015748},{"duration":0.05859375,"midi":93,"time":120.54427083333333,"velocity":0.3937007874015748},{"duration":0.059895833333328596,"midi":63,"time":120.5546875,"velocity":0.3937007874015748},{"duration":0.17578125,"midi":90,"time":120.5546875,"velocity":0.3937007874015748},{"duration":0.05989583333334281,"midi":56,"time":120.56770833333333,"velocity":0.3937007874015748},{"duration":0.1744791666666714,"midi":33,"time":120.57942708333333,"velocity":0.3937007874015748},{"duration":0.05859375,"midi":86,"time":120.59114583333333,"velocity":0.3937007874015748},{"duration":0.1744791666666714,"midi":81,"time":120.59114583333333,"velocity":0.3937007874015748},{"duration":0.1744791666666714,"midi":62,"time":120.59114583333333,"velocity":0.3937007874015748},{"duration":0.17578125,"midi":70,"time":120.60286458333333,"velocity":0.3937007874015748},{"duration":0.2955729166666714,"midi":76,"time":120.63671875,"velocity":0.3937007874015748},{"duration":0.05859375,"midi":56,"time":120.63671875,"velocity":0.3937007874015748},{"duration":0.1731770833333286,"midi":72,"time":120.67057291666667,"velocity":0.3937007874015748},{"duration":0.1731770833333286,"midi":67,"time":120.70572916666667,"velocity":0.3937007874015748},{"duration":0.059895833333328596,"midi":75,"time":120.71875,"velocity":0.3937007874015748},{"duration":0.05859375,"midi":82,"time":120.73046875,"velocity":0.3937007874015748},{"duration":0.05859375,"midi":63,"time":120.73046875,"velocity":0.3937007874015748},{"duration":0.1705729166666714,"midi":33,"time":120.73046875,"velocity":0.3937007874015748},{"duration":0.05859375,"midi":81,"time":120.75260416666667,"velocity":0.3937007874015748},{"duration":0.05859375,"midi":74,"time":120.75260416666667,"velocity":0.3937007874015748},{"duration":0.057291666666671404,"midi":62,"time":120.765625,"velocity":0.3937007874015748},{"duration":0.055989583333328596,"midi":73,"time":120.77734375,"velocity":0.3937007874015748},{"duration":0.055989583333328596,"midi":61,"time":120.78776041666667,"velocity":0.3937007874015748},{"duration":0.055989583333328596,"midi":52,"time":120.78776041666667,"velocity":0.3937007874015748},{"duration":0.05729166666665719,"midi":80,"time":120.79947916666667,"velocity":0.3937007874015748},{"duration":0.1705729166666714,"midi":72,"time":120.82161458333333,"velocity":0.3937007874015748},{"duration":0.057291666666671404,"midi":67,"time":120.82161458333333,"velocity":0.3937007874015748},{"duration":0.1705729166666714,"midi":70,"time":120.82161458333333,"velocity":0.3937007874015748},{"duration":0.057291666666671404,"midi":81,"time":120.83333333333333,"velocity":0.3937007874015748},{"duration":0.171875,"midi":62,"time":120.83333333333333,"velocity":0.3937007874015748},{"duration":0.05859375,"midi":67,"time":120.86588541666667,"velocity":0.3937007874015748},{"duration":0.05859375,"midi":75,"time":120.86588541666667,"velocity":0.3937007874015748},{"duration":0.05859375,"midi":33,"time":120.86588541666667,"velocity":0.3937007874015748},{"duration":0.05859375,"midi":63,"time":120.88932291666667,"velocity":0.3937007874015748},{"duration":0.05859375,"midi":61,"time":120.91276041666667,"velocity":0.3937007874015748},{"duration":0.1744791666666572,"midi":89,"time":120.91276041666667,"velocity":0.3937007874015748},{"duration":0.1744791666666572,"midi":81,"time":120.91276041666667,"velocity":0.3937007874015748},{"duration":0.05729166666665719,"midi":76,"time":120.92447916666667,"velocity":0.3937007874015748},{"duration":0.05729166666665719,"midi":84,"time":120.94791666666667,"velocity":0.3937007874015748},{"duration":0.05729166666665719,"midi":64,"time":120.94791666666667,"velocity":0.3937007874015748},{"duration":0.05729166666665719,"midi":38,"time":120.94791666666667,"velocity":0.3937007874015748},{"duration":0.05729166666665719,"midi":70,"time":120.94791666666667,"velocity":0.3937007874015748},{"duration":0.05859375,"midi":37,"time":120.95833333333333,"velocity":0.3937007874015748},{"duration":0.05859375,"midi":59,"time":120.95833333333333,"velocity":0.3937007874015748},{"duration":0.05859375,"midi":77,"time":120.95833333333333,"velocity":0.3937007874015748},{"duration":0.7955729166666714,"midi":46,"time":120.97005208333333,"velocity":0.3937007874015748},{"duration":0.057291666666671404,"midi":63,"time":120.97005208333333,"velocity":0.3937007874015748},{"duration":0.3020833333333428,"midi":53,"time":120.98177083333333,"velocity":0.3937007874015748},{"duration":0.05859375,"midi":76,"time":120.98177083333333,"velocity":0.3937007874015748},{"duration":0.3033854166666714,"midi":74,"time":120.9921875,"velocity":0.3937007874015748},{"duration":0.059895833333328596,"midi":35,"time":120.9921875,"velocity":0.3937007874015748},{"duration":0.3033854166666714,"midi":69,"time":120.9921875,"velocity":0.3937007874015748},{"duration":0.059895833333328596,"midi":60,"time":121.00390625,"velocity":0.3937007874015748},{"duration":0.059895833333328596,"midi":33,"time":121.02734375,"velocity":0.3937007874015748},{"duration":0.3020833333333286,"midi":77,"time":121.02734375,"velocity":0.3937007874015748},{"duration":0.059895833333328596,"midi":34,"time":121.0859375,"velocity":0.3937007874015748},{"duration":0.059895833333328596,"midi":62,"time":121.109375,"velocity":0.3937007874015748},{"duration":0.1770833333333286,"midi":84,"time":121.12109375,"velocity":0.3937007874015748},{"duration":0.17578125,"midi":82,"time":121.15625,"velocity":0.3937007874015748},{"duration":0.059895833333328596,"midi":34,"time":121.19140625,"velocity":0.3937007874015748},{"duration":0.2955729166666714,"midi":69,"time":121.2265625,"velocity":0.3937007874015748},{"duration":0.059895833333328596,"midi":86,"time":121.23828125,"velocity":0.3937007874015748},{"duration":0.2955729166666714,"midi":53,"time":121.25,"velocity":0.3937007874015748},{"duration":0.059895833333328596,"midi":62,"time":121.26171875,"velocity":0.3937007874015748},{"duration":0.05859375,"midi":34,"time":121.2734375,"velocity":0.3937007874015748},{"duration":0.057291666666671404,"midi":34,"time":121.30859375,"velocity":0.3937007874015748},{"duration":0.057291666666671404,"midi":63,"time":121.33203125,"velocity":0.3937007874015748},{"duration":0.05729166666665719,"midi":76,"time":121.34244791666667,"velocity":0.3937007874015748},{"duration":0.05729166666665719,"midi":82,"time":121.34244791666667,"velocity":0.3937007874015748},{"duration":0.171875,"midi":87,"time":121.34244791666667,"velocity":0.3937007874015748},{"duration":0.057291666666671404,"midi":65,"time":121.36458333333333,"velocity":0.3937007874015748},{"duration":0.05859375,"midi":83,"time":121.37630208333333,"velocity":0.3937007874015748},{"duration":0.171875,"midi":75,"time":121.38802083333333,"velocity":0.3937007874015748},{"duration":0.057291666666671404,"midi":62,"time":121.38802083333333,"velocity":0.3937007874015748},{"duration":0.057291666666671404,"midi":82,"time":121.3984375,"velocity":0.3937007874015748},{"duration":0.057291666666671404,"midi":34,"time":121.3984375,"velocity":0.3937007874015748},{"duration":0.057291666666671404,"midi":86,"time":121.3984375,"velocity":0.3937007874015748},{"duration":0.1731770833333286,"midi":34,"time":121.4453125,"velocity":0.3937007874015748},{"duration":0.05859375,"midi":77,"time":121.4453125,"velocity":0.3937007874015748},{"duration":0.05859375,"midi":63,"time":121.45572916666667,"velocity":0.3937007874015748},{"duration":0.05859375,"midi":76,"time":121.49088541666667,"velocity":0.3937007874015748},{"duration":0.05729166666665719,"midi":65,"time":121.50260416666667,"velocity":0.3937007874015748},{"duration":0.1744791666666714,"midi":69,"time":121.52473958333333,"velocity":0.3937007874015748},{"duration":0.05859375,"midi":64,"time":121.52473958333333,"velocity":0.3937007874015748},{"duration":0.05859375,"midi":93,"time":121.53645833333333,"velocity":0.3937007874015748},{"duration":0.1744791666666714,"midi":53,"time":121.53645833333333,"velocity":0.3937007874015748},{"duration":0.05859375,"midi":75,"time":121.55989583333333,"velocity":0.3937007874015748},{"duration":0.05859375,"midi":76,"time":121.6171875,"velocity":0.3937007874015748},{"duration":0.1744791666666714,"midi":34,"time":121.6171875,"velocity":0.3937007874015748},{"duration":0.059895833333328596,"midi":74,"time":121.62760416666667,"velocity":0.3937007874015748},{"duration":0.059895833333328596,"midi":69,"time":121.69791666666667,"velocity":0.3937007874015748},{"duration":0.059895833333328596,"midi":74,"time":121.69791666666667,"velocity":0.3937007874015748},{"duration":0.2552083333333286,"midi":84,"time":121.72265625,"velocity":0.3937007874015748},{"duration":0.1744791666666714,"midi":87,"time":121.72265625,"velocity":0.3937007874015748},{"duration":0.2447916666666714,"midi":89,"time":121.72265625,"velocity":0.3937007874015748},{"duration":0.05859375,"midi":68,"time":121.72265625,"velocity":0.3937007874015748},{"duration":0.05859375,"midi":51,"time":121.72265625,"velocity":0.3937007874015748},{"duration":0.05859375,"midi":60,"time":121.72265625,"velocity":0.3937007874015748},{"duration":0.1744791666666714,"midi":93,"time":121.734375,"velocity":0.3937007874015748},{"duration":0.057291666666671404,"midi":81,"time":121.734375,"velocity":0.3937007874015748},{"duration":0.057291666666671404,"midi":77,"time":121.734375,"velocity":0.3937007874015748},{"duration":0.057291666666671404,"midi":66,"time":121.734375,"velocity":0.3937007874015748},{"duration":0.1744791666666714,"midi":65,"time":121.7578125,"velocity":0.3937007874015748},{"duration":0.1744791666666714,"midi":69,"time":121.7578125,"velocity":0.3937007874015748},{"duration":0.4205729166666572,"midi":34,"time":121.76822916666667,"velocity":0.3937007874015748},{"duration":0.05859375,"midi":74,"time":121.76822916666667,"velocity":0.3937007874015748},{"duration":0.17578125,"midi":46,"time":121.79166666666667,"velocity":0.3937007874015748},{"duration":0.17578125,"midi":53,"time":121.80208333333333,"velocity":0.3937007874015748},{"duration":0.05989583333334281,"midi":91,"time":121.80208333333333,"velocity":0.3937007874015748},{"duration":0.05989583333334281,"midi":93,"time":121.84895833333333,"velocity":0.3937007874015748},{"duration":0.05989583333334281,"midi":62,"time":121.84895833333333,"velocity":0.3937007874015748},{"duration":0.05989583333334281,"midi":61,"time":121.88411458333333,"velocity":0.3937007874015748},{"duration":0.05989583333334281,"midi":91,"time":121.88411458333333,"velocity":0.3937007874015748},{"duration":0.171875,"midi":69,"time":121.90885416666667,"velocity":0.3937007874015748},{"duration":0.1106770833333286,"midi":89,"time":121.90885416666667,"velocity":0.3937007874015748},{"duration":0.171875,"midi":86,"time":121.90885416666667,"velocity":0.3937007874015748},{"duration":0.1002604166666714,"midi":84,"time":121.91927083333333,"velocity":0.3937007874015748},{"duration":0.1731770833333428,"midi":74,"time":121.91927083333333,"velocity":0.3937007874015748},{"duration":0.1731770833333428,"midi":88,"time":121.91927083333333,"velocity":0.3937007874015748},{"duration":0.1731770833333428,"midi":64,"time":121.91927083333333,"velocity":0.3937007874015748},{"duration":0.057291666666671404,"midi":46,"time":121.93098958333333,"velocity":0.3937007874015748},{"duration":0.171875,"midi":90,"time":121.93098958333333,"velocity":0.3937007874015748},{"duration":0.171875,"midi":95,"time":121.95442708333333,"velocity":0.3937007874015748},{"duration":0.05859375,"midi":46,"time":121.98828125,"velocity":0.3937007874015748},{"duration":0.05859375,"midi":89,"time":121.99869791666667,"velocity":0.3937007874015748},{"duration":0.05859375,"midi":70,"time":122.03385416666667,"velocity":0.3937007874015748},{"duration":0.05859375,"midi":63,"time":122.05729166666667,"velocity":0.3937007874015748},{"duration":0.05859375,"midi":65,"time":122.06770833333333,"velocity":0.3937007874015748},{"duration":0.057291666666671404,"midi":45,"time":122.07942708333333,"velocity":0.3937007874015748},{"duration":0.057291666666671404,"midi":84,"time":122.07942708333333,"velocity":0.3937007874015748},{"duration":0.1731770833333428,"midi":70,"time":122.07942708333333,"velocity":0.3937007874015748},{"duration":0.1731770833333428,"midi":74,"time":122.07942708333333,"velocity":0.3937007874015748},{"duration":0.057291666666671404,"midi":64,"time":122.10286458333333,"velocity":0.3937007874015748},{"duration":0.1744791666666714,"midi":95,"time":122.125,"velocity":0.3937007874015748},{"duration":0.17578125,"midi":88,"time":122.13671875,"velocity":0.3937007874015748},{"duration":0.17578125,"midi":76,"time":122.13671875,"velocity":0.3937007874015748},{"duration":0.17578125,"midi":86,"time":122.13671875,"velocity":0.3937007874015748},{"duration":0.1770833333333286,"midi":64,"time":122.14713541666667,"velocity":0.3937007874015748},{"duration":0.1770833333333286,"midi":90,"time":122.14713541666667,"velocity":0.3937007874015748},{"duration":0.059895833333328596,"midi":77,"time":122.20572916666667,"velocity":0.3937007874015748},{"duration":0.1783854166666714,"midi":60,"time":122.27473958333333,"velocity":0.3937007874015748},{"duration":0.06119791666665719,"midi":70,"time":122.28776041666667,"velocity":0.3937007874015748},{"duration":0.059895833333328596,"midi":63,"time":122.31119791666667,"velocity":0.3937007874015748},{"duration":0.059895833333328596,"midi":45,"time":122.32421875,"velocity":0.3937007874015748},{"duration":0.1770833333333286,"midi":53,"time":122.32421875,"velocity":0.3937007874015748},{"duration":0.059895833333328596,"midi":64,"time":122.3359375,"velocity":0.3937007874015748},{"duration":0.17578125,"midi":70,"time":122.34765625,"velocity":0.3937007874015748},{"duration":0.17578125,"midi":46,"time":122.34765625,"velocity":0.3937007874015748},{"duration":0.059895833333328596,"midi":32,"time":122.37109375,"velocity":0.3937007874015748},{"duration":0.059895833333328596,"midi":34,"time":122.40625,"velocity":0.3937007874015748},{"duration":0.059895833333328596,"midi":34,"time":122.44140625,"velocity":0.3937007874015748},{"duration":0.059895833333328596,"midi":53,"time":122.5,"velocity":0.3937007874015748},{"duration":0.1744791666666714,"midi":74,"time":122.5,"velocity":0.3937007874015748},{"duration":0.17578125,"midi":84,"time":122.51041666666667,"velocity":0.3937007874015748},{"duration":0.059895833333328596,"midi":88,"time":122.5234375,"velocity":0.3937007874015748},{"duration":0.17578125,"midi":94,"time":122.5234375,"velocity":0.3937007874015748},{"duration":0.17578125,"midi":86,"time":122.5234375,"velocity":0.3937007874015748},{"duration":0.17578125,"midi":88,"time":122.5234375,"velocity":0.3937007874015748},{"duration":0.059895833333328596,"midi":63,"time":122.5234375,"velocity":0.3937007874015748},{"duration":0.421875,"midi":68,"time":122.53515625,"velocity":0.3937007874015748},{"duration":0.05859375,"midi":47,"time":122.546875,"velocity":0.3937007874015748},{"duration":0.7955729166666714,"midi":53,"time":122.546875,"velocity":0.3937007874015748},{"duration":0.05859375,"midi":58,"time":122.55989583333333,"velocity":0.3937007874015748},{"duration":0.05859375,"midi":62,"time":122.55989583333333,"velocity":0.3937007874015748},{"duration":0.1744791666666714,"midi":93,"time":122.55989583333333,"velocity":0.3937007874015748},{"duration":0.1744791666666714,"midi":70,"time":122.55989583333333,"velocity":0.3937007874015748},{"duration":0.7955729166666714,"midi":46,"time":122.5703125,"velocity":0.3937007874015748},{"duration":0.1744791666666714,"midi":34,"time":122.58203125,"velocity":0.3937007874015748},{"duration":0.05859375,"midi":63,"time":122.60546875,"velocity":0.3937007874015748},{"duration":0.1744791666666572,"midi":88,"time":122.62760416666667,"velocity":0.3937007874015748},{"duration":0.05859375,"midi":92,"time":122.640625,"velocity":0.3937007874015748},{"duration":0.05859375,"midi":64,"time":122.640625,"velocity":0.3937007874015748},{"duration":0.1744791666666572,"midi":88,"time":122.66276041666667,"velocity":0.3937007874015748},{"duration":0.059895833333328596,"midi":65,"time":122.67447916666667,"velocity":0.3937007874015748},{"duration":0.059895833333328596,"midi":70,"time":122.68619791666667,"velocity":0.3937007874015748},{"duration":0.1731770833333286,"midi":60,"time":122.69791666666667,"velocity":0.3937007874015748},{"duration":0.05859375,"midi":64,"time":122.69791666666667,"velocity":0.3937007874015748},{"duration":0.05859375,"midi":34,"time":122.72135416666667,"velocity":0.3937007874015748},{"duration":0.1380208333333286,"midi":34,"time":122.75651041666667,"velocity":0.3937007874015748},{"duration":0.05859375,"midi":64,"time":122.75651041666667,"velocity":0.3937007874015748},{"duration":0.05859375,"midi":70,"time":122.77864583333333,"velocity":0.3937007874015748},{"duration":0.05859375,"midi":64,"time":122.79036458333333,"velocity":0.3937007874015748},{"duration":0.0924479166666714,"midi":34,"time":122.83723958333333,"velocity":0.3937007874015748},{"duration":0.1731770833333286,"midi":74,"time":122.84765625,"velocity":0.3937007874015748},{"duration":0.05859375,"midi":34,"time":122.87109375,"velocity":0.3937007874015748},{"duration":0.05859375,"midi":62,"time":122.89322916666667,"velocity":0.3937007874015748},{"duration":0.05859375,"midi":77,"time":122.90494791666667,"velocity":0.3937007874015748},{"duration":0.05859375,"midi":94,"time":122.91666666666667,"velocity":0.3937007874015748},{"duration":0.05859375,"midi":33,"time":122.91666666666667,"velocity":0.3937007874015748},{"duration":0.05859375,"midi":84,"time":122.91666666666667,"velocity":0.3937007874015748},{"duration":0.05859375,"midi":63,"time":122.92838541666667,"velocity":0.3937007874015748},{"duration":0.059895833333328596,"midi":34,"time":122.94010416666667,"velocity":0.3937007874015748},{"duration":0.05859375,"midi":62,"time":122.95182291666667,"velocity":0.3937007874015748},{"duration":0.17578125,"midi":34,"time":123.00911458333333,"velocity":0.3937007874015748},{"duration":0.1770833333333286,"midi":63,"time":123.078125,"velocity":0.3937007874015748},{"duration":0.061197916666671404,"midi":89,"time":123.09114583333333,"velocity":0.3937007874015748},{"duration":0.061197916666671404,"midi":33,"time":123.09114583333333,"velocity":0.3937007874015748},{"duration":0.05989583333334281,"midi":75,"time":123.10286458333333,"velocity":0.3937007874015748},{"duration":0.1744791666666714,"midi":93,"time":123.11458333333333,"velocity":0.3937007874015748},{"duration":0.1744791666666714,"midi":69,"time":123.12630208333333,"velocity":0.3937007874015748},{"duration":0.1614583333333286,"midi":34,"time":123.13932291666667,"velocity":0.3937007874015748},{"duration":0.05859375,"midi":74,"time":123.16145833333333,"velocity":0.3937007874015748},{"duration":0.05859375,"midi":81,"time":123.16145833333333,"velocity":0.3937007874015748},{"duration":0.05989583333334281,"midi":62,"time":123.17317708333333,"velocity":0.3937007874015748},{"duration":0.05989583333334281,"midi":73,"time":123.20833333333333,"velocity":0.3937007874015748},{"duration":0.05989583333334281,"midi":80,"time":123.20833333333333,"velocity":0.3937007874015748},{"duration":0.05859375,"midi":61,"time":123.22005208333333,"velocity":0.3937007874015748},{"duration":0.05859375,"midi":74,"time":123.2421875,"velocity":0.3937007874015748},{"duration":0.0703125,"midi":34,"time":123.2421875,"velocity":0.3937007874015748},{"duration":0.057291666666671404,"midi":81,"time":123.25520833333333,"velocity":0.3937007874015748},{"duration":0.057291666666671404,"midi":62,"time":123.25520833333333,"velocity":0.3937007874015748},{"duration":0.057291666666671404,"midi":68,"time":123.27734375,"velocity":0.3937007874015748},{"duration":0.057291666666671404,"midi":77,"time":123.27734375,"velocity":0.3937007874015748},{"duration":0.057291666666671404,"midi":72,"time":123.2890625,"velocity":0.3937007874015748},{"duration":0.057291666666671404,"midi":86,"time":123.2890625,"velocity":0.3937007874015748},{"duration":0.057291666666671404,"midi":51,"time":123.2890625,"velocity":0.3937007874015748},{"duration":0.05729166666665719,"midi":82,"time":123.31119791666667,"velocity":0.3937007874015748},{"duration":0.05729166666665719,"midi":50,"time":123.31119791666667,"velocity":0.3937007874015748},{"duration":0.05859375,"midi":56,"time":123.32291666666667,"velocity":0.3937007874015748},{"duration":0.05729166666665719,"midi":62,"time":123.33463541666667,"velocity":0.3937007874015748},{"duration":0.1731770833333428,"midi":34,"time":123.34505208333333,"velocity":0.3937007874015748},{"duration":0.1744791666666714,"midi":46,"time":123.36848958333333,"velocity":0.3937007874015748},{"duration":0.05859375,"midi":61,"time":123.36848958333333,"velocity":0.3937007874015748},{"duration":0.17578125,"midi":53,"time":123.390625,"velocity":0.3937007874015748},{"duration":0.17578125,"midi":74,"time":123.4140625,"velocity":0.3937007874015748},{"duration":0.17578125,"midi":62,"time":123.42578125,"velocity":0.3937007874015748},{"duration":0.05859375,"midi":77,"time":123.44921875,"velocity":0.3937007874015748},{"duration":0.1770833333333286,"midi":34,"time":123.50651041666667,"velocity":0.3937007874015748},{"duration":0.06119791666665719,"midi":61,"time":123.51822916666667,"velocity":0.3937007874015748},{"duration":0.1783854166666572,"midi":46,"time":123.52994791666667,"velocity":0.3937007874015748},{"duration":0.059895833333328596,"midi":60,"time":123.5546875,"velocity":0.3937007874015748},{"duration":0.1770833333333286,"midi":62,"time":123.61328125,"velocity":0.3937007874015748},{"duration":0.1770833333333286,"midi":53,"time":123.61328125,"velocity":0.3937007874015748},{"duration":0.1783854166666714,"midi":46,"time":123.63671875,"velocity":0.3937007874015748},{"duration":0.1783854166666714,"midi":34,"time":123.63671875,"velocity":0.3937007874015748},{"duration":0.061197916666671404,"midi":89,"time":123.671875,"velocity":0.3937007874015748},{"duration":0.1770833333333286,"midi":74,"time":123.6953125,"velocity":0.3937007874015748},{"duration":0.1770833333333428,"midi":57,"time":123.70833333333333,"velocity":0.3937007874015748},{"duration":0.2994791666666714,"midi":81,"time":123.72005208333333,"velocity":0.3937007874015748},{"duration":0.17578125,"midi":62,"time":123.76692708333333,"velocity":0.3937007874015748},{"duration":0.05989583333334281,"midi":77,"time":123.79036458333333,"velocity":0.3937007874015748},{"duration":0.30078125,"midi":46,"time":123.80208333333333,"velocity":0.3937007874015748},{"duration":0.1731770833333286,"midi":53,"time":123.82682291666667,"velocity":0.3937007874015748},{"duration":0.1731770833333428,"midi":34,"time":123.84895833333333,"velocity":0.3937007874015748},{"duration":0.1744791666666714,"midi":90,"time":123.859375,"velocity":0.3937007874015748},{"duration":0.061197916666671404,"midi":83,"time":123.859375,"velocity":0.3937007874015748},{"duration":0.1744791666666714,"midi":74,"time":123.87239583333333,"velocity":0.3937007874015748},{"duration":0.1744791666666714,"midi":91,"time":123.87239583333333,"velocity":0.3937007874015748},{"duration":0.05989583333334281,"midi":85,"time":123.87239583333333,"velocity":0.3937007874015748},{"duration":0.05859375,"midi":62,"time":123.88411458333333,"velocity":0.3937007874015748},{"duration":0.057291666666671404,"midi":77,"time":123.89583333333333,"velocity":0.3937007874015748},{"duration":0.057291666666671404,"midi":63,"time":123.93098958333333,"velocity":0.3937007874015748},{"duration":0.057291666666671404,"midi":57,"time":123.93098958333333,"velocity":0.3937007874015748},{"duration":0.17578125,"midi":62,"time":123.953125,"velocity":0.3937007874015748},{"duration":0.17578125,"midi":34,"time":123.953125,"velocity":0.3937007874015748},{"duration":0.1744791666666572,"midi":81,"time":123.99869791666667,"velocity":0.3937007874015748},{"duration":0.06119791666665719,"midi":77,"time":124.02213541666667,"velocity":0.3937007874015748},{"duration":0.059895833333328596,"midi":57,"time":124.04557291666667,"velocity":0.3937007874015748},{"duration":0.2955729166666714,"midi":79,"time":124.05859375,"velocity":0.3937007874015748},{"duration":0.2955729166666714,"midi":67,"time":124.0703125,"velocity":0.3937007874015748},{"duration":0.05859375,"midi":52,"time":124.0703125,"velocity":0.3937007874015748},{"duration":0.1705729166666714,"midi":90,"time":124.0703125,"velocity":0.3937007874015748},{"duration":0.057291666666671404,"midi":72,"time":124.08203125,"velocity":0.3937007874015748},{"duration":0.057291666666671404,"midi":86,"time":124.08203125,"velocity":0.3937007874015748},{"duration":0.057291666666671404,"midi":82,"time":124.08203125,"velocity":0.3937007874015748},{"duration":0.057291666666671404,"midi":88,"time":124.09375,"velocity":0.3937007874015748},{"duration":0.1705729166666714,"midi":74,"time":124.09375,"velocity":0.3937007874015748},{"duration":0.057291666666671404,"midi":63,"time":124.09375,"velocity":0.3937007874015748},{"duration":0.057291666666671404,"midi":37,"time":124.09375,"velocity":0.3937007874015748},{"duration":0.1705729166666714,"midi":76,"time":124.10546875,"velocity":0.3937007874015748},{"duration":0.1705729166666714,"midi":81,"time":124.10546875,"velocity":0.3937007874015748},{"duration":0.057291666666671404,"midi":53,"time":124.10546875,"velocity":0.3937007874015748},{"duration":0.05729166666665719,"midi":64,"time":124.11588541666667,"velocity":0.3937007874015748},{"duration":0.05729166666665719,"midi":60,"time":124.11588541666667,"velocity":0.3937007874015748},{"duration":0.055989583333328596,"midi":30,"time":124.12760416666667,"velocity":0.3937007874015748},{"duration":0.7955729166666572,"midi":52,"time":124.12760416666667,"velocity":0.3937007874015748},{"duration":0.055989583333328596,"midi":86,"time":124.12760416666667,"velocity":0.3937007874015748},{"duration":0.055989583333328596,"midi":84,"time":124.12760416666667,"velocity":0.3937007874015748},{"duration":0.7955729166666572,"midi":45,"time":124.13932291666667,"velocity":0.3937007874015748},{"duration":0.6731770833333286,"midi":83,"time":124.13932291666667,"velocity":0.3937007874015748},{"duration":0.057291666666671404,"midi":31,"time":124.14973958333333,"velocity":0.3937007874015748},{"duration":0.057291666666671404,"midi":75,"time":124.17317708333333,"velocity":0.3937007874015748},{"duration":0.057291666666671404,"midi":62,"time":124.18359375,"velocity":0.3937007874015748},{"duration":0.1744791666666572,"midi":88,"time":124.19401041666667,"velocity":0.3937007874015748},{"duration":0.1744791666666572,"midi":92,"time":124.19401041666667,"velocity":0.3937007874015748},{"duration":0.5494791666666714,"midi":76,"time":124.20703125,"velocity":0.3937007874015748},{"duration":0.05859375,"midi":86,"time":124.21744791666667,"velocity":0.3937007874015748},{"duration":0.4244791666666572,"midi":90,"time":124.21744791666667,"velocity":0.3937007874015748},{"duration":0.05859375,"midi":33,"time":124.21744791666667,"velocity":0.3937007874015748},{"duration":0.1744791666666572,"midi":64,"time":124.22916666666667,"velocity":0.3937007874015748},{"duration":0.17578125,"midi":86,"time":124.23958333333333,"velocity":0.3937007874015748},{"duration":0.05859375,"midi":61,"time":124.23958333333333,"velocity":0.3937007874015748},{"duration":0.05989583333334281,"midi":33,"time":124.25130208333333,"velocity":0.3937007874015748},{"duration":0.17578125,"midi":72,"time":124.26302083333333,"velocity":0.3937007874015748},{"duration":0.4088541666666714,"midi":92,"time":124.28645833333333,"velocity":0.3937007874015748},{"duration":0.42578125,"midi":33,"time":124.33333333333333,"velocity":0.3937007874015748},{"duration":0.17578125,"midi":64,"time":124.390625,"velocity":0.3937007874015748},{"duration":0.1744791666666714,"midi":67,"time":124.41536458333333,"velocity":0.3937007874015748},{"duration":0.05859375,"midi":86,"time":124.43880208333333,"velocity":0.3937007874015748},{"duration":0.42578125,"midi":72,"time":124.4609375,"velocity":0.3937007874015748},{"duration":0.05859375,"midi":63,"time":124.53125,"velocity":0.3937007874015748},{"duration":0.05859375,"midi":61,"time":124.56640625,"velocity":0.3937007874015748},{"duration":0.05859375,"midi":60,"time":124.58984375,"velocity":0.3937007874015748},{"duration":0.30078125,"midi":67,"time":124.58984375,"velocity":0.3937007874015748},{"duration":0.07682291666665719,"midi":92,"time":124.63541666666667,"velocity":0.3937007874015748},{"duration":0.17578125,"midi":62,"time":124.64713541666667,"velocity":0.3937007874015748},{"duration":0.059895833333328596,"midi":75,"time":124.64713541666667,"velocity":0.3937007874015748},{"duration":0.17578125,"midi":93,"time":124.64713541666667,"velocity":0.3937007874015748},{"duration":0.05989583333334281,"midi":82,"time":124.65755208333333,"velocity":0.3937007874015748},{"duration":0.17578125,"midi":76,"time":124.67057291666667,"velocity":0.3937007874015748},{"duration":0.17578125,"midi":90,"time":124.68229166666667,"velocity":0.3937007874015748},{"duration":0.05859375,"midi":81,"time":124.69401041666667,"velocity":0.3937007874015748},{"duration":0.17578125,"midi":33,"time":124.71744791666667,"velocity":0.3937007874015748},{"duration":0.059895833333328596,"midi":82,"time":124.75260416666667,"velocity":0.3937007874015748},{"duration":0.05859375,"midi":91,"time":124.76432291666667,"velocity":0.3937007874015748},{"duration":0.05859375,"midi":75,"time":124.76432291666667,"velocity":0.3937007874015748},{"duration":0.1731770833333286,"midi":64,"time":124.76432291666667,"velocity":0.3937007874015748},{"duration":0.296875,"midi":83,"time":124.78776041666667,"velocity":0.3937007874015748},{"duration":0.1731770833333286,"midi":88,"time":124.78776041666667,"velocity":0.3937007874015748},{"duration":0.2955729166666572,"midi":92,"time":124.79947916666667,"velocity":0.3937007874015748},{"duration":0.171875,"midi":90,"time":124.81119791666667,"velocity":0.3937007874015748},{"duration":0.05859375,"midi":61,"time":124.81119791666667,"velocity":0.3937007874015748},{"duration":0.05989583333334281,"midi":75,"time":124.84505208333333,"velocity":0.3937007874015748},{"duration":0.171875,"midi":77,"time":124.85677083333333,"velocity":0.3937007874015748},{"duration":0.05859375,"midi":68,"time":124.85677083333333,"velocity":0.3937007874015748},{"duration":0.05859375,"midi":81,"time":124.85677083333333,"velocity":0.3937007874015748},{"duration":0.05729166666665719,"midi":60,"time":124.86979166666667,"velocity":0.3937007874015748},{"duration":0.05729166666665719,"midi":50,"time":124.86979166666667,"velocity":0.3937007874015748},{"duration":0.1731770833333428,"midi":76,"time":124.88020833333333,"velocity":0.3937007874015748},{"duration":0.057291666666671404,"midi":51,"time":124.88020833333333,"velocity":0.3937007874015748},{"duration":0.1731770833333428,"midi":33,"time":124.89192708333333,"velocity":0.3937007874015748},{"duration":0.057291666666671404,"midi":50,"time":124.89192708333333,"velocity":0.3937007874015748},{"duration":0.055989583333328596,"midi":49,"time":124.90494791666667,"velocity":0.3937007874015748},{"duration":0.171875,"midi":67,"time":124.90494791666667,"velocity":0.3937007874015748},{"duration":0.057291666666671404,"midi":81,"time":124.91536458333333,"velocity":0.3937007874015748},{"duration":0.171875,"midi":64,"time":124.9375,"velocity":0.3937007874015748},{"duration":0.05859375,"midi":45,"time":124.9375,"velocity":0.3937007874015748},{"duration":0.05859375,"midi":52,"time":124.95963541666667,"velocity":0.3937007874015748},{"duration":0.05859375,"midi":32,"time":124.95963541666667,"velocity":0.3937007874015748},{"duration":0.05989583333334281,"midi":30,"time":125.00520833333333,"velocity":0.3937007874015748},{"duration":0.05989583333334281,"midi":75,"time":125.00520833333333,"velocity":0.3937007874015748},{"duration":0.1744791666666714,"midi":83,"time":125.00520833333333,"velocity":0.3937007874015748},{"duration":0.05859375,"midi":77,"time":125.01822916666667,"velocity":0.3937007874015748},{"duration":0.05859375,"midi":62,"time":125.02864583333333,"velocity":0.3937007874015748},{"duration":0.1744791666666714,"midi":88,"time":125.04036458333333,"velocity":0.3937007874015748},{"duration":0.057291666666671404,"midi":58,"time":125.04036458333333,"velocity":0.3937007874015748},{"duration":0.421875,"midi":52,"time":125.05338541666667,"velocity":0.3937007874015748},{"duration":0.171875,"midi":91,"time":125.06510416666667,"velocity":0.3937007874015748},{"duration":0.057291666666671404,"midi":67,"time":125.07552083333333,"velocity":0.3937007874015748},{"duration":0.05859375,"midi":81,"time":125.08723958333333,"velocity":0.3937007874015748},{"duration":0.1744791666666714,"midi":59,"time":125.08723958333333,"velocity":0.3937007874015748},{"duration":0.05859375,"midi":62,"time":125.08723958333333,"velocity":0.3937007874015748},{"duration":0.059895833333328596,"midi":82,"time":125.15494791666667,"velocity":0.3937007874015748},{"duration":0.05859375,"midi":83,"time":125.16796875,"velocity":0.3937007874015748},{"duration":0.05859375,"midi":81,"time":125.203125,"velocity":0.3937007874015748},{"duration":0.1731770833333286,"midi":83,"time":125.22526041666667,"velocity":0.3937007874015748},{"duration":0.05859375,"midi":60,"time":125.24869791666667,"velocity":0.3937007874015748},{"duration":0.05859375,"midi":61,"time":125.27083333333333,"velocity":0.3937007874015748},{"duration":0.05859375,"midi":80,"time":125.27083333333333,"velocity":0.3937007874015748},{"duration":0.05859375,"midi":83,"time":125.375,"velocity":0.3937007874015748},{"duration":0.2994791666666714,"midi":81,"time":125.43359375,"velocity":0.3937007874015748},{"duration":0.059895833333328596,"midi":57,"time":125.43359375,"velocity":0.3937007874015748},{"duration":0.059895833333328596,"midi":59,"time":125.46875,"velocity":0.3937007874015748},{"duration":0.17578125,"midi":66,"time":125.46875,"velocity":0.3937007874015748},{"duration":0.17578125,"midi":47,"time":125.48046875,"velocity":0.3937007874015748},{"duration":0.17578125,"midi":62,"time":125.48046875,"velocity":0.3937007874015748},{"duration":0.17578125,"midi":83,"time":125.48046875,"velocity":0.3937007874015748},{"duration":0.059895833333328596,"midi":76,"time":125.60807291666667,"velocity":0.3937007874015748},{"duration":0.059895833333328596,"midi":61,"time":125.63151041666667,"velocity":0.3937007874015748},{"duration":0.059895833333328596,"midi":83,"time":125.63151041666667,"velocity":0.3937007874015748},{"duration":0.2994791666666572,"midi":72,"time":125.64322916666667,"velocity":0.3937007874015748},{"duration":0.05859375,"midi":77,"time":125.65494791666667,"velocity":0.3937007874015748},{"duration":0.057291666666671404,"midi":37,"time":125.66796875,"velocity":0.3937007874015748},{"duration":0.2981770833333286,"midi":64,"time":125.66796875,"velocity":0.3937007874015748},{"duration":0.1731770833333286,"midi":67,"time":125.66796875,"velocity":0.3937007874015748},{"duration":0.05729166666665719,"midi":69,"time":125.69010416666667,"velocity":0.3937007874015748},{"duration":0.4231770833333286,"midi":45,"time":125.70182291666667,"velocity":0.3937007874015748},{"duration":0.05859375,"midi":61,"time":125.70182291666667,"velocity":0.3937007874015748},{"duration":0.6692708333333286,"midi":84,"time":125.71354166666667,"velocity":0.3937007874015748},{"duration":0.4231770833333428,"midi":60,"time":125.72395833333333,"velocity":0.3937007874015748},{"duration":0.421875,"midi":79,"time":125.8984375,"velocity":0.3937007874015748},{"duration":0.140625,"midi":64,"time":125.91015625,"velocity":0.3937007874015748},{"duration":0.0950520833333286,"midi":64,"time":125.99088541666667,"velocity":0.3937007874015748},{"duration":0.059895833333328596,"midi":76,"time":126.02604166666667,"velocity":0.3937007874015748},{"duration":0.171875,"midi":88,"time":126.02604166666667,"velocity":0.3937007874015748},{"duration":0.059895833333328596,"midi":44,"time":126.02604166666667,"velocity":0.3937007874015748},{"duration":0.059895833333328596,"midi":91,"time":126.03776041666667,"velocity":0.3937007874015748},{"duration":0.171875,"midi":69,"time":126.03776041666667,"velocity":0.3937007874015748},{"duration":0.171875,"midi":77,"time":126.05078125,"velocity":0.3937007874015748},{"duration":0.05859375,"midi":75,"time":126.05078125,"velocity":0.3937007874015748},{"duration":0.05859375,"midi":41,"time":126.05078125,"velocity":0.3937007874015748},{"duration":0.05859375,"midi":37,"time":126.06119791666667,"velocity":0.3937007874015748},{"duration":0.171875,"midi":86,"time":126.07291666666667,"velocity":0.3937007874015748},{"duration":0.2942708333333286,"midi":64,"time":126.10807291666667,"velocity":0.3937007874015748},{"duration":0.171875,"midi":50,"time":126.10807291666667,"velocity":0.3937007874015748},{"duration":0.057291666666671404,"midi":57,"time":126.11848958333333,"velocity":0.3937007874015748},{"duration":0.057291666666671404,"midi":30,"time":126.13020833333333,"velocity":0.3937007874015748},{"duration":0.05859375,"midi":73,"time":126.17578125,"velocity":0.3937007874015748},{"duration":0.05859375,"midi":51,"time":126.18619791666667,"velocity":0.3937007874015748},{"duration":0.05859375,"midi":44,"time":126.18619791666667,"velocity":0.3937007874015748},{"duration":0.059895833333328596,"midi":72,"time":126.19791666666667,"velocity":0.3937007874015748},{"duration":0.1744791666666572,"midi":60,"time":126.19791666666667,"velocity":0.3937007874015748},{"duration":0.059895833333328596,"midi":77,"time":126.19791666666667,"velocity":0.3937007874015748},{"duration":0.05859375,"midi":67,"time":126.22135416666667,"velocity":0.3937007874015748},{"duration":0.171875,"midi":88,"time":126.23307291666667,"velocity":0.3937007874015748},{"duration":0.05859375,"midi":71,"time":126.24479166666667,"velocity":0.3937007874015748},{"duration":0.05859375,"midi":78,"time":126.24479166666667,"velocity":0.3937007874015748},{"duration":0.1731770833333286,"midi":52,"time":126.24479166666667,"velocity":0.3937007874015748},{"duration":0.4205729166666572,"midi":76,"time":126.24479166666667,"velocity":0.3937007874015748},{"duration":0.05859375,"midi":57,"time":126.26692708333333,"velocity":0.3937007874015748},{"duration":0.1731770833333286,"midi":72,"time":126.27994791666667,"velocity":0.3937007874015748},{"duration":0.05859375,"midi":86,"time":126.27994791666667,"velocity":0.3937007874015748},{"duration":0.05989583333334281,"midi":79,"time":126.29036458333333,"velocity":0.3937007874015748},{"duration":0.05859375,"midi":80,"time":126.30208333333333,"velocity":0.3937007874015748},{"duration":0.05859375,"midi":57,"time":126.31380208333333,"velocity":0.3937007874015748},{"duration":0.05859375,"midi":60,"time":126.31380208333333,"velocity":0.3937007874015748},{"duration":0.1731770833333428,"midi":90,"time":126.31380208333333,"velocity":0.3937007874015748},{"duration":0.057291666666671404,"midi":79,"time":126.32552083333333,"velocity":0.3937007874015748},{"duration":0.057291666666671404,"midi":52,"time":126.36067708333333,"velocity":0.3937007874015748},{"duration":0.057291666666671404,"midi":57,"time":126.36067708333333,"velocity":0.3937007874015748},{"duration":0.057291666666671404,"midi":83,"time":126.36067708333333,"velocity":0.3937007874015748},{"duration":0.057291666666671404,"midi":79,"time":126.36067708333333,"velocity":0.3937007874015748},{"duration":0.1731770833333286,"midi":87,"time":126.40494791666667,"velocity":0.3937007874015748},{"duration":0.059895833333328596,"midi":44,"time":126.40494791666667,"velocity":0.3937007874015748},{"duration":0.1731770833333286,"midi":89,"time":126.41666666666667,"velocity":0.3937007874015748},{"duration":0.05859375,"midi":79,"time":126.41666666666667,"velocity":0.3937007874015748},{"duration":0.05859375,"midi":71,"time":126.41666666666667,"velocity":0.3937007874015748},{"duration":0.1731770833333286,"midi":68,"time":126.41666666666667,"velocity":0.3937007874015748},{"duration":0.05859375,"midi":64,"time":126.42838541666667,"velocity":0.3937007874015748},{"duration":0.05859375,"midi":51,"time":126.42838541666667,"velocity":0.3937007874015748},{"duration":0.05859375,"midi":88,"time":126.42838541666667,"velocity":0.3937007874015748},{"duration":0.05729166666665719,"midi":85,"time":126.44010416666667,"velocity":0.3937007874015748},{"duration":0.05729166666665719,"midi":61,"time":126.44010416666667,"velocity":0.3937007874015748},{"duration":0.05729166666665719,"midi":90,"time":126.45182291666667,"velocity":0.3937007874015748},{"duration":0.05729166666665719,"midi":72,"time":126.45182291666667,"velocity":0.3937007874015748},{"duration":0.057291666666671404,"midi":53,"time":126.46484375,"velocity":0.3937007874015748},{"duration":0.057291666666671404,"midi":80,"time":126.46484375,"velocity":0.3937007874015748},{"duration":0.057291666666671404,"midi":63,"time":126.46484375,"velocity":0.3937007874015748},{"duration":0.057291666666671404,"midi":85,"time":126.46484375,"velocity":0.3937007874015748},{"duration":0.05729166666665719,"midi":60,"time":126.47526041666667,"velocity":0.3937007874015748},{"duration":0.05729166666665719,"midi":73,"time":126.47526041666667,"velocity":0.3937007874015748},{"duration":0.1731770833333428,"midi":84,"time":126.48567708333333,"velocity":0.3937007874015748},{"duration":0.05859375,"midi":79,"time":126.49609375,"velocity":0.3937007874015748},{"duration":0.2955729166666714,"midi":67,"time":126.49609375,"velocity":0.3937007874015748},{"duration":0.05859375,"midi":60,"time":126.53125,"velocity":0.3937007874015748},{"duration":0.05859375,"midi":71,"time":126.53125,"velocity":0.3937007874015748},{"duration":0.05859375,"midi":78,"time":126.53125,"velocity":0.3937007874015748},{"duration":0.059895833333328596,"midi":53,"time":126.54296875,"velocity":0.3937007874015748},{"duration":0.059895833333328596,"midi":58,"time":126.56510416666667,"velocity":0.3937007874015748},{"duration":0.059895833333328596,"midi":77,"time":126.56510416666667,"velocity":0.3937007874015748},{"duration":0.296875,"midi":72,"time":126.56510416666667,"velocity":0.3937007874015748},{"duration":0.1731770833333286,"midi":88,"time":126.56510416666667,"velocity":0.3937007874015748},{"duration":0.05859375,"midi":57,"time":126.58984375,"velocity":0.3937007874015748},{"duration":0.5481770833333286,"midi":76,"time":126.58984375,"velocity":0.3937007874015748},{"duration":0.05859375,"midi":63,"time":126.625,"velocity":0.3937007874015748},{"duration":0.05859375,"midi":53,"time":126.63541666666667,"velocity":0.3937007874015748},{"duration":0.05859375,"midi":64,"time":126.64713541666667,"velocity":0.3937007874015748},{"duration":0.05859375,"midi":52,"time":126.65885416666667,"velocity":0.3937007874015748},{"duration":0.05859375,"midi":60,"time":126.65885416666667,"velocity":0.3937007874015748},{"duration":0.2955729166666572,"midi":89,"time":126.67057291666667,"velocity":0.3937007874015748},{"duration":0.05729166666665719,"midi":63,"time":126.67057291666667,"velocity":0.3937007874015748},{"duration":0.05729166666665719,"midi":55,"time":126.69401041666667,"velocity":0.3937007874015748},{"duration":0.057291666666671404,"midi":77,"time":126.71614583333333,"velocity":0.3937007874015748},{"duration":0.057291666666671404,"midi":60,"time":126.71614583333333,"velocity":0.3937007874015748},{"duration":0.057291666666671404,"midi":55,"time":126.7265625,"velocity":0.3937007874015748},{"duration":0.059895833333328596,"midi":64,"time":126.78385416666667,"velocity":0.3937007874015748},{"duration":0.1744791666666714,"midi":88,"time":126.79427083333333,"velocity":0.3937007874015748},{"duration":0.05989583333334281,"midi":79,"time":126.79427083333333,"velocity":0.3937007874015748},{"duration":0.05859375,"midi":86,"time":126.80729166666667,"velocity":0.3937007874015748},{"duration":0.05859375,"midi":51,"time":126.80729166666667,"velocity":0.3937007874015748},{"duration":0.30078125,"midi":91,"time":126.81901041666667,"velocity":0.3937007874015748},{"duration":0.05859375,"midi":68,"time":126.81901041666667,"velocity":0.3937007874015748},{"duration":0.05729166666665719,"midi":66,"time":126.83072916666667,"velocity":0.3937007874015748},{"duration":0.1731770833333286,"midi":57,"time":126.83072916666667,"velocity":0.3937007874015748},{"duration":0.05729166666665719,"midi":50,"time":126.83072916666667,"velocity":0.3937007874015748},{"duration":0.05729166666665719,"midi":77,"time":126.83072916666667,"velocity":0.3937007874015748},{"duration":0.1731770833333286,"midi":72,"time":126.83072916666667,"velocity":0.3937007874015748},{"duration":0.055989583333328596,"midi":79,"time":126.84244791666667,"velocity":0.3937007874015748},{"duration":0.05729166666665719,"midi":67,"time":126.85416666666667,"velocity":0.3937007874015748},{"duration":0.05859375,"midi":67,"time":126.88802083333333,"velocity":0.3937007874015748},{"duration":0.059895833333328596,"midi":61,"time":126.8984375,"velocity":0.3937007874015748},{"duration":0.1770833333333286,"midi":57,"time":126.93359375,"velocity":0.3937007874015748},{"duration":0.059895833333328596,"midi":45,"time":126.93359375,"velocity":0.3937007874015748},{"duration":0.1783854166666714,"midi":60,"time":126.96875,"velocity":0.3937007874015748},{"duration":0.059895833333328596,"midi":88,"time":126.96875,"velocity":0.3937007874015748},{"duration":0.1783854166666714,"midi":89,"time":126.96875,"velocity":0.3937007874015748},{"duration":0.059895833333328596,"midi":51,"time":126.98046875,"velocity":0.3937007874015748},{"duration":0.1770833333333286,"midi":95,"time":126.98046875,"velocity":0.3937007874015748},{"duration":0.059895833333328596,"midi":68,"time":126.9921875,"velocity":0.3937007874015748},{"duration":0.1783854166666714,"midi":76,"time":127.0625,"velocity":0.3937007874015748},{"duration":0.05989583333334281,"midi":45,"time":127.07552083333333,"velocity":0.3937007874015748},{"duration":0.1770833333333428,"midi":67,"time":127.07552083333333,"velocity":0.3937007874015748},{"duration":0.05989583333334281,"midi":34,"time":127.08723958333333,"velocity":0.3937007874015748},{"duration":0.061197916666671404,"midi":41,"time":127.1796875,"velocity":0.3937007874015748},{"duration":0.061197916666671404,"midi":94,"time":127.1796875,"velocity":0.3937007874015748},{"duration":0.05989583333334281,"midi":59,"time":127.19270833333333,"velocity":0.3937007874015748},{"duration":0.05989583333334281,"midi":64,"time":127.19270833333333,"velocity":0.3937007874015748},{"duration":0.1744791666666714,"midi":88,"time":127.19270833333333,"velocity":0.3937007874015748},{"duration":0.30078125,"midi":88,"time":127.19270833333333,"velocity":0.3937007874015748},{"duration":0.4231770833333428,"midi":93,"time":127.19270833333333,"velocity":0.3937007874015748},{"duration":0.30078125,"midi":69,"time":127.19270833333333,"velocity":0.3937007874015748},{"duration":0.1731770833333428,"midi":74,"time":127.20442708333333,"velocity":0.3937007874015748},{"duration":0.05859375,"midi":92,"time":127.20442708333333,"velocity":0.3937007874015748},{"duration":0.05859375,"midi":37,"time":127.20442708333333,"velocity":0.3937007874015748},{"duration":0.5455729166666714,"midi":77,"time":127.21614583333333,"velocity":0.3937007874015748},{"duration":0.057291666666671404,"midi":60,"time":127.21614583333333,"velocity":0.3937007874015748},{"duration":0.171875,"midi":79,"time":127.22786458333333,"velocity":0.3937007874015748},{"duration":0.055989583333328596,"midi":89,"time":127.24088541666667,"velocity":0.3937007874015748},{"duration":0.05598958333334281,"midi":64,"time":127.25130208333333,"velocity":0.3937007874015748},{"duration":0.7955729166666714,"midi":50,"time":127.25130208333333,"velocity":0.3937007874015748},{"duration":0.05598958333334281,"midi":91,"time":127.25130208333333,"velocity":0.3937007874015748},{"duration":0.057291666666671404,"midi":84,"time":127.26171875,"velocity":0.3937007874015748},{"duration":0.05859375,"midi":63,"time":127.2734375,"velocity":0.3937007874015748},{"duration":0.1744791666666714,"midi":84,"time":127.2734375,"velocity":0.3937007874015748},{"duration":0.059895833333328596,"midi":57,"time":127.28385416666667,"velocity":0.3937007874015748},{"duration":0.17578125,"midi":90,"time":127.29557291666667,"velocity":0.3937007874015748},{"duration":0.17578125,"midi":92,"time":127.29557291666667,"velocity":0.3937007874015748},{"duration":0.059895833333328596,"midi":63,"time":127.30729166666667,"velocity":0.3937007874015748},{"duration":0.2981770833333286,"midi":57,"time":127.35416666666667,"velocity":0.3937007874015748},{"duration":0.17578125,"midi":89,"time":127.35416666666667,"velocity":0.3937007874015748},{"duration":0.17578125,"midi":86,"time":127.36588541666667,"velocity":0.3937007874015748},{"duration":0.05859375,"midi":91,"time":127.36588541666667,"velocity":0.3937007874015748},{"duration":0.05989583333334281,"midi":65,"time":127.37630208333333,"velocity":0.3937007874015748},{"duration":0.17578125,"midi":84,"time":127.37630208333333,"velocity":0.3937007874015748},{"duration":0.061197916666671404,"midi":87,"time":127.44661458333333,"velocity":0.3937007874015748},{"duration":0.059895833333328596,"midi":65,"time":127.45963541666667,"velocity":0.3937007874015748},{"duration":0.05859375,"midi":64,"time":127.48307291666667,"velocity":0.3937007874015748},{"duration":0.05729166666665719,"midi":63,"time":127.49479166666667,"velocity":0.3937007874015748},{"duration":0.05729166666665719,"midi":64,"time":127.51822916666667,"velocity":0.3937007874015748},{"duration":0.2981770833333428,"midi":86,"time":127.55208333333333,"velocity":0.3937007874015748},{"duration":0.2981770833333428,"midi":93,"time":127.57552083333333,"velocity":0.3937007874015748},{"duration":0.057291666666671404,"midi":84,"time":127.57552083333333,"velocity":0.3937007874015748},{"duration":0.05859375,"midi":66,"time":127.5859375,"velocity":0.3937007874015748},{"duration":0.2981770833333286,"midi":84,"time":127.5859375,"velocity":0.3937007874015748},{"duration":0.2981770833333286,"midi":65,"time":127.60807291666667,"velocity":0.3937007874015748},{"duration":0.4231770833333286,"midi":57,"time":127.63151041666667,"velocity":0.3937007874015748},{"duration":0.4205729166666714,"midi":77,"time":127.77083333333333,"velocity":0.3937007874015748},{"duration":0.1731770833333428,"midi":81,"time":127.78255208333333,"velocity":0.3937007874015748},{"duration":0.2656250000000142,"midi":74,"time":127.80598958333333,"velocity":0.3937007874015748},{"duration":0.05859375,"midi":64,"time":127.81770833333333,"velocity":0.3937007874015748},{"duration":0.1744791666666714,"midi":65,"time":127.85286458333333,"velocity":0.3937007874015748},{"duration":0.05859375,"midi":84,"time":127.90885416666667,"velocity":0.3937007874015748},{"duration":0.059895833333328596,"midi":88,"time":127.96744791666667,"velocity":0.3937007874015748},{"duration":0.2968750000000142,"midi":93,"time":127.97786458333333,"velocity":0.3937007874015748},{"duration":0.2968750000000142,"midi":84,"time":127.97786458333333,"velocity":0.3937007874015748},{"duration":0.2968750000000142,"midi":89,"time":127.97786458333333,"velocity":0.3937007874015748},{"duration":0.059895833333328596,"midi":51,"time":127.98958333333333,"velocity":0.3937007874015748},{"duration":0.059895833333328596,"midi":90,"time":127.98958333333333,"velocity":0.3937007874015748},{"duration":0.059895833333328596,"midi":81,"time":127.98958333333333,"velocity":0.3937007874015748},{"duration":0.1718750000000142,"midi":87,"time":127.98958333333333,"velocity":0.3937007874015748},{"duration":0.1718750000000142,"midi":60,"time":127.98958333333333,"velocity":0.3937007874015748},{"duration":0.296875,"midi":65,"time":128.00260416666666,"velocity":0.3937007874015748},{"duration":0.05859375,"midi":50,"time":128.00260416666666,"velocity":0.3937007874015748},{"duration":0.05859375,"midi":76,"time":128.00260416666666,"velocity":0.3937007874015748},{"duration":0.05859375,"midi":68,"time":128.00260416666666,"velocity":0.3937007874015748},{"duration":0.08854166666668561,"midi":74,"time":128.01432291666666,"velocity":0.3937007874015748},{"duration":0.2955729166666856,"midi":69,"time":128.02604166666666,"velocity":0.3937007874015748},{"duration":0.05598958333334281,"midi":51,"time":128.04947916666666,"velocity":0.3937007874015748},{"duration":0.05598958333334281,"midi":73,"time":128.04947916666666,"velocity":0.3937007874015748},{"duration":0.055989583333314386,"midi":61,"time":128.05989583333334,"velocity":0.3937007874015748},{"duration":0.05729166666665719,"midi":50,"time":128.07161458333334,"velocity":0.3937007874015748},{"duration":0.171875,"midi":74,"time":128.07161458333334,"velocity":0.3937007874015748},{"duration":0.05729166666665719,"midi":57,"time":128.07161458333334,"velocity":0.3937007874015748},{"duration":0.05729166666665719,"midi":62,"time":128.08203125,"velocity":0.3937007874015748},{"duration":0.05859375,"midi":94,"time":128.11588541666666,"velocity":0.3937007874015748},{"duration":0.05859375,"midi":91,"time":128.13802083333334,"velocity":0.3937007874015748},{"duration":0.17578125,"midi":50,"time":128.16145833333334,"velocity":0.3937007874015748},{"duration":0.17578125,"midi":88,"time":128.16145833333334,"velocity":0.3937007874015748},{"duration":0.3020833333333144,"midi":83,"time":128.17317708333334,"velocity":0.3937007874015748},{"duration":0.3020833333333144,"midi":72,"time":128.17317708333334,"velocity":0.3937007874015748},{"duration":0.05859375,"midi":76,"time":128.17317708333334,"velocity":0.3937007874015748},{"duration":0.42578125,"midi":90,"time":128.17317708333334,"velocity":0.3937007874015748},{"duration":0.4205729166666572,"midi":92,"time":128.17317708333334,"velocity":0.3937007874015748},{"duration":0.05859375,"midi":94,"time":128.19661458333334,"velocity":0.3937007874015748},{"duration":0.05989583333334281,"midi":79,"time":128.20703125,"velocity":0.3937007874015748},{"duration":0.1770833333333428,"midi":60,"time":128.20703125,"velocity":0.3937007874015748},{"duration":0.3033854166666572,"midi":64,"time":128.20703125,"velocity":0.3937007874015748},{"duration":0.05989583333334281,"midi":77,"time":128.25390625,"velocity":0.3937007874015748},{"duration":0.05989583333334281,"midi":80,"time":128.25390625,"velocity":0.3937007874015748},{"duration":0.3020833333333428,"midi":74,"time":128.25390625,"velocity":0.3937007874015748},{"duration":0.1770833333333428,"midi":93,"time":128.25390625,"velocity":0.3937007874015748},{"duration":0.3020833333333428,"midi":76,"time":128.27734375,"velocity":0.3937007874015748},{"duration":0.1770833333333428,"midi":91,"time":128.2890625,"velocity":0.3937007874015748},{"duration":0.2916666666666572,"midi":69,"time":128.3359375,"velocity":0.3937007874015748},{"duration":0.1770833333333428,"midi":88,"time":128.3359375,"velocity":0.3937007874015748},{"duration":0.17578125,"midi":95,"time":128.34895833333334,"velocity":0.3937007874015748},{"duration":0.17578125,"midi":57,"time":128.37109375,"velocity":0.3937007874015748},{"duration":0.17578125,"midi":79,"time":128.38411458333334,"velocity":0.3937007874015748},{"duration":0.059895833333314386,"midi":93,"time":128.45442708333334,"velocity":0.3937007874015748},{"duration":0.1705729166666572,"midi":86,"time":128.47786458333334,"velocity":0.3937007874015748},{"duration":0.05859375,"midi":63,"time":128.47786458333334,"velocity":0.3937007874015748},{"duration":0.05859375,"midi":57,"time":128.50130208333334,"velocity":0.3937007874015748},{"duration":0.05859375,"midi":72,"time":128.50130208333334,"velocity":0.3937007874015748},{"duration":0.1705729166666572,"midi":76,"time":128.50130208333334,"velocity":0.3937007874015748},{"duration":0.05859375,"midi":65,"time":128.5234375,"velocity":0.3937007874015748},{"duration":0.05859375,"midi":93,"time":128.5234375,"velocity":0.3937007874015748},{"duration":0.05859375,"midi":60,"time":128.5234375,"velocity":0.3937007874015748},{"duration":0.0625,"midi":92,"time":128.53645833333334,"velocity":0.3937007874015748},{"duration":0.05859375,"midi":58,"time":128.546875,"velocity":0.3937007874015748},{"duration":0.1705729166666572,"midi":81,"time":128.546875,"velocity":0.3937007874015748},{"duration":0.05859375,"midi":83,"time":128.546875,"velocity":0.3937007874015748},{"duration":0.05859375,"midi":74,"time":128.546875,"velocity":0.3937007874015748},{"duration":0.05729166666665719,"midi":78,"time":128.55859375,"velocity":0.3937007874015748},{"duration":0.06380208333334281,"midi":69,"time":128.5703125,"velocity":0.3937007874015748},{"duration":0.05729166666665719,"midi":63,"time":128.5703125,"velocity":0.3937007874015748},{"duration":0.05598958333334281,"midi":64,"time":128.58203125,"velocity":0.3937007874015748},{"duration":0.1705729166666572,"midi":72,"time":128.58203125,"velocity":0.3937007874015748},{"duration":0.1705729166666572,"midi":95,"time":128.58203125,"velocity":0.3937007874015748},{"duration":0.05598958333334281,"midi":90,"time":128.59244791666666,"velocity":0.3937007874015748},{"duration":0.05598958333334281,"midi":91,"time":128.59244791666666,"velocity":0.3937007874015748},{"duration":0.05598958333334281,"midi":58,"time":128.59244791666666,"velocity":0.3937007874015748},{"duration":0.05598958333334281,"midi":64,"time":128.61588541666666,"velocity":0.3937007874015748},{"duration":0.05598958333334281,"midi":50,"time":128.61588541666666,"velocity":0.3937007874015748},{"duration":0.1744791666666572,"midi":58,"time":128.62630208333334,"velocity":0.3937007874015748},{"duration":0.17578125,"midi":77,"time":128.63671875,"velocity":0.3937007874015748},{"duration":0.6666666666666572,"midi":69,"time":128.63671875,"velocity":0.3937007874015748},{"duration":0.05859375,"midi":65,"time":128.65885416666666,"velocity":0.3937007874015748},{"duration":0.17578125,"midi":50,"time":128.67057291666666,"velocity":0.3937007874015748},{"duration":0.2981770833333428,"midi":57,"time":128.69401041666666,"velocity":0.3937007874015748},{"duration":0.17578125,"midi":65,"time":128.69401041666666,"velocity":0.3937007874015748},{"duration":0.061197916666685614,"midi":79,"time":128.76432291666666,"velocity":0.3937007874015748},{"duration":0.17578125,"midi":73,"time":128.76432291666666,"velocity":0.3937007874015748},{"duration":0.07161458333334281,"midi":89,"time":128.76432291666666,"velocity":0.3937007874015748},{"duration":0.05989583333334281,"midi":92,"time":128.77604166666666,"velocity":0.3937007874015748},{"duration":0.1640625,"midi":89,"time":128.77604166666666,"velocity":0.3937007874015748},{"duration":0.05859375,"midi":88,"time":128.78776041666666,"velocity":0.3937007874015748},{"duration":0.05859375,"midi":77,"time":128.78776041666666,"velocity":0.3937007874015748},{"duration":0.17447916666668561,"midi":86,"time":128.78776041666666,"velocity":0.3937007874015748},{"duration":0.05859375,"midi":62,"time":128.78776041666666,"velocity":0.3937007874015748},{"duration":0.17447916666668561,"midi":88,"time":128.78776041666666,"velocity":0.3937007874015748},{"duration":0.4166666666666572,"midi":50,"time":128.80078125,"velocity":0.3937007874015748},{"duration":0.07942708333334281,"midi":84,"time":128.80078125,"velocity":0.3937007874015748},{"duration":0.171875,"midi":90,"time":128.8125,"velocity":0.3937007874015748},{"duration":0.171875,"midi":79,"time":128.8125,"velocity":0.3937007874015748},{"duration":0.05729166666665719,"midi":63,"time":128.8125,"velocity":0.3937007874015748},{"duration":0.171875,"midi":94,"time":128.8125,"velocity":0.3937007874015748},{"duration":0.1497395833333428,"midi":84,"time":128.82421875,"velocity":0.3937007874015748},{"duration":0.05598958333334281,"midi":30,"time":128.82421875,"velocity":0.3937007874015748},{"duration":0.057291666666685614,"midi":62,"time":128.83463541666666,"velocity":0.3937007874015748},{"duration":0.057291666666685614,"midi":72,"time":128.83463541666666,"velocity":0.3937007874015748},{"duration":0.171875,"midi":89,"time":128.84635416666666,"velocity":0.3937007874015748},{"duration":0.059895833333314386,"midi":63,"time":128.88020833333334,"velocity":0.3937007874015748},{"duration":0.2955729166666572,"midi":90,"time":128.90234375,"velocity":0.3937007874015748},{"duration":0.05989583333334281,"midi":76,"time":128.90234375,"velocity":0.3937007874015748},{"duration":0.2864583333333144,"midi":86,"time":128.91536458333334,"velocity":0.3937007874015748},{"duration":0.05859375,"midi":92,"time":128.91536458333334,"velocity":0.3937007874015748},{"duration":0.1744791666666572,"midi":64,"time":128.91536458333334,"velocity":0.3937007874015748},{"duration":0.05729166666665719,"midi":73,"time":128.92708333333334,"velocity":0.3937007874015748},{"duration":0.1744791666666572,"midi":88,"time":128.92708333333334,"velocity":0.3937007874015748},{"duration":0.05729166666665719,"midi":94,"time":128.92708333333334,"velocity":0.3937007874015748},{"duration":0.1744791666666572,"midi":95,"time":128.93880208333334,"velocity":0.3937007874015748},{"duration":0.055989583333314386,"midi":80,"time":128.93880208333334,"velocity":0.3937007874015748},{"duration":0.1627604166666572,"midi":74,"time":128.95052083333334,"velocity":0.3937007874015748},{"duration":0.05729166666665719,"midi":60,"time":128.95052083333334,"velocity":0.3937007874015748},{"duration":0.2916666666666572,"midi":79,"time":128.96223958333334,"velocity":0.3937007874015748},{"duration":0.17317708333331439,"midi":72,"time":128.96223958333334,"velocity":0.3937007874015748},{"duration":0.1731770833333428,"midi":93,"time":128.98307291666666,"velocity":0.3937007874015748},{"duration":0.05859375,"midi":57,"time":128.98307291666666,"velocity":0.3937007874015748},{"duration":0.1731770833333428,"midi":64,"time":128.99479166666666,"velocity":0.3937007874015748},{"duration":0.171875,"midi":57,"time":129.02994791666666,"velocity":0.3937007874015748},{"duration":0.171875,"midi":88,"time":129.02994791666666,"velocity":0.3937007874015748},{"duration":0.07291666666665719,"midi":74,"time":129.05208333333334,"velocity":0.3937007874015748},{"duration":0.05989583333334281,"midi":94,"time":129.06510416666666,"velocity":0.3937007874015748},{"duration":0.05859375,"midi":84,"time":129.07682291666666,"velocity":0.3937007874015748},{"duration":0.1692708333333428,"midi":65,"time":129.07682291666666,"velocity":0.3937007874015748},{"duration":0.05859375,"midi":91,"time":129.07682291666666,"velocity":0.3937007874015748},{"duration":0.057291666666685614,"midi":85,"time":129.08854166666666,"velocity":0.3937007874015748},{"duration":0.05598958333334281,"midi":95,"time":129.10026041666666,"velocity":0.3937007874015748},{"duration":0.05598958333334281,"midi":62,"time":129.12369791666666,"velocity":0.3937007874015748},{"duration":0.16927083333331439,"midi":93,"time":129.13411458333334,"velocity":0.3937007874015748},{"duration":0.055989583333314386,"midi":73,"time":129.13411458333334,"velocity":0.3937007874015748},{"duration":0.055989583333314386,"midi":88,"time":129.14583333333334,"velocity":0.3937007874015748},{"duration":0.06380208333331439,"midi":86,"time":129.14583333333334,"velocity":0.3937007874015748},{"duration":0.05598958333334281,"midi":60,"time":129.15625,"velocity":0.3937007874015748},{"duration":0.05598958333334281,"midi":64,"time":129.16666666666666,"velocity":0.3937007874015748},{"duration":0.17057291666668561,"midi":47,"time":129.16666666666666,"velocity":0.3937007874015748},{"duration":0.05598958333334281,"midi":57,"time":129.16666666666666,"velocity":0.3937007874015748},{"duration":0.16015625,"midi":74,"time":129.16666666666666,"velocity":0.3937007874015748},{"duration":0.2942708333333428,"midi":90,"time":129.16666666666666,"velocity":0.3937007874015748},{"duration":0.1705729166666572,"midi":84,"time":129.1796875,"velocity":0.3937007874015748},{"duration":0.05598958333334281,"midi":60,"time":129.19010416666666,"velocity":0.3937007874015748},{"duration":0.05989583333334281,"midi":64,"time":129.23307291666666,"velocity":0.3937007874015748},{"duration":0.05989583333334281,"midi":80,"time":129.23307291666666,"velocity":0.3937007874015748},{"duration":0.05859375,"midi":89,"time":129.24479166666666,"velocity":0.3937007874015748},{"duration":0.1731770833333428,"midi":47,"time":129.24479166666666,"velocity":0.3937007874015748},{"duration":0.06901041666668561,"midi":74,"time":129.26822916666666,"velocity":0.3937007874015748},{"duration":0.05859375,"midi":63,"time":129.26822916666666,"velocity":0.3937007874015748},{"duration":0.1731770833333428,"midi":81,"time":129.26822916666666,"velocity":0.3937007874015748},{"duration":0.05859375,"midi":58,"time":129.30338541666666,"velocity":0.3937007874015748},{"duration":0.1731770833333428,"midi":90,"time":129.30338541666666,"velocity":0.3937007874015748},{"duration":0.05859375,"midi":57,"time":129.32552083333334,"velocity":0.3937007874015748},{"duration":0.17317708333331439,"midi":74,"time":129.32552083333334,"velocity":0.3937007874015748},{"duration":0.05859375,"midi":76,"time":129.32552083333334,"velocity":0.3937007874015748},{"duration":0.05859375,"midi":77,"time":129.34895833333334,"velocity":0.3937007874015748},{"duration":0.17317708333331439,"midi":62,"time":129.36067708333334,"velocity":0.3937007874015748},{"duration":0.05859375,"midi":91,"time":129.37239583333334,"velocity":0.3937007874015748},{"duration":0.05859375,"midi":43,"time":129.37239583333334,"velocity":0.3937007874015748},{"duration":0.05729166666665719,"midi":88,"time":129.38411458333334,"velocity":0.3937007874015748},{"duration":0.05729166666665719,"midi":57,"time":129.38411458333334,"velocity":0.3937007874015748},{"duration":0.20703125,"midi":88,"time":129.38411458333334,"velocity":0.3937007874015748},{"duration":0.05859375,"midi":80,"time":129.4296875,"velocity":0.3937007874015748},{"duration":0.171875,"midi":65,"time":129.4296875,"velocity":0.3937007874015748},{"duration":0.171875,"midi":57,"time":129.44140625,"velocity":0.3937007874015748},{"duration":0.05859375,"midi":90,"time":129.44140625,"velocity":0.3937007874015748},{"duration":0.171875,"midi":85,"time":129.46354166666666,"velocity":0.3937007874015748},{"duration":0.05859375,"midi":61,"time":129.48828125,"velocity":0.3937007874015748},{"duration":0.05859375,"midi":89,"time":129.49869791666666,"velocity":0.3937007874015748},{"duration":0.05859375,"midi":84,"time":129.49869791666666,"velocity":0.3937007874015748},{"duration":0.05859375,"midi":90,"time":129.50911458333334,"velocity":0.3937007874015748},{"duration":0.05859375,"midi":94,"time":129.50911458333334,"velocity":0.3937007874015748},{"duration":0.05859375,"midi":63,"time":129.52213541666666,"velocity":0.3937007874015748},{"duration":0.05859375,"midi":82,"time":129.52213541666666,"velocity":0.3937007874015748},{"duration":0.1731770833333428,"midi":90,"time":129.52213541666666,"velocity":0.3937007874015748},{"duration":0.057291666666685614,"midi":95,"time":129.53385416666666,"velocity":0.3937007874015748},{"duration":0.1458333333333428,"midi":88,"time":129.53385416666666,"velocity":0.3937007874015748},{"duration":0.057291666666685614,"midi":91,"time":129.53385416666666,"velocity":0.3937007874015748},{"duration":0.057291666666685614,"midi":51,"time":129.53385416666666,"velocity":0.3937007874015748},{"duration":0.05598958333334281,"midi":68,"time":129.54557291666666,"velocity":0.3937007874015748},{"duration":0.05598958333334281,"midi":50,"time":129.55729166666666,"velocity":0.3937007874015748},{"duration":0.05598958333334281,"midi":75,"time":129.55729166666666,"velocity":0.3937007874015748},{"duration":0.05598958333334281,"midi":77,"time":129.55729166666666,"velocity":0.3937007874015748},{"duration":0.05598958333334281,"midi":81,"time":129.55729166666666,"velocity":0.3937007874015748},{"duration":0.05729166666665719,"midi":49,"time":129.56770833333334,"velocity":0.3937007874015748},{"duration":0.05729166666665719,"midi":61,"time":129.58984375,"velocity":0.3937007874015748},{"duration":0.1497395833333428,"midi":76,"time":129.6015625,"velocity":0.3937007874015748},{"duration":0.06119791666665719,"midi":62,"time":129.65755208333334,"velocity":0.3937007874015748},{"duration":0.05989583333334281,"midi":82,"time":129.67057291666666,"velocity":0.3937007874015748},{"duration":0.05859375,"midi":63,"time":129.68229166666666,"velocity":0.3937007874015748},{"duration":0.05859375,"midi":74,"time":129.68229166666666,"velocity":0.3937007874015748},{"duration":0.07942708333334281,"midi":76,"time":129.69401041666666,"velocity":0.3937007874015748},{"duration":0.17057291666668561,"midi":77,"time":129.69401041666666,"velocity":0.3937007874015748},{"duration":0.05598958333334281,"midi":81,"time":129.70572916666666,"velocity":0.3937007874015748},{"duration":0.0546875,"midi":69,"time":129.71875,"velocity":0.3937007874015748},{"duration":0.0546875,"midi":62,"time":129.72916666666666,"velocity":0.3937007874015748},{"duration":0.055989583333314386,"midi":53,"time":129.73958333333334,"velocity":0.3937007874015748},{"duration":0.05729166666665719,"midi":46,"time":129.75130208333334,"velocity":0.3937007874015748},{"duration":0.05729166666665719,"midi":81,"time":129.76171875,"velocity":0.3937007874015748},{"duration":0.057291666666685614,"midi":47,"time":129.77213541666666,"velocity":0.3937007874015748},{"duration":0.05859375,"midi":74,"time":129.78385416666666,"velocity":0.3937007874015748},{"duration":0.05859375,"midi":60,"time":129.78385416666666,"velocity":0.3937007874015748},{"duration":0.17317708333331439,"midi":69,"time":129.81770833333334,"velocity":0.3937007874015748},{"duration":0.05859375,"midi":47,"time":129.81770833333334,"velocity":0.3937007874015748},{"duration":0.05859375,"midi":61,"time":129.81770833333334,"velocity":0.3937007874015748},{"duration":0.05859375,"midi":89,"time":129.82942708333334,"velocity":0.3937007874015748},{"duration":0.1744791666666572,"midi":63,"time":129.86458333333334,"velocity":0.3937007874015748},{"duration":0.05989583333334281,"midi":42,"time":129.88671875,"velocity":0.3937007874015748},{"duration":0.05989583333334281,"midi":76,"time":129.88671875,"velocity":0.3937007874015748},{"duration":0.05989583333334281,"midi":89,"time":129.8984375,"velocity":0.3937007874015748},{"duration":0.05989583333334281,"midi":77,"time":129.91015625,"velocity":0.3937007874015748},{"duration":0.05859375,"midi":65,"time":129.921875,"velocity":0.3937007874015748},{"duration":0.05859375,"midi":84,"time":129.921875,"velocity":0.3937007874015748},{"duration":0.17578125,"midi":48,"time":129.921875,"velocity":0.3937007874015748},{"duration":0.05729166666665719,"midi":68,"time":129.93489583333334,"velocity":0.3937007874015748},{"duration":0.05729166666665719,"midi":57,"time":129.94661458333334,"velocity":0.3937007874015748},{"duration":0.1744791666666572,"midi":74,"time":129.95703125,"velocity":0.3937007874015748},{"duration":0.17578125,"midi":68,"time":129.98046875,"velocity":0.3937007874015748},{"duration":0.05989583333334281,"midi":56,"time":129.99088541666666,"velocity":0.3937007874015748},{"duration":0.17447916666668561,"midi":41,"time":130.02604166666666,"velocity":0.3937007874015748},{"duration":0.2955729166666856,"midi":93,"time":130.02604166666666,"velocity":0.3937007874015748},{"duration":0.05989583333334281,"midi":62,"time":130.03776041666666,"velocity":0.3937007874015748},{"duration":0.05989583333334281,"midi":69,"time":130.06119791666666,"velocity":0.3937007874015748},{"duration":0.1731770833333428,"midi":77,"time":130.07291666666666,"velocity":0.3937007874015748},{"duration":0.2916666666666856,"midi":62,"time":130.08463541666666,"velocity":0.3937007874015748},{"duration":0.13932291666668561,"midi":88,"time":130.08463541666666,"velocity":0.3937007874015748},{"duration":0.05859375,"midi":56,"time":130.09765625,"velocity":0.3937007874015748},{"duration":0.4127604166666856,"midi":81,"time":130.10807291666666,"velocity":0.3937007874015748},{"duration":0.171875,"midi":90,"time":130.10807291666666,"velocity":0.3937007874015748},{"duration":0.17057291666668561,"midi":84,"time":130.11979166666666,"velocity":0.3937007874015748},{"duration":0.05859375,"midi":86,"time":130.13151041666666,"velocity":0.3937007874015748},{"duration":0.17057291666668561,"midi":68,"time":130.14322916666666,"velocity":0.3937007874015748},{"duration":0.17057291666668561,"midi":86,"time":130.14322916666666,"velocity":0.3937007874015748},{"duration":0.057291666666685614,"midi":57,"time":130.15494791666666,"velocity":0.3937007874015748},{"duration":0.08984375,"midi":88,"time":130.16666666666666,"velocity":0.3937007874015748},{"duration":0.05729166666665719,"midi":45,"time":130.18880208333334,"velocity":0.3937007874015748},{"duration":0.4127604166666572,"midi":77,"time":130.21223958333334,"velocity":0.3937007874015748},{"duration":0.05729166666665719,"midi":56,"time":130.21223958333334,"velocity":0.3937007874015748},{"duration":0.05729166666665719,"midi":45,"time":130.22265625,"velocity":0.3937007874015748},{"duration":0.05729166666665719,"midi":56,"time":130.24609375,"velocity":0.3937007874015748},{"duration":0.05729166666665719,"midi":88,"time":130.24609375,"velocity":0.3937007874015748},{"duration":0.057291666666685614,"midi":85,"time":130.25651041666666,"velocity":0.3937007874015748},{"duration":0.05598958333334281,"midi":33,"time":130.26822916666666,"velocity":0.3937007874015748},{"duration":0.05729166666665719,"midi":87,"time":130.29036458333334,"velocity":0.3937007874015748},{"duration":0.055989583333314386,"midi":63,"time":130.30208333333334,"velocity":0.3937007874015748},{"duration":0.16796875,"midi":90,"time":130.30208333333334,"velocity":0.3937007874015748},{"duration":0.16796875,"midi":84,"time":130.30208333333334,"velocity":0.3937007874015748},{"duration":0.05598958333334281,"midi":67,"time":130.3125,"velocity":0.3937007874015748},{"duration":0.05598958333334281,"midi":71,"time":130.3125,"velocity":0.3937007874015748},{"duration":0.1692708333333428,"midi":88,"time":130.32421875,"velocity":0.3937007874015748},{"duration":0.057291666666685614,"midi":37,"time":130.33463541666666,"velocity":0.3937007874015748},{"duration":0.1692708333333428,"midi":94,"time":130.33463541666666,"velocity":0.3937007874015748},{"duration":0.057291666666685614,"midi":63,"time":130.33463541666666,"velocity":0.3937007874015748},{"duration":0.057291666666685614,"midi":64,"time":130.35807291666666,"velocity":0.3937007874015748},{"duration":0.05729166666665719,"midi":63,"time":130.36848958333334,"velocity":0.3937007874015748},{"duration":0.1588541666666572,"midi":43,"time":130.36848958333334,"velocity":0.3937007874015748},{"duration":0.05729166666665719,"midi":50,"time":130.36848958333334,"velocity":0.3937007874015748},{"duration":0.1692708333333428,"midi":87,"time":130.37890625,"velocity":0.3937007874015748},{"duration":0.1692708333333428,"midi":67,"time":130.37890625,"velocity":0.3937007874015748},{"duration":0.05729166666665719,"midi":56,"time":130.37890625,"velocity":0.3937007874015748},{"duration":0.05729166666665719,"midi":85,"time":130.37890625,"velocity":0.3937007874015748},{"duration":0.16927083333331439,"midi":70,"time":130.39192708333334,"velocity":0.3937007874015748},{"duration":0.16927083333331439,"midi":89,"time":130.39192708333334,"velocity":0.3937007874015748},{"duration":0.05729166666665719,"midi":75,"time":130.39192708333334,"velocity":0.3937007874015748},{"duration":0.05729166666665719,"midi":63,"time":130.40234375,"velocity":0.3937007874015748},{"duration":0.1705729166666572,"midi":50,"time":130.40234375,"velocity":0.3937007874015748},{"duration":0.05729166666665719,"midi":84,"time":130.42578125,"velocity":0.3937007874015748},{"duration":0.057291666666685614,"midi":65,"time":130.43619791666666,"velocity":0.3937007874015748},{"duration":0.05729166666665719,"midi":64,"time":130.45833333333334,"velocity":0.3937007874015748},{"duration":0.06770833333331439,"midi":43,"time":130.47005208333334,"velocity":0.3937007874015748},{"duration":0.055989583333314386,"midi":59,"time":130.48177083333334,"velocity":0.3937007874015748},{"duration":0.296875,"midi":65,"time":130.48177083333334,"velocity":0.3937007874015748},{"duration":0.4231770833333428,"midi":74,"time":130.4921875,"velocity":0.3937007874015748},{"duration":0.05729166666665719,"midi":84,"time":130.515625,"velocity":0.3937007874015748},{"duration":0.05729166666665719,"midi":31,"time":130.515625,"velocity":0.3937007874015748},{"duration":0.05859375,"midi":43,"time":130.52604166666666,"velocity":0.3937007874015748},{"duration":0.4244791666666856,"midi":70,"time":130.53776041666666,"velocity":0.3937007874015748},{"duration":0.059895833333314386,"midi":50,"time":130.55989583333334,"velocity":0.3937007874015748},{"duration":0.05859375,"midi":57,"time":130.57161458333334,"velocity":0.3937007874015748},{"duration":0.05859375,"midi":44,"time":130.60677083333334,"velocity":0.3937007874015748},{"duration":0.057291666666685614,"midi":30,"time":130.61979166666666,"velocity":0.3937007874015748},{"duration":0.2994791666666572,"midi":89,"time":130.67578125,"velocity":0.3937007874015748},{"duration":0.17578125,"midi":55,"time":130.68619791666666,"velocity":0.3937007874015748},{"duration":0.17578125,"midi":93,"time":130.68619791666666,"velocity":0.3937007874015748},{"duration":0.17578125,"midi":88,"time":130.69921875,"velocity":0.3937007874015748},{"duration":0.17578125,"midi":62,"time":130.7109375,"velocity":0.3937007874015748},{"duration":0.17578125,"midi":84,"time":130.7109375,"velocity":0.3937007874015748},{"duration":0.05989583333334281,"midi":81,"time":130.76953125,"velocity":0.3937007874015748},{"duration":0.2981770833333428,"midi":65,"time":130.79296875,"velocity":0.3937007874015748},{"duration":0.05989583333334281,"midi":46,"time":130.83854166666666,"velocity":0.3937007874015748},{"duration":0.05989583333334281,"midi":56,"time":130.87369791666666,"velocity":0.3937007874015748},{"duration":0.296875,"midi":62,"time":130.87369791666666,"velocity":0.3937007874015748},{"duration":0.05859375,"midi":57,"time":130.8984375,"velocity":0.3937007874015748},{"duration":0.05859375,"midi":58,"time":130.90885416666666,"velocity":0.3937007874015748},{"duration":0.421875,"midi":77,"time":130.90885416666666,"velocity":0.3937007874015748},{"duration":0.05729166666665719,"midi":45,"time":130.921875,"velocity":0.3937007874015748},{"duration":0.05729166666665719,"midi":57,"time":130.93359375,"velocity":0.3937007874015748},{"duration":0.05729166666665719,"midi":82,"time":130.93359375,"velocity":0.3937007874015748},{"duration":0.17317708333331439,"midi":69,"time":130.97786458333334,"velocity":0.3937007874015748},{"duration":0.059895833333314386,"midi":58,"time":130.97786458333334,"velocity":0.3937007874015748},{"duration":0.059895833333314386,"midi":85,"time":131.00130208333334,"velocity":0.3937007874015748},{"duration":0.05859375,"midi":57,"time":131.01302083333334,"velocity":0.3937007874015748},{"duration":0.05859375,"midi":93,"time":131.04817708333334,"velocity":0.3937007874015748},{"duration":0.05859375,"midi":82,"time":131.0703125,"velocity":0.3937007874015748},{"duration":0.05859375,"midi":85,"time":131.0703125,"velocity":0.3937007874015748},{"duration":0.05859375,"midi":90,"time":131.08203125,"velocity":0.3937007874015748},{"duration":0.05729166666665719,"midi":60,"time":131.09375,"velocity":0.3937007874015748},{"duration":0.05729166666665719,"midi":51,"time":131.09375,"velocity":0.3937007874015748},{"duration":0.05729166666665719,"midi":68,"time":131.09375,"velocity":0.3937007874015748},{"duration":0.171875,"midi":89,"time":131.09375,"velocity":0.3937007874015748},{"duration":0.171875,"midi":87,"time":131.09375,"velocity":0.3937007874015748},{"duration":0.05729166666665719,"midi":78,"time":131.10546875,"velocity":0.3937007874015748},{"duration":0.1705729166666572,"midi":93,"time":131.10546875,"velocity":0.3937007874015748},{"duration":0.05729166666665719,"midi":94,"time":131.10546875,"velocity":0.3937007874015748},{"duration":0.05729166666665719,"midi":50,"time":131.1171875,"velocity":0.3937007874015748},{"duration":0.05729166666665719,"midi":61,"time":131.1171875,"velocity":0.3937007874015748},{"duration":0.171875,"midi":84,"time":131.1171875,"velocity":0.3937007874015748},{"duration":0.171875,"midi":57,"time":131.12890625,"velocity":0.3937007874015748},{"duration":0.057291666666685614,"midi":49,"time":131.13932291666666,"velocity":0.3937007874015748},{"duration":0.1731770833333428,"midi":65,"time":131.13932291666666,"velocity":0.3937007874015748},{"duration":0.1731770833333428,"midi":70,"time":131.13932291666666,"velocity":0.3937007874015748},{"duration":0.17447916666668561,"midi":62,"time":131.15104166666666,"velocity":0.3937007874015748},{"duration":0.1744791666666572,"midi":91,"time":131.17317708333334,"velocity":0.3937007874015748},{"duration":0.05859375,"midi":87,"time":131.20703125,"velocity":0.3937007874015748},{"duration":0.17578125,"midi":82,"time":131.265625,"velocity":0.3937007874015748},{"duration":0.061197916666685614,"midi":50,"time":131.27604166666666,"velocity":0.3937007874015748},{"duration":0.05989583333334281,"midi":67,"time":131.28776041666666,"velocity":0.3937007874015748},{"duration":0.17578125,"midi":62,"time":131.3125,"velocity":0.3937007874015748},{"duration":0.17578125,"midi":70,"time":131.34765625,"velocity":0.3937007874015748},{"duration":0.15234375,"midi":65,"time":131.34765625,"velocity":0.3937007874015748},{"duration":0.05989583333334281,"midi":84,"time":131.36979166666666,"velocity":0.3937007874015748},{"duration":0.05989583333334281,"midi":93,"time":131.36979166666666,"velocity":0.3937007874015748},{"duration":0.05859375,"midi":50,"time":131.3828125,"velocity":0.3937007874015748},{"duration":0.17578125,"midi":58,"time":131.4296875,"velocity":0.3937007874015748},{"duration":0.17578125,"midi":77,"time":131.44010416666666,"velocity":0.3937007874015748},{"duration":0.08333333333334281,"midi":65,"time":131.44010416666666,"velocity":0.3937007874015748},{"duration":0.1770833333333428,"midi":93,"time":131.46354166666666,"velocity":0.3937007874015748},{"duration":0.1770833333333428,"midi":88,"time":131.46354166666666,"velocity":0.3937007874015748},{"duration":0.30078125,"midi":74,"time":131.46354166666666,"velocity":0.3937007874015748},{"duration":0.1770833333333428,"midi":90,"time":131.47526041666666,"velocity":0.3937007874015748},{"duration":0.05989583333334281,"midi":62,"time":131.47526041666666,"velocity":0.3937007874015748},{"duration":0.1770833333333428,"midi":90,"time":131.48697916666666,"velocity":0.3937007874015748},{"duration":0.1770833333333428,"midi":81,"time":131.5,"velocity":0.3937007874015748},{"duration":0.1770833333333428,"midi":95,"time":131.5,"velocity":0.3937007874015748},{"duration":0.1770833333333428,"midi":65,"time":131.5,"velocity":0.3937007874015748},{"duration":0.05859375,"midi":94,"time":131.5,"velocity":0.3937007874015748},{"duration":0.1770833333333428,"midi":84,"time":131.52213541666666,"velocity":0.3937007874015748},{"duration":0.05989583333334281,"midi":62,"time":131.54557291666666,"velocity":0.3937007874015748},{"duration":0.05989583333334281,"midi":86,"time":131.54557291666666,"velocity":0.3937007874015748},{"duration":0.17447916666668561,"midi":81,"time":131.59244791666666,"velocity":0.3937007874015748},{"duration":0.061197916666685614,"midi":62,"time":131.62760416666666,"velocity":0.3937007874015748},{"duration":0.05989583333334281,"midi":75,"time":131.65234375,"velocity":0.3937007874015748},{"duration":0.05989583333334281,"midi":63,"time":131.6640625,"velocity":0.3937007874015748},{"duration":0.05859375,"midi":60,"time":131.67578125,"velocity":0.3937007874015748},{"duration":0.05859375,"midi":83,"time":131.67578125,"velocity":0.3937007874015748},{"duration":0.05729166666665719,"midi":92,"time":131.6875,"velocity":0.3937007874015748},{"duration":0.1705729166666572,"midi":74,"time":131.6875,"velocity":0.3937007874015748},{"duration":0.05729166666665719,"midi":88,"time":131.6875,"velocity":0.3937007874015748},{"duration":0.05729166666665719,"midi":71,"time":131.6875,"velocity":0.3937007874015748},{"duration":0.171875,"midi":89,"time":131.69921875,"velocity":0.3937007874015748},{"duration":0.05729166666665719,"midi":50,"time":131.69921875,"velocity":0.3937007874015748},{"duration":0.29296875,"midi":77,"time":131.69921875,"velocity":0.3937007874015748},{"duration":0.1705729166666572,"midi":93,"time":131.7109375,"velocity":0.3937007874015748},{"duration":0.05598958333334281,"midi":87,"time":131.7109375,"velocity":0.3937007874015748},{"duration":0.1705729166666572,"midi":65,"time":131.7109375,"velocity":0.3937007874015748},{"duration":0.1705729166666572,"midi":84,"time":131.7109375,"velocity":0.3937007874015748},{"duration":0.1705729166666572,"midi":90,"time":131.734375,"velocity":0.3937007874015748},{"duration":0.1705729166666572,"midi":85,"time":131.734375,"velocity":0.3937007874015748},{"duration":0.057291666666685614,"midi":30,"time":131.74479166666666,"velocity":0.3937007874015748},{"duration":0.171875,"midi":94,"time":131.75520833333334,"velocity":0.3937007874015748},{"duration":0.05859375,"midi":63,"time":131.76692708333334,"velocity":0.3937007874015748},{"duration":0.171875,"midi":43,"time":131.76692708333334,"velocity":0.3937007874015748},{"duration":0.05859375,"midi":86,"time":131.7890625,"velocity":0.3937007874015748},{"duration":0.05859375,"midi":59,"time":131.8125,"velocity":0.3937007874015748},{"duration":0.1705729166666572,"midi":91,"time":131.82421875,"velocity":0.3937007874015748},{"duration":0.05859375,"midi":67,"time":131.83463541666666,"velocity":0.3937007874015748},{"duration":0.05859375,"midi":50,"time":131.83463541666666,"velocity":0.3937007874015748},{"duration":0.171875,"midi":95,"time":131.83463541666666,"velocity":0.3937007874015748},{"duration":0.05859375,"midi":79,"time":131.83463541666666,"velocity":0.3937007874015748},{"duration":0.171875,"midi":86,"time":131.83463541666666,"velocity":0.3937007874015748},{"duration":0.13671875,"midi":89,"time":131.84765625,"velocity":0.3937007874015748},{"duration":0.05859375,"midi":51,"time":131.85807291666666,"velocity":0.3937007874015748},{"duration":0.05859375,"midi":65,"time":131.85807291666666,"velocity":0.3937007874015748},{"duration":0.057291666666685614,"midi":60,"time":131.86979166666666,"velocity":0.3937007874015748},{"duration":0.171875,"midi":94,"time":131.88151041666666,"velocity":0.3937007874015748},{"duration":0.057291666666685614,"midi":41,"time":131.88151041666666,"velocity":0.3937007874015748},{"duration":0.057291666666685614,"midi":61,"time":131.89322916666666,"velocity":0.3937007874015748},{"duration":0.05729166666665719,"midi":37,"time":131.90364583333334,"velocity":0.3937007874015748},{"duration":0.05729166666665719,"midi":79,"time":131.90364583333334,"velocity":0.3937007874015748},{"duration":0.09244791666665719,"midi":89,"time":131.92708333333334,"velocity":0.3937007874015748},{"duration":0.1744791666666572,"midi":65,"time":131.9375,"velocity":0.3937007874015748},{"duration":0.1393229166666572,"midi":43,"time":131.9375,"velocity":0.3937007874015748},{"duration":0.05859375,"midi":50,"time":131.9609375,"velocity":0.3937007874015748},{"duration":0.05859375,"midi":84,"time":131.98307291666666,"velocity":0.3937007874015748},{"duration":0.17578125,"midi":50,"time":132.00651041666666,"velocity":0.3937007874015748},{"duration":0.09375,"midi":43,"time":132.01822916666666,"velocity":0.3937007874015748},{"duration":0.17447916666668561,"midi":93,"time":132.01822916666666,"velocity":0.3937007874015748},{"duration":0.17578125,"midi":91,"time":132.05208333333334,"velocity":0.3937007874015748},{"duration":0.17578125,"midi":43,"time":132.05208333333334,"velocity":0.3937007874015748},{"duration":0.059895833333314386,"midi":71,"time":132.06380208333334,"velocity":0.3937007874015748},{"duration":0.17578125,"midi":86,"time":132.06380208333334,"velocity":0.3937007874015748},{"duration":0.05989583333334281,"midi":64,"time":132.07682291666666,"velocity":0.3937007874015748},{"duration":0.17578125,"midi":70,"time":132.09895833333334,"velocity":0.3937007874015748},{"duration":0.05989583333334281,"midi":31,"time":132.11197916666666,"velocity":0.3937007874015748},{"duration":0.05859375,"midi":74,"time":132.12369791666666,"velocity":0.3937007874015748},{"duration":0.4205729166666856,"midi":50,"time":132.14713541666666,"velocity":0.3937007874015748},{"duration":0.1744791666666572,"midi":31,"time":132.18098958333334,"velocity":0.3937007874015748},{"duration":0.059895833333314386,"midi":65,"time":132.23958333333334,"velocity":0.3937007874015748},{"duration":0.1744791666666572,"midi":43,"time":132.23958333333334,"velocity":0.3937007874015748},{"duration":0.17317708333331439,"midi":93,"time":132.27473958333334,"velocity":0.3937007874015748},{"duration":0.05859375,"midi":74,"time":132.27473958333334,"velocity":0.3937007874015748},{"duration":0.3190104166666572,"midi":89,"time":132.28645833333334,"velocity":0.3937007874015748},{"duration":0.05859375,"midi":60,"time":132.28645833333334,"velocity":0.3937007874015748},{"duration":0.1393229166666572,"midi":84,"time":132.29817708333334,"velocity":0.3937007874015748},{"duration":0.05859375,"midi":64,"time":132.30989583333334,"velocity":0.3937007874015748},{"duration":0.05859375,"midi":87,"time":132.33203125,"velocity":0.3937007874015748},{"duration":0.05859375,"midi":65,"time":132.35546875,"velocity":0.3937007874015748},{"duration":0.05859375,"midi":31,"time":132.35546875,"velocity":0.3937007874015748},{"duration":0.09114583333334281,"midi":84,"time":132.37890625,"velocity":0.3937007874015748},{"duration":0.2916666666666572,"midi":82,"time":132.37890625,"velocity":0.3937007874015748},{"duration":0.05729166666665719,"midi":64,"time":132.390625,"velocity":0.3937007874015748},{"duration":0.05729166666665719,"midi":87,"time":132.4140625,"velocity":0.3937007874015748},{"duration":0.29296875,"midi":65,"time":132.4140625,"velocity":0.3937007874015748},{"duration":0.05729166666665719,"midi":55,"time":132.4140625,"velocity":0.3937007874015748},{"duration":0.057291666666685614,"midi":91,"time":132.43619791666666,"velocity":0.3937007874015748},{"duration":0.1692708333333428,"midi":93,"time":132.43619791666666,"velocity":0.3937007874015748},{"duration":0.05859375,"midi":87,"time":132.47005208333334,"velocity":0.3937007874015748},{"duration":0.1705729166666572,"midi":70,"time":132.48046875,"velocity":0.3937007874015748},{"duration":0.05859375,"midi":45,"time":132.48046875,"velocity":0.3937007874015748},{"duration":0.1692708333333428,"midi":74,"time":132.515625,"velocity":0.3937007874015748},{"duration":0.05729166666665719,"midi":91,"time":132.515625,"velocity":0.3937007874015748},{"duration":0.055989583333314386,"midi":84,"time":132.52864583333334,"velocity":0.3937007874015748},{"duration":0.055989583333314386,"midi":61,"time":132.52864583333334,"velocity":0.3937007874015748},{"duration":0.05598958333334281,"midi":45,"time":132.5390625,"velocity":0.3937007874015748},{"duration":0.1536458333333428,"midi":89,"time":132.54947916666666,"velocity":0.3937007874015748},{"duration":0.05729166666665719,"midi":51,"time":132.58333333333334,"velocity":0.3937007874015748},{"duration":0.05729166666665719,"midi":33,"time":132.59375,"velocity":0.3937007874015748},{"duration":0.05729166666665719,"midi":63,"time":132.59375,"velocity":0.3937007874015748},{"duration":0.05729166666665719,"midi":70,"time":132.60546875,"velocity":0.3937007874015748},{"duration":0.1705729166666572,"midi":77,"time":132.640625,"velocity":0.3937007874015748},{"duration":0.05729166666665719,"midi":68,"time":132.640625,"velocity":0.3937007874015748},{"duration":0.05729166666665719,"midi":82,"time":132.640625,"velocity":0.3937007874015748},{"duration":0.05729166666665719,"midi":60,"time":132.640625,"velocity":0.3937007874015748},{"duration":0.05859375,"midi":87,"time":132.65104166666666,"velocity":0.3937007874015748},{"duration":0.05859375,"midi":93,"time":132.65104166666666,"velocity":0.3937007874015748},{"duration":0.05859375,"midi":85,"time":132.65104166666666,"velocity":0.3937007874015748},{"duration":0.05859375,"midi":75,"time":132.65104166666666,"velocity":0.3937007874015748},{"duration":0.4231770833333428,"midi":64,"time":132.65104166666666,"velocity":0.3937007874015748},{"duration":0.4231770833333428,"midi":86,"time":132.65104166666666,"velocity":0.3937007874015748},{"duration":0.05859375,"midi":50,"time":132.66145833333334,"velocity":0.3937007874015748},{"duration":0.6731770833333144,"midi":45,"time":132.66145833333334,"velocity":0.3937007874015748},{"duration":0.42578125,"midi":90,"time":132.671875,"velocity":0.3937007874015748},{"duration":0.05859375,"midi":51,"time":132.671875,"velocity":0.3937007874015748},{"duration":0.05859375,"midi":37,"time":132.671875,"velocity":0.3937007874015748},{"duration":0.42578125,"midi":88,"time":132.671875,"velocity":0.3937007874015748},{"duration":0.05729166666665719,"midi":61,"time":132.68489583333334,"velocity":0.3937007874015748},{"duration":0.05729166666665719,"midi":36,"time":132.68489583333334,"velocity":0.3937007874015748},{"duration":0.2994791666666572,"midi":95,"time":132.68489583333334,"velocity":0.3937007874015748},{"duration":0.05729166666665719,"midi":91,"time":132.68489583333334,"velocity":0.3937007874015748},{"duration":0.05729166666665719,"midi":67,"time":132.69661458333334,"velocity":0.3937007874015748},{"duration":0.42578125,"midi":72,"time":132.72005208333334,"velocity":0.3937007874015748},{"duration":0.1744791666666572,"midi":52,"time":132.73046875,"velocity":0.3937007874015748},{"duration":0.05859375,"midi":32,"time":132.74088541666666,"velocity":0.3937007874015748},{"duration":0.17578125,"midi":61,"time":132.79947916666666,"velocity":0.3937007874015748},{"duration":0.059895833333314386,"midi":33,"time":132.80989583333334,"velocity":0.3937007874015748},{"duration":0.059895833333314386,"midi":89,"time":132.80989583333334,"velocity":0.3937007874015748},{"duration":0.059895833333314386,"midi":67,"time":132.82161458333334,"velocity":0.3937007874015748},{"duration":0.059895833333314386,"midi":77,"time":132.82161458333334,"velocity":0.3937007874015748},{"duration":0.17578125,"midi":92,"time":132.85677083333334,"velocity":0.3937007874015748},{"duration":0.059895833333314386,"midi":52,"time":132.89192708333334,"velocity":0.3937007874015748},{"duration":0.059895833333314386,"midi":33,"time":132.89192708333334,"velocity":0.3937007874015748},{"duration":0.17578125,"midi":83,"time":132.90494791666666,"velocity":0.3937007874015748},{"duration":0.05859375,"midi":52,"time":132.95182291666666,"velocity":0.3937007874015748},{"duration":0.05859375,"midi":67,"time":132.97395833333334,"velocity":0.3937007874015748},{"duration":0.2981770833333428,"midi":52,"time":132.98697916666666,"velocity":0.3937007874015748},{"duration":0.17708333333331439,"midi":95,"time":133.00911458333334,"velocity":0.3937007874015748},{"duration":0.059895833333314386,"midi":62,"time":133.03255208333334,"velocity":0.3937007874015748},{"duration":0.059895833333314386,"midi":33,"time":133.03255208333334,"velocity":0.3937007874015748},{"duration":0.06119791666665719,"midi":82,"time":133.0546875,"velocity":0.3937007874015748},{"duration":0.17578125,"midi":89,"time":133.06770833333334,"velocity":0.3937007874015748},{"duration":0.06119791666665719,"midi":84,"time":133.06770833333334,"velocity":0.3937007874015748},{"duration":0.06119791666665719,"midi":90,"time":133.06770833333334,"velocity":0.3937007874015748},{"duration":0.17578125,"midi":74,"time":133.06770833333334,"velocity":0.3937007874015748},{"duration":0.421875,"midi":76,"time":133.07942708333334,"velocity":0.3937007874015748},{"duration":0.1744791666666572,"midi":70,"time":133.09114583333334,"velocity":0.3937007874015748},{"duration":0.1731770833333428,"midi":86,"time":133.10416666666666,"velocity":0.3937007874015748},{"duration":0.1731770833333428,"midi":33,"time":133.10416666666666,"velocity":0.3937007874015748},{"duration":0.1731770833333428,"midi":62,"time":133.10416666666666,"velocity":0.3937007874015748},{"duration":0.2955729166666856,"midi":81,"time":133.10416666666666,"velocity":0.3937007874015748},{"duration":0.05989583333334281,"midi":85,"time":133.13932291666666,"velocity":0.3937007874015748},{"duration":0.05859375,"midi":80,"time":133.15104166666666,"velocity":0.3937007874015748},{"duration":0.05859375,"midi":72,"time":133.15104166666666,"velocity":0.3937007874015748},{"duration":0.057291666666685614,"midi":95,"time":133.18619791666666,"velocity":0.3937007874015748},{"duration":0.1692708333333428,"midi":90,"time":133.19791666666666,"velocity":0.3937007874015748},{"duration":0.05729166666665719,"midi":65,"time":133.20833333333334,"velocity":0.3937007874015748},{"duration":0.05729166666665719,"midi":89,"time":133.22005208333334,"velocity":0.3937007874015748},{"duration":0.05729166666665719,"midi":60,"time":133.2421875,"velocity":0.3937007874015748},{"duration":0.171875,"midi":86,"time":133.25390625,"velocity":0.3937007874015748},{"duration":0.171875,"midi":91,"time":133.25390625,"velocity":0.3937007874015748},{"duration":0.171875,"midi":67,"time":133.25390625,"velocity":0.3937007874015748},{"duration":0.171875,"midi":85,"time":133.25390625,"velocity":0.3937007874015748},{"duration":0.05859375,"midi":32,"time":133.27604166666666,"velocity":0.3937007874015748},{"duration":0.1744791666666572,"midi":89,"time":133.28645833333334,"velocity":0.3937007874015748},{"duration":0.05859375,"midi":80,"time":133.28645833333334,"velocity":0.3937007874015748},{"duration":0.05859375,"midi":57,"time":133.28645833333334,"velocity":0.3937007874015748},{"duration":0.05859375,"midi":95,"time":133.28645833333334,"velocity":0.3937007874015748},{"duration":0.057291666666685614,"midi":62,"time":133.29947916666666,"velocity":0.3937007874015748},{"duration":0.1731770833333428,"midi":33,"time":133.29947916666666,"velocity":0.3937007874015748},{"duration":0.2942708333333144,"midi":70,"time":133.32161458333334,"velocity":0.3937007874015748},{"duration":0.17317708333331439,"midi":90,"time":133.34505208333334,"velocity":0.3937007874015748},{"duration":0.17317708333331439,"midi":81,"time":133.34505208333334,"velocity":0.3937007874015748},{"duration":0.17317708333331439,"midi":74,"time":133.34505208333334,"velocity":0.3937007874015748},{"duration":0.05729166666665719,"midi":45,"time":133.34505208333334,"velocity":0.3937007874015748},{"duration":0.05859375,"midi":60,"time":133.35546875,"velocity":0.3937007874015748},{"duration":0.05989583333334281,"midi":48,"time":133.40234375,"velocity":0.3937007874015748},{"duration":0.05989583333334281,"midi":62,"time":133.40234375,"velocity":0.3937007874015748},{"duration":0.05989583333334281,"midi":60,"time":133.42447916666666,"velocity":0.3937007874015748},{"duration":0.05989583333334281,"midi":86,"time":133.43619791666666,"velocity":0.3937007874015748},{"duration":0.1705729166666572,"midi":63,"time":133.44921875,"velocity":0.3937007874015748},{"duration":0.1705729166666572,"midi":76,"time":133.44921875,"velocity":0.3937007874015748},{"duration":0.05859375,"midi":41,"time":133.44921875,"velocity":0.3937007874015748},{"duration":0.1705729166666572,"midi":84,"time":133.4609375,"velocity":0.3937007874015748},{"duration":0.2955729166666572,"midi":74,"time":133.4609375,"velocity":0.3937007874015748},{"duration":0.1705729166666572,"midi":87,"time":133.4609375,"velocity":0.3937007874015748},{"duration":0.05729166666665719,"midi":37,"time":133.4609375,"velocity":0.3937007874015748},{"duration":0.1705729166666572,"midi":89,"time":133.4609375,"velocity":0.3937007874015748},{"duration":0.057291666666685614,"midi":77,"time":133.47135416666666,"velocity":0.3937007874015748},{"duration":0.1705729166666572,"midi":53,"time":133.484375,"velocity":0.3937007874015748},{"duration":0.05598958333334281,"midi":85,"time":133.484375,"velocity":0.3937007874015748},{"duration":0.05598958333334281,"midi":57,"time":133.484375,"velocity":0.3937007874015748},{"duration":0.1705729166666572,"midi":88,"time":133.484375,"velocity":0.3937007874015748},{"duration":0.7903645833333428,"midi":46,"time":133.50651041666666,"velocity":0.3937007874015748},{"duration":0.05598958333334281,"midi":94,"time":133.51822916666666,"velocity":0.3937007874015748},{"duration":0.14973958333331439,"midi":81,"time":133.52864583333334,"velocity":0.3937007874015748},{"duration":0.05729166666665719,"midi":34,"time":133.5390625,"velocity":0.3937007874015748},{"duration":0.1744791666666572,"midi":77,"time":133.5390625,"velocity":0.3937007874015748},{"duration":0.17578125,"midi":68,"time":133.54947916666666,"velocity":0.3937007874015748},{"duration":0.05859375,"midi":34,"time":133.57291666666666,"velocity":0.3937007874015748},{"duration":0.08333333333331439,"midi":81,"time":133.61848958333334,"velocity":0.3937007874015748},{"duration":0.4205729166666856,"midi":69,"time":133.63151041666666,"velocity":0.3937007874015748},{"duration":0.059895833333314386,"midi":33,"time":133.66536458333334,"velocity":0.3937007874015748},{"duration":0.1744791666666572,"midi":53,"time":133.66536458333334,"velocity":0.3937007874015748},{"duration":0.1744791666666572,"midi":62,"time":133.68880208333334,"velocity":0.3937007874015748},{"duration":0.05859375,"midi":34,"time":133.70052083333334,"velocity":0.3937007874015748},{"duration":0.05859375,"midi":33,"time":133.73567708333334,"velocity":0.3937007874015748},{"duration":0.05859375,"midi":35,"time":133.75911458333334,"velocity":0.3937007874015748},{"duration":0.4205729166666572,"midi":53,"time":133.8046875,"velocity":0.3937007874015748},{"duration":0.05859375,"midi":34,"time":133.8046875,"velocity":0.3937007874015748},{"duration":0.1731770833333428,"midi":93,"time":133.8046875,"velocity":0.3937007874015748},{"duration":0.1614583333333428,"midi":84,"time":133.81640625,"velocity":0.3937007874015748},{"duration":0.05859375,"midi":91,"time":133.828125,"velocity":0.3937007874015748},{"duration":0.05859375,"midi":88,"time":133.828125,"velocity":0.3937007874015748},{"duration":0.05729166666665719,"midi":34,"time":133.83984375,"velocity":0.3937007874015748},{"duration":0.05729166666665719,"midi":76,"time":133.83984375,"velocity":0.3937007874015748},{"duration":0.05729166666665719,"midi":64,"time":133.83984375,"velocity":0.3937007874015748},{"duration":0.05729166666665719,"midi":92,"time":133.83984375,"velocity":0.3937007874015748},{"duration":0.05729166666665719,"midi":83,"time":133.83984375,"velocity":0.3937007874015748},{"duration":0.05729166666665719,"midi":86,"time":133.86328125,"velocity":0.3937007874015748},{"duration":0.171875,"midi":87,"time":133.87369791666666,"velocity":0.3937007874015748},{"duration":0.05859375,"midi":34,"time":133.87369791666666,"velocity":0.3937007874015748},{"duration":0.171875,"midi":82,"time":133.87369791666666,"velocity":0.3937007874015748},{"duration":0.171875,"midi":77,"time":133.88541666666666,"velocity":0.3937007874015748},{"duration":0.171875,"midi":63,"time":133.88541666666666,"velocity":0.3937007874015748},{"duration":0.1731770833333428,"midi":75,"time":133.89713541666666,"velocity":0.3937007874015748},{"duration":0.4205729166666572,"midi":34,"time":133.90755208333334,"velocity":0.3937007874015748},{"duration":0.06901041666665719,"midi":84,"time":133.91927083333334,"velocity":0.3937007874015748},{"duration":0.05859375,"midi":68,"time":133.94270833333334,"velocity":0.3937007874015748},{"duration":0.05729166666665719,"midi":86,"time":133.95442708333334,"velocity":0.3937007874015748},{"duration":0.05729166666665719,"midi":76,"time":133.97786458333334,"velocity":0.3937007874015748},{"duration":0.05729166666665719,"midi":83,"time":133.97786458333334,"velocity":0.3937007874015748},{"duration":0.05859375,"midi":62,"time":134.01171875,"velocity":0.3937007874015748},{"duration":0.1744791666666572,"midi":84,"time":134.01171875,"velocity":0.3937007874015748},{"duration":0.1744791666666572,"midi":89,"time":134.01171875,"velocity":0.3937007874015748},{"duration":0.1744791666666572,"midi":77,"time":134.01171875,"velocity":0.3937007874015748},{"duration":1.0416666666666572,"midi":69,"time":134.01171875,"velocity":0.3937007874015748},{"duration":0.05859375,"midi":86,"time":134.01171875,"velocity":0.3937007874015748},{"duration":0.17578125,"midi":65,"time":134.04427083333334,"velocity":0.3937007874015748},{"duration":0.17447916666668561,"midi":74,"time":134.06901041666666,"velocity":0.3937007874015748},{"duration":0.05989583333334281,"midi":91,"time":134.09244791666666,"velocity":0.3937007874015748},{"duration":0.05989583333334281,"midi":62,"time":134.09244791666666,"velocity":0.3937007874015748},{"duration":0.05859375,"midi":82,"time":134.10416666666666,"velocity":0.3937007874015748},{"duration":0.05859375,"midi":76,"time":134.12760416666666,"velocity":0.3937007874015748},{"duration":0.05859375,"midi":62,"time":134.16145833333334,"velocity":0.3937007874015748},{"duration":0.171875,"midi":84,"time":134.17317708333334,"velocity":0.3937007874015748},{"duration":0.059895833333314386,"midi":89,"time":134.20833333333334,"velocity":0.3937007874015748},{"duration":0.059895833333314386,"midi":76,"time":134.20833333333334,"velocity":0.3937007874015748},{"duration":0.1705729166666572,"midi":93,"time":134.20833333333334,"velocity":0.3937007874015748},{"duration":0.059895833333314386,"midi":62,"time":134.20833333333334,"velocity":0.3937007874015748},{"duration":0.1705729166666572,"midi":89,"time":134.22005208333334,"velocity":0.3937007874015748},{"duration":0.1705729166666572,"midi":84,"time":134.22005208333334,"velocity":0.3937007874015748},{"duration":0.05859375,"midi":51,"time":134.22005208333334,"velocity":0.3937007874015748},{"duration":0.296875,"midi":77,"time":134.23046875,"velocity":0.3937007874015748},{"duration":0.05859375,"midi":60,"time":134.23046875,"velocity":0.3937007874015748},{"duration":0.05729166666665719,"midi":68,"time":134.24348958333334,"velocity":0.3937007874015748},{"duration":0.05729166666665719,"midi":87,"time":134.24348958333334,"velocity":0.3937007874015748},{"duration":0.4205729166666572,"midi":74,"time":134.25520833333334,"velocity":0.3937007874015748},{"duration":0.055989583333314386,"midi":61,"time":134.25520833333334,"velocity":0.3937007874015748},{"duration":0.171875,"midi":84,"time":134.27734375,"velocity":0.3937007874015748},{"duration":0.05598958333334281,"midi":65,"time":134.2890625,"velocity":0.3937007874015748},{"duration":0.2994791666666572,"midi":58,"time":134.30989583333334,"velocity":0.3937007874015748},{"duration":0.05729166666665719,"midi":51,"time":134.30989583333334,"velocity":0.3937007874015748},{"duration":0.05729166666665719,"midi":85,"time":134.30989583333334,"velocity":0.3937007874015748},{"duration":0.17578125,"midi":65,"time":134.35546875,"velocity":0.3937007874015748},{"duration":0.30078125,"midi":50,"time":134.35546875,"velocity":0.3937007874015748},{"duration":0.05989583333334281,"midi":84,"time":134.390625,"velocity":0.3937007874015748},{"duration":0.17578125,"midi":88,"time":134.40234375,"velocity":0.3937007874015748},{"duration":0.05989583333334281,"midi":90,"time":134.42447916666666,"velocity":0.3937007874015748},{"duration":0.17578125,"midi":92,"time":134.42447916666666,"velocity":0.3937007874015748},{"duration":0.17578125,"midi":76,"time":134.42447916666666,"velocity":0.3937007874015748},{"duration":0.05989583333334281,"midi":83,"time":134.4375,"velocity":0.3937007874015748},{"duration":0.09375,"midi":84,"time":134.4375,"velocity":0.3937007874015748},{"duration":0.17578125,"midi":89,"time":134.4375,"velocity":0.3937007874015748},{"duration":0.05989583333334281,"midi":64,"time":134.44921875,"velocity":0.3937007874015748},{"duration":0.05989583333334281,"midi":93,"time":134.45963541666666,"velocity":0.3937007874015748},{"duration":0.140625,"midi":84,"time":134.47265625,"velocity":0.3937007874015748},{"duration":0.05859375,"midi":90,"time":134.484375,"velocity":0.3937007874015748},{"duration":0.05859375,"midi":64,"time":134.51953125,"velocity":0.3937007874015748},{"duration":0.05989583333334281,"midi":77,"time":134.55338541666666,"velocity":0.3937007874015748},{"duration":0.05859375,"midi":62,"time":134.56510416666666,"velocity":0.3937007874015748},{"duration":0.05859375,"midi":65,"time":134.56510416666666,"velocity":0.3937007874015748},{"duration":0.17447916666668561,"midi":93,"time":134.56510416666666,"velocity":0.3937007874015748},{"duration":0.17447916666668561,"midi":89,"time":134.58854166666666,"velocity":0.3937007874015748},{"duration":0.17447916666668561,"midi":88,"time":134.60026041666666,"velocity":0.3937007874015748},{"duration":0.17447916666668561,"midi":84,"time":134.60026041666666,"velocity":0.3937007874015748},{"duration":0.17447916666668561,"midi":58,"time":134.61197916666666,"velocity":0.3937007874015748},{"duration":0.05859375,"midi":62,"time":134.61197916666666,"velocity":0.3937007874015748},{"duration":0.05859375,"midi":95,"time":134.61197916666666,"velocity":0.3937007874015748},{"duration":0.296875,"midi":92,"time":134.61197916666666,"velocity":0.3937007874015748},{"duration":0.296875,"midi":76,"time":134.61197916666666,"velocity":0.3937007874015748},{"duration":0.296875,"midi":90,"time":134.62369791666666,"velocity":0.3937007874015748},{"duration":0.17578125,"midi":65,"time":134.64583333333334,"velocity":0.3937007874015748},{"duration":0.05859375,"midi":62,"time":134.65755208333334,"velocity":0.3937007874015748},{"duration":0.17578125,"midi":83,"time":134.67057291666666,"velocity":0.3937007874015748},{"duration":0.1744791666666572,"midi":74,"time":134.7265625,"velocity":0.3937007874015748},{"duration":0.059895833333314386,"midi":60,"time":134.78645833333334,"velocity":0.3937007874015748},{"duration":0.05859375,"midi":64,"time":134.79817708333334,"velocity":0.3937007874015748},{"duration":0.05859375,"midi":63,"time":134.82161458333334,"velocity":0.3937007874015748},{"duration":0.1705729166666572,"midi":53,"time":134.83333333333334,"velocity":0.3937007874015748},{"duration":0.1705729166666572,"midi":95,"time":134.83333333333334,"velocity":0.3937007874015748},{"duration":0.05729166666665719,"midi":47,"time":134.83333333333334,"velocity":0.3937007874015748},{"duration":0.055989583333314386,"midi":61,"time":134.84505208333334,"velocity":0.3937007874015748},{"duration":0.1705729166666572,"midi":46,"time":134.85677083333334,"velocity":0.3937007874015748},{"duration":0.055989583333314386,"midi":83,"time":134.85677083333334,"velocity":0.3937007874015748},{"duration":0.05598958333334281,"midi":64,"time":134.890625,"velocity":0.3937007874015748},{"duration":0.057291666666685614,"midi":34,"time":134.90104166666666,"velocity":0.3937007874015748},{"duration":0.171875,"midi":76,"time":134.921875,"velocity":0.3937007874015748},{"duration":0.05859375,"midi":62,"time":134.921875,"velocity":0.3937007874015748},{"duration":0.05859375,"midi":34,"time":134.9453125,"velocity":0.3937007874015748},{"duration":0.171875,"midi":90,"time":134.96875,"velocity":0.3937007874015748},{"duration":0.05859375,"midi":54,"time":134.96875,"velocity":0.3937007874015748},{"duration":0.171875,"midi":69,"time":134.99088541666666,"velocity":0.3937007874015748},{"duration":0.05859375,"midi":41,"time":134.99088541666666,"velocity":0.3937007874015748},{"duration":0.1705729166666572,"midi":84,"time":135.00390625,"velocity":0.3937007874015748},{"duration":0.05859375,"midi":74,"time":135.00390625,"velocity":0.3937007874015748},{"duration":0.05859375,"midi":88,"time":135.01432291666666,"velocity":0.3937007874015748},{"duration":0.05859375,"midi":64,"time":135.01432291666666,"velocity":0.3937007874015748},{"duration":0.17057291666668561,"midi":58,"time":135.01432291666666,"velocity":0.3937007874015748},{"duration":0.057291666666685614,"midi":93,"time":135.02604166666666,"velocity":0.3937007874015748},{"duration":0.057291666666685614,"midi":75,"time":135.02604166666666,"velocity":0.3937007874015748},{"duration":0.4205729166666572,"midi":46,"time":135.03645833333334,"velocity":0.3937007874015748},{"duration":0.7955729166666572,"midi":53,"time":135.03645833333334,"velocity":0.3937007874015748},{"duration":0.057291666666685614,"midi":81,"time":135.04947916666666,"velocity":0.3937007874015748},{"duration":0.057291666666685614,"midi":74,"time":135.04947916666666,"velocity":0.3937007874015748},{"duration":0.05729166666665719,"midi":94,"time":135.07161458333334,"velocity":0.3937007874015748},{"duration":0.05729166666665719,"midi":76,"time":135.07161458333334,"velocity":0.3937007874015748},{"duration":0.05729166666665719,"midi":85,"time":135.08333333333334,"velocity":0.3937007874015748},{"duration":0.05729166666665719,"midi":89,"time":135.08333333333334,"velocity":0.3937007874015748},{"duration":0.2955729166666572,"midi":68,"time":135.08333333333334,"velocity":0.3937007874015748},{"duration":0.05859375,"midi":63,"time":135.09375,"velocity":0.3937007874015748},{"duration":0.05729166666665719,"midi":75,"time":135.10546875,"velocity":0.3937007874015748},{"duration":0.171875,"midi":83,"time":135.10546875,"velocity":0.3937007874015748},{"duration":0.171875,"midi":95,"time":135.10546875,"velocity":0.3937007874015748},{"duration":0.05729166666665719,"midi":33,"time":135.10546875,"velocity":0.3937007874015748},{"duration":0.171875,"midi":90,"time":135.10546875,"velocity":0.3937007874015748},{"duration":0.171875,"midi":88,"time":135.1171875,"velocity":0.3937007874015748},{"duration":0.05729166666665719,"midi":64,"time":135.1171875,"velocity":0.3937007874015748},{"duration":0.296875,"midi":76,"time":135.12890625,"velocity":0.3937007874015748},{"duration":0.057291666666685614,"midi":92,"time":135.13932291666666,"velocity":0.3937007874015748},{"duration":0.05859375,"midi":34,"time":135.17317708333334,"velocity":0.3937007874015748},{"duration":0.05859375,"midi":86,"time":135.17317708333334,"velocity":0.3937007874015748},{"duration":0.17317708333331439,"midi":60,"time":135.17317708333334,"velocity":0.3937007874015748},{"duration":0.05859375,"midi":64,"time":135.17317708333334,"velocity":0.3937007874015748},{"duration":0.1744791666666572,"midi":86,"time":135.18359375,"velocity":0.3937007874015748},{"duration":0.05859375,"midi":92,"time":135.21875,"velocity":0.3937007874015748},{"duration":0.05859375,"midi":70,"time":135.21875,"velocity":0.3937007874015748},{"duration":0.05729166666665719,"midi":93,"time":135.23177083333334,"velocity":0.3937007874015748},{"duration":0.1744791666666572,"midi":34,"time":135.2421875,"velocity":0.3937007874015748},{"duration":0.671875,"midi":58,"time":135.25390625,"velocity":0.3937007874015748},{"duration":0.05729166666665719,"midi":81,"time":135.25390625,"velocity":0.3937007874015748},{"duration":0.1744791666666572,"midi":62,"time":135.27734375,"velocity":0.3937007874015748},{"duration":0.17447916666668561,"midi":95,"time":135.34635416666666,"velocity":0.3937007874015748},{"duration":0.05989583333334281,"midi":63,"time":135.38151041666666,"velocity":0.3937007874015748},{"duration":0.17447916666668561,"midi":76,"time":135.38151041666666,"velocity":0.3937007874015748},{"duration":0.059895833333314386,"midi":45,"time":135.40364583333334,"velocity":0.3937007874015748},{"duration":0.05859375,"midi":94,"time":135.41536458333334,"velocity":0.3937007874015748},{"duration":0.057291666666685614,"midi":62,"time":135.42838541666666,"velocity":0.3937007874015748},{"duration":0.17578125,"midi":34,"time":135.42838541666666,"velocity":0.3937007874015748},{"duration":0.4231770833333428,"midi":46,"time":135.42838541666666,"velocity":0.3937007874015748},{"duration":0.057291666666685614,"midi":77,"time":135.42838541666666,"velocity":0.3937007874015748},{"duration":0.057291666666685614,"midi":86,"time":135.44010416666666,"velocity":0.3937007874015748},{"duration":0.057291666666685614,"midi":68,"time":135.44010416666666,"velocity":0.3937007874015748},{"duration":0.09244791666668561,"midi":88,"time":135.44010416666666,"velocity":0.3937007874015748},{"duration":0.05859375,"midi":84,"time":135.45052083333334,"velocity":0.3937007874015748},{"duration":0.14192708333331439,"midi":88,"time":135.47395833333334,"velocity":0.3937007874015748},{"duration":0.05989583333334281,"midi":74,"time":135.484375,"velocity":0.3937007874015748},{"duration":0.17578125,"midi":88,"time":135.56640625,"velocity":0.3937007874015748},{"duration":0.059895833333314386,"midi":63,"time":135.57942708333334,"velocity":0.3937007874015748},{"duration":0.17578125,"midi":90,"time":135.57942708333334,"velocity":0.3937007874015748},{"duration":0.1744791666666572,"midi":86,"time":135.59114583333334,"velocity":0.3937007874015748},{"duration":0.1744791666666572,"midi":84,"time":135.60286458333334,"velocity":0.3937007874015748},{"duration":0.17447916666668561,"midi":62,"time":135.61588541666666,"velocity":0.3937007874015748},{"duration":0.05859375,"midi":34,"time":135.63802083333334,"velocity":0.3937007874015748},{"duration":0.05859375,"midi":33,"time":135.67317708333334,"velocity":0.3937007874015748},{"duration":0.05859375,"midi":89,"time":135.67317708333334,"velocity":0.3937007874015748},{"duration":0.05859375,"midi":95,"time":135.67317708333334,"velocity":0.3937007874015748},{"duration":0.2981770833333144,"midi":81,"time":135.69661458333334,"velocity":0.3937007874015748},{"duration":0.05859375,"midi":34,"time":135.69661458333334,"velocity":0.3937007874015748},{"duration":0.1731770833333428,"midi":88,"time":135.70703125,"velocity":0.3937007874015748},{"duration":0.171875,"midi":90,"time":135.71875,"velocity":0.3937007874015748},{"duration":0.1705729166666572,"midi":84,"time":135.73177083333334,"velocity":0.3937007874015748},{"duration":0.1705729166666572,"midi":88,"time":135.73177083333334,"velocity":0.3937007874015748},{"duration":0.05859375,"midi":34,"time":135.73177083333334,"velocity":0.3937007874015748},{"duration":0.05989583333334281,"midi":69,"time":135.76432291666666,"velocity":0.3937007874015748},{"duration":0.05859375,"midi":75,"time":135.77734375,"velocity":0.3937007874015748},{"duration":0.1731770833333428,"midi":77,"time":135.77734375,"velocity":0.3937007874015748},{"duration":0.05859375,"midi":51,"time":135.77734375,"velocity":0.3937007874015748},{"duration":0.05729166666665719,"midi":83,"time":135.7890625,"velocity":0.3937007874015748},{"duration":0.057291666666685614,"midi":50,"time":135.79947916666666,"velocity":0.3937007874015748},{"duration":0.057291666666685614,"midi":65,"time":135.79947916666666,"velocity":0.3937007874015748},{"duration":0.1731770833333428,"midi":88,"time":135.8125,"velocity":0.3937007874015748},{"duration":0.05598958333334281,"midi":61,"time":135.82421875,"velocity":0.3937007874015748},{"duration":0.1731770833333428,"midi":65,"time":135.83463541666666,"velocity":0.3937007874015748},{"duration":0.05598958333334281,"midi":74,"time":135.83463541666666,"velocity":0.3937007874015748},{"duration":0.05598958333334281,"midi":86,"time":135.83463541666666,"velocity":0.3937007874015748},{"duration":0.15104166666668561,"midi":46,"time":135.84635416666666,"velocity":0.3937007874015748},{"duration":0.1744791666666572,"midi":34,"time":135.85677083333334,"velocity":0.3937007874015748},{"duration":0.17578125,"midi":62,"time":135.8671875,"velocity":0.3937007874015748},{"duration":0.061197916666685614,"midi":47,"time":135.91276041666666,"velocity":0.3937007874015748},{"duration":0.08333333333334281,"midi":46,"time":135.9375,"velocity":0.3937007874015748},{"duration":0.17578125,"midi":77,"time":135.94921875,"velocity":0.3937007874015748},{"duration":0.05859375,"midi":61,"time":135.96223958333334,"velocity":0.3937007874015748},{"duration":0.17578125,"midi":74,"time":135.96223958333334,"velocity":0.3937007874015748},{"duration":0.2994791666666572,"midi":53,"time":135.97395833333334,"velocity":0.3937007874015748},{"duration":0.30078125,"midi":46,"time":135.984375,"velocity":0.3937007874015748},{"duration":0.30078125,"midi":62,"time":135.984375,"velocity":0.3937007874015748},{"duration":0.05859375,"midi":33,"time":135.99739583333334,"velocity":0.3937007874015748},{"duration":0.17578125,"midi":34,"time":136.01953125,"velocity":0.3937007874015748},{"duration":0.5481770833333428,"midi":69,"time":136.11328125,"velocity":0.3937007874015748},{"duration":0.05989583333334281,"midi":77,"time":136.125,"velocity":0.3937007874015748},{"duration":0.05859375,"midi":84,"time":136.171875,"velocity":0.3937007874015748},{"duration":0.1731770833333428,"midi":34,"time":136.18359375,"velocity":0.3937007874015748},{"duration":0.05859375,"midi":57,"time":136.18359375,"velocity":0.3937007874015748},{"duration":0.1731770833333428,"midi":93,"time":136.18359375,"velocity":0.3937007874015748},{"duration":0.05859375,"midi":86,"time":136.1953125,"velocity":0.3937007874015748},{"duration":0.1744791666666572,"midi":65,"time":136.1953125,"velocity":0.3937007874015748},{"duration":0.1744791666666572,"midi":57,"time":136.23046875,"velocity":0.3937007874015748},{"duration":0.05859375,"midi":89,"time":136.25260416666666,"velocity":0.3937007874015748},{"duration":0.17447916666668561,"midi":93,"time":136.27604166666666,"velocity":0.3937007874015748},{"duration":0.059895833333314386,"midi":47,"time":136.35677083333334,"velocity":0.3937007874015748},{"duration":0.17317708333331439,"midi":62,"time":136.36848958333334,"velocity":0.3937007874015748},{"duration":0.05859375,"midi":86,"time":136.38151041666666,"velocity":0.3937007874015748},{"duration":0.171875,"midi":81,"time":136.41536458333334,"velocity":0.3937007874015748},{"duration":0.05729166666665719,"midi":47,"time":136.41536458333334,"velocity":0.3937007874015748},{"duration":0.05729166666665719,"midi":63,"time":136.43880208333334,"velocity":0.3937007874015748},{"duration":0.05859375,"midi":74,"time":136.47265625,"velocity":0.3937007874015748},{"duration":0.17447916666668561,"midi":62,"time":136.48307291666666,"velocity":0.3937007874015748},{"duration":0.1640625,"midi":71,"time":136.48307291666666,"velocity":0.3937007874015748},{"duration":0.17447916666668561,"midi":76,"time":136.48307291666666,"velocity":0.3937007874015748},{"duration":0.1744791666666572,"midi":82,"time":136.49609375,"velocity":0.3937007874015748},{"duration":0.05989583333334281,"midi":52,"time":136.50651041666666,"velocity":0.3937007874015748},{"duration":0.05859375,"midi":75,"time":136.51822916666666,"velocity":0.3937007874015748},{"duration":0.05859375,"midi":87,"time":136.55338541666666,"velocity":0.3937007874015748},{"duration":0.1731770833333428,"midi":64,"time":136.56510416666666,"velocity":0.3937007874015748},{"duration":0.1731770833333428,"midi":60,"time":136.56510416666666,"velocity":0.3937007874015748},{"duration":0.05859375,"midi":41,"time":136.57682291666666,"velocity":0.3937007874015748},{"duration":0.05859375,"midi":77,"time":136.57682291666666,"velocity":0.3937007874015748},{"duration":0.05859375,"midi":90,"time":136.57682291666666,"velocity":0.3937007874015748},{"duration":0.17447916666668561,"midi":67,"time":136.57682291666666,"velocity":0.3937007874015748},{"duration":0.059895833333314386,"midi":37,"time":136.58723958333334,"velocity":0.3937007874015748},{"duration":0.0703125,"midi":71,"time":136.58723958333334,"velocity":0.3937007874015748},{"duration":0.1744791666666572,"midi":81,"time":136.59895833333334,"velocity":0.3937007874015748},{"duration":0.55078125,"midi":83,"time":136.61197916666666,"velocity":0.3937007874015748},{"duration":0.05859375,"midi":93,"time":136.61197916666666,"velocity":0.3937007874015748},{"duration":0.55078125,"midi":76,"time":136.61197916666666,"velocity":0.3937007874015748},{"duration":0.796875,"midi":52,"time":136.61197916666666,"velocity":0.3937007874015748},{"duration":0.796875,"midi":45,"time":136.62239583333334,"velocity":0.3937007874015748},{"duration":0.059895833333314386,"midi":69,"time":136.62239583333334,"velocity":0.3937007874015748},{"duration":0.059895833333314386,"midi":84,"time":136.62239583333334,"velocity":0.3937007874015748},{"duration":0.05859375,"midi":94,"time":136.63411458333334,"velocity":0.3937007874015748},{"duration":0.05859375,"midi":89,"time":136.63411458333334,"velocity":0.3937007874015748},{"duration":0.30078125,"midi":88,"time":136.66927083333334,"velocity":0.3937007874015748},{"duration":0.42578125,"midi":90,"time":136.66927083333334,"velocity":0.3937007874015748},{"duration":0.17578125,"midi":92,"time":136.66927083333334,"velocity":0.3937007874015748},{"duration":0.30078125,"midi":86,"time":136.69270833333334,"velocity":0.3937007874015748},{"duration":0.05989583333334281,"midi":60,"time":136.703125,"velocity":0.3937007874015748},{"duration":0.05989583333334281,"midi":33,"time":136.703125,"velocity":0.3937007874015748},{"duration":0.05989583333334281,"midi":85,"time":136.703125,"velocity":0.3937007874015748},{"duration":0.4270833333333428,"midi":67,"time":136.7265625,"velocity":0.3937007874015748},{"duration":0.05989583333334281,"midi":60,"time":136.73828125,"velocity":0.3937007874015748},{"duration":0.05989583333334281,"midi":93,"time":136.73828125,"velocity":0.3937007874015748},{"duration":0.17578125,"midi":81,"time":136.75,"velocity":0.3937007874015748},{"duration":0.30078125,"midi":92,"time":136.75,"velocity":0.3937007874015748},{"duration":0.17578125,"midi":74,"time":136.76171875,"velocity":0.3937007874015748},{"duration":0.4270833333333428,"midi":72,"time":136.7734375,"velocity":0.3937007874015748},{"duration":0.05989583333334281,"midi":60,"time":136.78515625,"velocity":0.3937007874015748},{"duration":0.05989583333334281,"midi":33,"time":136.78515625,"velocity":0.3937007874015748},{"duration":0.17578125,"midi":64,"time":136.78515625,"velocity":0.3937007874015748},{"duration":0.05989583333334281,"midi":93,"time":136.8203125,"velocity":0.3937007874015748},{"duration":0.05989583333334281,"midi":69,"time":136.83203125,"velocity":0.3937007874015748},{"duration":0.1744791666666572,"midi":33,"time":136.84505208333334,"velocity":0.3937007874015748},{"duration":0.05989583333334281,"midi":60,"time":136.85546875,"velocity":0.3937007874015748},{"duration":0.5455729166666572,"midi":60,"time":136.90234375,"velocity":0.3937007874015748},{"duration":0.05859375,"midi":86,"time":136.97265625,"velocity":0.3937007874015748},{"duration":0.05859375,"midi":84,"time":136.97265625,"velocity":0.3937007874015748},{"duration":0.05859375,"midi":33,"time":136.97265625,"velocity":0.3937007874015748},{"duration":0.2994791666666856,"midi":33,"time":137.04166666666666,"velocity":0.3937007874015748},{"duration":0.17578125,"midi":81,"time":137.04166666666666,"velocity":0.3937007874015748},{"duration":0.17447916666668561,"midi":76,"time":137.08854166666666,"velocity":0.3937007874015748},{"duration":0.17447916666668561,"midi":92,"time":137.08854166666666,"velocity":0.3937007874015748},{"duration":0.05989583333334281,"midi":93,"time":137.11197916666666,"velocity":0.3937007874015748},{"duration":0.05989583333334281,"midi":69,"time":137.12369791666666,"velocity":0.3937007874015748},{"duration":0.059895833333314386,"midi":66,"time":137.14583333333334,"velocity":0.3937007874015748},{"duration":0.05859375,"midi":83,"time":137.15885416666666,"velocity":0.3937007874015748},{"duration":0.2955729166666856,"midi":89,"time":137.15885416666666,"velocity":0.3937007874015748},{"duration":0.2955729166666856,"midi":93,"time":137.15885416666666,"velocity":0.3937007874015748},{"duration":0.2760416666666856,"midi":84,"time":137.15885416666666,"velocity":0.3937007874015748},{"duration":0.057291666666685614,"midi":87,"time":137.17057291666666,"velocity":0.3937007874015748},{"duration":0.1731770833333428,"midi":69,"time":137.17057291666666,"velocity":0.3937007874015748},{"duration":0.2955729166666856,"midi":77,"time":137.17057291666666,"velocity":0.3937007874015748},{"duration":0.1731770833333428,"midi":91,"time":137.20572916666666,"velocity":0.3937007874015748},{"duration":0.17317708333331439,"midi":87,"time":137.22786458333334,"velocity":0.3937007874015748},{"duration":0.05859375,"midi":67,"time":137.26171875,"velocity":0.3937007874015748},{"duration":0.05859375,"midi":65,"time":137.26171875,"velocity":0.3937007874015748},{"duration":0.05859375,"midi":65,"time":137.3203125,"velocity":0.3937007874015748},{"duration":0.05859375,"midi":81,"time":137.33072916666666,"velocity":0.3937007874015748},{"duration":0.05729166666665719,"midi":76,"time":137.34375,"velocity":0.3937007874015748},{"duration":0.05598958333334281,"midi":68,"time":137.35546875,"velocity":0.3937007874015748},{"duration":0.07552083333334281,"midi":84,"time":137.37890625,"velocity":0.3937007874015748},{"duration":0.05598958333334281,"midi":51,"time":137.37890625,"velocity":0.3937007874015748},{"duration":0.1731770833333428,"midi":64,"time":137.38932291666666,"velocity":0.3937007874015748},{"duration":0.1744791666666572,"midi":67,"time":137.41015625,"velocity":0.3937007874015748},{"duration":0.1744791666666572,"midi":59,"time":137.41015625,"velocity":0.3937007874015748},{"duration":0.05859375,"midi":84,"time":137.43359375,"velocity":0.3937007874015748},{"duration":0.4231770833333428,"midi":52,"time":137.43359375,"velocity":0.3937007874015748},{"duration":0.17578125,"midi":40,"time":137.45703125,"velocity":0.3937007874015748},{"duration":0.17578125,"midi":77,"time":137.50260416666666,"velocity":0.3937007874015748},{"duration":0.05989583333334281,"midi":72,"time":137.51432291666666,"velocity":0.3937007874015748},{"duration":0.05989583333334281,"midi":41,"time":137.54947916666666,"velocity":0.3937007874015748},{"duration":0.1731770833333428,"midi":59,"time":137.56119791666666,"velocity":0.3937007874015748},{"duration":0.05989583333334281,"midi":68,"time":137.56119791666666,"velocity":0.3937007874015748},{"duration":0.1731770833333428,"midi":95,"time":137.58463541666666,"velocity":0.3937007874015748},{"duration":0.1731770833333428,"midi":91,"time":137.58463541666666,"velocity":0.3937007874015748},{"duration":0.05989583333334281,"midi":87,"time":137.58463541666666,"velocity":0.3937007874015748},{"duration":0.171875,"midi":86,"time":137.59635416666666,"velocity":0.3937007874015748},{"duration":0.171875,"midi":89,"time":137.609375,"velocity":0.3937007874015748},{"duration":0.05859375,"midi":67,"time":137.609375,"velocity":0.3937007874015748},{"duration":0.05859375,"midi":76,"time":137.63151041666666,"velocity":0.3937007874015748},{"duration":0.057291666666685614,"midi":87,"time":137.66666666666666,"velocity":0.3937007874015748},{"duration":0.057291666666685614,"midi":68,"time":137.66666666666666,"velocity":0.3937007874015748},{"duration":0.057291666666685614,"midi":81,"time":137.66666666666666,"velocity":0.3937007874015748},{"duration":0.057291666666685614,"midi":93,"time":137.69010416666666,"velocity":0.3937007874015748},{"duration":0.057291666666685614,"midi":77,"time":137.69010416666666,"velocity":0.3937007874015748},{"duration":0.05729166666665719,"midi":67,"time":137.70052083333334,"velocity":0.3937007874015748},{"duration":0.05729166666665719,"midi":66,"time":137.72395833333334,"velocity":0.3937007874015748},{"duration":0.05859375,"midi":60,"time":137.734375,"velocity":0.3937007874015748},{"duration":0.1744791666666572,"midi":93,"time":137.734375,"velocity":0.3937007874015748},{"duration":0.1744791666666572,"midi":89,"time":137.74609375,"velocity":0.3937007874015748},{"duration":0.05859375,"midi":77,"time":137.74609375,"velocity":0.3937007874015748},{"duration":0.17578125,"midi":65,"time":137.75651041666666,"velocity":0.3937007874015748},{"duration":0.05989583333334281,"midi":84,"time":137.75651041666666,"velocity":0.3937007874015748},{"duration":0.05989583333334281,"midi":40,"time":137.75651041666666,"velocity":0.3937007874015748},{"duration":0.05989583333334281,"midi":68,"time":137.77994791666666,"velocity":0.3937007874015748},{"duration":0.1770833333333428,"midi":60,"time":137.77994791666666,"velocity":0.3937007874015748},{"duration":0.05859375,"midi":53,"time":137.83984375,"velocity":0.3937007874015748},{"duration":0.1731770833333428,"midi":42,"time":137.86197916666666,"velocity":0.3937007874015748},{"duration":0.05989583333334281,"midi":66,"time":137.92057291666666,"velocity":0.3937007874015748},{"duration":0.17057291666668561,"midi":89,"time":137.93229166666666,"velocity":0.3937007874015748},{"duration":0.05859375,"midi":72,"time":137.93229166666666,"velocity":0.3937007874015748},{"duration":0.05859375,"midi":95,"time":137.93229166666666,"velocity":0.3937007874015748},{"duration":0.057291666666685614,"midi":64,"time":137.94401041666666,"velocity":0.3937007874015748},{"duration":0.17057291666668561,"midi":81,"time":137.94401041666666,"velocity":0.3937007874015748},{"duration":0.057291666666685614,"midi":67,"time":137.94401041666666,"velocity":0.3937007874015748},{"duration":0.05598958333334281,"midi":60,"time":137.95703125,"velocity":0.3937007874015748},{"duration":0.171875,"midi":68,"time":137.97916666666666,"velocity":0.3937007874015748},{"duration":0.05598958333334281,"midi":70,"time":137.97916666666666,"velocity":0.3937007874015748},{"duration":0.1731770833333428,"midi":84,"time":137.99088541666666,"velocity":0.3937007874015748},{"duration":0.05729166666665719,"midi":64,"time":138.00130208333334,"velocity":0.3937007874015748},{"duration":0.05729166666665719,"midi":87,"time":138.01171875,"velocity":0.3937007874015748},{"duration":0.05729166666665719,"midi":60,"time":138.01171875,"velocity":0.3937007874015748},{"duration":0.05729166666665719,"midi":90,"time":138.01171875,"velocity":0.3937007874015748},{"duration":0.1536458333333428,"midi":65,"time":138.04557291666666,"velocity":0.3937007874015748},{"duration":0.1770833333333428,"midi":46,"time":138.05729166666666,"velocity":0.3937007874015748},{"duration":0.1770833333333428,"midi":88,"time":138.05729166666666,"velocity":0.3937007874015748},{"duration":0.1770833333333428,"midi":93,"time":138.05729166666666,"velocity":0.3937007874015748},{"duration":0.1770833333333428,"midi":58,"time":138.05729166666666,"velocity":0.3937007874015748},{"duration":0.1770833333333428,"midi":69,"time":138.06901041666666,"velocity":0.3937007874015748},{"duration":0.1770833333333428,"midi":91,"time":138.06901041666666,"velocity":0.3937007874015748},{"duration":0.1770833333333428,"midi":85,"time":138.06901041666666,"velocity":0.3937007874015748},{"duration":0.17708333333331439,"midi":88,"time":138.07942708333334,"velocity":0.3937007874015748},{"duration":0.06119791666665719,"midi":60,"time":138.12630208333334,"velocity":0.3937007874015748},{"duration":0.17708333333331439,"midi":76,"time":138.12630208333334,"velocity":0.3937007874015748},{"duration":0.08463541666665719,"midi":65,"time":138.13802083333334,"velocity":0.3937007874015748},{"duration":0.17447916666668561,"midi":64,"time":138.16276041666666,"velocity":0.3937007874015748},{"duration":0.17447916666668561,"midi":57,"time":138.16276041666666,"velocity":0.3937007874015748},{"duration":0.17447916666668561,"midi":84,"time":138.16276041666666,"velocity":0.3937007874015748},{"duration":0.05989583333334281,"midi":68,"time":138.17447916666666,"velocity":0.3937007874015748},{"duration":0.05859375,"midi":87,"time":138.1875,"velocity":0.3937007874015748},{"duration":0.05859375,"midi":87,"time":138.1875,"velocity":0.3937007874015748},{"duration":0.05859375,"midi":28,"time":138.20963541666666,"velocity":0.3937007874015748},{"duration":0.171875,"midi":81,"time":138.22265625,"velocity":0.3937007874015748},{"duration":0.171875,"midi":45,"time":138.22265625,"velocity":0.3937007874015748},{"duration":0.1940104166666572,"midi":89,"time":138.22265625,"velocity":0.3937007874015748},{"duration":0.296875,"midi":79,"time":138.234375,"velocity":0.3937007874015748},{"duration":0.1705729166666572,"midi":67,"time":138.234375,"velocity":0.3937007874015748},{"duration":0.2981770833333428,"midi":86,"time":138.24479166666666,"velocity":0.3937007874015748},{"duration":0.05859375,"midi":91,"time":138.26822916666666,"velocity":0.3937007874015748},{"duration":0.05859375,"midi":93,"time":138.27864583333334,"velocity":0.3937007874015748},{"duration":0.05729166666665719,"midi":84,"time":138.29036458333334,"velocity":0.3937007874015748},{"duration":0.171875,"midi":85,"time":138.29036458333334,"velocity":0.3937007874015748},{"duration":0.171875,"midi":58,"time":138.32552083333334,"velocity":0.3937007874015748},{"duration":0.171875,"midi":93,"time":138.32552083333334,"velocity":0.3937007874015748},{"duration":0.05729166666665719,"midi":65,"time":138.33723958333334,"velocity":0.3937007874015748},{"duration":0.05729166666665719,"midi":46,"time":138.34765625,"velocity":0.3937007874015748},{"duration":0.17578125,"midi":67,"time":138.35807291666666,"velocity":0.3937007874015748},{"duration":0.1614583333333428,"midi":89,"time":138.35807291666666,"velocity":0.3937007874015748},{"duration":0.05859375,"midi":72,"time":138.37109375,"velocity":0.3937007874015748},{"duration":0.05859375,"midi":88,"time":138.39322916666666,"velocity":0.3937007874015748},{"duration":0.17708333333331439,"midi":45,"time":138.40364583333334,"velocity":0.3937007874015748},{"duration":0.1744791666666572,"midi":72,"time":138.47395833333334,"velocity":0.3937007874015748},{"duration":0.06119791666665719,"midi":88,"time":138.49739583333334,"velocity":0.3937007874015748},{"duration":0.06119791666665719,"midi":93,"time":138.50911458333334,"velocity":0.3937007874015748},{"duration":0.059895833333314386,"midi":85,"time":138.52083333333334,"velocity":0.3937007874015748},{"duration":0.059895833333314386,"midi":78,"time":138.52083333333334,"velocity":0.3937007874015748},{"duration":0.05859375,"midi":81,"time":138.53385416666666,"velocity":0.3937007874015748},{"duration":0.05859375,"midi":77,"time":138.53385416666666,"velocity":0.3937007874015748},{"duration":0.1731770833333428,"midi":58,"time":138.53385416666666,"velocity":0.3937007874015748},{"duration":0.057291666666685614,"midi":67,"time":138.54557291666666,"velocity":0.3937007874015748},{"duration":0.057291666666685614,"midi":86,"time":138.54557291666666,"velocity":0.3937007874015748},{"duration":0.1731770833333428,"midi":46,"time":138.54557291666666,"velocity":0.3937007874015748},{"duration":0.057291666666685614,"midi":89,"time":138.54557291666666,"velocity":0.3937007874015748},{"duration":0.057291666666685614,"midi":85,"time":138.58072916666666,"velocity":0.3937007874015748},{"duration":0.057291666666685614,"midi":78,"time":138.58072916666666,"velocity":0.3937007874015748},{"duration":0.05729166666665719,"midi":93,"time":138.59114583333334,"velocity":0.3937007874015748},{"duration":0.05859375,"midi":88,"time":138.60286458333334,"velocity":0.3937007874015748},{"duration":0.05859375,"midi":69,"time":138.61328125,"velocity":0.3937007874015748},{"duration":0.171875,"midi":45,"time":138.625,"velocity":0.3937007874015748},{"duration":0.29296875,"midi":86,"time":138.625,"velocity":0.3937007874015748},{"duration":0.29296875,"midi":79,"time":138.625,"velocity":0.3937007874015748},{"duration":0.29296875,"midi":89,"time":138.6484375,"velocity":0.3937007874015748},{"duration":0.05989583333334281,"midi":67,"time":138.67057291666666,"velocity":0.3937007874015748},{"duration":0.05989583333334281,"midi":57,"time":138.68229166666666,"velocity":0.3937007874015748},{"duration":0.05859375,"midi":77,"time":138.69401041666666,"velocity":0.3937007874015748},{"duration":0.057291666666685614,"midi":63,"time":138.70572916666666,"velocity":0.3937007874015748},{"duration":0.05598958333334281,"midi":50,"time":138.73046875,"velocity":0.3937007874015748},{"duration":0.1692708333333428,"midi":93,"time":138.74088541666666,"velocity":0.3937007874015748},{"duration":0.05598958333334281,"midi":65,"time":138.74088541666666,"velocity":0.3937007874015748},{"duration":0.055989583333314386,"midi":95,"time":138.75130208333334,"velocity":0.3937007874015748},{"duration":0.2916666666666572,"midi":76,"time":138.76302083333334,"velocity":0.3937007874015748},{"duration":0.055989583333314386,"midi":67,"time":138.76302083333334,"velocity":0.3937007874015748},{"duration":0.1705729166666572,"midi":72,"time":138.76302083333334,"velocity":0.3937007874015748},{"duration":0.05859375,"midi":81,"time":138.80729166666666,"velocity":0.3937007874015748},{"duration":0.05859375,"midi":64,"time":138.81770833333334,"velocity":0.3937007874015748},{"duration":0.1705729166666572,"midi":57,"time":138.81770833333334,"velocity":0.3937007874015748},{"duration":0.05859375,"midi":67,"time":138.84114583333334,"velocity":0.3937007874015748},{"duration":0.05859375,"midi":80,"time":138.84114583333334,"velocity":0.3937007874015748},{"duration":0.09244791666665719,"midi":88,"time":138.84114583333334,"velocity":0.3937007874015748},{"duration":0.05859375,"midi":87,"time":138.84114583333334,"velocity":0.3937007874015748},{"duration":0.05729166666665719,"midi":45,"time":138.85286458333334,"velocity":0.3937007874015748},{"duration":0.16927083333331439,"midi":90,"time":138.85286458333334,"velocity":0.3937007874015748},{"duration":0.05729166666665719,"midi":93,"time":138.87630208333334,"velocity":0.3937007874015748},{"duration":0.1354166666666572,"midi":88,"time":138.87630208333334,"velocity":0.3937007874015748},{"duration":0.05729166666665719,"midi":79,"time":138.87630208333334,"velocity":0.3937007874015748},{"duration":0.1705729166666572,"midi":89,"time":138.88671875,"velocity":0.3937007874015748},{"duration":0.05729166666665719,"midi":81,"time":138.88671875,"velocity":0.3937007874015748},{"duration":0.05729166666665719,"midi":50,"time":138.91015625,"velocity":0.3937007874015748},{"duration":0.05729166666665719,"midi":68,"time":138.91015625,"velocity":0.3937007874015748},{"duration":0.05729166666665719,"midi":65,"time":138.91015625,"velocity":0.3937007874015748},{"duration":0.171875,"midi":70,"time":138.92057291666666,"velocity":0.3937007874015748},{"duration":0.057291666666685614,"midi":80,"time":138.92057291666666,"velocity":0.3937007874015748},{"duration":0.06770833333334281,"midi":84,"time":138.92057291666666,"velocity":0.3937007874015748},{"duration":0.05598958333334281,"midi":60,"time":138.93229166666666,"velocity":0.3937007874015748},{"duration":0.171875,"midi":86,"time":138.93229166666666,"velocity":0.3937007874015748},{"duration":0.16015625,"midi":84,"time":138.93229166666666,"velocity":0.3937007874015748},{"duration":0.1731770833333428,"midi":67,"time":138.94401041666666,"velocity":0.3937007874015748},{"duration":0.057291666666685614,"midi":91,"time":138.94401041666666,"velocity":0.3937007874015748},{"duration":0.05729166666665719,"midi":63,"time":138.95442708333334,"velocity":0.3937007874015748},{"duration":0.17317708333331439,"midi":79,"time":138.95442708333334,"velocity":0.3937007874015748},{"duration":0.05729166666665719,"midi":64,"time":138.97786458333334,"velocity":0.3937007874015748},{"duration":0.05859375,"midi":46,"time":138.98828125,"velocity":0.3937007874015748},{"duration":0.05859375,"midi":60,"time":138.98828125,"velocity":0.3937007874015748},{"duration":0.17447916666668561,"midi":64,"time":139.02213541666666,"velocity":0.3937007874015748},{"duration":0.05989583333334281,"midi":88,"time":139.05729166666666,"velocity":0.3937007874015748},{"duration":0.05989583333334281,"midi":80,"time":139.05729166666666,"velocity":0.3937007874015748},{"duration":0.05859375,"midi":78,"time":139.06901041666666,"velocity":0.3937007874015748},{"duration":0.05859375,"midi":85,"time":139.06901041666666,"velocity":0.3937007874015748},{"duration":0.29296875,"midi":77,"time":139.09244791666666,"velocity":0.3937007874015748},{"duration":0.05859375,"midi":51,"time":139.09244791666666,"velocity":0.3937007874015748},{"duration":0.05859375,"midi":81,"time":139.10416666666666,"velocity":0.3937007874015748},{"duration":0.2916666666666856,"midi":84,"time":139.10416666666666,"velocity":0.3937007874015748},{"duration":0.1731770833333428,"midi":67,"time":139.10416666666666,"velocity":0.3937007874015748},{"duration":0.171875,"midi":72,"time":139.12630208333334,"velocity":0.3937007874015748},{"duration":0.05859375,"midi":63,"time":139.12630208333334,"velocity":0.3937007874015748},{"duration":0.05859375,"midi":64,"time":139.14973958333334,"velocity":0.3937007874015748},{"duration":0.05859375,"midi":48,"time":139.14973958333334,"velocity":0.3937007874015748},{"duration":0.05859375,"midi":81,"time":139.14973958333334,"velocity":0.3937007874015748},{"duration":0.05859375,"midi":47,"time":139.1953125,"velocity":0.3937007874015748},{"duration":0.05859375,"midi":65,"time":139.21875,"velocity":0.3937007874015748},{"duration":0.05859375,"midi":67,"time":139.21875,"velocity":0.3937007874015748},{"duration":0.05729166666665719,"midi":46,"time":139.23046875,"velocity":0.3937007874015748},{"duration":0.05729166666665719,"midi":81,"time":139.23046875,"velocity":0.3937007874015748},{"duration":0.05729166666665719,"midi":60,"time":139.25390625,"velocity":0.3937007874015748},{"duration":0.05729166666665719,"midi":64,"time":139.25390625,"velocity":0.3937007874015748},{"duration":0.057291666666685614,"midi":50,"time":139.27604166666666,"velocity":0.3937007874015748},{"duration":0.057291666666685614,"midi":69,"time":139.28776041666666,"velocity":0.3937007874015748},{"duration":0.057291666666685614,"midi":65,"time":139.28776041666666,"velocity":0.3937007874015748},{"duration":0.057291666666685614,"midi":61,"time":139.28776041666666,"velocity":0.3937007874015748},{"duration":0.16927083333331439,"midi":95,"time":139.29817708333334,"velocity":0.3937007874015748},{"duration":0.05729166666665719,"midi":56,"time":139.29817708333334,"velocity":0.3937007874015748},{"duration":0.05729166666665719,"midi":85,"time":139.29817708333334,"velocity":0.3937007874015748},{"duration":0.055989583333314386,"midi":76,"time":139.30989583333334,"velocity":0.3937007874015748},{"duration":0.055989583333314386,"midi":67,"time":139.30989583333334,"velocity":0.3937007874015748},{"duration":0.055989583333314386,"midi":92,"time":139.30989583333334,"velocity":0.3937007874015748},{"duration":0.055989583333314386,"midi":49,"time":139.30989583333334,"velocity":0.3937007874015748},{"duration":0.16796875,"midi":90,"time":139.30989583333334,"velocity":0.3937007874015748},{"duration":0.055989583333314386,"midi":86,"time":139.30989583333334,"velocity":0.3937007874015748},{"duration":0.055989583333314386,"midi":64,"time":139.30989583333334,"velocity":0.3937007874015748},{"duration":0.055989583333314386,"midi":48,"time":139.32161458333334,"velocity":0.3937007874015748},{"duration":0.055989583333314386,"midi":83,"time":139.32161458333334,"velocity":0.3937007874015748},{"duration":0.16796875,"midi":57,"time":139.32161458333334,"velocity":0.3937007874015748},{"duration":0.0546875,"midi":78,"time":139.33333333333334,"velocity":0.3937007874015748},{"duration":0.16796875,"midi":84,"time":139.33333333333334,"velocity":0.3937007874015748},{"duration":0.0546875,"midi":85,"time":139.33333333333334,"velocity":0.3937007874015748},{"duration":0.1575520833333428,"midi":80,"time":139.34375,"velocity":0.3937007874015748},{"duration":0.05598958333334281,"midi":46,"time":139.35546875,"velocity":0.3937007874015748},{"duration":0.05598958333334281,"midi":91,"time":139.35546875,"velocity":0.3937007874015748},{"duration":0.05598958333334281,"midi":67,"time":139.36588541666666,"velocity":0.3937007874015748},{"duration":0.2890625,"midi":89,"time":139.36588541666666,"velocity":0.3937007874015748},{"duration":0.1692708333333428,"midi":91,"time":139.36588541666666,"velocity":0.3937007874015748},{"duration":0.05598958333334281,"midi":75,"time":139.36588541666666,"velocity":0.3937007874015748},{"duration":0.05598958333334281,"midi":63,"time":139.36588541666666,"velocity":0.3937007874015748},{"duration":0.05729166666665719,"midi":45,"time":139.37630208333334,"velocity":0.3937007874015748},{"duration":0.16927083333331439,"midi":72,"time":139.37630208333334,"velocity":0.3937007874015748},{"duration":0.2890625,"midi":77,"time":139.37630208333334,"velocity":0.3937007874015748},{"duration":0.05729166666665719,"midi":94,"time":139.37630208333334,"velocity":0.3937007874015748},{"duration":0.16927083333331439,"midi":84,"time":139.37630208333334,"velocity":0.3937007874015748},{"duration":0.05859375,"midi":44,"time":139.3984375,"velocity":0.3937007874015748},{"duration":0.1809895833333428,"midi":88,"time":139.3984375,"velocity":0.3937007874015748},{"duration":0.05859375,"midi":64,"time":139.3984375,"velocity":0.3937007874015748},{"duration":0.203125,"midi":88,"time":139.41015625,"velocity":0.3937007874015748},{"duration":0.05729166666665719,"midi":86,"time":139.41015625,"velocity":0.3937007874015748},{"duration":0.057291666666685614,"midi":45,"time":139.42057291666666,"velocity":0.3937007874015748},{"duration":0.057291666666685614,"midi":65,"time":139.42057291666666,"velocity":0.3937007874015748},{"duration":0.1692708333333428,"midi":93,"time":139.42057291666666,"velocity":0.3937007874015748},{"duration":0.057291666666685614,"midi":87,"time":139.44401041666666,"velocity":0.3937007874015748},{"duration":0.057291666666685614,"midi":64,"time":139.44401041666666,"velocity":0.3937007874015748},{"duration":0.06770833333334281,"midi":80,"time":139.44401041666666,"velocity":0.3937007874015748},{"duration":0.05598958333334281,"midi":65,"time":139.45572916666666,"velocity":0.3937007874015748},{"duration":0.05598958333334281,"midi":50,"time":139.45572916666666,"velocity":0.3937007874015748},{"duration":0.05729166666665719,"midi":85,"time":139.47786458333334,"velocity":0.3937007874015748},{"duration":0.05729166666665719,"midi":76,"time":139.47786458333334,"velocity":0.3937007874015748},{"duration":0.05729166666665719,"midi":90,"time":139.48828125,"velocity":0.3937007874015748},{"duration":0.1692708333333428,"midi":90,"time":139.48828125,"velocity":0.3937007874015748},{"duration":0.05729166666665719,"midi":94,"time":139.48828125,"velocity":0.3937007874015748},{"duration":0.05729166666665719,"midi":66,"time":139.48828125,"velocity":0.3937007874015748},{"duration":0.16796875,"midi":84,"time":139.5,"velocity":0.3937007874015748},{"duration":0.16796875,"midi":57,"time":139.5,"velocity":0.3937007874015748},{"duration":0.05729166666665719,"midi":95,"time":139.51171875,"velocity":0.3937007874015748},{"duration":0.057291666666685614,"midi":87,"time":139.52213541666666,"velocity":0.3937007874015748},{"duration":0.057291666666685614,"midi":65,"time":139.52213541666666,"velocity":0.3937007874015748},{"duration":0.057291666666685614,"midi":80,"time":139.52213541666666,"velocity":0.3937007874015748},{"duration":0.16796875,"midi":72,"time":139.53385416666666,"velocity":0.3937007874015748},{"duration":0.05598958333334281,"midi":68,"time":139.53385416666666,"velocity":0.3937007874015748},{"duration":0.16796875,"midi":85,"time":139.55598958333334,"velocity":0.3937007874015748},{"duration":0.1015625,"midi":91,"time":139.55598958333334,"velocity":0.3937007874015748},{"duration":0.1328125,"midi":88,"time":139.55598958333334,"velocity":0.3937007874015748},{"duration":0.05729166666665719,"midi":81,"time":139.55598958333334,"velocity":0.3937007874015748},{"duration":0.055989583333314386,"midi":69,"time":139.56770833333334,"velocity":0.3937007874015748},{"duration":0.05729166666665719,"midi":64,"time":139.58984375,"velocity":0.3937007874015748},{"duration":0.24609375,"midi":91,"time":139.60026041666666,"velocity":0.3937007874015748},{"duration":0.057291666666685614,"midi":63,"time":139.62369791666666,"velocity":0.3937007874015748},{"duration":0.05729166666665719,"midi":86,"time":139.63411458333334,"velocity":0.3937007874015748},{"duration":0.05729166666665719,"midi":90,"time":139.63411458333334,"velocity":0.3937007874015748},{"duration":0.05729166666665719,"midi":74,"time":139.63411458333334,"velocity":0.3937007874015748},{"duration":0.055989583333314386,"midi":79,"time":139.64583333333334,"velocity":0.3937007874015748},{"duration":0.055989583333314386,"midi":81,"time":139.64583333333334,"velocity":0.3937007874015748},{"duration":0.055989583333314386,"midi":57,"time":139.64583333333334,"velocity":0.3937007874015748},{"duration":0.055989583333314386,"midi":88,"time":139.65755208333334,"velocity":0.3937007874015748},{"duration":0.055989583333314386,"midi":53,"time":139.65755208333334,"velocity":0.3937007874015748},{"duration":0.055989583333314386,"midi":66,"time":139.65755208333334,"velocity":0.3937007874015748},{"duration":0.05598958333334281,"midi":76,"time":139.66796875,"velocity":0.3937007874015748},{"duration":0.05598958333334281,"midi":63,"time":139.66796875,"velocity":0.3937007874015748},{"duration":0.05598958333334281,"midi":82,"time":139.66796875,"velocity":0.3937007874015748},{"duration":0.05598958333334281,"midi":83,"time":139.66796875,"velocity":0.3937007874015748},{"duration":0.1692708333333428,"midi":87,"time":139.66796875,"velocity":0.3937007874015748},{"duration":0.05598958333334281,"midi":41,"time":139.66796875,"velocity":0.3937007874015748},{"duration":0.0546875,"midi":36,"time":139.6796875,"velocity":0.3937007874015748},{"duration":0.0546875,"midi":75,"time":139.69140625,"velocity":0.3937007874015748},{"duration":0.0546875,"midi":85,"time":139.69140625,"velocity":0.3937007874015748},{"duration":0.0546875,"midi":77,"time":139.69140625,"velocity":0.3937007874015748},{"duration":0.1705729166666572,"midi":84,"time":139.69140625,"velocity":0.3937007874015748},{"duration":0.0546875,"midi":60,"time":139.70182291666666,"velocity":0.3937007874015748},{"duration":0.171875,"midi":69,"time":139.70182291666666,"velocity":0.3937007874015748},{"duration":0.0546875,"midi":86,"time":139.71223958333334,"velocity":0.3937007874015748},{"duration":0.0546875,"midi":89,"time":139.71223958333334,"velocity":0.3937007874015748},{"duration":0.1731770833333428,"midi":73,"time":139.72265625,"velocity":0.3937007874015748},{"duration":0.1731770833333428,"midi":76,"time":139.734375,"velocity":0.3937007874015748},{"duration":0.1731770833333428,"midi":80,"time":139.734375,"velocity":0.3937007874015748},{"duration":0.5520833333333428,"midi":88,"time":139.734375,"velocity":0.3937007874015748},{"duration":0.8033854166666856,"midi":57,"time":139.74479166666666,"velocity":0.3937007874015748},{"duration":0.1744791666666572,"midi":66,"time":139.75520833333334,"velocity":0.3937007874015748},{"duration":0.2994791666666572,"midi":95,"time":139.75520833333334,"velocity":0.3937007874015748},{"duration":0.17578125,"midi":62,"time":139.76692708333334,"velocity":0.3937007874015748},{"duration":0.059895833333314386,"midi":50,"time":139.76692708333334,"velocity":0.3937007874015748},{"duration":0.4283854166666572,"midi":74,"time":139.80208333333334,"velocity":0.3937007874015748},{"duration":0.4283854166666572,"midi":81,"time":139.80208333333334,"velocity":0.3937007874015748},{"duration":0.6796875,"midi":50,"time":139.81380208333334,"velocity":0.3937007874015748},{"duration":0.059895833333314386,"midi":40,"time":139.82552083333334,"velocity":0.3937007874015748},{"duration":0.1744791666666572,"midi":84,"time":139.82552083333334,"velocity":0.3937007874015748},{"duration":0.059895833333314386,"midi":77,"time":139.83723958333334,"velocity":0.3937007874015748},{"duration":0.1744791666666572,"midi":87,"time":139.86067708333334,"velocity":0.3937007874015748},{"duration":0.05859375,"midi":91,"time":139.86067708333334,"velocity":0.3937007874015748},{"duration":0.30078125,"midi":76,"time":139.86067708333334,"velocity":0.3937007874015748},{"duration":0.5546875,"midi":65,"time":139.94140625,"velocity":0.3937007874015748},{"duration":0.17578125,"midi":84,"time":139.9765625,"velocity":0.3937007874015748},{"duration":0.1770833333333428,"midi":91,"time":140.03515625,"velocity":0.3937007874015748},{"duration":0.05989583333334281,"midi":87,"time":140.05729166666666,"velocity":0.3937007874015748},{"duration":0.05989583333334281,"midi":94,"time":140.0703125,"velocity":0.3937007874015748},{"duration":0.4296875,"midi":90,"time":140.08203125,"velocity":0.3937007874015748},{"duration":0.17838541666668561,"midi":84,"time":140.10416666666666,"velocity":0.3937007874015748},{"duration":0.05989583333334281,"midi":76,"time":140.1171875,"velocity":0.3937007874015748},{"duration":0.06119791666665719,"midi":76,"time":140.1875,"velocity":0.3937007874015748},{"duration":0.06119791666665719,"midi":74,"time":140.19921875,"velocity":0.3937007874015748},{"duration":0.1770833333333428,"midi":80,"time":140.22265625,"velocity":0.3937007874015748},{"duration":0.059895833333314386,"midi":86,"time":140.23567708333334,"velocity":0.3937007874015748},{"duration":0.17708333333331439,"midi":73,"time":140.23567708333334,"velocity":0.3937007874015748},{"duration":0.42578125,"midi":81,"time":140.24739583333334,"velocity":0.3937007874015748},{"duration":0.4244791666666572,"midi":88,"time":140.28255208333334,"velocity":0.3937007874015748},{"duration":0.17578125,"midi":76,"time":140.29427083333334,"velocity":0.3937007874015748},{"duration":0.17578125,"midi":74,"time":140.29427083333334,"velocity":0.3937007874015748},{"duration":0.059895833333314386,"midi":79,"time":140.30598958333334,"velocity":0.3937007874015748},{"duration":0.4244791666666572,"midi":88,"time":140.30598958333334,"velocity":0.3937007874015748},{"duration":0.059895833333314386,"midi":72,"time":140.30598958333334,"velocity":0.3937007874015748},{"duration":0.4244791666666572,"midi":91,"time":140.31770833333334,"velocity":0.3937007874015748},{"duration":0.17578125,"midi":85,"time":140.32942708333334,"velocity":0.3937007874015748},{"duration":0.30078125,"midi":69,"time":140.32942708333334,"velocity":0.3937007874015748},{"duration":0.06119791666665719,"midi":82,"time":140.38802083333334,"velocity":0.3937007874015748},{"duration":0.059895833333314386,"midi":86,"time":140.39973958333334,"velocity":0.3937007874015748},{"duration":0.05859375,"midi":73,"time":140.42447916666666,"velocity":0.3937007874015748},{"duration":0.17447916666668561,"midi":76,"time":140.45963541666666,"velocity":0.3937007874015748},{"duration":0.05859375,"midi":74,"time":140.45963541666666,"velocity":0.3937007874015748},{"duration":0.05859375,"midi":60,"time":140.48177083333334,"velocity":0.3937007874015748},{"duration":0.05859375,"midi":51,"time":140.48177083333334,"velocity":0.3937007874015748},{"duration":0.05859375,"midi":84,"time":140.48177083333334,"velocity":0.3937007874015748},{"duration":0.5494791666666572,"midi":65,"time":140.50520833333334,"velocity":0.3937007874015748},{"duration":0.05859375,"midi":50,"time":140.50520833333334,"velocity":0.3937007874015748},{"duration":0.05859375,"midi":67,"time":140.51692708333334,"velocity":0.3937007874015748},{"duration":0.1744791666666572,"midi":69,"time":140.55078125,"velocity":0.3937007874015748},{"duration":0.05989583333334281,"midi":74,"time":140.55078125,"velocity":0.3937007874015748},{"duration":0.1731770833333428,"midi":85,"time":140.5625,"velocity":0.3937007874015748},{"duration":0.05989583333334281,"midi":76,"time":140.59765625,"velocity":0.3937007874015748},{"duration":0.1731770833333428,"midi":62,"time":140.609375,"velocity":0.3937007874015748},{"duration":0.05859375,"midi":50,"time":140.609375,"velocity":0.3937007874015748},{"duration":0.1731770833333428,"midi":73,"time":140.6328125,"velocity":0.3937007874015748},{"duration":0.05729166666665719,"midi":50,"time":140.66796875,"velocity":0.3937007874015748},{"duration":0.05859375,"midi":88,"time":140.69010416666666,"velocity":0.3937007874015748},{"duration":0.17447916666668561,"midi":89,"time":140.69010416666666,"velocity":0.3937007874015748},{"duration":0.17578125,"midi":69,"time":140.71223958333334,"velocity":0.3937007874015748},{"duration":0.2994791666666572,"midi":62,"time":140.71223958333334,"velocity":0.3937007874015748},{"duration":0.05859375,"midi":84,"time":140.72395833333334,"velocity":0.3937007874015748},{"duration":0.05859375,"midi":87,"time":140.72395833333334,"velocity":0.3937007874015748},{"duration":0.17578125,"midi":93,"time":140.73567708333334,"velocity":0.3937007874015748},{"duration":0.17578125,"midi":88,"time":140.73567708333334,"velocity":0.3937007874015748},{"duration":0.17578125,"midi":86,"time":140.74739583333334,"velocity":0.3937007874015748},{"duration":0.17578125,"midi":91,"time":140.77083333333334,"velocity":0.3937007874015748},{"duration":0.05859375,"midi":81,"time":140.78255208333334,"velocity":0.3937007874015748},{"duration":0.17578125,"midi":57,"time":140.875,"velocity":0.3937007874015748},{"duration":0.17578125,"midi":93,"time":140.88802083333334,"velocity":0.3937007874015748},{"duration":0.17578125,"midi":50,"time":140.88802083333334,"velocity":0.3937007874015748},{"duration":0.05859375,"midi":88,"time":140.9453125,"velocity":0.3937007874015748},{"duration":0.17578125,"midi":86,"time":140.96875,"velocity":0.3937007874015748},{"duration":0.061197916666685614,"midi":51,"time":141.02604166666666,"velocity":0.3937007874015748},{"duration":0.05989583333334281,"midi":93,"time":141.0390625,"velocity":0.3937007874015748},{"duration":0.05989583333334281,"midi":77,"time":141.0390625,"velocity":0.3937007874015748},{"duration":0.4244791666666572,"midi":76,"time":141.0625,"velocity":0.3937007874015748},{"duration":0.05859375,"midi":63,"time":141.07552083333334,"velocity":0.3937007874015748},{"duration":0.6744791666666572,"midi":88,"time":141.07552083333334,"velocity":0.3937007874015748},{"duration":0.5494791666666572,"midi":95,"time":141.07552083333334,"velocity":0.3937007874015748},{"duration":0.05859375,"midi":60,"time":141.09765625,"velocity":0.3937007874015748},{"duration":0.05859375,"midi":64,"time":141.09765625,"velocity":0.3937007874015748},{"duration":0.1744791666666572,"midi":65,"time":141.1328125,"velocity":0.3937007874015748},{"duration":0.05859375,"midi":86,"time":141.19140625,"velocity":0.3937007874015748},{"duration":0.05859375,"midi":93,"time":141.19140625,"velocity":0.3937007874015748},{"duration":0.17578125,"midi":93,"time":141.25911458333334,"velocity":0.3937007874015748},{"duration":0.17578125,"midi":74,"time":141.29427083333334,"velocity":0.3937007874015748},{"duration":0.059895833333314386,"midi":69,"time":141.29427083333334,"velocity":0.3937007874015748},{"duration":0.17578125,"midi":65,"time":141.32942708333334,"velocity":0.3937007874015748},{"duration":0.8020833333333144,"midi":50,"time":141.32942708333334,"velocity":0.3937007874015748},{"duration":0.8020833333333144,"midi":57,"time":141.32942708333334,"velocity":0.3937007874015748},{"duration":0.17578125,"midi":76,"time":141.45833333333334,"velocity":0.3937007874015748},{"duration":0.17578125,"midi":65,"time":141.4921875,"velocity":0.3937007874015748},{"duration":0.05989583333334281,"midi":66,"time":141.59765625,"velocity":0.3937007874015748},{"duration":0.05859375,"midi":75,"time":141.609375,"velocity":0.3937007874015748},{"duration":0.05859375,"midi":86,"time":141.6328125,"velocity":0.3937007874015748},{"duration":0.15234375,"midi":76,"time":141.64453125,"velocity":0.3937007874015748},{"duration":0.30078125,"midi":90,"time":141.64453125,"velocity":0.3937007874015748},{"duration":0.30078125,"midi":74,"time":141.65755208333334,"velocity":0.3937007874015748},{"duration":0.05859375,"midi":93,"time":141.66796875,"velocity":0.3937007874015748},{"duration":0.05859375,"midi":86,"time":141.66796875,"velocity":0.3937007874015748},{"duration":0.08203125,"midi":76,"time":141.73697916666666,"velocity":0.3937007874015748},{"duration":0.17578125,"midi":65,"time":141.76041666666666,"velocity":0.3937007874015748},{"duration":0.1536458333333428,"midi":76,"time":141.84244791666666,"velocity":0.3937007874015748},{"duration":0.42578125,"midi":88,"time":141.88932291666666,"velocity":0.3937007874015748},{"duration":0.42578125,"midi":88,"time":141.88932291666666,"velocity":0.3937007874015748},{"duration":0.17578125,"midi":69,"time":141.88932291666666,"velocity":0.3937007874015748},{"duration":0.42578125,"midi":91,"time":141.88932291666666,"velocity":0.3937007874015748},{"duration":0.05989583333334281,"midi":90,"time":141.90104166666666,"velocity":0.3937007874015748},{"duration":0.42578125,"midi":85,"time":141.91276041666666,"velocity":0.3937007874015748},{"duration":0.08333333333334281,"midi":76,"time":141.93619791666666,"velocity":0.3937007874015748},{"duration":0.05859375,"midi":76,"time":141.99479166666666,"velocity":0.3937007874015748},{"duration":0.059895833333314386,"midi":60,"time":142.06380208333334,"velocity":0.3937007874015748},{"duration":0.059895833333314386,"midi":68,"time":142.06380208333334,"velocity":0.3937007874015748},{"duration":0.059895833333314386,"midi":53,"time":142.06380208333334,"velocity":0.3937007874015748},{"duration":0.059895833333314386,"midi":63,"time":142.08723958333334,"velocity":0.3937007874015748},{"duration":0.059895833333314386,"midi":44,"time":142.08723958333334,"velocity":0.3937007874015748},{"duration":0.05859375,"midi":67,"time":142.09895833333334,"velocity":0.3937007874015748},{"duration":0.05859375,"midi":70,"time":142.11067708333334,"velocity":0.3937007874015748},{"duration":0.05859375,"midi":52,"time":142.12369791666666,"velocity":0.3937007874015748},{"duration":0.05859375,"midi":41,"time":142.12369791666666,"velocity":0.3937007874015748},{"duration":0.05859375,"midi":40,"time":142.14583333333334,"velocity":0.3937007874015748},{"duration":0.17578125,"midi":69,"time":142.15755208333334,"velocity":0.3937007874015748},{"duration":0.2994791666666572,"midi":50,"time":142.15755208333334,"velocity":0.3937007874015748},{"duration":0.05859375,"midi":57,"time":142.20442708333334,"velocity":0.3937007874015748},{"duration":0.05859375,"midi":39,"time":142.21484375,"velocity":0.3937007874015748},{"duration":0.1744791666666572,"midi":60,"time":142.2265625,"velocity":0.3937007874015748},{"duration":0.4231770833333428,"midi":65,"time":142.2734375,"velocity":0.3937007874015748},{"duration":0.4231770833333428,"midi":77,"time":142.2734375,"velocity":0.3937007874015748},{"duration":0.1744791666666572,"midi":81,"time":142.2734375,"velocity":0.3937007874015748},{"duration":0.17578125,"midi":89,"time":142.28385416666666,"velocity":0.3937007874015748},{"duration":0.17447916666668561,"midi":93,"time":142.29557291666666,"velocity":0.3937007874015748},{"duration":0.17447916666668561,"midi":87,"time":142.29557291666666,"velocity":0.3937007874015748},{"duration":0.05989583333334281,"midi":41,"time":142.30859375,"velocity":0.3937007874015748},{"duration":0.05859375,"midi":84,"time":142.3203125,"velocity":0.3937007874015748},{"duration":0.1731770833333428,"midi":91,"time":142.33203125,"velocity":0.3937007874015748},{"duration":0.05859375,"midi":38,"time":142.37760416666666,"velocity":0.3937007874015748},{"duration":0.05859375,"midi":88,"time":142.40104166666666,"velocity":0.3937007874015748},{"duration":0.05859375,"midi":42,"time":142.42447916666666,"velocity":0.3937007874015748},{"duration":0.059895833333314386,"midi":57,"time":142.47005208333334,"velocity":0.3937007874015748},{"duration":0.05859375,"midi":88,"time":142.48177083333334,"velocity":0.3937007874015748},{"duration":0.05859375,"midi":93,"time":142.48177083333334,"velocity":0.3937007874015748},{"duration":0.05989583333334281,"midi":84,"time":142.4921875,"velocity":0.3937007874015748},{"duration":0.1744791666666572,"midi":57,"time":142.50520833333334,"velocity":0.3937007874015748},{"duration":0.1744791666666572,"midi":89,"time":142.50520833333334,"velocity":0.3937007874015748},{"duration":0.059895833333314386,"midi":88,"time":142.54036458333334,"velocity":0.3937007874015748},{"duration":0.05859375,"midi":81,"time":142.57552083333334,"velocity":0.3937007874015748},{"duration":0.2981770833333428,"midi":65,"time":142.609375,"velocity":0.3937007874015748},{"duration":0.05859375,"midi":93,"time":142.6328125,"velocity":0.3937007874015748},{"duration":0.1731770833333428,"midi":74,"time":142.69140625,"velocity":0.3937007874015748},{"duration":0.05729166666665719,"midi":93,"time":142.69140625,"velocity":0.3937007874015748},{"duration":0.05859375,"midi":50,"time":142.71223958333334,"velocity":0.3937007874015748},{"duration":0.05989583333334281,"midi":53,"time":142.78125,"velocity":0.3937007874015748},{"duration":0.1731770833333428,"midi":93,"time":142.79296875,"velocity":0.3937007874015748},{"duration":0.05989583333334281,"midi":48,"time":142.828125,"velocity":0.3937007874015748},{"duration":0.05989583333334281,"midi":39,"time":142.8515625,"velocity":0.3937007874015748},{"duration":0.171875,"midi":94,"time":142.86328125,"velocity":0.3937007874015748},{"duration":0.171875,"midi":70,"time":142.86328125,"velocity":0.3937007874015748},{"duration":0.05859375,"midi":64,"time":142.86328125,"velocity":0.3937007874015748},{"duration":0.05859375,"midi":89,"time":142.86328125,"velocity":0.3937007874015748},{"duration":0.171875,"midi":86,"time":142.86328125,"velocity":0.3937007874015748},{"duration":0.05729166666665719,"midi":37,"time":142.875,"velocity":0.3937007874015748},{"duration":0.05729166666665719,"midi":89,"time":142.875,"velocity":0.3937007874015748},{"duration":0.171875,"midi":63,"time":142.88802083333334,"velocity":0.3937007874015748},{"duration":0.055989583333314386,"midi":60,"time":142.88802083333334,"velocity":0.3937007874015748},{"duration":0.05598958333334281,"midi":43,"time":142.91015625,"velocity":0.3937007874015748},{"duration":0.05729166666665719,"midi":29,"time":142.921875,"velocity":0.3937007874015748},{"duration":0.057291666666685614,"midi":71,"time":142.93229166666666,"velocity":0.3937007874015748},{"duration":0.057291666666685614,"midi":87,"time":142.93229166666666,"velocity":0.3937007874015748},{"duration":0.17317708333331439,"midi":91,"time":142.94270833333334,"velocity":0.3937007874015748},{"duration":0.6744791666666572,"midi":43,"time":142.94270833333334,"velocity":0.3937007874015748},{"duration":0.2981770833333144,"midi":91,"time":142.94270833333334,"velocity":0.3937007874015748},{"duration":0.4244791666666572,"midi":84,"time":142.95442708333334,"velocity":0.3937007874015748},{"duration":0.4244791666666572,"midi":72,"time":142.95442708333334,"velocity":0.3937007874015748},{"duration":0.05859375,"midi":50,"time":142.96614583333334,"velocity":0.3937007874015748},{"duration":0.5481770833333144,"midi":65,"time":142.96614583333334,"velocity":0.3937007874015748},{"duration":0.4231770833333144,"midi":88,"time":142.96614583333334,"velocity":0.3937007874015748},{"duration":0.1731770833333428,"midi":89,"time":142.98828125,"velocity":0.3937007874015748},{"duration":0.05989583333334281,"midi":59,"time":143,"velocity":0.3937007874015748},{"duration":0.05859375,"midi":62,"time":143.046875,"velocity":0.3937007874015748},{"duration":0.05859375,"midi":82,"time":143.046875,"velocity":0.3937007874015748},{"duration":0.05859375,"midi":50,"time":143.0703125,"velocity":0.3937007874015748},{"duration":0.05859375,"midi":59,"time":143.09244791666666,"velocity":0.3937007874015748},{"duration":0.057291666666685614,"midi":69,"time":143.10416666666666,"velocity":0.3937007874015748},{"duration":0.17578125,"midi":81,"time":143.12760416666666,"velocity":0.3937007874015748},{"duration":0.05859375,"midi":59,"time":143.13802083333334,"velocity":0.3937007874015748},{"duration":0.05859375,"midi":62,"time":143.15104166666666,"velocity":0.3937007874015748},{"duration":0.1770833333333428,"midi":50,"time":143.171875,"velocity":0.3937007874015748},{"duration":0.059895833333314386,"midi":31,"time":143.18489583333334,"velocity":0.3937007874015748},{"duration":0.06119791666665719,"midi":70,"time":143.25390625,"velocity":0.3937007874015748},{"duration":0.4270833333333144,"midi":89,"time":143.26692708333334,"velocity":0.3937007874015748},{"duration":0.1744791666666572,"midi":93,"time":143.26692708333334,"velocity":0.3937007874015748},{"duration":0.30078125,"midi":94,"time":143.27864583333334,"velocity":0.3937007874015748},{"duration":0.059895833333314386,"midi":31,"time":143.27864583333334,"velocity":0.3937007874015748},{"duration":0.059895833333314386,"midi":86,"time":143.27864583333334,"velocity":0.3937007874015748},{"duration":0.42578125,"midi":89,"time":143.27864583333334,"velocity":0.3937007874015748},{"duration":0.05859375,"midi":59,"time":143.29036458333334,"velocity":0.3937007874015748},{"duration":0.05859375,"midi":74,"time":143.30338541666666,"velocity":0.3937007874015748},{"duration":0.17317708333331439,"midi":86,"time":143.32552083333334,"velocity":0.3937007874015748},{"duration":0.05859375,"midi":31,"time":143.32552083333334,"velocity":0.3937007874015748},{"duration":0.057291666666685614,"midi":91,"time":143.33854166666666,"velocity":0.3937007874015748},{"duration":0.1731770833333428,"midi":50,"time":143.33854166666666,"velocity":0.3937007874015748},{"duration":0.05859375,"midi":70,"time":143.34895833333334,"velocity":0.3937007874015748},{"duration":0.05859375,"midi":91,"time":143.37109375,"velocity":0.3937007874015748},{"duration":0.05729166666665719,"midi":59,"time":143.38411458333334,"velocity":0.3937007874015748},{"duration":0.17578125,"midi":81,"time":143.4296875,"velocity":0.3937007874015748},{"duration":0.1770833333333428,"midi":50,"time":143.44010416666666,"velocity":0.3937007874015748},{"duration":0.1770833333333428,"midi":88,"time":143.44010416666666,"velocity":0.3937007874015748},{"duration":0.05989583333334281,"midi":59,"time":143.45182291666666,"velocity":0.3937007874015748},{"duration":0.05989583333334281,"midi":70,"time":143.45182291666666,"velocity":0.3937007874015748},{"duration":0.4231770833333428,"midi":77,"time":143.51041666666666,"velocity":0.3937007874015748},{"duration":0.061197916666685614,"midi":59,"time":143.53385416666666,"velocity":0.3937007874015748},{"duration":0.1770833333333428,"midi":43,"time":143.53385416666666,"velocity":0.3937007874015748},{"duration":0.2994791666666856,"midi":93,"time":143.54557291666666,"velocity":0.3937007874015748},{"duration":0.17578125,"midi":87,"time":143.54557291666666,"velocity":0.3937007874015748},{"duration":0.17447916666668561,"midi":65,"time":143.55729166666666,"velocity":0.3937007874015748},{"duration":0.05989583333334281,"midi":84,"time":143.55729166666666,"velocity":0.3937007874015748},{"duration":0.05989583333334281,"midi":31,"time":143.5703125,"velocity":0.3937007874015748},{"duration":0.05989583333334281,"midi":74,"time":143.63932291666666,"velocity":0.3937007874015748},{"duration":0.05989583333334281,"midi":91,"time":143.63932291666666,"velocity":0.3937007874015748},{"duration":0.05859375,"midi":51,"time":143.65234375,"velocity":0.3937007874015748},{"duration":0.05859375,"midi":60,"time":143.65234375,"velocity":0.3937007874015748},{"duration":0.05859375,"midi":68,"time":143.65234375,"velocity":0.3937007874015748},{"duration":0.05729166666665719,"midi":50,"time":143.6640625,"velocity":0.3937007874015748},{"duration":0.05729166666665719,"midi":84,"time":143.6640625,"velocity":0.3937007874015748},{"duration":0.5455729166666572,"midi":65,"time":143.6875,"velocity":0.3937007874015748},{"duration":0.296875,"midi":81,"time":143.70963541666666,"velocity":0.3937007874015748},{"duration":0.057291666666685614,"midi":31,"time":143.70963541666666,"velocity":0.3937007874015748},{"duration":0.05859375,"midi":89,"time":143.73177083333334,"velocity":0.3937007874015748},{"duration":0.05859375,"midi":31,"time":143.76692708333334,"velocity":0.3937007874015748},{"duration":0.1731770833333428,"midi":50,"time":143.77734375,"velocity":0.3937007874015748},{"duration":0.05859375,"midi":58,"time":143.7890625,"velocity":0.3937007874015748},{"duration":0.05859375,"midi":51,"time":143.84765625,"velocity":0.3937007874015748},{"duration":0.05859375,"midi":31,"time":143.85807291666666,"velocity":0.3937007874015748},{"duration":0.4244791666666856,"midi":74,"time":143.85807291666666,"velocity":0.3937007874015748},{"duration":0.05859375,"midi":53,"time":143.86979166666666,"velocity":0.3937007874015748},{"duration":0.05859375,"midi":43,"time":143.86979166666666,"velocity":0.3937007874015748},{"duration":0.05859375,"midi":58,"time":143.86979166666666,"velocity":0.3937007874015748},{"duration":0.17447916666668561,"midi":62,"time":143.89322916666666,"velocity":0.3937007874015748},{"duration":0.1171875,"midi":90,"time":143.89322916666666,"velocity":0.3937007874015748},{"duration":0.17447916666668561,"midi":88,"time":143.89322916666666,"velocity":0.3937007874015748},{"duration":0.05859375,"midi":53,"time":143.91666666666666,"velocity":0.3937007874015748},{"duration":0.1171875,"midi":90,"time":143.95052083333334,"velocity":0.3937007874015748},{"duration":0.059895833333314386,"midi":43,"time":143.96223958333334,"velocity":0.3937007874015748},{"duration":0.05859375,"midi":81,"time":144.04427083333334,"velocity":0.3937007874015748},{"duration":0.05989583333334281,"midi":64,"time":144.24088541666666,"velocity":0.3937007874015748},{"duration":0.05989583333334281,"midi":77,"time":144.24088541666666,"velocity":0.3937007874015748},{"duration":0.05989583333334281,"midi":48,"time":144.24088541666666,"velocity":0.3937007874015748},{"duration":0.05989583333334281,"midi":47,"time":144.26432291666666,"velocity":0.3937007874015748},{"duration":0.2994791666666856,"midi":65,"time":144.27604166666666,"velocity":0.3937007874015748},{"duration":0.05859375,"midi":86,"time":144.28776041666666,"velocity":0.3937007874015748},{"duration":0.05859375,"midi":70,"time":144.28776041666666,"velocity":0.3937007874015748},{"duration":0.05859375,"midi":94,"time":144.30078125,"velocity":0.3937007874015748},{"duration":0.05859375,"midi":60,"time":144.32291666666666,"velocity":0.3937007874015748},{"duration":0.05859375,"midi":90,"time":144.32291666666666,"velocity":0.3937007874015748},{"duration":0.1731770833333428,"midi":90,"time":144.32291666666666,"velocity":0.3937007874015748},{"duration":0.05859375,"midi":95,"time":144.33463541666666,"velocity":0.3937007874015748},{"duration":0.05859375,"midi":47,"time":144.33463541666666,"velocity":0.3937007874015748},{"duration":0.05859375,"midi":71,"time":144.33463541666666,"velocity":0.3937007874015748},{"duration":0.057291666666685614,"midi":87,"time":144.34635416666666,"velocity":0.3937007874015748},{"duration":0.057291666666685614,"midi":81,"time":144.34635416666666,"velocity":0.3937007874015748},{"duration":0.05729166666665719,"midi":93,"time":144.36848958333334,"velocity":0.3937007874015748},{"duration":0.057291666666685614,"midi":53,"time":144.38151041666666,"velocity":0.3937007874015748},{"duration":0.1744791666666572,"midi":91,"time":144.39192708333334,"velocity":0.3937007874015748},{"duration":0.2916666666666572,"midi":91,"time":144.39192708333334,"velocity":0.3937007874015748},{"duration":0.2994791666666572,"midi":72,"time":144.39192708333334,"velocity":0.3937007874015748},{"duration":0.4244791666666572,"midi":84,"time":144.39192708333334,"velocity":0.3937007874015748},{"duration":0.42578125,"midi":88,"time":144.40234375,"velocity":0.3937007874015748},{"duration":0.05989583333334281,"midi":60,"time":144.42578125,"velocity":0.3937007874015748},{"duration":0.05989583333334281,"midi":70,"time":144.4609375,"velocity":0.3937007874015748},{"duration":0.17578125,"midi":50,"time":144.47265625,"velocity":0.3937007874015748},{"duration":0.17578125,"midi":43,"time":144.484375,"velocity":0.3937007874015748},{"duration":0.17578125,"midi":74,"time":144.484375,"velocity":0.3937007874015748},{"duration":0.05989583333334281,"midi":30,"time":144.49609375,"velocity":0.3937007874015748},{"duration":0.05989583333334281,"midi":59,"time":144.49609375,"velocity":0.3937007874015748},{"duration":0.05859375,"midi":71,"time":144.54296875,"velocity":0.3937007874015748},{"duration":0.05989583333334281,"midi":65,"time":144.60026041666666,"velocity":0.3937007874015748},{"duration":0.05989583333334281,"midi":64,"time":144.62369791666666,"velocity":0.3937007874015748},{"duration":0.05989583333334281,"midi":60,"time":144.62369791666666,"velocity":0.3937007874015748},{"duration":0.06770833333334281,"midi":91,"time":144.62369791666666,"velocity":0.3937007874015748},{"duration":0.05989583333334281,"midi":44,"time":144.62369791666666,"velocity":0.3937007874015748},{"duration":0.4296875,"midi":67,"time":144.63541666666666,"velocity":0.3937007874015748},{"duration":0.09244791666665719,"midi":91,"time":144.6484375,"velocity":0.3937007874015748},{"duration":0.05859375,"midi":81,"time":144.6484375,"velocity":0.3937007874015748},{"duration":0.05859375,"midi":63,"time":144.6484375,"velocity":0.3937007874015748},{"duration":0.4296875,"midi":55,"time":144.6484375,"velocity":0.3937007874015748},{"duration":0.1744791666666572,"midi":72,"time":144.66015625,"velocity":0.3937007874015748},{"duration":0.3020833333333428,"midi":43,"time":144.66015625,"velocity":0.3937007874015748},{"duration":0.3033854166666856,"midi":50,"time":144.67057291666666,"velocity":0.3937007874015748},{"duration":0.05859375,"midi":93,"time":144.67057291666666,"velocity":0.3937007874015748},{"duration":0.1393229166666572,"midi":91,"time":144.68359375,"velocity":0.3937007874015748},{"duration":0.05729166666665719,"midi":31,"time":144.68359375,"velocity":0.3937007874015748},{"duration":0.1770833333333428,"midi":62,"time":144.69401041666666,"velocity":0.3937007874015748},{"duration":0.1783854166666572,"midi":31,"time":144.73958333333334,"velocity":0.3937007874015748},{"duration":0.3059895833333144,"midi":89,"time":144.77473958333334,"velocity":0.3937007874015748},{"duration":0.1783854166666572,"midi":60,"time":144.82161458333334,"velocity":0.3937007874015748},{"duration":0.1783854166666572,"midi":70,"time":144.82161458333334,"velocity":0.3937007874015748},{"duration":0.061197916666685614,"midi":64,"time":144.84635416666666,"velocity":0.3937007874015748},{"duration":0.1770833333333428,"midi":84,"time":144.85807291666666,"velocity":0.3937007874015748},{"duration":0.05989583333334281,"midi":63,"time":144.86979166666666,"velocity":0.3937007874015748},{"duration":0.05989583333334281,"midi":31,"time":144.86979166666666,"velocity":0.3937007874015748},{"duration":0.1770833333333428,"midi":94,"time":144.8828125,"velocity":0.3937007874015748},{"duration":0.05989583333334281,"midi":44,"time":144.91796875,"velocity":0.3937007874015748},{"duration":0.05989583333334281,"midi":69,"time":144.91796875,"velocity":0.3937007874015748},{"duration":0.05989583333334281,"midi":43,"time":144.94010416666666,"velocity":0.3937007874015748},{"duration":0.05989583333334281,"midi":65,"time":144.953125,"velocity":0.3937007874015748},{"duration":0.05989583333334281,"midi":42,"time":144.96484375,"velocity":0.3937007874015748},{"duration":0.06119791666665719,"midi":81,"time":145.03515625,"velocity":0.3937007874015748},{"duration":0.4205729166666572,"midi":77,"time":145.03515625,"velocity":0.3937007874015748},{"duration":0.1770833333333428,"midi":65,"time":145.03515625,"velocity":0.3937007874015748},{"duration":0.1770833333333428,"midi":93,"time":145.046875,"velocity":0.3937007874015748},{"duration":0.05989583333334281,"midi":84,"time":145.05859375,"velocity":0.3937007874015748},{"duration":0.1770833333333428,"midi":70,"time":145.05859375,"velocity":0.3937007874015748},{"duration":0.05859375,"midi":47,"time":145.08333333333334,"velocity":0.3937007874015748},{"duration":0.05859375,"midi":48,"time":145.10546875,"velocity":0.3937007874015748},{"duration":0.061197916666685614,"midi":45,"time":145.17447916666666,"velocity":0.3937007874015748},{"duration":0.1705729166666572,"midi":89,"time":145.1875,"velocity":0.3937007874015748},{"duration":0.05989583333334281,"midi":70,"time":145.19921875,"velocity":0.3937007874015748},{"duration":0.05859375,"midi":56,"time":145.2109375,"velocity":0.3937007874015748},{"duration":0.05729166666665719,"midi":71,"time":145.22265625,"velocity":0.3937007874015748},{"duration":0.055989583333314386,"midi":88,"time":145.23567708333334,"velocity":0.3937007874015748},{"duration":0.055989583333314386,"midi":73,"time":145.23567708333334,"velocity":0.3937007874015748},{"duration":0.055989583333314386,"midi":93,"time":145.23567708333334,"velocity":0.3937007874015748},{"duration":0.16927083333331439,"midi":65,"time":145.23567708333334,"velocity":0.3937007874015748},{"duration":0.055989583333314386,"midi":81,"time":145.23567708333334,"velocity":0.3937007874015748},{"duration":0.055989583333314386,"midi":85,"time":145.23567708333334,"velocity":0.3937007874015748},{"duration":0.05729166666665719,"midi":60,"time":145.24609375,"velocity":0.3937007874015748},{"duration":0.16796875,"midi":74,"time":145.2578125,"velocity":0.3937007874015748},{"duration":0.05598958333334281,"midi":41,"time":145.2578125,"velocity":0.3937007874015748},{"duration":0.05598958333334281,"midi":84,"time":145.26953125,"velocity":0.3937007874015748},{"duration":0.05598958333334281,"midi":62,"time":145.27994791666666,"velocity":0.3937007874015748},{"duration":0.055989583333314386,"midi":52,"time":145.29036458333334,"velocity":0.3937007874015748},{"duration":0.055989583333314386,"midi":57,"time":145.31380208333334,"velocity":0.3937007874015748},{"duration":0.05729166666665719,"midi":62,"time":145.32421875,"velocity":0.3937007874015748},{"duration":0.05729166666665719,"midi":75,"time":145.32421875,"velocity":0.3937007874015748},{"duration":0.05729166666665719,"midi":82,"time":145.32421875,"velocity":0.3937007874015748},{"duration":0.171875,"midi":65,"time":145.3359375,"velocity":0.3937007874015748},{"duration":0.05859375,"midi":46,"time":145.34635416666666,"velocity":0.3937007874015748},{"duration":0.05859375,"midi":52,"time":145.34635416666666,"velocity":0.3937007874015748},{"duration":0.05859375,"midi":63,"time":145.35677083333334,"velocity":0.3937007874015748},{"duration":0.05859375,"midi":60,"time":145.39192708333334,"velocity":0.3937007874015748},{"duration":0.05859375,"midi":44,"time":145.41536458333334,"velocity":0.3937007874015748},{"duration":0.1744791666666572,"midi":69,"time":145.42578125,"velocity":0.3937007874015748},{"duration":0.05859375,"midi":52,"time":145.42578125,"velocity":0.3937007874015748},{"duration":0.1744791666666572,"midi":81,"time":145.4375,"velocity":0.3937007874015748},{"duration":0.1744791666666572,"midi":57,"time":145.4375,"velocity":0.3937007874015748},{"duration":0.05859375,"midi":64,"time":145.4375,"velocity":0.3937007874015748},{"duration":0.1744791666666572,"midi":76,"time":145.4609375,"velocity":0.3937007874015748},{"duration":0.1744791666666572,"midi":64,"time":145.47265625,"velocity":0.3937007874015748},{"duration":0.05729166666665719,"midi":73,"time":145.47265625,"velocity":0.3937007874015748},{"duration":0.05859375,"midi":44,"time":145.48307291666666,"velocity":0.3937007874015748},{"duration":0.05859375,"midi":83,"time":145.48307291666666,"velocity":0.3937007874015748},{"duration":0.05989583333334281,"midi":45,"time":145.52994791666666,"velocity":0.3937007874015748},{"duration":0.1744791666666572,"midi":75,"time":145.55208333333334,"velocity":0.3937007874015748},{"duration":0.05989583333334281,"midi":63,"time":145.56510416666666,"velocity":0.3937007874015748},{"duration":0.2981770833333428,"midi":77,"time":145.57682291666666,"velocity":0.3937007874015748},{"duration":0.05859375,"midi":64,"time":145.58854166666666,"velocity":0.3937007874015748},{"duration":0.05859375,"midi":45,"time":145.58854166666666,"velocity":0.3937007874015748},{"duration":0.05859375,"midi":84,"time":145.59895833333334,"velocity":0.3937007874015748},{"duration":0.1731770833333428,"midi":72,"time":145.61197916666666,"velocity":0.3937007874015748},{"duration":0.1731770833333428,"midi":65,"time":145.61197916666666,"velocity":0.3937007874015748},{"duration":0.05859375,"midi":84,"time":145.61197916666666,"velocity":0.3937007874015748},{"duration":0.057291666666685614,"midi":56,"time":145.62369791666666,"velocity":0.3937007874015748},{"duration":0.1731770833333428,"midi":86,"time":145.62369791666666,"velocity":0.3937007874015748},{"duration":0.1744791666666572,"midi":74,"time":145.63411458333334,"velocity":0.3937007874015748},{"duration":0.1731770833333428,"midi":45,"time":145.64713541666666,"velocity":0.3937007874015748},{"duration":0.17317708333331439,"midi":93,"time":145.65755208333334,"velocity":0.3937007874015748},{"duration":0.17317708333331439,"midi":89,"time":145.65755208333334,"velocity":0.3937007874015748},{"duration":0.1744791666666572,"midi":70,"time":145.68098958333334,"velocity":0.3937007874015748},{"duration":0.05989583333334281,"midi":81,"time":145.74869791666666,"velocity":0.3937007874015748},{"duration":0.05859375,"midi":45,"time":145.76171875,"velocity":0.3937007874015748},{"duration":0.17578125,"midi":45,"time":145.80859375,"velocity":0.3937007874015748},{"duration":0.17578125,"midi":74,"time":145.83072916666666,"velocity":0.3937007874015748},{"duration":0.17578125,"midi":81,"time":145.84244791666666,"velocity":0.3937007874015748},{"duration":0.17578125,"midi":62,"time":145.84244791666666,"velocity":0.3937007874015748},{"duration":0.17578125,"midi":52,"time":145.88932291666666,"velocity":0.3937007874015748},{"duration":0.17578125,"midi":70,"time":145.88932291666666,"velocity":0.3937007874015748},{"duration":0.17447916666668561,"midi":45,"time":145.91276041666666,"velocity":0.3937007874015748},{"duration":0.05989583333334281,"midi":33,"time":145.92447916666666,"velocity":0.3937007874015748},{"duration":0.05989583333334281,"midi":82,"time":145.92447916666666,"velocity":0.3937007874015748},{"duration":0.05859375,"midi":63,"time":145.93619791666666,"velocity":0.3937007874015748},{"duration":0.2955729166666856,"midi":83,"time":145.95963541666666,"velocity":0.3937007874015748},{"duration":0.1731770833333428,"midi":88,"time":145.95963541666666,"velocity":0.3937007874015748},{"duration":0.05859375,"midi":64,"time":145.97135416666666,"velocity":0.3937007874015748},{"duration":0.2955729166666856,"midi":76,"time":145.97135416666666,"velocity":0.3937007874015748},{"duration":0.171875,"midi":92,"time":145.99479166666666,"velocity":0.3937007874015748},{"duration":0.059895833333314386,"midi":60,"time":146.00520833333334,"velocity":0.3937007874015748},{"duration":0.059895833333314386,"midi":63,"time":146.00520833333334,"velocity":0.3937007874015748},{"duration":0.05859375,"midi":52,"time":146.01692708333334,"velocity":0.3937007874015748},{"duration":0.05859375,"midi":87,"time":146.01692708333334,"velocity":0.3937007874015748},{"duration":0.171875,"midi":84,"time":146.01692708333334,"velocity":0.3937007874015748},{"duration":0.05859375,"midi":80,"time":146.01692708333334,"velocity":0.3937007874015748},{"duration":0.05859375,"midi":68,"time":146.01692708333334,"velocity":0.3937007874015748},{"duration":0.057291666666685614,"midi":64,"time":146.02994791666666,"velocity":0.3937007874015748},{"duration":0.057291666666685614,"midi":81,"time":146.02994791666666,"velocity":0.3937007874015748},{"duration":0.057291666666685614,"midi":38,"time":146.02994791666666,"velocity":0.3937007874015748},{"duration":0.057291666666685614,"midi":89,"time":146.02994791666666,"velocity":0.3937007874015748},{"duration":0.057291666666685614,"midi":87,"time":146.02994791666666,"velocity":0.3937007874015748},{"duration":0.05859375,"midi":90,"time":146.04036458333334,"velocity":0.3937007874015748},{"duration":0.171875,"midi":53,"time":146.04036458333334,"velocity":0.3937007874015748},{"duration":0.05729166666665719,"midi":45,"time":146.05208333333334,"velocity":0.3937007874015748},{"duration":0.17057291666668561,"midi":65,"time":146.06510416666666,"velocity":0.3937007874015748},{"duration":0.8020833333333144,"midi":46,"time":146.07552083333334,"velocity":0.3937007874015748},{"duration":0.05729166666665719,"midi":93,"time":146.07552083333334,"velocity":0.3937007874015748},{"duration":0.05729166666665719,"midi":88,"time":146.07552083333334,"velocity":0.3937007874015748},{"duration":0.1705729166666572,"midi":69,"time":146.07552083333334,"velocity":0.3937007874015748},{"duration":0.05729166666665719,"midi":81,"time":146.0859375,"velocity":0.3937007874015748},{"duration":0.2981770833333428,"midi":94,"time":146.109375,"velocity":0.3937007874015748},{"duration":0.5520833333333428,"midi":89,"time":146.109375,"velocity":0.3937007874015748},{"duration":0.05729166666665719,"midi":85,"time":146.109375,"velocity":0.3937007874015748},{"duration":0.057291666666685614,"midi":34,"time":146.13151041666666,"velocity":0.3937007874015748},{"duration":0.1731770833333428,"midi":90,"time":146.13151041666666,"velocity":0.3937007874015748},{"duration":0.1731770833333428,"midi":92,"time":146.13151041666666,"velocity":0.3937007874015748},{"duration":0.057291666666685614,"midi":64,"time":146.13151041666666,"velocity":0.3937007874015748},{"duration":0.30078125,"midi":86,"time":146.14322916666666,"velocity":0.3937007874015748},{"duration":0.05859375,"midi":33,"time":146.15364583333334,"velocity":0.3937007874015748},{"duration":0.05859375,"midi":70,"time":146.16536458333334,"velocity":0.3937007874015748},{"duration":0.05859375,"midi":75,"time":146.17708333333334,"velocity":0.3937007874015748},{"duration":0.17578125,"midi":34,"time":146.17708333333334,"velocity":0.3937007874015748},{"duration":0.6809895833333144,"midi":53,"time":146.18880208333334,"velocity":0.3937007874015748},{"duration":0.17578125,"midi":62,"time":146.19921875,"velocity":0.3937007874015748},{"duration":0.1770833333333428,"midi":77,"time":146.24479166666666,"velocity":0.3937007874015748},{"duration":0.1770833333333428,"midi":34,"time":146.2578125,"velocity":0.3937007874015748},{"duration":0.1770833333333428,"midi":70,"time":146.28125,"velocity":0.3937007874015748},{"duration":0.05989583333334281,"midi":90,"time":146.3046875,"velocity":0.3937007874015748},{"duration":0.5559895833333428,"midi":81,"time":146.3046875,"velocity":0.3937007874015748},{"duration":0.4283854166666572,"midi":65,"time":146.31640625,"velocity":0.3937007874015748},{"duration":0.1783854166666572,"midi":34,"time":146.33984375,"velocity":0.3937007874015748},{"duration":0.4296875,"midi":91,"time":146.41015625,"velocity":0.3937007874015748},{"duration":0.1783854166666572,"midi":85,"time":146.421875,"velocity":0.3937007874015748},{"duration":0.3033854166666572,"midi":88,"time":146.421875,"velocity":0.3937007874015748},{"duration":0.3033854166666572,"midi":88,"time":146.421875,"velocity":0.3937007874015748},{"duration":0.06119791666665719,"midi":70,"time":146.43359375,"velocity":0.3937007874015748},{"duration":0.1770833333333428,"midi":94,"time":146.43359375,"velocity":0.3937007874015748},{"duration":0.1770833333333428,"midi":74,"time":146.43359375,"velocity":0.3937007874015748},{"duration":0.17578125,"midi":69,"time":146.47005208333334,"velocity":0.3937007874015748},{"duration":0.05859375,"midi":61,"time":146.48177083333334,"velocity":0.3937007874015748},{"duration":0.05859375,"midi":34,"time":146.49479166666666,"velocity":0.3937007874015748},{"duration":0.5533854166666572,"midi":77,"time":146.50520833333334,"velocity":0.3937007874015748},{"duration":0.059895833333314386,"midi":61,"time":146.54036458333334,"velocity":0.3937007874015748},{"duration":0.17578125,"midi":74,"time":146.58723958333334,"velocity":0.3937007874015748},{"duration":0.17578125,"midi":62,"time":146.58723958333334,"velocity":0.3937007874015748},{"duration":0.17578125,"midi":85,"time":146.59895833333334,"velocity":0.3937007874015748},{"duration":0.17578125,"midi":89,"time":146.65755208333334,"velocity":0.3937007874015748},{"duration":0.17578125,"midi":69,"time":146.65755208333334,"velocity":0.3937007874015748},{"duration":0.059895833333314386,"midi":34,"time":146.65755208333334,"velocity":0.3937007874015748},{"duration":0.17578125,"midi":87,"time":146.66927083333334,"velocity":0.3937007874015748},{"duration":0.17578125,"midi":84,"time":146.68229166666666,"velocity":0.3937007874015748},{"duration":0.1744791666666572,"midi":34,"time":146.71614583333334,"velocity":0.3937007874015748},{"duration":0.1744791666666572,"midi":65,"time":146.71614583333334,"velocity":0.3937007874015748},{"duration":0.05989583333334281,"midi":61,"time":146.75,"velocity":0.3937007874015748},{"duration":0.1744791666666572,"midi":91,"time":146.79817708333334,"velocity":0.3937007874015748},{"duration":0.059895833333314386,"midi":69,"time":146.79817708333334,"velocity":0.3937007874015748},{"duration":0.1744791666666572,"midi":74,"time":146.79817708333334,"velocity":0.3937007874015748},{"duration":0.059895833333314386,"midi":50,"time":146.80989583333334,"velocity":0.3937007874015748},{"duration":0.059895833333314386,"midi":76,"time":146.80989583333334,"velocity":0.3937007874015748},{"duration":0.059895833333314386,"midi":93,"time":146.80989583333334,"velocity":0.3937007874015748},{"duration":0.05989583333334281,"midi":68,"time":146.8203125,"velocity":0.3937007874015748},{"duration":0.6744791666666572,"midi":65,"time":146.83333333333334,"velocity":0.3937007874015748},{"duration":0.05859375,"midi":60,"time":146.83333333333334,"velocity":0.3937007874015748},{"duration":0.30078125,"midi":81,"time":146.83333333333334,"velocity":0.3937007874015748},{"duration":0.1744791666666572,"midi":73,"time":146.84505208333334,"velocity":0.3937007874015748},{"duration":0.05729166666665719,"midi":84,"time":146.85677083333334,"velocity":0.3937007874015748},{"duration":0.1744791666666572,"midi":61,"time":146.85677083333334,"velocity":0.3937007874015748},{"duration":0.17578125,"midi":34,"time":146.88020833333334,"velocity":0.3937007874015748},{"duration":0.17578125,"midi":80,"time":146.88020833333334,"velocity":0.3937007874015748},{"duration":0.17578125,"midi":88,"time":146.88020833333334,"velocity":0.3937007874015748},{"duration":0.17578125,"midi":46,"time":146.88020833333334,"velocity":0.3937007874015748},{"duration":0.17578125,"midi":53,"time":146.88020833333334,"velocity":0.3937007874015748},{"duration":0.05989583333334281,"midi":91,"time":146.92447916666666,"velocity":0.3937007874015748},{"duration":0.1770833333333428,"midi":34,"time":146.95963541666666,"velocity":0.3937007874015748},{"duration":0.061197916666685614,"midi":74,"time":146.99479166666666,"velocity":0.3937007874015748},{"duration":0.17578125,"midi":62,"time":147.00651041666666,"velocity":0.3937007874015748},{"duration":0.17578125,"midi":86,"time":147.00651041666666,"velocity":0.3937007874015748},{"duration":0.17447916666668561,"midi":90,"time":147.01822916666666,"velocity":0.3937007874015748},{"duration":0.05989583333334281,"midi":88,"time":147.01822916666666,"velocity":0.3937007874015748},{"duration":0.1744791666666572,"midi":84,"time":147.03125,"velocity":0.3937007874015748},{"duration":0.05859375,"midi":82,"time":147.04296875,"velocity":0.3937007874015748},{"duration":0.1744791666666572,"midi":69,"time":147.04296875,"velocity":0.3937007874015748},{"duration":0.05859375,"midi":93,"time":147.04296875,"velocity":0.3937007874015748},{"duration":0.05859375,"midi":75,"time":147.04296875,"velocity":0.3937007874015748},{"duration":0.1731770833333428,"midi":34,"time":147.0546875,"velocity":0.3937007874015748},{"duration":0.05859375,"midi":74,"time":147.078125,"velocity":0.3937007874015748},{"duration":0.1731770833333428,"midi":88,"time":147.078125,"velocity":0.3937007874015748},{"duration":0.05989583333334281,"midi":81,"time":147.08854166666666,"velocity":0.3937007874015748},{"duration":0.05989583333334281,"midi":61,"time":147.11197916666666,"velocity":0.3937007874015748},{"duration":0.05859375,"midi":73,"time":147.12369791666666,"velocity":0.3937007874015748},{"duration":0.05859375,"midi":80,"time":147.12369791666666,"velocity":0.3937007874015748},{"duration":0.05859375,"midi":74,"time":147.15885416666666,"velocity":0.3937007874015748},{"duration":0.05859375,"midi":82,"time":147.19270833333334,"velocity":0.3937007874015748},{"duration":0.05859375,"midi":75,"time":147.19270833333334,"velocity":0.3937007874015748},{"duration":0.17317708333331439,"midi":86,"time":147.20442708333334,"velocity":0.3937007874015748},{"duration":0.17317708333331439,"midi":62,"time":147.20442708333334,"velocity":0.3937007874015748},{"duration":0.05729166666665719,"midi":88,"time":147.21614583333334,"velocity":0.3937007874015748},{"duration":0.17317708333331439,"midi":81,"time":147.21614583333334,"velocity":0.3937007874015748},{"duration":0.05859375,"midi":74,"time":147.25,"velocity":0.3937007874015748},{"duration":0.05989583333334281,"midi":80,"time":147.28385416666666,"velocity":0.3937007874015748},{"duration":0.05989583333334281,"midi":73,"time":147.28385416666666,"velocity":0.3937007874015748},{"duration":0.1653645833333428,"midi":81,"time":147.35416666666666,"velocity":0.3937007874015748},{"duration":0.05989583333334281,"midi":45,"time":147.38932291666666,"velocity":0.3937007874015748},{"duration":0.05859375,"midi":52,"time":147.40104166666666,"velocity":0.3937007874015748},{"duration":0.17578125,"midi":65,"time":147.42447916666666,"velocity":0.3937007874015748},{"duration":0.17578125,"midi":46,"time":147.42447916666666,"velocity":0.3937007874015748},{"duration":0.17578125,"midi":53,"time":147.43619791666666,"velocity":0.3937007874015748},{"duration":0.0703125,"midi":81,"time":147.45963541666666,"velocity":0.3937007874015748},{"duration":0.1770833333333428,"midi":84,"time":147.49479166666666,"velocity":0.3937007874015748},{"duration":0.05989583333334281,"midi":62,"time":147.49479166666666,"velocity":0.3937007874015748},{"duration":0.05989583333334281,"midi":81,"time":147.50651041666666,"velocity":0.3937007874015748},{"duration":0.1770833333333428,"midi":90,"time":147.50651041666666,"velocity":0.3937007874015748},{"duration":0.05859375,"midi":34,"time":147.51822916666666,"velocity":0.3937007874015748},{"duration":0.1770833333333428,"midi":93,"time":147.57682291666666,"velocity":0.3937007874015748},{"duration":0.06119791666665719,"midi":44,"time":147.59895833333334,"velocity":0.3937007874015748},{"duration":0.17708333333331439,"midi":94,"time":147.59895833333334,"velocity":0.3937007874015748},{"duration":0.8046875,"midi":53,"time":147.59895833333334,"velocity":0.3937007874015748},{"duration":0.1770833333333428,"midi":74,"time":147.61197916666666,"velocity":0.3937007874015748},{"duration":0.07161458333334281,"midi":89,"time":147.61197916666666,"velocity":0.3937007874015748},{"duration":0.2903645833333428,"midi":89,"time":147.62369791666666,"velocity":0.3937007874015748},{"duration":0.8020833333333428,"midi":46,"time":147.63541666666666,"velocity":0.3937007874015748},{"duration":0.30078125,"midi":84,"time":147.63541666666666,"velocity":0.3937007874015748},{"duration":0.05989583333334281,"midi":90,"time":147.70572916666666,"velocity":0.3937007874015748},{"duration":0.05989583333334281,"midi":34,"time":147.75260416666666,"velocity":0.3937007874015748},{"duration":0.05859375,"midi":93,"time":147.765625,"velocity":0.3937007874015748},{"duration":0.17578125,"midi":60,"time":147.77604166666666,"velocity":0.3937007874015748},{"duration":0.05989583333334281,"midi":64,"time":147.77604166666666,"velocity":0.3937007874015748},{"duration":0.05989583333334281,"midi":81,"time":147.78776041666666,"velocity":0.3937007874015748},{"duration":0.05859375,"midi":94,"time":147.80078125,"velocity":0.3937007874015748},{"duration":0.05859375,"midi":90,"time":147.80078125,"velocity":0.3937007874015748},{"duration":0.1744791666666572,"midi":63,"time":147.80078125,"velocity":0.3937007874015748},{"duration":0.17578125,"midi":34,"time":147.82291666666666,"velocity":0.3937007874015748},{"duration":0.17578125,"midi":89,"time":147.85807291666666,"velocity":0.3937007874015748},{"duration":0.059895833333314386,"midi":93,"time":147.86848958333334,"velocity":0.3937007874015748},{"duration":0.059895833333314386,"midi":88,"time":147.90364583333334,"velocity":0.3937007874015748},{"duration":0.3020833333333144,"midi":34,"time":147.90364583333334,"velocity":0.3937007874015748},{"duration":0.059895833333314386,"midi":84,"time":147.93880208333334,"velocity":0.3937007874015748},{"duration":0.059895833333314386,"midi":93,"time":147.97395833333334,"velocity":0.3937007874015748},{"duration":0.059895833333314386,"midi":64,"time":147.98567708333334,"velocity":0.3937007874015748},{"duration":0.059895833333314386,"midi":63,"time":148.00911458333334,"velocity":0.3937007874015748},{"duration":0.059895833333314386,"midi":77,"time":148.00911458333334,"velocity":0.3937007874015748},{"duration":0.059895833333314386,"midi":60,"time":148.02083333333334,"velocity":0.3937007874015748},{"duration":0.17578125,"midi":89,"time":148.06901041666666,"velocity":0.3937007874015748},{"duration":0.17578125,"midi":81,"time":148.10286458333334,"velocity":0.3937007874015748},{"duration":0.059895833333314386,"midi":93,"time":148.16145833333334,"velocity":0.3937007874015748},{"duration":0.059895833333314386,"midi":60,"time":148.20833333333334,"velocity":0.3937007874015748},{"duration":0.17578125,"midi":34,"time":148.20833333333334,"velocity":0.3937007874015748},{"duration":0.05859375,"midi":86,"time":148.22005208333334,"velocity":0.3937007874015748},{"duration":0.17578125,"midi":89,"time":148.24348958333334,"velocity":0.3937007874015748},{"duration":0.05859375,"midi":69,"time":148.25520833333334,"velocity":0.3937007874015748},{"duration":0.05989583333334281,"midi":74,"time":148.359375,"velocity":0.3937007874015748},{"duration":0.05989583333334281,"midi":77,"time":148.359375,"velocity":0.3937007874015748},{"duration":0.05859375,"midi":51,"time":148.37109375,"velocity":0.3937007874015748},{"duration":0.05859375,"midi":68,"time":148.37109375,"velocity":0.3937007874015748},{"duration":0.05729166666665719,"midi":64,"time":148.38411458333334,"velocity":0.3937007874015748},{"duration":0.05729166666665719,"midi":50,"time":148.38411458333334,"velocity":0.3937007874015748},{"duration":0.05729166666665719,"midi":60,"time":148.38411458333334,"velocity":0.3937007874015748},{"duration":0.05729166666665719,"midi":57,"time":148.40625,"velocity":0.3937007874015748},{"duration":0.05729166666665719,"midi":41,"time":148.41927083333334,"velocity":0.3937007874015748},{"duration":0.05729166666665719,"midi":81,"time":148.4296875,"velocity":0.3937007874015748},{"duration":0.05729166666665719,"midi":77,"time":148.4296875,"velocity":0.3937007874015748},{"duration":0.05729166666665719,"midi":58,"time":148.4296875,"velocity":0.3937007874015748},{"duration":0.05729166666665719,"midi":52,"time":148.4296875,"velocity":0.3937007874015748},{"duration":0.05859375,"midi":40,"time":148.44010416666666,"velocity":0.3937007874015748},{"duration":0.05859375,"midi":46,"time":148.46354166666666,"velocity":0.3937007874015748},{"duration":0.05859375,"midi":45,"time":148.48567708333334,"velocity":0.3937007874015748},{"duration":0.059895833333314386,"midi":61,"time":148.53255208333334,"velocity":0.3937007874015748},{"duration":0.059895833333314386,"midi":77,"time":148.53255208333334,"velocity":0.3937007874015748},{"duration":0.059895833333314386,"midi":61,"time":148.57942708333334,"velocity":0.3937007874015748},{"duration":0.05859375,"midi":42,"time":148.59114583333334,"velocity":0.3937007874015748},{"duration":0.05859375,"midi":44,"time":148.64973958333334,"velocity":0.3937007874015748},{"duration":0.05989583333334281,"midi":53,"time":148.75260416666666,"velocity":0.3937007874015748},{"duration":0.05859375,"midi":35,"time":148.78776041666666,"velocity":0.3937007874015748},{"duration":0.17447916666668561,"midi":57,"time":148.78776041666666,"velocity":0.3937007874015748},{"duration":0.1744791666666572,"midi":74,"time":148.80078125,"velocity":0.3937007874015748},{"duration":0.17578125,"midi":62,"time":148.82291666666666,"velocity":0.3937007874015748},{"duration":0.17578125,"midi":93,"time":148.84635416666666,"velocity":0.3937007874015748},{"duration":0.05859375,"midi":35,"time":148.86848958333334,"velocity":0.3937007874015748},{"duration":0.17578125,"midi":46,"time":148.92708333333334,"velocity":0.3937007874015748},{"duration":0.17578125,"midi":74,"time":148.98567708333334,"velocity":0.3937007874015748},{"duration":0.05859375,"midi":93,"time":149.03385416666666,"velocity":0.3937007874015748},{"duration":0.059895833333314386,"midi":53,"time":149.14973958333334,"velocity":0.3937007874015748},{"duration":0.05859375,"midi":60,"time":149.16145833333334,"velocity":0.3937007874015748},{"duration":0.05859375,"midi":40,"time":149.18489583333334,"velocity":0.3937007874015748},{"duration":0.1744791666666572,"midi":64,"time":149.18489583333334,"velocity":0.3937007874015748},{"duration":0.05859375,"midi":93,"time":149.18489583333334,"velocity":0.3937007874015748},{"duration":0.05859375,"midi":36,"time":149.19661458333334,"velocity":0.3937007874015748},{"duration":0.17317708333331439,"midi":69,"time":149.20833333333334,"velocity":0.3937007874015748},{"duration":0.05859375,"midi":91,"time":149.20833333333334,"velocity":0.3937007874015748},{"duration":0.7981770833333428,"midi":45,"time":149.21875,"velocity":0.3937007874015748},{"duration":0.30078125,"midi":52,"time":149.21875,"velocity":0.3937007874015748},{"duration":0.4244791666666572,"midi":64,"time":149.27734375,"velocity":0.3937007874015748},{"duration":0.05859375,"midi":32,"time":149.27734375,"velocity":0.3937007874015748},{"duration":0.1744791666666572,"midi":67,"time":149.2890625,"velocity":0.3937007874015748},{"duration":0.30078125,"midi":72,"time":149.2890625,"velocity":0.3937007874015748},{"duration":0.05859375,"midi":93,"time":149.3125,"velocity":0.3937007874015748},{"duration":0.2994791666666572,"midi":88,"time":149.3359375,"velocity":0.3937007874015748},{"duration":0.05859375,"midi":34,"time":149.3359375,"velocity":0.3937007874015748},{"duration":0.05989583333334281,"midi":81,"time":149.34635416666666,"velocity":0.3937007874015748},{"duration":0.05989583333334281,"midi":33,"time":149.44010416666666,"velocity":0.3937007874015748},{"duration":0.17578125,"midi":67,"time":149.44010416666666,"velocity":0.3937007874015748},{"duration":0.05989583333334281,"midi":93,"time":149.44010416666666,"velocity":0.3937007874015748},{"duration":0.17447916666668561,"midi":81,"time":149.47526041666666,"velocity":0.3937007874015748},{"duration":0.05989583333334281,"midi":90,"time":149.47526041666666,"velocity":0.3937007874015748},{"duration":0.05859375,"midi":33,"time":149.48697916666666,"velocity":0.3937007874015748},{"duration":0.05859375,"midi":95,"time":149.48697916666666,"velocity":0.3937007874015748},{"duration":0.05989583333334281,"midi":33,"time":149.54557291666666,"velocity":0.3937007874015748},{"duration":0.05989583333334281,"midi":91,"time":149.54557291666666,"velocity":0.3937007874015748},{"duration":0.059895833333314386,"midi":69,"time":149.55598958333334,"velocity":0.3937007874015748},{"duration":0.059895833333314386,"midi":58,"time":149.55598958333334,"velocity":0.3937007874015748},{"duration":0.1744791666666572,"midi":95,"time":149.55598958333334,"velocity":0.3937007874015748},{"duration":0.059895833333314386,"midi":93,"time":149.55598958333334,"velocity":0.3937007874015748},{"duration":0.05859375,"midi":91,"time":149.56901041666666,"velocity":0.3937007874015748},{"duration":0.17447916666668561,"midi":72,"time":149.56901041666666,"velocity":0.3937007874015748},{"duration":0.17447916666668561,"midi":81,"time":149.56901041666666,"velocity":0.3937007874015748},{"duration":0.5455729166666856,"midi":86,"time":149.56901041666666,"velocity":0.3937007874015748},{"duration":0.17447916666668561,"midi":88,"time":149.58072916666666,"velocity":0.3937007874015748},{"duration":0.2916666666666856,"midi":89,"time":149.58072916666666,"velocity":0.3937007874015748},{"duration":0.17447916666668561,"midi":67,"time":149.59244791666666,"velocity":0.3937007874015748},{"duration":0.17447916666668561,"midi":76,"time":149.59244791666666,"velocity":0.3937007874015748},{"duration":0.30078125,"midi":90,"time":149.59244791666666,"velocity":0.3937007874015748},{"duration":0.057291666666685614,"midi":58,"time":149.61588541666666,"velocity":0.3937007874015748},{"duration":0.05859375,"midi":94,"time":149.62630208333334,"velocity":0.3937007874015748},{"duration":0.421875,"midi":33,"time":149.64973958333334,"velocity":0.3937007874015748},{"duration":0.17708333333331439,"midi":84,"time":149.64973958333334,"velocity":0.3937007874015748},{"duration":0.1783854166666572,"midi":58,"time":149.671875,"velocity":0.3937007874015748},{"duration":0.1770833333333428,"midi":87,"time":149.6953125,"velocity":0.3937007874015748},{"duration":0.1861979166666572,"midi":89,"time":149.6953125,"velocity":0.3937007874015748},{"duration":0.06119791666665719,"midi":91,"time":149.7890625,"velocity":0.3937007874015748},{"duration":0.059895833333314386,"midi":52,"time":149.80208333333334,"velocity":0.3937007874015748},{"duration":0.2942708333333144,"midi":94,"time":149.81380208333334,"velocity":0.3937007874015748},{"duration":0.17317708333331439,"midi":81,"time":149.82552083333334,"velocity":0.3937007874015748},{"duration":0.05859375,"midi":58,"time":149.83854166666666,"velocity":0.3937007874015748},{"duration":0.17057291666668561,"midi":84,"time":149.85026041666666,"velocity":0.3937007874015748},{"duration":0.17057291666668561,"midi":90,"time":149.85026041666666,"velocity":0.3937007874015748},{"duration":0.05859375,"midi":87,"time":149.86067708333334,"velocity":0.3937007874015748},{"duration":0.05859375,"midi":60,"time":149.88411458333334,"velocity":0.3937007874015748},{"duration":0.05859375,"midi":70,"time":149.90625,"velocity":0.3937007874015748},{"duration":0.1705729166666572,"midi":89,"time":149.90625,"velocity":0.3937007874015748},{"duration":0.16927083333331439,"midi":89,"time":149.91927083333334,"velocity":0.3937007874015748},{"duration":0.1692708333333428,"midi":84,"time":149.94140625,"velocity":0.3937007874015748},{"duration":0.1692708333333428,"midi":91,"time":149.94140625,"velocity":0.3937007874015748},{"duration":0.05729166666665719,"midi":63,"time":149.94140625,"velocity":0.3937007874015748},{"duration":0.05729166666665719,"midi":77,"time":149.953125,"velocity":0.3937007874015748},{"duration":0.05729166666665719,"midi":68,"time":149.953125,"velocity":0.3937007874015748},{"duration":0.05729166666665719,"midi":73,"time":149.953125,"velocity":0.3937007874015748},{"duration":0.05598958333334281,"midi":70,"time":149.96484375,"velocity":0.3937007874015748},{"duration":0.05598958333334281,"midi":50,"time":149.96484375,"velocity":0.3937007874015748},{"duration":0.05598958333334281,"midi":64,"time":149.96484375,"velocity":0.3937007874015748},{"duration":0.05598958333334281,"midi":76,"time":149.96484375,"velocity":0.3937007874015748},{"duration":0.05598958333334281,"midi":59,"time":149.97526041666666,"velocity":0.3937007874015748},{"duration":0.05598958333334281,"midi":67,"time":149.99869791666666,"velocity":0.3937007874015748},{"duration":0.05729166666665719,"midi":60,"time":150.00911458333334,"velocity":0.3937007874015748},{"duration":0.05729166666665719,"midi":70,"time":150.01953125,"velocity":0.3937007874015748},{"duration":0.2994791666666572,"midi":90,"time":150.03125,"velocity":0.3937007874015748},{"duration":0.1731770833333428,"midi":84,"time":150.03125,"velocity":0.3937007874015748},{"duration":0.1731770833333428,"midi":33,"time":150.04166666666666,"velocity":0.3937007874015748},{"duration":0.1731770833333428,"midi":88,"time":150.04166666666666,"velocity":0.3937007874015748},{"duration":0.05859375,"midi":45,"time":150.04166666666666,"velocity":0.3937007874015748},{"duration":0.30078125,"midi":88,"time":150.04166666666666,"velocity":0.3937007874015748},{"duration":0.1744791666666572,"midi":64,"time":150.09895833333334,"velocity":0.3937007874015748},{"duration":0.17578125,"midi":81,"time":150.11067708333334,"velocity":0.3937007874015748},{"duration":0.05859375,"midi":77,"time":150.11067708333334,"velocity":0.3937007874015748},{"duration":0.17578125,"midi":86,"time":150.11067708333334,"velocity":0.3937007874015748},{"duration":0.05859375,"midi":72,"time":150.14583333333334,"velocity":0.3937007874015748},{"duration":0.3046875,"midi":84,"time":150.16796875,"velocity":0.3937007874015748},{"duration":0.05989583333334281,"midi":95,"time":150.1796875,"velocity":0.3937007874015748},{"duration":0.3046875,"midi":60,"time":150.19140625,"velocity":0.3937007874015748},{"duration":0.05989583333334281,"midi":45,"time":150.19140625,"velocity":0.3937007874015748},{"duration":0.05989583333334281,"midi":67,"time":150.19140625,"velocity":0.3937007874015748},{"duration":0.1770833333333428,"midi":76,"time":150.19140625,"velocity":0.3937007874015748},{"duration":0.3059895833333428,"midi":33,"time":150.21354166666666,"velocity":0.3937007874015748},{"duration":0.1783854166666572,"midi":55,"time":150.2265625,"velocity":0.3937007874015748},{"duration":0.1783854166666572,"midi":88,"time":150.2734375,"velocity":0.3937007874015748},{"duration":0.1783854166666572,"midi":90,"time":150.28515625,"velocity":0.3937007874015748},{"duration":0.1783854166666572,"midi":88,"time":150.29817708333334,"velocity":0.3937007874015748},{"duration":0.5520833333333144,"midi":74,"time":150.38020833333334,"velocity":0.3937007874015748},{"duration":0.17708333333331439,"midi":81,"time":150.39192708333334,"velocity":0.3937007874015748},{"duration":0.42578125,"midi":90,"time":150.40364583333334,"velocity":0.3937007874015748},{"duration":0.8033854166666572,"midi":90,"time":150.40364583333334,"velocity":0.3937007874015748},{"duration":0.17708333333331439,"midi":60,"time":150.40364583333334,"velocity":0.3937007874015748},{"duration":0.42578125,"midi":88,"time":150.40364583333334,"velocity":0.3937007874015748},{"duration":0.17708333333331439,"midi":84,"time":150.40364583333334,"velocity":0.3937007874015748},{"duration":0.17578125,"midi":33,"time":150.46354166666666,"velocity":0.3937007874015748},{"duration":0.17447916666668561,"midi":93,"time":150.51041666666666,"velocity":0.3937007874015748},{"duration":0.05989583333334281,"midi":64,"time":150.54557291666666,"velocity":0.3937007874015748},{"duration":0.05989583333334281,"midi":60,"time":150.54557291666666,"velocity":0.3937007874015748},{"duration":0.2981770833333428,"midi":84,"time":150.59244791666666,"velocity":0.3937007874015748},{"duration":0.140625,"midi":60,"time":150.60416666666666,"velocity":0.3937007874015748},{"duration":0.1731770833333428,"midi":45,"time":150.60416666666666,"velocity":0.3937007874015748},{"duration":0.05859375,"midi":64,"time":150.61588541666666,"velocity":0.3937007874015748},{"duration":0.1744791666666572,"midi":93,"time":150.66145833333334,"velocity":0.3937007874015748},{"duration":0.09244791666665719,"midi":60,"time":150.68489583333334,"velocity":0.3937007874015748},{"duration":0.05859375,"midi":64,"time":150.69661458333334,"velocity":0.3937007874015748},{"duration":0.05859375,"midi":69,"time":150.69661458333334,"velocity":0.3937007874015748},{"duration":0.1744791666666572,"midi":81,"time":150.69661458333334,"velocity":0.3937007874015748},{"duration":0.42578125,"midi":76,"time":150.75390625,"velocity":0.3937007874015748},{"duration":0.05859375,"midi":52,"time":150.75390625,"velocity":0.3937007874015748},{"duration":0.4270833333333428,"midi":92,"time":150.765625,"velocity":0.3937007874015748},{"duration":0.4270833333333428,"midi":64,"time":150.765625,"velocity":0.3937007874015748},{"duration":0.17578125,"midi":95,"time":150.765625,"velocity":0.3937007874015748},{"duration":0.17578125,"midi":57,"time":150.765625,"velocity":0.3937007874015748},{"duration":0.17578125,"midi":72,"time":150.77734375,"velocity":0.3937007874015748},{"duration":0.05859375,"midi":67,"time":150.77734375,"velocity":0.3937007874015748},{"duration":0.17578125,"midi":45,"time":150.8125,"velocity":0.3937007874015748},{"duration":0.1536458333333428,"midi":95,"time":150.90494791666666,"velocity":0.3937007874015748},{"duration":0.17447916666668561,"midi":81,"time":150.98697916666666,"velocity":0.3937007874015748},{"duration":0.1744791666666572,"midi":45,"time":151,"velocity":0.3937007874015748},{"duration":0.08072916666665719,"midi":95,"time":151,"velocity":0.3937007874015748},{"duration":0.05859375,"midi":74,"time":151.03515625,"velocity":0.3937007874015748},{"duration":0.05859375,"midi":86,"time":151.05729166666666,"velocity":0.3937007874015748},{"duration":0.05859375,"midi":33,"time":151.08072916666666,"velocity":0.3937007874015748},{"duration":0.05859375,"midi":86,"time":151.11588541666666,"velocity":0.3937007874015748},{"duration":0.4270833333333144,"midi":77,"time":151.13802083333334,"velocity":0.3937007874015748},{"duration":0.06119791666665719,"midi":75,"time":151.14973958333334,"velocity":0.3937007874015748},{"duration":0.06119791666665719,"midi":44,"time":151.14973958333334,"velocity":0.3937007874015748},{"duration":0.06119791666665719,"midi":38,"time":151.16145833333334,"velocity":0.3937007874015748},{"duration":0.17578125,"midi":60,"time":151.16145833333334,"velocity":0.3937007874015748},{"duration":0.17578125,"midi":65,"time":151.17317708333334,"velocity":0.3937007874015748},{"duration":0.059895833333314386,"midi":57,"time":151.17317708333334,"velocity":0.3937007874015748},{"duration":0.059895833333314386,"midi":36,"time":151.17317708333334,"velocity":0.3937007874015748},{"duration":0.17578125,"midi":89,"time":151.17317708333334,"velocity":0.3937007874015748},{"duration":0.17578125,"midi":90,"time":151.18619791666666,"velocity":0.3937007874015748},{"duration":0.17578125,"midi":87,"time":151.19791666666666,"velocity":0.3937007874015748},{"duration":0.05859375,"midi":88,"time":151.20963541666666,"velocity":0.3937007874015748},{"duration":0.05859375,"midi":57,"time":151.23307291666666,"velocity":0.3937007874015748},{"duration":0.17578125,"midi":81,"time":151.26822916666666,"velocity":0.3937007874015748},{"duration":0.17578125,"midi":88,"time":151.29036458333334,"velocity":0.3937007874015748},{"duration":0.17708333333331439,"midi":93,"time":151.30208333333334,"velocity":0.3937007874015748},{"duration":0.059895833333314386,"midi":60,"time":151.31380208333334,"velocity":0.3937007874015748},{"duration":0.796875,"midi":89,"time":151.34895833333334,"velocity":0.3937007874015748},{"duration":0.059895833333314386,"midi":90,"time":151.34895833333334,"velocity":0.3937007874015748},{"duration":0.17708333333331439,"midi":95,"time":151.36067708333334,"velocity":0.3937007874015748},{"duration":0.059895833333314386,"midi":87,"time":151.36067708333334,"velocity":0.3937007874015748},{"duration":0.17708333333331439,"midi":72,"time":151.36067708333334,"velocity":0.3937007874015748},{"duration":0.17578125,"midi":65,"time":151.37239583333334,"velocity":0.3937007874015748},{"duration":0.059895833333314386,"midi":91,"time":151.39583333333334,"velocity":0.3937007874015748},{"duration":0.1731770833333428,"midi":59,"time":151.45572916666666,"velocity":0.3937007874015748},{"duration":0.1731770833333428,"midi":52,"time":151.45572916666666,"velocity":0.3937007874015748},{"duration":0.059895833333314386,"midi":87,"time":151.47786458333334,"velocity":0.3937007874015748},{"duration":0.05859375,"midi":40,"time":151.48958333333334,"velocity":0.3937007874015748},{"duration":0.05859375,"midi":93,"time":151.52473958333334,"velocity":0.3937007874015748},{"duration":0.057291666666685614,"midi":50,"time":151.53776041666666,"velocity":0.3937007874015748},{"duration":0.171875,"midi":81,"time":151.53776041666666,"velocity":0.3937007874015748},{"duration":0.05729166666665719,"midi":66,"time":151.54817708333334,"velocity":0.3937007874015748},{"duration":0.2434895833333428,"midi":91,"time":151.55859375,"velocity":0.3937007874015748},{"duration":0.2981770833333428,"midi":86,"time":151.55859375,"velocity":0.3937007874015748},{"duration":0.05729166666665719,"midi":65,"time":151.57161458333334,"velocity":0.3937007874015748},{"duration":0.5455729166666572,"midi":95,"time":151.57161458333334,"velocity":0.3937007874015748},{"duration":0.05729166666665719,"midi":63,"time":151.58333333333334,"velocity":0.3937007874015748},{"duration":0.4205729166666572,"midi":86,"time":151.58333333333334,"velocity":0.3937007874015748},{"duration":0.1731770833333428,"midi":61,"time":151.59375,"velocity":0.3937007874015748},{"duration":0.1731770833333428,"midi":67,"time":151.59375,"velocity":0.3937007874015748},{"duration":0.421875,"midi":45,"time":151.59375,"velocity":0.3937007874015748},{"duration":0.05859375,"midi":32,"time":151.60416666666666,"velocity":0.3937007874015748},{"duration":0.17447916666668561,"midi":52,"time":151.60416666666666,"velocity":0.3937007874015748},{"duration":0.3528645833333428,"midi":91,"time":151.62760416666666,"velocity":0.3937007874015748},{"duration":0.05859375,"midi":34,"time":151.66276041666666,"velocity":0.3937007874015748},{"duration":0.05859375,"midi":65,"time":151.68619791666666,"velocity":0.3937007874015748},{"duration":0.05859375,"midi":33,"time":151.68619791666666,"velocity":0.3937007874015748},{"duration":0.17317708333331439,"midi":60,"time":151.73177083333334,"velocity":0.3937007874015748},{"duration":0.059895833333314386,"midi":64,"time":151.73177083333334,"velocity":0.3937007874015748},{"duration":0.3255208333333428,"midi":91,"time":151.75390625,"velocity":0.3937007874015748},{"duration":0.05989583333334281,"midi":63,"time":151.75390625,"velocity":0.3937007874015748},{"duration":0.17317708333331439,"midi":33,"time":151.76692708333334,"velocity":0.3937007874015748},{"duration":0.17317708333331439,"midi":67,"time":151.76692708333334,"velocity":0.3937007874015748},{"duration":0.05859375,"midi":70,"time":151.77864583333334,"velocity":0.3937007874015748},{"duration":0.05859375,"midi":52,"time":151.79036458333334,"velocity":0.3937007874015748},{"duration":0.05859375,"midi":64,"time":151.80208333333334,"velocity":0.3937007874015748},{"duration":0.05729166666665719,"midi":61,"time":151.81380208333334,"velocity":0.3937007874015748},{"duration":0.4192708333333144,"midi":81,"time":151.81380208333334,"velocity":0.3937007874015748},{"duration":0.17317708333331439,"midi":77,"time":151.81380208333334,"velocity":0.3937007874015748},{"duration":0.05859375,"midi":52,"time":151.86979166666666,"velocity":0.3937007874015748},{"duration":0.05859375,"midi":33,"time":151.88151041666666,"velocity":0.3937007874015748},{"duration":0.05859375,"midi":61,"time":151.88151041666666,"velocity":0.3937007874015748},{"duration":0.05859375,"midi":65,"time":151.91666666666666,"velocity":0.3937007874015748},{"duration":0.05859375,"midi":90,"time":151.92838541666666,"velocity":0.3937007874015748},{"duration":0.059895833333314386,"midi":50,"time":151.93880208333334,"velocity":0.3937007874015748},{"duration":0.059895833333314386,"midi":68,"time":151.93880208333334,"velocity":0.3937007874015748},{"duration":0.059895833333314386,"midi":72,"time":151.93880208333334,"velocity":0.3937007874015748},{"duration":0.296875,"midi":88,"time":151.93880208333334,"velocity":0.3937007874015748},{"duration":0.059895833333314386,"midi":77,"time":151.95052083333334,"velocity":0.3937007874015748},{"duration":0.059895833333314386,"midi":67,"time":151.95052083333334,"velocity":0.3937007874015748},{"duration":0.296875,"midi":88,"time":151.96223958333334,"velocity":0.3937007874015748},{"duration":0.059895833333314386,"midi":57,"time":151.96223958333334,"velocity":0.3937007874015748},{"duration":0.1744791666666572,"midi":76,"time":151.98567708333334,"velocity":0.3937007874015748},{"duration":0.2955729166666572,"midi":85,"time":151.98567708333334,"velocity":0.3937007874015748},{"duration":0.1744791666666572,"midi":57,"time":152.00911458333334,"velocity":0.3937007874015748},{"duration":0.059895833333314386,"midi":65,"time":152.00911458333334,"velocity":0.3937007874015748},{"duration":0.05859375,"midi":86,"time":152.02083333333334,"velocity":0.3937007874015748},{"duration":0.05859375,"midi":45,"time":152.02083333333334,"velocity":0.3937007874015748},{"duration":0.2955729166666572,"midi":72,"time":152.02083333333334,"velocity":0.3937007874015748},{"duration":0.1393229166666572,"midi":91,"time":152.02083333333334,"velocity":0.3937007874015748},{"duration":0.05859375,"midi":52,"time":152.07942708333334,"velocity":0.3937007874015748},{"duration":0.05859375,"midi":65,"time":152.1015625,"velocity":0.3937007874015748},{"duration":0.1263020833333428,"midi":91,"time":152.1015625,"velocity":0.3937007874015748},{"duration":0.05859375,"midi":60,"time":152.125,"velocity":0.3937007874015748},{"duration":0.05859375,"midi":68,"time":152.125,"velocity":0.3937007874015748},{"duration":0.05729166666665719,"midi":77,"time":152.13671875,"velocity":0.3937007874015748},{"duration":0.05729166666665719,"midi":50,"time":152.13671875,"velocity":0.3937007874015748},{"duration":0.05729166666665719,"midi":51,"time":152.1484375,"velocity":0.3937007874015748},{"duration":0.05729166666665719,"midi":86,"time":152.1484375,"velocity":0.3937007874015748},{"duration":0.05729166666665719,"midi":61,"time":152.16015625,"velocity":0.3937007874015748},{"duration":0.16015625,"midi":91,"time":152.17057291666666,"velocity":0.3937007874015748},{"duration":0.17057291666668561,"midi":76,"time":152.17057291666666,"velocity":0.3937007874015748},{"duration":0.1705729166666572,"midi":69,"time":152.18359375,"velocity":0.3937007874015748},{"duration":0.057291666666685614,"midi":86,"time":152.19401041666666,"velocity":0.3937007874015748},{"duration":0.05729166666665719,"midi":61,"time":152.20442708333334,"velocity":0.3937007874015748},{"duration":0.05729166666665719,"midi":67,"time":152.20442708333334,"velocity":0.3937007874015748},{"duration":0.05729166666665719,"midi":89,"time":152.22786458333334,"velocity":0.3937007874015748},{"duration":0.05729166666665719,"midi":65,"time":152.22786458333334,"velocity":0.3937007874015748},{"duration":0.1731770833333428,"midi":57,"time":152.26171875,"velocity":0.3937007874015748},{"duration":0.05859375,"midi":81,"time":152.26171875,"velocity":0.3937007874015748},{"duration":0.1497395833333428,"midi":91,"time":152.27213541666666,"velocity":0.3937007874015748},{"duration":0.05859375,"midi":84,"time":152.27213541666666,"velocity":0.3937007874015748},{"duration":0.12890625,"midi":88,"time":152.27213541666666,"velocity":0.3937007874015748},{"duration":0.05859375,"midi":85,"time":152.29557291666666,"velocity":0.3937007874015748},{"duration":0.05859375,"midi":50,"time":152.30729166666666,"velocity":0.3937007874015748},{"duration":0.05859375,"midi":93,"time":152.31901041666666,"velocity":0.3937007874015748},{"duration":0.05859375,"midi":89,"time":152.31901041666666,"velocity":0.3937007874015748},{"duration":0.05989583333334281,"midi":74,"time":152.33072916666666,"velocity":0.3937007874015748},{"duration":0.10546875,"midi":88,"time":152.34114583333334,"velocity":0.3937007874015748},{"duration":0.059895833333314386,"midi":90,"time":152.34114583333334,"velocity":0.3937007874015748},{"duration":0.3020833333333144,"midi":57,"time":152.34114583333334,"velocity":0.3937007874015748},{"duration":0.059895833333314386,"midi":60,"time":152.34114583333334,"velocity":0.3937007874015748},{"duration":0.05859375,"midi":63,"time":152.35286458333334,"velocity":0.3937007874015748},{"duration":0.05859375,"midi":37,"time":152.35286458333334,"velocity":0.3937007874015748},{"duration":0.05859375,"midi":77,"time":152.35286458333334,"velocity":0.3937007874015748},{"duration":0.4270833333333144,"midi":88,"time":152.39973958333334,"velocity":0.3937007874015748},{"duration":0.30078125,"midi":76,"time":152.39973958333334,"velocity":0.3937007874015748},{"duration":0.17578125,"midi":81,"time":152.39973958333334,"velocity":0.3937007874015748},{"duration":0.059895833333314386,"midi":91,"time":152.41145833333334,"velocity":0.3937007874015748},{"duration":0.3020833333333144,"midi":95,"time":152.41145833333334,"velocity":0.3937007874015748},{"duration":0.06119791666665719,"midi":63,"time":152.421875,"velocity":0.3937007874015748},{"duration":0.1770833333333428,"midi":74,"time":152.421875,"velocity":0.3937007874015748},{"duration":0.1770833333333428,"midi":65,"time":152.421875,"velocity":0.3937007874015748},{"duration":0.7942708333333428,"midi":50,"time":152.43359375,"velocity":0.3937007874015748},{"duration":0.17578125,"midi":81,"time":152.50520833333334,"velocity":0.3937007874015748},{"duration":0.05859375,"midi":66,"time":152.51692708333334,"velocity":0.3937007874015748},{"duration":0.05989583333334281,"midi":77,"time":152.59765625,"velocity":0.3937007874015748},{"duration":0.30078125,"midi":81,"time":152.62109375,"velocity":0.3937007874015748},{"duration":0.1770833333333428,"midi":76,"time":152.6328125,"velocity":0.3937007874015748},{"duration":0.55078125,"midi":65,"time":152.66796875,"velocity":0.3937007874015748},{"duration":0.17578125,"midi":93,"time":152.68098958333334,"velocity":0.3937007874015748},{"duration":0.059895833333314386,"midi":75,"time":152.72786458333334,"velocity":0.3937007874015748},{"duration":0.1744791666666572,"midi":76,"time":152.75,"velocity":0.3937007874015748},{"duration":0.2981770833333144,"midi":90,"time":152.76302083333334,"velocity":0.3937007874015748},{"duration":0.05859375,"midi":95,"time":152.79817708333334,"velocity":0.3937007874015748},{"duration":0.4231770833333144,"midi":57,"time":152.80989583333334,"velocity":0.3937007874015748},{"duration":0.05859375,"midi":88,"time":152.83333333333334,"velocity":0.3937007874015748},{"duration":0.05859375,"midi":93,"time":152.83333333333334,"velocity":0.3937007874015748},{"duration":0.17447916666668561,"midi":81,"time":152.90104166666666,"velocity":0.3937007874015748},{"duration":0.05859375,"midi":88,"time":152.90104166666666,"velocity":0.3937007874015748},{"duration":0.2994791666666856,"midi":69,"time":152.93619791666666,"velocity":0.3937007874015748},{"duration":0.55078125,"midi":93,"time":152.93619791666666,"velocity":0.3937007874015748},{"duration":0.3111979166666856,"midi":88,"time":152.95963541666666,"velocity":0.3937007874015748},{"duration":0.4075520833333144,"midi":88,"time":152.97005208333334,"velocity":0.3937007874015748},{"duration":0.42578125,"midi":91,"time":152.97005208333334,"velocity":0.3937007874015748},{"duration":0.05859375,"midi":85,"time":152.98177083333334,"velocity":0.3937007874015748},{"duration":0.1770833333333428,"midi":85,"time":153.05078125,"velocity":0.3937007874015748},{"duration":0.05989583333334281,"midi":68,"time":153.1328125,"velocity":0.3937007874015748},{"duration":0.05989583333334281,"midi":77,"time":153.1328125,"velocity":0.3937007874015748},{"duration":0.05989583333334281,"midi":51,"time":153.1328125,"velocity":0.3937007874015748},{"duration":0.05989583333334281,"midi":74,"time":153.15625,"velocity":0.3937007874015748},{"duration":0.1744791666666572,"midi":65,"time":153.16796875,"velocity":0.3937007874015748},{"duration":0.1744791666666572,"midi":61,"time":153.16796875,"velocity":0.3937007874015748},{"duration":0.06770833333334281,"midi":50,"time":153.16796875,"velocity":0.3937007874015748},{"duration":0.1809895833333428,"midi":88,"time":153.203125,"velocity":0.3937007874015748},{"duration":0.1744791666666572,"midi":69,"time":153.203125,"velocity":0.3937007874015748},{"duration":0.05859375,"midi":85,"time":153.21484375,"velocity":0.3937007874015748},{"duration":0.4283854166666856,"midi":77,"time":153.28385416666666,"velocity":0.3937007874015748},{"duration":0.05989583333334281,"midi":50,"time":153.33072916666666,"velocity":0.3937007874015748},{"duration":0.3033854166666856,"midi":65,"time":153.34244791666666,"velocity":0.3937007874015748},{"duration":0.05989583333334281,"midi":81,"time":153.35416666666666,"velocity":0.3937007874015748},{"duration":0.1770833333333428,"midi":89,"time":153.35416666666666,"velocity":0.3937007874015748},{"duration":0.05989583333334281,"midi":88,"time":153.35416666666666,"velocity":0.3937007874015748},{"duration":0.05989583333334281,"midi":62,"time":153.37760416666666,"velocity":0.3937007874015748},{"duration":0.05989583333334281,"midi":84,"time":153.37760416666666,"velocity":0.3937007874015748},{"duration":0.05989583333334281,"midi":69,"time":153.37760416666666,"velocity":0.3937007874015748},{"duration":0.1770833333333428,"midi":74,"time":153.38932291666666,"velocity":0.3937007874015748},{"duration":0.05989583333334281,"midi":69,"time":153.43619791666666,"velocity":0.3937007874015748},{"duration":0.1770833333333428,"midi":91,"time":153.47135416666666,"velocity":0.3937007874015748},{"duration":0.1770833333333428,"midi":81,"time":153.48307291666666,"velocity":0.3937007874015748},{"duration":0.05989583333334281,"midi":62,"time":153.51822916666666,"velocity":0.3937007874015748},{"duration":0.17578125,"midi":88,"time":153.55338541666666,"velocity":0.3937007874015748},{"duration":0.17578125,"midi":69,"time":153.56640625,"velocity":0.3937007874015748},{"duration":0.05989583333334281,"midi":65,"time":153.60026041666666,"velocity":0.3937007874015748},{"duration":0.1731770833333428,"midi":65,"time":153.6484375,"velocity":0.3937007874015748},{"duration":0.05859375,"midi":93,"time":153.68359375,"velocity":0.3937007874015748},{"duration":0.05729166666665719,"midi":81,"time":153.6953125,"velocity":0.3937007874015748},{"duration":0.057291666666685614,"midi":60,"time":153.74088541666666,"velocity":0.3937007874015748},{"duration":0.5494791666666856,"midi":76,"time":153.74088541666666,"velocity":0.3937007874015748},{"duration":0.42578125,"midi":95,"time":153.75130208333334,"velocity":0.3937007874015748},{"duration":0.1744791666666572,"midi":50,"time":153.75130208333334,"velocity":0.3937007874015748},{"duration":0.2994791666666572,"midi":88,"time":153.76302083333334,"velocity":0.3937007874015748},{"duration":0.05989583333334281,"midi":63,"time":153.78515625,"velocity":0.3937007874015748},{"duration":0.05989583333334281,"midi":70,"time":153.78515625,"velocity":0.3937007874015748},{"duration":0.42578125,"midi":93,"time":153.78515625,"velocity":0.3937007874015748},{"duration":0.1744791666666572,"midi":57,"time":153.79817708333334,"velocity":0.3937007874015748},{"duration":0.05859375,"midi":65,"time":153.8671875,"velocity":0.3937007874015748},{"duration":0.05859375,"midi":89,"time":153.9140625,"velocity":0.3937007874015748},{"duration":0.17578125,"midi":65,"time":153.9140625,"velocity":0.3937007874015748},{"duration":0.05859375,"midi":41,"time":153.9140625,"velocity":0.3937007874015748},{"duration":0.05859375,"midi":84,"time":153.92578125,"velocity":0.3937007874015748},{"duration":0.17578125,"midi":57,"time":153.93619791666666,"velocity":0.3937007874015748},{"duration":0.17578125,"midi":50,"time":153.94921875,"velocity":0.3937007874015748},{"duration":0.17578125,"midi":74,"time":153.94921875,"velocity":0.3937007874015748},{"duration":0.1770833333333428,"midi":88,"time":153.97135416666666,"velocity":0.3937007874015748},{"duration":0.05989583333334281,"midi":30,"time":153.97135416666666,"velocity":0.3937007874015748},{"duration":0.05989583333334281,"midi":81,"time":153.97135416666666,"velocity":0.3937007874015748},{"duration":0.17578125,"midi":65,"time":154.04166666666666,"velocity":0.3937007874015748},{"duration":0.42578125,"midi":88,"time":154.07682291666666,"velocity":0.3937007874015748},{"duration":0.17578125,"midi":60,"time":154.11197916666666,"velocity":0.3937007874015748},{"duration":0.6783854166666856,"midi":50,"time":154.12369791666666,"velocity":0.3937007874015748},{"duration":0.05859375,"midi":63,"time":154.13541666666666,"velocity":0.3937007874015748},{"duration":0.17447916666668561,"midi":95,"time":154.17057291666666,"velocity":0.3937007874015748},{"duration":0.17578125,"midi":76,"time":154.19401041666666,"velocity":0.3937007874015748},{"duration":0.17578125,"midi":57,"time":154.19401041666666,"velocity":0.3937007874015748},{"duration":0.059895833333314386,"midi":66,"time":154.20442708333334,"velocity":0.3937007874015748},{"duration":0.059895833333314386,"midi":65,"time":154.30989583333334,"velocity":0.3937007874015748},{"duration":0.059895833333314386,"midi":77,"time":154.33333333333334,"velocity":0.3937007874015748},{"duration":0.17578125,"midi":60,"time":154.33333333333334,"velocity":0.3937007874015748},{"duration":0.3033854166666572,"midi":74,"time":154.34505208333334,"velocity":0.3937007874015748},{"duration":0.3033854166666572,"midi":90,"time":154.34505208333334,"velocity":0.3937007874015748},{"duration":0.059895833333314386,"midi":63,"time":154.34505208333334,"velocity":0.3937007874015748},{"duration":0.05859375,"midi":81,"time":154.35677083333334,"velocity":0.3937007874015748},{"duration":0.17578125,"midi":76,"time":154.35677083333334,"velocity":0.3937007874015748},{"duration":0.4270833333333144,"midi":93,"time":154.36848958333334,"velocity":0.3937007874015748},{"duration":0.17578125,"midi":57,"time":154.38020833333334,"velocity":0.3937007874015748},{"duration":0.05859375,"midi":63,"time":154.38020833333334,"velocity":0.3937007874015748},{"duration":0.05859375,"midi":63,"time":154.41536458333334,"velocity":0.3937007874015748},{"duration":0.1770833333333428,"midi":65,"time":154.51953125,"velocity":0.3937007874015748},{"duration":0.29296875,"midi":69,"time":154.53255208333334,"velocity":0.3937007874015748},{"duration":0.21223958333331439,"midi":88,"time":154.53255208333334,"velocity":0.3937007874015748},{"duration":0.17708333333331439,"midi":57,"time":154.53255208333334,"velocity":0.3937007874015748},{"duration":0.265625,"midi":88,"time":154.56770833333334,"velocity":0.3937007874015748},{"duration":0.17708333333331439,"midi":81,"time":154.57942708333334,"velocity":0.3937007874015748},{"duration":0.2994791666666572,"midi":91,"time":154.57942708333334,"velocity":0.3937007874015748},{"duration":0.2994791666666572,"midi":85,"time":154.59114583333334,"velocity":0.3937007874015748},{"duration":0.17578125,"midi":90,"time":154.60286458333334,"velocity":0.3937007874015748},{"duration":0.17447916666668561,"midi":65,"time":154.61588541666666,"velocity":0.3937007874015748},{"duration":0.059895833333314386,"midi":77,"time":154.70833333333334,"velocity":0.3937007874015748},{"duration":0.05859375,"midi":52,"time":154.72005208333334,"velocity":0.3937007874015748},{"duration":0.05859375,"midi":60,"time":154.72005208333334,"velocity":0.3937007874015748},{"duration":0.1744791666666572,"midi":88,"time":154.74348958333334,"velocity":0.3937007874015748},{"duration":0.05859375,"midi":42,"time":154.74348958333334,"velocity":0.3937007874015748},{"duration":0.1744791666666572,"midi":81,"time":154.74348958333334,"velocity":0.3937007874015748},{"duration":0.1744791666666572,"midi":90,"time":154.74348958333334,"velocity":0.3937007874015748},{"duration":0.057291666666685614,"midi":77,"time":154.76822916666666,"velocity":0.3937007874015748},{"duration":0.06510416666668561,"midi":69,"time":154.76822916666666,"velocity":0.3937007874015748},{"duration":0.05729166666665719,"midi":60,"time":154.77864583333334,"velocity":0.3937007874015748},{"duration":0.05859375,"midi":40,"time":154.7890625,"velocity":0.3937007874015748},{"duration":0.17578125,"midi":65,"time":154.8125,"velocity":0.3937007874015748},{"duration":0.17578125,"midi":85,"time":154.8359375,"velocity":0.3937007874015748},{"duration":0.1770833333333428,"midi":69,"time":154.85807291666666,"velocity":0.3937007874015748},{"duration":0.061197916666685614,"midi":61,"time":154.88151041666666,"velocity":0.3937007874015748},{"duration":0.05989583333334281,"midi":60,"time":154.90494791666666,"velocity":0.3937007874015748},{"duration":0.05859375,"midi":61,"time":154.9296875,"velocity":0.3937007874015748},{"duration":0.30078125,"midi":65,"time":154.953125,"velocity":0.3937007874015748},{"duration":0.17578125,"midi":81,"time":154.953125,"velocity":0.3937007874015748},{"duration":0.30078125,"midi":77,"time":154.953125,"velocity":0.3937007874015748},{"duration":0.17578125,"midi":93,"time":154.96484375,"velocity":0.3937007874015748},{"duration":0.17578125,"midi":69,"time":154.96484375,"velocity":0.3937007874015748},{"duration":0.05989583333334281,"midi":56,"time":154.97526041666666,"velocity":0.3937007874015748},{"duration":0.05989583333334281,"midi":42,"time":154.97526041666666,"velocity":0.3937007874015748},{"duration":0.05989583333334281,"midi":88,"time":154.98697916666666,"velocity":0.3937007874015748},{"duration":0.05989583333334281,"midi":38,"time":155.02213541666666,"velocity":0.3937007874015748},{"duration":0.05859375,"midi":47,"time":155.03515625,"velocity":0.3937007874015748},{"duration":0.1744791666666572,"midi":93,"time":155.08203125,"velocity":0.3937007874015748},{"duration":0.05989583333334281,"midi":41,"time":155.09244791666666,"velocity":0.3937007874015748},{"duration":0.05989583333334281,"midi":85,"time":155.09244791666666,"velocity":0.3937007874015748},{"duration":0.05989583333334281,"midi":42,"time":155.11588541666666,"velocity":0.3937007874015748},{"duration":0.05859375,"midi":41,"time":155.13932291666666,"velocity":0.3937007874015748},{"duration":0.17578125,"midi":57,"time":155.13932291666666,"velocity":0.3937007874015748},{"duration":0.17578125,"midi":48,"time":155.15234375,"velocity":0.3937007874015748},{"duration":0.17578125,"midi":74,"time":155.17447916666666,"velocity":0.3937007874015748},{"duration":0.059895833333314386,"midi":88,"time":155.20833333333334,"velocity":0.3937007874015748},{"duration":0.17578125,"midi":65,"time":155.20833333333334,"velocity":0.3937007874015748},{"duration":0.17578125,"midi":81,"time":155.22005208333334,"velocity":0.3937007874015748},{"duration":0.17578125,"midi":69,"time":155.24348958333334,"velocity":0.3937007874015748},{"duration":0.17578125,"midi":93,"time":155.24348958333334,"velocity":0.3937007874015748},{"duration":0.06119791666665719,"midi":88,"time":155.27864583333334,"velocity":0.3937007874015748},{"duration":0.059895833333314386,"midi":57,"time":155.29036458333334,"velocity":0.3937007874015748},{"duration":0.17447916666668561,"midi":65,"time":155.30338541666666,"velocity":0.3937007874015748},{"duration":0.421875,"midi":74,"time":155.33984375,"velocity":0.3937007874015748},{"duration":0.05729166666665719,"midi":57,"time":155.33984375,"velocity":0.3937007874015748},{"duration":0.05859375,"midi":42,"time":155.36067708333334,"velocity":0.3937007874015748},{"duration":0.17578125,"midi":49,"time":155.41927083333334,"velocity":0.3937007874015748},{"duration":0.17317708333331439,"midi":70,"time":155.45442708333334,"velocity":0.3937007874015748},{"duration":0.05989583333334281,"midi":43,"time":155.4765625,"velocity":0.3937007874015748},{"duration":0.1731770833333428,"midi":81,"time":155.4765625,"velocity":0.3937007874015748},{"duration":0.05989583333334281,"midi":90,"time":155.51171875,"velocity":0.3937007874015748},{"duration":0.05989583333334281,"midi":77,"time":155.51171875,"velocity":0.3937007874015748},{"duration":0.05989583333334281,"midi":53,"time":155.51171875,"velocity":0.3937007874015748},{"duration":0.05989583333334281,"midi":95,"time":155.51171875,"velocity":0.3937007874015748},{"duration":0.05989583333334281,"midi":87,"time":155.5234375,"velocity":0.3937007874015748},{"duration":0.05989583333334281,"midi":37,"time":155.5234375,"velocity":0.3937007874015748},{"duration":0.05859375,"midi":64,"time":155.53645833333334,"velocity":0.3937007874015748},{"duration":0.05859375,"midi":60,"time":155.546875,"velocity":0.3937007874015748},{"duration":0.4231770833333428,"midi":84,"time":155.55859375,"velocity":0.3937007874015748},{"duration":0.05729166666665719,"midi":63,"time":155.55859375,"velocity":0.3937007874015748},{"duration":0.5481770833333428,"midi":91,"time":155.55859375,"velocity":0.3937007874015748},{"duration":0.055989583333314386,"midi":43,"time":155.57161458333334,"velocity":0.3937007874015748},{"duration":0.171875,"midi":50,"time":155.57161458333334,"velocity":0.3937007874015748},{"duration":0.421875,"midi":88,"time":155.57161458333334,"velocity":0.3937007874015748},{"duration":0.171875,"midi":77,"time":155.57161458333334,"velocity":0.3937007874015748},{"duration":0.055989583333314386,"midi":79,"time":155.57161458333334,"velocity":0.3937007874015748},{"duration":0.67578125,"midi":43,"time":155.60416666666666,"velocity":0.3937007874015748},{"duration":0.05859375,"midi":70,"time":155.61588541666666,"velocity":0.3937007874015748},{"duration":0.05989583333334281,"midi":31,"time":155.63671875,"velocity":0.3937007874015748},{"duration":0.5533854166666572,"midi":65,"time":155.66145833333334,"velocity":0.3937007874015748},{"duration":0.4192708333333144,"midi":79,"time":155.68489583333334,"velocity":0.3937007874015748},{"duration":0.1744791666666572,"midi":50,"time":155.71875,"velocity":0.3937007874015748},{"duration":0.05859375,"midi":58,"time":155.75390625,"velocity":0.3937007874015748},{"duration":0.05859375,"midi":31,"time":155.77734375,"velocity":0.3937007874015748},{"duration":0.17578125,"midi":62,"time":155.8125,"velocity":0.3937007874015748},{"duration":0.05989583333334281,"midi":31,"time":155.82291666666666,"velocity":0.3937007874015748},{"duration":0.17578125,"midi":81,"time":155.84635416666666,"velocity":0.3937007874015748},{"duration":0.17578125,"midi":69,"time":155.85807291666666,"velocity":0.3937007874015748},{"duration":0.17578125,"midi":50,"time":155.85807291666666,"velocity":0.3937007874015748},{"duration":0.3268229166666856,"midi":89,"time":155.90494791666666,"velocity":0.3937007874015748},{"duration":0.05989583333334281,"midi":31,"time":155.90494791666666,"velocity":0.3937007874015748},{"duration":0.17578125,"midi":86,"time":155.92838541666666,"velocity":0.3937007874015748},{"duration":0.05989583333334281,"midi":70,"time":155.92838541666666,"velocity":0.3937007874015748},{"duration":0.4036458333333428,"midi":89,"time":155.92838541666666,"velocity":0.3937007874015748},{"duration":0.17578125,"midi":50,"time":155.94010416666666,"velocity":0.3937007874015748},{"duration":0.3033854166666856,"midi":94,"time":155.94010416666666,"velocity":0.3937007874015748},{"duration":0.17578125,"midi":88,"time":155.98697916666666,"velocity":0.3937007874015748},{"duration":0.05989583333334281,"midi":30,"time":155.99869791666666,"velocity":0.3937007874015748},{"duration":0.06510416666668561,"midi":79,"time":156.04557291666666,"velocity":0.3937007874015748},{"duration":0.05859375,"midi":86,"time":156.04557291666666,"velocity":0.3937007874015748},{"duration":0.1770833333333428,"midi":50,"time":156.08072916666666,"velocity":0.3937007874015748},{"duration":0.1770833333333428,"midi":91,"time":156.11588541666666,"velocity":0.3937007874015748},{"duration":0.1770833333333428,"midi":79,"time":156.12760416666666,"velocity":0.3937007874015748},{"duration":0.17578125,"midi":50,"time":156.16276041666666,"velocity":0.3937007874015748},{"duration":0.17447916666668561,"midi":65,"time":156.17447916666666,"velocity":0.3937007874015748},{"duration":0.42578125,"midi":77,"time":156.17447916666666,"velocity":0.3937007874015748},{"duration":0.05989583333334281,"midi":30,"time":156.1875,"velocity":0.3937007874015748},{"duration":0.05859375,"midi":58,"time":156.19921875,"velocity":0.3937007874015748},{"duration":0.171875,"midi":93,"time":156.2109375,"velocity":0.3937007874015748},{"duration":0.05859375,"midi":94,"time":156.24609375,"velocity":0.3937007874015748},{"duration":0.05859375,"midi":62,"time":156.27994791666666,"velocity":0.3937007874015748},{"duration":0.05859375,"midi":54,"time":156.27994791666666,"velocity":0.3937007874015748},{"duration":0.05859375,"midi":58,"time":156.27994791666666,"velocity":0.3937007874015748},{"duration":0.05859375,"midi":67,"time":156.27994791666666,"velocity":0.3937007874015748},{"duration":0.057291666666685614,"midi":82,"time":156.29166666666666,"velocity":0.3937007874015748},{"duration":0.05598958333334281,"midi":68,"time":156.3046875,"velocity":0.3937007874015748},{"duration":0.05598958333334281,"midi":51,"time":156.3046875,"velocity":0.3937007874015748},{"duration":0.5481770833333428,"midi":65,"time":156.31510416666666,"velocity":0.3937007874015748},{"duration":0.057291666666685614,"midi":81,"time":156.31510416666666,"velocity":0.3937007874015748},{"duration":0.057291666666685614,"midi":60,"time":156.33854166666666,"velocity":0.3937007874015748},{"duration":0.05859375,"midi":31,"time":156.34895833333334,"velocity":0.3937007874015748},{"duration":0.05989583333334281,"midi":89,"time":156.359375,"velocity":0.3937007874015748},{"duration":0.1770833333333428,"midi":58,"time":156.3828125,"velocity":0.3937007874015748},{"duration":0.17578125,"midi":79,"time":156.46484375,"velocity":0.3937007874015748},{"duration":0.2994791666666572,"midi":62,"time":156.51171875,"velocity":0.3937007874015748},{"duration":0.05989583333334281,"midi":70,"time":156.53515625,"velocity":0.3937007874015748},{"duration":0.4231770833333428,"midi":74,"time":156.546875,"velocity":0.3937007874015748},{"duration":0.1744791666666572,"midi":93,"time":156.546875,"velocity":0.3937007874015748},{"duration":0.05859375,"midi":50,"time":156.58203125,"velocity":0.3937007874015748},{"duration":0.05859375,"midi":79,"time":156.6171875,"velocity":0.3937007874015748},{"duration":0.05989583333334281,"midi":86,"time":156.68619791666666,"velocity":0.3937007874015748},{"duration":0.059895833333314386,"midi":91,"time":156.70833333333334,"velocity":0.3937007874015748},{"duration":0.2981770833333428,"midi":79,"time":156.76822916666666,"velocity":0.3937007874015748},{"duration":0.1744791666666572,"midi":67,"time":156.79036458333334,"velocity":0.3937007874015748},{"duration":0.17317708333331439,"midi":77,"time":156.83723958333334,"velocity":0.3937007874015748},{"duration":0.05989583333334281,"midi":62,"time":156.859375,"velocity":0.3937007874015748},{"duration":0.2799479166666572,"midi":91,"time":156.87109375,"velocity":0.3937007874015748},{"duration":0.05859375,"midi":60,"time":156.88411458333334,"velocity":0.3937007874015748},{"duration":0.17317708333331439,"midi":50,"time":156.88411458333334,"velocity":0.3937007874015748},{"duration":0.05859375,"midi":64,"time":156.88411458333334,"velocity":0.3937007874015748},{"duration":0.05859375,"midi":55,"time":156.90625,"velocity":0.3937007874015748},{"duration":0.05859375,"midi":37,"time":156.90625,"velocity":0.3937007874015748},{"duration":0.05729166666665719,"midi":63,"time":156.91927083333334,"velocity":0.3937007874015748},{"duration":0.05729166666665719,"midi":95,"time":156.9296875,"velocity":0.3937007874015748},{"duration":0.05729166666665719,"midi":87,"time":156.9296875,"velocity":0.3937007874015748},{"duration":0.06901041666665719,"midi":90,"time":156.9296875,"velocity":0.3937007874015748},{"duration":0.1744791666666572,"midi":43,"time":156.94140625,"velocity":0.3937007874015748},{"duration":0.05729166666665719,"midi":71,"time":156.94140625,"velocity":0.3937007874015748},{"duration":0.1627604166666572,"midi":90,"time":156.94140625,"velocity":0.3937007874015748},{"duration":0.6966145833333428,"midi":91,"time":156.97526041666666,"velocity":0.3937007874015748},{"duration":0.059895833333314386,"midi":59,"time":156.98567708333334,"velocity":0.3937007874015748},{"duration":0.4244791666666572,"midi":84,"time":156.98567708333334,"velocity":0.3937007874015748},{"duration":0.55078125,"midi":88,"time":156.98567708333334,"velocity":0.3937007874015748},{"duration":0.55078125,"midi":72,"time":156.98567708333334,"velocity":0.3937007874015748},{"duration":0.059895833333314386,"midi":31,"time":157.02083333333334,"velocity":0.3937007874015748},{"duration":0.05989583333334281,"midi":60,"time":157.06901041666666,"velocity":0.3937007874015748},{"duration":0.17447916666668561,"midi":79,"time":157.08072916666666,"velocity":0.3937007874015748},{"duration":0.1744791666666572,"midi":74,"time":157.09114583333334,"velocity":0.3937007874015748},{"duration":0.059895833333314386,"midi":70,"time":157.10286458333334,"velocity":0.3937007874015748},{"duration":0.059895833333314386,"midi":94,"time":157.10286458333334,"velocity":0.3937007874015748},{"duration":0.05989583333334281,"midi":67,"time":157.11588541666666,"velocity":0.3937007874015748},{"duration":0.05989583333334281,"midi":89,"time":157.11588541666666,"velocity":0.3937007874015748},{"duration":0.2981770833333144,"midi":50,"time":157.13802083333334,"velocity":0.3937007874015748},{"duration":0.2981770833333144,"midi":43,"time":157.13802083333334,"velocity":0.3937007874015748},{"duration":0.059895833333314386,"midi":86,"time":157.13802083333334,"velocity":0.3937007874015748},{"duration":0.05859375,"midi":59,"time":157.15104166666666,"velocity":0.3937007874015748},{"duration":0.1731770833333428,"midi":65,"time":157.16276041666666,"velocity":0.3937007874015748},{"duration":0.057291666666685614,"midi":29,"time":157.19791666666666,"velocity":0.3937007874015748},{"duration":0.17317708333331439,"midi":59,"time":157.20833333333334,"velocity":0.3937007874015748},{"duration":0.05859375,"midi":31,"time":157.21875,"velocity":0.3937007874015748},{"duration":0.1731770833333428,"midi":31,"time":157.25390625,"velocity":0.3937007874015748},{"duration":0.05859375,"midi":63,"time":157.27734375,"velocity":0.3937007874015748},{"duration":0.05859375,"midi":63,"time":157.3125,"velocity":0.3937007874015748},{"duration":0.05859375,"midi":30,"time":157.38151041666666,"velocity":0.3937007874015748},{"duration":0.17578125,"midi":65,"time":157.39322916666666,"velocity":0.3937007874015748},{"duration":0.3046875,"midi":89,"time":157.43880208333334,"velocity":0.3937007874015748},{"duration":0.17708333333331439,"midi":70,"time":157.46223958333334,"velocity":0.3937007874015748},{"duration":0.17708333333331439,"midi":79,"time":157.46223958333334,"velocity":0.3937007874015748},{"duration":0.1783854166666572,"midi":67,"time":157.484375,"velocity":0.3937007874015748},{"duration":0.06119791666665719,"midi":64,"time":157.484375,"velocity":0.3937007874015748},{"duration":0.1783854166666572,"midi":60,"time":157.484375,"velocity":0.3937007874015748},{"duration":0.06119791666665719,"midi":86,"time":157.49739583333334,"velocity":0.3937007874015748},{"duration":0.1783854166666572,"midi":63,"time":157.50911458333334,"velocity":0.3937007874015748},{"duration":0.1783854166666572,"midi":94,"time":157.52083333333334,"velocity":0.3937007874015748},{"duration":0.17838541666668561,"midi":88,"time":157.53385416666666,"velocity":0.3937007874015748},{"duration":0.05989583333334281,"midi":84,"time":157.53385416666666,"velocity":0.3937007874015748},{"duration":0.3020833333333428,"midi":65,"time":157.65104166666666,"velocity":0.3937007874015748},{"duration":0.061197916666685614,"midi":91,"time":157.67447916666666,"velocity":0.3937007874015748},{"duration":0.42578125,"midi":77,"time":157.6875,"velocity":0.3937007874015748},{"duration":0.1770833333333428,"midi":70,"time":157.72265625,"velocity":0.3937007874015748},{"duration":0.1770833333333428,"midi":74,"time":157.74609375,"velocity":0.3937007874015748},{"duration":0.17578125,"midi":79,"time":157.76953125,"velocity":0.3937007874015748},{"duration":0.15234375,"midi":91,"time":157.78125,"velocity":0.3937007874015748},{"duration":0.06119791666665719,"midi":69,"time":157.8515625,"velocity":0.3937007874015748},{"duration":0.05989583333334281,"midi":60,"time":157.86328125,"velocity":0.3937007874015748},{"duration":0.1744791666666572,"midi":84,"time":157.86328125,"velocity":0.3937007874015748},{"duration":0.05989583333334281,"midi":51,"time":157.86328125,"velocity":0.3937007874015748},{"duration":0.08072916666665719,"midi":91,"time":157.875,"velocity":0.3937007874015748},{"duration":0.05859375,"midi":68,"time":157.875,"velocity":0.3937007874015748},{"duration":0.05729166666665719,"midi":61,"time":157.88802083333334,"velocity":0.3937007874015748},{"duration":0.2981770833333144,"midi":65,"time":157.88802083333334,"velocity":0.3937007874015748},{"duration":0.17317708333331439,"midi":79,"time":157.89973958333334,"velocity":0.3937007874015748},{"duration":0.055989583333314386,"midi":42,"time":157.91145833333334,"velocity":0.3937007874015748},{"duration":0.055989583333314386,"midi":60,"time":157.91145833333334,"velocity":0.3937007874015748},{"duration":0.05729166666665719,"midi":52,"time":157.92317708333334,"velocity":0.3937007874015748},{"duration":0.05729166666665719,"midi":44,"time":157.92317708333334,"velocity":0.3937007874015748},{"duration":0.05859375,"midi":61,"time":157.93359375,"velocity":0.3937007874015748},{"duration":0.05989583333334281,"midi":52,"time":157.96744791666666,"velocity":0.3937007874015748},{"duration":0.05989583333334281,"midi":60,"time":157.96744791666666,"velocity":0.3937007874015748},{"duration":0.05989583333334281,"midi":45,"time":157.96744791666666,"velocity":0.3937007874015748},{"duration":0.05989583333334281,"midi":61,"time":158.00260416666666,"velocity":0.3937007874015748},{"duration":0.05859375,"midi":53,"time":158.01432291666666,"velocity":0.3937007874015748},{"duration":0.05859375,"midi":91,"time":158.03776041666666,"velocity":0.3937007874015748},{"duration":0.05859375,"midi":52,"time":158.03776041666666,"velocity":0.3937007874015748},{"duration":0.05859375,"midi":61,"time":158.03776041666666,"velocity":0.3937007874015748},{"duration":0.05859375,"midi":45,"time":158.03776041666666,"velocity":0.3937007874015748},{"duration":0.05859375,"midi":34,"time":158.07291666666666,"velocity":0.3937007874015748},{"duration":0.1614583333333428,"midi":52,"time":158.07291666666666,"velocity":0.3937007874015748},{"duration":0.1731770833333428,"midi":79,"time":158.07291666666666,"velocity":0.3937007874015748},{"duration":0.059895833333314386,"midi":67,"time":158.08333333333334,"velocity":0.3937007874015748},{"duration":0.059895833333314386,"midi":46,"time":158.08333333333334,"velocity":0.3937007874015748},{"duration":0.05859375,"midi":77,"time":158.09505208333334,"velocity":0.3937007874015748},{"duration":0.1744791666666572,"midi":60,"time":158.09505208333334,"velocity":0.3937007874015748},{"duration":0.05989583333334281,"midi":44,"time":158.10546875,"velocity":0.3937007874015748},{"duration":0.1744791666666572,"midi":45,"time":158.15364583333334,"velocity":0.3937007874015748},{"duration":0.05859375,"midi":67,"time":158.15364583333334,"velocity":0.3937007874015748},{"duration":0.05859375,"midi":34,"time":158.17578125,"velocity":0.3937007874015748},{"duration":0.0703125,"midi":52,"time":158.17578125,"velocity":0.3937007874015748},{"duration":0.17447916666668561,"midi":65,"time":158.22135416666666,"velocity":0.3937007874015748},{"duration":0.05989583333334281,"midi":44,"time":158.234375,"velocity":0.3937007874015748},{"duration":0.05989583333334281,"midi":91,"time":158.24479166666666,"velocity":0.3937007874015748},{"duration":0.05989583333334281,"midi":89,"time":158.25651041666666,"velocity":0.3937007874015748},{"duration":0.05859375,"midi":57,"time":158.28125,"velocity":0.3937007874015748},{"duration":0.171875,"midi":70,"time":158.28125,"velocity":0.3937007874015748},{"duration":0.05859375,"midi":64,"time":158.3046875,"velocity":0.3937007874015748},{"duration":0.05859375,"midi":60,"time":158.32682291666666,"velocity":0.3937007874015748},{"duration":0.1731770833333428,"midi":89,"time":158.33984375,"velocity":0.3937007874015748},{"duration":0.05859375,"midi":57,"time":158.35026041666666,"velocity":0.3937007874015748},{"duration":0.17447916666668561,"midi":74,"time":158.35026041666666,"velocity":0.3937007874015748},{"duration":0.2994791666666572,"midi":60,"time":158.37239583333334,"velocity":0.3937007874015748},{"duration":0.05859375,"midi":91,"time":158.37239583333334,"velocity":0.3937007874015748},{"duration":0.057291666666685614,"midi":65,"time":158.38541666666666,"velocity":0.3937007874015748},{"duration":0.1744791666666572,"midi":79,"time":158.40755208333334,"velocity":0.3937007874015748},{"duration":0.05859375,"midi":45,"time":158.41927083333334,"velocity":0.3937007874015748},{"duration":0.05859375,"midi":93,"time":158.41927083333334,"velocity":0.3937007874015748},{"duration":0.17578125,"midi":64,"time":158.44140625,"velocity":0.3937007874015748},{"duration":0.1770833333333428,"midi":91,"time":158.453125,"velocity":0.3937007874015748},{"duration":0.17578125,"midi":74,"time":158.5,"velocity":0.3937007874015748},{"duration":0.05989583333334281,"midi":65,"time":158.51171875,"velocity":0.3937007874015748},{"duration":0.17578125,"midi":86,"time":158.51171875,"velocity":0.3937007874015748},{"duration":0.05859375,"midi":55,"time":158.53645833333334,"velocity":0.3937007874015748},{"duration":0.05859375,"midi":70,"time":158.57161458333334,"velocity":0.3937007874015748},{"duration":0.05989583333334281,"midi":65,"time":158.60416666666666,"velocity":0.3937007874015748},{"duration":0.09375,"midi":91,"time":158.65234375,"velocity":0.3937007874015748},{"duration":0.05989583333334281,"midi":55,"time":158.65234375,"velocity":0.3937007874015748},{"duration":0.05989583333334281,"midi":61,"time":158.65234375,"velocity":0.3937007874015748},{"duration":0.05859375,"midi":72,"time":158.6640625,"velocity":0.3937007874015748},{"duration":0.05859375,"midi":65,"time":158.6640625,"velocity":0.3937007874015748},{"duration":0.05859375,"midi":41,"time":158.67447916666666,"velocity":0.3937007874015748},{"duration":0.1393229166666572,"midi":91,"time":158.6875,"velocity":0.3937007874015748},{"duration":0.05859375,"midi":93,"time":158.6875,"velocity":0.3937007874015748},{"duration":0.05859375,"midi":60,"time":158.6875,"velocity":0.3937007874015748},{"duration":0.1744791666666572,"midi":77,"time":158.6875,"velocity":0.3937007874015748},{"duration":0.05859375,"midi":88,"time":158.6875,"velocity":0.3937007874015748},{"duration":0.05859375,"midi":37,"time":158.6875,"velocity":0.3937007874015748},{"duration":0.05729166666665719,"midi":36,"time":158.69921875,"velocity":0.3937007874015748},{"duration":0.05729166666665719,"midi":85,"time":158.69921875,"velocity":0.3937007874015748},{"duration":0.5533854166666572,"midi":89,"time":158.7109375,"velocity":0.3937007874015748},{"duration":0.17447916666668561,"midi":79,"time":158.72135416666666,"velocity":0.3937007874015748},{"duration":0.42578125,"midi":94,"time":158.72135416666666,"velocity":0.3937007874015748},{"duration":0.057291666666685614,"midi":63,"time":158.72135416666666,"velocity":0.3937007874015748},{"duration":0.8059895833333428,"midi":46,"time":158.72135416666666,"velocity":0.3937007874015748},{"duration":0.4270833333333428,"midi":86,"time":158.73307291666666,"velocity":0.3937007874015748},{"duration":0.17578125,"midi":68,"time":158.75520833333334,"velocity":0.3937007874015748},{"duration":0.059895833333314386,"midi":34,"time":158.81380208333334,"velocity":0.3937007874015748},{"duration":0.4296875,"midi":62,"time":158.82552083333334,"velocity":0.3937007874015748},{"duration":0.17578125,"midi":77,"time":158.83854166666666,"velocity":0.3937007874015748},{"duration":0.3033854166666572,"midi":68,"time":158.88411458333334,"velocity":0.3937007874015748},{"duration":0.17578125,"midi":34,"time":158.90755208333334,"velocity":0.3937007874015748},{"duration":0.1770833333333428,"midi":70,"time":158.98828125,"velocity":0.3937007874015748},{"duration":0.17708333333331439,"midi":77,"time":159.00130208333334,"velocity":0.3937007874015748},{"duration":0.3046875,"midi":88,"time":159.07161458333334,"velocity":0.3937007874015748},{"duration":0.4296875,"midi":91,"time":159.07161458333334,"velocity":0.3937007874015748},{"duration":0.3046875,"midi":81,"time":159.07161458333334,"velocity":0.3937007874015748},{"duration":0.05859375,"midi":34,"time":159.08333333333334,"velocity":0.3937007874015748},{"duration":0.3046875,"midi":88,"time":159.08333333333334,"velocity":0.3937007874015748},{"duration":0.1783854166666572,"midi":85,"time":159.10546875,"velocity":0.3937007874015748},{"duration":0.1783854166666572,"midi":69,"time":159.10546875,"velocity":0.3937007874015748},{"duration":0.1783854166666572,"midi":34,"time":159.140625,"velocity":0.3937007874015748},{"duration":0.05989583333334281,"midi":94,"time":159.19010416666666,"velocity":0.3937007874015748},{"duration":0.05989583333334281,"midi":70,"time":159.20182291666666,"velocity":0.3937007874015748},{"duration":0.17708333333331439,"midi":77,"time":159.22395833333334,"velocity":0.3937007874015748},{"duration":0.17708333333331439,"midi":34,"time":159.22395833333334,"velocity":0.3937007874015748},{"duration":0.05989583333334281,"midi":69,"time":159.23697916666666,"velocity":0.3937007874015748},{"duration":0.05989583333334281,"midi":89,"time":159.28385416666666,"velocity":0.3937007874015748},{"duration":0.05989583333334281,"midi":92,"time":159.29557291666666,"velocity":0.3937007874015748},{"duration":0.17578125,"midi":84,"time":159.30729166666666,"velocity":0.3937007874015748},{"duration":0.5494791666666856,"midi":77,"time":159.31901041666666,"velocity":0.3937007874015748},{"duration":0.17578125,"midi":93,"time":159.31901041666666,"velocity":0.3937007874015748},{"duration":0.17578125,"midi":81,"time":159.33072916666666,"velocity":0.3937007874015748},{"duration":0.05989583333334281,"midi":87,"time":159.33072916666666,"velocity":0.3937007874015748},{"duration":0.17578125,"midi":34,"time":159.34375,"velocity":0.3937007874015748},{"duration":0.17578125,"midi":62,"time":159.37760416666666,"velocity":0.3937007874015748},{"duration":0.0703125,"midi":88,"time":159.390625,"velocity":0.3937007874015748},{"duration":0.1640625,"midi":88,"time":159.40104166666666,"velocity":0.3937007874015748},{"duration":0.05859375,"midi":87,"time":159.41276041666666,"velocity":0.3937007874015748},{"duration":0.1731770833333428,"midi":93,"time":159.44791666666666,"velocity":0.3937007874015748},{"duration":0.05989583333334281,"midi":51,"time":159.47135416666666,"velocity":0.3937007874015748},{"duration":0.05989583333334281,"midi":68,"time":159.47135416666666,"velocity":0.3937007874015748},{"duration":0.05989583333334281,"midi":91,"time":159.47135416666666,"velocity":0.3937007874015748},{"duration":0.05989583333334281,"midi":74,"time":159.47135416666666,"velocity":0.3937007874015748},{"duration":0.67578125,"midi":65,"time":159.49348958333334,"velocity":0.3937007874015748},{"duration":0.059895833333314386,"midi":50,"time":159.49348958333334,"velocity":0.3937007874015748},{"duration":0.05859375,"midi":61,"time":159.50651041666666,"velocity":0.3937007874015748},{"duration":0.1731770833333428,"midi":88,"time":159.51822916666666,"velocity":0.3937007874015748},{"duration":0.057291666666685614,"midi":34,"time":159.52994791666666,"velocity":0.3937007874015748},{"duration":0.1731770833333428,"midi":46,"time":159.54166666666666,"velocity":0.3937007874015748},{"duration":0.057291666666685614,"midi":53,"time":159.55338541666666,"velocity":0.3937007874015748},{"duration":0.1731770833333428,"midi":84,"time":159.55338541666666,"velocity":0.3937007874015748},{"duration":0.1744791666666572,"midi":62,"time":159.56380208333334,"velocity":0.3937007874015748},{"duration":0.1744791666666572,"midi":34,"time":159.59765625,"velocity":0.3937007874015748},{"duration":0.1731770833333428,"midi":93,"time":159.609375,"velocity":0.3937007874015748},{"duration":0.05859375,"midi":53,"time":159.609375,"velocity":0.3937007874015748},{"duration":0.05859375,"midi":91,"time":159.6328125,"velocity":0.3937007874015748},{"duration":0.05989583333334281,"midi":62,"time":159.67838541666666,"velocity":0.3937007874015748},{"duration":0.55078125,"midi":74,"time":159.69140625,"velocity":0.3937007874015748},{"duration":0.05859375,"midi":81,"time":159.69140625,"velocity":0.3937007874015748},{"duration":0.05859375,"midi":84,"time":159.69140625,"velocity":0.3937007874015748},{"duration":0.30078125,"midi":88,"time":159.69140625,"velocity":0.3937007874015748},{"duration":0.4283854166666856,"midi":86,"time":159.70182291666666,"velocity":0.3937007874015748},{"duration":0.19791666666668561,"midi":90,"time":159.70182291666666,"velocity":0.3937007874015748},{"duration":0.05989583333334281,"midi":46,"time":159.70182291666666,"velocity":0.3937007874015748},{"duration":0.05859375,"midi":69,"time":159.71354166666666,"velocity":0.3937007874015748},{"duration":0.17447916666668561,"midi":34,"time":159.71354166666666,"velocity":0.3937007874015748},{"duration":0.2786458333333428,"midi":90,"time":159.72526041666666,"velocity":0.3937007874015748},{"duration":0.05859375,"midi":84,"time":159.74869791666666,"velocity":0.3937007874015748},{"duration":0.05859375,"midi":81,"time":159.77213541666666,"velocity":0.3937007874015748},{"duration":0.3033854166666572,"midi":62,"time":159.79427083333334,"velocity":0.3937007874015748},{"duration":0.05859375,"midi":58,"time":159.80729166666666,"velocity":0.3937007874015748},{"duration":0.17708333333331439,"midi":84,"time":159.91145833333334,"velocity":0.3937007874015748},{"duration":0.1770833333333428,"midi":90,"time":159.92447916666666,"velocity":0.3937007874015748},{"duration":0.06119791666665719,"midi":59,"time":160.06380208333334,"velocity":0.3937007874015748},{"duration":0.06119791666665719,"midi":45,"time":160.06380208333334,"velocity":0.3937007874015748},{"duration":0.9205729166666572,"midi":86,"time":160.06380208333334,"velocity":0.3937007874015748},{"duration":0.05989583333334281,"midi":70,"time":160.07682291666666,"velocity":0.3937007874015748},{"duration":0.05859375,"midi":64,"time":160.08854166666666,"velocity":0.3937007874015748},{"duration":0.05859375,"midi":60,"time":160.08854166666666,"velocity":0.3937007874015748},{"duration":0.05859375,"midi":88,"time":160.08854166666666,"velocity":0.3937007874015748},{"duration":0.1731770833333428,"midi":46,"time":160.08854166666666,"velocity":0.3937007874015748},{"duration":0.1731770833333428,"midi":53,"time":160.08854166666666,"velocity":0.3937007874015748},{"duration":0.057291666666685614,"midi":65,"time":160.11197916666666,"velocity":0.3937007874015748},{"duration":0.057291666666685614,"midi":70,"time":160.13541666666666,"velocity":0.3937007874015748},{"duration":0.05859375,"midi":84,"time":160.14583333333334,"velocity":0.3937007874015748},{"duration":0.140625,"midi":65,"time":160.15755208333334,"velocity":0.3937007874015748},{"duration":0.1731770833333428,"midi":34,"time":160.1796875,"velocity":0.3937007874015748},{"duration":0.05859375,"midi":62,"time":160.19270833333334,"velocity":0.3937007874015748},{"duration":0.171875,"midi":84,"time":160.21484375,"velocity":0.3937007874015748},{"duration":0.171875,"midi":89,"time":160.21484375,"velocity":0.3937007874015748},{"duration":0.09244791666665719,"midi":65,"time":160.23828125,"velocity":0.3937007874015748},{"duration":0.05859375,"midi":69,"time":160.25,"velocity":0.3937007874015748},{"duration":0.421875,"midi":53,"time":160.26041666666666,"velocity":0.3937007874015748},{"duration":0.05859375,"midi":58,"time":160.26041666666666,"velocity":0.3937007874015748},{"duration":0.1705729166666572,"midi":74,"time":160.2734375,"velocity":0.3937007874015748},{"duration":0.05729166666665719,"midi":37,"time":160.2734375,"velocity":0.3937007874015748},{"duration":0.2942708333333428,"midi":58,"time":160.30859375,"velocity":0.3937007874015748},{"duration":0.1705729166666572,"midi":90,"time":160.30859375,"velocity":0.3937007874015748},{"duration":0.5481770833333428,"midi":46,"time":160.31901041666666,"velocity":0.3937007874015748},{"duration":0.057291666666685614,"midi":94,"time":160.31901041666666,"velocity":0.3937007874015748},{"duration":0.05729166666665719,"midi":33,"time":160.35286458333334,"velocity":0.3937007874015748},{"duration":0.05729166666665719,"midi":84,"time":160.35286458333334,"velocity":0.3937007874015748},{"duration":0.05729166666665719,"midi":35,"time":160.375,"velocity":0.3937007874015748},{"duration":0.1731770833333428,"midi":89,"time":160.38671875,"velocity":0.3937007874015748},{"duration":0.05859375,"midi":84,"time":160.40885416666666,"velocity":0.3937007874015748},{"duration":0.05859375,"midi":34,"time":160.40885416666666,"velocity":0.3937007874015748},{"duration":0.2994791666666856,"midi":94,"time":160.43229166666666,"velocity":0.3937007874015748},{"duration":0.1744791666666572,"midi":62,"time":160.44270833333334,"velocity":0.3937007874015748},{"duration":0.05859375,"midi":84,"time":160.50130208333334,"velocity":0.3937007874015748},{"duration":0.05859375,"midi":34,"time":160.5234375,"velocity":0.3937007874015748},{"duration":0.17578125,"midi":89,"time":160.53645833333334,"velocity":0.3937007874015748},{"duration":0.17578125,"midi":90,"time":160.53645833333334,"velocity":0.3937007874015748},{"duration":0.17578125,"midi":84,"time":160.58203125,"velocity":0.3937007874015748},{"duration":0.3020833333333428,"midi":34,"time":160.6171875,"velocity":0.3937007874015748},{"duration":0.05989583333334281,"midi":76,"time":160.62890625,"velocity":0.3937007874015748},{"duration":0.17578125,"midi":77,"time":160.62890625,"velocity":0.3937007874015748},{"duration":0.17578125,"midi":65,"time":160.640625,"velocity":0.3937007874015748},{"duration":0.1770833333333428,"midi":94,"time":160.69921875,"velocity":0.3937007874015748},{"duration":0.05989583333334281,"midi":88,"time":160.76953125,"velocity":0.3937007874015748},{"duration":0.17578125,"midi":77,"time":160.79166666666666,"velocity":0.3937007874015748},{"duration":0.05989583333334281,"midi":89,"time":160.828125,"velocity":0.3937007874015748},{"duration":0.05989583333334281,"midi":65,"time":160.8515625,"velocity":0.3937007874015748},{"duration":0.1744791666666572,"midi":34,"time":160.875,"velocity":0.3937007874015748},{"duration":0.1744791666666572,"midi":74,"time":160.875,"velocity":0.3937007874015748},{"duration":0.05729166666665719,"midi":93,"time":160.91015625,"velocity":0.3937007874015748},{"duration":0.06119791666665719,"midi":64,"time":161.02473958333334,"velocity":0.3937007874015748},{"duration":0.17317708333331439,"midi":70,"time":161.02473958333334,"velocity":0.3937007874015748},{"duration":0.05989583333334281,"midi":59,"time":161.03776041666666,"velocity":0.3937007874015748},{"duration":0.05989583333334281,"midi":68,"time":161.03776041666666,"velocity":0.3937007874015748},{"duration":0.05989583333334281,"midi":89,"time":161.04947916666666,"velocity":0.3937007874015748},{"duration":0.05989583333334281,"midi":76,"time":161.04947916666666,"velocity":0.3937007874015748},{"duration":0.17057291666668561,"midi":86,"time":161.06119791666666,"velocity":0.3937007874015748},{"duration":0.05859375,"midi":44,"time":161.06119791666666,"velocity":0.3937007874015748},{"duration":0.05859375,"midi":60,"time":161.06119791666666,"velocity":0.3937007874015748},{"duration":0.05729166666665719,"midi":42,"time":161.07421875,"velocity":0.3937007874015748},{"duration":0.05729166666665719,"midi":84,"time":161.07421875,"velocity":0.3937007874015748},{"duration":0.057291666666685614,"midi":61,"time":161.09635416666666,"velocity":0.3937007874015748},{"duration":0.057291666666685614,"midi":41,"time":161.09635416666666,"velocity":0.3937007874015748},{"duration":0.057291666666685614,"midi":40,"time":161.11979166666666,"velocity":0.3937007874015748},{"duration":0.05729166666665719,"midi":65,"time":161.13020833333334,"velocity":0.3937007874015748},{"duration":0.2981770833333428,"midi":77,"time":161.1640625,"velocity":0.3937007874015748},{"duration":0.05729166666665719,"midi":35,"time":161.1640625,"velocity":0.3937007874015748},{"duration":0.05729166666665719,"midi":39,"time":161.1875,"velocity":0.3937007874015748},{"duration":0.057291666666685614,"midi":61,"time":161.19791666666666,"velocity":0.3937007874015748},{"duration":0.05729166666665719,"midi":46,"time":161.22005208333334,"velocity":0.3937007874015748},{"duration":0.05729166666665719,"midi":60,"time":161.22005208333334,"velocity":0.3937007874015748},{"duration":0.05859375,"midi":64,"time":161.23177083333334,"velocity":0.3937007874015748},{"duration":0.05859375,"midi":45,"time":161.25390625,"velocity":0.3937007874015748},{"duration":0.05859375,"midi":58,"time":161.27734375,"velocity":0.3937007874015748},{"duration":0.05859375,"midi":47,"time":161.27734375,"velocity":0.3937007874015748},{"duration":0.05989583333334281,"midi":40,"time":161.32291666666666,"velocity":0.3937007874015748},{"duration":0.05989583333334281,"midi":70,"time":161.35807291666666,"velocity":0.3937007874015748},{"duration":0.1770833333333428,"midi":89,"time":161.40494791666666,"velocity":0.3937007874015748},{"duration":0.061197916666685614,"midi":42,"time":161.42838541666666,"velocity":0.3937007874015748},{"duration":0.1770833333333428,"midi":65,"time":161.42838541666666,"velocity":0.3937007874015748},{"duration":0.061197916666685614,"midi":57,"time":161.42838541666666,"velocity":0.3937007874015748},{"duration":0.30078125,"midi":74,"time":161.44010416666666,"velocity":0.3937007874015748},{"duration":0.05989583333334281,"midi":41,"time":161.453125,"velocity":0.3937007874015748},{"duration":0.17578125,"midi":57,"time":161.46484375,"velocity":0.3937007874015748},{"duration":0.05989583333334281,"midi":62,"time":161.46484375,"velocity":0.3937007874015748},{"duration":0.17578125,"midi":93,"time":161.46484375,"velocity":0.3937007874015748},{"duration":0.1744791666666572,"midi":62,"time":161.53515625,"velocity":0.3937007874015748},{"duration":0.1744791666666572,"midi":89,"time":161.5703125,"velocity":0.3937007874015748},{"duration":0.17447916666668561,"midi":53,"time":161.62760416666666,"velocity":0.3937007874015748},{"duration":0.05859375,"midi":46,"time":161.63932291666666,"velocity":0.3937007874015748},{"duration":0.17447916666668561,"midi":93,"time":161.63932291666666,"velocity":0.3937007874015748},{"duration":0.05859375,"midi":33,"time":161.72005208333334,"velocity":0.3937007874015748},{"duration":0.059895833333314386,"midi":60,"time":161.81380208333334,"velocity":0.3937007874015748},{"duration":0.059895833333314386,"midi":64,"time":161.81380208333334,"velocity":0.3937007874015748},{"duration":0.059895833333314386,"midi":77,"time":161.81380208333334,"velocity":0.3937007874015748},{"duration":0.059895833333314386,"midi":44,"time":161.83723958333334,"velocity":0.3937007874015748},{"duration":0.059895833333314386,"midi":69,"time":161.83723958333334,"velocity":0.3937007874015748},{"duration":0.05859375,"midi":63,"time":161.84895833333334,"velocity":0.3937007874015748},{"duration":0.17317708333331439,"midi":67,"time":161.86067708333334,"velocity":0.3937007874015748},{"duration":0.4231770833333144,"midi":45,"time":161.86067708333334,"velocity":0.3937007874015748},{"duration":0.05859375,"midi":56,"time":161.86067708333334,"velocity":0.3937007874015748},{"duration":0.17317708333331439,"midi":52,"time":161.86067708333334,"velocity":0.3937007874015748},{"duration":0.17317708333331439,"midi":88,"time":161.86067708333334,"velocity":0.3937007874015748},{"duration":0.171875,"midi":76,"time":161.87239583333334,"velocity":0.3937007874015748},{"duration":0.05859375,"midi":63,"time":161.88411458333334,"velocity":0.3937007874015748},{"duration":0.05859375,"midi":95,"time":161.90625,"velocity":0.3937007874015748},{"duration":0.1731770833333428,"midi":89,"time":161.90625,"velocity":0.3937007874015748},{"duration":0.1731770833333428,"midi":77,"time":161.9296875,"velocity":0.3937007874015748},{"duration":0.05859375,"midi":33,"time":161.97526041666666,"velocity":0.3937007874015748},{"duration":0.2994791666666856,"midi":90,"time":161.98697916666666,"velocity":0.3937007874015748},{"duration":0.1731770833333428,"midi":95,"time":162.01041666666666,"velocity":0.3937007874015748},{"duration":0.05859375,"midi":34,"time":162.01041666666666,"velocity":0.3937007874015748},{"duration":0.1731770833333428,"midi":91,"time":162.03385416666666,"velocity":0.3937007874015748},{"duration":0.1744791666666572,"midi":67,"time":162.04427083333334,"velocity":0.3937007874015748},{"duration":0.05859375,"midi":52,"time":162.05598958333334,"velocity":0.3937007874015748},{"duration":0.17447916666668561,"midi":33,"time":162.06901041666666,"velocity":0.3937007874015748},{"duration":0.1744791666666572,"midi":72,"time":162.07942708333334,"velocity":0.3937007874015748},{"duration":0.1744791666666572,"midi":81,"time":162.07942708333334,"velocity":0.3937007874015748},{"duration":0.17578125,"midi":85,"time":162.11458333333334,"velocity":0.3937007874015748},{"duration":0.1744791666666572,"midi":88,"time":162.13671875,"velocity":0.3937007874015748},{"duration":0.1744791666666572,"midi":33,"time":162.16015625,"velocity":0.3937007874015748},{"duration":0.05989583333334281,"midi":91,"time":162.18359375,"velocity":0.3937007874015748},{"duration":0.1731770833333428,"midi":76,"time":162.21744791666666,"velocity":0.3937007874015748},{"duration":0.4231770833333428,"midi":86,"time":162.21744791666666,"velocity":0.3937007874015748},{"duration":0.1731770833333428,"midi":91,"time":162.21744791666666,"velocity":0.3937007874015748},{"duration":0.1731770833333428,"midi":95,"time":162.23046875,"velocity":0.3937007874015748},{"duration":0.27734375,"midi":89,"time":162.23046875,"velocity":0.3937007874015748},{"duration":0.1731770833333428,"midi":88,"time":162.23046875,"velocity":0.3937007874015748},{"duration":0.05989583333334281,"midi":72,"time":162.23046875,"velocity":0.3937007874015748},{"duration":0.171875,"midi":90,"time":162.2421875,"velocity":0.3937007874015748},{"duration":0.1614583333333428,"midi":33,"time":162.2421875,"velocity":0.3937007874015748},{"duration":0.05859375,"midi":51,"time":162.2421875,"velocity":0.3937007874015748},{"duration":0.171875,"midi":70,"time":162.2421875,"velocity":0.3937007874015748},{"duration":0.05859375,"midi":83,"time":162.265625,"velocity":0.3937007874015748},{"duration":0.1731770833333428,"midi":84,"time":162.265625,"velocity":0.3937007874015748},{"duration":0.05729166666665719,"midi":66,"time":162.27734375,"velocity":0.3937007874015748},{"duration":0.1731770833333428,"midi":94,"time":162.27734375,"velocity":0.3937007874015748},{"duration":0.05598958333334281,"midi":57,"time":162.2890625,"velocity":0.3937007874015748},{"duration":0.1731770833333428,"midi":67,"time":162.30078125,"velocity":0.3937007874015748},{"duration":0.057291666666685614,"midi":48,"time":162.31119791666666,"velocity":0.3937007874015748},{"duration":0.1731770833333428,"midi":64,"time":162.32291666666666,"velocity":0.3937007874015748},{"duration":0.1731770833333428,"midi":88,"time":162.33463541666666,"velocity":0.3937007874015748},{"duration":0.1731770833333428,"midi":87,"time":162.33463541666666,"velocity":0.3937007874015748},{"duration":0.3190104166666856,"midi":89,"time":162.33463541666666,"velocity":0.3937007874015748},{"duration":0.05859375,"midi":60,"time":162.34505208333334,"velocity":0.3937007874015748},{"duration":0.06901041666665719,"midi":33,"time":162.34505208333334,"velocity":0.3937007874015748},{"duration":0.05989583333334281,"midi":58,"time":162.40234375,"velocity":0.3937007874015748},{"duration":0.05989583333334281,"midi":52,"time":162.4140625,"velocity":0.3937007874015748},{"duration":0.05989583333334281,"midi":33,"time":162.42578125,"velocity":0.3937007874015748},{"duration":0.05989583333334281,"midi":45,"time":162.42578125,"velocity":0.3937007874015748},{"duration":0.05859375,"midi":67,"time":162.4375,"velocity":0.3937007874015748},{"duration":0.4049479166666572,"midi":84,"time":162.45052083333334,"velocity":0.3937007874015748},{"duration":0.05729166666665719,"midi":91,"time":162.45052083333334,"velocity":0.3937007874015748},{"duration":0.05729166666665719,"midi":44,"time":162.45052083333334,"velocity":0.3937007874015748},{"duration":0.17317708333331439,"midi":64,"time":162.46223958333334,"velocity":0.3937007874015748},{"duration":0.17317708333331439,"midi":94,"time":162.46223958333334,"velocity":0.3937007874015748},{"duration":0.17317708333331439,"midi":70,"time":162.46223958333334,"velocity":0.3937007874015748},{"duration":0.1744791666666572,"midi":45,"time":162.47265625,"velocity":0.3937007874015748},{"duration":0.05859375,"midi":52,"time":162.49609375,"velocity":0.3937007874015748},{"duration":0.05989583333334281,"midi":33,"time":162.50651041666666,"velocity":0.3937007874015748},{"duration":0.1770833333333428,"midi":90,"time":162.50651041666666,"velocity":0.3937007874015748},{"duration":0.059895833333314386,"midi":72,"time":162.51692708333334,"velocity":0.3937007874015748},{"duration":0.05989583333334281,"midi":88,"time":162.52994791666666,"velocity":0.3937007874015748},{"duration":0.1770833333333428,"midi":89,"time":162.52994791666666,"velocity":0.3937007874015748},{"duration":0.05859375,"midi":51,"time":162.57682291666666,"velocity":0.3937007874015748},{"duration":0.296875,"midi":88,"time":162.61197916666666,"velocity":0.3937007874015748},{"duration":0.17578125,"midi":90,"time":162.61197916666666,"velocity":0.3937007874015748},{"duration":0.6145833333333428,"midi":88,"time":162.64713541666666,"velocity":0.3937007874015748},{"duration":0.2864583333333428,"midi":64,"time":162.64713541666666,"velocity":0.3937007874015748},{"duration":0.05989583333334281,"midi":51,"time":162.64713541666666,"velocity":0.3937007874015748},{"duration":0.1731770833333428,"midi":68,"time":162.65885416666666,"velocity":0.3937007874015748},{"duration":0.05989583333334281,"midi":79,"time":162.65885416666666,"velocity":0.3937007874015748},{"duration":0.05859375,"midi":94,"time":162.67057291666666,"velocity":0.3937007874015748},{"duration":0.171875,"midi":52,"time":162.68359375,"velocity":0.3937007874015748},{"duration":0.05729166666665719,"midi":60,"time":162.68359375,"velocity":0.3937007874015748},{"duration":0.17057291666668561,"midi":84,"time":162.70572916666666,"velocity":0.3937007874015748},{"duration":0.05859375,"midi":59,"time":162.72916666666666,"velocity":0.3937007874015748},{"duration":0.05859375,"midi":94,"time":162.73958333333334,"velocity":0.3937007874015748},{"duration":0.05859375,"midi":91,"time":162.76302083333334,"velocity":0.3937007874015748},{"duration":0.1705729166666572,"midi":86,"time":162.76302083333334,"velocity":0.3937007874015748},{"duration":0.05729166666665719,"midi":60,"time":162.77473958333334,"velocity":0.3937007874015748},{"duration":0.16927083333331439,"midi":89,"time":162.77473958333334,"velocity":0.3937007874015748},{"duration":0.05729166666665719,"midi":40,"time":162.78645833333334,"velocity":0.3937007874015748},{"duration":0.1953125,"midi":84,"time":162.79817708333334,"velocity":0.3937007874015748},{"duration":0.05729166666665719,"midi":60,"time":162.80859375,"velocity":0.3937007874015748},{"duration":0.05598958333334281,"midi":67,"time":162.8203125,"velocity":0.3937007874015748},{"duration":0.1692708333333428,"midi":95,"time":162.8203125,"velocity":0.3937007874015748},{"duration":0.1705729166666572,"midi":90,"time":162.83203125,"velocity":0.3937007874015748},{"duration":0.057291666666685614,"midi":53,"time":162.85416666666666,"velocity":0.3937007874015748},{"duration":0.05729166666665719,"midi":66,"time":162.86458333333334,"velocity":0.3937007874015748},{"duration":0.05729166666665719,"midi":59,"time":162.87630208333334,"velocity":0.3937007874015748},{"duration":0.06510416666665719,"midi":64,"time":162.87630208333334,"velocity":0.3937007874015748},{"duration":0.05729166666665719,"midi":68,"time":162.87630208333334,"velocity":0.3937007874015748},{"duration":0.05729166666665719,"midi":50,"time":162.87630208333334,"velocity":0.3937007874015748},{"duration":0.171875,"midi":79,"time":162.88671875,"velocity":0.3937007874015748},{"duration":0.05729166666665719,"midi":65,"time":162.8984375,"velocity":0.3937007874015748},{"duration":0.05729166666665719,"midi":51,"time":162.8984375,"velocity":0.3937007874015748},{"duration":0.05729166666665719,"midi":94,"time":162.8984375,"velocity":0.3937007874015748},{"duration":0.05729166666665719,"midi":60,"time":162.8984375,"velocity":0.3937007874015748},{"duration":0.055989583333314386,"midi":67,"time":162.91145833333334,"velocity":0.3937007874015748},{"duration":0.1705729166666572,"midi":89,"time":162.91145833333334,"velocity":0.3937007874015748},{"duration":0.05729166666665719,"midi":49,"time":162.921875,"velocity":0.3937007874015748},{"duration":0.1731770833333428,"midi":76,"time":162.93229166666666,"velocity":0.3937007874015748},{"duration":0.057291666666685614,"midi":48,"time":162.93229166666666,"velocity":0.3937007874015748},{"duration":0.1731770833333428,"midi":86,"time":162.94401041666666,"velocity":0.3937007874015748},{"duration":0.05859375,"midi":59,"time":162.94401041666666,"velocity":0.3937007874015748},{"duration":0.05859375,"midi":91,"time":162.94401041666666,"velocity":0.3937007874015748},{"duration":0.54296875,"midi":84,"time":162.95572916666666,"velocity":0.3937007874015748},{"duration":0.171875,"midi":72,"time":162.95572916666666,"velocity":0.3937007874015748},{"duration":0.05859375,"midi":46,"time":162.96614583333334,"velocity":0.3937007874015748},{"duration":0.17317708333331439,"midi":52,"time":162.96614583333334,"velocity":0.3937007874015748},{"duration":0.05859375,"midi":60,"time":162.96614583333334,"velocity":0.3937007874015748},{"duration":0.05859375,"midi":90,"time":162.98958333333334,"velocity":0.3937007874015748},{"duration":0.05729166666665719,"midi":45,"time":163.00130208333334,"velocity":0.3937007874015748},{"duration":0.05859375,"midi":59,"time":163.01171875,"velocity":0.3937007874015748},{"duration":0.4192708333333428,"midi":74,"time":163.03515625,"velocity":0.3937007874015748},{"duration":0.4192708333333428,"midi":86,"time":163.046875,"velocity":0.3937007874015748},{"duration":0.05859375,"midi":61,"time":163.046875,"velocity":0.3937007874015748},{"duration":0.2942708333333428,"midi":90,"time":163.05859375,"velocity":0.3937007874015748},{"duration":0.4205729166666572,"midi":90,"time":163.05859375,"velocity":0.3937007874015748},{"duration":0.05859375,"midi":64,"time":163.05859375,"velocity":0.3937007874015748},{"duration":0.05859375,"midi":51,"time":163.08072916666666,"velocity":0.3937007874015748},{"duration":0.05859375,"midi":93,"time":163.08072916666666,"velocity":0.3937007874015748},{"duration":0.057291666666685614,"midi":59,"time":163.09244791666666,"velocity":0.3937007874015748},{"duration":0.20572916666668561,"midi":88,"time":163.09244791666666,"velocity":0.3937007874015748},{"duration":0.05729166666665719,"midi":45,"time":163.10546875,"velocity":0.3937007874015748},{"duration":0.057291666666685614,"midi":60,"time":163.11588541666666,"velocity":0.3937007874015748},{"duration":0.057291666666685614,"midi":65,"time":163.11588541666666,"velocity":0.3937007874015748},{"duration":0.05729166666665719,"midi":51,"time":163.12630208333334,"velocity":0.3937007874015748},{"duration":0.17057291666668561,"midi":64,"time":163.13932291666666,"velocity":0.3937007874015748},{"duration":0.05729166666665719,"midi":60,"time":163.14973958333334,"velocity":0.3937007874015748},{"duration":0.05729166666665719,"midi":59,"time":163.17317708333334,"velocity":0.3937007874015748},{"duration":0.05729166666665719,"midi":51,"time":163.18359375,"velocity":0.3937007874015748},{"duration":0.057291666666685614,"midi":45,"time":163.19401041666666,"velocity":0.3937007874015748},{"duration":0.057291666666685614,"midi":44,"time":163.22916666666666,"velocity":0.3937007874015748},{"duration":0.057291666666685614,"midi":52,"time":163.22916666666666,"velocity":0.3937007874015748},{"duration":0.05859375,"midi":59,"time":163.23958333333334,"velocity":0.3937007874015748},{"duration":0.5703125,"midi":88,"time":163.23958333333334,"velocity":0.3937007874015748},{"duration":0.6770833333333144,"midi":76,"time":163.25130208333334,"velocity":0.3937007874015748},{"duration":0.17317708333331439,"midi":93,"time":163.25130208333334,"velocity":0.3937007874015748},{"duration":0.55078125,"midi":90,"time":163.2734375,"velocity":0.3937007874015748},{"duration":0.05859375,"midi":62,"time":163.2734375,"velocity":0.3937007874015748},{"duration":0.05859375,"midi":52,"time":163.28645833333334,"velocity":0.3937007874015748},{"duration":0.05859375,"midi":52,"time":163.33203125,"velocity":0.3937007874015748},{"duration":0.05989583333334281,"midi":51,"time":163.40104166666666,"velocity":0.3937007874015748},{"duration":0.4283854166666572,"midi":64,"time":163.42317708333334,"velocity":0.3937007874015748},{"duration":0.06119791666665719,"midi":46,"time":163.42317708333334,"velocity":0.3937007874015748},{"duration":0.1770833333333428,"midi":95,"time":163.43619791666666,"velocity":0.3937007874015748},{"duration":0.05989583333334281,"midi":83,"time":163.43619791666666,"velocity":0.3937007874015748},{"duration":0.05989583333334281,"midi":73,"time":163.43619791666666,"velocity":0.3937007874015748},{"duration":0.4283854166666856,"midi":57,"time":163.43619791666666,"velocity":0.3937007874015748},{"duration":0.1770833333333428,"midi":81,"time":163.44791666666666,"velocity":0.3937007874015748},{"duration":0.05989583333334281,"midi":79,"time":163.45963541666666,"velocity":0.3937007874015748},{"duration":0.30078125,"midi":92,"time":163.45963541666666,"velocity":0.3937007874015748},{"duration":0.05859375,"midi":45,"time":163.484375,"velocity":0.3937007874015748},{"duration":0.05989583333334281,"midi":86,"time":163.49479166666666,"velocity":0.3937007874015748},{"duration":0.05989583333334281,"midi":47,"time":163.49479166666666,"velocity":0.3937007874015748},{"duration":0.2994791666666856,"midi":83,"time":163.50651041666666,"velocity":0.3937007874015748},{"duration":0.05989583333334281,"midi":46,"time":163.50651041666666,"velocity":0.3937007874015748},{"duration":0.05989583333334281,"midi":72,"time":163.50651041666666,"velocity":0.3937007874015748},{"duration":0.05989583333334281,"midi":43,"time":163.54166666666666,"velocity":0.3937007874015748},{"duration":0.17447916666668561,"midi":45,"time":163.62369791666666,"velocity":0.3937007874015748},{"duration":0.17578125,"midi":95,"time":163.68229166666666,"velocity":0.3937007874015748},{"duration":0.1770833333333428,"midi":92,"time":163.71744791666666,"velocity":0.3937007874015748},{"duration":0.05859375,"midi":45,"time":163.73958333333334,"velocity":0.3937007874015748},{"duration":0.17708333333331439,"midi":72,"time":163.82161458333334,"velocity":0.3937007874015748},{"duration":0.9166666666666572,"midi":77,"time":163.82161458333334,"velocity":0.3937007874015748},{"duration":0.06119791666665719,"midi":61,"time":163.83333333333334,"velocity":0.3937007874015748},{"duration":0.3020833333333144,"midi":91,"time":163.83333333333334,"velocity":0.3937007874015748},{"duration":0.06119791666665719,"midi":51,"time":163.83333333333334,"velocity":0.3937007874015748},{"duration":0.4244791666666572,"midi":89,"time":163.83333333333334,"velocity":0.3937007874015748},{"duration":0.4244791666666572,"midi":93,"time":163.84505208333334,"velocity":0.3937007874015748},{"duration":0.17708333333331439,"midi":87,"time":163.84505208333334,"velocity":0.3937007874015748},{"duration":0.059895833333314386,"midi":65,"time":163.84505208333334,"velocity":0.3937007874015748},{"duration":0.2994791666666572,"midi":84,"time":163.85677083333334,"velocity":0.3937007874015748},{"duration":0.059895833333314386,"midi":60,"time":163.85677083333334,"velocity":0.3937007874015748},{"duration":0.05859375,"midi":90,"time":163.86979166666666,"velocity":0.3937007874015748},{"duration":0.05859375,"midi":41,"time":163.88151041666666,"velocity":0.3937007874015748},{"duration":0.05859375,"midi":64,"time":163.88151041666666,"velocity":0.3937007874015748},{"duration":0.17578125,"midi":57,"time":163.90494791666666,"velocity":0.3937007874015748},{"duration":0.05859375,"midi":44,"time":163.90494791666666,"velocity":0.3937007874015748},{"duration":0.4231770833333144,"midi":65,"time":163.92708333333334,"velocity":0.3937007874015748},{"duration":0.06119791666665719,"midi":44,"time":163.97265625,"velocity":0.3937007874015748},{"duration":0.06119791666665719,"midi":90,"time":163.98567708333334,"velocity":0.3937007874015748},{"duration":0.06119791666665719,"midi":45,"time":163.99739583333334,"velocity":0.3937007874015748},{"duration":0.059895833333314386,"midi":61,"time":164.00911458333334,"velocity":0.3937007874015748},{"duration":0.059895833333314386,"midi":88,"time":164.00911458333334,"velocity":0.3937007874015748},{"duration":0.05859375,"midi":44,"time":164.03385416666666,"velocity":0.3937007874015748},{"duration":0.05859375,"midi":40,"time":164.06901041666666,"velocity":0.3937007874015748},{"duration":0.05859375,"midi":57,"time":164.07942708333334,"velocity":0.3937007874015748},{"duration":0.17317708333331439,"midi":91,"time":164.07942708333334,"velocity":0.3937007874015748},{"duration":0.05729166666665719,"midi":44,"time":164.09114583333334,"velocity":0.3937007874015748},{"duration":0.05729166666665719,"midi":88,"time":164.09114583333334,"velocity":0.3937007874015748},{"duration":0.05729166666665719,"midi":40,"time":164.12630208333334,"velocity":0.3937007874015748},{"duration":0.05729166666665719,"midi":88,"time":164.13802083333334,"velocity":0.3937007874015748},{"duration":0.05859375,"midi":60,"time":164.1484375,"velocity":0.3937007874015748},{"duration":0.05859375,"midi":42,"time":164.171875,"velocity":0.3937007874015748},{"duration":0.05859375,"midi":41,"time":164.19401041666666,"velocity":0.3937007874015748},{"duration":0.05859375,"midi":90,"time":164.19401041666666,"velocity":0.3937007874015748},{"duration":0.05859375,"midi":40,"time":164.21744791666666,"velocity":0.3937007874015748},{"duration":0.2955729166666856,"midi":91,"time":164.22916666666666,"velocity":0.3937007874015748},{"duration":0.34375,"midi":86,"time":164.22916666666666,"velocity":0.3937007874015748},{"duration":0.4153645833333428,"midi":89,"time":164.22916666666666,"velocity":0.3937007874015748},{"duration":0.057291666666685614,"midi":67,"time":164.22916666666666,"velocity":0.3937007874015748},{"duration":0.4153645833333428,"midi":95,"time":164.22916666666666,"velocity":0.3937007874015748},{"duration":0.17317708333331439,"midi":88,"time":164.23958333333334,"velocity":0.3937007874015748},{"duration":0.05729166666665719,"midi":60,"time":164.23958333333334,"velocity":0.3937007874015748},{"duration":0.171875,"midi":52,"time":164.26302083333334,"velocity":0.3937007874015748},{"duration":0.05729166666665719,"midi":42,"time":164.27473958333334,"velocity":0.3937007874015748},{"duration":0.05859375,"midi":59,"time":164.28645833333334,"velocity":0.3937007874015748},{"duration":0.05989583333334281,"midi":41,"time":164.296875,"velocity":0.3937007874015748},{"duration":0.05989583333334281,"midi":65,"time":164.30729166666666,"velocity":0.3937007874015748},{"duration":0.05859375,"midi":59,"time":164.3203125,"velocity":0.3937007874015748},{"duration":0.4114583333333428,"midi":91,"time":164.3203125,"velocity":0.3937007874015748},{"duration":0.05859375,"midi":43,"time":164.33203125,"velocity":0.3937007874015748},{"duration":0.05729166666665719,"midi":40,"time":164.35546875,"velocity":0.3937007874015748},{"duration":0.05729166666665719,"midi":59,"time":164.35546875,"velocity":0.3937007874015748},{"duration":0.05729166666665719,"midi":65,"time":164.3671875,"velocity":0.3937007874015748},{"duration":0.171875,"midi":79,"time":164.3671875,"velocity":0.3937007874015748},{"duration":0.057291666666685614,"midi":60,"time":164.37760416666666,"velocity":0.3937007874015748},{"duration":0.057291666666685614,"midi":59,"time":164.40104166666666,"velocity":0.3937007874015748},{"duration":0.21744791666668561,"midi":86,"time":164.40104166666666,"velocity":0.3937007874015748},{"duration":0.05729166666665719,"midi":60,"time":164.42317708333334,"velocity":0.3937007874015748},{"duration":0.05989583333334281,"midi":40,"time":164.46744791666666,"velocity":0.3937007874015748},{"duration":0.05989583333334281,"midi":59,"time":164.46744791666666,"velocity":0.3937007874015748},{"duration":0.05859375,"midi":38,"time":164.48046875,"velocity":0.3937007874015748},{"duration":0.05989583333334281,"midi":52,"time":164.49088541666666,"velocity":0.3937007874015748},{"duration":0.05859375,"midi":36,"time":164.50260416666666,"velocity":0.3937007874015748},{"duration":0.171875,"midi":67,"time":164.50260416666666,"velocity":0.3937007874015748},{"duration":0.05729166666665719,"midi":53,"time":164.515625,"velocity":0.3937007874015748},{"duration":0.057291666666685614,"midi":65,"time":164.53776041666666,"velocity":0.3937007874015748},{"duration":0.057291666666685614,"midi":34,"time":164.53776041666666,"velocity":0.3937007874015748},{"duration":0.057291666666685614,"midi":52,"time":164.53776041666666,"velocity":0.3937007874015748},{"duration":0.057291666666685614,"midi":59,"time":164.53776041666666,"velocity":0.3937007874015748},{"duration":0.08333333333334281,"midi":86,"time":164.56119791666666,"velocity":0.3937007874015748},{"duration":0.515625,"midi":91,"time":164.56119791666666,"velocity":0.3937007874015748},{"duration":0.057291666666685614,"midi":36,"time":164.56119791666666,"velocity":0.3937007874015748},{"duration":0.05729166666665719,"midi":53,"time":164.57161458333334,"velocity":0.3937007874015748},{"duration":0.05729166666665719,"midi":58,"time":164.58203125,"velocity":0.3937007874015748},{"duration":0.05729166666665719,"midi":34,"time":164.6171875,"velocity":0.3937007874015748},{"duration":0.05729166666665719,"midi":55,"time":164.62890625,"velocity":0.3937007874015748},{"duration":0.05729166666665719,"midi":65,"time":164.62890625,"velocity":0.3937007874015748},{"duration":0.4192708333333428,"midi":88,"time":164.62890625,"velocity":0.3937007874015748},{"duration":0.171875,"midi":81,"time":164.62890625,"velocity":0.3937007874015748},{"duration":0.057291666666685614,"midi":74,"time":164.63932291666666,"velocity":0.3937007874015748},{"duration":0.17317708333331439,"midi":69,"time":164.64973958333334,"velocity":0.3937007874015748},{"duration":0.1731770833333428,"midi":72,"time":164.66276041666666,"velocity":0.3937007874015748},{"duration":0.05859375,"midi":65,"time":164.68489583333334,"velocity":0.3937007874015748},{"duration":0.05859375,"midi":86,"time":164.6953125,"velocity":0.3937007874015748},{"duration":0.05859375,"midi":35,"time":164.6953125,"velocity":0.3937007874015748},{"duration":0.05989583333334281,"midi":89,"time":164.70703125,"velocity":0.3937007874015748},{"duration":0.05859375,"midi":54,"time":164.71875,"velocity":0.3937007874015748},{"duration":0.05859375,"midi":36,"time":164.71875,"velocity":0.3937007874015748},{"duration":0.4010416666666572,"midi":76,"time":164.71875,"velocity":0.3937007874015748},{"duration":0.171875,"midi":64,"time":164.73046875,"velocity":0.3937007874015748},{"duration":0.05729166666665719,"midi":35,"time":164.74348958333334,"velocity":0.3937007874015748},{"duration":0.171875,"midi":85,"time":164.75390625,"velocity":0.3937007874015748},{"duration":0.171875,"midi":93,"time":164.77734375,"velocity":0.3937007874015748},{"duration":0.05859375,"midi":34,"time":164.77734375,"velocity":0.3937007874015748},{"duration":0.05859375,"midi":89,"time":164.78776041666666,"velocity":0.3937007874015748},{"duration":0.1731770833333428,"midi":72,"time":164.81119791666666,"velocity":0.3937007874015748},{"duration":0.05859375,"midi":53,"time":164.81119791666666,"velocity":0.3937007874015748},{"duration":0.057291666666685614,"midi":69,"time":164.82291666666666,"velocity":0.3937007874015748},{"duration":0.1731770833333428,"midi":45,"time":164.82291666666666,"velocity":0.3937007874015748},{"duration":0.057291666666685614,"midi":34,"time":164.83463541666666,"velocity":0.3937007874015748},{"duration":0.057291666666685614,"midi":52,"time":164.83463541666666,"velocity":0.3937007874015748},{"duration":0.29296875,"midi":81,"time":164.84505208333334,"velocity":0.3937007874015748},{"duration":0.05729166666665719,"midi":62,"time":164.84505208333334,"velocity":0.3937007874015748},{"duration":0.1744791666666572,"midi":85,"time":164.84505208333334,"velocity":0.3937007874015748},{"duration":0.17578125,"midi":94,"time":164.85677083333334,"velocity":0.3937007874015748},{"duration":0.05729166666665719,"midi":32,"time":164.86848958333334,"velocity":0.3937007874015748},{"duration":0.05729166666665719,"midi":87,"time":164.86848958333334,"velocity":0.3937007874015748},{"duration":0.05859375,"midi":63,"time":164.87890625,"velocity":0.3937007874015748},{"duration":0.1744791666666572,"midi":89,"time":164.90234375,"velocity":0.3937007874015748},{"duration":0.05989583333334281,"midi":52,"time":164.91276041666666,"velocity":0.3937007874015748},{"duration":0.17447916666668561,"midi":62,"time":164.91276041666666,"velocity":0.3937007874015748},{"duration":0.1536458333333428,"midi":86,"time":164.91276041666666,"velocity":0.3937007874015748},{"duration":0.171875,"midi":88,"time":164.94791666666666,"velocity":0.3937007874015748},{"duration":0.08333333333334281,"midi":90,"time":164.95963541666666,"velocity":0.3937007874015748},{"duration":0.05989583333334281,"midi":52,"time":164.97265625,"velocity":0.3937007874015748},{"duration":0.05989583333334281,"midi":71,"time":164.98307291666666,"velocity":0.3937007874015748},{"duration":0.05989583333334281,"midi":95,"time":164.98307291666666,"velocity":0.3937007874015748},{"duration":0.1263020833333428,"midi":90,"time":164.98307291666666,"velocity":0.3937007874015748},{"duration":0.16796875,"midi":87,"time":164.99479166666666,"velocity":0.3937007874015748},{"duration":0.05859375,"midi":67,"time":165.0078125,"velocity":0.3937007874015748},{"duration":0.14453125,"midi":84,"time":165.0078125,"velocity":0.3937007874015748},{"duration":0.07942708333334281,"midi":86,"time":165.0078125,"velocity":0.3937007874015748},{"duration":0.11067708333334281,"midi":91,"time":165.01953125,"velocity":0.3937007874015748},{"duration":0.05729166666665719,"midi":72,"time":165.01953125,"velocity":0.3937007874015748},{"duration":0.05598958333334281,"midi":41,"time":165.03125,"velocity":0.3937007874015748},{"duration":0.1653645833333428,"midi":89,"time":165.03125,"velocity":0.3937007874015748},{"duration":0.05598958333334281,"midi":94,"time":165.03125,"velocity":0.3937007874015748},{"duration":0.05598958333334281,"midi":37,"time":165.04296875,"velocity":0.3937007874015748},{"duration":0.05598958333334281,"midi":75,"time":165.04296875,"velocity":0.3937007874015748},{"duration":0.05598958333334281,"midi":60,"time":165.04296875,"velocity":0.3937007874015748},{"duration":0.07682291666668561,"midi":90,"time":165.05338541666666,"velocity":0.3937007874015748},{"duration":0.05598958333334281,"midi":82,"time":165.05338541666666,"velocity":0.3937007874015748},{"duration":0.16666666666668561,"midi":73,"time":165.05338541666666,"velocity":0.3937007874015748},{"duration":0.16666666666668561,"midi":92,"time":165.05338541666666,"velocity":0.3937007874015748},{"duration":0.0546875,"midi":63,"time":165.06510416666666,"velocity":0.3937007874015748},{"duration":0.0703125,"midi":76,"time":165.06510416666666,"velocity":0.3937007874015748},{"duration":0.0546875,"midi":58,"time":165.06510416666666,"velocity":0.3937007874015748},{"duration":0.109375,"midi":85,"time":165.06510416666666,"velocity":0.3937007874015748},{"duration":0.7890625,"midi":50,"time":165.07552083333334,"velocity":0.3937007874015748},{"duration":0.13411458333331439,"midi":91,"time":165.07552083333334,"velocity":0.3937007874015748},{"duration":0.0546875,"midi":35,"time":165.08723958333334,"velocity":0.3937007874015748},{"duration":0.4010416666666572,"midi":57,"time":165.08723958333334,"velocity":0.3937007874015748},{"duration":0.0546875,"midi":95,"time":165.08723958333334,"velocity":0.3937007874015748},{"duration":0.0546875,"midi":64,"time":165.09765625,"velocity":0.3937007874015748},{"duration":0.07682291666665719,"midi":84,"time":165.09765625,"velocity":0.3937007874015748},{"duration":0.0546875,"midi":66,"time":165.10807291666666,"velocity":0.3937007874015748},{"duration":0.0546875,"midi":94,"time":165.11979166666666,"velocity":0.3937007874015748},{"duration":0.11197916666668561,"midi":85,"time":165.11979166666666,"velocity":0.3937007874015748},{"duration":0.5286458333333428,"midi":90,"time":165.11979166666666,"velocity":0.3937007874015748},{"duration":0.0546875,"midi":76,"time":165.11979166666666,"velocity":0.3937007874015748},{"duration":0.0546875,"midi":78,"time":165.11979166666666,"velocity":0.3937007874015748},{"duration":0.171875,"midi":93,"time":165.140625,"velocity":0.3937007874015748},{"duration":0.05729166666665719,"midi":95,"time":165.15234375,"velocity":0.3937007874015748},{"duration":0.4205729166666572,"midi":74,"time":165.15234375,"velocity":0.3937007874015748},{"duration":0.05729166666665719,"midi":86,"time":165.15234375,"velocity":0.3937007874015748},{"duration":0.07421875,"midi":91,"time":165.15234375,"velocity":0.3937007874015748},{"duration":0.171875,"midi":69,"time":165.15234375,"velocity":0.3937007874015748},{"duration":0.05729166666665719,"midi":79,"time":165.15234375,"velocity":0.3937007874015748},{"duration":0.171875,"midi":84,"time":165.16276041666666,"velocity":0.3937007874015748},{"duration":0.06901041666668561,"midi":87,"time":165.16276041666666,"velocity":0.3937007874015748},{"duration":0.17317708333331439,"midi":80,"time":165.17317708333334,"velocity":0.3937007874015748},{"duration":0.16145833333331439,"midi":87,"time":165.17317708333334,"velocity":0.3937007874015748},{"duration":0.05859375,"midi":66,"time":165.19661458333334,"velocity":0.3937007874015748},{"duration":0.17317708333331439,"midi":89,"time":165.19661458333334,"velocity":0.3937007874015748},{"duration":0.1731770833333428,"midi":91,"time":165.21875,"velocity":0.3937007874015748},{"duration":0.05859375,"midi":85,"time":165.23177083333334,"velocity":0.3937007874015748},{"duration":0.05859375,"midi":93,"time":165.25390625,"velocity":0.3937007874015748},{"duration":0.1731770833333428,"midi":92,"time":165.25390625,"velocity":0.3937007874015748},{"duration":0.05859375,"midi":65,"time":165.265625,"velocity":0.3937007874015748},{"duration":0.2981770833333428,"midi":62,"time":165.30078125,"velocity":0.3937007874015748},{"duration":0.17578125,"midi":65,"time":165.30078125,"velocity":0.3937007874015748},{"duration":0.05859375,"midi":80,"time":165.34635416666666,"velocity":0.3937007874015748},{"duration":0.1744791666666572,"midi":93,"time":165.41536458333334,"velocity":0.3937007874015748},{"duration":0.1744791666666572,"midi":84,"time":165.41536458333334,"velocity":0.3937007874015748},{"duration":0.1744791666666572,"midi":79,"time":165.41536458333334,"velocity":0.3937007874015748},{"duration":0.06119791666665719,"midi":91,"time":165.42708333333334,"velocity":0.3937007874015748},{"duration":0.078125,"midi":57,"time":165.42708333333334,"velocity":0.3937007874015748},{"duration":0.1744791666666572,"midi":89,"time":165.42708333333334,"velocity":0.3937007874015748},{"duration":0.06119791666665719,"midi":68,"time":165.42708333333334,"velocity":0.3937007874015748},{"duration":0.2994791666666572,"midi":77,"time":165.43880208333334,"velocity":0.3937007874015748},{"duration":0.2994791666666572,"midi":81,"time":165.43880208333334,"velocity":0.3937007874015748},{"duration":0.059895833333314386,"midi":92,"time":165.45052083333334,"velocity":0.3937007874015748},{"duration":0.059895833333314386,"midi":87,"time":165.45052083333334,"velocity":0.3937007874015748},{"duration":0.059895833333314386,"midi":95,"time":165.45052083333334,"velocity":0.3937007874015748},{"duration":0.1731770833333428,"midi":67,"time":165.46354166666666,"velocity":0.3937007874015748},{"duration":0.1731770833333428,"midi":86,"time":165.46354166666666,"velocity":0.3937007874015748},{"duration":0.1731770833333428,"midi":91,"time":165.47526041666666,"velocity":0.3937007874015748},{"duration":0.4205729166666856,"midi":57,"time":165.47526041666666,"velocity":0.3937007874015748},{"duration":0.05859375,"midi":80,"time":165.49869791666666,"velocity":0.3937007874015748},{"duration":0.057291666666685614,"midi":88,"time":165.51041666666666,"velocity":0.3937007874015748},{"duration":0.17317708333331439,"midi":69,"time":165.52083333333334,"velocity":0.3937007874015748},{"duration":0.05729166666665719,"midi":66,"time":165.54427083333334,"velocity":0.3937007874015748},{"duration":0.1744791666666572,"midi":88,"time":165.56640625,"velocity":0.3937007874015748},{"duration":0.2109375,"midi":90,"time":165.58854166666666,"velocity":0.3937007874015748},{"duration":0.05989583333334281,"midi":66,"time":165.58854166666666,"velocity":0.3937007874015748},{"duration":0.54296875,"midi":74,"time":165.60026041666666,"velocity":0.3937007874015748},{"duration":0.05989583333334281,"midi":94,"time":165.62369791666666,"velocity":0.3937007874015748},{"duration":0.17447916666668561,"midi":84,"time":165.63541666666666,"velocity":0.3937007874015748},{"duration":0.17447916666668561,"midi":87,"time":165.63541666666666,"velocity":0.3937007874015748},{"duration":0.1731770833333428,"midi":69,"time":165.6484375,"velocity":0.3937007874015748},{"duration":0.1731770833333428,"midi":89,"time":165.6484375,"velocity":0.3937007874015748},{"duration":0.1731770833333428,"midi":91,"time":165.6484375,"velocity":0.3937007874015748},{"duration":0.05859375,"midi":65,"time":165.6484375,"velocity":0.3937007874015748},{"duration":0.1731770833333428,"midi":84,"time":165.6484375,"velocity":0.3937007874015748},{"duration":0.05859375,"midi":93,"time":165.6484375,"velocity":0.3937007874015748},{"duration":0.1731770833333428,"midi":88,"time":165.68229166666666,"velocity":0.3937007874015748},{"duration":0.296875,"midi":86,"time":165.68229166666666,"velocity":0.3937007874015748},{"duration":0.05989583333334281,"midi":85,"time":165.69401041666666,"velocity":0.3937007874015748},{"duration":0.05989583333334281,"midi":66,"time":165.69401041666666,"velocity":0.3937007874015748},{"duration":0.17447916666668561,"midi":88,"time":165.70572916666666,"velocity":0.3937007874015748},{"duration":0.05859375,"midi":94,"time":165.70572916666666,"velocity":0.3937007874015748},{"duration":0.1731770833333428,"midi":87,"time":165.72916666666666,"velocity":0.3937007874015748},{"duration":0.1731770833333428,"midi":67,"time":165.72916666666666,"velocity":0.3937007874015748},{"duration":0.171875,"midi":93,"time":165.74088541666666,"velocity":0.3937007874015748},{"duration":0.05859375,"midi":95,"time":165.74088541666666,"velocity":0.3937007874015748},{"duration":0.13932291666668561,"midi":90,"time":165.74088541666666,"velocity":0.3937007874015748},{"duration":0.057291666666685614,"midi":94,"time":165.75260416666666,"velocity":0.3937007874015748},{"duration":0.171875,"midi":89,"time":165.75260416666666,"velocity":0.3937007874015748},{"duration":0.1731770833333428,"midi":81,"time":165.76432291666666,"velocity":0.3937007874015748},{"duration":0.05859375,"midi":84,"time":165.78645833333334,"velocity":0.3937007874015748},{"duration":0.05989583333334281,"midi":88,"time":165.8203125,"velocity":0.3937007874015748},{"duration":0.05989583333334281,"midi":48,"time":165.8203125,"velocity":0.3937007874015748},{"duration":0.2669270833333428,"midi":90,"time":165.8203125,"velocity":0.3937007874015748},{"duration":0.05859375,"midi":83,"time":165.83203125,"velocity":0.3937007874015748},{"duration":0.1731770833333428,"midi":77,"time":165.83203125,"velocity":0.3937007874015748},{"duration":0.05729166666665719,"midi":84,"time":165.84505208333334,"velocity":0.3937007874015748},{"duration":0.05729166666665719,"midi":50,"time":165.84505208333334,"velocity":0.3937007874015748},{"duration":0.171875,"midi":69,"time":165.88020833333334,"velocity":0.3937007874015748},{"duration":0.05729166666665719,"midi":66,"time":165.88020833333334,"velocity":0.3937007874015748},{"duration":0.05859375,"midi":51,"time":165.890625,"velocity":0.3937007874015748},{"duration":0.05859375,"midi":65,"time":165.90104166666666,"velocity":0.3937007874015748},{"duration":0.05859375,"midi":94,"time":165.90104166666666,"velocity":0.3937007874015748},{"duration":0.5442708333333428,"midi":86,"time":165.92447916666666,"velocity":0.3937007874015748},{"duration":0.05859375,"midi":89,"time":165.93619791666666,"velocity":0.3937007874015748},{"duration":0.171875,"midi":62,"time":165.93619791666666,"velocity":0.3937007874015748},{"duration":0.2916666666666856,"midi":93,"time":165.95963541666666,"velocity":0.3937007874015748},{"duration":0.05859375,"midi":65,"time":165.97005208333334,"velocity":0.3937007874015748},{"duration":0.05859375,"midi":88,"time":166.00520833333334,"velocity":0.3937007874015748},{"duration":0.05859375,"midi":94,"time":166.02864583333334,"velocity":0.3937007874015748},{"duration":0.2486979166666572,"midi":90,"time":166.02864583333334,"velocity":0.3937007874015748},{"duration":0.05859375,"midi":84,"time":166.0390625,"velocity":0.3937007874015748},{"duration":0.1692708333333428,"midi":89,"time":166.0390625,"velocity":0.3937007874015748},{"duration":0.05729166666665719,"midi":52,"time":166.05078125,"velocity":0.3937007874015748},{"duration":0.1692708333333428,"midi":45,"time":166.05078125,"velocity":0.3937007874015748},{"duration":0.16796875,"midi":60,"time":166.0625,"velocity":0.3937007874015748},{"duration":0.16796875,"midi":65,"time":166.0625,"velocity":0.3937007874015748},{"duration":0.05598958333334281,"midi":91,"time":166.0625,"velocity":0.3937007874015748},{"duration":0.16796875,"midi":69,"time":166.0625,"velocity":0.3937007874015748},{"duration":0.05598958333334281,"midi":88,"time":166.07421875,"velocity":0.3937007874015748},{"duration":0.05598958333334281,"midi":95,"time":166.07421875,"velocity":0.3937007874015748},{"duration":0.05598958333334281,"midi":83,"time":166.07421875,"velocity":0.3937007874015748},{"duration":0.05598958333334281,"midi":76,"time":166.07421875,"velocity":0.3937007874015748},{"duration":0.0546875,"midi":92,"time":166.0859375,"velocity":0.3937007874015748},{"duration":0.05598958333334281,"midi":84,"time":166.09635416666666,"velocity":0.3937007874015748},{"duration":0.05598958333334281,"midi":32,"time":166.09635416666666,"velocity":0.3937007874015748},{"duration":0.05729166666665719,"midi":52,"time":166.11848958333334,"velocity":0.3937007874015748},{"duration":0.05729166666665719,"midi":87,"time":166.12890625,"velocity":0.3937007874015748},{"duration":0.171875,"midi":85,"time":166.12890625,"velocity":0.3937007874015748},{"duration":0.05729166666665719,"midi":78,"time":166.140625,"velocity":0.3937007874015748},{"duration":0.1731770833333428,"midi":94,"time":166.140625,"velocity":0.3937007874015748},{"duration":0.92578125,"midi":74,"time":166.140625,"velocity":0.3937007874015748},{"duration":0.057291666666685614,"midi":95,"time":166.16276041666666,"velocity":0.3937007874015748},{"duration":0.057291666666685614,"midi":84,"time":166.16276041666666,"velocity":0.3937007874015748},{"duration":0.057291666666685614,"midi":63,"time":166.18619791666666,"velocity":0.3937007874015748},{"duration":0.1744791666666572,"midi":93,"time":166.19661458333334,"velocity":0.3937007874015748},{"duration":0.3020833333333428,"midi":65,"time":166.20703125,"velocity":0.3937007874015748},{"duration":0.17578125,"midi":90,"time":166.20703125,"velocity":0.3937007874015748},{"duration":0.17578125,"midi":55,"time":166.23046875,"velocity":0.3937007874015748},{"duration":0.17578125,"midi":48,"time":166.23046875,"velocity":0.3937007874015748},{"duration":0.1770833333333428,"midi":69,"time":166.2890625,"velocity":0.3937007874015748},{"duration":0.05859375,"midi":62,"time":166.34765625,"velocity":0.3937007874015748},{"duration":0.05989583333334281,"midi":45,"time":166.40625,"velocity":0.3937007874015748},{"duration":0.05989583333334281,"midi":67,"time":166.40625,"velocity":0.3937007874015748},{"duration":0.17578125,"midi":90,"time":166.40625,"velocity":0.3937007874015748},{"duration":0.061197916666685614,"midi":93,"time":166.41666666666666,"velocity":0.3937007874015748},{"duration":0.061197916666685614,"midi":71,"time":166.41666666666666,"velocity":0.3937007874015748},{"duration":0.1875,"midi":87,"time":166.42838541666666,"velocity":0.3937007874015748},{"duration":0.061197916666685614,"midi":64,"time":166.42838541666666,"velocity":0.3937007874015748},{"duration":0.17578125,"midi":68,"time":166.42838541666666,"velocity":0.3937007874015748},{"duration":0.17578125,"midi":89,"time":166.42838541666666,"velocity":0.3937007874015748},{"duration":0.29296875,"midi":92,"time":166.42838541666666,"velocity":0.3937007874015748},{"duration":0.30078125,"midi":84,"time":166.44010416666666,"velocity":0.3937007874015748},{"duration":0.2890625,"midi":87,"time":166.44010416666666,"velocity":0.3937007874015748},{"duration":0.05989583333334281,"midi":52,"time":166.453125,"velocity":0.3937007874015748},{"duration":0.55078125,"midi":86,"time":166.453125,"velocity":0.3937007874015748},{"duration":0.1744791666666572,"midi":45,"time":166.453125,"velocity":0.3937007874015748},{"duration":0.1744791666666572,"midi":90,"time":166.5,"velocity":0.3937007874015748},{"duration":0.05859375,"midi":33,"time":166.5234375,"velocity":0.3937007874015748},{"duration":0.05859375,"midi":52,"time":166.5234375,"velocity":0.3937007874015748},{"duration":0.05859375,"midi":95,"time":166.5234375,"velocity":0.3937007874015748},{"duration":0.05859375,"midi":62,"time":166.55729166666666,"velocity":0.3937007874015748},{"duration":0.05989583333334281,"midi":65,"time":166.60416666666666,"velocity":0.3937007874015748},{"duration":0.05859375,"midi":89,"time":166.61588541666666,"velocity":0.3937007874015748},{"duration":0.05859375,"midi":88,"time":166.61588541666666,"velocity":0.3937007874015748},{"duration":0.17447916666668561,"midi":93,"time":166.61588541666666,"velocity":0.3937007874015748},{"duration":0.17578125,"midi":68,"time":166.62630208333334,"velocity":0.3937007874015748},{"duration":0.2994791666666856,"midi":62,"time":166.63932291666666,"velocity":0.3937007874015748},{"duration":0.05859375,"midi":81,"time":166.63932291666666,"velocity":0.3937007874015748},{"duration":0.05859375,"midi":90,"time":166.65104166666666,"velocity":0.3937007874015748},{"duration":0.06640625,"midi":92,"time":166.66276041666666,"velocity":0.3937007874015748},{"duration":0.5481770833333428,"midi":50,"time":166.66276041666666,"velocity":0.3937007874015748},{"duration":0.5481770833333428,"midi":57,"time":166.66276041666666,"velocity":0.3937007874015748},{"duration":0.1744791666666572,"midi":89,"time":166.67317708333334,"velocity":0.3937007874015748},{"duration":0.17578125,"midi":95,"time":166.68489583333334,"velocity":0.3937007874015748},{"duration":0.3880208333333144,"midi":90,"time":166.69661458333334,"velocity":0.3937007874015748},{"duration":0.17578125,"midi":79,"time":166.69661458333334,"velocity":0.3937007874015748},{"duration":0.17578125,"midi":67,"time":166.73177083333334,"velocity":0.3937007874015748},{"duration":0.05859375,"midi":37,"time":166.74348958333334,"velocity":0.3937007874015748},{"duration":0.1744791666666572,"midi":84,"time":166.74348958333334,"velocity":0.3937007874015748},{"duration":0.05989583333334281,"midi":66,"time":166.82421875,"velocity":0.3937007874015748},{"duration":0.05989583333334281,"midi":65,"time":166.84765625,"velocity":0.3937007874015748},{"duration":0.17578125,"midi":72,"time":166.84765625,"velocity":0.3937007874015748},{"duration":0.05859375,"midi":65,"time":166.89453125,"velocity":0.3937007874015748},{"duration":0.17578125,"midi":66,"time":166.97526041666666,"velocity":0.3937007874015748},{"duration":0.1744791666666572,"midi":86,"time":166.98828125,"velocity":0.3937007874015748},{"duration":0.06119791666665719,"midi":88,"time":167.0234375,"velocity":0.3937007874015748},{"duration":0.1510416666666572,"midi":90,"time":167.0234375,"velocity":0.3937007874015748},{"duration":0.1731770833333428,"midi":77,"time":167.0234375,"velocity":0.3937007874015748},{"duration":0.1731770833333428,"midi":74,"time":167.03515625,"velocity":0.3937007874015748},{"duration":0.05989583333334281,"midi":93,"time":167.046875,"velocity":0.3937007874015748},{"duration":0.05859375,"midi":84,"time":167.05859375,"velocity":0.3937007874015748},{"duration":0.1497395833333428,"midi":65,"time":167.05859375,"velocity":0.3937007874015748},{"duration":0.05729166666665719,"midi":87,"time":167.09375,"velocity":0.3937007874015748},{"duration":0.05729166666665719,"midi":85,"time":167.1171875,"velocity":0.3937007874015748},{"duration":0.2565104166666572,"midi":90,"time":167.1171875,"velocity":0.3937007874015748},{"duration":0.30078125,"midi":86,"time":167.12760416666666,"velocity":0.3937007874015748},{"duration":0.057291666666685614,"midi":66,"time":167.12760416666666,"velocity":0.3937007874015748},{"duration":0.057291666666685614,"midi":89,"time":167.15104166666666,"velocity":0.3937007874015748},{"duration":0.08072916666668561,"midi":65,"time":167.15104166666666,"velocity":0.3937007874015748},{"duration":0.17578125,"midi":92,"time":167.17317708333334,"velocity":0.3937007874015748},{"duration":0.17578125,"midi":64,"time":167.17317708333334,"velocity":0.3937007874015748},{"duration":0.3020833333333144,"midi":93,"time":167.18489583333334,"velocity":0.3937007874015748},{"duration":0.17708333333331439,"midi":83,"time":167.18489583333334,"velocity":0.3937007874015748},{"duration":0.06119791666665719,"midi":47,"time":167.20703125,"velocity":0.3937007874015748},{"duration":0.37890625,"midi":74,"time":167.22005208333334,"velocity":0.3937007874015748},{"duration":0.059895833333314386,"midi":46,"time":167.23177083333334,"velocity":0.3937007874015748},{"duration":0.17708333333331439,"midi":72,"time":167.23177083333334,"velocity":0.3937007874015748},{"duration":0.059895833333314386,"midi":60,"time":167.24348958333334,"velocity":0.3937007874015748},{"duration":0.296875,"midi":77,"time":167.24348958333334,"velocity":0.3937007874015748},{"duration":0.2955729166666856,"midi":84,"time":167.25651041666666,"velocity":0.3937007874015748},{"duration":0.17578125,"midi":47,"time":167.25651041666666,"velocity":0.3937007874015748},{"duration":0.05989583333334281,"midi":65,"time":167.25651041666666,"velocity":0.3937007874015748},{"duration":0.05989583333334281,"midi":91,"time":167.26822916666666,"velocity":0.3937007874015748},{"duration":0.059895833333314386,"midi":69,"time":167.27864583333334,"velocity":0.3937007874015748},{"duration":0.05989583333334281,"midi":60,"time":167.33854166666666,"velocity":0.3937007874015748},{"duration":0.05989583333334281,"midi":65,"time":167.33854166666666,"velocity":0.3937007874015748},{"duration":0.1731770833333428,"midi":91,"time":167.33854166666666,"velocity":0.3937007874015748},{"duration":0.15885416666668561,"midi":90,"time":167.37369791666666,"velocity":0.3937007874015748},{"duration":0.05859375,"midi":52,"time":167.38541666666666,"velocity":0.3937007874015748},{"duration":0.16796875,"midi":86,"time":167.39713541666666,"velocity":0.3937007874015748},{"duration":0.05859375,"midi":68,"time":167.40885416666666,"velocity":0.3937007874015748},{"duration":0.05859375,"midi":51,"time":167.40885416666666,"velocity":0.3937007874015748},{"duration":0.05859375,"midi":50,"time":167.43098958333334,"velocity":0.3937007874015748},{"duration":0.1666666666666572,"midi":69,"time":167.44270833333334,"velocity":0.3937007874015748},{"duration":0.05729166666665719,"midi":63,"time":167.44270833333334,"velocity":0.3937007874015748},{"duration":0.05729166666665719,"midi":60,"time":167.45442708333334,"velocity":0.3937007874015748},{"duration":0.055989583333314386,"midi":48,"time":167.46614583333334,"velocity":0.3937007874015748},{"duration":0.05598958333334281,"midi":92,"time":167.4765625,"velocity":0.3937007874015748},{"duration":0.06770833333334281,"midi":90,"time":167.4765625,"velocity":0.3937007874015748},{"duration":0.0546875,"midi":88,"time":167.48958333333334,"velocity":0.3937007874015748},{"duration":0.0546875,"midi":76,"time":167.48958333333334,"velocity":0.3937007874015748},{"duration":0.0546875,"midi":83,"time":167.5,"velocity":0.3937007874015748},{"duration":0.2916666666666856,"midi":93,"time":167.52213541666666,"velocity":0.3937007874015748},{"duration":0.05598958333334281,"midi":89,"time":167.52213541666666,"velocity":0.3937007874015748},{"duration":0.055989583333314386,"midi":87,"time":167.53255208333334,"velocity":0.3937007874015748},{"duration":0.4140625,"midi":84,"time":167.53255208333334,"velocity":0.3937007874015748},{"duration":0.05598958333334281,"midi":82,"time":167.54296875,"velocity":0.3937007874015748},{"duration":0.09635416666665719,"midi":74,"time":167.54296875,"velocity":0.3937007874015748},{"duration":0.057291666666685614,"midi":75,"time":167.56510416666666,"velocity":0.3937007874015748},{"duration":0.057291666666685614,"midi":50,"time":167.56510416666666,"velocity":0.3937007874015748},{"duration":0.05729166666665719,"midi":61,"time":167.58723958333334,"velocity":0.3937007874015748},{"duration":0.16927083333331439,"midi":81,"time":167.58723958333334,"velocity":0.3937007874015748},{"duration":0.16927083333331439,"midi":86,"time":167.58723958333334,"velocity":0.3937007874015748},{"duration":0.16927083333331439,"midi":74,"time":167.58723958333334,"velocity":0.3937007874015748},{"duration":0.05729166666665719,"midi":64,"time":167.58723958333334,"velocity":0.3937007874015748},{"duration":0.05729166666665719,"midi":49,"time":167.59895833333334,"velocity":0.3937007874015748},{"duration":0.05729166666665719,"midi":60,"time":167.609375,"velocity":0.3937007874015748},{"duration":0.05598958333334281,"midi":69,"time":167.62109375,"velocity":0.3937007874015748},{"duration":0.1705729166666572,"midi":48,"time":167.62109375,"velocity":0.3937007874015748},{"duration":0.05598958333334281,"midi":77,"time":167.62109375,"velocity":0.3937007874015748},{"duration":0.05598958333334281,"midi":57,"time":167.6328125,"velocity":0.3937007874015748},{"duration":0.05598958333334281,"midi":90,"time":167.64453125,"velocity":0.3937007874015748},{"duration":0.05598958333334281,"midi":65,"time":167.65494791666666,"velocity":0.3937007874015748},{"duration":0.17317708333331439,"midi":88,"time":167.66536458333334,"velocity":0.3937007874015748},{"duration":0.05729166666665719,"midi":57,"time":167.67708333333334,"velocity":0.3937007874015748},{"duration":0.5494791666666572,"midi":74,"time":167.67708333333334,"velocity":0.3937007874015748},{"duration":0.05729166666665719,"midi":89,"time":167.67708333333334,"velocity":0.3937007874015748},{"duration":0.1731770833333428,"midi":41,"time":167.6875,"velocity":0.3937007874015748},{"duration":0.05859375,"midi":62,"time":167.7109375,"velocity":0.3937007874015748},{"duration":0.1731770833333428,"midi":65,"time":167.73307291666666,"velocity":0.3937007874015748},{"duration":0.05989583333334281,"midi":93,"time":167.77994791666666,"velocity":0.3937007874015748},{"duration":0.171875,"midi":88,"time":167.79166666666666,"velocity":0.3937007874015748},{"duration":0.05859375,"midi":29,"time":167.79166666666666,"velocity":0.3937007874015748},{"duration":0.2981770833333428,"midi":72,"time":167.79166666666666,"velocity":0.3937007874015748},{"duration":0.171875,"midi":60,"time":167.80338541666666,"velocity":0.3937007874015748},{"duration":0.42578125,"midi":69,"time":167.80338541666666,"velocity":0.3937007874015748},{"duration":0.171875,"midi":57,"time":167.81510416666666,"velocity":0.3937007874015748},{"duration":0.1731770833333428,"midi":65,"time":167.83854166666666,"velocity":0.3937007874015748},{"duration":0.05729166666665719,"midi":40,"time":167.84895833333334,"velocity":0.3937007874015748},{"duration":0.05859375,"midi":41,"time":167.8828125,"velocity":0.3937007874015748},{"duration":0.17578125,"midi":93,"time":167.94140625,"velocity":0.3937007874015748},{"duration":0.061197916666685614,"midi":49,"time":167.98697916666666,"velocity":0.3937007874015748},{"duration":0.061197916666685614,"midi":89,"time":167.98697916666666,"velocity":0.3937007874015748},{"duration":0.061197916666685614,"midi":85,"time":167.98697916666666,"velocity":0.3937007874015748},{"duration":0.17578125,"midi":81,"time":167.99869791666666,"velocity":0.3937007874015748},{"duration":0.17578125,"midi":42,"time":168.01171875,"velocity":0.3937007874015748},{"duration":0.17578125,"midi":62,"time":168.0234375,"velocity":0.3937007874015748},{"duration":0.05859375,"midi":88,"time":168.0234375,"velocity":0.3937007874015748},{"duration":0.05859375,"midi":49,"time":168.05859375,"velocity":0.3937007874015748},{"duration":0.17578125,"midi":65,"time":168.08072916666666,"velocity":0.3937007874015748},{"duration":0.05989583333334281,"midi":30,"time":168.09244791666666,"velocity":0.3937007874015748},{"duration":0.3020833333333428,"midi":72,"time":168.10416666666666,"velocity":0.3937007874015748},{"duration":0.05989583333334281,"midi":61,"time":168.10416666666666,"velocity":0.3937007874015748},{"duration":0.061197916666685614,"midi":67,"time":168.17447916666666,"velocity":0.3937007874015748},{"duration":0.061197916666685614,"midi":63,"time":168.17447916666666,"velocity":0.3937007874015748},{"duration":0.061197916666685614,"midi":59,"time":168.17447916666666,"velocity":0.3937007874015748},{"duration":0.05989583333334281,"midi":88,"time":168.18619791666666,"velocity":0.3937007874015748},{"duration":0.17447916666668561,"midi":87,"time":168.18619791666666,"velocity":0.3937007874015748},{"duration":0.17447916666668561,"midi":92,"time":168.19791666666666,"velocity":0.3937007874015748},{"duration":0.05859375,"midi":41,"time":168.2109375,"velocity":0.3937007874015748},{"duration":0.1744791666666572,"midi":68,"time":168.2109375,"velocity":0.3937007874015748},{"duration":0.05859375,"midi":63,"time":168.2109375,"velocity":0.3937007874015748},{"duration":0.1744791666666572,"midi":84,"time":168.2109375,"velocity":0.3937007874015748},{"duration":0.1744791666666572,"midi":90,"time":168.22265625,"velocity":0.3937007874015748},{"duration":0.05859375,"midi":60,"time":168.22265625,"velocity":0.3937007874015748},{"duration":0.4244791666666572,"midi":50,"time":168.24609375,"velocity":0.3937007874015748},{"duration":0.05859375,"midi":65,"time":168.24609375,"velocity":0.3937007874015748},{"duration":0.05859375,"midi":74,"time":168.25651041666666,"velocity":0.3937007874015748},{"duration":0.2825520833333428,"midi":43,"time":168.25651041666666,"velocity":0.3937007874015748},{"duration":0.05859375,"midi":59,"time":168.29166666666666,"velocity":0.3937007874015748},{"duration":0.3033854166666572,"midi":65,"time":168.31380208333334,"velocity":0.3937007874015748},{"duration":0.1783854166666572,"midi":70,"time":168.36067708333334,"velocity":0.3937007874015748},{"duration":0.059895833333314386,"midi":31,"time":168.43098958333334,"velocity":0.3937007874015748},{"duration":0.1770833333333428,"midi":95,"time":168.44401041666666,"velocity":0.3937007874015748},{"duration":0.1770833333333428,"midi":79,"time":168.44401041666666,"velocity":0.3937007874015748},{"duration":0.05989583333334281,"midi":68,"time":168.44401041666666,"velocity":0.3937007874015748},{"duration":0.1770833333333428,"midi":89,"time":168.44401041666666,"velocity":0.3937007874015748},{"duration":0.2981770833333428,"midi":86,"time":168.45572916666666,"velocity":0.3937007874015748},{"duration":0.421875,"midi":70,"time":168.45572916666666,"velocity":0.3937007874015748},{"duration":0.5338541666666856,"midi":86,"time":168.47916666666666,"velocity":0.3937007874015748},{"duration":0.07942708333334281,"midi":43,"time":168.47916666666666,"velocity":0.3937007874015748},{"duration":0.05989583333334281,"midi":31,"time":168.56119791666666,"velocity":0.3937007874015748},{"duration":0.421875,"midi":74,"time":168.56119791666666,"velocity":0.3937007874015748},{"duration":0.171875,"midi":84,"time":168.57291666666666,"velocity":0.3937007874015748},{"duration":0.05859375,"midi":88,"time":168.57291666666666,"velocity":0.3937007874015748},{"duration":0.421875,"midi":62,"time":168.58463541666666,"velocity":0.3937007874015748},{"duration":0.171875,"midi":90,"time":168.58463541666666,"velocity":0.3937007874015748},{"duration":0.057291666666685614,"midi":81,"time":168.58463541666666,"velocity":0.3937007874015748},{"duration":0.171875,"midi":55,"time":168.58463541666666,"velocity":0.3937007874015748},{"duration":0.2942708333333428,"midi":89,"time":168.59765625,"velocity":0.3937007874015748},{"duration":0.05598958333334281,"midi":78,"time":168.59765625,"velocity":0.3937007874015748},{"duration":0.2942708333333428,"midi":77,"time":168.63151041666666,"velocity":0.3937007874015748},{"duration":0.2955729166666572,"midi":72,"time":168.64192708333334,"velocity":0.3937007874015748},{"duration":0.05859375,"midi":93,"time":168.65234375,"velocity":0.3937007874015748},{"duration":0.05859375,"midi":79,"time":168.7109375,"velocity":0.3937007874015748},{"duration":0.1731770833333428,"midi":65,"time":168.7109375,"velocity":0.3937007874015748},{"duration":0.1731770833333428,"midi":91,"time":168.72135416666666,"velocity":0.3937007874015748},{"duration":0.1731770833333428,"midi":93,"time":168.74479166666666,"velocity":0.3937007874015748},{"duration":0.171875,"midi":84,"time":168.76822916666666,"velocity":0.3937007874015748},{"duration":0.05859375,"midi":56,"time":168.77994791666666,"velocity":0.3937007874015748},{"duration":0.05859375,"midi":66,"time":168.80208333333334,"velocity":0.3937007874015748},{"duration":0.1744791666666572,"midi":57,"time":168.80208333333334,"velocity":0.3937007874015748},{"duration":0.17578125,"midi":70,"time":168.82552083333334,"velocity":0.3937007874015748},{"duration":0.05859375,"midi":65,"time":168.82552083333334,"velocity":0.3937007874015748},{"duration":0.17578125,"midi":88,"time":168.84765625,"velocity":0.3937007874015748},{"duration":0.05859375,"midi":85,"time":168.84765625,"velocity":0.3937007874015748},{"duration":0.17578125,"midi":86,"time":168.84765625,"velocity":0.3937007874015748},{"duration":0.05729166666665719,"midi":90,"time":168.86067708333334,"velocity":0.3937007874015748},{"duration":0.05729166666665719,"midi":66,"time":168.86067708333334,"velocity":0.3937007874015748},{"duration":0.1770833333333428,"midi":95,"time":168.89453125,"velocity":0.3937007874015748},{"duration":0.1770833333333428,"midi":67,"time":168.89453125,"velocity":0.3937007874015748},{"duration":0.1770833333333428,"midi":89,"time":168.89453125,"velocity":0.3937007874015748},{"duration":0.17578125,"midi":65,"time":168.90625,"velocity":0.3937007874015748},{"duration":0.07552083333334281,"midi":86,"time":168.95182291666666,"velocity":0.3937007874015748},{"duration":0.05989583333334281,"midi":58,"time":168.96354166666666,"velocity":0.3937007874015748},{"duration":0.05989583333334281,"midi":68,"time":168.9765625,"velocity":0.3937007874015748},{"duration":0.05989583333334281,"midi":93,"time":168.9765625,"velocity":0.3937007874015748},{"duration":0.05989583333334281,"midi":74,"time":168.9765625,"velocity":0.3937007874015748},{"duration":0.05989583333334281,"midi":50,"time":168.98828125,"velocity":0.3937007874015748},{"duration":0.05989583333334281,"midi":75,"time":168.98828125,"velocity":0.3937007874015748},{"duration":0.05989583333334281,"midi":84,"time":169,"velocity":0.3937007874015748},{"duration":0.17578125,"midi":70,"time":169,"velocity":0.3937007874015748},{"duration":0.05859375,"midi":67,"time":169.01302083333334,"velocity":0.3937007874015748},{"duration":0.1770833333333428,"midi":65,"time":169.0234375,"velocity":0.3937007874015748},{"duration":0.05859375,"midi":48,"time":169.03515625,"velocity":0.3937007874015748},{"duration":0.05859375,"midi":57,"time":169.03515625,"velocity":0.3937007874015748},{"duration":0.05859375,"midi":61,"time":169.03515625,"velocity":0.3937007874015748},{"duration":0.1770833333333428,"midi":62,"time":169.12890625,"velocity":0.3937007874015748},{"duration":0.06119791666665719,"midi":71,"time":169.1875,"velocity":0.3937007874015748},{"duration":0.11848958333334281,"midi":84,"time":169.1875,"velocity":0.3937007874015748},{"duration":0.1744791666666572,"midi":55,"time":169.1875,"velocity":0.3937007874015748},{"duration":0.1744791666666572,"midi":94,"time":169.1875,"velocity":0.3937007874015748},{"duration":0.06119791666665719,"midi":43,"time":169.1875,"velocity":0.3937007874015748},{"duration":0.06119791666665719,"midi":88,"time":169.19921875,"velocity":0.3937007874015748},{"duration":0.06119791666665719,"midi":66,"time":169.19921875,"velocity":0.3937007874015748},{"duration":0.059895833333314386,"midi":72,"time":169.21223958333334,"velocity":0.3937007874015748},{"duration":0.059895833333314386,"midi":89,"time":169.21223958333334,"velocity":0.3937007874015748},{"duration":0.059895833333314386,"midi":93,"time":169.21223958333334,"velocity":0.3937007874015748},{"duration":0.059895833333314386,"midi":89,"time":169.22395833333334,"velocity":0.3937007874015748},{"duration":0.059895833333314386,"midi":77,"time":169.22395833333334,"velocity":0.3937007874015748},{"duration":0.171875,"midi":43,"time":169.22395833333334,"velocity":0.3937007874015748},{"duration":0.059895833333314386,"midi":87,"time":169.22395833333334,"velocity":0.3937007874015748},{"duration":0.171875,"midi":67,"time":169.22395833333334,"velocity":0.3937007874015748},{"duration":0.059895833333314386,"midi":86,"time":169.22395833333334,"velocity":0.3937007874015748},{"duration":0.05859375,"midi":65,"time":169.23567708333334,"velocity":0.3937007874015748},{"duration":0.11328125,"midi":84,"time":169.24869791666666,"velocity":0.3937007874015748},{"duration":0.05729166666665719,"midi":90,"time":169.27083333333334,"velocity":0.3937007874015748},{"duration":0.05729166666665719,"midi":78,"time":169.27083333333334,"velocity":0.3937007874015748},{"duration":0.05729166666665719,"midi":88,"time":169.29427083333334,"velocity":0.3937007874015748},{"duration":0.05729166666665719,"midi":91,"time":169.3046875,"velocity":0.3937007874015748},{"duration":0.05859375,"midi":77,"time":169.31510416666666,"velocity":0.3937007874015748},{"duration":0.05729166666665719,"midi":90,"time":169.328125,"velocity":0.3937007874015748},{"duration":0.057291666666685614,"midi":65,"time":169.33854166666666,"velocity":0.3937007874015748},{"duration":0.05598958333334281,"midi":92,"time":169.35026041666666,"velocity":0.3937007874015748},{"duration":0.05598958333334281,"midi":88,"time":169.35026041666666,"velocity":0.3937007874015748},{"duration":0.05598958333334281,"midi":76,"time":169.35026041666666,"velocity":0.3937007874015748},{"duration":0.057291666666685614,"midi":64,"time":169.36197916666666,"velocity":0.3937007874015748},{"duration":0.05729166666665719,"midi":77,"time":169.38411458333334,"velocity":0.3937007874015748},{"duration":0.05859375,"midi":62,"time":169.39583333333334,"velocity":0.3937007874015748},{"duration":0.1770833333333428,"midi":65,"time":169.40625,"velocity":0.3937007874015748},{"duration":0.061197916666685614,"midi":62,"time":169.52213541666666,"velocity":0.3937007874015748},{"duration":0.05989583333334281,"midi":89,"time":169.53385416666666,"velocity":0.3937007874015748},{"duration":0.4231770833333428,"midi":68,"time":169.53385416666666,"velocity":0.3937007874015748},{"duration":0.05989583333334281,"midi":95,"time":169.53385416666666,"velocity":0.3937007874015748},{"duration":0.05859375,"midi":77,"time":169.54557291666666,"velocity":0.3937007874015748},{"duration":0.05859375,"midi":91,"time":169.54557291666666,"velocity":0.3937007874015748},{"duration":0.05859375,"midi":51,"time":169.55859375,"velocity":0.3937007874015748},{"duration":0.05859375,"midi":44,"time":169.5703125,"velocity":0.3937007874015748},{"duration":0.05859375,"midi":64,"time":169.5703125,"velocity":0.3937007874015748},{"duration":0.296875,"midi":87,"time":169.5703125,"velocity":0.3937007874015748},{"duration":0.421875,"midi":92,"time":169.5703125,"velocity":0.3937007874015748},{"duration":0.421875,"midi":87,"time":169.58203125,"velocity":0.3937007874015748},{"duration":0.05729166666665719,"midi":84,"time":169.58203125,"velocity":0.3937007874015748},{"duration":0.05729166666665719,"midi":70,"time":169.58203125,"velocity":0.3937007874015748},{"duration":0.265625,"midi":90,"time":169.59375,"velocity":0.3937007874015748},{"duration":0.1731770833333428,"midi":65,"time":169.59375,"velocity":0.3937007874015748},{"duration":0.05859375,"midi":36,"time":169.60416666666666,"velocity":0.3937007874015748},{"duration":0.05859375,"midi":50,"time":169.60416666666666,"velocity":0.3937007874015748},{"duration":0.1731770833333428,"midi":43,"time":169.63932291666666,"velocity":0.3937007874015748},{"duration":0.059895833333314386,"midi":29,"time":169.64973958333334,"velocity":0.3937007874015748},{"duration":0.05859375,"midi":50,"time":169.68489583333334,"velocity":0.3937007874015748},{"duration":0.05859375,"midi":31,"time":169.72005208333334,"velocity":0.3937007874015748},{"duration":0.05859375,"midi":62,"time":169.74348958333334,"velocity":0.3937007874015748},{"duration":0.05859375,"midi":50,"time":169.765625,"velocity":0.3937007874015748},{"duration":0.05859375,"midi":84,"time":169.77864583333334,"velocity":0.3937007874015748},{"duration":0.05859375,"midi":77,"time":169.77864583333334,"velocity":0.3937007874015748},{"duration":0.05859375,"midi":40,"time":169.77864583333334,"velocity":0.3937007874015748},{"duration":0.05859375,"midi":60,"time":169.77864583333334,"velocity":0.3937007874015748},{"duration":0.1744791666666572,"midi":62,"time":169.80078125,"velocity":0.3937007874015748},{"duration":0.08984375,"midi":90,"time":169.80078125,"velocity":0.3937007874015748},{"duration":0.1744791666666572,"midi":50,"time":169.82421875,"velocity":0.3937007874015748},{"duration":0.4244791666666572,"midi":43,"time":169.82421875,"velocity":0.3937007874015748},{"duration":0.17447916666668561,"midi":89,"time":169.84635416666666,"velocity":0.3937007874015748},{"duration":0.059895833333314386,"midi":31,"time":169.91536458333334,"velocity":0.3937007874015748},{"duration":0.059895833333314386,"midi":67,"time":169.93880208333334,"velocity":0.3937007874015748},{"duration":0.059895833333314386,"midi":92,"time":169.95052083333334,"velocity":0.3937007874015748},{"duration":0.17578125,"midi":72,"time":169.96223958333334,"velocity":0.3937007874015748},{"duration":0.05859375,"midi":79,"time":169.97526041666666,"velocity":0.3937007874015748},{"duration":0.17578125,"midi":60,"time":169.97526041666666,"velocity":0.3937007874015748},{"duration":0.059895833333314386,"midi":31,"time":169.98567708333334,"velocity":0.3937007874015748},{"duration":0.059895833333314386,"midi":67,"time":169.98567708333334,"velocity":0.3937007874015748},{"duration":0.059895833333314386,"midi":91,"time":169.98567708333334,"velocity":0.3937007874015748},{"duration":0.17578125,"midi":50,"time":170.01041666666666,"velocity":0.3937007874015748},{"duration":0.14192708333331439,"midi":31,"time":170.03255208333334,"velocity":0.3937007874015748},{"duration":0.059895833333314386,"midi":65,"time":170.03255208333334,"velocity":0.3937007874015748},{"duration":0.059895833333314386,"midi":68,"time":170.06770833333334,"velocity":0.3937007874015748},{"duration":0.059895833333314386,"midi":59,"time":170.11458333333334,"velocity":0.3937007874015748},{"duration":0.09375,"midi":31,"time":170.11458333333334,"velocity":0.3937007874015748},{"duration":0.05859375,"midi":65,"time":170.12760416666666,"velocity":0.3937007874015748},{"duration":0.05859375,"midi":93,"time":170.14973958333334,"velocity":0.3937007874015748},{"duration":0.05859375,"midi":87,"time":170.16145833333334,"velocity":0.3937007874015748},{"duration":0.171875,"midi":87,"time":170.16145833333334,"velocity":0.3937007874015748},{"duration":0.05859375,"midi":66,"time":170.16145833333334,"velocity":0.3937007874015748},{"duration":0.05859375,"midi":90,"time":170.16145833333334,"velocity":0.3937007874015748},{"duration":0.057291666666685614,"midi":74,"time":170.17447916666666,"velocity":0.3937007874015748},{"duration":0.057291666666685614,"midi":90,"time":170.17447916666666,"velocity":0.3937007874015748},{"duration":0.171875,"midi":93,"time":170.18489583333334,"velocity":0.3937007874015748},{"duration":0.171875,"midi":77,"time":170.18489583333334,"velocity":0.3937007874015748},{"duration":0.05859375,"midi":57,"time":170.18489583333334,"velocity":0.3937007874015748},{"duration":0.171875,"midi":89,"time":170.1953125,"velocity":0.3937007874015748},{"duration":0.05859375,"midi":75,"time":170.1953125,"velocity":0.3937007874015748},{"duration":0.05729166666665719,"midi":84,"time":170.20833333333334,"velocity":0.3937007874015748},{"duration":0.171875,"midi":65,"time":170.20833333333334,"velocity":0.3937007874015748},{"duration":0.05729166666665719,"midi":44,"time":170.23046875,"velocity":0.3937007874015748},{"duration":0.1731770833333428,"midi":43,"time":170.26432291666666,"velocity":0.3937007874015748},{"duration":0.05859375,"midi":30,"time":170.27604166666666,"velocity":0.3937007874015748},{"duration":0.1731770833333428,"midi":50,"time":170.28776041666666,"velocity":0.3937007874015748},{"duration":0.05859375,"midi":31,"time":170.29817708333334,"velocity":0.3937007874015748},{"duration":0.05989583333334281,"midi":77,"time":170.34375,"velocity":0.3937007874015748},{"duration":0.17578125,"midi":31,"time":170.35677083333334,"velocity":0.3937007874015748},{"duration":0.296875,"midi":72,"time":170.35677083333334,"velocity":0.3937007874015748},{"duration":0.05989583333334281,"midi":89,"time":170.3671875,"velocity":0.3937007874015748},{"duration":0.1770833333333428,"midi":60,"time":170.3671875,"velocity":0.3937007874015748},{"duration":0.05989583333334281,"midi":94,"time":170.3671875,"velocity":0.3937007874015748},{"duration":0.05989583333334281,"midi":84,"time":170.3671875,"velocity":0.3937007874015748},{"duration":0.05859375,"midi":86,"time":170.39192708333334,"velocity":0.3937007874015748},{"duration":0.17578125,"midi":93,"time":170.4140625,"velocity":0.3937007874015748},{"duration":0.05859375,"midi":70,"time":170.4140625,"velocity":0.3937007874015748},{"duration":0.06119791666665719,"midi":43,"time":170.5078125,"velocity":0.3937007874015748},{"duration":0.05989583333334281,"midi":59,"time":170.51953125,"velocity":0.3937007874015748},{"duration":0.05859375,"midi":66,"time":170.53125,"velocity":0.3937007874015748},{"duration":0.05729166666665719,"midi":79,"time":170.54296875,"velocity":0.3937007874015748},{"duration":0.05729166666665719,"midi":63,"time":170.54296875,"velocity":0.3937007874015748},{"duration":0.05729166666665719,"midi":51,"time":170.55598958333334,"velocity":0.3937007874015748},{"duration":0.05729166666665719,"midi":68,"time":170.55598958333334,"velocity":0.3937007874015748},{"duration":0.055989583333314386,"midi":64,"time":170.56770833333334,"velocity":0.3937007874015748},{"duration":0.055989583333314386,"midi":76,"time":170.56770833333334,"velocity":0.3937007874015748},{"duration":0.055989583333314386,"midi":60,"time":170.56770833333334,"velocity":0.3937007874015748},{"duration":0.16796875,"midi":81,"time":170.56770833333334,"velocity":0.3937007874015748},{"duration":0.055989583333314386,"midi":90,"time":170.56770833333334,"velocity":0.3937007874015748},{"duration":0.055989583333314386,"midi":86,"time":170.56770833333334,"velocity":0.3937007874015748},{"duration":0.05598958333334281,"midi":92,"time":170.578125,"velocity":0.3937007874015748},{"duration":0.05598958333334281,"midi":74,"time":170.58984375,"velocity":0.3937007874015748},{"duration":0.05598958333334281,"midi":32,"time":170.58984375,"velocity":0.3937007874015748},{"duration":0.05598958333334281,"midi":57,"time":170.58984375,"velocity":0.3937007874015748},{"duration":0.7942708333333428,"midi":45,"time":170.60026041666666,"velocity":0.3937007874015748},{"duration":0.05598958333334281,"midi":87,"time":170.60026041666666,"velocity":0.3937007874015748},{"duration":0.17057291666668561,"midi":52,"time":170.60026041666666,"velocity":0.3937007874015748},{"duration":0.05598958333334281,"midi":63,"time":170.60026041666666,"velocity":0.3937007874015748},{"duration":0.05598958333334281,"midi":84,"time":170.62369791666666,"velocity":0.3937007874015748},{"duration":0.05598958333334281,"midi":79,"time":170.62369791666666,"velocity":0.3937007874015748},{"duration":0.05598958333334281,"midi":88,"time":170.62369791666666,"velocity":0.3937007874015748},{"duration":0.171875,"midi":69,"time":170.63411458333334,"velocity":0.3937007874015748},{"duration":0.05729166666665719,"midi":80,"time":170.64453125,"velocity":0.3937007874015748},{"duration":0.05729166666665719,"midi":33,"time":170.64453125,"velocity":0.3937007874015748},{"duration":0.05729166666665719,"midi":60,"time":170.64453125,"velocity":0.3937007874015748},{"duration":0.057291666666685614,"midi":73,"time":170.65494791666666,"velocity":0.3937007874015748},{"duration":0.05859375,"midi":89,"time":170.66666666666666,"velocity":0.3937007874015748},{"duration":0.1731770833333428,"midi":61,"time":170.67838541666666,"velocity":0.3937007874015748},{"duration":0.296875,"midi":74,"time":170.70182291666666,"velocity":0.3937007874015748},{"duration":0.05859375,"midi":33,"time":170.70182291666666,"velocity":0.3937007874015748},{"duration":0.296875,"midi":81,"time":170.70182291666666,"velocity":0.3937007874015748},{"duration":0.296875,"midi":90,"time":170.70182291666666,"velocity":0.3937007874015748},{"duration":0.296875,"midi":88,"time":170.71223958333334,"velocity":0.3937007874015748},{"duration":0.296875,"midi":67,"time":170.71223958333334,"velocity":0.3937007874015748},{"duration":0.14973958333331439,"midi":52,"time":170.73567708333334,"velocity":0.3937007874015748},{"duration":0.05859375,"midi":63,"time":170.74739583333334,"velocity":0.3937007874015748},{"duration":0.05859375,"midi":58,"time":170.74739583333334,"velocity":0.3937007874015748},{"duration":0.05859375,"midi":33,"time":170.75911458333334,"velocity":0.3937007874015748},{"duration":0.05859375,"midi":33,"time":170.79296875,"velocity":0.3937007874015748},{"duration":0.05729166666665719,"midi":70,"time":170.8046875,"velocity":0.3937007874015748},{"duration":0.08072916666665719,"midi":52,"time":170.828125,"velocity":0.3937007874015748},{"duration":0.1731770833333428,"midi":33,"time":170.828125,"velocity":0.3937007874015748},{"duration":0.1731770833333428,"midi":52,"time":170.86197916666666,"velocity":0.3937007874015748},{"duration":0.05859375,"midi":61,"time":170.88541666666666,"velocity":0.3937007874015748},{"duration":0.1744791666666572,"midi":33,"time":170.90755208333334,"velocity":0.3937007874015748},{"duration":0.059895833333314386,"midi":73,"time":170.93098958333334,"velocity":0.3937007874015748},{"duration":0.059895833333314386,"midi":84,"time":170.93098958333334,"velocity":0.3937007874015748},{"duration":0.05859375,"midi":60,"time":170.94270833333334,"velocity":0.3937007874015748},{"duration":0.17578125,"midi":67,"time":170.953125,"velocity":0.3937007874015748},{"duration":0.05859375,"midi":88,"time":170.953125,"velocity":0.3937007874015748},{"duration":0.05859375,"midi":90,"time":170.953125,"velocity":0.3937007874015748},{"duration":0.30078125,"midi":93,"time":170.96614583333334,"velocity":0.3937007874015748},{"duration":0.30078125,"midi":52,"time":170.97786458333334,"velocity":0.3937007874015748},{"duration":0.1744791666666572,"midi":86,"time":170.98958333333334,"velocity":0.3937007874015748},{"duration":0.30078125,"midi":33,"time":170.98958333333334,"velocity":0.3937007874015748},{"duration":0.05859375,"midi":60,"time":171.00130208333334,"velocity":0.3937007874015748},{"duration":0.17578125,"midi":77,"time":171.00130208333334,"velocity":0.3937007874015748},{"duration":0.1770833333333428,"midi":74,"time":171.01171875,"velocity":0.3937007874015748},{"duration":0.1770833333333428,"midi":67,"time":171.046875,"velocity":0.3937007874015748},{"duration":0.17578125,"midi":70,"time":171.05859375,"velocity":0.3937007874015748},{"duration":0.17578125,"midi":60,"time":171.05859375,"velocity":0.3937007874015748},{"duration":0.05989583333334281,"midi":61,"time":171.1640625,"velocity":0.3937007874015748},{"duration":0.05859375,"midi":86,"time":171.1875,"velocity":0.3937007874015748},{"duration":0.17578125,"midi":74,"time":171.1875,"velocity":0.3937007874015748},{"duration":0.05859375,"midi":60,"time":171.20052083333334,"velocity":0.3937007874015748},{"duration":0.05989583333334281,"midi":62,"time":171.234375,"velocity":0.3937007874015748},{"duration":0.2981770833333428,"midi":65,"time":171.234375,"velocity":0.3937007874015748},{"duration":0.05989583333334281,"midi":44,"time":171.31640625,"velocity":0.3937007874015748},{"duration":0.4205729166666572,"midi":74,"time":171.328125,"velocity":0.3937007874015748},{"duration":0.05859375,"midi":46,"time":171.328125,"velocity":0.3937007874015748},{"duration":0.1731770833333428,"midi":87,"time":171.3515625,"velocity":0.3937007874015748},{"duration":0.05859375,"midi":45,"time":171.3515625,"velocity":0.3937007874015748},{"duration":0.1731770833333428,"midi":93,"time":171.3515625,"velocity":0.3937007874015748},{"duration":0.1731770833333428,"midi":89,"time":171.3515625,"velocity":0.3937007874015748},{"duration":0.671875,"midi":69,"time":171.36328125,"velocity":0.3937007874015748},{"duration":0.05729166666665719,"midi":37,"time":171.36328125,"velocity":0.3937007874015748},{"duration":0.171875,"midi":89,"time":171.36328125,"velocity":0.3937007874015748},{"duration":0.171875,"midi":84,"time":171.36328125,"velocity":0.3937007874015748},{"duration":0.05598958333334281,"midi":36,"time":171.375,"velocity":0.3937007874015748},{"duration":0.7955729166666572,"midi":53,"time":171.38671875,"velocity":0.3937007874015748},{"duration":0.796875,"midi":46,"time":171.39713541666666,"velocity":0.3937007874015748},{"duration":0.057291666666685614,"midi":91,"time":171.40885416666666,"velocity":0.3937007874015748},{"duration":0.1705729166666572,"midi":62,"time":171.41927083333334,"velocity":0.3937007874015748},{"duration":0.05859375,"midi":33,"time":171.43098958333334,"velocity":0.3937007874015748},{"duration":0.05859375,"midi":34,"time":171.46614583333334,"velocity":0.3937007874015748},{"duration":0.05859375,"midi":85,"time":171.4765625,"velocity":0.3937007874015748},{"duration":0.05859375,"midi":90,"time":171.4765625,"velocity":0.3937007874015748},{"duration":0.05859375,"midi":66,"time":171.4765625,"velocity":0.3937007874015748},{"duration":0.05859375,"midi":94,"time":171.4765625,"velocity":0.3937007874015748},{"duration":0.05729166666665719,"midi":87,"time":171.51171875,"velocity":0.3937007874015748},{"duration":0.05598958333334281,"midi":34,"time":171.5234375,"velocity":0.3937007874015748},{"duration":0.2994791666666572,"midi":65,"time":171.5234375,"velocity":0.3937007874015748},{"duration":0.171875,"midi":89,"time":171.5234375,"velocity":0.3937007874015748},{"duration":0.1731770833333428,"midi":91,"time":171.53385416666666,"velocity":0.3937007874015748},{"duration":0.1731770833333428,"midi":84,"time":171.53385416666666,"velocity":0.3937007874015748},{"duration":0.057291666666685614,"midi":86,"time":171.54557291666666,"velocity":0.3937007874015748},{"duration":0.05729166666665719,"midi":62,"time":171.56770833333334,"velocity":0.3937007874015748},{"duration":0.17578125,"midi":87,"time":171.57942708333334,"velocity":0.3937007874015748},{"duration":0.1770833333333428,"midi":34,"time":171.58984375,"velocity":0.3937007874015748},{"duration":0.4270833333333428,"midi":62,"time":171.6015625,"velocity":0.3937007874015748},{"duration":0.05989583333334281,"midi":84,"time":171.66015625,"velocity":0.3937007874015748},{"duration":0.17838541666668561,"midi":34,"time":171.68229166666666,"velocity":0.3937007874015748},{"duration":0.1783854166666572,"midi":84,"time":171.73046875,"velocity":0.3937007874015748},{"duration":0.06119791666665719,"midi":86,"time":171.73046875,"velocity":0.3937007874015748},{"duration":0.1783854166666572,"midi":84,"time":171.7421875,"velocity":0.3937007874015748},{"duration":0.06119791666665719,"midi":66,"time":171.7421875,"velocity":0.3937007874015748},{"duration":0.1783854166666572,"midi":93,"time":171.7421875,"velocity":0.3937007874015748},{"duration":0.06119791666665719,"midi":85,"time":171.7421875,"velocity":0.3937007874015748},{"duration":0.06119791666665719,"midi":87,"time":171.75390625,"velocity":0.3937007874015748},{"duration":0.1770833333333428,"midi":89,"time":171.75390625,"velocity":0.3937007874015748},{"duration":0.17578125,"midi":65,"time":171.76692708333334,"velocity":0.3937007874015748},{"duration":0.059895833333314386,"midi":87,"time":171.82552083333334,"velocity":0.3937007874015748},{"duration":0.059895833333314386,"midi":34,"time":171.83723958333334,"velocity":0.3937007874015748},{"duration":0.059895833333314386,"midi":85,"time":171.86067708333334,"velocity":0.3937007874015748},{"duration":0.059895833333314386,"midi":88,"time":171.86067708333334,"velocity":0.3937007874015748},{"duration":0.059895833333314386,"midi":90,"time":171.86067708333334,"velocity":0.3937007874015748},{"duration":0.1627604166666572,"midi":34,"time":171.87239583333334,"velocity":0.3937007874015748},{"duration":0.05859375,"midi":66,"time":171.87239583333334,"velocity":0.3937007874015748},{"duration":0.05859375,"midi":94,"time":171.87239583333334,"velocity":0.3937007874015748},{"duration":0.05859375,"midi":87,"time":171.90755208333334,"velocity":0.3937007874015748},{"duration":0.171875,"midi":89,"time":171.91927083333334,"velocity":0.3937007874015748},{"duration":0.05729166666665719,"midi":84,"time":171.91927083333334,"velocity":0.3937007874015748},{"duration":0.05729166666665719,"midi":65,"time":171.91927083333334,"velocity":0.3937007874015748},{"duration":0.171875,"midi":84,"time":171.91927083333334,"velocity":0.3937007874015748},{"duration":0.1731770833333428,"midi":86,"time":171.94140625,"velocity":0.3937007874015748},{"duration":0.1731770833333428,"midi":91,"time":171.94140625,"velocity":0.3937007874015748},{"duration":0.06901041666665719,"midi":34,"time":171.9765625,"velocity":0.3937007874015748},{"duration":0.05859375,"midi":64,"time":171.9765625,"velocity":0.3937007874015748},{"duration":0.05859375,"midi":65,"time":172,"velocity":0.3937007874015748},{"duration":0.1731770833333428,"midi":34,"time":172.03385416666666,"velocity":0.3937007874015748},{"duration":0.057291666666685614,"midi":63,"time":172.03385416666666,"velocity":0.3937007874015748},{"duration":0.171875,"midi":65,"time":172.05729166666666,"velocity":0.3937007874015748},{"duration":0.16145833333331439,"midi":62,"time":172.06770833333334,"velocity":0.3937007874015748},{"duration":0.171875,"midi":69,"time":172.06770833333334,"velocity":0.3937007874015748},{"duration":0.059895833333314386,"midi":52,"time":172.11458333333334,"velocity":0.3937007874015748},{"duration":0.1731770833333428,"midi":89,"time":172.13671875,"velocity":0.3937007874015748},{"duration":0.05989583333334281,"midi":51,"time":172.13671875,"velocity":0.3937007874015748},{"duration":0.1731770833333428,"midi":77,"time":172.13671875,"velocity":0.3937007874015748},{"duration":0.05859375,"midi":68,"time":172.1484375,"velocity":0.3937007874015748},{"duration":0.1731770833333428,"midi":65,"time":172.1484375,"velocity":0.3937007874015748},{"duration":0.05729166666665719,"midi":49,"time":172.16145833333334,"velocity":0.3937007874015748},{"duration":0.05729166666665719,"midi":74,"time":172.16145833333334,"velocity":0.3937007874015748},{"duration":0.055989583333314386,"midi":60,"time":172.17317708333334,"velocity":0.3937007874015748},{"duration":0.4205729166666572,"midi":69,"time":172.17317708333334,"velocity":0.3937007874015748},{"duration":0.06640625,"midi":62,"time":172.17317708333334,"velocity":0.3937007874015748},{"duration":0.055989583333314386,"midi":61,"time":172.19661458333334,"velocity":0.3937007874015748},{"duration":0.17578125,"midi":62,"time":172.21744791666666,"velocity":0.3937007874015748},{"duration":0.5520833333333428,"midi":65,"time":172.22916666666666,"velocity":0.3937007874015748},{"duration":0.06119791666665719,"midi":58,"time":172.30989583333334,"velocity":0.3937007874015748},{"duration":0.06119791666665719,"midi":46,"time":172.30989583333334,"velocity":0.3937007874015748},{"duration":0.17317708333331439,"midi":72,"time":172.33333333333334,"velocity":0.3937007874015748},{"duration":0.059895833333314386,"midi":84,"time":172.33333333333334,"velocity":0.3937007874015748},{"duration":0.17317708333331439,"midi":87,"time":172.33333333333334,"velocity":0.3937007874015748},{"duration":0.059895833333314386,"midi":45,"time":172.33333333333334,"velocity":0.3937007874015748},{"duration":0.05859375,"midi":90,"time":172.34635416666666,"velocity":0.3937007874015748},{"duration":0.057291666666685614,"midi":94,"time":172.35807291666666,"velocity":0.3937007874015748},{"duration":0.057291666666685614,"midi":85,"time":172.35807291666666,"velocity":0.3937007874015748},{"duration":0.1731770833333428,"midi":89,"time":172.38151041666666,"velocity":0.3937007874015748},{"duration":0.057291666666685614,"midi":58,"time":172.38151041666666,"velocity":0.3937007874015748},{"duration":0.057291666666685614,"midi":46,"time":172.38151041666666,"velocity":0.3937007874015748},{"duration":0.1731770833333428,"midi":84,"time":172.38151041666666,"velocity":0.3937007874015748},{"duration":0.05598958333334281,"midi":88,"time":172.39322916666666,"velocity":0.3937007874015748},{"duration":0.05729166666665719,"midi":91,"time":172.40364583333334,"velocity":0.3937007874015748},{"duration":0.05859375,"midi":46,"time":172.4140625,"velocity":0.3937007874015748},{"duration":0.1744791666666572,"midi":74,"time":172.4375,"velocity":0.3937007874015748},{"duration":0.05859375,"midi":93,"time":172.4375,"velocity":0.3937007874015748},{"duration":0.05859375,"midi":60,"time":172.44791666666666,"velocity":0.3937007874015748},{"duration":0.059895833333314386,"midi":58,"time":172.51692708333334,"velocity":0.3937007874015748},{"duration":0.059895833333314386,"midi":62,"time":172.52864583333334,"velocity":0.3937007874015748},{"duration":0.17578125,"midi":57,"time":172.54166666666666,"velocity":0.3937007874015748},{"duration":0.5494791666666856,"midi":62,"time":172.57682291666666,"velocity":0.3937007874015748},{"duration":0.1783854166666572,"midi":81,"time":172.59895833333334,"velocity":0.3937007874015748},{"duration":0.17838541666668561,"midi":84,"time":172.61197916666666,"velocity":0.3937007874015748},{"duration":0.061197916666685614,"midi":94,"time":172.72916666666666,"velocity":0.3937007874015748},{"duration":0.061197916666685614,"midi":88,"time":172.72916666666666,"velocity":0.3937007874015748},{"duration":0.061197916666685614,"midi":85,"time":172.72916666666666,"velocity":0.3937007874015748},{"duration":0.061197916666685614,"midi":90,"time":172.72916666666666,"velocity":0.3937007874015748},{"duration":0.05989583333334281,"midi":66,"time":172.74088541666666,"velocity":0.3937007874015748},{"duration":0.05989583333334281,"midi":78,"time":172.74088541666666,"velocity":0.3937007874015748},{"duration":0.05989583333334281,"midi":69,"time":172.74088541666666,"velocity":0.3937007874015748},{"duration":0.05989583333334281,"midi":85,"time":172.74088541666666,"velocity":0.3937007874015748},{"duration":0.05859375,"midi":46,"time":172.75260416666666,"velocity":0.3937007874015748},{"duration":0.296875,"midi":65,"time":172.765625,"velocity":0.3937007874015748},{"duration":0.171875,"midi":87,"time":172.765625,"velocity":0.3937007874015748},{"duration":0.171875,"midi":53,"time":172.765625,"velocity":0.3937007874015748},{"duration":0.05729166666665719,"midi":93,"time":172.77734375,"velocity":0.3937007874015748},{"duration":0.05729166666665719,"midi":89,"time":172.77734375,"velocity":0.3937007874015748},{"duration":0.05598958333334281,"midi":77,"time":172.7890625,"velocity":0.3937007874015748},{"duration":0.1705729166666572,"midi":46,"time":172.7890625,"velocity":0.3937007874015748},{"duration":0.057291666666685614,"midi":34,"time":172.79947916666666,"velocity":0.3937007874015748},{"duration":0.057291666666685614,"midi":90,"time":172.81119791666666,"velocity":0.3937007874015748},{"duration":0.057291666666685614,"midi":78,"time":172.81119791666666,"velocity":0.3937007874015748},{"duration":0.057291666666685614,"midi":85,"time":172.81119791666666,"velocity":0.3937007874015748},{"duration":0.05729166666665719,"midi":94,"time":172.82161458333334,"velocity":0.3937007874015748},{"duration":0.17317708333331439,"midi":69,"time":172.82161458333334,"velocity":0.3937007874015748},{"duration":0.055989583333314386,"midi":88,"time":172.83333333333334,"velocity":0.3937007874015748},{"duration":0.17317708333331439,"midi":34,"time":172.84505208333334,"velocity":0.3937007874015748},{"duration":0.1744791666666572,"midi":86,"time":172.8671875,"velocity":0.3937007874015748},{"duration":0.2994791666666572,"midi":79,"time":172.8671875,"velocity":0.3937007874015748},{"duration":0.1744791666666572,"midi":91,"time":172.8671875,"velocity":0.3937007874015748},{"duration":0.05859375,"midi":47,"time":172.87890625,"velocity":0.3937007874015748},{"duration":0.30078125,"midi":95,"time":172.87890625,"velocity":0.3937007874015748},{"duration":0.17578125,"midi":89,"time":172.88932291666666,"velocity":0.3937007874015748},{"duration":0.3020833333333144,"midi":86,"time":172.91145833333334,"velocity":0.3937007874015748},{"duration":0.17578125,"midi":81,"time":172.91145833333334,"velocity":0.3937007874015748},{"duration":0.05989583333334281,"midi":58,"time":172.92447916666666,"velocity":0.3937007874015748},{"duration":0.05989583333334281,"midi":84,"time":172.92447916666666,"velocity":0.3937007874015748},{"duration":0.05859375,"midi":90,"time":172.93619791666666,"velocity":0.3937007874015748},{"duration":0.8072916666666572,"midi":53,"time":172.94661458333334,"velocity":0.3937007874015748},{"duration":0.059895833333314386,"midi":94,"time":172.94661458333334,"velocity":0.3937007874015748},{"duration":0.17578125,"midi":70,"time":172.95963541666666,"velocity":0.3937007874015748},{"duration":0.8059895833333428,"midi":46,"time":172.97135416666666,"velocity":0.3937007874015748},{"duration":0.17578125,"midi":34,"time":172.98307291666666,"velocity":0.3937007874015748},{"duration":0.05859375,"midi":68,"time":173.02864583333334,"velocity":0.3937007874015748},{"duration":0.06119791666665719,"midi":68,"time":173.09765625,"velocity":0.3937007874015748},{"duration":0.17578125,"midi":79,"time":173.11067708333334,"velocity":0.3937007874015748},{"duration":0.059895833333314386,"midi":34,"time":173.13411458333334,"velocity":0.3937007874015748},{"duration":0.30078125,"midi":72,"time":173.13411458333334,"velocity":0.3937007874015748},{"duration":0.1744791666666572,"midi":95,"time":173.14583333333334,"velocity":0.3937007874015748},{"duration":0.17447916666668561,"midi":89,"time":173.15885416666666,"velocity":0.3937007874015748},{"duration":0.17447916666668561,"midi":86,"time":173.15885416666666,"velocity":0.3937007874015748},{"duration":0.17447916666668561,"midi":60,"time":173.15885416666666,"velocity":0.3937007874015748},{"duration":0.05859375,"midi":34,"time":173.21614583333334,"velocity":0.3937007874015748},{"duration":0.05989583333334281,"midi":34,"time":173.28515625,"velocity":0.3937007874015748},{"duration":0.1770833333333428,"midi":79,"time":173.28515625,"velocity":0.3937007874015748},{"duration":0.17578125,"midi":62,"time":173.296875,"velocity":0.3937007874015748},{"duration":0.05989583333334281,"midi":90,"time":173.3203125,"velocity":0.3937007874015748},{"duration":0.05989583333334281,"midi":57,"time":173.3203125,"velocity":0.3937007874015748},{"duration":0.05989583333334281,"midi":34,"time":173.3203125,"velocity":0.3937007874015748},{"duration":0.05989583333334281,"midi":93,"time":173.3203125,"velocity":0.3937007874015748},{"duration":0.17578125,"midi":95,"time":173.34505208333334,"velocity":0.3937007874015748},{"duration":0.1770833333333428,"midi":93,"time":173.35546875,"velocity":0.3937007874015748},{"duration":0.1770833333333428,"midi":89,"time":173.35546875,"velocity":0.3937007874015748},{"duration":0.05989583333334281,"midi":57,"time":173.3671875,"velocity":0.3937007874015748},{"duration":0.09505208333334281,"midi":84,"time":173.3671875,"velocity":0.3937007874015748},{"duration":0.17708333333331439,"midi":34,"time":173.38020833333334,"velocity":0.3937007874015748},{"duration":0.17708333333331439,"midi":91,"time":173.38020833333334,"velocity":0.3937007874015748},{"duration":0.1419270833333428,"midi":84,"time":173.40234375,"velocity":0.3937007874015748},{"duration":0.3046875,"midi":69,"time":173.44921875,"velocity":0.3937007874015748},{"duration":0.1783854166666572,"midi":60,"time":173.51953125,"velocity":0.3937007874015748},{"duration":0.1783854166666572,"midi":34,"time":173.56770833333334,"velocity":0.3937007874015748},{"duration":0.059895833333314386,"midi":74,"time":173.56770833333334,"velocity":0.3937007874015748},{"duration":0.17708333333331439,"midi":60,"time":173.60286458333334,"velocity":0.3937007874015748},{"duration":0.06119791666665719,"midi":59,"time":173.68489583333334,"velocity":0.3937007874015748},{"duration":0.06119791666665719,"midi":79,"time":173.68489583333334,"velocity":0.3937007874015748},{"duration":0.17057291666668561,"midi":68,"time":173.70963541666666,"velocity":0.3937007874015748},{"duration":0.05989583333334281,"midi":93,"time":173.70963541666666,"velocity":0.3937007874015748},{"duration":0.05859375,"midi":81,"time":173.72135416666666,"velocity":0.3937007874015748},{"duration":0.17057291666668561,"midi":83,"time":173.72135416666666,"velocity":0.3937007874015748},{"duration":0.05859375,"midi":64,"time":173.72135416666666,"velocity":0.3937007874015748},{"duration":0.05859375,"midi":60,"time":173.72135416666666,"velocity":0.3937007874015748},{"duration":0.05859375,"midi":88,"time":173.72135416666666,"velocity":0.3937007874015748},{"duration":0.05729166666665719,"midi":50,"time":173.734375,"velocity":0.3937007874015748},{"duration":0.05729166666665719,"midi":87,"time":173.734375,"velocity":0.3937007874015748},{"duration":0.05729166666665719,"midi":57,"time":173.734375,"velocity":0.3937007874015748},{"duration":0.05598958333334281,"midi":75,"time":173.74609375,"velocity":0.3937007874015748},{"duration":0.2630208333333428,"midi":84,"time":173.74609375,"velocity":0.3937007874015748},{"duration":0.17057291666668561,"midi":86,"time":173.75651041666666,"velocity":0.3937007874015748},{"duration":0.171875,"midi":92,"time":173.77994791666666,"velocity":0.3937007874015748},{"duration":0.05598958333334281,"midi":65,"time":173.77994791666666,"velocity":0.3937007874015748},{"duration":0.055989583333314386,"midi":76,"time":173.79036458333334,"velocity":0.3937007874015748},{"duration":0.05598958333334281,"midi":88,"time":173.80078125,"velocity":0.3937007874015748},{"duration":0.05598958333334281,"midi":81,"time":173.80078125,"velocity":0.3937007874015748},{"duration":0.05598958333334281,"midi":63,"time":173.80078125,"velocity":0.3937007874015748},{"duration":0.1744791666666572,"midi":57,"time":173.8125,"velocity":0.3937007874015748},{"duration":0.1744791666666572,"midi":65,"time":173.8125,"velocity":0.3937007874015748},{"duration":0.17447916666668561,"midi":77,"time":173.83463541666666,"velocity":0.3937007874015748},{"duration":0.17447916666668561,"midi":89,"time":173.83463541666666,"velocity":0.3937007874015748},{"duration":0.20703125,"midi":84,"time":173.83463541666666,"velocity":0.3937007874015748},{"duration":0.057291666666685614,"midi":62,"time":173.83463541666666,"velocity":0.3937007874015748},{"duration":0.17447916666668561,"midi":93,"time":173.84635416666666,"velocity":0.3937007874015748},{"duration":0.17578125,"midi":87,"time":173.85677083333334,"velocity":0.3937007874015748},{"duration":0.06119791666665719,"midi":64,"time":173.9140625,"velocity":0.3937007874015748},{"duration":0.06119791666665719,"midi":60,"time":173.9140625,"velocity":0.3937007874015748},{"duration":0.06119791666665719,"midi":45,"time":173.9140625,"velocity":0.3937007874015748},{"duration":0.059895833333314386,"midi":69,"time":173.92708333333334,"velocity":0.3937007874015748},{"duration":0.14973958333331439,"midi":53,"time":173.93880208333334,"velocity":0.3937007874015748},{"duration":0.059895833333314386,"midi":76,"time":173.93880208333334,"velocity":0.3937007874015748},{"duration":0.2981770833333144,"midi":46,"time":173.95052083333334,"velocity":0.3937007874015748},{"duration":0.05859375,"midi":57,"time":173.95052083333334,"velocity":0.3937007874015748},{"duration":0.2981770833333428,"midi":65,"time":173.96354166666666,"velocity":0.3937007874015748},{"duration":0.171875,"midi":34,"time":173.97526041666666,"velocity":0.3937007874015748},{"duration":0.05859375,"midi":57,"time":173.98567708333334,"velocity":0.3937007874015748},{"duration":0.05859375,"midi":92,"time":174.00911458333334,"velocity":0.3937007874015748},{"duration":0.05859375,"midi":90,"time":174.01953125,"velocity":0.3937007874015748},{"duration":0.05859375,"midi":95,"time":174.01953125,"velocity":0.3937007874015748},{"duration":0.05859375,"midi":76,"time":174.01953125,"velocity":0.3937007874015748},{"duration":0.08072916666665719,"midi":53,"time":174.03125,"velocity":0.3937007874015748},{"duration":0.1953125,"midi":84,"time":174.04427083333334,"velocity":0.3937007874015748},{"duration":0.05729166666665719,"midi":57,"time":174.0546875,"velocity":0.3937007874015748},{"duration":0.05729166666665719,"midi":75,"time":174.0546875,"velocity":0.3937007874015748},{"duration":0.2760416666666572,"midi":84,"time":174.06640625,"velocity":0.3937007874015748},{"duration":0.1393229166666572,"midi":34,"time":174.06640625,"velocity":0.3937007874015748},{"duration":0.3815104166666572,"midi":74,"time":174.078125,"velocity":0.3937007874015748},{"duration":0.1744791666666572,"midi":88,"time":174.078125,"velocity":0.3937007874015748},{"duration":0.05859375,"midi":90,"time":174.08854166666666,"velocity":0.3937007874015748},{"duration":0.1640625,"midi":60,"time":174.11197916666666,"velocity":0.3937007874015748},{"duration":0.17578125,"midi":69,"time":174.13411458333334,"velocity":0.3937007874015748},{"duration":0.09375,"midi":34,"time":174.14583333333334,"velocity":0.3937007874015748},{"duration":0.059895833333314386,"midi":76,"time":174.16927083333334,"velocity":0.3937007874015748},{"duration":0.17578125,"midi":47,"time":174.18098958333334,"velocity":0.3937007874015748},{"duration":0.07161458333331439,"midi":60,"time":174.21614583333334,"velocity":0.3937007874015748},{"duration":0.05859375,"midi":93,"time":174.22916666666666,"velocity":0.3937007874015748},{"duration":0.1731770833333428,"midi":77,"time":174.26432291666666,"velocity":0.3937007874015748},{"duration":0.05989583333334281,"midi":47,"time":174.296875,"velocity":0.3937007874015748},{"duration":0.05859375,"midi":63,"time":174.30989583333334,"velocity":0.3937007874015748},{"duration":0.05859375,"midi":87,"time":174.32161458333334,"velocity":0.3937007874015748},{"duration":0.05859375,"midi":84,"time":174.34505208333334,"velocity":0.3937007874015748},{"duration":0.171875,"midi":52,"time":174.34505208333334,"velocity":0.3937007874015748},{"duration":0.05859375,"midi":62,"time":174.34505208333334,"velocity":0.3937007874015748},{"duration":0.1705729166666572,"midi":84,"time":174.35677083333334,"velocity":0.3937007874015748},{"duration":0.05859375,"midi":86,"time":174.3671875,"velocity":0.3937007874015748},{"duration":0.05859375,"midi":61,"time":174.390625,"velocity":0.3937007874015748},{"duration":0.05729166666665719,"midi":58,"time":174.40234375,"velocity":0.3937007874015748},{"duration":0.09765625,"midi":74,"time":174.40234375,"velocity":0.3937007874015748},{"duration":0.057291666666685614,"midi":62,"time":174.41276041666666,"velocity":0.3937007874015748},{"duration":0.057291666666685614,"midi":65,"time":174.44791666666666,"velocity":0.3937007874015748},{"duration":0.057291666666685614,"midi":61,"time":174.45963541666666,"velocity":0.3937007874015748},{"duration":0.05729166666665719,"midi":74,"time":174.47005208333334,"velocity":0.3937007874015748},{"duration":0.05859375,"midi":62,"time":174.48046875,"velocity":0.3937007874015748},{"duration":0.05729166666665719,"midi":91,"time":174.49348958333334,"velocity":0.3937007874015748},{"duration":0.05729166666665719,"midi":75,"time":174.49348958333334,"velocity":0.3937007874015748},{"duration":0.171875,"midi":72,"time":174.49348958333334,"velocity":0.3937007874015748},{"duration":0.055989583333314386,"midi":53,"time":174.50520833333334,"velocity":0.3937007874015748},{"duration":0.055989583333314386,"midi":64,"time":174.50520833333334,"velocity":0.3937007874015748},{"duration":0.055989583333314386,"midi":79,"time":174.50520833333334,"velocity":0.3937007874015748},{"duration":0.13671875,"midi":83,"time":174.50520833333334,"velocity":0.3937007874015748},{"duration":0.055989583333314386,"midi":70,"time":174.50520833333334,"velocity":0.3937007874015748},{"duration":0.05598958333334281,"midi":37,"time":174.515625,"velocity":0.3937007874015748},{"duration":0.171875,"midi":76,"time":174.515625,"velocity":0.3937007874015748},{"duration":0.171875,"midi":92,"time":174.52604166666666,"velocity":0.3937007874015748},{"duration":0.057291666666685614,"midi":74,"time":174.54947916666666,"velocity":0.3937007874015748},{"duration":0.5494791666666572,"midi":45,"time":174.55989583333334,"velocity":0.3937007874015748},{"duration":0.1744791666666572,"midi":64,"time":174.57161458333334,"velocity":0.3937007874015748},{"duration":0.1744791666666572,"midi":52,"time":174.57161458333334,"velocity":0.3937007874015748},{"duration":0.2994791666666572,"midi":79,"time":174.57161458333334,"velocity":0.3937007874015748},{"duration":0.09505208333334281,"midi":83,"time":174.58203125,"velocity":0.3937007874015748},{"duration":0.1744791666666572,"midi":90,"time":174.58203125,"velocity":0.3937007874015748},{"duration":0.1744791666666572,"midi":76,"time":174.59375,"velocity":0.3937007874015748},{"duration":0.05989583333334281,"midi":33,"time":174.6171875,"velocity":0.3937007874015748},{"duration":0.05859375,"midi":67,"time":174.62890625,"velocity":0.3937007874015748},{"duration":0.1744791666666572,"midi":60,"time":174.65234375,"velocity":0.3937007874015748},{"duration":0.05859375,"midi":33,"time":174.65234375,"velocity":0.3937007874015748},{"duration":0.1744791666666572,"midi":64,"time":174.65234375,"velocity":0.3937007874015748},{"duration":0.42578125,"midi":52,"time":174.6640625,"velocity":0.3937007874015748},{"duration":0.1744791666666572,"midi":94,"time":174.6875,"velocity":0.3937007874015748},{"duration":0.05859375,"midi":33,"time":174.6875,"velocity":0.3937007874015748},{"duration":0.1744791666666572,"midi":89,"time":174.6875,"velocity":0.3937007874015748},{"duration":0.05859375,"midi":75,"time":174.70963541666666,"velocity":0.3937007874015748},{"duration":0.05859375,"midi":84,"time":174.70963541666666,"velocity":0.3937007874015748},{"duration":0.05859375,"midi":90,"time":174.70963541666666,"velocity":0.3937007874015748},{"duration":0.05859375,"midi":87,"time":174.72135416666666,"velocity":0.3937007874015748},{"duration":0.05859375,"midi":33,"time":174.73307291666666,"velocity":0.3937007874015748},{"duration":0.05859375,"midi":63,"time":174.73307291666666,"velocity":0.3937007874015748},{"duration":0.17578125,"midi":64,"time":174.74479166666666,"velocity":0.3937007874015748},{"duration":0.30078125,"midi":72,"time":174.75651041666666,"velocity":0.3937007874015748},{"duration":0.1770833333333428,"midi":67,"time":174.75651041666666,"velocity":0.3937007874015748},{"duration":0.17578125,"midi":60,"time":174.76822916666666,"velocity":0.3937007874015748},{"duration":0.059895833333314386,"midi":33,"time":174.77864583333334,"velocity":0.3937007874015748},{"duration":0.059895833333314386,"midi":33,"time":174.82552083333334,"velocity":0.3937007874015748},{"duration":0.05989583333334281,"midi":89,"time":174.87369791666666,"velocity":0.3937007874015748},{"duration":0.17447916666668561,"midi":95,"time":174.88541666666666,"velocity":0.3937007874015748},{"duration":0.05859375,"midi":33,"time":174.88541666666666,"velocity":0.3937007874015748},{"duration":0.17447916666668561,"midi":92,"time":174.88541666666666,"velocity":0.3937007874015748},{"duration":0.17447916666668561,"midi":88,"time":174.88541666666666,"velocity":0.3937007874015748},{"duration":0.17578125,"midi":90,"time":174.89583333333334,"velocity":0.3937007874015748},{"duration":0.42578125,"midi":67,"time":174.90755208333334,"velocity":0.3937007874015748},{"duration":0.17578125,"midi":64,"time":174.90755208333334,"velocity":0.3937007874015748},{"duration":0.057291666666685614,"midi":77,"time":174.93229166666666,"velocity":0.3937007874015748},{"duration":0.17578125,"midi":83,"time":174.94270833333334,"velocity":0.3937007874015748},{"duration":0.05859375,"midi":33,"time":174.94270833333334,"velocity":0.3937007874015748},{"duration":0.17708333333331439,"midi":76,"time":174.95442708333334,"velocity":0.3937007874015748},{"duration":0.059895833333314386,"midi":34,"time":174.98958333333334,"velocity":0.3937007874015748},{"duration":0.1744791666666572,"midi":60,"time":175.0234375,"velocity":0.3937007874015748},{"duration":0.059895833333314386,"midi":33,"time":175.03645833333334,"velocity":0.3937007874015748},{"duration":0.1744791666666572,"midi":52,"time":175.03645833333334,"velocity":0.3937007874015748},{"duration":0.1744791666666572,"midi":64,"time":175.05859375,"velocity":0.3937007874015748},{"duration":0.05859375,"midi":44,"time":175.09505208333334,"velocity":0.3937007874015748},{"duration":0.059895833333314386,"midi":89,"time":175.10677083333334,"velocity":0.3937007874015748},{"duration":0.2981770833333144,"midi":57,"time":175.10677083333334,"velocity":0.3937007874015748},{"duration":0.05859375,"midi":75,"time":175.11848958333334,"velocity":0.3937007874015748},{"duration":0.1744791666666572,"midi":45,"time":175.11848958333334,"velocity":0.3937007874015748},{"duration":0.05729166666665719,"midi":86,"time":175.13020833333334,"velocity":0.3937007874015748},{"duration":0.1744791666666572,"midi":81,"time":175.15364583333334,"velocity":0.3937007874015748},{"duration":0.05729166666665719,"midi":52,"time":175.15364583333334,"velocity":0.3937007874015748},{"duration":0.1744791666666572,"midi":64,"time":175.17578125,"velocity":0.3937007874015748},{"duration":0.1744791666666572,"midi":74,"time":175.1875,"velocity":0.3937007874015748},{"duration":0.05989583333334281,"midi":84,"time":175.27994791666666,"velocity":0.3937007874015748},{"duration":0.05989583333334281,"midi":82,"time":175.27994791666666,"velocity":0.3937007874015748},{"duration":0.05859375,"midi":68,"time":175.29166666666666,"velocity":0.3937007874015748},{"duration":0.05859375,"midi":89,"time":175.29166666666666,"velocity":0.3937007874015748},{"duration":0.1731770833333428,"midi":88,"time":175.29166666666666,"velocity":0.3937007874015748},{"duration":0.1731770833333428,"midi":86,"time":175.29166666666666,"velocity":0.3937007874015748},{"duration":0.05729166666665719,"midi":65,"time":175.3046875,"velocity":0.3937007874015748},{"duration":0.171875,"midi":92,"time":175.3046875,"velocity":0.3937007874015748},{"duration":0.171875,"midi":90,"time":175.3046875,"velocity":0.3937007874015748},{"duration":0.05729166666665719,"midi":50,"time":175.3046875,"velocity":0.3937007874015748},{"duration":0.05729166666665719,"midi":83,"time":175.3046875,"velocity":0.3937007874015748},{"duration":0.1731770833333428,"midi":64,"time":175.32682291666666,"velocity":0.3937007874015748},{"duration":0.1731770833333428,"midi":57,"time":175.32682291666666,"velocity":0.3937007874015748},{"duration":0.057291666666685614,"midi":67,"time":175.32682291666666,"velocity":0.3937007874015748},{"duration":0.1731770833333428,"midi":72,"time":175.32682291666666,"velocity":0.3937007874015748},{"duration":0.05729166666665719,"midi":95,"time":175.33984375,"velocity":0.3937007874015748},{"duration":0.2981770833333428,"midi":45,"time":175.35026041666666,"velocity":0.3937007874015748},{"duration":0.05859375,"midi":52,"time":175.36067708333334,"velocity":0.3937007874015748},{"duration":0.05859375,"midi":67,"time":175.40625,"velocity":0.3937007874015748},{"duration":0.17578125,"midi":90,"time":175.47526041666666,"velocity":0.3937007874015748},{"duration":0.17578125,"midi":89,"time":175.48828125,"velocity":0.3937007874015748},{"duration":0.17578125,"midi":67,"time":175.48828125,"velocity":0.3937007874015748},{"duration":0.05989583333334281,"midi":74,"time":175.48828125,"velocity":0.3937007874015748},{"duration":0.05989583333334281,"midi":87,"time":175.5,"velocity":0.3937007874015748},{"duration":0.05859375,"midi":60,"time":175.51171875,"velocity":0.3937007874015748},{"duration":0.17578125,"midi":76,"time":175.51171875,"velocity":0.3937007874015748},{"duration":0.1770833333333428,"midi":88,"time":175.53515625,"velocity":0.3937007874015748},{"duration":0.2994791666666572,"midi":64,"time":175.546875,"velocity":0.3937007874015748},{"duration":0.05859375,"midi":72,"time":175.5703125,"velocity":0.3937007874015748},{"duration":0.17578125,"midi":79,"time":175.61588541666666,"velocity":0.3937007874015748},{"duration":0.061197916666685614,"midi":44,"time":175.65104166666666,"velocity":0.3937007874015748},{"duration":0.05989583333334281,"midi":67,"time":175.66276041666666,"velocity":0.3937007874015748},{"duration":0.2916666666666856,"midi":52,"time":175.66276041666666,"velocity":0.3937007874015748},{"duration":0.05989583333334281,"midi":71,"time":175.66276041666666,"velocity":0.3937007874015748},{"duration":0.17447916666668561,"midi":92,"time":175.67447916666666,"velocity":0.3937007874015748},{"duration":0.17447916666668561,"midi":88,"time":175.67447916666666,"velocity":0.3937007874015748},{"duration":0.2981770833333428,"midi":45,"time":175.67447916666666,"velocity":0.3937007874015748},{"duration":0.05859375,"midi":83,"time":175.6875,"velocity":0.3937007874015748},{"duration":0.05859375,"midi":60,"time":175.69921875,"velocity":0.3937007874015748},{"duration":0.1744791666666572,"midi":90,"time":175.69921875,"velocity":0.3937007874015748},{"duration":0.1744791666666572,"midi":95,"time":175.69921875,"velocity":0.3937007874015748},{"duration":0.1744791666666572,"midi":67,"time":175.7109375,"velocity":0.3937007874015748},{"duration":0.05859375,"midi":86,"time":175.72265625,"velocity":0.3937007874015748},{"duration":0.17447916666668561,"midi":33,"time":175.74479166666666,"velocity":0.3937007874015748},{"duration":0.05859375,"midi":63,"time":175.77994791666666,"velocity":0.3937007874015748},{"duration":0.05859375,"midi":60,"time":175.77994791666666,"velocity":0.3937007874015748},{"duration":0.059895833333314386,"midi":58,"time":175.82552083333334,"velocity":0.3937007874015748},{"duration":0.059895833333314386,"midi":74,"time":175.84895833333334,"velocity":0.3937007874015748},{"duration":0.059895833333314386,"midi":77,"time":175.84895833333334,"velocity":0.3937007874015748},{"duration":0.059895833333314386,"midi":61,"time":175.84895833333334,"velocity":0.3937007874015748},{"duration":0.171875,"midi":67,"time":175.86067708333334,"velocity":0.3937007874015748},{"duration":0.05859375,"midi":82,"time":175.86067708333334,"velocity":0.3937007874015748},{"duration":0.05859375,"midi":72,"time":175.87369791666666,"velocity":0.3937007874015748},{"duration":0.171875,"midi":76,"time":175.87369791666666,"velocity":0.3937007874015748},{"duration":0.05859375,"midi":70,"time":175.87369791666666,"velocity":0.3937007874015748},{"duration":0.05859375,"midi":62,"time":175.87369791666666,"velocity":0.3937007874015748},{"duration":0.05859375,"midi":90,"time":175.89583333333334,"velocity":0.3937007874015748},{"duration":0.06640625,"midi":52,"time":175.89583333333334,"velocity":0.3937007874015748},{"duration":0.05859375,"midi":63,"time":175.89583333333334,"velocity":0.3937007874015748},{"duration":0.17317708333331439,"midi":74,"time":175.89583333333334,"velocity":0.3937007874015748},{"duration":0.05859375,"midi":84,"time":175.89583333333334,"velocity":0.3937007874015748},{"duration":0.05729166666665719,"midi":86,"time":175.90755208333334,"velocity":0.3937007874015748},{"duration":0.17317708333331439,"midi":45,"time":175.91927083333334,"velocity":0.3937007874015748},{"duration":0.17317708333331439,"midi":62,"time":175.91927083333334,"velocity":0.3937007874015748},{"duration":0.1731770833333428,"midi":52,"time":175.94140625,"velocity":0.3937007874015748},{"duration":0.05729166666665719,"midi":32,"time":175.94140625,"velocity":0.3937007874015748},{"duration":0.05729166666665719,"midi":86,"time":175.94140625,"velocity":0.3937007874015748},{"duration":0.059895833333314386,"midi":33,"time":176.00911458333334,"velocity":0.3937007874015748},{"duration":0.059895833333314386,"midi":33,"time":176.04427083333334,"velocity":0.3937007874015748},{"duration":0.059895833333314386,"midi":60,"time":176.04427083333334,"velocity":0.3937007874015748},{"duration":0.1744791666666572,"midi":76,"time":176.04427083333334,"velocity":0.3937007874015748},{"duration":0.05859375,"midi":64,"time":176.05598958333334,"velocity":0.3937007874015748},{"duration":0.1731770833333428,"midi":83,"time":176.06901041666666,"velocity":0.3937007874015748},{"duration":0.1731770833333428,"midi":88,"time":176.06901041666666,"velocity":0.3937007874015748},{"duration":0.05859375,"midi":84,"time":176.09114583333334,"velocity":0.3937007874015748},{"duration":0.05859375,"midi":52,"time":176.09114583333334,"velocity":0.3937007874015748},{"duration":0.17317708333331439,"midi":90,"time":176.09114583333334,"velocity":0.3937007874015748},{"duration":0.17317708333331439,"midi":60,"time":176.09114583333334,"velocity":0.3937007874015748},{"duration":0.17317708333331439,"midi":67,"time":176.09114583333334,"velocity":0.3937007874015748},{"duration":0.17317708333331439,"midi":64,"time":176.11458333333334,"velocity":0.3937007874015748},{"duration":0.05859375,"midi":91,"time":176.11458333333334,"velocity":0.3937007874015748},{"duration":0.05859375,"midi":45,"time":176.125,"velocity":0.3937007874015748},{"duration":0.05859375,"midi":29,"time":176.16015625,"velocity":0.3937007874015748},{"duration":0.1744791666666572,"midi":60,"time":176.171875,"velocity":0.3937007874015748},{"duration":0.1744791666666572,"midi":89,"time":176.18359375,"velocity":0.3937007874015748},{"duration":0.1744791666666572,"midi":84,"time":176.18359375,"velocity":0.3937007874015748},{"duration":0.1744791666666572,"midi":77,"time":176.18359375,"velocity":0.3937007874015748},{"duration":0.05989583333334281,"midi":45,"time":176.19401041666666,"velocity":0.3937007874015748},{"duration":0.05859375,"midi":65,"time":176.20572916666666,"velocity":0.3937007874015748},{"duration":0.17447916666668561,"midi":67,"time":176.22916666666666,"velocity":0.3937007874015748},{"duration":0.17447916666668561,"midi":88,"time":176.26432291666666,"velocity":0.3937007874015748},{"duration":0.17447916666668561,"midi":83,"time":176.26432291666666,"velocity":0.3937007874015748},{"duration":0.17578125,"midi":64,"time":176.27473958333334,"velocity":0.3937007874015748},{"duration":0.059895833333314386,"midi":41,"time":176.28645833333334,"velocity":0.3937007874015748},{"duration":0.17578125,"midi":59,"time":176.28645833333334,"velocity":0.3937007874015748},{"duration":0.2825520833333144,"midi":52,"time":176.28645833333334,"velocity":0.3937007874015748},{"duration":0.17578125,"midi":92,"time":176.28645833333334,"velocity":0.3937007874015748},{"duration":0.059895833333314386,"midi":90,"time":176.28645833333334,"velocity":0.3937007874015748},{"duration":0.17708333333331439,"midi":68,"time":176.30989583333334,"velocity":0.3937007874015748},{"duration":0.059895833333314386,"midi":91,"time":176.32161458333334,"velocity":0.3937007874015748},{"duration":0.05859375,"midi":89,"time":176.33463541666666,"velocity":0.3937007874015748},{"duration":0.1770833333333428,"midi":40,"time":176.33463541666666,"velocity":0.3937007874015748},{"duration":0.1770833333333428,"midi":76,"time":176.34635416666666,"velocity":0.3937007874015748},{"duration":0.17708333333331439,"midi":67,"time":176.39192708333334,"velocity":0.3937007874015748},{"duration":0.17708333333331439,"midi":60,"time":176.45052083333334,"velocity":0.3937007874015748},{"duration":0.06119791666665719,"midi":79,"time":176.46223958333334,"velocity":0.3937007874015748},{"duration":0.06119791666665719,"midi":90,"time":176.47395833333334,"velocity":0.3937007874015748},{"duration":0.06119791666665719,"midi":85,"time":176.47395833333334,"velocity":0.3937007874015748},{"duration":0.06119791666665719,"midi":82,"time":176.47395833333334,"velocity":0.3937007874015748},{"duration":0.06119791666665719,"midi":66,"time":176.47395833333334,"velocity":0.3937007874015748},{"duration":0.05989583333334281,"midi":87,"time":176.48697916666666,"velocity":0.3937007874015748},{"duration":0.05989583333334281,"midi":94,"time":176.48697916666666,"velocity":0.3937007874015748},{"duration":0.296875,"midi":72,"time":176.49869791666666,"velocity":0.3937007874015748},{"duration":0.078125,"midi":52,"time":176.51041666666666,"velocity":0.3937007874015748},{"duration":0.1770833333333428,"midi":76,"time":176.54557291666666,"velocity":0.3937007874015748},{"duration":0.17708333333331439,"midi":67,"time":176.55598958333334,"velocity":0.3937007874015748},{"duration":0.17578125,"midi":60,"time":176.57942708333334,"velocity":0.3937007874015748},{"duration":0.06119791666665719,"midi":86,"time":176.66145833333334,"velocity":0.3937007874015748},{"duration":0.06119791666665719,"midi":79,"time":176.66145833333334,"velocity":0.3937007874015748},{"duration":0.17317708333331439,"midi":91,"time":176.66145833333334,"velocity":0.3937007874015748},{"duration":0.06119791666665719,"midi":51,"time":176.66145833333334,"velocity":0.3937007874015748},{"duration":0.17317708333331439,"midi":86,"time":176.66145833333334,"velocity":0.3937007874015748},{"duration":0.059895833333314386,"midi":67,"time":176.67317708333334,"velocity":0.3937007874015748},{"duration":0.171875,"midi":89,"time":176.67317708333334,"velocity":0.3937007874015748},{"duration":0.05859375,"midi":94,"time":176.68619791666666,"velocity":0.3937007874015748},{"duration":0.05859375,"midi":50,"time":176.68619791666666,"velocity":0.3937007874015748},{"duration":0.057291666666685614,"midi":90,"time":176.69791666666666,"velocity":0.3937007874015748},{"duration":0.171875,"midi":87,"time":176.69791666666666,"velocity":0.3937007874015748},{"duration":0.057291666666685614,"midi":95,"time":176.69791666666666,"velocity":0.3937007874015748},{"duration":0.171875,"midi":90,"time":176.69791666666666,"velocity":0.3937007874015748},{"duration":0.20703125,"midi":88,"time":176.69791666666666,"velocity":0.3937007874015748},{"duration":0.057291666666685614,"midi":92,"time":176.69791666666666,"velocity":0.3937007874015748},{"duration":0.2395833333333428,"midi":85,"time":176.70963541666666,"velocity":0.3937007874015748},{"duration":0.05598958333334281,"midi":78,"time":176.70963541666666,"velocity":0.3937007874015748},{"duration":0.05598958333334281,"midi":49,"time":176.70963541666666,"velocity":0.3937007874015748},{"duration":0.0546875,"midi":73,"time":176.72265625,"velocity":0.3937007874015748},{"duration":0.0546875,"midi":60,"time":176.72265625,"velocity":0.3937007874015748},{"duration":0.0546875,"midi":68,"time":176.72265625,"velocity":0.3937007874015748},{"duration":0.0546875,"midi":79,"time":176.72265625,"velocity":0.3937007874015748},{"duration":0.0546875,"midi":93,"time":176.73307291666666,"velocity":0.3937007874015748},{"duration":0.171875,"midi":64,"time":176.73307291666666,"velocity":0.3937007874015748},{"duration":0.0546875,"midi":77,"time":176.73307291666666,"velocity":0.3937007874015748},{"duration":0.2578125,"midi":88,"time":176.73307291666666,"velocity":0.3937007874015748},{"duration":0.171875,"midi":69,"time":176.74348958333334,"velocity":0.3937007874015748},{"duration":0.171875,"midi":74,"time":176.74348958333334,"velocity":0.3937007874015748},{"duration":0.1731770833333428,"midi":90,"time":176.765625,"velocity":0.3937007874015748},{"duration":0.1731770833333428,"midi":78,"time":176.77604166666666,"velocity":0.3937007874015748},{"duration":0.05859375,"midi":60,"time":176.77604166666666,"velocity":0.3937007874015748},{"duration":0.22526041666668561,"midi":85,"time":176.77604166666666,"velocity":0.3937007874015748},{"duration":0.17317708333331439,"midi":94,"time":176.78645833333334,"velocity":0.3937007874015748},{"duration":0.17317708333331439,"midi":93,"time":176.80989583333334,"velocity":0.3937007874015748},{"duration":0.059895833333314386,"midi":61,"time":176.82161458333334,"velocity":0.3937007874015748},{"duration":0.1510416666666572,"midi":64,"time":176.82161458333334,"velocity":0.3937007874015748},{"duration":0.059895833333314386,"midi":60,"time":176.84505208333334,"velocity":0.3937007874015748},{"duration":0.059895833333314386,"midi":91,"time":176.84505208333334,"velocity":0.3937007874015748},{"duration":0.2903645833333144,"midi":79,"time":176.85677083333334,"velocity":0.3937007874015748},{"duration":0.05859375,"midi":73,"time":176.85677083333334,"velocity":0.3937007874015748},{"duration":0.2903645833333144,"midi":95,"time":176.85677083333334,"velocity":0.3937007874015748},{"duration":0.17057291666668561,"midi":89,"time":176.86979166666666,"velocity":0.3937007874015748},{"duration":0.057291666666685614,"midi":50,"time":176.88151041666666,"velocity":0.3937007874015748},{"duration":0.1692708333333428,"midi":84,"time":176.88151041666666,"velocity":0.3937007874015748},{"duration":0.057291666666685614,"midi":60,"time":176.88151041666666,"velocity":0.3937007874015748},{"duration":0.1692708333333428,"midi":67,"time":176.88151041666666,"velocity":0.3937007874015748},{"duration":0.057291666666685614,"midi":74,"time":176.88151041666666,"velocity":0.3937007874015748},{"duration":0.1692708333333428,"midi":84,"time":176.88151041666666,"velocity":0.3937007874015748},{"duration":0.057291666666685614,"midi":83,"time":176.88151041666666,"velocity":0.3937007874015748},{"duration":0.05729166666665719,"midi":63,"time":176.89192708333334,"velocity":0.3937007874015748},{"duration":0.16796875,"midi":94,"time":176.90364583333334,"velocity":0.3937007874015748},{"duration":0.16796875,"midi":57,"time":176.90364583333334,"velocity":0.3937007874015748},{"duration":0.078125,"midi":64,"time":176.91536458333334,"velocity":0.3937007874015748},{"duration":0.05729166666665719,"midi":44,"time":176.92578125,"velocity":0.3937007874015748},{"duration":0.05729166666665719,"midi":78,"time":176.92578125,"velocity":0.3937007874015748},{"duration":0.1471354166666572,"midi":86,"time":176.9375,"velocity":0.3937007874015748},{"duration":0.05598958333334281,"midi":60,"time":176.9375,"velocity":0.3937007874015748},{"duration":0.05598958333334281,"midi":45,"time":176.94921875,"velocity":0.3937007874015748},{"duration":0.057291666666685614,"midi":60,"time":176.98307291666666,"velocity":0.3937007874015748},{"duration":0.05729166666665719,"midi":64,"time":176.99348958333334,"velocity":0.3937007874015748},{"duration":0.05729166666665719,"midi":91,"time":177.00390625,"velocity":0.3937007874015748},{"duration":0.16796875,"midi":94,"time":177.02734375,"velocity":0.3937007874015748},{"duration":0.05729166666665719,"midi":88,"time":177.02734375,"velocity":0.3937007874015748},{"duration":0.078125,"midi":86,"time":177.02734375,"velocity":0.3937007874015748},{"duration":0.05598958333334281,"midi":72,"time":177.0390625,"velocity":0.3937007874015748},{"duration":0.05598958333334281,"midi":63,"time":177.0390625,"velocity":0.3937007874015748},{"duration":0.05598958333334281,"midi":66,"time":177.0390625,"velocity":0.3937007874015748},{"duration":0.05598958333334281,"midi":51,"time":177.04947916666666,"velocity":0.3937007874015748},{"duration":0.05598958333334281,"midi":85,"time":177.04947916666666,"velocity":0.3937007874015748},{"duration":0.05598958333334281,"midi":76,"time":177.04947916666666,"velocity":0.3937007874015748},{"duration":0.05598958333334281,"midi":90,"time":177.04947916666666,"velocity":0.3937007874015748},{"duration":0.05598958333334281,"midi":70,"time":177.04947916666666,"velocity":0.3937007874015748},{"duration":0.05598958333334281,"midi":78,"time":177.04947916666666,"velocity":0.3937007874015748},{"duration":0.05598958333334281,"midi":58,"time":177.06119791666666,"velocity":0.3937007874015748},{"duration":0.05598958333334281,"midi":67,"time":177.06119791666666,"velocity":0.3937007874015748},{"duration":0.16796875,"midi":64,"time":177.08333333333334,"velocity":0.3937007874015748},{"duration":0.055989583333314386,"midi":91,"time":177.08333333333334,"velocity":0.3937007874015748},{"duration":0.055989583333314386,"midi":89,"time":177.08333333333334,"velocity":0.3937007874015748},{"duration":0.055989583333314386,"midi":59,"time":177.08333333333334,"velocity":0.3937007874015748},{"duration":0.055989583333314386,"midi":77,"time":177.09505208333334,"velocity":0.3937007874015748},{"duration":0.05598958333334281,"midi":40,"time":177.10546875,"velocity":0.3937007874015748},{"duration":0.1692708333333428,"midi":86,"time":177.10546875,"velocity":0.3937007874015748},{"duration":0.05598958333334281,"midi":95,"time":177.10546875,"velocity":0.3937007874015748},{"duration":0.057291666666685614,"midi":76,"time":177.11588541666666,"velocity":0.3937007874015748},{"duration":0.057291666666685614,"midi":68,"time":177.11588541666666,"velocity":0.3937007874015748},{"duration":0.05729166666665719,"midi":59,"time":177.12630208333334,"velocity":0.3937007874015748},{"duration":0.05729166666665719,"midi":85,"time":177.12630208333334,"velocity":0.3937007874015748},{"duration":0.05598958333334281,"midi":94,"time":177.13932291666666,"velocity":0.3937007874015748},{"duration":0.05598958333334281,"midi":75,"time":177.13932291666666,"velocity":0.3937007874015748},{"duration":0.055989583333314386,"midi":52,"time":177.14973958333334,"velocity":0.3937007874015748},{"duration":0.055989583333314386,"midi":89,"time":177.14973958333334,"velocity":0.3937007874015748},{"duration":0.05729166666665719,"midi":84,"time":177.16015625,"velocity":0.3937007874015748},{"duration":0.05729166666665719,"midi":74,"time":177.18359375,"velocity":0.3937007874015748},{"duration":0.05729166666665719,"midi":47,"time":177.18359375,"velocity":0.3937007874015748},{"duration":0.171875,"midi":79,"time":177.19401041666666,"velocity":0.3937007874015748},{"duration":0.05859375,"midi":45,"time":177.20572916666666,"velocity":0.3937007874015748},{"duration":0.05859375,"midi":78,"time":177.20572916666666,"velocity":0.3937007874015748},{"duration":0.05859375,"midi":69,"time":177.24088541666666,"velocity":0.3937007874015748},{"duration":0.05859375,"midi":53,"time":177.24088541666666,"velocity":0.3937007874015748},{"duration":0.171875,"midi":74,"time":177.24088541666666,"velocity":0.3937007874015748},{"duration":0.171875,"midi":76,"time":177.25130208333334,"velocity":0.3937007874015748},{"duration":0.05859375,"midi":89,"time":177.25130208333334,"velocity":0.3937007874015748},{"duration":0.05859375,"midi":61,"time":177.25130208333334,"velocity":0.3937007874015748},{"duration":0.171875,"midi":88,"time":177.25130208333334,"velocity":0.3937007874015748},{"duration":0.05859375,"midi":84,"time":177.25130208333334,"velocity":0.3937007874015748},{"duration":0.05729166666665719,"midi":50,"time":177.26302083333334,"velocity":0.3937007874015748},{"duration":0.05729166666665719,"midi":64,"time":177.2734375,"velocity":0.3937007874015748},{"duration":0.05729166666665719,"midi":49,"time":177.2734375,"velocity":0.3937007874015748},{"duration":0.1731770833333428,"midi":57,"time":177.2734375,"velocity":0.3937007874015748},{"duration":0.05729166666665719,"midi":93,"time":177.28645833333334,"velocity":0.3937007874015748},{"duration":0.05729166666665719,"midi":81,"time":177.28645833333334,"velocity":0.3937007874015748},{"duration":0.05729166666665719,"midi":48,"time":177.28645833333334,"velocity":0.3937007874015748},{"duration":0.05729166666665719,"midi":62,"time":177.30859375,"velocity":0.3937007874015748},{"duration":0.05729166666665719,"midi":84,"time":177.30859375,"velocity":0.3937007874015748},{"duration":0.05859375,"midi":46,"time":177.3203125,"velocity":0.3937007874015748},{"duration":0.171875,"midi":79,"time":177.3203125,"velocity":0.3937007874015748},{"duration":0.05859375,"midi":87,"time":177.33072916666666,"velocity":0.3937007874015748},{"duration":0.05859375,"midi":68,"time":177.33072916666666,"velocity":0.3937007874015748},{"duration":0.05859375,"midi":62,"time":177.35416666666666,"velocity":0.3937007874015748},{"duration":0.1705729166666572,"midi":88,"time":177.38802083333334,"velocity":0.3937007874015748},{"duration":0.05859375,"midi":93,"time":177.38802083333334,"velocity":0.3937007874015748},{"duration":0.05859375,"midi":61,"time":177.39973958333334,"velocity":0.3937007874015748},{"duration":0.1705729166666572,"midi":91,"time":177.41145833333334,"velocity":0.3937007874015748},{"duration":0.05859375,"midi":72,"time":177.421875,"velocity":0.3937007874015748},{"duration":0.05729166666665719,"midi":62,"time":177.43489583333334,"velocity":0.3937007874015748},{"duration":0.055989583333314386,"midi":52,"time":177.44661458333334,"velocity":0.3937007874015748},{"duration":0.16927083333331439,"midi":67,"time":177.44661458333334,"velocity":0.3937007874015748},{"duration":0.05598958333334281,"midi":84,"time":177.45703125,"velocity":0.3937007874015748},{"duration":0.05598958333334281,"midi":75,"time":177.45703125,"velocity":0.3937007874015748},{"duration":0.05598958333334281,"midi":45,"time":177.45703125,"velocity":0.3937007874015748},{"duration":0.05598958333334281,"midi":63,"time":177.46875,"velocity":0.3937007874015748},{"duration":0.41796875,"midi":72,"time":177.48046875,"velocity":0.3937007874015748},{"duration":0.05598958333334281,"midi":95,"time":177.48046875,"velocity":0.3937007874015748},{"duration":0.05598958333334281,"midi":51,"time":177.48046875,"velocity":0.3937007874015748},{"duration":0.1692708333333428,"midi":76,"time":177.48046875,"velocity":0.3937007874015748},{"duration":0.17057291666668561,"midi":88,"time":177.49088541666666,"velocity":0.3937007874015748},{"duration":0.05729166666665719,"midi":45,"time":177.50130208333334,"velocity":0.3937007874015748},{"duration":0.171875,"midi":91,"time":177.51302083333334,"velocity":0.3937007874015748},{"duration":0.05859375,"midi":33,"time":177.5234375,"velocity":0.3937007874015748},{"duration":0.05859375,"midi":55,"time":177.546875,"velocity":0.3937007874015748},{"duration":0.05729166666665719,"midi":45,"time":177.55859375,"velocity":0.3937007874015748},{"duration":0.05729166666665719,"midi":64,"time":177.58203125,"velocity":0.3937007874015748},{"duration":0.05859375,"midi":53,"time":177.61458333333334,"velocity":0.3937007874015748},{"duration":0.05859375,"midi":69,"time":177.62630208333334,"velocity":0.3937007874015748},{"duration":0.05729166666665719,"midi":82,"time":177.63802083333334,"velocity":0.3937007874015748},{"duration":0.23177083333331439,"midi":87,"time":177.63802083333334,"velocity":0.3937007874015748},{"duration":0.05729166666665719,"midi":41,"time":177.63802083333334,"velocity":0.3937007874015748},{"duration":0.171875,"midi":74,"time":177.63802083333334,"velocity":0.3937007874015748},{"duration":0.05729166666665719,"midi":37,"time":177.6484375,"velocity":0.3937007874015748},{"duration":0.05729166666665719,"midi":66,"time":177.6484375,"velocity":0.3937007874015748},{"duration":0.05729166666665719,"midi":77,"time":177.6484375,"velocity":0.3937007874015748},{"duration":0.8020833333333144,"midi":50,"time":177.66145833333334,"velocity":0.3937007874015748},{"duration":0.055989583333314386,"midi":91,"time":177.66145833333334,"velocity":0.3937007874015748},{"duration":0.055989583333314386,"midi":79,"time":177.66145833333334,"velocity":0.3937007874015748},{"duration":0.171875,"midi":80,"time":177.67317708333334,"velocity":0.3937007874015748},{"duration":0.4231770833333144,"midi":57,"time":177.67317708333334,"velocity":0.3937007874015748},{"duration":0.2994791666666572,"midi":68,"time":177.68359375,"velocity":0.3937007874015748},{"duration":0.1731770833333428,"midi":92,"time":177.68359375,"velocity":0.3937007874015748},{"duration":0.05598958333334281,"midi":61,"time":177.68359375,"velocity":0.3937007874015748},{"duration":0.1744791666666572,"midi":90,"time":177.6953125,"velocity":0.3937007874015748},{"duration":0.2408854166666572,"midi":87,"time":177.6953125,"velocity":0.3937007874015748},{"duration":0.057291666666685614,"midi":76,"time":177.70572916666666,"velocity":0.3937007874015748},{"duration":0.05859375,"midi":63,"time":177.71614583333334,"velocity":0.3937007874015748},{"duration":0.30078125,"midi":89,"time":177.80989583333334,"velocity":0.3937007874015748},{"duration":0.17578125,"midi":91,"time":177.84505208333334,"velocity":0.3937007874015748},{"duration":0.17578125,"midi":77,"time":177.84505208333334,"velocity":0.3937007874015748},{"duration":0.6783854166666572,"midi":74,"time":177.84505208333334,"velocity":0.3937007874015748},{"duration":0.15234375,"midi":79,"time":177.85677083333334,"velocity":0.3937007874015748},{"duration":0.17578125,"midi":95,"time":177.85677083333334,"velocity":0.3937007874015748},{"duration":0.17578125,"midi":65,"time":177.92708333333334,"velocity":0.3937007874015748},{"duration":0.08203125,"midi":79,"time":177.95052083333334,"velocity":0.3937007874015748},{"duration":0.1276041666666572,"midi":84,"time":178.00911458333334,"velocity":0.3937007874015748},{"duration":0.059895833333314386,"midi":92,"time":178.00911458333334,"velocity":0.3937007874015748},{"duration":0.059895833333314386,"midi":80,"time":178.00911458333334,"velocity":0.3937007874015748},{"duration":0.05989583333334281,"midi":91,"time":178.03125,"velocity":0.3937007874015748},{"duration":0.05859375,"midi":78,"time":178.04427083333334,"velocity":0.3937007874015748},{"duration":0.2994791666666572,"midi":93,"time":178.04427083333334,"velocity":0.3937007874015748},{"duration":0.05859375,"midi":88,"time":178.04427083333334,"velocity":0.3937007874015748},{"duration":0.05859375,"midi":64,"time":178.04427083333334,"velocity":0.3937007874015748},{"duration":0.2994791666666572,"midi":77,"time":178.05598958333334,"velocity":0.3937007874015748},{"duration":0.17317708333331439,"midi":81,"time":178.05598958333334,"velocity":0.3937007874015748},{"duration":0.17317708333331439,"midi":57,"time":178.05598958333334,"velocity":0.3937007874015748},{"duration":0.05729166666665719,"midi":62,"time":178.06770833333334,"velocity":0.3937007874015748},{"duration":0.10286458333331439,"midi":84,"time":178.07942708333334,"velocity":0.3937007874015748},{"duration":0.05729166666665719,"midi":90,"time":178.07942708333334,"velocity":0.3937007874015748},{"duration":0.1744791666666572,"midi":62,"time":178.1015625,"velocity":0.3937007874015748},{"duration":0.05729166666665719,"midi":65,"time":178.125,"velocity":0.3937007874015748},{"duration":0.17578125,"midi":72,"time":178.13541666666666,"velocity":0.3937007874015748},{"duration":0.05859375,"midi":88,"time":178.13541666666666,"velocity":0.3937007874015748},{"duration":0.1770833333333428,"midi":65,"time":178.15885416666666,"velocity":0.3937007874015748},{"duration":0.1770833333333428,"midi":91,"time":178.22916666666666,"velocity":0.3937007874015748},{"duration":0.1783854166666572,"midi":87,"time":178.25130208333334,"velocity":0.3937007874015748},{"duration":0.1783854166666572,"midi":93,"time":178.25130208333334,"velocity":0.3937007874015748},{"duration":0.1783854166666572,"midi":57,"time":178.25130208333334,"velocity":0.3937007874015748},{"duration":0.1783854166666572,"midi":90,"time":178.25130208333334,"velocity":0.3937007874015748},{"duration":0.1783854166666572,"midi":84,"time":178.26302083333334,"velocity":0.3937007874015748},{"duration":0.05989583333334281,"midi":79,"time":178.27604166666666,"velocity":0.3937007874015748},{"duration":0.05989583333334281,"midi":89,"time":178.27604166666666,"velocity":0.3937007874015748},{"duration":0.05989583333334281,"midi":88,"time":178.27604166666666,"velocity":0.3937007874015748},{"duration":0.1796875,"midi":88,"time":178.29817708333334,"velocity":0.3937007874015748},{"duration":0.05989583333334281,"midi":78,"time":178.31119791666666,"velocity":0.3937007874015748},{"duration":0.05989583333334281,"midi":94,"time":178.32291666666666,"velocity":0.3937007874015748},{"duration":0.1770833333333428,"midi":91,"time":178.33463541666666,"velocity":0.3937007874015748},{"duration":0.1770833333333428,"midi":67,"time":178.34635416666666,"velocity":0.3937007874015748},{"duration":0.1770833333333428,"midi":79,"time":178.34635416666666,"velocity":0.3937007874015748},{"duration":0.17578125,"midi":95,"time":178.35807291666666,"velocity":0.3937007874015748},{"duration":0.13151041666668561,"midi":89,"time":178.35807291666666,"velocity":0.3937007874015748},{"duration":0.061197916666685614,"midi":88,"time":178.41666666666666,"velocity":0.3937007874015748},{"duration":0.3020833333333428,"midi":65,"time":178.4296875,"velocity":0.3937007874015748},{"duration":0.05989583333334281,"midi":61,"time":178.4296875,"velocity":0.3937007874015748},{"duration":0.10416666666665719,"midi":89,"time":178.4296875,"velocity":0.3937007874015748},{"duration":0.05989583333334281,"midi":69,"time":178.44140625,"velocity":0.3937007874015748},{"duration":0.05859375,"midi":87,"time":178.453125,"velocity":0.3937007874015748},{"duration":0.05859375,"midi":50,"time":178.453125,"velocity":0.3937007874015748},{"duration":0.05859375,"midi":60,"time":178.453125,"velocity":0.3937007874015748},{"duration":0.05729166666665719,"midi":68,"time":178.46614583333334,"velocity":0.3937007874015748},{"duration":0.055989583333314386,"midi":74,"time":178.47786458333334,"velocity":0.3937007874015748},{"duration":0.055989583333314386,"midi":84,"time":178.47786458333334,"velocity":0.3937007874015748},{"duration":0.055989583333314386,"midi":61,"time":178.47786458333334,"velocity":0.3937007874015748},{"duration":0.17317708333331439,"midi":94,"time":178.47786458333334,"velocity":0.3937007874015748},{"duration":0.1744791666666572,"midi":93,"time":178.48828125,"velocity":0.3937007874015748},{"duration":0.05729166666665719,"midi":69,"time":178.48828125,"velocity":0.3937007874015748},{"duration":0.1770833333333428,"midi":69,"time":178.58072916666666,"velocity":0.3937007874015748},{"duration":0.17447916666668561,"midi":50,"time":178.62760416666666,"velocity":0.3937007874015748},{"duration":0.061197916666685614,"midi":78,"time":178.66276041666666,"velocity":0.3937007874015748},{"duration":0.17447916666668561,"midi":72,"time":178.66276041666666,"velocity":0.3937007874015748},{"duration":0.061197916666685614,"midi":90,"time":178.66276041666666,"velocity":0.3937007874015748},{"duration":0.05989583333334281,"midi":66,"time":178.67447916666666,"velocity":0.3937007874015748},{"duration":0.05989583333334281,"midi":84,"time":178.67447916666666,"velocity":0.3937007874015748},{"duration":0.1731770833333428,"midi":60,"time":178.67447916666666,"velocity":0.3937007874015748},{"duration":0.05989583333334281,"midi":89,"time":178.67447916666666,"velocity":0.3937007874015748},{"duration":0.05989583333334281,"midi":95,"time":178.67447916666666,"velocity":0.3937007874015748},{"duration":0.1731770833333428,"midi":93,"time":178.67447916666666,"velocity":0.3937007874015748},{"duration":0.05989583333334281,"midi":77,"time":178.68619791666666,"velocity":0.3937007874015748},{"duration":0.171875,"midi":65,"time":178.69921875,"velocity":0.3937007874015748},{"duration":0.05859375,"midi":88,"time":178.69921875,"velocity":0.3937007874015748},{"duration":0.05729166666665719,"midi":76,"time":178.7109375,"velocity":0.3937007874015748},{"duration":0.05598958333334281,"midi":74,"time":178.72265625,"velocity":0.3937007874015748},{"duration":0.05598958333334281,"midi":84,"time":178.72265625,"velocity":0.3937007874015748},{"duration":0.05729166666665719,"midi":77,"time":178.734375,"velocity":0.3937007874015748},{"duration":0.05859375,"midi":85,"time":178.76692708333334,"velocity":0.3937007874015748},{"duration":0.05859375,"midi":78,"time":178.76692708333334,"velocity":0.3937007874015748},{"duration":0.05859375,"midi":84,"time":178.77864583333334,"velocity":0.3937007874015748},{"duration":0.296875,"midi":69,"time":178.77864583333334,"velocity":0.3937007874015748},{"duration":0.05729166666665719,"midi":88,"time":178.81380208333334,"velocity":0.3937007874015748},{"duration":0.17317708333331439,"midi":76,"time":178.81380208333334,"velocity":0.3937007874015748},{"duration":0.05729166666665719,"midi":83,"time":178.82552083333334,"velocity":0.3937007874015748},{"duration":0.05729166666665719,"midi":64,"time":178.82552083333334,"velocity":0.3937007874015748},{"duration":0.1731770833333428,"midi":50,"time":178.8359375,"velocity":0.3937007874015748},{"duration":0.1731770833333428,"midi":57,"time":178.8359375,"velocity":0.3937007874015748},{"duration":0.05859375,"midi":66,"time":178.91666666666666,"velocity":0.3937007874015748},{"duration":0.05859375,"midi":36,"time":178.98567708333334,"velocity":0.3937007874015748},{"duration":0.05859375,"midi":66,"time":179.00911458333334,"velocity":0.3937007874015748},{"duration":0.05859375,"midi":77,"time":179.00911458333334,"velocity":0.3937007874015748},{"duration":0.05729166666665719,"midi":41,"time":179.02083333333334,"velocity":0.3937007874015748},{"duration":0.05729166666665719,"midi":57,"time":179.02083333333334,"velocity":0.3937007874015748},{"duration":0.05729166666665719,"midi":89,"time":179.04427083333334,"velocity":0.3937007874015748},{"duration":0.05729166666665719,"midi":86,"time":179.04427083333334,"velocity":0.3937007874015748},{"duration":0.05729166666665719,"midi":95,"time":179.04427083333334,"velocity":0.3937007874015748},{"duration":0.05729166666665719,"midi":91,"time":179.04427083333334,"velocity":0.3937007874015748},{"duration":0.05729166666665719,"midi":67,"time":179.04427083333334,"velocity":0.3937007874015748},{"duration":0.1744791666666572,"midi":65,"time":179.06640625,"velocity":0.3937007874015748},{"duration":0.17578125,"midi":80,"time":179.078125,"velocity":0.3937007874015748},{"duration":0.17578125,"midi":68,"time":179.078125,"velocity":0.3937007874015748},{"duration":0.17578125,"midi":87,"time":179.078125,"velocity":0.3937007874015748},{"duration":0.05859375,"midi":57,"time":179.078125,"velocity":0.3937007874015748},{"duration":0.1770833333333428,"midi":84,"time":179.08854166666666,"velocity":0.3937007874015748},{"duration":0.1770833333333428,"midi":92,"time":179.08854166666666,"velocity":0.3937007874015748},{"duration":0.1653645833333428,"midi":50,"time":179.10026041666666,"velocity":0.3937007874015748},{"duration":0.17578125,"midi":90,"time":179.10026041666666,"velocity":0.3937007874015748},{"duration":0.061197916666685614,"midi":88,"time":179.15885416666666,"velocity":0.3937007874015748},{"duration":0.05989583333334281,"midi":93,"time":179.17057291666666,"velocity":0.3937007874015748},{"duration":0.05989583333334281,"midi":69,"time":179.17057291666666,"velocity":0.3937007874015748},{"duration":0.17447916666668561,"midi":80,"time":179.18229166666666,"velocity":0.3937007874015748},{"duration":0.1731770833333428,"midi":87,"time":179.1953125,"velocity":0.3937007874015748},{"duration":0.1731770833333428,"midi":92,"time":179.1953125,"velocity":0.3937007874015748},{"duration":0.1731770833333428,"midi":87,"time":179.20703125,"velocity":0.3937007874015748},{"duration":0.06901041666665719,"midi":50,"time":179.20703125,"velocity":0.3937007874015748},{"duration":0.05729166666665719,"midi":63,"time":179.21875,"velocity":0.3937007874015748},{"duration":0.1731770833333428,"midi":68,"time":179.21875,"velocity":0.3937007874015748},{"duration":0.1744791666666572,"midi":74,"time":179.23046875,"velocity":0.3937007874015748},{"duration":0.17578125,"midi":62,"time":179.24088541666666,"velocity":0.3937007874015748},{"duration":0.05859375,"midi":65,"time":179.24088541666666,"velocity":0.3937007874015748},{"duration":0.17578125,"midi":57,"time":179.25260416666666,"velocity":0.3937007874015748},{"duration":0.057291666666685614,"midi":81,"time":179.26432291666666,"velocity":0.3937007874015748},{"duration":0.17578125,"midi":89,"time":179.27604166666666,"velocity":0.3937007874015748},{"duration":0.7994791666666856,"midi":50,"time":179.27604166666666,"velocity":0.3937007874015748},{"duration":0.05859375,"midi":93,"time":179.27604166666666,"velocity":0.3937007874015748},{"duration":0.059895833333314386,"midi":67,"time":179.28645833333334,"velocity":0.3937007874015748},{"duration":0.17708333333331439,"midi":79,"time":179.29817708333334,"velocity":0.3937007874015748},{"duration":0.17708333333331439,"midi":91,"time":179.29817708333334,"velocity":0.3937007874015748},{"duration":0.05859375,"midi":65,"time":179.29817708333334,"velocity":0.3937007874015748},{"duration":0.17708333333331439,"midi":67,"time":179.35677083333334,"velocity":0.3937007874015748},{"duration":0.06119791666665719,"midi":95,"time":179.37890625,"velocity":0.3937007874015748},{"duration":0.17578125,"midi":72,"time":179.42838541666666,"velocity":0.3937007874015748},{"duration":0.05989583333334281,"midi":69,"time":179.42838541666666,"velocity":0.3937007874015748},{"duration":0.05989583333334281,"midi":65,"time":179.42838541666666,"velocity":0.3937007874015748},{"duration":0.059895833333314386,"midi":60,"time":179.45052083333334,"velocity":0.3937007874015748},{"duration":0.05989583333334281,"midi":57,"time":179.46354166666666,"velocity":0.3937007874015748},{"duration":0.17578125,"midi":66,"time":179.48697916666666,"velocity":0.3937007874015748},{"duration":0.17708333333331439,"midi":57,"time":179.49739583333334,"velocity":0.3937007874015748},{"duration":0.17578125,"midi":91,"time":179.58072916666666,"velocity":0.3937007874015748},{"duration":0.17578125,"midi":89,"time":179.60286458333334,"velocity":0.3937007874015748},{"duration":0.17578125,"midi":87,"time":179.60286458333334,"velocity":0.3937007874015748},{"duration":0.17578125,"midi":77,"time":179.60286458333334,"velocity":0.3937007874015748},{"duration":0.17578125,"midi":93,"time":179.60286458333334,"velocity":0.3937007874015748},{"duration":0.059895833333314386,"midi":82,"time":179.61458333333334,"velocity":0.3937007874015748},{"duration":0.059895833333314386,"midi":75,"time":179.61458333333334,"velocity":0.3937007874015748},{"duration":0.17447916666668561,"midi":84,"time":179.62760416666666,"velocity":0.3937007874015748},{"duration":0.059895833333314386,"midi":65,"time":179.64973958333334,"velocity":0.3937007874015748},{"duration":0.17447916666668561,"midi":57,"time":179.66276041666666,"velocity":0.3937007874015748},{"duration":0.05859375,"midi":66,"time":179.72005208333334,"velocity":0.3937007874015748},{"duration":0.17447916666668561,"midi":91,"time":179.73307291666666,"velocity":0.3937007874015748},{"duration":0.05859375,"midi":66,"time":179.77864583333334,"velocity":0.3937007874015748},{"duration":0.1744791666666572,"midi":89,"time":179.80078125,"velocity":0.3937007874015748},{"duration":0.1744791666666572,"midi":87,"time":179.80078125,"velocity":0.3937007874015748},{"duration":0.1744791666666572,"midi":84,"time":179.80078125,"velocity":0.3937007874015748},{"duration":0.1744791666666572,"midi":72,"time":179.80078125,"velocity":0.3937007874015748},{"duration":0.1744791666666572,"midi":93,"time":179.82421875,"velocity":0.3937007874015748},{"duration":0.1640625,"midi":60,"time":179.82421875,"velocity":0.3937007874015748},{"duration":0.1744791666666572,"midi":77,"time":179.82421875,"velocity":0.3937007874015748},{"duration":0.15234375,"midi":65,"time":179.8359375,"velocity":0.3937007874015748},{"duration":0.1744791666666572,"midi":91,"time":179.84765625,"velocity":0.3937007874015748},{"duration":0.05989583333334281,"midi":69,"time":179.859375,"velocity":0.3937007874015748},{"duration":0.1731770833333428,"midi":86,"time":179.859375,"velocity":0.3937007874015748},{"duration":0.1731770833333428,"midi":88,"time":179.87109375,"velocity":0.3937007874015748},{"duration":0.1731770833333428,"midi":88,"time":179.87109375,"velocity":0.3937007874015748},{"duration":0.05859375,"midi":59,"time":179.90625,"velocity":0.3937007874015748},{"duration":0.05729166666665719,"midi":74,"time":179.91796875,"velocity":0.3937007874015748},{"duration":0.08072916666665719,"midi":65,"time":179.9296875,"velocity":0.3937007874015748},{"duration":0.06901041666665719,"midi":60,"time":179.9296875,"velocity":0.3937007874015748},{"duration":0.05859375,"midi":57,"time":179.95182291666666,"velocity":0.3937007874015748},{"duration":0.05729166666665719,"midi":66,"time":179.96484375,"velocity":0.3937007874015748},{"duration":0.17057291666668561,"midi":76,"time":179.97526041666666,"velocity":0.3937007874015748},{"duration":0.05859375,"midi":69,"time":179.99739583333334,"velocity":0.3937007874015748},{"duration":0.16927083333331439,"midi":91,"time":179.99739583333334,"velocity":0.3937007874015748},{"duration":0.057291666666685614,"midi":64,"time":180.01041666666666,"velocity":0.3937007874015748},{"duration":0.16796875,"midi":72,"time":180.01041666666666,"velocity":0.3937007874015748},{"duration":0.057291666666685614,"midi":84,"time":180.01041666666666,"velocity":0.3937007874015748},{"duration":0.057291666666685614,"midi":89,"time":180.01041666666666,"velocity":0.3937007874015748},{"duration":0.05729166666665719,"midi":51,"time":180.02083333333334,"velocity":0.3937007874015748},{"duration":0.05729166666665719,"midi":68,"time":180.03125,"velocity":0.3937007874015748},{"duration":0.05729166666665719,"midi":87,"time":180.03125,"velocity":0.3937007874015748},{"duration":0.05729166666665719,"midi":50,"time":180.03125,"velocity":0.3937007874015748},{"duration":0.055989583333314386,"midi":82,"time":180.05598958333334,"velocity":0.3937007874015748},{"duration":0.05729166666665719,"midi":75,"time":180.06640625,"velocity":0.3937007874015748},{"duration":0.171875,"midi":90,"time":180.06640625,"velocity":0.3937007874015748},{"duration":0.05729166666665719,"midi":51,"time":180.078125,"velocity":0.3937007874015748},{"duration":0.1731770833333428,"midi":90,"time":180.078125,"velocity":0.3937007874015748},{"duration":0.1731770833333428,"midi":76,"time":180.08854166666666,"velocity":0.3937007874015748},{"duration":0.1731770833333428,"midi":74,"time":180.08854166666666,"velocity":0.3937007874015748},{"duration":0.1731770833333428,"midi":81,"time":180.08854166666666,"velocity":0.3937007874015748},{"duration":0.057291666666685614,"midi":84,"time":180.08854166666666,"velocity":0.3937007874015748},{"duration":0.05729166666665719,"midi":50,"time":180.09895833333334,"velocity":0.3937007874015748},{"duration":0.055989583333314386,"midi":89,"time":180.11067708333334,"velocity":0.3937007874015748},{"duration":0.1744791666666572,"midi":79,"time":180.13411458333334,"velocity":0.3937007874015748},{"duration":0.5481770833333428,"midi":72,"time":180.15625,"velocity":0.3937007874015748},{"duration":0.061197916666685614,"midi":64,"time":180.19010416666666,"velocity":0.3937007874015748},{"duration":0.05989583333334281,"midi":47,"time":180.20182291666666,"velocity":0.3937007874015748},{"duration":0.05989583333334281,"midi":63,"time":180.21354166666666,"velocity":0.3937007874015748},{"duration":0.05989583333334281,"midi":53,"time":180.21354166666666,"velocity":0.3937007874015748},{"duration":0.2981770833333428,"midi":76,"time":180.2265625,"velocity":0.3937007874015748},{"duration":0.4231770833333428,"midi":91,"time":180.2265625,"velocity":0.3937007874015748},{"duration":0.05859375,"midi":47,"time":180.25,"velocity":0.3937007874015748},{"duration":0.05859375,"midi":57,"time":180.26041666666666,"velocity":0.3937007874015748},{"duration":0.1731770833333428,"midi":81,"time":180.29557291666666,"velocity":0.3937007874015748},{"duration":0.05859375,"midi":47,"time":180.31901041666666,"velocity":0.3937007874015748},{"duration":0.05859375,"midi":48,"time":180.35416666666666,"velocity":0.3937007874015748},{"duration":0.05859375,"midi":59,"time":180.37630208333334,"velocity":0.3937007874015748},{"duration":0.05859375,"midi":94,"time":180.38802083333334,"velocity":0.3937007874015748},{"duration":0.2994791666666572,"midi":79,"time":180.38802083333334,"velocity":0.3937007874015748},{"duration":0.1744791666666572,"midi":60,"time":180.39973958333334,"velocity":0.3937007874015748},{"duration":0.05729166666665719,"midi":89,"time":180.41145833333334,"velocity":0.3937007874015748},{"duration":0.2981770833333144,"midi":88,"time":180.41145833333334,"velocity":0.3937007874015748},{"duration":0.16145833333331439,"midi":48,"time":180.42317708333334,"velocity":0.3937007874015748},{"duration":0.1393229166666572,"midi":57,"time":180.43489583333334,"velocity":0.3937007874015748},{"duration":0.1744791666666572,"midi":93,"time":180.4453125,"velocity":0.3937007874015748},{"duration":0.05859375,"midi":41,"time":180.4453125,"velocity":0.3937007874015748},{"duration":0.1627604166666572,"midi":41,"time":180.50390625,"velocity":0.3937007874015748},{"duration":0.09375,"midi":57,"time":180.51432291666666,"velocity":0.3937007874015748},{"duration":0.0703125,"midi":48,"time":180.52604166666666,"velocity":0.3937007874015748},{"duration":0.2981770833333428,"midi":76,"time":180.56119791666666,"velocity":0.3937007874015748},{"duration":0.05859375,"midi":57,"time":180.57421875,"velocity":0.3937007874015748},{"duration":0.05989583333334281,"midi":86,"time":180.58463541666666,"velocity":0.3937007874015748},{"duration":0.059895833333314386,"midi":89,"time":180.59505208333334,"velocity":0.3937007874015748},{"duration":0.059895833333314386,"midi":61,"time":180.59505208333334,"velocity":0.3937007874015748},{"duration":0.07161458333331439,"midi":41,"time":180.60677083333334,"velocity":0.3937007874015748},{"duration":0.17578125,"midi":62,"time":180.61979166666666,"velocity":0.3937007874015748},{"duration":0.17578125,"midi":93,"time":180.61979166666666,"velocity":0.3937007874015748},{"duration":0.05859375,"midi":42,"time":180.63151041666666,"velocity":0.3937007874015748},{"duration":0.17317708333331439,"midi":42,"time":180.70052083333334,"velocity":0.3937007874015748},{"duration":0.059895833333314386,"midi":57,"time":180.70052083333334,"velocity":0.3937007874015748},{"duration":0.171875,"midi":93,"time":180.74739583333334,"velocity":0.3937007874015748},{"duration":0.059895833333314386,"midi":84,"time":180.74739583333334,"velocity":0.3937007874015748},{"duration":0.125,"midi":86,"time":180.75911458333334,"velocity":0.3937007874015748},{"duration":0.059895833333314386,"midi":87,"time":180.77083333333334,"velocity":0.3937007874015748},{"duration":0.05859375,"midi":95,"time":180.78255208333334,"velocity":0.3937007874015748},{"duration":0.16927083333331439,"midi":79,"time":180.78255208333334,"velocity":0.3937007874015748},{"duration":0.05729166666665719,"midi":64,"time":180.79427083333334,"velocity":0.3937007874015748},{"duration":0.05729166666665719,"midi":84,"time":180.79427083333334,"velocity":0.3937007874015748},{"duration":0.05598958333334281,"midi":70,"time":180.80729166666666,"velocity":0.3937007874015748},{"duration":0.05598958333334281,"midi":90,"time":180.80729166666666,"velocity":0.3937007874015748},{"duration":0.055989583333314386,"midi":41,"time":180.81770833333334,"velocity":0.3937007874015748},{"duration":0.10026041666665719,"midi":86,"time":180.82942708333334,"velocity":0.3937007874015748},{"duration":0.0546875,"midi":67,"time":180.82942708333334,"velocity":0.3937007874015748},{"duration":0.0546875,"midi":63,"time":180.82942708333334,"velocity":0.3937007874015748},{"duration":0.0546875,"midi":60,"time":180.82942708333334,"velocity":0.3937007874015748},{"duration":0.0546875,"midi":37,"time":180.82942708333334,"velocity":0.3937007874015748},{"duration":0.0546875,"midi":91,"time":180.82942708333334,"velocity":0.3937007874015748},{"duration":0.296875,"midi":77,"time":180.84114583333334,"velocity":0.3937007874015748},{"duration":0.546875,"midi":50,"time":180.84114583333334,"velocity":0.3937007874015748},{"duration":0.296875,"midi":87,"time":180.8515625,"velocity":0.3937007874015748},{"duration":0.171875,"midi":68,"time":180.86197916666666,"velocity":0.3937007874015748},{"duration":0.2981770833333428,"midi":87,"time":180.86197916666666,"velocity":0.3937007874015748},{"duration":0.2981770833333428,"midi":80,"time":180.86197916666666,"velocity":0.3937007874015748},{"duration":0.057291666666685614,"midi":30,"time":180.86197916666666,"velocity":0.3937007874015748},{"duration":0.057291666666685614,"midi":42,"time":180.86197916666666,"velocity":0.3937007874015748},{"duration":0.05729166666665719,"midi":70,"time":180.87239583333334,"velocity":0.3937007874015748},{"duration":0.05729166666665719,"midi":43,"time":180.88411458333334,"velocity":0.3937007874015748},{"duration":0.1744791666666572,"midi":90,"time":180.88411458333334,"velocity":0.3937007874015748},{"duration":0.1744791666666572,"midi":84,"time":180.88411458333334,"velocity":0.3937007874015748},{"duration":0.17578125,"midi":43,"time":180.94010416666666,"velocity":0.3937007874015748},{"duration":0.1770833333333428,"midi":84,"time":180.99869791666666,"velocity":0.3937007874015748},{"duration":0.1783854166666572,"midi":43,"time":181.02083333333334,"velocity":0.3937007874015748},{"duration":0.06119791666665719,"midi":90,"time":181.02083333333334,"velocity":0.3937007874015748},{"duration":0.3020833333333428,"midi":65,"time":181.03385416666666,"velocity":0.3937007874015748},{"duration":0.05989583333334281,"midi":68,"time":181.04557291666666,"velocity":0.3937007874015748},{"duration":0.17838541666668561,"midi":70,"time":181.04557291666666,"velocity":0.3937007874015748},{"duration":0.16666666666668561,"midi":31,"time":181.05729166666666,"velocity":0.3937007874015748},{"duration":0.1770833333333428,"midi":95,"time":181.0703125,"velocity":0.3937007874015748},{"duration":0.1770833333333428,"midi":89,"time":181.0703125,"velocity":0.3937007874015748},{"duration":0.17578125,"midi":86,"time":181.08203125,"velocity":0.3937007874015748},{"duration":0.05859375,"midi":91,"time":181.08203125,"velocity":0.3937007874015748},{"duration":0.17578125,"midi":43,"time":181.10416666666666,"velocity":0.3937007874015748},{"duration":0.17578125,"midi":91,"time":181.11588541666666,"velocity":0.3937007874015748},{"duration":0.17578125,"midi":77,"time":181.11588541666666,"velocity":0.3937007874015748},{"duration":0.17578125,"midi":86,"time":181.11588541666666,"velocity":0.3937007874015748},{"duration":0.17578125,"midi":79,"time":181.12760416666666,"velocity":0.3937007874015748},{"duration":0.4244791666666856,"midi":55,"time":181.15104166666666,"velocity":0.3937007874015748},{"duration":0.07161458333334281,"midi":31,"time":181.16276041666666,"velocity":0.3937007874015748},{"duration":0.05989583333334281,"midi":73,"time":181.1875,"velocity":0.3937007874015748},{"duration":0.05859375,"midi":93,"time":181.2109375,"velocity":0.3937007874015748},{"duration":0.05859375,"midi":88,"time":181.2109375,"velocity":0.3937007874015748},{"duration":0.1731770833333428,"midi":43,"time":181.2109375,"velocity":0.3937007874015748},{"duration":0.05859375,"midi":70,"time":181.2109375,"velocity":0.3937007874015748},{"duration":0.421875,"midi":62,"time":181.2109375,"velocity":0.3937007874015748},{"duration":0.05729166666665719,"midi":81,"time":181.22395833333334,"velocity":0.3937007874015748},{"duration":0.05729166666665719,"midi":31,"time":181.22395833333334,"velocity":0.3937007874015748},{"duration":0.05729166666665719,"midi":84,"time":181.24609375,"velocity":0.3937007874015748},{"duration":0.05729166666665719,"midi":90,"time":181.24609375,"velocity":0.3937007874015748},{"duration":0.17578125,"midi":72,"time":181.25651041666666,"velocity":0.3937007874015748},{"duration":0.05859375,"midi":31,"time":181.25651041666666,"velocity":0.3937007874015748},{"duration":0.17578125,"midi":77,"time":181.25651041666666,"velocity":0.3937007874015748},{"duration":0.17578125,"midi":70,"time":181.25651041666666,"velocity":0.3937007874015748},{"duration":0.1744791666666572,"midi":80,"time":181.26953125,"velocity":0.3937007874015748},{"duration":0.059895833333314386,"midi":65,"time":181.29036458333334,"velocity":0.3937007874015748},{"duration":0.17578125,"midi":43,"time":181.29036458333334,"velocity":0.3937007874015748},{"duration":0.05859375,"midi":31,"time":181.30338541666666,"velocity":0.3937007874015748},{"duration":0.16276041666668561,"midi":93,"time":181.30338541666666,"velocity":0.3937007874015748},{"duration":0.1744791666666572,"midi":50,"time":181.36067708333334,"velocity":0.3937007874015748},{"duration":0.17578125,"midi":31,"time":181.37109375,"velocity":0.3937007874015748},{"duration":0.06119791666665719,"midi":64,"time":181.37109375,"velocity":0.3937007874015748},{"duration":0.1744791666666572,"midi":77,"time":181.38411458333334,"velocity":0.3937007874015748},{"duration":0.4231770833333144,"midi":89,"time":181.38411458333334,"velocity":0.3937007874015748},{"duration":0.059895833333314386,"midi":65,"time":181.39583333333334,"velocity":0.3937007874015748},{"duration":0.17317708333331439,"midi":91,"time":181.40755208333334,"velocity":0.3937007874015748},{"duration":0.0703125,"midi":93,"time":181.40755208333334,"velocity":0.3937007874015748},{"duration":0.171875,"midi":82,"time":181.42057291666666,"velocity":0.3937007874015748},{"duration":0.171875,"midi":84,"time":181.42057291666666,"velocity":0.3937007874015748},{"duration":0.171875,"midi":65,"time":181.44270833333334,"velocity":0.3937007874015748},{"duration":0.171875,"midi":50,"time":181.44270833333334,"velocity":0.3937007874015748},{"duration":0.05859375,"midi":94,"time":181.44270833333334,"velocity":0.3937007874015748},{"duration":0.057291666666685614,"midi":70,"time":181.45572916666666,"velocity":0.3937007874015748},{"duration":0.057291666666685614,"midi":78,"time":181.45572916666666,"velocity":0.3937007874015748},{"duration":0.057291666666685614,"midi":88,"time":181.45572916666666,"velocity":0.3937007874015748},{"duration":0.057291666666685614,"midi":90,"time":181.45572916666666,"velocity":0.3937007874015748},{"duration":0.17317708333331439,"midi":77,"time":181.46614583333334,"velocity":0.3937007874015748},{"duration":0.17317708333331439,"midi":72,"time":181.46614583333334,"velocity":0.3937007874015748},{"duration":0.1731770833333428,"midi":31,"time":181.4765625,"velocity":0.3937007874015748},{"duration":0.05859375,"midi":79,"time":181.48828125,"velocity":0.3937007874015748},{"duration":0.171875,"midi":95,"time":181.48828125,"velocity":0.3937007874015748},{"duration":0.171875,"midi":70,"time":181.51171875,"velocity":0.3937007874015748},{"duration":0.05859375,"midi":92,"time":181.52213541666666,"velocity":0.3937007874015748},{"duration":0.05729166666665719,"midi":68,"time":181.53515625,"velocity":0.3937007874015748},{"duration":0.1705729166666572,"midi":79,"time":181.546875,"velocity":0.3937007874015748},{"duration":0.171875,"midi":91,"time":181.55729166666666,"velocity":0.3937007874015748},{"duration":0.05859375,"midi":67,"time":181.58072916666666,"velocity":0.3937007874015748},{"duration":0.05859375,"midi":51,"time":181.59114583333334,"velocity":0.3937007874015748},{"duration":0.05859375,"midi":87,"time":181.6015625,"velocity":0.3937007874015748},{"duration":0.05859375,"midi":76,"time":181.6015625,"velocity":0.3937007874015748},{"duration":0.05859375,"midi":60,"time":181.61458333333334,"velocity":0.3937007874015748},{"duration":0.05859375,"midi":68,"time":181.61458333333334,"velocity":0.3937007874015748},{"duration":0.1744791666666572,"midi":65,"time":181.62630208333334,"velocity":0.3937007874015748},{"duration":0.05729166666665719,"midi":70,"time":181.62630208333334,"velocity":0.3937007874015748},{"duration":0.05729166666665719,"midi":60,"time":181.64973958333334,"velocity":0.3937007874015748},{"duration":0.05729166666665719,"midi":93,"time":181.64973958333334,"velocity":0.3937007874015748},{"duration":0.05729166666665719,"midi":49,"time":181.64973958333334,"velocity":0.3937007874015748},{"duration":0.17578125,"midi":62,"time":181.68359375,"velocity":0.3937007874015748},{"duration":0.05989583333334281,"midi":82,"time":181.69401041666666,"velocity":0.3937007874015748},{"duration":0.17447916666668561,"midi":55,"time":181.70572916666666,"velocity":0.3937007874015748},{"duration":0.061197916666685614,"midi":89,"time":181.76432291666666,"velocity":0.3937007874015748},{"duration":0.05989583333334281,"midi":66,"time":181.77604166666666,"velocity":0.3937007874015748},{"duration":0.05989583333334281,"midi":44,"time":181.77604166666666,"velocity":0.3937007874015748},{"duration":0.05989583333334281,"midi":54,"time":181.77604166666666,"velocity":0.3937007874015748},{"duration":0.171875,"midi":91,"time":181.78776041666666,"velocity":0.3937007874015748},{"duration":0.171875,"midi":72,"time":181.78776041666666,"velocity":0.3937007874015748},{"duration":0.05859375,"midi":87,"time":181.80078125,"velocity":0.3937007874015748},{"duration":0.171875,"midi":89,"time":181.80078125,"velocity":0.3937007874015748},{"duration":0.171875,"midi":94,"time":181.80078125,"velocity":0.3937007874015748},{"duration":0.171875,"midi":55,"time":181.80078125,"velocity":0.3937007874015748},{"duration":0.05729166666665719,"midi":65,"time":181.8125,"velocity":0.3937007874015748},{"duration":0.05598958333334281,"midi":76,"time":181.82421875,"velocity":0.3937007874015748},{"duration":0.4231770833333428,"midi":43,"time":181.82421875,"velocity":0.3937007874015748},{"duration":0.05598958333334281,"midi":88,"time":181.82421875,"velocity":0.3937007874015748},{"duration":0.05598958333334281,"midi":95,"time":181.82421875,"velocity":0.3937007874015748},{"duration":0.05598958333334281,"midi":93,"time":181.82421875,"velocity":0.3937007874015748},{"duration":0.05598958333334281,"midi":92,"time":181.8359375,"velocity":0.3937007874015748},{"duration":0.171875,"midi":86,"time":181.84635416666666,"velocity":0.3937007874015748},{"duration":0.057291666666685614,"midi":62,"time":181.84635416666666,"velocity":0.3937007874015748},{"duration":0.171875,"midi":89,"time":181.84635416666666,"velocity":0.3937007874015748},{"duration":0.171875,"midi":77,"time":181.85807291666666,"velocity":0.3937007874015748},{"duration":0.05729166666665719,"midi":84,"time":181.86848958333334,"velocity":0.3937007874015748},{"duration":0.17317708333331439,"midi":93,"time":181.86848958333334,"velocity":0.3937007874015748},{"duration":0.05729166666665719,"midi":87,"time":181.88020833333334,"velocity":0.3937007874015748},{"duration":0.30078125,"midi":70,"time":181.890625,"velocity":0.3937007874015748},{"duration":0.4270833333333428,"midi":62,"time":181.93619791666666,"velocity":0.3937007874015748},{"duration":0.17447916666668561,"midi":65,"time":181.97135416666666,"velocity":0.3937007874015748},{"duration":0.05989583333334281,"midi":55,"time":181.99479166666666,"velocity":0.3937007874015748},{"duration":0.059895833333314386,"midi":67,"time":182.01692708333334,"velocity":0.3937007874015748},{"duration":0.1770833333333428,"midi":55,"time":182.02994791666666,"velocity":0.3937007874015748},{"duration":0.06119791666665719,"midi":77,"time":182.15755208333334,"velocity":0.3937007874015748},{"duration":0.17708333333331439,"midi":92,"time":182.16927083333334,"velocity":0.3937007874015748},{"duration":0.17708333333331439,"midi":68,"time":182.16927083333334,"velocity":0.3937007874015748},{"duration":0.17708333333331439,"midi":89,"time":182.16927083333334,"velocity":0.3937007874015748},{"duration":0.05989583333334281,"midi":87,"time":182.18229166666666,"velocity":0.3937007874015748},{"duration":0.05989583333334281,"midi":84,"time":182.18229166666666,"velocity":0.3937007874015748},{"duration":0.05989583333334281,"midi":80,"time":182.18229166666666,"velocity":0.3937007874015748},{"duration":0.05989583333334281,"midi":53,"time":182.18229166666666,"velocity":0.3937007874015748},{"duration":0.05989583333334281,"midi":58,"time":182.19401041666666,"velocity":0.3937007874015748},{"duration":0.05989583333334281,"midi":47,"time":182.19401041666666,"velocity":0.3937007874015748},{"duration":0.05989583333334281,"midi":87,"time":182.19401041666666,"velocity":0.3937007874015748},{"duration":0.05859375,"midi":95,"time":182.21875,"velocity":0.3937007874015748},{"duration":0.05859375,"midi":86,"time":182.22916666666666,"velocity":0.3937007874015748},{"duration":0.05859375,"midi":79,"time":182.24088541666666,"velocity":0.3937007874015748},{"duration":0.17447916666668561,"midi":47,"time":182.24088541666666,"velocity":0.3937007874015748},{"duration":0.17447916666668561,"midi":65,"time":182.24088541666666,"velocity":0.3937007874015748},{"duration":0.17578125,"midi":87,"time":182.26432291666666,"velocity":0.3937007874015748},{"duration":0.17578125,"midi":87,"time":182.26432291666666,"velocity":0.3937007874015748},{"duration":0.17578125,"midi":80,"time":182.26432291666666,"velocity":0.3937007874015748},{"duration":0.17578125,"midi":84,"time":182.27604166666666,"velocity":0.3937007874015748},{"duration":0.17708333333331439,"midi":90,"time":182.28645833333334,"velocity":0.3937007874015748},{"duration":0.05859375,"midi":59,"time":182.33463541666666,"velocity":0.3937007874015748},{"duration":0.17708333333331439,"midi":74,"time":182.36848958333334,"velocity":0.3937007874015748},{"duration":0.30078125,"midi":62,"time":182.39192708333334,"velocity":0.3937007874015748},{"duration":0.1783854166666572,"midi":89,"time":182.40234375,"velocity":0.3937007874015748},{"duration":0.1783854166666572,"midi":95,"time":182.41536458333334,"velocity":0.3937007874015748},{"duration":0.1783854166666572,"midi":89,"time":182.41536458333334,"velocity":0.3937007874015748},{"duration":0.17708333333331439,"midi":79,"time":182.42708333333334,"velocity":0.3937007874015748},{"duration":0.4244791666666572,"midi":50,"time":182.43880208333334,"velocity":0.3937007874015748},{"duration":0.5533854166666856,"midi":43,"time":182.45182291666666,"velocity":0.3937007874015748},{"duration":0.05989583333334281,"midi":67,"time":182.51041666666666,"velocity":0.3937007874015748},{"duration":0.05989583333334281,"midi":30,"time":182.51041666666666,"velocity":0.3937007874015748},{"duration":0.05989583333334281,"midi":31,"time":182.53385416666666,"velocity":0.3937007874015748},{"duration":0.1731770833333428,"midi":65,"time":182.59244791666666,"velocity":0.3937007874015748},{"duration":0.05859375,"midi":59,"time":182.61588541666666,"velocity":0.3937007874015748},{"duration":0.057291666666685614,"midi":31,"time":182.62760416666666,"velocity":0.3937007874015748},{"duration":0.057291666666685614,"midi":30,"time":182.65104166666666,"velocity":0.3937007874015748},{"duration":0.05729166666665719,"midi":31,"time":182.67317708333334,"velocity":0.3937007874015748},{"duration":0.05859375,"midi":80,"time":182.68489583333334,"velocity":0.3937007874015748},{"duration":0.05859375,"midi":31,"time":182.70703125,"velocity":0.3937007874015748},{"duration":0.17578125,"midi":80,"time":182.765625,"velocity":0.3937007874015748},{"duration":0.05989583333334281,"midi":82,"time":182.77604166666666,"velocity":0.3937007874015748},{"duration":0.05989583333334281,"midi":91,"time":182.77604166666666,"velocity":0.3937007874015748},{"duration":0.05859375,"midi":86,"time":182.78776041666666,"velocity":0.3937007874015748},{"duration":0.05859375,"midi":66,"time":182.78776041666666,"velocity":0.3937007874015748},{"duration":0.05859375,"midi":67,"time":182.81119791666666,"velocity":0.3937007874015748},{"duration":0.05859375,"midi":85,"time":182.82291666666666,"velocity":0.3937007874015748},{"duration":0.05859375,"midi":85,"time":182.8359375,"velocity":0.3937007874015748},{"duration":0.05989583333334281,"midi":66,"time":182.84635416666666,"velocity":0.3937007874015748},{"duration":0.1796875,"midi":84,"time":182.86848958333334,"velocity":0.3937007874015748},{"duration":0.1796875,"midi":65,"time":182.86848958333334,"velocity":0.3937007874015748},{"duration":0.1796875,"midi":77,"time":182.86848958333334,"velocity":0.3937007874015748},{"duration":0.17838541666668561,"midi":87,"time":182.94010416666666,"velocity":0.3937007874015748},{"duration":0.061197916666685614,"midi":62,"time":182.94010416666666,"velocity":0.3937007874015748},{"duration":0.1783854166666572,"midi":93,"time":182.953125,"velocity":0.3937007874015748},{"duration":0.1770833333333428,"midi":65,"time":182.96484375,"velocity":0.3937007874015748},{"duration":0.06119791666665719,"midi":50,"time":182.9765625,"velocity":0.3937007874015748},{"duration":0.06119791666665719,"midi":56,"time":182.9765625,"velocity":0.3937007874015748},{"duration":0.05989583333334281,"midi":42,"time":182.98828125,"velocity":0.3937007874015748},{"duration":0.17578125,"midi":72,"time":182.98828125,"velocity":0.3937007874015748},{"duration":0.17578125,"midi":60,"time":183.00130208333334,"velocity":0.3937007874015748},{"duration":0.05859375,"midi":78,"time":183.01302083333334,"velocity":0.3937007874015748},{"duration":0.17578125,"midi":50,"time":183.01302083333334,"velocity":0.3937007874015748},{"duration":0.05859375,"midi":85,"time":183.02473958333334,"velocity":0.3937007874015748},{"duration":0.1744791666666572,"midi":43,"time":183.02473958333334,"velocity":0.3937007874015748},{"duration":0.17578125,"midi":77,"time":183.04817708333334,"velocity":0.3937007874015748},{"duration":0.1744791666666572,"midi":74,"time":183.07161458333334,"velocity":0.3937007874015748},{"duration":0.059895833333314386,"midi":31,"time":183.07161458333334,"velocity":0.3937007874015748},{"duration":0.05859375,"midi":60,"time":183.13020833333334,"velocity":0.3937007874015748},{"duration":0.05859375,"midi":31,"time":183.13020833333334,"velocity":0.3937007874015748},{"duration":0.05859375,"midi":65,"time":183.13020833333334,"velocity":0.3937007874015748},{"duration":0.05989583333334281,"midi":64,"time":183.1640625,"velocity":0.3937007874015748},{"duration":0.05989583333334281,"midi":31,"time":183.1640625,"velocity":0.3937007874015748},{"duration":0.2942708333333428,"midi":79,"time":183.17578125,"velocity":0.3937007874015748},{"duration":0.05859375,"midi":68,"time":183.17578125,"velocity":0.3937007874015748},{"duration":0.1705729166666572,"midi":88,"time":183.18880208333334,"velocity":0.3937007874015748},{"duration":0.05729166666665719,"midi":51,"time":183.18880208333334,"velocity":0.3937007874015748},{"duration":0.171875,"midi":76,"time":183.19921875,"velocity":0.3937007874015748},{"duration":0.05729166666665719,"midi":83,"time":183.19921875,"velocity":0.3937007874015748},{"duration":0.05729166666665719,"midi":50,"time":183.19921875,"velocity":0.3937007874015748},{"duration":0.05729166666665719,"midi":90,"time":183.19921875,"velocity":0.3937007874015748},{"duration":0.1705729166666572,"midi":84,"time":183.2109375,"velocity":0.3937007874015748},{"duration":0.05598958333334281,"midi":60,"time":183.2109375,"velocity":0.3937007874015748},{"duration":0.1705729166666572,"midi":32,"time":183.2109375,"velocity":0.3937007874015748},{"duration":0.0546875,"midi":52,"time":183.22395833333334,"velocity":0.3937007874015748},{"duration":0.0546875,"midi":91,"time":183.22395833333334,"velocity":0.3937007874015748},{"duration":0.0546875,"midi":69,"time":183.234375,"velocity":0.3937007874015748},{"duration":0.0546875,"midi":87,"time":183.234375,"velocity":0.3937007874015748},{"duration":0.0546875,"midi":89,"time":183.234375,"velocity":0.3937007874015748},{"duration":0.0546875,"midi":82,"time":183.234375,"velocity":0.3937007874015748},{"duration":0.5455729166666856,"midi":45,"time":183.24479166666666,"velocity":0.3937007874015748},{"duration":0.1744791666666572,"midi":67,"time":183.25520833333334,"velocity":0.3937007874015748},{"duration":0.05729166666665719,"midi":52,"time":183.26692708333334,"velocity":0.3937007874015748},{"duration":0.05729166666665719,"midi":75,"time":183.26692708333334,"velocity":0.3937007874015748},{"duration":0.1744791666666572,"midi":90,"time":183.27734375,"velocity":0.3937007874015748},{"duration":0.17447916666668561,"midi":88,"time":183.28776041666666,"velocity":0.3937007874015748},{"duration":0.17447916666668561,"midi":86,"time":183.28776041666666,"velocity":0.3937007874015748},{"duration":0.17447916666668561,"midi":74,"time":183.28776041666666,"velocity":0.3937007874015748},{"duration":0.17447916666668561,"midi":81,"time":183.28776041666666,"velocity":0.3937007874015748},{"duration":0.17447916666668561,"midi":52,"time":183.29947916666666,"velocity":0.3937007874015748},{"duration":0.05989583333334281,"midi":33,"time":183.31119791666666,"velocity":0.3937007874015748},{"duration":0.05989583333334281,"midi":77,"time":183.36979166666666,"velocity":0.3937007874015748},{"duration":0.4231770833333428,"midi":72,"time":183.38151041666666,"velocity":0.3937007874015748},{"duration":0.05989583333334281,"midi":69,"time":183.38151041666666,"velocity":0.3937007874015748},{"duration":0.05989583333334281,"midi":59,"time":183.38151041666666,"velocity":0.3937007874015748},{"duration":0.05859375,"midi":63,"time":183.39322916666666,"velocity":0.3937007874015748},{"duration":0.057291666666685614,"midi":33,"time":183.40494791666666,"velocity":0.3937007874015748},{"duration":0.05598958333334281,"midi":61,"time":183.41796875,"velocity":0.3937007874015748},{"duration":0.171875,"midi":67,"time":183.41796875,"velocity":0.3937007874015748},{"duration":0.05598958333334281,"midi":89,"time":183.41796875,"velocity":0.3937007874015748},{"duration":0.05598958333334281,"midi":85,"time":183.4296875,"velocity":0.3937007874015748},{"duration":0.057291666666685614,"midi":63,"time":183.44010416666666,"velocity":0.3937007874015748},{"duration":0.1744791666666572,"midi":69,"time":183.47265625,"velocity":0.3937007874015748},{"duration":0.05989583333334281,"midi":33,"time":183.47265625,"velocity":0.3937007874015748},{"duration":0.05989583333334281,"midi":33,"time":183.5078125,"velocity":0.3937007874015748},{"duration":0.05859375,"midi":81,"time":183.51953125,"velocity":0.3937007874015748},{"duration":0.2981770833333144,"midi":76,"time":183.53255208333334,"velocity":0.3937007874015748},{"duration":0.05859375,"midi":52,"time":183.54296875,"velocity":0.3937007874015748},{"duration":0.05729166666665719,"midi":65,"time":183.5546875,"velocity":0.3937007874015748},{"duration":0.05729166666665719,"midi":74,"time":183.56770833333334,"velocity":0.3937007874015748},{"duration":0.05859375,"midi":56,"time":183.578125,"velocity":0.3937007874015748},{"duration":0.1744791666666572,"midi":69,"time":183.578125,"velocity":0.3937007874015748},{"duration":0.1744791666666572,"midi":94,"time":183.578125,"velocity":0.3937007874015748},{"duration":0.2981770833333428,"midi":84,"time":183.578125,"velocity":0.3937007874015748},{"duration":0.17578125,"midi":89,"time":183.58854166666666,"velocity":0.3937007874015748},{"duration":0.05859375,"midi":64,"time":183.58854166666666,"velocity":0.3937007874015748},{"duration":0.17578125,"midi":91,"time":183.58854166666666,"velocity":0.3937007874015748},{"duration":0.30078125,"midi":86,"time":183.61197916666666,"velocity":0.3937007874015748},{"duration":0.17578125,"midi":93,"time":183.61197916666666,"velocity":0.3937007874015748},{"duration":0.059895833333314386,"midi":70,"time":183.66927083333334,"velocity":0.3937007874015748},{"duration":0.30078125,"midi":62,"time":183.66927083333334,"velocity":0.3937007874015748},{"duration":0.1731770833333428,"midi":67,"time":183.68229166666666,"velocity":0.3937007874015748},{"duration":0.059895833333314386,"midi":81,"time":183.70442708333334,"velocity":0.3937007874015748},{"duration":0.2981770833333428,"midi":72,"time":183.71744791666666,"velocity":0.3937007874015748},{"duration":0.17447916666668561,"midi":70,"time":183.71744791666666,"velocity":0.3937007874015748},{"duration":0.059895833333314386,"midi":52,"time":183.73958333333334,"velocity":0.3937007874015748},{"duration":0.05859375,"midi":81,"time":183.77473958333334,"velocity":0.3937007874015748},{"duration":0.05859375,"midi":90,"time":183.77473958333334,"velocity":0.3937007874015748},{"duration":0.1744791666666572,"midi":45,"time":183.78645833333334,"velocity":0.3937007874015748},{"duration":0.05729166666665719,"midi":87,"time":183.78645833333334,"velocity":0.3937007874015748},{"duration":0.05729166666665719,"midi":91,"time":183.78645833333334,"velocity":0.3937007874015748},{"duration":0.1744791666666572,"midi":67,"time":183.78645833333334,"velocity":0.3937007874015748},{"duration":0.1744791666666572,"midi":52,"time":183.78645833333334,"velocity":0.3937007874015748},{"duration":0.17447916666668561,"midi":93,"time":183.79947916666666,"velocity":0.3937007874015748},{"duration":0.1744791666666572,"midi":89,"time":183.84375,"velocity":0.3937007874015748},{"duration":0.17447916666668561,"midi":76,"time":183.85416666666666,"velocity":0.3937007874015748},{"duration":0.061197916666685614,"midi":33,"time":183.86588541666666,"velocity":0.3937007874015748},{"duration":0.05989583333334281,"midi":60,"time":183.890625,"velocity":0.3937007874015748},{"duration":0.1705729166666572,"midi":33,"time":183.90234375,"velocity":0.3937007874015748},{"duration":0.05859375,"midi":86,"time":183.91536458333334,"velocity":0.3937007874015748},{"duration":0.05859375,"midi":70,"time":183.9375,"velocity":0.3937007874015748},{"duration":0.05859375,"midi":52,"time":183.9375,"velocity":0.3937007874015748},{"duration":0.05729166666665719,"midi":62,"time":183.95052083333334,"velocity":0.3937007874015748},{"duration":0.05729166666665719,"midi":73,"time":183.9609375,"velocity":0.3937007874015748},{"duration":0.05598958333334281,"midi":91,"time":183.97265625,"velocity":0.3937007874015748},{"duration":0.05598958333334281,"midi":63,"time":183.98307291666666,"velocity":0.3937007874015748},{"duration":1.16796875,"midi":77,"time":183.98307291666666,"velocity":0.3937007874015748},{"duration":0.05598958333334281,"midi":42,"time":183.98307291666666,"velocity":0.3937007874015748},{"duration":0.17057291666668561,"midi":72,"time":183.98307291666666,"velocity":0.3937007874015748},{"duration":0.7942708333333428,"midi":69,"time":183.99609375,"velocity":0.3937007874015748},{"duration":0.0546875,"midi":37,"time":183.99609375,"velocity":0.3937007874015748},{"duration":0.7955729166666856,"midi":53,"time":184.00651041666666,"velocity":0.3937007874015748},{"duration":0.17057291666668561,"midi":85,"time":184.00651041666666,"velocity":0.3937007874015748},{"duration":0.17057291666668561,"midi":92,"time":184.00651041666666,"velocity":0.3937007874015748},{"duration":0.055989583333314386,"midi":61,"time":184.01692708333334,"velocity":0.3937007874015748},{"duration":0.055989583333314386,"midi":32,"time":184.01692708333334,"velocity":0.3937007874015748},{"duration":0.796875,"midi":46,"time":184.01692708333334,"velocity":0.3937007874015748},{"duration":0.05729166666665719,"midi":74,"time":184.02864583333334,"velocity":0.3937007874015748},{"duration":0.421875,"midi":62,"time":184.0390625,"velocity":0.3937007874015748},{"duration":0.05859375,"midi":73,"time":184.04947916666666,"velocity":0.3937007874015748},{"duration":0.2994791666666856,"midi":34,"time":184.06119791666666,"velocity":0.3937007874015748},{"duration":0.05859375,"midi":89,"time":184.06119791666666,"velocity":0.3937007874015748},{"duration":0.1171875,"midi":87,"time":184.11848958333334,"velocity":0.3937007874015748},{"duration":0.1744791666666572,"midi":71,"time":184.12890625,"velocity":0.3937007874015748},{"duration":0.1744791666666572,"midi":84,"time":184.12890625,"velocity":0.3937007874015748},{"duration":0.05859375,"midi":86,"time":184.14192708333334,"velocity":0.3937007874015748},{"duration":0.11588541666665719,"midi":87,"time":184.17708333333334,"velocity":0.3937007874015748},{"duration":1.0481770833333428,"midi":86,"time":184.19921875,"velocity":0.3937007874015748},{"duration":0.6731770833333428,"midi":93,"time":184.19921875,"velocity":0.3937007874015748},{"duration":0.05989583333334281,"midi":73,"time":184.22265625,"velocity":0.3937007874015748},{"duration":0.05989583333334281,"midi":90,"time":184.22265625,"velocity":0.3937007874015748},{"duration":0.05859375,"midi":92,"time":184.234375,"velocity":0.3937007874015748},{"duration":0.05989583333334281,"midi":85,"time":184.31510416666666,"velocity":0.3937007874015748},{"duration":0.2981770833333428,"midi":65,"time":184.31510416666666,"velocity":0.3937007874015748},{"duration":0.05859375,"midi":34,"time":184.328125,"velocity":0.3937007874015748},{"duration":0.05859375,"midi":84,"time":184.375,"velocity":0.3937007874015748},{"duration":0.05859375,"midi":34,"time":184.38541666666666,"velocity":0.3937007874015748},{"duration":0.05859375,"midi":34,"time":184.42057291666666,"velocity":0.3937007874015748},{"duration":0.05859375,"midi":62,"time":184.44401041666666,"velocity":0.3937007874015748},{"duration":0.30078125,"midi":90,"time":184.48958333333334,"velocity":0.3937007874015748},{"duration":0.1744791666666572,"midi":34,"time":184.48958333333334,"velocity":0.3937007874015748},{"duration":0.3020833333333428,"midi":62,"time":184.51171875,"velocity":0.3937007874015748},{"duration":0.30078125,"midi":74,"time":184.53515625,"velocity":0.3937007874015748},{"duration":0.05859375,"midi":84,"time":184.55859375,"velocity":0.3937007874015748},{"duration":0.17838541666668561,"midi":34,"time":184.63932291666666,"velocity":0.3937007874015748},{"duration":0.4244791666666856,"midi":65,"time":184.65104166666666,"velocity":0.3937007874015748},{"duration":0.17447916666668561,"midi":84,"time":184.69791666666666,"velocity":0.3937007874015748},{"duration":0.061197916666685614,"midi":90,"time":184.75651041666666,"velocity":0.3937007874015748},{"duration":0.05989583333334281,"midi":73,"time":184.76822916666666,"velocity":0.3937007874015748},{"duration":0.05859375,"midi":50,"time":184.77994791666666,"velocity":0.3937007874015748},{"duration":0.4231770833333428,"midi":74,"time":184.77994791666666,"velocity":0.3937007874015748},{"duration":0.05729166666665719,"midi":68,"time":184.79296875,"velocity":0.3937007874015748},{"duration":0.05729166666665719,"midi":51,"time":184.79296875,"velocity":0.3937007874015748},{"duration":0.05729166666665719,"midi":72,"time":184.79296875,"velocity":0.3937007874015748},{"duration":0.1731770833333428,"midi":62,"time":184.8046875,"velocity":0.3937007874015748},{"duration":0.1731770833333428,"midi":58,"time":184.828125,"velocity":0.3937007874015748},{"duration":0.1744791666666572,"midi":34,"time":184.84895833333334,"velocity":0.3937007874015748},{"duration":0.05989583333334281,"midi":69,"time":184.9296875,"velocity":0.3937007874015748},{"duration":0.05859375,"midi":50,"time":184.94270833333334,"velocity":0.3937007874015748},{"duration":0.05859375,"midi":84,"time":184.96484375,"velocity":0.3937007874015748},{"duration":0.2994791666666572,"midi":58,"time":184.96484375,"velocity":0.3937007874015748},{"duration":0.05859375,"midi":88,"time":184.96484375,"velocity":0.3937007874015748},{"duration":0.05859375,"midi":90,"time":184.9765625,"velocity":0.3937007874015748},{"duration":0.2994791666666572,"midi":72,"time":184.9765625,"velocity":0.3937007874015748},{"duration":0.05859375,"midi":84,"time":184.9765625,"velocity":0.3937007874015748},{"duration":0.2994791666666572,"midi":65,"time":184.9765625,"velocity":0.3937007874015748},{"duration":0.05859375,"midi":45,"time":184.9765625,"velocity":0.3937007874015748},{"duration":0.1744791666666572,"midi":46,"time":185,"velocity":0.3937007874015748},{"duration":0.17578125,"midi":69,"time":185.01041666666666,"velocity":0.3937007874015748},{"duration":0.1744791666666572,"midi":91,"time":185.05859375,"velocity":0.3937007874015748},{"duration":0.059895833333314386,"midi":62,"time":185.09114583333334,"velocity":0.3937007874015748},{"duration":0.2994791666666856,"midi":81,"time":185.10416666666666,"velocity":0.3937007874015748},{"duration":0.2981770833333428,"midi":69,"time":185.11588541666666,"velocity":0.3937007874015748},{"duration":0.2981770833333428,"midi":62,"time":185.12760416666666,"velocity":0.3937007874015748},{"duration":0.17447916666668561,"midi":57,"time":185.17447916666666,"velocity":0.3937007874015748},{"duration":0.17317708333331439,"midi":72,"time":185.24348958333334,"velocity":0.3937007874015748},{"duration":0.05859375,"midi":65,"time":185.30208333333334,"velocity":0.3937007874015748},{"duration":0.05859375,"midi":86,"time":185.32552083333334,"velocity":0.3937007874015748},{"duration":0.1731770833333428,"midi":71,"time":185.34765625,"velocity":0.3937007874015748},{"duration":0.05859375,"midi":95,"time":185.34765625,"velocity":0.3937007874015748},{"duration":0.05859375,"midi":77,"time":185.34765625,"velocity":0.3937007874015748},{"duration":0.05859375,"midi":90,"time":185.37109375,"velocity":0.3937007874015748},{"duration":0.1744791666666572,"midi":53,"time":185.37109375,"velocity":0.3937007874015748},{"duration":0.05859375,"midi":62,"time":185.37109375,"velocity":0.3937007874015748},{"duration":0.1744791666666572,"midi":58,"time":185.37109375,"velocity":0.3937007874015748},{"duration":0.296875,"midi":65,"time":185.37109375,"velocity":0.3937007874015748},{"duration":0.05729166666665719,"midi":45,"time":185.3828125,"velocity":0.3937007874015748},{"duration":0.05729166666665719,"midi":89,"time":185.40625,"velocity":0.3937007874015748},{"duration":0.05729166666665719,"midi":32,"time":185.40625,"velocity":0.3937007874015748},{"duration":0.1744791666666572,"midi":46,"time":185.40625,"velocity":0.3937007874015748},{"duration":0.05859375,"midi":74,"time":185.41666666666666,"velocity":0.3937007874015748},{"duration":0.05859375,"midi":70,"time":185.41666666666666,"velocity":0.3937007874015748},{"duration":0.17447916666668561,"midi":83,"time":185.42838541666666,"velocity":0.3937007874015748},{"duration":0.05859375,"midi":35,"time":185.42838541666666,"velocity":0.3937007874015748},{"duration":0.15234375,"midi":72,"time":185.44010416666666,"velocity":0.3937007874015748},{"duration":0.17447916666668561,"midi":90,"time":185.44010416666666,"velocity":0.3937007874015748},{"duration":0.059895833333314386,"midi":62,"time":185.45052083333334,"velocity":0.3937007874015748},{"duration":0.1744791666666572,"midi":34,"time":185.46223958333334,"velocity":0.3937007874015748},{"duration":0.1744791666666572,"midi":81,"time":185.46223958333334,"velocity":0.3937007874015748},{"duration":0.059895833333314386,"midi":62,"time":185.49739583333334,"velocity":0.3937007874015748},{"duration":0.171875,"midi":69,"time":185.50911458333334,"velocity":0.3937007874015748},{"duration":0.171875,"midi":84,"time":185.50911458333334,"velocity":0.3937007874015748},{"duration":0.059895833333314386,"midi":91,"time":185.50911458333334,"velocity":0.3937007874015748},{"duration":0.08203125,"midi":72,"time":185.53255208333334,"velocity":0.3937007874015748},{"duration":0.4244791666666572,"midi":93,"time":185.53255208333334,"velocity":0.3937007874015748},{"duration":0.05859375,"midi":59,"time":185.54427083333334,"velocity":0.3937007874015748},{"duration":0.05859375,"midi":88,"time":185.54427083333334,"velocity":0.3937007874015748},{"duration":0.057291666666685614,"midi":83,"time":185.55729166666666,"velocity":0.3937007874015748},{"duration":0.057291666666685614,"midi":90,"time":185.55729166666666,"velocity":0.3937007874015748},{"duration":0.05729166666665719,"midi":45,"time":185.57942708333334,"velocity":0.3937007874015748},{"duration":0.8020833333333144,"midi":53,"time":185.57942708333334,"velocity":0.3937007874015748},{"duration":0.67578125,"midi":58,"time":185.59114583333334,"velocity":0.3937007874015748},{"duration":0.171875,"midi":88,"time":185.59114583333334,"velocity":0.3937007874015748},{"duration":0.055989583333314386,"midi":37,"time":185.59114583333334,"velocity":0.3937007874015748},{"duration":0.17317708333331439,"midi":89,"time":185.60286458333334,"velocity":0.3937007874015748},{"duration":0.80078125,"midi":46,"time":185.60286458333334,"velocity":0.3937007874015748},{"duration":0.6770833333333144,"midi":82,"time":185.60286458333334,"velocity":0.3937007874015748},{"duration":0.05729166666665719,"midi":33,"time":185.61328125,"velocity":0.3937007874015748},{"duration":0.17578125,"midi":74,"time":185.62369791666666,"velocity":0.3937007874015748},{"duration":0.05729166666665719,"midi":35,"time":185.63671875,"velocity":0.3937007874015748},{"duration":0.30078125,"midi":84,"time":185.64713541666666,"velocity":0.3937007874015748},{"duration":0.17578125,"midi":77,"time":185.65755208333334,"velocity":0.3937007874015748},{"duration":0.17578125,"midi":70,"time":185.67057291666666,"velocity":0.3937007874015748},{"duration":0.17578125,"midi":81,"time":185.68098958333334,"velocity":0.3937007874015748},{"duration":0.3020833333333144,"midi":89,"time":185.68098958333334,"velocity":0.3937007874015748},{"duration":0.5533854166666572,"midi":34,"time":185.69270833333334,"velocity":0.3937007874015748},{"duration":0.06119791666665719,"midi":72,"time":185.73828125,"velocity":0.3937007874015748},{"duration":0.5546875,"midi":62,"time":185.75130208333334,"velocity":0.3937007874015748},{"duration":0.059895833333314386,"midi":71,"time":185.76302083333334,"velocity":0.3937007874015748},{"duration":0.05859375,"midi":72,"time":185.78776041666666,"velocity":0.3937007874015748},{"duration":0.17578125,"midi":70,"time":185.78776041666666,"velocity":0.3937007874015748},{"duration":0.17578125,"midi":84,"time":185.86848958333334,"velocity":0.3937007874015748},{"duration":0.059895833333314386,"midi":69,"time":185.91536458333334,"velocity":0.3937007874015748},{"duration":0.1744791666666572,"midi":72,"time":185.91536458333334,"velocity":0.3937007874015748},{"duration":0.059895833333314386,"midi":91,"time":185.95052083333334,"velocity":0.3937007874015748},{"duration":0.05859375,"midi":70,"time":185.96223958333334,"velocity":0.3937007874015748},{"duration":0.05859375,"midi":81,"time":185.98567708333334,"velocity":0.3937007874015748},{"duration":0.05859375,"midi":69,"time":186.02083333333334,"velocity":0.3937007874015748},{"duration":0.17578125,"midi":70,"time":186.04296875,"velocity":0.3937007874015748},{"duration":0.05989583333334281,"midi":81,"time":186.0546875,"velocity":0.3937007874015748},{"duration":0.05989583333334281,"midi":89,"time":186.1015625,"velocity":0.3937007874015748},{"duration":0.05989583333334281,"midi":68,"time":186.13671875,"velocity":0.3937007874015748},{"duration":0.1770833333333428,"midi":34,"time":186.171875,"velocity":0.3937007874015748},{"duration":0.05989583333334281,"midi":70,"time":186.171875,"velocity":0.3937007874015748},{"duration":0.1770833333333428,"midi":93,"time":186.18359375,"velocity":0.3937007874015748},{"duration":0.05989583333334281,"midi":85,"time":186.18359375,"velocity":0.3937007874015748},{"duration":0.1770833333333428,"midi":69,"time":186.1953125,"velocity":0.3937007874015748},{"duration":0.1770833333333428,"midi":88,"time":186.1953125,"velocity":0.3937007874015748},{"duration":0.1744791666666572,"midi":62,"time":186.25520833333334,"velocity":0.3937007874015748},{"duration":0.05859375,"midi":89,"time":186.26692708333334,"velocity":0.3937007874015748},{"duration":0.1744791666666572,"midi":82,"time":186.26692708333334,"velocity":0.3937007874015748},{"duration":0.1744791666666572,"midi":70,"time":186.30208333333334,"velocity":0.3937007874015748},{"duration":0.059895833333314386,"midi":34,"time":186.32552083333334,"velocity":0.3937007874015748},{"duration":0.05989583333334281,"midi":68,"time":186.3359375,"velocity":0.3937007874015748},{"duration":0.4244791666666572,"midi":89,"time":186.3359375,"velocity":0.3937007874015748},{"duration":0.4244791666666572,"midi":77,"time":186.34765625,"velocity":0.3937007874015748},{"duration":0.9205729166666572,"midi":74,"time":186.34765625,"velocity":0.3937007874015748},{"duration":0.05859375,"midi":63,"time":186.359375,"velocity":0.3937007874015748},{"duration":0.05859375,"midi":50,"time":186.359375,"velocity":0.3937007874015748},{"duration":0.296875,"midi":93,"time":186.37239583333334,"velocity":0.3937007874015748},{"duration":0.4205729166666572,"midi":65,"time":186.38411458333334,"velocity":0.3937007874015748},{"duration":0.296875,"midi":85,"time":186.39453125,"velocity":0.3937007874015748},{"duration":0.05989583333334281,"midi":46,"time":186.40625,"velocity":0.3937007874015748},{"duration":0.140625,"midi":34,"time":186.41796875,"velocity":0.3937007874015748},{"duration":0.1744791666666572,"midi":69,"time":186.41796875,"velocity":0.3937007874015748},{"duration":0.1744791666666572,"midi":53,"time":186.41796875,"velocity":0.3937007874015748},{"duration":0.05989583333334281,"midi":82,"time":186.44140625,"velocity":0.3937007874015748},{"duration":0.1510416666666572,"midi":88,"time":186.44140625,"velocity":0.3937007874015748},{"duration":0.1393229166666572,"midi":46,"time":186.453125,"velocity":0.3937007874015748},{"duration":0.1731770833333428,"midi":62,"time":186.48828125,"velocity":0.3937007874015748},{"duration":0.05989583333334281,"midi":82,"time":186.48828125,"velocity":0.3937007874015748},{"duration":0.09244791666665719,"midi":34,"time":186.5,"velocity":0.3937007874015748},{"duration":0.09114583333334281,"midi":46,"time":186.53515625,"velocity":0.3937007874015748},{"duration":0.08072916666665719,"midi":88,"time":186.53515625,"velocity":0.3937007874015748},{"duration":0.1731770833333428,"midi":53,"time":186.55859375,"velocity":0.3937007874015748},{"duration":0.05729166666665719,"midi":34,"time":186.55859375,"velocity":0.3937007874015748},{"duration":0.057291666666685614,"midi":69,"time":186.56901041666666,"velocity":0.3937007874015748},{"duration":0.1731770833333428,"midi":46,"time":186.56901041666666,"velocity":0.3937007874015748},{"duration":0.05859375,"midi":82,"time":186.60286458333334,"velocity":0.3937007874015748},{"duration":0.1640625,"midi":34,"time":186.625,"velocity":0.3937007874015748},{"duration":0.05859375,"midi":81,"time":186.625,"velocity":0.3937007874015748},{"duration":0.05859375,"midi":70,"time":186.625,"velocity":0.3937007874015748},{"duration":0.1731770833333428,"midi":69,"time":186.671875,"velocity":0.3937007874015748},{"duration":0.05989583333334281,"midi":62,"time":186.671875,"velocity":0.3937007874015748},{"duration":0.05989583333334281,"midi":82,"time":186.70703125,"velocity":0.3937007874015748},{"duration":0.05989583333334281,"midi":93,"time":186.71875,"velocity":0.3937007874015748},{"duration":0.05859375,"midi":84,"time":186.73046875,"velocity":0.3937007874015748},{"duration":0.06901041666665719,"midi":34,"time":186.73046875,"velocity":0.3937007874015748},{"duration":0.05859375,"midi":56,"time":186.74088541666666,"velocity":0.3937007874015748},{"duration":0.05729166666665719,"midi":84,"time":186.75390625,"velocity":0.3937007874015748},{"duration":0.171875,"midi":88,"time":186.765625,"velocity":0.3937007874015748},{"duration":0.171875,"midi":77,"time":186.765625,"velocity":0.3937007874015748},{"duration":0.05598958333334281,"midi":68,"time":186.765625,"velocity":0.3937007874015748},{"duration":0.171875,"midi":57,"time":186.765625,"velocity":0.3937007874015748},{"duration":0.171875,"midi":88,"time":186.77734375,"velocity":0.3937007874015748},{"duration":0.1731770833333428,"midi":93,"time":186.7890625,"velocity":0.3937007874015748},{"duration":0.05859375,"midi":69,"time":186.82161458333334,"velocity":0.3937007874015748},{"duration":0.1770833333333428,"midi":65,"time":186.88932291666666,"velocity":0.3937007874015748},{"duration":0.1770833333333428,"midi":79,"time":186.92447916666666,"velocity":0.3937007874015748},{"duration":0.17578125,"midi":47,"time":186.9375,"velocity":0.3937007874015748},{"duration":0.1744791666666572,"midi":81,"time":186.9609375,"velocity":0.3937007874015748},{"duration":0.05989583333334281,"midi":66,"time":186.9609375,"velocity":0.3937007874015748},{"duration":0.05989583333334281,"midi":70,"time":186.97265625,"velocity":0.3937007874015748},{"duration":0.1744791666666572,"midi":62,"time":186.99609375,"velocity":0.3937007874015748},{"duration":0.05989583333334281,"midi":68,"time":186.99609375,"velocity":0.3937007874015748},{"duration":0.05859375,"midi":67,"time":187.0078125,"velocity":0.3937007874015748},{"duration":0.05859375,"midi":56,"time":187.04296875,"velocity":0.3937007874015748},{"duration":0.05859375,"midi":95,"time":187.06640625,"velocity":0.3937007874015748},{"duration":0.05859375,"midi":67,"time":187.06640625,"velocity":0.3937007874015748},{"duration":0.1731770833333428,"midi":84,"time":187.08854166666666,"velocity":0.3937007874015748},{"duration":0.05859375,"midi":47,"time":187.08854166666666,"velocity":0.3937007874015748},{"duration":0.05859375,"midi":81,"time":187.1015625,"velocity":0.3937007874015748},{"duration":0.1731770833333428,"midi":89,"time":187.1015625,"velocity":0.3937007874015748},{"duration":0.05859375,"midi":68,"time":187.11197916666666,"velocity":0.3937007874015748},{"duration":0.1731770833333428,"midi":90,"time":187.12369791666666,"velocity":0.3937007874015748},{"duration":0.1731770833333428,"midi":72,"time":187.12369791666666,"velocity":0.3937007874015748},{"duration":0.2994791666666856,"midi":76,"time":187.13541666666666,"velocity":0.3937007874015748},{"duration":0.2981770833333428,"midi":69,"time":187.14713541666666,"velocity":0.3937007874015748},{"duration":0.05859375,"midi":37,"time":187.17057291666666,"velocity":0.3937007874015748},{"duration":0.05859375,"midi":67,"time":187.17057291666666,"velocity":0.3937007874015748},{"duration":0.05859375,"midi":46,"time":187.17057291666666,"velocity":0.3937007874015748},{"duration":0.05859375,"midi":64,"time":187.17057291666666,"velocity":0.3937007874015748},{"duration":0.8046875,"midi":52,"time":187.18098958333334,"velocity":0.3937007874015748},{"duration":0.8046875,"midi":45,"time":187.19270833333334,"velocity":0.3937007874015748},{"duration":0.05859375,"midi":34,"time":187.19270833333334,"velocity":0.3937007874015748},{"duration":0.1744791666666572,"midi":83,"time":187.21614583333334,"velocity":0.3937007874015748},{"duration":0.05859375,"midi":82,"time":187.21614583333334,"velocity":0.3937007874015748},{"duration":0.1744791666666572,"midi":85,"time":187.22786458333334,"velocity":0.3937007874015748},{"duration":0.05859375,"midi":63,"time":187.22786458333334,"velocity":0.3937007874015748},{"duration":0.05859375,"midi":87,"time":187.22786458333334,"velocity":0.3937007874015748},{"duration":0.1744791666666572,"midi":72,"time":187.2734375,"velocity":0.3937007874015748},{"duration":0.17578125,"midi":88,"time":187.296875,"velocity":0.3937007874015748},{"duration":0.05989583333334281,"midi":70,"time":187.35416666666666,"velocity":0.3937007874015748},{"duration":0.1770833333333428,"midi":33,"time":187.37760416666666,"velocity":0.3937007874015748},{"duration":0.05989583333334281,"midi":81,"time":187.37760416666666,"velocity":0.3937007874015748},{"duration":0.1770833333333428,"midi":69,"time":187.38932291666666,"velocity":0.3937007874015748},{"duration":0.1770833333333428,"midi":83,"time":187.4140625,"velocity":0.3937007874015748},{"duration":0.3033854166666856,"midi":72,"time":187.44791666666666,"velocity":0.3937007874015748},{"duration":0.1770833333333428,"midi":91,"time":187.45963541666666,"velocity":0.3937007874015748},{"duration":0.05989583333334281,"midi":85,"time":187.47135416666666,"velocity":0.3937007874015748},{"duration":0.1770833333333428,"midi":74,"time":187.47135416666666,"velocity":0.3937007874015748},{"duration":0.1770833333333428,"midi":88,"time":187.484375,"velocity":0.3937007874015748},{"duration":0.1770833333333428,"midi":33,"time":187.484375,"velocity":0.3937007874015748},{"duration":0.4283854166666856,"midi":69,"time":187.50651041666666,"velocity":0.3937007874015748},{"duration":0.06119791666665719,"midi":85,"time":187.5546875,"velocity":0.3937007874015748},{"duration":0.06119791666665719,"midi":62,"time":187.5546875,"velocity":0.3937007874015748},{"duration":0.1770833333333428,"midi":76,"time":187.5546875,"velocity":0.3937007874015748},{"duration":0.05989583333334281,"midi":83,"time":187.56640625,"velocity":0.3937007874015748},{"duration":0.17578125,"midi":95,"time":187.578125,"velocity":0.3937007874015748},{"duration":0.17578125,"midi":62,"time":187.60286458333334,"velocity":0.3937007874015748},{"duration":0.05859375,"midi":33,"time":187.625,"velocity":0.3937007874015748},{"duration":0.17578125,"midi":88,"time":187.68359375,"velocity":0.3937007874015748},{"duration":0.05989583333334281,"midi":33,"time":187.68359375,"velocity":0.3937007874015748},{"duration":0.3020833333333428,"midi":33,"time":187.71875,"velocity":0.3937007874015748},{"duration":0.05989583333334281,"midi":62,"time":187.71875,"velocity":0.3937007874015748},{"duration":0.5533854166666572,"midi":72,"time":187.765625,"velocity":0.3937007874015748},{"duration":0.1770833333333428,"midi":91,"time":187.80078125,"velocity":0.3937007874015748},{"duration":0.05859375,"midi":67,"time":187.8125,"velocity":0.3937007874015748},{"duration":0.061197916666685614,"midi":81,"time":187.91666666666666,"velocity":0.3937007874015748},{"duration":0.3020833333333428,"midi":69,"time":187.92838541666666,"velocity":0.3937007874015748},{"duration":0.05989583333334281,"midi":85,"time":187.94140625,"velocity":0.3937007874015748},{"duration":0.05989583333334281,"midi":60,"time":187.94140625,"velocity":0.3937007874015748},{"duration":0.05989583333334281,"midi":51,"time":187.953125,"velocity":0.3937007874015748},{"duration":0.05989583333334281,"midi":34,"time":187.953125,"velocity":0.3937007874015748},{"duration":0.05859375,"midi":61,"time":187.96484375,"velocity":0.3937007874015748},{"duration":0.05859375,"midi":79,"time":187.96484375,"velocity":0.3937007874015748},{"duration":0.1744791666666572,"midi":33,"time":187.9765625,"velocity":0.3937007874015748},{"duration":0.4270833333333428,"midi":45,"time":188.0234375,"velocity":0.3937007874015748},{"duration":0.17578125,"midi":83,"time":188.05859375,"velocity":0.3937007874015748},{"duration":0.05989583333334281,"midi":33,"time":188.15104166666666,"velocity":0.3937007874015748},{"duration":0.1770833333333428,"midi":91,"time":188.18619791666666,"velocity":0.3937007874015748},{"duration":0.05989583333334281,"midi":83,"time":188.19791666666666,"velocity":0.3937007874015748},{"duration":0.17578125,"midi":33,"time":188.2109375,"velocity":0.3937007874015748},{"duration":0.41015625,"midi":69,"time":188.22135416666666,"velocity":0.3937007874015748},{"duration":0.05989583333334281,"midi":67,"time":188.24479166666666,"velocity":0.3937007874015748},{"duration":0.9283854166666856,"midi":64,"time":188.27994791666666,"velocity":0.3937007874015748},{"duration":0.4270833333333428,"midi":72,"time":188.27994791666666,"velocity":0.3937007874015748},{"duration":0.05989583333334281,"midi":67,"time":188.35026041666666,"velocity":0.3937007874015748},{"duration":0.3020833333333144,"midi":59,"time":188.51302083333334,"velocity":0.3937007874015748},{"duration":0.3020833333333144,"midi":52,"time":188.51302083333334,"velocity":0.3937007874015748},{"duration":0.059895833333314386,"midi":77,"time":188.54817708333334,"velocity":0.3937007874015748},{"duration":0.17578125,"midi":81,"time":188.54817708333334,"velocity":0.3937007874015748},{"duration":0.07682291666665719,"midi":69,"time":188.57161458333334,"velocity":0.3937007874015748},{"duration":0.059895833333314386,"midi":89,"time":188.57161458333334,"velocity":0.3937007874015748},{"duration":0.17708333333331439,"midi":90,"time":188.58333333333334,"velocity":0.3937007874015748},{"duration":0.059895833333314386,"midi":29,"time":188.61848958333334,"velocity":0.3937007874015748},{"duration":0.059895833333314386,"midi":37,"time":188.65364583333334,"velocity":0.3937007874015748},{"duration":0.059895833333314386,"midi":69,"time":188.65364583333334,"velocity":0.3937007874015748},{"duration":0.059895833333314386,"midi":70,"time":188.70052083333334,"velocity":0.3937007874015748},{"duration":0.17447916666668561,"midi":92,"time":188.71354166666666,"velocity":0.3937007874015748},{"duration":0.17447916666668561,"midi":83,"time":188.71354166666666,"velocity":0.3937007874015748},{"duration":0.17578125,"midi":89,"time":188.72395833333334,"velocity":0.3937007874015748},{"duration":0.059895833333314386,"midi":91,"time":188.73567708333334,"velocity":0.3937007874015748},{"duration":0.059895833333314386,"midi":79,"time":188.74739583333334,"velocity":0.3937007874015748},{"duration":0.059895833333314386,"midi":69,"time":188.74739583333334,"velocity":0.3937007874015748},{"duration":0.1744791666666572,"midi":95,"time":188.74739583333334,"velocity":0.3937007874015748},{"duration":0.05859375,"midi":53,"time":188.76041666666666,"velocity":0.3937007874015748},{"duration":0.17447916666668561,"midi":84,"time":188.76041666666666,"velocity":0.3937007874015748},{"duration":0.42578125,"midi":57,"time":188.77083333333334,"velocity":0.3937007874015748},{"duration":0.1744791666666572,"midi":72,"time":188.78255208333334,"velocity":0.3937007874015748},{"duration":0.3020833333333144,"midi":87,"time":188.81770833333334,"velocity":0.3937007874015748},{"duration":0.05859375,"midi":68,"time":188.81770833333334,"velocity":0.3937007874015748},{"duration":0.4244791666666572,"midi":45,"time":188.81770833333334,"velocity":0.3937007874015748},{"duration":0.17578125,"midi":84,"time":188.82942708333334,"velocity":0.3937007874015748},{"duration":0.17578125,"midi":90,"time":188.84114583333334,"velocity":0.3937007874015748},{"duration":0.05859375,"midi":81,"time":188.85286458333334,"velocity":0.3937007874015748},{"duration":0.05859375,"midi":83,"time":188.87630208333334,"velocity":0.3937007874015748},{"duration":0.1783854166666572,"midi":68,"time":188.88671875,"velocity":0.3937007874015748},{"duration":0.05859375,"midi":81,"time":188.91145833333334,"velocity":0.3937007874015748},{"duration":0.2994791666666572,"midi":89,"time":188.9921875,"velocity":0.3937007874015748},{"duration":0.2981770833333428,"midi":95,"time":189.015625,"velocity":0.3937007874015748},{"duration":0.1744791666666572,"midi":86,"time":189.02864583333334,"velocity":0.3937007874015748},{"duration":0.54296875,"midi":72,"time":189.02864583333334,"velocity":0.3937007874015748},{"duration":0.059895833333314386,"midi":67,"time":189.04036458333334,"velocity":0.3937007874015748},{"duration":0.059895833333314386,"midi":90,"time":189.05208333333334,"velocity":0.3937007874015748},{"duration":0.05859375,"midi":84,"time":189.06510416666666,"velocity":0.3937007874015748},{"duration":0.05859375,"midi":79,"time":189.06510416666666,"velocity":0.3937007874015748},{"duration":0.05859375,"midi":68,"time":189.09895833333334,"velocity":0.3937007874015748},{"duration":0.171875,"midi":90,"time":189.12239583333334,"velocity":0.3937007874015748},{"duration":0.05859375,"midi":67,"time":189.12239583333334,"velocity":0.3937007874015748},{"duration":0.05859375,"midi":51,"time":189.1328125,"velocity":0.3937007874015748},{"duration":0.1731770833333428,"midi":88,"time":189.1328125,"velocity":0.3937007874015748},{"duration":0.1731770833333428,"midi":84,"time":189.1328125,"velocity":0.3937007874015748},{"duration":0.05729166666665719,"midi":75,"time":189.14583333333334,"velocity":0.3937007874015748},{"duration":0.171875,"midi":81,"time":189.14583333333334,"velocity":0.3937007874015748},{"duration":0.171875,"midi":87,"time":189.14583333333334,"velocity":0.3937007874015748},{"duration":0.05729166666665719,"midi":77,"time":189.14583333333334,"velocity":0.3937007874015748},{"duration":0.05729166666665719,"midi":61,"time":189.15755208333334,"velocity":0.3937007874015748},{"duration":0.05729166666665719,"midi":92,"time":189.15755208333334,"velocity":0.3937007874015748},{"duration":0.05729166666665719,"midi":52,"time":189.16796875,"velocity":0.3937007874015748},{"duration":0.29296875,"midi":91,"time":189.19140625,"velocity":0.3937007874015748},{"duration":0.05729166666665719,"midi":51,"time":189.19140625,"velocity":0.3937007874015748},{"duration":0.057291666666685614,"midi":86,"time":189.20182291666666,"velocity":0.3937007874015748},{"duration":0.05729166666665719,"midi":68,"time":189.21484375,"velocity":0.3937007874015748},{"duration":0.05859375,"midi":61,"time":189.22526041666666,"velocity":0.3937007874015748},{"duration":0.05859375,"midi":45,"time":189.24739583333334,"velocity":0.3937007874015748},{"duration":0.05859375,"midi":90,"time":189.24739583333334,"velocity":0.3937007874015748},{"duration":0.05859375,"midi":69,"time":189.25911458333334,"velocity":0.3937007874015748},{"duration":0.05859375,"midi":53,"time":189.25911458333334,"velocity":0.3937007874015748},{"duration":0.05859375,"midi":60,"time":189.29427083333334,"velocity":0.3937007874015748},{"duration":0.05729166666665719,"midi":68,"time":189.30598958333334,"velocity":0.3937007874015748},{"duration":0.1497395833333428,"midi":87,"time":189.31640625,"velocity":0.3937007874015748},{"duration":0.05859375,"midi":59,"time":189.328125,"velocity":0.3937007874015748},{"duration":0.05859375,"midi":69,"time":189.328125,"velocity":0.3937007874015748},{"duration":0.05859375,"midi":53,"time":189.328125,"velocity":0.3937007874015748},{"duration":0.16015625,"midi":90,"time":189.33984375,"velocity":0.3937007874015748},{"duration":0.05729166666665719,"midi":86,"time":189.3515625,"velocity":0.3937007874015748},{"duration":0.05729166666665719,"midi":60,"time":189.3515625,"velocity":0.3937007874015748},{"duration":0.057291666666685614,"midi":41,"time":189.36197916666666,"velocity":0.3937007874015748},{"duration":0.057291666666685614,"midi":52,"time":189.36197916666666,"velocity":0.3937007874015748},{"duration":0.171875,"midi":59,"time":189.37369791666666,"velocity":0.3937007874015748},{"duration":0.05859375,"midi":94,"time":189.37369791666666,"velocity":0.3937007874015748},{"duration":0.05859375,"midi":88,"time":189.37369791666666,"velocity":0.3937007874015748},{"duration":0.057291666666685614,"midi":67,"time":189.38541666666666,"velocity":0.3937007874015748},{"duration":0.057291666666685614,"midi":78,"time":189.38541666666666,"velocity":0.3937007874015748},{"duration":0.057291666666685614,"midi":53,"time":189.38541666666666,"velocity":0.3937007874015748},{"duration":0.057291666666685614,"midi":83,"time":189.38541666666666,"velocity":0.3937007874015748},{"duration":0.171875,"midi":69,"time":189.39583333333334,"velocity":0.3937007874015748},{"duration":0.171875,"midi":85,"time":189.39583333333334,"velocity":0.3937007874015748},{"duration":0.171875,"midi":40,"time":189.39583333333334,"velocity":0.3937007874015748},{"duration":0.078125,"midi":87,"time":189.40885416666666,"velocity":0.3937007874015748},{"duration":0.057291666666685614,"midi":52,"time":189.40885416666666,"velocity":0.3937007874015748},{"duration":0.05729166666665719,"midi":77,"time":189.41927083333334,"velocity":0.3937007874015748},{"duration":0.05729166666665719,"midi":65,"time":189.41927083333334,"velocity":0.3937007874015748},{"duration":0.05729166666665719,"midi":93,"time":189.41927083333334,"velocity":0.3937007874015748},{"duration":0.05729166666665719,"midi":89,"time":189.41927083333334,"velocity":0.3937007874015748},{"duration":0.06770833333331439,"midi":90,"time":189.44270833333334,"velocity":0.3937007874015748},{"duration":0.05729166666665719,"midi":52,"time":189.44270833333334,"velocity":0.3937007874015748},{"duration":0.05729166666665719,"midi":94,"time":189.453125,"velocity":0.3937007874015748},{"duration":0.05729166666665719,"midi":88,"time":189.453125,"velocity":0.3937007874015748},{"duration":0.05729166666665719,"midi":78,"time":189.453125,"velocity":0.3937007874015748},{"duration":0.1731770833333428,"midi":52,"time":189.47526041666666,"velocity":0.3937007874015748},{"duration":0.05859375,"midi":91,"time":189.48697916666666,"velocity":0.3937007874015748},{"duration":0.17447916666668561,"midi":91,"time":189.48697916666666,"velocity":0.3937007874015748},{"duration":0.2994791666666856,"midi":79,"time":189.49869791666666,"velocity":0.3937007874015748},{"duration":0.1848958333333428,"midi":86,"time":189.49869791666666,"velocity":0.3937007874015748},{"duration":0.2994791666666572,"midi":89,"time":189.50911458333334,"velocity":0.3937007874015748},{"duration":0.2994791666666572,"midi":95,"time":189.50911458333334,"velocity":0.3937007874015748},{"duration":0.2890625,"midi":86,"time":189.50911458333334,"velocity":0.3937007874015748},{"duration":0.059895833333314386,"midi":57,"time":189.52083333333334,"velocity":0.3937007874015748},{"duration":0.2994791666666572,"midi":77,"time":189.53255208333334,"velocity":0.3937007874015748},{"duration":0.0703125,"midi":88,"time":189.53255208333334,"velocity":0.3937007874015748},{"duration":0.1627604166666572,"midi":88,"time":189.54427083333334,"velocity":0.3937007874015748},{"duration":0.05859375,"midi":69,"time":189.54427083333334,"velocity":0.3937007874015748},{"duration":0.17317708333331439,"midi":84,"time":189.54427083333334,"velocity":0.3937007874015748},{"duration":0.05859375,"midi":63,"time":189.54427083333334,"velocity":0.3937007874015748},{"duration":0.05859375,"midi":50,"time":189.54427083333334,"velocity":0.3937007874015748},{"duration":0.059895833333314386,"midi":93,"time":189.55598958333334,"velocity":0.3937007874015748},{"duration":0.1744791666666572,"midi":57,"time":189.56770833333334,"velocity":0.3937007874015748},{"duration":0.059895833333314386,"midi":51,"time":189.56770833333334,"velocity":0.3937007874015748},{"duration":0.1744791666666572,"midi":91,"time":189.56770833333334,"velocity":0.3937007874015748},{"duration":0.059895833333314386,"midi":64,"time":189.56770833333334,"velocity":0.3937007874015748},{"duration":0.059895833333314386,"midi":68,"time":189.56770833333334,"velocity":0.3937007874015748},{"duration":0.05859375,"midi":50,"time":189.57942708333334,"velocity":0.3937007874015748},{"duration":0.05859375,"midi":63,"time":189.60286458333334,"velocity":0.3937007874015748},{"duration":0.17578125,"midi":72,"time":189.60286458333334,"velocity":0.3937007874015748},{"duration":0.1744791666666572,"midi":64,"time":189.63802083333334,"velocity":0.3937007874015748},{"duration":0.05859375,"midi":88,"time":189.6484375,"velocity":0.3937007874015748},{"duration":0.2981770833333428,"midi":86,"time":189.70703125,"velocity":0.3937007874015748},{"duration":0.17578125,"midi":67,"time":189.72916666666666,"velocity":0.3937007874015748},{"duration":0.061197916666685614,"midi":69,"time":189.72916666666666,"velocity":0.3937007874015748},{"duration":0.061197916666685614,"midi":60,"time":189.72916666666666,"velocity":0.3937007874015748},{"duration":0.05989583333334281,"midi":78,"time":189.74088541666666,"velocity":0.3937007874015748},{"duration":0.05989583333334281,"midi":94,"time":189.74088541666666,"velocity":0.3937007874015748},{"duration":0.05989583333334281,"midi":47,"time":189.74088541666666,"velocity":0.3937007874015748},{"duration":0.05989583333334281,"midi":71,"time":189.74088541666666,"velocity":0.3937007874015748},{"duration":0.05859375,"midi":85,"time":189.75390625,"velocity":0.3937007874015748},{"duration":0.05859375,"midi":90,"time":189.75390625,"velocity":0.3937007874015748},{"duration":0.05859375,"midi":48,"time":189.75390625,"velocity":0.3937007874015748},{"duration":0.4166666666666572,"midi":72,"time":189.765625,"velocity":0.3937007874015748},{"duration":0.05729166666665719,"midi":56,"time":189.77734375,"velocity":0.3937007874015748},{"duration":0.05729166666665719,"midi":93,"time":189.77734375,"velocity":0.3937007874015748},{"duration":0.4166666666666572,"midi":84,"time":189.77734375,"velocity":0.3937007874015748},{"duration":0.2942708333333144,"midi":89,"time":189.79036458333334,"velocity":0.3937007874015748},{"duration":0.05729166666665719,"midi":33,"time":189.79036458333334,"velocity":0.3937007874015748},{"duration":0.17317708333331439,"midi":77,"time":189.79036458333334,"velocity":0.3937007874015748},{"duration":0.17317708333331439,"midi":87,"time":189.79036458333334,"velocity":0.3937007874015748},{"duration":0.05859375,"midi":46,"time":189.80078125,"velocity":0.3937007874015748},{"duration":0.17447916666668561,"midi":45,"time":189.82291666666666,"velocity":0.3937007874015748},{"duration":0.05989583333334281,"midi":64,"time":189.82291666666666,"velocity":0.3937007874015748},{"duration":0.05989583333334281,"midi":65,"time":189.86979166666666,"velocity":0.3937007874015748},{"duration":0.05989583333334281,"midi":95,"time":189.86979166666666,"velocity":0.3937007874015748},{"duration":0.29296875,"midi":69,"time":189.88151041666666,"velocity":0.3937007874015748},{"duration":0.171875,"midi":79,"time":189.88151041666666,"velocity":0.3937007874015748},{"duration":0.059895833333314386,"midi":64,"time":189.89192708333334,"velocity":0.3937007874015748},{"duration":0.05859375,"midi":76,"time":189.90494791666666,"velocity":0.3937007874015748},{"duration":0.057291666666685614,"midi":85,"time":189.91666666666666,"velocity":0.3937007874015748},{"duration":0.057291666666685614,"midi":46,"time":189.91666666666666,"velocity":0.3937007874015748},{"duration":0.17057291666668561,"midi":77,"time":189.91666666666666,"velocity":0.3937007874015748},{"duration":0.057291666666685614,"midi":82,"time":189.91666666666666,"velocity":0.3937007874015748},{"duration":0.057291666666685614,"midi":56,"time":189.92838541666666,"velocity":0.3937007874015748},{"duration":0.17057291666668561,"midi":88,"time":189.92838541666666,"velocity":0.3937007874015748},{"duration":0.057291666666685614,"midi":75,"time":189.92838541666666,"velocity":0.3937007874015748},{"duration":0.057291666666685614,"midi":45,"time":189.94010416666666,"velocity":0.3937007874015748},{"duration":0.17057291666668561,"midi":88,"time":189.94010416666666,"velocity":0.3937007874015748},{"duration":0.17057291666668561,"midi":86,"time":189.94010416666666,"velocity":0.3937007874015748},{"duration":0.057291666666685614,"midi":95,"time":189.94010416666666,"velocity":0.3937007874015748},{"duration":0.05598958333334281,"midi":61,"time":189.95182291666666,"velocity":0.3937007874015748},{"duration":0.05598958333334281,"midi":64,"time":189.95182291666666,"velocity":0.3937007874015748},{"duration":0.05729166666665719,"midi":74,"time":189.97265625,"velocity":0.3937007874015748},{"duration":0.4114583333333428,"midi":86,"time":189.97265625,"velocity":0.3937007874015748},{"duration":0.05729166666665719,"midi":78,"time":189.99609375,"velocity":0.3937007874015748},{"duration":0.05859375,"midi":41,"time":190.00651041666666,"velocity":0.3937007874015748},{"duration":0.2903645833333428,"midi":79,"time":190.01822916666666,"velocity":0.3937007874015748},{"duration":0.05859375,"midi":62,"time":190.01822916666666,"velocity":0.3937007874015748},{"duration":0.05859375,"midi":75,"time":190.01822916666666,"velocity":0.3937007874015748},{"duration":0.05859375,"midi":89,"time":190.04036458333334,"velocity":0.3937007874015748},{"duration":0.05859375,"midi":77,"time":190.04036458333334,"velocity":0.3937007874015748},{"duration":0.05859375,"midi":74,"time":190.04036458333334,"velocity":0.3937007874015748},{"duration":0.05859375,"midi":63,"time":190.04036458333334,"velocity":0.3937007874015748},{"duration":0.05859375,"midi":40,"time":190.07552083333334,"velocity":0.3937007874015748},{"duration":0.05859375,"midi":63,"time":190.07552083333334,"velocity":0.3937007874015748},{"duration":0.1588541666666572,"midi":72,"time":190.0859375,"velocity":0.3937007874015748},{"duration":0.1692708333333428,"midi":89,"time":190.0859375,"velocity":0.3937007874015748},{"duration":0.05859375,"midi":90,"time":190.0859375,"velocity":0.3937007874015748},{"duration":0.05729166666665719,"midi":50,"time":190.09895833333334,"velocity":0.3937007874015748},{"duration":0.05729166666665719,"midi":41,"time":190.109375,"velocity":0.3937007874015748},{"duration":0.1692708333333428,"midi":76,"time":190.109375,"velocity":0.3937007874015748},{"duration":0.05598958333334281,"midi":95,"time":190.12109375,"velocity":0.3937007874015748},{"duration":0.05598958333334281,"midi":62,"time":190.12109375,"velocity":0.3937007874015748},{"duration":0.05598958333334281,"midi":51,"time":190.12109375,"velocity":0.3937007874015748},{"duration":0.0546875,"midi":74,"time":190.13411458333334,"velocity":0.3937007874015748},{"duration":0.05598958333334281,"midi":67,"time":190.14453125,"velocity":0.3937007874015748},{"duration":0.1666666666666572,"midi":69,"time":190.14453125,"velocity":0.3937007874015748},{"duration":0.05598958333334281,"midi":73,"time":190.15494791666666,"velocity":0.3937007874015748},{"duration":0.05598958333334281,"midi":51,"time":190.16666666666666,"velocity":0.3937007874015748},{"duration":0.16796875,"midi":84,"time":190.16666666666666,"velocity":0.3937007874015748},{"duration":0.05598958333334281,"midi":44,"time":190.16666666666666,"velocity":0.3937007874015748},{"duration":0.05598958333334281,"midi":33,"time":190.16666666666666,"velocity":0.3937007874015748},{"duration":0.16796875,"midi":74,"time":190.17708333333334,"velocity":0.3937007874015748},{"duration":0.06770833333334281,"midi":72,"time":190.1875,"velocity":0.3937007874015748},{"duration":0.05729166666665719,"midi":63,"time":190.1875,"velocity":0.3937007874015748},{"duration":0.05729166666665719,"midi":52,"time":190.1875,"velocity":0.3937007874015748},{"duration":0.5390625,"midi":81,"time":190.20052083333334,"velocity":0.3937007874015748},{"duration":0.16796875,"midi":85,"time":190.20052083333334,"velocity":0.3937007874015748},{"duration":0.05729166666665719,"midi":77,"time":190.2109375,"velocity":0.3937007874015748},{"duration":0.05729166666665719,"midi":95,"time":190.2109375,"velocity":0.3937007874015748},{"duration":0.1692708333333428,"midi":62,"time":190.22135416666666,"velocity":0.3937007874015748},{"duration":0.057291666666685614,"midi":44,"time":190.22135416666666,"velocity":0.3937007874015748},{"duration":0.05729166666665719,"midi":78,"time":190.23177083333334,"velocity":0.3937007874015748},{"duration":0.05598958333334281,"midi":90,"time":190.24479166666666,"velocity":0.3937007874015748},{"duration":0.05598958333334281,"midi":57,"time":190.24479166666666,"velocity":0.3937007874015748},{"duration":0.16796875,"midi":76,"time":190.24479166666666,"velocity":0.3937007874015748},{"duration":0.16796875,"midi":72,"time":190.26692708333334,"velocity":0.3937007874015748},{"duration":0.055989583333314386,"midi":65,"time":190.26692708333334,"velocity":0.3937007874015748},{"duration":0.055989583333314386,"midi":58,"time":190.27864583333334,"velocity":0.3937007874015748},{"duration":0.1692708333333428,"midi":89,"time":190.2890625,"velocity":0.3937007874015748},{"duration":0.057291666666685614,"midi":90,"time":190.29947916666666,"velocity":0.3937007874015748},{"duration":0.057291666666685614,"midi":66,"time":190.29947916666666,"velocity":0.3937007874015748},{"duration":0.057291666666685614,"midi":42,"time":190.31119791666666,"velocity":0.3937007874015748},{"duration":0.1692708333333428,"midi":88,"time":190.31119791666666,"velocity":0.3937007874015748},{"duration":0.057291666666685614,"midi":68,"time":190.31119791666666,"velocity":0.3937007874015748},{"duration":0.05598958333334281,"midi":95,"time":190.32291666666666,"velocity":0.3937007874015748},{"duration":0.05598958333334281,"midi":37,"time":190.32291666666666,"velocity":0.3937007874015748},{"duration":0.1692708333333428,"midi":85,"time":190.32291666666666,"velocity":0.3937007874015748},{"duration":0.05598958333334281,"midi":64,"time":190.32291666666666,"velocity":0.3937007874015748},{"duration":0.4205729166666572,"midi":69,"time":190.33333333333334,"velocity":0.3937007874015748},{"duration":0.05729166666665719,"midi":47,"time":190.33333333333334,"velocity":0.3937007874015748},{"duration":0.05729166666665719,"midi":60,"time":190.33333333333334,"velocity":0.3937007874015748},{"duration":0.05729166666665719,"midi":79,"time":190.33333333333334,"velocity":0.3937007874015748},{"duration":0.05729166666665719,"midi":63,"time":190.34375,"velocity":0.3937007874015748},{"duration":0.4205729166666572,"midi":50,"time":190.35677083333334,"velocity":0.3937007874015748},{"duration":0.05729166666665719,"midi":58,"time":190.3671875,"velocity":0.3937007874015748},{"duration":0.1731770833333428,"midi":62,"time":190.37760416666666,"velocity":0.3937007874015748},{"duration":0.1731770833333428,"midi":89,"time":190.390625,"velocity":0.3937007874015748},{"duration":0.057291666666685614,"midi":57,"time":190.40104166666666,"velocity":0.3937007874015748},{"duration":0.057291666666685614,"midi":90,"time":190.40104166666666,"velocity":0.3937007874015748},{"duration":0.057291666666685614,"midi":77,"time":190.40104166666666,"velocity":0.3937007874015748},{"duration":0.1744791666666572,"midi":95,"time":190.41145833333334,"velocity":0.3937007874015748},{"duration":0.05729166666665719,"midi":75,"time":190.41145833333334,"velocity":0.3937007874015748},{"duration":0.2981770833333428,"midi":90,"time":190.42447916666666,"velocity":0.3937007874015748},{"duration":0.05729166666665719,"midi":65,"time":190.43489583333334,"velocity":0.3937007874015748},{"duration":0.2682291666666572,"midi":85,"time":190.45703125,"velocity":0.3937007874015748},{"duration":0.2994791666666572,"midi":57,"time":190.45703125,"velocity":0.3937007874015748},{"duration":0.1744791666666572,"midi":65,"time":190.46875,"velocity":0.3937007874015748},{"duration":0.421875,"midi":88,"time":190.46875,"velocity":0.3937007874015748},{"duration":0.061197916666685614,"midi":39,"time":190.51432291666666,"velocity":0.3937007874015748},{"duration":0.07161458333334281,"midi":84,"time":190.51432291666666,"velocity":0.3937007874015748},{"duration":0.05989583333334281,"midi":76,"time":190.52604166666666,"velocity":0.3937007874015748},{"duration":0.05989583333334281,"midi":91,"time":190.52604166666666,"velocity":0.3937007874015748},{"duration":0.1640625,"midi":84,"time":190.52604166666666,"velocity":0.3937007874015748},{"duration":0.05859375,"midi":78,"time":190.5390625,"velocity":0.3937007874015748},{"duration":0.1731770833333428,"midi":90,"time":190.5625,"velocity":0.3937007874015748},{"duration":0.05729166666665719,"midi":95,"time":190.5625,"velocity":0.3937007874015748},{"duration":0.1731770833333428,"midi":62,"time":190.57421875,"velocity":0.3937007874015748},{"duration":0.17447916666668561,"midi":76,"time":190.59635416666666,"velocity":0.3937007874015748},{"duration":0.13932291666668561,"midi":84,"time":190.59635416666666,"velocity":0.3937007874015748},{"duration":0.059895833333314386,"midi":86,"time":190.60677083333334,"velocity":0.3937007874015748},{"duration":0.1744791666666572,"midi":95,"time":190.63020833333334,"velocity":0.3937007874015748},{"duration":0.05989583333334281,"midi":66,"time":190.65494791666666,"velocity":0.3937007874015748},{"duration":0.1731770833333428,"midi":69,"time":190.65494791666666,"velocity":0.3937007874015748},{"duration":0.3372395833333428,"midi":85,"time":190.66666666666666,"velocity":0.3937007874015748},{"duration":0.09375,"midi":84,"time":190.67708333333334,"velocity":0.3937007874015748},{"duration":0.05859375,"midi":65,"time":190.67708333333334,"velocity":0.3937007874015748},{"duration":0.05859375,"midi":62,"time":190.69010416666666,"velocity":0.3937007874015748},{"duration":0.1731770833333428,"midi":91,"time":190.70182291666666,"velocity":0.3937007874015748},{"duration":0.05859375,"midi":87,"time":190.70182291666666,"velocity":0.3937007874015748},{"duration":0.05859375,"midi":82,"time":190.70182291666666,"velocity":0.3937007874015748},{"duration":0.1731770833333428,"midi":87,"time":190.70182291666666,"velocity":0.3937007874015748},{"duration":0.05859375,"midi":72,"time":190.70182291666666,"velocity":0.3937007874015748},{"duration":0.171875,"midi":84,"time":190.72395833333334,"velocity":0.3937007874015748},{"duration":0.296875,"midi":90,"time":190.72395833333334,"velocity":0.3937007874015748},{"duration":0.05859375,"midi":66,"time":190.72395833333334,"velocity":0.3937007874015748},{"duration":0.05859375,"midi":62,"time":190.73567708333334,"velocity":0.3937007874015748},{"duration":0.05859375,"midi":75,"time":190.73567708333334,"velocity":0.3937007874015748},{"duration":0.171875,"midi":95,"time":190.74739583333334,"velocity":0.3937007874015748},{"duration":0.171875,"midi":84,"time":190.74739583333334,"velocity":0.3937007874015748},{"duration":0.1484375,"midi":83,"time":190.74739583333334,"velocity":0.3937007874015748},{"duration":0.2981770833333144,"midi":50,"time":190.74739583333334,"velocity":0.3937007874015748},{"duration":0.171875,"midi":79,"time":190.75911458333334,"velocity":0.3937007874015748},{"duration":0.171875,"midi":76,"time":190.75911458333334,"velocity":0.3937007874015748},{"duration":0.171875,"midi":57,"time":190.75911458333334,"velocity":0.3937007874015748},{"duration":0.05729166666665719,"midi":65,"time":190.75911458333334,"velocity":0.3937007874015748},{"duration":0.05729166666665719,"midi":89,"time":190.78255208333334,"velocity":0.3937007874015748},{"duration":0.05859375,"midi":67,"time":190.79296875,"velocity":0.3937007874015748},{"duration":0.1731770833333428,"midi":91,"time":190.79296875,"velocity":0.3937007874015748},{"duration":0.05859375,"midi":86,"time":190.79296875,"velocity":0.3937007874015748},{"duration":0.05859375,"midi":63,"time":190.79296875,"velocity":0.3937007874015748},{"duration":0.2994791666666572,"midi":89,"time":190.81640625,"velocity":0.3937007874015748},{"duration":0.05859375,"midi":65,"time":190.81640625,"velocity":0.3937007874015748},{"duration":0.05859375,"midi":67,"time":190.82682291666666,"velocity":0.3937007874015748},{"duration":0.17447916666668561,"midi":92,"time":190.82682291666666,"velocity":0.3937007874015748},{"duration":0.3567708333333428,"midi":84,"time":190.82682291666666,"velocity":0.3937007874015748},{"duration":0.30078125,"midi":69,"time":190.82682291666666,"velocity":0.3937007874015748},{"duration":0.08072916666668561,"midi":83,"time":190.83854166666666,"velocity":0.3937007874015748},{"duration":0.057291666666685614,"midi":64,"time":190.83854166666666,"velocity":0.3937007874015748},{"duration":0.2994791666666856,"midi":57,"time":190.83854166666666,"velocity":0.3937007874015748},{"duration":0.057291666666685614,"midi":77,"time":190.83854166666666,"velocity":0.3937007874015748},{"duration":0.4296875,"midi":84,"time":190.88541666666666,"velocity":0.3937007874015748},{"duration":0.05859375,"midi":65,"time":190.88541666666666,"velocity":0.3937007874015748},{"duration":0.2994791666666572,"midi":77,"time":190.89583333333334,"velocity":0.3937007874015748},{"duration":0.42578125,"midi":93,"time":190.90625,"velocity":0.3937007874015748},{"duration":0.059895833333314386,"midi":87,"time":190.91927083333334,"velocity":0.3937007874015748},{"duration":0.4244791666666572,"midi":65,"time":190.91927083333334,"velocity":0.3937007874015748},{"duration":0.17578125,"midi":85,"time":190.91927083333334,"velocity":0.3937007874015748},{"duration":0.059895833333314386,"midi":62,"time":190.93098958333334,"velocity":0.3937007874015748},{"duration":0.05989583333334281,"midi":88,"time":190.953125,"velocity":0.3937007874015748},{"duration":0.05989583333334281,"midi":92,"time":190.953125,"velocity":0.3937007874015748},{"duration":0.059895833333314386,"midi":88,"time":191.00130208333334,"velocity":0.3937007874015748},{"duration":0.1744791666666572,"midi":88,"time":191.00130208333334,"velocity":0.3937007874015748},{"duration":0.05859375,"midi":91,"time":191.01302083333334,"velocity":0.3937007874015748},{"duration":0.1744791666666572,"midi":74,"time":191.0234375,"velocity":0.3937007874015748},{"duration":0.1744791666666572,"midi":87,"time":191.0234375,"velocity":0.3937007874015748},{"duration":0.1393229166666572,"midi":50,"time":191.03645833333334,"velocity":0.3937007874015748},{"duration":0.171875,"midi":69,"time":191.05989583333334,"velocity":0.3937007874015748},{"duration":0.05989583333334281,"midi":85,"time":191.0703125,"velocity":0.3937007874015748},{"duration":0.10546875,"midi":91,"time":191.0703125,"velocity":0.3937007874015748},{"duration":0.1744791666666572,"midi":89,"time":191.08203125,"velocity":0.3937007874015748},{"duration":0.05989583333334281,"midi":80,"time":191.09375,"velocity":0.3937007874015748},{"duration":0.05989583333334281,"midi":75,"time":191.09375,"velocity":0.3937007874015748},{"duration":0.1744791666666572,"midi":88,"time":191.09375,"velocity":0.3937007874015748},{"duration":0.3346354166666572,"midi":86,"time":191.09375,"velocity":0.3937007874015748},{"duration":0.05859375,"midi":60,"time":191.10546875,"velocity":0.3937007874015748},{"duration":0.125,"midi":91,"time":191.11848958333334,"velocity":0.3937007874015748},{"duration":0.05729166666665719,"midi":95,"time":191.11848958333334,"velocity":0.3937007874015748},{"duration":0.09114583333331439,"midi":50,"time":191.11848958333334,"velocity":0.3937007874015748},{"duration":0.17317708333331439,"midi":74,"time":191.13020833333334,"velocity":0.3937007874015748},{"duration":0.3893229166666572,"midi":86,"time":191.13020833333334,"velocity":0.3937007874015748},{"duration":0.17317708333331439,"midi":85,"time":191.13020833333334,"velocity":0.3937007874015748},{"duration":0.05729166666665719,"midi":33,"time":191.140625,"velocity":0.3937007874015748},{"duration":0.1744791666666572,"midi":77,"time":191.140625,"velocity":0.3937007874015748},{"duration":0.05729166666665719,"midi":87,"time":191.140625,"velocity":0.3937007874015748},{"duration":0.2356770833333428,"midi":84,"time":191.140625,"velocity":0.3937007874015748},{"duration":0.05729166666665719,"midi":61,"time":191.140625,"velocity":0.3937007874015748},{"duration":0.05729166666665719,"midi":51,"time":191.1640625,"velocity":0.3937007874015748},{"duration":0.17447916666668561,"midi":69,"time":191.17447916666666,"velocity":0.3937007874015748},{"duration":0.30078125,"midi":81,"time":191.18619791666666,"velocity":0.3937007874015748},{"duration":0.17578125,"midi":57,"time":191.18619791666666,"velocity":0.3937007874015748},{"duration":0.17578125,"midi":50,"time":191.18619791666666,"velocity":0.3937007874015748},{"duration":0.06119791666665719,"midi":88,"time":191.23177083333334,"velocity":0.3937007874015748},{"duration":0.4270833333333144,"midi":74,"time":191.24348958333334,"velocity":0.3937007874015748},{"duration":0.059895833333314386,"midi":90,"time":191.25520833333334,"velocity":0.3937007874015748},{"duration":0.05859375,"midi":63,"time":191.26822916666666,"velocity":0.3937007874015748},{"duration":0.17447916666668561,"midi":88,"time":191.26822916666666,"velocity":0.3937007874015748},{"duration":0.15104166666668561,"midi":76,"time":191.27994791666666,"velocity":0.3937007874015748},{"duration":0.05859375,"midi":77,"time":191.27994791666666,"velocity":0.3937007874015748},{"duration":0.17447916666668561,"midi":84,"time":191.30338541666666,"velocity":0.3937007874015748},{"duration":0.17447916666668561,"midi":83,"time":191.30338541666666,"velocity":0.3937007874015748},{"duration":0.17447916666668561,"midi":65,"time":191.30338541666666,"velocity":0.3937007874015748},{"duration":0.17447916666668561,"midi":79,"time":191.31510416666666,"velocity":0.3937007874015748},{"duration":0.17447916666668561,"midi":92,"time":191.31510416666666,"velocity":0.3937007874015748},{"duration":0.17578125,"midi":90,"time":191.32552083333334,"velocity":0.3937007874015748},{"duration":0.059895833333314386,"midi":62,"time":191.34895833333334,"velocity":0.3937007874015748},{"duration":0.17708333333331439,"midi":89,"time":191.34895833333334,"velocity":0.3937007874015748},{"duration":0.17708333333331439,"midi":84,"time":191.36067708333334,"velocity":0.3937007874015748},{"duration":0.08203125,"midi":76,"time":191.37239583333334,"velocity":0.3937007874015748},{"duration":0.17578125,"midi":69,"time":191.37239583333334,"velocity":0.3937007874015748},{"duration":0.17578125,"midi":65,"time":191.39583333333334,"velocity":0.3937007874015748},{"duration":0.17578125,"midi":50,"time":191.41927083333334,"velocity":0.3937007874015748},{"duration":0.17578125,"midi":90,"time":191.43098958333334,"velocity":0.3937007874015748},{"duration":0.06119791666665719,"midi":95,"time":191.4765625,"velocity":0.3937007874015748},{"duration":0.05989583333334281,"midi":64,"time":191.48828125,"velocity":0.3937007874015748},{"duration":0.17578125,"midi":88,"time":191.48828125,"velocity":0.3937007874015748},{"duration":0.421875,"midi":76,"time":191.48828125,"velocity":0.3937007874015748},{"duration":0.05989583333334281,"midi":86,"time":191.48828125,"velocity":0.3937007874015748},{"duration":0.17578125,"midi":92,"time":191.48828125,"velocity":0.3937007874015748},{"duration":0.05989583333334281,"midi":84,"time":191.48828125,"velocity":0.3937007874015748},{"duration":0.059895833333314386,"midi":49,"time":191.50130208333334,"velocity":0.3937007874015748},{"duration":0.059895833333314386,"midi":67,"time":191.50130208333334,"velocity":0.3937007874015748},{"duration":0.1744791666666572,"midi":57,"time":191.51302083333334,"velocity":0.3937007874015748},{"duration":0.1744791666666572,"midi":80,"time":191.52473958333334,"velocity":0.3937007874015748},{"duration":0.05859375,"midi":65,"time":191.52473958333334,"velocity":0.3937007874015748},{"duration":0.1744791666666572,"midi":83,"time":191.52473958333334,"velocity":0.3937007874015748},{"duration":0.1744791666666572,"midi":50,"time":191.52473958333334,"velocity":0.3937007874015748},{"duration":0.05859375,"midi":67,"time":191.54817708333334,"velocity":0.3937007874015748},{"duration":0.1744791666666572,"midi":65,"time":191.5703125,"velocity":0.3937007874015748},{"duration":0.1731770833333428,"midi":89,"time":191.59375,"velocity":0.3937007874015748},{"duration":0.171875,"midi":79,"time":191.60546875,"velocity":0.3937007874015748},{"duration":0.05989583333334281,"midi":90,"time":191.6171875,"velocity":0.3937007874015748},{"duration":0.05989583333334281,"midi":67,"time":191.65234375,"velocity":0.3937007874015748},{"duration":0.05859375,"midi":64,"time":191.6640625,"velocity":0.3937007874015748},{"duration":0.05859375,"midi":63,"time":191.6875,"velocity":0.3937007874015748},{"duration":0.1705729166666572,"midi":92,"time":191.6875,"velocity":0.3937007874015748},{"duration":0.05729166666665719,"midi":65,"time":191.69921875,"velocity":0.3937007874015748},{"duration":0.1705729166666572,"midi":90,"time":191.69921875,"velocity":0.3937007874015748},{"duration":0.05598958333334281,"midi":83,"time":191.7109375,"velocity":0.3937007874015748},{"duration":0.1705729166666572,"midi":79,"time":191.7109375,"velocity":0.3937007874015748},{"duration":0.05598958333334281,"midi":50,"time":191.72135416666666,"velocity":0.3937007874015748},{"duration":0.05598958333334281,"midi":64,"time":191.72135416666666,"velocity":0.3937007874015748},{"duration":0.05598958333334281,"midi":67,"time":191.73307291666666,"velocity":0.3937007874015748},{"duration":0.171875,"midi":89,"time":191.73307291666666,"velocity":0.3937007874015748},{"duration":0.055989583333314386,"midi":60,"time":191.75520833333334,"velocity":0.3937007874015748},{"duration":0.055989583333314386,"midi":65,"time":191.75520833333334,"velocity":0.3937007874015748},{"duration":0.05729166666665719,"midi":67,"time":191.77734375,"velocity":0.3937007874015748},{"duration":0.17447916666668561,"midi":74,"time":191.78776041666666,"velocity":0.3937007874015748},{"duration":0.05859375,"midi":77,"time":191.78776041666666,"velocity":0.3937007874015748},{"duration":0.05859375,"midi":69,"time":191.78776041666666,"velocity":0.3937007874015748},{"duration":0.17447916666668561,"midi":50,"time":191.79947916666666,"velocity":0.3937007874015748},{"duration":0.059895833333314386,"midi":57,"time":191.82161458333334,"velocity":0.3937007874015748},{"duration":0.17317708333331439,"midi":76,"time":191.83333333333334,"velocity":0.3937007874015748},{"duration":0.140625,"midi":65,"time":191.83333333333334,"velocity":0.3937007874015748},{"duration":0.059895833333314386,"midi":61,"time":191.85677083333334,"velocity":0.3937007874015748},{"duration":0.09244791666668561,"midi":90,"time":191.88151041666666,"velocity":0.3937007874015748},{"duration":0.09375,"midi":88,"time":191.89192708333334,"velocity":0.3937007874015748},{"duration":0.17317708333331439,"midi":84,"time":191.89192708333334,"velocity":0.3937007874015748},{"duration":0.1393229166666572,"midi":94,"time":191.89192708333334,"velocity":0.3937007874015748},{"duration":0.059895833333314386,"midi":87,"time":191.89192708333334,"velocity":0.3937007874015748},{"duration":0.059895833333314386,"midi":89,"time":191.89192708333334,"velocity":0.3937007874015748},{"duration":0.05859375,"midi":91,"time":191.90364583333334,"velocity":0.3937007874015748},{"duration":0.05859375,"midi":75,"time":191.90364583333334,"velocity":0.3937007874015748},{"duration":0.05859375,"midi":85,"time":191.90364583333334,"velocity":0.3937007874015748},{"duration":0.05859375,"midi":63,"time":191.90364583333334,"velocity":0.3937007874015748},{"duration":0.1380208333333428,"midi":90,"time":191.91666666666666,"velocity":0.3937007874015748},{"duration":0.057291666666685614,"midi":91,"time":191.91666666666666,"velocity":0.3937007874015748},{"duration":0.08984375,"midi":65,"time":191.91666666666666,"velocity":0.3937007874015748},{"duration":0.79296875,"midi":50,"time":191.92708333333334,"velocity":0.3937007874015748},{"duration":0.17317708333331439,"midi":86,"time":191.92708333333334,"velocity":0.3937007874015748},{"duration":0.17317708333331439,"midi":57,"time":191.92708333333334,"velocity":0.3937007874015748},{"duration":0.13802083333331439,"midi":88,"time":191.92708333333334,"velocity":0.3937007874015748},{"duration":0.05859375,"midi":81,"time":191.92708333333334,"velocity":0.3937007874015748},{"duration":0.05859375,"midi":93,"time":191.92708333333334,"velocity":0.3937007874015748},{"duration":0.05729166666665719,"midi":74,"time":191.93880208333334,"velocity":0.3937007874015748},{"duration":0.5481770833333144,"midi":69,"time":191.93880208333334,"velocity":0.3937007874015748},{"duration":0.171875,"midi":66,"time":191.95052083333334,"velocity":0.3937007874015748},{"duration":0.05859375,"midi":87,"time":191.97265625,"velocity":0.3937007874015748},{"duration":0.05859375,"midi":82,"time":191.97265625,"velocity":0.3937007874015748},{"duration":0.05859375,"midi":75,"time":191.97265625,"velocity":0.3937007874015748},{"duration":0.05859375,"midi":91,"time":191.97265625,"velocity":0.3937007874015748},{"duration":0.05859375,"midi":89,"time":191.97265625,"velocity":0.3937007874015748},{"duration":0.09244791666665719,"midi":94,"time":191.97265625,"velocity":0.3937007874015748},{"duration":0.05859375,"midi":85,"time":191.99609375,"velocity":0.3937007874015748},{"duration":0.1731770833333428,"midi":93,"time":191.99609375,"velocity":0.3937007874015748},{"duration":0.17447916666668561,"midi":74,"time":192.00651041666666,"velocity":0.3937007874015748},{"duration":0.17447916666668561,"midi":83,"time":192.01822916666666,"velocity":0.3937007874015748},{"duration":0.05859375,"midi":64,"time":192.01822916666666,"velocity":0.3937007874015748},{"duration":0.17447916666668561,"midi":95,"time":192.01822916666666,"velocity":0.3937007874015748},{"duration":0.17447916666668561,"midi":90,"time":192.01822916666666,"velocity":0.3937007874015748},{"duration":0.1744791666666572,"midi":92,"time":192.03125,"velocity":0.3937007874015748},{"duration":0.05859375,"midi":79,"time":192.03125,"velocity":0.3937007874015748},{"duration":0.1744791666666572,"midi":88,"time":192.03125,"velocity":0.3937007874015748},{"duration":0.05859375,"midi":86,"time":192.05338541666666,"velocity":0.3937007874015748},{"duration":0.05859375,"midi":64,"time":192.06380208333334,"velocity":0.3937007874015748},{"duration":0.17578125,"midi":84,"time":192.07682291666666,"velocity":0.3937007874015748},{"duration":0.05859375,"midi":63,"time":192.09895833333334,"velocity":0.3937007874015748},{"duration":0.17447916666668561,"midi":57,"time":192.11197916666666,"velocity":0.3937007874015748},{"duration":0.17447916666668561,"midi":93,"time":192.11197916666666,"velocity":0.3937007874015748},{"duration":0.17447916666668561,"midi":79,"time":192.11197916666666,"velocity":0.3937007874015748},{"duration":0.17578125,"midi":86,"time":192.12239583333334,"velocity":0.3937007874015748},{"duration":0.059895833333314386,"midi":66,"time":192.14583333333334,"velocity":0.3937007874015748},{"duration":0.059895833333314386,"midi":63,"time":192.19270833333334,"velocity":0.3937007874015748},{"duration":0.05989583333334281,"midi":74,"time":192.21484375,"velocity":0.3937007874015748},{"duration":0.17578125,"midi":77,"time":192.22786458333334,"velocity":0.3937007874015748},{"duration":0.2994791666666572,"midi":95,"time":192.23958333333334,"velocity":0.3937007874015748},{"duration":0.059895833333314386,"midi":86,"time":192.29817708333334,"velocity":0.3937007874015748},{"duration":0.059895833333314386,"midi":76,"time":192.29817708333334,"velocity":0.3937007874015748},{"duration":0.059895833333314386,"midi":66,"time":192.29817708333334,"velocity":0.3937007874015748},{"duration":0.17578125,"midi":57,"time":192.3203125,"velocity":0.3937007874015748},{"duration":0.05989583333334281,"midi":62,"time":192.3203125,"velocity":0.3937007874015748},{"duration":0.05989583333334281,"midi":94,"time":192.33203125,"velocity":0.3937007874015748},{"duration":0.05989583333334281,"midi":89,"time":192.33203125,"velocity":0.3937007874015748},{"duration":0.05989583333334281,"midi":75,"time":192.33203125,"velocity":0.3937007874015748},{"duration":0.1744791666666572,"midi":84,"time":192.34505208333334,"velocity":0.3937007874015748},{"duration":0.05859375,"midi":74,"time":192.35677083333334,"velocity":0.3937007874015748},{"duration":0.05859375,"midi":88,"time":192.35677083333334,"velocity":0.3937007874015748},{"duration":0.05859375,"midi":63,"time":192.35677083333334,"velocity":0.3937007874015748},{"duration":0.05859375,"midi":90,"time":192.3671875,"velocity":0.3937007874015748},{"duration":0.05859375,"midi":86,"time":192.3671875,"velocity":0.3937007874015748},{"duration":0.05859375,"midi":62,"time":192.38020833333334,"velocity":0.3937007874015748},{"duration":0.05859375,"midi":85,"time":192.38020833333334,"velocity":0.3937007874015748},{"duration":0.1731770833333428,"midi":57,"time":192.40234375,"velocity":0.3937007874015748},{"duration":0.2942708333333428,"midi":77,"time":192.42578125,"velocity":0.3937007874015748},{"duration":0.05989583333334281,"midi":66,"time":192.44791666666666,"velocity":0.3937007874015748},{"duration":0.05859375,"midi":74,"time":192.4609375,"velocity":0.3937007874015748},{"duration":0.05859375,"midi":64,"time":192.49609375,"velocity":0.3937007874015748},{"duration":0.05729166666665719,"midi":66,"time":192.5078125,"velocity":0.3937007874015748},{"duration":0.05729166666665719,"midi":90,"time":192.5078125,"velocity":0.3937007874015748},{"duration":0.05729166666665719,"midi":84,"time":192.5078125,"velocity":0.3937007874015748},{"duration":0.17057291666668561,"midi":90,"time":192.51822916666666,"velocity":0.3937007874015748},{"duration":0.057291666666685614,"midi":87,"time":192.51822916666666,"velocity":0.3937007874015748},{"duration":0.057291666666685614,"midi":61,"time":192.51822916666666,"velocity":0.3937007874015748},{"duration":0.17057291666668561,"midi":94,"time":192.52994791666666,"velocity":0.3937007874015748},{"duration":0.05859375,"midi":65,"time":192.52994791666666,"velocity":0.3937007874015748},{"duration":0.05859375,"midi":74,"time":192.52994791666666,"velocity":0.3937007874015748},{"duration":0.17057291666668561,"midi":88,"time":192.52994791666666,"velocity":0.3937007874015748},{"duration":0.05859375,"midi":93,"time":192.54166666666666,"velocity":0.3937007874015748},{"duration":0.05859375,"midi":57,"time":192.54166666666666,"velocity":0.3937007874015748},{"duration":0.057291666666685614,"midi":66,"time":192.55338541666666,"velocity":0.3937007874015748},{"duration":0.16927083333331439,"midi":88,"time":192.56380208333334,"velocity":0.3937007874015748},{"duration":0.05729166666665719,"midi":80,"time":192.56380208333334,"velocity":0.3937007874015748},{"duration":0.16927083333331439,"midi":84,"time":192.56380208333334,"velocity":0.3937007874015748},{"duration":0.16927083333331439,"midi":57,"time":192.57552083333334,"velocity":0.3937007874015748},{"duration":0.16927083333331439,"midi":65,"time":192.57552083333334,"velocity":0.3937007874015748},{"duration":0.2903645833333144,"midi":69,"time":192.57552083333334,"velocity":0.3937007874015748},{"duration":0.05729166666665719,"midi":80,"time":192.61067708333334,"velocity":0.3937007874015748},{"duration":0.05729166666665719,"midi":74,"time":192.62109375,"velocity":0.3937007874015748},{"duration":0.057291666666685614,"midi":85,"time":192.63151041666666,"velocity":0.3937007874015748},{"duration":0.057291666666685614,"midi":63,"time":192.65494791666666,"velocity":0.3937007874015748},{"duration":0.057291666666685614,"midi":75,"time":192.65494791666666,"velocity":0.3937007874015748},{"duration":0.14453125,"midi":89,"time":192.65494791666666,"velocity":0.3937007874015748},{"duration":0.05598958333334281,"midi":86,"time":192.66666666666666,"velocity":0.3937007874015748},{"duration":0.16666666666668561,"midi":90,"time":192.66666666666666,"velocity":0.3937007874015748},{"duration":0.16666666666668561,"midi":77,"time":192.66666666666666,"velocity":0.3937007874015748},{"duration":0.05598958333334281,"midi":86,"time":192.67838541666666,"velocity":0.3937007874015748},{"duration":0.05598958333334281,"midi":74,"time":192.67838541666666,"velocity":0.3937007874015748},{"duration":0.055989583333314386,"midi":78,"time":192.68880208333334,"velocity":0.3937007874015748},{"duration":0.055989583333314386,"midi":91,"time":192.68880208333334,"velocity":0.3937007874015748},{"duration":0.055989583333314386,"midi":91,"time":192.68880208333334,"velocity":0.3937007874015748},{"duration":0.05598958333334281,"midi":65,"time":192.69921875,"velocity":0.3937007874015748},{"duration":0.05598958333334281,"midi":60,"time":192.69921875,"velocity":0.3937007874015748},{"duration":0.05598958333334281,"midi":75,"time":192.69921875,"velocity":0.3937007874015748},{"duration":0.05598958333334281,"midi":68,"time":192.69921875,"velocity":0.3937007874015748},{"duration":0.05598958333334281,"midi":87,"time":192.69921875,"velocity":0.3937007874015748},{"duration":0.16796875,"midi":95,"time":192.7109375,"velocity":0.3937007874015748},{"duration":0.0546875,"midi":44,"time":192.7109375,"velocity":0.3937007874015748},{"duration":0.0546875,"midi":42,"time":192.72265625,"velocity":0.3937007874015748},{"duration":0.0546875,"midi":76,"time":192.72265625,"velocity":0.3937007874015748},{"duration":0.0546875,"midi":61,"time":192.72265625,"velocity":0.3937007874015748},{"duration":0.16796875,"midi":74,"time":192.72265625,"velocity":0.3937007874015748},{"duration":0.078125,"midi":89,"time":192.74348958333334,"velocity":0.3937007874015748},{"duration":0.055989583333314386,"midi":51,"time":192.74348958333334,"velocity":0.3937007874015748},{"duration":0.055989583333314386,"midi":88,"time":192.74348958333334,"velocity":0.3937007874015748},{"duration":0.055989583333314386,"midi":65,"time":192.75520833333334,"velocity":0.3937007874015748},{"duration":0.16927083333331439,"midi":62,"time":192.75520833333334,"velocity":0.3937007874015748},{"duration":0.055989583333314386,"midi":40,"time":192.75520833333334,"velocity":0.3937007874015748},{"duration":0.1692708333333428,"midi":50,"time":192.765625,"velocity":0.3937007874015748},{"duration":0.1692708333333428,"midi":90,"time":192.77604166666666,"velocity":0.3937007874015748},{"duration":0.17057291666668561,"midi":88,"time":192.78776041666666,"velocity":0.3937007874015748},{"duration":0.05859375,"midi":94,"time":192.80989583333334,"velocity":0.3937007874015748},{"duration":0.05859375,"midi":75,"time":192.8203125,"velocity":0.3937007874015748},{"duration":0.05859375,"midi":65,"time":192.8203125,"velocity":0.3937007874015748},{"duration":0.05729166666665719,"midi":82,"time":192.83333333333334,"velocity":0.3937007874015748},{"duration":0.05729166666665719,"midi":40,"time":192.83333333333334,"velocity":0.3937007874015748},{"duration":0.05729166666665719,"midi":66,"time":192.85546875,"velocity":0.3937007874015748},{"duration":0.05729166666665719,"midi":81,"time":192.85546875,"velocity":0.3937007874015748},{"duration":0.13671875,"midi":61,"time":192.86848958333334,"velocity":0.3937007874015748},{"duration":0.055989583333314386,"midi":48,"time":192.86848958333334,"velocity":0.3937007874015748},{"duration":0.2955729166666572,"midi":65,"time":192.86848958333334,"velocity":0.3937007874015748},{"duration":0.05598958333334281,"midi":72,"time":192.87890625,"velocity":0.3937007874015748},{"duration":0.1731770833333428,"midi":74,"time":192.87890625,"velocity":0.3937007874015748},{"duration":0.421875,"midi":69,"time":192.87890625,"velocity":0.3937007874015748},{"duration":0.17447916666668561,"midi":91,"time":192.91276041666666,"velocity":0.3937007874015748},{"duration":0.05859375,"midi":89,"time":192.92317708333334,"velocity":0.3937007874015748},{"duration":0.5494791666666572,"midi":72,"time":192.92317708333334,"velocity":0.3937007874015748},{"duration":0.05859375,"midi":47,"time":192.92317708333334,"velocity":0.3937007874015748},{"duration":0.05859375,"midi":56,"time":192.92317708333334,"velocity":0.3937007874015748},{"duration":0.05859375,"midi":41,"time":192.92317708333334,"velocity":0.3937007874015748},{"duration":0.09505208333334281,"midi":61,"time":192.9453125,"velocity":0.3937007874015748},{"duration":0.05989583333334281,"midi":47,"time":192.95703125,"velocity":0.3937007874015748},{"duration":0.05989583333334281,"midi":61,"time":192.9921875,"velocity":0.3937007874015748},{"duration":0.1640625,"midi":93,"time":192.9921875,"velocity":0.3937007874015748},{"duration":0.05989583333334281,"midi":62,"time":193.0390625,"velocity":0.3937007874015748},{"duration":0.05859375,"midi":43,"time":193.05078125,"velocity":0.3937007874015748},{"duration":0.1731770833333428,"midi":74,"time":193.0625,"velocity":0.3937007874015748},{"duration":0.05859375,"midi":42,"time":193.07421875,"velocity":0.3937007874015748},{"duration":0.05859375,"midi":57,"time":193.07421875,"velocity":0.3937007874015748},{"duration":0.05729166666665719,"midi":88,"time":193.0859375,"velocity":0.3937007874015748},{"duration":0.06770833333331439,"midi":93,"time":193.09895833333334,"velocity":0.3937007874015748},{"duration":0.1731770833333428,"midi":57,"time":193.109375,"velocity":0.3937007874015748},{"duration":0.05859375,"midi":48,"time":193.11979166666666,"velocity":0.3937007874015748},{"duration":0.05859375,"midi":41,"time":193.14322916666666,"velocity":0.3937007874015748},{"duration":0.05859375,"midi":88,"time":193.16666666666666,"velocity":0.3937007874015748},{"duration":0.3020833333333144,"midi":65,"time":193.18880208333334,"velocity":0.3937007874015748},{"duration":0.3020833333333428,"midi":69,"time":193.26953125,"velocity":0.3937007874015748},{"duration":0.17708333333331439,"midi":74,"time":193.28255208333334,"velocity":0.3937007874015748},{"duration":0.17708333333331439,"midi":93,"time":193.28255208333334,"velocity":0.3937007874015748},{"duration":0.059895833333314386,"midi":52,"time":193.29427083333334,"velocity":0.3937007874015748},{"duration":0.059895833333314386,"midi":47,"time":193.30598958333334,"velocity":0.3937007874015748},{"duration":0.059895833333314386,"midi":88,"time":193.34114583333334,"velocity":0.3937007874015748},{"duration":0.05859375,"midi":56,"time":193.40104166666666,"velocity":0.3937007874015748},{"duration":0.4205729166666572,"midi":81,"time":193.42317708333334,"velocity":0.3937007874015748},{"duration":0.059895833333314386,"midi":66,"time":193.45833333333334,"velocity":0.3937007874015748},{"duration":0.059895833333314386,"midi":62,"time":193.45833333333334,"velocity":0.3937007874015748},{"duration":0.17317708333331439,"midi":86,"time":193.45833333333334,"velocity":0.3937007874015748},{"duration":0.17317708333331439,"midi":89,"time":193.45833333333334,"velocity":0.3937007874015748},{"duration":0.07291666666665719,"midi":84,"time":193.46875,"velocity":0.3937007874015748},{"duration":0.1744791666666572,"midi":85,"time":193.46875,"velocity":0.3937007874015748},{"duration":0.1744791666666572,"midi":90,"time":193.46875,"velocity":0.3937007874015748},{"duration":0.1744791666666572,"midi":88,"time":193.46875,"velocity":0.3937007874015748},{"duration":0.296875,"midi":77,"time":193.46875,"velocity":0.3937007874015748},{"duration":0.059895833333314386,"midi":44,"time":193.48177083333334,"velocity":0.3937007874015748},{"duration":0.16145833333331439,"midi":84,"time":193.48177083333334,"velocity":0.3937007874015748},{"duration":0.059895833333314386,"midi":63,"time":193.48177083333334,"velocity":0.3937007874015748},{"duration":0.059895833333314386,"midi":87,"time":193.48177083333334,"velocity":0.3937007874015748},{"duration":0.059895833333314386,"midi":67,"time":193.48177083333334,"velocity":0.3937007874015748},{"duration":0.4192708333333144,"midi":74,"time":193.48177083333334,"velocity":0.3937007874015748},{"duration":0.17317708333331439,"midi":95,"time":193.49348958333334,"velocity":0.3937007874015748},{"duration":0.17317708333331439,"midi":50,"time":193.50520833333334,"velocity":0.3937007874015748},{"duration":0.17317708333331439,"midi":72,"time":193.50520833333334,"velocity":0.3937007874015748},{"duration":0.05859375,"midi":64,"time":193.50520833333334,"velocity":0.3937007874015748},{"duration":0.05859375,"midi":79,"time":193.50520833333334,"velocity":0.3937007874015748},{"duration":0.057291666666685614,"midi":42,"time":193.51822916666666,"velocity":0.3937007874015748},{"duration":0.057291666666685614,"midi":60,"time":193.51822916666666,"velocity":0.3937007874015748},{"duration":0.05729166666665719,"midi":68,"time":193.52864583333334,"velocity":0.3937007874015748},{"duration":0.1731770833333428,"midi":43,"time":193.55078125,"velocity":0.3937007874015748},{"duration":0.05729166666665719,"midi":68,"time":193.56380208333334,"velocity":0.3937007874015748},{"duration":0.05729166666665719,"midi":59,"time":193.56380208333334,"velocity":0.3937007874015748},{"duration":0.171875,"midi":89,"time":193.57421875,"velocity":0.3937007874015748},{"duration":0.171875,"midi":65,"time":193.57421875,"velocity":0.3937007874015748},{"duration":0.1731770833333428,"midi":84,"time":193.58463541666666,"velocity":0.3937007874015748},{"duration":0.1731770833333428,"midi":91,"time":193.58463541666666,"velocity":0.3937007874015748},{"duration":0.05989583333334281,"midi":69,"time":193.59635416666666,"velocity":0.3937007874015748},{"duration":0.171875,"midi":87,"time":193.60807291666666,"velocity":0.3937007874015748},{"duration":0.171875,"midi":84,"time":193.63151041666666,"velocity":0.3937007874015748},{"duration":0.05859375,"midi":70,"time":193.64322916666666,"velocity":0.3937007874015748},{"duration":0.05859375,"midi":50,"time":193.66666666666666,"velocity":0.3937007874015748},{"duration":0.6666666666666856,"midi":55,"time":193.67838541666666,"velocity":0.3937007874015748},{"duration":0.057291666666685614,"midi":88,"time":193.67838541666666,"velocity":0.3937007874015748},{"duration":0.057291666666685614,"midi":69,"time":193.67838541666666,"velocity":0.3937007874015748},{"duration":0.057291666666685614,"midi":43,"time":193.67838541666666,"velocity":0.3937007874015748},{"duration":0.05729166666665719,"midi":50,"time":193.70052083333334,"velocity":0.3937007874015748},{"duration":0.05729166666665719,"midi":43,"time":193.71223958333334,"velocity":0.3937007874015748},{"duration":0.4205729166666572,"midi":70,"time":193.71223958333334,"velocity":0.3937007874015748},{"duration":0.05729166666665719,"midi":62,"time":193.71223958333334,"velocity":0.3937007874015748},{"duration":0.05729166666665719,"midi":64,"time":193.734375,"velocity":0.3937007874015748},{"duration":0.05859375,"midi":43,"time":193.76822916666666,"velocity":0.3937007874015748},{"duration":0.05859375,"midi":31,"time":193.76822916666666,"velocity":0.3937007874015748},{"duration":0.1731770833333428,"midi":65,"time":193.77994791666666,"velocity":0.3937007874015748},{"duration":0.05859375,"midi":31,"time":193.80208333333334,"velocity":0.3937007874015748},{"duration":0.05729166666665719,"midi":43,"time":193.81380208333334,"velocity":0.3937007874015748},{"duration":0.05729166666665719,"midi":84,"time":193.81380208333334,"velocity":0.3937007874015748},{"duration":0.05859375,"midi":50,"time":193.86067708333334,"velocity":0.3937007874015748},{"duration":0.05859375,"midi":63,"time":193.87109375,"velocity":0.3937007874015748},{"duration":0.05859375,"midi":43,"time":193.87109375,"velocity":0.3937007874015748},{"duration":0.05989583333334281,"midi":84,"time":193.88151041666666,"velocity":0.3937007874015748},{"duration":0.17447916666668561,"midi":86,"time":193.88151041666666,"velocity":0.3937007874015748},{"duration":0.17447916666668561,"midi":84,"time":193.88151041666666,"velocity":0.3937007874015748},{"duration":0.17447916666668561,"midi":93,"time":193.88151041666666,"velocity":0.3937007874015748},{"duration":0.05989583333334281,"midi":74,"time":193.88151041666666,"velocity":0.3937007874015748},{"duration":0.05859375,"midi":66,"time":193.89453125,"velocity":0.3937007874015748},{"duration":0.05859375,"midi":87,"time":193.89453125,"velocity":0.3937007874015748},{"duration":0.05729166666665719,"midi":44,"time":193.90625,"velocity":0.3937007874015748},{"duration":0.1731770833333428,"midi":62,"time":193.90625,"velocity":0.3937007874015748},{"duration":0.1731770833333428,"midi":81,"time":193.91796875,"velocity":0.3937007874015748},{"duration":0.057291666666685614,"midi":43,"time":193.92838541666666,"velocity":0.3937007874015748},{"duration":0.057291666666685614,"midi":31,"time":193.95182291666666,"velocity":0.3937007874015748},{"duration":0.057291666666685614,"midi":66,"time":193.95182291666666,"velocity":0.3937007874015748},{"duration":0.05859375,"midi":88,"time":193.96223958333334,"velocity":0.3937007874015748},{"duration":0.17578125,"midi":65,"time":193.98567708333334,"velocity":0.3937007874015748},{"duration":0.17578125,"midi":89,"time":193.98567708333334,"velocity":0.3937007874015748},{"duration":0.05989583333334281,"midi":92,"time":193.99609375,"velocity":0.3937007874015748},{"duration":0.17578125,"midi":31,"time":193.99609375,"velocity":0.3937007874015748},{"duration":0.059895833333314386,"midi":44,"time":194.00911458333334,"velocity":0.3937007874015748},{"duration":0.059895833333314386,"midi":61,"time":194.00911458333334,"velocity":0.3937007874015748},{"duration":0.2981770833333428,"midi":62,"time":194.04296875,"velocity":0.3937007874015748},{"duration":0.059895833333314386,"midi":84,"time":194.05598958333334,"velocity":0.3937007874015748},{"duration":0.059895833333314386,"midi":44,"time":194.05598958333334,"velocity":0.3937007874015748},{"duration":0.059895833333314386,"midi":43,"time":194.09114583333334,"velocity":0.3937007874015748},{"duration":0.05859375,"midi":86,"time":194.10286458333334,"velocity":0.3937007874015748},{"duration":0.05859375,"midi":44,"time":194.12630208333334,"velocity":0.3937007874015748},{"duration":0.05729166666665719,"midi":84,"time":194.13802083333334,"velocity":0.3937007874015748},{"duration":0.17317708333331439,"midi":70,"time":194.14973958333334,"velocity":0.3937007874015748},{"duration":0.05729166666665719,"midi":43,"time":194.14973958333334,"velocity":0.3937007874015748},{"duration":0.17317708333331439,"midi":77,"time":194.14973958333334,"velocity":0.3937007874015748},{"duration":0.1731770833333428,"midi":65,"time":194.19401041666666,"velocity":0.3937007874015748},{"duration":0.05989583333334281,"midi":43,"time":194.22916666666666,"velocity":0.3937007874015748},{"duration":0.05989583333334281,"midi":42,"time":194.25260416666666,"velocity":0.3937007874015748},{"duration":0.05989583333334281,"midi":84,"time":194.25260416666666,"velocity":0.3937007874015748},{"duration":0.1731770833333428,"midi":77,"time":194.25260416666666,"velocity":0.3937007874015748},{"duration":0.171875,"midi":87,"time":194.26432291666666,"velocity":0.3937007874015748},{"duration":0.29296875,"midi":84,"time":194.26432291666666,"velocity":0.3937007874015748},{"duration":0.171875,"midi":85,"time":194.26432291666666,"velocity":0.3937007874015748},{"duration":0.05859375,"midi":88,"time":194.26432291666666,"velocity":0.3937007874015748},{"duration":0.05859375,"midi":94,"time":194.26432291666666,"velocity":0.3937007874015748},{"duration":0.05859375,"midi":66,"time":194.26432291666666,"velocity":0.3937007874015748},{"duration":0.05729166666665719,"midi":50,"time":194.27734375,"velocity":0.3937007874015748},{"duration":0.05729166666665719,"midi":70,"time":194.27734375,"velocity":0.3937007874015748},{"duration":0.05729166666665719,"midi":75,"time":194.27734375,"velocity":0.3937007874015748},{"duration":0.05729166666665719,"midi":60,"time":194.27734375,"velocity":0.3937007874015748},{"duration":0.05729166666665719,"midi":90,"time":194.27734375,"velocity":0.3937007874015748},{"duration":0.05729166666665719,"midi":80,"time":194.27734375,"velocity":0.3937007874015748},{"duration":0.05729166666665719,"midi":90,"time":194.27734375,"velocity":0.3937007874015748},{"duration":0.05598958333334281,"midi":86,"time":194.2890625,"velocity":0.3937007874015748},{"duration":0.17057291666668561,"midi":74,"time":194.29947916666666,"velocity":0.3937007874015748},{"duration":0.17057291666668561,"midi":89,"time":194.29947916666666,"velocity":0.3937007874015748},{"duration":0.057291666666685614,"midi":76,"time":194.29947916666666,"velocity":0.3937007874015748},{"duration":0.05598958333334281,"midi":61,"time":194.31119791666666,"velocity":0.3937007874015748},{"duration":0.05598958333334281,"midi":65,"time":194.31119791666666,"velocity":0.3937007874015748},{"duration":0.05729166666665719,"midi":88,"time":194.33333333333334,"velocity":0.3937007874015748},{"duration":0.1705729166666572,"midi":69,"time":194.33333333333334,"velocity":0.3937007874015748},{"duration":0.5403645833333428,"midi":45,"time":194.34375,"velocity":0.3937007874015748},{"duration":0.13671875,"midi":33,"time":194.34375,"velocity":0.3937007874015748},{"duration":0.2916666666666572,"midi":62,"time":194.3671875,"velocity":0.3937007874015748},{"duration":0.05859375,"midi":90,"time":194.3671875,"velocity":0.3937007874015748},{"duration":0.05859375,"midi":66,"time":194.3671875,"velocity":0.3937007874015748},{"duration":0.171875,"midi":77,"time":194.37760416666666,"velocity":0.3937007874015748},{"duration":0.05859375,"midi":93,"time":194.37760416666666,"velocity":0.3937007874015748},{"duration":0.05859375,"midi":65,"time":194.40104166666666,"velocity":0.3937007874015748},{"duration":0.057291666666685614,"midi":52,"time":194.41276041666666,"velocity":0.3937007874015748},{"duration":0.09114583333334281,"midi":33,"time":194.42447916666666,"velocity":0.3937007874015748},{"duration":0.17057291666668561,"midi":94,"time":194.43619791666666,"velocity":0.3937007874015748},{"duration":0.17057291666668561,"midi":86,"time":194.43619791666666,"velocity":0.3937007874015748},{"duration":0.1705729166666572,"midi":90,"time":194.44661458333334,"velocity":0.3937007874015748},{"duration":0.05729166666665719,"midi":65,"time":194.45833333333334,"velocity":0.3937007874015748},{"duration":0.05729166666665719,"midi":75,"time":194.47005208333334,"velocity":0.3937007874015748},{"duration":0.05859375,"midi":33,"time":194.48046875,"velocity":0.3937007874015748},{"duration":0.1705729166666572,"midi":86,"time":194.48046875,"velocity":0.3937007874015748},{"duration":0.05859375,"midi":89,"time":194.49088541666666,"velocity":0.3937007874015748},{"duration":0.05859375,"midi":65,"time":194.49088541666666,"velocity":0.3937007874015748},{"duration":0.1692708333333428,"midi":88,"time":194.515625,"velocity":0.3937007874015748},{"duration":0.1692708333333428,"midi":81,"time":194.515625,"velocity":0.3937007874015748},{"duration":0.1354166666666572,"midi":70,"time":194.515625,"velocity":0.3937007874015748},{"duration":0.05729166666665719,"midi":33,"time":194.515625,"velocity":0.3937007874015748},{"duration":0.057291666666685614,"midi":52,"time":194.52604166666666,"velocity":0.3937007874015748},{"duration":0.057291666666685614,"midi":95,"time":194.54947916666666,"velocity":0.3937007874015748},{"duration":0.2955729166666856,"midi":33,"time":194.54947916666666,"velocity":0.3937007874015748},{"duration":0.05729166666665719,"midi":90,"time":194.57161458333334,"velocity":0.3937007874015748},{"duration":0.171875,"midi":90,"time":194.58333333333334,"velocity":0.3937007874015748},{"duration":0.05729166666665719,"midi":84,"time":194.58333333333334,"velocity":0.3937007874015748},{"duration":0.05729166666665719,"midi":52,"time":194.58333333333334,"velocity":0.3937007874015748},{"duration":0.09114583333334281,"midi":70,"time":194.59375,"velocity":0.3937007874015748},{"duration":0.057291666666685614,"midi":61,"time":194.63932291666666,"velocity":0.3937007874015748},{"duration":0.1731770833333428,"midi":65,"time":194.63932291666666,"velocity":0.3937007874015748},{"duration":0.15104166666668561,"midi":52,"time":194.65104166666666,"velocity":0.3937007874015748},{"duration":0.05859375,"midi":74,"time":194.65104166666666,"velocity":0.3937007874015748},{"duration":0.05859375,"midi":58,"time":194.66145833333334,"velocity":0.3937007874015748},{"duration":0.17317708333331439,"midi":82,"time":194.69661458333334,"velocity":0.3937007874015748},{"duration":0.1744791666666572,"midi":86,"time":194.71875,"velocity":0.3937007874015748},{"duration":0.1744791666666572,"midi":81,"time":194.73046875,"velocity":0.3937007874015748},{"duration":0.08203125,"midi":52,"time":194.7421875,"velocity":0.3937007874015748},{"duration":0.05859375,"midi":74,"time":194.75390625,"velocity":0.3937007874015748},{"duration":0.171875,"midi":33,"time":194.75390625,"velocity":0.3937007874015748},{"duration":0.05859375,"midi":89,"time":194.7890625,"velocity":0.3937007874015748},{"duration":0.05729166666665719,"midi":52,"time":194.80078125,"velocity":0.3937007874015748},{"duration":0.05729166666665719,"midi":65,"time":194.80078125,"velocity":0.3937007874015748},{"duration":0.1692708333333428,"midi":77,"time":194.80078125,"velocity":0.3937007874015748},{"duration":0.1692708333333428,"midi":70,"time":194.80078125,"velocity":0.3937007874015748},{"duration":0.08072916666665719,"midi":86,"time":194.8125,"velocity":0.3937007874015748},{"duration":0.05859375,"midi":57,"time":194.82291666666666,"velocity":0.3937007874015748},{"duration":0.1692708333333428,"midi":84,"time":194.83463541666666,"velocity":0.3937007874015748},{"duration":0.14713541666668561,"midi":86,"time":194.83463541666666,"velocity":0.3937007874015748},{"duration":0.05859375,"midi":90,"time":194.83463541666666,"velocity":0.3937007874015748},{"duration":0.10286458333334281,"midi":88,"time":194.83463541666666,"velocity":0.3937007874015748},{"duration":0.05859375,"midi":74,"time":194.83463541666666,"velocity":0.3937007874015748},{"duration":0.05859375,"midi":43,"time":194.83463541666666,"velocity":0.3937007874015748},{"duration":0.13541666666668561,"midi":87,"time":194.83463541666666,"velocity":0.3937007874015748},{"duration":0.05859375,"midi":85,"time":194.83463541666666,"velocity":0.3937007874015748},{"duration":0.16796875,"midi":84,"time":194.84765625,"velocity":0.3937007874015748},{"duration":0.05729166666665719,"midi":64,"time":194.84765625,"velocity":0.3937007874015748},{"duration":0.16796875,"midi":89,"time":194.84765625,"velocity":0.3937007874015748},{"duration":0.1692708333333428,"midi":93,"time":194.85807291666666,"velocity":0.3937007874015748},{"duration":0.057291666666685614,"midi":66,"time":194.85807291666666,"velocity":0.3937007874015748},{"duration":0.1692708333333428,"midi":57,"time":194.85807291666666,"velocity":0.3937007874015748},{"duration":0.057291666666685614,"midi":94,"time":194.85807291666666,"velocity":0.3937007874015748},{"duration":0.05729166666665719,"midi":78,"time":194.86848958333334,"velocity":0.3937007874015748},{"duration":0.11197916666668561,"midi":88,"time":194.88151041666666,"velocity":0.3937007874015748},{"duration":0.05598958333334281,"midi":81,"time":194.88151041666666,"velocity":0.3937007874015748},{"duration":0.16666666666668561,"midi":45,"time":194.89322916666666,"velocity":0.3937007874015748},{"duration":0.055989583333314386,"midi":63,"time":194.90364583333334,"velocity":0.3937007874015748},{"duration":0.08984375,"midi":87,"time":194.9140625,"velocity":0.3937007874015748},{"duration":0.05598958333334281,"midi":68,"time":194.9140625,"velocity":0.3937007874015748},{"duration":0.06770833333334281,"midi":90,"time":194.92578125,"velocity":0.3937007874015748},{"duration":0.057291666666685614,"midi":65,"time":194.93619791666666,"velocity":0.3937007874015748},{"duration":0.16666666666668561,"midi":74,"time":194.93619791666666,"velocity":0.3937007874015748},{"duration":0.06770833333334281,"midi":88,"time":194.93619791666666,"velocity":0.3937007874015748},{"duration":0.057291666666685614,"midi":85,"time":194.93619791666666,"velocity":0.3937007874015748},{"duration":0.16666666666668561,"midi":81,"time":194.93619791666666,"velocity":0.3937007874015748},{"duration":0.16666666666668561,"midi":78,"time":194.93619791666666,"velocity":0.3937007874015748},{"duration":0.15625,"midi":90,"time":194.93619791666666,"velocity":0.3937007874015748},{"duration":0.05729166666665719,"midi":70,"time":194.94661458333334,"velocity":0.3937007874015748},{"duration":0.1666666666666572,"midi":62,"time":194.94661458333334,"velocity":0.3937007874015748},{"duration":0.078125,"midi":91,"time":194.95963541666666,"velocity":0.3937007874015748},{"duration":0.2890625,"midi":94,"time":194.95963541666666,"velocity":0.3937007874015748},{"duration":0.05729166666665719,"midi":77,"time":194.97005208333334,"velocity":0.3937007874015748},{"duration":0.05729166666665719,"midi":65,"time":194.98046875,"velocity":0.3937007874015748},{"duration":0.10026041666665719,"midi":91,"time":194.98046875,"velocity":0.3937007874015748},{"duration":0.1666666666666572,"midi":89,"time":194.98046875,"velocity":0.3937007874015748},{"duration":0.1666666666666572,"midi":86,"time":194.98046875,"velocity":0.3937007874015748},{"duration":0.16536458333331439,"midi":89,"time":194.99348958333334,"velocity":0.3937007874015748},{"duration":0.055989583333314386,"midi":79,"time":194.99348958333334,"velocity":0.3937007874015748},{"duration":0.1666666666666572,"midi":82,"time":195.00390625,"velocity":0.3937007874015748},{"duration":0.05598958333334281,"midi":87,"time":195.00390625,"velocity":0.3937007874015748},{"duration":0.05598958333334281,"midi":87,"time":195.01432291666666,"velocity":0.3937007874015748},{"duration":0.05598958333334281,"midi":92,"time":195.01432291666666,"velocity":0.3937007874015748},{"duration":0.16666666666668561,"midi":80,"time":195.02604166666666,"velocity":0.3937007874015748},{"duration":0.16666666666668561,"midi":88,"time":195.02604166666666,"velocity":0.3937007874015748},{"duration":0.09895833333334281,"midi":91,"time":195.02604166666666,"velocity":0.3937007874015748},{"duration":0.16666666666668561,"midi":72,"time":195.03776041666666,"velocity":0.3937007874015748},{"duration":0.0546875,"midi":68,"time":195.03776041666666,"velocity":0.3937007874015748},{"duration":0.0546875,"midi":95,"time":195.03776041666666,"velocity":0.3937007874015748},{"duration":0.0546875,"midi":45,"time":195.04817708333334,"velocity":0.3937007874015748},{"duration":0.16796875,"midi":65,"time":195.05859375,"velocity":0.3937007874015748},{"duration":0.0546875,"midi":78,"time":195.05859375,"velocity":0.3937007874015748},{"duration":0.16796875,"midi":58,"time":195.05859375,"velocity":0.3937007874015748},{"duration":0.0546875,"midi":90,"time":195.0703125,"velocity":0.3937007874015748},{"duration":0.0546875,"midi":85,"time":195.0703125,"velocity":0.3937007874015748},{"duration":0.0546875,"midi":37,"time":195.0703125,"velocity":0.3937007874015748},{"duration":0.4153645833333428,"midi":46,"time":195.0703125,"velocity":0.3937007874015748},{"duration":0.4153645833333428,"midi":53,"time":195.08072916666666,"velocity":0.3937007874015748},{"duration":0.055989583333314386,"midi":93,"time":195.09114583333334,"velocity":0.3937007874015748},{"duration":0.055989583333314386,"midi":91,"time":195.09114583333334,"velocity":0.3937007874015748},{"duration":0.055989583333314386,"midi":86,"time":195.09114583333334,"velocity":0.3937007874015748},{"duration":0.05729166666665719,"midi":35,"time":195.11328125,"velocity":0.3937007874015748},{"duration":0.05859375,"midi":86,"time":195.12369791666666,"velocity":0.3937007874015748},{"duration":0.05859375,"midi":74,"time":195.13541666666666,"velocity":0.3937007874015748},{"duration":0.171875,"midi":68,"time":195.13541666666666,"velocity":0.3937007874015748},{"duration":0.057291666666685614,"midi":77,"time":195.14713541666666,"velocity":0.3937007874015748},{"duration":0.05859375,"midi":34,"time":195.19270833333334,"velocity":0.3937007874015748},{"duration":0.171875,"midi":86,"time":195.203125,"velocity":0.3937007874015748},{"duration":0.05859375,"midi":85,"time":195.203125,"velocity":0.3937007874015748},{"duration":0.05859375,"midi":82,"time":195.2265625,"velocity":0.3937007874015748},{"duration":0.05859375,"midi":64,"time":195.2265625,"velocity":0.3937007874015748},{"duration":0.05729166666665719,"midi":60,"time":195.23828125,"velocity":0.3937007874015748},{"duration":0.5416666666666572,"midi":77,"time":195.23828125,"velocity":0.3937007874015748},{"duration":0.1731770833333428,"midi":93,"time":195.23828125,"velocity":0.3937007874015748},{"duration":0.055989583333314386,"midi":81,"time":195.25130208333334,"velocity":0.3937007874015748},{"duration":0.1731770833333428,"midi":65,"time":195.26171875,"velocity":0.3937007874015748},{"duration":0.05729166666665719,"midi":91,"time":195.26171875,"velocity":0.3937007874015748},{"duration":0.6666666666666572,"midi":89,"time":195.26171875,"velocity":0.3937007874015748},{"duration":0.2955729166666856,"midi":69,"time":195.27213541666666,"velocity":0.3937007874015748},{"duration":0.057291666666685614,"midi":34,"time":195.28385416666666,"velocity":0.3937007874015748},{"duration":0.057291666666685614,"midi":60,"time":195.28385416666666,"velocity":0.3937007874015748},{"duration":0.057291666666685614,"midi":84,"time":195.28385416666666,"velocity":0.3937007874015748},{"duration":0.17447916666668561,"midi":84,"time":195.29557291666666,"velocity":0.3937007874015748},{"duration":0.057291666666685614,"midi":87,"time":195.29557291666666,"velocity":0.3937007874015748},{"duration":0.1744791666666572,"midi":82,"time":195.30598958333334,"velocity":0.3937007874015748},{"duration":0.05989583333334281,"midi":34,"time":195.3515625,"velocity":0.3937007874015748},{"duration":0.05989583333334281,"midi":86,"time":195.375,"velocity":0.3937007874015748},{"duration":0.05989583333334281,"midi":33,"time":195.38671875,"velocity":0.3937007874015748},{"duration":0.05989583333334281,"midi":74,"time":195.38671875,"velocity":0.3937007874015748},{"duration":0.1731770833333428,"midi":84,"time":195.38671875,"velocity":0.3937007874015748},{"duration":0.171875,"midi":81,"time":195.3984375,"velocity":0.3937007874015748},{"duration":0.05859375,"midi":64,"time":195.41145833333334,"velocity":0.3937007874015748},{"duration":0.4205729166666572,"midi":84,"time":195.41145833333334,"velocity":0.3937007874015748},{"duration":0.05859375,"midi":60,"time":195.421875,"velocity":0.3937007874015748},{"duration":0.05729166666665719,"midi":45,"time":195.43359375,"velocity":0.3937007874015748},{"duration":0.05729166666665719,"midi":29,"time":195.46875,"velocity":0.3937007874015748},{"duration":0.05729166666665719,"midi":63,"time":195.46875,"velocity":0.3937007874015748},{"duration":0.171875,"midi":70,"time":195.46875,"velocity":0.3937007874015748},{"duration":0.171875,"midi":53,"time":195.46875,"velocity":0.3937007874015748},{"duration":0.05729166666665719,"midi":46,"time":195.48046875,"velocity":0.3937007874015748},{"duration":0.05729166666665719,"midi":60,"time":195.48046875,"velocity":0.3937007874015748},{"duration":0.05859375,"midi":63,"time":195.50130208333334,"velocity":0.3937007874015748},{"duration":0.05859375,"midi":88,"time":195.50130208333334,"velocity":0.3937007874015748},{"duration":0.05729166666665719,"midi":35,"time":195.51302083333334,"velocity":0.3937007874015748},{"duration":0.296875,"midi":74,"time":195.52604166666666,"velocity":0.3937007874015748},{"duration":0.296875,"midi":65,"time":195.52604166666666,"velocity":0.3937007874015748},{"duration":0.171875,"midi":62,"time":195.53645833333334,"velocity":0.3937007874015748},{"duration":0.05859375,"midi":69,"time":195.546875,"velocity":0.3937007874015748},{"duration":0.05859375,"midi":34,"time":195.546875,"velocity":0.3937007874015748},{"duration":0.05859375,"midi":46,"time":195.546875,"velocity":0.3937007874015748},{"duration":0.05989583333334281,"midi":34,"time":195.58072916666666,"velocity":0.3937007874015748},{"duration":0.05859375,"midi":59,"time":195.59375,"velocity":0.3937007874015748},{"duration":0.05859375,"midi":45,"time":195.59375,"velocity":0.3937007874015748},{"duration":0.171875,"midi":81,"time":195.59375,"velocity":0.3937007874015748},{"duration":0.05729166666665719,"midi":70,"time":195.60546875,"velocity":0.3937007874015748},{"duration":0.296875,"midi":58,"time":195.61588541666666,"velocity":0.3937007874015748},{"duration":0.05729166666665719,"midi":46,"time":195.62890625,"velocity":0.3937007874015748},{"duration":0.1731770833333428,"midi":69,"time":195.640625,"velocity":0.3937007874015748},{"duration":0.057291666666685614,"midi":88,"time":195.65104166666666,"velocity":0.3937007874015748},{"duration":0.17447916666668561,"midi":86,"time":195.65104166666666,"velocity":0.3937007874015748},{"duration":0.17578125,"midi":46,"time":195.66145833333334,"velocity":0.3937007874015748},{"duration":0.17708333333331439,"midi":82,"time":195.67317708333334,"velocity":0.3937007874015748},{"duration":0.05729166666665719,"midi":32,"time":195.68489583333334,"velocity":0.3937007874015748},{"duration":0.17578125,"midi":77,"time":195.70833333333334,"velocity":0.3937007874015748},{"duration":0.17578125,"midi":88,"time":195.71875,"velocity":0.3937007874015748},{"duration":0.1744791666666572,"midi":93,"time":195.7421875,"velocity":0.3937007874015748},{"duration":0.171875,"midi":92,"time":195.7890625,"velocity":0.3937007874015748},{"duration":0.06119791666665719,"midi":90,"time":195.80078125,"velocity":0.3937007874015748},{"duration":0.4192708333333428,"midi":95,"time":195.80078125,"velocity":0.3937007874015748},{"duration":0.06119791666665719,"midi":91,"time":195.80078125,"velocity":0.3937007874015748},{"duration":0.05989583333334281,"midi":51,"time":195.8125,"velocity":0.3937007874015748},{"duration":0.171875,"midi":86,"time":195.8125,"velocity":0.3937007874015748},{"duration":0.171875,"midi":88,"time":195.8125,"velocity":0.3937007874015748},{"duration":0.171875,"midi":60,"time":195.8125,"velocity":0.3937007874015748},{"duration":0.171875,"midi":82,"time":195.82552083333334,"velocity":0.3937007874015748},{"duration":0.05859375,"midi":49,"time":195.82552083333334,"velocity":0.3937007874015748},{"duration":0.05859375,"midi":75,"time":195.82552083333334,"velocity":0.3937007874015748},{"duration":0.05859375,"midi":68,"time":195.82552083333334,"velocity":0.3937007874015748},{"duration":0.05859375,"midi":64,"time":195.82552083333334,"velocity":0.3937007874015748},{"duration":0.2916666666666572,"midi":88,"time":195.83723958333334,"velocity":0.3937007874015748},{"duration":0.05729166666665719,"midi":45,"time":195.83723958333334,"velocity":0.3937007874015748},{"duration":0.1705729166666572,"midi":70,"time":195.83723958333334,"velocity":0.3937007874015748},{"duration":0.2916666666666572,"midi":90,"time":195.84895833333334,"velocity":0.3937007874015748},{"duration":0.055989583333314386,"midi":84,"time":195.84895833333334,"velocity":0.3937007874015748},{"duration":0.16927083333331439,"midi":85,"time":195.84895833333334,"velocity":0.3937007874015748},{"duration":0.1692708333333428,"midi":79,"time":195.86197916666666,"velocity":0.3937007874015748},{"duration":0.055989583333314386,"midi":53,"time":195.87239583333334,"velocity":0.3937007874015748},{"duration":0.055989583333314386,"midi":67,"time":195.87239583333334,"velocity":0.3937007874015748},{"duration":0.29296875,"midi":92,"time":195.8828125,"velocity":0.3937007874015748},{"duration":0.1705729166666572,"midi":77,"time":195.8828125,"velocity":0.3937007874015748},{"duration":0.05598958333334281,"midi":47,"time":195.8828125,"velocity":0.3937007874015748},{"duration":0.17057291666668561,"midi":64,"time":195.89322916666666,"velocity":0.3937007874015748},{"duration":0.05598958333334281,"midi":54,"time":195.89322916666666,"velocity":0.3937007874015748},{"duration":0.17057291666668561,"midi":67,"time":195.90494791666666,"velocity":0.3937007874015748},{"duration":0.2955729166666572,"midi":55,"time":195.92708333333334,"velocity":0.3937007874015748},{"duration":0.05859375,"midi":48,"time":195.93880208333334,"velocity":0.3937007874015748},{"duration":0.05859375,"midi":84,"time":195.94921875,"velocity":0.3937007874015748},{"duration":0.171875,"midi":86,"time":195.97265625,"velocity":0.3937007874015748},{"duration":0.05859375,"midi":68,"time":195.984375,"velocity":0.3937007874015748},{"duration":0.05729166666665719,"midi":60,"time":195.99609375,"velocity":0.3937007874015748},{"duration":0.4140625,"midi":48,"time":196.00651041666666,"velocity":0.3937007874015748},{"duration":0.057291666666685614,"midi":83,"time":196.00651041666666,"velocity":0.3937007874015748},{"duration":0.1731770833333428,"midi":64,"time":196.01822916666666,"velocity":0.3937007874015748},{"duration":0.057291666666685614,"midi":61,"time":196.01822916666666,"velocity":0.3937007874015748},{"duration":0.05598958333334281,"midi":74,"time":196.02994791666666,"velocity":0.3937007874015748},{"duration":0.05859375,"midi":83,"time":196.0859375,"velocity":0.3937007874015748},{"duration":0.05859375,"midi":37,"time":196.0859375,"velocity":0.3937007874015748},{"duration":0.05989583333334281,"midi":70,"time":196.09635416666666,"velocity":0.3937007874015748},{"duration":0.17578125,"midi":89,"time":196.09635416666666,"velocity":0.3937007874015748},{"duration":0.29296875,"midi":74,"time":196.11979166666666,"velocity":0.3937007874015748},{"duration":0.05989583333334281,"midi":36,"time":196.13151041666666,"velocity":0.3937007874015748},{"duration":0.29296875,"midi":81,"time":196.16666666666666,"velocity":0.3937007874015748},{"duration":0.05989583333334281,"midi":64,"time":196.19010416666666,"velocity":0.3937007874015748},{"duration":0.05989583333334281,"midi":77,"time":196.19010416666666,"velocity":0.3937007874015748},{"duration":0.1692708333333428,"midi":90,"time":196.20182291666666,"velocity":0.3937007874015748},{"duration":0.05989583333334281,"midi":84,"time":196.20182291666666,"velocity":0.3937007874015748},{"duration":0.05989583333334281,"midi":72,"time":196.20182291666666,"velocity":0.3937007874015748},{"duration":0.16796875,"midi":88,"time":196.21354166666666,"velocity":0.3937007874015748},{"duration":0.05859375,"midi":78,"time":196.21354166666666,"velocity":0.3937007874015748},{"duration":0.05859375,"midi":84,"time":196.21354166666666,"velocity":0.3937007874015748},{"duration":0.05859375,"midi":63,"time":196.21354166666666,"velocity":0.3937007874015748},{"duration":0.057291666666685614,"midi":57,"time":196.22526041666666,"velocity":0.3937007874015748},{"duration":0.05598958333334281,"midi":77,"time":196.23828125,"velocity":0.3937007874015748},{"duration":0.0546875,"midi":36,"time":196.25,"velocity":0.3937007874015748},{"duration":0.0546875,"midi":67,"time":196.26041666666666,"velocity":0.3937007874015748},{"duration":0.13151041666668561,"midi":62,"time":196.26041666666666,"velocity":0.3937007874015748},{"duration":0.0546875,"midi":65,"time":196.27083333333334,"velocity":0.3937007874015748},{"duration":0.0546875,"midi":76,"time":196.27083333333334,"velocity":0.3937007874015748},{"duration":0.0546875,"midi":57,"time":196.27083333333334,"velocity":0.3937007874015748},{"duration":0.4114583333333144,"midi":72,"time":196.27083333333334,"velocity":0.3937007874015748},{"duration":0.16796875,"midi":89,"time":196.28255208333334,"velocity":0.3937007874015748},{"duration":0.16796875,"midi":70,"time":196.28255208333334,"velocity":0.3937007874015748},{"duration":0.05598958333334281,"midi":67,"time":196.29296875,"velocity":0.3937007874015748},{"duration":0.05598958333334281,"midi":77,"time":196.30338541666666,"velocity":0.3937007874015748},{"duration":0.05598958333334281,"midi":64,"time":196.30338541666666,"velocity":0.3937007874015748},{"duration":0.05598958333334281,"midi":36,"time":196.31510416666666,"velocity":0.3937007874015748},{"duration":0.055989583333314386,"midi":76,"time":196.32552083333334,"velocity":0.3937007874015748},{"duration":0.09114583333334281,"midi":62,"time":196.3359375,"velocity":0.3937007874015748},{"duration":0.171875,"midi":90,"time":196.3359375,"velocity":0.3937007874015748},{"duration":0.05598958333334281,"midi":56,"time":196.3359375,"velocity":0.3937007874015748},{"duration":0.05598958333334281,"midi":65,"time":196.359375,"velocity":0.3937007874015748},{"duration":0.057291666666685614,"midi":35,"time":196.36979166666666,"velocity":0.3937007874015748},{"duration":0.28515625,"midi":76,"time":196.39192708333334,"velocity":0.3937007874015748},{"duration":0.1744791666666572,"midi":67,"time":196.39192708333334,"velocity":0.3937007874015748},{"duration":0.1744791666666572,"midi":60,"time":196.39192708333334,"velocity":0.3937007874015748},{"duration":0.1744791666666572,"midi":48,"time":196.40234375,"velocity":0.3937007874015748},{"duration":0.05989583333334281,"midi":74,"time":196.40234375,"velocity":0.3937007874015748},{"duration":0.1744791666666572,"midi":70,"time":196.40234375,"velocity":0.3937007874015748},{"duration":0.05859375,"midi":55,"time":196.4140625,"velocity":0.3937007874015748},{"duration":0.05859375,"midi":89,"time":196.4140625,"velocity":0.3937007874015748},{"duration":0.05859375,"midi":80,"time":196.42708333333334,"velocity":0.3937007874015748},{"duration":0.05859375,"midi":85,"time":196.42708333333334,"velocity":0.3937007874015748},{"duration":0.171875,"midi":86,"time":196.46223958333334,"velocity":0.3937007874015748},{"duration":0.171875,"midi":81,"time":196.46223958333334,"velocity":0.3937007874015748},{"duration":0.05859375,"midi":61,"time":196.46223958333334,"velocity":0.3937007874015748},{"duration":0.05989583333334281,"midi":90,"time":196.47265625,"velocity":0.3937007874015748},{"duration":0.171875,"midi":74,"time":196.47265625,"velocity":0.3937007874015748},{"duration":0.05989583333334281,"midi":77,"time":196.49479166666666,"velocity":0.3937007874015748},{"duration":0.05859375,"midi":59,"time":196.5078125,"velocity":0.3937007874015748},{"duration":0.05729166666665719,"midi":47,"time":196.51953125,"velocity":0.3937007874015748},{"duration":0.05729166666665719,"midi":89,"time":196.5546875,"velocity":0.3937007874015748},{"duration":0.057291666666685614,"midi":77,"time":196.56510416666666,"velocity":0.3937007874015748},{"duration":0.057291666666685614,"midi":69,"time":196.57682291666666,"velocity":0.3937007874015748},{"duration":0.17057291666668561,"midi":81,"time":196.57682291666666,"velocity":0.3937007874015748},{"duration":0.05729166666665719,"midi":82,"time":196.58723958333334,"velocity":0.3937007874015748},{"duration":0.05729166666665719,"midi":60,"time":196.58723958333334,"velocity":0.3937007874015748},{"duration":0.055989583333314386,"midi":63,"time":196.59895833333334,"velocity":0.3937007874015748},{"duration":0.055989583333314386,"midi":37,"time":196.59895833333334,"velocity":0.3937007874015748},{"duration":0.0546875,"midi":79,"time":196.61197916666666,"velocity":0.3937007874015748},{"duration":0.2955729166666572,"midi":86,"time":196.62239583333334,"velocity":0.3937007874015748},{"duration":0.1705729166666572,"midi":70,"time":196.62239583333334,"velocity":0.3937007874015748},{"duration":0.0546875,"midi":47,"time":196.62239583333334,"velocity":0.3937007874015748},{"duration":0.06380208333331439,"midi":76,"time":196.62239583333334,"velocity":0.3937007874015748},{"duration":0.171875,"midi":58,"time":196.6328125,"velocity":0.3937007874015748},{"duration":0.171875,"midi":74,"time":196.6328125,"velocity":0.3937007874015748},{"duration":0.66796875,"midi":53,"time":196.6328125,"velocity":0.3937007874015748},{"duration":0.296875,"midi":77,"time":196.64322916666666,"velocity":0.3937007874015748},{"duration":0.057291666666685614,"midi":62,"time":196.64322916666666,"velocity":0.3937007874015748},{"duration":0.7916666666666856,"midi":46,"time":196.64322916666666,"velocity":0.3937007874015748},{"duration":0.1614583333333428,"midi":68,"time":196.64322916666666,"velocity":0.3937007874015748},{"duration":0.05859375,"midi":34,"time":196.65494791666666,"velocity":0.3937007874015748},{"duration":0.1744791666666572,"midi":84,"time":196.66536458333334,"velocity":0.3937007874015748},{"duration":0.05989583333334281,"midi":62,"time":196.67578125,"velocity":0.3937007874015748},{"duration":0.05859375,"midi":33,"time":196.70052083333334,"velocity":0.3937007874015748},{"duration":0.05859375,"midi":34,"time":196.72395833333334,"velocity":0.3937007874015748},{"duration":0.06901041666665719,"midi":68,"time":196.74609375,"velocity":0.3937007874015748},{"duration":0.1744791666666572,"midi":74,"time":196.78125,"velocity":0.3937007874015748},{"duration":0.05859375,"midi":81,"time":196.78125,"velocity":0.3937007874015748},{"duration":0.05859375,"midi":85,"time":196.79166666666666,"velocity":0.3937007874015748},{"duration":0.05859375,"midi":68,"time":196.8046875,"velocity":0.3937007874015748},{"duration":0.05859375,"midi":70,"time":196.8046875,"velocity":0.3937007874015748},{"duration":0.05859375,"midi":64,"time":196.81510416666666,"velocity":0.3937007874015748},{"duration":0.17578125,"midi":34,"time":196.82682291666666,"velocity":0.3937007874015748},{"duration":0.1744791666666572,"midi":81,"time":196.83984375,"velocity":0.3937007874015748},{"duration":0.17447916666668561,"midi":84,"time":196.85026041666666,"velocity":0.3937007874015748},{"duration":0.17447916666668561,"midi":62,"time":196.85026041666666,"velocity":0.3937007874015748},{"duration":0.059895833333314386,"midi":68,"time":196.87239583333334,"velocity":0.3937007874015748},{"duration":0.5455729166666572,"midi":93,"time":196.90755208333334,"velocity":0.3937007874015748},{"duration":0.171875,"midi":34,"time":196.92057291666666,"velocity":0.3937007874015748},{"duration":0.05989583333334281,"midi":68,"time":196.93229166666666,"velocity":0.3937007874015748},{"duration":0.05989583333334281,"midi":90,"time":196.93229166666666,"velocity":0.3937007874015748},{"duration":0.059895833333314386,"midi":63,"time":196.94270833333334,"velocity":0.3937007874015748},{"duration":0.05859375,"midi":69,"time":196.95572916666666,"velocity":0.3937007874015748},{"duration":0.05859375,"midi":82,"time":196.95572916666666,"velocity":0.3937007874015748},{"duration":0.057291666666685614,"midi":94,"time":196.96744791666666,"velocity":0.3937007874015748},{"duration":0.17057291666668561,"midi":75,"time":196.96744791666666,"velocity":0.3937007874015748},{"duration":0.057291666666685614,"midi":89,"time":196.96744791666666,"velocity":0.3937007874015748},{"duration":0.17057291666668561,"midi":89,"time":196.96744791666666,"velocity":0.3937007874015748},{"duration":0.05598958333334281,"midi":91,"time":196.97916666666666,"velocity":0.3937007874015748},{"duration":0.0546875,"midi":81,"time":196.99088541666666,"velocity":0.3937007874015748},{"duration":0.1692708333333428,"midi":79,"time":196.99088541666666,"velocity":0.3937007874015748},{"duration":0.17057291666668561,"midi":88,"time":197.00260416666666,"velocity":0.3937007874015748},{"duration":0.055989583333314386,"midi":62,"time":197.01302083333334,"velocity":0.3937007874015748},{"duration":0.171875,"midi":82,"time":197.01302083333334,"velocity":0.3937007874015748},{"duration":0.421875,"midi":34,"time":197.03515625,"velocity":0.3937007874015748},{"duration":0.05859375,"midi":62,"time":197.04557291666666,"velocity":0.3937007874015748},{"duration":0.059895833333314386,"midi":80,"time":197.05598958333334,"velocity":0.3937007874015748},{"duration":0.059895833333314386,"midi":86,"time":197.05598958333334,"velocity":0.3937007874015748},{"duration":0.1731770833333428,"midi":79,"time":197.06901041666666,"velocity":0.3937007874015748},{"duration":0.05859375,"midi":84,"time":197.06901041666666,"velocity":0.3937007874015748},{"duration":0.1744791666666572,"midi":81,"time":197.07942708333334,"velocity":0.3937007874015748},{"duration":0.05859375,"midi":76,"time":197.09114583333334,"velocity":0.3937007874015748},{"duration":0.05859375,"midi":83,"time":197.09114583333334,"velocity":0.3937007874015748},{"duration":0.1744791666666572,"midi":84,"time":197.12630208333334,"velocity":0.3937007874015748},{"duration":0.05859375,"midi":68,"time":197.12630208333334,"velocity":0.3937007874015748},{"duration":0.05859375,"midi":64,"time":197.12630208333334,"velocity":0.3937007874015748},{"duration":0.4244791666666572,"midi":77,"time":197.13671875,"velocity":0.3937007874015748},{"duration":0.17317708333331439,"midi":75,"time":197.14973958333334,"velocity":0.3937007874015748},{"duration":0.05859375,"midi":65,"time":197.14973958333334,"velocity":0.3937007874015748},{"duration":0.05989583333334281,"midi":69,"time":197.16015625,"velocity":0.3937007874015748},{"duration":0.05859375,"midi":87,"time":197.171875,"velocity":0.3937007874015748},{"duration":0.1393229166666572,"midi":65,"time":197.23046875,"velocity":0.3937007874015748},{"duration":0.1731770833333428,"midi":69,"time":197.23046875,"velocity":0.3937007874015748},{"duration":0.05989583333334281,"midi":74,"time":197.24088541666666,"velocity":0.3937007874015748},{"duration":0.05859375,"midi":53,"time":197.25260416666666,"velocity":0.3937007874015748},{"duration":0.05729166666665719,"midi":87,"time":197.265625,"velocity":0.3937007874015748},{"duration":0.1731770833333428,"midi":75,"time":197.27734375,"velocity":0.3937007874015748},{"duration":0.09244791666668561,"midi":65,"time":197.31119791666666,"velocity":0.3937007874015748},{"duration":0.059895833333314386,"midi":86,"time":197.33333333333334,"velocity":0.3937007874015748},{"duration":0.05859375,"midi":88,"time":197.34505208333334,"velocity":0.3937007874015748},{"duration":0.05859375,"midi":66,"time":197.34505208333334,"velocity":0.3937007874015748},{"duration":0.17578125,"midi":87,"time":197.35677083333334,"velocity":0.3937007874015748},{"duration":0.296875,"midi":84,"time":197.35677083333334,"velocity":0.3937007874015748},{"duration":0.05859375,"midi":90,"time":197.35677083333334,"velocity":0.3937007874015748},{"duration":0.05859375,"midi":85,"time":197.35677083333334,"velocity":0.3937007874015748},{"duration":0.05859375,"midi":90,"time":197.35677083333334,"velocity":0.3937007874015748},{"duration":0.296875,"midi":91,"time":197.36848958333334,"velocity":0.3937007874015748},{"duration":0.05859375,"midi":50,"time":197.36848958333334,"velocity":0.3937007874015748},{"duration":0.05859375,"midi":60,"time":197.36848958333334,"velocity":0.3937007874015748},{"duration":0.17578125,"midi":74,"time":197.38020833333334,"velocity":0.3937007874015748},{"duration":0.2447916666666572,"midi":89,"time":197.38020833333334,"velocity":0.3937007874015748},{"duration":0.296875,"midi":65,"time":197.39192708333334,"velocity":0.3937007874015748},{"duration":0.05859375,"midi":58,"time":197.39192708333334,"velocity":0.3937007874015748},{"duration":0.17578125,"midi":69,"time":197.39192708333334,"velocity":0.3937007874015748},{"duration":0.05989583333334281,"midi":49,"time":197.40234375,"velocity":0.3937007874015748},{"duration":0.05989583333334281,"midi":32,"time":197.40234375,"velocity":0.3937007874015748},{"duration":0.05989583333334281,"midi":88,"time":197.4375,"velocity":0.3937007874015748},{"duration":0.1744791666666572,"midi":85,"time":197.45052083333334,"velocity":0.3937007874015748},{"duration":0.1731770833333428,"midi":58,"time":197.47265625,"velocity":0.3937007874015748},{"duration":0.05989583333334281,"midi":87,"time":197.47265625,"velocity":0.3937007874015748},{"duration":0.05989583333334281,"midi":50,"time":197.47265625,"velocity":0.3937007874015748},{"duration":0.171875,"midi":93,"time":197.484375,"velocity":0.3937007874015748},{"duration":0.1731770833333428,"midi":86,"time":197.5078125,"velocity":0.3937007874015748},{"duration":0.05989583333334281,"midi":75,"time":197.51953125,"velocity":0.3937007874015748},{"duration":0.1705729166666572,"midi":95,"time":197.53255208333334,"velocity":0.3937007874015748},{"duration":0.1705729166666572,"midi":88,"time":197.53255208333334,"velocity":0.3937007874015748},{"duration":0.09244791666665719,"midi":90,"time":197.53255208333334,"velocity":0.3937007874015748},{"duration":0.05859375,"midi":76,"time":197.53255208333334,"velocity":0.3937007874015748},{"duration":0.05859375,"midi":45,"time":197.5546875,"velocity":0.3937007874015748},{"duration":0.05859375,"midi":80,"time":197.5546875,"velocity":0.3937007874015748},{"duration":0.05859375,"midi":82,"time":197.5546875,"velocity":0.3937007874015748},{"duration":0.14583333333331439,"midi":68,"time":197.56770833333334,"velocity":0.3937007874015748},{"duration":0.23177083333331439,"midi":89,"time":197.56770833333334,"velocity":0.3937007874015748},{"duration":0.1354166666666572,"midi":90,"time":197.56770833333334,"velocity":0.3937007874015748},{"duration":0.055989583333314386,"midi":85,"time":197.57942708333334,"velocity":0.3937007874015748},{"duration":0.055989583333314386,"midi":46,"time":197.57942708333334,"velocity":0.3937007874015748},{"duration":0.2916666666666572,"midi":84,"time":197.57942708333334,"velocity":0.3937007874015748},{"duration":0.05598958333334281,"midi":64,"time":197.58984375,"velocity":0.3937007874015748},{"duration":0.1692708333333428,"midi":83,"time":197.6015625,"velocity":0.3937007874015748},{"duration":0.16796875,"midi":86,"time":197.61328125,"velocity":0.3937007874015748},{"duration":0.057291666666685614,"midi":67,"time":197.62369791666666,"velocity":0.3937007874015748},{"duration":0.057291666666685614,"midi":45,"time":197.62369791666666,"velocity":0.3937007874015748},{"duration":0.05729166666665719,"midi":92,"time":197.63411458333334,"velocity":0.3937007874015748},{"duration":0.05729166666665719,"midi":65,"time":197.63411458333334,"velocity":0.3937007874015748},{"duration":0.05729166666665719,"midi":76,"time":197.64583333333334,"velocity":0.3937007874015748},{"duration":0.296875,"midi":74,"time":197.64583333333334,"velocity":0.3937007874015748},{"duration":0.08072916666665719,"midi":68,"time":197.65625,"velocity":0.3937007874015748},{"duration":0.05729166666665719,"midi":62,"time":197.69140625,"velocity":0.3937007874015748},{"duration":0.057291666666685614,"midi":65,"time":197.70182291666666,"velocity":0.3937007874015748},{"duration":0.057291666666685614,"midi":50,"time":197.70182291666666,"velocity":0.3937007874015748},{"duration":0.057291666666685614,"midi":91,"time":197.71354166666666,"velocity":0.3937007874015748},{"duration":0.1744791666666572,"midi":89,"time":197.72395833333334,"velocity":0.3937007874015748},{"duration":0.1744791666666572,"midi":69,"time":197.72395833333334,"velocity":0.3937007874015748},{"duration":0.05729166666665719,"midi":77,"time":197.74739583333334,"velocity":0.3937007874015748},{"duration":0.05729166666665719,"midi":93,"time":197.74739583333334,"velocity":0.3937007874015748},{"duration":0.2981770833333144,"midi":95,"time":197.75911458333334,"velocity":0.3937007874015748},{"duration":0.17578125,"midi":86,"time":197.76953125,"velocity":0.3937007874015748},{"duration":0.05859375,"midi":50,"time":197.76953125,"velocity":0.3937007874015748},{"duration":0.05859375,"midi":64,"time":197.76953125,"velocity":0.3937007874015748},{"duration":0.17578125,"midi":90,"time":197.76953125,"velocity":0.3937007874015748},{"duration":0.05859375,"midi":65,"time":197.79296875,"velocity":0.3937007874015748},{"duration":0.17578125,"midi":67,"time":197.79296875,"velocity":0.3937007874015748},{"duration":0.17578125,"midi":88,"time":197.79296875,"velocity":0.3937007874015748},{"duration":0.1744791666666572,"midi":93,"time":197.828125,"velocity":0.3937007874015748},{"duration":0.05989583333334281,"midi":76,"time":197.83854166666666,"velocity":0.3937007874015748},{"duration":0.17447916666668561,"midi":64,"time":197.85026041666666,"velocity":0.3937007874015748},{"duration":0.05989583333334281,"midi":85,"time":197.85026041666666,"velocity":0.3937007874015748},{"duration":0.17447916666668561,"midi":81,"time":197.87369791666666,"velocity":0.3937007874015748},{"duration":0.05989583333334281,"midi":86,"time":197.88541666666666,"velocity":0.3937007874015748},{"duration":0.05989583333334281,"midi":58,"time":197.92057291666666,"velocity":0.3937007874015748},{"duration":0.05859375,"midi":84,"time":197.93229166666666,"velocity":0.3937007874015748},{"duration":0.1731770833333428,"midi":63,"time":197.93229166666666,"velocity":0.3937007874015748},{"duration":0.05729166666665719,"midi":45,"time":197.9453125,"velocity":0.3937007874015748},{"duration":0.1731770833333428,"midi":53,"time":197.95572916666666,"velocity":0.3937007874015748},{"duration":0.171875,"midi":77,"time":197.96744791666666,"velocity":0.3937007874015748},{"duration":0.17057291666668561,"midi":46,"time":197.99088541666666,"velocity":0.3937007874015748},{"duration":0.05859375,"midi":69,"time":198.00130208333334,"velocity":0.3937007874015748},{"duration":0.05859375,"midi":34,"time":198.00130208333334,"velocity":0.3937007874015748},{"duration":0.05859375,"midi":93,"time":198.01171875,"velocity":0.3937007874015748},{"duration":0.05859375,"midi":95,"time":198.046875,"velocity":0.3937007874015748},{"duration":0.4205729166666572,"midi":74,"time":198.05989583333334,"velocity":0.3937007874015748},{"duration":0.05859375,"midi":34,"time":198.0703125,"velocity":0.3937007874015748},{"duration":0.171875,"midi":81,"time":198.08072916666666,"velocity":0.3937007874015748},{"duration":0.05859375,"midi":64,"time":198.08072916666666,"velocity":0.3937007874015748},{"duration":0.05729166666665719,"midi":93,"time":198.09375,"velocity":0.3937007874015748},{"duration":0.05729166666665719,"midi":69,"time":198.09375,"velocity":0.3937007874015748},{"duration":0.057291666666685614,"midi":65,"time":198.12760416666666,"velocity":0.3937007874015748},{"duration":0.057291666666685614,"midi":48,"time":198.12760416666666,"velocity":0.3937007874015748},{"duration":0.171875,"midi":88,"time":198.14973958333334,"velocity":0.3937007874015748},{"duration":0.05859375,"midi":62,"time":198.14973958333334,"velocity":0.3937007874015748},{"duration":0.171875,"midi":58,"time":198.14973958333334,"velocity":0.3937007874015748},{"duration":0.05859375,"midi":89,"time":198.14973958333334,"velocity":0.3937007874015748},{"duration":0.05989583333334281,"midi":89,"time":198.16015625,"velocity":0.3937007874015748},{"duration":0.05989583333334281,"midi":94,"time":198.16015625,"velocity":0.3937007874015748},{"duration":0.1731770833333428,"midi":84,"time":198.16015625,"velocity":0.3937007874015748},{"duration":0.05989583333334281,"midi":37,"time":198.16015625,"velocity":0.3937007874015748},{"duration":0.05859375,"midi":69,"time":198.17317708333334,"velocity":0.3937007874015748},{"duration":0.05859375,"midi":63,"time":198.17317708333334,"velocity":0.3937007874015748},{"duration":0.17317708333331439,"midi":86,"time":198.17317708333334,"velocity":0.3937007874015748},{"duration":0.7955729166666572,"midi":53,"time":198.17317708333334,"velocity":0.3937007874015748},{"duration":0.05729166666665719,"midi":66,"time":198.18489583333334,"velocity":0.3937007874015748},{"duration":0.05729166666665719,"midi":32,"time":198.18489583333334,"velocity":0.3937007874015748},{"duration":0.1731770833333428,"midi":95,"time":198.1953125,"velocity":0.3937007874015748},{"duration":0.79296875,"midi":46,"time":198.20833333333334,"velocity":0.3937007874015748},{"duration":0.17317708333331439,"midi":93,"time":198.20833333333334,"velocity":0.3937007874015748},{"duration":0.1731770833333428,"midi":34,"time":198.23046875,"velocity":0.3937007874015748},{"duration":0.05859375,"midi":66,"time":198.23046875,"velocity":0.3937007874015748},{"duration":0.05859375,"midi":94,"time":198.24088541666666,"velocity":0.3937007874015748},{"duration":0.05859375,"midi":62,"time":198.24088541666666,"velocity":0.3937007874015748},{"duration":0.05859375,"midi":91,"time":198.25260416666666,"velocity":0.3937007874015748},{"duration":0.17447916666668561,"midi":69,"time":198.25260416666666,"velocity":0.3937007874015748},{"duration":0.17447916666668561,"midi":76,"time":198.26432291666666,"velocity":0.3937007874015748},{"duration":0.17447916666668561,"midi":64,"time":198.27604166666666,"velocity":0.3937007874015748},{"duration":0.17447916666668561,"midi":86,"time":198.27604166666666,"velocity":0.3937007874015748},{"duration":0.1744791666666572,"midi":88,"time":198.2890625,"velocity":0.3937007874015748},{"duration":0.05859375,"midi":67,"time":198.29947916666666,"velocity":0.3937007874015748},{"duration":0.17578125,"midi":92,"time":198.30989583333334,"velocity":0.3937007874015748},{"duration":0.17578125,"midi":88,"time":198.30989583333334,"velocity":0.3937007874015748},{"duration":0.17578125,"midi":67,"time":198.33333333333334,"velocity":0.3937007874015748},{"duration":0.17578125,"midi":34,"time":198.34505208333334,"velocity":0.3937007874015748},{"duration":0.29296875,"midi":93,"time":198.34505208333334,"velocity":0.3937007874015748},{"duration":0.05859375,"midi":83,"time":198.35677083333334,"velocity":0.3937007874015748},{"duration":0.059895833333314386,"midi":62,"time":198.41536458333334,"velocity":0.3937007874015748},{"duration":0.05989583333334281,"midi":66,"time":198.42578125,"velocity":0.3937007874015748},{"duration":0.17708333333331439,"midi":65,"time":198.45052083333334,"velocity":0.3937007874015748},{"duration":0.17708333333331439,"midi":81,"time":198.45052083333334,"velocity":0.3937007874015748},{"duration":0.17578125,"midi":69,"time":198.46223958333334,"velocity":0.3937007874015748},{"duration":0.17578125,"midi":89,"time":198.46223958333334,"velocity":0.3937007874015748},{"duration":0.1744791666666572,"midi":34,"time":198.47395833333334,"velocity":0.3937007874015748},{"duration":0.1744791666666572,"midi":76,"time":198.5078125,"velocity":0.3937007874015748},{"duration":0.1744791666666572,"midi":74,"time":198.5078125,"velocity":0.3937007874015748},{"duration":0.059895833333314386,"midi":59,"time":198.53255208333334,"velocity":0.3937007874015748},{"duration":0.059895833333314386,"midi":63,"time":198.53255208333334,"velocity":0.3937007874015748},{"duration":0.1744791666666572,"midi":69,"time":198.55598958333334,"velocity":0.3937007874015748},{"duration":0.1744791666666572,"midi":77,"time":198.55598958333334,"velocity":0.3937007874015748},{"duration":0.059895833333314386,"midi":62,"time":198.56770833333334,"velocity":0.3937007874015748},{"duration":0.059895833333314386,"midi":84,"time":198.56770833333334,"velocity":0.3937007874015748},{"duration":0.05859375,"midi":90,"time":198.57942708333334,"velocity":0.3937007874015748},{"duration":0.06640625,"midi":93,"time":198.57942708333334,"velocity":0.3937007874015748},{"duration":0.05859375,"midi":63,"time":198.60286458333334,"velocity":0.3937007874015748},{"duration":0.05729166666665719,"midi":60,"time":198.61458333333334,"velocity":0.3937007874015748},{"duration":0.055989583333314386,"midi":34,"time":198.62630208333334,"velocity":0.3937007874015748},{"duration":0.1731770833333428,"midi":34,"time":198.671875,"velocity":0.3937007874015748},{"duration":0.05989583333334281,"midi":63,"time":198.68229166666666,"velocity":0.3937007874015748},{"duration":0.05989583333334281,"midi":77,"time":198.71744791666666,"velocity":0.3937007874015748},{"duration":0.05859375,"midi":86,"time":198.74088541666666,"velocity":0.3937007874015748},{"duration":0.05859375,"midi":66,"time":198.74088541666666,"velocity":0.3937007874015748},{"duration":0.05859375,"midi":63,"time":198.74088541666666,"velocity":0.3937007874015748},{"duration":0.29296875,"midi":93,"time":198.74088541666666,"velocity":0.3937007874015748},{"duration":0.05859375,"midi":33,"time":198.75260416666666,"velocity":0.3937007874015748},{"duration":0.05859375,"midi":89,"time":198.75260416666666,"velocity":0.3937007874015748},{"duration":0.1731770833333428,"midi":84,"time":198.75260416666666,"velocity":0.3937007874015748},{"duration":0.171875,"midi":73,"time":198.76432291666666,"velocity":0.3937007874015748},{"duration":0.171875,"midi":94,"time":198.77604166666666,"velocity":0.3937007874015748},{"duration":0.057291666666685614,"midi":85,"time":198.77604166666666,"velocity":0.3937007874015748},{"duration":0.1731770833333428,"midi":34,"time":198.78776041666666,"velocity":0.3937007874015748},{"duration":0.4127604166666856,"midi":77,"time":198.78776041666666,"velocity":0.3937007874015748},{"duration":0.057291666666685614,"midi":63,"time":198.79947916666666,"velocity":0.3937007874015748},{"duration":0.171875,"midi":69,"time":198.79947916666666,"velocity":0.3937007874015748},{"duration":0.057291666666685614,"midi":88,"time":198.79947916666666,"velocity":0.3937007874015748},{"duration":0.05729166666665719,"midi":90,"time":198.80989583333334,"velocity":0.3937007874015748},{"duration":0.05729166666665719,"midi":62,"time":198.82161458333334,"velocity":0.3937007874015748},{"duration":0.1705729166666572,"midi":74,"time":198.83333333333334,"velocity":0.3937007874015748},{"duration":0.05859375,"midi":62,"time":198.8671875,"velocity":0.3937007874015748},{"duration":0.17057291666668561,"midi":84,"time":198.87760416666666,"velocity":0.3937007874015748},{"duration":0.05989583333334281,"midi":89,"time":198.90104166666666,"velocity":0.3937007874015748},{"duration":0.05859375,"midi":91,"time":198.91276041666666,"velocity":0.3937007874015748},{"duration":0.05859375,"midi":88,"time":198.91276041666666,"velocity":0.3937007874015748},{"duration":0.05859375,"midi":82,"time":198.91276041666666,"velocity":0.3937007874015748},{"duration":0.05859375,"midi":75,"time":198.91276041666666,"velocity":0.3937007874015748},{"duration":0.057291666666685614,"midi":60,"time":198.92447916666666,"velocity":0.3937007874015748},{"duration":0.057291666666685614,"midi":51,"time":198.92447916666666,"velocity":0.3937007874015748},{"duration":0.057291666666685614,"midi":90,"time":198.93619791666666,"velocity":0.3937007874015748},{"duration":0.057291666666685614,"midi":90,"time":198.93619791666666,"velocity":0.3937007874015748},{"duration":0.16666666666668561,"midi":93,"time":198.94791666666666,"velocity":0.3937007874015748},{"duration":0.05598958333334281,"midi":67,"time":198.94791666666666,"velocity":0.3937007874015748},{"duration":0.05598958333334281,"midi":42,"time":198.94791666666666,"velocity":0.3937007874015748},{"duration":0.05598958333334281,"midi":74,"time":198.94791666666666,"velocity":0.3937007874015748},{"duration":0.0546875,"midi":66,"time":198.95963541666666,"velocity":0.3937007874015748},{"duration":0.055989583333314386,"midi":95,"time":198.97005208333334,"velocity":0.3937007874015748},{"duration":0.055989583333314386,"midi":62,"time":198.98177083333334,"velocity":0.3937007874015748},{"duration":0.055989583333314386,"midi":53,"time":198.98177083333334,"velocity":0.3937007874015748},{"duration":0.05598958333334281,"midi":41,"time":198.9921875,"velocity":0.3937007874015748},{"duration":0.05598958333334281,"midi":73,"time":198.9921875,"velocity":0.3937007874015748},{"duration":0.05598958333334281,"midi":81,"time":199.00260416666666,"velocity":0.3937007874015748},{"duration":0.2903645833333428,"midi":86,"time":199.01432291666666,"velocity":0.3937007874015748},{"duration":0.05598958333334281,"midi":61,"time":199.01432291666666,"velocity":0.3937007874015748},{"duration":0.5416666666666856,"midi":65,"time":199.01432291666666,"velocity":0.3937007874015748},{"duration":0.055989583333314386,"midi":75,"time":199.03645833333334,"velocity":0.3937007874015748},{"duration":0.055989583333314386,"midi":82,"time":199.03645833333334,"velocity":0.3937007874015748},{"duration":0.055989583333314386,"midi":69,"time":199.04817708333334,"velocity":0.3937007874015748},{"duration":0.05598958333334281,"midi":81,"time":199.05859375,"velocity":0.3937007874015748},{"duration":0.05598958333334281,"midi":47,"time":199.06901041666666,"velocity":0.3937007874015748},{"duration":0.05598958333334281,"midi":36,"time":199.06901041666666,"velocity":0.3937007874015748},{"duration":0.05598958333334281,"midi":61,"time":199.08072916666666,"velocity":0.3937007874015748},{"duration":0.05598958333334281,"midi":45,"time":199.09244791666666,"velocity":0.3937007874015748},{"duration":0.05729166666665719,"midi":74,"time":199.10286458333334,"velocity":0.3937007874015748},{"duration":0.05729166666665719,"midi":60,"time":199.10286458333334,"velocity":0.3937007874015748},{"duration":0.171875,"midi":84,"time":199.11328125,"velocity":0.3937007874015748},{"duration":0.171875,"midi":93,"time":199.125,"velocity":0.3937007874015748},{"duration":0.05989583333334281,"midi":60,"time":199.13541666666666,"velocity":0.3937007874015748},{"duration":0.05859375,"midi":61,"time":199.17057291666666,"velocity":0.3937007874015748},{"duration":0.171875,"midi":81,"time":199.17057291666666,"velocity":0.3937007874015748},{"duration":0.057291666666685614,"midi":44,"time":199.18229166666666,"velocity":0.3937007874015748},{"duration":0.05859375,"midi":35,"time":199.21614583333334,"velocity":0.3937007874015748},{"duration":0.171875,"midi":74,"time":199.22786458333334,"velocity":0.3937007874015748},{"duration":0.05729166666665719,"midi":45,"time":199.22786458333334,"velocity":0.3937007874015748},{"duration":0.05729166666665719,"midi":53,"time":199.23958333333334,"velocity":0.3937007874015748},{"duration":0.05729166666665719,"midi":34,"time":199.25,"velocity":0.3937007874015748},{"duration":0.1510416666666572,"midi":62,"time":199.26171875,"velocity":0.3937007874015748},{"duration":0.05989583333334281,"midi":45,"time":199.30729166666666,"velocity":0.3937007874015748},{"duration":0.05989583333334281,"midi":93,"time":199.30729166666666,"velocity":0.3937007874015748},{"duration":0.1783854166666572,"midi":57,"time":199.31770833333334,"velocity":0.3937007874015748},{"duration":0.059895833333314386,"midi":84,"time":199.31770833333334,"velocity":0.3937007874015748},{"duration":0.059895833333314386,"midi":46,"time":199.32942708333334,"velocity":0.3937007874015748},{"duration":0.059895833333314386,"midi":35,"time":199.32942708333334,"velocity":0.3937007874015748},{"duration":0.05859375,"midi":81,"time":199.34114583333334,"velocity":0.3937007874015748},{"duration":0.08072916666668561,"midi":62,"time":199.35416666666666,"velocity":0.3937007874015748},{"duration":0.17578125,"midi":93,"time":199.37630208333334,"velocity":0.3937007874015748},{"duration":0.4231770833333144,"midi":69,"time":199.43489583333334,"velocity":0.3937007874015748},{"duration":0.06119791666665719,"midi":58,"time":199.44661458333334,"velocity":0.3937007874015748},{"duration":0.059895833333314386,"midi":74,"time":199.45833333333334,"velocity":0.3937007874015748},{"duration":0.05859375,"midi":80,"time":199.47135416666666,"velocity":0.3937007874015748},{"duration":0.17578125,"midi":90,"time":199.48307291666666,"velocity":0.3937007874015748},{"duration":0.17578125,"midi":86,"time":199.48307291666666,"velocity":0.3937007874015748},{"duration":0.1744791666666572,"midi":53,"time":199.5078125,"velocity":0.3937007874015748},{"duration":0.1744791666666572,"midi":62,"time":199.5078125,"velocity":0.3937007874015748},{"duration":0.05729166666665719,"midi":58,"time":199.5078125,"velocity":0.3937007874015748},{"duration":0.1744791666666572,"midi":81,"time":199.5078125,"velocity":0.3937007874015748},{"duration":0.17578125,"midi":46,"time":199.51822916666666,"velocity":0.3937007874015748},{"duration":0.05859375,"midi":84,"time":199.51822916666666,"velocity":0.3937007874015748},{"duration":0.17708333333331439,"midi":88,"time":199.52864583333334,"velocity":0.3937007874015748},{"duration":0.059895833333314386,"midi":65,"time":199.52864583333334,"velocity":0.3937007874015748},{"duration":0.17708333333331439,"midi":34,"time":199.56380208333334,"velocity":0.3937007874015748},{"duration":0.059895833333314386,"midi":93,"time":199.59895833333334,"velocity":0.3937007874015748},{"duration":0.059895833333314386,"midi":89,"time":199.64583333333334,"velocity":0.3937007874015748},{"duration":0.059895833333314386,"midi":46,"time":199.64583333333334,"velocity":0.3937007874015748},{"duration":0.17317708333331439,"midi":90,"time":199.66927083333334,"velocity":0.3937007874015748},{"duration":0.171875,"midi":67,"time":199.68098958333334,"velocity":0.3937007874015748},{"duration":0.171875,"midi":83,"time":199.68098958333334,"velocity":0.3937007874015748},{"duration":0.17057291666668561,"midi":84,"time":199.69401041666666,"velocity":0.3937007874015748},{"duration":0.05989583333334281,"midi":72,"time":199.69401041666666,"velocity":0.3937007874015748},{"duration":0.05989583333334281,"midi":63,"time":199.69401041666666,"velocity":0.3937007874015748},{"duration":0.17057291666668561,"midi":77,"time":199.70572916666666,"velocity":0.3937007874015748},{"duration":0.05859375,"midi":41,"time":199.70572916666666,"velocity":0.3937007874015748},{"duration":0.05859375,"midi":37,"time":199.71614583333334,"velocity":0.3937007874015748},{"duration":0.05729166666665719,"midi":60,"time":199.72786458333334,"velocity":0.3937007874015748},{"duration":0.41796875,"midi":52,"time":199.72786458333334,"velocity":0.3937007874015748},{"duration":0.05598958333334281,"midi":63,"time":199.74088541666666,"velocity":0.3937007874015748},{"duration":0.78515625,"midi":45,"time":199.74088541666666,"velocity":0.3937007874015748},{"duration":0.08984375,"midi":88,"time":199.76302083333334,"velocity":0.3937007874015748},{"duration":0.05729166666665719,"midi":78,"time":199.77473958333334,"velocity":0.3937007874015748},{"duration":0.05729166666665719,"midi":75,"time":199.78515625,"velocity":0.3937007874015748},{"duration":0.05729166666665719,"midi":82,"time":199.78515625,"velocity":0.3937007874015748},{"duration":0.05729166666665719,"midi":91,"time":199.78515625,"velocity":0.3937007874015748},{"duration":0.057291666666685614,"midi":63,"time":199.79557291666666,"velocity":0.3937007874015748},{"duration":0.171875,"midi":86,"time":199.79557291666666,"velocity":0.3937007874015748},{"duration":0.3841145833333428,"midi":88,"time":199.79557291666666,"velocity":0.3937007874015748},{"duration":0.2955729166666856,"midi":92,"time":199.80729166666666,"velocity":0.3937007874015748},{"duration":0.057291666666685614,"midi":67,"time":199.81901041666666,"velocity":0.3937007874015748},{"duration":0.171875,"midi":76,"time":199.81901041666666,"velocity":0.3937007874015748},{"duration":0.4192708333333428,"midi":83,"time":199.81901041666666,"velocity":0.3937007874015748},{"duration":0.4192708333333428,"midi":69,"time":199.83072916666666,"velocity":0.3937007874015748},{"duration":0.05729166666665719,"midi":60,"time":199.84114583333334,"velocity":0.3937007874015748},{"duration":0.05729166666665719,"midi":89,"time":199.84114583333334,"velocity":0.3937007874015748},{"duration":0.17317708333331439,"midi":65,"time":199.85286458333334,"velocity":0.3937007874015748},{"duration":0.05729166666665719,"midi":93,"time":199.85286458333334,"velocity":0.3937007874015748},{"duration":0.17317708333331439,"midi":79,"time":199.85286458333334,"velocity":0.3937007874015748},{"duration":0.296875,"midi":90,"time":199.86328125,"velocity":0.3937007874015748},{"duration":0.6640625,"midi":72,"time":199.90885416666666,"velocity":0.3937007874015748},{"duration":0.05859375,"midi":62,"time":199.90885416666666,"velocity":0.3937007874015748},{"duration":0.2981770833333428,"midi":67,"time":199.92057291666666,"velocity":0.3937007874015748},{"duration":0.05859375,"midi":64,"time":199.93229166666666,"velocity":0.3937007874015748},{"duration":0.05859375,"midi":33,"time":199.93229166666666,"velocity":0.3937007874015748},{"duration":0.171875,"midi":86,"time":199.94401041666666,"velocity":0.3937007874015748},{"duration":0.05859375,"midi":62,"time":199.96744791666666,"velocity":0.3937007874015748},{"duration":0.05859375,"midi":93,"time":199.97786458333334,"velocity":0.3937007874015748},{"duration":0.2981770833333144,"midi":76,"time":199.97786458333334,"velocity":0.3937007874015748},{"duration":0.2981770833333144,"midi":79,"time":199.97786458333334,"velocity":0.3937007874015748},{"duration":0.05859375,"midi":33,"time":199.97786458333334,"velocity":0.3937007874015748},{"duration":0.05859375,"midi":61,"time":200.01302083333334,"velocity":0.3937007874015748},{"duration":0.17317708333331439,"midi":64,"time":200.02473958333334,"velocity":0.3937007874015748},{"duration":0.17317708333331439,"midi":60,"time":200.03645833333334,"velocity":0.3937007874015748},{"duration":0.05859375,"midi":33,"time":200.03645833333334,"velocity":0.3937007874015748},{"duration":0.05859375,"midi":93,"time":200.046875,"velocity":0.3937007874015748},{"duration":0.05859375,"midi":89,"time":200.08203125,"velocity":0.3937007874015748},{"duration":0.1744791666666572,"midi":84,"time":200.08203125,"velocity":0.3937007874015748},{"duration":0.41796875,"midi":52,"time":200.08203125,"velocity":0.3937007874015748},{"duration":0.05859375,"midi":92,"time":200.09375,"velocity":0.3937007874015748},{"duration":0.05859375,"midi":33,"time":200.10416666666666,"velocity":0.3937007874015748},{"duration":0.05859375,"midi":86,"time":200.10416666666666,"velocity":0.3937007874015748},{"duration":0.05859375,"midi":63,"time":200.10416666666666,"velocity":0.3937007874015748},{"duration":0.17447916666668561,"midi":92,"time":200.12760416666666,"velocity":0.3937007874015748},{"duration":0.05859375,"midi":33,"time":200.13932291666666,"velocity":0.3937007874015748},{"duration":0.05859375,"midi":61,"time":200.13932291666666,"velocity":0.3937007874015748},{"duration":0.05859375,"midi":66,"time":200.16276041666666,"velocity":0.3937007874015748},{"duration":0.17447916666668561,"midi":60,"time":200.16276041666666,"velocity":0.3937007874015748},{"duration":0.5390625,"midi":88,"time":200.17317708333334,"velocity":0.3937007874015748},{"duration":0.17447916666668561,"midi":83,"time":200.18619791666666,"velocity":0.3937007874015748},{"duration":0.05859375,"midi":65,"time":200.18619791666666,"velocity":0.3937007874015748},{"duration":0.05859375,"midi":33,"time":200.19791666666666,"velocity":0.3937007874015748},{"duration":0.059895833333314386,"midi":86,"time":200.23177083333334,"velocity":0.3937007874015748},{"duration":0.171875,"midi":94,"time":200.24348958333334,"velocity":0.3937007874015748},{"duration":0.171875,"midi":75,"time":200.24348958333334,"velocity":0.3937007874015748},{"duration":0.171875,"midi":89,"time":200.25520833333334,"velocity":0.3937007874015748},{"duration":0.05859375,"midi":79,"time":200.25520833333334,"velocity":0.3937007874015748},{"duration":0.11588541666665719,"midi":90,"time":200.25520833333334,"velocity":0.3937007874015748},{"duration":0.05859375,"midi":63,"time":200.25520833333334,"velocity":0.3937007874015748},{"duration":0.171875,"midi":84,"time":200.26692708333334,"velocity":0.3937007874015748},{"duration":0.16015625,"midi":82,"time":200.26692708333334,"velocity":0.3937007874015748},{"duration":0.1705729166666572,"midi":33,"time":200.29036458333334,"velocity":0.3937007874015748},{"duration":0.1705729166666572,"midi":76,"time":200.29036458333334,"velocity":0.3937007874015748},{"duration":0.05859375,"midi":66,"time":200.29036458333334,"velocity":0.3937007874015748},{"duration":0.05859375,"midi":63,"time":200.30208333333334,"velocity":0.3937007874015748},{"duration":0.11328125,"midi":90,"time":200.31380208333334,"velocity":0.3937007874015748},{"duration":0.05729166666665719,"midi":93,"time":200.31380208333334,"velocity":0.3937007874015748},{"duration":0.05729166666665719,"midi":62,"time":200.32421875,"velocity":0.3937007874015748},{"duration":0.05598958333334281,"midi":81,"time":200.3359375,"velocity":0.3937007874015748},{"duration":0.05598958333334281,"midi":86,"time":200.3359375,"velocity":0.3937007874015748},{"duration":0.057291666666685614,"midi":91,"time":200.36979166666666,"velocity":0.3937007874015748},{"duration":0.057291666666685614,"midi":87,"time":200.36979166666666,"velocity":0.3937007874015748},{"duration":0.06901041666668561,"midi":82,"time":200.36979166666666,"velocity":0.3937007874015748},{"duration":0.1692708333333428,"midi":85,"time":200.38151041666666,"velocity":0.3937007874015748},{"duration":0.057291666666685614,"midi":69,"time":200.38151041666666,"velocity":0.3937007874015748},{"duration":0.057291666666685614,"midi":86,"time":200.38151041666666,"velocity":0.3937007874015748},{"duration":0.05859375,"midi":81,"time":200.39192708333334,"velocity":0.3937007874015748},{"duration":0.05859375,"midi":33,"time":200.40234375,"velocity":0.3937007874015748},{"duration":0.05859375,"midi":92,"time":200.40234375,"velocity":0.3937007874015748},{"duration":0.29296875,"midi":83,"time":200.40234375,"velocity":0.3937007874015748},{"duration":0.05729166666665719,"midi":90,"time":200.41536458333334,"velocity":0.3937007874015748},{"duration":0.2916666666666572,"midi":90,"time":200.41536458333334,"velocity":0.3937007874015748},{"duration":0.05729166666665719,"midi":94,"time":200.41536458333334,"velocity":0.3937007874015748},{"duration":0.2916666666666572,"midi":79,"time":200.42708333333334,"velocity":0.3937007874015748},{"duration":0.2916666666666572,"midi":86,"time":200.42708333333334,"velocity":0.3937007874015748},{"duration":0.05729166666665719,"midi":81,"time":200.4375,"velocity":0.3937007874015748},{"duration":0.05729166666665719,"midi":32,"time":200.4609375,"velocity":0.3937007874015748},{"duration":0.057291666666685614,"midi":77,"time":200.47135416666666,"velocity":0.3937007874015748},{"duration":0.05729166666665719,"midi":71,"time":200.48177083333334,"velocity":0.3937007874015748},{"duration":0.05729166666665719,"midi":68,"time":200.48177083333334,"velocity":0.3937007874015748},{"duration":0.05729166666665719,"midi":51,"time":200.48177083333334,"velocity":0.3937007874015748},{"duration":0.17317708333331439,"midi":84,"time":200.48177083333334,"velocity":0.3937007874015748},{"duration":0.171875,"midi":81,"time":200.49479166666666,"velocity":0.3937007874015748},{"duration":0.2916666666666572,"midi":72,"time":200.50520833333334,"velocity":0.3937007874015748},{"duration":0.05729166666665719,"midi":92,"time":200.50520833333334,"velocity":0.3937007874015748},{"duration":0.1705729166666572,"midi":67,"time":200.51692708333334,"velocity":0.3937007874015748},{"duration":0.055989583333314386,"midi":49,"time":200.51692708333334,"velocity":0.3937007874015748},{"duration":0.1705729166666572,"midi":76,"time":200.52864583333334,"velocity":0.3937007874015748},{"duration":0.1705729166666572,"midi":45,"time":200.5390625,"velocity":0.3937007874015748},{"duration":0.1588541666666572,"midi":60,"time":200.5625,"velocity":0.3937007874015748},{"duration":0.1705729166666572,"midi":91,"time":200.5625,"velocity":0.3937007874015748},{"duration":0.05989583333334281,"midi":92,"time":200.57291666666666,"velocity":0.3937007874015748},{"duration":0.05989583333334281,"midi":63,"time":200.57291666666666,"velocity":0.3937007874015748},{"duration":0.171875,"midi":33,"time":200.58333333333334,"velocity":0.3937007874015748},{"duration":0.059895833333314386,"midi":82,"time":200.59505208333334,"velocity":0.3937007874015748},{"duration":0.1705729166666572,"midi":87,"time":200.59505208333334,"velocity":0.3937007874015748},{"duration":0.05859375,"midi":64,"time":200.60807291666666,"velocity":0.3937007874015748},{"duration":0.05859375,"midi":89,"time":200.60807291666666,"velocity":0.3937007874015748},{"duration":0.057291666666685614,"midi":75,"time":200.61979166666666,"velocity":0.3937007874015748},{"duration":0.05598958333334281,"midi":63,"time":200.63151041666666,"velocity":0.3937007874015748},{"duration":0.16796875,"midi":82,"time":200.63151041666666,"velocity":0.3937007874015748},{"duration":0.1692708333333428,"midi":85,"time":200.64322916666666,"velocity":0.3937007874015748},{"duration":0.05598958333334281,"midi":78,"time":200.64322916666666,"velocity":0.3937007874015748},{"duration":0.1341145833333428,"midi":83,"time":200.65494791666666,"velocity":0.3937007874015748},{"duration":0.06770833333331439,"midi":60,"time":200.66536458333334,"velocity":0.3937007874015748},{"duration":0.16796875,"midi":90,"time":200.66536458333334,"velocity":0.3937007874015748},{"duration":0.16927083333331439,"midi":88,"time":200.67708333333334,"velocity":0.3937007874015748},{"duration":0.055989583333314386,"midi":74,"time":200.67708333333334,"velocity":0.3937007874015748},{"duration":0.16927083333331439,"midi":90,"time":200.67708333333334,"velocity":0.3937007874015748},{"duration":0.055989583333314386,"midi":84,"time":200.67708333333334,"velocity":0.3937007874015748},{"duration":0.16927083333331439,"midi":93,"time":200.67708333333334,"velocity":0.3937007874015748},{"duration":0.4205729166666572,"midi":45,"time":200.6875,"velocity":0.3937007874015748},{"duration":0.1692708333333428,"midi":76,"time":200.6875,"velocity":0.3937007874015748},{"duration":0.1692708333333428,"midi":81,"time":200.6875,"velocity":0.3937007874015748},{"duration":0.057291666666685614,"midi":64,"time":200.69791666666666,"velocity":0.3937007874015748},{"duration":0.05729166666665719,"midi":77,"time":200.70833333333334,"velocity":0.3937007874015748},{"duration":0.17057291666668561,"midi":74,"time":200.72135416666666,"velocity":0.3937007874015748},{"duration":0.09114583333331439,"midi":83,"time":200.73177083333334,"velocity":0.3937007874015748},{"duration":0.05729166666665719,"midi":64,"time":200.73177083333334,"velocity":0.3937007874015748},{"duration":0.171875,"midi":72,"time":200.7421875,"velocity":0.3937007874015748},{"duration":0.05729166666665719,"midi":82,"time":200.75520833333334,"velocity":0.3937007874015748},{"duration":0.05729166666665719,"midi":92,"time":200.75520833333334,"velocity":0.3937007874015748},{"duration":0.05729166666665719,"midi":79,"time":200.75520833333334,"velocity":0.3937007874015748},{"duration":0.05729166666665719,"midi":84,"time":200.765625,"velocity":0.3937007874015748},{"duration":0.05729166666665719,"midi":82,"time":200.7890625,"velocity":0.3937007874015748},{"duration":0.2981770833333428,"midi":64,"time":200.7890625,"velocity":0.3937007874015748},{"duration":0.1731770833333428,"midi":83,"time":200.81119791666666,"velocity":0.3937007874015748},{"duration":0.2994791666666572,"midi":72,"time":200.82161458333334,"velocity":0.3937007874015748},{"duration":0.05859375,"midi":91,"time":200.83333333333334,"velocity":0.3937007874015748},{"duration":0.05859375,"midi":74,"time":200.84505208333334,"velocity":0.3937007874015748},{"duration":0.05859375,"midi":67,"time":200.85546875,"velocity":0.3937007874015748},{"duration":0.05989583333334281,"midi":91,"time":200.93619791666666,"velocity":0.3937007874015748},{"duration":0.05989583333334281,"midi":83,"time":200.94921875,"velocity":0.3937007874015748},{"duration":0.17578125,"midi":81,"time":200.94921875,"velocity":0.3937007874015748},{"duration":0.17578125,"midi":67,"time":200.9609375,"velocity":0.3937007874015748},{"duration":0.05989583333334281,"midi":74,"time":200.984375,"velocity":0.3937007874015748},{"duration":0.05989583333334281,"midi":58,"time":201.0546875,"velocity":0.3937007874015748},{"duration":0.05989583333334281,"midi":83,"time":201.0546875,"velocity":0.3937007874015748},{"duration":0.05989583333334281,"midi":60,"time":201.07682291666666,"velocity":0.3937007874015748},{"duration":0.17447916666668561,"midi":57,"time":201.07682291666666,"velocity":0.3937007874015748},{"duration":0.05859375,"midi":61,"time":201.1015625,"velocity":0.3937007874015748},{"duration":0.1731770833333428,"midi":64,"time":201.1015625,"velocity":0.3937007874015748},{"duration":0.05859375,"midi":80,"time":201.1015625,"velocity":0.3937007874015748},{"duration":0.05859375,"midi":67,"time":201.1015625,"velocity":0.3937007874015748},{"duration":0.171875,"midi":45,"time":201.13671875,"velocity":0.3937007874015748},{"duration":0.05989583333334281,"midi":72,"time":201.14713541666666,"velocity":0.3937007874015748},{"duration":0.05989583333334281,"midi":79,"time":201.14713541666666,"velocity":0.3937007874015748},{"duration":0.05989583333334281,"midi":83,"time":201.14713541666666,"velocity":0.3937007874015748},{"duration":0.05859375,"midi":60,"time":201.15885416666666,"velocity":0.3937007874015748},{"duration":0.05859375,"midi":80,"time":201.18229166666666,"velocity":0.3937007874015748},{"duration":0.057291666666685614,"midi":61,"time":201.19401041666666,"velocity":0.3937007874015748},{"duration":0.057291666666685614,"midi":65,"time":201.21744791666666,"velocity":0.3937007874015748},{"duration":0.05729166666665719,"midi":62,"time":201.22786458333334,"velocity":0.3937007874015748},{"duration":0.17317708333331439,"midi":81,"time":201.22786458333334,"velocity":0.3937007874015748},{"duration":0.05729166666665719,"midi":76,"time":201.22786458333334,"velocity":0.3937007874015748},{"duration":0.05729166666665719,"midi":58,"time":201.25130208333334,"velocity":0.3937007874015748},{"duration":0.17317708333331439,"midi":72,"time":201.25130208333334,"velocity":0.3937007874015748},{"duration":0.05859375,"midi":41,"time":201.26171875,"velocity":0.3937007874015748},{"duration":0.05859375,"midi":78,"time":201.26171875,"velocity":0.3937007874015748},{"duration":0.05859375,"midi":57,"time":201.2734375,"velocity":0.3937007874015748},{"duration":0.05859375,"midi":37,"time":201.2734375,"velocity":0.3937007874015748},{"duration":0.05859375,"midi":50,"time":201.28515625,"velocity":0.3937007874015748},{"duration":0.546875,"midi":62,"time":201.29557291666666,"velocity":0.3937007874015748},{"duration":0.05859375,"midi":67,"time":201.29557291666666,"velocity":0.3937007874015748},{"duration":0.05859375,"midi":51,"time":201.30729166666666,"velocity":0.3937007874015748},{"duration":0.17447916666668561,"midi":76,"time":201.30729166666666,"velocity":0.3937007874015748},{"duration":0.05859375,"midi":84,"time":201.30729166666666,"velocity":0.3937007874015748},{"duration":0.05859375,"midi":58,"time":201.30729166666666,"velocity":0.3937007874015748},{"duration":0.421875,"midi":81,"time":201.30729166666666,"velocity":0.3937007874015748},{"duration":0.05859375,"midi":40,"time":201.34244791666666,"velocity":0.3937007874015748},{"duration":0.05859375,"midi":65,"time":201.34244791666666,"velocity":0.3937007874015748},{"duration":0.2981770833333144,"midi":52,"time":201.35286458333334,"velocity":0.3937007874015748},{"duration":0.2981770833333144,"midi":72,"time":201.38802083333334,"velocity":0.3937007874015748},{"duration":0.05859375,"midi":40,"time":201.38802083333334,"velocity":0.3937007874015748},{"duration":0.05859375,"midi":66,"time":201.40104166666666,"velocity":0.3937007874015748},{"duration":0.05859375,"midi":65,"time":201.42317708333334,"velocity":0.3937007874015748},{"duration":0.05859375,"midi":66,"time":201.44661458333334,"velocity":0.3937007874015748},{"duration":0.1731770833333428,"midi":83,"time":201.46875,"velocity":0.3937007874015748},{"duration":0.1627604166666572,"midi":65,"time":201.46875,"velocity":0.3937007874015748},{"duration":0.05859375,"midi":76,"time":201.50390625,"velocity":0.3937007874015748},{"duration":0.05859375,"midi":88,"time":201.515625,"velocity":0.3937007874015748},{"duration":0.05859375,"midi":40,"time":201.55078125,"velocity":0.3937007874015748},{"duration":0.06901041666668561,"midi":65,"time":201.57291666666666,"velocity":0.3937007874015748},{"duration":0.05859375,"midi":76,"time":201.60807291666666,"velocity":0.3937007874015748},{"duration":0.05859375,"midi":95,"time":201.60807291666666,"velocity":0.3937007874015748},{"duration":0.05859375,"midi":72,"time":201.63151041666666,"velocity":0.3937007874015748},{"duration":0.05859375,"midi":77,"time":201.64192708333334,"velocity":0.3937007874015748},{"duration":0.05859375,"midi":41,"time":201.64192708333334,"velocity":0.3937007874015748},{"duration":0.17317708333331439,"midi":85,"time":201.64192708333334,"velocity":0.3937007874015748},{"duration":0.17317708333331439,"midi":86,"time":201.65364583333334,"velocity":0.3937007874015748},{"duration":0.1731770833333428,"midi":69,"time":201.66666666666666,"velocity":0.3937007874015748},{"duration":0.057291666666685614,"midi":37,"time":201.66666666666666,"velocity":0.3937007874015748},{"duration":0.1731770833333428,"midi":79,"time":201.66666666666666,"velocity":0.3937007874015748},{"duration":0.057291666666685614,"midi":76,"time":201.66666666666666,"velocity":0.3937007874015748},{"duration":0.1744791666666572,"midi":72,"time":201.69921875,"velocity":0.3937007874015748},{"duration":0.05859375,"midi":50,"time":201.72265625,"velocity":0.3937007874015748},{"duration":0.05859375,"midi":84,"time":201.72265625,"velocity":0.3937007874015748},{"duration":0.05859375,"midi":65,"time":201.74609375,"velocity":0.3937007874015748},{"duration":0.05859375,"midi":50,"time":201.78125,"velocity":0.3937007874015748},{"duration":0.05859375,"midi":66,"time":201.78125,"velocity":0.3937007874015748},{"duration":0.05989583333334281,"midi":63,"time":201.80338541666666,"velocity":0.3937007874015748},{"duration":0.05989583333334281,"midi":82,"time":201.80338541666666,"velocity":0.3937007874015748},{"duration":0.059895833333314386,"midi":81,"time":201.81380208333334,"velocity":0.3937007874015748},{"duration":0.41015625,"midi":76,"time":201.82682291666666,"velocity":0.3937007874015748},{"duration":0.05989583333334281,"midi":67,"time":201.82682291666666,"velocity":0.3937007874015748},{"duration":0.05859375,"midi":88,"time":201.83854166666666,"velocity":0.3937007874015748},{"duration":0.1692708333333428,"midi":86,"time":201.83854166666666,"velocity":0.3937007874015748},{"duration":0.1692708333333428,"midi":71,"time":201.83854166666666,"velocity":0.3937007874015748},{"duration":0.05859375,"midi":57,"time":201.83854166666666,"velocity":0.3937007874015748},{"duration":0.057291666666685614,"midi":68,"time":201.85026041666666,"velocity":0.3937007874015748},{"duration":0.16796875,"midi":87,"time":201.85026041666666,"velocity":0.3937007874015748},{"duration":0.16796875,"midi":90,"time":201.85026041666666,"velocity":0.3937007874015748},{"duration":0.16796875,"midi":83,"time":201.85026041666666,"velocity":0.3937007874015748},{"duration":0.057291666666685614,"midi":79,"time":201.85026041666666,"velocity":0.3937007874015748},{"duration":0.05598958333334281,"midi":84,"time":201.86328125,"velocity":0.3937007874015748},{"duration":0.05598958333334281,"midi":62,"time":201.86328125,"velocity":0.3937007874015748},{"duration":0.05598958333334281,"midi":67,"time":201.87369791666666,"velocity":0.3937007874015748},{"duration":0.05598958333334281,"midi":65,"time":201.87369791666666,"velocity":0.3937007874015748},{"duration":0.16666666666668561,"midi":84,"time":201.89713541666666,"velocity":0.3937007874015748},{"duration":0.05598958333334281,"midi":75,"time":201.89713541666666,"velocity":0.3937007874015748},{"duration":0.055989583333314386,"midi":63,"time":201.90755208333334,"velocity":0.3937007874015748},{"duration":0.1666666666666572,"midi":81,"time":201.90755208333334,"velocity":0.3937007874015748},{"duration":0.05598958333334281,"midi":67,"time":201.91796875,"velocity":0.3937007874015748},{"duration":0.1666666666666572,"midi":74,"time":201.91796875,"velocity":0.3937007874015748},{"duration":0.16666666666668561,"midi":62,"time":201.92838541666666,"velocity":0.3937007874015748},{"duration":0.057291666666685614,"midi":52,"time":201.92838541666666,"velocity":0.3937007874015748},{"duration":0.4075520833333428,"midi":88,"time":201.94010416666666,"velocity":0.3937007874015748},{"duration":0.057291666666685614,"midi":66,"time":201.94010416666666,"velocity":0.3937007874015748},{"duration":0.05598958333334281,"midi":69,"time":201.95182291666666,"velocity":0.3937007874015748},{"duration":0.055989583333314386,"midi":52,"time":201.96223958333334,"velocity":0.3937007874015748},{"duration":0.055989583333314386,"midi":66,"time":201.97395833333334,"velocity":0.3937007874015748},{"duration":0.1666666666666572,"midi":91,"time":201.99609375,"velocity":0.3937007874015748},{"duration":0.05598958333334281,"midi":65,"time":201.99609375,"velocity":0.3937007874015748},{"duration":0.05598958333334281,"midi":61,"time":202.0078125,"velocity":0.3937007874015748},{"duration":0.05598958333334281,"midi":66,"time":202.01822916666666,"velocity":0.3937007874015748},{"duration":0.16666666666668561,"midi":84,"time":202.01822916666666,"velocity":0.3937007874015748},{"duration":0.05598958333334281,"midi":79,"time":202.01822916666666,"velocity":0.3937007874015748},{"duration":0.05598958333334281,"midi":50,"time":202.01822916666666,"velocity":0.3937007874015748},{"duration":0.16666666666668561,"midi":83,"time":202.01822916666666,"velocity":0.3937007874015748},{"duration":0.16796875,"midi":87,"time":202.02864583333334,"velocity":0.3937007874015748},{"duration":0.16796875,"midi":89,"time":202.02864583333334,"velocity":0.3937007874015748},{"duration":0.055989583333314386,"midi":85,"time":202.02864583333334,"velocity":0.3937007874015748},{"duration":0.055989583333314386,"midi":68,"time":202.02864583333334,"velocity":0.3937007874015748},{"duration":0.2890625,"midi":81,"time":202.04036458333334,"velocity":0.3937007874015748},{"duration":0.2890625,"midi":72,"time":202.04036458333334,"velocity":0.3937007874015748},{"duration":0.16796875,"midi":86,"time":202.04036458333334,"velocity":0.3937007874015748},{"duration":0.055989583333314386,"midi":65,"time":202.05208333333334,"velocity":0.3937007874015748},{"duration":0.1692708333333428,"midi":95,"time":202.0625,"velocity":0.3937007874015748},{"duration":0.4088541666666572,"midi":79,"time":202.0625,"velocity":0.3937007874015748},{"duration":0.05598958333334281,"midi":60,"time":202.0625,"velocity":0.3937007874015748},{"duration":0.05598958333334281,"midi":52,"time":202.07291666666666,"velocity":0.3937007874015748},{"duration":0.1471354166666572,"midi":45,"time":202.09505208333334,"velocity":0.3937007874015748},{"duration":0.1705729166666572,"midi":69,"time":202.09505208333334,"velocity":0.3937007874015748},{"duration":0.055989583333314386,"midi":65,"time":202.10677083333334,"velocity":0.3937007874015748},{"duration":0.055989583333314386,"midi":60,"time":202.11848958333334,"velocity":0.3937007874015748},{"duration":0.1692708333333428,"midi":52,"time":202.12890625,"velocity":0.3937007874015748},{"duration":0.057291666666685614,"midi":62,"time":202.13932291666666,"velocity":0.3937007874015748},{"duration":0.05859375,"midi":60,"time":202.17317708333334,"velocity":0.3937007874015748},{"duration":0.05859375,"midi":64,"time":202.17317708333334,"velocity":0.3937007874015748},{"duration":0.08203125,"midi":45,"time":202.18359375,"velocity":0.3937007874015748},{"duration":0.4088541666666572,"midi":89,"time":202.19661458333334,"velocity":0.3937007874015748},{"duration":0.05859375,"midi":78,"time":202.19661458333334,"velocity":0.3937007874015748},{"duration":0.05859375,"midi":83,"time":202.19661458333334,"velocity":0.3937007874015748},{"duration":0.16796875,"midi":77,"time":202.20703125,"velocity":0.3937007874015748},{"duration":0.16796875,"midi":90,"time":202.20703125,"velocity":0.3937007874015748},{"duration":0.05859375,"midi":64,"time":202.20703125,"velocity":0.3937007874015748},{"duration":0.05859375,"midi":86,"time":202.20703125,"velocity":0.3937007874015748},{"duration":0.05859375,"midi":59,"time":202.20703125,"velocity":0.3937007874015748},{"duration":0.16796875,"midi":86,"time":202.21875,"velocity":0.3937007874015748},{"duration":0.05729166666665719,"midi":93,"time":202.21875,"velocity":0.3937007874015748},{"duration":0.1666666666666572,"midi":88,"time":202.23177083333334,"velocity":0.3937007874015748},{"duration":0.055989583333314386,"midi":67,"time":202.23177083333334,"velocity":0.3937007874015748},{"duration":0.05598958333334281,"midi":61,"time":202.2421875,"velocity":0.3937007874015748},{"duration":0.1666666666666572,"midi":72,"time":202.2421875,"velocity":0.3937007874015748},{"duration":0.05598958333334281,"midi":95,"time":202.265625,"velocity":0.3937007874015748},{"duration":0.05598958333334281,"midi":85,"time":202.265625,"velocity":0.3937007874015748},{"duration":0.05598958333334281,"midi":53,"time":202.27604166666666,"velocity":0.3937007874015748},{"duration":0.05598958333334281,"midi":67,"time":202.27604166666666,"velocity":0.3937007874015748},{"duration":0.05598958333334281,"midi":45,"time":202.27604166666666,"velocity":0.3937007874015748},{"duration":0.055989583333314386,"midi":33,"time":202.28645833333334,"velocity":0.3937007874015748},{"duration":0.05598958333334281,"midi":52,"time":202.296875,"velocity":0.3937007874015748},{"duration":0.05598958333334281,"midi":45,"time":202.30859375,"velocity":0.3937007874015748},{"duration":0.16796875,"midi":93,"time":202.3203125,"velocity":0.3937007874015748},{"duration":0.05598958333334281,"midi":33,"time":202.33072916666666,"velocity":0.3937007874015748},{"duration":0.05598958333334281,"midi":52,"time":202.33072916666666,"velocity":0.3937007874015748},{"duration":0.2682291666666856,"midi":76,"time":202.34244791666666,"velocity":0.3937007874015748},{"duration":0.05598958333334281,"midi":61,"time":202.34244791666666,"velocity":0.3937007874015748},{"duration":0.1705729166666572,"midi":72,"time":202.35286458333334,"velocity":0.3937007874015748},{"duration":0.05729166666665719,"midi":45,"time":202.36328125,"velocity":0.3937007874015748},{"duration":0.05729166666665719,"midi":52,"time":202.36328125,"velocity":0.3937007874015748},{"duration":0.09114583333334281,"midi":86,"time":202.38671875,"velocity":0.3937007874015748},{"duration":0.1692708333333428,"midi":77,"time":202.38671875,"velocity":0.3937007874015748},{"duration":0.1692708333333428,"midi":79,"time":202.38671875,"velocity":0.3937007874015748},{"duration":0.05859375,"midi":51,"time":202.39713541666666,"velocity":0.3937007874015748},{"duration":0.2890625,"midi":95,"time":202.39713541666666,"velocity":0.3937007874015748},{"duration":0.05859375,"midi":34,"time":202.39713541666666,"velocity":0.3937007874015748},{"duration":0.05859375,"midi":60,"time":202.39713541666666,"velocity":0.3937007874015748},{"duration":0.05859375,"midi":64,"time":202.39713541666666,"velocity":0.3937007874015748},{"duration":0.05859375,"midi":94,"time":202.39713541666666,"velocity":0.3937007874015748},{"duration":0.05859375,"midi":57,"time":202.39713541666666,"velocity":0.3937007874015748},{"duration":0.05859375,"midi":68,"time":202.40755208333334,"velocity":0.3937007874015748},{"duration":0.057291666666685614,"midi":61,"time":202.42057291666666,"velocity":0.3937007874015748},{"duration":0.057291666666685614,"midi":56,"time":202.42057291666666,"velocity":0.3937007874015748},{"duration":0.15885416666668561,"midi":86,"time":202.42057291666666,"velocity":0.3937007874015748},{"duration":0.4127604166666572,"midi":69,"time":202.43098958333334,"velocity":0.3937007874015748},{"duration":0.16796875,"midi":57,"time":202.44270833333334,"velocity":0.3937007874015748},{"duration":0.05729166666665719,"midi":45,"time":202.44270833333334,"velocity":0.3937007874015748},{"duration":0.05729166666665719,"midi":94,"time":202.46614583333334,"velocity":0.3937007874015748},{"duration":0.05729166666665719,"midi":32,"time":202.4765625,"velocity":0.3937007874015748},{"duration":0.05729166666665719,"midi":64,"time":202.4765625,"velocity":0.3937007874015748},{"duration":0.05729166666665719,"midi":45,"time":202.48828125,"velocity":0.3937007874015748},{"duration":0.057291666666685614,"midi":44,"time":202.51041666666666,"velocity":0.3937007874015748},{"duration":0.15234375,"midi":86,"time":202.5234375,"velocity":0.3937007874015748},{"duration":0.05598958333334281,"midi":32,"time":202.5234375,"velocity":0.3937007874015748},{"duration":0.05598958333334281,"midi":63,"time":202.53385416666666,"velocity":0.3937007874015748},{"duration":0.16666666666668561,"midi":79,"time":202.53385416666666,"velocity":0.3937007874015748},{"duration":0.055989583333314386,"midi":45,"time":202.54427083333334,"velocity":0.3937007874015748},{"duration":0.05598958333334281,"midi":94,"time":202.5546875,"velocity":0.3937007874015748},{"duration":0.05598958333334281,"midi":71,"time":202.5546875,"velocity":0.3937007874015748},{"duration":0.16796875,"midi":88,"time":202.5546875,"velocity":0.3937007874015748},{"duration":0.07552083333334281,"midi":76,"time":202.5546875,"velocity":0.3937007874015748},{"duration":0.0546875,"midi":84,"time":202.56770833333334,"velocity":0.3937007874015748},{"duration":0.0546875,"midi":51,"time":202.56770833333334,"velocity":0.3937007874015748},{"duration":0.0546875,"midi":50,"time":202.578125,"velocity":0.3937007874015748},{"duration":0.0546875,"midi":32,"time":202.58854166666666,"velocity":0.3937007874015748},{"duration":0.171875,"midi":76,"time":202.60026041666666,"velocity":0.3937007874015748},{"duration":0.05598958333334281,"midi":48,"time":202.60026041666666,"velocity":0.3937007874015748},{"duration":0.05729166666665719,"midi":89,"time":202.61067708333334,"velocity":0.3937007874015748},{"duration":0.05729166666665719,"midi":84,"time":202.62109375,"velocity":0.3937007874015748},{"duration":0.05729166666665719,"midi":32,"time":202.6328125,"velocity":0.3937007874015748},{"duration":0.17447916666668561,"midi":60,"time":202.64322916666666,"velocity":0.3937007874015748},{"duration":0.171875,"midi":91,"time":202.67838541666666,"velocity":0.3937007874015748},{"duration":0.171875,"midi":79,"time":202.72265625,"velocity":0.3937007874015748},{"duration":0.06119791666665719,"midi":32,"time":202.734375,"velocity":0.3937007874015748},{"duration":0.059895833333314386,"midi":42,"time":202.74739583333334,"velocity":0.3937007874015748},{"duration":0.059895833333314386,"midi":74,"time":202.74739583333334,"velocity":0.3937007874015748},{"duration":0.16927083333331439,"midi":88,"time":202.75911458333334,"velocity":0.3937007874015748},{"duration":0.16927083333331439,"midi":81,"time":202.75911458333334,"velocity":0.3937007874015748},{"duration":0.05859375,"midi":63,"time":202.75911458333334,"velocity":0.3937007874015748},{"duration":0.05859375,"midi":78,"time":202.75911458333334,"velocity":0.3937007874015748},{"duration":0.2942708333333144,"midi":86,"time":202.75911458333334,"velocity":0.3937007874015748},{"duration":0.05729166666665719,"midi":40,"time":202.77083333333334,"velocity":0.3937007874015748},{"duration":0.16796875,"midi":89,"time":202.77083333333334,"velocity":0.3937007874015748},{"duration":0.16796875,"midi":92,"time":202.77083333333334,"velocity":0.3937007874015748},{"duration":0.055989583333314386,"midi":84,"time":202.78255208333334,"velocity":0.3937007874015748},{"duration":0.055989583333314386,"midi":37,"time":202.78255208333334,"velocity":0.3937007874015748},{"duration":0.16796875,"midi":60,"time":202.78255208333334,"velocity":0.3937007874015748},{"duration":0.16796875,"midi":95,"time":202.78255208333334,"velocity":0.3937007874015748},{"duration":0.0546875,"midi":68,"time":202.79557291666666,"velocity":0.3937007874015748},{"duration":0.0546875,"midi":64,"time":202.79557291666666,"velocity":0.3937007874015748},{"duration":0.16796875,"midi":90,"time":202.80598958333334,"velocity":0.3937007874015748},{"duration":0.7955729166666572,"midi":50,"time":202.80598958333334,"velocity":0.3937007874015748},{"duration":0.05598958333334281,"midi":69,"time":202.81640625,"velocity":0.3937007874015748},{"duration":0.05598958333334281,"midi":74,"time":202.81640625,"velocity":0.3937007874015748},{"duration":0.05598958333334281,"midi":28,"time":202.81640625,"velocity":0.3937007874015748},{"duration":0.1705729166666572,"midi":85,"time":202.828125,"velocity":0.3937007874015748},{"duration":0.05598958333334281,"midi":80,"time":202.828125,"velocity":0.3937007874015748},{"duration":0.05598958333334281,"midi":87,"time":202.83854166666666,"velocity":0.3937007874015748},{"duration":0.05598958333334281,"midi":63,"time":202.83854166666666,"velocity":0.3937007874015748},{"duration":0.05598958333334281,"midi":91,"time":202.83854166666666,"velocity":0.3937007874015748},{"duration":0.17317708333331439,"midi":74,"time":202.86067708333334,"velocity":0.3937007874015748},{"duration":0.05729166666665719,"midi":93,"time":202.86067708333334,"velocity":0.3937007874015748},{"duration":0.421875,"midi":81,"time":202.87239583333334,"velocity":0.3937007874015748},{"duration":0.055989583333314386,"midi":76,"time":202.87239583333334,"velocity":0.3937007874015748},{"duration":0.5494791666666572,"midi":84,"time":202.8828125,"velocity":0.3937007874015748},{"duration":0.1731770833333428,"midi":77,"time":202.8828125,"velocity":0.3937007874015748},{"duration":0.17447916666668561,"midi":65,"time":202.89322916666666,"velocity":0.3937007874015748},{"duration":0.55078125,"midi":69,"time":202.89322916666666,"velocity":0.3937007874015748},{"duration":0.4244791666666856,"midi":89,"time":202.90494791666666,"velocity":0.3937007874015748},{"duration":0.6770833333333428,"midi":93,"time":202.91666666666666,"velocity":0.3937007874015748},{"duration":0.17447916666668561,"midi":90,"time":202.91666666666666,"velocity":0.3937007874015748},{"duration":0.17578125,"midi":91,"time":202.92708333333334,"velocity":0.3937007874015748},{"duration":0.17578125,"midi":91,"time":202.92708333333334,"velocity":0.3937007874015748},{"duration":0.059895833333314386,"midi":57,"time":202.93880208333334,"velocity":0.3937007874015748},{"duration":0.059895833333314386,"midi":88,"time":202.95052083333334,"velocity":0.3937007874015748},{"duration":0.17578125,"midi":87,"time":202.95052083333334,"velocity":0.3937007874015748},{"duration":0.1744791666666572,"midi":72,"time":202.97395833333334,"velocity":0.3937007874015748},{"duration":0.059895833333314386,"midi":57,"time":202.98567708333334,"velocity":0.3937007874015748},{"duration":0.1744791666666572,"midi":88,"time":202.99739583333334,"velocity":0.3937007874015748},{"duration":0.059895833333314386,"midi":85,"time":203.02083333333334,"velocity":0.3937007874015748},{"duration":0.05859375,"midi":63,"time":203.04427083333334,"velocity":0.3937007874015748},{"duration":0.1744791666666572,"midi":86,"time":203.04427083333334,"velocity":0.3937007874015748},{"duration":0.059895833333314386,"midi":65,"time":203.05598958333334,"velocity":0.3937007874015748},{"duration":0.42578125,"midi":74,"time":203.05598958333334,"velocity":0.3937007874015748},{"duration":0.30078125,"midi":77,"time":203.06770833333334,"velocity":0.3937007874015748},{"duration":0.05859375,"midi":92,"time":203.06770833333334,"velocity":0.3937007874015748},{"duration":0.05729166666665719,"midi":91,"time":203.07942708333334,"velocity":0.3937007874015748},{"duration":0.1744791666666572,"midi":57,"time":203.09114583333334,"velocity":0.3937007874015748},{"duration":0.1744791666666572,"midi":65,"time":203.09114583333334,"velocity":0.3937007874015748},{"duration":0.1744791666666572,"midi":88,"time":203.13671875,"velocity":0.3937007874015748},{"duration":0.05989583333334281,"midi":87,"time":203.13671875,"velocity":0.3937007874015748},{"duration":0.17578125,"midi":85,"time":203.15885416666666,"velocity":0.3937007874015748},{"duration":0.05989583333334281,"midi":90,"time":203.15885416666666,"velocity":0.3937007874015748},{"duration":0.05989583333334281,"midi":94,"time":203.171875,"velocity":0.3937007874015748},{"duration":0.17578125,"midi":88,"time":203.171875,"velocity":0.3937007874015748},{"duration":0.17578125,"midi":91,"time":203.18359375,"velocity":0.3937007874015748},{"duration":0.05859375,"midi":57,"time":203.20703125,"velocity":0.3937007874015748},{"duration":0.1640625,"midi":87,"time":203.20703125,"velocity":0.3937007874015748},{"duration":0.17578125,"midi":65,"time":203.2421875,"velocity":0.3937007874015748},{"duration":0.3020833333333428,"midi":57,"time":203.26432291666666,"velocity":0.3937007874015748},{"duration":0.06119791666665719,"midi":76,"time":203.30989583333334,"velocity":0.3937007874015748},{"duration":0.06119791666665719,"midi":83,"time":203.30989583333334,"velocity":0.3937007874015748},{"duration":0.07291666666665719,"midi":87,"time":203.30989583333334,"velocity":0.3937007874015748},{"duration":0.1770833333333428,"midi":89,"time":203.32291666666666,"velocity":0.3937007874015748},{"duration":0.05989583333334281,"midi":77,"time":203.33463541666666,"velocity":0.3937007874015748},{"duration":0.1640625,"midi":84,"time":203.359375,"velocity":0.3937007874015748},{"duration":0.2994791666666572,"midi":77,"time":203.37109375,"velocity":0.3937007874015748},{"duration":0.05989583333334281,"midi":65,"time":203.40494791666666,"velocity":0.3937007874015748},{"duration":0.30078125,"midi":69,"time":203.41666666666666,"velocity":0.3937007874015748},{"duration":0.07161458333334281,"midi":84,"time":203.46354166666666,"velocity":0.3937007874015748},{"duration":0.05989583333334281,"midi":66,"time":203.48697916666666,"velocity":0.3937007874015748},{"duration":0.30078125,"midi":81,"time":203.53385416666666,"velocity":0.3937007874015748},{"duration":0.17447916666668561,"midi":65,"time":203.53385416666666,"velocity":0.3937007874015748},{"duration":0.05989583333334281,"midi":91,"time":203.53385416666666,"velocity":0.3937007874015748},{"duration":0.05859375,"midi":51,"time":203.54557291666666,"velocity":0.3937007874015748},{"duration":0.05859375,"midi":91,"time":203.54557291666666,"velocity":0.3937007874015748},{"duration":0.2994791666666856,"midi":84,"time":203.54557291666666,"velocity":0.3937007874015748},{"duration":0.05859375,"midi":60,"time":203.54557291666666,"velocity":0.3937007874015748},{"duration":0.05859375,"midi":50,"time":203.55729166666666,"velocity":0.3937007874015748},{"duration":0.17447916666668561,"midi":74,"time":203.56901041666666,"velocity":0.3937007874015748},{"duration":0.057291666666685614,"midi":88,"time":203.56901041666666,"velocity":0.3937007874015748},{"duration":0.17447916666668561,"midi":88,"time":203.56901041666666,"velocity":0.3937007874015748},{"duration":0.057291666666685614,"midi":61,"time":203.58072916666666,"velocity":0.3937007874015748},{"duration":0.17447916666668561,"midi":87,"time":203.58072916666666,"velocity":0.3937007874015748},{"duration":0.17578125,"midi":86,"time":203.61458333333334,"velocity":0.3937007874015748},{"duration":0.17708333333331439,"midi":65,"time":203.62630208333334,"velocity":0.3937007874015748},{"duration":0.17708333333331439,"midi":77,"time":203.62630208333334,"velocity":0.3937007874015748},{"duration":0.059895833333314386,"midi":31,"time":203.62630208333334,"velocity":0.3937007874015748},{"duration":0.1770833333333428,"midi":69,"time":203.6484375,"velocity":0.3937007874015748},{"duration":0.05989583333334281,"midi":91,"time":203.66015625,"velocity":0.3937007874015748},{"duration":0.17578125,"midi":88,"time":203.6953125,"velocity":0.3937007874015748},{"duration":0.059895833333314386,"midi":50,"time":203.72005208333334,"velocity":0.3937007874015748},{"duration":0.4205729166666572,"midi":92,"time":203.72005208333334,"velocity":0.3937007874015748},{"duration":0.2981770833333144,"midi":83,"time":203.74348958333334,"velocity":0.3937007874015748},{"duration":0.2981770833333144,"midi":90,"time":203.74348958333334,"velocity":0.3937007874015748},{"duration":0.17578125,"midi":80,"time":203.74348958333334,"velocity":0.3937007874015748},{"duration":0.296875,"midi":88,"time":203.75520833333334,"velocity":0.3937007874015748},{"duration":0.059895833333314386,"midi":77,"time":203.75520833333334,"velocity":0.3937007874015748},{"duration":0.2955729166666572,"midi":76,"time":203.76692708333334,"velocity":0.3937007874015748},{"duration":0.1744791666666572,"midi":74,"time":203.76692708333334,"velocity":0.3937007874015748},{"duration":0.05859375,"midi":58,"time":203.77864583333334,"velocity":0.3937007874015748},{"duration":0.17317708333331439,"midi":84,"time":203.77864583333334,"velocity":0.3937007874015748},{"duration":0.05859375,"midi":91,"time":203.79036458333334,"velocity":0.3937007874015748},{"duration":0.05859375,"midi":81,"time":203.80208333333334,"velocity":0.3937007874015748},{"duration":0.05859375,"midi":65,"time":203.80208333333334,"velocity":0.3937007874015748},{"duration":0.05859375,"midi":44,"time":203.80208333333334,"velocity":0.3937007874015748},{"duration":0.05729166666665719,"midi":69,"time":203.81380208333334,"velocity":0.3937007874015748},{"duration":0.171875,"midi":60,"time":203.81380208333334,"velocity":0.3937007874015748},{"duration":0.05989583333334281,"midi":79,"time":203.88151041666666,"velocity":0.3937007874015748},{"duration":0.1731770833333428,"midi":65,"time":203.88151041666666,"velocity":0.3937007874015748},{"duration":0.05859375,"midi":50,"time":203.89322916666666,"velocity":0.3937007874015748},{"duration":0.171875,"midi":74,"time":203.89322916666666,"velocity":0.3937007874015748},{"duration":0.1380208333333428,"midi":86,"time":203.90625,"velocity":0.3937007874015748},{"duration":0.05729166666665719,"midi":77,"time":203.91796875,"velocity":0.3937007874015748},{"duration":0.05729166666665719,"midi":84,"time":203.91796875,"velocity":0.3937007874015748},{"duration":0.171875,"midi":69,"time":203.91796875,"velocity":0.3937007874015748},{"duration":0.05729166666665719,"midi":57,"time":203.94140625,"velocity":0.3937007874015748},{"duration":0.057291666666685614,"midi":79,"time":203.95182291666666,"velocity":0.3937007874015748},{"duration":0.1731770833333428,"midi":93,"time":203.95182291666666,"velocity":0.3937007874015748},{"duration":0.1731770833333428,"midi":50,"time":203.95182291666666,"velocity":0.3937007874015748},{"duration":0.057291666666685614,"midi":64,"time":203.95182291666666,"velocity":0.3937007874015748},{"duration":0.16015625,"midi":89,"time":203.97526041666666,"velocity":0.3937007874015748},{"duration":0.09244791666665719,"midi":86,"time":203.98567708333334,"velocity":0.3937007874015748},{"duration":0.1393229166666572,"midi":57,"time":203.98567708333334,"velocity":0.3937007874015748},{"duration":0.05729166666665719,"midi":66,"time":203.99739583333334,"velocity":0.3937007874015748},{"duration":0.1744791666666572,"midi":77,"time":204.00911458333334,"velocity":0.3937007874015748},{"duration":0.1744791666666572,"midi":69,"time":204.00911458333334,"velocity":0.3937007874015748},{"duration":0.1744791666666572,"midi":74,"time":204.03125,"velocity":0.3937007874015748},{"duration":0.05859375,"midi":88,"time":204.04296875,"velocity":0.3937007874015748},{"duration":0.09375,"midi":57,"time":204.06510416666666,"velocity":0.3937007874015748},{"duration":0.1731770833333428,"midi":93,"time":204.06510416666666,"velocity":0.3937007874015748},{"duration":0.05989583333334281,"midi":88,"time":204.06510416666666,"velocity":0.3937007874015748},{"duration":0.05989583333334281,"midi":65,"time":204.06510416666666,"velocity":0.3937007874015748},{"duration":0.05989583333334281,"midi":84,"time":204.06510416666666,"velocity":0.3937007874015748},{"duration":0.0703125,"midi":89,"time":204.07682291666666,"velocity":0.3937007874015748},{"duration":0.1705729166666572,"midi":86,"time":204.1015625,"velocity":0.3937007874015748},{"duration":0.17057291666668561,"midi":76,"time":204.11197916666666,"velocity":0.3937007874015748},{"duration":0.05859375,"midi":92,"time":204.125,"velocity":0.3937007874015748},{"duration":0.05859375,"midi":64,"time":204.125,"velocity":0.3937007874015748},{"duration":0.17057291666668561,"midi":60,"time":204.13541666666666,"velocity":0.3937007874015748},{"duration":0.05989583333334281,"midi":90,"time":204.13541666666666,"velocity":0.3937007874015748},{"duration":0.05989583333334281,"midi":88,"time":204.13541666666666,"velocity":0.3937007874015748},{"duration":0.17057291666668561,"midi":95,"time":204.13541666666666,"velocity":0.3937007874015748},{"duration":0.059895833333314386,"midi":89,"time":204.14583333333334,"velocity":0.3937007874015748},{"duration":0.059895833333314386,"midi":41,"time":204.14583333333334,"velocity":0.3937007874015748},{"duration":0.05859375,"midi":69,"time":204.15755208333334,"velocity":0.3937007874015748},{"duration":0.057291666666685614,"midi":77,"time":204.17057291666666,"velocity":0.3937007874015748},{"duration":0.05598958333334281,"midi":63,"time":204.18229166666666,"velocity":0.3937007874015748},{"duration":0.05598958333334281,"midi":70,"time":204.18229166666666,"velocity":0.3937007874015748},{"duration":0.05598958333334281,"midi":93,"time":204.20572916666666,"velocity":0.3937007874015748},{"duration":0.055989583333314386,"midi":63,"time":204.21614583333334,"velocity":0.3937007874015748},{"duration":0.4192708333333428,"midi":69,"time":204.2265625,"velocity":0.3937007874015748},{"duration":0.05729166666665719,"midi":74,"time":204.23828125,"velocity":0.3937007874015748},{"duration":0.17447916666668561,"midi":65,"time":204.24869791666666,"velocity":0.3937007874015748},{"duration":0.17447916666668561,"midi":76,"time":204.24869791666666,"velocity":0.3937007874015748},{"duration":0.296875,"midi":89,"time":204.29427083333334,"velocity":0.3937007874015748},{"duration":0.06119791666665719,"midi":86,"time":204.328125,"velocity":0.3937007874015748},{"duration":0.06119791666665719,"midi":61,"time":204.328125,"velocity":0.3937007874015748},{"duration":0.1731770833333428,"midi":74,"time":204.328125,"velocity":0.3937007874015748},{"duration":0.05989583333334281,"midi":87,"time":204.33984375,"velocity":0.3937007874015748},{"duration":0.1484375,"midi":84,"time":204.35286458333334,"velocity":0.3937007874015748},{"duration":0.05859375,"midi":95,"time":204.36458333333334,"velocity":0.3937007874015748},{"duration":0.796875,"midi":50,"time":204.36458333333334,"velocity":0.3937007874015748},{"duration":0.171875,"midi":86,"time":204.36458333333334,"velocity":0.3937007874015748},{"duration":0.05859375,"midi":91,"time":204.36458333333334,"velocity":0.3937007874015748},{"duration":0.05859375,"midi":63,"time":204.36458333333334,"velocity":0.3937007874015748},{"duration":0.07942708333331439,"midi":88,"time":204.36458333333334,"velocity":0.3937007874015748},{"duration":0.4270833333333144,"midi":90,"time":204.37630208333334,"velocity":0.3937007874015748},{"duration":0.05729166666665719,"midi":92,"time":204.37630208333334,"velocity":0.3937007874015748},{"duration":0.4205729166666572,"midi":86,"time":204.37630208333334,"velocity":0.3937007874015748},{"duration":0.171875,"midi":57,"time":204.37630208333334,"velocity":0.3937007874015748},{"duration":0.2734375,"midi":88,"time":204.38802083333334,"velocity":0.3937007874015748},{"duration":0.1705729166666572,"midi":91,"time":204.38802083333334,"velocity":0.3937007874015748},{"duration":0.4205729166666572,"midi":93,"time":204.39973958333334,"velocity":0.3937007874015748},{"duration":0.171875,"midi":76,"time":204.421875,"velocity":0.3937007874015748},{"duration":0.05729166666665719,"midi":66,"time":204.43359375,"velocity":0.3937007874015748},{"duration":0.1731770833333428,"midi":85,"time":204.43359375,"velocity":0.3937007874015748},{"duration":0.08072916666668561,"midi":84,"time":204.44401041666666,"velocity":0.3937007874015748},{"duration":0.057291666666685614,"midi":63,"time":204.44401041666666,"velocity":0.3937007874015748},{"duration":0.1731770833333428,"midi":95,"time":204.46744791666666,"velocity":0.3937007874015748},{"duration":0.05859375,"midi":77,"time":204.48958333333334,"velocity":0.3937007874015748},{"duration":0.1744791666666572,"midi":92,"time":204.48958333333334,"velocity":0.3937007874015748},{"duration":0.05989583333334281,"midi":60,"time":204.51171875,"velocity":0.3937007874015748},{"duration":0.05989583333334281,"midi":83,"time":204.51171875,"velocity":0.3937007874015748},{"duration":0.05989583333334281,"midi":67,"time":204.5234375,"velocity":0.3937007874015748},{"duration":0.1744791666666572,"midi":76,"time":204.53515625,"velocity":0.3937007874015748},{"duration":0.6744791666666572,"midi":57,"time":204.53515625,"velocity":0.3937007874015748},{"duration":0.05859375,"midi":85,"time":204.54817708333334,"velocity":0.3937007874015748},{"duration":0.05859375,"midi":64,"time":204.54817708333334,"velocity":0.3937007874015748},{"duration":0.05859375,"midi":67,"time":204.55859375,"velocity":0.3937007874015748},{"duration":0.05859375,"midi":89,"time":204.55859375,"velocity":0.3937007874015748},{"duration":0.05859375,"midi":84,"time":204.5703125,"velocity":0.3937007874015748},{"duration":0.42578125,"midi":88,"time":204.59375,"velocity":0.3937007874015748},{"duration":0.1744791666666572,"midi":84,"time":204.6171875,"velocity":0.3937007874015748},{"duration":0.05989583333334281,"midi":64,"time":204.6171875,"velocity":0.3937007874015748},{"duration":0.05989583333334281,"midi":95,"time":204.63932291666666,"velocity":0.3937007874015748},{"duration":0.05729166666665719,"midi":37,"time":204.67578125,"velocity":0.3937007874015748},{"duration":0.05729166666665719,"midi":62,"time":204.67578125,"velocity":0.3937007874015748},{"duration":0.1731770833333428,"midi":77,"time":204.67578125,"velocity":0.3937007874015748},{"duration":0.05859375,"midi":85,"time":204.70963541666666,"velocity":0.3937007874015748},{"duration":0.05859375,"midi":89,"time":204.70963541666666,"velocity":0.3937007874015748},{"duration":0.05859375,"midi":84,"time":204.73307291666666,"velocity":0.3937007874015748},{"duration":0.05859375,"midi":64,"time":204.73307291666666,"velocity":0.3937007874015748},{"duration":0.1796875,"midi":90,"time":204.74348958333334,"velocity":0.3937007874015748},{"duration":0.059895833333314386,"midi":74,"time":204.74348958333334,"velocity":0.3937007874015748},{"duration":0.059895833333314386,"midi":63,"time":204.75520833333334,"velocity":0.3937007874015748},{"duration":0.42578125,"midi":88,"time":204.76692708333334,"velocity":0.3937007874015748},{"duration":0.059895833333314386,"midi":61,"time":204.77864583333334,"velocity":0.3937007874015748},{"duration":0.059895833333314386,"midi":65,"time":204.77864583333334,"velocity":0.3937007874015748},{"duration":0.17578125,"midi":86,"time":204.80208333333334,"velocity":0.3937007874015748},{"duration":0.059895833333314386,"midi":77,"time":204.82552083333334,"velocity":0.3937007874015748},{"duration":0.059895833333314386,"midi":89,"time":204.86067708333334,"velocity":0.3937007874015748},{"duration":0.059895833333314386,"midi":74,"time":204.86067708333334,"velocity":0.3937007874015748},{"duration":0.17578125,"midi":76,"time":204.87239583333334,"velocity":0.3937007874015748},{"duration":0.059895833333314386,"midi":66,"time":204.88411458333334,"velocity":0.3937007874015748},{"duration":0.1640625,"midi":74,"time":204.91927083333334,"velocity":0.3937007874015748},{"duration":0.05859375,"midi":78,"time":204.93229166666666,"velocity":0.3937007874015748},{"duration":0.05859375,"midi":87,"time":204.94401041666666,"velocity":0.3937007874015748},{"duration":0.05859375,"midi":71,"time":204.94401041666666,"velocity":0.3937007874015748},{"duration":0.1731770833333428,"midi":84,"time":204.94401041666666,"velocity":0.3937007874015748},{"duration":0.059895833333314386,"midi":89,"time":204.95442708333334,"velocity":0.3937007874015748},{"duration":0.059895833333314386,"midi":37,"time":204.95442708333334,"velocity":0.3937007874015748},{"duration":0.059895833333314386,"midi":65,"time":204.97786458333334,"velocity":0.3937007874015748},{"duration":0.1744791666666572,"midi":86,"time":204.97786458333334,"velocity":0.3937007874015748},{"duration":0.1744791666666572,"midi":72,"time":204.97786458333334,"velocity":0.3937007874015748},{"duration":0.059895833333314386,"midi":94,"time":204.97786458333334,"velocity":0.3937007874015748},{"duration":0.059895833333314386,"midi":81,"time":204.97786458333334,"velocity":0.3937007874015748},{"duration":0.05859375,"midi":95,"time":204.98958333333334,"velocity":0.3937007874015748},{"duration":0.05859375,"midi":60,"time":204.98958333333334,"velocity":0.3937007874015748},{"duration":0.1744791666666572,"midi":91,"time":204.98958333333334,"velocity":0.3937007874015748},{"duration":0.05859375,"midi":77,"time":204.98958333333334,"velocity":0.3937007874015748},{"duration":0.1744791666666572,"midi":79,"time":204.98958333333334,"velocity":0.3937007874015748},{"duration":0.1744791666666572,"midi":80,"time":205.02473958333334,"velocity":0.3937007874015748},{"duration":0.4192708333333144,"midi":93,"time":205.02473958333334,"velocity":0.3937007874015748},{"duration":0.1744791666666572,"midi":76,"time":205.02473958333334,"velocity":0.3937007874015748},{"duration":0.06901041666665719,"midi":74,"time":205.02473958333334,"velocity":0.3937007874015748},{"duration":0.05729166666665719,"midi":66,"time":205.03645833333334,"velocity":0.3937007874015748},{"duration":0.2981770833333428,"midi":95,"time":205.0703125,"velocity":0.3937007874015748},{"duration":0.1731770833333428,"midi":77,"time":205.0703125,"velocity":0.3937007874015748},{"duration":0.05859375,"midi":92,"time":205.08333333333334,"velocity":0.3937007874015748},{"duration":0.171875,"midi":81,"time":205.08333333333334,"velocity":0.3937007874015748},{"duration":0.05989583333334281,"midi":74,"time":205.10416666666666,"velocity":0.3937007874015748},{"duration":0.296875,"midi":69,"time":205.10416666666666,"velocity":0.3937007874015748},{"duration":0.09244791666665719,"midi":90,"time":205.1171875,"velocity":0.3937007874015748},{"duration":0.05859375,"midi":51,"time":205.12890625,"velocity":0.3937007874015748},{"duration":0.05859375,"midi":84,"time":205.12890625,"velocity":0.3937007874015748},{"duration":0.05859375,"midi":50,"time":205.140625,"velocity":0.3937007874015748},{"duration":0.05859375,"midi":61,"time":205.140625,"velocity":0.3937007874015748},{"duration":0.05859375,"midi":62,"time":205.15104166666666,"velocity":0.3937007874015748},{"duration":0.13932291666668561,"midi":90,"time":205.15104166666666,"velocity":0.3937007874015748},{"duration":0.1731770833333428,"midi":76,"time":205.15104166666666,"velocity":0.3937007874015748},{"duration":0.05859375,"midi":49,"time":205.15104166666666,"velocity":0.3937007874015748},{"duration":0.05859375,"midi":67,"time":205.15104166666666,"velocity":0.3937007874015748},{"duration":0.1731770833333428,"midi":84,"time":205.15104166666666,"velocity":0.3937007874015748},{"duration":0.05859375,"midi":91,"time":205.1640625,"velocity":0.3937007874015748},{"duration":0.05859375,"midi":41,"time":205.17447916666666,"velocity":0.3937007874015748},{"duration":0.1731770833333428,"midi":89,"time":205.18619791666666,"velocity":0.3937007874015748},{"duration":0.057291666666685614,"midi":52,"time":205.18619791666666,"velocity":0.3937007874015748},{"duration":0.057291666666685614,"midi":57,"time":205.18619791666666,"velocity":0.3937007874015748},{"duration":0.05598958333334281,"midi":65,"time":205.19921875,"velocity":0.3937007874015748},{"duration":0.057291666666685614,"midi":80,"time":205.20963541666666,"velocity":0.3937007874015748},{"duration":0.057291666666685614,"midi":40,"time":205.20963541666666,"velocity":0.3937007874015748},{"duration":0.057291666666685614,"midi":61,"time":205.20963541666666,"velocity":0.3937007874015748},{"duration":0.1731770833333428,"midi":67,"time":205.20963541666666,"velocity":0.3937007874015748},{"duration":0.171875,"midi":74,"time":205.23307291666666,"velocity":0.3937007874015748},{"duration":0.17317708333331439,"midi":90,"time":205.24348958333334,"velocity":0.3937007874015748},{"duration":0.05859375,"midi":62,"time":205.24348958333334,"velocity":0.3937007874015748},{"duration":0.05989583333334281,"midi":60,"time":205.2890625,"velocity":0.3937007874015748},{"duration":0.421875,"midi":76,"time":205.30078125,"velocity":0.3937007874015748},{"duration":0.05989583333334281,"midi":61,"time":205.3125,"velocity":0.3937007874015748},{"duration":0.05859375,"midi":91,"time":205.32421875,"velocity":0.3937007874015748},{"duration":0.05729166666665719,"midi":65,"time":205.3359375,"velocity":0.3937007874015748},{"duration":0.1705729166666572,"midi":69,"time":205.3359375,"velocity":0.3937007874015748},{"duration":0.1705729166666572,"midi":67,"time":205.34895833333334,"velocity":0.3937007874015748},{"duration":0.1705729166666572,"midi":86,"time":205.34895833333334,"velocity":0.3937007874015748},{"duration":0.1705729166666572,"midi":88,"time":205.34895833333334,"velocity":0.3937007874015748},{"duration":0.05729166666665719,"midi":60,"time":205.37109375,"velocity":0.3937007874015748},{"duration":0.05729166666665719,"midi":73,"time":205.37109375,"velocity":0.3937007874015748},{"duration":0.05729166666665719,"midi":84,"time":205.37109375,"velocity":0.3937007874015748},{"duration":0.057291666666685614,"midi":47,"time":205.38151041666666,"velocity":0.3937007874015748},{"duration":0.057291666666685614,"midi":89,"time":205.38151041666666,"velocity":0.3937007874015748},{"duration":0.057291666666685614,"midi":61,"time":205.39322916666666,"velocity":0.3937007874015748},{"duration":0.2981770833333144,"midi":72,"time":205.40364583333334,"velocity":0.3937007874015748},{"duration":0.171875,"midi":93,"time":205.41536458333334,"velocity":0.3937007874015748},{"duration":0.2981770833333144,"midi":74,"time":205.41536458333334,"velocity":0.3937007874015748},{"duration":0.05729166666665719,"midi":77,"time":205.43880208333334,"velocity":0.3937007874015748},{"duration":0.171875,"midi":89,"time":205.43880208333334,"velocity":0.3937007874015748},{"duration":0.05859375,"midi":62,"time":205.4609375,"velocity":0.3937007874015748},{"duration":0.05859375,"midi":84,"time":205.48307291666666,"velocity":0.3937007874015748},{"duration":0.1731770833333428,"midi":57,"time":205.49609375,"velocity":0.3937007874015748},{"duration":0.05859375,"midi":61,"time":205.51822916666666,"velocity":0.3937007874015748},{"duration":0.05859375,"midi":41,"time":205.51822916666666,"velocity":0.3937007874015748},{"duration":0.17447916666668561,"midi":65,"time":205.51822916666666,"velocity":0.3937007874015748},{"duration":0.17578125,"midi":48,"time":205.52864583333334,"velocity":0.3937007874015748},{"duration":0.05859375,"midi":90,"time":205.54166666666666,"velocity":0.3937007874015748},{"duration":0.17578125,"midi":81,"time":205.54166666666666,"velocity":0.3937007874015748},{"duration":0.05859375,"midi":62,"time":205.54166666666666,"velocity":0.3937007874015748},{"duration":0.3020833333333144,"midi":93,"time":205.55208333333334,"velocity":0.3937007874015748},{"duration":0.05859375,"midi":84,"time":205.55208333333334,"velocity":0.3937007874015748},{"duration":0.05859375,"midi":41,"time":205.56380208333334,"velocity":0.3937007874015748},{"duration":0.05859375,"midi":89,"time":205.58723958333334,"velocity":0.3937007874015748},{"duration":0.05859375,"midi":62,"time":205.59895833333334,"velocity":0.3937007874015748},{"duration":0.1744791666666572,"midi":41,"time":205.59895833333334,"velocity":0.3937007874015748},{"duration":0.06119791666665719,"midi":77,"time":205.66796875,"velocity":0.3937007874015748},{"duration":0.05989583333334281,"midi":58,"time":205.6796875,"velocity":0.3937007874015748},{"duration":0.1770833333333428,"midi":89,"time":205.6796875,"velocity":0.3937007874015748},{"duration":0.05989583333334281,"midi":42,"time":205.6796875,"velocity":0.3937007874015748},{"duration":0.05989583333334281,"midi":65,"time":205.6796875,"velocity":0.3937007874015748},{"duration":0.05859375,"midi":95,"time":205.69270833333334,"velocity":0.3937007874015748},{"duration":0.2981770833333144,"midi":91,"time":205.69270833333334,"velocity":0.3937007874015748},{"duration":0.17708333333331439,"midi":76,"time":205.69270833333334,"velocity":0.3937007874015748},{"duration":0.05859375,"midi":73,"time":205.70442708333334,"velocity":0.3937007874015748},{"duration":0.17708333333331439,"midi":57,"time":205.70442708333334,"velocity":0.3937007874015748},{"duration":0.17708333333331439,"midi":81,"time":205.70442708333334,"velocity":0.3937007874015748},{"duration":0.05859375,"midi":61,"time":205.70442708333334,"velocity":0.3937007874015748},{"duration":0.17708333333331439,"midi":86,"time":205.71614583333334,"velocity":0.3937007874015748},{"duration":0.17578125,"midi":62,"time":205.72916666666666,"velocity":0.3937007874015748},{"duration":0.17578125,"midi":84,"time":205.72916666666666,"velocity":0.3937007874015748},{"duration":0.057291666666685614,"midi":49,"time":205.72916666666666,"velocity":0.3937007874015748},{"duration":0.057291666666685614,"midi":67,"time":205.72916666666666,"velocity":0.3937007874015748},{"duration":0.17578125,"midi":74,"time":205.72916666666666,"velocity":0.3937007874015748},{"duration":0.05859375,"midi":90,"time":205.73958333333334,"velocity":0.3937007874015748},{"duration":0.05859375,"midi":72,"time":205.73958333333334,"velocity":0.3937007874015748},{"duration":0.05859375,"midi":42,"time":205.73958333333334,"velocity":0.3937007874015748},{"duration":0.1770833333333428,"midi":88,"time":205.75,"velocity":0.3937007874015748},{"duration":0.17578125,"midi":42,"time":205.78515625,"velocity":0.3937007874015748},{"duration":0.29296875,"midi":84,"time":205.8203125,"velocity":0.3937007874015748},{"duration":0.06119791666665719,"midi":72,"time":205.83203125,"velocity":0.3937007874015748},{"duration":0.06119791666665719,"midi":89,"time":205.83203125,"velocity":0.3937007874015748},{"duration":0.059895833333314386,"midi":63,"time":205.84505208333334,"velocity":0.3937007874015748},{"duration":0.05859375,"midi":62,"time":205.86848958333334,"velocity":0.3937007874015748},{"duration":0.05729166666665719,"midi":88,"time":205.88020833333334,"velocity":0.3937007874015748},{"duration":0.16666666666668561,"midi":89,"time":205.89322916666666,"velocity":0.3937007874015748},{"duration":0.16666666666668561,"midi":87,"time":205.89322916666666,"velocity":0.3937007874015748},{"duration":0.1666666666666572,"midi":67,"time":205.90364583333334,"velocity":0.3937007874015748},{"duration":0.05729166666665719,"midi":81,"time":205.90364583333334,"velocity":0.3937007874015748},{"duration":0.1666666666666572,"midi":72,"time":205.90364583333334,"velocity":0.3937007874015748},{"duration":0.1666666666666572,"midi":76,"time":205.90364583333334,"velocity":0.3937007874015748},{"duration":0.05729166666665719,"midi":75,"time":205.9140625,"velocity":0.3937007874015748},{"duration":0.05729166666665719,"midi":63,"time":205.9140625,"velocity":0.3937007874015748},{"duration":0.05729166666665719,"midi":42,"time":205.9140625,"velocity":0.3937007874015748},{"duration":0.05729166666665719,"midi":77,"time":205.9140625,"velocity":0.3937007874015748},{"duration":0.1666666666666572,"midi":91,"time":205.9140625,"velocity":0.3937007874015748},{"duration":0.055989583333314386,"midi":90,"time":205.92708333333334,"velocity":0.3937007874015748},{"duration":0.055989583333314386,"midi":41,"time":205.92708333333334,"velocity":0.3937007874015748},{"duration":0.05598958333334281,"midi":55,"time":205.9375,"velocity":0.3937007874015748},{"duration":0.05598958333334281,"midi":61,"time":205.9375,"velocity":0.3937007874015748},{"duration":0.1666666666666572,"midi":94,"time":205.9375,"velocity":0.3937007874015748},{"duration":0.1666666666666572,"midi":50,"time":205.9375,"velocity":0.3937007874015748},{"duration":0.05598958333334281,"midi":82,"time":205.94791666666666,"velocity":0.3937007874015748},{"duration":0.08854166666668561,"midi":86,"time":205.94791666666666,"velocity":0.3937007874015748},{"duration":0.1666666666666572,"midi":95,"time":205.9609375,"velocity":0.3937007874015748},{"duration":0.0546875,"midi":60,"time":205.9609375,"velocity":0.3937007874015748},{"duration":0.1666666666666572,"midi":74,"time":205.9609375,"velocity":0.3937007874015748},{"duration":0.0546875,"midi":44,"time":205.9609375,"velocity":0.3937007874015748},{"duration":0.0546875,"midi":88,"time":205.97135416666666,"velocity":0.3937007874015748},{"duration":0.0546875,"midi":65,"time":205.97135416666666,"velocity":0.3937007874015748},{"duration":0.0546875,"midi":90,"time":205.97135416666666,"velocity":0.3937007874015748},{"duration":0.0546875,"midi":70,"time":205.97135416666666,"velocity":0.3937007874015748},{"duration":0.16796875,"midi":67,"time":205.98177083333334,"velocity":0.3937007874015748},{"duration":0.13411458333331439,"midi":86,"time":205.98177083333334,"velocity":0.3937007874015748},{"duration":0.05598958333334281,"midi":80,"time":206.00390625,"velocity":0.3937007874015748},{"duration":0.17057291666668561,"midi":89,"time":206.01432291666666,"velocity":0.3937007874015748},{"duration":0.17057291666668561,"midi":84,"time":206.01432291666666,"velocity":0.3937007874015748},{"duration":0.05598958333334281,"midi":69,"time":206.01432291666666,"velocity":0.3937007874015748},{"duration":0.296875,"midi":50,"time":206.02473958333334,"velocity":0.3937007874015748},{"duration":0.171875,"midi":91,"time":206.02473958333334,"velocity":0.3937007874015748},{"duration":0.171875,"midi":84,"time":206.02473958333334,"velocity":0.3937007874015748},{"duration":0.171875,"midi":89,"time":206.02473958333334,"velocity":0.3937007874015748},{"duration":0.055989583333314386,"midi":55,"time":206.02473958333334,"velocity":0.3937007874015748},{"duration":0.055989583333314386,"midi":44,"time":206.02473958333334,"velocity":0.3937007874015748},{"duration":0.171875,"midi":87,"time":206.02473958333334,"velocity":0.3937007874015748},{"duration":0.171875,"midi":81,"time":206.02473958333334,"velocity":0.3937007874015748},{"duration":0.055989583333314386,"midi":77,"time":206.02473958333334,"velocity":0.3937007874015748},{"duration":0.17317708333331439,"midi":88,"time":206.03645833333334,"velocity":0.3937007874015748},{"duration":0.1731770833333428,"midi":43,"time":206.046875,"velocity":0.3937007874015748},{"duration":0.1731770833333428,"midi":82,"time":206.046875,"velocity":0.3937007874015748},{"duration":0.1731770833333428,"midi":85,"time":206.046875,"velocity":0.3937007874015748},{"duration":0.05729166666665719,"midi":31,"time":206.05859375,"velocity":0.3937007874015748},{"duration":0.05859375,"midi":59,"time":206.08072916666666,"velocity":0.3937007874015748},{"duration":0.4244791666666572,"midi":77,"time":206.09114583333334,"velocity":0.3937007874015748},{"duration":0.2994791666666856,"midi":65,"time":206.10416666666666,"velocity":0.3937007874015748},{"duration":0.05859375,"midi":57,"time":206.11588541666666,"velocity":0.3937007874015748},{"duration":0.17578125,"midi":70,"time":206.12630208333334,"velocity":0.3937007874015748},{"duration":0.059895833333314386,"midi":57,"time":206.14973958333334,"velocity":0.3937007874015748},{"duration":0.059895833333314386,"midi":74,"time":206.14973958333334,"velocity":0.3937007874015748},{"duration":0.17578125,"midi":91,"time":206.14973958333334,"velocity":0.3937007874015748},{"duration":0.059895833333314386,"midi":31,"time":206.18489583333334,"velocity":0.3937007874015748},{"duration":0.1744791666666572,"midi":81,"time":206.18489583333334,"velocity":0.3937007874015748},{"duration":0.05859375,"midi":69,"time":206.20833333333334,"velocity":0.3937007874015748},{"duration":0.4231770833333144,"midi":74,"time":206.22005208333334,"velocity":0.3937007874015748},{"duration":0.1744791666666572,"midi":94,"time":206.25390625,"velocity":0.3937007874015748},{"duration":0.05989583333334281,"midi":84,"time":206.25390625,"velocity":0.3937007874015748},{"duration":0.05989583333334281,"midi":57,"time":206.27734375,"velocity":0.3937007874015748},{"duration":0.1744791666666572,"midi":93,"time":206.2890625,"velocity":0.3937007874015748},{"duration":0.1744791666666572,"midi":62,"time":206.2890625,"velocity":0.3937007874015748},{"duration":0.05859375,"midi":72,"time":206.2890625,"velocity":0.3937007874015748},{"duration":0.1744791666666572,"midi":90,"time":206.2890625,"velocity":0.3937007874015748},{"duration":0.17317708333331439,"midi":55,"time":206.30208333333334,"velocity":0.3937007874015748},{"duration":0.17317708333331439,"midi":89,"time":206.30208333333334,"velocity":0.3937007874015748},{"duration":0.17317708333331439,"midi":86,"time":206.30208333333334,"velocity":0.3937007874015748},{"duration":0.2981770833333144,"midi":70,"time":206.30208333333334,"velocity":0.3937007874015748},{"duration":0.17317708333331439,"midi":91,"time":206.30208333333334,"velocity":0.3937007874015748},{"duration":0.1731770833333428,"midi":88,"time":206.32421875,"velocity":0.3937007874015748},{"duration":0.05859375,"midi":84,"time":206.34765625,"velocity":0.3937007874015748},{"duration":0.05859375,"midi":45,"time":206.34765625,"velocity":0.3937007874015748},{"duration":0.42578125,"midi":65,"time":206.35807291666666,"velocity":0.3937007874015748},{"duration":0.05859375,"midi":79,"time":206.36979166666666,"velocity":0.3937007874015748},{"duration":0.05859375,"midi":84,"time":206.40494791666666,"velocity":0.3937007874015748},{"duration":0.05859375,"midi":89,"time":206.46354166666666,"velocity":0.3937007874015748},{"duration":0.059895833333314386,"midi":84,"time":206.47395833333334,"velocity":0.3937007874015748},{"duration":0.059895833333314386,"midi":62,"time":206.50911458333334,"velocity":0.3937007874015748},{"duration":0.1744791666666572,"midi":88,"time":206.50911458333334,"velocity":0.3937007874015748},{"duration":0.05859375,"midi":57,"time":206.55598958333334,"velocity":0.3937007874015748},{"duration":0.1744791666666572,"midi":70,"time":206.55598958333334,"velocity":0.3937007874015748},{"duration":0.05859375,"midi":93,"time":206.57942708333334,"velocity":0.3937007874015748},{"duration":0.05859375,"midi":58,"time":206.60286458333334,"velocity":0.3937007874015748},{"duration":0.140625,"midi":91,"time":206.61458333333334,"velocity":0.3937007874015748},{"duration":0.05989583333334281,"midi":74,"time":206.6484375,"velocity":0.3937007874015748},{"duration":0.05989583333334281,"midi":85,"time":206.67057291666666,"velocity":0.3937007874015748},{"duration":0.3020833333333428,"midi":77,"time":206.67057291666666,"velocity":0.3937007874015748},{"duration":0.05989583333334281,"midi":66,"time":206.67057291666666,"velocity":0.3937007874015748},{"duration":0.1770833333333428,"midi":81,"time":206.67057291666666,"velocity":0.3937007874015748},{"duration":0.1770833333333428,"midi":94,"time":206.67057291666666,"velocity":0.3937007874015748},{"duration":0.07291666666668561,"midi":90,"time":206.67057291666666,"velocity":0.3937007874015748},{"duration":0.05989583333334281,"midi":88,"time":206.68359375,"velocity":0.3937007874015748},{"duration":0.05989583333334281,"midi":88,"time":206.68359375,"velocity":0.3937007874015748},{"duration":0.05989583333334281,"midi":75,"time":206.68359375,"velocity":0.3937007874015748},{"duration":0.05989583333334281,"midi":69,"time":206.68359375,"velocity":0.3937007874015748},{"duration":0.05989583333334281,"midi":72,"time":206.68359375,"velocity":0.3937007874015748},{"duration":0.17578125,"midi":84,"time":206.68359375,"velocity":0.3937007874015748},{"duration":0.1640625,"midi":90,"time":206.68359375,"velocity":0.3937007874015748},{"duration":0.05989583333334281,"midi":61,"time":206.6953125,"velocity":0.3937007874015748},{"duration":0.05989583333334281,"midi":51,"time":206.6953125,"velocity":0.3937007874015748},{"duration":0.09505208333334281,"midi":91,"time":206.6953125,"velocity":0.3937007874015748},{"duration":0.05859375,"midi":68,"time":206.70703125,"velocity":0.3937007874015748},{"duration":0.05859375,"midi":32,"time":206.70703125,"velocity":0.3937007874015748},{"duration":0.05859375,"midi":82,"time":206.70703125,"velocity":0.3937007874015748},{"duration":0.05859375,"midi":50,"time":206.70703125,"velocity":0.3937007874015748},{"duration":0.1744791666666572,"midi":93,"time":206.70703125,"velocity":0.3937007874015748},{"duration":0.3020833333333428,"midi":65,"time":206.71875,"velocity":0.3937007874015748},{"duration":0.3020833333333428,"midi":74,"time":206.71875,"velocity":0.3937007874015748},{"duration":0.17578125,"midi":84,"time":206.71875,"velocity":0.3937007874015748},{"duration":0.17578125,"midi":89,"time":206.71875,"velocity":0.3937007874015748},{"duration":0.05989583333334281,"midi":57,"time":206.71875,"velocity":0.3937007874015748},{"duration":0.05989583333334281,"midi":88,"time":206.73046875,"velocity":0.3937007874015748},{"duration":0.05989583333334281,"midi":31,"time":206.73046875,"velocity":0.3937007874015748},{"duration":0.17578125,"midi":85,"time":206.765625,"velocity":0.3937007874015748},{"duration":0.17578125,"midi":87,"time":206.765625,"velocity":0.3937007874015748},{"duration":0.05989583333334281,"midi":61,"time":206.765625,"velocity":0.3937007874015748},{"duration":0.05859375,"midi":55,"time":206.7890625,"velocity":0.3937007874015748},{"duration":0.05859375,"midi":91,"time":206.7890625,"velocity":0.3937007874015748},{"duration":0.17578125,"midi":70,"time":206.80078125,"velocity":0.3937007874015748},{"duration":0.17578125,"midi":94,"time":206.8359375,"velocity":0.3937007874015748},{"duration":0.05859375,"midi":61,"time":206.84765625,"velocity":0.3937007874015748},{"duration":0.05859375,"midi":88,"time":206.84765625,"velocity":0.3937007874015748},{"duration":0.1770833333333428,"midi":67,"time":206.89322916666666,"velocity":0.3937007874015748},{"duration":0.1770833333333428,"midi":55,"time":206.90494791666666,"velocity":0.3937007874015748},{"duration":0.1770833333333428,"midi":62,"time":206.90494791666666,"velocity":0.3937007874015748},{"duration":0.5494791666666856,"midi":70,"time":206.91666666666666,"velocity":0.3937007874015748},{"duration":0.17838541666668561,"midi":43,"time":206.92838541666666,"velocity":0.3937007874015748},{"duration":0.05989583333334281,"midi":86,"time":206.92838541666666,"velocity":0.3937007874015748},{"duration":0.05989583333334281,"midi":84,"time":206.92838541666666,"velocity":0.3937007874015748},{"duration":0.05989583333334281,"midi":87,"time":206.92838541666666,"velocity":0.3937007874015748},{"duration":0.1796875,"midi":65,"time":206.97526041666666,"velocity":0.3937007874015748},{"duration":0.1796875,"midi":94,"time":206.97526041666666,"velocity":0.3937007874015748},{"duration":0.1796875,"midi":84,"time":207.01041666666666,"velocity":0.3937007874015748},{"duration":0.3033854166666856,"midi":93,"time":207.02213541666666,"velocity":0.3937007874015748},{"duration":0.3033854166666856,"midi":77,"time":207.02213541666666,"velocity":0.3937007874015748},{"duration":0.30078125,"midi":74,"time":207.05729166666666,"velocity":0.3937007874015748},{"duration":0.1770833333333428,"midi":62,"time":207.09375,"velocity":0.3937007874015748},{"duration":0.06119791666665719,"midi":90,"time":207.09375,"velocity":0.3937007874015748},{"duration":0.1666666666666572,"midi":90,"time":207.09375,"velocity":0.3937007874015748},{"duration":0.17708333333331439,"midi":81,"time":207.11848958333334,"velocity":0.3937007874015748},{"duration":0.17708333333331439,"midi":84,"time":207.13020833333334,"velocity":0.3937007874015748},{"duration":0.17578125,"midi":88,"time":207.14192708333334,"velocity":0.3937007874015748},{"duration":0.17447916666668561,"midi":86,"time":207.15494791666666,"velocity":0.3937007874015748},{"duration":0.17447916666668561,"midi":65,"time":207.15494791666666,"velocity":0.3937007874015748},{"duration":0.059895833333314386,"midi":94,"time":207.17708333333334,"velocity":0.3937007874015748},{"duration":0.06901041666668561,"midi":90,"time":207.20182291666666,"velocity":0.3937007874015748},{"duration":0.059895833333314386,"midi":91,"time":207.24739583333334,"velocity":0.3937007874015748},{"duration":0.09114583333331439,"midi":89,"time":207.25911458333334,"velocity":0.3937007874015748},{"duration":0.05859375,"midi":75,"time":207.25911458333334,"velocity":0.3937007874015748},{"duration":0.05859375,"midi":79,"time":207.27083333333334,"velocity":0.3937007874015748},{"duration":0.05859375,"midi":64,"time":207.27083333333334,"velocity":0.3937007874015748},{"duration":0.05859375,"midi":60,"time":207.27083333333334,"velocity":0.3937007874015748},{"duration":0.05859375,"midi":83,"time":207.27083333333334,"velocity":0.3937007874015748},{"duration":0.05729166666665719,"midi":50,"time":207.28255208333334,"velocity":0.3937007874015748},{"duration":0.05729166666665719,"midi":76,"time":207.28255208333334,"velocity":0.3937007874015748},{"duration":0.13411458333331439,"midi":89,"time":207.29427083333334,"velocity":0.3937007874015748},{"duration":0.13411458333331439,"midi":80,"time":207.29427083333334,"velocity":0.3937007874015748},{"duration":0.16796875,"midi":92,"time":207.29427083333334,"velocity":0.3937007874015748},{"duration":0.055989583333314386,"midi":94,"time":207.29427083333334,"velocity":0.3937007874015748},{"duration":0.0546875,"midi":74,"time":207.30729166666666,"velocity":0.3937007874015748},{"duration":0.16796875,"midi":93,"time":207.30729166666666,"velocity":0.3937007874015748},{"duration":0.0546875,"midi":68,"time":207.31770833333334,"velocity":0.3937007874015748},{"duration":0.15755208333331439,"midi":50,"time":207.31770833333334,"velocity":0.3937007874015748},{"duration":0.16796875,"midi":91,"time":207.31770833333334,"velocity":0.3937007874015748},{"duration":0.13411458333331439,"midi":43,"time":207.31770833333334,"velocity":0.3937007874015748},{"duration":0.2864583333333144,"midi":65,"time":207.31770833333334,"velocity":0.3937007874015748},{"duration":0.05598958333334281,"midi":90,"time":207.328125,"velocity":0.3937007874015748},{"duration":0.05598958333334281,"midi":85,"time":207.328125,"velocity":0.3937007874015748},{"duration":0.1341145833333428,"midi":87,"time":207.328125,"velocity":0.3937007874015748},{"duration":0.16796875,"midi":88,"time":207.33984375,"velocity":0.3937007874015748},{"duration":0.057291666666685614,"midi":59,"time":207.35026041666666,"velocity":0.3937007874015748},{"duration":0.057291666666685614,"midi":81,"time":207.35026041666666,"velocity":0.3937007874015748},{"duration":0.05729166666665719,"midi":84,"time":207.36067708333334,"velocity":0.3937007874015748},{"duration":0.09114583333334281,"midi":80,"time":207.37109375,"velocity":0.3937007874015748},{"duration":0.16796875,"midi":93,"time":207.39453125,"velocity":0.3937007874015748},{"duration":0.05729166666665719,"midi":81,"time":207.39453125,"velocity":0.3937007874015748},{"duration":0.09114583333334281,"midi":43,"time":207.39453125,"velocity":0.3937007874015748},{"duration":0.05598958333334281,"midi":78,"time":207.40625,"velocity":0.3937007874015748},{"duration":0.05598958333334281,"midi":85,"time":207.40625,"velocity":0.3937007874015748},{"duration":0.08984375,"midi":87,"time":207.40625,"velocity":0.3937007874015748},{"duration":0.05729166666665719,"midi":90,"time":207.41796875,"velocity":0.3937007874015748},{"duration":0.06770833333334281,"midi":50,"time":207.41796875,"velocity":0.3937007874015748},{"duration":0.057291666666685614,"midi":76,"time":207.42838541666666,"velocity":0.3937007874015748},{"duration":0.05729166666665719,"midi":95,"time":207.43880208333334,"velocity":0.3937007874015748},{"duration":0.05729166666665719,"midi":91,"time":207.43880208333334,"velocity":0.3937007874015748},{"duration":0.16796875,"midi":89,"time":207.43880208333334,"velocity":0.3937007874015748},{"duration":0.05729166666665719,"midi":31,"time":207.43880208333334,"velocity":0.3937007874015748},{"duration":0.05729166666665719,"midi":79,"time":207.43880208333334,"velocity":0.3937007874015748},{"duration":0.05729166666665719,"midi":86,"time":207.43880208333334,"velocity":0.3937007874015748},{"duration":0.4166666666666572,"midi":82,"time":207.43880208333334,"velocity":0.3937007874015748},{"duration":0.05598958333334281,"midi":43,"time":207.45182291666666,"velocity":0.3937007874015748},{"duration":0.16796875,"midi":70,"time":207.45182291666666,"velocity":0.3937007874015748},{"duration":0.16796875,"midi":92,"time":207.45182291666666,"velocity":0.3937007874015748},{"duration":0.055989583333314386,"midi":84,"time":207.46223958333334,"velocity":0.3937007874015748},{"duration":0.055989583333314386,"midi":80,"time":207.46223958333334,"velocity":0.3937007874015748},{"duration":0.055989583333314386,"midi":87,"time":207.46223958333334,"velocity":0.3937007874015748},{"duration":0.0546875,"midi":74,"time":207.47395833333334,"velocity":0.3937007874015748},{"duration":0.0546875,"midi":84,"time":207.48567708333334,"velocity":0.3937007874015748},{"duration":0.0546875,"midi":86,"time":207.48567708333334,"velocity":0.3937007874015748},{"duration":0.16796875,"midi":91,"time":207.48567708333334,"velocity":0.3937007874015748},{"duration":0.05598958333334281,"midi":60,"time":207.49609375,"velocity":0.3937007874015748},{"duration":0.05598958333334281,"midi":44,"time":207.49609375,"velocity":0.3937007874015748},{"duration":0.05598958333334281,"midi":88,"time":207.49609375,"velocity":0.3937007874015748},{"duration":0.05598958333334281,"midi":79,"time":207.50651041666666,"velocity":0.3937007874015748},{"duration":0.4192708333333428,"midi":50,"time":207.50651041666666,"velocity":0.3937007874015748},{"duration":0.055989583333314386,"midi":59,"time":207.51692708333334,"velocity":0.3937007874015748},{"duration":0.055989583333314386,"midi":78,"time":207.51692708333334,"velocity":0.3937007874015748},{"duration":0.055989583333314386,"midi":43,"time":207.52864583333334,"velocity":0.3937007874015748},{"duration":0.05729166666665719,"midi":90,"time":207.5390625,"velocity":0.3937007874015748},{"duration":0.171875,"midi":77,"time":207.5390625,"velocity":0.3937007874015748},{"duration":0.05859375,"midi":84,"time":207.57291666666666,"velocity":0.3937007874015748},{"duration":0.05859375,"midi":31,"time":207.57291666666666,"velocity":0.3937007874015748},{"duration":0.2994791666666572,"midi":69,"time":207.58333333333334,"velocity":0.3937007874015748},{"duration":0.17317708333331439,"midi":43,"time":207.58333333333334,"velocity":0.3937007874015748},{"duration":0.05859375,"midi":59,"time":207.58333333333334,"velocity":0.3937007874015748},{"duration":0.05859375,"midi":31,"time":207.60677083333334,"velocity":0.3937007874015748},{"duration":0.05859375,"midi":65,"time":207.60677083333334,"velocity":0.3937007874015748},{"duration":0.17317708333331439,"midi":86,"time":207.61848958333334,"velocity":0.3937007874015748},{"duration":0.17317708333331439,"midi":84,"time":207.63020833333334,"velocity":0.3937007874015748},{"duration":0.05859375,"midi":85,"time":207.64192708333334,"velocity":0.3937007874015748},{"duration":0.05859375,"midi":92,"time":207.65234375,"velocity":0.3937007874015748},{"duration":0.1744791666666572,"midi":60,"time":207.65234375,"velocity":0.3937007874015748},{"duration":0.05729166666665719,"midi":74,"time":207.6640625,"velocity":0.3937007874015748},{"duration":0.05859375,"midi":65,"time":207.67578125,"velocity":0.3937007874015748},{"duration":0.05859375,"midi":31,"time":207.67578125,"velocity":0.3937007874015748},{"duration":0.42578125,"midi":89,"time":207.67578125,"velocity":0.3937007874015748},{"duration":0.1744791666666572,"midi":43,"time":207.6875,"velocity":0.3937007874015748},{"duration":0.1744791666666572,"midi":86,"time":207.69921875,"velocity":0.3937007874015748},{"duration":0.05989583333334281,"midi":31,"time":207.72135416666666,"velocity":0.3937007874015748},{"duration":0.059895833333314386,"midi":91,"time":207.74348958333334,"velocity":0.3937007874015748},{"duration":0.17578125,"midi":65,"time":207.75651041666666,"velocity":0.3937007874015748},{"duration":0.17447916666668561,"midi":31,"time":207.76822916666666,"velocity":0.3937007874015748},{"duration":0.17447916666668561,"midi":82,"time":207.80338541666666,"velocity":0.3937007874015748},{"duration":0.30078125,"midi":69,"time":207.84895833333334,"velocity":0.3937007874015748},{"duration":0.4244791666666572,"midi":89,"time":207.84895833333334,"velocity":0.3937007874015748},{"duration":0.30078125,"midi":93,"time":207.84895833333334,"velocity":0.3937007874015748},{"duration":0.30078125,"midi":87,"time":207.84895833333334,"velocity":0.3937007874015748},{"duration":0.1875,"midi":84,"time":207.86067708333334,"velocity":0.3937007874015748},{"duration":0.059895833333314386,"midi":86,"time":207.86067708333334,"velocity":0.3937007874015748},{"duration":0.2994791666666572,"midi":77,"time":207.86067708333334,"velocity":0.3937007874015748},{"duration":0.1744791666666572,"midi":60,"time":207.86067708333334,"velocity":0.3937007874015748},{"duration":0.05859375,"midi":65,"time":207.87369791666666,"velocity":0.3937007874015748},{"duration":0.2578125,"midi":84,"time":207.87369791666666,"velocity":0.3937007874015748},{"duration":0.421875,"midi":50,"time":207.88541666666666,"velocity":0.3937007874015748},{"duration":0.17578125,"midi":65,"time":207.93098958333334,"velocity":0.3937007874015748},{"duration":0.17578125,"midi":74,"time":207.93098958333334,"velocity":0.3937007874015748},{"duration":0.05859375,"midi":91,"time":207.93098958333334,"velocity":0.3937007874015748},{"duration":0.1770833333333428,"midi":82,"time":207.96484375,"velocity":0.3937007874015748},{"duration":0.08984375,"midi":84,"time":208.0703125,"velocity":0.3937007874015748},{"duration":0.1744791666666572,"midi":82,"time":208.08203125,"velocity":0.3937007874015748},{"duration":0.05989583333334281,"midi":66,"time":208.08203125,"velocity":0.3937007874015748},{"duration":0.05859375,"midi":86,"time":208.09505208333334,"velocity":0.3937007874015748},{"duration":0.05729166666665719,"midi":65,"time":208.10677083333334,"velocity":0.3937007874015748},{"duration":0.05729166666665719,"midi":70,"time":208.10677083333334,"velocity":0.3937007874015748},{"duration":0.05859375,"midi":64,"time":208.16276041666666,"velocity":0.3937007874015748},{"duration":0.05859375,"midi":70,"time":208.19791666666666,"velocity":0.3937007874015748},{"duration":0.05859375,"midi":86,"time":208.22135416666666,"velocity":0.3937007874015748},{"duration":0.05859375,"midi":86,"time":208.22135416666666,"velocity":0.3937007874015748},{"duration":0.05859375,"midi":48,"time":208.22135416666666,"velocity":0.3937007874015748},{"duration":0.05859375,"midi":66,"time":208.22135416666666,"velocity":0.3937007874015748},{"duration":0.059895833333314386,"midi":89,"time":208.23177083333334,"velocity":0.3937007874015748},{"duration":0.059895833333314386,"midi":87,"time":208.23177083333334,"velocity":0.3937007874015748},{"duration":0.4166666666666572,"midi":88,"time":208.23177083333334,"velocity":0.3937007874015748},{"duration":0.059895833333314386,"midi":81,"time":208.23177083333334,"velocity":0.3937007874015748},{"duration":0.05859375,"midi":71,"time":208.24348958333334,"velocity":0.3937007874015748},{"duration":0.05859375,"midi":45,"time":208.24348958333334,"velocity":0.3937007874015748},{"duration":0.057291666666685614,"midi":42,"time":208.25651041666666,"velocity":0.3937007874015748},{"duration":0.171875,"midi":93,"time":208.25651041666666,"velocity":0.3937007874015748},{"duration":0.171875,"midi":77,"time":208.25651041666666,"velocity":0.3937007874015748},{"duration":0.16015625,"midi":64,"time":208.25651041666666,"velocity":0.3937007874015748},{"duration":0.171875,"midi":85,"time":208.25651041666666,"velocity":0.3937007874015748},{"duration":0.05859375,"midi":37,"time":208.26692708333334,"velocity":0.3937007874015748},{"duration":0.17317708333331439,"midi":68,"time":208.26692708333334,"velocity":0.3937007874015748},{"duration":0.2942708333333144,"midi":90,"time":208.26692708333334,"velocity":0.3937007874015748},{"duration":0.29296875,"midi":95,"time":208.27864583333334,"velocity":0.3937007874015748},{"duration":0.05729166666665719,"midi":41,"time":208.27864583333334,"velocity":0.3937007874015748},{"duration":0.05729166666665719,"midi":44,"time":208.30208333333334,"velocity":0.3937007874015748},{"duration":0.05729166666665719,"midi":53,"time":208.30208333333334,"velocity":0.3937007874015748},{"duration":0.05859375,"midi":92,"time":208.3125,"velocity":0.3937007874015748},{"duration":0.05859375,"midi":61,"time":208.3125,"velocity":0.3937007874015748},{"duration":0.05859375,"midi":67,"time":208.3359375,"velocity":0.3937007874015748},{"duration":0.171875,"midi":45,"time":208.3359375,"velocity":0.3937007874015748},{"duration":0.05859375,"midi":52,"time":208.3359375,"velocity":0.3937007874015748},{"duration":0.05859375,"midi":65,"time":208.3359375,"velocity":0.3937007874015748},{"duration":0.1731770833333428,"midi":84,"time":208.34635416666666,"velocity":0.3937007874015748},{"duration":0.05859375,"midi":32,"time":208.35807291666666,"velocity":0.3937007874015748},{"duration":0.0703125,"midi":64,"time":208.35807291666666,"velocity":0.3937007874015748},{"duration":0.171875,"midi":86,"time":208.35807291666666,"velocity":0.3937007874015748},{"duration":0.05859375,"midi":52,"time":208.38151041666666,"velocity":0.3937007874015748},{"duration":0.17057291666668561,"midi":64,"time":208.39322916666666,"velocity":0.3937007874015748},{"duration":0.057291666666685614,"midi":68,"time":208.39322916666666,"velocity":0.3937007874015748},{"duration":0.057291666666685614,"midi":70,"time":208.40494791666666,"velocity":0.3937007874015748},{"duration":0.17057291666668561,"midi":77,"time":208.40494791666666,"velocity":0.3937007874015748},{"duration":0.15885416666668561,"midi":92,"time":208.40494791666666,"velocity":0.3937007874015748},{"duration":0.057291666666685614,"midi":60,"time":208.40494791666666,"velocity":0.3937007874015748},{"duration":0.05598958333334281,"midi":67,"time":208.41666666666666,"velocity":0.3937007874015748},{"duration":0.05598958333334281,"midi":93,"time":208.41666666666666,"velocity":0.3937007874015748},{"duration":0.05598958333334281,"midi":32,"time":208.41666666666666,"velocity":0.3937007874015748},{"duration":0.1705729166666572,"midi":52,"time":208.42708333333334,"velocity":0.3937007874015748},{"duration":0.1705729166666572,"midi":83,"time":208.45052083333334,"velocity":0.3937007874015748},{"duration":0.1705729166666572,"midi":61,"time":208.4609375,"velocity":0.3937007874015748},{"duration":0.05859375,"midi":68,"time":208.4609375,"velocity":0.3937007874015748},{"duration":0.1705729166666572,"midi":74,"time":208.47265625,"velocity":0.3937007874015748},{"duration":0.05859375,"midi":46,"time":208.47265625,"velocity":0.3937007874015748},{"duration":0.1705729166666572,"midi":72,"time":208.47265625,"velocity":0.3937007874015748},{"duration":0.05859375,"midi":69,"time":208.48307291666666,"velocity":0.3937007874015748},{"duration":0.17057291666668561,"midi":77,"time":208.49479166666666,"velocity":0.3937007874015748},{"duration":0.06901041666668561,"midi":92,"time":208.50651041666666,"velocity":0.3937007874015748},{"duration":0.057291666666685614,"midi":65,"time":208.50651041666666,"velocity":0.3937007874015748},{"duration":0.057291666666685614,"midi":76,"time":208.52994791666666,"velocity":0.3937007874015748},{"duration":0.057291666666685614,"midi":67,"time":208.52994791666666,"velocity":0.3937007874015748},{"duration":0.4153645833333144,"midi":45,"time":208.54036458333334,"velocity":0.3937007874015748},{"duration":0.05729166666665719,"midi":32,"time":208.54036458333334,"velocity":0.3937007874015748},{"duration":0.16927083333331439,"midi":74,"time":208.55208333333334,"velocity":0.3937007874015748},{"duration":0.05729166666665719,"midi":65,"time":208.56380208333334,"velocity":0.3937007874015748},{"duration":0.05729166666665719,"midi":33,"time":208.57421875,"velocity":0.3937007874015748},{"duration":0.2916666666666572,"midi":95,"time":208.58723958333334,"velocity":0.3937007874015748},{"duration":0.055989583333314386,"midi":52,"time":208.58723958333334,"velocity":0.3937007874015748},{"duration":0.05729166666665719,"midi":70,"time":208.59765625,"velocity":0.3937007874015748},{"duration":0.05729166666665719,"midi":65,"time":208.59765625,"velocity":0.3937007874015748},{"duration":0.057291666666685614,"midi":81,"time":208.60807291666666,"velocity":0.3937007874015748},{"duration":0.17057291666668561,"midi":84,"time":208.61979166666666,"velocity":0.3937007874015748},{"duration":0.05598958333334281,"midi":86,"time":208.61979166666666,"velocity":0.3937007874015748},{"duration":0.17057291666668561,"midi":75,"time":208.61979166666666,"velocity":0.3937007874015748},{"duration":0.05598958333334281,"midi":78,"time":208.61979166666666,"velocity":0.3937007874015748},{"duration":0.05598958333334281,"midi":88,"time":208.61979166666666,"velocity":0.3937007874015748},{"duration":0.171875,"midi":62,"time":208.63151041666666,"velocity":0.3937007874015748},{"duration":0.05598958333334281,"midi":72,"time":208.63151041666666,"velocity":0.3937007874015748},{"duration":0.17317708333331439,"midi":65,"time":208.64192708333334,"velocity":0.3937007874015748},{"duration":0.17317708333331439,"midi":88,"time":208.64192708333334,"velocity":0.3937007874015748},{"duration":0.055989583333314386,"midi":33,"time":208.65364583333334,"velocity":0.3937007874015748},{"duration":0.055989583333314386,"midi":82,"time":208.65364583333334,"velocity":0.3937007874015748},{"duration":0.171875,"midi":89,"time":208.65364583333334,"velocity":0.3937007874015748},{"duration":0.17317708333331439,"midi":52,"time":208.66536458333334,"velocity":0.3937007874015748},{"duration":0.1731770833333428,"midi":81,"time":208.67578125,"velocity":0.3937007874015748},{"duration":0.1731770833333428,"midi":76,"time":208.67578125,"velocity":0.3937007874015748},{"duration":0.05859375,"midi":82,"time":208.68619791666666,"velocity":0.3937007874015748},{"duration":0.05859375,"midi":86,"time":208.68619791666666,"velocity":0.3937007874015748},{"duration":0.059895833333314386,"midi":85,"time":208.72005208333334,"velocity":0.3937007874015748},{"duration":0.059895833333314386,"midi":70,"time":208.72005208333334,"velocity":0.3937007874015748},{"duration":0.059895833333314386,"midi":33,"time":208.75520833333334,"velocity":0.3937007874015748},{"duration":0.171875,"midi":90,"time":208.75520833333334,"velocity":0.3937007874015748},{"duration":0.1705729166666572,"midi":76,"time":208.76692708333334,"velocity":0.3937007874015748},{"duration":0.05859375,"midi":61,"time":208.77994791666666,"velocity":0.3937007874015748},{"duration":0.05859375,"midi":88,"time":208.79036458333334,"velocity":0.3937007874015748},{"duration":0.05729166666665719,"midi":62,"time":208.80208333333334,"velocity":0.3937007874015748},{"duration":0.05729166666665719,"midi":33,"time":208.80208333333334,"velocity":0.3937007874015748},{"duration":0.05729166666665719,"midi":72,"time":208.80208333333334,"velocity":0.3937007874015748},{"duration":0.1705729166666572,"midi":81,"time":208.80208333333334,"velocity":0.3937007874015748},{"duration":0.05598958333334281,"midi":52,"time":208.81510416666666,"velocity":0.3937007874015748},{"duration":0.1705729166666572,"midi":95,"time":208.82552083333334,"velocity":0.3937007874015748},{"duration":0.1705729166666572,"midi":67,"time":208.82552083333334,"velocity":0.3937007874015748},{"duration":0.1692708333333428,"midi":89,"time":208.84765625,"velocity":0.3937007874015748},{"duration":0.05729166666665719,"midi":60,"time":208.859375,"velocity":0.3937007874015748},{"duration":0.1692708333333428,"midi":70,"time":208.859375,"velocity":0.3937007874015748},{"duration":0.05729166666665719,"midi":85,"time":208.859375,"velocity":0.3937007874015748},{"duration":0.05729166666665719,"midi":92,"time":208.859375,"velocity":0.3937007874015748},{"duration":0.057291666666685614,"midi":74,"time":208.86979166666666,"velocity":0.3937007874015748},{"duration":0.16927083333331439,"midi":81,"time":208.90364583333334,"velocity":0.3937007874015748},{"duration":0.05859375,"midi":88,"time":208.90364583333334,"velocity":0.3937007874015748},{"duration":0.05729166666665719,"midi":62,"time":208.91536458333334,"velocity":0.3937007874015748},{"duration":0.05729166666665719,"midi":34,"time":208.91536458333334,"velocity":0.3937007874015748},{"duration":0.05729166666665719,"midi":90,"time":208.91536458333334,"velocity":0.3937007874015748},{"duration":0.16927083333331439,"midi":65,"time":208.92708333333334,"velocity":0.3937007874015748},{"duration":0.05859375,"midi":61,"time":208.9375,"velocity":0.3937007874015748},{"duration":0.05859375,"midi":47,"time":208.9375,"velocity":0.3937007874015748},{"duration":0.05729166666665719,"midi":84,"time":208.94921875,"velocity":0.3937007874015748},{"duration":0.05729166666665719,"midi":74,"time":208.94921875,"velocity":0.3937007874015748},{"duration":0.05729166666665719,"midi":69,"time":208.94921875,"velocity":0.3937007874015748},{"duration":0.05729166666665719,"midi":33,"time":208.94921875,"velocity":0.3937007874015748},{"duration":0.055989583333314386,"midi":46,"time":208.96223958333334,"velocity":0.3937007874015748},{"duration":0.1692708333333428,"midi":72,"time":208.97265625,"velocity":0.3937007874015748},{"duration":0.057291666666685614,"midi":61,"time":208.98307291666666,"velocity":0.3937007874015748},{"duration":0.05598958333334281,"midi":47,"time":208.99479166666666,"velocity":0.3937007874015748},{"duration":0.1692708333333428,"midi":53,"time":208.99479166666666,"velocity":0.3937007874015748},{"duration":0.1692708333333428,"midi":74,"time":208.99479166666666,"velocity":0.3937007874015748},{"duration":0.05598958333334281,"midi":85,"time":209.00651041666666,"velocity":0.3937007874015748},{"duration":0.05598958333334281,"midi":64,"time":209.00651041666666,"velocity":0.3937007874015748},{"duration":0.05598958333334281,"midi":84,"time":209.00651041666666,"velocity":0.3937007874015748},{"duration":0.055989583333314386,"midi":40,"time":209.01692708333334,"velocity":0.3937007874015748},{"duration":0.1705729166666572,"midi":89,"time":209.02734375,"velocity":0.3937007874015748},{"duration":0.05729166666665719,"midi":63,"time":209.02734375,"velocity":0.3937007874015748},{"duration":0.05729166666665719,"midi":37,"time":209.02734375,"velocity":0.3937007874015748},{"duration":0.05729166666665719,"midi":69,"time":209.02734375,"velocity":0.3937007874015748},{"duration":0.1705729166666572,"midi":81,"time":209.02734375,"velocity":0.3937007874015748},{"duration":0.05729166666665719,"midi":90,"time":209.05078125,"velocity":0.3937007874015748},{"duration":0.05729166666665719,"midi":77,"time":209.05078125,"velocity":0.3937007874015748},{"duration":0.05729166666665719,"midi":31,"time":209.05078125,"velocity":0.3937007874015748},{"duration":0.057291666666685614,"midi":63,"time":209.06119791666666,"velocity":0.3937007874015748},{"duration":0.7825520833333428,"midi":46,"time":209.06119791666666,"velocity":0.3937007874015748},{"duration":0.171875,"midi":69,"time":209.07291666666666,"velocity":0.3937007874015748},{"duration":0.05859375,"midi":85,"time":209.09505208333334,"velocity":0.3937007874015748},{"duration":0.171875,"midi":76,"time":209.09505208333334,"velocity":0.3937007874015748},{"duration":0.16145833333331439,"midi":53,"time":209.09505208333334,"velocity":0.3937007874015748},{"duration":0.171875,"midi":72,"time":209.11848958333334,"velocity":0.3937007874015748},{"duration":0.05859375,"midi":62,"time":209.11848958333334,"velocity":0.3937007874015748},{"duration":0.05859375,"midi":84,"time":209.12890625,"velocity":0.3937007874015748},{"duration":0.1705729166666572,"midi":86,"time":209.15364583333334,"velocity":0.3937007874015748},{"duration":0.1705729166666572,"midi":90,"time":209.1640625,"velocity":0.3937007874015748},{"duration":0.2955729166666572,"midi":74,"time":209.1640625,"velocity":0.3937007874015748},{"duration":0.1705729166666572,"midi":70,"time":209.1640625,"velocity":0.3937007874015748},{"duration":0.05729166666665719,"midi":68,"time":209.17578125,"velocity":0.3937007874015748},{"duration":0.2955729166666572,"midi":65,"time":209.1875,"velocity":0.3937007874015748},{"duration":0.06901041666668561,"midi":53,"time":209.19791666666666,"velocity":0.3937007874015748},{"duration":0.2955729166666856,"midi":84,"time":209.20963541666666,"velocity":0.3937007874015748},{"duration":0.057291666666685614,"midi":53,"time":209.23307291666666,"velocity":0.3937007874015748},{"duration":0.17317708333331439,"midi":93,"time":209.24348958333334,"velocity":0.3937007874015748},{"duration":0.05729166666665719,"midi":34,"time":209.25520833333334,"velocity":0.3937007874015748},{"duration":0.05729166666665719,"midi":81,"time":209.26692708333334,"velocity":0.3937007874015748},{"duration":0.1731770833333428,"midi":86,"time":209.30078125,"velocity":0.3937007874015748},{"duration":0.05729166666665719,"midi":53,"time":209.30078125,"velocity":0.3937007874015748},{"duration":0.05729166666665719,"midi":88,"time":209.3125,"velocity":0.3937007874015748},{"duration":0.1744791666666572,"midi":53,"time":209.33333333333334,"velocity":0.3937007874015748},{"duration":0.1744791666666572,"midi":69,"time":209.35677083333334,"velocity":0.3937007874015748},{"duration":0.06119791666665719,"midi":90,"time":209.38020833333334,"velocity":0.3937007874015748},{"duration":0.17317708333331439,"midi":88,"time":209.39192708333334,"velocity":0.3937007874015748},{"duration":0.1393229166666572,"midi":82,"time":209.39192708333334,"velocity":0.3937007874015748},{"duration":0.17317708333331439,"midi":86,"time":209.39192708333334,"velocity":0.3937007874015748},{"duration":0.17317708333331439,"midi":91,"time":209.39192708333334,"velocity":0.3937007874015748},{"duration":0.059895833333314386,"midi":75,"time":209.39192708333334,"velocity":0.3937007874015748},{"duration":0.05859375,"midi":63,"time":209.40364583333334,"velocity":0.3937007874015748},{"duration":0.15885416666668561,"midi":80,"time":209.41666666666666,"velocity":0.3937007874015748},{"duration":0.057291666666685614,"midi":65,"time":209.42838541666666,"velocity":0.3937007874015748},{"duration":0.057291666666685614,"midi":76,"time":209.42838541666666,"velocity":0.3937007874015748},{"duration":0.1692708333333428,"midi":69,"time":209.44010416666666,"velocity":0.3937007874015748},{"duration":0.057291666666685614,"midi":87,"time":209.45182291666666,"velocity":0.3937007874015748},{"duration":0.057291666666685614,"midi":75,"time":209.45182291666666,"velocity":0.3937007874015748},{"duration":0.05859375,"midi":79,"time":209.47265625,"velocity":0.3937007874015748},{"duration":0.09244791666665719,"midi":82,"time":209.47265625,"velocity":0.3937007874015748},{"duration":0.4127604166666572,"midi":86,"time":209.47265625,"velocity":0.3937007874015748},{"duration":0.05859375,"midi":63,"time":209.49609375,"velocity":0.3937007874015748},{"duration":0.05859375,"midi":67,"time":209.49609375,"velocity":0.3937007874015748},{"duration":0.05729166666665719,"midi":76,"time":209.5078125,"velocity":0.3937007874015748},{"duration":0.7864583333333428,"midi":93,"time":209.51822916666666,"velocity":0.3937007874015748},{"duration":0.06901041666668561,"midi":80,"time":209.51822916666666,"velocity":0.3937007874015748},{"duration":0.057291666666685614,"midi":34,"time":209.51822916666666,"velocity":0.3937007874015748},{"duration":0.05598958333334281,"midi":83,"time":209.53125,"velocity":0.3937007874015748},{"duration":0.057291666666685614,"midi":64,"time":209.54166666666666,"velocity":0.3937007874015748},{"duration":0.171875,"midi":69,"time":209.54166666666666,"velocity":0.3937007874015748},{"duration":0.05598958333334281,"midi":81,"time":209.55338541666666,"velocity":0.3937007874015748},{"duration":0.4127604166666856,"midi":89,"time":209.55338541666666,"velocity":0.3937007874015748},{"duration":0.1380208333333428,"midi":77,"time":209.56510416666666,"velocity":0.3937007874015748},{"duration":0.17057291666668561,"midi":84,"time":209.56510416666666,"velocity":0.3937007874015748},{"duration":0.05729166666665719,"midi":74,"time":209.57552083333334,"velocity":0.3937007874015748},{"duration":0.171875,"midi":82,"time":209.57552083333334,"velocity":0.3937007874015748},{"duration":0.171875,"midi":65,"time":209.5859375,"velocity":0.3937007874015748},{"duration":0.171875,"midi":34,"time":209.609375,"velocity":0.3937007874015748},{"duration":0.09244791666668561,"midi":77,"time":209.64322916666666,"velocity":0.3937007874015748},{"duration":0.05859375,"midi":53,"time":209.65494791666666,"velocity":0.3937007874015748},{"duration":0.057291666666685614,"midi":81,"time":209.66666666666666,"velocity":0.3937007874015748},{"duration":0.057291666666685614,"midi":70,"time":209.66666666666666,"velocity":0.3937007874015748},{"duration":0.1692708333333428,"midi":74,"time":209.66666666666666,"velocity":0.3937007874015748},{"duration":0.16796875,"midi":65,"time":209.69010416666666,"velocity":0.3937007874015748},{"duration":0.16796875,"midi":34,"time":209.69010416666666,"velocity":0.3937007874015748},{"duration":0.057291666666685614,"midi":76,"time":209.69010416666666,"velocity":0.3937007874015748},{"duration":0.05729166666665719,"midi":70,"time":209.71223958333334,"velocity":0.3937007874015748},{"duration":0.29296875,"midi":84,"time":209.72395833333334,"velocity":0.3937007874015748},{"duration":0.05859375,"midi":62,"time":209.734375,"velocity":0.3937007874015748},{"duration":0.05729166666665719,"midi":81,"time":209.74609375,"velocity":0.3937007874015748},{"duration":0.05729166666665719,"midi":45,"time":209.74609375,"velocity":0.3937007874015748},{"duration":0.2942708333333428,"midi":84,"time":209.7578125,"velocity":0.3937007874015748},{"duration":0.05729166666665719,"midi":69,"time":209.7578125,"velocity":0.3937007874015748},{"duration":0.05729166666665719,"midi":90,"time":209.7578125,"velocity":0.3937007874015748},{"duration":0.05598958333334281,"midi":94,"time":209.76953125,"velocity":0.3937007874015748},{"duration":0.05598958333334281,"midi":82,"time":209.76953125,"velocity":0.3937007874015748},{"duration":0.16796875,"midi":77,"time":209.76953125,"velocity":0.3937007874015748},{"duration":0.05598958333334281,"midi":50,"time":209.77994791666666,"velocity":0.3937007874015748},{"duration":0.05598958333334281,"midi":72,"time":209.77994791666666,"velocity":0.3937007874015748},{"duration":0.05598958333334281,"midi":68,"time":209.77994791666666,"velocity":0.3937007874015748},{"duration":0.16796875,"midi":65,"time":209.77994791666666,"velocity":0.3937007874015748},{"duration":0.05598958333334281,"midi":91,"time":209.77994791666666,"velocity":0.3937007874015748},{"duration":0.16796875,"midi":87,"time":209.79296875,"velocity":0.3937007874015748},{"duration":0.0546875,"midi":61,"time":209.79296875,"velocity":0.3937007874015748},{"duration":0.0546875,"midi":88,"time":209.80338541666666,"velocity":0.3937007874015748},{"duration":0.0546875,"midi":69,"time":209.80338541666666,"velocity":0.3937007874015748},{"duration":0.1705729166666572,"midi":81,"time":209.81380208333334,"velocity":0.3937007874015748},{"duration":0.05598958333334281,"midi":32,"time":209.82421875,"velocity":0.3937007874015748},{"duration":0.296875,"midi":86,"time":209.8359375,"velocity":0.3937007874015748},{"duration":0.05598958333334281,"midi":69,"time":209.84635416666666,"velocity":0.3937007874015748},{"duration":0.05729166666665719,"midi":74,"time":209.85677083333334,"velocity":0.3937007874015748},{"duration":0.17578125,"midi":65,"time":209.86848958333334,"velocity":0.3937007874015748},{"duration":0.1744791666666572,"midi":62,"time":209.88020833333334,"velocity":0.3937007874015748},{"duration":0.05729166666665719,"midi":70,"time":209.88020833333334,"velocity":0.3937007874015748},{"duration":0.17578125,"midi":88,"time":209.90234375,"velocity":0.3937007874015748},{"duration":0.061197916666685614,"midi":83,"time":209.94791666666666,"velocity":0.3937007874015748},{"duration":0.17578125,"midi":58,"time":209.95963541666666,"velocity":0.3937007874015748},{"duration":0.17578125,"midi":65,"time":209.97135416666666,"velocity":0.3937007874015748},{"duration":0.17578125,"midi":46,"time":209.97135416666666,"velocity":0.3937007874015748},{"duration":0.17578125,"midi":76,"time":209.984375,"velocity":0.3937007874015748},{"duration":0.05989583333334281,"midi":74,"time":209.984375,"velocity":0.3937007874015748},{"duration":0.05989583333334281,"midi":79,"time":209.984375,"velocity":0.3937007874015748},{"duration":0.05989583333334281,"midi":92,"time":209.984375,"velocity":0.3937007874015748},{"duration":0.17578125,"midi":81,"time":209.99609375,"velocity":0.3937007874015748},{"duration":0.1744791666666572,"midi":89,"time":210.0078125,"velocity":0.3937007874015748},{"duration":0.05859375,"midi":90,"time":210.0078125,"velocity":0.3937007874015748},{"duration":0.05859375,"midi":67,"time":210.03125,"velocity":0.3937007874015748},{"duration":0.05859375,"midi":92,"time":210.04296875,"velocity":0.3937007874015748},{"duration":0.1744791666666572,"midi":74,"time":210.04296875,"velocity":0.3937007874015748},{"duration":0.1744791666666572,"midi":84,"time":210.0546875,"velocity":0.3937007874015748},{"duration":0.1731770833333428,"midi":77,"time":210.06640625,"velocity":0.3937007874015748},{"duration":0.05989583333334281,"midi":65,"time":210.11197916666666,"velocity":0.3937007874015748},{"duration":0.1731770833333428,"midi":69,"time":210.11197916666666,"velocity":0.3937007874015748},{"duration":0.05859375,"midi":95,"time":210.15885416666666,"velocity":0.3937007874015748},{"duration":0.05859375,"midi":92,"time":210.15885416666666,"velocity":0.3937007874015748},{"duration":0.4231770833333428,"midi":76,"time":210.15885416666666,"velocity":0.3937007874015748},{"duration":0.171875,"midi":90,"time":210.171875,"velocity":0.3937007874015748},{"duration":0.171875,"midi":80,"time":210.171875,"velocity":0.3937007874015748},{"duration":0.05729166666665719,"midi":64,"time":210.171875,"velocity":0.3937007874015748},{"duration":0.296875,"midi":83,"time":210.171875,"velocity":0.3937007874015748},{"duration":0.05859375,"midi":65,"time":210.20442708333334,"velocity":0.3937007874015748},{"duration":0.10416666666665719,"midi":86,"time":210.20442708333334,"velocity":0.3937007874015748},{"duration":0.057291666666685614,"midi":84,"time":210.21744791666666,"velocity":0.3937007874015748},{"duration":0.05729166666665719,"midi":70,"time":210.22786458333334,"velocity":0.3937007874015748},{"duration":0.05729166666665719,"midi":74,"time":210.22786458333334,"velocity":0.3937007874015748},{"duration":0.1744791666666572,"midi":79,"time":210.23828125,"velocity":0.3937007874015748},{"duration":0.1276041666666572,"midi":86,"time":210.25130208333334,"velocity":0.3937007874015748},{"duration":0.17317708333331439,"midi":92,"time":210.26302083333334,"velocity":0.3937007874015748},{"duration":0.05729166666665719,"midi":64,"time":210.26302083333334,"velocity":0.3937007874015748},{"duration":0.1744791666666572,"midi":81,"time":210.2734375,"velocity":0.3937007874015748},{"duration":0.17447916666668561,"midi":86,"time":210.30729166666666,"velocity":0.3937007874015748},{"duration":0.17447916666668561,"midi":90,"time":210.30729166666666,"velocity":0.3937007874015748},{"duration":0.05989583333334281,"midi":65,"time":210.34244791666666,"velocity":0.3937007874015748},{"duration":0.17447916666668561,"midi":86,"time":210.34244791666666,"velocity":0.3937007874015748},{"duration":0.05859375,"midi":60,"time":210.35416666666666,"velocity":0.3937007874015748},{"duration":0.05859375,"midi":64,"time":210.3671875,"velocity":0.3937007874015748},{"duration":0.1744791666666572,"midi":53,"time":210.3671875,"velocity":0.3937007874015748},{"duration":0.1744791666666572,"midi":46,"time":210.40234375,"velocity":0.3937007874015748},{"duration":0.05859375,"midi":32,"time":210.40234375,"velocity":0.3937007874015748},{"duration":0.05859375,"midi":63,"time":210.40234375,"velocity":0.3937007874015748},{"duration":0.05859375,"midi":67,"time":210.41276041666666,"velocity":0.3937007874015748},{"duration":0.05859375,"midi":35,"time":210.43619791666666,"velocity":0.3937007874015748},{"duration":0.171875,"midi":34,"time":210.45963541666666,"velocity":0.3937007874015748},{"duration":0.171875,"midi":86,"time":210.45963541666666,"velocity":0.3937007874015748},{"duration":0.15104166666668561,"midi":89,"time":210.45963541666666,"velocity":0.3937007874015748},{"duration":0.171875,"midi":62,"time":210.47005208333334,"velocity":0.3937007874015748},{"duration":0.059895833333314386,"midi":77,"time":210.49348958333334,"velocity":0.3937007874015748},{"duration":0.059895833333314386,"midi":76,"time":210.52864583333334,"velocity":0.3937007874015748},{"duration":0.05859375,"midi":68,"time":210.54036458333334,"velocity":0.3937007874015748},{"duration":0.05859375,"midi":54,"time":210.54036458333334,"velocity":0.3937007874015748},{"duration":0.078125,"midi":89,"time":210.55338541666666,"velocity":0.3937007874015748},{"duration":0.057291666666685614,"midi":93,"time":210.55338541666666,"velocity":0.3937007874015748},{"duration":0.057291666666685614,"midi":94,"time":210.55338541666666,"velocity":0.3937007874015748},{"duration":0.05729166666665719,"midi":85,"time":210.56380208333334,"velocity":0.3937007874015748},{"duration":0.05729166666665719,"midi":59,"time":210.56380208333334,"velocity":0.3937007874015748},{"duration":0.05729166666665719,"midi":77,"time":210.56380208333334,"velocity":0.3937007874015748},{"duration":0.05729166666665719,"midi":87,"time":210.56380208333334,"velocity":0.3937007874015748},{"duration":0.055989583333314386,"midi":88,"time":210.57552083333334,"velocity":0.3937007874015748},{"duration":0.171875,"midi":81,"time":210.57552083333334,"velocity":0.3937007874015748},{"duration":0.171875,"midi":90,"time":210.57552083333334,"velocity":0.3937007874015748},{"duration":0.055989583333314386,"midi":75,"time":210.57552083333334,"velocity":0.3937007874015748},{"duration":0.055989583333314386,"midi":63,"time":210.57552083333334,"velocity":0.3937007874015748},{"duration":0.055989583333314386,"midi":91,"time":210.57552083333334,"velocity":0.3937007874015748},{"duration":0.055989583333314386,"midi":41,"time":210.57552083333334,"velocity":0.3937007874015748},{"duration":0.79296875,"midi":53,"time":210.58723958333334,"velocity":0.3937007874015748},{"duration":0.1705729166666572,"midi":84,"time":210.58723958333334,"velocity":0.3937007874015748},{"duration":0.2981770833333144,"midi":86,"time":210.58723958333334,"velocity":0.3937007874015748},{"duration":0.79296875,"midi":46,"time":210.59895833333334,"velocity":0.3937007874015748},{"duration":0.171875,"midi":93,"time":210.59895833333334,"velocity":0.3937007874015748},{"duration":0.171875,"midi":68,"time":210.59895833333334,"velocity":0.3937007874015748},{"duration":0.055989583333314386,"midi":88,"time":210.59895833333334,"velocity":0.3937007874015748},{"duration":0.05729166666665719,"midi":76,"time":210.609375,"velocity":0.3937007874015748},{"duration":0.057291666666685614,"midi":62,"time":210.61979166666666,"velocity":0.3937007874015748},{"duration":0.057291666666685614,"midi":75,"time":210.63151041666666,"velocity":0.3937007874015748},{"duration":0.05859375,"midi":82,"time":210.64192708333334,"velocity":0.3937007874015748},{"duration":0.05859375,"midi":78,"time":210.64192708333334,"velocity":0.3937007874015748},{"duration":0.05859375,"midi":94,"time":210.64192708333334,"velocity":0.3937007874015748},{"duration":0.05859375,"midi":63,"time":210.65364583333334,"velocity":0.3937007874015748},{"duration":0.05859375,"midi":85,"time":210.65364583333334,"velocity":0.3937007874015748},{"duration":0.17578125,"midi":95,"time":210.67708333333334,"velocity":0.3937007874015748},{"duration":0.17578125,"midi":83,"time":210.67708333333334,"velocity":0.3937007874015748},{"duration":0.17578125,"midi":88,"time":210.67708333333334,"velocity":0.3937007874015748},{"duration":0.4244791666666572,"midi":81,"time":210.67708333333334,"velocity":0.3937007874015748},{"duration":0.17578125,"midi":90,"time":210.67708333333334,"velocity":0.3937007874015748},{"duration":0.17578125,"midi":92,"time":210.67708333333334,"velocity":0.3937007874015748},{"duration":0.17578125,"midi":76,"time":210.67708333333334,"velocity":0.3937007874015748},{"duration":0.17578125,"midi":74,"time":210.67708333333334,"velocity":0.3937007874015748},{"duration":0.1770833333333428,"midi":64,"time":210.6875,"velocity":0.3937007874015748},{"duration":0.1770833333333428,"midi":79,"time":210.6875,"velocity":0.3937007874015748},{"duration":0.05989583333334281,"midi":34,"time":210.6875,"velocity":0.3937007874015748},{"duration":0.1770833333333428,"midi":68,"time":210.734375,"velocity":0.3937007874015748},{"duration":0.1770833333333428,"midi":34,"time":210.734375,"velocity":0.3937007874015748},{"duration":0.05989583333334281,"midi":70,"time":210.734375,"velocity":0.3937007874015748},{"duration":0.059895833333314386,"midi":60,"time":210.74739583333334,"velocity":0.3937007874015748},{"duration":0.059895833333314386,"midi":63,"time":210.78255208333334,"velocity":0.3937007874015748},{"duration":0.4244791666666572,"midi":34,"time":210.82942708333334,"velocity":0.3937007874015748},{"duration":0.1744791666666572,"midi":93,"time":210.86458333333334,"velocity":0.3937007874015748},{"duration":0.17317708333331439,"midi":74,"time":210.87630208333334,"velocity":0.3937007874015748},{"duration":0.059895833333314386,"midi":76,"time":210.91145833333334,"velocity":0.3937007874015748},{"duration":0.05859375,"midi":83,"time":210.92317708333334,"velocity":0.3937007874015748},{"duration":0.05859375,"midi":68,"time":210.94661458333334,"velocity":0.3937007874015748},{"duration":0.05859375,"midi":64,"time":210.94661458333334,"velocity":0.3937007874015748},{"duration":0.05859375,"midi":88,"time":210.95833333333334,"velocity":0.3937007874015748},{"duration":0.05859375,"midi":60,"time":210.95833333333334,"velocity":0.3937007874015748},{"duration":0.05729166666665719,"midi":63,"time":210.97005208333334,"velocity":0.3937007874015748},{"duration":0.05729166666665719,"midi":76,"time":210.98177083333334,"velocity":0.3937007874015748},{"duration":0.05729166666665719,"midi":92,"time":210.98177083333334,"velocity":0.3937007874015748},{"duration":0.05729166666665719,"midi":90,"time":210.9921875,"velocity":0.3937007874015748},{"duration":0.05729166666665719,"midi":84,"time":210.9921875,"velocity":0.3937007874015748},{"duration":0.05729166666665719,"midi":62,"time":211.00390625,"velocity":0.3937007874015748},{"duration":0.05729166666665719,"midi":63,"time":211.02734375,"velocity":0.3937007874015748},{"duration":0.05859375,"midi":88,"time":211.03776041666666,"velocity":0.3937007874015748},{"duration":0.17578125,"midi":81,"time":211.08333333333334,"velocity":0.3937007874015748},{"duration":0.06119791666665719,"midi":95,"time":211.10677083333334,"velocity":0.3937007874015748},{"duration":0.1744791666666572,"midi":61,"time":211.11848958333334,"velocity":0.3937007874015748},{"duration":0.1731770833333428,"midi":74,"time":211.13151041666666,"velocity":0.3937007874015748},{"duration":0.05989583333334281,"midi":88,"time":211.13151041666666,"velocity":0.3937007874015748},{"duration":0.13932291666668561,"midi":88,"time":211.13151041666666,"velocity":0.3937007874015748},{"duration":0.1731770833333428,"midi":90,"time":211.14322916666666,"velocity":0.3937007874015748},{"duration":0.1731770833333428,"midi":84,"time":211.14322916666666,"velocity":0.3937007874015748},{"duration":0.1497395833333428,"midi":73,"time":211.17838541666666,"velocity":0.3937007874015748},{"duration":0.171875,"midi":94,"time":211.17838541666666,"velocity":0.3937007874015748},{"duration":0.171875,"midi":89,"time":211.17838541666666,"velocity":0.3937007874015748},{"duration":0.05859375,"midi":66,"time":211.17838541666666,"velocity":0.3937007874015748},{"duration":0.171875,"midi":89,"time":211.17838541666666,"velocity":0.3937007874015748},{"duration":0.05859375,"midi":78,"time":211.20052083333334,"velocity":0.3937007874015748},{"duration":0.171875,"midi":86,"time":211.20052083333334,"velocity":0.3937007874015748},{"duration":0.05859375,"midi":34,"time":211.20052083333334,"velocity":0.3937007874015748},{"duration":0.17057291666668561,"midi":80,"time":211.21354166666666,"velocity":0.3937007874015748},{"duration":0.13671875,"midi":62,"time":211.21354166666666,"velocity":0.3937007874015748},{"duration":0.09114583333334281,"midi":88,"time":211.21354166666666,"velocity":0.3937007874015748},{"duration":0.05729166666665719,"midi":34,"time":211.23567708333334,"velocity":0.3937007874015748},{"duration":0.16927083333331439,"midi":88,"time":211.24739583333334,"velocity":0.3937007874015748},{"duration":0.15755208333331439,"midi":81,"time":211.25911458333334,"velocity":0.3937007874015748},{"duration":0.08072916666665719,"midi":73,"time":211.26953125,"velocity":0.3937007874015748},{"duration":0.16796875,"midi":34,"time":211.26953125,"velocity":0.3937007874015748},{"duration":0.05859375,"midi":95,"time":211.28125,"velocity":0.3937007874015748},{"duration":0.2903645833333428,"midi":77,"time":211.28125,"velocity":0.3937007874015748},{"duration":0.16796875,"midi":74,"time":211.29296875,"velocity":0.3937007874015748},{"duration":0.16796875,"midi":86,"time":211.29296875,"velocity":0.3937007874015748},{"duration":0.09114583333334281,"midi":62,"time":211.29296875,"velocity":0.3937007874015748},{"duration":0.16796875,"midi":84,"time":211.30338541666666,"velocity":0.3937007874015748},{"duration":0.057291666666685614,"midi":76,"time":211.31510416666666,"velocity":0.3937007874015748},{"duration":0.16666666666668561,"midi":90,"time":211.31510416666666,"velocity":0.3937007874015748},{"duration":0.05598958333334281,"midi":61,"time":211.328125,"velocity":0.3937007874015748},{"duration":0.05598958333334281,"midi":51,"time":211.33854166666666,"velocity":0.3937007874015748},{"duration":0.05598958333334281,"midi":68,"time":211.33854166666666,"velocity":0.3937007874015748},{"duration":0.05598958333334281,"midi":82,"time":211.33854166666666,"velocity":0.3937007874015748},{"duration":0.16796875,"midi":95,"time":211.34895833333334,"velocity":0.3937007874015748},{"duration":0.055989583333314386,"midi":60,"time":211.34895833333334,"velocity":0.3937007874015748},{"duration":0.16796875,"midi":88,"time":211.34895833333334,"velocity":0.3937007874015748},{"duration":0.06640625,"midi":81,"time":211.36067708333334,"velocity":0.3937007874015748},{"duration":0.055989583333314386,"midi":42,"time":211.36067708333334,"velocity":0.3937007874015748},{"duration":0.16796875,"midi":65,"time":211.36067708333334,"velocity":0.3937007874015748},{"duration":0.055989583333314386,"midi":50,"time":211.36067708333334,"velocity":0.3937007874015748},{"duration":0.2903645833333144,"midi":70,"time":211.36067708333334,"velocity":0.3937007874015748},{"duration":0.0546875,"midi":91,"time":211.37239583333334,"velocity":0.3937007874015748},{"duration":0.16796875,"midi":89,"time":211.37239583333334,"velocity":0.3937007874015748},{"duration":0.0546875,"midi":76,"time":211.3828125,"velocity":0.3937007874015748},{"duration":0.0546875,"midi":61,"time":211.3828125,"velocity":0.3937007874015748},{"duration":0.05598958333334281,"midi":53,"time":211.40494791666666,"velocity":0.3937007874015748},{"duration":0.055989583333314386,"midi":73,"time":211.41536458333334,"velocity":0.3937007874015748},{"duration":0.1705729166666572,"midi":93,"time":211.42708333333334,"velocity":0.3937007874015748},{"duration":0.1705729166666572,"midi":81,"time":211.42708333333334,"velocity":0.3937007874015748},{"duration":0.1705729166666572,"midi":74,"time":211.4375,"velocity":0.3937007874015748},{"duration":0.05859375,"midi":46,"time":211.44791666666666,"velocity":0.3937007874015748},{"duration":0.05859375,"midi":53,"time":211.44791666666666,"velocity":0.3937007874015748},{"duration":0.06901041666668561,"midi":90,"time":211.44791666666666,"velocity":0.3937007874015748},{"duration":0.057291666666685614,"midi":34,"time":211.45963541666666,"velocity":0.3937007874015748},{"duration":0.16015625,"midi":90,"time":211.45963541666666,"velocity":0.3937007874015748},{"duration":0.05859375,"midi":61,"time":211.48177083333334,"velocity":0.3937007874015748},{"duration":0.2942708333333144,"midi":89,"time":211.49348958333334,"velocity":0.3937007874015748},{"duration":0.1705729166666572,"midi":65,"time":211.49348958333334,"velocity":0.3937007874015748},{"duration":0.057291666666685614,"midi":35,"time":211.50651041666666,"velocity":0.3937007874015748},{"duration":0.057291666666685614,"midi":88,"time":211.50651041666666,"velocity":0.3937007874015748},{"duration":0.057291666666685614,"midi":84,"time":211.50651041666666,"velocity":0.3937007874015748},{"duration":0.28515625,"midi":81,"time":211.51692708333334,"velocity":0.3937007874015748},{"duration":0.05859375,"midi":45,"time":211.52734375,"velocity":0.3937007874015748},{"duration":0.05729166666665719,"midi":61,"time":211.54036458333334,"velocity":0.3937007874015748},{"duration":0.05729166666665719,"midi":45,"time":211.5625,"velocity":0.3937007874015748},{"duration":0.05729166666665719,"midi":61,"time":211.5859375,"velocity":0.3937007874015748},{"duration":0.057291666666685614,"midi":53,"time":211.59635416666666,"velocity":0.3937007874015748},{"duration":0.171875,"midi":88,"time":211.60677083333334,"velocity":0.3937007874015748},{"duration":0.05729166666665719,"midi":45,"time":211.64192708333334,"velocity":0.3937007874015748},{"duration":0.05729166666665719,"midi":35,"time":211.64192708333334,"velocity":0.3937007874015748},{"duration":0.171875,"midi":74,"time":211.6640625,"velocity":0.3937007874015748},{"duration":0.05859375,"midi":53,"time":211.6640625,"velocity":0.3937007874015748},{"duration":0.05859375,"midi":45,"time":211.68619791666666,"velocity":0.3937007874015748},{"duration":0.05859375,"midi":76,"time":211.68619791666666,"velocity":0.3937007874015748},{"duration":0.13671875,"midi":88,"time":211.69921875,"velocity":0.3937007874015748},{"duration":0.05729166666665719,"midi":58,"time":211.69921875,"velocity":0.3937007874015748},{"duration":0.05859375,"midi":34,"time":211.70963541666666,"velocity":0.3937007874015748},{"duration":0.05859375,"midi":46,"time":211.70963541666666,"velocity":0.3937007874015748},{"duration":0.1692708333333428,"midi":89,"time":211.72135416666666,"velocity":0.3937007874015748},{"duration":0.05859375,"midi":45,"time":211.73307291666666,"velocity":0.3937007874015748},{"duration":0.13541666666668561,"midi":57,"time":211.74479166666666,"velocity":0.3937007874015748},{"duration":0.06510416666668561,"midi":81,"time":211.74479166666666,"velocity":0.3937007874015748},{"duration":0.057291666666685614,"midi":35,"time":211.74479166666666,"velocity":0.3937007874015748},{"duration":0.4166666666666856,"midi":89,"time":211.74479166666666,"velocity":0.3937007874015748},{"duration":0.05729166666665719,"midi":86,"time":211.75520833333334,"velocity":0.3937007874015748},{"duration":0.07942708333331439,"midi":88,"time":211.77864583333334,"velocity":0.3937007874015748},{"duration":0.06901041666665719,"midi":88,"time":211.80078125,"velocity":0.3937007874015748},{"duration":0.05729166666665719,"midi":77,"time":211.80078125,"velocity":0.3937007874015748},{"duration":0.05729166666665719,"midi":93,"time":211.8125,"velocity":0.3937007874015748},{"duration":0.09244791666668561,"midi":57,"time":211.82291666666666,"velocity":0.3937007874015748},{"duration":0.057291666666685614,"midi":81,"time":211.82291666666666,"velocity":0.3937007874015748},{"duration":0.057291666666685614,"midi":62,"time":211.85807291666666,"velocity":0.3937007874015748},{"duration":0.265625,"midi":77,"time":211.86848958333334,"velocity":0.3937007874015748},{"duration":0.1744791666666572,"midi":74,"time":211.88020833333334,"velocity":0.3937007874015748},{"duration":0.05989583333334281,"midi":88,"time":211.90234375,"velocity":0.3937007874015748},{"duration":0.05859375,"midi":62,"time":211.91536458333334,"velocity":0.3937007874015748},{"duration":0.05859375,"midi":86,"time":211.92578125,"velocity":0.3937007874015748},{"duration":0.05859375,"midi":53,"time":211.92578125,"velocity":0.3937007874015748},{"duration":0.05859375,"midi":33,"time":211.9375,"velocity":0.3937007874015748},{"duration":0.05859375,"midi":46,"time":211.9375,"velocity":0.3937007874015748},{"duration":0.15234375,"midi":66,"time":211.9375,"velocity":0.3937007874015748},{"duration":0.05859375,"midi":93,"time":211.94921875,"velocity":0.3937007874015748},{"duration":0.05859375,"midi":82,"time":211.96223958333334,"velocity":0.3937007874015748},{"duration":0.171875,"midi":63,"time":211.96223958333334,"velocity":0.3937007874015748},{"duration":0.171875,"midi":69,"time":211.96223958333334,"velocity":0.3937007874015748},{"duration":0.171875,"midi":74,"time":211.97265625,"velocity":0.3937007874015748},{"duration":0.05859375,"midi":34,"time":211.97265625,"velocity":0.3937007874015748},{"duration":0.171875,"midi":57,"time":211.97265625,"velocity":0.3937007874015748},{"duration":0.171875,"midi":81,"time":211.98307291666666,"velocity":0.3937007874015748},{"duration":0.07942708333334281,"midi":66,"time":212.03125,"velocity":0.3937007874015748},{"duration":0.05859375,"midi":79,"time":212.03125,"velocity":0.3937007874015748},{"duration":0.05859375,"midi":62,"time":212.04166666666666,"velocity":0.3937007874015748},{"duration":0.057291666666685614,"midi":82,"time":212.05338541666666,"velocity":0.3937007874015748},{"duration":0.08723958333334281,"midi":77,"time":212.07682291666666,"velocity":0.3937007874015748},{"duration":0.05598958333334281,"midi":66,"time":212.08854166666666,"velocity":0.3937007874015748},{"duration":0.05598958333334281,"midi":72,"time":212.08854166666666,"velocity":0.3937007874015748},{"duration":0.16927083333331439,"midi":81,"time":212.09895833333334,"velocity":0.3937007874015748},{"duration":0.05729166666665719,"midi":75,"time":212.11067708333334,"velocity":0.3937007874015748},{"duration":0.05729166666665719,"midi":79,"time":212.11067708333334,"velocity":0.3937007874015748},{"duration":0.16927083333331439,"midi":91,"time":212.11067708333334,"velocity":0.3937007874015748},{"duration":0.5455729166666572,"midi":88,"time":212.11067708333334,"velocity":0.3937007874015748},{"duration":0.16927083333331439,"midi":84,"time":212.11067708333334,"velocity":0.3937007874015748},{"duration":0.05729166666665719,"midi":64,"time":212.11067708333334,"velocity":0.3937007874015748},{"duration":0.05729166666665719,"midi":89,"time":212.12109375,"velocity":0.3937007874015748},{"duration":0.05598958333334281,"midi":76,"time":212.1328125,"velocity":0.3937007874015748},{"duration":0.79296875,"midi":45,"time":212.1328125,"velocity":0.3937007874015748},{"duration":0.1692708333333428,"midi":93,"time":212.1328125,"velocity":0.3937007874015748},{"duration":0.05598958333334281,"midi":63,"time":212.1328125,"velocity":0.3937007874015748},{"duration":0.2942708333333428,"midi":72,"time":212.1328125,"velocity":0.3937007874015748},{"duration":0.05598958333334281,"midi":74,"time":212.14453125,"velocity":0.3937007874015748},{"duration":0.05598958333334281,"midi":78,"time":212.14453125,"velocity":0.3937007874015748},{"duration":0.79296875,"midi":95,"time":212.14453125,"velocity":0.3937007874015748},{"duration":0.546875,"midi":52,"time":212.16666666666666,"velocity":0.3937007874015748},{"duration":0.1692708333333428,"midi":67,"time":212.16666666666666,"velocity":0.3937007874015748},{"duration":0.05729166666665719,"midi":94,"time":212.17708333333334,"velocity":0.3937007874015748},{"duration":0.05729166666665719,"midi":87,"time":212.17708333333334,"velocity":0.3937007874015748},{"duration":0.10286458333331439,"midi":89,"time":212.17708333333334,"velocity":0.3937007874015748},{"duration":0.05729166666665719,"midi":75,"time":212.17708333333334,"velocity":0.3937007874015748},{"duration":0.05729166666665719,"midi":85,"time":212.18880208333334,"velocity":0.3937007874015748},{"duration":0.05729166666665719,"midi":82,"time":212.18880208333334,"velocity":0.3937007874015748},{"duration":0.05729166666665719,"midi":61,"time":212.18880208333334,"velocity":0.3937007874015748},{"duration":0.171875,"midi":79,"time":212.18880208333334,"velocity":0.3937007874015748},{"duration":0.5494791666666572,"midi":76,"time":212.19921875,"velocity":0.3937007874015748},{"duration":0.05859375,"midi":81,"time":212.20963541666666,"velocity":0.3937007874015748},{"duration":0.2994791666666856,"midi":92,"time":212.20963541666666,"velocity":0.3937007874015748},{"duration":0.4244791666666856,"midi":83,"time":212.20963541666666,"velocity":0.3937007874015748},{"duration":0.4244791666666572,"midi":90,"time":212.22265625,"velocity":0.3937007874015748},{"duration":0.05729166666665719,"midi":82,"time":212.22265625,"velocity":0.3937007874015748},{"duration":0.125,"midi":89,"time":212.22265625,"velocity":0.3937007874015748},{"duration":0.171875,"midi":86,"time":212.234375,"velocity":0.3937007874015748},{"duration":0.1731770833333428,"midi":93,"time":212.24479166666666,"velocity":0.3937007874015748},{"duration":0.05859375,"midi":61,"time":212.25651041666666,"velocity":0.3937007874015748},{"duration":0.057291666666685614,"midi":84,"time":212.26822916666666,"velocity":0.3937007874015748},{"duration":0.057291666666685614,"midi":33,"time":212.26822916666666,"velocity":0.3937007874015748},{"duration":0.4270833333333428,"midi":67,"time":212.2890625,"velocity":0.3937007874015748},{"duration":0.05859375,"midi":33,"time":212.30208333333334,"velocity":0.3937007874015748},{"duration":0.2994791666666572,"midi":79,"time":212.31380208333334,"velocity":0.3937007874015748},{"duration":0.17578125,"midi":61,"time":212.31380208333334,"velocity":0.3937007874015748},{"duration":0.17578125,"midi":81,"time":212.32421875,"velocity":0.3937007874015748},{"duration":0.05989583333334281,"midi":84,"time":212.3359375,"velocity":0.3937007874015748},{"duration":0.5481770833333428,"midi":72,"time":212.34765625,"velocity":0.3937007874015748},{"duration":0.05989583333334281,"midi":74,"time":212.37109375,"velocity":0.3937007874015748},{"duration":0.05989583333334281,"midi":33,"time":212.3828125,"velocity":0.3937007874015748},{"duration":0.05989583333334281,"midi":84,"time":212.3828125,"velocity":0.3937007874015748},{"duration":0.05989583333334281,"midi":77,"time":212.4296875,"velocity":0.3937007874015748},{"duration":0.05989583333334281,"midi":33,"time":212.4296875,"velocity":0.3937007874015748},{"duration":0.17578125,"midi":89,"time":212.46484375,"velocity":0.3937007874015748},{"duration":0.17578125,"midi":81,"time":212.46484375,"velocity":0.3937007874015748},{"duration":0.05859375,"midi":32,"time":212.4765625,"velocity":0.3937007874015748},{"duration":0.1770833333333428,"midi":84,"time":212.5,"velocity":0.3937007874015748},{"duration":0.1770833333333428,"midi":92,"time":212.5,"velocity":0.3937007874015748},{"duration":0.1419270833333428,"midi":33,"time":212.53515625,"velocity":0.3937007874015748},{"duration":0.2981770833333428,"midi":83,"time":212.58072916666666,"velocity":0.3937007874015748},{"duration":0.09505208333334281,"midi":33,"time":212.61588541666666,"velocity":0.3937007874015748},{"duration":0.05989583333334281,"midi":92,"time":212.62760416666666,"velocity":0.3937007874015748},{"duration":0.05859375,"midi":81,"time":212.65234375,"velocity":0.3937007874015748},{"duration":0.05859375,"midi":33,"time":212.6640625,"velocity":0.3937007874015748},{"duration":0.171875,"midi":84,"time":212.6875,"velocity":0.3937007874015748},{"duration":0.05859375,"midi":89,"time":212.6875,"velocity":0.3937007874015748},{"duration":0.05859375,"midi":63,"time":212.6875,"velocity":0.3937007874015748},{"duration":0.171875,"midi":52,"time":212.69791666666666,"velocity":0.3937007874015748},{"duration":0.05989583333334281,"midi":94,"time":212.69791666666666,"velocity":0.3937007874015748},{"duration":0.05859375,"midi":75,"time":212.70963541666666,"velocity":0.3937007874015748},{"duration":0.05859375,"midi":88,"time":212.70963541666666,"velocity":0.3937007874015748},{"duration":0.171875,"midi":33,"time":212.70963541666666,"velocity":0.3937007874015748},{"duration":0.171875,"midi":90,"time":212.70963541666666,"velocity":0.3937007874015748},{"duration":0.2955729166666572,"midi":93,"time":212.72265625,"velocity":0.3937007874015748},{"duration":0.1705729166666572,"midi":88,"time":212.72265625,"velocity":0.3937007874015748},{"duration":0.1705729166666572,"midi":86,"time":212.72265625,"velocity":0.3937007874015748},{"duration":0.171875,"midi":78,"time":212.73307291666666,"velocity":0.3937007874015748},{"duration":0.05859375,"midi":64,"time":212.73307291666666,"velocity":0.3937007874015748},{"duration":0.171875,"midi":74,"time":212.73307291666666,"velocity":0.3937007874015748},{"duration":0.171875,"midi":81,"time":212.74479166666666,"velocity":0.3937007874015748},{"duration":0.057291666666685614,"midi":66,"time":212.76822916666666,"velocity":0.3937007874015748},{"duration":0.171875,"midi":90,"time":212.79036458333334,"velocity":0.3937007874015748},{"duration":0.05729166666665719,"midi":64,"time":212.80208333333334,"velocity":0.3937007874015748},{"duration":0.1731770833333428,"midi":76,"time":212.82421875,"velocity":0.3937007874015748},{"duration":0.05729166666665719,"midi":77,"time":212.82421875,"velocity":0.3937007874015748},{"duration":0.1731770833333428,"midi":62,"time":212.82421875,"velocity":0.3937007874015748},{"duration":0.2083333333333428,"midi":84,"time":212.8359375,"velocity":0.3937007874015748},{"duration":0.05989583333334281,"midi":65,"time":212.86979166666666,"velocity":0.3937007874015748},{"duration":0.05989583333334281,"midi":32,"time":212.86979166666666,"velocity":0.3937007874015748},{"duration":0.1731770833333428,"midi":72,"time":212.88151041666666,"velocity":0.3937007874015748},{"duration":0.059895833333314386,"midi":60,"time":212.89192708333334,"velocity":0.3937007874015748},{"duration":0.059895833333314386,"midi":51,"time":212.89192708333334,"velocity":0.3937007874015748},{"duration":0.05859375,"midi":68,"time":212.91666666666666,"velocity":0.3937007874015748},{"duration":0.05859375,"midi":64,"time":212.91666666666666,"velocity":0.3937007874015748},{"duration":0.05859375,"midi":77,"time":212.91666666666666,"velocity":0.3937007874015748},{"duration":0.05859375,"midi":40,"time":212.93880208333334,"velocity":0.3937007874015748},{"duration":0.05859375,"midi":81,"time":212.93880208333334,"velocity":0.3937007874015748},{"duration":0.4231770833333428,"midi":59,"time":212.95182291666666,"velocity":0.3937007874015748},{"duration":0.55078125,"midi":52,"time":212.96223958333334,"velocity":0.3937007874015748},{"duration":0.2721354166666572,"midi":84,"time":212.98567708333334,"velocity":0.3937007874015748},{"duration":0.2981770833333144,"midi":72,"time":212.99739583333334,"velocity":0.3937007874015748},{"duration":0.05729166666665719,"midi":40,"time":212.99739583333334,"velocity":0.3937007874015748},{"duration":0.1731770833333428,"midi":93,"time":213.0078125,"velocity":0.3937007874015748},{"duration":0.05859375,"midi":74,"time":213.0078125,"velocity":0.3937007874015748},{"duration":0.05989583333334281,"midi":40,"time":213.07682291666666,"velocity":0.3937007874015748},{"duration":0.17447916666668561,"midi":67,"time":213.07682291666666,"velocity":0.3937007874015748},{"duration":0.17447916666668561,"midi":92,"time":213.07682291666666,"velocity":0.3937007874015748},{"duration":0.05859375,"midi":89,"time":213.08854166666666,"velocity":0.3937007874015748},{"duration":0.05859375,"midi":37,"time":213.1015625,"velocity":0.3937007874015748},{"duration":0.05859375,"midi":80,"time":213.1015625,"velocity":0.3937007874015748},{"duration":0.05729166666665719,"midi":86,"time":213.11328125,"velocity":0.3937007874015748},{"duration":0.2994791666666572,"midi":93,"time":213.11328125,"velocity":0.3937007874015748},{"duration":0.05729166666665719,"midi":83,"time":213.11328125,"velocity":0.3937007874015748},{"duration":0.1731770833333428,"midi":76,"time":213.11328125,"velocity":0.3937007874015748},{"duration":0.1731770833333428,"midi":88,"time":213.11328125,"velocity":0.3937007874015748},{"duration":0.05729166666665719,"midi":86,"time":213.11328125,"velocity":0.3937007874015748},{"duration":0.1744791666666572,"midi":95,"time":213.13671875,"velocity":0.3937007874015748},{"duration":0.17578125,"midi":90,"time":213.14713541666666,"velocity":0.3937007874015748},{"duration":0.17578125,"midi":91,"time":213.14713541666666,"velocity":0.3937007874015748},{"duration":0.05859375,"midi":85,"time":213.14713541666666,"velocity":0.3937007874015748},{"duration":0.17578125,"midi":92,"time":213.16927083333334,"velocity":0.3937007874015748},{"duration":0.17578125,"midi":86,"time":213.18098958333334,"velocity":0.3937007874015748},{"duration":0.17578125,"midi":81,"time":213.19270833333334,"velocity":0.3937007874015748},{"duration":0.059895833333314386,"midi":68,"time":213.21614583333334,"velocity":0.3937007874015748},{"duration":0.059895833333314386,"midi":63,"time":213.26302083333334,"velocity":0.3937007874015748},{"duration":0.05989583333334281,"midi":62,"time":213.28515625,"velocity":0.3937007874015748},{"duration":0.17578125,"midi":76,"time":213.30989583333334,"velocity":0.3937007874015748},{"duration":0.17578125,"midi":59,"time":213.32161458333334,"velocity":0.3937007874015748},{"duration":0.05989583333334281,"midi":69,"time":213.35546875,"velocity":0.3937007874015748},{"duration":0.05859375,"midi":92,"time":213.36848958333334,"velocity":0.3937007874015748},{"duration":0.05859375,"midi":41,"time":213.36848958333334,"velocity":0.3937007874015748},{"duration":0.2981770833333144,"midi":93,"time":213.36848958333334,"velocity":0.3937007874015748},{"duration":0.1744791666666572,"midi":84,"time":213.42578125,"velocity":0.3937007874015748},{"duration":0.1744791666666572,"midi":67,"time":213.44921875,"velocity":0.3937007874015748},{"duration":0.06119791666665719,"midi":81,"time":213.4609375,"velocity":0.3937007874015748},{"duration":0.421875,"midi":72,"time":213.47265625,"velocity":0.3937007874015748},{"duration":0.059895833333314386,"midi":54,"time":213.48567708333334,"velocity":0.3937007874015748},{"duration":0.171875,"midi":76,"time":213.48567708333334,"velocity":0.3937007874015748},{"duration":0.05859375,"midi":61,"time":213.50911458333334,"velocity":0.3937007874015748},{"duration":0.171875,"midi":84,"time":213.50911458333334,"velocity":0.3937007874015748},{"duration":0.05859375,"midi":41,"time":213.50911458333334,"velocity":0.3937007874015748},{"duration":0.05859375,"midi":55,"time":213.50911458333334,"velocity":0.3937007874015748},{"duration":0.057291666666685614,"midi":60,"time":213.52213541666666,"velocity":0.3937007874015748},{"duration":0.05729166666665719,"midi":63,"time":213.53255208333334,"velocity":0.3937007874015748},{"duration":0.055989583333314386,"midi":81,"time":213.54427083333334,"velocity":0.3937007874015748},{"duration":0.1705729166666572,"midi":63,"time":213.56770833333334,"velocity":0.3937007874015748},{"duration":0.055989583333314386,"midi":55,"time":213.56770833333334,"velocity":0.3937007874015748},{"duration":0.05598958333334281,"midi":68,"time":213.578125,"velocity":0.3937007874015748},{"duration":0.171875,"midi":44,"time":213.578125,"velocity":0.3937007874015748},{"duration":0.171875,"midi":84,"time":213.58854166666666,"velocity":0.3937007874015748},{"duration":0.1744791666666572,"midi":90,"time":213.63411458333334,"velocity":0.3937007874015748},{"duration":0.06119791666665719,"midi":57,"time":213.64453125,"velocity":0.3937007874015748},{"duration":0.06119791666665719,"midi":67,"time":213.64453125,"velocity":0.3937007874015748},{"duration":0.06119791666665719,"midi":62,"time":213.64453125,"velocity":0.3937007874015748},{"duration":0.05989583333334281,"midi":89,"time":213.65625,"velocity":0.3937007874015748},{"duration":0.1744791666666572,"midi":95,"time":213.65625,"velocity":0.3937007874015748},{"duration":0.05859375,"midi":85,"time":213.66796875,"velocity":0.3937007874015748},{"duration":0.1744791666666572,"midi":81,"time":213.66796875,"velocity":0.3937007874015748},{"duration":0.1744791666666572,"midi":88,"time":213.68098958333334,"velocity":0.3937007874015748},{"duration":0.1744791666666572,"midi":76,"time":213.68098958333334,"velocity":0.3937007874015748},{"duration":0.2994791666666572,"midi":57,"time":213.69270833333334,"velocity":0.3937007874015748},{"duration":0.17317708333331439,"midi":64,"time":213.69270833333334,"velocity":0.3937007874015748},{"duration":0.05729166666665719,"midi":86,"time":213.69270833333334,"velocity":0.3937007874015748},{"duration":0.05729166666665719,"midi":44,"time":213.69270833333334,"velocity":0.3937007874015748},{"duration":0.17317708333331439,"midi":68,"time":213.70442708333334,"velocity":0.3937007874015748},{"duration":0.05729166666665719,"midi":37,"time":213.71614583333334,"velocity":0.3937007874015748},{"duration":0.1744791666666572,"midi":92,"time":213.7265625,"velocity":0.3937007874015748},{"duration":0.17578125,"midi":86,"time":213.73697916666666,"velocity":0.3937007874015748},{"duration":0.05859375,"midi":83,"time":213.75,"velocity":0.3937007874015748},{"duration":0.17578125,"midi":45,"time":213.75,"velocity":0.3937007874015748},{"duration":0.9205729166666856,"midi":93,"time":213.76041666666666,"velocity":0.3937007874015748},{"duration":0.3033854166666572,"midi":84,"time":213.78255208333334,"velocity":0.3937007874015748},{"duration":0.23567708333331439,"midi":89,"time":213.78255208333334,"velocity":0.3937007874015748},{"duration":0.05989583333334281,"midi":77,"time":213.79557291666666,"velocity":0.3937007874015748},{"duration":0.05989583333334281,"midi":91,"time":213.79557291666666,"velocity":0.3937007874015748},{"duration":0.1770833333333428,"midi":81,"time":213.80729166666666,"velocity":0.3937007874015748},{"duration":0.17708333333331439,"midi":65,"time":213.81770833333334,"velocity":0.3937007874015748},{"duration":0.6744791666666572,"midi":87,"time":213.81770833333334,"velocity":0.3937007874015748},{"duration":0.59765625,"midi":89,"time":213.84244791666666,"velocity":0.3937007874015748},{"duration":0.2981770833333428,"midi":88,"time":213.85416666666666,"velocity":0.3937007874015748},{"duration":0.6731770833333428,"midi":69,"time":213.85416666666666,"velocity":0.3937007874015748},{"duration":0.05989583333334281,"midi":95,"time":213.92447916666666,"velocity":0.3937007874015748},{"duration":0.17578125,"midi":72,"time":213.92447916666666,"velocity":0.3937007874015748},{"duration":0.1640625,"midi":84,"time":213.94791666666666,"velocity":0.3937007874015748},{"duration":0.17447916666668561,"midi":65,"time":213.95963541666666,"velocity":0.3937007874015748},{"duration":0.05859375,"midi":58,"time":213.97135416666666,"velocity":0.3937007874015748},{"duration":0.05859375,"midi":51,"time":213.984375,"velocity":0.3937007874015748},{"duration":0.4375,"midi":89,"time":214.01822916666666,"velocity":0.3937007874015748},{"duration":0.05989583333334281,"midi":59,"time":214.02994791666666,"velocity":0.3937007874015748},{"duration":0.059895833333314386,"midi":85,"time":214.05208333333334,"velocity":0.3937007874015748},{"duration":0.07161458333331439,"midi":84,"time":214.05208333333334,"velocity":0.3937007874015748},{"duration":0.059895833333314386,"midi":83,"time":214.05208333333334,"velocity":0.3937007874015748},{"duration":0.05859375,"midi":50,"time":214.06510416666666,"velocity":0.3937007874015748},{"duration":0.17057291666668561,"midi":79,"time":214.06510416666666,"velocity":0.3937007874015748},{"duration":0.057291666666685614,"midi":72,"time":214.07682291666666,"velocity":0.3937007874015748},{"duration":0.057291666666685614,"midi":94,"time":214.07682291666666,"velocity":0.3937007874015748},{"duration":0.057291666666685614,"midi":74,"time":214.07682291666666,"velocity":0.3937007874015748},{"duration":0.057291666666685614,"midi":59,"time":214.07682291666666,"velocity":0.3937007874015748},{"duration":0.057291666666685614,"midi":95,"time":214.07682291666666,"velocity":0.3937007874015748},{"duration":0.05598958333334281,"midi":90,"time":214.08854166666666,"velocity":0.3937007874015748},{"duration":0.2955729166666856,"midi":84,"time":214.10026041666666,"velocity":0.3937007874015748},{"duration":0.05598958333334281,"midi":60,"time":214.10026041666666,"velocity":0.3937007874015748},{"duration":0.05598958333334281,"midi":92,"time":214.10026041666666,"velocity":0.3937007874015748},{"duration":0.05598958333334281,"midi":76,"time":214.10026041666666,"velocity":0.3937007874015748},{"duration":0.05598958333334281,"midi":78,"time":214.10026041666666,"velocity":0.3937007874015748},{"duration":0.0546875,"midi":50,"time":214.11197916666666,"velocity":0.3937007874015748},{"duration":0.171875,"midi":86,"time":214.12239583333334,"velocity":0.3937007874015748},{"duration":0.055989583333314386,"midi":77,"time":214.12239583333334,"velocity":0.3937007874015748},{"duration":0.05729166666665719,"midi":62,"time":214.13411458333334,"velocity":0.3937007874015748},{"duration":0.296875,"midi":65,"time":214.13411458333334,"velocity":0.3937007874015748},{"duration":0.05729166666665719,"midi":88,"time":214.14453125,"velocity":0.3937007874015748},{"duration":0.1731770833333428,"midi":52,"time":214.14453125,"velocity":0.3937007874015748},{"duration":0.1731770833333428,"midi":59,"time":214.14453125,"velocity":0.3937007874015748},{"duration":0.05859375,"midi":40,"time":214.16536458333334,"velocity":0.3937007874015748},{"duration":0.1744791666666572,"midi":72,"time":214.16536458333334,"velocity":0.3937007874015748},{"duration":0.05859375,"midi":88,"time":214.20052083333334,"velocity":0.3937007874015748},{"duration":0.05989583333334281,"midi":60,"time":214.234375,"velocity":0.3937007874015748},{"duration":0.2981770833333428,"midi":88,"time":214.28125,"velocity":0.3937007874015748},{"duration":0.1744791666666572,"midi":59,"time":214.29427083333334,"velocity":0.3937007874015748},{"duration":0.05859375,"midi":76,"time":214.29427083333334,"velocity":0.3937007874015748},{"duration":0.1744791666666572,"midi":52,"time":214.29427083333334,"velocity":0.3937007874015748},{"duration":0.1770833333333428,"midi":64,"time":214.33984375,"velocity":0.3937007874015748},{"duration":0.05989583333334281,"midi":91,"time":214.36328125,"velocity":0.3937007874015748},{"duration":0.17578125,"midi":83,"time":214.38541666666666,"velocity":0.3937007874015748},{"duration":0.1731770833333428,"midi":72,"time":214.41015625,"velocity":0.3937007874015748},{"duration":0.1731770833333428,"midi":84,"time":214.43229166666666,"velocity":0.3937007874015748},{"duration":0.1731770833333428,"midi":87,"time":214.43229166666666,"velocity":0.3937007874015748},{"duration":0.4192708333333428,"midi":79,"time":214.45572916666666,"velocity":0.3937007874015748},{"duration":0.061197916666685614,"midi":65,"time":214.45572916666666,"velocity":0.3937007874015748},{"duration":0.05989583333334281,"midi":51,"time":214.48046875,"velocity":0.3937007874015748},{"duration":0.05989583333334281,"midi":90,"time":214.48046875,"velocity":0.3937007874015748},{"duration":0.171875,"midi":89,"time":214.48046875,"velocity":0.3937007874015748},{"duration":0.05859375,"midi":68,"time":214.4921875,"velocity":0.3937007874015748},{"duration":0.171875,"midi":72,"time":214.4921875,"velocity":0.3937007874015748},{"duration":0.05729166666665719,"midi":38,"time":214.50390625,"velocity":0.3937007874015748},{"duration":0.05729166666665719,"midi":50,"time":214.50390625,"velocity":0.3937007874015748},{"duration":0.055989583333314386,"midi":37,"time":214.51692708333334,"velocity":0.3937007874015748},{"duration":0.055989583333314386,"midi":86,"time":214.51692708333334,"velocity":0.3937007874015748},{"duration":0.055989583333314386,"midi":83,"time":214.51692708333334,"velocity":0.3937007874015748},{"duration":0.055989583333314386,"midi":81,"time":214.51692708333334,"velocity":0.3937007874015748},{"duration":0.05598958333334281,"midi":64,"time":214.52734375,"velocity":0.3937007874015748},{"duration":0.05598958333334281,"midi":57,"time":214.52734375,"velocity":0.3937007874015748},{"duration":0.1705729166666572,"midi":84,"time":214.52734375,"velocity":0.3937007874015748},{"duration":0.05598958333334281,"midi":69,"time":214.52734375,"velocity":0.3937007874015748},{"duration":0.1692708333333428,"midi":52,"time":214.54947916666666,"velocity":0.3937007874015748},{"duration":0.057291666666685614,"midi":40,"time":214.56119791666666,"velocity":0.3937007874015748},{"duration":1.0325520833333428,"midi":88,"time":214.56119791666666,"velocity":0.3937007874015748},{"duration":0.2955729166666572,"midi":67,"time":214.57161458333334,"velocity":0.3937007874015748},{"duration":1.1575520833333428,"midi":76,"time":214.58203125,"velocity":0.3937007874015748},{"duration":0.05859375,"midi":64,"time":214.58203125,"velocity":0.3937007874015748},{"duration":0.05859375,"midi":57,"time":214.60546875,"velocity":0.3937007874015748},{"duration":0.1705729166666572,"midi":81,"time":214.6171875,"velocity":0.3937007874015748},{"duration":0.05859375,"midi":72,"time":214.62890625,"velocity":0.3937007874015748},{"duration":0.05859375,"midi":62,"time":214.62890625,"velocity":0.3937007874015748},{"duration":0.1705729166666572,"midi":84,"time":214.640625,"velocity":0.3937007874015748},{"duration":0.1705729166666572,"midi":86,"time":214.640625,"velocity":0.3937007874015748},{"duration":0.05729166666665719,"midi":83,"time":214.640625,"velocity":0.3937007874015748},{"duration":0.05729166666665719,"midi":47,"time":214.640625,"velocity":0.3937007874015748},{"duration":0.057291666666685614,"midi":89,"time":214.65104166666666,"velocity":0.3937007874015748},{"duration":0.05598958333334281,"midi":53,"time":214.66276041666666,"velocity":0.3937007874015748},{"duration":0.171875,"midi":45,"time":214.66276041666666,"velocity":0.3937007874015748},{"duration":0.171875,"midi":64,"time":214.66276041666666,"velocity":0.3937007874015748},{"duration":0.1731770833333428,"midi":92,"time":214.67447916666666,"velocity":0.3937007874015748},{"duration":0.17317708333331439,"midi":86,"time":214.69661458333334,"velocity":0.3937007874015748},{"duration":0.05729166666665719,"midi":32,"time":214.69661458333334,"velocity":0.3937007874015748},{"duration":0.17317708333331439,"midi":70,"time":214.70833333333334,"velocity":0.3937007874015748},{"duration":0.05859375,"midi":83,"time":214.71875,"velocity":0.3937007874015748},{"duration":0.05859375,"midi":33,"time":214.71875,"velocity":0.3937007874015748},{"duration":0.05859375,"midi":52,"time":214.72916666666666,"velocity":0.3937007874015748},{"duration":0.1744791666666572,"midi":45,"time":214.7421875,"velocity":0.3937007874015748},{"duration":0.1731770833333428,"midi":84,"time":214.75390625,"velocity":0.3937007874015748},{"duration":0.1731770833333428,"midi":93,"time":214.76432291666666,"velocity":0.3937007874015748},{"duration":0.1731770833333428,"midi":61,"time":214.76432291666666,"velocity":0.3937007874015748},{"duration":0.1731770833333428,"midi":52,"time":214.76432291666666,"velocity":0.3937007874015748},{"duration":0.171875,"midi":83,"time":214.78776041666666,"velocity":0.3937007874015748},{"duration":0.06119791666665719,"midi":77,"time":214.79817708333334,"velocity":0.3937007874015748},{"duration":0.059895833333314386,"midi":33,"time":214.80989583333334,"velocity":0.3937007874015748},{"duration":0.1692708333333428,"midi":70,"time":214.82291666666666,"velocity":0.3937007874015748},{"duration":0.05859375,"midi":72,"time":214.83463541666666,"velocity":0.3937007874015748},{"duration":0.05859375,"midi":34,"time":214.83463541666666,"velocity":0.3937007874015748},{"duration":0.1666666666666572,"midi":86,"time":214.859375,"velocity":0.3937007874015748},{"duration":0.05729166666665719,"midi":53,"time":214.859375,"velocity":0.3937007874015748},{"duration":0.1666666666666572,"midi":67,"time":214.859375,"velocity":0.3937007874015748},{"duration":0.057291666666685614,"midi":73,"time":214.86979166666666,"velocity":0.3937007874015748},{"duration":0.16666666666668561,"midi":83,"time":214.86979166666666,"velocity":0.3937007874015748},{"duration":0.057291666666685614,"midi":94,"time":214.86979166666666,"velocity":0.3937007874015748},{"duration":0.1666666666666572,"midi":84,"time":214.88020833333334,"velocity":0.3937007874015748},{"duration":0.05729166666665719,"midi":65,"time":214.88020833333334,"velocity":0.3937007874015748},{"duration":0.05729166666665719,"midi":51,"time":214.88020833333334,"velocity":0.3937007874015748},{"duration":0.05729166666665719,"midi":61,"time":214.88020833333334,"velocity":0.3937007874015748},{"duration":0.05598958333334281,"midi":50,"time":214.89322916666666,"velocity":0.3937007874015748},{"duration":0.05598958333334281,"midi":74,"time":214.89322916666666,"velocity":0.3937007874015748},{"duration":0.055989583333314386,"midi":60,"time":214.90364583333334,"velocity":0.3937007874015748},{"duration":0.4075520833333144,"midi":64,"time":214.90364583333334,"velocity":0.3937007874015748},{"duration":0.0546875,"midi":47,"time":214.91536458333334,"velocity":0.3937007874015748},{"duration":0.0546875,"midi":46,"time":214.92578125,"velocity":0.3937007874015748},{"duration":0.05598958333334281,"midi":45,"time":214.94791666666666,"velocity":0.3937007874015748},{"duration":0.1692708333333428,"midi":67,"time":214.94791666666666,"velocity":0.3937007874015748},{"duration":0.2916666666666856,"midi":60,"time":214.94791666666666,"velocity":0.3937007874015748},{"duration":0.055989583333314386,"midi":33,"time":214.95833333333334,"velocity":0.3937007874015748},{"duration":0.055989583333314386,"midi":81,"time":214.97005208333334,"velocity":0.3937007874015748},{"duration":0.05598958333334281,"midi":52,"time":214.98046875,"velocity":0.3937007874015748},{"duration":0.1484375,"midi":45,"time":214.98046875,"velocity":0.3937007874015748},{"duration":0.171875,"midi":70,"time":215.01432291666666,"velocity":0.3937007874015748},{"duration":0.171875,"midi":83,"time":215.01432291666666,"velocity":0.3937007874015748},{"duration":0.05729166666665719,"midi":86,"time":215.02473958333334,"velocity":0.3937007874015748},{"duration":0.05989583333334281,"midi":91,"time":215.06901041666666,"velocity":0.3937007874015748},{"duration":0.08333333333334281,"midi":45,"time":215.06901041666666,"velocity":0.3937007874015748},{"duration":0.1731770833333428,"midi":79,"time":215.08203125,"velocity":0.3937007874015748},{"duration":0.17447916666668561,"midi":84,"time":215.09244791666666,"velocity":0.3937007874015748},{"duration":0.05989583333334281,"midi":52,"time":215.10416666666666,"velocity":0.3937007874015748},{"duration":0.05859375,"midi":67,"time":215.1171875,"velocity":0.3937007874015748},{"duration":0.1731770833333428,"midi":45,"time":215.1171875,"velocity":0.3937007874015748},{"duration":0.05859375,"midi":86,"time":215.1171875,"velocity":0.3937007874015748},{"duration":0.05859375,"midi":83,"time":215.13932291666666,"velocity":0.3937007874015748},{"duration":0.05729166666665719,"midi":33,"time":215.1640625,"velocity":0.3937007874015748},{"duration":0.1575520833333428,"midi":67,"time":215.1640625,"velocity":0.3937007874015748},{"duration":0.057291666666685614,"midi":86,"time":215.17447916666666,"velocity":0.3937007874015748},{"duration":0.05859375,"midi":63,"time":215.23177083333334,"velocity":0.3937007874015748},{"duration":0.05859375,"midi":74,"time":215.23177083333334,"velocity":0.3937007874015748},{"duration":0.05859375,"midi":68,"time":215.23177083333334,"velocity":0.3937007874015748},{"duration":0.13802083333331439,"midi":83,"time":215.23177083333334,"velocity":0.3937007874015748},{"duration":1.34375,"midi":88,"time":215.2421875,"velocity":0.3937007874015748},{"duration":0.05859375,"midi":59,"time":215.2421875,"velocity":0.3937007874015748},{"duration":0.05859375,"midi":45,"time":215.2421875,"velocity":0.3937007874015748},{"duration":0.05859375,"midi":93,"time":215.2421875,"velocity":0.3937007874015748},{"duration":0.0625,"midi":64,"time":215.25390625,"velocity":0.3937007874015748},{"duration":0.05729166666665719,"midi":42,"time":215.25390625,"velocity":0.3937007874015748},{"duration":0.05598958333334281,"midi":87,"time":215.265625,"velocity":0.3937007874015748},{"duration":0.05598958333334281,"midi":85,"time":215.265625,"velocity":0.3937007874015748},{"duration":0.05598958333334281,"midi":89,"time":215.265625,"velocity":0.3937007874015748},{"duration":0.546875,"midi":95,"time":215.265625,"velocity":0.3937007874015748},{"duration":0.06770833333334281,"midi":67,"time":215.265625,"velocity":0.3937007874015748},{"duration":0.05598958333334281,"midi":84,"time":215.265625,"velocity":0.3937007874015748},{"duration":0.05598958333334281,"midi":90,"time":215.265625,"velocity":0.3937007874015748},{"duration":0.05598958333334281,"midi":37,"time":215.265625,"velocity":0.3937007874015748},{"duration":0.057291666666685614,"midi":74,"time":215.29947916666666,"velocity":0.3937007874015748},{"duration":0.7981770833333428,"midi":50,"time":215.29947916666666,"velocity":0.3937007874015748},{"duration":0.5494791666666856,"midi":93,"time":215.29947916666666,"velocity":0.3937007874015748},{"duration":0.057291666666685614,"midi":68,"time":215.29947916666666,"velocity":0.3937007874015748},{"duration":0.7981770833333428,"midi":57,"time":215.31119791666666,"velocity":0.3937007874015748},{"duration":0.09244791666668561,"midi":83,"time":215.31119791666666,"velocity":0.3937007874015748},{"duration":0.1744791666666572,"midi":67,"time":215.32161458333334,"velocity":0.3937007874015748},{"duration":0.05989583333334281,"midi":72,"time":215.33203125,"velocity":0.3937007874015748},{"duration":0.17578125,"midi":86,"time":215.33203125,"velocity":0.3937007874015748},{"duration":0.17578125,"midi":81,"time":215.33203125,"velocity":0.3937007874015748},{"duration":0.17578125,"midi":84,"time":215.34505208333334,"velocity":0.3937007874015748},{"duration":0.1744791666666572,"midi":83,"time":215.35677083333334,"velocity":0.3937007874015748},{"duration":0.05859375,"midi":38,"time":215.35677083333334,"velocity":0.3937007874015748},{"duration":0.1744791666666572,"midi":74,"time":215.38020833333334,"velocity":0.3937007874015748},{"duration":0.05859375,"midi":36,"time":215.39192708333334,"velocity":0.3937007874015748},{"duration":0.05859375,"midi":64,"time":215.4140625,"velocity":0.3937007874015748},{"duration":0.05989583333334281,"midi":64,"time":215.4609375,"velocity":0.3937007874015748},{"duration":0.05989583333334281,"midi":83,"time":215.48307291666666,"velocity":0.3937007874015748},{"duration":0.1744791666666572,"midi":69,"time":215.5078125,"velocity":0.3937007874015748},{"duration":0.05859375,"midi":38,"time":215.51953125,"velocity":0.3937007874015748},{"duration":0.05989583333334281,"midi":84,"time":215.52994791666666,"velocity":0.3937007874015748},{"duration":0.05989583333334281,"midi":86,"time":215.52994791666666,"velocity":0.3937007874015748},{"duration":0.05989583333334281,"midi":64,"time":215.52994791666666,"velocity":0.3937007874015748},{"duration":0.061197916666685614,"midi":66,"time":215.55338541666666,"velocity":0.3937007874015748},{"duration":0.061197916666685614,"midi":77,"time":215.55338541666666,"velocity":0.3937007874015748},{"duration":0.4231770833333428,"midi":74,"time":215.6015625,"velocity":0.3937007874015748},{"duration":0.05859375,"midi":84,"time":215.6015625,"velocity":0.3937007874015748},{"duration":0.05729166666665719,"midi":65,"time":215.61458333333334,"velocity":0.3937007874015748},{"duration":0.1731770833333428,"midi":83,"time":215.63671875,"velocity":0.3937007874015748},{"duration":0.1731770833333428,"midi":81,"time":215.63671875,"velocity":0.3937007874015748},{"duration":0.05729166666665719,"midi":87,"time":215.63671875,"velocity":0.3937007874015748},{"duration":0.05729166666665719,"midi":39,"time":215.63671875,"velocity":0.3937007874015748},{"duration":0.05729166666665719,"midi":84,"time":215.66015625,"velocity":0.3937007874015748},{"duration":0.2981770833333428,"midi":90,"time":215.66015625,"velocity":0.3937007874015748},{"duration":0.05729166666665719,"midi":94,"time":215.66015625,"velocity":0.3937007874015748},{"duration":0.05729166666665719,"midi":89,"time":215.66015625,"velocity":0.3937007874015748},{"duration":0.17578125,"midi":76,"time":215.67057291666666,"velocity":0.3937007874015748},{"duration":0.1770833333333428,"midi":65,"time":215.69401041666666,"velocity":0.3937007874015748},{"duration":0.1744791666666572,"midi":93,"time":215.78645833333334,"velocity":0.3937007874015748},{"duration":0.059895833333314386,"midi":81,"time":215.78645833333334,"velocity":0.3937007874015748},{"duration":0.1744791666666572,"midi":87,"time":215.78645833333334,"velocity":0.3937007874015748},{"duration":0.06119791666665719,"midi":66,"time":215.80989583333334,"velocity":0.3937007874015748},{"duration":0.1744791666666572,"midi":65,"time":215.82161458333334,"velocity":0.3937007874015748},{"duration":0.059895833333314386,"midi":38,"time":215.82161458333334,"velocity":0.3937007874015748},{"duration":0.05859375,"midi":83,"time":215.83333333333334,"velocity":0.3937007874015748},{"duration":0.05859375,"midi":76,"time":215.83333333333334,"velocity":0.3937007874015748},{"duration":0.1731770833333428,"midi":79,"time":215.84635416666666,"velocity":0.3937007874015748},{"duration":0.6354166666666856,"midi":85,"time":215.85807291666666,"velocity":0.3937007874015748},{"duration":0.057291666666685614,"midi":92,"time":215.85807291666666,"velocity":0.3937007874015748},{"duration":0.057291666666685614,"midi":67,"time":215.85807291666666,"velocity":0.3937007874015748},{"duration":0.057291666666685614,"midi":89,"time":215.86979166666666,"velocity":0.3937007874015748},{"duration":0.2955729166666856,"midi":81,"time":215.88151041666666,"velocity":0.3937007874015748},{"duration":0.2981770833333428,"midi":91,"time":215.88151041666666,"velocity":0.3937007874015748},{"duration":0.05859375,"midi":84,"time":215.89192708333334,"velocity":0.3937007874015748},{"duration":0.2200520833333428,"midi":90,"time":215.90234375,"velocity":0.3937007874015748},{"duration":0.05859375,"midi":64,"time":215.90234375,"velocity":0.3937007874015748},{"duration":0.05859375,"midi":83,"time":215.9140625,"velocity":0.3937007874015748},{"duration":0.8359375,"midi":88,"time":215.9140625,"velocity":0.3937007874015748},{"duration":0.05859375,"midi":67,"time":215.9140625,"velocity":0.3937007874015748},{"duration":0.1731770833333428,"midi":83,"time":215.94921875,"velocity":0.3937007874015748},{"duration":0.05859375,"midi":37,"time":215.94921875,"velocity":0.3937007874015748},{"duration":0.05859375,"midi":64,"time":215.9609375,"velocity":0.3937007874015748},{"duration":0.05989583333334281,"midi":67,"time":216.0078125,"velocity":0.3937007874015748},{"duration":0.061197916666685614,"midi":64,"time":216.01822916666666,"velocity":0.3937007874015748},{"duration":0.05989583333334281,"midi":66,"time":216.02994791666666,"velocity":0.3937007874015748},{"duration":0.1692708333333428,"midi":77,"time":216.04296875,"velocity":0.3937007874015748},{"duration":0.05859375,"midi":63,"time":216.04296875,"velocity":0.3937007874015748},{"duration":0.05729166666665719,"midi":71,"time":216.0546875,"velocity":0.3937007874015748},{"duration":0.05729166666665719,"midi":50,"time":216.0546875,"velocity":0.3937007874015748},{"duration":0.05729166666665719,"midi":68,"time":216.0546875,"velocity":0.3937007874015748},{"duration":0.1315104166666572,"midi":90,"time":216.06640625,"velocity":0.3937007874015748},{"duration":0.05598958333334281,"midi":76,"time":216.08984375,"velocity":0.3937007874015748},{"duration":0.05598958333334281,"midi":54,"time":216.10026041666666,"velocity":0.3937007874015748},{"duration":0.05598958333334281,"midi":31,"time":216.10026041666666,"velocity":0.3937007874015748},{"duration":0.05598958333334281,"midi":87,"time":216.10026041666666,"velocity":0.3937007874015748},{"duration":0.05729166666665719,"midi":75,"time":216.12239583333334,"velocity":0.3937007874015748},{"duration":0.17708333333331439,"midi":91,"time":216.12239583333334,"velocity":0.3937007874015748},{"duration":0.1705729166666572,"midi":69,"time":216.12239583333334,"velocity":0.3937007874015748},{"duration":0.3815104166666572,"midi":86,"time":216.12239583333334,"velocity":0.3937007874015748},{"duration":0.05729166666665719,"midi":63,"time":216.1328125,"velocity":0.3937007874015748},{"duration":0.05598958333334281,"midi":66,"time":216.14453125,"velocity":0.3937007874015748},{"duration":0.05598958333334281,"midi":89,"time":216.14453125,"velocity":0.3937007874015748},{"duration":0.171875,"midi":81,"time":216.15625,"velocity":0.3937007874015748},{"duration":0.05598958333334281,"midi":87,"time":216.15625,"velocity":0.3937007874015748},{"duration":0.05598958333334281,"midi":95,"time":216.15625,"velocity":0.3937007874015748},{"duration":0.171875,"midi":62,"time":216.17838541666666,"velocity":0.3937007874015748},{"duration":0.171875,"midi":65,"time":216.17838541666666,"velocity":0.3937007874015748},{"duration":0.05598958333334281,"midi":90,"time":216.17838541666666,"velocity":0.3937007874015748},{"duration":0.05598958333334281,"midi":76,"time":216.17838541666666,"velocity":0.3937007874015748},{"duration":0.05598958333334281,"midi":90,"time":216.19010416666666,"velocity":0.3937007874015748},{"duration":0.17578125,"midi":91,"time":216.24479166666666,"velocity":0.3937007874015748},{"duration":0.3033854166666572,"midi":77,"time":216.25520833333334,"velocity":0.3937007874015748},{"duration":0.06119791666665719,"midi":90,"time":216.25520833333334,"velocity":0.3937007874015748},{"duration":0.3033854166666856,"midi":65,"time":216.26822916666666,"velocity":0.3937007874015748},{"duration":0.1770833333333428,"midi":89,"time":216.26822916666666,"velocity":0.3937007874015748},{"duration":0.05989583333334281,"midi":84,"time":216.27994791666666,"velocity":0.3937007874015748},{"duration":0.1770833333333428,"midi":87,"time":216.27994791666666,"velocity":0.3937007874015748},{"duration":0.1770833333333428,"midi":50,"time":216.29166666666666,"velocity":0.3937007874015748},{"duration":0.1770833333333428,"midi":69,"time":216.3046875,"velocity":0.3937007874015748},{"duration":0.05859375,"midi":90,"time":216.32682291666666,"velocity":0.3937007874015748},{"duration":0.05859375,"midi":93,"time":216.33984375,"velocity":0.3937007874015748},{"duration":0.17578125,"midi":62,"time":216.33984375,"velocity":0.3937007874015748},{"duration":0.1770833333333428,"midi":81,"time":216.35026041666666,"velocity":0.3937007874015748},{"duration":0.1770833333333428,"midi":91,"time":216.38541666666666,"velocity":0.3937007874015748},{"duration":0.4296875,"midi":93,"time":216.42057291666666,"velocity":0.3937007874015748},{"duration":0.09505208333334281,"midi":85,"time":216.43229166666666,"velocity":0.3937007874015748},{"duration":0.10026041666668561,"midi":86,"time":216.44401041666666,"velocity":0.3937007874015748},{"duration":0.1770833333333428,"midi":81,"time":216.44401041666666,"velocity":0.3937007874015748},{"duration":0.1744791666666572,"midi":85,"time":216.49348958333334,"velocity":0.3937007874015748},{"duration":0.1744791666666572,"midi":87,"time":216.49348958333334,"velocity":0.3937007874015748},{"duration":0.17578125,"midi":75,"time":216.50390625,"velocity":0.3937007874015748},{"duration":0.17578125,"midi":62,"time":216.52604166666666,"velocity":0.3937007874015748},{"duration":0.061197916666685614,"midi":76,"time":216.54947916666666,"velocity":0.3937007874015748},{"duration":0.17578125,"midi":65,"time":216.57421875,"velocity":0.3937007874015748},{"duration":0.71875,"midi":88,"time":216.57421875,"velocity":0.3937007874015748},{"duration":0.05859375,"midi":81,"time":216.59765625,"velocity":0.3937007874015748},{"duration":0.30078125,"midi":86,"time":216.61067708333334,"velocity":0.3937007874015748},{"duration":0.17578125,"midi":76,"time":216.65625,"velocity":0.3937007874015748},{"duration":0.17578125,"midi":50,"time":216.65625,"velocity":0.3937007874015748},{"duration":0.1770833333333428,"midi":57,"time":216.66666666666666,"velocity":0.3937007874015748},{"duration":0.5559895833333428,"midi":95,"time":216.66666666666666,"velocity":0.3937007874015748},{"duration":0.4296875,"midi":81,"time":216.66666666666666,"velocity":0.3937007874015748},{"duration":0.05989583333334281,"midi":87,"time":216.71354166666666,"velocity":0.3937007874015748},{"duration":0.05989583333334281,"midi":89,"time":216.71354166666666,"velocity":0.3937007874015748},{"duration":0.1770833333333428,"midi":74,"time":216.7265625,"velocity":0.3937007874015748},{"duration":0.1770833333333428,"midi":65,"time":216.7265625,"velocity":0.3937007874015748},{"duration":0.17578125,"midi":62,"time":216.76041666666666,"velocity":0.3937007874015748},{"duration":0.05989583333334281,"midi":77,"time":216.84375,"velocity":0.3937007874015748},{"duration":0.3020833333333428,"midi":62,"time":216.85546875,"velocity":0.3937007874015748},{"duration":0.17578125,"midi":69,"time":216.85546875,"velocity":0.3937007874015748},{"duration":0.17578125,"midi":76,"time":216.85546875,"velocity":0.3937007874015748},{"duration":0.17578125,"midi":66,"time":216.8671875,"velocity":0.3937007874015748},{"duration":0.05859375,"midi":57,"time":216.8671875,"velocity":0.3937007874015748},{"duration":0.8033854166666572,"midi":50,"time":216.88020833333334,"velocity":0.3937007874015748},{"duration":0.4270833333333428,"midi":57,"time":216.90234375,"velocity":0.3937007874015748},{"duration":0.05989583333334281,"midi":77,"time":216.94791666666666,"velocity":0.3937007874015748},{"duration":0.1770833333333428,"midi":86,"time":216.9609375,"velocity":0.3937007874015748},{"duration":0.3020833333333428,"midi":76,"time":216.97265625,"velocity":0.3937007874015748},{"duration":0.061197916666685614,"midi":66,"time":217.01822916666666,"velocity":0.3937007874015748},{"duration":0.1770833333333428,"midi":66,"time":217.0546875,"velocity":0.3937007874015748},{"duration":0.17578125,"midi":62,"time":217.06640625,"velocity":0.3937007874015748},{"duration":0.17578125,"midi":81,"time":217.1015625,"velocity":0.3937007874015748},{"duration":0.05989583333334281,"midi":93,"time":217.125,"velocity":0.3937007874015748},{"duration":0.05989583333334281,"midi":61,"time":217.171875,"velocity":0.3937007874015748},{"duration":0.1744791666666572,"midi":66,"time":217.18359375,"velocity":0.3937007874015748},{"duration":0.1744791666666572,"midi":81,"time":217.20703125,"velocity":0.3937007874015748},{"duration":0.05989583333334281,"midi":75,"time":217.20703125,"velocity":0.3937007874015748},{"duration":0.42578125,"midi":74,"time":217.23177083333334,"velocity":0.3937007874015748},{"duration":0.30078125,"midi":90,"time":217.23177083333334,"velocity":0.3937007874015748},{"duration":0.05989583333334281,"midi":60,"time":217.2421875,"velocity":0.3937007874015748},{"duration":0.1744791666666572,"midi":95,"time":217.25390625,"velocity":0.3937007874015748},{"duration":0.05859375,"midi":64,"time":217.265625,"velocity":0.3937007874015748},{"duration":0.05859375,"midi":88,"time":217.265625,"velocity":0.3937007874015748},{"duration":0.4244791666666572,"midi":57,"time":217.27734375,"velocity":0.3937007874015748},{"duration":0.05859375,"midi":63,"time":217.2890625,"velocity":0.3937007874015748},{"duration":0.05859375,"midi":66,"time":217.3125,"velocity":0.3937007874015748},{"duration":0.1770833333333428,"midi":88,"time":217.33463541666666,"velocity":0.3937007874015748},{"duration":0.1770833333333428,"midi":93,"time":217.33463541666666,"velocity":0.3937007874015748},{"duration":0.05989583333334281,"midi":81,"time":217.38151041666666,"velocity":0.3937007874015748},{"duration":0.05989583333334281,"midi":66,"time":217.38151041666666,"velocity":0.3937007874015748},{"duration":0.06119791666665719,"midi":91,"time":217.45052083333334,"velocity":0.3937007874015748},{"duration":0.06119791666665719,"midi":72,"time":217.45052083333334,"velocity":0.3937007874015748},{"duration":0.06119791666665719,"midi":84,"time":217.45052083333334,"velocity":0.3937007874015748},{"duration":0.4244791666666856,"midi":88,"time":217.46354166666666,"velocity":0.3937007874015748},{"duration":0.1770833333333428,"midi":66,"time":217.46354166666666,"velocity":0.3937007874015748},{"duration":0.05989583333334281,"midi":90,"time":217.47526041666666,"velocity":0.3937007874015748},{"duration":0.296875,"midi":81,"time":217.47526041666666,"velocity":0.3937007874015748},{"duration":0.17578125,"midi":91,"time":217.48697916666666,"velocity":0.3937007874015748},{"duration":0.421875,"midi":88,"time":217.5,"velocity":0.3937007874015748},{"duration":0.296875,"midi":85,"time":217.5,"velocity":0.3937007874015748},{"duration":0.05859375,"midi":76,"time":217.53385416666666,"velocity":0.3937007874015748},{"duration":0.05989583333334281,"midi":76,"time":217.58072916666666,"velocity":0.3937007874015748},{"duration":0.05989583333334281,"midi":87,"time":217.61588541666666,"velocity":0.3937007874015748},{"duration":0.171875,"midi":89,"time":217.61588541666666,"velocity":0.3937007874015748},{"duration":0.05989583333334281,"midi":84,"time":217.61588541666666,"velocity":0.3937007874015748},{"duration":0.171875,"midi":90,"time":217.61588541666666,"velocity":0.3937007874015748},{"duration":0.05859375,"midi":63,"time":217.62760416666666,"velocity":0.3937007874015748},{"duration":0.171875,"midi":91,"time":217.62760416666666,"velocity":0.3937007874015748},{"duration":0.171875,"midi":85,"time":217.62760416666666,"velocity":0.3937007874015748},{"duration":0.05859375,"midi":78,"time":217.62760416666666,"velocity":0.3937007874015748},{"duration":0.057291666666685614,"midi":71,"time":217.63932291666666,"velocity":0.3937007874015748},{"duration":0.057291666666685614,"midi":51,"time":217.63932291666666,"velocity":0.3937007874015748},{"duration":0.05729166666665719,"midi":60,"time":217.64973958333334,"velocity":0.3937007874015748},{"duration":0.05729166666665719,"midi":50,"time":217.64973958333334,"velocity":0.3937007874015748},{"duration":0.05729166666665719,"midi":94,"time":217.64973958333334,"velocity":0.3937007874015748},{"duration":0.05729166666665719,"midi":68,"time":217.64973958333334,"velocity":0.3937007874015748},{"duration":0.17317708333331439,"midi":73,"time":217.64973958333334,"velocity":0.3937007874015748},{"duration":0.05598958333334281,"midi":42,"time":217.66276041666666,"velocity":0.3937007874015748},{"duration":0.0546875,"midi":92,"time":217.67447916666666,"velocity":0.3937007874015748},{"duration":0.1731770833333428,"midi":89,"time":217.67447916666666,"velocity":0.3937007874015748},{"duration":0.1731770833333428,"midi":69,"time":217.67447916666666,"velocity":0.3937007874015748},{"duration":0.055989583333314386,"midi":65,"time":217.68489583333334,"velocity":0.3937007874015748},{"duration":0.17317708333331439,"midi":79,"time":217.68489583333334,"velocity":0.3937007874015748},{"duration":0.055989583333314386,"midi":41,"time":217.68489583333334,"velocity":0.3937007874015748},{"duration":0.1744791666666572,"midi":86,"time":217.69661458333334,"velocity":0.3937007874015748},{"duration":0.05729166666665719,"midi":40,"time":217.70703125,"velocity":0.3937007874015748},{"duration":0.17578125,"midi":74,"time":217.71744791666666,"velocity":0.3937007874015748},{"duration":0.17578125,"midi":65,"time":217.72916666666666,"velocity":0.3937007874015748},{"duration":0.17578125,"midi":87,"time":217.76302083333334,"velocity":0.3937007874015748},{"duration":0.17578125,"midi":80,"time":217.76302083333334,"velocity":0.3937007874015748},{"duration":0.15364583333331439,"midi":69,"time":217.78645833333334,"velocity":0.3937007874015748},{"duration":0.06119791666665719,"midi":60,"time":217.78645833333334,"velocity":0.3937007874015748},{"duration":0.06119791666665719,"midi":91,"time":217.78645833333334,"velocity":0.3937007874015748},{"duration":0.1744791666666572,"midi":81,"time":217.79817708333334,"velocity":0.3937007874015748},{"duration":0.05989583333334281,"midi":78,"time":217.81119791666666,"velocity":0.3937007874015748},{"duration":0.05989583333334281,"midi":52,"time":217.81119791666666,"velocity":0.3937007874015748},{"duration":0.08203125,"midi":85,"time":217.81119791666666,"velocity":0.3937007874015748},{"duration":0.1731770833333428,"midi":73,"time":217.82291666666666,"velocity":0.3937007874015748},{"duration":0.2955729166666856,"midi":65,"time":217.83463541666666,"velocity":0.3937007874015748},{"duration":0.15104166666668561,"midi":85,"time":217.83463541666666,"velocity":0.3937007874015748},{"duration":0.05729166666665719,"midi":95,"time":217.84765625,"velocity":0.3937007874015748},{"duration":0.2942708333333428,"midi":77,"time":217.84765625,"velocity":0.3937007874015748},{"duration":0.171875,"midi":89,"time":217.84765625,"velocity":0.3937007874015748},{"duration":0.2942708333333428,"midi":86,"time":217.86979166666666,"velocity":0.3937007874015748},{"duration":0.1731770833333428,"midi":79,"time":217.86979166666666,"velocity":0.3937007874015748},{"duration":0.08072916666668561,"midi":69,"time":217.88151041666666,"velocity":0.3937007874015748},{"duration":0.1731770833333428,"midi":84,"time":217.89322916666666,"velocity":0.3937007874015748},{"duration":0.1731770833333428,"midi":87,"time":217.89322916666666,"velocity":0.3937007874015748},{"duration":0.1731770833333428,"midi":72,"time":217.89322916666666,"velocity":0.3937007874015748},{"duration":0.05859375,"midi":41,"time":217.90364583333334,"velocity":0.3937007874015748},{"duration":0.1744791666666572,"midi":70,"time":217.9140625,"velocity":0.3937007874015748},{"duration":0.05859375,"midi":88,"time":217.92708333333334,"velocity":0.3937007874015748},{"duration":0.05729166666665719,"midi":88,"time":217.93880208333334,"velocity":0.3937007874015748},{"duration":0.05859375,"midi":88,"time":217.984375,"velocity":0.3937007874015748},{"duration":0.05989583333334281,"midi":81,"time":218.00651041666666,"velocity":0.3937007874015748},{"duration":0.17057291666668561,"midi":89,"time":218.01822916666666,"velocity":0.3937007874015748},{"duration":0.05859375,"midi":85,"time":218.02994791666666,"velocity":0.3937007874015748},{"duration":0.05859375,"midi":41,"time":218.02994791666666,"velocity":0.3937007874015748},{"duration":0.05859375,"midi":74,"time":218.02994791666666,"velocity":0.3937007874015748},{"duration":0.05859375,"midi":87,"time":218.02994791666666,"velocity":0.3937007874015748},{"duration":0.05859375,"midi":42,"time":218.05338541666666,"velocity":0.3937007874015748},{"duration":0.17057291666668561,"midi":57,"time":218.05338541666666,"velocity":0.3937007874015748},{"duration":0.17057291666668561,"midi":87,"time":218.05338541666666,"velocity":0.3937007874015748},{"duration":0.057291666666685614,"midi":79,"time":218.06510416666666,"velocity":0.3937007874015748},{"duration":0.057291666666685614,"midi":48,"time":218.06510416666666,"velocity":0.3937007874015748},{"duration":0.057291666666685614,"midi":81,"time":218.07682291666666,"velocity":0.3937007874015748},{"duration":0.05598958333334281,"midi":41,"time":218.08854166666666,"velocity":0.3937007874015748},{"duration":0.16796875,"midi":69,"time":218.09895833333334,"velocity":0.3937007874015748},{"duration":0.16796875,"midi":85,"time":218.09895833333334,"velocity":0.3937007874015748},{"duration":0.16796875,"midi":79,"time":218.09895833333334,"velocity":0.3937007874015748},{"duration":0.05598958333334281,"midi":65,"time":218.11197916666666,"velocity":0.3937007874015748},{"duration":0.16796875,"midi":93,"time":218.12239583333334,"velocity":0.3937007874015748},{"duration":0.055989583333314386,"midi":88,"time":218.12239583333334,"velocity":0.3937007874015748},{"duration":0.1692708333333428,"midi":86,"time":218.1328125,"velocity":0.3937007874015748},{"duration":0.057291666666685614,"midi":76,"time":218.14322916666666,"velocity":0.3937007874015748},{"duration":0.057291666666685614,"midi":67,"time":218.14322916666666,"velocity":0.3937007874015748},{"duration":0.1692708333333428,"midi":65,"time":218.16666666666666,"velocity":0.3937007874015748},{"duration":0.057291666666685614,"midi":50,"time":218.16666666666666,"velocity":0.3937007874015748},{"duration":0.05729166666665719,"midi":87,"time":218.17708333333334,"velocity":0.3937007874015748},{"duration":0.05729166666665719,"midi":77,"time":218.17708333333334,"velocity":0.3937007874015748},{"duration":0.05729166666665719,"midi":82,"time":218.18880208333334,"velocity":0.3937007874015748},{"duration":0.05729166666665719,"midi":84,"time":218.18880208333334,"velocity":0.3937007874015748},{"duration":0.055989583333314386,"midi":70,"time":218.20052083333334,"velocity":0.3937007874015748},{"duration":0.171875,"midi":90,"time":218.2109375,"velocity":0.3937007874015748},{"duration":0.05598958333334281,"midi":83,"time":218.2109375,"velocity":0.3937007874015748},{"duration":0.055989583333314386,"midi":49,"time":218.22395833333334,"velocity":0.3937007874015748},{"duration":0.1731770833333428,"midi":78,"time":218.234375,"velocity":0.3937007874015748},{"duration":0.17447916666668561,"midi":69,"time":218.24479166666666,"velocity":0.3937007874015748},{"duration":0.057291666666685614,"midi":85,"time":218.24479166666666,"velocity":0.3937007874015748},{"duration":0.17447916666668561,"midi":42,"time":218.24479166666666,"velocity":0.3937007874015748},{"duration":0.17447916666668561,"midi":74,"time":218.24479166666666,"velocity":0.3937007874015748},{"duration":0.05729166666665719,"midi":82,"time":218.25520833333334,"velocity":0.3937007874015748},{"duration":0.05729166666665719,"midi":88,"time":218.25520833333334,"velocity":0.3937007874015748},{"duration":0.05729166666665719,"midi":89,"time":218.25520833333334,"velocity":0.3937007874015748},{"duration":0.05859375,"midi":83,"time":218.2890625,"velocity":0.3937007874015748},{"duration":0.6653645833333144,"midi":91,"time":218.30208333333334,"velocity":0.3937007874015748},{"duration":0.05859375,"midi":71,"time":218.30208333333334,"velocity":0.3937007874015748},{"duration":0.2955729166666572,"midi":86,"time":218.30208333333334,"velocity":0.3937007874015748},{"duration":0.05859375,"midi":66,"time":218.30208333333334,"velocity":0.3937007874015748},{"duration":0.2955729166666572,"midi":79,"time":218.3125,"velocity":0.3937007874015748},{"duration":0.2955729166666572,"midi":77,"time":218.3125,"velocity":0.3937007874015748},{"duration":0.296875,"midi":89,"time":218.32291666666666,"velocity":0.3937007874015748},{"duration":0.4192708333333428,"midi":84,"time":218.3359375,"velocity":0.3937007874015748},{"duration":0.171875,"midi":72,"time":218.3359375,"velocity":0.3937007874015748},{"duration":0.06119791666665719,"midi":93,"time":218.37109375,"velocity":0.3937007874015748},{"duration":0.06119791666665719,"midi":95,"time":218.37109375,"velocity":0.3937007874015748},{"duration":0.05989583333334281,"midi":50,"time":218.3828125,"velocity":0.3937007874015748},{"duration":0.1705729166666572,"midi":81,"time":218.3828125,"velocity":0.3937007874015748},{"duration":0.05859375,"midi":66,"time":218.39453125,"velocity":0.3937007874015748},{"duration":0.05859375,"midi":43,"time":218.39453125,"velocity":0.3937007874015748},{"duration":0.05729166666665719,"midi":60,"time":218.40625,"velocity":0.3937007874015748},{"duration":0.05729166666665719,"midi":56,"time":218.40625,"velocity":0.3937007874015748},{"duration":0.06640625,"midi":90,"time":218.41927083333334,"velocity":0.3937007874015748},{"duration":0.055989583333314386,"midi":65,"time":218.41927083333334,"velocity":0.3937007874015748},{"duration":0.16927083333331439,"midi":94,"time":218.43098958333334,"velocity":0.3937007874015748},{"duration":0.15755208333331439,"midi":90,"time":218.43098958333334,"velocity":0.3937007874015748},{"duration":0.0546875,"midi":85,"time":218.43098958333334,"velocity":0.3937007874015748},{"duration":0.0546875,"midi":41,"time":218.44140625,"velocity":0.3937007874015748},{"duration":0.0546875,"midi":71,"time":218.44140625,"velocity":0.3937007874015748},{"duration":0.0546875,"midi":95,"time":218.44140625,"velocity":0.3937007874015748},{"duration":0.0546875,"midi":87,"time":218.44140625,"velocity":0.3937007874015748},{"duration":0.1705729166666572,"midi":50,"time":218.453125,"velocity":0.3937007874015748},{"duration":0.0546875,"midi":40,"time":218.453125,"velocity":0.3937007874015748},{"duration":0.0546875,"midi":63,"time":218.46354166666666,"velocity":0.3937007874015748},{"duration":0.2643229166666572,"midi":88,"time":218.47395833333334,"velocity":0.3937007874015748},{"duration":0.055989583333314386,"midi":44,"time":218.47395833333334,"velocity":0.3937007874015748},{"duration":0.17317708333331439,"midi":70,"time":218.48567708333334,"velocity":0.3937007874015748},{"duration":0.2942708333333144,"midi":72,"time":218.48567708333334,"velocity":0.3937007874015748},{"duration":0.1731770833333428,"midi":93,"time":218.49609375,"velocity":0.3937007874015748},{"duration":0.1731770833333428,"midi":43,"time":218.49609375,"velocity":0.3937007874015748},{"duration":0.1731770833333428,"midi":95,"time":218.50651041666666,"velocity":0.3937007874015748},{"duration":0.059895833333314386,"midi":58,"time":218.51692708333334,"velocity":0.3937007874015748},{"duration":0.059895833333314386,"midi":85,"time":218.54036458333334,"velocity":0.3937007874015748},{"duration":0.059895833333314386,"midi":78,"time":218.54036458333334,"velocity":0.3937007874015748},{"duration":1.0403645833333428,"midi":65,"time":218.56510416666666,"velocity":0.3937007874015748},{"duration":0.1731770833333428,"midi":74,"time":218.56510416666666,"velocity":0.3937007874015748},{"duration":0.1731770833333428,"midi":77,"time":218.56510416666666,"velocity":0.3937007874015748},{"duration":0.1731770833333428,"midi":81,"time":218.56510416666666,"velocity":0.3937007874015748},{"duration":0.4205729166666856,"midi":79,"time":218.57682291666666,"velocity":0.3937007874015748},{"duration":0.059895833333314386,"midi":42,"time":218.58723958333334,"velocity":0.3937007874015748},{"duration":0.05859375,"midi":58,"time":218.60026041666666,"velocity":0.3937007874015748},{"duration":0.05859375,"midi":43,"time":218.61067708333334,"velocity":0.3937007874015748},{"duration":0.14973958333331439,"midi":86,"time":218.62239583333334,"velocity":0.3937007874015748},{"duration":0.09244791666665719,"midi":90,"time":218.63411458333334,"velocity":0.3937007874015748},{"duration":0.1705729166666572,"midi":55,"time":218.65755208333334,"velocity":0.3937007874015748},{"duration":0.13671875,"midi":90,"time":218.66796875,"velocity":0.3937007874015748},{"duration":0.05859375,"midi":71,"time":218.6796875,"velocity":0.3937007874015748},{"duration":0.3385416666666572,"midi":88,"time":218.6796875,"velocity":0.3937007874015748},{"duration":0.05859375,"midi":83,"time":218.6796875,"velocity":0.3937007874015748},{"duration":0.05859375,"midi":70,"time":218.70182291666666,"velocity":0.3937007874015748},{"duration":0.1731770833333428,"midi":82,"time":218.70182291666666,"velocity":0.3937007874015748},{"duration":0.1731770833333428,"midi":72,"time":218.70182291666666,"velocity":0.3937007874015748},{"duration":0.05729166666665719,"midi":74,"time":218.71484375,"velocity":0.3937007874015748},{"duration":0.078125,"midi":86,"time":218.71484375,"velocity":0.3937007874015748},{"duration":0.1705729166666572,"midi":62,"time":218.7265625,"velocity":0.3937007874015748},{"duration":0.05598958333334281,"midi":81,"time":218.7265625,"velocity":0.3937007874015748},{"duration":0.05729166666665719,"midi":85,"time":218.74739583333334,"velocity":0.3937007874015748},{"duration":0.05729166666665719,"midi":80,"time":218.74739583333334,"velocity":0.3937007874015748},{"duration":0.1731770833333428,"midi":74,"time":218.76041666666666,"velocity":0.3937007874015748},{"duration":0.17317708333331439,"midi":86,"time":218.77083333333334,"velocity":0.3937007874015748},{"duration":0.17317708333331439,"midi":81,"time":218.77083333333334,"velocity":0.3937007874015748},{"duration":0.1744791666666572,"midi":70,"time":218.8046875,"velocity":0.3937007874015748},{"duration":0.05989583333334281,"midi":85,"time":218.81510416666666,"velocity":0.3937007874015748},{"duration":0.2994791666666572,"midi":94,"time":218.828125,"velocity":0.3937007874015748},{"duration":0.17578125,"midi":82,"time":218.828125,"velocity":0.3937007874015748},{"duration":0.05859375,"midi":95,"time":218.828125,"velocity":0.3937007874015748},{"duration":0.2994791666666572,"midi":89,"time":218.83984375,"velocity":0.3937007874015748},{"duration":0.54296875,"midi":89,"time":218.83984375,"velocity":0.3937007874015748},{"duration":0.1770833333333428,"midi":58,"time":218.875,"velocity":0.3937007874015748},{"duration":0.05859375,"midi":73,"time":218.875,"velocity":0.3937007874015748},{"duration":0.1770833333333428,"midi":93,"time":218.88541666666666,"velocity":0.3937007874015748},{"duration":0.1783854166666572,"midi":86,"time":218.89583333333334,"velocity":0.3937007874015748},{"duration":0.1770833333333428,"midi":72,"time":218.90885416666666,"velocity":0.3937007874015748},{"duration":0.17578125,"midi":70,"time":218.92057291666666,"velocity":0.3937007874015748},{"duration":0.17578125,"midi":74,"time":218.94401041666666,"velocity":0.3937007874015748},{"duration":0.061197916666685614,"midi":62,"time":218.99088541666666,"velocity":0.3937007874015748},{"duration":0.29296875,"midi":79,"time":219.00260416666666,"velocity":0.3937007874015748},{"duration":0.05989583333334281,"midi":88,"time":219.01432291666666,"velocity":0.3937007874015748},{"duration":0.05859375,"midi":50,"time":219.02734375,"velocity":0.3937007874015748},{"duration":0.05729166666665719,"midi":58,"time":219.0390625,"velocity":0.3937007874015748},{"duration":0.1705729166666572,"midi":43,"time":219.0625,"velocity":0.3937007874015748},{"duration":0.05729166666665719,"midi":92,"time":219.0625,"velocity":0.3937007874015748},{"duration":0.057291666666685614,"midi":74,"time":219.08463541666666,"velocity":0.3937007874015748},{"duration":0.17057291666668561,"midi":94,"time":219.08463541666666,"velocity":0.3937007874015748},{"duration":0.15885416666668561,"midi":84,"time":219.09635416666666,"velocity":0.3937007874015748},{"duration":0.17057291666668561,"midi":87,"time":219.09635416666666,"velocity":0.3937007874015748},{"duration":0.1705729166666572,"midi":93,"time":219.10677083333334,"velocity":0.3937007874015748},{"duration":0.05729166666665719,"midi":82,"time":219.11848958333334,"velocity":0.3937007874015748},{"duration":0.05729166666665719,"midi":50,"time":219.11848958333334,"velocity":0.3937007874015748},{"duration":0.05729166666665719,"midi":58,"time":219.14192708333334,"velocity":0.3937007874015748},{"duration":0.05729166666665719,"midi":70,"time":219.15234375,"velocity":0.3937007874015748},{"duration":0.05729166666665719,"midi":30,"time":219.17578125,"velocity":0.3937007874015748},{"duration":0.057291666666685614,"midi":83,"time":219.19791666666666,"velocity":0.3937007874015748},{"duration":0.06901041666668561,"midi":84,"time":219.19791666666666,"velocity":0.3937007874015748},{"duration":0.057291666666685614,"midi":80,"time":219.19791666666666,"velocity":0.3937007874015748},{"duration":0.057291666666685614,"midi":82,"time":219.19791666666666,"velocity":0.3937007874015748},{"duration":0.057291666666685614,"midi":86,"time":219.20963541666666,"velocity":0.3937007874015748},{"duration":0.057291666666685614,"midi":60,"time":219.20963541666666,"velocity":0.3937007874015748},{"duration":0.057291666666685614,"midi":68,"time":219.20963541666666,"velocity":0.3937007874015748},{"duration":0.05729166666665719,"midi":50,"time":219.22005208333334,"velocity":0.3937007874015748},{"duration":0.055989583333314386,"midi":61,"time":219.23177083333334,"velocity":0.3937007874015748},{"duration":0.055989583333314386,"midi":81,"time":219.23177083333334,"velocity":0.3937007874015748},{"duration":0.171875,"midi":45,"time":219.2421875,"velocity":0.3937007874015748},{"duration":0.05598958333334281,"midi":31,"time":219.2421875,"velocity":0.3937007874015748},{"duration":0.0546875,"midi":52,"time":219.25520833333334,"velocity":0.3937007874015748},{"duration":0.0546875,"midi":82,"time":219.25520833333334,"velocity":0.3937007874015748},{"duration":0.13932291666668561,"midi":52,"time":219.28776041666666,"velocity":0.3937007874015748},{"duration":0.05859375,"midi":33,"time":219.29817708333334,"velocity":0.3937007874015748},{"duration":0.17578125,"midi":61,"time":219.30859375,"velocity":0.3937007874015748},{"duration":0.3020833333333428,"midi":70,"time":219.30859375,"velocity":0.3937007874015748},{"duration":0.09375,"midi":52,"time":219.3671875,"velocity":0.3937007874015748},{"duration":0.15234375,"midi":79,"time":219.3671875,"velocity":0.3937007874015748},{"duration":0.17578125,"midi":94,"time":219.37890625,"velocity":0.3937007874015748},{"duration":0.17578125,"midi":93,"time":219.390625,"velocity":0.3937007874015748},{"duration":0.17578125,"midi":91,"time":219.4140625,"velocity":0.3937007874015748},{"duration":0.4231770833333428,"midi":74,"time":219.4140625,"velocity":0.3937007874015748},{"duration":0.17578125,"midi":86,"time":219.4140625,"velocity":0.3937007874015748},{"duration":0.1770833333333428,"midi":62,"time":219.4375,"velocity":0.3937007874015748},{"duration":0.08333333333334281,"midi":79,"time":219.45963541666666,"velocity":0.3937007874015748},{"duration":0.1770833333333428,"midi":90,"time":219.47265625,"velocity":0.3937007874015748},{"duration":0.1770833333333428,"midi":88,"time":219.47265625,"velocity":0.3937007874015748},{"duration":0.1770833333333428,"midi":90,"time":219.47265625,"velocity":0.3937007874015748},{"duration":0.17578125,"midi":58,"time":219.50651041666666,"velocity":0.3937007874015748},{"duration":0.546875,"midi":65,"time":219.51953125,"velocity":0.3937007874015748},{"duration":0.4231770833333428,"midi":77,"time":219.52994791666666,"velocity":0.3937007874015748},{"duration":0.05989583333334281,"midi":81,"time":219.56640625,"velocity":0.3937007874015748},{"duration":0.05989583333334281,"midi":57,"time":219.6015625,"velocity":0.3937007874015748},{"duration":0.05859375,"midi":62,"time":219.61328125,"velocity":0.3937007874015748},{"duration":0.05729166666665719,"midi":42,"time":219.625,"velocity":0.3937007874015748},{"duration":0.05729166666665719,"midi":50,"time":219.63671875,"velocity":0.3937007874015748},{"duration":0.171875,"midi":57,"time":219.671875,"velocity":0.3937007874015748},{"duration":0.171875,"midi":79,"time":219.671875,"velocity":0.3937007874015748},{"duration":0.05859375,"midi":30,"time":219.69270833333334,"velocity":0.3937007874015748},{"duration":0.05859375,"midi":29,"time":219.73828125,"velocity":0.3937007874015748},{"duration":0.1627604166666572,"midi":79,"time":219.796875,"velocity":0.3937007874015748},{"duration":0.05859375,"midi":52,"time":219.80729166666666,"velocity":0.3937007874015748},{"duration":0.05859375,"midi":71,"time":219.80729166666666,"velocity":0.3937007874015748},{"duration":0.1731770833333428,"midi":45,"time":219.8203125,"velocity":0.3937007874015748},{"duration":0.05859375,"midi":74,"time":219.8203125,"velocity":0.3937007874015748},{"duration":0.55078125,"midi":84,"time":219.84244791666666,"velocity":0.3937007874015748},{"duration":0.6770833333333428,"midi":91,"time":219.84244791666666,"velocity":0.3937007874015748},{"duration":0.55078125,"midi":72,"time":219.84244791666666,"velocity":0.3937007874015748},{"duration":0.55078125,"midi":88,"time":219.84244791666666,"velocity":0.3937007874015748},{"duration":0.17447916666668561,"midi":70,"time":219.86588541666666,"velocity":0.3937007874015748},{"duration":0.059895833333314386,"midi":55,"time":219.88802083333334,"velocity":0.3937007874015748},{"duration":0.06901041666668561,"midi":79,"time":219.90104166666666,"velocity":0.3937007874015748},{"duration":0.057291666666685614,"midi":62,"time":219.94791666666666,"velocity":0.3937007874015748},{"duration":0.1744791666666572,"midi":58,"time":219.9921875,"velocity":0.3937007874015748},{"duration":0.1744791666666572,"midi":86,"time":219.9921875,"velocity":0.3937007874015748},{"duration":0.05989583333334281,"midi":79,"time":219.9921875,"velocity":0.3937007874015748},{"duration":0.1744791666666572,"midi":68,"time":220.00390625,"velocity":0.3937007874015748},{"duration":0.05859375,"midi":41,"time":220.00390625,"velocity":0.3937007874015748},{"duration":0.17578125,"midi":53,"time":220.015625,"velocity":0.3937007874015748},{"duration":0.30078125,"midi":46,"time":220.02734375,"velocity":0.3937007874015748},{"duration":0.05859375,"midi":32,"time":220.0390625,"velocity":0.3937007874015748},{"duration":0.05859375,"midi":35,"time":220.0625,"velocity":0.3937007874015748},{"duration":0.17578125,"midi":34,"time":220.0859375,"velocity":0.3937007874015748},{"duration":0.05989583333334281,"midi":74,"time":220.13151041666666,"velocity":0.3937007874015748},{"duration":0.1770833333333428,"midi":67,"time":220.16666666666666,"velocity":0.3937007874015748},{"duration":0.1770833333333428,"midi":62,"time":220.21354166666666,"velocity":0.3937007874015748},{"duration":0.05989583333334281,"midi":32,"time":220.22526041666666,"velocity":0.3937007874015748},{"duration":0.05989583333334281,"midi":70,"time":220.24869791666666,"velocity":0.3937007874015748},{"duration":0.5520833333333428,"midi":65,"time":220.30729166666666,"velocity":0.3937007874015748},{"duration":0.5533854166666856,"midi":94,"time":220.31901041666666,"velocity":0.3937007874015748},{"duration":0.4296875,"midi":89,"time":220.31901041666666,"velocity":0.3937007874015748},{"duration":0.05989583333334281,"midi":79,"time":220.33072916666666,"velocity":0.3937007874015748},{"duration":0.05989583333334281,"midi":88,"time":220.34244791666666,"velocity":0.3937007874015748},{"duration":0.05989583333334281,"midi":84,"time":220.36588541666666,"velocity":0.3937007874015748},{"duration":0.05989583333334281,"midi":75,"time":220.37760416666666,"velocity":0.3937007874015748},{"duration":0.05989583333334281,"midi":84,"time":220.37760416666666,"velocity":0.3937007874015748},{"duration":0.1770833333333428,"midi":70,"time":220.37760416666666,"velocity":0.3937007874015748},{"duration":0.1770833333333428,"midi":67,"time":220.41276041666666,"velocity":0.3937007874015748},{"duration":0.1770833333333428,"midi":82,"time":220.42447916666666,"velocity":0.3937007874015748},{"duration":0.07161458333334281,"midi":91,"time":220.49479166666666,"velocity":0.3937007874015748},{"duration":0.1653645833333428,"midi":91,"time":220.50651041666666,"velocity":0.3937007874015748},{"duration":0.7981770833333428,"midi":77,"time":220.54166666666666,"velocity":0.3937007874015748},{"duration":0.05989583333334281,"midi":79,"time":220.56640625,"velocity":0.3937007874015748},{"duration":0.1770833333333428,"midi":86,"time":220.57682291666666,"velocity":0.3937007874015748},{"duration":0.1770833333333428,"midi":84,"time":220.57682291666666,"velocity":0.3937007874015748},{"duration":0.17578125,"midi":87,"time":220.61328125,"velocity":0.3937007874015748},{"duration":0.17578125,"midi":74,"time":220.625,"velocity":0.3937007874015748},{"duration":0.17578125,"midi":93,"time":220.625,"velocity":0.3937007874015748},{"duration":0.2981770833333428,"midi":91,"time":220.671875,"velocity":0.3937007874015748},{"duration":0.05989583333334281,"midi":86,"time":220.71875,"velocity":0.3937007874015748},{"duration":0.05989583333334281,"midi":79,"time":220.74088541666666,"velocity":0.3937007874015748},{"duration":0.05989583333334281,"midi":93,"time":220.74088541666666,"velocity":0.3937007874015748},{"duration":0.1731770833333428,"midi":82,"time":220.75390625,"velocity":0.3937007874015748},{"duration":0.05859375,"midi":84,"time":220.75390625,"velocity":0.3937007874015748},{"duration":0.05859375,"midi":68,"time":220.75390625,"velocity":0.3937007874015748},{"duration":0.05859375,"midi":62,"time":220.75390625,"velocity":0.3937007874015748},{"duration":0.05729166666665719,"midi":51,"time":220.765625,"velocity":0.3937007874015748},{"duration":0.1731770833333428,"midi":65,"time":220.765625,"velocity":0.3937007874015748},{"duration":0.05729166666665719,"midi":50,"time":220.77734375,"velocity":0.3937007874015748},{"duration":0.05729166666665719,"midi":41,"time":220.7890625,"velocity":0.3937007874015748},{"duration":0.05729166666665719,"midi":59,"time":220.7890625,"velocity":0.3937007874015748},{"duration":0.05729166666665719,"midi":49,"time":220.7890625,"velocity":0.3937007874015748},{"duration":0.4192708333333428,"midi":70,"time":220.80078125,"velocity":0.3937007874015748},{"duration":0.1731770833333428,"midi":54,"time":220.81119791666666,"velocity":0.3937007874015748},{"duration":0.05859375,"midi":61,"time":220.82291666666666,"velocity":0.3937007874015748},{"duration":0.296875,"midi":84,"time":220.84505208333334,"velocity":0.3937007874015748},{"duration":0.05859375,"midi":42,"time":220.84505208333334,"velocity":0.3937007874015748},{"duration":0.05859375,"midi":53,"time":220.88020833333334,"velocity":0.3937007874015748},{"duration":0.05859375,"midi":60,"time":220.88020833333334,"velocity":0.3937007874015748},{"duration":0.05859375,"midi":41,"time":220.90364583333334,"velocity":0.3937007874015748},{"duration":0.05859375,"midi":52,"time":220.92578125,"velocity":0.3937007874015748},{"duration":0.05859375,"midi":61,"time":220.92578125,"velocity":0.3937007874015748},{"duration":0.05859375,"midi":60,"time":220.94921875,"velocity":0.3937007874015748},{"duration":0.05859375,"midi":51,"time":220.94921875,"velocity":0.3937007874015748},{"duration":0.05859375,"midi":79,"time":220.9609375,"velocity":0.3937007874015748},{"duration":0.2981770833333428,"midi":65,"time":220.97265625,"velocity":0.3937007874015748},{"duration":0.05989583333334281,"midi":93,"time":220.99479166666666,"velocity":0.3937007874015748},{"duration":0.1731770833333428,"midi":50,"time":220.99479166666666,"velocity":0.3937007874015748},{"duration":0.171875,"midi":57,"time":221.00651041666666,"velocity":0.3937007874015748},{"duration":0.05859375,"midi":40,"time":221.00651041666666,"velocity":0.3937007874015748},{"duration":0.1731770833333428,"midi":61,"time":221.06510416666666,"velocity":0.3937007874015748},{"duration":0.05859375,"midi":49,"time":221.07552083333334,"velocity":0.3937007874015748},{"duration":0.057291666666685614,"midi":41,"time":221.08854166666666,"velocity":0.3937007874015748},{"duration":0.057291666666685614,"midi":91,"time":221.08854166666666,"velocity":0.3937007874015748},{"duration":0.05729166666665719,"midi":56,"time":221.11067708333334,"velocity":0.3937007874015748},{"duration":0.05729166666665719,"midi":41,"time":221.13411458333334,"velocity":0.3937007874015748},{"duration":0.05729166666665719,"midi":49,"time":221.13411458333334,"velocity":0.3937007874015748},{"duration":0.3020833333333144,"midi":79,"time":221.13411458333334,"velocity":0.3937007874015748},{"duration":0.17578125,"midi":86,"time":221.15494791666666,"velocity":0.3937007874015748},{"duration":0.140625,"midi":57,"time":221.16796875,"velocity":0.3937007874015748},{"duration":0.05989583333334281,"midi":48,"time":221.17838541666666,"velocity":0.3937007874015748},{"duration":0.1770833333333428,"midi":74,"time":221.17838541666666,"velocity":0.3937007874015748},{"duration":0.05989583333334281,"midi":84,"time":221.21354166666666,"velocity":0.3937007874015748},{"duration":0.05989583333334281,"midi":67,"time":221.22526041666666,"velocity":0.3937007874015748},{"duration":0.05859375,"midi":82,"time":221.23697916666666,"velocity":0.3937007874015748},{"duration":0.05989583333334281,"midi":89,"time":221.24869791666666,"velocity":0.3937007874015748},{"duration":0.17838541666668561,"midi":65,"time":221.24869791666666,"velocity":0.3937007874015748},{"duration":0.09505208333334281,"midi":57,"time":221.24869791666666,"velocity":0.3937007874015748},{"duration":0.05989583333334281,"midi":47,"time":221.26041666666666,"velocity":0.3937007874015748},{"duration":0.17838541666668561,"midi":70,"time":221.27213541666666,"velocity":0.3937007874015748},{"duration":0.9518229166666856,"midi":89,"time":221.29557291666666,"velocity":0.3937007874015748},{"duration":0.05989583333334281,"midi":93,"time":221.29557291666666,"velocity":0.3937007874015748},{"duration":0.1796875,"midi":67,"time":221.38932291666666,"velocity":0.3937007874015748},{"duration":0.4270833333333428,"midi":74,"time":221.40234375,"velocity":0.3937007874015748},{"duration":0.1783854166666572,"midi":93,"time":221.40234375,"velocity":0.3937007874015748},{"duration":0.06119791666665719,"midi":46,"time":221.4140625,"velocity":0.3937007874015748},{"duration":0.06119791666665719,"midi":86,"time":221.42578125,"velocity":0.3937007874015748},{"duration":0.17708333333331439,"midi":65,"time":221.45052083333334,"velocity":0.3937007874015748},{"duration":0.059895833333314386,"midi":69,"time":221.45052083333334,"velocity":0.3937007874015748},{"duration":0.17708333333331439,"midi":60,"time":221.49739583333334,"velocity":0.3937007874015748},{"duration":0.059895833333314386,"midi":34,"time":221.50911458333334,"velocity":0.3937007874015748},{"duration":0.30078125,"midi":70,"time":221.50911458333334,"velocity":0.3937007874015748},{"duration":0.17578125,"midi":86,"time":221.54427083333334,"velocity":0.3937007874015748},{"duration":0.05989583333334281,"midi":64,"time":221.55729166666666,"velocity":0.3937007874015748},{"duration":0.05989583333334281,"midi":93,"time":221.55729166666666,"velocity":0.3937007874015748},{"duration":0.5520833333333428,"midi":94,"time":221.55729166666666,"velocity":0.3937007874015748},{"duration":0.9140625,"midi":89,"time":221.56901041666666,"velocity":0.3937007874015748},{"duration":0.05989583333334281,"midi":37,"time":221.59244791666666,"velocity":0.3937007874015748},{"duration":0.05989583333334281,"midi":47,"time":221.59244791666666,"velocity":0.3937007874015748},{"duration":0.17447916666668561,"midi":53,"time":221.60416666666666,"velocity":0.3937007874015748},{"duration":0.05989583333334281,"midi":68,"time":221.60416666666666,"velocity":0.3937007874015748},{"duration":0.05989583333334281,"midi":63,"time":221.60416666666666,"velocity":0.3937007874015748},{"duration":0.059895833333314386,"midi":64,"time":221.62630208333334,"velocity":0.3937007874015748},{"duration":0.1744791666666572,"midi":46,"time":221.62630208333334,"velocity":0.3937007874015748},{"duration":0.17447916666668561,"midi":91,"time":221.63932291666666,"velocity":0.3937007874015748},{"duration":0.17447916666668561,"midi":81,"time":221.63932291666666,"velocity":0.3937007874015748},{"duration":0.05859375,"midi":34,"time":221.65104166666666,"velocity":0.3937007874015748},{"duration":0.1731770833333428,"midi":77,"time":221.65104166666666,"velocity":0.3937007874015748},{"duration":0.05859375,"midi":63,"time":221.65104166666666,"velocity":0.3937007874015748},{"duration":0.05859375,"midi":67,"time":221.65104166666666,"velocity":0.3937007874015748},{"duration":0.05859375,"midi":33,"time":221.68619791666666,"velocity":0.3937007874015748},{"duration":0.05859375,"midi":64,"time":221.68619791666666,"velocity":0.3937007874015748},{"duration":0.05859375,"midi":34,"time":221.70963541666666,"velocity":0.3937007874015748},{"duration":0.05859375,"midi":60,"time":221.72005208333334,"velocity":0.3937007874015748},{"duration":0.17317708333331439,"midi":86,"time":221.73177083333334,"velocity":0.3937007874015748},{"duration":0.5533854166666572,"midi":65,"time":221.74348958333334,"velocity":0.3937007874015748},{"duration":0.30078125,"midi":70,"time":221.75520833333334,"velocity":0.3937007874015748},{"duration":0.05859375,"midi":50,"time":221.75520833333334,"velocity":0.3937007874015748},{"duration":0.17317708333331439,"midi":91,"time":221.75520833333334,"velocity":0.3937007874015748},{"duration":0.05729166666665719,"midi":84,"time":221.76692708333334,"velocity":0.3937007874015748},{"duration":0.05729166666665719,"midi":62,"time":221.8125,"velocity":0.3937007874015748},{"duration":0.3046875,"midi":57,"time":221.84505208333334,"velocity":0.3937007874015748},{"duration":0.059895833333314386,"midi":85,"time":221.84505208333334,"velocity":0.3937007874015748},{"duration":0.3046875,"midi":74,"time":221.88020833333334,"velocity":0.3937007874015748},{"duration":0.1783854166666572,"midi":86,"time":221.89192708333334,"velocity":0.3937007874015748},{"duration":0.1432291666666572,"midi":84,"time":221.92708333333334,"velocity":0.3937007874015748},{"duration":0.5572916666666856,"midi":50,"time":221.94010416666666,"velocity":0.3937007874015748},{"duration":0.3046875,"midi":91,"time":221.98697916666666,"velocity":0.3937007874015748},{"duration":0.3046875,"midi":88,"time":221.98697916666666,"velocity":0.3937007874015748},{"duration":0.3046875,"midi":88,"time":221.99869791666666,"velocity":0.3937007874015748},{"duration":0.3046875,"midi":81,"time":221.99869791666666,"velocity":0.3937007874015748},{"duration":0.09505208333334281,"midi":84,"time":222.01041666666666,"velocity":0.3937007874015748},{"duration":0.1770833333333428,"midi":69,"time":222.01041666666666,"velocity":0.3937007874015748},{"duration":0.6783854166666572,"midi":77,"time":222.0234375,"velocity":0.3937007874015748},{"duration":0.1770833333333428,"midi":85,"time":222.0234375,"velocity":0.3937007874015748},{"duration":0.05989583333334281,"midi":84,"time":222.10546875,"velocity":0.3937007874015748},{"duration":0.1770833333333428,"midi":94,"time":222.15234375,"velocity":0.3937007874015748},{"duration":0.05989583333334281,"midi":69,"time":222.15234375,"velocity":0.3937007874015748},{"duration":0.1770833333333428,"midi":82,"time":222.1640625,"velocity":0.3937007874015748},{"duration":0.1770833333333428,"midi":70,"time":222.19921875,"velocity":0.3937007874015748},{"duration":0.11979166666665719,"midi":84,"time":222.24609375,"velocity":0.3937007874015748},{"duration":0.1770833333333428,"midi":87,"time":222.24609375,"velocity":0.3937007874015748},{"duration":0.1770833333333428,"midi":65,"time":222.24609375,"velocity":0.3937007874015748},{"duration":0.17708333333331439,"midi":88,"time":222.29427083333334,"velocity":0.3937007874015748},{"duration":0.1171875,"midi":84,"time":222.30598958333334,"velocity":0.3937007874015748},{"duration":0.2994791666666572,"midi":91,"time":222.34114583333334,"velocity":0.3937007874015748},{"duration":0.059895833333314386,"midi":68,"time":222.35286458333334,"velocity":0.3937007874015748},{"duration":0.17578125,"midi":82,"time":222.36588541666666,"velocity":0.3937007874015748},{"duration":0.05859375,"midi":60,"time":222.36588541666666,"velocity":0.3937007874015748},{"duration":0.05859375,"midi":85,"time":222.36588541666666,"velocity":0.3937007874015748},{"duration":0.059895833333314386,"midi":79,"time":222.37630208333334,"velocity":0.3937007874015748},{"duration":0.059895833333314386,"midi":84,"time":222.37630208333334,"velocity":0.3937007874015748},{"duration":0.059895833333314386,"midi":70,"time":222.37630208333334,"velocity":0.3937007874015748},{"duration":0.6731770833333144,"midi":65,"time":222.38802083333334,"velocity":0.3937007874015748},{"duration":0.059895833333314386,"midi":87,"time":222.42317708333334,"velocity":0.3937007874015748},{"duration":0.1744791666666572,"midi":58,"time":222.44661458333334,"velocity":0.3937007874015748},{"duration":0.17317708333331439,"midi":93,"time":222.45833333333334,"velocity":0.3937007874015748},{"duration":0.059895833333314386,"midi":88,"time":222.49348958333334,"velocity":0.3937007874015748},{"duration":0.059895833333314386,"midi":48,"time":222.52864583333334,"velocity":0.3937007874015748},{"duration":0.059895833333314386,"midi":57,"time":222.52864583333334,"velocity":0.3937007874015748},{"duration":0.0703125,"midi":84,"time":222.52864583333334,"velocity":0.3937007874015748},{"duration":0.2877604166666572,"midi":84,"time":222.54036458333334,"velocity":0.3937007874015748},{"duration":0.421875,"midi":70,"time":222.54036458333334,"velocity":0.3937007874015748},{"duration":0.05729166666665719,"midi":45,"time":222.55208333333334,"velocity":0.3937007874015748},{"duration":0.171875,"midi":58,"time":222.55208333333334,"velocity":0.3937007874015748},{"duration":0.05729166666665719,"midi":68,"time":222.56380208333334,"velocity":0.3937007874015748},{"duration":0.296875,"midi":88,"time":222.57552083333334,"velocity":0.3937007874015748},{"duration":0.421875,"midi":74,"time":222.58723958333334,"velocity":0.3937007874015748},{"duration":0.171875,"midi":86,"time":222.58723958333334,"velocity":0.3937007874015748},{"duration":0.17317708333331439,"midi":81,"time":222.59895833333334,"velocity":0.3937007874015748},{"duration":0.05729166666665719,"midi":46,"time":222.59895833333334,"velocity":0.3937007874015748},{"duration":0.2981770833333428,"midi":90,"time":222.609375,"velocity":0.3937007874015748},{"duration":0.2994791666666572,"midi":62,"time":222.63020833333334,"velocity":0.3937007874015748},{"duration":0.05859375,"midi":50,"time":222.65494791666666,"velocity":0.3937007874015748},{"duration":0.17578125,"midi":93,"time":222.66536458333334,"velocity":0.3937007874015748},{"duration":0.059895833333314386,"midi":56,"time":222.77083333333334,"velocity":0.3937007874015748},{"duration":0.05859375,"midi":93,"time":222.78255208333334,"velocity":0.3937007874015748},{"duration":0.1731770833333428,"midi":57,"time":222.79557291666666,"velocity":0.3937007874015748},{"duration":0.057291666666685614,"midi":89,"time":222.80729166666666,"velocity":0.3937007874015748},{"duration":0.05989583333334281,"midi":89,"time":222.93229166666666,"velocity":0.3937007874015748},{"duration":0.17578125,"midi":62,"time":222.93229166666666,"velocity":0.3937007874015748},{"duration":0.17578125,"midi":46,"time":222.95572916666666,"velocity":0.3937007874015748},{"duration":0.05989583333334281,"midi":81,"time":222.95572916666666,"velocity":0.3937007874015748},{"duration":0.17578125,"midi":53,"time":222.98046875,"velocity":0.3937007874015748},{"duration":0.17578125,"midi":34,"time":223.00260416666666,"velocity":0.3937007874015748},{"duration":0.1627604166666572,"midi":86,"time":223.08333333333334,"velocity":0.3937007874015748},{"duration":0.05989583333334281,"midi":47,"time":223.09635416666666,"velocity":0.3937007874015748},{"duration":0.059895833333314386,"midi":53,"time":223.13020833333334,"velocity":0.3937007874015748},{"duration":0.05859375,"midi":45,"time":223.14322916666666,"velocity":0.3937007874015748},{"duration":0.296875,"midi":62,"time":223.14322916666666,"velocity":0.3937007874015748},{"duration":0.4231770833333428,"midi":58,"time":223.15494791666666,"velocity":0.3937007874015748},{"duration":0.05859375,"midi":84,"time":223.16536458333334,"velocity":0.3937007874015748},{"duration":0.05859375,"midi":94,"time":223.16536458333334,"velocity":0.3937007874015748},{"duration":0.057291666666685614,"midi":47,"time":223.17838541666666,"velocity":0.3937007874015748},{"duration":0.057291666666685614,"midi":88,"time":223.17838541666666,"velocity":0.3937007874015748},{"duration":0.05598958333334281,"midi":93,"time":223.19010416666666,"velocity":0.3937007874015748},{"duration":0.06640625,"midi":86,"time":223.19010416666666,"velocity":0.3937007874015748},{"duration":0.8020833333333428,"midi":53,"time":223.19010416666666,"velocity":0.3937007874015748},{"duration":0.8020833333333144,"midi":46,"time":223.20052083333334,"velocity":0.3937007874015748},{"duration":0.4270833333333428,"midi":68,"time":223.234375,"velocity":0.3937007874015748},{"duration":0.05859375,"midi":86,"time":223.24479166666666,"velocity":0.3937007874015748},{"duration":0.05859375,"midi":89,"time":223.24479166666666,"velocity":0.3937007874015748},{"duration":0.4283854166666856,"midi":82,"time":223.24479166666666,"velocity":0.3937007874015748},{"duration":0.05859375,"midi":33,"time":223.25651041666666,"velocity":0.3937007874015748},{"duration":0.05859375,"midi":84,"time":223.27864583333334,"velocity":0.3937007874015748},{"duration":0.17578125,"midi":89,"time":223.27864583333334,"velocity":0.3937007874015748},{"duration":0.17578125,"midi":77,"time":223.29166666666666,"velocity":0.3937007874015748},{"duration":0.05859375,"midi":34,"time":223.31380208333334,"velocity":0.3937007874015748},{"duration":0.05989583333334281,"midi":34,"time":223.34765625,"velocity":0.3937007874015748},{"duration":0.17708333333331439,"midi":34,"time":223.40755208333334,"velocity":0.3937007874015748},{"duration":0.14192708333331439,"midi":77,"time":223.46614583333334,"velocity":0.3937007874015748},{"duration":0.3033854166666572,"midi":34,"time":223.51302083333334,"velocity":0.3937007874015748},{"duration":0.09505208333331439,"midi":77,"time":223.54817708333334,"velocity":0.3937007874015748},{"duration":0.05989583333334281,"midi":94,"time":223.59635416666666,"velocity":0.3937007874015748},{"duration":0.1770833333333428,"midi":77,"time":223.60807291666666,"velocity":0.3937007874015748},{"duration":0.1770833333333428,"midi":89,"time":223.64322916666666,"velocity":0.3937007874015748},{"duration":0.17578125,"midi":82,"time":223.66666666666666,"velocity":0.3937007874015748},{"duration":0.30078125,"midi":89,"time":223.70182291666666,"velocity":0.3937007874015748},{"duration":0.05989583333334281,"midi":70,"time":223.73697916666666,"velocity":0.3937007874015748},{"duration":0.17447916666668561,"midi":34,"time":223.74869791666666,"velocity":0.3937007874015748},{"duration":0.05989583333334281,"midi":88,"time":223.77213541666666,"velocity":0.3937007874015748},{"duration":0.17578125,"midi":84,"time":223.78385416666666,"velocity":0.3937007874015748},{"duration":0.05859375,"midi":94,"time":223.83203125,"velocity":0.3937007874015748},{"duration":0.05859375,"midi":82,"time":223.84244791666666,"velocity":0.3937007874015748},{"duration":0.17447916666668561,"midi":34,"time":223.85416666666666,"velocity":0.3937007874015748},{"duration":0.059895833333314386,"midi":94,"time":223.89973958333334,"velocity":0.3937007874015748},{"duration":0.1744791666666572,"midi":82,"time":223.92317708333334,"velocity":0.3937007874015748},{"duration":0.41796875,"midi":89,"time":223.92317708333334,"velocity":0.3937007874015748},{"duration":0.059895833333314386,"midi":51,"time":223.93489583333334,"velocity":0.3937007874015748},{"duration":0.059895833333314386,"midi":68,"time":223.93489583333334,"velocity":0.3937007874015748},{"duration":0.059895833333314386,"midi":60,"time":223.93489583333334,"velocity":0.3937007874015748},{"duration":0.05859375,"midi":42,"time":223.94791666666666,"velocity":0.3937007874015748},{"duration":0.05859375,"midi":70,"time":223.97005208333334,"velocity":0.3937007874015748},{"duration":0.05859375,"midi":63,"time":223.97005208333334,"velocity":0.3937007874015748},{"duration":0.05859375,"midi":41,"time":223.98307291666666,"velocity":0.3937007874015748},{"duration":0.296875,"midi":77,"time":223.98307291666666,"velocity":0.3937007874015748},{"duration":0.17317708333331439,"midi":53,"time":224.02864583333334,"velocity":0.3937007874015748},{"duration":0.2981770833333428,"midi":70,"time":224.05078125,"velocity":0.3937007874015748},{"duration":0.05989583333334281,"midi":60,"time":224.07421875,"velocity":0.3937007874015748},{"duration":0.05989583333334281,"midi":61,"time":224.09765625,"velocity":0.3937007874015748},{"duration":0.05859375,"midi":45,"time":224.109375,"velocity":0.3937007874015748},{"duration":0.05859375,"midi":63,"time":224.109375,"velocity":0.3937007874015748},{"duration":0.05729166666665719,"midi":60,"time":224.12109375,"velocity":0.3937007874015748},{"duration":0.2981770833333428,"midi":53,"time":224.1328125,"velocity":0.3937007874015748},{"duration":0.05729166666665719,"midi":63,"time":224.14453125,"velocity":0.3937007874015748},{"duration":0.05729166666665719,"midi":59,"time":224.14453125,"velocity":0.3937007874015748},{"duration":0.057291666666685614,"midi":60,"time":224.16666666666666,"velocity":0.3937007874015748},{"duration":0.05859375,"midi":63,"time":224.17838541666666,"velocity":0.3937007874015748},{"duration":0.059895833333314386,"midi":94,"time":224.21223958333334,"velocity":0.3937007874015748},{"duration":0.17578125,"midi":77,"time":224.21223958333334,"velocity":0.3937007874015748},{"duration":0.06510416666665719,"midi":89,"time":224.28125,"velocity":0.3937007874015748},{"duration":0.05989583333334281,"midi":45,"time":224.28125,"velocity":0.3937007874015748},{"duration":0.17578125,"midi":82,"time":224.3046875,"velocity":0.3937007874015748},{"duration":0.17578125,"midi":89,"time":224.3046875,"velocity":0.3937007874015748},{"duration":0.05989583333334281,"midi":84,"time":224.3046875,"velocity":0.3937007874015748},{"duration":0.17578125,"midi":65,"time":224.3046875,"velocity":0.3937007874015748},{"duration":0.30078125,"midi":69,"time":224.31640625,"velocity":0.3937007874015748},{"duration":0.17578125,"midi":94,"time":224.31640625,"velocity":0.3937007874015748},{"duration":0.17578125,"midi":90,"time":224.32942708333334,"velocity":0.3937007874015748},{"duration":0.17578125,"midi":86,"time":224.34114583333334,"velocity":0.3937007874015748},{"duration":0.05989583333334281,"midi":57,"time":224.3515625,"velocity":0.3937007874015748},{"duration":0.059895833333314386,"midi":62,"time":224.36458333333334,"velocity":0.3937007874015748},{"duration":0.05989583333334281,"midi":46,"time":224.375,"velocity":0.3937007874015748},{"duration":0.2981770833333428,"midi":89,"time":224.3984375,"velocity":0.3937007874015748},{"duration":0.05859375,"midi":57,"time":224.41145833333334,"velocity":0.3937007874015748},{"duration":0.05859375,"midi":34,"time":224.41145833333334,"velocity":0.3937007874015748},{"duration":0.17578125,"midi":53,"time":224.4453125,"velocity":0.3937007874015748},{"duration":0.05989583333334281,"midi":66,"time":224.45703125,"velocity":0.3937007874015748},{"duration":0.05989583333334281,"midi":77,"time":224.46875,"velocity":0.3937007874015748},{"duration":0.05989583333334281,"midi":34,"time":224.4921875,"velocity":0.3937007874015748},{"duration":0.1731770833333428,"midi":74,"time":224.4921875,"velocity":0.3937007874015748},{"duration":0.05989583333334281,"midi":84,"time":224.4921875,"velocity":0.3937007874015748},{"duration":0.1731770833333428,"midi":82,"time":224.50390625,"velocity":0.3937007874015748},{"duration":0.05859375,"midi":65,"time":224.50390625,"velocity":0.3937007874015748},{"duration":0.05859375,"midi":35,"time":224.515625,"velocity":0.3937007874015748},{"duration":0.05859375,"midi":33,"time":224.5390625,"velocity":0.3937007874015748},{"duration":0.171875,"midi":69,"time":224.5625,"velocity":0.3937007874015748},{"duration":0.05859375,"midi":57,"time":224.5625,"velocity":0.3937007874015748},{"duration":0.05859375,"midi":34,"time":224.58463541666666,"velocity":0.3937007874015748},{"duration":0.05859375,"midi":72,"time":224.58463541666666,"velocity":0.3937007874015748},{"duration":0.05859375,"midi":79,"time":224.58463541666666,"velocity":0.3937007874015748},{"duration":0.171875,"midi":65,"time":224.59765625,"velocity":0.3937007874015748},{"duration":0.05729166666665719,"midi":93,"time":224.59765625,"velocity":0.3937007874015748},{"duration":0.05859375,"midi":74,"time":224.63020833333334,"velocity":0.3937007874015748},{"duration":0.057291666666685614,"midi":45,"time":224.64322916666666,"velocity":0.3937007874015748},{"duration":0.05729166666665719,"midi":72,"time":224.65364583333334,"velocity":0.3937007874015748},{"duration":0.2942708333333428,"midi":83,"time":224.6640625,"velocity":0.3937007874015748},{"duration":0.2942708333333428,"midi":76,"time":224.6640625,"velocity":0.3937007874015748},{"duration":0.1692708333333428,"midi":81,"time":224.6640625,"velocity":0.3937007874015748},{"duration":0.16796875,"midi":86,"time":224.68880208333334,"velocity":0.3937007874015748},{"duration":0.05729166666665719,"midi":82,"time":224.68880208333334,"velocity":0.3937007874015748},{"duration":0.05859375,"midi":67,"time":224.7109375,"velocity":0.3937007874015748},{"duration":0.05859375,"midi":58,"time":224.7109375,"velocity":0.3937007874015748},{"duration":0.1692708333333428,"midi":91,"time":224.7109375,"velocity":0.3937007874015748},{"duration":0.05859375,"midi":45,"time":224.7109375,"velocity":0.3937007874015748},{"duration":0.05859375,"midi":94,"time":224.7109375,"velocity":0.3937007874015748},{"duration":0.05859375,"midi":89,"time":224.72135416666666,"velocity":0.3937007874015748},{"duration":0.24088541666668561,"midi":89,"time":224.72135416666666,"velocity":0.3937007874015748},{"duration":0.057291666666685614,"midi":63,"time":224.73307291666666,"velocity":0.3937007874015748},{"duration":0.057291666666685614,"midi":44,"time":224.73307291666666,"velocity":0.3937007874015748},{"duration":0.05598958333334281,"midi":60,"time":224.74479166666666,"velocity":0.3937007874015748},{"duration":0.05598958333334281,"midi":37,"time":224.74479166666666,"velocity":0.3937007874015748},{"duration":0.05598958333334281,"midi":45,"time":224.74479166666666,"velocity":0.3937007874015748},{"duration":0.05598958333334281,"midi":36,"time":224.75651041666666,"velocity":0.3937007874015748},{"duration":0.1692708333333428,"midi":82,"time":224.76822916666666,"velocity":0.3937007874015748},{"duration":0.79296875,"midi":45,"time":224.76822916666666,"velocity":0.3937007874015748},{"duration":0.0546875,"midi":52,"time":224.76822916666666,"velocity":0.3937007874015748},{"duration":0.1705729166666572,"midi":79,"time":224.77864583333334,"velocity":0.3937007874015748},{"duration":0.055989583333314386,"midi":64,"time":224.79036458333334,"velocity":0.3937007874015748},{"duration":0.2265625,"midi":89,"time":224.79036458333334,"velocity":0.3937007874015748},{"duration":0.1731770833333428,"midi":52,"time":224.80078125,"velocity":0.3937007874015748},{"duration":0.1731770833333428,"midi":67,"time":224.80078125,"velocity":0.3937007874015748},{"duration":0.057291666666685614,"midi":71,"time":224.81119791666666,"velocity":0.3937007874015748},{"duration":0.057291666666685614,"midi":32,"time":224.81119791666666,"velocity":0.3937007874015748},{"duration":0.057291666666685614,"midi":84,"time":224.82291666666666,"velocity":0.3937007874015748},{"duration":0.1744791666666572,"midi":86,"time":224.84505208333334,"velocity":0.3937007874015748},{"duration":0.1744791666666572,"midi":72,"time":224.84505208333334,"velocity":0.3937007874015748},{"duration":0.4205729166666572,"midi":95,"time":224.85677083333334,"velocity":0.3937007874015748},{"duration":0.1744791666666572,"midi":65,"time":224.87890625,"velocity":0.3937007874015748},{"duration":0.05989583333334281,"midi":33,"time":224.9140625,"velocity":0.3937007874015748},{"duration":0.05989583333334281,"midi":33,"time":224.94921875,"velocity":0.3937007874015748},{"duration":0.05859375,"midi":52,"time":224.9609375,"velocity":0.3937007874015748},{"duration":0.05729166666665719,"midi":79,"time":224.97395833333334,"velocity":0.3937007874015748},{"duration":0.171875,"midi":33,"time":224.984375,"velocity":0.3937007874015748},{"duration":0.2955729166666572,"midi":76,"time":224.984375,"velocity":0.3937007874015748},{"duration":0.171875,"midi":85,"time":224.984375,"velocity":0.3937007874015748},{"duration":0.05729166666665719,"midi":91,"time":224.99609375,"velocity":0.3937007874015748},{"duration":0.05729166666665719,"midi":52,"time":225.01953125,"velocity":0.3937007874015748},{"duration":0.057291666666685614,"midi":91,"time":225.02994791666666,"velocity":0.3937007874015748},{"duration":0.17317708333331439,"midi":90,"time":225.04036458333334,"velocity":0.3937007874015748},{"duration":0.057291666666685614,"midi":67,"time":225.05338541666666,"velocity":0.3937007874015748},{"duration":0.171875,"midi":79,"time":225.07552083333334,"velocity":0.3937007874015748},{"duration":0.4244791666666572,"midi":72,"time":225.08723958333334,"velocity":0.3937007874015748},{"duration":0.05859375,"midi":64,"time":225.08723958333334,"velocity":0.3937007874015748},{"duration":0.05859375,"midi":52,"time":225.08723958333334,"velocity":0.3937007874015748},{"duration":0.1731770833333428,"midi":94,"time":225.109375,"velocity":0.3937007874015748},{"duration":0.0703125,"midi":89,"time":225.109375,"velocity":0.3937007874015748},{"duration":0.42578125,"midi":86,"time":225.11979166666666,"velocity":0.3937007874015748},{"duration":0.2708333333333428,"midi":89,"time":225.11979166666666,"velocity":0.3937007874015748},{"duration":0.05989583333334281,"midi":52,"time":225.11979166666666,"velocity":0.3937007874015748},{"duration":0.05989583333334281,"midi":67,"time":225.11979166666666,"velocity":0.3937007874015748},{"duration":0.05859375,"midi":63,"time":225.1328125,"velocity":0.3937007874015748},{"duration":0.05859375,"midi":33,"time":225.1328125,"velocity":0.3937007874015748},{"duration":0.1731770833333428,"midi":58,"time":225.14453125,"velocity":0.3937007874015748},{"duration":0.05859375,"midi":91,"time":225.16796875,"velocity":0.3937007874015748},{"duration":0.05729166666665719,"midi":83,"time":225.1796875,"velocity":0.3937007874015748},{"duration":0.1744791666666572,"midi":87,"time":225.1796875,"velocity":0.3937007874015748},{"duration":0.057291666666685614,"midi":52,"time":225.19010416666666,"velocity":0.3937007874015748},{"duration":0.3020833333333428,"midi":67,"time":225.20182291666666,"velocity":0.3937007874015748},{"duration":0.05859375,"midi":33,"time":225.20182291666666,"velocity":0.3937007874015748},{"duration":0.1966145833333428,"midi":89,"time":225.21354166666666,"velocity":0.3937007874015748},{"duration":0.42578125,"midi":64,"time":225.22526041666666,"velocity":0.3937007874015748},{"duration":0.30078125,"midi":33,"time":225.23567708333334,"velocity":0.3937007874015748},{"duration":0.1783854166666572,"midi":58,"time":225.24739583333334,"velocity":0.3937007874015748},{"duration":0.059895833333314386,"midi":77,"time":225.24739583333334,"velocity":0.3937007874015748},{"duration":0.6796875,"midi":88,"time":225.28255208333334,"velocity":0.3937007874015748},{"duration":0.06119791666665719,"midi":94,"time":225.32942708333334,"velocity":0.3937007874015748},{"duration":0.06119791666665719,"midi":91,"time":225.32942708333334,"velocity":0.3937007874015748},{"duration":0.17578125,"midi":76,"time":225.34114583333334,"velocity":0.3937007874015748},{"duration":0.05989583333334281,"midi":58,"time":225.36588541666666,"velocity":0.3937007874015748},{"duration":0.17447916666668561,"midi":90,"time":225.37760416666666,"velocity":0.3937007874015748},{"duration":0.17447916666668561,"midi":94,"time":225.38932291666666,"velocity":0.3937007874015748},{"duration":0.05989583333334281,"midi":58,"time":225.40104166666666,"velocity":0.3937007874015748},{"duration":0.05859375,"midi":91,"time":225.44791666666666,"velocity":0.3937007874015748},{"duration":0.05859375,"midi":89,"time":225.44791666666666,"velocity":0.3937007874015748},{"duration":0.057291666666685614,"midi":58,"time":225.45963541666666,"velocity":0.3937007874015748},{"duration":0.057291666666685614,"midi":91,"time":225.48307291666666,"velocity":0.3937007874015748},{"duration":0.3020833333333428,"midi":84,"time":225.48307291666666,"velocity":0.3937007874015748},{"duration":0.05859375,"midi":89,"time":225.50520833333334,"velocity":0.3937007874015748},{"duration":0.05859375,"midi":51,"time":225.50520833333334,"velocity":0.3937007874015748},{"duration":0.05859375,"midi":95,"time":225.51692708333334,"velocity":0.3937007874015748},{"duration":0.05859375,"midi":80,"time":225.51692708333334,"velocity":0.3937007874015748},{"duration":0.05989583333334281,"midi":68,"time":225.52734375,"velocity":0.3937007874015748},{"duration":0.05989583333334281,"midi":34,"time":225.52734375,"velocity":0.3937007874015748},{"duration":0.1770833333333428,"midi":60,"time":225.52734375,"velocity":0.3937007874015748},{"duration":0.05859375,"midi":50,"time":225.5390625,"velocity":0.3937007874015748},{"duration":0.05859375,"midi":49,"time":225.55208333333334,"velocity":0.3937007874015748},{"duration":0.05859375,"midi":91,"time":225.55208333333334,"velocity":0.3937007874015748},{"duration":0.05859375,"midi":67,"time":225.55208333333334,"velocity":0.3937007874015748},{"duration":0.05859375,"midi":32,"time":225.55208333333334,"velocity":0.3937007874015748},{"duration":0.17708333333331439,"midi":76,"time":225.55208333333334,"velocity":0.3937007874015748},{"duration":0.4270833333333144,"midi":79,"time":225.56380208333334,"velocity":0.3937007874015748},{"duration":0.3033854166666572,"midi":84,"time":225.57421875,"velocity":0.3937007874015748},{"duration":0.1783854166666572,"midi":90,"time":225.57421875,"velocity":0.3937007874015748},{"duration":0.1783854166666572,"midi":94,"time":225.57421875,"velocity":0.3937007874015748},{"duration":0.1783854166666572,"midi":64,"time":225.57421875,"velocity":0.3937007874015748},{"duration":0.05989583333334281,"midi":58,"time":225.59765625,"velocity":0.3937007874015748},{"duration":0.1432291666666572,"midi":89,"time":225.64453125,"velocity":0.3937007874015748},{"duration":0.55078125,"midi":76,"time":225.65625,"velocity":0.3937007874015748},{"duration":0.16796875,"midi":60,"time":225.6796875,"velocity":0.3937007874015748},{"duration":0.06119791666665719,"midi":57,"time":225.69140625,"velocity":0.3937007874015748},{"duration":0.17708333333331439,"midi":86,"time":225.71614583333334,"velocity":0.3937007874015748},{"duration":0.2994791666666572,"midi":64,"time":225.71614583333334,"velocity":0.3937007874015748},{"duration":0.09505208333331439,"midi":89,"time":225.72786458333334,"velocity":0.3937007874015748},{"duration":0.17578125,"midi":68,"time":225.72786458333334,"velocity":0.3937007874015748},{"duration":0.4231770833333144,"midi":52,"time":225.73958333333334,"velocity":0.3937007874015748},{"duration":0.0703125,"midi":60,"time":225.78776041666666,"velocity":0.3937007874015748},{"duration":0.17447916666668561,"midi":94,"time":225.78776041666666,"velocity":0.3937007874015748},{"duration":0.059895833333314386,"midi":89,"time":225.80989583333334,"velocity":0.3937007874015748},{"duration":0.1744791666666572,"midi":91,"time":225.80989583333334,"velocity":0.3937007874015748},{"duration":0.059895833333314386,"midi":67,"time":225.80989583333334,"velocity":0.3937007874015748},{"duration":0.05859375,"midi":40,"time":225.83463541666666,"velocity":0.3937007874015748},{"duration":0.4934895833333428,"midi":90,"time":225.86979166666666,"velocity":0.3937007874015748},{"duration":0.05859375,"midi":59,"time":225.86979166666666,"velocity":0.3937007874015748},{"duration":0.05859375,"midi":86,"time":225.88020833333334,"velocity":0.3937007874015748},{"duration":0.17317708333331439,"midi":67,"time":225.88020833333334,"velocity":0.3937007874015748},{"duration":0.05859375,"midi":92,"time":225.91536458333334,"velocity":0.3937007874015748},{"duration":0.05859375,"midi":61,"time":225.91536458333334,"velocity":0.3937007874015748},{"duration":0.546875,"midi":74,"time":225.92708333333334,"velocity":0.3937007874015748},{"duration":0.05859375,"midi":57,"time":225.93880208333334,"velocity":0.3937007874015748},{"duration":0.17317708333331439,"midi":62,"time":225.93880208333334,"velocity":0.3937007874015748},{"duration":0.98046875,"midi":90,"time":225.93880208333334,"velocity":0.3937007874015748},{"duration":0.42578125,"midi":81,"time":225.94921875,"velocity":0.3937007874015748},{"duration":0.05859375,"midi":95,"time":225.94921875,"velocity":0.3937007874015748},{"duration":0.05729166666665719,"midi":58,"time":225.97395833333334,"velocity":0.3937007874015748},{"duration":0.05729166666665719,"midi":89,"time":225.99609375,"velocity":0.3937007874015748},{"duration":0.80078125,"midi":88,"time":226.00651041666666,"velocity":0.3937007874015748},{"duration":0.05859375,"midi":91,"time":226.01822916666666,"velocity":0.3937007874015748},{"duration":0.17578125,"midi":72,"time":226.06380208333334,"velocity":0.3937007874015748},{"duration":0.059895833333314386,"midi":95,"time":226.06380208333334,"velocity":0.3937007874015748},{"duration":0.05859375,"midi":46,"time":226.07552083333334,"velocity":0.3937007874015748},{"duration":0.05859375,"midi":53,"time":226.08723958333334,"velocity":0.3937007874015748},{"duration":0.05859375,"midi":58,"time":226.09895833333334,"velocity":0.3937007874015748},{"duration":0.05859375,"midi":77,"time":226.11067708333334,"velocity":0.3937007874015748},{"duration":0.17578125,"midi":76,"time":226.13411458333334,"velocity":0.3937007874015748},{"duration":0.05989583333334281,"midi":44,"time":226.14453125,"velocity":0.3937007874015748},{"duration":0.059895833333314386,"midi":43,"time":226.16927083333334,"velocity":0.3937007874015748},{"duration":0.059895833333314386,"midi":62,"time":226.16927083333334,"velocity":0.3937007874015748},{"duration":0.30078125,"midi":84,"time":226.20442708333334,"velocity":0.3937007874015748},{"duration":0.17578125,"midi":56,"time":226.21614583333334,"velocity":0.3937007874015748},{"duration":0.1744791666666572,"midi":91,"time":226.22786458333334,"velocity":0.3937007874015748},{"duration":0.05859375,"midi":62,"time":226.22786458333334,"velocity":0.3937007874015748},{"duration":0.05989583333334281,"midi":44,"time":226.23828125,"velocity":0.3937007874015748},{"duration":0.05989583333334281,"midi":67,"time":226.26171875,"velocity":0.3937007874015748},{"duration":0.05989583333334281,"midi":64,"time":226.26171875,"velocity":0.3937007874015748},{"duration":0.1744791666666572,"midi":72,"time":226.2734375,"velocity":0.3937007874015748},{"duration":0.5520833333333144,"midi":76,"time":226.28645833333334,"velocity":0.3937007874015748},{"duration":0.42578125,"midi":64,"time":226.30859375,"velocity":0.3937007874015748},{"duration":0.2669270833333144,"midi":57,"time":226.32161458333334,"velocity":0.3937007874015748},{"duration":0.059895833333314386,"midi":41,"time":226.32161458333334,"velocity":0.3937007874015748},{"duration":0.059895833333314386,"midi":83,"time":226.32161458333334,"velocity":0.3937007874015748},{"duration":0.05989583333334281,"midi":89,"time":226.33203125,"velocity":0.3937007874015748},{"duration":0.5533854166666572,"midi":92,"time":226.33203125,"velocity":0.3937007874015748},{"duration":0.17578125,"midi":81,"time":226.33203125,"velocity":0.3937007874015748},{"duration":0.2994791666666572,"midi":95,"time":226.34375,"velocity":0.3937007874015748},{"duration":0.05859375,"midi":91,"time":226.35677083333334,"velocity":0.3937007874015748},{"duration":0.05729166666665719,"midi":45,"time":226.36848958333334,"velocity":0.3937007874015748},{"duration":0.05729166666665719,"midi":27,"time":226.38020833333334,"velocity":0.3937007874015748},{"duration":0.2981770833333144,"midi":83,"time":226.38020833333334,"velocity":0.3937007874015748},{"duration":0.2994791666666572,"midi":84,"time":226.40234375,"velocity":0.3937007874015748},{"duration":0.1744791666666572,"midi":67,"time":226.4140625,"velocity":0.3937007874015748},{"duration":0.17447916666668561,"midi":45,"time":226.42447916666666,"velocity":0.3937007874015748},{"duration":0.4270833333333428,"midi":72,"time":226.48307291666666,"velocity":0.3937007874015748},{"duration":0.05859375,"midi":52,"time":226.49479166666666,"velocity":0.3937007874015748},{"duration":0.08984375,"midi":57,"time":226.52994791666666,"velocity":0.3937007874015748},{"duration":0.05859375,"midi":74,"time":226.55338541666666,"velocity":0.3937007874015748},{"duration":0.05859375,"midi":60,"time":226.55338541666666,"velocity":0.3937007874015748},{"duration":0.42578125,"midi":45,"time":226.56380208333334,"velocity":0.3937007874015748},{"duration":0.3033854166666572,"midi":57,"time":226.57552083333334,"velocity":0.3937007874015748},{"duration":0.22265625,"midi":86,"time":226.57552083333334,"velocity":0.3937007874015748},{"duration":0.3802083333333428,"midi":86,"time":226.62109375,"velocity":0.3937007874015748},{"duration":0.1770833333333428,"midi":84,"time":226.62109375,"velocity":0.3937007874015748},{"duration":0.059895833333314386,"midi":91,"time":226.63411458333334,"velocity":0.3937007874015748},{"duration":0.17708333333331439,"midi":52,"time":226.69270833333334,"velocity":0.3937007874015748},{"duration":0.17708333333331439,"midi":82,"time":226.69270833333334,"velocity":0.3937007874015748},{"duration":0.059895833333314386,"midi":78,"time":226.71614583333334,"velocity":0.3937007874015748},{"duration":0.546875,"midi":65,"time":226.72786458333334,"velocity":0.3937007874015748},{"duration":0.059895833333314386,"midi":79,"time":226.72786458333334,"velocity":0.3937007874015748},{"duration":0.66796875,"midi":93,"time":226.73958333333334,"velocity":0.3937007874015748},{"duration":0.4739583333333144,"midi":89,"time":226.73958333333334,"velocity":0.3937007874015748},{"duration":0.421875,"midi":87,"time":226.75260416666666,"velocity":0.3937007874015748},{"duration":1.2786458333333144,"midi":88,"time":226.77473958333334,"velocity":0.3937007874015748},{"duration":0.059895833333314386,"midi":60,"time":226.77473958333334,"velocity":0.3937007874015748},{"duration":0.1640625,"midi":91,"time":226.79817708333334,"velocity":0.3937007874015748},{"duration":0.1744791666666572,"midi":69,"time":226.79817708333334,"velocity":0.3937007874015748},{"duration":0.1731770833333428,"midi":79,"time":226.82291666666666,"velocity":0.3937007874015748},{"duration":0.05859375,"midi":95,"time":226.84635416666666,"velocity":0.3937007874015748},{"duration":0.057291666666685614,"midi":72,"time":226.88151041666666,"velocity":0.3937007874015748},{"duration":0.78125,"midi":95,"time":226.90494791666666,"velocity":0.3937007874015748},{"duration":0.1731770833333428,"midi":60,"time":226.90494791666666,"velocity":0.3937007874015748},{"duration":0.057291666666685614,"midi":51,"time":226.90494791666666,"velocity":0.3937007874015748},{"duration":0.06770833333334281,"midi":91,"time":226.90494791666666,"velocity":0.3937007874015748},{"duration":0.05729166666665719,"midi":50,"time":226.91536458333334,"velocity":0.3937007874015748},{"duration":0.1744791666666572,"midi":79,"time":226.91536458333334,"velocity":0.3937007874015748},{"duration":0.05729166666665719,"midi":90,"time":226.93880208333334,"velocity":0.3937007874015748},{"duration":0.17578125,"midi":91,"time":226.9609375,"velocity":0.3937007874015748},{"duration":0.05859375,"midi":83,"time":226.9609375,"velocity":0.3937007874015748},{"duration":0.17578125,"midi":45,"time":226.9609375,"velocity":0.3937007874015748},{"duration":0.17578125,"midi":81,"time":226.97265625,"velocity":0.3937007874015748},{"duration":0.17578125,"midi":52,"time":226.98307291666666,"velocity":0.3937007874015748},{"duration":0.1419270833333428,"midi":69,"time":226.99479166666666,"velocity":0.3937007874015748},{"duration":0.5377604166666856,"midi":84,"time":226.99479166666666,"velocity":0.3937007874015748},{"duration":0.2955729166666856,"midi":72,"time":227.02994791666666,"velocity":0.3937007874015748},{"duration":0.171875,"midi":83,"time":227.02994791666666,"velocity":0.3937007874015748},{"duration":0.09244791666668561,"midi":69,"time":227.07682291666666,"velocity":0.3937007874015748},{"duration":0.4075520833333428,"midi":86,"time":227.08984375,"velocity":0.3937007874015748},{"duration":0.05859375,"midi":90,"time":227.08984375,"velocity":0.3937007874015748},{"duration":0.3033854166666572,"midi":91,"time":227.1015625,"velocity":0.3937007874015748},{"duration":0.4010416666666572,"midi":86,"time":227.1015625,"velocity":0.3937007874015748},{"duration":0.05729166666665719,"midi":50,"time":227.1015625,"velocity":0.3937007874015748},{"duration":0.05729166666665719,"midi":59,"time":227.1015625,"velocity":0.3937007874015748},{"duration":0.2916666666666572,"midi":76,"time":227.11328125,"velocity":0.3937007874015748},{"duration":0.3997395833333428,"midi":91,"time":227.11328125,"velocity":0.3937007874015748},{"duration":0.05598958333334281,"midi":49,"time":227.11328125,"velocity":0.3937007874015748},{"duration":0.0546875,"midi":94,"time":227.13671875,"velocity":0.3937007874015748},{"duration":0.2916666666666572,"midi":45,"time":227.13671875,"velocity":0.3937007874015748},{"duration":0.41015625,"midi":79,"time":227.13671875,"velocity":0.3937007874015748},{"duration":0.6145833333333144,"midi":89,"time":227.15755208333334,"velocity":0.3937007874015748},{"duration":0.1705729166666572,"midi":52,"time":227.15755208333334,"velocity":0.3937007874015748},{"duration":0.05859375,"midi":61,"time":227.19010416666666,"velocity":0.3937007874015748},{"duration":0.059895833333314386,"midi":65,"time":227.22395833333334,"velocity":0.3937007874015748},{"duration":0.05859375,"midi":61,"time":227.23567708333334,"velocity":0.3937007874015748},{"duration":0.171875,"midi":72,"time":227.25911458333334,"velocity":0.3937007874015748},{"duration":0.05859375,"midi":66,"time":227.25911458333334,"velocity":0.3937007874015748},{"duration":0.05859375,"midi":56,"time":227.29427083333334,"velocity":0.3937007874015748},{"duration":0.05859375,"midi":51,"time":227.3046875,"velocity":0.3937007874015748},{"duration":0.05859375,"midi":67,"time":227.3046875,"velocity":0.3937007874015748},{"duration":0.05729166666665719,"midi":33,"time":227.31770833333334,"velocity":0.3937007874015748},{"duration":0.05729166666665719,"midi":92,"time":227.31770833333334,"velocity":0.3937007874015748},{"duration":0.05729166666665719,"midi":65,"time":227.328125,"velocity":0.3937007874015748},{"duration":0.05729166666665719,"midi":60,"time":227.328125,"velocity":0.3937007874015748},{"duration":0.1666666666666572,"midi":91,"time":227.36328125,"velocity":0.3937007874015748},{"duration":0.1666666666666572,"midi":76,"time":227.36328125,"velocity":0.3937007874015748},{"duration":0.057291666666685614,"midi":67,"time":227.37369791666666,"velocity":0.3937007874015748},{"duration":0.05729166666665719,"midi":65,"time":227.38411458333334,"velocity":0.3937007874015748},{"duration":0.05729166666665719,"midi":33,"time":227.38411458333334,"velocity":0.3937007874015748},{"duration":0.6614583333333144,"midi":88,"time":227.39583333333334,"velocity":0.3937007874015748},{"duration":0.05729166666665719,"midi":45,"time":227.39583333333334,"velocity":0.3937007874015748},{"duration":0.055989583333314386,"midi":72,"time":227.40755208333334,"velocity":0.3937007874015748},{"duration":0.1666666666666572,"midi":52,"time":227.40755208333334,"velocity":0.3937007874015748},{"duration":0.1666666666666572,"midi":84,"time":227.43098958333334,"velocity":0.3937007874015748},{"duration":0.055989583333314386,"midi":67,"time":227.43098958333334,"velocity":0.3937007874015748},{"duration":0.055989583333314386,"midi":83,"time":227.43098958333334,"velocity":0.3937007874015748},{"duration":0.05598958333334281,"midi":77,"time":227.44140625,"velocity":0.3937007874015748},{"duration":0.06640625,"midi":86,"time":227.44140625,"velocity":0.3937007874015748},{"duration":0.05598958333334281,"midi":45,"time":227.44140625,"velocity":0.3937007874015748},{"duration":0.05598958333334281,"midi":33,"time":227.44140625,"velocity":0.3937007874015748},{"duration":0.05598958333334281,"midi":93,"time":227.44140625,"velocity":0.3937007874015748},{"duration":0.061197916666685614,"midi":86,"time":227.45182291666666,"velocity":0.3937007874015748},{"duration":0.05598958333334281,"midi":61,"time":227.46354166666666,"velocity":0.3937007874015748},{"duration":0.2916666666666856,"midi":84,"time":227.46354166666666,"velocity":0.3937007874015748},{"duration":1.0377604166666856,"midi":81,"time":227.46354166666666,"velocity":0.3937007874015748},{"duration":0.05598958333334281,"midi":65,"time":227.46354166666666,"velocity":0.3937007874015748},{"duration":0.05598958333334281,"midi":68,"time":227.46354166666666,"velocity":0.3937007874015748},{"duration":0.055989583333314386,"midi":33,"time":227.47395833333334,"velocity":0.3937007874015748},{"duration":0.16927083333331439,"midi":72,"time":227.47395833333334,"velocity":0.3937007874015748},{"duration":0.3984375,"midi":91,"time":227.48567708333334,"velocity":0.3937007874015748},{"duration":0.29296875,"midi":76,"time":227.48567708333334,"velocity":0.3937007874015748},{"duration":0.055989583333314386,"midi":51,"time":227.48567708333334,"velocity":0.3937007874015748},{"duration":0.29296875,"midi":69,"time":227.48567708333334,"velocity":0.3937007874015748},{"duration":0.05598958333334281,"midi":50,"time":227.49609375,"velocity":0.3937007874015748},{"duration":0.41796875,"midi":85,"time":227.49609375,"velocity":0.3937007874015748},{"duration":0.06770833333334281,"midi":86,"time":227.49609375,"velocity":0.3937007874015748},{"duration":0.05598958333334281,"midi":66,"time":227.5078125,"velocity":0.3937007874015748},{"duration":0.2825520833333428,"midi":86,"time":227.5078125,"velocity":0.3937007874015748},{"duration":0.05598958333334281,"midi":49,"time":227.5078125,"velocity":0.3937007874015748},{"duration":0.05598958333334281,"midi":33,"time":227.5078125,"velocity":0.3937007874015748},{"duration":0.13671875,"midi":57,"time":227.51822916666666,"velocity":0.3937007874015748},{"duration":0.05598958333334281,"midi":48,"time":227.51822916666666,"velocity":0.3937007874015748},{"duration":0.171875,"midi":67,"time":227.52864583333334,"velocity":0.3937007874015748},{"duration":0.05598958333334281,"midi":46,"time":227.54166666666666,"velocity":0.3937007874015748},{"duration":0.17317708333331439,"midi":60,"time":227.55208333333334,"velocity":0.3937007874015748},{"duration":0.055989583333314386,"midi":52,"time":227.55208333333334,"velocity":0.3937007874015748},{"duration":0.055989583333314386,"midi":65,"time":227.55208333333334,"velocity":0.3937007874015748},{"duration":0.05729166666665719,"midi":33,"time":227.5625,"velocity":0.3937007874015748},{"duration":0.05859375,"midi":44,"time":227.57421875,"velocity":0.3937007874015748},{"duration":0.09244791666668561,"midi":57,"time":227.59635416666666,"velocity":0.3937007874015748},{"duration":0.1731770833333428,"midi":65,"time":227.59635416666666,"velocity":0.3937007874015748},{"duration":0.05859375,"midi":52,"time":227.59635416666666,"velocity":0.3937007874015748},{"duration":0.05859375,"midi":45,"time":227.60677083333334,"velocity":0.3937007874015748},{"duration":0.1744791666666572,"midi":74,"time":227.64192708333334,"velocity":0.3937007874015748},{"duration":0.059895833333314386,"midi":61,"time":227.66536458333334,"velocity":0.3937007874015748},{"duration":0.1510416666666572,"midi":72,"time":227.66536458333334,"velocity":0.3937007874015748},{"duration":0.059895833333314386,"midi":44,"time":227.66536458333334,"velocity":0.3937007874015748},{"duration":0.1744791666666572,"midi":57,"time":227.66536458333334,"velocity":0.3937007874015748},{"duration":0.05989583333334281,"midi":51,"time":227.67578125,"velocity":0.3937007874015748},{"duration":0.05859375,"midi":45,"time":227.68880208333334,"velocity":0.3937007874015748},{"duration":0.1510416666666572,"midi":33,"time":227.68880208333334,"velocity":0.3937007874015748},{"duration":0.17317708333331439,"midi":65,"time":227.68880208333334,"velocity":0.3937007874015748},{"duration":0.17317708333331439,"midi":62,"time":227.70052083333334,"velocity":0.3937007874015748},{"duration":0.05729166666665719,"midi":79,"time":227.71223958333334,"velocity":0.3937007874015748},{"duration":0.1901041666666572,"midi":91,"time":227.71223958333334,"velocity":0.3937007874015748},{"duration":0.171875,"midi":84,"time":227.72395833333334,"velocity":0.3937007874015748},{"duration":0.17317708333331439,"midi":76,"time":227.73567708333334,"velocity":0.3937007874015748},{"duration":0.05859375,"midi":50,"time":227.73567708333334,"velocity":0.3937007874015748},{"duration":0.1744791666666572,"midi":90,"time":227.74609375,"velocity":0.3937007874015748},{"duration":0.1744791666666572,"midi":92,"time":227.74609375,"velocity":0.3937007874015748},{"duration":0.05989583333334281,"midi":51,"time":227.75651041666666,"velocity":0.3937007874015748},{"duration":0.08333333333334281,"midi":72,"time":227.75651041666666,"velocity":0.3937007874015748},{"duration":0.05989583333334281,"midi":87,"time":227.75651041666666,"velocity":0.3937007874015748},{"duration":0.1731770833333428,"midi":57,"time":227.78125,"velocity":0.3937007874015748},{"duration":0.08072916666665719,"midi":33,"time":227.78125,"velocity":0.3937007874015748},{"duration":0.05729166666665719,"midi":95,"time":227.79296875,"velocity":0.3937007874015748},{"duration":0.171875,"midi":86,"time":227.8046875,"velocity":0.3937007874015748},{"duration":0.4205729166666572,"midi":77,"time":227.8046875,"velocity":0.3937007874015748},{"duration":0.05729166666665719,"midi":50,"time":227.81640625,"velocity":0.3937007874015748},{"duration":0.3997395833333428,"midi":84,"time":227.81640625,"velocity":0.3937007874015748},{"duration":0.05729166666665719,"midi":74,"time":227.81640625,"velocity":0.3937007874015748},{"duration":0.171875,"midi":72,"time":227.82682291666666,"velocity":0.3937007874015748},{"duration":0.4205729166666856,"midi":69,"time":227.85026041666666,"velocity":0.3937007874015748},{"duration":0.05859375,"midi":64,"time":227.85026041666666,"velocity":0.3937007874015748},{"duration":0.059895833333314386,"midi":41,"time":227.87239583333334,"velocity":0.3937007874015748},{"duration":0.059895833333314386,"midi":37,"time":227.88411458333334,"velocity":0.3937007874015748},{"duration":0.059895833333314386,"midi":92,"time":227.88411458333334,"velocity":0.3937007874015748},{"duration":0.059895833333314386,"midi":85,"time":227.88411458333334,"velocity":0.3937007874015748},{"duration":0.05859375,"midi":73,"time":227.89583333333334,"velocity":0.3937007874015748},{"duration":0.05729166666665719,"midi":63,"time":227.90755208333334,"velocity":0.3937007874015748},{"duration":0.05729166666665719,"midi":60,"time":227.90755208333334,"velocity":0.3937007874015748},{"duration":0.42578125,"midi":84,"time":227.92057291666666,"velocity":0.3937007874015748},{"duration":0.4153645833333428,"midi":90,"time":227.92057291666666,"velocity":0.3937007874015748},{"duration":0.05598958333334281,"midi":51,"time":227.93229166666666,"velocity":0.3937007874015748},{"duration":0.4205729166666572,"midi":74,"time":227.94270833333334,"velocity":0.3937007874015748},{"duration":0.055989583333314386,"midi":63,"time":227.94270833333334,"velocity":0.3937007874015748},{"duration":0.421875,"midi":50,"time":227.95442708333334,"velocity":0.3937007874015748},{"duration":0.5481770833333428,"midi":57,"time":227.96484375,"velocity":0.3937007874015748},{"duration":0.1731770833333428,"midi":65,"time":227.96484375,"velocity":0.3937007874015748},{"duration":0.55078125,"midi":62,"time":228.00911458333334,"velocity":0.3937007874015748},{"duration":0.059895833333314386,"midi":91,"time":228.00911458333334,"velocity":0.3937007874015748},{"duration":0.1744791666666572,"midi":72,"time":228.02083333333334,"velocity":0.3937007874015748},{"duration":0.1744791666666572,"midi":86,"time":228.04427083333334,"velocity":0.3937007874015748},{"duration":0.059895833333314386,"midi":88,"time":228.04427083333334,"velocity":0.3937007874015748},{"duration":0.1744791666666572,"midi":88,"time":228.07942708333334,"velocity":0.3937007874015748},{"duration":0.1744791666666572,"midi":65,"time":228.11458333333334,"velocity":0.3937007874015748},{"duration":0.4205729166666856,"midi":86,"time":228.24088541666666,"velocity":0.3937007874015748},{"duration":0.19010416666668561,"midi":90,"time":228.27604166666666,"velocity":0.3937007874015748},{"duration":0.07291666666668561,"midi":84,"time":228.28776041666666,"velocity":0.3937007874015748},{"duration":0.05859375,"midi":88,"time":228.28776041666666,"velocity":0.3937007874015748},{"duration":0.05859375,"midi":84,"time":228.32291666666666,"velocity":0.3937007874015748},{"duration":0.55078125,"midi":74,"time":228.34635416666666,"velocity":0.3937007874015748},{"duration":0.3020833333333144,"midi":65,"time":228.35677083333334,"velocity":0.3937007874015748},{"duration":0.17578125,"midi":90,"time":228.38151041666666,"velocity":0.3937007874015748},{"duration":0.17708333333331439,"midi":50,"time":228.45052083333334,"velocity":0.3937007874015748},{"duration":0.17578125,"midi":90,"time":228.55598958333334,"velocity":0.3937007874015748},{"duration":0.06380208333331439,"midi":86,"time":228.60286458333334,"velocity":0.3937007874015748},{"duration":0.05859375,"midi":57,"time":228.60286458333334,"velocity":0.3937007874015748},{"duration":0.05859375,"midi":50,"time":228.60286458333334,"velocity":0.3937007874015748},{"duration":0.059895833333314386,"midi":66,"time":228.64973958333334,"velocity":0.3937007874015748},{"duration":0.059895833333314386,"midi":89,"time":228.66145833333334,"velocity":0.3937007874015748},{"duration":0.059895833333314386,"midi":68,"time":228.66145833333334,"velocity":0.3937007874015748},{"duration":0.05989583333334281,"midi":51,"time":228.671875,"velocity":0.3937007874015748},{"duration":0.05989583333334281,"midi":95,"time":228.671875,"velocity":0.3937007874015748},{"duration":0.05989583333334281,"midi":64,"time":228.671875,"velocity":0.3937007874015748},{"duration":0.05989583333334281,"midi":90,"time":228.671875,"velocity":0.3937007874015748},{"duration":0.1744791666666572,"midi":88,"time":228.671875,"velocity":0.3937007874015748},{"duration":0.4231770833333428,"midi":77,"time":228.671875,"velocity":0.3937007874015748},{"duration":0.1744791666666572,"midi":84,"time":228.68489583333334,"velocity":0.3937007874015748},{"duration":0.059895833333314386,"midi":61,"time":228.68489583333334,"velocity":0.3937007874015748},{"duration":0.059895833333314386,"midi":65,"time":228.69661458333334,"velocity":0.3937007874015748},{"duration":0.1744791666666572,"midi":72,"time":228.69661458333334,"velocity":0.3937007874015748},{"duration":0.1744791666666572,"midi":90,"time":228.70833333333334,"velocity":0.3937007874015748},{"duration":0.05859375,"midi":48,"time":228.70833333333334,"velocity":0.3937007874015748},{"duration":0.1744791666666572,"midi":69,"time":228.70833333333334,"velocity":0.3937007874015748},{"duration":0.1744791666666572,"midi":91,"time":228.70833333333334,"velocity":0.3937007874015748},{"duration":0.296875,"midi":50,"time":228.76692708333334,"velocity":0.3937007874015748},{"duration":0.05729166666665719,"midi":65,"time":228.76692708333334,"velocity":0.3937007874015748},{"duration":0.1744791666666572,"midi":86,"time":228.77734375,"velocity":0.3937007874015748},{"duration":0.1744791666666572,"midi":66,"time":228.80078125,"velocity":0.3937007874015748},{"duration":0.05989583333334281,"midi":92,"time":228.82291666666666,"velocity":0.3937007874015748},{"duration":0.05989583333334281,"midi":73,"time":228.82291666666666,"velocity":0.3937007874015748},{"duration":0.05989583333334281,"midi":85,"time":228.83463541666666,"velocity":0.3937007874015748},{"duration":0.17447916666668561,"midi":71,"time":228.85807291666666,"velocity":0.3937007874015748},{"duration":0.296875,"midi":74,"time":228.86979166666666,"velocity":0.3937007874015748},{"duration":0.296875,"midi":65,"time":228.86979166666666,"velocity":0.3937007874015748},{"duration":0.1731770833333428,"midi":93,"time":228.86979166666666,"velocity":0.3937007874015748},{"duration":0.5520833333333428,"midi":90,"time":228.89322916666666,"velocity":0.3937007874015748},{"duration":0.05859375,"midi":95,"time":228.89322916666666,"velocity":0.3937007874015748},{"duration":0.1731770833333428,"midi":57,"time":228.89322916666666,"velocity":0.3937007874015748},{"duration":0.05859375,"midi":84,"time":228.95182291666666,"velocity":0.3937007874015748},{"duration":0.05859375,"midi":91,"time":228.97395833333334,"velocity":0.3937007874015748},{"duration":0.05729166666665719,"midi":71,"time":229.00911458333334,"velocity":0.3937007874015748},{"duration":0.05859375,"midi":84,"time":229.04296875,"velocity":0.3937007874015748},{"duration":0.05859375,"midi":51,"time":229.06640625,"velocity":0.3937007874015748},{"duration":0.05859375,"midi":92,"time":229.06640625,"velocity":0.3937007874015748},{"duration":0.1770833333333428,"midi":73,"time":229.07682291666666,"velocity":0.3937007874015748},{"duration":0.1770833333333428,"midi":50,"time":229.08854166666666,"velocity":0.3937007874015748},{"duration":0.05859375,"midi":88,"time":229.10026041666666,"velocity":0.3937007874015748},{"duration":0.68359375,"midi":91,"time":229.11197916666666,"velocity":0.3937007874015748},{"duration":0.1770833333333428,"midi":84,"time":229.11197916666666,"velocity":0.3937007874015748},{"duration":0.1770833333333428,"midi":57,"time":229.12369791666666,"velocity":0.3937007874015748},{"duration":0.1770833333333428,"midi":65,"time":229.12369791666666,"velocity":0.3937007874015748},{"duration":0.05989583333334281,"midi":86,"time":229.14713541666666,"velocity":0.3937007874015748},{"duration":0.93359375,"midi":72,"time":229.14713541666666,"velocity":0.3937007874015748},{"duration":0.5572916666666856,"midi":74,"time":229.18229166666666,"velocity":0.3937007874015748},{"duration":0.1770833333333428,"midi":69,"time":229.24088541666666,"velocity":0.3937007874015748},{"duration":0.05989583333334281,"midi":64,"time":229.25260416666666,"velocity":0.3937007874015748},{"duration":0.1770833333333428,"midi":60,"time":229.25260416666666,"velocity":0.3937007874015748},{"duration":0.1783854166666572,"midi":50,"time":229.30078125,"velocity":0.3937007874015748},{"duration":0.1783854166666572,"midi":65,"time":229.30078125,"velocity":0.3937007874015748},{"duration":0.1796875,"midi":57,"time":229.32291666666666,"velocity":0.3937007874015748},{"duration":0.05989583333334281,"midi":86,"time":229.3359375,"velocity":0.3937007874015748},{"duration":0.3033854166666572,"midi":69,"time":229.34765625,"velocity":0.3937007874015748},{"duration":0.3033854166666572,"midi":81,"time":229.45442708333334,"velocity":0.3937007874015748},{"duration":0.17708333333331439,"midi":88,"time":229.45442708333334,"velocity":0.3937007874015748},{"duration":0.5533854166666572,"midi":86,"time":229.46614583333334,"velocity":0.3937007874015748},{"duration":0.06119791666665719,"midi":60,"time":229.46614583333334,"velocity":0.3937007874015748},{"duration":0.059895833333314386,"midi":65,"time":229.48958333333334,"velocity":0.3937007874015748},{"duration":0.8020833333333144,"midi":57,"time":229.48958333333334,"velocity":0.3937007874015748},{"duration":0.8020833333333428,"midi":50,"time":229.50260416666666,"velocity":0.3937007874015748},{"duration":0.05859375,"midi":90,"time":229.57291666666666,"velocity":0.3937007874015748},{"duration":0.17708333333331439,"midi":65,"time":229.59505208333334,"velocity":0.3937007874015748},{"duration":0.1770833333333428,"midi":88,"time":229.640625,"velocity":0.3937007874015748},{"duration":0.1770833333333428,"midi":74,"time":229.72265625,"velocity":0.3937007874015748},{"duration":0.059895833333314386,"midi":66,"time":229.73567708333334,"velocity":0.3937007874015748},{"duration":2.033854166666657,"midi":86,"time":229.74739583333334,"velocity":0.3937007874015748},{"duration":1.171875,"midi":81,"time":229.75911458333334,"velocity":0.3937007874015748},{"duration":0.05859375,"midi":88,"time":229.75911458333334,"velocity":0.3937007874015748},{"duration":0.17578125,"midi":66,"time":229.79427083333334,"velocity":0.3937007874015748},{"duration":0.4244791666666572,"midi":91,"time":229.80598958333334,"velocity":0.3937007874015748},{"duration":0.17578125,"midi":88,"time":229.84114583333334,"velocity":0.3937007874015748},{"duration":0.17578125,"midi":77,"time":229.84114583333334,"velocity":0.3937007874015748},{"duration":0.6705729166666572,"midi":74,"time":229.88802083333334,"velocity":0.3937007874015748},{"duration":0.05859375,"midi":66,"time":229.91145833333334,"velocity":0.3937007874015748},{"duration":0.05989583333334281,"midi":77,"time":230.015625,"velocity":0.3937007874015748},{"duration":0.2682291666666572,"midi":88,"time":230.05078125,"velocity":0.3937007874015748},{"duration":0.05989583333334281,"midi":89,"time":230.09635416666666,"velocity":0.3937007874015748},{"duration":0.05989583333334281,"midi":72,"time":230.09635416666666,"velocity":0.3937007874015748},{"duration":0.05989583333334281,"midi":84,"time":230.09635416666666,"velocity":0.3937007874015748},{"duration":0.17447916666668561,"midi":65,"time":230.10807291666666,"velocity":0.3937007874015748},{"duration":0.05859375,"midi":72,"time":230.16666666666666,"velocity":0.3937007874015748},{"duration":0.17578125,"midi":68,"time":230.23567708333334,"velocity":0.3937007874015748},{"duration":0.140625,"midi":71,"time":230.24739583333334,"velocity":0.3937007874015748},{"duration":0.09114583333331439,"midi":88,"time":230.25911458333334,"velocity":0.3937007874015748},{"duration":0.059895833333314386,"midi":64,"time":230.25911458333334,"velocity":0.3937007874015748},{"duration":0.1744791666666572,"midi":83,"time":230.25911458333334,"velocity":0.3937007874015748},{"duration":0.15234375,"midi":90,"time":230.29427083333334,"velocity":0.3937007874015748},{"duration":0.05859375,"midi":41,"time":230.30729166666666,"velocity":0.3937007874015748},{"duration":0.05859375,"midi":52,"time":230.31901041666666,"velocity":0.3937007874015748},{"duration":0.05859375,"midi":40,"time":230.32942708333334,"velocity":0.3937007874015748},{"duration":0.09244791666665719,"midi":71,"time":230.32942708333334,"velocity":0.3937007874015748},{"duration":0.05859375,"midi":88,"time":230.35286458333334,"velocity":0.3937007874015748},{"duration":0.07942708333331439,"midi":90,"time":230.38802083333334,"velocity":0.3937007874015748},{"duration":0.05859375,"midi":40,"time":230.3984375,"velocity":0.3937007874015748},{"duration":0.05859375,"midi":83,"time":230.3984375,"velocity":0.3937007874015748},{"duration":0.1705729166666572,"midi":84,"time":230.41015625,"velocity":0.3937007874015748},{"duration":0.05729166666665719,"midi":65,"time":230.41015625,"velocity":0.3937007874015748},{"duration":0.05729166666665719,"midi":72,"time":230.41015625,"velocity":0.3937007874015748},{"duration":0.05729166666665719,"midi":60,"time":230.43359375,"velocity":0.3937007874015748},{"duration":0.05729166666665719,"midi":88,"time":230.4453125,"velocity":0.3937007874015748},{"duration":0.1705729166666572,"midi":91,"time":230.45703125,"velocity":0.3937007874015748},{"duration":0.1705729166666572,"midi":83,"time":230.45703125,"velocity":0.3937007874015748},{"duration":0.05859375,"midi":64,"time":230.46744791666666,"velocity":0.3937007874015748},{"duration":0.05859375,"midi":73,"time":230.47786458333334,"velocity":0.3937007874015748},{"duration":0.17317708333331439,"midi":69,"time":230.48958333333334,"velocity":0.3937007874015748},{"duration":0.05729166666665719,"midi":60,"time":230.48958333333334,"velocity":0.3937007874015748},{"duration":0.17317708333331439,"midi":72,"time":230.51302083333334,"velocity":0.3937007874015748},{"duration":0.055989583333314386,"midi":47,"time":230.52473958333334,"velocity":0.3937007874015748},{"duration":0.17317708333331439,"midi":90,"time":230.52473958333334,"velocity":0.3937007874015748},{"duration":0.17317708333331439,"midi":88,"time":230.52473958333334,"velocity":0.3937007874015748},{"duration":0.17317708333331439,"midi":74,"time":230.53645833333334,"velocity":0.3937007874015748},{"duration":0.05729166666665719,"midi":41,"time":230.53645833333334,"velocity":0.3937007874015748},{"duration":0.17317708333331439,"midi":65,"time":230.53645833333334,"velocity":0.3937007874015748},{"duration":0.05729166666665719,"midi":60,"time":230.546875,"velocity":0.3937007874015748},{"duration":0.059895833333314386,"midi":83,"time":230.60286458333334,"velocity":0.3937007874015748},{"duration":0.15234375,"midi":72,"time":230.61458333333334,"velocity":0.3937007874015748},{"duration":0.17578125,"midi":88,"time":230.61458333333334,"velocity":0.3937007874015748},{"duration":0.42578125,"midi":76,"time":230.62630208333334,"velocity":0.3937007874015748},{"duration":0.059895833333314386,"midi":58,"time":230.63802083333334,"velocity":0.3937007874015748},{"duration":0.17447916666668561,"midi":48,"time":230.65104166666666,"velocity":0.3937007874015748},{"duration":0.17447916666668561,"midi":91,"time":230.65104166666666,"velocity":0.3937007874015748},{"duration":0.17447916666668561,"midi":79,"time":230.66276041666666,"velocity":0.3937007874015748},{"duration":0.17447916666668561,"midi":57,"time":230.66276041666666,"velocity":0.3937007874015748},{"duration":0.05859375,"midi":90,"time":230.66276041666666,"velocity":0.3937007874015748},{"duration":0.30078125,"midi":65,"time":230.67317708333334,"velocity":0.3937007874015748},{"duration":0.05859375,"midi":71,"time":230.68619791666666,"velocity":0.3937007874015748},{"duration":0.057291666666685614,"midi":74,"time":230.69791666666666,"velocity":0.3937007874015748},{"duration":0.08203125,"midi":72,"time":230.70833333333334,"velocity":0.3937007874015748},{"duration":1.3671875,"midi":82,"time":230.72005208333334,"velocity":0.3937007874015748},{"duration":0.1744791666666572,"midi":70,"time":230.72005208333334,"velocity":0.3937007874015748},{"duration":1.16015625,"midi":89,"time":230.72005208333334,"velocity":0.3937007874015748},{"duration":0.05859375,"midi":41,"time":230.74348958333334,"velocity":0.3937007874015748},{"duration":0.1770833333333428,"midi":88,"time":230.75390625,"velocity":0.3937007874015748},{"duration":0.3020833333333428,"midi":74,"time":230.77734375,"velocity":0.3937007874015748},{"duration":0.05989583333334281,"midi":42,"time":230.7890625,"velocity":0.3937007874015748},{"duration":0.1770833333333428,"midi":91,"time":230.7890625,"velocity":0.3937007874015748},{"duration":0.05989583333334281,"midi":72,"time":230.82421875,"velocity":0.3937007874015748},{"duration":0.1744791666666572,"midi":42,"time":230.87109375,"velocity":0.3937007874015748},{"duration":0.1744791666666572,"midi":84,"time":230.88411458333334,"velocity":0.3937007874015748},{"duration":0.06119791666665719,"midi":67,"time":230.89453125,"velocity":0.3937007874015748},{"duration":0.06119791666665719,"midi":72,"time":230.89453125,"velocity":0.3937007874015748},{"duration":0.05989583333334281,"midi":49,"time":230.90625,"velocity":0.3937007874015748},{"duration":0.1744791666666572,"midi":70,"time":230.91927083333334,"velocity":0.3937007874015748},{"duration":0.05859375,"midi":88,"time":230.93098958333334,"velocity":0.3937007874015748},{"duration":0.171875,"midi":81,"time":230.94270833333334,"velocity":0.3937007874015748},{"duration":0.171875,"midi":67,"time":230.94270833333334,"velocity":0.3937007874015748},{"duration":0.057291666666685614,"midi":65,"time":230.95572916666666,"velocity":0.3937007874015748},{"duration":0.05859375,"midi":72,"time":230.9765625,"velocity":0.3937007874015748},{"duration":0.05989583333334281,"midi":65,"time":231.02213541666666,"velocity":0.3937007874015748},{"duration":0.05989583333334281,"midi":62,"time":231.02213541666666,"velocity":0.3937007874015748},{"duration":0.05859375,"midi":43,"time":231.03515625,"velocity":0.3937007874015748},{"duration":0.05859375,"midi":85,"time":231.04557291666666,"velocity":0.3937007874015748},{"duration":0.05859375,"midi":60,"time":231.04557291666666,"velocity":0.3937007874015748},{"duration":0.2981770833333428,"midi":79,"time":231.04557291666666,"velocity":0.3937007874015748},{"duration":0.2981770833333428,"midi":74,"time":231.04557291666666,"velocity":0.3937007874015748},{"duration":0.4192708333333428,"midi":84,"time":231.04557291666666,"velocity":0.3937007874015748},{"duration":0.057291666666685614,"midi":42,"time":231.05729166666666,"velocity":0.3937007874015748},{"duration":0.05729166666665719,"midi":95,"time":231.0703125,"velocity":0.3937007874015748},{"duration":0.05729166666665719,"midi":41,"time":231.0703125,"velocity":0.3937007874015748},{"duration":0.171875,"midi":50,"time":231.08203125,"velocity":0.3937007874015748},{"duration":0.05729166666665719,"midi":55,"time":231.08203125,"velocity":0.3937007874015748},{"duration":0.057291666666685614,"midi":60,"time":231.09244791666666,"velocity":0.3937007874015748},{"duration":0.296875,"midi":65,"time":231.09244791666666,"velocity":0.3937007874015748},{"duration":0.057291666666685614,"midi":69,"time":231.09244791666666,"velocity":0.3937007874015748},{"duration":0.1744791666666572,"midi":81,"time":231.10286458333334,"velocity":0.3937007874015748},{"duration":0.05859375,"midi":43,"time":231.14973958333334,"velocity":0.3937007874015748},{"duration":0.05859375,"midi":60,"time":231.14973958333334,"velocity":0.3937007874015748},{"duration":0.1744791666666572,"midi":70,"time":231.16015625,"velocity":0.3937007874015748},{"duration":0.05989583333334281,"midi":43,"time":231.18359375,"velocity":0.3937007874015748},{"duration":0.17447916666668561,"midi":72,"time":231.21744791666666,"velocity":0.3937007874015748},{"duration":0.05989583333334281,"midi":59,"time":231.23046875,"velocity":0.3937007874015748},{"duration":0.2916666666666572,"midi":62,"time":231.265625,"velocity":0.3937007874015748},{"duration":0.05859375,"midi":43,"time":231.265625,"velocity":0.3937007874015748},{"duration":0.05859375,"midi":50,"time":231.265625,"velocity":0.3937007874015748},{"duration":0.05859375,"midi":69,"time":231.265625,"velocity":0.3937007874015748},{"duration":0.5377604166666572,"midi":70,"time":231.2890625,"velocity":0.3937007874015748},{"duration":0.05859375,"midi":44,"time":231.30078125,"velocity":0.3937007874015748},{"duration":0.05859375,"midi":50,"time":231.32291666666666,"velocity":0.3937007874015748},{"duration":0.05859375,"midi":43,"time":231.32291666666666,"velocity":0.3937007874015748},{"duration":0.05859375,"midi":72,"time":231.33463541666666,"velocity":0.3937007874015748},{"duration":0.2916666666666856,"midi":79,"time":231.33463541666666,"velocity":0.3937007874015748},{"duration":0.057291666666685614,"midi":81,"time":231.34635416666666,"velocity":0.3937007874015748},{"duration":0.057291666666685614,"midi":44,"time":231.35807291666666,"velocity":0.3937007874015748},{"duration":0.05729166666665719,"midi":50,"time":231.36848958333334,"velocity":0.3937007874015748},{"duration":0.53515625,"midi":65,"time":231.39192708333334,"velocity":0.3937007874015748},{"duration":0.05729166666665719,"midi":44,"time":231.40234375,"velocity":0.3937007874015748},{"duration":0.05598958333334281,"midi":43,"time":231.42578125,"velocity":0.3937007874015748},{"duration":0.05598958333334281,"midi":88,"time":231.43619791666666,"velocity":0.3937007874015748},{"duration":0.05598958333334281,"midi":44,"time":231.45963541666666,"velocity":0.3937007874015748},{"duration":0.1692708333333428,"midi":84,"time":231.45963541666666,"velocity":0.3937007874015748},{"duration":0.05729166666665719,"midi":50,"time":231.48046875,"velocity":0.3937007874015748},{"duration":0.05729166666665719,"midi":93,"time":231.4921875,"velocity":0.3937007874015748},{"duration":0.1614583333333428,"midi":31,"time":231.51432291666666,"velocity":0.3937007874015748},{"duration":0.057291666666685614,"midi":81,"time":231.52604166666666,"velocity":0.3937007874015748},{"duration":0.05729166666665719,"midi":44,"time":231.54817708333334,"velocity":0.3937007874015748},{"duration":0.05859375,"midi":60,"time":231.58203125,"velocity":0.3937007874015748},{"duration":0.05859375,"midi":45,"time":231.60546875,"velocity":0.3937007874015748},{"duration":0.1731770833333428,"midi":81,"time":231.60546875,"velocity":0.3937007874015748},{"duration":0.0703125,"midi":31,"time":231.61588541666666,"velocity":0.3937007874015748},{"duration":0.05859375,"midi":60,"time":231.62760416666666,"velocity":0.3937007874015748},{"duration":0.05859375,"midi":45,"time":231.65104166666666,"velocity":0.3937007874015748},{"duration":0.13932291666668561,"midi":31,"time":231.66276041666666,"velocity":0.3937007874015748},{"duration":0.05859375,"midi":60,"time":231.69661458333334,"velocity":0.3937007874015748},{"duration":0.05859375,"midi":45,"time":231.70833333333334,"velocity":0.3937007874015748},{"duration":0.05859375,"midi":51,"time":231.72005208333334,"velocity":0.3937007874015748},{"duration":0.09375,"midi":31,"time":231.7421875,"velocity":0.3937007874015748},{"duration":0.05989583333334281,"midi":54,"time":231.7421875,"velocity":0.3937007874015748},{"duration":0.05859375,"midi":45,"time":231.75520833333334,"velocity":0.3937007874015748},{"duration":0.05859375,"midi":69,"time":231.79036458333334,"velocity":0.3937007874015748},{"duration":0.05729166666665719,"midi":46,"time":231.80208333333334,"velocity":0.3937007874015748},{"duration":0.05729166666665719,"midi":59,"time":231.8125,"velocity":0.3937007874015748},{"duration":0.05729166666665719,"midi":71,"time":231.82421875,"velocity":0.3937007874015748},{"duration":0.05598958333334281,"midi":91,"time":231.8359375,"velocity":0.3937007874015748},{"duration":0.2942708333333428,"midi":65,"time":231.8359375,"velocity":0.3937007874015748},{"duration":0.05598958333334281,"midi":51,"time":231.8359375,"velocity":0.3937007874015748},{"duration":0.05598958333334281,"midi":68,"time":231.8359375,"velocity":0.3937007874015748},{"duration":0.05598958333334281,"midi":60,"time":231.8359375,"velocity":0.3937007874015748},{"duration":0.05598958333334281,"midi":95,"time":231.8359375,"velocity":0.3937007874015748},{"duration":0.0546875,"midi":77,"time":231.84765625,"velocity":0.3937007874015748},{"duration":0.0546875,"midi":88,"time":231.84765625,"velocity":0.3937007874015748},{"duration":0.0546875,"midi":72,"time":231.84765625,"velocity":0.3937007874015748},{"duration":0.0546875,"midi":84,"time":231.84765625,"velocity":0.3937007874015748},{"duration":0.0546875,"midi":49,"time":231.85807291666666,"velocity":0.3937007874015748},{"duration":0.1692708333333428,"midi":70,"time":231.85807291666666,"velocity":0.3937007874015748},{"duration":0.0546875,"midi":60,"time":231.86979166666666,"velocity":0.3937007874015748},{"duration":0.0546875,"midi":85,"time":231.86979166666666,"velocity":0.3937007874015748},{"duration":0.055989583333314386,"midi":73,"time":231.88020833333334,"velocity":0.3937007874015748},{"duration":0.055989583333314386,"midi":92,"time":231.88020833333334,"velocity":0.3937007874015748},{"duration":0.171875,"midi":90,"time":231.890625,"velocity":0.3937007874015748},{"duration":0.1731770833333428,"midi":46,"time":231.90234375,"velocity":0.3937007874015748},{"duration":0.17447916666668561,"midi":55,"time":231.91276041666666,"velocity":0.3937007874015748},{"duration":0.05859375,"midi":91,"time":231.92317708333334,"velocity":0.3937007874015748},{"duration":0.05859375,"midi":84,"time":231.92317708333334,"velocity":0.3937007874015748},{"duration":0.1744791666666572,"midi":62,"time":231.92317708333334,"velocity":0.3937007874015748},{"duration":0.057291666666685614,"midi":88,"time":231.93619791666666,"velocity":0.3937007874015748},{"duration":0.057291666666685614,"midi":72,"time":231.93619791666666,"velocity":0.3937007874015748},{"duration":0.1744791666666572,"midi":70,"time":231.94661458333334,"velocity":0.3937007874015748},{"duration":0.05859375,"midi":89,"time":231.98177083333334,"velocity":0.3937007874015748},{"duration":0.05859375,"midi":92,"time":231.98177083333334,"velocity":0.3937007874015748},{"duration":0.05859375,"midi":73,"time":231.98177083333334,"velocity":0.3937007874015748},{"duration":0.05859375,"midi":85,"time":231.98177083333334,"velocity":0.3937007874015748},{"duration":0.17578125,"midi":89,"time":231.9921875,"velocity":0.3937007874015748},{"duration":0.1770833333333428,"midi":71,"time":232.00260416666666,"velocity":0.3937007874015748},{"duration":0.2994791666666572,"midi":93,"time":232.015625,"velocity":0.3937007874015748},{"duration":0.2994791666666572,"midi":74,"time":232.015625,"velocity":0.3937007874015748},{"duration":0.10546875,"midi":90,"time":232.015625,"velocity":0.3937007874015748},{"duration":0.2994791666666572,"midi":86,"time":232.015625,"velocity":0.3937007874015748},{"duration":0.2916666666666572,"midi":62,"time":232.015625,"velocity":0.3937007874015748},{"duration":0.09895833333334281,"midi":82,"time":232.02734375,"velocity":0.3937007874015748},{"duration":0.1744791666666572,"midi":55,"time":232.02734375,"velocity":0.3937007874015748},{"duration":0.05859375,"midi":85,"time":232.0390625,"velocity":0.3937007874015748},{"duration":0.05859375,"midi":44,"time":232.0625,"velocity":0.3937007874015748},{"duration":0.12890625,"midi":90,"time":232.0625,"velocity":0.3937007874015748},{"duration":0.4231770833333428,"midi":65,"time":232.0625,"velocity":0.3937007874015748},{"duration":0.05859375,"midi":42,"time":232.0859375,"velocity":0.3937007874015748},{"duration":0.05859375,"midi":70,"time":232.0859375,"velocity":0.3937007874015748},{"duration":0.1744791666666572,"midi":82,"time":232.09765625,"velocity":0.3937007874015748},{"duration":0.05989583333334281,"midi":89,"time":232.11979166666666,"velocity":0.3937007874015748},{"duration":0.05989583333334281,"midi":84,"time":232.11979166666666,"velocity":0.3937007874015748},{"duration":0.1744791666666572,"midi":90,"time":232.1328125,"velocity":0.3937007874015748},{"duration":0.05859375,"midi":71,"time":232.1328125,"velocity":0.3937007874015748},{"duration":0.2994791666666856,"midi":55,"time":232.15494791666666,"velocity":0.3937007874015748},{"duration":0.17447916666668561,"midi":70,"time":232.15494791666666,"velocity":0.3937007874015748},{"duration":0.05729166666665719,"midi":85,"time":232.16796875,"velocity":0.3937007874015748},{"duration":0.05729166666665719,"midi":83,"time":232.16796875,"velocity":0.3937007874015748},{"duration":0.1744791666666572,"midi":89,"time":232.20052083333334,"velocity":0.3937007874015748},{"duration":0.059895833333314386,"midi":75,"time":232.22395833333334,"velocity":0.3937007874015748},{"duration":0.059895833333314386,"midi":87,"time":232.22395833333334,"velocity":0.3937007874015748},{"duration":0.059895833333314386,"midi":91,"time":232.22395833333334,"velocity":0.3937007874015748},{"duration":0.06119791666665719,"midi":46,"time":232.234375,"velocity":0.3937007874015748},{"duration":0.17578125,"midi":90,"time":232.234375,"velocity":0.3937007874015748},{"duration":0.06119791666665719,"midi":85,"time":232.234375,"velocity":0.3937007874015748},{"duration":0.059895833333314386,"midi":71,"time":232.24739583333334,"velocity":0.3937007874015748},{"duration":0.06770833333331439,"midi":62,"time":232.24739583333334,"velocity":0.3937007874015748},{"duration":0.4231770833333144,"midi":74,"time":232.25911458333334,"velocity":0.3937007874015748},{"duration":0.4231770833333144,"midi":93,"time":232.27083333333334,"velocity":0.3937007874015748},{"duration":0.4231770833333144,"midi":86,"time":232.27083333333334,"velocity":0.3937007874015748},{"duration":0.05859375,"midi":85,"time":232.30598958333334,"velocity":0.3937007874015748},{"duration":0.2994791666666572,"midi":82,"time":232.30598958333334,"velocity":0.3937007874015748},{"duration":0.15234375,"midi":70,"time":232.30598958333334,"velocity":0.3937007874015748},{"duration":0.05859375,"midi":81,"time":232.31770833333334,"velocity":0.3937007874015748},{"duration":0.05859375,"midi":89,"time":232.31770833333334,"velocity":0.3937007874015748},{"duration":0.1744791666666572,"midi":90,"time":232.3515625,"velocity":0.3937007874015748},{"duration":0.061197916666685614,"midi":83,"time":232.38541666666666,"velocity":0.3937007874015748},{"duration":0.08203125,"midi":70,"time":232.3984375,"velocity":0.3937007874015748},{"duration":0.1744791666666572,"midi":71,"time":232.41015625,"velocity":0.3937007874015748},{"duration":0.05859375,"midi":60,"time":232.421875,"velocity":0.3937007874015748},{"duration":0.1744791666666572,"midi":63,"time":232.43489583333334,"velocity":0.3937007874015748},{"duration":0.1744791666666572,"midi":43,"time":232.44661458333334,"velocity":0.3937007874015748},{"duration":0.1744791666666572,"midi":50,"time":232.44661458333334,"velocity":0.3937007874015748},{"duration":0.05859375,"midi":60,"time":232.45703125,"velocity":0.3937007874015748},{"duration":0.05859375,"midi":77,"time":232.45703125,"velocity":0.3937007874015748},{"duration":0.17578125,"midi":89,"time":232.46744791666666,"velocity":0.3937007874015748},{"duration":0.05859375,"midi":84,"time":232.46744791666666,"velocity":0.3937007874015748},{"duration":0.05859375,"midi":87,"time":232.46744791666666,"velocity":0.3937007874015748},{"duration":0.05859375,"midi":83,"time":232.49088541666666,"velocity":0.3937007874015748},{"duration":0.17447916666668561,"midi":70,"time":232.49088541666666,"velocity":0.3937007874015748},{"duration":0.05859375,"midi":60,"time":232.50260416666666,"velocity":0.3937007874015748},{"duration":0.06119791666665719,"midi":87,"time":232.57161458333334,"velocity":0.3937007874015748},{"duration":0.17578125,"midi":90,"time":232.58333333333334,"velocity":0.3937007874015748},{"duration":0.059895833333314386,"midi":75,"time":232.58333333333334,"velocity":0.3937007874015748},{"duration":0.05859375,"midi":44,"time":232.59635416666666,"velocity":0.3937007874015748},{"duration":0.17447916666668561,"midi":74,"time":232.60807291666666,"velocity":0.3937007874015748},{"duration":0.5494791666666856,"midi":93,"time":232.61979166666666,"velocity":0.3937007874015748},{"duration":0.1731770833333428,"midi":67,"time":232.61979166666666,"velocity":0.3937007874015748},{"duration":0.5494791666666856,"midi":86,"time":232.61979166666666,"velocity":0.3937007874015748},{"duration":0.1731770833333428,"midi":70,"time":232.61979166666666,"velocity":0.3937007874015748},{"duration":0.057291666666685614,"midi":91,"time":232.61979166666666,"velocity":0.3937007874015748},{"duration":0.05598958333334281,"midi":77,"time":232.6328125,"velocity":0.3937007874015748},{"duration":0.05598958333334281,"midi":37,"time":232.6328125,"velocity":0.3937007874015748},{"duration":0.05598958333334281,"midi":83,"time":232.6328125,"velocity":0.3937007874015748},{"duration":0.1744791666666572,"midi":50,"time":232.65364583333334,"velocity":0.3937007874015748},{"duration":0.17578125,"midi":43,"time":232.66536458333334,"velocity":0.3937007874015748},{"duration":0.06119791666665719,"midi":89,"time":232.6875,"velocity":0.3937007874015748},{"duration":0.4244791666666572,"midi":74,"time":232.69921875,"velocity":0.3937007874015748},{"duration":0.1744791666666572,"midi":65,"time":232.71223958333334,"velocity":0.3937007874015748},{"duration":0.059895833333314386,"midi":59,"time":232.71223958333334,"velocity":0.3937007874015748},{"duration":0.05859375,"midi":90,"time":232.72395833333334,"velocity":0.3937007874015748},{"duration":0.05729166666665719,"midi":71,"time":232.73567708333334,"velocity":0.3937007874015748},{"duration":0.17317708333331439,"midi":89,"time":232.75911458333334,"velocity":0.3937007874015748},{"duration":0.14973958333331439,"midi":70,"time":232.75911458333334,"velocity":0.3937007874015748},{"duration":0.05859375,"midi":50,"time":232.78255208333334,"velocity":0.3937007874015748},{"duration":0.1744791666666572,"midi":43,"time":232.81640625,"velocity":0.3937007874015748},{"duration":0.1744791666666572,"midi":90,"time":232.828125,"velocity":0.3937007874015748},{"duration":0.2994791666666572,"midi":65,"time":232.828125,"velocity":0.3937007874015748},{"duration":0.05859375,"midi":71,"time":232.828125,"velocity":0.3937007874015748},{"duration":0.05859375,"midi":83,"time":232.85026041666666,"velocity":0.3937007874015748},{"duration":0.08203125,"midi":70,"time":232.85026041666666,"velocity":0.3937007874015748},{"duration":0.30078125,"midi":62,"time":232.88541666666666,"velocity":0.3937007874015748},{"duration":0.05859375,"midi":31,"time":232.88541666666666,"velocity":0.3937007874015748},{"duration":0.05989583333334281,"midi":71,"time":232.89713541666666,"velocity":0.3937007874015748},{"duration":0.17447916666668561,"midi":82,"time":232.89713541666666,"velocity":0.3937007874015748},{"duration":0.17447916666668561,"midi":89,"time":232.90885416666666,"velocity":0.3937007874015748},{"duration":0.17447916666668561,"midi":55,"time":232.93229166666666,"velocity":0.3937007874015748},{"duration":0.05859375,"midi":90,"time":232.94401041666666,"velocity":0.3937007874015748},{"duration":0.05859375,"midi":71,"time":232.94401041666666,"velocity":0.3937007874015748},{"duration":0.05859375,"midi":70,"time":232.96614583333334,"velocity":0.3937007874015748},{"duration":0.17708333333331439,"midi":89,"time":232.98958333333334,"velocity":0.3937007874015748},{"duration":0.05859375,"midi":79,"time":233.00130208333334,"velocity":0.3937007874015748},{"duration":0.17708333333331439,"midi":70,"time":233.00130208333334,"velocity":0.3937007874015748},{"duration":0.17578125,"midi":83,"time":233.08203125,"velocity":0.3937007874015748},{"duration":0.17578125,"midi":90,"time":233.08203125,"velocity":0.3937007874015748},{"duration":0.06119791666665719,"midi":94,"time":233.10546875,"velocity":0.3937007874015748},{"duration":0.06119791666665719,"midi":75,"time":233.1171875,"velocity":0.3937007874015748},{"duration":0.1744791666666572,"midi":74,"time":233.14192708333334,"velocity":0.3937007874015748},{"duration":0.1744791666666572,"midi":82,"time":233.14192708333334,"velocity":0.3937007874015748},{"duration":0.2981770833333144,"midi":93,"time":233.14192708333334,"velocity":0.3937007874015748},{"duration":0.05859375,"midi":89,"time":233.15364583333334,"velocity":0.3937007874015748},{"duration":0.05859375,"midi":70,"time":233.15364583333334,"velocity":0.3937007874015748},{"duration":0.057291666666685614,"midi":71,"time":233.17838541666666,"velocity":0.3937007874015748},{"duration":0.05859375,"midi":67,"time":233.21223958333334,"velocity":0.3937007874015748},{"duration":0.05859375,"midi":70,"time":233.21223958333334,"velocity":0.3937007874015748},{"duration":0.05989583333334281,"midi":73,"time":233.22265625,"velocity":0.3937007874015748},{"duration":0.05989583333334281,"midi":71,"time":233.24609375,"velocity":0.3937007874015748},{"duration":0.05859375,"midi":83,"time":233.3046875,"velocity":0.3937007874015748},{"duration":0.171875,"midi":86,"time":233.3046875,"velocity":0.3937007874015748},{"duration":0.05989583333334281,"midi":71,"time":233.35026041666666,"velocity":0.3937007874015748},{"duration":0.05989583333334281,"midi":90,"time":233.35026041666666,"velocity":0.3937007874015748},{"duration":0.05859375,"midi":95,"time":233.36328125,"velocity":0.3937007874015748},{"duration":0.05859375,"midi":90,"time":233.36328125,"velocity":0.3937007874015748},{"duration":0.05859375,"midi":82,"time":233.36328125,"velocity":0.3937007874015748},{"duration":0.1731770833333428,"midi":87,"time":233.37369791666666,"velocity":0.3937007874015748},{"duration":0.1731770833333428,"midi":93,"time":233.37369791666666,"velocity":0.3937007874015748},{"duration":0.05859375,"midi":57,"time":233.37369791666666,"velocity":0.3937007874015748},{"duration":0.15104166666668561,"midi":74,"time":233.38541666666666,"velocity":0.3937007874015748},{"duration":0.057291666666685614,"midi":81,"time":233.38541666666666,"velocity":0.3937007874015748},{"duration":0.057291666666685614,"midi":91,"time":233.38541666666666,"velocity":0.3937007874015748},{"duration":0.057291666666685614,"midi":64,"time":233.38541666666666,"velocity":0.3937007874015748},{"duration":0.05729166666665719,"midi":69,"time":233.3984375,"velocity":0.3937007874015748},{"duration":0.1692708333333428,"midi":90,"time":233.41015625,"velocity":0.3937007874015748},{"duration":0.1692708333333428,"midi":86,"time":233.41015625,"velocity":0.3937007874015748},{"duration":0.05598958333334281,"midi":60,"time":233.41015625,"velocity":0.3937007874015748},{"duration":0.05598958333334281,"midi":92,"time":233.41015625,"velocity":0.3937007874015748},{"duration":0.05598958333334281,"midi":77,"time":233.41015625,"velocity":0.3937007874015748},{"duration":0.1692708333333428,"midi":84,"time":233.41015625,"velocity":0.3937007874015748},{"duration":0.05598958333334281,"midi":44,"time":233.41015625,"velocity":0.3937007874015748},{"duration":0.2903645833333428,"midi":80,"time":233.42057291666666,"velocity":0.3937007874015748},{"duration":0.057291666666685614,"midi":70,"time":233.43229166666666,"velocity":0.3937007874015748},{"duration":0.1705729166666572,"midi":70,"time":233.46484375,"velocity":0.3937007874015748},{"duration":0.1705729166666572,"midi":52,"time":233.4765625,"velocity":0.3937007874015748},{"duration":0.08072916666665719,"midi":74,"time":233.4765625,"velocity":0.3937007874015748},{"duration":0.1705729166666572,"midi":57,"time":233.4765625,"velocity":0.3937007874015748},{"duration":0.10286458333334281,"midi":89,"time":233.4765625,"velocity":0.3937007874015748},{"duration":0.05859375,"midi":67,"time":233.48828125,"velocity":0.3937007874015748},{"duration":0.05859375,"midi":45,"time":233.48828125,"velocity":0.3937007874015748},{"duration":0.05859375,"midi":95,"time":233.49869791666666,"velocity":0.3937007874015748},{"duration":0.05729166666665719,"midi":34,"time":233.51171875,"velocity":0.3937007874015748},{"duration":0.12369791666665719,"midi":89,"time":233.5234375,"velocity":0.3937007874015748},{"duration":0.1692708333333428,"midi":87,"time":233.5234375,"velocity":0.3937007874015748},{"duration":0.1692708333333428,"midi":84,"time":233.5234375,"velocity":0.3937007874015748},{"duration":0.1692708333333428,"midi":60,"time":233.5234375,"velocity":0.3937007874015748},{"duration":0.1471354166666572,"midi":67,"time":233.53515625,"velocity":0.3937007874015748},{"duration":0.05598958333334281,"midi":32,"time":233.53515625,"velocity":0.3937007874015748},{"duration":0.057291666666685614,"midi":34,"time":233.55729166666666,"velocity":0.3937007874015748},{"duration":0.05729166666665719,"midi":64,"time":233.56770833333334,"velocity":0.3937007874015748},{"duration":0.05729166666665719,"midi":45,"time":233.578125,"velocity":0.3937007874015748},{"duration":0.2903645833333428,"midi":89,"time":233.578125,"velocity":0.3937007874015748},{"duration":0.2890625,"midi":95,"time":233.61328125,"velocity":0.3937007874015748},{"duration":0.05729166666665719,"midi":70,"time":233.61328125,"velocity":0.3937007874015748},{"duration":0.05729166666665719,"midi":63,"time":233.61328125,"velocity":0.3937007874015748},{"duration":0.1692708333333428,"midi":60,"time":233.61328125,"velocity":0.3937007874015748},{"duration":0.1692708333333428,"midi":79,"time":233.625,"velocity":0.3937007874015748},{"duration":0.078125,"midi":67,"time":233.625,"velocity":0.3937007874015748},{"duration":0.05729166666665719,"midi":46,"time":233.625,"velocity":0.3937007874015748},{"duration":0.1692708333333428,"midi":52,"time":233.625,"velocity":0.3937007874015748},{"duration":0.1692708333333428,"midi":94,"time":233.63541666666666,"velocity":0.3937007874015748},{"duration":0.057291666666685614,"midi":81,"time":233.63541666666666,"velocity":0.3937007874015748},{"duration":0.1692708333333428,"midi":86,"time":233.63541666666666,"velocity":0.3937007874015748},{"duration":0.05729166666665719,"midi":44,"time":233.64583333333334,"velocity":0.3937007874015748},{"duration":0.5377604166666572,"midi":74,"time":233.64583333333334,"velocity":0.3937007874015748},{"duration":0.05598958333334281,"midi":69,"time":233.65885416666666,"velocity":0.3937007874015748},{"duration":0.055989583333314386,"midi":70,"time":233.68098958333334,"velocity":0.3937007874015748},{"duration":0.05729166666665719,"midi":45,"time":233.69140625,"velocity":0.3937007874015748},{"duration":0.05859375,"midi":70,"time":233.71354166666666,"velocity":0.3937007874015748},{"duration":0.1705729166666572,"midi":84,"time":233.72395833333334,"velocity":0.3937007874015748},{"duration":0.05859375,"midi":61,"time":233.72395833333334,"velocity":0.3937007874015748},{"duration":0.057291666666685614,"midi":67,"time":233.73697916666666,"velocity":0.3937007874015748},{"duration":0.05729166666665719,"midi":45,"time":233.75911458333334,"velocity":0.3937007874015748},{"duration":0.05598958333334281,"midi":87,"time":233.77213541666666,"velocity":0.3937007874015748},{"duration":0.05598958333334281,"midi":61,"time":233.77213541666666,"velocity":0.3937007874015748},{"duration":0.055989583333314386,"midi":81,"time":233.78255208333334,"velocity":0.3937007874015748},{"duration":0.16927083333331439,"midi":70,"time":233.78255208333334,"velocity":0.3937007874015748},{"duration":0.05598958333334281,"midi":33,"time":233.79296875,"velocity":0.3937007874015748},{"duration":0.05598958333334281,"midi":66,"time":233.79296875,"velocity":0.3937007874015748},{"duration":0.2955729166666572,"midi":45,"time":233.8046875,"velocity":0.3937007874015748},{"duration":0.171875,"midi":80,"time":233.8046875,"velocity":0.3937007874015748},{"duration":0.171875,"midi":64,"time":233.82682291666666,"velocity":0.3937007874015748},{"duration":0.057291666666685614,"midi":34,"time":233.82682291666666,"velocity":0.3937007874015748},{"duration":0.171875,"midi":89,"time":233.82682291666666,"velocity":0.3937007874015748},{"duration":0.05729166666665719,"midi":52,"time":233.83723958333334,"velocity":0.3937007874015748},{"duration":0.17317708333331439,"midi":95,"time":233.84895833333334,"velocity":0.3937007874015748},{"duration":0.17317708333331439,"midi":67,"time":233.84895833333334,"velocity":0.3937007874015748},{"duration":0.05729166666665719,"midi":33,"time":233.84895833333334,"velocity":0.3937007874015748},{"duration":0.05729166666665719,"midi":93,"time":233.859375,"velocity":0.3937007874015748},{"duration":0.05989583333334281,"midi":33,"time":233.91666666666666,"velocity":0.3937007874015748},{"duration":0.05989583333334281,"midi":61,"time":233.91666666666666,"velocity":0.3937007874015748},{"duration":0.059895833333314386,"midi":33,"time":233.95052083333334,"velocity":0.3937007874015748},{"duration":0.15104166666668561,"midi":80,"time":233.96354166666666,"velocity":0.3937007874015748},{"duration":0.17447916666668561,"midi":70,"time":233.96354166666666,"velocity":0.3937007874015748},{"duration":0.05859375,"midi":84,"time":233.97526041666666,"velocity":0.3937007874015748},{"duration":0.1731770833333428,"midi":87,"time":233.97526041666666,"velocity":0.3937007874015748},{"duration":0.05859375,"midi":66,"time":233.97526041666666,"velocity":0.3937007874015748},{"duration":0.05859375,"midi":61,"time":233.97526041666666,"velocity":0.3937007874015748},{"duration":0.17317708333331439,"midi":93,"time":233.98567708333334,"velocity":0.3937007874015748},{"duration":0.17317708333331439,"midi":89,"time":233.98567708333334,"velocity":0.3937007874015748},{"duration":0.296875,"midi":77,"time":233.98567708333334,"velocity":0.3937007874015748},{"duration":0.171875,"midi":65,"time":233.99869791666666,"velocity":0.3937007874015748},{"duration":0.171875,"midi":84,"time":233.99869791666666,"velocity":0.3937007874015748},{"duration":0.05859375,"midi":91,"time":233.99869791666666,"velocity":0.3937007874015748},{"duration":0.05859375,"midi":95,"time":234.03385416666666,"velocity":0.3937007874015748},{"duration":0.171875,"midi":58,"time":234.05598958333334,"velocity":0.3937007874015748},{"duration":0.05859375,"midi":33,"time":234.05598958333334,"velocity":0.3937007874015748},{"duration":0.08203125,"midi":80,"time":234.05598958333334,"velocity":0.3937007874015748},{"duration":0.05859375,"midi":69,"time":234.07942708333334,"velocity":0.3937007874015748},{"duration":0.05859375,"midi":66,"time":234.07942708333334,"velocity":0.3937007874015748},{"duration":0.05729166666665719,"midi":85,"time":234.09114583333334,"velocity":0.3937007874015748},{"duration":0.05729166666665719,"midi":90,"time":234.1015625,"velocity":0.3937007874015748},{"duration":0.171875,"midi":81,"time":234.1015625,"velocity":0.3937007874015748},{"duration":0.055989583333314386,"midi":66,"time":234.11458333333334,"velocity":0.3937007874015748},{"duration":0.055989583333314386,"midi":62,"time":234.11458333333334,"velocity":0.3937007874015748},{"duration":0.05598958333334281,"midi":65,"time":234.13671875,"velocity":0.3937007874015748},{"duration":0.05598958333334281,"midi":70,"time":234.13671875,"velocity":0.3937007874015748},{"duration":0.1731770833333428,"midi":84,"time":234.15885416666666,"velocity":0.3937007874015748},{"duration":0.05859375,"midi":86,"time":234.16927083333334,"velocity":0.3937007874015748},{"duration":0.05859375,"midi":70,"time":234.16927083333334,"velocity":0.3937007874015748},{"duration":0.05989583333334281,"midi":85,"time":234.1796875,"velocity":0.3937007874015748},{"duration":0.05989583333334281,"midi":60,"time":234.1796875,"velocity":0.3937007874015748},{"duration":0.05989583333334281,"midi":66,"time":234.1796875,"velocity":0.3937007874015748},{"duration":0.1744791666666572,"midi":87,"time":234.1796875,"velocity":0.3937007874015748},{"duration":0.05859375,"midi":37,"time":234.19270833333334,"velocity":0.3937007874015748},{"duration":0.1744791666666572,"midi":78,"time":234.203125,"velocity":0.3937007874015748},{"duration":0.05989583333334281,"midi":63,"time":234.203125,"velocity":0.3937007874015748},{"duration":0.1731770833333428,"midi":53,"time":234.21484375,"velocity":0.3937007874015748},{"duration":0.1731770833333428,"midi":69,"time":234.21484375,"velocity":0.3937007874015748},{"duration":0.2981770833333144,"midi":46,"time":234.22786458333334,"velocity":0.3937007874015748},{"duration":0.17317708333331439,"midi":65,"time":234.22786458333334,"velocity":0.3937007874015748},{"duration":0.05859375,"midi":89,"time":234.22786458333334,"velocity":0.3937007874015748},{"duration":0.1731770833333428,"midi":90,"time":234.25,"velocity":0.3937007874015748},{"duration":0.05859375,"midi":63,"time":234.25,"velocity":0.3937007874015748},{"duration":0.05859375,"midi":33,"time":234.25,"velocity":0.3937007874015748},{"duration":0.1731770833333428,"midi":85,"time":234.25,"velocity":0.3937007874015748},{"duration":0.05859375,"midi":62,"time":234.2734375,"velocity":0.3937007874015748},{"duration":0.1731770833333428,"midi":84,"time":234.28515625,"velocity":0.3937007874015748},{"duration":0.05859375,"midi":89,"time":234.296875,"velocity":0.3937007874015748},{"duration":0.17447916666668561,"midi":81,"time":234.31901041666666,"velocity":0.3937007874015748},{"duration":0.421875,"midi":86,"time":234.31901041666666,"velocity":0.3937007874015748},{"duration":0.421875,"midi":65,"time":234.31901041666666,"velocity":0.3937007874015748},{"duration":0.2981770833333428,"midi":79,"time":234.31901041666666,"velocity":0.3937007874015748},{"duration":0.05859375,"midi":34,"time":234.31901041666666,"velocity":0.3937007874015748},{"duration":0.1731770833333428,"midi":89,"time":234.33072916666666,"velocity":0.3937007874015748},{"duration":0.05859375,"midi":95,"time":234.34244791666666,"velocity":0.3937007874015748},{"duration":0.13932291666668561,"midi":53,"time":234.35416666666666,"velocity":0.3937007874015748},{"duration":0.2981770833333144,"midi":34,"time":234.36458333333334,"velocity":0.3937007874015748},{"duration":0.059895833333314386,"midi":90,"time":234.42317708333334,"velocity":0.3937007874015748},{"duration":0.05859375,"midi":62,"time":234.43489583333334,"velocity":0.3937007874015748},{"duration":0.09375,"midi":53,"time":234.43489583333334,"velocity":0.3937007874015748},{"duration":0.05859375,"midi":69,"time":234.47005208333334,"velocity":0.3937007874015748},{"duration":0.17317708333331439,"midi":84,"time":234.49348958333334,"velocity":0.3937007874015748},{"duration":0.05859375,"midi":53,"time":234.49348958333334,"velocity":0.3937007874015748},{"duration":0.05859375,"midi":46,"time":234.50390625,"velocity":0.3937007874015748},{"duration":0.05729166666665719,"midi":70,"time":234.515625,"velocity":0.3937007874015748},{"duration":0.1744791666666572,"midi":81,"time":234.515625,"velocity":0.3937007874015748},{"duration":0.1744791666666572,"midi":46,"time":234.5390625,"velocity":0.3937007874015748},{"duration":0.05859375,"midi":53,"time":234.56119791666666,"velocity":0.3937007874015748},{"duration":0.05859375,"midi":78,"time":234.56119791666666,"velocity":0.3937007874015748},{"duration":0.2981770833333428,"midi":84,"time":234.57291666666666,"velocity":0.3937007874015748},{"duration":0.2981770833333428,"midi":69,"time":234.57291666666666,"velocity":0.3937007874015748},{"duration":0.2981770833333144,"midi":77,"time":234.58333333333334,"velocity":0.3937007874015748},{"duration":0.059895833333314386,"midi":79,"time":234.59505208333334,"velocity":0.3937007874015748},{"duration":0.296875,"midi":62,"time":234.60807291666666,"velocity":0.3937007874015748},{"duration":0.1731770833333428,"midi":86,"time":234.64322916666666,"velocity":0.3937007874015748},{"duration":0.05859375,"midi":34,"time":234.65494791666666,"velocity":0.3937007874015748},{"duration":0.05859375,"midi":46,"time":234.66536458333334,"velocity":0.3937007874015748},{"duration":0.05859375,"midi":79,"time":234.67708333333334,"velocity":0.3937007874015748},{"duration":0.05859375,"midi":46,"time":234.72395833333334,"velocity":0.3937007874015748},{"duration":0.05859375,"midi":34,"time":234.72395833333334,"velocity":0.3937007874015748},{"duration":0.05859375,"midi":79,"time":234.7578125,"velocity":0.3937007874015748},{"duration":0.05859375,"midi":65,"time":234.7578125,"velocity":0.3937007874015748},{"duration":0.05859375,"midi":46,"time":234.7578125,"velocity":0.3937007874015748},{"duration":0.05859375,"midi":66,"time":234.79296875,"velocity":0.3937007874015748},{"duration":0.05859375,"midi":34,"time":234.79296875,"velocity":0.3937007874015748},{"duration":0.05859375,"midi":46,"time":234.81510416666666,"velocity":0.3937007874015748},{"duration":0.05859375,"midi":85,"time":234.81510416666666,"velocity":0.3937007874015748},{"duration":0.1744791666666572,"midi":77,"time":234.82552083333334,"velocity":0.3937007874015748},{"duration":0.05859375,"midi":84,"time":234.83854166666666,"velocity":0.3937007874015748},{"duration":0.05859375,"midi":65,"time":234.83854166666666,"velocity":0.3937007874015748},{"duration":0.17317708333331439,"midi":34,"time":234.86067708333334,"velocity":0.3937007874015748},{"duration":0.05859375,"midi":46,"time":234.88411458333334,"velocity":0.3937007874015748},{"duration":0.05729166666665719,"midi":76,"time":234.89583333333334,"velocity":0.3937007874015748},{"duration":0.05729166666665719,"midi":83,"time":234.89583333333334,"velocity":0.3937007874015748},{"duration":0.171875,"midi":62,"time":234.89583333333334,"velocity":0.3937007874015748},{"duration":0.2981770833333144,"midi":84,"time":234.90755208333334,"velocity":0.3937007874015748},{"duration":0.1731770833333428,"midi":77,"time":234.9296875,"velocity":0.3937007874015748},{"duration":0.05989583333334281,"midi":65,"time":234.953125,"velocity":0.3937007874015748},{"duration":0.05989583333334281,"midi":69,"time":234.96354166666666,"velocity":0.3937007874015748},{"duration":0.05989583333334281,"midi":80,"time":234.96354166666666,"velocity":0.3937007874015748},{"duration":0.05859375,"midi":60,"time":234.97526041666666,"velocity":0.3937007874015748},{"duration":0.05859375,"midi":75,"time":234.97526041666666,"velocity":0.3937007874015748},{"duration":0.17578125,"midi":50,"time":234.97526041666666,"velocity":0.3937007874015748},{"duration":0.17578125,"midi":79,"time":234.97526041666666,"velocity":0.3937007874015748},{"duration":0.05729166666665719,"midi":68,"time":234.98828125,"velocity":0.3937007874015748},{"duration":0.05729166666665719,"midi":88,"time":234.98828125,"velocity":0.3937007874015748},{"duration":0.1744791666666572,"midi":65,"time":235,"velocity":0.3937007874015748},{"duration":0.05729166666665719,"midi":86,"time":235,"velocity":0.3937007874015748},{"duration":0.05729166666665719,"midi":69,"time":235.0234375,"velocity":0.3937007874015748},{"duration":0.17447916666668561,"midi":34,"time":235.03385416666666,"velocity":0.3937007874015748},{"duration":0.17578125,"midi":46,"time":235.04427083333334,"velocity":0.3937007874015748},{"duration":0.06119791666665719,"midi":76,"time":235.10286458333334,"velocity":0.3937007874015748},{"duration":0.17578125,"midi":62,"time":235.11458333333334,"velocity":0.3937007874015748},{"duration":0.17578125,"midi":77,"time":235.12630208333334,"velocity":0.3937007874015748},{"duration":0.17578125,"midi":84,"time":235.12630208333334,"velocity":0.3937007874015748},{"duration":0.05859375,"midi":91,"time":235.13932291666666,"velocity":0.3937007874015748},{"duration":0.1731770833333428,"midi":46,"time":235.16276041666666,"velocity":0.3937007874015748},{"duration":0.17317708333331439,"midi":74,"time":235.17317708333334,"velocity":0.3937007874015748},{"duration":0.05859375,"midi":65,"time":235.19661458333334,"velocity":0.3937007874015748},{"duration":0.1744791666666572,"midi":34,"time":235.20703125,"velocity":0.3937007874015748},{"duration":0.1744791666666572,"midi":69,"time":235.2421875,"velocity":0.3937007874015748},{"duration":0.05989583333334281,"midi":83,"time":235.265625,"velocity":0.3937007874015748},{"duration":0.1731770833333428,"midi":46,"time":235.27734375,"velocity":0.3937007874015748},{"duration":0.05859375,"midi":65,"time":235.27734375,"velocity":0.3937007874015748},{"duration":0.171875,"midi":65,"time":235.32421875,"velocity":0.3937007874015748},{"duration":0.05859375,"midi":34,"time":235.35807291666666,"velocity":0.3937007874015748},{"duration":0.05859375,"midi":62,"time":235.42708333333334,"velocity":0.3937007874015748},{"duration":0.17578125,"midi":65,"time":235.47265625,"velocity":0.3937007874015748},{"duration":0.1744791666666572,"midi":62,"time":235.48567708333334,"velocity":0.3937007874015748},{"duration":0.06119791666665719,"midi":60,"time":235.56640625,"velocity":0.3937007874015748},{"duration":0.05989583333334281,"midi":54,"time":235.578125,"velocity":0.3937007874015748},{"duration":0.05989583333334281,"midi":64,"time":235.578125,"velocity":0.3937007874015748},{"duration":0.05859375,"midi":77,"time":235.58984375,"velocity":0.3937007874015748},{"duration":0.17578125,"midi":53,"time":235.60286458333334,"velocity":0.3937007874015748},{"duration":0.17578125,"midi":46,"time":235.61458333333334,"velocity":0.3937007874015748},{"duration":0.05859375,"midi":34,"time":235.63802083333334,"velocity":0.3937007874015748},{"duration":0.05989583333334281,"midi":64,"time":235.67057291666666,"velocity":0.3937007874015748},{"duration":0.1770833333333428,"midi":62,"time":235.68359375,"velocity":0.3937007874015748},{"duration":0.17838541666668561,"midi":34,"time":235.70572916666666,"velocity":0.3937007874015748},{"duration":0.1770833333333428,"midi":69,"time":235.765625,"velocity":0.3937007874015748},{"duration":0.05989583333334281,"midi":61,"time":235.77734375,"velocity":0.3937007874015748},{"duration":0.059895833333314386,"midi":84,"time":235.79036458333334,"velocity":0.3937007874015748},{"duration":0.059895833333314386,"midi":40,"time":235.79036458333334,"velocity":0.3937007874015748},{"duration":0.6783854166666572,"midi":53,"time":235.79036458333334,"velocity":0.3937007874015748},{"duration":0.17578125,"midi":62,"time":235.80208333333334,"velocity":0.3937007874015748},{"duration":0.5520833333333428,"midi":46,"time":235.82421875,"velocity":0.3937007874015748},{"duration":0.17578125,"midi":34,"time":235.87239583333334,"velocity":0.3937007874015748},{"duration":0.2994791666666572,"midi":68,"time":235.94140625,"velocity":0.3937007874015748},{"duration":0.17578125,"midi":34,"time":236.01171875,"velocity":0.3937007874015748},{"duration":0.17578125,"midi":34,"time":236.12760416666666,"velocity":0.3937007874015748},{"duration":0.05989583333334281,"midi":74,"time":236.16276041666666,"velocity":0.3937007874015748},{"duration":0.05859375,"midi":82,"time":236.17447916666666,"velocity":0.3937007874015748},{"duration":0.17578125,"midi":34,"time":236.23307291666666,"velocity":0.3937007874015748},{"duration":0.1770833333333428,"midi":62,"time":236.25651041666666,"velocity":0.3937007874015748},{"duration":0.17578125,"midi":69,"time":236.37369791666666,"velocity":0.3937007874015748},{"duration":0.05989583333334281,"midi":46,"time":236.38541666666666,"velocity":0.3937007874015748},{"duration":0.05989583333334281,"midi":62,"time":236.40885416666666,"velocity":0.3937007874015748},{"duration":0.05989583333334281,"midi":93,"time":236.42057291666666,"velocity":0.3937007874015748},{"duration":0.17447916666668561,"midi":46,"time":236.42057291666666,"velocity":0.3937007874015748},{"duration":0.05989583333334281,"midi":34,"time":236.42057291666666,"velocity":0.3937007874015748},{"duration":0.05859375,"midi":53,"time":236.43229166666666,"velocity":0.3937007874015748},{"duration":0.05859375,"midi":33,"time":236.46744791666666,"velocity":0.3937007874015748},{"duration":0.05859375,"midi":34,"time":236.49088541666666,"velocity":0.3937007874015748},{"duration":0.05859375,"midi":62,"time":236.50130208333334,"velocity":0.3937007874015748},{"duration":0.05859375,"midi":33,"time":236.53645833333334,"velocity":0.3937007874015748},{"duration":0.05859375,"midi":81,"time":236.55859375,"velocity":0.3937007874015748},{"duration":0.1731770833333428,"midi":93,"time":236.55859375,"velocity":0.3937007874015748},{"duration":0.1731770833333428,"midi":84,"time":236.55859375,"velocity":0.3937007874015748},{"duration":0.05989583333334281,"midi":85,"time":236.5703125,"velocity":0.3937007874015748},{"duration":0.296875,"midi":86,"time":236.5703125,"velocity":0.3937007874015748},{"duration":0.296875,"midi":74,"time":236.58203125,"velocity":0.3937007874015748},{"duration":0.05859375,"midi":60,"time":236.58203125,"velocity":0.3937007874015748},{"duration":0.05859375,"midi":43,"time":236.59375,"velocity":0.3937007874015748},{"duration":0.05859375,"midi":50,"time":236.60546875,"velocity":0.3937007874015748},{"duration":0.05859375,"midi":42,"time":236.60546875,"velocity":0.3937007874015748},{"duration":0.05859375,"midi":41,"time":236.6171875,"velocity":0.3937007874015748},{"duration":0.05859375,"midi":58,"time":236.6171875,"velocity":0.3937007874015748},{"duration":0.1731770833333428,"midi":65,"time":236.640625,"velocity":0.3937007874015748},{"duration":0.05859375,"midi":40,"time":236.640625,"velocity":0.3937007874015748},{"duration":0.05859375,"midi":60,"time":236.66276041666666,"velocity":0.3937007874015748},{"duration":0.1731770833333428,"midi":82,"time":236.66276041666666,"velocity":0.3937007874015748},{"duration":0.5455729166666856,"midi":84,"time":236.68619791666666,"velocity":0.3937007874015748},{"duration":0.1731770833333428,"midi":93,"time":236.68619791666666,"velocity":0.3937007874015748},{"duration":0.296875,"midi":77,"time":236.69791666666666,"velocity":0.3937007874015748},{"duration":0.059895833333314386,"midi":40,"time":236.70833333333334,"velocity":0.3937007874015748},{"duration":0.05859375,"midi":60,"time":236.72135416666666,"velocity":0.3937007874015748},{"duration":0.05859375,"midi":64,"time":236.74348958333334,"velocity":0.3937007874015748},{"duration":0.05859375,"midi":61,"time":236.74348958333334,"velocity":0.3937007874015748},{"duration":0.05729166666665719,"midi":70,"time":236.77864583333334,"velocity":0.3937007874015748},{"duration":0.05859375,"midi":65,"time":236.79036458333334,"velocity":0.3937007874015748},{"duration":0.17317708333331439,"midi":81,"time":236.79036458333334,"velocity":0.3937007874015748},{"duration":0.05859375,"midi":58,"time":236.79036458333334,"velocity":0.3937007874015748},{"duration":0.05729166666665719,"midi":46,"time":236.80208333333334,"velocity":0.3937007874015748},{"duration":0.05859375,"midi":45,"time":236.8359375,"velocity":0.3937007874015748},{"duration":0.05989583333334281,"midi":63,"time":236.86979166666666,"velocity":0.3937007874015748},{"duration":0.1731770833333428,"midi":93,"time":236.88151041666666,"velocity":0.3937007874015748},{"duration":0.05859375,"midi":64,"time":236.91666666666666,"velocity":0.3937007874015748},{"duration":0.05859375,"midi":69,"time":236.93880208333334,"velocity":0.3937007874015748},{"duration":0.17317708333331439,"midi":57,"time":236.97395833333334,"velocity":0.3937007874015748},{"duration":0.17317708333331439,"midi":86,"time":236.97395833333334,"velocity":0.3937007874015748},{"duration":0.05859375,"midi":89,"time":236.98567708333334,"velocity":0.3937007874015748},{"duration":0.17317708333331439,"midi":74,"time":236.98567708333334,"velocity":0.3937007874015748},{"duration":0.5494791666666572,"midi":77,"time":236.99739583333334,"velocity":0.3937007874015748},{"duration":0.17317708333331439,"midi":62,"time":236.99739583333334,"velocity":0.3937007874015748},{"duration":0.3020833333333428,"midi":65,"time":237.06640625,"velocity":0.3937007874015748},{"duration":0.05859375,"midi":69,"time":237.078125,"velocity":0.3937007874015748},{"duration":0.05729166666665719,"midi":58,"time":237.08984375,"velocity":0.3937007874015748},{"duration":0.1744791666666572,"midi":58,"time":237.13671875,"velocity":0.3937007874015748},{"duration":0.05859375,"midi":45,"time":237.14713541666666,"velocity":0.3937007874015748},{"duration":0.17578125,"midi":74,"time":237.14713541666666,"velocity":0.3937007874015748},{"duration":0.17708333333331439,"midi":93,"time":237.20442708333334,"velocity":0.3937007874015748},{"duration":0.17708333333331439,"midi":46,"time":237.20442708333334,"velocity":0.3937007874015748},{"duration":0.3020833333333144,"midi":74,"time":237.30989583333334,"velocity":0.3937007874015748},{"duration":0.06119791666665719,"midi":57,"time":237.30989583333334,"velocity":0.3937007874015748},{"duration":0.05989583333334281,"midi":60,"time":237.33463541666666,"velocity":0.3937007874015748},{"duration":0.05859375,"midi":64,"time":237.34635416666666,"velocity":0.3937007874015748},{"duration":0.1731770833333428,"midi":86,"time":237.35807291666666,"velocity":0.3937007874015748},{"duration":0.1731770833333428,"midi":88,"time":237.35807291666666,"velocity":0.3937007874015748},{"duration":0.05859375,"midi":45,"time":237.35807291666666,"velocity":0.3937007874015748},{"duration":0.05729166666665719,"midi":84,"time":237.37109375,"velocity":0.3937007874015748},{"duration":0.05729166666665719,"midi":63,"time":237.37109375,"velocity":0.3937007874015748},{"duration":0.05729166666665719,"midi":68,"time":237.37109375,"velocity":0.3937007874015748},{"duration":0.17447916666668561,"midi":81,"time":237.38151041666666,"velocity":0.3937007874015748},{"duration":0.17447916666668561,"midi":95,"time":237.38151041666666,"velocity":0.3937007874015748},{"duration":0.05859375,"midi":41,"time":237.38151041666666,"velocity":0.3937007874015748},{"duration":0.42578125,"midi":67,"time":237.39322916666666,"velocity":0.3937007874015748},{"duration":0.057291666666685614,"midi":64,"time":237.39322916666666,"velocity":0.3937007874015748},{"duration":0.057291666666685614,"midi":37,"time":237.39322916666666,"velocity":0.3937007874015748},{"duration":0.17447916666668561,"midi":79,"time":237.40494791666666,"velocity":0.3937007874015748},{"duration":0.3020833333333144,"midi":45,"time":237.42708333333334,"velocity":0.3937007874015748},{"duration":0.17708333333331439,"midi":76,"time":237.45052083333334,"velocity":0.3937007874015748},{"duration":0.17708333333331439,"midi":64,"time":237.45052083333334,"velocity":0.3937007874015748},{"duration":0.05989583333334281,"midi":89,"time":237.5078125,"velocity":0.3937007874015748},{"duration":0.1770833333333428,"midi":95,"time":237.53125,"velocity":0.3937007874015748},{"duration":0.1770833333333428,"midi":64,"time":237.5546875,"velocity":0.3937007874015748},{"duration":0.30078125,"midi":74,"time":237.56770833333334,"velocity":0.3937007874015748},{"duration":0.30078125,"midi":86,"time":237.58984375,"velocity":0.3937007874015748},{"duration":0.30078125,"midi":77,"time":237.60286458333334,"velocity":0.3937007874015748},{"duration":0.30078125,"midi":88,"time":237.62630208333334,"velocity":0.3937007874015748},{"duration":0.1744791666666572,"midi":72,"time":237.66145833333334,"velocity":0.3937007874015748},{"duration":0.059895833333314386,"midi":58,"time":237.72005208333334,"velocity":0.3937007874015748},{"duration":0.1744791666666572,"midi":64,"time":237.73177083333334,"velocity":0.3937007874015748},{"duration":0.1744791666666572,"midi":67,"time":237.73177083333334,"velocity":0.3937007874015748},{"duration":0.17578125,"midi":45,"time":237.76692708333334,"velocity":0.3937007874015748},{"duration":0.17578125,"midi":91,"time":237.76692708333334,"velocity":0.3937007874015748},{"duration":0.4270833333333144,"midi":72,"time":237.77864583333334,"velocity":0.3937007874015748},{"duration":0.17578125,"midi":95,"time":237.79036458333334,"velocity":0.3937007874015748},{"duration":0.1770833333333428,"midi":67,"time":237.84765625,"velocity":0.3937007874015748},{"duration":0.1770833333333428,"midi":60,"time":237.84765625,"velocity":0.3937007874015748},{"duration":0.3033854166666572,"midi":74,"time":237.90625,"velocity":0.3937007874015748},{"duration":0.1770833333333428,"midi":77,"time":237.90625,"velocity":0.3937007874015748},{"duration":0.05989583333334281,"midi":55,"time":237.91796875,"velocity":0.3937007874015748},{"duration":0.17578125,"midi":95,"time":237.94140625,"velocity":0.3937007874015748},{"duration":0.30078125,"midi":52,"time":237.96484375,"velocity":0.3937007874015748},{"duration":0.30078125,"midi":64,"time":237.9765625,"velocity":0.3937007874015748},{"duration":0.05989583333334281,"midi":44,"time":237.9765625,"velocity":0.3937007874015748},{"duration":0.05989583333334281,"midi":60,"time":238.01171875,"velocity":0.3937007874015748},{"duration":0.17578125,"midi":79,"time":238.02473958333334,"velocity":0.3937007874015748},{"duration":0.05859375,"midi":67,"time":238.03645833333334,"velocity":0.3937007874015748},{"duration":0.05859375,"midi":77,"time":238.07161458333334,"velocity":0.3937007874015748},{"duration":0.17578125,"midi":67,"time":238.08203125,"velocity":0.3937007874015748},{"duration":0.05989583333334281,"midi":60,"time":238.10546875,"velocity":0.3937007874015748},{"duration":0.05989583333334281,"midi":45,"time":238.1171875,"velocity":0.3937007874015748},{"duration":0.05989583333334281,"midi":77,"time":238.15234375,"velocity":0.3937007874015748},{"duration":0.05859375,"midi":88,"time":238.1640625,"velocity":0.3937007874015748},{"duration":0.05859375,"midi":68,"time":238.1640625,"velocity":0.3937007874015748},{"duration":0.05859375,"midi":51,"time":238.1640625,"velocity":0.3937007874015748},{"duration":0.05859375,"midi":60,"time":238.1640625,"velocity":0.3937007874015748},{"duration":0.296875,"midi":74,"time":238.19921875,"velocity":0.3937007874015748},{"duration":0.05859375,"midi":50,"time":238.19921875,"velocity":0.3937007874015748},{"duration":0.05859375,"midi":57,"time":238.22265625,"velocity":0.3937007874015748},{"duration":0.05989583333334281,"midi":52,"time":238.23307291666666,"velocity":0.3937007874015748},{"duration":0.1731770833333428,"midi":77,"time":238.24479166666666,"velocity":0.3937007874015748},{"duration":0.05859375,"midi":45,"time":238.2578125,"velocity":0.3937007874015748},{"duration":0.05859375,"midi":67,"time":238.2578125,"velocity":0.3937007874015748},{"duration":0.421875,"midi":76,"time":238.26822916666666,"velocity":0.3937007874015748},{"duration":0.05859375,"midi":53,"time":238.27994791666666,"velocity":0.3937007874015748},{"duration":0.05859375,"midi":45,"time":238.30338541666666,"velocity":0.3937007874015748},{"duration":0.057291666666685614,"midi":46,"time":238.33854166666666,"velocity":0.3937007874015748},{"duration":0.05729166666665719,"midi":52,"time":238.36067708333334,"velocity":0.3937007874015748},{"duration":0.05859375,"midi":59,"time":238.37239583333334,"velocity":0.3937007874015748},{"duration":0.05859375,"midi":44,"time":238.37239583333334,"velocity":0.3937007874015748},{"duration":0.05859375,"midi":88,"time":238.39453125,"velocity":0.3937007874015748},{"duration":0.05859375,"midi":52,"time":238.39453125,"velocity":0.3937007874015748},{"duration":0.1393229166666572,"midi":45,"time":238.39453125,"velocity":0.3937007874015748},{"duration":0.1744791666666572,"midi":91,"time":238.40625,"velocity":0.3937007874015748},{"duration":0.2994791666666572,"midi":67,"time":238.40625,"velocity":0.3937007874015748},{"duration":0.05859375,"midi":95,"time":238.44010416666666,"velocity":0.3937007874015748},{"duration":0.17447916666668561,"midi":60,"time":238.46354166666666,"velocity":0.3937007874015748},{"duration":0.09244791666668561,"midi":45,"time":238.47526041666666,"velocity":0.3937007874015748},{"duration":0.059895833333314386,"midi":48,"time":238.54427083333334,"velocity":0.3937007874015748},{"duration":0.059895833333314386,"midi":34,"time":238.56770833333334,"velocity":0.3937007874015748},{"duration":0.17578125,"midi":91,"time":238.56770833333334,"velocity":0.3937007874015748},{"duration":0.059895833333314386,"midi":49,"time":238.56770833333334,"velocity":0.3937007874015748},{"duration":0.05859375,"midi":36,"time":238.59114583333334,"velocity":0.3937007874015748},{"duration":0.17578125,"midi":60,"time":238.60416666666666,"velocity":0.3937007874015748},{"duration":0.17578125,"midi":74,"time":238.64973958333334,"velocity":0.3937007874015748},{"duration":0.05989583333334281,"midi":77,"time":238.66015625,"velocity":0.3937007874015748},{"duration":0.55078125,"midi":76,"time":238.6953125,"velocity":0.3937007874015748},{"duration":0.42578125,"midi":67,"time":238.72005208333334,"velocity":0.3937007874015748},{"duration":0.3020833333333428,"midi":60,"time":238.7421875,"velocity":0.3937007874015748},{"duration":0.05989583333334281,"midi":91,"time":238.7421875,"velocity":0.3937007874015748},{"duration":0.05989583333334281,"midi":64,"time":238.7421875,"velocity":0.3937007874015748},{"duration":0.059895833333314386,"midi":40,"time":238.75520833333334,"velocity":0.3937007874015748},{"duration":0.059895833333314386,"midi":53,"time":238.75520833333334,"velocity":0.3937007874015748},{"duration":0.05859375,"midi":63,"time":238.76692708333334,"velocity":0.3937007874015748},{"duration":0.05859375,"midi":63,"time":238.80208333333334,"velocity":0.3937007874015748},{"duration":0.17578125,"midi":55,"time":238.82421875,"velocity":0.3937007874015748},{"duration":0.05989583333334281,"midi":64,"time":238.90625,"velocity":0.3937007874015748},{"duration":0.05989583333334281,"midi":95,"time":238.953125,"velocity":0.3937007874015748},{"duration":0.05989583333334281,"midi":74,"time":238.953125,"velocity":0.3937007874015748},{"duration":0.05989583333334281,"midi":53,"time":238.96484375,"velocity":0.3937007874015748},{"duration":0.2981770833333428,"midi":72,"time":238.96484375,"velocity":0.3937007874015748},{"duration":0.05989583333334281,"midi":44,"time":238.96484375,"velocity":0.3937007874015748},{"duration":0.5494791666666856,"midi":45,"time":238.97526041666666,"velocity":0.3937007874015748},{"duration":0.1744791666666572,"midi":91,"time":238.98828125,"velocity":0.3937007874015748},{"duration":0.05989583333334281,"midi":32,"time":239,"velocity":0.3937007874015748},{"duration":0.5481770833333428,"midi":52,"time":239.01171875,"velocity":0.3937007874015748},{"duration":0.05859375,"midi":34,"time":239.05859375,"velocity":0.3937007874015748},{"duration":0.05859375,"midi":61,"time":239.08203125,"velocity":0.3937007874015748},{"duration":0.05729166666665719,"midi":33,"time":239.09375,"velocity":0.3937007874015748},{"duration":0.4231770833333428,"midi":67,"time":239.1171875,"velocity":0.3937007874015748},{"duration":0.05729166666665719,"midi":33,"time":239.140625,"velocity":0.3937007874015748},{"duration":0.17578125,"midi":33,"time":239.20703125,"velocity":0.3937007874015748},{"duration":0.1744791666666572,"midi":72,"time":239.27734375,"velocity":0.3937007874015748},{"duration":0.1744791666666572,"midi":60,"time":239.27734375,"velocity":0.3937007874015748},{"duration":0.1744791666666572,"midi":76,"time":239.3125,"velocity":0.3937007874015748},{"duration":0.05859375,"midi":82,"time":239.32421875,"velocity":0.3937007874015748},{"duration":0.05729166666665719,"midi":33,"time":239.359375,"velocity":0.3937007874015748},{"duration":0.1744791666666572,"midi":60,"time":239.3828125,"velocity":0.3937007874015748},{"duration":0.17578125,"midi":74,"time":239.39322916666666,"velocity":0.3937007874015748},{"duration":0.17578125,"midi":33,"time":239.41666666666666,"velocity":0.3937007874015748},{"duration":0.05989583333334281,"midi":76,"time":239.48697916666666,"velocity":0.3937007874015748},{"duration":0.059895833333314386,"midi":58,"time":239.50911458333334,"velocity":0.3937007874015748},{"duration":0.05859375,"midi":59,"time":239.53385416666666,"velocity":0.3937007874015748},{"duration":0.05859375,"midi":68,"time":239.53385416666666,"velocity":0.3937007874015748},{"duration":0.05859375,"midi":51,"time":239.53385416666666,"velocity":0.3937007874015748},{"duration":0.05859375,"midi":95,"time":239.55598958333334,"velocity":0.3937007874015748},{"duration":0.05859375,"midi":34,"time":239.55598958333334,"velocity":0.3937007874015748},{"duration":0.17578125,"midi":67,"time":239.55598958333334,"velocity":0.3937007874015748},{"duration":0.05859375,"midi":61,"time":239.56901041666666,"velocity":0.3937007874015748},{"duration":0.17708333333331439,"midi":91,"time":239.57942708333334,"velocity":0.3937007874015748},{"duration":0.17708333333331439,"midi":72,"time":239.57942708333334,"velocity":0.3937007874015748},{"duration":0.17708333333331439,"midi":64,"time":239.57942708333334,"velocity":0.3937007874015748},{"duration":0.05859375,"midi":88,"time":239.57942708333334,"velocity":0.3937007874015748},{"duration":0.05859375,"midi":69,"time":239.59114583333334,"velocity":0.3937007874015748},{"duration":0.05859375,"midi":60,"time":239.61458333333334,"velocity":0.3937007874015748},{"duration":0.67578125,"midi":76,"time":239.63802083333334,"velocity":0.3937007874015748},{"duration":0.3046875,"midi":64,"time":239.70703125,"velocity":0.3937007874015748},{"duration":0.3033854166666572,"midi":72,"time":239.72005208333334,"velocity":0.3937007874015748},{"duration":0.17708333333331439,"midi":81,"time":239.73177083333334,"velocity":0.3937007874015748},{"duration":0.059895833333314386,"midi":51,"time":239.73177083333334,"velocity":0.3937007874015748},{"duration":0.059895833333314386,"midi":83,"time":239.73177083333334,"velocity":0.3937007874015748},{"duration":0.059895833333314386,"midi":68,"time":239.74348958333334,"velocity":0.3937007874015748},{"duration":0.3020833333333428,"midi":57,"time":239.75651041666666,"velocity":0.3937007874015748},{"duration":0.05989583333334281,"midi":50,"time":239.75651041666666,"velocity":0.3937007874015748},{"duration":0.1770833333333428,"midi":74,"time":239.79166666666666,"velocity":0.3937007874015748},{"duration":0.1770833333333428,"midi":45,"time":239.79166666666666,"velocity":0.3937007874015748},{"duration":0.17708333333331439,"midi":67,"time":239.82552083333334,"velocity":0.3937007874015748},{"duration":0.17578125,"midi":81,"time":239.89583333333334,"velocity":0.3937007874015748},{"duration":0.05989583333334281,"midi":53,"time":239.92057291666666,"velocity":0.3937007874015748},{"duration":0.41796875,"midi":79,"time":239.93229166666666,"velocity":0.3937007874015748},{"duration":0.05989583333334281,"midi":67,"time":239.95572916666666,"velocity":0.3937007874015748},{"duration":0.6705729166666856,"midi":72,"time":239.95572916666666,"velocity":0.3937007874015748},{"duration":0.05989583333334281,"midi":47,"time":239.99088541666666,"velocity":0.3937007874015748},{"duration":0.05989583333334281,"midi":64,"time":239.99088541666666,"velocity":0.3937007874015748},{"duration":0.05859375,"midi":56,"time":240.00260416666666,"velocity":0.3937007874015748},{"duration":0.171875,"midi":67,"time":240.01432291666666,"velocity":0.3937007874015748},{"duration":0.05859375,"midi":45,"time":240.02604166666666,"velocity":0.3937007874015748},{"duration":0.05859375,"midi":58,"time":240.02604166666666,"velocity":0.3937007874015748},{"duration":0.057291666666685614,"midi":64,"time":240.03776041666666,"velocity":0.3937007874015748},{"duration":0.05729166666665719,"midi":46,"time":240.05989583333334,"velocity":0.3937007874015748},{"duration":0.05859375,"midi":45,"time":240.09375,"velocity":0.3937007874015748},{"duration":0.2994791666666572,"midi":83,"time":240.10546875,"velocity":0.3937007874015748},{"duration":0.05859375,"midi":64,"time":240.1171875,"velocity":0.3937007874015748},{"duration":0.17447916666668561,"midi":93,"time":240.12760416666666,"velocity":0.3937007874015748},{"duration":0.1731770833333428,"midi":57,"time":240.140625,"velocity":0.3937007874015748},{"duration":0.05859375,"midi":81,"time":240.140625,"velocity":0.3937007874015748},{"duration":0.05729166666665719,"midi":51,"time":240.15234375,"velocity":0.3937007874015748},{"duration":0.05729166666665719,"midi":67,"time":240.15234375,"velocity":0.3937007874015748},{"duration":0.05859375,"midi":64,"time":240.16276041666666,"velocity":0.3937007874015748},{"duration":0.05859375,"midi":49,"time":240.16276041666666,"velocity":0.3937007874015748},{"duration":0.05859375,"midi":86,"time":240.18619791666666,"velocity":0.3937007874015748},{"duration":0.05859375,"midi":48,"time":240.18619791666666,"velocity":0.3937007874015748},{"duration":0.2981770833333428,"midi":64,"time":240.19791666666666,"velocity":0.3937007874015748},{"duration":0.05859375,"midi":46,"time":240.20833333333334,"velocity":0.3937007874015748},{"duration":0.17578125,"midi":60,"time":240.23177083333334,"velocity":0.3937007874015748},{"duration":0.05859375,"midi":67,"time":240.24348958333334,"velocity":0.3937007874015748},{"duration":0.05989583333334281,"midi":45,"time":240.27734375,"velocity":0.3937007874015748},{"duration":0.06510416666665719,"midi":79,"time":240.29036458333334,"velocity":0.3937007874015748},{"duration":0.2903645833333144,"midi":69,"time":240.30208333333334,"velocity":0.3937007874015748},{"duration":0.1744791666666572,"midi":50,"time":240.32421875,"velocity":0.3937007874015748},{"duration":0.1744791666666572,"midi":67,"time":240.33723958333334,"velocity":0.3937007874015748},{"duration":0.1744791666666572,"midi":57,"time":240.33723958333334,"velocity":0.3937007874015748},{"duration":0.2981770833333144,"midi":83,"time":240.37239583333334,"velocity":0.3937007874015748},{"duration":0.05859375,"midi":74,"time":240.37239583333334,"velocity":0.3937007874015748},{"duration":0.05859375,"midi":66,"time":240.40755208333334,"velocity":0.3937007874015748},{"duration":0.1731770833333428,"midi":86,"time":240.4296875,"velocity":0.3937007874015748},{"duration":0.05859375,"midi":57,"time":240.46484375,"velocity":0.3937007874015748},{"duration":0.17447916666668561,"midi":64,"time":240.47526041666666,"velocity":0.3937007874015748},{"duration":0.17447916666668561,"midi":67,"time":240.49869791666666,"velocity":0.3937007874015748},{"duration":0.1731770833333428,"midi":84,"time":240.5234375,"velocity":0.3937007874015748},{"duration":0.05859375,"midi":60,"time":240.5234375,"velocity":0.3937007874015748},{"duration":0.1731770833333428,"midi":74,"time":240.5234375,"velocity":0.3937007874015748},{"duration":0.05859375,"midi":81,"time":240.5234375,"velocity":0.3937007874015748},{"duration":0.17447916666668561,"midi":88,"time":240.53385416666666,"velocity":0.3937007874015748},{"duration":0.05859375,"midi":41,"time":240.53385416666666,"velocity":0.3937007874015748},{"duration":0.06640625,"midi":69,"time":240.53385416666666,"velocity":0.3937007874015748},{"duration":0.057291666666685614,"midi":89,"time":240.54557291666666,"velocity":0.3937007874015748},{"duration":0.057291666666685614,"midi":37,"time":240.54557291666666,"velocity":0.3937007874015748},{"duration":0.42578125,"midi":50,"time":240.56901041666666,"velocity":0.3937007874015748},{"duration":0.2994791666666856,"midi":77,"time":240.56901041666666,"velocity":0.3937007874015748},{"duration":0.2994791666666856,"midi":57,"time":240.56901041666666,"velocity":0.3937007874015748},{"duration":0.05859375,"midi":66,"time":240.59114583333334,"velocity":0.3937007874015748},{"duration":0.17578125,"midi":81,"time":240.61328125,"velocity":0.3937007874015748},{"duration":0.17578125,"midi":83,"time":240.625,"velocity":0.3937007874015748},{"duration":0.05989583333334281,"midi":64,"time":240.625,"velocity":0.3937007874015748},{"duration":0.17578125,"midi":88,"time":240.63802083333334,"velocity":0.3937007874015748},{"duration":0.05989583333334281,"midi":74,"time":240.66015625,"velocity":0.3937007874015748},{"duration":0.1744791666666572,"midi":64,"time":240.68489583333334,"velocity":0.3937007874015748},{"duration":0.17578125,"midi":84,"time":240.6953125,"velocity":0.3937007874015748},{"duration":0.17578125,"midi":60,"time":240.73046875,"velocity":0.3937007874015748},{"duration":0.17578125,"midi":81,"time":240.7421875,"velocity":0.3937007874015748},{"duration":0.05989583333334281,"midi":65,"time":240.7890625,"velocity":0.3937007874015748},{"duration":0.4270833333333428,"midi":65,"time":240.8359375,"velocity":0.3937007874015748},{"duration":0.05989583333334281,"midi":57,"time":240.8359375,"velocity":0.3937007874015748},{"duration":0.05989583333334281,"midi":74,"time":240.87109375,"velocity":0.3937007874015748},{"duration":0.17578125,"midi":88,"time":240.87109375,"velocity":0.3937007874015748},{"duration":0.17578125,"midi":84,"time":240.90625,"velocity":0.3937007874015748},{"duration":0.05989583333334281,"midi":86,"time":240.94010416666666,"velocity":0.3937007874015748},{"duration":0.17578125,"midi":74,"time":240.953125,"velocity":0.3937007874015748},{"duration":0.30078125,"midi":50,"time":240.953125,"velocity":0.3937007874015748},{"duration":0.3020833333333428,"midi":69,"time":241.01041666666666,"velocity":0.3937007874015748},{"duration":0.05989583333334281,"midi":57,"time":241.01041666666666,"velocity":0.3937007874015748},{"duration":0.41796875,"midi":81,"time":241.140625,"velocity":0.3937007874015748},{"duration":0.05859375,"midi":54,"time":241.20963541666666,"velocity":0.3937007874015748},{"duration":0.1731770833333428,"midi":50,"time":241.23307291666666,"velocity":0.3937007874015748},{"duration":0.05989583333334281,"midi":58,"time":241.25651041666666,"velocity":0.3937007874015748},{"duration":0.05989583333334281,"midi":71,"time":241.29166666666666,"velocity":0.3937007874015748},{"duration":0.171875,"midi":94,"time":241.30338541666666,"velocity":0.3937007874015748},{"duration":0.05859375,"midi":59,"time":241.30338541666666,"velocity":0.3937007874015748},{"duration":0.171875,"midi":95,"time":241.30338541666666,"velocity":0.3937007874015748},{"duration":0.2916666666666856,"midi":65,"time":241.30338541666666,"velocity":0.3937007874015748},{"duration":0.057291666666685614,"midi":76,"time":241.31510416666666,"velocity":0.3937007874015748},{"duration":0.057291666666685614,"midi":52,"time":241.31510416666666,"velocity":0.3937007874015748},{"duration":0.057291666666685614,"midi":88,"time":241.31510416666666,"velocity":0.3937007874015748},{"duration":0.17057291666668561,"midi":92,"time":241.31510416666666,"velocity":0.3937007874015748},{"duration":0.057291666666685614,"midi":79,"time":241.31510416666666,"velocity":0.3937007874015748},{"duration":0.05859375,"midi":91,"time":241.32552083333334,"velocity":0.3937007874015748},{"duration":0.1705729166666572,"midi":85,"time":241.32552083333334,"velocity":0.3937007874015748},{"duration":0.05859375,"midi":69,"time":241.32552083333334,"velocity":0.3937007874015748},{"duration":0.05859375,"midi":90,"time":241.32552083333334,"velocity":0.3937007874015748},{"duration":0.1705729166666572,"midi":89,"time":241.32552083333334,"velocity":0.3937007874015748},{"duration":0.05859375,"midi":86,"time":241.32552083333334,"velocity":0.3937007874015748},{"duration":0.05859375,"midi":84,"time":241.32552083333334,"velocity":0.3937007874015748},{"duration":0.057291666666685614,"midi":60,"time":241.33854166666666,"velocity":0.3937007874015748},{"duration":0.1692708333333428,"midi":72,"time":241.33854166666666,"velocity":0.3937007874015748},{"duration":0.057291666666685614,"midi":77,"time":241.33854166666666,"velocity":0.3937007874015748},{"duration":0.2890625,"midi":76,"time":241.35026041666666,"velocity":0.3937007874015748},{"duration":0.05729166666665719,"midi":70,"time":241.36067708333334,"velocity":0.3937007874015748},{"duration":0.05729166666665719,"midi":79,"time":241.37239583333334,"velocity":0.3937007874015748},{"duration":0.1705729166666572,"midi":69,"time":241.37239583333334,"velocity":0.3937007874015748},{"duration":0.05729166666665719,"midi":62,"time":241.39453125,"velocity":0.3937007874015748},{"duration":0.05729166666665719,"midi":91,"time":241.39453125,"velocity":0.3937007874015748},{"duration":0.05729166666665719,"midi":84,"time":241.41796875,"velocity":0.3937007874015748},{"duration":0.05729166666665719,"midi":57,"time":241.41796875,"velocity":0.3937007874015748},{"duration":0.057291666666685614,"midi":73,"time":241.42838541666666,"velocity":0.3937007874015748},{"duration":0.05729166666665719,"midi":62,"time":241.43880208333334,"velocity":0.3937007874015748},{"duration":0.16927083333331439,"midi":94,"time":241.43880208333334,"velocity":0.3937007874015748},{"duration":0.16796875,"midi":71,"time":241.45182291666666,"velocity":0.3937007874015748},{"duration":0.05729166666665719,"midi":89,"time":241.46223958333334,"velocity":0.3937007874015748},{"duration":0.16796875,"midi":90,"time":241.47395833333334,"velocity":0.3937007874015748},{"duration":0.05729166666665719,"midi":57,"time":241.48567708333334,"velocity":0.3937007874015748},{"duration":0.2916666666666572,"midi":74,"time":241.48567708333334,"velocity":0.3937007874015748},{"duration":0.05729166666665719,"midi":82,"time":241.49609375,"velocity":0.3937007874015748},{"duration":0.1692708333333428,"midi":62,"time":241.50651041666666,"velocity":0.3937007874015748},{"duration":0.1692708333333428,"midi":69,"time":241.50651041666666,"velocity":0.3937007874015748},{"duration":0.16796875,"midi":50,"time":241.52994791666666,"velocity":0.3937007874015748},{"duration":0.057291666666685614,"midi":57,"time":241.52994791666666,"velocity":0.3937007874015748},{"duration":0.05598958333334281,"midi":84,"time":241.54166666666666,"velocity":0.3937007874015748},{"duration":0.16927083333331439,"midi":91,"time":241.55208333333334,"velocity":0.3937007874015748},{"duration":0.055989583333314386,"midi":84,"time":241.55208333333334,"velocity":0.3937007874015748},{"duration":0.055989583333314386,"midi":77,"time":241.56380208333334,"velocity":0.3937007874015748},{"duration":0.055989583333314386,"midi":81,"time":241.56380208333334,"velocity":0.3937007874015748},{"duration":0.05598958333334281,"midi":88,"time":241.5859375,"velocity":0.3937007874015748},{"duration":0.057291666666685614,"midi":90,"time":241.60807291666666,"velocity":0.3937007874015748},{"duration":0.057291666666685614,"midi":82,"time":241.60807291666666,"velocity":0.3937007874015748},{"duration":0.05729166666665719,"midi":84,"time":241.61848958333334,"velocity":0.3937007874015748},{"duration":0.05729166666665719,"midi":64,"time":241.63020833333334,"velocity":0.3937007874015748},{"duration":0.171875,"midi":81,"time":241.64192708333334,"velocity":0.3937007874015748},{"duration":0.05729166666665719,"midi":57,"time":241.6640625,"velocity":0.3937007874015748},{"duration":0.171875,"midi":60,"time":241.68619791666666,"velocity":0.3937007874015748},{"duration":0.171875,"midi":50,"time":241.68619791666666,"velocity":0.3937007874015748},{"duration":0.921875,"midi":93,"time":241.69661458333334,"velocity":0.3937007874015748},{"duration":0.1380208333333428,"midi":90,"time":241.70963541666666,"velocity":0.3937007874015748},{"duration":0.5325520833333428,"midi":84,"time":241.70963541666666,"velocity":0.3937007874015748},{"duration":0.171875,"midi":92,"time":241.72135416666666,"velocity":0.3937007874015748},{"duration":0.05859375,"midi":89,"time":241.72135416666666,"velocity":0.3937007874015748},{"duration":0.05859375,"midi":64,"time":241.72135416666666,"velocity":0.3937007874015748},{"duration":0.171875,"midi":77,"time":241.72135416666666,"velocity":0.3937007874015748},{"duration":0.171875,"midi":81,"time":241.72135416666666,"velocity":0.3937007874015748},{"duration":0.171875,"midi":85,"time":241.72135416666666,"velocity":0.3937007874015748},{"duration":0.05859375,"midi":91,"time":241.74479166666666,"velocity":0.3937007874015748},{"duration":0.057291666666685614,"midi":74,"time":241.77994791666666,"velocity":0.3937007874015748},{"duration":0.05729166666665719,"midi":76,"time":241.79036458333334,"velocity":0.3937007874015748},{"duration":1.0481770833333144,"midi":91,"time":241.79036458333334,"velocity":0.3937007874015748},{"duration":0.19661458333331439,"midi":90,"time":241.79036458333334,"velocity":0.3937007874015748},{"duration":0.1744791666666572,"midi":65,"time":241.79036458333334,"velocity":0.3937007874015748},{"duration":0.055989583333314386,"midi":83,"time":241.80208333333334,"velocity":0.3937007874015748},{"duration":0.6731770833333144,"midi":72,"time":241.80208333333334,"velocity":0.3937007874015748},{"duration":0.296875,"midi":50,"time":241.8359375,"velocity":0.3937007874015748},{"duration":0.7981770833333428,"midi":81,"time":241.8359375,"velocity":0.3937007874015748},{"duration":0.17447916666668561,"midi":88,"time":241.84635416666666,"velocity":0.3937007874015748},{"duration":0.05989583333334281,"midi":74,"time":241.85807291666666,"velocity":0.3937007874015748},{"duration":0.2994791666666856,"midi":69,"time":241.89322916666666,"velocity":0.3937007874015748},{"duration":0.05989583333334281,"midi":58,"time":241.90494791666666,"velocity":0.3937007874015748},{"duration":0.059895833333314386,"midi":63,"time":241.92708333333334,"velocity":0.3937007874015748},{"duration":0.08072916666665719,"midi":90,"time":241.92708333333334,"velocity":0.3937007874015748},{"duration":0.05989583333334281,"midi":58,"time":241.94010416666666,"velocity":0.3937007874015748},{"duration":0.05989583333334281,"midi":36,"time":241.94010416666666,"velocity":0.3937007874015748},{"duration":0.05859375,"midi":66,"time":241.95182291666666,"velocity":0.3937007874015748},{"duration":0.171875,"midi":57,"time":241.96354166666666,"velocity":0.3937007874015748},{"duration":0.057291666666685614,"midi":63,"time":241.96354166666666,"velocity":0.3937007874015748},{"duration":0.1731770833333428,"midi":89,"time":241.97526041666666,"velocity":0.3937007874015748},{"duration":0.1731770833333428,"midi":74,"time":241.97526041666666,"velocity":0.3937007874015748},{"duration":0.1731770833333428,"midi":65,"time":242.01041666666666,"velocity":0.3937007874015748},{"duration":0.3020833333333428,"midi":89,"time":242.04296875,"velocity":0.3937007874015748},{"duration":0.05859375,"midi":90,"time":242.06640625,"velocity":0.3937007874015748},{"duration":0.05859375,"midi":57,"time":242.08984375,"velocity":0.3937007874015748},{"duration":0.1770833333333428,"midi":65,"time":242.11197916666666,"velocity":0.3937007874015748},{"duration":0.1770833333333428,"midi":86,"time":242.125,"velocity":0.3937007874015748},{"duration":0.05989583333334281,"midi":57,"time":242.13541666666666,"velocity":0.3937007874015748},{"duration":0.05989583333334281,"midi":51,"time":242.13541666666666,"velocity":0.3937007874015748},{"duration":0.05989583333334281,"midi":74,"time":242.13541666666666,"velocity":0.3937007874015748},{"duration":0.17838541666668561,"midi":90,"time":242.14713541666666,"velocity":0.3937007874015748},{"duration":0.07552083333334281,"midi":84,"time":242.18229166666666,"velocity":0.3937007874015748},{"duration":0.1770833333333428,"midi":57,"time":242.19401041666666,"velocity":0.3937007874015748},{"duration":0.1770833333333428,"midi":50,"time":242.19401041666666,"velocity":0.3937007874015748},{"duration":0.05989583333334281,"midi":62,"time":242.19401041666666,"velocity":0.3937007874015748},{"duration":0.1770833333333428,"midi":69,"time":242.21744791666666,"velocity":0.3937007874015748},{"duration":0.06119791666665719,"midi":53,"time":242.27734375,"velocity":0.3937007874015748},{"duration":0.2669270833333428,"midi":47,"time":242.30078125,"velocity":0.3937007874015748},{"duration":0.05859375,"midi":60,"time":242.3125,"velocity":0.3937007874015748},{"duration":0.05859375,"midi":64,"time":242.3125,"velocity":0.3937007874015748},{"duration":0.05729166666665719,"midi":90,"time":242.33723958333334,"velocity":0.3937007874015748},{"duration":0.05729166666665719,"midi":63,"time":242.33723958333334,"velocity":0.3937007874015748},{"duration":0.05859375,"midi":90,"time":242.38151041666666,"velocity":0.3937007874015748},{"duration":0.1731770833333428,"midi":89,"time":242.40494791666666,"velocity":0.3937007874015748},{"duration":0.05859375,"midi":52,"time":242.41666666666666,"velocity":0.3937007874015748},{"duration":0.1731770833333428,"midi":74,"time":242.41666666666666,"velocity":0.3937007874015748},{"duration":0.05859375,"midi":88,"time":242.44010416666666,"velocity":0.3937007874015748},{"duration":0.05859375,"midi":56,"time":242.44010416666666,"velocity":0.3937007874015748},{"duration":0.1744791666666572,"midi":52,"time":242.46223958333334,"velocity":0.3937007874015748},{"duration":0.05859375,"midi":65,"time":242.46223958333334,"velocity":0.3937007874015748},{"duration":0.1744791666666572,"midi":72,"time":242.48567708333334,"velocity":0.3937007874015748},{"duration":0.08854166666665719,"midi":47,"time":242.50911458333334,"velocity":0.3937007874015748},{"duration":0.05859375,"midi":60,"time":242.53125,"velocity":0.3937007874015748},{"duration":0.05859375,"midi":69,"time":242.5546875,"velocity":0.3937007874015748},{"duration":0.05989583333334281,"midi":60,"time":242.57682291666666,"velocity":0.3937007874015748},{"duration":0.05989583333334281,"midi":52,"time":242.58984375,"velocity":0.3937007874015748},{"duration":0.30078125,"midi":72,"time":242.60026041666666,"velocity":0.3937007874015748},{"duration":0.17578125,"midi":69,"time":242.625,"velocity":0.3937007874015748},{"duration":0.05859375,"midi":52,"time":242.63671875,"velocity":0.3937007874015748},{"duration":0.6653645833333428,"midi":93,"time":242.63671875,"velocity":0.3937007874015748},{"duration":0.17578125,"midi":65,"time":242.68229166666666,"velocity":0.3937007874015748},{"duration":0.05989583333334281,"midi":43,"time":242.69401041666666,"velocity":0.3937007874015748},{"duration":0.17447916666668561,"midi":74,"time":242.71744791666666,"velocity":0.3937007874015748},{"duration":0.17447916666668561,"midi":86,"time":242.72916666666666,"velocity":0.3937007874015748},{"duration":0.05989583333334281,"midi":48,"time":242.72916666666666,"velocity":0.3937007874015748},{"duration":0.05859375,"midi":89,"time":242.7421875,"velocity":0.3937007874015748},{"duration":0.171875,"midi":41,"time":242.75390625,"velocity":0.3937007874015748},{"duration":0.05859375,"midi":71,"time":242.77734375,"velocity":0.3937007874015748},{"duration":0.05859375,"midi":60,"time":242.77734375,"velocity":0.3937007874015748},{"duration":0.05859375,"midi":81,"time":242.7890625,"velocity":0.3937007874015748},{"duration":0.05859375,"midi":48,"time":242.7890625,"velocity":0.3937007874015748},{"duration":0.059895833333314386,"midi":91,"time":242.80989583333334,"velocity":0.3937007874015748},{"duration":0.05859375,"midi":68,"time":242.82291666666666,"velocity":0.3937007874015748},{"duration":0.05859375,"midi":63,"time":242.82291666666666,"velocity":0.3937007874015748},{"duration":0.057291666666685614,"midi":70,"time":242.84635416666666,"velocity":0.3937007874015748},{"duration":0.16666666666668561,"midi":84,"time":242.84635416666666,"velocity":0.3937007874015748},{"duration":0.057291666666685614,"midi":95,"time":242.84635416666666,"velocity":0.3937007874015748},{"duration":0.057291666666685614,"midi":90,"time":242.84635416666666,"velocity":0.3937007874015748},{"duration":0.057291666666685614,"midi":88,"time":242.85807291666666,"velocity":0.3937007874015748},{"duration":0.4140625,"midi":77,"time":242.85807291666666,"velocity":0.3937007874015748},{"duration":0.5338541666666856,"midi":88,"time":242.85807291666666,"velocity":0.3937007874015748},{"duration":0.057291666666685614,"midi":67,"time":242.85807291666666,"velocity":0.3937007874015748},{"duration":0.05598958333334281,"midi":71,"time":242.86979166666666,"velocity":0.3937007874015748},{"duration":0.05598958333334281,"midi":64,"time":242.86979166666666,"velocity":0.3937007874015748},{"duration":0.05598958333334281,"midi":82,"time":242.86979166666666,"velocity":0.3937007874015748},{"duration":0.16666666666668561,"midi":89,"time":242.86979166666666,"velocity":0.3937007874015748},{"duration":0.1666666666666572,"midi":92,"time":242.88020833333334,"velocity":0.3937007874015748},{"duration":0.055989583333314386,"midi":50,"time":242.88020833333334,"velocity":0.3937007874015748},{"duration":0.1666666666666572,"midi":91,"time":242.88020833333334,"velocity":0.3937007874015748},{"duration":0.055989583333314386,"midi":68,"time":242.89192708333334,"velocity":0.3937007874015748},{"duration":0.055989583333314386,"midi":79,"time":242.89192708333334,"velocity":0.3937007874015748},{"duration":0.055989583333314386,"midi":51,"time":242.89192708333334,"velocity":0.3937007874015748},{"duration":0.0546875,"midi":83,"time":242.90364583333334,"velocity":0.3937007874015748},{"duration":0.1666666666666572,"midi":70,"time":242.90364583333334,"velocity":0.3937007874015748},{"duration":0.16796875,"midi":60,"time":242.9140625,"velocity":0.3937007874015748},{"duration":0.05598958333334281,"midi":82,"time":242.92447916666666,"velocity":0.3937007874015748},{"duration":0.05598958333334281,"midi":41,"time":242.92447916666666,"velocity":0.3937007874015748},{"duration":0.05598958333334281,"midi":49,"time":242.92447916666666,"velocity":0.3937007874015748},{"duration":0.5338541666666856,"midi":88,"time":242.92447916666666,"velocity":0.3937007874015748},{"duration":0.05598958333334281,"midi":87,"time":242.93619791666666,"velocity":0.3937007874015748},{"duration":0.055989583333314386,"midi":80,"time":242.94661458333334,"velocity":0.3937007874015748},{"duration":0.055989583333314386,"midi":53,"time":242.94661458333334,"velocity":0.3937007874015748},{"duration":0.2408854166666572,"midi":84,"time":242.95703125,"velocity":0.3937007874015748},{"duration":0.1705729166666572,"midi":83,"time":242.95703125,"velocity":0.3937007874015748},{"duration":0.05598958333334281,"midi":90,"time":242.95703125,"velocity":0.3937007874015748},{"duration":0.171875,"midi":81,"time":242.96875,"velocity":0.3937007874015748},{"duration":0.05598958333334281,"midi":48,"time":242.98046875,"velocity":0.3937007874015748},{"duration":0.05598958333334281,"midi":40,"time":242.98046875,"velocity":0.3937007874015748},{"duration":0.171875,"midi":69,"time":242.99088541666666,"velocity":0.3937007874015748},{"duration":0.057291666666685614,"midi":53,"time":243.00260416666666,"velocity":0.3937007874015748},{"duration":0.3216145833333428,"midi":84,"time":243.0234375,"velocity":0.3937007874015748},{"duration":0.05859375,"midi":90,"time":243.0234375,"velocity":0.3937007874015748},{"duration":0.1731770833333428,"midi":91,"time":243.03515625,"velocity":0.3937007874015748},{"duration":0.05859375,"midi":92,"time":243.046875,"velocity":0.3937007874015748},{"duration":0.05859375,"midi":41,"time":243.05859375,"velocity":0.3937007874015748},{"duration":0.17447916666668561,"midi":76,"time":243.06901041666666,"velocity":0.3937007874015748},{"duration":0.17447916666668561,"midi":72,"time":243.06901041666666,"velocity":0.3937007874015748},{"duration":0.05859375,"midi":42,"time":243.08203125,"velocity":0.3937007874015748},{"duration":0.1744791666666572,"midi":82,"time":243.08203125,"velocity":0.3937007874015748},{"duration":0.1393229166666572,"midi":60,"time":243.08203125,"velocity":0.3937007874015748},{"duration":0.17447916666668561,"midi":53,"time":243.09244791666666,"velocity":0.3937007874015748},{"duration":0.05989583333334281,"midi":90,"time":243.09244791666666,"velocity":0.3937007874015748},{"duration":0.05989583333334281,"midi":92,"time":243.09244791666666,"velocity":0.3937007874015748},{"duration":0.05859375,"midi":41,"time":243.10416666666666,"velocity":0.3937007874015748},{"duration":0.05859375,"midi":69,"time":243.13932291666666,"velocity":0.3937007874015748},{"duration":0.09375,"midi":60,"time":243.16276041666666,"velocity":0.3937007874015748},{"duration":0.05859375,"midi":83,"time":243.16276041666666,"velocity":0.3937007874015748},{"duration":0.05859375,"midi":40,"time":243.16276041666666,"velocity":0.3937007874015748},{"duration":0.171875,"midi":70,"time":243.17317708333334,"velocity":0.3937007874015748},{"duration":0.1705729166666572,"midi":81,"time":243.18489583333334,"velocity":0.3937007874015748},{"duration":0.05859375,"midi":49,"time":243.19791666666666,"velocity":0.3937007874015748},{"duration":0.05859375,"midi":42,"time":243.20833333333334,"velocity":0.3937007874015748},{"duration":0.05859375,"midi":76,"time":243.24348958333334,"velocity":0.3937007874015748},{"duration":0.05859375,"midi":71,"time":243.24348958333334,"velocity":0.3937007874015748},{"duration":0.05729166666665719,"midi":87,"time":243.25520833333334,"velocity":0.3937007874015748},{"duration":0.1666666666666572,"midi":89,"time":243.25520833333334,"velocity":0.3937007874015748},{"duration":0.05729166666665719,"midi":69,"time":243.25520833333334,"velocity":0.3937007874015748},{"duration":0.1666666666666572,"midi":90,"time":243.25520833333334,"velocity":0.3937007874015748},{"duration":0.1666666666666572,"midi":92,"time":243.25520833333334,"velocity":0.3937007874015748},{"duration":0.05729166666665719,"midi":77,"time":243.26692708333334,"velocity":0.3937007874015748},{"duration":0.05729166666665719,"midi":56,"time":243.26692708333334,"velocity":0.3937007874015748},{"duration":0.05729166666665719,"midi":80,"time":243.27734375,"velocity":0.3937007874015748},{"duration":0.05729166666665719,"midi":85,"time":243.27734375,"velocity":0.3937007874015748},{"duration":0.15625,"midi":84,"time":243.2890625,"velocity":0.3937007874015748},{"duration":0.0546875,"midi":76,"time":243.30078125,"velocity":0.3937007874015748},{"duration":0.29296875,"midi":42,"time":243.3125,"velocity":0.3937007874015748},{"duration":0.29296875,"midi":81,"time":243.3125,"velocity":0.3937007874015748},{"duration":0.0546875,"midi":79,"time":243.3125,"velocity":0.3937007874015748},{"duration":1.3997395833333428,"midi":86,"time":243.3125,"velocity":0.3937007874015748},{"duration":0.0546875,"midi":83,"time":243.32291666666666,"velocity":0.3937007874015748},{"duration":0.5364583333333144,"midi":91,"time":243.33333333333334,"velocity":0.3937007874015748},{"duration":0.0546875,"midi":70,"time":243.33333333333334,"velocity":0.3937007874015748},{"duration":0.055989583333314386,"midi":57,"time":243.34505208333334,"velocity":0.3937007874015748},{"duration":0.055989583333314386,"midi":65,"time":243.34505208333334,"velocity":0.3937007874015748},{"duration":0.055989583333314386,"midi":75,"time":243.34505208333334,"velocity":0.3937007874015748},{"duration":0.2942708333333144,"midi":89,"time":243.34505208333334,"velocity":0.3937007874015748},{"duration":0.05598958333334281,"midi":71,"time":243.35546875,"velocity":0.3937007874015748},{"duration":0.05598958333334281,"midi":83,"time":243.35546875,"velocity":0.3937007874015748},{"duration":0.5390625,"midi":79,"time":243.36588541666666,"velocity":0.3937007874015748},{"duration":0.057291666666685614,"midi":76,"time":243.37760416666666,"velocity":0.3937007874015748},{"duration":0.057291666666685614,"midi":49,"time":243.37760416666666,"velocity":0.3937007874015748},{"duration":0.05729166666665719,"midi":90,"time":243.38802083333334,"velocity":0.3937007874015748},{"duration":0.10546875,"midi":84,"time":243.38802083333334,"velocity":0.3937007874015748},{"duration":0.05729166666665719,"midi":57,"time":243.38802083333334,"velocity":0.3937007874015748},{"duration":0.055989583333314386,"midi":65,"time":243.39973958333334,"velocity":0.3937007874015748},{"duration":0.055989583333314386,"midi":77,"time":243.39973958333334,"velocity":0.3937007874015748},{"duration":0.055989583333314386,"midi":82,"time":243.39973958333334,"velocity":0.3937007874015748},{"duration":0.055989583333314386,"midi":71,"time":243.39973958333334,"velocity":0.3937007874015748},{"duration":0.05729166666665719,"midi":58,"time":243.41015625,"velocity":0.3937007874015748},{"duration":0.05729166666665719,"midi":88,"time":243.41015625,"velocity":0.3937007874015748},{"duration":0.1744791666666572,"midi":88,"time":243.43359375,"velocity":0.3937007874015748},{"duration":0.296875,"midi":84,"time":243.44401041666666,"velocity":0.3937007874015748},{"duration":0.296875,"midi":77,"time":243.44401041666666,"velocity":0.3937007874015748},{"duration":0.05989583333334281,"midi":64,"time":243.45572916666666,"velocity":0.3937007874015748},{"duration":0.17578125,"midi":72,"time":243.45572916666666,"velocity":0.3937007874015748},{"duration":0.1744791666666572,"midi":88,"time":243.47786458333334,"velocity":0.3937007874015748},{"duration":0.05989583333334281,"midi":60,"time":243.50260416666666,"velocity":0.3937007874015748},{"duration":0.05989583333334281,"midi":64,"time":243.50260416666666,"velocity":0.3937007874015748},{"duration":0.059895833333314386,"midi":49,"time":243.52473958333334,"velocity":0.3937007874015748},{"duration":0.05989583333334281,"midi":76,"time":243.53776041666666,"velocity":0.3937007874015748},{"duration":0.05859375,"midi":70,"time":243.54947916666666,"velocity":0.3937007874015748},{"duration":0.05859375,"midi":50,"time":243.54947916666666,"velocity":0.3937007874015748},{"duration":0.05859375,"midi":42,"time":243.57291666666666,"velocity":0.3937007874015748},{"duration":0.057291666666685614,"midi":71,"time":243.58463541666666,"velocity":0.3937007874015748},{"duration":0.057291666666685614,"midi":64,"time":243.58463541666666,"velocity":0.3937007874015748},{"duration":0.05859375,"midi":72,"time":243.61848958333334,"velocity":0.3937007874015748},{"duration":0.05859375,"midi":42,"time":243.61848958333334,"velocity":0.3937007874015748},{"duration":0.1497395833333428,"midi":71,"time":243.640625,"velocity":0.3937007874015748},{"duration":0.1705729166666572,"midi":89,"time":243.640625,"velocity":0.3937007874015748},{"duration":0.05989583333334281,"midi":42,"time":243.65234375,"velocity":0.3937007874015748},{"duration":0.1705729166666572,"midi":90,"time":243.65234375,"velocity":0.3937007874015748},{"duration":0.05859375,"midi":38,"time":243.6640625,"velocity":0.3937007874015748},{"duration":0.05859375,"midi":78,"time":243.6640625,"velocity":0.3937007874015748},{"duration":0.05859375,"midi":59,"time":243.6640625,"velocity":0.3937007874015748},{"duration":0.1692708333333428,"midi":81,"time":243.6640625,"velocity":0.3937007874015748},{"duration":0.05859375,"midi":64,"time":243.6640625,"velocity":0.3937007874015748},{"duration":0.05729166666665719,"midi":82,"time":243.67578125,"velocity":0.3937007874015748},{"duration":0.1692708333333428,"midi":74,"time":243.6875,"velocity":0.3937007874015748},{"duration":0.05729166666665719,"midi":77,"time":243.69921875,"velocity":0.3937007874015748},{"duration":0.78515625,"midi":84,"time":243.69921875,"velocity":0.3937007874015748},{"duration":0.1458333333333428,"midi":65,"time":243.69921875,"velocity":0.3937007874015748},{"duration":0.16796875,"midi":58,"time":243.69921875,"velocity":0.3937007874015748},{"duration":0.6614583333333428,"midi":50,"time":243.69921875,"velocity":0.3937007874015748},{"duration":0.08072916666665719,"midi":88,"time":243.69921875,"velocity":0.3937007874015748},{"duration":0.2604166666666572,"midi":43,"time":243.7109375,"velocity":0.3937007874015748},{"duration":0.14453125,"midi":88,"time":243.72265625,"velocity":0.3937007874015748},{"duration":0.057291666666685614,"midi":63,"time":243.73307291666666,"velocity":0.3937007874015748},{"duration":0.057291666666685614,"midi":85,"time":243.73307291666666,"velocity":0.3937007874015748},{"duration":0.6627604166666856,"midi":89,"time":243.73307291666666,"velocity":0.3937007874015748},{"duration":0.057291666666685614,"midi":30,"time":243.73307291666666,"velocity":0.3937007874015748},{"duration":0.078125,"midi":71,"time":243.73307291666666,"velocity":0.3937007874015748},{"duration":0.05729166666665719,"midi":76,"time":243.74348958333334,"velocity":0.3937007874015748},{"duration":0.05598958333334281,"midi":70,"time":243.75651041666666,"velocity":0.3937007874015748},{"duration":0.055989583333314386,"midi":57,"time":243.76692708333334,"velocity":0.3937007874015748},{"duration":0.078125,"midi":65,"time":243.7890625,"velocity":0.3937007874015748},{"duration":0.41796875,"midi":82,"time":243.7890625,"velocity":0.3937007874015748},{"duration":0.05598958333334281,"midi":71,"time":243.80078125,"velocity":0.3937007874015748},{"duration":0.17057291666668561,"midi":70,"time":243.81119791666666,"velocity":0.3937007874015748},{"duration":0.16015625,"midi":93,"time":243.81119791666666,"velocity":0.3937007874015748},{"duration":0.05729166666665719,"midi":58,"time":243.82161458333334,"velocity":0.3937007874015748},{"duration":0.6653645833333144,"midi":77,"time":243.84505208333334,"velocity":0.3937007874015748},{"duration":0.05859375,"midi":90,"time":243.85546875,"velocity":0.3937007874015748},{"duration":0.1731770833333428,"midi":88,"time":243.8671875,"velocity":0.3937007874015748},{"duration":0.05859375,"midi":60,"time":243.87890625,"velocity":0.3937007874015748},{"duration":0.171875,"midi":71,"time":243.87890625,"velocity":0.3937007874015748},{"duration":0.05859375,"midi":61,"time":243.90104166666666,"velocity":0.3937007874015748},{"duration":0.05859375,"midi":80,"time":243.90104166666666,"velocity":0.3937007874015748},{"duration":0.1705729166666572,"midi":79,"time":243.9140625,"velocity":0.3937007874015748},{"duration":0.08723958333334281,"midi":43,"time":243.9140625,"velocity":0.3937007874015748},{"duration":0.06770833333334281,"midi":93,"time":243.9140625,"velocity":0.3937007874015748},{"duration":0.171875,"midi":70,"time":243.93619791666666,"velocity":0.3937007874015748},{"duration":0.171875,"midi":88,"time":243.94791666666666,"velocity":0.3937007874015748},{"duration":0.057291666666685614,"midi":67,"time":243.95963541666666,"velocity":0.3937007874015748},{"duration":0.4192708333333428,"midi":74,"time":243.95963541666666,"velocity":0.3937007874015748},{"duration":0.171875,"midi":43,"time":243.97005208333334,"velocity":0.3937007874015748},{"duration":0.54296875,"midi":93,"time":243.97005208333334,"velocity":0.3937007874015748},{"duration":0.296875,"midi":65,"time":243.98177083333334,"velocity":0.3937007874015748},{"duration":0.05859375,"midi":59,"time":243.98177083333334,"velocity":0.3937007874015748},{"duration":0.05859375,"midi":31,"time":244.00390625,"velocity":0.3937007874015748},{"duration":0.05729166666665719,"midi":60,"time":244.015625,"velocity":0.3937007874015748},{"duration":0.66796875,"midi":79,"time":244.02734375,"velocity":0.3937007874015748},{"duration":0.05859375,"midi":71,"time":244.04947916666666,"velocity":0.3937007874015748},{"duration":0.05859375,"midi":56,"time":244.07291666666666,"velocity":0.3937007874015748},{"duration":0.17578125,"midi":70,"time":244.08333333333334,"velocity":0.3937007874015748},{"duration":0.05859375,"midi":81,"time":244.09635416666666,"velocity":0.3937007874015748},{"duration":0.17317708333331439,"midi":43,"time":244.13020833333334,"velocity":0.3937007874015748},{"duration":0.06119791666665719,"midi":83,"time":244.1640625,"velocity":0.3937007874015748},{"duration":0.059895833333314386,"midi":69,"time":244.17708333333334,"velocity":0.3937007874015748},{"duration":0.059895833333314386,"midi":31,"time":244.18880208333334,"velocity":0.3937007874015748},{"duration":0.05859375,"midi":82,"time":244.20052083333334,"velocity":0.3937007874015748},{"duration":0.171875,"midi":70,"time":244.20052083333334,"velocity":0.3937007874015748},{"duration":0.171875,"midi":58,"time":244.21354166666666,"velocity":0.3937007874015748},{"duration":0.057291666666685614,"midi":62,"time":244.21354166666666,"velocity":0.3937007874015748},{"duration":0.05729166666665719,"midi":87,"time":244.23567708333334,"velocity":0.3937007874015748},{"duration":0.05729166666665719,"midi":83,"time":244.25911458333334,"velocity":0.3937007874015748},{"duration":0.05729166666665719,"midi":81,"time":244.26953125,"velocity":0.3937007874015748},{"duration":0.05729166666665719,"midi":31,"time":244.26953125,"velocity":0.3937007874015748},{"duration":0.2955729166666856,"midi":88,"time":244.27994791666666,"velocity":0.3937007874015748},{"duration":0.057291666666685614,"midi":90,"time":244.27994791666666,"velocity":0.3937007874015748},{"duration":0.05729166666665719,"midi":62,"time":244.29296875,"velocity":0.3937007874015748},{"duration":0.1731770833333428,"midi":65,"time":244.29296875,"velocity":0.3937007874015748},{"duration":0.1731770833333428,"midi":82,"time":244.30338541666666,"velocity":0.3937007874015748},{"duration":0.2760416666666856,"midi":89,"time":244.30338541666666,"velocity":0.3937007874015748},{"duration":0.171875,"midi":58,"time":244.31510416666666,"velocity":0.3937007874015748},{"duration":0.15104166666668561,"midi":70,"time":244.31510416666666,"velocity":0.3937007874015748},{"duration":0.171875,"midi":43,"time":244.31510416666666,"velocity":0.3937007874015748},{"duration":0.1731770833333428,"midi":31,"time":244.32682291666666,"velocity":0.3937007874015748},{"duration":0.05859375,"midi":81,"time":244.32682291666666,"velocity":0.3937007874015748},{"duration":0.17317708333331439,"midi":90,"time":244.33723958333334,"velocity":0.3937007874015748},{"duration":0.05859375,"midi":69,"time":244.38411458333334,"velocity":0.3937007874015748},{"duration":0.07942708333331439,"midi":70,"time":244.40755208333334,"velocity":0.3937007874015748},{"duration":0.05729166666665719,"midi":59,"time":244.41927083333334,"velocity":0.3937007874015748},{"duration":0.05729166666665719,"midi":60,"time":244.44270833333334,"velocity":0.3937007874015748},{"duration":0.05729166666665719,"midi":70,"time":244.44270833333334,"velocity":0.3937007874015748},{"duration":0.05729166666665719,"midi":51,"time":244.44270833333334,"velocity":0.3937007874015748},{"duration":0.05729166666665719,"midi":74,"time":244.44270833333334,"velocity":0.3937007874015748},{"duration":0.05729166666665719,"midi":83,"time":244.44270833333334,"velocity":0.3937007874015748},{"duration":0.171875,"midi":84,"time":244.44270833333334,"velocity":0.3937007874015748},{"duration":0.1731770833333428,"midi":65,"time":244.453125,"velocity":0.3937007874015748},{"duration":0.05729166666665719,"midi":50,"time":244.453125,"velocity":0.3937007874015748},{"duration":0.1744791666666572,"midi":77,"time":244.4765625,"velocity":0.3937007874015748},{"duration":0.05859375,"midi":31,"time":244.4765625,"velocity":0.3937007874015748},{"duration":0.05859375,"midi":81,"time":244.49869791666666,"velocity":0.3937007874015748},{"duration":0.1744791666666572,"midi":70,"time":244.50911458333334,"velocity":0.3937007874015748},{"duration":0.05859375,"midi":90,"time":244.50911458333334,"velocity":0.3937007874015748},{"duration":0.07682291666668561,"midi":89,"time":244.52213541666666,"velocity":0.3937007874015748},{"duration":0.3854166666666572,"midi":93,"time":244.56770833333334,"velocity":0.3937007874015748},{"duration":0.2903645833333428,"midi":90,"time":244.578125,"velocity":0.3937007874015748},{"duration":0.1731770833333428,"midi":88,"time":244.58984375,"velocity":0.3937007874015748},{"duration":0.06119791666665719,"midi":69,"time":244.58984375,"velocity":0.3937007874015748},{"duration":0.05989583333334281,"midi":67,"time":244.61328125,"velocity":0.3937007874015748},{"duration":0.1692708333333428,"midi":55,"time":244.625,"velocity":0.3937007874015748},{"duration":0.1692708333333428,"midi":85,"time":244.625,"velocity":0.3937007874015748},{"duration":0.1692708333333428,"midi":82,"time":244.625,"velocity":0.3937007874015748},{"duration":0.05859375,"midi":43,"time":244.625,"velocity":0.3937007874015748},{"duration":0.05859375,"midi":78,"time":244.625,"velocity":0.3937007874015748},{"duration":0.16796875,"midi":89,"time":244.63802083333334,"velocity":0.3937007874015748},{"duration":0.16796875,"midi":70,"time":244.63802083333334,"velocity":0.3937007874015748},{"duration":0.1666666666666572,"midi":86,"time":244.64973958333334,"velocity":0.3937007874015748},{"duration":0.1666666666666572,"midi":79,"time":244.64973958333334,"velocity":0.3937007874015748},{"duration":0.05729166666665719,"midi":87,"time":244.64973958333334,"velocity":0.3937007874015748},{"duration":0.05729166666665719,"midi":91,"time":244.64973958333334,"velocity":0.3937007874015748},{"duration":0.05729166666665719,"midi":43,"time":244.66015625,"velocity":0.3937007874015748},{"duration":0.05729166666665719,"midi":65,"time":244.66015625,"velocity":0.3937007874015748},{"duration":0.05729166666665719,"midi":62,"time":244.66015625,"velocity":0.3937007874015748},{"duration":0.15364583333331439,"midi":84,"time":244.67317708333334,"velocity":0.3937007874015748},{"duration":0.05729166666665719,"midi":64,"time":244.68359375,"velocity":0.3937007874015748},{"duration":0.057291666666685614,"midi":77,"time":244.69401041666666,"velocity":0.3937007874015748},{"duration":0.05598958333334281,"midi":65,"time":244.70703125,"velocity":0.3937007874015748},{"duration":0.05598958333334281,"midi":71,"time":244.71744791666666,"velocity":0.3937007874015748},{"duration":0.055989583333314386,"midi":74,"time":244.72786458333334,"velocity":0.3937007874015748},{"duration":0.0546875,"midi":78,"time":244.74088541666666,"velocity":0.3937007874015748},{"duration":0.0546875,"midi":85,"time":244.75130208333334,"velocity":0.3937007874015748},{"duration":0.0546875,"midi":81,"time":244.76171875,"velocity":0.3937007874015748},{"duration":0.0546875,"midi":71,"time":244.76171875,"velocity":0.3937007874015748},{"duration":0.0546875,"midi":66,"time":244.76171875,"velocity":0.3937007874015748},{"duration":0.16796875,"midi":89,"time":244.76171875,"velocity":0.3937007874015748},{"duration":0.0546875,"midi":82,"time":244.77213541666666,"velocity":0.3937007874015748},{"duration":0.06640625,"midi":84,"time":244.77213541666666,"velocity":0.3937007874015748},{"duration":0.0546875,"midi":77,"time":244.77213541666666,"velocity":0.3937007874015748},{"duration":0.0546875,"midi":70,"time":244.78385416666666,"velocity":0.3937007874015748},{"duration":0.0546875,"midi":64,"time":244.79427083333334,"velocity":0.3937007874015748},{"duration":0.0546875,"midi":83,"time":244.79427083333334,"velocity":0.3937007874015748},{"duration":0.1705729166666572,"midi":79,"time":244.8046875,"velocity":0.3937007874015748},{"duration":0.1705729166666572,"midi":57,"time":244.81640625,"velocity":0.3937007874015748},{"duration":0.1705729166666572,"midi":65,"time":244.81640625,"velocity":0.3937007874015748},{"duration":0.057291666666685614,"midi":81,"time":244.82682291666666,"velocity":0.3937007874015748},{"duration":0.17057291666668561,"midi":84,"time":244.82682291666666,"velocity":0.3937007874015748},{"duration":0.05729166666665719,"midi":82,"time":244.83723958333334,"velocity":0.3937007874015748},{"duration":0.171875,"midi":90,"time":244.84895833333334,"velocity":0.3937007874015748},{"duration":0.7786458333333428,"midi":91,"time":244.859375,"velocity":0.3937007874015748},{"duration":0.171875,"midi":70,"time":244.859375,"velocity":0.3937007874015748},{"duration":0.4114583333333428,"midi":86,"time":244.859375,"velocity":0.3937007874015748},{"duration":0.05859375,"midi":85,"time":244.87109375,"velocity":0.3937007874015748},{"duration":0.0859375,"midi":93,"time":244.89453125,"velocity":0.3937007874015748},{"duration":0.1705729166666572,"midi":83,"time":244.89453125,"velocity":0.3937007874015748},{"duration":0.05859375,"midi":88,"time":244.89453125,"velocity":0.3937007874015748},{"duration":0.17057291666668561,"midi":84,"time":244.90494791666666,"velocity":0.3937007874015748},{"duration":0.05859375,"midi":87,"time":244.91666666666666,"velocity":0.3937007874015748},{"duration":0.05859375,"midi":80,"time":244.91666666666666,"velocity":0.3937007874015748},{"duration":0.05729166666665719,"midi":81,"time":244.9296875,"velocity":0.3937007874015748},{"duration":0.057291666666685614,"midi":71,"time":244.94010416666666,"velocity":0.3937007874015748},{"duration":0.057291666666685614,"midi":66,"time":244.94010416666666,"velocity":0.3937007874015748},{"duration":0.057291666666685614,"midi":67,"time":244.96354166666666,"velocity":0.3937007874015748},{"duration":0.057291666666685614,"midi":62,"time":244.96354166666666,"velocity":0.3937007874015748},{"duration":0.17057291666668561,"midi":70,"time":244.96354166666666,"velocity":0.3937007874015748},{"duration":0.05598958333334281,"midi":89,"time":244.97526041666666,"velocity":0.3937007874015748},{"duration":0.1692708333333428,"midi":92,"time":244.97526041666666,"velocity":0.3937007874015748},{"duration":0.2877604166666572,"midi":87,"time":244.98567708333334,"velocity":0.3937007874015748},{"duration":0.16927083333331439,"midi":50,"time":244.98567708333334,"velocity":0.3937007874015748},{"duration":0.055989583333314386,"midi":68,"time":244.98567708333334,"velocity":0.3937007874015748},{"duration":0.2890625,"midi":80,"time":244.99609375,"velocity":0.3937007874015748},{"duration":0.1705729166666572,"midi":65,"time":244.99609375,"velocity":0.3937007874015748},{"duration":0.06901041666665719,"midi":90,"time":244.99609375,"velocity":0.3937007874015748},{"duration":0.1705729166666572,"midi":85,"time":245.0078125,"velocity":0.3937007874015748},{"duration":0.05729166666665719,"midi":41,"time":245.0078125,"velocity":0.3937007874015748},{"duration":0.1263020833333428,"midi":90,"time":245.0078125,"velocity":0.3937007874015748},{"duration":0.1692708333333428,"midi":43,"time":245.04166666666666,"velocity":0.3937007874015748},{"duration":0.05859375,"midi":69,"time":245.05208333333334,"velocity":0.3937007874015748},{"duration":0.2096354166666572,"midi":90,"time":245.07552083333334,"velocity":0.3937007874015748},{"duration":0.16927083333331439,"midi":84,"time":245.07552083333334,"velocity":0.3937007874015748},{"duration":0.05859375,"midi":70,"time":245.07552083333334,"velocity":0.3937007874015748},{"duration":0.05729166666665719,"midi":66,"time":245.08723958333334,"velocity":0.3937007874015748},{"duration":0.14583333333331439,"midi":82,"time":245.08723958333334,"velocity":0.3937007874015748},{"duration":0.1666666666666572,"midi":84,"time":245.109375,"velocity":0.3937007874015748},{"duration":0.05729166666665719,"midi":93,"time":245.109375,"velocity":0.3937007874015748},{"duration":0.05729166666665719,"midi":89,"time":245.12109375,"velocity":0.3937007874015748},{"duration":0.05598958333334281,"midi":65,"time":245.1328125,"velocity":0.3937007874015748},{"duration":0.1666666666666572,"midi":90,"time":245.1328125,"velocity":0.3937007874015748},{"duration":0.05598958333334281,"midi":71,"time":245.14322916666666,"velocity":0.3937007874015748},{"duration":0.05598958333334281,"midi":51,"time":245.14322916666666,"velocity":0.3937007874015748},{"duration":0.05598958333334281,"midi":68,"time":245.14322916666666,"velocity":0.3937007874015748},{"duration":0.05598958333334281,"midi":83,"time":245.15494791666666,"velocity":0.3937007874015748},{"duration":0.05598958333334281,"midi":89,"time":245.15494791666666,"velocity":0.3937007874015748},{"duration":0.16666666666668561,"midi":70,"time":245.16666666666666,"velocity":0.3937007874015748},{"duration":0.078125,"midi":82,"time":245.17708333333334,"velocity":0.3937007874015748},{"duration":0.055989583333314386,"midi":83,"time":245.18880208333334,"velocity":0.3937007874015748},{"duration":0.1692708333333428,"midi":93,"time":245.19921875,"velocity":0.3937007874015748},{"duration":0.1692708333333428,"midi":74,"time":245.19921875,"velocity":0.3937007874015748},{"duration":0.05598958333334281,"midi":65,"time":245.19921875,"velocity":0.3937007874015748},{"duration":0.05598958333334281,"midi":50,"time":245.19921875,"velocity":0.3937007874015748},{"duration":0.5364583333333428,"midi":86,"time":245.20963541666666,"velocity":0.3937007874015748},{"duration":0.05598958333334281,"midi":54,"time":245.20963541666666,"velocity":0.3937007874015748},{"duration":0.05598958333334281,"midi":59,"time":245.20963541666666,"velocity":0.3937007874015748},{"duration":0.2604166666666856,"midi":89,"time":245.20963541666666,"velocity":0.3937007874015748},{"duration":0.05598958333334281,"midi":87,"time":245.23307291666666,"velocity":0.3937007874015748},{"duration":0.17057291666668561,"midi":50,"time":245.23307291666666,"velocity":0.3937007874015748},{"duration":0.5377604166666572,"midi":43,"time":245.24348958333334,"velocity":0.3937007874015748},{"duration":0.4140625,"midi":95,"time":245.25390625,"velocity":0.3937007874015748},{"duration":0.1705729166666572,"midi":85,"time":245.25390625,"velocity":0.3937007874015748},{"duration":0.4088541666666572,"midi":79,"time":245.25390625,"velocity":0.3937007874015748},{"duration":0.05729166666665719,"midi":77,"time":245.265625,"velocity":0.3937007874015748},{"duration":0.1705729166666572,"midi":90,"time":245.265625,"velocity":0.3937007874015748},{"duration":0.1692708333333428,"midi":65,"time":245.28776041666666,"velocity":0.3937007874015748},{"duration":0.05859375,"midi":70,"time":245.29947916666666,"velocity":0.3937007874015748},{"duration":0.05859375,"midi":31,"time":245.32161458333334,"velocity":0.3937007874015748},{"duration":0.05859375,"midi":84,"time":245.34505208333334,"velocity":0.3937007874015748},{"duration":0.05729166666665719,"midi":93,"time":245.35677083333334,"velocity":0.3937007874015748},{"duration":0.05729166666665719,"midi":67,"time":245.3671875,"velocity":0.3937007874015748},{"duration":0.1731770833333428,"midi":70,"time":245.3671875,"velocity":0.3937007874015748},{"duration":0.055989583333314386,"midi":50,"time":245.38020833333334,"velocity":0.3937007874015748},{"duration":0.16015625,"midi":31,"time":245.38020833333334,"velocity":0.3937007874015748},{"duration":0.171875,"midi":85,"time":245.390625,"velocity":0.3937007874015748},{"duration":0.05598958333334281,"midi":83,"time":245.390625,"velocity":0.3937007874015748},{"duration":0.05598958333334281,"midi":65,"time":245.4140625,"velocity":0.3937007874015748},{"duration":0.08723958333334281,"midi":89,"time":245.4140625,"velocity":0.3937007874015748},{"duration":0.05598958333334281,"midi":67,"time":245.4140625,"velocity":0.3937007874015748},{"duration":0.1393229166666572,"midi":50,"time":245.43489583333334,"velocity":0.3937007874015748},{"duration":0.17317708333331439,"midi":83,"time":245.44661458333334,"velocity":0.3937007874015748},{"duration":0.1731770833333428,"midi":90,"time":245.45703125,"velocity":0.3937007874015748},{"duration":0.061197916666685614,"midi":81,"time":245.47916666666666,"velocity":0.3937007874015748},{"duration":0.061197916666685614,"midi":94,"time":245.47916666666666,"velocity":0.3937007874015748},{"duration":0.07291666666668561,"midi":31,"time":245.47916666666666,"velocity":0.3937007874015748},{"duration":0.05989583333334281,"midi":67,"time":245.4921875,"velocity":0.3937007874015748},{"duration":0.05989583333334281,"midi":69,"time":245.4921875,"velocity":0.3937007874015748},{"duration":0.09244791666665719,"midi":50,"time":245.515625,"velocity":0.3937007874015748},{"duration":0.1471354166666572,"midi":70,"time":245.515625,"velocity":0.3937007874015748},{"duration":0.05729166666665719,"midi":84,"time":245.52864583333334,"velocity":0.3937007874015748},{"duration":0.16927083333331439,"midi":65,"time":245.54036458333334,"velocity":0.3937007874015748},{"duration":0.1705729166666572,"midi":92,"time":245.55078125,"velocity":0.3937007874015748},{"duration":0.05729166666665719,"midi":89,"time":245.55078125,"velocity":0.3937007874015748},{"duration":0.05729166666665719,"midi":93,"time":245.55078125,"velocity":0.3937007874015748},{"duration":0.05729166666665719,"midi":31,"time":245.5625,"velocity":0.3937007874015748},{"duration":0.05598958333334281,"midi":80,"time":245.57421875,"velocity":0.3937007874015748},{"duration":0.1471354166666572,"midi":90,"time":245.57421875,"velocity":0.3937007874015748},{"duration":0.4127604166666572,"midi":91,"time":245.57421875,"velocity":0.3937007874015748},{"duration":0.05598958333334281,"midi":71,"time":245.58463541666666,"velocity":0.3937007874015748},{"duration":0.055989583333314386,"midi":84,"time":245.59505208333334,"velocity":0.3937007874015748},{"duration":0.055989583333314386,"midi":83,"time":245.59505208333334,"velocity":0.3937007874015748},{"duration":0.055989583333314386,"midi":50,"time":245.59505208333334,"velocity":0.3937007874015748},{"duration":0.078125,"midi":70,"time":245.60807291666666,"velocity":0.3937007874015748},{"duration":0.05989583333334281,"midi":79,"time":245.60807291666666,"velocity":0.3937007874015748},{"duration":0.0546875,"midi":73,"time":245.60807291666666,"velocity":0.3937007874015748},{"duration":0.17057291666668561,"midi":31,"time":245.60807291666666,"velocity":0.3937007874015748},{"duration":0.05729166666665719,"midi":71,"time":245.62890625,"velocity":0.3937007874015748},{"duration":0.171875,"midi":89,"time":245.62890625,"velocity":0.3937007874015748},{"duration":0.1497395833333428,"midi":80,"time":245.640625,"velocity":0.3937007874015748},{"duration":0.1731770833333428,"midi":82,"time":245.65104166666666,"velocity":0.3937007874015748},{"duration":0.08203125,"midi":90,"time":245.66145833333334,"velocity":0.3937007874015748},{"duration":0.17317708333331439,"midi":79,"time":245.66145833333334,"velocity":0.3937007874015748},{"duration":0.05859375,"midi":50,"time":245.67447916666666,"velocity":0.3937007874015748},{"duration":0.05859375,"midi":70,"time":245.67447916666666,"velocity":0.3937007874015748},{"duration":0.08072916666665719,"midi":80,"time":245.73177083333334,"velocity":0.3937007874015748},{"duration":0.05859375,"midi":65,"time":245.73177083333334,"velocity":0.3937007874015748},{"duration":0.1705729166666572,"midi":50,"time":245.73177083333334,"velocity":0.3937007874015748},{"duration":0.1705729166666572,"midi":62,"time":245.7421875,"velocity":0.3937007874015748},{"duration":0.05859375,"midi":31,"time":245.7421875,"velocity":0.3937007874015748},{"duration":0.05859375,"midi":71,"time":245.765625,"velocity":0.3937007874015748},{"duration":0.05859375,"midi":89,"time":245.765625,"velocity":0.3937007874015748},{"duration":0.05859375,"midi":83,"time":245.765625,"velocity":0.3937007874015748},{"duration":0.05729166666665719,"midi":65,"time":245.77734375,"velocity":0.3937007874015748},{"duration":0.05729166666665719,"midi":94,"time":245.77734375,"velocity":0.3937007874015748},{"duration":0.05729166666665719,"midi":85,"time":245.77734375,"velocity":0.3937007874015748},{"duration":0.16927083333331439,"midi":79,"time":245.79036458333334,"velocity":0.3937007874015748},{"duration":0.055989583333314386,"midi":70,"time":245.79036458333334,"velocity":0.3937007874015748},{"duration":0.055989583333314386,"midi":86,"time":245.79036458333334,"velocity":0.3937007874015748},{"duration":0.16927083333331439,"midi":43,"time":245.79036458333334,"velocity":0.3937007874015748},{"duration":0.1354166666666572,"midi":31,"time":245.80078125,"velocity":0.3937007874015748},{"duration":0.057291666666685614,"midi":73,"time":245.81119791666666,"velocity":0.3937007874015748},{"duration":0.057291666666685614,"midi":71,"time":245.81119791666666,"velocity":0.3937007874015748},{"duration":0.05598958333334281,"midi":90,"time":245.82421875,"velocity":0.3937007874015748},{"duration":0.05598958333334281,"midi":89,"time":245.82421875,"velocity":0.3937007874015748},{"duration":0.05598958333334281,"midi":58,"time":245.82421875,"velocity":0.3937007874015748},{"duration":0.05729166666665719,"midi":70,"time":245.84505208333334,"velocity":0.3937007874015748},{"duration":0.1705729166666572,"midi":65,"time":245.84505208333334,"velocity":0.3937007874015748},{"duration":0.05729166666665719,"midi":44,"time":245.85546875,"velocity":0.3937007874015748},{"duration":0.09114583333334281,"midi":31,"time":245.87890625,"velocity":0.3937007874015748},{"duration":0.1705729166666572,"midi":58,"time":245.87890625,"velocity":0.3937007874015748},{"duration":0.05729166666665719,"midi":71,"time":245.87890625,"velocity":0.3937007874015748},{"duration":0.17057291666668561,"midi":79,"time":245.88932291666666,"velocity":0.3937007874015748},{"duration":0.05729166666665719,"midi":70,"time":245.90234375,"velocity":0.3937007874015748},{"duration":0.05859375,"midi":80,"time":245.92317708333334,"velocity":0.3937007874015748},{"duration":0.057291666666685614,"midi":69,"time":245.93619791666666,"velocity":0.3937007874015748},{"duration":0.05729166666665719,"midi":61,"time":245.95833333333334,"velocity":0.3937007874015748},{"duration":0.05729166666665719,"midi":68,"time":245.96875,"velocity":0.3937007874015748},{"duration":0.05729166666665719,"midi":82,"time":245.96875,"velocity":0.3937007874015748},{"duration":0.05729166666665719,"midi":60,"time":245.98177083333334,"velocity":0.3937007874015748},{"duration":0.05729166666665719,"midi":44,"time":245.98177083333334,"velocity":0.3937007874015748},{"duration":0.05729166666665719,"midi":70,"time":245.9921875,"velocity":0.3937007874015748},{"duration":0.05729166666665719,"midi":45,"time":245.9921875,"velocity":0.3937007874015748},{"duration":0.05729166666665719,"midi":80,"time":245.9921875,"velocity":0.3937007874015748},{"duration":0.057291666666685614,"midi":44,"time":246.00260416666666,"velocity":0.3937007874015748},{"duration":0.171875,"midi":52,"time":246.00260416666666,"velocity":0.3937007874015748},{"duration":0.05598958333334281,"midi":57,"time":246.015625,"velocity":0.3937007874015748},{"duration":0.05598958333334281,"midi":61,"time":246.02604166666666,"velocity":0.3937007874015748},{"duration":0.05598958333334281,"midi":68,"time":246.02604166666666,"velocity":0.3937007874015748},{"duration":0.05598958333334281,"midi":71,"time":246.02604166666666,"velocity":0.3937007874015748},{"duration":0.171875,"midi":45,"time":246.0703125,"velocity":0.3937007874015748},{"duration":0.1614583333333428,"midi":79,"time":246.0703125,"velocity":0.3937007874015748},{"duration":0.05859375,"midi":61,"time":246.0703125,"velocity":0.3937007874015748},{"duration":0.05859375,"midi":70,"time":246.08072916666666,"velocity":0.3937007874015748},{"duration":0.17057291666668561,"midi":67,"time":246.10416666666666,"velocity":0.3937007874015748},{"duration":0.05859375,"midi":60,"time":246.11588541666666,"velocity":0.3937007874015748},{"duration":0.05859375,"midi":70,"time":246.13932291666666,"velocity":0.3937007874015748},{"duration":0.05859375,"midi":61,"time":246.13932291666666,"velocity":0.3937007874015748},{"duration":0.05859375,"midi":60,"time":246.16276041666666,"velocity":0.3937007874015748},{"duration":0.057291666666685614,"midi":44,"time":246.17447916666666,"velocity":0.3937007874015748},{"duration":0.06770833333334281,"midi":79,"time":246.17447916666666,"velocity":0.3937007874015748},{"duration":0.057291666666685614,"midi":68,"time":246.17447916666666,"velocity":0.3937007874015748},{"duration":0.057291666666685614,"midi":92,"time":246.17447916666666,"velocity":0.3937007874015748},{"duration":0.05729166666665719,"midi":91,"time":246.18489583333334,"velocity":0.3937007874015748},{"duration":0.05729166666665719,"midi":87,"time":246.18489583333334,"velocity":0.3937007874015748},{"duration":0.16927083333331439,"midi":89,"time":246.18489583333334,"velocity":0.3937007874015748},{"duration":0.05598958333334281,"midi":52,"time":246.19791666666666,"velocity":0.3937007874015748},{"duration":0.055989583333314386,"midi":66,"time":246.20833333333334,"velocity":0.3937007874015748},{"duration":0.1705729166666572,"midi":77,"time":246.20833333333334,"velocity":0.3937007874015748},{"duration":0.0546875,"midi":70,"time":246.22005208333334,"velocity":0.3937007874015748},{"duration":0.0546875,"midi":91,"time":246.22005208333334,"velocity":0.3937007874015748},{"duration":0.1705729166666572,"midi":84,"time":246.22005208333334,"velocity":0.3937007874015748},{"duration":0.0546875,"midi":44,"time":246.23046875,"velocity":0.3937007874015748},{"duration":0.05598958333334281,"midi":65,"time":246.2421875,"velocity":0.3937007874015748},{"duration":0.05598958333334281,"midi":61,"time":246.2421875,"velocity":0.3937007874015748},{"duration":0.1731770833333428,"midi":52,"time":246.25260416666666,"velocity":0.3937007874015748},{"duration":0.1744791666666572,"midi":87,"time":246.26302083333334,"velocity":0.3937007874015748},{"duration":0.421875,"midi":45,"time":246.27473958333334,"velocity":0.3937007874015748},{"duration":0.421875,"midi":70,"time":246.27473958333334,"velocity":0.3937007874015748},{"duration":0.05859375,"midi":90,"time":246.27473958333334,"velocity":0.3937007874015748},{"duration":0.05859375,"midi":85,"time":246.28515625,"velocity":0.3937007874015748},{"duration":0.05859375,"midi":66,"time":246.28515625,"velocity":0.3937007874015748},{"duration":0.05859375,"midi":34,"time":246.28515625,"velocity":0.3937007874015748},{"duration":0.1770833333333428,"midi":65,"time":246.3203125,"velocity":0.3937007874015748},{"duration":0.17578125,"midi":84,"time":246.33203125,"velocity":0.3937007874015748},{"duration":0.05859375,"midi":89,"time":246.33203125,"velocity":0.3937007874015748},{"duration":0.05989583333334281,"midi":61,"time":246.34244791666666,"velocity":0.3937007874015748},{"duration":0.05989583333334281,"midi":90,"time":246.34244791666666,"velocity":0.3937007874015748},{"duration":0.17578125,"midi":86,"time":246.36588541666666,"velocity":0.3937007874015748},{"duration":0.05989583333334281,"midi":33,"time":246.390625,"velocity":0.3937007874015748},{"duration":0.1744791666666572,"midi":52,"time":246.390625,"velocity":0.3937007874015748},{"duration":0.05989583333334281,"midi":93,"time":246.4375,"velocity":0.3937007874015748},{"duration":0.1731770833333428,"midi":74,"time":246.44921875,"velocity":0.3937007874015748},{"duration":0.05859375,"midi":32,"time":246.44921875,"velocity":0.3937007874015748},{"duration":0.296875,"midi":85,"time":246.45963541666666,"velocity":0.3937007874015748},{"duration":0.17447916666668561,"midi":62,"time":246.45963541666666,"velocity":0.3937007874015748},{"duration":0.1731770833333428,"midi":78,"time":246.47265625,"velocity":0.3937007874015748},{"duration":0.05859375,"midi":81,"time":246.47265625,"velocity":0.3937007874015748},{"duration":0.4192708333333428,"midi":84,"time":246.484375,"velocity":0.3937007874015748},{"duration":0.05729166666665719,"midi":66,"time":246.484375,"velocity":0.3937007874015748},{"duration":0.05729166666665719,"midi":89,"time":246.49609375,"velocity":0.3937007874015748},{"duration":0.05729166666665719,"midi":33,"time":246.49609375,"velocity":0.3937007874015748},{"duration":0.1731770833333428,"midi":58,"time":246.51822916666666,"velocity":0.3937007874015748},{"duration":0.05859375,"midi":67,"time":246.52994791666666,"velocity":0.3937007874015748},{"duration":0.05859375,"midi":32,"time":246.54166666666666,"velocity":0.3937007874015748},{"duration":0.05859375,"midi":66,"time":246.57552083333334,"velocity":0.3937007874015748},{"duration":0.057291666666685614,"midi":44,"time":246.58854166666666,"velocity":0.3937007874015748},{"duration":0.17317708333331439,"midi":74,"time":246.59895833333334,"velocity":0.3937007874015748},{"duration":0.05859375,"midi":61,"time":246.609375,"velocity":0.3937007874015748},{"duration":0.05859375,"midi":33,"time":246.609375,"velocity":0.3937007874015748},{"duration":0.17317708333331439,"midi":70,"time":246.62239583333334,"velocity":0.3937007874015748},{"duration":0.17317708333331439,"midi":65,"time":246.62239583333334,"velocity":0.3937007874015748},{"duration":0.5481770833333144,"midi":86,"time":246.63411458333334,"velocity":0.3937007874015748},{"duration":0.5481770833333144,"midi":79,"time":246.63411458333334,"velocity":0.3937007874015748},{"duration":0.05729166666665719,"midi":32,"time":246.63411458333334,"velocity":0.3937007874015748},{"duration":0.1731770833333428,"midi":89,"time":246.65625,"velocity":0.3937007874015748},{"duration":0.05859375,"midi":67,"time":246.67838541666666,"velocity":0.3937007874015748},{"duration":0.4244791666666572,"midi":95,"time":246.72395833333334,"velocity":0.3937007874015748},{"duration":0.2981770833333144,"midi":74,"time":246.72395833333334,"velocity":0.3937007874015748},{"duration":0.059895833333314386,"midi":63,"time":246.72395833333334,"velocity":0.3937007874015748},{"duration":0.05859375,"midi":69,"time":246.73697916666666,"velocity":0.3937007874015748},{"duration":0.05859375,"midi":45,"time":246.73697916666666,"velocity":0.3937007874015748},{"duration":0.05859375,"midi":58,"time":246.73697916666666,"velocity":0.3937007874015748},{"duration":0.05859375,"midi":37,"time":246.75911458333334,"velocity":0.3937007874015748},{"duration":0.2981770833333428,"midi":65,"time":246.77213541666666,"velocity":0.3937007874015748},{"duration":0.057291666666685614,"midi":63,"time":246.77213541666666,"velocity":0.3937007874015748},{"duration":0.057291666666685614,"midi":70,"time":246.77213541666666,"velocity":0.3937007874015748},{"duration":0.4231770833333428,"midi":46,"time":246.78385416666666,"velocity":0.3937007874015748},{"duration":0.17317708333331439,"midi":62,"time":246.79427083333334,"velocity":0.3937007874015748},{"duration":0.05859375,"midi":35,"time":246.80598958333334,"velocity":0.3937007874015748},{"duration":0.4244791666666572,"midi":53,"time":246.81770833333334,"velocity":0.3937007874015748},{"duration":0.2994791666666572,"midi":89,"time":246.81770833333334,"velocity":0.3937007874015748},{"duration":0.1744791666666572,"midi":69,"time":246.828125,"velocity":0.3937007874015748},{"duration":0.05859375,"midi":33,"time":246.828125,"velocity":0.3937007874015748},{"duration":0.17578125,"midi":84,"time":246.87369791666666,"velocity":0.3937007874015748},{"duration":0.05859375,"midi":34,"time":246.88671875,"velocity":0.3937007874015748},{"duration":0.05859375,"midi":34,"time":246.94401041666666,"velocity":0.3937007874015748},{"duration":0.17708333333331439,"midi":70,"time":246.98958333333334,"velocity":0.3937007874015748},{"duration":0.05989583333334281,"midi":68,"time":247.00260416666666,"velocity":0.3937007874015748},{"duration":0.1783854166666572,"midi":34,"time":247.01302083333334,"velocity":0.3937007874015748},{"duration":0.4231770833333144,"midi":84,"time":247.02473958333334,"velocity":0.3937007874015748},{"duration":0.05989583333334281,"midi":62,"time":247.03776041666666,"velocity":0.3937007874015748},{"duration":0.17447916666668561,"midi":77,"time":247.04947916666666,"velocity":0.3937007874015748},{"duration":0.296875,"midi":81,"time":247.06119791666666,"velocity":0.3937007874015748},{"duration":0.059895833333314386,"midi":89,"time":247.07161458333334,"velocity":0.3937007874015748},{"duration":0.421875,"midi":46,"time":247.11979166666666,"velocity":0.3937007874015748},{"duration":0.05989583333334281,"midi":66,"time":247.13151041666666,"velocity":0.3937007874015748},{"duration":0.05989583333334281,"midi":78,"time":247.13151041666666,"velocity":0.3937007874015748},{"duration":0.421875,"midi":62,"time":247.13151041666666,"velocity":0.3937007874015748},{"duration":0.1276041666666572,"midi":86,"time":247.14192708333334,"velocity":0.3937007874015748},{"duration":0.17317708333331439,"midi":34,"time":247.14192708333334,"velocity":0.3937007874015748},{"duration":0.059895833333314386,"midi":91,"time":247.14192708333334,"velocity":0.3937007874015748},{"duration":0.17317708333331439,"midi":53,"time":247.14192708333334,"velocity":0.3937007874015748},{"duration":0.296875,"midi":89,"time":247.14192708333334,"velocity":0.3937007874015748},{"duration":0.05859375,"midi":69,"time":247.15494791666666,"velocity":0.3937007874015748},{"duration":0.296875,"midi":77,"time":247.15494791666666,"velocity":0.3937007874015748},{"duration":0.4231770833333428,"midi":65,"time":247.15494791666666,"velocity":0.3937007874015748},{"duration":0.296875,"midi":89,"time":247.15494791666666,"velocity":0.3937007874015748},{"duration":0.171875,"midi":68,"time":247.20182291666666,"velocity":0.3937007874015748},{"duration":0.057291666666685614,"midi":91,"time":247.20182291666666,"velocity":0.3937007874015748},{"duration":0.10286458333331439,"midi":86,"time":247.21223958333334,"velocity":0.3937007874015748},{"duration":0.17317708333331439,"midi":79,"time":247.23567708333334,"velocity":0.3937007874015748},{"duration":0.05729166666665719,"midi":53,"time":247.2578125,"velocity":0.3937007874015748},{"duration":0.1393229166666572,"midi":34,"time":247.26953125,"velocity":0.3937007874015748},{"duration":0.1744791666666572,"midi":53,"time":247.32552083333334,"velocity":0.3937007874015748},{"duration":0.059895833333314386,"midi":81,"time":247.34895833333334,"velocity":0.3937007874015748},{"duration":0.09375,"midi":34,"time":247.34895833333334,"velocity":0.3937007874015748},{"duration":0.05859375,"midi":91,"time":247.37239583333334,"velocity":0.3937007874015748},{"duration":0.05859375,"midi":78,"time":247.37239583333334,"velocity":0.3937007874015748},{"duration":0.05859375,"midi":85,"time":247.37239583333334,"velocity":0.3937007874015748},{"duration":0.17578125,"midi":34,"time":247.41927083333334,"velocity":0.3937007874015748},{"duration":0.7981770833333144,"midi":77,"time":247.41927083333334,"velocity":0.3937007874015748},{"duration":0.17578125,"midi":79,"time":247.41927083333334,"velocity":0.3937007874015748},{"duration":0.4231770833333144,"midi":89,"time":247.41927083333334,"velocity":0.3937007874015748},{"duration":0.9231770833333144,"midi":84,"time":247.41927083333334,"velocity":0.3937007874015748},{"duration":0.05859375,"midi":81,"time":247.43098958333334,"velocity":0.3937007874015748},{"duration":0.1744791666666572,"midi":70,"time":247.453125,"velocity":0.3937007874015748},{"duration":0.061197916666685614,"midi":69,"time":247.52213541666666,"velocity":0.3937007874015748},{"duration":0.05989583333334281,"midi":51,"time":247.53515625,"velocity":0.3937007874015748},{"duration":0.05989583333334281,"midi":60,"time":247.53515625,"velocity":0.3937007874015748},{"duration":0.05989583333334281,"midi":80,"time":247.546875,"velocity":0.3937007874015748},{"duration":0.05859375,"midi":61,"time":247.55859375,"velocity":0.3937007874015748},{"duration":0.05729166666665719,"midi":70,"time":247.5703125,"velocity":0.3937007874015748},{"duration":0.05729166666665719,"midi":49,"time":247.5703125,"velocity":0.3937007874015748},{"duration":0.1731770833333428,"midi":65,"time":247.5703125,"velocity":0.3937007874015748},{"duration":0.055989583333314386,"midi":60,"time":247.58333333333334,"velocity":0.3937007874015748},{"duration":0.05729166666665719,"midi":51,"time":247.6171875,"velocity":0.3937007874015748},{"duration":0.1744791666666572,"midi":79,"time":247.63802083333334,"velocity":0.3937007874015748},{"duration":0.059895833333314386,"midi":57,"time":247.66145833333334,"velocity":0.3937007874015748},{"duration":0.059895833333314386,"midi":50,"time":247.69661458333334,"velocity":0.3937007874015748},{"duration":0.05859375,"midi":81,"time":247.70833333333334,"velocity":0.3937007874015748},{"duration":0.1744791666666572,"midi":58,"time":247.70833333333334,"velocity":0.3937007874015748},{"duration":0.2981770833333144,"midi":65,"time":247.72005208333334,"velocity":0.3937007874015748},{"duration":0.05859375,"midi":88,"time":247.72005208333334,"velocity":0.3937007874015748},{"duration":0.1744791666666572,"midi":86,"time":247.73177083333334,"velocity":0.3937007874015748},{"duration":0.05859375,"midi":62,"time":247.74348958333334,"velocity":0.3937007874015748},{"duration":0.05859375,"midi":46,"time":247.76692708333334,"velocity":0.3937007874015748},{"duration":0.17317708333331439,"midi":74,"time":247.80208333333334,"velocity":0.3937007874015748},{"duration":0.1744791666666572,"midi":69,"time":247.8125,"velocity":0.3937007874015748},{"duration":0.2994791666666572,"midi":50,"time":247.82421875,"velocity":0.3937007874015748},{"duration":0.05989583333334281,"midi":58,"time":247.83463541666666,"velocity":0.3937007874015748},{"duration":0.1744791666666572,"midi":79,"time":247.84765625,"velocity":0.3937007874015748},{"duration":0.05859375,"midi":91,"time":247.859375,"velocity":0.3937007874015748},{"duration":0.05859375,"midi":56,"time":247.92838541666666,"velocity":0.3937007874015748},{"duration":0.17578125,"midi":57,"time":247.95052083333334,"velocity":0.3937007874015748},{"duration":0.17578125,"midi":91,"time":247.98567708333334,"velocity":0.3937007874015748},{"duration":0.17447916666668561,"midi":65,"time":248.03385416666666,"velocity":0.3937007874015748},{"duration":0.05859375,"midi":55,"time":248.10286458333334,"velocity":0.3937007874015748},{"duration":0.05859375,"midi":60,"time":248.10286458333334,"velocity":0.3937007874015748},{"duration":0.05859375,"midi":63,"time":248.12630208333334,"velocity":0.3937007874015748},{"duration":0.05859375,"midi":36,"time":248.12630208333334,"velocity":0.3937007874015748},{"duration":0.1744791666666572,"midi":53,"time":248.12630208333334,"velocity":0.3937007874015748},{"duration":0.05859375,"midi":45,"time":248.13802083333334,"velocity":0.3937007874015748},{"duration":0.05859375,"midi":91,"time":248.16145833333334,"velocity":0.3937007874015748},{"duration":0.1744791666666572,"midi":46,"time":248.16145833333334,"velocity":0.3937007874015748},{"duration":0.17578125,"midi":65,"time":248.18489583333334,"velocity":0.3937007874015748},{"duration":0.1744791666666572,"midi":34,"time":248.20703125,"velocity":0.3937007874015748},{"duration":0.05859375,"midi":58,"time":248.25390625,"velocity":0.3937007874015748},{"duration":0.05989583333334281,"midi":35,"time":248.30078125,"velocity":0.3937007874015748},{"duration":0.1744791666666572,"midi":88,"time":248.3125,"velocity":0.3937007874015748},{"duration":0.05859375,"midi":70,"time":248.3125,"velocity":0.3937007874015748},{"duration":0.5533854166666856,"midi":58,"time":248.32291666666666,"velocity":0.3937007874015748},{"duration":0.05859375,"midi":93,"time":248.33463541666666,"velocity":0.3937007874015748},{"duration":0.8046875,"midi":53,"time":248.33463541666666,"velocity":0.3937007874015748},{"duration":0.05859375,"midi":44,"time":248.33463541666666,"velocity":0.3937007874015748},{"duration":0.05859375,"midi":37,"time":248.34765625,"velocity":0.3937007874015748},{"duration":0.05859375,"midi":84,"time":248.34765625,"velocity":0.3937007874015748},{"duration":0.05859375,"midi":45,"time":248.34765625,"velocity":0.3937007874015748},{"duration":0.8033854166666572,"midi":46,"time":248.359375,"velocity":0.3937007874015748},{"duration":0.05859375,"midi":62,"time":248.36979166666666,"velocity":0.3937007874015748},{"duration":0.05859375,"midi":32,"time":248.36979166666666,"velocity":0.3937007874015748},{"duration":0.05989583333334281,"midi":69,"time":248.38151041666666,"velocity":0.3937007874015748},{"duration":0.30078125,"midi":68,"time":248.42838541666666,"velocity":0.3937007874015748},{"duration":0.05859375,"midi":34,"time":248.45052083333334,"velocity":0.3937007874015748},{"duration":0.1744791666666572,"midi":77,"time":248.48567708333334,"velocity":0.3937007874015748},{"duration":0.059895833333314386,"midi":34,"time":248.50911458333334,"velocity":0.3937007874015748},{"duration":0.17578125,"midi":62,"time":248.54427083333334,"velocity":0.3937007874015748},{"duration":0.3033854166666572,"midi":34,"time":248.57942708333334,"velocity":0.3937007874015748},{"duration":0.1783854166666572,"midi":84,"time":248.70703125,"velocity":0.3937007874015748},{"duration":0.06119791666665719,"midi":66,"time":248.70703125,"velocity":0.3937007874015748},{"duration":0.1783854166666572,"midi":89,"time":248.70703125,"velocity":0.3937007874015748},{"duration":0.1783854166666572,"midi":77,"time":248.70703125,"velocity":0.3937007874015748},{"duration":0.1783854166666572,"midi":93,"time":248.70703125,"velocity":0.3937007874015748},{"duration":0.1783854166666572,"midi":68,"time":248.71875,"velocity":0.3937007874015748},{"duration":0.1783854166666572,"midi":91,"time":248.74348958333334,"velocity":0.3937007874015748},{"duration":0.1783854166666572,"midi":62,"time":248.74348958333334,"velocity":0.3937007874015748},{"duration":0.2942708333333144,"midi":34,"time":248.86067708333334,"velocity":0.3937007874015748},{"duration":0.3020833333333144,"midi":77,"time":248.86067708333334,"velocity":0.3937007874015748},{"duration":0.061197916666685614,"midi":95,"time":248.89713541666666,"velocity":0.3937007874015748},{"duration":0.1770833333333428,"midi":88,"time":248.90885416666666,"velocity":0.3937007874015748},{"duration":0.2981770833333428,"midi":89,"time":248.90885416666666,"velocity":0.3937007874015748},{"duration":0.1770833333333428,"midi":91,"time":248.90885416666666,"velocity":0.3937007874015748},{"duration":0.1770833333333428,"midi":84,"time":248.90885416666666,"velocity":0.3937007874015748},{"duration":0.1770833333333428,"midi":93,"time":248.90885416666666,"velocity":0.3937007874015748},{"duration":0.05989583333334281,"midi":87,"time":248.921875,"velocity":0.3937007874015748},{"duration":0.2434895833333428,"midi":86,"time":248.93359375,"velocity":0.3937007874015748},{"duration":0.1744791666666572,"midi":84,"time":248.9453125,"velocity":0.3937007874015748},{"duration":0.15234375,"midi":81,"time":248.9453125,"velocity":0.3937007874015748},{"duration":0.06119791666665719,"midi":66,"time":249.00390625,"velocity":0.3937007874015748},{"duration":0.171875,"midi":94,"time":249.015625,"velocity":0.3937007874015748},{"duration":0.05989583333334281,"midi":68,"time":249.015625,"velocity":0.3937007874015748},{"duration":0.05859375,"midi":90,"time":249.02734375,"velocity":0.3937007874015748},{"duration":0.1705729166666572,"midi":85,"time":249.04036458333334,"velocity":0.3937007874015748},{"duration":0.1705729166666572,"midi":95,"time":249.04036458333334,"velocity":0.3937007874015748},{"duration":0.2916666666666572,"midi":84,"time":249.04036458333334,"velocity":0.3937007874015748},{"duration":0.05729166666665719,"midi":88,"time":249.04036458333334,"velocity":0.3937007874015748},{"duration":0.05729166666665719,"midi":69,"time":249.04036458333334,"velocity":0.3937007874015748},{"duration":0.07942708333331439,"midi":81,"time":249.04036458333334,"velocity":0.3937007874015748},{"duration":0.10286458333331439,"midi":87,"time":249.05208333333334,"velocity":0.3937007874015748},{"duration":0.05729166666665719,"midi":82,"time":249.07421875,"velocity":0.3937007874015748},{"duration":0.05729166666665719,"midi":70,"time":249.07421875,"velocity":0.3937007874015748},{"duration":0.05859375,"midi":79,"time":249.09635416666666,"velocity":0.3937007874015748},{"duration":0.125,"midi":87,"time":249.09635416666666,"velocity":0.3937007874015748},{"duration":0.06640625,"midi":34,"time":249.09635416666666,"velocity":0.3937007874015748},{"duration":0.05859375,"midi":51,"time":249.09635416666666,"velocity":0.3937007874015748},{"duration":0.05859375,"midi":61,"time":249.09635416666666,"velocity":0.3937007874015748},{"duration":0.05859375,"midi":81,"time":249.10677083333334,"velocity":0.3937007874015748},{"duration":0.05859375,"midi":77,"time":249.10677083333334,"velocity":0.3937007874015748},{"duration":0.109375,"midi":86,"time":249.11979166666666,"velocity":0.3937007874015748},{"duration":0.057291666666685614,"midi":68,"time":249.11979166666666,"velocity":0.3937007874015748},{"duration":0.057291666666685614,"midi":64,"time":249.11979166666666,"velocity":0.3937007874015748},{"duration":0.057291666666685614,"midi":60,"time":249.11979166666666,"velocity":0.3937007874015748},{"duration":0.05598958333334281,"midi":94,"time":249.13151041666666,"velocity":0.3937007874015748},{"duration":0.05598958333334281,"midi":43,"time":249.13151041666666,"velocity":0.3937007874015748},{"duration":0.05729166666665719,"midi":42,"time":249.14192708333334,"velocity":0.3937007874015748},{"duration":0.05729166666665719,"midi":90,"time":249.14192708333334,"velocity":0.3937007874015748},{"duration":0.05598958333334281,"midi":41,"time":249.15494791666666,"velocity":0.3937007874015748},{"duration":0.05598958333334281,"midi":85,"time":249.15494791666666,"velocity":0.3937007874015748},{"duration":0.05598958333334281,"midi":78,"time":249.15494791666666,"velocity":0.3937007874015748},{"duration":0.055989583333314386,"midi":65,"time":249.16536458333334,"velocity":0.3937007874015748},{"duration":0.16927083333331439,"midi":89,"time":249.16536458333334,"velocity":0.3937007874015748},{"duration":0.16927083333331439,"midi":89,"time":249.16536458333334,"velocity":0.3937007874015748},{"duration":0.1705729166666572,"midi":84,"time":249.17578125,"velocity":0.3937007874015748},{"duration":0.1705729166666572,"midi":87,"time":249.17578125,"velocity":0.3937007874015748},{"duration":0.1705729166666572,"midi":74,"time":249.17578125,"velocity":0.3937007874015748},{"duration":0.1705729166666572,"midi":77,"time":249.17578125,"velocity":0.3937007874015748},{"duration":0.05598958333334281,"midi":40,"time":249.17578125,"velocity":0.3937007874015748},{"duration":0.05859375,"midi":35,"time":249.22005208333334,"velocity":0.3937007874015748},{"duration":0.1705729166666572,"midi":65,"time":249.22005208333334,"velocity":0.3937007874015748},{"duration":0.05989583333334281,"midi":40,"time":249.2421875,"velocity":0.3937007874015748},{"duration":0.171875,"midi":81,"time":249.2421875,"velocity":0.3937007874015748},{"duration":0.05859375,"midi":79,"time":249.25390625,"velocity":0.3937007874015748},{"duration":0.05859375,"midi":91,"time":249.25390625,"velocity":0.3937007874015748},{"duration":0.05729166666665719,"midi":39,"time":249.26692708333334,"velocity":0.3937007874015748},{"duration":0.05729166666665719,"midi":61,"time":249.26692708333334,"velocity":0.3937007874015748},{"duration":0.1705729166666572,"midi":70,"time":249.26692708333334,"velocity":0.3937007874015748},{"duration":0.05729166666665719,"midi":45,"time":249.2890625,"velocity":0.3937007874015748},{"duration":0.05729166666665719,"midi":78,"time":249.2890625,"velocity":0.3937007874015748},{"duration":0.05729166666665719,"midi":89,"time":249.3125,"velocity":0.3937007874015748},{"duration":0.171875,"midi":84,"time":249.3125,"velocity":0.3937007874015748},{"duration":0.171875,"midi":58,"time":249.3125,"velocity":0.3937007874015748},{"duration":0.057291666666685614,"midi":46,"time":249.32291666666666,"velocity":0.3937007874015748},{"duration":0.057291666666685614,"midi":80,"time":249.32291666666666,"velocity":0.3937007874015748},{"duration":0.057291666666685614,"midi":78,"time":249.34635416666666,"velocity":0.3937007874015748},{"duration":0.05729166666665719,"midi":62,"time":249.35677083333334,"velocity":0.3937007874015748},{"duration":0.05729166666665719,"midi":45,"time":249.35677083333334,"velocity":0.3937007874015748},{"duration":0.05729166666665719,"midi":40,"time":249.38020833333334,"velocity":0.3937007874015748},{"duration":0.17578125,"midi":65,"time":249.38020833333334,"velocity":0.3937007874015748},{"duration":0.07291666666668561,"midi":84,"time":249.47135416666666,"velocity":0.3937007874015748},{"duration":0.061197916666685614,"midi":72,"time":249.48307291666666,"velocity":0.3937007874015748},{"duration":0.061197916666685614,"midi":79,"time":249.48307291666666,"velocity":0.3937007874015748},{"duration":0.66796875,"midi":93,"time":249.48307291666666,"velocity":0.3937007874015748},{"duration":0.16276041666668561,"midi":84,"time":249.48307291666666,"velocity":0.3937007874015748},{"duration":0.061197916666685614,"midi":57,"time":249.48307291666666,"velocity":0.3937007874015748},{"duration":0.05989583333334281,"midi":94,"time":249.49609375,"velocity":0.3937007874015748},{"duration":0.05989583333334281,"midi":88,"time":249.49609375,"velocity":0.3937007874015748},{"duration":0.05989583333334281,"midi":95,"time":249.49609375,"velocity":0.3937007874015748},{"duration":0.1731770833333428,"midi":62,"time":249.49609375,"velocity":0.3937007874015748},{"duration":0.05859375,"midi":56,"time":249.5078125,"velocity":0.3937007874015748},{"duration":0.05729166666665719,"midi":71,"time":249.51953125,"velocity":0.3937007874015748},{"duration":0.1731770833333428,"midi":89,"time":249.51953125,"velocity":0.3937007874015748},{"duration":0.055989583333314386,"midi":90,"time":249.53255208333334,"velocity":0.3937007874015748},{"duration":0.171875,"midi":77,"time":249.53255208333334,"velocity":0.3937007874015748},{"duration":0.055989583333314386,"midi":57,"time":249.53255208333334,"velocity":0.3937007874015748},{"duration":0.055989583333314386,"midi":87,"time":249.54427083333334,"velocity":0.3937007874015748},{"duration":0.2747395833333428,"midi":65,"time":249.5546875,"velocity":0.3937007874015748},{"duration":0.1731770833333428,"midi":91,"time":249.56510416666666,"velocity":0.3937007874015748},{"duration":0.1731770833333428,"midi":84,"time":249.57682291666666,"velocity":0.3937007874015748},{"duration":0.05859375,"midi":86,"time":249.57682291666666,"velocity":0.3937007874015748},{"duration":0.05859375,"midi":57,"time":249.58723958333334,"velocity":0.3937007874015748},{"duration":0.17317708333331439,"midi":84,"time":249.58723958333334,"velocity":0.3937007874015748},{"duration":0.2955729166666572,"midi":87,"time":249.62239583333334,"velocity":0.3937007874015748},{"duration":0.05859375,"midi":72,"time":249.63411458333334,"velocity":0.3937007874015748},{"duration":0.1731770833333428,"midi":58,"time":249.65625,"velocity":0.3937007874015748},{"duration":0.05859375,"midi":45,"time":249.68098958333334,"velocity":0.3937007874015748},{"duration":0.05729166666665719,"midi":72,"time":249.69270833333334,"velocity":0.3937007874015748},{"duration":0.05729166666665719,"midi":46,"time":249.703125,"velocity":0.3937007874015748},{"duration":0.05729166666665719,"midi":90,"time":249.703125,"velocity":0.3937007874015748},{"duration":0.05729166666665719,"midi":85,"time":249.703125,"velocity":0.3937007874015748},{"duration":0.05729166666665719,"midi":78,"time":249.703125,"velocity":0.3937007874015748},{"duration":0.05729166666665719,"midi":53,"time":249.703125,"velocity":0.3937007874015748},{"duration":0.171875,"midi":69,"time":249.703125,"velocity":0.3937007874015748},{"duration":0.05729166666665719,"midi":85,"time":249.703125,"velocity":0.3937007874015748},{"duration":0.05729166666665719,"midi":74,"time":249.703125,"velocity":0.3937007874015748},{"duration":0.171875,"midi":89,"time":249.7265625,"velocity":0.3937007874015748},{"duration":0.171875,"midi":89,"time":249.7265625,"velocity":0.3937007874015748},{"duration":0.1705729166666572,"midi":84,"time":249.73828125,"velocity":0.3937007874015748},{"duration":0.2942708333333428,"midi":84,"time":249.74869791666666,"velocity":0.3937007874015748},{"duration":0.05859375,"midi":72,"time":249.76041666666666,"velocity":0.3937007874015748},{"duration":0.05859375,"midi":46,"time":249.76041666666666,"velocity":0.3937007874015748},{"duration":0.078125,"midi":65,"time":249.77083333333334,"velocity":0.3937007874015748},{"duration":0.05859375,"midi":71,"time":249.79427083333334,"velocity":0.3937007874015748},{"duration":0.05859375,"midi":85,"time":249.828125,"velocity":0.3937007874015748},{"duration":0.05859375,"midi":66,"time":249.828125,"velocity":0.3937007874015748},{"duration":0.171875,"midi":94,"time":249.828125,"velocity":0.3937007874015748},{"duration":0.05859375,"midi":90,"time":249.828125,"velocity":0.3937007874015748},{"duration":0.51953125,"midi":91,"time":249.83984375,"velocity":0.3937007874015748},{"duration":0.4231770833333428,"midi":86,"time":249.83984375,"velocity":0.3937007874015748},{"duration":0.05859375,"midi":72,"time":249.83984375,"velocity":0.3937007874015748},{"duration":0.5455729166666572,"midi":95,"time":249.83984375,"velocity":0.3937007874015748},{"duration":0.171875,"midi":88,"time":249.8515625,"velocity":0.3937007874015748},{"duration":0.171875,"midi":88,"time":249.8515625,"velocity":0.3937007874015748},{"duration":0.4231770833333428,"midi":67,"time":249.875,"velocity":0.3937007874015748},{"duration":0.5104166666666572,"midi":91,"time":249.875,"velocity":0.3937007874015748},{"duration":0.44140625,"midi":86,"time":249.875,"velocity":0.3937007874015748},{"duration":0.05859375,"midi":52,"time":249.875,"velocity":0.3937007874015748},{"duration":0.5416666666666572,"midi":89,"time":249.88671875,"velocity":0.3937007874015748},{"duration":0.05729166666665719,"midi":64,"time":249.88671875,"velocity":0.3937007874015748},{"duration":0.05859375,"midi":60,"time":249.90885416666666,"velocity":0.3937007874015748},{"duration":0.4231770833333428,"midi":52,"time":249.90885416666666,"velocity":0.3937007874015748},{"duration":0.057291666666685614,"midi":61,"time":249.93229166666666,"velocity":0.3937007874015748},{"duration":0.7877604166666572,"midi":76,"time":249.94270833333334,"velocity":0.3937007874015748},{"duration":0.421875,"midi":72,"time":249.95442708333334,"velocity":0.3937007874015748},{"duration":0.421875,"midi":45,"time":249.95442708333334,"velocity":0.3937007874015748},{"duration":0.05729166666665719,"midi":61,"time":249.98958333333334,"velocity":0.3937007874015748},{"duration":0.05729166666665719,"midi":34,"time":250,"velocity":0.3937007874015748},{"duration":0.059895833333314386,"midi":61,"time":250.05598958333334,"velocity":0.3937007874015748},{"duration":0.2682291666666572,"midi":33,"time":250.09114583333334,"velocity":0.3937007874015748},{"duration":0.05989583333334281,"midi":60,"time":250.13932291666666,"velocity":0.3937007874015748},{"duration":0.059895833333314386,"midi":60,"time":250.20833333333334,"velocity":0.3937007874015748},{"duration":0.171875,"midi":88,"time":250.24348958333334,"velocity":0.3937007874015748},{"duration":0.125,"midi":86,"time":250.25651041666666,"velocity":0.3937007874015748},{"duration":0.171875,"midi":94,"time":250.26822916666666,"velocity":0.3937007874015748},{"duration":0.05859375,"midi":53,"time":250.26822916666666,"velocity":0.3937007874015748},{"duration":0.05859375,"midi":90,"time":250.27864583333334,"velocity":0.3937007874015748},{"duration":0.17317708333331439,"midi":90,"time":250.27864583333334,"velocity":0.3937007874015748},{"duration":0.05859375,"midi":84,"time":250.27864583333334,"velocity":0.3937007874015748},{"duration":0.057291666666685614,"midi":78,"time":250.29166666666666,"velocity":0.3937007874015748},{"duration":0.057291666666685614,"midi":51,"time":250.29166666666666,"velocity":0.3937007874015748},{"duration":0.1731770833333428,"midi":60,"time":250.29166666666666,"velocity":0.3937007874015748},{"duration":0.1731770833333428,"midi":84,"time":250.29166666666666,"velocity":0.3937007874015748},{"duration":0.1731770833333428,"midi":85,"time":250.29166666666666,"velocity":0.3937007874015748},{"duration":0.057291666666685614,"midi":71,"time":250.29166666666666,"velocity":0.3937007874015748},{"duration":0.05598958333334281,"midi":50,"time":250.30338541666666,"velocity":0.3937007874015748},{"duration":0.2395833333333428,"midi":91,"time":250.30338541666666,"velocity":0.3937007874015748},{"duration":0.05598958333334281,"midi":66,"time":250.30338541666666,"velocity":0.3937007874015748},{"duration":0.08723958333334281,"midi":33,"time":250.30338541666666,"velocity":0.3937007874015748},{"duration":0.29296875,"midi":79,"time":250.31510416666666,"velocity":0.3937007874015748},{"duration":0.14973958333331439,"midi":34,"time":250.32552083333334,"velocity":0.3937007874015748},{"duration":0.09375,"midi":86,"time":250.32552083333334,"velocity":0.3937007874015748},{"duration":0.1276041666666572,"midi":86,"time":250.33723958333334,"velocity":0.3937007874015748},{"duration":0.05729166666665719,"midi":52,"time":250.33723958333334,"velocity":0.3937007874015748},{"duration":0.05729166666665719,"midi":87,"time":250.34765625,"velocity":0.3937007874015748},{"duration":0.1731770833333428,"midi":65,"time":250.35807291666666,"velocity":0.3937007874015748},{"duration":0.061197916666685614,"midi":89,"time":250.36979166666666,"velocity":0.3937007874015748},{"duration":0.1731770833333428,"midi":84,"time":250.36979166666666,"velocity":0.3937007874015748},{"duration":0.171875,"midi":91,"time":250.38151041666666,"velocity":0.3937007874015748},{"duration":0.2265625,"midi":86,"time":250.40494791666666,"velocity":0.3937007874015748},{"duration":0.08072916666665719,"midi":34,"time":250.41536458333334,"velocity":0.3937007874015748},{"duration":0.05859375,"midi":88,"time":250.42708333333334,"velocity":0.3937007874015748},{"duration":0.171875,"midi":95,"time":250.43880208333334,"velocity":0.3937007874015748},{"duration":0.05729166666665719,"midi":90,"time":250.43880208333334,"velocity":0.3937007874015748},{"duration":0.171875,"midi":64,"time":250.43880208333334,"velocity":0.3937007874015748},{"duration":0.17057291666668561,"midi":92,"time":250.45182291666666,"velocity":0.3937007874015748},{"duration":0.057291666666685614,"midi":67,"time":250.45182291666666,"velocity":0.3937007874015748},{"duration":0.05729166666665719,"midi":61,"time":250.47395833333334,"velocity":0.3937007874015748},{"duration":0.05729166666665719,"midi":68,"time":250.48567708333334,"velocity":0.3937007874015748},{"duration":0.1614583333333428,"midi":60,"time":250.49609375,"velocity":0.3937007874015748},{"duration":0.05729166666665719,"midi":45,"time":250.53125,"velocity":0.3937007874015748},{"duration":0.05729166666665719,"midi":83,"time":250.53125,"velocity":0.3937007874015748},{"duration":0.05729166666665719,"midi":67,"time":250.53125,"velocity":0.3937007874015748},{"duration":0.17057291666668561,"midi":85,"time":250.54166666666666,"velocity":0.3937007874015748},{"duration":0.1705729166666572,"midi":91,"time":250.55208333333334,"velocity":0.3937007874015748},{"duration":0.05859375,"midi":63,"time":250.55208333333334,"velocity":0.3937007874015748},{"duration":0.05859375,"midi":56,"time":250.57552083333334,"velocity":0.3937007874015748},{"duration":0.05859375,"midi":89,"time":250.59895833333334,"velocity":0.3937007874015748},{"duration":0.06901041666665719,"midi":60,"time":250.59895833333334,"velocity":0.3937007874015748},{"duration":0.05859375,"midi":43,"time":250.59895833333334,"velocity":0.3937007874015748},{"duration":0.16796875,"midi":86,"time":250.61067708333334,"velocity":0.3937007874015748},{"duration":0.05729166666665719,"midi":64,"time":250.61067708333334,"velocity":0.3937007874015748},{"duration":0.05729166666665719,"midi":67,"time":250.61067708333334,"velocity":0.3937007874015748},{"duration":0.05729166666665719,"midi":44,"time":250.62109375,"velocity":0.3937007874015748},{"duration":0.05729166666665719,"midi":95,"time":250.64453125,"velocity":0.3937007874015748},{"duration":0.05729166666665719,"midi":45,"time":250.64453125,"velocity":0.3937007874015748},{"duration":0.1692708333333428,"midi":69,"time":250.65625,"velocity":0.3937007874015748},{"duration":0.05598958333334281,"midi":64,"time":250.65625,"velocity":0.3937007874015748},{"duration":0.05598958333334281,"midi":77,"time":250.66796875,"velocity":0.3937007874015748},{"duration":0.05598958333334281,"midi":84,"time":250.66796875,"velocity":0.3937007874015748},{"duration":0.05598958333334281,"midi":93,"time":250.66796875,"velocity":0.3937007874015748},{"duration":0.05598958333334281,"midi":83,"time":250.66796875,"velocity":0.3937007874015748},{"duration":0.05598958333334281,"midi":44,"time":250.67838541666666,"velocity":0.3937007874015748},{"duration":0.5481770833333428,"midi":57,"time":250.67838541666666,"velocity":0.3937007874015748},{"duration":0.055989583333314386,"midi":66,"time":250.68880208333334,"velocity":0.3937007874015748},{"duration":0.055989583333314386,"midi":91,"time":250.68880208333334,"velocity":0.3937007874015748},{"duration":0.671875,"midi":88,"time":250.71223958333334,"velocity":0.3937007874015748},{"duration":0.17317708333331439,"midi":76,"time":250.71223958333334,"velocity":0.3937007874015748},{"duration":0.2669270833333144,"midi":95,"time":250.71223958333334,"velocity":0.3937007874015748},{"duration":0.796875,"midi":90,"time":250.71223958333334,"velocity":0.3937007874015748},{"duration":0.17317708333331439,"midi":92,"time":250.71223958333334,"velocity":0.3937007874015748},{"duration":0.4231770833333144,"midi":45,"time":250.71223958333334,"velocity":0.3937007874015748},{"duration":0.055989583333314386,"midi":85,"time":250.71223958333334,"velocity":0.3937007874015748},{"duration":0.1744791666666572,"midi":64,"time":250.72265625,"velocity":0.3937007874015748},{"duration":0.17578125,"midi":86,"time":250.74479166666666,"velocity":0.3937007874015748},{"duration":0.1783854166666572,"midi":67,"time":250.80078125,"velocity":0.3937007874015748},{"duration":0.3020833333333428,"midi":72,"time":250.8125,"velocity":0.3937007874015748},{"duration":0.06119791666665719,"midi":89,"time":250.84765625,"velocity":0.3937007874015748},{"duration":0.06119791666665719,"midi":85,"time":250.84765625,"velocity":0.3937007874015748},{"duration":0.17708333333331439,"midi":91,"time":250.86067708333334,"velocity":0.3937007874015748},{"duration":0.4270833333333144,"midi":84,"time":250.87239583333334,"velocity":0.3937007874015748},{"duration":0.30078125,"midi":62,"time":250.88411458333334,"velocity":0.3937007874015748},{"duration":0.17447916666668561,"midi":86,"time":250.89713541666666,"velocity":0.3937007874015748},{"duration":0.4244791666666856,"midi":93,"time":250.90885416666666,"velocity":0.3937007874015748},{"duration":0.09244791666665719,"midi":95,"time":250.91927083333334,"velocity":0.3937007874015748},{"duration":0.059895833333314386,"midi":95,"time":250.96614583333334,"velocity":0.3937007874015748},{"duration":0.05859375,"midi":76,"time":250.97916666666666,"velocity":0.3937007874015748},{"duration":0.421875,"midi":74,"time":251.02604166666666,"velocity":0.3937007874015748},{"duration":0.2994791666666856,"midi":86,"time":251.02604166666666,"velocity":0.3937007874015748},{"duration":0.4231770833333428,"midi":76,"time":251.046875,"velocity":0.3937007874015748},{"duration":0.17578125,"midi":67,"time":251.046875,"velocity":0.3937007874015748},{"duration":0.5481770833333428,"midi":90,"time":251.0703125,"velocity":0.3937007874015748},{"duration":0.4231770833333428,"midi":81,"time":251.08203125,"velocity":0.3937007874015748},{"duration":0.1744791666666572,"midi":62,"time":251.09505208333334,"velocity":0.3937007874015748},{"duration":0.05989583333334281,"midi":45,"time":251.140625,"velocity":0.3937007874015748},{"duration":0.05989583333334281,"midi":60,"time":251.24609375,"velocity":0.3937007874015748},{"duration":0.05989583333334281,"midi":64,"time":251.24609375,"velocity":0.3937007874015748},{"duration":0.05989583333334281,"midi":63,"time":251.26822916666666,"velocity":0.3937007874015748},{"duration":0.05989583333334281,"midi":84,"time":251.26822916666666,"velocity":0.3937007874015748},{"duration":0.05859375,"midi":60,"time":251.28125,"velocity":0.3937007874015748},{"duration":0.05729166666665719,"midi":95,"time":251.29296875,"velocity":0.3937007874015748},{"duration":0.05729166666665719,"midi":55,"time":251.29296875,"velocity":0.3937007874015748},{"duration":0.171875,"midi":67,"time":251.3046875,"velocity":0.3937007874015748},{"duration":0.057291666666685614,"midi":63,"time":251.31510416666666,"velocity":0.3937007874015748},{"duration":0.05859375,"midi":63,"time":251.34895833333334,"velocity":0.3937007874015748},{"duration":0.05859375,"midi":60,"time":251.37239583333334,"velocity":0.3937007874015748},{"duration":0.17317708333331439,"midi":84,"time":251.37239583333334,"velocity":0.3937007874015748},{"duration":0.05989583333334281,"midi":55,"time":251.3828125,"velocity":0.3937007874015748},{"duration":0.05859375,"midi":82,"time":251.39583333333334,"velocity":0.3937007874015748},{"duration":0.1744791666666572,"midi":89,"time":251.39583333333334,"velocity":0.3937007874015748},{"duration":0.05729166666665719,"midi":75,"time":251.40755208333334,"velocity":0.3937007874015748},{"duration":0.05859375,"midi":63,"time":251.41796875,"velocity":0.3937007874015748},{"duration":0.1744791666666572,"midi":86,"time":251.4296875,"velocity":0.3937007874015748},{"duration":0.1627604166666572,"midi":74,"time":251.453125,"velocity":0.3937007874015748},{"duration":0.05859375,"midi":83,"time":251.453125,"velocity":0.3937007874015748},{"duration":0.05859375,"midi":45,"time":251.453125,"velocity":0.3937007874015748},{"duration":0.4244791666666572,"midi":76,"time":251.453125,"velocity":0.3937007874015748},{"duration":0.05989583333334281,"midi":93,"time":251.46354166666666,"velocity":0.3937007874015748},{"duration":0.05859375,"midi":65,"time":251.4765625,"velocity":0.3937007874015748},{"duration":0.05859375,"midi":41,"time":251.4765625,"velocity":0.3937007874015748},{"duration":0.17578125,"midi":57,"time":251.48697916666666,"velocity":0.3937007874015748},{"duration":0.17578125,"midi":64,"time":251.49869791666666,"velocity":0.3937007874015748},{"duration":0.05859375,"midi":45,"time":251.51171875,"velocity":0.3937007874015748},{"duration":0.2994791666666856,"midi":83,"time":251.53385416666666,"velocity":0.3937007874015748},{"duration":0.059895833333314386,"midi":45,"time":251.54427083333334,"velocity":0.3937007874015748},{"duration":0.0703125,"midi":74,"time":251.55729166666666,"velocity":0.3937007874015748},{"duration":0.05989583333334281,"midi":38,"time":251.59244791666666,"velocity":0.3937007874015748},{"duration":0.059895833333314386,"midi":74,"time":251.61458333333334,"velocity":0.3937007874015748},{"duration":0.17447916666668561,"midi":57,"time":251.62760416666666,"velocity":0.3937007874015748},{"duration":0.17447916666668561,"midi":72,"time":251.62760416666666,"velocity":0.3937007874015748},{"duration":0.05859375,"midi":67,"time":251.63932291666666,"velocity":0.3937007874015748},{"duration":0.05859375,"midi":62,"time":251.65104166666666,"velocity":0.3937007874015748},{"duration":0.05859375,"midi":64,"time":251.66276041666666,"velocity":0.3937007874015748},{"duration":0.17447916666668561,"midi":68,"time":251.67447916666666,"velocity":0.3937007874015748},{"duration":0.17578125,"midi":61,"time":251.69661458333334,"velocity":0.3937007874015748},{"duration":0.05859375,"midi":40,"time":251.72005208333334,"velocity":0.3937007874015748},{"duration":0.17578125,"midi":49,"time":251.72005208333334,"velocity":0.3937007874015748},{"duration":0.05989583333334281,"midi":64,"time":251.8125,"velocity":0.3937007874015748},{"duration":0.05989583333334281,"midi":72,"time":251.8125,"velocity":0.3937007874015748},{"duration":0.05989583333334281,"midi":82,"time":251.8359375,"velocity":0.3937007874015748},{"duration":0.05989583333334281,"midi":75,"time":251.8359375,"velocity":0.3937007874015748},{"duration":0.17578125,"midi":86,"time":251.84765625,"velocity":0.3937007874015748},{"duration":0.05859375,"midi":60,"time":251.86067708333334,"velocity":0.3937007874015748},{"duration":0.17578125,"midi":74,"time":251.86067708333334,"velocity":0.3937007874015748},{"duration":0.1744791666666572,"midi":81,"time":251.87239583333334,"velocity":0.3937007874015748},{"duration":0.05859375,"midi":67,"time":251.87239583333334,"velocity":0.3937007874015748},{"duration":0.05859375,"midi":36,"time":251.87239583333334,"velocity":0.3937007874015748},{"duration":0.05859375,"midi":48,"time":251.87239583333334,"velocity":0.3937007874015748},{"duration":0.17578125,"midi":76,"time":251.8828125,"velocity":0.3937007874015748},{"duration":0.17578125,"midi":90,"time":251.8828125,"velocity":0.3937007874015748},{"duration":0.05989583333334281,"midi":61,"time":251.8828125,"velocity":0.3937007874015748},{"duration":0.05859375,"midi":40,"time":251.89583333333334,"velocity":0.3937007874015748},{"duration":0.05989583333334281,"midi":51,"time":251.90625,"velocity":0.3937007874015748},{"duration":0.05989583333334281,"midi":57,"time":251.90625,"velocity":0.3937007874015748},{"duration":0.1744791666666572,"midi":67,"time":251.91796875,"velocity":0.3937007874015748},{"duration":0.05989583333334281,"midi":62,"time":251.953125,"velocity":0.3937007874015748},{"duration":0.05989583333334281,"midi":85,"time":251.9765625,"velocity":0.3937007874015748},{"duration":0.171875,"midi":64,"time":251.9765625,"velocity":0.3937007874015748},{"duration":0.1705729166666572,"midi":52,"time":251.98828125,"velocity":0.3937007874015748},{"duration":0.05859375,"midi":73,"time":252,"velocity":0.3937007874015748},{"duration":0.05859375,"midi":71,"time":252,"velocity":0.3937007874015748},{"duration":0.05729166666665719,"midi":60,"time":252.01302083333334,"velocity":0.3937007874015748},{"duration":0.05729166666665719,"midi":74,"time":252.01302083333334,"velocity":0.3937007874015748},{"duration":0.16796875,"midi":79,"time":252.01302083333334,"velocity":0.3937007874015748},{"duration":0.16796875,"midi":84,"time":252.0234375,"velocity":0.3937007874015748},{"duration":0.16796875,"midi":72,"time":252.0234375,"velocity":0.3937007874015748},{"duration":0.05859375,"midi":60,"time":252.04557291666666,"velocity":0.3937007874015748},{"duration":0.05859375,"midi":42,"time":252.04557291666666,"velocity":0.3937007874015748},{"duration":0.05729166666665719,"midi":51,"time":252.05859375,"velocity":0.3937007874015748},{"duration":0.05729166666665719,"midi":41,"time":252.05859375,"velocity":0.3937007874015748},{"duration":0.16796875,"midi":86,"time":252.05859375,"velocity":0.3937007874015748},{"duration":0.057291666666685614,"midi":65,"time":252.06901041666666,"velocity":0.3937007874015748},{"duration":0.05729166666665719,"midi":60,"time":252.07942708333334,"velocity":0.3937007874015748},{"duration":0.05729166666665719,"midi":74,"time":252.07942708333334,"velocity":0.3937007874015748},{"duration":0.05598958333334281,"midi":57,"time":252.09244791666666,"velocity":0.3937007874015748},{"duration":0.1692708333333428,"midi":52,"time":252.09244791666666,"velocity":0.3937007874015748},{"duration":0.0546875,"midi":71,"time":252.10416666666666,"velocity":0.3937007874015748},{"duration":0.0546875,"midi":40,"time":252.11458333333334,"velocity":0.3937007874015748},{"duration":0.0546875,"midi":81,"time":252.11458333333334,"velocity":0.3937007874015748},{"duration":0.16796875,"midi":72,"time":252.12630208333334,"velocity":0.3937007874015748},{"duration":0.16796875,"midi":84,"time":252.12630208333334,"velocity":0.3937007874015748},{"duration":0.0546875,"midi":60,"time":252.12630208333334,"velocity":0.3937007874015748},{"duration":0.0546875,"midi":91,"time":252.13671875,"velocity":0.3937007874015748},{"duration":0.05729166666665719,"midi":60,"time":252.16927083333334,"velocity":0.3937007874015748},{"duration":0.05989583333334281,"midi":54,"time":252.20182291666666,"velocity":0.3937007874015748},{"duration":0.05989583333334281,"midi":81,"time":252.20182291666666,"velocity":0.3937007874015748},{"duration":0.05989583333334281,"midi":61,"time":252.20182291666666,"velocity":0.3937007874015748},{"duration":0.05859375,"midi":74,"time":252.21354166666666,"velocity":0.3937007874015748},{"duration":0.1692708333333428,"midi":90,"time":252.21354166666666,"velocity":0.3937007874015748},{"duration":0.057291666666685614,"midi":69,"time":252.22526041666666,"velocity":0.3937007874015748},{"duration":0.14713541666668561,"midi":67,"time":252.22526041666666,"velocity":0.3937007874015748},{"duration":0.057291666666685614,"midi":50,"time":252.22526041666666,"velocity":0.3937007874015748},{"duration":0.057291666666685614,"midi":60,"time":252.23697916666666,"velocity":0.3937007874015748},{"duration":0.1692708333333428,"midi":91,"time":252.23697916666666,"velocity":0.3937007874015748},{"duration":0.057291666666685614,"midi":84,"time":252.23697916666666,"velocity":0.3937007874015748},{"duration":0.16796875,"midi":86,"time":252.24869791666666,"velocity":0.3937007874015748},{"duration":0.05598958333334281,"midi":36,"time":252.24869791666666,"velocity":0.3937007874015748},{"duration":0.05598958333334281,"midi":87,"time":252.24869791666666,"velocity":0.3937007874015748},{"duration":0.05598958333334281,"midi":82,"time":252.24869791666666,"velocity":0.3937007874015748},{"duration":0.05598958333334281,"midi":71,"time":252.24869791666666,"velocity":0.3937007874015748},{"duration":0.05598958333334281,"midi":75,"time":252.24869791666666,"velocity":0.3937007874015748},{"duration":0.05598958333334281,"midi":49,"time":252.24869791666666,"velocity":0.3937007874015748},{"duration":0.0546875,"midi":93,"time":252.26041666666666,"velocity":0.3937007874015748},{"duration":0.0546875,"midi":64,"time":252.26041666666666,"velocity":0.3937007874015748},{"duration":0.0546875,"midi":40,"time":252.27213541666666,"velocity":0.3937007874015748},{"duration":0.0546875,"midi":52,"time":252.27213541666666,"velocity":0.3937007874015748},{"duration":0.0546875,"midi":83,"time":252.27213541666666,"velocity":0.3937007874015748},{"duration":0.0546875,"midi":72,"time":252.27213541666666,"velocity":0.3937007874015748},{"duration":0.1666666666666572,"midi":84,"time":252.28255208333334,"velocity":0.3937007874015748},{"duration":0.1666666666666572,"midi":86,"time":252.29296875,"velocity":0.3937007874015748},{"duration":0.1666666666666572,"midi":74,"time":252.29296875,"velocity":0.3937007874015748},{"duration":0.6549479166666572,"midi":76,"time":252.29296875,"velocity":0.3937007874015748},{"duration":0.1666666666666572,"midi":81,"time":252.29296875,"velocity":0.3937007874015748},{"duration":0.057291666666685614,"midi":54,"time":252.30338541666666,"velocity":0.3937007874015748},{"duration":0.2890625,"midi":72,"time":252.30338541666666,"velocity":0.3937007874015748},{"duration":0.078125,"midi":67,"time":252.31510416666666,"velocity":0.3937007874015748},{"duration":0.05729166666665719,"midi":43,"time":252.32552083333334,"velocity":0.3937007874015748},{"duration":0.05729166666665719,"midi":57,"time":252.34895833333334,"velocity":0.3937007874015748},{"duration":0.05729166666665719,"midi":83,"time":252.34895833333334,"velocity":0.3937007874015748},{"duration":0.055989583333314386,"midi":40,"time":252.36067708333334,"velocity":0.3937007874015748},{"duration":0.05598958333334281,"midi":68,"time":252.37109375,"velocity":0.3937007874015748},{"duration":0.05598958333334281,"midi":56,"time":252.3828125,"velocity":0.3937007874015748},{"duration":0.05598958333334281,"midi":85,"time":252.39322916666666,"velocity":0.3937007874015748},{"duration":0.16796875,"midi":79,"time":252.40494791666666,"velocity":0.3937007874015748},{"duration":0.4114583333333428,"midi":86,"time":252.40494791666666,"velocity":0.3937007874015748},{"duration":0.0546875,"midi":59,"time":252.40494791666666,"velocity":0.3937007874015748},{"duration":0.055989583333314386,"midi":53,"time":252.41536458333334,"velocity":0.3937007874015748},{"duration":0.055989583333314386,"midi":89,"time":252.42708333333334,"velocity":0.3937007874015748},{"duration":0.055989583333314386,"midi":61,"time":252.42708333333334,"velocity":0.3937007874015748},{"duration":0.055989583333314386,"midi":43,"time":252.42708333333334,"velocity":0.3937007874015748},{"duration":0.05598958333334281,"midi":68,"time":252.4375,"velocity":0.3937007874015748},{"duration":0.05598958333334281,"midi":41,"time":252.4375,"velocity":0.3937007874015748},{"duration":0.05598958333334281,"midi":64,"time":252.44791666666666,"velocity":0.3937007874015748},{"duration":0.05598958333334281,"midi":40,"time":252.44791666666666,"velocity":0.3937007874015748},{"duration":0.171875,"midi":90,"time":252.45963541666666,"velocity":0.3937007874015748},{"duration":0.171875,"midi":57,"time":252.45963541666666,"velocity":0.3937007874015748},{"duration":0.05729166666665719,"midi":39,"time":252.48177083333334,"velocity":0.3937007874015748},{"duration":0.05729166666665719,"midi":80,"time":252.49348958333334,"velocity":0.3937007874015748},{"duration":0.05729166666665719,"midi":85,"time":252.49348958333334,"velocity":0.3937007874015748},{"duration":0.05859375,"midi":67,"time":252.50390625,"velocity":0.3937007874015748},{"duration":0.171875,"midi":79,"time":252.52604166666666,"velocity":0.3937007874015748},{"duration":0.171875,"midi":84,"time":252.52604166666666,"velocity":0.3937007874015748},{"duration":0.05859375,"midi":56,"time":252.52604166666666,"velocity":0.3937007874015748},{"duration":0.05859375,"midi":40,"time":252.54947916666666,"velocity":0.3937007874015748},{"duration":0.05859375,"midi":81,"time":252.54947916666666,"velocity":0.3937007874015748},{"duration":0.05859375,"midi":75,"time":252.54947916666666,"velocity":0.3937007874015748},{"duration":0.05859375,"midi":60,"time":252.57291666666666,"velocity":0.3937007874015748},{"duration":0.05859375,"midi":43,"time":252.57291666666666,"velocity":0.3937007874015748},{"duration":0.057291666666685614,"midi":67,"time":252.58463541666666,"velocity":0.3937007874015748},{"duration":0.057291666666685614,"midi":51,"time":252.58463541666666,"velocity":0.3937007874015748},{"duration":0.05729166666665719,"midi":72,"time":252.59505208333334,"velocity":0.3937007874015748},{"duration":0.05729166666665719,"midi":70,"time":252.59505208333334,"velocity":0.3937007874015748},{"duration":0.05729166666665719,"midi":83,"time":252.59505208333334,"velocity":0.3937007874015748},{"duration":0.057291666666685614,"midi":81,"time":252.60807291666666,"velocity":0.3937007874015748},{"duration":0.057291666666685614,"midi":47,"time":252.60807291666666,"velocity":0.3937007874015748},{"duration":0.057291666666685614,"midi":89,"time":252.60807291666666,"velocity":0.3937007874015748},{"duration":0.14713541666668561,"midi":84,"time":252.60807291666666,"velocity":0.3937007874015748},{"duration":0.05729166666665719,"midi":38,"time":252.63020833333334,"velocity":0.3937007874015748},{"duration":0.05729166666665719,"midi":65,"time":252.63020833333334,"velocity":0.3937007874015748},{"duration":0.16927083333331439,"midi":90,"time":252.63020833333334,"velocity":0.3937007874015748},{"duration":0.05729166666665719,"midi":73,"time":252.64192708333334,"velocity":0.3937007874015748},{"duration":0.16927083333331439,"midi":57,"time":252.64192708333334,"velocity":0.3937007874015748},{"duration":0.16927083333331439,"midi":67,"time":252.64192708333334,"velocity":0.3937007874015748},{"duration":0.05729166666665719,"midi":41,"time":252.65234375,"velocity":0.3937007874015748},{"duration":0.05729166666665719,"midi":63,"time":252.65234375,"velocity":0.3937007874015748},{"duration":0.05729166666665719,"midi":80,"time":252.65234375,"velocity":0.3937007874015748},{"duration":0.05729166666665719,"midi":85,"time":252.65234375,"velocity":0.3937007874015748},{"duration":0.057291666666685614,"midi":73,"time":252.67447916666666,"velocity":0.3937007874015748},{"duration":0.057291666666685614,"midi":40,"time":252.67447916666666,"velocity":0.3937007874015748},{"duration":0.057291666666685614,"midi":81,"time":252.67447916666666,"velocity":0.3937007874015748},{"duration":0.057291666666685614,"midi":51,"time":252.69791666666666,"velocity":0.3937007874015748},{"duration":0.08072916666668561,"midi":84,"time":252.69791666666666,"velocity":0.3937007874015748},{"duration":0.1705729166666572,"midi":72,"time":252.70833333333334,"velocity":0.3937007874015748},{"duration":0.05859375,"midi":64,"time":252.72005208333334,"velocity":0.3937007874015748},{"duration":0.05729166666665719,"midi":83,"time":252.73177083333334,"velocity":0.3937007874015748},{"duration":0.05729166666665719,"midi":78,"time":252.7421875,"velocity":0.3937007874015748},{"duration":0.5247395833333428,"midi":72,"time":252.78776041666666,"velocity":0.3937007874015748},{"duration":0.171875,"midi":84,"time":252.78776041666666,"velocity":0.3937007874015748},{"duration":0.05859375,"midi":64,"time":252.78776041666666,"velocity":0.3937007874015748},{"duration":0.05859375,"midi":74,"time":252.78776041666666,"velocity":0.3937007874015748},{"duration":0.05859375,"midi":53,"time":252.78776041666666,"velocity":0.3937007874015748},{"duration":0.05859375,"midi":79,"time":252.78776041666666,"velocity":0.3937007874015748},{"duration":0.05859375,"midi":81,"time":252.79947916666666,"velocity":0.3937007874015748},{"duration":0.05859375,"midi":35,"time":252.79947916666666,"velocity":0.3937007874015748},{"duration":0.05859375,"midi":65,"time":252.80989583333334,"velocity":0.3937007874015748},{"duration":0.05729166666665719,"midi":36,"time":252.82161458333334,"velocity":0.3937007874015748},{"duration":0.2994791666666572,"midi":69,"time":252.82161458333334,"velocity":0.3937007874015748},{"duration":0.17317708333331439,"midi":91,"time":252.82161458333334,"velocity":0.3937007874015748},{"duration":0.05729166666665719,"midi":90,"time":252.82161458333334,"velocity":0.3937007874015748},{"duration":0.17317708333331439,"midi":74,"time":252.85677083333334,"velocity":0.3937007874015748},{"duration":0.05729166666665719,"midi":51,"time":252.85677083333334,"velocity":0.3937007874015748},{"duration":0.05729166666665719,"midi":67,"time":252.85677083333334,"velocity":0.3937007874015748},{"duration":0.05729166666665719,"midi":57,"time":252.86848958333334,"velocity":0.3937007874015748},{"duration":0.17578125,"midi":62,"time":252.87890625,"velocity":0.3937007874015748},{"duration":0.05859375,"midi":85,"time":252.87890625,"velocity":0.3937007874015748},{"duration":0.05859375,"midi":76,"time":252.90104166666666,"velocity":0.3937007874015748},{"duration":0.05859375,"midi":57,"time":252.9140625,"velocity":0.3937007874015748},{"duration":0.05989583333334281,"midi":83,"time":252.92447916666666,"velocity":0.3937007874015748},{"duration":0.05989583333334281,"midi":50,"time":252.92447916666666,"velocity":0.3937007874015748},{"duration":0.05989583333334281,"midi":40,"time":252.92447916666666,"velocity":0.3937007874015748},{"duration":0.05989583333334281,"midi":85,"time":252.92447916666666,"velocity":0.3937007874015748},{"duration":0.1770833333333428,"midi":77,"time":252.94791666666666,"velocity":0.3937007874015748},{"duration":0.17578125,"midi":79,"time":252.95963541666666,"velocity":0.3937007874015748},{"duration":0.17578125,"midi":84,"time":252.95963541666666,"velocity":0.3937007874015748},{"duration":0.05989583333334281,"midi":65,"time":252.95963541666666,"velocity":0.3937007874015748},{"duration":0.05989583333334281,"midi":45,"time":252.99479166666666,"velocity":0.3937007874015748},{"duration":0.05859375,"midi":37,"time":253.00651041666666,"velocity":0.3937007874015748},{"duration":0.17578125,"midi":57,"time":253.00651041666666,"velocity":0.3937007874015748},{"duration":0.17578125,"midi":76,"time":253.00651041666666,"velocity":0.3937007874015748},{"duration":0.05859375,"midi":88,"time":253.00651041666666,"velocity":0.3937007874015748},{"duration":0.42578125,"midi":50,"time":253.02994791666666,"velocity":0.3937007874015748},{"duration":0.17578125,"midi":79,"time":253.04166666666666,"velocity":0.3937007874015748},{"duration":0.05989583333334281,"midi":63,"time":253.06510416666666,"velocity":0.3937007874015748},{"duration":0.17708333333331439,"midi":77,"time":253.07552083333334,"velocity":0.3937007874015748},{"duration":0.17708333333331439,"midi":88,"time":253.08723958333334,"velocity":0.3937007874015748},{"duration":0.059895833333314386,"midi":91,"time":253.08723958333334,"velocity":0.3937007874015748},{"duration":0.05989583333334281,"midi":83,"time":253.10026041666666,"velocity":0.3937007874015748},{"duration":0.17578125,"midi":86,"time":253.11197916666666,"velocity":0.3937007874015748},{"duration":0.17578125,"midi":57,"time":253.12369791666666,"velocity":0.3937007874015748},{"duration":0.17578125,"midi":79,"time":253.12369791666666,"velocity":0.3937007874015748},{"duration":0.1770833333333428,"midi":74,"time":253.13541666666666,"velocity":0.3937007874015748},{"duration":0.059895833333314386,"midi":67,"time":253.16927083333334,"velocity":0.3937007874015748},{"duration":0.059895833333314386,"midi":64,"time":253.20442708333334,"velocity":0.3937007874015748},{"duration":0.059895833333314386,"midi":42,"time":253.20442708333334,"velocity":0.3937007874015748},{"duration":0.2994791666666856,"midi":84,"time":253.22916666666666,"velocity":0.3937007874015748},{"duration":0.08463541666668561,"midi":72,"time":253.25260416666666,"velocity":0.3937007874015748},{"duration":0.05989583333334281,"midi":67,"time":253.25260416666666,"velocity":0.3937007874015748},{"duration":0.17447916666668561,"midi":76,"time":253.26432291666666,"velocity":0.3937007874015748},{"duration":0.17447916666668561,"midi":86,"time":253.26432291666666,"velocity":0.3937007874015748},{"duration":0.28125,"midi":65,"time":253.27473958333334,"velocity":0.3937007874015748},{"duration":0.059895833333314386,"midi":60,"time":253.28645833333334,"velocity":0.3937007874015748},{"duration":0.5494791666666856,"midi":69,"time":253.31119791666666,"velocity":0.3937007874015748},{"duration":0.059895833333314386,"midi":57,"time":253.32161458333334,"velocity":0.3937007874015748},{"duration":0.05859375,"midi":72,"time":253.34635416666666,"velocity":0.3937007874015748},{"duration":0.05859375,"midi":58,"time":253.34635416666666,"velocity":0.3937007874015748},{"duration":0.1744791666666572,"midi":79,"time":253.35677083333334,"velocity":0.3937007874015748},{"duration":0.05859375,"midi":61,"time":253.36979166666666,"velocity":0.3937007874015748},{"duration":0.1744791666666572,"midi":93,"time":253.39192708333334,"velocity":0.3937007874015748},{"duration":0.05859375,"midi":62,"time":253.39192708333334,"velocity":0.3937007874015748},{"duration":0.05859375,"midi":89,"time":253.39192708333334,"velocity":0.3937007874015748},{"duration":0.05729166666665719,"midi":86,"time":253.40364583333334,"velocity":0.3937007874015748},{"duration":0.05859375,"midi":51,"time":253.4375,"velocity":0.3937007874015748},{"duration":0.30078125,"midi":57,"time":253.4375,"velocity":0.3937007874015748},{"duration":0.17578125,"midi":62,"time":253.4375,"velocity":0.3937007874015748},{"duration":0.05859375,"midi":76,"time":253.45052083333334,"velocity":0.3937007874015748},{"duration":0.4244791666666572,"midi":50,"time":253.4609375,"velocity":0.3937007874015748},{"duration":0.05989583333334281,"midi":83,"time":253.484375,"velocity":0.3937007874015748},{"duration":0.07942708333334281,"midi":65,"time":253.49609375,"velocity":0.3937007874015748},{"duration":0.1770833333333428,"midi":72,"time":253.51822916666666,"velocity":0.3937007874015748},{"duration":0.17578125,"midi":65,"time":253.54296875,"velocity":0.3937007874015748},{"duration":0.05989583333334281,"midi":91,"time":253.54296875,"velocity":0.3937007874015748},{"duration":0.2981770833333428,"midi":76,"time":253.58984375,"velocity":0.3937007874015748},{"duration":0.1744791666666572,"midi":72,"time":253.625,"velocity":0.3937007874015748},{"duration":0.05859375,"midi":67,"time":253.71875,"velocity":0.3937007874015748},{"duration":0.05859375,"midi":68,"time":253.76432291666666,"velocity":0.3937007874015748},{"duration":0.05859375,"midi":64,"time":253.77604166666666,"velocity":0.3937007874015748},{"duration":0.05859375,"midi":51,"time":253.77604166666666,"velocity":0.3937007874015748},{"duration":0.30078125,"midi":69,"time":253.82161458333334,"velocity":0.3937007874015748},{"duration":0.30078125,"midi":72,"time":253.82161458333334,"velocity":0.3937007874015748},{"duration":0.1744791666666572,"midi":57,"time":253.82161458333334,"velocity":0.3937007874015748},{"duration":0.05859375,"midi":65,"time":253.82161458333334,"velocity":0.3937007874015748},{"duration":0.05859375,"midi":47,"time":253.84505208333334,"velocity":0.3937007874015748},{"duration":0.17578125,"midi":64,"time":253.88020833333334,"velocity":0.3937007874015748},{"duration":0.1770833333333428,"midi":88,"time":253.984375,"velocity":0.3937007874015748},{"duration":0.1770833333333428,"midi":65,"time":253.99609375,"velocity":0.3937007874015748},{"duration":0.1770833333333428,"midi":74,"time":253.99609375,"velocity":0.3937007874015748},{"duration":0.1770833333333428,"midi":86,"time":254.0078125,"velocity":0.3937007874015748},{"duration":0.1770833333333428,"midi":50,"time":254.0546875,"velocity":0.3937007874015748},{"duration":0.17578125,"midi":65,"time":254.10286458333334,"velocity":0.3937007874015748},{"duration":0.05859375,"midi":81,"time":254.22005208333334,"velocity":0.3937007874015748},{"duration":0.17578125,"midi":50,"time":254.23177083333334,"velocity":0.3937007874015748},{"duration":0.3020833333333428,"midi":69,"time":254.3125,"velocity":0.3937007874015748},{"duration":0.05989583333334281,"midi":65,"time":254.3125,"velocity":0.3937007874015748},{"duration":0.05989583333334281,"midi":63,"time":254.359375,"velocity":0.3937007874015748},{"duration":0.059895833333314386,"midi":72,"time":254.37239583333334,"velocity":0.3937007874015748},{"duration":0.05989583333334281,"midi":60,"time":254.39453125,"velocity":0.3937007874015748},{"duration":0.1744791666666572,"midi":50,"time":254.40625,"velocity":0.3937007874015748},{"duration":0.05859375,"midi":63,"time":254.41927083333334,"velocity":0.3937007874015748},{"duration":0.05859375,"midi":57,"time":254.45442708333334,"velocity":0.3937007874015748},{"duration":0.05859375,"midi":65,"time":254.4765625,"velocity":0.3937007874015748},{"duration":0.17578125,"midi":57,"time":254.5,"velocity":0.3937007874015748},{"duration":0.1770833333333428,"midi":65,"time":254.55729166666666,"velocity":0.3937007874015748},{"duration":0.1770833333333428,"midi":89,"time":254.58072916666666,"velocity":0.3937007874015748},{"duration":0.17578125,"midi":76,"time":254.59244791666666,"velocity":0.3937007874015748},{"duration":0.17578125,"midi":81,"time":254.59244791666666,"velocity":0.3937007874015748},{"duration":0.30078125,"midi":57,"time":254.60546875,"velocity":0.3937007874015748},{"duration":0.42578125,"midi":50,"time":254.6171875,"velocity":0.3937007874015748},{"duration":0.17578125,"midi":95,"time":254.6171875,"velocity":0.3937007874015748},{"duration":0.05989583333334281,"midi":67,"time":254.640625,"velocity":0.3937007874015748},{"duration":0.05989583333334281,"midi":64,"time":254.640625,"velocity":0.3937007874015748},{"duration":0.05989583333334281,"midi":86,"time":254.640625,"velocity":0.3937007874015748},{"duration":0.05989583333334281,"midi":91,"time":254.67447916666666,"velocity":0.3937007874015748},{"duration":0.05989583333334281,"midi":67,"time":254.6875,"velocity":0.3937007874015748},{"duration":0.1744791666666572,"midi":64,"time":254.69921875,"velocity":0.3937007874015748},{"duration":0.05859375,"midi":88,"time":254.69921875,"velocity":0.3937007874015748},{"duration":0.05989583333334281,"midi":75,"time":254.76822916666666,"velocity":0.3937007874015748},{"duration":0.05989583333334281,"midi":65,"time":254.77994791666666,"velocity":0.3937007874015748},{"duration":0.17447916666668561,"midi":86,"time":254.77994791666666,"velocity":0.3937007874015748},{"duration":0.05859375,"midi":82,"time":254.81510416666666,"velocity":0.3937007874015748},{"duration":0.05859375,"midi":65,"time":254.82682291666666,"velocity":0.3937007874015748},{"duration":0.05859375,"midi":91,"time":254.85026041666666,"velocity":0.3937007874015748},{"duration":0.17578125,"midi":64,"time":254.85026041666666,"velocity":0.3937007874015748},{"duration":0.059895833333314386,"midi":77,"time":254.96614583333334,"velocity":0.3937007874015748},{"duration":0.059895833333314386,"midi":83,"time":254.96614583333334,"velocity":0.3937007874015748},{"duration":0.059895833333314386,"midi":63,"time":255.00130208333334,"velocity":0.3937007874015748},{"duration":0.17578125,"midi":75,"time":255.00130208333334,"velocity":0.3937007874015748},{"duration":0.05859375,"midi":82,"time":255.01302083333334,"velocity":0.3937007874015748},{"duration":0.17578125,"midi":65,"time":255.03645833333334,"velocity":0.3937007874015748},{"duration":0.17578125,"midi":62,"time":255.07161458333334,"velocity":0.3937007874015748},{"duration":0.05989583333334281,"midi":83,"time":255.12890625,"velocity":0.3937007874015748},{"duration":0.05989583333334281,"midi":74,"time":255.1640625,"velocity":0.3937007874015748},{"duration":0.05989583333334281,"midi":47,"time":255.1640625,"velocity":0.3937007874015748},{"duration":0.17578125,"midi":47,"time":255.19921875,"velocity":0.3937007874015748},{"duration":0.05989583333334281,"midi":62,"time":255.2109375,"velocity":0.3937007874015748},{"duration":0.05989583333334281,"midi":81,"time":255.2109375,"velocity":0.3937007874015748},{"duration":0.05989583333334281,"midi":52,"time":255.2109375,"velocity":0.3937007874015748},{"duration":0.05989583333334281,"midi":65,"time":255.234375,"velocity":0.3937007874015748},{"duration":0.1770833333333428,"midi":69,"time":255.234375,"velocity":0.3937007874015748},{"duration":0.30078125,"midi":81,"time":255.28125,"velocity":0.3937007874015748},{"duration":0.05989583333334281,"midi":65,"time":255.28125,"velocity":0.3937007874015748},{"duration":0.05859375,"midi":41,"time":255.29296875,"velocity":0.3937007874015748},{"duration":0.2994791666666572,"midi":74,"time":255.31640625,"velocity":0.3937007874015748},{"duration":0.05989583333334281,"midi":51,"time":255.3515625,"velocity":0.3937007874015748},{"duration":0.15234375,"midi":88,"time":255.3515625,"velocity":0.3937007874015748},{"duration":0.17578125,"midi":88,"time":255.3515625,"velocity":0.3937007874015748},{"duration":0.05989583333334281,"midi":77,"time":255.36197916666666,"velocity":0.3937007874015748},{"duration":0.05989583333334281,"midi":84,"time":255.36197916666666,"velocity":0.3937007874015748},{"duration":0.05989583333334281,"midi":82,"time":255.36197916666666,"velocity":0.3937007874015748},{"duration":0.05989583333334281,"midi":50,"time":255.375,"velocity":0.3937007874015748},{"duration":0.17578125,"midi":89,"time":255.375,"velocity":0.3937007874015748},{"duration":0.05989583333334281,"midi":68,"time":255.375,"velocity":0.3937007874015748},{"duration":0.05859375,"midi":57,"time":255.38671875,"velocity":0.3937007874015748},{"duration":0.17578125,"midi":95,"time":255.38671875,"velocity":0.3937007874015748},{"duration":0.05859375,"midi":60,"time":255.3984375,"velocity":0.3937007874015748},{"duration":0.1744791666666572,"midi":64,"time":255.41015625,"velocity":0.3937007874015748},{"duration":0.17578125,"midi":57,"time":255.421875,"velocity":0.3937007874015748},{"duration":0.08333333333334281,"midi":88,"time":255.44401041666666,"velocity":0.3937007874015748},{"duration":0.17447916666668561,"midi":86,"time":255.44401041666666,"velocity":0.3937007874015748},{"duration":0.05989583333334281,"midi":62,"time":255.47916666666666,"velocity":0.3937007874015748},{"duration":0.05989583333334281,"midi":50,"time":255.51432291666666,"velocity":0.3937007874015748},{"duration":0.6757812500000284,"midi":81,"time":255.51432291666666,"velocity":0.3937007874015748},{"duration":0.05859375,"midi":63,"time":255.5390625,"velocity":0.3937007874015748},{"duration":0.05859375,"midi":76,"time":255.54947916666666,"velocity":0.3937007874015748},{"duration":0.05859375,"midi":60,"time":255.54947916666666,"velocity":0.3937007874015748},{"duration":0.1731770833333428,"midi":83,"time":255.54947916666666,"velocity":0.3937007874015748},{"duration":0.057291666666685614,"midi":52,"time":255.56119791666666,"velocity":0.3937007874015748},{"duration":0.171875,"midi":64,"time":255.57421875,"velocity":0.3937007874015748},{"duration":0.171875,"midi":67,"time":255.58463541666666,"velocity":0.3937007874015748},{"duration":0.2955729166666856,"midi":74,"time":255.58463541666666,"velocity":0.3937007874015748},{"duration":0.057291666666685614,"midi":45,"time":255.58463541666666,"velocity":0.3937007874015748},{"duration":0.057291666666685614,"midi":70,"time":255.60807291666666,"velocity":0.3937007874015748},{"duration":0.057291666666685614,"midi":60,"time":255.60807291666666,"velocity":0.3937007874015748},{"duration":0.05859375,"midi":51,"time":255.64192708333334,"velocity":0.3937007874015748},{"duration":0.16145833333331439,"midi":88,"time":255.64192708333334,"velocity":0.3937007874015748},{"duration":0.1731770833333428,"midi":45,"time":255.67447916666666,"velocity":0.3937007874015748},{"duration":0.05859375,"midi":51,"time":255.6875,"velocity":0.3937007874015748},{"duration":0.05859375,"midi":76,"time":255.74479166666666,"velocity":0.3937007874015748},{"duration":0.0703125,"midi":88,"time":255.74479166666666,"velocity":0.3937007874015748},{"duration":0.05859375,"midi":64,"time":255.75651041666666,"velocity":0.3937007874015748},{"duration":0.05859375,"midi":46,"time":255.75651041666666,"velocity":0.3937007874015748},{"duration":0.1731770833333428,"midi":57,"time":255.76822916666666,"velocity":0.3937007874015748},{"duration":0.057291666666685614,"midi":75,"time":255.77994791666666,"velocity":0.3937007874015748},{"duration":0.057291666666685614,"midi":83,"time":255.77994791666666,"velocity":0.3937007874015748},{"duration":0.17447916666668561,"midi":88,"time":255.80338541666666,"velocity":0.3937007874015748},{"duration":0.1770833333333428,"midi":62,"time":255.83723958333334,"velocity":0.3937007874015748},{"duration":0.05859375,"midi":41,"time":255.859375,"velocity":0.3937007874015748},{"duration":0.1783854166666572,"midi":57,"time":255.94010416666666,"velocity":0.3937007874015748},{"duration":0.061197916666685614,"midi":61,"time":255.953125,"velocity":0.3937007874015748},{"duration":0.17838541666668561,"midi":52,"time":255.96484375,"velocity":0.3937007874015748},{"duration":0.17838541666668561,"midi":45,"time":255.9765625,"velocity":0.3937007874015748},{"duration":0.1783854166666572,"midi":65,"time":255.98958333333334,"velocity":0.3937007874015748},{"duration":0.05989583333337123,"midi":61,"time":256.0013020833333,"velocity":0.3937007874015748},{"duration":0.061197916666685614,"midi":46,"time":256.1067708333333,"velocity":0.3937007874015748},{"duration":0.42317708333337123,"midi":70,"time":256.1302083333333,"velocity":0.3937007874015748},{"duration":0.05989583333337123,"midi":51,"time":256.1302083333333,"velocity":0.3937007874015748},{"duration":0.05859375,"midi":60,"time":256.1432291666667,"velocity":0.3937007874015748},{"duration":0.41666666666662877,"midi":65,"time":256.1432291666667,"velocity":0.3937007874015748},{"duration":0.05859375,"midi":88,"time":256.1432291666667,"velocity":0.3937007874015748},{"duration":0.05729166666662877,"midi":93,"time":256.1666666666667,"velocity":0.3937007874015748},{"duration":0.17057291666662877,"midi":50,"time":256.1666666666667,"velocity":0.3937007874015748},{"duration":0.17057291666662877,"midi":84,"time":256.1666666666667,"velocity":0.3937007874015748},{"duration":0.05729166666662877,"midi":43,"time":256.1901041666667,"velocity":0.3937007874015748},{"duration":0.05729166666662877,"midi":58,"time":256.1901041666667,"velocity":0.3937007874015748},{"duration":0.057291666666685614,"midi":28,"time":256.2005208333333,"velocity":0.3937007874015748},{"duration":0.41927083333337123,"midi":81,"time":256.2005208333333,"velocity":0.3937007874015748},{"duration":0.057291666666685614,"midi":59,"time":256.2109375,"velocity":0.3937007874015748},{"duration":0.057291666666685614,"midi":88,"time":256.2239583333333,"velocity":0.3937007874015748},{"duration":0.2981770833333144,"midi":74,"time":256.24609375,"velocity":0.3937007874015748},{"duration":0.17447916666668561,"midi":43,"time":256.2578125,"velocity":0.3937007874015748},{"duration":0.05859375,"midi":59,"time":256.2682291666667,"velocity":0.3937007874015748},{"duration":0.17447916666662877,"midi":88,"time":256.3033854166667,"velocity":0.3937007874015748},{"duration":0.05859375,"midi":62,"time":256.3255208333333,"velocity":0.3937007874015748},{"duration":0.05989583333337123,"midi":31,"time":256.3372395833333,"velocity":0.3937007874015748},{"duration":0.17447916666668561,"midi":84,"time":256.3489583333333,"velocity":0.3937007874015748},{"duration":0.17578125,"midi":58,"time":256.3723958333333,"velocity":0.3937007874015748},{"duration":0.05859375,"midi":43,"time":256.4192708333333,"velocity":0.3937007874015748},{"duration":0.05859375,"midi":62,"time":256.4544270833333,"velocity":0.3937007874015748},{"duration":0.059895833333314386,"midi":58,"time":256.5,"velocity":0.3937007874015748},{"duration":0.059895833333314386,"midi":62,"time":256.5,"velocity":0.3937007874015748},{"duration":0.06510416666668561,"midi":65,"time":256.5,"velocity":0.3937007874015748},{"duration":0.05859375,"midi":53,"time":256.51171875,"velocity":0.3937007874015748},{"duration":0.05859375,"midi":41,"time":256.5221354166667,"velocity":0.3937007874015748},{"duration":0.05859375,"midi":61,"time":256.5221354166667,"velocity":0.3937007874015748},{"duration":0.171875,"midi":71,"time":256.53515625,"velocity":0.3937007874015748},{"duration":0.057291666666685614,"midi":88,"time":256.53515625,"velocity":0.3937007874015748},{"duration":0.057291666666685614,"midi":37,"time":256.53515625,"velocity":0.3937007874015748},{"duration":0.171875,"midi":55,"time":256.53515625,"velocity":0.3937007874015748},{"duration":0.171875,"midi":84,"time":256.546875,"velocity":0.3937007874015748},{"duration":0.171875,"midi":95,"time":256.546875,"velocity":0.3937007874015748},{"duration":0.055989583333314386,"midi":60,"time":256.55859375,"velocity":0.3937007874015748},{"duration":0.055989583333314386,"midi":88,"time":256.5703125,"velocity":0.3937007874015748},{"duration":0.05729166666662877,"midi":29,"time":256.5807291666667,"velocity":0.3937007874015748},{"duration":0.057291666666685614,"midi":43,"time":256.5911458333333,"velocity":0.3937007874015748},{"duration":0.296875,"midi":74,"time":256.6028645833333,"velocity":0.3937007874015748},{"duration":0.296875,"midi":70,"time":256.6145833333333,"velocity":0.3937007874015748},{"duration":0.057291666666685614,"midi":59,"time":256.6145833333333,"velocity":0.3937007874015748},{"duration":0.17317708333337123,"midi":62,"time":256.6145833333333,"velocity":0.3937007874015748},{"duration":0.05859375,"midi":42,"time":256.625,"velocity":0.3937007874015748},{"duration":0.17317708333331439,"midi":65,"time":256.625,"velocity":0.3937007874015748},{"duration":0.5481770833333144,"midi":81,"time":256.6484375,"velocity":0.3937007874015748},{"duration":0.059895833333314386,"midi":58,"time":256.7057291666667,"velocity":0.3937007874015748},{"duration":0.05859375,"midi":42,"time":256.71875,"velocity":0.3937007874015748},{"duration":0.057291666666685614,"midi":60,"time":256.73046875,"velocity":0.3937007874015748},{"duration":0.055989583333314386,"midi":64,"time":256.7421875,"velocity":0.3937007874015748},{"duration":0.055989583333314386,"midi":77,"time":256.7421875,"velocity":0.3937007874015748},{"duration":0.171875,"midi":63,"time":256.765625,"velocity":0.3937007874015748},{"duration":0.05729166666662877,"midi":61,"time":256.7760416666667,"velocity":0.3937007874015748},{"duration":0.2994791666666856,"midi":58,"time":256.7864583333333,"velocity":0.3937007874015748},{"duration":0.2994791666666856,"midi":65,"time":256.8333333333333,"velocity":0.3937007874015748},{"duration":0.2994791666666856,"midi":74,"time":256.87890625,"velocity":0.3937007874015748},{"duration":0.17447916666662877,"midi":88,"time":256.9713541666667,"velocity":0.3937007874015748},{"duration":0.059895833333314386,"midi":60,"time":256.9947916666667,"velocity":0.3937007874015748},{"duration":0.059895833333314386,"midi":58,"time":257.0299479166667,"velocity":0.3937007874015748},{"duration":0.05859375,"midi":70,"time":257.0768229166667,"velocity":0.3937007874015748},{"duration":0.05729166666662877,"midi":75,"time":257.0885416666667,"velocity":0.3937007874015748},{"duration":0.17447916666662877,"midi":86,"time":257.0885416666667,"velocity":0.3937007874015748},{"duration":0.05859375,"midi":63,"time":257.1002604166667,"velocity":0.3937007874015748},{"duration":0.17578125,"midi":50,"time":257.1002604166667,"velocity":0.3937007874015748},{"duration":0.05859375,"midi":77,"time":257.1354166666667,"velocity":0.3937007874015748},{"duration":0.17708333333337123,"midi":43,"time":257.1458333333333,"velocity":0.3937007874015748},{"duration":0.05989583333337123,"midi":82,"time":257.1458333333333,"velocity":0.3937007874015748},{"duration":0.3020833333333144,"midi":81,"time":257.16796875,"velocity":0.3937007874015748},{"duration":0.17708333333337123,"midi":65,"time":257.1809895833333,"velocity":0.3937007874015748},{"duration":0.05989583333337123,"midi":59,"time":257.1927083333333,"velocity":0.3937007874015748},{"duration":0.05989583333337123,"midi":31,"time":257.1927083333333,"velocity":0.3937007874015748},{"duration":0.2994791666666856,"midi":65,"time":257.2747395833333,"velocity":0.3937007874015748},{"duration":0.05989583333337123,"midi":31,"time":257.2864583333333,"velocity":0.3937007874015748},{"duration":0.17447916666662877,"midi":74,"time":257.2994791666667,"velocity":0.3937007874015748},{"duration":0.17447916666662877,"midi":62,"time":257.3346354166667,"velocity":0.3937007874015748},{"duration":0.17447916666668561,"midi":81,"time":257.4153645833333,"velocity":0.3937007874015748},{"duration":0.05859375,"midi":58,"time":257.4270833333333,"velocity":0.3937007874015748},{"duration":0.05859375,"midi":62,"time":257.4505208333333,"velocity":0.3937007874015748},{"duration":0.05859375,"midi":37,"time":257.47265625,"velocity":0.3937007874015748},{"duration":0.17447916666668561,"midi":62,"time":257.4856770833333,"velocity":0.3937007874015748},{"duration":0.17578125,"midi":48,"time":257.49609375,"velocity":0.3937007874015748},{"duration":0.17578125,"midi":90,"time":257.5078125,"velocity":0.3937007874015748},{"duration":0.17708333333331439,"midi":70,"time":257.5182291666667,"velocity":0.3937007874015748},{"duration":0.17708333333331439,"midi":41,"time":257.5416666666667,"velocity":0.3937007874015748},{"duration":0.06119791666662877,"midi":75,"time":257.6471354166667,"velocity":0.3937007874015748},{"duration":0.17447916666662877,"midi":90,"time":257.6471354166667,"velocity":0.3937007874015748},{"duration":0.06119791666662877,"midi":71,"time":257.6471354166667,"velocity":0.3937007874015748},{"duration":0.059895833333314386,"midi":81,"time":257.6588541666667,"velocity":0.3937007874015748},{"duration":0.059895833333314386,"midi":52,"time":257.6588541666667,"velocity":0.3937007874015748},{"duration":0.059895833333314386,"midi":63,"time":257.6588541666667,"velocity":0.3937007874015748},{"duration":0.05859375,"midi":40,"time":257.6705729166667,"velocity":0.3937007874015748},{"duration":0.057291666666685614,"midi":37,"time":257.68359375,"velocity":0.3937007874015748},{"duration":0.057291666666685614,"midi":82,"time":257.68359375,"velocity":0.3937007874015748},{"duration":0.17317708333331439,"midi":67,"time":257.68359375,"velocity":0.3937007874015748},{"duration":0.171875,"midi":50,"time":257.6953125,"velocity":0.3937007874015748},{"duration":0.171875,"midi":62,"time":257.6953125,"velocity":0.3937007874015748},{"duration":0.29296875,"midi":43,"time":257.70703125,"velocity":0.3937007874015748},{"duration":0.057291666666685614,"midi":59,"time":257.71875,"velocity":0.3937007874015748},{"duration":0.057291666666685614,"midi":75,"time":257.71875,"velocity":0.3937007874015748},{"duration":0.057291666666685614,"midi":86,"time":257.71875,"velocity":0.3937007874015748},{"duration":0.14973958333331439,"midi":81,"time":257.7291666666667,"velocity":0.3937007874015748},{"duration":0.05859375,"midi":30,"time":257.7395833333333,"velocity":0.3937007874015748},{"duration":0.13802083333337123,"midi":50,"time":257.7747395833333,"velocity":0.3937007874015748},{"duration":0.059895833333314386,"midi":31,"time":257.78515625,"velocity":0.3937007874015748},{"duration":0.05859375,"midi":63,"time":257.7981770833333,"velocity":0.3937007874015748},{"duration":0.17057291666668561,"midi":83,"time":257.8203125,"velocity":0.3937007874015748},{"duration":0.08072916666668561,"midi":81,"time":257.8203125,"velocity":0.3937007874015748},{"duration":0.17057291666668561,"midi":74,"time":257.8203125,"velocity":0.3937007874015748},{"duration":0.057291666666685614,"midi":64,"time":257.8333333333333,"velocity":0.3937007874015748},{"duration":0.09114583333331439,"midi":50,"time":257.85546875,"velocity":0.3937007874015748},{"duration":0.057291666666685614,"midi":82,"time":257.85546875,"velocity":0.3937007874015748},{"duration":0.057291666666685614,"midi":59,"time":257.8671875,"velocity":0.3937007874015748},{"duration":0.17057291666668561,"midi":81,"time":257.87890625,"velocity":0.3937007874015748},{"duration":0.05729166666662877,"midi":65,"time":257.8893229166667,"velocity":0.3937007874015748},{"duration":0.05729166666662877,"midi":84,"time":257.8893229166667,"velocity":0.3937007874015748},{"duration":0.057291666666685614,"midi":58,"time":257.8997395833333,"velocity":0.3937007874015748},{"duration":0.057291666666685614,"midi":41,"time":257.9231770833333,"velocity":0.3937007874015748},{"duration":0.17057291666668561,"midi":83,"time":257.9466145833333,"velocity":0.3937007874015748},{"duration":0.057291666666685614,"midi":88,"time":257.9466145833333,"velocity":0.3937007874015748},{"duration":0.17057291666668561,"midi":64,"time":257.9466145833333,"velocity":0.3937007874015748},{"duration":0.057291666666685614,"midi":74,"time":257.95703125,"velocity":0.3937007874015748},{"duration":0.2981770833333144,"midi":58,"time":257.9674479166667,"velocity":0.3937007874015748},{"duration":0.05859375,"midi":82,"time":258.0130208333333,"velocity":0.3937007874015748},{"duration":0.17447916666668561,"midi":63,"time":258.0364583333333,"velocity":0.3937007874015748},{"duration":0.17447916666668561,"midi":77,"time":258.0481770833333,"velocity":0.3937007874015748},{"duration":0.057291666666685614,"midi":82,"time":258.0481770833333,"velocity":0.3937007874015748},{"duration":0.057291666666685614,"midi":83,"time":258.0716145833333,"velocity":0.3937007874015748},{"duration":0.17447916666668561,"midi":74,"time":258.0716145833333,"velocity":0.3937007874015748},{"duration":0.05859375,"midi":81,"time":258.08203125,"velocity":0.3937007874015748},{"duration":0.05859375,"midi":62,"time":258.10546875,"velocity":0.3937007874015748},{"duration":0.059895833333314386,"midi":74,"time":258.1861979166667,"velocity":0.3937007874015748},{"duration":0.059895833333314386,"midi":81,"time":258.1979166666667,"velocity":0.3937007874015748},{"duration":0.059895833333314386,"midi":77,"time":258.1979166666667,"velocity":0.3937007874015748},{"duration":0.05859375,"midi":83,"time":258.2109375,"velocity":0.3937007874015748},{"duration":0.17317708333331439,"midi":74,"time":258.24609375,"velocity":0.3937007874015748},{"duration":0.17447916666662877,"midi":62,"time":258.3033854166667,"velocity":0.3937007874015748},{"duration":0.05859375,"midi":65,"time":258.3268229166667,"velocity":0.3937007874015748},{"duration":0.05859375,"midi":81,"time":258.3489583333333,"velocity":0.3937007874015748},{"duration":0.17317708333337123,"midi":63,"time":258.3723958333333,"velocity":0.3937007874015748},{"duration":0.171875,"midi":82,"time":258.3841145833333,"velocity":0.3937007874015748},{"duration":0.05989583333337123,"midi":69,"time":258.4075520833333,"velocity":0.3937007874015748},{"duration":0.059895833333314386,"midi":91,"time":258.41796875,"velocity":0.3937007874015748},{"duration":0.059895833333314386,"midi":77,"time":258.41796875,"velocity":0.3937007874015748},{"duration":0.059895833333314386,"midi":45,"time":258.41796875,"velocity":0.3937007874015748},{"duration":0.05859375,"midi":32,"time":258.4296875,"velocity":0.3937007874015748},{"duration":0.05859375,"midi":51,"time":258.4296875,"velocity":0.3937007874015748},{"duration":0.057291666666685614,"midi":48,"time":258.4427083333333,"velocity":0.3937007874015748},{"duration":0.057291666666685614,"midi":88,"time":258.4427083333333,"velocity":0.3937007874015748},{"duration":0.17317708333337123,"midi":95,"time":258.4427083333333,"velocity":0.3937007874015748},{"duration":0.057291666666685614,"midi":68,"time":258.4427083333333,"velocity":0.3937007874015748},{"duration":0.7994791666666856,"midi":45,"time":258.4544270833333,"velocity":0.3937007874015748},{"duration":0.05598958333337123,"midi":67,"time":258.4661458333333,"velocity":0.3937007874015748},{"duration":0.05598958333337123,"midi":32,"time":258.4661458333333,"velocity":0.3937007874015748},{"duration":0.057291666666685614,"midi":62,"time":258.4778645833333,"velocity":0.3937007874015748},{"duration":0.17317708333337123,"midi":52,"time":258.4778645833333,"velocity":0.3937007874015748},{"duration":0.17447916666668561,"midi":86,"time":258.48828125,"velocity":0.3937007874015748},{"duration":0.057291666666685614,"midi":33,"time":258.48828125,"velocity":0.3937007874015748},{"duration":0.17447916666662877,"midi":89,"time":258.4986979166667,"velocity":0.3937007874015748},{"duration":0.17447916666662877,"midi":74,"time":258.4986979166667,"velocity":0.3937007874015748},{"duration":0.05859375,"midi":62,"time":258.5091145833333,"velocity":0.3937007874015748},{"duration":0.05989583333337123,"midi":33,"time":258.5559895833333,"velocity":0.3937007874015748},{"duration":0.05989583333337123,"midi":82,"time":258.5559895833333,"velocity":0.3937007874015748},{"duration":0.05989583333337123,"midi":63,"time":258.5559895833333,"velocity":0.3937007874015748},{"duration":0.30078125,"midi":83,"time":258.5911458333333,"velocity":0.3937007874015748},{"duration":0.30078125,"midi":76,"time":258.5911458333333,"velocity":0.3937007874015748},{"duration":0.05989583333337123,"midi":81,"time":258.6028645833333,"velocity":0.3937007874015748},{"duration":0.05989583333337123,"midi":60,"time":258.6263020833333,"velocity":0.3937007874015748},{"duration":0.17578125,"midi":52,"time":258.6263020833333,"velocity":0.3937007874015748},{"duration":0.17578125,"midi":33,"time":258.6263020833333,"velocity":0.3937007874015748},{"duration":0.05989583333337123,"midi":63,"time":258.6380208333333,"velocity":0.3937007874015748},{"duration":0.17447916666668561,"midi":86,"time":258.6497395833333,"velocity":0.3937007874015748},{"duration":0.17447916666668561,"midi":64,"time":258.6614583333333,"velocity":0.3937007874015748},{"duration":0.17447916666668561,"midi":91,"time":258.6614583333333,"velocity":0.3937007874015748},{"duration":0.05859375,"midi":70,"time":258.6614583333333,"velocity":0.3937007874015748},{"duration":0.17578125,"midi":52,"time":258.73046875,"velocity":0.3937007874015748},{"duration":0.059895833333314386,"midi":82,"time":258.7890625,"velocity":0.3937007874015748},{"duration":0.059895833333314386,"midi":75,"time":258.7890625,"velocity":0.3937007874015748},{"duration":0.17708333333331439,"midi":33,"time":258.7890625,"velocity":0.3937007874015748},{"duration":0.059895833333314386,"midi":56,"time":258.82421875,"velocity":0.3937007874015748},{"duration":0.17708333333331439,"midi":81,"time":258.82421875,"velocity":0.3937007874015748},{"duration":0.17708333333331439,"midi":62,"time":258.82421875,"velocity":0.3937007874015748},{"duration":0.17578125,"midi":76,"time":258.84765625,"velocity":0.3937007874015748},{"duration":0.17708333333331439,"midi":83,"time":258.8932291666667,"velocity":0.3937007874015748},{"duration":0.059895833333314386,"midi":33,"time":258.91796875,"velocity":0.3937007874015748},{"duration":0.30078125,"midi":52,"time":258.91796875,"velocity":0.3937007874015748},{"duration":0.059895833333314386,"midi":33,"time":258.953125,"velocity":0.3937007874015748},{"duration":0.05859375,"midi":62,"time":258.9778645833333,"velocity":0.3937007874015748},{"duration":0.17578125,"midi":83,"time":259,"velocity":0.3937007874015748},{"duration":0.17578125,"midi":81,"time":259,"velocity":0.3937007874015748},{"duration":0.17578125,"midi":33,"time":259.0234375,"velocity":0.3937007874015748},{"duration":0.059895833333314386,"midi":74,"time":259.0234375,"velocity":0.3937007874015748},{"duration":0.05859375,"midi":63,"time":259.140625,"velocity":0.3937007874015748},{"duration":0.05859375,"midi":81,"time":259.1627604166667,"velocity":0.3937007874015748},{"duration":0.05859375,"midi":80,"time":259.1979166666667,"velocity":0.3937007874015748},{"duration":0.05859375,"midi":64,"time":259.1979166666667,"velocity":0.3937007874015748},{"duration":0.17317708333331439,"midi":74,"time":259.1979166666667,"velocity":0.3937007874015748},{"duration":0.059895833333314386,"midi":70,"time":259.2096354166667,"velocity":0.3937007874015748},{"duration":0.059895833333314386,"midi":53,"time":259.2096354166667,"velocity":0.3937007874015748},{"duration":0.059895833333314386,"midi":60,"time":259.2096354166667,"velocity":0.3937007874015748},{"duration":0.17447916666668561,"midi":77,"time":259.2317708333333,"velocity":0.3937007874015748},{"duration":0.4244791666666856,"midi":81,"time":259.2317708333333,"velocity":0.3937007874015748},{"duration":0.05989583333337123,"midi":37,"time":259.2317708333333,"velocity":0.3937007874015748},{"duration":0.05989583333337123,"midi":63,"time":259.2317708333333,"velocity":0.3937007874015748},{"duration":0.05989583333337123,"midi":84,"time":259.2317708333333,"velocity":0.3937007874015748},{"duration":0.17317708333331439,"midi":69,"time":259.2447916666667,"velocity":0.3937007874015748},{"duration":0.05859375,"midi":54,"time":259.2447916666667,"velocity":0.3937007874015748},{"duration":0.05729166666662877,"midi":57,"time":259.2565104166667,"velocity":0.3937007874015748},{"duration":0.171875,"midi":62,"time":259.3020833333333,"velocity":0.3937007874015748},{"duration":0.171875,"midi":84,"time":259.3020833333333,"velocity":0.3937007874015748},{"duration":0.05859375,"midi":53,"time":259.3020833333333,"velocity":0.3937007874015748},{"duration":0.17317708333331439,"midi":46,"time":259.3125,"velocity":0.3937007874015748},{"duration":0.05859375,"midi":34,"time":259.34765625,"velocity":0.3937007874015748},{"duration":0.057291666666685614,"midi":33,"time":259.3828125,"velocity":0.3937007874015748},{"duration":0.17317708333331439,"midi":65,"time":259.3828125,"velocity":0.3937007874015748},{"duration":0.17317708333331439,"midi":60,"time":259.3828125,"velocity":0.3937007874015748},{"duration":0.057291666666685614,"midi":34,"time":259.40625,"velocity":0.3937007874015748},{"duration":0.17447916666668561,"midi":86,"time":259.40625,"velocity":0.3937007874015748},{"duration":0.17447916666668561,"midi":70,"time":259.40625,"velocity":0.3937007874015748},{"duration":0.17578125,"midi":50,"time":259.4401041666667,"velocity":0.3937007874015748},{"duration":0.05989583333337123,"midi":33,"time":259.4505208333333,"velocity":0.3937007874015748},{"duration":0.17578125,"midi":69,"time":259.4622395833333,"velocity":0.3937007874015748},{"duration":0.05989583333337123,"midi":34,"time":259.4739583333333,"velocity":0.3937007874015748},{"duration":0.05989583333337123,"midi":58,"time":259.5208333333333,"velocity":0.3937007874015748},{"duration":0.05989583333337123,"midi":44,"time":259.5559895833333,"velocity":0.3937007874015748},{"duration":0.05989583333337123,"midi":84,"time":259.5559895833333,"velocity":0.3937007874015748},{"duration":0.30078125,"midi":77,"time":259.5677083333333,"velocity":0.3937007874015748},{"duration":0.17578125,"midi":58,"time":259.5794270833333,"velocity":0.3937007874015748},{"duration":0.05859375,"midi":45,"time":259.5794270833333,"velocity":0.3937007874015748},{"duration":0.14192708333337123,"midi":65,"time":259.5911458333333,"velocity":0.3937007874015748},{"duration":0.05989583333337123,"midi":37,"time":259.5911458333333,"velocity":0.3937007874015748},{"duration":0.05989583333337123,"midi":47,"time":259.5911458333333,"velocity":0.3937007874015748},{"duration":0.05989583333337123,"midi":89,"time":259.5911458333333,"velocity":0.3937007874015748},{"duration":0.05989583333337123,"midi":88,"time":259.6028645833333,"velocity":0.3937007874015748},{"duration":0.05989583333337123,"midi":46,"time":259.6028645833333,"velocity":0.3937007874015748},{"duration":0.30078125,"midi":74,"time":259.6145833333333,"velocity":0.3937007874015748},{"duration":0.17578125,"midi":95,"time":259.6263020833333,"velocity":0.3937007874015748},{"duration":0.09375,"midi":65,"time":259.6731770833333,"velocity":0.3937007874015748},{"duration":0.17447916666668561,"midi":69,"time":259.6848958333333,"velocity":0.3937007874015748},{"duration":0.17447916666668561,"midi":84,"time":259.6848958333333,"velocity":0.3937007874015748},{"duration":0.05859375,"midi":62,"time":259.6966145833333,"velocity":0.3937007874015748},{"duration":0.05859375,"midi":50,"time":259.6966145833333,"velocity":0.3937007874015748},{"duration":0.05859375,"midi":57,"time":259.7317708333333,"velocity":0.3937007874015748},{"duration":0.059895833333314386,"midi":63,"time":259.765625,"velocity":0.3937007874015748},{"duration":0.17578125,"midi":50,"time":259.77734375,"velocity":0.3937007874015748},{"duration":0.05859375,"midi":60,"time":259.7903645833333,"velocity":0.3937007874015748},{"duration":0.30078125,"midi":65,"time":259.84765625,"velocity":0.3937007874015748},{"duration":0.059895833333314386,"midi":58,"time":259.8828125,"velocity":0.3937007874015748},{"duration":0.2981770833333144,"midi":69,"time":259.9296875,"velocity":0.3937007874015748},{"duration":0.059895833333314386,"midi":50,"time":260.0455729166667,"velocity":0.3937007874015748},{"duration":0.05859375,"midi":62,"time":260.05859375,"velocity":0.3937007874015748},{"duration":0.05859375,"midi":62,"time":260.10546875,"velocity":0.3937007874015748},{"duration":0.05859375,"midi":48,"time":260.1158854166667,"velocity":0.3937007874015748},{"duration":0.05859375,"midi":59,"time":260.1276041666667,"velocity":0.3937007874015748},{"duration":0.17447916666662877,"midi":74,"time":260.1393229166667,"velocity":0.3937007874015748},{"duration":0.05729166666662877,"midi":68,"time":260.1393229166667,"velocity":0.3937007874015748},{"duration":0.05729166666662877,"midi":51,"time":260.1393229166667,"velocity":0.3937007874015748},{"duration":0.17447916666662877,"midi":72,"time":260.1393229166667,"velocity":0.3937007874015748},{"duration":0.05729166666662877,"midi":81,"time":260.1510416666667,"velocity":0.3937007874015748},{"duration":0.4231770833333144,"midi":65,"time":260.1510416666667,"velocity":0.3937007874015748},{"duration":0.4231770833333144,"midi":62,"time":260.1744791666667,"velocity":0.3937007874015748},{"duration":0.17447916666662877,"midi":46,"time":260.1744791666667,"velocity":0.3937007874015748},{"duration":0.17578125,"midi":53,"time":260.1848958333333,"velocity":0.3937007874015748},{"duration":0.059895833333314386,"midi":93,"time":260.1953125,"velocity":0.3937007874015748},{"duration":0.059895833333314386,"midi":87,"time":260.1953125,"velocity":0.3937007874015748},{"duration":0.17578125,"midi":84,"time":260.1953125,"velocity":0.3937007874015748},{"duration":0.17578125,"midi":34,"time":260.23046875,"velocity":0.3937007874015748},{"duration":0.059895833333314386,"midi":89,"time":260.23046875,"velocity":0.3937007874015748},{"duration":0.059895833333314386,"midi":69,"time":260.30078125,"velocity":0.3937007874015748},{"duration":0.17317708333331439,"midi":77,"time":260.4986979166667,"velocity":0.3937007874015748},{"duration":0.05859375,"midi":45,"time":260.5104166666667,"velocity":0.3937007874015748},{"duration":0.05859375,"midi":65,"time":260.5338541666667,"velocity":0.3937007874015748},{"duration":0.05859375,"midi":58,"time":260.5572916666667,"velocity":0.3937007874015748},{"duration":0.17317708333337123,"midi":45,"time":260.5794270833333,"velocity":0.3937007874015748},{"duration":0.05859375,"midi":52,"time":260.6028645833333,"velocity":0.3937007874015748},{"duration":0.17447916666668561,"midi":62,"time":260.6028645833333,"velocity":0.3937007874015748},{"duration":0.057291666666685614,"midi":31,"time":260.6145833333333,"velocity":0.3937007874015748},{"duration":0.17317708333337123,"midi":67,"time":260.6263020833333,"velocity":0.3937007874015748},{"duration":0.05859375,"midi":77,"time":260.671875,"velocity":0.3937007874015748},{"duration":0.17447916666668561,"midi":81,"time":260.671875,"velocity":0.3937007874015748},{"duration":0.059895833333314386,"midi":70,"time":260.7174479166667,"velocity":0.3937007874015748},{"duration":0.059895833333314386,"midi":60,"time":260.7174479166667,"velocity":0.3937007874015748},{"duration":0.05859375,"midi":64,"time":260.7291666666667,"velocity":0.3937007874015748},{"duration":0.17447916666662877,"midi":95,"time":260.7408854166667,"velocity":0.3937007874015748},{"duration":0.29947916666662877,"midi":53,"time":260.7408854166667,"velocity":0.3937007874015748},{"duration":0.05859375,"midi":47,"time":260.7408854166667,"velocity":0.3937007874015748},{"duration":0.17447916666662877,"midi":68,"time":260.7408854166667,"velocity":0.3937007874015748},{"duration":0.17447916666662877,"midi":89,"time":260.7526041666667,"velocity":0.3937007874015748},{"duration":0.05859375,"midi":60,"time":260.7526041666667,"velocity":0.3937007874015748},{"duration":0.17317708333331439,"midi":86,"time":260.7643229166667,"velocity":0.3937007874015748},{"duration":0.17317708333331439,"midi":88,"time":260.7643229166667,"velocity":0.3937007874015748},{"duration":0.171875,"midi":58,"time":260.7760416666667,"velocity":0.3937007874015748},{"duration":0.17317708333331439,"midi":46,"time":260.7877604166667,"velocity":0.3937007874015748},{"duration":0.05859375,"midi":35,"time":260.7877604166667,"velocity":0.3937007874015748},{"duration":0.05859375,"midi":63,"time":260.7981770833333,"velocity":0.3937007874015748},{"duration":0.05859375,"midi":35,"time":260.8333333333333,"velocity":0.3937007874015748},{"duration":0.17447916666668561,"midi":62,"time":260.8333333333333,"velocity":0.3937007874015748},{"duration":0.17447916666668561,"midi":34,"time":260.8567708333333,"velocity":0.3937007874015748},{"duration":0.059895833333314386,"midi":82,"time":260.8671875,"velocity":0.3937007874015748},{"duration":0.05859375,"midi":75,"time":260.87890625,"velocity":0.3937007874015748},{"duration":0.2994791666666856,"midi":83,"time":260.90234375,"velocity":0.3937007874015748},{"duration":0.05859375,"midi":76,"time":260.9140625,"velocity":0.3937007874015748},{"duration":0.17578125,"midi":88,"time":260.9140625,"velocity":0.3937007874015748},{"duration":0.17447916666668561,"midi":86,"time":260.92578125,"velocity":0.3937007874015748},{"duration":0.05859375,"midi":82,"time":260.92578125,"velocity":0.3937007874015748},{"duration":0.059895833333314386,"midi":75,"time":260.9375,"velocity":0.3937007874015748},{"duration":0.059895833333314386,"midi":33,"time":260.9596354166667,"velocity":0.3937007874015748},{"duration":0.17578125,"midi":81,"time":260.9596354166667,"velocity":0.3937007874015748},{"duration":0.17578125,"midi":64,"time":260.9596354166667,"velocity":0.3937007874015748},{"duration":0.059895833333314386,"midi":88,"time":261.0299479166667,"velocity":0.3937007874015748},{"duration":0.2994791666666856,"midi":50,"time":261.0546875,"velocity":0.3937007874015748},{"duration":0.05859375,"midi":77,"time":261.1119791666667,"velocity":0.3937007874015748},{"duration":0.05859375,"midi":82,"time":261.1119791666667,"velocity":0.3937007874015748},{"duration":0.17447916666662877,"midi":62,"time":261.1471354166667,"velocity":0.3937007874015748},{"duration":0.05859375,"midi":77,"time":261.1705729166667,"velocity":0.3937007874015748},{"duration":0.05989583333337123,"midi":65,"time":261.1809895833333,"velocity":0.3937007874015748},{"duration":0.05989583333337123,"midi":83,"time":261.2161458333333,"velocity":0.3937007874015748},{"duration":0.17447916666668561,"midi":76,"time":261.2278645833333,"velocity":0.3937007874015748},{"duration":0.17447916666668561,"midi":65,"time":261.2630208333333,"velocity":0.3937007874015748},{"duration":0.17447916666668561,"midi":81,"time":261.2747395833333,"velocity":0.3937007874015748},{"duration":0.05859375,"midi":83,"time":261.3216145833333,"velocity":0.3937007874015748},{"duration":0.061197916666685614,"midi":53,"time":261.47265625,"velocity":0.3937007874015748},{"duration":0.17708333333331439,"midi":86,"time":261.484375,"velocity":0.3937007874015748},{"duration":0.059895833333314386,"midi":60,"time":261.484375,"velocity":0.3937007874015748},{"duration":0.059895833333314386,"midi":68,"time":261.484375,"velocity":0.3937007874015748},{"duration":0.059895833333314386,"midi":51,"time":261.49609375,"velocity":0.3937007874015748},{"duration":0.059895833333314386,"midi":88,"time":261.49609375,"velocity":0.3937007874015748},{"duration":0.17708333333331439,"midi":95,"time":261.49609375,"velocity":0.3937007874015748},{"duration":0.17708333333331439,"midi":89,"time":261.49609375,"velocity":0.3937007874015748},{"duration":0.059895833333314386,"midi":50,"time":261.5078125,"velocity":0.3937007874015748},{"duration":0.059895833333314386,"midi":81,"time":261.5078125,"velocity":0.3937007874015748},{"duration":0.17578125,"midi":86,"time":261.5208333333333,"velocity":0.3937007874015748},{"duration":0.059895833333314386,"midi":51,"time":261.54296875,"velocity":0.3937007874015748},{"duration":0.059895833333314386,"midi":64,"time":261.54296875,"velocity":0.3937007874015748},{"duration":0.16536458333331439,"midi":64,"time":261.61328125,"velocity":0.3937007874015748},{"duration":0.05989583333337123,"midi":67,"time":261.6263020833333,"velocity":0.3937007874015748},{"duration":0.17447916666668561,"midi":81,"time":261.6380208333333,"velocity":0.3937007874015748},{"duration":0.05989583333337123,"midi":50,"time":261.6731770833333,"velocity":0.3937007874015748},{"duration":0.059895833333314386,"midi":60,"time":261.6953125,"velocity":0.3937007874015748},{"duration":0.059895833333314386,"midi":63,"time":261.6953125,"velocity":0.3937007874015748},{"duration":0.05989583333337123,"midi":67,"time":261.7083333333333,"velocity":0.3937007874015748},{"duration":0.06901041666668561,"midi":64,"time":261.7200520833333,"velocity":0.3937007874015748},{"duration":0.17447916666668561,"midi":89,"time":261.7200520833333,"velocity":0.3937007874015748},{"duration":0.17447916666668561,"midi":95,"time":261.7200520833333,"velocity":0.3937007874015748},{"duration":0.057291666666685614,"midi":83,"time":261.7317708333333,"velocity":0.3937007874015748},{"duration":0.05859375,"midi":76,"time":261.77734375,"velocity":0.3937007874015748},{"duration":0.05859375,"midi":67,"time":261.77734375,"velocity":0.3937007874015748},{"duration":0.17578125,"midi":64,"time":261.7890625,"velocity":0.3937007874015748},{"duration":0.17578125,"midi":83,"time":261.859375,"velocity":0.3937007874015748},{"duration":0.059895833333314386,"midi":56,"time":261.8815104166667,"velocity":0.3937007874015748},{"duration":0.17578125,"midi":62,"time":261.90625,"velocity":0.3937007874015748},{"duration":0.17578125,"midi":57,"time":261.90625,"velocity":0.3937007874015748},{"duration":0.17578125,"midi":62,"time":261.9986979166667,"velocity":0.3937007874015748},{"duration":0.17578125,"midi":76,"time":262.0104166666667,"velocity":0.3937007874015748},{"duration":0.059895833333314386,"midi":45,"time":262.0455729166667,"velocity":0.3937007874015748},{"duration":0.17578125,"midi":81,"time":262.05859375,"velocity":0.3937007874015748},{"duration":0.17578125,"midi":53,"time":262.0807291666667,"velocity":0.3937007874015748},{"duration":0.05859375,"midi":58,"time":262.09375,"velocity":0.3937007874015748},{"duration":0.17578125,"midi":46,"time":262.10546875,"velocity":0.3937007874015748},{"duration":0.059895833333314386,"midi":34,"time":262.1510416666667,"velocity":0.3937007874015748},{"duration":0.059895833333314386,"midi":34,"time":262.2213541666667,"velocity":0.3937007874015748},{"duration":0.17578125,"midi":81,"time":262.2565104166667,"velocity":0.3937007874015748},{"duration":0.059895833333314386,"midi":74,"time":262.2565104166667,"velocity":0.3937007874015748},{"duration":0.059895833333314386,"midi":60,"time":262.2565104166667,"velocity":0.3937007874015748},{"duration":0.059895833333314386,"midi":64,"time":262.2565104166667,"velocity":0.3937007874015748},{"duration":0.17447916666662877,"midi":83,"time":262.2682291666667,"velocity":0.3937007874015748},{"duration":0.17447916666662877,"midi":79,"time":262.2682291666667,"velocity":0.3937007874015748},{"duration":0.17447916666662877,"midi":86,"time":262.2682291666667,"velocity":0.3937007874015748},{"duration":0.05859375,"midi":44,"time":262.2799479166667,"velocity":0.3937007874015748},{"duration":0.059895833333314386,"midi":37,"time":262.2916666666667,"velocity":0.3937007874015748},{"duration":0.059895833333314386,"midi":57,"time":262.3033854166667,"velocity":0.3937007874015748},{"duration":0.42447916666662877,"midi":67,"time":262.3033854166667,"velocity":0.3937007874015748},{"duration":0.42447916666662877,"midi":45,"time":262.3151041666667,"velocity":0.3937007874015748},{"duration":0.2981770833333144,"midi":52,"time":262.3151041666667,"velocity":0.3937007874015748},{"duration":0.05859375,"midi":60,"time":262.3151041666667,"velocity":0.3937007874015748},{"duration":0.05859375,"midi":64,"time":262.3151041666667,"velocity":0.3937007874015748},{"duration":0.05859375,"midi":32,"time":262.3736979166667,"velocity":0.3937007874015748},{"duration":0.05859375,"midi":33,"time":262.3958333333333,"velocity":0.3937007874015748},{"duration":0.17317708333337123,"midi":86,"time":262.4309895833333,"velocity":0.3937007874015748},{"duration":0.2994791666666856,"midi":83,"time":262.4309895833333,"velocity":0.3937007874015748},{"duration":0.30078125,"midi":76,"time":262.4427083333333,"velocity":0.3937007874015748},{"duration":0.17447916666668561,"midi":71,"time":262.4778645833333,"velocity":0.3937007874015748},{"duration":0.17578125,"midi":33,"time":262.51171875,"velocity":0.3937007874015748},{"duration":0.42578125,"midi":60,"time":262.55859375,"velocity":0.3937007874015748},{"duration":0.4205729166666856,"midi":64,"time":262.55859375,"velocity":0.3937007874015748},{"duration":0.059895833333314386,"midi":86,"time":262.5807291666667,"velocity":0.3937007874015748},{"duration":0.059895833333314386,"midi":52,"time":262.62890625,"velocity":0.3937007874015748},{"duration":0.059895833333314386,"midi":37,"time":262.6627604166667,"velocity":0.3937007874015748},{"duration":0.05859375,"midi":36,"time":262.67578125,"velocity":0.3937007874015748},{"duration":0.05859375,"midi":71,"time":262.6875,"velocity":0.3937007874015748},{"duration":0.421875,"midi":45,"time":262.7109375,"velocity":0.3937007874015748},{"duration":0.05859375,"midi":86,"time":262.72265625,"velocity":0.3937007874015748},{"duration":0.17447916666668561,"midi":67,"time":262.72265625,"velocity":0.3937007874015748},{"duration":0.05859375,"midi":52,"time":262.72265625,"velocity":0.3937007874015748},{"duration":0.17578125,"midi":86,"time":262.8033854166667,"velocity":0.3937007874015748},{"duration":0.059895833333314386,"midi":63,"time":262.8736979166667,"velocity":0.3937007874015748},{"duration":0.171875,"midi":76,"time":262.9088541666667,"velocity":0.3937007874015748},{"duration":0.06380208333331439,"midi":64,"time":262.9205729166667,"velocity":0.3937007874015748},{"duration":0.296875,"midi":67,"time":262.9205729166667,"velocity":0.3937007874015748},{"duration":0.05729166666662877,"midi":71,"time":262.9440104166667,"velocity":0.3937007874015748},{"duration":0.055989583333314386,"midi":83,"time":262.9557291666667,"velocity":0.3937007874015748},{"duration":0.17317708333331439,"midi":33,"time":263,"velocity":0.3937007874015748},{"duration":0.05859375,"midi":52,"time":263.0104166666667,"velocity":0.3937007874015748},{"duration":0.05859375,"midi":86,"time":263.0104166666667,"velocity":0.3937007874015748},{"duration":0.05859375,"midi":52,"time":263.0572916666667,"velocity":0.3937007874015748},{"duration":0.17578125,"midi":52,"time":263.1028645833333,"velocity":0.3937007874015748},{"duration":0.17447916666668561,"midi":60,"time":263.1145833333333,"velocity":0.3937007874015748},{"duration":0.17447916666668561,"midi":33,"time":263.1145833333333,"velocity":0.3937007874015748},{"duration":0.17578125,"midi":64,"time":263.1263020833333,"velocity":0.3937007874015748},{"duration":0.05989583333337123,"midi":68,"time":263.2083333333333,"velocity":0.3937007874015748},{"duration":0.05859375,"midi":51,"time":263.2200520833333,"velocity":0.3937007874015748},{"duration":0.05859375,"midi":77,"time":263.2200520833333,"velocity":0.3937007874015748},{"duration":0.05859375,"midi":60,"time":263.2434895833333,"velocity":0.3937007874015748},{"duration":0.17447916666668561,"midi":57,"time":263.2552083333333,"velocity":0.3937007874015748},{"duration":0.17447916666668561,"midi":64,"time":263.2552083333333,"velocity":0.3937007874015748},{"duration":0.4244791666666856,"midi":45,"time":263.2669270833333,"velocity":0.3937007874015748},{"duration":0.55078125,"midi":67,"time":263.27734375,"velocity":0.3937007874015748},{"duration":0.17447916666668561,"midi":71,"time":263.30078125,"velocity":0.3937007874015748},{"duration":0.05859375,"midi":64,"time":263.4518229166667,"velocity":0.3937007874015748},{"duration":0.05989583333337123,"midi":77,"time":263.6028645833333,"velocity":0.3937007874015748},{"duration":0.05989583333337123,"midi":46,"time":263.6028645833333,"velocity":0.3937007874015748},{"duration":0.17578125,"midi":64,"time":263.6145833333333,"velocity":0.3937007874015748},{"duration":0.17578125,"midi":45,"time":263.6497395833333,"velocity":0.3937007874015748},{"duration":0.05989583333337123,"midi":33,"time":263.7434895833333,"velocity":0.3937007874015748},{"duration":0.17708333333337123,"midi":91,"time":263.7552083333333,"velocity":0.3937007874015748},{"duration":0.17708333333337123,"midi":93,"time":263.7552083333333,"velocity":0.3937007874015748},{"duration":0.17578125,"midi":81,"time":263.7669270833333,"velocity":0.3937007874015748},{"duration":0.17578125,"midi":85,"time":263.7669270833333,"velocity":0.3937007874015748},{"duration":0.05989583333337123,"midi":63,"time":263.8020833333333,"velocity":0.3937007874015748},{"duration":0.5494791666666856,"midi":67,"time":263.8372395833333,"velocity":0.3937007874015748},{"duration":0.05989583333337123,"midi":37,"time":263.8372395833333,"velocity":0.3937007874015748},{"duration":0.30078125,"midi":64,"time":263.8372395833333,"velocity":0.3937007874015748},{"duration":0.30078125,"midi":57,"time":263.8489583333333,"velocity":0.3937007874015748},{"duration":0.05989583333337123,"midi":30,"time":263.8723958333333,"velocity":0.3937007874015748},{"duration":0.17578125,"midi":72,"time":263.8723958333333,"velocity":0.3937007874015748},{"duration":0.5494791666666856,"midi":45,"time":263.8841145833333,"velocity":0.3937007874015748},{"duration":0.17447916666668561,"midi":81,"time":263.9544270833333,"velocity":0.3937007874015748},{"duration":0.059895833333314386,"midi":33,"time":264.10546875,"velocity":0.3937007874015748},{"duration":0.059895833333314386,"midi":64,"time":264.12890625,"velocity":0.3937007874015748},{"duration":0.05859375,"midi":52,"time":264.15234375,"velocity":0.3937007874015748},{"duration":0.057291666666685614,"midi":92,"time":264.1640625,"velocity":0.3937007874015748},{"duration":0.06901041666668561,"midi":88,"time":264.1640625,"velocity":0.3937007874015748},{"duration":0.057291666666685614,"midi":75,"time":264.17578125,"velocity":0.3937007874015748},{"duration":0.16015625,"midi":88,"time":264.17578125,"velocity":0.3937007874015748},{"duration":0.17317708333331439,"midi":77,"time":264.17578125,"velocity":0.3937007874015748},{"duration":0.17317708333331439,"midi":52,"time":264.2109375,"velocity":0.3937007874015748},{"duration":0.17447916666662877,"midi":91,"time":264.2213541666667,"velocity":0.3937007874015748},{"duration":0.17578125,"midi":89,"time":264.2317708333333,"velocity":0.3937007874015748},{"duration":0.421875,"midi":64,"time":264.2317708333333,"velocity":0.3937007874015748},{"duration":0.05859375,"midi":33,"time":264.2669270833333,"velocity":0.3937007874015748},{"duration":0.17708333333331439,"midi":77,"time":264.34765625,"velocity":0.3937007874015748},{"duration":0.059895833333314386,"midi":58,"time":264.37109375,"velocity":0.3937007874015748},{"duration":0.059895833333314386,"midi":33,"time":264.37109375,"velocity":0.3937007874015748},{"duration":0.059895833333314386,"midi":67,"time":264.37109375,"velocity":0.3937007874015748},{"duration":0.059895833333314386,"midi":50,"time":264.39453125,"velocity":0.3937007874015748},{"duration":0.059895833333314386,"midi":68,"time":264.39453125,"velocity":0.3937007874015748},{"duration":0.059895833333314386,"midi":60,"time":264.4296875,"velocity":0.3937007874015748},{"duration":0.059895833333314386,"midi":49,"time":264.4296875,"velocity":0.3937007874015748},{"duration":0.17708333333331439,"midi":57,"time":264.46484375,"velocity":0.3937007874015748},{"duration":0.05989583333337123,"midi":46,"time":264.4778645833333,"velocity":0.3937007874015748},{"duration":0.17578125,"midi":67,"time":264.4778645833333,"velocity":0.3937007874015748},{"duration":0.17447916666668561,"midi":72,"time":264.5364583333333,"velocity":0.3937007874015748},{"duration":0.17447916666668561,"midi":91,"time":264.5364583333333,"velocity":0.3937007874015748},{"duration":0.17447916666668561,"midi":83,"time":264.5364583333333,"velocity":0.3937007874015748},{"duration":0.17447916666668561,"midi":95,"time":264.546875,"velocity":0.3937007874015748},{"duration":0.9192708333333144,"midi":76,"time":264.546875,"velocity":0.3937007874015748},{"duration":0.061197916666685614,"midi":60,"time":264.546875,"velocity":0.3937007874015748},{"duration":0.17317708333337123,"midi":84,"time":264.5598958333333,"velocity":0.3937007874015748},{"duration":0.05989583333337123,"midi":44,"time":264.5716145833333,"velocity":0.3937007874015748},{"duration":0.17317708333337123,"midi":94,"time":264.5716145833333,"velocity":0.3937007874015748},{"duration":0.17317708333337123,"midi":90,"time":264.5716145833333,"velocity":0.3937007874015748},{"duration":0.05859375,"midi":69,"time":264.5833333333333,"velocity":0.3937007874015748},{"duration":0.05729166666662877,"midi":51,"time":264.5963541666667,"velocity":0.3937007874015748},{"duration":0.0625,"midi":64,"time":264.5963541666667,"velocity":0.3937007874015748},{"duration":0.05859375,"midi":50,"time":264.6184895833333,"velocity":0.3937007874015748},{"duration":0.296875,"midi":72,"time":264.6184895833333,"velocity":0.3937007874015748},{"duration":0.05859375,"midi":70,"time":264.6315104166667,"velocity":0.3937007874015748},{"duration":0.05859375,"midi":61,"time":264.6419270833333,"velocity":0.3937007874015748},{"duration":0.13802083333337123,"midi":33,"time":264.6419270833333,"velocity":0.3937007874015748},{"duration":0.05859375,"midi":46,"time":264.65234375,"velocity":0.3937007874015748},{"duration":0.17317708333331439,"midi":86,"time":264.65234375,"velocity":0.3937007874015748},{"duration":0.057291666666685614,"midi":74,"time":264.6640625,"velocity":0.3937007874015748},{"duration":0.057291666666685614,"midi":52,"time":264.6640625,"velocity":0.3937007874015748},{"duration":0.057291666666685614,"midi":57,"time":264.6640625,"velocity":0.3937007874015748},{"duration":0.171875,"midi":45,"time":264.6770833333333,"velocity":0.3937007874015748},{"duration":0.171875,"midi":52,"time":264.69921875,"velocity":0.3937007874015748},{"duration":0.171875,"midi":91,"time":264.69921875,"velocity":0.3937007874015748},{"duration":0.17317708333331439,"midi":83,"time":264.7109375,"velocity":0.3937007874015748},{"duration":0.057291666666685614,"midi":61,"time":264.7109375,"velocity":0.3937007874015748},{"duration":0.09244791666662877,"midi":33,"time":264.7213541666667,"velocity":0.3937007874015748},{"duration":0.05859375,"midi":60,"time":264.7447916666667,"velocity":0.3937007874015748},{"duration":0.05859375,"midi":64,"time":264.7447916666667,"velocity":0.3937007874015748},{"duration":0.05859375,"midi":53,"time":264.7669270833333,"velocity":0.3937007874015748},{"duration":0.05859375,"midi":50,"time":264.8020833333333,"velocity":0.3937007874015748},{"duration":0.05859375,"midi":64,"time":264.8020833333333,"velocity":0.3937007874015748},{"duration":0.17447916666668561,"midi":60,"time":264.8125,"velocity":0.3937007874015748},{"duration":0.17317708333337123,"midi":83,"time":264.8255208333333,"velocity":0.3937007874015748},{"duration":0.17317708333337123,"midi":33,"time":264.8255208333333,"velocity":0.3937007874015748},{"duration":0.296875,"midi":91,"time":264.8359375,"velocity":0.3937007874015748},{"duration":0.059895833333314386,"midi":63,"time":264.84765625,"velocity":0.3937007874015748},{"duration":0.05859375,"midi":44,"time":264.8606770833333,"velocity":0.3937007874015748},{"duration":0.05859375,"midi":64,"time":264.87109375,"velocity":0.3937007874015748},{"duration":0.05859375,"midi":45,"time":264.8828125,"velocity":0.3937007874015748},{"duration":0.05859375,"midi":45,"time":264.91796875,"velocity":0.3937007874015748},{"duration":0.05859375,"midi":64,"time":264.9283854166667,"velocity":0.3937007874015748},{"duration":0.05859375,"midi":65,"time":264.9518229166667,"velocity":0.3937007874015748},{"duration":0.05859375,"midi":51,"time":264.9518229166667,"velocity":0.3937007874015748},{"duration":0.05859375,"midi":68,"time":264.9518229166667,"velocity":0.3937007874015748},{"duration":0.05729166666662877,"midi":61,"time":264.9635416666667,"velocity":0.3937007874015748},{"duration":0.055989583333314386,"midi":50,"time":264.9765625,"velocity":0.3937007874015748},{"duration":0.055989583333314386,"midi":67,"time":264.9869791666667,"velocity":0.3937007874015748},{"duration":0.171875,"midi":57,"time":264.9869791666667,"velocity":0.3937007874015748},{"duration":0.055989583333314386,"midi":48,"time":264.9869791666667,"velocity":0.3937007874015748},{"duration":0.05598958333337123,"midi":66,"time":265.0091145833333,"velocity":0.3937007874015748},{"duration":0.057291666666685614,"midi":47,"time":265.0208333333333,"velocity":0.3937007874015748},{"duration":0.17317708333337123,"midi":83,"time":265.0208333333333,"velocity":0.3937007874015748},{"duration":0.17447916666668561,"midi":64,"time":265.03125,"velocity":0.3937007874015748},{"duration":0.05859375,"midi":51,"time":265.0416666666667,"velocity":0.3937007874015748},{"duration":0.17578125,"midi":33,"time":265.0416666666667,"velocity":0.3937007874015748},{"duration":0.17578125,"midi":91,"time":265.0885416666667,"velocity":0.3937007874015748},{"duration":0.05989583333337123,"midi":50,"time":265.1575520833333,"velocity":0.3937007874015748},{"duration":0.17578125,"midi":57,"time":265.1809895833333,"velocity":0.3937007874015748},{"duration":0.17578125,"midi":91,"time":265.2057291666667,"velocity":0.3937007874015748},{"duration":0.17447916666662877,"midi":83,"time":265.2408854166667,"velocity":0.3937007874015748},{"duration":0.05859375,"midi":45,"time":265.2408854166667,"velocity":0.3937007874015748},{"duration":0.05859375,"midi":64,"time":265.2408854166667,"velocity":0.3937007874015748},{"duration":0.05859375,"midi":44,"time":265.2630208333333,"velocity":0.3937007874015748},{"duration":0.061197916666685614,"midi":63,"time":265.33203125,"velocity":0.3937007874015748},{"duration":0.061197916666685614,"midi":57,"time":265.33203125,"velocity":0.3937007874015748},{"duration":0.17447916666668561,"midi":84,"time":265.34375,"velocity":0.3937007874015748},{"duration":0.30078125,"midi":74,"time":265.34375,"velocity":0.3937007874015748},{"duration":0.17447916666668561,"midi":86,"time":265.34375,"velocity":0.3937007874015748},{"duration":0.059895833333314386,"midi":45,"time":265.34375,"velocity":0.3937007874015748},{"duration":0.05859375,"midi":89,"time":265.3567708333333,"velocity":0.3937007874015748},{"duration":0.05859375,"midi":64,"time":265.3567708333333,"velocity":0.3937007874015748},{"duration":0.05859375,"midi":58,"time":265.3567708333333,"velocity":0.3937007874015748},{"duration":0.42708333333337123,"midi":69,"time":265.3684895833333,"velocity":0.3937007874015748},{"duration":0.30078125,"midi":93,"time":265.3684895833333,"velocity":0.3937007874015748},{"duration":0.05859375,"midi":37,"time":265.3684895833333,"velocity":0.3937007874015748},{"duration":0.05859375,"midi":57,"time":265.3802083333333,"velocity":0.3937007874015748},{"duration":0.2994791666666856,"midi":77,"time":265.3919270833333,"velocity":0.3937007874015748},{"duration":0.057291666666685614,"midi":64,"time":265.3919270833333,"velocity":0.3937007874015748},{"duration":0.30078125,"midi":50,"time":265.4036458333333,"velocity":0.3937007874015748},{"duration":0.057291666666685614,"midi":60,"time":265.4036458333333,"velocity":0.3937007874015748},{"duration":0.05859375,"midi":28,"time":265.4140625,"velocity":0.3937007874015748},{"duration":0.17578125,"midi":91,"time":265.44921875,"velocity":0.3937007874015748},{"duration":0.17578125,"midi":64,"time":265.44921875,"velocity":0.3937007874015748},{"duration":0.42578125,"midi":72,"time":265.44921875,"velocity":0.3937007874015748},{"duration":0.17708333333331439,"midi":84,"time":265.4596354166667,"velocity":0.3937007874015748},{"duration":0.30338541666662877,"midi":84,"time":265.4596354166667,"velocity":0.3937007874015748},{"duration":0.17708333333331439,"midi":88,"time":265.5182291666667,"velocity":0.3937007874015748},{"duration":0.059895833333314386,"midi":65,"time":265.5182291666667,"velocity":0.3937007874015748},{"duration":0.059895833333314386,"midi":57,"time":265.5299479166667,"velocity":0.3937007874015748},{"duration":0.17708333333331439,"midi":64,"time":265.5416666666667,"velocity":0.3937007874015748},{"duration":0.059895833333314386,"midi":57,"time":265.5768229166667,"velocity":0.3937007874015748},{"duration":0.17578125,"midi":76,"time":265.63671875,"velocity":0.3937007874015748},{"duration":0.17578125,"midi":93,"time":265.6471354166667,"velocity":0.3937007874015748},{"duration":0.65234375,"midi":65,"time":265.6471354166667,"velocity":0.3937007874015748},{"duration":0.29947916666662877,"midi":89,"time":265.6588541666667,"velocity":0.3937007874015748},{"duration":0.4244791666666856,"midi":74,"time":265.671875,"velocity":0.3937007874015748},{"duration":0.059895833333314386,"midi":91,"time":265.7421875,"velocity":0.3937007874015748},{"duration":0.059895833333314386,"midi":41,"time":265.7421875,"velocity":0.3937007874015748},{"duration":0.05859375,"midi":37,"time":265.75390625,"velocity":0.3937007874015748},{"duration":0.17317708333331439,"midi":93,"time":265.765625,"velocity":0.3937007874015748},{"duration":0.057291666666685614,"midi":61,"time":265.7890625,"velocity":0.3937007874015748},{"duration":0.057291666666685614,"midi":26,"time":265.7890625,"velocity":0.3937007874015748},{"duration":0.057291666666685614,"midi":87,"time":265.80078125,"velocity":0.3937007874015748},{"duration":0.17447916666662877,"midi":88,"time":265.8111979166667,"velocity":0.3937007874015748},{"duration":0.05859375,"midi":50,"time":265.8111979166667,"velocity":0.3937007874015748},{"duration":0.05859375,"midi":50,"time":265.8450520833333,"velocity":0.3937007874015748},{"duration":0.4244791666666856,"midi":57,"time":265.9036458333333,"velocity":0.3937007874015748},{"duration":0.4244791666666856,"midi":50,"time":265.9036458333333,"velocity":0.3937007874015748},{"duration":0.2994791666666856,"midi":72,"time":265.9739583333333,"velocity":0.3937007874015748},{"duration":0.29817708333337123,"midi":74,"time":266.0208333333333,"velocity":0.3937007874015748},{"duration":0.05859375,"midi":76,"time":266.0208333333333,"velocity":0.3937007874015748},{"duration":0.08072916666662877,"midi":65,"time":266.2408854166667,"velocity":0.3937007874015748},{"duration":0.05989583333337123,"midi":76,"time":266.2981770833333,"velocity":0.3937007874015748},{"duration":0.05989583333337123,"midi":63,"time":266.3216145833333,"velocity":0.3937007874015748},{"duration":0.17447916666668561,"midi":72,"time":266.3216145833333,"velocity":0.3937007874015748},{"duration":0.05989583333337123,"midi":68,"time":266.3333333333333,"velocity":0.3937007874015748},{"duration":0.17317708333337123,"midi":93,"time":266.3333333333333,"velocity":0.3937007874015748},{"duration":0.05859375,"midi":89,"time":266.3450520833333,"velocity":0.3937007874015748},{"duration":0.05859375,"midi":51,"time":266.3450520833333,"velocity":0.3937007874015748},{"duration":0.05729166666662877,"midi":50,"time":266.3580729166667,"velocity":0.3937007874015748},{"duration":0.2942708333333144,"midi":74,"time":266.3580729166667,"velocity":0.3937007874015748},{"duration":0.05729166666662877,"midi":61,"time":266.3580729166667,"velocity":0.3937007874015748},{"duration":0.171875,"midi":87,"time":266.3580729166667,"velocity":0.3937007874015748},{"duration":0.171875,"midi":77,"time":266.3802083333333,"velocity":0.3937007874015748},{"duration":0.171875,"midi":57,"time":266.3802083333333,"velocity":0.3937007874015748},{"duration":0.057291666666685614,"midi":66,"time":266.4036458333333,"velocity":0.3937007874015748},{"duration":0.171875,"midi":50,"time":266.4036458333333,"velocity":0.3937007874015748},{"duration":0.171875,"midi":72,"time":266.4036458333333,"velocity":0.3937007874015748},{"duration":0.171875,"midi":81,"time":266.4140625,"velocity":0.3937007874015748},{"duration":0.05859375,"midi":38,"time":266.4375,"velocity":0.3937007874015748},{"duration":0.05859375,"midi":66,"time":266.4596354166667,"velocity":0.3937007874015748},{"duration":0.05859375,"midi":76,"time":266.4713541666667,"velocity":0.3937007874015748},{"duration":0.2981770833333144,"midi":65,"time":266.4830729166667,"velocity":0.3937007874015748},{"duration":0.05729166666662877,"midi":50,"time":266.5182291666667,"velocity":0.3937007874015748},{"duration":0.17578125,"midi":76,"time":266.5859375,"velocity":0.3937007874015748},{"duration":0.05859375,"midi":86,"time":266.5859375,"velocity":0.3937007874015748},{"duration":0.17578125,"midi":74,"time":266.6080729166667,"velocity":0.3937007874015748},{"duration":0.061197916666685614,"midi":77,"time":266.6888020833333,"velocity":0.3937007874015748},{"duration":0.059895833333314386,"midi":70,"time":266.7018229166667,"velocity":0.3937007874015748},{"duration":0.17317708333331439,"midi":81,"time":266.7135416666667,"velocity":0.3937007874015748},{"duration":0.171875,"midi":62,"time":266.7252604166667,"velocity":0.3937007874015748},{"duration":0.05859375,"midi":51,"time":266.7252604166667,"velocity":0.3937007874015748},{"duration":0.05859375,"midi":95,"time":266.73828125,"velocity":0.3937007874015748},{"duration":0.057291666666685614,"midi":76,"time":266.75,"velocity":0.3937007874015748},{"duration":0.17057291666668561,"midi":45,"time":266.75,"velocity":0.3937007874015748},{"duration":0.05729166666662877,"midi":52,"time":266.7604166666667,"velocity":0.3937007874015748},{"duration":0.2942708333333144,"midi":74,"time":266.7604166666667,"velocity":0.3937007874015748},{"duration":0.057291666666685614,"midi":65,"time":266.7708333333333,"velocity":0.3937007874015748},{"duration":0.171875,"midi":77,"time":266.7838541666667,"velocity":0.3937007874015748},{"duration":0.057291666666685614,"midi":32,"time":266.8059895833333,"velocity":0.3937007874015748},{"duration":0.171875,"midi":72,"time":266.8177083333333,"velocity":0.3937007874015748},{"duration":0.13802083333331439,"midi":65,"time":266.828125,"velocity":0.3937007874015748},{"duration":0.05859375,"midi":81,"time":266.828125,"velocity":0.3937007874015748},{"duration":0.29557291666662877,"midi":93,"time":266.8385416666667,"velocity":0.3937007874015748},{"duration":0.05859375,"midi":50,"time":266.8515625,"velocity":0.3937007874015748},{"duration":0.05859375,"midi":76,"time":266.8736979166667,"velocity":0.3937007874015748},{"duration":0.171875,"midi":81,"time":266.8854166666667,"velocity":0.3937007874015748},{"duration":0.171875,"midi":88,"time":266.8971354166667,"velocity":0.3937007874015748},{"duration":0.05859375,"midi":69,"time":266.8971354166667,"velocity":0.3937007874015748},{"duration":0.171875,"midi":88,"time":266.9088541666667,"velocity":0.3937007874015748},{"duration":0.171875,"midi":89,"time":266.9088541666667,"velocity":0.3937007874015748},{"duration":0.09244791666662877,"midi":65,"time":266.9088541666667,"velocity":0.3937007874015748},{"duration":0.05859375,"midi":90,"time":266.9192708333333,"velocity":0.3937007874015748},{"duration":0.171875,"midi":62,"time":266.9192708333333,"velocity":0.3937007874015748},{"duration":0.05859375,"midi":76,"time":266.9192708333333,"velocity":0.3937007874015748},{"duration":0.171875,"midi":80,"time":266.9192708333333,"velocity":0.3937007874015748},{"duration":0.171875,"midi":90,"time":266.9322916666667,"velocity":0.3937007874015748},{"duration":0.171875,"midi":77,"time":266.9322916666667,"velocity":0.3937007874015748},{"duration":0.05859375,"midi":65,"time":266.9427083333333,"velocity":0.3937007874015748},{"duration":0.29817708333337123,"midi":57,"time":266.9427083333333,"velocity":0.3937007874015748},{"duration":0.171875,"midi":85,"time":266.9427083333333,"velocity":0.3937007874015748},{"duration":0.29817708333337123,"midi":50,"time":266.9427083333333,"velocity":0.3937007874015748},{"duration":0.05859375,"midi":28,"time":266.9661458333333,"velocity":0.3937007874015748},{"duration":0.05859375,"midi":95,"time":266.98828125,"velocity":0.3937007874015748},{"duration":0.057291666666685614,"midi":76,"time":267,"velocity":0.3937007874015748},{"duration":0.057291666666685614,"midi":67,"time":267.0234375,"velocity":0.3937007874015748},{"duration":0.057291666666685614,"midi":87,"time":267.046875,"velocity":0.3937007874015748},{"duration":0.05729166666662877,"midi":82,"time":267.0572916666667,"velocity":0.3937007874015748},{"duration":0.3046875,"midi":76,"time":267.0677083333333,"velocity":0.3937007874015748},{"duration":0.3046875,"midi":64,"time":267.0807291666667,"velocity":0.3937007874015748},{"duration":0.17578125,"midi":67,"time":267.0807291666667,"velocity":0.3937007874015748},{"duration":0.4296875,"midi":83,"time":267.0911458333333,"velocity":0.3937007874015748},{"duration":0.17708333333337123,"midi":74,"time":267.0911458333333,"velocity":0.3937007874015748},{"duration":0.17708333333337123,"midi":92,"time":267.1028645833333,"velocity":0.3937007874015748},{"duration":0.05989583333337123,"midi":39,"time":267.1145833333333,"velocity":0.3937007874015748},{"duration":0.1796875,"midi":81,"time":267.13671875,"velocity":0.3937007874015748},{"duration":0.1796875,"midi":91,"time":267.1484375,"velocity":0.3937007874015748},{"duration":0.06119791666662877,"midi":77,"time":267.2799479166667,"velocity":0.3937007874015748},{"duration":0.06119791666662877,"midi":72,"time":267.2916666666667,"velocity":0.3937007874015748},{"duration":0.06119791666662877,"midi":81,"time":267.2916666666667,"velocity":0.3937007874015748},{"duration":0.17838541666662877,"midi":82,"time":267.3033854166667,"velocity":0.3937007874015748},{"duration":0.06119791666662877,"midi":50,"time":267.3033854166667,"velocity":0.3937007874015748},{"duration":0.17838541666662877,"midi":63,"time":267.3033854166667,"velocity":0.3937007874015748},{"duration":0.17708333333331439,"midi":74,"time":267.328125,"velocity":0.3937007874015748},{"duration":0.17578125,"midi":76,"time":267.33984375,"velocity":0.3937007874015748},{"duration":0.05989583333337123,"midi":62,"time":267.3997395833333,"velocity":0.3937007874015748},{"duration":0.05859375,"midi":62,"time":267.4466145833333,"velocity":0.3937007874015748},{"duration":0.057291666666685614,"midi":69,"time":267.4583333333333,"velocity":0.3937007874015748},{"duration":0.057291666666685614,"midi":65,"time":267.4817708333333,"velocity":0.3937007874015748},{"duration":0.171875,"midi":47,"time":267.4817708333333,"velocity":0.3937007874015748},{"duration":0.057291666666685614,"midi":56,"time":267.50390625,"velocity":0.3937007874015748},{"duration":0.057291666666685614,"midi":62,"time":267.50390625,"velocity":0.3937007874015748},{"duration":0.059895833333314386,"midi":65,"time":267.5494791666667,"velocity":0.3937007874015748},{"duration":0.059895833333314386,"midi":60,"time":267.5611979166667,"velocity":0.3937007874015748},{"duration":0.5520833333333712,"midi":83,"time":267.5716145833333,"velocity":0.3937007874015748},{"duration":0.05989583333337123,"midi":56,"time":267.5716145833333,"velocity":0.3937007874015748},{"duration":0.05859375,"midi":43,"time":267.5846354166667,"velocity":0.3937007874015748},{"duration":0.05859375,"midi":50,"time":267.6315104166667,"velocity":0.3937007874015748},{"duration":0.05859375,"midi":63,"time":267.6419270833333,"velocity":0.3937007874015748},{"duration":0.05859375,"midi":82,"time":267.6419270833333,"velocity":0.3937007874015748},{"duration":0.05859375,"midi":56,"time":267.65234375,"velocity":0.3937007874015748},{"duration":0.29817708333337123,"midi":88,"time":267.6653645833333,"velocity":0.3937007874015748},{"duration":0.057291666666685614,"midi":77,"time":267.6653645833333,"velocity":0.3937007874015748},{"duration":0.057291666666685614,"midi":69,"time":267.6653645833333,"velocity":0.3937007874015748},{"duration":0.171875,"midi":90,"time":267.6653645833333,"velocity":0.3937007874015748},{"duration":0.05598958333337123,"midi":79,"time":267.6770833333333,"velocity":0.3937007874015748},{"duration":0.05598958333337123,"midi":72,"time":267.6770833333333,"velocity":0.3937007874015748},{"duration":0.05598958333337123,"midi":50,"time":267.6770833333333,"velocity":0.3937007874015748},{"duration":0.05598958333337123,"midi":68,"time":267.6888020833333,"velocity":0.3937007874015748},{"duration":0.17057291666668561,"midi":81,"time":267.6888020833333,"velocity":0.3937007874015748},{"duration":0.42708333333337123,"midi":76,"time":267.7005208333333,"velocity":0.3937007874015748},{"duration":0.17317708333331439,"midi":86,"time":267.7109375,"velocity":0.3937007874015748},{"duration":0.17447916666662877,"midi":64,"time":267.7213541666667,"velocity":0.3937007874015748},{"duration":0.17578125,"midi":67,"time":267.7330729166667,"velocity":0.3937007874015748},{"duration":0.17578125,"midi":74,"time":267.7903645833333,"velocity":0.3937007874015748},{"duration":0.05859375,"midi":50,"time":267.7903645833333,"velocity":0.3937007874015748},{"duration":0.05989583333337123,"midi":63,"time":267.8489583333333,"velocity":0.3937007874015748},{"duration":0.17838541666668561,"midi":91,"time":267.859375,"velocity":0.3937007874015748},{"duration":0.061197916666685614,"midi":81,"time":267.859375,"velocity":0.3937007874015748},{"duration":0.17708333333331439,"midi":71,"time":267.87109375,"velocity":0.3937007874015748},{"duration":0.17708333333331439,"midi":48,"time":267.8828125,"velocity":0.3937007874015748},{"duration":0.17708333333337123,"midi":64,"time":267.8958333333333,"velocity":0.3937007874015748},{"duration":0.05989583333337123,"midi":53,"time":267.9778645833333,"velocity":0.3937007874015748},{"duration":0.17708333333337123,"midi":41,"time":267.9895833333333,"velocity":0.3937007874015748},{"duration":0.05989583333337123,"midi":82,"time":268.0247395833333,"velocity":0.3937007874015748},{"duration":0.05989583333337123,"midi":57,"time":268.0364583333333,"velocity":0.3937007874015748},{"duration":0.15494791666668561,"midi":83,"time":268.0364583333333,"velocity":0.3937007874015748},{"duration":0.061197916666685614,"midi":74,"time":268.0481770833333,"velocity":0.3937007874015748},{"duration":0.061197916666685614,"midi":56,"time":268.0598958333333,"velocity":0.3937007874015748},{"duration":0.061197916666685614,"midi":40,"time":268.0598958333333,"velocity":0.3937007874015748},{"duration":0.061197916666685614,"midi":62,"time":268.0716145833333,"velocity":0.3937007874015748},{"duration":0.061197916666685614,"midi":76,"time":268.0716145833333,"velocity":0.3937007874015748},{"duration":0.17838541666662877,"midi":57,"time":268.0846354166667,"velocity":0.3937007874015748},{"duration":0.17578125,"midi":76,"time":268.1328125,"velocity":0.3937007874015748},{"duration":0.08072916666668561,"midi":83,"time":268.1328125,"velocity":0.3937007874015748},{"duration":0.059895833333314386,"midi":62,"time":268.1432291666667,"velocity":0.3937007874015748},{"duration":0.17578125,"midi":74,"time":268.2135416666667,"velocity":0.3937007874015748},{"duration":0.06119791666662877,"midi":64,"time":268.2252604166667,"velocity":0.3937007874015748},{"duration":0.059895833333314386,"midi":53,"time":268.23828125,"velocity":0.3937007874015748},{"duration":0.05859375,"midi":47,"time":268.25,"velocity":0.3937007874015748},{"duration":0.05859375,"midi":62,"time":268.26171875,"velocity":0.3937007874015748},{"duration":0.05859375,"midi":76,"time":268.296875,"velocity":0.3937007874015748},{"duration":0.17447916666668561,"midi":47,"time":268.296875,"velocity":0.3937007874015748},{"duration":0.05859375,"midi":62,"time":268.3424479166667,"velocity":0.3937007874015748},{"duration":0.05859375,"midi":41,"time":268.3658854166667,"velocity":0.3937007874015748},{"duration":0.061197916666685614,"midi":64,"time":268.4348958333333,"velocity":0.3937007874015748},{"duration":0.061197916666685614,"midi":60,"time":268.4348958333333,"velocity":0.3937007874015748},{"duration":0.05989583333337123,"midi":41,"time":268.4466145833333,"velocity":0.3937007874015748},{"duration":0.4205729166666856,"midi":77,"time":268.4466145833333,"velocity":0.3937007874015748},{"duration":0.171875,"midi":84,"time":268.4583333333333,"velocity":0.3937007874015748},{"duration":0.05859375,"midi":37,"time":268.4583333333333,"velocity":0.3937007874015748},{"duration":0.05859375,"midi":80,"time":268.4583333333333,"velocity":0.3937007874015748},{"duration":0.05729166666662877,"midi":81,"time":268.4830729166667,"velocity":0.3937007874015748},{"duration":0.05729166666662877,"midi":63,"time":268.4830729166667,"velocity":0.3937007874015748},{"duration":0.29296875,"midi":74,"time":268.4947916666667,"velocity":0.3937007874015748},{"duration":0.057291666666685614,"midi":50,"time":268.5052083333333,"velocity":0.3937007874015748},{"duration":0.057291666666685614,"midi":58,"time":268.5052083333333,"velocity":0.3937007874015748},{"duration":0.057291666666685614,"midi":42,"time":268.5169270833333,"velocity":0.3937007874015748},{"duration":0.05859375,"midi":44,"time":268.55078125,"velocity":0.3937007874015748},{"duration":0.057291666666685614,"midi":50,"time":268.5625,"velocity":0.3937007874015748},{"duration":0.17057291666668561,"midi":84,"time":268.5625,"velocity":0.3937007874015748},{"duration":0.296875,"midi":81,"time":268.5729166666667,"velocity":0.3937007874015748},{"duration":0.05859375,"midi":31,"time":268.5846354166667,"velocity":0.3937007874015748},{"duration":0.171875,"midi":65,"time":268.5963541666667,"velocity":0.3937007874015748},{"duration":0.05729166666662877,"midi":44,"time":268.6080729166667,"velocity":0.3937007874015748},{"duration":0.05729166666662877,"midi":50,"time":268.6197916666667,"velocity":0.3937007874015748},{"duration":0.17317708333337123,"midi":31,"time":268.6419270833333,"velocity":0.3937007874015748},{"duration":0.05859375,"midi":44,"time":268.65234375,"velocity":0.3937007874015748},{"duration":0.057291666666685614,"midi":50,"time":268.6653645833333,"velocity":0.3937007874015748},{"duration":0.057291666666685614,"midi":43,"time":268.67578125,"velocity":0.3937007874015748},{"duration":0.057291666666685614,"midi":59,"time":268.67578125,"velocity":0.3937007874015748},{"duration":0.17317708333331439,"midi":62,"time":268.7109375,"velocity":0.3937007874015748},{"duration":0.057291666666685614,"midi":44,"time":268.7109375,"velocity":0.3937007874015748},{"duration":0.05859375,"midi":50,"time":268.7213541666667,"velocity":0.3937007874015748},{"duration":0.05989583333337123,"midi":31,"time":268.7552083333333,"velocity":0.3937007874015748},{"duration":0.05989583333337123,"midi":44,"time":268.7552083333333,"velocity":0.3937007874015748},{"duration":0.17447916666668561,"midi":84,"time":268.7669270833333,"velocity":0.3937007874015748},{"duration":0.17447916666668561,"midi":65,"time":268.7669270833333,"velocity":0.3937007874015748},{"duration":0.05989583333337123,"midi":68,"time":268.8020833333333,"velocity":0.3937007874015748},{"duration":0.05989583333337123,"midi":90,"time":268.8020833333333,"velocity":0.3937007874015748},{"duration":0.17447916666662877,"midi":81,"time":268.8151041666667,"velocity":0.3937007874015748},{"duration":0.17447916666662877,"midi":83,"time":268.8151041666667,"velocity":0.3937007874015748},{"duration":0.17447916666662877,"midi":95,"time":268.8151041666667,"velocity":0.3937007874015748},{"duration":0.17447916666662877,"midi":89,"time":268.8151041666667,"velocity":0.3937007874015748},{"duration":0.05859375,"midi":55,"time":268.8151041666667,"velocity":0.3937007874015748},{"duration":0.29817708333337123,"midi":74,"time":268.8255208333333,"velocity":0.3937007874015748},{"duration":0.17447916666668561,"midi":86,"time":268.8255208333333,"velocity":0.3937007874015748},{"duration":0.05859375,"midi":61,"time":268.8255208333333,"velocity":0.3937007874015748},{"duration":0.05859375,"midi":40,"time":268.8255208333333,"velocity":0.3937007874015748},{"duration":0.05859375,"midi":37,"time":268.8372395833333,"velocity":0.3937007874015748},{"duration":0.17447916666668561,"midi":71,"time":268.8372395833333,"velocity":0.3937007874015748},{"duration":0.17317708333331439,"midi":55,"time":268.8502604166667,"velocity":0.3937007874015748},{"duration":0.28776041666662877,"midi":62,"time":268.8619791666667,"velocity":0.3937007874015748},{"duration":0.05859375,"midi":44,"time":268.8723958333333,"velocity":0.3937007874015748},{"duration":0.05859375,"midi":44,"time":268.9309895833333,"velocity":0.3937007874015748},{"duration":0.05859375,"midi":43,"time":268.953125,"velocity":0.3937007874015748},{"duration":0.05859375,"midi":81,"time":268.9765625,"velocity":0.3937007874015748},{"duration":0.05859375,"midi":44,"time":268.98828125,"velocity":0.3937007874015748},{"duration":0.05859375,"midi":65,"time":268.9986979166667,"velocity":0.3937007874015748},{"duration":0.05859375,"midi":46,"time":269.0572916666667,"velocity":0.3937007874015748},{"duration":0.2994791666666856,"midi":58,"time":269.0677083333333,"velocity":0.3937007874015748},{"duration":0.30078125,"midi":65,"time":269.0911458333333,"velocity":0.3937007874015748},{"duration":0.06640625,"midi":62,"time":269.0911458333333,"velocity":0.3937007874015748},{"duration":0.059895833333314386,"midi":77,"time":269.1822916666667,"velocity":0.3937007874015748},{"duration":0.059895833333314386,"midi":82,"time":269.1953125,"velocity":0.3937007874015748},{"duration":0.06119791666662877,"midi":62,"time":269.3580729166667,"velocity":0.3937007874015748},{"duration":0.06119791666662877,"midi":49,"time":269.3580729166667,"velocity":0.3937007874015748},{"duration":0.059895833333314386,"midi":75,"time":269.3815104166667,"velocity":0.3937007874015748},{"duration":0.059895833333314386,"midi":68,"time":269.3815104166667,"velocity":0.3937007874015748},{"duration":0.059895833333314386,"midi":71,"time":269.3815104166667,"velocity":0.3937007874015748},{"duration":0.17447916666662877,"midi":77,"time":269.3815104166667,"velocity":0.3937007874015748},{"duration":0.17447916666662877,"midi":81,"time":269.3815104166667,"velocity":0.3937007874015748},{"duration":0.05859375,"midi":51,"time":269.39453125,"velocity":0.3937007874015748},{"duration":0.05859375,"midi":89,"time":269.39453125,"velocity":0.3937007874015748},{"duration":0.2981770833333144,"midi":45,"time":269.40625,"velocity":0.3937007874015748},{"duration":0.05859375,"midi":74,"time":269.40625,"velocity":0.3937007874015748},{"duration":0.05859375,"midi":90,"time":269.40625,"velocity":0.3937007874015748},{"duration":0.05859375,"midi":79,"time":269.40625,"velocity":0.3937007874015748},{"duration":0.05859375,"midi":88,"time":269.40625,"velocity":0.3937007874015748},{"duration":0.057291666666685614,"midi":32,"time":269.41796875,"velocity":0.3937007874015748},{"duration":0.057291666666685614,"midi":62,"time":269.41796875,"velocity":0.3937007874015748},{"duration":0.057291666666685614,"midi":84,"time":269.41796875,"velocity":0.3937007874015748},{"duration":0.05859375,"midi":67,"time":269.4296875,"velocity":0.3937007874015748},{"duration":0.05859375,"midi":87,"time":269.4296875,"velocity":0.3937007874015748},{"duration":0.05859375,"midi":63,"time":269.44140625,"velocity":0.3937007874015748},{"duration":0.05859375,"midi":32,"time":269.4518229166667,"velocity":0.3937007874015748},{"duration":0.17317708333331439,"midi":52,"time":269.4518229166667,"velocity":0.3937007874015748},{"duration":0.17317708333331439,"midi":33,"time":269.4752604166667,"velocity":0.3937007874015748},{"duration":0.17317708333331439,"midi":67,"time":269.4752604166667,"velocity":0.3937007874015748},{"duration":0.05859375,"midi":61,"time":269.5104166666667,"velocity":0.3937007874015748},{"duration":0.05859375,"midi":74,"time":269.5208333333333,"velocity":0.3937007874015748},{"duration":0.17447916666668561,"midi":65,"time":269.5559895833333,"velocity":0.3937007874015748},{"duration":0.17447916666668561,"midi":33,"time":269.5559895833333,"velocity":0.3937007874015748},{"duration":0.05859375,"midi":61,"time":269.5559895833333,"velocity":0.3937007874015748},{"duration":0.057291666666685614,"midi":52,"time":269.5677083333333,"velocity":0.3937007874015748},{"duration":0.17447916666668561,"midi":81,"time":269.5794270833333,"velocity":0.3937007874015748},{"duration":0.17447916666668561,"midi":58,"time":269.6953125,"velocity":0.3937007874015748},{"duration":0.05859375,"midi":74,"time":269.70703125,"velocity":0.3937007874015748},{"duration":0.05859375,"midi":70,"time":269.7526041666667,"velocity":0.3937007874015748},{"duration":0.05859375,"midi":77,"time":269.7526041666667,"velocity":0.3937007874015748},{"duration":0.17578125,"midi":63,"time":269.7643229166667,"velocity":0.3937007874015748},{"duration":0.296875,"midi":81,"time":269.7760416666667,"velocity":0.3937007874015748},{"duration":0.17708333333337123,"midi":71,"time":269.7981770833333,"velocity":0.3937007874015748},{"duration":0.17578125,"midi":58,"time":269.8216145833333,"velocity":0.3937007874015748},{"duration":0.061197916666685614,"midi":62,"time":269.9036458333333,"velocity":0.3937007874015748},{"duration":0.05989583333337123,"midi":46,"time":269.9153645833333,"velocity":0.3937007874015748},{"duration":0.05859375,"midi":75,"time":269.9283854166667,"velocity":0.3937007874015748},{"duration":0.05729166666662877,"midi":63,"time":269.9401041666667,"velocity":0.3937007874015748},{"duration":0.16796875,"midi":70,"time":269.9518229166667,"velocity":0.3937007874015748},{"duration":0.055989583333314386,"midi":89,"time":269.9518229166667,"velocity":0.3937007874015748},{"duration":0.29296875,"midi":53,"time":269.96484375,"velocity":0.3937007874015748},{"duration":0.055989583333314386,"midi":45,"time":269.9752604166667,"velocity":0.3937007874015748},{"duration":0.055989583333314386,"midi":74,"time":269.9752604166667,"velocity":0.3937007874015748},{"duration":0.16796875,"midi":82,"time":269.9752604166667,"velocity":0.3937007874015748},{"duration":0.05598958333337123,"midi":38,"time":269.9856770833333,"velocity":0.3937007874015748},{"duration":0.29427083333337123,"midi":68,"time":269.9856770833333,"velocity":0.3937007874015748},{"duration":0.16927083333337123,"midi":95,"time":269.9856770833333,"velocity":0.3937007874015748},{"duration":0.16927083333337123,"midi":58,"time":269.9856770833333,"velocity":0.3937007874015748},{"duration":0.055989583333314386,"midi":47,"time":269.99609375,"velocity":0.3937007874015748},{"duration":0.055989583333314386,"midi":75,"time":269.99609375,"velocity":0.3937007874015748},{"duration":0.057291666666685614,"midi":79,"time":270.0078125,"velocity":0.3937007874015748},{"duration":0.171875,"midi":46,"time":270.0182291666667,"velocity":0.3937007874015748},{"duration":0.171875,"midi":62,"time":270.0182291666667,"velocity":0.3937007874015748},{"duration":0.05729166666662877,"midi":35,"time":270.0299479166667,"velocity":0.3937007874015748},{"duration":0.05729166666662877,"midi":83,"time":270.0416666666667,"velocity":0.3937007874015748},{"duration":0.057291666666685614,"midi":33,"time":270.0520833333333,"velocity":0.3937007874015748},{"duration":0.057291666666685614,"midi":35,"time":270.0755208333333,"velocity":0.3937007874015748},{"duration":0.057291666666685614,"midi":89,"time":270.0755208333333,"velocity":0.3937007874015748},{"duration":0.17317708333337123,"midi":63,"time":270.0872395833333,"velocity":0.3937007874015748},{"duration":0.17317708333331439,"midi":34,"time":270.09765625,"velocity":0.3937007874015748},{"duration":0.13932291666668561,"midi":91,"time":270.09765625,"velocity":0.3937007874015748},{"duration":0.2994791666666856,"midi":88,"time":270.109375,"velocity":0.3937007874015748},{"duration":0.17447916666662877,"midi":83,"time":270.1315104166667,"velocity":0.3937007874015748},{"duration":0.17578125,"midi":76,"time":270.1419270833333,"velocity":0.3937007874015748},{"duration":0.17578125,"midi":92,"time":270.1419270833333,"velocity":0.3937007874015748},{"duration":0.09375,"midi":91,"time":270.1770833333333,"velocity":0.3937007874015748},{"duration":0.17578125,"midi":90,"time":270.1901041666667,"velocity":0.3937007874015748},{"duration":0.059895833333314386,"midi":64,"time":270.1901041666667,"velocity":0.3937007874015748},{"duration":0.05859375,"midi":46,"time":270.2018229166667,"velocity":0.3937007874015748},{"duration":0.17447916666668561,"midi":64,"time":270.2591145833333,"velocity":0.3937007874015748},{"duration":0.05989583333337123,"midi":75,"time":270.3059895833333,"velocity":0.3937007874015748},{"duration":0.05859375,"midi":82,"time":270.3177083333333,"velocity":0.3937007874015748},{"duration":0.05859375,"midi":91,"time":270.3177083333333,"velocity":0.3937007874015748},{"duration":0.17317708333337123,"midi":81,"time":270.3294270833333,"velocity":0.3937007874015748},{"duration":0.05859375,"midi":77,"time":270.3294270833333,"velocity":0.3937007874015748},{"duration":0.05859375,"midi":62,"time":270.3424479166667,"velocity":0.3937007874015748},{"duration":0.05859375,"midi":76,"time":270.3645833333333,"velocity":0.3937007874015748},{"duration":0.05859375,"midi":83,"time":270.3645833333333,"velocity":0.3937007874015748},{"duration":0.05859375,"midi":64,"time":270.375,"velocity":0.3937007874015748},{"duration":0.05859375,"midi":75,"time":270.41015625,"velocity":0.3937007874015748},{"duration":0.17317708333337123,"midi":62,"time":270.4231770833333,"velocity":0.3937007874015748},{"duration":0.15234375,"midi":83,"time":270.4440104166667,"velocity":0.3937007874015748},{"duration":0.05859375,"midi":81,"time":270.4791666666667,"velocity":0.3937007874015748},{"duration":0.08072916666662877,"midi":83,"time":270.5377604166667,"velocity":0.3937007874015748},{"duration":0.05859375,"midi":63,"time":270.6184895833333,"velocity":0.3937007874015748},{"duration":0.05859375,"midi":64,"time":270.69921875,"velocity":0.3937007874015748},{"duration":0.057291666666685614,"midi":48,"time":270.7109375,"velocity":0.3937007874015748},{"duration":0.057291666666685614,"midi":68,"time":270.7109375,"velocity":0.3937007874015748},{"duration":0.057291666666685614,"midi":63,"time":270.734375,"velocity":0.3937007874015748},{"duration":0.057291666666685614,"midi":35,"time":270.734375,"velocity":0.3937007874015748},{"duration":0.057291666666685614,"midi":79,"time":270.734375,"velocity":0.3937007874015748},{"duration":0.17317708333331439,"midi":76,"time":270.734375,"velocity":0.3937007874015748},{"duration":0.057291666666685614,"midi":50,"time":270.734375,"velocity":0.3937007874015748},{"duration":0.17317708333331439,"midi":64,"time":270.7565104166667,"velocity":0.3937007874015748},{"duration":0.05729166666662877,"midi":67,"time":270.7565104166667,"velocity":0.3937007874015748},{"duration":0.17317708333331439,"midi":83,"time":270.7565104166667,"velocity":0.3937007874015748},{"duration":0.17447916666662877,"midi":55,"time":270.7682291666667,"velocity":0.3937007874015748},{"duration":0.6796875,"midi":48,"time":270.7682291666667,"velocity":0.3937007874015748},{"duration":0.6796875,"midi":36,"time":270.7682291666667,"velocity":0.3937007874015748},{"duration":0.17447916666662877,"midi":86,"time":270.7682291666667,"velocity":0.3937007874015748},{"duration":0.05859375,"midi":81,"time":270.8138020833333,"velocity":0.3937007874015748},{"duration":0.17708333333331439,"midi":81,"time":270.859375,"velocity":0.3937007874015748},{"duration":0.059895833333314386,"midi":74,"time":270.89453125,"velocity":0.3937007874015748},{"duration":0.059895833333314386,"midi":55,"time":270.89453125,"velocity":0.3937007874015748},{"duration":0.17708333333331439,"midi":82,"time":270.9296875,"velocity":0.3937007874015748},{"duration":0.059895833333314386,"midi":63,"time":270.94140625,"velocity":0.3937007874015748},{"duration":0.17708333333331439,"midi":55,"time":270.94140625,"velocity":0.3937007874015748},{"duration":0.059895833333314386,"midi":83,"time":271.0234375,"velocity":0.3937007874015748},{"duration":0.17708333333337123,"midi":55,"time":271.0364583333333,"velocity":0.3937007874015748},{"duration":0.17708333333337123,"midi":64,"time":271.0481770833333,"velocity":0.3937007874015748},{"duration":0.05989583333337123,"midi":82,"time":271.0833333333333,"velocity":0.3937007874015748},{"duration":0.061197916666685614,"midi":77,"time":271.09375,"velocity":0.3937007874015748},{"duration":0.05989583333337123,"midi":83,"time":271.1184895833333,"velocity":0.3937007874015748},{"duration":0.17708333333337123,"midi":64,"time":271.1302083333333,"velocity":0.3937007874015748},{"duration":0.05989583333337123,"midi":57,"time":271.1302083333333,"velocity":0.3937007874015748},{"duration":0.061197916666685614,"midi":75,"time":271.2005208333333,"velocity":0.3937007874015748},{"duration":0.059895833333314386,"midi":82,"time":271.2252604166667,"velocity":0.3937007874015748},{"duration":0.17578125,"midi":55,"time":271.2369791666667,"velocity":0.3937007874015748},{"duration":0.05989583333337123,"midi":74,"time":271.2942708333333,"velocity":0.3937007874015748},{"duration":0.05989583333337123,"midi":65,"time":271.3294270833333,"velocity":0.3937007874015748},{"duration":0.059895833333314386,"midi":47,"time":271.3424479166667,"velocity":0.3937007874015748},{"duration":0.05859375,"midi":47,"time":271.3893229166667,"velocity":0.3937007874015748},{"duration":0.05859375,"midi":35,"time":271.4114583333333,"velocity":0.3937007874015748},{"duration":0.05989583333337123,"midi":65,"time":271.4700520833333,"velocity":0.3937007874015748},{"duration":0.059895833333314386,"midi":82,"time":271.4921875,"velocity":0.3937007874015748},{"duration":0.059895833333314386,"midi":53,"time":271.4921875,"velocity":0.3937007874015748},{"duration":0.4270833333333144,"midi":77,"time":271.4921875,"velocity":0.3937007874015748},{"duration":0.059895833333314386,"midi":40,"time":271.4921875,"velocity":0.3937007874015748},{"duration":0.059895833333314386,"midi":69,"time":271.4921875,"velocity":0.3937007874015748},{"duration":0.05859375,"midi":86,"time":271.5052083333333,"velocity":0.3937007874015748},{"duration":0.05859375,"midi":58,"time":271.5052083333333,"velocity":0.3937007874015748},{"duration":0.17578125,"midi":84,"time":271.5052083333333,"velocity":0.3937007874015748},{"duration":0.05859375,"midi":41,"time":271.5169270833333,"velocity":0.3937007874015748},{"duration":0.17447916666668561,"midi":46,"time":271.5286458333333,"velocity":0.3937007874015748},{"duration":0.05859375,"midi":63,"time":271.5286458333333,"velocity":0.3937007874015748},{"duration":0.17447916666668561,"midi":53,"time":271.5403645833333,"velocity":0.3937007874015748},{"duration":0.17447916666668561,"midi":74,"time":271.5403645833333,"velocity":0.3937007874015748},{"duration":0.17447916666668561,"midi":69,"time":271.5520833333333,"velocity":0.3937007874015748},{"duration":0.059895833333314386,"midi":62,"time":271.5625,"velocity":0.3937007874015748},{"duration":0.059895833333314386,"midi":34,"time":271.59765625,"velocity":0.3937007874015748},{"duration":0.17578125,"midi":62,"time":271.6106770833333,"velocity":0.3937007874015748},{"duration":0.059895833333314386,"midi":34,"time":271.6328125,"velocity":0.3937007874015748},{"duration":0.05859375,"midi":68,"time":271.64453125,"velocity":0.3937007874015748},{"duration":0.4270833333333144,"midi":74,"time":271.6796875,"velocity":0.3937007874015748},{"duration":0.05859375,"midi":63,"time":271.6927083333333,"velocity":0.3937007874015748},{"duration":0.059895833333314386,"midi":34,"time":271.703125,"velocity":0.3937007874015748},{"duration":0.17578125,"midi":62,"time":271.7135416666667,"velocity":0.3937007874015748},{"duration":0.17578125,"midi":70,"time":271.7135416666667,"velocity":0.3937007874015748},{"duration":0.17578125,"midi":84,"time":271.7265625,"velocity":0.3937007874015748},{"duration":0.059895833333314386,"midi":32,"time":271.73828125,"velocity":0.3937007874015748},{"duration":0.05859375,"midi":53,"time":271.8203125,"velocity":0.3937007874015748},{"duration":0.05859375,"midi":81,"time":271.85546875,"velocity":0.3937007874015748},{"duration":0.17578125,"midi":88,"time":271.8776041666667,"velocity":0.3937007874015748},{"duration":0.17578125,"midi":65,"time":271.8776041666667,"velocity":0.3937007874015748},{"duration":0.06119791666662877,"midi":59,"time":271.8893229166667,"velocity":0.3937007874015748},{"duration":0.06119791666662877,"midi":45,"time":271.8893229166667,"velocity":0.3937007874015748},{"duration":0.06119791666662877,"midi":89,"time":271.8893229166667,"velocity":0.3937007874015748},{"duration":0.059895833333314386,"midi":37,"time":271.9010416666667,"velocity":0.3937007874015748},{"duration":0.059895833333314386,"midi":81,"time":271.9010416666667,"velocity":0.3937007874015748},{"duration":0.059895833333314386,"midi":91,"time":271.9127604166667,"velocity":0.3937007874015748},{"duration":0.15364583333331439,"midi":58,"time":271.9127604166667,"velocity":0.3937007874015748},{"duration":0.17578125,"midi":69,"time":271.92578125,"velocity":0.3937007874015748},{"duration":0.17578125,"midi":84,"time":271.9375,"velocity":0.3937007874015748},{"duration":0.05859375,"midi":46,"time":271.9375,"velocity":0.3937007874015748},{"duration":0.057291666666685614,"midi":83,"time":271.94921875,"velocity":0.3937007874015748},{"duration":0.057291666666685614,"midi":27,"time":271.94921875,"velocity":0.3937007874015748},{"duration":0.05859375,"midi":53,"time":271.9609375,"velocity":0.3937007874015748},{"duration":0.17578125,"midi":62,"time":271.9830729166667,"velocity":0.3937007874015748},{"duration":0.05859375,"midi":44,"time":271.9947916666667,"velocity":0.3937007874015748},{"duration":0.08203125,"midi":58,"time":272.0065104166667,"velocity":0.3937007874015748},{"duration":0.29947916666662877,"midi":58,"time":272.0768229166667,"velocity":0.3937007874015748},{"duration":0.17447916666662877,"midi":53,"time":272.0885416666667,"velocity":0.3937007874015748},{"duration":0.059895833333314386,"midi":41,"time":272.0885416666667,"velocity":0.3937007874015748},{"duration":0.17317708333331439,"midi":81,"time":272.125,"velocity":0.3937007874015748},{"duration":0.2981770833333144,"midi":65,"time":272.1471354166667,"velocity":0.3937007874015748},{"duration":0.05859375,"midi":62,"time":272.2395833333333,"velocity":0.3937007874015748},{"duration":0.17578125,"midi":50,"time":272.296875,"velocity":0.3937007874015748},{"duration":0.17578125,"midi":58,"time":272.34375,"velocity":0.3937007874015748},{"duration":0.17578125,"midi":62,"time":272.34375,"velocity":0.3937007874015748},{"duration":0.17578125,"midi":50,"time":272.3776041666667,"velocity":0.3937007874015748},{"duration":0.06119791666662877,"midi":57,"time":272.4244791666667,"velocity":0.3937007874015748},{"duration":0.17708333333331439,"midi":68,"time":272.4361979166667,"velocity":0.3937007874015748},{"duration":0.059895833333314386,"midi":51,"time":272.4479166666667,"velocity":0.3937007874015748},{"duration":0.059895833333314386,"midi":60,"time":272.4479166666667,"velocity":0.3937007874015748},{"duration":0.059895833333314386,"midi":77,"time":272.4479166666667,"velocity":0.3937007874015748},{"duration":0.059895833333314386,"midi":75,"time":272.4479166666667,"velocity":0.3937007874015748},{"duration":0.05859375,"midi":93,"time":272.4609375,"velocity":0.3937007874015748},{"duration":0.05859375,"midi":90,"time":272.47265625,"velocity":0.3937007874015748},{"duration":0.05859375,"midi":47,"time":272.484375,"velocity":0.3937007874015748},{"duration":0.05859375,"midi":63,"time":272.484375,"velocity":0.3937007874015748},{"duration":0.05859375,"midi":74,"time":272.4947916666667,"velocity":0.3937007874015748},{"duration":0.17578125,"midi":53,"time":272.4947916666667,"velocity":0.3937007874015748},{"duration":0.17578125,"midi":34,"time":272.5078125,"velocity":0.3937007874015748},{"duration":0.17578125,"midi":46,"time":272.5078125,"velocity":0.3937007874015748},{"duration":0.17578125,"midi":62,"time":272.5078125,"velocity":0.3937007874015748},{"duration":0.05859375,"midi":81,"time":272.5078125,"velocity":0.3937007874015748},{"duration":0.05859375,"midi":77,"time":272.5078125,"velocity":0.3937007874015748},{"duration":0.059895833333314386,"midi":68,"time":272.6002604166667,"velocity":0.3937007874015748},{"duration":0.42578125,"midi":62,"time":272.66015625,"velocity":0.3937007874015748},{"duration":0.059895833333314386,"midi":47,"time":272.66015625,"velocity":0.3937007874015748},{"duration":0.17578125,"midi":81,"time":272.6705729166667,"velocity":0.3937007874015748},{"duration":0.059895833333314386,"midi":47,"time":272.6953125,"velocity":0.3937007874015748},{"duration":0.05859375,"midi":65,"time":272.77734375,"velocity":0.3937007874015748},{"duration":0.05859375,"midi":81,"time":272.7994791666667,"velocity":0.3937007874015748},{"duration":0.05859375,"midi":77,"time":272.8229166666667,"velocity":0.3937007874015748},{"duration":0.05859375,"midi":76,"time":272.8346354166667,"velocity":0.3937007874015748},{"duration":0.05859375,"midi":70,"time":272.8346354166667,"velocity":0.3937007874015748},{"duration":0.05989583333337123,"midi":50,"time":272.8802083333333,"velocity":0.3937007874015748},{"duration":0.17708333333337123,"midi":81,"time":272.8802083333333,"velocity":0.3937007874015748},{"duration":0.06119791666662877,"midi":50,"time":272.9635416666667,"velocity":0.3937007874015748},{"duration":0.17317708333331439,"midi":75,"time":272.9752604166667,"velocity":0.3937007874015748},{"duration":0.059895833333314386,"midi":63,"time":272.9869791666667,"velocity":0.3937007874015748},{"duration":0.171875,"midi":58,"time":272.9986979166667,"velocity":0.3937007874015748},{"duration":0.05859375,"midi":91,"time":273.01171875,"velocity":0.3937007874015748},{"duration":0.057291666666685614,"midi":88,"time":273.0234375,"velocity":0.3937007874015748},{"duration":0.171875,"midi":65,"time":273.0234375,"velocity":0.3937007874015748},{"duration":0.171875,"midi":95,"time":273.0338541666667,"velocity":0.3937007874015748},{"duration":0.055989583333314386,"midi":45,"time":273.046875,"velocity":0.3937007874015748},{"duration":0.171875,"midi":82,"time":273.046875,"velocity":0.3937007874015748},{"duration":0.055989583333314386,"midi":79,"time":273.046875,"velocity":0.3937007874015748},{"duration":0.17317708333331439,"midi":46,"time":273.0690104166667,"velocity":0.3937007874015748},{"duration":0.05729166666662877,"midi":62,"time":273.0807291666667,"velocity":0.3937007874015748},{"duration":0.05859375,"midi":83,"time":273.1015625,"velocity":0.3937007874015748},{"duration":0.05859375,"midi":75,"time":273.13671875,"velocity":0.3937007874015748},{"duration":0.30078125,"midi":88,"time":273.16015625,"velocity":0.3937007874015748},{"duration":0.30078125,"midi":83,"time":273.1705729166667,"velocity":0.3937007874015748},{"duration":0.17447916666662877,"midi":81,"time":273.1822916666667,"velocity":0.3937007874015748},{"duration":0.059895833333314386,"midi":64,"time":273.1822916666667,"velocity":0.3937007874015748},{"duration":0.059895833333314386,"midi":82,"time":273.2174479166667,"velocity":0.3937007874015748},{"duration":0.05859375,"midi":63,"time":273.23046875,"velocity":0.3937007874015748},{"duration":0.17578125,"midi":92,"time":273.2526041666667,"velocity":0.3937007874015748},{"duration":0.05729166666662877,"midi":64,"time":273.2643229166667,"velocity":0.3937007874015748},{"duration":0.17578125,"midi":50,"time":273.2643229166667,"velocity":0.3937007874015748},{"duration":0.057291666666685614,"midi":74,"time":273.27734375,"velocity":0.3937007874015748},{"duration":0.05859375,"midi":58,"time":273.2877604166667,"velocity":0.3937007874015748},{"duration":0.05859375,"midi":62,"time":273.2981770833333,"velocity":0.3937007874015748},{"duration":0.17578125,"midi":64,"time":273.3216145833333,"velocity":0.3937007874015748},{"duration":0.061197916666685614,"midi":77,"time":273.3919270833333,"velocity":0.3937007874015748},{"duration":0.061197916666685614,"midi":75,"time":273.3919270833333,"velocity":0.3937007874015748},{"duration":0.17447916666668561,"midi":82,"time":273.4036458333333,"velocity":0.3937007874015748},{"duration":0.05989583333337123,"midi":63,"time":273.4036458333333,"velocity":0.3937007874015748},{"duration":0.17447916666668561,"midi":93,"time":273.4153645833333,"velocity":0.3937007874015748},{"duration":0.17447916666662877,"midi":62,"time":273.4283854166667,"velocity":0.3937007874015748},{"duration":0.05859375,"midi":90,"time":273.4283854166667,"velocity":0.3937007874015748},{"duration":0.17447916666662877,"midi":81,"time":273.4283854166667,"velocity":0.3937007874015748},{"duration":0.17317708333331439,"midi":76,"time":273.4518229166667,"velocity":0.3937007874015748},{"duration":0.05859375,"midi":64,"time":273.49609375,"velocity":0.3937007874015748},{"duration":0.059895833333314386,"midi":77,"time":273.5651041666667,"velocity":0.3937007874015748},{"duration":0.17447916666668561,"midi":64,"time":273.578125,"velocity":0.3937007874015748},{"duration":0.05859375,"midi":83,"time":273.58984375,"velocity":0.3937007874015748},{"duration":0.17447916666668561,"midi":81,"time":273.58984375,"velocity":0.3937007874015748},{"duration":0.05859375,"midi":63,"time":273.6588541666667,"velocity":0.3937007874015748},{"duration":0.17447916666668561,"midi":74,"time":273.6809895833333,"velocity":0.3937007874015748},{"duration":0.05989583333337123,"midi":63,"time":273.7395833333333,"velocity":0.3937007874015748},{"duration":0.05859375,"midi":53,"time":273.7513020833333,"velocity":0.3937007874015748},{"duration":0.29036458333337123,"midi":60,"time":273.7630208333333,"velocity":0.3937007874015748},{"duration":0.05859375,"midi":63,"time":273.7864583333333,"velocity":0.3937007874015748},{"duration":0.17317708333337123,"midi":89,"time":273.7981770833333,"velocity":0.3937007874015748},{"duration":0.17317708333337123,"midi":81,"time":273.7981770833333,"velocity":0.3937007874015748},{"duration":0.057291666666685614,"midi":85,"time":273.7981770833333,"velocity":0.3937007874015748},{"duration":0.057291666666685614,"midi":86,"time":273.7981770833333,"velocity":0.3937007874015748},{"duration":0.057291666666685614,"midi":68,"time":273.7981770833333,"velocity":0.3937007874015748},{"duration":0.05859375,"midi":88,"time":273.8098958333333,"velocity":0.3937007874015748},{"duration":0.05859375,"midi":64,"time":273.8098958333333,"velocity":0.3937007874015748},{"duration":0.05859375,"midi":50,"time":273.8098958333333,"velocity":0.3937007874015748},{"duration":0.17447916666668561,"midi":95,"time":273.8203125,"velocity":0.3937007874015748},{"duration":0.05859375,"midi":51,"time":273.8203125,"velocity":0.3937007874015748},{"duration":0.05859375,"midi":90,"time":273.8203125,"velocity":0.3937007874015748},{"duration":0.17447916666668561,"midi":53,"time":273.83203125,"velocity":0.3937007874015748},{"duration":0.2994791666666856,"midi":41,"time":273.83203125,"velocity":0.3937007874015748},{"duration":0.17447916666668561,"midi":91,"time":273.83203125,"velocity":0.3937007874015748},{"duration":0.05859375,"midi":63,"time":273.85546875,"velocity":0.3937007874015748},{"duration":0.05859375,"midi":64,"time":273.8776041666667,"velocity":0.3937007874015748},{"duration":0.17578125,"midi":83,"time":273.9361979166667,"velocity":0.3937007874015748},{"duration":0.05989583333337123,"midi":52,"time":273.9934895833333,"velocity":0.3937007874015748},{"duration":0.06770833333337123,"midi":60,"time":273.9934895833333,"velocity":0.3937007874015748},{"duration":0.17578125,"midi":57,"time":273.9934895833333,"velocity":0.3937007874015748},{"duration":0.05989583333337123,"midi":64,"time":274.0638020833333,"velocity":0.3937007874015748},{"duration":0.05859375,"midi":51,"time":274.0768229166667,"velocity":0.3937007874015748},{"duration":0.05989583333337123,"midi":64,"time":274.1341145833333,"velocity":0.3937007874015748},{"duration":0.05859375,"midi":56,"time":274.1692708333333,"velocity":0.3937007874015748},{"duration":0.05859375,"midi":64,"time":274.1809895833333,"velocity":0.3937007874015748},{"duration":0.17447916666668561,"midi":86,"time":274.1809895833333,"velocity":0.3937007874015748},{"duration":0.17447916666662877,"midi":84,"time":274.1940104166667,"velocity":0.3937007874015748},{"duration":0.17447916666662877,"midi":93,"time":274.1940104166667,"velocity":0.3937007874015748},{"duration":0.17578125,"midi":57,"time":274.2044270833333,"velocity":0.3937007874015748},{"duration":0.30078125,"midi":65,"time":274.2278645833333,"velocity":0.3937007874015748},{"duration":0.05859375,"midi":81,"time":274.2747395833333,"velocity":0.3937007874015748},{"duration":0.059895833333314386,"midi":58,"time":274.40234375,"velocity":0.3937007874015748},{"duration":0.17447916666668561,"midi":72,"time":274.4140625,"velocity":0.3937007874015748},{"duration":0.17447916666668561,"midi":79,"time":274.4140625,"velocity":0.3937007874015748},{"duration":0.05859375,"midi":46,"time":274.4270833333333,"velocity":0.3937007874015748},{"duration":0.17578125,"midi":60,"time":274.4622395833333,"velocity":0.3937007874015748},{"duration":0.17578125,"midi":45,"time":274.4622395833333,"velocity":0.3937007874015748},{"duration":0.5546875,"midi":76,"time":274.484375,"velocity":0.3937007874015748},{"duration":0.17708333333331439,"midi":64,"time":274.484375,"velocity":0.3937007874015748},{"duration":0.3033854166666856,"midi":83,"time":274.484375,"velocity":0.3937007874015748},{"duration":0.17708333333331439,"midi":69,"time":274.484375,"velocity":0.3937007874015748},{"duration":0.17838541666662877,"midi":91,"time":274.5533854166667,"velocity":0.3937007874015748},{"duration":0.8072916666666288,"midi":72,"time":274.5533854166667,"velocity":0.3937007874015748},{"duration":0.17838541666662877,"midi":84,"time":274.5651041666667,"velocity":0.3937007874015748},{"duration":0.3046875,"midi":57,"time":274.5885416666667,"velocity":0.3937007874015748},{"duration":0.17838541666662877,"midi":64,"time":274.6002604166667,"velocity":0.3937007874015748},{"duration":0.061197916666685614,"midi":42,"time":274.61328125,"velocity":0.3937007874015748},{"duration":0.061197916666685614,"midi":37,"time":274.625,"velocity":0.3937007874015748},{"duration":0.059895833333314386,"midi":45,"time":274.6484375,"velocity":0.3937007874015748},{"duration":0.8046875,"midi":91,"time":274.6614583333333,"velocity":0.3937007874015748},{"duration":0.30208333333337123,"midi":79,"time":274.6731770833333,"velocity":0.3937007874015748},{"duration":0.30208333333337123,"midi":45,"time":274.7083333333333,"velocity":0.3937007874015748},{"duration":0.30208333333337123,"midi":83,"time":274.7083333333333,"velocity":0.3937007874015748},{"duration":0.059895833333314386,"midi":60,"time":274.765625,"velocity":0.3937007874015748},{"duration":0.05989583333337123,"midi":64,"time":274.8138020833333,"velocity":0.3937007874015748},{"duration":0.05989583333337123,"midi":63,"time":274.8606770833333,"velocity":0.3937007874015748},{"duration":0.17578125,"midi":64,"time":274.8958333333333,"velocity":0.3937007874015748},{"duration":0.17578125,"midi":89,"time":274.9661458333333,"velocity":0.3937007874015748},{"duration":0.05859375,"midi":51,"time":274.9778645833333,"velocity":0.3937007874015748},{"duration":0.17578125,"midi":83,"time":274.9778645833333,"velocity":0.3937007874015748},{"duration":0.05859375,"midi":68,"time":274.9778645833333,"velocity":0.3937007874015748},{"duration":0.05859375,"midi":60,"time":274.9778645833333,"velocity":0.3937007874015748},{"duration":0.17578125,"midi":57,"time":275,"velocity":0.3937007874015748},{"duration":0.42708333333337123,"midi":45,"time":275.0481770833333,"velocity":0.3937007874015748},{"duration":0.17578125,"midi":52,"time":275.0703125,"velocity":0.3937007874015748},{"duration":0.3020833333333144,"midi":60,"time":275.0703125,"velocity":0.3937007874015748},{"duration":0.059895833333314386,"midi":83,"time":275.12890625,"velocity":0.3937007874015748},{"duration":0.17578125,"midi":76,"time":275.15234375,"velocity":0.3937007874015748},{"duration":0.17578125,"midi":64,"time":275.17578125,"velocity":0.3937007874015748},{"duration":0.5494791666666856,"midi":72,"time":275.31640625,"velocity":0.3937007874015748},{"duration":0.059895833333314386,"midi":64,"time":275.3515625,"velocity":0.3937007874015748},{"duration":0.059895833333314386,"midi":60,"time":275.3515625,"velocity":0.3937007874015748},{"duration":0.17578125,"midi":63,"time":275.375,"velocity":0.3937007874015748},{"duration":0.17708333333331439,"midi":60,"time":275.4205729166667,"velocity":0.3937007874015748},{"duration":0.059895833333314386,"midi":64,"time":275.515625,"velocity":0.3937007874015748},{"duration":0.059895833333314386,"midi":60,"time":275.5377604166667,"velocity":0.3937007874015748},{"duration":0.17317708333331439,"midi":68,"time":275.5625,"velocity":0.3937007874015748},{"duration":0.4166666666666856,"midi":52,"time":275.5625,"velocity":0.3937007874015748},{"duration":0.05859375,"midi":60,"time":275.59765625,"velocity":0.3937007874015748},{"duration":0.17317708333331439,"midi":40,"time":275.6080729166667,"velocity":0.3937007874015748},{"duration":0.05859375,"midi":59,"time":275.6315104166667,"velocity":0.3937007874015748},{"duration":0.05859375,"midi":59,"time":275.6666666666667,"velocity":0.3937007874015748},{"duration":0.17317708333331439,"midi":91,"time":275.6666666666667,"velocity":0.3937007874015748},{"duration":0.05859375,"midi":60,"time":275.6888020833333,"velocity":0.3937007874015748},{"duration":0.05859375,"midi":60,"time":275.7578125,"velocity":0.3937007874015748},{"duration":0.17447916666668561,"midi":60,"time":275.81640625,"velocity":0.3937007874015748},{"duration":0.15104166666662877,"midi":60,"time":275.9088541666667,"velocity":0.3937007874015748},{"duration":0.06380208333331439,"midi":52,"time":275.9205729166667,"velocity":0.3937007874015748},{"duration":0.17447916666662877,"midi":91,"time":275.9557291666667,"velocity":0.3937007874015748},{"duration":0.05859375,"midi":35,"time":275.9791666666667,"velocity":0.3937007874015748},{"duration":0.05859375,"midi":52,"time":276.0013020833333,"velocity":0.3937007874015748},{"duration":0.08203125,"midi":60,"time":276.0013020833333,"velocity":0.3937007874015748},{"duration":0.05989583333337123,"midi":53,"time":276.0481770833333,"velocity":0.3937007874015748},{"duration":0.059895833333314386,"midi":64,"time":276.0703125,"velocity":0.3937007874015748},{"duration":0.059895833333314386,"midi":60,"time":276.0703125,"velocity":0.3937007874015748},{"duration":0.05859375,"midi":85,"time":276.0950520833333,"velocity":0.3937007874015748},{"duration":0.05859375,"midi":81,"time":276.0950520833333,"velocity":0.3937007874015748},{"duration":0.05859375,"midi":93,"time":276.0950520833333,"velocity":0.3937007874015748},{"duration":0.05859375,"midi":69,"time":276.0950520833333,"velocity":0.3937007874015748},{"duration":0.057291666666685614,"midi":57,"time":276.1067708333333,"velocity":0.3937007874015748},{"duration":0.057291666666685614,"midi":88,"time":276.1067708333333,"velocity":0.3937007874015748},{"duration":0.17057291666668561,"midi":64,"time":276.1302083333333,"velocity":0.3937007874015748},{"duration":0.05859375,"midi":50,"time":276.140625,"velocity":0.3937007874015748},{"duration":0.057291666666685614,"midi":37,"time":276.15234375,"velocity":0.3937007874015748},{"duration":0.057291666666685614,"midi":60,"time":276.1640625,"velocity":0.3937007874015748},{"duration":0.057291666666685614,"midi":52,"time":276.1640625,"velocity":0.3937007874015748},{"duration":0.057291666666685614,"midi":60,"time":276.19921875,"velocity":0.3937007874015748},{"duration":0.05859375,"midi":69,"time":276.2096354166667,"velocity":0.3937007874015748},{"duration":0.05859375,"midi":51,"time":276.2200520833333,"velocity":0.3937007874015748},{"duration":0.05859375,"midi":38,"time":276.2317708333333,"velocity":0.3937007874015748},{"duration":0.057291666666685614,"midi":64,"time":276.2434895833333,"velocity":0.3937007874015748},{"duration":0.057291666666685614,"midi":60,"time":276.2786458333333,"velocity":0.3937007874015748},{"duration":0.057291666666685614,"midi":48,"time":276.2890625,"velocity":0.3937007874015748},{"duration":0.17447916666668561,"midi":93,"time":276.2890625,"velocity":0.3937007874015748},{"duration":0.05859375,"midi":57,"time":276.2994791666667,"velocity":0.3937007874015748},{"duration":0.05859375,"midi":68,"time":276.2994791666667,"velocity":0.3937007874015748},{"duration":0.05859375,"midi":57,"time":276.3346354166667,"velocity":0.3937007874015748},{"duration":0.05859375,"midi":37,"time":276.3346354166667,"velocity":0.3937007874015748},{"duration":0.05859375,"midi":61,"time":276.3346354166667,"velocity":0.3937007874015748},{"duration":0.17578125,"midi":72,"time":276.3463541666667,"velocity":0.3937007874015748},{"duration":0.17708333333337123,"midi":64,"time":276.3684895833333,"velocity":0.3937007874015748},{"duration":0.05989583333337123,"midi":60,"time":276.3684895833333,"velocity":0.3937007874015748},{"duration":0.05859375,"midi":38,"time":276.4283854166667,"velocity":0.3937007874015748},{"duration":0.05989583333337123,"midi":77,"time":276.4856770833333,"velocity":0.3937007874015748},{"duration":0.17317708333337123,"midi":92,"time":276.4856770833333,"velocity":0.3937007874015748},{"duration":0.17447916666668561,"midi":88,"time":276.49609375,"velocity":0.3937007874015748},{"duration":0.061197916666685614,"midi":48,"time":276.49609375,"velocity":0.3937007874015748},{"duration":0.061197916666685614,"midi":63,"time":276.49609375,"velocity":0.3937007874015748},{"duration":0.05989583333337123,"midi":60,"time":276.5091145833333,"velocity":0.3937007874015748},{"duration":0.05989583333337123,"midi":45,"time":276.5091145833333,"velocity":0.3937007874015748},{"duration":0.17317708333337123,"midi":52,"time":276.5325520833333,"velocity":0.3937007874015748},{"duration":0.05859375,"midi":73,"time":276.5325520833333,"velocity":0.3937007874015748},{"duration":0.05859375,"midi":61,"time":276.5677083333333,"velocity":0.3937007874015748},{"duration":0.05859375,"midi":31,"time":276.5677083333333,"velocity":0.3937007874015748},{"duration":0.171875,"midi":67,"time":276.5677083333333,"velocity":0.3937007874015748},{"duration":0.171875,"midi":45,"time":276.5794270833333,"velocity":0.3937007874015748},{"duration":0.05859375,"midi":91,"time":276.5794270833333,"velocity":0.3937007874015748},{"duration":0.057291666666685614,"midi":33,"time":276.5911458333333,"velocity":0.3937007874015748},{"duration":0.057291666666685614,"midi":60,"time":276.5911458333333,"velocity":0.3937007874015748},{"duration":0.05859375,"midi":60,"time":276.63671875,"velocity":0.3937007874015748},{"duration":0.05859375,"midi":53,"time":276.6471354166667,"velocity":0.3937007874015748},{"duration":0.05859375,"midi":51,"time":276.6705729166667,"velocity":0.3937007874015748},{"duration":0.05859375,"midi":62,"time":276.6705729166667,"velocity":0.3937007874015748},{"duration":0.05859375,"midi":72,"time":276.6705729166667,"velocity":0.3937007874015748},{"duration":0.05859375,"midi":77,"time":276.6705729166667,"velocity":0.3937007874015748},{"duration":0.05729166666662877,"midi":50,"time":276.6822916666667,"velocity":0.3937007874015748},{"duration":0.05729166666662877,"midi":41,"time":276.6822916666667,"velocity":0.3937007874015748},{"duration":0.05729166666662877,"midi":63,"time":276.7057291666667,"velocity":0.3937007874015748},{"duration":0.05729166666662877,"midi":57,"time":276.7057291666667,"velocity":0.3937007874015748},{"duration":0.17057291666668561,"midi":72,"time":276.7395833333333,"velocity":0.3937007874015748},{"duration":0.05859375,"midi":57,"time":276.75,"velocity":0.3937007874015748},{"duration":0.05859375,"midi":60,"time":276.75,"velocity":0.3937007874015748},{"duration":0.057291666666685614,"midi":45,"time":276.76171875,"velocity":0.3937007874015748},{"duration":0.057291666666685614,"midi":32,"time":276.7734375,"velocity":0.3937007874015748},{"duration":0.057291666666685614,"midi":52,"time":276.7734375,"velocity":0.3937007874015748},{"duration":0.05859375,"midi":45,"time":276.8190104166667,"velocity":0.3937007874015748},{"duration":0.05859375,"midi":61,"time":276.8294270833333,"velocity":0.3937007874015748},{"duration":0.05859375,"midi":52,"time":276.8411458333333,"velocity":0.3937007874015748},{"duration":0.057291666666685614,"midi":90,"time":276.8528645833333,"velocity":0.3937007874015748},{"duration":0.057291666666685614,"midi":59,"time":276.8645833333333,"velocity":0.3937007874015748},{"duration":0.17057291666668561,"midi":88,"time":276.8645833333333,"velocity":0.3937007874015748},{"duration":0.057291666666685614,"midi":50,"time":276.8645833333333,"velocity":0.3937007874015748},{"duration":0.05598958333337123,"midi":48,"time":276.8763020833333,"velocity":0.3937007874015748},{"duration":0.05598958333337123,"midi":84,"time":276.8763020833333,"velocity":0.3937007874015748},{"duration":0.05598958333337123,"midi":94,"time":276.8880208333333,"velocity":0.3937007874015748},{"duration":0.05598958333337123,"midi":45,"time":276.8880208333333,"velocity":0.3937007874015748},{"duration":0.05598958333337123,"midi":77,"time":276.8880208333333,"velocity":0.3937007874015748},{"duration":0.057291666666685614,"midi":60,"time":276.8984375,"velocity":0.3937007874015748},{"duration":0.057291666666685614,"midi":52,"time":276.8984375,"velocity":0.3937007874015748},{"duration":0.05729166666662877,"midi":71,"time":276.9088541666667,"velocity":0.3937007874015748},{"duration":0.05729166666662877,"midi":52,"time":276.9322916666667,"velocity":0.3937007874015748},{"duration":0.17447916666668561,"midi":45,"time":276.9427083333333,"velocity":0.3937007874015748},{"duration":0.05859375,"midi":64,"time":276.9427083333333,"velocity":0.3937007874015748},{"duration":0.05859375,"midi":31,"time":276.9427083333333,"velocity":0.3937007874015748},{"duration":0.17317708333337123,"midi":52,"time":276.9661458333333,"velocity":0.3937007874015748},{"duration":0.17317708333331439,"midi":67,"time":276.98828125,"velocity":0.3937007874015748},{"duration":0.059895833333314386,"midi":70,"time":277.01171875,"velocity":0.3937007874015748},{"duration":0.059895833333314386,"midi":74,"time":277.046875,"velocity":0.3937007874015748},{"duration":0.059895833333314386,"midi":51,"time":277.046875,"velocity":0.3937007874015748},{"duration":0.171875,"midi":57,"time":277.05859375,"velocity":0.3937007874015748},{"duration":0.05859375,"midi":49,"time":277.05859375,"velocity":0.3937007874015748},{"duration":0.05859375,"midi":71,"time":277.05859375,"velocity":0.3937007874015748},{"duration":0.057291666666685614,"midi":40,"time":277.0716145833333,"velocity":0.3937007874015748},{"duration":0.057291666666685614,"midi":63,"time":277.08203125,"velocity":0.3937007874015748},{"duration":0.057291666666685614,"midi":52,"time":277.09375,"velocity":0.3937007874015748},{"duration":0.057291666666685614,"midi":73,"time":277.09375,"velocity":0.3937007874015748},{"duration":0.05598958333337123,"midi":71,"time":277.1067708333333,"velocity":0.3937007874015748},{"duration":0.05598958333337123,"midi":46,"time":277.1067708333333,"velocity":0.3937007874015748},{"duration":0.057291666666685614,"midi":31,"time":277.1171875,"velocity":0.3937007874015748},{"duration":0.171875,"midi":67,"time":277.1276041666667,"velocity":0.3937007874015748},{"duration":0.05859375,"midi":45,"time":277.1276041666667,"velocity":0.3937007874015748},{"duration":0.05859375,"midi":63,"time":277.1380208333333,"velocity":0.3937007874015748},{"duration":0.05859375,"midi":52,"time":277.1614583333333,"velocity":0.3937007874015748},{"duration":0.05859375,"midi":70,"time":277.1966145833333,"velocity":0.3937007874015748},{"duration":0.05859375,"midi":45,"time":277.1966145833333,"velocity":0.3937007874015748},{"duration":0.05859375,"midi":52,"time":277.1966145833333,"velocity":0.3937007874015748},{"duration":0.05859375,"midi":35,"time":277.20703125,"velocity":0.3937007874015748},{"duration":0.05859375,"midi":62,"time":277.23046875,"velocity":0.3937007874015748},{"duration":0.05859375,"midi":83,"time":277.23046875,"velocity":0.3937007874015748},{"duration":0.05859375,"midi":51,"time":277.23046875,"velocity":0.3937007874015748},{"duration":0.057291666666685614,"midi":76,"time":277.2421875,"velocity":0.3937007874015748},{"duration":0.057291666666685614,"midi":42,"time":277.25390625,"velocity":0.3937007874015748},{"duration":0.296875,"midi":70,"time":277.25390625,"velocity":0.3937007874015748},{"duration":0.057291666666685614,"midi":63,"time":277.25390625,"velocity":0.3937007874015748},{"duration":0.057291666666685614,"midi":72,"time":277.25390625,"velocity":0.3937007874015748},{"duration":0.17317708333331439,"midi":57,"time":277.265625,"velocity":0.3937007874015748},{"duration":0.057291666666685614,"midi":41,"time":277.265625,"velocity":0.3937007874015748},{"duration":0.05729166666662877,"midi":63,"time":277.2877604166667,"velocity":0.3937007874015748},{"duration":0.05859375,"midi":45,"time":277.3216145833333,"velocity":0.3937007874015748},{"duration":0.05859375,"midi":63,"time":277.3450520833333,"velocity":0.3937007874015748},{"duration":0.17447916666668561,"midi":64,"time":277.3802083333333,"velocity":0.3937007874015748},{"duration":0.059895833333314386,"midi":58,"time":277.40234375,"velocity":0.3937007874015748},{"duration":0.059895833333314386,"midi":50,"time":277.4140625,"velocity":0.3937007874015748},{"duration":0.059895833333314386,"midi":77,"time":277.42578125,"velocity":0.3937007874015748},{"duration":0.05859375,"midi":51,"time":277.4375,"velocity":0.3937007874015748},{"duration":0.05859375,"midi":41,"time":277.4375,"velocity":0.3937007874015748},{"duration":0.05859375,"midi":71,"time":277.4505208333333,"velocity":0.3937007874015748},{"duration":0.17317708333337123,"midi":57,"time":277.4505208333333,"velocity":0.3937007874015748},{"duration":0.057291666666685614,"midi":63,"time":277.4622395833333,"velocity":0.3937007874015748},{"duration":0.17317708333331439,"midi":67,"time":277.47265625,"velocity":0.3937007874015748},{"duration":0.05859375,"midi":52,"time":277.49609375,"velocity":0.3937007874015748},{"duration":0.05859375,"midi":45,"time":277.49609375,"velocity":0.3937007874015748},{"duration":0.17317708333331439,"midi":63,"time":277.5182291666667,"velocity":0.3937007874015748},{"duration":0.05859375,"midi":70,"time":277.5416666666667,"velocity":0.3937007874015748},{"duration":0.05859375,"midi":35,"time":277.5651041666667,"velocity":0.3937007874015748},{"duration":0.05859375,"midi":64,"time":277.5872395833333,"velocity":0.3937007874015748},{"duration":0.05859375,"midi":50,"time":277.6106770833333,"velocity":0.3937007874015748},{"duration":0.05859375,"midi":60,"time":277.6106770833333,"velocity":0.3937007874015748},{"duration":0.42578125,"midi":81,"time":277.6223958333333,"velocity":0.3937007874015748},{"duration":0.05859375,"midi":84,"time":277.6223958333333,"velocity":0.3937007874015748},{"duration":0.17578125,"midi":76,"time":277.6328125,"velocity":0.3937007874015748},{"duration":0.05859375,"midi":56,"time":277.6328125,"velocity":0.3937007874015748},{"duration":0.17578125,"midi":69,"time":277.6328125,"velocity":0.3937007874015748},{"duration":0.17578125,"midi":66,"time":277.6458333333333,"velocity":0.3937007874015748},{"duration":0.05859375,"midi":41,"time":277.6458333333333,"velocity":0.3937007874015748},{"duration":0.17578125,"midi":50,"time":277.65625,"velocity":0.3937007874015748},{"duration":0.059895833333314386,"midi":77,"time":277.65625,"velocity":0.3937007874015748},{"duration":0.6783854166666856,"midi":57,"time":277.65625,"velocity":0.3937007874015748},{"duration":0.17578125,"midi":84,"time":277.69140625,"velocity":0.3937007874015748},{"duration":0.30078125,"midi":65,"time":277.75,"velocity":0.3937007874015748},{"duration":0.05859375,"midi":89,"time":277.7630208333333,"velocity":0.3937007874015748},{"duration":0.05859375,"midi":76,"time":277.78515625,"velocity":0.3937007874015748},{"duration":0.05859375,"midi":41,"time":277.80859375,"velocity":0.3937007874015748},{"duration":0.5520833333333144,"midi":69,"time":277.84375,"velocity":0.3937007874015748},{"duration":0.17578125,"midi":76,"time":277.8541666666667,"velocity":0.3937007874015748},{"duration":0.17578125,"midi":50,"time":277.9010416666667,"velocity":0.3937007874015748},{"duration":0.17578125,"midi":50,"time":278.0299479166667,"velocity":0.3937007874015748},{"duration":0.17578125,"midi":84,"time":278.0416666666667,"velocity":0.3937007874015748},{"duration":0.3020833333333144,"midi":65,"time":278.0416666666667,"velocity":0.3937007874015748},{"duration":0.17578125,"midi":76,"time":278.0533854166667,"velocity":0.3937007874015748},{"duration":0.17578125,"midi":74,"time":278.1119791666667,"velocity":0.3937007874015748},{"duration":0.05989583333337123,"midi":62,"time":278.1692708333333,"velocity":0.3937007874015748},{"duration":0.059895833333314386,"midi":76,"time":278.2174479166667,"velocity":0.3937007874015748},{"duration":0.17578125,"midi":62,"time":278.2643229166667,"velocity":0.3937007874015748},{"duration":0.17578125,"midi":50,"time":278.3346354166667,"velocity":0.3937007874015748},{"duration":0.061197916666685614,"midi":51,"time":278.4153645833333,"velocity":0.3937007874015748},{"duration":0.17578125,"midi":77,"time":278.4153645833333,"velocity":0.3937007874015748},{"duration":0.05989583333337123,"midi":83,"time":278.4270833333333,"velocity":0.3937007874015748},{"duration":0.05989583333337123,"midi":82,"time":278.4388020833333,"velocity":0.3937007874015748},{"duration":0.2994791666666856,"midi":69,"time":278.4388020833333,"velocity":0.3937007874015748},{"duration":0.05859375,"midi":60,"time":278.4518229166667,"velocity":0.3937007874015748},{"duration":0.5494791666666288,"midi":65,"time":278.4518229166667,"velocity":0.3937007874015748},{"duration":0.05859375,"midi":51,"time":278.4856770833333,"velocity":0.3937007874015748},{"duration":0.17447916666668561,"midi":50,"time":278.5091145833333,"velocity":0.3937007874015748},{"duration":0.4244791666666856,"midi":74,"time":278.5091145833333,"velocity":0.3937007874015748},{"duration":0.17447916666668561,"midi":57,"time":278.5325520833333,"velocity":0.3937007874015748},{"duration":0.05859375,"midi":58,"time":278.6028645833333,"velocity":0.3937007874015748},{"duration":0.17447916666668561,"midi":57,"time":278.625,"velocity":0.3937007874015748},{"duration":0.42578125,"midi":50,"time":278.625,"velocity":0.3937007874015748},{"duration":0.30078125,"midi":57,"time":278.7291666666667,"velocity":0.3937007874015748},{"duration":0.42578125,"midi":69,"time":278.8111979166667,"velocity":0.3937007874015748},{"duration":0.05859375,"midi":74,"time":278.9388020833333,"velocity":0.3937007874015748},{"duration":0.17578125,"midi":77,"time":278.9739583333333,"velocity":0.3937007874015748},{"duration":0.05989583333337123,"midi":72,"time":278.9973958333333,"velocity":0.3937007874015748},{"duration":0.17578125,"midi":74,"time":278.9973958333333,"velocity":0.3937007874015748},{"duration":0.05989583333337123,"midi":37,"time":279.0325520833333,"velocity":0.3937007874015748},{"duration":0.05989583333337123,"midi":47,"time":279.0442708333333,"velocity":0.3937007874015748},{"duration":0.05859375,"midi":47,"time":279.0911458333333,"velocity":0.3937007874015748},{"duration":0.17447916666668561,"midi":42,"time":279.1145833333333,"velocity":0.3937007874015748},{"duration":0.05859375,"midi":62,"time":279.1145833333333,"velocity":0.3937007874015748},{"duration":0.05859375,"midi":77,"time":279.1497395833333,"velocity":0.3937007874015748},{"duration":0.059895833333314386,"midi":50,"time":279.16015625,"velocity":0.3937007874015748},{"duration":0.17447916666668561,"midi":74,"time":279.20703125,"velocity":0.3937007874015748},{"duration":0.17447916666668561,"midi":65,"time":279.265625,"velocity":0.3937007874015748},{"duration":0.17578125,"midi":62,"time":279.5794270833333,"velocity":0.3937007874015748},{"duration":0.30208333333337123,"midi":65,"time":279.5794270833333,"velocity":0.3937007874015748},{"duration":0.061197916666685614,"midi":95,"time":279.5911458333333,"velocity":0.3937007874015748},{"duration":0.061197916666685614,"midi":69,"time":279.5911458333333,"velocity":0.3937007874015748},{"duration":0.059895833333314386,"midi":81,"time":279.6041666666667,"velocity":0.3937007874015748},{"duration":0.1640625,"midi":48,"time":279.6158854166667,"velocity":0.3937007874015748},{"duration":0.42447916666662877,"midi":41,"time":279.6276041666667,"velocity":0.3937007874015748},{"duration":0.17447916666662877,"midi":76,"time":279.6627604166667,"velocity":0.3937007874015748},{"duration":0.05859375,"midi":95,"time":279.6731770833333,"velocity":0.3937007874015748},{"duration":0.17578125,"midi":81,"time":279.6731770833333,"velocity":0.3937007874015748},{"duration":0.0703125,"midi":48,"time":279.7200520833333,"velocity":0.3937007874015748},{"duration":0.15494791666668561,"midi":48,"time":279.75390625,"velocity":0.3937007874015748},{"duration":0.17708333333331439,"midi":74,"time":279.75390625,"velocity":0.3937007874015748},{"duration":0.17708333333331439,"midi":69,"time":279.7890625,"velocity":0.3937007874015748},{"duration":0.059895833333314386,"midi":83,"time":279.7890625,"velocity":0.3937007874015748},{"duration":0.05989583333337123,"midi":64,"time":279.8372395833333,"velocity":0.3937007874015748},{"duration":0.08203125,"midi":48,"time":279.8489583333333,"velocity":0.3937007874015748},{"duration":0.05989583333337123,"midi":64,"time":279.9309895833333,"velocity":0.3937007874015748},{"duration":0.17317708333337123,"midi":83,"time":279.9544270833333,"velocity":0.3937007874015748},{"duration":0.05859375,"midi":60,"time":279.9778645833333,"velocity":0.3937007874015748},{"duration":0.05859375,"midi":68,"time":279.9778645833333,"velocity":0.3937007874015748},{"duration":0.05859375,"midi":51,"time":279.9778645833333,"velocity":0.3937007874015748},{"duration":0.057291666666685614,"midi":64,"time":279.9895833333333,"velocity":0.3937007874015748},{"duration":0.057291666666685614,"midi":84,"time":279.9895833333333,"velocity":0.3937007874015748},{"duration":0.057291666666685614,"midi":50,"time":280.0013020833333,"velocity":0.3937007874015748},{"duration":0.17447916666668561,"midi":60,"time":280.0130208333333,"velocity":0.3937007874015748},{"duration":0.05598958333337123,"midi":67,"time":280.0130208333333,"velocity":0.3937007874015748},{"duration":0.17447916666668561,"midi":41,"time":280.0364583333333,"velocity":0.3937007874015748},{"duration":0.057291666666685614,"midi":76,"time":280.046875,"velocity":0.3937007874015748},{"duration":0.17578125,"midi":65,"time":280.0690104166667,"velocity":0.3937007874015748},{"duration":0.061197916666685614,"midi":42,"time":280.1263020833333,"velocity":0.3937007874015748},{"duration":0.061197916666685614,"midi":76,"time":280.1263020833333,"velocity":0.3937007874015748},{"duration":0.17447916666668561,"midi":84,"time":280.1380208333333,"velocity":0.3937007874015748},{"duration":0.059895833333314386,"midi":60,"time":280.1510416666667,"velocity":0.3937007874015748},{"duration":0.059895833333314386,"midi":50,"time":280.1627604166667,"velocity":0.3937007874015748},{"duration":0.05859375,"midi":64,"time":280.1744791666667,"velocity":0.3937007874015748},{"duration":0.057291666666685614,"midi":49,"time":280.1875,"velocity":0.3937007874015748},{"duration":0.05729166666662877,"midi":70,"time":280.2096354166667,"velocity":0.3937007874015748},{"duration":0.421875,"midi":42,"time":280.2096354166667,"velocity":0.3937007874015748},{"duration":0.17317708333331439,"midi":65,"time":280.2330729166667,"velocity":0.3937007874015748},{"duration":0.05859375,"midi":49,"time":280.27734375,"velocity":0.3937007874015748},{"duration":0.17578125,"midi":84,"time":280.30078125,"velocity":0.3937007874015748},{"duration":0.17578125,"midi":65,"time":280.3359375,"velocity":0.3937007874015748},{"duration":0.059895833333314386,"midi":57,"time":280.3697916666667,"velocity":0.3937007874015748},{"duration":0.059895833333314386,"midi":93,"time":280.3932291666667,"velocity":0.3937007874015748},{"duration":0.059895833333314386,"midi":91,"time":280.3932291666667,"velocity":0.3937007874015748},{"duration":0.17578125,"midi":74,"time":280.3932291666667,"velocity":0.3937007874015748},{"duration":0.059895833333314386,"midi":49,"time":280.4049479166667,"velocity":0.3937007874015748},{"duration":0.05859375,"midi":57,"time":280.41796875,"velocity":0.3937007874015748},{"duration":0.17447916666668561,"midi":79,"time":280.41796875,"velocity":0.3937007874015748},{"duration":0.05989583333337123,"midi":67,"time":280.4856770833333,"velocity":0.3937007874015748},{"duration":0.17317708333331439,"midi":57,"time":280.4986979166667,"velocity":0.3937007874015748},{"duration":0.17317708333331439,"midi":86,"time":280.5338541666667,"velocity":0.3937007874015748},{"duration":0.05859375,"midi":50,"time":280.5455729166667,"velocity":0.3937007874015748},{"duration":0.17317708333331439,"midi":65,"time":280.5690104166667,"velocity":0.3937007874015748},{"duration":0.057291666666685614,"midi":30,"time":280.5911458333333,"velocity":0.3937007874015748},{"duration":0.17447916666662877,"midi":88,"time":280.6041666666667,"velocity":0.3937007874015748},{"duration":0.17578125,"midi":60,"time":280.6145833333333,"velocity":0.3937007874015748},{"duration":0.17578125,"midi":69,"time":280.6484375,"velocity":0.3937007874015748},{"duration":0.78515625,"midi":81,"time":280.6588541666667,"velocity":0.3937007874015748},{"duration":0.16276041666662877,"midi":65,"time":280.7291666666667,"velocity":0.3937007874015748},{"duration":0.06119791666662877,"midi":88,"time":280.7408854166667,"velocity":0.3937007874015748},{"duration":0.171875,"midi":84,"time":280.7408854166667,"velocity":0.3937007874015748},{"duration":0.06119791666662877,"midi":62,"time":280.7408854166667,"velocity":0.3937007874015748},{"duration":0.059895833333314386,"midi":89,"time":280.7526041666667,"velocity":0.3937007874015748},{"duration":0.05859375,"midi":55,"time":280.765625,"velocity":0.3937007874015748},{"duration":0.05859375,"midi":70,"time":280.765625,"velocity":0.3937007874015748},{"duration":0.05859375,"midi":40,"time":280.765625,"velocity":0.3937007874015748},{"duration":0.7890625,"midi":70,"time":280.8020833333333,"velocity":0.3937007874015748},{"duration":0.057291666666685614,"midi":63,"time":280.8125,"velocity":0.3937007874015748},{"duration":0.057291666666685614,"midi":44,"time":280.8125,"velocity":0.3937007874015748},{"duration":0.057291666666685614,"midi":50,"time":280.8125,"velocity":0.3937007874015748},{"duration":0.05729166666662877,"midi":88,"time":280.8229166666667,"velocity":0.3937007874015748},{"duration":0.17057291666662877,"midi":62,"time":280.8346354166667,"velocity":0.3937007874015748},{"duration":0.06770833333331439,"midi":65,"time":280.8346354166667,"velocity":0.3937007874015748},{"duration":0.055989583333314386,"midi":43,"time":280.8463541666667,"velocity":0.3937007874015748},{"duration":0.055989583333314386,"midi":31,"time":280.8463541666667,"velocity":0.3937007874015748},{"duration":0.05598958333337123,"midi":65,"time":280.8684895833333,"velocity":0.3937007874015748},{"duration":0.05598958333337123,"midi":44,"time":280.8802083333333,"velocity":0.3937007874015748},{"duration":0.171875,"midi":84,"time":280.890625,"velocity":0.3937007874015748},{"duration":0.29557291666662877,"midi":65,"time":280.9010416666667,"velocity":0.3937007874015748},{"duration":0.05729166666662877,"midi":43,"time":280.9010416666667,"velocity":0.3937007874015748},{"duration":0.29557291666662877,"midi":88,"time":280.9244791666667,"velocity":0.3937007874015748},{"duration":0.17317708333337123,"midi":31,"time":280.9348958333333,"velocity":0.3937007874015748},{"duration":0.05859375,"midi":44,"time":280.9348958333333,"velocity":0.3937007874015748},{"duration":0.05859375,"midi":43,"time":280.9583333333333,"velocity":0.3937007874015748},{"duration":0.05859375,"midi":30,"time":281.00390625,"velocity":0.3937007874015748},{"duration":0.17317708333331439,"midi":46,"time":281.015625,"velocity":0.3937007874015748},{"duration":0.05859375,"midi":86,"time":281.0625,"velocity":0.3937007874015748},{"duration":0.2981770833333144,"midi":74,"time":281.0729166666667,"velocity":0.3937007874015748},{"duration":0.421875,"midi":84,"time":281.0846354166667,"velocity":0.3937007874015748},{"duration":0.05859375,"midi":58,"time":281.1302083333333,"velocity":0.3937007874015748},{"duration":0.05859375,"midi":62,"time":281.1302083333333,"velocity":0.3937007874015748},{"duration":0.29817708333337123,"midi":46,"time":281.1536458333333,"velocity":0.3937007874015748},{"duration":0.05859375,"midi":65,"time":281.1770833333333,"velocity":0.3937007874015748},{"duration":0.05859375,"midi":63,"time":281.19921875,"velocity":0.3937007874015748},{"duration":0.05859375,"midi":88,"time":281.22265625,"velocity":0.3937007874015748},{"duration":0.17447916666668561,"midi":65,"time":281.2578125,"velocity":0.3937007874015748},{"duration":0.05989583333337123,"midi":77,"time":281.3489583333333,"velocity":0.3937007874015748},{"duration":0.17447916666668561,"midi":55,"time":281.3606770833333,"velocity":0.3937007874015748},{"duration":0.17317708333331439,"midi":62,"time":281.3736979166667,"velocity":0.3937007874015748},{"duration":0.06640625,"midi":81,"time":281.3854166666667,"velocity":0.3937007874015748},{"duration":0.05859375,"midi":42,"time":281.3854166666667,"velocity":0.3937007874015748},{"duration":0.05859375,"midi":44,"time":281.4088541666667,"velocity":0.3937007874015748},{"duration":0.6744791666666856,"midi":65,"time":281.4544270833333,"velocity":0.3937007874015748},{"duration":0.42578125,"midi":81,"time":281.4765625,"velocity":0.3937007874015748},{"duration":0.05859375,"midi":46,"time":281.4765625,"velocity":0.3937007874015748},{"duration":0.3020833333333144,"midi":74,"time":281.5234375,"velocity":0.3937007874015748},{"duration":0.05859375,"midi":68,"time":281.53515625,"velocity":0.3937007874015748},{"duration":0.17578125,"midi":62,"time":281.6158854166667,"velocity":0.3937007874015748},{"duration":0.42447916666662877,"midi":70,"time":281.6510416666667,"velocity":0.3937007874015748},{"duration":0.17578125,"midi":84,"time":281.7213541666667,"velocity":0.3937007874015748},{"duration":0.41015625,"midi":52,"time":281.7434895833333,"velocity":0.3937007874015748},{"duration":0.17578125,"midi":90,"time":281.7434895833333,"velocity":0.3937007874015748},{"duration":0.42447916666662877,"midi":45,"time":281.7565104166667,"velocity":0.3937007874015748},{"duration":0.059895833333314386,"midi":32,"time":281.7916666666667,"velocity":0.3937007874015748},{"duration":0.17447916666662877,"midi":74,"time":281.8033854166667,"velocity":0.3937007874015748},{"duration":0.05859375,"midi":33,"time":281.8151041666667,"velocity":0.3937007874015748},{"duration":0.17317708333331439,"midi":62,"time":281.8151041666667,"velocity":0.3937007874015748},{"duration":0.05859375,"midi":33,"time":281.8606770833333,"velocity":0.3937007874015748},{"duration":0.05859375,"midi":33,"time":281.8958333333333,"velocity":0.3937007874015748},{"duration":0.17317708333337123,"midi":93,"time":281.9192708333333,"velocity":0.3937007874015748},{"duration":0.05859375,"midi":89,"time":281.9192708333333,"velocity":0.3937007874015748},{"duration":0.17317708333337123,"midi":89,"time":281.9192708333333,"velocity":0.3937007874015748},{"duration":0.05859375,"midi":84,"time":281.9296875,"velocity":0.3937007874015748},{"duration":0.17447916666668561,"midi":84,"time":281.9296875,"velocity":0.3937007874015748},{"duration":0.05859375,"midi":33,"time":281.9296875,"velocity":0.3937007874015748},{"duration":0.17447916666668561,"midi":81,"time":281.9427083333333,"velocity":0.3937007874015748},{"duration":0.057291666666685614,"midi":74,"time":281.9427083333333,"velocity":0.3937007874015748},{"duration":0.05859375,"midi":33,"time":281.98828125,"velocity":0.3937007874015748},{"duration":0.059895833333314386,"midi":74,"time":281.9986979166667,"velocity":0.3937007874015748},{"duration":0.17578125,"midi":62,"time":282.0221354166667,"velocity":0.3937007874015748},{"duration":0.17578125,"midi":33,"time":282.0221354166667,"velocity":0.3937007874015748},{"duration":0.07682291666662877,"midi":52,"time":282.0924479166667,"velocity":0.3937007874015748},{"duration":0.059895833333314386,"midi":64,"time":282.1158854166667,"velocity":0.3937007874015748},{"duration":0.05859375,"midi":60,"time":282.1276041666667,"velocity":0.3937007874015748},{"duration":0.057291666666685614,"midi":35,"time":282.140625,"velocity":0.3937007874015748},{"duration":0.17317708333331439,"midi":45,"time":282.15234375,"velocity":0.3937007874015748},{"duration":0.055989583333314386,"midi":63,"time":282.15234375,"velocity":0.3937007874015748},{"duration":0.05729166666662877,"midi":33,"time":282.1627604166667,"velocity":0.3937007874015748},{"duration":0.17447916666662877,"midi":52,"time":282.1627604166667,"velocity":0.3937007874015748},{"duration":0.05729166666662877,"midi":60,"time":282.1627604166667,"velocity":0.3937007874015748},{"duration":0.17578125,"midi":33,"time":282.2083333333333,"velocity":0.3937007874015748},{"duration":0.059895833333314386,"midi":65,"time":282.2421875,"velocity":0.3937007874015748},{"duration":0.059895833333314386,"midi":64,"time":282.27734375,"velocity":0.3937007874015748},{"duration":0.05859375,"midi":45,"time":282.3255208333333,"velocity":0.3937007874015748},{"duration":0.17447916666668561,"midi":58,"time":282.3255208333333,"velocity":0.3937007874015748},{"duration":0.17317708333337123,"midi":53,"time":282.3372395833333,"velocity":0.3937007874015748},{"duration":0.17317708333331439,"midi":68,"time":282.34765625,"velocity":0.3937007874015748},{"duration":0.421875,"midi":46,"time":282.34765625,"velocity":0.3937007874015748},{"duration":0.05859375,"midi":62,"time":282.44140625,"velocity":0.3937007874015748},{"duration":0.057291666666685614,"midi":34,"time":282.453125,"velocity":0.3937007874015748},{"duration":0.05859375,"midi":62,"time":282.5208333333333,"velocity":0.3937007874015748},{"duration":0.17447916666662877,"midi":62,"time":282.6471354166667,"velocity":0.3937007874015748},{"duration":0.29947916666662877,"midi":65,"time":282.6588541666667,"velocity":0.3937007874015748},{"duration":0.17447916666662877,"midi":46,"time":282.7057291666667,"velocity":0.3937007874015748},{"duration":0.30078125,"midi":62,"time":282.7395833333333,"velocity":0.3937007874015748},{"duration":0.059895833333314386,"midi":55,"time":282.90234375,"velocity":0.3937007874015748},{"duration":0.059895833333314386,"midi":86,"time":282.9140625,"velocity":0.3937007874015748},{"duration":0.059895833333314386,"midi":67,"time":282.92578125,"velocity":0.3937007874015748},{"duration":0.059895833333314386,"midi":55,"time":282.94921875,"velocity":0.3937007874015748},{"duration":0.17708333333331439,"midi":65,"time":282.9609375,"velocity":0.3937007874015748},{"duration":0.059895833333314386,"midi":62,"time":283.078125,"velocity":0.3937007874015748},{"duration":0.05859375,"midi":76,"time":283.0911458333333,"velocity":0.3937007874015748},{"duration":0.05859375,"midi":50,"time":283.1028645833333,"velocity":0.3937007874015748},{"duration":0.17317708333337123,"midi":70,"time":283.1145833333333,"velocity":0.3937007874015748},{"duration":0.05859375,"midi":67,"time":283.1380208333333,"velocity":0.3937007874015748},{"duration":0.6770833333333144,"midi":48,"time":283.1484375,"velocity":0.3937007874015748},{"duration":0.17317708333331439,"midi":36,"time":283.1953125,"velocity":0.3937007874015748},{"duration":0.17447916666662877,"midi":55,"time":283.2408854166667,"velocity":0.3937007874015748},{"duration":0.3020833333333144,"midi":36,"time":283.2877604166667,"velocity":0.3937007874015748},{"duration":0.05859375,"midi":63,"time":283.2994791666667,"velocity":0.3937007874015748},{"duration":0.05859375,"midi":70,"time":283.2994791666667,"velocity":0.3937007874015748},{"duration":0.17578125,"midi":55,"time":283.3229166666667,"velocity":0.3937007874015748},{"duration":0.05859375,"midi":89,"time":283.3229166666667,"velocity":0.3937007874015748},{"duration":0.30208333333337123,"midi":76,"time":283.3450520833333,"velocity":0.3937007874015748},{"duration":0.05989583333337123,"midi":65,"time":283.3684895833333,"velocity":0.3937007874015748},{"duration":0.05989583333337123,"midi":64,"time":283.4036458333333,"velocity":0.3937007874015748},{"duration":0.30208333333337123,"midi":70,"time":283.4153645833333,"velocity":0.3937007874015748},{"duration":0.05989583333337123,"midi":56,"time":283.4973958333333,"velocity":0.3937007874015748},{"duration":0.05989583333337123,"midi":64,"time":283.5091145833333,"velocity":0.3937007874015748},{"duration":0.17578125,"midi":67,"time":283.5091145833333,"velocity":0.3937007874015748},{"duration":0.17578125,"midi":57,"time":283.5325520833333,"velocity":0.3937007874015748},{"duration":0.17578125,"midi":36,"time":283.5442708333333,"velocity":0.3937007874015748},{"duration":0.05989583333337123,"midi":65,"time":283.5794270833333,"velocity":0.3937007874015748},{"duration":0.17447916666668561,"midi":67,"time":283.6263020833333,"velocity":0.3937007874015748},{"duration":0.05859375,"midi":65,"time":283.6393229166667,"velocity":0.3937007874015748},{"duration":0.17447916666668561,"midi":36,"time":283.6966145833333,"velocity":0.3937007874015748},{"duration":0.17447916666668561,"midi":65,"time":283.6966145833333,"velocity":0.3937007874015748},{"duration":0.05989583333337123,"midi":87,"time":283.7083333333333,"velocity":0.3937007874015748},{"duration":0.05859375,"midi":68,"time":283.7317708333333,"velocity":0.3937007874015748},{"duration":0.059895833333314386,"midi":47,"time":283.77734375,"velocity":0.3937007874015748},{"duration":0.059895833333314386,"midi":88,"time":283.80078125,"velocity":0.3937007874015748},{"duration":0.05859375,"midi":35,"time":283.8125,"velocity":0.3937007874015748},{"duration":0.17317708333337123,"midi":81,"time":283.8255208333333,"velocity":0.3937007874015748},{"duration":0.05859375,"midi":67,"time":283.87109375,"velocity":0.3937007874015748},{"duration":0.42447916666662877,"midi":77,"time":283.8815104166667,"velocity":0.3937007874015748},{"duration":0.059895833333314386,"midi":60,"time":283.8815104166667,"velocity":0.3937007874015748},{"duration":0.059895833333314386,"midi":70,"time":283.8815104166667,"velocity":0.3937007874015748},{"duration":0.17447916666662877,"midi":84,"time":283.8932291666667,"velocity":0.3937007874015748},{"duration":0.05859375,"midi":89,"time":283.8932291666667,"velocity":0.3937007874015748},{"duration":0.05859375,"midi":86,"time":283.8932291666667,"velocity":0.3937007874015748},{"duration":0.05859375,"midi":95,"time":283.8932291666667,"velocity":0.3937007874015748},{"duration":0.17317708333331439,"midi":74,"time":283.90625,"velocity":0.3937007874015748},{"duration":0.17317708333331439,"midi":65,"time":283.90625,"velocity":0.3937007874015748},{"duration":0.17317708333331439,"midi":69,"time":283.9283854166667,"velocity":0.3937007874015748},{"duration":0.17317708333331439,"midi":46,"time":283.9283854166667,"velocity":0.3937007874015748},{"duration":0.05859375,"midi":53,"time":283.9283854166667,"velocity":0.3937007874015748},{"duration":0.2981770833333144,"midi":62,"time":283.9518229166667,"velocity":0.3937007874015748},{"duration":0.17317708333331439,"midi":88,"time":283.9518229166667,"velocity":0.3937007874015748},{"duration":0.05859375,"midi":53,"time":283.9869791666667,"velocity":0.3937007874015748},{"duration":0.05859375,"midi":85,"time":284.0091145833333,"velocity":0.3937007874015748},{"duration":0.05729166666662877,"midi":34,"time":284.0221354166667,"velocity":0.3937007874015748},{"duration":0.05729166666662877,"midi":53,"time":284.0221354166667,"velocity":0.3937007874015748},{"duration":0.057291666666685614,"midi":69,"time":284.0442708333333,"velocity":0.3937007874015748},{"duration":0.05859375,"midi":46,"time":284.0559895833333,"velocity":0.3937007874015748},{"duration":0.17317708333337123,"midi":34,"time":284.0677083333333,"velocity":0.3937007874015748},{"duration":0.17447916666668561,"midi":67,"time":284.078125,"velocity":0.3937007874015748},{"duration":0.05859375,"midi":53,"time":284.078125,"velocity":0.3937007874015748},{"duration":0.05859375,"midi":46,"time":284.08984375,"velocity":0.3937007874015748},{"duration":0.17447916666668561,"midi":84,"time":284.08984375,"velocity":0.3937007874015748},{"duration":0.05859375,"midi":80,"time":284.1015625,"velocity":0.3937007874015748},{"duration":0.2981770833333144,"midi":70,"time":284.1236979166667,"velocity":0.3937007874015748},{"duration":0.17578125,"midi":65,"time":284.1471354166667,"velocity":0.3937007874015748},{"duration":0.059895833333314386,"midi":87,"time":284.1471354166667,"velocity":0.3937007874015748},{"duration":0.059895833333314386,"midi":32,"time":284.1705729166667,"velocity":0.3937007874015748},{"duration":0.29947916666662877,"midi":81,"time":284.1705729166667,"velocity":0.3937007874015748},{"duration":0.55078125,"midi":50,"time":284.1822916666667,"velocity":0.3937007874015748},{"duration":0.05859375,"midi":58,"time":284.1940104166667,"velocity":0.3937007874015748},{"duration":0.05859375,"midi":80,"time":284.1940104166667,"velocity":0.3937007874015748},{"duration":0.059895833333314386,"midi":58,"time":284.2526041666667,"velocity":0.3937007874015748},{"duration":0.05989583333337123,"midi":64,"time":284.2630208333333,"velocity":0.3937007874015748},{"duration":0.05989583333337123,"midi":60,"time":284.2747395833333,"velocity":0.3937007874015748},{"duration":0.05859375,"midi":63,"time":284.2877604166667,"velocity":0.3937007874015748},{"duration":0.05729166666662877,"midi":79,"time":284.2994791666667,"velocity":0.3937007874015748},{"duration":0.05729166666662877,"midi":65,"time":284.3229166666667,"velocity":0.3937007874015748},{"duration":0.057291666666685614,"midi":84,"time":284.3450520833333,"velocity":0.3937007874015748},{"duration":0.30078125,"midi":62,"time":284.35546875,"velocity":0.3937007874015748},{"duration":0.059895833333314386,"midi":58,"time":284.3893229166667,"velocity":0.3937007874015748},{"duration":0.059895833333314386,"midi":86,"time":284.4244791666667,"velocity":0.3937007874015748},{"duration":0.17578125,"midi":69,"time":284.4375,"velocity":0.3937007874015748},{"duration":0.17578125,"midi":58,"time":284.4713541666667,"velocity":0.3937007874015748},{"duration":0.17578125,"midi":65,"time":284.484375,"velocity":0.3937007874015748},{"duration":0.059895833333314386,"midi":77,"time":284.6354166666667,"velocity":0.3937007874015748},{"duration":0.059895833333314386,"midi":81,"time":284.6354166666667,"velocity":0.3937007874015748},{"duration":0.059895833333314386,"midi":76,"time":284.6471354166667,"velocity":0.3937007874015748},{"duration":0.059895833333314386,"midi":59,"time":284.6471354166667,"velocity":0.3937007874015748},{"duration":0.059895833333314386,"midi":72,"time":284.6588541666667,"velocity":0.3937007874015748},{"duration":0.059895833333314386,"midi":66,"time":284.6588541666667,"velocity":0.3937007874015748},{"duration":0.059895833333314386,"midi":68,"time":284.6588541666667,"velocity":0.3937007874015748},{"duration":0.5533854166666288,"midi":65,"time":284.6822916666667,"velocity":0.3937007874015748},{"duration":0.059895833333314386,"midi":76,"time":284.6822916666667,"velocity":0.3937007874015748},{"duration":0.059895833333314386,"midi":49,"time":284.6940104166667,"velocity":0.3937007874015748},{"duration":0.17578125,"midi":62,"time":284.7643229166667,"velocity":0.3937007874015748},{"duration":0.05859375,"midi":50,"time":284.8346354166667,"velocity":0.3937007874015748},{"duration":0.4270833333333144,"midi":58,"time":284.8697916666667,"velocity":0.3937007874015748},{"duration":0.17578125,"midi":69,"time":284.8697916666667,"velocity":0.3937007874015748},{"duration":0.05989583333337123,"midi":46,"time":284.8919270833333,"velocity":0.3937007874015748},{"duration":0.05989583333337123,"midi":46,"time":284.9270833333333,"velocity":0.3937007874015748},{"duration":0.05989583333337123,"midi":62,"time":284.9270833333333,"velocity":0.3937007874015748},{"duration":0.30208333333337123,"midi":46,"time":284.9622395833333,"velocity":0.3937007874015748},{"duration":0.17578125,"midi":62,"time":285.0572916666667,"velocity":0.3937007874015748},{"duration":0.17578125,"midi":46,"time":285.1966145833333,"velocity":0.3937007874015748},{"duration":0.05989583333337123,"midi":85,"time":285.2200520833333,"velocity":0.3937007874015748},{"duration":0.05989583333337123,"midi":63,"time":285.2669270833333,"velocity":0.3937007874015748},{"duration":0.17447916666668561,"midi":53,"time":285.2786458333333,"velocity":0.3937007874015748},{"duration":0.17578125,"midi":46,"time":285.2903645833333,"velocity":0.3937007874015748},{"duration":0.17578125,"midi":79,"time":285.2903645833333,"velocity":0.3937007874015748},{"duration":0.05989583333337123,"midi":63,"time":285.3020833333333,"velocity":0.3937007874015748},{"duration":0.17447916666668561,"midi":34,"time":285.3138020833333,"velocity":0.3937007874015748},{"duration":0.05859375,"midi":86,"time":285.3489583333333,"velocity":0.3937007874015748},{"duration":0.059895833333314386,"midi":60,"time":285.41796875,"velocity":0.3937007874015748},{"duration":0.05859375,"midi":36,"time":285.4765625,"velocity":0.3937007874015748},{"duration":0.17317708333331439,"midi":58,"time":285.4765625,"velocity":0.3937007874015748},{"duration":0.5481770833333144,"midi":65,"time":285.4765625,"velocity":0.3937007874015748},{"duration":0.17447916666668561,"midi":53,"time":285.48828125,"velocity":0.3937007874015748},{"duration":0.4244791666666856,"midi":46,"time":285.5,"velocity":0.3937007874015748},{"duration":0.05859375,"midi":84,"time":285.5234375,"velocity":0.3937007874015748},{"duration":0.17447916666662877,"midi":34,"time":285.5455729166667,"velocity":0.3937007874015748},{"duration":0.17578125,"midi":53,"time":285.5924479166667,"velocity":0.3937007874015748},{"duration":0.17578125,"midi":34,"time":285.7200520833333,"velocity":0.3937007874015748},{"duration":0.2994791666666856,"midi":53,"time":285.7317708333333,"velocity":0.3937007874015748},{"duration":0.30078125,"midi":34,"time":285.8255208333333,"velocity":0.3937007874015748},{"duration":0.17447916666668561,"midi":88,"time":285.859375,"velocity":0.3937007874015748},{"duration":0.17447916666668561,"midi":91,"time":285.859375,"velocity":0.3937007874015748},{"duration":0.05859375,"midi":62,"time":285.9752604166667,"velocity":0.3937007874015748},{"duration":0.059895833333314386,"midi":53,"time":286.0690104166667,"velocity":0.3937007874015748},{"duration":0.17447916666662877,"midi":34,"time":286.0807291666667,"velocity":0.3937007874015748},{"duration":0.05859375,"midi":46,"time":286.1744791666667,"velocity":0.3937007874015748},{"duration":0.05859375,"midi":50,"time":286.2317708333333,"velocity":0.3937007874015748},{"duration":0.05859375,"midi":68,"time":286.2317708333333,"velocity":0.3937007874015748},{"duration":0.059895833333314386,"midi":63,"time":286.2421875,"velocity":0.3937007874015748},{"duration":0.05989583333337123,"midi":60,"time":286.2552083333333,"velocity":0.3937007874015748},{"duration":0.17708333333331439,"midi":34,"time":286.27734375,"velocity":0.3937007874015748},{"duration":0.059895833333314386,"midi":52,"time":286.27734375,"velocity":0.3937007874015748},{"duration":0.05989583333337123,"midi":46,"time":286.2903645833333,"velocity":0.3937007874015748},{"duration":0.05989583333337123,"midi":64,"time":286.4075520833333,"velocity":0.3937007874015748},{"duration":0.30078125,"midi":60,"time":286.4296875,"velocity":0.3937007874015748},{"duration":0.05989583333337123,"midi":63,"time":286.4427083333333,"velocity":0.3937007874015748},{"duration":0.05859375,"midi":86,"time":286.4544270833333,"velocity":0.3937007874015748},{"duration":0.17317708333337123,"midi":53,"time":286.4544270833333,"velocity":0.3937007874015748},{"duration":0.05859375,"midi":89,"time":286.4544270833333,"velocity":0.3937007874015748},{"duration":0.05859375,"midi":95,"time":286.4544270833333,"velocity":0.3937007874015748},{"duration":0.05859375,"midi":67,"time":286.4544270833333,"velocity":0.3937007874015748},{"duration":0.42578125,"midi":41,"time":286.51171875,"velocity":0.3937007874015748},{"duration":0.17578125,"midi":88,"time":286.5234375,"velocity":0.3937007874015748},{"duration":0.52734375,"midi":65,"time":286.5807291666667,"velocity":0.3937007874015748},{"duration":0.059895833333314386,"midi":86,"time":286.6393229166667,"velocity":0.3937007874015748},{"duration":0.17578125,"midi":57,"time":286.6510416666667,"velocity":0.3937007874015748},{"duration":0.17578125,"midi":53,"time":286.6627604166667,"velocity":0.3937007874015748},{"duration":0.17578125,"midi":62,"time":286.67578125,"velocity":0.3937007874015748},{"duration":0.059895833333314386,"midi":76,"time":286.7916666666667,"velocity":0.3937007874015748},{"duration":0.17578125,"midi":62,"time":286.8033854166667,"velocity":0.3937007874015748},{"duration":0.17578125,"midi":58,"time":286.8385416666667,"velocity":0.3937007874015748},{"duration":0.17708333333331439,"midi":46,"time":286.9088541666667,"velocity":0.3937007874015748},{"duration":0.17708333333337123,"midi":83,"time":287.0130208333333,"velocity":0.3937007874015748},{"duration":0.17708333333337123,"midi":79,"time":287.0130208333333,"velocity":0.3937007874015748},{"duration":0.30208333333337123,"midi":72,"time":287.0130208333333,"velocity":0.3937007874015748},{"duration":0.3020833333333144,"midi":76,"time":287.0260416666667,"velocity":0.3937007874015748},{"duration":0.0859375,"midi":65,"time":287.0481770833333,"velocity":0.3937007874015748},{"duration":0.059895833333314386,"midi":57,"time":287.0611979166667,"velocity":0.3937007874015748},{"duration":0.5520833333333144,"midi":45,"time":287.0729166666667,"velocity":0.3937007874015748},{"duration":0.17578125,"midi":64,"time":287.0846354166667,"velocity":0.3937007874015748},{"duration":0.17578125,"midi":57,"time":287.1080729166667,"velocity":0.3937007874015748},{"duration":0.17578125,"midi":64,"time":287.1783854166667,"velocity":0.3937007874015748},{"duration":0.30078125,"midi":57,"time":287.1901041666667,"velocity":0.3937007874015748},{"duration":0.30078125,"midi":83,"time":287.2252604166667,"velocity":0.3937007874015748},{"duration":0.05859375,"midi":84,"time":287.2369791666667,"velocity":0.3937007874015748},{"duration":0.17578125,"midi":64,"time":287.2955729166667,"velocity":0.3937007874015748},{"duration":0.17578125,"midi":79,"time":287.3177083333333,"velocity":0.3937007874015748},{"duration":0.17578125,"midi":64,"time":287.3997395833333,"velocity":0.3937007874015748},{"duration":0.05859375,"midi":60,"time":287.4127604166667,"velocity":0.3937007874015748},{"duration":0.17447916666668561,"midi":72,"time":287.4700520833333,"velocity":0.3937007874015748},{"duration":0.2994791666666856,"midi":64,"time":287.5286458333333,"velocity":0.3937007874015748},{"duration":0.17447916666668561,"midi":83,"time":287.5403645833333,"velocity":0.3937007874015748},{"duration":0.17447916666668561,"midi":52,"time":287.65625,"velocity":0.3937007874015748},{"duration":0.05859375,"midi":57,"time":287.71484375,"velocity":0.3937007874015748},{"duration":0.05989583333337123,"midi":50,"time":287.8177083333333,"velocity":0.3937007874015748},{"duration":0.17578125,"midi":60,"time":287.8177083333333,"velocity":0.3937007874015748},{"duration":0.05859375,"midi":65,"time":287.8307291666667,"velocity":0.3937007874015748},{"duration":0.17708333333337123,"midi":52,"time":287.8880208333333,"velocity":0.3937007874015748},{"duration":0.05989583333337123,"midi":64,"time":287.9114583333333,"velocity":0.3937007874015748},{"duration":0.05989583333337123,"midi":57,"time":287.9114583333333,"velocity":0.3937007874015748},{"duration":0.17708333333337123,"midi":53,"time":287.9583333333333,"velocity":0.3937007874015748},{"duration":0.30208333333337123,"midi":60,"time":287.9934895833333,"velocity":0.3937007874015748},{"duration":0.05989583333337123,"midi":81,"time":288.0403645833333,"velocity":0.3937007874015748},{"duration":0.05989583333337123,"midi":64,"time":288.0520833333333,"velocity":0.3937007874015748},{"duration":0.05989583333337123,"midi":53,"time":288.0872395833333,"velocity":0.3937007874015748},{"duration":0.05989583333337123,"midi":54,"time":288.1223958333333,"velocity":0.3937007874015748},{"duration":0.2994791666666856,"midi":64,"time":288.1341145833333,"velocity":0.3937007874015748},{"duration":0.05859375,"midi":53,"time":288.1822916666667,"velocity":0.3937007874015748},{"duration":0.05859375,"midi":54,"time":288.3203125,"velocity":0.3937007874015748},{"duration":0.17447916666662877,"midi":55,"time":288.4244791666667,"velocity":0.3937007874015748},{"duration":0.05989583333337123,"midi":93,"time":288.5755208333333,"velocity":0.3937007874015748},{"duration":0.05989583333337123,"midi":85,"time":288.5755208333333,"velocity":0.3937007874015748},{"duration":0.05989583333337123,"midi":91,"time":288.5989583333333,"velocity":0.3937007874015748},{"duration":0.05989583333337123,"midi":51,"time":288.6106770833333,"velocity":0.3937007874015748},{"duration":0.05989583333337123,"midi":60,"time":288.6223958333333,"velocity":0.3937007874015748},{"duration":0.17447916666668561,"midi":72,"time":288.6458333333333,"velocity":0.3937007874015748},{"duration":0.05859375,"midi":55,"time":288.6927083333333,"velocity":0.3937007874015748},{"duration":0.05859375,"midi":57,"time":288.75,"velocity":0.3937007874015748},{"duration":0.17578125,"midi":57,"time":288.8658854166667,"velocity":0.3937007874015748},{"duration":0.059895833333314386,"midi":65,"time":289.0065104166667,"velocity":0.3937007874015748},{"duration":0.17447916666668561,"midi":60,"time":289.35546875,"velocity":0.3937007874015748},{"duration":0.05859375,"midi":51,"time":289.5651041666667,"velocity":0.3937007874015748},{"duration":0.17578125,"midi":57,"time":290.16796875,"velocity":0.3937007874015748},{"duration":0.42578125,"midi":50,"time":290.1809895833333,"velocity":0.3937007874015748},{"duration":0.17578125,"midi":65,"time":290.23828125,"velocity":0.3937007874015748},{"duration":0.05859375,"midi":50,"time":290.92578125,"velocity":0.3937007874015748}]}]}
