{"tracks":[{"instrument":{"family":"guitar","number":24,"name":"acoustic guitar (nylon)"},"notes":[{"duration":1.7518239999999992,"midi":54,"time":14.014591999999999,"velocity":0.7874015748031497},{"duration":1.7518239999999992,"midi":42,"time":14.014591999999999,"velocity":0.7874015748031497},{"duration":1.751824000000001,"midi":53,"time":15.766415999999998,"velocity":0.7874015748031497},{"duration":1.751824000000001,"midi":41,"time":15.766415999999998,"velocity":0.7874015748031497},{"duration":1.7518239999999992,"midi":38,"time":17.51824,"velocity":0.7874015748031497},{"duration":1.7518239999999992,"midi":50,"time":17.51824,"velocity":0.7874015748031497},{"duration":1.7518239999999992,"midi":37,"time":19.270063999999998,"velocity":0.7874015748031497},{"duration":1.7518239999999992,"midi":49,"time":19.270063999999998,"velocity":0.7874015748031497},{"duration":1.7518239999999992,"midi":54,"time":21.021887999999997,"velocity":0.7874015748031497},{"duration":1.7518239999999992,"midi":42,"time":21.021887999999997,"velocity":0.7874015748031497},{"duration":1.7518240000000027,"midi":41,"time":22.773711999999996,"velocity":0.7874015748031497},{"duration":1.7518240000000027,"midi":53,"time":22.773711999999996,"velocity":0.7874015748031497},{"duration":1.7518239999999992,"midi":38,"time":24.525536,"velocity":0.7874015748031497},{"duration":1.7518239999999992,"midi":50,"time":24.525536,"velocity":0.7874015748031497},{"duration":1.7518239999999992,"midi":49,"time":26.277359999999998,"velocity":0.7874015748031497},{"duration":1.7518239999999992,"midi":37,"time":26.277359999999998,"velocity":0.7874015748031497},{"duration":3.5036479999999983,"midi":54,"time":28.029183999999997,"velocity":0.7874015748031497},{"duration":3.5036479999999983,"midi":42,"time":28.029183999999997,"velocity":0.7874015748031497},{"duration":1.7518240000000027,"midi":50,"time":31.532831999999996,"velocity":0.7874015748031497},{"duration":1.7518240000000027,"midi":38,"time":31.532831999999996,"velocity":0.7874015748031497},{"duration":1.7518239999999992,"midi":49,"time":33.284656,"velocity":0.7874015748031497},{"duration":1.7518239999999992,"midi":37,"time":33.284656,"velocity":0.7874015748031497},{"duration":3.5036479999999983,"midi":54,"time":35.03648,"velocity":0.7874015748031497},{"duration":3.5036479999999983,"midi":42,"time":35.03648,"velocity":0.7874015748031497},{"duration":1.7518239999999992,"midi":38,"time":38.540127999999996,"velocity":0.7874015748031497},{"duration":1.7518239999999992,"midi":50,"time":38.540127999999996,"velocity":0.7874015748031497},{"duration":0.3284669999999963,"midi":42,"time":54.306543999999995,"velocity":0.7874015748031497},{"duration":0.3284669999999963,"midi":30,"time":54.306543999999995,"velocity":0.7874015748031497},{"duration":0.4379559999999998,"midi":42,"time":54.744499999999995,"velocity":0.7874015748031497},{"duration":0.1094889999999964,"midi":30,"time":55.182455999999995,"velocity":0.7874015748031497},{"duration":0.1094889999999964,"midi":30,"time":55.401433999999995,"velocity":0.7874015748031497},{"duration":0.2189779999999999,"midi":42,"time":55.620411999999995,"velocity":0.7874015748031497},{"duration":0.4379559999999998,"midi":30,"time":55.620411999999995,"velocity":0.7874015748031497},{"duration":0.1094890000000035,"midi":42,"time":56.715301999999994,"velocity":0.7874015748031497},{"duration":0.1094890000000035,"midi":42,"time":57.153257999999994,"velocity":0.7874015748031497},{"duration":0.3284670000000034,"midi":30,"time":57.372235999999994,"velocity":0.7874015748031497},{"duration":0.1094890000000035,"midi":30,"time":57.810191999999994,"velocity":0.7874015748031497},{"duration":0.1094890000000035,"midi":30,"time":58.02916999999999,"velocity":0.7874015748031497},{"duration":0.4379559999999998,"midi":30,"time":58.24814799999999,"velocity":0.7874015748031497},{"duration":0.4379559999999998,"midi":42,"time":58.24814799999999,"velocity":0.7874015748031497},{"duration":0.1094890000000035,"midi":31,"time":58.90508199999999,"velocity":0.7874015748031497},{"duration":0.1094890000000035,"midi":43,"time":58.90508199999999,"velocity":0.7874015748031497},{"duration":0.4379559999999998,"midi":30,"time":59.12405999999999,"velocity":0.7874015748031497},{"duration":0.3284670000000034,"midi":42,"time":59.99997199999999,"velocity":0.7874015748031497},{"duration":0.1094890000000035,"midi":42,"time":60.65690599999999,"velocity":0.7874015748031497},{"duration":0.2189779999999999,"midi":30,"time":60.87588399999999,"velocity":0.7874015748031497},{"duration":0.4379559999999998,"midi":42,"time":60.87588399999999,"velocity":0.7874015748031497},{"duration":0.1094890000000035,"midi":30,"time":61.31383999999999,"velocity":0.7874015748031497},{"duration":0.1094890000000035,"midi":42,"time":61.53281799999999,"velocity":0.7874015748031497},{"duration":0.4379559999999998,"midi":29,"time":62.62770799999999,"velocity":0.7874015748031497},{"duration":0.1094890000000035,"midi":30,"time":63.06566399999999,"velocity":0.7874015748031497},{"duration":0.1094890000000035,"midi":42,"time":63.06566399999999,"velocity":0.7874015748031497},{"duration":0.4379559999999998,"midi":42,"time":63.50361999999999,"velocity":0.7874015748031497},{"duration":0.4379559999999998,"midi":30,"time":63.50361999999999,"velocity":0.7874015748031497},{"duration":0.4379559999999998,"midi":30,"time":64.379532,"velocity":0.7874015748031497},{"duration":0.4379559999999998,"midi":42,"time":64.379532,"velocity":0.7874015748031497},{"duration":0.1094889999999964,"midi":42,"time":64.817488,"velocity":0.7874015748031497},{"duration":0.1094889999999964,"midi":30,"time":64.817488,"velocity":0.7874015748031497},{"duration":0.1094889999999964,"midi":30,"time":65.03646599999999,"velocity":0.7874015748031497},{"duration":0.1094889999999964,"midi":42,"time":65.03646599999999,"velocity":0.7874015748031497},{"duration":0.4379559999999998,"midi":30,"time":65.255444,"velocity":0.7874015748031497},{"duration":0.4379559999999998,"midi":42,"time":65.255444,"velocity":0.7874015748031497},{"duration":0.1094890000000106,"midi":43,"time":65.91237799999999,"velocity":0.7874015748031497},{"duration":0.4379559999999998,"midi":43,"time":66.131356,"velocity":0.7874015748031497},{"duration":0.4379559999999998,"midi":31,"time":66.131356,"velocity":0.7874015748031497},{"duration":0.1094889999999964,"midi":42,"time":66.569312,"velocity":0.7874015748031497},{"duration":0.1094889999999964,"midi":30,"time":66.569312,"velocity":0.7874015748031497},{"duration":0.1094890000000106,"midi":30,"time":66.78828999999999,"velocity":0.7874015748031497},{"duration":0.1094890000000106,"midi":42,"time":66.78828999999999,"velocity":0.7874015748031497},{"duration":0.4379559999999998,"midi":42,"time":67.007268,"velocity":0.7874015748031497},{"duration":0.4379559999999998,"midi":30,"time":67.007268,"velocity":0.7874015748031497},{"duration":0.1094889999999964,"midi":42,"time":67.88318,"velocity":0.7874015748031497},{"duration":0.1094889999999964,"midi":30,"time":67.88318,"velocity":0.7874015748031497},{"duration":0.1094889999999964,"midi":42,"time":68.211647,"velocity":0.7874015748031497},{"duration":0.3284670000000034,"midi":42,"time":68.321136,"velocity":0.7874015748031497},{"duration":0.4379559999999998,"midi":28,"time":68.759092,"velocity":0.7874015748031497},{"duration":0.4379559999999998,"midi":40,"time":68.759092,"velocity":0.7874015748031497},{"duration":0.4379559999999998,"midi":25,"time":69.635004,"velocity":0.7874015748031497},{"duration":0.4379559999999998,"midi":37,"time":69.635004,"velocity":0.7874015748031497},{"duration":0.1094889999999964,"midi":30,"time":70.510916,"velocity":0.7874015748031497},{"duration":0.1094889999999964,"midi":42,"time":70.510916,"velocity":0.7874015748031497},{"duration":0.218978000000007,"midi":28,"time":70.72989399999999,"velocity":0.7874015748031497},{"duration":0.218978000000007,"midi":40,"time":70.72989399999999,"velocity":0.7874015748031497},{"duration":0.1094890000000106,"midi":42,"time":71.16784999999999,"velocity":0.7874015748031497},{"duration":0.3284670000000034,"midi":30,"time":71.386828,"velocity":0.7874015748031497},{"duration":0.2189779999999928,"midi":42,"time":71.824784,"velocity":0.7874015748031497},{"duration":0.2189779999999928,"midi":30,"time":71.824784,"velocity":0.7874015748031497},{"duration":0.3284670000000034,"midi":26,"time":72.26274,"velocity":0.7874015748031497},{"duration":0.3284670000000034,"midi":38,"time":72.26274,"velocity":0.7874015748031497},{"duration":0.3284670000000034,"midi":38,"time":73.138652,"velocity":0.7874015748031497},{"duration":0.3284670000000034,"midi":26,"time":73.138652,"velocity":0.7874015748031497},{"duration":0.2189779999999928,"midi":42,"time":73.576608,"velocity":0.7874015748031497},{"duration":0.2189779999999928,"midi":30,"time":73.576608,"velocity":0.7874015748031497},{"duration":0.1094890000000106,"midi":30,"time":74.23354199999999,"velocity":0.7874015748031497},{"duration":0.1094889999999964,"midi":30,"time":74.45251999999999,"velocity":0.7874015748031497},{"duration":0.1094890000000106,"midi":30,"time":74.67149799999999,"velocity":0.7874015748031497},{"duration":0.1094889999999964,"midi":30,"time":74.780987,"velocity":0.7874015748031497},{"duration":0.4379559999999998,"midi":42,"time":74.89047599999999,"velocity":0.7874015748031497},{"duration":0.4379559999999998,"midi":30,"time":74.89047599999999,"velocity":0.7874015748031497},{"duration":0.1094889999999964,"midi":42,"time":75.32843199999999,"velocity":0.7874015748031497},{"duration":0.1094889999999964,"midi":42,"time":75.54741,"velocity":0.7874015748031497},{"duration":0.1094889999999964,"midi":42,"time":75.656899,"velocity":0.7874015748031497},{"duration":0.4379559999999998,"midi":41,"time":75.76638799999999,"velocity":0.7874015748031497},{"duration":0.1094889999999964,"midi":41,"time":76.64229999999999,"velocity":0.7874015748031497},{"duration":0.1094890000000106,"midi":41,"time":76.75178899999999,"velocity":0.7874015748031497},{"duration":0.1094889999999964,"midi":41,"time":76.861278,"velocity":0.7874015748031497},{"duration":0.1094889999999964,"midi":41,"time":76.970767,"velocity":0.7874015748031497},{"duration":0.218978000000007,"midi":42,"time":77.08025599999999,"velocity":0.7874015748031497},{"duration":0.218978000000007,"midi":30,"time":77.08025599999999,"velocity":0.7874015748031497},{"duration":0.1094889999999964,"midi":30,"time":77.299234,"velocity":0.7874015748031497},{"duration":0.1094889999999964,"midi":42,"time":77.299234,"velocity":0.7874015748031497},{"duration":0.1094889999999964,"midi":30,"time":77.408723,"velocity":0.7874015748031497},{"duration":0.1094889999999964,"midi":42,"time":77.408723,"velocity":0.7874015748031497},{"duration":0.4379559999999998,"midi":30,"time":77.51821199999999,"velocity":0.7874015748031497},{"duration":0.4379559999999998,"midi":42,"time":77.51821199999999,"velocity":0.7874015748031497},{"duration":0.1094889999999964,"midi":42,"time":77.95616799999999,"velocity":0.7874015748031497},{"duration":0.1094889999999964,"midi":42,"time":78.175146,"velocity":0.7874015748031497},{"duration":0.4379559999999998,"midi":42,"time":78.39412399999999,"velocity":0.7874015748031497},{"duration":0.4379559999999998,"midi":30,"time":78.39412399999999,"velocity":0.7874015748031497},{"duration":0.4379559999999998,"midi":30,"time":79.27003599999999,"velocity":0.7874015748031497},{"duration":0.4379559999999998,"midi":42,"time":79.27003599999999,"velocity":0.7874015748031497},{"duration":0.218978000000007,"midi":43,"time":79.70799199999999,"velocity":0.7874015748031497},{"duration":0.4379559999999998,"midi":43,"time":80.14594799999999,"velocity":0.7874015748031497},{"duration":0.4379559999999998,"midi":31,"time":80.14594799999999,"velocity":0.7874015748031497},{"duration":0.1094889999999964,"midi":42,"time":80.58390399999999,"velocity":0.7874015748031497},{"duration":0.1094889999999964,"midi":30,"time":80.58390399999999,"velocity":0.7874015748031497},{"duration":0.1094889999999964,"midi":42,"time":80.802882,"velocity":0.7874015748031497},{"duration":0.1094889999999964,"midi":30,"time":80.802882,"velocity":0.7874015748031497},{"duration":0.4379559999999998,"midi":30,"time":81.02185999999999,"velocity":0.7874015748031497},{"duration":0.4379559999999998,"midi":42,"time":81.02185999999999,"velocity":0.7874015748031497},{"duration":0.1094889999999964,"midi":30,"time":81.89777199999999,"velocity":0.7874015748031497},{"duration":0.1094889999999964,"midi":42,"time":81.89777199999999,"velocity":0.7874015748031497},{"duration":0.1094889999999964,"midi":42,"time":82.22623899999999,"velocity":0.7874015748031497},{"duration":0.3284670000000034,"midi":42,"time":82.33572799999999,"velocity":0.7874015748031497},{"duration":0.4379559999999998,"midi":40,"time":82.77368399999999,"velocity":0.7874015748031497},{"duration":0.4379559999999998,"midi":28,"time":82.77368399999999,"velocity":0.7874015748031497},{"duration":0.4379559999999998,"midi":25,"time":83.64959599999999,"velocity":0.7874015748031497},{"duration":0.4379559999999998,"midi":37,"time":83.64959599999999,"velocity":0.7874015748031497},{"duration":0.8759119999999996,"midi":30,"time":126.13132799999998,"velocity":0.7874015748031497},{"duration":0.8759119999999996,"midi":42,"time":126.13132799999998,"velocity":0.7874015748031497},{"duration":0.8759119999999996,"midi":42,"time":127.00723999999998,"velocity":0.7874015748031497},{"duration":0.8759119999999996,"midi":30,"time":127.00723999999998,"velocity":0.7874015748031497},{"duration":0.8759120000000138,"midi":41,"time":127.88315199999998,"velocity":0.7874015748031497},{"duration":0.8759120000000138,"midi":29,"time":127.88315199999998,"velocity":0.7874015748031497},{"duration":0.8759119999999996,"midi":41,"time":128.759064,"velocity":0.7874015748031497},{"duration":0.8759119999999996,"midi":29,"time":128.759064,"velocity":0.7874015748031497},{"duration":0.8759119999999996,"midi":26,"time":129.634976,"velocity":0.7874015748031497},{"duration":0.8759119999999996,"midi":38,"time":129.634976,"velocity":0.7874015748031497},{"duration":0.8759119999999996,"midi":38,"time":130.510888,"velocity":0.7874015748031497},{"duration":0.8759119999999996,"midi":26,"time":130.510888,"velocity":0.7874015748031497},{"duration":0.8759119999999996,"midi":25,"time":131.3868,"velocity":0.7874015748031497},{"duration":0.1094889999999964,"midi":37,"time":131.3868,"velocity":0.7874015748031497},{"duration":0.1094889999999964,"midi":37,"time":131.496289,"velocity":0.7874015748031497},{"duration":0.1094889999999964,"midi":37,"time":131.605778,"velocity":0.7874015748031497},{"duration":0.1094889999999964,"midi":37,"time":131.71526699999998,"velocity":0.7874015748031497},{"duration":0.2189779999999928,"midi":37,"time":132.043734,"velocity":0.7874015748031497},{"duration":0.8759119999999996,"midi":37,"time":132.262712,"velocity":0.7874015748031497},{"duration":0.8759119999999996,"midi":25,"time":132.262712,"velocity":0.7874015748031497},{"duration":0.2189779999999928,"midi":30,"time":133.138624,"velocity":0.7874015748031497},{"duration":0.2189779999999928,"midi":42,"time":133.138624,"velocity":0.7874015748031497},{"duration":0.1094889999999964,"midi":42,"time":133.46709099999998,"velocity":0.7874015748031497},{"duration":0.1094889999999964,"midi":30,"time":133.57657999999998,"velocity":0.7874015748031497},{"duration":0.1094889999999964,"midi":42,"time":133.795558,"velocity":0.7874015748031497},{"duration":0.4379559999999856,"midi":42,"time":134.014536,"velocity":0.7874015748031497},{"duration":0.4379559999999856,"midi":30,"time":134.014536,"velocity":0.7874015748031497},{"duration":0.1094889999999964,"midi":30,"time":134.45249199999998,"velocity":0.7874015748031497},{"duration":0.1094889999999964,"midi":30,"time":134.67147,"velocity":0.7874015748031497},{"duration":0.1094889999999964,"midi":42,"time":134.890448,"velocity":0.7874015748031497},{"duration":0.1094889999999964,"midi":42,"time":134.999937,"velocity":0.7874015748031497},{"duration":0.1094889999999964,"midi":42,"time":135.10942599999998,"velocity":0.7874015748031497},{"duration":0.1094889999999964,"midi":42,"time":135.21891499999998,"velocity":0.7874015748031497},{"duration":0.1094889999999964,"midi":30,"time":135.32840399999998,"velocity":0.7874015748031497},{"duration":0.1094889999999964,"midi":30,"time":135.547382,"velocity":0.7874015748031497},{"duration":0.4379559999999856,"midi":30,"time":135.76636,"velocity":0.7874015748031497},{"duration":0.4379559999999856,"midi":42,"time":135.76636,"velocity":0.7874015748031497},{"duration":0.437956000000014,"midi":43,"time":136.20431599999998,"velocity":0.7874015748031497},{"duration":0.2189779999999928,"midi":30,"time":136.642272,"velocity":0.7874015748031497},{"duration":0.2189779999999928,"midi":42,"time":136.642272,"velocity":0.7874015748031497},{"duration":0.1094889999999964,"midi":30,"time":136.97073899999998,"velocity":0.7874015748031497},{"duration":0.2189779999999928,"midi":42,"time":136.97073899999998,"velocity":0.7874015748031497},{"duration":0.1094889999999964,"midi":30,"time":137.08022799999998,"velocity":0.7874015748031497},{"duration":0.1094889999999964,"midi":42,"time":137.299206,"velocity":0.7874015748031497},{"duration":0.8759119999999996,"midi":42,"time":137.518184,"velocity":0.7874015748031497},{"duration":0.8759119999999996,"midi":30,"time":137.518184,"velocity":0.7874015748031497},{"duration":0.3284669999999892,"midi":30,"time":138.394096,"velocity":0.7874015748031497},{"duration":0.3284669999999892,"midi":42,"time":138.394096,"velocity":0.7874015748031497},{"duration":0.3284670000000176,"midi":42,"time":138.83205199999998,"velocity":0.7874015748031497},{"duration":0.3284670000000176,"midi":30,"time":138.83205199999998,"velocity":0.7874015748031497},{"duration":0.1094889999999964,"midi":42,"time":139.05103,"velocity":0.7874015748031497},{"duration":0.1094889999999964,"midi":42,"time":139.48898599999998,"velocity":0.7874015748031497},{"duration":0.3284670000000176,"midi":30,"time":139.70796399999998,"velocity":0.7874015748031497},{"duration":0.437956000000014,"midi":30,"time":139.70796399999998,"velocity":0.7874015748031497},{"duration":0.1094889999999964,"midi":30,"time":140.14592,"velocity":0.7874015748031497},{"duration":0.1094889999999964,"midi":30,"time":140.36489799999998,"velocity":0.7874015748031497},{"duration":0.437956000000014,"midi":42,"time":140.58387599999998,"velocity":0.7874015748031497},{"duration":0.437956000000014,"midi":30,"time":140.58387599999998,"velocity":0.7874015748031497},{"duration":0.437956000000014,"midi":42,"time":140.58387599999998,"velocity":0.7874015748031497},{"duration":0.1094889999999964,"midi":43,"time":141.24080999999998,"velocity":0.7874015748031497},{"duration":0.2189779999999928,"midi":42,"time":141.24080999999998,"velocity":0.7874015748031497},{"duration":0.1094889999999964,"midi":31,"time":141.24080999999998,"velocity":0.7874015748031497},{"duration":0.2189780000000212,"midi":30,"time":141.45978799999997,"velocity":0.7874015748031497},{"duration":0.2189779999999928,"midi":30,"time":141.569277,"velocity":0.7874015748031497},{"duration":0.2189779999999928,"midi":30,"time":141.678766,"velocity":0.7874015748031497},{"duration":0.1094889999999964,"midi":42,"time":141.897744,"velocity":0.7874015748031497},{"duration":0.1094889999999964,"midi":30,"time":142.11672199999998,"velocity":0.7874015748031497},{"duration":0.10948900000002482,"midi":42,"time":142.33569999999997,"velocity":0.7874015748031497},{"duration":0.3284670000000176,"midi":42,"time":142.33569999999997,"velocity":0.7874015748031497},{"duration":0.1094889999999964,"midi":42,"time":142.554678,"velocity":0.7874015748031497},{"duration":0.1094889999999964,"midi":42,"time":142.99263399999998,"velocity":0.7874015748031497},{"duration":0.2189780000000212,"midi":30,"time":143.21161199999997,"velocity":0.7874015748031497},{"duration":0.437956000000014,"midi":42,"time":143.21161199999997,"velocity":0.7874015748031497},{"duration":0.1094889999999964,"midi":38,"time":143.321101,"velocity":0.7874015748031497},{"duration":0.2189779999999928,"midi":38,"time":143.43059,"velocity":0.7874015748031497},{"duration":0.1094889999999964,"midi":30,"time":143.649568,"velocity":0.7874015748031497},{"duration":0.1094889999999964,"midi":42,"time":143.86854599999998,"velocity":0.7874015748031497},{"duration":0.437956000000014,"midi":29,"time":144.96343599999997,"velocity":0.7874015748031497},{"duration":0.437956000000014,"midi":45,"time":144.96343599999997,"velocity":0.7874015748031497},{"duration":0.1094889999999964,"midi":30,"time":145.401392,"velocity":0.7874015748031497},{"duration":0.1094889999999964,"midi":42,"time":145.401392,"velocity":0.7874015748031497},{"duration":0.1094889999999964,"midi":30,"time":145.401392,"velocity":0.7874015748031497},{"duration":0.1094889999999964,"midi":30,"time":145.62036999999998,"velocity":0.7874015748031497},{"duration":0.1094889999999964,"midi":42,"time":145.62036999999998,"velocity":0.7874015748031497},{"duration":0.437956000000014,"midi":42,"time":145.83934799999997,"velocity":0.7874015748031497},{"duration":0.437956000000014,"midi":42,"time":145.83934799999997,"velocity":0.7874015748031497},{"duration":0.437956000000014,"midi":30,"time":145.83934799999997,"velocity":0.7874015748031497},{"duration":0.10948900000002482,"midi":30,"time":146.71525999999997,"velocity":0.7874015748031497},{"duration":0.3284670000000176,"midi":42,"time":146.71525999999997,"velocity":0.7874015748031497},{"duration":0.437956000000014,"midi":30,"time":146.71525999999997,"velocity":0.7874015748031497},{"duration":0.2189779999999928,"midi":42,"time":146.934238,"velocity":0.7874015748031497},{"duration":0.1094889999999964,"midi":30,"time":147.153216,"velocity":0.7874015748031497},{"duration":0.1094889999999964,"midi":42,"time":147.153216,"velocity":0.7874015748031497},{"duration":0.1094889999999964,"midi":30,"time":147.153216,"velocity":0.7874015748031497},{"duration":0.1094889999999964,"midi":42,"time":147.37219399999998,"velocity":0.7874015748031497},{"duration":0.1094889999999964,"midi":30,"time":147.37219399999998,"velocity":0.7874015748031497},{"duration":0.1094889999999964,"midi":42,"time":147.37219399999998,"velocity":0.7874015748031497},{"duration":0.2189780000000212,"midi":30,"time":147.59117199999997,"velocity":0.7874015748031497},{"duration":0.2189780000000212,"midi":42,"time":147.59117199999997,"velocity":0.7874015748031497},{"duration":0.437956000000014,"midi":42,"time":147.59117199999997,"velocity":0.7874015748031497},{"duration":0.437956000000014,"midi":30,"time":147.59117199999997,"velocity":0.7874015748031497},{"duration":0.1094889999999964,"midi":33,"time":148.029128,"velocity":0.7874015748031497},{"duration":0.1094889999999964,"midi":45,"time":148.029128,"velocity":0.7874015748031497},{"duration":0.1094889999999964,"midi":43,"time":148.24810599999998,"velocity":0.7874015748031497},{"duration":0.437956000000014,"midi":31,"time":148.46708399999997,"velocity":0.7874015748031497},{"duration":0.437956000000014,"midi":43,"time":148.46708399999997,"velocity":0.7874015748031497},{"duration":0.437956000000014,"midi":45,"time":148.46708399999997,"velocity":0.7874015748031497},{"duration":0.1094889999999964,"midi":42,"time":148.90503999999999,"velocity":0.7874015748031497},{"duration":0.1094889999999964,"midi":30,"time":148.90503999999999,"velocity":0.7874015748031497},{"duration":0.1094889999999964,"midi":30,"time":148.90503999999999,"velocity":0.7874015748031497},{"duration":0.1094889999999964,"midi":42,"time":148.90503999999999,"velocity":0.7874015748031497},{"duration":0.1094889999999964,"midi":30,"time":149.12401799999998,"velocity":0.7874015748031497},{"duration":0.1094889999999964,"midi":42,"time":149.12401799999998,"velocity":0.7874015748031497},{"duration":0.1094889999999964,"midi":30,"time":149.12401799999998,"velocity":0.7874015748031497},{"duration":0.437956000000014,"midi":45,"time":149.34299599999997,"velocity":0.7874015748031497},{"duration":0.437956000000014,"midi":42,"time":149.34299599999997,"velocity":0.7874015748031497},{"duration":0.437956000000014,"midi":30,"time":149.34299599999997,"velocity":0.7874015748031497},{"duration":0.4379559999999856,"midi":43,"time":150.218908,"velocity":0.7874015748031497},{"duration":0.1094889999999964,"midi":30,"time":150.218908,"velocity":0.7874015748031497},{"duration":0.4379559999999856,"midi":31,"time":150.218908,"velocity":0.7874015748031497},{"duration":0.1094889999999964,"midi":42,"time":150.218908,"velocity":0.7874015748031497},{"duration":0.1094889999999964,"midi":42,"time":150.547375,"velocity":0.7874015748031497},{"duration":0.3284669999999892,"midi":30,"time":150.65686399999998,"velocity":0.7874015748031497},{"duration":0.3284669999999892,"midi":42,"time":150.65686399999998,"velocity":0.7874015748031497},{"duration":0.3284669999999892,"midi":42,"time":150.65686399999998,"velocity":0.7874015748031497},{"duration":0.3284669999999892,"midi":30,"time":151.09482,"velocity":0.7874015748031497},{"duration":0.4379559999999856,"midi":40,"time":151.09482,"velocity":0.7874015748031497},{"duration":0.4379559999999856,"midi":28,"time":151.09482,"velocity":0.7874015748031497},{"duration":0.3284669999999892,"midi":42,"time":151.09482,"velocity":0.7874015748031497},{"duration":0.4379559999999856,"midi":29,"time":151.970732,"velocity":0.7874015748031497},{"duration":0.3284669999999892,"midi":37,"time":151.970732,"velocity":0.7874015748031497},{"duration":0.2189779999999928,"midi":37,"time":152.18971,"velocity":0.7874015748031497},{"duration":0.1094889999999964,"midi":42,"time":152.40868799999998,"velocity":0.7874015748031497},{"duration":0.1094889999999964,"midi":30,"time":152.40868799999998,"velocity":0.7874015748031497},{"duration":0.4379559999999856,"midi":31,"time":152.846644,"velocity":0.7874015748031497},{"duration":0.1094889999999964,"midi":42,"time":152.846644,"velocity":0.7874015748031497},{"duration":0.4379559999999856,"midi":43,"time":152.846644,"velocity":0.7874015748031497},{"duration":0.1094889999999964,"midi":30,"time":152.846644,"velocity":0.7874015748031497},{"duration":0.2189779999999928,"midi":28,"time":153.065622,"velocity":0.7874015748031497},{"duration":0.2189779999999928,"midi":40,"time":153.065622,"velocity":0.7874015748031497},{"duration":0.1094889999999964,"midi":42,"time":153.50357799999998,"velocity":0.7874015748031497},{"duration":0.4379559999999856,"midi":33,"time":153.722556,"velocity":0.7874015748031497},{"duration":0.4379559999999856,"midi":45,"time":153.722556,"velocity":0.7874015748031497},{"duration":0.3284669999999892,"midi":30,"time":153.722556,"velocity":0.7874015748031497},{"duration":0.2189779999999928,"midi":30,"time":154.16051199999998,"velocity":0.7874015748031497},{"duration":0.2189779999999928,"midi":42,"time":154.16051199999998,"velocity":0.7874015748031497},{"duration":0.3284669999999892,"midi":38,"time":154.598468,"velocity":0.7874015748031497},{"duration":0.3284669999999892,"midi":30,"time":154.598468,"velocity":0.7874015748031497},{"duration":0.1094889999999964,"midi":42,"time":154.817446,"velocity":0.7874015748031497},{"duration":0.3284669999999892,"midi":30,"time":155.47438,"velocity":0.7874015748031497},{"duration":0.3284669999999892,"midi":38,"time":155.47438,"velocity":0.7874015748031497},{"duration":0.1094889999999964,"midi":30,"time":155.91233599999998,"velocity":0.7874015748031497},{"duration":0.2189779999999928,"midi":30,"time":155.91233599999998,"velocity":0.7874015748031497},{"duration":0.1094889999999964,"midi":42,"time":155.91233599999998,"velocity":0.7874015748031497},{"duration":0.2189779999999928,"midi":42,"time":155.91233599999998,"velocity":0.7874015748031497},{"duration":0.1094889999999964,"midi":30,"time":156.13131399999997,"velocity":0.7874015748031497},{"duration":0.1094889999999964,"midi":42,"time":156.13131399999997,"velocity":0.7874015748031497},{"duration":0.1094889999999964,"midi":30,"time":156.350292,"velocity":0.7874015748031497},{"duration":0.1094889999999964,"midi":30,"time":156.459781,"velocity":0.7874015748031497},{"duration":0.2189779999999928,"midi":43,"time":156.56927,"velocity":0.7874015748031497},{"duration":0.1094889999999964,"midi":30,"time":156.56927,"velocity":0.7874015748031497},{"duration":0.1094889999999964,"midi":30,"time":156.78824799999998,"velocity":0.7874015748031497},{"duration":0.1094889999999964,"midi":30,"time":157.00722599999997,"velocity":0.7874015748031497},{"duration":0.10948900000002482,"midi":30,"time":157.11671499999997,"velocity":0.7874015748031497},{"duration":0.4379559999999856,"midi":30,"time":157.226204,"velocity":0.7874015748031497},{"duration":0.4379559999999856,"midi":42,"time":157.226204,"velocity":0.7874015748031497},{"duration":0.2189779999999928,"midi":33,"time":157.445182,"velocity":0.7874015748031497},{"duration":0.1094889999999964,"midi":42,"time":157.66415999999998,"velocity":0.7874015748031497},{"duration":0.1094889999999964,"midi":30,"time":157.77364899999998,"velocity":0.7874015748031497},{"duration":0.1094889999999964,"midi":42,"time":157.88313799999997,"velocity":0.7874015748031497},{"duration":0.1094889999999964,"midi":30,"time":157.88313799999997,"velocity":0.7874015748031497},{"duration":0.10948900000002482,"midi":30,"time":157.99262699999997,"velocity":0.7874015748031497},{"duration":0.10948900000002482,"midi":42,"time":157.99262699999997,"velocity":0.7874015748031497},{"duration":0.2189779999999928,"midi":42,"time":158.102116,"velocity":0.7874015748031497},{"duration":0.4379559999999856,"midi":41,"time":158.102116,"velocity":0.7874015748031497},{"duration":0.2189779999999928,"midi":42,"time":158.54007199999998,"velocity":0.7874015748031497},{"duration":0.10948900000002482,"midi":30,"time":158.75904999999997,"velocity":0.7874015748031497},{"duration":0.1094889999999964,"midi":30,"time":158.868539,"velocity":0.7874015748031497},{"duration":0.1094889999999964,"midi":41,"time":158.978028,"velocity":0.7874015748031497},{"duration":0.1094889999999964,"midi":41,"time":159.087517,"velocity":0.7874015748031497},{"duration":0.1094889999999964,"midi":41,"time":159.197006,"velocity":0.7874015748031497},{"duration":0.1094889999999964,"midi":41,"time":159.30649499999998,"velocity":0.7874015748031497},{"duration":0.2189779999999928,"midi":30,"time":159.41598399999998,"velocity":0.7874015748031497},{"duration":0.2189779999999928,"midi":42,"time":159.41598399999998,"velocity":0.7874015748031497},{"duration":0.2189779999999928,"midi":42,"time":159.41598399999998,"velocity":0.7874015748031497},{"duration":0.2189779999999928,"midi":30,"time":159.41598399999998,"velocity":0.7874015748031497},{"duration":0.10948900000002482,"midi":30,"time":159.63496199999997,"velocity":0.7874015748031497},{"duration":0.10948900000002482,"midi":42,"time":159.63496199999997,"velocity":0.7874015748031497},{"duration":0.1094889999999964,"midi":30,"time":159.744451,"velocity":0.7874015748031497},{"duration":0.1094889999999964,"midi":42,"time":159.744451,"velocity":0.7874015748031497},{"duration":0.2189779999999928,"midi":41,"time":159.85394,"velocity":0.7874015748031497},{"duration":0.2189779999999928,"midi":29,"time":159.85394,"velocity":0.7874015748031497},{"duration":0.4379559999999856,"midi":42,"time":159.85394,"velocity":0.7874015748031497},{"duration":0.4379559999999856,"midi":30,"time":159.85394,"velocity":0.7874015748031497},{"duration":0.2189779999999928,"midi":40,"time":160.18240699999998,"velocity":0.7874015748031497},{"duration":0.2189779999999928,"midi":28,"time":160.18240699999998,"velocity":0.7874015748031497},{"duration":0.1094889999999964,"midi":42,"time":160.29189599999998,"velocity":0.7874015748031497},{"duration":0.1094889999999964,"midi":28,"time":160.40138499999998,"velocity":0.7874015748031497},{"duration":0.1094889999999964,"midi":40,"time":160.40138499999998,"velocity":0.7874015748031497},{"duration":0.10948900000002482,"midi":28,"time":160.51087399999997,"velocity":0.7874015748031497},{"duration":0.10948900000002482,"midi":40,"time":160.51087399999997,"velocity":0.7874015748031497},{"duration":0.10948900000002482,"midi":42,"time":160.51087399999997,"velocity":0.7874015748031497},{"duration":0.1094889999999964,"midi":28,"time":160.620363,"velocity":0.7874015748031497},{"duration":0.1094889999999964,"midi":40,"time":160.620363,"velocity":0.7874015748031497},{"duration":0.4379559999999856,"midi":30,"time":160.729852,"velocity":0.7874015748031497},{"duration":0.4379559999999856,"midi":42,"time":160.729852,"velocity":0.7874015748031497},{"duration":0.1094889999999964,"midi":29,"time":160.839341,"velocity":0.7874015748031497},{"duration":0.1094889999999964,"midi":41,"time":160.839341,"velocity":0.7874015748031497},{"duration":0.1094889999999964,"midi":29,"time":160.94883,"velocity":0.7874015748031497},{"duration":0.1094889999999964,"midi":41,"time":160.94883,"velocity":0.7874015748031497},{"duration":0.1094889999999964,"midi":29,"time":161.05831899999998,"velocity":0.7874015748031497},{"duration":0.1094889999999964,"midi":41,"time":161.05831899999998,"velocity":0.7874015748031497},{"duration":0.437956000000014,"midi":42,"time":161.16780799999998,"velocity":0.7874015748031497},{"duration":0.4379559999999856,"midi":42,"time":161.605764,"velocity":0.7874015748031497},{"duration":0.1094889999999964,"midi":30,"time":161.605764,"velocity":0.7874015748031497},{"duration":0.2189779999999928,"midi":30,"time":161.605764,"velocity":0.7874015748031497},{"duration":0.3284669999999892,"midi":30,"time":161.715253,"velocity":0.7874015748031497},{"duration":0.2189779999999928,"midi":42,"time":161.824742,"velocity":0.7874015748031497},{"duration":0.2189779999999928,"midi":43,"time":162.04371999999998,"velocity":0.7874015748031497},{"duration":0.10948900000002482,"midi":38,"time":162.26269799999997,"velocity":0.7874015748031497},{"duration":0.4379559999999856,"midi":43,"time":162.481676,"velocity":0.7874015748031497},{"duration":0.4379559999999856,"midi":26,"time":162.481676,"velocity":0.7874015748031497},{"duration":0.4379559999999856,"midi":31,"time":162.481676,"velocity":0.7874015748031497},{"duration":0.4379559999999856,"midi":38,"time":162.481676,"velocity":0.7874015748031497},{"duration":0.1094889999999964,"midi":30,"time":162.91963199999998,"velocity":0.7874015748031497},{"duration":0.1094889999999964,"midi":42,"time":162.91963199999998,"velocity":0.7874015748031497},{"duration":0.1094889999999964,"midi":30,"time":162.91963199999998,"velocity":0.7874015748031497},{"duration":0.1094889999999964,"midi":42,"time":162.91963199999998,"velocity":0.7874015748031497},{"duration":0.10948900000002482,"midi":42,"time":163.13860999999997,"velocity":0.7874015748031497},{"duration":0.10948900000002482,"midi":30,"time":163.13860999999997,"velocity":0.7874015748031497},{"duration":0.10948900000002482,"midi":42,"time":163.13860999999997,"velocity":0.7874015748031497},{"duration":0.10948900000002482,"midi":30,"time":163.13860999999997,"velocity":0.7874015748031497},{"duration":0.2189779999999928,"midi":30,"time":163.357588,"velocity":0.7874015748031497},{"duration":0.4379559999999856,"midi":30,"time":163.357588,"velocity":0.7874015748031497},{"duration":0.2189779999999928,"midi":42,"time":163.357588,"velocity":0.7874015748031497},{"duration":0.4379559999999856,"midi":42,"time":163.357588,"velocity":0.7874015748031497},{"duration":0.1094889999999964,"midi":42,"time":164.2335,"velocity":0.7874015748031497},{"duration":0.2189779999999928,"midi":43,"time":164.2335,"velocity":0.7874015748031497},{"duration":0.1094889999999964,"midi":30,"time":164.2335,"velocity":0.7874015748031497},{"duration":0.2189779999999928,"midi":42,"time":164.45247799999999,"velocity":0.7874015748031497},{"duration":0.2189779999999928,"midi":30,"time":164.45247799999999,"velocity":0.7874015748031497},{"duration":0.1094889999999964,"midi":42,"time":164.56196699999998,"velocity":0.7874015748031497},{"duration":0.2189779999999928,"midi":42,"time":164.67145599999998,"velocity":0.7874015748031497},{"duration":0.2189779999999928,"midi":30,"time":164.67145599999998,"velocity":0.7874015748031497},{"duration":0.3284670000000176,"midi":42,"time":164.67145599999998,"velocity":0.7874015748031497},{"duration":0.4379559999999856,"midi":40,"time":165.109412,"velocity":0.7874015748031497},{"duration":0.4379559999999856,"midi":28,"time":165.109412,"velocity":0.7874015748031497},{"duration":0.4379559999999856,"midi":42,"time":165.109412,"velocity":0.7874015748031497},{"duration":0.10948900000002482,"midi":42,"time":165.76634599999997,"velocity":0.7874015748031497},{"duration":0.4379559999999856,"midi":30,"time":165.985324,"velocity":0.7874015748031497},{"duration":0.4379559999999856,"midi":42,"time":165.985324,"velocity":0.7874015748031497},{"duration":0.4379559999999856,"midi":29,"time":165.985324,"velocity":0.7874015748031497},{"duration":0.4379559999999856,"midi":37,"time":165.985324,"velocity":0.7874015748031497},{"duration":0.10948900000002482,"midi":42,"time":166.64225799999997,"velocity":0.7874015748031497},{"duration":0.1094889999999964,"midi":40,"time":166.861236,"velocity":0.7874015748031497},{"duration":0.1094889999999964,"midi":28,"time":166.861236,"velocity":0.7874015748031497},{"duration":0.1094889999999964,"midi":26,"time":167.08021399999998,"velocity":0.7874015748031497},{"duration":0.1094889999999964,"midi":38,"time":167.08021399999998,"velocity":0.7874015748031497},{"duration":0.1094889999999964,"midi":42,"time":167.08021399999998,"velocity":0.7874015748031497},{"duration":0.10948900000002482,"midi":42,"time":167.51816999999997,"velocity":0.7874015748031497},{"duration":0.3284669999999892,"midi":30,"time":167.737148,"velocity":0.7874015748031497},{"duration":0.4379559999999856,"midi":37,"time":167.737148,"velocity":0.7874015748031497},{"duration":0.4379559999999856,"midi":25,"time":167.737148,"velocity":0.7874015748031497},{"duration":0.1094889999999964,"midi":30,"time":168.17510399999998,"velocity":0.7874015748031497},{"duration":0.1094889999999964,"midi":30,"time":168.394082,"velocity":0.7874015748031497},{"duration":0.4379559999999856,"midi":30,"time":168.61306,"velocity":0.7874015748031497},{"duration":0.4379559999999856,"midi":42,"time":168.61306,"velocity":0.7874015748031497},{"duration":0.4379559999999856,"midi":42,"time":168.61306,"velocity":0.7874015748031497},{"duration":0.4379559999999856,"midi":30,"time":168.61306,"velocity":0.7874015748031497},{"duration":0.1094889999999964,"midi":43,"time":169.269994,"velocity":0.7874015748031497},{"duration":0.1094889999999964,"midi":42,"time":169.269994,"velocity":0.7874015748031497},{"duration":0.1094889999999964,"midi":31,"time":169.269994,"velocity":0.7874015748031497},{"duration":0.1094889999999964,"midi":42,"time":169.379483,"velocity":0.7874015748031497},{"duration":0.2189779999999928,"midi":30,"time":169.488972,"velocity":0.7874015748031497},{"duration":0.1094889999999964,"midi":42,"time":169.598461,"velocity":0.7874015748031497},{"duration":0.3284669999999892,"midi":30,"time":169.598461,"velocity":0.7874015748031497},{"duration":0.2189779999999928,"midi":42,"time":169.70794999999998,"velocity":0.7874015748031497},{"duration":0.2189779999999928,"midi":30,"time":169.70794999999998,"velocity":0.7874015748031497},{"duration":0.1094889999999964,"midi":35,"time":170.364884,"velocity":0.7874015748031497},{"duration":0.3284669999999892,"midi":42,"time":170.364884,"velocity":0.7874015748031497},{"duration":0.1094889999999964,"midi":30,"time":170.58386199999998,"velocity":0.7874015748031497},{"duration":0.1094889999999964,"midi":42,"time":171.021818,"velocity":0.7874015748031497},{"duration":0.2189779999999928,"midi":30,"time":171.240796,"velocity":0.7874015748031497},{"duration":0.2189779999999928,"midi":33,"time":171.240796,"velocity":0.7874015748031497},{"duration":0.4379559999999856,"midi":42,"time":171.240796,"velocity":0.7874015748031497},{"duration":0.2189779999999928,"midi":45,"time":171.45977399999998,"velocity":0.7874015748031497},{"duration":0.2189779999999928,"midi":33,"time":171.45977399999998,"velocity":0.7874015748031497},{"duration":0.1094889999999964,"midi":30,"time":171.67875199999997,"velocity":0.7874015748031497},{"duration":0.1094889999999964,"midi":42,"time":171.89773,"velocity":0.7874015748031497},{"duration":0.1094889999999964,"midi":30,"time":172.116708,"velocity":0.7874015748031497},{"duration":0.1094889999999964,"midi":42,"time":172.33568599999998,"velocity":0.7874015748031497},{"duration":0.1094889999999964,"midi":30,"time":172.33568599999998,"velocity":0.7874015748031497},{"duration":0.4379559999999856,"midi":29,"time":172.99262,"velocity":0.7874015748031497},{"duration":0.2189779999999928,"midi":32,"time":172.99262,"velocity":0.7874015748031497},{"duration":0.1094889999999964,"midi":30,"time":173.32108699999998,"velocity":0.7874015748031497},{"duration":0.1094889999999964,"midi":30,"time":173.43057599999997,"velocity":0.7874015748031497},{"duration":0.1094889999999964,"midi":42,"time":173.43057599999997,"velocity":0.7874015748031497},{"duration":0.1094889999999964,"midi":30,"time":173.43057599999997,"velocity":0.7874015748031497},{"duration":0.2189779999999928,"midi":42,"time":173.649554,"velocity":0.7874015748031497},{"duration":0.4379559999999856,"midi":42,"time":173.868532,"velocity":0.7874015748031497},{"duration":0.4379559999999856,"midi":42,"time":173.868532,"velocity":0.7874015748031497},{"duration":0.4379559999999856,"midi":30,"time":173.868532,"velocity":0.7874015748031497},{"duration":0.4379559999999856,"midi":30,"time":173.868532,"velocity":0.7874015748031497},{"duration":0.4379559999999856,"midi":30,"time":174.744444,"velocity":0.7874015748031497},{"duration":0.4379559999999856,"midi":42,"time":174.744444,"velocity":0.7874015748031497},{"duration":0.1094889999999964,"midi":29,"time":174.744444,"velocity":0.7874015748031497},{"duration":0.1094889999999964,"midi":41,"time":174.96342199999998,"velocity":0.7874015748031497},{"duration":0.1094889999999964,"midi":30,"time":175.18239999999997,"velocity":0.7874015748031497},{"duration":0.1094889999999964,"midi":42,"time":175.18239999999997,"velocity":0.7874015748031497},{"duration":0.1094889999999964,"midi":30,"time":175.18239999999997,"velocity":0.7874015748031497},{"duration":0.1094889999999964,"midi":42,"time":175.401378,"velocity":0.7874015748031497},{"duration":0.1094889999999964,"midi":42,"time":175.401378,"velocity":0.7874015748031497},{"duration":0.1094889999999964,"midi":30,"time":175.401378,"velocity":0.7874015748031497},{"duration":0.1094889999999964,"midi":30,"time":175.620356,"velocity":0.7874015748031497},{"duration":0.1094889999999964,"midi":42,"time":175.620356,"velocity":0.7874015748031497},{"duration":0.4379559999999856,"midi":30,"time":175.620356,"velocity":0.7874015748031497},{"duration":0.4379559999999856,"midi":42,"time":175.620356,"velocity":0.7874015748031497},{"duration":0.1094889999999964,"midi":43,"time":176.05831199999997,"velocity":0.7874015748031497},{"duration":0.1094889999999964,"midi":31,"time":176.05831199999997,"velocity":0.7874015748031497},{"duration":0.1094889999999964,"midi":43,"time":176.27729,"velocity":0.7874015748031497},{"duration":0.4379559999999856,"midi":33,"time":176.496268,"velocity":0.7874015748031497},{"duration":0.4379559999999856,"midi":31,"time":176.496268,"velocity":0.7874015748031497},{"duration":0.4379559999999856,"midi":43,"time":176.496268,"velocity":0.7874015748031497},{"duration":0.4379559999999856,"midi":45,"time":176.496268,"velocity":0.7874015748031497},{"duration":0.1094889999999964,"midi":42,"time":176.93422399999997,"velocity":0.7874015748031497},{"duration":0.1094889999999964,"midi":42,"time":176.93422399999997,"velocity":0.7874015748031497},{"duration":0.1094889999999964,"midi":30,"time":176.93422399999997,"velocity":0.7874015748031497},{"duration":0.1094889999999964,"midi":30,"time":176.93422399999997,"velocity":0.7874015748031497},{"duration":0.1094889999999964,"midi":30,"time":177.153202,"velocity":0.7874015748031497},{"duration":0.1094889999999964,"midi":42,"time":177.153202,"velocity":0.7874015748031497},{"duration":0.1094889999999964,"midi":42,"time":177.153202,"velocity":0.7874015748031497},{"duration":0.1094889999999964,"midi":30,"time":177.153202,"velocity":0.7874015748031497},{"duration":0.4379559999999856,"midi":45,"time":177.37218,"velocity":0.7874015748031497},{"duration":0.4379559999999856,"midi":42,"time":177.37218,"velocity":0.7874015748031497},{"duration":0.4379559999999856,"midi":33,"time":177.37218,"velocity":0.7874015748031497},{"duration":0.4379559999999856,"midi":30,"time":177.37218,"velocity":0.7874015748031497},{"duration":0.1094889999999964,"midi":30,"time":178.24809199999999,"velocity":0.7874015748031497},{"duration":0.1094889999999964,"midi":31,"time":178.24809199999999,"velocity":0.7874015748031497},{"duration":0.1094889999999964,"midi":43,"time":178.24809199999999,"velocity":0.7874015748031497},{"duration":0.1094889999999964,"midi":42,"time":178.24809199999999,"velocity":0.7874015748031497},{"duration":0.1094889999999964,"midi":43,"time":178.46706999999998,"velocity":0.7874015748031497},{"duration":0.1094889999999964,"midi":31,"time":178.46706999999998,"velocity":0.7874015748031497},{"duration":0.1094889999999964,"midi":42,"time":178.57655899999997,"velocity":0.7874015748031497},{"duration":0.3284670000000176,"midi":42,"time":178.68604799999997,"velocity":0.7874015748031497},{"duration":0.437956000000014,"midi":42,"time":178.68604799999997,"velocity":0.7874015748031497},{"duration":0.437956000000014,"midi":30,"time":178.68604799999997,"velocity":0.7874015748031497},{"duration":0.4379559999999856,"midi":30,"time":179.12400399999999,"velocity":0.7874015748031497},{"duration":0.4379559999999856,"midi":42,"time":179.12400399999999,"velocity":0.7874015748031497},{"duration":0.4379559999999856,"midi":40,"time":179.12400399999999,"velocity":0.7874015748031497},{"duration":0.4379559999999856,"midi":28,"time":179.12400399999999,"velocity":0.7874015748031497},{"duration":0.4379559999999856,"midi":29,"time":179.99991599999998,"velocity":0.7874015748031497},{"duration":0.4379559999999856,"midi":37,"time":179.99991599999998,"velocity":0.7874015748031497},{"duration":0.1094889999999964,"midi":26,"time":180.21889399999998,"velocity":0.7874015748031497},{"duration":0.1094889999999964,"midi":38,"time":180.21889399999998,"velocity":0.7874015748031497},{"duration":0.1094889999999964,"midi":30,"time":180.87582799999998,"velocity":0.7874015748031497},{"duration":0.1094889999999964,"midi":42,"time":180.87582799999998,"velocity":0.7874015748031497},{"duration":0.1094889999999964,"midi":26,"time":180.87582799999998,"velocity":0.7874015748031497},{"duration":0.2189779999999928,"midi":40,"time":181.09480599999998,"velocity":0.7874015748031497},{"duration":0.2189779999999928,"midi":28,"time":181.09480599999998,"velocity":0.7874015748031497},{"duration":0.1094889999999964,"midi":43,"time":181.09480599999998,"velocity":0.7874015748031497},{"duration":0.1094889999999964,"midi":42,"time":181.532762,"velocity":0.7874015748031497},{"duration":0.1094889999999964,"midi":32,"time":181.532762,"velocity":0.7874015748031497},{"duration":0.1094889999999964,"midi":32,"time":181.642251,"velocity":0.7874015748031497},{"duration":0.4379559999999856,"midi":33,"time":181.75173999999998,"velocity":0.7874015748031497},{"duration":0.3284669999999892,"midi":30,"time":181.75173999999998,"velocity":0.7874015748031497},{"duration":0.4379559999999856,"midi":45,"time":181.75173999999998,"velocity":0.7874015748031497},{"duration":0.2189780000000212,"midi":30,"time":182.18969599999997,"velocity":0.7874015748031497},{"duration":0.2189780000000212,"midi":42,"time":182.18969599999997,"velocity":0.7874015748031497},{"duration":0.3284669999999892,"midi":38,"time":182.62765199999998,"velocity":0.7874015748031497},{"duration":0.1094889999999964,"midi":30,"time":182.62765199999998,"velocity":0.7874015748031497},{"duration":0.2189779999999928,"midi":30,"time":182.62765199999998,"velocity":0.7874015748031497},{"duration":0.2189779999999928,"midi":30,"time":182.73714099999998,"velocity":0.7874015748031497},{"duration":0.2189779999999928,"midi":42,"time":182.84662999999998,"velocity":0.7874015748031497},{"duration":0.2189779999999928,"midi":30,"time":182.84662999999998,"velocity":0.7874015748031497},{"duration":0.10948900000002482,"midi":30,"time":183.06560799999997,"velocity":0.7874015748031497},{"duration":0.1094889999999964,"midi":42,"time":183.284586,"velocity":0.7874015748031497},{"duration":0.1094889999999964,"midi":30,"time":183.284586,"velocity":0.7874015748031497},{"duration":0.3284669999999892,"midi":38,"time":183.50356399999998,"velocity":0.7874015748031497},{"duration":0.3284669999999892,"midi":30,"time":183.50356399999998,"velocity":0.7874015748031497},{"duration":0.10948900000002482,"midi":42,"time":183.94151999999997,"velocity":0.7874015748031497},{"duration":0.2189780000000212,"midi":42,"time":183.94151999999997,"velocity":0.7874015748031497},{"duration":0.10948900000002482,"midi":30,"time":183.94151999999997,"velocity":0.7874015748031497},{"duration":0.2189780000000212,"midi":30,"time":183.94151999999997,"velocity":0.7874015748031497},{"duration":0.1094889999999964,"midi":30,"time":184.160498,"velocity":0.7874015748031497},{"duration":0.1094889999999964,"midi":42,"time":184.160498,"velocity":0.7874015748031497},{"duration":0.1094889999999964,"midi":31,"time":184.59845399999998,"velocity":0.7874015748031497},{"duration":0.1094889999999964,"midi":43,"time":184.59845399999998,"velocity":0.7874015748031497},{"duration":0.1094889999999964,"midi":30,"time":184.59845399999998,"velocity":0.7874015748031497},{"duration":0.10948900000002482,"midi":30,"time":184.81743199999997,"velocity":0.7874015748031497},{"duration":0.10948900000002482,"midi":38,"time":184.81743199999997,"velocity":0.7874015748031497},{"duration":0.10948900000002482,"midi":26,"time":184.81743199999997,"velocity":0.7874015748031497},{"duration":0.1094889999999964,"midi":30,"time":185.03641,"velocity":0.7874015748031497},{"duration":0.1094889999999964,"midi":43,"time":185.03641,"velocity":0.7874015748031497},{"duration":0.1094889999999964,"midi":30,"time":185.145899,"velocity":0.7874015748031497},{"duration":0.4379559999999856,"midi":30,"time":185.25538799999998,"velocity":0.7874015748031497},{"duration":0.1094889999999964,"midi":31,"time":185.25538799999998,"velocity":0.7874015748031497},{"duration":0.1094889999999964,"midi":43,"time":185.25538799999998,"velocity":0.7874015748031497},{"duration":0.4379559999999856,"midi":42,"time":185.25538799999998,"velocity":0.7874015748031497},{"duration":0.1094889999999964,"midi":31,"time":185.47436599999997,"velocity":0.7874015748031497},{"duration":0.1094889999999964,"midi":43,"time":185.47436599999997,"velocity":0.7874015748031497},{"duration":0.10948900000002482,"midi":42,"time":185.69334399999997,"velocity":0.7874015748031497},{"duration":0.1094889999999964,"midi":42,"time":185.912322,"velocity":0.7874015748031497},{"duration":0.1094889999999964,"midi":42,"time":186.02181099999999,"velocity":0.7874015748031497},{"duration":0.4379559999999856,"midi":41,"time":186.13129999999998,"velocity":0.7874015748031497},{"duration":0.2189779999999928,"midi":30,"time":186.13129999999998,"velocity":0.7874015748031497},{"duration":0.2189779999999928,"midi":42,"time":186.13129999999998,"velocity":0.7874015748031497},{"duration":0.10948900000002482,"midi":42,"time":186.56925599999997,"velocity":0.7874015748031497},{"duration":0.1094889999999964,"midi":41,"time":187.00721199999998,"velocity":0.7874015748031497},{"duration":0.1094889999999964,"midi":41,"time":187.11670099999998,"velocity":0.7874015748031497},{"duration":0.1094889999999964,"midi":41,"time":187.22618999999997,"velocity":0.7874015748031497},{"duration":0.10948900000002482,"midi":41,"time":187.33567899999997,"velocity":0.7874015748031497},{"duration":0.2189779999999928,"midi":30,"time":187.445168,"velocity":0.7874015748031497},{"duration":0.2189779999999928,"midi":42,"time":187.445168,"velocity":0.7874015748031497},{"duration":0.1094889999999964,"midi":30,"time":187.664146,"velocity":0.7874015748031497},{"duration":0.1094889999999964,"midi":42,"time":187.664146,"velocity":0.7874015748031497},{"duration":0.1094889999999964,"midi":42,"time":187.77363499999998,"velocity":0.7874015748031497},{"duration":0.1094889999999964,"midi":30,"time":187.77363499999998,"velocity":0.7874015748031497},{"duration":0.1094889999999964,"midi":33,"time":187.88312399999998,"velocity":0.7874015748031497},{"duration":0.1094889999999964,"midi":45,"time":187.88312399999998,"velocity":0.7874015748031497},{"duration":0.437956000000014,"midi":42,"time":187.88312399999998,"velocity":0.7874015748031497},{"duration":0.437956000000014,"midi":30,"time":187.88312399999998,"velocity":0.7874015748031497},{"duration":0.1094889999999964,"midi":45,"time":187.99261299999998,"velocity":0.7874015748031497},{"duration":0.10948900000002482,"midi":33,"time":188.21159099999997,"velocity":0.7874015748031497},{"duration":0.1094889999999964,"midi":42,"time":188.32108,"velocity":0.7874015748031497},{"duration":0.1094889999999964,"midi":42,"time":188.540058,"velocity":0.7874015748031497},{"duration":0.437956000000014,"midi":30,"time":188.75903599999998,"velocity":0.7874015748031497},{"duration":0.437956000000014,"midi":42,"time":188.75903599999998,"velocity":0.7874015748031497},{"duration":0.2189779999999928,"midi":42,"time":189.196992,"velocity":0.7874015748031497},{"duration":0.2189779999999928,"midi":30,"time":189.196992,"velocity":0.7874015748031497},{"duration":0.1094889999999964,"midi":42,"time":189.63494799999998,"velocity":0.7874015748031497},{"duration":0.437956000000014,"midi":42,"time":189.63494799999998,"velocity":0.7874015748031497},{"duration":0.437956000000014,"midi":30,"time":189.63494799999998,"velocity":0.7874015748031497},{"duration":0.1094889999999964,"midi":30,"time":190.072904,"velocity":0.7874015748031497},{"duration":0.2189779999999928,"midi":43,"time":190.072904,"velocity":0.7874015748031497},{"duration":0.1094889999999964,"midi":42,"time":190.072904,"velocity":0.7874015748031497},{"duration":0.1094889999999964,"midi":38,"time":190.291882,"velocity":0.7874015748031497},{"duration":0.437956000000014,"midi":31,"time":190.51085999999998,"velocity":0.7874015748031497},{"duration":0.437956000000014,"midi":43,"time":190.51085999999998,"velocity":0.7874015748031497},{"duration":0.10948900000002482,"midi":49,"time":190.83932699999997,"velocity":0.7874015748031497},{"duration":0.1094889999999964,"midi":30,"time":190.948816,"velocity":0.7874015748031497},{"duration":0.1094889999999964,"midi":42,"time":190.948816,"velocity":0.7874015748031497},{"duration":0.1094889999999964,"midi":42,"time":191.167794,"velocity":0.7874015748031497},{"duration":0.1094889999999964,"midi":30,"time":191.167794,"velocity":0.7874015748031497},{"duration":0.2189779999999928,"midi":30,"time":191.38677199999998,"velocity":0.7874015748031497},{"duration":0.2189779999999928,"midi":42,"time":191.38677199999998,"velocity":0.7874015748031497},{"duration":0.437956000000014,"midi":30,"time":191.38677199999998,"velocity":0.7874015748031497},{"duration":0.437956000000014,"midi":42,"time":191.38677199999998,"velocity":0.7874015748031497},{"duration":0.1094889999999964,"midi":30,"time":192.26268399999998,"velocity":0.7874015748031497},{"duration":0.2189779999999928,"midi":31,"time":192.26268399999998,"velocity":0.7874015748031497},{"duration":0.1094889999999964,"midi":42,"time":192.26268399999998,"velocity":0.7874015748031497},{"duration":0.2189779999999928,"midi":43,"time":192.26268399999998,"velocity":0.7874015748031497},{"duration":0.10948900000002482,"midi":42,"time":192.59115099999997,"velocity":0.7874015748031497},{"duration":0.3284669999999892,"midi":42,"time":192.70064,"velocity":0.7874015748031497},{"duration":0.2189779999999928,"midi":32,"time":192.70064,"velocity":0.7874015748031497},{"duration":0.2189779999999928,"midi":44,"time":192.70064,"velocity":0.7874015748031497},{"duration":0.437956000000014,"midi":40,"time":193.13859599999998,"velocity":0.7874015748031497},{"duration":0.3284669999999892,"midi":33,"time":193.13859599999998,"velocity":0.7874015748031497},{"duration":0.3284669999999892,"midi":45,"time":193.13859599999998,"velocity":0.7874015748031497},{"duration":0.437956000000014,"midi":28,"time":193.13859599999998,"velocity":0.7874015748031497},{"duration":0.437956000000014,"midi":37,"time":194.01450799999998,"velocity":0.7874015748031497},{"duration":0.437956000000014,"midi":29,"time":194.01450799999998,"velocity":0.7874015748031497},{"duration":0.10948900000002482,"midi":37,"time":194.34297499999997,"velocity":0.7874015748031497},{"duration":1.7518239999999992,"midi":30,"time":194.452464,"velocity":0.7874015748031497}]},{"instrument":{"family":"drums","number":0,"name":"standard kit"},"notes":[{"duration":0.10948899999999995,"midi":87,"time":14.014591999999999,"velocity":0.31496062992125984},{"duration":0.10948899999999995,"midi":79,"time":14.014591999999999,"velocity":0.31496062992125984},{"duration":0.10948899999999995,"midi":58,"time":14.014591999999999,"velocity":0.31496062992125984},{"duration":0.10948899999999995,"midi":79,"time":14.124080999999999,"velocity":0.31496062992125984},{"duration":0.10948899999999995,"midi":87,"time":14.124080999999999,"velocity":0.31496062992125984},{"duration":0.10948899999999995,"midi":58,"time":14.124080999999999,"velocity":0.31496062992125984},{"duration":0.10948899999999995,"midi":58,"time":14.671525999999998,"velocity":0.31496062992125984},{"duration":0.10948899999999995,"midi":87,"time":14.671525999999998,"velocity":0.31496062992125984},{"duration":0.10948899999999995,"midi":79,"time":14.671525999999998,"velocity":0.31496062992125984},{"duration":0.10948899999999995,"midi":79,"time":14.781014999999998,"velocity":0.31496062992125984},{"duration":0.10948899999999995,"midi":58,"time":14.781014999999998,"velocity":0.31496062992125984},{"duration":0.10948899999999995,"midi":87,"time":14.781014999999998,"velocity":0.31496062992125984},{"duration":0.10948899999999995,"midi":58,"time":15.328459999999998,"velocity":0.31496062992125984},{"duration":0.10948899999999995,"midi":79,"time":15.328459999999998,"velocity":0.31496062992125984},{"duration":0.10948899999999995,"midi":87,"time":15.328459999999998,"velocity":0.31496062992125984},{"duration":0.10948899999999995,"midi":79,"time":15.437948999999998,"velocity":0.31496062992125984},{"duration":0.10948899999999995,"midi":87,"time":15.437948999999998,"velocity":0.31496062992125984},{"duration":0.10948899999999995,"midi":58,"time":15.437948999999998,"velocity":0.31496062992125984},{"duration":0.10948899999999995,"midi":87,"time":15.766415999999998,"velocity":0.31496062992125984},{"duration":0.10948899999999995,"midi":79,"time":15.766415999999998,"velocity":0.31496062992125984},{"duration":0.10948899999999995,"midi":58,"time":15.766415999999998,"velocity":0.31496062992125984},{"duration":0.10948899999999995,"midi":58,"time":15.875904999999998,"velocity":0.31496062992125984},{"duration":0.10948899999999995,"midi":79,"time":15.875904999999998,"velocity":0.31496062992125984},{"duration":0.10948899999999995,"midi":87,"time":15.875904999999998,"velocity":0.31496062992125984},{"duration":0.10948899999999995,"midi":79,"time":16.42335,"velocity":0.31496062992125984},{"duration":0.10948899999999995,"midi":87,"time":16.42335,"velocity":0.31496062992125984},{"duration":0.10948899999999995,"midi":58,"time":16.42335,"velocity":0.31496062992125984},{"duration":0.10948899999999995,"midi":87,"time":16.532839,"velocity":0.31496062992125984},{"duration":0.10948899999999995,"midi":79,"time":16.532839,"velocity":0.31496062992125984},{"duration":0.10948899999999995,"midi":58,"time":16.532839,"velocity":0.31496062992125984},{"duration":0.10948899999999995,"midi":79,"time":17.080284,"velocity":0.31496062992125984},{"duration":0.10948899999999995,"midi":87,"time":17.080284,"velocity":0.31496062992125984},{"duration":0.10948899999999995,"midi":58,"time":17.080284,"velocity":0.31496062992125984},{"duration":0.10948899999999995,"midi":87,"time":17.189773,"velocity":0.31496062992125984},{"duration":0.10948899999999995,"midi":58,"time":17.189773,"velocity":0.31496062992125984},{"duration":0.10948899999999995,"midi":79,"time":17.189773,"velocity":0.31496062992125984},{"duration":0.10948899999999995,"midi":87,"time":17.51824,"velocity":0.31496062992125984},{"duration":0.10948899999999995,"midi":58,"time":17.51824,"velocity":0.31496062992125984},{"duration":0.10948899999999995,"midi":79,"time":17.51824,"velocity":0.31496062992125984},{"duration":0.10948899999999995,"midi":79,"time":17.627729,"velocity":0.31496062992125984},{"duration":0.10948899999999995,"midi":87,"time":17.627729,"velocity":0.31496062992125984},{"duration":0.10948899999999995,"midi":58,"time":17.627729,"velocity":0.31496062992125984},{"duration":0.10948899999999995,"midi":79,"time":18.175174,"velocity":0.31496062992125984},{"duration":0.10948899999999995,"midi":58,"time":18.175174,"velocity":0.31496062992125984},{"duration":0.10948899999999995,"midi":87,"time":18.175174,"velocity":0.31496062992125984},{"duration":0.10948899999999995,"midi":58,"time":18.284663,"velocity":0.31496062992125984},{"duration":0.10948899999999995,"midi":79,"time":18.284663,"velocity":0.31496062992125984},{"duration":0.10948899999999995,"midi":87,"time":18.284663,"velocity":0.31496062992125984},{"duration":0.10948899999999995,"midi":87,"time":18.832107999999998,"velocity":0.31496062992125984},{"duration":0.10948899999999995,"midi":58,"time":18.832107999999998,"velocity":0.31496062992125984},{"duration":0.10948899999999995,"midi":79,"time":18.832107999999998,"velocity":0.31496062992125984},{"duration":0.10948899999999995,"midi":87,"time":18.941596999999998,"velocity":0.31496062992125984},{"duration":0.10948899999999995,"midi":79,"time":18.941596999999998,"velocity":0.31496062992125984},{"duration":0.10948899999999995,"midi":58,"time":18.941596999999998,"velocity":0.31496062992125984},{"duration":0.10948899999999995,"midi":87,"time":19.270063999999998,"velocity":0.31496062992125984},{"duration":0.10948899999999995,"midi":79,"time":19.270063999999998,"velocity":0.31496062992125984},{"duration":0.10948899999999995,"midi":58,"time":19.270063999999998,"velocity":0.31496062992125984},{"duration":0.10948899999999995,"midi":87,"time":19.379552999999998,"velocity":0.31496062992125984},{"duration":0.10948899999999995,"midi":79,"time":19.379552999999998,"velocity":0.31496062992125984},{"duration":0.10948899999999995,"midi":58,"time":19.379552999999998,"velocity":0.31496062992125984},{"duration":0.10948899999999995,"midi":87,"time":19.926997999999998,"velocity":0.31496062992125984},{"duration":0.10948899999999995,"midi":58,"time":19.926997999999998,"velocity":0.31496062992125984},{"duration":0.10948899999999995,"midi":79,"time":19.926997999999998,"velocity":0.31496062992125984},{"duration":0.10948899999999995,"midi":79,"time":20.036486999999997,"velocity":0.31496062992125984},{"duration":0.10948899999999995,"midi":58,"time":20.036486999999997,"velocity":0.31496062992125984},{"duration":0.10948899999999995,"midi":87,"time":20.036486999999997,"velocity":0.31496062992125984},{"duration":0.10948899999999995,"midi":79,"time":20.583931999999997,"velocity":0.31496062992125984},{"duration":0.10948899999999995,"midi":58,"time":20.583931999999997,"velocity":0.31496062992125984},{"duration":0.10948899999999995,"midi":87,"time":20.583931999999997,"velocity":0.31496062992125984},{"duration":0.10948899999999995,"midi":58,"time":20.693420999999997,"velocity":0.31496062992125984},{"duration":0.10948899999999995,"midi":87,"time":20.693420999999997,"velocity":0.31496062992125984},{"duration":0.10948899999999995,"midi":79,"time":20.693420999999997,"velocity":0.31496062992125984},{"duration":0.10948899999999995,"midi":79,"time":21.021887999999997,"velocity":0.31496062992125984},{"duration":0.10948899999999995,"midi":58,"time":21.021887999999997,"velocity":0.31496062992125984},{"duration":0.10948899999999995,"midi":87,"time":21.021887999999997,"velocity":0.31496062992125984},{"duration":0.10948899999999995,"midi":79,"time":21.131376999999997,"velocity":0.31496062992125984},{"duration":0.10948899999999995,"midi":58,"time":21.131376999999997,"velocity":0.31496062992125984},{"duration":0.10948899999999995,"midi":87,"time":21.131376999999997,"velocity":0.31496062992125984},{"duration":0.10948899999999995,"midi":58,"time":21.678821999999997,"velocity":0.31496062992125984},{"duration":0.10948899999999995,"midi":87,"time":21.678821999999997,"velocity":0.31496062992125984},{"duration":0.10948899999999995,"midi":79,"time":21.678821999999997,"velocity":0.31496062992125984},{"duration":0.10948899999999995,"midi":87,"time":21.788310999999997,"velocity":0.31496062992125984},{"duration":0.10948899999999995,"midi":79,"time":21.788310999999997,"velocity":0.31496062992125984},{"duration":0.10948899999999995,"midi":58,"time":21.788310999999997,"velocity":0.31496062992125984},{"duration":0.10948899999999995,"midi":79,"time":22.335755999999996,"velocity":0.31496062992125984},{"duration":0.10948899999999995,"midi":58,"time":22.335755999999996,"velocity":0.31496062992125984},{"duration":0.10948899999999995,"midi":87,"time":22.335755999999996,"velocity":0.31496062992125984},{"duration":0.10948899999999995,"midi":87,"time":22.445244999999996,"velocity":0.31496062992125984},{"duration":0.10948899999999995,"midi":58,"time":22.445244999999996,"velocity":0.31496062992125984},{"duration":0.10948899999999995,"midi":79,"time":22.445244999999996,"velocity":0.31496062992125984},{"duration":0.10948899999999995,"midi":87,"time":22.773711999999996,"velocity":0.31496062992125984},{"duration":0.10948899999999995,"midi":79,"time":22.773711999999996,"velocity":0.31496062992125984},{"duration":0.10948899999999995,"midi":58,"time":22.773711999999996,"velocity":0.31496062992125984},{"duration":0.10948899999999995,"midi":58,"time":22.883200999999996,"velocity":0.31496062992125984},{"duration":0.10948899999999995,"midi":79,"time":22.883200999999996,"velocity":0.31496062992125984},{"duration":0.10948899999999995,"midi":87,"time":22.883200999999996,"velocity":0.31496062992125984},{"duration":0.10948899999999995,"midi":58,"time":23.430646,"velocity":0.31496062992125984},{"duration":0.10948899999999995,"midi":87,"time":23.430646,"velocity":0.31496062992125984},{"duration":0.10948899999999995,"midi":79,"time":23.430646,"velocity":0.31496062992125984},{"duration":0.10948899999999995,"midi":58,"time":23.540135,"velocity":0.31496062992125984},{"duration":0.10948899999999995,"midi":79,"time":23.540135,"velocity":0.31496062992125984},{"duration":0.10948899999999995,"midi":87,"time":23.540135,"velocity":0.31496062992125984},{"duration":0.10948899999999995,"midi":87,"time":24.08758,"velocity":0.31496062992125984},{"duration":0.10948899999999995,"midi":79,"time":24.08758,"velocity":0.31496062992125984},{"duration":0.10948899999999995,"midi":58,"time":24.08758,"velocity":0.31496062992125984},{"duration":0.10948899999999995,"midi":87,"time":24.197069,"velocity":0.31496062992125984},{"duration":0.10948899999999995,"midi":79,"time":24.197069,"velocity":0.31496062992125984},{"duration":0.10948899999999995,"midi":58,"time":24.197069,"velocity":0.31496062992125984},{"duration":0.10948899999999995,"midi":58,"time":24.525536,"velocity":0.31496062992125984},{"duration":0.10948899999999995,"midi":79,"time":24.525536,"velocity":0.31496062992125984},{"duration":0.10948899999999995,"midi":87,"time":24.525536,"velocity":0.31496062992125984},{"duration":0.10948899999999995,"midi":58,"time":24.635025,"velocity":0.31496062992125984},{"duration":0.10948899999999995,"midi":79,"time":24.635025,"velocity":0.31496062992125984},{"duration":0.10948899999999995,"midi":87,"time":24.635025,"velocity":0.31496062992125984},{"duration":0.10948899999999995,"midi":58,"time":25.18247,"velocity":0.31496062992125984},{"duration":0.10948899999999995,"midi":87,"time":25.18247,"velocity":0.31496062992125984},{"duration":0.10948899999999995,"midi":79,"time":25.18247,"velocity":0.31496062992125984},{"duration":0.10948899999999995,"midi":79,"time":25.291959,"velocity":0.31496062992125984},{"duration":0.10948899999999995,"midi":58,"time":25.291959,"velocity":0.31496062992125984},{"duration":0.10948899999999995,"midi":87,"time":25.291959,"velocity":0.31496062992125984},{"duration":0.10948899999999995,"midi":58,"time":25.839404,"velocity":0.31496062992125984},{"duration":0.10948899999999995,"midi":79,"time":25.839404,"velocity":0.31496062992125984},{"duration":0.10948899999999995,"midi":87,"time":25.839404,"velocity":0.31496062992125984},{"duration":0.10948899999999995,"midi":87,"time":25.948892999999998,"velocity":0.31496062992125984},{"duration":0.10948899999999995,"midi":58,"time":25.948892999999998,"velocity":0.31496062992125984},{"duration":0.10948899999999995,"midi":79,"time":25.948892999999998,"velocity":0.31496062992125984},{"duration":0.10948899999999995,"midi":58,"time":26.277359999999998,"velocity":0.31496062992125984},{"duration":0.10948899999999995,"midi":79,"time":26.277359999999998,"velocity":0.31496062992125984},{"duration":0.10948899999999995,"midi":87,"time":26.277359999999998,"velocity":0.31496062992125984},{"duration":0.10948899999999995,"midi":58,"time":26.386848999999998,"velocity":0.31496062992125984},{"duration":0.10948899999999995,"midi":79,"time":26.386848999999998,"velocity":0.31496062992125984},{"duration":0.10948899999999995,"midi":87,"time":26.386848999999998,"velocity":0.31496062992125984},{"duration":0.10948899999999995,"midi":79,"time":26.934293999999998,"velocity":0.31496062992125984},{"duration":0.10948899999999995,"midi":87,"time":26.934293999999998,"velocity":0.31496062992125984},{"duration":0.10948899999999995,"midi":58,"time":26.934293999999998,"velocity":0.31496062992125984},{"duration":0.10948899999999995,"midi":58,"time":27.043782999999998,"velocity":0.31496062992125984},{"duration":0.10948899999999995,"midi":87,"time":27.043782999999998,"velocity":0.31496062992125984},{"duration":0.10948899999999995,"midi":79,"time":27.043782999999998,"velocity":0.31496062992125984},{"duration":0.10948899999999995,"midi":79,"time":27.591227999999997,"velocity":0.31496062992125984},{"duration":0.10948899999999995,"midi":58,"time":27.591227999999997,"velocity":0.31496062992125984},{"duration":0.10948899999999995,"midi":87,"time":27.591227999999997,"velocity":0.31496062992125984},{"duration":0.10948899999999995,"midi":87,"time":27.700716999999997,"velocity":0.31496062992125984},{"duration":0.10948899999999995,"midi":58,"time":27.700716999999997,"velocity":0.31496062992125984},{"duration":0.10948899999999995,"midi":79,"time":27.700716999999997,"velocity":0.31496062992125984},{"duration":0.10948899999999995,"midi":87,"time":28.029183999999997,"velocity":0.31496062992125984},{"duration":0.10948899999999995,"midi":79,"time":28.029183999999997,"velocity":0.31496062992125984},{"duration":0.10948899999999995,"midi":58,"time":28.029183999999997,"velocity":0.31496062992125984},{"duration":0.10948899999999995,"midi":87,"time":28.138672999999997,"velocity":0.31496062992125984},{"duration":0.10948899999999995,"midi":58,"time":28.138672999999997,"velocity":0.31496062992125984},{"duration":0.10948899999999995,"midi":79,"time":28.138672999999997,"velocity":0.31496062992125984},{"duration":0.10948899999999995,"midi":87,"time":28.248161999999997,"velocity":0.31496062992125984},{"duration":0.10948899999999995,"midi":79,"time":28.248161999999997,"velocity":0.31496062992125984},{"duration":0.10948899999999995,"midi":58,"time":28.248161999999997,"velocity":0.31496062992125984},{"duration":0.10948899999999995,"midi":87,"time":28.357650999999997,"velocity":0.31496062992125984},{"duration":0.10948899999999995,"midi":79,"time":28.357650999999997,"velocity":0.31496062992125984},{"duration":0.10948899999999995,"midi":58,"time":28.357650999999997,"velocity":0.31496062992125984},{"duration":0.10948899999999995,"midi":58,"time":28.467139999999997,"velocity":0.31496062992125984},{"duration":0.10948899999999995,"midi":87,"time":28.467139999999997,"velocity":0.31496062992125984},{"duration":0.10948899999999995,"midi":79,"time":28.467139999999997,"velocity":0.31496062992125984},{"duration":0.10948899999999995,"midi":79,"time":28.576628999999997,"velocity":0.31496062992125984},{"duration":0.10948899999999995,"midi":58,"time":28.576628999999997,"velocity":0.31496062992125984},{"duration":0.10948899999999995,"midi":87,"time":28.576628999999997,"velocity":0.31496062992125984},{"duration":0.10948899999999995,"midi":79,"time":28.686117999999997,"velocity":0.31496062992125984},{"duration":0.10948899999999995,"midi":58,"time":28.686117999999997,"velocity":0.31496062992125984},{"duration":0.10948899999999995,"midi":87,"time":28.686117999999997,"velocity":0.31496062992125984},{"duration":0.10948899999999995,"midi":87,"time":28.795606999999997,"velocity":0.31496062992125984},{"duration":0.10948899999999995,"midi":79,"time":28.795606999999997,"velocity":0.31496062992125984},{"duration":0.10948899999999995,"midi":58,"time":28.795606999999997,"velocity":0.31496062992125984},{"duration":0.10948899999999995,"midi":79,"time":28.905095999999997,"velocity":0.31496062992125984},{"duration":0.10948899999999995,"midi":58,"time":28.905095999999997,"velocity":0.31496062992125984},{"duration":0.10948899999999995,"midi":87,"time":28.905095999999997,"velocity":0.31496062992125984},{"duration":0.10948899999999995,"midi":79,"time":29.014584999999997,"velocity":0.31496062992125984},{"duration":0.10948899999999995,"midi":87,"time":29.014584999999997,"velocity":0.31496062992125984},{"duration":0.10948899999999995,"midi":58,"time":29.014584999999997,"velocity":0.31496062992125984},{"duration":0.10948899999999995,"midi":58,"time":29.124073999999997,"velocity":0.31496062992125984},{"duration":0.10948899999999995,"midi":87,"time":29.124073999999997,"velocity":0.31496062992125984},{"duration":0.10948899999999995,"midi":79,"time":29.124073999999997,"velocity":0.31496062992125984},{"duration":0.10948899999999995,"midi":87,"time":29.233562999999997,"velocity":0.31496062992125984},{"duration":0.10948899999999995,"midi":58,"time":29.233562999999997,"velocity":0.31496062992125984},{"duration":0.10948899999999995,"midi":79,"time":29.233562999999997,"velocity":0.31496062992125984},{"duration":0.10948899999999995,"midi":58,"time":29.343051999999997,"velocity":0.31496062992125984},{"duration":0.10948899999999995,"midi":87,"time":29.343051999999997,"velocity":0.31496062992125984},{"duration":0.10948899999999995,"midi":79,"time":29.343051999999997,"velocity":0.31496062992125984},{"duration":0.10948899999999995,"midi":87,"time":29.452540999999997,"velocity":0.31496062992125984},{"duration":0.10948899999999995,"midi":79,"time":29.452540999999997,"velocity":0.31496062992125984},{"duration":0.10948899999999995,"midi":58,"time":29.452540999999997,"velocity":0.31496062992125984},{"duration":0.10948899999999995,"midi":58,"time":29.562029999999996,"velocity":0.31496062992125984},{"duration":0.10948899999999995,"midi":79,"time":29.562029999999996,"velocity":0.31496062992125984},{"duration":0.10948899999999995,"midi":87,"time":29.562029999999996,"velocity":0.31496062992125984},{"duration":0.10948899999999995,"midi":79,"time":29.671518999999996,"velocity":0.31496062992125984},{"duration":0.10948899999999995,"midi":58,"time":29.671518999999996,"velocity":0.31496062992125984},{"duration":0.10948899999999995,"midi":87,"time":29.671518999999996,"velocity":0.31496062992125984},{"duration":0.10948899999999995,"midi":87,"time":29.781007999999996,"velocity":0.31496062992125984},{"duration":0.10948899999999995,"midi":79,"time":29.781007999999996,"velocity":0.31496062992125984},{"duration":0.10948899999999995,"midi":58,"time":29.781007999999996,"velocity":0.31496062992125984},{"duration":0.10948899999999995,"midi":58,"time":29.890496999999996,"velocity":0.31496062992125984},{"duration":0.10948899999999995,"midi":87,"time":29.890496999999996,"velocity":0.31496062992125984},{"duration":0.10948899999999995,"midi":79,"time":29.890496999999996,"velocity":0.31496062992125984},{"duration":0.10948899999999995,"midi":87,"time":29.999985999999996,"velocity":0.31496062992125984},{"duration":0.10948899999999995,"midi":79,"time":29.999985999999996,"velocity":0.31496062992125984},{"duration":0.10948899999999995,"midi":58,"time":29.999985999999996,"velocity":0.31496062992125984},{"duration":0.10948899999999995,"midi":58,"time":30.109474999999996,"velocity":0.31496062992125984},{"duration":0.10948899999999995,"midi":79,"time":30.109474999999996,"velocity":0.31496062992125984},{"duration":0.10948899999999995,"midi":87,"time":30.109474999999996,"velocity":0.31496062992125984},{"duration":0.10948899999999995,"midi":58,"time":30.218963999999996,"velocity":0.31496062992125984},{"duration":0.10948899999999995,"midi":87,"time":30.218963999999996,"velocity":0.31496062992125984},{"duration":0.10948899999999995,"midi":79,"time":30.218963999999996,"velocity":0.31496062992125984},{"duration":0.10948899999999995,"midi":79,"time":30.328452999999996,"velocity":0.31496062992125984},{"duration":0.10948899999999995,"midi":58,"time":30.328452999999996,"velocity":0.31496062992125984},{"duration":0.10948899999999995,"midi":87,"time":30.328452999999996,"velocity":0.31496062992125984},{"duration":0.10948899999999995,"midi":87,"time":30.437941999999996,"velocity":0.31496062992125984},{"duration":0.10948899999999995,"midi":79,"time":30.437941999999996,"velocity":0.31496062992125984},{"duration":0.10948899999999995,"midi":58,"time":30.437941999999996,"velocity":0.31496062992125984},{"duration":0.10948899999999995,"midi":87,"time":30.547430999999996,"velocity":0.31496062992125984},{"duration":0.10948899999999995,"midi":79,"time":30.547430999999996,"velocity":0.31496062992125984},{"duration":0.10948899999999995,"midi":58,"time":30.547430999999996,"velocity":0.31496062992125984},{"duration":0.10948899999999995,"midi":79,"time":30.656919999999996,"velocity":0.31496062992125984},{"duration":0.10948899999999995,"midi":58,"time":30.656919999999996,"velocity":0.31496062992125984},{"duration":0.10948899999999995,"midi":87,"time":30.656919999999996,"velocity":0.31496062992125984},{"duration":0.10948899999999995,"midi":79,"time":30.766408999999996,"velocity":0.31496062992125984},{"duration":0.10948899999999995,"midi":58,"time":30.766408999999996,"velocity":0.31496062992125984},{"duration":0.10948899999999995,"midi":87,"time":30.766408999999996,"velocity":0.31496062992125984},{"duration":0.10948899999999995,"midi":79,"time":30.875897999999996,"velocity":0.31496062992125984},{"duration":0.10948899999999995,"midi":58,"time":30.875897999999996,"velocity":0.31496062992125984},{"duration":0.10948899999999995,"midi":87,"time":30.875897999999996,"velocity":0.31496062992125984},{"duration":0.10948899999999995,"midi":58,"time":30.985386999999996,"velocity":0.31496062992125984},{"duration":0.10948899999999995,"midi":87,"time":30.985386999999996,"velocity":0.31496062992125984},{"duration":0.10948899999999995,"midi":79,"time":30.985386999999996,"velocity":0.31496062992125984},{"duration":0.10948899999999995,"midi":87,"time":31.094875999999996,"velocity":0.31496062992125984},{"duration":0.10948899999999995,"midi":79,"time":31.094875999999996,"velocity":0.31496062992125984},{"duration":0.10948899999999995,"midi":58,"time":31.094875999999996,"velocity":0.31496062992125984},{"duration":0.10948899999999995,"midi":58,"time":31.204364999999996,"velocity":0.31496062992125984},{"duration":0.10948899999999995,"midi":79,"time":31.204364999999996,"velocity":0.31496062992125984},{"duration":0.10948899999999995,"midi":87,"time":31.204364999999996,"velocity":0.31496062992125984},{"duration":0.10948899999999995,"midi":58,"time":31.313853999999996,"velocity":0.31496062992125984},{"duration":0.10948899999999995,"midi":87,"time":31.313853999999996,"velocity":0.31496062992125984},{"duration":0.10948899999999995,"midi":79,"time":31.313853999999996,"velocity":0.31496062992125984},{"duration":0.10948899999999995,"midi":58,"time":31.423342999999996,"velocity":0.31496062992125984},{"duration":0.10948899999999995,"midi":87,"time":31.423342999999996,"velocity":0.31496062992125984},{"duration":0.10948899999999995,"midi":79,"time":31.423342999999996,"velocity":0.31496062992125984},{"duration":0.10948899999999995,"midi":79,"time":31.532831999999996,"velocity":0.31496062992125984},{"duration":0.10948899999999995,"midi":87,"time":31.532831999999996,"velocity":0.31496062992125984},{"duration":0.10948899999999995,"midi":58,"time":31.532831999999996,"velocity":0.31496062992125984},{"duration":0.10948899999999995,"midi":87,"time":31.642320999999995,"velocity":0.31496062992125984},{"duration":0.10948899999999995,"midi":79,"time":31.642320999999995,"velocity":0.31496062992125984},{"duration":0.10948899999999995,"midi":58,"time":31.642320999999995,"velocity":0.31496062992125984},{"duration":0.10948899999999995,"midi":87,"time":31.751809999999995,"velocity":0.31496062992125984},{"duration":0.10948899999999995,"midi":79,"time":31.751809999999995,"velocity":0.31496062992125984},{"duration":0.10948899999999995,"midi":58,"time":31.751809999999995,"velocity":0.31496062992125984},{"duration":0.10948899999999995,"midi":79,"time":31.861298999999995,"velocity":0.31496062992125984},{"duration":0.10948899999999995,"midi":58,"time":31.861298999999995,"velocity":0.31496062992125984},{"duration":0.10948899999999995,"midi":87,"time":31.861298999999995,"velocity":0.31496062992125984},{"duration":0.10948899999999995,"midi":58,"time":31.970787999999995,"velocity":0.31496062992125984},{"duration":0.10948899999999995,"midi":87,"time":31.970787999999995,"velocity":0.31496062992125984},{"duration":0.10948899999999995,"midi":79,"time":31.970787999999995,"velocity":0.31496062992125984},{"duration":0.1094890000000035,"midi":58,"time":32.080276999999995,"velocity":0.31496062992125984},{"duration":0.1094890000000035,"midi":87,"time":32.080276999999995,"velocity":0.31496062992125984},{"duration":0.1094890000000035,"midi":79,"time":32.080276999999995,"velocity":0.31496062992125984},{"duration":0.1094889999999964,"midi":58,"time":32.189766,"velocity":0.31496062992125984},{"duration":0.1094889999999964,"midi":79,"time":32.189766,"velocity":0.31496062992125984},{"duration":0.1094889999999964,"midi":87,"time":32.189766,"velocity":0.31496062992125984},{"duration":0.1094890000000035,"midi":87,"time":32.299254999999995,"velocity":0.31496062992125984},{"duration":0.1094890000000035,"midi":79,"time":32.299254999999995,"velocity":0.31496062992125984},{"duration":0.1094890000000035,"midi":58,"time":32.299254999999995,"velocity":0.31496062992125984},{"duration":0.1094889999999964,"midi":58,"time":32.408744,"velocity":0.31496062992125984},{"duration":0.1094889999999964,"midi":79,"time":32.408744,"velocity":0.31496062992125984},{"duration":0.1094889999999964,"midi":87,"time":32.408744,"velocity":0.31496062992125984},{"duration":0.1094890000000035,"midi":87,"time":32.518232999999995,"velocity":0.31496062992125984},{"duration":0.1094890000000035,"midi":58,"time":32.518232999999995,"velocity":0.31496062992125984},{"duration":0.1094890000000035,"midi":79,"time":32.518232999999995,"velocity":0.31496062992125984},{"duration":0.1094889999999964,"midi":79,"time":32.627722,"velocity":0.31496062992125984},{"duration":0.1094889999999964,"midi":58,"time":32.627722,"velocity":0.31496062992125984},{"duration":0.1094889999999964,"midi":87,"time":32.627722,"velocity":0.31496062992125984},{"duration":0.1094890000000035,"midi":87,"time":32.737210999999995,"velocity":0.31496062992125984},{"duration":0.1094890000000035,"midi":79,"time":32.737210999999995,"velocity":0.31496062992125984},{"duration":0.1094890000000035,"midi":58,"time":32.737210999999995,"velocity":0.31496062992125984},{"duration":0.1094889999999964,"midi":87,"time":32.8467,"velocity":0.31496062992125984},{"duration":0.1094889999999964,"midi":79,"time":32.8467,"velocity":0.31496062992125984},{"duration":0.1094889999999964,"midi":58,"time":32.8467,"velocity":0.31496062992125984},{"duration":0.1094890000000035,"midi":58,"time":32.956188999999995,"velocity":0.31496062992125984},{"duration":0.1094890000000035,"midi":79,"time":32.956188999999995,"velocity":0.31496062992125984},{"duration":0.1094890000000035,"midi":87,"time":32.956188999999995,"velocity":0.31496062992125984},{"duration":0.1094889999999964,"midi":79,"time":33.065678,"velocity":0.31496062992125984},{"duration":0.1094889999999964,"midi":58,"time":33.065678,"velocity":0.31496062992125984},{"duration":0.1094889999999964,"midi":87,"time":33.065678,"velocity":0.31496062992125984},{"duration":0.1094890000000035,"midi":79,"time":33.175166999999995,"velocity":0.31496062992125984},{"duration":0.1094890000000035,"midi":58,"time":33.175166999999995,"velocity":0.31496062992125984},{"duration":0.1094890000000035,"midi":87,"time":33.175166999999995,"velocity":0.31496062992125984},{"duration":0.1094889999999964,"midi":87,"time":33.284656,"velocity":0.31496062992125984},{"duration":0.1094889999999964,"midi":79,"time":33.284656,"velocity":0.31496062992125984},{"duration":0.1094889999999964,"midi":58,"time":33.284656,"velocity":0.31496062992125984},{"duration":0.1094890000000035,"midi":87,"time":33.394144999999995,"velocity":0.31496062992125984},{"duration":0.1094890000000035,"midi":79,"time":33.394144999999995,"velocity":0.31496062992125984},{"duration":0.1094890000000035,"midi":58,"time":33.394144999999995,"velocity":0.31496062992125984},{"duration":0.1094889999999964,"midi":58,"time":33.503634,"velocity":0.31496062992125984},{"duration":0.1094889999999964,"midi":79,"time":33.503634,"velocity":0.31496062992125984},{"duration":0.1094889999999964,"midi":87,"time":33.503634,"velocity":0.31496062992125984},{"duration":0.1094890000000035,"midi":58,"time":33.613122999999995,"velocity":0.31496062992125984},{"duration":0.1094890000000035,"midi":87,"time":33.613122999999995,"velocity":0.31496062992125984},{"duration":0.1094890000000035,"midi":79,"time":33.613122999999995,"velocity":0.31496062992125984},{"duration":0.1094889999999964,"midi":79,"time":33.722612,"velocity":0.31496062992125984},{"duration":0.1094889999999964,"midi":58,"time":33.722612,"velocity":0.31496062992125984},{"duration":0.1094889999999964,"midi":87,"time":33.722612,"velocity":0.31496062992125984},{"duration":0.1094890000000035,"midi":87,"time":33.832100999999994,"velocity":0.31496062992125984},{"duration":0.1094890000000035,"midi":79,"time":33.832100999999994,"velocity":0.31496062992125984},{"duration":0.1094890000000035,"midi":58,"time":33.832100999999994,"velocity":0.31496062992125984},{"duration":0.1094889999999964,"midi":87,"time":33.94159,"velocity":0.31496062992125984},{"duration":0.1094889999999964,"midi":79,"time":33.94159,"velocity":0.31496062992125984},{"duration":0.1094889999999964,"midi":58,"time":33.94159,"velocity":0.31496062992125984},{"duration":0.1094890000000035,"midi":79,"time":34.051078999999994,"velocity":0.31496062992125984},{"duration":0.1094890000000035,"midi":58,"time":34.051078999999994,"velocity":0.31496062992125984},{"duration":0.1094890000000035,"midi":87,"time":34.051078999999994,"velocity":0.31496062992125984},{"duration":0.1094889999999964,"midi":79,"time":34.160568,"velocity":0.31496062992125984},{"duration":0.1094889999999964,"midi":58,"time":34.160568,"velocity":0.31496062992125984},{"duration":0.1094889999999964,"midi":87,"time":34.160568,"velocity":0.31496062992125984},{"duration":0.1094890000000035,"midi":87,"time":34.270056999999994,"velocity":0.31496062992125984},{"duration":0.1094890000000035,"midi":79,"time":34.270056999999994,"velocity":0.31496062992125984},{"duration":0.1094890000000035,"midi":58,"time":34.270056999999994,"velocity":0.31496062992125984},{"duration":0.1094889999999964,"midi":58,"time":34.379546,"velocity":0.31496062992125984},{"duration":0.1094889999999964,"midi":79,"time":34.379546,"velocity":0.31496062992125984},{"duration":0.1094889999999964,"midi":87,"time":34.379546,"velocity":0.31496062992125984},{"duration":0.1094890000000035,"midi":87,"time":34.489034999999994,"velocity":0.31496062992125984},{"duration":0.1094890000000035,"midi":79,"time":34.489034999999994,"velocity":0.31496062992125984},{"duration":0.1094890000000035,"midi":58,"time":34.489034999999994,"velocity":0.31496062992125984},{"duration":0.1094889999999964,"midi":79,"time":34.598524,"velocity":0.31496062992125984},{"duration":0.1094889999999964,"midi":58,"time":34.598524,"velocity":0.31496062992125984},{"duration":0.1094889999999964,"midi":87,"time":34.598524,"velocity":0.31496062992125984},{"duration":0.1094890000000035,"midi":87,"time":34.708012999999994,"velocity":0.31496062992125984},{"duration":0.1094890000000035,"midi":79,"time":34.708012999999994,"velocity":0.31496062992125984},{"duration":0.1094890000000035,"midi":58,"time":34.708012999999994,"velocity":0.31496062992125984},{"duration":0.1094889999999964,"midi":58,"time":34.817502,"velocity":0.31496062992125984},{"duration":0.1094889999999964,"midi":79,"time":34.817502,"velocity":0.31496062992125984},{"duration":0.1094889999999964,"midi":87,"time":34.817502,"velocity":0.31496062992125984},{"duration":0.1094890000000035,"midi":58,"time":34.926990999999994,"velocity":0.31496062992125984},{"duration":0.1094890000000035,"midi":87,"time":34.926990999999994,"velocity":0.31496062992125984},{"duration":0.1094890000000035,"midi":79,"time":34.926990999999994,"velocity":0.31496062992125984},{"duration":0.1094889999999964,"midi":87,"time":35.03648,"velocity":0.31496062992125984},{"duration":0.1094889999999964,"midi":79,"time":35.03648,"velocity":0.31496062992125984},{"duration":0.1094889999999964,"midi":58,"time":35.03648,"velocity":0.31496062992125984},{"duration":0.1094890000000035,"midi":79,"time":35.145968999999994,"velocity":0.31496062992125984},{"duration":0.1094890000000035,"midi":87,"time":35.145968999999994,"velocity":0.31496062992125984},{"duration":0.1094890000000035,"midi":58,"time":35.145968999999994,"velocity":0.31496062992125984},{"duration":0.1094889999999964,"midi":79,"time":35.255458,"velocity":0.31496062992125984},{"duration":0.1094889999999964,"midi":58,"time":35.255458,"velocity":0.31496062992125984},{"duration":0.1094889999999964,"midi":87,"time":35.255458,"velocity":0.31496062992125984},{"duration":0.1094890000000035,"midi":87,"time":35.364946999999994,"velocity":0.31496062992125984},{"duration":0.1094890000000035,"midi":79,"time":35.364946999999994,"velocity":0.31496062992125984},{"duration":0.1094890000000035,"midi":58,"time":35.364946999999994,"velocity":0.31496062992125984},{"duration":0.1094889999999964,"midi":79,"time":35.474436,"velocity":0.31496062992125984},{"duration":0.1094889999999964,"midi":58,"time":35.474436,"velocity":0.31496062992125984},{"duration":0.1094889999999964,"midi":87,"time":35.474436,"velocity":0.31496062992125984},{"duration":0.1094890000000035,"midi":87,"time":35.583924999999994,"velocity":0.31496062992125984},{"duration":0.1094890000000035,"midi":79,"time":35.583924999999994,"velocity":0.31496062992125984},{"duration":0.1094890000000035,"midi":58,"time":35.583924999999994,"velocity":0.31496062992125984},{"duration":0.1094889999999964,"midi":87,"time":35.693414,"velocity":0.31496062992125984},{"duration":0.1094889999999964,"midi":79,"time":35.693414,"velocity":0.31496062992125984},{"duration":0.1094889999999964,"midi":58,"time":35.693414,"velocity":0.31496062992125984},{"duration":0.1094890000000035,"midi":58,"time":35.80290299999999,"velocity":0.31496062992125984},{"duration":0.1094890000000035,"midi":87,"time":35.80290299999999,"velocity":0.31496062992125984},{"duration":0.1094890000000035,"midi":79,"time":35.80290299999999,"velocity":0.31496062992125984},{"duration":0.1094889999999964,"midi":79,"time":35.912392,"velocity":0.31496062992125984},{"duration":0.1094889999999964,"midi":58,"time":35.912392,"velocity":0.31496062992125984},{"duration":0.1094889999999964,"midi":87,"time":35.912392,"velocity":0.31496062992125984},{"duration":0.1094890000000035,"midi":58,"time":36.02188099999999,"velocity":0.31496062992125984},{"duration":0.1094890000000035,"midi":79,"time":36.02188099999999,"velocity":0.31496062992125984},{"duration":0.1094890000000035,"midi":87,"time":36.02188099999999,"velocity":0.31496062992125984},{"duration":0.1094889999999964,"midi":58,"time":36.13137,"velocity":0.31496062992125984},{"duration":0.1094889999999964,"midi":87,"time":36.13137,"velocity":0.31496062992125984},{"duration":0.1094889999999964,"midi":79,"time":36.13137,"velocity":0.31496062992125984},{"duration":0.1094890000000035,"midi":87,"time":36.24085899999999,"velocity":0.31496062992125984},{"duration":0.1094890000000035,"midi":79,"time":36.24085899999999,"velocity":0.31496062992125984},{"duration":0.1094890000000035,"midi":58,"time":36.24085899999999,"velocity":0.31496062992125984},{"duration":0.1094889999999964,"midi":58,"time":36.350348,"velocity":0.31496062992125984},{"duration":0.1094889999999964,"midi":79,"time":36.350348,"velocity":0.31496062992125984},{"duration":0.1094889999999964,"midi":87,"time":36.350348,"velocity":0.31496062992125984},{"duration":0.1094890000000035,"midi":87,"time":36.45983699999999,"velocity":0.31496062992125984},{"duration":0.1094890000000035,"midi":58,"time":36.45983699999999,"velocity":0.31496062992125984},{"duration":0.1094890000000035,"midi":79,"time":36.45983699999999,"velocity":0.31496062992125984},{"duration":0.1094889999999964,"midi":87,"time":36.569326,"velocity":0.31496062992125984},{"duration":0.1094889999999964,"midi":79,"time":36.569326,"velocity":0.31496062992125984},{"duration":0.1094889999999964,"midi":58,"time":36.569326,"velocity":0.31496062992125984},{"duration":0.1094890000000035,"midi":58,"time":36.67881499999999,"velocity":0.31496062992125984},{"duration":0.1094890000000035,"midi":87,"time":36.67881499999999,"velocity":0.31496062992125984},{"duration":0.1094890000000035,"midi":79,"time":36.67881499999999,"velocity":0.31496062992125984},{"duration":0.1094889999999964,"midi":87,"time":36.788304,"velocity":0.31496062992125984},{"duration":0.1094889999999964,"midi":79,"time":36.788304,"velocity":0.31496062992125984},{"duration":0.1094889999999964,"midi":58,"time":36.788304,"velocity":0.31496062992125984},{"duration":0.1094890000000035,"midi":79,"time":36.89779299999999,"velocity":0.31496062992125984},{"duration":0.1094890000000035,"midi":87,"time":36.89779299999999,"velocity":0.31496062992125984},{"duration":0.1094890000000035,"midi":58,"time":36.89779299999999,"velocity":0.31496062992125984},{"duration":0.1094889999999964,"midi":58,"time":37.007282,"velocity":0.31496062992125984},{"duration":0.1094889999999964,"midi":87,"time":37.007282,"velocity":0.31496062992125984},{"duration":0.1094889999999964,"midi":79,"time":37.007282,"velocity":0.31496062992125984},{"duration":0.1094890000000035,"midi":58,"time":37.11677099999999,"velocity":0.31496062992125984},{"duration":0.1094890000000035,"midi":79,"time":37.11677099999999,"velocity":0.31496062992125984},{"duration":0.1094890000000035,"midi":87,"time":37.11677099999999,"velocity":0.31496062992125984},{"duration":0.1094889999999964,"midi":87,"time":37.226259999999996,"velocity":0.31496062992125984},{"duration":0.1094889999999964,"midi":79,"time":37.226259999999996,"velocity":0.31496062992125984},{"duration":0.1094889999999964,"midi":58,"time":37.226259999999996,"velocity":0.31496062992125984},{"duration":0.1094890000000035,"midi":87,"time":37.33574899999999,"velocity":0.31496062992125984},{"duration":0.1094890000000035,"midi":79,"time":37.33574899999999,"velocity":0.31496062992125984},{"duration":0.1094890000000035,"midi":58,"time":37.33574899999999,"velocity":0.31496062992125984},{"duration":0.1094890000000035,"midi":58,"time":37.445237999999996,"velocity":0.31496062992125984},{"duration":0.1094890000000035,"midi":79,"time":37.445237999999996,"velocity":0.31496062992125984},{"duration":0.1094890000000035,"midi":87,"time":37.445237999999996,"velocity":0.31496062992125984},{"duration":0.1094889999999964,"midi":87,"time":37.554727,"velocity":0.31496062992125984},{"duration":0.1094889999999964,"midi":79,"time":37.554727,"velocity":0.31496062992125984},{"duration":0.1094889999999964,"midi":58,"time":37.554727,"velocity":0.31496062992125984},{"duration":0.1094890000000035,"midi":79,"time":37.664215999999996,"velocity":0.31496062992125984},{"duration":0.1094890000000035,"midi":58,"time":37.664215999999996,"velocity":0.31496062992125984},{"duration":0.1094890000000035,"midi":87,"time":37.664215999999996,"velocity":0.31496062992125984},{"duration":0.1094889999999964,"midi":58,"time":37.773705,"velocity":0.31496062992125984},{"duration":0.1094889999999964,"midi":87,"time":37.773705,"velocity":0.31496062992125984},{"duration":0.1094889999999964,"midi":79,"time":37.773705,"velocity":0.31496062992125984},{"duration":0.1094890000000035,"midi":87,"time":37.883193999999996,"velocity":0.31496062992125984},{"duration":0.1094890000000035,"midi":79,"time":37.883193999999996,"velocity":0.31496062992125984},{"duration":0.1094890000000035,"midi":58,"time":37.883193999999996,"velocity":0.31496062992125984},{"duration":0.1094889999999964,"midi":79,"time":37.992683,"velocity":0.31496062992125984},{"duration":0.1094889999999964,"midi":87,"time":37.992683,"velocity":0.31496062992125984},{"duration":0.1094889999999964,"midi":58,"time":37.992683,"velocity":0.31496062992125984},{"duration":0.1094890000000035,"midi":87,"time":38.102171999999996,"velocity":0.31496062992125984},{"duration":0.1094890000000035,"midi":79,"time":38.102171999999996,"velocity":0.31496062992125984},{"duration":0.1094890000000035,"midi":58,"time":38.102171999999996,"velocity":0.31496062992125984},{"duration":0.1094889999999964,"midi":58,"time":38.211661,"velocity":0.31496062992125984},{"duration":0.1094889999999964,"midi":87,"time":38.211661,"velocity":0.31496062992125984},{"duration":0.1094889999999964,"midi":79,"time":38.211661,"velocity":0.31496062992125984},{"duration":0.1094890000000035,"midi":58,"time":38.321149999999996,"velocity":0.31496062992125984},{"duration":0.1094890000000035,"midi":79,"time":38.321149999999996,"velocity":0.31496062992125984},{"duration":0.1094890000000035,"midi":87,"time":38.321149999999996,"velocity":0.31496062992125984},{"duration":0.1094889999999964,"midi":58,"time":38.430639,"velocity":0.31496062992125984},{"duration":0.1094889999999964,"midi":79,"time":38.430639,"velocity":0.31496062992125984},{"duration":0.1094889999999964,"midi":87,"time":38.430639,"velocity":0.31496062992125984},{"duration":0.1094890000000035,"midi":87,"time":38.540127999999996,"velocity":0.31496062992125984},{"duration":0.1094890000000035,"midi":79,"time":38.540127999999996,"velocity":0.31496062992125984},{"duration":0.1094890000000035,"midi":58,"time":38.540127999999996,"velocity":0.31496062992125984},{"duration":0.1094889999999964,"midi":58,"time":38.649617,"velocity":0.31496062992125984},{"duration":0.1094889999999964,"midi":79,"time":38.649617,"velocity":0.31496062992125984},{"duration":0.1094889999999964,"midi":87,"time":38.649617,"velocity":0.31496062992125984},{"duration":0.1094890000000035,"midi":87,"time":38.759105999999996,"velocity":0.31496062992125984},{"duration":0.1094890000000035,"midi":58,"time":38.759105999999996,"velocity":0.31496062992125984},{"duration":0.1094890000000035,"midi":79,"time":38.759105999999996,"velocity":0.31496062992125984},{"duration":0.1094889999999964,"midi":87,"time":38.868595,"velocity":0.31496062992125984},{"duration":0.1094889999999964,"midi":79,"time":38.868595,"velocity":0.31496062992125984},{"duration":0.1094889999999964,"midi":58,"time":38.868595,"velocity":0.31496062992125984},{"duration":0.1094890000000035,"midi":58,"time":38.978083999999996,"velocity":0.31496062992125984},{"duration":0.1094890000000035,"midi":87,"time":38.978083999999996,"velocity":0.31496062992125984},{"duration":0.1094890000000035,"midi":79,"time":38.978083999999996,"velocity":0.31496062992125984},{"duration":0.1094889999999964,"midi":87,"time":39.087573,"velocity":0.31496062992125984},{"duration":0.1094889999999964,"midi":79,"time":39.087573,"velocity":0.31496062992125984},{"duration":0.1094889999999964,"midi":58,"time":39.087573,"velocity":0.31496062992125984},{"duration":0.1094890000000035,"midi":58,"time":39.197061999999995,"velocity":0.31496062992125984},{"duration":0.1094890000000035,"midi":79,"time":39.197061999999995,"velocity":0.31496062992125984},{"duration":0.1094890000000035,"midi":87,"time":39.197061999999995,"velocity":0.31496062992125984},{"duration":0.1094889999999964,"midi":58,"time":39.306551,"velocity":0.31496062992125984},{"duration":0.1094889999999964,"midi":87,"time":39.306551,"velocity":0.31496062992125984},{"duration":0.1094889999999964,"midi":79,"time":39.306551,"velocity":0.31496062992125984},{"duration":0.1094890000000035,"midi":79,"time":39.416039999999995,"velocity":0.31496062992125984},{"duration":0.1094890000000035,"midi":58,"time":39.416039999999995,"velocity":0.31496062992125984},{"duration":0.1094890000000035,"midi":87,"time":39.416039999999995,"velocity":0.31496062992125984},{"duration":0.1094889999999964,"midi":87,"time":39.525529,"velocity":0.31496062992125984},{"duration":0.1094889999999964,"midi":79,"time":39.525529,"velocity":0.31496062992125984},{"duration":0.1094889999999964,"midi":58,"time":39.525529,"velocity":0.31496062992125984},{"duration":0.1094890000000035,"midi":87,"time":39.635017999999995,"velocity":0.31496062992125984},{"duration":0.1094890000000035,"midi":79,"time":39.635017999999995,"velocity":0.31496062992125984},{"duration":0.1094890000000035,"midi":58,"time":39.635017999999995,"velocity":0.31496062992125984},{"duration":0.1094889999999964,"midi":79,"time":39.744507,"velocity":0.31496062992125984},{"duration":0.1094889999999964,"midi":58,"time":39.744507,"velocity":0.31496062992125984},{"duration":0.1094889999999964,"midi":87,"time":39.744507,"velocity":0.31496062992125984},{"duration":0.1094890000000035,"midi":58,"time":39.853995999999995,"velocity":0.31496062992125984},{"duration":0.1094890000000035,"midi":87,"time":39.853995999999995,"velocity":0.31496062992125984},{"duration":0.1094890000000035,"midi":79,"time":39.853995999999995,"velocity":0.31496062992125984},{"duration":0.1094889999999964,"midi":87,"time":39.963485,"velocity":0.31496062992125984},{"duration":0.1094889999999964,"midi":79,"time":39.963485,"velocity":0.31496062992125984},{"duration":0.1094889999999964,"midi":58,"time":39.963485,"velocity":0.31496062992125984},{"duration":0.1094890000000035,"midi":58,"time":40.072973999999995,"velocity":0.31496062992125984},{"duration":0.1094890000000035,"midi":87,"time":40.072973999999995,"velocity":0.31496062992125984},{"duration":0.1094890000000035,"midi":79,"time":40.072973999999995,"velocity":0.31496062992125984},{"duration":0.1094889999999964,"midi":87,"time":40.182463,"velocity":0.31496062992125984},{"duration":0.1094889999999964,"midi":79,"time":40.182463,"velocity":0.31496062992125984},{"duration":0.1094889999999964,"midi":58,"time":40.182463,"velocity":0.31496062992125984},{"duration":0.1094890000000035,"midi":79,"time":40.291951999999995,"velocity":0.31496062992125984},{"duration":0.1094890000000035,"midi":87,"time":40.291951999999995,"velocity":0.31496062992125984},{"duration":0.1094890000000035,"midi":58,"time":40.291951999999995,"velocity":0.31496062992125984},{"duration":0.1094889999999964,"midi":58,"time":40.401441,"velocity":0.31496062992125984},{"duration":0.1094889999999964,"midi":87,"time":40.401441,"velocity":0.31496062992125984},{"duration":0.1094889999999964,"midi":79,"time":40.401441,"velocity":0.31496062992125984},{"duration":0.1094890000000035,"midi":87,"time":40.510929999999995,"velocity":0.31496062992125984},{"duration":0.1094890000000035,"midi":79,"time":40.510929999999995,"velocity":0.31496062992125984},{"duration":0.1094890000000035,"midi":58,"time":40.510929999999995,"velocity":0.31496062992125984},{"duration":0.1094889999999964,"midi":58,"time":40.620419,"velocity":0.31496062992125984},{"duration":0.1094889999999964,"midi":79,"time":40.620419,"velocity":0.31496062992125984},{"duration":0.1094889999999964,"midi":87,"time":40.620419,"velocity":0.31496062992125984},{"duration":0.1094890000000035,"midi":58,"time":40.729907999999995,"velocity":0.31496062992125984},{"duration":0.1094890000000035,"midi":79,"time":40.729907999999995,"velocity":0.31496062992125984},{"duration":0.1094890000000035,"midi":87,"time":40.729907999999995,"velocity":0.31496062992125984},{"duration":0.1094889999999964,"midi":87,"time":40.839397,"velocity":0.31496062992125984},{"duration":0.1094889999999964,"midi":79,"time":40.839397,"velocity":0.31496062992125984},{"duration":0.1094889999999964,"midi":58,"time":40.839397,"velocity":0.31496062992125984},{"duration":0.1094890000000035,"midi":87,"time":40.948885999999995,"velocity":0.31496062992125984},{"duration":0.1094890000000035,"midi":79,"time":40.948885999999995,"velocity":0.31496062992125984},{"duration":0.1094890000000035,"midi":58,"time":40.948885999999995,"velocity":0.31496062992125984},{"duration":0.1094889999999964,"midi":79,"time":41.058375,"velocity":0.31496062992125984},{"duration":0.1094889999999964,"midi":87,"time":41.058375,"velocity":0.31496062992125984},{"duration":0.1094889999999964,"midi":58,"time":41.058375,"velocity":0.31496062992125984},{"duration":0.1094890000000035,"midi":58,"time":41.167863999999994,"velocity":0.31496062992125984},{"duration":0.1094890000000035,"midi":87,"time":41.167863999999994,"velocity":0.31496062992125984},{"duration":0.1094890000000035,"midi":79,"time":41.167863999999994,"velocity":0.31496062992125984},{"duration":0.1094889999999964,"midi":58,"time":41.277353,"velocity":0.31496062992125984},{"duration":0.1094889999999964,"midi":79,"time":41.277353,"velocity":0.31496062992125984},{"duration":0.1094889999999964,"midi":87,"time":41.277353,"velocity":0.31496062992125984},{"duration":0.1094890000000035,"midi":87,"time":41.386841999999994,"velocity":0.31496062992125984},{"duration":0.1094890000000035,"midi":79,"time":41.386841999999994,"velocity":0.31496062992125984},{"duration":0.1094890000000035,"midi":58,"time":41.386841999999994,"velocity":0.31496062992125984},{"duration":0.1094889999999964,"midi":58,"time":41.496331,"velocity":0.31496062992125984},{"duration":0.1094889999999964,"midi":79,"time":41.496331,"velocity":0.31496062992125984},{"duration":0.1094889999999964,"midi":87,"time":41.496331,"velocity":0.31496062992125984},{"duration":0.1094890000000035,"midi":87,"time":41.605819999999994,"velocity":0.31496062992125984},{"duration":0.1094890000000035,"midi":79,"time":41.605819999999994,"velocity":0.31496062992125984},{"duration":0.1094890000000035,"midi":58,"time":41.605819999999994,"velocity":0.31496062992125984},{"duration":0.1094889999999964,"midi":58,"time":41.715309,"velocity":0.31496062992125984},{"duration":0.1094889999999964,"midi":87,"time":41.715309,"velocity":0.31496062992125984},{"duration":0.1094889999999964,"midi":79,"time":41.715309,"velocity":0.31496062992125984},{"duration":0.1094890000000035,"midi":87,"time":41.824797999999994,"velocity":0.31496062992125984},{"duration":0.1094890000000035,"midi":79,"time":41.824797999999994,"velocity":0.31496062992125984},{"duration":0.1094890000000035,"midi":58,"time":41.824797999999994,"velocity":0.31496062992125984},{"duration":0.1094889999999964,"midi":87,"time":41.934287,"velocity":0.31496062992125984},{"duration":0.1094889999999964,"midi":79,"time":41.934287,"velocity":0.31496062992125984},{"duration":0.1094889999999964,"midi":58,"time":41.934287,"velocity":0.31496062992125984},{"duration":0.1094890000000035,"midi":79,"time":42.043775999999994,"velocity":0.31496062992125984},{"duration":0.1094890000000035,"midi":58,"time":42.043775999999994,"velocity":0.31496062992125984},{"duration":0.1094890000000035,"midi":87,"time":42.043775999999994,"velocity":0.31496062992125984},{"duration":0.1094889999999964,"midi":58,"time":42.153265,"velocity":0.31496062992125984},{"duration":0.1094889999999964,"midi":87,"time":42.153265,"velocity":0.31496062992125984},{"duration":0.1094889999999964,"midi":79,"time":42.153265,"velocity":0.31496062992125984},{"duration":0.1094889999999964,"midi":87,"time":42.372243,"velocity":0.31496062992125984},{"duration":0.1094889999999964,"midi":79,"time":42.372243,"velocity":0.31496062992125984},{"duration":0.1094889999999964,"midi":58,"time":42.372243,"velocity":0.31496062992125984},{"duration":0.1094889999999964,"midi":58,"time":42.5364765,"velocity":0.31496062992125984},{"duration":0.1094889999999964,"midi":87,"time":42.5364765,"velocity":0.31496062992125984},{"duration":0.1094889999999964,"midi":79,"time":42.5364765,"velocity":0.31496062992125984},{"duration":0.1094890000000035,"midi":87,"time":42.700709999999994,"velocity":0.31496062992125984},{"duration":0.1094890000000035,"midi":79,"time":42.700709999999994,"velocity":0.31496062992125984},{"duration":0.1094890000000035,"midi":58,"time":42.700709999999994,"velocity":0.31496062992125984},{"duration":0.1094890000000035,"midi":79,"time":42.919687999999994,"velocity":0.31496062992125984},{"duration":0.1094890000000035,"midi":87,"time":42.919687999999994,"velocity":0.31496062992125984},{"duration":0.1094890000000035,"midi":58,"time":42.919687999999994,"velocity":0.31496062992125984},{"duration":0.1094889999999964,"midi":79,"time":43.029177,"velocity":0.31496062992125984},{"duration":0.1094889999999964,"midi":58,"time":43.029177,"velocity":0.31496062992125984},{"duration":0.1094889999999964,"midi":87,"time":43.029177,"velocity":0.31496062992125984},{"duration":0.1094889999999964,"midi":87,"time":43.248155,"velocity":0.31496062992125984},{"duration":0.1094889999999964,"midi":79,"time":43.248155,"velocity":0.31496062992125984},{"duration":0.1094889999999964,"midi":58,"time":43.248155,"velocity":0.31496062992125984},{"duration":0.1094889999999964,"midi":87,"time":43.4123885,"velocity":0.31496062992125984},{"duration":0.1094889999999964,"midi":79,"time":43.4123885,"velocity":0.31496062992125984},{"duration":0.1094889999999964,"midi":58,"time":43.4123885,"velocity":0.31496062992125984},{"duration":0.1094890000000035,"midi":87,"time":43.57662199999999,"velocity":0.31496062992125984},{"duration":0.1094890000000035,"midi":79,"time":43.57662199999999,"velocity":0.31496062992125984},{"duration":0.1094890000000035,"midi":58,"time":43.57662199999999,"velocity":0.31496062992125984},{"duration":0.1094890000000035,"midi":58,"time":43.79559999999999,"velocity":0.31496062992125984},{"duration":0.1094890000000035,"midi":79,"time":43.79559999999999,"velocity":0.31496062992125984},{"duration":0.1094890000000035,"midi":87,"time":43.79559999999999,"velocity":0.31496062992125984},{"duration":0.1094889999999964,"midi":79,"time":43.905089,"velocity":0.31496062992125984},{"duration":0.1094889999999964,"midi":58,"time":43.905089,"velocity":0.31496062992125984},{"duration":0.1094889999999964,"midi":87,"time":43.905089,"velocity":0.31496062992125984},{"duration":0.1094889999999964,"midi":87,"time":44.124067,"velocity":0.31496062992125984},{"duration":0.1094889999999964,"midi":79,"time":44.124067,"velocity":0.31496062992125984},{"duration":0.1094889999999964,"midi":58,"time":44.124067,"velocity":0.31496062992125984},{"duration":0.1094889999999964,"midi":79,"time":44.2883005,"velocity":0.31496062992125984},{"duration":0.1094889999999964,"midi":58,"time":44.2883005,"velocity":0.31496062992125984},{"duration":0.1094889999999964,"midi":87,"time":44.2883005,"velocity":0.31496062992125984},{"duration":0.1094890000000035,"midi":87,"time":44.45253399999999,"velocity":0.31496062992125984},{"duration":0.1094890000000035,"midi":79,"time":44.45253399999999,"velocity":0.31496062992125984},{"duration":0.1094890000000035,"midi":58,"time":44.45253399999999,"velocity":0.31496062992125984},{"duration":0.1094890000000035,"midi":87,"time":44.67151199999999,"velocity":0.31496062992125984},{"duration":0.1094890000000035,"midi":79,"time":44.67151199999999,"velocity":0.31496062992125984},{"duration":0.1094890000000035,"midi":58,"time":44.67151199999999,"velocity":0.31496062992125984},{"duration":0.1094889999999964,"midi":79,"time":44.781000999999996,"velocity":0.31496062992125984},{"duration":0.1094889999999964,"midi":58,"time":44.781000999999996,"velocity":0.31496062992125984},{"duration":0.1094889999999964,"midi":87,"time":44.781000999999996,"velocity":0.31496062992125984},{"duration":0.1094889999999964,"midi":87,"time":44.999978999999996,"velocity":0.31496062992125984},{"duration":0.1094889999999964,"midi":79,"time":44.999978999999996,"velocity":0.31496062992125984},{"duration":0.1094889999999964,"midi":58,"time":44.999978999999996,"velocity":0.31496062992125984},{"duration":0.1094889999999964,"midi":79,"time":45.1642125,"velocity":0.31496062992125984},{"duration":0.1094889999999964,"midi":58,"time":45.1642125,"velocity":0.31496062992125984},{"duration":0.1094889999999964,"midi":87,"time":45.1642125,"velocity":0.31496062992125984},{"duration":0.1094890000000035,"midi":87,"time":45.32844599999999,"velocity":0.31496062992125984},{"duration":0.1094890000000035,"midi":79,"time":45.32844599999999,"velocity":0.31496062992125984},{"duration":0.1094890000000035,"midi":58,"time":45.32844599999999,"velocity":0.31496062992125984},{"duration":0.1094890000000035,"midi":87,"time":45.54742399999999,"velocity":0.31496062992125984},{"duration":0.1094890000000035,"midi":79,"time":45.54742399999999,"velocity":0.31496062992125984},{"duration":0.1094890000000035,"midi":58,"time":45.54742399999999,"velocity":0.31496062992125984},{"duration":0.1094889999999964,"midi":79,"time":45.656912999999996,"velocity":0.31496062992125984},{"duration":0.1094889999999964,"midi":58,"time":45.656912999999996,"velocity":0.31496062992125984},{"duration":0.1094889999999964,"midi":87,"time":45.656912999999996,"velocity":0.31496062992125984},{"duration":0.1094889999999964,"midi":87,"time":45.875890999999996,"velocity":0.31496062992125984},{"duration":0.1094889999999964,"midi":79,"time":45.875890999999996,"velocity":0.31496062992125984},{"duration":0.1094889999999964,"midi":58,"time":45.875890999999996,"velocity":0.31496062992125984},{"duration":0.1094889999999964,"midi":79,"time":46.0401245,"velocity":0.31496062992125984},{"duration":0.1094889999999964,"midi":58,"time":46.0401245,"velocity":0.31496062992125984},{"duration":0.1094889999999964,"midi":87,"time":46.0401245,"velocity":0.31496062992125984},{"duration":0.1094890000000035,"midi":87,"time":46.20435799999999,"velocity":0.31496062992125984},{"duration":0.1094890000000035,"midi":79,"time":46.20435799999999,"velocity":0.31496062992125984},{"duration":0.1094890000000035,"midi":58,"time":46.20435799999999,"velocity":0.31496062992125984},{"duration":0.1094890000000035,"midi":79,"time":46.42333599999999,"velocity":0.31496062992125984},{"duration":0.1094890000000035,"midi":58,"time":46.42333599999999,"velocity":0.31496062992125984},{"duration":0.1094890000000035,"midi":87,"time":46.42333599999999,"velocity":0.31496062992125984},{"duration":0.1094889999999964,"midi":87,"time":46.532824999999995,"velocity":0.31496062992125984},{"duration":0.1094889999999964,"midi":58,"time":46.532824999999995,"velocity":0.31496062992125984},{"duration":0.1094889999999964,"midi":79,"time":46.532824999999995,"velocity":0.31496062992125984},{"duration":0.1094890000000035,"midi":87,"time":46.751802999999995,"velocity":0.31496062992125984},{"duration":0.1094890000000035,"midi":79,"time":46.751802999999995,"velocity":0.31496062992125984},{"duration":0.1094890000000035,"midi":58,"time":46.751802999999995,"velocity":0.31496062992125984},{"duration":0.1094889999999964,"midi":87,"time":46.9160365,"velocity":0.31496062992125984},{"duration":0.1094889999999964,"midi":79,"time":46.9160365,"velocity":0.31496062992125984},{"duration":0.1094889999999964,"midi":58,"time":46.9160365,"velocity":0.31496062992125984},{"duration":0.1094889999999964,"midi":58,"time":47.08027,"velocity":0.31496062992125984},{"duration":0.1094889999999964,"midi":87,"time":47.08027,"velocity":0.31496062992125984},{"duration":0.1094889999999964,"midi":79,"time":47.08027,"velocity":0.31496062992125984},{"duration":0.1094889999999964,"midi":87,"time":47.299248,"velocity":0.31496062992125984},{"duration":0.1094889999999964,"midi":79,"time":47.299248,"velocity":0.31496062992125984},{"duration":0.1094889999999964,"midi":58,"time":47.299248,"velocity":0.31496062992125984},{"duration":0.1094890000000035,"midi":87,"time":47.408736999999995,"velocity":0.31496062992125984},{"duration":0.1094890000000035,"midi":58,"time":47.408736999999995,"velocity":0.31496062992125984},{"duration":0.1094890000000035,"midi":79,"time":47.408736999999995,"velocity":0.31496062992125984},{"duration":0.1094890000000035,"midi":87,"time":47.627714999999995,"velocity":0.31496062992125984},{"duration":0.1094890000000035,"midi":79,"time":47.627714999999995,"velocity":0.31496062992125984},{"duration":0.1094890000000035,"midi":58,"time":47.627714999999995,"velocity":0.31496062992125984},{"duration":0.1094889999999964,"midi":87,"time":47.7919485,"velocity":0.31496062992125984},{"duration":0.1094889999999964,"midi":79,"time":47.7919485,"velocity":0.31496062992125984},{"duration":0.1094889999999964,"midi":58,"time":47.7919485,"velocity":0.31496062992125984},{"duration":0.1094889999999964,"midi":58,"time":47.956182,"velocity":0.31496062992125984},{"duration":0.1094889999999964,"midi":87,"time":47.956182,"velocity":0.31496062992125984},{"duration":0.1094889999999964,"midi":79,"time":47.956182,"velocity":0.31496062992125984},{"duration":0.1094889999999964,"midi":87,"time":48.17516,"velocity":0.31496062992125984},{"duration":0.1094889999999964,"midi":79,"time":48.17516,"velocity":0.31496062992125984},{"duration":0.1094889999999964,"midi":58,"time":48.17516,"velocity":0.31496062992125984},{"duration":0.1094890000000035,"midi":79,"time":48.284648999999995,"velocity":0.31496062992125984},{"duration":0.1094890000000035,"midi":87,"time":48.284648999999995,"velocity":0.31496062992125984},{"duration":0.1094890000000035,"midi":58,"time":48.284648999999995,"velocity":0.31496062992125984},{"duration":0.1094890000000035,"midi":87,"time":48.503626999999994,"velocity":0.31496062992125984},{"duration":0.1094890000000035,"midi":58,"time":48.503626999999994,"velocity":0.31496062992125984},{"duration":0.1094890000000035,"midi":79,"time":48.503626999999994,"velocity":0.31496062992125984},{"duration":0.1094889999999964,"midi":87,"time":48.667860499999996,"velocity":0.31496062992125984},{"duration":0.1094889999999964,"midi":79,"time":48.667860499999996,"velocity":0.31496062992125984},{"duration":0.1094889999999964,"midi":58,"time":48.667860499999996,"velocity":0.31496062992125984},{"duration":0.1094889999999964,"midi":87,"time":48.832094,"velocity":0.31496062992125984},{"duration":0.1094889999999964,"midi":79,"time":48.832094,"velocity":0.31496062992125984},{"duration":0.1094889999999964,"midi":58,"time":48.832094,"velocity":0.31496062992125984},{"duration":0.1094889999999964,"midi":87,"time":49.051072,"velocity":0.31496062992125984},{"duration":0.1094889999999964,"midi":79,"time":49.051072,"velocity":0.31496062992125984},{"duration":0.1094889999999964,"midi":58,"time":49.051072,"velocity":0.31496062992125984},{"duration":0.1094890000000035,"midi":58,"time":49.160560999999994,"velocity":0.31496062992125984},{"duration":0.1094890000000035,"midi":79,"time":49.160560999999994,"velocity":0.31496062992125984},{"duration":0.1094890000000035,"midi":87,"time":49.160560999999994,"velocity":0.31496062992125984},{"duration":0.1094890000000035,"midi":79,"time":49.379538999999994,"velocity":0.31496062992125984},{"duration":0.1094890000000035,"midi":58,"time":49.379538999999994,"velocity":0.31496062992125984},{"duration":0.1094890000000035,"midi":87,"time":49.379538999999994,"velocity":0.31496062992125984},{"duration":0.1094889999999964,"midi":87,"time":49.543772499999996,"velocity":0.31496062992125984},{"duration":0.1094889999999964,"midi":79,"time":49.543772499999996,"velocity":0.31496062992125984},{"duration":0.1094889999999964,"midi":58,"time":49.543772499999996,"velocity":0.31496062992125984},{"duration":0.1094889999999964,"midi":58,"time":49.708006,"velocity":0.31496062992125984},{"duration":0.1094889999999964,"midi":87,"time":49.708006,"velocity":0.31496062992125984},{"duration":0.1094889999999964,"midi":79,"time":49.708006,"velocity":0.31496062992125984},{"duration":0.1094889999999964,"midi":87,"time":49.926984,"velocity":0.31496062992125984},{"duration":0.1094889999999964,"midi":79,"time":49.926984,"velocity":0.31496062992125984},{"duration":0.1094889999999964,"midi":58,"time":49.926984,"velocity":0.31496062992125984},{"duration":0.1094890000000035,"midi":79,"time":50.036472999999994,"velocity":0.31496062992125984},{"duration":0.1094890000000035,"midi":87,"time":50.036472999999994,"velocity":0.31496062992125984},{"duration":0.1094890000000035,"midi":58,"time":50.036472999999994,"velocity":0.31496062992125984},{"duration":0.1094890000000035,"midi":58,"time":50.255450999999994,"velocity":0.31496062992125984},{"duration":0.1094890000000035,"midi":87,"time":50.255450999999994,"velocity":0.31496062992125984},{"duration":0.1094890000000035,"midi":79,"time":50.255450999999994,"velocity":0.31496062992125984},{"duration":0.1094889999999964,"midi":87,"time":50.419684499999995,"velocity":0.31496062992125984},{"duration":0.1094889999999964,"midi":79,"time":50.419684499999995,"velocity":0.31496062992125984},{"duration":0.1094889999999964,"midi":58,"time":50.419684499999995,"velocity":0.31496062992125984},{"duration":0.1094889999999964,"midi":58,"time":50.583918,"velocity":0.31496062992125984},{"duration":0.1094889999999964,"midi":79,"time":50.583918,"velocity":0.31496062992125984},{"duration":0.1094889999999964,"midi":87,"time":50.583918,"velocity":0.31496062992125984},{"duration":0.1094889999999964,"midi":58,"time":50.802896,"velocity":0.31496062992125984},{"duration":0.1094889999999964,"midi":79,"time":50.802896,"velocity":0.31496062992125984},{"duration":0.1094889999999964,"midi":87,"time":50.802896,"velocity":0.31496062992125984},{"duration":0.1094890000000035,"midi":87,"time":50.91238499999999,"velocity":0.31496062992125984},{"duration":0.1094890000000035,"midi":79,"time":50.91238499999999,"velocity":0.31496062992125984},{"duration":0.1094890000000035,"midi":58,"time":50.91238499999999,"velocity":0.31496062992125984},{"duration":0.1094890000000035,"midi":79,"time":51.13136299999999,"velocity":0.31496062992125984},{"duration":0.1094890000000035,"midi":58,"time":51.13136299999999,"velocity":0.31496062992125984},{"duration":0.1094890000000035,"midi":87,"time":51.13136299999999,"velocity":0.31496062992125984},{"duration":0.1094890000000035,"midi":87,"time":51.295596499999995,"velocity":0.31496062992125984},{"duration":0.1094890000000035,"midi":79,"time":51.295596499999995,"velocity":0.31496062992125984},{"duration":0.1094890000000035,"midi":58,"time":51.295596499999995,"velocity":0.31496062992125984},{"duration":0.1094889999999964,"midi":87,"time":51.45983,"velocity":0.31496062992125984},{"duration":0.1094889999999964,"midi":79,"time":51.45983,"velocity":0.31496062992125984},{"duration":0.1094889999999964,"midi":58,"time":51.45983,"velocity":0.31496062992125984},{"duration":0.1094889999999964,"midi":58,"time":51.678808,"velocity":0.31496062992125984},{"duration":0.1094889999999964,"midi":87,"time":51.678808,"velocity":0.31496062992125984},{"duration":0.1094889999999964,"midi":79,"time":51.678808,"velocity":0.31496062992125984},{"duration":0.1094890000000035,"midi":87,"time":51.78829699999999,"velocity":0.31496062992125984},{"duration":0.1094890000000035,"midi":79,"time":51.78829699999999,"velocity":0.31496062992125984},{"duration":0.1094890000000035,"midi":58,"time":51.78829699999999,"velocity":0.31496062992125984},{"duration":0.1094890000000035,"midi":79,"time":52.00727499999999,"velocity":0.31496062992125984},{"duration":0.1094890000000035,"midi":87,"time":52.00727499999999,"velocity":0.31496062992125984},{"duration":0.1094890000000035,"midi":58,"time":52.00727499999999,"velocity":0.31496062992125984},{"duration":0.1094890000000035,"midi":87,"time":52.171508499999995,"velocity":0.31496062992125984},{"duration":0.1094890000000035,"midi":79,"time":52.171508499999995,"velocity":0.31496062992125984},{"duration":0.1094890000000035,"midi":58,"time":52.171508499999995,"velocity":0.31496062992125984},{"duration":0.1094889999999964,"midi":79,"time":52.335741999999996,"velocity":0.31496062992125984},{"duration":0.1094889999999964,"midi":58,"time":52.335741999999996,"velocity":0.31496062992125984},{"duration":0.1094889999999964,"midi":87,"time":52.335741999999996,"velocity":0.31496062992125984},{"duration":0.1094889999999964,"midi":87,"time":52.554719999999996,"velocity":0.31496062992125984},{"duration":0.1094889999999964,"midi":79,"time":52.554719999999996,"velocity":0.31496062992125984},{"duration":0.1094889999999964,"midi":58,"time":52.554719999999996,"velocity":0.31496062992125984},{"duration":0.1094890000000035,"midi":87,"time":52.66420899999999,"velocity":0.31496062992125984},{"duration":0.1094890000000035,"midi":79,"time":52.66420899999999,"velocity":0.31496062992125984},{"duration":0.1094890000000035,"midi":58,"time":52.66420899999999,"velocity":0.31496062992125984},{"duration":0.1094890000000035,"midi":87,"time":52.88318699999999,"velocity":0.31496062992125984},{"duration":0.1094890000000035,"midi":79,"time":52.88318699999999,"velocity":0.31496062992125984},{"duration":0.1094890000000035,"midi":58,"time":52.88318699999999,"velocity":0.31496062992125984},{"duration":0.1094890000000035,"midi":87,"time":53.047420499999994,"velocity":0.31496062992125984},{"duration":0.1094890000000035,"midi":79,"time":53.047420499999994,"velocity":0.31496062992125984},{"duration":0.1094890000000035,"midi":58,"time":53.047420499999994,"velocity":0.31496062992125984},{"duration":0.1094889999999964,"midi":87,"time":53.211653999999996,"velocity":0.31496062992125984},{"duration":0.1094889999999964,"midi":79,"time":53.211653999999996,"velocity":0.31496062992125984},{"duration":0.1094889999999964,"midi":58,"time":53.211653999999996,"velocity":0.31496062992125984},{"duration":0.1094889999999964,"midi":58,"time":53.430631999999996,"velocity":0.31496062992125984},{"duration":0.1094889999999964,"midi":87,"time":53.430631999999996,"velocity":0.31496062992125984},{"duration":0.1094889999999964,"midi":79,"time":53.430631999999996,"velocity":0.31496062992125984},{"duration":0.1094890000000035,"midi":87,"time":53.54012099999999,"velocity":0.31496062992125984},{"duration":0.1094890000000035,"midi":79,"time":53.54012099999999,"velocity":0.31496062992125984},{"duration":0.1094890000000035,"midi":58,"time":53.54012099999999,"velocity":0.31496062992125984},{"duration":0.1094890000000035,"midi":87,"time":53.75909899999999,"velocity":0.31496062992125984},{"duration":0.1094890000000035,"midi":58,"time":53.75909899999999,"velocity":0.31496062992125984},{"duration":0.1094890000000035,"midi":79,"time":53.75909899999999,"velocity":0.31496062992125984},{"duration":0.1094890000000035,"midi":87,"time":53.923332499999994,"velocity":0.31496062992125984},{"duration":0.1094890000000035,"midi":79,"time":53.923332499999994,"velocity":0.31496062992125984},{"duration":0.1094890000000035,"midi":58,"time":53.923332499999994,"velocity":0.31496062992125984},{"duration":0.1094889999999964,"midi":87,"time":54.087565999999995,"velocity":0.31496062992125984},{"duration":0.1094889999999964,"midi":79,"time":54.087565999999995,"velocity":0.31496062992125984},{"duration":0.1094889999999964,"midi":58,"time":54.087565999999995,"velocity":0.31496062992125984},{"duration":0.1094890000000035,"midi":79,"time":56.058367999999994,"velocity":0.31496062992125984},{"duration":0.1094890000000035,"midi":58,"time":56.058367999999994,"velocity":0.31496062992125984},{"duration":0.1094890000000035,"midi":87,"time":56.058367999999994,"velocity":0.31496062992125984},{"duration":0.1094889999999964,"midi":79,"time":56.167857,"velocity":0.31496062992125984},{"duration":0.1094889999999964,"midi":58,"time":56.167857,"velocity":0.31496062992125984},{"duration":0.1094889999999964,"midi":87,"time":56.167857,"velocity":0.31496062992125984},{"duration":0.1094890000000035,"midi":79,"time":56.277345999999994,"velocity":0.31496062992125984},{"duration":0.1094890000000035,"midi":58,"time":56.277345999999994,"velocity":0.31496062992125984},{"duration":0.1094890000000035,"midi":87,"time":56.277345999999994,"velocity":0.31496062992125984},{"duration":0.1094889999999964,"midi":58,"time":56.386835,"velocity":0.31496062992125984},{"duration":0.1094889999999964,"midi":79,"time":56.386835,"velocity":0.31496062992125984},{"duration":0.1094889999999964,"midi":87,"time":56.386835,"velocity":0.31496062992125984},{"duration":0.1094890000000035,"midi":87,"time":56.496323999999994,"velocity":0.31496062992125984},{"duration":0.1094890000000035,"midi":79,"time":56.496323999999994,"velocity":0.31496062992125984},{"duration":0.1094890000000035,"midi":58,"time":56.496323999999994,"velocity":0.31496062992125984},{"duration":0.1094889999999964,"midi":87,"time":56.605813,"velocity":0.31496062992125984},{"duration":0.1094889999999964,"midi":58,"time":56.605813,"velocity":0.31496062992125984},{"duration":0.1094889999999964,"midi":79,"time":56.605813,"velocity":0.31496062992125984},{"duration":0.1094890000000035,"midi":79,"time":56.715301999999994,"velocity":0.31496062992125984},{"duration":0.1094890000000035,"midi":87,"time":56.715301999999994,"velocity":0.31496062992125984},{"duration":0.1094890000000035,"midi":58,"time":56.715301999999994,"velocity":0.31496062992125984},{"duration":0.1094889999999964,"midi":87,"time":56.824791,"velocity":0.31496062992125984},{"duration":0.1094889999999964,"midi":79,"time":56.824791,"velocity":0.31496062992125984},{"duration":0.1094889999999964,"midi":58,"time":56.824791,"velocity":0.31496062992125984},{"duration":0.1094890000000035,"midi":79,"time":56.934279999999994,"velocity":0.31496062992125984},{"duration":0.1094890000000035,"midi":87,"time":56.934279999999994,"velocity":0.31496062992125984},{"duration":0.1094890000000035,"midi":58,"time":56.934279999999994,"velocity":0.31496062992125984},{"duration":0.1094889999999964,"midi":87,"time":57.043769,"velocity":0.31496062992125984},{"duration":0.1094889999999964,"midi":79,"time":57.043769,"velocity":0.31496062992125984},{"duration":0.1094889999999964,"midi":58,"time":57.043769,"velocity":0.31496062992125984},{"duration":0.1094890000000035,"midi":79,"time":57.153257999999994,"velocity":0.31496062992125984},{"duration":0.1094890000000035,"midi":87,"time":57.153257999999994,"velocity":0.31496062992125984},{"duration":0.1094890000000035,"midi":58,"time":57.153257999999994,"velocity":0.31496062992125984},{"duration":0.1094889999999964,"midi":87,"time":57.262747,"velocity":0.31496062992125984},{"duration":0.1094889999999964,"midi":79,"time":57.262747,"velocity":0.31496062992125984},{"duration":0.1094889999999964,"midi":58,"time":57.262747,"velocity":0.31496062992125984},{"duration":0.1094890000000035,"midi":58,"time":57.372235999999994,"velocity":0.31496062992125984},{"duration":0.1094890000000035,"midi":79,"time":57.372235999999994,"velocity":0.31496062992125984},{"duration":0.1094890000000035,"midi":87,"time":57.372235999999994,"velocity":0.31496062992125984},{"duration":0.1094889999999964,"midi":87,"time":57.481725,"velocity":0.31496062992125984},{"duration":0.1094889999999964,"midi":58,"time":57.481725,"velocity":0.31496062992125984},{"duration":0.1094889999999964,"midi":79,"time":57.481725,"velocity":0.31496062992125984},{"duration":0.1094890000000035,"midi":58,"time":57.591213999999994,"velocity":0.31496062992125984},{"duration":0.1094890000000035,"midi":87,"time":57.591213999999994,"velocity":0.31496062992125984},{"duration":0.1094890000000035,"midi":79,"time":57.591213999999994,"velocity":0.31496062992125984},{"duration":0.1094889999999964,"midi":79,"time":57.700703,"velocity":0.31496062992125984},{"duration":0.1094889999999964,"midi":58,"time":57.700703,"velocity":0.31496062992125984},{"duration":0.1094889999999964,"midi":87,"time":57.700703,"velocity":0.31496062992125984},{"duration":0.1094890000000035,"midi":87,"time":57.810191999999994,"velocity":0.31496062992125984},{"duration":0.1094890000000035,"midi":79,"time":57.810191999999994,"velocity":0.31496062992125984},{"duration":0.1094890000000035,"midi":58,"time":57.810191999999994,"velocity":0.31496062992125984},{"duration":0.1094889999999964,"midi":58,"time":57.919681,"velocity":0.31496062992125984},{"duration":0.1094889999999964,"midi":87,"time":57.919681,"velocity":0.31496062992125984},{"duration":0.1094889999999964,"midi":79,"time":57.919681,"velocity":0.31496062992125984},{"duration":0.1094890000000035,"midi":79,"time":58.02916999999999,"velocity":0.31496062992125984},{"duration":0.1094890000000035,"midi":87,"time":58.02916999999999,"velocity":0.31496062992125984},{"duration":0.1094890000000035,"midi":58,"time":58.02916999999999,"velocity":0.31496062992125984},{"duration":0.1094889999999964,"midi":87,"time":58.138659,"velocity":0.31496062992125984},{"duration":0.1094889999999964,"midi":58,"time":58.138659,"velocity":0.31496062992125984},{"duration":0.1094889999999964,"midi":79,"time":58.138659,"velocity":0.31496062992125984},{"duration":0.1094890000000035,"midi":87,"time":58.24814799999999,"velocity":0.31496062992125984},{"duration":0.1094890000000035,"midi":79,"time":58.24814799999999,"velocity":0.31496062992125984},{"duration":0.1094890000000035,"midi":58,"time":58.24814799999999,"velocity":0.31496062992125984},{"duration":0.1094889999999964,"midi":58,"time":58.357637,"velocity":0.31496062992125984},{"duration":0.1094889999999964,"midi":87,"time":58.357637,"velocity":0.31496062992125984},{"duration":0.1094889999999964,"midi":79,"time":58.357637,"velocity":0.31496062992125984},{"duration":0.1094890000000035,"midi":87,"time":58.46712599999999,"velocity":0.31496062992125984},{"duration":0.1094890000000035,"midi":79,"time":58.46712599999999,"velocity":0.31496062992125984},{"duration":0.1094890000000035,"midi":58,"time":58.46712599999999,"velocity":0.31496062992125984},{"duration":0.1094889999999964,"midi":58,"time":58.576615,"velocity":0.31496062992125984},{"duration":0.1094889999999964,"midi":87,"time":58.576615,"velocity":0.31496062992125984},{"duration":0.1094889999999964,"midi":79,"time":58.576615,"velocity":0.31496062992125984},{"duration":0.1094890000000035,"midi":79,"time":58.68610399999999,"velocity":0.31496062992125984},{"duration":0.1094890000000035,"midi":87,"time":58.68610399999999,"velocity":0.31496062992125984},{"duration":0.1094890000000035,"midi":58,"time":58.68610399999999,"velocity":0.31496062992125984},{"duration":0.1094889999999964,"midi":87,"time":58.795593,"velocity":0.31496062992125984},{"duration":0.1094889999999964,"midi":79,"time":58.795593,"velocity":0.31496062992125984},{"duration":0.1094889999999964,"midi":58,"time":58.795593,"velocity":0.31496062992125984},{"duration":0.1094890000000035,"midi":58,"time":58.90508199999999,"velocity":0.31496062992125984},{"duration":0.1094890000000035,"midi":79,"time":58.90508199999999,"velocity":0.31496062992125984},{"duration":0.1094890000000035,"midi":87,"time":58.90508199999999,"velocity":0.31496062992125984},{"duration":0.1094889999999964,"midi":58,"time":59.014571,"velocity":0.31496062992125984},{"duration":0.1094889999999964,"midi":79,"time":59.014571,"velocity":0.31496062992125984},{"duration":0.1094889999999964,"midi":87,"time":59.014571,"velocity":0.31496062992125984},{"duration":0.1094890000000035,"midi":79,"time":59.12405999999999,"velocity":0.31496062992125984},{"duration":0.1094890000000035,"midi":87,"time":59.12405999999999,"velocity":0.31496062992125984},{"duration":0.1094890000000035,"midi":58,"time":59.12405999999999,"velocity":0.31496062992125984},{"duration":0.1094889999999964,"midi":87,"time":59.233549,"velocity":0.31496062992125984},{"duration":0.1094889999999964,"midi":79,"time":59.233549,"velocity":0.31496062992125984},{"duration":0.1094889999999964,"midi":58,"time":59.233549,"velocity":0.31496062992125984},{"duration":0.1094890000000035,"midi":87,"time":59.34303799999999,"velocity":0.31496062992125984},{"duration":0.1094890000000035,"midi":79,"time":59.34303799999999,"velocity":0.31496062992125984},{"duration":0.1094890000000035,"midi":58,"time":59.34303799999999,"velocity":0.31496062992125984},{"duration":0.1094889999999964,"midi":58,"time":59.452526999999996,"velocity":0.31496062992125984},{"duration":0.1094889999999964,"midi":79,"time":59.452526999999996,"velocity":0.31496062992125984},{"duration":0.1094889999999964,"midi":87,"time":59.452526999999996,"velocity":0.31496062992125984},{"duration":0.1094890000000035,"midi":58,"time":59.56201599999999,"velocity":0.31496062992125984},{"duration":0.1094890000000035,"midi":79,"time":59.56201599999999,"velocity":0.31496062992125984},{"duration":0.1094890000000035,"midi":87,"time":59.56201599999999,"velocity":0.31496062992125984},{"duration":0.1094889999999964,"midi":58,"time":59.671504999999996,"velocity":0.31496062992125984},{"duration":0.1094889999999964,"midi":79,"time":59.671504999999996,"velocity":0.31496062992125984},{"duration":0.1094889999999964,"midi":87,"time":59.671504999999996,"velocity":0.31496062992125984},{"duration":0.1094890000000035,"midi":58,"time":59.78099399999999,"velocity":0.31496062992125984},{"duration":0.1094890000000035,"midi":79,"time":59.78099399999999,"velocity":0.31496062992125984},{"duration":0.1094890000000035,"midi":87,"time":59.78099399999999,"velocity":0.31496062992125984},{"duration":0.1094889999999964,"midi":79,"time":59.890482999999996,"velocity":0.31496062992125984},{"duration":0.1094889999999964,"midi":58,"time":59.890482999999996,"velocity":0.31496062992125984},{"duration":0.1094889999999964,"midi":87,"time":59.890482999999996,"velocity":0.31496062992125984},{"duration":0.1094890000000035,"midi":58,"time":59.99997199999999,"velocity":0.31496062992125984},{"duration":0.1094890000000035,"midi":79,"time":59.99997199999999,"velocity":0.31496062992125984},{"duration":0.1094890000000035,"midi":87,"time":59.99997199999999,"velocity":0.31496062992125984},{"duration":0.1094889999999964,"midi":87,"time":60.109460999999996,"velocity":0.31496062992125984},{"duration":0.1094889999999964,"midi":79,"time":60.109460999999996,"velocity":0.31496062992125984},{"duration":0.1094889999999964,"midi":58,"time":60.109460999999996,"velocity":0.31496062992125984},{"duration":0.1094890000000035,"midi":79,"time":60.21894999999999,"velocity":0.31496062992125984},{"duration":0.1094890000000035,"midi":58,"time":60.21894999999999,"velocity":0.31496062992125984},{"duration":0.1094890000000035,"midi":87,"time":60.21894999999999,"velocity":0.31496062992125984},{"duration":0.1094889999999964,"midi":58,"time":60.328438999999996,"velocity":0.31496062992125984},{"duration":0.1094889999999964,"midi":79,"time":60.328438999999996,"velocity":0.31496062992125984},{"duration":0.1094889999999964,"midi":87,"time":60.328438999999996,"velocity":0.31496062992125984},{"duration":0.1094890000000035,"midi":87,"time":60.43792799999999,"velocity":0.31496062992125984},{"duration":0.1094890000000035,"midi":79,"time":60.43792799999999,"velocity":0.31496062992125984},{"duration":0.1094890000000035,"midi":58,"time":60.43792799999999,"velocity":0.31496062992125984},{"duration":0.1094889999999964,"midi":79,"time":60.547416999999996,"velocity":0.31496062992125984},{"duration":0.1094889999999964,"midi":58,"time":60.547416999999996,"velocity":0.31496062992125984},{"duration":0.1094889999999964,"midi":87,"time":60.547416999999996,"velocity":0.31496062992125984},{"duration":0.1094890000000035,"midi":87,"time":60.65690599999999,"velocity":0.31496062992125984},{"duration":0.1094890000000035,"midi":79,"time":60.65690599999999,"velocity":0.31496062992125984},{"duration":0.1094890000000035,"midi":58,"time":60.65690599999999,"velocity":0.31496062992125984},{"duration":0.1094889999999964,"midi":79,"time":60.766394999999996,"velocity":0.31496062992125984},{"duration":0.1094889999999964,"midi":87,"time":60.766394999999996,"velocity":0.31496062992125984},{"duration":0.1094889999999964,"midi":58,"time":60.766394999999996,"velocity":0.31496062992125984},{"duration":0.1094890000000035,"midi":79,"time":60.87588399999999,"velocity":0.31496062992125984},{"duration":0.1094890000000035,"midi":58,"time":60.87588399999999,"velocity":0.31496062992125984},{"duration":0.1094890000000035,"midi":87,"time":60.87588399999999,"velocity":0.31496062992125984},{"duration":0.1094889999999964,"midi":87,"time":60.985372999999996,"velocity":0.31496062992125984},{"duration":0.1094889999999964,"midi":79,"time":60.985372999999996,"velocity":0.31496062992125984},{"duration":0.1094889999999964,"midi":58,"time":60.985372999999996,"velocity":0.31496062992125984},{"duration":0.1094890000000035,"midi":87,"time":61.09486199999999,"velocity":0.31496062992125984},{"duration":0.1094890000000035,"midi":79,"time":61.09486199999999,"velocity":0.31496062992125984},{"duration":0.1094890000000035,"midi":58,"time":61.09486199999999,"velocity":0.31496062992125984},{"duration":0.1094889999999964,"midi":58,"time":61.204350999999996,"velocity":0.31496062992125984},{"duration":0.1094889999999964,"midi":87,"time":61.204350999999996,"velocity":0.31496062992125984},{"duration":0.1094889999999964,"midi":79,"time":61.204350999999996,"velocity":0.31496062992125984},{"duration":0.1094890000000035,"midi":87,"time":61.31383999999999,"velocity":0.31496062992125984},{"duration":0.1094890000000035,"midi":79,"time":61.31383999999999,"velocity":0.31496062992125984},{"duration":0.1094890000000035,"midi":58,"time":61.31383999999999,"velocity":0.31496062992125984},{"duration":0.1094889999999964,"midi":87,"time":61.423328999999995,"velocity":0.31496062992125984},{"duration":0.1094889999999964,"midi":58,"time":61.423328999999995,"velocity":0.31496062992125984},{"duration":0.1094889999999964,"midi":79,"time":61.423328999999995,"velocity":0.31496062992125984},{"duration":0.1094890000000035,"midi":87,"time":61.53281799999999,"velocity":0.31496062992125984},{"duration":0.1094890000000035,"midi":79,"time":61.53281799999999,"velocity":0.31496062992125984},{"duration":0.1094890000000035,"midi":58,"time":61.53281799999999,"velocity":0.31496062992125984},{"duration":0.1094889999999964,"midi":87,"time":61.642306999999995,"velocity":0.31496062992125984},{"duration":0.1094889999999964,"midi":79,"time":61.642306999999995,"velocity":0.31496062992125984},{"duration":0.1094889999999964,"midi":58,"time":61.642306999999995,"velocity":0.31496062992125984},{"duration":0.1094890000000035,"midi":58,"time":61.75179599999999,"velocity":0.31496062992125984},{"duration":0.1094890000000035,"midi":79,"time":61.75179599999999,"velocity":0.31496062992125984},{"duration":0.1094890000000035,"midi":87,"time":61.75179599999999,"velocity":0.31496062992125984},{"duration":0.1094889999999964,"midi":87,"time":61.861284999999995,"velocity":0.31496062992125984},{"duration":0.1094889999999964,"midi":79,"time":61.861284999999995,"velocity":0.31496062992125984},{"duration":0.1094889999999964,"midi":58,"time":61.861284999999995,"velocity":0.31496062992125984},{"duration":0.1094890000000035,"midi":58,"time":61.97077399999999,"velocity":0.31496062992125984},{"duration":0.1094890000000035,"midi":87,"time":61.97077399999999,"velocity":0.31496062992125984},{"duration":0.1094890000000035,"midi":79,"time":61.97077399999999,"velocity":0.31496062992125984},{"duration":0.1094889999999964,"midi":58,"time":62.080262999999995,"velocity":0.31496062992125984},{"duration":0.1094889999999964,"midi":79,"time":62.080262999999995,"velocity":0.31496062992125984},{"duration":0.1094889999999964,"midi":87,"time":62.080262999999995,"velocity":0.31496062992125984},{"duration":0.1094890000000035,"midi":87,"time":62.18975199999999,"velocity":0.31496062992125984},{"duration":0.1094890000000035,"midi":79,"time":62.18975199999999,"velocity":0.31496062992125984},{"duration":0.1094890000000035,"midi":58,"time":62.18975199999999,"velocity":0.31496062992125984},{"duration":0.1094889999999964,"midi":87,"time":62.299240999999995,"velocity":0.31496062992125984},{"duration":0.1094889999999964,"midi":58,"time":62.299240999999995,"velocity":0.31496062992125984},{"duration":0.1094889999999964,"midi":79,"time":62.299240999999995,"velocity":0.31496062992125984},{"duration":0.1094890000000035,"midi":79,"time":62.40872999999999,"velocity":0.31496062992125984},{"duration":0.1094890000000035,"midi":87,"time":62.40872999999999,"velocity":0.31496062992125984},{"duration":0.1094890000000035,"midi":58,"time":62.40872999999999,"velocity":0.31496062992125984},{"duration":0.1094889999999964,"midi":79,"time":62.518218999999995,"velocity":0.31496062992125984},{"duration":0.1094889999999964,"midi":58,"time":62.518218999999995,"velocity":0.31496062992125984},{"duration":0.1094889999999964,"midi":87,"time":62.518218999999995,"velocity":0.31496062992125984},{"duration":0.1094890000000035,"midi":58,"time":62.62770799999999,"velocity":0.31496062992125984},{"duration":0.1094890000000035,"midi":87,"time":62.62770799999999,"velocity":0.31496062992125984},{"duration":0.1094890000000035,"midi":79,"time":62.62770799999999,"velocity":0.31496062992125984},{"duration":0.1094889999999964,"midi":58,"time":62.737196999999995,"velocity":0.31496062992125984},{"duration":0.1094889999999964,"midi":87,"time":62.737196999999995,"velocity":0.31496062992125984},{"duration":0.1094889999999964,"midi":79,"time":62.737196999999995,"velocity":0.31496062992125984},{"duration":0.1094890000000035,"midi":58,"time":62.84668599999999,"velocity":0.31496062992125984},{"duration":0.1094890000000035,"midi":79,"time":62.84668599999999,"velocity":0.31496062992125984},{"duration":0.1094890000000035,"midi":87,"time":62.84668599999999,"velocity":0.31496062992125984},{"duration":0.1094889999999964,"midi":79,"time":62.956174999999995,"velocity":0.31496062992125984},{"duration":0.1094889999999964,"midi":87,"time":62.956174999999995,"velocity":0.31496062992125984},{"duration":0.1094889999999964,"midi":58,"time":62.956174999999995,"velocity":0.31496062992125984},{"duration":0.1094890000000035,"midi":87,"time":63.06566399999999,"velocity":0.31496062992125984},{"duration":0.1094890000000035,"midi":79,"time":63.06566399999999,"velocity":0.31496062992125984},{"duration":0.1094890000000035,"midi":58,"time":63.06566399999999,"velocity":0.31496062992125984},{"duration":0.1094889999999964,"midi":79,"time":63.175152999999995,"velocity":0.31496062992125984},{"duration":0.1094889999999964,"midi":58,"time":63.175152999999995,"velocity":0.31496062992125984},{"duration":0.1094889999999964,"midi":87,"time":63.175152999999995,"velocity":0.31496062992125984},{"duration":0.1094890000000035,"midi":58,"time":63.28464199999999,"velocity":0.31496062992125984},{"duration":0.1094890000000035,"midi":87,"time":63.28464199999999,"velocity":0.31496062992125984},{"duration":0.1094890000000035,"midi":79,"time":63.28464199999999,"velocity":0.31496062992125984},{"duration":0.1094889999999964,"midi":79,"time":63.394130999999994,"velocity":0.31496062992125984},{"duration":0.1094889999999964,"midi":58,"time":63.394130999999994,"velocity":0.31496062992125984},{"duration":0.1094889999999964,"midi":87,"time":63.394130999999994,"velocity":0.31496062992125984},{"duration":0.1094890000000035,"midi":79,"time":63.50361999999999,"velocity":0.31496062992125984},{"duration":0.1094890000000035,"midi":87,"time":63.50361999999999,"velocity":0.31496062992125984},{"duration":0.1094890000000035,"midi":58,"time":63.50361999999999,"velocity":0.31496062992125984},{"duration":0.1094889999999964,"midi":87,"time":63.613108999999994,"velocity":0.31496062992125984},{"duration":0.1094889999999964,"midi":58,"time":63.613108999999994,"velocity":0.31496062992125984},{"duration":0.1094889999999964,"midi":79,"time":63.613108999999994,"velocity":0.31496062992125984},{"duration":0.1094890000000035,"midi":79,"time":63.72259799999999,"velocity":0.31496062992125984},{"duration":0.1094890000000035,"midi":87,"time":63.72259799999999,"velocity":0.31496062992125984},{"duration":0.1094890000000035,"midi":58,"time":63.72259799999999,"velocity":0.31496062992125984},{"duration":0.1094889999999964,"midi":87,"time":63.832086999999994,"velocity":0.31496062992125984},{"duration":0.1094889999999964,"midi":58,"time":63.832086999999994,"velocity":0.31496062992125984},{"duration":0.1094889999999964,"midi":79,"time":63.832086999999994,"velocity":0.31496062992125984},{"duration":0.1094890000000035,"midi":79,"time":63.94157599999999,"velocity":0.31496062992125984},{"duration":0.1094890000000035,"midi":58,"time":63.94157599999999,"velocity":0.31496062992125984},{"duration":0.1094890000000035,"midi":87,"time":63.94157599999999,"velocity":0.31496062992125984},{"duration":0.1094889999999964,"midi":87,"time":64.051065,"velocity":0.31496062992125984},{"duration":0.1094889999999964,"midi":58,"time":64.051065,"velocity":0.31496062992125984},{"duration":0.1094889999999964,"midi":79,"time":64.051065,"velocity":0.31496062992125984},{"duration":0.1094889999999964,"midi":87,"time":64.16055399999999,"velocity":0.31496062992125984},{"duration":0.1094889999999964,"midi":79,"time":64.16055399999999,"velocity":0.31496062992125984},{"duration":0.1094889999999964,"midi":58,"time":64.16055399999999,"velocity":0.31496062992125984},{"duration":0.1094890000000106,"midi":87,"time":64.27004299999999,"velocity":0.31496062992125984},{"duration":0.1094890000000106,"midi":79,"time":64.27004299999999,"velocity":0.31496062992125984},{"duration":0.1094890000000106,"midi":58,"time":64.27004299999999,"velocity":0.31496062992125984},{"duration":0.1094889999999964,"midi":58,"time":64.379532,"velocity":0.31496062992125984},{"duration":0.1094889999999964,"midi":87,"time":64.379532,"velocity":0.31496062992125984},{"duration":0.1094889999999964,"midi":79,"time":64.379532,"velocity":0.31496062992125984},{"duration":0.1094889999999964,"midi":87,"time":64.489021,"velocity":0.31496062992125984},{"duration":0.1094889999999964,"midi":79,"time":64.489021,"velocity":0.31496062992125984},{"duration":0.1094889999999964,"midi":58,"time":64.489021,"velocity":0.31496062992125984},{"duration":0.1094889999999964,"midi":58,"time":64.59850999999999,"velocity":0.31496062992125984},{"duration":0.1094889999999964,"midi":87,"time":64.59850999999999,"velocity":0.31496062992125984},{"duration":0.1094889999999964,"midi":79,"time":64.59850999999999,"velocity":0.31496062992125984},{"duration":0.1094890000000106,"midi":87,"time":64.70799899999999,"velocity":0.31496062992125984},{"duration":0.1094890000000106,"midi":58,"time":64.70799899999999,"velocity":0.31496062992125984},{"duration":0.1094890000000106,"midi":79,"time":64.70799899999999,"velocity":0.31496062992125984},{"duration":0.1094889999999964,"midi":87,"time":64.817488,"velocity":0.31496062992125984},{"duration":0.1094889999999964,"midi":58,"time":64.817488,"velocity":0.31496062992125984},{"duration":0.1094889999999964,"midi":79,"time":64.817488,"velocity":0.31496062992125984},{"duration":0.1094889999999964,"midi":79,"time":64.926977,"velocity":0.31496062992125984},{"duration":0.1094889999999964,"midi":58,"time":64.926977,"velocity":0.31496062992125984},{"duration":0.1094889999999964,"midi":87,"time":64.926977,"velocity":0.31496062992125984},{"duration":0.1094889999999964,"midi":87,"time":65.03646599999999,"velocity":0.31496062992125984},{"duration":0.1094889999999964,"midi":79,"time":65.03646599999999,"velocity":0.31496062992125984},{"duration":0.1094889999999964,"midi":58,"time":65.03646599999999,"velocity":0.31496062992125984},{"duration":0.1094890000000106,"midi":87,"time":65.14595499999999,"velocity":0.31496062992125984},{"duration":0.1094890000000106,"midi":79,"time":65.14595499999999,"velocity":0.31496062992125984},{"duration":0.1094890000000106,"midi":58,"time":65.14595499999999,"velocity":0.31496062992125984},{"duration":0.1094889999999964,"midi":58,"time":65.255444,"velocity":0.31496062992125984},{"duration":0.1094889999999964,"midi":87,"time":65.255444,"velocity":0.31496062992125984},{"duration":0.1094889999999964,"midi":79,"time":65.255444,"velocity":0.31496062992125984},{"duration":0.1094889999999964,"midi":87,"time":65.364933,"velocity":0.31496062992125984},{"duration":0.1094889999999964,"midi":79,"time":65.364933,"velocity":0.31496062992125984},{"duration":0.1094889999999964,"midi":58,"time":65.364933,"velocity":0.31496062992125984},{"duration":0.1094890000000106,"midi":87,"time":65.47442199999999,"velocity":0.31496062992125984},{"duration":0.1094890000000106,"midi":58,"time":65.47442199999999,"velocity":0.31496062992125984},{"duration":0.1094890000000106,"midi":79,"time":65.47442199999999,"velocity":0.31496062992125984},{"duration":0.1094889999999964,"midi":79,"time":65.583911,"velocity":0.31496062992125984},{"duration":0.1094889999999964,"midi":87,"time":65.583911,"velocity":0.31496062992125984},{"duration":0.1094889999999964,"midi":58,"time":65.583911,"velocity":0.31496062992125984},{"duration":0.1094889999999964,"midi":87,"time":65.6934,"velocity":0.31496062992125984},{"duration":0.1094889999999964,"midi":79,"time":65.6934,"velocity":0.31496062992125984},{"duration":0.1094889999999964,"midi":58,"time":65.6934,"velocity":0.31496062992125984},{"duration":0.1094889999999964,"midi":79,"time":65.802889,"velocity":0.31496062992125984},{"duration":0.1094889999999964,"midi":58,"time":65.802889,"velocity":0.31496062992125984},{"duration":0.1094889999999964,"midi":87,"time":65.802889,"velocity":0.31496062992125984},{"duration":0.1094890000000106,"midi":79,"time":65.91237799999999,"velocity":0.31496062992125984},{"duration":0.1094890000000106,"midi":87,"time":65.91237799999999,"velocity":0.31496062992125984},{"duration":0.1094890000000106,"midi":58,"time":65.91237799999999,"velocity":0.31496062992125984},{"duration":0.1094889999999964,"midi":79,"time":66.021867,"velocity":0.31496062992125984},{"duration":0.1094889999999964,"midi":58,"time":66.021867,"velocity":0.31496062992125984},{"duration":0.1094889999999964,"midi":87,"time":66.021867,"velocity":0.31496062992125984},{"duration":0.1094889999999964,"midi":58,"time":66.131356,"velocity":0.31496062992125984},{"duration":0.1094889999999964,"midi":87,"time":66.131356,"velocity":0.31496062992125984},{"duration":0.1094889999999964,"midi":79,"time":66.131356,"velocity":0.31496062992125984},{"duration":0.1094889999999964,"midi":87,"time":66.240845,"velocity":0.31496062992125984},{"duration":0.1094889999999964,"midi":79,"time":66.240845,"velocity":0.31496062992125984},{"duration":0.1094889999999964,"midi":58,"time":66.240845,"velocity":0.31496062992125984},{"duration":0.1094890000000106,"midi":87,"time":66.35033399999999,"velocity":0.31496062992125984},{"duration":0.1094890000000106,"midi":79,"time":66.35033399999999,"velocity":0.31496062992125984},{"duration":0.1094890000000106,"midi":58,"time":66.35033399999999,"velocity":0.31496062992125984},{"duration":0.1094889999999964,"midi":87,"time":66.459823,"velocity":0.31496062992125984},{"duration":0.1094889999999964,"midi":79,"time":66.459823,"velocity":0.31496062992125984},{"duration":0.1094889999999964,"midi":58,"time":66.459823,"velocity":0.31496062992125984},{"duration":0.1094889999999964,"midi":87,"time":66.569312,"velocity":0.31496062992125984},{"duration":0.1094889999999964,"midi":79,"time":66.569312,"velocity":0.31496062992125984},{"duration":0.1094889999999964,"midi":58,"time":66.569312,"velocity":0.31496062992125984},{"duration":0.1094889999999964,"midi":79,"time":66.67880099999999,"velocity":0.31496062992125984},{"duration":0.1094889999999964,"midi":87,"time":66.67880099999999,"velocity":0.31496062992125984},{"duration":0.1094889999999964,"midi":58,"time":66.67880099999999,"velocity":0.31496062992125984},{"duration":0.1094890000000106,"midi":79,"time":66.78828999999999,"velocity":0.31496062992125984},{"duration":0.1094890000000106,"midi":58,"time":66.78828999999999,"velocity":0.31496062992125984},{"duration":0.1094890000000106,"midi":87,"time":66.78828999999999,"velocity":0.31496062992125984},{"duration":0.1094889999999964,"midi":79,"time":66.897779,"velocity":0.31496062992125984},{"duration":0.1094889999999964,"midi":58,"time":66.897779,"velocity":0.31496062992125984},{"duration":0.1094889999999964,"midi":87,"time":66.897779,"velocity":0.31496062992125984},{"duration":0.1094889999999964,"midi":79,"time":67.007268,"velocity":0.31496062992125984},{"duration":0.1094889999999964,"midi":58,"time":67.007268,"velocity":0.31496062992125984},{"duration":0.1094889999999964,"midi":87,"time":67.007268,"velocity":0.31496062992125984},{"duration":0.1094889999999964,"midi":79,"time":67.11675699999999,"velocity":0.31496062992125984},{"duration":0.1094889999999964,"midi":58,"time":67.11675699999999,"velocity":0.31496062992125984},{"duration":0.1094889999999964,"midi":87,"time":67.11675699999999,"velocity":0.31496062992125984},{"duration":0.1094890000000106,"midi":58,"time":67.22624599999999,"velocity":0.31496062992125984},{"duration":0.1094890000000106,"midi":79,"time":67.22624599999999,"velocity":0.31496062992125984},{"duration":0.1094890000000106,"midi":87,"time":67.22624599999999,"velocity":0.31496062992125984},{"duration":0.1094889999999964,"midi":87,"time":67.335735,"velocity":0.31496062992125984},{"duration":0.1094889999999964,"midi":79,"time":67.335735,"velocity":0.31496062992125984},{"duration":0.1094889999999964,"midi":58,"time":67.335735,"velocity":0.31496062992125984},{"duration":0.1094889999999964,"midi":87,"time":67.445224,"velocity":0.31496062992125984},{"duration":0.1094889999999964,"midi":58,"time":67.445224,"velocity":0.31496062992125984},{"duration":0.1094889999999964,"midi":79,"time":67.445224,"velocity":0.31496062992125984},{"duration":0.1094889999999964,"midi":79,"time":67.55471299999999,"velocity":0.31496062992125984},{"duration":0.1094889999999964,"midi":87,"time":67.55471299999999,"velocity":0.31496062992125984},{"duration":0.1094889999999964,"midi":58,"time":67.55471299999999,"velocity":0.31496062992125984},{"duration":0.1094890000000106,"midi":79,"time":67.66420199999999,"velocity":0.31496062992125984},{"duration":0.1094890000000106,"midi":58,"time":67.66420199999999,"velocity":0.31496062992125984},{"duration":0.1094890000000106,"midi":87,"time":67.66420199999999,"velocity":0.31496062992125984},{"duration":0.1094889999999964,"midi":79,"time":67.773691,"velocity":0.31496062992125984},{"duration":0.1094889999999964,"midi":58,"time":67.773691,"velocity":0.31496062992125984},{"duration":0.1094889999999964,"midi":87,"time":67.773691,"velocity":0.31496062992125984},{"duration":0.1094889999999964,"midi":58,"time":67.88318,"velocity":0.31496062992125984},{"duration":0.1094889999999964,"midi":87,"time":67.88318,"velocity":0.31496062992125984},{"duration":0.1094889999999964,"midi":79,"time":67.88318,"velocity":0.31496062992125984},{"duration":0.1094889999999964,"midi":58,"time":67.99266899999999,"velocity":0.31496062992125984},{"duration":0.1094889999999964,"midi":79,"time":67.99266899999999,"velocity":0.31496062992125984},{"duration":0.1094889999999964,"midi":87,"time":67.99266899999999,"velocity":0.31496062992125984},{"duration":0.1094890000000106,"midi":58,"time":68.10215799999999,"velocity":0.31496062992125984},{"duration":0.1094890000000106,"midi":87,"time":68.10215799999999,"velocity":0.31496062992125984},{"duration":0.1094890000000106,"midi":79,"time":68.10215799999999,"velocity":0.31496062992125984},{"duration":0.1094889999999964,"midi":87,"time":68.211647,"velocity":0.31496062992125984},{"duration":0.1094889999999964,"midi":79,"time":68.211647,"velocity":0.31496062992125984},{"duration":0.1094889999999964,"midi":58,"time":68.211647,"velocity":0.31496062992125984},{"duration":0.1094889999999964,"midi":87,"time":68.321136,"velocity":0.31496062992125984},{"duration":0.1094889999999964,"midi":79,"time":68.321136,"velocity":0.31496062992125984},{"duration":0.1094889999999964,"midi":58,"time":68.321136,"velocity":0.31496062992125984},{"duration":0.1094889999999964,"midi":87,"time":68.43062499999999,"velocity":0.31496062992125984},{"duration":0.1094889999999964,"midi":79,"time":68.43062499999999,"velocity":0.31496062992125984},{"duration":0.1094889999999964,"midi":58,"time":68.43062499999999,"velocity":0.31496062992125984},{"duration":0.1094890000000106,"midi":58,"time":68.54011399999999,"velocity":0.31496062992125984},{"duration":0.1094890000000106,"midi":87,"time":68.54011399999999,"velocity":0.31496062992125984},{"duration":0.1094890000000106,"midi":79,"time":68.54011399999999,"velocity":0.31496062992125984},{"duration":0.1094889999999964,"midi":79,"time":68.649603,"velocity":0.31496062992125984},{"duration":0.1094889999999964,"midi":87,"time":68.649603,"velocity":0.31496062992125984},{"duration":0.1094889999999964,"midi":58,"time":68.649603,"velocity":0.31496062992125984},{"duration":0.1094889999999964,"midi":87,"time":68.759092,"velocity":0.31496062992125984},{"duration":0.1094889999999964,"midi":79,"time":68.759092,"velocity":0.31496062992125984},{"duration":0.1094889999999964,"midi":58,"time":68.759092,"velocity":0.31496062992125984},{"duration":0.1094889999999964,"midi":79,"time":68.86858099999999,"velocity":0.31496062992125984},{"duration":0.1094889999999964,"midi":58,"time":68.86858099999999,"velocity":0.31496062992125984},{"duration":0.1094889999999964,"midi":87,"time":68.86858099999999,"velocity":0.31496062992125984},{"duration":0.1094890000000106,"midi":58,"time":68.97806999999999,"velocity":0.31496062992125984},{"duration":0.1094890000000106,"midi":87,"time":68.97806999999999,"velocity":0.31496062992125984},{"duration":0.1094890000000106,"midi":79,"time":68.97806999999999,"velocity":0.31496062992125984},{"duration":0.1094889999999964,"midi":87,"time":69.087559,"velocity":0.31496062992125984},{"duration":0.1094889999999964,"midi":79,"time":69.087559,"velocity":0.31496062992125984},{"duration":0.1094889999999964,"midi":58,"time":69.087559,"velocity":0.31496062992125984},{"duration":0.1094889999999964,"midi":58,"time":69.197048,"velocity":0.31496062992125984},{"duration":0.1094889999999964,"midi":87,"time":69.197048,"velocity":0.31496062992125984},{"duration":0.1094889999999964,"midi":79,"time":69.197048,"velocity":0.31496062992125984},{"duration":0.1094889999999964,"midi":79,"time":69.30653699999999,"velocity":0.31496062992125984},{"duration":0.1094889999999964,"midi":58,"time":69.30653699999999,"velocity":0.31496062992125984},{"duration":0.1094889999999964,"midi":87,"time":69.30653699999999,"velocity":0.31496062992125984},{"duration":0.1094890000000106,"midi":87,"time":69.41602599999999,"velocity":0.31496062992125984},{"duration":0.1094890000000106,"midi":79,"time":69.41602599999999,"velocity":0.31496062992125984},{"duration":0.1094890000000106,"midi":58,"time":69.41602599999999,"velocity":0.31496062992125984},{"duration":0.1094889999999964,"midi":58,"time":69.525515,"velocity":0.31496062992125984},{"duration":0.1094889999999964,"midi":79,"time":69.525515,"velocity":0.31496062992125984},{"duration":0.1094889999999964,"midi":87,"time":69.525515,"velocity":0.31496062992125984},{"duration":0.1094889999999964,"midi":58,"time":69.635004,"velocity":0.31496062992125984},{"duration":0.1094889999999964,"midi":79,"time":69.635004,"velocity":0.31496062992125984},{"duration":0.1094889999999964,"midi":87,"time":69.635004,"velocity":0.31496062992125984},{"duration":0.1094889999999964,"midi":87,"time":69.74449299999999,"velocity":0.31496062992125984},{"duration":0.1094889999999964,"midi":58,"time":69.74449299999999,"velocity":0.31496062992125984},{"duration":0.1094889999999964,"midi":79,"time":69.74449299999999,"velocity":0.31496062992125984},{"duration":0.1094890000000106,"midi":58,"time":69.85398199999999,"velocity":0.31496062992125984},{"duration":0.1094890000000106,"midi":87,"time":69.85398199999999,"velocity":0.31496062992125984},{"duration":0.1094890000000106,"midi":79,"time":69.85398199999999,"velocity":0.31496062992125984},{"duration":0.1094889999999964,"midi":87,"time":69.963471,"velocity":0.31496062992125984},{"duration":0.1094889999999964,"midi":79,"time":69.963471,"velocity":0.31496062992125984},{"duration":0.1094889999999964,"midi":58,"time":69.963471,"velocity":0.31496062992125984},{"duration":0.1094889999999964,"midi":58,"time":70.07296,"velocity":0.31496062992125984},{"duration":0.1094889999999964,"midi":79,"time":70.07296,"velocity":0.31496062992125984},{"duration":0.1094889999999964,"midi":87,"time":70.07296,"velocity":0.31496062992125984},{"duration":0.1094889999999964,"midi":79,"time":70.18244899999999,"velocity":0.31496062992125984},{"duration":0.1094889999999964,"midi":58,"time":70.18244899999999,"velocity":0.31496062992125984},{"duration":0.1094889999999964,"midi":87,"time":70.18244899999999,"velocity":0.31496062992125984},{"duration":0.1094890000000106,"midi":79,"time":70.29193799999999,"velocity":0.31496062992125984},{"duration":0.1094890000000106,"midi":87,"time":70.29193799999999,"velocity":0.31496062992125984},{"duration":0.1094890000000106,"midi":58,"time":70.29193799999999,"velocity":0.31496062992125984},{"duration":0.1094889999999964,"midi":87,"time":70.401427,"velocity":0.31496062992125984},{"duration":0.1094889999999964,"midi":58,"time":70.401427,"velocity":0.31496062992125984},{"duration":0.1094889999999964,"midi":79,"time":70.401427,"velocity":0.31496062992125984},{"duration":0.1094889999999964,"midi":87,"time":70.510916,"velocity":0.31496062992125984},{"duration":0.1094889999999964,"midi":79,"time":70.510916,"velocity":0.31496062992125984},{"duration":0.1094889999999964,"midi":58,"time":70.510916,"velocity":0.31496062992125984},{"duration":0.1094889999999964,"midi":58,"time":70.62040499999999,"velocity":0.31496062992125984},{"duration":0.1094889999999964,"midi":87,"time":70.62040499999999,"velocity":0.31496062992125984},{"duration":0.1094889999999964,"midi":79,"time":70.62040499999999,"velocity":0.31496062992125984},{"duration":0.1094890000000106,"midi":58,"time":70.72989399999999,"velocity":0.31496062992125984},{"duration":0.1094890000000106,"midi":87,"time":70.72989399999999,"velocity":0.31496062992125984},{"duration":0.1094890000000106,"midi":79,"time":70.72989399999999,"velocity":0.31496062992125984},{"duration":0.1094889999999964,"midi":58,"time":70.839383,"velocity":0.31496062992125984},{"duration":0.1094889999999964,"midi":87,"time":70.839383,"velocity":0.31496062992125984},{"duration":0.1094889999999964,"midi":79,"time":70.839383,"velocity":0.31496062992125984},{"duration":0.1094889999999964,"midi":79,"time":70.948872,"velocity":0.31496062992125984},{"duration":0.1094889999999964,"midi":58,"time":70.948872,"velocity":0.31496062992125984},{"duration":0.1094889999999964,"midi":87,"time":70.948872,"velocity":0.31496062992125984},{"duration":0.1094889999999964,"midi":79,"time":71.05836099999999,"velocity":0.31496062992125984},{"duration":0.1094889999999964,"midi":87,"time":71.05836099999999,"velocity":0.31496062992125984},{"duration":0.1094889999999964,"midi":58,"time":71.05836099999999,"velocity":0.31496062992125984},{"duration":0.1094890000000106,"midi":87,"time":71.16784999999999,"velocity":0.31496062992125984},{"duration":0.1094890000000106,"midi":79,"time":71.16784999999999,"velocity":0.31496062992125984},{"duration":0.1094890000000106,"midi":58,"time":71.16784999999999,"velocity":0.31496062992125984},{"duration":0.1094889999999964,"midi":79,"time":71.277339,"velocity":0.31496062992125984},{"duration":0.1094889999999964,"midi":58,"time":71.277339,"velocity":0.31496062992125984},{"duration":0.1094889999999964,"midi":87,"time":71.277339,"velocity":0.31496062992125984},{"duration":0.1094889999999964,"midi":58,"time":71.386828,"velocity":0.31496062992125984},{"duration":0.1094889999999964,"midi":87,"time":71.386828,"velocity":0.31496062992125984},{"duration":0.1094889999999964,"midi":79,"time":71.386828,"velocity":0.31496062992125984},{"duration":0.1094889999999964,"midi":87,"time":71.49631699999999,"velocity":0.31496062992125984},{"duration":0.1094889999999964,"midi":58,"time":71.49631699999999,"velocity":0.31496062992125984},{"duration":0.1094889999999964,"midi":79,"time":71.49631699999999,"velocity":0.31496062992125984},{"duration":0.1094890000000106,"midi":58,"time":71.60580599999999,"velocity":0.31496062992125984},{"duration":0.1094890000000106,"midi":87,"time":71.60580599999999,"velocity":0.31496062992125984},{"duration":0.1094890000000106,"midi":79,"time":71.60580599999999,"velocity":0.31496062992125984},{"duration":0.1094889999999964,"midi":87,"time":71.715295,"velocity":0.31496062992125984},{"duration":0.1094889999999964,"midi":79,"time":71.715295,"velocity":0.31496062992125984},{"duration":0.1094889999999964,"midi":58,"time":71.715295,"velocity":0.31496062992125984},{"duration":0.1094889999999964,"midi":58,"time":71.824784,"velocity":0.31496062992125984},{"duration":0.1094889999999964,"midi":87,"time":71.824784,"velocity":0.31496062992125984},{"duration":0.1094889999999964,"midi":79,"time":71.824784,"velocity":0.31496062992125984},{"duration":0.1094889999999964,"midi":87,"time":71.93427299999999,"velocity":0.31496062992125984},{"duration":0.1094889999999964,"midi":58,"time":71.93427299999999,"velocity":0.31496062992125984},{"duration":0.1094889999999964,"midi":79,"time":71.93427299999999,"velocity":0.31496062992125984},{"duration":0.1094890000000106,"midi":79,"time":72.04376199999999,"velocity":0.31496062992125984},{"duration":0.1094890000000106,"midi":58,"time":72.04376199999999,"velocity":0.31496062992125984},{"duration":0.1094890000000106,"midi":87,"time":72.04376199999999,"velocity":0.31496062992125984},{"duration":0.1094889999999964,"midi":58,"time":72.153251,"velocity":0.31496062992125984},{"duration":0.1094889999999964,"midi":87,"time":72.153251,"velocity":0.31496062992125984},{"duration":0.1094889999999964,"midi":79,"time":72.153251,"velocity":0.31496062992125984},{"duration":0.1094889999999964,"midi":87,"time":72.26274,"velocity":0.31496062992125984},{"duration":0.1094889999999964,"midi":79,"time":72.26274,"velocity":0.31496062992125984},{"duration":0.1094889999999964,"midi":58,"time":72.26274,"velocity":0.31496062992125984},{"duration":0.1094889999999964,"midi":58,"time":72.37222899999999,"velocity":0.31496062992125984},{"duration":0.1094889999999964,"midi":87,"time":72.37222899999999,"velocity":0.31496062992125984},{"duration":0.1094889999999964,"midi":79,"time":72.37222899999999,"velocity":0.31496062992125984},{"duration":0.1094890000000106,"midi":79,"time":72.48171799999999,"velocity":0.31496062992125984},{"duration":0.1094890000000106,"midi":87,"time":72.48171799999999,"velocity":0.31496062992125984},{"duration":0.1094890000000106,"midi":58,"time":72.48171799999999,"velocity":0.31496062992125984},{"duration":0.1094889999999964,"midi":79,"time":72.591207,"velocity":0.31496062992125984},{"duration":0.1094889999999964,"midi":87,"time":72.591207,"velocity":0.31496062992125984},{"duration":0.1094889999999964,"midi":58,"time":72.591207,"velocity":0.31496062992125984},{"duration":0.1094889999999964,"midi":87,"time":72.700696,"velocity":0.31496062992125984},{"duration":0.1094889999999964,"midi":58,"time":72.700696,"velocity":0.31496062992125984},{"duration":0.1094889999999964,"midi":79,"time":72.700696,"velocity":0.31496062992125984},{"duration":0.1094889999999964,"midi":87,"time":72.81018499999999,"velocity":0.31496062992125984},{"duration":0.1094889999999964,"midi":79,"time":72.81018499999999,"velocity":0.31496062992125984},{"duration":0.1094889999999964,"midi":58,"time":72.81018499999999,"velocity":0.31496062992125984},{"duration":0.1094890000000106,"midi":58,"time":72.91967399999999,"velocity":0.31496062992125984},{"duration":0.1094890000000106,"midi":79,"time":72.91967399999999,"velocity":0.31496062992125984},{"duration":0.1094890000000106,"midi":87,"time":72.91967399999999,"velocity":0.31496062992125984},{"duration":0.1094889999999964,"midi":58,"time":73.029163,"velocity":0.31496062992125984},{"duration":0.1094889999999964,"midi":87,"time":73.029163,"velocity":0.31496062992125984},{"duration":0.1094889999999964,"midi":79,"time":73.029163,"velocity":0.31496062992125984},{"duration":0.1094889999999964,"midi":79,"time":73.138652,"velocity":0.31496062992125984},{"duration":0.1094889999999964,"midi":87,"time":73.138652,"velocity":0.31496062992125984},{"duration":0.1094889999999964,"midi":58,"time":73.138652,"velocity":0.31496062992125984},{"duration":0.1094889999999964,"midi":79,"time":73.24814099999999,"velocity":0.31496062992125984},{"duration":0.1094889999999964,"midi":58,"time":73.24814099999999,"velocity":0.31496062992125984},{"duration":0.1094889999999964,"midi":87,"time":73.24814099999999,"velocity":0.31496062992125984},{"duration":0.1094890000000106,"midi":87,"time":73.35762999999999,"velocity":0.31496062992125984},{"duration":0.1094890000000106,"midi":79,"time":73.35762999999999,"velocity":0.31496062992125984},{"duration":0.1094890000000106,"midi":58,"time":73.35762999999999,"velocity":0.31496062992125984},{"duration":0.1094889999999964,"midi":79,"time":73.467119,"velocity":0.31496062992125984},{"duration":0.1094889999999964,"midi":58,"time":73.467119,"velocity":0.31496062992125984},{"duration":0.1094889999999964,"midi":87,"time":73.467119,"velocity":0.31496062992125984},{"duration":0.1094889999999964,"midi":79,"time":73.576608,"velocity":0.31496062992125984},{"duration":0.1094889999999964,"midi":87,"time":73.576608,"velocity":0.31496062992125984},{"duration":0.1094889999999964,"midi":58,"time":73.576608,"velocity":0.31496062992125984},{"duration":0.1094889999999964,"midi":58,"time":73.68609699999999,"velocity":0.31496062992125984},{"duration":0.1094889999999964,"midi":79,"time":73.68609699999999,"velocity":0.31496062992125984},{"duration":0.1094889999999964,"midi":87,"time":73.68609699999999,"velocity":0.31496062992125984},{"duration":0.1094890000000106,"midi":58,"time":73.79558599999999,"velocity":0.31496062992125984},{"duration":0.1094890000000106,"midi":87,"time":73.79558599999999,"velocity":0.31496062992125984},{"duration":0.1094890000000106,"midi":79,"time":73.79558599999999,"velocity":0.31496062992125984},{"duration":0.1094889999999964,"midi":87,"time":73.905075,"velocity":0.31496062992125984},{"duration":0.1094889999999964,"midi":79,"time":73.905075,"velocity":0.31496062992125984},{"duration":0.1094889999999964,"midi":58,"time":73.905075,"velocity":0.31496062992125984},{"duration":0.1094889999999964,"midi":87,"time":74.014564,"velocity":0.31496062992125984},{"duration":0.1094889999999964,"midi":58,"time":74.014564,"velocity":0.31496062992125984},{"duration":0.1094889999999964,"midi":79,"time":74.014564,"velocity":0.31496062992125984},{"duration":0.1094889999999964,"midi":79,"time":74.12405299999999,"velocity":0.31496062992125984},{"duration":0.1094889999999964,"midi":87,"time":74.12405299999999,"velocity":0.31496062992125984},{"duration":0.1094889999999964,"midi":58,"time":74.12405299999999,"velocity":0.31496062992125984},{"duration":0.1094890000000106,"midi":58,"time":74.23354199999999,"velocity":0.31496062992125984},{"duration":0.1094890000000106,"midi":79,"time":74.23354199999999,"velocity":0.31496062992125984},{"duration":0.1094890000000106,"midi":87,"time":74.23354199999999,"velocity":0.31496062992125984},{"duration":0.1094889999999964,"midi":87,"time":74.343031,"velocity":0.31496062992125984},{"duration":0.1094889999999964,"midi":58,"time":74.343031,"velocity":0.31496062992125984},{"duration":0.1094889999999964,"midi":79,"time":74.343031,"velocity":0.31496062992125984},{"duration":0.1094889999999964,"midi":87,"time":74.45251999999999,"velocity":0.31496062992125984},{"duration":0.1094889999999964,"midi":58,"time":74.45251999999999,"velocity":0.31496062992125984},{"duration":0.1094889999999964,"midi":79,"time":74.45251999999999,"velocity":0.31496062992125984},{"duration":0.1094889999999964,"midi":58,"time":74.56200899999999,"velocity":0.31496062992125984},{"duration":0.1094889999999964,"midi":87,"time":74.56200899999999,"velocity":0.31496062992125984},{"duration":0.1094889999999964,"midi":79,"time":74.56200899999999,"velocity":0.31496062992125984},{"duration":0.1094890000000106,"midi":87,"time":74.67149799999999,"velocity":0.31496062992125984},{"duration":0.1094890000000106,"midi":79,"time":74.67149799999999,"velocity":0.31496062992125984},{"duration":0.1094890000000106,"midi":58,"time":74.67149799999999,"velocity":0.31496062992125984},{"duration":0.1094889999999964,"midi":58,"time":74.780987,"velocity":0.31496062992125984},{"duration":0.1094889999999964,"midi":87,"time":74.780987,"velocity":0.31496062992125984},{"duration":0.1094889999999964,"midi":79,"time":74.780987,"velocity":0.31496062992125984},{"duration":0.1094889999999964,"midi":87,"time":74.89047599999999,"velocity":0.31496062992125984},{"duration":0.1094889999999964,"midi":79,"time":74.89047599999999,"velocity":0.31496062992125984},{"duration":0.1094889999999964,"midi":58,"time":74.89047599999999,"velocity":0.31496062992125984},{"duration":0.1094890000000106,"midi":79,"time":74.99996499999999,"velocity":0.31496062992125984},{"duration":0.1094890000000106,"midi":58,"time":74.99996499999999,"velocity":0.31496062992125984},{"duration":0.1094890000000106,"midi":87,"time":74.99996499999999,"velocity":0.31496062992125984},{"duration":0.1094889999999964,"midi":87,"time":75.109454,"velocity":0.31496062992125984},{"duration":0.1094889999999964,"midi":79,"time":75.109454,"velocity":0.31496062992125984},{"duration":0.1094889999999964,"midi":58,"time":75.109454,"velocity":0.31496062992125984},{"duration":0.1094889999999964,"midi":79,"time":75.218943,"velocity":0.31496062992125984},{"duration":0.1094889999999964,"midi":58,"time":75.218943,"velocity":0.31496062992125984},{"duration":0.1094889999999964,"midi":87,"time":75.218943,"velocity":0.31496062992125984},{"duration":0.1094889999999964,"midi":58,"time":75.32843199999999,"velocity":0.31496062992125984},{"duration":0.1094889999999964,"midi":87,"time":75.32843199999999,"velocity":0.31496062992125984},{"duration":0.1094889999999964,"midi":79,"time":75.32843199999999,"velocity":0.31496062992125984},{"duration":0.1094890000000106,"midi":87,"time":75.43792099999999,"velocity":0.31496062992125984},{"duration":0.1094890000000106,"midi":58,"time":75.43792099999999,"velocity":0.31496062992125984},{"duration":0.1094890000000106,"midi":79,"time":75.43792099999999,"velocity":0.31496062992125984},{"duration":0.1094889999999964,"midi":87,"time":75.54741,"velocity":0.31496062992125984},{"duration":0.1094889999999964,"midi":58,"time":75.54741,"velocity":0.31496062992125984},{"duration":0.1094889999999964,"midi":79,"time":75.54741,"velocity":0.31496062992125984},{"duration":0.1094889999999964,"midi":87,"time":75.656899,"velocity":0.31496062992125984},{"duration":0.1094889999999964,"midi":79,"time":75.656899,"velocity":0.31496062992125984},{"duration":0.1094889999999964,"midi":58,"time":75.656899,"velocity":0.31496062992125984},{"duration":0.1094889999999964,"midi":58,"time":75.76638799999999,"velocity":0.31496062992125984},{"duration":0.1094889999999964,"midi":79,"time":75.76638799999999,"velocity":0.31496062992125984},{"duration":0.1094889999999964,"midi":87,"time":75.76638799999999,"velocity":0.31496062992125984},{"duration":0.1094890000000106,"midi":87,"time":75.87587699999999,"velocity":0.31496062992125984},{"duration":0.1094890000000106,"midi":79,"time":75.87587699999999,"velocity":0.31496062992125984},{"duration":0.1094890000000106,"midi":58,"time":75.87587699999999,"velocity":0.31496062992125984},{"duration":0.1094889999999964,"midi":87,"time":75.985366,"velocity":0.31496062992125984},{"duration":0.1094889999999964,"midi":79,"time":75.985366,"velocity":0.31496062992125984},{"duration":0.1094889999999964,"midi":58,"time":75.985366,"velocity":0.31496062992125984},{"duration":0.1094889999999964,"midi":79,"time":76.094855,"velocity":0.31496062992125984},{"duration":0.1094889999999964,"midi":58,"time":76.094855,"velocity":0.31496062992125984},{"duration":0.1094889999999964,"midi":87,"time":76.094855,"velocity":0.31496062992125984},{"duration":0.1094889999999964,"midi":79,"time":76.20434399999999,"velocity":0.31496062992125984},{"duration":0.1094889999999964,"midi":87,"time":76.20434399999999,"velocity":0.31496062992125984},{"duration":0.1094889999999964,"midi":58,"time":76.20434399999999,"velocity":0.31496062992125984},{"duration":0.1094890000000106,"midi":79,"time":76.31383299999999,"velocity":0.31496062992125984},{"duration":0.1094890000000106,"midi":58,"time":76.31383299999999,"velocity":0.31496062992125984},{"duration":0.1094890000000106,"midi":87,"time":76.31383299999999,"velocity":0.31496062992125984},{"duration":0.1094889999999964,"midi":58,"time":76.423322,"velocity":0.31496062992125984},{"duration":0.1094889999999964,"midi":79,"time":76.423322,"velocity":0.31496062992125984},{"duration":0.1094889999999964,"midi":87,"time":76.423322,"velocity":0.31496062992125984},{"duration":0.1094889999999964,"midi":79,"time":76.532811,"velocity":0.31496062992125984},{"duration":0.1094889999999964,"midi":87,"time":76.532811,"velocity":0.31496062992125984},{"duration":0.1094889999999964,"midi":58,"time":76.532811,"velocity":0.31496062992125984},{"duration":0.1094889999999964,"midi":79,"time":76.64229999999999,"velocity":0.31496062992125984},{"duration":0.1094889999999964,"midi":87,"time":76.64229999999999,"velocity":0.31496062992125984},{"duration":0.1094889999999964,"midi":58,"time":76.64229999999999,"velocity":0.31496062992125984},{"duration":0.1094890000000106,"midi":87,"time":76.75178899999999,"velocity":0.31496062992125984},{"duration":0.1094890000000106,"midi":79,"time":76.75178899999999,"velocity":0.31496062992125984},{"duration":0.1094890000000106,"midi":58,"time":76.75178899999999,"velocity":0.31496062992125984},{"duration":0.1094889999999964,"midi":87,"time":76.861278,"velocity":0.31496062992125984},{"duration":0.1094889999999964,"midi":79,"time":76.861278,"velocity":0.31496062992125984},{"duration":0.1094889999999964,"midi":58,"time":76.861278,"velocity":0.31496062992125984},{"duration":0.1094889999999964,"midi":58,"time":76.970767,"velocity":0.31496062992125984},{"duration":0.1094889999999964,"midi":87,"time":76.970767,"velocity":0.31496062992125984},{"duration":0.1094889999999964,"midi":79,"time":76.970767,"velocity":0.31496062992125984},{"duration":0.1094889999999964,"midi":79,"time":77.08025599999999,"velocity":0.31496062992125984},{"duration":0.1094889999999964,"midi":58,"time":77.08025599999999,"velocity":0.31496062992125984},{"duration":0.1094889999999964,"midi":87,"time":77.08025599999999,"velocity":0.31496062992125984},{"duration":0.1094890000000106,"midi":58,"time":77.18974499999999,"velocity":0.31496062992125984},{"duration":0.1094890000000106,"midi":87,"time":77.18974499999999,"velocity":0.31496062992125984},{"duration":0.1094890000000106,"midi":79,"time":77.18974499999999,"velocity":0.31496062992125984},{"duration":0.1094889999999964,"midi":87,"time":77.299234,"velocity":0.31496062992125984},{"duration":0.1094889999999964,"midi":79,"time":77.299234,"velocity":0.31496062992125984},{"duration":0.1094889999999964,"midi":58,"time":77.299234,"velocity":0.31496062992125984},{"duration":0.1094889999999964,"midi":58,"time":77.408723,"velocity":0.31496062992125984},{"duration":0.1094889999999964,"midi":79,"time":77.408723,"velocity":0.31496062992125984},{"duration":0.1094889999999964,"midi":87,"time":77.408723,"velocity":0.31496062992125984},{"duration":0.1094889999999964,"midi":87,"time":77.51821199999999,"velocity":0.31496062992125984},{"duration":0.1094889999999964,"midi":79,"time":77.51821199999999,"velocity":0.31496062992125984},{"duration":0.1094889999999964,"midi":58,"time":77.51821199999999,"velocity":0.31496062992125984},{"duration":0.1094890000000106,"midi":87,"time":77.62770099999999,"velocity":0.31496062992125984},{"duration":0.1094890000000106,"midi":58,"time":77.62770099999999,"velocity":0.31496062992125984},{"duration":0.1094890000000106,"midi":79,"time":77.62770099999999,"velocity":0.31496062992125984},{"duration":0.1094889999999964,"midi":58,"time":77.73719,"velocity":0.31496062992125984},{"duration":0.1094889999999964,"midi":87,"time":77.73719,"velocity":0.31496062992125984},{"duration":0.1094889999999964,"midi":79,"time":77.73719,"velocity":0.31496062992125984},{"duration":0.1094889999999964,"midi":87,"time":77.846679,"velocity":0.31496062992125984},{"duration":0.1094889999999964,"midi":79,"time":77.846679,"velocity":0.31496062992125984},{"duration":0.1094889999999964,"midi":58,"time":77.846679,"velocity":0.31496062992125984},{"duration":0.1094889999999964,"midi":87,"time":77.95616799999999,"velocity":0.31496062992125984},{"duration":0.1094889999999964,"midi":79,"time":77.95616799999999,"velocity":0.31496062992125984},{"duration":0.1094889999999964,"midi":58,"time":77.95616799999999,"velocity":0.31496062992125984},{"duration":0.1094890000000106,"midi":79,"time":78.06565699999999,"velocity":0.31496062992125984},{"duration":0.1094890000000106,"midi":58,"time":78.06565699999999,"velocity":0.31496062992125984},{"duration":0.1094890000000106,"midi":87,"time":78.06565699999999,"velocity":0.31496062992125984},{"duration":0.1094889999999964,"midi":87,"time":78.175146,"velocity":0.31496062992125984},{"duration":0.1094889999999964,"midi":79,"time":78.175146,"velocity":0.31496062992125984},{"duration":0.1094889999999964,"midi":58,"time":78.175146,"velocity":0.31496062992125984},{"duration":0.1094889999999964,"midi":58,"time":78.284635,"velocity":0.31496062992125984},{"duration":0.1094889999999964,"midi":87,"time":78.284635,"velocity":0.31496062992125984},{"duration":0.1094889999999964,"midi":79,"time":78.284635,"velocity":0.31496062992125984},{"duration":0.1094889999999964,"midi":87,"time":78.39412399999999,"velocity":0.31496062992125984},{"duration":0.1094889999999964,"midi":79,"time":78.39412399999999,"velocity":0.31496062992125984},{"duration":0.1094889999999964,"midi":58,"time":78.39412399999999,"velocity":0.31496062992125984},{"duration":0.1094890000000106,"midi":58,"time":78.50361299999999,"velocity":0.31496062992125984},{"duration":0.1094890000000106,"midi":87,"time":78.50361299999999,"velocity":0.31496062992125984},{"duration":0.1094890000000106,"midi":79,"time":78.50361299999999,"velocity":0.31496062992125984},{"duration":0.1094889999999964,"midi":87,"time":78.613102,"velocity":0.31496062992125984},{"duration":0.1094889999999964,"midi":58,"time":78.613102,"velocity":0.31496062992125984},{"duration":0.1094889999999964,"midi":79,"time":78.613102,"velocity":0.31496062992125984},{"duration":0.1094889999999964,"midi":58,"time":78.722591,"velocity":0.31496062992125984},{"duration":0.1094889999999964,"midi":87,"time":78.722591,"velocity":0.31496062992125984},{"duration":0.1094889999999964,"midi":79,"time":78.722591,"velocity":0.31496062992125984},{"duration":0.1094889999999964,"midi":79,"time":78.83207999999999,"velocity":0.31496062992125984},{"duration":0.1094889999999964,"midi":58,"time":78.83207999999999,"velocity":0.31496062992125984},{"duration":0.1094889999999964,"midi":87,"time":78.83207999999999,"velocity":0.31496062992125984},{"duration":0.1094890000000106,"midi":87,"time":78.94156899999999,"velocity":0.31496062992125984},{"duration":0.1094890000000106,"midi":58,"time":78.94156899999999,"velocity":0.31496062992125984},{"duration":0.1094890000000106,"midi":79,"time":78.94156899999999,"velocity":0.31496062992125984},{"duration":0.1094889999999964,"midi":87,"time":79.051058,"velocity":0.31496062992125984},{"duration":0.1094889999999964,"midi":79,"time":79.051058,"velocity":0.31496062992125984},{"duration":0.1094889999999964,"midi":58,"time":79.051058,"velocity":0.31496062992125984},{"duration":0.1094889999999964,"midi":58,"time":79.160547,"velocity":0.31496062992125984},{"duration":0.1094889999999964,"midi":87,"time":79.160547,"velocity":0.31496062992125984},{"duration":0.1094889999999964,"midi":79,"time":79.160547,"velocity":0.31496062992125984},{"duration":0.1094889999999964,"midi":58,"time":79.27003599999999,"velocity":0.31496062992125984},{"duration":0.1094889999999964,"midi":87,"time":79.27003599999999,"velocity":0.31496062992125984},{"duration":0.1094889999999964,"midi":79,"time":79.27003599999999,"velocity":0.31496062992125984},{"duration":0.1094890000000106,"midi":87,"time":79.37952499999999,"velocity":0.31496062992125984},{"duration":0.1094890000000106,"midi":79,"time":79.37952499999999,"velocity":0.31496062992125984},{"duration":0.1094890000000106,"midi":58,"time":79.37952499999999,"velocity":0.31496062992125984},{"duration":0.1094889999999964,"midi":79,"time":79.489014,"velocity":0.31496062992125984},{"duration":0.1094889999999964,"midi":58,"time":79.489014,"velocity":0.31496062992125984},{"duration":0.1094889999999964,"midi":87,"time":79.489014,"velocity":0.31496062992125984},{"duration":0.1094889999999964,"midi":87,"time":79.598503,"velocity":0.31496062992125984},{"duration":0.1094889999999964,"midi":79,"time":79.598503,"velocity":0.31496062992125984},{"duration":0.1094889999999964,"midi":58,"time":79.598503,"velocity":0.31496062992125984},{"duration":0.1094889999999964,"midi":58,"time":79.70799199999999,"velocity":0.31496062992125984},{"duration":0.1094889999999964,"midi":79,"time":79.70799199999999,"velocity":0.31496062992125984},{"duration":0.1094889999999964,"midi":87,"time":79.70799199999999,"velocity":0.31496062992125984},{"duration":0.1094890000000106,"midi":87,"time":79.81748099999999,"velocity":0.31496062992125984},{"duration":0.1094890000000106,"midi":79,"time":79.81748099999999,"velocity":0.31496062992125984},{"duration":0.1094890000000106,"midi":58,"time":79.81748099999999,"velocity":0.31496062992125984},{"duration":0.1094889999999964,"midi":79,"time":79.92697,"velocity":0.31496062992125984},{"duration":0.1094889999999964,"midi":87,"time":79.92697,"velocity":0.31496062992125984},{"duration":0.1094889999999964,"midi":58,"time":79.92697,"velocity":0.31496062992125984},{"duration":0.1094889999999964,"midi":87,"time":80.036459,"velocity":0.31496062992125984},{"duration":0.1094889999999964,"midi":79,"time":80.036459,"velocity":0.31496062992125984},{"duration":0.1094889999999964,"midi":58,"time":80.036459,"velocity":0.31496062992125984},{"duration":0.1094889999999964,"midi":87,"time":80.14594799999999,"velocity":0.31496062992125984},{"duration":0.1094889999999964,"midi":79,"time":80.14594799999999,"velocity":0.31496062992125984},{"duration":0.1094889999999964,"midi":58,"time":80.14594799999999,"velocity":0.31496062992125984},{"duration":0.1094890000000106,"midi":79,"time":80.25543699999999,"velocity":0.31496062992125984},{"duration":0.1094890000000106,"midi":58,"time":80.25543699999999,"velocity":0.31496062992125984},{"duration":0.1094890000000106,"midi":87,"time":80.25543699999999,"velocity":0.31496062992125984},{"duration":0.1094889999999964,"midi":58,"time":80.364926,"velocity":0.31496062992125984},{"duration":0.1094889999999964,"midi":87,"time":80.364926,"velocity":0.31496062992125984},{"duration":0.1094889999999964,"midi":79,"time":80.364926,"velocity":0.31496062992125984},{"duration":0.1094889999999964,"midi":79,"time":80.474415,"velocity":0.31496062992125984},{"duration":0.1094889999999964,"midi":58,"time":80.474415,"velocity":0.31496062992125984},{"duration":0.1094889999999964,"midi":87,"time":80.474415,"velocity":0.31496062992125984},{"duration":0.1094889999999964,"midi":58,"time":80.58390399999999,"velocity":0.31496062992125984},{"duration":0.1094889999999964,"midi":87,"time":80.58390399999999,"velocity":0.31496062992125984},{"duration":0.1094889999999964,"midi":79,"time":80.58390399999999,"velocity":0.31496062992125984},{"duration":0.1094890000000106,"midi":87,"time":80.69339299999999,"velocity":0.31496062992125984},{"duration":0.1094890000000106,"midi":58,"time":80.69339299999999,"velocity":0.31496062992125984},{"duration":0.1094890000000106,"midi":79,"time":80.69339299999999,"velocity":0.31496062992125984},{"duration":0.1094889999999964,"midi":58,"time":80.802882,"velocity":0.31496062992125984},{"duration":0.1094889999999964,"midi":79,"time":80.802882,"velocity":0.31496062992125984},{"duration":0.1094889999999964,"midi":87,"time":80.802882,"velocity":0.31496062992125984},{"duration":0.1094889999999964,"midi":79,"time":80.912371,"velocity":0.31496062992125984},{"duration":0.1094889999999964,"midi":58,"time":80.912371,"velocity":0.31496062992125984},{"duration":0.1094889999999964,"midi":87,"time":80.912371,"velocity":0.31496062992125984},{"duration":0.1094889999999964,"midi":87,"time":81.02185999999999,"velocity":0.31496062992125984},{"duration":0.1094889999999964,"midi":79,"time":81.02185999999999,"velocity":0.31496062992125984},{"duration":0.1094889999999964,"midi":58,"time":81.02185999999999,"velocity":0.31496062992125984},{"duration":0.1094890000000106,"midi":58,"time":81.13134899999999,"velocity":0.31496062992125984},{"duration":0.1094890000000106,"midi":87,"time":81.13134899999999,"velocity":0.31496062992125984},{"duration":0.1094890000000106,"midi":79,"time":81.13134899999999,"velocity":0.31496062992125984},{"duration":0.1094889999999964,"midi":87,"time":81.240838,"velocity":0.31496062992125984},{"duration":0.1094889999999964,"midi":79,"time":81.240838,"velocity":0.31496062992125984},{"duration":0.1094889999999964,"midi":58,"time":81.240838,"velocity":0.31496062992125984},{"duration":0.1094889999999964,"midi":87,"time":81.350327,"velocity":0.31496062992125984},{"duration":0.1094889999999964,"midi":79,"time":81.350327,"velocity":0.31496062992125984},{"duration":0.1094889999999964,"midi":58,"time":81.350327,"velocity":0.31496062992125984},{"duration":0.1094889999999964,"midi":79,"time":81.45981599999999,"velocity":0.31496062992125984},{"duration":0.1094889999999964,"midi":87,"time":81.45981599999999,"velocity":0.31496062992125984},{"duration":0.1094889999999964,"midi":58,"time":81.45981599999999,"velocity":0.31496062992125984},{"duration":0.1094890000000106,"midi":87,"time":81.56930499999999,"velocity":0.31496062992125984},{"duration":0.1094890000000106,"midi":79,"time":81.56930499999999,"velocity":0.31496062992125984},{"duration":0.1094890000000106,"midi":58,"time":81.56930499999999,"velocity":0.31496062992125984},{"duration":0.1094889999999964,"midi":58,"time":81.678794,"velocity":0.31496062992125984},{"duration":0.1094889999999964,"midi":87,"time":81.678794,"velocity":0.31496062992125984},{"duration":0.1094889999999964,"midi":79,"time":81.678794,"velocity":0.31496062992125984},{"duration":0.1094889999999964,"midi":87,"time":81.78828299999999,"velocity":0.31496062992125984},{"duration":0.1094889999999964,"midi":79,"time":81.78828299999999,"velocity":0.31496062992125984},{"duration":0.1094889999999964,"midi":58,"time":81.78828299999999,"velocity":0.31496062992125984},{"duration":0.1094889999999964,"midi":58,"time":81.89777199999999,"velocity":0.31496062992125984},{"duration":0.1094889999999964,"midi":79,"time":81.89777199999999,"velocity":0.31496062992125984},{"duration":0.1094889999999964,"midi":87,"time":81.89777199999999,"velocity":0.31496062992125984},{"duration":0.1094890000000106,"midi":58,"time":82.00726099999999,"velocity":0.31496062992125984},{"duration":0.1094890000000106,"midi":87,"time":82.00726099999999,"velocity":0.31496062992125984},{"duration":0.1094890000000106,"midi":79,"time":82.00726099999999,"velocity":0.31496062992125984},{"duration":0.1094889999999964,"midi":87,"time":82.11675,"velocity":0.31496062992125984},{"duration":0.1094889999999964,"midi":79,"time":82.11675,"velocity":0.31496062992125984},{"duration":0.1094889999999964,"midi":58,"time":82.11675,"velocity":0.31496062992125984},{"duration":0.1094889999999964,"midi":58,"time":82.22623899999999,"velocity":0.31496062992125984},{"duration":0.1094889999999964,"midi":87,"time":82.22623899999999,"velocity":0.31496062992125984},{"duration":0.1094889999999964,"midi":79,"time":82.22623899999999,"velocity":0.31496062992125984},{"duration":0.1094889999999964,"midi":79,"time":82.33572799999999,"velocity":0.31496062992125984},{"duration":0.1094889999999964,"midi":87,"time":82.33572799999999,"velocity":0.31496062992125984},{"duration":0.1094889999999964,"midi":58,"time":82.33572799999999,"velocity":0.31496062992125984},{"duration":0.1094890000000106,"midi":58,"time":82.44521699999999,"velocity":0.31496062992125984},{"duration":0.1094890000000106,"midi":79,"time":82.44521699999999,"velocity":0.31496062992125984},{"duration":0.1094890000000106,"midi":87,"time":82.44521699999999,"velocity":0.31496062992125984},{"duration":0.1094889999999964,"midi":87,"time":82.554706,"velocity":0.31496062992125984},{"duration":0.1094889999999964,"midi":79,"time":82.554706,"velocity":0.31496062992125984},{"duration":0.1094889999999964,"midi":58,"time":82.554706,"velocity":0.31496062992125984},{"duration":0.1094889999999964,"midi":79,"time":82.66419499999999,"velocity":0.31496062992125984},{"duration":0.1094889999999964,"midi":58,"time":82.66419499999999,"velocity":0.31496062992125984},{"duration":0.1094889999999964,"midi":87,"time":82.66419499999999,"velocity":0.31496062992125984},{"duration":0.1094889999999964,"midi":58,"time":82.77368399999999,"velocity":0.31496062992125984},{"duration":0.1094889999999964,"midi":79,"time":82.77368399999999,"velocity":0.31496062992125984},{"duration":0.1094889999999964,"midi":87,"time":82.77368399999999,"velocity":0.31496062992125984},{"duration":0.1094890000000106,"midi":87,"time":82.88317299999999,"velocity":0.31496062992125984},{"duration":0.1094890000000106,"midi":79,"time":82.88317299999999,"velocity":0.31496062992125984},{"duration":0.1094890000000106,"midi":58,"time":82.88317299999999,"velocity":0.31496062992125984},{"duration":0.1094889999999964,"midi":87,"time":82.992662,"velocity":0.31496062992125984},{"duration":0.1094889999999964,"midi":79,"time":82.992662,"velocity":0.31496062992125984},{"duration":0.1094889999999964,"midi":58,"time":82.992662,"velocity":0.31496062992125984},{"duration":0.1094889999999964,"midi":58,"time":83.10215099999999,"velocity":0.31496062992125984},{"duration":0.1094889999999964,"midi":87,"time":83.10215099999999,"velocity":0.31496062992125984},{"duration":0.1094889999999964,"midi":79,"time":83.10215099999999,"velocity":0.31496062992125984},{"duration":0.1094889999999964,"midi":58,"time":83.21163999999999,"velocity":0.31496062992125984},{"duration":0.1094889999999964,"midi":79,"time":83.21163999999999,"velocity":0.31496062992125984},{"duration":0.1094889999999964,"midi":87,"time":83.21163999999999,"velocity":0.31496062992125984},{"duration":0.1094890000000106,"midi":58,"time":83.32112899999998,"velocity":0.31496062992125984},{"duration":0.1094890000000106,"midi":79,"time":83.32112899999998,"velocity":0.31496062992125984},{"duration":0.1094890000000106,"midi":87,"time":83.32112899999998,"velocity":0.31496062992125984},{"duration":0.1094889999999964,"midi":79,"time":83.430618,"velocity":0.31496062992125984},{"duration":0.1094889999999964,"midi":58,"time":83.430618,"velocity":0.31496062992125984},{"duration":0.1094889999999964,"midi":87,"time":83.430618,"velocity":0.31496062992125984},{"duration":0.1094889999999964,"midi":87,"time":83.54010699999999,"velocity":0.31496062992125984},{"duration":0.1094889999999964,"midi":79,"time":83.54010699999999,"velocity":0.31496062992125984},{"duration":0.1094889999999964,"midi":58,"time":83.54010699999999,"velocity":0.31496062992125984},{"duration":0.1094889999999964,"midi":87,"time":83.64959599999999,"velocity":0.31496062992125984},{"duration":0.1094889999999964,"midi":79,"time":83.64959599999999,"velocity":0.31496062992125984},{"duration":0.1094889999999964,"midi":58,"time":83.64959599999999,"velocity":0.31496062992125984},{"duration":0.1094890000000106,"midi":79,"time":83.75908499999998,"velocity":0.31496062992125984},{"duration":0.1094890000000106,"midi":87,"time":83.75908499999998,"velocity":0.31496062992125984},{"duration":0.1094890000000106,"midi":58,"time":83.75908499999998,"velocity":0.31496062992125984},{"duration":0.1094889999999964,"midi":79,"time":83.868574,"velocity":0.31496062992125984},{"duration":0.1094889999999964,"midi":58,"time":83.868574,"velocity":0.31496062992125984},{"duration":0.1094889999999964,"midi":87,"time":83.868574,"velocity":0.31496062992125984},{"duration":0.1094889999999964,"midi":79,"time":83.97806299999999,"velocity":0.31496062992125984},{"duration":0.1094889999999964,"midi":87,"time":83.97806299999999,"velocity":0.31496062992125984},{"duration":0.1094889999999964,"midi":58,"time":83.97806299999999,"velocity":0.31496062992125984},{"duration":0.1094890000000106,"midi":79,"time":84.08755199999999,"velocity":0.31496062992125984},{"duration":0.1094890000000106,"midi":87,"time":84.08755199999999,"velocity":0.31496062992125984},{"duration":0.1094889999999964,"midi":79,"time":84.197041,"velocity":0.31496062992125984},{"duration":0.1094889999999964,"midi":87,"time":84.197041,"velocity":0.31496062992125984},{"duration":0.1094889999999964,"midi":79,"time":84.30653,"velocity":0.31496062992125984},{"duration":0.1094889999999964,"midi":87,"time":84.30653,"velocity":0.31496062992125984},{"duration":0.1094889999999964,"midi":87,"time":84.41601899999999,"velocity":0.31496062992125984},{"duration":0.1094889999999964,"midi":79,"time":84.41601899999999,"velocity":0.31496062992125984},{"duration":0.1094890000000106,"midi":87,"time":84.52550799999999,"velocity":0.31496062992125984},{"duration":0.1094890000000106,"midi":79,"time":84.52550799999999,"velocity":0.31496062992125984},{"duration":0.1094889999999964,"midi":79,"time":84.634997,"velocity":0.31496062992125984},{"duration":0.1094889999999964,"midi":87,"time":84.634997,"velocity":0.31496062992125984},{"duration":0.1094889999999964,"midi":79,"time":84.744486,"velocity":0.31496062992125984},{"duration":0.1094889999999964,"midi":87,"time":84.744486,"velocity":0.31496062992125984},{"duration":0.1094889999999964,"midi":87,"time":84.85397499999999,"velocity":0.31496062992125984},{"duration":0.1094889999999964,"midi":79,"time":84.85397499999999,"velocity":0.31496062992125984},{"duration":0.1094890000000106,"midi":79,"time":84.96346399999999,"velocity":0.31496062992125984},{"duration":0.1094890000000106,"midi":87,"time":84.96346399999999,"velocity":0.31496062992125984},{"duration":0.1094889999999964,"midi":87,"time":85.072953,"velocity":0.31496062992125984},{"duration":0.1094889999999964,"midi":79,"time":85.072953,"velocity":0.31496062992125984},{"duration":0.1094889999999964,"midi":87,"time":85.182442,"velocity":0.31496062992125984},{"duration":0.1094889999999964,"midi":79,"time":85.182442,"velocity":0.31496062992125984},{"duration":0.1094889999999964,"midi":79,"time":85.29193099999999,"velocity":0.31496062992125984},{"duration":0.1094889999999964,"midi":87,"time":85.29193099999999,"velocity":0.31496062992125984},{"duration":0.1094890000000106,"midi":79,"time":85.40141999999999,"velocity":0.31496062992125984},{"duration":0.1094890000000106,"midi":87,"time":85.40141999999999,"velocity":0.31496062992125984},{"duration":0.1094889999999964,"midi":87,"time":85.510909,"velocity":0.31496062992125984},{"duration":0.1094889999999964,"midi":79,"time":85.510909,"velocity":0.31496062992125984},{"duration":0.1094889999999964,"midi":79,"time":85.620398,"velocity":0.31496062992125984},{"duration":0.1094889999999964,"midi":87,"time":85.620398,"velocity":0.31496062992125984},{"duration":0.1094889999999964,"midi":87,"time":85.72988699999999,"velocity":0.31496062992125984},{"duration":0.1094889999999964,"midi":79,"time":85.72988699999999,"velocity":0.31496062992125984},{"duration":0.1094890000000106,"midi":87,"time":85.83937599999999,"velocity":0.31496062992125984},{"duration":0.1094890000000106,"midi":79,"time":85.83937599999999,"velocity":0.31496062992125984},{"duration":0.1094889999999964,"midi":87,"time":85.948865,"velocity":0.31496062992125984},{"duration":0.1094889999999964,"midi":79,"time":85.948865,"velocity":0.31496062992125984},{"duration":0.1094889999999964,"midi":87,"time":86.058354,"velocity":0.31496062992125984},{"duration":0.1094889999999964,"midi":79,"time":86.058354,"velocity":0.31496062992125984},{"duration":0.1094889999999964,"midi":79,"time":86.16784299999999,"velocity":0.31496062992125984},{"duration":0.1094889999999964,"midi":87,"time":86.16784299999999,"velocity":0.31496062992125984},{"duration":0.1094890000000106,"midi":87,"time":86.27733199999999,"velocity":0.31496062992125984},{"duration":0.1094890000000106,"midi":79,"time":86.27733199999999,"velocity":0.31496062992125984},{"duration":0.1094889999999964,"midi":87,"time":86.386821,"velocity":0.31496062992125984},{"duration":0.1094889999999964,"midi":79,"time":86.386821,"velocity":0.31496062992125984},{"duration":0.1094889999999964,"midi":79,"time":86.49631,"velocity":0.31496062992125984},{"duration":0.1094889999999964,"midi":87,"time":86.49631,"velocity":0.31496062992125984},{"duration":0.1094889999999964,"midi":87,"time":86.60579899999999,"velocity":0.31496062992125984},{"duration":0.1094889999999964,"midi":79,"time":86.60579899999999,"velocity":0.31496062992125984},{"duration":0.1094890000000106,"midi":79,"time":86.71528799999999,"velocity":0.31496062992125984},{"duration":0.1094890000000106,"midi":87,"time":86.71528799999999,"velocity":0.31496062992125984},{"duration":0.1094889999999964,"midi":87,"time":86.824777,"velocity":0.31496062992125984},{"duration":0.1094889999999964,"midi":79,"time":86.824777,"velocity":0.31496062992125984},{"duration":0.1094889999999964,"midi":79,"time":86.934266,"velocity":0.31496062992125984},{"duration":0.1094889999999964,"midi":87,"time":86.934266,"velocity":0.31496062992125984},{"duration":0.1094889999999964,"midi":87,"time":87.04375499999999,"velocity":0.31496062992125984},{"duration":0.1094889999999964,"midi":79,"time":87.04375499999999,"velocity":0.31496062992125984},{"duration":0.1094890000000106,"midi":87,"time":87.15324399999999,"velocity":0.31496062992125984},{"duration":0.1094890000000106,"midi":79,"time":87.15324399999999,"velocity":0.31496062992125984},{"duration":0.1094889999999964,"midi":79,"time":87.262733,"velocity":0.31496062992125984},{"duration":0.1094889999999964,"midi":87,"time":87.262733,"velocity":0.31496062992125984},{"duration":0.1094889999999964,"midi":79,"time":87.372222,"velocity":0.31496062992125984},{"duration":0.1094889999999964,"midi":87,"time":87.372222,"velocity":0.31496062992125984},{"duration":0.1094889999999964,"midi":87,"time":87.48171099999999,"velocity":0.31496062992125984},{"duration":0.1094889999999964,"midi":79,"time":87.48171099999999,"velocity":0.31496062992125984},{"duration":0.1094890000000106,"midi":79,"time":87.59119999999999,"velocity":0.31496062992125984},{"duration":0.1094890000000106,"midi":87,"time":87.59119999999999,"velocity":0.31496062992125984},{"duration":0.1094889999999964,"midi":79,"time":87.700689,"velocity":0.31496062992125984},{"duration":0.1094889999999964,"midi":87,"time":87.700689,"velocity":0.31496062992125984},{"duration":0.1094889999999964,"midi":87,"time":87.810178,"velocity":0.31496062992125984},{"duration":0.1094889999999964,"midi":79,"time":87.810178,"velocity":0.31496062992125984},{"duration":0.1094889999999964,"midi":87,"time":87.91966699999999,"velocity":0.31496062992125984},{"duration":0.1094889999999964,"midi":79,"time":87.91966699999999,"velocity":0.31496062992125984},{"duration":0.1094890000000106,"midi":87,"time":88.02915599999999,"velocity":0.31496062992125984},{"duration":0.1094890000000106,"midi":79,"time":88.02915599999999,"velocity":0.31496062992125984},{"duration":0.1094889999999964,"midi":79,"time":88.138645,"velocity":0.31496062992125984},{"duration":0.1094889999999964,"midi":87,"time":88.138645,"velocity":0.31496062992125984},{"duration":0.1094889999999964,"midi":87,"time":88.248134,"velocity":0.31496062992125984},{"duration":0.1094889999999964,"midi":79,"time":88.248134,"velocity":0.31496062992125984},{"duration":0.1094889999999964,"midi":87,"time":88.35762299999999,"velocity":0.31496062992125984},{"duration":0.1094889999999964,"midi":79,"time":88.35762299999999,"velocity":0.31496062992125984},{"duration":0.1094890000000106,"midi":87,"time":88.46711199999999,"velocity":0.31496062992125984},{"duration":0.1094890000000106,"midi":79,"time":88.46711199999999,"velocity":0.31496062992125984},{"duration":0.1094889999999964,"midi":79,"time":88.576601,"velocity":0.31496062992125984},{"duration":0.1094889999999964,"midi":87,"time":88.576601,"velocity":0.31496062992125984},{"duration":0.1094889999999964,"midi":87,"time":88.68609,"velocity":0.31496062992125984},{"duration":0.1094889999999964,"midi":79,"time":88.68609,"velocity":0.31496062992125984},{"duration":0.1094889999999964,"midi":87,"time":88.79557899999999,"velocity":0.31496062992125984},{"duration":0.1094889999999964,"midi":79,"time":88.79557899999999,"velocity":0.31496062992125984},{"duration":0.1094890000000106,"midi":79,"time":88.90506799999999,"velocity":0.31496062992125984},{"duration":0.1094890000000106,"midi":87,"time":88.90506799999999,"velocity":0.31496062992125984},{"duration":0.1094889999999964,"midi":79,"time":89.014557,"velocity":0.31496062992125984},{"duration":0.1094889999999964,"midi":87,"time":89.014557,"velocity":0.31496062992125984},{"duration":0.1094889999999964,"midi":87,"time":89.12404599999999,"velocity":0.31496062992125984},{"duration":0.1094889999999964,"midi":79,"time":89.12404599999999,"velocity":0.31496062992125984},{"duration":0.1094889999999964,"midi":87,"time":89.23353499999999,"velocity":0.31496062992125984},{"duration":0.1094889999999964,"midi":79,"time":89.23353499999999,"velocity":0.31496062992125984},{"duration":0.1094890000000106,"midi":79,"time":89.34302399999999,"velocity":0.31496062992125984},{"duration":0.1094890000000106,"midi":87,"time":89.34302399999999,"velocity":0.31496062992125984},{"duration":0.1094889999999964,"midi":87,"time":89.452513,"velocity":0.31496062992125984},{"duration":0.1094889999999964,"midi":79,"time":89.452513,"velocity":0.31496062992125984},{"duration":0.1094889999999964,"midi":79,"time":89.56200199999999,"velocity":0.31496062992125984},{"duration":0.1094889999999964,"midi":87,"time":89.56200199999999,"velocity":0.31496062992125984},{"duration":0.1094889999999964,"midi":87,"time":89.67149099999999,"velocity":0.31496062992125984},{"duration":0.1094889999999964,"midi":79,"time":89.67149099999999,"velocity":0.31496062992125984},{"duration":0.1094890000000106,"midi":87,"time":89.78097999999999,"velocity":0.31496062992125984},{"duration":0.1094890000000106,"midi":79,"time":89.78097999999999,"velocity":0.31496062992125984},{"duration":0.1094889999999964,"midi":79,"time":89.890469,"velocity":0.31496062992125984},{"duration":0.1094889999999964,"midi":87,"time":89.890469,"velocity":0.31496062992125984},{"duration":0.1094889999999964,"midi":79,"time":89.99995799999999,"velocity":0.31496062992125984},{"duration":0.1094889999999964,"midi":87,"time":89.99995799999999,"velocity":0.31496062992125984},{"duration":0.1094889999999964,"midi":87,"time":90.10944699999999,"velocity":0.31496062992125984},{"duration":0.1094889999999964,"midi":79,"time":90.10944699999999,"velocity":0.31496062992125984},{"duration":0.1094890000000106,"midi":87,"time":90.21893599999999,"velocity":0.31496062992125984},{"duration":0.1094890000000106,"midi":79,"time":90.21893599999999,"velocity":0.31496062992125984},{"duration":0.1094889999999964,"midi":79,"time":90.328425,"velocity":0.31496062992125984},{"duration":0.1094889999999964,"midi":87,"time":90.328425,"velocity":0.31496062992125984},{"duration":0.1094889999999964,"midi":79,"time":90.43791399999999,"velocity":0.31496062992125984},{"duration":0.1094889999999964,"midi":87,"time":90.43791399999999,"velocity":0.31496062992125984},{"duration":0.1094889999999964,"midi":79,"time":90.54740299999999,"velocity":0.31496062992125984},{"duration":0.1094889999999964,"midi":87,"time":90.54740299999999,"velocity":0.31496062992125984},{"duration":0.1094890000000106,"midi":87,"time":90.65689199999998,"velocity":0.31496062992125984},{"duration":0.1094890000000106,"midi":79,"time":90.65689199999998,"velocity":0.31496062992125984},{"duration":0.1094889999999964,"midi":79,"time":90.766381,"velocity":0.31496062992125984},{"duration":0.1094889999999964,"midi":87,"time":90.766381,"velocity":0.31496062992125984},{"duration":0.1094889999999964,"midi":87,"time":90.87586999999999,"velocity":0.31496062992125984},{"duration":0.1094889999999964,"midi":79,"time":90.87586999999999,"velocity":0.31496062992125984},{"duration":0.1094889999999964,"midi":79,"time":90.98535899999999,"velocity":0.31496062992125984},{"duration":0.1094889999999964,"midi":87,"time":90.98535899999999,"velocity":0.31496062992125984},{"duration":0.1094890000000106,"midi":87,"time":91.09484799999998,"velocity":0.31496062992125984},{"duration":0.1094890000000106,"midi":79,"time":91.09484799999998,"velocity":0.31496062992125984},{"duration":0.1094889999999964,"midi":87,"time":91.204337,"velocity":0.31496062992125984},{"duration":0.1094889999999964,"midi":79,"time":91.204337,"velocity":0.31496062992125984},{"duration":0.1094889999999964,"midi":87,"time":91.31382599999999,"velocity":0.31496062992125984},{"duration":0.1094889999999964,"midi":79,"time":91.31382599999999,"velocity":0.31496062992125984},{"duration":0.1094889999999964,"midi":87,"time":91.42331499999999,"velocity":0.31496062992125984},{"duration":0.1094889999999964,"midi":79,"time":91.42331499999999,"velocity":0.31496062992125984},{"duration":0.1094890000000106,"midi":87,"time":91.53280399999998,"velocity":0.31496062992125984},{"duration":0.1094890000000106,"midi":79,"time":91.53280399999998,"velocity":0.31496062992125984},{"duration":0.1094889999999964,"midi":87,"time":91.642293,"velocity":0.31496062992125984},{"duration":0.1094889999999964,"midi":79,"time":91.642293,"velocity":0.31496062992125984},{"duration":0.1094889999999964,"midi":87,"time":91.75178199999999,"velocity":0.31496062992125984},{"duration":0.1094889999999964,"midi":79,"time":91.75178199999999,"velocity":0.31496062992125984},{"duration":0.1094889999999964,"midi":87,"time":91.86127099999999,"velocity":0.31496062992125984},{"duration":0.1094889999999964,"midi":79,"time":91.86127099999999,"velocity":0.31496062992125984},{"duration":0.1094890000000106,"midi":79,"time":91.97075999999998,"velocity":0.31496062992125984},{"duration":0.1094890000000106,"midi":87,"time":91.97075999999998,"velocity":0.31496062992125984},{"duration":0.1094889999999964,"midi":87,"time":92.080249,"velocity":0.31496062992125984},{"duration":0.1094889999999964,"midi":79,"time":92.080249,"velocity":0.31496062992125984},{"duration":0.1094889999999964,"midi":87,"time":92.18973799999999,"velocity":0.31496062992125984},{"duration":0.1094889999999964,"midi":79,"time":92.18973799999999,"velocity":0.31496062992125984},{"duration":0.1094889999999964,"midi":87,"time":92.29922699999999,"velocity":0.31496062992125984},{"duration":0.1094889999999964,"midi":79,"time":92.29922699999999,"velocity":0.31496062992125984},{"duration":0.1094890000000106,"midi":79,"time":92.40871599999998,"velocity":0.31496062992125984},{"duration":0.1094890000000106,"midi":87,"time":92.40871599999998,"velocity":0.31496062992125984},{"duration":0.1094889999999964,"midi":87,"time":92.518205,"velocity":0.31496062992125984},{"duration":0.1094889999999964,"midi":79,"time":92.518205,"velocity":0.31496062992125984},{"duration":0.1094889999999964,"midi":79,"time":92.62769399999999,"velocity":0.31496062992125984},{"duration":0.1094889999999964,"midi":87,"time":92.62769399999999,"velocity":0.31496062992125984},{"duration":0.1094889999999964,"midi":87,"time":92.73718299999999,"velocity":0.31496062992125984},{"duration":0.1094889999999964,"midi":79,"time":92.73718299999999,"velocity":0.31496062992125984},{"duration":0.1094890000000106,"midi":79,"time":92.84667199999998,"velocity":0.31496062992125984},{"duration":0.1094890000000106,"midi":87,"time":92.84667199999998,"velocity":0.31496062992125984},{"duration":0.1094889999999964,"midi":87,"time":92.956161,"velocity":0.31496062992125984},{"duration":0.1094889999999964,"midi":79,"time":92.956161,"velocity":0.31496062992125984},{"duration":0.1094889999999964,"midi":87,"time":93.06564999999999,"velocity":0.31496062992125984},{"duration":0.1094889999999964,"midi":79,"time":93.06564999999999,"velocity":0.31496062992125984},{"duration":0.1094889999999964,"midi":87,"time":93.17513899999999,"velocity":0.31496062992125984},{"duration":0.1094889999999964,"midi":79,"time":93.17513899999999,"velocity":0.31496062992125984},{"duration":0.1094890000000106,"midi":87,"time":93.28462799999998,"velocity":0.31496062992125984},{"duration":0.1094890000000106,"midi":79,"time":93.28462799999998,"velocity":0.31496062992125984},{"duration":0.1094889999999964,"midi":87,"time":93.394117,"velocity":0.31496062992125984},{"duration":0.1094889999999964,"midi":79,"time":93.394117,"velocity":0.31496062992125984},{"duration":0.1094889999999964,"midi":87,"time":93.50360599999999,"velocity":0.31496062992125984},{"duration":0.1094889999999964,"midi":79,"time":93.50360599999999,"velocity":0.31496062992125984},{"duration":0.1094890000000106,"midi":87,"time":93.61309499999999,"velocity":0.31496062992125984},{"duration":0.1094890000000106,"midi":79,"time":93.61309499999999,"velocity":0.31496062992125984},{"duration":0.1094889999999964,"midi":87,"time":93.722584,"velocity":0.31496062992125984},{"duration":0.1094889999999964,"midi":79,"time":93.722584,"velocity":0.31496062992125984},{"duration":0.1094889999999964,"midi":79,"time":93.832073,"velocity":0.31496062992125984},{"duration":0.1094889999999964,"midi":87,"time":93.832073,"velocity":0.31496062992125984},{"duration":0.1094889999999964,"midi":87,"time":93.94156199999999,"velocity":0.31496062992125984},{"duration":0.1094889999999964,"midi":79,"time":93.94156199999999,"velocity":0.31496062992125984},{"duration":0.1094890000000106,"midi":79,"time":94.05105099999999,"velocity":0.31496062992125984},{"duration":0.1094890000000106,"midi":87,"time":94.05105099999999,"velocity":0.31496062992125984},{"duration":0.1094889999999964,"midi":79,"time":94.16054,"velocity":0.31496062992125984},{"duration":0.1094889999999964,"midi":87,"time":94.16054,"velocity":0.31496062992125984},{"duration":0.1094889999999964,"midi":87,"time":94.270029,"velocity":0.31496062992125984},{"duration":0.1094889999999964,"midi":79,"time":94.270029,"velocity":0.31496062992125984},{"duration":0.1094889999999964,"midi":87,"time":94.37951799999999,"velocity":0.31496062992125984},{"duration":0.1094889999999964,"midi":79,"time":94.37951799999999,"velocity":0.31496062992125984},{"duration":0.1094890000000106,"midi":87,"time":94.48900699999999,"velocity":0.31496062992125984},{"duration":0.1094890000000106,"midi":79,"time":94.48900699999999,"velocity":0.31496062992125984},{"duration":0.1094889999999964,"midi":87,"time":94.598496,"velocity":0.31496062992125984},{"duration":0.1094889999999964,"midi":79,"time":94.598496,"velocity":0.31496062992125984},{"duration":0.1094889999999964,"midi":79,"time":94.707985,"velocity":0.31496062992125984},{"duration":0.1094889999999964,"midi":87,"time":94.707985,"velocity":0.31496062992125984},{"duration":0.1094889999999964,"midi":87,"time":94.81747399999999,"velocity":0.31496062992125984},{"duration":0.1094889999999964,"midi":79,"time":94.81747399999999,"velocity":0.31496062992125984},{"duration":0.1094890000000106,"midi":87,"time":94.92696299999999,"velocity":0.31496062992125984},{"duration":0.1094890000000106,"midi":79,"time":94.92696299999999,"velocity":0.31496062992125984},{"duration":0.1094889999999964,"midi":87,"time":95.036452,"velocity":0.31496062992125984},{"duration":0.1094889999999964,"midi":79,"time":95.036452,"velocity":0.31496062992125984},{"duration":0.1094889999999964,"midi":79,"time":95.145941,"velocity":0.31496062992125984},{"duration":0.1094889999999964,"midi":87,"time":95.145941,"velocity":0.31496062992125984},{"duration":0.1094889999999964,"midi":87,"time":95.25542999999999,"velocity":0.31496062992125984},{"duration":0.1094889999999964,"midi":79,"time":95.25542999999999,"velocity":0.31496062992125984},{"duration":0.1094890000000106,"midi":87,"time":95.36491899999999,"velocity":0.31496062992125984},{"duration":0.1094890000000106,"midi":79,"time":95.36491899999999,"velocity":0.31496062992125984},{"duration":0.1094889999999964,"midi":79,"time":95.474408,"velocity":0.31496062992125984},{"duration":0.1094889999999964,"midi":87,"time":95.474408,"velocity":0.31496062992125984},{"duration":0.1094889999999964,"midi":87,"time":95.583897,"velocity":0.31496062992125984},{"duration":0.1094889999999964,"midi":79,"time":95.583897,"velocity":0.31496062992125984},{"duration":0.1094889999999964,"midi":87,"time":95.69338599999999,"velocity":0.31496062992125984},{"duration":0.1094889999999964,"midi":79,"time":95.69338599999999,"velocity":0.31496062992125984},{"duration":0.1094890000000106,"midi":79,"time":95.80287499999999,"velocity":0.31496062992125984},{"duration":0.1094890000000106,"midi":87,"time":95.80287499999999,"velocity":0.31496062992125984},{"duration":0.1094889999999964,"midi":79,"time":95.912364,"velocity":0.31496062992125984},{"duration":0.1094889999999964,"midi":87,"time":95.912364,"velocity":0.31496062992125984},{"duration":0.1094889999999964,"midi":87,"time":96.021853,"velocity":0.31496062992125984},{"duration":0.1094889999999964,"midi":79,"time":96.021853,"velocity":0.31496062992125984},{"duration":0.1094889999999964,"midi":79,"time":96.13134199999999,"velocity":0.31496062992125984},{"duration":0.1094889999999964,"midi":87,"time":96.13134199999999,"velocity":0.31496062992125984},{"duration":0.1094890000000106,"midi":87,"time":96.24083099999999,"velocity":0.31496062992125984},{"duration":0.1094890000000106,"midi":79,"time":96.24083099999999,"velocity":0.31496062992125984},{"duration":0.1094889999999964,"midi":79,"time":96.35032,"velocity":0.31496062992125984},{"duration":0.1094889999999964,"midi":87,"time":96.35032,"velocity":0.31496062992125984},{"duration":0.1094889999999964,"midi":79,"time":96.45980899999999,"velocity":0.31496062992125984},{"duration":0.1094889999999964,"midi":87,"time":96.45980899999999,"velocity":0.31496062992125984},{"duration":0.1094889999999964,"midi":87,"time":96.56929799999999,"velocity":0.31496062992125984},{"duration":0.1094889999999964,"midi":79,"time":96.56929799999999,"velocity":0.31496062992125984},{"duration":0.1094890000000106,"midi":79,"time":96.67878699999999,"velocity":0.31496062992125984},{"duration":0.1094890000000106,"midi":87,"time":96.67878699999999,"velocity":0.31496062992125984},{"duration":0.1094889999999964,"midi":79,"time":96.788276,"velocity":0.31496062992125984},{"duration":0.1094889999999964,"midi":87,"time":96.788276,"velocity":0.31496062992125984},{"duration":0.1094889999999964,"midi":87,"time":96.89776499999999,"velocity":0.31496062992125984},{"duration":0.1094889999999964,"midi":79,"time":96.89776499999999,"velocity":0.31496062992125984},{"duration":0.1094889999999964,"midi":87,"time":97.00725399999999,"velocity":0.31496062992125984},{"duration":0.1094889999999964,"midi":79,"time":97.00725399999999,"velocity":0.31496062992125984},{"duration":0.1094890000000106,"midi":87,"time":97.11674299999999,"velocity":0.31496062992125984},{"duration":0.1094890000000106,"midi":79,"time":97.11674299999999,"velocity":0.31496062992125984},{"duration":0.1094889999999964,"midi":87,"time":97.226232,"velocity":0.31496062992125984},{"duration":0.1094889999999964,"midi":79,"time":97.226232,"velocity":0.31496062992125984},{"duration":0.1094889999999964,"midi":87,"time":97.33572099999999,"velocity":0.31496062992125984},{"duration":0.1094889999999964,"midi":79,"time":97.33572099999999,"velocity":0.31496062992125984},{"duration":0.1094889999999964,"midi":79,"time":97.44520999999999,"velocity":0.31496062992125984},{"duration":0.1094889999999964,"midi":87,"time":97.44520999999999,"velocity":0.31496062992125984},{"duration":0.1094890000000106,"midi":79,"time":97.55469899999999,"velocity":0.31496062992125984},{"duration":0.1094890000000106,"midi":87,"time":97.55469899999999,"velocity":0.31496062992125984},{"duration":0.1094889999999964,"midi":79,"time":97.664188,"velocity":0.31496062992125984},{"duration":0.1094889999999964,"midi":87,"time":97.664188,"velocity":0.31496062992125984},{"duration":0.1094889999999964,"midi":87,"time":97.77367699999999,"velocity":0.31496062992125984},{"duration":0.1094889999999964,"midi":79,"time":97.77367699999999,"velocity":0.31496062992125984},{"duration":0.1094889999999964,"midi":87,"time":97.88316599999999,"velocity":0.31496062992125984},{"duration":0.1094889999999964,"midi":79,"time":97.88316599999999,"velocity":0.31496062992125984},{"duration":0.1094890000000106,"midi":79,"time":97.99265499999998,"velocity":0.31496062992125984},{"duration":0.1094890000000106,"midi":87,"time":97.99265499999998,"velocity":0.31496062992125984},{"duration":0.1094889999999964,"midi":87,"time":98.102144,"velocity":0.31496062992125984},{"duration":0.1094889999999964,"midi":79,"time":98.102144,"velocity":0.31496062992125984},{"duration":0.1094889999999964,"midi":58,"time":98.102144,"velocity":0.31496062992125984},{"duration":0.1094889999999964,"midi":58,"time":98.21163299999999,"velocity":0.31496062992125984},{"duration":0.1094889999999964,"midi":87,"time":98.21163299999999,"velocity":0.31496062992125984},{"duration":0.1094889999999964,"midi":79,"time":98.21163299999999,"velocity":0.31496062992125984},{"duration":0.1094890000000106,"midi":87,"time":98.43061099999998,"velocity":0.31496062992125984},{"duration":0.1094890000000106,"midi":79,"time":98.43061099999998,"velocity":0.31496062992125984},{"duration":0.1094890000000106,"midi":58,"time":98.43061099999998,"velocity":0.31496062992125984},{"duration":0.1094889999999964,"midi":87,"time":98.5948445,"velocity":0.31496062992125984},{"duration":0.1094889999999964,"midi":79,"time":98.5948445,"velocity":0.31496062992125984},{"duration":0.1094889999999964,"midi":58,"time":98.5948445,"velocity":0.31496062992125984},{"duration":0.1094889999999964,"midi":79,"time":98.75907799999999,"velocity":0.31496062992125984},{"duration":0.1094889999999964,"midi":58,"time":98.75907799999999,"velocity":0.31496062992125984},{"duration":0.1094889999999964,"midi":87,"time":98.75907799999999,"velocity":0.31496062992125984},{"duration":0.1094889999999964,"midi":58,"time":98.978056,"velocity":0.31496062992125984},{"duration":0.1094889999999964,"midi":87,"time":98.978056,"velocity":0.31496062992125984},{"duration":0.1094889999999964,"midi":79,"time":98.978056,"velocity":0.31496062992125984},{"duration":0.1094889999999964,"midi":58,"time":99.08754499999999,"velocity":0.31496062992125984},{"duration":0.1094889999999964,"midi":79,"time":99.08754499999999,"velocity":0.31496062992125984},{"duration":0.1094889999999964,"midi":87,"time":99.08754499999999,"velocity":0.31496062992125984},{"duration":0.1094890000000106,"midi":79,"time":99.30652299999998,"velocity":0.31496062992125984},{"duration":0.1094890000000106,"midi":87,"time":99.30652299999998,"velocity":0.31496062992125984},{"duration":0.1094890000000106,"midi":58,"time":99.30652299999998,"velocity":0.31496062992125984},{"duration":0.1094889999999964,"midi":87,"time":99.4707565,"velocity":0.31496062992125984},{"duration":0.1094889999999964,"midi":79,"time":99.4707565,"velocity":0.31496062992125984},{"duration":0.1094889999999964,"midi":58,"time":99.4707565,"velocity":0.31496062992125984},{"duration":0.1094889999999964,"midi":58,"time":99.63498999999999,"velocity":0.31496062992125984},{"duration":0.1094889999999964,"midi":79,"time":99.63498999999999,"velocity":0.31496062992125984},{"duration":0.1094889999999964,"midi":87,"time":99.63498999999999,"velocity":0.31496062992125984},{"duration":0.1094889999999964,"midi":87,"time":99.853968,"velocity":0.31496062992125984},{"duration":0.1094889999999964,"midi":79,"time":99.853968,"velocity":0.31496062992125984},{"duration":0.1094889999999964,"midi":58,"time":99.853968,"velocity":0.31496062992125984},{"duration":0.1094889999999964,"midi":87,"time":99.96345699999999,"velocity":0.31496062992125984},{"duration":0.1094889999999964,"midi":79,"time":99.96345699999999,"velocity":0.31496062992125984},{"duration":0.1094889999999964,"midi":58,"time":99.96345699999999,"velocity":0.31496062992125984},{"duration":0.1094890000000106,"midi":79,"time":100.18243499999998,"velocity":0.31496062992125984},{"duration":0.1094890000000106,"midi":87,"time":100.18243499999998,"velocity":0.31496062992125984},{"duration":0.1094890000000106,"midi":58,"time":100.18243499999998,"velocity":0.31496062992125984},{"duration":0.1094889999999964,"midi":87,"time":100.34666849999999,"velocity":0.31496062992125984},{"duration":0.1094889999999964,"midi":79,"time":100.34666849999999,"velocity":0.31496062992125984},{"duration":0.1094889999999964,"midi":58,"time":100.34666849999999,"velocity":0.31496062992125984},{"duration":0.1094889999999964,"midi":87,"time":100.51090199999999,"velocity":0.31496062992125984},{"duration":0.1094889999999964,"midi":79,"time":100.51090199999999,"velocity":0.31496062992125984},{"duration":0.1094889999999964,"midi":58,"time":100.51090199999999,"velocity":0.31496062992125984},{"duration":0.1094889999999964,"midi":79,"time":100.72988,"velocity":0.31496062992125984},{"duration":0.1094889999999964,"midi":58,"time":100.72988,"velocity":0.31496062992125984},{"duration":0.1094889999999964,"midi":87,"time":100.72988,"velocity":0.31496062992125984},{"duration":0.1094889999999964,"midi":87,"time":100.83936899999999,"velocity":0.31496062992125984},{"duration":0.1094889999999964,"midi":79,"time":100.83936899999999,"velocity":0.31496062992125984},{"duration":0.1094889999999964,"midi":58,"time":100.83936899999999,"velocity":0.31496062992125984},{"duration":0.1094890000000106,"midi":79,"time":101.05834699999998,"velocity":0.31496062992125984},{"duration":0.1094890000000106,"midi":58,"time":101.05834699999998,"velocity":0.31496062992125984},{"duration":0.1094890000000106,"midi":87,"time":101.05834699999998,"velocity":0.31496062992125984},{"duration":0.1094889999999964,"midi":87,"time":101.22258049999999,"velocity":0.31496062992125984},{"duration":0.1094889999999964,"midi":79,"time":101.22258049999999,"velocity":0.31496062992125984},{"duration":0.1094889999999964,"midi":58,"time":101.22258049999999,"velocity":0.31496062992125984},{"duration":0.1094889999999964,"midi":79,"time":101.38681399999999,"velocity":0.31496062992125984},{"duration":0.1094889999999964,"midi":58,"time":101.38681399999999,"velocity":0.31496062992125984},{"duration":0.1094889999999964,"midi":87,"time":101.38681399999999,"velocity":0.31496062992125984},{"duration":0.1094889999999964,"midi":87,"time":101.605792,"velocity":0.31496062992125984},{"duration":0.1094889999999964,"midi":58,"time":101.605792,"velocity":0.31496062992125984},{"duration":0.1094889999999964,"midi":79,"time":101.605792,"velocity":0.31496062992125984},{"duration":0.1094889999999964,"midi":79,"time":101.71528099999999,"velocity":0.31496062992125984},{"duration":0.1094889999999964,"midi":87,"time":101.71528099999999,"velocity":0.31496062992125984},{"duration":0.1094889999999964,"midi":58,"time":101.71528099999999,"velocity":0.31496062992125984},{"duration":0.1094890000000106,"midi":87,"time":101.93425899999998,"velocity":0.31496062992125984},{"duration":0.1094890000000106,"midi":79,"time":101.93425899999998,"velocity":0.31496062992125984},{"duration":0.1094890000000106,"midi":58,"time":101.93425899999998,"velocity":0.31496062992125984},{"duration":0.1094889999999964,"midi":87,"time":102.09849249999999,"velocity":0.31496062992125984},{"duration":0.1094889999999964,"midi":79,"time":102.09849249999999,"velocity":0.31496062992125984},{"duration":0.1094889999999964,"midi":58,"time":102.09849249999999,"velocity":0.31496062992125984},{"duration":0.1094889999999964,"midi":79,"time":102.26272599999999,"velocity":0.31496062992125984},{"duration":0.1094889999999964,"midi":58,"time":102.26272599999999,"velocity":0.31496062992125984},{"duration":0.1094889999999964,"midi":87,"time":102.26272599999999,"velocity":0.31496062992125984},{"duration":0.1094889999999964,"midi":58,"time":102.481704,"velocity":0.31496062992125984},{"duration":0.1094889999999964,"midi":79,"time":102.481704,"velocity":0.31496062992125984},{"duration":0.1094889999999964,"midi":87,"time":102.481704,"velocity":0.31496062992125984},{"duration":0.1094889999999964,"midi":58,"time":102.59119299999999,"velocity":0.31496062992125984},{"duration":0.1094889999999964,"midi":87,"time":102.59119299999999,"velocity":0.31496062992125984},{"duration":0.1094889999999964,"midi":79,"time":102.59119299999999,"velocity":0.31496062992125984},{"duration":0.1094889999999964,"midi":87,"time":102.810171,"velocity":0.31496062992125984},{"duration":0.1094889999999964,"midi":79,"time":102.810171,"velocity":0.31496062992125984},{"duration":0.1094889999999964,"midi":58,"time":102.810171,"velocity":0.31496062992125984},{"duration":0.1094889999999964,"midi":87,"time":102.97440449999999,"velocity":0.31496062992125984},{"duration":0.1094889999999964,"midi":58,"time":102.97440449999999,"velocity":0.31496062992125984},{"duration":0.1094889999999964,"midi":79,"time":102.97440449999999,"velocity":0.31496062992125984},{"duration":0.1094890000000106,"midi":87,"time":103.13863799999999,"velocity":0.31496062992125984},{"duration":0.1094890000000106,"midi":79,"time":103.13863799999999,"velocity":0.31496062992125984},{"duration":0.1094890000000106,"midi":58,"time":103.13863799999999,"velocity":0.31496062992125984},{"duration":0.1094889999999964,"midi":58,"time":103.357616,"velocity":0.31496062992125984},{"duration":0.1094889999999964,"midi":79,"time":103.357616,"velocity":0.31496062992125984},{"duration":0.1094889999999964,"midi":87,"time":103.357616,"velocity":0.31496062992125984},{"duration":0.1094889999999964,"midi":87,"time":103.46710499999999,"velocity":0.31496062992125984},{"duration":0.1094889999999964,"midi":79,"time":103.46710499999999,"velocity":0.31496062992125984},{"duration":0.1094889999999964,"midi":58,"time":103.46710499999999,"velocity":0.31496062992125984},{"duration":0.1094889999999964,"midi":87,"time":103.686083,"velocity":0.31496062992125984},{"duration":0.1094889999999964,"midi":58,"time":103.686083,"velocity":0.31496062992125984},{"duration":0.1094889999999964,"midi":79,"time":103.686083,"velocity":0.31496062992125984},{"duration":0.1094889999999964,"midi":87,"time":103.85031649999999,"velocity":0.31496062992125984},{"duration":0.1094889999999964,"midi":79,"time":103.85031649999999,"velocity":0.31496062992125984},{"duration":0.1094889999999964,"midi":58,"time":103.85031649999999,"velocity":0.31496062992125984},{"duration":0.1094890000000106,"midi":58,"time":104.01454999999999,"velocity":0.31496062992125984},{"duration":0.1094890000000106,"midi":87,"time":104.01454999999999,"velocity":0.31496062992125984},{"duration":0.1094890000000106,"midi":79,"time":104.01454999999999,"velocity":0.31496062992125984},{"duration":0.1094889999999964,"midi":79,"time":104.23352799999999,"velocity":0.31496062992125984},{"duration":0.1094889999999964,"midi":87,"time":104.23352799999999,"velocity":0.31496062992125984},{"duration":0.1094889999999964,"midi":58,"time":104.23352799999999,"velocity":0.31496062992125984},{"duration":0.1094889999999964,"midi":79,"time":104.34301699999999,"velocity":0.31496062992125984},{"duration":0.1094889999999964,"midi":58,"time":104.34301699999999,"velocity":0.31496062992125984},{"duration":0.1094889999999964,"midi":87,"time":104.34301699999999,"velocity":0.31496062992125984},{"duration":0.1094889999999964,"midi":87,"time":104.561995,"velocity":0.31496062992125984},{"duration":0.1094889999999964,"midi":58,"time":104.561995,"velocity":0.31496062992125984},{"duration":0.1094889999999964,"midi":79,"time":104.561995,"velocity":0.31496062992125984},{"duration":0.1094889999999964,"midi":58,"time":104.72622849999999,"velocity":0.31496062992125984},{"duration":0.1094889999999964,"midi":87,"time":104.72622849999999,"velocity":0.31496062992125984},{"duration":0.1094889999999964,"midi":79,"time":104.72622849999999,"velocity":0.31496062992125984},{"duration":0.1094890000000106,"midi":87,"time":104.89046199999999,"velocity":0.31496062992125984},{"duration":0.1094890000000106,"midi":58,"time":104.89046199999999,"velocity":0.31496062992125984},{"duration":0.1094890000000106,"midi":79,"time":104.89046199999999,"velocity":0.31496062992125984},{"duration":0.1094889999999964,"midi":87,"time":105.10943999999999,"velocity":0.31496062992125984},{"duration":0.1094889999999964,"midi":79,"time":105.10943999999999,"velocity":0.31496062992125984},{"duration":0.1094889999999964,"midi":58,"time":105.10943999999999,"velocity":0.31496062992125984},{"duration":0.1094889999999964,"midi":58,"time":105.21892899999999,"velocity":0.31496062992125984},{"duration":0.1094889999999964,"midi":79,"time":105.21892899999999,"velocity":0.31496062992125984},{"duration":0.1094889999999964,"midi":87,"time":105.21892899999999,"velocity":0.31496062992125984},{"duration":0.1094889999999964,"midi":87,"time":105.437907,"velocity":0.31496062992125984},{"duration":0.1094889999999964,"midi":79,"time":105.437907,"velocity":0.31496062992125984},{"duration":0.1094889999999964,"midi":58,"time":105.437907,"velocity":0.31496062992125984},{"duration":0.1094889999999964,"midi":58,"time":105.60214049999999,"velocity":0.31496062992125984},{"duration":0.1094889999999964,"midi":87,"time":105.60214049999999,"velocity":0.31496062992125984},{"duration":0.1094889999999964,"midi":79,"time":105.60214049999999,"velocity":0.31496062992125984},{"duration":0.1094890000000106,"midi":87,"time":105.76637399999998,"velocity":0.31496062992125984},{"duration":0.1094890000000106,"midi":58,"time":105.76637399999998,"velocity":0.31496062992125984},{"duration":0.1094890000000106,"midi":79,"time":105.76637399999998,"velocity":0.31496062992125984},{"duration":0.1094889999999964,"midi":87,"time":105.98535199999999,"velocity":0.31496062992125984},{"duration":0.1094889999999964,"midi":79,"time":105.98535199999999,"velocity":0.31496062992125984},{"duration":0.1094889999999964,"midi":58,"time":105.98535199999999,"velocity":0.31496062992125984},{"duration":0.1094889999999964,"midi":79,"time":106.09484099999999,"velocity":0.31496062992125984},{"duration":0.1094889999999964,"midi":58,"time":106.09484099999999,"velocity":0.31496062992125984},{"duration":0.1094889999999964,"midi":87,"time":106.09484099999999,"velocity":0.31496062992125984},{"duration":0.1094889999999964,"midi":58,"time":106.313819,"velocity":0.31496062992125984},{"duration":0.1094889999999964,"midi":87,"time":106.313819,"velocity":0.31496062992125984},{"duration":0.1094889999999964,"midi":79,"time":106.313819,"velocity":0.31496062992125984},{"duration":0.1094889999999964,"midi":58,"time":106.47805249999999,"velocity":0.31496062992125984},{"duration":0.1094889999999964,"midi":79,"time":106.47805249999999,"velocity":0.31496062992125984},{"duration":0.1094889999999964,"midi":87,"time":106.47805249999999,"velocity":0.31496062992125984},{"duration":0.1094890000000106,"midi":79,"time":106.64228599999998,"velocity":0.31496062992125984},{"duration":0.1094890000000106,"midi":58,"time":106.64228599999998,"velocity":0.31496062992125984},{"duration":0.1094890000000106,"midi":87,"time":106.64228599999998,"velocity":0.31496062992125984},{"duration":0.1094889999999964,"midi":87,"time":106.86126399999999,"velocity":0.31496062992125984},{"duration":0.1094889999999964,"midi":58,"time":106.86126399999999,"velocity":0.31496062992125984},{"duration":0.1094889999999964,"midi":79,"time":106.86126399999999,"velocity":0.31496062992125984},{"duration":0.1094889999999964,"midi":79,"time":106.97075299999999,"velocity":0.31496062992125984},{"duration":0.1094889999999964,"midi":58,"time":106.97075299999999,"velocity":0.31496062992125984},{"duration":0.1094889999999964,"midi":87,"time":106.97075299999999,"velocity":0.31496062992125984},{"duration":0.1094889999999964,"midi":87,"time":107.189731,"velocity":0.31496062992125984},{"duration":0.1094889999999964,"midi":79,"time":107.189731,"velocity":0.31496062992125984},{"duration":0.1094889999999964,"midi":58,"time":107.189731,"velocity":0.31496062992125984},{"duration":0.1094889999999964,"midi":87,"time":107.35396449999999,"velocity":0.31496062992125984},{"duration":0.1094889999999964,"midi":79,"time":107.35396449999999,"velocity":0.31496062992125984},{"duration":0.1094889999999964,"midi":58,"time":107.35396449999999,"velocity":0.31496062992125984},{"duration":0.1094890000000106,"midi":87,"time":107.51819799999998,"velocity":0.31496062992125984},{"duration":0.1094890000000106,"midi":58,"time":107.51819799999998,"velocity":0.31496062992125984},{"duration":0.1094890000000106,"midi":79,"time":107.51819799999998,"velocity":0.31496062992125984},{"duration":0.1094889999999964,"midi":79,"time":107.73717599999999,"velocity":0.31496062992125984},{"duration":0.1094889999999964,"midi":87,"time":107.73717599999999,"velocity":0.31496062992125984},{"duration":0.1094889999999964,"midi":58,"time":107.73717599999999,"velocity":0.31496062992125984},{"duration":0.1094889999999964,"midi":79,"time":107.84666499999999,"velocity":0.31496062992125984},{"duration":0.1094889999999964,"midi":58,"time":107.84666499999999,"velocity":0.31496062992125984},{"duration":0.1094889999999964,"midi":87,"time":107.84666499999999,"velocity":0.31496062992125984},{"duration":0.1094889999999964,"midi":87,"time":108.065643,"velocity":0.31496062992125984},{"duration":0.1094889999999964,"midi":79,"time":108.065643,"velocity":0.31496062992125984},{"duration":0.1094889999999964,"midi":58,"time":108.065643,"velocity":0.31496062992125984},{"duration":0.1094889999999964,"midi":87,"time":108.22987649999999,"velocity":0.31496062992125984},{"duration":0.1094889999999964,"midi":79,"time":108.22987649999999,"velocity":0.31496062992125984},{"duration":0.1094889999999964,"midi":58,"time":108.22987649999999,"velocity":0.31496062992125984},{"duration":0.1094890000000106,"midi":87,"time":108.39410999999998,"velocity":0.31496062992125984},{"duration":0.1094890000000106,"midi":58,"time":108.39410999999998,"velocity":0.31496062992125984},{"duration":0.1094890000000106,"midi":79,"time":108.39410999999998,"velocity":0.31496062992125984},{"duration":0.1094889999999964,"midi":87,"time":108.61308799999999,"velocity":0.31496062992125984},{"duration":0.1094889999999964,"midi":79,"time":108.61308799999999,"velocity":0.31496062992125984},{"duration":0.1094889999999964,"midi":58,"time":108.61308799999999,"velocity":0.31496062992125984},{"duration":0.1094889999999964,"midi":79,"time":108.72257699999999,"velocity":0.31496062992125984},{"duration":0.1094889999999964,"midi":87,"time":108.72257699999999,"velocity":0.31496062992125984},{"duration":0.1094889999999964,"midi":58,"time":108.72257699999999,"velocity":0.31496062992125984},{"duration":0.1094889999999964,"midi":58,"time":108.941555,"velocity":0.31496062992125984},{"duration":0.1094889999999964,"midi":87,"time":108.941555,"velocity":0.31496062992125984},{"duration":0.1094889999999964,"midi":79,"time":108.941555,"velocity":0.31496062992125984},{"duration":0.1094889999999964,"midi":87,"time":109.10578849999999,"velocity":0.31496062992125984},{"duration":0.1094889999999964,"midi":79,"time":109.10578849999999,"velocity":0.31496062992125984},{"duration":0.1094889999999964,"midi":58,"time":109.10578849999999,"velocity":0.31496062992125984},{"duration":0.1094890000000106,"midi":58,"time":109.27002199999998,"velocity":0.31496062992125984},{"duration":0.1094890000000106,"midi":87,"time":109.27002199999998,"velocity":0.31496062992125984},{"duration":0.1094890000000106,"midi":79,"time":109.27002199999998,"velocity":0.31496062992125984},{"duration":0.1094889999999964,"midi":87,"time":109.48899999999999,"velocity":0.31496062992125984},{"duration":0.1094889999999964,"midi":79,"time":109.48899999999999,"velocity":0.31496062992125984},{"duration":0.1094889999999964,"midi":58,"time":109.48899999999999,"velocity":0.31496062992125984},{"duration":0.1094889999999964,"midi":58,"time":109.59848899999999,"velocity":0.31496062992125984},{"duration":0.1094889999999964,"midi":79,"time":109.59848899999999,"velocity":0.31496062992125984},{"duration":0.1094889999999964,"midi":87,"time":109.59848899999999,"velocity":0.31496062992125984},{"duration":0.1094889999999964,"midi":87,"time":109.817467,"velocity":0.31496062992125984},{"duration":0.1094889999999964,"midi":79,"time":109.817467,"velocity":0.31496062992125984},{"duration":0.1094889999999964,"midi":58,"time":109.817467,"velocity":0.31496062992125984},{"duration":0.1094889999999964,"midi":58,"time":109.98170049999999,"velocity":0.31496062992125984},{"duration":0.1094889999999964,"midi":87,"time":109.98170049999999,"velocity":0.31496062992125984},{"duration":0.1094889999999964,"midi":79,"time":109.98170049999999,"velocity":0.31496062992125984},{"duration":0.1094890000000106,"midi":58,"time":110.14593399999998,"velocity":0.31496062992125984},{"duration":0.1094890000000106,"midi":87,"time":110.14593399999998,"velocity":0.31496062992125984},{"duration":0.1094890000000106,"midi":79,"time":110.14593399999998,"velocity":0.31496062992125984},{"duration":0.1094889999999964,"midi":87,"time":110.36491199999999,"velocity":0.31496062992125984},{"duration":0.1094889999999964,"midi":79,"time":110.36491199999999,"velocity":0.31496062992125984},{"duration":0.1094889999999964,"midi":58,"time":110.36491199999999,"velocity":0.31496062992125984},{"duration":0.1094889999999964,"midi":87,"time":110.47440099999999,"velocity":0.31496062992125984},{"duration":0.1094889999999964,"midi":79,"time":110.47440099999999,"velocity":0.31496062992125984},{"duration":0.1094889999999964,"midi":58,"time":110.47440099999999,"velocity":0.31496062992125984},{"duration":0.1094889999999964,"midi":58,"time":110.693379,"velocity":0.31496062992125984},{"duration":0.1094889999999964,"midi":87,"time":110.693379,"velocity":0.31496062992125984},{"duration":0.1094889999999964,"midi":79,"time":110.693379,"velocity":0.31496062992125984},{"duration":0.1094889999999964,"midi":58,"time":110.85761249999999,"velocity":0.31496062992125984},{"duration":0.1094889999999964,"midi":87,"time":110.85761249999999,"velocity":0.31496062992125984},{"duration":0.1094889999999964,"midi":79,"time":110.85761249999999,"velocity":0.31496062992125984},{"duration":0.1094890000000106,"midi":87,"time":111.02184599999998,"velocity":0.31496062992125984},{"duration":0.1094890000000106,"midi":58,"time":111.02184599999998,"velocity":0.31496062992125984},{"duration":0.1094890000000106,"midi":79,"time":111.02184599999998,"velocity":0.31496062992125984},{"duration":0.1094889999999964,"midi":79,"time":111.24082399999999,"velocity":0.31496062992125984},{"duration":0.1094889999999964,"midi":58,"time":111.24082399999999,"velocity":0.31496062992125984},{"duration":0.1094889999999964,"midi":87,"time":111.24082399999999,"velocity":0.31496062992125984},{"duration":0.1094889999999964,"midi":87,"time":111.35031299999999,"velocity":0.31496062992125984},{"duration":0.1094889999999964,"midi":79,"time":111.35031299999999,"velocity":0.31496062992125984},{"duration":0.1094889999999964,"midi":58,"time":111.35031299999999,"velocity":0.31496062992125984},{"duration":0.1094889999999964,"midi":87,"time":111.56929099999999,"velocity":0.31496062992125984},{"duration":0.1094889999999964,"midi":58,"time":111.56929099999999,"velocity":0.31496062992125984},{"duration":0.1094889999999964,"midi":79,"time":111.56929099999999,"velocity":0.31496062992125984},{"duration":0.1094889999999964,"midi":58,"time":111.73352449999999,"velocity":0.31496062992125984},{"duration":0.1094889999999964,"midi":87,"time":111.73352449999999,"velocity":0.31496062992125984},{"duration":0.1094889999999964,"midi":79,"time":111.73352449999999,"velocity":0.31496062992125984},{"duration":0.1094890000000106,"midi":58,"time":111.89775799999998,"velocity":0.31496062992125984},{"duration":0.1094890000000106,"midi":87,"time":111.89775799999998,"velocity":0.31496062992125984},{"duration":0.1094890000000106,"midi":79,"time":111.89775799999998,"velocity":0.31496062992125984},{"duration":0.1094889999999964,"midi":87,"time":112.11673599999999,"velocity":0.31496062992125984},{"duration":0.1094889999999964,"midi":79,"time":112.11673599999999,"velocity":0.31496062992125984},{"duration":0.1094889999999964,"midi":58,"time":112.11673599999999,"velocity":0.31496062992125984},{"duration":0.1094890000000106,"midi":58,"time":112.22622499999999,"velocity":0.31496062992125984},{"duration":0.1094890000000106,"midi":79,"time":112.22622499999999,"velocity":0.31496062992125984},{"duration":0.1094890000000106,"midi":87,"time":112.22622499999999,"velocity":0.31496062992125984},{"duration":0.1094889999999964,"midi":87,"time":112.44520299999999,"velocity":0.31496062992125984},{"duration":0.1094889999999964,"midi":79,"time":112.44520299999999,"velocity":0.31496062992125984},{"duration":0.1094889999999964,"midi":58,"time":112.44520299999999,"velocity":0.31496062992125984},{"duration":0.1094889999999964,"midi":79,"time":112.60943649999999,"velocity":0.31496062992125984},{"duration":0.1094889999999964,"midi":58,"time":112.60943649999999,"velocity":0.31496062992125984},{"duration":0.1094889999999964,"midi":87,"time":112.60943649999999,"velocity":0.31496062992125984},{"duration":0.1094889999999964,"midi":79,"time":112.77367,"velocity":0.31496062992125984},{"duration":0.1094889999999964,"midi":87,"time":112.77367,"velocity":0.31496062992125984},{"duration":0.1094889999999964,"midi":58,"time":112.77367,"velocity":0.31496062992125984},{"duration":0.1094889999999964,"midi":87,"time":112.99264799999999,"velocity":0.31496062992125984},{"duration":0.1094889999999964,"midi":79,"time":112.99264799999999,"velocity":0.31496062992125984},{"duration":0.1094889999999964,"midi":58,"time":112.99264799999999,"velocity":0.31496062992125984},{"duration":0.1094890000000106,"midi":58,"time":113.10213699999998,"velocity":0.31496062992125984},{"duration":0.1094890000000106,"midi":87,"time":113.10213699999998,"velocity":0.31496062992125984},{"duration":0.1094890000000106,"midi":79,"time":113.10213699999998,"velocity":0.31496062992125984},{"duration":0.1094889999999964,"midi":87,"time":113.32111499999999,"velocity":0.31496062992125984},{"duration":0.1094889999999964,"midi":79,"time":113.32111499999999,"velocity":0.31496062992125984},{"duration":0.1094889999999964,"midi":58,"time":113.32111499999999,"velocity":0.31496062992125984},{"duration":0.1094889999999964,"midi":58,"time":113.48534849999999,"velocity":0.31496062992125984},{"duration":0.1094889999999964,"midi":79,"time":113.48534849999999,"velocity":0.31496062992125984},{"duration":0.1094889999999964,"midi":87,"time":113.48534849999999,"velocity":0.31496062992125984},{"duration":0.1094889999999964,"midi":58,"time":113.649582,"velocity":0.31496062992125984},{"duration":0.1094889999999964,"midi":87,"time":113.649582,"velocity":0.31496062992125984},{"duration":0.1094889999999964,"midi":79,"time":113.649582,"velocity":0.31496062992125984},{"duration":0.1094889999999964,"midi":87,"time":113.86855999999999,"velocity":0.31496062992125984},{"duration":0.1094889999999964,"midi":79,"time":113.86855999999999,"velocity":0.31496062992125984},{"duration":0.1094889999999964,"midi":58,"time":113.86855999999999,"velocity":0.31496062992125984},{"duration":0.1094890000000106,"midi":58,"time":113.97804899999998,"velocity":0.31496062992125984},{"duration":0.1094890000000106,"midi":87,"time":113.97804899999998,"velocity":0.31496062992125984},{"duration":0.1094890000000106,"midi":79,"time":113.97804899999998,"velocity":0.31496062992125984},{"duration":0.1094889999999964,"midi":87,"time":114.19702699999999,"velocity":0.31496062992125984},{"duration":0.1094889999999964,"midi":79,"time":114.19702699999999,"velocity":0.31496062992125984},{"duration":0.1094889999999964,"midi":58,"time":114.19702699999999,"velocity":0.31496062992125984},{"duration":0.1094889999999964,"midi":58,"time":114.36126049999999,"velocity":0.31496062992125984},{"duration":0.1094889999999964,"midi":87,"time":114.36126049999999,"velocity":0.31496062992125984},{"duration":0.1094889999999964,"midi":79,"time":114.36126049999999,"velocity":0.31496062992125984},{"duration":0.1094889999999964,"midi":58,"time":114.525494,"velocity":0.31496062992125984},{"duration":0.1094889999999964,"midi":87,"time":114.525494,"velocity":0.31496062992125984},{"duration":0.1094889999999964,"midi":79,"time":114.525494,"velocity":0.31496062992125984},{"duration":0.1094889999999964,"midi":87,"time":114.74447199999999,"velocity":0.31496062992125984},{"duration":0.1094889999999964,"midi":79,"time":114.74447199999999,"velocity":0.31496062992125984},{"duration":0.1094889999999964,"midi":58,"time":114.74447199999999,"velocity":0.31496062992125984},{"duration":0.1094890000000106,"midi":58,"time":114.85396099999998,"velocity":0.31496062992125984},{"duration":0.1094890000000106,"midi":79,"time":114.85396099999998,"velocity":0.31496062992125984},{"duration":0.1094890000000106,"midi":87,"time":114.85396099999998,"velocity":0.31496062992125984},{"duration":0.1094889999999964,"midi":87,"time":115.07293899999999,"velocity":0.31496062992125984},{"duration":0.1094889999999964,"midi":79,"time":115.07293899999999,"velocity":0.31496062992125984},{"duration":0.1094889999999964,"midi":58,"time":115.07293899999999,"velocity":0.31496062992125984},{"duration":0.1094889999999964,"midi":87,"time":115.23717249999999,"velocity":0.31496062992125984},{"duration":0.1094889999999964,"midi":79,"time":115.23717249999999,"velocity":0.31496062992125984},{"duration":0.1094889999999964,"midi":58,"time":115.23717249999999,"velocity":0.31496062992125984},{"duration":0.1094889999999964,"midi":58,"time":115.401406,"velocity":0.31496062992125984},{"duration":0.1094889999999964,"midi":87,"time":115.401406,"velocity":0.31496062992125984},{"duration":0.1094889999999964,"midi":79,"time":115.401406,"velocity":0.31496062992125984},{"duration":0.1094889999999964,"midi":58,"time":115.62038399999999,"velocity":0.31496062992125984},{"duration":0.1094889999999964,"midi":87,"time":115.62038399999999,"velocity":0.31496062992125984},{"duration":0.1094889999999964,"midi":79,"time":115.62038399999999,"velocity":0.31496062992125984},{"duration":0.1094890000000106,"midi":58,"time":115.72987299999998,"velocity":0.31496062992125984},{"duration":0.1094890000000106,"midi":87,"time":115.72987299999998,"velocity":0.31496062992125984},{"duration":0.1094890000000106,"midi":79,"time":115.72987299999998,"velocity":0.31496062992125984},{"duration":0.1094889999999964,"midi":79,"time":115.94885099999999,"velocity":0.31496062992125984},{"duration":0.1094889999999964,"midi":87,"time":115.94885099999999,"velocity":0.31496062992125984},{"duration":0.1094889999999964,"midi":58,"time":115.94885099999999,"velocity":0.31496062992125984},{"duration":0.1094889999999964,"midi":79,"time":116.11308449999999,"velocity":0.31496062992125984},{"duration":0.1094889999999964,"midi":58,"time":116.11308449999999,"velocity":0.31496062992125984},{"duration":0.1094889999999964,"midi":87,"time":116.11308449999999,"velocity":0.31496062992125984},{"duration":0.1094889999999964,"midi":87,"time":116.277318,"velocity":0.31496062992125984},{"duration":0.1094889999999964,"midi":79,"time":116.277318,"velocity":0.31496062992125984},{"duration":0.1094889999999964,"midi":58,"time":116.277318,"velocity":0.31496062992125984},{"duration":0.1094889999999964,"midi":87,"time":116.49629599999999,"velocity":0.31496062992125984},{"duration":0.1094889999999964,"midi":79,"time":116.49629599999999,"velocity":0.31496062992125984},{"duration":0.1094889999999964,"midi":58,"time":116.49629599999999,"velocity":0.31496062992125984},{"duration":0.1094890000000106,"midi":58,"time":116.60578499999998,"velocity":0.31496062992125984},{"duration":0.1094890000000106,"midi":79,"time":116.60578499999998,"velocity":0.31496062992125984},{"duration":0.1094890000000106,"midi":87,"time":116.60578499999998,"velocity":0.31496062992125984},{"duration":0.1094889999999964,"midi":79,"time":116.82476299999999,"velocity":0.31496062992125984},{"duration":0.1094889999999964,"midi":87,"time":116.82476299999999,"velocity":0.31496062992125984},{"duration":0.1094889999999964,"midi":58,"time":116.82476299999999,"velocity":0.31496062992125984},{"duration":0.1094890000000106,"midi":79,"time":116.98899649999998,"velocity":0.31496062992125984},{"duration":0.1094890000000106,"midi":87,"time":116.98899649999998,"velocity":0.31496062992125984},{"duration":0.1094890000000106,"midi":58,"time":116.98899649999998,"velocity":0.31496062992125984},{"duration":0.1094889999999964,"midi":79,"time":117.15323,"velocity":0.31496062992125984},{"duration":0.1094889999999964,"midi":87,"time":117.15323,"velocity":0.31496062992125984},{"duration":0.1094889999999964,"midi":58,"time":117.15323,"velocity":0.31496062992125984},{"duration":0.1094889999999964,"midi":58,"time":117.37220799999999,"velocity":0.31496062992125984},{"duration":0.1094889999999964,"midi":79,"time":117.37220799999999,"velocity":0.31496062992125984},{"duration":0.1094889999999964,"midi":87,"time":117.37220799999999,"velocity":0.31496062992125984},{"duration":0.1094890000000106,"midi":58,"time":117.48169699999998,"velocity":0.31496062992125984},{"duration":0.1094890000000106,"midi":87,"time":117.48169699999998,"velocity":0.31496062992125984},{"duration":0.1094890000000106,"midi":79,"time":117.48169699999998,"velocity":0.31496062992125984},{"duration":0.1094889999999964,"midi":87,"time":117.70067499999999,"velocity":0.31496062992125984},{"duration":0.1094889999999964,"midi":79,"time":117.70067499999999,"velocity":0.31496062992125984},{"duration":0.1094889999999964,"midi":58,"time":117.70067499999999,"velocity":0.31496062992125984},{"duration":0.1094890000000106,"midi":87,"time":117.86490849999998,"velocity":0.31496062992125984},{"duration":0.1094890000000106,"midi":58,"time":117.86490849999998,"velocity":0.31496062992125984},{"duration":0.1094890000000106,"midi":79,"time":117.86490849999998,"velocity":0.31496062992125984},{"duration":0.1094889999999964,"midi":79,"time":118.029142,"velocity":0.31496062992125984},{"duration":0.1094889999999964,"midi":58,"time":118.029142,"velocity":0.31496062992125984},{"duration":0.1094889999999964,"midi":87,"time":118.029142,"velocity":0.31496062992125984},{"duration":0.1094889999999964,"midi":87,"time":118.24811999999999,"velocity":0.31496062992125984},{"duration":0.1094889999999964,"midi":79,"time":118.24811999999999,"velocity":0.31496062992125984},{"duration":0.1094889999999964,"midi":58,"time":118.24811999999999,"velocity":0.31496062992125984},{"duration":0.1094890000000106,"midi":79,"time":118.35760899999998,"velocity":0.31496062992125984},{"duration":0.1094890000000106,"midi":87,"time":118.35760899999998,"velocity":0.31496062992125984},{"duration":0.1094890000000106,"midi":58,"time":118.35760899999998,"velocity":0.31496062992125984},{"duration":0.1094889999999964,"midi":58,"time":118.57658699999999,"velocity":0.31496062992125984},{"duration":0.1094889999999964,"midi":79,"time":118.57658699999999,"velocity":0.31496062992125984},{"duration":0.1094889999999964,"midi":87,"time":118.57658699999999,"velocity":0.31496062992125984},{"duration":0.1094890000000106,"midi":79,"time":118.74082049999998,"velocity":0.31496062992125984},{"duration":0.1094890000000106,"midi":87,"time":118.74082049999998,"velocity":0.31496062992125984},{"duration":0.1094890000000106,"midi":58,"time":118.74082049999998,"velocity":0.31496062992125984},{"duration":0.1094889999999964,"midi":58,"time":118.90505399999999,"velocity":0.31496062992125984},{"duration":0.1094889999999964,"midi":87,"time":118.90505399999999,"velocity":0.31496062992125984},{"duration":0.1094889999999964,"midi":79,"time":118.90505399999999,"velocity":0.31496062992125984},{"duration":0.1094889999999964,"midi":79,"time":119.12403199999999,"velocity":0.31496062992125984},{"duration":0.1094889999999964,"midi":58,"time":119.12403199999999,"velocity":0.31496062992125984},{"duration":0.1094889999999964,"midi":87,"time":119.12403199999999,"velocity":0.31496062992125984},{"duration":0.1094890000000106,"midi":58,"time":119.23352099999998,"velocity":0.31496062992125984},{"duration":0.1094890000000106,"midi":79,"time":119.23352099999998,"velocity":0.31496062992125984},{"duration":0.1094890000000106,"midi":87,"time":119.23352099999998,"velocity":0.31496062992125984},{"duration":0.1094889999999964,"midi":58,"time":119.45249899999999,"velocity":0.31496062992125984},{"duration":0.1094889999999964,"midi":87,"time":119.45249899999999,"velocity":0.31496062992125984},{"duration":0.1094889999999964,"midi":79,"time":119.45249899999999,"velocity":0.31496062992125984},{"duration":0.1094890000000106,"midi":87,"time":119.61673249999998,"velocity":0.31496062992125984},{"duration":0.1094890000000106,"midi":79,"time":119.61673249999998,"velocity":0.31496062992125984},{"duration":0.1094890000000106,"midi":58,"time":119.61673249999998,"velocity":0.31496062992125984},{"duration":0.1094889999999964,"midi":79,"time":119.78096599999999,"velocity":0.31496062992125984},{"duration":0.1094889999999964,"midi":87,"time":119.78096599999999,"velocity":0.31496062992125984},{"duration":0.1094889999999964,"midi":58,"time":119.78096599999999,"velocity":0.31496062992125984},{"duration":0.1094889999999964,"midi":58,"time":119.99994399999999,"velocity":0.31496062992125984},{"duration":0.1094889999999964,"midi":79,"time":119.99994399999999,"velocity":0.31496062992125984},{"duration":0.1094889999999964,"midi":87,"time":119.99994399999999,"velocity":0.31496062992125984},{"duration":0.1094890000000106,"midi":87,"time":120.10943299999998,"velocity":0.31496062992125984},{"duration":0.1094890000000106,"midi":79,"time":120.10943299999998,"velocity":0.31496062992125984},{"duration":0.1094890000000106,"midi":58,"time":120.10943299999998,"velocity":0.31496062992125984},{"duration":0.1094889999999964,"midi":58,"time":120.32841099999999,"velocity":0.31496062992125984},{"duration":0.1094889999999964,"midi":87,"time":120.32841099999999,"velocity":0.31496062992125984},{"duration":0.1094889999999964,"midi":79,"time":120.32841099999999,"velocity":0.31496062992125984},{"duration":0.1094890000000106,"midi":58,"time":120.49264449999998,"velocity":0.31496062992125984},{"duration":0.1094890000000106,"midi":87,"time":120.49264449999998,"velocity":0.31496062992125984},{"duration":0.1094890000000106,"midi":79,"time":120.49264449999998,"velocity":0.31496062992125984},{"duration":0.1094889999999964,"midi":58,"time":120.65687799999999,"velocity":0.31496062992125984},{"duration":0.1094889999999964,"midi":87,"time":120.65687799999999,"velocity":0.31496062992125984},{"duration":0.1094889999999964,"midi":79,"time":120.65687799999999,"velocity":0.31496062992125984},{"duration":0.1094889999999964,"midi":58,"time":120.87585599999998,"velocity":0.31496062992125984},{"duration":0.1094889999999964,"midi":87,"time":120.87585599999998,"velocity":0.31496062992125984},{"duration":0.1094889999999964,"midi":79,"time":120.87585599999998,"velocity":0.31496062992125984},{"duration":0.1094890000000106,"midi":58,"time":120.98534499999998,"velocity":0.31496062992125984},{"duration":0.1094890000000106,"midi":87,"time":120.98534499999998,"velocity":0.31496062992125984},{"duration":0.1094890000000106,"midi":79,"time":120.98534499999998,"velocity":0.31496062992125984},{"duration":0.1094889999999964,"midi":87,"time":121.20432299999999,"velocity":0.31496062992125984},{"duration":0.1094889999999964,"midi":79,"time":121.20432299999999,"velocity":0.31496062992125984},{"duration":0.1094889999999964,"midi":58,"time":121.20432299999999,"velocity":0.31496062992125984},{"duration":0.1094890000000106,"midi":87,"time":121.36855649999998,"velocity":0.31496062992125984},{"duration":0.1094890000000106,"midi":79,"time":121.36855649999998,"velocity":0.31496062992125984},{"duration":0.1094890000000106,"midi":58,"time":121.36855649999998,"velocity":0.31496062992125984},{"duration":0.1094889999999964,"midi":79,"time":121.53278999999999,"velocity":0.31496062992125984},{"duration":0.1094889999999964,"midi":58,"time":121.53278999999999,"velocity":0.31496062992125984},{"duration":0.1094889999999964,"midi":87,"time":121.53278999999999,"velocity":0.31496062992125984},{"duration":0.1094890000000106,"midi":87,"time":121.75176799999998,"velocity":0.31496062992125984},{"duration":0.1094890000000106,"midi":79,"time":121.75176799999998,"velocity":0.31496062992125984},{"duration":0.1094890000000106,"midi":58,"time":121.75176799999998,"velocity":0.31496062992125984},{"duration":0.1094889999999964,"midi":87,"time":121.861257,"velocity":0.31496062992125984},{"duration":0.1094889999999964,"midi":79,"time":121.861257,"velocity":0.31496062992125984},{"duration":0.1094889999999964,"midi":58,"time":121.861257,"velocity":0.31496062992125984},{"duration":0.1094889999999964,"midi":58,"time":122.08023499999999,"velocity":0.31496062992125984},{"duration":0.1094889999999964,"midi":87,"time":122.08023499999999,"velocity":0.31496062992125984},{"duration":0.1094889999999964,"midi":79,"time":122.08023499999999,"velocity":0.31496062992125984},{"duration":0.1094890000000106,"midi":79,"time":122.24446849999998,"velocity":0.31496062992125984},{"duration":0.1094890000000106,"midi":87,"time":122.24446849999998,"velocity":0.31496062992125984},{"duration":0.1094890000000106,"midi":58,"time":122.24446849999998,"velocity":0.31496062992125984},{"duration":0.1094889999999964,"midi":79,"time":122.40870199999999,"velocity":0.31496062992125984},{"duration":0.1094889999999964,"midi":58,"time":122.40870199999999,"velocity":0.31496062992125984},{"duration":0.1094889999999964,"midi":87,"time":122.40870199999999,"velocity":0.31496062992125984},{"duration":0.1094890000000106,"midi":87,"time":122.62767999999998,"velocity":0.31496062992125984},{"duration":0.1094890000000106,"midi":58,"time":122.62767999999998,"velocity":0.31496062992125984},{"duration":0.1094890000000106,"midi":79,"time":122.62767999999998,"velocity":0.31496062992125984},{"duration":0.1094889999999964,"midi":79,"time":122.737169,"velocity":0.31496062992125984},{"duration":0.1094889999999964,"midi":58,"time":122.737169,"velocity":0.31496062992125984},{"duration":0.1094889999999964,"midi":87,"time":122.737169,"velocity":0.31496062992125984},{"duration":0.1094889999999964,"midi":58,"time":122.95614699999999,"velocity":0.31496062992125984},{"duration":0.1094889999999964,"midi":87,"time":122.95614699999999,"velocity":0.31496062992125984},{"duration":0.1094889999999964,"midi":79,"time":122.95614699999999,"velocity":0.31496062992125984},{"duration":0.1094890000000106,"midi":87,"time":123.12038049999998,"velocity":0.31496062992125984},{"duration":0.1094890000000106,"midi":79,"time":123.12038049999998,"velocity":0.31496062992125984},{"duration":0.1094890000000106,"midi":58,"time":123.12038049999998,"velocity":0.31496062992125984},{"duration":0.1094889999999964,"midi":87,"time":123.28461399999999,"velocity":0.31496062992125984},{"duration":0.1094889999999964,"midi":58,"time":123.28461399999999,"velocity":0.31496062992125984},{"duration":0.1094889999999964,"midi":79,"time":123.28461399999999,"velocity":0.31496062992125984},{"duration":0.1094890000000106,"midi":87,"time":123.50359199999998,"velocity":0.31496062992125984},{"duration":0.1094890000000106,"midi":79,"time":123.50359199999998,"velocity":0.31496062992125984},{"duration":0.1094890000000106,"midi":58,"time":123.50359199999998,"velocity":0.31496062992125984},{"duration":0.1094889999999964,"midi":87,"time":123.613081,"velocity":0.31496062992125984},{"duration":0.1094889999999964,"midi":79,"time":123.613081,"velocity":0.31496062992125984},{"duration":0.1094889999999964,"midi":58,"time":123.613081,"velocity":0.31496062992125984},{"duration":0.1094889999999964,"midi":87,"time":123.83205899999999,"velocity":0.31496062992125984},{"duration":0.1094889999999964,"midi":79,"time":123.83205899999999,"velocity":0.31496062992125984},{"duration":0.1094889999999964,"midi":58,"time":123.83205899999999,"velocity":0.31496062992125984},{"duration":0.1094890000000106,"midi":79,"time":123.99629249999998,"velocity":0.31496062992125984},{"duration":0.1094890000000106,"midi":58,"time":123.99629249999998,"velocity":0.31496062992125984},{"duration":0.1094890000000106,"midi":87,"time":123.99629249999998,"velocity":0.31496062992125984},{"duration":0.1094889999999964,"midi":58,"time":124.16052599999999,"velocity":0.31496062992125984},{"duration":0.1094889999999964,"midi":79,"time":124.16052599999999,"velocity":0.31496062992125984},{"duration":0.1094889999999964,"midi":87,"time":124.16052599999999,"velocity":0.31496062992125984},{"duration":0.1094890000000106,"midi":87,"time":124.37950399999998,"velocity":0.31496062992125984},{"duration":0.1094890000000106,"midi":79,"time":124.37950399999998,"velocity":0.31496062992125984},{"duration":0.1094890000000106,"midi":58,"time":124.37950399999998,"velocity":0.31496062992125984},{"duration":0.1094889999999964,"midi":87,"time":124.488993,"velocity":0.31496062992125984},{"duration":0.1094889999999964,"midi":79,"time":124.488993,"velocity":0.31496062992125984},{"duration":0.1094889999999964,"midi":58,"time":124.488993,"velocity":0.31496062992125984},{"duration":0.1094889999999964,"midi":58,"time":124.70797099999999,"velocity":0.31496062992125984},{"duration":0.1094889999999964,"midi":79,"time":124.70797099999999,"velocity":0.31496062992125984},{"duration":0.1094889999999964,"midi":87,"time":124.70797099999999,"velocity":0.31496062992125984},{"duration":0.1094890000000106,"midi":79,"time":124.87220449999998,"velocity":0.31496062992125984},{"duration":0.1094890000000106,"midi":58,"time":124.87220449999998,"velocity":0.31496062992125984},{"duration":0.1094890000000106,"midi":87,"time":124.87220449999998,"velocity":0.31496062992125984},{"duration":0.1094889999999964,"midi":87,"time":125.03643799999999,"velocity":0.31496062992125984},{"duration":0.1094889999999964,"midi":79,"time":125.03643799999999,"velocity":0.31496062992125984},{"duration":0.1094889999999964,"midi":58,"time":125.03643799999999,"velocity":0.31496062992125984},{"duration":0.1094890000000106,"midi":58,"time":125.25541599999998,"velocity":0.31496062992125984},{"duration":0.1094890000000106,"midi":87,"time":125.25541599999998,"velocity":0.31496062992125984},{"duration":0.1094890000000106,"midi":79,"time":125.25541599999998,"velocity":0.31496062992125984},{"duration":0.1094889999999964,"midi":79,"time":125.364905,"velocity":0.31496062992125984},{"duration":0.1094889999999964,"midi":58,"time":125.364905,"velocity":0.31496062992125984},{"duration":0.1094889999999964,"midi":87,"time":125.364905,"velocity":0.31496062992125984},{"duration":0.1094889999999964,"midi":58,"time":125.58388299999999,"velocity":0.31496062992125984},{"duration":0.1094889999999964,"midi":79,"time":125.58388299999999,"velocity":0.31496062992125984},{"duration":0.1094889999999964,"midi":87,"time":125.58388299999999,"velocity":0.31496062992125984},{"duration":0.1094890000000106,"midi":79,"time":125.74811649999998,"velocity":0.31496062992125984},{"duration":0.1094890000000106,"midi":58,"time":125.74811649999998,"velocity":0.31496062992125984},{"duration":0.1094890000000106,"midi":87,"time":125.74811649999998,"velocity":0.31496062992125984},{"duration":0.1094889999999964,"midi":87,"time":125.91234999999999,"velocity":0.31496062992125984},{"duration":0.1094889999999964,"midi":79,"time":125.91234999999999,"velocity":0.31496062992125984},{"duration":0.1094889999999964,"midi":58,"time":125.91234999999999,"velocity":0.31496062992125984},{"duration":0.1094890000000106,"midi":58,"time":126.13132799999998,"velocity":0.31496062992125984},{"duration":0.1094890000000106,"midi":79,"time":126.13132799999998,"velocity":0.31496062992125984},{"duration":0.1094890000000106,"midi":87,"time":126.13132799999998,"velocity":0.31496062992125984},{"duration":0.1094889999999964,"midi":58,"time":126.24081699999999,"velocity":0.31496062992125984},{"duration":0.1094889999999964,"midi":87,"time":126.24081699999999,"velocity":0.31496062992125984},{"duration":0.1094889999999964,"midi":79,"time":126.24081699999999,"velocity":0.31496062992125984},{"duration":0.1094889999999964,"midi":58,"time":126.45979499999999,"velocity":0.31496062992125984},{"duration":0.1094889999999964,"midi":87,"time":126.45979499999999,"velocity":0.31496062992125984},{"duration":0.1094889999999964,"midi":79,"time":126.45979499999999,"velocity":0.31496062992125984},{"duration":0.1094889999999964,"midi":58,"time":126.6240285,"velocity":0.31496062992125984},{"duration":0.1094889999999964,"midi":87,"time":126.6240285,"velocity":0.31496062992125984},{"duration":0.1094889999999964,"midi":79,"time":126.6240285,"velocity":0.31496062992125984},{"duration":0.1094889999999964,"midi":87,"time":126.78826199999999,"velocity":0.31496062992125984},{"duration":0.1094889999999964,"midi":79,"time":126.78826199999999,"velocity":0.31496062992125984},{"duration":0.1094889999999964,"midi":58,"time":126.78826199999999,"velocity":0.31496062992125984},{"duration":0.1094890000000106,"midi":79,"time":127.00723999999998,"velocity":0.31496062992125984},{"duration":0.1094890000000106,"midi":87,"time":127.00723999999998,"velocity":0.31496062992125984},{"duration":0.1094890000000106,"midi":58,"time":127.00723999999998,"velocity":0.31496062992125984},{"duration":0.1094889999999964,"midi":79,"time":127.11672899999999,"velocity":0.31496062992125984},{"duration":0.1094889999999964,"midi":58,"time":127.11672899999999,"velocity":0.31496062992125984},{"duration":0.1094889999999964,"midi":87,"time":127.11672899999999,"velocity":0.31496062992125984},{"duration":0.1094889999999964,"midi":58,"time":127.33570699999999,"velocity":0.31496062992125984},{"duration":0.1094889999999964,"midi":87,"time":127.33570699999999,"velocity":0.31496062992125984},{"duration":0.1094889999999964,"midi":79,"time":127.33570699999999,"velocity":0.31496062992125984},{"duration":0.1094889999999964,"midi":79,"time":127.4999405,"velocity":0.31496062992125984},{"duration":0.1094889999999964,"midi":87,"time":127.4999405,"velocity":0.31496062992125984},{"duration":0.1094889999999964,"midi":58,"time":127.4999405,"velocity":0.31496062992125984},{"duration":0.1094889999999964,"midi":79,"time":127.66417399999999,"velocity":0.31496062992125984},{"duration":0.1094889999999964,"midi":58,"time":127.66417399999999,"velocity":0.31496062992125984},{"duration":0.1094889999999964,"midi":87,"time":127.66417399999999,"velocity":0.31496062992125984},{"duration":0.1094890000000106,"midi":87,"time":127.88315199999998,"velocity":0.31496062992125984},{"duration":0.1094890000000106,"midi":79,"time":127.88315199999998,"velocity":0.31496062992125984},{"duration":0.1094890000000106,"midi":58,"time":127.88315199999998,"velocity":0.31496062992125984},{"duration":0.1094889999999964,"midi":58,"time":127.99264099999999,"velocity":0.31496062992125984},{"duration":0.1094889999999964,"midi":87,"time":127.99264099999999,"velocity":0.31496062992125984},{"duration":0.1094889999999964,"midi":79,"time":127.99264099999999,"velocity":0.31496062992125984},{"duration":0.1094889999999964,"midi":87,"time":128.21161899999998,"velocity":0.31496062992125984},{"duration":0.1094889999999964,"midi":79,"time":128.21161899999998,"velocity":0.31496062992125984},{"duration":0.1094889999999964,"midi":58,"time":128.21161899999998,"velocity":0.31496062992125984},{"duration":0.1094889999999964,"midi":58,"time":128.37585249999998,"velocity":0.31496062992125984},{"duration":0.1094889999999964,"midi":79,"time":128.37585249999998,"velocity":0.31496062992125984},{"duration":0.1094889999999964,"midi":87,"time":128.37585249999998,"velocity":0.31496062992125984},{"duration":0.10948900000002482,"midi":79,"time":128.54008599999997,"velocity":0.31496062992125984},{"duration":0.10948900000002482,"midi":87,"time":128.54008599999997,"velocity":0.31496062992125984},{"duration":0.10948900000002482,"midi":58,"time":128.54008599999997,"velocity":0.31496062992125984},{"duration":0.1094889999999964,"midi":87,"time":128.759064,"velocity":0.31496062992125984},{"duration":0.1094889999999964,"midi":79,"time":128.759064,"velocity":0.31496062992125984},{"duration":0.1094889999999964,"midi":58,"time":128.759064,"velocity":0.31496062992125984},{"duration":0.1094889999999964,"midi":58,"time":128.868553,"velocity":0.31496062992125984},{"duration":0.1094889999999964,"midi":79,"time":128.868553,"velocity":0.31496062992125984},{"duration":0.1094889999999964,"midi":87,"time":128.868553,"velocity":0.31496062992125984},{"duration":0.1094889999999964,"midi":87,"time":129.08753099999998,"velocity":0.31496062992125984},{"duration":0.1094889999999964,"midi":79,"time":129.08753099999998,"velocity":0.31496062992125984},{"duration":0.1094889999999964,"midi":58,"time":129.08753099999998,"velocity":0.31496062992125984},{"duration":0.1094889999999964,"midi":79,"time":129.25176449999998,"velocity":0.31496062992125984},{"duration":0.1094889999999964,"midi":87,"time":129.25176449999998,"velocity":0.31496062992125984},{"duration":0.1094889999999964,"midi":58,"time":129.25176449999998,"velocity":0.31496062992125984},{"duration":0.10948900000002482,"midi":58,"time":129.41599799999997,"velocity":0.31496062992125984},{"duration":0.10948900000002482,"midi":87,"time":129.41599799999997,"velocity":0.31496062992125984},{"duration":0.10948900000002482,"midi":79,"time":129.41599799999997,"velocity":0.31496062992125984},{"duration":0.1094889999999964,"midi":87,"time":129.634976,"velocity":0.31496062992125984},{"duration":0.1094889999999964,"midi":58,"time":129.634976,"velocity":0.31496062992125984},{"duration":0.1094889999999964,"midi":79,"time":129.634976,"velocity":0.31496062992125984},{"duration":0.1094889999999964,"midi":79,"time":129.744465,"velocity":0.31496062992125984},{"duration":0.1094889999999964,"midi":87,"time":129.744465,"velocity":0.31496062992125984},{"duration":0.1094889999999964,"midi":58,"time":129.744465,"velocity":0.31496062992125984},{"duration":0.1094889999999964,"midi":58,"time":129.96344299999998,"velocity":0.31496062992125984},{"duration":0.1094889999999964,"midi":87,"time":129.96344299999998,"velocity":0.31496062992125984},{"duration":0.1094889999999964,"midi":79,"time":129.96344299999998,"velocity":0.31496062992125984},{"duration":0.1094889999999964,"midi":87,"time":130.12767649999998,"velocity":0.31496062992125984},{"duration":0.1094889999999964,"midi":79,"time":130.12767649999998,"velocity":0.31496062992125984},{"duration":0.1094889999999964,"midi":58,"time":130.12767649999998,"velocity":0.31496062992125984},{"duration":0.10948900000002482,"midi":87,"time":130.29190999999997,"velocity":0.31496062992125984},{"duration":0.10948900000002482,"midi":58,"time":130.29190999999997,"velocity":0.31496062992125984},{"duration":0.10948900000002482,"midi":79,"time":130.29190999999997,"velocity":0.31496062992125984},{"duration":0.1094889999999964,"midi":87,"time":130.510888,"velocity":0.31496062992125984},{"duration":0.1094889999999964,"midi":79,"time":130.510888,"velocity":0.31496062992125984},{"duration":0.1094889999999964,"midi":58,"time":130.510888,"velocity":0.31496062992125984},{"duration":0.1094889999999964,"midi":58,"time":130.620377,"velocity":0.31496062992125984},{"duration":0.1094889999999964,"midi":79,"time":130.620377,"velocity":0.31496062992125984},{"duration":0.1094889999999964,"midi":87,"time":130.620377,"velocity":0.31496062992125984},{"duration":0.1094889999999964,"midi":79,"time":130.83935499999998,"velocity":0.31496062992125984},{"duration":0.1094889999999964,"midi":58,"time":130.83935499999998,"velocity":0.31496062992125984},{"duration":0.1094889999999964,"midi":87,"time":130.83935499999998,"velocity":0.31496062992125984},{"duration":0.1094889999999964,"midi":87,"time":131.00358849999998,"velocity":0.31496062992125984},{"duration":0.1094889999999964,"midi":79,"time":131.00358849999998,"velocity":0.31496062992125984},{"duration":0.1094889999999964,"midi":58,"time":131.00358849999998,"velocity":0.31496062992125984},{"duration":0.1094889999999964,"midi":79,"time":131.167822,"velocity":0.31496062992125984},{"duration":0.1094889999999964,"midi":58,"time":131.167822,"velocity":0.31496062992125984},{"duration":0.1094889999999964,"midi":87,"time":131.167822,"velocity":0.31496062992125984},{"duration":0.1094889999999964,"midi":79,"time":131.3868,"velocity":0.31496062992125984},{"duration":0.1094889999999964,"midi":58,"time":131.3868,"velocity":0.31496062992125984},{"duration":0.1094889999999964,"midi":87,"time":131.3868,"velocity":0.31496062992125984},{"duration":0.1094889999999964,"midi":79,"time":131.496289,"velocity":0.31496062992125984},{"duration":0.1094889999999964,"midi":87,"time":131.496289,"velocity":0.31496062992125984},{"duration":0.1094889999999964,"midi":58,"time":131.496289,"velocity":0.31496062992125984},{"duration":0.1094889999999964,"midi":87,"time":131.71526699999998,"velocity":0.31496062992125984},{"duration":0.1094889999999964,"midi":79,"time":131.71526699999998,"velocity":0.31496062992125984},{"duration":0.1094889999999964,"midi":58,"time":131.71526699999998,"velocity":0.31496062992125984},{"duration":0.1094889999999964,"midi":87,"time":131.87950049999998,"velocity":0.31496062992125984},{"duration":0.1094889999999964,"midi":79,"time":131.87950049999998,"velocity":0.31496062992125984},{"duration":0.1094889999999964,"midi":58,"time":131.87950049999998,"velocity":0.31496062992125984},{"duration":0.1094889999999964,"midi":58,"time":132.043734,"velocity":0.31496062992125984},{"duration":0.1094889999999964,"midi":87,"time":132.043734,"velocity":0.31496062992125984},{"duration":0.1094889999999964,"midi":79,"time":132.043734,"velocity":0.31496062992125984},{"duration":0.1094889999999964,"midi":79,"time":132.262712,"velocity":0.31496062992125984},{"duration":0.1094889999999964,"midi":58,"time":132.262712,"velocity":0.31496062992125984},{"duration":0.1094889999999964,"midi":87,"time":132.262712,"velocity":0.31496062992125984},{"duration":0.1094889999999964,"midi":58,"time":132.372201,"velocity":0.31496062992125984},{"duration":0.1094889999999964,"midi":79,"time":132.372201,"velocity":0.31496062992125984},{"duration":0.1094889999999964,"midi":87,"time":132.372201,"velocity":0.31496062992125984},{"duration":0.1094889999999964,"midi":87,"time":132.59117899999998,"velocity":0.31496062992125984},{"duration":0.1094889999999964,"midi":79,"time":132.59117899999998,"velocity":0.31496062992125984},{"duration":0.1094889999999964,"midi":58,"time":132.59117899999998,"velocity":0.31496062992125984},{"duration":0.1094889999999964,"midi":58,"time":132.75541249999998,"velocity":0.31496062992125984},{"duration":0.1094889999999964,"midi":87,"time":132.75541249999998,"velocity":0.31496062992125984},{"duration":0.1094889999999964,"midi":79,"time":132.75541249999998,"velocity":0.31496062992125984},{"duration":0.1094889999999964,"midi":87,"time":132.919646,"velocity":0.31496062992125984},{"duration":0.1094889999999964,"midi":79,"time":132.919646,"velocity":0.31496062992125984},{"duration":0.1094889999999964,"midi":58,"time":132.919646,"velocity":0.31496062992125984},{"duration":0.1094889999999964,"midi":58,"time":133.138624,"velocity":0.31496062992125984},{"duration":0.1094889999999964,"midi":87,"time":133.138624,"velocity":0.31496062992125984},{"duration":0.1094889999999964,"midi":87,"time":133.248113,"velocity":0.31496062992125984},{"duration":0.1094889999999964,"midi":79,"time":133.248113,"velocity":0.31496062992125984},{"duration":0.1094889999999964,"midi":58,"time":133.248113,"velocity":0.31496062992125984},{"duration":0.1094889999999964,"midi":58,"time":133.46709099999998,"velocity":0.31496062992125984},{"duration":0.1094889999999964,"midi":79,"time":133.46709099999998,"velocity":0.31496062992125984},{"duration":0.1094889999999964,"midi":87,"time":133.46709099999998,"velocity":0.31496062992125984},{"duration":0.1094889999999964,"midi":58,"time":133.63132449999998,"velocity":0.31496062992125984},{"duration":0.1094889999999964,"midi":79,"time":133.63132449999998,"velocity":0.31496062992125984},{"duration":0.1094889999999964,"midi":87,"time":133.63132449999998,"velocity":0.31496062992125984},{"duration":0.1094889999999964,"midi":79,"time":133.795558,"velocity":0.31496062992125984},{"duration":0.1094889999999964,"midi":58,"time":133.795558,"velocity":0.31496062992125984},{"duration":0.1094889999999964,"midi":87,"time":133.795558,"velocity":0.31496062992125984},{"duration":0.1094889999999964,"midi":58,"time":134.014536,"velocity":0.31496062992125984},{"duration":0.1094889999999964,"midi":87,"time":134.014536,"velocity":0.31496062992125984},{"duration":0.1094889999999964,"midi":79,"time":134.014536,"velocity":0.31496062992125984},{"duration":0.1094889999999964,"midi":87,"time":134.124025,"velocity":0.31496062992125984},{"duration":0.1094889999999964,"midi":79,"time":134.124025,"velocity":0.31496062992125984},{"duration":0.1094889999999964,"midi":58,"time":134.124025,"velocity":0.31496062992125984},{"duration":0.1094889999999964,"midi":58,"time":134.34300299999998,"velocity":0.31496062992125984},{"duration":0.1094889999999964,"midi":79,"time":134.34300299999998,"velocity":0.31496062992125984},{"duration":0.1094889999999964,"midi":87,"time":134.34300299999998,"velocity":0.31496062992125984},{"duration":0.1094889999999964,"midi":87,"time":134.50723649999998,"velocity":0.31496062992125984},{"duration":0.1094889999999964,"midi":79,"time":134.50723649999998,"velocity":0.31496062992125984},{"duration":0.1094889999999964,"midi":58,"time":134.50723649999998,"velocity":0.31496062992125984},{"duration":0.1094889999999964,"midi":79,"time":134.67147,"velocity":0.31496062992125984},{"duration":0.1094889999999964,"midi":58,"time":134.67147,"velocity":0.31496062992125984},{"duration":0.1094889999999964,"midi":87,"time":134.67147,"velocity":0.31496062992125984},{"duration":0.1094889999999964,"midi":58,"time":134.890448,"velocity":0.31496062992125984},{"duration":0.1094889999999964,"midi":79,"time":134.890448,"velocity":0.31496062992125984},{"duration":0.1094889999999964,"midi":87,"time":134.890448,"velocity":0.31496062992125984},{"duration":0.1094889999999964,"midi":87,"time":134.999937,"velocity":0.31496062992125984},{"duration":0.1094889999999964,"midi":79,"time":134.999937,"velocity":0.31496062992125984},{"duration":0.1094889999999964,"midi":58,"time":134.999937,"velocity":0.31496062992125984},{"duration":0.1094889999999964,"midi":87,"time":135.21891499999998,"velocity":0.31496062992125984},{"duration":0.1094889999999964,"midi":79,"time":135.21891499999998,"velocity":0.31496062992125984},{"duration":0.1094889999999964,"midi":58,"time":135.21891499999998,"velocity":0.31496062992125984},{"duration":0.10948900000002482,"midi":58,"time":135.38314849999998,"velocity":0.31496062992125984},{"duration":0.10948900000002482,"midi":87,"time":135.38314849999998,"velocity":0.31496062992125984},{"duration":0.10948900000002482,"midi":79,"time":135.38314849999998,"velocity":0.31496062992125984},{"duration":0.1094889999999964,"midi":58,"time":135.547382,"velocity":0.31496062992125984},{"duration":0.1094889999999964,"midi":87,"time":135.547382,"velocity":0.31496062992125984},{"duration":0.1094889999999964,"midi":79,"time":135.547382,"velocity":0.31496062992125984},{"duration":0.1094889999999964,"midi":87,"time":135.76636,"velocity":0.31496062992125984},{"duration":0.1094889999999964,"midi":79,"time":135.76636,"velocity":0.31496062992125984},{"duration":0.1094889999999964,"midi":58,"time":135.76636,"velocity":0.31496062992125984},{"duration":0.1094889999999964,"midi":87,"time":135.875849,"velocity":0.31496062992125984},{"duration":0.1094889999999964,"midi":79,"time":135.875849,"velocity":0.31496062992125984},{"duration":0.1094889999999964,"midi":58,"time":135.875849,"velocity":0.31496062992125984},{"duration":0.1094889999999964,"midi":87,"time":136.09482699999998,"velocity":0.31496062992125984},{"duration":0.1094889999999964,"midi":79,"time":136.09482699999998,"velocity":0.31496062992125984},{"duration":0.1094889999999964,"midi":58,"time":136.09482699999998,"velocity":0.31496062992125984},{"duration":0.10948900000002482,"midi":58,"time":136.25906049999998,"velocity":0.31496062992125984},{"duration":0.10948900000002482,"midi":79,"time":136.25906049999998,"velocity":0.31496062992125984},{"duration":0.10948900000002482,"midi":87,"time":136.25906049999998,"velocity":0.31496062992125984},{"duration":0.1094889999999964,"midi":87,"time":136.423294,"velocity":0.31496062992125984},{"duration":0.1094889999999964,"midi":79,"time":136.423294,"velocity":0.31496062992125984},{"duration":0.1094889999999964,"midi":58,"time":136.423294,"velocity":0.31496062992125984},{"duration":0.1094889999999964,"midi":87,"time":136.642272,"velocity":0.31496062992125984},{"duration":0.1094889999999964,"midi":58,"time":136.642272,"velocity":0.31496062992125984},{"duration":0.1094889999999964,"midi":79,"time":136.642272,"velocity":0.31496062992125984},{"duration":0.1094889999999964,"midi":58,"time":136.751761,"velocity":0.31496062992125984},{"duration":0.1094889999999964,"midi":87,"time":136.751761,"velocity":0.31496062992125984},{"duration":0.1094889999999964,"midi":79,"time":136.751761,"velocity":0.31496062992125984},{"duration":0.1094889999999964,"midi":87,"time":136.97073899999998,"velocity":0.31496062992125984},{"duration":0.1094889999999964,"midi":79,"time":136.97073899999998,"velocity":0.31496062992125984},{"duration":0.1094889999999964,"midi":58,"time":136.97073899999998,"velocity":0.31496062992125984},{"duration":0.10948900000002482,"midi":79,"time":137.13497249999998,"velocity":0.31496062992125984},{"duration":0.10948900000002482,"midi":87,"time":137.13497249999998,"velocity":0.31496062992125984},{"duration":0.10948900000002482,"midi":58,"time":137.13497249999998,"velocity":0.31496062992125984},{"duration":0.1094889999999964,"midi":58,"time":137.299206,"velocity":0.31496062992125984},{"duration":0.1094889999999964,"midi":79,"time":137.299206,"velocity":0.31496062992125984},{"duration":0.1094889999999964,"midi":87,"time":137.299206,"velocity":0.31496062992125984},{"duration":0.1094889999999964,"midi":58,"time":137.518184,"velocity":0.31496062992125984},{"duration":0.1094889999999964,"midi":87,"time":137.518184,"velocity":0.31496062992125984},{"duration":0.1094889999999964,"midi":79,"time":137.518184,"velocity":0.31496062992125984},{"duration":0.1094889999999964,"midi":87,"time":137.627673,"velocity":0.31496062992125984},{"duration":0.1094889999999964,"midi":79,"time":137.627673,"velocity":0.31496062992125984},{"duration":0.1094889999999964,"midi":58,"time":137.627673,"velocity":0.31496062992125984},{"duration":0.1094889999999964,"midi":87,"time":137.84665099999998,"velocity":0.31496062992125984},{"duration":0.1094889999999964,"midi":79,"time":137.84665099999998,"velocity":0.31496062992125984},{"duration":0.1094889999999964,"midi":58,"time":137.84665099999998,"velocity":0.31496062992125984},{"duration":0.10948900000002482,"midi":58,"time":138.01088449999997,"velocity":0.31496062992125984},{"duration":0.10948900000002482,"midi":79,"time":138.01088449999997,"velocity":0.31496062992125984},{"duration":0.10948900000002482,"midi":87,"time":138.01088449999997,"velocity":0.31496062992125984},{"duration":0.1094889999999964,"midi":58,"time":138.175118,"velocity":0.31496062992125984},{"duration":0.1094889999999964,"midi":87,"time":138.175118,"velocity":0.31496062992125984},{"duration":0.1094889999999964,"midi":79,"time":138.175118,"velocity":0.31496062992125984},{"duration":0.1094889999999964,"midi":79,"time":138.394096,"velocity":0.31496062992125984},{"duration":0.1094889999999964,"midi":87,"time":138.394096,"velocity":0.31496062992125984},{"duration":0.1094889999999964,"midi":58,"time":138.394096,"velocity":0.31496062992125984},{"duration":0.1094889999999964,"midi":58,"time":138.503585,"velocity":0.31496062992125984},{"duration":0.1094889999999964,"midi":87,"time":138.503585,"velocity":0.31496062992125984},{"duration":0.1094889999999964,"midi":79,"time":138.503585,"velocity":0.31496062992125984},{"duration":0.1094889999999964,"midi":87,"time":138.61307399999998,"velocity":0.31496062992125984},{"duration":0.1094889999999964,"midi":79,"time":138.61307399999998,"velocity":0.31496062992125984},{"duration":0.1094889999999964,"midi":58,"time":138.61307399999998,"velocity":0.31496062992125984},{"duration":0.1094889999999964,"midi":58,"time":138.72256299999998,"velocity":0.31496062992125984},{"duration":0.1094889999999964,"midi":79,"time":138.72256299999998,"velocity":0.31496062992125984},{"duration":0.1094889999999964,"midi":87,"time":138.72256299999998,"velocity":0.31496062992125984},{"duration":0.1094889999999964,"midi":87,"time":138.83205199999998,"velocity":0.31496062992125984},{"duration":0.1094889999999964,"midi":79,"time":138.83205199999998,"velocity":0.31496062992125984},{"duration":0.1094889999999964,"midi":58,"time":138.83205199999998,"velocity":0.31496062992125984},{"duration":0.10948900000002482,"midi":87,"time":138.94154099999997,"velocity":0.31496062992125984},{"duration":0.10948900000002482,"midi":79,"time":138.94154099999997,"velocity":0.31496062992125984},{"duration":0.10948900000002482,"midi":58,"time":138.94154099999997,"velocity":0.31496062992125984},{"duration":0.1094889999999964,"midi":79,"time":139.05103,"velocity":0.31496062992125984},{"duration":0.1094889999999964,"midi":58,"time":139.05103,"velocity":0.31496062992125984},{"duration":0.1094889999999964,"midi":87,"time":139.05103,"velocity":0.31496062992125984},{"duration":0.1094889999999964,"midi":87,"time":139.160519,"velocity":0.31496062992125984},{"duration":0.1094889999999964,"midi":79,"time":139.160519,"velocity":0.31496062992125984},{"duration":0.1094889999999964,"midi":58,"time":139.160519,"velocity":0.31496062992125984},{"duration":0.1094889999999964,"midi":79,"time":139.270008,"velocity":0.31496062992125984},{"duration":0.1094889999999964,"midi":87,"time":139.270008,"velocity":0.31496062992125984},{"duration":0.1094889999999964,"midi":58,"time":139.270008,"velocity":0.31496062992125984},{"duration":0.1094889999999964,"midi":87,"time":139.379497,"velocity":0.31496062992125984},{"duration":0.1094889999999964,"midi":58,"time":139.379497,"velocity":0.31496062992125984},{"duration":0.1094889999999964,"midi":79,"time":139.379497,"velocity":0.31496062992125984},{"duration":0.1094889999999964,"midi":79,"time":139.48898599999998,"velocity":0.31496062992125984},{"duration":0.1094889999999964,"midi":58,"time":139.48898599999998,"velocity":0.31496062992125984},{"duration":0.1094889999999964,"midi":87,"time":139.48898599999998,"velocity":0.31496062992125984},{"duration":0.1094889999999964,"midi":58,"time":139.59847499999998,"velocity":0.31496062992125984},{"duration":0.1094889999999964,"midi":79,"time":139.59847499999998,"velocity":0.31496062992125984},{"duration":0.1094889999999964,"midi":87,"time":139.59847499999998,"velocity":0.31496062992125984},{"duration":0.1094889999999964,"midi":87,"time":139.70796399999998,"velocity":0.31496062992125984},{"duration":0.1094889999999964,"midi":79,"time":139.70796399999998,"velocity":0.31496062992125984},{"duration":0.1094889999999964,"midi":58,"time":139.70796399999998,"velocity":0.31496062992125984},{"duration":0.10948900000002482,"midi":58,"time":139.81745299999997,"velocity":0.31496062992125984},{"duration":0.10948900000002482,"midi":87,"time":139.81745299999997,"velocity":0.31496062992125984},{"duration":0.10948900000002482,"midi":79,"time":139.81745299999997,"velocity":0.31496062992125984},{"duration":0.1094889999999964,"midi":58,"time":139.926942,"velocity":0.31496062992125984},{"duration":0.1094889999999964,"midi":87,"time":139.926942,"velocity":0.31496062992125984},{"duration":0.1094889999999964,"midi":79,"time":139.926942,"velocity":0.31496062992125984},{"duration":0.1094889999999964,"midi":58,"time":140.036431,"velocity":0.31496062992125984},{"duration":0.1094889999999964,"midi":87,"time":140.036431,"velocity":0.31496062992125984},{"duration":0.1094889999999964,"midi":79,"time":140.036431,"velocity":0.31496062992125984},{"duration":0.1094889999999964,"midi":58,"time":140.14592,"velocity":0.31496062992125984},{"duration":0.1094889999999964,"midi":79,"time":140.14592,"velocity":0.31496062992125984},{"duration":0.1094889999999964,"midi":87,"time":140.14592,"velocity":0.31496062992125984},{"duration":0.1094889999999964,"midi":79,"time":140.255409,"velocity":0.31496062992125984},{"duration":0.1094889999999964,"midi":87,"time":140.255409,"velocity":0.31496062992125984},{"duration":0.1094889999999964,"midi":58,"time":140.255409,"velocity":0.31496062992125984},{"duration":0.1094889999999964,"midi":87,"time":140.36489799999998,"velocity":0.31496062992125984},{"duration":0.1094889999999964,"midi":79,"time":140.36489799999998,"velocity":0.31496062992125984},{"duration":0.1094889999999964,"midi":58,"time":140.36489799999998,"velocity":0.31496062992125984},{"duration":0.1094889999999964,"midi":58,"time":140.47438699999998,"velocity":0.31496062992125984},{"duration":0.1094889999999964,"midi":79,"time":140.47438699999998,"velocity":0.31496062992125984},{"duration":0.1094889999999964,"midi":87,"time":140.47438699999998,"velocity":0.31496062992125984},{"duration":0.10948900000002482,"midi":79,"time":140.58387599999998,"velocity":0.31496062992125984},{"duration":0.10948900000002482,"midi":87,"time":140.58387599999998,"velocity":0.31496062992125984},{"duration":0.10948900000002482,"midi":58,"time":140.58387599999998,"velocity":0.31496062992125984},{"duration":0.1094889999999964,"midi":58,"time":140.693365,"velocity":0.31496062992125984},{"duration":0.1094889999999964,"midi":79,"time":140.693365,"velocity":0.31496062992125984},{"duration":0.1094889999999964,"midi":87,"time":140.693365,"velocity":0.31496062992125984},{"duration":0.1094889999999964,"midi":87,"time":140.802854,"velocity":0.31496062992125984},{"duration":0.1094889999999964,"midi":58,"time":140.802854,"velocity":0.31496062992125984},{"duration":0.1094889999999964,"midi":79,"time":140.802854,"velocity":0.31496062992125984},{"duration":0.1094889999999964,"midi":58,"time":140.912343,"velocity":0.31496062992125984},{"duration":0.1094889999999964,"midi":87,"time":140.912343,"velocity":0.31496062992125984},{"duration":0.1094889999999964,"midi":79,"time":140.912343,"velocity":0.31496062992125984},{"duration":0.1094889999999964,"midi":87,"time":141.021832,"velocity":0.31496062992125984},{"duration":0.1094889999999964,"midi":58,"time":141.021832,"velocity":0.31496062992125984},{"duration":0.1094889999999964,"midi":79,"time":141.021832,"velocity":0.31496062992125984},{"duration":0.1094889999999964,"midi":87,"time":141.13132099999999,"velocity":0.31496062992125984},{"duration":0.1094889999999964,"midi":79,"time":141.13132099999999,"velocity":0.31496062992125984},{"duration":0.1094889999999964,"midi":58,"time":141.13132099999999,"velocity":0.31496062992125984},{"duration":0.1094889999999964,"midi":87,"time":141.24080999999998,"velocity":0.31496062992125984},{"duration":0.1094889999999964,"midi":79,"time":141.24080999999998,"velocity":0.31496062992125984},{"duration":0.1094889999999964,"midi":58,"time":141.24080999999998,"velocity":0.31496062992125984},{"duration":0.1094889999999964,"midi":79,"time":141.35029899999998,"velocity":0.31496062992125984},{"duration":0.1094889999999964,"midi":58,"time":141.35029899999998,"velocity":0.31496062992125984},{"duration":0.1094889999999964,"midi":87,"time":141.35029899999998,"velocity":0.31496062992125984},{"duration":0.10948900000002482,"midi":58,"time":141.45978799999997,"velocity":0.31496062992125984},{"duration":0.10948900000002482,"midi":79,"time":141.45978799999997,"velocity":0.31496062992125984},{"duration":0.10948900000002482,"midi":87,"time":141.45978799999997,"velocity":0.31496062992125984},{"duration":0.1094889999999964,"midi":79,"time":141.569277,"velocity":0.31496062992125984},{"duration":0.1094889999999964,"midi":87,"time":141.569277,"velocity":0.31496062992125984},{"duration":0.1094889999999964,"midi":58,"time":141.569277,"velocity":0.31496062992125984},{"duration":0.1094889999999964,"midi":58,"time":141.678766,"velocity":0.31496062992125984},{"duration":0.1094889999999964,"midi":87,"time":141.678766,"velocity":0.31496062992125984},{"duration":0.1094889999999964,"midi":79,"time":141.678766,"velocity":0.31496062992125984},{"duration":0.1094889999999964,"midi":87,"time":141.788255,"velocity":0.31496062992125984},{"duration":0.1094889999999964,"midi":79,"time":141.788255,"velocity":0.31496062992125984},{"duration":0.1094889999999964,"midi":58,"time":141.788255,"velocity":0.31496062992125984},{"duration":0.1094889999999964,"midi":87,"time":141.897744,"velocity":0.31496062992125984},{"duration":0.1094889999999964,"midi":79,"time":141.897744,"velocity":0.31496062992125984},{"duration":0.1094889999999964,"midi":58,"time":141.897744,"velocity":0.31496062992125984},{"duration":0.1094889999999964,"midi":79,"time":142.00723299999999,"velocity":0.31496062992125984},{"duration":0.1094889999999964,"midi":58,"time":142.00723299999999,"velocity":0.31496062992125984},{"duration":0.1094889999999964,"midi":87,"time":142.00723299999999,"velocity":0.31496062992125984},{"duration":0.1094889999999964,"midi":58,"time":142.11672199999998,"velocity":0.31496062992125984},{"duration":0.1094889999999964,"midi":79,"time":142.11672199999998,"velocity":0.31496062992125984},{"duration":0.1094889999999964,"midi":87,"time":142.11672199999998,"velocity":0.31496062992125984},{"duration":0.1094889999999964,"midi":79,"time":142.22621099999998,"velocity":0.31496062992125984},{"duration":0.1094889999999964,"midi":58,"time":142.22621099999998,"velocity":0.31496062992125984},{"duration":0.1094889999999964,"midi":87,"time":142.22621099999998,"velocity":0.31496062992125984},{"duration":0.10948900000002482,"midi":58,"time":142.33569999999997,"velocity":0.31496062992125984},{"duration":0.10948900000002482,"midi":79,"time":142.33569999999997,"velocity":0.31496062992125984},{"duration":0.10948900000002482,"midi":87,"time":142.33569999999997,"velocity":0.31496062992125984},{"duration":0.1094889999999964,"midi":79,"time":142.445189,"velocity":0.31496062992125984},{"duration":0.1094889999999964,"midi":87,"time":142.445189,"velocity":0.31496062992125984},{"duration":0.1094889999999964,"midi":58,"time":142.445189,"velocity":0.31496062992125984},{"duration":0.1094889999999964,"midi":58,"time":142.554678,"velocity":0.31496062992125984},{"duration":0.1094889999999964,"midi":79,"time":142.554678,"velocity":0.31496062992125984},{"duration":0.1094889999999964,"midi":87,"time":142.554678,"velocity":0.31496062992125984},{"duration":0.1094889999999964,"midi":87,"time":142.664167,"velocity":0.31496062992125984},{"duration":0.1094889999999964,"midi":58,"time":142.664167,"velocity":0.31496062992125984},{"duration":0.1094889999999964,"midi":79,"time":142.664167,"velocity":0.31496062992125984},{"duration":0.1094889999999964,"midi":58,"time":142.773656,"velocity":0.31496062992125984},{"duration":0.1094889999999964,"midi":87,"time":142.773656,"velocity":0.31496062992125984},{"duration":0.1094889999999964,"midi":79,"time":142.773656,"velocity":0.31496062992125984},{"duration":0.1094889999999964,"midi":87,"time":142.88314499999998,"velocity":0.31496062992125984},{"duration":0.1094889999999964,"midi":79,"time":142.88314499999998,"velocity":0.31496062992125984},{"duration":0.1094889999999964,"midi":58,"time":142.88314499999998,"velocity":0.31496062992125984},{"duration":0.1094889999999964,"midi":79,"time":142.99263399999998,"velocity":0.31496062992125984},{"duration":0.1094889999999964,"midi":58,"time":142.99263399999998,"velocity":0.31496062992125984},{"duration":0.1094889999999964,"midi":87,"time":142.99263399999998,"velocity":0.31496062992125984},{"duration":0.1094889999999964,"midi":87,"time":143.10212299999998,"velocity":0.31496062992125984},{"duration":0.1094889999999964,"midi":58,"time":143.10212299999998,"velocity":0.31496062992125984},{"duration":0.1094889999999964,"midi":79,"time":143.10212299999998,"velocity":0.31496062992125984},{"duration":0.10948900000002482,"midi":58,"time":143.21161199999997,"velocity":0.31496062992125984},{"duration":0.10948900000002482,"midi":79,"time":143.21161199999997,"velocity":0.31496062992125984},{"duration":0.10948900000002482,"midi":87,"time":143.21161199999997,"velocity":0.31496062992125984},{"duration":0.1094889999999964,"midi":79,"time":143.321101,"velocity":0.31496062992125984},{"duration":0.1094889999999964,"midi":58,"time":143.321101,"velocity":0.31496062992125984},{"duration":0.1094889999999964,"midi":87,"time":143.321101,"velocity":0.31496062992125984},{"duration":0.1094889999999964,"midi":58,"time":143.43059,"velocity":0.31496062992125984},{"duration":0.1094889999999964,"midi":87,"time":143.43059,"velocity":0.31496062992125984},{"duration":0.1094889999999964,"midi":79,"time":143.43059,"velocity":0.31496062992125984},{"duration":0.1094889999999964,"midi":87,"time":143.540079,"velocity":0.31496062992125984},{"duration":0.1094889999999964,"midi":79,"time":143.540079,"velocity":0.31496062992125984},{"duration":0.1094889999999964,"midi":58,"time":143.540079,"velocity":0.31496062992125984},{"duration":0.1094889999999964,"midi":87,"time":143.649568,"velocity":0.31496062992125984},{"duration":0.1094889999999964,"midi":79,"time":143.649568,"velocity":0.31496062992125984},{"duration":0.1094889999999964,"midi":58,"time":143.649568,"velocity":0.31496062992125984},{"duration":0.1094889999999964,"midi":58,"time":143.75905699999998,"velocity":0.31496062992125984},{"duration":0.1094889999999964,"midi":87,"time":143.75905699999998,"velocity":0.31496062992125984},{"duration":0.1094889999999964,"midi":79,"time":143.75905699999998,"velocity":0.31496062992125984},{"duration":0.1094889999999964,"midi":79,"time":143.86854599999998,"velocity":0.31496062992125984},{"duration":0.1094889999999964,"midi":58,"time":143.86854599999998,"velocity":0.31496062992125984},{"duration":0.1094889999999964,"midi":87,"time":143.86854599999998,"velocity":0.31496062992125984},{"duration":0.1094889999999964,"midi":79,"time":143.97803499999998,"velocity":0.31496062992125984},{"duration":0.1094889999999964,"midi":87,"time":143.97803499999998,"velocity":0.31496062992125984},{"duration":0.1094889999999964,"midi":58,"time":143.97803499999998,"velocity":0.31496062992125984},{"duration":0.10948900000002482,"midi":87,"time":144.08752399999997,"velocity":0.31496062992125984},{"duration":0.10948900000002482,"midi":79,"time":144.08752399999997,"velocity":0.31496062992125984},{"duration":0.10948900000002482,"midi":58,"time":144.08752399999997,"velocity":0.31496062992125984},{"duration":0.1094889999999964,"midi":58,"time":144.197013,"velocity":0.31496062992125984},{"duration":0.1094889999999964,"midi":87,"time":144.197013,"velocity":0.31496062992125984},{"duration":0.1094889999999964,"midi":79,"time":144.197013,"velocity":0.31496062992125984},{"duration":0.1094889999999964,"midi":87,"time":144.306502,"velocity":0.31496062992125984},{"duration":0.1094889999999964,"midi":79,"time":144.306502,"velocity":0.31496062992125984},{"duration":0.1094889999999964,"midi":58,"time":144.306502,"velocity":0.31496062992125984},{"duration":0.1094889999999964,"midi":87,"time":144.415991,"velocity":0.31496062992125984},{"duration":0.1094889999999964,"midi":79,"time":144.415991,"velocity":0.31496062992125984},{"duration":0.1094889999999964,"midi":58,"time":144.415991,"velocity":0.31496062992125984},{"duration":0.1094889999999964,"midi":87,"time":144.52548,"velocity":0.31496062992125984},{"duration":0.1094889999999964,"midi":58,"time":144.52548,"velocity":0.31496062992125984},{"duration":0.1094889999999964,"midi":79,"time":144.52548,"velocity":0.31496062992125984},{"duration":0.1094889999999964,"midi":79,"time":144.63496899999998,"velocity":0.31496062992125984},{"duration":0.1094889999999964,"midi":58,"time":144.63496899999998,"velocity":0.31496062992125984},{"duration":0.1094889999999964,"midi":87,"time":144.63496899999998,"velocity":0.31496062992125984},{"duration":0.1094889999999964,"midi":87,"time":144.74445799999998,"velocity":0.31496062992125984},{"duration":0.1094889999999964,"midi":79,"time":144.74445799999998,"velocity":0.31496062992125984},{"duration":0.1094889999999964,"midi":58,"time":144.74445799999998,"velocity":0.31496062992125984},{"duration":0.1094889999999964,"midi":79,"time":144.85394699999998,"velocity":0.31496062992125984},{"duration":0.1094889999999964,"midi":58,"time":144.85394699999998,"velocity":0.31496062992125984},{"duration":0.1094889999999964,"midi":87,"time":144.85394699999998,"velocity":0.31496062992125984},{"duration":0.10948900000002482,"midi":79,"time":144.96343599999997,"velocity":0.31496062992125984},{"duration":0.10948900000002482,"midi":87,"time":144.96343599999997,"velocity":0.31496062992125984},{"duration":0.10948900000002482,"midi":58,"time":144.96343599999997,"velocity":0.31496062992125984},{"duration":0.1094889999999964,"midi":87,"time":145.072925,"velocity":0.31496062992125984},{"duration":0.1094889999999964,"midi":79,"time":145.072925,"velocity":0.31496062992125984},{"duration":0.1094889999999964,"midi":58,"time":145.072925,"velocity":0.31496062992125984},{"duration":0.1094889999999964,"midi":87,"time":145.182414,"velocity":0.31496062992125984},{"duration":0.1094889999999964,"midi":79,"time":145.182414,"velocity":0.31496062992125984},{"duration":0.1094889999999964,"midi":58,"time":145.182414,"velocity":0.31496062992125984},{"duration":0.1094889999999964,"midi":58,"time":145.291903,"velocity":0.31496062992125984},{"duration":0.1094889999999964,"midi":79,"time":145.291903,"velocity":0.31496062992125984},{"duration":0.1094889999999964,"midi":87,"time":145.291903,"velocity":0.31496062992125984},{"duration":0.1094889999999964,"midi":79,"time":145.401392,"velocity":0.31496062992125984},{"duration":0.1094889999999964,"midi":58,"time":145.401392,"velocity":0.31496062992125984},{"duration":0.1094889999999964,"midi":87,"time":145.401392,"velocity":0.31496062992125984},{"duration":0.1094889999999964,"midi":58,"time":145.51088099999998,"velocity":0.31496062992125984},{"duration":0.1094889999999964,"midi":87,"time":145.51088099999998,"velocity":0.31496062992125984},{"duration":0.1094889999999964,"midi":79,"time":145.51088099999998,"velocity":0.31496062992125984},{"duration":0.1094889999999964,"midi":58,"time":145.62036999999998,"velocity":0.31496062992125984},{"duration":0.1094889999999964,"midi":79,"time":145.62036999999998,"velocity":0.31496062992125984},{"duration":0.1094889999999964,"midi":87,"time":145.62036999999998,"velocity":0.31496062992125984},{"duration":0.1094889999999964,"midi":87,"time":145.72985899999998,"velocity":0.31496062992125984},{"duration":0.1094889999999964,"midi":79,"time":145.72985899999998,"velocity":0.31496062992125984},{"duration":0.1094889999999964,"midi":58,"time":145.72985899999998,"velocity":0.31496062992125984},{"duration":0.10948900000002482,"midi":79,"time":145.83934799999997,"velocity":0.31496062992125984},{"duration":0.10948900000002482,"midi":58,"time":145.83934799999997,"velocity":0.31496062992125984},{"duration":0.10948900000002482,"midi":87,"time":145.83934799999997,"velocity":0.31496062992125984},{"duration":0.1094889999999964,"midi":87,"time":145.948837,"velocity":0.31496062992125984},{"duration":0.1094889999999964,"midi":79,"time":145.948837,"velocity":0.31496062992125984},{"duration":0.1094889999999964,"midi":58,"time":145.948837,"velocity":0.31496062992125984},{"duration":0.1094889999999964,"midi":87,"time":146.058326,"velocity":0.31496062992125984},{"duration":0.1094889999999964,"midi":79,"time":146.058326,"velocity":0.31496062992125984},{"duration":0.1094889999999964,"midi":58,"time":146.058326,"velocity":0.31496062992125984},{"duration":0.1094889999999964,"midi":79,"time":146.167815,"velocity":0.31496062992125984},{"duration":0.1094889999999964,"midi":87,"time":146.167815,"velocity":0.31496062992125984},{"duration":0.1094889999999964,"midi":58,"time":146.167815,"velocity":0.31496062992125984},{"duration":0.1094889999999964,"midi":87,"time":146.277304,"velocity":0.31496062992125984},{"duration":0.1094889999999964,"midi":79,"time":146.277304,"velocity":0.31496062992125984},{"duration":0.1094889999999964,"midi":58,"time":146.277304,"velocity":0.31496062992125984},{"duration":0.1094889999999964,"midi":87,"time":146.38679299999998,"velocity":0.31496062992125984},{"duration":0.1094889999999964,"midi":79,"time":146.38679299999998,"velocity":0.31496062992125984},{"duration":0.1094889999999964,"midi":58,"time":146.38679299999998,"velocity":0.31496062992125984},{"duration":0.1094889999999964,"midi":58,"time":146.49628199999998,"velocity":0.31496062992125984},{"duration":0.1094889999999964,"midi":79,"time":146.49628199999998,"velocity":0.31496062992125984},{"duration":0.1094889999999964,"midi":87,"time":146.49628199999998,"velocity":0.31496062992125984},{"duration":0.1094889999999964,"midi":79,"time":146.60577099999998,"velocity":0.31496062992125984},{"duration":0.1094889999999964,"midi":58,"time":146.60577099999998,"velocity":0.31496062992125984},{"duration":0.1094889999999964,"midi":87,"time":146.60577099999998,"velocity":0.31496062992125984},{"duration":0.10948900000002482,"midi":79,"time":146.71525999999997,"velocity":0.31496062992125984},{"duration":0.10948900000002482,"midi":87,"time":146.71525999999997,"velocity":0.31496062992125984},{"duration":0.10948900000002482,"midi":58,"time":146.71525999999997,"velocity":0.31496062992125984},{"duration":0.1094889999999964,"midi":87,"time":146.824749,"velocity":0.31496062992125984},{"duration":0.1094889999999964,"midi":79,"time":146.824749,"velocity":0.31496062992125984},{"duration":0.1094889999999964,"midi":58,"time":146.824749,"velocity":0.31496062992125984},{"duration":0.1094889999999964,"midi":87,"time":146.934238,"velocity":0.31496062992125984},{"duration":0.1094889999999964,"midi":79,"time":146.934238,"velocity":0.31496062992125984},{"duration":0.1094889999999964,"midi":58,"time":146.934238,"velocity":0.31496062992125984},{"duration":0.1094889999999964,"midi":58,"time":147.043727,"velocity":0.31496062992125984},{"duration":0.1094889999999964,"midi":87,"time":147.043727,"velocity":0.31496062992125984},{"duration":0.1094889999999964,"midi":79,"time":147.043727,"velocity":0.31496062992125984},{"duration":0.1094889999999964,"midi":79,"time":147.153216,"velocity":0.31496062992125984},{"duration":0.1094889999999964,"midi":58,"time":147.153216,"velocity":0.31496062992125984},{"duration":0.1094889999999964,"midi":87,"time":147.153216,"velocity":0.31496062992125984},{"duration":0.1094889999999964,"midi":87,"time":147.26270499999998,"velocity":0.31496062992125984},{"duration":0.1094889999999964,"midi":58,"time":147.26270499999998,"velocity":0.31496062992125984},{"duration":0.1094889999999964,"midi":79,"time":147.26270499999998,"velocity":0.31496062992125984},{"duration":0.1094889999999964,"midi":79,"time":147.37219399999998,"velocity":0.31496062992125984},{"duration":0.1094889999999964,"midi":58,"time":147.37219399999998,"velocity":0.31496062992125984},{"duration":0.1094889999999964,"midi":87,"time":147.37219399999998,"velocity":0.31496062992125984},{"duration":0.1094889999999964,"midi":58,"time":147.48168299999998,"velocity":0.31496062992125984},{"duration":0.1094889999999964,"midi":79,"time":147.48168299999998,"velocity":0.31496062992125984},{"duration":0.1094889999999964,"midi":87,"time":147.48168299999998,"velocity":0.31496062992125984},{"duration":0.10948900000002482,"midi":87,"time":147.59117199999997,"velocity":0.31496062992125984},{"duration":0.10948900000002482,"midi":79,"time":147.59117199999997,"velocity":0.31496062992125984},{"duration":0.10948900000002482,"midi":58,"time":147.59117199999997,"velocity":0.31496062992125984},{"duration":0.1094889999999964,"midi":87,"time":147.700661,"velocity":0.31496062992125984},{"duration":0.1094889999999964,"midi":79,"time":147.700661,"velocity":0.31496062992125984},{"duration":0.1094889999999964,"midi":58,"time":147.700661,"velocity":0.31496062992125984},{"duration":0.1094889999999964,"midi":79,"time":147.81015,"velocity":0.31496062992125984},{"duration":0.1094889999999964,"midi":58,"time":147.81015,"velocity":0.31496062992125984},{"duration":0.1094889999999964,"midi":87,"time":147.81015,"velocity":0.31496062992125984},{"duration":0.1094889999999964,"midi":87,"time":147.919639,"velocity":0.31496062992125984},{"duration":0.1094889999999964,"midi":79,"time":147.919639,"velocity":0.31496062992125984},{"duration":0.1094889999999964,"midi":58,"time":147.919639,"velocity":0.31496062992125984},{"duration":0.1094889999999964,"midi":87,"time":148.029128,"velocity":0.31496062992125984},{"duration":0.1094889999999964,"midi":58,"time":148.029128,"velocity":0.31496062992125984},{"duration":0.1094889999999964,"midi":79,"time":148.029128,"velocity":0.31496062992125984},{"duration":0.1094889999999964,"midi":58,"time":148.13861699999998,"velocity":0.31496062992125984},{"duration":0.1094889999999964,"midi":87,"time":148.13861699999998,"velocity":0.31496062992125984},{"duration":0.1094889999999964,"midi":79,"time":148.13861699999998,"velocity":0.31496062992125984},{"duration":0.1094889999999964,"midi":87,"time":148.24810599999998,"velocity":0.31496062992125984},{"duration":0.1094889999999964,"midi":79,"time":148.24810599999998,"velocity":0.31496062992125984},{"duration":0.1094889999999964,"midi":58,"time":148.24810599999998,"velocity":0.31496062992125984},{"duration":0.1094889999999964,"midi":58,"time":148.35759499999998,"velocity":0.31496062992125984},{"duration":0.1094889999999964,"midi":79,"time":148.35759499999998,"velocity":0.31496062992125984},{"duration":0.1094889999999964,"midi":87,"time":148.35759499999998,"velocity":0.31496062992125984},{"duration":0.10948900000002482,"midi":58,"time":148.46708399999997,"velocity":0.31496062992125984},{"duration":0.10948900000002482,"midi":79,"time":148.46708399999997,"velocity":0.31496062992125984},{"duration":0.10948900000002482,"midi":87,"time":148.46708399999997,"velocity":0.31496062992125984},{"duration":0.1094889999999964,"midi":58,"time":148.576573,"velocity":0.31496062992125984},{"duration":0.1094889999999964,"midi":87,"time":148.576573,"velocity":0.31496062992125984},{"duration":0.1094889999999964,"midi":79,"time":148.576573,"velocity":0.31496062992125984},{"duration":0.1094889999999964,"midi":79,"time":148.686062,"velocity":0.31496062992125984},{"duration":0.1094889999999964,"midi":87,"time":148.686062,"velocity":0.31496062992125984},{"duration":0.1094889999999964,"midi":58,"time":148.686062,"velocity":0.31496062992125984},{"duration":0.1094889999999964,"midi":87,"time":148.795551,"velocity":0.31496062992125984},{"duration":0.1094889999999964,"midi":79,"time":148.795551,"velocity":0.31496062992125984},{"duration":0.1094889999999964,"midi":58,"time":148.795551,"velocity":0.31496062992125984},{"duration":0.1094889999999964,"midi":87,"time":148.90503999999999,"velocity":0.31496062992125984},{"duration":0.1094889999999964,"midi":79,"time":148.90503999999999,"velocity":0.31496062992125984},{"duration":0.1094889999999964,"midi":58,"time":148.90503999999999,"velocity":0.31496062992125984},{"duration":0.1094889999999964,"midi":79,"time":149.01452899999998,"velocity":0.31496062992125984},{"duration":0.1094889999999964,"midi":87,"time":149.01452899999998,"velocity":0.31496062992125984},{"duration":0.1094889999999964,"midi":58,"time":149.01452899999998,"velocity":0.31496062992125984},{"duration":0.1094889999999964,"midi":87,"time":149.12401799999998,"velocity":0.31496062992125984},{"duration":0.1094889999999964,"midi":79,"time":149.12401799999998,"velocity":0.31496062992125984},{"duration":0.1094889999999964,"midi":58,"time":149.12401799999998,"velocity":0.31496062992125984},{"duration":0.1094889999999964,"midi":58,"time":149.23350699999997,"velocity":0.31496062992125984},{"duration":0.1094889999999964,"midi":87,"time":149.23350699999997,"velocity":0.31496062992125984},{"duration":0.1094889999999964,"midi":79,"time":149.23350699999997,"velocity":0.31496062992125984},{"duration":0.10948900000002482,"midi":79,"time":149.34299599999997,"velocity":0.31496062992125984},{"duration":0.10948900000002482,"midi":58,"time":149.34299599999997,"velocity":0.31496062992125984},{"duration":0.10948900000002482,"midi":87,"time":149.34299599999997,"velocity":0.31496062992125984},{"duration":0.1094889999999964,"midi":87,"time":149.452485,"velocity":0.31496062992125984},{"duration":0.1094889999999964,"midi":79,"time":149.452485,"velocity":0.31496062992125984},{"duration":0.1094889999999964,"midi":58,"time":149.452485,"velocity":0.31496062992125984},{"duration":0.1094889999999964,"midi":79,"time":149.561974,"velocity":0.31496062992125984},{"duration":0.1094889999999964,"midi":87,"time":149.561974,"velocity":0.31496062992125984},{"duration":0.1094889999999964,"midi":58,"time":149.561974,"velocity":0.31496062992125984},{"duration":0.1094889999999964,"midi":87,"time":149.671463,"velocity":0.31496062992125984},{"duration":0.1094889999999964,"midi":79,"time":149.671463,"velocity":0.31496062992125984},{"duration":0.1094889999999964,"midi":58,"time":149.671463,"velocity":0.31496062992125984},{"duration":0.1094889999999964,"midi":79,"time":149.78095199999998,"velocity":0.31496062992125984},{"duration":0.1094889999999964,"midi":58,"time":149.78095199999998,"velocity":0.31496062992125984},{"duration":0.1094889999999964,"midi":87,"time":149.78095199999998,"velocity":0.31496062992125984},{"duration":0.1094889999999964,"midi":87,"time":149.89044099999998,"velocity":0.31496062992125984},{"duration":0.1094889999999964,"midi":79,"time":149.89044099999998,"velocity":0.31496062992125984},{"duration":0.1094889999999964,"midi":58,"time":149.89044099999998,"velocity":0.31496062992125984},{"duration":0.1094889999999964,"midi":87,"time":149.99992999999998,"velocity":0.31496062992125984},{"duration":0.1094889999999964,"midi":79,"time":149.99992999999998,"velocity":0.31496062992125984},{"duration":0.1094889999999964,"midi":58,"time":149.99992999999998,"velocity":0.31496062992125984},{"duration":0.10948900000002482,"midi":79,"time":150.10941899999997,"velocity":0.31496062992125984},{"duration":0.10948900000002482,"midi":87,"time":150.10941899999997,"velocity":0.31496062992125984},{"duration":0.10948900000002482,"midi":58,"time":150.10941899999997,"velocity":0.31496062992125984},{"duration":0.1094889999999964,"midi":87,"time":150.218908,"velocity":0.31496062992125984},{"duration":0.1094889999999964,"midi":79,"time":150.218908,"velocity":0.31496062992125984},{"duration":0.1094889999999964,"midi":58,"time":150.218908,"velocity":0.31496062992125984},{"duration":0.1094889999999964,"midi":87,"time":150.328397,"velocity":0.31496062992125984},{"duration":0.1094889999999964,"midi":79,"time":150.328397,"velocity":0.31496062992125984},{"duration":0.1094889999999964,"midi":58,"time":150.328397,"velocity":0.31496062992125984},{"duration":0.1094889999999964,"midi":79,"time":150.437886,"velocity":0.31496062992125984},{"duration":0.1094889999999964,"midi":58,"time":150.437886,"velocity":0.31496062992125984},{"duration":0.1094889999999964,"midi":87,"time":150.437886,"velocity":0.31496062992125984},{"duration":0.1094889999999964,"midi":87,"time":150.547375,"velocity":0.31496062992125984},{"duration":0.1094889999999964,"midi":79,"time":150.547375,"velocity":0.31496062992125984},{"duration":0.1094889999999964,"midi":58,"time":150.547375,"velocity":0.31496062992125984},{"duration":0.1094889999999964,"midi":79,"time":150.65686399999998,"velocity":0.31496062992125984},{"duration":0.1094889999999964,"midi":87,"time":150.65686399999998,"velocity":0.31496062992125984},{"duration":0.1094889999999964,"midi":58,"time":150.65686399999998,"velocity":0.31496062992125984},{"duration":0.1094889999999964,"midi":79,"time":150.76635299999998,"velocity":0.31496062992125984},{"duration":0.1094889999999964,"midi":87,"time":150.76635299999998,"velocity":0.31496062992125984},{"duration":0.1094889999999964,"midi":58,"time":150.76635299999998,"velocity":0.31496062992125984},{"duration":0.1094889999999964,"midi":79,"time":150.87584199999998,"velocity":0.31496062992125984},{"duration":0.1094889999999964,"midi":58,"time":150.87584199999998,"velocity":0.31496062992125984},{"duration":0.1094889999999964,"midi":87,"time":150.87584199999998,"velocity":0.31496062992125984},{"duration":0.10948900000002482,"midi":87,"time":150.98533099999997,"velocity":0.31496062992125984},{"duration":0.10948900000002482,"midi":79,"time":150.98533099999997,"velocity":0.31496062992125984},{"duration":0.10948900000002482,"midi":58,"time":150.98533099999997,"velocity":0.31496062992125984},{"duration":0.1094889999999964,"midi":87,"time":151.09482,"velocity":0.31496062992125984},{"duration":0.1094889999999964,"midi":79,"time":151.09482,"velocity":0.31496062992125984},{"duration":0.1094889999999964,"midi":58,"time":151.09482,"velocity":0.31496062992125984},{"duration":0.1094889999999964,"midi":79,"time":151.204309,"velocity":0.31496062992125984},{"duration":0.1094889999999964,"midi":87,"time":151.204309,"velocity":0.31496062992125984},{"duration":0.1094889999999964,"midi":58,"time":151.204309,"velocity":0.31496062992125984},{"duration":0.1094889999999964,"midi":79,"time":151.313798,"velocity":0.31496062992125984},{"duration":0.1094889999999964,"midi":58,"time":151.313798,"velocity":0.31496062992125984},{"duration":0.1094889999999964,"midi":87,"time":151.313798,"velocity":0.31496062992125984},{"duration":0.1094889999999964,"midi":58,"time":151.423287,"velocity":0.31496062992125984},{"duration":0.1094889999999964,"midi":87,"time":151.423287,"velocity":0.31496062992125984},{"duration":0.1094889999999964,"midi":79,"time":151.423287,"velocity":0.31496062992125984},{"duration":0.1094889999999964,"midi":58,"time":151.53277599999998,"velocity":0.31496062992125984},{"duration":0.1094889999999964,"midi":79,"time":151.53277599999998,"velocity":0.31496062992125984},{"duration":0.1094889999999964,"midi":87,"time":151.53277599999998,"velocity":0.31496062992125984},{"duration":0.1094889999999964,"midi":79,"time":151.64226499999998,"velocity":0.31496062992125984},{"duration":0.1094889999999964,"midi":87,"time":151.64226499999998,"velocity":0.31496062992125984},{"duration":0.1094889999999964,"midi":58,"time":151.64226499999998,"velocity":0.31496062992125984},{"duration":0.1094889999999964,"midi":87,"time":151.75175399999998,"velocity":0.31496062992125984},{"duration":0.1094889999999964,"midi":79,"time":151.75175399999998,"velocity":0.31496062992125984},{"duration":0.1094889999999964,"midi":58,"time":151.75175399999998,"velocity":0.31496062992125984},{"duration":0.10948900000002482,"midi":58,"time":151.86124299999997,"velocity":0.31496062992125984},{"duration":0.10948900000002482,"midi":79,"time":151.86124299999997,"velocity":0.31496062992125984},{"duration":0.10948900000002482,"midi":87,"time":151.86124299999997,"velocity":0.31496062992125984},{"duration":0.1094889999999964,"midi":79,"time":151.970732,"velocity":0.31496062992125984},{"duration":0.1094889999999964,"midi":87,"time":151.970732,"velocity":0.31496062992125984},{"duration":0.1094889999999964,"midi":58,"time":151.970732,"velocity":0.31496062992125984},{"duration":0.1094889999999964,"midi":58,"time":152.080221,"velocity":0.31496062992125984},{"duration":0.1094889999999964,"midi":79,"time":152.080221,"velocity":0.31496062992125984},{"duration":0.1094889999999964,"midi":87,"time":152.080221,"velocity":0.31496062992125984},{"duration":0.1094889999999964,"midi":87,"time":152.18971,"velocity":0.31496062992125984},{"duration":0.1094889999999964,"midi":58,"time":152.18971,"velocity":0.31496062992125984},{"duration":0.1094889999999964,"midi":79,"time":152.18971,"velocity":0.31496062992125984},{"duration":0.1094889999999964,"midi":58,"time":152.299199,"velocity":0.31496062992125984},{"duration":0.1094889999999964,"midi":87,"time":152.299199,"velocity":0.31496062992125984},{"duration":0.1094889999999964,"midi":79,"time":152.299199,"velocity":0.31496062992125984},{"duration":0.1094889999999964,"midi":87,"time":152.40868799999998,"velocity":0.31496062992125984},{"duration":0.1094889999999964,"midi":58,"time":152.40868799999998,"velocity":0.31496062992125984},{"duration":0.1094889999999964,"midi":79,"time":152.40868799999998,"velocity":0.31496062992125984},{"duration":0.1094889999999964,"midi":58,"time":152.51817699999998,"velocity":0.31496062992125984},{"duration":0.1094889999999964,"midi":87,"time":152.51817699999998,"velocity":0.31496062992125984},{"duration":0.1094889999999964,"midi":79,"time":152.51817699999998,"velocity":0.31496062992125984},{"duration":0.1094889999999964,"midi":87,"time":152.62766599999998,"velocity":0.31496062992125984},{"duration":0.1094889999999964,"midi":79,"time":152.62766599999998,"velocity":0.31496062992125984},{"duration":0.1094889999999964,"midi":58,"time":152.62766599999998,"velocity":0.31496062992125984},{"duration":0.10948900000002482,"midi":79,"time":152.73715499999997,"velocity":0.31496062992125984},{"duration":0.10948900000002482,"midi":58,"time":152.73715499999997,"velocity":0.31496062992125984},{"duration":0.10948900000002482,"midi":87,"time":152.73715499999997,"velocity":0.31496062992125984},{"duration":0.1094889999999964,"midi":58,"time":152.846644,"velocity":0.31496062992125984},{"duration":0.1094889999999964,"midi":79,"time":152.846644,"velocity":0.31496062992125984},{"duration":0.1094889999999964,"midi":87,"time":152.846644,"velocity":0.31496062992125984},{"duration":0.1094889999999964,"midi":58,"time":152.956133,"velocity":0.31496062992125984},{"duration":0.1094889999999964,"midi":79,"time":152.956133,"velocity":0.31496062992125984},{"duration":0.1094889999999964,"midi":87,"time":152.956133,"velocity":0.31496062992125984},{"duration":0.1094889999999964,"midi":87,"time":153.065622,"velocity":0.31496062992125984},{"duration":0.1094889999999964,"midi":79,"time":153.065622,"velocity":0.31496062992125984},{"duration":0.1094889999999964,"midi":58,"time":153.065622,"velocity":0.31496062992125984},{"duration":0.1094889999999964,"midi":87,"time":153.175111,"velocity":0.31496062992125984},{"duration":0.1094889999999964,"midi":79,"time":153.175111,"velocity":0.31496062992125984},{"duration":0.1094889999999964,"midi":58,"time":153.175111,"velocity":0.31496062992125984},{"duration":0.1094889999999964,"midi":58,"time":153.28459999999998,"velocity":0.31496062992125984},{"duration":0.1094889999999964,"midi":87,"time":153.28459999999998,"velocity":0.31496062992125984},{"duration":0.1094889999999964,"midi":79,"time":153.28459999999998,"velocity":0.31496062992125984},{"duration":0.1094889999999964,"midi":58,"time":153.39408899999998,"velocity":0.31496062992125984},{"duration":0.1094889999999964,"midi":79,"time":153.39408899999998,"velocity":0.31496062992125984},{"duration":0.1094889999999964,"midi":87,"time":153.39408899999998,"velocity":0.31496062992125984},{"duration":0.1094889999999964,"midi":87,"time":153.50357799999998,"velocity":0.31496062992125984},{"duration":0.1094889999999964,"midi":79,"time":153.50357799999998,"velocity":0.31496062992125984},{"duration":0.1094889999999964,"midi":58,"time":153.50357799999998,"velocity":0.31496062992125984},{"duration":0.10948900000002482,"midi":58,"time":153.61306699999997,"velocity":0.31496062992125984},{"duration":0.10948900000002482,"midi":87,"time":153.61306699999997,"velocity":0.31496062992125984},{"duration":0.10948900000002482,"midi":79,"time":153.61306699999997,"velocity":0.31496062992125984},{"duration":0.1094889999999964,"midi":79,"time":153.722556,"velocity":0.31496062992125984},{"duration":0.1094889999999964,"midi":58,"time":153.722556,"velocity":0.31496062992125984},{"duration":0.1094889999999964,"midi":87,"time":153.722556,"velocity":0.31496062992125984},{"duration":0.1094889999999964,"midi":58,"time":153.832045,"velocity":0.31496062992125984},{"duration":0.1094889999999964,"midi":87,"time":153.832045,"velocity":0.31496062992125984},{"duration":0.1094889999999964,"midi":79,"time":153.832045,"velocity":0.31496062992125984},{"duration":0.1094889999999964,"midi":87,"time":153.941534,"velocity":0.31496062992125984},{"duration":0.1094889999999964,"midi":79,"time":153.941534,"velocity":0.31496062992125984},{"duration":0.1094889999999964,"midi":58,"time":153.941534,"velocity":0.31496062992125984},{"duration":0.1094889999999964,"midi":79,"time":154.051023,"velocity":0.31496062992125984},{"duration":0.1094889999999964,"midi":87,"time":154.051023,"velocity":0.31496062992125984},{"duration":0.1094889999999964,"midi":58,"time":154.051023,"velocity":0.31496062992125984},{"duration":0.1094889999999964,"midi":87,"time":154.16051199999998,"velocity":0.31496062992125984},{"duration":0.1094889999999964,"midi":79,"time":154.16051199999998,"velocity":0.31496062992125984},{"duration":0.1094889999999964,"midi":58,"time":154.16051199999998,"velocity":0.31496062992125984},{"duration":0.1094889999999964,"midi":87,"time":154.27000099999998,"velocity":0.31496062992125984},{"duration":0.1094889999999964,"midi":79,"time":154.27000099999998,"velocity":0.31496062992125984},{"duration":0.1094889999999964,"midi":58,"time":154.27000099999998,"velocity":0.31496062992125984},{"duration":0.1094889999999964,"midi":58,"time":154.37948999999998,"velocity":0.31496062992125984},{"duration":0.1094889999999964,"midi":87,"time":154.37948999999998,"velocity":0.31496062992125984},{"duration":0.1094889999999964,"midi":79,"time":154.37948999999998,"velocity":0.31496062992125984},{"duration":0.10948900000002482,"midi":58,"time":154.48897899999997,"velocity":0.31496062992125984},{"duration":0.10948900000002482,"midi":79,"time":154.48897899999997,"velocity":0.31496062992125984},{"duration":0.10948900000002482,"midi":87,"time":154.48897899999997,"velocity":0.31496062992125984},{"duration":0.1094889999999964,"midi":79,"time":154.598468,"velocity":0.31496062992125984},{"duration":0.1094889999999964,"midi":58,"time":154.598468,"velocity":0.31496062992125984},{"duration":0.1094889999999964,"midi":87,"time":154.598468,"velocity":0.31496062992125984},{"duration":0.1094889999999964,"midi":58,"time":154.707957,"velocity":0.31496062992125984},{"duration":0.1094889999999964,"midi":87,"time":154.707957,"velocity":0.31496062992125984},{"duration":0.1094889999999964,"midi":79,"time":154.707957,"velocity":0.31496062992125984},{"duration":0.1094889999999964,"midi":79,"time":154.817446,"velocity":0.31496062992125984},{"duration":0.1094889999999964,"midi":58,"time":154.817446,"velocity":0.31496062992125984},{"duration":0.1094889999999964,"midi":87,"time":154.817446,"velocity":0.31496062992125984},{"duration":0.1094889999999964,"midi":58,"time":154.926935,"velocity":0.31496062992125984},{"duration":0.1094889999999964,"midi":79,"time":154.926935,"velocity":0.31496062992125984},{"duration":0.1094889999999964,"midi":87,"time":154.926935,"velocity":0.31496062992125984},{"duration":0.1094889999999964,"midi":79,"time":155.03642399999998,"velocity":0.31496062992125984},{"duration":0.1094889999999964,"midi":87,"time":155.03642399999998,"velocity":0.31496062992125984},{"duration":0.1094889999999964,"midi":58,"time":155.03642399999998,"velocity":0.31496062992125984},{"duration":0.1094889999999964,"midi":79,"time":155.14591299999998,"velocity":0.31496062992125984},{"duration":0.1094889999999964,"midi":87,"time":155.14591299999998,"velocity":0.31496062992125984},{"duration":0.1094889999999964,"midi":58,"time":155.14591299999998,"velocity":0.31496062992125984},{"duration":0.1094889999999964,"midi":79,"time":155.25540199999998,"velocity":0.31496062992125984},{"duration":0.1094889999999964,"midi":87,"time":155.25540199999998,"velocity":0.31496062992125984},{"duration":0.1094889999999964,"midi":58,"time":155.25540199999998,"velocity":0.31496062992125984},{"duration":0.10948900000002482,"midi":79,"time":155.36489099999997,"velocity":0.31496062992125984},{"duration":0.10948900000002482,"midi":58,"time":155.36489099999997,"velocity":0.31496062992125984},{"duration":0.10948900000002482,"midi":87,"time":155.36489099999997,"velocity":0.31496062992125984},{"duration":0.1094889999999964,"midi":87,"time":155.47438,"velocity":0.31496062992125984},{"duration":0.1094889999999964,"midi":79,"time":155.47438,"velocity":0.31496062992125984},{"duration":0.1094889999999964,"midi":58,"time":155.47438,"velocity":0.31496062992125984},{"duration":0.1094889999999964,"midi":58,"time":155.583869,"velocity":0.31496062992125984},{"duration":0.1094889999999964,"midi":87,"time":155.583869,"velocity":0.31496062992125984},{"duration":0.1094889999999964,"midi":79,"time":155.583869,"velocity":0.31496062992125984},{"duration":0.1094889999999964,"midi":79,"time":155.693358,"velocity":0.31496062992125984},{"duration":0.1094889999999964,"midi":58,"time":155.693358,"velocity":0.31496062992125984},{"duration":0.1094889999999964,"midi":87,"time":155.693358,"velocity":0.31496062992125984},{"duration":0.1094889999999964,"midi":58,"time":155.80284699999999,"velocity":0.31496062992125984},{"duration":0.1094889999999964,"midi":79,"time":155.80284699999999,"velocity":0.31496062992125984},{"duration":0.1094889999999964,"midi":87,"time":155.80284699999999,"velocity":0.31496062992125984},{"duration":0.1094889999999964,"midi":79,"time":155.91233599999998,"velocity":0.31496062992125984},{"duration":0.1094889999999964,"midi":87,"time":155.91233599999998,"velocity":0.31496062992125984},{"duration":0.1094889999999964,"midi":58,"time":155.91233599999998,"velocity":0.31496062992125984},{"duration":0.1094889999999964,"midi":87,"time":156.02182499999998,"velocity":0.31496062992125984},{"duration":0.1094889999999964,"midi":79,"time":156.02182499999998,"velocity":0.31496062992125984},{"duration":0.1094889999999964,"midi":58,"time":156.02182499999998,"velocity":0.31496062992125984},{"duration":0.1094889999999964,"midi":58,"time":156.13131399999997,"velocity":0.31496062992125984},{"duration":0.1094889999999964,"midi":87,"time":156.13131399999997,"velocity":0.31496062992125984},{"duration":0.1094889999999964,"midi":79,"time":156.13131399999997,"velocity":0.31496062992125984},{"duration":0.10948900000002482,"midi":87,"time":156.24080299999997,"velocity":0.31496062992125984},{"duration":0.10948900000002482,"midi":79,"time":156.24080299999997,"velocity":0.31496062992125984},{"duration":0.10948900000002482,"midi":58,"time":156.24080299999997,"velocity":0.31496062992125984},{"duration":0.1094889999999964,"midi":79,"time":156.350292,"velocity":0.31496062992125984},{"duration":0.1094889999999964,"midi":87,"time":156.350292,"velocity":0.31496062992125984},{"duration":0.1094889999999964,"midi":58,"time":156.350292,"velocity":0.31496062992125984},{"duration":0.1094889999999964,"midi":58,"time":156.459781,"velocity":0.31496062992125984},{"duration":0.1094889999999964,"midi":87,"time":156.459781,"velocity":0.31496062992125984},{"duration":0.1094889999999964,"midi":79,"time":156.459781,"velocity":0.31496062992125984},{"duration":0.1094889999999964,"midi":79,"time":156.56927,"velocity":0.31496062992125984},{"duration":0.1094889999999964,"midi":58,"time":156.56927,"velocity":0.31496062992125984},{"duration":0.1094889999999964,"midi":87,"time":156.56927,"velocity":0.31496062992125984},{"duration":0.1094889999999964,"midi":87,"time":156.67875899999999,"velocity":0.31496062992125984},{"duration":0.1094889999999964,"midi":79,"time":156.67875899999999,"velocity":0.31496062992125984},{"duration":0.1094889999999964,"midi":58,"time":156.67875899999999,"velocity":0.31496062992125984},{"duration":0.1094889999999964,"midi":87,"time":156.78824799999998,"velocity":0.31496062992125984},{"duration":0.1094889999999964,"midi":79,"time":156.78824799999998,"velocity":0.31496062992125984},{"duration":0.1094889999999964,"midi":58,"time":156.78824799999998,"velocity":0.31496062992125984},{"duration":0.1094889999999964,"midi":79,"time":156.89773699999998,"velocity":0.31496062992125984},{"duration":0.1094889999999964,"midi":87,"time":156.89773699999998,"velocity":0.31496062992125984},{"duration":0.1094889999999964,"midi":58,"time":156.89773699999998,"velocity":0.31496062992125984},{"duration":0.1094889999999964,"midi":58,"time":157.00722599999997,"velocity":0.31496062992125984},{"duration":0.1094889999999964,"midi":79,"time":157.00722599999997,"velocity":0.31496062992125984},{"duration":0.1094889999999964,"midi":87,"time":157.00722599999997,"velocity":0.31496062992125984},{"duration":0.10948900000002482,"midi":58,"time":157.11671499999997,"velocity":0.31496062992125984},{"duration":0.10948900000002482,"midi":87,"time":157.11671499999997,"velocity":0.31496062992125984},{"duration":0.10948900000002482,"midi":79,"time":157.11671499999997,"velocity":0.31496062992125984},{"duration":0.1094889999999964,"midi":87,"time":157.226204,"velocity":0.31496062992125984},{"duration":0.1094889999999964,"midi":79,"time":157.226204,"velocity":0.31496062992125984},{"duration":0.1094889999999964,"midi":58,"time":157.226204,"velocity":0.31496062992125984},{"duration":0.1094889999999964,"midi":87,"time":157.335693,"velocity":0.31496062992125984},{"duration":0.1094889999999964,"midi":79,"time":157.335693,"velocity":0.31496062992125984},{"duration":0.1094889999999964,"midi":58,"time":157.335693,"velocity":0.31496062992125984},{"duration":0.1094889999999964,"midi":58,"time":157.445182,"velocity":0.31496062992125984},{"duration":0.1094889999999964,"midi":79,"time":157.445182,"velocity":0.31496062992125984},{"duration":0.1094889999999964,"midi":87,"time":157.445182,"velocity":0.31496062992125984},{"duration":0.1094889999999964,"midi":79,"time":157.55467099999998,"velocity":0.31496062992125984},{"duration":0.1094889999999964,"midi":58,"time":157.55467099999998,"velocity":0.31496062992125984},{"duration":0.1094889999999964,"midi":87,"time":157.55467099999998,"velocity":0.31496062992125984},{"duration":0.1094889999999964,"midi":58,"time":157.66415999999998,"velocity":0.31496062992125984},{"duration":0.1094889999999964,"midi":79,"time":157.66415999999998,"velocity":0.31496062992125984},{"duration":0.1094889999999964,"midi":87,"time":157.66415999999998,"velocity":0.31496062992125984},{"duration":0.1094889999999964,"midi":79,"time":157.77364899999998,"velocity":0.31496062992125984},{"duration":0.1094889999999964,"midi":87,"time":157.77364899999998,"velocity":0.31496062992125984},{"duration":0.1094889999999964,"midi":58,"time":157.77364899999998,"velocity":0.31496062992125984},{"duration":0.1094889999999964,"midi":87,"time":157.88313799999997,"velocity":0.31496062992125984},{"duration":0.1094889999999964,"midi":79,"time":157.88313799999997,"velocity":0.31496062992125984},{"duration":0.1094889999999964,"midi":58,"time":157.88313799999997,"velocity":0.31496062992125984},{"duration":0.10948900000002482,"midi":58,"time":157.99262699999997,"velocity":0.31496062992125984},{"duration":0.10948900000002482,"midi":79,"time":157.99262699999997,"velocity":0.31496062992125984},{"duration":0.10948900000002482,"midi":87,"time":157.99262699999997,"velocity":0.31496062992125984},{"duration":0.1094889999999964,"midi":58,"time":158.102116,"velocity":0.31496062992125984},{"duration":0.1094889999999964,"midi":87,"time":158.102116,"velocity":0.31496062992125984},{"duration":0.1094889999999964,"midi":79,"time":158.102116,"velocity":0.31496062992125984},{"duration":0.1094889999999964,"midi":79,"time":158.211605,"velocity":0.31496062992125984},{"duration":0.1094889999999964,"midi":87,"time":158.211605,"velocity":0.31496062992125984},{"duration":0.1094889999999964,"midi":58,"time":158.211605,"velocity":0.31496062992125984},{"duration":0.1094889999999964,"midi":58,"time":158.321094,"velocity":0.31496062992125984},{"duration":0.1094889999999964,"midi":87,"time":158.321094,"velocity":0.31496062992125984},{"duration":0.1094889999999964,"midi":79,"time":158.321094,"velocity":0.31496062992125984},{"duration":0.1094889999999964,"midi":79,"time":158.43058299999998,"velocity":0.31496062992125984},{"duration":0.1094889999999964,"midi":58,"time":158.43058299999998,"velocity":0.31496062992125984},{"duration":0.1094889999999964,"midi":87,"time":158.43058299999998,"velocity":0.31496062992125984},{"duration":0.1094889999999964,"midi":79,"time":158.54007199999998,"velocity":0.31496062992125984},{"duration":0.1094889999999964,"midi":87,"time":158.54007199999998,"velocity":0.31496062992125984},{"duration":0.1094889999999964,"midi":58,"time":158.54007199999998,"velocity":0.31496062992125984},{"duration":0.1094889999999964,"midi":87,"time":158.64956099999998,"velocity":0.31496062992125984},{"duration":0.1094889999999964,"midi":79,"time":158.64956099999998,"velocity":0.31496062992125984},{"duration":0.1094889999999964,"midi":58,"time":158.64956099999998,"velocity":0.31496062992125984},{"duration":0.10948900000002482,"midi":87,"time":158.75904999999997,"velocity":0.31496062992125984},{"duration":0.10948900000002482,"midi":79,"time":158.75904999999997,"velocity":0.31496062992125984},{"duration":0.10948900000002482,"midi":58,"time":158.75904999999997,"velocity":0.31496062992125984},{"duration":0.1094889999999964,"midi":79,"time":158.868539,"velocity":0.31496062992125984},{"duration":0.1094889999999964,"midi":58,"time":158.868539,"velocity":0.31496062992125984},{"duration":0.1094889999999964,"midi":87,"time":158.868539,"velocity":0.31496062992125984},{"duration":0.1094889999999964,"midi":79,"time":158.978028,"velocity":0.31496062992125984},{"duration":0.1094889999999964,"midi":87,"time":158.978028,"velocity":0.31496062992125984},{"duration":0.1094889999999964,"midi":58,"time":158.978028,"velocity":0.31496062992125984},{"duration":0.1094889999999964,"midi":87,"time":159.087517,"velocity":0.31496062992125984},{"duration":0.1094889999999964,"midi":58,"time":159.087517,"velocity":0.31496062992125984},{"duration":0.1094889999999964,"midi":79,"time":159.087517,"velocity":0.31496062992125984},{"duration":0.1094889999999964,"midi":58,"time":159.197006,"velocity":0.31496062992125984},{"duration":0.1094889999999964,"midi":79,"time":159.197006,"velocity":0.31496062992125984},{"duration":0.1094889999999964,"midi":87,"time":159.197006,"velocity":0.31496062992125984},{"duration":0.1094889999999964,"midi":79,"time":159.30649499999998,"velocity":0.31496062992125984},{"duration":0.1094889999999964,"midi":87,"time":159.30649499999998,"velocity":0.31496062992125984},{"duration":0.1094889999999964,"midi":58,"time":159.30649499999998,"velocity":0.31496062992125984},{"duration":0.1094889999999964,"midi":87,"time":159.41598399999998,"velocity":0.31496062992125984},{"duration":0.1094889999999964,"midi":58,"time":159.41598399999998,"velocity":0.31496062992125984},{"duration":0.1094889999999964,"midi":79,"time":159.41598399999998,"velocity":0.31496062992125984},{"duration":0.1094889999999964,"midi":87,"time":159.52547299999998,"velocity":0.31496062992125984},{"duration":0.1094889999999964,"midi":79,"time":159.52547299999998,"velocity":0.31496062992125984},{"duration":0.1094889999999964,"midi":58,"time":159.52547299999998,"velocity":0.31496062992125984},{"duration":0.10948900000002482,"midi":87,"time":159.63496199999997,"velocity":0.31496062992125984},{"duration":0.10948900000002482,"midi":79,"time":159.63496199999997,"velocity":0.31496062992125984},{"duration":0.10948900000002482,"midi":58,"time":159.63496199999997,"velocity":0.31496062992125984},{"duration":0.1094889999999964,"midi":79,"time":159.744451,"velocity":0.31496062992125984},{"duration":0.1094889999999964,"midi":87,"time":159.744451,"velocity":0.31496062992125984},{"duration":0.1094889999999964,"midi":58,"time":159.744451,"velocity":0.31496062992125984},{"duration":0.1094889999999964,"midi":58,"time":159.85394,"velocity":0.31496062992125984},{"duration":0.1094889999999964,"midi":87,"time":159.85394,"velocity":0.31496062992125984},{"duration":0.1094889999999964,"midi":79,"time":159.85394,"velocity":0.31496062992125984},{"duration":0.1094889999999964,"midi":79,"time":159.963429,"velocity":0.31496062992125984},{"duration":0.1094889999999964,"midi":87,"time":159.963429,"velocity":0.31496062992125984},{"duration":0.1094889999999964,"midi":58,"time":159.963429,"velocity":0.31496062992125984},{"duration":0.1094889999999964,"midi":87,"time":160.072918,"velocity":0.31496062992125984},{"duration":0.1094889999999964,"midi":79,"time":160.072918,"velocity":0.31496062992125984},{"duration":0.1094889999999964,"midi":58,"time":160.072918,"velocity":0.31496062992125984},{"duration":0.1094889999999964,"midi":87,"time":160.18240699999998,"velocity":0.31496062992125984},{"duration":0.1094889999999964,"midi":79,"time":160.18240699999998,"velocity":0.31496062992125984},{"duration":0.1094889999999964,"midi":58,"time":160.18240699999998,"velocity":0.31496062992125984},{"duration":0.1094889999999964,"midi":58,"time":160.29189599999998,"velocity":0.31496062992125984},{"duration":0.1094889999999964,"midi":79,"time":160.29189599999998,"velocity":0.31496062992125984},{"duration":0.1094889999999964,"midi":87,"time":160.29189599999998,"velocity":0.31496062992125984},{"duration":0.1094889999999964,"midi":58,"time":160.40138499999998,"velocity":0.31496062992125984},{"duration":0.1094889999999964,"midi":79,"time":160.40138499999998,"velocity":0.31496062992125984},{"duration":0.1094889999999964,"midi":87,"time":160.40138499999998,"velocity":0.31496062992125984},{"duration":0.10948900000002482,"midi":79,"time":160.51087399999997,"velocity":0.31496062992125984},{"duration":0.10948900000002482,"midi":87,"time":160.51087399999997,"velocity":0.31496062992125984},{"duration":0.10948900000002482,"midi":58,"time":160.51087399999997,"velocity":0.31496062992125984},{"duration":0.1094889999999964,"midi":87,"time":160.620363,"velocity":0.31496062992125984},{"duration":0.1094889999999964,"midi":79,"time":160.620363,"velocity":0.31496062992125984},{"duration":0.1094889999999964,"midi":58,"time":160.620363,"velocity":0.31496062992125984},{"duration":0.1094889999999964,"midi":79,"time":160.729852,"velocity":0.31496062992125984},{"duration":0.1094889999999964,"midi":58,"time":160.729852,"velocity":0.31496062992125984},{"duration":0.1094889999999964,"midi":87,"time":160.729852,"velocity":0.31496062992125984},{"duration":0.1094889999999964,"midi":87,"time":160.839341,"velocity":0.31496062992125984},{"duration":0.1094889999999964,"midi":79,"time":160.839341,"velocity":0.31496062992125984},{"duration":0.1094889999999964,"midi":58,"time":160.839341,"velocity":0.31496062992125984},{"duration":0.1094889999999964,"midi":58,"time":160.94883,"velocity":0.31496062992125984},{"duration":0.1094889999999964,"midi":79,"time":160.94883,"velocity":0.31496062992125984},{"duration":0.1094889999999964,"midi":87,"time":160.94883,"velocity":0.31496062992125984},{"duration":0.1094889999999964,"midi":87,"time":161.05831899999998,"velocity":0.31496062992125984},{"duration":0.1094889999999964,"midi":79,"time":161.05831899999998,"velocity":0.31496062992125984},{"duration":0.1094889999999964,"midi":58,"time":161.05831899999998,"velocity":0.31496062992125984},{"duration":0.1094889999999964,"midi":79,"time":161.16780799999998,"velocity":0.31496062992125984},{"duration":0.1094889999999964,"midi":87,"time":161.16780799999998,"velocity":0.31496062992125984},{"duration":0.1094889999999964,"midi":58,"time":161.16780799999998,"velocity":0.31496062992125984},{"duration":0.1094889999999964,"midi":87,"time":161.27729699999998,"velocity":0.31496062992125984},{"duration":0.1094889999999964,"midi":79,"time":161.27729699999998,"velocity":0.31496062992125984},{"duration":0.1094889999999964,"midi":58,"time":161.27729699999998,"velocity":0.31496062992125984},{"duration":0.10948900000002482,"midi":87,"time":161.38678599999997,"velocity":0.31496062992125984},{"duration":0.10948900000002482,"midi":79,"time":161.38678599999997,"velocity":0.31496062992125984},{"duration":0.10948900000002482,"midi":58,"time":161.38678599999997,"velocity":0.31496062992125984},{"duration":0.1094889999999964,"midi":79,"time":161.496275,"velocity":0.31496062992125984},{"duration":0.1094889999999964,"midi":58,"time":161.496275,"velocity":0.31496062992125984},{"duration":0.1094889999999964,"midi":87,"time":161.496275,"velocity":0.31496062992125984},{"duration":0.1094889999999964,"midi":79,"time":161.605764,"velocity":0.31496062992125984},{"duration":0.1094889999999964,"midi":58,"time":161.605764,"velocity":0.31496062992125984},{"duration":0.1094889999999964,"midi":87,"time":161.605764,"velocity":0.31496062992125984},{"duration":0.1094889999999964,"midi":87,"time":161.715253,"velocity":0.31496062992125984},{"duration":0.1094889999999964,"midi":79,"time":161.715253,"velocity":0.31496062992125984},{"duration":0.1094889999999964,"midi":58,"time":161.715253,"velocity":0.31496062992125984},{"duration":0.1094889999999964,"midi":58,"time":161.824742,"velocity":0.31496062992125984},{"duration":0.1094889999999964,"midi":87,"time":161.824742,"velocity":0.31496062992125984},{"duration":0.1094889999999964,"midi":79,"time":161.824742,"velocity":0.31496062992125984},{"duration":0.1094889999999964,"midi":87,"time":161.93423099999998,"velocity":0.31496062992125984},{"duration":0.1094889999999964,"midi":79,"time":161.93423099999998,"velocity":0.31496062992125984},{"duration":0.1094889999999964,"midi":58,"time":161.93423099999998,"velocity":0.31496062992125984},{"duration":0.1094889999999964,"midi":79,"time":162.04371999999998,"velocity":0.31496062992125984},{"duration":0.1094889999999964,"midi":58,"time":162.04371999999998,"velocity":0.31496062992125984},{"duration":0.1094889999999964,"midi":87,"time":162.04371999999998,"velocity":0.31496062992125984},{"duration":0.1094889999999964,"midi":79,"time":162.15320899999998,"velocity":0.31496062992125984},{"duration":0.1094889999999964,"midi":58,"time":162.15320899999998,"velocity":0.31496062992125984},{"duration":0.1094889999999964,"midi":87,"time":162.15320899999998,"velocity":0.31496062992125984},{"duration":0.10948900000002482,"midi":87,"time":162.26269799999997,"velocity":0.31496062992125984},{"duration":0.10948900000002482,"midi":79,"time":162.26269799999997,"velocity":0.31496062992125984},{"duration":0.10948900000002482,"midi":58,"time":162.26269799999997,"velocity":0.31496062992125984},{"duration":0.1094889999999964,"midi":79,"time":162.372187,"velocity":0.31496062992125984},{"duration":0.1094889999999964,"midi":58,"time":162.372187,"velocity":0.31496062992125984},{"duration":0.1094889999999964,"midi":87,"time":162.372187,"velocity":0.31496062992125984},{"duration":0.1094889999999964,"midi":58,"time":162.481676,"velocity":0.31496062992125984},{"duration":0.1094889999999964,"midi":79,"time":162.481676,"velocity":0.31496062992125984},{"duration":0.1094889999999964,"midi":87,"time":162.481676,"velocity":0.31496062992125984},{"duration":0.1094889999999964,"midi":87,"time":162.591165,"velocity":0.31496062992125984},{"duration":0.1094889999999964,"midi":58,"time":162.591165,"velocity":0.31496062992125984},{"duration":0.1094889999999964,"midi":79,"time":162.591165,"velocity":0.31496062992125984},{"duration":0.1094889999999964,"midi":79,"time":162.700654,"velocity":0.31496062992125984},{"duration":0.1094889999999964,"midi":58,"time":162.700654,"velocity":0.31496062992125984},{"duration":0.1094889999999964,"midi":87,"time":162.700654,"velocity":0.31496062992125984},{"duration":0.1094889999999964,"midi":79,"time":162.81014299999998,"velocity":0.31496062992125984},{"duration":0.1094889999999964,"midi":58,"time":162.81014299999998,"velocity":0.31496062992125984},{"duration":0.1094889999999964,"midi":87,"time":162.81014299999998,"velocity":0.31496062992125984},{"duration":0.1094889999999964,"midi":87,"time":162.91963199999998,"velocity":0.31496062992125984},{"duration":0.1094889999999964,"midi":79,"time":162.91963199999998,"velocity":0.31496062992125984},{"duration":0.1094889999999964,"midi":58,"time":162.91963199999998,"velocity":0.31496062992125984},{"duration":0.1094889999999964,"midi":87,"time":163.02912099999998,"velocity":0.31496062992125984},{"duration":0.1094889999999964,"midi":79,"time":163.02912099999998,"velocity":0.31496062992125984},{"duration":0.1094889999999964,"midi":58,"time":163.02912099999998,"velocity":0.31496062992125984},{"duration":0.10948900000002482,"midi":79,"time":163.13860999999997,"velocity":0.31496062992125984},{"duration":0.10948900000002482,"midi":87,"time":163.13860999999997,"velocity":0.31496062992125984},{"duration":0.10948900000002482,"midi":58,"time":163.13860999999997,"velocity":0.31496062992125984},{"duration":0.1094889999999964,"midi":87,"time":163.248099,"velocity":0.31496062992125984},{"duration":0.1094889999999964,"midi":79,"time":163.248099,"velocity":0.31496062992125984},{"duration":0.1094889999999964,"midi":58,"time":163.248099,"velocity":0.31496062992125984},{"duration":0.1094889999999964,"midi":58,"time":163.357588,"velocity":0.31496062992125984},{"duration":0.1094889999999964,"midi":87,"time":163.357588,"velocity":0.31496062992125984},{"duration":0.1094889999999964,"midi":79,"time":163.357588,"velocity":0.31496062992125984},{"duration":0.1094889999999964,"midi":79,"time":163.467077,"velocity":0.31496062992125984},{"duration":0.1094889999999964,"midi":87,"time":163.467077,"velocity":0.31496062992125984},{"duration":0.1094889999999964,"midi":58,"time":163.467077,"velocity":0.31496062992125984},{"duration":0.1094889999999964,"midi":87,"time":163.57656599999999,"velocity":0.31496062992125984},{"duration":0.1094889999999964,"midi":79,"time":163.57656599999999,"velocity":0.31496062992125984},{"duration":0.1094889999999964,"midi":58,"time":163.57656599999999,"velocity":0.31496062992125984},{"duration":0.1094889999999964,"midi":87,"time":163.68605499999998,"velocity":0.31496062992125984},{"duration":0.1094889999999964,"midi":79,"time":163.68605499999998,"velocity":0.31496062992125984},{"duration":0.1094889999999964,"midi":58,"time":163.68605499999998,"velocity":0.31496062992125984},{"duration":0.1094889999999964,"midi":58,"time":163.79554399999998,"velocity":0.31496062992125984},{"duration":0.1094889999999964,"midi":87,"time":163.79554399999998,"velocity":0.31496062992125984},{"duration":0.1094889999999964,"midi":79,"time":163.79554399999998,"velocity":0.31496062992125984},{"duration":0.1094889999999964,"midi":58,"time":163.90503299999997,"velocity":0.31496062992125984},{"duration":0.1094889999999964,"midi":79,"time":163.90503299999997,"velocity":0.31496062992125984},{"duration":0.1094889999999964,"midi":87,"time":163.90503299999997,"velocity":0.31496062992125984},{"duration":0.10948900000002482,"midi":87,"time":164.01452199999997,"velocity":0.31496062992125984},{"duration":0.10948900000002482,"midi":58,"time":164.01452199999997,"velocity":0.31496062992125984},{"duration":0.10948900000002482,"midi":79,"time":164.01452199999997,"velocity":0.31496062992125984},{"duration":0.1094889999999964,"midi":79,"time":164.124011,"velocity":0.31496062992125984},{"duration":0.1094889999999964,"midi":58,"time":164.124011,"velocity":0.31496062992125984},{"duration":0.1094889999999964,"midi":87,"time":164.124011,"velocity":0.31496062992125984},{"duration":0.1094889999999964,"midi":58,"time":164.2335,"velocity":0.31496062992125984},{"duration":0.1094889999999964,"midi":87,"time":164.2335,"velocity":0.31496062992125984},{"duration":0.1094889999999964,"midi":79,"time":164.2335,"velocity":0.31496062992125984},{"duration":0.1094889999999964,"midi":79,"time":164.342989,"velocity":0.31496062992125984},{"duration":0.1094889999999964,"midi":87,"time":164.342989,"velocity":0.31496062992125984},{"duration":0.1094889999999964,"midi":58,"time":164.342989,"velocity":0.31496062992125984},{"duration":0.1094889999999964,"midi":87,"time":164.45247799999999,"velocity":0.31496062992125984},{"duration":0.1094889999999964,"midi":79,"time":164.45247799999999,"velocity":0.31496062992125984},{"duration":0.1094889999999964,"midi":58,"time":164.45247799999999,"velocity":0.31496062992125984},{"duration":0.1094889999999964,"midi":79,"time":164.56196699999998,"velocity":0.31496062992125984},{"duration":0.1094889999999964,"midi":58,"time":164.56196699999998,"velocity":0.31496062992125984},{"duration":0.1094889999999964,"midi":87,"time":164.56196699999998,"velocity":0.31496062992125984},{"duration":0.1094889999999964,"midi":58,"time":164.67145599999998,"velocity":0.31496062992125984},{"duration":0.1094889999999964,"midi":79,"time":164.67145599999998,"velocity":0.31496062992125984},{"duration":0.1094889999999964,"midi":87,"time":164.67145599999998,"velocity":0.31496062992125984},{"duration":0.1094889999999964,"midi":87,"time":164.78094499999997,"velocity":0.31496062992125984},{"duration":0.1094889999999964,"midi":79,"time":164.78094499999997,"velocity":0.31496062992125984},{"duration":0.1094889999999964,"midi":58,"time":164.78094499999997,"velocity":0.31496062992125984},{"duration":0.10948900000002482,"midi":58,"time":164.89043399999997,"velocity":0.31496062992125984},{"duration":0.10948900000002482,"midi":79,"time":164.89043399999997,"velocity":0.31496062992125984},{"duration":0.10948900000002482,"midi":87,"time":164.89043399999997,"velocity":0.31496062992125984},{"duration":0.1094889999999964,"midi":79,"time":164.999923,"velocity":0.31496062992125984},{"duration":0.1094889999999964,"midi":58,"time":164.999923,"velocity":0.31496062992125984},{"duration":0.1094889999999964,"midi":87,"time":164.999923,"velocity":0.31496062992125984},{"duration":0.1094889999999964,"midi":87,"time":165.109412,"velocity":0.31496062992125984},{"duration":0.1094889999999964,"midi":79,"time":165.109412,"velocity":0.31496062992125984},{"duration":0.1094889999999964,"midi":58,"time":165.109412,"velocity":0.31496062992125984},{"duration":0.1094889999999964,"midi":58,"time":165.218901,"velocity":0.31496062992125984},{"duration":0.1094889999999964,"midi":87,"time":165.218901,"velocity":0.31496062992125984},{"duration":0.1094889999999964,"midi":79,"time":165.218901,"velocity":0.31496062992125984},{"duration":0.1094889999999964,"midi":87,"time":165.32838999999998,"velocity":0.31496062992125984},{"duration":0.1094889999999964,"midi":79,"time":165.32838999999998,"velocity":0.31496062992125984},{"duration":0.1094889999999964,"midi":58,"time":165.32838999999998,"velocity":0.31496062992125984},{"duration":0.1094889999999964,"midi":87,"time":165.43787899999998,"velocity":0.31496062992125984},{"duration":0.1094889999999964,"midi":58,"time":165.43787899999998,"velocity":0.31496062992125984},{"duration":0.1094889999999964,"midi":79,"time":165.43787899999998,"velocity":0.31496062992125984},{"duration":0.1094889999999964,"midi":79,"time":165.54736799999998,"velocity":0.31496062992125984},{"duration":0.1094889999999964,"midi":87,"time":165.54736799999998,"velocity":0.31496062992125984},{"duration":0.1094889999999964,"midi":58,"time":165.54736799999998,"velocity":0.31496062992125984},{"duration":0.1094889999999964,"midi":58,"time":165.65685699999997,"velocity":0.31496062992125984},{"duration":0.1094889999999964,"midi":79,"time":165.65685699999997,"velocity":0.31496062992125984},{"duration":0.1094889999999964,"midi":87,"time":165.65685699999997,"velocity":0.31496062992125984},{"duration":0.10948900000002482,"midi":87,"time":165.76634599999997,"velocity":0.31496062992125984},{"duration":0.10948900000002482,"midi":58,"time":165.76634599999997,"velocity":0.31496062992125984},{"duration":0.10948900000002482,"midi":79,"time":165.76634599999997,"velocity":0.31496062992125984},{"duration":0.1094889999999964,"midi":79,"time":165.875835,"velocity":0.31496062992125984},{"duration":0.1094889999999964,"midi":58,"time":165.875835,"velocity":0.31496062992125984},{"duration":0.1094889999999964,"midi":87,"time":165.875835,"velocity":0.31496062992125984},{"duration":0.1094889999999964,"midi":79,"time":165.985324,"velocity":0.31496062992125984},{"duration":0.1094889999999964,"midi":58,"time":165.985324,"velocity":0.31496062992125984},{"duration":0.1094889999999964,"midi":87,"time":165.985324,"velocity":0.31496062992125984},{"duration":0.1094889999999964,"midi":58,"time":166.094813,"velocity":0.31496062992125984},{"duration":0.1094889999999964,"midi":87,"time":166.094813,"velocity":0.31496062992125984},{"duration":0.1094889999999964,"midi":79,"time":166.094813,"velocity":0.31496062992125984},{"duration":0.1094889999999964,"midi":87,"time":166.20430199999998,"velocity":0.31496062992125984},{"duration":0.1094889999999964,"midi":79,"time":166.20430199999998,"velocity":0.31496062992125984},{"duration":0.1094889999999964,"midi":58,"time":166.20430199999998,"velocity":0.31496062992125984},{"duration":0.1094889999999964,"midi":79,"time":166.31379099999998,"velocity":0.31496062992125984},{"duration":0.1094889999999964,"midi":87,"time":166.31379099999998,"velocity":0.31496062992125984},{"duration":0.1094889999999964,"midi":58,"time":166.31379099999998,"velocity":0.31496062992125984},{"duration":0.1094889999999964,"midi":87,"time":166.42327999999998,"velocity":0.31496062992125984},{"duration":0.1094889999999964,"midi":79,"time":166.42327999999998,"velocity":0.31496062992125984},{"duration":0.1094889999999964,"midi":58,"time":166.42327999999998,"velocity":0.31496062992125984},{"duration":0.1094889999999964,"midi":58,"time":166.53276899999997,"velocity":0.31496062992125984},{"duration":0.1094889999999964,"midi":79,"time":166.53276899999997,"velocity":0.31496062992125984},{"duration":0.1094889999999964,"midi":87,"time":166.53276899999997,"velocity":0.31496062992125984},{"duration":0.10948900000002482,"midi":79,"time":166.64225799999997,"velocity":0.31496062992125984},{"duration":0.10948900000002482,"midi":87,"time":166.64225799999997,"velocity":0.31496062992125984},{"duration":0.10948900000002482,"midi":58,"time":166.64225799999997,"velocity":0.31496062992125984},{"duration":0.1094889999999964,"midi":87,"time":166.751747,"velocity":0.31496062992125984},{"duration":0.1094889999999964,"midi":79,"time":166.751747,"velocity":0.31496062992125984},{"duration":0.1094889999999964,"midi":58,"time":166.751747,"velocity":0.31496062992125984},{"duration":0.1094889999999964,"midi":79,"time":166.861236,"velocity":0.31496062992125984},{"duration":0.1094889999999964,"midi":87,"time":166.861236,"velocity":0.31496062992125984},{"duration":0.1094889999999964,"midi":58,"time":166.861236,"velocity":0.31496062992125984},{"duration":0.1094889999999964,"midi":87,"time":166.970725,"velocity":0.31496062992125984},{"duration":0.1094889999999964,"midi":79,"time":166.970725,"velocity":0.31496062992125984},{"duration":0.1094889999999964,"midi":58,"time":166.970725,"velocity":0.31496062992125984},{"duration":0.1094889999999964,"midi":58,"time":167.08021399999998,"velocity":0.31496062992125984},{"duration":0.1094889999999964,"midi":87,"time":167.08021399999998,"velocity":0.31496062992125984},{"duration":0.1094889999999964,"midi":79,"time":167.08021399999998,"velocity":0.31496062992125984},{"duration":0.1094889999999964,"midi":58,"time":167.18970299999998,"velocity":0.31496062992125984},{"duration":0.1094889999999964,"midi":87,"time":167.18970299999998,"velocity":0.31496062992125984},{"duration":0.1094889999999964,"midi":79,"time":167.18970299999998,"velocity":0.31496062992125984},{"duration":0.1094889999999964,"midi":58,"time":167.29919199999998,"velocity":0.31496062992125984},{"duration":0.1094889999999964,"midi":87,"time":167.29919199999998,"velocity":0.31496062992125984},{"duration":0.1094889999999964,"midi":79,"time":167.29919199999998,"velocity":0.31496062992125984},{"duration":0.1094889999999964,"midi":79,"time":167.40868099999997,"velocity":0.31496062992125984},{"duration":0.1094889999999964,"midi":87,"time":167.40868099999997,"velocity":0.31496062992125984},{"duration":0.1094889999999964,"midi":58,"time":167.40868099999997,"velocity":0.31496062992125984},{"duration":0.10948900000002482,"midi":58,"time":167.51816999999997,"velocity":0.31496062992125984},{"duration":0.10948900000002482,"midi":87,"time":167.51816999999997,"velocity":0.31496062992125984},{"duration":0.10948900000002482,"midi":79,"time":167.51816999999997,"velocity":0.31496062992125984},{"duration":0.1094889999999964,"midi":87,"time":167.627659,"velocity":0.31496062992125984},{"duration":0.1094889999999964,"midi":79,"time":167.627659,"velocity":0.31496062992125984},{"duration":0.1094889999999964,"midi":58,"time":167.627659,"velocity":0.31496062992125984},{"duration":0.1094889999999964,"midi":58,"time":167.737148,"velocity":0.31496062992125984},{"duration":0.1094889999999964,"midi":79,"time":167.737148,"velocity":0.31496062992125984},{"duration":0.1094889999999964,"midi":87,"time":167.737148,"velocity":0.31496062992125984},{"duration":0.1094889999999964,"midi":87,"time":167.846637,"velocity":0.31496062992125984},{"duration":0.1094889999999964,"midi":79,"time":167.846637,"velocity":0.31496062992125984},{"duration":0.1094889999999964,"midi":58,"time":167.846637,"velocity":0.31496062992125984},{"duration":0.1094889999999964,"midi":87,"time":167.95612599999998,"velocity":0.31496062992125984},{"duration":0.1094889999999964,"midi":79,"time":167.95612599999998,"velocity":0.31496062992125984},{"duration":0.1094889999999964,"midi":58,"time":167.95612599999998,"velocity":0.31496062992125984},{"duration":0.1094889999999964,"midi":87,"time":168.06561499999998,"velocity":0.31496062992125984},{"duration":0.1094889999999964,"midi":79,"time":168.06561499999998,"velocity":0.31496062992125984},{"duration":0.1094889999999964,"midi":58,"time":168.06561499999998,"velocity":0.31496062992125984},{"duration":0.1094889999999964,"midi":87,"time":168.17510399999998,"velocity":0.31496062992125984},{"duration":0.1094889999999964,"midi":79,"time":168.17510399999998,"velocity":0.31496062992125984},{"duration":0.1094889999999964,"midi":58,"time":168.17510399999998,"velocity":0.31496062992125984},{"duration":0.10948900000002482,"midi":79,"time":168.28459299999997,"velocity":0.31496062992125984},{"duration":0.10948900000002482,"midi":58,"time":168.28459299999997,"velocity":0.31496062992125984},{"duration":0.10948900000002482,"midi":87,"time":168.28459299999997,"velocity":0.31496062992125984},{"duration":0.1094889999999964,"midi":87,"time":168.394082,"velocity":0.31496062992125984},{"duration":0.1094889999999964,"midi":79,"time":168.394082,"velocity":0.31496062992125984},{"duration":0.1094889999999964,"midi":58,"time":168.394082,"velocity":0.31496062992125984},{"duration":0.1094889999999964,"midi":79,"time":168.503571,"velocity":0.31496062992125984},{"duration":0.1094889999999964,"midi":58,"time":168.503571,"velocity":0.31496062992125984},{"duration":0.1094889999999964,"midi":87,"time":168.503571,"velocity":0.31496062992125984},{"duration":0.1094889999999964,"midi":58,"time":168.61306,"velocity":0.31496062992125984},{"duration":0.1094889999999964,"midi":87,"time":168.61306,"velocity":0.31496062992125984},{"duration":0.1094889999999964,"midi":79,"time":168.61306,"velocity":0.31496062992125984},{"duration":0.1094889999999964,"midi":87,"time":168.722549,"velocity":0.31496062992125984},{"duration":0.1094889999999964,"midi":79,"time":168.722549,"velocity":0.31496062992125984},{"duration":0.1094889999999964,"midi":58,"time":168.722549,"velocity":0.31496062992125984},{"duration":0.1094889999999964,"midi":79,"time":168.83203799999998,"velocity":0.31496062992125984},{"duration":0.1094889999999964,"midi":87,"time":168.83203799999998,"velocity":0.31496062992125984},{"duration":0.1094889999999964,"midi":58,"time":168.83203799999998,"velocity":0.31496062992125984},{"duration":0.1094889999999964,"midi":87,"time":168.94152699999998,"velocity":0.31496062992125984},{"duration":0.1094889999999964,"midi":79,"time":168.94152699999998,"velocity":0.31496062992125984},{"duration":0.1094889999999964,"midi":58,"time":168.94152699999998,"velocity":0.31496062992125984},{"duration":0.1094889999999964,"midi":79,"time":169.05101599999998,"velocity":0.31496062992125984},{"duration":0.1094889999999964,"midi":87,"time":169.05101599999998,"velocity":0.31496062992125984},{"duration":0.1094889999999964,"midi":58,"time":169.05101599999998,"velocity":0.31496062992125984},{"duration":0.10948900000002482,"midi":87,"time":169.16050499999997,"velocity":0.31496062992125984},{"duration":0.10948900000002482,"midi":58,"time":169.16050499999997,"velocity":0.31496062992125984},{"duration":0.10948900000002482,"midi":79,"time":169.16050499999997,"velocity":0.31496062992125984},{"duration":0.1094889999999964,"midi":87,"time":169.269994,"velocity":0.31496062992125984},{"duration":0.1094889999999964,"midi":58,"time":169.269994,"velocity":0.31496062992125984},{"duration":0.1094889999999964,"midi":79,"time":169.269994,"velocity":0.31496062992125984},{"duration":0.1094889999999964,"midi":87,"time":169.379483,"velocity":0.31496062992125984},{"duration":0.1094889999999964,"midi":58,"time":169.379483,"velocity":0.31496062992125984},{"duration":0.1094889999999964,"midi":79,"time":169.379483,"velocity":0.31496062992125984},{"duration":0.1094889999999964,"midi":79,"time":169.488972,"velocity":0.31496062992125984},{"duration":0.1094889999999964,"midi":58,"time":169.488972,"velocity":0.31496062992125984},{"duration":0.1094889999999964,"midi":87,"time":169.488972,"velocity":0.31496062992125984},{"duration":0.1094889999999964,"midi":58,"time":169.598461,"velocity":0.31496062992125984},{"duration":0.1094889999999964,"midi":87,"time":169.598461,"velocity":0.31496062992125984},{"duration":0.1094889999999964,"midi":79,"time":169.598461,"velocity":0.31496062992125984},{"duration":0.1094889999999964,"midi":79,"time":169.70794999999998,"velocity":0.31496062992125984},{"duration":0.1094889999999964,"midi":58,"time":169.70794999999998,"velocity":0.31496062992125984},{"duration":0.1094889999999964,"midi":87,"time":169.70794999999998,"velocity":0.31496062992125984},{"duration":0.1094889999999964,"midi":79,"time":169.81743899999998,"velocity":0.31496062992125984},{"duration":0.1094889999999964,"midi":58,"time":169.81743899999998,"velocity":0.31496062992125984},{"duration":0.1094889999999964,"midi":87,"time":169.81743899999998,"velocity":0.31496062992125984},{"duration":0.1094889999999964,"midi":79,"time":169.92692799999998,"velocity":0.31496062992125984},{"duration":0.1094889999999964,"midi":87,"time":169.92692799999998,"velocity":0.31496062992125984},{"duration":0.1094889999999964,"midi":58,"time":169.92692799999998,"velocity":0.31496062992125984},{"duration":0.10948900000002482,"midi":58,"time":170.03641699999997,"velocity":0.31496062992125984},{"duration":0.10948900000002482,"midi":79,"time":170.03641699999997,"velocity":0.31496062992125984},{"duration":0.10948900000002482,"midi":87,"time":170.03641699999997,"velocity":0.31496062992125984},{"duration":0.1094889999999964,"midi":87,"time":170.145906,"velocity":0.31496062992125984},{"duration":0.1094889999999964,"midi":79,"time":170.145906,"velocity":0.31496062992125984},{"duration":0.1094889999999964,"midi":58,"time":170.145906,"velocity":0.31496062992125984},{"duration":0.1094889999999964,"midi":79,"time":170.255395,"velocity":0.31496062992125984},{"duration":0.1094889999999964,"midi":58,"time":170.255395,"velocity":0.31496062992125984},{"duration":0.1094889999999964,"midi":87,"time":170.255395,"velocity":0.31496062992125984},{"duration":0.1094889999999964,"midi":58,"time":170.364884,"velocity":0.31496062992125984},{"duration":0.1094889999999964,"midi":87,"time":170.364884,"velocity":0.31496062992125984},{"duration":0.1094889999999964,"midi":79,"time":170.364884,"velocity":0.31496062992125984},{"duration":0.1094889999999964,"midi":58,"time":170.47437299999999,"velocity":0.31496062992125984},{"duration":0.1094889999999964,"midi":87,"time":170.47437299999999,"velocity":0.31496062992125984},{"duration":0.1094889999999964,"midi":79,"time":170.47437299999999,"velocity":0.31496062992125984},{"duration":0.1094889999999964,"midi":79,"time":170.58386199999998,"velocity":0.31496062992125984},{"duration":0.1094889999999964,"midi":58,"time":170.58386199999998,"velocity":0.31496062992125984},{"duration":0.1094889999999964,"midi":87,"time":170.58386199999998,"velocity":0.31496062992125984},{"duration":0.1094889999999964,"midi":58,"time":170.69335099999998,"velocity":0.31496062992125984},{"duration":0.1094889999999964,"midi":87,"time":170.69335099999998,"velocity":0.31496062992125984},{"duration":0.1094889999999964,"midi":79,"time":170.69335099999998,"velocity":0.31496062992125984},{"duration":0.1094889999999964,"midi":87,"time":170.80283999999997,"velocity":0.31496062992125984},{"duration":0.1094889999999964,"midi":79,"time":170.80283999999997,"velocity":0.31496062992125984},{"duration":0.1094889999999964,"midi":58,"time":170.80283999999997,"velocity":0.31496062992125984},{"duration":0.10948900000002482,"midi":87,"time":170.91232899999997,"velocity":0.31496062992125984},{"duration":0.10948900000002482,"midi":58,"time":170.91232899999997,"velocity":0.31496062992125984},{"duration":0.10948900000002482,"midi":79,"time":170.91232899999997,"velocity":0.31496062992125984},{"duration":0.1094889999999964,"midi":79,"time":171.021818,"velocity":0.31496062992125984},{"duration":0.1094889999999964,"midi":87,"time":171.021818,"velocity":0.31496062992125984},{"duration":0.1094889999999964,"midi":58,"time":171.021818,"velocity":0.31496062992125984},{"duration":0.1094889999999964,"midi":87,"time":171.131307,"velocity":0.31496062992125984},{"duration":0.1094889999999964,"midi":58,"time":171.131307,"velocity":0.31496062992125984},{"duration":0.1094889999999964,"midi":79,"time":171.131307,"velocity":0.31496062992125984},{"duration":0.1094889999999964,"midi":79,"time":171.240796,"velocity":0.31496062992125984},{"duration":0.1094889999999964,"midi":58,"time":171.240796,"velocity":0.31496062992125984},{"duration":0.1094889999999964,"midi":87,"time":171.240796,"velocity":0.31496062992125984},{"duration":0.1094889999999964,"midi":87,"time":171.35028499999999,"velocity":0.31496062992125984},{"duration":0.1094889999999964,"midi":79,"time":171.35028499999999,"velocity":0.31496062992125984},{"duration":0.1094889999999964,"midi":58,"time":171.35028499999999,"velocity":0.31496062992125984},{"duration":0.1094889999999964,"midi":58,"time":171.45977399999998,"velocity":0.31496062992125984},{"duration":0.1094889999999964,"midi":87,"time":171.45977399999998,"velocity":0.31496062992125984},{"duration":0.1094889999999964,"midi":79,"time":171.45977399999998,"velocity":0.31496062992125984},{"duration":0.1094889999999964,"midi":79,"time":171.56926299999998,"velocity":0.31496062992125984},{"duration":0.1094889999999964,"midi":58,"time":171.56926299999998,"velocity":0.31496062992125984},{"duration":0.1094889999999964,"midi":87,"time":171.56926299999998,"velocity":0.31496062992125984},{"duration":0.1094889999999964,"midi":79,"time":171.67875199999997,"velocity":0.31496062992125984},{"duration":0.1094889999999964,"midi":87,"time":171.67875199999997,"velocity":0.31496062992125984},{"duration":0.1094889999999964,"midi":58,"time":171.67875199999997,"velocity":0.31496062992125984},{"duration":0.10948900000002482,"midi":58,"time":171.78824099999997,"velocity":0.31496062992125984},{"duration":0.10948900000002482,"midi":87,"time":171.78824099999997,"velocity":0.31496062992125984},{"duration":0.10948900000002482,"midi":79,"time":171.78824099999997,"velocity":0.31496062992125984},{"duration":0.1094889999999964,"midi":79,"time":171.89773,"velocity":0.31496062992125984},{"duration":0.1094889999999964,"midi":58,"time":171.89773,"velocity":0.31496062992125984},{"duration":0.1094889999999964,"midi":87,"time":171.89773,"velocity":0.31496062992125984},{"duration":0.1094889999999964,"midi":79,"time":172.007219,"velocity":0.31496062992125984},{"duration":0.1094889999999964,"midi":58,"time":172.007219,"velocity":0.31496062992125984},{"duration":0.1094889999999964,"midi":87,"time":172.007219,"velocity":0.31496062992125984},{"duration":0.1094889999999964,"midi":79,"time":172.116708,"velocity":0.31496062992125984},{"duration":0.1094889999999964,"midi":58,"time":172.116708,"velocity":0.31496062992125984},{"duration":0.1094889999999964,"midi":87,"time":172.116708,"velocity":0.31496062992125984},{"duration":0.1094889999999964,"midi":79,"time":172.22619699999998,"velocity":0.31496062992125984},{"duration":0.1094889999999964,"midi":87,"time":172.22619699999998,"velocity":0.31496062992125984},{"duration":0.1094889999999964,"midi":58,"time":172.22619699999998,"velocity":0.31496062992125984},{"duration":0.1094889999999964,"midi":87,"time":172.33568599999998,"velocity":0.31496062992125984},{"duration":0.1094889999999964,"midi":79,"time":172.33568599999998,"velocity":0.31496062992125984},{"duration":0.1094889999999964,"midi":58,"time":172.33568599999998,"velocity":0.31496062992125984},{"duration":0.1094889999999964,"midi":79,"time":172.44517499999998,"velocity":0.31496062992125984},{"duration":0.1094889999999964,"midi":58,"time":172.44517499999998,"velocity":0.31496062992125984},{"duration":0.1094889999999964,"midi":87,"time":172.44517499999998,"velocity":0.31496062992125984},{"duration":0.1094889999999964,"midi":58,"time":172.55466399999997,"velocity":0.31496062992125984},{"duration":0.1094889999999964,"midi":87,"time":172.55466399999997,"velocity":0.31496062992125984},{"duration":0.1094889999999964,"midi":79,"time":172.55466399999997,"velocity":0.31496062992125984},{"duration":0.10948900000002482,"midi":87,"time":172.66415299999997,"velocity":0.31496062992125984},{"duration":0.10948900000002482,"midi":58,"time":172.66415299999997,"velocity":0.31496062992125984},{"duration":0.10948900000002482,"midi":79,"time":172.66415299999997,"velocity":0.31496062992125984},{"duration":0.1094889999999964,"midi":87,"time":172.773642,"velocity":0.31496062992125984},{"duration":0.1094889999999964,"midi":58,"time":172.773642,"velocity":0.31496062992125984},{"duration":0.1094889999999964,"midi":79,"time":172.773642,"velocity":0.31496062992125984},{"duration":0.1094889999999964,"midi":87,"time":172.883131,"velocity":0.31496062992125984},{"duration":0.1094889999999964,"midi":79,"time":172.883131,"velocity":0.31496062992125984},{"duration":0.1094889999999964,"midi":58,"time":172.883131,"velocity":0.31496062992125984},{"duration":0.1094889999999964,"midi":87,"time":172.99262,"velocity":0.31496062992125984},{"duration":0.1094889999999964,"midi":79,"time":172.99262,"velocity":0.31496062992125984},{"duration":0.1094889999999964,"midi":58,"time":172.99262,"velocity":0.31496062992125984},{"duration":0.1094889999999964,"midi":79,"time":173.10210899999998,"velocity":0.31496062992125984},{"duration":0.1094889999999964,"midi":58,"time":173.10210899999998,"velocity":0.31496062992125984},{"duration":0.1094889999999964,"midi":87,"time":173.10210899999998,"velocity":0.31496062992125984},{"duration":0.1094889999999964,"midi":58,"time":173.21159799999998,"velocity":0.31496062992125984},{"duration":0.1094889999999964,"midi":87,"time":173.21159799999998,"velocity":0.31496062992125984},{"duration":0.1094889999999964,"midi":79,"time":173.21159799999998,"velocity":0.31496062992125984},{"duration":0.1094889999999964,"midi":58,"time":173.32108699999998,"velocity":0.31496062992125984},{"duration":0.1094889999999964,"midi":79,"time":173.32108699999998,"velocity":0.31496062992125984},{"duration":0.1094889999999964,"midi":87,"time":173.32108699999998,"velocity":0.31496062992125984},{"duration":0.1094889999999964,"midi":79,"time":173.43057599999997,"velocity":0.31496062992125984},{"duration":0.1094889999999964,"midi":87,"time":173.43057599999997,"velocity":0.31496062992125984},{"duration":0.1094889999999964,"midi":58,"time":173.43057599999997,"velocity":0.31496062992125984},{"duration":0.10948900000002482,"midi":87,"time":173.54006499999997,"velocity":0.31496062992125984},{"duration":0.10948900000002482,"midi":79,"time":173.54006499999997,"velocity":0.31496062992125984},{"duration":0.10948900000002482,"midi":58,"time":173.54006499999997,"velocity":0.31496062992125984},{"duration":0.1094889999999964,"midi":79,"time":173.649554,"velocity":0.31496062992125984},{"duration":0.1094889999999964,"midi":87,"time":173.649554,"velocity":0.31496062992125984},{"duration":0.1094889999999964,"midi":58,"time":173.649554,"velocity":0.31496062992125984},{"duration":0.1094889999999964,"midi":87,"time":173.759043,"velocity":0.31496062992125984},{"duration":0.1094889999999964,"midi":79,"time":173.759043,"velocity":0.31496062992125984},{"duration":0.1094889999999964,"midi":58,"time":173.759043,"velocity":0.31496062992125984},{"duration":0.1094889999999964,"midi":87,"time":173.868532,"velocity":0.31496062992125984},{"duration":0.1094889999999964,"midi":79,"time":173.868532,"velocity":0.31496062992125984},{"duration":0.1094889999999964,"midi":58,"time":173.868532,"velocity":0.31496062992125984},{"duration":0.1094889999999964,"midi":58,"time":173.97802099999998,"velocity":0.31496062992125984},{"duration":0.1094889999999964,"midi":79,"time":173.97802099999998,"velocity":0.31496062992125984},{"duration":0.1094889999999964,"midi":87,"time":173.97802099999998,"velocity":0.31496062992125984},{"duration":0.1094889999999964,"midi":58,"time":174.08750999999998,"velocity":0.31496062992125984},{"duration":0.1094889999999964,"midi":87,"time":174.08750999999998,"velocity":0.31496062992125984},{"duration":0.1094889999999964,"midi":79,"time":174.08750999999998,"velocity":0.31496062992125984},{"duration":0.1094889999999964,"midi":87,"time":174.19699899999998,"velocity":0.31496062992125984},{"duration":0.1094889999999964,"midi":79,"time":174.19699899999998,"velocity":0.31496062992125984},{"duration":0.1094889999999964,"midi":58,"time":174.19699899999998,"velocity":0.31496062992125984},{"duration":0.1094889999999964,"midi":58,"time":174.30648799999997,"velocity":0.31496062992125984},{"duration":0.1094889999999964,"midi":87,"time":174.30648799999997,"velocity":0.31496062992125984},{"duration":0.1094889999999964,"midi":79,"time":174.30648799999997,"velocity":0.31496062992125984},{"duration":0.10948900000002482,"midi":87,"time":174.41597699999997,"velocity":0.31496062992125984},{"duration":0.10948900000002482,"midi":58,"time":174.41597699999997,"velocity":0.31496062992125984},{"duration":0.10948900000002482,"midi":79,"time":174.41597699999997,"velocity":0.31496062992125984},{"duration":0.1094889999999964,"midi":87,"time":174.525466,"velocity":0.31496062992125984},{"duration":0.1094889999999964,"midi":58,"time":174.525466,"velocity":0.31496062992125984},{"duration":0.1094889999999964,"midi":79,"time":174.525466,"velocity":0.31496062992125984},{"duration":0.1094889999999964,"midi":87,"time":174.634955,"velocity":0.31496062992125984},{"duration":0.1094889999999964,"midi":79,"time":174.634955,"velocity":0.31496062992125984},{"duration":0.1094889999999964,"midi":58,"time":174.634955,"velocity":0.31496062992125984},{"duration":0.1094889999999964,"midi":79,"time":174.744444,"velocity":0.31496062992125984},{"duration":0.1094889999999964,"midi":58,"time":174.744444,"velocity":0.31496062992125984},{"duration":0.1094889999999964,"midi":87,"time":174.744444,"velocity":0.31496062992125984},{"duration":0.1094889999999964,"midi":87,"time":174.85393299999998,"velocity":0.31496062992125984},{"duration":0.1094889999999964,"midi":79,"time":174.85393299999998,"velocity":0.31496062992125984},{"duration":0.1094889999999964,"midi":58,"time":174.85393299999998,"velocity":0.31496062992125984},{"duration":0.1094889999999964,"midi":58,"time":174.96342199999998,"velocity":0.31496062992125984},{"duration":0.1094889999999964,"midi":87,"time":174.96342199999998,"velocity":0.31496062992125984},{"duration":0.1094889999999964,"midi":79,"time":174.96342199999998,"velocity":0.31496062992125984},{"duration":0.1094889999999964,"midi":79,"time":175.07291099999998,"velocity":0.31496062992125984},{"duration":0.1094889999999964,"midi":58,"time":175.07291099999998,"velocity":0.31496062992125984},{"duration":0.1094889999999964,"midi":87,"time":175.07291099999998,"velocity":0.31496062992125984},{"duration":0.1094889999999964,"midi":58,"time":175.18239999999997,"velocity":0.31496062992125984},{"duration":0.1094889999999964,"midi":87,"time":175.18239999999997,"velocity":0.31496062992125984},{"duration":0.1094889999999964,"midi":79,"time":175.18239999999997,"velocity":0.31496062992125984},{"duration":0.10948900000002482,"midi":79,"time":175.29188899999997,"velocity":0.31496062992125984},{"duration":0.10948900000002482,"midi":58,"time":175.29188899999997,"velocity":0.31496062992125984},{"duration":0.10948900000002482,"midi":87,"time":175.29188899999997,"velocity":0.31496062992125984},{"duration":0.1094889999999964,"midi":58,"time":175.401378,"velocity":0.31496062992125984},{"duration":0.1094889999999964,"midi":87,"time":175.401378,"velocity":0.31496062992125984},{"duration":0.1094889999999964,"midi":79,"time":175.401378,"velocity":0.31496062992125984},{"duration":0.1094889999999964,"midi":58,"time":175.510867,"velocity":0.31496062992125984},{"duration":0.1094889999999964,"midi":79,"time":175.510867,"velocity":0.31496062992125984},{"duration":0.1094889999999964,"midi":87,"time":175.510867,"velocity":0.31496062992125984},{"duration":0.1094889999999964,"midi":58,"time":175.620356,"velocity":0.31496062992125984},{"duration":0.1094889999999964,"midi":79,"time":175.620356,"velocity":0.31496062992125984},{"duration":0.1094889999999964,"midi":87,"time":175.620356,"velocity":0.31496062992125984},{"duration":0.1094889999999964,"midi":87,"time":175.72984499999998,"velocity":0.31496062992125984},{"duration":0.1094889999999964,"midi":79,"time":175.72984499999998,"velocity":0.31496062992125984},{"duration":0.1094889999999964,"midi":58,"time":175.72984499999998,"velocity":0.31496062992125984},{"duration":0.1094889999999964,"midi":79,"time":175.83933399999998,"velocity":0.31496062992125984},{"duration":0.1094889999999964,"midi":58,"time":175.83933399999998,"velocity":0.31496062992125984},{"duration":0.1094889999999964,"midi":87,"time":175.83933399999998,"velocity":0.31496062992125984},{"duration":0.1094889999999964,"midi":79,"time":175.94882299999998,"velocity":0.31496062992125984},{"duration":0.1094889999999964,"midi":87,"time":175.94882299999998,"velocity":0.31496062992125984},{"duration":0.1094889999999964,"midi":58,"time":175.94882299999998,"velocity":0.31496062992125984},{"duration":0.1094889999999964,"midi":87,"time":176.05831199999997,"velocity":0.31496062992125984},{"duration":0.1094889999999964,"midi":79,"time":176.05831199999997,"velocity":0.31496062992125984},{"duration":0.1094889999999964,"midi":58,"time":176.05831199999997,"velocity":0.31496062992125984},{"duration":0.10948900000002482,"midi":87,"time":176.16780099999997,"velocity":0.31496062992125984},{"duration":0.10948900000002482,"midi":58,"time":176.16780099999997,"velocity":0.31496062992125984},{"duration":0.10948900000002482,"midi":79,"time":176.16780099999997,"velocity":0.31496062992125984},{"duration":0.1094889999999964,"midi":87,"time":176.27729,"velocity":0.31496062992125984},{"duration":0.1094889999999964,"midi":79,"time":176.27729,"velocity":0.31496062992125984},{"duration":0.1094889999999964,"midi":58,"time":176.27729,"velocity":0.31496062992125984},{"duration":0.1094889999999964,"midi":58,"time":176.386779,"velocity":0.31496062992125984},{"duration":0.1094889999999964,"midi":87,"time":176.386779,"velocity":0.31496062992125984},{"duration":0.1094889999999964,"midi":79,"time":176.386779,"velocity":0.31496062992125984},{"duration":0.1094889999999964,"midi":58,"time":176.496268,"velocity":0.31496062992125984},{"duration":0.1094889999999964,"midi":87,"time":176.496268,"velocity":0.31496062992125984},{"duration":0.1094889999999964,"midi":79,"time":176.496268,"velocity":0.31496062992125984},{"duration":0.1094889999999964,"midi":58,"time":176.60575699999998,"velocity":0.31496062992125984},{"duration":0.1094889999999964,"midi":79,"time":176.60575699999998,"velocity":0.31496062992125984},{"duration":0.1094889999999964,"midi":87,"time":176.60575699999998,"velocity":0.31496062992125984},{"duration":0.1094889999999964,"midi":87,"time":176.71524599999998,"velocity":0.31496062992125984},{"duration":0.1094889999999964,"midi":79,"time":176.71524599999998,"velocity":0.31496062992125984},{"duration":0.1094889999999964,"midi":58,"time":176.71524599999998,"velocity":0.31496062992125984},{"duration":0.1094889999999964,"midi":58,"time":176.82473499999998,"velocity":0.31496062992125984},{"duration":0.1094889999999964,"midi":79,"time":176.82473499999998,"velocity":0.31496062992125984},{"duration":0.1094889999999964,"midi":87,"time":176.82473499999998,"velocity":0.31496062992125984},{"duration":0.1094889999999964,"midi":79,"time":176.93422399999997,"velocity":0.31496062992125984},{"duration":0.1094889999999964,"midi":87,"time":176.93422399999997,"velocity":0.31496062992125984},{"duration":0.1094889999999964,"midi":58,"time":176.93422399999997,"velocity":0.31496062992125984},{"duration":0.10948900000002482,"midi":79,"time":177.04371299999997,"velocity":0.31496062992125984},{"duration":0.10948900000002482,"midi":87,"time":177.04371299999997,"velocity":0.31496062992125984},{"duration":0.10948900000002482,"midi":58,"time":177.04371299999997,"velocity":0.31496062992125984},{"duration":0.1094889999999964,"midi":87,"time":177.153202,"velocity":0.31496062992125984},{"duration":0.1094889999999964,"midi":79,"time":177.153202,"velocity":0.31496062992125984},{"duration":0.1094889999999964,"midi":58,"time":177.153202,"velocity":0.31496062992125984},{"duration":0.1094889999999964,"midi":87,"time":177.262691,"velocity":0.31496062992125984},{"duration":0.1094889999999964,"midi":79,"time":177.262691,"velocity":0.31496062992125984},{"duration":0.1094889999999964,"midi":58,"time":177.262691,"velocity":0.31496062992125984},{"duration":0.1094889999999964,"midi":87,"time":177.37218,"velocity":0.31496062992125984},{"duration":0.1094889999999964,"midi":58,"time":177.37218,"velocity":0.31496062992125984},{"duration":0.1094889999999964,"midi":79,"time":177.37218,"velocity":0.31496062992125984},{"duration":0.1094889999999964,"midi":87,"time":177.48166899999998,"velocity":0.31496062992125984},{"duration":0.1094889999999964,"midi":58,"time":177.48166899999998,"velocity":0.31496062992125984},{"duration":0.1094889999999964,"midi":79,"time":177.48166899999998,"velocity":0.31496062992125984},{"duration":0.1094889999999964,"midi":87,"time":177.59115799999998,"velocity":0.31496062992125984},{"duration":0.1094889999999964,"midi":58,"time":177.59115799999998,"velocity":0.31496062992125984},{"duration":0.1094889999999964,"midi":79,"time":177.59115799999998,"velocity":0.31496062992125984},{"duration":0.1094889999999964,"midi":79,"time":177.70064699999998,"velocity":0.31496062992125984},{"duration":0.1094889999999964,"midi":87,"time":177.70064699999998,"velocity":0.31496062992125984},{"duration":0.1094889999999964,"midi":58,"time":177.70064699999998,"velocity":0.31496062992125984},{"duration":0.10948900000002482,"midi":79,"time":177.81013599999997,"velocity":0.31496062992125984},{"duration":0.10948900000002482,"midi":87,"time":177.81013599999997,"velocity":0.31496062992125984},{"duration":0.10948900000002482,"midi":58,"time":177.81013599999997,"velocity":0.31496062992125984},{"duration":0.1094889999999964,"midi":79,"time":177.919625,"velocity":0.31496062992125984},{"duration":0.1094889999999964,"midi":87,"time":177.919625,"velocity":0.31496062992125984},{"duration":0.1094889999999964,"midi":58,"time":177.919625,"velocity":0.31496062992125984},{"duration":0.1094889999999964,"midi":58,"time":178.029114,"velocity":0.31496062992125984},{"duration":0.1094889999999964,"midi":79,"time":178.029114,"velocity":0.31496062992125984},{"duration":0.1094889999999964,"midi":87,"time":178.029114,"velocity":0.31496062992125984},{"duration":0.1094889999999964,"midi":58,"time":178.138603,"velocity":0.31496062992125984},{"duration":0.1094889999999964,"midi":79,"time":178.138603,"velocity":0.31496062992125984},{"duration":0.1094889999999964,"midi":87,"time":178.138603,"velocity":0.31496062992125984},{"duration":0.1094889999999964,"midi":87,"time":178.24809199999999,"velocity":0.31496062992125984},{"duration":0.1094889999999964,"midi":79,"time":178.24809199999999,"velocity":0.31496062992125984},{"duration":0.1094889999999964,"midi":58,"time":178.24809199999999,"velocity":0.31496062992125984},{"duration":0.1094889999999964,"midi":87,"time":178.35758099999998,"velocity":0.31496062992125984},{"duration":0.1094889999999964,"midi":79,"time":178.35758099999998,"velocity":0.31496062992125984},{"duration":0.1094889999999964,"midi":58,"time":178.35758099999998,"velocity":0.31496062992125984},{"duration":0.1094889999999964,"midi":58,"time":178.46706999999998,"velocity":0.31496062992125984},{"duration":0.1094889999999964,"midi":79,"time":178.46706999999998,"velocity":0.31496062992125984},{"duration":0.1094889999999964,"midi":87,"time":178.46706999999998,"velocity":0.31496062992125984},{"duration":0.1094889999999964,"midi":79,"time":178.57655899999997,"velocity":0.31496062992125984},{"duration":0.1094889999999964,"midi":58,"time":178.57655899999997,"velocity":0.31496062992125984},{"duration":0.1094889999999964,"midi":87,"time":178.57655899999997,"velocity":0.31496062992125984},{"duration":0.10948900000002482,"midi":87,"time":178.68604799999997,"velocity":0.31496062992125984},{"duration":0.10948900000002482,"midi":79,"time":178.68604799999997,"velocity":0.31496062992125984},{"duration":0.10948900000002482,"midi":58,"time":178.68604799999997,"velocity":0.31496062992125984},{"duration":0.1094889999999964,"midi":58,"time":178.795537,"velocity":0.31496062992125984},{"duration":0.1094889999999964,"midi":87,"time":178.795537,"velocity":0.31496062992125984},{"duration":0.1094889999999964,"midi":79,"time":178.795537,"velocity":0.31496062992125984},{"duration":0.1094889999999964,"midi":79,"time":178.905026,"velocity":0.31496062992125984},{"duration":0.1094889999999964,"midi":58,"time":178.905026,"velocity":0.31496062992125984},{"duration":0.1094889999999964,"midi":87,"time":178.905026,"velocity":0.31496062992125984},{"duration":0.1094889999999964,"midi":79,"time":179.014515,"velocity":0.31496062992125984},{"duration":0.1094889999999964,"midi":58,"time":179.014515,"velocity":0.31496062992125984},{"duration":0.1094889999999964,"midi":87,"time":179.014515,"velocity":0.31496062992125984},{"duration":0.1094889999999964,"midi":58,"time":179.12400399999999,"velocity":0.31496062992125984},{"duration":0.1094889999999964,"midi":79,"time":179.12400399999999,"velocity":0.31496062992125984},{"duration":0.1094889999999964,"midi":87,"time":179.12400399999999,"velocity":0.31496062992125984},{"duration":0.1094889999999964,"midi":79,"time":179.23349299999998,"velocity":0.31496062992125984},{"duration":0.1094889999999964,"midi":58,"time":179.23349299999998,"velocity":0.31496062992125984},{"duration":0.1094889999999964,"midi":87,"time":179.23349299999998,"velocity":0.31496062992125984},{"duration":0.1094889999999964,"midi":79,"time":179.34298199999998,"velocity":0.31496062992125984},{"duration":0.1094889999999964,"midi":58,"time":179.34298199999998,"velocity":0.31496062992125984},{"duration":0.1094889999999964,"midi":87,"time":179.34298199999998,"velocity":0.31496062992125984},{"duration":0.1094889999999964,"midi":87,"time":179.45247099999997,"velocity":0.31496062992125984},{"duration":0.1094889999999964,"midi":79,"time":179.45247099999997,"velocity":0.31496062992125984},{"duration":0.1094889999999964,"midi":58,"time":179.45247099999997,"velocity":0.31496062992125984},{"duration":0.10948900000002482,"midi":87,"time":179.56195999999997,"velocity":0.31496062992125984},{"duration":0.10948900000002482,"midi":58,"time":179.56195999999997,"velocity":0.31496062992125984},{"duration":0.10948900000002482,"midi":79,"time":179.56195999999997,"velocity":0.31496062992125984},{"duration":0.1094889999999964,"midi":58,"time":179.671449,"velocity":0.31496062992125984},{"duration":0.1094889999999964,"midi":79,"time":179.671449,"velocity":0.31496062992125984},{"duration":0.1094889999999964,"midi":87,"time":179.671449,"velocity":0.31496062992125984},{"duration":0.1094889999999964,"midi":87,"time":179.780938,"velocity":0.31496062992125984},{"duration":0.1094889999999964,"midi":79,"time":179.780938,"velocity":0.31496062992125984},{"duration":0.1094889999999964,"midi":58,"time":179.780938,"velocity":0.31496062992125984},{"duration":0.1094889999999964,"midi":87,"time":179.890427,"velocity":0.31496062992125984},{"duration":0.1094889999999964,"midi":79,"time":179.890427,"velocity":0.31496062992125984},{"duration":0.1094889999999964,"midi":58,"time":179.890427,"velocity":0.31496062992125984},{"duration":0.1094889999999964,"midi":87,"time":179.99991599999998,"velocity":0.31496062992125984},{"duration":0.1094889999999964,"midi":79,"time":179.99991599999998,"velocity":0.31496062992125984},{"duration":0.1094889999999964,"midi":58,"time":179.99991599999998,"velocity":0.31496062992125984},{"duration":0.1094889999999964,"midi":87,"time":180.10940499999998,"velocity":0.31496062992125984},{"duration":0.1094889999999964,"midi":79,"time":180.10940499999998,"velocity":0.31496062992125984},{"duration":0.1094889999999964,"midi":58,"time":180.10940499999998,"velocity":0.31496062992125984},{"duration":0.1094889999999964,"midi":87,"time":180.21889399999998,"velocity":0.31496062992125984},{"duration":0.1094889999999964,"midi":58,"time":180.21889399999998,"velocity":0.31496062992125984},{"duration":0.1094889999999964,"midi":79,"time":180.21889399999998,"velocity":0.31496062992125984},{"duration":0.1094889999999964,"midi":87,"time":180.32838299999997,"velocity":0.31496062992125984},{"duration":0.1094889999999964,"midi":79,"time":180.32838299999997,"velocity":0.31496062992125984},{"duration":0.1094889999999964,"midi":58,"time":180.32838299999997,"velocity":0.31496062992125984},{"duration":0.10948900000002482,"midi":87,"time":180.43787199999997,"velocity":0.31496062992125984},{"duration":0.10948900000002482,"midi":79,"time":180.43787199999997,"velocity":0.31496062992125984},{"duration":0.10948900000002482,"midi":58,"time":180.43787199999997,"velocity":0.31496062992125984},{"duration":0.1094889999999964,"midi":79,"time":180.547361,"velocity":0.31496062992125984},{"duration":0.1094889999999964,"midi":87,"time":180.547361,"velocity":0.31496062992125984},{"duration":0.1094889999999964,"midi":58,"time":180.547361,"velocity":0.31496062992125984},{"duration":0.1094889999999964,"midi":79,"time":180.65685,"velocity":0.31496062992125984},{"duration":0.1094889999999964,"midi":58,"time":180.65685,"velocity":0.31496062992125984},{"duration":0.1094889999999964,"midi":87,"time":180.65685,"velocity":0.31496062992125984},{"duration":0.1094889999999964,"midi":87,"time":180.766339,"velocity":0.31496062992125984},{"duration":0.1094889999999964,"midi":79,"time":180.766339,"velocity":0.31496062992125984},{"duration":0.1094889999999964,"midi":58,"time":180.766339,"velocity":0.31496062992125984},{"duration":0.1094889999999964,"midi":58,"time":180.87582799999998,"velocity":0.31496062992125984},{"duration":0.1094889999999964,"midi":87,"time":180.87582799999998,"velocity":0.31496062992125984},{"duration":0.1094889999999964,"midi":79,"time":180.87582799999998,"velocity":0.31496062992125984},{"duration":0.1094889999999964,"midi":79,"time":180.98531699999998,"velocity":0.31496062992125984},{"duration":0.1094889999999964,"midi":58,"time":180.98531699999998,"velocity":0.31496062992125984},{"duration":0.1094889999999964,"midi":87,"time":180.98531699999998,"velocity":0.31496062992125984},{"duration":0.1094889999999964,"midi":87,"time":181.09480599999998,"velocity":0.31496062992125984},{"duration":0.1094889999999964,"midi":58,"time":181.09480599999998,"velocity":0.31496062992125984},{"duration":0.1094889999999964,"midi":79,"time":181.09480599999998,"velocity":0.31496062992125984},{"duration":0.1094889999999964,"midi":87,"time":181.20429499999997,"velocity":0.31496062992125984},{"duration":0.1094889999999964,"midi":58,"time":181.20429499999997,"velocity":0.31496062992125984},{"duration":0.1094889999999964,"midi":79,"time":181.20429499999997,"velocity":0.31496062992125984},{"duration":0.10948900000002482,"midi":79,"time":181.31378399999997,"velocity":0.31496062992125984},{"duration":0.10948900000002482,"midi":87,"time":181.31378399999997,"velocity":0.31496062992125984},{"duration":0.10948900000002482,"midi":58,"time":181.31378399999997,"velocity":0.31496062992125984},{"duration":0.1094889999999964,"midi":87,"time":181.423273,"velocity":0.31496062992125984},{"duration":0.1094889999999964,"midi":79,"time":181.423273,"velocity":0.31496062992125984},{"duration":0.1094889999999964,"midi":58,"time":181.423273,"velocity":0.31496062992125984},{"duration":0.1094889999999964,"midi":79,"time":181.532762,"velocity":0.31496062992125984},{"duration":0.1094889999999964,"midi":87,"time":181.532762,"velocity":0.31496062992125984},{"duration":0.1094889999999964,"midi":58,"time":181.532762,"velocity":0.31496062992125984},{"duration":0.1094889999999964,"midi":87,"time":181.642251,"velocity":0.31496062992125984},{"duration":0.1094889999999964,"midi":58,"time":181.642251,"velocity":0.31496062992125984},{"duration":0.1094889999999964,"midi":79,"time":181.642251,"velocity":0.31496062992125984},{"duration":0.1094889999999964,"midi":87,"time":181.75173999999998,"velocity":0.31496062992125984},{"duration":0.1094889999999964,"midi":79,"time":181.75173999999998,"velocity":0.31496062992125984},{"duration":0.1094889999999964,"midi":58,"time":181.75173999999998,"velocity":0.31496062992125984},{"duration":0.1094889999999964,"midi":87,"time":181.86122899999998,"velocity":0.31496062992125984},{"duration":0.1094889999999964,"midi":79,"time":181.86122899999998,"velocity":0.31496062992125984},{"duration":0.1094889999999964,"midi":58,"time":181.86122899999998,"velocity":0.31496062992125984},{"duration":0.1094889999999964,"midi":79,"time":181.97071799999998,"velocity":0.31496062992125984},{"duration":0.1094889999999964,"midi":58,"time":181.97071799999998,"velocity":0.31496062992125984},{"duration":0.1094889999999964,"midi":87,"time":181.97071799999998,"velocity":0.31496062992125984},{"duration":0.1094889999999964,"midi":87,"time":182.08020699999997,"velocity":0.31496062992125984},{"duration":0.1094889999999964,"midi":79,"time":182.08020699999997,"velocity":0.31496062992125984},{"duration":0.1094889999999964,"midi":58,"time":182.08020699999997,"velocity":0.31496062992125984},{"duration":0.10948900000002482,"midi":79,"time":182.18969599999997,"velocity":0.31496062992125984},{"duration":0.10948900000002482,"midi":58,"time":182.18969599999997,"velocity":0.31496062992125984},{"duration":0.10948900000002482,"midi":87,"time":182.18969599999997,"velocity":0.31496062992125984},{"duration":0.1094889999999964,"midi":87,"time":182.299185,"velocity":0.31496062992125984},{"duration":0.1094889999999964,"midi":58,"time":182.299185,"velocity":0.31496062992125984},{"duration":0.1094889999999964,"midi":79,"time":182.299185,"velocity":0.31496062992125984},{"duration":0.1094889999999964,"midi":58,"time":182.408674,"velocity":0.31496062992125984},{"duration":0.1094889999999964,"midi":87,"time":182.408674,"velocity":0.31496062992125984},{"duration":0.1094889999999964,"midi":79,"time":182.408674,"velocity":0.31496062992125984},{"duration":0.1094889999999964,"midi":79,"time":182.518163,"velocity":0.31496062992125984},{"duration":0.1094889999999964,"midi":87,"time":182.518163,"velocity":0.31496062992125984},{"duration":0.1094889999999964,"midi":58,"time":182.518163,"velocity":0.31496062992125984},{"duration":0.1094889999999964,"midi":79,"time":182.62765199999998,"velocity":0.31496062992125984},{"duration":0.1094889999999964,"midi":58,"time":182.62765199999998,"velocity":0.31496062992125984},{"duration":0.1094889999999964,"midi":87,"time":182.62765199999998,"velocity":0.31496062992125984},{"duration":0.1094889999999964,"midi":87,"time":182.73714099999998,"velocity":0.31496062992125984},{"duration":0.1094889999999964,"midi":79,"time":182.73714099999998,"velocity":0.31496062992125984},{"duration":0.1094889999999964,"midi":58,"time":182.73714099999998,"velocity":0.31496062992125984},{"duration":0.1094889999999964,"midi":87,"time":182.84662999999998,"velocity":0.31496062992125984},{"duration":0.1094889999999964,"midi":79,"time":182.84662999999998,"velocity":0.31496062992125984},{"duration":0.1094889999999964,"midi":58,"time":182.84662999999998,"velocity":0.31496062992125984},{"duration":0.1094889999999964,"midi":87,"time":182.95611899999997,"velocity":0.31496062992125984},{"duration":0.1094889999999964,"midi":79,"time":182.95611899999997,"velocity":0.31496062992125984},{"duration":0.1094889999999964,"midi":58,"time":182.95611899999997,"velocity":0.31496062992125984},{"duration":0.10948900000002482,"midi":79,"time":183.06560799999997,"velocity":0.31496062992125984},{"duration":0.10948900000002482,"midi":58,"time":183.06560799999997,"velocity":0.31496062992125984},{"duration":0.10948900000002482,"midi":87,"time":183.06560799999997,"velocity":0.31496062992125984},{"duration":0.1094889999999964,"midi":87,"time":183.175097,"velocity":0.31496062992125984},{"duration":0.1094889999999964,"midi":58,"time":183.175097,"velocity":0.31496062992125984},{"duration":0.1094889999999964,"midi":79,"time":183.175097,"velocity":0.31496062992125984},{"duration":0.1094889999999964,"midi":58,"time":183.284586,"velocity":0.31496062992125984},{"duration":0.1094889999999964,"midi":79,"time":183.284586,"velocity":0.31496062992125984},{"duration":0.1094889999999964,"midi":87,"time":183.284586,"velocity":0.31496062992125984},{"duration":0.1094889999999964,"midi":58,"time":183.394075,"velocity":0.31496062992125984},{"duration":0.1094889999999964,"midi":87,"time":183.394075,"velocity":0.31496062992125984},{"duration":0.1094889999999964,"midi":79,"time":183.394075,"velocity":0.31496062992125984},{"duration":0.1094889999999964,"midi":87,"time":183.50356399999998,"velocity":0.31496062992125984},{"duration":0.1094889999999964,"midi":79,"time":183.50356399999998,"velocity":0.31496062992125984},{"duration":0.1094889999999964,"midi":58,"time":183.50356399999998,"velocity":0.31496062992125984},{"duration":0.1094889999999964,"midi":58,"time":183.61305299999998,"velocity":0.31496062992125984},{"duration":0.1094889999999964,"midi":79,"time":183.61305299999998,"velocity":0.31496062992125984},{"duration":0.1094889999999964,"midi":87,"time":183.61305299999998,"velocity":0.31496062992125984},{"duration":0.1094889999999964,"midi":87,"time":183.72254199999998,"velocity":0.31496062992125984},{"duration":0.1094889999999964,"midi":79,"time":183.72254199999998,"velocity":0.31496062992125984},{"duration":0.1094889999999964,"midi":58,"time":183.72254199999998,"velocity":0.31496062992125984},{"duration":0.1094889999999964,"midi":87,"time":183.83203099999997,"velocity":0.31496062992125984},{"duration":0.1094889999999964,"midi":79,"time":183.83203099999997,"velocity":0.31496062992125984},{"duration":0.1094889999999964,"midi":58,"time":183.83203099999997,"velocity":0.31496062992125984},{"duration":0.10948900000002482,"midi":79,"time":183.94151999999997,"velocity":0.31496062992125984},{"duration":0.10948900000002482,"midi":87,"time":183.94151999999997,"velocity":0.31496062992125984},{"duration":0.10948900000002482,"midi":58,"time":183.94151999999997,"velocity":0.31496062992125984},{"duration":0.1094889999999964,"midi":87,"time":184.051009,"velocity":0.31496062992125984},{"duration":0.1094889999999964,"midi":79,"time":184.051009,"velocity":0.31496062992125984},{"duration":0.1094889999999964,"midi":58,"time":184.051009,"velocity":0.31496062992125984},{"duration":0.1094889999999964,"midi":79,"time":184.160498,"velocity":0.31496062992125984},{"duration":0.1094889999999964,"midi":58,"time":184.160498,"velocity":0.31496062992125984},{"duration":0.1094889999999964,"midi":87,"time":184.160498,"velocity":0.31496062992125984},{"duration":0.1094889999999964,"midi":58,"time":184.269987,"velocity":0.31496062992125984},{"duration":0.1094889999999964,"midi":87,"time":184.269987,"velocity":0.31496062992125984},{"duration":0.1094889999999964,"midi":79,"time":184.269987,"velocity":0.31496062992125984},{"duration":0.1094889999999964,"midi":87,"time":184.37947599999998,"velocity":0.31496062992125984},{"duration":0.1094889999999964,"midi":79,"time":184.37947599999998,"velocity":0.31496062992125984},{"duration":0.1094889999999964,"midi":58,"time":184.37947599999998,"velocity":0.31496062992125984},{"duration":0.1094889999999964,"midi":58,"time":184.48896499999998,"velocity":0.31496062992125984},{"duration":0.1094889999999964,"midi":87,"time":184.48896499999998,"velocity":0.31496062992125984},{"duration":0.1094889999999964,"midi":79,"time":184.48896499999998,"velocity":0.31496062992125984},{"duration":0.1094889999999964,"midi":87,"time":184.59845399999998,"velocity":0.31496062992125984},{"duration":0.1094889999999964,"midi":79,"time":184.59845399999998,"velocity":0.31496062992125984},{"duration":0.1094889999999964,"midi":58,"time":184.59845399999998,"velocity":0.31496062992125984},{"duration":0.1094889999999964,"midi":58,"time":184.70794299999997,"velocity":0.31496062992125984},{"duration":0.1094889999999964,"midi":79,"time":184.70794299999997,"velocity":0.31496062992125984},{"duration":0.1094889999999964,"midi":87,"time":184.70794299999997,"velocity":0.31496062992125984},{"duration":0.10948900000002482,"midi":79,"time":184.81743199999997,"velocity":0.31496062992125984},{"duration":0.10948900000002482,"midi":58,"time":184.81743199999997,"velocity":0.31496062992125984},{"duration":0.10948900000002482,"midi":87,"time":184.81743199999997,"velocity":0.31496062992125984},{"duration":0.1094889999999964,"midi":79,"time":184.926921,"velocity":0.31496062992125984},{"duration":0.1094889999999964,"midi":58,"time":184.926921,"velocity":0.31496062992125984},{"duration":0.1094889999999964,"midi":87,"time":184.926921,"velocity":0.31496062992125984},{"duration":0.1094889999999964,"midi":58,"time":185.03641,"velocity":0.31496062992125984},{"duration":0.1094889999999964,"midi":87,"time":185.03641,"velocity":0.31496062992125984},{"duration":0.1094889999999964,"midi":79,"time":185.03641,"velocity":0.31496062992125984},{"duration":0.1094889999999964,"midi":87,"time":185.145899,"velocity":0.31496062992125984},{"duration":0.1094889999999964,"midi":58,"time":185.145899,"velocity":0.31496062992125984},{"duration":0.1094889999999964,"midi":79,"time":185.145899,"velocity":0.31496062992125984},{"duration":0.1094889999999964,"midi":87,"time":185.25538799999998,"velocity":0.31496062992125984},{"duration":0.1094889999999964,"midi":79,"time":185.25538799999998,"velocity":0.31496062992125984},{"duration":0.1094889999999964,"midi":58,"time":185.25538799999998,"velocity":0.31496062992125984},{"duration":0.1094889999999964,"midi":58,"time":185.36487699999998,"velocity":0.31496062992125984},{"duration":0.1094889999999964,"midi":87,"time":185.36487699999998,"velocity":0.31496062992125984},{"duration":0.1094889999999964,"midi":79,"time":185.36487699999998,"velocity":0.31496062992125984},{"duration":0.1094889999999964,"midi":58,"time":185.47436599999997,"velocity":0.31496062992125984},{"duration":0.1094889999999964,"midi":87,"time":185.47436599999997,"velocity":0.31496062992125984},{"duration":0.1094889999999964,"midi":79,"time":185.47436599999997,"velocity":0.31496062992125984},{"duration":0.1094889999999964,"midi":79,"time":185.58385499999997,"velocity":0.31496062992125984},{"duration":0.1094889999999964,"midi":87,"time":185.58385499999997,"velocity":0.31496062992125984},{"duration":0.1094889999999964,"midi":58,"time":185.58385499999997,"velocity":0.31496062992125984},{"duration":0.10948900000002482,"midi":79,"time":185.69334399999997,"velocity":0.31496062992125984},{"duration":0.10948900000002482,"midi":58,"time":185.69334399999997,"velocity":0.31496062992125984},{"duration":0.10948900000002482,"midi":87,"time":185.69334399999997,"velocity":0.31496062992125984},{"duration":0.1094889999999964,"midi":87,"time":185.802833,"velocity":0.31496062992125984},{"duration":0.1094889999999964,"midi":58,"time":185.802833,"velocity":0.31496062992125984},{"duration":0.1094889999999964,"midi":79,"time":185.802833,"velocity":0.31496062992125984},{"duration":0.1094889999999964,"midi":87,"time":185.912322,"velocity":0.31496062992125984},{"duration":0.1094889999999964,"midi":79,"time":185.912322,"velocity":0.31496062992125984},{"duration":0.1094889999999964,"midi":58,"time":185.912322,"velocity":0.31496062992125984},{"duration":0.1094889999999964,"midi":87,"time":186.02181099999999,"velocity":0.31496062992125984},{"duration":0.1094889999999964,"midi":79,"time":186.02181099999999,"velocity":0.31496062992125984},{"duration":0.1094889999999964,"midi":58,"time":186.02181099999999,"velocity":0.31496062992125984},{"duration":0.1094889999999964,"midi":79,"time":186.13129999999998,"velocity":0.31496062992125984},{"duration":0.1094889999999964,"midi":58,"time":186.13129999999998,"velocity":0.31496062992125984},{"duration":0.1094889999999964,"midi":87,"time":186.13129999999998,"velocity":0.31496062992125984},{"duration":0.1094889999999964,"midi":87,"time":186.24078899999998,"velocity":0.31496062992125984},{"duration":0.1094889999999964,"midi":79,"time":186.24078899999998,"velocity":0.31496062992125984},{"duration":0.1094889999999964,"midi":58,"time":186.24078899999998,"velocity":0.31496062992125984},{"duration":0.1094889999999964,"midi":58,"time":186.35027799999997,"velocity":0.31496062992125984},{"duration":0.1094889999999964,"midi":87,"time":186.35027799999997,"velocity":0.31496062992125984},{"duration":0.1094889999999964,"midi":79,"time":186.35027799999997,"velocity":0.31496062992125984},{"duration":0.1094889999999964,"midi":58,"time":186.45976699999997,"velocity":0.31496062992125984},{"duration":0.1094889999999964,"midi":79,"time":186.45976699999997,"velocity":0.31496062992125984},{"duration":0.1094889999999964,"midi":87,"time":186.45976699999997,"velocity":0.31496062992125984},{"duration":0.10948900000002482,"midi":79,"time":186.56925599999997,"velocity":0.31496062992125984},{"duration":0.10948900000002482,"midi":58,"time":186.56925599999997,"velocity":0.31496062992125984},{"duration":0.10948900000002482,"midi":87,"time":186.56925599999997,"velocity":0.31496062992125984},{"duration":0.1094889999999964,"midi":87,"time":186.678745,"velocity":0.31496062992125984},{"duration":0.1094889999999964,"midi":79,"time":186.678745,"velocity":0.31496062992125984},{"duration":0.1094889999999964,"midi":58,"time":186.678745,"velocity":0.31496062992125984},{"duration":0.1094889999999964,"midi":58,"time":186.788234,"velocity":0.31496062992125984},{"duration":0.1094889999999964,"midi":87,"time":186.788234,"velocity":0.31496062992125984},{"duration":0.1094889999999964,"midi":79,"time":186.788234,"velocity":0.31496062992125984},{"duration":0.1094889999999964,"midi":87,"time":186.89772299999998,"velocity":0.31496062992125984},{"duration":0.1094889999999964,"midi":79,"time":186.89772299999998,"velocity":0.31496062992125984},{"duration":0.1094889999999964,"midi":58,"time":186.89772299999998,"velocity":0.31496062992125984},{"duration":0.1094889999999964,"midi":79,"time":187.00721199999998,"velocity":0.31496062992125984},{"duration":0.1094889999999964,"midi":87,"time":187.00721199999998,"velocity":0.31496062992125984},{"duration":0.1094889999999964,"midi":58,"time":187.00721199999998,"velocity":0.31496062992125984},{"duration":0.1094889999999964,"midi":79,"time":187.11670099999998,"velocity":0.31496062992125984},{"duration":0.1094889999999964,"midi":87,"time":187.11670099999998,"velocity":0.31496062992125984},{"duration":0.1094889999999964,"midi":58,"time":187.11670099999998,"velocity":0.31496062992125984},{"duration":0.1094889999999964,"midi":87,"time":187.22618999999997,"velocity":0.31496062992125984},{"duration":0.1094889999999964,"midi":79,"time":187.22618999999997,"velocity":0.31496062992125984},{"duration":0.1094889999999964,"midi":58,"time":187.22618999999997,"velocity":0.31496062992125984},{"duration":0.10948900000002482,"midi":87,"time":187.33567899999997,"velocity":0.31496062992125984},{"duration":0.10948900000002482,"midi":79,"time":187.33567899999997,"velocity":0.31496062992125984},{"duration":0.10948900000002482,"midi":58,"time":187.33567899999997,"velocity":0.31496062992125984},{"duration":0.1094889999999964,"midi":87,"time":187.445168,"velocity":0.31496062992125984},{"duration":0.1094889999999964,"midi":79,"time":187.445168,"velocity":0.31496062992125984},{"duration":0.1094889999999964,"midi":58,"time":187.445168,"velocity":0.31496062992125984},{"duration":0.1094889999999964,"midi":58,"time":187.554657,"velocity":0.31496062992125984},{"duration":0.1094889999999964,"midi":79,"time":187.554657,"velocity":0.31496062992125984},{"duration":0.1094889999999964,"midi":87,"time":187.554657,"velocity":0.31496062992125984},{"duration":0.1094889999999964,"midi":79,"time":187.664146,"velocity":0.31496062992125984},{"duration":0.1094889999999964,"midi":58,"time":187.664146,"velocity":0.31496062992125984},{"duration":0.1094889999999964,"midi":87,"time":187.664146,"velocity":0.31496062992125984},{"duration":0.1094889999999964,"midi":87,"time":187.77363499999998,"velocity":0.31496062992125984},{"duration":0.1094889999999964,"midi":58,"time":187.77363499999998,"velocity":0.31496062992125984},{"duration":0.1094889999999964,"midi":79,"time":187.77363499999998,"velocity":0.31496062992125984},{"duration":0.1094889999999964,"midi":58,"time":187.88312399999998,"velocity":0.31496062992125984},{"duration":0.1094889999999964,"midi":87,"time":187.88312399999998,"velocity":0.31496062992125984},{"duration":0.1094889999999964,"midi":79,"time":187.88312399999998,"velocity":0.31496062992125984},{"duration":0.1094889999999964,"midi":79,"time":187.99261299999998,"velocity":0.31496062992125984},{"duration":0.1094889999999964,"midi":58,"time":187.99261299999998,"velocity":0.31496062992125984},{"duration":0.1094889999999964,"midi":87,"time":187.99261299999998,"velocity":0.31496062992125984},{"duration":0.1094889999999964,"midi":58,"time":188.10210199999997,"velocity":0.31496062992125984},{"duration":0.1094889999999964,"midi":87,"time":188.10210199999997,"velocity":0.31496062992125984},{"duration":0.1094889999999964,"midi":79,"time":188.10210199999997,"velocity":0.31496062992125984},{"duration":0.10948900000002482,"midi":58,"time":188.21159099999997,"velocity":0.31496062992125984},{"duration":0.10948900000002482,"midi":79,"time":188.21159099999997,"velocity":0.31496062992125984},{"duration":0.10948900000002482,"midi":87,"time":188.21159099999997,"velocity":0.31496062992125984},{"duration":0.1094889999999964,"midi":87,"time":188.32108,"velocity":0.31496062992125984},{"duration":0.1094889999999964,"midi":79,"time":188.32108,"velocity":0.31496062992125984},{"duration":0.1094889999999964,"midi":58,"time":188.32108,"velocity":0.31496062992125984},{"duration":0.1094889999999964,"midi":58,"time":188.430569,"velocity":0.31496062992125984},{"duration":0.1094889999999964,"midi":79,"time":188.430569,"velocity":0.31496062992125984},{"duration":0.1094889999999964,"midi":87,"time":188.430569,"velocity":0.31496062992125984},{"duration":0.1094889999999964,"midi":79,"time":188.540058,"velocity":0.31496062992125984},{"duration":0.1094889999999964,"midi":58,"time":188.540058,"velocity":0.31496062992125984},{"duration":0.1094889999999964,"midi":87,"time":188.540058,"velocity":0.31496062992125984},{"duration":0.1094889999999964,"midi":87,"time":188.64954699999998,"velocity":0.31496062992125984},{"duration":0.1094889999999964,"midi":79,"time":188.64954699999998,"velocity":0.31496062992125984},{"duration":0.1094889999999964,"midi":58,"time":188.64954699999998,"velocity":0.31496062992125984},{"duration":0.1094889999999964,"midi":79,"time":188.75903599999998,"velocity":0.31496062992125984},{"duration":0.1094889999999964,"midi":58,"time":188.75903599999998,"velocity":0.31496062992125984},{"duration":0.1094889999999964,"midi":87,"time":188.75903599999998,"velocity":0.31496062992125984},{"duration":0.1094889999999964,"midi":79,"time":188.86852499999998,"velocity":0.31496062992125984},{"duration":0.1094889999999964,"midi":58,"time":188.86852499999998,"velocity":0.31496062992125984},{"duration":0.1094889999999964,"midi":87,"time":188.86852499999998,"velocity":0.31496062992125984},{"duration":0.1094889999999964,"midi":87,"time":188.97801399999997,"velocity":0.31496062992125984},{"duration":0.1094889999999964,"midi":79,"time":188.97801399999997,"velocity":0.31496062992125984},{"duration":0.1094889999999964,"midi":58,"time":188.97801399999997,"velocity":0.31496062992125984},{"duration":0.10948900000002482,"midi":58,"time":189.08750299999997,"velocity":0.31496062992125984},{"duration":0.10948900000002482,"midi":87,"time":189.08750299999997,"velocity":0.31496062992125984},{"duration":0.10948900000002482,"midi":79,"time":189.08750299999997,"velocity":0.31496062992125984},{"duration":0.1094889999999964,"midi":79,"time":189.196992,"velocity":0.31496062992125984},{"duration":0.1094889999999964,"midi":87,"time":189.196992,"velocity":0.31496062992125984},{"duration":0.1094889999999964,"midi":58,"time":189.196992,"velocity":0.31496062992125984},{"duration":0.1094889999999964,"midi":87,"time":189.306481,"velocity":0.31496062992125984},{"duration":0.1094889999999964,"midi":58,"time":189.306481,"velocity":0.31496062992125984},{"duration":0.1094889999999964,"midi":79,"time":189.306481,"velocity":0.31496062992125984},{"duration":0.1094889999999964,"midi":87,"time":189.41597,"velocity":0.31496062992125984},{"duration":0.1094889999999964,"midi":79,"time":189.41597,"velocity":0.31496062992125984},{"duration":0.1094889999999964,"midi":58,"time":189.41597,"velocity":0.31496062992125984},{"duration":0.1094889999999964,"midi":87,"time":189.52545899999998,"velocity":0.31496062992125984},{"duration":0.1094889999999964,"midi":79,"time":189.52545899999998,"velocity":0.31496062992125984},{"duration":0.1094889999999964,"midi":58,"time":189.52545899999998,"velocity":0.31496062992125984},{"duration":0.1094889999999964,"midi":58,"time":189.63494799999998,"velocity":0.31496062992125984},{"duration":0.1094889999999964,"midi":79,"time":189.63494799999998,"velocity":0.31496062992125984},{"duration":0.1094889999999964,"midi":87,"time":189.63494799999998,"velocity":0.31496062992125984},{"duration":0.1094889999999964,"midi":87,"time":189.74443699999998,"velocity":0.31496062992125984},{"duration":0.1094889999999964,"midi":58,"time":189.74443699999998,"velocity":0.31496062992125984},{"duration":0.1094889999999964,"midi":79,"time":189.74443699999998,"velocity":0.31496062992125984},{"duration":0.1094889999999964,"midi":87,"time":189.85392599999997,"velocity":0.31496062992125984},{"duration":0.1094889999999964,"midi":79,"time":189.85392599999997,"velocity":0.31496062992125984},{"duration":0.1094889999999964,"midi":58,"time":189.85392599999997,"velocity":0.31496062992125984},{"duration":0.10948900000002482,"midi":58,"time":189.96341499999997,"velocity":0.31496062992125984},{"duration":0.10948900000002482,"midi":87,"time":189.96341499999997,"velocity":0.31496062992125984},{"duration":0.10948900000002482,"midi":79,"time":189.96341499999997,"velocity":0.31496062992125984},{"duration":0.1094889999999964,"midi":79,"time":190.072904,"velocity":0.31496062992125984},{"duration":0.1094889999999964,"midi":87,"time":190.072904,"velocity":0.31496062992125984},{"duration":0.1094889999999964,"midi":58,"time":190.072904,"velocity":0.31496062992125984},{"duration":0.1094889999999964,"midi":79,"time":190.182393,"velocity":0.31496062992125984},{"duration":0.1094889999999964,"midi":87,"time":190.182393,"velocity":0.31496062992125984},{"duration":0.1094889999999964,"midi":58,"time":190.182393,"velocity":0.31496062992125984},{"duration":0.1094889999999964,"midi":79,"time":190.291882,"velocity":0.31496062992125984},{"duration":0.1094889999999964,"midi":87,"time":190.291882,"velocity":0.31496062992125984},{"duration":0.1094889999999964,"midi":58,"time":190.291882,"velocity":0.31496062992125984},{"duration":0.1094889999999964,"midi":79,"time":190.40137099999998,"velocity":0.31496062992125984},{"duration":0.1094889999999964,"midi":58,"time":190.40137099999998,"velocity":0.31496062992125984},{"duration":0.1094889999999964,"midi":87,"time":190.40137099999998,"velocity":0.31496062992125984},{"duration":0.1094889999999964,"midi":79,"time":190.51085999999998,"velocity":0.31496062992125984},{"duration":0.1094889999999964,"midi":58,"time":190.51085999999998,"velocity":0.31496062992125984},{"duration":0.1094889999999964,"midi":87,"time":190.51085999999998,"velocity":0.31496062992125984},{"duration":0.1094889999999964,"midi":87,"time":190.62034899999998,"velocity":0.31496062992125984},{"duration":0.1094889999999964,"midi":79,"time":190.62034899999998,"velocity":0.31496062992125984},{"duration":0.1094889999999964,"midi":58,"time":190.62034899999998,"velocity":0.31496062992125984},{"duration":0.1094889999999964,"midi":58,"time":190.72983799999997,"velocity":0.31496062992125984},{"duration":0.1094889999999964,"midi":79,"time":190.72983799999997,"velocity":0.31496062992125984},{"duration":0.1094889999999964,"midi":87,"time":190.72983799999997,"velocity":0.31496062992125984},{"duration":0.10948900000002482,"midi":87,"time":190.83932699999997,"velocity":0.31496062992125984},{"duration":0.10948900000002482,"midi":58,"time":190.83932699999997,"velocity":0.31496062992125984},{"duration":0.10948900000002482,"midi":79,"time":190.83932699999997,"velocity":0.31496062992125984},{"duration":0.1094889999999964,"midi":87,"time":190.948816,"velocity":0.31496062992125984},{"duration":0.1094889999999964,"midi":58,"time":190.948816,"velocity":0.31496062992125984},{"duration":0.1094889999999964,"midi":79,"time":190.948816,"velocity":0.31496062992125984},{"duration":0.1094889999999964,"midi":79,"time":191.058305,"velocity":0.31496062992125984},{"duration":0.1094889999999964,"midi":87,"time":191.058305,"velocity":0.31496062992125984},{"duration":0.1094889999999964,"midi":58,"time":191.058305,"velocity":0.31496062992125984},{"duration":0.1094889999999964,"midi":87,"time":191.167794,"velocity":0.31496062992125984},{"duration":0.1094889999999964,"midi":79,"time":191.167794,"velocity":0.31496062992125984},{"duration":0.1094889999999964,"midi":58,"time":191.167794,"velocity":0.31496062992125984},{"duration":0.1094889999999964,"midi":79,"time":191.27728299999998,"velocity":0.31496062992125984},{"duration":0.1094889999999964,"midi":58,"time":191.27728299999998,"velocity":0.31496062992125984},{"duration":0.1094889999999964,"midi":87,"time":191.27728299999998,"velocity":0.31496062992125984},{"duration":0.1094889999999964,"midi":87,"time":191.38677199999998,"velocity":0.31496062992125984},{"duration":0.1094889999999964,"midi":79,"time":191.38677199999998,"velocity":0.31496062992125984},{"duration":0.1094889999999964,"midi":58,"time":191.38677199999998,"velocity":0.31496062992125984},{"duration":0.1094889999999964,"midi":58,"time":191.49626099999998,"velocity":0.31496062992125984},{"duration":0.1094889999999964,"midi":79,"time":191.49626099999998,"velocity":0.31496062992125984},{"duration":0.1094889999999964,"midi":87,"time":191.49626099999998,"velocity":0.31496062992125984},{"duration":0.1094889999999964,"midi":79,"time":191.60574999999997,"velocity":0.31496062992125984},{"duration":0.1094889999999964,"midi":87,"time":191.60574999999997,"velocity":0.31496062992125984},{"duration":0.1094889999999964,"midi":58,"time":191.60574999999997,"velocity":0.31496062992125984},{"duration":0.10948900000002482,"midi":87,"time":191.71523899999997,"velocity":0.31496062992125984},{"duration":0.10948900000002482,"midi":79,"time":191.71523899999997,"velocity":0.31496062992125984},{"duration":0.10948900000002482,"midi":58,"time":191.71523899999997,"velocity":0.31496062992125984},{"duration":0.1094889999999964,"midi":87,"time":191.824728,"velocity":0.31496062992125984},{"duration":0.1094889999999964,"midi":79,"time":191.824728,"velocity":0.31496062992125984},{"duration":0.1094889999999964,"midi":58,"time":191.824728,"velocity":0.31496062992125984},{"duration":0.1094889999999964,"midi":58,"time":191.934217,"velocity":0.31496062992125984},{"duration":0.1094889999999964,"midi":87,"time":191.934217,"velocity":0.31496062992125984},{"duration":0.1094889999999964,"midi":79,"time":191.934217,"velocity":0.31496062992125984},{"duration":0.1094889999999964,"midi":87,"time":192.043706,"velocity":0.31496062992125984},{"duration":0.1094889999999964,"midi":79,"time":192.043706,"velocity":0.31496062992125984},{"duration":0.1094889999999964,"midi":58,"time":192.043706,"velocity":0.31496062992125984},{"duration":0.1094889999999964,"midi":87,"time":192.15319499999998,"velocity":0.31496062992125984},{"duration":0.1094889999999964,"midi":79,"time":192.15319499999998,"velocity":0.31496062992125984},{"duration":0.1094889999999964,"midi":58,"time":192.15319499999998,"velocity":0.31496062992125984},{"duration":0.1094889999999964,"midi":87,"time":192.26268399999998,"velocity":0.31496062992125984},{"duration":0.1094889999999964,"midi":79,"time":192.26268399999998,"velocity":0.31496062992125984},{"duration":0.1094889999999964,"midi":58,"time":192.26268399999998,"velocity":0.31496062992125984},{"duration":0.1094889999999964,"midi":87,"time":192.37217299999998,"velocity":0.31496062992125984},{"duration":0.1094889999999964,"midi":79,"time":192.37217299999998,"velocity":0.31496062992125984},{"duration":0.1094889999999964,"midi":58,"time":192.37217299999998,"velocity":0.31496062992125984},{"duration":0.1094889999999964,"midi":79,"time":192.48166199999997,"velocity":0.31496062992125984},{"duration":0.1094889999999964,"midi":58,"time":192.48166199999997,"velocity":0.31496062992125984},{"duration":0.1094889999999964,"midi":87,"time":192.48166199999997,"velocity":0.31496062992125984},{"duration":0.10948900000002482,"midi":87,"time":192.59115099999997,"velocity":0.31496062992125984},{"duration":0.10948900000002482,"midi":79,"time":192.59115099999997,"velocity":0.31496062992125984},{"duration":0.10948900000002482,"midi":58,"time":192.59115099999997,"velocity":0.31496062992125984},{"duration":0.1094889999999964,"midi":58,"time":192.70064,"velocity":0.31496062992125984},{"duration":0.1094889999999964,"midi":79,"time":192.70064,"velocity":0.31496062992125984},{"duration":0.1094889999999964,"midi":87,"time":192.70064,"velocity":0.31496062992125984},{"duration":0.1094889999999964,"midi":87,"time":192.810129,"velocity":0.31496062992125984},{"duration":0.1094889999999964,"midi":58,"time":192.810129,"velocity":0.31496062992125984},{"duration":0.1094889999999964,"midi":79,"time":192.810129,"velocity":0.31496062992125984},{"duration":0.1094889999999964,"midi":58,"time":192.91961799999999,"velocity":0.31496062992125984},{"duration":0.1094889999999964,"midi":87,"time":192.91961799999999,"velocity":0.31496062992125984},{"duration":0.1094889999999964,"midi":79,"time":192.91961799999999,"velocity":0.31496062992125984},{"duration":0.1094889999999964,"midi":87,"time":193.02910699999998,"velocity":0.31496062992125984},{"duration":0.1094889999999964,"midi":79,"time":193.02910699999998,"velocity":0.31496062992125984},{"duration":0.1094889999999964,"midi":58,"time":193.02910699999998,"velocity":0.31496062992125984},{"duration":0.1094889999999964,"midi":87,"time":193.13859599999998,"velocity":0.31496062992125984},{"duration":0.1094889999999964,"midi":79,"time":193.13859599999998,"velocity":0.31496062992125984},{"duration":0.1094889999999964,"midi":58,"time":193.13859599999998,"velocity":0.31496062992125984},{"duration":0.1094889999999964,"midi":87,"time":193.24808499999997,"velocity":0.31496062992125984},{"duration":0.1094889999999964,"midi":79,"time":193.24808499999997,"velocity":0.31496062992125984},{"duration":0.1094889999999964,"midi":58,"time":193.24808499999997,"velocity":0.31496062992125984},{"duration":0.1094889999999964,"midi":58,"time":193.35757399999997,"velocity":0.31496062992125984},{"duration":0.1094889999999964,"midi":87,"time":193.35757399999997,"velocity":0.31496062992125984},{"duration":0.1094889999999964,"midi":79,"time":193.35757399999997,"velocity":0.31496062992125984},{"duration":0.10948900000002482,"midi":79,"time":193.46706299999997,"velocity":0.31496062992125984},{"duration":0.10948900000002482,"midi":58,"time":193.46706299999997,"velocity":0.31496062992125984},{"duration":0.10948900000002482,"midi":87,"time":193.46706299999997,"velocity":0.31496062992125984},{"duration":0.1094889999999964,"midi":58,"time":193.576552,"velocity":0.31496062992125984},{"duration":0.1094889999999964,"midi":79,"time":193.576552,"velocity":0.31496062992125984},{"duration":0.1094889999999964,"midi":87,"time":193.576552,"velocity":0.31496062992125984},{"duration":0.1094889999999964,"midi":79,"time":193.686041,"velocity":0.31496062992125984},{"duration":0.1094889999999964,"midi":58,"time":193.686041,"velocity":0.31496062992125984},{"duration":0.1094889999999964,"midi":87,"time":193.686041,"velocity":0.31496062992125984},{"duration":0.1094889999999964,"midi":58,"time":193.79552999999999,"velocity":0.31496062992125984},{"duration":0.1094889999999964,"midi":79,"time":193.79552999999999,"velocity":0.31496062992125984},{"duration":0.1094889999999964,"midi":87,"time":193.79552999999999,"velocity":0.31496062992125984},{"duration":0.1094889999999964,"midi":87,"time":193.90501899999998,"velocity":0.31496062992125984},{"duration":0.1094889999999964,"midi":79,"time":193.90501899999998,"velocity":0.31496062992125984},{"duration":0.1094889999999964,"midi":58,"time":193.90501899999998,"velocity":0.31496062992125984},{"duration":0.1094889999999964,"midi":58,"time":194.01450799999998,"velocity":0.31496062992125984},{"duration":0.1094889999999964,"midi":79,"time":194.01450799999998,"velocity":0.31496062992125984},{"duration":0.1094889999999964,"midi":87,"time":194.01450799999998,"velocity":0.31496062992125984},{"duration":0.1094889999999964,"midi":58,"time":194.12399699999997,"velocity":0.31496062992125984},{"duration":0.1094889999999964,"midi":87,"time":194.12399699999997,"velocity":0.31496062992125984},{"duration":0.1094889999999964,"midi":79,"time":194.12399699999997,"velocity":0.31496062992125984},{"duration":0.1094889999999964,"midi":87,"time":194.23348599999997,"velocity":0.31496062992125984},{"duration":0.1094889999999964,"midi":79,"time":194.23348599999997,"velocity":0.31496062992125984},{"duration":0.1094889999999964,"midi":58,"time":194.23348599999997,"velocity":0.31496062992125984},{"duration":0.10948900000002482,"midi":87,"time":194.34297499999997,"velocity":0.31496062992125984},{"duration":0.10948900000002482,"midi":79,"time":194.34297499999997,"velocity":0.31496062992125984},{"duration":0.10948900000002482,"midi":58,"time":194.34297499999997,"velocity":0.31496062992125984}]},{"instrument":{"family":"synth lead","number":80,"name":"lead 1 (square)"},"notes":[{"duration":0.1094890000000035,"midi":73,"time":56.058367999999994,"velocity":0.3937007874015748},{"duration":0.1094890000000035,"midi":81,"time":56.058367999999994,"velocity":0.3937007874015748},{"duration":0.1094890000000035,"midi":66,"time":56.058367999999994,"velocity":0.3937007874015748},{"duration":0.1094889999999964,"midi":80,"time":56.167857,"velocity":0.3937007874015748},{"duration":0.1094889999999964,"midi":73,"time":56.167857,"velocity":0.3937007874015748},{"duration":0.1094889999999964,"midi":66,"time":56.167857,"velocity":0.3937007874015748},{"duration":0.1094889999999964,"midi":66,"time":56.386835,"velocity":0.3937007874015748},{"duration":0.1094889999999964,"midi":78,"time":56.386835,"velocity":0.3937007874015748},{"duration":0.1094889999999964,"midi":73,"time":56.386835,"velocity":0.3937007874015748},{"duration":0.1094890000000035,"midi":78,"time":57.810191999999994,"velocity":0.3937007874015748},{"duration":0.1094890000000035,"midi":73,"time":57.810191999999994,"velocity":0.3937007874015748},{"duration":0.1094889999999964,"midi":78,"time":57.919681,"velocity":0.3937007874015748},{"duration":0.1094890000000035,"midi":78,"time":58.02916999999999,"velocity":0.3937007874015748},{"duration":0.1094890000000035,"midi":69,"time":58.02916999999999,"velocity":0.3937007874015748},{"duration":0.1094889999999964,"midi":66,"time":58.138659,"velocity":0.3937007874015748},{"duration":0.1094889999999964,"midi":66,"time":58.795593,"velocity":0.3937007874015748},{"duration":0.1094890000000035,"midi":69,"time":58.90508199999999,"velocity":0.3937007874015748},{"duration":0.1094889999999964,"midi":71,"time":59.014571,"velocity":0.3937007874015748},{"duration":0.1094890000000035,"midi":69,"time":61.75179599999999,"velocity":0.3937007874015748},{"duration":0.1094890000000035,"midi":78,"time":61.75179599999999,"velocity":0.3937007874015748},{"duration":0.1094890000000035,"midi":81,"time":61.97077399999999,"velocity":0.3937007874015748},{"duration":0.1094890000000035,"midi":69,"time":61.97077399999999,"velocity":0.3937007874015748},{"duration":0.1094889999999964,"midi":80,"time":62.080262999999995,"velocity":0.3937007874015748},{"duration":0.1094889999999964,"midi":69,"time":62.080262999999995,"velocity":0.3937007874015748},{"duration":0.1094889999999964,"midi":66,"time":62.299240999999995,"velocity":0.3937007874015748},{"duration":0.1094890000000035,"midi":69,"time":62.40872999999999,"velocity":0.3937007874015748},{"duration":0.1094889999999964,"midi":71,"time":62.518218999999995,"velocity":0.3937007874015748},{"duration":0.1094889999999964,"midi":66,"time":67.55471299999999,"velocity":0.3937007874015748},{"duration":0.1094890000000106,"midi":78,"time":67.66420199999999,"velocity":0.3937007874015748},{"duration":0.1094890000000106,"midi":69,"time":67.66420199999999,"velocity":0.3937007874015748},{"duration":0.1094890000000106,"midi":81,"time":67.66420199999999,"velocity":0.3937007874015748},{"duration":0.1094889999999964,"midi":80,"time":67.773691,"velocity":0.3937007874015748},{"duration":0.1094889999999964,"midi":78,"time":67.773691,"velocity":0.3937007874015748},{"duration":0.1094889999999964,"midi":69,"time":67.773691,"velocity":0.3937007874015748},{"duration":0.1094889999999964,"midi":66,"time":67.88318,"velocity":0.3937007874015748},{"duration":0.1094889999999964,"midi":73,"time":67.99266899999999,"velocity":0.3937007874015748},{"duration":0.1094889999999964,"midi":78,"time":67.99266899999999,"velocity":0.3937007874015748},{"duration":0.1094889999999964,"midi":80,"time":67.99266899999999,"velocity":0.3937007874015748},{"duration":0.1094890000000106,"midi":78,"time":68.10215799999999,"velocity":0.3937007874015748},{"duration":0.1094890000000106,"midi":73,"time":68.10215799999999,"velocity":0.3937007874015748},{"duration":0.1094889999999964,"midi":66,"time":70.07296,"velocity":0.3937007874015748},{"duration":0.1094889999999964,"midi":81,"time":70.07296,"velocity":0.3937007874015748},{"duration":0.1094889999999964,"midi":73,"time":70.07296,"velocity":0.3937007874015748},{"duration":0.1094889999999964,"midi":80,"time":70.18244899999999,"velocity":0.3937007874015748},{"duration":0.1094889999999964,"midi":73,"time":70.18244899999999,"velocity":0.3937007874015748},{"duration":0.1094889999999964,"midi":66,"time":70.18244899999999,"velocity":0.3937007874015748},{"duration":0.1094889999999964,"midi":66,"time":70.401427,"velocity":0.3937007874015748},{"duration":0.1094889999999964,"midi":76,"time":70.401427,"velocity":0.3937007874015748},{"duration":0.1094889999999964,"midi":73,"time":70.401427,"velocity":0.3937007874015748},{"duration":0.2189779999999928,"midi":78,"time":70.510916,"velocity":0.3937007874015748},{"duration":0.2189779999999928,"midi":73,"time":70.510916,"velocity":0.3937007874015748},{"duration":0.2189779999999928,"midi":66,"time":70.510916,"velocity":0.3937007874015748},{"duration":0.1094890000000106,"midi":81,"time":72.48171799999999,"velocity":0.3937007874015748},{"duration":0.1094890000000106,"midi":78,"time":72.48171799999999,"velocity":0.3937007874015748},{"duration":0.1094890000000106,"midi":73,"time":72.48171799999999,"velocity":0.3937007874015748},{"duration":0.1094889999999964,"midi":73,"time":72.591207,"velocity":0.3937007874015748},{"duration":0.1094889999999964,"midi":80,"time":72.591207,"velocity":0.3937007874015748},{"duration":0.1094889999999964,"midi":78,"time":72.591207,"velocity":0.3937007874015748},{"duration":0.1094889999999964,"midi":71,"time":74.014564,"velocity":0.3937007874015748},{"duration":0.1094889999999964,"midi":69,"time":74.12405299999999,"velocity":0.3937007874015748},{"duration":0.1094890000000106,"midi":66,"time":74.23354199999999,"velocity":0.3937007874015748},{"duration":0.1094889999999964,"midi":61,"time":74.343031,"velocity":0.3937007874015748},{"duration":0.1094889999999964,"midi":73,"time":74.45251999999999,"velocity":0.3937007874015748},{"duration":0.1094889999999964,"midi":81,"time":74.45251999999999,"velocity":0.3937007874015748},{"duration":0.1094889999999964,"midi":69,"time":74.45251999999999,"velocity":0.3937007874015748},{"duration":0.1094889999999964,"midi":78,"time":74.45251999999999,"velocity":0.3937007874015748},{"duration":0.1094889999999964,"midi":73,"time":74.56200899999999,"velocity":0.3937007874015748},{"duration":0.1094889999999964,"midi":69,"time":74.56200899999999,"velocity":0.3937007874015748},{"duration":0.1094889999999964,"midi":80,"time":74.56200899999999,"velocity":0.3937007874015748},{"duration":0.1094889999999964,"midi":78,"time":74.56200899999999,"velocity":0.3937007874015748},{"duration":0.1094890000000106,"midi":73,"time":74.67149799999999,"velocity":0.3937007874015748},{"duration":0.1094890000000106,"midi":69,"time":74.67149799999999,"velocity":0.3937007874015748},{"duration":0.1094889999999964,"midi":73,"time":74.780987,"velocity":0.3937007874015748},{"duration":0.1094889999999964,"midi":76,"time":74.780987,"velocity":0.3937007874015748},{"duration":0.1094889999999964,"midi":69,"time":74.780987,"velocity":0.3937007874015748},{"duration":0.1094889999999964,"midi":78,"time":74.780987,"velocity":0.3937007874015748},{"duration":0.218978000000007,"midi":69,"time":74.89047599999999,"velocity":0.3937007874015748},{"duration":0.218978000000007,"midi":73,"time":74.89047599999999,"velocity":0.3937007874015748},{"duration":0.218978000000007,"midi":78,"time":74.89047599999999,"velocity":0.3937007874015748},{"duration":0.1094890000000106,"midi":66,"time":76.31383299999999,"velocity":0.3937007874015748},{"duration":0.1094889999999964,"midi":69,"time":76.423322,"velocity":0.3937007874015748},{"duration":0.1094889999999964,"midi":71,"time":76.532811,"velocity":0.3937007874015748},{"duration":0.1094890000000106,"midi":66,"time":78.94156899999999,"velocity":0.3937007874015748},{"duration":0.1094889999999964,"midi":69,"time":79.051058,"velocity":0.3937007874015748},{"duration":0.1094889999999964,"midi":71,"time":79.160547,"velocity":0.3937007874015748},{"duration":0.1094889999999964,"midi":66,"time":81.45981599999999,"velocity":0.3937007874015748},{"duration":0.1094889999999964,"midi":73,"time":81.45981599999999,"velocity":0.3937007874015748},{"duration":0.1094889999999964,"midi":81,"time":81.45981599999999,"velocity":0.3937007874015748},{"duration":0.1094890000000106,"midi":73,"time":81.56930499999999,"velocity":0.3937007874015748},{"duration":0.1094890000000106,"midi":80,"time":81.56930499999999,"velocity":0.3937007874015748},{"duration":0.1094890000000106,"midi":66,"time":81.56930499999999,"velocity":0.3937007874015748},{"duration":0.1094889999999964,"midi":66,"time":81.678794,"velocity":0.3937007874015748},{"duration":0.1094889999999964,"midi":73,"time":81.678794,"velocity":0.3937007874015748},{"duration":0.1094889999999964,"midi":80,"time":81.678794,"velocity":0.3937007874015748},{"duration":0.1094889999999964,"midi":73,"time":81.78828299999999,"velocity":0.3937007874015748},{"duration":0.1094889999999964,"midi":66,"time":81.78828299999999,"velocity":0.3937007874015748},{"duration":0.1094889999999964,"midi":69,"time":82.11675,"velocity":0.3937007874015748},{"duration":0.1094889999999964,"midi":71,"time":82.22623899999999,"velocity":0.3937007874015748}]},{"instrument":{"family":"synth lead","number":87,"name":"lead 8 (bass + lead)"},"notes":[{"duration":0.1094890000000035,"midi":61,"time":56.058367999999994,"velocity":0.15748031496062992},{"duration":0.1094890000000035,"midi":69,"time":56.058367999999994,"velocity":0.15748031496062992},{"duration":0.1094890000000035,"midi":54,"time":56.058367999999994,"velocity":0.15748031496062992},{"duration":0.1094889999999964,"midi":68,"time":56.167857,"velocity":0.15748031496062992},{"duration":0.1094889999999964,"midi":61,"time":56.167857,"velocity":0.15748031496062992},{"duration":0.1094889999999964,"midi":54,"time":56.167857,"velocity":0.15748031496062992},{"duration":0.1094889999999964,"midi":66,"time":56.386835,"velocity":0.15748031496062992},{"duration":0.1094889999999964,"midi":61,"time":56.386835,"velocity":0.15748031496062992},{"duration":0.1094889999999964,"midi":54,"time":56.386835,"velocity":0.15748031496062992},{"duration":0.1094890000000035,"midi":61,"time":57.810191999999994,"velocity":0.15748031496062992},{"duration":0.1094890000000035,"midi":66,"time":57.810191999999994,"velocity":0.15748031496062992},{"duration":0.1094889999999964,"midi":66,"time":57.919681,"velocity":0.15748031496062992},{"duration":0.1094890000000035,"midi":66,"time":58.02916999999999,"velocity":0.15748031496062992},{"duration":0.1094890000000035,"midi":57,"time":58.02916999999999,"velocity":0.15748031496062992},{"duration":0.1094889999999964,"midi":54,"time":58.138659,"velocity":0.15748031496062992},{"duration":0.1094889999999964,"midi":54,"time":58.795593,"velocity":0.15748031496062992},{"duration":0.1094890000000035,"midi":57,"time":58.90508199999999,"velocity":0.15748031496062992},{"duration":0.1094889999999964,"midi":59,"time":59.014571,"velocity":0.15748031496062992},{"duration":0.1094890000000035,"midi":57,"time":61.75179599999999,"velocity":0.15748031496062992},{"duration":0.1094890000000035,"midi":66,"time":61.75179599999999,"velocity":0.15748031496062992},{"duration":0.1094890000000035,"midi":69,"time":61.97077399999999,"velocity":0.15748031496062992},{"duration":0.1094890000000035,"midi":57,"time":61.97077399999999,"velocity":0.15748031496062992},{"duration":0.1094889999999964,"midi":68,"time":62.080262999999995,"velocity":0.15748031496062992},{"duration":0.1094889999999964,"midi":57,"time":62.080262999999995,"velocity":0.15748031496062992},{"duration":0.1094889999999964,"midi":54,"time":62.299240999999995,"velocity":0.15748031496062992},{"duration":0.1094890000000035,"midi":57,"time":62.40872999999999,"velocity":0.15748031496062992},{"duration":0.1094889999999964,"midi":59,"time":62.518218999999995,"velocity":0.15748031496062992},{"duration":0.1094889999999964,"midi":54,"time":67.55471299999999,"velocity":0.15748031496062992},{"duration":0.1094890000000106,"midi":57,"time":67.66420199999999,"velocity":0.15748031496062992},{"duration":0.1094890000000106,"midi":69,"time":67.66420199999999,"velocity":0.15748031496062992},{"duration":0.1094890000000106,"midi":66,"time":67.66420199999999,"velocity":0.15748031496062992},{"duration":0.1094889999999964,"midi":57,"time":67.773691,"velocity":0.15748031496062992},{"duration":0.1094889999999964,"midi":68,"time":67.773691,"velocity":0.15748031496062992},{"duration":0.1094889999999964,"midi":66,"time":67.773691,"velocity":0.15748031496062992},{"duration":0.1094889999999964,"midi":54,"time":67.88318,"velocity":0.15748031496062992},{"duration":0.1094889999999964,"midi":68,"time":67.99266899999999,"velocity":0.15748031496062992},{"duration":0.1094889999999964,"midi":66,"time":67.99266899999999,"velocity":0.15748031496062992},{"duration":0.1094889999999964,"midi":61,"time":67.99266899999999,"velocity":0.15748031496062992},{"duration":0.1094890000000106,"midi":66,"time":68.10215799999999,"velocity":0.15748031496062992},{"duration":0.1094890000000106,"midi":61,"time":68.10215799999999,"velocity":0.15748031496062992},{"duration":0.1094889999999964,"midi":69,"time":70.07296,"velocity":0.15748031496062992},{"duration":0.1094889999999964,"midi":54,"time":70.07296,"velocity":0.15748031496062992},{"duration":0.1094889999999964,"midi":61,"time":70.07296,"velocity":0.15748031496062992},{"duration":0.1094889999999964,"midi":68,"time":70.18244899999999,"velocity":0.15748031496062992},{"duration":0.1094889999999964,"midi":61,"time":70.18244899999999,"velocity":0.15748031496062992},{"duration":0.1094889999999964,"midi":54,"time":70.18244899999999,"velocity":0.15748031496062992},{"duration":0.1094889999999964,"midi":64,"time":70.401427,"velocity":0.15748031496062992},{"duration":0.1094889999999964,"midi":61,"time":70.401427,"velocity":0.15748031496062992},{"duration":0.1094889999999964,"midi":54,"time":70.401427,"velocity":0.15748031496062992},{"duration":0.2189779999999928,"midi":54,"time":70.510916,"velocity":0.15748031496062992},{"duration":0.2189779999999928,"midi":61,"time":70.510916,"velocity":0.15748031496062992},{"duration":0.2189779999999928,"midi":66,"time":70.510916,"velocity":0.15748031496062992},{"duration":0.1094890000000106,"midi":61,"time":72.48171799999999,"velocity":0.15748031496062992},{"duration":0.1094890000000106,"midi":66,"time":72.48171799999999,"velocity":0.15748031496062992},{"duration":0.1094890000000106,"midi":69,"time":72.48171799999999,"velocity":0.15748031496062992},{"duration":0.1094889999999964,"midi":61,"time":72.591207,"velocity":0.15748031496062992},{"duration":0.1094889999999964,"midi":68,"time":72.591207,"velocity":0.15748031496062992},{"duration":0.1094889999999964,"midi":66,"time":72.591207,"velocity":0.15748031496062992},{"duration":0.1094889999999964,"midi":59,"time":74.014564,"velocity":0.15748031496062992},{"duration":0.1094889999999964,"midi":57,"time":74.12405299999999,"velocity":0.15748031496062992},{"duration":0.1094890000000106,"midi":54,"time":74.23354199999999,"velocity":0.15748031496062992},{"duration":0.1094889999999964,"midi":49,"time":74.343031,"velocity":0.15748031496062992},{"duration":0.1094889999999964,"midi":69,"time":74.45251999999999,"velocity":0.15748031496062992},{"duration":0.1094889999999964,"midi":66,"time":74.45251999999999,"velocity":0.15748031496062992},{"duration":0.1094889999999964,"midi":61,"time":74.45251999999999,"velocity":0.15748031496062992},{"duration":0.1094889999999964,"midi":57,"time":74.45251999999999,"velocity":0.15748031496062992},{"duration":0.1094889999999964,"midi":68,"time":74.56200899999999,"velocity":0.15748031496062992},{"duration":0.1094889999999964,"midi":57,"time":74.56200899999999,"velocity":0.15748031496062992},{"duration":0.1094889999999964,"midi":66,"time":74.56200899999999,"velocity":0.15748031496062992},{"duration":0.1094889999999964,"midi":61,"time":74.56200899999999,"velocity":0.15748031496062992},{"duration":0.1094890000000106,"midi":61,"time":74.67149799999999,"velocity":0.15748031496062992},{"duration":0.1094890000000106,"midi":57,"time":74.67149799999999,"velocity":0.15748031496062992},{"duration":0.1094889999999964,"midi":61,"time":74.780987,"velocity":0.15748031496062992},{"duration":0.1094889999999964,"midi":66,"time":74.780987,"velocity":0.15748031496062992},{"duration":0.1094889999999964,"midi":57,"time":74.780987,"velocity":0.15748031496062992},{"duration":0.1094889999999964,"midi":64,"time":74.780987,"velocity":0.15748031496062992},{"duration":0.218978000000007,"midi":57,"time":74.89047599999999,"velocity":0.15748031496062992},{"duration":0.218978000000007,"midi":61,"time":74.89047599999999,"velocity":0.15748031496062992},{"duration":0.218978000000007,"midi":66,"time":74.89047599999999,"velocity":0.15748031496062992},{"duration":0.1094890000000106,"midi":54,"time":76.31383299999999,"velocity":0.15748031496062992},{"duration":0.1094889999999964,"midi":57,"time":76.423322,"velocity":0.15748031496062992},{"duration":0.1094889999999964,"midi":59,"time":76.532811,"velocity":0.15748031496062992},{"duration":0.1094890000000106,"midi":54,"time":78.94156899999999,"velocity":0.15748031496062992},{"duration":0.1094889999999964,"midi":57,"time":79.051058,"velocity":0.15748031496062992},{"duration":0.1094889999999964,"midi":59,"time":79.160547,"velocity":0.15748031496062992},{"duration":0.1094889999999964,"midi":54,"time":81.45981599999999,"velocity":0.15748031496062992},{"duration":0.1094889999999964,"midi":61,"time":81.45981599999999,"velocity":0.15748031496062992},{"duration":0.1094889999999964,"midi":69,"time":81.45981599999999,"velocity":0.15748031496062992},{"duration":0.1094890000000106,"midi":54,"time":81.56930499999999,"velocity":0.15748031496062992},{"duration":0.1094890000000106,"midi":61,"time":81.56930499999999,"velocity":0.15748031496062992},{"duration":0.1094890000000106,"midi":68,"time":81.56930499999999,"velocity":0.15748031496062992},{"duration":0.1094889999999964,"midi":68,"time":81.678794,"velocity":0.15748031496062992},{"duration":0.1094889999999964,"midi":54,"time":81.678794,"velocity":0.15748031496062992},{"duration":0.1094889999999964,"midi":61,"time":81.678794,"velocity":0.15748031496062992},{"duration":0.1094889999999964,"midi":61,"time":81.78828299999999,"velocity":0.15748031496062992},{"duration":0.1094889999999964,"midi":54,"time":81.78828299999999,"velocity":0.15748031496062992},{"duration":0.1094889999999964,"midi":57,"time":82.11675,"velocity":0.15748031496062992},{"duration":0.1094889999999964,"midi":59,"time":82.22623899999999,"velocity":0.15748031496062992},{"duration":0.1094889999999964,"midi":61,"time":138.394096,"velocity":0.15748031496062992},{"duration":0.1094889999999964,"midi":69,"time":138.394096,"velocity":0.15748031496062992},{"duration":0.1094889999999964,"midi":54,"time":138.394096,"velocity":0.15748031496062992},{"duration":0.1094889999999964,"midi":54,"time":138.503585,"velocity":0.15748031496062992},{"duration":0.1094889999999964,"midi":61,"time":138.503585,"velocity":0.15748031496062992},{"duration":0.1094889999999964,"midi":68,"time":138.503585,"velocity":0.15748031496062992},{"duration":0.1094889999999964,"midi":54,"time":138.72256299999998,"velocity":0.15748031496062992},{"duration":0.1094889999999964,"midi":61,"time":138.72256299999998,"velocity":0.15748031496062992},{"duration":0.1094889999999964,"midi":66,"time":138.72256299999998,"velocity":0.15748031496062992},{"duration":0.1094889999999964,"midi":66,"time":140.14592,"velocity":0.15748031496062992},{"duration":0.1094889999999964,"midi":61,"time":140.14592,"velocity":0.15748031496062992},{"duration":0.1094889999999964,"midi":66,"time":140.255409,"velocity":0.15748031496062992},{"duration":0.1094889999999964,"midi":66,"time":140.36489799999998,"velocity":0.15748031496062992},{"duration":0.1094889999999964,"midi":57,"time":140.36489799999998,"velocity":0.15748031496062992},{"duration":0.1094889999999964,"midi":54,"time":140.47438699999998,"velocity":0.15748031496062992},{"duration":0.1094889999999964,"midi":54,"time":141.13132099999999,"velocity":0.15748031496062992},{"duration":0.1094889999999964,"midi":57,"time":141.24080999999998,"velocity":0.15748031496062992},{"duration":0.1094889999999964,"midi":59,"time":141.35029899999998,"velocity":0.15748031496062992},{"duration":0.10948900000002482,"midi":66,"time":144.08752399999997,"velocity":0.15748031496062992},{"duration":0.10948900000002482,"midi":57,"time":144.08752399999997,"velocity":0.15748031496062992},{"duration":0.1094889999999964,"midi":69,"time":144.306502,"velocity":0.15748031496062992},{"duration":0.1094889999999964,"midi":57,"time":144.306502,"velocity":0.15748031496062992},{"duration":0.1094889999999964,"midi":57,"time":144.415991,"velocity":0.15748031496062992},{"duration":0.1094889999999964,"midi":68,"time":144.415991,"velocity":0.15748031496062992},{"duration":0.1094889999999964,"midi":54,"time":144.63496899999998,"velocity":0.15748031496062992},{"duration":0.1094889999999964,"midi":57,"time":144.74445799999998,"velocity":0.15748031496062992},{"duration":0.1094889999999964,"midi":59,"time":144.85394699999998,"velocity":0.15748031496062992},{"duration":0.1094889999999964,"midi":54,"time":149.89044099999998,"velocity":0.15748031496062992},{"duration":0.1094889999999964,"midi":69,"time":149.99992999999998,"velocity":0.15748031496062992},{"duration":0.1094889999999964,"midi":66,"time":149.99992999999998,"velocity":0.15748031496062992},{"duration":0.1094889999999964,"midi":57,"time":149.99992999999998,"velocity":0.15748031496062992},{"duration":0.10948900000002482,"midi":57,"time":150.10941899999997,"velocity":0.15748031496062992},{"duration":0.10948900000002482,"midi":68,"time":150.10941899999997,"velocity":0.15748031496062992},{"duration":0.10948900000002482,"midi":66,"time":150.10941899999997,"velocity":0.15748031496062992},{"duration":0.1094889999999964,"midi":54,"time":150.218908,"velocity":0.15748031496062992},{"duration":0.1094889999999964,"midi":66,"time":150.328397,"velocity":0.15748031496062992},{"duration":0.1094889999999964,"midi":61,"time":150.328397,"velocity":0.15748031496062992},{"duration":0.1094889999999964,"midi":68,"time":150.328397,"velocity":0.15748031496062992},{"duration":0.1094889999999964,"midi":66,"time":150.437886,"velocity":0.15748031496062992},{"duration":0.1094889999999964,"midi":61,"time":150.437886,"velocity":0.15748031496062992},{"duration":0.1094889999999964,"midi":54,"time":152.40868799999998,"velocity":0.15748031496062992},{"duration":0.1094889999999964,"midi":69,"time":152.40868799999998,"velocity":0.15748031496062992},{"duration":0.1094889999999964,"midi":61,"time":152.40868799999998,"velocity":0.15748031496062992},{"duration":0.1094889999999964,"midi":61,"time":152.51817699999998,"velocity":0.15748031496062992},{"duration":0.1094889999999964,"midi":54,"time":152.51817699999998,"velocity":0.15748031496062992},{"duration":0.1094889999999964,"midi":68,"time":152.51817699999998,"velocity":0.15748031496062992},{"duration":0.10948900000002482,"midi":54,"time":152.73715499999997,"velocity":0.15748031496062992},{"duration":0.10948900000002482,"midi":64,"time":152.73715499999997,"velocity":0.15748031496062992},{"duration":0.10948900000002482,"midi":61,"time":152.73715499999997,"velocity":0.15748031496062992},{"duration":0.2189779999999928,"midi":66,"time":152.846644,"velocity":0.15748031496062992},{"duration":0.2189779999999928,"midi":61,"time":152.846644,"velocity":0.15748031496062992},{"duration":0.2189779999999928,"midi":54,"time":152.846644,"velocity":0.15748031496062992},{"duration":0.1094889999999964,"midi":66,"time":154.817446,"velocity":0.15748031496062992},{"duration":0.1094889999999964,"midi":61,"time":154.817446,"velocity":0.15748031496062992},{"duration":0.1094889999999964,"midi":69,"time":154.817446,"velocity":0.15748031496062992},{"duration":0.1094889999999964,"midi":66,"time":154.926935,"velocity":0.15748031496062992},{"duration":0.1094889999999964,"midi":61,"time":154.926935,"velocity":0.15748031496062992},{"duration":0.1094889999999964,"midi":68,"time":154.926935,"velocity":0.15748031496062992},{"duration":0.1094889999999964,"midi":59,"time":156.350292,"velocity":0.15748031496062992},{"duration":0.1094889999999964,"midi":57,"time":156.459781,"velocity":0.15748031496062992},{"duration":0.1094889999999964,"midi":54,"time":156.56927,"velocity":0.15748031496062992},{"duration":0.1094889999999964,"midi":49,"time":156.67875899999999,"velocity":0.15748031496062992},{"duration":0.1094889999999964,"midi":57,"time":156.78824799999998,"velocity":0.15748031496062992},{"duration":0.1094889999999964,"midi":61,"time":156.78824799999998,"velocity":0.15748031496062992},{"duration":0.1094889999999964,"midi":69,"time":156.78824799999998,"velocity":0.15748031496062992},{"duration":0.1094889999999964,"midi":66,"time":156.78824799999998,"velocity":0.15748031496062992},{"duration":0.1094889999999964,"midi":61,"time":156.89773699999998,"velocity":0.15748031496062992},{"duration":0.1094889999999964,"midi":57,"time":156.89773699999998,"velocity":0.15748031496062992},{"duration":0.1094889999999964,"midi":68,"time":156.89773699999998,"velocity":0.15748031496062992},{"duration":0.1094889999999964,"midi":66,"time":156.89773699999998,"velocity":0.15748031496062992},{"duration":0.1094889999999964,"midi":57,"time":157.00722599999997,"velocity":0.15748031496062992},{"duration":0.1094889999999964,"midi":61,"time":157.00722599999997,"velocity":0.15748031496062992},{"duration":0.10948900000002482,"midi":61,"time":157.11671499999997,"velocity":0.15748031496062992},{"duration":0.10948900000002482,"midi":57,"time":157.11671499999997,"velocity":0.15748031496062992},{"duration":0.10948900000002482,"midi":66,"time":157.11671499999997,"velocity":0.15748031496062992},{"duration":0.10948900000002482,"midi":64,"time":157.11671499999997,"velocity":0.15748031496062992},{"duration":0.2189779999999928,"midi":66,"time":157.226204,"velocity":0.15748031496062992},{"duration":0.2189779999999928,"midi":61,"time":157.226204,"velocity":0.15748031496062992},{"duration":0.2189779999999928,"midi":57,"time":157.226204,"velocity":0.15748031496062992},{"duration":0.1094889999999964,"midi":54,"time":158.64956099999998,"velocity":0.15748031496062992},{"duration":0.10948900000002482,"midi":57,"time":158.75904999999997,"velocity":0.15748031496062992},{"duration":0.1094889999999964,"midi":59,"time":158.868539,"velocity":0.15748031496062992},{"duration":0.1094889999999964,"midi":54,"time":161.27729699999998,"velocity":0.15748031496062992},{"duration":0.10948900000002482,"midi":57,"time":161.38678599999997,"velocity":0.15748031496062992},{"duration":0.1094889999999964,"midi":59,"time":161.496275,"velocity":0.15748031496062992},{"duration":0.1094889999999964,"midi":69,"time":163.79554399999998,"velocity":0.15748031496062992},{"duration":0.1094889999999964,"midi":61,"time":163.79554399999998,"velocity":0.15748031496062992},{"duration":0.1094889999999964,"midi":54,"time":163.79554399999998,"velocity":0.15748031496062992},{"duration":0.1094889999999964,"midi":54,"time":163.90503299999997,"velocity":0.15748031496062992},{"duration":0.1094889999999964,"midi":61,"time":163.90503299999997,"velocity":0.15748031496062992},{"duration":0.1094889999999964,"midi":68,"time":163.90503299999997,"velocity":0.15748031496062992},{"duration":0.10948900000002482,"midi":68,"time":164.01452199999997,"velocity":0.15748031496062992},{"duration":0.10948900000002482,"midi":54,"time":164.01452199999997,"velocity":0.15748031496062992},{"duration":0.10948900000002482,"midi":61,"time":164.01452199999997,"velocity":0.15748031496062992},{"duration":0.1094889999999964,"midi":54,"time":164.124011,"velocity":0.15748031496062992},{"duration":0.1094889999999964,"midi":61,"time":164.124011,"velocity":0.15748031496062992},{"duration":0.1094889999999964,"midi":57,"time":164.45247799999999,"velocity":0.15748031496062992},{"duration":0.1094889999999964,"midi":59,"time":164.56196699999998,"velocity":0.15748031496062992},{"duration":0.1094889999999964,"midi":54,"time":166.42327999999998,"velocity":0.15748031496062992},{"duration":0.1094889999999964,"midi":69,"time":166.42327999999998,"velocity":0.15748031496062992},{"duration":0.1094889999999964,"midi":61,"time":166.42327999999998,"velocity":0.15748031496062992},{"duration":0.1094889999999964,"midi":68,"time":166.53276899999997,"velocity":0.15748031496062992},{"duration":0.1094889999999964,"midi":61,"time":166.53276899999997,"velocity":0.15748031496062992},{"duration":0.1094889999999964,"midi":54,"time":166.53276899999997,"velocity":0.15748031496062992},{"duration":0.1094889999999964,"midi":54,"time":166.751747,"velocity":0.15748031496062992},{"duration":0.1094889999999964,"midi":66,"time":166.751747,"velocity":0.15748031496062992},{"duration":0.1094889999999964,"midi":61,"time":166.751747,"velocity":0.15748031496062992},{"duration":0.1094889999999964,"midi":66,"time":168.17510399999998,"velocity":0.15748031496062992},{"duration":0.1094889999999964,"midi":61,"time":168.17510399999998,"velocity":0.15748031496062992},{"duration":0.10948900000002482,"midi":66,"time":168.28459299999997,"velocity":0.15748031496062992},{"duration":0.1094889999999964,"midi":57,"time":168.394082,"velocity":0.15748031496062992},{"duration":0.1094889999999964,"midi":66,"time":168.394082,"velocity":0.15748031496062992},{"duration":0.1094889999999964,"midi":54,"time":168.503571,"velocity":0.15748031496062992},{"duration":0.10948900000002482,"midi":54,"time":169.16050499999997,"velocity":0.15748031496062992},{"duration":0.1094889999999964,"midi":57,"time":169.269994,"velocity":0.15748031496062992},{"duration":0.1094889999999964,"midi":59,"time":169.379483,"velocity":0.15748031496062992},{"duration":0.1094889999999964,"midi":66,"time":172.116708,"velocity":0.15748031496062992},{"duration":0.1094889999999964,"midi":57,"time":172.116708,"velocity":0.15748031496062992},{"duration":0.1094889999999964,"midi":57,"time":172.33568599999998,"velocity":0.15748031496062992},{"duration":0.1094889999999964,"midi":69,"time":172.33568599999998,"velocity":0.15748031496062992},{"duration":0.1094889999999964,"midi":68,"time":172.44517499999998,"velocity":0.15748031496062992},{"duration":0.1094889999999964,"midi":57,"time":172.44517499999998,"velocity":0.15748031496062992},{"duration":0.10948900000002482,"midi":54,"time":172.66415299999997,"velocity":0.15748031496062992},{"duration":0.1094889999999964,"midi":57,"time":172.773642,"velocity":0.15748031496062992},{"duration":0.1094889999999964,"midi":59,"time":172.883131,"velocity":0.15748031496062992},{"duration":0.1094889999999964,"midi":54,"time":177.919625,"velocity":0.15748031496062992},{"duration":0.1094889999999964,"midi":66,"time":178.029114,"velocity":0.15748031496062992},{"duration":0.1094889999999964,"midi":57,"time":178.029114,"velocity":0.15748031496062992},{"duration":0.1094889999999964,"midi":69,"time":178.029114,"velocity":0.15748031496062992},{"duration":0.1094889999999964,"midi":66,"time":178.138603,"velocity":0.15748031496062992},{"duration":0.1094889999999964,"midi":57,"time":178.138603,"velocity":0.15748031496062992},{"duration":0.1094889999999964,"midi":68,"time":178.138603,"velocity":0.15748031496062992},{"duration":0.1094889999999964,"midi":54,"time":178.24809199999999,"velocity":0.15748031496062992},{"duration":0.1094889999999964,"midi":66,"time":178.35758099999998,"velocity":0.15748031496062992},{"duration":0.1094889999999964,"midi":61,"time":178.35758099999998,"velocity":0.15748031496062992},{"duration":0.1094889999999964,"midi":68,"time":178.35758099999998,"velocity":0.15748031496062992},{"duration":0.1094889999999964,"midi":61,"time":178.46706999999998,"velocity":0.15748031496062992},{"duration":0.1094889999999964,"midi":66,"time":178.46706999999998,"velocity":0.15748031496062992},{"duration":0.10948900000002482,"midi":61,"time":180.43787199999997,"velocity":0.15748031496062992},{"duration":0.10948900000002482,"midi":54,"time":180.43787199999997,"velocity":0.15748031496062992},{"duration":0.10948900000002482,"midi":69,"time":180.43787199999997,"velocity":0.15748031496062992},{"duration":0.1094889999999964,"midi":54,"time":180.547361,"velocity":0.15748031496062992},{"duration":0.1094889999999964,"midi":68,"time":180.547361,"velocity":0.15748031496062992},{"duration":0.1094889999999964,"midi":61,"time":180.547361,"velocity":0.15748031496062992},{"duration":0.1094889999999964,"midi":61,"time":180.766339,"velocity":0.15748031496062992},{"duration":0.1094889999999964,"midi":64,"time":180.766339,"velocity":0.15748031496062992},{"duration":0.1094889999999964,"midi":54,"time":180.766339,"velocity":0.15748031496062992},{"duration":0.2189779999999928,"midi":61,"time":180.87582799999998,"velocity":0.15748031496062992},{"duration":0.2189779999999928,"midi":66,"time":180.87582799999998,"velocity":0.15748031496062992},{"duration":0.2189779999999928,"midi":54,"time":180.87582799999998,"velocity":0.15748031496062992},{"duration":0.1094889999999964,"midi":61,"time":182.84662999999998,"velocity":0.15748031496062992},{"duration":0.1094889999999964,"midi":66,"time":182.84662999999998,"velocity":0.15748031496062992},{"duration":0.1094889999999964,"midi":69,"time":182.84662999999998,"velocity":0.15748031496062992},{"duration":0.1094889999999964,"midi":66,"time":182.95611899999997,"velocity":0.15748031496062992},{"duration":0.1094889999999964,"midi":61,"time":182.95611899999997,"velocity":0.15748031496062992},{"duration":0.1094889999999964,"midi":68,"time":182.95611899999997,"velocity":0.15748031496062992},{"duration":0.1094889999999964,"midi":59,"time":184.37947599999998,"velocity":0.15748031496062992},{"duration":0.1094889999999964,"midi":57,"time":184.48896499999998,"velocity":0.15748031496062992},{"duration":0.1094889999999964,"midi":54,"time":184.59845399999998,"velocity":0.15748031496062992},{"duration":0.1094889999999964,"midi":49,"time":184.70794299999997,"velocity":0.15748031496062992},{"duration":0.10948900000002482,"midi":57,"time":184.81743199999997,"velocity":0.15748031496062992},{"duration":0.10948900000002482,"midi":66,"time":184.81743199999997,"velocity":0.15748031496062992},{"duration":0.10948900000002482,"midi":69,"time":184.81743199999997,"velocity":0.15748031496062992},{"duration":0.10948900000002482,"midi":61,"time":184.81743199999997,"velocity":0.15748031496062992},{"duration":0.1094889999999964,"midi":66,"time":184.926921,"velocity":0.15748031496062992},{"duration":0.1094889999999964,"midi":57,"time":184.926921,"velocity":0.15748031496062992},{"duration":0.1094889999999964,"midi":61,"time":184.926921,"velocity":0.15748031496062992},{"duration":0.1094889999999964,"midi":68,"time":184.926921,"velocity":0.15748031496062992},{"duration":0.1094889999999964,"midi":57,"time":185.03641,"velocity":0.15748031496062992},{"duration":0.1094889999999964,"midi":61,"time":185.03641,"velocity":0.15748031496062992},{"duration":0.1094889999999964,"midi":61,"time":185.145899,"velocity":0.15748031496062992},{"duration":0.1094889999999964,"midi":66,"time":185.145899,"velocity":0.15748031496062992},{"duration":0.1094889999999964,"midi":64,"time":185.145899,"velocity":0.15748031496062992},{"duration":0.1094889999999964,"midi":57,"time":185.145899,"velocity":0.15748031496062992},{"duration":0.2189779999999928,"midi":57,"time":185.25538799999998,"velocity":0.15748031496062992},{"duration":0.2189779999999928,"midi":61,"time":185.25538799999998,"velocity":0.15748031496062992},{"duration":0.2189779999999928,"midi":66,"time":185.25538799999998,"velocity":0.15748031496062992},{"duration":0.1094889999999964,"midi":54,"time":186.678745,"velocity":0.15748031496062992},{"duration":0.1094889999999964,"midi":57,"time":186.788234,"velocity":0.15748031496062992},{"duration":0.1094889999999964,"midi":59,"time":186.89772299999998,"velocity":0.15748031496062992},{"duration":0.1094889999999964,"midi":54,"time":189.306481,"velocity":0.15748031496062992},{"duration":0.1094889999999964,"midi":57,"time":189.41597,"velocity":0.15748031496062992},{"duration":0.1094889999999964,"midi":59,"time":189.52545899999998,"velocity":0.15748031496062992},{"duration":0.1094889999999964,"midi":54,"time":191.824728,"velocity":0.15748031496062992},{"duration":0.1094889999999964,"midi":61,"time":191.824728,"velocity":0.15748031496062992},{"duration":0.1094889999999964,"midi":69,"time":191.824728,"velocity":0.15748031496062992},{"duration":0.1094889999999964,"midi":61,"time":191.934217,"velocity":0.15748031496062992},{"duration":0.1094889999999964,"midi":54,"time":191.934217,"velocity":0.15748031496062992},{"duration":0.1094889999999964,"midi":68,"time":191.934217,"velocity":0.15748031496062992},{"duration":0.1094889999999964,"midi":54,"time":192.043706,"velocity":0.15748031496062992},{"duration":0.1094889999999964,"midi":61,"time":192.043706,"velocity":0.15748031496062992},{"duration":0.1094889999999964,"midi":68,"time":192.043706,"velocity":0.15748031496062992},{"duration":0.1094889999999964,"midi":61,"time":192.15319499999998,"velocity":0.15748031496062992},{"duration":0.1094889999999964,"midi":54,"time":192.15319499999998,"velocity":0.15748031496062992},{"duration":0.1094889999999964,"midi":57,"time":192.48166199999997,"velocity":0.15748031496062992},{"duration":0.10948900000002482,"midi":59,"time":192.59115099999997,"velocity":0.15748031496062992}]},{"instrument":{"family":"synth effects","number":99,"name":"fx 4 (atmosphere)"},"notes":[{"duration":0.10948899999999995,"midi":38,"time":14.014591999999999,"velocity":0.14960629921259844},{"duration":0.10948899999999995,"midi":36,"time":14.014591999999999,"velocity":0.14960629921259844},{"duration":0.10948899999999995,"midi":38,"time":14.014591999999999,"velocity":0.14960629921259844},{"duration":0.10948899999999995,"midi":38,"time":14.014591999999999,"velocity":0.14960629921259844},{"duration":0.10948899999999995,"midi":36,"time":14.124080999999999,"velocity":0.14960629921259844},{"duration":0.10948899999999995,"midi":38,"time":14.124080999999999,"velocity":0.14960629921259844},{"duration":0.10948899999999995,"midi":38,"time":14.124080999999999,"velocity":0.14960629921259844},{"duration":0.10948899999999995,"midi":38,"time":14.124080999999999,"velocity":0.14960629921259844},{"duration":0.10948899999999995,"midi":38,"time":14.671525999999998,"velocity":0.14960629921259844},{"duration":0.10948899999999995,"midi":38,"time":14.671525999999998,"velocity":0.14960629921259844},{"duration":0.10948899999999995,"midi":38,"time":14.671525999999998,"velocity":0.14960629921259844},{"duration":0.10948899999999995,"midi":36,"time":14.671525999999998,"velocity":0.14960629921259844},{"duration":0.10948899999999995,"midi":36,"time":14.781014999999998,"velocity":0.14960629921259844},{"duration":0.10948899999999995,"midi":38,"time":14.781014999999998,"velocity":0.14960629921259844},{"duration":0.10948899999999995,"midi":38,"time":14.781014999999998,"velocity":0.14960629921259844},{"duration":0.10948899999999995,"midi":38,"time":14.781014999999998,"velocity":0.14960629921259844},{"duration":0.10948899999999995,"midi":38,"time":15.328459999999998,"velocity":0.14960629921259844},{"duration":0.10948899999999995,"midi":38,"time":15.328459999999998,"velocity":0.14960629921259844},{"duration":0.10948899999999995,"midi":38,"time":15.328459999999998,"velocity":0.14960629921259844},{"duration":0.10948899999999995,"midi":36,"time":15.328459999999998,"velocity":0.14960629921259844},{"duration":0.10948899999999995,"midi":38,"time":15.437948999999998,"velocity":0.14960629921259844},{"duration":0.10948899999999995,"midi":36,"time":15.437948999999998,"velocity":0.14960629921259844},{"duration":0.10948899999999995,"midi":38,"time":15.437948999999998,"velocity":0.14960629921259844},{"duration":0.10948899999999995,"midi":38,"time":15.437948999999998,"velocity":0.14960629921259844},{"duration":0.10948899999999995,"midi":38,"time":15.766415999999998,"velocity":0.14960629921259844},{"duration":0.10948899999999995,"midi":38,"time":15.766415999999998,"velocity":0.14960629921259844},{"duration":0.10948899999999995,"midi":38,"time":15.766415999999998,"velocity":0.14960629921259844},{"duration":0.10948899999999995,"midi":36,"time":15.766415999999998,"velocity":0.14960629921259844},{"duration":0.10948899999999995,"midi":38,"time":15.875904999999998,"velocity":0.14960629921259844},{"duration":0.10948899999999995,"midi":38,"time":15.875904999999998,"velocity":0.14960629921259844},{"duration":0.10948899999999995,"midi":36,"time":15.875904999999998,"velocity":0.14960629921259844},{"duration":0.10948899999999995,"midi":38,"time":15.875904999999998,"velocity":0.14960629921259844},{"duration":0.10948899999999995,"midi":38,"time":16.42335,"velocity":0.14960629921259844},{"duration":0.10948899999999995,"midi":36,"time":16.42335,"velocity":0.14960629921259844},{"duration":0.10948899999999995,"midi":38,"time":16.42335,"velocity":0.14960629921259844},{"duration":0.10948899999999995,"midi":38,"time":16.42335,"velocity":0.14960629921259844},{"duration":0.10948899999999995,"midi":38,"time":16.532839,"velocity":0.14960629921259844},{"duration":0.10948899999999995,"midi":38,"time":16.532839,"velocity":0.14960629921259844},{"duration":0.10948899999999995,"midi":38,"time":16.532839,"velocity":0.14960629921259844},{"duration":0.10948899999999995,"midi":36,"time":16.532839,"velocity":0.14960629921259844},{"duration":0.10948899999999995,"midi":36,"time":17.080284,"velocity":0.14960629921259844},{"duration":0.10948899999999995,"midi":38,"time":17.080284,"velocity":0.14960629921259844},{"duration":0.10948899999999995,"midi":38,"time":17.080284,"velocity":0.14960629921259844},{"duration":0.10948899999999995,"midi":38,"time":17.080284,"velocity":0.14960629921259844},{"duration":0.10948899999999995,"midi":38,"time":17.189773,"velocity":0.14960629921259844},{"duration":0.10948899999999995,"midi":36,"time":17.189773,"velocity":0.14960629921259844},{"duration":0.10948899999999995,"midi":38,"time":17.189773,"velocity":0.14960629921259844},{"duration":0.10948899999999995,"midi":38,"time":17.189773,"velocity":0.14960629921259844},{"duration":0.10948899999999995,"midi":38,"time":17.51824,"velocity":0.14960629921259844},{"duration":0.10948899999999995,"midi":38,"time":17.51824,"velocity":0.14960629921259844},{"duration":0.10948899999999995,"midi":38,"time":17.51824,"velocity":0.14960629921259844},{"duration":0.10948899999999995,"midi":36,"time":17.51824,"velocity":0.14960629921259844},{"duration":0.10948899999999995,"midi":36,"time":17.627729,"velocity":0.14960629921259844},{"duration":0.10948899999999995,"midi":38,"time":17.627729,"velocity":0.14960629921259844},{"duration":0.10948899999999995,"midi":38,"time":17.627729,"velocity":0.14960629921259844},{"duration":0.10948899999999995,"midi":38,"time":17.627729,"velocity":0.14960629921259844},{"duration":0.10948899999999995,"midi":38,"time":18.175174,"velocity":0.14960629921259844},{"duration":0.10948899999999995,"midi":38,"time":18.175174,"velocity":0.14960629921259844},{"duration":0.10948899999999995,"midi":38,"time":18.175174,"velocity":0.14960629921259844},{"duration":0.10948899999999995,"midi":36,"time":18.175174,"velocity":0.14960629921259844},{"duration":0.10948899999999995,"midi":38,"time":18.284663,"velocity":0.14960629921259844},{"duration":0.10948899999999995,"midi":38,"time":18.284663,"velocity":0.14960629921259844},{"duration":0.10948899999999995,"midi":38,"time":18.284663,"velocity":0.14960629921259844},{"duration":0.10948899999999995,"midi":36,"time":18.284663,"velocity":0.14960629921259844},{"duration":0.10948899999999995,"midi":38,"time":18.832107999999998,"velocity":0.14960629921259844},{"duration":0.10948899999999995,"midi":38,"time":18.832107999999998,"velocity":0.14960629921259844},{"duration":0.10948899999999995,"midi":36,"time":18.832107999999998,"velocity":0.14960629921259844},{"duration":0.10948899999999995,"midi":38,"time":18.832107999999998,"velocity":0.14960629921259844},{"duration":0.10948899999999995,"midi":36,"time":18.941596999999998,"velocity":0.14960629921259844},{"duration":0.10948899999999995,"midi":38,"time":18.941596999999998,"velocity":0.14960629921259844},{"duration":0.10948899999999995,"midi":38,"time":18.941596999999998,"velocity":0.14960629921259844},{"duration":0.10948899999999995,"midi":38,"time":18.941596999999998,"velocity":0.14960629921259844},{"duration":0.10948899999999995,"midi":38,"time":19.270063999999998,"velocity":0.14960629921259844},{"duration":0.10948899999999995,"midi":38,"time":19.270063999999998,"velocity":0.14960629921259844},{"duration":0.10948899999999995,"midi":38,"time":19.270063999999998,"velocity":0.14960629921259844},{"duration":0.10948899999999995,"midi":36,"time":19.270063999999998,"velocity":0.14960629921259844},{"duration":0.10948899999999995,"midi":38,"time":19.379552999999998,"velocity":0.14960629921259844},{"duration":0.10948899999999995,"midi":38,"time":19.379552999999998,"velocity":0.14960629921259844},{"duration":0.10948899999999995,"midi":36,"time":19.379552999999998,"velocity":0.14960629921259844},{"duration":0.10948899999999995,"midi":38,"time":19.379552999999998,"velocity":0.14960629921259844},{"duration":0.10948899999999995,"midi":38,"time":19.926997999999998,"velocity":0.14960629921259844},{"duration":0.10948899999999995,"midi":38,"time":19.926997999999998,"velocity":0.14960629921259844},{"duration":0.10948899999999995,"midi":38,"time":19.926997999999998,"velocity":0.14960629921259844},{"duration":0.10948899999999995,"midi":36,"time":19.926997999999998,"velocity":0.14960629921259844},{"duration":0.10948899999999995,"midi":36,"time":20.036486999999997,"velocity":0.14960629921259844},{"duration":0.10948899999999995,"midi":38,"time":20.036486999999997,"velocity":0.14960629921259844},{"duration":0.10948899999999995,"midi":38,"time":20.036486999999997,"velocity":0.14960629921259844},{"duration":0.10948899999999995,"midi":38,"time":20.036486999999997,"velocity":0.14960629921259844},{"duration":0.10948899999999995,"midi":38,"time":20.583931999999997,"velocity":0.14960629921259844},{"duration":0.10948899999999995,"midi":38,"time":20.583931999999997,"velocity":0.14960629921259844},{"duration":0.10948899999999995,"midi":38,"time":20.583931999999997,"velocity":0.14960629921259844},{"duration":0.10948899999999995,"midi":36,"time":20.583931999999997,"velocity":0.14960629921259844},{"duration":0.10948899999999995,"midi":36,"time":20.693420999999997,"velocity":0.14960629921259844},{"duration":0.10948899999999995,"midi":38,"time":20.693420999999997,"velocity":0.14960629921259844},{"duration":0.10948899999999995,"midi":38,"time":20.693420999999997,"velocity":0.14960629921259844},{"duration":0.10948899999999995,"midi":38,"time":20.693420999999997,"velocity":0.14960629921259844},{"duration":0.10948899999999995,"midi":36,"time":21.021887999999997,"velocity":0.14960629921259844},{"duration":0.10948899999999995,"midi":38,"time":21.021887999999997,"velocity":0.14960629921259844},{"duration":0.10948899999999995,"midi":38,"time":21.021887999999997,"velocity":0.14960629921259844},{"duration":0.10948899999999995,"midi":38,"time":21.021887999999997,"velocity":0.14960629921259844},{"duration":0.10948899999999995,"midi":38,"time":21.131376999999997,"velocity":0.14960629921259844},{"duration":0.10948899999999995,"midi":36,"time":21.131376999999997,"velocity":0.14960629921259844},{"duration":0.10948899999999995,"midi":38,"time":21.131376999999997,"velocity":0.14960629921259844},{"duration":0.10948899999999995,"midi":38,"time":21.131376999999997,"velocity":0.14960629921259844},{"duration":0.10948899999999995,"midi":38,"time":21.678821999999997,"velocity":0.14960629921259844},{"duration":0.10948899999999995,"midi":38,"time":21.678821999999997,"velocity":0.14960629921259844},{"duration":0.10948899999999995,"midi":36,"time":21.678821999999997,"velocity":0.14960629921259844},{"duration":0.10948899999999995,"midi":38,"time":21.678821999999997,"velocity":0.14960629921259844},{"duration":0.10948899999999995,"midi":38,"time":21.788310999999997,"velocity":0.14960629921259844},{"duration":0.10948899999999995,"midi":38,"time":21.788310999999997,"velocity":0.14960629921259844},{"duration":0.10948899999999995,"midi":38,"time":21.788310999999997,"velocity":0.14960629921259844},{"duration":0.10948899999999995,"midi":36,"time":21.788310999999997,"velocity":0.14960629921259844},{"duration":0.10948899999999995,"midi":36,"time":22.335755999999996,"velocity":0.14960629921259844},{"duration":0.10948899999999995,"midi":38,"time":22.335755999999996,"velocity":0.14960629921259844},{"duration":0.10948899999999995,"midi":38,"time":22.335755999999996,"velocity":0.14960629921259844},{"duration":0.10948899999999995,"midi":38,"time":22.335755999999996,"velocity":0.14960629921259844},{"duration":0.10948899999999995,"midi":38,"time":22.445244999999996,"velocity":0.14960629921259844},{"duration":0.10948899999999995,"midi":38,"time":22.445244999999996,"velocity":0.14960629921259844},{"duration":0.10948899999999995,"midi":36,"time":22.445244999999996,"velocity":0.14960629921259844},{"duration":0.10948899999999995,"midi":38,"time":22.445244999999996,"velocity":0.14960629921259844},{"duration":0.10948899999999995,"midi":36,"time":22.773711999999996,"velocity":0.14960629921259844},{"duration":0.10948899999999995,"midi":38,"time":22.773711999999996,"velocity":0.14960629921259844},{"duration":0.10948899999999995,"midi":38,"time":22.773711999999996,"velocity":0.14960629921259844},{"duration":0.10948899999999995,"midi":38,"time":22.773711999999996,"velocity":0.14960629921259844},{"duration":0.10948899999999995,"midi":38,"time":22.883200999999996,"velocity":0.14960629921259844},{"duration":0.10948899999999995,"midi":38,"time":22.883200999999996,"velocity":0.14960629921259844},{"duration":0.10948899999999995,"midi":38,"time":22.883200999999996,"velocity":0.14960629921259844},{"duration":0.10948899999999995,"midi":36,"time":22.883200999999996,"velocity":0.14960629921259844},{"duration":0.10948899999999995,"midi":38,"time":23.430646,"velocity":0.14960629921259844},{"duration":0.10948899999999995,"midi":38,"time":23.430646,"velocity":0.14960629921259844},{"duration":0.10948899999999995,"midi":38,"time":23.430646,"velocity":0.14960629921259844},{"duration":0.10948899999999995,"midi":36,"time":23.430646,"velocity":0.14960629921259844},{"duration":0.10948899999999995,"midi":38,"time":23.540135,"velocity":0.14960629921259844},{"duration":0.10948899999999995,"midi":38,"time":23.540135,"velocity":0.14960629921259844},{"duration":0.10948899999999995,"midi":38,"time":23.540135,"velocity":0.14960629921259844},{"duration":0.10948899999999995,"midi":36,"time":23.540135,"velocity":0.14960629921259844},{"duration":0.10948899999999995,"midi":38,"time":24.08758,"velocity":0.14960629921259844},{"duration":0.10948899999999995,"midi":38,"time":24.08758,"velocity":0.14960629921259844},{"duration":0.10948899999999995,"midi":38,"time":24.08758,"velocity":0.14960629921259844},{"duration":0.10948899999999995,"midi":36,"time":24.08758,"velocity":0.14960629921259844},{"duration":0.10948899999999995,"midi":38,"time":24.197069,"velocity":0.14960629921259844},{"duration":0.10948899999999995,"midi":38,"time":24.197069,"velocity":0.14960629921259844},{"duration":0.10948899999999995,"midi":38,"time":24.197069,"velocity":0.14960629921259844},{"duration":0.10948899999999995,"midi":36,"time":24.197069,"velocity":0.14960629921259844},{"duration":0.10948899999999995,"midi":36,"time":24.525536,"velocity":0.14960629921259844},{"duration":0.10948899999999995,"midi":38,"time":24.525536,"velocity":0.14960629921259844},{"duration":0.10948899999999995,"midi":38,"time":24.525536,"velocity":0.14960629921259844},{"duration":0.10948899999999995,"midi":38,"time":24.525536,"velocity":0.14960629921259844},{"duration":0.10948899999999995,"midi":36,"time":24.635025,"velocity":0.14960629921259844},{"duration":0.10948899999999995,"midi":38,"time":24.635025,"velocity":0.14960629921259844},{"duration":0.10948899999999995,"midi":38,"time":24.635025,"velocity":0.14960629921259844},{"duration":0.10948899999999995,"midi":38,"time":24.635025,"velocity":0.14960629921259844},{"duration":0.10948899999999995,"midi":36,"time":25.18247,"velocity":0.14960629921259844},{"duration":0.10948899999999995,"midi":38,"time":25.18247,"velocity":0.14960629921259844},{"duration":0.10948899999999995,"midi":38,"time":25.18247,"velocity":0.14960629921259844},{"duration":0.10948899999999995,"midi":38,"time":25.18247,"velocity":0.14960629921259844},{"duration":0.10948899999999995,"midi":38,"time":25.291959,"velocity":0.14960629921259844},{"duration":0.10948899999999995,"midi":38,"time":25.291959,"velocity":0.14960629921259844},{"duration":0.10948899999999995,"midi":38,"time":25.291959,"velocity":0.14960629921259844},{"duration":0.10948899999999995,"midi":36,"time":25.291959,"velocity":0.14960629921259844},{"duration":0.10948899999999995,"midi":36,"time":25.839404,"velocity":0.14960629921259844},{"duration":0.10948899999999995,"midi":38,"time":25.839404,"velocity":0.14960629921259844},{"duration":0.10948899999999995,"midi":38,"time":25.839404,"velocity":0.14960629921259844},{"duration":0.10948899999999995,"midi":38,"time":25.839404,"velocity":0.14960629921259844},{"duration":0.10948899999999995,"midi":38,"time":25.948892999999998,"velocity":0.14960629921259844},{"duration":0.10948899999999995,"midi":38,"time":25.948892999999998,"velocity":0.14960629921259844},{"duration":0.10948899999999995,"midi":36,"time":25.948892999999998,"velocity":0.14960629921259844},{"duration":0.10948899999999995,"midi":38,"time":25.948892999999998,"velocity":0.14960629921259844},{"duration":0.10948899999999995,"midi":38,"time":26.277359999999998,"velocity":0.14960629921259844},{"duration":0.10948899999999995,"midi":36,"time":26.277359999999998,"velocity":0.14960629921259844},{"duration":0.10948899999999995,"midi":38,"time":26.277359999999998,"velocity":0.14960629921259844},{"duration":0.10948899999999995,"midi":38,"time":26.277359999999998,"velocity":0.14960629921259844},{"duration":0.10948899999999995,"midi":36,"time":26.386848999999998,"velocity":0.14960629921259844},{"duration":0.10948899999999995,"midi":38,"time":26.386848999999998,"velocity":0.14960629921259844},{"duration":0.10948899999999995,"midi":38,"time":26.386848999999998,"velocity":0.14960629921259844},{"duration":0.10948899999999995,"midi":38,"time":26.386848999999998,"velocity":0.14960629921259844},{"duration":0.10948899999999995,"midi":36,"time":26.934293999999998,"velocity":0.14960629921259844},{"duration":0.10948899999999995,"midi":38,"time":26.934293999999998,"velocity":0.14960629921259844},{"duration":0.10948899999999995,"midi":38,"time":26.934293999999998,"velocity":0.14960629921259844},{"duration":0.10948899999999995,"midi":38,"time":26.934293999999998,"velocity":0.14960629921259844},{"duration":0.10948899999999995,"midi":38,"time":27.043782999999998,"velocity":0.14960629921259844},{"duration":0.10948899999999995,"midi":36,"time":27.043782999999998,"velocity":0.14960629921259844},{"duration":0.10948899999999995,"midi":38,"time":27.043782999999998,"velocity":0.14960629921259844},{"duration":0.10948899999999995,"midi":38,"time":27.043782999999998,"velocity":0.14960629921259844},{"duration":0.10948899999999995,"midi":38,"time":27.591227999999997,"velocity":0.14960629921259844},{"duration":0.10948899999999995,"midi":38,"time":27.591227999999997,"velocity":0.14960629921259844},{"duration":0.10948899999999995,"midi":38,"time":27.591227999999997,"velocity":0.14960629921259844},{"duration":0.10948899999999995,"midi":36,"time":27.591227999999997,"velocity":0.14960629921259844},{"duration":0.10948899999999995,"midi":36,"time":27.700716999999997,"velocity":0.14960629921259844},{"duration":0.10948899999999995,"midi":38,"time":27.700716999999997,"velocity":0.14960629921259844},{"duration":0.10948899999999995,"midi":38,"time":27.700716999999997,"velocity":0.14960629921259844},{"duration":0.10948899999999995,"midi":38,"time":27.700716999999997,"velocity":0.14960629921259844},{"duration":0.10948899999999995,"midi":38,"time":28.029183999999997,"velocity":0.14960629921259844},{"duration":0.10948899999999995,"midi":36,"time":28.029183999999997,"velocity":0.14960629921259844},{"duration":0.10948899999999995,"midi":38,"time":28.138672999999997,"velocity":0.14960629921259844},{"duration":0.10948899999999995,"midi":36,"time":28.138672999999997,"velocity":0.14960629921259844},{"duration":0.10948899999999995,"midi":38,"time":28.248161999999997,"velocity":0.14960629921259844},{"duration":0.10948899999999995,"midi":36,"time":28.248161999999997,"velocity":0.14960629921259844},{"duration":0.10948899999999995,"midi":38,"time":28.357650999999997,"velocity":0.14960629921259844},{"duration":0.10948899999999995,"midi":36,"time":28.357650999999997,"velocity":0.14960629921259844},{"duration":0.10948899999999995,"midi":38,"time":28.467139999999997,"velocity":0.14960629921259844},{"duration":0.10948899999999995,"midi":36,"time":28.467139999999997,"velocity":0.14960629921259844},{"duration":0.10948899999999995,"midi":38,"time":28.576628999999997,"velocity":0.14960629921259844},{"duration":0.10948899999999995,"midi":36,"time":28.576628999999997,"velocity":0.14960629921259844},{"duration":0.10948899999999995,"midi":38,"time":28.686117999999997,"velocity":0.14960629921259844},{"duration":0.10948899999999995,"midi":36,"time":28.686117999999997,"velocity":0.14960629921259844},{"duration":0.10948899999999995,"midi":38,"time":28.795606999999997,"velocity":0.14960629921259844},{"duration":0.10948899999999995,"midi":36,"time":28.795606999999997,"velocity":0.14960629921259844},{"duration":0.10948899999999995,"midi":38,"time":28.905095999999997,"velocity":0.14960629921259844},{"duration":0.10948899999999995,"midi":36,"time":28.905095999999997,"velocity":0.14960629921259844},{"duration":0.10948899999999995,"midi":38,"time":29.014584999999997,"velocity":0.14960629921259844},{"duration":0.10948899999999995,"midi":36,"time":29.014584999999997,"velocity":0.14960629921259844},{"duration":0.10948899999999995,"midi":38,"time":29.124073999999997,"velocity":0.14960629921259844},{"duration":0.10948899999999995,"midi":36,"time":29.124073999999997,"velocity":0.14960629921259844},{"duration":0.10948899999999995,"midi":36,"time":29.233562999999997,"velocity":0.14960629921259844},{"duration":0.10948899999999995,"midi":38,"time":29.233562999999997,"velocity":0.14960629921259844},{"duration":0.10948899999999995,"midi":36,"time":29.343051999999997,"velocity":0.14960629921259844},{"duration":0.10948899999999995,"midi":38,"time":29.343051999999997,"velocity":0.14960629921259844},{"duration":0.10948899999999995,"midi":38,"time":29.452540999999997,"velocity":0.14960629921259844},{"duration":0.10948899999999995,"midi":36,"time":29.452540999999997,"velocity":0.14960629921259844},{"duration":0.10948899999999995,"midi":36,"time":29.562029999999996,"velocity":0.14960629921259844},{"duration":0.10948899999999995,"midi":38,"time":29.562029999999996,"velocity":0.14960629921259844},{"duration":0.10948899999999995,"midi":38,"time":29.671518999999996,"velocity":0.14960629921259844},{"duration":0.10948899999999995,"midi":36,"time":29.671518999999996,"velocity":0.14960629921259844},{"duration":0.10948899999999995,"midi":39,"time":29.781007999999996,"velocity":0.14960629921259844},{"duration":0.10948899999999995,"midi":37,"time":29.781007999999996,"velocity":0.14960629921259844},{"duration":0.10948899999999995,"midi":37,"time":29.890496999999996,"velocity":0.14960629921259844},{"duration":0.10948899999999995,"midi":39,"time":29.890496999999996,"velocity":0.14960629921259844},{"duration":0.10948899999999995,"midi":39,"time":29.999985999999996,"velocity":0.14960629921259844},{"duration":0.10948899999999995,"midi":37,"time":29.999985999999996,"velocity":0.14960629921259844},{"duration":0.10948899999999995,"midi":37,"time":30.109474999999996,"velocity":0.14960629921259844},{"duration":0.10948899999999995,"midi":39,"time":30.109474999999996,"velocity":0.14960629921259844},{"duration":0.10948899999999995,"midi":39,"time":30.218963999999996,"velocity":0.14960629921259844},{"duration":0.10948899999999995,"midi":37,"time":30.218963999999996,"velocity":0.14960629921259844},{"duration":0.10948899999999995,"midi":37,"time":30.328452999999996,"velocity":0.14960629921259844},{"duration":0.10948899999999995,"midi":39,"time":30.328452999999996,"velocity":0.14960629921259844},{"duration":0.10948899999999995,"midi":39,"time":30.437941999999996,"velocity":0.14960629921259844},{"duration":0.10948899999999995,"midi":37,"time":30.437941999999996,"velocity":0.14960629921259844},{"duration":0.10948899999999995,"midi":37,"time":30.547430999999996,"velocity":0.14960629921259844},{"duration":0.10948899999999995,"midi":39,"time":30.547430999999996,"velocity":0.14960629921259844},{"duration":0.10948899999999995,"midi":39,"time":30.656919999999996,"velocity":0.14960629921259844},{"duration":0.10948899999999995,"midi":37,"time":30.656919999999996,"velocity":0.14960629921259844},{"duration":0.10948899999999995,"midi":37,"time":30.766408999999996,"velocity":0.14960629921259844},{"duration":0.10948899999999995,"midi":39,"time":30.766408999999996,"velocity":0.14960629921259844},{"duration":0.10948899999999995,"midi":39,"time":30.875897999999996,"velocity":0.14960629921259844},{"duration":0.10948899999999995,"midi":37,"time":30.875897999999996,"velocity":0.14960629921259844},{"duration":0.10948899999999995,"midi":37,"time":30.985386999999996,"velocity":0.14960629921259844},{"duration":0.10948899999999995,"midi":39,"time":30.985386999999996,"velocity":0.14960629921259844},{"duration":0.10948899999999995,"midi":39,"time":31.094875999999996,"velocity":0.14960629921259844},{"duration":0.10948899999999995,"midi":37,"time":31.094875999999996,"velocity":0.14960629921259844},{"duration":0.10948899999999995,"midi":39,"time":31.204364999999996,"velocity":0.14960629921259844},{"duration":0.10948899999999995,"midi":37,"time":31.204364999999996,"velocity":0.14960629921259844},{"duration":0.10948899999999995,"midi":39,"time":31.313853999999996,"velocity":0.14960629921259844},{"duration":0.10948899999999995,"midi":37,"time":31.313853999999996,"velocity":0.14960629921259844},{"duration":0.10948899999999995,"midi":37,"time":31.423342999999996,"velocity":0.14960629921259844},{"duration":0.10948899999999995,"midi":39,"time":31.423342999999996,"velocity":0.14960629921259844},{"duration":0.10948899999999995,"midi":36,"time":31.532831999999996,"velocity":0.14960629921259844},{"duration":0.10948899999999995,"midi":38,"time":31.532831999999996,"velocity":0.14960629921259844},{"duration":0.10948899999999995,"midi":36,"time":31.642320999999995,"velocity":0.14960629921259844},{"duration":0.10948899999999995,"midi":38,"time":31.642320999999995,"velocity":0.14960629921259844},{"duration":0.10948899999999995,"midi":38,"time":31.751809999999995,"velocity":0.14960629921259844},{"duration":0.10948899999999995,"midi":36,"time":31.751809999999995,"velocity":0.14960629921259844},{"duration":0.10948899999999995,"midi":38,"time":31.861298999999995,"velocity":0.14960629921259844},{"duration":0.10948899999999995,"midi":36,"time":31.861298999999995,"velocity":0.14960629921259844},{"duration":0.10948899999999995,"midi":36,"time":31.970787999999995,"velocity":0.14960629921259844},{"duration":0.10948899999999995,"midi":38,"time":31.970787999999995,"velocity":0.14960629921259844},{"duration":0.1094890000000035,"midi":38,"time":32.080276999999995,"velocity":0.14960629921259844},{"duration":0.1094890000000035,"midi":36,"time":32.080276999999995,"velocity":0.14960629921259844},{"duration":0.1094889999999964,"midi":36,"time":32.189766,"velocity":0.14960629921259844},{"duration":0.1094889999999964,"midi":38,"time":32.189766,"velocity":0.14960629921259844},{"duration":0.1094890000000035,"midi":38,"time":32.299254999999995,"velocity":0.14960629921259844},{"duration":0.1094890000000035,"midi":36,"time":32.299254999999995,"velocity":0.14960629921259844},{"duration":0.1094889999999964,"midi":38,"time":32.408744,"velocity":0.14960629921259844},{"duration":0.1094889999999964,"midi":36,"time":32.408744,"velocity":0.14960629921259844},{"duration":0.1094890000000035,"midi":38,"time":32.518232999999995,"velocity":0.14960629921259844},{"duration":0.1094890000000035,"midi":36,"time":32.518232999999995,"velocity":0.14960629921259844},{"duration":0.1094889999999964,"midi":38,"time":32.627722,"velocity":0.14960629921259844},{"duration":0.1094889999999964,"midi":36,"time":32.627722,"velocity":0.14960629921259844},{"duration":0.1094890000000035,"midi":38,"time":32.737210999999995,"velocity":0.14960629921259844},{"duration":0.1094890000000035,"midi":36,"time":32.737210999999995,"velocity":0.14960629921259844},{"duration":0.1094889999999964,"midi":38,"time":32.8467,"velocity":0.14960629921259844},{"duration":0.1094889999999964,"midi":36,"time":32.8467,"velocity":0.14960629921259844},{"duration":0.1094890000000035,"midi":38,"time":32.956188999999995,"velocity":0.14960629921259844},{"duration":0.1094890000000035,"midi":36,"time":32.956188999999995,"velocity":0.14960629921259844},{"duration":0.1094889999999964,"midi":38,"time":33.065678,"velocity":0.14960629921259844},{"duration":0.1094889999999964,"midi":36,"time":33.065678,"velocity":0.14960629921259844},{"duration":0.1094890000000035,"midi":36,"time":33.175166999999995,"velocity":0.14960629921259844},{"duration":0.1094890000000035,"midi":38,"time":33.175166999999995,"velocity":0.14960629921259844},{"duration":0.1094889999999964,"midi":39,"time":33.284656,"velocity":0.14960629921259844},{"duration":0.1094889999999964,"midi":37,"time":33.284656,"velocity":0.14960629921259844},{"duration":0.1094890000000035,"midi":37,"time":33.394144999999995,"velocity":0.14960629921259844},{"duration":0.1094890000000035,"midi":39,"time":33.394144999999995,"velocity":0.14960629921259844},{"duration":0.1094889999999964,"midi":37,"time":33.503634,"velocity":0.14960629921259844},{"duration":0.1094889999999964,"midi":39,"time":33.503634,"velocity":0.14960629921259844},{"duration":0.1094890000000035,"midi":39,"time":33.613122999999995,"velocity":0.14960629921259844},{"duration":0.1094890000000035,"midi":37,"time":33.613122999999995,"velocity":0.14960629921259844},{"duration":0.1094889999999964,"midi":39,"time":33.722612,"velocity":0.14960629921259844},{"duration":0.1094889999999964,"midi":37,"time":33.722612,"velocity":0.14960629921259844},{"duration":0.1094890000000035,"midi":37,"time":33.832100999999994,"velocity":0.14960629921259844},{"duration":0.1094890000000035,"midi":39,"time":33.832100999999994,"velocity":0.14960629921259844},{"duration":0.1094889999999964,"midi":37,"time":33.94159,"velocity":0.14960629921259844},{"duration":0.1094889999999964,"midi":39,"time":33.94159,"velocity":0.14960629921259844},{"duration":0.1094890000000035,"midi":39,"time":34.051078999999994,"velocity":0.14960629921259844},{"duration":0.1094890000000035,"midi":37,"time":34.051078999999994,"velocity":0.14960629921259844},{"duration":0.1094889999999964,"midi":39,"time":34.160568,"velocity":0.14960629921259844},{"duration":0.1094889999999964,"midi":37,"time":34.160568,"velocity":0.14960629921259844},{"duration":0.1094890000000035,"midi":37,"time":34.270056999999994,"velocity":0.14960629921259844},{"duration":0.1094890000000035,"midi":39,"time":34.270056999999994,"velocity":0.14960629921259844},{"duration":0.1094889999999964,"midi":37,"time":34.379546,"velocity":0.14960629921259844},{"duration":0.1094889999999964,"midi":39,"time":34.379546,"velocity":0.14960629921259844},{"duration":0.1094890000000035,"midi":39,"time":34.489034999999994,"velocity":0.14960629921259844},{"duration":0.1094890000000035,"midi":37,"time":34.489034999999994,"velocity":0.14960629921259844},{"duration":0.1094889999999964,"midi":37,"time":34.598524,"velocity":0.14960629921259844},{"duration":0.1094889999999964,"midi":39,"time":34.598524,"velocity":0.14960629921259844},{"duration":0.1094890000000035,"midi":37,"time":34.708012999999994,"velocity":0.14960629921259844},{"duration":0.1094890000000035,"midi":39,"time":34.708012999999994,"velocity":0.14960629921259844},{"duration":0.1094889999999964,"midi":39,"time":34.817502,"velocity":0.14960629921259844},{"duration":0.1094889999999964,"midi":37,"time":34.817502,"velocity":0.14960629921259844},{"duration":0.1094890000000035,"midi":37,"time":34.926990999999994,"velocity":0.14960629921259844},{"duration":0.1094890000000035,"midi":39,"time":34.926990999999994,"velocity":0.14960629921259844},{"duration":0.1094889999999964,"midi":36,"time":35.03648,"velocity":0.14960629921259844},{"duration":0.1094889999999964,"midi":38,"time":35.03648,"velocity":0.14960629921259844},{"duration":0.1094890000000035,"midi":38,"time":35.145968999999994,"velocity":0.14960629921259844},{"duration":0.1094890000000035,"midi":36,"time":35.145968999999994,"velocity":0.14960629921259844},{"duration":0.1094889999999964,"midi":38,"time":35.255458,"velocity":0.14960629921259844},{"duration":0.1094889999999964,"midi":36,"time":35.255458,"velocity":0.14960629921259844},{"duration":0.1094890000000035,"midi":36,"time":35.364946999999994,"velocity":0.14960629921259844},{"duration":0.1094890000000035,"midi":38,"time":35.364946999999994,"velocity":0.14960629921259844},{"duration":0.1094889999999964,"midi":36,"time":35.474436,"velocity":0.14960629921259844},{"duration":0.1094889999999964,"midi":38,"time":35.474436,"velocity":0.14960629921259844},{"duration":0.1094890000000035,"midi":38,"time":35.583924999999994,"velocity":0.14960629921259844},{"duration":0.1094890000000035,"midi":36,"time":35.583924999999994,"velocity":0.14960629921259844},{"duration":0.1094889999999964,"midi":36,"time":35.693414,"velocity":0.14960629921259844},{"duration":0.1094889999999964,"midi":38,"time":35.693414,"velocity":0.14960629921259844},{"duration":0.1094890000000035,"midi":38,"time":35.80290299999999,"velocity":0.14960629921259844},{"duration":0.1094890000000035,"midi":36,"time":35.80290299999999,"velocity":0.14960629921259844},{"duration":0.1094889999999964,"midi":36,"time":35.912392,"velocity":0.14960629921259844},{"duration":0.1094889999999964,"midi":38,"time":35.912392,"velocity":0.14960629921259844},{"duration":0.1094890000000035,"midi":36,"time":36.02188099999999,"velocity":0.14960629921259844},{"duration":0.1094890000000035,"midi":38,"time":36.02188099999999,"velocity":0.14960629921259844},{"duration":0.1094889999999964,"midi":38,"time":36.13137,"velocity":0.14960629921259844},{"duration":0.1094889999999964,"midi":36,"time":36.13137,"velocity":0.14960629921259844},{"duration":0.1094890000000035,"midi":38,"time":36.24085899999999,"velocity":0.14960629921259844},{"duration":0.1094890000000035,"midi":36,"time":36.24085899999999,"velocity":0.14960629921259844},{"duration":0.1094889999999964,"midi":36,"time":36.350348,"velocity":0.14960629921259844},{"duration":0.1094889999999964,"midi":38,"time":36.350348,"velocity":0.14960629921259844},{"duration":0.1094890000000035,"midi":36,"time":36.45983699999999,"velocity":0.14960629921259844},{"duration":0.1094890000000035,"midi":38,"time":36.45983699999999,"velocity":0.14960629921259844},{"duration":0.1094889999999964,"midi":38,"time":36.569326,"velocity":0.14960629921259844},{"duration":0.1094889999999964,"midi":36,"time":36.569326,"velocity":0.14960629921259844},{"duration":0.1094890000000035,"midi":38,"time":36.67881499999999,"velocity":0.14960629921259844},{"duration":0.1094890000000035,"midi":36,"time":36.67881499999999,"velocity":0.14960629921259844},{"duration":0.1094889999999964,"midi":39,"time":36.788304,"velocity":0.14960629921259844},{"duration":0.1094889999999964,"midi":37,"time":36.788304,"velocity":0.14960629921259844},{"duration":0.1094890000000035,"midi":37,"time":36.89779299999999,"velocity":0.14960629921259844},{"duration":0.1094890000000035,"midi":39,"time":36.89779299999999,"velocity":0.14960629921259844},{"duration":0.1094889999999964,"midi":37,"time":37.007282,"velocity":0.14960629921259844},{"duration":0.1094889999999964,"midi":39,"time":37.007282,"velocity":0.14960629921259844},{"duration":0.1094890000000035,"midi":37,"time":37.11677099999999,"velocity":0.14960629921259844},{"duration":0.1094890000000035,"midi":39,"time":37.11677099999999,"velocity":0.14960629921259844},{"duration":0.1094889999999964,"midi":39,"time":37.226259999999996,"velocity":0.14960629921259844},{"duration":0.1094889999999964,"midi":37,"time":37.226259999999996,"velocity":0.14960629921259844},{"duration":0.1094890000000035,"midi":39,"time":37.33574899999999,"velocity":0.14960629921259844},{"duration":0.1094890000000035,"midi":37,"time":37.33574899999999,"velocity":0.14960629921259844},{"duration":0.1094890000000035,"midi":37,"time":37.445237999999996,"velocity":0.14960629921259844},{"duration":0.1094890000000035,"midi":39,"time":37.445237999999996,"velocity":0.14960629921259844},{"duration":0.1094889999999964,"midi":37,"time":37.554727,"velocity":0.14960629921259844},{"duration":0.1094889999999964,"midi":39,"time":37.554727,"velocity":0.14960629921259844},{"duration":0.1094890000000035,"midi":37,"time":37.664215999999996,"velocity":0.14960629921259844},{"duration":0.1094890000000035,"midi":39,"time":37.664215999999996,"velocity":0.14960629921259844},{"duration":0.1094889999999964,"midi":39,"time":37.773705,"velocity":0.14960629921259844},{"duration":0.1094889999999964,"midi":37,"time":37.773705,"velocity":0.14960629921259844},{"duration":0.1094890000000035,"midi":37,"time":37.883193999999996,"velocity":0.14960629921259844},{"duration":0.1094890000000035,"midi":39,"time":37.883193999999996,"velocity":0.14960629921259844},{"duration":0.1094889999999964,"midi":37,"time":37.992683,"velocity":0.14960629921259844},{"duration":0.1094889999999964,"midi":39,"time":37.992683,"velocity":0.14960629921259844},{"duration":0.1094890000000035,"midi":37,"time":38.102171999999996,"velocity":0.14960629921259844},{"duration":0.1094890000000035,"midi":39,"time":38.102171999999996,"velocity":0.14960629921259844},{"duration":0.1094889999999964,"midi":37,"time":38.211661,"velocity":0.14960629921259844},{"duration":0.1094889999999964,"midi":39,"time":38.211661,"velocity":0.14960629921259844},{"duration":0.1094890000000035,"midi":37,"time":38.321149999999996,"velocity":0.14960629921259844},{"duration":0.1094890000000035,"midi":39,"time":38.321149999999996,"velocity":0.14960629921259844},{"duration":0.1094889999999964,"midi":37,"time":38.430639,"velocity":0.14960629921259844},{"duration":0.1094889999999964,"midi":39,"time":38.430639,"velocity":0.14960629921259844},{"duration":0.1094890000000035,"midi":36,"time":38.540127999999996,"velocity":0.14960629921259844},{"duration":0.1094890000000035,"midi":38,"time":38.540127999999996,"velocity":0.14960629921259844},{"duration":0.1094889999999964,"midi":36,"time":38.649617,"velocity":0.14960629921259844},{"duration":0.1094889999999964,"midi":38,"time":38.649617,"velocity":0.14960629921259844},{"duration":0.1094890000000035,"midi":38,"time":38.759105999999996,"velocity":0.14960629921259844},{"duration":0.1094890000000035,"midi":36,"time":38.759105999999996,"velocity":0.14960629921259844},{"duration":0.1094889999999964,"midi":36,"time":38.868595,"velocity":0.14960629921259844},{"duration":0.1094889999999964,"midi":38,"time":38.868595,"velocity":0.14960629921259844},{"duration":0.1094890000000035,"midi":36,"time":38.978083999999996,"velocity":0.14960629921259844},{"duration":0.1094890000000035,"midi":38,"time":38.978083999999996,"velocity":0.14960629921259844},{"duration":0.1094889999999964,"midi":38,"time":39.087573,"velocity":0.14960629921259844},{"duration":0.1094889999999964,"midi":36,"time":39.087573,"velocity":0.14960629921259844},{"duration":0.1094890000000035,"midi":38,"time":39.197061999999995,"velocity":0.14960629921259844},{"duration":0.1094890000000035,"midi":36,"time":39.197061999999995,"velocity":0.14960629921259844},{"duration":0.1094889999999964,"midi":36,"time":39.306551,"velocity":0.14960629921259844},{"duration":0.1094889999999964,"midi":38,"time":39.306551,"velocity":0.14960629921259844},{"duration":0.1094890000000035,"midi":36,"time":39.416039999999995,"velocity":0.14960629921259844},{"duration":0.1094890000000035,"midi":38,"time":39.416039999999995,"velocity":0.14960629921259844},{"duration":0.1094889999999964,"midi":38,"time":39.525529,"velocity":0.14960629921259844},{"duration":0.1094889999999964,"midi":36,"time":39.525529,"velocity":0.14960629921259844},{"duration":0.1094890000000035,"midi":36,"time":39.635017999999995,"velocity":0.14960629921259844},{"duration":0.1094890000000035,"midi":38,"time":39.635017999999995,"velocity":0.14960629921259844},{"duration":0.1094889999999964,"midi":38,"time":39.744507,"velocity":0.14960629921259844},{"duration":0.1094889999999964,"midi":36,"time":39.744507,"velocity":0.14960629921259844},{"duration":0.1094890000000035,"midi":36,"time":39.853995999999995,"velocity":0.14960629921259844},{"duration":0.1094890000000035,"midi":38,"time":39.853995999999995,"velocity":0.14960629921259844},{"duration":0.1094889999999964,"midi":38,"time":39.963485,"velocity":0.14960629921259844},{"duration":0.1094889999999964,"midi":36,"time":39.963485,"velocity":0.14960629921259844},{"duration":0.1094890000000035,"midi":36,"time":40.072973999999995,"velocity":0.14960629921259844},{"duration":0.1094890000000035,"midi":38,"time":40.072973999999995,"velocity":0.14960629921259844},{"duration":0.1094889999999964,"midi":38,"time":40.182463,"velocity":0.14960629921259844},{"duration":0.1094889999999964,"midi":36,"time":40.182463,"velocity":0.14960629921259844},{"duration":0.1094890000000035,"midi":39,"time":40.291951999999995,"velocity":0.14960629921259844},{"duration":0.1094890000000035,"midi":37,"time":40.291951999999995,"velocity":0.14960629921259844},{"duration":0.1094889999999964,"midi":37,"time":40.401441,"velocity":0.14960629921259844},{"duration":0.1094889999999964,"midi":39,"time":40.401441,"velocity":0.14960629921259844},{"duration":0.1094890000000035,"midi":39,"time":40.510929999999995,"velocity":0.14960629921259844},{"duration":0.1094890000000035,"midi":37,"time":40.510929999999995,"velocity":0.14960629921259844},{"duration":0.1094889999999964,"midi":37,"time":40.620419,"velocity":0.14960629921259844},{"duration":0.1094889999999964,"midi":39,"time":40.620419,"velocity":0.14960629921259844},{"duration":0.1094890000000035,"midi":39,"time":40.729907999999995,"velocity":0.14960629921259844},{"duration":0.1094890000000035,"midi":37,"time":40.729907999999995,"velocity":0.14960629921259844},{"duration":0.1094889999999964,"midi":37,"time":40.839397,"velocity":0.14960629921259844},{"duration":0.1094889999999964,"midi":39,"time":40.839397,"velocity":0.14960629921259844},{"duration":0.1094890000000035,"midi":39,"time":40.948885999999995,"velocity":0.14960629921259844},{"duration":0.1094890000000035,"midi":37,"time":40.948885999999995,"velocity":0.14960629921259844},{"duration":0.1094889999999964,"midi":39,"time":41.058375,"velocity":0.14960629921259844},{"duration":0.1094889999999964,"midi":37,"time":41.058375,"velocity":0.14960629921259844},{"duration":0.1094890000000035,"midi":39,"time":41.167863999999994,"velocity":0.14960629921259844},{"duration":0.1094890000000035,"midi":37,"time":41.167863999999994,"velocity":0.14960629921259844},{"duration":0.1094889999999964,"midi":39,"time":41.277353,"velocity":0.14960629921259844},{"duration":0.1094889999999964,"midi":37,"time":41.277353,"velocity":0.14960629921259844},{"duration":0.1094890000000035,"midi":37,"time":41.386841999999994,"velocity":0.14960629921259844},{"duration":0.1094890000000035,"midi":39,"time":41.386841999999994,"velocity":0.14960629921259844},{"duration":0.1094889999999964,"midi":37,"time":41.496331,"velocity":0.14960629921259844},{"duration":0.1094889999999964,"midi":39,"time":41.496331,"velocity":0.14960629921259844},{"duration":0.1094890000000035,"midi":39,"time":41.605819999999994,"velocity":0.14960629921259844},{"duration":0.1094890000000035,"midi":37,"time":41.605819999999994,"velocity":0.14960629921259844},{"duration":0.1094889999999964,"midi":37,"time":41.715309,"velocity":0.14960629921259844},{"duration":0.1094889999999964,"midi":39,"time":41.715309,"velocity":0.14960629921259844},{"duration":0.1094890000000035,"midi":39,"time":41.824797999999994,"velocity":0.14960629921259844},{"duration":0.1094890000000035,"midi":37,"time":41.824797999999994,"velocity":0.14960629921259844},{"duration":0.1094889999999964,"midi":37,"time":41.934287,"velocity":0.14960629921259844},{"duration":0.1094889999999964,"midi":39,"time":41.934287,"velocity":0.14960629921259844},{"duration":0.1094890000000035,"midi":38,"time":42.043775999999994,"velocity":0.14960629921259844},{"duration":0.1094890000000035,"midi":36,"time":42.043775999999994,"velocity":0.14960629921259844},{"duration":0.1094889999999964,"midi":36,"time":42.153265,"velocity":0.14960629921259844},{"duration":0.1094889999999964,"midi":38,"time":42.153265,"velocity":0.14960629921259844},{"duration":0.1094889999999964,"midi":38,"time":42.372243,"velocity":0.14960629921259844},{"duration":0.1094889999999964,"midi":36,"time":42.372243,"velocity":0.14960629921259844},{"duration":0.1094889999999964,"midi":38,"time":42.5364765,"velocity":0.14960629921259844},{"duration":0.1094889999999964,"midi":36,"time":42.5364765,"velocity":0.14960629921259844},{"duration":0.1094890000000035,"midi":36,"time":42.700709999999994,"velocity":0.14960629921259844},{"duration":0.1094890000000035,"midi":38,"time":42.700709999999994,"velocity":0.14960629921259844},{"duration":0.1094890000000035,"midi":38,"time":42.919687999999994,"velocity":0.14960629921259844},{"duration":0.1094890000000035,"midi":36,"time":42.919687999999994,"velocity":0.14960629921259844},{"duration":0.1094889999999964,"midi":38,"time":43.029177,"velocity":0.14960629921259844},{"duration":0.1094889999999964,"midi":36,"time":43.029177,"velocity":0.14960629921259844},{"duration":0.1094889999999964,"midi":38,"time":43.248155,"velocity":0.14960629921259844},{"duration":0.1094889999999964,"midi":36,"time":43.248155,"velocity":0.14960629921259844},{"duration":0.1094889999999964,"midi":36,"time":43.4123885,"velocity":0.14960629921259844},{"duration":0.1094889999999964,"midi":38,"time":43.4123885,"velocity":0.14960629921259844},{"duration":0.1094890000000035,"midi":38,"time":43.57662199999999,"velocity":0.14960629921259844},{"duration":0.1094890000000035,"midi":36,"time":43.57662199999999,"velocity":0.14960629921259844},{"duration":0.1094890000000035,"midi":39,"time":43.79559999999999,"velocity":0.14960629921259844},{"duration":0.1094890000000035,"midi":37,"time":43.79559999999999,"velocity":0.14960629921259844},{"duration":0.1094889999999964,"midi":39,"time":43.905089,"velocity":0.14960629921259844},{"duration":0.1094889999999964,"midi":37,"time":43.905089,"velocity":0.14960629921259844},{"duration":0.1094889999999964,"midi":39,"time":44.124067,"velocity":0.14960629921259844},{"duration":0.1094889999999964,"midi":37,"time":44.124067,"velocity":0.14960629921259844},{"duration":0.1094889999999964,"midi":37,"time":44.2883005,"velocity":0.14960629921259844},{"duration":0.1094889999999964,"midi":39,"time":44.2883005,"velocity":0.14960629921259844},{"duration":0.1094890000000035,"midi":39,"time":44.45253399999999,"velocity":0.14960629921259844},{"duration":0.1094890000000035,"midi":37,"time":44.45253399999999,"velocity":0.14960629921259844},{"duration":0.1094890000000035,"midi":39,"time":44.67151199999999,"velocity":0.14960629921259844},{"duration":0.1094890000000035,"midi":37,"time":44.67151199999999,"velocity":0.14960629921259844},{"duration":0.1094889999999964,"midi":39,"time":44.781000999999996,"velocity":0.14960629921259844},{"duration":0.1094889999999964,"midi":37,"time":44.781000999999996,"velocity":0.14960629921259844},{"duration":0.1094889999999964,"midi":39,"time":44.999978999999996,"velocity":0.14960629921259844},{"duration":0.1094889999999964,"midi":37,"time":44.999978999999996,"velocity":0.14960629921259844},{"duration":0.1094889999999964,"midi":39,"time":45.1642125,"velocity":0.14960629921259844},{"duration":0.1094889999999964,"midi":37,"time":45.1642125,"velocity":0.14960629921259844},{"duration":0.1094890000000035,"midi":39,"time":45.32844599999999,"velocity":0.14960629921259844},{"duration":0.1094890000000035,"midi":37,"time":45.32844599999999,"velocity":0.14960629921259844},{"duration":0.1094890000000035,"midi":38,"time":45.54742399999999,"velocity":0.14960629921259844},{"duration":0.1094890000000035,"midi":36,"time":45.54742399999999,"velocity":0.14960629921259844},{"duration":0.1094889999999964,"midi":36,"time":45.656912999999996,"velocity":0.14960629921259844},{"duration":0.1094889999999964,"midi":38,"time":45.656912999999996,"velocity":0.14960629921259844},{"duration":0.1094889999999964,"midi":38,"time":45.875890999999996,"velocity":0.14960629921259844},{"duration":0.1094889999999964,"midi":36,"time":45.875890999999996,"velocity":0.14960629921259844},{"duration":0.1094889999999964,"midi":36,"time":46.0401245,"velocity":0.14960629921259844},{"duration":0.1094889999999964,"midi":38,"time":46.0401245,"velocity":0.14960629921259844},{"duration":0.1094890000000035,"midi":38,"time":46.20435799999999,"velocity":0.14960629921259844},{"duration":0.1094890000000035,"midi":36,"time":46.20435799999999,"velocity":0.14960629921259844},{"duration":0.1094890000000035,"midi":38,"time":46.42333599999999,"velocity":0.14960629921259844},{"duration":0.1094890000000035,"midi":36,"time":46.42333599999999,"velocity":0.14960629921259844},{"duration":0.1094889999999964,"midi":38,"time":46.532824999999995,"velocity":0.14960629921259844},{"duration":0.1094889999999964,"midi":36,"time":46.532824999999995,"velocity":0.14960629921259844},{"duration":0.1094890000000035,"midi":38,"time":46.751802999999995,"velocity":0.14960629921259844},{"duration":0.1094890000000035,"midi":36,"time":46.751802999999995,"velocity":0.14960629921259844},{"duration":0.1094889999999964,"midi":36,"time":46.9160365,"velocity":0.14960629921259844},{"duration":0.1094889999999964,"midi":38,"time":46.9160365,"velocity":0.14960629921259844},{"duration":0.1094889999999964,"midi":38,"time":47.08027,"velocity":0.14960629921259844},{"duration":0.1094889999999964,"midi":36,"time":47.08027,"velocity":0.14960629921259844},{"duration":0.1094889999999964,"midi":37,"time":47.299248,"velocity":0.14960629921259844},{"duration":0.1094889999999964,"midi":39,"time":47.299248,"velocity":0.14960629921259844},{"duration":0.1094890000000035,"midi":37,"time":47.408736999999995,"velocity":0.14960629921259844},{"duration":0.1094890000000035,"midi":39,"time":47.408736999999995,"velocity":0.14960629921259844},{"duration":0.1094890000000035,"midi":39,"time":47.627714999999995,"velocity":0.14960629921259844},{"duration":0.1094890000000035,"midi":37,"time":47.627714999999995,"velocity":0.14960629921259844},{"duration":0.1094889999999964,"midi":39,"time":47.7919485,"velocity":0.14960629921259844},{"duration":0.1094889999999964,"midi":37,"time":47.7919485,"velocity":0.14960629921259844},{"duration":0.1094889999999964,"midi":37,"time":47.956182,"velocity":0.14960629921259844},{"duration":0.1094889999999964,"midi":39,"time":47.956182,"velocity":0.14960629921259844},{"duration":0.1094889999999964,"midi":37,"time":48.17516,"velocity":0.14960629921259844},{"duration":0.1094889999999964,"midi":39,"time":48.17516,"velocity":0.14960629921259844},{"duration":0.1094890000000035,"midi":39,"time":48.284648999999995,"velocity":0.14960629921259844},{"duration":0.1094890000000035,"midi":37,"time":48.284648999999995,"velocity":0.14960629921259844},{"duration":0.1094890000000035,"midi":39,"time":48.503626999999994,"velocity":0.14960629921259844},{"duration":0.1094890000000035,"midi":37,"time":48.503626999999994,"velocity":0.14960629921259844},{"duration":0.1094889999999964,"midi":37,"time":48.667860499999996,"velocity":0.14960629921259844},{"duration":0.1094889999999964,"midi":39,"time":48.667860499999996,"velocity":0.14960629921259844},{"duration":0.1094889999999964,"midi":39,"time":48.832094,"velocity":0.14960629921259844},{"duration":0.1094889999999964,"midi":37,"time":48.832094,"velocity":0.14960629921259844},{"duration":0.1094889999999964,"midi":38,"time":49.051072,"velocity":0.14960629921259844},{"duration":0.1094889999999964,"midi":36,"time":49.051072,"velocity":0.14960629921259844},{"duration":0.1094890000000035,"midi":38,"time":49.160560999999994,"velocity":0.14960629921259844},{"duration":0.1094890000000035,"midi":36,"time":49.160560999999994,"velocity":0.14960629921259844},{"duration":0.1094890000000035,"midi":36,"time":49.379538999999994,"velocity":0.14960629921259844},{"duration":0.1094890000000035,"midi":38,"time":49.379538999999994,"velocity":0.14960629921259844},{"duration":0.1094889999999964,"midi":38,"time":49.543772499999996,"velocity":0.14960629921259844},{"duration":0.1094889999999964,"midi":36,"time":49.543772499999996,"velocity":0.14960629921259844},{"duration":0.1094889999999964,"midi":38,"time":49.708006,"velocity":0.14960629921259844},{"duration":0.1094889999999964,"midi":36,"time":49.708006,"velocity":0.14960629921259844},{"duration":0.1094889999999964,"midi":36,"time":49.926984,"velocity":0.14960629921259844},{"duration":0.1094889999999964,"midi":38,"time":49.926984,"velocity":0.14960629921259844},{"duration":0.1094890000000035,"midi":36,"time":50.036472999999994,"velocity":0.14960629921259844},{"duration":0.1094890000000035,"midi":38,"time":50.036472999999994,"velocity":0.14960629921259844},{"duration":0.1094890000000035,"midi":38,"time":50.255450999999994,"velocity":0.14960629921259844},{"duration":0.1094890000000035,"midi":36,"time":50.255450999999994,"velocity":0.14960629921259844},{"duration":0.1094889999999964,"midi":38,"time":50.419684499999995,"velocity":0.14960629921259844},{"duration":0.1094889999999964,"midi":36,"time":50.419684499999995,"velocity":0.14960629921259844},{"duration":0.1094889999999964,"midi":36,"time":50.583918,"velocity":0.14960629921259844},{"duration":0.1094889999999964,"midi":38,"time":50.583918,"velocity":0.14960629921259844},{"duration":0.1094889999999964,"midi":37,"time":50.802896,"velocity":0.14960629921259844},{"duration":0.1094889999999964,"midi":39,"time":50.802896,"velocity":0.14960629921259844},{"duration":0.1094890000000035,"midi":37,"time":50.91238499999999,"velocity":0.14960629921259844},{"duration":0.1094890000000035,"midi":39,"time":50.91238499999999,"velocity":0.14960629921259844},{"duration":0.1094890000000035,"midi":37,"time":51.13136299999999,"velocity":0.14960629921259844},{"duration":0.1094890000000035,"midi":39,"time":51.13136299999999,"velocity":0.14960629921259844},{"duration":0.1094890000000035,"midi":39,"time":51.295596499999995,"velocity":0.14960629921259844},{"duration":0.1094890000000035,"midi":37,"time":51.295596499999995,"velocity":0.14960629921259844},{"duration":0.1094889999999964,"midi":39,"time":51.45983,"velocity":0.14960629921259844},{"duration":0.1094889999999964,"midi":37,"time":51.45983,"velocity":0.14960629921259844},{"duration":0.1094889999999964,"midi":39,"time":51.678808,"velocity":0.14960629921259844},{"duration":0.1094889999999964,"midi":37,"time":51.678808,"velocity":0.14960629921259844},{"duration":0.1094890000000035,"midi":37,"time":51.78829699999999,"velocity":0.14960629921259844},{"duration":0.1094890000000035,"midi":39,"time":51.78829699999999,"velocity":0.14960629921259844},{"duration":0.1094890000000035,"midi":37,"time":52.00727499999999,"velocity":0.14960629921259844},{"duration":0.1094890000000035,"midi":39,"time":52.00727499999999,"velocity":0.14960629921259844},{"duration":0.1094890000000035,"midi":39,"time":52.171508499999995,"velocity":0.14960629921259844},{"duration":0.1094890000000035,"midi":37,"time":52.171508499999995,"velocity":0.14960629921259844},{"duration":0.1094889999999964,"midi":39,"time":52.335741999999996,"velocity":0.14960629921259844},{"duration":0.1094889999999964,"midi":37,"time":52.335741999999996,"velocity":0.14960629921259844},{"duration":0.1094889999999964,"midi":36,"time":52.554719999999996,"velocity":0.14960629921259844},{"duration":0.1094889999999964,"midi":38,"time":52.554719999999996,"velocity":0.14960629921259844},{"duration":0.1094890000000035,"midi":38,"time":52.66420899999999,"velocity":0.14960629921259844},{"duration":0.1094890000000035,"midi":36,"time":52.66420899999999,"velocity":0.14960629921259844},{"duration":0.1094890000000035,"midi":38,"time":52.88318699999999,"velocity":0.14960629921259844},{"duration":0.1094890000000035,"midi":36,"time":52.88318699999999,"velocity":0.14960629921259844},{"duration":0.1094890000000035,"midi":38,"time":53.047420499999994,"velocity":0.14960629921259844},{"duration":0.1094890000000035,"midi":36,"time":53.047420499999994,"velocity":0.14960629921259844},{"duration":0.1094889999999964,"midi":38,"time":53.211653999999996,"velocity":0.14960629921259844},{"duration":0.1094889999999964,"midi":36,"time":53.211653999999996,"velocity":0.14960629921259844},{"duration":0.1094889999999964,"midi":38,"time":53.430631999999996,"velocity":0.14960629921259844},{"duration":0.1094889999999964,"midi":36,"time":53.430631999999996,"velocity":0.14960629921259844},{"duration":0.1094890000000035,"midi":36,"time":53.54012099999999,"velocity":0.14960629921259844},{"duration":0.1094890000000035,"midi":38,"time":53.54012099999999,"velocity":0.14960629921259844},{"duration":0.1094890000000035,"midi":36,"time":53.75909899999999,"velocity":0.14960629921259844},{"duration":0.1094890000000035,"midi":38,"time":53.75909899999999,"velocity":0.14960629921259844},{"duration":0.1094890000000035,"midi":38,"time":53.923332499999994,"velocity":0.14960629921259844},{"duration":0.1094890000000035,"midi":36,"time":53.923332499999994,"velocity":0.14960629921259844},{"duration":0.1094889999999964,"midi":38,"time":54.087565999999995,"velocity":0.14960629921259844},{"duration":0.1094889999999964,"midi":36,"time":54.087565999999995,"velocity":0.14960629921259844},{"duration":0.1094889999999964,"midi":37,"time":54.306543999999995,"velocity":0.14960629921259844},{"duration":0.1094889999999964,"midi":39,"time":54.306543999999995,"velocity":0.14960629921259844},{"duration":0.1094890000000035,"midi":37,"time":54.41603299999999,"velocity":0.14960629921259844},{"duration":0.1094890000000035,"midi":39,"time":54.41603299999999,"velocity":0.14960629921259844},{"duration":0.1094890000000035,"midi":37,"time":54.63501099999999,"velocity":0.14960629921259844},{"duration":0.1094890000000035,"midi":39,"time":54.63501099999999,"velocity":0.14960629921259844},{"duration":0.1094890000000035,"midi":39,"time":54.79924449999999,"velocity":0.14960629921259844},{"duration":0.1094890000000035,"midi":37,"time":54.79924449999999,"velocity":0.14960629921259844},{"duration":0.1094889999999964,"midi":39,"time":54.963477999999995,"velocity":0.14960629921259844},{"duration":0.1094889999999964,"midi":37,"time":54.963477999999995,"velocity":0.14960629921259844},{"duration":0.1094889999999964,"midi":37,"time":55.182455999999995,"velocity":0.14960629921259844},{"duration":0.1094889999999964,"midi":39,"time":55.182455999999995,"velocity":0.14960629921259844},{"duration":0.1094890000000035,"midi":39,"time":55.29194499999999,"velocity":0.14960629921259844},{"duration":0.1094890000000035,"midi":37,"time":55.29194499999999,"velocity":0.14960629921259844},{"duration":0.1094890000000035,"midi":37,"time":55.29194499999999,"velocity":0.14960629921259844},{"duration":0.1094890000000035,"midi":39,"time":55.51092299999999,"velocity":0.14960629921259844},{"duration":0.1094890000000035,"midi":37,"time":55.51092299999999,"velocity":0.14960629921259844},{"duration":0.1094890000000035,"midi":39,"time":55.67515649999999,"velocity":0.14960629921259844},{"duration":0.1094890000000035,"midi":37,"time":55.67515649999999,"velocity":0.14960629921259844},{"duration":0.1094889999999964,"midi":37,"time":55.839389999999995,"velocity":0.14960629921259844},{"duration":0.1094889999999964,"midi":39,"time":55.839389999999995,"velocity":0.14960629921259844},{"duration":0.1094890000000106,"midi":37,"time":84.08755199999999,"velocity":0.14960629921259844},{"duration":0.1094889999999964,"midi":37,"time":84.197041,"velocity":0.14960629921259844},{"duration":0.1094889999999964,"midi":37,"time":84.30653,"velocity":0.14960629921259844},{"duration":0.1094889999999964,"midi":37,"time":84.41601899999999,"velocity":0.14960629921259844},{"duration":0.1094890000000106,"midi":37,"time":84.52550799999999,"velocity":0.14960629921259844},{"duration":0.1094889999999964,"midi":37,"time":84.634997,"velocity":0.14960629921259844},{"duration":0.1094889999999964,"midi":37,"time":84.744486,"velocity":0.14960629921259844},{"duration":0.1094889999999964,"midi":37,"time":84.85397499999999,"velocity":0.14960629921259844},{"duration":0.1094890000000106,"midi":37,"time":84.96346399999999,"velocity":0.14960629921259844},{"duration":0.1094889999999964,"midi":37,"time":85.072953,"velocity":0.14960629921259844},{"duration":0.1094889999999964,"midi":37,"time":85.182442,"velocity":0.14960629921259844},{"duration":0.1094889999999964,"midi":37,"time":85.29193099999999,"velocity":0.14960629921259844},{"duration":0.1094890000000106,"midi":37,"time":85.40141999999999,"velocity":0.14960629921259844},{"duration":0.1094889999999964,"midi":37,"time":85.510909,"velocity":0.14960629921259844},{"duration":0.1094889999999964,"midi":37,"time":85.620398,"velocity":0.14960629921259844},{"duration":0.1094889999999964,"midi":37,"time":85.72988699999999,"velocity":0.14960629921259844},{"duration":0.1094890000000106,"midi":37,"time":85.83937599999999,"velocity":0.14960629921259844},{"duration":0.1094889999999964,"midi":37,"time":85.948865,"velocity":0.14960629921259844},{"duration":0.1094889999999964,"midi":37,"time":86.058354,"velocity":0.14960629921259844},{"duration":0.1094889999999964,"midi":37,"time":86.16784299999999,"velocity":0.14960629921259844},{"duration":0.1094890000000106,"midi":37,"time":86.27733199999999,"velocity":0.14960629921259844},{"duration":0.1094889999999964,"midi":37,"time":86.386821,"velocity":0.14960629921259844},{"duration":0.1094889999999964,"midi":37,"time":86.49631,"velocity":0.14960629921259844},{"duration":0.1094889999999964,"midi":37,"time":86.60579899999999,"velocity":0.14960629921259844},{"duration":0.1094890000000106,"midi":37,"time":86.71528799999999,"velocity":0.14960629921259844},{"duration":0.1094889999999964,"midi":37,"time":86.824777,"velocity":0.14960629921259844},{"duration":0.1094889999999964,"midi":37,"time":86.934266,"velocity":0.14960629921259844},{"duration":0.1094889999999964,"midi":37,"time":87.04375499999999,"velocity":0.14960629921259844},{"duration":0.1094890000000106,"midi":37,"time":87.15324399999999,"velocity":0.14960629921259844},{"duration":0.1094889999999964,"midi":37,"time":87.262733,"velocity":0.14960629921259844},{"duration":0.1094889999999964,"midi":37,"time":87.372222,"velocity":0.14960629921259844},{"duration":0.1094889999999964,"midi":37,"time":87.48171099999999,"velocity":0.14960629921259844},{"duration":0.1094890000000106,"midi":36,"time":87.59119999999999,"velocity":0.14960629921259844},{"duration":0.1094889999999964,"midi":36,"time":87.700689,"velocity":0.14960629921259844},{"duration":0.1094889999999964,"midi":36,"time":87.810178,"velocity":0.14960629921259844},{"duration":0.1094889999999964,"midi":36,"time":87.91966699999999,"velocity":0.14960629921259844},{"duration":0.1094890000000106,"midi":36,"time":88.02915599999999,"velocity":0.14960629921259844},{"duration":0.1094889999999964,"midi":36,"time":88.138645,"velocity":0.14960629921259844},{"duration":0.1094889999999964,"midi":36,"time":88.248134,"velocity":0.14960629921259844},{"duration":0.1094889999999964,"midi":36,"time":88.35762299999999,"velocity":0.14960629921259844},{"duration":0.1094890000000106,"midi":36,"time":88.46711199999999,"velocity":0.14960629921259844},{"duration":0.1094889999999964,"midi":36,"time":88.576601,"velocity":0.14960629921259844},{"duration":0.1094889999999964,"midi":36,"time":88.68609,"velocity":0.14960629921259844},{"duration":0.1094889999999964,"midi":36,"time":88.79557899999999,"velocity":0.14960629921259844},{"duration":0.1094890000000106,"midi":36,"time":88.90506799999999,"velocity":0.14960629921259844},{"duration":0.1094889999999964,"midi":36,"time":89.014557,"velocity":0.14960629921259844},{"duration":0.1094889999999964,"midi":36,"time":89.12404599999999,"velocity":0.14960629921259844},{"duration":0.1094889999999964,"midi":36,"time":89.23353499999999,"velocity":0.14960629921259844},{"duration":0.1094890000000106,"midi":36,"time":89.34302399999999,"velocity":0.14960629921259844},{"duration":0.1094889999999964,"midi":36,"time":89.452513,"velocity":0.14960629921259844},{"duration":0.1094889999999964,"midi":36,"time":89.56200199999999,"velocity":0.14960629921259844},{"duration":0.1094889999999964,"midi":36,"time":89.67149099999999,"velocity":0.14960629921259844},{"duration":0.1094890000000106,"midi":36,"time":89.78097999999999,"velocity":0.14960629921259844},{"duration":0.1094889999999964,"midi":36,"time":89.890469,"velocity":0.14960629921259844},{"duration":0.1094889999999964,"midi":36,"time":89.99995799999999,"velocity":0.14960629921259844},{"duration":0.1094889999999964,"midi":36,"time":90.10944699999999,"velocity":0.14960629921259844},{"duration":0.1094890000000106,"midi":36,"time":90.21893599999999,"velocity":0.14960629921259844},{"duration":0.1094889999999964,"midi":36,"time":90.328425,"velocity":0.14960629921259844},{"duration":0.1094889999999964,"midi":36,"time":90.43791399999999,"velocity":0.14960629921259844},{"duration":0.1094889999999964,"midi":36,"time":90.54740299999999,"velocity":0.14960629921259844},{"duration":0.1094890000000106,"midi":36,"time":90.65689199999998,"velocity":0.14960629921259844},{"duration":0.1094889999999964,"midi":36,"time":90.766381,"velocity":0.14960629921259844},{"duration":0.1094889999999964,"midi":36,"time":90.87586999999999,"velocity":0.14960629921259844},{"duration":0.1094889999999964,"midi":36,"time":90.98535899999999,"velocity":0.14960629921259844},{"duration":0.1094890000000106,"midi":37,"time":91.09484799999998,"velocity":0.14960629921259844},{"duration":0.1094889999999964,"midi":37,"time":91.204337,"velocity":0.14960629921259844},{"duration":0.1094889999999964,"midi":37,"time":91.31382599999999,"velocity":0.14960629921259844},{"duration":0.1094889999999964,"midi":37,"time":91.42331499999999,"velocity":0.14960629921259844},{"duration":0.1094890000000106,"midi":37,"time":91.53280399999998,"velocity":0.14960629921259844},{"duration":0.1094889999999964,"midi":37,"time":91.642293,"velocity":0.14960629921259844},{"duration":0.1094889999999964,"midi":37,"time":91.75178199999999,"velocity":0.14960629921259844},{"duration":0.1094889999999964,"midi":37,"time":91.86127099999999,"velocity":0.14960629921259844},{"duration":0.1094890000000106,"midi":37,"time":91.97075999999998,"velocity":0.14960629921259844},{"duration":0.1094889999999964,"midi":37,"time":92.080249,"velocity":0.14960629921259844},{"duration":0.1094889999999964,"midi":37,"time":92.18973799999999,"velocity":0.14960629921259844},{"duration":0.1094889999999964,"midi":37,"time":92.29922699999999,"velocity":0.14960629921259844},{"duration":0.1094890000000106,"midi":37,"time":92.40871599999998,"velocity":0.14960629921259844},{"duration":0.1094889999999964,"midi":37,"time":92.518205,"velocity":0.14960629921259844},{"duration":0.1094889999999964,"midi":37,"time":92.62769399999999,"velocity":0.14960629921259844},{"duration":0.1094889999999964,"midi":37,"time":92.73718299999999,"velocity":0.14960629921259844},{"duration":0.1094890000000106,"midi":37,"time":92.84667199999998,"velocity":0.14960629921259844},{"duration":0.1094889999999964,"midi":37,"time":92.956161,"velocity":0.14960629921259844},{"duration":0.1094889999999964,"midi":37,"time":93.06564999999999,"velocity":0.14960629921259844},{"duration":0.1094889999999964,"midi":37,"time":93.17513899999999,"velocity":0.14960629921259844},{"duration":0.1094890000000106,"midi":37,"time":93.28462799999998,"velocity":0.14960629921259844},{"duration":0.1094889999999964,"midi":37,"time":93.394117,"velocity":0.14960629921259844},{"duration":0.1094889999999964,"midi":37,"time":93.50360599999999,"velocity":0.14960629921259844},{"duration":0.1094890000000106,"midi":37,"time":93.61309499999999,"velocity":0.14960629921259844},{"duration":0.1094889999999964,"midi":37,"time":93.722584,"velocity":0.14960629921259844},{"duration":0.1094889999999964,"midi":37,"time":93.832073,"velocity":0.14960629921259844},{"duration":0.1094889999999964,"midi":37,"time":93.94156199999999,"velocity":0.14960629921259844},{"duration":0.1094890000000106,"midi":37,"time":94.05105099999999,"velocity":0.14960629921259844},{"duration":0.1094889999999964,"midi":37,"time":94.16054,"velocity":0.14960629921259844},{"duration":0.1094889999999964,"midi":37,"time":94.270029,"velocity":0.14960629921259844},{"duration":0.1094889999999964,"midi":37,"time":94.37951799999999,"velocity":0.14960629921259844},{"duration":0.1094890000000106,"midi":37,"time":94.48900699999999,"velocity":0.14960629921259844},{"duration":0.1094889999999964,"midi":36,"time":94.598496,"velocity":0.14960629921259844},{"duration":0.1094889999999964,"midi":36,"time":94.707985,"velocity":0.14960629921259844},{"duration":0.1094889999999964,"midi":36,"time":94.81747399999999,"velocity":0.14960629921259844},{"duration":0.1094890000000106,"midi":36,"time":94.92696299999999,"velocity":0.14960629921259844},{"duration":0.1094889999999964,"midi":36,"time":95.036452,"velocity":0.14960629921259844},{"duration":0.1094889999999964,"midi":36,"time":95.145941,"velocity":0.14960629921259844},{"duration":0.1094889999999964,"midi":36,"time":95.25542999999999,"velocity":0.14960629921259844},{"duration":0.1094890000000106,"midi":36,"time":95.36491899999999,"velocity":0.14960629921259844},{"duration":0.1094889999999964,"midi":36,"time":95.474408,"velocity":0.14960629921259844},{"duration":0.1094889999999964,"midi":36,"time":95.583897,"velocity":0.14960629921259844},{"duration":0.1094889999999964,"midi":36,"time":95.69338599999999,"velocity":0.14960629921259844},{"duration":0.1094890000000106,"midi":36,"time":95.80287499999999,"velocity":0.14960629921259844},{"duration":0.1094889999999964,"midi":36,"time":95.912364,"velocity":0.14960629921259844},{"duration":0.1094889999999964,"midi":36,"time":96.021853,"velocity":0.14960629921259844},{"duration":0.1094889999999964,"midi":36,"time":96.13134199999999,"velocity":0.14960629921259844},{"duration":0.1094890000000106,"midi":36,"time":96.24083099999999,"velocity":0.14960629921259844},{"duration":0.1094889999999964,"midi":36,"time":96.35032,"velocity":0.14960629921259844},{"duration":0.1094889999999964,"midi":36,"time":96.45980899999999,"velocity":0.14960629921259844},{"duration":0.1094889999999964,"midi":36,"time":96.56929799999999,"velocity":0.14960629921259844},{"duration":0.1094890000000106,"midi":36,"time":96.67878699999999,"velocity":0.14960629921259844},{"duration":0.1094889999999964,"midi":36,"time":96.788276,"velocity":0.14960629921259844},{"duration":0.1094889999999964,"midi":36,"time":96.89776499999999,"velocity":0.14960629921259844},{"duration":0.1094889999999964,"midi":36,"time":97.00725399999999,"velocity":0.14960629921259844},{"duration":0.1094890000000106,"midi":36,"time":97.11674299999999,"velocity":0.14960629921259844},{"duration":0.1094889999999964,"midi":36,"time":97.226232,"velocity":0.14960629921259844},{"duration":0.1094889999999964,"midi":36,"time":97.33572099999999,"velocity":0.14960629921259844},{"duration":0.1094889999999964,"midi":36,"time":97.44520999999999,"velocity":0.14960629921259844},{"duration":0.1094890000000106,"midi":36,"time":97.55469899999999,"velocity":0.14960629921259844},{"duration":0.1094889999999964,"midi":36,"time":97.664188,"velocity":0.14960629921259844},{"duration":0.1094889999999964,"midi":36,"time":97.77367699999999,"velocity":0.14960629921259844},{"duration":0.1094889999999964,"midi":36,"time":97.88316599999999,"velocity":0.14960629921259844},{"duration":0.1094890000000106,"midi":36,"time":97.99265499999998,"velocity":0.14960629921259844},{"duration":0.1094889999999964,"midi":37,"time":98.102144,"velocity":0.14960629921259844},{"duration":0.1094889999999964,"midi":37,"time":98.21163299999999,"velocity":0.14960629921259844},{"duration":0.1094889999999964,"midi":37,"time":98.32112199999999,"velocity":0.14960629921259844},{"duration":0.1094890000000106,"midi":37,"time":98.43061099999998,"velocity":0.14960629921259844},{"duration":0.1094889999999964,"midi":37,"time":98.5401,"velocity":0.14960629921259844},{"duration":0.1094889999999964,"midi":37,"time":98.64958899999999,"velocity":0.14960629921259844},{"duration":0.1094889999999964,"midi":37,"time":98.75907799999999,"velocity":0.14960629921259844},{"duration":0.1094890000000106,"midi":37,"time":98.86856699999998,"velocity":0.14960629921259844},{"duration":0.1094889999999964,"midi":37,"time":98.978056,"velocity":0.14960629921259844},{"duration":0.1094889999999964,"midi":37,"time":99.08754499999999,"velocity":0.14960629921259844},{"duration":0.1094889999999964,"midi":37,"time":99.19703399999999,"velocity":0.14960629921259844},{"duration":0.1094890000000106,"midi":37,"time":99.30652299999998,"velocity":0.14960629921259844},{"duration":0.1094889999999964,"midi":37,"time":99.416012,"velocity":0.14960629921259844},{"duration":0.1094889999999964,"midi":37,"time":99.52550099999999,"velocity":0.14960629921259844},{"duration":0.1094889999999964,"midi":37,"time":99.63498999999999,"velocity":0.14960629921259844},{"duration":0.1094890000000106,"midi":37,"time":99.74447899999998,"velocity":0.14960629921259844},{"duration":0.1094889999999964,"midi":37,"time":99.853968,"velocity":0.14960629921259844},{"duration":0.1094889999999964,"midi":37,"time":99.96345699999999,"velocity":0.14960629921259844},{"duration":0.1094889999999964,"midi":37,"time":100.07294599999999,"velocity":0.14960629921259844},{"duration":0.1094890000000106,"midi":37,"time":100.18243499999998,"velocity":0.14960629921259844},{"duration":0.1094889999999964,"midi":37,"time":100.291924,"velocity":0.14960629921259844},{"duration":0.1094889999999964,"midi":37,"time":100.40141299999999,"velocity":0.14960629921259844},{"duration":0.1094889999999964,"midi":37,"time":100.51090199999999,"velocity":0.14960629921259844},{"duration":0.1094890000000106,"midi":37,"time":100.62039099999998,"velocity":0.14960629921259844},{"duration":0.1094889999999964,"midi":37,"time":100.72988,"velocity":0.14960629921259844},{"duration":0.1094889999999964,"midi":37,"time":100.83936899999999,"velocity":0.14960629921259844},{"duration":0.1094889999999964,"midi":37,"time":100.94885799999999,"velocity":0.14960629921259844},{"duration":0.1094890000000106,"midi":37,"time":101.05834699999998,"velocity":0.14960629921259844},{"duration":0.1094889999999964,"midi":37,"time":101.167836,"velocity":0.14960629921259844},{"duration":0.1094889999999964,"midi":37,"time":101.27732499999999,"velocity":0.14960629921259844},{"duration":0.1094889999999964,"midi":37,"time":101.38681399999999,"velocity":0.14960629921259844},{"duration":0.1094890000000106,"midi":37,"time":101.49630299999998,"velocity":0.14960629921259844},{"duration":0.1094889999999964,"midi":36,"time":101.605792,"velocity":0.14960629921259844},{"duration":0.1094889999999964,"midi":36,"time":101.71528099999999,"velocity":0.14960629921259844},{"duration":0.1094889999999964,"midi":36,"time":101.82476999999999,"velocity":0.14960629921259844},{"duration":0.1094890000000106,"midi":36,"time":101.93425899999998,"velocity":0.14960629921259844},{"duration":0.1094889999999964,"midi":36,"time":102.043748,"velocity":0.14960629921259844},{"duration":0.1094889999999964,"midi":36,"time":102.15323699999999,"velocity":0.14960629921259844},{"duration":0.1094889999999964,"midi":36,"time":102.26272599999999,"velocity":0.14960629921259844},{"duration":0.1094890000000106,"midi":36,"time":102.37221499999998,"velocity":0.14960629921259844},{"duration":0.1094889999999964,"midi":36,"time":102.481704,"velocity":0.14960629921259844},{"duration":0.1094889999999964,"midi":36,"time":102.59119299999999,"velocity":0.14960629921259844},{"duration":0.1094890000000106,"midi":36,"time":102.70068199999999,"velocity":0.14960629921259844},{"duration":0.1094889999999964,"midi":36,"time":102.810171,"velocity":0.14960629921259844},{"duration":0.1094889999999964,"midi":36,"time":102.91966,"velocity":0.14960629921259844},{"duration":0.1094889999999964,"midi":36,"time":103.02914899999999,"velocity":0.14960629921259844},{"duration":0.1094890000000106,"midi":36,"time":103.13863799999999,"velocity":0.14960629921259844},{"duration":0.1094889999999964,"midi":36,"time":103.248127,"velocity":0.14960629921259844},{"duration":0.1094889999999964,"midi":36,"time":103.357616,"velocity":0.14960629921259844},{"duration":0.1094889999999964,"midi":36,"time":103.46710499999999,"velocity":0.14960629921259844},{"duration":0.1094890000000106,"midi":36,"time":103.57659399999999,"velocity":0.14960629921259844},{"duration":0.1094889999999964,"midi":36,"time":103.686083,"velocity":0.14960629921259844},{"duration":0.1094889999999964,"midi":36,"time":103.79557199999999,"velocity":0.14960629921259844},{"duration":0.1094889999999964,"midi":36,"time":103.90506099999999,"velocity":0.14960629921259844},{"duration":0.1094890000000106,"midi":36,"time":104.01454999999999,"velocity":0.14960629921259844},{"duration":0.1094889999999964,"midi":36,"time":104.124039,"velocity":0.14960629921259844},{"duration":0.1094889999999964,"midi":36,"time":104.23352799999999,"velocity":0.14960629921259844},{"duration":0.1094889999999964,"midi":36,"time":104.34301699999999,"velocity":0.14960629921259844},{"duration":0.1094890000000106,"midi":36,"time":104.45250599999999,"velocity":0.14960629921259844},{"duration":0.1094889999999964,"midi":36,"time":104.561995,"velocity":0.14960629921259844},{"duration":0.1094889999999964,"midi":36,"time":104.67148399999999,"velocity":0.14960629921259844},{"duration":0.1094889999999964,"midi":36,"time":104.78097299999999,"velocity":0.14960629921259844},{"duration":0.1094890000000106,"midi":36,"time":104.89046199999999,"velocity":0.14960629921259844},{"duration":0.1094889999999964,"midi":36,"time":104.999951,"velocity":0.14960629921259844},{"duration":0.1094889999999964,"midi":37,"time":105.10943999999999,"velocity":0.14960629921259844},{"duration":0.1094889999999964,"midi":37,"time":105.21892899999999,"velocity":0.14960629921259844},{"duration":0.1094890000000106,"midi":37,"time":105.32841799999998,"velocity":0.14960629921259844},{"duration":0.1094889999999964,"midi":37,"time":105.437907,"velocity":0.14960629921259844},{"duration":0.1094889999999964,"midi":37,"time":105.54739599999999,"velocity":0.14960629921259844},{"duration":0.1094889999999964,"midi":37,"time":105.65688499999999,"velocity":0.14960629921259844},{"duration":0.1094890000000106,"midi":37,"time":105.76637399999998,"velocity":0.14960629921259844},{"duration":0.1094889999999964,"midi":37,"time":105.875863,"velocity":0.14960629921259844},{"duration":0.1094889999999964,"midi":37,"time":105.98535199999999,"velocity":0.14960629921259844},{"duration":0.1094889999999964,"midi":37,"time":106.09484099999999,"velocity":0.14960629921259844},{"duration":0.1094890000000106,"midi":37,"time":106.20432999999998,"velocity":0.14960629921259844},{"duration":0.1094889999999964,"midi":37,"time":106.313819,"velocity":0.14960629921259844},{"duration":0.1094889999999964,"midi":37,"time":106.42330799999999,"velocity":0.14960629921259844},{"duration":0.1094889999999964,"midi":37,"time":106.53279699999999,"velocity":0.14960629921259844},{"duration":0.1094890000000106,"midi":37,"time":106.64228599999998,"velocity":0.14960629921259844},{"duration":0.1094889999999964,"midi":37,"time":106.751775,"velocity":0.14960629921259844},{"duration":0.1094889999999964,"midi":37,"time":106.86126399999999,"velocity":0.14960629921259844},{"duration":0.1094889999999964,"midi":37,"time":106.97075299999999,"velocity":0.14960629921259844},{"duration":0.1094890000000106,"midi":37,"time":107.08024199999998,"velocity":0.14960629921259844},{"duration":0.1094889999999964,"midi":37,"time":107.189731,"velocity":0.14960629921259844},{"duration":0.1094889999999964,"midi":37,"time":107.29921999999999,"velocity":0.14960629921259844},{"duration":0.1094889999999964,"midi":37,"time":107.40870899999999,"velocity":0.14960629921259844},{"duration":0.1094890000000106,"midi":37,"time":107.51819799999998,"velocity":0.14960629921259844},{"duration":0.1094889999999964,"midi":37,"time":107.627687,"velocity":0.14960629921259844},{"duration":0.1094889999999964,"midi":37,"time":107.73717599999999,"velocity":0.14960629921259844},{"duration":0.1094889999999964,"midi":37,"time":107.84666499999999,"velocity":0.14960629921259844},{"duration":0.1094890000000106,"midi":37,"time":107.95615399999998,"velocity":0.14960629921259844},{"duration":0.1094889999999964,"midi":37,"time":108.065643,"velocity":0.14960629921259844},{"duration":0.1094889999999964,"midi":37,"time":108.17513199999999,"velocity":0.14960629921259844},{"duration":0.1094889999999964,"midi":37,"time":108.28462099999999,"velocity":0.14960629921259844},{"duration":0.1094890000000106,"midi":37,"time":108.39410999999998,"velocity":0.14960629921259844},{"duration":0.1094889999999964,"midi":37,"time":108.503599,"velocity":0.14960629921259844},{"duration":0.1094889999999964,"midi":36,"time":108.61308799999999,"velocity":0.14960629921259844},{"duration":0.1094889999999964,"midi":36,"time":108.72257699999999,"velocity":0.14960629921259844},{"duration":0.1094890000000106,"midi":36,"time":108.83206599999998,"velocity":0.14960629921259844},{"duration":0.1094889999999964,"midi":36,"time":108.941555,"velocity":0.14960629921259844},{"duration":0.1094889999999964,"midi":36,"time":109.05104399999999,"velocity":0.14960629921259844},{"duration":0.1094889999999964,"midi":36,"time":109.16053299999999,"velocity":0.14960629921259844},{"duration":0.1094890000000106,"midi":36,"time":109.27002199999998,"velocity":0.14960629921259844},{"duration":0.1094889999999964,"midi":36,"time":109.379511,"velocity":0.14960629921259844},{"duration":0.1094889999999964,"midi":36,"time":109.48899999999999,"velocity":0.14960629921259844},{"duration":0.1094889999999964,"midi":36,"time":109.59848899999999,"velocity":0.14960629921259844},{"duration":0.1094890000000106,"midi":36,"time":109.70797799999998,"velocity":0.14960629921259844},{"duration":0.1094889999999964,"midi":36,"time":109.817467,"velocity":0.14960629921259844},{"duration":0.1094889999999964,"midi":36,"time":109.92695599999999,"velocity":0.14960629921259844},{"duration":0.1094889999999964,"midi":36,"time":110.03644499999999,"velocity":0.14960629921259844},{"duration":0.1094890000000106,"midi":36,"time":110.14593399999998,"velocity":0.14960629921259844},{"duration":0.1094889999999964,"midi":36,"time":110.255423,"velocity":0.14960629921259844},{"duration":0.1094889999999964,"midi":36,"time":110.36491199999999,"velocity":0.14960629921259844},{"duration":0.1094889999999964,"midi":36,"time":110.47440099999999,"velocity":0.14960629921259844},{"duration":0.1094890000000106,"midi":36,"time":110.58388999999998,"velocity":0.14960629921259844},{"duration":0.1094889999999964,"midi":36,"time":110.693379,"velocity":0.14960629921259844},{"duration":0.1094889999999964,"midi":36,"time":110.80286799999999,"velocity":0.14960629921259844},{"duration":0.1094889999999964,"midi":36,"time":110.91235699999999,"velocity":0.14960629921259844},{"duration":0.1094890000000106,"midi":36,"time":111.02184599999998,"velocity":0.14960629921259844},{"duration":0.1094889999999964,"midi":36,"time":111.13133499999999,"velocity":0.14960629921259844},{"duration":0.1094889999999964,"midi":36,"time":111.24082399999999,"velocity":0.14960629921259844},{"duration":0.1094889999999964,"midi":36,"time":111.35031299999999,"velocity":0.14960629921259844},{"duration":0.1094890000000106,"midi":36,"time":111.45980199999998,"velocity":0.14960629921259844},{"duration":0.1094889999999964,"midi":36,"time":111.56929099999999,"velocity":0.14960629921259844},{"duration":0.1094889999999964,"midi":36,"time":111.67877999999999,"velocity":0.14960629921259844},{"duration":0.1094889999999964,"midi":36,"time":111.78826899999999,"velocity":0.14960629921259844},{"duration":0.1094890000000106,"midi":36,"time":111.89775799999998,"velocity":0.14960629921259844},{"duration":0.1094889999999964,"midi":36,"time":112.00724699999999,"velocity":0.14960629921259844},{"duration":0.1094889999999964,"midi":37,"time":112.11673599999999,"velocity":0.14960629921259844},{"duration":0.1094890000000106,"midi":37,"time":112.22622499999999,"velocity":0.14960629921259844},{"duration":0.1094889999999964,"midi":37,"time":112.335714,"velocity":0.14960629921259844},{"duration":0.1094889999999964,"midi":37,"time":112.44520299999999,"velocity":0.14960629921259844},{"duration":0.1094889999999964,"midi":37,"time":112.55469199999999,"velocity":0.14960629921259844},{"duration":0.1094890000000106,"midi":37,"time":112.66418099999999,"velocity":0.14960629921259844},{"duration":0.1094889999999964,"midi":37,"time":112.77367,"velocity":0.14960629921259844},{"duration":0.1094889999999964,"midi":37,"time":112.88315899999999,"velocity":0.14960629921259844},{"duration":0.1094889999999964,"midi":37,"time":112.99264799999999,"velocity":0.14960629921259844},{"duration":0.1094890000000106,"midi":37,"time":113.10213699999998,"velocity":0.14960629921259844},{"duration":0.1094889999999964,"midi":37,"time":113.211626,"velocity":0.14960629921259844},{"duration":0.1094889999999964,"midi":37,"time":113.32111499999999,"velocity":0.14960629921259844},{"duration":0.1094889999999964,"midi":37,"time":113.43060399999999,"velocity":0.14960629921259844},{"duration":0.1094890000000106,"midi":37,"time":113.54009299999998,"velocity":0.14960629921259844},{"duration":0.1094889999999964,"midi":37,"time":113.649582,"velocity":0.14960629921259844},{"duration":0.1094889999999964,"midi":37,"time":113.75907099999999,"velocity":0.14960629921259844},{"duration":0.1094889999999964,"midi":37,"time":113.86855999999999,"velocity":0.14960629921259844},{"duration":0.1094890000000106,"midi":37,"time":113.97804899999998,"velocity":0.14960629921259844},{"duration":0.1094889999999964,"midi":37,"time":114.087538,"velocity":0.14960629921259844},{"duration":0.1094889999999964,"midi":37,"time":114.19702699999999,"velocity":0.14960629921259844},{"duration":0.1094889999999964,"midi":37,"time":114.30651599999999,"velocity":0.14960629921259844},{"duration":0.1094890000000106,"midi":37,"time":114.41600499999998,"velocity":0.14960629921259844},{"duration":0.1094889999999964,"midi":37,"time":114.525494,"velocity":0.14960629921259844},{"duration":0.1094889999999964,"midi":37,"time":114.63498299999999,"velocity":0.14960629921259844},{"duration":0.1094889999999964,"midi":37,"time":114.74447199999999,"velocity":0.14960629921259844},{"duration":0.1094890000000106,"midi":37,"time":114.85396099999998,"velocity":0.14960629921259844},{"duration":0.1094889999999964,"midi":37,"time":114.96345,"velocity":0.14960629921259844},{"duration":0.1094889999999964,"midi":37,"time":115.07293899999999,"velocity":0.14960629921259844},{"duration":0.1094889999999964,"midi":37,"time":115.18242799999999,"velocity":0.14960629921259844},{"duration":0.1094890000000106,"midi":37,"time":115.29191699999998,"velocity":0.14960629921259844},{"duration":0.1094889999999964,"midi":37,"time":115.401406,"velocity":0.14960629921259844},{"duration":0.1094889999999964,"midi":37,"time":115.51089499999999,"velocity":0.14960629921259844},{"duration":0.1094889999999964,"midi":36,"time":115.62038399999999,"velocity":0.14960629921259844},{"duration":0.1094890000000106,"midi":36,"time":115.72987299999998,"velocity":0.14960629921259844},{"duration":0.1094889999999964,"midi":36,"time":115.839362,"velocity":0.14960629921259844},{"duration":0.1094889999999964,"midi":36,"time":115.94885099999999,"velocity":0.14960629921259844},{"duration":0.1094889999999964,"midi":36,"time":116.05833999999999,"velocity":0.14960629921259844},{"duration":0.1094890000000106,"midi":36,"time":116.16782899999998,"velocity":0.14960629921259844},{"duration":0.1094889999999964,"midi":36,"time":116.277318,"velocity":0.14960629921259844},{"duration":0.1094889999999964,"midi":36,"time":116.38680699999999,"velocity":0.14960629921259844},{"duration":0.1094889999999964,"midi":36,"time":116.49629599999999,"velocity":0.14960629921259844},{"duration":0.1094890000000106,"midi":36,"time":116.60578499999998,"velocity":0.14960629921259844},{"duration":0.1094889999999964,"midi":36,"time":116.715274,"velocity":0.14960629921259844},{"duration":0.1094889999999964,"midi":36,"time":116.82476299999999,"velocity":0.14960629921259844},{"duration":0.1094889999999964,"midi":36,"time":116.93425199999999,"velocity":0.14960629921259844},{"duration":0.1094890000000106,"midi":36,"time":117.04374099999998,"velocity":0.14960629921259844},{"duration":0.1094889999999964,"midi":36,"time":117.15323,"velocity":0.14960629921259844},{"duration":0.1094889999999964,"midi":36,"time":117.26271899999999,"velocity":0.14960629921259844},{"duration":0.1094889999999964,"midi":36,"time":117.37220799999999,"velocity":0.14960629921259844},{"duration":0.1094890000000106,"midi":36,"time":117.48169699999998,"velocity":0.14960629921259844},{"duration":0.1094889999999964,"midi":36,"time":117.591186,"velocity":0.14960629921259844},{"duration":0.1094889999999964,"midi":36,"time":117.70067499999999,"velocity":0.14960629921259844},{"duration":0.1094889999999964,"midi":36,"time":117.81016399999999,"velocity":0.14960629921259844},{"duration":0.1094890000000106,"midi":36,"time":117.91965299999998,"velocity":0.14960629921259844},{"duration":0.1094889999999964,"midi":36,"time":118.029142,"velocity":0.14960629921259844},{"duration":0.1094889999999964,"midi":36,"time":118.13863099999999,"velocity":0.14960629921259844},{"duration":0.1094889999999964,"midi":36,"time":118.24811999999999,"velocity":0.14960629921259844},{"duration":0.1094890000000106,"midi":36,"time":118.35760899999998,"velocity":0.14960629921259844},{"duration":0.1094889999999964,"midi":36,"time":118.467098,"velocity":0.14960629921259844},{"duration":0.1094889999999964,"midi":36,"time":118.57658699999999,"velocity":0.14960629921259844},{"duration":0.1094889999999964,"midi":36,"time":118.68607599999999,"velocity":0.14960629921259844},{"duration":0.1094890000000106,"midi":36,"time":118.79556499999998,"velocity":0.14960629921259844},{"duration":0.1094889999999964,"midi":36,"time":118.90505399999999,"velocity":0.14960629921259844},{"duration":0.1094889999999964,"midi":36,"time":119.01454299999999,"velocity":0.14960629921259844},{"duration":0.1094889999999964,"midi":37,"time":119.12403199999999,"velocity":0.14960629921259844},{"duration":0.1094890000000106,"midi":37,"time":119.23352099999998,"velocity":0.14960629921259844},{"duration":0.1094889999999964,"midi":37,"time":119.34300999999999,"velocity":0.14960629921259844},{"duration":0.1094889999999964,"midi":37,"time":119.45249899999999,"velocity":0.14960629921259844},{"duration":0.1094889999999964,"midi":37,"time":119.56198799999999,"velocity":0.14960629921259844},{"duration":0.1094890000000106,"midi":37,"time":119.67147699999998,"velocity":0.14960629921259844},{"duration":0.1094889999999964,"midi":37,"time":119.78096599999999,"velocity":0.14960629921259844},{"duration":0.1094889999999964,"midi":37,"time":119.89045499999999,"velocity":0.14960629921259844},{"duration":0.1094889999999964,"midi":37,"time":119.99994399999999,"velocity":0.14960629921259844},{"duration":0.1094890000000106,"midi":37,"time":120.10943299999998,"velocity":0.14960629921259844},{"duration":0.1094889999999964,"midi":37,"time":120.21892199999999,"velocity":0.14960629921259844},{"duration":0.1094889999999964,"midi":37,"time":120.32841099999999,"velocity":0.14960629921259844},{"duration":0.1094889999999964,"midi":37,"time":120.43789999999998,"velocity":0.14960629921259844},{"duration":0.1094890000000106,"midi":37,"time":120.54738899999998,"velocity":0.14960629921259844},{"duration":0.1094889999999964,"midi":37,"time":120.65687799999999,"velocity":0.14960629921259844},{"duration":0.1094889999999964,"midi":37,"time":120.76636699999999,"velocity":0.14960629921259844},{"duration":0.1094889999999964,"midi":37,"time":120.87585599999998,"velocity":0.14960629921259844},{"duration":0.1094890000000106,"midi":37,"time":120.98534499999998,"velocity":0.14960629921259844},{"duration":0.1094889999999964,"midi":37,"time":121.09483399999999,"velocity":0.14960629921259844},{"duration":0.1094889999999964,"midi":37,"time":121.20432299999999,"velocity":0.14960629921259844},{"duration":0.1094889999999964,"midi":37,"time":121.31381199999998,"velocity":0.14960629921259844},{"duration":0.1094890000000106,"midi":37,"time":121.42330099999998,"velocity":0.14960629921259844},{"duration":0.1094889999999964,"midi":37,"time":121.53278999999999,"velocity":0.14960629921259844},{"duration":0.1094889999999964,"midi":37,"time":121.64227899999999,"velocity":0.14960629921259844},{"duration":0.1094890000000106,"midi":37,"time":121.75176799999998,"velocity":0.14960629921259844},{"duration":0.1094889999999964,"midi":37,"time":121.861257,"velocity":0.14960629921259844},{"duration":0.1094889999999964,"midi":37,"time":121.97074599999999,"velocity":0.14960629921259844},{"duration":0.1094889999999964,"midi":37,"time":122.08023499999999,"velocity":0.14960629921259844},{"duration":0.1094890000000106,"midi":37,"time":122.18972399999998,"velocity":0.14960629921259844},{"duration":0.1094889999999964,"midi":37,"time":122.299213,"velocity":0.14960629921259844},{"duration":0.1094889999999964,"midi":37,"time":122.40870199999999,"velocity":0.14960629921259844},{"duration":0.1094889999999964,"midi":37,"time":122.51819099999999,"velocity":0.14960629921259844},{"duration":0.1094890000000106,"midi":36,"time":122.62767999999998,"velocity":0.14960629921259844},{"duration":0.1094889999999964,"midi":36,"time":122.737169,"velocity":0.14960629921259844},{"duration":0.1094889999999964,"midi":36,"time":122.84665799999999,"velocity":0.14960629921259844},{"duration":0.1094889999999964,"midi":36,"time":122.95614699999999,"velocity":0.14960629921259844},{"duration":0.1094890000000106,"midi":36,"time":123.06563599999998,"velocity":0.14960629921259844},{"duration":0.1094889999999964,"midi":36,"time":123.175125,"velocity":0.14960629921259844},{"duration":0.1094889999999964,"midi":36,"time":123.28461399999999,"velocity":0.14960629921259844},{"duration":0.1094889999999964,"midi":36,"time":123.39410299999999,"velocity":0.14960629921259844},{"duration":0.1094890000000106,"midi":36,"time":123.50359199999998,"velocity":0.14960629921259844},{"duration":0.1094889999999964,"midi":36,"time":123.613081,"velocity":0.14960629921259844},{"duration":0.1094889999999964,"midi":36,"time":123.72256999999999,"velocity":0.14960629921259844},{"duration":0.1094889999999964,"midi":36,"time":123.83205899999999,"velocity":0.14960629921259844},{"duration":0.1094890000000106,"midi":36,"time":123.94154799999998,"velocity":0.14960629921259844},{"duration":0.1094889999999964,"midi":36,"time":124.051037,"velocity":0.14960629921259844},{"duration":0.1094889999999964,"midi":36,"time":124.16052599999999,"velocity":0.14960629921259844},{"duration":0.1094889999999964,"midi":36,"time":124.27001499999999,"velocity":0.14960629921259844},{"duration":0.1094890000000106,"midi":36,"time":124.37950399999998,"velocity":0.14960629921259844},{"duration":0.1094889999999964,"midi":36,"time":124.488993,"velocity":0.14960629921259844},{"duration":0.1094889999999964,"midi":36,"time":124.59848199999999,"velocity":0.14960629921259844},{"duration":0.1094889999999964,"midi":36,"time":124.70797099999999,"velocity":0.14960629921259844},{"duration":0.1094890000000106,"midi":36,"time":124.81745999999998,"velocity":0.14960629921259844},{"duration":0.1094889999999964,"midi":36,"time":124.926949,"velocity":0.14960629921259844},{"duration":0.1094889999999964,"midi":36,"time":125.03643799999999,"velocity":0.14960629921259844},{"duration":0.1094889999999964,"midi":36,"time":125.14592699999999,"velocity":0.14960629921259844},{"duration":0.1094890000000106,"midi":36,"time":125.25541599999998,"velocity":0.14960629921259844},{"duration":0.1094889999999964,"midi":36,"time":125.364905,"velocity":0.14960629921259844},{"duration":0.1094889999999964,"midi":36,"time":125.47439399999999,"velocity":0.14960629921259844},{"duration":0.1094889999999964,"midi":36,"time":125.58388299999999,"velocity":0.14960629921259844},{"duration":0.1094890000000106,"midi":36,"time":125.69337199999998,"velocity":0.14960629921259844},{"duration":0.1094889999999964,"midi":36,"time":125.802861,"velocity":0.14960629921259844},{"duration":0.1094889999999964,"midi":36,"time":125.91234999999999,"velocity":0.14960629921259844},{"duration":0.1094889999999964,"midi":36,"time":126.02183899999999,"velocity":0.14960629921259844},{"duration":0.1094890000000106,"midi":37,"time":126.13132799999998,"velocity":0.14960629921259844},{"duration":0.1094889999999964,"midi":37,"time":126.24081699999999,"velocity":0.14960629921259844},{"duration":0.1094889999999964,"midi":37,"time":126.35030599999999,"velocity":0.14960629921259844},{"duration":0.1094889999999964,"midi":37,"time":126.45979499999999,"velocity":0.14960629921259844},{"duration":0.1094890000000106,"midi":37,"time":126.56928399999998,"velocity":0.14960629921259844},{"duration":0.1094889999999964,"midi":37,"time":126.67877299999999,"velocity":0.14960629921259844},{"duration":0.1094889999999964,"midi":37,"time":126.78826199999999,"velocity":0.14960629921259844},{"duration":0.1094889999999964,"midi":37,"time":126.89775099999999,"velocity":0.14960629921259844},{"duration":0.1094890000000106,"midi":37,"time":127.00723999999998,"velocity":0.14960629921259844},{"duration":0.1094889999999964,"midi":37,"time":127.11672899999999,"velocity":0.14960629921259844},{"duration":0.1094889999999964,"midi":37,"time":127.22621799999999,"velocity":0.14960629921259844},{"duration":0.1094889999999964,"midi":37,"time":127.33570699999999,"velocity":0.14960629921259844},{"duration":0.1094890000000106,"midi":37,"time":127.44519599999998,"velocity":0.14960629921259844},{"duration":0.1094889999999964,"midi":37,"time":127.55468499999999,"velocity":0.14960629921259844},{"duration":0.1094889999999964,"midi":37,"time":127.66417399999999,"velocity":0.14960629921259844},{"duration":0.1094889999999964,"midi":37,"time":127.77366299999998,"velocity":0.14960629921259844},{"duration":0.1094890000000106,"midi":37,"time":127.88315199999998,"velocity":0.14960629921259844},{"duration":0.1094889999999964,"midi":37,"time":127.99264099999999,"velocity":0.14960629921259844},{"duration":0.1094889999999964,"midi":37,"time":128.10213,"velocity":0.14960629921259844},{"duration":0.1094889999999964,"midi":37,"time":128.21161899999998,"velocity":0.14960629921259844},{"duration":0.1094889999999964,"midi":37,"time":128.32110799999998,"velocity":0.14960629921259844},{"duration":0.1094889999999964,"midi":37,"time":128.43059699999998,"velocity":0.14960629921259844},{"duration":0.10948900000002482,"midi":37,"time":128.54008599999997,"velocity":0.14960629921259844},{"duration":0.1094889999999964,"midi":37,"time":128.649575,"velocity":0.14960629921259844},{"duration":0.1094889999999964,"midi":37,"time":128.759064,"velocity":0.14960629921259844},{"duration":0.1094889999999964,"midi":37,"time":128.868553,"velocity":0.14960629921259844},{"duration":0.1094889999999964,"midi":37,"time":128.978042,"velocity":0.14960629921259844},{"duration":0.1094889999999964,"midi":37,"time":129.08753099999998,"velocity":0.14960629921259844},{"duration":0.1094889999999964,"midi":37,"time":129.19701999999998,"velocity":0.14960629921259844},{"duration":0.1094889999999964,"midi":37,"time":129.30650899999998,"velocity":0.14960629921259844},{"duration":0.10948900000002482,"midi":37,"time":129.41599799999997,"velocity":0.14960629921259844},{"duration":0.1094889999999964,"midi":37,"time":129.525487,"velocity":0.14960629921259844},{"duration":0.1094889999999964,"midi":36,"time":129.634976,"velocity":0.14960629921259844},{"duration":0.1094889999999964,"midi":36,"time":129.744465,"velocity":0.14960629921259844},{"duration":0.1094889999999964,"midi":36,"time":129.853954,"velocity":0.14960629921259844},{"duration":0.1094889999999964,"midi":36,"time":129.96344299999998,"velocity":0.14960629921259844},{"duration":0.1094889999999964,"midi":36,"time":130.07293199999998,"velocity":0.14960629921259844},{"duration":0.1094889999999964,"midi":36,"time":130.18242099999998,"velocity":0.14960629921259844},{"duration":0.10948900000002482,"midi":36,"time":130.29190999999997,"velocity":0.14960629921259844},{"duration":0.1094889999999964,"midi":36,"time":130.401399,"velocity":0.14960629921259844},{"duration":0.1094889999999964,"midi":36,"time":130.510888,"velocity":0.14960629921259844},{"duration":0.1094889999999964,"midi":36,"time":130.620377,"velocity":0.14960629921259844},{"duration":0.1094889999999964,"midi":36,"time":130.729866,"velocity":0.14960629921259844},{"duration":0.1094889999999964,"midi":36,"time":130.83935499999998,"velocity":0.14960629921259844},{"duration":0.1094889999999964,"midi":36,"time":130.94884399999998,"velocity":0.14960629921259844},{"duration":0.10948900000002482,"midi":36,"time":131.05833299999998,"velocity":0.14960629921259844},{"duration":0.1094889999999964,"midi":36,"time":131.167822,"velocity":0.14960629921259844},{"duration":0.1094889999999964,"midi":36,"time":131.277311,"velocity":0.14960629921259844},{"duration":0.1094889999999964,"midi":36,"time":131.3868,"velocity":0.14960629921259844},{"duration":0.1094889999999964,"midi":36,"time":131.496289,"velocity":0.14960629921259844},{"duration":0.1094889999999964,"midi":36,"time":131.605778,"velocity":0.14960629921259844},{"duration":0.1094889999999964,"midi":36,"time":131.71526699999998,"velocity":0.14960629921259844},{"duration":0.1094889999999964,"midi":36,"time":131.82475599999998,"velocity":0.14960629921259844},{"duration":0.10948900000002482,"midi":36,"time":131.93424499999998,"velocity":0.14960629921259844},{"duration":0.1094889999999964,"midi":36,"time":132.043734,"velocity":0.14960629921259844},{"duration":0.1094889999999964,"midi":36,"time":132.153223,"velocity":0.14960629921259844},{"duration":0.1094889999999964,"midi":36,"time":132.262712,"velocity":0.14960629921259844},{"duration":0.1094889999999964,"midi":36,"time":132.372201,"velocity":0.14960629921259844},{"duration":0.1094889999999964,"midi":36,"time":132.48169,"velocity":0.14960629921259844},{"duration":0.1094889999999964,"midi":36,"time":132.59117899999998,"velocity":0.14960629921259844},{"duration":0.1094889999999964,"midi":36,"time":132.70066799999998,"velocity":0.14960629921259844},{"duration":0.10948900000002482,"midi":36,"time":132.81015699999998,"velocity":0.14960629921259844},{"duration":0.1094889999999964,"midi":36,"time":132.919646,"velocity":0.14960629921259844},{"duration":0.1094889999999964,"midi":36,"time":133.029135,"velocity":0.14960629921259844},{"duration":0.1094889999999964,"midi":37,"time":133.138624,"velocity":0.14960629921259844},{"duration":0.1094889999999964,"midi":37,"time":133.248113,"velocity":0.14960629921259844},{"duration":0.1094889999999964,"midi":37,"time":133.35760199999999,"velocity":0.14960629921259844},{"duration":0.1094889999999964,"midi":37,"time":133.46709099999998,"velocity":0.14960629921259844},{"duration":0.1094889999999964,"midi":37,"time":133.57657999999998,"velocity":0.14960629921259844},{"duration":0.10948900000002482,"midi":37,"time":133.68606899999997,"velocity":0.14960629921259844},{"duration":0.1094889999999964,"midi":37,"time":133.795558,"velocity":0.14960629921259844},{"duration":0.1094889999999964,"midi":37,"time":133.905047,"velocity":0.14960629921259844},{"duration":0.1094889999999964,"midi":37,"time":134.014536,"velocity":0.14960629921259844},{"duration":0.1094889999999964,"midi":37,"time":134.124025,"velocity":0.14960629921259844},{"duration":0.1094889999999964,"midi":37,"time":134.23351399999999,"velocity":0.14960629921259844},{"duration":0.1094889999999964,"midi":37,"time":134.34300299999998,"velocity":0.14960629921259844},{"duration":0.1094889999999964,"midi":37,"time":134.45249199999998,"velocity":0.14960629921259844},{"duration":0.10948900000002482,"midi":37,"time":134.56198099999997,"velocity":0.14960629921259844},{"duration":0.1094889999999964,"midi":37,"time":134.67147,"velocity":0.14960629921259844},{"duration":0.1094889999999964,"midi":37,"time":134.780959,"velocity":0.14960629921259844},{"duration":0.1094889999999964,"midi":37,"time":134.890448,"velocity":0.14960629921259844},{"duration":0.1094889999999964,"midi":37,"time":134.999937,"velocity":0.14960629921259844},{"duration":0.1094889999999964,"midi":37,"time":135.10942599999998,"velocity":0.14960629921259844},{"duration":0.1094889999999964,"midi":37,"time":135.21891499999998,"velocity":0.14960629921259844},{"duration":0.1094889999999964,"midi":37,"time":135.32840399999998,"velocity":0.14960629921259844},{"duration":0.10948900000002482,"midi":37,"time":135.43789299999997,"velocity":0.14960629921259844},{"duration":0.1094889999999964,"midi":37,"time":135.547382,"velocity":0.14960629921259844},{"duration":0.1094889999999964,"midi":37,"time":135.656871,"velocity":0.14960629921259844},{"duration":0.1094889999999964,"midi":37,"time":135.76636,"velocity":0.14960629921259844},{"duration":0.1094889999999964,"midi":37,"time":135.875849,"velocity":0.14960629921259844},{"duration":0.1094889999999964,"midi":37,"time":135.98533799999998,"velocity":0.14960629921259844},{"duration":0.1094889999999964,"midi":37,"time":136.09482699999998,"velocity":0.14960629921259844},{"duration":0.1094889999999964,"midi":37,"time":136.20431599999998,"velocity":0.14960629921259844},{"duration":0.10948900000002482,"midi":37,"time":136.31380499999997,"velocity":0.14960629921259844},{"duration":0.1094889999999964,"midi":37,"time":136.423294,"velocity":0.14960629921259844},{"duration":0.1094889999999964,"midi":37,"time":136.532783,"velocity":0.14960629921259844},{"duration":0.1094889999999964,"midi":36,"time":136.642272,"velocity":0.14960629921259844},{"duration":0.1094889999999964,"midi":36,"time":136.751761,"velocity":0.14960629921259844},{"duration":0.1094889999999964,"midi":36,"time":136.86124999999998,"velocity":0.14960629921259844},{"duration":0.1094889999999964,"midi":36,"time":136.97073899999998,"velocity":0.14960629921259844},{"duration":0.1094889999999964,"midi":36,"time":137.08022799999998,"velocity":0.14960629921259844},{"duration":0.10948900000002482,"midi":36,"time":137.18971699999997,"velocity":0.14960629921259844},{"duration":0.1094889999999964,"midi":36,"time":137.299206,"velocity":0.14960629921259844},{"duration":0.1094889999999964,"midi":36,"time":137.408695,"velocity":0.14960629921259844},{"duration":0.1094889999999964,"midi":36,"time":137.518184,"velocity":0.14960629921259844},{"duration":0.1094889999999964,"midi":36,"time":137.627673,"velocity":0.14960629921259844},{"duration":0.1094889999999964,"midi":36,"time":137.73716199999998,"velocity":0.14960629921259844},{"duration":0.1094889999999964,"midi":36,"time":137.84665099999998,"velocity":0.14960629921259844},{"duration":0.1094889999999964,"midi":36,"time":137.95613999999998,"velocity":0.14960629921259844},{"duration":0.10948900000002482,"midi":36,"time":138.06562899999997,"velocity":0.14960629921259844},{"duration":0.1094889999999964,"midi":36,"time":138.175118,"velocity":0.14960629921259844},{"duration":0.1094889999999964,"midi":36,"time":138.284607,"velocity":0.14960629921259844},{"duration":0.1094889999999964,"midi":36,"time":138.394096,"velocity":0.14960629921259844},{"duration":0.1094889999999964,"midi":36,"time":138.503585,"velocity":0.14960629921259844},{"duration":0.1094889999999964,"midi":36,"time":138.61307399999998,"velocity":0.14960629921259844},{"duration":0.1094889999999964,"midi":36,"time":138.72256299999998,"velocity":0.14960629921259844},{"duration":0.1094889999999964,"midi":36,"time":138.83205199999998,"velocity":0.14960629921259844},{"duration":0.10948900000002482,"midi":36,"time":138.94154099999997,"velocity":0.14960629921259844},{"duration":0.1094889999999964,"midi":36,"time":139.05103,"velocity":0.14960629921259844},{"duration":0.1094889999999964,"midi":36,"time":139.160519,"velocity":0.14960629921259844},{"duration":0.1094889999999964,"midi":36,"time":139.270008,"velocity":0.14960629921259844},{"duration":0.1094889999999964,"midi":36,"time":139.379497,"velocity":0.14960629921259844},{"duration":0.1094889999999964,"midi":36,"time":139.48898599999998,"velocity":0.14960629921259844},{"duration":0.1094889999999964,"midi":36,"time":139.59847499999998,"velocity":0.14960629921259844},{"duration":0.1094889999999964,"midi":36,"time":139.70796399999998,"velocity":0.14960629921259844},{"duration":0.10948900000002482,"midi":36,"time":139.81745299999997,"velocity":0.14960629921259844},{"duration":0.1094889999999964,"midi":36,"time":139.926942,"velocity":0.14960629921259844},{"duration":0.1094889999999964,"midi":36,"time":140.036431,"velocity":0.14960629921259844},{"duration":0.1094889999999964,"midi":37,"time":140.14592,"velocity":0.14960629921259844},{"duration":0.1094889999999964,"midi":37,"time":140.255409,"velocity":0.14960629921259844},{"duration":0.1094889999999964,"midi":37,"time":140.36489799999998,"velocity":0.14960629921259844},{"duration":0.1094889999999964,"midi":37,"time":140.47438699999998,"velocity":0.14960629921259844},{"duration":0.10948900000002482,"midi":37,"time":140.58387599999998,"velocity":0.14960629921259844},{"duration":0.1094889999999964,"midi":37,"time":140.693365,"velocity":0.14960629921259844},{"duration":0.1094889999999964,"midi":37,"time":140.802854,"velocity":0.14960629921259844},{"duration":0.1094889999999964,"midi":37,"time":140.912343,"velocity":0.14960629921259844},{"duration":0.1094889999999964,"midi":37,"time":141.021832,"velocity":0.14960629921259844},{"duration":0.1094889999999964,"midi":37,"time":141.13132099999999,"velocity":0.14960629921259844},{"duration":0.1094889999999964,"midi":37,"time":141.24080999999998,"velocity":0.14960629921259844},{"duration":0.1094889999999964,"midi":37,"time":141.35029899999998,"velocity":0.14960629921259844},{"duration":0.10948900000002482,"midi":37,"time":141.45978799999997,"velocity":0.14960629921259844},{"duration":0.1094889999999964,"midi":37,"time":141.569277,"velocity":0.14960629921259844},{"duration":0.1094889999999964,"midi":37,"time":141.678766,"velocity":0.14960629921259844},{"duration":0.1094889999999964,"midi":37,"time":141.788255,"velocity":0.14960629921259844},{"duration":0.1094889999999964,"midi":37,"time":141.897744,"velocity":0.14960629921259844},{"duration":0.1094889999999964,"midi":37,"time":142.00723299999999,"velocity":0.14960629921259844},{"duration":0.1094889999999964,"midi":37,"time":142.11672199999998,"velocity":0.14960629921259844},{"duration":0.1094889999999964,"midi":37,"time":142.22621099999998,"velocity":0.14960629921259844},{"duration":0.10948900000002482,"midi":37,"time":142.33569999999997,"velocity":0.14960629921259844},{"duration":0.1094889999999964,"midi":37,"time":142.445189,"velocity":0.14960629921259844},{"duration":0.1094889999999964,"midi":37,"time":142.554678,"velocity":0.14960629921259844},{"duration":0.1094889999999964,"midi":37,"time":142.664167,"velocity":0.14960629921259844},{"duration":0.1094889999999964,"midi":37,"time":142.773656,"velocity":0.14960629921259844},{"duration":0.1094889999999964,"midi":37,"time":142.88314499999998,"velocity":0.14960629921259844},{"duration":0.1094889999999964,"midi":37,"time":142.99263399999998,"velocity":0.14960629921259844},{"duration":0.1094889999999964,"midi":37,"time":143.10212299999998,"velocity":0.14960629921259844},{"duration":0.10948900000002482,"midi":37,"time":143.21161199999997,"velocity":0.14960629921259844},{"duration":0.1094889999999964,"midi":37,"time":143.321101,"velocity":0.14960629921259844},{"duration":0.1094889999999964,"midi":37,"time":143.43059,"velocity":0.14960629921259844},{"duration":0.1094889999999964,"midi":37,"time":143.540079,"velocity":0.14960629921259844},{"duration":0.1094889999999964,"midi":36,"time":143.649568,"velocity":0.14960629921259844},{"duration":0.1094889999999964,"midi":36,"time":143.75905699999998,"velocity":0.14960629921259844},{"duration":0.1094889999999964,"midi":36,"time":143.86854599999998,"velocity":0.14960629921259844},{"duration":0.1094889999999964,"midi":36,"time":143.97803499999998,"velocity":0.14960629921259844},{"duration":0.10948900000002482,"midi":36,"time":144.08752399999997,"velocity":0.14960629921259844},{"duration":0.1094889999999964,"midi":36,"time":144.197013,"velocity":0.14960629921259844},{"duration":0.1094889999999964,"midi":36,"time":144.306502,"velocity":0.14960629921259844},{"duration":0.1094889999999964,"midi":36,"time":144.415991,"velocity":0.14960629921259844},{"duration":0.1094889999999964,"midi":36,"time":144.52548,"velocity":0.14960629921259844},{"duration":0.1094889999999964,"midi":36,"time":144.63496899999998,"velocity":0.14960629921259844},{"duration":0.1094889999999964,"midi":36,"time":144.74445799999998,"velocity":0.14960629921259844},{"duration":0.1094889999999964,"midi":36,"time":144.85394699999998,"velocity":0.14960629921259844},{"duration":0.10948900000002482,"midi":36,"time":144.96343599999997,"velocity":0.14960629921259844},{"duration":0.1094889999999964,"midi":36,"time":145.072925,"velocity":0.14960629921259844},{"duration":0.1094889999999964,"midi":36,"time":145.182414,"velocity":0.14960629921259844},{"duration":0.1094889999999964,"midi":36,"time":145.291903,"velocity":0.14960629921259844},{"duration":0.1094889999999964,"midi":36,"time":145.401392,"velocity":0.14960629921259844},{"duration":0.1094889999999964,"midi":36,"time":145.51088099999998,"velocity":0.14960629921259844},{"duration":0.1094889999999964,"midi":36,"time":145.62036999999998,"velocity":0.14960629921259844},{"duration":0.1094889999999964,"midi":36,"time":145.72985899999998,"velocity":0.14960629921259844},{"duration":0.10948900000002482,"midi":36,"time":145.83934799999997,"velocity":0.14960629921259844},{"duration":0.1094889999999964,"midi":36,"time":145.948837,"velocity":0.14960629921259844},{"duration":0.1094889999999964,"midi":36,"time":146.058326,"velocity":0.14960629921259844},{"duration":0.1094889999999964,"midi":36,"time":146.167815,"velocity":0.14960629921259844},{"duration":0.1094889999999964,"midi":36,"time":146.277304,"velocity":0.14960629921259844},{"duration":0.1094889999999964,"midi":36,"time":146.38679299999998,"velocity":0.14960629921259844},{"duration":0.1094889999999964,"midi":36,"time":146.49628199999998,"velocity":0.14960629921259844},{"duration":0.1094889999999964,"midi":36,"time":146.60577099999998,"velocity":0.14960629921259844},{"duration":0.10948900000002482,"midi":36,"time":146.71525999999997,"velocity":0.14960629921259844},{"duration":0.1094889999999964,"midi":36,"time":146.824749,"velocity":0.14960629921259844},{"duration":0.1094889999999964,"midi":36,"time":146.934238,"velocity":0.14960629921259844},{"duration":0.1094889999999964,"midi":36,"time":147.043727,"velocity":0.14960629921259844},{"duration":0.1094889999999964,"midi":37,"time":147.153216,"velocity":0.14960629921259844},{"duration":0.1094889999999964,"midi":37,"time":147.26270499999998,"velocity":0.14960629921259844},{"duration":0.1094889999999964,"midi":37,"time":147.37219399999998,"velocity":0.14960629921259844},{"duration":0.1094889999999964,"midi":37,"time":147.48168299999998,"velocity":0.14960629921259844},{"duration":0.10948900000002482,"midi":37,"time":147.59117199999997,"velocity":0.14960629921259844},{"duration":0.1094889999999964,"midi":37,"time":147.700661,"velocity":0.14960629921259844},{"duration":0.1094889999999964,"midi":37,"time":147.81015,"velocity":0.14960629921259844},{"duration":0.1094889999999964,"midi":37,"time":147.919639,"velocity":0.14960629921259844},{"duration":0.1094889999999964,"midi":37,"time":148.029128,"velocity":0.14960629921259844},{"duration":0.1094889999999964,"midi":37,"time":148.13861699999998,"velocity":0.14960629921259844},{"duration":0.1094889999999964,"midi":37,"time":148.24810599999998,"velocity":0.14960629921259844},{"duration":0.1094889999999964,"midi":37,"time":148.35759499999998,"velocity":0.14960629921259844},{"duration":0.10948900000002482,"midi":37,"time":148.46708399999997,"velocity":0.14960629921259844},{"duration":0.1094889999999964,"midi":37,"time":148.576573,"velocity":0.14960629921259844},{"duration":0.1094889999999964,"midi":37,"time":148.686062,"velocity":0.14960629921259844},{"duration":0.1094889999999964,"midi":37,"time":148.795551,"velocity":0.14960629921259844},{"duration":0.1094889999999964,"midi":37,"time":148.90503999999999,"velocity":0.14960629921259844},{"duration":0.1094889999999964,"midi":37,"time":149.01452899999998,"velocity":0.14960629921259844},{"duration":0.1094889999999964,"midi":37,"time":149.12401799999998,"velocity":0.14960629921259844},{"duration":0.1094889999999964,"midi":37,"time":149.23350699999997,"velocity":0.14960629921259844},{"duration":0.10948900000002482,"midi":37,"time":149.34299599999997,"velocity":0.14960629921259844},{"duration":0.1094889999999964,"midi":37,"time":149.452485,"velocity":0.14960629921259844},{"duration":0.1094889999999964,"midi":37,"time":149.561974,"velocity":0.14960629921259844},{"duration":0.1094889999999964,"midi":37,"time":149.671463,"velocity":0.14960629921259844},{"duration":0.1094889999999964,"midi":37,"time":149.78095199999998,"velocity":0.14960629921259844},{"duration":0.1094889999999964,"midi":37,"time":149.89044099999998,"velocity":0.14960629921259844},{"duration":0.1094889999999964,"midi":37,"time":149.99992999999998,"velocity":0.14960629921259844},{"duration":0.10948900000002482,"midi":37,"time":150.10941899999997,"velocity":0.14960629921259844},{"duration":0.1094889999999964,"midi":37,"time":150.218908,"velocity":0.14960629921259844},{"duration":0.1094889999999964,"midi":37,"time":150.328397,"velocity":0.14960629921259844},{"duration":0.1094889999999964,"midi":37,"time":150.437886,"velocity":0.14960629921259844},{"duration":0.1094889999999964,"midi":37,"time":150.547375,"velocity":0.14960629921259844},{"duration":0.1094889999999964,"midi":36,"time":150.65686399999998,"velocity":0.14960629921259844},{"duration":0.1094889999999964,"midi":36,"time":150.76635299999998,"velocity":0.14960629921259844},{"duration":0.1094889999999964,"midi":36,"time":150.87584199999998,"velocity":0.14960629921259844},{"duration":0.10948900000002482,"midi":36,"time":150.98533099999997,"velocity":0.14960629921259844},{"duration":0.1094889999999964,"midi":36,"time":151.09482,"velocity":0.14960629921259844},{"duration":0.1094889999999964,"midi":36,"time":151.204309,"velocity":0.14960629921259844},{"duration":0.1094889999999964,"midi":36,"time":151.313798,"velocity":0.14960629921259844},{"duration":0.1094889999999964,"midi":36,"time":151.423287,"velocity":0.14960629921259844},{"duration":0.1094889999999964,"midi":36,"time":151.53277599999998,"velocity":0.14960629921259844},{"duration":0.1094889999999964,"midi":36,"time":151.64226499999998,"velocity":0.14960629921259844},{"duration":0.1094889999999964,"midi":36,"time":151.75175399999998,"velocity":0.14960629921259844},{"duration":0.10948900000002482,"midi":36,"time":151.86124299999997,"velocity":0.14960629921259844},{"duration":0.1094889999999964,"midi":36,"time":151.970732,"velocity":0.14960629921259844},{"duration":0.1094889999999964,"midi":36,"time":152.080221,"velocity":0.14960629921259844},{"duration":0.1094889999999964,"midi":36,"time":152.18971,"velocity":0.14960629921259844},{"duration":0.1094889999999964,"midi":36,"time":152.299199,"velocity":0.14960629921259844},{"duration":0.1094889999999964,"midi":36,"time":152.40868799999998,"velocity":0.14960629921259844},{"duration":0.1094889999999964,"midi":36,"time":152.51817699999998,"velocity":0.14960629921259844},{"duration":0.1094889999999964,"midi":36,"time":152.62766599999998,"velocity":0.14960629921259844},{"duration":0.10948900000002482,"midi":36,"time":152.73715499999997,"velocity":0.14960629921259844},{"duration":0.1094889999999964,"midi":36,"time":152.846644,"velocity":0.14960629921259844},{"duration":0.1094889999999964,"midi":36,"time":152.956133,"velocity":0.14960629921259844},{"duration":0.1094889999999964,"midi":36,"time":153.065622,"velocity":0.14960629921259844},{"duration":0.1094889999999964,"midi":36,"time":153.175111,"velocity":0.14960629921259844},{"duration":0.1094889999999964,"midi":36,"time":153.28459999999998,"velocity":0.14960629921259844},{"duration":0.1094889999999964,"midi":36,"time":153.39408899999998,"velocity":0.14960629921259844},{"duration":0.1094889999999964,"midi":36,"time":153.50357799999998,"velocity":0.14960629921259844},{"duration":0.10948900000002482,"midi":36,"time":153.61306699999997,"velocity":0.14960629921259844},{"duration":0.1094889999999964,"midi":36,"time":153.722556,"velocity":0.14960629921259844},{"duration":0.1094889999999964,"midi":36,"time":153.832045,"velocity":0.14960629921259844},{"duration":0.1094889999999964,"midi":36,"time":153.941534,"velocity":0.14960629921259844},{"duration":0.1094889999999964,"midi":36,"time":154.051023,"velocity":0.14960629921259844},{"duration":0.1094889999999964,"midi":37,"time":154.16051199999998,"velocity":0.14960629921259844},{"duration":0.1094889999999964,"midi":37,"time":154.27000099999998,"velocity":0.14960629921259844},{"duration":0.1094889999999964,"midi":37,"time":154.37948999999998,"velocity":0.14960629921259844},{"duration":0.10948900000002482,"midi":37,"time":154.48897899999997,"velocity":0.14960629921259844},{"duration":0.1094889999999964,"midi":37,"time":154.598468,"velocity":0.14960629921259844},{"duration":0.1094889999999964,"midi":37,"time":154.707957,"velocity":0.14960629921259844},{"duration":0.1094889999999964,"midi":37,"time":154.817446,"velocity":0.14960629921259844},{"duration":0.1094889999999964,"midi":37,"time":154.926935,"velocity":0.14960629921259844},{"duration":0.1094889999999964,"midi":37,"time":155.03642399999998,"velocity":0.14960629921259844},{"duration":0.1094889999999964,"midi":37,"time":155.14591299999998,"velocity":0.14960629921259844},{"duration":0.1094889999999964,"midi":37,"time":155.25540199999998,"velocity":0.14960629921259844},{"duration":0.10948900000002482,"midi":37,"time":155.36489099999997,"velocity":0.14960629921259844},{"duration":0.1094889999999964,"midi":37,"time":155.47438,"velocity":0.14960629921259844},{"duration":0.1094889999999964,"midi":37,"time":155.583869,"velocity":0.14960629921259844},{"duration":0.1094889999999964,"midi":37,"time":155.693358,"velocity":0.14960629921259844},{"duration":0.1094889999999964,"midi":37,"time":155.80284699999999,"velocity":0.14960629921259844},{"duration":0.1094889999999964,"midi":37,"time":155.91233599999998,"velocity":0.14960629921259844},{"duration":0.1094889999999964,"midi":37,"time":156.02182499999998,"velocity":0.14960629921259844},{"duration":0.1094889999999964,"midi":37,"time":156.13131399999997,"velocity":0.14960629921259844},{"duration":0.10948900000002482,"midi":37,"time":156.24080299999997,"velocity":0.14960629921259844},{"duration":0.1094889999999964,"midi":37,"time":156.350292,"velocity":0.14960629921259844},{"duration":0.1094889999999964,"midi":37,"time":156.459781,"velocity":0.14960629921259844},{"duration":0.1094889999999964,"midi":37,"time":156.56927,"velocity":0.14960629921259844},{"duration":0.1094889999999964,"midi":37,"time":156.67875899999999,"velocity":0.14960629921259844},{"duration":0.1094889999999964,"midi":37,"time":156.78824799999998,"velocity":0.14960629921259844},{"duration":0.1094889999999964,"midi":37,"time":156.89773699999998,"velocity":0.14960629921259844},{"duration":0.1094889999999964,"midi":37,"time":157.00722599999997,"velocity":0.14960629921259844},{"duration":0.10948900000002482,"midi":37,"time":157.11671499999997,"velocity":0.14960629921259844},{"duration":0.1094889999999964,"midi":37,"time":157.226204,"velocity":0.14960629921259844},{"duration":0.1094889999999964,"midi":37,"time":157.335693,"velocity":0.14960629921259844},{"duration":0.1094889999999964,"midi":37,"time":157.445182,"velocity":0.14960629921259844},{"duration":0.1094889999999964,"midi":37,"time":157.55467099999998,"velocity":0.14960629921259844},{"duration":0.1094889999999964,"midi":36,"time":157.66415999999998,"velocity":0.14960629921259844},{"duration":0.1094889999999964,"midi":36,"time":157.77364899999998,"velocity":0.14960629921259844},{"duration":0.1094889999999964,"midi":36,"time":157.88313799999997,"velocity":0.14960629921259844},{"duration":0.10948900000002482,"midi":36,"time":157.99262699999997,"velocity":0.14960629921259844},{"duration":0.1094889999999964,"midi":36,"time":158.102116,"velocity":0.14960629921259844},{"duration":0.1094889999999964,"midi":36,"time":158.211605,"velocity":0.14960629921259844},{"duration":0.1094889999999964,"midi":36,"time":158.321094,"velocity":0.14960629921259844},{"duration":0.1094889999999964,"midi":36,"time":158.43058299999998,"velocity":0.14960629921259844},{"duration":0.1094889999999964,"midi":36,"time":158.54007199999998,"velocity":0.14960629921259844},{"duration":0.1094889999999964,"midi":36,"time":158.64956099999998,"velocity":0.14960629921259844},{"duration":0.10948900000002482,"midi":36,"time":158.75904999999997,"velocity":0.14960629921259844},{"duration":0.1094889999999964,"midi":36,"time":158.868539,"velocity":0.14960629921259844},{"duration":0.1094889999999964,"midi":36,"time":158.978028,"velocity":0.14960629921259844},{"duration":0.1094889999999964,"midi":36,"time":159.087517,"velocity":0.14960629921259844},{"duration":0.1094889999999964,"midi":36,"time":159.197006,"velocity":0.14960629921259844},{"duration":0.1094889999999964,"midi":36,"time":159.30649499999998,"velocity":0.14960629921259844},{"duration":0.1094889999999964,"midi":36,"time":159.41598399999998,"velocity":0.14960629921259844},{"duration":0.1094889999999964,"midi":36,"time":159.52547299999998,"velocity":0.14960629921259844},{"duration":0.10948900000002482,"midi":36,"time":159.63496199999997,"velocity":0.14960629921259844},{"duration":0.1094889999999964,"midi":36,"time":159.744451,"velocity":0.14960629921259844},{"duration":0.1094889999999964,"midi":36,"time":159.85394,"velocity":0.14960629921259844},{"duration":0.1094889999999964,"midi":36,"time":159.963429,"velocity":0.14960629921259844},{"duration":0.1094889999999964,"midi":36,"time":160.072918,"velocity":0.14960629921259844},{"duration":0.1094889999999964,"midi":36,"time":160.18240699999998,"velocity":0.14960629921259844},{"duration":0.1094889999999964,"midi":36,"time":160.29189599999998,"velocity":0.14960629921259844},{"duration":0.1094889999999964,"midi":36,"time":160.40138499999998,"velocity":0.14960629921259844},{"duration":0.10948900000002482,"midi":36,"time":160.51087399999997,"velocity":0.14960629921259844},{"duration":0.1094889999999964,"midi":36,"time":160.620363,"velocity":0.14960629921259844},{"duration":0.1094889999999964,"midi":36,"time":160.729852,"velocity":0.14960629921259844},{"duration":0.1094889999999964,"midi":36,"time":160.839341,"velocity":0.14960629921259844},{"duration":0.1094889999999964,"midi":36,"time":160.94883,"velocity":0.14960629921259844},{"duration":0.1094889999999964,"midi":36,"time":161.05831899999998,"velocity":0.14960629921259844},{"duration":0.1094889999999964,"midi":37,"time":161.16780799999998,"velocity":0.14960629921259844},{"duration":0.1094889999999964,"midi":37,"time":161.27729699999998,"velocity":0.14960629921259844},{"duration":0.10948900000002482,"midi":37,"time":161.38678599999997,"velocity":0.14960629921259844},{"duration":0.1094889999999964,"midi":37,"time":161.496275,"velocity":0.14960629921259844},{"duration":0.1094889999999964,"midi":37,"time":161.605764,"velocity":0.14960629921259844},{"duration":0.1094889999999964,"midi":37,"time":161.715253,"velocity":0.14960629921259844},{"duration":0.1094889999999964,"midi":37,"time":161.824742,"velocity":0.14960629921259844},{"duration":0.1094889999999964,"midi":37,"time":161.93423099999998,"velocity":0.14960629921259844},{"duration":0.1094889999999964,"midi":37,"time":162.04371999999998,"velocity":0.14960629921259844},{"duration":0.1094889999999964,"midi":37,"time":162.15320899999998,"velocity":0.14960629921259844},{"duration":0.10948900000002482,"midi":37,"time":162.26269799999997,"velocity":0.14960629921259844},{"duration":0.1094889999999964,"midi":37,"time":162.372187,"velocity":0.14960629921259844},{"duration":0.1094889999999964,"midi":37,"time":162.481676,"velocity":0.14960629921259844},{"duration":0.1094889999999964,"midi":37,"time":162.591165,"velocity":0.14960629921259844},{"duration":0.1094889999999964,"midi":37,"time":162.700654,"velocity":0.14960629921259844},{"duration":0.1094889999999964,"midi":37,"time":162.81014299999998,"velocity":0.14960629921259844},{"duration":0.1094889999999964,"midi":37,"time":162.91963199999998,"velocity":0.14960629921259844},{"duration":0.1094889999999964,"midi":37,"time":163.02912099999998,"velocity":0.14960629921259844},{"duration":0.10948900000002482,"midi":37,"time":163.13860999999997,"velocity":0.14960629921259844},{"duration":0.1094889999999964,"midi":37,"time":163.248099,"velocity":0.14960629921259844},{"duration":0.1094889999999964,"midi":37,"time":163.357588,"velocity":0.14960629921259844},{"duration":0.1094889999999964,"midi":37,"time":163.467077,"velocity":0.14960629921259844},{"duration":0.1094889999999964,"midi":37,"time":163.57656599999999,"velocity":0.14960629921259844},{"duration":0.1094889999999964,"midi":37,"time":163.68605499999998,"velocity":0.14960629921259844},{"duration":0.1094889999999964,"midi":37,"time":163.79554399999998,"velocity":0.14960629921259844},{"duration":0.1094889999999964,"midi":37,"time":163.90503299999997,"velocity":0.14960629921259844},{"duration":0.10948900000002482,"midi":37,"time":164.01452199999997,"velocity":0.14960629921259844},{"duration":0.1094889999999964,"midi":37,"time":164.124011,"velocity":0.14960629921259844},{"duration":0.1094889999999964,"midi":37,"time":164.2335,"velocity":0.14960629921259844},{"duration":0.1094889999999964,"midi":37,"time":164.342989,"velocity":0.14960629921259844},{"duration":0.1094889999999964,"midi":37,"time":164.45247799999999,"velocity":0.14960629921259844},{"duration":0.1094889999999964,"midi":37,"time":164.56196699999998,"velocity":0.14960629921259844},{"duration":0.1094889999999964,"midi":36,"time":164.67145599999998,"velocity":0.14960629921259844},{"duration":0.1094889999999964,"midi":36,"time":164.78094499999997,"velocity":0.14960629921259844},{"duration":0.10948900000002482,"midi":36,"time":164.89043399999997,"velocity":0.14960629921259844},{"duration":0.1094889999999964,"midi":36,"time":164.999923,"velocity":0.14960629921259844},{"duration":0.1094889999999964,"midi":36,"time":165.109412,"velocity":0.14960629921259844},{"duration":0.1094889999999964,"midi":36,"time":165.218901,"velocity":0.14960629921259844},{"duration":0.1094889999999964,"midi":36,"time":165.32838999999998,"velocity":0.14960629921259844},{"duration":0.1094889999999964,"midi":36,"time":165.43787899999998,"velocity":0.14960629921259844},{"duration":0.1094889999999964,"midi":36,"time":165.54736799999998,"velocity":0.14960629921259844},{"duration":0.1094889999999964,"midi":36,"time":165.65685699999997,"velocity":0.14960629921259844},{"duration":0.10948900000002482,"midi":36,"time":165.76634599999997,"velocity":0.14960629921259844},{"duration":0.1094889999999964,"midi":36,"time":165.875835,"velocity":0.14960629921259844},{"duration":0.1094889999999964,"midi":36,"time":165.985324,"velocity":0.14960629921259844},{"duration":0.1094889999999964,"midi":36,"time":166.094813,"velocity":0.14960629921259844},{"duration":0.1094889999999964,"midi":36,"time":166.20430199999998,"velocity":0.14960629921259844},{"duration":0.1094889999999964,"midi":36,"time":166.31379099999998,"velocity":0.14960629921259844},{"duration":0.1094889999999964,"midi":36,"time":166.42327999999998,"velocity":0.14960629921259844},{"duration":0.1094889999999964,"midi":36,"time":166.53276899999997,"velocity":0.14960629921259844},{"duration":0.10948900000002482,"midi":36,"time":166.64225799999997,"velocity":0.14960629921259844},{"duration":0.1094889999999964,"midi":36,"time":166.751747,"velocity":0.14960629921259844},{"duration":0.1094889999999964,"midi":36,"time":166.861236,"velocity":0.14960629921259844},{"duration":0.1094889999999964,"midi":36,"time":166.970725,"velocity":0.14960629921259844},{"duration":0.1094889999999964,"midi":36,"time":167.08021399999998,"velocity":0.14960629921259844},{"duration":0.1094889999999964,"midi":36,"time":167.18970299999998,"velocity":0.14960629921259844},{"duration":0.1094889999999964,"midi":36,"time":167.29919199999998,"velocity":0.14960629921259844},{"duration":0.1094889999999964,"midi":36,"time":167.40868099999997,"velocity":0.14960629921259844},{"duration":0.10948900000002482,"midi":36,"time":167.51816999999997,"velocity":0.14960629921259844},{"duration":0.1094889999999964,"midi":36,"time":167.627659,"velocity":0.14960629921259844},{"duration":0.1094889999999964,"midi":36,"time":167.737148,"velocity":0.14960629921259844},{"duration":0.1094889999999964,"midi":36,"time":167.846637,"velocity":0.14960629921259844},{"duration":0.1094889999999964,"midi":36,"time":167.95612599999998,"velocity":0.14960629921259844},{"duration":0.1094889999999964,"midi":36,"time":168.06561499999998,"velocity":0.14960629921259844},{"duration":0.1094889999999964,"midi":37,"time":168.17510399999998,"velocity":0.14960629921259844},{"duration":0.10948900000002482,"midi":37,"time":168.28459299999997,"velocity":0.14960629921259844},{"duration":0.1094889999999964,"midi":37,"time":168.394082,"velocity":0.14960629921259844},{"duration":0.1094889999999964,"midi":37,"time":168.503571,"velocity":0.14960629921259844},{"duration":0.1094889999999964,"midi":37,"time":168.61306,"velocity":0.14960629921259844},{"duration":0.1094889999999964,"midi":37,"time":168.722549,"velocity":0.14960629921259844},{"duration":0.1094889999999964,"midi":37,"time":168.83203799999998,"velocity":0.14960629921259844},{"duration":0.1094889999999964,"midi":37,"time":168.94152699999998,"velocity":0.14960629921259844},{"duration":0.1094889999999964,"midi":37,"time":169.05101599999998,"velocity":0.14960629921259844},{"duration":0.10948900000002482,"midi":37,"time":169.16050499999997,"velocity":0.14960629921259844},{"duration":0.1094889999999964,"midi":37,"time":169.269994,"velocity":0.14960629921259844},{"duration":0.1094889999999964,"midi":37,"time":169.379483,"velocity":0.14960629921259844},{"duration":0.1094889999999964,"midi":37,"time":169.488972,"velocity":0.14960629921259844},{"duration":0.1094889999999964,"midi":37,"time":169.598461,"velocity":0.14960629921259844},{"duration":0.1094889999999964,"midi":37,"time":169.70794999999998,"velocity":0.14960629921259844},{"duration":0.1094889999999964,"midi":37,"time":169.81743899999998,"velocity":0.14960629921259844},{"duration":0.1094889999999964,"midi":37,"time":169.92692799999998,"velocity":0.14960629921259844},{"duration":0.10948900000002482,"midi":37,"time":170.03641699999997,"velocity":0.14960629921259844},{"duration":0.1094889999999964,"midi":37,"time":170.145906,"velocity":0.14960629921259844},{"duration":0.1094889999999964,"midi":37,"time":170.255395,"velocity":0.14960629921259844},{"duration":0.1094889999999964,"midi":37,"time":170.364884,"velocity":0.14960629921259844},{"duration":0.1094889999999964,"midi":37,"time":170.47437299999999,"velocity":0.14960629921259844},{"duration":0.1094889999999964,"midi":37,"time":170.58386199999998,"velocity":0.14960629921259844},{"duration":0.1094889999999964,"midi":37,"time":170.69335099999998,"velocity":0.14960629921259844},{"duration":0.1094889999999964,"midi":37,"time":170.80283999999997,"velocity":0.14960629921259844},{"duration":0.10948900000002482,"midi":37,"time":170.91232899999997,"velocity":0.14960629921259844},{"duration":0.1094889999999964,"midi":37,"time":171.021818,"velocity":0.14960629921259844},{"duration":0.1094889999999964,"midi":37,"time":171.131307,"velocity":0.14960629921259844},{"duration":0.1094889999999964,"midi":37,"time":171.240796,"velocity":0.14960629921259844},{"duration":0.1094889999999964,"midi":37,"time":171.35028499999999,"velocity":0.14960629921259844},{"duration":0.1094889999999964,"midi":37,"time":171.45977399999998,"velocity":0.14960629921259844},{"duration":0.1094889999999964,"midi":37,"time":171.56926299999998,"velocity":0.14960629921259844},{"duration":0.1094889999999964,"midi":36,"time":171.67875199999997,"velocity":0.14960629921259844},{"duration":0.10948900000002482,"midi":36,"time":171.78824099999997,"velocity":0.14960629921259844},{"duration":0.1094889999999964,"midi":36,"time":171.89773,"velocity":0.14960629921259844},{"duration":0.1094889999999964,"midi":36,"time":172.007219,"velocity":0.14960629921259844},{"duration":0.1094889999999964,"midi":36,"time":172.116708,"velocity":0.14960629921259844},{"duration":0.1094889999999964,"midi":36,"time":172.22619699999998,"velocity":0.14960629921259844},{"duration":0.1094889999999964,"midi":36,"time":172.33568599999998,"velocity":0.14960629921259844},{"duration":0.1094889999999964,"midi":36,"time":172.44517499999998,"velocity":0.14960629921259844},{"duration":0.1094889999999964,"midi":36,"time":172.55466399999997,"velocity":0.14960629921259844},{"duration":0.10948900000002482,"midi":36,"time":172.66415299999997,"velocity":0.14960629921259844},{"duration":0.1094889999999964,"midi":36,"time":172.773642,"velocity":0.14960629921259844},{"duration":0.1094889999999964,"midi":36,"time":172.883131,"velocity":0.14960629921259844},{"duration":0.1094889999999964,"midi":36,"time":172.99262,"velocity":0.14960629921259844},{"duration":0.1094889999999964,"midi":36,"time":173.10210899999998,"velocity":0.14960629921259844},{"duration":0.1094889999999964,"midi":36,"time":173.21159799999998,"velocity":0.14960629921259844},{"duration":0.1094889999999964,"midi":36,"time":173.32108699999998,"velocity":0.14960629921259844},{"duration":0.1094889999999964,"midi":36,"time":173.43057599999997,"velocity":0.14960629921259844},{"duration":0.10948900000002482,"midi":36,"time":173.54006499999997,"velocity":0.14960629921259844},{"duration":0.1094889999999964,"midi":36,"time":173.649554,"velocity":0.14960629921259844},{"duration":0.1094889999999964,"midi":36,"time":173.759043,"velocity":0.14960629921259844},{"duration":0.1094889999999964,"midi":36,"time":173.868532,"velocity":0.14960629921259844},{"duration":0.1094889999999964,"midi":36,"time":173.97802099999998,"velocity":0.14960629921259844},{"duration":0.1094889999999964,"midi":36,"time":174.08750999999998,"velocity":0.14960629921259844},{"duration":0.1094889999999964,"midi":36,"time":174.19699899999998,"velocity":0.14960629921259844},{"duration":0.1094889999999964,"midi":36,"time":174.30648799999997,"velocity":0.14960629921259844},{"duration":0.10948900000002482,"midi":36,"time":174.41597699999997,"velocity":0.14960629921259844},{"duration":0.1094889999999964,"midi":36,"time":174.525466,"velocity":0.14960629921259844},{"duration":0.1094889999999964,"midi":36,"time":174.634955,"velocity":0.14960629921259844},{"duration":0.1094889999999964,"midi":36,"time":174.744444,"velocity":0.14960629921259844},{"duration":0.1094889999999964,"midi":36,"time":174.85393299999998,"velocity":0.14960629921259844},{"duration":0.1094889999999964,"midi":36,"time":174.96342199999998,"velocity":0.14960629921259844},{"duration":0.1094889999999964,"midi":36,"time":175.07291099999998,"velocity":0.14960629921259844},{"duration":0.1094889999999964,"midi":37,"time":175.18239999999997,"velocity":0.14960629921259844},{"duration":0.10948900000002482,"midi":37,"time":175.29188899999997,"velocity":0.14960629921259844},{"duration":0.1094889999999964,"midi":37,"time":175.401378,"velocity":0.14960629921259844},{"duration":0.1094889999999964,"midi":37,"time":175.510867,"velocity":0.14960629921259844},{"duration":0.1094889999999964,"midi":37,"time":175.620356,"velocity":0.14960629921259844},{"duration":0.1094889999999964,"midi":37,"time":175.72984499999998,"velocity":0.14960629921259844},{"duration":0.1094889999999964,"midi":37,"time":175.83933399999998,"velocity":0.14960629921259844},{"duration":0.1094889999999964,"midi":37,"time":175.94882299999998,"velocity":0.14960629921259844},{"duration":0.1094889999999964,"midi":37,"time":176.05831199999997,"velocity":0.14960629921259844},{"duration":0.10948900000002482,"midi":37,"time":176.16780099999997,"velocity":0.14960629921259844},{"duration":0.1094889999999964,"midi":37,"time":176.27729,"velocity":0.14960629921259844},{"duration":0.1094889999999964,"midi":37,"time":176.386779,"velocity":0.14960629921259844},{"duration":0.1094889999999964,"midi":37,"time":176.496268,"velocity":0.14960629921259844},{"duration":0.1094889999999964,"midi":37,"time":176.60575699999998,"velocity":0.14960629921259844},{"duration":0.1094889999999964,"midi":37,"time":176.71524599999998,"velocity":0.14960629921259844},{"duration":0.1094889999999964,"midi":37,"time":176.82473499999998,"velocity":0.14960629921259844},{"duration":0.1094889999999964,"midi":37,"time":176.93422399999997,"velocity":0.14960629921259844},{"duration":0.10948900000002482,"midi":37,"time":177.04371299999997,"velocity":0.14960629921259844},{"duration":0.1094889999999964,"midi":37,"time":177.153202,"velocity":0.14960629921259844},{"duration":0.1094889999999964,"midi":37,"time":177.262691,"velocity":0.14960629921259844},{"duration":0.1094889999999964,"midi":37,"time":177.37218,"velocity":0.14960629921259844},{"duration":0.1094889999999964,"midi":37,"time":177.48166899999998,"velocity":0.14960629921259844},{"duration":0.1094889999999964,"midi":37,"time":177.59115799999998,"velocity":0.14960629921259844},{"duration":0.1094889999999964,"midi":37,"time":177.70064699999998,"velocity":0.14960629921259844},{"duration":0.10948900000002482,"midi":37,"time":177.81013599999997,"velocity":0.14960629921259844},{"duration":0.1094889999999964,"midi":37,"time":177.919625,"velocity":0.14960629921259844},{"duration":0.1094889999999964,"midi":37,"time":178.029114,"velocity":0.14960629921259844},{"duration":0.1094889999999964,"midi":37,"time":178.138603,"velocity":0.14960629921259844},{"duration":0.1094889999999964,"midi":37,"time":178.24809199999999,"velocity":0.14960629921259844},{"duration":0.1094889999999964,"midi":37,"time":178.35758099999998,"velocity":0.14960629921259844},{"duration":0.1094889999999964,"midi":37,"time":178.46706999999998,"velocity":0.14960629921259844},{"duration":0.1094889999999964,"midi":37,"time":178.57655899999997,"velocity":0.14960629921259844},{"duration":0.10948900000002482,"midi":36,"time":178.68604799999997,"velocity":0.14960629921259844},{"duration":0.1094889999999964,"midi":36,"time":178.795537,"velocity":0.14960629921259844},{"duration":0.1094889999999964,"midi":36,"time":178.905026,"velocity":0.14960629921259844},{"duration":0.1094889999999964,"midi":36,"time":179.014515,"velocity":0.14960629921259844},{"duration":0.1094889999999964,"midi":36,"time":179.12400399999999,"velocity":0.14960629921259844},{"duration":0.1094889999999964,"midi":36,"time":179.23349299999998,"velocity":0.14960629921259844},{"duration":0.1094889999999964,"midi":36,"time":179.34298199999998,"velocity":0.14960629921259844},{"duration":0.1094889999999964,"midi":36,"time":179.45247099999997,"velocity":0.14960629921259844},{"duration":0.10948900000002482,"midi":36,"time":179.56195999999997,"velocity":0.14960629921259844},{"duration":0.1094889999999964,"midi":36,"time":179.671449,"velocity":0.14960629921259844},{"duration":0.1094889999999964,"midi":36,"time":179.780938,"velocity":0.14960629921259844},{"duration":0.1094889999999964,"midi":36,"time":179.890427,"velocity":0.14960629921259844},{"duration":0.1094889999999964,"midi":36,"time":179.99991599999998,"velocity":0.14960629921259844},{"duration":0.1094889999999964,"midi":36,"time":180.10940499999998,"velocity":0.14960629921259844},{"duration":0.1094889999999964,"midi":36,"time":180.21889399999998,"velocity":0.14960629921259844},{"duration":0.1094889999999964,"midi":36,"time":180.32838299999997,"velocity":0.14960629921259844},{"duration":0.10948900000002482,"midi":36,"time":180.43787199999997,"velocity":0.14960629921259844},{"duration":0.1094889999999964,"midi":36,"time":180.547361,"velocity":0.14960629921259844},{"duration":0.1094889999999964,"midi":36,"time":180.65685,"velocity":0.14960629921259844},{"duration":0.1094889999999964,"midi":36,"time":180.766339,"velocity":0.14960629921259844},{"duration":0.1094889999999964,"midi":36,"time":180.87582799999998,"velocity":0.14960629921259844},{"duration":0.1094889999999964,"midi":36,"time":180.98531699999998,"velocity":0.14960629921259844},{"duration":0.1094889999999964,"midi":36,"time":181.09480599999998,"velocity":0.14960629921259844},{"duration":0.1094889999999964,"midi":36,"time":181.20429499999997,"velocity":0.14960629921259844},{"duration":0.10948900000002482,"midi":36,"time":181.31378399999997,"velocity":0.14960629921259844},{"duration":0.1094889999999964,"midi":36,"time":181.423273,"velocity":0.14960629921259844},{"duration":0.1094889999999964,"midi":36,"time":181.532762,"velocity":0.14960629921259844},{"duration":0.1094889999999964,"midi":36,"time":181.642251,"velocity":0.14960629921259844},{"duration":0.1094889999999964,"midi":36,"time":181.75173999999998,"velocity":0.14960629921259844},{"duration":0.1094889999999964,"midi":36,"time":181.86122899999998,"velocity":0.14960629921259844},{"duration":0.1094889999999964,"midi":36,"time":181.97071799999998,"velocity":0.14960629921259844},{"duration":0.1094889999999964,"midi":36,"time":182.08020699999997,"velocity":0.14960629921259844},{"duration":0.10948900000002482,"midi":37,"time":182.18969599999997,"velocity":0.14960629921259844},{"duration":0.1094889999999964,"midi":37,"time":182.299185,"velocity":0.14960629921259844},{"duration":0.1094889999999964,"midi":37,"time":182.408674,"velocity":0.14960629921259844},{"duration":0.1094889999999964,"midi":37,"time":182.518163,"velocity":0.14960629921259844},{"duration":0.1094889999999964,"midi":37,"time":182.62765199999998,"velocity":0.14960629921259844},{"duration":0.1094889999999964,"midi":37,"time":182.73714099999998,"velocity":0.14960629921259844},{"duration":0.1094889999999964,"midi":37,"time":182.84662999999998,"velocity":0.14960629921259844},{"duration":0.1094889999999964,"midi":37,"time":182.95611899999997,"velocity":0.14960629921259844},{"duration":0.10948900000002482,"midi":37,"time":183.06560799999997,"velocity":0.14960629921259844},{"duration":0.1094889999999964,"midi":37,"time":183.175097,"velocity":0.14960629921259844},{"duration":0.1094889999999964,"midi":37,"time":183.284586,"velocity":0.14960629921259844},{"duration":0.1094889999999964,"midi":37,"time":183.394075,"velocity":0.14960629921259844},{"duration":0.1094889999999964,"midi":37,"time":183.50356399999998,"velocity":0.14960629921259844},{"duration":0.1094889999999964,"midi":37,"time":183.61305299999998,"velocity":0.14960629921259844},{"duration":0.1094889999999964,"midi":37,"time":183.72254199999998,"velocity":0.14960629921259844},{"duration":0.1094889999999964,"midi":37,"time":183.83203099999997,"velocity":0.14960629921259844},{"duration":0.10948900000002482,"midi":37,"time":183.94151999999997,"velocity":0.14960629921259844},{"duration":0.1094889999999964,"midi":37,"time":184.051009,"velocity":0.14960629921259844},{"duration":0.1094889999999964,"midi":37,"time":184.160498,"velocity":0.14960629921259844},{"duration":0.1094889999999964,"midi":37,"time":184.269987,"velocity":0.14960629921259844},{"duration":0.1094889999999964,"midi":37,"time":184.37947599999998,"velocity":0.14960629921259844},{"duration":0.1094889999999964,"midi":37,"time":184.48896499999998,"velocity":0.14960629921259844},{"duration":0.1094889999999964,"midi":37,"time":184.59845399999998,"velocity":0.14960629921259844},{"duration":0.1094889999999964,"midi":37,"time":184.70794299999997,"velocity":0.14960629921259844},{"duration":0.10948900000002482,"midi":37,"time":184.81743199999997,"velocity":0.14960629921259844},{"duration":0.1094889999999964,"midi":37,"time":184.926921,"velocity":0.14960629921259844},{"duration":0.1094889999999964,"midi":37,"time":185.03641,"velocity":0.14960629921259844},{"duration":0.1094889999999964,"midi":37,"time":185.145899,"velocity":0.14960629921259844},{"duration":0.1094889999999964,"midi":37,"time":185.25538799999998,"velocity":0.14960629921259844},{"duration":0.1094889999999964,"midi":37,"time":185.36487699999998,"velocity":0.14960629921259844},{"duration":0.1094889999999964,"midi":37,"time":185.47436599999997,"velocity":0.14960629921259844},{"duration":0.1094889999999964,"midi":37,"time":185.58385499999997,"velocity":0.14960629921259844},{"duration":0.10948900000002482,"midi":36,"time":185.69334399999997,"velocity":0.14960629921259844},{"duration":0.1094889999999964,"midi":36,"time":185.802833,"velocity":0.14960629921259844},{"duration":0.1094889999999964,"midi":36,"time":185.912322,"velocity":0.14960629921259844},{"duration":0.1094889999999964,"midi":36,"time":186.02181099999999,"velocity":0.14960629921259844},{"duration":0.1094889999999964,"midi":36,"time":186.13129999999998,"velocity":0.14960629921259844},{"duration":0.1094889999999964,"midi":36,"time":186.24078899999998,"velocity":0.14960629921259844},{"duration":0.1094889999999964,"midi":36,"time":186.35027799999997,"velocity":0.14960629921259844},{"duration":0.1094889999999964,"midi":36,"time":186.45976699999997,"velocity":0.14960629921259844},{"duration":0.10948900000002482,"midi":36,"time":186.56925599999997,"velocity":0.14960629921259844},{"duration":0.1094889999999964,"midi":36,"time":186.678745,"velocity":0.14960629921259844},{"duration":0.1094889999999964,"midi":36,"time":186.788234,"velocity":0.14960629921259844},{"duration":0.1094889999999964,"midi":36,"time":186.89772299999998,"velocity":0.14960629921259844},{"duration":0.1094889999999964,"midi":36,"time":187.00721199999998,"velocity":0.14960629921259844},{"duration":0.1094889999999964,"midi":36,"time":187.11670099999998,"velocity":0.14960629921259844},{"duration":0.1094889999999964,"midi":36,"time":187.22618999999997,"velocity":0.14960629921259844},{"duration":0.10948900000002482,"midi":36,"time":187.33567899999997,"velocity":0.14960629921259844},{"duration":0.1094889999999964,"midi":36,"time":187.445168,"velocity":0.14960629921259844},{"duration":0.1094889999999964,"midi":36,"time":187.554657,"velocity":0.14960629921259844},{"duration":0.1094889999999964,"midi":36,"time":187.664146,"velocity":0.14960629921259844},{"duration":0.1094889999999964,"midi":36,"time":187.77363499999998,"velocity":0.14960629921259844},{"duration":0.1094889999999964,"midi":36,"time":187.88312399999998,"velocity":0.14960629921259844},{"duration":0.1094889999999964,"midi":36,"time":187.99261299999998,"velocity":0.14960629921259844},{"duration":0.1094889999999964,"midi":36,"time":188.10210199999997,"velocity":0.14960629921259844},{"duration":0.10948900000002482,"midi":36,"time":188.21159099999997,"velocity":0.14960629921259844},{"duration":0.1094889999999964,"midi":36,"time":188.32108,"velocity":0.14960629921259844},{"duration":0.1094889999999964,"midi":36,"time":188.430569,"velocity":0.14960629921259844},{"duration":0.1094889999999964,"midi":36,"time":188.540058,"velocity":0.14960629921259844},{"duration":0.1094889999999964,"midi":36,"time":188.64954699999998,"velocity":0.14960629921259844},{"duration":0.1094889999999964,"midi":36,"time":188.75903599999998,"velocity":0.14960629921259844},{"duration":0.1094889999999964,"midi":36,"time":188.86852499999998,"velocity":0.14960629921259844},{"duration":0.1094889999999964,"midi":36,"time":188.97801399999997,"velocity":0.14960629921259844},{"duration":0.10948900000002482,"midi":36,"time":189.08750299999997,"velocity":0.14960629921259844},{"duration":0.1094889999999964,"midi":37,"time":189.196992,"velocity":0.14960629921259844},{"duration":0.1094889999999964,"midi":37,"time":189.306481,"velocity":0.14960629921259844},{"duration":0.1094889999999964,"midi":37,"time":189.41597,"velocity":0.14960629921259844},{"duration":0.1094889999999964,"midi":37,"time":189.52545899999998,"velocity":0.14960629921259844},{"duration":0.1094889999999964,"midi":37,"time":189.63494799999998,"velocity":0.14960629921259844},{"duration":0.1094889999999964,"midi":37,"time":189.74443699999998,"velocity":0.14960629921259844},{"duration":0.1094889999999964,"midi":37,"time":189.85392599999997,"velocity":0.14960629921259844},{"duration":0.10948900000002482,"midi":37,"time":189.96341499999997,"velocity":0.14960629921259844},{"duration":0.1094889999999964,"midi":37,"time":190.072904,"velocity":0.14960629921259844},{"duration":0.1094889999999964,"midi":37,"time":190.182393,"velocity":0.14960629921259844},{"duration":0.1094889999999964,"midi":37,"time":190.291882,"velocity":0.14960629921259844},{"duration":0.1094889999999964,"midi":37,"time":190.40137099999998,"velocity":0.14960629921259844},{"duration":0.1094889999999964,"midi":37,"time":190.51085999999998,"velocity":0.14960629921259844},{"duration":0.1094889999999964,"midi":37,"time":190.62034899999998,"velocity":0.14960629921259844},{"duration":0.1094889999999964,"midi":37,"time":190.72983799999997,"velocity":0.14960629921259844},{"duration":0.10948900000002482,"midi":37,"time":190.83932699999997,"velocity":0.14960629921259844},{"duration":0.1094889999999964,"midi":37,"time":190.948816,"velocity":0.14960629921259844},{"duration":0.1094889999999964,"midi":37,"time":191.058305,"velocity":0.14960629921259844},{"duration":0.1094889999999964,"midi":37,"time":191.167794,"velocity":0.14960629921259844},{"duration":0.1094889999999964,"midi":37,"time":191.27728299999998,"velocity":0.14960629921259844},{"duration":0.1094889999999964,"midi":37,"time":191.38677199999998,"velocity":0.14960629921259844},{"duration":0.1094889999999964,"midi":37,"time":191.49626099999998,"velocity":0.14960629921259844},{"duration":0.1094889999999964,"midi":37,"time":191.60574999999997,"velocity":0.14960629921259844},{"duration":0.10948900000002482,"midi":37,"time":191.71523899999997,"velocity":0.14960629921259844},{"duration":0.1094889999999964,"midi":37,"time":191.824728,"velocity":0.14960629921259844},{"duration":0.1094889999999964,"midi":37,"time":191.934217,"velocity":0.14960629921259844},{"duration":0.1094889999999964,"midi":37,"time":192.043706,"velocity":0.14960629921259844},{"duration":0.1094889999999964,"midi":37,"time":192.15319499999998,"velocity":0.14960629921259844},{"duration":0.1094889999999964,"midi":37,"time":192.26268399999998,"velocity":0.14960629921259844},{"duration":0.1094889999999964,"midi":37,"time":192.37217299999998,"velocity":0.14960629921259844},{"duration":0.1094889999999964,"midi":37,"time":192.48166199999997,"velocity":0.14960629921259844},{"duration":0.10948900000002482,"midi":37,"time":192.59115099999997,"velocity":0.14960629921259844},{"duration":0.1094889999999964,"midi":36,"time":192.70064,"velocity":0.14960629921259844},{"duration":0.1094889999999964,"midi":36,"time":192.810129,"velocity":0.14960629921259844},{"duration":0.1094889999999964,"midi":36,"time":192.91961799999999,"velocity":0.14960629921259844},{"duration":0.1094889999999964,"midi":36,"time":193.02910699999998,"velocity":0.14960629921259844},{"duration":0.1094889999999964,"midi":36,"time":193.13859599999998,"velocity":0.14960629921259844},{"duration":0.1094889999999964,"midi":36,"time":193.24808499999997,"velocity":0.14960629921259844},{"duration":0.1094889999999964,"midi":36,"time":193.35757399999997,"velocity":0.14960629921259844},{"duration":0.10948900000002482,"midi":36,"time":193.46706299999997,"velocity":0.14960629921259844},{"duration":0.1094889999999964,"midi":36,"time":193.576552,"velocity":0.14960629921259844},{"duration":0.1094889999999964,"midi":36,"time":193.686041,"velocity":0.14960629921259844},{"duration":0.1094889999999964,"midi":36,"time":193.79552999999999,"velocity":0.14960629921259844},{"duration":0.1094889999999964,"midi":36,"time":193.90501899999998,"velocity":0.14960629921259844},{"duration":0.1094889999999964,"midi":36,"time":194.01450799999998,"velocity":0.14960629921259844},{"duration":0.1094889999999964,"midi":36,"time":194.12399699999997,"velocity":0.14960629921259844},{"duration":0.1094889999999964,"midi":36,"time":194.23348599999997,"velocity":0.14960629921259844},{"duration":0.10948900000002482,"midi":36,"time":194.34297499999997,"velocity":0.14960629921259844},{"duration":0.1094889999999964,"midi":36,"time":194.452464,"velocity":0.14960629921259844},{"duration":0.1094889999999964,"midi":36,"time":194.561953,"velocity":0.14960629921259844},{"duration":0.1094889999999964,"midi":36,"time":194.67144199999998,"velocity":0.14960629921259844},{"duration":0.1094889999999964,"midi":36,"time":194.78093099999998,"velocity":0.14960629921259844},{"duration":0.1094889999999964,"midi":36,"time":194.89041999999998,"velocity":0.14960629921259844},{"duration":0.1094889999999964,"midi":36,"time":194.99990899999997,"velocity":0.14960629921259844},{"duration":0.1094889999999964,"midi":36,"time":195.10939799999997,"velocity":0.14960629921259844},{"duration":0.10948900000002482,"midi":36,"time":195.21888699999997,"velocity":0.14960629921259844},{"duration":0.1094889999999964,"midi":36,"time":195.328376,"velocity":0.14960629921259844},{"duration":0.1094889999999964,"midi":36,"time":195.437865,"velocity":0.14960629921259844},{"duration":0.1094889999999964,"midi":36,"time":195.54735399999998,"velocity":0.14960629921259844},{"duration":0.1094889999999964,"midi":36,"time":195.65684299999998,"velocity":0.14960629921259844},{"duration":0.1094889999999964,"midi":36,"time":195.76633199999998,"velocity":0.14960629921259844},{"duration":0.1094889999999964,"midi":36,"time":195.87582099999997,"velocity":0.14960629921259844},{"duration":0.1094889999999964,"midi":36,"time":195.98530999999997,"velocity":0.14960629921259844},{"duration":0.10948900000002482,"midi":36,"time":196.09479899999997,"velocity":0.14960629921259844},{"duration":0.1094889999999964,"midi":37,"time":196.204288,"velocity":0.14960629921259844},{"duration":0.1094889999999964,"midi":37,"time":196.313777,"velocity":0.14960629921259844},{"duration":0.1094889999999964,"midi":37,"time":196.42326599999998,"velocity":0.14960629921259844},{"duration":0.1094889999999964,"midi":37,"time":196.53275499999998,"velocity":0.14960629921259844},{"duration":0.1094889999999964,"midi":37,"time":196.64224399999998,"velocity":0.14960629921259844},{"duration":0.1094889999999964,"midi":37,"time":196.75173299999997,"velocity":0.14960629921259844},{"duration":0.10948900000002482,"midi":37,"time":196.86122199999997,"velocity":0.14960629921259844},{"duration":0.1094889999999964,"midi":37,"time":196.970711,"velocity":0.14960629921259844},{"duration":0.1094889999999964,"midi":37,"time":197.0802,"velocity":0.14960629921259844},{"duration":0.1094889999999964,"midi":37,"time":197.189689,"velocity":0.14960629921259844},{"duration":0.1094889999999964,"midi":37,"time":197.29917799999998,"velocity":0.14960629921259844},{"duration":0.1094889999999964,"midi":37,"time":197.40866699999998,"velocity":0.14960629921259844},{"duration":0.1094889999999964,"midi":37,"time":197.51815599999998,"velocity":0.14960629921259844},{"duration":0.1094889999999964,"midi":37,"time":197.62764499999997,"velocity":0.14960629921259844},{"duration":0.10948900000002482,"midi":37,"time":197.73713399999997,"velocity":0.14960629921259844},{"duration":0.1094889999999964,"midi":37,"time":197.846623,"velocity":0.14960629921259844},{"duration":0.1094889999999964,"midi":37,"time":197.956112,"velocity":0.14960629921259844},{"duration":0.1094889999999964,"midi":37,"time":198.065601,"velocity":0.14960629921259844},{"duration":0.1094889999999964,"midi":37,"time":198.17508999999998,"velocity":0.14960629921259844},{"duration":0.1094889999999964,"midi":37,"time":198.28457899999998,"velocity":0.14960629921259844},{"duration":0.1094889999999964,"midi":37,"time":198.39406799999998,"velocity":0.14960629921259844},{"duration":0.1094889999999964,"midi":37,"time":198.50355699999997,"velocity":0.14960629921259844},{"duration":0.10948900000002482,"midi":37,"time":198.61304599999997,"velocity":0.14960629921259844},{"duration":0.1094889999999964,"midi":37,"time":198.722535,"velocity":0.14960629921259844},{"duration":0.1094889999999964,"midi":37,"time":198.832024,"velocity":0.14960629921259844},{"duration":0.1094889999999964,"midi":37,"time":198.941513,"velocity":0.14960629921259844},{"duration":0.1094889999999964,"midi":37,"time":199.05100199999998,"velocity":0.14960629921259844},{"duration":0.1094889999999964,"midi":37,"time":199.16049099999998,"velocity":0.14960629921259844},{"duration":0.1094889999999964,"midi":37,"time":199.26997999999998,"velocity":0.14960629921259844},{"duration":0.1094889999999964,"midi":37,"time":199.37946899999997,"velocity":0.14960629921259844},{"duration":0.10948900000002482,"midi":37,"time":199.48895799999997,"velocity":0.14960629921259844},{"duration":0.1094889999999964,"midi":37,"time":199.598447,"velocity":0.14960629921259844},{"duration":0.1094889999999964,"midi":36,"time":199.707936,"velocity":0.14960629921259844},{"duration":0.1094889999999964,"midi":36,"time":199.817425,"velocity":0.14960629921259844},{"duration":0.1094889999999964,"midi":36,"time":199.92691399999998,"velocity":0.14960629921259844},{"duration":0.1094889999999964,"midi":36,"time":200.03640299999998,"velocity":0.14960629921259844},{"duration":0.1094889999999964,"midi":36,"time":200.14589199999998,"velocity":0.14960629921259844},{"duration":0.1094889999999964,"midi":36,"time":200.25538099999997,"velocity":0.14960629921259844},{"duration":0.10948900000002482,"midi":36,"time":200.36486999999997,"velocity":0.14960629921259844},{"duration":0.1094889999999964,"midi":36,"time":200.474359,"velocity":0.14960629921259844},{"duration":0.1094889999999964,"midi":36,"time":200.583848,"velocity":0.14960629921259844},{"duration":0.1094889999999964,"midi":36,"time":200.69333699999999,"velocity":0.14960629921259844},{"duration":0.1094889999999964,"midi":36,"time":200.80282599999998,"velocity":0.14960629921259844},{"duration":0.1094889999999964,"midi":36,"time":200.91231499999998,"velocity":0.14960629921259844},{"duration":0.1094889999999964,"midi":36,"time":201.02180399999997,"velocity":0.14960629921259844},{"duration":0.1094889999999964,"midi":36,"time":201.13129299999997,"velocity":0.14960629921259844},{"duration":0.10948900000002482,"midi":36,"time":201.24078199999997,"velocity":0.14960629921259844},{"duration":0.1094889999999964,"midi":36,"time":201.350271,"velocity":0.14960629921259844},{"duration":0.1094889999999964,"midi":36,"time":201.45976,"velocity":0.14960629921259844},{"duration":0.1094889999999964,"midi":36,"time":201.56924899999999,"velocity":0.14960629921259844},{"duration":0.1094889999999964,"midi":36,"time":201.67873799999998,"velocity":0.14960629921259844},{"duration":0.1094889999999964,"midi":36,"time":201.78822699999998,"velocity":0.14960629921259844},{"duration":0.1094889999999964,"midi":36,"time":201.89771599999997,"velocity":0.14960629921259844},{"duration":0.1094889999999964,"midi":36,"time":202.00720499999997,"velocity":0.14960629921259844},{"duration":0.10948900000002482,"midi":36,"time":202.11669399999997,"velocity":0.14960629921259844},{"duration":0.1094889999999964,"midi":36,"time":202.226183,"velocity":0.14960629921259844},{"duration":0.1094889999999964,"midi":36,"time":202.335672,"velocity":0.14960629921259844},{"duration":0.1094889999999964,"midi":36,"time":202.44516099999998,"velocity":0.14960629921259844},{"duration":0.1094889999999964,"midi":36,"time":202.55464999999998,"velocity":0.14960629921259844},{"duration":0.1094889999999964,"midi":36,"time":202.66413899999998,"velocity":0.14960629921259844},{"duration":0.1094889999999964,"midi":36,"time":202.77362799999997,"velocity":0.14960629921259844},{"duration":0.1094889999999964,"midi":36,"time":202.88311699999997,"velocity":0.14960629921259844},{"duration":0.10948900000002482,"midi":36,"time":202.99260599999997,"velocity":0.14960629921259844},{"duration":0.1094889999999964,"midi":36,"time":203.102095,"velocity":0.14960629921259844},{"duration":0.1094889999999964,"midi":37,"time":203.211584,"velocity":0.14960629921259844},{"duration":0.1094889999999964,"midi":37,"time":203.32107299999998,"velocity":0.14960629921259844},{"duration":0.1094889999999964,"midi":37,"time":203.43056199999998,"velocity":0.14960629921259844},{"duration":0.1094889999999964,"midi":37,"time":203.54005099999998,"velocity":0.14960629921259844},{"duration":0.1094889999999964,"midi":37,"time":203.64953999999997,"velocity":0.14960629921259844},{"duration":0.1094889999999964,"midi":37,"time":203.75902899999997,"velocity":0.14960629921259844},{"duration":0.10948900000002482,"midi":37,"time":203.86851799999997,"velocity":0.14960629921259844},{"duration":0.1094889999999964,"midi":37,"time":203.978007,"velocity":0.14960629921259844},{"duration":0.1094889999999964,"midi":37,"time":204.087496,"velocity":0.14960629921259844},{"duration":0.1094889999999964,"midi":37,"time":204.19698499999998,"velocity":0.14960629921259844},{"duration":0.1094889999999964,"midi":37,"time":204.30647399999998,"velocity":0.14960629921259844},{"duration":0.1094889999999964,"midi":37,"time":204.41596299999998,"velocity":0.14960629921259844},{"duration":0.1094889999999964,"midi":37,"time":204.52545199999997,"velocity":0.14960629921259844},{"duration":0.1094889999999964,"midi":37,"time":204.63494099999997,"velocity":0.14960629921259844},{"duration":0.10948900000002482,"midi":37,"time":204.74442999999997,"velocity":0.14960629921259844},{"duration":0.1094889999999964,"midi":37,"time":204.853919,"velocity":0.14960629921259844},{"duration":0.1094889999999964,"midi":37,"time":204.963408,"velocity":0.14960629921259844},{"duration":0.1094889999999964,"midi":37,"time":205.07289699999998,"velocity":0.14960629921259844},{"duration":0.1094889999999964,"midi":37,"time":205.18238599999998,"velocity":0.14960629921259844},{"duration":0.1094889999999964,"midi":37,"time":205.29187499999998,"velocity":0.14960629921259844},{"duration":0.1094889999999964,"midi":37,"time":205.40136399999997,"velocity":0.14960629921259844},{"duration":0.10948900000002482,"midi":37,"time":205.51085299999997,"velocity":0.14960629921259844},{"duration":0.1094889999999964,"midi":37,"time":205.620342,"velocity":0.14960629921259844},{"duration":0.1094889999999964,"midi":37,"time":205.729831,"velocity":0.14960629921259844},{"duration":0.1094889999999964,"midi":37,"time":205.83932,"velocity":0.14960629921259844},{"duration":0.1094889999999964,"midi":37,"time":205.94880899999998,"velocity":0.14960629921259844},{"duration":0.1094889999999964,"midi":37,"time":206.05829799999998,"velocity":0.14960629921259844},{"duration":0.1094889999999964,"midi":37,"time":206.16778699999998,"velocity":0.14960629921259844},{"duration":0.1094889999999964,"midi":37,"time":206.27727599999997,"velocity":0.14960629921259844},{"duration":0.10948900000002482,"midi":37,"time":206.38676499999997,"velocity":0.14960629921259844},{"duration":0.1094889999999964,"midi":37,"time":206.496254,"velocity":0.14960629921259844},{"duration":0.1094889999999964,"midi":37,"time":206.605743,"velocity":0.14960629921259844},{"duration":0.1094889999999964,"midi":36,"time":206.715232,"velocity":0.14960629921259844},{"duration":0.1094889999999964,"midi":36,"time":206.82472099999998,"velocity":0.14960629921259844},{"duration":0.1094889999999964,"midi":36,"time":206.93420999999998,"velocity":0.14960629921259844},{"duration":0.1094889999999964,"midi":36,"time":207.04369899999998,"velocity":0.14960629921259844},{"duration":0.1094889999999964,"midi":36,"time":207.15318799999997,"velocity":0.14960629921259844},{"duration":0.10948900000002482,"midi":36,"time":207.26267699999997,"velocity":0.14960629921259844},{"duration":0.1094889999999964,"midi":36,"time":207.372166,"velocity":0.14960629921259844},{"duration":0.1094889999999964,"midi":36,"time":207.481655,"velocity":0.14960629921259844},{"duration":0.1094889999999964,"midi":36,"time":207.59114399999999,"velocity":0.14960629921259844},{"duration":0.1094889999999964,"midi":36,"time":207.70063299999998,"velocity":0.14960629921259844},{"duration":0.1094889999999964,"midi":36,"time":207.81012199999998,"velocity":0.14960629921259844},{"duration":0.1094889999999964,"midi":36,"time":207.91961099999997,"velocity":0.14960629921259844},{"duration":0.1094889999999964,"midi":36,"time":208.02909999999997,"velocity":0.14960629921259844},{"duration":0.10948900000002482,"midi":36,"time":208.13858899999997,"velocity":0.14960629921259844},{"duration":0.1094889999999964,"midi":36,"time":208.248078,"velocity":0.14960629921259844},{"duration":0.1094889999999964,"midi":36,"time":208.357567,"velocity":0.14960629921259844},{"duration":0.1094889999999964,"midi":36,"time":208.46705599999999,"velocity":0.14960629921259844},{"duration":0.1094889999999964,"midi":36,"time":208.57654499999998,"velocity":0.14960629921259844},{"duration":0.1094889999999964,"midi":36,"time":208.68603399999998,"velocity":0.14960629921259844},{"duration":0.1094889999999964,"midi":36,"time":208.79552299999997,"velocity":0.14960629921259844},{"duration":0.1094889999999964,"midi":36,"time":208.90501199999997,"velocity":0.14960629921259844},{"duration":0.10948900000002482,"midi":36,"time":209.01450099999997,"velocity":0.14960629921259844},{"duration":0.1094889999999964,"midi":36,"time":209.12399,"velocity":0.14960629921259844},{"duration":0.1094889999999964,"midi":36,"time":209.233479,"velocity":0.14960629921259844},{"duration":0.1094889999999964,"midi":36,"time":209.34296799999998,"velocity":0.14960629921259844},{"duration":0.1094889999999964,"midi":36,"time":209.45245699999998,"velocity":0.14960629921259844},{"duration":0.1094889999999964,"midi":36,"time":209.56194599999998,"velocity":0.14960629921259844},{"duration":0.1094889999999964,"midi":36,"time":209.67143499999997,"velocity":0.14960629921259844},{"duration":0.1094889999999964,"midi":36,"time":209.78092399999997,"velocity":0.14960629921259844},{"duration":0.10948900000002482,"midi":36,"time":209.89041299999997,"velocity":0.14960629921259844},{"duration":0.1094889999999964,"midi":36,"time":209.999902,"velocity":0.14960629921259844},{"duration":0.1094889999999964,"midi":36,"time":210.109391,"velocity":0.14960629921259844},{"duration":0.1094889999999964,"midi":37,"time":210.21887999999998,"velocity":0.14960629921259844},{"duration":0.1094889999999964,"midi":37,"time":210.32836899999998,"velocity":0.14960629921259844},{"duration":0.1094889999999964,"midi":37,"time":210.43785799999998,"velocity":0.14960629921259844},{"duration":0.1094889999999964,"midi":37,"time":210.54734699999997,"velocity":0.14960629921259844},{"duration":0.1094889999999964,"midi":37,"time":210.65683599999997,"velocity":0.14960629921259844},{"duration":0.10948900000002482,"midi":37,"time":210.76632499999997,"velocity":0.14960629921259844},{"duration":0.1094889999999964,"midi":37,"time":210.875814,"velocity":0.14960629921259844},{"duration":0.1094889999999964,"midi":37,"time":210.985303,"velocity":0.14960629921259844},{"duration":0.1094889999999964,"midi":37,"time":211.09479199999998,"velocity":0.14960629921259844},{"duration":0.1094889999999964,"midi":37,"time":211.20428099999998,"velocity":0.14960629921259844},{"duration":0.1094889999999964,"midi":37,"time":211.31376999999998,"velocity":0.14960629921259844},{"duration":0.1094889999999964,"midi":37,"time":211.42325899999997,"velocity":0.14960629921259844},{"duration":0.1094889999999964,"midi":37,"time":211.53274799999997,"velocity":0.14960629921259844},{"duration":0.10948900000002482,"midi":37,"time":211.64223699999997,"velocity":0.14960629921259844},{"duration":0.1094889999999964,"midi":37,"time":211.751726,"velocity":0.14960629921259844},{"duration":0.1094889999999964,"midi":37,"time":211.861215,"velocity":0.14960629921259844},{"duration":0.1094889999999964,"midi":37,"time":211.97070399999998,"velocity":0.14960629921259844},{"duration":0.1094889999999964,"midi":37,"time":212.08019299999998,"velocity":0.14960629921259844},{"duration":0.1094889999999964,"midi":37,"time":212.18968199999998,"velocity":0.14960629921259844},{"duration":0.1094889999999964,"midi":37,"time":212.29917099999997,"velocity":0.14960629921259844},{"duration":0.1094889999999964,"midi":37,"time":212.40865999999997,"velocity":0.14960629921259844},{"duration":0.10948900000002482,"midi":37,"time":212.51814899999997,"velocity":0.14960629921259844},{"duration":0.1094889999999964,"midi":37,"time":212.627638,"velocity":0.14960629921259844},{"duration":0.1094889999999964,"midi":37,"time":212.737127,"velocity":0.14960629921259844},{"duration":0.1094889999999964,"midi":37,"time":212.84661599999998,"velocity":0.14960629921259844},{"duration":0.1094889999999964,"midi":37,"time":212.95610499999998,"velocity":0.14960629921259844},{"duration":0.1094889999999964,"midi":37,"time":213.06559399999998,"velocity":0.14960629921259844},{"duration":0.1094889999999964,"midi":37,"time":213.17508299999997,"velocity":0.14960629921259844},{"duration":0.1094889999999964,"midi":37,"time":213.28457199999997,"velocity":0.14960629921259844},{"duration":0.10948900000002482,"midi":37,"time":213.39406099999997,"velocity":0.14960629921259844},{"duration":0.1094889999999964,"midi":37,"time":213.50355,"velocity":0.14960629921259844},{"duration":0.1094889999999964,"midi":37,"time":213.613039,"velocity":0.14960629921259844},{"duration":0.1094889999999964,"midi":36,"time":213.72252799999998,"velocity":0.14960629921259844},{"duration":0.1094889999999964,"midi":36,"time":213.83201699999998,"velocity":0.14960629921259844},{"duration":0.1094889999999964,"midi":36,"time":213.94150599999998,"velocity":0.14960629921259844},{"duration":0.1094889999999964,"midi":36,"time":214.05099499999997,"velocity":0.14960629921259844},{"duration":0.1094889999999964,"midi":36,"time":214.16048399999997,"velocity":0.14960629921259844},{"duration":0.10948900000002482,"midi":36,"time":214.26997299999996,"velocity":0.14960629921259844},{"duration":0.1094889999999964,"midi":36,"time":214.379462,"velocity":0.14960629921259844},{"duration":0.1094889999999964,"midi":36,"time":214.488951,"velocity":0.14960629921259844},{"duration":0.1094889999999964,"midi":36,"time":214.59843999999998,"velocity":0.14960629921259844},{"duration":0.1094889999999964,"midi":36,"time":214.70792899999998,"velocity":0.14960629921259844},{"duration":0.1094889999999964,"midi":36,"time":214.81741799999998,"velocity":0.14960629921259844},{"duration":0.1094889999999964,"midi":36,"time":214.92690699999997,"velocity":0.14960629921259844},{"duration":0.10948900000002482,"midi":36,"time":215.03639599999997,"velocity":0.14960629921259844},{"duration":0.1094889999999964,"midi":36,"time":215.145885,"velocity":0.14960629921259844},{"duration":0.1094889999999964,"midi":36,"time":215.255374,"velocity":0.14960629921259844},{"duration":0.1094889999999964,"midi":36,"time":215.36486299999999,"velocity":0.14960629921259844},{"duration":0.1094889999999964,"midi":36,"time":215.47435199999998,"velocity":0.14960629921259844},{"duration":0.1094889999999964,"midi":36,"time":215.58384099999998,"velocity":0.14960629921259844},{"duration":0.1094889999999964,"midi":36,"time":215.69332999999997,"velocity":0.14960629921259844},{"duration":0.1094889999999964,"midi":36,"time":215.80281899999997,"velocity":0.14960629921259844},{"duration":0.10948900000002482,"midi":36,"time":215.91230799999997,"velocity":0.14960629921259844},{"duration":0.1094889999999964,"midi":36,"time":216.021797,"velocity":0.14960629921259844},{"duration":0.1094889999999964,"midi":36,"time":216.131286,"velocity":0.14960629921259844},{"duration":0.1094889999999964,"midi":36,"time":216.24077499999999,"velocity":0.14960629921259844},{"duration":0.1094889999999964,"midi":36,"time":216.35026399999998,"velocity":0.14960629921259844},{"duration":0.1094889999999964,"midi":36,"time":216.45975299999998,"velocity":0.14960629921259844},{"duration":0.1094889999999964,"midi":36,"time":216.56924199999997,"velocity":0.14960629921259844},{"duration":0.1094889999999964,"midi":36,"time":216.67873099999997,"velocity":0.14960629921259844},{"duration":0.10948900000002482,"midi":36,"time":216.78821999999997,"velocity":0.14960629921259844},{"duration":0.1094889999999964,"midi":36,"time":216.897709,"velocity":0.14960629921259844},{"duration":0.1094889999999964,"midi":36,"time":217.007198,"velocity":0.14960629921259844},{"duration":0.1094889999999964,"midi":36,"time":217.11668699999998,"velocity":0.14960629921259844},{"duration":0.1094889999999964,"midi":37,"time":217.22617599999998,"velocity":0.14960629921259844},{"duration":0.1094889999999964,"midi":37,"time":217.33566499999998,"velocity":0.14960629921259844},{"duration":0.1094889999999964,"midi":37,"time":217.44515399999997,"velocity":0.14960629921259844},{"duration":0.1094889999999964,"midi":37,"time":217.55464299999997,"velocity":0.14960629921259844},{"duration":0.10948900000002482,"midi":37,"time":217.66413199999997,"velocity":0.14960629921259844},{"duration":0.1094889999999964,"midi":37,"time":217.773621,"velocity":0.14960629921259844},{"duration":0.1094889999999964,"midi":37,"time":217.88311,"velocity":0.14960629921259844},{"duration":0.1094889999999964,"midi":37,"time":217.99259899999998,"velocity":0.14960629921259844},{"duration":0.1094889999999964,"midi":37,"time":218.10208799999998,"velocity":0.14960629921259844},{"duration":0.1094889999999964,"midi":37,"time":218.21157699999998,"velocity":0.14960629921259844},{"duration":0.1094889999999964,"midi":37,"time":218.32106599999997,"velocity":0.14960629921259844},{"duration":0.1094889999999964,"midi":37,"time":218.43055499999997,"velocity":0.14960629921259844},{"duration":0.10948900000002482,"midi":37,"time":218.54004399999997,"velocity":0.14960629921259844},{"duration":0.1094889999999964,"midi":37,"time":218.649533,"velocity":0.14960629921259844},{"duration":0.1094889999999964,"midi":37,"time":218.759022,"velocity":0.14960629921259844},{"duration":0.1094889999999964,"midi":37,"time":218.86851099999998,"velocity":0.14960629921259844},{"duration":0.1094889999999964,"midi":37,"time":218.97799999999998,"velocity":0.14960629921259844},{"duration":0.1094889999999964,"midi":37,"time":219.08748899999998,"velocity":0.14960629921259844},{"duration":0.1094889999999964,"midi":37,"time":219.19697799999997,"velocity":0.14960629921259844},{"duration":0.1094889999999964,"midi":37,"time":219.30646699999997,"velocity":0.14960629921259844},{"duration":0.10948900000002482,"midi":37,"time":219.41595599999997,"velocity":0.14960629921259844},{"duration":0.1094889999999964,"midi":37,"time":219.525445,"velocity":0.14960629921259844},{"duration":0.1094889999999964,"midi":37,"time":219.634934,"velocity":0.14960629921259844},{"duration":0.1094889999999964,"midi":37,"time":219.74442299999998,"velocity":0.14960629921259844},{"duration":0.1094889999999964,"midi":37,"time":219.85391199999998,"velocity":0.14960629921259844},{"duration":0.1094889999999964,"midi":37,"time":219.96340099999998,"velocity":0.14960629921259844},{"duration":0.1094889999999964,"midi":37,"time":220.07288999999997,"velocity":0.14960629921259844},{"duration":0.1094889999999964,"midi":37,"time":220.18237899999997,"velocity":0.14960629921259844},{"duration":0.10948900000002482,"midi":37,"time":220.29186799999997,"velocity":0.14960629921259844},{"duration":0.1094889999999964,"midi":37,"time":220.401357,"velocity":0.14960629921259844},{"duration":0.1094889999999964,"midi":37,"time":220.510846,"velocity":0.14960629921259844},{"duration":0.1094889999999964,"midi":37,"time":220.62033499999998,"velocity":0.14960629921259844},{"duration":0.1094889999999964,"midi":36,"time":220.72982399999998,"velocity":0.14960629921259844},{"duration":0.1094889999999964,"midi":36,"time":220.83931299999998,"velocity":0.14960629921259844},{"duration":0.1094889999999964,"midi":36,"time":220.94880199999997,"velocity":0.14960629921259844},{"duration":0.1094889999999964,"midi":36,"time":221.05829099999997,"velocity":0.14960629921259844},{"duration":0.10948900000002482,"midi":36,"time":221.16777999999996,"velocity":0.14960629921259844},{"duration":0.1094889999999964,"midi":36,"time":221.277269,"velocity":0.14960629921259844},{"duration":0.1094889999999964,"midi":36,"time":221.386758,"velocity":0.14960629921259844},{"duration":0.1094889999999964,"midi":36,"time":221.49624699999998,"velocity":0.14960629921259844},{"duration":0.1094889999999964,"midi":36,"time":221.60573599999998,"velocity":0.14960629921259844},{"duration":0.1094889999999964,"midi":36,"time":221.71522499999998,"velocity":0.14960629921259844},{"duration":0.1094889999999964,"midi":36,"time":221.82471399999997,"velocity":0.14960629921259844},{"duration":0.1094889999999964,"midi":36,"time":221.93420299999997,"velocity":0.14960629921259844},{"duration":0.10948900000002482,"midi":36,"time":222.04369199999996,"velocity":0.14960629921259844},{"duration":0.1094889999999964,"midi":36,"time":222.153181,"velocity":0.14960629921259844},{"duration":0.1094889999999964,"midi":36,"time":222.26266999999999,"velocity":0.14960629921259844},{"duration":0.1094889999999964,"midi":36,"time":222.37215899999998,"velocity":0.14960629921259844},{"duration":0.1094889999999964,"midi":36,"time":222.48164799999998,"velocity":0.14960629921259844},{"duration":0.1094889999999964,"midi":36,"time":222.59113699999997,"velocity":0.14960629921259844},{"duration":0.1094889999999964,"midi":36,"time":222.70062599999997,"velocity":0.14960629921259844},{"duration":0.1094889999999964,"midi":36,"time":222.81011499999997,"velocity":0.14960629921259844},{"duration":0.10948900000002482,"midi":36,"time":222.91960399999996,"velocity":0.14960629921259844},{"duration":0.1094889999999964,"midi":36,"time":223.029093,"velocity":0.14960629921259844},{"duration":0.1094889999999964,"midi":36,"time":223.13858199999999,"velocity":0.14960629921259844},{"duration":0.1094889999999964,"midi":36,"time":223.24807099999998,"velocity":0.14960629921259844},{"duration":0.1094889999999964,"midi":36,"time":223.35755999999998,"velocity":0.14960629921259844},{"duration":0.1094889999999964,"midi":36,"time":223.46704899999997,"velocity":0.14960629921259844},{"duration":0.1094889999999964,"midi":36,"time":223.57653799999997,"velocity":0.14960629921259844},{"duration":0.1094889999999964,"midi":36,"time":223.68602699999997,"velocity":0.14960629921259844},{"duration":0.10948900000002482,"midi":36,"time":223.79551599999996,"velocity":0.14960629921259844},{"duration":0.1094889999999964,"midi":36,"time":223.905005,"velocity":0.14960629921259844},{"duration":0.1094889999999964,"midi":36,"time":224.01449399999998,"velocity":0.14960629921259844},{"duration":0.1094889999999964,"midi":36,"time":224.12398299999998,"velocity":0.14960629921259844}]},{"instrument":{"family":"piano","number":0,"name":"acoustic grand piano"},"notes":[{"duration":1.3138679999999998,"midi":66,"time":0,"velocity":0.2755905511811024},{"duration":1.3138679999999998,"midi":61,"time":0,"velocity":0.2755905511811024},{"duration":1.3138679999999998,"midi":69,"time":0,"velocity":0.2755905511811024},{"duration":1.3138679999999998,"midi":57,"time":0,"velocity":0.2755905511811024},{"duration":0.437956,"midi":61,"time":1.3138679999999998,"velocity":0.2755905511811024},{"duration":0.437956,"midi":66,"time":1.3138679999999998,"velocity":0.2755905511811024},{"duration":0.437956,"midi":57,"time":1.3138679999999998,"velocity":0.2755905511811024},{"duration":0.437956,"midi":69,"time":1.3138679999999998,"velocity":0.2755905511811024},{"duration":1.313868,"midi":61,"time":1.7518239999999998,"velocity":0.2755905511811024},{"duration":1.313868,"midi":68,"time":1.7518239999999998,"velocity":0.2755905511811024},{"duration":1.313868,"midi":65,"time":1.7518239999999998,"velocity":0.2755905511811024},{"duration":1.313868,"midi":56,"time":1.7518239999999998,"velocity":0.2755905511811024},{"duration":0.4379559999999998,"midi":68,"time":3.065692,"velocity":0.2755905511811024},{"duration":0.4379559999999998,"midi":61,"time":3.065692,"velocity":0.2755905511811024},{"duration":0.4379559999999998,"midi":56,"time":3.065692,"velocity":0.2755905511811024},{"duration":0.4379559999999998,"midi":65,"time":3.065692,"velocity":0.2755905511811024},{"duration":1.3138679999999998,"midi":69,"time":3.5036479999999997,"velocity":0.2755905511811024},{"duration":1.3138679999999998,"midi":62,"time":3.5036479999999997,"velocity":0.2755905511811024},{"duration":1.3138679999999998,"midi":57,"time":3.5036479999999997,"velocity":0.2755905511811024},{"duration":1.3138679999999998,"midi":66,"time":3.5036479999999997,"velocity":0.2755905511811024},{"duration":0.4379559999999998,"midi":66,"time":4.8175159999999995,"velocity":0.2755905511811024},{"duration":0.4379559999999998,"midi":57,"time":4.8175159999999995,"velocity":0.2755905511811024},{"duration":0.4379559999999998,"midi":69,"time":4.8175159999999995,"velocity":0.2755905511811024},{"duration":0.4379559999999998,"midi":62,"time":4.8175159999999995,"velocity":0.2755905511811024},{"duration":1.3138680000000003,"midi":68,"time":5.255471999999999,"velocity":0.2755905511811024},{"duration":1.3138680000000003,"midi":56,"time":5.255471999999999,"velocity":0.2755905511811024},{"duration":1.3138680000000003,"midi":77,"time":5.255471999999999,"velocity":0.2755905511811024},{"duration":1.3138680000000003,"midi":73,"time":5.255471999999999,"velocity":0.2755905511811024},{"duration":0.4379559999999998,"midi":68,"time":6.5693399999999995,"velocity":0.2755905511811024},{"duration":0.4379559999999998,"midi":73,"time":6.5693399999999995,"velocity":0.2755905511811024},{"duration":0.4379559999999998,"midi":77,"time":6.5693399999999995,"velocity":0.2755905511811024},{"duration":0.4379559999999998,"midi":56,"time":6.5693399999999995,"velocity":0.2755905511811024},{"duration":1.3138680000000003,"midi":61,"time":7.007295999999999,"velocity":0.2755905511811024},{"duration":1.3138680000000003,"midi":57,"time":7.007295999999999,"velocity":0.2755905511811024},{"duration":1.3138680000000003,"midi":69,"time":7.007295999999999,"velocity":0.2755905511811024},{"duration":1.3138680000000003,"midi":66,"time":7.007295999999999,"velocity":0.2755905511811024},{"duration":0.4379559999999998,"midi":66,"time":8.321164,"velocity":0.2755905511811024},{"duration":0.4379559999999998,"midi":57,"time":8.321164,"velocity":0.2755905511811024},{"duration":0.4379559999999998,"midi":61,"time":8.321164,"velocity":0.2755905511811024},{"duration":0.4379559999999998,"midi":69,"time":8.321164,"velocity":0.2755905511811024},{"duration":1.3138679999999994,"midi":65,"time":8.75912,"velocity":0.2755905511811024},{"duration":1.3138679999999994,"midi":61,"time":8.75912,"velocity":0.2755905511811024},{"duration":1.3138679999999994,"midi":56,"time":8.75912,"velocity":0.2755905511811024},{"duration":1.3138679999999994,"midi":68,"time":8.75912,"velocity":0.2755905511811024},{"duration":0.4379559999999998,"midi":68,"time":10.072987999999999,"velocity":0.2755905511811024},{"duration":0.4379559999999998,"midi":65,"time":10.072987999999999,"velocity":0.2755905511811024},{"duration":0.4379559999999998,"midi":61,"time":10.072987999999999,"velocity":0.2755905511811024},{"duration":0.4379559999999998,"midi":56,"time":10.072987999999999,"velocity":0.2755905511811024},{"duration":1.3138680000000011,"midi":69,"time":10.510943999999999,"velocity":0.2755905511811024},{"duration":1.3138680000000011,"midi":66,"time":10.510943999999999,"velocity":0.2755905511811024},{"duration":1.3138680000000011,"midi":62,"time":10.510943999999999,"velocity":0.2755905511811024},{"duration":1.3138680000000011,"midi":57,"time":10.510943999999999,"velocity":0.2755905511811024},{"duration":0.4379559999999998,"midi":62,"time":11.824812,"velocity":0.2755905511811024},{"duration":0.4379559999999998,"midi":69,"time":11.824812,"velocity":0.2755905511811024},{"duration":0.4379559999999998,"midi":57,"time":11.824812,"velocity":0.2755905511811024},{"duration":0.4379559999999998,"midi":66,"time":11.824812,"velocity":0.2755905511811024},{"duration":1.3138679999999994,"midi":56,"time":12.262768,"velocity":0.2755905511811024},{"duration":1.3138679999999994,"midi":77,"time":12.262768,"velocity":0.2755905511811024},{"duration":1.3138679999999994,"midi":73,"time":12.262768,"velocity":0.2755905511811024},{"duration":1.3138679999999994,"midi":68,"time":12.262768,"velocity":0.2755905511811024},{"duration":0.4379559999999998,"midi":68,"time":13.576635999999999,"velocity":0.2755905511811024},{"duration":0.4379559999999998,"midi":73,"time":13.576635999999999,"velocity":0.2755905511811024},{"duration":0.4379559999999998,"midi":56,"time":13.576635999999999,"velocity":0.2755905511811024},{"duration":0.4379559999999998,"midi":77,"time":13.576635999999999,"velocity":0.2755905511811024},{"duration":1.3138679999999994,"midi":69,"time":14.014591999999999,"velocity":0.2755905511811024},{"duration":1.3138679999999994,"midi":57,"time":14.014591999999999,"velocity":0.2755905511811024},{"duration":1.3138679999999994,"midi":66,"time":14.014591999999999,"velocity":0.2755905511811024},{"duration":1.3138679999999994,"midi":61,"time":14.014591999999999,"velocity":0.2755905511811024},{"duration":0.4379559999999998,"midi":69,"time":15.328459999999998,"velocity":0.2755905511811024},{"duration":0.4379559999999998,"midi":61,"time":15.328459999999998,"velocity":0.2755905511811024},{"duration":0.4379559999999998,"midi":57,"time":15.328459999999998,"velocity":0.2755905511811024},{"duration":0.4379559999999998,"midi":66,"time":15.328459999999998,"velocity":0.2755905511811024},{"duration":1.3138680000000011,"midi":61,"time":15.766415999999998,"velocity":0.2755905511811024},{"duration":1.3138680000000011,"midi":65,"time":15.766415999999998,"velocity":0.2755905511811024},{"duration":1.3138680000000011,"midi":68,"time":15.766415999999998,"velocity":0.2755905511811024},{"duration":1.3138680000000011,"midi":56,"time":15.766415999999998,"velocity":0.2755905511811024},{"duration":0.4379559999999998,"midi":61,"time":17.080284,"velocity":0.2755905511811024},{"duration":0.4379559999999998,"midi":65,"time":17.080284,"velocity":0.2755905511811024},{"duration":0.4379559999999998,"midi":68,"time":17.080284,"velocity":0.2755905511811024},{"duration":0.4379559999999998,"midi":56,"time":17.080284,"velocity":0.2755905511811024},{"duration":1.3138679999999994,"midi":62,"time":17.51824,"velocity":0.2755905511811024},{"duration":1.3138679999999994,"midi":69,"time":17.51824,"velocity":0.2755905511811024},{"duration":1.3138679999999994,"midi":66,"time":17.51824,"velocity":0.2755905511811024},{"duration":1.3138679999999994,"midi":57,"time":17.51824,"velocity":0.2755905511811024},{"duration":0.4379559999999998,"midi":62,"time":18.832107999999998,"velocity":0.2755905511811024},{"duration":0.4379559999999998,"midi":57,"time":18.832107999999998,"velocity":0.2755905511811024},{"duration":0.4379559999999998,"midi":69,"time":18.832107999999998,"velocity":0.2755905511811024},{"duration":0.4379559999999998,"midi":66,"time":18.832107999999998,"velocity":0.2755905511811024},{"duration":1.3138679999999994,"midi":73,"time":19.270063999999998,"velocity":0.2755905511811024},{"duration":1.3138679999999994,"midi":56,"time":19.270063999999998,"velocity":0.2755905511811024},{"duration":1.3138679999999994,"midi":77,"time":19.270063999999998,"velocity":0.2755905511811024},{"duration":1.3138679999999994,"midi":68,"time":19.270063999999998,"velocity":0.2755905511811024},{"duration":0.4379559999999998,"midi":68,"time":20.583931999999997,"velocity":0.2755905511811024},{"duration":0.4379559999999998,"midi":73,"time":20.583931999999997,"velocity":0.2755905511811024},{"duration":0.4379559999999998,"midi":77,"time":20.583931999999997,"velocity":0.2755905511811024},{"duration":0.4379559999999998,"midi":56,"time":20.583931999999997,"velocity":0.2755905511811024},{"duration":1.3138679999999994,"midi":69,"time":21.021887999999997,"velocity":0.2755905511811024},{"duration":1.3138679999999994,"midi":61,"time":21.021887999999997,"velocity":0.2755905511811024},{"duration":1.3138679999999994,"midi":57,"time":21.021887999999997,"velocity":0.2755905511811024},{"duration":1.3138679999999994,"midi":66,"time":21.021887999999997,"velocity":0.2755905511811024},{"duration":0.4379559999999998,"midi":57,"time":22.335755999999996,"velocity":0.2755905511811024},{"duration":0.4379559999999998,"midi":66,"time":22.335755999999996,"velocity":0.2755905511811024},{"duration":0.4379559999999998,"midi":69,"time":22.335755999999996,"velocity":0.2755905511811024},{"duration":0.4379559999999998,"midi":61,"time":22.335755999999996,"velocity":0.2755905511811024},{"duration":1.313868000000003,"midi":61,"time":22.773711999999996,"velocity":0.2755905511811024},{"duration":1.313868000000003,"midi":65,"time":22.773711999999996,"velocity":0.2755905511811024},{"duration":1.313868000000003,"midi":56,"time":22.773711999999996,"velocity":0.2755905511811024},{"duration":1.313868000000003,"midi":68,"time":22.773711999999996,"velocity":0.2755905511811024},{"duration":0.4379559999999998,"midi":65,"time":24.08758,"velocity":0.2755905511811024},{"duration":0.4379559999999998,"midi":56,"time":24.08758,"velocity":0.2755905511811024},{"duration":0.4379559999999998,"midi":68,"time":24.08758,"velocity":0.2755905511811024},{"duration":0.4379559999999998,"midi":61,"time":24.08758,"velocity":0.2755905511811024},{"duration":1.3138679999999994,"midi":66,"time":24.525536,"velocity":0.2755905511811024},{"duration":1.3138679999999994,"midi":69,"time":24.525536,"velocity":0.2755905511811024},{"duration":1.3138679999999994,"midi":62,"time":24.525536,"velocity":0.2755905511811024},{"duration":1.3138679999999994,"midi":57,"time":24.525536,"velocity":0.2755905511811024},{"duration":0.4379559999999998,"midi":57,"time":25.839404,"velocity":0.2755905511811024},{"duration":0.4379559999999998,"midi":66,"time":25.839404,"velocity":0.2755905511811024},{"duration":0.4379559999999998,"midi":69,"time":25.839404,"velocity":0.2755905511811024},{"duration":0.4379559999999998,"midi":62,"time":25.839404,"velocity":0.2755905511811024},{"duration":1.3138679999999994,"midi":77,"time":26.277359999999998,"velocity":0.2755905511811024},{"duration":1.3138679999999994,"midi":56,"time":26.277359999999998,"velocity":0.2755905511811024},{"duration":1.3138679999999994,"midi":73,"time":26.277359999999998,"velocity":0.2755905511811024},{"duration":1.3138679999999994,"midi":68,"time":26.277359999999998,"velocity":0.2755905511811024},{"duration":0.4379559999999998,"midi":68,"time":27.591227999999997,"velocity":0.2755905511811024},{"duration":0.4379559999999998,"midi":77,"time":27.591227999999997,"velocity":0.2755905511811024},{"duration":0.4379559999999998,"midi":73,"time":27.591227999999997,"velocity":0.2755905511811024},{"duration":0.4379559999999998,"midi":56,"time":27.591227999999997,"velocity":0.2755905511811024},{"duration":1.3138679999999994,"midi":66,"time":98.102144,"velocity":0.2755905511811024},{"duration":1.3138679999999994,"midi":69,"time":98.102144,"velocity":0.2755905511811024},{"duration":1.3138679999999994,"midi":61,"time":98.102144,"velocity":0.2755905511811024},{"duration":1.3138679999999994,"midi":57,"time":98.102144,"velocity":0.2755905511811024},{"duration":0.4379559999999998,"midi":66,"time":99.416012,"velocity":0.2755905511811024},{"duration":0.4379559999999998,"midi":61,"time":99.416012,"velocity":0.2755905511811024},{"duration":0.4379559999999998,"midi":57,"time":99.416012,"velocity":0.2755905511811024},{"duration":0.4379559999999998,"midi":69,"time":99.416012,"velocity":0.2755905511811024},{"duration":1.3138679999999994,"midi":65,"time":99.853968,"velocity":0.2755905511811024},{"duration":1.3138679999999994,"midi":61,"time":99.853968,"velocity":0.2755905511811024},{"duration":1.3138679999999994,"midi":56,"time":99.853968,"velocity":0.2755905511811024},{"duration":1.3138679999999994,"midi":68,"time":99.853968,"velocity":0.2755905511811024},{"duration":0.4379559999999998,"midi":65,"time":101.167836,"velocity":0.2755905511811024},{"duration":0.4379559999999998,"midi":68,"time":101.167836,"velocity":0.2755905511811024},{"duration":0.4379559999999998,"midi":61,"time":101.167836,"velocity":0.2755905511811024},{"duration":0.4379559999999998,"midi":56,"time":101.167836,"velocity":0.2755905511811024},{"duration":1.3138679999999994,"midi":66,"time":101.605792,"velocity":0.2755905511811024},{"duration":1.3138679999999994,"midi":57,"time":101.605792,"velocity":0.2755905511811024},{"duration":1.3138679999999994,"midi":69,"time":101.605792,"velocity":0.2755905511811024},{"duration":1.3138679999999994,"midi":62,"time":101.605792,"velocity":0.2755905511811024},{"duration":0.4379559999999998,"midi":69,"time":102.91966,"velocity":0.2755905511811024},{"duration":0.4379559999999998,"midi":66,"time":102.91966,"velocity":0.2755905511811024},{"duration":0.4379559999999998,"midi":62,"time":102.91966,"velocity":0.2755905511811024},{"duration":0.4379559999999998,"midi":57,"time":102.91966,"velocity":0.2755905511811024},{"duration":1.3138679999999994,"midi":77,"time":103.357616,"velocity":0.2755905511811024},{"duration":1.3138679999999994,"midi":73,"time":103.357616,"velocity":0.2755905511811024},{"duration":1.3138679999999994,"midi":68,"time":103.357616,"velocity":0.2755905511811024},{"duration":1.3138679999999994,"midi":65,"time":103.357616,"velocity":0.2755905511811024},{"duration":0.4379559999999998,"midi":77,"time":104.67148399999999,"velocity":0.2755905511811024},{"duration":0.4379559999999998,"midi":73,"time":104.67148399999999,"velocity":0.2755905511811024},{"duration":0.4379559999999998,"midi":68,"time":104.67148399999999,"velocity":0.2755905511811024},{"duration":0.4379559999999998,"midi":65,"time":104.67148399999999,"velocity":0.2755905511811024},{"duration":1.3138679999999994,"midi":66,"time":105.10943999999999,"velocity":0.2755905511811024},{"duration":1.3138679999999994,"midi":69,"time":105.10943999999999,"velocity":0.2755905511811024},{"duration":1.3138679999999994,"midi":57,"time":105.10943999999999,"velocity":0.2755905511811024},{"duration":1.3138679999999994,"midi":61,"time":105.10943999999999,"velocity":0.2755905511811024},{"duration":0.4379559999999998,"midi":57,"time":106.42330799999999,"velocity":0.2755905511811024},{"duration":0.4379559999999998,"midi":69,"time":106.42330799999999,"velocity":0.2755905511811024},{"duration":0.4379559999999998,"midi":66,"time":106.42330799999999,"velocity":0.2755905511811024},{"duration":0.4379559999999998,"midi":61,"time":106.42330799999999,"velocity":0.2755905511811024},{"duration":1.3138679999999994,"midi":68,"time":106.86126399999999,"velocity":0.2755905511811024},{"duration":1.3138679999999994,"midi":61,"time":106.86126399999999,"velocity":0.2755905511811024},{"duration":1.3138679999999994,"midi":56,"time":106.86126399999999,"velocity":0.2755905511811024},{"duration":1.3138679999999994,"midi":65,"time":106.86126399999999,"velocity":0.2755905511811024},{"duration":0.4379559999999998,"midi":61,"time":108.17513199999999,"velocity":0.2755905511811024},{"duration":0.4379559999999998,"midi":56,"time":108.17513199999999,"velocity":0.2755905511811024},{"duration":0.4379559999999998,"midi":65,"time":108.17513199999999,"velocity":0.2755905511811024},{"duration":0.4379559999999998,"midi":68,"time":108.17513199999999,"velocity":0.2755905511811024},{"duration":1.3138679999999994,"midi":57,"time":108.61308799999999,"velocity":0.2755905511811024},{"duration":1.3138679999999994,"midi":62,"time":108.61308799999999,"velocity":0.2755905511811024},{"duration":1.3138679999999994,"midi":69,"time":108.61308799999999,"velocity":0.2755905511811024},{"duration":1.3138679999999994,"midi":66,"time":108.61308799999999,"velocity":0.2755905511811024},{"duration":0.4379559999999998,"midi":69,"time":109.92695599999999,"velocity":0.2755905511811024},{"duration":0.4379559999999998,"midi":62,"time":109.92695599999999,"velocity":0.2755905511811024},{"duration":0.4379559999999998,"midi":57,"time":109.92695599999999,"velocity":0.2755905511811024},{"duration":0.4379559999999998,"midi":66,"time":109.92695599999999,"velocity":0.2755905511811024},{"duration":1.3138679999999994,"midi":77,"time":110.36491199999999,"velocity":0.2755905511811024},{"duration":1.3138679999999994,"midi":65,"time":110.36491199999999,"velocity":0.2755905511811024},{"duration":1.3138679999999994,"midi":68,"time":110.36491199999999,"velocity":0.2755905511811024},{"duration":1.3138679999999994,"midi":73,"time":110.36491199999999,"velocity":0.2755905511811024},{"duration":0.4379559999999998,"midi":77,"time":111.67877999999999,"velocity":0.2755905511811024},{"duration":0.4379559999999998,"midi":65,"time":111.67877999999999,"velocity":0.2755905511811024},{"duration":0.4379559999999998,"midi":68,"time":111.67877999999999,"velocity":0.2755905511811024},{"duration":0.4379559999999998,"midi":73,"time":111.67877999999999,"velocity":0.2755905511811024},{"duration":1.3138679999999994,"midi":66,"time":112.11673599999999,"velocity":0.2755905511811024},{"duration":1.3138679999999994,"midi":69,"time":112.11673599999999,"velocity":0.2755905511811024},{"duration":1.3138679999999994,"midi":57,"time":112.11673599999999,"velocity":0.2755905511811024},{"duration":1.3138679999999994,"midi":61,"time":112.11673599999999,"velocity":0.2755905511811024},{"duration":0.4379559999999998,"midi":66,"time":113.43060399999999,"velocity":0.2755905511811024},{"duration":0.4379559999999998,"midi":69,"time":113.43060399999999,"velocity":0.2755905511811024},{"duration":0.4379559999999998,"midi":61,"time":113.43060399999999,"velocity":0.2755905511811024},{"duration":0.4379559999999998,"midi":57,"time":113.43060399999999,"velocity":0.2755905511811024},{"duration":1.3138679999999994,"midi":68,"time":113.86855999999999,"velocity":0.2755905511811024},{"duration":1.3138679999999994,"midi":65,"time":113.86855999999999,"velocity":0.2755905511811024},{"duration":1.3138679999999994,"midi":56,"time":113.86855999999999,"velocity":0.2755905511811024},{"duration":1.3138679999999994,"midi":61,"time":113.86855999999999,"velocity":0.2755905511811024},{"duration":0.4379559999999998,"midi":68,"time":115.18242799999999,"velocity":0.2755905511811024},{"duration":0.4379559999999998,"midi":65,"time":115.18242799999999,"velocity":0.2755905511811024},{"duration":0.4379559999999998,"midi":61,"time":115.18242799999999,"velocity":0.2755905511811024},{"duration":0.4379559999999998,"midi":56,"time":115.18242799999999,"velocity":0.2755905511811024},{"duration":1.3138679999999994,"midi":62,"time":115.62038399999999,"velocity":0.2755905511811024},{"duration":1.3138679999999994,"midi":69,"time":115.62038399999999,"velocity":0.2755905511811024},{"duration":1.3138679999999994,"midi":66,"time":115.62038399999999,"velocity":0.2755905511811024},{"duration":1.3138679999999994,"midi":57,"time":115.62038399999999,"velocity":0.2755905511811024},{"duration":0.4379559999999998,"midi":57,"time":116.93425199999999,"velocity":0.2755905511811024},{"duration":0.4379559999999998,"midi":66,"time":116.93425199999999,"velocity":0.2755905511811024},{"duration":0.4379559999999998,"midi":69,"time":116.93425199999999,"velocity":0.2755905511811024},{"duration":0.4379559999999998,"midi":62,"time":116.93425199999999,"velocity":0.2755905511811024},{"duration":1.3138679999999994,"midi":73,"time":117.37220799999999,"velocity":0.2755905511811024},{"duration":1.3138679999999994,"midi":65,"time":117.37220799999999,"velocity":0.2755905511811024},{"duration":1.3138679999999994,"midi":68,"time":117.37220799999999,"velocity":0.2755905511811024},{"duration":1.3138679999999994,"midi":77,"time":117.37220799999999,"velocity":0.2755905511811024},{"duration":0.4379559999999998,"midi":73,"time":118.68607599999999,"velocity":0.2755905511811024},{"duration":0.4379559999999998,"midi":65,"time":118.68607599999999,"velocity":0.2755905511811024},{"duration":0.4379559999999998,"midi":77,"time":118.68607599999999,"velocity":0.2755905511811024},{"duration":0.4379559999999998,"midi":68,"time":118.68607599999999,"velocity":0.2755905511811024},{"duration":1.3138679999999994,"midi":66,"time":119.12403199999999,"velocity":0.2755905511811024},{"duration":1.3138679999999994,"midi":61,"time":119.12403199999999,"velocity":0.2755905511811024},{"duration":1.3138679999999994,"midi":57,"time":119.12403199999999,"velocity":0.2755905511811024},{"duration":1.3138679999999994,"midi":69,"time":119.12403199999999,"velocity":0.2755905511811024},{"duration":0.4379559999999998,"midi":69,"time":120.43789999999998,"velocity":0.2755905511811024},{"duration":0.4379559999999998,"midi":66,"time":120.43789999999998,"velocity":0.2755905511811024},{"duration":0.4379559999999998,"midi":57,"time":120.43789999999998,"velocity":0.2755905511811024},{"duration":0.4379559999999998,"midi":61,"time":120.43789999999998,"velocity":0.2755905511811024},{"duration":1.3138679999999994,"midi":65,"time":120.87585599999998,"velocity":0.2755905511811024},{"duration":1.3138679999999994,"midi":61,"time":120.87585599999998,"velocity":0.2755905511811024},{"duration":1.3138679999999994,"midi":56,"time":120.87585599999998,"velocity":0.2755905511811024},{"duration":1.3138679999999994,"midi":68,"time":120.87585599999998,"velocity":0.2755905511811024},{"duration":0.4379559999999998,"midi":65,"time":122.18972399999998,"velocity":0.2755905511811024},{"duration":0.4379559999999998,"midi":61,"time":122.18972399999998,"velocity":0.2755905511811024},{"duration":0.4379559999999998,"midi":56,"time":122.18972399999998,"velocity":0.2755905511811024},{"duration":0.4379559999999998,"midi":68,"time":122.18972399999998,"velocity":0.2755905511811024},{"duration":1.3138679999999994,"midi":66,"time":122.62767999999998,"velocity":0.2755905511811024},{"duration":1.3138679999999994,"midi":62,"time":122.62767999999998,"velocity":0.2755905511811024},{"duration":1.3138679999999994,"midi":57,"time":122.62767999999998,"velocity":0.2755905511811024},{"duration":1.3138679999999994,"midi":69,"time":122.62767999999998,"velocity":0.2755905511811024},{"duration":0.4379559999999998,"midi":69,"time":123.94154799999998,"velocity":0.2755905511811024},{"duration":0.4379559999999998,"midi":66,"time":123.94154799999998,"velocity":0.2755905511811024},{"duration":0.4379559999999998,"midi":57,"time":123.94154799999998,"velocity":0.2755905511811024},{"duration":0.4379559999999998,"midi":62,"time":123.94154799999998,"velocity":0.2755905511811024},{"duration":1.3138679999999994,"midi":65,"time":124.37950399999998,"velocity":0.2755905511811024},{"duration":1.3138679999999994,"midi":68,"time":124.37950399999998,"velocity":0.2755905511811024},{"duration":1.3138679999999994,"midi":77,"time":124.37950399999998,"velocity":0.2755905511811024},{"duration":1.3138679999999994,"midi":73,"time":124.37950399999998,"velocity":0.2755905511811024},{"duration":0.4379559999999998,"midi":65,"time":125.69337199999998,"velocity":0.2755905511811024},{"duration":0.4379559999999998,"midi":68,"time":125.69337199999998,"velocity":0.2755905511811024},{"duration":0.4379559999999998,"midi":77,"time":125.69337199999998,"velocity":0.2755905511811024},{"duration":0.4379559999999998,"midi":73,"time":125.69337199999998,"velocity":0.2755905511811024},{"duration":1.3138679999999852,"midi":66,"time":196.204288,"velocity":0.2755905511811024},{"duration":1.3138679999999852,"midi":61,"time":196.204288,"velocity":0.2755905511811024},{"duration":1.3138679999999852,"midi":69,"time":196.204288,"velocity":0.2755905511811024},{"duration":1.3138679999999852,"midi":57,"time":196.204288,"velocity":0.2755905511811024},{"duration":0.437956000000014,"midi":57,"time":197.51815599999998,"velocity":0.2755905511811024},{"duration":0.437956000000014,"midi":69,"time":197.51815599999998,"velocity":0.2755905511811024},{"duration":0.437956000000014,"midi":66,"time":197.51815599999998,"velocity":0.2755905511811024},{"duration":0.437956000000014,"midi":61,"time":197.51815599999998,"velocity":0.2755905511811024},{"duration":1.3138679999999852,"midi":61,"time":197.956112,"velocity":0.2755905511811024},{"duration":1.3138679999999852,"midi":68,"time":197.956112,"velocity":0.2755905511811024},{"duration":1.3138679999999852,"midi":56,"time":197.956112,"velocity":0.2755905511811024},{"duration":1.3138679999999852,"midi":65,"time":197.956112,"velocity":0.2755905511811024},{"duration":0.437956000000014,"midi":68,"time":199.26997999999998,"velocity":0.2755905511811024},{"duration":0.437956000000014,"midi":61,"time":199.26997999999998,"velocity":0.2755905511811024},{"duration":0.437956000000014,"midi":56,"time":199.26997999999998,"velocity":0.2755905511811024},{"duration":0.437956000000014,"midi":65,"time":199.26997999999998,"velocity":0.2755905511811024},{"duration":1.3138679999999852,"midi":57,"time":199.707936,"velocity":0.2755905511811024},{"duration":1.3138679999999852,"midi":66,"time":199.707936,"velocity":0.2755905511811024},{"duration":1.3138679999999852,"midi":62,"time":199.707936,"velocity":0.2755905511811024},{"duration":1.3138679999999852,"midi":69,"time":199.707936,"velocity":0.2755905511811024},{"duration":0.437956000000014,"midi":62,"time":201.02180399999997,"velocity":0.2755905511811024},{"duration":0.437956000000014,"midi":57,"time":201.02180399999997,"velocity":0.2755905511811024},{"duration":0.437956000000014,"midi":69,"time":201.02180399999997,"velocity":0.2755905511811024},{"duration":0.437956000000014,"midi":66,"time":201.02180399999997,"velocity":0.2755905511811024},{"duration":1.3138679999999852,"midi":77,"time":201.45976,"velocity":0.2755905511811024},{"duration":1.3138679999999852,"midi":73,"time":201.45976,"velocity":0.2755905511811024},{"duration":1.3138679999999852,"midi":68,"time":201.45976,"velocity":0.2755905511811024},{"duration":1.3138679999999852,"midi":65,"time":201.45976,"velocity":0.2755905511811024},{"duration":0.437956000000014,"midi":77,"time":202.77362799999997,"velocity":0.2755905511811024},{"duration":0.437956000000014,"midi":68,"time":202.77362799999997,"velocity":0.2755905511811024},{"duration":0.437956000000014,"midi":73,"time":202.77362799999997,"velocity":0.2755905511811024},{"duration":0.437956000000014,"midi":65,"time":202.77362799999997,"velocity":0.2755905511811024},{"duration":1.3138679999999852,"midi":66,"time":203.211584,"velocity":0.2755905511811024},{"duration":1.3138679999999852,"midi":61,"time":203.211584,"velocity":0.2755905511811024},{"duration":1.3138679999999852,"midi":57,"time":203.211584,"velocity":0.2755905511811024},{"duration":1.3138679999999852,"midi":69,"time":203.211584,"velocity":0.2755905511811024},{"duration":0.437956000000014,"midi":61,"time":204.52545199999997,"velocity":0.2755905511811024},{"duration":0.437956000000014,"midi":66,"time":204.52545199999997,"velocity":0.2755905511811024},{"duration":0.437956000000014,"midi":69,"time":204.52545199999997,"velocity":0.2755905511811024},{"duration":0.437956000000014,"midi":57,"time":204.52545199999997,"velocity":0.2755905511811024},{"duration":1.3138679999999852,"midi":56,"time":204.963408,"velocity":0.2755905511811024},{"duration":1.3138679999999852,"midi":65,"time":204.963408,"velocity":0.2755905511811024},{"duration":1.3138679999999852,"midi":61,"time":204.963408,"velocity":0.2755905511811024},{"duration":1.3138679999999852,"midi":68,"time":204.963408,"velocity":0.2755905511811024},{"duration":0.437956000000014,"midi":65,"time":206.27727599999997,"velocity":0.2755905511811024},{"duration":0.437956000000014,"midi":56,"time":206.27727599999997,"velocity":0.2755905511811024},{"duration":0.437956000000014,"midi":61,"time":206.27727599999997,"velocity":0.2755905511811024},{"duration":0.437956000000014,"midi":68,"time":206.27727599999997,"velocity":0.2755905511811024},{"duration":1.3138679999999852,"midi":69,"time":206.715232,"velocity":0.2755905511811024},{"duration":1.3138679999999852,"midi":66,"time":206.715232,"velocity":0.2755905511811024},{"duration":1.3138679999999852,"midi":57,"time":206.715232,"velocity":0.2755905511811024},{"duration":1.3138679999999852,"midi":62,"time":206.715232,"velocity":0.2755905511811024},{"duration":0.437956000000014,"midi":62,"time":208.02909999999997,"velocity":0.2755905511811024},{"duration":0.437956000000014,"midi":69,"time":208.02909999999997,"velocity":0.2755905511811024},{"duration":0.437956000000014,"midi":57,"time":208.02909999999997,"velocity":0.2755905511811024},{"duration":0.437956000000014,"midi":66,"time":208.02909999999997,"velocity":0.2755905511811024},{"duration":1.3138679999999852,"midi":65,"time":208.46705599999999,"velocity":0.2755905511811024},{"duration":1.3138679999999852,"midi":73,"time":208.46705599999999,"velocity":0.2755905511811024},{"duration":1.3138679999999852,"midi":68,"time":208.46705599999999,"velocity":0.2755905511811024},{"duration":1.3138679999999852,"midi":77,"time":208.46705599999999,"velocity":0.2755905511811024},{"duration":0.437956000000014,"midi":65,"time":209.78092399999997,"velocity":0.2755905511811024},{"duration":0.437956000000014,"midi":68,"time":209.78092399999997,"velocity":0.2755905511811024},{"duration":0.437956000000014,"midi":73,"time":209.78092399999997,"velocity":0.2755905511811024},{"duration":0.437956000000014,"midi":77,"time":209.78092399999997,"velocity":0.2755905511811024},{"duration":1.3138679999999852,"midi":66,"time":210.21887999999998,"velocity":0.2755905511811024},{"duration":1.3138679999999852,"midi":61,"time":210.21887999999998,"velocity":0.2755905511811024},{"duration":1.3138679999999852,"midi":57,"time":210.21887999999998,"velocity":0.2755905511811024},{"duration":1.3138679999999852,"midi":69,"time":210.21887999999998,"velocity":0.2755905511811024},{"duration":0.437956000000014,"midi":61,"time":211.53274799999997,"velocity":0.2755905511811024},{"duration":0.437956000000014,"midi":69,"time":211.53274799999997,"velocity":0.2755905511811024},{"duration":0.437956000000014,"midi":66,"time":211.53274799999997,"velocity":0.2755905511811024},{"duration":0.437956000000014,"midi":57,"time":211.53274799999997,"velocity":0.2755905511811024},{"duration":1.3138679999999852,"midi":65,"time":211.97070399999998,"velocity":0.2755905511811024},{"duration":1.3138679999999852,"midi":68,"time":211.97070399999998,"velocity":0.2755905511811024},{"duration":1.3138679999999852,"midi":61,"time":211.97070399999998,"velocity":0.2755905511811024},{"duration":1.3138679999999852,"midi":56,"time":211.97070399999998,"velocity":0.2755905511811024},{"duration":0.437956000000014,"midi":56,"time":213.28457199999997,"velocity":0.2755905511811024},{"duration":0.437956000000014,"midi":68,"time":213.28457199999997,"velocity":0.2755905511811024},{"duration":0.437956000000014,"midi":61,"time":213.28457199999997,"velocity":0.2755905511811024},{"duration":0.437956000000014,"midi":65,"time":213.28457199999997,"velocity":0.2755905511811024},{"duration":1.3138679999999852,"midi":69,"time":213.72252799999998,"velocity":0.2755905511811024},{"duration":1.3138679999999852,"midi":57,"time":213.72252799999998,"velocity":0.2755905511811024},{"duration":1.3138679999999852,"midi":66,"time":213.72252799999998,"velocity":0.2755905511811024},{"duration":1.3138679999999852,"midi":62,"time":213.72252799999998,"velocity":0.2755905511811024},{"duration":0.437956000000014,"midi":66,"time":215.03639599999997,"velocity":0.2755905511811024},{"duration":0.437956000000014,"midi":57,"time":215.03639599999997,"velocity":0.2755905511811024},{"duration":0.437956000000014,"midi":69,"time":215.03639599999997,"velocity":0.2755905511811024},{"duration":0.437956000000014,"midi":62,"time":215.03639599999997,"velocity":0.2755905511811024},{"duration":1.3138679999999852,"midi":77,"time":215.47435199999998,"velocity":0.2755905511811024},{"duration":1.3138679999999852,"midi":73,"time":215.47435199999998,"velocity":0.2755905511811024},{"duration":1.3138679999999852,"midi":68,"time":215.47435199999998,"velocity":0.2755905511811024},{"duration":1.3138679999999852,"midi":65,"time":215.47435199999998,"velocity":0.2755905511811024},{"duration":0.437956000000014,"midi":77,"time":216.78821999999997,"velocity":0.2755905511811024},{"duration":0.437956000000014,"midi":65,"time":216.78821999999997,"velocity":0.2755905511811024},{"duration":0.437956000000014,"midi":73,"time":216.78821999999997,"velocity":0.2755905511811024},{"duration":0.437956000000014,"midi":68,"time":216.78821999999997,"velocity":0.2755905511811024},{"duration":1.3138679999999852,"midi":57,"time":217.22617599999998,"velocity":0.2755905511811024},{"duration":1.3138679999999852,"midi":61,"time":217.22617599999998,"velocity":0.2755905511811024},{"duration":1.3138679999999852,"midi":69,"time":217.22617599999998,"velocity":0.2755905511811024},{"duration":1.3138679999999852,"midi":66,"time":217.22617599999998,"velocity":0.2755905511811024},{"duration":0.437956000000014,"midi":57,"time":218.54004399999997,"velocity":0.2755905511811024},{"duration":0.437956000000014,"midi":61,"time":218.54004399999997,"velocity":0.2755905511811024},{"duration":0.437956000000014,"midi":69,"time":218.54004399999997,"velocity":0.2755905511811024},{"duration":0.437956000000014,"midi":66,"time":218.54004399999997,"velocity":0.2755905511811024},{"duration":1.3138679999999852,"midi":68,"time":218.97799999999998,"velocity":0.2755905511811024},{"duration":1.3138679999999852,"midi":65,"time":218.97799999999998,"velocity":0.2755905511811024},{"duration":1.3138679999999852,"midi":56,"time":218.97799999999998,"velocity":0.2755905511811024},{"duration":1.3138679999999852,"midi":61,"time":218.97799999999998,"velocity":0.2755905511811024},{"duration":0.437956000000014,"midi":56,"time":220.29186799999997,"velocity":0.2755905511811024},{"duration":0.437956000000014,"midi":61,"time":220.29186799999997,"velocity":0.2755905511811024},{"duration":0.437956000000014,"midi":65,"time":220.29186799999997,"velocity":0.2755905511811024},{"duration":0.437956000000014,"midi":68,"time":220.29186799999997,"velocity":0.2755905511811024},{"duration":1.3138679999999852,"midi":57,"time":220.72982399999998,"velocity":0.2755905511811024},{"duration":1.3138679999999852,"midi":62,"time":220.72982399999998,"velocity":0.2755905511811024},{"duration":1.3138679999999852,"midi":69,"time":220.72982399999998,"velocity":0.2755905511811024},{"duration":1.3138679999999852,"midi":66,"time":220.72982399999998,"velocity":0.2755905511811024},{"duration":0.437956000000014,"midi":69,"time":222.04369199999996,"velocity":0.2755905511811024},{"duration":0.437956000000014,"midi":57,"time":222.04369199999996,"velocity":0.2755905511811024},{"duration":0.437956000000014,"midi":62,"time":222.04369199999996,"velocity":0.2755905511811024},{"duration":0.437956000000014,"midi":66,"time":222.04369199999996,"velocity":0.2755905511811024},{"duration":1.3138679999999852,"midi":65,"time":222.48164799999998,"velocity":0.2755905511811024},{"duration":1.3138679999999852,"midi":68,"time":222.48164799999998,"velocity":0.2755905511811024},{"duration":1.3138679999999852,"midi":73,"time":222.48164799999998,"velocity":0.2755905511811024},{"duration":1.3138679999999852,"midi":77,"time":222.48164799999998,"velocity":0.2755905511811024},{"duration":0.437956000000014,"midi":65,"time":223.79551599999996,"velocity":0.2755905511811024},{"duration":0.437956000000014,"midi":68,"time":223.79551599999996,"velocity":0.2755905511811024},{"duration":0.437956000000014,"midi":73,"time":223.79551599999996,"velocity":0.2755905511811024},{"duration":0.437956000000014,"midi":77,"time":223.79551599999996,"velocity":0.2755905511811024}]},{"instrument":{"family":"strings","number":42,"name":"cello"},"notes":[{"duration":0.1094890000000035,"midi":73,"time":56.058367999999994,"velocity":0.5196850393700787},{"duration":0.1094890000000035,"midi":81,"time":56.058367999999994,"velocity":0.5196850393700787},{"duration":0.1094890000000035,"midi":66,"time":56.058367999999994,"velocity":0.5196850393700787},{"duration":0.1094889999999964,"midi":66,"time":56.167857,"velocity":0.5196850393700787},{"duration":0.1094889999999964,"midi":80,"time":56.167857,"velocity":0.5196850393700787},{"duration":0.1094889999999964,"midi":73,"time":56.167857,"velocity":0.5196850393700787},{"duration":0.1094889999999964,"midi":78,"time":56.386835,"velocity":0.5196850393700787},{"duration":0.1094889999999964,"midi":73,"time":56.386835,"velocity":0.5196850393700787},{"duration":0.1094889999999964,"midi":66,"time":56.386835,"velocity":0.5196850393700787},{"duration":0.1094890000000035,"midi":73,"time":57.810191999999994,"velocity":0.5196850393700787},{"duration":0.1094890000000035,"midi":78,"time":57.810191999999994,"velocity":0.5196850393700787},{"duration":0.1094889999999964,"midi":78,"time":57.919681,"velocity":0.5196850393700787},{"duration":0.1094890000000035,"midi":69,"time":58.02916999999999,"velocity":0.5196850393700787},{"duration":0.1094890000000035,"midi":78,"time":58.02916999999999,"velocity":0.5196850393700787},{"duration":0.1094889999999964,"midi":66,"time":58.138659,"velocity":0.5196850393700787},{"duration":0.1094889999999964,"midi":66,"time":58.795593,"velocity":0.5196850393700787},{"duration":0.1094890000000035,"midi":69,"time":58.90508199999999,"velocity":0.5196850393700787},{"duration":0.1094889999999964,"midi":71,"time":59.014571,"velocity":0.5196850393700787},{"duration":0.1094890000000035,"midi":78,"time":61.75179599999999,"velocity":0.5196850393700787},{"duration":0.1094890000000035,"midi":69,"time":61.75179599999999,"velocity":0.5196850393700787},{"duration":0.1094890000000035,"midi":81,"time":61.97077399999999,"velocity":0.5196850393700787},{"duration":0.1094890000000035,"midi":69,"time":61.97077399999999,"velocity":0.5196850393700787},{"duration":0.1094889999999964,"midi":80,"time":62.080262999999995,"velocity":0.5196850393700787},{"duration":0.1094889999999964,"midi":69,"time":62.080262999999995,"velocity":0.5196850393700787},{"duration":0.1094890000000035,"midi":54,"time":62.18975199999999,"velocity":0.5196850393700787},{"duration":0.1094889999999964,"midi":66,"time":62.299240999999995,"velocity":0.5196850393700787},{"duration":0.1094890000000035,"midi":69,"time":62.40872999999999,"velocity":0.5196850393700787},{"duration":0.1094889999999964,"midi":71,"time":62.518218999999995,"velocity":0.5196850393700787},{"duration":0.1094889999999964,"midi":54,"time":67.445224,"velocity":0.5196850393700787},{"duration":0.1094889999999964,"midi":66,"time":67.55471299999999,"velocity":0.5196850393700787},{"duration":0.1094890000000106,"midi":81,"time":67.66420199999999,"velocity":0.5196850393700787},{"duration":0.1094890000000106,"midi":78,"time":67.66420199999999,"velocity":0.5196850393700787},{"duration":0.1094890000000106,"midi":69,"time":67.66420199999999,"velocity":0.5196850393700787},{"duration":0.1094889999999964,"midi":80,"time":67.773691,"velocity":0.5196850393700787},{"duration":0.1094889999999964,"midi":69,"time":67.773691,"velocity":0.5196850393700787},{"duration":0.1094889999999964,"midi":78,"time":67.773691,"velocity":0.5196850393700787},{"duration":0.1094889999999964,"midi":66,"time":67.88318,"velocity":0.5196850393700787},{"duration":0.1094889999999964,"midi":80,"time":67.99266899999999,"velocity":0.5196850393700787},{"duration":0.1094889999999964,"midi":78,"time":67.99266899999999,"velocity":0.5196850393700787},{"duration":0.1094889999999964,"midi":73,"time":67.99266899999999,"velocity":0.5196850393700787},{"duration":0.1094890000000106,"midi":78,"time":68.10215799999999,"velocity":0.5196850393700787},{"duration":0.1094890000000106,"midi":73,"time":68.10215799999999,"velocity":0.5196850393700787},{"duration":0.1094889999999964,"midi":81,"time":70.07296,"velocity":0.5196850393700787},{"duration":0.1094889999999964,"midi":66,"time":70.07296,"velocity":0.5196850393700787},{"duration":0.1094889999999964,"midi":73,"time":70.07296,"velocity":0.5196850393700787},{"duration":0.1094889999999964,"midi":66,"time":70.18244899999999,"velocity":0.5196850393700787},{"duration":0.1094889999999964,"midi":73,"time":70.18244899999999,"velocity":0.5196850393700787},{"duration":0.1094889999999964,"midi":80,"time":70.18244899999999,"velocity":0.5196850393700787},{"duration":0.1094889999999964,"midi":66,"time":70.401427,"velocity":0.5196850393700787},{"duration":0.1094889999999964,"midi":76,"time":70.401427,"velocity":0.5196850393700787},{"duration":0.1094889999999964,"midi":73,"time":70.401427,"velocity":0.5196850393700787},{"duration":0.2189779999999928,"midi":66,"time":70.510916,"velocity":0.5196850393700787},{"duration":0.2189779999999928,"midi":78,"time":70.510916,"velocity":0.5196850393700787},{"duration":0.2189779999999928,"midi":73,"time":70.510916,"velocity":0.5196850393700787},{"duration":0.1094890000000106,"midi":81,"time":72.48171799999999,"velocity":0.5196850393700787},{"duration":0.1094890000000106,"midi":73,"time":72.48171799999999,"velocity":0.5196850393700787},{"duration":0.1094890000000106,"midi":78,"time":72.48171799999999,"velocity":0.5196850393700787},{"duration":0.1094889999999964,"midi":73,"time":72.591207,"velocity":0.5196850393700787},{"duration":0.1094889999999964,"midi":80,"time":72.591207,"velocity":0.5196850393700787},{"duration":0.1094889999999964,"midi":78,"time":72.591207,"velocity":0.5196850393700787},{"duration":0.1094889999999964,"midi":71,"time":74.014564,"velocity":0.5196850393700787},{"duration":0.1094889999999964,"midi":69,"time":74.12405299999999,"velocity":0.5196850393700787},{"duration":0.1094890000000106,"midi":66,"time":74.23354199999999,"velocity":0.5196850393700787},{"duration":0.1094889999999964,"midi":61,"time":74.343031,"velocity":0.5196850393700787},{"duration":0.1094889999999964,"midi":78,"time":74.45251999999999,"velocity":0.5196850393700787},{"duration":0.1094889999999964,"midi":69,"time":74.45251999999999,"velocity":0.5196850393700787},{"duration":0.1094889999999964,"midi":81,"time":74.45251999999999,"velocity":0.5196850393700787},{"duration":0.1094889999999964,"midi":73,"time":74.45251999999999,"velocity":0.5196850393700787},{"duration":0.1094889999999964,"midi":78,"time":74.56200899999999,"velocity":0.5196850393700787},{"duration":0.1094889999999964,"midi":73,"time":74.56200899999999,"velocity":0.5196850393700787},{"duration":0.1094889999999964,"midi":69,"time":74.56200899999999,"velocity":0.5196850393700787},{"duration":0.1094889999999964,"midi":80,"time":74.56200899999999,"velocity":0.5196850393700787},{"duration":0.1094890000000106,"midi":69,"time":74.67149799999999,"velocity":0.5196850393700787},{"duration":0.1094890000000106,"midi":73,"time":74.67149799999999,"velocity":0.5196850393700787},{"duration":0.1094889999999964,"midi":73,"time":74.780987,"velocity":0.5196850393700787},{"duration":0.1094889999999964,"midi":69,"time":74.780987,"velocity":0.5196850393700787},{"duration":0.1094889999999964,"midi":78,"time":74.780987,"velocity":0.5196850393700787},{"duration":0.1094889999999964,"midi":76,"time":74.780987,"velocity":0.5196850393700787},{"duration":0.218978000000007,"midi":78,"time":74.89047599999999,"velocity":0.5196850393700787},{"duration":0.218978000000007,"midi":73,"time":74.89047599999999,"velocity":0.5196850393700787},{"duration":0.218978000000007,"midi":69,"time":74.89047599999999,"velocity":0.5196850393700787},{"duration":0.1094889999999964,"midi":54,"time":76.20434399999999,"velocity":0.5196850393700787},{"duration":0.1094890000000106,"midi":66,"time":76.31383299999999,"velocity":0.5196850393700787},{"duration":0.1094889999999964,"midi":69,"time":76.423322,"velocity":0.5196850393700787},{"duration":0.1094889999999964,"midi":71,"time":76.532811,"velocity":0.5196850393700787},{"duration":0.1094889999999964,"midi":54,"time":78.83207999999999,"velocity":0.5196850393700787},{"duration":0.1094890000000106,"midi":66,"time":78.94156899999999,"velocity":0.5196850393700787},{"duration":0.1094889999999964,"midi":69,"time":79.051058,"velocity":0.5196850393700787},{"duration":0.1094889999999964,"midi":71,"time":79.160547,"velocity":0.5196850393700787},{"duration":0.1094889999999964,"midi":66,"time":81.45981599999999,"velocity":0.5196850393700787},{"duration":0.1094889999999964,"midi":73,"time":81.45981599999999,"velocity":0.5196850393700787},{"duration":0.1094889999999964,"midi":81,"time":81.45981599999999,"velocity":0.5196850393700787},{"duration":0.1094890000000106,"midi":73,"time":81.56930499999999,"velocity":0.5196850393700787},{"duration":0.1094890000000106,"midi":66,"time":81.56930499999999,"velocity":0.5196850393700787},{"duration":0.1094890000000106,"midi":80,"time":81.56930499999999,"velocity":0.5196850393700787},{"duration":0.1094889999999964,"midi":80,"time":81.678794,"velocity":0.5196850393700787},{"duration":0.1094889999999964,"midi":66,"time":81.678794,"velocity":0.5196850393700787},{"duration":0.1094889999999964,"midi":73,"time":81.678794,"velocity":0.5196850393700787},{"duration":0.1094889999999964,"midi":66,"time":81.78828299999999,"velocity":0.5196850393700787},{"duration":0.1094889999999964,"midi":73,"time":81.78828299999999,"velocity":0.5196850393700787},{"duration":0.1094889999999964,"midi":69,"time":82.11675,"velocity":0.5196850393700787},{"duration":0.1094889999999964,"midi":71,"time":82.22623899999999,"velocity":0.5196850393700787},{"duration":0.1094889999999964,"midi":71,"time":140.14592,"velocity":0.5196850393700787},{"duration":0.1094889999999964,"midi":69,"time":140.255409,"velocity":0.5196850393700787},{"duration":0.1094889999999964,"midi":66,"time":140.36489799999998,"velocity":0.5196850393700787},{"duration":0.1094889999999964,"midi":61,"time":140.47438699999998,"velocity":0.5196850393700787},{"duration":0.1094889999999964,"midi":69,"time":141.021832,"velocity":0.5196850393700787},{"duration":0.1094889999999964,"midi":73,"time":141.021832,"velocity":0.5196850393700787},{"duration":0.1094889999999964,"midi":78,"time":141.13132099999999,"velocity":0.5196850393700787},{"duration":0.3284670000000176,"midi":69,"time":141.45978799999997,"velocity":0.5196850393700787},{"duration":0.3284670000000176,"midi":78,"time":141.45978799999997,"velocity":0.5196850393700787},{"duration":0.3284670000000176,"midi":73,"time":141.45978799999997,"velocity":0.5196850393700787},{"duration":0.1094889999999964,"midi":73,"time":142.554678,"velocity":0.5196850393700787},{"duration":0.1094889999999964,"midi":78,"time":142.554678,"velocity":0.5196850393700787},{"duration":0.1094889999999964,"midi":78,"time":142.664167,"velocity":0.5196850393700787},{"duration":0.1094889999999964,"midi":73,"time":142.664167,"velocity":0.5196850393700787},{"duration":0.1094889999999964,"midi":80,"time":142.664167,"velocity":0.5196850393700787},{"duration":0.1094889999999964,"midi":73,"time":142.88314499999998,"velocity":0.5196850393700787},{"duration":0.1094889999999964,"midi":78,"time":142.88314499999998,"velocity":0.5196850393700787},{"duration":0.10948900000002482,"midi":79,"time":143.21161199999997,"velocity":0.5196850393700787},{"duration":0.10948900000002482,"midi":70,"time":143.21161199999997,"velocity":0.5196850393700787},{"duration":0.10948900000002482,"midi":74,"time":143.21161199999997,"velocity":0.5196850393700787},{"duration":0.1094889999999964,"midi":71,"time":144.52548,"velocity":0.5196850393700787},{"duration":0.1094889999999964,"midi":69,"time":144.63496899999998,"velocity":0.5196850393700787},{"duration":0.1094889999999964,"midi":66,"time":144.74445799999998,"velocity":0.5196850393700787},{"duration":0.1094889999999964,"midi":61,"time":144.85394699999998,"velocity":0.5196850393700787},{"duration":0.1094889999999964,"midi":78,"time":146.277304,"velocity":0.5196850393700787},{"duration":0.1094889999999964,"midi":81,"time":146.277304,"velocity":0.5196850393700787},{"duration":0.1094889999999964,"midi":73,"time":146.277304,"velocity":0.5196850393700787},{"duration":0.1094889999999964,"midi":73,"time":146.38679299999998,"velocity":0.5196850393700787},{"duration":0.1094889999999964,"midi":78,"time":146.38679299999998,"velocity":0.5196850393700787},{"duration":0.1094889999999964,"midi":80,"time":146.38679299999998,"velocity":0.5196850393700787},{"duration":0.1094889999999964,"midi":78,"time":146.49628199999998,"velocity":0.5196850393700787},{"duration":0.1094889999999964,"midi":73,"time":146.49628199999998,"velocity":0.5196850393700787},{"duration":0.1094889999999964,"midi":80,"time":146.49628199999998,"velocity":0.5196850393700787},{"duration":0.1094889999999964,"midi":73,"time":146.60577099999998,"velocity":0.5196850393700787},{"duration":0.1094889999999964,"midi":76,"time":146.60577099999998,"velocity":0.5196850393700787},{"duration":0.1094889999999964,"midi":78,"time":146.60577099999998,"velocity":0.5196850393700787},{"duration":0.3284670000000176,"midi":78,"time":146.71525999999997,"velocity":0.5196850393700787},{"duration":0.3284670000000176,"midi":73,"time":146.71525999999997,"velocity":0.5196850393700787},{"duration":0.1094889999999964,"midi":73,"time":149.78095199999998,"velocity":0.5196850393700787},{"duration":0.1094889999999964,"midi":78,"time":149.78095199999998,"velocity":0.5196850393700787},{"duration":0.1094889999999964,"midi":81,"time":149.78095199999998,"velocity":0.5196850393700787},{"duration":0.1094889999999964,"midi":78,"time":149.89044099999998,"velocity":0.5196850393700787},{"duration":0.1094889999999964,"midi":73,"time":149.89044099999998,"velocity":0.5196850393700787},{"duration":0.1094889999999964,"midi":80,"time":149.89044099999998,"velocity":0.5196850393700787},{"duration":0.3284669999999892,"midi":55,"time":150.218908,"velocity":0.5196850393700787},{"duration":0.2189779999999928,"midi":54,"time":150.65686399999998,"velocity":0.5196850393700787},{"duration":0.1094889999999964,"midi":54,"time":151.53277599999998,"velocity":0.5196850393700787},{"duration":0.1094889999999964,"midi":66,"time":151.64226499999998,"velocity":0.5196850393700787},{"duration":0.1094889999999964,"midi":69,"time":151.75175399999998,"velocity":0.5196850393700787},{"duration":0.10948900000002482,"midi":71,"time":151.86124299999997,"velocity":0.5196850393700787},{"duration":0.1094889999999964,"midi":78,"time":155.03642399999998,"velocity":0.5196850393700787},{"duration":0.1094889999999964,"midi":81,"time":155.03642399999998,"velocity":0.5196850393700787},{"duration":0.1094889999999964,"midi":73,"time":155.03642399999998,"velocity":0.5196850393700787},{"duration":0.1094889999999964,"midi":78,"time":155.14591299999998,"velocity":0.5196850393700787},{"duration":0.1094889999999964,"midi":80,"time":155.14591299999998,"velocity":0.5196850393700787},{"duration":0.1094889999999964,"midi":73,"time":155.14591299999998,"velocity":0.5196850393700787},{"duration":0.1094889999999964,"midi":80,"time":155.25540199999998,"velocity":0.5196850393700787},{"duration":0.1094889999999964,"midi":73,"time":155.25540199999998,"velocity":0.5196850393700787},{"duration":0.1094889999999964,"midi":78,"time":155.25540199999998,"velocity":0.5196850393700787},{"duration":0.10948900000002482,"midi":76,"time":155.36489099999997,"velocity":0.5196850393700787},{"duration":0.10948900000002482,"midi":78,"time":155.36489099999997,"velocity":0.5196850393700787},{"duration":0.10948900000002482,"midi":73,"time":155.36489099999997,"velocity":0.5196850393700787},{"duration":0.3284669999999892,"midi":78,"time":155.47438,"velocity":0.5196850393700787},{"duration":0.3284669999999892,"midi":73,"time":155.47438,"velocity":0.5196850393700787},{"duration":0.1094889999999964,"midi":73,"time":157.226204,"velocity":0.5196850393700787},{"duration":0.1094889999999964,"midi":78,"time":157.226204,"velocity":0.5196850393700787},{"duration":0.1094889999999964,"midi":81,"time":157.226204,"velocity":0.5196850393700787},{"duration":0.1094889999999964,"midi":80,"time":157.335693,"velocity":0.5196850393700787},{"duration":0.1094889999999964,"midi":78,"time":157.335693,"velocity":0.5196850393700787},{"duration":0.1094889999999964,"midi":73,"time":157.335693,"velocity":0.5196850393700787},{"duration":0.2189779999999928,"midi":73,"time":157.66415999999998,"velocity":0.5196850393700787},{"duration":0.2189779999999928,"midi":78,"time":157.66415999999998,"velocity":0.5196850393700787},{"duration":0.2189779999999928,"midi":69,"time":157.66415999999998,"velocity":0.5196850393700787},{"duration":0.1094889999999964,"midi":54,"time":158.978028,"velocity":0.5196850393700787},{"duration":0.1094889999999964,"midi":66,"time":159.087517,"velocity":0.5196850393700787},{"duration":0.1094889999999964,"midi":69,"time":159.197006,"velocity":0.5196850393700787},{"duration":0.1094889999999964,"midi":71,"time":159.30649499999998,"velocity":0.5196850393700787},{"duration":0.10948900000002482,"midi":73,"time":159.63496199999997,"velocity":0.5196850393700787},{"duration":0.1094889999999964,"midi":72,"time":159.963429,"velocity":0.5196850393700787},{"duration":0.1094889999999964,"midi":71,"time":160.29189599999998,"velocity":0.5196850393700787},{"duration":0.1094889999999964,"midi":69,"time":160.729852,"velocity":0.5196850393700787},{"duration":0.1094889999999964,"midi":66,"time":161.05831899999998,"velocity":0.5196850393700787},{"duration":0.1094889999999964,"midi":54,"time":162.04371999999998,"velocity":0.5196850393700787},{"duration":0.1094889999999964,"midi":66,"time":162.15320899999998,"velocity":0.5196850393700787},{"duration":0.10948900000002482,"midi":69,"time":162.26269799999997,"velocity":0.5196850393700787},{"duration":0.1094889999999964,"midi":71,"time":162.372187,"velocity":0.5196850393700787},{"duration":0.1094889999999964,"midi":73,"time":163.79554399999998,"velocity":0.5196850393700787},{"duration":0.1094889999999964,"midi":78,"time":163.79554399999998,"velocity":0.5196850393700787},{"duration":0.1094889999999964,"midi":73,"time":163.90503299999997,"velocity":0.5196850393700787},{"duration":0.1094889999999964,"midi":81,"time":163.90503299999997,"velocity":0.5196850393700787},{"duration":0.1094889999999964,"midi":78,"time":163.90503299999997,"velocity":0.5196850393700787},{"duration":0.10948900000002482,"midi":73,"time":164.01452199999997,"velocity":0.5196850393700787},{"duration":0.10948900000002482,"midi":78,"time":164.01452199999997,"velocity":0.5196850393700787},{"duration":0.10948900000002482,"midi":80,"time":164.01452199999997,"velocity":0.5196850393700787},{"duration":0.1094889999999964,"midi":80,"time":164.124011,"velocity":0.5196850393700787},{"duration":0.1094889999999964,"midi":73,"time":164.124011,"velocity":0.5196850393700787},{"duration":0.1094889999999964,"midi":78,"time":164.124011,"velocity":0.5196850393700787},{"duration":0.1094889999999964,"midi":54,"time":168.17510399999998,"velocity":0.5196850393700787},{"duration":0.10948900000002482,"midi":66,"time":168.28459299999997,"velocity":0.5196850393700787},{"duration":0.1094889999999964,"midi":69,"time":168.394082,"velocity":0.5196850393700787},{"duration":0.1094889999999964,"midi":71,"time":168.503571,"velocity":0.5196850393700787},{"duration":0.1094889999999964,"midi":81,"time":168.83203799999998,"velocity":0.5196850393700787},{"duration":0.1094889999999964,"midi":73,"time":168.83203799999998,"velocity":0.5196850393700787},{"duration":0.1094889999999964,"midi":78,"time":168.83203799999998,"velocity":0.5196850393700787},{"duration":0.1094889999999964,"midi":80,"time":168.94152699999998,"velocity":0.5196850393700787},{"duration":0.1094889999999964,"midi":78,"time":168.94152699999998,"velocity":0.5196850393700787},{"duration":0.1094889999999964,"midi":73,"time":168.94152699999998,"velocity":0.5196850393700787},{"duration":0.10948900000002482,"midi":78,"time":169.16050499999997,"velocity":0.5196850393700787},{"duration":0.10948900000002482,"midi":69,"time":169.16050499999997,"velocity":0.5196850393700787},{"duration":0.10948900000002482,"midi":73,"time":169.16050499999997,"velocity":0.5196850393700787},{"duration":0.2189779999999928,"midi":73,"time":169.488972,"velocity":0.5196850393700787},{"duration":0.2189779999999928,"midi":69,"time":169.488972,"velocity":0.5196850393700787},{"duration":0.2189779999999928,"midi":78,"time":169.488972,"velocity":0.5196850393700787},{"duration":0.1094889999999964,"midi":59,"time":170.364884,"velocity":0.5196850393700787},{"duration":0.1094889999999964,"midi":71,"time":170.364884,"velocity":0.5196850393700787},{"duration":0.1094889999999964,"midi":54,"time":170.58386199999998,"velocity":0.5196850393700787},{"duration":0.1094889999999964,"midi":71,"time":172.55466399999997,"velocity":0.5196850393700787},{"duration":0.10948900000002482,"midi":69,"time":172.66415299999997,"velocity":0.5196850393700787},{"duration":0.1094889999999964,"midi":66,"time":172.773642,"velocity":0.5196850393700787},{"duration":0.1094889999999964,"midi":61,"time":172.883131,"velocity":0.5196850393700787},{"duration":0.1094889999999964,"midi":78,"time":174.30648799999997,"velocity":0.5196850393700787},{"duration":0.1094889999999964,"midi":73,"time":174.30648799999997,"velocity":0.5196850393700787},{"duration":0.1094889999999964,"midi":81,"time":174.30648799999997,"velocity":0.5196850393700787},{"duration":0.10948900000002482,"midi":73,"time":174.41597699999997,"velocity":0.5196850393700787},{"duration":0.10948900000002482,"midi":78,"time":174.41597699999997,"velocity":0.5196850393700787},{"duration":0.10948900000002482,"midi":80,"time":174.41597699999997,"velocity":0.5196850393700787},{"duration":0.1094889999999964,"midi":80,"time":174.525466,"velocity":0.5196850393700787},{"duration":0.1094889999999964,"midi":73,"time":174.525466,"velocity":0.5196850393700787},{"duration":0.1094889999999964,"midi":78,"time":174.525466,"velocity":0.5196850393700787},{"duration":0.1094889999999964,"midi":78,"time":174.634955,"velocity":0.5196850393700787},{"duration":0.1094889999999964,"midi":76,"time":174.634955,"velocity":0.5196850393700787},{"duration":0.1094889999999964,"midi":73,"time":174.634955,"velocity":0.5196850393700787},{"duration":0.3284669999999892,"midi":78,"time":174.744444,"velocity":0.5196850393700787},{"duration":0.3284669999999892,"midi":73,"time":174.744444,"velocity":0.5196850393700787},{"duration":0.10948900000002482,"midi":54,"time":177.81013599999997,"velocity":0.5196850393700787},{"duration":0.1094889999999964,"midi":66,"time":177.919625,"velocity":0.5196850393700787},{"duration":0.1094889999999964,"midi":69,"time":178.029114,"velocity":0.5196850393700787},{"duration":0.1094889999999964,"midi":71,"time":178.138603,"velocity":0.5196850393700787},{"duration":0.10948900000002482,"midi":78,"time":179.56195999999997,"velocity":0.5196850393700787},{"duration":0.10948900000002482,"midi":81,"time":179.56195999999997,"velocity":0.5196850393700787},{"duration":0.10948900000002482,"midi":73,"time":179.56195999999997,"velocity":0.5196850393700787},{"duration":0.1094889999999964,"midi":73,"time":179.671449,"velocity":0.5196850393700787},{"duration":0.1094889999999964,"midi":78,"time":179.671449,"velocity":0.5196850393700787},{"duration":0.1094889999999964,"midi":80,"time":179.671449,"velocity":0.5196850393700787},{"duration":0.1094889999999964,"midi":69,"time":179.890427,"velocity":0.5196850393700787},{"duration":0.1094889999999964,"midi":78,"time":179.890427,"velocity":0.5196850393700787},{"duration":0.1094889999999964,"midi":73,"time":179.890427,"velocity":0.5196850393700787},{"duration":0.10948900000002482,"midi":81,"time":182.18969599999997,"velocity":0.5196850393700787},{"duration":0.10948900000002482,"midi":78,"time":182.18969599999997,"velocity":0.5196850393700787},{"duration":0.10948900000002482,"midi":73,"time":182.18969599999997,"velocity":0.5196850393700787},{"duration":0.1094889999999964,"midi":80,"time":182.299185,"velocity":0.5196850393700787},{"duration":0.1094889999999964,"midi":78,"time":182.299185,"velocity":0.5196850393700787},{"duration":0.1094889999999964,"midi":73,"time":182.299185,"velocity":0.5196850393700787},{"duration":0.1094889999999964,"midi":69,"time":182.518163,"velocity":0.5196850393700787},{"duration":0.1094889999999964,"midi":73,"time":182.518163,"velocity":0.5196850393700787},{"duration":0.1094889999999964,"midi":78,"time":182.518163,"velocity":0.5196850393700787},{"duration":0.2189779999999928,"midi":73,"time":183.50356399999998,"velocity":0.5196850393700787},{"duration":0.2189779999999928,"midi":69,"time":183.50356399999998,"velocity":0.5196850393700787},{"duration":0.2189779999999928,"midi":78,"time":183.50356399999998,"velocity":0.5196850393700787},{"duration":0.2189780000000212,"midi":78,"time":185.69334399999997,"velocity":0.5196850393700787},{"duration":0.2189780000000212,"midi":69,"time":185.69334399999997,"velocity":0.5196850393700787},{"duration":0.2189780000000212,"midi":73,"time":185.69334399999997,"velocity":0.5196850393700787},{"duration":0.1094889999999964,"midi":54,"time":187.00721199999998,"velocity":0.5196850393700787},{"duration":0.1094889999999964,"midi":66,"time":187.11670099999998,"velocity":0.5196850393700787},{"duration":0.1094889999999964,"midi":69,"time":187.22618999999997,"velocity":0.5196850393700787},{"duration":0.10948900000002482,"midi":71,"time":187.33567899999997,"velocity":0.5196850393700787},{"duration":0.1094889999999964,"midi":74,"time":187.88312399999998,"velocity":0.5196850393700787},{"duration":0.10948900000002482,"midi":73,"time":188.21159099999997,"velocity":0.5196850393700787},{"duration":0.1094889999999964,"midi":72,"time":188.540058,"velocity":0.5196850393700787},{"duration":0.1094889999999964,"midi":73,"time":190.072904,"velocity":0.5196850393700787},{"duration":0.1094889999999964,"midi":78,"time":190.072904,"velocity":0.5196850393700787},{"duration":0.1094889999999964,"midi":73,"time":190.182393,"velocity":0.5196850393700787},{"duration":0.1094889999999964,"midi":78,"time":190.182393,"velocity":0.5196850393700787},{"duration":0.1094889999999964,"midi":81,"time":190.182393,"velocity":0.5196850393700787},{"duration":0.1094889999999964,"midi":80,"time":190.291882,"velocity":0.5196850393700787},{"duration":0.1094889999999964,"midi":78,"time":190.291882,"velocity":0.5196850393700787},{"duration":0.1094889999999964,"midi":73,"time":190.291882,"velocity":0.5196850393700787},{"duration":0.1094889999999964,"midi":78,"time":190.40137099999998,"velocity":0.5196850393700787},{"duration":0.1094889999999964,"midi":80,"time":190.40137099999998,"velocity":0.5196850393700787},{"duration":0.1094889999999964,"midi":73,"time":190.40137099999998,"velocity":0.5196850393700787},{"duration":0.1094889999999964,"midi":54,"time":191.824728,"velocity":0.5196850393700787},{"duration":0.1094889999999964,"midi":66,"time":191.934217,"velocity":0.5196850393700787},{"duration":0.1094889999999964,"midi":69,"time":192.043706,"velocity":0.5196850393700787},{"duration":0.1094889999999964,"midi":71,"time":192.15319499999998,"velocity":0.5196850393700787}]},{"instrument":{"family":"synth lead","number":87,"name":"lead 8 (bass + lead)"},"notes":[{"duration":1.3138679999999998,"midi":45,"time":0,"velocity":0.3937007874015748},{"duration":1.3138679999999998,"midi":57,"time":0,"velocity":0.3937007874015748},{"duration":1.3138679999999998,"midi":49,"time":0,"velocity":0.3937007874015748},{"duration":1.3138679999999998,"midi":54,"time":0,"velocity":0.3937007874015748},{"duration":0.437956,"midi":57,"time":1.3138679999999998,"velocity":0.3937007874015748},{"duration":0.437956,"midi":45,"time":1.3138679999999998,"velocity":0.3937007874015748},{"duration":0.437956,"midi":49,"time":1.3138679999999998,"velocity":0.3937007874015748},{"duration":0.437956,"midi":54,"time":1.3138679999999998,"velocity":0.3937007874015748},{"duration":1.313868,"midi":53,"time":1.7518239999999998,"velocity":0.3937007874015748},{"duration":1.313868,"midi":49,"time":1.7518239999999998,"velocity":0.3937007874015748},{"duration":1.313868,"midi":44,"time":1.7518239999999998,"velocity":0.3937007874015748},{"duration":1.313868,"midi":56,"time":1.7518239999999998,"velocity":0.3937007874015748},{"duration":0.4379559999999998,"midi":56,"time":3.065692,"velocity":0.3937007874015748},{"duration":0.4379559999999998,"midi":44,"time":3.065692,"velocity":0.3937007874015748},{"duration":0.4379559999999998,"midi":53,"time":3.065692,"velocity":0.3937007874015748},{"duration":0.4379559999999998,"midi":49,"time":3.065692,"velocity":0.3937007874015748},{"duration":1.3138679999999998,"midi":57,"time":3.5036479999999997,"velocity":0.3937007874015748},{"duration":1.3138679999999998,"midi":50,"time":3.5036479999999997,"velocity":0.3937007874015748},{"duration":1.3138679999999998,"midi":45,"time":3.5036479999999997,"velocity":0.3937007874015748},{"duration":1.3138679999999998,"midi":54,"time":3.5036479999999997,"velocity":0.3937007874015748},{"duration":0.4379559999999998,"midi":54,"time":4.8175159999999995,"velocity":0.3937007874015748},{"duration":0.4379559999999998,"midi":45,"time":4.8175159999999995,"velocity":0.3937007874015748},{"duration":0.4379559999999998,"midi":57,"time":4.8175159999999995,"velocity":0.3937007874015748},{"duration":0.4379559999999998,"midi":50,"time":4.8175159999999995,"velocity":0.3937007874015748},{"duration":1.3138680000000003,"midi":44,"time":5.255471999999999,"velocity":0.3937007874015748},{"duration":1.3138680000000003,"midi":56,"time":5.255471999999999,"velocity":0.3937007874015748},{"duration":1.3138680000000003,"midi":49,"time":5.255471999999999,"velocity":0.3937007874015748},{"duration":1.3138680000000003,"midi":53,"time":5.255471999999999,"velocity":0.3937007874015748},{"duration":0.4379559999999998,"midi":53,"time":6.5693399999999995,"velocity":0.3937007874015748},{"duration":0.4379559999999998,"midi":49,"time":6.5693399999999995,"velocity":0.3937007874015748},{"duration":0.4379559999999998,"midi":56,"time":6.5693399999999995,"velocity":0.3937007874015748},{"duration":0.4379559999999998,"midi":44,"time":6.5693399999999995,"velocity":0.3937007874015748},{"duration":1.3138680000000003,"midi":54,"time":7.007295999999999,"velocity":0.3937007874015748},{"duration":1.3138680000000003,"midi":45,"time":7.007295999999999,"velocity":0.3937007874015748},{"duration":1.3138680000000003,"midi":49,"time":7.007295999999999,"velocity":0.3937007874015748},{"duration":1.3138680000000003,"midi":57,"time":7.007295999999999,"velocity":0.3937007874015748},{"duration":0.4379559999999998,"midi":57,"time":8.321164,"velocity":0.3937007874015748},{"duration":0.4379559999999998,"midi":54,"time":8.321164,"velocity":0.3937007874015748},{"duration":0.4379559999999998,"midi":45,"time":8.321164,"velocity":0.3937007874015748},{"duration":0.4379559999999998,"midi":49,"time":8.321164,"velocity":0.3937007874015748},{"duration":1.3138679999999994,"midi":56,"time":8.75912,"velocity":0.3937007874015748},{"duration":1.3138679999999994,"midi":44,"time":8.75912,"velocity":0.3937007874015748},{"duration":1.3138679999999994,"midi":49,"time":8.75912,"velocity":0.3937007874015748},{"duration":1.3138679999999994,"midi":53,"time":8.75912,"velocity":0.3937007874015748},{"duration":0.4379559999999998,"midi":49,"time":10.072987999999999,"velocity":0.3937007874015748},{"duration":0.4379559999999998,"midi":44,"time":10.072987999999999,"velocity":0.3937007874015748},{"duration":0.4379559999999998,"midi":56,"time":10.072987999999999,"velocity":0.3937007874015748},{"duration":0.4379559999999998,"midi":53,"time":10.072987999999999,"velocity":0.3937007874015748},{"duration":1.3138680000000011,"midi":57,"time":10.510943999999999,"velocity":0.3937007874015748},{"duration":1.3138680000000011,"midi":54,"time":10.510943999999999,"velocity":0.3937007874015748},{"duration":1.3138680000000011,"midi":50,"time":10.510943999999999,"velocity":0.3937007874015748},{"duration":1.3138680000000011,"midi":45,"time":10.510943999999999,"velocity":0.3937007874015748},{"duration":0.4379559999999998,"midi":50,"time":11.824812,"velocity":0.3937007874015748},{"duration":0.4379559999999998,"midi":57,"time":11.824812,"velocity":0.3937007874015748},{"duration":0.4379559999999998,"midi":45,"time":11.824812,"velocity":0.3937007874015748},{"duration":0.4379559999999998,"midi":54,"time":11.824812,"velocity":0.3937007874015748},{"duration":1.3138679999999994,"midi":56,"time":12.262768,"velocity":0.3937007874015748},{"duration":1.3138679999999994,"midi":53,"time":12.262768,"velocity":0.3937007874015748},{"duration":1.3138679999999994,"midi":49,"time":12.262768,"velocity":0.3937007874015748},{"duration":1.3138679999999994,"midi":44,"time":12.262768,"velocity":0.3937007874015748},{"duration":0.4379559999999998,"midi":44,"time":13.576635999999999,"velocity":0.3937007874015748},{"duration":0.4379559999999998,"midi":56,"time":13.576635999999999,"velocity":0.3937007874015748},{"duration":0.4379559999999998,"midi":49,"time":13.576635999999999,"velocity":0.3937007874015748},{"duration":0.4379559999999998,"midi":53,"time":13.576635999999999,"velocity":0.3937007874015748},{"duration":1.3138679999999994,"midi":57,"time":14.014591999999999,"velocity":0.3937007874015748},{"duration":1.3138679999999994,"midi":45,"time":14.014591999999999,"velocity":0.3937007874015748},{"duration":1.3138679999999994,"midi":49,"time":14.014591999999999,"velocity":0.3937007874015748},{"duration":1.3138679999999994,"midi":54,"time":14.014591999999999,"velocity":0.3937007874015748},{"duration":0.4379559999999998,"midi":54,"time":15.328459999999998,"velocity":0.3937007874015748},{"duration":0.4379559999999998,"midi":49,"time":15.328459999999998,"velocity":0.3937007874015748},{"duration":0.4379559999999998,"midi":45,"time":15.328459999999998,"velocity":0.3937007874015748},{"duration":0.4379559999999998,"midi":57,"time":15.328459999999998,"velocity":0.3937007874015748},{"duration":1.3138680000000011,"midi":53,"time":15.766415999999998,"velocity":0.3937007874015748},{"duration":1.3138680000000011,"midi":44,"time":15.766415999999998,"velocity":0.3937007874015748},{"duration":1.3138680000000011,"midi":56,"time":15.766415999999998,"velocity":0.3937007874015748},{"duration":1.3138680000000011,"midi":49,"time":15.766415999999998,"velocity":0.3937007874015748},{"duration":0.4379559999999998,"midi":53,"time":17.080284,"velocity":0.3937007874015748},{"duration":0.4379559999999998,"midi":56,"time":17.080284,"velocity":0.3937007874015748},{"duration":0.4379559999999998,"midi":49,"time":17.080284,"velocity":0.3937007874015748},{"duration":0.4379559999999998,"midi":44,"time":17.080284,"velocity":0.3937007874015748},{"duration":1.3138679999999994,"midi":54,"time":17.51824,"velocity":0.3937007874015748},{"duration":1.3138679999999994,"midi":45,"time":17.51824,"velocity":0.3937007874015748},{"duration":1.3138679999999994,"midi":50,"time":17.51824,"velocity":0.3937007874015748},{"duration":1.3138679999999994,"midi":57,"time":17.51824,"velocity":0.3937007874015748},{"duration":0.4379559999999998,"midi":54,"time":18.832107999999998,"velocity":0.3937007874015748},{"duration":0.4379559999999998,"midi":50,"time":18.832107999999998,"velocity":0.3937007874015748},{"duration":0.4379559999999998,"midi":45,"time":18.832107999999998,"velocity":0.3937007874015748},{"duration":0.4379559999999998,"midi":57,"time":18.832107999999998,"velocity":0.3937007874015748},{"duration":1.3138679999999994,"midi":49,"time":19.270063999999998,"velocity":0.3937007874015748},{"duration":1.3138679999999994,"midi":56,"time":19.270063999999998,"velocity":0.3937007874015748},{"duration":1.3138679999999994,"midi":44,"time":19.270063999999998,"velocity":0.3937007874015748},{"duration":1.3138679999999994,"midi":53,"time":19.270063999999998,"velocity":0.3937007874015748},{"duration":0.4379559999999998,"midi":53,"time":20.583931999999997,"velocity":0.3937007874015748},{"duration":0.4379559999999998,"midi":56,"time":20.583931999999997,"velocity":0.3937007874015748},{"duration":0.4379559999999998,"midi":44,"time":20.583931999999997,"velocity":0.3937007874015748},{"duration":0.4379559999999998,"midi":49,"time":20.583931999999997,"velocity":0.3937007874015748},{"duration":1.3138679999999994,"midi":49,"time":21.021887999999997,"velocity":0.3937007874015748},{"duration":1.3138679999999994,"midi":54,"time":21.021887999999997,"velocity":0.3937007874015748},{"duration":1.3138679999999994,"midi":45,"time":21.021887999999997,"velocity":0.3937007874015748},{"duration":1.3138679999999994,"midi":57,"time":21.021887999999997,"velocity":0.3937007874015748},{"duration":0.4379559999999998,"midi":49,"time":22.335755999999996,"velocity":0.3937007874015748},{"duration":0.4379559999999998,"midi":45,"time":22.335755999999996,"velocity":0.3937007874015748},{"duration":0.4379559999999998,"midi":57,"time":22.335755999999996,"velocity":0.3937007874015748},{"duration":0.4379559999999998,"midi":54,"time":22.335755999999996,"velocity":0.3937007874015748},{"duration":1.313868000000003,"midi":56,"time":22.773711999999996,"velocity":0.3937007874015748},{"duration":1.313868000000003,"midi":44,"time":22.773711999999996,"velocity":0.3937007874015748},{"duration":1.313868000000003,"midi":49,"time":22.773711999999996,"velocity":0.3937007874015748},{"duration":1.313868000000003,"midi":53,"time":22.773711999999996,"velocity":0.3937007874015748},{"duration":0.4379559999999998,"midi":44,"time":24.08758,"velocity":0.3937007874015748},{"duration":0.4379559999999998,"midi":56,"time":24.08758,"velocity":0.3937007874015748},{"duration":0.4379559999999998,"midi":53,"time":24.08758,"velocity":0.3937007874015748},{"duration":0.4379559999999998,"midi":49,"time":24.08758,"velocity":0.3937007874015748},{"duration":1.3138679999999994,"midi":45,"time":24.525536,"velocity":0.3937007874015748},{"duration":1.3138679999999994,"midi":50,"time":24.525536,"velocity":0.3937007874015748},{"duration":1.3138679999999994,"midi":54,"time":24.525536,"velocity":0.3937007874015748},{"duration":1.3138679999999994,"midi":57,"time":24.525536,"velocity":0.3937007874015748},{"duration":0.4379559999999998,"midi":50,"time":25.839404,"velocity":0.3937007874015748},{"duration":0.4379559999999998,"midi":45,"time":25.839404,"velocity":0.3937007874015748},{"duration":0.4379559999999998,"midi":57,"time":25.839404,"velocity":0.3937007874015748},{"duration":0.4379559999999998,"midi":54,"time":25.839404,"velocity":0.3937007874015748},{"duration":1.3138679999999994,"midi":44,"time":26.277359999999998,"velocity":0.3937007874015748},{"duration":1.3138679999999994,"midi":56,"time":26.277359999999998,"velocity":0.3937007874015748},{"duration":1.3138679999999994,"midi":49,"time":26.277359999999998,"velocity":0.3937007874015748},{"duration":1.3138679999999994,"midi":53,"time":26.277359999999998,"velocity":0.3937007874015748},{"duration":0.4379559999999998,"midi":56,"time":27.591227999999997,"velocity":0.3937007874015748},{"duration":0.4379559999999998,"midi":49,"time":27.591227999999997,"velocity":0.3937007874015748},{"duration":0.4379559999999998,"midi":53,"time":27.591227999999997,"velocity":0.3937007874015748},{"duration":0.4379559999999998,"midi":44,"time":27.591227999999997,"velocity":0.3937007874015748},{"duration":1.3138679999999994,"midi":57,"time":98.102144,"velocity":0.3937007874015748},{"duration":1.3138679999999994,"midi":45,"time":98.102144,"velocity":0.3937007874015748},{"duration":1.3138679999999994,"midi":49,"time":98.102144,"velocity":0.3937007874015748},{"duration":1.3138679999999994,"midi":54,"time":98.102144,"velocity":0.3937007874015748},{"duration":0.4379559999999998,"midi":45,"time":99.416012,"velocity":0.3937007874015748},{"duration":0.4379559999999998,"midi":57,"time":99.416012,"velocity":0.3937007874015748},{"duration":0.4379559999999998,"midi":49,"time":99.416012,"velocity":0.3937007874015748},{"duration":0.4379559999999998,"midi":54,"time":99.416012,"velocity":0.3937007874015748},{"duration":1.3138679999999994,"midi":53,"time":99.853968,"velocity":0.3937007874015748},{"duration":1.3138679999999994,"midi":44,"time":99.853968,"velocity":0.3937007874015748},{"duration":1.3138679999999994,"midi":56,"time":99.853968,"velocity":0.3937007874015748},{"duration":1.3138679999999994,"midi":49,"time":99.853968,"velocity":0.3937007874015748},{"duration":0.4379559999999998,"midi":56,"time":101.167836,"velocity":0.3937007874015748},{"duration":0.4379559999999998,"midi":53,"time":101.167836,"velocity":0.3937007874015748},{"duration":0.4379559999999998,"midi":49,"time":101.167836,"velocity":0.3937007874015748},{"duration":0.4379559999999998,"midi":44,"time":101.167836,"velocity":0.3937007874015748},{"duration":1.3138679999999994,"midi":45,"time":101.605792,"velocity":0.3937007874015748},{"duration":1.3138679999999994,"midi":57,"time":101.605792,"velocity":0.3937007874015748},{"duration":1.3138679999999994,"midi":54,"time":101.605792,"velocity":0.3937007874015748},{"duration":1.3138679999999994,"midi":50,"time":101.605792,"velocity":0.3937007874015748},{"duration":0.4379559999999998,"midi":50,"time":102.91966,"velocity":0.3937007874015748},{"duration":0.4379559999999998,"midi":45,"time":102.91966,"velocity":0.3937007874015748},{"duration":0.4379559999999998,"midi":57,"time":102.91966,"velocity":0.3937007874015748},{"duration":0.4379559999999998,"midi":54,"time":102.91966,"velocity":0.3937007874015748},{"duration":1.3138679999999994,"midi":61,"time":103.357616,"velocity":0.3937007874015748},{"duration":1.3138679999999994,"midi":56,"time":103.357616,"velocity":0.3937007874015748},{"duration":1.3138679999999994,"midi":53,"time":103.357616,"velocity":0.3937007874015748},{"duration":1.3138679999999994,"midi":65,"time":103.357616,"velocity":0.3937007874015748},{"duration":0.4379559999999998,"midi":65,"time":104.67148399999999,"velocity":0.3937007874015748},{"duration":0.4379559999999998,"midi":53,"time":104.67148399999999,"velocity":0.3937007874015748},{"duration":0.4379559999999998,"midi":61,"time":104.67148399999999,"velocity":0.3937007874015748},{"duration":0.4379559999999998,"midi":56,"time":104.67148399999999,"velocity":0.3937007874015748},{"duration":1.3138679999999994,"midi":57,"time":105.10943999999999,"velocity":0.3937007874015748},{"duration":1.3138679999999994,"midi":54,"time":105.10943999999999,"velocity":0.3937007874015748},{"duration":1.3138679999999994,"midi":45,"time":105.10943999999999,"velocity":0.3937007874015748},{"duration":1.3138679999999994,"midi":49,"time":105.10943999999999,"velocity":0.3937007874015748},{"duration":0.4379559999999998,"midi":54,"time":106.42330799999999,"velocity":0.3937007874015748},{"duration":0.4379559999999998,"midi":49,"time":106.42330799999999,"velocity":0.3937007874015748},{"duration":0.4379559999999998,"midi":45,"time":106.42330799999999,"velocity":0.3937007874015748},{"duration":0.4379559999999998,"midi":57,"time":106.42330799999999,"velocity":0.3937007874015748},{"duration":1.3138679999999994,"midi":49,"time":106.86126399999999,"velocity":0.3937007874015748},{"duration":1.3138679999999994,"midi":56,"time":106.86126399999999,"velocity":0.3937007874015748},{"duration":1.3138679999999994,"midi":53,"time":106.86126399999999,"velocity":0.3937007874015748},{"duration":1.3138679999999994,"midi":44,"time":106.86126399999999,"velocity":0.3937007874015748},{"duration":0.4379559999999998,"midi":49,"time":108.17513199999999,"velocity":0.3937007874015748},{"duration":0.4379559999999998,"midi":44,"time":108.17513199999999,"velocity":0.3937007874015748},{"duration":0.4379559999999998,"midi":56,"time":108.17513199999999,"velocity":0.3937007874015748},{"duration":0.4379559999999998,"midi":53,"time":108.17513199999999,"velocity":0.3937007874015748},{"duration":1.3138679999999994,"midi":57,"time":108.61308799999999,"velocity":0.3937007874015748},{"duration":1.3138679999999994,"midi":50,"time":108.61308799999999,"velocity":0.3937007874015748},{"duration":1.3138679999999994,"midi":54,"time":108.61308799999999,"velocity":0.3937007874015748},{"duration":1.3138679999999994,"midi":45,"time":108.61308799999999,"velocity":0.3937007874015748},{"duration":0.4379559999999998,"midi":50,"time":109.92695599999999,"velocity":0.3937007874015748},{"duration":0.4379559999999998,"midi":54,"time":109.92695599999999,"velocity":0.3937007874015748},{"duration":0.4379559999999998,"midi":57,"time":109.92695599999999,"velocity":0.3937007874015748},{"duration":0.4379559999999998,"midi":45,"time":109.92695599999999,"velocity":0.3937007874015748},{"duration":1.3138679999999994,"midi":53,"time":110.36491199999999,"velocity":0.3937007874015748},{"duration":1.3138679999999994,"midi":56,"time":110.36491199999999,"velocity":0.3937007874015748},{"duration":1.3138679999999994,"midi":65,"time":110.36491199999999,"velocity":0.3937007874015748},{"duration":1.3138679999999994,"midi":61,"time":110.36491199999999,"velocity":0.3937007874015748},{"duration":0.4379559999999998,"midi":53,"time":111.67877999999999,"velocity":0.3937007874015748},{"duration":0.4379559999999998,"midi":56,"time":111.67877999999999,"velocity":0.3937007874015748},{"duration":0.4379559999999998,"midi":61,"time":111.67877999999999,"velocity":0.3937007874015748},{"duration":0.4379559999999998,"midi":65,"time":111.67877999999999,"velocity":0.3937007874015748},{"duration":1.3138679999999994,"midi":45,"time":112.11673599999999,"velocity":0.3937007874015748},{"duration":1.3138679999999994,"midi":57,"time":112.11673599999999,"velocity":0.3937007874015748},{"duration":1.3138679999999994,"midi":49,"time":112.11673599999999,"velocity":0.3937007874015748},{"duration":1.3138679999999994,"midi":54,"time":112.11673599999999,"velocity":0.3937007874015748},{"duration":0.4379559999999998,"midi":57,"time":113.43060399999999,"velocity":0.3937007874015748},{"duration":0.4379559999999998,"midi":45,"time":113.43060399999999,"velocity":0.3937007874015748},{"duration":0.4379559999999998,"midi":49,"time":113.43060399999999,"velocity":0.3937007874015748},{"duration":0.4379559999999998,"midi":54,"time":113.43060399999999,"velocity":0.3937007874015748},{"duration":1.3138679999999994,"midi":53,"time":113.86855999999999,"velocity":0.3937007874015748},{"duration":1.3138679999999994,"midi":49,"time":113.86855999999999,"velocity":0.3937007874015748},{"duration":1.3138679999999994,"midi":44,"time":113.86855999999999,"velocity":0.3937007874015748},{"duration":1.3138679999999994,"midi":56,"time":113.86855999999999,"velocity":0.3937007874015748},{"duration":0.4379559999999998,"midi":44,"time":115.18242799999999,"velocity":0.3937007874015748},{"duration":0.4379559999999998,"midi":49,"time":115.18242799999999,"velocity":0.3937007874015748},{"duration":0.4379559999999998,"midi":53,"time":115.18242799999999,"velocity":0.3937007874015748},{"duration":0.4379559999999998,"midi":56,"time":115.18242799999999,"velocity":0.3937007874015748},{"duration":1.3138679999999994,"midi":54,"time":115.62038399999999,"velocity":0.3937007874015748},{"duration":1.3138679999999994,"midi":45,"time":115.62038399999999,"velocity":0.3937007874015748},{"duration":1.3138679999999994,"midi":57,"time":115.62038399999999,"velocity":0.3937007874015748},{"duration":1.3138679999999994,"midi":50,"time":115.62038399999999,"velocity":0.3937007874015748},{"duration":0.4379559999999998,"midi":54,"time":116.93425199999999,"velocity":0.3937007874015748},{"duration":0.4379559999999998,"midi":45,"time":116.93425199999999,"velocity":0.3937007874015748},{"duration":0.4379559999999998,"midi":57,"time":116.93425199999999,"velocity":0.3937007874015748},{"duration":0.4379559999999998,"midi":50,"time":116.93425199999999,"velocity":0.3937007874015748},{"duration":1.3138679999999994,"midi":53,"time":117.37220799999999,"velocity":0.3937007874015748},{"duration":1.3138679999999994,"midi":65,"time":117.37220799999999,"velocity":0.3937007874015748},{"duration":1.3138679999999994,"midi":61,"time":117.37220799999999,"velocity":0.3937007874015748},{"duration":1.3138679999999994,"midi":56,"time":117.37220799999999,"velocity":0.3937007874015748},{"duration":0.4379559999999998,"midi":65,"time":118.68607599999999,"velocity":0.3937007874015748},{"duration":0.4379559999999998,"midi":61,"time":118.68607599999999,"velocity":0.3937007874015748},{"duration":0.4379559999999998,"midi":56,"time":118.68607599999999,"velocity":0.3937007874015748},{"duration":0.4379559999999998,"midi":53,"time":118.68607599999999,"velocity":0.3937007874015748},{"duration":1.3138679999999994,"midi":54,"time":119.12403199999999,"velocity":0.3937007874015748},{"duration":1.3138679999999994,"midi":49,"time":119.12403199999999,"velocity":0.3937007874015748},{"duration":1.3138679999999994,"midi":45,"time":119.12403199999999,"velocity":0.3937007874015748},{"duration":1.3138679999999994,"midi":57,"time":119.12403199999999,"velocity":0.3937007874015748},{"duration":0.4379559999999998,"midi":57,"time":120.43789999999998,"velocity":0.3937007874015748},{"duration":0.4379559999999998,"midi":45,"time":120.43789999999998,"velocity":0.3937007874015748},{"duration":0.4379559999999998,"midi":49,"time":120.43789999999998,"velocity":0.3937007874015748},{"duration":0.4379559999999998,"midi":54,"time":120.43789999999998,"velocity":0.3937007874015748},{"duration":1.3138679999999994,"midi":49,"time":120.87585599999998,"velocity":0.3937007874015748},{"duration":1.3138679999999994,"midi":44,"time":120.87585599999998,"velocity":0.3937007874015748},{"duration":1.3138679999999994,"midi":56,"time":120.87585599999998,"velocity":0.3937007874015748},{"duration":1.3138679999999994,"midi":53,"time":120.87585599999998,"velocity":0.3937007874015748},{"duration":0.4379559999999998,"midi":56,"time":122.18972399999998,"velocity":0.3937007874015748},{"duration":0.4379559999999998,"midi":53,"time":122.18972399999998,"velocity":0.3937007874015748},{"duration":0.4379559999999998,"midi":49,"time":122.18972399999998,"velocity":0.3937007874015748},{"duration":0.4379559999999998,"midi":44,"time":122.18972399999998,"velocity":0.3937007874015748},{"duration":1.3138679999999994,"midi":54,"time":122.62767999999998,"velocity":0.3937007874015748},{"duration":1.3138679999999994,"midi":45,"time":122.62767999999998,"velocity":0.3937007874015748},{"duration":1.3138679999999994,"midi":57,"time":122.62767999999998,"velocity":0.3937007874015748},{"duration":1.3138679999999994,"midi":50,"time":122.62767999999998,"velocity":0.3937007874015748},{"duration":0.4379559999999998,"midi":57,"time":123.94154799999998,"velocity":0.3937007874015748},{"duration":0.4379559999999998,"midi":50,"time":123.94154799999998,"velocity":0.3937007874015748},{"duration":0.4379559999999998,"midi":54,"time":123.94154799999998,"velocity":0.3937007874015748},{"duration":0.4379559999999998,"midi":45,"time":123.94154799999998,"velocity":0.3937007874015748},{"duration":1.3138679999999994,"midi":65,"time":124.37950399999998,"velocity":0.3937007874015748},{"duration":1.3138679999999994,"midi":61,"time":124.37950399999998,"velocity":0.3937007874015748},{"duration":1.3138679999999994,"midi":56,"time":124.37950399999998,"velocity":0.3937007874015748},{"duration":1.3138679999999994,"midi":53,"time":124.37950399999998,"velocity":0.3937007874015748},{"duration":0.4379559999999998,"midi":61,"time":125.69337199999998,"velocity":0.3937007874015748},{"duration":0.4379559999999998,"midi":65,"time":125.69337199999998,"velocity":0.3937007874015748},{"duration":0.4379559999999998,"midi":53,"time":125.69337199999998,"velocity":0.3937007874015748},{"duration":0.4379559999999998,"midi":56,"time":125.69337199999998,"velocity":0.3937007874015748},{"duration":1.3138679999999852,"midi":54,"time":196.204288,"velocity":0.3937007874015748},{"duration":1.3138679999999852,"midi":49,"time":196.204288,"velocity":0.3937007874015748},{"duration":1.3138679999999852,"midi":45,"time":196.204288,"velocity":0.3937007874015748},{"duration":1.3138679999999852,"midi":57,"time":196.204288,"velocity":0.3937007874015748},{"duration":0.437956000000014,"midi":57,"time":197.51815599999998,"velocity":0.3937007874015748},{"duration":0.437956000000014,"midi":49,"time":197.51815599999998,"velocity":0.3937007874015748},{"duration":0.437956000000014,"midi":54,"time":197.51815599999998,"velocity":0.3937007874015748},{"duration":0.437956000000014,"midi":45,"time":197.51815599999998,"velocity":0.3937007874015748},{"duration":1.3138679999999852,"midi":44,"time":197.956112,"velocity":0.3937007874015748},{"duration":1.3138679999999852,"midi":53,"time":197.956112,"velocity":0.3937007874015748},{"duration":1.3138679999999852,"midi":56,"time":197.956112,"velocity":0.3937007874015748},{"duration":1.3138679999999852,"midi":49,"time":197.956112,"velocity":0.3937007874015748},{"duration":0.437956000000014,"midi":49,"time":199.26997999999998,"velocity":0.3937007874015748},{"duration":0.437956000000014,"midi":53,"time":199.26997999999998,"velocity":0.3937007874015748},{"duration":0.437956000000014,"midi":56,"time":199.26997999999998,"velocity":0.3937007874015748},{"duration":0.437956000000014,"midi":44,"time":199.26997999999998,"velocity":0.3937007874015748},{"duration":1.3138679999999852,"midi":57,"time":199.707936,"velocity":0.3937007874015748},{"duration":1.3138679999999852,"midi":45,"time":199.707936,"velocity":0.3937007874015748},{"duration":1.3138679999999852,"midi":50,"time":199.707936,"velocity":0.3937007874015748},{"duration":1.3138679999999852,"midi":54,"time":199.707936,"velocity":0.3937007874015748},{"duration":0.437956000000014,"midi":54,"time":201.02180399999997,"velocity":0.3937007874015748},{"duration":0.437956000000014,"midi":57,"time":201.02180399999997,"velocity":0.3937007874015748},{"duration":0.437956000000014,"midi":45,"time":201.02180399999997,"velocity":0.3937007874015748},{"duration":0.437956000000014,"midi":50,"time":201.02180399999997,"velocity":0.3937007874015748},{"duration":1.3138679999999852,"midi":53,"time":201.45976,"velocity":0.3937007874015748},{"duration":1.3138679999999852,"midi":65,"time":201.45976,"velocity":0.3937007874015748},{"duration":1.3138679999999852,"midi":61,"time":201.45976,"velocity":0.3937007874015748},{"duration":1.3138679999999852,"midi":56,"time":201.45976,"velocity":0.3937007874015748},{"duration":0.437956000000014,"midi":53,"time":202.77362799999997,"velocity":0.3937007874015748},{"duration":0.437956000000014,"midi":56,"time":202.77362799999997,"velocity":0.3937007874015748},{"duration":0.437956000000014,"midi":61,"time":202.77362799999997,"velocity":0.3937007874015748},{"duration":0.437956000000014,"midi":65,"time":202.77362799999997,"velocity":0.3937007874015748},{"duration":1.3138679999999852,"midi":57,"time":203.211584,"velocity":0.3937007874015748},{"duration":1.3138679999999852,"midi":45,"time":203.211584,"velocity":0.3937007874015748},{"duration":1.3138679999999852,"midi":49,"time":203.211584,"velocity":0.3937007874015748},{"duration":1.3138679999999852,"midi":54,"time":203.211584,"velocity":0.3937007874015748},{"duration":0.437956000000014,"midi":49,"time":204.52545199999997,"velocity":0.3937007874015748},{"duration":0.437956000000014,"midi":45,"time":204.52545199999997,"velocity":0.3937007874015748},{"duration":0.437956000000014,"midi":57,"time":204.52545199999997,"velocity":0.3937007874015748},{"duration":0.437956000000014,"midi":54,"time":204.52545199999997,"velocity":0.3937007874015748},{"duration":1.3138679999999852,"midi":53,"time":204.963408,"velocity":0.3937007874015748},{"duration":1.3138679999999852,"midi":49,"time":204.963408,"velocity":0.3937007874015748},{"duration":1.3138679999999852,"midi":44,"time":204.963408,"velocity":0.3937007874015748},{"duration":1.3138679999999852,"midi":56,"time":204.963408,"velocity":0.3937007874015748},{"duration":0.437956000000014,"midi":49,"time":206.27727599999997,"velocity":0.3937007874015748},{"duration":0.437956000000014,"midi":56,"time":206.27727599999997,"velocity":0.3937007874015748},{"duration":0.437956000000014,"midi":44,"time":206.27727599999997,"velocity":0.3937007874015748},{"duration":0.437956000000014,"midi":53,"time":206.27727599999997,"velocity":0.3937007874015748},{"duration":1.3138679999999852,"midi":54,"time":206.715232,"velocity":0.3937007874015748},{"duration":1.3138679999999852,"midi":45,"time":206.715232,"velocity":0.3937007874015748},{"duration":1.3138679999999852,"midi":50,"time":206.715232,"velocity":0.3937007874015748},{"duration":1.3138679999999852,"midi":57,"time":206.715232,"velocity":0.3937007874015748},{"duration":0.437956000000014,"midi":45,"time":208.02909999999997,"velocity":0.3937007874015748},{"duration":0.437956000000014,"midi":57,"time":208.02909999999997,"velocity":0.3937007874015748},{"duration":0.437956000000014,"midi":54,"time":208.02909999999997,"velocity":0.3937007874015748},{"duration":0.437956000000014,"midi":50,"time":208.02909999999997,"velocity":0.3937007874015748},{"duration":1.3138679999999852,"midi":56,"time":208.46705599999999,"velocity":0.3937007874015748},{"duration":1.3138679999999852,"midi":53,"time":208.46705599999999,"velocity":0.3937007874015748},{"duration":1.3138679999999852,"midi":61,"time":208.46705599999999,"velocity":0.3937007874015748},{"duration":1.3138679999999852,"midi":65,"time":208.46705599999999,"velocity":0.3937007874015748},{"duration":0.437956000000014,"midi":61,"time":209.78092399999997,"velocity":0.3937007874015748},{"duration":0.437956000000014,"midi":65,"time":209.78092399999997,"velocity":0.3937007874015748},{"duration":0.437956000000014,"midi":56,"time":209.78092399999997,"velocity":0.3937007874015748},{"duration":0.437956000000014,"midi":53,"time":209.78092399999997,"velocity":0.3937007874015748},{"duration":1.3138679999999852,"midi":57,"time":210.21887999999998,"velocity":0.3937007874015748},{"duration":1.3138679999999852,"midi":54,"time":210.21887999999998,"velocity":0.3937007874015748},{"duration":1.3138679999999852,"midi":49,"time":210.21887999999998,"velocity":0.3937007874015748},{"duration":1.3138679999999852,"midi":45,"time":210.21887999999998,"velocity":0.3937007874015748},{"duration":0.437956000000014,"midi":54,"time":211.53274799999997,"velocity":0.3937007874015748},{"duration":0.437956000000014,"midi":45,"time":211.53274799999997,"velocity":0.3937007874015748},{"duration":0.437956000000014,"midi":57,"time":211.53274799999997,"velocity":0.3937007874015748},{"duration":0.437956000000014,"midi":49,"time":211.53274799999997,"velocity":0.3937007874015748},{"duration":1.3138679999999852,"midi":49,"time":211.97070399999998,"velocity":0.3937007874015748},{"duration":1.3138679999999852,"midi":53,"time":211.97070399999998,"velocity":0.3937007874015748},{"duration":1.3138679999999852,"midi":44,"time":211.97070399999998,"velocity":0.3937007874015748},{"duration":1.3138679999999852,"midi":56,"time":211.97070399999998,"velocity":0.3937007874015748},{"duration":0.437956000000014,"midi":53,"time":213.28457199999997,"velocity":0.3937007874015748},{"duration":0.437956000000014,"midi":49,"time":213.28457199999997,"velocity":0.3937007874015748},{"duration":0.437956000000014,"midi":56,"time":213.28457199999997,"velocity":0.3937007874015748},{"duration":0.437956000000014,"midi":44,"time":213.28457199999997,"velocity":0.3937007874015748},{"duration":1.3138679999999852,"midi":57,"time":213.72252799999998,"velocity":0.3937007874015748},{"duration":1.3138679999999852,"midi":45,"time":213.72252799999998,"velocity":0.3937007874015748},{"duration":1.3138679999999852,"midi":50,"time":213.72252799999998,"velocity":0.3937007874015748},{"duration":1.3138679999999852,"midi":54,"time":213.72252799999998,"velocity":0.3937007874015748},{"duration":0.437956000000014,"midi":57,"time":215.03639599999997,"velocity":0.3937007874015748},{"duration":0.437956000000014,"midi":50,"time":215.03639599999997,"velocity":0.3937007874015748},{"duration":0.437956000000014,"midi":45,"time":215.03639599999997,"velocity":0.3937007874015748},{"duration":0.437956000000014,"midi":54,"time":215.03639599999997,"velocity":0.3937007874015748},{"duration":1.3138679999999852,"midi":65,"time":215.47435199999998,"velocity":0.3937007874015748},{"duration":1.3138679999999852,"midi":53,"time":215.47435199999998,"velocity":0.3937007874015748},{"duration":1.3138679999999852,"midi":56,"time":215.47435199999998,"velocity":0.3937007874015748},{"duration":1.3138679999999852,"midi":61,"time":215.47435199999998,"velocity":0.3937007874015748},{"duration":0.437956000000014,"midi":65,"time":216.78821999999997,"velocity":0.3937007874015748},{"duration":0.437956000000014,"midi":53,"time":216.78821999999997,"velocity":0.3937007874015748},{"duration":0.437956000000014,"midi":61,"time":216.78821999999997,"velocity":0.3937007874015748},{"duration":0.437956000000014,"midi":56,"time":216.78821999999997,"velocity":0.3937007874015748},{"duration":1.3138679999999852,"midi":54,"time":217.22617599999998,"velocity":0.3937007874015748},{"duration":1.3138679999999852,"midi":49,"time":217.22617599999998,"velocity":0.3937007874015748},{"duration":1.3138679999999852,"midi":57,"time":217.22617599999998,"velocity":0.3937007874015748},{"duration":1.3138679999999852,"midi":45,"time":217.22617599999998,"velocity":0.3937007874015748},{"duration":0.437956000000014,"midi":54,"time":218.54004399999997,"velocity":0.3937007874015748},{"duration":0.437956000000014,"midi":57,"time":218.54004399999997,"velocity":0.3937007874015748},{"duration":0.437956000000014,"midi":45,"time":218.54004399999997,"velocity":0.3937007874015748},{"duration":0.437956000000014,"midi":49,"time":218.54004399999997,"velocity":0.3937007874015748},{"duration":1.3138679999999852,"midi":56,"time":218.97799999999998,"velocity":0.3937007874015748},{"duration":1.3138679999999852,"midi":49,"time":218.97799999999998,"velocity":0.3937007874015748},{"duration":1.3138679999999852,"midi":44,"time":218.97799999999998,"velocity":0.3937007874015748},{"duration":1.3138679999999852,"midi":53,"time":218.97799999999998,"velocity":0.3937007874015748},{"duration":0.437956000000014,"midi":44,"time":220.29186799999997,"velocity":0.3937007874015748},{"duration":0.437956000000014,"midi":49,"time":220.29186799999997,"velocity":0.3937007874015748},{"duration":0.437956000000014,"midi":53,"time":220.29186799999997,"velocity":0.3937007874015748},{"duration":0.437956000000014,"midi":56,"time":220.29186799999997,"velocity":0.3937007874015748},{"duration":1.3138679999999852,"midi":54,"time":220.72982399999998,"velocity":0.3937007874015748},{"duration":1.3138679999999852,"midi":45,"time":220.72982399999998,"velocity":0.3937007874015748},{"duration":1.3138679999999852,"midi":57,"time":220.72982399999998,"velocity":0.3937007874015748},{"duration":1.3138679999999852,"midi":50,"time":220.72982399999998,"velocity":0.3937007874015748},{"duration":0.437956000000014,"midi":50,"time":222.04369199999996,"velocity":0.3937007874015748},{"duration":0.437956000000014,"midi":45,"time":222.04369199999996,"velocity":0.3937007874015748},{"duration":0.437956000000014,"midi":57,"time":222.04369199999996,"velocity":0.3937007874015748},{"duration":0.437956000000014,"midi":54,"time":222.04369199999996,"velocity":0.3937007874015748},{"duration":1.3138679999999852,"midi":53,"time":222.48164799999998,"velocity":0.3937007874015748},{"duration":1.3138679999999852,"midi":56,"time":222.48164799999998,"velocity":0.3937007874015748},{"duration":1.3138679999999852,"midi":61,"time":222.48164799999998,"velocity":0.3937007874015748},{"duration":1.3138679999999852,"midi":65,"time":222.48164799999998,"velocity":0.3937007874015748},{"duration":0.437956000000014,"midi":65,"time":223.79551599999996,"velocity":0.3937007874015748},{"duration":0.437956000000014,"midi":53,"time":223.79551599999996,"velocity":0.3937007874015748},{"duration":0.437956000000014,"midi":61,"time":223.79551599999996,"velocity":0.3937007874015748},{"duration":0.437956000000014,"midi":56,"time":223.79551599999996,"velocity":0.3937007874015748}]},{"instrument":{"family":"strings","number":45,"name":"pizzicato strings"},"notes":[{"duration":0.32846699999999984,"midi":69,"time":7.007295999999999,"velocity":0.3937007874015748},{"duration":0.32846699999999984,"midi":81,"time":7.007295999999999,"velocity":0.3937007874015748},{"duration":0.10948899999999995,"midi":78,"time":7.335762999999999,"velocity":0.3937007874015748},{"duration":0.10948899999999995,"midi":66,"time":7.335762999999999,"velocity":0.3937007874015748},{"duration":0.2189779999999999,"midi":85,"time":7.445251999999999,"velocity":0.3937007874015748},{"duration":0.2189779999999999,"midi":73,"time":7.445251999999999,"velocity":0.3937007874015748},{"duration":0.2189779999999999,"midi":66,"time":7.664229999999999,"velocity":0.3937007874015748},{"duration":0.2189779999999999,"midi":78,"time":7.664229999999999,"velocity":0.3937007874015748},{"duration":0.32846700000000073,"midi":86,"time":7.883207999999999,"velocity":0.3937007874015748},{"duration":0.32846700000000073,"midi":74,"time":7.883207999999999,"velocity":0.3937007874015748},{"duration":0.10948899999999995,"midi":66,"time":8.211675,"velocity":0.3937007874015748},{"duration":0.10948899999999995,"midi":78,"time":8.211675,"velocity":0.3937007874015748},{"duration":0.2189779999999999,"midi":85,"time":8.321164,"velocity":0.3937007874015748},{"duration":0.2189779999999999,"midi":73,"time":8.321164,"velocity":0.3937007874015748},{"duration":0.2189779999999999,"midi":66,"time":8.540142,"velocity":0.3937007874015748},{"duration":0.2189779999999999,"midi":78,"time":8.540142,"velocity":0.3937007874015748},{"duration":0.32846699999999984,"midi":68,"time":8.75912,"velocity":0.3937007874015748},{"duration":0.32846699999999984,"midi":80,"time":8.75912,"velocity":0.3937007874015748},{"duration":0.10948899999999995,"midi":77,"time":9.087587,"velocity":0.3937007874015748},{"duration":0.10948899999999995,"midi":65,"time":9.087587,"velocity":0.3937007874015748},{"duration":0.2189779999999999,"midi":69,"time":9.197076,"velocity":0.3937007874015748},{"duration":0.2189779999999999,"midi":81,"time":9.197076,"velocity":0.3937007874015748},{"duration":0.2189779999999999,"midi":65,"time":9.416053999999999,"velocity":0.3937007874015748},{"duration":0.2189779999999999,"midi":77,"time":9.416053999999999,"velocity":0.3937007874015748},{"duration":0.32846699999999984,"midi":73,"time":9.635031999999999,"velocity":0.3937007874015748},{"duration":0.32846699999999984,"midi":85,"time":9.635031999999999,"velocity":0.3937007874015748},{"duration":0.10948899999999995,"midi":74,"time":9.963498999999999,"velocity":0.3937007874015748},{"duration":0.10948899999999995,"midi":86,"time":9.963498999999999,"velocity":0.3937007874015748},{"duration":0.2189779999999999,"midi":85,"time":10.072987999999999,"velocity":0.3937007874015748},{"duration":0.2189779999999999,"midi":73,"time":10.072987999999999,"velocity":0.3937007874015748},{"duration":0.5474449999999997,"midi":71,"time":10.291965999999999,"velocity":0.3937007874015748},{"duration":0.5474449999999997,"midi":83,"time":10.291965999999999,"velocity":0.3937007874015748},{"duration":0.10948899999999995,"midi":78,"time":10.839410999999998,"velocity":0.3937007874015748},{"duration":0.10948899999999995,"midi":66,"time":10.839410999999998,"velocity":0.3937007874015748},{"duration":0.2189779999999999,"midi":62,"time":10.948899999999998,"velocity":0.3937007874015748},{"duration":0.2189779999999999,"midi":74,"time":10.948899999999998,"velocity":0.3937007874015748},{"duration":0.2189779999999999,"midi":78,"time":11.167877999999998,"velocity":0.3937007874015748},{"duration":0.2189779999999999,"midi":66,"time":11.167877999999998,"velocity":0.3937007874015748},{"duration":0.3284670000000016,"midi":68,"time":11.386855999999998,"velocity":0.3937007874015748},{"duration":0.3284670000000016,"midi":80,"time":11.386855999999998,"velocity":0.3937007874015748},{"duration":0.10948899999999995,"midi":69,"time":11.715323,"velocity":0.3937007874015748},{"duration":0.10948899999999995,"midi":81,"time":11.715323,"velocity":0.3937007874015748},{"duration":0.2189779999999999,"midi":68,"time":11.824812,"velocity":0.3937007874015748},{"duration":0.2189779999999999,"midi":80,"time":11.824812,"velocity":0.3937007874015748},{"duration":0.2189779999999999,"midi":66,"time":12.04379,"velocity":0.3937007874015748},{"duration":0.2189779999999999,"midi":78,"time":12.04379,"velocity":0.3937007874015748},{"duration":0.32846699999999984,"midi":77,"time":12.262768,"velocity":0.3937007874015748},{"duration":0.32846699999999984,"midi":65,"time":12.262768,"velocity":0.3937007874015748},{"duration":0.10948899999999995,"midi":68,"time":12.591235,"velocity":0.3937007874015748},{"duration":0.10948899999999995,"midi":80,"time":12.591235,"velocity":0.3937007874015748},{"duration":0.2189779999999999,"midi":77,"time":12.700724,"velocity":0.3937007874015748},{"duration":0.2189779999999999,"midi":65,"time":12.700724,"velocity":0.3937007874015748},{"duration":0.2189779999999999,"midi":68,"time":12.919702,"velocity":0.3937007874015748},{"duration":0.2189779999999999,"midi":80,"time":12.919702,"velocity":0.3937007874015748},{"duration":0.32846699999999984,"midi":81,"time":14.014591999999999,"velocity":0.3937007874015748},{"duration":0.32846699999999984,"midi":69,"time":14.014591999999999,"velocity":0.3937007874015748},{"duration":0.10948899999999995,"midi":66,"time":14.343058999999998,"velocity":0.3937007874015748},{"duration":0.10948899999999995,"midi":78,"time":14.343058999999998,"velocity":0.3937007874015748},{"duration":0.2189779999999999,"midi":73,"time":14.452547999999998,"velocity":0.3937007874015748},{"duration":0.2189779999999999,"midi":85,"time":14.452547999999998,"velocity":0.3937007874015748},{"duration":0.2189779999999999,"midi":78,"time":14.671525999999998,"velocity":0.3937007874015748},{"duration":0.2189779999999999,"midi":66,"time":14.671525999999998,"velocity":0.3937007874015748},{"duration":0.32846699999999984,"midi":74,"time":14.890503999999998,"velocity":0.3937007874015748},{"duration":0.32846699999999984,"midi":86,"time":14.890503999999998,"velocity":0.3937007874015748},{"duration":0.10948899999999995,"midi":78,"time":15.218970999999998,"velocity":0.3937007874015748},{"duration":0.10948899999999995,"midi":66,"time":15.218970999999998,"velocity":0.3937007874015748},{"duration":0.2189779999999999,"midi":73,"time":15.328459999999998,"velocity":0.3937007874015748},{"duration":0.2189779999999999,"midi":85,"time":15.328459999999998,"velocity":0.3937007874015748},{"duration":0.2189779999999999,"midi":78,"time":15.547437999999998,"velocity":0.3937007874015748},{"duration":0.2189779999999999,"midi":66,"time":15.547437999999998,"velocity":0.3937007874015748},{"duration":0.3284670000000016,"midi":68,"time":15.766415999999998,"velocity":0.3937007874015748},{"duration":0.3284670000000016,"midi":80,"time":15.766415999999998,"velocity":0.3937007874015748},{"duration":0.10948899999999995,"midi":65,"time":16.094883,"velocity":0.3937007874015748},{"duration":0.10948899999999995,"midi":77,"time":16.094883,"velocity":0.3937007874015748},{"duration":0.2189779999999999,"midi":81,"time":16.204372,"velocity":0.3937007874015748},{"duration":0.2189779999999999,"midi":69,"time":16.204372,"velocity":0.3937007874015748},{"duration":0.2189779999999999,"midi":65,"time":16.42335,"velocity":0.3937007874015748},{"duration":0.2189779999999999,"midi":77,"time":16.42335,"velocity":0.3937007874015748},{"duration":0.32846699999999984,"midi":85,"time":16.642328,"velocity":0.3937007874015748},{"duration":0.32846699999999984,"midi":73,"time":16.642328,"velocity":0.3937007874015748},{"duration":0.10948899999999995,"midi":74,"time":16.970795,"velocity":0.3937007874015748},{"duration":0.10948899999999995,"midi":86,"time":16.970795,"velocity":0.3937007874015748},{"duration":0.2189779999999999,"midi":73,"time":17.080284,"velocity":0.3937007874015748},{"duration":0.2189779999999999,"midi":85,"time":17.080284,"velocity":0.3937007874015748},{"duration":0.2189779999999999,"midi":83,"time":17.299262,"velocity":0.3937007874015748},{"duration":0.2189779999999999,"midi":71,"time":17.299262,"velocity":0.3937007874015748},{"duration":0.2189779999999999,"midi":62,"time":17.51824,"velocity":0.3937007874015748},{"duration":0.2189779999999999,"midi":74,"time":17.51824,"velocity":0.3937007874015748},{"duration":0.10948899999999995,"midi":78,"time":17.846707,"velocity":0.3937007874015748},{"duration":0.10948899999999995,"midi":66,"time":17.846707,"velocity":0.3937007874015748},{"duration":0.2189779999999999,"midi":74,"time":17.956196,"velocity":0.3937007874015748},{"duration":0.2189779999999999,"midi":62,"time":17.956196,"velocity":0.3937007874015748},{"duration":0.2189779999999999,"midi":66,"time":18.175174,"velocity":0.3937007874015748},{"duration":0.2189779999999999,"midi":78,"time":18.175174,"velocity":0.3937007874015748},{"duration":0.32846699999999984,"midi":80,"time":18.394152,"velocity":0.3937007874015748},{"duration":0.32846699999999984,"midi":68,"time":18.394152,"velocity":0.3937007874015748},{"duration":0.10948899999999995,"midi":69,"time":18.722618999999998,"velocity":0.3937007874015748},{"duration":0.10948899999999995,"midi":81,"time":18.722618999999998,"velocity":0.3937007874015748},{"duration":0.2189779999999999,"midi":68,"time":18.832107999999998,"velocity":0.3937007874015748},{"duration":0.2189779999999999,"midi":80,"time":18.832107999999998,"velocity":0.3937007874015748},{"duration":0.2189779999999999,"midi":66,"time":19.051085999999998,"velocity":0.3937007874015748},{"duration":0.2189779999999999,"midi":78,"time":19.051085999999998,"velocity":0.3937007874015748},{"duration":0.32846699999999984,"midi":77,"time":19.270063999999998,"velocity":0.3937007874015748},{"duration":0.32846699999999984,"midi":65,"time":19.270063999999998,"velocity":0.3937007874015748},{"duration":0.10948899999999995,"midi":80,"time":19.598530999999998,"velocity":0.3937007874015748},{"duration":0.10948899999999995,"midi":68,"time":19.598530999999998,"velocity":0.3937007874015748},{"duration":0.2189779999999999,"midi":65,"time":19.708019999999998,"velocity":0.3937007874015748},{"duration":0.2189779999999999,"midi":77,"time":19.708019999999998,"velocity":0.3937007874015748},{"duration":0.2189779999999999,"midi":68,"time":19.926997999999998,"velocity":0.3937007874015748},{"duration":0.2189779999999999,"midi":80,"time":19.926997999999998,"velocity":0.3937007874015748},{"duration":0.32846699999999984,"midi":71,"time":20.145975999999997,"velocity":0.3937007874015748},{"duration":0.32846699999999984,"midi":83,"time":20.145975999999997,"velocity":0.3937007874015748},{"duration":0.10948899999999995,"midi":73,"time":20.474442999999997,"velocity":0.3937007874015748},{"duration":0.10948899999999995,"midi":85,"time":20.474442999999997,"velocity":0.3937007874015748},{"duration":0.2189779999999999,"midi":83,"time":20.583931999999997,"velocity":0.3937007874015748},{"duration":0.2189779999999999,"midi":71,"time":20.583931999999997,"velocity":0.3937007874015748},{"duration":0.2189779999999999,"midi":69,"time":20.802909999999997,"velocity":0.3937007874015748},{"duration":0.2189779999999999,"midi":81,"time":20.802909999999997,"velocity":0.3937007874015748},{"duration":0.32846699999999984,"midi":81,"time":21.021887999999997,"velocity":0.3937007874015748},{"duration":0.32846699999999984,"midi":69,"time":21.021887999999997,"velocity":0.3937007874015748},{"duration":0.10948899999999995,"midi":66,"time":21.350354999999997,"velocity":0.3937007874015748},{"duration":0.10948899999999995,"midi":78,"time":21.350354999999997,"velocity":0.3937007874015748},{"duration":0.2189779999999999,"midi":85,"time":21.459843999999997,"velocity":0.3937007874015748},{"duration":0.2189779999999999,"midi":73,"time":21.459843999999997,"velocity":0.3937007874015748},{"duration":0.2189779999999999,"midi":78,"time":21.678821999999997,"velocity":0.3937007874015748},{"duration":0.2189779999999999,"midi":66,"time":21.678821999999997,"velocity":0.3937007874015748},{"duration":0.32846699999999984,"midi":86,"time":21.897799999999997,"velocity":0.3937007874015748},{"duration":0.32846699999999984,"midi":74,"time":21.897799999999997,"velocity":0.3937007874015748},{"duration":0.10948899999999995,"midi":66,"time":22.226266999999996,"velocity":0.3937007874015748},{"duration":0.10948899999999995,"midi":78,"time":22.226266999999996,"velocity":0.3937007874015748},{"duration":0.2189779999999999,"midi":73,"time":22.335755999999996,"velocity":0.3937007874015748},{"duration":0.2189779999999999,"midi":85,"time":22.335755999999996,"velocity":0.3937007874015748},{"duration":0.2189779999999999,"midi":66,"time":22.554733999999996,"velocity":0.3937007874015748},{"duration":0.2189779999999999,"midi":78,"time":22.554733999999996,"velocity":0.3937007874015748},{"duration":0.32846699999999984,"midi":80,"time":22.773711999999996,"velocity":0.3937007874015748},{"duration":0.32846699999999984,"midi":68,"time":22.773711999999996,"velocity":0.3937007874015748},{"duration":0.10948899999999995,"midi":65,"time":23.102178999999996,"velocity":0.3937007874015748},{"duration":0.10948899999999995,"midi":77,"time":23.102178999999996,"velocity":0.3937007874015748},{"duration":0.21897800000000345,"midi":69,"time":23.211667999999996,"velocity":0.3937007874015748},{"duration":0.21897800000000345,"midi":81,"time":23.211667999999996,"velocity":0.3937007874015748},{"duration":0.2189779999999999,"midi":77,"time":23.430646,"velocity":0.3937007874015748},{"duration":0.2189779999999999,"midi":65,"time":23.430646,"velocity":0.3937007874015748},{"duration":0.32846699999999984,"midi":73,"time":23.649624,"velocity":0.3937007874015748},{"duration":0.32846699999999984,"midi":85,"time":23.649624,"velocity":0.3937007874015748},{"duration":0.10948899999999995,"midi":74,"time":23.978091,"velocity":0.3937007874015748},{"duration":0.10948899999999995,"midi":86,"time":23.978091,"velocity":0.3937007874015748},{"duration":0.2189779999999999,"midi":85,"time":24.08758,"velocity":0.3937007874015748},{"duration":0.2189779999999999,"midi":73,"time":24.08758,"velocity":0.3937007874015748},{"duration":0.2189779999999999,"midi":71,"time":24.306558,"velocity":0.3937007874015748},{"duration":0.2189779999999999,"midi":83,"time":24.306558,"velocity":0.3937007874015748},{"duration":0.2189779999999999,"midi":74,"time":24.525536,"velocity":0.3937007874015748},{"duration":0.2189779999999999,"midi":62,"time":24.525536,"velocity":0.3937007874015748},{"duration":0.10948899999999995,"midi":66,"time":24.854003,"velocity":0.3937007874015748},{"duration":0.10948899999999995,"midi":78,"time":24.854003,"velocity":0.3937007874015748},{"duration":0.2189779999999999,"midi":74,"time":24.963492,"velocity":0.3937007874015748},{"duration":0.2189779999999999,"midi":62,"time":24.963492,"velocity":0.3937007874015748},{"duration":0.2189779999999999,"midi":66,"time":25.18247,"velocity":0.3937007874015748},{"duration":0.2189779999999999,"midi":78,"time":25.18247,"velocity":0.3937007874015748},{"duration":0.32846699999999984,"midi":80,"time":25.401448,"velocity":0.3937007874015748},{"duration":0.32846699999999984,"midi":68,"time":25.401448,"velocity":0.3937007874015748},{"duration":0.10948899999999995,"midi":81,"time":25.729915,"velocity":0.3937007874015748},{"duration":0.10948899999999995,"midi":69,"time":25.729915,"velocity":0.3937007874015748},{"duration":0.2189779999999999,"midi":68,"time":25.839404,"velocity":0.3937007874015748},{"duration":0.2189779999999999,"midi":80,"time":25.839404,"velocity":0.3937007874015748},{"duration":0.2189779999999999,"midi":78,"time":26.058381999999998,"velocity":0.3937007874015748},{"duration":0.2189779999999999,"midi":66,"time":26.058381999999998,"velocity":0.3937007874015748},{"duration":0.32846699999999984,"midi":65,"time":26.277359999999998,"velocity":0.3937007874015748},{"duration":0.32846699999999984,"midi":77,"time":26.277359999999998,"velocity":0.3937007874015748},{"duration":0.10948899999999995,"midi":68,"time":26.605826999999998,"velocity":0.3937007874015748},{"duration":0.10948899999999995,"midi":80,"time":26.605826999999998,"velocity":0.3937007874015748},{"duration":0.2189779999999999,"midi":65,"time":26.715315999999998,"velocity":0.3937007874015748},{"duration":0.2189779999999999,"midi":77,"time":26.715315999999998,"velocity":0.3937007874015748},{"duration":0.2189779999999999,"midi":80,"time":26.934293999999998,"velocity":0.3937007874015748},{"duration":0.2189779999999999,"midi":68,"time":26.934293999999998,"velocity":0.3937007874015748},{"duration":0.32846699999999984,"midi":71,"time":27.153271999999998,"velocity":0.3937007874015748},{"duration":0.32846699999999984,"midi":83,"time":27.153271999999998,"velocity":0.3937007874015748},{"duration":0.10948899999999995,"midi":73,"time":27.481738999999997,"velocity":0.3937007874015748},{"duration":0.10948899999999995,"midi":85,"time":27.481738999999997,"velocity":0.3937007874015748},{"duration":0.2189779999999999,"midi":71,"time":27.591227999999997,"velocity":0.3937007874015748},{"duration":0.2189779999999999,"midi":83,"time":27.591227999999997,"velocity":0.3937007874015748},{"duration":0.2189779999999999,"midi":69,"time":27.810205999999997,"velocity":0.3937007874015748},{"duration":0.2189779999999999,"midi":81,"time":27.810205999999997,"velocity":0.3937007874015748},{"duration":0.4379559999999998,"midi":81,"time":28.029183999999997,"velocity":0.3937007874015748},{"duration":0.4379559999999998,"midi":80,"time":28.686117999999997,"velocity":0.3937007874015748},{"duration":0.4379559999999998,"midi":86,"time":29.343051999999997,"velocity":0.3937007874015748},{"duration":0.4379559999999998,"midi":85,"time":29.999985999999996,"velocity":0.3937007874015748},{"duration":0.4379559999999998,"midi":81,"time":30.656919999999996,"velocity":0.3937007874015748},{"duration":0.4379559999999998,"midi":80,"time":31.094875999999996,"velocity":0.3937007874015748},{"duration":0.4379559999999998,"midi":81,"time":31.532831999999996,"velocity":0.3937007874015748},{"duration":0.4379559999999998,"midi":80,"time":32.189766,"velocity":0.3937007874015748},{"duration":0.4379559999999998,"midi":86,"time":32.8467,"velocity":0.3937007874015748},{"duration":0.4379559999999998,"midi":85,"time":33.503634,"velocity":0.3937007874015748},{"duration":0.1094889999999964,"midi":85,"time":34.160568,"velocity":0.3937007874015748},{"duration":0.1094890000000035,"midi":83,"time":34.256370874999995,"velocity":0.3937007874015748},{"duration":0.2189779999999999,"midi":81,"time":34.379546,"velocity":0.3937007874015748},{"duration":0.2189779999999999,"midi":80,"time":34.598524,"velocity":0.3937007874015748},{"duration":0.6569339999999997,"midi":81,"time":34.817502,"velocity":0.3937007874015748},{"duration":0.4379559999999998,"midi":80,"time":35.693414,"velocity":0.3937007874015748},{"duration":0.4379559999999998,"midi":86,"time":36.350348,"velocity":0.3937007874015748},{"duration":0.4379559999999998,"midi":85,"time":37.007282,"velocity":0.3937007874015748},{"duration":0.4379559999999998,"midi":81,"time":37.664215999999996,"velocity":0.3937007874015748},{"duration":0.4379559999999998,"midi":80,"time":38.102171999999996,"velocity":0.3937007874015748},{"duration":0.4379559999999998,"midi":81,"time":38.540127999999996,"velocity":0.3937007874015748},{"duration":0.4379559999999998,"midi":80,"time":39.197061999999995,"velocity":0.3937007874015748},{"duration":0.4379559999999998,"midi":86,"time":39.853995999999995,"velocity":0.3937007874015748},{"duration":0.4379559999999998,"midi":85,"time":40.510929999999995,"velocity":0.3937007874015748},{"duration":0.1094890000000035,"midi":85,"time":41.167863999999994,"velocity":0.3937007874015748},{"duration":0.1094889999999964,"midi":83,"time":41.263666875,"velocity":0.3937007874015748},{"duration":0.2189779999999999,"midi":81,"time":41.386841999999994,"velocity":0.3937007874015748},{"duration":0.2189779999999999,"midi":80,"time":41.605819999999994,"velocity":0.3937007874015748},{"duration":0.5474450000000033,"midi":81,"time":41.824797999999994,"velocity":0.3937007874015748},{"duration":0.5474450000000033,"midi":73,"time":41.824797999999994,"velocity":0.3937007874015748},{"duration":0.3284670000000034,"midi":69,"time":42.043775999999994,"velocity":0.3937007874015748},{"duration":0.1094889999999964,"midi":78,"time":42.372243,"velocity":0.3937007874015748},{"duration":0.1094889999999964,"midi":66,"time":42.372243,"velocity":0.3937007874015748},{"duration":0.2189779999999999,"midi":73,"time":42.481731999999994,"velocity":0.3937007874015748},{"duration":0.2189779999999999,"midi":85,"time":42.481731999999994,"velocity":0.3937007874015748},{"duration":0.2189779999999999,"midi":78,"time":42.700709999999994,"velocity":0.3937007874015748},{"duration":0.2189779999999999,"midi":66,"time":42.700709999999994,"velocity":0.3937007874015748},{"duration":0.3284670000000034,"midi":74,"time":42.919687999999994,"velocity":0.3937007874015748},{"duration":0.3284670000000034,"midi":86,"time":42.919687999999994,"velocity":0.3937007874015748},{"duration":0.1094889999999964,"midi":66,"time":43.248155,"velocity":0.3937007874015748},{"duration":0.1094889999999964,"midi":78,"time":43.248155,"velocity":0.3937007874015748},{"duration":0.2189779999999999,"midi":85,"time":43.35764399999999,"velocity":0.3937007874015748},{"duration":0.2189779999999999,"midi":73,"time":43.35764399999999,"velocity":0.3937007874015748},{"duration":0.2189779999999999,"midi":78,"time":43.57662199999999,"velocity":0.3937007874015748},{"duration":0.2189779999999999,"midi":66,"time":43.57662199999999,"velocity":0.3937007874015748},{"duration":0.3284670000000034,"midi":80,"time":43.79559999999999,"velocity":0.3937007874015748},{"duration":0.3284670000000034,"midi":68,"time":43.79559999999999,"velocity":0.3937007874015748},{"duration":0.1094889999999964,"midi":77,"time":44.124067,"velocity":0.3937007874015748},{"duration":0.1094889999999964,"midi":65,"time":44.124067,"velocity":0.3937007874015748},{"duration":0.2189779999999999,"midi":81,"time":44.23355599999999,"velocity":0.3937007874015748},{"duration":0.2189779999999999,"midi":69,"time":44.23355599999999,"velocity":0.3937007874015748},{"duration":0.2189779999999999,"midi":65,"time":44.45253399999999,"velocity":0.3937007874015748},{"duration":0.2189779999999999,"midi":77,"time":44.45253399999999,"velocity":0.3937007874015748},{"duration":0.3284670000000034,"midi":73,"time":44.67151199999999,"velocity":0.3937007874015748},{"duration":0.3284670000000034,"midi":85,"time":44.67151199999999,"velocity":0.3937007874015748},{"duration":0.1094889999999964,"midi":86,"time":44.999978999999996,"velocity":0.3937007874015748},{"duration":0.1094889999999964,"midi":74,"time":44.999978999999996,"velocity":0.3937007874015748},{"duration":0.2189779999999999,"midi":73,"time":45.10946799999999,"velocity":0.3937007874015748},{"duration":0.2189779999999999,"midi":85,"time":45.10946799999999,"velocity":0.3937007874015748},{"duration":0.2189779999999999,"midi":83,"time":45.32844599999999,"velocity":0.3937007874015748},{"duration":0.2189779999999999,"midi":71,"time":45.32844599999999,"velocity":0.3937007874015748},{"duration":0.2189779999999999,"midi":74,"time":45.54742399999999,"velocity":0.3937007874015748},{"duration":0.2189779999999999,"midi":62,"time":45.54742399999999,"velocity":0.3937007874015748},{"duration":0.1094889999999964,"midi":66,"time":45.875890999999996,"velocity":0.3937007874015748},{"duration":0.1094889999999964,"midi":78,"time":45.875890999999996,"velocity":0.3937007874015748},{"duration":0.2189779999999999,"midi":62,"time":45.98537999999999,"velocity":0.3937007874015748},{"duration":0.2189779999999999,"midi":74,"time":45.98537999999999,"velocity":0.3937007874015748},{"duration":0.2189779999999999,"midi":78,"time":46.20435799999999,"velocity":0.3937007874015748},{"duration":0.2189779999999999,"midi":66,"time":46.20435799999999,"velocity":0.3937007874015748},{"duration":0.3284670000000034,"midi":80,"time":46.42333599999999,"velocity":0.3937007874015748},{"duration":0.3284670000000034,"midi":68,"time":46.42333599999999,"velocity":0.3937007874015748},{"duration":0.1094890000000035,"midi":69,"time":46.751802999999995,"velocity":0.3937007874015748},{"duration":0.1094890000000035,"midi":81,"time":46.751802999999995,"velocity":0.3937007874015748},{"duration":0.2189779999999999,"midi":80,"time":46.861292,"velocity":0.3937007874015748},{"duration":0.2189779999999999,"midi":68,"time":46.861292,"velocity":0.3937007874015748},{"duration":0.2189779999999999,"midi":66,"time":47.08027,"velocity":0.3937007874015748},{"duration":0.2189779999999999,"midi":78,"time":47.08027,"velocity":0.3937007874015748},{"duration":0.3284669999999963,"midi":65,"time":47.299248,"velocity":0.3937007874015748},{"duration":0.3284669999999963,"midi":77,"time":47.299248,"velocity":0.3937007874015748},{"duration":0.1094890000000035,"midi":68,"time":47.627714999999995,"velocity":0.3937007874015748},{"duration":0.1094890000000035,"midi":80,"time":47.627714999999995,"velocity":0.3937007874015748},{"duration":0.2189779999999999,"midi":65,"time":47.737204,"velocity":0.3937007874015748},{"duration":0.2189779999999999,"midi":77,"time":47.737204,"velocity":0.3937007874015748},{"duration":0.2189779999999999,"midi":80,"time":47.956182,"velocity":0.3937007874015748},{"duration":0.2189779999999999,"midi":68,"time":47.956182,"velocity":0.3937007874015748},{"duration":0.3284669999999963,"midi":83,"time":48.17516,"velocity":0.3937007874015748},{"duration":0.3284669999999963,"midi":71,"time":48.17516,"velocity":0.3937007874015748},{"duration":0.1094890000000035,"midi":85,"time":48.503626999999994,"velocity":0.3937007874015748},{"duration":0.1094890000000035,"midi":73,"time":48.503626999999994,"velocity":0.3937007874015748},{"duration":0.2189779999999999,"midi":83,"time":48.613116,"velocity":0.3937007874015748},{"duration":0.2189779999999999,"midi":71,"time":48.613116,"velocity":0.3937007874015748},{"duration":0.2189779999999999,"midi":81,"time":48.832094,"velocity":0.3937007874015748},{"duration":0.2189779999999999,"midi":69,"time":48.832094,"velocity":0.3937007874015748},{"duration":0.3284669999999963,"midi":69,"time":49.051072,"velocity":0.3937007874015748},{"duration":0.3284669999999963,"midi":81,"time":49.051072,"velocity":0.3937007874015748},{"duration":0.1094890000000035,"midi":78,"time":49.379538999999994,"velocity":0.3937007874015748},{"duration":0.1094890000000035,"midi":66,"time":49.379538999999994,"velocity":0.3937007874015748},{"duration":0.2189779999999999,"midi":85,"time":49.489028,"velocity":0.3937007874015748},{"duration":0.2189779999999999,"midi":73,"time":49.489028,"velocity":0.3937007874015748},{"duration":0.2189779999999999,"midi":78,"time":49.708006,"velocity":0.3937007874015748},{"duration":0.2189779999999999,"midi":66,"time":49.708006,"velocity":0.3937007874015748},{"duration":0.3284669999999963,"midi":74,"time":49.926984,"velocity":0.3937007874015748},{"duration":0.3284669999999963,"midi":86,"time":49.926984,"velocity":0.3937007874015748},{"duration":0.1094890000000035,"midi":78,"time":50.255450999999994,"velocity":0.3937007874015748},{"duration":0.1094890000000035,"midi":66,"time":50.255450999999994,"velocity":0.3937007874015748},{"duration":0.2189779999999999,"midi":73,"time":50.36494,"velocity":0.3937007874015748},{"duration":0.2189779999999999,"midi":85,"time":50.36494,"velocity":0.3937007874015748},{"duration":0.2189779999999999,"midi":78,"time":50.583918,"velocity":0.3937007874015748},{"duration":0.2189779999999999,"midi":66,"time":50.583918,"velocity":0.3937007874015748},{"duration":0.3284669999999963,"midi":69,"time":50.802896,"velocity":0.3937007874015748},{"duration":0.3284669999999963,"midi":81,"time":50.802896,"velocity":0.3937007874015748},{"duration":0.1094890000000035,"midi":78,"time":51.13136299999999,"velocity":0.3937007874015748},{"duration":0.1094890000000035,"midi":66,"time":51.13136299999999,"velocity":0.3937007874015748},{"duration":0.2189779999999999,"midi":73,"time":51.240852,"velocity":0.3937007874015748},{"duration":0.2189779999999999,"midi":85,"time":51.240852,"velocity":0.3937007874015748},{"duration":0.2189779999999999,"midi":78,"time":51.45983,"velocity":0.3937007874015748},{"duration":0.2189779999999999,"midi":66,"time":51.45983,"velocity":0.3937007874015748},{"duration":0.3284669999999963,"midi":74,"time":51.678808,"velocity":0.3937007874015748},{"duration":0.3284669999999963,"midi":86,"time":51.678808,"velocity":0.3937007874015748},{"duration":0.1094890000000035,"midi":66,"time":52.00727499999999,"velocity":0.3937007874015748},{"duration":0.1094890000000035,"midi":78,"time":52.00727499999999,"velocity":0.3937007874015748},{"duration":0.2189779999999999,"midi":73,"time":52.116763999999996,"velocity":0.3937007874015748},{"duration":0.2189779999999999,"midi":85,"time":52.116763999999996,"velocity":0.3937007874015748},{"duration":0.2189779999999999,"midi":78,"time":52.335741999999996,"velocity":0.3937007874015748},{"duration":0.2189779999999999,"midi":66,"time":52.335741999999996,"velocity":0.3937007874015748},{"duration":0.3284669999999963,"midi":81,"time":52.554719999999996,"velocity":0.3937007874015748},{"duration":0.3284669999999963,"midi":69,"time":52.554719999999996,"velocity":0.3937007874015748},{"duration":0.1094890000000035,"midi":66,"time":52.88318699999999,"velocity":0.3937007874015748},{"duration":0.1094890000000035,"midi":78,"time":52.88318699999999,"velocity":0.3937007874015748},{"duration":0.2189779999999999,"midi":85,"time":52.992675999999996,"velocity":0.3937007874015748},{"duration":0.2189779999999999,"midi":73,"time":52.992675999999996,"velocity":0.3937007874015748},{"duration":0.2189779999999999,"midi":78,"time":53.211653999999996,"velocity":0.3937007874015748},{"duration":0.2189779999999999,"midi":66,"time":53.211653999999996,"velocity":0.3937007874015748},{"duration":0.3284669999999963,"midi":86,"time":53.430631999999996,"velocity":0.3937007874015748},{"duration":0.3284669999999963,"midi":74,"time":53.430631999999996,"velocity":0.3937007874015748},{"duration":0.1094890000000035,"midi":78,"time":53.75909899999999,"velocity":0.3937007874015748},{"duration":0.1094890000000035,"midi":66,"time":53.75909899999999,"velocity":0.3937007874015748},{"duration":0.2189779999999999,"midi":85,"time":53.868587999999995,"velocity":0.3937007874015748},{"duration":0.2189779999999999,"midi":73,"time":53.868587999999995,"velocity":0.3937007874015748},{"duration":0.2189779999999999,"midi":78,"time":54.087565999999995,"velocity":0.3937007874015748},{"duration":0.2189779999999999,"midi":66,"time":54.087565999999995,"velocity":0.3937007874015748},{"duration":0.1094890000000035,"midi":81,"time":56.058367999999994,"velocity":0.3937007874015748},{"duration":0.1094890000000035,"midi":73,"time":56.058367999999994,"velocity":0.3937007874015748},{"duration":0.1094890000000035,"midi":66,"time":56.058367999999994,"velocity":0.3937007874015748},{"duration":0.1094889999999964,"midi":73,"time":56.167857,"velocity":0.3937007874015748},{"duration":0.1094889999999964,"midi":80,"time":56.167857,"velocity":0.3937007874015748},{"duration":0.1094889999999964,"midi":66,"time":56.167857,"velocity":0.3937007874015748},{"duration":0.1094889999999964,"midi":78,"time":56.386835,"velocity":0.3937007874015748},{"duration":0.1094889999999964,"midi":73,"time":56.386835,"velocity":0.3937007874015748},{"duration":0.1094889999999964,"midi":66,"time":56.386835,"velocity":0.3937007874015748},{"duration":0.1094890000000035,"midi":78,"time":57.810191999999994,"velocity":0.3937007874015748},{"duration":0.1094890000000035,"midi":73,"time":57.810191999999994,"velocity":0.3937007874015748},{"duration":0.1094889999999964,"midi":78,"time":57.919681,"velocity":0.3937007874015748},{"duration":0.1094890000000035,"midi":78,"time":58.02916999999999,"velocity":0.3937007874015748},{"duration":0.1094890000000035,"midi":69,"time":58.02916999999999,"velocity":0.3937007874015748},{"duration":0.1094889999999964,"midi":66,"time":58.138659,"velocity":0.3937007874015748},{"duration":0.1094889999999964,"midi":66,"time":58.795593,"velocity":0.3937007874015748},{"duration":0.1094890000000035,"midi":69,"time":58.90508199999999,"velocity":0.3937007874015748},{"duration":0.1094889999999964,"midi":71,"time":59.014571,"velocity":0.3937007874015748},{"duration":0.1094890000000035,"midi":69,"time":61.75179599999999,"velocity":0.3937007874015748},{"duration":0.1094890000000035,"midi":78,"time":61.75179599999999,"velocity":0.3937007874015748},{"duration":0.1094890000000035,"midi":69,"time":61.97077399999999,"velocity":0.3937007874015748},{"duration":0.1094890000000035,"midi":81,"time":61.97077399999999,"velocity":0.3937007874015748},{"duration":0.1094889999999964,"midi":80,"time":62.080262999999995,"velocity":0.3937007874015748},{"duration":0.1094889999999964,"midi":69,"time":62.080262999999995,"velocity":0.3937007874015748},{"duration":0.1094890000000035,"midi":54,"time":62.18975199999999,"velocity":0.3937007874015748},{"duration":0.1094889999999964,"midi":66,"time":62.299240999999995,"velocity":0.3937007874015748},{"duration":0.1094890000000035,"midi":69,"time":62.40872999999999,"velocity":0.3937007874015748},{"duration":0.1094889999999964,"midi":71,"time":62.518218999999995,"velocity":0.3937007874015748},{"duration":0.1094889999999964,"midi":54,"time":67.445224,"velocity":0.3937007874015748},{"duration":0.1094889999999964,"midi":66,"time":67.55471299999999,"velocity":0.3937007874015748},{"duration":0.1094890000000106,"midi":78,"time":67.66420199999999,"velocity":0.3937007874015748},{"duration":0.1094890000000106,"midi":69,"time":67.66420199999999,"velocity":0.3937007874015748},{"duration":0.1094890000000106,"midi":81,"time":67.66420199999999,"velocity":0.3937007874015748},{"duration":0.1094889999999964,"midi":69,"time":67.773691,"velocity":0.3937007874015748},{"duration":0.1094889999999964,"midi":80,"time":67.773691,"velocity":0.3937007874015748},{"duration":0.1094889999999964,"midi":78,"time":67.773691,"velocity":0.3937007874015748},{"duration":0.1094889999999964,"midi":66,"time":67.88318,"velocity":0.3937007874015748},{"duration":0.1094889999999964,"midi":78,"time":67.99266899999999,"velocity":0.3937007874015748},{"duration":0.1094889999999964,"midi":80,"time":67.99266899999999,"velocity":0.3937007874015748},{"duration":0.1094889999999964,"midi":73,"time":67.99266899999999,"velocity":0.3937007874015748},{"duration":0.1094890000000106,"midi":78,"time":68.10215799999999,"velocity":0.3937007874015748},{"duration":0.1094890000000106,"midi":73,"time":68.10215799999999,"velocity":0.3937007874015748},{"duration":0.1094889999999964,"midi":66,"time":70.07296,"velocity":0.3937007874015748},{"duration":0.1094889999999964,"midi":73,"time":70.07296,"velocity":0.3937007874015748},{"duration":0.1094889999999964,"midi":81,"time":70.07296,"velocity":0.3937007874015748},{"duration":0.1094889999999964,"midi":66,"time":70.18244899999999,"velocity":0.3937007874015748},{"duration":0.1094889999999964,"midi":80,"time":70.18244899999999,"velocity":0.3937007874015748},{"duration":0.1094889999999964,"midi":73,"time":70.18244899999999,"velocity":0.3937007874015748},{"duration":0.1094889999999964,"midi":66,"time":70.401427,"velocity":0.3937007874015748},{"duration":0.1094889999999964,"midi":73,"time":70.401427,"velocity":0.3937007874015748},{"duration":0.1094889999999964,"midi":76,"time":70.401427,"velocity":0.3937007874015748},{"duration":0.2189779999999928,"midi":78,"time":70.510916,"velocity":0.3937007874015748},{"duration":0.2189779999999928,"midi":66,"time":70.510916,"velocity":0.3937007874015748},{"duration":0.2189779999999928,"midi":73,"time":70.510916,"velocity":0.3937007874015748},{"duration":0.1094890000000106,"midi":73,"time":72.48171799999999,"velocity":0.3937007874015748},{"duration":0.1094890000000106,"midi":81,"time":72.48171799999999,"velocity":0.3937007874015748},{"duration":0.1094890000000106,"midi":78,"time":72.48171799999999,"velocity":0.3937007874015748},{"duration":0.1094889999999964,"midi":80,"time":72.591207,"velocity":0.3937007874015748},{"duration":0.1094889999999964,"midi":78,"time":72.591207,"velocity":0.3937007874015748},{"duration":0.1094889999999964,"midi":73,"time":72.591207,"velocity":0.3937007874015748},{"duration":0.1094889999999964,"midi":71,"time":74.014564,"velocity":0.3937007874015748},{"duration":0.1094889999999964,"midi":69,"time":74.12405299999999,"velocity":0.3937007874015748},{"duration":0.1094890000000106,"midi":66,"time":74.23354199999999,"velocity":0.3937007874015748},{"duration":0.1094889999999964,"midi":61,"time":74.343031,"velocity":0.3937007874015748},{"duration":0.1094889999999964,"midi":73,"time":74.45251999999999,"velocity":0.3937007874015748},{"duration":0.1094889999999964,"midi":81,"time":74.45251999999999,"velocity":0.3937007874015748},{"duration":0.1094889999999964,"midi":69,"time":74.45251999999999,"velocity":0.3937007874015748},{"duration":0.1094889999999964,"midi":78,"time":74.45251999999999,"velocity":0.3937007874015748},{"duration":0.1094889999999964,"midi":69,"time":74.56200899999999,"velocity":0.3937007874015748},{"duration":0.1094889999999964,"midi":73,"time":74.56200899999999,"velocity":0.3937007874015748},{"duration":0.1094889999999964,"midi":80,"time":74.56200899999999,"velocity":0.3937007874015748},{"duration":0.1094889999999964,"midi":78,"time":74.56200899999999,"velocity":0.3937007874015748},{"duration":0.1094890000000106,"midi":73,"time":74.67149799999999,"velocity":0.3937007874015748},{"duration":0.1094890000000106,"midi":69,"time":74.67149799999999,"velocity":0.3937007874015748},{"duration":0.1094889999999964,"midi":76,"time":74.780987,"velocity":0.3937007874015748},{"duration":0.1094889999999964,"midi":78,"time":74.780987,"velocity":0.3937007874015748},{"duration":0.1094889999999964,"midi":69,"time":74.780987,"velocity":0.3937007874015748},{"duration":0.1094889999999964,"midi":73,"time":74.780987,"velocity":0.3937007874015748},{"duration":0.218978000000007,"midi":78,"time":74.89047599999999,"velocity":0.3937007874015748},{"duration":0.218978000000007,"midi":69,"time":74.89047599999999,"velocity":0.3937007874015748},{"duration":0.218978000000007,"midi":73,"time":74.89047599999999,"velocity":0.3937007874015748},{"duration":0.1094889999999964,"midi":54,"time":76.20434399999999,"velocity":0.3937007874015748},{"duration":0.1094890000000106,"midi":66,"time":76.31383299999999,"velocity":0.3937007874015748},{"duration":0.1094889999999964,"midi":69,"time":76.423322,"velocity":0.3937007874015748},{"duration":0.1094889999999964,"midi":71,"time":76.532811,"velocity":0.3937007874015748},{"duration":0.1094889999999964,"midi":54,"time":78.83207999999999,"velocity":0.3937007874015748},{"duration":0.1094890000000106,"midi":66,"time":78.94156899999999,"velocity":0.3937007874015748},{"duration":0.1094889999999964,"midi":69,"time":79.051058,"velocity":0.3937007874015748},{"duration":0.1094889999999964,"midi":71,"time":79.160547,"velocity":0.3937007874015748},{"duration":0.1094889999999964,"midi":73,"time":81.45981599999999,"velocity":0.3937007874015748},{"duration":0.1094889999999964,"midi":81,"time":81.45981599999999,"velocity":0.3937007874015748},{"duration":0.1094889999999964,"midi":66,"time":81.45981599999999,"velocity":0.3937007874015748},{"duration":0.1094890000000106,"midi":80,"time":81.56930499999999,"velocity":0.3937007874015748},{"duration":0.1094890000000106,"midi":66,"time":81.56930499999999,"velocity":0.3937007874015748},{"duration":0.1094890000000106,"midi":73,"time":81.56930499999999,"velocity":0.3937007874015748},{"duration":0.1094889999999964,"midi":73,"time":81.678794,"velocity":0.3937007874015748},{"duration":0.1094889999999964,"midi":80,"time":81.678794,"velocity":0.3937007874015748},{"duration":0.1094889999999964,"midi":66,"time":81.678794,"velocity":0.3937007874015748},{"duration":0.1094889999999964,"midi":66,"time":81.78828299999999,"velocity":0.3937007874015748},{"duration":0.1094889999999964,"midi":73,"time":81.78828299999999,"velocity":0.3937007874015748},{"duration":0.1094889999999964,"midi":69,"time":82.11675,"velocity":0.3937007874015748},{"duration":0.1094889999999964,"midi":71,"time":82.22623899999999,"velocity":0.3937007874015748},{"duration":0.4379559999999998,"midi":81,"time":84.08755199999999,"velocity":0.3937007874015748},{"duration":0.4379559999999998,"midi":80,"time":84.744486,"velocity":0.3937007874015748},{"duration":0.4379559999999998,"midi":86,"time":85.40141999999999,"velocity":0.3937007874015748},{"duration":0.4379559999999998,"midi":85,"time":86.058354,"velocity":0.3937007874015748},{"duration":0.4379559999999998,"midi":81,"time":86.71528799999999,"velocity":0.3937007874015748},{"duration":0.4379559999999998,"midi":80,"time":87.15324399999999,"velocity":0.3937007874015748},{"duration":0.4379559999999998,"midi":81,"time":87.59119999999999,"velocity":0.3937007874015748},{"duration":0.4379559999999998,"midi":80,"time":88.248134,"velocity":0.3937007874015748},{"duration":0.4379559999999998,"midi":86,"time":88.90506799999999,"velocity":0.3937007874015748},{"duration":0.4379559999999998,"midi":85,"time":89.56200199999999,"velocity":0.3937007874015748},{"duration":0.1094890000000106,"midi":85,"time":90.21893599999999,"velocity":0.3937007874015748},{"duration":0.1094889999999964,"midi":83,"time":90.31473887499999,"velocity":0.3937007874015748},{"duration":0.2189779999999928,"midi":81,"time":90.43791399999999,"velocity":0.3937007874015748},{"duration":0.218978000000007,"midi":80,"time":90.65689199999998,"velocity":0.3937007874015748},{"duration":0.6569339999999926,"midi":81,"time":90.87586999999999,"velocity":0.3937007874015748},{"duration":0.4379559999999998,"midi":80,"time":91.75178199999999,"velocity":0.3937007874015748},{"duration":0.4379559999999998,"midi":86,"time":92.40871599999998,"velocity":0.3937007874015748},{"duration":0.4379559999999998,"midi":85,"time":93.06564999999999,"velocity":0.3937007874015748},{"duration":0.4379559999999998,"midi":81,"time":93.722584,"velocity":0.3937007874015748},{"duration":0.4379559999999998,"midi":80,"time":94.16054,"velocity":0.3937007874015748},{"duration":0.4379559999999998,"midi":81,"time":94.598496,"velocity":0.3937007874015748},{"duration":0.4379559999999998,"midi":80,"time":95.25542999999999,"velocity":0.3937007874015748},{"duration":0.4379559999999998,"midi":86,"time":95.912364,"velocity":0.3937007874015748},{"duration":0.4379559999999998,"midi":85,"time":96.56929799999999,"velocity":0.3937007874015748},{"duration":0.1094889999999964,"midi":85,"time":97.226232,"velocity":0.3937007874015748},{"duration":0.1094890000000106,"midi":83,"time":97.32203487499999,"velocity":0.3937007874015748},{"duration":0.218978000000007,"midi":81,"time":97.44520999999999,"velocity":0.3937007874015748},{"duration":0.2189779999999928,"midi":80,"time":97.664188,"velocity":0.3937007874015748},{"duration":0.5474449999999962,"midi":73,"time":97.88316599999999,"velocity":0.3937007874015748},{"duration":0.5474449999999962,"midi":81,"time":97.88316599999999,"velocity":0.3937007874015748},{"duration":0.3284669999999892,"midi":69,"time":98.102144,"velocity":0.3937007874015748},{"duration":0.1094890000000106,"midi":78,"time":98.43061099999998,"velocity":0.3937007874015748},{"duration":0.1094890000000106,"midi":66,"time":98.43061099999998,"velocity":0.3937007874015748},{"duration":0.2189779999999928,"midi":73,"time":98.5401,"velocity":0.3937007874015748},{"duration":0.2189779999999928,"midi":85,"time":98.5401,"velocity":0.3937007874015748},{"duration":0.218978000000007,"midi":78,"time":98.75907799999999,"velocity":0.3937007874015748},{"duration":0.218978000000007,"midi":66,"time":98.75907799999999,"velocity":0.3937007874015748},{"duration":0.3284669999999892,"midi":86,"time":98.978056,"velocity":0.3937007874015748},{"duration":0.3284669999999892,"midi":74,"time":98.978056,"velocity":0.3937007874015748},{"duration":0.3284669999999892,"midi":86,"time":98.978056,"velocity":0.3937007874015748},{"duration":0.1094890000000106,"midi":66,"time":99.30652299999998,"velocity":0.3937007874015748},{"duration":0.1094890000000106,"midi":78,"time":99.30652299999998,"velocity":0.3937007874015748},{"duration":0.2189779999999928,"midi":73,"time":99.416012,"velocity":0.3937007874015748},{"duration":0.2189779999999928,"midi":85,"time":99.416012,"velocity":0.3937007874015748},{"duration":0.218978000000007,"midi":78,"time":99.63498999999999,"velocity":0.3937007874015748},{"duration":0.218978000000007,"midi":66,"time":99.63498999999999,"velocity":0.3937007874015748},{"duration":0.3284669999999892,"midi":80,"time":99.853968,"velocity":0.3937007874015748},{"duration":0.3284669999999892,"midi":80,"time":99.853968,"velocity":0.3937007874015748},{"duration":0.3284669999999892,"midi":68,"time":99.853968,"velocity":0.3937007874015748},{"duration":0.1094890000000106,"midi":77,"time":100.18243499999998,"velocity":0.3937007874015748},{"duration":0.1094890000000106,"midi":65,"time":100.18243499999998,"velocity":0.3937007874015748},{"duration":0.2189779999999928,"midi":81,"time":100.291924,"velocity":0.3937007874015748},{"duration":0.2189779999999928,"midi":69,"time":100.291924,"velocity":0.3937007874015748},{"duration":0.218978000000007,"midi":65,"time":100.51090199999999,"velocity":0.3937007874015748},{"duration":0.218978000000007,"midi":77,"time":100.51090199999999,"velocity":0.3937007874015748},{"duration":0.3284669999999892,"midi":85,"time":100.72988,"velocity":0.3937007874015748},{"duration":0.3284669999999892,"midi":73,"time":100.72988,"velocity":0.3937007874015748},{"duration":0.1094890000000106,"midi":86,"time":101.05834699999998,"velocity":0.3937007874015748},{"duration":0.1094890000000106,"midi":86,"time":101.05834699999998,"velocity":0.3937007874015748},{"duration":0.1094890000000106,"midi":74,"time":101.05834699999998,"velocity":0.3937007874015748},{"duration":0.2189779999999928,"midi":73,"time":101.167836,"velocity":0.3937007874015748},{"duration":0.2189779999999928,"midi":85,"time":101.167836,"velocity":0.3937007874015748},{"duration":0.218978000000007,"midi":71,"time":101.38681399999999,"velocity":0.3937007874015748},{"duration":0.218978000000007,"midi":83,"time":101.38681399999999,"velocity":0.3937007874015748},{"duration":0.2189779999999928,"midi":62,"time":101.605792,"velocity":0.3937007874015748},{"duration":0.2189779999999928,"midi":74,"time":101.605792,"velocity":0.3937007874015748},{"duration":0.1094890000000106,"midi":78,"time":101.93425899999998,"velocity":0.3937007874015748},{"duration":0.1094890000000106,"midi":66,"time":101.93425899999998,"velocity":0.3937007874015748},{"duration":0.2189779999999928,"midi":74,"time":102.043748,"velocity":0.3937007874015748},{"duration":0.2189779999999928,"midi":62,"time":102.043748,"velocity":0.3937007874015748},{"duration":0.218978000000007,"midi":66,"time":102.26272599999999,"velocity":0.3937007874015748},{"duration":0.218978000000007,"midi":78,"time":102.26272599999999,"velocity":0.3937007874015748},{"duration":0.3284670000000034,"midi":86,"time":102.481704,"velocity":0.3937007874015748},{"duration":0.3284670000000034,"midi":68,"time":102.481704,"velocity":0.3937007874015748},{"duration":0.3284670000000034,"midi":80,"time":102.481704,"velocity":0.3937007874015748},{"duration":0.1094889999999964,"midi":81,"time":102.810171,"velocity":0.3937007874015748},{"duration":0.1094889999999964,"midi":69,"time":102.810171,"velocity":0.3937007874015748},{"duration":0.2189779999999928,"midi":68,"time":102.91966,"velocity":0.3937007874015748},{"duration":0.2189779999999928,"midi":80,"time":102.91966,"velocity":0.3937007874015748},{"duration":0.218978000000007,"midi":78,"time":103.13863799999999,"velocity":0.3937007874015748},{"duration":0.218978000000007,"midi":66,"time":103.13863799999999,"velocity":0.3937007874015748},{"duration":0.3284670000000034,"midi":65,"time":103.357616,"velocity":0.3937007874015748},{"duration":0.3284670000000034,"midi":77,"time":103.357616,"velocity":0.3937007874015748},{"duration":0.3284670000000034,"midi":80,"time":103.357616,"velocity":0.3937007874015748},{"duration":0.1094889999999964,"midi":80,"time":103.686083,"velocity":0.3937007874015748},{"duration":0.1094889999999964,"midi":68,"time":103.686083,"velocity":0.3937007874015748},{"duration":0.2189779999999928,"midi":65,"time":103.79557199999999,"velocity":0.3937007874015748},{"duration":0.2189779999999928,"midi":77,"time":103.79557199999999,"velocity":0.3937007874015748},{"duration":0.218978000000007,"midi":68,"time":104.01454999999999,"velocity":0.3937007874015748},{"duration":0.218978000000007,"midi":80,"time":104.01454999999999,"velocity":0.3937007874015748},{"duration":0.3284670000000034,"midi":71,"time":104.23352799999999,"velocity":0.3937007874015748},{"duration":0.3284670000000034,"midi":83,"time":104.23352799999999,"velocity":0.3937007874015748},{"duration":0.1094889999999964,"midi":85,"time":104.561995,"velocity":0.3937007874015748},{"duration":0.1094889999999964,"midi":86,"time":104.561995,"velocity":0.3937007874015748},{"duration":0.1094889999999964,"midi":73,"time":104.561995,"velocity":0.3937007874015748},{"duration":0.2189779999999928,"midi":71,"time":104.67148399999999,"velocity":0.3937007874015748},{"duration":0.2189779999999928,"midi":83,"time":104.67148399999999,"velocity":0.3937007874015748},{"duration":0.218978000000007,"midi":81,"time":104.89046199999999,"velocity":0.3937007874015748},{"duration":0.218978000000007,"midi":69,"time":104.89046199999999,"velocity":0.3937007874015748},{"duration":0.3284670000000034,"midi":69,"time":105.10943999999999,"velocity":0.3937007874015748},{"duration":0.3284670000000034,"midi":81,"time":105.10943999999999,"velocity":0.3937007874015748},{"duration":0.1094889999999964,"midi":66,"time":105.437907,"velocity":0.3937007874015748},{"duration":0.1094889999999964,"midi":78,"time":105.437907,"velocity":0.3937007874015748},{"duration":0.2189779999999928,"midi":73,"time":105.54739599999999,"velocity":0.3937007874015748},{"duration":0.2189779999999928,"midi":85,"time":105.54739599999999,"velocity":0.3937007874015748},{"duration":0.218978000000007,"midi":66,"time":105.76637399999998,"velocity":0.3937007874015748},{"duration":0.218978000000007,"midi":78,"time":105.76637399999998,"velocity":0.3937007874015748},{"duration":0.3284670000000034,"midi":74,"time":105.98535199999999,"velocity":0.3937007874015748},{"duration":0.3284670000000034,"midi":86,"time":105.98535199999999,"velocity":0.3937007874015748},{"duration":0.3284670000000034,"midi":86,"time":105.98535199999999,"velocity":0.3937007874015748},{"duration":0.1094889999999964,"midi":66,"time":106.313819,"velocity":0.3937007874015748},{"duration":0.1094889999999964,"midi":78,"time":106.313819,"velocity":0.3937007874015748},{"duration":0.2189779999999928,"midi":85,"time":106.42330799999999,"velocity":0.3937007874015748},{"duration":0.2189779999999928,"midi":73,"time":106.42330799999999,"velocity":0.3937007874015748},{"duration":0.218978000000007,"midi":66,"time":106.64228599999998,"velocity":0.3937007874015748},{"duration":0.218978000000007,"midi":78,"time":106.64228599999998,"velocity":0.3937007874015748},{"duration":0.3284670000000034,"midi":80,"time":106.86126399999999,"velocity":0.3937007874015748},{"duration":0.3284670000000034,"midi":68,"time":106.86126399999999,"velocity":0.3937007874015748},{"duration":0.3284670000000034,"midi":80,"time":106.86126399999999,"velocity":0.3937007874015748},{"duration":0.1094889999999964,"midi":77,"time":107.189731,"velocity":0.3937007874015748},{"duration":0.1094889999999964,"midi":65,"time":107.189731,"velocity":0.3937007874015748},{"duration":0.2189779999999928,"midi":69,"time":107.29921999999999,"velocity":0.3937007874015748},{"duration":0.2189779999999928,"midi":81,"time":107.29921999999999,"velocity":0.3937007874015748},{"duration":0.218978000000007,"midi":65,"time":107.51819799999998,"velocity":0.3937007874015748},{"duration":0.218978000000007,"midi":77,"time":107.51819799999998,"velocity":0.3937007874015748},{"duration":0.3284670000000034,"midi":85,"time":107.73717599999999,"velocity":0.3937007874015748},{"duration":0.3284670000000034,"midi":73,"time":107.73717599999999,"velocity":0.3937007874015748},{"duration":0.1094889999999964,"midi":86,"time":108.065643,"velocity":0.3937007874015748},{"duration":0.1094889999999964,"midi":86,"time":108.065643,"velocity":0.3937007874015748},{"duration":0.1094889999999964,"midi":74,"time":108.065643,"velocity":0.3937007874015748},{"duration":0.2189779999999928,"midi":73,"time":108.17513199999999,"velocity":0.3937007874015748},{"duration":0.2189779999999928,"midi":85,"time":108.17513199999999,"velocity":0.3937007874015748},{"duration":0.218978000000007,"midi":83,"time":108.39410999999998,"velocity":0.3937007874015748},{"duration":0.218978000000007,"midi":71,"time":108.39410999999998,"velocity":0.3937007874015748},{"duration":0.2189779999999928,"midi":62,"time":108.61308799999999,"velocity":0.3937007874015748},{"duration":0.2189779999999928,"midi":74,"time":108.61308799999999,"velocity":0.3937007874015748},{"duration":0.1094889999999964,"midi":78,"time":108.941555,"velocity":0.3937007874015748},{"duration":0.1094889999999964,"midi":66,"time":108.941555,"velocity":0.3937007874015748},{"duration":0.2189779999999928,"midi":74,"time":109.05104399999999,"velocity":0.3937007874015748},{"duration":0.2189779999999928,"midi":62,"time":109.05104399999999,"velocity":0.3937007874015748},{"duration":0.218978000000007,"midi":66,"time":109.27002199999998,"velocity":0.3937007874015748},{"duration":0.218978000000007,"midi":78,"time":109.27002199999998,"velocity":0.3937007874015748},{"duration":0.3284670000000034,"midi":68,"time":109.48899999999999,"velocity":0.3937007874015748},{"duration":0.3284670000000034,"midi":80,"time":109.48899999999999,"velocity":0.3937007874015748},{"duration":0.1094889999999964,"midi":69,"time":109.817467,"velocity":0.3937007874015748},{"duration":0.1094889999999964,"midi":81,"time":109.817467,"velocity":0.3937007874015748},{"duration":0.2189779999999928,"midi":80,"time":109.92695599999999,"velocity":0.3937007874015748},{"duration":0.2189779999999928,"midi":68,"time":109.92695599999999,"velocity":0.3937007874015748},{"duration":0.218978000000007,"midi":78,"time":110.14593399999998,"velocity":0.3937007874015748},{"duration":0.218978000000007,"midi":66,"time":110.14593399999998,"velocity":0.3937007874015748},{"duration":0.3284670000000034,"midi":65,"time":110.36491199999999,"velocity":0.3937007874015748},{"duration":0.3284670000000034,"midi":77,"time":110.36491199999999,"velocity":0.3937007874015748},{"duration":0.1094889999999964,"midi":80,"time":110.693379,"velocity":0.3937007874015748},{"duration":0.1094889999999964,"midi":68,"time":110.693379,"velocity":0.3937007874015748},{"duration":0.2189779999999928,"midi":77,"time":110.80286799999999,"velocity":0.3937007874015748},{"duration":0.2189779999999928,"midi":65,"time":110.80286799999999,"velocity":0.3937007874015748},{"duration":0.218978000000007,"midi":68,"time":111.02184599999998,"velocity":0.3937007874015748},{"duration":0.218978000000007,"midi":80,"time":111.02184599999998,"velocity":0.3937007874015748},{"duration":0.3284670000000034,"midi":83,"time":111.24082399999999,"velocity":0.3937007874015748},{"duration":0.3284670000000034,"midi":71,"time":111.24082399999999,"velocity":0.3937007874015748},{"duration":0.1094889999999964,"midi":85,"time":111.56929099999999,"velocity":0.3937007874015748},{"duration":0.1094889999999964,"midi":73,"time":111.56929099999999,"velocity":0.3937007874015748},{"duration":0.2189779999999928,"midi":71,"time":111.67877999999999,"velocity":0.3937007874015748},{"duration":0.2189779999999928,"midi":83,"time":111.67877999999999,"velocity":0.3937007874015748},{"duration":0.218978000000007,"midi":69,"time":111.89775799999998,"velocity":0.3937007874015748},{"duration":0.218978000000007,"midi":81,"time":111.89775799999998,"velocity":0.3937007874015748},{"duration":0.3284670000000034,"midi":81,"time":112.11673599999999,"velocity":0.3937007874015748},{"duration":0.3284670000000034,"midi":69,"time":112.11673599999999,"velocity":0.3937007874015748},{"duration":0.1094889999999964,"midi":66,"time":112.44520299999999,"velocity":0.3937007874015748},{"duration":0.1094889999999964,"midi":78,"time":112.44520299999999,"velocity":0.3937007874015748},{"duration":0.218978000000007,"midi":73,"time":112.55469199999999,"velocity":0.3937007874015748},{"duration":0.218978000000007,"midi":85,"time":112.55469199999999,"velocity":0.3937007874015748},{"duration":0.2189779999999928,"midi":78,"time":112.77367,"velocity":0.3937007874015748},{"duration":0.2189779999999928,"midi":66,"time":112.77367,"velocity":0.3937007874015748},{"duration":0.3284670000000034,"midi":86,"time":112.99264799999999,"velocity":0.3937007874015748},{"duration":0.3284670000000034,"midi":74,"time":112.99264799999999,"velocity":0.3937007874015748},{"duration":0.1094889999999964,"midi":66,"time":113.32111499999999,"velocity":0.3937007874015748},{"duration":0.1094889999999964,"midi":78,"time":113.32111499999999,"velocity":0.3937007874015748},{"duration":0.218978000000007,"midi":85,"time":113.43060399999999,"velocity":0.3937007874015748},{"duration":0.218978000000007,"midi":73,"time":113.43060399999999,"velocity":0.3937007874015748},{"duration":0.2189779999999928,"midi":66,"time":113.649582,"velocity":0.3937007874015748},{"duration":0.2189779999999928,"midi":78,"time":113.649582,"velocity":0.3937007874015748},{"duration":0.3284670000000034,"midi":80,"time":113.86855999999999,"velocity":0.3937007874015748},{"duration":0.3284670000000034,"midi":68,"time":113.86855999999999,"velocity":0.3937007874015748},{"duration":0.1094889999999964,"midi":65,"time":114.19702699999999,"velocity":0.3937007874015748},{"duration":0.1094889999999964,"midi":77,"time":114.19702699999999,"velocity":0.3937007874015748},{"duration":0.218978000000007,"midi":69,"time":114.30651599999999,"velocity":0.3937007874015748},{"duration":0.218978000000007,"midi":81,"time":114.30651599999999,"velocity":0.3937007874015748},{"duration":0.2189779999999928,"midi":77,"time":114.525494,"velocity":0.3937007874015748},{"duration":0.2189779999999928,"midi":65,"time":114.525494,"velocity":0.3937007874015748},{"duration":0.3284670000000034,"midi":73,"time":114.74447199999999,"velocity":0.3937007874015748},{"duration":0.3284670000000034,"midi":85,"time":114.74447199999999,"velocity":0.3937007874015748},{"duration":0.1094889999999964,"midi":74,"time":115.07293899999999,"velocity":0.3937007874015748},{"duration":0.1094889999999964,"midi":86,"time":115.07293899999999,"velocity":0.3937007874015748},{"duration":0.218978000000007,"midi":85,"time":115.18242799999999,"velocity":0.3937007874015748},{"duration":0.218978000000007,"midi":73,"time":115.18242799999999,"velocity":0.3937007874015748},{"duration":0.2189779999999928,"midi":71,"time":115.401406,"velocity":0.3937007874015748},{"duration":0.2189779999999928,"midi":83,"time":115.401406,"velocity":0.3937007874015748},{"duration":0.218978000000007,"midi":62,"time":115.62038399999999,"velocity":0.3937007874015748},{"duration":0.218978000000007,"midi":74,"time":115.62038399999999,"velocity":0.3937007874015748},{"duration":0.1094889999999964,"midi":78,"time":115.94885099999999,"velocity":0.3937007874015748},{"duration":0.1094889999999964,"midi":66,"time":115.94885099999999,"velocity":0.3937007874015748},{"duration":0.218978000000007,"midi":74,"time":116.05833999999999,"velocity":0.3937007874015748},{"duration":0.218978000000007,"midi":62,"time":116.05833999999999,"velocity":0.3937007874015748},{"duration":0.2189779999999928,"midi":66,"time":116.277318,"velocity":0.3937007874015748},{"duration":0.2189779999999928,"midi":78,"time":116.277318,"velocity":0.3937007874015748},{"duration":0.3284670000000034,"midi":68,"time":116.49629599999999,"velocity":0.3937007874015748},{"duration":0.3284670000000034,"midi":80,"time":116.49629599999999,"velocity":0.3937007874015748},{"duration":0.1094889999999964,"midi":69,"time":116.82476299999999,"velocity":0.3937007874015748},{"duration":0.1094889999999964,"midi":81,"time":116.82476299999999,"velocity":0.3937007874015748},{"duration":0.218978000000007,"midi":68,"time":116.93425199999999,"velocity":0.3937007874015748},{"duration":0.218978000000007,"midi":80,"time":116.93425199999999,"velocity":0.3937007874015748},{"duration":0.2189779999999928,"midi":78,"time":117.15323,"velocity":0.3937007874015748},{"duration":0.2189779999999928,"midi":66,"time":117.15323,"velocity":0.3937007874015748},{"duration":0.3284670000000034,"midi":77,"time":117.37220799999999,"velocity":0.3937007874015748},{"duration":0.3284670000000034,"midi":65,"time":117.37220799999999,"velocity":0.3937007874015748},{"duration":0.1094889999999964,"midi":80,"time":117.70067499999999,"velocity":0.3937007874015748},{"duration":0.1094889999999964,"midi":68,"time":117.70067499999999,"velocity":0.3937007874015748},{"duration":0.218978000000007,"midi":65,"time":117.81016399999999,"velocity":0.3937007874015748},{"duration":0.218978000000007,"midi":77,"time":117.81016399999999,"velocity":0.3937007874015748},{"duration":0.2189779999999928,"midi":68,"time":118.029142,"velocity":0.3937007874015748},{"duration":0.2189779999999928,"midi":80,"time":118.029142,"velocity":0.3937007874015748},{"duration":0.3284670000000034,"midi":83,"time":118.24811999999999,"velocity":0.3937007874015748},{"duration":0.3284670000000034,"midi":71,"time":118.24811999999999,"velocity":0.3937007874015748},{"duration":0.1094889999999964,"midi":73,"time":118.57658699999999,"velocity":0.3937007874015748},{"duration":0.1094889999999964,"midi":85,"time":118.57658699999999,"velocity":0.3937007874015748},{"duration":0.218978000000007,"midi":71,"time":118.68607599999999,"velocity":0.3937007874015748},{"duration":0.218978000000007,"midi":83,"time":118.68607599999999,"velocity":0.3937007874015748},{"duration":0.2189779999999928,"midi":81,"time":118.90505399999999,"velocity":0.3937007874015748},{"duration":0.2189779999999928,"midi":69,"time":118.90505399999999,"velocity":0.3937007874015748},{"duration":0.3284670000000034,"midi":69,"time":119.12403199999999,"velocity":0.3937007874015748},{"duration":0.3284670000000034,"midi":81,"time":119.12403199999999,"velocity":0.3937007874015748},{"duration":0.1094889999999964,"midi":66,"time":119.45249899999999,"velocity":0.3937007874015748},{"duration":0.1094889999999964,"midi":78,"time":119.45249899999999,"velocity":0.3937007874015748},{"duration":0.218978000000007,"midi":73,"time":119.56198799999999,"velocity":0.3937007874015748},{"duration":0.218978000000007,"midi":85,"time":119.56198799999999,"velocity":0.3937007874015748},{"duration":0.2189779999999928,"midi":78,"time":119.78096599999999,"velocity":0.3937007874015748},{"duration":0.2189779999999928,"midi":66,"time":119.78096599999999,"velocity":0.3937007874015748},{"duration":0.3284670000000034,"midi":74,"time":119.99994399999999,"velocity":0.3937007874015748},{"duration":0.3284670000000034,"midi":86,"time":119.99994399999999,"velocity":0.3937007874015748},{"duration":0.1094889999999964,"midi":66,"time":120.32841099999999,"velocity":0.3937007874015748},{"duration":0.1094889999999964,"midi":78,"time":120.32841099999999,"velocity":0.3937007874015748},{"duration":0.218978000000007,"midi":73,"time":120.43789999999998,"velocity":0.3937007874015748},{"duration":0.218978000000007,"midi":85,"time":120.43789999999998,"velocity":0.3937007874015748},{"duration":0.2189779999999928,"midi":66,"time":120.65687799999999,"velocity":0.3937007874015748},{"duration":0.2189779999999928,"midi":78,"time":120.65687799999999,"velocity":0.3937007874015748},{"duration":0.3284670000000034,"midi":80,"time":120.87585599999998,"velocity":0.3937007874015748},{"duration":0.3284670000000034,"midi":68,"time":120.87585599999998,"velocity":0.3937007874015748},{"duration":0.1094889999999964,"midi":65,"time":121.20432299999999,"velocity":0.3937007874015748},{"duration":0.1094889999999964,"midi":77,"time":121.20432299999999,"velocity":0.3937007874015748},{"duration":0.218978000000007,"midi":81,"time":121.31381199999998,"velocity":0.3937007874015748},{"duration":0.218978000000007,"midi":69,"time":121.31381199999998,"velocity":0.3937007874015748},{"duration":0.2189779999999928,"midi":65,"time":121.53278999999999,"velocity":0.3937007874015748},{"duration":0.2189779999999928,"midi":77,"time":121.53278999999999,"velocity":0.3937007874015748},{"duration":0.3284670000000034,"midi":73,"time":121.75176799999998,"velocity":0.3937007874015748},{"duration":0.3284670000000034,"midi":85,"time":121.75176799999998,"velocity":0.3937007874015748},{"duration":0.1094889999999964,"midi":74,"time":122.08023499999999,"velocity":0.3937007874015748},{"duration":0.1094889999999964,"midi":86,"time":122.08023499999999,"velocity":0.3937007874015748},{"duration":0.218978000000007,"midi":73,"time":122.18972399999998,"velocity":0.3937007874015748},{"duration":0.218978000000007,"midi":85,"time":122.18972399999998,"velocity":0.3937007874015748},{"duration":0.2189779999999928,"midi":83,"time":122.40870199999999,"velocity":0.3937007874015748},{"duration":0.2189779999999928,"midi":71,"time":122.40870199999999,"velocity":0.3937007874015748},{"duration":0.218978000000007,"midi":74,"time":122.62767999999998,"velocity":0.3937007874015748},{"duration":0.218978000000007,"midi":62,"time":122.62767999999998,"velocity":0.3937007874015748},{"duration":0.1094889999999964,"midi":78,"time":122.95614699999999,"velocity":0.3937007874015748},{"duration":0.1094889999999964,"midi":66,"time":122.95614699999999,"velocity":0.3937007874015748},{"duration":0.218978000000007,"midi":74,"time":123.06563599999998,"velocity":0.3937007874015748},{"duration":0.218978000000007,"midi":62,"time":123.06563599999998,"velocity":0.3937007874015748},{"duration":0.2189779999999928,"midi":66,"time":123.28461399999999,"velocity":0.3937007874015748},{"duration":0.2189779999999928,"midi":78,"time":123.28461399999999,"velocity":0.3937007874015748},{"duration":0.3284670000000034,"midi":68,"time":123.50359199999998,"velocity":0.3937007874015748},{"duration":0.3284670000000034,"midi":80,"time":123.50359199999998,"velocity":0.3937007874015748},{"duration":0.1094889999999964,"midi":69,"time":123.83205899999999,"velocity":0.3937007874015748},{"duration":0.1094889999999964,"midi":81,"time":123.83205899999999,"velocity":0.3937007874015748},{"duration":0.218978000000007,"midi":80,"time":123.94154799999998,"velocity":0.3937007874015748},{"duration":0.218978000000007,"midi":68,"time":123.94154799999998,"velocity":0.3937007874015748},{"duration":0.2189779999999928,"midi":66,"time":124.16052599999999,"velocity":0.3937007874015748},{"duration":0.2189779999999928,"midi":78,"time":124.16052599999999,"velocity":0.3937007874015748},{"duration":0.3284670000000034,"midi":65,"time":124.37950399999998,"velocity":0.3937007874015748},{"duration":0.3284670000000034,"midi":77,"time":124.37950399999998,"velocity":0.3937007874015748},{"duration":0.1094889999999964,"midi":68,"time":124.70797099999999,"velocity":0.3937007874015748},{"duration":0.1094889999999964,"midi":80,"time":124.70797099999999,"velocity":0.3937007874015748},{"duration":0.218978000000007,"midi":77,"time":124.81745999999998,"velocity":0.3937007874015748},{"duration":0.218978000000007,"midi":65,"time":124.81745999999998,"velocity":0.3937007874015748},{"duration":0.2189779999999928,"midi":68,"time":125.03643799999999,"velocity":0.3937007874015748},{"duration":0.2189779999999928,"midi":80,"time":125.03643799999999,"velocity":0.3937007874015748},{"duration":0.3284670000000034,"midi":71,"time":125.25541599999998,"velocity":0.3937007874015748},{"duration":0.3284670000000034,"midi":83,"time":125.25541599999998,"velocity":0.3937007874015748},{"duration":0.1094889999999964,"midi":73,"time":125.58388299999999,"velocity":0.3937007874015748},{"duration":0.1094889999999964,"midi":85,"time":125.58388299999999,"velocity":0.3937007874015748},{"duration":0.4379559999999998,"midi":71,"time":125.69337199999998,"velocity":0.3937007874015748},{"duration":0.4379559999999998,"midi":83,"time":125.69337199999998,"velocity":0.3937007874015748},{"duration":0.3284669999999892,"midi":61,"time":125.802861,"velocity":0.3937007874015748},{"duration":0.2189779999999928,"midi":59,"time":125.91234999999999,"velocity":0.3937007874015748},{"duration":0.3284670000000034,"midi":81,"time":126.13132799999998,"velocity":0.3937007874015748},{"duration":0.3284670000000034,"midi":69,"time":126.13132799999998,"velocity":0.3937007874015748},{"duration":0.1094889999999964,"midi":66,"time":126.45979499999999,"velocity":0.3937007874015748},{"duration":0.1094889999999964,"midi":78,"time":126.45979499999999,"velocity":0.3937007874015748},{"duration":0.218978000000007,"midi":73,"time":126.56928399999998,"velocity":0.3937007874015748},{"duration":0.218978000000007,"midi":85,"time":126.56928399999998,"velocity":0.3937007874015748},{"duration":0.2189779999999928,"midi":78,"time":126.78826199999999,"velocity":0.3937007874015748},{"duration":0.2189779999999928,"midi":66,"time":126.78826199999999,"velocity":0.3937007874015748},{"duration":0.3284670000000034,"midi":86,"time":127.00723999999998,"velocity":0.3937007874015748},{"duration":0.3284670000000034,"midi":74,"time":127.00723999999998,"velocity":0.3937007874015748},{"duration":0.1094889999999964,"midi":66,"time":127.33570699999999,"velocity":0.3937007874015748},{"duration":0.1094889999999964,"midi":78,"time":127.33570699999999,"velocity":0.3937007874015748},{"duration":0.218978000000007,"midi":85,"time":127.44519599999998,"velocity":0.3937007874015748},{"duration":0.218978000000007,"midi":73,"time":127.44519599999998,"velocity":0.3937007874015748},{"duration":0.2189779999999928,"midi":78,"time":127.66417399999999,"velocity":0.3937007874015748},{"duration":0.2189779999999928,"midi":66,"time":127.66417399999999,"velocity":0.3937007874015748},{"duration":0.3284670000000034,"midi":68,"time":127.88315199999998,"velocity":0.3937007874015748},{"duration":0.3284670000000034,"midi":80,"time":127.88315199999998,"velocity":0.3937007874015748},{"duration":0.1094889999999964,"midi":77,"time":128.21161899999998,"velocity":0.3937007874015748},{"duration":0.1094889999999964,"midi":65,"time":128.21161899999998,"velocity":0.3937007874015748},{"duration":0.2189779999999928,"midi":69,"time":128.32110799999998,"velocity":0.3937007874015748},{"duration":0.2189779999999928,"midi":81,"time":128.32110799999998,"velocity":0.3937007874015748},{"duration":0.2189780000000212,"midi":65,"time":128.54008599999997,"velocity":0.3937007874015748},{"duration":0.2189780000000212,"midi":77,"time":128.54008599999997,"velocity":0.3937007874015748},{"duration":0.3284669999999892,"midi":85,"time":128.759064,"velocity":0.3937007874015748},{"duration":0.3284669999999892,"midi":73,"time":128.759064,"velocity":0.3937007874015748},{"duration":0.1094889999999964,"midi":86,"time":129.08753099999998,"velocity":0.3937007874015748},{"duration":0.1094889999999964,"midi":74,"time":129.08753099999998,"velocity":0.3937007874015748},{"duration":0.2189779999999928,"midi":85,"time":129.19701999999998,"velocity":0.3937007874015748},{"duration":0.2189779999999928,"midi":73,"time":129.19701999999998,"velocity":0.3937007874015748},{"duration":0.2189780000000212,"midi":83,"time":129.41599799999997,"velocity":0.3937007874015748},{"duration":0.2189780000000212,"midi":71,"time":129.41599799999997,"velocity":0.3937007874015748},{"duration":0.2189779999999928,"midi":74,"time":129.634976,"velocity":0.3937007874015748},{"duration":0.2189779999999928,"midi":62,"time":129.634976,"velocity":0.3937007874015748},{"duration":0.1094889999999964,"midi":66,"time":129.96344299999998,"velocity":0.3937007874015748},{"duration":0.1094889999999964,"midi":78,"time":129.96344299999998,"velocity":0.3937007874015748},{"duration":0.2189779999999928,"midi":74,"time":130.07293199999998,"velocity":0.3937007874015748},{"duration":0.2189779999999928,"midi":62,"time":130.07293199999998,"velocity":0.3937007874015748},{"duration":0.2189780000000212,"midi":78,"time":130.29190999999997,"velocity":0.3937007874015748},{"duration":0.2189780000000212,"midi":66,"time":130.29190999999997,"velocity":0.3937007874015748},{"duration":0.3284669999999892,"midi":80,"time":130.510888,"velocity":0.3937007874015748},{"duration":0.3284669999999892,"midi":68,"time":130.510888,"velocity":0.3937007874015748},{"duration":0.1094889999999964,"midi":69,"time":130.83935499999998,"velocity":0.3937007874015748},{"duration":0.1094889999999964,"midi":81,"time":130.83935499999998,"velocity":0.3937007874015748},{"duration":0.2189780000000212,"midi":80,"time":130.94884399999998,"velocity":0.3937007874015748},{"duration":0.2189780000000212,"midi":68,"time":130.94884399999998,"velocity":0.3937007874015748},{"duration":0.2189779999999928,"midi":78,"time":131.167822,"velocity":0.3937007874015748},{"duration":0.2189779999999928,"midi":66,"time":131.167822,"velocity":0.3937007874015748},{"duration":0.3284669999999892,"midi":65,"time":131.3868,"velocity":0.3937007874015748},{"duration":0.3284669999999892,"midi":77,"time":131.3868,"velocity":0.3937007874015748},{"duration":0.1094889999999964,"midi":68,"time":131.71526699999998,"velocity":0.3937007874015748},{"duration":0.1094889999999964,"midi":80,"time":131.71526699999998,"velocity":0.3937007874015748},{"duration":0.2189780000000212,"midi":77,"time":131.82475599999998,"velocity":0.3937007874015748},{"duration":0.2189780000000212,"midi":65,"time":131.82475599999998,"velocity":0.3937007874015748},{"duration":0.2189779999999928,"midi":80,"time":132.043734,"velocity":0.3937007874015748},{"duration":0.2189779999999928,"midi":68,"time":132.043734,"velocity":0.3937007874015748},{"duration":0.3284669999999892,"midi":71,"time":132.262712,"velocity":0.3937007874015748},{"duration":0.3284669999999892,"midi":83,"time":132.262712,"velocity":0.3937007874015748},{"duration":0.1094889999999964,"midi":85,"time":132.59117899999998,"velocity":0.3937007874015748},{"duration":0.1094889999999964,"midi":73,"time":132.59117899999998,"velocity":0.3937007874015748},{"duration":0.2189780000000212,"midi":71,"time":132.70066799999998,"velocity":0.3937007874015748},{"duration":0.2189780000000212,"midi":83,"time":132.70066799999998,"velocity":0.3937007874015748},{"duration":0.2189779999999928,"midi":69,"time":132.919646,"velocity":0.3937007874015748},{"duration":0.2189779999999928,"midi":81,"time":132.919646,"velocity":0.3937007874015748},{"duration":0.3284669999999892,"midi":69,"time":133.138624,"velocity":0.3937007874015748},{"duration":0.3284669999999892,"midi":81,"time":133.138624,"velocity":0.3937007874015748},{"duration":0.1094889999999964,"midi":66,"time":133.46709099999998,"velocity":0.3937007874015748},{"duration":0.1094889999999964,"midi":78,"time":133.46709099999998,"velocity":0.3937007874015748},{"duration":0.2189780000000212,"midi":85,"time":133.57657999999998,"velocity":0.3937007874015748},{"duration":0.2189780000000212,"midi":73,"time":133.57657999999998,"velocity":0.3937007874015748},{"duration":0.2189779999999928,"midi":78,"time":133.795558,"velocity":0.3937007874015748},{"duration":0.2189779999999928,"midi":66,"time":133.795558,"velocity":0.3937007874015748},{"duration":0.3284669999999892,"midi":74,"time":134.014536,"velocity":0.3937007874015748},{"duration":0.3284669999999892,"midi":86,"time":134.014536,"velocity":0.3937007874015748},{"duration":0.1094889999999964,"midi":78,"time":134.34300299999998,"velocity":0.3937007874015748},{"duration":0.1094889999999964,"midi":66,"time":134.34300299999998,"velocity":0.3937007874015748},{"duration":0.2189780000000212,"midi":85,"time":134.45249199999998,"velocity":0.3937007874015748},{"duration":0.2189780000000212,"midi":73,"time":134.45249199999998,"velocity":0.3937007874015748},{"duration":0.2189779999999928,"midi":66,"time":134.67147,"velocity":0.3937007874015748},{"duration":0.2189779999999928,"midi":78,"time":134.67147,"velocity":0.3937007874015748},{"duration":0.3284669999999892,"midi":81,"time":134.890448,"velocity":0.3937007874015748},{"duration":0.3284669999999892,"midi":69,"time":134.890448,"velocity":0.3937007874015748},{"duration":0.1094889999999964,"midi":78,"time":135.21891499999998,"velocity":0.3937007874015748},{"duration":0.1094889999999964,"midi":66,"time":135.21891499999998,"velocity":0.3937007874015748},{"duration":0.2189780000000212,"midi":85,"time":135.32840399999998,"velocity":0.3937007874015748},{"duration":0.2189780000000212,"midi":73,"time":135.32840399999998,"velocity":0.3937007874015748},{"duration":0.2189779999999928,"midi":66,"time":135.547382,"velocity":0.3937007874015748},{"duration":0.2189779999999928,"midi":78,"time":135.547382,"velocity":0.3937007874015748},{"duration":0.3284669999999892,"midi":86,"time":135.76636,"velocity":0.3937007874015748},{"duration":0.3284669999999892,"midi":74,"time":135.76636,"velocity":0.3937007874015748},{"duration":0.1094889999999964,"midi":66,"time":136.09482699999998,"velocity":0.3937007874015748},{"duration":0.1094889999999964,"midi":78,"time":136.09482699999998,"velocity":0.3937007874015748},{"duration":0.2189780000000212,"midi":85,"time":136.20431599999998,"velocity":0.3937007874015748},{"duration":0.2189780000000212,"midi":73,"time":136.20431599999998,"velocity":0.3937007874015748},{"duration":0.2189779999999928,"midi":78,"time":136.423294,"velocity":0.3937007874015748},{"duration":0.2189779999999928,"midi":66,"time":136.423294,"velocity":0.3937007874015748},{"duration":0.3284669999999892,"midi":81,"time":136.642272,"velocity":0.3937007874015748},{"duration":0.3284669999999892,"midi":69,"time":136.642272,"velocity":0.3937007874015748},{"duration":0.1094889999999964,"midi":66,"time":136.97073899999998,"velocity":0.3937007874015748},{"duration":0.1094889999999964,"midi":78,"time":136.97073899999998,"velocity":0.3937007874015748},{"duration":0.2189780000000212,"midi":85,"time":137.08022799999998,"velocity":0.3937007874015748},{"duration":0.2189780000000212,"midi":73,"time":137.08022799999998,"velocity":0.3937007874015748},{"duration":0.2189779999999928,"midi":78,"time":137.299206,"velocity":0.3937007874015748},{"duration":0.2189779999999928,"midi":66,"time":137.299206,"velocity":0.3937007874015748},{"duration":0.3284669999999892,"midi":86,"time":137.518184,"velocity":0.3937007874015748},{"duration":0.3284669999999892,"midi":74,"time":137.518184,"velocity":0.3937007874015748},{"duration":0.1094889999999964,"midi":78,"time":137.84665099999998,"velocity":0.3937007874015748},{"duration":0.1094889999999964,"midi":66,"time":137.84665099999998,"velocity":0.3937007874015748},{"duration":0.2189780000000212,"midi":85,"time":137.95613999999998,"velocity":0.3937007874015748},{"duration":0.2189780000000212,"midi":73,"time":137.95613999999998,"velocity":0.3937007874015748},{"duration":0.2189779999999928,"midi":66,"time":138.175118,"velocity":0.3937007874015748},{"duration":0.2189779999999928,"midi":78,"time":138.175118,"velocity":0.3937007874015748},{"duration":0.1094889999999964,"midi":71,"time":140.14592,"velocity":0.3937007874015748},{"duration":0.1094889999999964,"midi":69,"time":140.255409,"velocity":0.3937007874015748},{"duration":0.1094889999999964,"midi":66,"time":140.36489799999998,"velocity":0.3937007874015748},{"duration":0.1094889999999964,"midi":61,"time":140.47438699999998,"velocity":0.3937007874015748},{"duration":0.1094889999999964,"midi":69,"time":141.021832,"velocity":0.3937007874015748},{"duration":0.1094889999999964,"midi":73,"time":141.021832,"velocity":0.3937007874015748},{"duration":0.1094889999999964,"midi":78,"time":141.13132099999999,"velocity":0.3937007874015748},{"duration":0.3284670000000176,"midi":73,"time":141.45978799999997,"velocity":0.3937007874015748},{"duration":0.3284670000000176,"midi":78,"time":141.45978799999997,"velocity":0.3937007874015748},{"duration":0.3284670000000176,"midi":69,"time":141.45978799999997,"velocity":0.3937007874015748},{"duration":0.1094889999999964,"midi":73,"time":142.554678,"velocity":0.3937007874015748},{"duration":0.1094889999999964,"midi":78,"time":142.554678,"velocity":0.3937007874015748},{"duration":0.1094889999999964,"midi":73,"time":142.664167,"velocity":0.3937007874015748},{"duration":0.1094889999999964,"midi":78,"time":142.664167,"velocity":0.3937007874015748},{"duration":0.1094889999999964,"midi":80,"time":142.664167,"velocity":0.3937007874015748},{"duration":0.1094889999999964,"midi":73,"time":142.88314499999998,"velocity":0.3937007874015748},{"duration":0.1094889999999964,"midi":78,"time":142.88314499999998,"velocity":0.3937007874015748},{"duration":0.10948900000002482,"midi":79,"time":143.21161199999997,"velocity":0.3937007874015748},{"duration":0.10948900000002482,"midi":70,"time":143.21161199999997,"velocity":0.3937007874015748},{"duration":0.10948900000002482,"midi":74,"time":143.21161199999997,"velocity":0.3937007874015748},{"duration":0.1094889999999964,"midi":71,"time":144.52548,"velocity":0.3937007874015748},{"duration":0.1094889999999964,"midi":69,"time":144.63496899999998,"velocity":0.3937007874015748},{"duration":0.1094889999999964,"midi":66,"time":144.74445799999998,"velocity":0.3937007874015748},{"duration":0.1094889999999964,"midi":61,"time":144.85394699999998,"velocity":0.3937007874015748},{"duration":0.1094889999999964,"midi":81,"time":146.277304,"velocity":0.3937007874015748},{"duration":0.1094889999999964,"midi":73,"time":146.277304,"velocity":0.3937007874015748},{"duration":0.1094889999999964,"midi":78,"time":146.277304,"velocity":0.3937007874015748},{"duration":0.1094889999999964,"midi":73,"time":146.38679299999998,"velocity":0.3937007874015748},{"duration":0.1094889999999964,"midi":78,"time":146.38679299999998,"velocity":0.3937007874015748},{"duration":0.1094889999999964,"midi":80,"time":146.38679299999998,"velocity":0.3937007874015748},{"duration":0.1094889999999964,"midi":78,"time":146.49628199999998,"velocity":0.3937007874015748},{"duration":0.1094889999999964,"midi":73,"time":146.49628199999998,"velocity":0.3937007874015748},{"duration":0.1094889999999964,"midi":80,"time":146.49628199999998,"velocity":0.3937007874015748},{"duration":0.1094889999999964,"midi":73,"time":146.60577099999998,"velocity":0.3937007874015748},{"duration":0.1094889999999964,"midi":76,"time":146.60577099999998,"velocity":0.3937007874015748},{"duration":0.1094889999999964,"midi":78,"time":146.60577099999998,"velocity":0.3937007874015748},{"duration":0.3284670000000176,"midi":78,"time":146.71525999999997,"velocity":0.3937007874015748},{"duration":0.3284670000000176,"midi":73,"time":146.71525999999997,"velocity":0.3937007874015748},{"duration":0.1094889999999964,"midi":78,"time":149.78095199999998,"velocity":0.3937007874015748},{"duration":0.1094889999999964,"midi":81,"time":149.78095199999998,"velocity":0.3937007874015748},{"duration":0.1094889999999964,"midi":73,"time":149.78095199999998,"velocity":0.3937007874015748},{"duration":0.1094889999999964,"midi":78,"time":149.89044099999998,"velocity":0.3937007874015748},{"duration":0.1094889999999964,"midi":73,"time":149.89044099999998,"velocity":0.3937007874015748},{"duration":0.1094889999999964,"midi":80,"time":149.89044099999998,"velocity":0.3937007874015748},{"duration":0.3284669999999892,"midi":55,"time":150.218908,"velocity":0.3937007874015748},{"duration":0.2189779999999928,"midi":54,"time":150.65686399999998,"velocity":0.3937007874015748},{"duration":0.1094889999999964,"midi":54,"time":151.53277599999998,"velocity":0.3937007874015748},{"duration":0.1094889999999964,"midi":66,"time":151.64226499999998,"velocity":0.3937007874015748},{"duration":0.1094889999999964,"midi":69,"time":151.75175399999998,"velocity":0.3937007874015748},{"duration":0.10948900000002482,"midi":71,"time":151.86124299999997,"velocity":0.3937007874015748},{"duration":0.1094889999999964,"midi":73,"time":155.03642399999998,"velocity":0.3937007874015748},{"duration":0.1094889999999964,"midi":78,"time":155.03642399999998,"velocity":0.3937007874015748},{"duration":0.1094889999999964,"midi":81,"time":155.03642399999998,"velocity":0.3937007874015748},{"duration":0.1094889999999964,"midi":78,"time":155.14591299999998,"velocity":0.3937007874015748},{"duration":0.1094889999999964,"midi":73,"time":155.14591299999998,"velocity":0.3937007874015748},{"duration":0.1094889999999964,"midi":80,"time":155.14591299999998,"velocity":0.3937007874015748},{"duration":0.1094889999999964,"midi":80,"time":155.25540199999998,"velocity":0.3937007874015748},{"duration":0.1094889999999964,"midi":73,"time":155.25540199999998,"velocity":0.3937007874015748},{"duration":0.1094889999999964,"midi":78,"time":155.25540199999998,"velocity":0.3937007874015748},{"duration":0.10948900000002482,"midi":76,"time":155.36489099999997,"velocity":0.3937007874015748},{"duration":0.10948900000002482,"midi":78,"time":155.36489099999997,"velocity":0.3937007874015748},{"duration":0.10948900000002482,"midi":73,"time":155.36489099999997,"velocity":0.3937007874015748},{"duration":0.3284669999999892,"midi":78,"time":155.47438,"velocity":0.3937007874015748},{"duration":0.3284669999999892,"midi":73,"time":155.47438,"velocity":0.3937007874015748},{"duration":0.1094889999999964,"midi":78,"time":157.226204,"velocity":0.3937007874015748},{"duration":0.1094889999999964,"midi":81,"time":157.226204,"velocity":0.3937007874015748},{"duration":0.1094889999999964,"midi":73,"time":157.226204,"velocity":0.3937007874015748},{"duration":0.1094889999999964,"midi":73,"time":157.335693,"velocity":0.3937007874015748},{"duration":0.1094889999999964,"midi":78,"time":157.335693,"velocity":0.3937007874015748},{"duration":0.1094889999999964,"midi":80,"time":157.335693,"velocity":0.3937007874015748},{"duration":0.2189779999999928,"midi":78,"time":157.66415999999998,"velocity":0.3937007874015748},{"duration":0.2189779999999928,"midi":73,"time":157.66415999999998,"velocity":0.3937007874015748},{"duration":0.2189779999999928,"midi":69,"time":157.66415999999998,"velocity":0.3937007874015748},{"duration":0.1094889999999964,"midi":54,"time":158.978028,"velocity":0.3937007874015748},{"duration":0.1094889999999964,"midi":66,"time":159.087517,"velocity":0.3937007874015748},{"duration":0.1094889999999964,"midi":69,"time":159.197006,"velocity":0.3937007874015748},{"duration":0.1094889999999964,"midi":71,"time":159.30649499999998,"velocity":0.3937007874015748},{"duration":0.10948900000002482,"midi":73,"time":159.63496199999997,"velocity":0.3937007874015748},{"duration":0.1094889999999964,"midi":72,"time":159.963429,"velocity":0.3937007874015748},{"duration":0.1094889999999964,"midi":71,"time":160.29189599999998,"velocity":0.3937007874015748},{"duration":0.1094889999999964,"midi":69,"time":160.729852,"velocity":0.3937007874015748},{"duration":0.1094889999999964,"midi":66,"time":161.05831899999998,"velocity":0.3937007874015748},{"duration":0.1094889999999964,"midi":54,"time":162.04371999999998,"velocity":0.3937007874015748},{"duration":0.1094889999999964,"midi":66,"time":162.15320899999998,"velocity":0.3937007874015748},{"duration":0.10948900000002482,"midi":69,"time":162.26269799999997,"velocity":0.3937007874015748},{"duration":0.1094889999999964,"midi":71,"time":162.372187,"velocity":0.3937007874015748},{"duration":0.1094889999999964,"midi":73,"time":163.79554399999998,"velocity":0.3937007874015748},{"duration":0.1094889999999964,"midi":78,"time":163.79554399999998,"velocity":0.3937007874015748},{"duration":0.1094889999999964,"midi":73,"time":163.90503299999997,"velocity":0.3937007874015748},{"duration":0.1094889999999964,"midi":78,"time":163.90503299999997,"velocity":0.3937007874015748},{"duration":0.1094889999999964,"midi":81,"time":163.90503299999997,"velocity":0.3937007874015748},{"duration":0.10948900000002482,"midi":80,"time":164.01452199999997,"velocity":0.3937007874015748},{"duration":0.10948900000002482,"midi":73,"time":164.01452199999997,"velocity":0.3937007874015748},{"duration":0.10948900000002482,"midi":78,"time":164.01452199999997,"velocity":0.3937007874015748},{"duration":0.1094889999999964,"midi":78,"time":164.124011,"velocity":0.3937007874015748},{"duration":0.1094889999999964,"midi":73,"time":164.124011,"velocity":0.3937007874015748},{"duration":0.1094889999999964,"midi":80,"time":164.124011,"velocity":0.3937007874015748},{"duration":0.1094889999999964,"midi":54,"time":168.17510399999998,"velocity":0.3937007874015748},{"duration":0.10948900000002482,"midi":66,"time":168.28459299999997,"velocity":0.3937007874015748},{"duration":0.1094889999999964,"midi":69,"time":168.394082,"velocity":0.3937007874015748},{"duration":0.1094889999999964,"midi":71,"time":168.503571,"velocity":0.3937007874015748},{"duration":0.1094889999999964,"midi":78,"time":168.83203799999998,"velocity":0.3937007874015748},{"duration":0.1094889999999964,"midi":81,"time":168.83203799999998,"velocity":0.3937007874015748},{"duration":0.1094889999999964,"midi":73,"time":168.83203799999998,"velocity":0.3937007874015748},{"duration":0.1094889999999964,"midi":78,"time":168.94152699999998,"velocity":0.3937007874015748},{"duration":0.1094889999999964,"midi":80,"time":168.94152699999998,"velocity":0.3937007874015748},{"duration":0.1094889999999964,"midi":73,"time":168.94152699999998,"velocity":0.3937007874015748},{"duration":0.10948900000002482,"midi":69,"time":169.16050499999997,"velocity":0.3937007874015748},{"duration":0.10948900000002482,"midi":73,"time":169.16050499999997,"velocity":0.3937007874015748},{"duration":0.10948900000002482,"midi":78,"time":169.16050499999997,"velocity":0.3937007874015748},{"duration":0.2189779999999928,"midi":69,"time":169.488972,"velocity":0.3937007874015748},{"duration":0.2189779999999928,"midi":73,"time":169.488972,"velocity":0.3937007874015748},{"duration":0.2189779999999928,"midi":78,"time":169.488972,"velocity":0.3937007874015748},{"duration":0.1094889999999964,"midi":59,"time":170.364884,"velocity":0.3937007874015748},{"duration":0.1094889999999964,"midi":71,"time":170.364884,"velocity":0.3937007874015748},{"duration":0.1094889999999964,"midi":54,"time":170.58386199999998,"velocity":0.3937007874015748},{"duration":0.1094889999999964,"midi":71,"time":172.55466399999997,"velocity":0.3937007874015748},{"duration":0.10948900000002482,"midi":69,"time":172.66415299999997,"velocity":0.3937007874015748},{"duration":0.1094889999999964,"midi":66,"time":172.773642,"velocity":0.3937007874015748},{"duration":0.1094889999999964,"midi":61,"time":172.883131,"velocity":0.3937007874015748},{"duration":0.1094889999999964,"midi":81,"time":174.30648799999997,"velocity":0.3937007874015748},{"duration":0.1094889999999964,"midi":78,"time":174.30648799999997,"velocity":0.3937007874015748},{"duration":0.1094889999999964,"midi":73,"time":174.30648799999997,"velocity":0.3937007874015748},{"duration":0.10948900000002482,"midi":73,"time":174.41597699999997,"velocity":0.3937007874015748},{"duration":0.10948900000002482,"midi":78,"time":174.41597699999997,"velocity":0.3937007874015748},{"duration":0.10948900000002482,"midi":80,"time":174.41597699999997,"velocity":0.3937007874015748},{"duration":0.1094889999999964,"midi":78,"time":174.525466,"velocity":0.3937007874015748},{"duration":0.1094889999999964,"midi":80,"time":174.525466,"velocity":0.3937007874015748},{"duration":0.1094889999999964,"midi":73,"time":174.525466,"velocity":0.3937007874015748},{"duration":0.1094889999999964,"midi":78,"time":174.634955,"velocity":0.3937007874015748},{"duration":0.1094889999999964,"midi":73,"time":174.634955,"velocity":0.3937007874015748},{"duration":0.1094889999999964,"midi":76,"time":174.634955,"velocity":0.3937007874015748},{"duration":0.3284669999999892,"midi":78,"time":174.744444,"velocity":0.3937007874015748},{"duration":0.3284669999999892,"midi":73,"time":174.744444,"velocity":0.3937007874015748},{"duration":0.10948900000002482,"midi":54,"time":177.81013599999997,"velocity":0.3937007874015748},{"duration":0.1094889999999964,"midi":66,"time":177.919625,"velocity":0.3937007874015748},{"duration":0.1094889999999964,"midi":69,"time":178.029114,"velocity":0.3937007874015748},{"duration":0.1094889999999964,"midi":71,"time":178.138603,"velocity":0.3937007874015748},{"duration":0.10948900000002482,"midi":78,"time":179.56195999999997,"velocity":0.3937007874015748},{"duration":0.10948900000002482,"midi":73,"time":179.56195999999997,"velocity":0.3937007874015748},{"duration":0.10948900000002482,"midi":81,"time":179.56195999999997,"velocity":0.3937007874015748},{"duration":0.1094889999999964,"midi":80,"time":179.671449,"velocity":0.3937007874015748},{"duration":0.1094889999999964,"midi":78,"time":179.671449,"velocity":0.3937007874015748},{"duration":0.1094889999999964,"midi":73,"time":179.671449,"velocity":0.3937007874015748},{"duration":0.1094889999999964,"midi":73,"time":179.890427,"velocity":0.3937007874015748},{"duration":0.1094889999999964,"midi":78,"time":179.890427,"velocity":0.3937007874015748},{"duration":0.1094889999999964,"midi":69,"time":179.890427,"velocity":0.3937007874015748},{"duration":0.10948900000002482,"midi":78,"time":182.18969599999997,"velocity":0.3937007874015748},{"duration":0.10948900000002482,"midi":81,"time":182.18969599999997,"velocity":0.3937007874015748},{"duration":0.10948900000002482,"midi":73,"time":182.18969599999997,"velocity":0.3937007874015748},{"duration":0.1094889999999964,"midi":78,"time":182.299185,"velocity":0.3937007874015748},{"duration":0.1094889999999964,"midi":80,"time":182.299185,"velocity":0.3937007874015748},{"duration":0.1094889999999964,"midi":73,"time":182.299185,"velocity":0.3937007874015748},{"duration":0.1094889999999964,"midi":73,"time":182.518163,"velocity":0.3937007874015748},{"duration":0.1094889999999964,"midi":69,"time":182.518163,"velocity":0.3937007874015748},{"duration":0.1094889999999964,"midi":78,"time":182.518163,"velocity":0.3937007874015748},{"duration":0.2189779999999928,"midi":78,"time":183.50356399999998,"velocity":0.3937007874015748},{"duration":0.2189779999999928,"midi":69,"time":183.50356399999998,"velocity":0.3937007874015748},{"duration":0.2189779999999928,"midi":73,"time":183.50356399999998,"velocity":0.3937007874015748},{"duration":0.2189780000000212,"midi":78,"time":185.69334399999997,"velocity":0.3937007874015748},{"duration":0.2189780000000212,"midi":69,"time":185.69334399999997,"velocity":0.3937007874015748},{"duration":0.2189780000000212,"midi":73,"time":185.69334399999997,"velocity":0.3937007874015748},{"duration":0.1094889999999964,"midi":54,"time":187.00721199999998,"velocity":0.3937007874015748},{"duration":0.1094889999999964,"midi":66,"time":187.11670099999998,"velocity":0.3937007874015748},{"duration":0.1094889999999964,"midi":69,"time":187.22618999999997,"velocity":0.3937007874015748},{"duration":0.10948900000002482,"midi":71,"time":187.33567899999997,"velocity":0.3937007874015748},{"duration":0.1094889999999964,"midi":74,"time":187.88312399999998,"velocity":0.3937007874015748},{"duration":0.10948900000002482,"midi":73,"time":188.21159099999997,"velocity":0.3937007874015748},{"duration":0.1094889999999964,"midi":72,"time":188.540058,"velocity":0.3937007874015748},{"duration":0.1094889999999964,"midi":73,"time":190.072904,"velocity":0.3937007874015748},{"duration":0.1094889999999964,"midi":78,"time":190.072904,"velocity":0.3937007874015748},{"duration":0.1094889999999964,"midi":81,"time":190.182393,"velocity":0.3937007874015748},{"duration":0.1094889999999964,"midi":78,"time":190.182393,"velocity":0.3937007874015748},{"duration":0.1094889999999964,"midi":73,"time":190.182393,"velocity":0.3937007874015748},{"duration":0.1094889999999964,"midi":80,"time":190.291882,"velocity":0.3937007874015748},{"duration":0.1094889999999964,"midi":78,"time":190.291882,"velocity":0.3937007874015748},{"duration":0.1094889999999964,"midi":73,"time":190.291882,"velocity":0.3937007874015748},{"duration":0.1094889999999964,"midi":80,"time":190.40137099999998,"velocity":0.3937007874015748},{"duration":0.1094889999999964,"midi":78,"time":190.40137099999998,"velocity":0.3937007874015748},{"duration":0.1094889999999964,"midi":73,"time":190.40137099999998,"velocity":0.3937007874015748},{"duration":0.1094889999999964,"midi":54,"time":191.824728,"velocity":0.3937007874015748},{"duration":0.1094889999999964,"midi":66,"time":191.934217,"velocity":0.3937007874015748},{"duration":0.1094889999999964,"midi":69,"time":192.043706,"velocity":0.3937007874015748},{"duration":0.1094889999999964,"midi":71,"time":192.15319499999998,"velocity":0.3937007874015748},{"duration":0.3284669999999892,"midi":69,"time":196.204288,"velocity":0.3937007874015748},{"duration":0.3284669999999892,"midi":81,"time":196.204288,"velocity":0.3937007874015748},{"duration":0.1094889999999964,"midi":66,"time":196.53275499999998,"velocity":0.3937007874015748},{"duration":0.1094889999999964,"midi":78,"time":196.53275499999998,"velocity":0.3937007874015748},{"duration":0.2189779999999928,"midi":85,"time":196.64224399999998,"velocity":0.3937007874015748},{"duration":0.2189779999999928,"midi":73,"time":196.64224399999998,"velocity":0.3937007874015748},{"duration":0.2189780000000212,"midi":78,"time":196.86122199999997,"velocity":0.3937007874015748},{"duration":0.2189780000000212,"midi":66,"time":196.86122199999997,"velocity":0.3937007874015748},{"duration":0.3284669999999892,"midi":74,"time":197.0802,"velocity":0.3937007874015748},{"duration":0.3284669999999892,"midi":86,"time":197.0802,"velocity":0.3937007874015748},{"duration":0.1094889999999964,"midi":78,"time":197.40866699999998,"velocity":0.3937007874015748},{"duration":0.1094889999999964,"midi":66,"time":197.40866699999998,"velocity":0.3937007874015748},{"duration":0.2189779999999928,"midi":73,"time":197.51815599999998,"velocity":0.3937007874015748},{"duration":0.2189779999999928,"midi":85,"time":197.51815599999998,"velocity":0.3937007874015748},{"duration":0.2189780000000212,"midi":66,"time":197.73713399999997,"velocity":0.3937007874015748},{"duration":0.2189780000000212,"midi":78,"time":197.73713399999997,"velocity":0.3937007874015748},{"duration":0.3284669999999892,"midi":80,"time":197.956112,"velocity":0.3937007874015748},{"duration":0.3284669999999892,"midi":68,"time":197.956112,"velocity":0.3937007874015748},{"duration":0.1094889999999964,"midi":65,"time":198.28457899999998,"velocity":0.3937007874015748},{"duration":0.1094889999999964,"midi":77,"time":198.28457899999998,"velocity":0.3937007874015748},{"duration":0.2189779999999928,"midi":81,"time":198.39406799999998,"velocity":0.3937007874015748},{"duration":0.2189779999999928,"midi":69,"time":198.39406799999998,"velocity":0.3937007874015748},{"duration":0.2189780000000212,"midi":77,"time":198.61304599999997,"velocity":0.3937007874015748},{"duration":0.2189780000000212,"midi":65,"time":198.61304599999997,"velocity":0.3937007874015748},{"duration":0.3284669999999892,"midi":73,"time":198.832024,"velocity":0.3937007874015748},{"duration":0.3284669999999892,"midi":85,"time":198.832024,"velocity":0.3937007874015748},{"duration":0.1094889999999964,"midi":74,"time":199.16049099999998,"velocity":0.3937007874015748},{"duration":0.1094889999999964,"midi":86,"time":199.16049099999998,"velocity":0.3937007874015748},{"duration":0.2189779999999928,"midi":85,"time":199.26997999999998,"velocity":0.3937007874015748},{"duration":0.2189779999999928,"midi":73,"time":199.26997999999998,"velocity":0.3937007874015748},{"duration":0.2189780000000212,"midi":71,"time":199.48895799999997,"velocity":0.3937007874015748},{"duration":0.2189780000000212,"midi":83,"time":199.48895799999997,"velocity":0.3937007874015748},{"duration":0.2189779999999928,"midi":74,"time":199.707936,"velocity":0.3937007874015748},{"duration":0.2189779999999928,"midi":62,"time":199.707936,"velocity":0.3937007874015748},{"duration":0.1094889999999964,"midi":78,"time":200.03640299999998,"velocity":0.3937007874015748},{"duration":0.1094889999999964,"midi":66,"time":200.03640299999998,"velocity":0.3937007874015748},{"duration":0.2189779999999928,"midi":62,"time":200.14589199999998,"velocity":0.3937007874015748},{"duration":0.2189779999999928,"midi":74,"time":200.14589199999998,"velocity":0.3937007874015748},{"duration":0.2189780000000212,"midi":66,"time":200.36486999999997,"velocity":0.3937007874015748},{"duration":0.2189780000000212,"midi":78,"time":200.36486999999997,"velocity":0.3937007874015748},{"duration":0.3284669999999892,"midi":68,"time":200.583848,"velocity":0.3937007874015748},{"duration":0.3284669999999892,"midi":80,"time":200.583848,"velocity":0.3937007874015748},{"duration":0.1094889999999964,"midi":81,"time":200.91231499999998,"velocity":0.3937007874015748},{"duration":0.1094889999999964,"midi":69,"time":200.91231499999998,"velocity":0.3937007874015748},{"duration":0.2189779999999928,"midi":80,"time":201.02180399999997,"velocity":0.3937007874015748},{"duration":0.2189779999999928,"midi":68,"time":201.02180399999997,"velocity":0.3937007874015748},{"duration":0.2189780000000212,"midi":66,"time":201.24078199999997,"velocity":0.3937007874015748},{"duration":0.2189780000000212,"midi":78,"time":201.24078199999997,"velocity":0.3937007874015748},{"duration":0.3284669999999892,"midi":65,"time":201.45976,"velocity":0.3937007874015748},{"duration":0.3284669999999892,"midi":77,"time":201.45976,"velocity":0.3937007874015748},{"duration":0.1094889999999964,"midi":80,"time":201.78822699999998,"velocity":0.3937007874015748},{"duration":0.1094889999999964,"midi":68,"time":201.78822699999998,"velocity":0.3937007874015748},{"duration":0.2189779999999928,"midi":77,"time":201.89771599999997,"velocity":0.3937007874015748},{"duration":0.2189779999999928,"midi":65,"time":201.89771599999997,"velocity":0.3937007874015748},{"duration":0.2189780000000212,"midi":80,"time":202.11669399999997,"velocity":0.3937007874015748},{"duration":0.2189780000000212,"midi":68,"time":202.11669399999997,"velocity":0.3937007874015748},{"duration":0.3284669999999892,"midi":83,"time":202.335672,"velocity":0.3937007874015748},{"duration":0.3284669999999892,"midi":71,"time":202.335672,"velocity":0.3937007874015748},{"duration":0.1094889999999964,"midi":73,"time":202.66413899999998,"velocity":0.3937007874015748},{"duration":0.1094889999999964,"midi":85,"time":202.66413899999998,"velocity":0.3937007874015748},{"duration":0.2189779999999928,"midi":71,"time":202.77362799999997,"velocity":0.3937007874015748},{"duration":0.2189779999999928,"midi":83,"time":202.77362799999997,"velocity":0.3937007874015748},{"duration":0.2189780000000212,"midi":81,"time":202.99260599999997,"velocity":0.3937007874015748},{"duration":0.2189780000000212,"midi":69,"time":202.99260599999997,"velocity":0.3937007874015748},{"duration":0.3284669999999892,"midi":69,"time":203.211584,"velocity":0.3937007874015748},{"duration":0.3284669999999892,"midi":81,"time":203.211584,"velocity":0.3937007874015748},{"duration":0.1094889999999964,"midi":66,"time":203.54005099999998,"velocity":0.3937007874015748},{"duration":0.1094889999999964,"midi":78,"time":203.54005099999998,"velocity":0.3937007874015748},{"duration":0.2189779999999928,"midi":73,"time":203.64953999999997,"velocity":0.3937007874015748},{"duration":0.2189779999999928,"midi":85,"time":203.64953999999997,"velocity":0.3937007874015748},{"duration":0.2189780000000212,"midi":78,"time":203.86851799999997,"velocity":0.3937007874015748},{"duration":0.2189780000000212,"midi":66,"time":203.86851799999997,"velocity":0.3937007874015748},{"duration":0.3284669999999892,"midi":86,"time":204.087496,"velocity":0.3937007874015748},{"duration":0.3284669999999892,"midi":74,"time":204.087496,"velocity":0.3937007874015748},{"duration":0.1094889999999964,"midi":66,"time":204.41596299999998,"velocity":0.3937007874015748},{"duration":0.1094889999999964,"midi":78,"time":204.41596299999998,"velocity":0.3937007874015748},{"duration":0.2189779999999928,"midi":73,"time":204.52545199999997,"velocity":0.3937007874015748},{"duration":0.2189779999999928,"midi":85,"time":204.52545199999997,"velocity":0.3937007874015748},{"duration":0.2189780000000212,"midi":78,"time":204.74442999999997,"velocity":0.3937007874015748},{"duration":0.2189780000000212,"midi":66,"time":204.74442999999997,"velocity":0.3937007874015748},{"duration":0.3284669999999892,"midi":68,"time":204.963408,"velocity":0.3937007874015748},{"duration":0.3284669999999892,"midi":80,"time":204.963408,"velocity":0.3937007874015748},{"duration":0.1094889999999964,"midi":65,"time":205.29187499999998,"velocity":0.3937007874015748},{"duration":0.1094889999999964,"midi":77,"time":205.29187499999998,"velocity":0.3937007874015748},{"duration":0.2189780000000212,"midi":81,"time":205.40136399999997,"velocity":0.3937007874015748},{"duration":0.2189780000000212,"midi":69,"time":205.40136399999997,"velocity":0.3937007874015748},{"duration":0.2189779999999928,"midi":65,"time":205.620342,"velocity":0.3937007874015748},{"duration":0.2189779999999928,"midi":77,"time":205.620342,"velocity":0.3937007874015748},{"duration":0.3284669999999892,"midi":73,"time":205.83932,"velocity":0.3937007874015748},{"duration":0.3284669999999892,"midi":85,"time":205.83932,"velocity":0.3937007874015748},{"duration":0.1094889999999964,"midi":86,"time":206.16778699999998,"velocity":0.3937007874015748},{"duration":0.1094889999999964,"midi":74,"time":206.16778699999998,"velocity":0.3937007874015748},{"duration":0.2189780000000212,"midi":85,"time":206.27727599999997,"velocity":0.3937007874015748},{"duration":0.2189780000000212,"midi":73,"time":206.27727599999997,"velocity":0.3937007874015748},{"duration":0.2189779999999928,"midi":71,"time":206.496254,"velocity":0.3937007874015748},{"duration":0.2189779999999928,"midi":83,"time":206.496254,"velocity":0.3937007874015748},{"duration":0.2189779999999928,"midi":74,"time":206.715232,"velocity":0.3937007874015748},{"duration":0.2189779999999928,"midi":62,"time":206.715232,"velocity":0.3937007874015748},{"duration":0.1094889999999964,"midi":78,"time":207.04369899999998,"velocity":0.3937007874015748},{"duration":0.1094889999999964,"midi":66,"time":207.04369899999998,"velocity":0.3937007874015748},{"duration":0.2189780000000212,"midi":62,"time":207.15318799999997,"velocity":0.3937007874015748},{"duration":0.2189780000000212,"midi":74,"time":207.15318799999997,"velocity":0.3937007874015748},{"duration":0.2189779999999928,"midi":66,"time":207.372166,"velocity":0.3937007874015748},{"duration":0.2189779999999928,"midi":78,"time":207.372166,"velocity":0.3937007874015748},{"duration":0.3284669999999892,"midi":68,"time":207.59114399999999,"velocity":0.3937007874015748},{"duration":0.3284669999999892,"midi":80,"time":207.59114399999999,"velocity":0.3937007874015748},{"duration":0.1094889999999964,"midi":69,"time":207.91961099999997,"velocity":0.3937007874015748},{"duration":0.1094889999999964,"midi":81,"time":207.91961099999997,"velocity":0.3937007874015748},{"duration":0.2189780000000212,"midi":80,"time":208.02909999999997,"velocity":0.3937007874015748},{"duration":0.2189780000000212,"midi":68,"time":208.02909999999997,"velocity":0.3937007874015748},{"duration":0.2189779999999928,"midi":78,"time":208.248078,"velocity":0.3937007874015748},{"duration":0.2189779999999928,"midi":66,"time":208.248078,"velocity":0.3937007874015748},{"duration":0.3284669999999892,"midi":65,"time":208.46705599999999,"velocity":0.3937007874015748},{"duration":0.3284669999999892,"midi":77,"time":208.46705599999999,"velocity":0.3937007874015748},{"duration":0.1094889999999964,"midi":80,"time":208.79552299999997,"velocity":0.3937007874015748},{"duration":0.1094889999999964,"midi":68,"time":208.79552299999997,"velocity":0.3937007874015748},{"duration":0.2189780000000212,"midi":77,"time":208.90501199999997,"velocity":0.3937007874015748},{"duration":0.2189780000000212,"midi":65,"time":208.90501199999997,"velocity":0.3937007874015748},{"duration":0.2189779999999928,"midi":68,"time":209.12399,"velocity":0.3937007874015748},{"duration":0.2189779999999928,"midi":80,"time":209.12399,"velocity":0.3937007874015748},{"duration":0.3284669999999892,"midi":71,"time":209.34296799999998,"velocity":0.3937007874015748},{"duration":0.3284669999999892,"midi":83,"time":209.34296799999998,"velocity":0.3937007874015748},{"duration":0.1094889999999964,"midi":73,"time":209.67143499999997,"velocity":0.3937007874015748},{"duration":0.1094889999999964,"midi":85,"time":209.67143499999997,"velocity":0.3937007874015748},{"duration":0.2189780000000212,"midi":71,"time":209.78092399999997,"velocity":0.3937007874015748},{"duration":0.2189780000000212,"midi":83,"time":209.78092399999997,"velocity":0.3937007874015748},{"duration":0.2189779999999928,"midi":81,"time":209.999902,"velocity":0.3937007874015748},{"duration":0.2189779999999928,"midi":69,"time":209.999902,"velocity":0.3937007874015748},{"duration":0.3284669999999892,"midi":69,"time":210.21887999999998,"velocity":0.3937007874015748},{"duration":0.3284669999999892,"midi":81,"time":210.21887999999998,"velocity":0.3937007874015748},{"duration":0.1094889999999964,"midi":78,"time":210.54734699999997,"velocity":0.3937007874015748},{"duration":0.1094889999999964,"midi":66,"time":210.54734699999997,"velocity":0.3937007874015748},{"duration":0.2189780000000212,"midi":73,"time":210.65683599999997,"velocity":0.3937007874015748},{"duration":0.2189780000000212,"midi":85,"time":210.65683599999997,"velocity":0.3937007874015748},{"duration":0.2189779999999928,"midi":66,"time":210.875814,"velocity":0.3937007874015748},{"duration":0.2189779999999928,"midi":78,"time":210.875814,"velocity":0.3937007874015748},{"duration":0.3284669999999892,"midi":74,"time":211.09479199999998,"velocity":0.3937007874015748},{"duration":0.3284669999999892,"midi":86,"time":211.09479199999998,"velocity":0.3937007874015748},{"duration":0.1094889999999964,"midi":66,"time":211.42325899999997,"velocity":0.3937007874015748},{"duration":0.1094889999999964,"midi":78,"time":211.42325899999997,"velocity":0.3937007874015748},{"duration":0.2189780000000212,"midi":73,"time":211.53274799999997,"velocity":0.3937007874015748},{"duration":0.2189780000000212,"midi":85,"time":211.53274799999997,"velocity":0.3937007874015748},{"duration":0.2189779999999928,"midi":78,"time":211.751726,"velocity":0.3937007874015748},{"duration":0.2189779999999928,"midi":66,"time":211.751726,"velocity":0.3937007874015748},{"duration":0.3284669999999892,"midi":80,"time":211.97070399999998,"velocity":0.3937007874015748},{"duration":0.3284669999999892,"midi":68,"time":211.97070399999998,"velocity":0.3937007874015748},{"duration":0.1094889999999964,"midi":65,"time":212.29917099999997,"velocity":0.3937007874015748},{"duration":0.1094889999999964,"midi":77,"time":212.29917099999997,"velocity":0.3937007874015748},{"duration":0.2189780000000212,"midi":69,"time":212.40865999999997,"velocity":0.3937007874015748},{"duration":0.2189780000000212,"midi":81,"time":212.40865999999997,"velocity":0.3937007874015748},{"duration":0.2189779999999928,"midi":65,"time":212.627638,"velocity":0.3937007874015748},{"duration":0.2189779999999928,"midi":77,"time":212.627638,"velocity":0.3937007874015748},{"duration":0.3284669999999892,"midi":85,"time":212.84661599999998,"velocity":0.3937007874015748},{"duration":0.3284669999999892,"midi":73,"time":212.84661599999998,"velocity":0.3937007874015748},{"duration":0.1094889999999964,"midi":74,"time":213.17508299999997,"velocity":0.3937007874015748},{"duration":0.1094889999999964,"midi":86,"time":213.17508299999997,"velocity":0.3937007874015748},{"duration":0.2189780000000212,"midi":73,"time":213.28457199999997,"velocity":0.3937007874015748},{"duration":0.2189780000000212,"midi":85,"time":213.28457199999997,"velocity":0.3937007874015748},{"duration":0.2189779999999928,"midi":71,"time":213.50355,"velocity":0.3937007874015748},{"duration":0.2189779999999928,"midi":83,"time":213.50355,"velocity":0.3937007874015748},{"duration":0.2189779999999928,"midi":62,"time":213.72252799999998,"velocity":0.3937007874015748},{"duration":0.2189779999999928,"midi":74,"time":213.72252799999998,"velocity":0.3937007874015748},{"duration":0.1094889999999964,"midi":78,"time":214.05099499999997,"velocity":0.3937007874015748},{"duration":0.1094889999999964,"midi":66,"time":214.05099499999997,"velocity":0.3937007874015748},{"duration":0.2189780000000212,"midi":74,"time":214.16048399999997,"velocity":0.3937007874015748},{"duration":0.2189780000000212,"midi":62,"time":214.16048399999997,"velocity":0.3937007874015748},{"duration":0.2189779999999928,"midi":66,"time":214.379462,"velocity":0.3937007874015748},{"duration":0.2189779999999928,"midi":78,"time":214.379462,"velocity":0.3937007874015748},{"duration":0.3284669999999892,"midi":80,"time":214.59843999999998,"velocity":0.3937007874015748},{"duration":0.3284669999999892,"midi":68,"time":214.59843999999998,"velocity":0.3937007874015748},{"duration":0.1094889999999964,"midi":69,"time":214.92690699999997,"velocity":0.3937007874015748},{"duration":0.1094889999999964,"midi":81,"time":214.92690699999997,"velocity":0.3937007874015748},{"duration":0.2189780000000212,"midi":80,"time":215.03639599999997,"velocity":0.3937007874015748},{"duration":0.2189780000000212,"midi":68,"time":215.03639599999997,"velocity":0.3937007874015748},{"duration":0.2189779999999928,"midi":78,"time":215.255374,"velocity":0.3937007874015748},{"duration":0.2189779999999928,"midi":66,"time":215.255374,"velocity":0.3937007874015748},{"duration":0.3284669999999892,"midi":65,"time":215.47435199999998,"velocity":0.3937007874015748},{"duration":0.3284669999999892,"midi":77,"time":215.47435199999998,"velocity":0.3937007874015748},{"duration":0.1094889999999964,"midi":80,"time":215.80281899999997,"velocity":0.3937007874015748},{"duration":0.1094889999999964,"midi":68,"time":215.80281899999997,"velocity":0.3937007874015748},{"duration":0.2189780000000212,"midi":65,"time":215.91230799999997,"velocity":0.3937007874015748},{"duration":0.2189780000000212,"midi":77,"time":215.91230799999997,"velocity":0.3937007874015748},{"duration":0.2189779999999928,"midi":80,"time":216.131286,"velocity":0.3937007874015748},{"duration":0.2189779999999928,"midi":68,"time":216.131286,"velocity":0.3937007874015748},{"duration":0.3284669999999892,"midi":83,"time":216.35026399999998,"velocity":0.3937007874015748},{"duration":0.3284669999999892,"midi":71,"time":216.35026399999998,"velocity":0.3937007874015748},{"duration":0.1094889999999964,"midi":85,"time":216.67873099999997,"velocity":0.3937007874015748},{"duration":0.1094889999999964,"midi":73,"time":216.67873099999997,"velocity":0.3937007874015748},{"duration":0.2189780000000212,"midi":71,"time":216.78821999999997,"velocity":0.3937007874015748},{"duration":0.2189780000000212,"midi":83,"time":216.78821999999997,"velocity":0.3937007874015748},{"duration":0.2189779999999928,"midi":81,"time":217.007198,"velocity":0.3937007874015748},{"duration":0.2189779999999928,"midi":69,"time":217.007198,"velocity":0.3937007874015748}]},{"instrument":{"family":"pipe","number":73,"name":"flute"},"notes":[{"duration":0.2189779999999999,"midi":54,"time":7.007295999999999,"velocity":0.3937007874015748},{"duration":0.10948899999999995,"midi":66,"time":7.116784999999999,"velocity":0.3937007874015748},{"duration":0.10948899999999995,"midi":66,"time":7.226273999999999,"velocity":0.3937007874015748},{"duration":0.10948899999999995,"midi":66,"time":7.335762999999999,"velocity":0.3937007874015748},{"duration":0.10948899999999995,"midi":66,"time":7.445251999999999,"velocity":0.3937007874015748},{"duration":0.10948899999999995,"midi":66,"time":7.554740999999999,"velocity":0.3937007874015748},{"duration":0.10948899999999995,"midi":54,"time":7.664229999999999,"velocity":0.3937007874015748},{"duration":0.10948899999999995,"midi":66,"time":7.773718999999999,"velocity":0.3937007874015748},{"duration":0.10948899999999995,"midi":66,"time":7.883207999999999,"velocity":0.3937007874015748},{"duration":0.10948900000000084,"midi":54,"time":7.992696999999999,"velocity":0.3937007874015748},{"duration":0.10948899999999995,"midi":54,"time":8.102186,"velocity":0.3937007874015748},{"duration":0.10948899999999995,"midi":54,"time":8.211675,"velocity":0.3937007874015748},{"duration":0.10948899999999995,"midi":66,"time":8.321164,"velocity":0.3937007874015748},{"duration":0.10948899999999995,"midi":54,"time":8.430653,"velocity":0.3937007874015748},{"duration":0.10948899999999995,"midi":54,"time":8.540142,"velocity":0.3937007874015748},{"duration":0.10948899999999995,"midi":54,"time":8.649631,"velocity":0.3937007874015748},{"duration":0.2189779999999999,"midi":53,"time":8.75912,"velocity":0.3937007874015748},{"duration":0.10948899999999995,"midi":65,"time":8.868609,"velocity":0.3937007874015748},{"duration":0.10948899999999995,"midi":65,"time":8.978098,"velocity":0.3937007874015748},{"duration":0.10948899999999995,"midi":65,"time":9.087587,"velocity":0.3937007874015748},{"duration":0.10948899999999995,"midi":65,"time":9.197076,"velocity":0.3937007874015748},{"duration":0.10948899999999995,"midi":65,"time":9.306564999999999,"velocity":0.3937007874015748},{"duration":0.10948899999999995,"midi":53,"time":9.416053999999999,"velocity":0.3937007874015748},{"duration":0.10948899999999995,"midi":65,"time":9.525542999999999,"velocity":0.3937007874015748},{"duration":0.10948899999999995,"midi":53,"time":9.744520999999999,"velocity":0.3937007874015748},{"duration":0.10948899999999995,"midi":53,"time":9.854009999999999,"velocity":0.3937007874015748},{"duration":0.10948899999999995,"midi":53,"time":9.963498999999999,"velocity":0.3937007874015748},{"duration":0.10948899999999995,"midi":65,"time":10.072987999999999,"velocity":0.3937007874015748},{"duration":0.10948899999999995,"midi":53,"time":10.182476999999999,"velocity":0.3937007874015748},{"duration":0.10948899999999995,"midi":53,"time":10.291965999999999,"velocity":0.3937007874015748},{"duration":0.10948899999999995,"midi":53,"time":10.401454999999999,"velocity":0.3937007874015748},{"duration":0.2189779999999999,"midi":50,"time":10.510943999999999,"velocity":0.3937007874015748},{"duration":0.10948899999999995,"midi":62,"time":10.620432999999998,"velocity":0.3937007874015748},{"duration":0.10948899999999995,"midi":62,"time":10.729921999999998,"velocity":0.3937007874015748},{"duration":0.10948899999999995,"midi":50,"time":10.839410999999998,"velocity":0.3937007874015748},{"duration":0.10948899999999995,"midi":50,"time":10.948899999999998,"velocity":0.3937007874015748},{"duration":0.10948899999999995,"midi":50,"time":11.058388999999998,"velocity":0.3937007874015748},{"duration":0.10948899999999995,"midi":62,"time":11.167877999999998,"velocity":0.3937007874015748},{"duration":0.10948899999999995,"midi":50,"time":11.496344999999998,"velocity":0.3937007874015748},{"duration":0.10948900000000172,"midi":50,"time":11.605833999999998,"velocity":0.3937007874015748},{"duration":0.10948899999999995,"midi":50,"time":11.715323,"velocity":0.3937007874015748},{"duration":0.10948899999999995,"midi":62,"time":11.824812,"velocity":0.3937007874015748},{"duration":0.10948899999999995,"midi":50,"time":11.934301,"velocity":0.3937007874015748},{"duration":0.10948899999999995,"midi":50,"time":12.04379,"velocity":0.3937007874015748},{"duration":0.10948899999999995,"midi":50,"time":12.153279,"velocity":0.3937007874015748},{"duration":0.10948899999999995,"midi":49,"time":12.262768,"velocity":0.3937007874015748},{"duration":0.10948899999999995,"midi":49,"time":12.372257,"velocity":0.3937007874015748},{"duration":0.10948899999999995,"midi":49,"time":12.481746,"velocity":0.3937007874015748},{"duration":0.10948899999999995,"midi":49,"time":12.591235,"velocity":0.3937007874015748},{"duration":0.10948899999999995,"midi":61,"time":12.700724,"velocity":0.3937007874015748},{"duration":0.10948899999999995,"midi":49,"time":12.700724,"velocity":0.3937007874015748},{"duration":0.10948899999999995,"midi":61,"time":12.810213,"velocity":0.3937007874015748},{"duration":0.10948899999999995,"midi":61,"time":12.919702,"velocity":0.3937007874015748},{"duration":0.10948899999999995,"midi":61,"time":13.029190999999999,"velocity":0.3937007874015748},{"duration":0.2189779999999999,"midi":54,"time":14.014591999999999,"velocity":0.3937007874015748},{"duration":0.10948899999999995,"midi":66,"time":14.124080999999999,"velocity":0.3937007874015748},{"duration":0.10948899999999995,"midi":66,"time":14.233569999999999,"velocity":0.3937007874015748},{"duration":0.10948899999999995,"midi":66,"time":14.343058999999998,"velocity":0.3937007874015748},{"duration":0.10948899999999995,"midi":66,"time":14.452547999999998,"velocity":0.3937007874015748},{"duration":0.10948899999999995,"midi":66,"time":14.562036999999998,"velocity":0.3937007874015748},{"duration":0.10948899999999995,"midi":54,"time":14.671525999999998,"velocity":0.3937007874015748},{"duration":0.10948899999999995,"midi":66,"time":14.781014999999998,"velocity":0.3937007874015748},{"duration":0.10948899999999995,"midi":66,"time":14.890503999999998,"velocity":0.3937007874015748},{"duration":0.10948899999999995,"midi":54,"time":14.999992999999998,"velocity":0.3937007874015748},{"duration":0.10948899999999995,"midi":54,"time":15.109481999999998,"velocity":0.3937007874015748},{"duration":0.10948899999999995,"midi":54,"time":15.218970999999998,"velocity":0.3937007874015748},{"duration":0.10948899999999995,"midi":66,"time":15.328459999999998,"velocity":0.3937007874015748},{"duration":0.10948899999999995,"midi":54,"time":15.437948999999998,"velocity":0.3937007874015748},{"duration":0.10948899999999995,"midi":54,"time":15.547437999999998,"velocity":0.3937007874015748},{"duration":0.10948899999999995,"midi":54,"time":15.656926999999998,"velocity":0.3937007874015748},{"duration":0.2189779999999999,"midi":53,"time":15.766415999999998,"velocity":0.3937007874015748},{"duration":0.10948899999999995,"midi":65,"time":15.875904999999998,"velocity":0.3937007874015748},{"duration":0.10948900000000172,"midi":65,"time":15.985393999999998,"velocity":0.3937007874015748},{"duration":0.10948899999999995,"midi":65,"time":16.094883,"velocity":0.3937007874015748},{"duration":0.10948899999999995,"midi":65,"time":16.204372,"velocity":0.3937007874015748},{"duration":0.10948899999999995,"midi":65,"time":16.313861,"velocity":0.3937007874015748},{"duration":0.10948899999999995,"midi":53,"time":16.42335,"velocity":0.3937007874015748},{"duration":0.10948899999999995,"midi":65,"time":16.532839,"velocity":0.3937007874015748},{"duration":0.10948899999999995,"midi":53,"time":16.751817,"velocity":0.3937007874015748},{"duration":0.10948899999999995,"midi":53,"time":16.861306,"velocity":0.3937007874015748},{"duration":0.10948899999999995,"midi":53,"time":16.970795,"velocity":0.3937007874015748},{"duration":0.10948899999999995,"midi":65,"time":17.080284,"velocity":0.3937007874015748},{"duration":0.10948899999999995,"midi":53,"time":17.189773,"velocity":0.3937007874015748},{"duration":0.10948899999999995,"midi":53,"time":17.299262,"velocity":0.3937007874015748},{"duration":0.10948899999999995,"midi":53,"time":17.408751,"velocity":0.3937007874015748},{"duration":0.2189779999999999,"midi":50,"time":17.51824,"velocity":0.3937007874015748},{"duration":0.10948899999999995,"midi":62,"time":17.627729,"velocity":0.3937007874015748},{"duration":0.10948899999999995,"midi":62,"time":17.737218,"velocity":0.3937007874015748},{"duration":0.10948899999999995,"midi":50,"time":17.846707,"velocity":0.3937007874015748},{"duration":0.10948899999999995,"midi":50,"time":17.956196,"velocity":0.3937007874015748},{"duration":0.10948899999999995,"midi":50,"time":18.065685,"velocity":0.3937007874015748},{"duration":0.10948899999999995,"midi":62,"time":18.175174,"velocity":0.3937007874015748},{"duration":0.10948899999999995,"midi":50,"time":18.503641,"velocity":0.3937007874015748},{"duration":0.10948899999999995,"midi":50,"time":18.613129999999998,"velocity":0.3937007874015748},{"duration":0.10948899999999995,"midi":50,"time":18.722618999999998,"velocity":0.3937007874015748},{"duration":0.10948899999999995,"midi":62,"time":18.832107999999998,"velocity":0.3937007874015748},{"duration":0.10948899999999995,"midi":50,"time":18.941596999999998,"velocity":0.3937007874015748},{"duration":0.10948899999999995,"midi":50,"time":19.051085999999998,"velocity":0.3937007874015748},{"duration":0.10948899999999995,"midi":50,"time":19.160574999999998,"velocity":0.3937007874015748},{"duration":0.10948899999999995,"midi":49,"time":19.270063999999998,"velocity":0.3937007874015748},{"duration":0.10948899999999995,"midi":49,"time":19.379552999999998,"velocity":0.3937007874015748},{"duration":0.10948899999999995,"midi":49,"time":19.489041999999998,"velocity":0.3937007874015748},{"duration":0.10948899999999995,"midi":49,"time":19.598530999999998,"velocity":0.3937007874015748},{"duration":0.10948899999999995,"midi":49,"time":19.708019999999998,"velocity":0.3937007874015748},{"duration":0.10948899999999995,"midi":61,"time":19.817508999999998,"velocity":0.3937007874015748},{"duration":0.10948899999999995,"midi":61,"time":19.926997999999998,"velocity":0.3937007874015748},{"duration":0.10948899999999995,"midi":61,"time":20.036486999999997,"velocity":0.3937007874015748},{"duration":0.10948899999999995,"midi":49,"time":20.145975999999997,"velocity":0.3937007874015748},{"duration":0.10948899999999995,"midi":61,"time":20.255464999999997,"velocity":0.3937007874015748},{"duration":0.10948899999999995,"midi":61,"time":20.364953999999997,"velocity":0.3937007874015748},{"duration":0.10948899999999995,"midi":49,"time":20.474442999999997,"velocity":0.3937007874015748},{"duration":0.10948899999999995,"midi":49,"time":20.583931999999997,"velocity":0.3937007874015748},{"duration":0.10948899999999995,"midi":61,"time":20.693420999999997,"velocity":0.3937007874015748},{"duration":0.10948899999999995,"midi":61,"time":20.802909999999997,"velocity":0.3937007874015748},{"duration":0.10948899999999995,"midi":61,"time":20.912398999999997,"velocity":0.3937007874015748},{"duration":0.2189779999999999,"midi":54,"time":21.021887999999997,"velocity":0.3937007874015748},{"duration":0.10948899999999995,"midi":66,"time":21.131376999999997,"velocity":0.3937007874015748},{"duration":0.10948899999999995,"midi":66,"time":21.240865999999997,"velocity":0.3937007874015748},{"duration":0.10948899999999995,"midi":66,"time":21.350354999999997,"velocity":0.3937007874015748},{"duration":0.10948899999999995,"midi":66,"time":21.459843999999997,"velocity":0.3937007874015748},{"duration":0.10948899999999995,"midi":66,"time":21.569332999999997,"velocity":0.3937007874015748},{"duration":0.10948899999999995,"midi":54,"time":21.678821999999997,"velocity":0.3937007874015748},{"duration":0.10948899999999995,"midi":66,"time":21.788310999999997,"velocity":0.3937007874015748},{"duration":0.10948899999999995,"midi":66,"time":21.897799999999997,"velocity":0.3937007874015748},{"duration":0.10948899999999995,"midi":54,"time":22.007288999999997,"velocity":0.3937007874015748},{"duration":0.10948899999999995,"midi":54,"time":22.116777999999996,"velocity":0.3937007874015748},{"duration":0.10948899999999995,"midi":54,"time":22.226266999999996,"velocity":0.3937007874015748},{"duration":0.10948899999999995,"midi":66,"time":22.335755999999996,"velocity":0.3937007874015748},{"duration":0.10948899999999995,"midi":54,"time":22.445244999999996,"velocity":0.3937007874015748},{"duration":0.10948899999999995,"midi":54,"time":22.554733999999996,"velocity":0.3937007874015748},{"duration":0.10948899999999995,"midi":54,"time":22.664222999999996,"velocity":0.3937007874015748},{"duration":0.2189779999999999,"midi":53,"time":22.773711999999996,"velocity":0.3937007874015748},{"duration":0.10948899999999995,"midi":65,"time":22.883200999999996,"velocity":0.3937007874015748},{"duration":0.10948899999999995,"midi":65,"time":22.992689999999996,"velocity":0.3937007874015748},{"duration":0.10948899999999995,"midi":65,"time":23.102178999999996,"velocity":0.3937007874015748},{"duration":0.10948899999999995,"midi":65,"time":23.211667999999996,"velocity":0.3937007874015748},{"duration":0.1094890000000035,"midi":65,"time":23.321156999999996,"velocity":0.3937007874015748},{"duration":0.10948899999999995,"midi":53,"time":23.430646,"velocity":0.3937007874015748},{"duration":0.10948899999999995,"midi":65,"time":23.540135,"velocity":0.3937007874015748},{"duration":0.10948899999999995,"midi":53,"time":23.759113,"velocity":0.3937007874015748},{"duration":0.10948899999999995,"midi":53,"time":23.868602,"velocity":0.3937007874015748},{"duration":0.10948899999999995,"midi":53,"time":23.978091,"velocity":0.3937007874015748},{"duration":0.10948899999999995,"midi":65,"time":24.08758,"velocity":0.3937007874015748},{"duration":0.10948899999999995,"midi":53,"time":24.197069,"velocity":0.3937007874015748},{"duration":0.10948899999999995,"midi":53,"time":24.306558,"velocity":0.3937007874015748},{"duration":0.10948899999999995,"midi":53,"time":24.416047,"velocity":0.3937007874015748},{"duration":0.2189779999999999,"midi":50,"time":24.525536,"velocity":0.3937007874015748},{"duration":0.10948899999999995,"midi":62,"time":24.635025,"velocity":0.3937007874015748},{"duration":0.10948899999999995,"midi":62,"time":24.744514,"velocity":0.3937007874015748},{"duration":0.10948899999999995,"midi":50,"time":24.854003,"velocity":0.3937007874015748},{"duration":0.10948899999999995,"midi":50,"time":24.963492,"velocity":0.3937007874015748},{"duration":0.10948899999999995,"midi":50,"time":25.072981,"velocity":0.3937007874015748},{"duration":0.10948899999999995,"midi":62,"time":25.18247,"velocity":0.3937007874015748},{"duration":0.10948899999999995,"midi":50,"time":25.510937,"velocity":0.3937007874015748},{"duration":0.10948899999999995,"midi":50,"time":25.620426,"velocity":0.3937007874015748},{"duration":0.10948899999999995,"midi":50,"time":25.729915,"velocity":0.3937007874015748},{"duration":0.10948899999999995,"midi":62,"time":25.839404,"velocity":0.3937007874015748},{"duration":0.10948899999999995,"midi":50,"time":25.948892999999998,"velocity":0.3937007874015748},{"duration":0.10948899999999995,"midi":50,"time":26.058381999999998,"velocity":0.3937007874015748},{"duration":0.10948899999999995,"midi":50,"time":26.167870999999998,"velocity":0.3937007874015748},{"duration":0.10948899999999995,"midi":49,"time":26.277359999999998,"velocity":0.3937007874015748},{"duration":0.10948899999999995,"midi":49,"time":26.386848999999998,"velocity":0.3937007874015748},{"duration":0.10948899999999995,"midi":49,"time":26.496337999999998,"velocity":0.3937007874015748},{"duration":0.10948899999999995,"midi":49,"time":26.605826999999998,"velocity":0.3937007874015748},{"duration":0.10948899999999995,"midi":49,"time":26.715315999999998,"velocity":0.3937007874015748},{"duration":0.10948899999999995,"midi":61,"time":26.824804999999998,"velocity":0.3937007874015748},{"duration":0.10948899999999995,"midi":61,"time":26.934293999999998,"velocity":0.3937007874015748},{"duration":0.10948899999999995,"midi":61,"time":27.043782999999998,"velocity":0.3937007874015748},{"duration":0.10948899999999995,"midi":49,"time":27.153271999999998,"velocity":0.3937007874015748},{"duration":0.10948899999999995,"midi":61,"time":27.262760999999998,"velocity":0.3937007874015748},{"duration":0.10948899999999995,"midi":61,"time":27.372249999999998,"velocity":0.3937007874015748},{"duration":0.10948899999999995,"midi":49,"time":27.481738999999997,"velocity":0.3937007874015748},{"duration":0.10948899999999995,"midi":49,"time":27.591227999999997,"velocity":0.3937007874015748},{"duration":0.10948899999999995,"midi":61,"time":27.700716999999997,"velocity":0.3937007874015748},{"duration":0.10948899999999995,"midi":61,"time":27.810205999999997,"velocity":0.3937007874015748},{"duration":0.10948899999999995,"midi":61,"time":27.919694999999997,"velocity":0.3937007874015748},{"duration":0.4379559999999998,"midi":81,"time":28.029183999999997,"velocity":0.3937007874015748},{"duration":0.4379559999999998,"midi":80,"time":28.686117999999997,"velocity":0.3937007874015748},{"duration":0.4379559999999998,"midi":86,"time":29.343051999999997,"velocity":0.3937007874015748},{"duration":0.4379559999999998,"midi":85,"time":29.999985999999996,"velocity":0.3937007874015748},{"duration":0.4379559999999998,"midi":81,"time":30.656919999999996,"velocity":0.3937007874015748},{"duration":0.4379559999999998,"midi":80,"time":31.094875999999996,"velocity":0.3937007874015748},{"duration":0.4379559999999998,"midi":81,"time":31.532831999999996,"velocity":0.3937007874015748},{"duration":0.4379559999999998,"midi":80,"time":32.189766,"velocity":0.3937007874015748},{"duration":0.4379559999999998,"midi":86,"time":32.8467,"velocity":0.3937007874015748},{"duration":0.4379559999999998,"midi":85,"time":33.503634,"velocity":0.3937007874015748},{"duration":0.1094889999999964,"midi":85,"time":34.160568,"velocity":0.3937007874015748},{"duration":0.1094890000000035,"midi":83,"time":34.256370874999995,"velocity":0.3937007874015748},{"duration":0.2189779999999999,"midi":81,"time":34.379546,"velocity":0.3937007874015748},{"duration":0.2189779999999999,"midi":80,"time":34.598524,"velocity":0.3937007874015748},{"duration":0.6569339999999997,"midi":81,"time":34.817502,"velocity":0.3937007874015748},{"duration":0.4379559999999998,"midi":80,"time":35.693414,"velocity":0.3937007874015748},{"duration":0.4379559999999998,"midi":86,"time":36.350348,"velocity":0.3937007874015748},{"duration":0.4379559999999998,"midi":85,"time":37.007282,"velocity":0.3937007874015748},{"duration":0.4379559999999998,"midi":81,"time":37.664215999999996,"velocity":0.3937007874015748},{"duration":0.4379559999999998,"midi":80,"time":38.102171999999996,"velocity":0.3937007874015748},{"duration":0.4379559999999998,"midi":81,"time":38.540127999999996,"velocity":0.3937007874015748},{"duration":0.4379559999999998,"midi":80,"time":39.197061999999995,"velocity":0.3937007874015748},{"duration":0.4379559999999998,"midi":86,"time":39.853995999999995,"velocity":0.3937007874015748},{"duration":0.4379559999999998,"midi":85,"time":40.510929999999995,"velocity":0.3937007874015748},{"duration":0.1094890000000035,"midi":85,"time":41.167863999999994,"velocity":0.3937007874015748},{"duration":0.1094889999999964,"midi":83,"time":41.263666875,"velocity":0.3937007874015748},{"duration":0.2189779999999999,"midi":81,"time":41.386841999999994,"velocity":0.3937007874015748},{"duration":0.2189779999999999,"midi":80,"time":41.605819999999994,"velocity":0.3937007874015748},{"duration":0.4379559999999998,"midi":81,"time":84.08755199999999,"velocity":0.3937007874015748},{"duration":0.4379559999999998,"midi":80,"time":84.744486,"velocity":0.3937007874015748},{"duration":0.4379559999999998,"midi":86,"time":85.40141999999999,"velocity":0.3937007874015748},{"duration":0.4379559999999998,"midi":85,"time":86.058354,"velocity":0.3937007874015748},{"duration":0.4379559999999998,"midi":81,"time":86.71528799999999,"velocity":0.3937007874015748},{"duration":0.4379559999999998,"midi":80,"time":87.15324399999999,"velocity":0.3937007874015748},{"duration":0.4379559999999998,"midi":81,"time":87.59119999999999,"velocity":0.3937007874015748},{"duration":0.4379559999999998,"midi":80,"time":88.248134,"velocity":0.3937007874015748},{"duration":0.4379559999999998,"midi":86,"time":88.90506799999999,"velocity":0.3937007874015748},{"duration":0.4379559999999998,"midi":85,"time":89.56200199999999,"velocity":0.3937007874015748},{"duration":0.1094890000000106,"midi":85,"time":90.21893599999999,"velocity":0.3937007874015748},{"duration":0.1094889999999964,"midi":83,"time":90.31473887499999,"velocity":0.3937007874015748},{"duration":0.2189779999999928,"midi":81,"time":90.43791399999999,"velocity":0.3937007874015748},{"duration":0.218978000000007,"midi":80,"time":90.65689199999998,"velocity":0.3937007874015748},{"duration":0.6569339999999926,"midi":81,"time":90.87586999999999,"velocity":0.3937007874015748},{"duration":0.4379559999999998,"midi":80,"time":91.75178199999999,"velocity":0.3937007874015748},{"duration":0.4379559999999998,"midi":86,"time":92.40871599999998,"velocity":0.3937007874015748},{"duration":0.4379559999999998,"midi":85,"time":93.06564999999999,"velocity":0.3937007874015748},{"duration":0.4379559999999998,"midi":81,"time":93.722584,"velocity":0.3937007874015748},{"duration":0.4379559999999998,"midi":80,"time":94.16054,"velocity":0.3937007874015748},{"duration":0.4379559999999998,"midi":81,"time":94.598496,"velocity":0.3937007874015748},{"duration":0.4379559999999998,"midi":80,"time":95.25542999999999,"velocity":0.3937007874015748},{"duration":0.4379559999999998,"midi":86,"time":95.912364,"velocity":0.3937007874015748},{"duration":0.4379559999999998,"midi":85,"time":96.56929799999999,"velocity":0.3937007874015748},{"duration":0.1094889999999964,"midi":85,"time":97.226232,"velocity":0.3937007874015748},{"duration":0.1094890000000106,"midi":83,"time":97.32203487499999,"velocity":0.3937007874015748},{"duration":0.218978000000007,"midi":81,"time":97.44520999999999,"velocity":0.3937007874015748},{"duration":0.2189779999999928,"midi":80,"time":97.664188,"velocity":0.3937007874015748},{"duration":0.218978000000007,"midi":54,"time":112.11673599999999,"velocity":0.3937007874015748},{"duration":0.1094890000000106,"midi":66,"time":112.22622499999999,"velocity":0.3937007874015748},{"duration":0.1094889999999964,"midi":66,"time":112.335714,"velocity":0.3937007874015748},{"duration":0.1094889999999964,"midi":66,"time":112.44520299999999,"velocity":0.3937007874015748},{"duration":0.1094889999999964,"midi":66,"time":112.55469199999999,"velocity":0.3937007874015748},{"duration":0.1094890000000106,"midi":66,"time":112.66418099999999,"velocity":0.3937007874015748},{"duration":0.1094889999999964,"midi":54,"time":112.77367,"velocity":0.3937007874015748},{"duration":0.1094889999999964,"midi":66,"time":112.88315899999999,"velocity":0.3937007874015748},{"duration":0.1094889999999964,"midi":66,"time":112.99264799999999,"velocity":0.3937007874015748},{"duration":0.1094890000000106,"midi":54,"time":113.10213699999998,"velocity":0.3937007874015748},{"duration":0.1094889999999964,"midi":54,"time":113.211626,"velocity":0.3937007874015748},{"duration":0.1094889999999964,"midi":54,"time":113.32111499999999,"velocity":0.3937007874015748},{"duration":0.1094889999999964,"midi":66,"time":113.43060399999999,"velocity":0.3937007874015748},{"duration":0.1094890000000106,"midi":54,"time":113.54009299999998,"velocity":0.3937007874015748},{"duration":0.1094889999999964,"midi":54,"time":113.649582,"velocity":0.3937007874015748},{"duration":0.1094889999999964,"midi":54,"time":113.75907099999999,"velocity":0.3937007874015748},{"duration":0.218978000000007,"midi":53,"time":113.86855999999999,"velocity":0.3937007874015748},{"duration":0.1094890000000106,"midi":65,"time":113.97804899999998,"velocity":0.3937007874015748},{"duration":0.1094889999999964,"midi":65,"time":114.087538,"velocity":0.3937007874015748},{"duration":0.1094889999999964,"midi":65,"time":114.19702699999999,"velocity":0.3937007874015748},{"duration":0.1094889999999964,"midi":65,"time":114.30651599999999,"velocity":0.3937007874015748},{"duration":0.1094890000000106,"midi":65,"time":114.41600499999998,"velocity":0.3937007874015748},{"duration":0.1094889999999964,"midi":53,"time":114.525494,"velocity":0.3937007874015748},{"duration":0.1094889999999964,"midi":65,"time":114.63498299999999,"velocity":0.3937007874015748},{"duration":0.1094890000000106,"midi":53,"time":114.85396099999998,"velocity":0.3937007874015748},{"duration":0.1094889999999964,"midi":53,"time":114.96345,"velocity":0.3937007874015748},{"duration":0.1094889999999964,"midi":53,"time":115.07293899999999,"velocity":0.3937007874015748},{"duration":0.1094889999999964,"midi":65,"time":115.18242799999999,"velocity":0.3937007874015748},{"duration":0.1094890000000106,"midi":53,"time":115.29191699999998,"velocity":0.3937007874015748},{"duration":0.1094889999999964,"midi":53,"time":115.401406,"velocity":0.3937007874015748},{"duration":0.1094889999999964,"midi":53,"time":115.51089499999999,"velocity":0.3937007874015748},{"duration":0.218978000000007,"midi":50,"time":115.62038399999999,"velocity":0.3937007874015748},{"duration":0.1094890000000106,"midi":62,"time":115.72987299999998,"velocity":0.3937007874015748},{"duration":0.1094889999999964,"midi":62,"time":115.839362,"velocity":0.3937007874015748},{"duration":0.1094889999999964,"midi":50,"time":115.94885099999999,"velocity":0.3937007874015748},{"duration":0.1094889999999964,"midi":50,"time":116.05833999999999,"velocity":0.3937007874015748},{"duration":0.1094890000000106,"midi":50,"time":116.16782899999998,"velocity":0.3937007874015748},{"duration":0.1094889999999964,"midi":62,"time":116.277318,"velocity":0.3937007874015748},{"duration":0.1094890000000106,"midi":50,"time":116.60578499999998,"velocity":0.3937007874015748},{"duration":0.1094889999999964,"midi":50,"time":116.715274,"velocity":0.3937007874015748},{"duration":0.1094889999999964,"midi":50,"time":116.82476299999999,"velocity":0.3937007874015748},{"duration":0.1094889999999964,"midi":62,"time":116.93425199999999,"velocity":0.3937007874015748},{"duration":0.1094890000000106,"midi":50,"time":117.04374099999998,"velocity":0.3937007874015748},{"duration":0.1094889999999964,"midi":50,"time":117.15323,"velocity":0.3937007874015748},{"duration":0.1094889999999964,"midi":50,"time":117.26271899999999,"velocity":0.3937007874015748},{"duration":0.218978000000007,"midi":49,"time":117.37220799999999,"velocity":0.3937007874015748},{"duration":0.1094890000000106,"midi":61,"time":117.48169699999998,"velocity":0.3937007874015748},{"duration":0.1094889999999964,"midi":61,"time":117.591186,"velocity":0.3937007874015748},{"duration":0.1094889999999964,"midi":49,"time":117.70067499999999,"velocity":0.3937007874015748},{"duration":0.1094889999999964,"midi":49,"time":117.81016399999999,"velocity":0.3937007874015748},{"duration":0.1094890000000106,"midi":49,"time":117.91965299999998,"velocity":0.3937007874015748},{"duration":0.1094889999999964,"midi":61,"time":118.029142,"velocity":0.3937007874015748},{"duration":0.1094889999999964,"midi":61,"time":118.13863099999999,"velocity":0.3937007874015748},{"duration":0.1094890000000106,"midi":49,"time":118.35760899999998,"velocity":0.3937007874015748},{"duration":0.1094889999999964,"midi":49,"time":118.467098,"velocity":0.3937007874015748},{"duration":0.1094889999999964,"midi":49,"time":118.57658699999999,"velocity":0.3937007874015748},{"duration":0.1094889999999964,"midi":61,"time":118.68607599999999,"velocity":0.3937007874015748},{"duration":0.1094890000000106,"midi":49,"time":118.79556499999998,"velocity":0.3937007874015748},{"duration":0.1094889999999964,"midi":49,"time":118.90505399999999,"velocity":0.3937007874015748},{"duration":0.1094889999999964,"midi":49,"time":119.01454299999999,"velocity":0.3937007874015748},{"duration":0.218978000000007,"midi":54,"time":119.12403199999999,"velocity":0.3937007874015748},{"duration":0.1094890000000106,"midi":66,"time":119.23352099999998,"velocity":0.3937007874015748},{"duration":0.1094889999999964,"midi":66,"time":119.34300999999999,"velocity":0.3937007874015748},{"duration":0.1094889999999964,"midi":66,"time":119.45249899999999,"velocity":0.3937007874015748},{"duration":0.1094889999999964,"midi":66,"time":119.56198799999999,"velocity":0.3937007874015748},{"duration":0.1094890000000106,"midi":66,"time":119.67147699999998,"velocity":0.3937007874015748},{"duration":0.1094889999999964,"midi":54,"time":119.78096599999999,"velocity":0.3937007874015748},{"duration":0.1094889999999964,"midi":66,"time":119.89045499999999,"velocity":0.3937007874015748},{"duration":0.1094889999999964,"midi":66,"time":119.99994399999999,"velocity":0.3937007874015748},{"duration":0.1094890000000106,"midi":54,"time":120.10943299999998,"velocity":0.3937007874015748},{"duration":0.1094889999999964,"midi":54,"time":120.21892199999999,"velocity":0.3937007874015748},{"duration":0.1094889999999964,"midi":54,"time":120.32841099999999,"velocity":0.3937007874015748},{"duration":0.1094889999999964,"midi":66,"time":120.43789999999998,"velocity":0.3937007874015748},{"duration":0.1094890000000106,"midi":54,"time":120.54738899999998,"velocity":0.3937007874015748},{"duration":0.1094889999999964,"midi":54,"time":120.65687799999999,"velocity":0.3937007874015748},{"duration":0.1094889999999964,"midi":54,"time":120.76636699999999,"velocity":0.3937007874015748},{"duration":0.218978000000007,"midi":53,"time":120.87585599999998,"velocity":0.3937007874015748},{"duration":0.1094890000000106,"midi":65,"time":120.98534499999998,"velocity":0.3937007874015748},{"duration":0.1094889999999964,"midi":65,"time":121.09483399999999,"velocity":0.3937007874015748},{"duration":0.1094889999999964,"midi":65,"time":121.20432299999999,"velocity":0.3937007874015748},{"duration":0.1094889999999964,"midi":65,"time":121.31381199999998,"velocity":0.3937007874015748},{"duration":0.1094890000000106,"midi":65,"time":121.42330099999998,"velocity":0.3937007874015748},{"duration":0.1094889999999964,"midi":53,"time":121.53278999999999,"velocity":0.3937007874015748},{"duration":0.1094889999999964,"midi":65,"time":121.64227899999999,"velocity":0.3937007874015748},{"duration":0.1094889999999964,"midi":53,"time":121.861257,"velocity":0.3937007874015748},{"duration":0.1094889999999964,"midi":53,"time":121.97074599999999,"velocity":0.3937007874015748},{"duration":0.1094889999999964,"midi":53,"time":122.08023499999999,"velocity":0.3937007874015748},{"duration":0.1094890000000106,"midi":65,"time":122.18972399999998,"velocity":0.3937007874015748},{"duration":0.1094889999999964,"midi":53,"time":122.299213,"velocity":0.3937007874015748},{"duration":0.1094889999999964,"midi":53,"time":122.40870199999999,"velocity":0.3937007874015748},{"duration":0.1094889999999964,"midi":53,"time":122.51819099999999,"velocity":0.3937007874015748},{"duration":0.218978000000007,"midi":50,"time":122.62767999999998,"velocity":0.3937007874015748},{"duration":0.1094889999999964,"midi":62,"time":122.737169,"velocity":0.3937007874015748},{"duration":0.1094889999999964,"midi":62,"time":122.84665799999999,"velocity":0.3937007874015748},{"duration":0.1094889999999964,"midi":50,"time":122.95614699999999,"velocity":0.3937007874015748},{"duration":0.1094890000000106,"midi":50,"time":123.06563599999998,"velocity":0.3937007874015748},{"duration":0.1094889999999964,"midi":50,"time":123.175125,"velocity":0.3937007874015748},{"duration":0.1094889999999964,"midi":62,"time":123.28461399999999,"velocity":0.3937007874015748},{"duration":0.1094889999999964,"midi":62,"time":123.39410299999999,"velocity":0.3937007874015748},{"duration":0.1094889999999964,"midi":50,"time":123.613081,"velocity":0.3937007874015748},{"duration":0.1094889999999964,"midi":50,"time":123.72256999999999,"velocity":0.3937007874015748},{"duration":0.1094889999999964,"midi":50,"time":123.83205899999999,"velocity":0.3937007874015748},{"duration":0.1094890000000106,"midi":62,"time":123.94154799999998,"velocity":0.3937007874015748},{"duration":0.1094889999999964,"midi":50,"time":124.051037,"velocity":0.3937007874015748},{"duration":0.1094889999999964,"midi":50,"time":124.16052599999999,"velocity":0.3937007874015748},{"duration":0.1094889999999964,"midi":50,"time":124.27001499999999,"velocity":0.3937007874015748},{"duration":0.218978000000007,"midi":49,"time":124.37950399999998,"velocity":0.3937007874015748},{"duration":0.1094889999999964,"midi":61,"time":124.488993,"velocity":0.3937007874015748},{"duration":0.1094889999999964,"midi":61,"time":124.59848199999999,"velocity":0.3937007874015748},{"duration":0.1094889999999964,"midi":49,"time":124.70797099999999,"velocity":0.3937007874015748},{"duration":0.1094890000000106,"midi":49,"time":124.81745999999998,"velocity":0.3937007874015748},{"duration":0.1094889999999964,"midi":49,"time":124.926949,"velocity":0.3937007874015748},{"duration":0.1094889999999964,"midi":61,"time":125.03643799999999,"velocity":0.3937007874015748},{"duration":0.1094889999999964,"midi":61,"time":125.14592699999999,"velocity":0.3937007874015748},{"duration":0.1094890000000106,"midi":49,"time":125.25541599999998,"velocity":0.3937007874015748},{"duration":0.1094889999999964,"midi":49,"time":125.364905,"velocity":0.3937007874015748},{"duration":0.1094889999999964,"midi":49,"time":125.47439399999999,"velocity":0.3937007874015748},{"duration":0.1094889999999964,"midi":49,"time":125.58388299999999,"velocity":0.3937007874015748},{"duration":0.1094890000000106,"midi":61,"time":125.69337199999998,"velocity":0.3937007874015748},{"duration":0.1094889999999964,"midi":49,"time":125.802861,"velocity":0.3937007874015748},{"duration":0.1094889999999964,"midi":49,"time":125.91234999999999,"velocity":0.3937007874015748},{"duration":0.1094889999999964,"midi":49,"time":126.02183899999999,"velocity":0.3937007874015748},{"duration":0.218978000000007,"midi":54,"time":126.13132799999998,"velocity":0.3937007874015748},{"duration":0.1094889999999964,"midi":66,"time":126.24081699999999,"velocity":0.3937007874015748},{"duration":0.1094889999999964,"midi":66,"time":126.35030599999999,"velocity":0.3937007874015748},{"duration":0.1094889999999964,"midi":66,"time":126.45979499999999,"velocity":0.3937007874015748},{"duration":0.1094890000000106,"midi":66,"time":126.56928399999998,"velocity":0.3937007874015748},{"duration":0.1094889999999964,"midi":66,"time":126.67877299999999,"velocity":0.3937007874015748},{"duration":0.1094889999999964,"midi":54,"time":126.78826199999999,"velocity":0.3937007874015748},{"duration":0.1094889999999964,"midi":66,"time":126.89775099999999,"velocity":0.3937007874015748},{"duration":0.1094890000000106,"midi":66,"time":127.00723999999998,"velocity":0.3937007874015748},{"duration":0.1094889999999964,"midi":54,"time":127.11672899999999,"velocity":0.3937007874015748},{"duration":0.1094889999999964,"midi":54,"time":127.22621799999999,"velocity":0.3937007874015748},{"duration":0.1094889999999964,"midi":54,"time":127.33570699999999,"velocity":0.3937007874015748},{"duration":0.1094890000000106,"midi":66,"time":127.44519599999998,"velocity":0.3937007874015748},{"duration":0.1094889999999964,"midi":54,"time":127.55468499999999,"velocity":0.3937007874015748},{"duration":0.1094889999999964,"midi":54,"time":127.66417399999999,"velocity":0.3937007874015748},{"duration":0.1094889999999964,"midi":54,"time":127.77366299999998,"velocity":0.3937007874015748},{"duration":0.218978000000007,"midi":53,"time":127.88315199999998,"velocity":0.3937007874015748},{"duration":0.1094889999999964,"midi":65,"time":127.99264099999999,"velocity":0.3937007874015748},{"duration":0.1094889999999964,"midi":65,"time":128.10213,"velocity":0.3937007874015748},{"duration":0.1094889999999964,"midi":65,"time":128.21161899999998,"velocity":0.3937007874015748},{"duration":0.1094889999999964,"midi":65,"time":128.32110799999998,"velocity":0.3937007874015748},{"duration":0.1094889999999964,"midi":65,"time":128.43059699999998,"velocity":0.3937007874015748},{"duration":0.10948900000002482,"midi":53,"time":128.54008599999997,"velocity":0.3937007874015748},{"duration":0.1094889999999964,"midi":65,"time":128.649575,"velocity":0.3937007874015748},{"duration":0.1094889999999964,"midi":53,"time":128.868553,"velocity":0.3937007874015748},{"duration":0.1094889999999964,"midi":53,"time":128.978042,"velocity":0.3937007874015748},{"duration":0.1094889999999964,"midi":53,"time":129.08753099999998,"velocity":0.3937007874015748},{"duration":0.1094889999999964,"midi":65,"time":129.19701999999998,"velocity":0.3937007874015748},{"duration":0.1094889999999964,"midi":53,"time":129.30650899999998,"velocity":0.3937007874015748},{"duration":0.10948900000002482,"midi":53,"time":129.41599799999997,"velocity":0.3937007874015748},{"duration":0.1094889999999964,"midi":53,"time":129.525487,"velocity":0.3937007874015748},{"duration":0.2189779999999928,"midi":50,"time":129.634976,"velocity":0.3937007874015748},{"duration":0.1094889999999964,"midi":62,"time":129.744465,"velocity":0.3937007874015748},{"duration":0.1094889999999964,"midi":62,"time":129.853954,"velocity":0.3937007874015748},{"duration":0.1094889999999964,"midi":50,"time":129.96344299999998,"velocity":0.3937007874015748},{"duration":0.1094889999999964,"midi":50,"time":130.07293199999998,"velocity":0.3937007874015748},{"duration":0.1094889999999964,"midi":50,"time":130.18242099999998,"velocity":0.3937007874015748},{"duration":0.10948900000002482,"midi":62,"time":130.29190999999997,"velocity":0.3937007874015748},{"duration":0.1094889999999964,"midi":62,"time":130.401399,"velocity":0.3937007874015748},{"duration":0.1094889999999964,"midi":50,"time":130.620377,"velocity":0.3937007874015748},{"duration":0.1094889999999964,"midi":50,"time":130.729866,"velocity":0.3937007874015748},{"duration":0.1094889999999964,"midi":50,"time":130.83935499999998,"velocity":0.3937007874015748},{"duration":0.1094889999999964,"midi":62,"time":130.94884399999998,"velocity":0.3937007874015748},{"duration":0.10948900000002482,"midi":50,"time":131.05833299999998,"velocity":0.3937007874015748},{"duration":0.1094889999999964,"midi":50,"time":131.167822,"velocity":0.3937007874015748},{"duration":0.1094889999999964,"midi":50,"time":131.277311,"velocity":0.3937007874015748},{"duration":0.2189779999999928,"midi":49,"time":131.3868,"velocity":0.3937007874015748},{"duration":0.1094889999999964,"midi":61,"time":131.496289,"velocity":0.3937007874015748},{"duration":0.1094889999999964,"midi":61,"time":131.605778,"velocity":0.3937007874015748},{"duration":0.1094889999999964,"midi":49,"time":131.71526699999998,"velocity":0.3937007874015748},{"duration":0.1094889999999964,"midi":49,"time":131.82475599999998,"velocity":0.3937007874015748},{"duration":0.10948900000002482,"midi":49,"time":131.93424499999998,"velocity":0.3937007874015748},{"duration":0.1094889999999964,"midi":61,"time":132.043734,"velocity":0.3937007874015748},{"duration":0.1094889999999964,"midi":61,"time":132.153223,"velocity":0.3937007874015748},{"duration":0.1094889999999964,"midi":49,"time":132.262712,"velocity":0.3937007874015748},{"duration":0.1094889999999964,"midi":49,"time":132.372201,"velocity":0.3937007874015748},{"duration":0.1094889999999964,"midi":49,"time":132.48169,"velocity":0.3937007874015748},{"duration":0.1094889999999964,"midi":49,"time":132.59117899999998,"velocity":0.3937007874015748},{"duration":0.1094889999999964,"midi":61,"time":132.70066799999998,"velocity":0.3937007874015748},{"duration":0.10948900000002482,"midi":49,"time":132.81015699999998,"velocity":0.3937007874015748},{"duration":0.1094889999999964,"midi":49,"time":132.919646,"velocity":0.3937007874015748},{"duration":0.1094889999999964,"midi":49,"time":133.029135,"velocity":0.3937007874015748},{"duration":0.2189779999999928,"midi":54,"time":133.138624,"velocity":0.3937007874015748},{"duration":0.1094889999999964,"midi":66,"time":133.248113,"velocity":0.3937007874015748},{"duration":0.1094889999999964,"midi":66,"time":133.35760199999999,"velocity":0.3937007874015748},{"duration":0.1094889999999964,"midi":66,"time":133.46709099999998,"velocity":0.3937007874015748},{"duration":0.1094889999999964,"midi":66,"time":133.57657999999998,"velocity":0.3937007874015748},{"duration":0.10948900000002482,"midi":66,"time":133.68606899999997,"velocity":0.3937007874015748},{"duration":0.1094889999999964,"midi":54,"time":133.795558,"velocity":0.3937007874015748},{"duration":0.1094889999999964,"midi":66,"time":133.905047,"velocity":0.3937007874015748},{"duration":0.1094889999999964,"midi":66,"time":134.014536,"velocity":0.3937007874015748},{"duration":0.1094889999999964,"midi":54,"time":134.124025,"velocity":0.3937007874015748},{"duration":0.1094889999999964,"midi":54,"time":134.23351399999999,"velocity":0.3937007874015748},{"duration":0.1094889999999964,"midi":54,"time":134.34300299999998,"velocity":0.3937007874015748},{"duration":0.1094889999999964,"midi":66,"time":134.45249199999998,"velocity":0.3937007874015748},{"duration":0.10948900000002482,"midi":54,"time":134.56198099999997,"velocity":0.3937007874015748},{"duration":0.1094889999999964,"midi":54,"time":134.67147,"velocity":0.3937007874015748},{"duration":0.1094889999999964,"midi":54,"time":134.780959,"velocity":0.3937007874015748},{"duration":0.2189779999999928,"midi":54,"time":134.890448,"velocity":0.3937007874015748},{"duration":0.1094889999999964,"midi":66,"time":134.999937,"velocity":0.3937007874015748},{"duration":0.1094889999999964,"midi":66,"time":135.10942599999998,"velocity":0.3937007874015748},{"duration":0.1094889999999964,"midi":66,"time":135.21891499999998,"velocity":0.3937007874015748},{"duration":0.1094889999999964,"midi":66,"time":135.32840399999998,"velocity":0.3937007874015748},{"duration":0.10948900000002482,"midi":66,"time":135.43789299999997,"velocity":0.3937007874015748},{"duration":0.1094889999999964,"midi":54,"time":135.547382,"velocity":0.3937007874015748},{"duration":0.1094889999999964,"midi":66,"time":135.656871,"velocity":0.3937007874015748},{"duration":0.1094889999999964,"midi":66,"time":135.76636,"velocity":0.3937007874015748},{"duration":0.1094889999999964,"midi":54,"time":135.875849,"velocity":0.3937007874015748},{"duration":0.1094889999999964,"midi":54,"time":135.98533799999998,"velocity":0.3937007874015748},{"duration":0.1094889999999964,"midi":54,"time":136.09482699999998,"velocity":0.3937007874015748},{"duration":0.1094889999999964,"midi":66,"time":136.20431599999998,"velocity":0.3937007874015748},{"duration":0.10948900000002482,"midi":54,"time":136.31380499999997,"velocity":0.3937007874015748},{"duration":0.1094889999999964,"midi":54,"time":136.423294,"velocity":0.3937007874015748},{"duration":0.1094889999999964,"midi":54,"time":136.532783,"velocity":0.3937007874015748},{"duration":0.2189779999999928,"midi":54,"time":136.642272,"velocity":0.3937007874015748},{"duration":0.1094889999999964,"midi":66,"time":136.751761,"velocity":0.3937007874015748},{"duration":0.1094889999999964,"midi":66,"time":136.86124999999998,"velocity":0.3937007874015748},{"duration":0.1094889999999964,"midi":66,"time":136.97073899999998,"velocity":0.3937007874015748},{"duration":0.1094889999999964,"midi":66,"time":137.08022799999998,"velocity":0.3937007874015748},{"duration":0.10948900000002482,"midi":66,"time":137.18971699999997,"velocity":0.3937007874015748},{"duration":0.1094889999999964,"midi":54,"time":137.299206,"velocity":0.3937007874015748},{"duration":0.1094889999999964,"midi":66,"time":137.408695,"velocity":0.3937007874015748},{"duration":0.1094889999999964,"midi":66,"time":137.518184,"velocity":0.3937007874015748},{"duration":0.1094889999999964,"midi":54,"time":137.627673,"velocity":0.3937007874015748},{"duration":0.1094889999999964,"midi":54,"time":137.73716199999998,"velocity":0.3937007874015748},{"duration":0.1094889999999964,"midi":54,"time":137.84665099999998,"velocity":0.3937007874015748},{"duration":0.1094889999999964,"midi":66,"time":137.95613999999998,"velocity":0.3937007874015748},{"duration":0.10948900000002482,"midi":54,"time":138.06562899999997,"velocity":0.3937007874015748},{"duration":0.1094889999999964,"midi":54,"time":138.175118,"velocity":0.3937007874015748},{"duration":0.1094889999999964,"midi":54,"time":138.284607,"velocity":0.3937007874015748},{"duration":0.4379559999999856,"midi":81,"time":210.21887999999998,"velocity":0.3937007874015748},{"duration":0.4379559999999856,"midi":80,"time":210.875814,"velocity":0.3937007874015748},{"duration":0.437956000000014,"midi":86,"time":211.53274799999997,"velocity":0.3937007874015748},{"duration":0.437956000000014,"midi":85,"time":212.18968199999998,"velocity":0.3937007874015748},{"duration":0.4379559999999856,"midi":81,"time":212.84661599999998,"velocity":0.3937007874015748},{"duration":0.437956000000014,"midi":80,"time":213.28457199999997,"velocity":0.3937007874015748},{"duration":0.4379559999999856,"midi":81,"time":213.72252799999998,"velocity":0.3937007874015748},{"duration":0.4379559999999856,"midi":80,"time":214.379462,"velocity":0.3937007874015748},{"duration":0.437956000000014,"midi":86,"time":215.03639599999997,"velocity":0.3937007874015748},{"duration":0.437956000000014,"midi":85,"time":215.69332999999997,"velocity":0.3937007874015748},{"duration":0.1094889999999964,"midi":85,"time":216.35026399999998,"velocity":0.3937007874015748},{"duration":0.1094889999999964,"midi":83,"time":216.44606687499999,"velocity":0.3937007874015748},{"duration":0.2189779999999928,"midi":81,"time":216.56924199999997,"velocity":0.3937007874015748},{"duration":0.2189780000000212,"midi":80,"time":216.78821999999997,"velocity":0.3937007874015748},{"duration":0.6569339999999784,"midi":81,"time":217.007198,"velocity":0.3937007874015748},{"duration":0.4379559999999856,"midi":80,"time":217.88311,"velocity":0.3937007874015748},{"duration":0.437956000000014,"midi":86,"time":218.54004399999997,"velocity":0.3937007874015748},{"duration":0.437956000000014,"midi":85,"time":219.19697799999997,"velocity":0.3937007874015748},{"duration":0.4379559999999856,"midi":81,"time":219.85391199999998,"velocity":0.3937007874015748},{"duration":0.437956000000014,"midi":80,"time":220.29186799999997,"velocity":0.3937007874015748},{"duration":0.4379559999999856,"midi":81,"time":220.72982399999998,"velocity":0.3937007874015748},{"duration":0.4379559999999856,"midi":80,"time":221.386758,"velocity":0.3937007874015748},{"duration":0.437956000000014,"midi":86,"time":222.04369199999996,"velocity":0.3937007874015748},{"duration":0.437956000000014,"midi":85,"time":222.70062599999997,"velocity":0.3937007874015748},{"duration":0.1094889999999964,"midi":85,"time":223.35755999999998,"velocity":0.3937007874015748},{"duration":0.1094889999999964,"midi":83,"time":223.45336287499998,"velocity":0.3937007874015748},{"duration":0.2189779999999928,"midi":81,"time":223.57653799999997,"velocity":0.3937007874015748},{"duration":0.2189780000000212,"midi":80,"time":223.79551599999996,"velocity":0.3937007874015748},{"duration":0.2189779999999928,"midi":81,"time":224.01449399999998,"velocity":0.3937007874015748}]},{"instrument":{"family":"guitar","number":26,"name":"electric guitar (jazz)"},"notes":[{"duration":0.1094890000000035,"midi":73,"time":56.058367999999994,"velocity":0.3937007874015748},{"duration":0.1094890000000035,"midi":81,"time":56.058367999999994,"velocity":0.3937007874015748},{"duration":0.1094890000000035,"midi":66,"time":56.058367999999994,"velocity":0.3937007874015748},{"duration":0.1094889999999964,"midi":80,"time":56.167857,"velocity":0.3937007874015748},{"duration":0.1094889999999964,"midi":73,"time":56.167857,"velocity":0.3937007874015748},{"duration":0.1094889999999964,"midi":66,"time":56.167857,"velocity":0.3937007874015748},{"duration":0.1094889999999964,"midi":66,"time":56.386835,"velocity":0.3937007874015748},{"duration":0.1094889999999964,"midi":78,"time":56.386835,"velocity":0.3937007874015748},{"duration":0.1094889999999964,"midi":73,"time":56.386835,"velocity":0.3937007874015748},{"duration":0.1094890000000035,"midi":78,"time":57.810191999999994,"velocity":0.3937007874015748},{"duration":0.1094890000000035,"midi":73,"time":57.810191999999994,"velocity":0.3937007874015748},{"duration":0.1094889999999964,"midi":78,"time":57.919681,"velocity":0.3937007874015748},{"duration":0.1094890000000035,"midi":78,"time":58.02916999999999,"velocity":0.3937007874015748},{"duration":0.1094890000000035,"midi":69,"time":58.02916999999999,"velocity":0.3937007874015748},{"duration":0.1094889999999964,"midi":66,"time":58.138659,"velocity":0.3937007874015748},{"duration":0.1094889999999964,"midi":66,"time":58.795593,"velocity":0.3937007874015748},{"duration":0.1094890000000035,"midi":69,"time":58.90508199999999,"velocity":0.3937007874015748},{"duration":0.1094889999999964,"midi":71,"time":59.014571,"velocity":0.3937007874015748},{"duration":0.1094890000000035,"midi":69,"time":61.75179599999999,"velocity":0.3937007874015748},{"duration":0.1094890000000035,"midi":78,"time":61.75179599999999,"velocity":0.3937007874015748},{"duration":0.1094890000000035,"midi":81,"time":61.97077399999999,"velocity":0.3937007874015748},{"duration":0.1094890000000035,"midi":69,"time":61.97077399999999,"velocity":0.3937007874015748},{"duration":0.1094889999999964,"midi":80,"time":62.080262999999995,"velocity":0.3937007874015748},{"duration":0.1094889999999964,"midi":69,"time":62.080262999999995,"velocity":0.3937007874015748},{"duration":0.1094889999999964,"midi":66,"time":62.299240999999995,"velocity":0.3937007874015748},{"duration":0.1094890000000035,"midi":69,"time":62.40872999999999,"velocity":0.3937007874015748},{"duration":0.1094889999999964,"midi":71,"time":62.518218999999995,"velocity":0.3937007874015748},{"duration":0.1094889999999964,"midi":66,"time":67.55471299999999,"velocity":0.3937007874015748},{"duration":0.1094890000000106,"midi":78,"time":67.66420199999999,"velocity":0.3937007874015748},{"duration":0.1094890000000106,"midi":69,"time":67.66420199999999,"velocity":0.3937007874015748},{"duration":0.1094890000000106,"midi":81,"time":67.66420199999999,"velocity":0.3937007874015748},{"duration":0.1094889999999964,"midi":80,"time":67.773691,"velocity":0.3937007874015748},{"duration":0.1094889999999964,"midi":78,"time":67.773691,"velocity":0.3937007874015748},{"duration":0.1094889999999964,"midi":69,"time":67.773691,"velocity":0.3937007874015748},{"duration":0.1094889999999964,"midi":66,"time":67.88318,"velocity":0.3937007874015748},{"duration":0.1094889999999964,"midi":73,"time":67.99266899999999,"velocity":0.3937007874015748},{"duration":0.1094889999999964,"midi":78,"time":67.99266899999999,"velocity":0.3937007874015748},{"duration":0.1094889999999964,"midi":80,"time":67.99266899999999,"velocity":0.3937007874015748},{"duration":0.1094890000000106,"midi":78,"time":68.10215799999999,"velocity":0.3937007874015748},{"duration":0.1094890000000106,"midi":73,"time":68.10215799999999,"velocity":0.3937007874015748},{"duration":0.1094889999999964,"midi":66,"time":70.07296,"velocity":0.3937007874015748},{"duration":0.1094889999999964,"midi":81,"time":70.07296,"velocity":0.3937007874015748},{"duration":0.1094889999999964,"midi":73,"time":70.07296,"velocity":0.3937007874015748},{"duration":0.1094889999999964,"midi":80,"time":70.18244899999999,"velocity":0.3937007874015748},{"duration":0.1094889999999964,"midi":73,"time":70.18244899999999,"velocity":0.3937007874015748},{"duration":0.1094889999999964,"midi":66,"time":70.18244899999999,"velocity":0.3937007874015748},{"duration":0.1094889999999964,"midi":66,"time":70.401427,"velocity":0.3937007874015748},{"duration":0.1094889999999964,"midi":76,"time":70.401427,"velocity":0.3937007874015748},{"duration":0.1094889999999964,"midi":73,"time":70.401427,"velocity":0.3937007874015748},{"duration":0.2189779999999928,"midi":78,"time":70.510916,"velocity":0.3937007874015748},{"duration":0.2189779999999928,"midi":73,"time":70.510916,"velocity":0.3937007874015748},{"duration":0.2189779999999928,"midi":66,"time":70.510916,"velocity":0.3937007874015748},{"duration":0.1094890000000106,"midi":81,"time":72.48171799999999,"velocity":0.3937007874015748},{"duration":0.1094890000000106,"midi":78,"time":72.48171799999999,"velocity":0.3937007874015748},{"duration":0.1094890000000106,"midi":73,"time":72.48171799999999,"velocity":0.3937007874015748},{"duration":0.1094889999999964,"midi":73,"time":72.591207,"velocity":0.3937007874015748},{"duration":0.1094889999999964,"midi":80,"time":72.591207,"velocity":0.3937007874015748},{"duration":0.1094889999999964,"midi":78,"time":72.591207,"velocity":0.3937007874015748},{"duration":0.1094889999999964,"midi":71,"time":74.014564,"velocity":0.3937007874015748},{"duration":0.1094889999999964,"midi":69,"time":74.12405299999999,"velocity":0.3937007874015748},{"duration":0.1094890000000106,"midi":66,"time":74.23354199999999,"velocity":0.3937007874015748},{"duration":0.1094889999999964,"midi":61,"time":74.343031,"velocity":0.3937007874015748},{"duration":0.1094889999999964,"midi":73,"time":74.45251999999999,"velocity":0.3937007874015748},{"duration":0.1094889999999964,"midi":81,"time":74.45251999999999,"velocity":0.3937007874015748},{"duration":0.1094889999999964,"midi":69,"time":74.45251999999999,"velocity":0.3937007874015748},{"duration":0.1094889999999964,"midi":78,"time":74.45251999999999,"velocity":0.3937007874015748},{"duration":0.1094889999999964,"midi":73,"time":74.56200899999999,"velocity":0.3937007874015748},{"duration":0.1094889999999964,"midi":69,"time":74.56200899999999,"velocity":0.3937007874015748},{"duration":0.1094889999999964,"midi":80,"time":74.56200899999999,"velocity":0.3937007874015748},{"duration":0.1094889999999964,"midi":78,"time":74.56200899999999,"velocity":0.3937007874015748},{"duration":0.1094890000000106,"midi":73,"time":74.67149799999999,"velocity":0.3937007874015748},{"duration":0.1094890000000106,"midi":69,"time":74.67149799999999,"velocity":0.3937007874015748},{"duration":0.1094889999999964,"midi":73,"time":74.780987,"velocity":0.3937007874015748},{"duration":0.1094889999999964,"midi":76,"time":74.780987,"velocity":0.3937007874015748},{"duration":0.1094889999999964,"midi":69,"time":74.780987,"velocity":0.3937007874015748},{"duration":0.1094889999999964,"midi":78,"time":74.780987,"velocity":0.3937007874015748},{"duration":0.218978000000007,"midi":69,"time":74.89047599999999,"velocity":0.3937007874015748},{"duration":0.218978000000007,"midi":73,"time":74.89047599999999,"velocity":0.3937007874015748},{"duration":0.218978000000007,"midi":78,"time":74.89047599999999,"velocity":0.3937007874015748},{"duration":0.1094890000000106,"midi":66,"time":76.31383299999999,"velocity":0.3937007874015748},{"duration":0.1094889999999964,"midi":69,"time":76.423322,"velocity":0.3937007874015748},{"duration":0.1094889999999964,"midi":71,"time":76.532811,"velocity":0.3937007874015748},{"duration":0.1094890000000106,"midi":66,"time":78.94156899999999,"velocity":0.3937007874015748},{"duration":0.1094889999999964,"midi":69,"time":79.051058,"velocity":0.3937007874015748},{"duration":0.1094889999999964,"midi":71,"time":79.160547,"velocity":0.3937007874015748},{"duration":0.1094889999999964,"midi":66,"time":81.45981599999999,"velocity":0.3937007874015748},{"duration":0.1094889999999964,"midi":73,"time":81.45981599999999,"velocity":0.3937007874015748},{"duration":0.1094889999999964,"midi":81,"time":81.45981599999999,"velocity":0.3937007874015748},{"duration":0.1094890000000106,"midi":73,"time":81.56930499999999,"velocity":0.3937007874015748},{"duration":0.1094890000000106,"midi":80,"time":81.56930499999999,"velocity":0.3937007874015748},{"duration":0.1094890000000106,"midi":66,"time":81.56930499999999,"velocity":0.3937007874015748},{"duration":0.1094889999999964,"midi":66,"time":81.678794,"velocity":0.3937007874015748},{"duration":0.1094889999999964,"midi":73,"time":81.678794,"velocity":0.3937007874015748},{"duration":0.1094889999999964,"midi":80,"time":81.678794,"velocity":0.3937007874015748},{"duration":0.1094889999999964,"midi":73,"time":81.78828299999999,"velocity":0.3937007874015748},{"duration":0.1094889999999964,"midi":66,"time":81.78828299999999,"velocity":0.3937007874015748},{"duration":0.1094889999999964,"midi":69,"time":82.11675,"velocity":0.3937007874015748},{"duration":0.1094889999999964,"midi":71,"time":82.22623899999999,"velocity":0.3937007874015748}]},{"instrument":{"family":"chromatic percussion","number":11,"name":"vibraphone"},"notes":[{"duration":0.32846699999999984,"midi":81,"time":7.007295999999999,"velocity":0.16535433070866143},{"duration":0.32846699999999984,"midi":93,"time":7.007295999999999,"velocity":0.16535433070866143},{"duration":0.10948899999999995,"midi":78,"time":7.335762999999999,"velocity":0.16535433070866143},{"duration":0.10948899999999995,"midi":90,"time":7.335762999999999,"velocity":0.16535433070866143},{"duration":0.2189779999999999,"midi":85,"time":7.445251999999999,"velocity":0.16535433070866143},{"duration":0.2189779999999999,"midi":85,"time":7.445251999999999,"velocity":0.16535433070866143},{"duration":0.2189779999999999,"midi":78,"time":7.664229999999999,"velocity":0.16535433070866143},{"duration":0.2189779999999999,"midi":90,"time":7.664229999999999,"velocity":0.16535433070866143},{"duration":0.32846700000000073,"midi":86,"time":7.883207999999999,"velocity":0.16535433070866143},{"duration":0.32846700000000073,"midi":86,"time":7.883207999999999,"velocity":0.16535433070866143},{"duration":0.10948899999999995,"midi":90,"time":8.211675,"velocity":0.16535433070866143},{"duration":0.10948899999999995,"midi":78,"time":8.211675,"velocity":0.16535433070866143},{"duration":0.2189779999999999,"midi":85,"time":8.321164,"velocity":0.16535433070866143},{"duration":0.2189779999999999,"midi":85,"time":8.321164,"velocity":0.16535433070866143},{"duration":0.2189779999999999,"midi":78,"time":8.540142,"velocity":0.16535433070866143},{"duration":0.2189779999999999,"midi":90,"time":8.540142,"velocity":0.16535433070866143},{"duration":0.32846699999999984,"midi":92,"time":8.75912,"velocity":0.16535433070866143},{"duration":0.32846699999999984,"midi":80,"time":8.75912,"velocity":0.16535433070866143},{"duration":0.10948899999999995,"midi":77,"time":9.087587,"velocity":0.16535433070866143},{"duration":0.10948899999999995,"midi":89,"time":9.087587,"velocity":0.16535433070866143},{"duration":0.2189779999999999,"midi":81,"time":9.197076,"velocity":0.16535433070866143},{"duration":0.2189779999999999,"midi":93,"time":9.197076,"velocity":0.16535433070866143},{"duration":0.2189779999999999,"midi":77,"time":9.416053999999999,"velocity":0.16535433070866143},{"duration":0.2189779999999999,"midi":89,"time":9.416053999999999,"velocity":0.16535433070866143},{"duration":0.32846699999999984,"midi":85,"time":9.635031999999999,"velocity":0.16535433070866143},{"duration":0.32846699999999984,"midi":85,"time":9.635031999999999,"velocity":0.16535433070866143},{"duration":0.10948899999999995,"midi":86,"time":9.963498999999999,"velocity":0.16535433070866143},{"duration":0.10948899999999995,"midi":86,"time":9.963498999999999,"velocity":0.16535433070866143},{"duration":0.2189779999999999,"midi":85,"time":10.072987999999999,"velocity":0.16535433070866143},{"duration":0.2189779999999999,"midi":85,"time":10.072987999999999,"velocity":0.16535433070866143},{"duration":0.5474449999999997,"midi":83,"time":10.291965999999999,"velocity":0.16535433070866143},{"duration":0.5474449999999997,"midi":95,"time":10.291965999999999,"velocity":0.16535433070866143},{"duration":0.10948899999999995,"midi":90,"time":10.839410999999998,"velocity":0.16535433070866143},{"duration":0.10948899999999995,"midi":78,"time":10.839410999999998,"velocity":0.16535433070866143},{"duration":0.2189779999999999,"midi":74,"time":10.948899999999998,"velocity":0.16535433070866143},{"duration":0.2189779999999999,"midi":86,"time":10.948899999999998,"velocity":0.16535433070866143},{"duration":0.2189779999999999,"midi":78,"time":11.167877999999998,"velocity":0.16535433070866143},{"duration":0.2189779999999999,"midi":90,"time":11.167877999999998,"velocity":0.16535433070866143},{"duration":0.3284670000000016,"midi":92,"time":11.386855999999998,"velocity":0.16535433070866143},{"duration":0.3284670000000016,"midi":80,"time":11.386855999999998,"velocity":0.16535433070866143},{"duration":0.10948899999999995,"midi":93,"time":11.715323,"velocity":0.16535433070866143},{"duration":0.10948899999999995,"midi":81,"time":11.715323,"velocity":0.16535433070866143},{"duration":0.2189779999999999,"midi":84,"time":11.824812,"velocity":0.16535433070866143},{"duration":0.2189779999999999,"midi":92,"time":11.824812,"velocity":0.16535433070866143},{"duration":0.2189779999999999,"midi":78,"time":12.04379,"velocity":0.16535433070866143},{"duration":0.2189779999999999,"midi":90,"time":12.04379,"velocity":0.16535433070866143},{"duration":0.32846699999999984,"midi":77,"time":12.262768,"velocity":0.16535433070866143},{"duration":0.32846699999999984,"midi":89,"time":12.262768,"velocity":0.16535433070866143},{"duration":0.10948899999999995,"midi":92,"time":12.591235,"velocity":0.16535433070866143},{"duration":0.10948899999999995,"midi":80,"time":12.591235,"velocity":0.16535433070866143},{"duration":0.2189779999999999,"midi":89,"time":12.700724,"velocity":0.16535433070866143},{"duration":0.2189779999999999,"midi":77,"time":12.700724,"velocity":0.16535433070866143},{"duration":0.2189779999999999,"midi":80,"time":12.919702,"velocity":0.16535433070866143},{"duration":0.2189779999999999,"midi":92,"time":12.919702,"velocity":0.16535433070866143},{"duration":0.32846699999999984,"midi":42,"time":14.014591999999999,"velocity":0.16535433070866143},{"duration":0.32846699999999984,"midi":93,"time":14.014591999999999,"velocity":0.16535433070866143},{"duration":0.32846699999999984,"midi":81,"time":14.014591999999999,"velocity":0.16535433070866143},{"duration":0.32846699999999984,"midi":42,"time":14.343058999999998,"velocity":0.16535433070866143},{"duration":0.10948899999999995,"midi":90,"time":14.343058999999998,"velocity":0.16535433070866143},{"duration":0.10948899999999995,"midi":78,"time":14.343058999999998,"velocity":0.16535433070866143},{"duration":0.2189779999999999,"midi":85,"time":14.452547999999998,"velocity":0.16535433070866143},{"duration":0.2189779999999999,"midi":85,"time":14.452547999999998,"velocity":0.16535433070866143},{"duration":0.2189779999999999,"midi":78,"time":14.671525999999998,"velocity":0.16535433070866143},{"duration":0.2189779999999999,"midi":90,"time":14.671525999999998,"velocity":0.16535433070866143},{"duration":0.2189779999999999,"midi":42,"time":14.671525999999998,"velocity":0.16535433070866143},{"duration":0.32846699999999984,"midi":86,"time":14.890503999999998,"velocity":0.16535433070866143},{"duration":0.2189779999999999,"midi":42,"time":14.890503999999998,"velocity":0.16535433070866143},{"duration":0.2189779999999999,"midi":54,"time":14.890503999999998,"velocity":0.16535433070866143},{"duration":0.32846699999999984,"midi":86,"time":14.890503999999998,"velocity":0.16535433070866143},{"duration":0.10948899999999995,"midi":42,"time":15.109481999999998,"velocity":0.16535433070866143},{"duration":0.10948899999999995,"midi":78,"time":15.218970999999998,"velocity":0.16535433070866143},{"duration":0.10948899999999995,"midi":90,"time":15.218970999999998,"velocity":0.16535433070866143},{"duration":0.10948899999999995,"midi":42,"time":15.218970999999998,"velocity":0.16535433070866143},{"duration":0.2189779999999999,"midi":85,"time":15.328459999999998,"velocity":0.16535433070866143},{"duration":0.2189779999999999,"midi":85,"time":15.328459999999998,"velocity":0.16535433070866143},{"duration":0.4379559999999998,"midi":42,"time":15.328459999999998,"velocity":0.16535433070866143},{"duration":0.2189779999999999,"midi":54,"time":15.328459999999998,"velocity":0.16535433070866143},{"duration":0.2189779999999999,"midi":90,"time":15.547437999999998,"velocity":0.16535433070866143},{"duration":0.2189779999999999,"midi":78,"time":15.547437999999998,"velocity":0.16535433070866143},{"duration":0.3284670000000016,"midi":41,"time":15.766415999999998,"velocity":0.16535433070866143},{"duration":0.3284670000000016,"midi":92,"time":15.766415999999998,"velocity":0.16535433070866143},{"duration":0.3284670000000016,"midi":80,"time":15.766415999999998,"velocity":0.16535433070866143},{"duration":0.32846699999999984,"midi":41,"time":16.094883,"velocity":0.16535433070866143},{"duration":0.10948899999999995,"midi":89,"time":16.094883,"velocity":0.16535433070866143},{"duration":0.10948899999999995,"midi":77,"time":16.094883,"velocity":0.16535433070866143},{"duration":0.2189779999999999,"midi":81,"time":16.204372,"velocity":0.16535433070866143},{"duration":0.2189779999999999,"midi":93,"time":16.204372,"velocity":0.16535433070866143},{"duration":0.2189779999999999,"midi":41,"time":16.42335,"velocity":0.16535433070866143},{"duration":0.2189779999999999,"midi":89,"time":16.42335,"velocity":0.16535433070866143},{"duration":0.2189779999999999,"midi":77,"time":16.42335,"velocity":0.16535433070866143},{"duration":0.2189779999999999,"midi":53,"time":16.642328,"velocity":0.16535433070866143},{"duration":0.2189779999999999,"midi":41,"time":16.642328,"velocity":0.16535433070866143},{"duration":0.32846699999999984,"midi":85,"time":16.642328,"velocity":0.16535433070866143},{"duration":0.32846699999999984,"midi":85,"time":16.642328,"velocity":0.16535433070866143},{"duration":0.10948899999999995,"midi":41,"time":16.861306,"velocity":0.16535433070866143},{"duration":0.10948899999999995,"midi":86,"time":16.970795,"velocity":0.16535433070866143},{"duration":0.10948899999999995,"midi":41,"time":16.970795,"velocity":0.16535433070866143},{"duration":0.10948899999999995,"midi":86,"time":16.970795,"velocity":0.16535433070866143},{"duration":0.2189779999999999,"midi":53,"time":17.080284,"velocity":0.16535433070866143},{"duration":0.4379559999999998,"midi":41,"time":17.080284,"velocity":0.16535433070866143},{"duration":0.2189779999999999,"midi":85,"time":17.080284,"velocity":0.16535433070866143},{"duration":0.2189779999999999,"midi":85,"time":17.080284,"velocity":0.16535433070866143},{"duration":0.2189779999999999,"midi":83,"time":17.299262,"velocity":0.16535433070866143},{"duration":0.2189779999999999,"midi":95,"time":17.299262,"velocity":0.16535433070866143},{"duration":0.2189779999999999,"midi":86,"time":17.51824,"velocity":0.16535433070866143},{"duration":0.2189779999999999,"midi":74,"time":17.51824,"velocity":0.16535433070866143},{"duration":0.32846699999999984,"midi":38,"time":17.51824,"velocity":0.16535433070866143},{"duration":0.10948899999999995,"midi":78,"time":17.846707,"velocity":0.16535433070866143},{"duration":0.10948899999999995,"midi":90,"time":17.846707,"velocity":0.16535433070866143},{"duration":0.32846699999999984,"midi":38,"time":17.846707,"velocity":0.16535433070866143},{"duration":0.2189779999999999,"midi":74,"time":17.956196,"velocity":0.16535433070866143},{"duration":0.2189779999999999,"midi":86,"time":17.956196,"velocity":0.16535433070866143},{"duration":0.2189779999999999,"midi":78,"time":18.175174,"velocity":0.16535433070866143},{"duration":0.2189779999999999,"midi":38,"time":18.175174,"velocity":0.16535433070866143},{"duration":0.2189779999999999,"midi":90,"time":18.175174,"velocity":0.16535433070866143},{"duration":0.32846699999999984,"midi":80,"time":18.394152,"velocity":0.16535433070866143},{"duration":0.32846699999999984,"midi":92,"time":18.394152,"velocity":0.16535433070866143},{"duration":0.2189779999999999,"midi":50,"time":18.394152,"velocity":0.16535433070866143},{"duration":0.2189779999999999,"midi":38,"time":18.394152,"velocity":0.16535433070866143},{"duration":0.10948899999999995,"midi":38,"time":18.613129999999998,"velocity":0.16535433070866143},{"duration":0.10948899999999995,"midi":93,"time":18.722618999999998,"velocity":0.16535433070866143},{"duration":0.10948899999999995,"midi":81,"time":18.722618999999998,"velocity":0.16535433070866143},{"duration":0.10948899999999995,"midi":38,"time":18.722618999999998,"velocity":0.16535433070866143},{"duration":0.2189779999999999,"midi":80,"time":18.832107999999998,"velocity":0.16535433070866143},{"duration":0.2189779999999999,"midi":92,"time":18.832107999999998,"velocity":0.16535433070866143},{"duration":0.2189779999999999,"midi":50,"time":18.832107999999998,"velocity":0.16535433070866143},{"duration":0.4379559999999998,"midi":38,"time":18.832107999999998,"velocity":0.16535433070866143},{"duration":0.2189779999999999,"midi":78,"time":19.051085999999998,"velocity":0.16535433070866143},{"duration":0.2189779999999999,"midi":90,"time":19.051085999999998,"velocity":0.16535433070866143},{"duration":0.32846699999999984,"midi":37,"time":19.270063999999998,"velocity":0.16535433070866143},{"duration":0.32846699999999984,"midi":89,"time":19.270063999999998,"velocity":0.16535433070866143},{"duration":0.32846699999999984,"midi":77,"time":19.270063999999998,"velocity":0.16535433070866143},{"duration":0.10948899999999995,"midi":92,"time":19.598530999999998,"velocity":0.16535433070866143},{"duration":0.32846699999999984,"midi":37,"time":19.598530999999998,"velocity":0.16535433070866143},{"duration":0.10948899999999995,"midi":80,"time":19.598530999999998,"velocity":0.16535433070866143},{"duration":0.2189779999999999,"midi":77,"time":19.708019999999998,"velocity":0.16535433070866143},{"duration":0.2189779999999999,"midi":89,"time":19.708019999999998,"velocity":0.16535433070866143},{"duration":0.2189779999999999,"midi":37,"time":19.926997999999998,"velocity":0.16535433070866143},{"duration":0.2189779999999999,"midi":92,"time":19.926997999999998,"velocity":0.16535433070866143},{"duration":0.2189779999999999,"midi":80,"time":19.926997999999998,"velocity":0.16535433070866143},{"duration":0.2189779999999999,"midi":37,"time":20.145975999999997,"velocity":0.16535433070866143},{"duration":0.32846699999999984,"midi":95,"time":20.145975999999997,"velocity":0.16535433070866143},{"duration":0.32846699999999984,"midi":83,"time":20.145975999999997,"velocity":0.16535433070866143},{"duration":0.2189779999999999,"midi":49,"time":20.145975999999997,"velocity":0.16535433070866143},{"duration":0.10948899999999995,"midi":37,"time":20.364953999999997,"velocity":0.16535433070866143},{"duration":0.10948899999999995,"midi":85,"time":20.474442999999997,"velocity":0.16535433070866143},{"duration":0.10948899999999995,"midi":85,"time":20.474442999999997,"velocity":0.16535433070866143},{"duration":0.10948899999999995,"midi":37,"time":20.474442999999997,"velocity":0.16535433070866143},{"duration":0.2189779999999999,"midi":49,"time":20.583931999999997,"velocity":0.16535433070866143},{"duration":0.4379559999999998,"midi":37,"time":20.583931999999997,"velocity":0.16535433070866143},{"duration":0.2189779999999999,"midi":83,"time":20.583931999999997,"velocity":0.16535433070866143},{"duration":0.2189779999999999,"midi":95,"time":20.583931999999997,"velocity":0.16535433070866143},{"duration":0.2189779999999999,"midi":81,"time":20.802909999999997,"velocity":0.16535433070866143},{"duration":0.2189779999999999,"midi":93,"time":20.802909999999997,"velocity":0.16535433070866143},{"duration":0.32846699999999984,"midi":42,"time":21.021887999999997,"velocity":0.16535433070866143},{"duration":0.32846699999999984,"midi":93,"time":21.021887999999997,"velocity":0.16535433070866143},{"duration":0.32846699999999984,"midi":81,"time":21.021887999999997,"velocity":0.16535433070866143},{"duration":0.10948899999999995,"midi":90,"time":21.350354999999997,"velocity":0.16535433070866143},{"duration":0.32846699999999984,"midi":42,"time":21.350354999999997,"velocity":0.16535433070866143},{"duration":0.10948899999999995,"midi":78,"time":21.350354999999997,"velocity":0.16535433070866143},{"duration":0.2189779999999999,"midi":85,"time":21.459843999999997,"velocity":0.16535433070866143},{"duration":0.2189779999999999,"midi":85,"time":21.459843999999997,"velocity":0.16535433070866143},{"duration":0.2189779999999999,"midi":42,"time":21.678821999999997,"velocity":0.16535433070866143},{"duration":0.2189779999999999,"midi":90,"time":21.678821999999997,"velocity":0.16535433070866143},{"duration":0.2189779999999999,"midi":78,"time":21.678821999999997,"velocity":0.16535433070866143},{"duration":0.2189779999999999,"midi":54,"time":21.897799999999997,"velocity":0.16535433070866143},{"duration":0.2189779999999999,"midi":42,"time":21.897799999999997,"velocity":0.16535433070866143},{"duration":0.32846699999999984,"midi":86,"time":21.897799999999997,"velocity":0.16535433070866143},{"duration":0.32846699999999984,"midi":86,"time":21.897799999999997,"velocity":0.16535433070866143},{"duration":0.10948899999999995,"midi":42,"time":22.116777999999996,"velocity":0.16535433070866143},{"duration":0.10948899999999995,"midi":90,"time":22.226266999999996,"velocity":0.16535433070866143},{"duration":0.10948899999999995,"midi":78,"time":22.226266999999996,"velocity":0.16535433070866143},{"duration":0.10948899999999995,"midi":42,"time":22.226266999999996,"velocity":0.16535433070866143},{"duration":0.2189779999999999,"midi":85,"time":22.335755999999996,"velocity":0.16535433070866143},{"duration":0.2189779999999999,"midi":54,"time":22.335755999999996,"velocity":0.16535433070866143},{"duration":0.4379559999999998,"midi":42,"time":22.335755999999996,"velocity":0.16535433070866143},{"duration":0.2189779999999999,"midi":85,"time":22.335755999999996,"velocity":0.16535433070866143},{"duration":0.2189779999999999,"midi":78,"time":22.554733999999996,"velocity":0.16535433070866143},{"duration":0.2189779999999999,"midi":90,"time":22.554733999999996,"velocity":0.16535433070866143},{"duration":0.32846699999999984,"midi":80,"time":22.773711999999996,"velocity":0.16535433070866143},{"duration":0.32846699999999984,"midi":41,"time":22.773711999999996,"velocity":0.16535433070866143},{"duration":0.32846699999999984,"midi":92,"time":22.773711999999996,"velocity":0.16535433070866143},{"duration":0.3284670000000034,"midi":41,"time":23.102178999999996,"velocity":0.16535433070866143},{"duration":0.10948899999999995,"midi":77,"time":23.102178999999996,"velocity":0.16535433070866143},{"duration":0.10948899999999995,"midi":89,"time":23.102178999999996,"velocity":0.16535433070866143},{"duration":0.21897800000000345,"midi":93,"time":23.211667999999996,"velocity":0.16535433070866143},{"duration":0.21897800000000345,"midi":81,"time":23.211667999999996,"velocity":0.16535433070866143},{"duration":0.2189779999999999,"midi":77,"time":23.430646,"velocity":0.16535433070866143},{"duration":0.2189779999999999,"midi":89,"time":23.430646,"velocity":0.16535433070866143},{"duration":0.2189779999999999,"midi":41,"time":23.430646,"velocity":0.16535433070866143},{"duration":0.2189779999999999,"midi":41,"time":23.649624,"velocity":0.16535433070866143},{"duration":0.2189779999999999,"midi":53,"time":23.649624,"velocity":0.16535433070866143},{"duration":0.32846699999999984,"midi":85,"time":23.649624,"velocity":0.16535433070866143},{"duration":0.32846699999999984,"midi":85,"time":23.649624,"velocity":0.16535433070866143},{"duration":0.10948899999999995,"midi":41,"time":23.868602,"velocity":0.16535433070866143},{"duration":0.10948899999999995,"midi":41,"time":23.978091,"velocity":0.16535433070866143},{"duration":0.10948899999999995,"midi":86,"time":23.978091,"velocity":0.16535433070866143},{"duration":0.10948899999999995,"midi":86,"time":23.978091,"velocity":0.16535433070866143},{"duration":0.4379559999999998,"midi":41,"time":24.08758,"velocity":0.16535433070866143},{"duration":0.2189779999999999,"midi":53,"time":24.08758,"velocity":0.16535433070866143},{"duration":0.2189779999999999,"midi":85,"time":24.08758,"velocity":0.16535433070866143},{"duration":0.2189779999999999,"midi":85,"time":24.08758,"velocity":0.16535433070866143},{"duration":0.2189779999999999,"midi":83,"time":24.306558,"velocity":0.16535433070866143},{"duration":0.2189779999999999,"midi":95,"time":24.306558,"velocity":0.16535433070866143},{"duration":0.2189779999999999,"midi":86,"time":24.525536,"velocity":0.16535433070866143},{"duration":0.2189779999999999,"midi":74,"time":24.525536,"velocity":0.16535433070866143},{"duration":0.32846699999999984,"midi":38,"time":24.525536,"velocity":0.16535433070866143},{"duration":0.32846699999999984,"midi":38,"time":24.854003,"velocity":0.16535433070866143},{"duration":0.10948899999999995,"midi":78,"time":24.854003,"velocity":0.16535433070866143},{"duration":0.10948899999999995,"midi":90,"time":24.854003,"velocity":0.16535433070866143},{"duration":0.2189779999999999,"midi":74,"time":24.963492,"velocity":0.16535433070866143},{"duration":0.2189779999999999,"midi":86,"time":24.963492,"velocity":0.16535433070866143},{"duration":0.2189779999999999,"midi":90,"time":25.18247,"velocity":0.16535433070866143},{"duration":0.2189779999999999,"midi":38,"time":25.18247,"velocity":0.16535433070866143},{"duration":0.2189779999999999,"midi":78,"time":25.18247,"velocity":0.16535433070866143},{"duration":0.2189779999999999,"midi":50,"time":25.401448,"velocity":0.16535433070866143},{"duration":0.2189779999999999,"midi":38,"time":25.401448,"velocity":0.16535433070866143},{"duration":0.32846699999999984,"midi":80,"time":25.401448,"velocity":0.16535433070866143},{"duration":0.32846699999999984,"midi":92,"time":25.401448,"velocity":0.16535433070866143},{"duration":0.10948899999999995,"midi":38,"time":25.620426,"velocity":0.16535433070866143},{"duration":0.10948899999999995,"midi":38,"time":25.729915,"velocity":0.16535433070866143},{"duration":0.10948899999999995,"midi":81,"time":25.729915,"velocity":0.16535433070866143},{"duration":0.10948899999999995,"midi":93,"time":25.729915,"velocity":0.16535433070866143},{"duration":0.2189779999999999,"midi":80,"time":25.839404,"velocity":0.16535433070866143},{"duration":0.4379559999999998,"midi":38,"time":25.839404,"velocity":0.16535433070866143},{"duration":0.2189779999999999,"midi":50,"time":25.839404,"velocity":0.16535433070866143},{"duration":0.2189779999999999,"midi":92,"time":25.839404,"velocity":0.16535433070866143},{"duration":0.2189779999999999,"midi":90,"time":26.058381999999998,"velocity":0.16535433070866143},{"duration":0.2189779999999999,"midi":78,"time":26.058381999999998,"velocity":0.16535433070866143},{"duration":0.32846699999999984,"midi":89,"time":26.277359999999998,"velocity":0.16535433070866143},{"duration":0.32846699999999984,"midi":37,"time":26.277359999999998,"velocity":0.16535433070866143},{"duration":0.32846699999999984,"midi":77,"time":26.277359999999998,"velocity":0.16535433070866143},{"duration":0.10948899999999995,"midi":92,"time":26.605826999999998,"velocity":0.16535433070866143},{"duration":0.10948899999999995,"midi":80,"time":26.605826999999998,"velocity":0.16535433070866143},{"duration":0.32846699999999984,"midi":37,"time":26.605826999999998,"velocity":0.16535433070866143},{"duration":0.2189779999999999,"midi":89,"time":26.715315999999998,"velocity":0.16535433070866143},{"duration":0.2189779999999999,"midi":77,"time":26.715315999999998,"velocity":0.16535433070866143},{"duration":0.2189779999999999,"midi":80,"time":26.934293999999998,"velocity":0.16535433070866143},{"duration":0.2189779999999999,"midi":37,"time":26.934293999999998,"velocity":0.16535433070866143},{"duration":0.2189779999999999,"midi":92,"time":26.934293999999998,"velocity":0.16535433070866143},{"duration":0.32846699999999984,"midi":95,"time":27.153271999999998,"velocity":0.16535433070866143},{"duration":0.32846699999999984,"midi":83,"time":27.153271999999998,"velocity":0.16535433070866143},{"duration":0.2189779999999999,"midi":37,"time":27.153271999999998,"velocity":0.16535433070866143},{"duration":0.2189779999999999,"midi":49,"time":27.153271999999998,"velocity":0.16535433070866143},{"duration":0.10948899999999995,"midi":37,"time":27.372249999999998,"velocity":0.16535433070866143},{"duration":0.10948899999999995,"midi":37,"time":27.481738999999997,"velocity":0.16535433070866143},{"duration":0.10948899999999995,"midi":85,"time":27.481738999999997,"velocity":0.16535433070866143},{"duration":0.10948899999999995,"midi":85,"time":27.481738999999997,"velocity":0.16535433070866143},{"duration":0.2189779999999999,"midi":49,"time":27.591227999999997,"velocity":0.16535433070866143},{"duration":0.4379559999999998,"midi":37,"time":27.591227999999997,"velocity":0.16535433070866143},{"duration":0.2189779999999999,"midi":95,"time":27.591227999999997,"velocity":0.16535433070866143},{"duration":0.2189779999999999,"midi":83,"time":27.591227999999997,"velocity":0.16535433070866143},{"duration":0.2189779999999999,"midi":81,"time":27.810205999999997,"velocity":0.16535433070866143},{"duration":0.2189779999999999,"midi":93,"time":27.810205999999997,"velocity":0.16535433070866143},{"duration":0.32846699999999984,"midi":42,"time":28.029183999999997,"velocity":0.16535433070866143},{"duration":0.32846699999999984,"midi":42,"time":28.357650999999997,"velocity":0.16535433070866143},{"duration":0.2189779999999999,"midi":42,"time":28.686117999999997,"velocity":0.16535433070866143},{"duration":0.2189779999999999,"midi":54,"time":28.905095999999997,"velocity":0.16535433070866143},{"duration":0.2189779999999999,"midi":42,"time":28.905095999999997,"velocity":0.16535433070866143},{"duration":0.10948899999999995,"midi":42,"time":29.124073999999997,"velocity":0.16535433070866143},{"duration":0.10948899999999995,"midi":42,"time":29.233562999999997,"velocity":0.16535433070866143},{"duration":0.2189779999999999,"midi":42,"time":29.562029999999996,"velocity":0.16535433070866143},{"duration":0.10948899999999995,"midi":42,"time":29.781007999999996,"velocity":0.16535433070866143},{"duration":0.10948899999999995,"midi":42,"time":29.890496999999996,"velocity":0.16535433070866143},{"duration":0.10948899999999995,"midi":42,"time":29.999985999999996,"velocity":0.16535433070866143},{"duration":0.10948899999999995,"midi":42,"time":30.109474999999996,"velocity":0.16535433070866143},{"duration":0.10948899999999995,"midi":42,"time":30.437941999999996,"velocity":0.16535433070866143},{"duration":0.2189779999999999,"midi":42,"time":30.437941999999996,"velocity":0.16535433070866143},{"duration":0.32846699999999984,"midi":42,"time":30.656919999999996,"velocity":0.16535433070866143},{"duration":0.2189779999999999,"midi":54,"time":30.656919999999996,"velocity":0.16535433070866143},{"duration":0.5474449999999997,"midi":42,"time":30.985386999999996,"velocity":0.16535433070866143},{"duration":0.32846699999999984,"midi":38,"time":31.532831999999996,"velocity":0.16535433070866143},{"duration":0.3284670000000034,"midi":38,"time":31.861298999999995,"velocity":0.16535433070866143},{"duration":0.2189779999999999,"midi":38,"time":32.189766,"velocity":0.16535433070866143},{"duration":0.2189779999999999,"midi":50,"time":32.408744,"velocity":0.16535433070866143},{"duration":0.2189779999999999,"midi":38,"time":32.408744,"velocity":0.16535433070866143},{"duration":0.1094889999999964,"midi":38,"time":32.627722,"velocity":0.16535433070866143},{"duration":0.1094890000000035,"midi":38,"time":32.737210999999995,"velocity":0.16535433070866143},{"duration":0.2189779999999999,"midi":38,"time":33.065678,"velocity":0.16535433070866143},{"duration":0.3284669999999963,"midi":37,"time":33.284656,"velocity":0.16535433070866143},{"duration":0.3284670000000034,"midi":37,"time":33.613122999999995,"velocity":0.16535433070866143},{"duration":0.2189779999999999,"midi":37,"time":33.94159,"velocity":0.16535433070866143},{"duration":0.2189779999999999,"midi":49,"time":34.160568,"velocity":0.16535433070866143},{"duration":0.2189779999999999,"midi":37,"time":34.160568,"velocity":0.16535433070866143},{"duration":0.1094889999999964,"midi":37,"time":34.379546,"velocity":0.16535433070866143},{"duration":0.1094890000000035,"midi":37,"time":34.489034999999994,"velocity":0.16535433070866143},{"duration":0.2189779999999999,"midi":37,"time":34.817502,"velocity":0.16535433070866143},{"duration":0.3284669999999963,"midi":42,"time":35.03648,"velocity":0.16535433070866143},{"duration":0.3284670000000034,"midi":42,"time":35.364946999999994,"velocity":0.16535433070866143},{"duration":0.2189779999999999,"midi":42,"time":35.693414,"velocity":0.16535433070866143},{"duration":0.2189779999999999,"midi":54,"time":35.912392,"velocity":0.16535433070866143},{"duration":0.2189779999999999,"midi":42,"time":35.912392,"velocity":0.16535433070866143},{"duration":0.1094889999999964,"midi":42,"time":36.13137,"velocity":0.16535433070866143},{"duration":0.1094890000000035,"midi":42,"time":36.24085899999999,"velocity":0.16535433070866143},{"duration":0.2189779999999999,"midi":42,"time":36.569326,"velocity":0.16535433070866143},{"duration":0.1094889999999964,"midi":42,"time":36.788304,"velocity":0.16535433070866143},{"duration":0.1094890000000035,"midi":42,"time":36.89779299999999,"velocity":0.16535433070866143},{"duration":0.1094889999999964,"midi":42,"time":37.007282,"velocity":0.16535433070866143},{"duration":0.1094890000000035,"midi":42,"time":37.11677099999999,"velocity":0.16535433070866143},{"duration":0.1094890000000035,"midi":42,"time":37.445237999999996,"velocity":0.16535433070866143},{"duration":0.2189779999999999,"midi":42,"time":37.445237999999996,"velocity":0.16535433070866143},{"duration":0.2189779999999999,"midi":54,"time":37.664215999999996,"velocity":0.16535433070866143},{"duration":0.3284670000000034,"midi":42,"time":37.664215999999996,"velocity":0.16535433070866143},{"duration":0.5474449999999962,"midi":42,"time":37.992683,"velocity":0.16535433070866143},{"duration":0.3284670000000034,"midi":38,"time":38.540127999999996,"velocity":0.16535433070866143},{"duration":0.3284669999999963,"midi":38,"time":38.868595,"velocity":0.16535433070866143},{"duration":0.2189779999999999,"midi":38,"time":39.197061999999995,"velocity":0.16535433070866143},{"duration":0.2189779999999999,"midi":38,"time":39.416039999999995,"velocity":0.16535433070866143},{"duration":0.2189779999999999,"midi":50,"time":39.416039999999995,"velocity":0.16535433070866143},{"duration":0.1094890000000035,"midi":38,"time":39.635017999999995,"velocity":0.16535433070866143},{"duration":0.1094889999999964,"midi":38,"time":39.744507,"velocity":0.16535433070866143},{"duration":0.2189779999999999,"midi":38,"time":40.072973999999995,"velocity":0.16535433070866143},{"duration":0.3284670000000034,"midi":37,"time":40.291951999999995,"velocity":0.16535433070866143},{"duration":0.3284669999999963,"midi":37,"time":40.620419,"velocity":0.16535433070866143},{"duration":0.2189779999999999,"midi":37,"time":40.948885999999995,"velocity":0.16535433070866143},{"duration":0.2189779999999999,"midi":37,"time":41.167863999999994,"velocity":0.16535433070866143},{"duration":0.2189779999999999,"midi":49,"time":41.167863999999994,"velocity":0.16535433070866143},{"duration":0.1094890000000035,"midi":37,"time":41.386841999999994,"velocity":0.16535433070866143},{"duration":0.1094889999999964,"midi":37,"time":41.496331,"velocity":0.16535433070866143},{"duration":0.2189779999999999,"midi":37,"time":41.605819999999994,"velocity":0.16535433070866143},{"duration":0.5474450000000033,"midi":85,"time":41.824797999999994,"velocity":0.16535433070866143},{"duration":0.5474450000000033,"midi":93,"time":41.824797999999994,"velocity":0.16535433070866143},{"duration":0.2189779999999999,"midi":37,"time":41.824797999999994,"velocity":0.16535433070866143},{"duration":0.3284670000000034,"midi":81,"time":42.043775999999994,"velocity":0.16535433070866143},{"duration":0.1094889999999964,"midi":90,"time":42.372243,"velocity":0.16535433070866143},{"duration":0.1094889999999964,"midi":78,"time":42.372243,"velocity":0.16535433070866143},{"duration":0.2189779999999999,"midi":85,"time":42.481731999999994,"velocity":0.16535433070866143},{"duration":0.2189779999999999,"midi":85,"time":42.481731999999994,"velocity":0.16535433070866143},{"duration":0.2189779999999999,"midi":78,"time":42.700709999999994,"velocity":0.16535433070866143},{"duration":0.2189779999999999,"midi":90,"time":42.700709999999994,"velocity":0.16535433070866143},{"duration":0.3284670000000034,"midi":86,"time":42.919687999999994,"velocity":0.16535433070866143},{"duration":0.3284670000000034,"midi":86,"time":42.919687999999994,"velocity":0.16535433070866143},{"duration":0.1094889999999964,"midi":78,"time":43.248155,"velocity":0.16535433070866143},{"duration":0.1094889999999964,"midi":90,"time":43.248155,"velocity":0.16535433070866143},{"duration":0.2189779999999999,"midi":85,"time":43.35764399999999,"velocity":0.16535433070866143},{"duration":0.2189779999999999,"midi":85,"time":43.35764399999999,"velocity":0.16535433070866143},{"duration":0.2189779999999999,"midi":90,"time":43.57662199999999,"velocity":0.16535433070866143},{"duration":0.2189779999999999,"midi":78,"time":43.57662199999999,"velocity":0.16535433070866143},{"duration":0.3284670000000034,"midi":92,"time":43.79559999999999,"velocity":0.16535433070866143},{"duration":0.3284670000000034,"midi":80,"time":43.79559999999999,"velocity":0.16535433070866143},{"duration":0.1094889999999964,"midi":89,"time":44.124067,"velocity":0.16535433070866143},{"duration":0.1094889999999964,"midi":77,"time":44.124067,"velocity":0.16535433070866143},{"duration":0.2189779999999999,"midi":93,"time":44.23355599999999,"velocity":0.16535433070866143},{"duration":0.2189779999999999,"midi":81,"time":44.23355599999999,"velocity":0.16535433070866143},{"duration":0.2189779999999999,"midi":77,"time":44.45253399999999,"velocity":0.16535433070866143},{"duration":0.2189779999999999,"midi":89,"time":44.45253399999999,"velocity":0.16535433070866143},{"duration":0.3284670000000034,"midi":85,"time":44.67151199999999,"velocity":0.16535433070866143},{"duration":0.3284670000000034,"midi":85,"time":44.67151199999999,"velocity":0.16535433070866143},{"duration":0.1094889999999964,"midi":86,"time":44.999978999999996,"velocity":0.16535433070866143},{"duration":0.1094889999999964,"midi":86,"time":44.999978999999996,"velocity":0.16535433070866143},{"duration":0.2189779999999999,"midi":85,"time":45.10946799999999,"velocity":0.16535433070866143},{"duration":0.2189779999999999,"midi":85,"time":45.10946799999999,"velocity":0.16535433070866143},{"duration":0.2189779999999999,"midi":83,"time":45.32844599999999,"velocity":0.16535433070866143},{"duration":0.2189779999999999,"midi":95,"time":45.32844599999999,"velocity":0.16535433070866143},{"duration":0.2189779999999999,"midi":86,"time":45.54742399999999,"velocity":0.16535433070866143},{"duration":0.2189779999999999,"midi":74,"time":45.54742399999999,"velocity":0.16535433070866143},{"duration":0.1094889999999964,"midi":78,"time":45.875890999999996,"velocity":0.16535433070866143},{"duration":0.1094889999999964,"midi":90,"time":45.875890999999996,"velocity":0.16535433070866143},{"duration":0.2189779999999999,"midi":86,"time":45.98537999999999,"velocity":0.16535433070866143},{"duration":0.2189779999999999,"midi":74,"time":45.98537999999999,"velocity":0.16535433070866143},{"duration":0.2189779999999999,"midi":90,"time":46.20435799999999,"velocity":0.16535433070866143},{"duration":0.2189779999999999,"midi":78,"time":46.20435799999999,"velocity":0.16535433070866143},{"duration":0.3284670000000034,"midi":80,"time":46.42333599999999,"velocity":0.16535433070866143},{"duration":0.3284670000000034,"midi":92,"time":46.42333599999999,"velocity":0.16535433070866143},{"duration":0.1094890000000035,"midi":81,"time":46.751802999999995,"velocity":0.16535433070866143},{"duration":0.1094890000000035,"midi":93,"time":46.751802999999995,"velocity":0.16535433070866143},{"duration":0.2189779999999999,"midi":92,"time":46.861292,"velocity":0.16535433070866143},{"duration":0.2189779999999999,"midi":80,"time":46.861292,"velocity":0.16535433070866143},{"duration":0.2189779999999999,"midi":78,"time":47.08027,"velocity":0.16535433070866143},{"duration":0.2189779999999999,"midi":90,"time":47.08027,"velocity":0.16535433070866143},{"duration":0.3284669999999963,"midi":77,"time":47.299248,"velocity":0.16535433070866143},{"duration":0.3284669999999963,"midi":89,"time":47.299248,"velocity":0.16535433070866143},{"duration":0.1094890000000035,"midi":80,"time":47.627714999999995,"velocity":0.16535433070866143},{"duration":0.1094890000000035,"midi":92,"time":47.627714999999995,"velocity":0.16535433070866143},{"duration":0.2189779999999999,"midi":77,"time":47.737204,"velocity":0.16535433070866143},{"duration":0.2189779999999999,"midi":89,"time":47.737204,"velocity":0.16535433070866143},{"duration":0.2189779999999999,"midi":92,"time":47.956182,"velocity":0.16535433070866143},{"duration":0.2189779999999999,"midi":80,"time":47.956182,"velocity":0.16535433070866143},{"duration":0.3284669999999963,"midi":83,"time":48.17516,"velocity":0.16535433070866143},{"duration":0.3284669999999963,"midi":95,"time":48.17516,"velocity":0.16535433070866143},{"duration":0.1094890000000035,"midi":85,"time":48.503626999999994,"velocity":0.16535433070866143},{"duration":0.1094890000000035,"midi":85,"time":48.503626999999994,"velocity":0.16535433070866143},{"duration":0.2189779999999999,"midi":83,"time":48.613116,"velocity":0.16535433070866143},{"duration":0.2189779999999999,"midi":95,"time":48.613116,"velocity":0.16535433070866143},{"duration":0.2189779999999999,"midi":81,"time":48.832094,"velocity":0.16535433070866143},{"duration":0.2189779999999999,"midi":93,"time":48.832094,"velocity":0.16535433070866143},{"duration":0.3284669999999963,"midi":81,"time":49.051072,"velocity":0.16535433070866143},{"duration":0.3284669999999963,"midi":93,"time":49.051072,"velocity":0.16535433070866143},{"duration":0.1094890000000035,"midi":90,"time":49.379538999999994,"velocity":0.16535433070866143},{"duration":0.1094890000000035,"midi":78,"time":49.379538999999994,"velocity":0.16535433070866143},{"duration":0.2189779999999999,"midi":85,"time":49.489028,"velocity":0.16535433070866143},{"duration":0.2189779999999999,"midi":85,"time":49.489028,"velocity":0.16535433070866143},{"duration":0.2189779999999999,"midi":90,"time":49.708006,"velocity":0.16535433070866143},{"duration":0.2189779999999999,"midi":78,"time":49.708006,"velocity":0.16535433070866143},{"duration":0.3284669999999963,"midi":86,"time":49.926984,"velocity":0.16535433070866143},{"duration":0.3284669999999963,"midi":86,"time":49.926984,"velocity":0.16535433070866143},{"duration":0.1094890000000035,"midi":78,"time":50.255450999999994,"velocity":0.16535433070866143},{"duration":0.1094890000000035,"midi":90,"time":50.255450999999994,"velocity":0.16535433070866143},{"duration":0.2189779999999999,"midi":85,"time":50.36494,"velocity":0.16535433070866143},{"duration":0.2189779999999999,"midi":85,"time":50.36494,"velocity":0.16535433070866143},{"duration":0.2189779999999999,"midi":90,"time":50.583918,"velocity":0.16535433070866143},{"duration":0.2189779999999999,"midi":78,"time":50.583918,"velocity":0.16535433070866143},{"duration":0.3284669999999963,"midi":93,"time":50.802896,"velocity":0.16535433070866143},{"duration":0.3284669999999963,"midi":81,"time":50.802896,"velocity":0.16535433070866143},{"duration":0.1094890000000035,"midi":78,"time":51.13136299999999,"velocity":0.16535433070866143},{"duration":0.1094890000000035,"midi":90,"time":51.13136299999999,"velocity":0.16535433070866143},{"duration":0.2189779999999999,"midi":85,"time":51.240852,"velocity":0.16535433070866143},{"duration":0.2189779999999999,"midi":85,"time":51.240852,"velocity":0.16535433070866143},{"duration":0.2189779999999999,"midi":78,"time":51.45983,"velocity":0.16535433070866143},{"duration":0.2189779999999999,"midi":90,"time":51.45983,"velocity":0.16535433070866143},{"duration":0.3284669999999963,"midi":86,"time":51.678808,"velocity":0.16535433070866143},{"duration":0.3284669999999963,"midi":86,"time":51.678808,"velocity":0.16535433070866143},{"duration":0.1094890000000035,"midi":78,"time":52.00727499999999,"velocity":0.16535433070866143},{"duration":0.1094890000000035,"midi":90,"time":52.00727499999999,"velocity":0.16535433070866143},{"duration":0.2189779999999999,"midi":85,"time":52.116763999999996,"velocity":0.16535433070866143},{"duration":0.2189779999999999,"midi":85,"time":52.116763999999996,"velocity":0.16535433070866143},{"duration":0.2189779999999999,"midi":78,"time":52.335741999999996,"velocity":0.16535433070866143},{"duration":0.2189779999999999,"midi":90,"time":52.335741999999996,"velocity":0.16535433070866143},{"duration":0.3284669999999963,"midi":81,"time":52.554719999999996,"velocity":0.16535433070866143},{"duration":0.3284669999999963,"midi":93,"time":52.554719999999996,"velocity":0.16535433070866143},{"duration":0.1094890000000035,"midi":78,"time":52.88318699999999,"velocity":0.16535433070866143},{"duration":0.1094890000000035,"midi":90,"time":52.88318699999999,"velocity":0.16535433070866143},{"duration":0.2189779999999999,"midi":85,"time":52.992675999999996,"velocity":0.16535433070866143},{"duration":0.2189779999999999,"midi":85,"time":52.992675999999996,"velocity":0.16535433070866143},{"duration":0.2189779999999999,"midi":90,"time":53.211653999999996,"velocity":0.16535433070866143},{"duration":0.2189779999999999,"midi":78,"time":53.211653999999996,"velocity":0.16535433070866143},{"duration":0.3284669999999963,"midi":86,"time":53.430631999999996,"velocity":0.16535433070866143},{"duration":0.3284669999999963,"midi":86,"time":53.430631999999996,"velocity":0.16535433070866143},{"duration":0.1094890000000035,"midi":78,"time":53.75909899999999,"velocity":0.16535433070866143},{"duration":0.1094890000000035,"midi":90,"time":53.75909899999999,"velocity":0.16535433070866143},{"duration":0.2189779999999999,"midi":85,"time":53.868587999999995,"velocity":0.16535433070866143},{"duration":0.2189779999999999,"midi":85,"time":53.868587999999995,"velocity":0.16535433070866143},{"duration":0.2189779999999999,"midi":90,"time":54.087565999999995,"velocity":0.16535433070866143},{"duration":0.2189779999999999,"midi":78,"time":54.087565999999995,"velocity":0.16535433070866143},{"duration":0.5474449999999962,"midi":93,"time":97.88316599999999,"velocity":0.16535433070866143},{"duration":0.5474449999999962,"midi":85,"time":97.88316599999999,"velocity":0.16535433070866143},{"duration":0.3284669999999892,"midi":81,"time":98.102144,"velocity":0.16535433070866143},{"duration":0.1094890000000106,"midi":78,"time":98.43061099999998,"velocity":0.16535433070866143},{"duration":0.1094890000000106,"midi":90,"time":98.43061099999998,"velocity":0.16535433070866143},{"duration":0.2189779999999928,"midi":85,"time":98.5401,"velocity":0.16535433070866143},{"duration":0.2189779999999928,"midi":85,"time":98.5401,"velocity":0.16535433070866143},{"duration":0.218978000000007,"midi":90,"time":98.75907799999999,"velocity":0.16535433070866143},{"duration":0.218978000000007,"midi":78,"time":98.75907799999999,"velocity":0.16535433070866143},{"duration":0.3284669999999892,"midi":86,"time":98.978056,"velocity":0.16535433070866143},{"duration":0.3284669999999892,"midi":86,"time":98.978056,"velocity":0.16535433070866143},{"duration":0.3284669999999892,"midi":86,"time":98.978056,"velocity":0.16535433070866143},{"duration":0.1094890000000106,"midi":90,"time":99.30652299999998,"velocity":0.16535433070866143},{"duration":0.1094890000000106,"midi":78,"time":99.30652299999998,"velocity":0.16535433070866143},{"duration":0.2189779999999928,"midi":85,"time":99.416012,"velocity":0.16535433070866143},{"duration":0.2189779999999928,"midi":85,"time":99.416012,"velocity":0.16535433070866143},{"duration":0.218978000000007,"midi":90,"time":99.63498999999999,"velocity":0.16535433070866143},{"duration":0.218978000000007,"midi":78,"time":99.63498999999999,"velocity":0.16535433070866143},{"duration":0.3284669999999892,"midi":92,"time":99.853968,"velocity":0.16535433070866143},{"duration":0.3284669999999892,"midi":80,"time":99.853968,"velocity":0.16535433070866143},{"duration":0.3284669999999892,"midi":92,"time":99.853968,"velocity":0.16535433070866143},{"duration":0.1094890000000106,"midi":77,"time":100.18243499999998,"velocity":0.16535433070866143},{"duration":0.1094890000000106,"midi":89,"time":100.18243499999998,"velocity":0.16535433070866143},{"duration":0.2189779999999928,"midi":93,"time":100.291924,"velocity":0.16535433070866143},{"duration":0.2189779999999928,"midi":81,"time":100.291924,"velocity":0.16535433070866143},{"duration":0.218978000000007,"midi":89,"time":100.51090199999999,"velocity":0.16535433070866143},{"duration":0.218978000000007,"midi":77,"time":100.51090199999999,"velocity":0.16535433070866143},{"duration":0.3284669999999892,"midi":85,"time":100.72988,"velocity":0.16535433070866143},{"duration":0.3284669999999892,"midi":85,"time":100.72988,"velocity":0.16535433070866143},{"duration":0.1094890000000106,"midi":86,"time":101.05834699999998,"velocity":0.16535433070866143},{"duration":0.1094890000000106,"midi":86,"time":101.05834699999998,"velocity":0.16535433070866143},{"duration":0.1094890000000106,"midi":86,"time":101.05834699999998,"velocity":0.16535433070866143},{"duration":0.2189779999999928,"midi":85,"time":101.167836,"velocity":0.16535433070866143},{"duration":0.2189779999999928,"midi":85,"time":101.167836,"velocity":0.16535433070866143},{"duration":0.218978000000007,"midi":83,"time":101.38681399999999,"velocity":0.16535433070866143},{"duration":0.218978000000007,"midi":95,"time":101.38681399999999,"velocity":0.16535433070866143},{"duration":0.2189779999999928,"midi":86,"time":101.605792,"velocity":0.16535433070866143},{"duration":0.2189779999999928,"midi":74,"time":101.605792,"velocity":0.16535433070866143},{"duration":0.1094890000000106,"midi":90,"time":101.93425899999998,"velocity":0.16535433070866143},{"duration":0.1094890000000106,"midi":78,"time":101.93425899999998,"velocity":0.16535433070866143},{"duration":0.2189779999999928,"midi":74,"time":102.043748,"velocity":0.16535433070866143},{"duration":0.2189779999999928,"midi":86,"time":102.043748,"velocity":0.16535433070866143},{"duration":0.218978000000007,"midi":78,"time":102.26272599999999,"velocity":0.16535433070866143},{"duration":0.218978000000007,"midi":90,"time":102.26272599999999,"velocity":0.16535433070866143},{"duration":0.3284670000000034,"midi":92,"time":102.481704,"velocity":0.16535433070866143},{"duration":0.3284670000000034,"midi":80,"time":102.481704,"velocity":0.16535433070866143},{"duration":0.3284670000000034,"midi":86,"time":102.481704,"velocity":0.16535433070866143},{"duration":0.1094889999999964,"midi":81,"time":102.810171,"velocity":0.16535433070866143},{"duration":0.1094889999999964,"midi":93,"time":102.810171,"velocity":0.16535433070866143},{"duration":0.2189779999999928,"midi":80,"time":102.91966,"velocity":0.16535433070866143},{"duration":0.2189779999999928,"midi":92,"time":102.91966,"velocity":0.16535433070866143},{"duration":0.218978000000007,"midi":90,"time":103.13863799999999,"velocity":0.16535433070866143},{"duration":0.218978000000007,"midi":78,"time":103.13863799999999,"velocity":0.16535433070866143},{"duration":0.3284670000000034,"midi":77,"time":103.357616,"velocity":0.16535433070866143},{"duration":0.3284670000000034,"midi":92,"time":103.357616,"velocity":0.16535433070866143},{"duration":0.3284670000000034,"midi":89,"time":103.357616,"velocity":0.16535433070866143},{"duration":0.1094889999999964,"midi":80,"time":103.686083,"velocity":0.16535433070866143},{"duration":0.1094889999999964,"midi":92,"time":103.686083,"velocity":0.16535433070866143},{"duration":0.2189779999999928,"midi":89,"time":103.79557199999999,"velocity":0.16535433070866143},{"duration":0.2189779999999928,"midi":77,"time":103.79557199999999,"velocity":0.16535433070866143},{"duration":0.218978000000007,"midi":80,"time":104.01454999999999,"velocity":0.16535433070866143},{"duration":0.218978000000007,"midi":92,"time":104.01454999999999,"velocity":0.16535433070866143},{"duration":0.3284670000000034,"midi":83,"time":104.23352799999999,"velocity":0.16535433070866143},{"duration":0.3284670000000034,"midi":95,"time":104.23352799999999,"velocity":0.16535433070866143},{"duration":0.1094889999999964,"midi":85,"time":104.561995,"velocity":0.16535433070866143},{"duration":0.1094889999999964,"midi":85,"time":104.561995,"velocity":0.16535433070866143},{"duration":0.1094889999999964,"midi":86,"time":104.561995,"velocity":0.16535433070866143},{"duration":0.2189779999999928,"midi":83,"time":104.67148399999999,"velocity":0.16535433070866143},{"duration":0.2189779999999928,"midi":95,"time":104.67148399999999,"velocity":0.16535433070866143},{"duration":0.218978000000007,"midi":81,"time":104.89046199999999,"velocity":0.16535433070866143},{"duration":0.218978000000007,"midi":93,"time":104.89046199999999,"velocity":0.16535433070866143},{"duration":0.3284670000000034,"midi":81,"time":105.10943999999999,"velocity":0.16535433070866143},{"duration":0.3284670000000034,"midi":93,"time":105.10943999999999,"velocity":0.16535433070866143},{"duration":0.1094889999999964,"midi":78,"time":105.437907,"velocity":0.16535433070866143},{"duration":0.1094889999999964,"midi":90,"time":105.437907,"velocity":0.16535433070866143},{"duration":0.2189779999999928,"midi":85,"time":105.54739599999999,"velocity":0.16535433070866143},{"duration":0.2189779999999928,"midi":85,"time":105.54739599999999,"velocity":0.16535433070866143},{"duration":0.218978000000007,"midi":90,"time":105.76637399999998,"velocity":0.16535433070866143},{"duration":0.218978000000007,"midi":78,"time":105.76637399999998,"velocity":0.16535433070866143},{"duration":0.3284670000000034,"midi":86,"time":105.98535199999999,"velocity":0.16535433070866143},{"duration":0.3284670000000034,"midi":86,"time":105.98535199999999,"velocity":0.16535433070866143},{"duration":0.3284670000000034,"midi":86,"time":105.98535199999999,"velocity":0.16535433070866143},{"duration":0.1094889999999964,"midi":78,"time":106.313819,"velocity":0.16535433070866143},{"duration":0.1094889999999964,"midi":90,"time":106.313819,"velocity":0.16535433070866143},{"duration":0.2189779999999928,"midi":85,"time":106.42330799999999,"velocity":0.16535433070866143},{"duration":0.2189779999999928,"midi":85,"time":106.42330799999999,"velocity":0.16535433070866143},{"duration":0.218978000000007,"midi":90,"time":106.64228599999998,"velocity":0.16535433070866143},{"duration":0.218978000000007,"midi":78,"time":106.64228599999998,"velocity":0.16535433070866143},{"duration":0.3284670000000034,"midi":92,"time":106.86126399999999,"velocity":0.16535433070866143},{"duration":0.3284670000000034,"midi":92,"time":106.86126399999999,"velocity":0.16535433070866143},{"duration":0.3284670000000034,"midi":80,"time":106.86126399999999,"velocity":0.16535433070866143},{"duration":0.1094889999999964,"midi":89,"time":107.189731,"velocity":0.16535433070866143},{"duration":0.1094889999999964,"midi":77,"time":107.189731,"velocity":0.16535433070866143},{"duration":0.2189779999999928,"midi":93,"time":107.29921999999999,"velocity":0.16535433070866143},{"duration":0.2189779999999928,"midi":81,"time":107.29921999999999,"velocity":0.16535433070866143},{"duration":0.218978000000007,"midi":89,"time":107.51819799999998,"velocity":0.16535433070866143},{"duration":0.218978000000007,"midi":77,"time":107.51819799999998,"velocity":0.16535433070866143},{"duration":0.3284670000000034,"midi":85,"time":107.73717599999999,"velocity":0.16535433070866143},{"duration":0.3284670000000034,"midi":85,"time":107.73717599999999,"velocity":0.16535433070866143},{"duration":0.1094889999999964,"midi":86,"time":108.065643,"velocity":0.16535433070866143},{"duration":0.1094889999999964,"midi":86,"time":108.065643,"velocity":0.16535433070866143},{"duration":0.1094889999999964,"midi":86,"time":108.065643,"velocity":0.16535433070866143},{"duration":0.2189779999999928,"midi":85,"time":108.17513199999999,"velocity":0.16535433070866143},{"duration":0.2189779999999928,"midi":85,"time":108.17513199999999,"velocity":0.16535433070866143},{"duration":0.218978000000007,"midi":83,"time":108.39410999999998,"velocity":0.16535433070866143},{"duration":0.218978000000007,"midi":95,"time":108.39410999999998,"velocity":0.16535433070866143},{"duration":0.2189779999999928,"midi":86,"time":108.61308799999999,"velocity":0.16535433070866143},{"duration":0.2189779999999928,"midi":74,"time":108.61308799999999,"velocity":0.16535433070866143},{"duration":0.1094889999999964,"midi":78,"time":108.941555,"velocity":0.16535433070866143},{"duration":0.1094889999999964,"midi":90,"time":108.941555,"velocity":0.16535433070866143},{"duration":0.2189779999999928,"midi":74,"time":109.05104399999999,"velocity":0.16535433070866143},{"duration":0.2189779999999928,"midi":86,"time":109.05104399999999,"velocity":0.16535433070866143},{"duration":0.218978000000007,"midi":90,"time":109.27002199999998,"velocity":0.16535433070866143},{"duration":0.218978000000007,"midi":78,"time":109.27002199999998,"velocity":0.16535433070866143},{"duration":0.3284670000000034,"midi":80,"time":109.48899999999999,"velocity":0.16535433070866143},{"duration":0.3284670000000034,"midi":92,"time":109.48899999999999,"velocity":0.16535433070866143},{"duration":0.1094889999999964,"midi":93,"time":109.817467,"velocity":0.16535433070866143},{"duration":0.1094889999999964,"midi":81,"time":109.817467,"velocity":0.16535433070866143},{"duration":0.2189779999999928,"midi":80,"time":109.92695599999999,"velocity":0.16535433070866143},{"duration":0.2189779999999928,"midi":92,"time":109.92695599999999,"velocity":0.16535433070866143},{"duration":0.218978000000007,"midi":78,"time":110.14593399999998,"velocity":0.16535433070866143},{"duration":0.218978000000007,"midi":90,"time":110.14593399999998,"velocity":0.16535433070866143},{"duration":0.3284670000000034,"midi":89,"time":110.36491199999999,"velocity":0.16535433070866143},{"duration":0.3284670000000034,"midi":77,"time":110.36491199999999,"velocity":0.16535433070866143},{"duration":0.1094889999999964,"midi":80,"time":110.693379,"velocity":0.16535433070866143},{"duration":0.1094889999999964,"midi":92,"time":110.693379,"velocity":0.16535433070866143},{"duration":0.2189779999999928,"midi":77,"time":110.80286799999999,"velocity":0.16535433070866143},{"duration":0.2189779999999928,"midi":89,"time":110.80286799999999,"velocity":0.16535433070866143},{"duration":0.218978000000007,"midi":80,"time":111.02184599999998,"velocity":0.16535433070866143},{"duration":0.218978000000007,"midi":92,"time":111.02184599999998,"velocity":0.16535433070866143},{"duration":0.3284670000000034,"midi":95,"time":111.24082399999999,"velocity":0.16535433070866143},{"duration":0.3284670000000034,"midi":83,"time":111.24082399999999,"velocity":0.16535433070866143},{"duration":0.1094889999999964,"midi":85,"time":111.56929099999999,"velocity":0.16535433070866143},{"duration":0.1094889999999964,"midi":85,"time":111.56929099999999,"velocity":0.16535433070866143},{"duration":0.2189779999999928,"midi":83,"time":111.67877999999999,"velocity":0.16535433070866143},{"duration":0.2189779999999928,"midi":95,"time":111.67877999999999,"velocity":0.16535433070866143},{"duration":0.218978000000007,"midi":81,"time":111.89775799999998,"velocity":0.16535433070866143},{"duration":0.218978000000007,"midi":93,"time":111.89775799999998,"velocity":0.16535433070866143},{"duration":0.3284670000000034,"midi":81,"time":112.11673599999999,"velocity":0.16535433070866143},{"duration":0.3284670000000034,"midi":93,"time":112.11673599999999,"velocity":0.16535433070866143},{"duration":0.1094889999999964,"midi":78,"time":112.44520299999999,"velocity":0.16535433070866143},{"duration":0.1094889999999964,"midi":90,"time":112.44520299999999,"velocity":0.16535433070866143},{"duration":0.218978000000007,"midi":85,"time":112.55469199999999,"velocity":0.16535433070866143},{"duration":0.218978000000007,"midi":85,"time":112.55469199999999,"velocity":0.16535433070866143},{"duration":0.2189779999999928,"midi":78,"time":112.77367,"velocity":0.16535433070866143},{"duration":0.2189779999999928,"midi":90,"time":112.77367,"velocity":0.16535433070866143},{"duration":0.3284670000000034,"midi":86,"time":112.99264799999999,"velocity":0.16535433070866143},{"duration":0.3284670000000034,"midi":86,"time":112.99264799999999,"velocity":0.16535433070866143},{"duration":0.1094889999999964,"midi":78,"time":113.32111499999999,"velocity":0.16535433070866143},{"duration":0.1094889999999964,"midi":90,"time":113.32111499999999,"velocity":0.16535433070866143},{"duration":0.218978000000007,"midi":85,"time":113.43060399999999,"velocity":0.16535433070866143},{"duration":0.218978000000007,"midi":85,"time":113.43060399999999,"velocity":0.16535433070866143},{"duration":0.2189779999999928,"midi":78,"time":113.649582,"velocity":0.16535433070866143},{"duration":0.2189779999999928,"midi":90,"time":113.649582,"velocity":0.16535433070866143},{"duration":0.3284670000000034,"midi":80,"time":113.86855999999999,"velocity":0.16535433070866143},{"duration":0.3284670000000034,"midi":92,"time":113.86855999999999,"velocity":0.16535433070866143},{"duration":0.1094889999999964,"midi":77,"time":114.19702699999999,"velocity":0.16535433070866143},{"duration":0.1094889999999964,"midi":89,"time":114.19702699999999,"velocity":0.16535433070866143},{"duration":0.218978000000007,"midi":81,"time":114.30651599999999,"velocity":0.16535433070866143},{"duration":0.218978000000007,"midi":93,"time":114.30651599999999,"velocity":0.16535433070866143},{"duration":0.2189779999999928,"midi":77,"time":114.525494,"velocity":0.16535433070866143},{"duration":0.2189779999999928,"midi":89,"time":114.525494,"velocity":0.16535433070866143},{"duration":0.3284670000000034,"midi":85,"time":114.74447199999999,"velocity":0.16535433070866143},{"duration":0.3284670000000034,"midi":85,"time":114.74447199999999,"velocity":0.16535433070866143},{"duration":0.1094889999999964,"midi":86,"time":115.07293899999999,"velocity":0.16535433070866143},{"duration":0.1094889999999964,"midi":86,"time":115.07293899999999,"velocity":0.16535433070866143},{"duration":0.218978000000007,"midi":85,"time":115.18242799999999,"velocity":0.16535433070866143},{"duration":0.218978000000007,"midi":85,"time":115.18242799999999,"velocity":0.16535433070866143},{"duration":0.2189779999999928,"midi":95,"time":115.401406,"velocity":0.16535433070866143},{"duration":0.2189779999999928,"midi":83,"time":115.401406,"velocity":0.16535433070866143},{"duration":0.218978000000007,"midi":74,"time":115.62038399999999,"velocity":0.16535433070866143},{"duration":0.218978000000007,"midi":86,"time":115.62038399999999,"velocity":0.16535433070866143},{"duration":0.1094889999999964,"midi":78,"time":115.94885099999999,"velocity":0.16535433070866143},{"duration":0.1094889999999964,"midi":90,"time":115.94885099999999,"velocity":0.16535433070866143},{"duration":0.218978000000007,"midi":74,"time":116.05833999999999,"velocity":0.16535433070866143},{"duration":0.218978000000007,"midi":86,"time":116.05833999999999,"velocity":0.16535433070866143},{"duration":0.2189779999999928,"midi":90,"time":116.277318,"velocity":0.16535433070866143},{"duration":0.2189779999999928,"midi":78,"time":116.277318,"velocity":0.16535433070866143},{"duration":0.3284670000000034,"midi":92,"time":116.49629599999999,"velocity":0.16535433070866143},{"duration":0.3284670000000034,"midi":80,"time":116.49629599999999,"velocity":0.16535433070866143},{"duration":0.1094889999999964,"midi":81,"time":116.82476299999999,"velocity":0.16535433070866143},{"duration":0.1094889999999964,"midi":93,"time":116.82476299999999,"velocity":0.16535433070866143},{"duration":0.218978000000007,"midi":80,"time":116.93425199999999,"velocity":0.16535433070866143},{"duration":0.218978000000007,"midi":92,"time":116.93425199999999,"velocity":0.16535433070866143},{"duration":0.2189779999999928,"midi":90,"time":117.15323,"velocity":0.16535433070866143},{"duration":0.2189779999999928,"midi":78,"time":117.15323,"velocity":0.16535433070866143},{"duration":0.3284670000000034,"midi":77,"time":117.37220799999999,"velocity":0.16535433070866143},{"duration":0.3284670000000034,"midi":89,"time":117.37220799999999,"velocity":0.16535433070866143},{"duration":0.1094889999999964,"midi":80,"time":117.70067499999999,"velocity":0.16535433070866143},{"duration":0.1094889999999964,"midi":92,"time":117.70067499999999,"velocity":0.16535433070866143},{"duration":0.218978000000007,"midi":89,"time":117.81016399999999,"velocity":0.16535433070866143},{"duration":0.218978000000007,"midi":77,"time":117.81016399999999,"velocity":0.16535433070866143},{"duration":0.2189779999999928,"midi":92,"time":118.029142,"velocity":0.16535433070866143},{"duration":0.2189779999999928,"midi":80,"time":118.029142,"velocity":0.16535433070866143},{"duration":0.3284670000000034,"midi":83,"time":118.24811999999999,"velocity":0.16535433070866143},{"duration":0.3284670000000034,"midi":95,"time":118.24811999999999,"velocity":0.16535433070866143},{"duration":0.1094889999999964,"midi":85,"time":118.57658699999999,"velocity":0.16535433070866143},{"duration":0.1094889999999964,"midi":85,"time":118.57658699999999,"velocity":0.16535433070866143},{"duration":0.218978000000007,"midi":95,"time":118.68607599999999,"velocity":0.16535433070866143},{"duration":0.218978000000007,"midi":83,"time":118.68607599999999,"velocity":0.16535433070866143},{"duration":0.2189779999999928,"midi":81,"time":118.90505399999999,"velocity":0.16535433070866143},{"duration":0.2189779999999928,"midi":93,"time":118.90505399999999,"velocity":0.16535433070866143},{"duration":0.3284670000000034,"midi":93,"time":119.12403199999999,"velocity":0.16535433070866143},{"duration":0.3284670000000034,"midi":81,"time":119.12403199999999,"velocity":0.16535433070866143},{"duration":0.1094889999999964,"midi":78,"time":119.45249899999999,"velocity":0.16535433070866143},{"duration":0.1094889999999964,"midi":90,"time":119.45249899999999,"velocity":0.16535433070866143},{"duration":0.218978000000007,"midi":85,"time":119.56198799999999,"velocity":0.16535433070866143},{"duration":0.218978000000007,"midi":85,"time":119.56198799999999,"velocity":0.16535433070866143},{"duration":0.2189779999999928,"midi":78,"time":119.78096599999999,"velocity":0.16535433070866143},{"duration":0.2189779999999928,"midi":90,"time":119.78096599999999,"velocity":0.16535433070866143},{"duration":0.3284670000000034,"midi":86,"time":119.99994399999999,"velocity":0.16535433070866143},{"duration":0.3284670000000034,"midi":86,"time":119.99994399999999,"velocity":0.16535433070866143},{"duration":0.1094889999999964,"midi":78,"time":120.32841099999999,"velocity":0.16535433070866143},{"duration":0.1094889999999964,"midi":90,"time":120.32841099999999,"velocity":0.16535433070866143},{"duration":0.218978000000007,"midi":85,"time":120.43789999999998,"velocity":0.16535433070866143},{"duration":0.218978000000007,"midi":85,"time":120.43789999999998,"velocity":0.16535433070866143},{"duration":0.2189779999999928,"midi":78,"time":120.65687799999999,"velocity":0.16535433070866143},{"duration":0.2189779999999928,"midi":90,"time":120.65687799999999,"velocity":0.16535433070866143},{"duration":0.3284670000000034,"midi":80,"time":120.87585599999998,"velocity":0.16535433070866143},{"duration":0.3284670000000034,"midi":92,"time":120.87585599999998,"velocity":0.16535433070866143},{"duration":0.1094889999999964,"midi":77,"time":121.20432299999999,"velocity":0.16535433070866143},{"duration":0.1094889999999964,"midi":89,"time":121.20432299999999,"velocity":0.16535433070866143},{"duration":0.218978000000007,"midi":81,"time":121.31381199999998,"velocity":0.16535433070866143},{"duration":0.218978000000007,"midi":93,"time":121.31381199999998,"velocity":0.16535433070866143},{"duration":0.2189779999999928,"midi":89,"time":121.53278999999999,"velocity":0.16535433070866143},{"duration":0.2189779999999928,"midi":77,"time":121.53278999999999,"velocity":0.16535433070866143},{"duration":0.3284670000000034,"midi":85,"time":121.75176799999998,"velocity":0.16535433070866143},{"duration":0.3284670000000034,"midi":85,"time":121.75176799999998,"velocity":0.16535433070866143},{"duration":0.1094889999999964,"midi":86,"time":122.08023499999999,"velocity":0.16535433070866143},{"duration":0.1094889999999964,"midi":86,"time":122.08023499999999,"velocity":0.16535433070866143},{"duration":0.218978000000007,"midi":85,"time":122.18972399999998,"velocity":0.16535433070866143},{"duration":0.218978000000007,"midi":85,"time":122.18972399999998,"velocity":0.16535433070866143},{"duration":0.2189779999999928,"midi":95,"time":122.40870199999999,"velocity":0.16535433070866143},{"duration":0.2189779999999928,"midi":83,"time":122.40870199999999,"velocity":0.16535433070866143},{"duration":0.218978000000007,"midi":74,"time":122.62767999999998,"velocity":0.16535433070866143},{"duration":0.218978000000007,"midi":86,"time":122.62767999999998,"velocity":0.16535433070866143},{"duration":0.1094889999999964,"midi":78,"time":122.95614699999999,"velocity":0.16535433070866143},{"duration":0.1094889999999964,"midi":90,"time":122.95614699999999,"velocity":0.16535433070866143},{"duration":0.218978000000007,"midi":74,"time":123.06563599999998,"velocity":0.16535433070866143},{"duration":0.218978000000007,"midi":86,"time":123.06563599999998,"velocity":0.16535433070866143},{"duration":0.2189779999999928,"midi":78,"time":123.28461399999999,"velocity":0.16535433070866143},{"duration":0.2189779999999928,"midi":90,"time":123.28461399999999,"velocity":0.16535433070866143},{"duration":0.3284670000000034,"midi":80,"time":123.50359199999998,"velocity":0.16535433070866143},{"duration":0.3284670000000034,"midi":92,"time":123.50359199999998,"velocity":0.16535433070866143},{"duration":0.1094889999999964,"midi":81,"time":123.83205899999999,"velocity":0.16535433070866143},{"duration":0.1094889999999964,"midi":93,"time":123.83205899999999,"velocity":0.16535433070866143},{"duration":0.218978000000007,"midi":92,"time":123.94154799999998,"velocity":0.16535433070866143},{"duration":0.218978000000007,"midi":80,"time":123.94154799999998,"velocity":0.16535433070866143},{"duration":0.2189779999999928,"midi":78,"time":124.16052599999999,"velocity":0.16535433070866143},{"duration":0.2189779999999928,"midi":90,"time":124.16052599999999,"velocity":0.16535433070866143},{"duration":0.3284670000000034,"midi":77,"time":124.37950399999998,"velocity":0.16535433070866143},{"duration":0.3284670000000034,"midi":89,"time":124.37950399999998,"velocity":0.16535433070866143},{"duration":0.1094889999999964,"midi":80,"time":124.70797099999999,"velocity":0.16535433070866143},{"duration":0.1094889999999964,"midi":92,"time":124.70797099999999,"velocity":0.16535433070866143},{"duration":0.218978000000007,"midi":77,"time":124.81745999999998,"velocity":0.16535433070866143},{"duration":0.218978000000007,"midi":89,"time":124.81745999999998,"velocity":0.16535433070866143},{"duration":0.2189779999999928,"midi":80,"time":125.03643799999999,"velocity":0.16535433070866143},{"duration":0.2189779999999928,"midi":92,"time":125.03643799999999,"velocity":0.16535433070866143},{"duration":0.3284670000000034,"midi":83,"time":125.25541599999998,"velocity":0.16535433070866143},{"duration":0.3284670000000034,"midi":95,"time":125.25541599999998,"velocity":0.16535433070866143},{"duration":0.1094889999999964,"midi":85,"time":125.58388299999999,"velocity":0.16535433070866143},{"duration":0.1094889999999964,"midi":85,"time":125.58388299999999,"velocity":0.16535433070866143},{"duration":0.4379559999999998,"midi":95,"time":125.69337199999998,"velocity":0.16535433070866143},{"duration":0.4379559999999998,"midi":83,"time":125.69337199999998,"velocity":0.16535433070866143},{"duration":0.3284669999999892,"midi":73,"time":125.802861,"velocity":0.16535433070866143},{"duration":0.2189779999999928,"midi":71,"time":125.91234999999999,"velocity":0.16535433070866143},{"duration":0.3284670000000034,"midi":93,"time":126.13132799999998,"velocity":0.16535433070866143},{"duration":0.3284670000000034,"midi":81,"time":126.13132799999998,"velocity":0.16535433070866143},{"duration":0.1094889999999964,"midi":78,"time":126.45979499999999,"velocity":0.16535433070866143},{"duration":0.1094889999999964,"midi":90,"time":126.45979499999999,"velocity":0.16535433070866143},{"duration":0.218978000000007,"midi":85,"time":126.56928399999998,"velocity":0.16535433070866143},{"duration":0.218978000000007,"midi":85,"time":126.56928399999998,"velocity":0.16535433070866143},{"duration":0.2189779999999928,"midi":78,"time":126.78826199999999,"velocity":0.16535433070866143},{"duration":0.2189779999999928,"midi":90,"time":126.78826199999999,"velocity":0.16535433070866143},{"duration":0.3284670000000034,"midi":86,"time":127.00723999999998,"velocity":0.16535433070866143},{"duration":0.3284670000000034,"midi":86,"time":127.00723999999998,"velocity":0.16535433070866143},{"duration":0.1094889999999964,"midi":78,"time":127.33570699999999,"velocity":0.16535433070866143},{"duration":0.1094889999999964,"midi":90,"time":127.33570699999999,"velocity":0.16535433070866143},{"duration":0.218978000000007,"midi":85,"time":127.44519599999998,"velocity":0.16535433070866143},{"duration":0.218978000000007,"midi":85,"time":127.44519599999998,"velocity":0.16535433070866143},{"duration":0.2189779999999928,"midi":78,"time":127.66417399999999,"velocity":0.16535433070866143},{"duration":0.2189779999999928,"midi":90,"time":127.66417399999999,"velocity":0.16535433070866143},{"duration":0.3284670000000034,"midi":80,"time":127.88315199999998,"velocity":0.16535433070866143},{"duration":0.3284670000000034,"midi":92,"time":127.88315199999998,"velocity":0.16535433070866143},{"duration":0.1094889999999964,"midi":77,"time":128.21161899999998,"velocity":0.16535433070866143},{"duration":0.1094889999999964,"midi":89,"time":128.21161899999998,"velocity":0.16535433070866143},{"duration":0.2189779999999928,"midi":81,"time":128.32110799999998,"velocity":0.16535433070866143},{"duration":0.2189779999999928,"midi":93,"time":128.32110799999998,"velocity":0.16535433070866143},{"duration":0.2189780000000212,"midi":89,"time":128.54008599999997,"velocity":0.16535433070866143},{"duration":0.2189780000000212,"midi":77,"time":128.54008599999997,"velocity":0.16535433070866143},{"duration":0.3284669999999892,"midi":85,"time":128.759064,"velocity":0.16535433070866143},{"duration":0.3284669999999892,"midi":85,"time":128.759064,"velocity":0.16535433070866143},{"duration":0.1094889999999964,"midi":86,"time":129.08753099999998,"velocity":0.16535433070866143},{"duration":0.1094889999999964,"midi":86,"time":129.08753099999998,"velocity":0.16535433070866143},{"duration":0.2189779999999928,"midi":85,"time":129.19701999999998,"velocity":0.16535433070866143},{"duration":0.2189779999999928,"midi":85,"time":129.19701999999998,"velocity":0.16535433070866143},{"duration":0.2189780000000212,"midi":83,"time":129.41599799999997,"velocity":0.16535433070866143},{"duration":0.2189780000000212,"midi":95,"time":129.41599799999997,"velocity":0.16535433070866143},{"duration":0.2189779999999928,"midi":74,"time":129.634976,"velocity":0.16535433070866143},{"duration":0.2189779999999928,"midi":86,"time":129.634976,"velocity":0.16535433070866143},{"duration":0.1094889999999964,"midi":78,"time":129.96344299999998,"velocity":0.16535433070866143},{"duration":0.1094889999999964,"midi":90,"time":129.96344299999998,"velocity":0.16535433070866143},{"duration":0.2189779999999928,"midi":86,"time":130.07293199999998,"velocity":0.16535433070866143},{"duration":0.2189779999999928,"midi":74,"time":130.07293199999998,"velocity":0.16535433070866143},{"duration":0.2189780000000212,"midi":90,"time":130.29190999999997,"velocity":0.16535433070866143},{"duration":0.2189780000000212,"midi":78,"time":130.29190999999997,"velocity":0.16535433070866143},{"duration":0.3284669999999892,"midi":92,"time":130.510888,"velocity":0.16535433070866143},{"duration":0.3284669999999892,"midi":80,"time":130.510888,"velocity":0.16535433070866143},{"duration":0.1094889999999964,"midi":81,"time":130.83935499999998,"velocity":0.16535433070866143},{"duration":0.1094889999999964,"midi":93,"time":130.83935499999998,"velocity":0.16535433070866143},{"duration":0.2189780000000212,"midi":92,"time":130.94884399999998,"velocity":0.16535433070866143},{"duration":0.2189780000000212,"midi":80,"time":130.94884399999998,"velocity":0.16535433070866143},{"duration":0.2189779999999928,"midi":78,"time":131.167822,"velocity":0.16535433070866143},{"duration":0.2189779999999928,"midi":90,"time":131.167822,"velocity":0.16535433070866143},{"duration":0.3284669999999892,"midi":77,"time":131.3868,"velocity":0.16535433070866143},{"duration":0.3284669999999892,"midi":89,"time":131.3868,"velocity":0.16535433070866143},{"duration":0.1094889999999964,"midi":80,"time":131.71526699999998,"velocity":0.16535433070866143},{"duration":0.1094889999999964,"midi":92,"time":131.71526699999998,"velocity":0.16535433070866143},{"duration":0.2189780000000212,"midi":89,"time":131.82475599999998,"velocity":0.16535433070866143},{"duration":0.2189780000000212,"midi":77,"time":131.82475599999998,"velocity":0.16535433070866143},{"duration":0.2189779999999928,"midi":80,"time":132.043734,"velocity":0.16535433070866143},{"duration":0.2189779999999928,"midi":92,"time":132.043734,"velocity":0.16535433070866143},{"duration":0.3284669999999892,"midi":83,"time":132.262712,"velocity":0.16535433070866143},{"duration":0.3284669999999892,"midi":95,"time":132.262712,"velocity":0.16535433070866143},{"duration":0.1094889999999964,"midi":85,"time":132.59117899999998,"velocity":0.16535433070866143},{"duration":0.1094889999999964,"midi":85,"time":132.59117899999998,"velocity":0.16535433070866143},{"duration":0.2189780000000212,"midi":95,"time":132.70066799999998,"velocity":0.16535433070866143},{"duration":0.2189780000000212,"midi":83,"time":132.70066799999998,"velocity":0.16535433070866143},{"duration":0.2189779999999928,"midi":81,"time":132.919646,"velocity":0.16535433070866143},{"duration":0.2189779999999928,"midi":93,"time":132.919646,"velocity":0.16535433070866143},{"duration":0.3284669999999892,"midi":93,"time":133.138624,"velocity":0.16535433070866143},{"duration":0.3284669999999892,"midi":81,"time":133.138624,"velocity":0.16535433070866143},{"duration":0.1094889999999964,"midi":78,"time":133.46709099999998,"velocity":0.16535433070866143},{"duration":0.1094889999999964,"midi":90,"time":133.46709099999998,"velocity":0.16535433070866143},{"duration":0.2189780000000212,"midi":85,"time":133.57657999999998,"velocity":0.16535433070866143},{"duration":0.2189780000000212,"midi":85,"time":133.57657999999998,"velocity":0.16535433070866143},{"duration":0.2189779999999928,"midi":78,"time":133.795558,"velocity":0.16535433070866143},{"duration":0.2189779999999928,"midi":90,"time":133.795558,"velocity":0.16535433070866143},{"duration":0.3284669999999892,"midi":86,"time":134.014536,"velocity":0.16535433070866143},{"duration":0.3284669999999892,"midi":86,"time":134.014536,"velocity":0.16535433070866143},{"duration":0.1094889999999964,"midi":78,"time":134.34300299999998,"velocity":0.16535433070866143},{"duration":0.1094889999999964,"midi":90,"time":134.34300299999998,"velocity":0.16535433070866143},{"duration":0.2189780000000212,"midi":85,"time":134.45249199999998,"velocity":0.16535433070866143},{"duration":0.2189780000000212,"midi":85,"time":134.45249199999998,"velocity":0.16535433070866143},{"duration":0.2189779999999928,"midi":78,"time":134.67147,"velocity":0.16535433070866143},{"duration":0.2189779999999928,"midi":90,"time":134.67147,"velocity":0.16535433070866143},{"duration":0.3284669999999892,"midi":81,"time":134.890448,"velocity":0.16535433070866143},{"duration":0.3284669999999892,"midi":93,"time":134.890448,"velocity":0.16535433070866143},{"duration":0.1094889999999964,"midi":78,"time":135.21891499999998,"velocity":0.16535433070866143},{"duration":0.1094889999999964,"midi":90,"time":135.21891499999998,"velocity":0.16535433070866143},{"duration":0.2189780000000212,"midi":85,"time":135.32840399999998,"velocity":0.16535433070866143},{"duration":0.2189780000000212,"midi":85,"time":135.32840399999998,"velocity":0.16535433070866143},{"duration":0.2189779999999928,"midi":90,"time":135.547382,"velocity":0.16535433070866143},{"duration":0.2189779999999928,"midi":78,"time":135.547382,"velocity":0.16535433070866143},{"duration":0.3284669999999892,"midi":86,"time":135.76636,"velocity":0.16535433070866143},{"duration":0.3284669999999892,"midi":86,"time":135.76636,"velocity":0.16535433070866143},{"duration":0.1094889999999964,"midi":90,"time":136.09482699999998,"velocity":0.16535433070866143},{"duration":0.1094889999999964,"midi":78,"time":136.09482699999998,"velocity":0.16535433070866143},{"duration":0.2189780000000212,"midi":85,"time":136.20431599999998,"velocity":0.16535433070866143},{"duration":0.2189780000000212,"midi":85,"time":136.20431599999998,"velocity":0.16535433070866143},{"duration":0.2189779999999928,"midi":90,"time":136.423294,"velocity":0.16535433070866143},{"duration":0.2189779999999928,"midi":78,"time":136.423294,"velocity":0.16535433070866143},{"duration":0.3284669999999892,"midi":93,"time":136.642272,"velocity":0.16535433070866143},{"duration":0.3284669999999892,"midi":81,"time":136.642272,"velocity":0.16535433070866143},{"duration":0.1094889999999964,"midi":78,"time":136.97073899999998,"velocity":0.16535433070866143},{"duration":0.1094889999999964,"midi":90,"time":136.97073899999998,"velocity":0.16535433070866143},{"duration":0.2189780000000212,"midi":85,"time":137.08022799999998,"velocity":0.16535433070866143},{"duration":0.2189780000000212,"midi":85,"time":137.08022799999998,"velocity":0.16535433070866143},{"duration":0.2189779999999928,"midi":90,"time":137.299206,"velocity":0.16535433070866143},{"duration":0.2189779999999928,"midi":78,"time":137.299206,"velocity":0.16535433070866143},{"duration":0.3284669999999892,"midi":86,"time":137.518184,"velocity":0.16535433070866143},{"duration":0.3284669999999892,"midi":86,"time":137.518184,"velocity":0.16535433070866143},{"duration":0.1094889999999964,"midi":78,"time":137.84665099999998,"velocity":0.16535433070866143},{"duration":0.1094889999999964,"midi":90,"time":137.84665099999998,"velocity":0.16535433070866143},{"duration":0.2189780000000212,"midi":85,"time":137.95613999999998,"velocity":0.16535433070866143},{"duration":0.2189780000000212,"midi":85,"time":137.95613999999998,"velocity":0.16535433070866143},{"duration":0.2189779999999928,"midi":90,"time":138.175118,"velocity":0.16535433070866143},{"duration":0.2189779999999928,"midi":78,"time":138.175118,"velocity":0.16535433070866143},{"duration":0.3284669999999892,"midi":93,"time":196.204288,"velocity":0.16535433070866143},{"duration":0.3284669999999892,"midi":81,"time":196.204288,"velocity":0.16535433070866143},{"duration":0.1094889999999964,"midi":78,"time":196.53275499999998,"velocity":0.16535433070866143},{"duration":0.1094889999999964,"midi":90,"time":196.53275499999998,"velocity":0.16535433070866143},{"duration":0.2189779999999928,"midi":85,"time":196.64224399999998,"velocity":0.16535433070866143},{"duration":0.2189779999999928,"midi":85,"time":196.64224399999998,"velocity":0.16535433070866143},{"duration":0.2189780000000212,"midi":90,"time":196.86122199999997,"velocity":0.16535433070866143},{"duration":0.2189780000000212,"midi":78,"time":196.86122199999997,"velocity":0.16535433070866143},{"duration":0.3284669999999892,"midi":86,"time":197.0802,"velocity":0.16535433070866143},{"duration":0.3284669999999892,"midi":86,"time":197.0802,"velocity":0.16535433070866143},{"duration":0.1094889999999964,"midi":78,"time":197.40866699999998,"velocity":0.16535433070866143},{"duration":0.1094889999999964,"midi":90,"time":197.40866699999998,"velocity":0.16535433070866143},{"duration":0.2189779999999928,"midi":85,"time":197.51815599999998,"velocity":0.16535433070866143},{"duration":0.2189779999999928,"midi":85,"time":197.51815599999998,"velocity":0.16535433070866143},{"duration":0.2189780000000212,"midi":90,"time":197.73713399999997,"velocity":0.16535433070866143},{"duration":0.2189780000000212,"midi":78,"time":197.73713399999997,"velocity":0.16535433070866143},{"duration":0.3284669999999892,"midi":92,"time":197.956112,"velocity":0.16535433070866143},{"duration":0.3284669999999892,"midi":80,"time":197.956112,"velocity":0.16535433070866143},{"duration":0.1094889999999964,"midi":89,"time":198.28457899999998,"velocity":0.16535433070866143},{"duration":0.1094889999999964,"midi":77,"time":198.28457899999998,"velocity":0.16535433070866143},{"duration":0.2189779999999928,"midi":81,"time":198.39406799999998,"velocity":0.16535433070866143},{"duration":0.2189779999999928,"midi":93,"time":198.39406799999998,"velocity":0.16535433070866143},{"duration":0.2189780000000212,"midi":77,"time":198.61304599999997,"velocity":0.16535433070866143},{"duration":0.2189780000000212,"midi":89,"time":198.61304599999997,"velocity":0.16535433070866143},{"duration":0.3284669999999892,"midi":85,"time":198.832024,"velocity":0.16535433070866143},{"duration":0.3284669999999892,"midi":85,"time":198.832024,"velocity":0.16535433070866143},{"duration":0.1094889999999964,"midi":86,"time":199.16049099999998,"velocity":0.16535433070866143},{"duration":0.1094889999999964,"midi":86,"time":199.16049099999998,"velocity":0.16535433070866143},{"duration":0.2189779999999928,"midi":85,"time":199.26997999999998,"velocity":0.16535433070866143},{"duration":0.2189779999999928,"midi":85,"time":199.26997999999998,"velocity":0.16535433070866143},{"duration":0.2189780000000212,"midi":83,"time":199.48895799999997,"velocity":0.16535433070866143},{"duration":0.2189780000000212,"midi":95,"time":199.48895799999997,"velocity":0.16535433070866143},{"duration":0.2189779999999928,"midi":86,"time":199.707936,"velocity":0.16535433070866143},{"duration":0.2189779999999928,"midi":74,"time":199.707936,"velocity":0.16535433070866143},{"duration":0.1094889999999964,"midi":90,"time":200.03640299999998,"velocity":0.16535433070866143},{"duration":0.1094889999999964,"midi":78,"time":200.03640299999998,"velocity":0.16535433070866143},{"duration":0.2189779999999928,"midi":74,"time":200.14589199999998,"velocity":0.16535433070866143},{"duration":0.2189779999999928,"midi":86,"time":200.14589199999998,"velocity":0.16535433070866143},{"duration":0.2189780000000212,"midi":78,"time":200.36486999999997,"velocity":0.16535433070866143},{"duration":0.2189780000000212,"midi":90,"time":200.36486999999997,"velocity":0.16535433070866143},{"duration":0.3284669999999892,"midi":80,"time":200.583848,"velocity":0.16535433070866143},{"duration":0.3284669999999892,"midi":92,"time":200.583848,"velocity":0.16535433070866143},{"duration":0.1094889999999964,"midi":93,"time":200.91231499999998,"velocity":0.16535433070866143},{"duration":0.1094889999999964,"midi":81,"time":200.91231499999998,"velocity":0.16535433070866143},{"duration":0.2189779999999928,"midi":80,"time":201.02180399999997,"velocity":0.16535433070866143},{"duration":0.2189779999999928,"midi":92,"time":201.02180399999997,"velocity":0.16535433070866143},{"duration":0.2189780000000212,"midi":78,"time":201.24078199999997,"velocity":0.16535433070866143},{"duration":0.2189780000000212,"midi":90,"time":201.24078199999997,"velocity":0.16535433070866143},{"duration":0.3284669999999892,"midi":89,"time":201.45976,"velocity":0.16535433070866143},{"duration":0.3284669999999892,"midi":77,"time":201.45976,"velocity":0.16535433070866143},{"duration":0.1094889999999964,"midi":92,"time":201.78822699999998,"velocity":0.16535433070866143},{"duration":0.1094889999999964,"midi":80,"time":201.78822699999998,"velocity":0.16535433070866143},{"duration":0.2189779999999928,"midi":89,"time":201.89771599999997,"velocity":0.16535433070866143},{"duration":0.2189779999999928,"midi":77,"time":201.89771599999997,"velocity":0.16535433070866143},{"duration":0.2189780000000212,"midi":80,"time":202.11669399999997,"velocity":0.16535433070866143},{"duration":0.2189780000000212,"midi":92,"time":202.11669399999997,"velocity":0.16535433070866143},{"duration":0.3284669999999892,"midi":95,"time":202.335672,"velocity":0.16535433070866143},{"duration":0.3284669999999892,"midi":83,"time":202.335672,"velocity":0.16535433070866143},{"duration":0.1094889999999964,"midi":85,"time":202.66413899999998,"velocity":0.16535433070866143},{"duration":0.1094889999999964,"midi":85,"time":202.66413899999998,"velocity":0.16535433070866143},{"duration":0.2189779999999928,"midi":83,"time":202.77362799999997,"velocity":0.16535433070866143},{"duration":0.2189779999999928,"midi":95,"time":202.77362799999997,"velocity":0.16535433070866143},{"duration":0.2189780000000212,"midi":81,"time":202.99260599999997,"velocity":0.16535433070866143},{"duration":0.2189780000000212,"midi":93,"time":202.99260599999997,"velocity":0.16535433070866143},{"duration":0.3284669999999892,"midi":81,"time":203.211584,"velocity":0.16535433070866143},{"duration":0.3284669999999892,"midi":93,"time":203.211584,"velocity":0.16535433070866143},{"duration":0.1094889999999964,"midi":78,"time":203.54005099999998,"velocity":0.16535433070866143},{"duration":0.1094889999999964,"midi":90,"time":203.54005099999998,"velocity":0.16535433070866143},{"duration":0.2189779999999928,"midi":85,"time":203.64953999999997,"velocity":0.16535433070866143},{"duration":0.2189779999999928,"midi":85,"time":203.64953999999997,"velocity":0.16535433070866143},{"duration":0.2189780000000212,"midi":90,"time":203.86851799999997,"velocity":0.16535433070866143},{"duration":0.2189780000000212,"midi":78,"time":203.86851799999997,"velocity":0.16535433070866143},{"duration":0.3284669999999892,"midi":86,"time":204.087496,"velocity":0.16535433070866143},{"duration":0.3284669999999892,"midi":86,"time":204.087496,"velocity":0.16535433070866143},{"duration":0.1094889999999964,"midi":78,"time":204.41596299999998,"velocity":0.16535433070866143},{"duration":0.1094889999999964,"midi":90,"time":204.41596299999998,"velocity":0.16535433070866143},{"duration":0.2189779999999928,"midi":85,"time":204.52545199999997,"velocity":0.16535433070866143},{"duration":0.2189779999999928,"midi":85,"time":204.52545199999997,"velocity":0.16535433070866143},{"duration":0.2189780000000212,"midi":90,"time":204.74442999999997,"velocity":0.16535433070866143},{"duration":0.2189780000000212,"midi":78,"time":204.74442999999997,"velocity":0.16535433070866143},{"duration":0.3284669999999892,"midi":80,"time":204.963408,"velocity":0.16535433070866143},{"duration":0.3284669999999892,"midi":92,"time":204.963408,"velocity":0.16535433070866143},{"duration":0.1094889999999964,"midi":77,"time":205.29187499999998,"velocity":0.16535433070866143},{"duration":0.1094889999999964,"midi":89,"time":205.29187499999998,"velocity":0.16535433070866143},{"duration":0.2189780000000212,"midi":81,"time":205.40136399999997,"velocity":0.16535433070866143},{"duration":0.2189780000000212,"midi":93,"time":205.40136399999997,"velocity":0.16535433070866143},{"duration":0.2189779999999928,"midi":89,"time":205.620342,"velocity":0.16535433070866143},{"duration":0.2189779999999928,"midi":77,"time":205.620342,"velocity":0.16535433070866143},{"duration":0.3284669999999892,"midi":85,"time":205.83932,"velocity":0.16535433070866143},{"duration":0.3284669999999892,"midi":85,"time":205.83932,"velocity":0.16535433070866143},{"duration":0.1094889999999964,"midi":86,"time":206.16778699999998,"velocity":0.16535433070866143},{"duration":0.1094889999999964,"midi":86,"time":206.16778699999998,"velocity":0.16535433070866143},{"duration":0.2189780000000212,"midi":85,"time":206.27727599999997,"velocity":0.16535433070866143},{"duration":0.2189780000000212,"midi":85,"time":206.27727599999997,"velocity":0.16535433070866143},{"duration":0.2189779999999928,"midi":83,"time":206.496254,"velocity":0.16535433070866143},{"duration":0.2189779999999928,"midi":95,"time":206.496254,"velocity":0.16535433070866143},{"duration":0.2189779999999928,"midi":86,"time":206.715232,"velocity":0.16535433070866143},{"duration":0.2189779999999928,"midi":74,"time":206.715232,"velocity":0.16535433070866143},{"duration":0.1094889999999964,"midi":78,"time":207.04369899999998,"velocity":0.16535433070866143},{"duration":0.1094889999999964,"midi":90,"time":207.04369899999998,"velocity":0.16535433070866143},{"duration":0.2189780000000212,"midi":86,"time":207.15318799999997,"velocity":0.16535433070866143},{"duration":0.2189780000000212,"midi":74,"time":207.15318799999997,"velocity":0.16535433070866143},{"duration":0.2189779999999928,"midi":78,"time":207.372166,"velocity":0.16535433070866143},{"duration":0.2189779999999928,"midi":90,"time":207.372166,"velocity":0.16535433070866143},{"duration":0.3284669999999892,"midi":80,"time":207.59114399999999,"velocity":0.16535433070866143},{"duration":0.3284669999999892,"midi":92,"time":207.59114399999999,"velocity":0.16535433070866143},{"duration":0.1094889999999964,"midi":93,"time":207.91961099999997,"velocity":0.16535433070866143},{"duration":0.1094889999999964,"midi":81,"time":207.91961099999997,"velocity":0.16535433070866143},{"duration":0.2189780000000212,"midi":80,"time":208.02909999999997,"velocity":0.16535433070866143},{"duration":0.2189780000000212,"midi":92,"time":208.02909999999997,"velocity":0.16535433070866143},{"duration":0.2189779999999928,"midi":78,"time":208.248078,"velocity":0.16535433070866143},{"duration":0.2189779999999928,"midi":90,"time":208.248078,"velocity":0.16535433070866143},{"duration":0.3284669999999892,"midi":89,"time":208.46705599999999,"velocity":0.16535433070866143},{"duration":0.3284669999999892,"midi":77,"time":208.46705599999999,"velocity":0.16535433070866143},{"duration":0.1094889999999964,"midi":80,"time":208.79552299999997,"velocity":0.16535433070866143},{"duration":0.1094889999999964,"midi":92,"time":208.79552299999997,"velocity":0.16535433070866143},{"duration":0.2189780000000212,"midi":89,"time":208.90501199999997,"velocity":0.16535433070866143},{"duration":0.2189780000000212,"midi":77,"time":208.90501199999997,"velocity":0.16535433070866143},{"duration":0.2189779999999928,"midi":92,"time":209.12399,"velocity":0.16535433070866143},{"duration":0.2189779999999928,"midi":80,"time":209.12399,"velocity":0.16535433070866143},{"duration":0.3284669999999892,"midi":95,"time":209.34296799999998,"velocity":0.16535433070866143},{"duration":0.3284669999999892,"midi":83,"time":209.34296799999998,"velocity":0.16535433070866143},{"duration":0.1094889999999964,"midi":85,"time":209.67143499999997,"velocity":0.16535433070866143},{"duration":0.1094889999999964,"midi":85,"time":209.67143499999997,"velocity":0.16535433070866143},{"duration":0.2189780000000212,"midi":83,"time":209.78092399999997,"velocity":0.16535433070866143},{"duration":0.2189780000000212,"midi":95,"time":209.78092399999997,"velocity":0.16535433070866143},{"duration":0.2189779999999928,"midi":93,"time":209.999902,"velocity":0.16535433070866143},{"duration":0.2189779999999928,"midi":81,"time":209.999902,"velocity":0.16535433070866143},{"duration":0.3284669999999892,"midi":93,"time":210.21887999999998,"velocity":0.16535433070866143},{"duration":0.3284669999999892,"midi":81,"time":210.21887999999998,"velocity":0.16535433070866143},{"duration":0.1094889999999964,"midi":90,"time":210.54734699999997,"velocity":0.16535433070866143},{"duration":0.1094889999999964,"midi":78,"time":210.54734699999997,"velocity":0.16535433070866143},{"duration":0.2189780000000212,"midi":85,"time":210.65683599999997,"velocity":0.16535433070866143},{"duration":0.2189780000000212,"midi":85,"time":210.65683599999997,"velocity":0.16535433070866143},{"duration":0.2189779999999928,"midi":90,"time":210.875814,"velocity":0.16535433070866143},{"duration":0.2189779999999928,"midi":78,"time":210.875814,"velocity":0.16535433070866143},{"duration":0.3284669999999892,"midi":86,"time":211.09479199999998,"velocity":0.16535433070866143},{"duration":0.3284669999999892,"midi":86,"time":211.09479199999998,"velocity":0.16535433070866143},{"duration":0.1094889999999964,"midi":78,"time":211.42325899999997,"velocity":0.16535433070866143},{"duration":0.1094889999999964,"midi":90,"time":211.42325899999997,"velocity":0.16535433070866143},{"duration":0.2189780000000212,"midi":85,"time":211.53274799999997,"velocity":0.16535433070866143},{"duration":0.2189780000000212,"midi":85,"time":211.53274799999997,"velocity":0.16535433070866143},{"duration":0.2189779999999928,"midi":90,"time":211.751726,"velocity":0.16535433070866143},{"duration":0.2189779999999928,"midi":78,"time":211.751726,"velocity":0.16535433070866143},{"duration":0.3284669999999892,"midi":92,"time":211.97070399999998,"velocity":0.16535433070866143},{"duration":0.3284669999999892,"midi":80,"time":211.97070399999998,"velocity":0.16535433070866143},{"duration":0.1094889999999964,"midi":89,"time":212.29917099999997,"velocity":0.16535433070866143},{"duration":0.1094889999999964,"midi":77,"time":212.29917099999997,"velocity":0.16535433070866143},{"duration":0.2189780000000212,"midi":81,"time":212.40865999999997,"velocity":0.16535433070866143},{"duration":0.2189780000000212,"midi":93,"time":212.40865999999997,"velocity":0.16535433070866143},{"duration":0.2189779999999928,"midi":89,"time":212.627638,"velocity":0.16535433070866143},{"duration":0.2189779999999928,"midi":77,"time":212.627638,"velocity":0.16535433070866143},{"duration":0.3284669999999892,"midi":85,"time":212.84661599999998,"velocity":0.16535433070866143},{"duration":0.3284669999999892,"midi":85,"time":212.84661599999998,"velocity":0.16535433070866143},{"duration":0.1094889999999964,"midi":86,"time":213.17508299999997,"velocity":0.16535433070866143},{"duration":0.1094889999999964,"midi":86,"time":213.17508299999997,"velocity":0.16535433070866143},{"duration":0.2189780000000212,"midi":85,"time":213.28457199999997,"velocity":0.16535433070866143},{"duration":0.2189780000000212,"midi":85,"time":213.28457199999997,"velocity":0.16535433070866143},{"duration":0.2189779999999928,"midi":95,"time":213.50355,"velocity":0.16535433070866143},{"duration":0.2189779999999928,"midi":83,"time":213.50355,"velocity":0.16535433070866143},{"duration":0.2189779999999928,"midi":86,"time":213.72252799999998,"velocity":0.16535433070866143},{"duration":0.2189779999999928,"midi":74,"time":213.72252799999998,"velocity":0.16535433070866143},{"duration":0.1094889999999964,"midi":78,"time":214.05099499999997,"velocity":0.16535433070866143},{"duration":0.1094889999999964,"midi":90,"time":214.05099499999997,"velocity":0.16535433070866143},{"duration":0.2189780000000212,"midi":74,"time":214.16048399999997,"velocity":0.16535433070866143},{"duration":0.2189780000000212,"midi":86,"time":214.16048399999997,"velocity":0.16535433070866143},{"duration":0.2189779999999928,"midi":78,"time":214.379462,"velocity":0.16535433070866143},{"duration":0.2189779999999928,"midi":90,"time":214.379462,"velocity":0.16535433070866143},{"duration":0.3284669999999892,"midi":92,"time":214.59843999999998,"velocity":0.16535433070866143},{"duration":0.3284669999999892,"midi":80,"time":214.59843999999998,"velocity":0.16535433070866143},{"duration":0.1094889999999964,"midi":93,"time":214.92690699999997,"velocity":0.16535433070866143},{"duration":0.1094889999999964,"midi":81,"time":214.92690699999997,"velocity":0.16535433070866143},{"duration":0.2189780000000212,"midi":80,"time":215.03639599999997,"velocity":0.16535433070866143},{"duration":0.2189780000000212,"midi":92,"time":215.03639599999997,"velocity":0.16535433070866143},{"duration":0.2189779999999928,"midi":78,"time":215.255374,"velocity":0.16535433070866143},{"duration":0.2189779999999928,"midi":90,"time":215.255374,"velocity":0.16535433070866143},{"duration":0.3284669999999892,"midi":89,"time":215.47435199999998,"velocity":0.16535433070866143},{"duration":0.3284669999999892,"midi":77,"time":215.47435199999998,"velocity":0.16535433070866143},{"duration":0.1094889999999964,"midi":80,"time":215.80281899999997,"velocity":0.16535433070866143},{"duration":0.1094889999999964,"midi":92,"time":215.80281899999997,"velocity":0.16535433070866143},{"duration":0.2189780000000212,"midi":77,"time":215.91230799999997,"velocity":0.16535433070866143},{"duration":0.2189780000000212,"midi":89,"time":215.91230799999997,"velocity":0.16535433070866143},{"duration":0.2189779999999928,"midi":80,"time":216.131286,"velocity":0.16535433070866143},{"duration":0.2189779999999928,"midi":92,"time":216.131286,"velocity":0.16535433070866143},{"duration":0.3284669999999892,"midi":95,"time":216.35026399999998,"velocity":0.16535433070866143},{"duration":0.3284669999999892,"midi":83,"time":216.35026399999998,"velocity":0.16535433070866143},{"duration":0.1094889999999964,"midi":85,"time":216.67873099999997,"velocity":0.16535433070866143},{"duration":0.1094889999999964,"midi":85,"time":216.67873099999997,"velocity":0.16535433070866143},{"duration":0.2189780000000212,"midi":95,"time":216.78821999999997,"velocity":0.16535433070866143},{"duration":0.2189780000000212,"midi":83,"time":216.78821999999997,"velocity":0.16535433070866143},{"duration":0.2189779999999928,"midi":93,"time":217.007198,"velocity":0.16535433070866143},{"duration":0.2189779999999928,"midi":81,"time":217.007198,"velocity":0.16535433070866143}]},{"instrument":{"family":"guitar","number":28,"name":"electric guitar (muted)"},"notes":[{"duration":0.32846699999999984,"midi":42,"time":28.029183999999997,"velocity":0.11811023622047244},{"duration":0.32846699999999984,"midi":42,"time":28.357650999999997,"velocity":0.11811023622047244},{"duration":0.2189779999999999,"midi":42,"time":28.686117999999997,"velocity":0.11811023622047244},{"duration":0.2189779999999999,"midi":54,"time":28.905095999999997,"velocity":0.11811023622047244},{"duration":0.2189779999999999,"midi":42,"time":28.905095999999997,"velocity":0.11811023622047244},{"duration":0.10948899999999995,"midi":42,"time":29.124073999999997,"velocity":0.11811023622047244},{"duration":0.10948899999999995,"midi":42,"time":29.233562999999997,"velocity":0.11811023622047244},{"duration":0.2189779999999999,"midi":42,"time":29.562029999999996,"velocity":0.11811023622047244},{"duration":0.10948899999999995,"midi":42,"time":29.781007999999996,"velocity":0.11811023622047244},{"duration":0.10948899999999995,"midi":42,"time":29.890496999999996,"velocity":0.11811023622047244},{"duration":0.10948899999999995,"midi":42,"time":29.999985999999996,"velocity":0.11811023622047244},{"duration":0.10948899999999995,"midi":42,"time":30.109474999999996,"velocity":0.11811023622047244},{"duration":0.10948899999999995,"midi":42,"time":30.437941999999996,"velocity":0.11811023622047244},{"duration":0.2189779999999999,"midi":42,"time":30.437941999999996,"velocity":0.11811023622047244},{"duration":0.2189779999999999,"midi":54,"time":30.656919999999996,"velocity":0.11811023622047244},{"duration":0.32846699999999984,"midi":42,"time":30.656919999999996,"velocity":0.11811023622047244},{"duration":0.5474449999999997,"midi":42,"time":30.985386999999996,"velocity":0.11811023622047244},{"duration":0.32846699999999984,"midi":38,"time":31.532831999999996,"velocity":0.11811023622047244},{"duration":0.3284670000000034,"midi":38,"time":31.861298999999995,"velocity":0.11811023622047244},{"duration":0.2189779999999999,"midi":38,"time":32.189766,"velocity":0.11811023622047244},{"duration":0.2189779999999999,"midi":50,"time":32.408744,"velocity":0.11811023622047244},{"duration":0.2189779999999999,"midi":38,"time":32.408744,"velocity":0.11811023622047244},{"duration":0.1094889999999964,"midi":38,"time":32.627722,"velocity":0.11811023622047244},{"duration":0.1094890000000035,"midi":38,"time":32.737210999999995,"velocity":0.11811023622047244},{"duration":0.2189779999999999,"midi":38,"time":33.065678,"velocity":0.11811023622047244},{"duration":0.3284669999999963,"midi":37,"time":33.284656,"velocity":0.11811023622047244},{"duration":0.3284670000000034,"midi":37,"time":33.613122999999995,"velocity":0.11811023622047244},{"duration":0.2189779999999999,"midi":37,"time":33.94159,"velocity":0.11811023622047244},{"duration":0.2189779999999999,"midi":49,"time":34.160568,"velocity":0.11811023622047244},{"duration":0.2189779999999999,"midi":37,"time":34.160568,"velocity":0.11811023622047244},{"duration":0.1094889999999964,"midi":37,"time":34.379546,"velocity":0.11811023622047244},{"duration":0.1094890000000035,"midi":37,"time":34.489034999999994,"velocity":0.11811023622047244},{"duration":0.2189779999999999,"midi":37,"time":34.817502,"velocity":0.11811023622047244},{"duration":0.3284669999999963,"midi":42,"time":35.03648,"velocity":0.11811023622047244},{"duration":0.3284670000000034,"midi":42,"time":35.364946999999994,"velocity":0.11811023622047244},{"duration":0.2189779999999999,"midi":42,"time":35.693414,"velocity":0.11811023622047244},{"duration":0.2189779999999999,"midi":54,"time":35.912392,"velocity":0.11811023622047244},{"duration":0.2189779999999999,"midi":42,"time":35.912392,"velocity":0.11811023622047244},{"duration":0.1094889999999964,"midi":42,"time":36.13137,"velocity":0.11811023622047244},{"duration":0.1094890000000035,"midi":42,"time":36.24085899999999,"velocity":0.11811023622047244},{"duration":0.2189779999999999,"midi":42,"time":36.569326,"velocity":0.11811023622047244},{"duration":0.1094889999999964,"midi":42,"time":36.788304,"velocity":0.11811023622047244},{"duration":0.1094890000000035,"midi":42,"time":36.89779299999999,"velocity":0.11811023622047244},{"duration":0.1094889999999964,"midi":42,"time":37.007282,"velocity":0.11811023622047244},{"duration":0.1094890000000035,"midi":42,"time":37.11677099999999,"velocity":0.11811023622047244},{"duration":0.1094890000000035,"midi":42,"time":37.445237999999996,"velocity":0.11811023622047244},{"duration":0.2189779999999999,"midi":42,"time":37.445237999999996,"velocity":0.11811023622047244},{"duration":0.2189779999999999,"midi":54,"time":37.664215999999996,"velocity":0.11811023622047244},{"duration":0.3284670000000034,"midi":42,"time":37.664215999999996,"velocity":0.11811023622047244},{"duration":0.5474449999999962,"midi":42,"time":37.992683,"velocity":0.11811023622047244},{"duration":0.3284670000000034,"midi":38,"time":38.540127999999996,"velocity":0.11811023622047244},{"duration":0.3284669999999963,"midi":38,"time":38.868595,"velocity":0.11811023622047244},{"duration":0.2189779999999999,"midi":38,"time":39.197061999999995,"velocity":0.11811023622047244},{"duration":0.2189779999999999,"midi":50,"time":39.416039999999995,"velocity":0.11811023622047244},{"duration":0.2189779999999999,"midi":38,"time":39.416039999999995,"velocity":0.11811023622047244},{"duration":0.1094890000000035,"midi":38,"time":39.635017999999995,"velocity":0.11811023622047244},{"duration":0.1094889999999964,"midi":38,"time":39.744507,"velocity":0.11811023622047244},{"duration":0.2189779999999999,"midi":38,"time":40.072973999999995,"velocity":0.11811023622047244},{"duration":0.3284670000000034,"midi":37,"time":40.291951999999995,"velocity":0.11811023622047244},{"duration":0.3284669999999963,"midi":37,"time":40.620419,"velocity":0.11811023622047244},{"duration":0.2189779999999999,"midi":37,"time":40.948885999999995,"velocity":0.11811023622047244},{"duration":0.2189779999999999,"midi":49,"time":41.167863999999994,"velocity":0.11811023622047244},{"duration":0.2189779999999999,"midi":37,"time":41.167863999999994,"velocity":0.11811023622047244},{"duration":0.1094890000000035,"midi":37,"time":41.386841999999994,"velocity":0.11811023622047244},{"duration":0.1094889999999964,"midi":37,"time":41.496331,"velocity":0.11811023622047244},{"duration":0.2189779999999999,"midi":37,"time":41.605819999999994,"velocity":0.11811023622047244},{"duration":0.2189779999999999,"midi":37,"time":41.824797999999994,"velocity":0.11811023622047244}]},{"instrument":{"family":"piano","number":0,"name":"acoustic grand piano"},"notes":[{"duration":0.2189779999999999,"midi":54,"time":7.007295999999999,"velocity":0.4015748031496063},{"duration":0.10948899999999995,"midi":66,"time":7.116784999999999,"velocity":0.4015748031496063},{"duration":0.10948899999999995,"midi":66,"time":7.226273999999999,"velocity":0.4015748031496063},{"duration":0.10948899999999995,"midi":66,"time":7.335762999999999,"velocity":0.4015748031496063},{"duration":0.10948899999999995,"midi":66,"time":7.445251999999999,"velocity":0.4015748031496063},{"duration":0.10948899999999995,"midi":66,"time":7.554740999999999,"velocity":0.4015748031496063},{"duration":0.10948899999999995,"midi":54,"time":7.664229999999999,"velocity":0.4015748031496063},{"duration":0.10948899999999995,"midi":66,"time":7.773718999999999,"velocity":0.4015748031496063},{"duration":0.10948899999999995,"midi":66,"time":7.883207999999999,"velocity":0.4015748031496063},{"duration":0.10948900000000084,"midi":54,"time":7.992696999999999,"velocity":0.4015748031496063},{"duration":0.10948899999999995,"midi":54,"time":8.102186,"velocity":0.4015748031496063},{"duration":0.10948899999999995,"midi":54,"time":8.211675,"velocity":0.4015748031496063},{"duration":0.10948899999999995,"midi":66,"time":8.321164,"velocity":0.4015748031496063},{"duration":0.10948899999999995,"midi":54,"time":8.430653,"velocity":0.4015748031496063},{"duration":0.10948899999999995,"midi":54,"time":8.540142,"velocity":0.4015748031496063},{"duration":0.10948899999999995,"midi":54,"time":8.649631,"velocity":0.4015748031496063},{"duration":0.2189779999999999,"midi":53,"time":8.75912,"velocity":0.4015748031496063},{"duration":0.10948899999999995,"midi":65,"time":8.868609,"velocity":0.4015748031496063},{"duration":0.10948899999999995,"midi":65,"time":8.978098,"velocity":0.4015748031496063},{"duration":0.10948899999999995,"midi":65,"time":9.087587,"velocity":0.4015748031496063},{"duration":0.10948899999999995,"midi":65,"time":9.197076,"velocity":0.4015748031496063},{"duration":0.10948899999999995,"midi":65,"time":9.306564999999999,"velocity":0.4015748031496063},{"duration":0.10948899999999995,"midi":53,"time":9.416053999999999,"velocity":0.4015748031496063},{"duration":0.10948899999999995,"midi":65,"time":9.525542999999999,"velocity":0.4015748031496063},{"duration":0.10948899999999995,"midi":53,"time":9.744520999999999,"velocity":0.4015748031496063},{"duration":0.10948899999999995,"midi":53,"time":9.854009999999999,"velocity":0.4015748031496063},{"duration":0.10948899999999995,"midi":53,"time":9.963498999999999,"velocity":0.4015748031496063},{"duration":0.10948899999999995,"midi":65,"time":10.072987999999999,"velocity":0.4015748031496063},{"duration":0.10948899999999995,"midi":53,"time":10.182476999999999,"velocity":0.4015748031496063},{"duration":0.10948899999999995,"midi":53,"time":10.291965999999999,"velocity":0.4015748031496063},{"duration":0.10948899999999995,"midi":53,"time":10.401454999999999,"velocity":0.4015748031496063},{"duration":0.2189779999999999,"midi":50,"time":10.510943999999999,"velocity":0.4015748031496063},{"duration":0.10948899999999995,"midi":62,"time":10.620432999999998,"velocity":0.4015748031496063},{"duration":0.10948899999999995,"midi":62,"time":10.729921999999998,"velocity":0.4015748031496063},{"duration":0.10948899999999995,"midi":50,"time":10.839410999999998,"velocity":0.4015748031496063},{"duration":0.10948899999999995,"midi":50,"time":10.948899999999998,"velocity":0.4015748031496063},{"duration":0.10948899999999995,"midi":50,"time":11.058388999999998,"velocity":0.4015748031496063},{"duration":0.10948899999999995,"midi":62,"time":11.167877999999998,"velocity":0.4015748031496063},{"duration":0.10948899999999995,"midi":50,"time":11.496344999999998,"velocity":0.4015748031496063},{"duration":0.10948900000000172,"midi":50,"time":11.605833999999998,"velocity":0.4015748031496063},{"duration":0.10948899999999995,"midi":50,"time":11.715323,"velocity":0.4015748031496063},{"duration":0.10948899999999995,"midi":62,"time":11.824812,"velocity":0.4015748031496063},{"duration":0.10948899999999995,"midi":50,"time":11.934301,"velocity":0.4015748031496063},{"duration":0.10948899999999995,"midi":50,"time":12.04379,"velocity":0.4015748031496063},{"duration":0.10948899999999995,"midi":50,"time":12.153279,"velocity":0.4015748031496063},{"duration":0.10948899999999995,"midi":49,"time":12.262768,"velocity":0.4015748031496063},{"duration":0.10948899999999995,"midi":49,"time":12.372257,"velocity":0.4015748031496063},{"duration":0.10948899999999995,"midi":49,"time":12.481746,"velocity":0.4015748031496063},{"duration":0.10948899999999995,"midi":49,"time":12.591235,"velocity":0.4015748031496063},{"duration":0.10948899999999995,"midi":61,"time":12.700724,"velocity":0.4015748031496063},{"duration":0.10948899999999995,"midi":49,"time":12.700724,"velocity":0.4015748031496063},{"duration":0.10948899999999995,"midi":61,"time":12.810213,"velocity":0.4015748031496063},{"duration":0.10948899999999995,"midi":61,"time":12.919702,"velocity":0.4015748031496063},{"duration":0.10948899999999995,"midi":61,"time":13.029190999999999,"velocity":0.4015748031496063},{"duration":0.2189779999999999,"midi":54,"time":14.014591999999999,"velocity":0.4015748031496063},{"duration":0.10948899999999995,"midi":66,"time":14.124080999999999,"velocity":0.4015748031496063},{"duration":0.10948899999999995,"midi":66,"time":14.233569999999999,"velocity":0.4015748031496063},{"duration":0.10948899999999995,"midi":66,"time":14.343058999999998,"velocity":0.4015748031496063},{"duration":0.10948899999999995,"midi":66,"time":14.452547999999998,"velocity":0.4015748031496063},{"duration":0.10948899999999995,"midi":66,"time":14.562036999999998,"velocity":0.4015748031496063},{"duration":0.10948899999999995,"midi":54,"time":14.671525999999998,"velocity":0.4015748031496063},{"duration":0.10948899999999995,"midi":66,"time":14.781014999999998,"velocity":0.4015748031496063},{"duration":0.10948899999999995,"midi":66,"time":14.890503999999998,"velocity":0.4015748031496063},{"duration":0.10948899999999995,"midi":54,"time":14.999992999999998,"velocity":0.4015748031496063},{"duration":0.10948899999999995,"midi":54,"time":15.109481999999998,"velocity":0.4015748031496063},{"duration":0.10948899999999995,"midi":54,"time":15.218970999999998,"velocity":0.4015748031496063},{"duration":0.10948899999999995,"midi":66,"time":15.328459999999998,"velocity":0.4015748031496063},{"duration":0.10948899999999995,"midi":54,"time":15.437948999999998,"velocity":0.4015748031496063},{"duration":0.10948899999999995,"midi":54,"time":15.547437999999998,"velocity":0.4015748031496063},{"duration":0.10948899999999995,"midi":54,"time":15.656926999999998,"velocity":0.4015748031496063},{"duration":0.2189779999999999,"midi":53,"time":15.766415999999998,"velocity":0.4015748031496063},{"duration":0.10948899999999995,"midi":65,"time":15.875904999999998,"velocity":0.4015748031496063},{"duration":0.10948900000000172,"midi":65,"time":15.985393999999998,"velocity":0.4015748031496063},{"duration":0.10948899999999995,"midi":65,"time":16.094883,"velocity":0.4015748031496063},{"duration":0.10948899999999995,"midi":65,"time":16.204372,"velocity":0.4015748031496063},{"duration":0.10948899999999995,"midi":65,"time":16.313861,"velocity":0.4015748031496063},{"duration":0.10948899999999995,"midi":53,"time":16.42335,"velocity":0.4015748031496063},{"duration":0.10948899999999995,"midi":65,"time":16.532839,"velocity":0.4015748031496063},{"duration":0.10948899999999995,"midi":53,"time":16.751817,"velocity":0.4015748031496063},{"duration":0.10948899999999995,"midi":53,"time":16.861306,"velocity":0.4015748031496063},{"duration":0.10948899999999995,"midi":53,"time":16.970795,"velocity":0.4015748031496063},{"duration":0.10948899999999995,"midi":65,"time":17.080284,"velocity":0.4015748031496063},{"duration":0.10948899999999995,"midi":53,"time":17.189773,"velocity":0.4015748031496063},{"duration":0.10948899999999995,"midi":53,"time":17.299262,"velocity":0.4015748031496063},{"duration":0.10948899999999995,"midi":53,"time":17.408751,"velocity":0.4015748031496063},{"duration":0.2189779999999999,"midi":50,"time":17.51824,"velocity":0.4015748031496063},{"duration":0.10948899999999995,"midi":62,"time":17.627729,"velocity":0.4015748031496063},{"duration":0.10948899999999995,"midi":62,"time":17.737218,"velocity":0.4015748031496063},{"duration":0.10948899999999995,"midi":50,"time":17.846707,"velocity":0.4015748031496063},{"duration":0.10948899999999995,"midi":50,"time":17.956196,"velocity":0.4015748031496063},{"duration":0.10948899999999995,"midi":50,"time":18.065685,"velocity":0.4015748031496063},{"duration":0.10948899999999995,"midi":62,"time":18.175174,"velocity":0.4015748031496063},{"duration":0.10948899999999995,"midi":50,"time":18.503641,"velocity":0.4015748031496063},{"duration":0.10948899999999995,"midi":50,"time":18.613129999999998,"velocity":0.4015748031496063},{"duration":0.10948899999999995,"midi":50,"time":18.722618999999998,"velocity":0.4015748031496063},{"duration":0.10948899999999995,"midi":62,"time":18.832107999999998,"velocity":0.4015748031496063},{"duration":0.10948899999999995,"midi":50,"time":18.941596999999998,"velocity":0.4015748031496063},{"duration":0.10948899999999995,"midi":50,"time":19.051085999999998,"velocity":0.4015748031496063},{"duration":0.10948899999999995,"midi":50,"time":19.160574999999998,"velocity":0.4015748031496063},{"duration":0.10948899999999995,"midi":49,"time":19.270063999999998,"velocity":0.4015748031496063},{"duration":0.10948899999999995,"midi":49,"time":19.379552999999998,"velocity":0.4015748031496063},{"duration":0.10948899999999995,"midi":49,"time":19.489041999999998,"velocity":0.4015748031496063},{"duration":0.10948899999999995,"midi":49,"time":19.598530999999998,"velocity":0.4015748031496063},{"duration":0.10948899999999995,"midi":49,"time":19.708019999999998,"velocity":0.4015748031496063},{"duration":0.10948899999999995,"midi":61,"time":19.817508999999998,"velocity":0.4015748031496063},{"duration":0.10948899999999995,"midi":61,"time":19.926997999999998,"velocity":0.4015748031496063},{"duration":0.10948899999999995,"midi":61,"time":20.036486999999997,"velocity":0.4015748031496063},{"duration":0.10948899999999995,"midi":49,"time":20.145975999999997,"velocity":0.4015748031496063},{"duration":0.10948899999999995,"midi":61,"time":20.255464999999997,"velocity":0.4015748031496063},{"duration":0.10948899999999995,"midi":61,"time":20.364953999999997,"velocity":0.4015748031496063},{"duration":0.10948899999999995,"midi":49,"time":20.474442999999997,"velocity":0.4015748031496063},{"duration":0.10948899999999995,"midi":49,"time":20.583931999999997,"velocity":0.4015748031496063},{"duration":0.10948899999999995,"midi":61,"time":20.693420999999997,"velocity":0.4015748031496063},{"duration":0.10948899999999995,"midi":61,"time":20.802909999999997,"velocity":0.4015748031496063},{"duration":0.10948899999999995,"midi":61,"time":20.912398999999997,"velocity":0.4015748031496063},{"duration":0.2189779999999999,"midi":54,"time":21.021887999999997,"velocity":0.4015748031496063},{"duration":0.10948899999999995,"midi":66,"time":21.131376999999997,"velocity":0.4015748031496063},{"duration":0.10948899999999995,"midi":66,"time":21.240865999999997,"velocity":0.4015748031496063},{"duration":0.10948899999999995,"midi":66,"time":21.350354999999997,"velocity":0.4015748031496063},{"duration":0.10948899999999995,"midi":66,"time":21.459843999999997,"velocity":0.4015748031496063},{"duration":0.10948899999999995,"midi":66,"time":21.569332999999997,"velocity":0.4015748031496063},{"duration":0.10948899999999995,"midi":54,"time":21.678821999999997,"velocity":0.4015748031496063},{"duration":0.10948899999999995,"midi":66,"time":21.788310999999997,"velocity":0.4015748031496063},{"duration":0.10948899999999995,"midi":66,"time":21.897799999999997,"velocity":0.4015748031496063},{"duration":0.10948899999999995,"midi":54,"time":22.007288999999997,"velocity":0.4015748031496063},{"duration":0.10948899999999995,"midi":54,"time":22.116777999999996,"velocity":0.4015748031496063},{"duration":0.10948899999999995,"midi":54,"time":22.226266999999996,"velocity":0.4015748031496063},{"duration":0.10948899999999995,"midi":66,"time":22.335755999999996,"velocity":0.4015748031496063},{"duration":0.10948899999999995,"midi":54,"time":22.445244999999996,"velocity":0.4015748031496063},{"duration":0.10948899999999995,"midi":54,"time":22.554733999999996,"velocity":0.4015748031496063},{"duration":0.10948899999999995,"midi":54,"time":22.664222999999996,"velocity":0.4015748031496063},{"duration":0.2189779999999999,"midi":53,"time":22.773711999999996,"velocity":0.4015748031496063},{"duration":0.10948899999999995,"midi":65,"time":22.883200999999996,"velocity":0.4015748031496063},{"duration":0.10948899999999995,"midi":65,"time":22.992689999999996,"velocity":0.4015748031496063},{"duration":0.10948899999999995,"midi":65,"time":23.102178999999996,"velocity":0.4015748031496063},{"duration":0.10948899999999995,"midi":65,"time":23.211667999999996,"velocity":0.4015748031496063},{"duration":0.1094890000000035,"midi":65,"time":23.321156999999996,"velocity":0.4015748031496063},{"duration":0.10948899999999995,"midi":53,"time":23.430646,"velocity":0.4015748031496063},{"duration":0.10948899999999995,"midi":65,"time":23.540135,"velocity":0.4015748031496063},{"duration":0.10948899999999995,"midi":53,"time":23.759113,"velocity":0.4015748031496063},{"duration":0.10948899999999995,"midi":53,"time":23.868602,"velocity":0.4015748031496063},{"duration":0.10948899999999995,"midi":53,"time":23.978091,"velocity":0.4015748031496063},{"duration":0.10948899999999995,"midi":65,"time":24.08758,"velocity":0.4015748031496063},{"duration":0.10948899999999995,"midi":53,"time":24.197069,"velocity":0.4015748031496063},{"duration":0.10948899999999995,"midi":53,"time":24.306558,"velocity":0.4015748031496063},{"duration":0.10948899999999995,"midi":53,"time":24.416047,"velocity":0.4015748031496063},{"duration":0.2189779999999999,"midi":50,"time":24.525536,"velocity":0.4015748031496063},{"duration":0.10948899999999995,"midi":62,"time":24.635025,"velocity":0.4015748031496063},{"duration":0.10948899999999995,"midi":62,"time":24.744514,"velocity":0.4015748031496063},{"duration":0.10948899999999995,"midi":50,"time":24.854003,"velocity":0.4015748031496063},{"duration":0.10948899999999995,"midi":50,"time":24.963492,"velocity":0.4015748031496063},{"duration":0.10948899999999995,"midi":50,"time":25.072981,"velocity":0.4015748031496063},{"duration":0.10948899999999995,"midi":62,"time":25.18247,"velocity":0.4015748031496063},{"duration":0.10948899999999995,"midi":50,"time":25.510937,"velocity":0.4015748031496063},{"duration":0.10948899999999995,"midi":50,"time":25.620426,"velocity":0.4015748031496063},{"duration":0.10948899999999995,"midi":50,"time":25.729915,"velocity":0.4015748031496063},{"duration":0.10948899999999995,"midi":62,"time":25.839404,"velocity":0.4015748031496063},{"duration":0.10948899999999995,"midi":50,"time":25.948892999999998,"velocity":0.4015748031496063},{"duration":0.10948899999999995,"midi":50,"time":26.058381999999998,"velocity":0.4015748031496063},{"duration":0.10948899999999995,"midi":50,"time":26.167870999999998,"velocity":0.4015748031496063},{"duration":0.10948899999999995,"midi":49,"time":26.277359999999998,"velocity":0.4015748031496063},{"duration":0.10948899999999995,"midi":49,"time":26.386848999999998,"velocity":0.4015748031496063},{"duration":0.10948899999999995,"midi":49,"time":26.496337999999998,"velocity":0.4015748031496063},{"duration":0.10948899999999995,"midi":49,"time":26.605826999999998,"velocity":0.4015748031496063},{"duration":0.10948899999999995,"midi":49,"time":26.715315999999998,"velocity":0.4015748031496063},{"duration":0.10948899999999995,"midi":61,"time":26.824804999999998,"velocity":0.4015748031496063},{"duration":0.10948899999999995,"midi":61,"time":26.934293999999998,"velocity":0.4015748031496063},{"duration":0.10948899999999995,"midi":61,"time":27.043782999999998,"velocity":0.4015748031496063},{"duration":0.10948899999999995,"midi":49,"time":27.153271999999998,"velocity":0.4015748031496063},{"duration":0.10948899999999995,"midi":61,"time":27.262760999999998,"velocity":0.4015748031496063},{"duration":0.10948899999999995,"midi":61,"time":27.372249999999998,"velocity":0.4015748031496063},{"duration":0.10948899999999995,"midi":49,"time":27.481738999999997,"velocity":0.4015748031496063},{"duration":0.10948899999999995,"midi":49,"time":27.591227999999997,"velocity":0.4015748031496063},{"duration":0.10948899999999995,"midi":61,"time":27.700716999999997,"velocity":0.4015748031496063},{"duration":0.10948899999999995,"midi":61,"time":27.810205999999997,"velocity":0.4015748031496063},{"duration":0.10948899999999995,"midi":61,"time":27.919694999999997,"velocity":0.4015748031496063},{"duration":0.4379559999999998,"midi":69,"time":28.029183999999997,"velocity":0.4015748031496063},{"duration":0.4379559999999998,"midi":68,"time":28.686117999999997,"velocity":0.4015748031496063},{"duration":0.4379559999999998,"midi":74,"time":29.343051999999997,"velocity":0.4015748031496063},{"duration":0.4379559999999998,"midi":73,"time":29.999985999999996,"velocity":0.4015748031496063},{"duration":0.4379559999999998,"midi":69,"time":30.656919999999996,"velocity":0.4015748031496063},{"duration":0.4379559999999998,"midi":68,"time":31.094875999999996,"velocity":0.4015748031496063},{"duration":0.4379559999999998,"midi":69,"time":31.532831999999996,"velocity":0.4015748031496063},{"duration":0.4379559999999998,"midi":68,"time":32.189766,"velocity":0.4015748031496063},{"duration":0.4379559999999998,"midi":74,"time":32.8467,"velocity":0.4015748031496063},{"duration":0.4379559999999998,"midi":73,"time":33.503634,"velocity":0.4015748031496063},{"duration":0.1094889999999964,"midi":73,"time":34.160568,"velocity":0.4015748031496063},{"duration":0.1094890000000035,"midi":71,"time":34.270056999999994,"velocity":0.4015748031496063},{"duration":0.2189779999999999,"midi":69,"time":34.379546,"velocity":0.4015748031496063},{"duration":0.2189779999999999,"midi":68,"time":34.598524,"velocity":0.4015748031496063},{"duration":0.2189779999999999,"midi":69,"time":34.817502,"velocity":0.4015748031496063},{"duration":0.4379559999999998,"midi":69,"time":35.03648,"velocity":0.4015748031496063},{"duration":0.4379559999999998,"midi":68,"time":35.693414,"velocity":0.4015748031496063},{"duration":0.4379559999999998,"midi":74,"time":36.350348,"velocity":0.4015748031496063},{"duration":0.4379559999999998,"midi":73,"time":37.007282,"velocity":0.4015748031496063},{"duration":0.4379559999999998,"midi":69,"time":37.664215999999996,"velocity":0.4015748031496063},{"duration":0.4379559999999998,"midi":68,"time":38.102171999999996,"velocity":0.4015748031496063},{"duration":0.4379559999999998,"midi":69,"time":38.540127999999996,"velocity":0.4015748031496063},{"duration":0.4379559999999998,"midi":68,"time":39.197061999999995,"velocity":0.4015748031496063},{"duration":0.4379559999999998,"midi":74,"time":39.853995999999995,"velocity":0.4015748031496063},{"duration":0.4379559999999998,"midi":73,"time":40.510929999999995,"velocity":0.4015748031496063},{"duration":0.1094890000000035,"midi":73,"time":41.167863999999994,"velocity":0.4015748031496063},{"duration":0.1094889999999964,"midi":71,"time":41.277353,"velocity":0.4015748031496063},{"duration":0.2189779999999999,"midi":69,"time":41.386841999999994,"velocity":0.4015748031496063},{"duration":0.2189779999999999,"midi":68,"time":41.605819999999994,"velocity":0.4015748031496063},{"duration":0.1094890000000035,"midi":66,"time":42.043775999999994,"velocity":0.4015748031496063},{"duration":0.1094890000000035,"midi":54,"time":42.043775999999994,"velocity":0.4015748031496063},{"duration":0.1094889999999964,"midi":54,"time":42.153265,"velocity":0.4015748031496063},{"duration":0.1094889999999964,"midi":66,"time":42.153265,"velocity":0.4015748031496063},{"duration":0.1094890000000035,"midi":66,"time":42.262753999999994,"velocity":0.4015748031496063},{"duration":0.1094890000000035,"midi":54,"time":42.262753999999994,"velocity":0.4015748031496063},{"duration":0.1094889999999964,"midi":66,"time":42.372243,"velocity":0.4015748031496063},{"duration":0.1094889999999964,"midi":54,"time":42.372243,"velocity":0.4015748031496063},{"duration":0.3284670000000034,"midi":66,"time":42.481731999999994,"velocity":0.4015748031496063},{"duration":0.3284670000000034,"midi":54,"time":42.481731999999994,"velocity":0.4015748031496063},{"duration":0.1094889999999964,"midi":66,"time":42.810199,"velocity":0.4015748031496063},{"duration":0.1094889999999964,"midi":54,"time":42.810199,"velocity":0.4015748031496063},{"duration":0.1094890000000035,"midi":66,"time":42.919687999999994,"velocity":0.4015748031496063},{"duration":0.1094890000000035,"midi":54,"time":42.919687999999994,"velocity":0.4015748031496063},{"duration":0.1094889999999964,"midi":66,"time":43.029177,"velocity":0.4015748031496063},{"duration":0.1094889999999964,"midi":54,"time":43.029177,"velocity":0.4015748031496063},{"duration":0.1094890000000035,"midi":54,"time":43.13866599999999,"velocity":0.4015748031496063},{"duration":0.1094890000000035,"midi":66,"time":43.13866599999999,"velocity":0.4015748031496063},{"duration":0.1094889999999964,"midi":54,"time":43.248155,"velocity":0.4015748031496063},{"duration":0.1094889999999964,"midi":66,"time":43.248155,"velocity":0.4015748031496063},{"duration":0.3284670000000034,"midi":54,"time":43.35764399999999,"velocity":0.4015748031496063},{"duration":0.3284670000000034,"midi":66,"time":43.35764399999999,"velocity":0.4015748031496063},{"duration":0.1094889999999964,"midi":66,"time":43.686111,"velocity":0.4015748031496063},{"duration":0.1094889999999964,"midi":54,"time":43.686111,"velocity":0.4015748031496063},{"duration":0.1094890000000035,"midi":53,"time":43.79559999999999,"velocity":0.4015748031496063},{"duration":0.1094890000000035,"midi":65,"time":43.79559999999999,"velocity":0.4015748031496063},{"duration":0.1094889999999964,"midi":65,"time":43.905089,"velocity":0.4015748031496063},{"duration":0.1094889999999964,"midi":53,"time":43.905089,"velocity":0.4015748031496063},{"duration":0.1094890000000035,"midi":53,"time":44.01457799999999,"velocity":0.4015748031496063},{"duration":0.1094890000000035,"midi":65,"time":44.01457799999999,"velocity":0.4015748031496063},{"duration":0.1094889999999964,"midi":65,"time":44.124067,"velocity":0.4015748031496063},{"duration":0.1094889999999964,"midi":53,"time":44.124067,"velocity":0.4015748031496063},{"duration":0.3284670000000034,"midi":53,"time":44.23355599999999,"velocity":0.4015748031496063},{"duration":0.3284670000000034,"midi":65,"time":44.23355599999999,"velocity":0.4015748031496063},{"duration":0.1094889999999964,"midi":53,"time":44.562022999999996,"velocity":0.4015748031496063},{"duration":0.1094889999999964,"midi":65,"time":44.562022999999996,"velocity":0.4015748031496063},{"duration":0.1094890000000035,"midi":53,"time":44.67151199999999,"velocity":0.4015748031496063},{"duration":0.1094890000000035,"midi":65,"time":44.67151199999999,"velocity":0.4015748031496063},{"duration":0.1094889999999964,"midi":65,"time":44.781000999999996,"velocity":0.4015748031496063},{"duration":0.1094889999999964,"midi":53,"time":44.781000999999996,"velocity":0.4015748031496063},{"duration":0.1094890000000035,"midi":65,"time":44.89048999999999,"velocity":0.4015748031496063},{"duration":0.1094890000000035,"midi":53,"time":44.89048999999999,"velocity":0.4015748031496063},{"duration":0.1094889999999964,"midi":65,"time":44.999978999999996,"velocity":0.4015748031496063},{"duration":0.1094889999999964,"midi":53,"time":44.999978999999996,"velocity":0.4015748031496063},{"duration":0.3284670000000034,"midi":65,"time":45.10946799999999,"velocity":0.4015748031496063},{"duration":0.3284670000000034,"midi":53,"time":45.10946799999999,"velocity":0.4015748031496063},{"duration":0.1094889999999964,"midi":53,"time":45.437934999999996,"velocity":0.4015748031496063},{"duration":0.1094889999999964,"midi":65,"time":45.437934999999996,"velocity":0.4015748031496063},{"duration":0.1094890000000035,"midi":62,"time":45.54742399999999,"velocity":0.4015748031496063},{"duration":0.1094890000000035,"midi":50,"time":45.54742399999999,"velocity":0.4015748031496063},{"duration":0.1094889999999964,"midi":50,"time":45.656912999999996,"velocity":0.4015748031496063},{"duration":0.1094889999999964,"midi":62,"time":45.656912999999996,"velocity":0.4015748031496063},{"duration":0.1094890000000035,"midi":62,"time":45.76640199999999,"velocity":0.4015748031496063},{"duration":0.1094890000000035,"midi":50,"time":45.76640199999999,"velocity":0.4015748031496063},{"duration":0.1094889999999964,"midi":50,"time":45.875890999999996,"velocity":0.4015748031496063},{"duration":0.1094889999999964,"midi":62,"time":45.875890999999996,"velocity":0.4015748031496063},{"duration":0.3284670000000034,"midi":62,"time":45.98537999999999,"velocity":0.4015748031496063},{"duration":0.3284670000000034,"midi":50,"time":45.98537999999999,"velocity":0.4015748031496063},{"duration":0.1094889999999964,"midi":62,"time":46.313846999999996,"velocity":0.4015748031496063},{"duration":0.1094889999999964,"midi":50,"time":46.313846999999996,"velocity":0.4015748031496063},{"duration":0.1094890000000035,"midi":62,"time":46.42333599999999,"velocity":0.4015748031496063},{"duration":0.1094890000000035,"midi":50,"time":46.42333599999999,"velocity":0.4015748031496063},{"duration":0.1094889999999964,"midi":62,"time":46.532824999999995,"velocity":0.4015748031496063},{"duration":0.1094889999999964,"midi":50,"time":46.532824999999995,"velocity":0.4015748031496063},{"duration":0.1094890000000035,"midi":50,"time":46.64231399999999,"velocity":0.4015748031496063},{"duration":0.1094890000000035,"midi":62,"time":46.64231399999999,"velocity":0.4015748031496063},{"duration":0.1094890000000035,"midi":62,"time":46.751802999999995,"velocity":0.4015748031496063},{"duration":0.1094890000000035,"midi":50,"time":46.751802999999995,"velocity":0.4015748031496063},{"duration":0.3284669999999963,"midi":50,"time":46.861292,"velocity":0.4015748031496063},{"duration":0.3284669999999963,"midi":62,"time":46.861292,"velocity":0.4015748031496063},{"duration":0.1094890000000035,"midi":62,"time":47.189758999999995,"velocity":0.4015748031496063},{"duration":0.1094890000000035,"midi":50,"time":47.189758999999995,"velocity":0.4015748031496063},{"duration":0.1094889999999964,"midi":61,"time":47.299248,"velocity":0.4015748031496063},{"duration":0.1094889999999964,"midi":49,"time":47.299248,"velocity":0.4015748031496063},{"duration":0.1094890000000035,"midi":49,"time":47.408736999999995,"velocity":0.4015748031496063},{"duration":0.1094890000000035,"midi":61,"time":47.408736999999995,"velocity":0.4015748031496063},{"duration":0.1094889999999964,"midi":61,"time":47.518226,"velocity":0.4015748031496063},{"duration":0.1094889999999964,"midi":49,"time":47.518226,"velocity":0.4015748031496063},{"duration":0.1094890000000035,"midi":61,"time":47.627714999999995,"velocity":0.4015748031496063},{"duration":0.1094890000000035,"midi":49,"time":47.627714999999995,"velocity":0.4015748031496063},{"duration":0.3284669999999963,"midi":49,"time":47.737204,"velocity":0.4015748031496063},{"duration":0.3284669999999963,"midi":61,"time":47.737204,"velocity":0.4015748031496063},{"duration":0.1094890000000035,"midi":49,"time":48.065670999999995,"velocity":0.4015748031496063},{"duration":0.1094890000000035,"midi":61,"time":48.065670999999995,"velocity":0.4015748031496063},{"duration":0.1094889999999964,"midi":49,"time":48.17516,"velocity":0.4015748031496063},{"duration":0.1094889999999964,"midi":61,"time":48.17516,"velocity":0.4015748031496063},{"duration":0.1094890000000035,"midi":49,"time":48.284648999999995,"velocity":0.4015748031496063},{"duration":0.1094890000000035,"midi":61,"time":48.284648999999995,"velocity":0.4015748031496063},{"duration":0.1094889999999964,"midi":61,"time":48.394138,"velocity":0.4015748031496063},{"duration":0.1094889999999964,"midi":49,"time":48.394138,"velocity":0.4015748031496063},{"duration":0.1094890000000035,"midi":61,"time":48.503626999999994,"velocity":0.4015748031496063},{"duration":0.1094890000000035,"midi":49,"time":48.503626999999994,"velocity":0.4015748031496063},{"duration":0.3284669999999963,"midi":49,"time":48.613116,"velocity":0.4015748031496063},{"duration":0.3284669999999963,"midi":61,"time":48.613116,"velocity":0.4015748031496063},{"duration":0.1094890000000035,"midi":49,"time":48.941582999999994,"velocity":0.4015748031496063},{"duration":0.1094890000000035,"midi":61,"time":48.941582999999994,"velocity":0.4015748031496063},{"duration":0.1094889999999964,"midi":66,"time":49.051072,"velocity":0.4015748031496063},{"duration":0.1094889999999964,"midi":54,"time":49.051072,"velocity":0.4015748031496063},{"duration":0.1094890000000035,"midi":66,"time":49.160560999999994,"velocity":0.4015748031496063},{"duration":0.1094890000000035,"midi":54,"time":49.160560999999994,"velocity":0.4015748031496063},{"duration":0.1094889999999964,"midi":54,"time":49.27005,"velocity":0.4015748031496063},{"duration":0.1094889999999964,"midi":66,"time":49.27005,"velocity":0.4015748031496063},{"duration":0.1094890000000035,"midi":54,"time":49.379538999999994,"velocity":0.4015748031496063},{"duration":0.1094890000000035,"midi":66,"time":49.379538999999994,"velocity":0.4015748031496063},{"duration":0.3284669999999963,"midi":54,"time":49.489028,"velocity":0.4015748031496063},{"duration":0.3284669999999963,"midi":66,"time":49.489028,"velocity":0.4015748031496063},{"duration":0.1094890000000035,"midi":54,"time":49.817494999999994,"velocity":0.4015748031496063},{"duration":0.1094890000000035,"midi":66,"time":49.817494999999994,"velocity":0.4015748031496063},{"duration":0.1094889999999964,"midi":66,"time":49.926984,"velocity":0.4015748031496063},{"duration":0.1094889999999964,"midi":54,"time":49.926984,"velocity":0.4015748031496063},{"duration":0.1094890000000035,"midi":66,"time":50.036472999999994,"velocity":0.4015748031496063},{"duration":0.1094890000000035,"midi":54,"time":50.036472999999994,"velocity":0.4015748031496063},{"duration":0.1094889999999964,"midi":54,"time":50.145962,"velocity":0.4015748031496063},{"duration":0.1094889999999964,"midi":66,"time":50.145962,"velocity":0.4015748031496063},{"duration":0.1094890000000035,"midi":54,"time":50.255450999999994,"velocity":0.4015748031496063},{"duration":0.1094890000000035,"midi":66,"time":50.255450999999994,"velocity":0.4015748031496063},{"duration":0.3284669999999963,"midi":66,"time":50.36494,"velocity":0.4015748031496063},{"duration":0.3284669999999963,"midi":54,"time":50.36494,"velocity":0.4015748031496063},{"duration":0.1094890000000035,"midi":66,"time":50.69340699999999,"velocity":0.4015748031496063},{"duration":0.1094890000000035,"midi":54,"time":50.69340699999999,"velocity":0.4015748031496063},{"duration":0.1094889999999964,"midi":66,"time":50.802896,"velocity":0.4015748031496063},{"duration":0.1094889999999964,"midi":54,"time":50.802896,"velocity":0.4015748031496063},{"duration":0.1094890000000035,"midi":66,"time":50.91238499999999,"velocity":0.4015748031496063},{"duration":0.1094890000000035,"midi":54,"time":50.91238499999999,"velocity":0.4015748031496063},{"duration":0.1094889999999964,"midi":54,"time":51.021874,"velocity":0.4015748031496063},{"duration":0.1094889999999964,"midi":66,"time":51.021874,"velocity":0.4015748031496063},{"duration":0.1094890000000035,"midi":66,"time":51.13136299999999,"velocity":0.4015748031496063},{"duration":0.1094890000000035,"midi":54,"time":51.13136299999999,"velocity":0.4015748031496063},{"duration":0.3284669999999963,"midi":54,"time":51.240852,"velocity":0.4015748031496063},{"duration":0.3284669999999963,"midi":66,"time":51.240852,"velocity":0.4015748031496063},{"duration":0.1094890000000035,"midi":54,"time":51.56931899999999,"velocity":0.4015748031496063},{"duration":0.1094890000000035,"midi":66,"time":51.56931899999999,"velocity":0.4015748031496063},{"duration":0.1094889999999964,"midi":66,"time":51.678808,"velocity":0.4015748031496063},{"duration":0.1094889999999964,"midi":54,"time":51.678808,"velocity":0.4015748031496063},{"duration":0.1094890000000035,"midi":66,"time":51.78829699999999,"velocity":0.4015748031496063},{"duration":0.1094890000000035,"midi":54,"time":51.78829699999999,"velocity":0.4015748031496063},{"duration":0.1094889999999964,"midi":66,"time":51.897785999999996,"velocity":0.4015748031496063},{"duration":0.1094889999999964,"midi":54,"time":51.897785999999996,"velocity":0.4015748031496063},{"duration":0.1094890000000035,"midi":66,"time":52.00727499999999,"velocity":0.4015748031496063},{"duration":0.1094890000000035,"midi":54,"time":52.00727499999999,"velocity":0.4015748031496063},{"duration":0.3284669999999963,"midi":54,"time":52.116763999999996,"velocity":0.4015748031496063},{"duration":0.3284669999999963,"midi":66,"time":52.116763999999996,"velocity":0.4015748031496063},{"duration":0.1094890000000035,"midi":54,"time":52.44523099999999,"velocity":0.4015748031496063},{"duration":0.1094890000000035,"midi":66,"time":52.44523099999999,"velocity":0.4015748031496063},{"duration":0.1094889999999964,"midi":54,"time":52.554719999999996,"velocity":0.4015748031496063},{"duration":0.1094889999999964,"midi":66,"time":52.554719999999996,"velocity":0.4015748031496063},{"duration":0.1094890000000035,"midi":54,"time":52.66420899999999,"velocity":0.4015748031496063},{"duration":0.1094890000000035,"midi":66,"time":52.66420899999999,"velocity":0.4015748031496063},{"duration":0.1094889999999964,"midi":66,"time":52.773697999999996,"velocity":0.4015748031496063},{"duration":0.1094889999999964,"midi":54,"time":52.773697999999996,"velocity":0.4015748031496063},{"duration":0.1094890000000035,"midi":66,"time":52.88318699999999,"velocity":0.4015748031496063},{"duration":0.1094890000000035,"midi":54,"time":52.88318699999999,"velocity":0.4015748031496063},{"duration":0.3284669999999963,"midi":66,"time":52.992675999999996,"velocity":0.4015748031496063},{"duration":0.3284669999999963,"midi":54,"time":52.992675999999996,"velocity":0.4015748031496063},{"duration":0.1094890000000035,"midi":54,"time":53.32114299999999,"velocity":0.4015748031496063},{"duration":0.1094890000000035,"midi":66,"time":53.32114299999999,"velocity":0.4015748031496063},{"duration":0.1094889999999964,"midi":66,"time":53.430631999999996,"velocity":0.4015748031496063},{"duration":0.1094889999999964,"midi":54,"time":53.430631999999996,"velocity":0.4015748031496063},{"duration":0.1094890000000035,"midi":66,"time":53.54012099999999,"velocity":0.4015748031496063},{"duration":0.1094890000000035,"midi":54,"time":53.54012099999999,"velocity":0.4015748031496063},{"duration":0.1094889999999964,"midi":66,"time":53.649609999999996,"velocity":0.4015748031496063},{"duration":0.1094889999999964,"midi":54,"time":53.649609999999996,"velocity":0.4015748031496063},{"duration":0.1094890000000035,"midi":54,"time":53.75909899999999,"velocity":0.4015748031496063},{"duration":0.1094890000000035,"midi":66,"time":53.75909899999999,"velocity":0.4015748031496063},{"duration":0.3284669999999963,"midi":54,"time":53.868587999999995,"velocity":0.4015748031496063},{"duration":0.3284669999999963,"midi":66,"time":53.868587999999995,"velocity":0.4015748031496063},{"duration":0.1094890000000035,"midi":66,"time":54.19705499999999,"velocity":0.4015748031496063},{"duration":0.1094890000000035,"midi":54,"time":54.19705499999999,"velocity":0.4015748031496063},{"duration":1.4233570000000029,"midi":57,"time":56.058367999999994,"velocity":0.4015748031496063},{"duration":0.2189779999999999,"midi":54,"time":56.058367999999994,"velocity":0.4015748031496063},{"duration":0.2189779999999999,"midi":42,"time":56.058367999999994,"velocity":0.4015748031496063},{"duration":0.6569339999999997,"midi":61,"time":56.058367999999994,"velocity":0.4015748031496063},{"duration":0.2189779999999999,"midi":30,"time":56.058367999999994,"velocity":0.4015748031496063},{"duration":0.4379559999999998,"midi":54,"time":56.058367999999994,"velocity":0.4015748031496063},{"duration":0.2189779999999999,"midi":42,"time":56.167857,"velocity":0.4015748031496063},{"duration":0.2189779999999999,"midi":30,"time":56.167857,"velocity":0.4015748031496063},{"duration":0.8759119999999996,"midi":54,"time":56.277345999999994,"velocity":0.4015748031496063},{"duration":0.2189779999999999,"midi":42,"time":56.277345999999994,"velocity":0.4015748031496063},{"duration":0.2189779999999999,"midi":30,"time":56.277345999999994,"velocity":0.4015748031496063},{"duration":0.2189779999999999,"midi":30,"time":56.386835,"velocity":0.4015748031496063},{"duration":0.2189779999999999,"midi":42,"time":56.386835,"velocity":0.4015748031496063},{"duration":0.2189779999999999,"midi":42,"time":56.496323999999994,"velocity":0.4015748031496063},{"duration":0.2189779999999999,"midi":30,"time":56.496323999999994,"velocity":0.4015748031496063},{"duration":0.9854010000000031,"midi":61,"time":56.496323999999994,"velocity":0.4015748031496063},{"duration":0.2189779999999999,"midi":30,"time":56.605813,"velocity":0.4015748031496063},{"duration":0.2189779999999999,"midi":42,"time":56.605813,"velocity":0.4015748031496063},{"duration":0.2189779999999999,"midi":42,"time":56.715301999999994,"velocity":0.4015748031496063},{"duration":0.2189779999999999,"midi":30,"time":56.715301999999994,"velocity":0.4015748031496063},{"duration":0.2189779999999999,"midi":42,"time":56.824791,"velocity":0.4015748031496063},{"duration":0.2189779999999999,"midi":30,"time":56.824791,"velocity":0.4015748031496063},{"duration":0.2189779999999999,"midi":42,"time":56.934279999999994,"velocity":0.4015748031496063},{"duration":0.3284670000000034,"midi":54,"time":56.934279999999994,"velocity":0.4015748031496063},{"duration":0.2189779999999999,"midi":30,"time":56.934279999999994,"velocity":0.4015748031496063},{"duration":0.3284669999999963,"midi":54,"time":57.043769,"velocity":0.4015748031496063},{"duration":0.2189779999999999,"midi":30,"time":57.043769,"velocity":0.4015748031496063},{"duration":0.2189779999999999,"midi":42,"time":57.043769,"velocity":0.4015748031496063},{"duration":0.2189779999999999,"midi":42,"time":57.153257999999994,"velocity":0.4015748031496063},{"duration":0.2189779999999999,"midi":30,"time":57.153257999999994,"velocity":0.4015748031496063},{"duration":0.3284670000000034,"midi":54,"time":57.153257999999994,"velocity":0.4015748031496063},{"duration":0.2189779999999999,"midi":54,"time":57.262747,"velocity":0.4015748031496063},{"duration":0.2189779999999999,"midi":42,"time":57.262747,"velocity":0.4015748031496063},{"duration":0.2189779999999999,"midi":30,"time":57.262747,"velocity":0.4015748031496063},{"duration":0.2189779999999999,"midi":30,"time":57.372235999999994,"velocity":0.4015748031496063},{"duration":0.4379559999999998,"midi":54,"time":57.372235999999994,"velocity":0.4015748031496063},{"duration":0.4379559999999998,"midi":57,"time":57.372235999999994,"velocity":0.4015748031496063},{"duration":0.2189779999999999,"midi":61,"time":57.372235999999994,"velocity":0.4015748031496063},{"duration":0.4379559999999998,"midi":61,"time":57.372235999999994,"velocity":0.4015748031496063},{"duration":0.2189779999999999,"midi":42,"time":57.372235999999994,"velocity":0.4015748031496063},{"duration":0.2189779999999999,"midi":42,"time":57.481725,"velocity":0.4015748031496063},{"duration":0.2189779999999999,"midi":30,"time":57.481725,"velocity":0.4015748031496063},{"duration":0.2189779999999999,"midi":30,"time":57.591213999999994,"velocity":0.4015748031496063},{"duration":0.2189779999999999,"midi":42,"time":57.591213999999994,"velocity":0.4015748031496063},{"duration":0.2189779999999999,"midi":30,"time":57.700703,"velocity":0.4015748031496063},{"duration":0.2189779999999999,"midi":42,"time":57.700703,"velocity":0.4015748031496063},{"duration":0.2189779999999999,"midi":54,"time":57.810191999999994,"velocity":0.4015748031496063},{"duration":1.4233570000000029,"midi":56,"time":57.810191999999994,"velocity":0.4015748031496063},{"duration":1.4233570000000029,"midi":53,"time":57.810191999999994,"velocity":0.4015748031496063},{"duration":0.2189779999999999,"midi":25,"time":57.810191999999994,"velocity":0.4015748031496063},{"duration":1.4233570000000029,"midi":49,"time":57.810191999999994,"velocity":0.4015748031496063},{"duration":0.2189779999999999,"midi":37,"time":57.810191999999994,"velocity":0.4015748031496063},{"duration":0.2189779999999999,"midi":25,"time":57.919681,"velocity":0.4015748031496063},{"duration":0.2189779999999999,"midi":37,"time":57.919681,"velocity":0.4015748031496063},{"duration":0.2189779999999999,"midi":54,"time":58.02916999999999,"velocity":0.4015748031496063},{"duration":0.2189779999999999,"midi":37,"time":58.02916999999999,"velocity":0.4015748031496063},{"duration":0.2189779999999999,"midi":25,"time":58.02916999999999,"velocity":0.4015748031496063},{"duration":0.2189779999999999,"midi":37,"time":58.138659,"velocity":0.4015748031496063},{"duration":0.2189779999999999,"midi":25,"time":58.138659,"velocity":0.4015748031496063},{"duration":0.2189779999999999,"midi":25,"time":58.24814799999999,"velocity":0.4015748031496063},{"duration":0.2189779999999999,"midi":37,"time":58.24814799999999,"velocity":0.4015748031496063},{"duration":0.2189779999999999,"midi":61,"time":58.24814799999999,"velocity":0.4015748031496063},{"duration":0.2189779999999999,"midi":25,"time":58.357637,"velocity":0.4015748031496063},{"duration":0.2189779999999999,"midi":37,"time":58.357637,"velocity":0.4015748031496063},{"duration":0.2189779999999999,"midi":37,"time":58.46712599999999,"velocity":0.4015748031496063},{"duration":0.2189779999999999,"midi":25,"time":58.46712599999999,"velocity":0.4015748031496063},{"duration":0.2189779999999999,"midi":25,"time":58.576615,"velocity":0.4015748031496063},{"duration":0.2189779999999999,"midi":37,"time":58.576615,"velocity":0.4015748031496063},{"duration":0.2189779999999999,"midi":54,"time":58.68610399999999,"velocity":0.4015748031496063},{"duration":0.2189779999999999,"midi":37,"time":58.68610399999999,"velocity":0.4015748031496063},{"duration":0.2189779999999999,"midi":25,"time":58.68610399999999,"velocity":0.4015748031496063},{"duration":0.2189779999999999,"midi":54,"time":58.795593,"velocity":0.4015748031496063},{"duration":0.2189779999999999,"midi":37,"time":58.795593,"velocity":0.4015748031496063},{"duration":0.2189779999999999,"midi":25,"time":58.795593,"velocity":0.4015748031496063},{"duration":0.2189779999999999,"midi":25,"time":58.90508199999999,"velocity":0.4015748031496063},{"duration":0.2189779999999999,"midi":37,"time":58.90508199999999,"velocity":0.4015748031496063},{"duration":0.2189779999999999,"midi":54,"time":58.90508199999999,"velocity":0.4015748031496063},{"duration":0.2189779999999999,"midi":54,"time":59.014571,"velocity":0.4015748031496063},{"duration":0.2189779999999999,"midi":37,"time":59.014571,"velocity":0.4015748031496063},{"duration":0.2189779999999999,"midi":25,"time":59.014571,"velocity":0.4015748031496063},{"duration":0.4379559999999998,"midi":56,"time":59.12405999999999,"velocity":0.4015748031496063},{"duration":0.2189779999999999,"midi":61,"time":59.12405999999999,"velocity":0.4015748031496063},{"duration":0.2189779999999999,"midi":25,"time":59.12405999999999,"velocity":0.4015748031496063},{"duration":0.4379559999999998,"midi":49,"time":59.12405999999999,"velocity":0.4015748031496063},{"duration":0.4379559999999998,"midi":53,"time":59.12405999999999,"velocity":0.4015748031496063},{"duration":0.2189779999999999,"midi":37,"time":59.12405999999999,"velocity":0.4015748031496063},{"duration":0.2189779999999999,"midi":25,"time":59.233549,"velocity":0.4015748031496063},{"duration":0.2189779999999999,"midi":37,"time":59.233549,"velocity":0.4015748031496063},{"duration":0.2189779999999999,"midi":37,"time":59.34303799999999,"velocity":0.4015748031496063},{"duration":0.2189779999999999,"midi":25,"time":59.34303799999999,"velocity":0.4015748031496063},{"duration":1.4233570000000029,"midi":50,"time":59.56201599999999,"velocity":0.4015748031496063},{"duration":0.2189779999999999,"midi":26,"time":59.56201599999999,"velocity":0.4015748031496063},{"duration":0.2189779999999999,"midi":38,"time":59.56201599999999,"velocity":0.4015748031496063},{"duration":0.2189779999999999,"midi":54,"time":59.56201599999999,"velocity":0.4015748031496063},{"duration":1.4233570000000029,"midi":57,"time":59.56201599999999,"velocity":0.4015748031496063},{"duration":0.4379559999999998,"midi":54,"time":59.56201599999999,"velocity":0.4015748031496063},{"duration":0.2189779999999999,"midi":38,"time":59.671504999999996,"velocity":0.4015748031496063},{"duration":0.2189779999999999,"midi":26,"time":59.671504999999996,"velocity":0.4015748031496063},{"duration":0.8759119999999996,"midi":54,"time":59.78099399999999,"velocity":0.4015748031496063},{"duration":0.2189779999999999,"midi":38,"time":59.78099399999999,"velocity":0.4015748031496063},{"duration":0.2189779999999999,"midi":26,"time":59.78099399999999,"velocity":0.4015748031496063},{"duration":0.2189779999999999,"midi":38,"time":59.890482999999996,"velocity":0.4015748031496063},{"duration":0.2189779999999999,"midi":26,"time":59.890482999999996,"velocity":0.4015748031496063},{"duration":0.2189779999999999,"midi":38,"time":59.99997199999999,"velocity":0.4015748031496063},{"duration":0.2189779999999999,"midi":61,"time":59.99997199999999,"velocity":0.4015748031496063},{"duration":0.2189779999999999,"midi":26,"time":59.99997199999999,"velocity":0.4015748031496063},{"duration":0.2189779999999999,"midi":26,"time":60.109460999999996,"velocity":0.4015748031496063},{"duration":0.2189779999999999,"midi":38,"time":60.109460999999996,"velocity":0.4015748031496063},{"duration":0.2189779999999999,"midi":38,"time":60.21894999999999,"velocity":0.4015748031496063},{"duration":0.2189779999999999,"midi":26,"time":60.21894999999999,"velocity":0.4015748031496063},{"duration":0.2189779999999999,"midi":26,"time":60.328438999999996,"velocity":0.4015748031496063},{"duration":0.2189779999999999,"midi":38,"time":60.328438999999996,"velocity":0.4015748031496063},{"duration":0.2189779999999999,"midi":38,"time":60.43792799999999,"velocity":0.4015748031496063},{"duration":0.3284670000000034,"midi":54,"time":60.43792799999999,"velocity":0.4015748031496063},{"duration":0.2189779999999999,"midi":26,"time":60.43792799999999,"velocity":0.4015748031496063},{"duration":0.3284669999999963,"midi":54,"time":60.547416999999996,"velocity":0.4015748031496063},{"duration":0.2189779999999999,"midi":38,"time":60.547416999999996,"velocity":0.4015748031496063},{"duration":0.2189779999999999,"midi":26,"time":60.547416999999996,"velocity":0.4015748031496063},{"duration":0.2189779999999999,"midi":38,"time":60.65690599999999,"velocity":0.4015748031496063},{"duration":0.3284670000000034,"midi":54,"time":60.65690599999999,"velocity":0.4015748031496063},{"duration":0.2189779999999999,"midi":26,"time":60.65690599999999,"velocity":0.4015748031496063},{"duration":0.2189779999999999,"midi":26,"time":60.766394999999996,"velocity":0.4015748031496063},{"duration":0.2189779999999999,"midi":38,"time":60.766394999999996,"velocity":0.4015748031496063},{"duration":0.2189779999999999,"midi":54,"time":60.766394999999996,"velocity":0.4015748031496063},{"duration":0.4379559999999998,"midi":54,"time":60.87588399999999,"velocity":0.4015748031496063},{"duration":0.2189779999999999,"midi":26,"time":60.87588399999999,"velocity":0.4015748031496063},{"duration":0.2189779999999999,"midi":38,"time":60.87588399999999,"velocity":0.4015748031496063},{"duration":0.4379559999999998,"midi":50,"time":60.87588399999999,"velocity":0.4015748031496063},{"duration":0.2189779999999999,"midi":61,"time":60.87588399999999,"velocity":0.4015748031496063},{"duration":0.4379559999999998,"midi":57,"time":60.87588399999999,"velocity":0.4015748031496063},{"duration":0.2189779999999999,"midi":38,"time":60.985372999999996,"velocity":0.4015748031496063},{"duration":0.2189779999999999,"midi":26,"time":60.985372999999996,"velocity":0.4015748031496063},{"duration":0.2189779999999999,"midi":38,"time":61.09486199999999,"velocity":0.4015748031496063},{"duration":0.2189779999999999,"midi":26,"time":61.09486199999999,"velocity":0.4015748031496063},{"duration":0.2189779999999999,"midi":37,"time":61.31383999999999,"velocity":0.4015748031496063},{"duration":0.2189779999999999,"midi":54,"time":61.31383999999999,"velocity":0.4015748031496063},{"duration":1.4233570000000029,"midi":53,"time":61.31383999999999,"velocity":0.4015748031496063},{"duration":1.4233570000000029,"midi":49,"time":61.31383999999999,"velocity":0.4015748031496063},{"duration":0.2189779999999999,"midi":25,"time":61.31383999999999,"velocity":0.4015748031496063},{"duration":1.4233570000000029,"midi":56,"time":61.31383999999999,"velocity":0.4015748031496063},{"duration":0.2189779999999999,"midi":37,"time":61.423328999999995,"velocity":0.4015748031496063},{"duration":0.2189779999999999,"midi":25,"time":61.423328999999995,"velocity":0.4015748031496063},{"duration":0.2189779999999999,"midi":54,"time":61.53281799999999,"velocity":0.4015748031496063},{"duration":0.2189779999999999,"midi":37,"time":61.53281799999999,"velocity":0.4015748031496063},{"duration":0.2189779999999999,"midi":25,"time":61.53281799999999,"velocity":0.4015748031496063},{"duration":0.2189779999999999,"midi":37,"time":61.642306999999995,"velocity":0.4015748031496063},{"duration":0.2189779999999999,"midi":25,"time":61.642306999999995,"velocity":0.4015748031496063},{"duration":0.2189779999999999,"midi":25,"time":61.75179599999999,"velocity":0.4015748031496063},{"duration":0.2189779999999999,"midi":37,"time":61.75179599999999,"velocity":0.4015748031496063},{"duration":0.2189779999999999,"midi":61,"time":61.75179599999999,"velocity":0.4015748031496063},{"duration":0.2189779999999999,"midi":25,"time":61.861284999999995,"velocity":0.4015748031496063},{"duration":0.2189779999999999,"midi":37,"time":61.861284999999995,"velocity":0.4015748031496063},{"duration":0.2189779999999999,"midi":37,"time":61.97077399999999,"velocity":0.4015748031496063},{"duration":0.2189779999999999,"midi":25,"time":61.97077399999999,"velocity":0.4015748031496063},{"duration":0.2189779999999999,"midi":25,"time":62.080262999999995,"velocity":0.4015748031496063},{"duration":0.2189779999999999,"midi":37,"time":62.080262999999995,"velocity":0.4015748031496063},{"duration":0.2189779999999999,"midi":37,"time":62.18975199999999,"velocity":0.4015748031496063},{"duration":0.2189779999999999,"midi":54,"time":62.18975199999999,"velocity":0.4015748031496063},{"duration":0.2189779999999999,"midi":25,"time":62.18975199999999,"velocity":0.4015748031496063},{"duration":0.2189779999999999,"midi":54,"time":62.299240999999995,"velocity":0.4015748031496063},{"duration":0.2189779999999999,"midi":37,"time":62.299240999999995,"velocity":0.4015748031496063},{"duration":0.2189779999999999,"midi":25,"time":62.299240999999995,"velocity":0.4015748031496063},{"duration":0.2189779999999999,"midi":37,"time":62.40872999999999,"velocity":0.4015748031496063},{"duration":0.2189779999999999,"midi":25,"time":62.40872999999999,"velocity":0.4015748031496063},{"duration":0.2189779999999999,"midi":54,"time":62.40872999999999,"velocity":0.4015748031496063},{"duration":0.2189779999999999,"midi":25,"time":62.518218999999995,"velocity":0.4015748031496063},{"duration":0.2189779999999999,"midi":54,"time":62.518218999999995,"velocity":0.4015748031496063},{"duration":0.2189779999999999,"midi":37,"time":62.518218999999995,"velocity":0.4015748031496063},{"duration":0.4379559999999998,"midi":53,"time":62.62770799999999,"velocity":0.4015748031496063},{"duration":0.4379559999999998,"midi":49,"time":62.62770799999999,"velocity":0.4015748031496063},{"duration":0.2189779999999999,"midi":37,"time":62.62770799999999,"velocity":0.4015748031496063},{"duration":0.4379559999999998,"midi":56,"time":62.62770799999999,"velocity":0.4015748031496063},{"duration":0.2189779999999999,"midi":61,"time":62.62770799999999,"velocity":0.4015748031496063},{"duration":0.2189779999999999,"midi":25,"time":62.62770799999999,"velocity":0.4015748031496063},{"duration":0.2189779999999999,"midi":25,"time":62.737196999999995,"velocity":0.4015748031496063},{"duration":0.2189779999999999,"midi":37,"time":62.737196999999995,"velocity":0.4015748031496063},{"duration":0.2189779999999999,"midi":37,"time":62.84668599999999,"velocity":0.4015748031496063},{"duration":0.2189779999999999,"midi":25,"time":62.84668599999999,"velocity":0.4015748031496063},{"duration":0.2189779999999999,"midi":42,"time":63.06566399999999,"velocity":0.4015748031496063},{"duration":0.6569339999999997,"midi":61,"time":63.06566399999999,"velocity":0.4015748031496063},{"duration":0.2189779999999999,"midi":54,"time":63.06566399999999,"velocity":0.4015748031496063},{"duration":0.4379559999999998,"midi":54,"time":63.06566399999999,"velocity":0.4015748031496063},{"duration":1.4233570000000029,"midi":57,"time":63.06566399999999,"velocity":0.4015748031496063},{"duration":0.2189779999999999,"midi":30,"time":63.06566399999999,"velocity":0.4015748031496063},{"duration":0.2189779999999999,"midi":42,"time":63.175152999999995,"velocity":0.4015748031496063},{"duration":0.2189779999999999,"midi":30,"time":63.175152999999995,"velocity":0.4015748031496063},{"duration":0.2189779999999999,"midi":42,"time":63.28464199999999,"velocity":0.4015748031496063},{"duration":0.2189779999999999,"midi":30,"time":63.28464199999999,"velocity":0.4015748031496063},{"duration":0.8759119999999996,"midi":54,"time":63.28464199999999,"velocity":0.4015748031496063},{"duration":0.2189779999999999,"midi":42,"time":63.394130999999994,"velocity":0.4015748031496063},{"duration":0.2189779999999999,"midi":30,"time":63.394130999999994,"velocity":0.4015748031496063},{"duration":0.2189779999999999,"midi":42,"time":63.50361999999999,"velocity":0.4015748031496063},{"duration":0.2189779999999999,"midi":30,"time":63.50361999999999,"velocity":0.4015748031496063},{"duration":0.9854010000000031,"midi":61,"time":63.50361999999999,"velocity":0.4015748031496063},{"duration":0.2189779999999999,"midi":30,"time":63.613108999999994,"velocity":0.4015748031496063},{"duration":0.2189779999999999,"midi":42,"time":63.613108999999994,"velocity":0.4015748031496063},{"duration":0.2189779999999999,"midi":30,"time":63.72259799999999,"velocity":0.4015748031496063},{"duration":0.2189779999999999,"midi":42,"time":63.72259799999999,"velocity":0.4015748031496063},{"duration":0.2189779999999999,"midi":42,"time":63.832086999999994,"velocity":0.4015748031496063},{"duration":0.2189779999999999,"midi":30,"time":63.832086999999994,"velocity":0.4015748031496063},{"duration":0.2189779999999999,"midi":30,"time":63.94157599999999,"velocity":0.4015748031496063},{"duration":0.2189779999999999,"midi":42,"time":63.94157599999999,"velocity":0.4015748031496063},{"duration":0.3284669999999963,"midi":54,"time":63.94157599999999,"velocity":0.4015748031496063},{"duration":0.3284670000000034,"midi":54,"time":64.051065,"velocity":0.4015748031496063},{"duration":0.2189779999999928,"midi":42,"time":64.051065,"velocity":0.4015748031496063},{"duration":0.2189779999999928,"midi":30,"time":64.051065,"velocity":0.4015748031496063},{"duration":0.218978000000007,"midi":30,"time":64.16055399999999,"velocity":0.4015748031496063},{"duration":0.218978000000007,"midi":42,"time":64.16055399999999,"velocity":0.4015748031496063},{"duration":0.3284670000000034,"midi":54,"time":64.16055399999999,"velocity":0.4015748031496063},{"duration":0.218978000000007,"midi":42,"time":64.27004299999999,"velocity":0.4015748031496063},{"duration":0.218978000000007,"midi":30,"time":64.27004299999999,"velocity":0.4015748031496063},{"duration":0.218978000000007,"midi":54,"time":64.27004299999999,"velocity":0.4015748031496063},{"duration":0.2189779999999928,"midi":61,"time":64.379532,"velocity":0.4015748031496063},{"duration":0.4379559999999998,"midi":57,"time":64.379532,"velocity":0.4015748031496063},{"duration":0.2189779999999928,"midi":42,"time":64.379532,"velocity":0.4015748031496063},{"duration":0.2189779999999928,"midi":30,"time":64.379532,"velocity":0.4015748031496063},{"duration":0.4379559999999998,"midi":54,"time":64.379532,"velocity":0.4015748031496063},{"duration":0.4379559999999998,"midi":61,"time":64.379532,"velocity":0.4015748031496063},{"duration":0.2189779999999928,"midi":30,"time":64.489021,"velocity":0.4015748031496063},{"duration":0.2189779999999928,"midi":42,"time":64.489021,"velocity":0.4015748031496063},{"duration":0.218978000000007,"midi":30,"time":64.59850999999999,"velocity":0.4015748031496063},{"duration":0.218978000000007,"midi":42,"time":64.59850999999999,"velocity":0.4015748031496063},{"duration":0.218978000000007,"midi":30,"time":64.70799899999999,"velocity":0.4015748031496063},{"duration":0.218978000000007,"midi":42,"time":64.70799899999999,"velocity":0.4015748031496063},{"duration":0.2189779999999928,"midi":54,"time":64.817488,"velocity":0.4015748031496063},{"duration":0.2189779999999928,"midi":25,"time":64.817488,"velocity":0.4015748031496063},{"duration":1.4233569999999958,"midi":56,"time":64.817488,"velocity":0.4015748031496063},{"duration":0.2189779999999928,"midi":37,"time":64.817488,"velocity":0.4015748031496063},{"duration":1.4233569999999958,"midi":49,"time":64.817488,"velocity":0.4015748031496063},{"duration":1.4233569999999958,"midi":53,"time":64.817488,"velocity":0.4015748031496063},{"duration":0.2189779999999928,"midi":37,"time":64.926977,"velocity":0.4015748031496063},{"duration":0.2189779999999928,"midi":25,"time":64.926977,"velocity":0.4015748031496063},{"duration":0.218978000000007,"midi":25,"time":65.03646599999999,"velocity":0.4015748031496063},{"duration":0.218978000000007,"midi":54,"time":65.03646599999999,"velocity":0.4015748031496063},{"duration":0.218978000000007,"midi":37,"time":65.03646599999999,"velocity":0.4015748031496063},{"duration":0.218978000000007,"midi":37,"time":65.14595499999999,"velocity":0.4015748031496063},{"duration":0.218978000000007,"midi":25,"time":65.14595499999999,"velocity":0.4015748031496063},{"duration":0.2189779999999928,"midi":37,"time":65.255444,"velocity":0.4015748031496063},{"duration":0.2189779999999928,"midi":25,"time":65.255444,"velocity":0.4015748031496063},{"duration":0.2189779999999928,"midi":61,"time":65.255444,"velocity":0.4015748031496063},{"duration":0.218978000000007,"midi":25,"time":65.364933,"velocity":0.4015748031496063},{"duration":0.218978000000007,"midi":37,"time":65.364933,"velocity":0.4015748031496063},{"duration":0.218978000000007,"midi":37,"time":65.47442199999999,"velocity":0.4015748031496063},{"duration":0.218978000000007,"midi":25,"time":65.47442199999999,"velocity":0.4015748031496063},{"duration":0.2189779999999928,"midi":25,"time":65.583911,"velocity":0.4015748031496063},{"duration":0.2189779999999928,"midi":37,"time":65.583911,"velocity":0.4015748031496063},{"duration":0.2189779999999928,"midi":37,"time":65.6934,"velocity":0.4015748031496063},{"duration":0.2189779999999928,"midi":25,"time":65.6934,"velocity":0.4015748031496063},{"duration":0.2189779999999928,"midi":54,"time":65.6934,"velocity":0.4015748031496063},{"duration":0.218978000000007,"midi":25,"time":65.802889,"velocity":0.4015748031496063},{"duration":0.218978000000007,"midi":54,"time":65.802889,"velocity":0.4015748031496063},{"duration":0.218978000000007,"midi":37,"time":65.802889,"velocity":0.4015748031496063},{"duration":0.218978000000007,"midi":37,"time":65.91237799999999,"velocity":0.4015748031496063},{"duration":0.218978000000007,"midi":25,"time":65.91237799999999,"velocity":0.4015748031496063},{"duration":0.218978000000007,"midi":54,"time":65.91237799999999,"velocity":0.4015748031496063},{"duration":0.2189779999999928,"midi":37,"time":66.021867,"velocity":0.4015748031496063},{"duration":0.2189779999999928,"midi":54,"time":66.021867,"velocity":0.4015748031496063},{"duration":0.2189779999999928,"midi":25,"time":66.021867,"velocity":0.4015748031496063},{"duration":0.2189779999999928,"midi":25,"time":66.131356,"velocity":0.4015748031496063},{"duration":0.4379559999999998,"midi":53,"time":66.131356,"velocity":0.4015748031496063},{"duration":0.4379559999999998,"midi":56,"time":66.131356,"velocity":0.4015748031496063},{"duration":0.4379559999999998,"midi":49,"time":66.131356,"velocity":0.4015748031496063},{"duration":0.2189779999999928,"midi":61,"time":66.131356,"velocity":0.4015748031496063},{"duration":0.2189779999999928,"midi":37,"time":66.131356,"velocity":0.4015748031496063},{"duration":0.218978000000007,"midi":37,"time":66.240845,"velocity":0.4015748031496063},{"duration":0.218978000000007,"midi":25,"time":66.240845,"velocity":0.4015748031496063},{"duration":0.218978000000007,"midi":25,"time":66.35033399999999,"velocity":0.4015748031496063},{"duration":0.218978000000007,"midi":37,"time":66.35033399999999,"velocity":0.4015748031496063},{"duration":0.2189779999999928,"midi":26,"time":66.569312,"velocity":0.4015748031496063},{"duration":1.4233569999999958,"midi":50,"time":66.569312,"velocity":0.4015748031496063},{"duration":1.4233569999999958,"midi":57,"time":66.569312,"velocity":0.4015748031496063},{"duration":0.2189779999999928,"midi":54,"time":66.569312,"velocity":0.4015748031496063},{"duration":0.2189779999999928,"midi":38,"time":66.569312,"velocity":0.4015748031496063},{"duration":0.4379559999999998,"midi":54,"time":66.569312,"velocity":0.4015748031496063},{"duration":0.218978000000007,"midi":26,"time":66.67880099999999,"velocity":0.4015748031496063},{"duration":0.218978000000007,"midi":38,"time":66.67880099999999,"velocity":0.4015748031496063},{"duration":0.218978000000007,"midi":26,"time":66.78828999999999,"velocity":0.4015748031496063},{"duration":0.8759119999999996,"midi":54,"time":66.78828999999999,"velocity":0.4015748031496063},{"duration":0.218978000000007,"midi":38,"time":66.78828999999999,"velocity":0.4015748031496063},{"duration":0.2189779999999928,"midi":26,"time":66.897779,"velocity":0.4015748031496063},{"duration":0.2189779999999928,"midi":38,"time":66.897779,"velocity":0.4015748031496063},{"duration":0.2189779999999928,"midi":26,"time":67.007268,"velocity":0.4015748031496063},{"duration":0.2189779999999928,"midi":38,"time":67.007268,"velocity":0.4015748031496063},{"duration":0.2189779999999928,"midi":61,"time":67.007268,"velocity":0.4015748031496063},{"duration":0.218978000000007,"midi":26,"time":67.11675699999999,"velocity":0.4015748031496063},{"duration":0.218978000000007,"midi":38,"time":67.11675699999999,"velocity":0.4015748031496063},{"duration":0.218978000000007,"midi":38,"time":67.22624599999999,"velocity":0.4015748031496063},{"duration":0.218978000000007,"midi":26,"time":67.22624599999999,"velocity":0.4015748031496063},{"duration":0.2189779999999928,"midi":38,"time":67.335735,"velocity":0.4015748031496063},{"duration":0.2189779999999928,"midi":26,"time":67.335735,"velocity":0.4015748031496063},{"duration":0.2189779999999928,"midi":38,"time":67.445224,"velocity":0.4015748031496063},{"duration":0.3284670000000034,"midi":54,"time":67.445224,"velocity":0.4015748031496063},{"duration":0.2189779999999928,"midi":26,"time":67.445224,"velocity":0.4015748031496063},{"duration":0.3284670000000034,"midi":54,"time":67.55471299999999,"velocity":0.4015748031496063},{"duration":0.218978000000007,"midi":38,"time":67.55471299999999,"velocity":0.4015748031496063},{"duration":0.218978000000007,"midi":26,"time":67.55471299999999,"velocity":0.4015748031496063},{"duration":0.3284670000000034,"midi":54,"time":67.66420199999999,"velocity":0.4015748031496063},{"duration":0.218978000000007,"midi":38,"time":67.66420199999999,"velocity":0.4015748031496063},{"duration":0.218978000000007,"midi":26,"time":67.66420199999999,"velocity":0.4015748031496063},{"duration":0.2189779999999928,"midi":38,"time":67.773691,"velocity":0.4015748031496063},{"duration":0.2189779999999928,"midi":26,"time":67.773691,"velocity":0.4015748031496063},{"duration":0.2189779999999928,"midi":54,"time":67.773691,"velocity":0.4015748031496063},{"duration":0.2189779999999928,"midi":38,"time":67.88318,"velocity":0.4015748031496063},{"duration":0.4379559999999998,"midi":54,"time":67.88318,"velocity":0.4015748031496063},{"duration":0.4379559999999998,"midi":50,"time":67.88318,"velocity":0.4015748031496063},{"duration":0.4379559999999998,"midi":57,"time":67.88318,"velocity":0.4015748031496063},{"duration":0.2189779999999928,"midi":26,"time":67.88318,"velocity":0.4015748031496063},{"duration":0.2189779999999928,"midi":61,"time":67.88318,"velocity":0.4015748031496063},{"duration":0.218978000000007,"midi":38,"time":67.99266899999999,"velocity":0.4015748031496063},{"duration":0.218978000000007,"midi":26,"time":67.99266899999999,"velocity":0.4015748031496063},{"duration":0.218978000000007,"midi":38,"time":68.10215799999999,"velocity":0.4015748031496063},{"duration":0.218978000000007,"midi":26,"time":68.10215799999999,"velocity":0.4015748031496063},{"duration":0.2189779999999928,"midi":54,"time":68.321136,"velocity":0.4015748031496063},{"duration":1.4233569999999958,"midi":49,"time":68.321136,"velocity":0.4015748031496063},{"duration":1.4233569999999958,"midi":53,"time":68.321136,"velocity":0.4015748031496063},{"duration":0.2189779999999928,"midi":37,"time":68.321136,"velocity":0.4015748031496063},{"duration":0.2189779999999928,"midi":25,"time":68.321136,"velocity":0.4015748031496063},{"duration":1.4233569999999958,"midi":56,"time":68.321136,"velocity":0.4015748031496063},{"duration":0.218978000000007,"midi":37,"time":68.43062499999999,"velocity":0.4015748031496063},{"duration":0.218978000000007,"midi":25,"time":68.43062499999999,"velocity":0.4015748031496063},{"duration":0.218978000000007,"midi":25,"time":68.54011399999999,"velocity":0.4015748031496063},{"duration":0.218978000000007,"midi":37,"time":68.54011399999999,"velocity":0.4015748031496063},{"duration":0.218978000000007,"midi":54,"time":68.54011399999999,"velocity":0.4015748031496063},{"duration":0.2189779999999928,"midi":37,"time":68.649603,"velocity":0.4015748031496063},{"duration":0.2189779999999928,"midi":25,"time":68.649603,"velocity":0.4015748031496063},{"duration":0.2189779999999928,"midi":61,"time":68.759092,"velocity":0.4015748031496063},{"duration":0.2189779999999928,"midi":25,"time":68.759092,"velocity":0.4015748031496063},{"duration":0.2189779999999928,"midi":37,"time":68.759092,"velocity":0.4015748031496063},{"duration":0.218978000000007,"midi":25,"time":68.86858099999999,"velocity":0.4015748031496063},{"duration":0.218978000000007,"midi":37,"time":68.86858099999999,"velocity":0.4015748031496063},{"duration":0.218978000000007,"midi":25,"time":68.97806999999999,"velocity":0.4015748031496063},{"duration":0.218978000000007,"midi":37,"time":68.97806999999999,"velocity":0.4015748031496063},{"duration":0.2189779999999928,"midi":25,"time":69.087559,"velocity":0.4015748031496063},{"duration":0.2189779999999928,"midi":37,"time":69.087559,"velocity":0.4015748031496063},{"duration":0.2189779999999928,"midi":54,"time":69.197048,"velocity":0.4015748031496063},{"duration":0.2189779999999928,"midi":37,"time":69.197048,"velocity":0.4015748031496063},{"duration":0.2189779999999928,"midi":25,"time":69.197048,"velocity":0.4015748031496063},{"duration":0.218978000000007,"midi":54,"time":69.30653699999999,"velocity":0.4015748031496063},{"duration":0.218978000000007,"midi":37,"time":69.30653699999999,"velocity":0.4015748031496063},{"duration":0.218978000000007,"midi":25,"time":69.30653699999999,"velocity":0.4015748031496063},{"duration":0.218978000000007,"midi":37,"time":69.41602599999999,"velocity":0.4015748031496063},{"duration":0.218978000000007,"midi":54,"time":69.41602599999999,"velocity":0.4015748031496063},{"duration":0.218978000000007,"midi":25,"time":69.41602599999999,"velocity":0.4015748031496063},{"duration":0.2189779999999928,"midi":25,"time":69.525515,"velocity":0.4015748031496063},{"duration":0.2189779999999928,"midi":54,"time":69.525515,"velocity":0.4015748031496063},{"duration":0.2189779999999928,"midi":37,"time":69.525515,"velocity":0.4015748031496063},{"duration":0.4379559999999998,"midi":49,"time":69.635004,"velocity":0.4015748031496063},{"duration":0.4379559999999998,"midi":56,"time":69.635004,"velocity":0.4015748031496063},{"duration":0.2189779999999928,"midi":37,"time":69.635004,"velocity":0.4015748031496063},{"duration":0.2189779999999928,"midi":25,"time":69.635004,"velocity":0.4015748031496063},{"duration":0.4379559999999998,"midi":53,"time":69.635004,"velocity":0.4015748031496063},{"duration":0.2189779999999928,"midi":61,"time":69.635004,"velocity":0.4015748031496063},{"duration":0.218978000000007,"midi":37,"time":69.74449299999999,"velocity":0.4015748031496063},{"duration":0.218978000000007,"midi":25,"time":69.74449299999999,"velocity":0.4015748031496063},{"duration":0.218978000000007,"midi":37,"time":69.85398199999999,"velocity":0.4015748031496063},{"duration":0.218978000000007,"midi":25,"time":69.85398199999999,"velocity":0.4015748031496063},{"duration":0.2189779999999928,"midi":30,"time":70.07296,"velocity":0.4015748031496063},{"duration":0.6569339999999926,"midi":61,"time":70.07296,"velocity":0.4015748031496063},{"duration":1.4233569999999958,"midi":57,"time":70.07296,"velocity":0.4015748031496063},{"duration":0.2189779999999928,"midi":42,"time":70.07296,"velocity":0.4015748031496063},{"duration":0.2189779999999928,"midi":54,"time":70.07296,"velocity":0.4015748031496063},{"duration":0.4379559999999998,"midi":54,"time":70.07296,"velocity":0.4015748031496063},{"duration":0.218978000000007,"midi":30,"time":70.18244899999999,"velocity":0.4015748031496063},{"duration":0.218978000000007,"midi":42,"time":70.18244899999999,"velocity":0.4015748031496063},{"duration":0.218978000000007,"midi":42,"time":70.29193799999999,"velocity":0.4015748031496063},{"duration":0.8759119999999996,"midi":54,"time":70.29193799999999,"velocity":0.4015748031496063},{"duration":0.218978000000007,"midi":30,"time":70.29193799999999,"velocity":0.4015748031496063},{"duration":0.2189779999999928,"midi":30,"time":70.401427,"velocity":0.4015748031496063},{"duration":0.2189779999999928,"midi":42,"time":70.401427,"velocity":0.4015748031496063},{"duration":0.2189779999999928,"midi":30,"time":70.510916,"velocity":0.4015748031496063},{"duration":0.2189779999999928,"midi":42,"time":70.510916,"velocity":0.4015748031496063},{"duration":0.985400999999996,"midi":61,"time":70.510916,"velocity":0.4015748031496063},{"duration":0.218978000000007,"midi":42,"time":70.62040499999999,"velocity":0.4015748031496063},{"duration":0.218978000000007,"midi":30,"time":70.62040499999999,"velocity":0.4015748031496063},{"duration":0.218978000000007,"midi":42,"time":70.72989399999999,"velocity":0.4015748031496063},{"duration":0.218978000000007,"midi":30,"time":70.72989399999999,"velocity":0.4015748031496063},{"duration":0.2189779999999928,"midi":30,"time":70.839383,"velocity":0.4015748031496063},{"duration":0.2189779999999928,"midi":42,"time":70.839383,"velocity":0.4015748031496063},{"duration":0.3284670000000034,"midi":54,"time":70.948872,"velocity":0.4015748031496063},{"duration":0.2189779999999928,"midi":42,"time":70.948872,"velocity":0.4015748031496063},{"duration":0.2189779999999928,"midi":30,"time":70.948872,"velocity":0.4015748031496063},{"duration":0.218978000000007,"midi":42,"time":71.05836099999999,"velocity":0.4015748031496063},{"duration":0.218978000000007,"midi":30,"time":71.05836099999999,"velocity":0.4015748031496063},{"duration":0.3284670000000034,"midi":54,"time":71.05836099999999,"velocity":0.4015748031496063},{"duration":0.218978000000007,"midi":30,"time":71.16784999999999,"velocity":0.4015748031496063},{"duration":0.3284670000000034,"midi":54,"time":71.16784999999999,"velocity":0.4015748031496063},{"duration":0.218978000000007,"midi":42,"time":71.16784999999999,"velocity":0.4015748031496063},{"duration":0.2189779999999928,"midi":30,"time":71.277339,"velocity":0.4015748031496063},{"duration":0.2189779999999928,"midi":42,"time":71.277339,"velocity":0.4015748031496063},{"duration":0.2189779999999928,"midi":54,"time":71.277339,"velocity":0.4015748031496063},{"duration":0.4379559999999998,"midi":57,"time":71.386828,"velocity":0.4015748031496063},{"duration":0.4379559999999998,"midi":54,"time":71.386828,"velocity":0.4015748031496063},{"duration":0.2189779999999928,"midi":42,"time":71.386828,"velocity":0.4015748031496063},{"duration":0.2189779999999928,"midi":61,"time":71.386828,"velocity":0.4015748031496063},{"duration":0.4379559999999998,"midi":61,"time":71.386828,"velocity":0.4015748031496063},{"duration":0.2189779999999928,"midi":30,"time":71.386828,"velocity":0.4015748031496063},{"duration":0.218978000000007,"midi":30,"time":71.49631699999999,"velocity":0.4015748031496063},{"duration":0.218978000000007,"midi":42,"time":71.49631699999999,"velocity":0.4015748031496063},{"duration":0.218978000000007,"midi":42,"time":71.60580599999999,"velocity":0.4015748031496063},{"duration":0.218978000000007,"midi":30,"time":71.60580599999999,"velocity":0.4015748031496063},{"duration":0.2189779999999928,"midi":30,"time":71.715295,"velocity":0.4015748031496063},{"duration":0.2189779999999928,"midi":42,"time":71.715295,"velocity":0.4015748031496063},{"duration":1.4233569999999958,"midi":49,"time":71.824784,"velocity":0.4015748031496063},{"duration":0.2189779999999928,"midi":37,"time":71.824784,"velocity":0.4015748031496063},{"duration":1.4233569999999958,"midi":56,"time":71.824784,"velocity":0.4015748031496063},{"duration":0.2189779999999928,"midi":25,"time":71.824784,"velocity":0.4015748031496063},{"duration":0.2189779999999928,"midi":54,"time":71.824784,"velocity":0.4015748031496063},{"duration":1.4233569999999958,"midi":53,"time":71.824784,"velocity":0.4015748031496063},{"duration":0.218978000000007,"midi":25,"time":71.93427299999999,"velocity":0.4015748031496063},{"duration":0.218978000000007,"midi":37,"time":71.93427299999999,"velocity":0.4015748031496063},{"duration":0.218978000000007,"midi":37,"time":72.04376199999999,"velocity":0.4015748031496063},{"duration":0.218978000000007,"midi":54,"time":72.04376199999999,"velocity":0.4015748031496063},{"duration":0.218978000000007,"midi":25,"time":72.04376199999999,"velocity":0.4015748031496063},{"duration":0.2189779999999928,"midi":25,"time":72.153251,"velocity":0.4015748031496063},{"duration":0.2189779999999928,"midi":37,"time":72.153251,"velocity":0.4015748031496063},{"duration":0.2189779999999928,"midi":37,"time":72.26274,"velocity":0.4015748031496063},{"duration":0.2189779999999928,"midi":25,"time":72.26274,"velocity":0.4015748031496063},{"duration":0.2189779999999928,"midi":61,"time":72.26274,"velocity":0.4015748031496063},{"duration":0.218978000000007,"midi":25,"time":72.37222899999999,"velocity":0.4015748031496063},{"duration":0.218978000000007,"midi":37,"time":72.37222899999999,"velocity":0.4015748031496063},{"duration":0.218978000000007,"midi":25,"time":72.48171799999999,"velocity":0.4015748031496063},{"duration":0.218978000000007,"midi":37,"time":72.48171799999999,"velocity":0.4015748031496063},{"duration":0.2189779999999928,"midi":37,"time":72.591207,"velocity":0.4015748031496063},{"duration":0.2189779999999928,"midi":25,"time":72.591207,"velocity":0.4015748031496063},{"duration":0.2189779999999928,"midi":25,"time":72.700696,"velocity":0.4015748031496063},{"duration":0.2189779999999928,"midi":37,"time":72.700696,"velocity":0.4015748031496063},{"duration":0.2189779999999928,"midi":54,"time":72.700696,"velocity":0.4015748031496063},{"duration":0.218978000000007,"midi":37,"time":72.81018499999999,"velocity":0.4015748031496063},{"duration":0.218978000000007,"midi":25,"time":72.81018499999999,"velocity":0.4015748031496063},{"duration":0.218978000000007,"midi":54,"time":72.81018499999999,"velocity":0.4015748031496063},{"duration":0.218978000000007,"midi":25,"time":72.91967399999999,"velocity":0.4015748031496063},{"duration":0.218978000000007,"midi":54,"time":72.91967399999999,"velocity":0.4015748031496063},{"duration":0.218978000000007,"midi":37,"time":72.91967399999999,"velocity":0.4015748031496063},{"duration":0.2189779999999928,"midi":54,"time":73.029163,"velocity":0.4015748031496063},{"duration":0.2189779999999928,"midi":25,"time":73.029163,"velocity":0.4015748031496063},{"duration":0.2189779999999928,"midi":37,"time":73.029163,"velocity":0.4015748031496063},{"duration":0.2189779999999928,"midi":61,"time":73.138652,"velocity":0.4015748031496063},{"duration":0.4379559999999998,"midi":49,"time":73.138652,"velocity":0.4015748031496063},{"duration":0.4379559999999998,"midi":56,"time":73.138652,"velocity":0.4015748031496063},{"duration":0.2189779999999928,"midi":25,"time":73.138652,"velocity":0.4015748031496063},{"duration":0.2189779999999928,"midi":37,"time":73.138652,"velocity":0.4015748031496063},{"duration":0.4379559999999998,"midi":53,"time":73.138652,"velocity":0.4015748031496063},{"duration":0.218978000000007,"midi":25,"time":73.24814099999999,"velocity":0.4015748031496063},{"duration":0.218978000000007,"midi":37,"time":73.24814099999999,"velocity":0.4015748031496063},{"duration":0.218978000000007,"midi":37,"time":73.35762999999999,"velocity":0.4015748031496063},{"duration":0.218978000000007,"midi":25,"time":73.35762999999999,"velocity":0.4015748031496063},{"duration":1.4233569999999958,"midi":57,"time":73.576608,"velocity":0.4015748031496063},{"duration":1.4233569999999958,"midi":50,"time":73.576608,"velocity":0.4015748031496063},{"duration":0.2189779999999928,"midi":54,"time":73.576608,"velocity":0.4015748031496063},{"duration":0.2189779999999928,"midi":38,"time":73.576608,"velocity":0.4015748031496063},{"duration":0.2189779999999928,"midi":26,"time":73.576608,"velocity":0.4015748031496063},{"duration":0.4379559999999998,"midi":54,"time":73.576608,"velocity":0.4015748031496063},{"duration":0.218978000000007,"midi":26,"time":73.68609699999999,"velocity":0.4015748031496063},{"duration":0.218978000000007,"midi":38,"time":73.68609699999999,"velocity":0.4015748031496063},{"duration":0.218978000000007,"midi":26,"time":73.79558599999999,"velocity":0.4015748031496063},{"duration":0.8759119999999996,"midi":54,"time":73.79558599999999,"velocity":0.4015748031496063},{"duration":0.218978000000007,"midi":38,"time":73.79558599999999,"velocity":0.4015748031496063},{"duration":0.2189779999999928,"midi":26,"time":73.905075,"velocity":0.4015748031496063},{"duration":0.2189779999999928,"midi":38,"time":73.905075,"velocity":0.4015748031496063},{"duration":0.2189779999999928,"midi":38,"time":74.014564,"velocity":0.4015748031496063},{"duration":0.2189779999999928,"midi":26,"time":74.014564,"velocity":0.4015748031496063},{"duration":0.2189779999999928,"midi":61,"time":74.014564,"velocity":0.4015748031496063},{"duration":0.218978000000007,"midi":38,"time":74.12405299999999,"velocity":0.4015748031496063},{"duration":0.218978000000007,"midi":26,"time":74.12405299999999,"velocity":0.4015748031496063},{"duration":0.218978000000007,"midi":26,"time":74.23354199999999,"velocity":0.4015748031496063},{"duration":0.218978000000007,"midi":38,"time":74.23354199999999,"velocity":0.4015748031496063},{"duration":0.2189779999999928,"midi":38,"time":74.343031,"velocity":0.4015748031496063},{"duration":0.2189779999999928,"midi":26,"time":74.343031,"velocity":0.4015748031496063},{"duration":0.3284670000000034,"midi":54,"time":74.45251999999999,"velocity":0.4015748031496063},{"duration":0.2189779999999928,"midi":26,"time":74.45251999999999,"velocity":0.4015748031496063},{"duration":0.2189779999999928,"midi":38,"time":74.45251999999999,"velocity":0.4015748031496063},{"duration":0.3284670000000034,"midi":54,"time":74.56200899999999,"velocity":0.4015748031496063},{"duration":0.218978000000007,"midi":26,"time":74.56200899999999,"velocity":0.4015748031496063},{"duration":0.218978000000007,"midi":38,"time":74.56200899999999,"velocity":0.4015748031496063},{"duration":0.218978000000007,"midi":26,"time":74.67149799999999,"velocity":0.4015748031496063},{"duration":0.3284670000000034,"midi":54,"time":74.67149799999999,"velocity":0.4015748031496063},{"duration":0.218978000000007,"midi":38,"time":74.67149799999999,"velocity":0.4015748031496063},{"duration":0.2189779999999928,"midi":54,"time":74.780987,"velocity":0.4015748031496063},{"duration":0.2189779999999928,"midi":26,"time":74.780987,"velocity":0.4015748031496063},{"duration":0.2189779999999928,"midi":38,"time":74.780987,"velocity":0.4015748031496063},{"duration":0.4379559999999998,"midi":57,"time":74.89047599999999,"velocity":0.4015748031496063},{"duration":0.218978000000007,"midi":61,"time":74.89047599999999,"velocity":0.4015748031496063},{"duration":0.218978000000007,"midi":38,"time":74.89047599999999,"velocity":0.4015748031496063},{"duration":0.4379559999999998,"midi":54,"time":74.89047599999999,"velocity":0.4015748031496063},{"duration":0.218978000000007,"midi":26,"time":74.89047599999999,"velocity":0.4015748031496063},{"duration":0.4379559999999998,"midi":50,"time":74.89047599999999,"velocity":0.4015748031496063},{"duration":0.218978000000007,"midi":38,"time":74.99996499999999,"velocity":0.4015748031496063},{"duration":0.218978000000007,"midi":26,"time":74.99996499999999,"velocity":0.4015748031496063},{"duration":0.2189779999999928,"midi":38,"time":75.109454,"velocity":0.4015748031496063},{"duration":0.2189779999999928,"midi":26,"time":75.109454,"velocity":0.4015748031496063},{"duration":1.4233569999999958,"midi":49,"time":75.32843199999999,"velocity":0.4015748031496063},{"duration":0.218978000000007,"midi":54,"time":75.32843199999999,"velocity":0.4015748031496063},{"duration":1.4233569999999958,"midi":56,"time":75.32843199999999,"velocity":0.4015748031496063},{"duration":1.4233569999999958,"midi":53,"time":75.32843199999999,"velocity":0.4015748031496063},{"duration":0.218978000000007,"midi":37,"time":75.32843199999999,"velocity":0.4015748031496063},{"duration":0.218978000000007,"midi":25,"time":75.32843199999999,"velocity":0.4015748031496063},{"duration":0.218978000000007,"midi":25,"time":75.43792099999999,"velocity":0.4015748031496063},{"duration":0.218978000000007,"midi":37,"time":75.43792099999999,"velocity":0.4015748031496063},{"duration":0.2189779999999928,"midi":25,"time":75.54741,"velocity":0.4015748031496063},{"duration":0.2189779999999928,"midi":37,"time":75.54741,"velocity":0.4015748031496063},{"duration":0.2189779999999928,"midi":54,"time":75.54741,"velocity":0.4015748031496063},{"duration":0.2189779999999928,"midi":25,"time":75.656899,"velocity":0.4015748031496063},{"duration":0.2189779999999928,"midi":37,"time":75.656899,"velocity":0.4015748031496063},{"duration":0.218978000000007,"midi":61,"time":75.76638799999999,"velocity":0.4015748031496063},{"duration":0.218978000000007,"midi":37,"time":75.76638799999999,"velocity":0.4015748031496063},{"duration":0.218978000000007,"midi":25,"time":75.76638799999999,"velocity":0.4015748031496063},{"duration":0.218978000000007,"midi":25,"time":75.87587699999999,"velocity":0.4015748031496063},{"duration":0.218978000000007,"midi":37,"time":75.87587699999999,"velocity":0.4015748031496063},{"duration":0.2189779999999928,"midi":37,"time":75.985366,"velocity":0.4015748031496063},{"duration":0.2189779999999928,"midi":25,"time":75.985366,"velocity":0.4015748031496063},{"duration":0.2189779999999928,"midi":25,"time":76.094855,"velocity":0.4015748031496063},{"duration":0.2189779999999928,"midi":37,"time":76.094855,"velocity":0.4015748031496063},{"duration":0.218978000000007,"midi":54,"time":76.20434399999999,"velocity":0.4015748031496063},{"duration":0.218978000000007,"midi":25,"time":76.20434399999999,"velocity":0.4015748031496063},{"duration":0.218978000000007,"midi":37,"time":76.20434399999999,"velocity":0.4015748031496063},{"duration":0.218978000000007,"midi":25,"time":76.31383299999999,"velocity":0.4015748031496063},{"duration":0.218978000000007,"midi":54,"time":76.31383299999999,"velocity":0.4015748031496063},{"duration":0.218978000000007,"midi":37,"time":76.31383299999999,"velocity":0.4015748031496063},{"duration":0.2189779999999928,"midi":25,"time":76.423322,"velocity":0.4015748031496063},{"duration":0.2189779999999928,"midi":54,"time":76.423322,"velocity":0.4015748031496063},{"duration":0.2189779999999928,"midi":37,"time":76.423322,"velocity":0.4015748031496063},{"duration":0.2189779999999928,"midi":37,"time":76.532811,"velocity":0.4015748031496063},{"duration":0.2189779999999928,"midi":54,"time":76.532811,"velocity":0.4015748031496063},{"duration":0.2189779999999928,"midi":25,"time":76.532811,"velocity":0.4015748031496063},{"duration":0.218978000000007,"midi":61,"time":76.64229999999999,"velocity":0.4015748031496063},{"duration":0.218978000000007,"midi":25,"time":76.64229999999999,"velocity":0.4015748031496063},{"duration":0.4379559999999998,"midi":56,"time":76.64229999999999,"velocity":0.4015748031496063},{"duration":0.218978000000007,"midi":37,"time":76.64229999999999,"velocity":0.4015748031496063},{"duration":0.4379559999999998,"midi":49,"time":76.64229999999999,"velocity":0.4015748031496063},{"duration":0.4379559999999998,"midi":53,"time":76.64229999999999,"velocity":0.4015748031496063},{"duration":0.218978000000007,"midi":37,"time":76.75178899999999,"velocity":0.4015748031496063},{"duration":0.218978000000007,"midi":25,"time":76.75178899999999,"velocity":0.4015748031496063},{"duration":0.2189779999999928,"midi":25,"time":76.861278,"velocity":0.4015748031496063},{"duration":0.2189779999999928,"midi":37,"time":76.861278,"velocity":0.4015748031496063},{"duration":0.218978000000007,"midi":54,"time":77.08025599999999,"velocity":0.4015748031496063},{"duration":0.218978000000007,"midi":42,"time":77.08025599999999,"velocity":0.4015748031496063},{"duration":1.4233569999999958,"midi":57,"time":77.08025599999999,"velocity":0.4015748031496063},{"duration":0.6569340000000068,"midi":61,"time":77.08025599999999,"velocity":0.4015748031496063},{"duration":0.218978000000007,"midi":30,"time":77.08025599999999,"velocity":0.4015748031496063},{"duration":0.4379559999999998,"midi":54,"time":77.08025599999999,"velocity":0.4015748031496063},{"duration":0.218978000000007,"midi":30,"time":77.18974499999999,"velocity":0.4015748031496063},{"duration":0.218978000000007,"midi":42,"time":77.18974499999999,"velocity":0.4015748031496063},{"duration":0.2189779999999928,"midi":42,"time":77.299234,"velocity":0.4015748031496063},{"duration":0.8759119999999996,"midi":54,"time":77.299234,"velocity":0.4015748031496063},{"duration":0.2189779999999928,"midi":30,"time":77.299234,"velocity":0.4015748031496063},{"duration":0.2189779999999928,"midi":30,"time":77.408723,"velocity":0.4015748031496063},{"duration":0.2189779999999928,"midi":42,"time":77.408723,"velocity":0.4015748031496063},{"duration":0.218978000000007,"midi":30,"time":77.51821199999999,"velocity":0.4015748031496063},{"duration":0.985400999999996,"midi":61,"time":77.51821199999999,"velocity":0.4015748031496063},{"duration":0.218978000000007,"midi":42,"time":77.51821199999999,"velocity":0.4015748031496063},{"duration":0.218978000000007,"midi":42,"time":77.62770099999999,"velocity":0.4015748031496063},{"duration":0.218978000000007,"midi":30,"time":77.62770099999999,"velocity":0.4015748031496063},{"duration":0.2189779999999928,"midi":42,"time":77.73719,"velocity":0.4015748031496063},{"duration":0.2189779999999928,"midi":30,"time":77.73719,"velocity":0.4015748031496063},{"duration":0.2189779999999928,"midi":42,"time":77.846679,"velocity":0.4015748031496063},{"duration":0.2189779999999928,"midi":30,"time":77.846679,"velocity":0.4015748031496063},{"duration":0.218978000000007,"midi":42,"time":77.95616799999999,"velocity":0.4015748031496063},{"duration":0.218978000000007,"midi":30,"time":77.95616799999999,"velocity":0.4015748031496063},{"duration":0.3284670000000034,"midi":54,"time":77.95616799999999,"velocity":0.4015748031496063},{"duration":0.218978000000007,"midi":30,"time":78.06565699999999,"velocity":0.4015748031496063},{"duration":0.218978000000007,"midi":42,"time":78.06565699999999,"velocity":0.4015748031496063},{"duration":0.3284670000000034,"midi":54,"time":78.06565699999999,"velocity":0.4015748031496063},{"duration":0.3284669999999892,"midi":54,"time":78.175146,"velocity":0.4015748031496063},{"duration":0.2189779999999928,"midi":30,"time":78.175146,"velocity":0.4015748031496063},{"duration":0.2189779999999928,"midi":42,"time":78.175146,"velocity":0.4015748031496063},{"duration":0.2189779999999928,"midi":30,"time":78.284635,"velocity":0.4015748031496063},{"duration":0.2189779999999928,"midi":54,"time":78.284635,"velocity":0.4015748031496063},{"duration":0.2189779999999928,"midi":42,"time":78.284635,"velocity":0.4015748031496063},{"duration":0.218978000000007,"midi":42,"time":78.39412399999999,"velocity":0.4015748031496063},{"duration":0.218978000000007,"midi":61,"time":78.39412399999999,"velocity":0.4015748031496063},{"duration":0.4379559999999998,"midi":54,"time":78.39412399999999,"velocity":0.4015748031496063},{"duration":0.218978000000007,"midi":30,"time":78.39412399999999,"velocity":0.4015748031496063},{"duration":0.4379559999999998,"midi":57,"time":78.39412399999999,"velocity":0.4015748031496063},{"duration":0.4379559999999998,"midi":61,"time":78.39412399999999,"velocity":0.4015748031496063},{"duration":0.218978000000007,"midi":42,"time":78.50361299999999,"velocity":0.4015748031496063},{"duration":0.218978000000007,"midi":30,"time":78.50361299999999,"velocity":0.4015748031496063},{"duration":0.2189779999999928,"midi":42,"time":78.613102,"velocity":0.4015748031496063},{"duration":0.2189779999999928,"midi":30,"time":78.613102,"velocity":0.4015748031496063},{"duration":0.2189779999999928,"midi":42,"time":78.722591,"velocity":0.4015748031496063},{"duration":0.2189779999999928,"midi":30,"time":78.722591,"velocity":0.4015748031496063},{"duration":1.4233569999999958,"midi":49,"time":78.83207999999999,"velocity":0.4015748031496063},{"duration":0.218978000000007,"midi":37,"time":78.83207999999999,"velocity":0.4015748031496063},{"duration":0.218978000000007,"midi":54,"time":78.83207999999999,"velocity":0.4015748031496063},{"duration":1.4233569999999958,"midi":53,"time":78.83207999999999,"velocity":0.4015748031496063},{"duration":1.4233569999999958,"midi":56,"time":78.83207999999999,"velocity":0.4015748031496063},{"duration":0.218978000000007,"midi":25,"time":78.83207999999999,"velocity":0.4015748031496063},{"duration":0.218978000000007,"midi":37,"time":78.94156899999999,"velocity":0.4015748031496063},{"duration":0.218978000000007,"midi":25,"time":78.94156899999999,"velocity":0.4015748031496063},{"duration":0.2189779999999928,"midi":37,"time":79.051058,"velocity":0.4015748031496063},{"duration":0.2189779999999928,"midi":25,"time":79.051058,"velocity":0.4015748031496063},{"duration":0.2189779999999928,"midi":54,"time":79.051058,"velocity":0.4015748031496063},{"duration":0.2189779999999928,"midi":37,"time":79.160547,"velocity":0.4015748031496063},{"duration":0.2189779999999928,"midi":25,"time":79.160547,"velocity":0.4015748031496063},{"duration":0.218978000000007,"midi":37,"time":79.27003599999999,"velocity":0.4015748031496063},{"duration":0.218978000000007,"midi":61,"time":79.27003599999999,"velocity":0.4015748031496063},{"duration":0.218978000000007,"midi":25,"time":79.27003599999999,"velocity":0.4015748031496063},{"duration":0.218978000000007,"midi":37,"time":79.37952499999999,"velocity":0.4015748031496063},{"duration":0.218978000000007,"midi":25,"time":79.37952499999999,"velocity":0.4015748031496063},{"duration":0.2189779999999928,"midi":25,"time":79.489014,"velocity":0.4015748031496063},{"duration":0.2189779999999928,"midi":37,"time":79.489014,"velocity":0.4015748031496063},{"duration":0.2189779999999928,"midi":37,"time":79.598503,"velocity":0.4015748031496063},{"duration":0.2189779999999928,"midi":25,"time":79.598503,"velocity":0.4015748031496063},{"duration":0.218978000000007,"midi":54,"time":79.70799199999999,"velocity":0.4015748031496063},{"duration":0.218978000000007,"midi":37,"time":79.70799199999999,"velocity":0.4015748031496063},{"duration":0.218978000000007,"midi":25,"time":79.70799199999999,"velocity":0.4015748031496063},{"duration":0.218978000000007,"midi":25,"time":79.81748099999999,"velocity":0.4015748031496063},{"duration":0.218978000000007,"midi":54,"time":79.81748099999999,"velocity":0.4015748031496063},{"duration":0.218978000000007,"midi":37,"time":79.81748099999999,"velocity":0.4015748031496063},{"duration":0.2189779999999928,"midi":25,"time":79.92697,"velocity":0.4015748031496063},{"duration":0.2189779999999928,"midi":54,"time":79.92697,"velocity":0.4015748031496063},{"duration":0.2189779999999928,"midi":37,"time":79.92697,"velocity":0.4015748031496063},{"duration":0.2189779999999928,"midi":37,"time":80.036459,"velocity":0.4015748031496063},{"duration":0.2189779999999928,"midi":54,"time":80.036459,"velocity":0.4015748031496063},{"duration":0.2189779999999928,"midi":25,"time":80.036459,"velocity":0.4015748031496063},{"duration":0.4379559999999998,"midi":56,"time":80.14594799999999,"velocity":0.4015748031496063},{"duration":0.4379559999999998,"midi":53,"time":80.14594799999999,"velocity":0.4015748031496063},{"duration":0.4379559999999998,"midi":49,"time":80.14594799999999,"velocity":0.4015748031496063},{"duration":0.218978000000007,"midi":61,"time":80.14594799999999,"velocity":0.4015748031496063},{"duration":0.218978000000007,"midi":37,"time":80.14594799999999,"velocity":0.4015748031496063},{"duration":0.218978000000007,"midi":25,"time":80.14594799999999,"velocity":0.4015748031496063},{"duration":0.218978000000007,"midi":37,"time":80.25543699999999,"velocity":0.4015748031496063},{"duration":0.218978000000007,"midi":25,"time":80.25543699999999,"velocity":0.4015748031496063},{"duration":0.2189779999999928,"midi":25,"time":80.364926,"velocity":0.4015748031496063},{"duration":0.2189779999999928,"midi":37,"time":80.364926,"velocity":0.4015748031496063},{"duration":0.218978000000007,"midi":54,"time":80.58390399999999,"velocity":0.4015748031496063},{"duration":0.4379559999999998,"midi":54,"time":80.58390399999999,"velocity":0.4015748031496063},{"duration":1.4233569999999958,"midi":50,"time":80.58390399999999,"velocity":0.4015748031496063},{"duration":1.4233569999999958,"midi":57,"time":80.58390399999999,"velocity":0.4015748031496063},{"duration":0.218978000000007,"midi":26,"time":80.58390399999999,"velocity":0.4015748031496063},{"duration":0.218978000000007,"midi":38,"time":80.58390399999999,"velocity":0.4015748031496063},{"duration":0.218978000000007,"midi":26,"time":80.69339299999999,"velocity":0.4015748031496063},{"duration":0.218978000000007,"midi":38,"time":80.69339299999999,"velocity":0.4015748031496063},{"duration":0.8759119999999996,"midi":54,"time":80.802882,"velocity":0.4015748031496063},{"duration":0.2189779999999928,"midi":26,"time":80.802882,"velocity":0.4015748031496063},{"duration":0.2189779999999928,"midi":38,"time":80.802882,"velocity":0.4015748031496063},{"duration":0.2189779999999928,"midi":38,"time":80.912371,"velocity":0.4015748031496063},{"duration":0.2189779999999928,"midi":26,"time":80.912371,"velocity":0.4015748031496063},{"duration":0.218978000000007,"midi":61,"time":81.02185999999999,"velocity":0.4015748031496063},{"duration":0.218978000000007,"midi":38,"time":81.02185999999999,"velocity":0.4015748031496063},{"duration":0.218978000000007,"midi":26,"time":81.02185999999999,"velocity":0.4015748031496063},{"duration":0.218978000000007,"midi":26,"time":81.13134899999999,"velocity":0.4015748031496063},{"duration":0.218978000000007,"midi":38,"time":81.13134899999999,"velocity":0.4015748031496063},{"duration":0.2189779999999928,"midi":26,"time":81.240838,"velocity":0.4015748031496063},{"duration":0.2189779999999928,"midi":38,"time":81.240838,"velocity":0.4015748031496063},{"duration":0.2189779999999928,"midi":38,"time":81.350327,"velocity":0.4015748031496063},{"duration":0.2189779999999928,"midi":26,"time":81.350327,"velocity":0.4015748031496063},{"duration":0.3284670000000034,"midi":54,"time":81.45981599999999,"velocity":0.4015748031496063},{"duration":0.218978000000007,"midi":26,"time":81.45981599999999,"velocity":0.4015748031496063},{"duration":0.218978000000007,"midi":38,"time":81.45981599999999,"velocity":0.4015748031496063},{"duration":0.218978000000007,"midi":26,"time":81.56930499999999,"velocity":0.4015748031496063},{"duration":0.3284670000000034,"midi":54,"time":81.56930499999999,"velocity":0.4015748031496063},{"duration":0.218978000000007,"midi":38,"time":81.56930499999999,"velocity":0.4015748031496063},{"duration":0.2189779999999928,"midi":26,"time":81.678794,"velocity":0.4015748031496063},{"duration":0.3284669999999892,"midi":54,"time":81.678794,"velocity":0.4015748031496063},{"duration":0.2189779999999928,"midi":38,"time":81.678794,"velocity":0.4015748031496063},{"duration":0.2189779999999928,"midi":54,"time":81.78828299999999,"velocity":0.4015748031496063},{"duration":0.2189779999999928,"midi":26,"time":81.78828299999999,"velocity":0.4015748031496063},{"duration":0.2189779999999928,"midi":38,"time":81.78828299999999,"velocity":0.4015748031496063},{"duration":0.218978000000007,"midi":26,"time":81.89777199999999,"velocity":0.4015748031496063},{"duration":0.4379559999999998,"midi":50,"time":81.89777199999999,"velocity":0.4015748031496063},{"duration":0.218978000000007,"midi":38,"time":81.89777199999999,"velocity":0.4015748031496063},{"duration":0.4379559999999998,"midi":54,"time":81.89777199999999,"velocity":0.4015748031496063},{"duration":0.218978000000007,"midi":61,"time":81.89777199999999,"velocity":0.4015748031496063},{"duration":0.4379559999999998,"midi":57,"time":81.89777199999999,"velocity":0.4015748031496063},{"duration":0.218978000000007,"midi":38,"time":82.00726099999999,"velocity":0.4015748031496063},{"duration":0.218978000000007,"midi":26,"time":82.00726099999999,"velocity":0.4015748031496063},{"duration":0.2189779999999928,"midi":38,"time":82.11675,"velocity":0.4015748031496063},{"duration":0.2189779999999928,"midi":26,"time":82.11675,"velocity":0.4015748031496063},{"duration":0.218978000000007,"midi":54,"time":82.33572799999999,"velocity":0.4015748031496063},{"duration":1.4233569999999958,"midi":56,"time":82.33572799999999,"velocity":0.4015748031496063},{"duration":1.4233569999999958,"midi":53,"time":82.33572799999999,"velocity":0.4015748031496063},{"duration":1.4233569999999958,"midi":49,"time":82.33572799999999,"velocity":0.4015748031496063},{"duration":0.218978000000007,"midi":25,"time":82.33572799999999,"velocity":0.4015748031496063},{"duration":0.218978000000007,"midi":37,"time":82.33572799999999,"velocity":0.4015748031496063},{"duration":0.218978000000007,"midi":37,"time":82.44521699999999,"velocity":0.4015748031496063},{"duration":0.218978000000007,"midi":25,"time":82.44521699999999,"velocity":0.4015748031496063},{"duration":0.2189779999999928,"midi":54,"time":82.554706,"velocity":0.4015748031496063},{"duration":0.2189779999999928,"midi":37,"time":82.554706,"velocity":0.4015748031496063},{"duration":0.2189779999999928,"midi":25,"time":82.554706,"velocity":0.4015748031496063},{"duration":0.2189779999999928,"midi":37,"time":82.66419499999999,"velocity":0.4015748031496063},{"duration":0.2189779999999928,"midi":25,"time":82.66419499999999,"velocity":0.4015748031496063},{"duration":0.218978000000007,"midi":61,"time":82.77368399999999,"velocity":0.4015748031496063},{"duration":0.218978000000007,"midi":37,"time":82.77368399999999,"velocity":0.4015748031496063},{"duration":0.218978000000007,"midi":25,"time":82.77368399999999,"velocity":0.4015748031496063},{"duration":0.218978000000007,"midi":25,"time":82.88317299999999,"velocity":0.4015748031496063},{"duration":0.218978000000007,"midi":37,"time":82.88317299999999,"velocity":0.4015748031496063},{"duration":0.2189779999999928,"midi":37,"time":82.992662,"velocity":0.4015748031496063},{"duration":0.2189779999999928,"midi":25,"time":82.992662,"velocity":0.4015748031496063},{"duration":0.2189779999999928,"midi":25,"time":83.10215099999999,"velocity":0.4015748031496063},{"duration":0.2189779999999928,"midi":37,"time":83.10215099999999,"velocity":0.4015748031496063},{"duration":0.218978000000007,"midi":54,"time":83.21163999999999,"velocity":0.4015748031496063},{"duration":0.218978000000007,"midi":25,"time":83.21163999999999,"velocity":0.4015748031496063},{"duration":0.218978000000007,"midi":37,"time":83.21163999999999,"velocity":0.4015748031496063},{"duration":0.218978000000007,"midi":54,"time":83.32112899999998,"velocity":0.4015748031496063},{"duration":0.218978000000007,"midi":37,"time":83.32112899999998,"velocity":0.4015748031496063},{"duration":0.218978000000007,"midi":25,"time":83.32112899999998,"velocity":0.4015748031496063},{"duration":0.2189779999999928,"midi":37,"time":83.430618,"velocity":0.4015748031496063},{"duration":0.2189779999999928,"midi":25,"time":83.430618,"velocity":0.4015748031496063},{"duration":0.2189779999999928,"midi":54,"time":83.430618,"velocity":0.4015748031496063},{"duration":0.2189779999999928,"midi":54,"time":83.54010699999999,"velocity":0.4015748031496063},{"duration":0.2189779999999928,"midi":25,"time":83.54010699999999,"velocity":0.4015748031496063},{"duration":0.2189779999999928,"midi":37,"time":83.54010699999999,"velocity":0.4015748031496063},{"duration":0.218978000000007,"midi":25,"time":83.64959599999999,"velocity":0.4015748031496063},{"duration":0.218978000000007,"midi":37,"time":83.64959599999999,"velocity":0.4015748031496063},{"duration":0.4379559999999998,"midi":53,"time":83.64959599999999,"velocity":0.4015748031496063},{"duration":0.4379559999999998,"midi":49,"time":83.64959599999999,"velocity":0.4015748031496063},{"duration":0.218978000000007,"midi":61,"time":83.64959599999999,"velocity":0.4015748031496063},{"duration":0.4379559999999998,"midi":56,"time":83.64959599999999,"velocity":0.4015748031496063},{"duration":0.218978000000007,"midi":37,"time":83.75908499999998,"velocity":0.4015748031496063},{"duration":0.218978000000007,"midi":25,"time":83.75908499999998,"velocity":0.4015748031496063},{"duration":0.2189779999999928,"midi":25,"time":83.868574,"velocity":0.4015748031496063},{"duration":0.2189779999999928,"midi":37,"time":83.868574,"velocity":0.4015748031496063},{"duration":0.218978000000007,"midi":54,"time":112.11673599999999,"velocity":0.4015748031496063},{"duration":0.1094890000000106,"midi":66,"time":112.22622499999999,"velocity":0.4015748031496063},{"duration":0.1094889999999964,"midi":66,"time":112.335714,"velocity":0.4015748031496063},{"duration":0.1094889999999964,"midi":66,"time":112.44520299999999,"velocity":0.4015748031496063},{"duration":0.1094889999999964,"midi":66,"time":112.55469199999999,"velocity":0.4015748031496063},{"duration":0.1094890000000106,"midi":66,"time":112.66418099999999,"velocity":0.4015748031496063},{"duration":0.1094889999999964,"midi":54,"time":112.77367,"velocity":0.4015748031496063},{"duration":0.1094889999999964,"midi":66,"time":112.88315899999999,"velocity":0.4015748031496063},{"duration":0.1094889999999964,"midi":66,"time":112.99264799999999,"velocity":0.4015748031496063},{"duration":0.1094890000000106,"midi":54,"time":113.10213699999998,"velocity":0.4015748031496063},{"duration":0.1094889999999964,"midi":54,"time":113.211626,"velocity":0.4015748031496063},{"duration":0.1094889999999964,"midi":54,"time":113.32111499999999,"velocity":0.4015748031496063},{"duration":0.1094889999999964,"midi":66,"time":113.43060399999999,"velocity":0.4015748031496063},{"duration":0.1094890000000106,"midi":54,"time":113.54009299999998,"velocity":0.4015748031496063},{"duration":0.1094889999999964,"midi":54,"time":113.649582,"velocity":0.4015748031496063},{"duration":0.1094889999999964,"midi":54,"time":113.75907099999999,"velocity":0.4015748031496063},{"duration":0.218978000000007,"midi":53,"time":113.86855999999999,"velocity":0.4015748031496063},{"duration":0.1094890000000106,"midi":65,"time":113.97804899999998,"velocity":0.4015748031496063},{"duration":0.1094889999999964,"midi":65,"time":114.087538,"velocity":0.4015748031496063},{"duration":0.1094889999999964,"midi":65,"time":114.19702699999999,"velocity":0.4015748031496063},{"duration":0.1094889999999964,"midi":65,"time":114.30651599999999,"velocity":0.4015748031496063},{"duration":0.1094890000000106,"midi":65,"time":114.41600499999998,"velocity":0.4015748031496063},{"duration":0.1094889999999964,"midi":53,"time":114.525494,"velocity":0.4015748031496063},{"duration":0.1094889999999964,"midi":65,"time":114.63498299999999,"velocity":0.4015748031496063},{"duration":0.1094890000000106,"midi":53,"time":114.85396099999998,"velocity":0.4015748031496063},{"duration":0.1094889999999964,"midi":53,"time":114.96345,"velocity":0.4015748031496063},{"duration":0.1094889999999964,"midi":53,"time":115.07293899999999,"velocity":0.4015748031496063},{"duration":0.1094889999999964,"midi":65,"time":115.18242799999999,"velocity":0.4015748031496063},{"duration":0.1094890000000106,"midi":53,"time":115.29191699999998,"velocity":0.4015748031496063},{"duration":0.1094889999999964,"midi":53,"time":115.401406,"velocity":0.4015748031496063},{"duration":0.1094889999999964,"midi":53,"time":115.51089499999999,"velocity":0.4015748031496063},{"duration":0.218978000000007,"midi":50,"time":115.62038399999999,"velocity":0.4015748031496063},{"duration":0.1094890000000106,"midi":62,"time":115.72987299999998,"velocity":0.4015748031496063},{"duration":0.1094889999999964,"midi":62,"time":115.839362,"velocity":0.4015748031496063},{"duration":0.1094889999999964,"midi":50,"time":115.94885099999999,"velocity":0.4015748031496063},{"duration":0.1094889999999964,"midi":50,"time":116.05833999999999,"velocity":0.4015748031496063},{"duration":0.1094890000000106,"midi":50,"time":116.16782899999998,"velocity":0.4015748031496063},{"duration":0.1094889999999964,"midi":62,"time":116.277318,"velocity":0.4015748031496063},{"duration":0.1094890000000106,"midi":50,"time":116.60578499999998,"velocity":0.4015748031496063},{"duration":0.1094889999999964,"midi":50,"time":116.715274,"velocity":0.4015748031496063},{"duration":0.1094889999999964,"midi":50,"time":116.82476299999999,"velocity":0.4015748031496063},{"duration":0.1094889999999964,"midi":62,"time":116.93425199999999,"velocity":0.4015748031496063},{"duration":0.1094890000000106,"midi":50,"time":117.04374099999998,"velocity":0.4015748031496063},{"duration":0.1094889999999964,"midi":50,"time":117.15323,"velocity":0.4015748031496063},{"duration":0.1094889999999964,"midi":50,"time":117.26271899999999,"velocity":0.4015748031496063},{"duration":0.218978000000007,"midi":49,"time":117.37220799999999,"velocity":0.4015748031496063},{"duration":0.1094890000000106,"midi":61,"time":117.48169699999998,"velocity":0.4015748031496063},{"duration":0.1094889999999964,"midi":61,"time":117.591186,"velocity":0.4015748031496063},{"duration":0.1094889999999964,"midi":49,"time":117.70067499999999,"velocity":0.4015748031496063},{"duration":0.1094889999999964,"midi":49,"time":117.81016399999999,"velocity":0.4015748031496063},{"duration":0.1094890000000106,"midi":49,"time":117.91965299999998,"velocity":0.4015748031496063},{"duration":0.1094889999999964,"midi":61,"time":118.029142,"velocity":0.4015748031496063},{"duration":0.1094889999999964,"midi":61,"time":118.13863099999999,"velocity":0.4015748031496063},{"duration":0.1094890000000106,"midi":49,"time":118.35760899999998,"velocity":0.4015748031496063},{"duration":0.1094889999999964,"midi":49,"time":118.467098,"velocity":0.4015748031496063},{"duration":0.1094889999999964,"midi":49,"time":118.57658699999999,"velocity":0.4015748031496063},{"duration":0.1094889999999964,"midi":61,"time":118.68607599999999,"velocity":0.4015748031496063},{"duration":0.1094890000000106,"midi":49,"time":118.79556499999998,"velocity":0.4015748031496063},{"duration":0.1094889999999964,"midi":49,"time":118.90505399999999,"velocity":0.4015748031496063},{"duration":0.1094889999999964,"midi":49,"time":119.01454299999999,"velocity":0.4015748031496063},{"duration":0.218978000000007,"midi":54,"time":119.12403199999999,"velocity":0.4015748031496063},{"duration":0.1094890000000106,"midi":66,"time":119.23352099999998,"velocity":0.4015748031496063},{"duration":0.1094889999999964,"midi":66,"time":119.34300999999999,"velocity":0.4015748031496063},{"duration":0.1094889999999964,"midi":66,"time":119.45249899999999,"velocity":0.4015748031496063},{"duration":0.1094889999999964,"midi":66,"time":119.56198799999999,"velocity":0.4015748031496063},{"duration":0.1094890000000106,"midi":66,"time":119.67147699999998,"velocity":0.4015748031496063},{"duration":0.1094889999999964,"midi":54,"time":119.78096599999999,"velocity":0.4015748031496063},{"duration":0.1094889999999964,"midi":66,"time":119.89045499999999,"velocity":0.4015748031496063},{"duration":0.1094889999999964,"midi":66,"time":119.99994399999999,"velocity":0.4015748031496063},{"duration":0.1094890000000106,"midi":54,"time":120.10943299999998,"velocity":0.4015748031496063},{"duration":0.1094889999999964,"midi":54,"time":120.21892199999999,"velocity":0.4015748031496063},{"duration":0.1094889999999964,"midi":54,"time":120.32841099999999,"velocity":0.4015748031496063},{"duration":0.1094889999999964,"midi":66,"time":120.43789999999998,"velocity":0.4015748031496063},{"duration":0.1094890000000106,"midi":54,"time":120.54738899999998,"velocity":0.4015748031496063},{"duration":0.1094889999999964,"midi":54,"time":120.65687799999999,"velocity":0.4015748031496063},{"duration":0.1094889999999964,"midi":54,"time":120.76636699999999,"velocity":0.4015748031496063},{"duration":0.218978000000007,"midi":53,"time":120.87585599999998,"velocity":0.4015748031496063},{"duration":0.1094890000000106,"midi":65,"time":120.98534499999998,"velocity":0.4015748031496063},{"duration":0.1094889999999964,"midi":65,"time":121.09483399999999,"velocity":0.4015748031496063},{"duration":0.1094889999999964,"midi":65,"time":121.20432299999999,"velocity":0.4015748031496063},{"duration":0.1094889999999964,"midi":65,"time":121.31381199999998,"velocity":0.4015748031496063},{"duration":0.1094890000000106,"midi":65,"time":121.42330099999998,"velocity":0.4015748031496063},{"duration":0.1094889999999964,"midi":53,"time":121.53278999999999,"velocity":0.4015748031496063},{"duration":0.1094889999999964,"midi":65,"time":121.64227899999999,"velocity":0.4015748031496063},{"duration":0.1094889999999964,"midi":53,"time":121.861257,"velocity":0.4015748031496063},{"duration":0.1094889999999964,"midi":53,"time":121.97074599999999,"velocity":0.4015748031496063},{"duration":0.1094889999999964,"midi":53,"time":122.08023499999999,"velocity":0.4015748031496063},{"duration":0.1094890000000106,"midi":65,"time":122.18972399999998,"velocity":0.4015748031496063},{"duration":0.1094889999999964,"midi":53,"time":122.299213,"velocity":0.4015748031496063},{"duration":0.1094889999999964,"midi":53,"time":122.40870199999999,"velocity":0.4015748031496063},{"duration":0.1094889999999964,"midi":53,"time":122.51819099999999,"velocity":0.4015748031496063},{"duration":0.218978000000007,"midi":50,"time":122.62767999999998,"velocity":0.4015748031496063},{"duration":0.1094889999999964,"midi":62,"time":122.737169,"velocity":0.4015748031496063},{"duration":0.1094889999999964,"midi":62,"time":122.84665799999999,"velocity":0.4015748031496063},{"duration":0.1094889999999964,"midi":50,"time":122.95614699999999,"velocity":0.4015748031496063},{"duration":0.1094890000000106,"midi":50,"time":123.06563599999998,"velocity":0.4015748031496063},{"duration":0.1094889999999964,"midi":50,"time":123.175125,"velocity":0.4015748031496063},{"duration":0.1094889999999964,"midi":62,"time":123.28461399999999,"velocity":0.4015748031496063},{"duration":0.1094889999999964,"midi":62,"time":123.39410299999999,"velocity":0.4015748031496063},{"duration":0.1094889999999964,"midi":50,"time":123.613081,"velocity":0.4015748031496063},{"duration":0.1094889999999964,"midi":50,"time":123.72256999999999,"velocity":0.4015748031496063},{"duration":0.1094889999999964,"midi":50,"time":123.83205899999999,"velocity":0.4015748031496063},{"duration":0.1094890000000106,"midi":62,"time":123.94154799999998,"velocity":0.4015748031496063},{"duration":0.1094889999999964,"midi":50,"time":124.051037,"velocity":0.4015748031496063},{"duration":0.1094889999999964,"midi":50,"time":124.16052599999999,"velocity":0.4015748031496063},{"duration":0.1094889999999964,"midi":50,"time":124.27001499999999,"velocity":0.4015748031496063},{"duration":0.218978000000007,"midi":49,"time":124.37950399999998,"velocity":0.4015748031496063},{"duration":0.1094889999999964,"midi":61,"time":124.488993,"velocity":0.4015748031496063},{"duration":0.1094889999999964,"midi":61,"time":124.59848199999999,"velocity":0.4015748031496063},{"duration":0.1094889999999964,"midi":49,"time":124.70797099999999,"velocity":0.4015748031496063},{"duration":0.1094890000000106,"midi":49,"time":124.81745999999998,"velocity":0.4015748031496063},{"duration":0.1094889999999964,"midi":49,"time":124.926949,"velocity":0.4015748031496063},{"duration":0.1094889999999964,"midi":61,"time":125.03643799999999,"velocity":0.4015748031496063},{"duration":0.1094889999999964,"midi":61,"time":125.14592699999999,"velocity":0.4015748031496063},{"duration":0.1094890000000106,"midi":49,"time":125.25541599999998,"velocity":0.4015748031496063},{"duration":0.1094889999999964,"midi":49,"time":125.364905,"velocity":0.4015748031496063},{"duration":0.1094889999999964,"midi":49,"time":125.47439399999999,"velocity":0.4015748031496063},{"duration":0.1094889999999964,"midi":49,"time":125.58388299999999,"velocity":0.4015748031496063},{"duration":0.1094890000000106,"midi":61,"time":125.69337199999998,"velocity":0.4015748031496063},{"duration":0.1094889999999964,"midi":49,"time":125.802861,"velocity":0.4015748031496063},{"duration":0.1094889999999964,"midi":49,"time":125.91234999999999,"velocity":0.4015748031496063},{"duration":0.1094889999999964,"midi":49,"time":126.02183899999999,"velocity":0.4015748031496063},{"duration":0.218978000000007,"midi":54,"time":126.13132799999998,"velocity":0.4015748031496063},{"duration":0.1094889999999964,"midi":66,"time":126.24081699999999,"velocity":0.4015748031496063},{"duration":0.1094889999999964,"midi":66,"time":126.35030599999999,"velocity":0.4015748031496063},{"duration":0.1094889999999964,"midi":66,"time":126.45979499999999,"velocity":0.4015748031496063},{"duration":0.1094890000000106,"midi":66,"time":126.56928399999998,"velocity":0.4015748031496063},{"duration":0.1094889999999964,"midi":66,"time":126.67877299999999,"velocity":0.4015748031496063},{"duration":0.1094889999999964,"midi":54,"time":126.78826199999999,"velocity":0.4015748031496063},{"duration":0.1094889999999964,"midi":66,"time":126.89775099999999,"velocity":0.4015748031496063},{"duration":0.1094890000000106,"midi":66,"time":127.00723999999998,"velocity":0.4015748031496063},{"duration":0.1094889999999964,"midi":54,"time":127.11672899999999,"velocity":0.4015748031496063},{"duration":0.1094889999999964,"midi":54,"time":127.22621799999999,"velocity":0.4015748031496063},{"duration":0.1094889999999964,"midi":54,"time":127.33570699999999,"velocity":0.4015748031496063},{"duration":0.1094890000000106,"midi":66,"time":127.44519599999998,"velocity":0.4015748031496063},{"duration":0.1094889999999964,"midi":54,"time":127.55468499999999,"velocity":0.4015748031496063},{"duration":0.1094889999999964,"midi":54,"time":127.66417399999999,"velocity":0.4015748031496063},{"duration":0.1094889999999964,"midi":54,"time":127.77366299999998,"velocity":0.4015748031496063},{"duration":0.218978000000007,"midi":53,"time":127.88315199999998,"velocity":0.4015748031496063},{"duration":0.1094889999999964,"midi":65,"time":127.99264099999999,"velocity":0.4015748031496063},{"duration":0.1094889999999964,"midi":65,"time":128.10213,"velocity":0.4015748031496063},{"duration":0.1094889999999964,"midi":65,"time":128.21161899999998,"velocity":0.4015748031496063},{"duration":0.1094889999999964,"midi":65,"time":128.32110799999998,"velocity":0.4015748031496063},{"duration":0.1094889999999964,"midi":65,"time":128.43059699999998,"velocity":0.4015748031496063},{"duration":0.10948900000002482,"midi":53,"time":128.54008599999997,"velocity":0.4015748031496063},{"duration":0.1094889999999964,"midi":65,"time":128.649575,"velocity":0.4015748031496063},{"duration":0.1094889999999964,"midi":53,"time":128.868553,"velocity":0.4015748031496063},{"duration":0.1094889999999964,"midi":53,"time":128.978042,"velocity":0.4015748031496063},{"duration":0.1094889999999964,"midi":53,"time":129.08753099999998,"velocity":0.4015748031496063},{"duration":0.1094889999999964,"midi":65,"time":129.19701999999998,"velocity":0.4015748031496063},{"duration":0.1094889999999964,"midi":53,"time":129.30650899999998,"velocity":0.4015748031496063},{"duration":0.10948900000002482,"midi":53,"time":129.41599799999997,"velocity":0.4015748031496063},{"duration":0.1094889999999964,"midi":53,"time":129.525487,"velocity":0.4015748031496063},{"duration":0.2189779999999928,"midi":50,"time":129.634976,"velocity":0.4015748031496063},{"duration":0.1094889999999964,"midi":62,"time":129.744465,"velocity":0.4015748031496063},{"duration":0.1094889999999964,"midi":62,"time":129.853954,"velocity":0.4015748031496063},{"duration":0.1094889999999964,"midi":50,"time":129.96344299999998,"velocity":0.4015748031496063},{"duration":0.1094889999999964,"midi":50,"time":130.07293199999998,"velocity":0.4015748031496063},{"duration":0.1094889999999964,"midi":50,"time":130.18242099999998,"velocity":0.4015748031496063},{"duration":0.10948900000002482,"midi":62,"time":130.29190999999997,"velocity":0.4015748031496063},{"duration":0.1094889999999964,"midi":62,"time":130.401399,"velocity":0.4015748031496063},{"duration":0.1094889999999964,"midi":50,"time":130.620377,"velocity":0.4015748031496063},{"duration":0.1094889999999964,"midi":50,"time":130.729866,"velocity":0.4015748031496063},{"duration":0.1094889999999964,"midi":50,"time":130.83935499999998,"velocity":0.4015748031496063},{"duration":0.1094889999999964,"midi":62,"time":130.94884399999998,"velocity":0.4015748031496063},{"duration":0.10948900000002482,"midi":50,"time":131.05833299999998,"velocity":0.4015748031496063},{"duration":0.1094889999999964,"midi":50,"time":131.167822,"velocity":0.4015748031496063},{"duration":0.1094889999999964,"midi":50,"time":131.277311,"velocity":0.4015748031496063},{"duration":0.2189779999999928,"midi":49,"time":131.3868,"velocity":0.4015748031496063},{"duration":0.1094889999999964,"midi":61,"time":131.496289,"velocity":0.4015748031496063},{"duration":0.1094889999999964,"midi":61,"time":131.605778,"velocity":0.4015748031496063},{"duration":0.1094889999999964,"midi":49,"time":131.71526699999998,"velocity":0.4015748031496063},{"duration":0.1094889999999964,"midi":49,"time":131.82475599999998,"velocity":0.4015748031496063},{"duration":0.10948900000002482,"midi":49,"time":131.93424499999998,"velocity":0.4015748031496063},{"duration":0.1094889999999964,"midi":61,"time":132.043734,"velocity":0.4015748031496063},{"duration":0.1094889999999964,"midi":61,"time":132.153223,"velocity":0.4015748031496063},{"duration":0.1094889999999964,"midi":49,"time":132.262712,"velocity":0.4015748031496063},{"duration":0.1094889999999964,"midi":49,"time":132.372201,"velocity":0.4015748031496063},{"duration":0.1094889999999964,"midi":49,"time":132.48169,"velocity":0.4015748031496063},{"duration":0.1094889999999964,"midi":49,"time":132.59117899999998,"velocity":0.4015748031496063},{"duration":0.1094889999999964,"midi":61,"time":132.70066799999998,"velocity":0.4015748031496063},{"duration":0.10948900000002482,"midi":49,"time":132.81015699999998,"velocity":0.4015748031496063},{"duration":0.1094889999999964,"midi":49,"time":132.919646,"velocity":0.4015748031496063},{"duration":0.1094889999999964,"midi":49,"time":133.029135,"velocity":0.4015748031496063},{"duration":0.2189779999999928,"midi":54,"time":133.138624,"velocity":0.4015748031496063},{"duration":0.1094889999999964,"midi":66,"time":133.248113,"velocity":0.4015748031496063},{"duration":0.1094889999999964,"midi":66,"time":133.35760199999999,"velocity":0.4015748031496063},{"duration":0.1094889999999964,"midi":66,"time":133.46709099999998,"velocity":0.4015748031496063},{"duration":0.1094889999999964,"midi":66,"time":133.57657999999998,"velocity":0.4015748031496063},{"duration":0.10948900000002482,"midi":66,"time":133.68606899999997,"velocity":0.4015748031496063},{"duration":0.1094889999999964,"midi":54,"time":133.795558,"velocity":0.4015748031496063},{"duration":0.1094889999999964,"midi":66,"time":133.905047,"velocity":0.4015748031496063},{"duration":0.1094889999999964,"midi":66,"time":134.014536,"velocity":0.4015748031496063},{"duration":0.1094889999999964,"midi":54,"time":134.124025,"velocity":0.4015748031496063},{"duration":0.1094889999999964,"midi":54,"time":134.23351399999999,"velocity":0.4015748031496063},{"duration":0.1094889999999964,"midi":54,"time":134.34300299999998,"velocity":0.4015748031496063},{"duration":0.1094889999999964,"midi":66,"time":134.45249199999998,"velocity":0.4015748031496063},{"duration":0.10948900000002482,"midi":54,"time":134.56198099999997,"velocity":0.4015748031496063},{"duration":0.1094889999999964,"midi":54,"time":134.67147,"velocity":0.4015748031496063},{"duration":0.1094889999999964,"midi":54,"time":134.780959,"velocity":0.4015748031496063},{"duration":0.2189779999999928,"midi":54,"time":134.890448,"velocity":0.4015748031496063},{"duration":0.1094889999999964,"midi":66,"time":134.999937,"velocity":0.4015748031496063},{"duration":0.1094889999999964,"midi":66,"time":135.10942599999998,"velocity":0.4015748031496063},{"duration":0.1094889999999964,"midi":66,"time":135.21891499999998,"velocity":0.4015748031496063},{"duration":0.1094889999999964,"midi":66,"time":135.32840399999998,"velocity":0.4015748031496063},{"duration":0.10948900000002482,"midi":66,"time":135.43789299999997,"velocity":0.4015748031496063},{"duration":0.1094889999999964,"midi":54,"time":135.547382,"velocity":0.4015748031496063},{"duration":0.1094889999999964,"midi":66,"time":135.656871,"velocity":0.4015748031496063},{"duration":0.1094889999999964,"midi":66,"time":135.76636,"velocity":0.4015748031496063},{"duration":0.1094889999999964,"midi":54,"time":135.875849,"velocity":0.4015748031496063},{"duration":0.1094889999999964,"midi":54,"time":135.98533799999998,"velocity":0.4015748031496063},{"duration":0.1094889999999964,"midi":54,"time":136.09482699999998,"velocity":0.4015748031496063},{"duration":0.1094889999999964,"midi":66,"time":136.20431599999998,"velocity":0.4015748031496063},{"duration":0.10948900000002482,"midi":54,"time":136.31380499999997,"velocity":0.4015748031496063},{"duration":0.1094889999999964,"midi":54,"time":136.423294,"velocity":0.4015748031496063},{"duration":0.1094889999999964,"midi":54,"time":136.532783,"velocity":0.4015748031496063},{"duration":0.2189779999999928,"midi":54,"time":136.642272,"velocity":0.4015748031496063},{"duration":0.1094889999999964,"midi":66,"time":136.751761,"velocity":0.4015748031496063},{"duration":0.1094889999999964,"midi":66,"time":136.86124999999998,"velocity":0.4015748031496063},{"duration":0.1094889999999964,"midi":66,"time":136.97073899999998,"velocity":0.4015748031496063},{"duration":0.1094889999999964,"midi":66,"time":137.08022799999998,"velocity":0.4015748031496063},{"duration":0.10948900000002482,"midi":66,"time":137.18971699999997,"velocity":0.4015748031496063},{"duration":0.1094889999999964,"midi":54,"time":137.299206,"velocity":0.4015748031496063},{"duration":0.1094889999999964,"midi":66,"time":137.408695,"velocity":0.4015748031496063},{"duration":0.1094889999999964,"midi":66,"time":137.518184,"velocity":0.4015748031496063},{"duration":0.1094889999999964,"midi":54,"time":137.627673,"velocity":0.4015748031496063},{"duration":0.1094889999999964,"midi":54,"time":137.73716199999998,"velocity":0.4015748031496063},{"duration":0.1094889999999964,"midi":54,"time":137.84665099999998,"velocity":0.4015748031496063},{"duration":0.1094889999999964,"midi":66,"time":137.95613999999998,"velocity":0.4015748031496063},{"duration":0.10948900000002482,"midi":54,"time":138.06562899999997,"velocity":0.4015748031496063},{"duration":0.1094889999999964,"midi":54,"time":138.175118,"velocity":0.4015748031496063},{"duration":0.1094889999999964,"midi":54,"time":138.284607,"velocity":0.4015748031496063},{"duration":0.2189779999999928,"midi":42,"time":138.394096,"velocity":0.4015748031496063},{"duration":0.2189779999999928,"midi":54,"time":138.394096,"velocity":0.4015748031496063},{"duration":1.4233569999999816,"midi":57,"time":138.394096,"velocity":0.4015748031496063},{"duration":0.6569340000000068,"midi":61,"time":138.394096,"velocity":0.4015748031496063},{"duration":0.2189779999999928,"midi":30,"time":138.394096,"velocity":0.4015748031496063},{"duration":0.4379559999999856,"midi":54,"time":138.394096,"velocity":0.4015748031496063},{"duration":0.2189779999999928,"midi":30,"time":138.503585,"velocity":0.4015748031496063},{"duration":0.2189779999999928,"midi":42,"time":138.503585,"velocity":0.4015748031496063},{"duration":0.2189779999999928,"midi":30,"time":138.61307399999998,"velocity":0.4015748031496063},{"duration":0.8759119999999996,"midi":54,"time":138.61307399999998,"velocity":0.4015748031496063},{"duration":0.2189779999999928,"midi":42,"time":138.61307399999998,"velocity":0.4015748031496063},{"duration":0.2189779999999928,"midi":30,"time":138.72256299999998,"velocity":0.4015748031496063},{"duration":0.2189779999999928,"midi":42,"time":138.72256299999998,"velocity":0.4015748031496063},{"duration":0.985400999999996,"midi":61,"time":138.83205199999998,"velocity":0.4015748031496063},{"duration":0.2189780000000212,"midi":30,"time":138.83205199999998,"velocity":0.4015748031496063},{"duration":0.2189780000000212,"midi":42,"time":138.83205199999998,"velocity":0.4015748031496063},{"duration":0.2189780000000212,"midi":30,"time":138.94154099999997,"velocity":0.4015748031496063},{"duration":0.2189780000000212,"midi":42,"time":138.94154099999997,"velocity":0.4015748031496063},{"duration":0.2189779999999928,"midi":30,"time":139.05103,"velocity":0.4015748031496063},{"duration":0.2189779999999928,"midi":42,"time":139.05103,"velocity":0.4015748031496063},{"duration":0.2189779999999928,"midi":42,"time":139.160519,"velocity":0.4015748031496063},{"duration":0.2189779999999928,"midi":30,"time":139.160519,"velocity":0.4015748031496063},{"duration":0.2189779999999928,"midi":30,"time":139.270008,"velocity":0.4015748031496063},{"duration":0.2189779999999928,"midi":42,"time":139.270008,"velocity":0.4015748031496063},{"duration":0.3284669999999892,"midi":54,"time":139.270008,"velocity":0.4015748031496063},{"duration":0.2189779999999928,"midi":30,"time":139.379497,"velocity":0.4015748031496063},{"duration":0.2189779999999928,"midi":42,"time":139.379497,"velocity":0.4015748031496063},{"duration":0.3284669999999892,"midi":54,"time":139.379497,"velocity":0.4015748031496063},{"duration":0.3284669999999892,"midi":54,"time":139.48898599999998,"velocity":0.4015748031496063},{"duration":0.2189779999999928,"midi":42,"time":139.48898599999998,"velocity":0.4015748031496063},{"duration":0.2189779999999928,"midi":30,"time":139.48898599999998,"velocity":0.4015748031496063},{"duration":0.2189779999999928,"midi":54,"time":139.59847499999998,"velocity":0.4015748031496063},{"duration":0.2189779999999928,"midi":42,"time":139.59847499999998,"velocity":0.4015748031496063},{"duration":0.2189779999999928,"midi":30,"time":139.59847499999998,"velocity":0.4015748031496063},{"duration":0.2189780000000212,"midi":42,"time":139.70796399999998,"velocity":0.4015748031496063},{"duration":0.437956000000014,"midi":57,"time":139.70796399999998,"velocity":0.4015748031496063},{"duration":0.2189780000000212,"midi":61,"time":139.70796399999998,"velocity":0.4015748031496063},{"duration":0.2189780000000212,"midi":30,"time":139.70796399999998,"velocity":0.4015748031496063},{"duration":0.437956000000014,"midi":61,"time":139.70796399999998,"velocity":0.4015748031496063},{"duration":0.437956000000014,"midi":54,"time":139.70796399999998,"velocity":0.4015748031496063},{"duration":0.2189780000000212,"midi":30,"time":139.81745299999997,"velocity":0.4015748031496063},{"duration":0.2189780000000212,"midi":42,"time":139.81745299999997,"velocity":0.4015748031496063},{"duration":0.2189779999999928,"midi":42,"time":139.926942,"velocity":0.4015748031496063},{"duration":0.2189779999999928,"midi":30,"time":139.926942,"velocity":0.4015748031496063},{"duration":0.2189779999999928,"midi":42,"time":140.036431,"velocity":0.4015748031496063},{"duration":0.2189779999999928,"midi":30,"time":140.036431,"velocity":0.4015748031496063},{"duration":1.42335700000001,"midi":56,"time":140.14592,"velocity":0.4015748031496063},{"duration":0.2189779999999928,"midi":54,"time":140.14592,"velocity":0.4015748031496063},{"duration":1.42335700000001,"midi":49,"time":140.14592,"velocity":0.4015748031496063},{"duration":1.42335700000001,"midi":53,"time":140.14592,"velocity":0.4015748031496063},{"duration":0.2189779999999928,"midi":37,"time":140.14592,"velocity":0.4015748031496063},{"duration":0.2189779999999928,"midi":29,"time":140.14592,"velocity":0.4015748031496063},{"duration":0.2189779999999928,"midi":37,"time":140.255409,"velocity":0.4015748031496063},{"duration":0.2189779999999928,"midi":29,"time":140.255409,"velocity":0.4015748031496063},{"duration":0.2189779999999928,"midi":37,"time":140.36489799999998,"velocity":0.4015748031496063},{"duration":0.2189779999999928,"midi":29,"time":140.36489799999998,"velocity":0.4015748031496063},{"duration":0.2189779999999928,"midi":54,"time":140.36489799999998,"velocity":0.4015748031496063},{"duration":0.2189780000000212,"midi":37,"time":140.47438699999998,"velocity":0.4015748031496063},{"duration":0.2189780000000212,"midi":29,"time":140.47438699999998,"velocity":0.4015748031496063},{"duration":0.2189780000000212,"midi":61,"time":140.58387599999998,"velocity":0.4015748031496063},{"duration":0.2189780000000212,"midi":37,"time":140.58387599999998,"velocity":0.4015748031496063},{"duration":0.2189780000000212,"midi":29,"time":140.58387599999998,"velocity":0.4015748031496063},{"duration":0.2189779999999928,"midi":29,"time":140.693365,"velocity":0.4015748031496063},{"duration":0.2189779999999928,"midi":37,"time":140.693365,"velocity":0.4015748031496063},{"duration":0.2189779999999928,"midi":37,"time":140.802854,"velocity":0.4015748031496063},{"duration":0.2189779999999928,"midi":29,"time":140.802854,"velocity":0.4015748031496063},{"duration":0.2189779999999928,"midi":37,"time":140.912343,"velocity":0.4015748031496063},{"duration":0.2189779999999928,"midi":29,"time":140.912343,"velocity":0.4015748031496063},{"duration":0.2189779999999928,"midi":29,"time":141.021832,"velocity":0.4015748031496063},{"duration":0.2189779999999928,"midi":37,"time":141.021832,"velocity":0.4015748031496063},{"duration":0.2189779999999928,"midi":54,"time":141.021832,"velocity":0.4015748031496063},{"duration":0.2189779999999928,"midi":29,"time":141.13132099999999,"velocity":0.4015748031496063},{"duration":0.2189779999999928,"midi":54,"time":141.13132099999999,"velocity":0.4015748031496063},{"duration":0.2189779999999928,"midi":37,"time":141.13132099999999,"velocity":0.4015748031496063},{"duration":0.2189779999999928,"midi":29,"time":141.24080999999998,"velocity":0.4015748031496063},{"duration":0.2189779999999928,"midi":37,"time":141.24080999999998,"velocity":0.4015748031496063},{"duration":0.2189779999999928,"midi":54,"time":141.24080999999998,"velocity":0.4015748031496063},{"duration":0.2189780000000212,"midi":29,"time":141.35029899999998,"velocity":0.4015748031496063},{"duration":0.2189780000000212,"midi":37,"time":141.35029899999998,"velocity":0.4015748031496063},{"duration":0.2189780000000212,"midi":54,"time":141.35029899999998,"velocity":0.4015748031496063},{"duration":0.437956000000014,"midi":49,"time":141.45978799999997,"velocity":0.4015748031496063},{"duration":0.437956000000014,"midi":53,"time":141.45978799999997,"velocity":0.4015748031496063},{"duration":0.2189780000000212,"midi":37,"time":141.45978799999997,"velocity":0.4015748031496063},{"duration":0.2189780000000212,"midi":61,"time":141.45978799999997,"velocity":0.4015748031496063},{"duration":0.437956000000014,"midi":56,"time":141.45978799999997,"velocity":0.4015748031496063},{"duration":0.2189780000000212,"midi":29,"time":141.45978799999997,"velocity":0.4015748031496063},{"duration":0.2189779999999928,"midi":37,"time":141.569277,"velocity":0.4015748031496063},{"duration":0.2189779999999928,"midi":29,"time":141.569277,"velocity":0.4015748031496063},{"duration":0.2189779999999928,"midi":29,"time":141.678766,"velocity":0.4015748031496063},{"duration":0.2189779999999928,"midi":37,"time":141.678766,"velocity":0.4015748031496063},{"duration":0.2189779999999928,"midi":38,"time":141.897744,"velocity":0.4015748031496063},{"duration":0.2189779999999928,"midi":54,"time":141.897744,"velocity":0.4015748031496063},{"duration":0.2189779999999928,"midi":30,"time":141.897744,"velocity":0.4015748031496063},{"duration":1.42335700000001,"midi":57,"time":141.897744,"velocity":0.4015748031496063},{"duration":0.4379559999999856,"midi":54,"time":141.897744,"velocity":0.4015748031496063},{"duration":1.42335700000001,"midi":50,"time":141.897744,"velocity":0.4015748031496063},{"duration":0.2189779999999928,"midi":38,"time":142.00723299999999,"velocity":0.4015748031496063},{"duration":0.2189779999999928,"midi":30,"time":142.00723299999999,"velocity":0.4015748031496063},{"duration":0.8759119999999996,"midi":54,"time":142.11672199999998,"velocity":0.4015748031496063},{"duration":0.2189779999999928,"midi":38,"time":142.11672199999998,"velocity":0.4015748031496063},{"duration":0.2189779999999928,"midi":30,"time":142.11672199999998,"velocity":0.4015748031496063},{"duration":0.2189780000000212,"midi":30,"time":142.22621099999998,"velocity":0.4015748031496063},{"duration":0.2189780000000212,"midi":38,"time":142.22621099999998,"velocity":0.4015748031496063},{"duration":0.2189780000000212,"midi":30,"time":142.33569999999997,"velocity":0.4015748031496063},{"duration":0.2189780000000212,"midi":38,"time":142.33569999999997,"velocity":0.4015748031496063},{"duration":0.2189780000000212,"midi":61,"time":142.33569999999997,"velocity":0.4015748031496063},{"duration":0.2189779999999928,"midi":30,"time":142.445189,"velocity":0.4015748031496063},{"duration":0.2189779999999928,"midi":38,"time":142.445189,"velocity":0.4015748031496063},{"duration":0.2189779999999928,"midi":30,"time":142.554678,"velocity":0.4015748031496063},{"duration":0.2189779999999928,"midi":38,"time":142.554678,"velocity":0.4015748031496063},{"duration":0.2189779999999928,"midi":30,"time":142.664167,"velocity":0.4015748031496063},{"duration":0.2189779999999928,"midi":38,"time":142.664167,"velocity":0.4015748031496063},{"duration":0.2189779999999928,"midi":38,"time":142.773656,"velocity":0.4015748031496063},{"duration":0.2189779999999928,"midi":30,"time":142.773656,"velocity":0.4015748031496063},{"duration":0.3284669999999892,"midi":54,"time":142.773656,"velocity":0.4015748031496063},{"duration":0.3284669999999892,"midi":54,"time":142.88314499999998,"velocity":0.4015748031496063},{"duration":0.2189779999999928,"midi":38,"time":142.88314499999998,"velocity":0.4015748031496063},{"duration":0.2189779999999928,"midi":30,"time":142.88314499999998,"velocity":0.4015748031496063},{"duration":0.3284670000000176,"midi":54,"time":142.99263399999998,"velocity":0.4015748031496063},{"duration":0.2189779999999928,"midi":30,"time":142.99263399999998,"velocity":0.4015748031496063},{"duration":0.2189779999999928,"midi":38,"time":142.99263399999998,"velocity":0.4015748031496063},{"duration":0.2189780000000212,"midi":38,"time":143.10212299999998,"velocity":0.4015748031496063},{"duration":0.2189780000000212,"midi":54,"time":143.10212299999998,"velocity":0.4015748031496063},{"duration":0.2189780000000212,"midi":30,"time":143.10212299999998,"velocity":0.4015748031496063},{"duration":0.437956000000014,"midi":54,"time":143.21161199999997,"velocity":0.4015748031496063},{"duration":0.437956000000014,"midi":50,"time":143.21161199999997,"velocity":0.4015748031496063},{"duration":0.2189780000000212,"midi":30,"time":143.21161199999997,"velocity":0.4015748031496063},{"duration":0.2189780000000212,"midi":61,"time":143.21161199999997,"velocity":0.4015748031496063},{"duration":0.437956000000014,"midi":57,"time":143.21161199999997,"velocity":0.4015748031496063},{"duration":0.2189780000000212,"midi":38,"time":143.21161199999997,"velocity":0.4015748031496063},{"duration":0.2189779999999928,"midi":38,"time":143.321101,"velocity":0.4015748031496063},{"duration":0.2189779999999928,"midi":30,"time":143.321101,"velocity":0.4015748031496063},{"duration":0.2189779999999928,"midi":38,"time":143.43059,"velocity":0.4015748031496063},{"duration":0.2189779999999928,"midi":30,"time":143.43059,"velocity":0.4015748031496063},{"duration":1.42335700000001,"midi":56,"time":143.649568,"velocity":0.4015748031496063},{"duration":1.42335700000001,"midi":49,"time":143.649568,"velocity":0.4015748031496063},{"duration":1.42335700000001,"midi":53,"time":143.649568,"velocity":0.4015748031496063},{"duration":0.2189779999999928,"midi":54,"time":143.649568,"velocity":0.4015748031496063},{"duration":0.2189779999999928,"midi":37,"time":143.649568,"velocity":0.4015748031496063},{"duration":0.2189779999999928,"midi":29,"time":143.649568,"velocity":0.4015748031496063},{"duration":0.2189779999999928,"midi":29,"time":143.75905699999998,"velocity":0.4015748031496063},{"duration":0.2189779999999928,"midi":37,"time":143.75905699999998,"velocity":0.4015748031496063},{"duration":0.2189779999999928,"midi":54,"time":143.86854599999998,"velocity":0.4015748031496063},{"duration":0.2189779999999928,"midi":29,"time":143.86854599999998,"velocity":0.4015748031496063},{"duration":0.2189779999999928,"midi":37,"time":143.86854599999998,"velocity":0.4015748031496063},{"duration":0.2189780000000212,"midi":29,"time":143.97803499999998,"velocity":0.4015748031496063},{"duration":0.2189780000000212,"midi":37,"time":143.97803499999998,"velocity":0.4015748031496063},{"duration":0.2189780000000212,"midi":37,"time":144.08752399999997,"velocity":0.4015748031496063},{"duration":0.2189780000000212,"midi":61,"time":144.08752399999997,"velocity":0.4015748031496063},{"duration":0.2189780000000212,"midi":29,"time":144.08752399999997,"velocity":0.4015748031496063},{"duration":0.2189779999999928,"midi":29,"time":144.197013,"velocity":0.4015748031496063},{"duration":0.2189779999999928,"midi":37,"time":144.197013,"velocity":0.4015748031496063},{"duration":0.2189779999999928,"midi":29,"time":144.306502,"velocity":0.4015748031496063},{"duration":0.2189779999999928,"midi":37,"time":144.306502,"velocity":0.4015748031496063},{"duration":0.2189779999999928,"midi":29,"time":144.415991,"velocity":0.4015748031496063},{"duration":0.2189779999999928,"midi":37,"time":144.415991,"velocity":0.4015748031496063},{"duration":0.2189779999999928,"midi":29,"time":144.52548,"velocity":0.4015748031496063},{"duration":0.2189779999999928,"midi":54,"time":144.52548,"velocity":0.4015748031496063},{"duration":0.2189779999999928,"midi":37,"time":144.52548,"velocity":0.4015748031496063},{"duration":0.2189779999999928,"midi":54,"time":144.63496899999998,"velocity":0.4015748031496063},{"duration":0.2189779999999928,"midi":37,"time":144.63496899999998,"velocity":0.4015748031496063},{"duration":0.2189779999999928,"midi":29,"time":144.63496899999998,"velocity":0.4015748031496063},{"duration":0.2189779999999928,"midi":29,"time":144.74445799999998,"velocity":0.4015748031496063},{"duration":0.2189779999999928,"midi":37,"time":144.74445799999998,"velocity":0.4015748031496063},{"duration":0.2189779999999928,"midi":54,"time":144.74445799999998,"velocity":0.4015748031496063},{"duration":0.2189780000000212,"midi":54,"time":144.85394699999998,"velocity":0.4015748031496063},{"duration":0.2189780000000212,"midi":29,"time":144.85394699999998,"velocity":0.4015748031496063},{"duration":0.2189780000000212,"midi":37,"time":144.85394699999998,"velocity":0.4015748031496063},{"duration":0.2189780000000212,"midi":37,"time":144.96343599999997,"velocity":0.4015748031496063},{"duration":0.2189780000000212,"midi":61,"time":144.96343599999997,"velocity":0.4015748031496063},{"duration":0.437956000000014,"midi":49,"time":144.96343599999997,"velocity":0.4015748031496063},{"duration":0.437956000000014,"midi":56,"time":144.96343599999997,"velocity":0.4015748031496063},{"duration":0.437956000000014,"midi":53,"time":144.96343599999997,"velocity":0.4015748031496063},{"duration":0.2189780000000212,"midi":29,"time":144.96343599999997,"velocity":0.4015748031496063},{"duration":0.2189779999999928,"midi":29,"time":145.072925,"velocity":0.4015748031496063},{"duration":0.2189779999999928,"midi":37,"time":145.072925,"velocity":0.4015748031496063},{"duration":0.2189779999999928,"midi":37,"time":145.182414,"velocity":0.4015748031496063},{"duration":0.2189779999999928,"midi":29,"time":145.182414,"velocity":0.4015748031496063},{"duration":0.2189779999999928,"midi":30,"time":145.401392,"velocity":0.4015748031496063},{"duration":0.2189779999999928,"midi":54,"time":145.401392,"velocity":0.4015748031496063},{"duration":0.6569340000000068,"midi":61,"time":145.401392,"velocity":0.4015748031496063},{"duration":0.2189779999999928,"midi":42,"time":145.401392,"velocity":0.4015748031496063},{"duration":1.42335700000001,"midi":57,"time":145.401392,"velocity":0.4015748031496063},{"duration":0.4379559999999856,"midi":54,"time":145.401392,"velocity":0.4015748031496063},{"duration":0.2189779999999928,"midi":42,"time":145.51088099999998,"velocity":0.4015748031496063},{"duration":0.2189779999999928,"midi":30,"time":145.51088099999998,"velocity":0.4015748031496063},{"duration":0.8759119999999996,"midi":54,"time":145.62036999999998,"velocity":0.4015748031496063},{"duration":0.2189779999999928,"midi":42,"time":145.62036999999998,"velocity":0.4015748031496063},{"duration":0.2189779999999928,"midi":30,"time":145.62036999999998,"velocity":0.4015748031496063},{"duration":0.2189780000000212,"midi":30,"time":145.72985899999998,"velocity":0.4015748031496063},{"duration":0.2189780000000212,"midi":42,"time":145.72985899999998,"velocity":0.4015748031496063},{"duration":0.2189780000000212,"midi":30,"time":145.83934799999997,"velocity":0.4015748031496063},{"duration":0.9854010000000244,"midi":61,"time":145.83934799999997,"velocity":0.4015748031496063},{"duration":0.2189780000000212,"midi":42,"time":145.83934799999997,"velocity":0.4015748031496063},{"duration":0.2189779999999928,"midi":42,"time":145.948837,"velocity":0.4015748031496063},{"duration":0.2189779999999928,"midi":30,"time":145.948837,"velocity":0.4015748031496063},{"duration":0.2189779999999928,"midi":30,"time":146.058326,"velocity":0.4015748031496063},{"duration":0.2189779999999928,"midi":42,"time":146.058326,"velocity":0.4015748031496063},{"duration":0.2189779999999928,"midi":42,"time":146.167815,"velocity":0.4015748031496063},{"duration":0.2189779999999928,"midi":30,"time":146.167815,"velocity":0.4015748031496063},{"duration":0.2189779999999928,"midi":30,"time":146.277304,"velocity":0.4015748031496063},{"duration":0.2189779999999928,"midi":42,"time":146.277304,"velocity":0.4015748031496063},{"duration":0.3284669999999892,"midi":54,"time":146.277304,"velocity":0.4015748031496063},{"duration":0.2189779999999928,"midi":42,"time":146.38679299999998,"velocity":0.4015748031496063},{"duration":0.2189779999999928,"midi":30,"time":146.38679299999998,"velocity":0.4015748031496063},{"duration":0.3284669999999892,"midi":54,"time":146.38679299999998,"velocity":0.4015748031496063},{"duration":0.2189779999999928,"midi":42,"time":146.49628199999998,"velocity":0.4015748031496063},{"duration":0.3284670000000176,"midi":54,"time":146.49628199999998,"velocity":0.4015748031496063},{"duration":0.2189779999999928,"midi":30,"time":146.49628199999998,"velocity":0.4015748031496063},{"duration":0.2189780000000212,"midi":54,"time":146.60577099999998,"velocity":0.4015748031496063},{"duration":0.2189780000000212,"midi":42,"time":146.60577099999998,"velocity":0.4015748031496063},{"duration":0.2189780000000212,"midi":30,"time":146.60577099999998,"velocity":0.4015748031496063},{"duration":0.437956000000014,"midi":57,"time":146.71525999999997,"velocity":0.4015748031496063},{"duration":0.2189780000000212,"midi":30,"time":146.71525999999997,"velocity":0.4015748031496063},{"duration":0.2189780000000212,"midi":61,"time":146.71525999999997,"velocity":0.4015748031496063},{"duration":0.2189780000000212,"midi":42,"time":146.71525999999997,"velocity":0.4015748031496063},{"duration":0.437956000000014,"midi":54,"time":146.71525999999997,"velocity":0.4015748031496063},{"duration":0.437956000000014,"midi":61,"time":146.71525999999997,"velocity":0.4015748031496063},{"duration":0.2189779999999928,"midi":42,"time":146.824749,"velocity":0.4015748031496063},{"duration":0.2189779999999928,"midi":30,"time":146.824749,"velocity":0.4015748031496063},{"duration":0.2189779999999928,"midi":30,"time":146.934238,"velocity":0.4015748031496063},{"duration":0.2189779999999928,"midi":42,"time":146.934238,"velocity":0.4015748031496063},{"duration":0.2189779999999928,"midi":42,"time":147.043727,"velocity":0.4015748031496063},{"duration":0.2189779999999928,"midi":30,"time":147.043727,"velocity":0.4015748031496063},{"duration":1.42335700000001,"midi":56,"time":147.153216,"velocity":0.4015748031496063},{"duration":1.42335700000001,"midi":53,"time":147.153216,"velocity":0.4015748031496063},{"duration":0.2189779999999928,"midi":29,"time":147.153216,"velocity":0.4015748031496063},{"duration":0.2189779999999928,"midi":54,"time":147.153216,"velocity":0.4015748031496063},{"duration":0.2189779999999928,"midi":37,"time":147.153216,"velocity":0.4015748031496063},{"duration":1.42335700000001,"midi":49,"time":147.153216,"velocity":0.4015748031496063},{"duration":0.2189779999999928,"midi":37,"time":147.26270499999998,"velocity":0.4015748031496063},{"duration":0.2189779999999928,"midi":29,"time":147.26270499999998,"velocity":0.4015748031496063},{"duration":0.2189779999999928,"midi":54,"time":147.37219399999998,"velocity":0.4015748031496063},{"duration":0.2189779999999928,"midi":37,"time":147.37219399999998,"velocity":0.4015748031496063},{"duration":0.2189779999999928,"midi":29,"time":147.37219399999998,"velocity":0.4015748031496063},{"duration":0.2189780000000212,"midi":37,"time":147.48168299999998,"velocity":0.4015748031496063},{"duration":0.2189780000000212,"midi":29,"time":147.48168299999998,"velocity":0.4015748031496063},{"duration":0.2189780000000212,"midi":29,"time":147.59117199999997,"velocity":0.4015748031496063},{"duration":0.2189780000000212,"midi":37,"time":147.59117199999997,"velocity":0.4015748031496063},{"duration":0.2189780000000212,"midi":61,"time":147.59117199999997,"velocity":0.4015748031496063},{"duration":0.2189779999999928,"midi":37,"time":147.700661,"velocity":0.4015748031496063},{"duration":0.2189779999999928,"midi":29,"time":147.700661,"velocity":0.4015748031496063},{"duration":0.2189779999999928,"midi":37,"time":147.81015,"velocity":0.4015748031496063},{"duration":0.2189779999999928,"midi":29,"time":147.81015,"velocity":0.4015748031496063},{"duration":0.2189779999999928,"midi":37,"time":147.919639,"velocity":0.4015748031496063},{"duration":0.2189779999999928,"midi":29,"time":147.919639,"velocity":0.4015748031496063},{"duration":0.2189779999999928,"midi":29,"time":148.029128,"velocity":0.4015748031496063},{"duration":0.2189779999999928,"midi":54,"time":148.029128,"velocity":0.4015748031496063},{"duration":0.2189779999999928,"midi":37,"time":148.029128,"velocity":0.4015748031496063},{"duration":0.2189779999999928,"midi":54,"time":148.13861699999998,"velocity":0.4015748031496063},{"duration":0.2189779999999928,"midi":29,"time":148.13861699999998,"velocity":0.4015748031496063},{"duration":0.2189779999999928,"midi":37,"time":148.13861699999998,"velocity":0.4015748031496063},{"duration":0.2189779999999928,"midi":37,"time":148.24810599999998,"velocity":0.4015748031496063},{"duration":0.2189779999999928,"midi":29,"time":148.24810599999998,"velocity":0.4015748031496063},{"duration":0.2189779999999928,"midi":54,"time":148.24810599999998,"velocity":0.4015748031496063},{"duration":0.2189780000000212,"midi":29,"time":148.35759499999998,"velocity":0.4015748031496063},{"duration":0.2189780000000212,"midi":37,"time":148.35759499999998,"velocity":0.4015748031496063},{"duration":0.2189780000000212,"midi":54,"time":148.35759499999998,"velocity":0.4015748031496063},{"duration":0.2189780000000212,"midi":37,"time":148.46708399999997,"velocity":0.4015748031496063},{"duration":0.437956000000014,"midi":53,"time":148.46708399999997,"velocity":0.4015748031496063},{"duration":0.2189780000000212,"midi":29,"time":148.46708399999997,"velocity":0.4015748031496063},{"duration":0.437956000000014,"midi":56,"time":148.46708399999997,"velocity":0.4015748031496063},{"duration":0.437956000000014,"midi":49,"time":148.46708399999997,"velocity":0.4015748031496063},{"duration":0.2189780000000212,"midi":61,"time":148.46708399999997,"velocity":0.4015748031496063},{"duration":0.2189779999999928,"midi":29,"time":148.576573,"velocity":0.4015748031496063},{"duration":0.2189779999999928,"midi":37,"time":148.576573,"velocity":0.4015748031496063},{"duration":0.2189779999999928,"midi":37,"time":148.686062,"velocity":0.4015748031496063},{"duration":0.2189779999999928,"midi":29,"time":148.686062,"velocity":0.4015748031496063},{"duration":1.42335700000001,"midi":50,"time":148.90503999999999,"velocity":0.4015748031496063},{"duration":0.2189779999999928,"midi":38,"time":148.90503999999999,"velocity":0.4015748031496063},{"duration":0.2189779999999928,"midi":54,"time":148.90503999999999,"velocity":0.4015748031496063},{"duration":0.2189779999999928,"midi":30,"time":148.90503999999999,"velocity":0.4015748031496063},{"duration":0.4379559999999856,"midi":54,"time":148.90503999999999,"velocity":0.4015748031496063},{"duration":1.42335700000001,"midi":57,"time":148.90503999999999,"velocity":0.4015748031496063},{"duration":0.2189779999999928,"midi":38,"time":149.01452899999998,"velocity":0.4015748031496063},{"duration":0.2189779999999928,"midi":30,"time":149.01452899999998,"velocity":0.4015748031496063},{"duration":0.2189779999999928,"midi":38,"time":149.12401799999998,"velocity":0.4015748031496063},{"duration":0.2189779999999928,"midi":30,"time":149.12401799999998,"velocity":0.4015748031496063},{"duration":0.8759119999999996,"midi":54,"time":149.12401799999998,"velocity":0.4015748031496063},{"duration":0.2189780000000212,"midi":38,"time":149.23350699999997,"velocity":0.4015748031496063},{"duration":0.2189780000000212,"midi":30,"time":149.23350699999997,"velocity":0.4015748031496063},{"duration":0.2189780000000212,"midi":38,"time":149.34299599999997,"velocity":0.4015748031496063},{"duration":0.2189780000000212,"midi":30,"time":149.34299599999997,"velocity":0.4015748031496063},{"duration":0.2189780000000212,"midi":61,"time":149.34299599999997,"velocity":0.4015748031496063},{"duration":0.2189779999999928,"midi":30,"time":149.452485,"velocity":0.4015748031496063},{"duration":0.2189779999999928,"midi":38,"time":149.452485,"velocity":0.4015748031496063},{"duration":0.2189779999999928,"midi":30,"time":149.561974,"velocity":0.4015748031496063},{"duration":0.2189779999999928,"midi":38,"time":149.561974,"velocity":0.4015748031496063},{"duration":0.2189779999999928,"midi":30,"time":149.671463,"velocity":0.4015748031496063},{"duration":0.2189779999999928,"midi":38,"time":149.671463,"velocity":0.4015748031496063},{"duration":0.2189779999999928,"midi":38,"time":149.78095199999998,"velocity":0.4015748031496063},{"duration":0.2189779999999928,"midi":30,"time":149.78095199999998,"velocity":0.4015748031496063},{"duration":0.3284669999999892,"midi":54,"time":149.78095199999998,"velocity":0.4015748031496063},{"duration":0.2189779999999928,"midi":30,"time":149.89044099999998,"velocity":0.4015748031496063},{"duration":0.2189779999999928,"midi":38,"time":149.89044099999998,"velocity":0.4015748031496063},{"duration":0.3284670000000176,"midi":54,"time":149.89044099999998,"velocity":0.4015748031496063},{"duration":0.3284670000000176,"midi":54,"time":149.99992999999998,"velocity":0.4015748031496063},{"duration":0.2189780000000212,"midi":30,"time":149.99992999999998,"velocity":0.4015748031496063},{"duration":0.2189780000000212,"midi":38,"time":149.99992999999998,"velocity":0.4015748031496063},{"duration":0.2189780000000212,"midi":38,"time":150.10941899999997,"velocity":0.4015748031496063},{"duration":0.2189780000000212,"midi":30,"time":150.10941899999997,"velocity":0.4015748031496063},{"duration":0.2189780000000212,"midi":54,"time":150.10941899999997,"velocity":0.4015748031496063},{"duration":0.4379559999999856,"midi":54,"time":150.218908,"velocity":0.4015748031496063},{"duration":0.4379559999999856,"midi":50,"time":150.218908,"velocity":0.4015748031496063},{"duration":0.2189779999999928,"midi":38,"time":150.218908,"velocity":0.4015748031496063},{"duration":0.2189779999999928,"midi":61,"time":150.218908,"velocity":0.4015748031496063},{"duration":0.2189779999999928,"midi":30,"time":150.218908,"velocity":0.4015748031496063},{"duration":0.4379559999999856,"midi":57,"time":150.218908,"velocity":0.4015748031496063},{"duration":0.2189779999999928,"midi":30,"time":150.328397,"velocity":0.4015748031496063},{"duration":0.2189779999999928,"midi":38,"time":150.328397,"velocity":0.4015748031496063},{"duration":0.2189779999999928,"midi":30,"time":150.437886,"velocity":0.4015748031496063},{"duration":0.2189779999999928,"midi":38,"time":150.437886,"velocity":0.4015748031496063},{"duration":1.42335700000001,"midi":56,"time":150.65686399999998,"velocity":0.4015748031496063},{"duration":0.2189779999999928,"midi":37,"time":150.65686399999998,"velocity":0.4015748031496063},{"duration":0.2189779999999928,"midi":29,"time":150.65686399999998,"velocity":0.4015748031496063},{"duration":0.2189779999999928,"midi":54,"time":150.65686399999998,"velocity":0.4015748031496063},{"duration":1.42335700000001,"midi":49,"time":150.65686399999998,"velocity":0.4015748031496063},{"duration":1.42335700000001,"midi":53,"time":150.65686399999998,"velocity":0.4015748031496063},{"duration":0.2189779999999928,"midi":37,"time":150.76635299999998,"velocity":0.4015748031496063},{"duration":0.2189779999999928,"midi":29,"time":150.76635299999998,"velocity":0.4015748031496063},{"duration":0.2189780000000212,"midi":29,"time":150.87584199999998,"velocity":0.4015748031496063},{"duration":0.2189780000000212,"midi":54,"time":150.87584199999998,"velocity":0.4015748031496063},{"duration":0.2189780000000212,"midi":37,"time":150.87584199999998,"velocity":0.4015748031496063},{"duration":0.2189780000000212,"midi":29,"time":150.98533099999997,"velocity":0.4015748031496063},{"duration":0.2189780000000212,"midi":37,"time":150.98533099999997,"velocity":0.4015748031496063},{"duration":0.2189779999999928,"midi":37,"time":151.09482,"velocity":0.4015748031496063},{"duration":0.2189779999999928,"midi":29,"time":151.09482,"velocity":0.4015748031496063},{"duration":0.2189779999999928,"midi":61,"time":151.09482,"velocity":0.4015748031496063},{"duration":0.2189779999999928,"midi":37,"time":151.204309,"velocity":0.4015748031496063},{"duration":0.2189779999999928,"midi":29,"time":151.204309,"velocity":0.4015748031496063},{"duration":0.2189779999999928,"midi":29,"time":151.313798,"velocity":0.4015748031496063},{"duration":0.2189779999999928,"midi":37,"time":151.313798,"velocity":0.4015748031496063},{"duration":0.2189779999999928,"midi":37,"time":151.423287,"velocity":0.4015748031496063},{"duration":0.2189779999999928,"midi":29,"time":151.423287,"velocity":0.4015748031496063},{"duration":0.2189779999999928,"midi":37,"time":151.53277599999998,"velocity":0.4015748031496063},{"duration":0.2189779999999928,"midi":29,"time":151.53277599999998,"velocity":0.4015748031496063},{"duration":0.2189779999999928,"midi":54,"time":151.53277599999998,"velocity":0.4015748031496063},{"duration":0.2189779999999928,"midi":37,"time":151.64226499999998,"velocity":0.4015748031496063},{"duration":0.2189779999999928,"midi":29,"time":151.64226499999998,"velocity":0.4015748031496063},{"duration":0.2189779999999928,"midi":54,"time":151.64226499999998,"velocity":0.4015748031496063},{"duration":0.2189780000000212,"midi":37,"time":151.75175399999998,"velocity":0.4015748031496063},{"duration":0.2189780000000212,"midi":29,"time":151.75175399999998,"velocity":0.4015748031496063},{"duration":0.2189780000000212,"midi":54,"time":151.75175399999998,"velocity":0.4015748031496063},{"duration":0.2189780000000212,"midi":37,"time":151.86124299999997,"velocity":0.4015748031496063},{"duration":0.2189780000000212,"midi":29,"time":151.86124299999997,"velocity":0.4015748031496063},{"duration":0.2189780000000212,"midi":54,"time":151.86124299999997,"velocity":0.4015748031496063},{"duration":0.4379559999999856,"midi":49,"time":151.970732,"velocity":0.4015748031496063},{"duration":0.2189779999999928,"midi":29,"time":151.970732,"velocity":0.4015748031496063},{"duration":0.2189779999999928,"midi":37,"time":151.970732,"velocity":0.4015748031496063},{"duration":0.4379559999999856,"midi":53,"time":151.970732,"velocity":0.4015748031496063},{"duration":0.4379559999999856,"midi":56,"time":151.970732,"velocity":0.4015748031496063},{"duration":0.2189779999999928,"midi":61,"time":151.970732,"velocity":0.4015748031496063},{"duration":0.2189779999999928,"midi":29,"time":152.080221,"velocity":0.4015748031496063},{"duration":0.2189779999999928,"midi":37,"time":152.080221,"velocity":0.4015748031496063},{"duration":0.2189779999999928,"midi":37,"time":152.18971,"velocity":0.4015748031496063},{"duration":0.2189779999999928,"midi":29,"time":152.18971,"velocity":0.4015748031496063},{"duration":0.6569340000000068,"midi":61,"time":152.40868799999998,"velocity":0.4015748031496063},{"duration":0.2189779999999928,"midi":42,"time":152.40868799999998,"velocity":0.4015748031496063},{"duration":0.2189779999999928,"midi":54,"time":152.40868799999998,"velocity":0.4015748031496063},{"duration":1.42335700000001,"midi":57,"time":152.40868799999998,"velocity":0.4015748031496063},{"duration":0.437956000000014,"midi":54,"time":152.40868799999998,"velocity":0.4015748031496063},{"duration":0.2189779999999928,"midi":30,"time":152.40868799999998,"velocity":0.4015748031496063},{"duration":0.2189779999999928,"midi":30,"time":152.51817699999998,"velocity":0.4015748031496063},{"duration":0.2189779999999928,"midi":42,"time":152.51817699999998,"velocity":0.4015748031496063},{"duration":0.2189780000000212,"midi":42,"time":152.62766599999998,"velocity":0.4015748031496063},{"duration":0.8759119999999996,"midi":54,"time":152.62766599999998,"velocity":0.4015748031496063},{"duration":0.2189780000000212,"midi":30,"time":152.62766599999998,"velocity":0.4015748031496063},{"duration":0.2189780000000212,"midi":30,"time":152.73715499999997,"velocity":0.4015748031496063},{"duration":0.2189780000000212,"midi":42,"time":152.73715499999997,"velocity":0.4015748031496063},{"duration":0.985400999999996,"midi":61,"time":152.846644,"velocity":0.4015748031496063},{"duration":0.2189779999999928,"midi":42,"time":152.846644,"velocity":0.4015748031496063},{"duration":0.2189779999999928,"midi":30,"time":152.846644,"velocity":0.4015748031496063},{"duration":0.2189779999999928,"midi":30,"time":152.956133,"velocity":0.4015748031496063},{"duration":0.2189779999999928,"midi":42,"time":152.956133,"velocity":0.4015748031496063},{"duration":0.2189779999999928,"midi":42,"time":153.065622,"velocity":0.4015748031496063},{"duration":0.2189779999999928,"midi":30,"time":153.065622,"velocity":0.4015748031496063},{"duration":0.2189779999999928,"midi":42,"time":153.175111,"velocity":0.4015748031496063},{"duration":0.2189779999999928,"midi":30,"time":153.175111,"velocity":0.4015748031496063},{"duration":0.2189779999999928,"midi":42,"time":153.28459999999998,"velocity":0.4015748031496063},{"duration":0.3284669999999892,"midi":54,"time":153.28459999999998,"velocity":0.4015748031496063},{"duration":0.2189779999999928,"midi":30,"time":153.28459999999998,"velocity":0.4015748031496063},{"duration":0.2189779999999928,"midi":42,"time":153.39408899999998,"velocity":0.4015748031496063},{"duration":0.2189779999999928,"midi":30,"time":153.39408899999998,"velocity":0.4015748031496063},{"duration":0.3284670000000176,"midi":54,"time":153.39408899999998,"velocity":0.4015748031496063},{"duration":0.2189780000000212,"midi":42,"time":153.50357799999998,"velocity":0.4015748031496063},{"duration":0.2189780000000212,"midi":30,"time":153.50357799999998,"velocity":0.4015748031496063},{"duration":0.3284670000000176,"midi":54,"time":153.50357799999998,"velocity":0.4015748031496063},{"duration":0.2189780000000212,"midi":42,"time":153.61306699999997,"velocity":0.4015748031496063},{"duration":0.2189780000000212,"midi":54,"time":153.61306699999997,"velocity":0.4015748031496063},{"duration":0.2189780000000212,"midi":30,"time":153.61306699999997,"velocity":0.4015748031496063},{"duration":0.2189779999999928,"midi":30,"time":153.722556,"velocity":0.4015748031496063},{"duration":0.2189779999999928,"midi":42,"time":153.722556,"velocity":0.4015748031496063},{"duration":0.4379559999999856,"midi":57,"time":153.722556,"velocity":0.4015748031496063},{"duration":0.4379559999999856,"midi":54,"time":153.722556,"velocity":0.4015748031496063},{"duration":0.2189779999999928,"midi":61,"time":153.722556,"velocity":0.4015748031496063},{"duration":0.4379559999999856,"midi":61,"time":153.722556,"velocity":0.4015748031496063},{"duration":0.2189779999999928,"midi":42,"time":153.832045,"velocity":0.4015748031496063},{"duration":0.2189779999999928,"midi":30,"time":153.832045,"velocity":0.4015748031496063},{"duration":0.2189779999999928,"midi":30,"time":153.941534,"velocity":0.4015748031496063},{"duration":0.2189779999999928,"midi":42,"time":153.941534,"velocity":0.4015748031496063},{"duration":0.2189779999999928,"midi":42,"time":154.051023,"velocity":0.4015748031496063},{"duration":0.2189779999999928,"midi":30,"time":154.051023,"velocity":0.4015748031496063},{"duration":1.42335700000001,"midi":56,"time":154.16051199999998,"velocity":0.4015748031496063},{"duration":0.2189779999999928,"midi":37,"time":154.16051199999998,"velocity":0.4015748031496063},{"duration":1.42335700000001,"midi":53,"time":154.16051199999998,"velocity":0.4015748031496063},{"duration":1.42335700000001,"midi":49,"time":154.16051199999998,"velocity":0.4015748031496063},{"duration":0.2189779999999928,"midi":54,"time":154.16051199999998,"velocity":0.4015748031496063},{"duration":0.2189779999999928,"midi":29,"time":154.16051199999998,"velocity":0.4015748031496063},{"duration":0.2189779999999928,"midi":29,"time":154.27000099999998,"velocity":0.4015748031496063},{"duration":0.2189779999999928,"midi":37,"time":154.27000099999998,"velocity":0.4015748031496063},{"duration":0.2189780000000212,"midi":54,"time":154.37948999999998,"velocity":0.4015748031496063},{"duration":0.2189780000000212,"midi":37,"time":154.37948999999998,"velocity":0.4015748031496063},{"duration":0.2189780000000212,"midi":29,"time":154.37948999999998,"velocity":0.4015748031496063},{"duration":0.2189780000000212,"midi":37,"time":154.48897899999997,"velocity":0.4015748031496063},{"duration":0.2189780000000212,"midi":29,"time":154.48897899999997,"velocity":0.4015748031496063},{"duration":0.2189779999999928,"midi":29,"time":154.598468,"velocity":0.4015748031496063},{"duration":0.2189779999999928,"midi":61,"time":154.598468,"velocity":0.4015748031496063},{"duration":0.2189779999999928,"midi":37,"time":154.598468,"velocity":0.4015748031496063},{"duration":0.2189779999999928,"midi":29,"time":154.707957,"velocity":0.4015748031496063},{"duration":0.2189779999999928,"midi":37,"time":154.707957,"velocity":0.4015748031496063},{"duration":0.2189779999999928,"midi":29,"time":154.817446,"velocity":0.4015748031496063},{"duration":0.2189779999999928,"midi":37,"time":154.817446,"velocity":0.4015748031496063},{"duration":0.2189779999999928,"midi":37,"time":154.926935,"velocity":0.4015748031496063},{"duration":0.2189779999999928,"midi":29,"time":154.926935,"velocity":0.4015748031496063},{"duration":0.2189779999999928,"midi":54,"time":155.03642399999998,"velocity":0.4015748031496063},{"duration":0.2189779999999928,"midi":37,"time":155.03642399999998,"velocity":0.4015748031496063},{"duration":0.2189779999999928,"midi":29,"time":155.03642399999998,"velocity":0.4015748031496063},{"duration":0.2189779999999928,"midi":54,"time":155.14591299999998,"velocity":0.4015748031496063},{"duration":0.2189779999999928,"midi":29,"time":155.14591299999998,"velocity":0.4015748031496063},{"duration":0.2189779999999928,"midi":37,"time":155.14591299999998,"velocity":0.4015748031496063},{"duration":0.2189780000000212,"midi":29,"time":155.25540199999998,"velocity":0.4015748031496063},{"duration":0.2189780000000212,"midi":54,"time":155.25540199999998,"velocity":0.4015748031496063},{"duration":0.2189780000000212,"midi":37,"time":155.25540199999998,"velocity":0.4015748031496063},{"duration":0.2189780000000212,"midi":37,"time":155.36489099999997,"velocity":0.4015748031496063},{"duration":0.2189780000000212,"midi":54,"time":155.36489099999997,"velocity":0.4015748031496063},{"duration":0.2189780000000212,"midi":29,"time":155.36489099999997,"velocity":0.4015748031496063},{"duration":0.2189779999999928,"midi":61,"time":155.47438,"velocity":0.4015748031496063},{"duration":0.4379559999999856,"midi":49,"time":155.47438,"velocity":0.4015748031496063},{"duration":0.2189779999999928,"midi":29,"time":155.47438,"velocity":0.4015748031496063},{"duration":0.2189779999999928,"midi":37,"time":155.47438,"velocity":0.4015748031496063},{"duration":0.4379559999999856,"midi":56,"time":155.47438,"velocity":0.4015748031496063},{"duration":0.4379559999999856,"midi":53,"time":155.47438,"velocity":0.4015748031496063},{"duration":0.2189779999999928,"midi":37,"time":155.583869,"velocity":0.4015748031496063},{"duration":0.2189779999999928,"midi":29,"time":155.583869,"velocity":0.4015748031496063},{"duration":0.2189779999999928,"midi":37,"time":155.693358,"velocity":0.4015748031496063},{"duration":0.2189779999999928,"midi":29,"time":155.693358,"velocity":0.4015748031496063},{"duration":0.2189779999999928,"midi":30,"time":155.91233599999998,"velocity":0.4015748031496063},{"duration":0.2189779999999928,"midi":54,"time":155.91233599999998,"velocity":0.4015748031496063},{"duration":1.42335700000001,"midi":57,"time":155.91233599999998,"velocity":0.4015748031496063},{"duration":0.437956000000014,"midi":54,"time":155.91233599999998,"velocity":0.4015748031496063},{"duration":1.42335700000001,"midi":50,"time":155.91233599999998,"velocity":0.4015748031496063},{"duration":0.2189779999999928,"midi":38,"time":155.91233599999998,"velocity":0.4015748031496063},{"duration":0.2189779999999928,"midi":38,"time":156.02182499999998,"velocity":0.4015748031496063},{"duration":0.2189779999999928,"midi":30,"time":156.02182499999998,"velocity":0.4015748031496063},{"duration":0.8759119999999996,"midi":54,"time":156.13131399999997,"velocity":0.4015748031496063},{"duration":0.2189780000000212,"midi":38,"time":156.13131399999997,"velocity":0.4015748031496063},{"duration":0.2189780000000212,"midi":30,"time":156.13131399999997,"velocity":0.4015748031496063},{"duration":0.2189780000000212,"midi":30,"time":156.24080299999997,"velocity":0.4015748031496063},{"duration":0.2189780000000212,"midi":38,"time":156.24080299999997,"velocity":0.4015748031496063},{"duration":0.2189779999999928,"midi":38,"time":156.350292,"velocity":0.4015748031496063},{"duration":0.2189779999999928,"midi":61,"time":156.350292,"velocity":0.4015748031496063},{"duration":0.2189779999999928,"midi":30,"time":156.350292,"velocity":0.4015748031496063},{"duration":0.2189779999999928,"midi":38,"time":156.459781,"velocity":0.4015748031496063},{"duration":0.2189779999999928,"midi":30,"time":156.459781,"velocity":0.4015748031496063},{"duration":0.2189779999999928,"midi":30,"time":156.56927,"velocity":0.4015748031496063},{"duration":0.2189779999999928,"midi":38,"time":156.56927,"velocity":0.4015748031496063},{"duration":0.2189779999999928,"midi":38,"time":156.67875899999999,"velocity":0.4015748031496063},{"duration":0.2189779999999928,"midi":30,"time":156.67875899999999,"velocity":0.4015748031496063},{"duration":0.2189779999999928,"midi":30,"time":156.78824799999998,"velocity":0.4015748031496063},{"duration":0.3284669999999892,"midi":54,"time":156.78824799999998,"velocity":0.4015748031496063},{"duration":0.2189779999999928,"midi":38,"time":156.78824799999998,"velocity":0.4015748031496063},{"duration":0.3284670000000176,"midi":54,"time":156.89773699999998,"velocity":0.4015748031496063},{"duration":0.2189779999999928,"midi":38,"time":156.89773699999998,"velocity":0.4015748031496063},{"duration":0.2189779999999928,"midi":30,"time":156.89773699999998,"velocity":0.4015748031496063},{"duration":0.2189780000000212,"midi":30,"time":157.00722599999997,"velocity":0.4015748031496063},{"duration":0.2189780000000212,"midi":38,"time":157.00722599999997,"velocity":0.4015748031496063},{"duration":0.3284670000000176,"midi":54,"time":157.00722599999997,"velocity":0.4015748031496063},{"duration":0.2189780000000212,"midi":54,"time":157.11671499999997,"velocity":0.4015748031496063},{"duration":0.2189780000000212,"midi":30,"time":157.11671499999997,"velocity":0.4015748031496063},{"duration":0.2189780000000212,"midi":38,"time":157.11671499999997,"velocity":0.4015748031496063},{"duration":0.4379559999999856,"midi":54,"time":157.226204,"velocity":0.4015748031496063},{"duration":0.4379559999999856,"midi":50,"time":157.226204,"velocity":0.4015748031496063},{"duration":0.4379559999999856,"midi":57,"time":157.226204,"velocity":0.4015748031496063},{"duration":0.2189779999999928,"midi":30,"time":157.226204,"velocity":0.4015748031496063},{"duration":0.2189779999999928,"midi":38,"time":157.226204,"velocity":0.4015748031496063},{"duration":0.2189779999999928,"midi":61,"time":157.226204,"velocity":0.4015748031496063},{"duration":0.2189779999999928,"midi":30,"time":157.335693,"velocity":0.4015748031496063},{"duration":0.2189779999999928,"midi":38,"time":157.335693,"velocity":0.4015748031496063},{"duration":0.2189779999999928,"midi":38,"time":157.445182,"velocity":0.4015748031496063},{"duration":0.2189779999999928,"midi":30,"time":157.445182,"velocity":0.4015748031496063},{"duration":1.42335700000001,"midi":49,"time":157.66415999999998,"velocity":0.4015748031496063},{"duration":1.42335700000001,"midi":53,"time":157.66415999999998,"velocity":0.4015748031496063},{"duration":0.2189779999999928,"midi":37,"time":157.66415999999998,"velocity":0.4015748031496063},{"duration":1.42335700000001,"midi":56,"time":157.66415999999998,"velocity":0.4015748031496063},{"duration":0.2189779999999928,"midi":54,"time":157.66415999999998,"velocity":0.4015748031496063},{"duration":0.2189779999999928,"midi":29,"time":157.66415999999998,"velocity":0.4015748031496063},{"duration":0.2189779999999928,"midi":37,"time":157.77364899999998,"velocity":0.4015748031496063},{"duration":0.2189779999999928,"midi":29,"time":157.77364899999998,"velocity":0.4015748031496063},{"duration":0.2189780000000212,"midi":54,"time":157.88313799999997,"velocity":0.4015748031496063},{"duration":0.2189780000000212,"midi":29,"time":157.88313799999997,"velocity":0.4015748031496063},{"duration":0.2189780000000212,"midi":37,"time":157.88313799999997,"velocity":0.4015748031496063},{"duration":0.2189780000000212,"midi":37,"time":157.99262699999997,"velocity":0.4015748031496063},{"duration":0.2189780000000212,"midi":29,"time":157.99262699999997,"velocity":0.4015748031496063},{"duration":0.2189779999999928,"midi":37,"time":158.102116,"velocity":0.4015748031496063},{"duration":0.2189779999999928,"midi":61,"time":158.102116,"velocity":0.4015748031496063},{"duration":0.2189779999999928,"midi":29,"time":158.102116,"velocity":0.4015748031496063},{"duration":0.2189779999999928,"midi":29,"time":158.211605,"velocity":0.4015748031496063},{"duration":0.2189779999999928,"midi":37,"time":158.211605,"velocity":0.4015748031496063},{"duration":0.2189779999999928,"midi":29,"time":158.321094,"velocity":0.4015748031496063},{"duration":0.2189779999999928,"midi":37,"time":158.321094,"velocity":0.4015748031496063},{"duration":0.2189779999999928,"midi":29,"time":158.43058299999998,"velocity":0.4015748031496063},{"duration":0.2189779999999928,"midi":37,"time":158.43058299999998,"velocity":0.4015748031496063},{"duration":0.2189779999999928,"midi":54,"time":158.54007199999998,"velocity":0.4015748031496063},{"duration":0.2189779999999928,"midi":37,"time":158.54007199999998,"velocity":0.4015748031496063},{"duration":0.2189779999999928,"midi":29,"time":158.54007199999998,"velocity":0.4015748031496063},{"duration":0.2189780000000212,"midi":37,"time":158.64956099999998,"velocity":0.4015748031496063},{"duration":0.2189780000000212,"midi":54,"time":158.64956099999998,"velocity":0.4015748031496063},{"duration":0.2189780000000212,"midi":29,"time":158.64956099999998,"velocity":0.4015748031496063},{"duration":0.2189780000000212,"midi":54,"time":158.75904999999997,"velocity":0.4015748031496063},{"duration":0.2189780000000212,"midi":29,"time":158.75904999999997,"velocity":0.4015748031496063},{"duration":0.2189780000000212,"midi":37,"time":158.75904999999997,"velocity":0.4015748031496063},{"duration":0.2189779999999928,"midi":54,"time":158.868539,"velocity":0.4015748031496063},{"duration":0.2189779999999928,"midi":29,"time":158.868539,"velocity":0.4015748031496063},{"duration":0.2189779999999928,"midi":37,"time":158.868539,"velocity":0.4015748031496063},{"duration":0.2189779999999928,"midi":61,"time":158.978028,"velocity":0.4015748031496063},{"duration":0.4379559999999856,"midi":53,"time":158.978028,"velocity":0.4015748031496063},{"duration":0.2189779999999928,"midi":37,"time":158.978028,"velocity":0.4015748031496063},{"duration":0.4379559999999856,"midi":49,"time":158.978028,"velocity":0.4015748031496063},{"duration":0.2189779999999928,"midi":29,"time":158.978028,"velocity":0.4015748031496063},{"duration":0.4379559999999856,"midi":56,"time":158.978028,"velocity":0.4015748031496063},{"duration":0.2189779999999928,"midi":37,"time":159.087517,"velocity":0.4015748031496063},{"duration":0.2189779999999928,"midi":29,"time":159.087517,"velocity":0.4015748031496063},{"duration":0.2189779999999928,"midi":37,"time":159.197006,"velocity":0.4015748031496063},{"duration":0.2189779999999928,"midi":29,"time":159.197006,"velocity":0.4015748031496063},{"duration":0.6569340000000068,"midi":61,"time":159.41598399999998,"velocity":0.4015748031496063},{"duration":0.2189779999999928,"midi":30,"time":159.41598399999998,"velocity":0.4015748031496063},{"duration":0.2189779999999928,"midi":54,"time":159.41598399999998,"velocity":0.4015748031496063},{"duration":1.42335700000001,"midi":57,"time":159.41598399999998,"velocity":0.4015748031496063},{"duration":0.437956000000014,"midi":54,"time":159.41598399999998,"velocity":0.4015748031496063},{"duration":0.2189779999999928,"midi":42,"time":159.41598399999998,"velocity":0.4015748031496063},{"duration":0.2189780000000212,"midi":30,"time":159.52547299999998,"velocity":0.4015748031496063},{"duration":0.2189780000000212,"midi":42,"time":159.52547299999998,"velocity":0.4015748031496063},{"duration":0.2189780000000212,"midi":42,"time":159.63496199999997,"velocity":0.4015748031496063},{"duration":0.2189780000000212,"midi":30,"time":159.63496199999997,"velocity":0.4015748031496063},{"duration":0.8759119999999996,"midi":54,"time":159.63496199999997,"velocity":0.4015748031496063},{"duration":0.2189779999999928,"midi":30,"time":159.744451,"velocity":0.4015748031496063},{"duration":0.2189779999999928,"midi":42,"time":159.744451,"velocity":0.4015748031496063},{"duration":0.2189779999999928,"midi":30,"time":159.85394,"velocity":0.4015748031496063},{"duration":0.2189779999999928,"midi":42,"time":159.85394,"velocity":0.4015748031496063},{"duration":0.985400999999996,"midi":61,"time":159.85394,"velocity":0.4015748031496063},{"duration":0.2189779999999928,"midi":42,"time":159.963429,"velocity":0.4015748031496063},{"duration":0.2189779999999928,"midi":30,"time":159.963429,"velocity":0.4015748031496063},{"duration":0.2189779999999928,"midi":30,"time":160.072918,"velocity":0.4015748031496063},{"duration":0.2189779999999928,"midi":42,"time":160.072918,"velocity":0.4015748031496063},{"duration":0.2189779999999928,"midi":30,"time":160.18240699999998,"velocity":0.4015748031496063},{"duration":0.2189779999999928,"midi":42,"time":160.18240699999998,"velocity":0.4015748031496063},{"duration":0.2189779999999928,"midi":30,"time":160.29189599999998,"velocity":0.4015748031496063},{"duration":0.2189779999999928,"midi":42,"time":160.29189599999998,"velocity":0.4015748031496063},{"duration":0.3284670000000176,"midi":54,"time":160.29189599999998,"velocity":0.4015748031496063},{"duration":0.2189780000000212,"midi":30,"time":160.40138499999998,"velocity":0.4015748031496063},{"duration":0.3284670000000176,"midi":54,"time":160.40138499999998,"velocity":0.4015748031496063},{"duration":0.2189780000000212,"midi":42,"time":160.40138499999998,"velocity":0.4015748031496063},{"duration":0.2189780000000212,"midi":30,"time":160.51087399999997,"velocity":0.4015748031496063},{"duration":0.2189780000000212,"midi":42,"time":160.51087399999997,"velocity":0.4015748031496063},{"duration":0.3284670000000176,"midi":54,"time":160.51087399999997,"velocity":0.4015748031496063},{"duration":0.2189779999999928,"midi":54,"time":160.620363,"velocity":0.4015748031496063},{"duration":0.2189779999999928,"midi":30,"time":160.620363,"velocity":0.4015748031496063},{"duration":0.2189779999999928,"midi":42,"time":160.620363,"velocity":0.4015748031496063},{"duration":0.2189779999999928,"midi":30,"time":160.729852,"velocity":0.4015748031496063},{"duration":0.2189779999999928,"midi":61,"time":160.729852,"velocity":0.4015748031496063},{"duration":0.4379559999999856,"midi":54,"time":160.729852,"velocity":0.4015748031496063},{"duration":0.4379559999999856,"midi":61,"time":160.729852,"velocity":0.4015748031496063},{"duration":0.4379559999999856,"midi":57,"time":160.729852,"velocity":0.4015748031496063},{"duration":0.2189779999999928,"midi":42,"time":160.729852,"velocity":0.4015748031496063},{"duration":0.2189779999999928,"midi":30,"time":160.839341,"velocity":0.4015748031496063},{"duration":0.2189779999999928,"midi":42,"time":160.839341,"velocity":0.4015748031496063},{"duration":0.2189779999999928,"midi":42,"time":160.94883,"velocity":0.4015748031496063},{"duration":0.2189779999999928,"midi":30,"time":160.94883,"velocity":0.4015748031496063},{"duration":0.2189779999999928,"midi":30,"time":161.05831899999998,"velocity":0.4015748031496063},{"duration":0.2189779999999928,"midi":42,"time":161.05831899999998,"velocity":0.4015748031496063},{"duration":1.42335700000001,"midi":53,"time":161.16780799999998,"velocity":0.4015748031496063},{"duration":0.2189779999999928,"midi":37,"time":161.16780799999998,"velocity":0.4015748031496063},{"duration":1.42335700000001,"midi":56,"time":161.16780799999998,"velocity":0.4015748031496063},{"duration":0.2189779999999928,"midi":29,"time":161.16780799999998,"velocity":0.4015748031496063},{"duration":1.42335700000001,"midi":49,"time":161.16780799999998,"velocity":0.4015748031496063},{"duration":0.2189779999999928,"midi":54,"time":161.16780799999998,"velocity":0.4015748031496063},{"duration":0.2189780000000212,"midi":29,"time":161.27729699999998,"velocity":0.4015748031496063},{"duration":0.2189780000000212,"midi":37,"time":161.27729699999998,"velocity":0.4015748031496063},{"duration":0.2189780000000212,"midi":54,"time":161.38678599999997,"velocity":0.4015748031496063},{"duration":0.2189780000000212,"midi":37,"time":161.38678599999997,"velocity":0.4015748031496063},{"duration":0.2189780000000212,"midi":29,"time":161.38678599999997,"velocity":0.4015748031496063},{"duration":0.2189779999999928,"midi":29,"time":161.496275,"velocity":0.4015748031496063},{"duration":0.2189779999999928,"midi":37,"time":161.496275,"velocity":0.4015748031496063},{"duration":0.2189779999999928,"midi":29,"time":161.605764,"velocity":0.4015748031496063},{"duration":0.2189779999999928,"midi":61,"time":161.605764,"velocity":0.4015748031496063},{"duration":0.2189779999999928,"midi":37,"time":161.605764,"velocity":0.4015748031496063},{"duration":0.2189779999999928,"midi":37,"time":161.715253,"velocity":0.4015748031496063},{"duration":0.2189779999999928,"midi":29,"time":161.715253,"velocity":0.4015748031496063},{"duration":0.2189779999999928,"midi":29,"time":161.824742,"velocity":0.4015748031496063},{"duration":0.2189779999999928,"midi":37,"time":161.824742,"velocity":0.4015748031496063},{"duration":0.2189779999999928,"midi":37,"time":161.93423099999998,"velocity":0.4015748031496063},{"duration":0.2189779999999928,"midi":29,"time":161.93423099999998,"velocity":0.4015748031496063},{"duration":0.2189779999999928,"midi":29,"time":162.04371999999998,"velocity":0.4015748031496063},{"duration":0.2189779999999928,"midi":54,"time":162.04371999999998,"velocity":0.4015748031496063},{"duration":0.2189779999999928,"midi":37,"time":162.04371999999998,"velocity":0.4015748031496063},{"duration":0.2189780000000212,"midi":37,"time":162.15320899999998,"velocity":0.4015748031496063},{"duration":0.2189780000000212,"midi":29,"time":162.15320899999998,"velocity":0.4015748031496063},{"duration":0.2189780000000212,"midi":54,"time":162.15320899999998,"velocity":0.4015748031496063},{"duration":0.2189780000000212,"midi":29,"time":162.26269799999997,"velocity":0.4015748031496063},{"duration":0.2189780000000212,"midi":37,"time":162.26269799999997,"velocity":0.4015748031496063},{"duration":0.2189780000000212,"midi":54,"time":162.26269799999997,"velocity":0.4015748031496063},{"duration":0.2189779999999928,"midi":29,"time":162.372187,"velocity":0.4015748031496063},{"duration":0.2189779999999928,"midi":37,"time":162.372187,"velocity":0.4015748031496063},{"duration":0.2189779999999928,"midi":54,"time":162.372187,"velocity":0.4015748031496063},{"duration":0.2189779999999928,"midi":61,"time":162.481676,"velocity":0.4015748031496063},{"duration":0.4379559999999856,"midi":49,"time":162.481676,"velocity":0.4015748031496063},{"duration":0.4379559999999856,"midi":53,"time":162.481676,"velocity":0.4015748031496063},{"duration":0.2189779999999928,"midi":37,"time":162.481676,"velocity":0.4015748031496063},{"duration":0.2189779999999928,"midi":29,"time":162.481676,"velocity":0.4015748031496063},{"duration":0.4379559999999856,"midi":56,"time":162.481676,"velocity":0.4015748031496063},{"duration":0.2189779999999928,"midi":29,"time":162.591165,"velocity":0.4015748031496063},{"duration":0.2189779999999928,"midi":37,"time":162.591165,"velocity":0.4015748031496063},{"duration":0.2189779999999928,"midi":37,"time":162.700654,"velocity":0.4015748031496063},{"duration":0.2189779999999928,"midi":29,"time":162.700654,"velocity":0.4015748031496063},{"duration":1.42335700000001,"midi":57,"time":162.91963199999998,"velocity":0.4015748031496063},{"duration":0.2189779999999928,"midi":54,"time":162.91963199999998,"velocity":0.4015748031496063},{"duration":1.42335700000001,"midi":50,"time":162.91963199999998,"velocity":0.4015748031496063},{"duration":0.437956000000014,"midi":54,"time":162.91963199999998,"velocity":0.4015748031496063},{"duration":0.2189779999999928,"midi":38,"time":162.91963199999998,"velocity":0.4015748031496063},{"duration":0.2189779999999928,"midi":30,"time":162.91963199999998,"velocity":0.4015748031496063},{"duration":0.2189780000000212,"midi":38,"time":163.02912099999998,"velocity":0.4015748031496063},{"duration":0.2189780000000212,"midi":30,"time":163.02912099999998,"velocity":0.4015748031496063},{"duration":0.2189780000000212,"midi":38,"time":163.13860999999997,"velocity":0.4015748031496063},{"duration":0.2189780000000212,"midi":30,"time":163.13860999999997,"velocity":0.4015748031496063},{"duration":0.8759119999999996,"midi":54,"time":163.13860999999997,"velocity":0.4015748031496063},{"duration":0.2189779999999928,"midi":38,"time":163.248099,"velocity":0.4015748031496063},{"duration":0.2189779999999928,"midi":30,"time":163.248099,"velocity":0.4015748031496063},{"duration":0.2189779999999928,"midi":38,"time":163.357588,"velocity":0.4015748031496063},{"duration":0.2189779999999928,"midi":30,"time":163.357588,"velocity":0.4015748031496063},{"duration":0.2189779999999928,"midi":61,"time":163.357588,"velocity":0.4015748031496063},{"duration":0.2189779999999928,"midi":38,"time":163.467077,"velocity":0.4015748031496063},{"duration":0.2189779999999928,"midi":30,"time":163.467077,"velocity":0.4015748031496063},{"duration":0.2189779999999928,"midi":38,"time":163.57656599999999,"velocity":0.4015748031496063},{"duration":0.2189779999999928,"midi":30,"time":163.57656599999999,"velocity":0.4015748031496063},{"duration":0.2189779999999928,"midi":38,"time":163.68605499999998,"velocity":0.4015748031496063},{"duration":0.2189779999999928,"midi":30,"time":163.68605499999998,"velocity":0.4015748031496063},{"duration":0.2189779999999928,"midi":30,"time":163.79554399999998,"velocity":0.4015748031496063},{"duration":0.2189779999999928,"midi":38,"time":163.79554399999998,"velocity":0.4015748031496063},{"duration":0.3284670000000176,"midi":54,"time":163.79554399999998,"velocity":0.4015748031496063},{"duration":0.2189780000000212,"midi":30,"time":163.90503299999997,"velocity":0.4015748031496063},{"duration":0.2189780000000212,"midi":38,"time":163.90503299999997,"velocity":0.4015748031496063},{"duration":0.3284670000000176,"midi":54,"time":163.90503299999997,"velocity":0.4015748031496063},{"duration":0.3284670000000176,"midi":54,"time":164.01452199999997,"velocity":0.4015748031496063},{"duration":0.2189780000000212,"midi":30,"time":164.01452199999997,"velocity":0.4015748031496063},{"duration":0.2189780000000212,"midi":38,"time":164.01452199999997,"velocity":0.4015748031496063},{"duration":0.2189779999999928,"midi":54,"time":164.124011,"velocity":0.4015748031496063},{"duration":0.2189779999999928,"midi":38,"time":164.124011,"velocity":0.4015748031496063},{"duration":0.2189779999999928,"midi":30,"time":164.124011,"velocity":0.4015748031496063},{"duration":0.4379559999999856,"midi":54,"time":164.2335,"velocity":0.4015748031496063},{"duration":0.4379559999999856,"midi":50,"time":164.2335,"velocity":0.4015748031496063},{"duration":0.2189779999999928,"midi":38,"time":164.2335,"velocity":0.4015748031496063},{"duration":0.2189779999999928,"midi":61,"time":164.2335,"velocity":0.4015748031496063},{"duration":0.4379559999999856,"midi":57,"time":164.2335,"velocity":0.4015748031496063},{"duration":0.2189779999999928,"midi":30,"time":164.2335,"velocity":0.4015748031496063},{"duration":0.2189779999999928,"midi":38,"time":164.342989,"velocity":0.4015748031496063},{"duration":0.2189779999999928,"midi":30,"time":164.342989,"velocity":0.4015748031496063},{"duration":0.2189779999999928,"midi":30,"time":164.45247799999999,"velocity":0.4015748031496063},{"duration":0.2189779999999928,"midi":38,"time":164.45247799999999,"velocity":0.4015748031496063},{"duration":1.42335700000001,"midi":49,"time":164.67145599999998,"velocity":0.4015748031496063},{"duration":0.2189779999999928,"midi":37,"time":164.67145599999998,"velocity":0.4015748031496063},{"duration":1.42335700000001,"midi":53,"time":164.67145599999998,"velocity":0.4015748031496063},{"duration":0.2189779999999928,"midi":29,"time":164.67145599999998,"velocity":0.4015748031496063},{"duration":1.42335700000001,"midi":56,"time":164.67145599999998,"velocity":0.4015748031496063},{"duration":0.2189779999999928,"midi":54,"time":164.67145599999998,"velocity":0.4015748031496063},{"duration":0.2189780000000212,"midi":29,"time":164.78094499999997,"velocity":0.4015748031496063},{"duration":0.2189780000000212,"midi":37,"time":164.78094499999997,"velocity":0.4015748031496063},{"duration":0.2189780000000212,"midi":54,"time":164.89043399999997,"velocity":0.4015748031496063},{"duration":0.2189780000000212,"midi":29,"time":164.89043399999997,"velocity":0.4015748031496063},{"duration":0.2189780000000212,"midi":37,"time":164.89043399999997,"velocity":0.4015748031496063},{"duration":0.2189779999999928,"midi":29,"time":164.999923,"velocity":0.4015748031496063},{"duration":0.2189779999999928,"midi":37,"time":164.999923,"velocity":0.4015748031496063},{"duration":0.2189779999999928,"midi":61,"time":165.109412,"velocity":0.4015748031496063},{"duration":0.2189779999999928,"midi":29,"time":165.109412,"velocity":0.4015748031496063},{"duration":0.2189779999999928,"midi":37,"time":165.109412,"velocity":0.4015748031496063},{"duration":0.2189779999999928,"midi":29,"time":165.218901,"velocity":0.4015748031496063},{"duration":0.2189779999999928,"midi":37,"time":165.218901,"velocity":0.4015748031496063},{"duration":0.2189779999999928,"midi":37,"time":165.32838999999998,"velocity":0.4015748031496063},{"duration":0.2189779999999928,"midi":29,"time":165.32838999999998,"velocity":0.4015748031496063},{"duration":0.2189779999999928,"midi":29,"time":165.43787899999998,"velocity":0.4015748031496063},{"duration":0.2189779999999928,"midi":37,"time":165.43787899999998,"velocity":0.4015748031496063},{"duration":0.2189779999999928,"midi":54,"time":165.54736799999998,"velocity":0.4015748031496063},{"duration":0.2189779999999928,"midi":37,"time":165.54736799999998,"velocity":0.4015748031496063},{"duration":0.2189779999999928,"midi":29,"time":165.54736799999998,"velocity":0.4015748031496063},{"duration":0.2189780000000212,"midi":29,"time":165.65685699999997,"velocity":0.4015748031496063},{"duration":0.2189780000000212,"midi":37,"time":165.65685699999997,"velocity":0.4015748031496063},{"duration":0.2189780000000212,"midi":54,"time":165.65685699999997,"velocity":0.4015748031496063},{"duration":0.2189780000000212,"midi":37,"time":165.76634599999997,"velocity":0.4015748031496063},{"duration":0.2189780000000212,"midi":29,"time":165.76634599999997,"velocity":0.4015748031496063},{"duration":0.2189780000000212,"midi":54,"time":165.76634599999997,"velocity":0.4015748031496063},{"duration":0.2189779999999928,"midi":54,"time":165.875835,"velocity":0.4015748031496063},{"duration":0.2189779999999928,"midi":37,"time":165.875835,"velocity":0.4015748031496063},{"duration":0.2189779999999928,"midi":29,"time":165.875835,"velocity":0.4015748031496063},{"duration":0.2189779999999928,"midi":61,"time":165.985324,"velocity":0.4015748031496063},{"duration":0.4379559999999856,"midi":53,"time":165.985324,"velocity":0.4015748031496063},{"duration":0.4379559999999856,"midi":56,"time":165.985324,"velocity":0.4015748031496063},{"duration":0.2189779999999928,"midi":29,"time":165.985324,"velocity":0.4015748031496063},{"duration":0.4379559999999856,"midi":49,"time":165.985324,"velocity":0.4015748031496063},{"duration":0.2189779999999928,"midi":37,"time":165.985324,"velocity":0.4015748031496063},{"duration":0.2189779999999928,"midi":29,"time":166.094813,"velocity":0.4015748031496063},{"duration":0.2189779999999928,"midi":37,"time":166.094813,"velocity":0.4015748031496063},{"duration":0.2189779999999928,"midi":29,"time":166.20430199999998,"velocity":0.4015748031496063},{"duration":0.2189779999999928,"midi":37,"time":166.20430199999998,"velocity":0.4015748031496063},{"duration":0.2189779999999928,"midi":42,"time":166.42327999999998,"velocity":0.4015748031496063},{"duration":0.2189779999999928,"midi":54,"time":166.42327999999998,"velocity":0.4015748031496063},{"duration":0.6569340000000068,"midi":61,"time":166.42327999999998,"velocity":0.4015748031496063},{"duration":0.437956000000014,"midi":54,"time":166.42327999999998,"velocity":0.4015748031496063},{"duration":1.42335700000001,"midi":57,"time":166.42327999999998,"velocity":0.4015748031496063},{"duration":0.2189779999999928,"midi":30,"time":166.42327999999998,"velocity":0.4015748031496063},{"duration":0.2189780000000212,"midi":30,"time":166.53276899999997,"velocity":0.4015748031496063},{"duration":0.2189780000000212,"midi":42,"time":166.53276899999997,"velocity":0.4015748031496063},{"duration":0.2189780000000212,"midi":42,"time":166.64225799999997,"velocity":0.4015748031496063},{"duration":0.2189780000000212,"midi":30,"time":166.64225799999997,"velocity":0.4015748031496063},{"duration":0.8759119999999996,"midi":54,"time":166.64225799999997,"velocity":0.4015748031496063},{"duration":0.2189779999999928,"midi":42,"time":166.751747,"velocity":0.4015748031496063},{"duration":0.2189779999999928,"midi":30,"time":166.751747,"velocity":0.4015748031496063},{"duration":0.985400999999996,"midi":61,"time":166.861236,"velocity":0.4015748031496063},{"duration":0.2189779999999928,"midi":42,"time":166.861236,"velocity":0.4015748031496063},{"duration":0.2189779999999928,"midi":30,"time":166.861236,"velocity":0.4015748031496063},{"duration":0.2189779999999928,"midi":30,"time":166.970725,"velocity":0.4015748031496063},{"duration":0.2189779999999928,"midi":42,"time":166.970725,"velocity":0.4015748031496063},{"duration":0.2189779999999928,"midi":30,"time":167.08021399999998,"velocity":0.4015748031496063},{"duration":0.2189779999999928,"midi":42,"time":167.08021399999998,"velocity":0.4015748031496063},{"duration":0.2189779999999928,"midi":30,"time":167.18970299999998,"velocity":0.4015748031496063},{"duration":0.2189779999999928,"midi":42,"time":167.18970299999998,"velocity":0.4015748031496063},{"duration":0.2189779999999928,"midi":30,"time":167.29919199999998,"velocity":0.4015748031496063},{"duration":0.3284670000000176,"midi":54,"time":167.29919199999998,"velocity":0.4015748031496063},{"duration":0.2189779999999928,"midi":42,"time":167.29919199999998,"velocity":0.4015748031496063},{"duration":0.2189780000000212,"midi":42,"time":167.40868099999997,"velocity":0.4015748031496063},{"duration":0.3284670000000176,"midi":54,"time":167.40868099999997,"velocity":0.4015748031496063},{"duration":0.2189780000000212,"midi":30,"time":167.40868099999997,"velocity":0.4015748031496063},{"duration":0.3284670000000176,"midi":54,"time":167.51816999999997,"velocity":0.4015748031496063},{"duration":0.2189780000000212,"midi":42,"time":167.51816999999997,"velocity":0.4015748031496063},{"duration":0.2189780000000212,"midi":30,"time":167.51816999999997,"velocity":0.4015748031496063},{"duration":0.2189779999999928,"midi":30,"time":167.627659,"velocity":0.4015748031496063},{"duration":0.2189779999999928,"midi":42,"time":167.627659,"velocity":0.4015748031496063},{"duration":0.2189779999999928,"midi":54,"time":167.627659,"velocity":0.4015748031496063},{"duration":0.2189779999999928,"midi":42,"time":167.737148,"velocity":0.4015748031496063},{"duration":0.2189779999999928,"midi":61,"time":167.737148,"velocity":0.4015748031496063},{"duration":0.4379559999999856,"midi":57,"time":167.737148,"velocity":0.4015748031496063},{"duration":0.2189779999999928,"midi":30,"time":167.737148,"velocity":0.4015748031496063},{"duration":0.4379559999999856,"midi":54,"time":167.737148,"velocity":0.4015748031496063},{"duration":0.4379559999999856,"midi":61,"time":167.737148,"velocity":0.4015748031496063},{"duration":0.2189779999999928,"midi":42,"time":167.846637,"velocity":0.4015748031496063},{"duration":0.2189779999999928,"midi":30,"time":167.846637,"velocity":0.4015748031496063},{"duration":0.2189779999999928,"midi":30,"time":167.95612599999998,"velocity":0.4015748031496063},{"duration":0.2189779999999928,"midi":42,"time":167.95612599999998,"velocity":0.4015748031496063},{"duration":0.2189779999999928,"midi":30,"time":168.06561499999998,"velocity":0.4015748031496063},{"duration":0.2189779999999928,"midi":42,"time":168.06561499999998,"velocity":0.4015748031496063},{"duration":0.2189780000000212,"midi":29,"time":168.17510399999998,"velocity":0.4015748031496063},{"duration":0.2189780000000212,"midi":37,"time":168.17510399999998,"velocity":0.4015748031496063},{"duration":0.2189780000000212,"midi":54,"time":168.17510399999998,"velocity":0.4015748031496063},{"duration":1.42335700000001,"midi":53,"time":168.17510399999998,"velocity":0.4015748031496063},{"duration":1.42335700000001,"midi":49,"time":168.17510399999998,"velocity":0.4015748031496063},{"duration":1.42335700000001,"midi":56,"time":168.17510399999998,"velocity":0.4015748031496063},{"duration":0.2189780000000212,"midi":29,"time":168.28459299999997,"velocity":0.4015748031496063},{"duration":0.2189780000000212,"midi":37,"time":168.28459299999997,"velocity":0.4015748031496063},{"duration":0.2189779999999928,"midi":37,"time":168.394082,"velocity":0.4015748031496063},{"duration":0.2189779999999928,"midi":29,"time":168.394082,"velocity":0.4015748031496063},{"duration":0.2189779999999928,"midi":54,"time":168.394082,"velocity":0.4015748031496063},{"duration":0.2189779999999928,"midi":29,"time":168.503571,"velocity":0.4015748031496063},{"duration":0.2189779999999928,"midi":37,"time":168.503571,"velocity":0.4015748031496063},{"duration":0.2189779999999928,"midi":37,"time":168.61306,"velocity":0.4015748031496063},{"duration":0.2189779999999928,"midi":61,"time":168.61306,"velocity":0.4015748031496063},{"duration":0.2189779999999928,"midi":29,"time":168.61306,"velocity":0.4015748031496063},{"duration":0.2189779999999928,"midi":37,"time":168.722549,"velocity":0.4015748031496063},{"duration":0.2189779999999928,"midi":29,"time":168.722549,"velocity":0.4015748031496063},{"duration":0.2189779999999928,"midi":29,"time":168.83203799999998,"velocity":0.4015748031496063},{"duration":0.2189779999999928,"midi":37,"time":168.83203799999998,"velocity":0.4015748031496063},{"duration":0.2189779999999928,"midi":37,"time":168.94152699999998,"velocity":0.4015748031496063},{"duration":0.2189779999999928,"midi":29,"time":168.94152699999998,"velocity":0.4015748031496063},{"duration":0.2189780000000212,"midi":37,"time":169.05101599999998,"velocity":0.4015748031496063},{"duration":0.2189780000000212,"midi":54,"time":169.05101599999998,"velocity":0.4015748031496063},{"duration":0.2189780000000212,"midi":29,"time":169.05101599999998,"velocity":0.4015748031496063},{"duration":0.2189780000000212,"midi":54,"time":169.16050499999997,"velocity":0.4015748031496063},{"duration":0.2189780000000212,"midi":29,"time":169.16050499999997,"velocity":0.4015748031496063},{"duration":0.2189780000000212,"midi":37,"time":169.16050499999997,"velocity":0.4015748031496063},{"duration":0.2189779999999928,"midi":54,"time":169.269994,"velocity":0.4015748031496063},{"duration":0.2189779999999928,"midi":37,"time":169.269994,"velocity":0.4015748031496063},{"duration":0.2189779999999928,"midi":29,"time":169.269994,"velocity":0.4015748031496063},{"duration":0.2189779999999928,"midi":37,"time":169.379483,"velocity":0.4015748031496063},{"duration":0.2189779999999928,"midi":29,"time":169.379483,"velocity":0.4015748031496063},{"duration":0.2189779999999928,"midi":54,"time":169.379483,"velocity":0.4015748031496063},{"duration":0.2189779999999928,"midi":29,"time":169.488972,"velocity":0.4015748031496063},{"duration":0.2189779999999928,"midi":61,"time":169.488972,"velocity":0.4015748031496063},{"duration":0.2189779999999928,"midi":37,"time":169.488972,"velocity":0.4015748031496063},{"duration":0.4379559999999856,"midi":53,"time":169.488972,"velocity":0.4015748031496063},{"duration":0.4379559999999856,"midi":49,"time":169.488972,"velocity":0.4015748031496063},{"duration":0.4379559999999856,"midi":56,"time":169.488972,"velocity":0.4015748031496063},{"duration":0.2189779999999928,"midi":29,"time":169.598461,"velocity":0.4015748031496063},{"duration":0.2189779999999928,"midi":37,"time":169.598461,"velocity":0.4015748031496063},{"duration":0.2189779999999928,"midi":37,"time":169.70794999999998,"velocity":0.4015748031496063},{"duration":0.2189779999999928,"midi":29,"time":169.70794999999998,"velocity":0.4015748031496063},{"duration":0.2189780000000212,"midi":54,"time":169.92692799999998,"velocity":0.4015748031496063},{"duration":0.2189780000000212,"midi":30,"time":169.92692799999998,"velocity":0.4015748031496063},{"duration":1.42335700000001,"midi":57,"time":169.92692799999998,"velocity":0.4015748031496063},{"duration":0.437956000000014,"midi":54,"time":169.92692799999998,"velocity":0.4015748031496063},{"duration":0.2189780000000212,"midi":38,"time":169.92692799999998,"velocity":0.4015748031496063},{"duration":1.42335700000001,"midi":50,"time":169.92692799999998,"velocity":0.4015748031496063},{"duration":0.2189780000000212,"midi":38,"time":170.03641699999997,"velocity":0.4015748031496063},{"duration":0.2189780000000212,"midi":30,"time":170.03641699999997,"velocity":0.4015748031496063},{"duration":0.2189779999999928,"midi":38,"time":170.145906,"velocity":0.4015748031496063},{"duration":0.8759119999999996,"midi":54,"time":170.145906,"velocity":0.4015748031496063},{"duration":0.2189779999999928,"midi":30,"time":170.145906,"velocity":0.4015748031496063},{"duration":0.2189779999999928,"midi":38,"time":170.255395,"velocity":0.4015748031496063},{"duration":0.2189779999999928,"midi":30,"time":170.255395,"velocity":0.4015748031496063},{"duration":0.2189779999999928,"midi":61,"time":170.364884,"velocity":0.4015748031496063},{"duration":0.2189779999999928,"midi":30,"time":170.364884,"velocity":0.4015748031496063},{"duration":0.2189779999999928,"midi":38,"time":170.364884,"velocity":0.4015748031496063},{"duration":0.2189779999999928,"midi":38,"time":170.47437299999999,"velocity":0.4015748031496063},{"duration":0.2189779999999928,"midi":30,"time":170.47437299999999,"velocity":0.4015748031496063},{"duration":0.2189779999999928,"midi":30,"time":170.58386199999998,"velocity":0.4015748031496063},{"duration":0.2189779999999928,"midi":38,"time":170.58386199999998,"velocity":0.4015748031496063},{"duration":0.2189779999999928,"midi":30,"time":170.69335099999998,"velocity":0.4015748031496063},{"duration":0.2189779999999928,"midi":38,"time":170.69335099999998,"velocity":0.4015748031496063},{"duration":0.2189780000000212,"midi":30,"time":170.80283999999997,"velocity":0.4015748031496063},{"duration":0.3284670000000176,"midi":54,"time":170.80283999999997,"velocity":0.4015748031496063},{"duration":0.2189780000000212,"midi":38,"time":170.80283999999997,"velocity":0.4015748031496063},{"duration":0.2189780000000212,"midi":38,"time":170.91232899999997,"velocity":0.4015748031496063},{"duration":0.2189780000000212,"midi":30,"time":170.91232899999997,"velocity":0.4015748031496063},{"duration":0.3284670000000176,"midi":54,"time":170.91232899999997,"velocity":0.4015748031496063},{"duration":0.2189779999999928,"midi":30,"time":171.021818,"velocity":0.4015748031496063},{"duration":0.2189779999999928,"midi":38,"time":171.021818,"velocity":0.4015748031496063},{"duration":0.3284669999999892,"midi":54,"time":171.021818,"velocity":0.4015748031496063},{"duration":0.2189779999999928,"midi":30,"time":171.131307,"velocity":0.4015748031496063},{"duration":0.2189779999999928,"midi":54,"time":171.131307,"velocity":0.4015748031496063},{"duration":0.2189779999999928,"midi":38,"time":171.131307,"velocity":0.4015748031496063},{"duration":0.2189779999999928,"midi":38,"time":171.240796,"velocity":0.4015748031496063},{"duration":0.4379559999999856,"midi":54,"time":171.240796,"velocity":0.4015748031496063},{"duration":0.4379559999999856,"midi":50,"time":171.240796,"velocity":0.4015748031496063},{"duration":0.2189779999999928,"midi":61,"time":171.240796,"velocity":0.4015748031496063},{"duration":0.2189779999999928,"midi":30,"time":171.240796,"velocity":0.4015748031496063},{"duration":0.4379559999999856,"midi":57,"time":171.240796,"velocity":0.4015748031496063},{"duration":0.2189779999999928,"midi":30,"time":171.35028499999999,"velocity":0.4015748031496063},{"duration":0.2189779999999928,"midi":38,"time":171.35028499999999,"velocity":0.4015748031496063},{"duration":0.2189779999999928,"midi":38,"time":171.45977399999998,"velocity":0.4015748031496063},{"duration":0.2189779999999928,"midi":30,"time":171.45977399999998,"velocity":0.4015748031496063},{"duration":0.2189780000000212,"midi":37,"time":171.67875199999997,"velocity":0.4015748031496063},{"duration":1.42335700000001,"midi":53,"time":171.67875199999997,"velocity":0.4015748031496063},{"duration":0.2189780000000212,"midi":29,"time":171.67875199999997,"velocity":0.4015748031496063},{"duration":0.2189780000000212,"midi":54,"time":171.67875199999997,"velocity":0.4015748031496063},{"duration":1.42335700000001,"midi":56,"time":171.67875199999997,"velocity":0.4015748031496063},{"duration":1.42335700000001,"midi":49,"time":171.67875199999997,"velocity":0.4015748031496063},{"duration":0.2189780000000212,"midi":37,"time":171.78824099999997,"velocity":0.4015748031496063},{"duration":0.2189780000000212,"midi":29,"time":171.78824099999997,"velocity":0.4015748031496063},{"duration":0.2189779999999928,"midi":29,"time":171.89773,"velocity":0.4015748031496063},{"duration":0.2189779999999928,"midi":54,"time":171.89773,"velocity":0.4015748031496063},{"duration":0.2189779999999928,"midi":37,"time":171.89773,"velocity":0.4015748031496063},{"duration":0.2189779999999928,"midi":37,"time":172.007219,"velocity":0.4015748031496063},{"duration":0.2189779999999928,"midi":29,"time":172.007219,"velocity":0.4015748031496063},{"duration":0.2189779999999928,"midi":29,"time":172.116708,"velocity":0.4015748031496063},{"duration":0.2189779999999928,"midi":61,"time":172.116708,"velocity":0.4015748031496063},{"duration":0.2189779999999928,"midi":37,"time":172.116708,"velocity":0.4015748031496063},{"duration":0.2189779999999928,"midi":29,"time":172.22619699999998,"velocity":0.4015748031496063},{"duration":0.2189779999999928,"midi":37,"time":172.22619699999998,"velocity":0.4015748031496063},{"duration":0.2189779999999928,"midi":37,"time":172.33568599999998,"velocity":0.4015748031496063},{"duration":0.2189779999999928,"midi":29,"time":172.33568599999998,"velocity":0.4015748031496063},{"duration":0.2189779999999928,"midi":29,"time":172.44517499999998,"velocity":0.4015748031496063},{"duration":0.2189779999999928,"midi":37,"time":172.44517499999998,"velocity":0.4015748031496063},{"duration":0.2189780000000212,"midi":37,"time":172.55466399999997,"velocity":0.4015748031496063},{"duration":0.2189780000000212,"midi":29,"time":172.55466399999997,"velocity":0.4015748031496063},{"duration":0.2189780000000212,"midi":54,"time":172.55466399999997,"velocity":0.4015748031496063},{"duration":0.2189780000000212,"midi":54,"time":172.66415299999997,"velocity":0.4015748031496063},{"duration":0.2189780000000212,"midi":37,"time":172.66415299999997,"velocity":0.4015748031496063},{"duration":0.2189780000000212,"midi":29,"time":172.66415299999997,"velocity":0.4015748031496063},{"duration":0.2189779999999928,"midi":37,"time":172.773642,"velocity":0.4015748031496063},{"duration":0.2189779999999928,"midi":54,"time":172.773642,"velocity":0.4015748031496063},{"duration":0.2189779999999928,"midi":29,"time":172.773642,"velocity":0.4015748031496063},{"duration":0.2189779999999928,"midi":37,"time":172.883131,"velocity":0.4015748031496063},{"duration":0.2189779999999928,"midi":54,"time":172.883131,"velocity":0.4015748031496063},{"duration":0.2189779999999928,"midi":29,"time":172.883131,"velocity":0.4015748031496063},{"duration":0.4379559999999856,"midi":56,"time":172.99262,"velocity":0.4015748031496063},{"duration":0.4379559999999856,"midi":53,"time":172.99262,"velocity":0.4015748031496063},{"duration":0.4379559999999856,"midi":49,"time":172.99262,"velocity":0.4015748031496063},{"duration":0.2189779999999928,"midi":37,"time":172.99262,"velocity":0.4015748031496063},{"duration":0.2189779999999928,"midi":29,"time":172.99262,"velocity":0.4015748031496063},{"duration":0.2189779999999928,"midi":61,"time":172.99262,"velocity":0.4015748031496063},{"duration":0.2189779999999928,"midi":37,"time":173.10210899999998,"velocity":0.4015748031496063},{"duration":0.2189779999999928,"midi":29,"time":173.10210899999998,"velocity":0.4015748031496063},{"duration":0.2189779999999928,"midi":29,"time":173.21159799999998,"velocity":0.4015748031496063},{"duration":0.2189779999999928,"midi":37,"time":173.21159799999998,"velocity":0.4015748031496063},{"duration":0.2189780000000212,"midi":30,"time":173.43057599999997,"velocity":0.4015748031496063},{"duration":1.42335700000001,"midi":57,"time":173.43057599999997,"velocity":0.4015748031496063},{"duration":0.2189780000000212,"midi":54,"time":173.43057599999997,"velocity":0.4015748031496063},{"duration":0.6569340000000068,"midi":61,"time":173.43057599999997,"velocity":0.4015748031496063},{"duration":0.2189780000000212,"midi":42,"time":173.43057599999997,"velocity":0.4015748031496063},{"duration":0.437956000000014,"midi":54,"time":173.43057599999997,"velocity":0.4015748031496063},{"duration":0.2189780000000212,"midi":42,"time":173.54006499999997,"velocity":0.4015748031496063},{"duration":0.2189780000000212,"midi":30,"time":173.54006499999997,"velocity":0.4015748031496063},{"duration":0.8759119999999996,"midi":54,"time":173.649554,"velocity":0.4015748031496063},{"duration":0.2189779999999928,"midi":30,"time":173.649554,"velocity":0.4015748031496063},{"duration":0.2189779999999928,"midi":42,"time":173.649554,"velocity":0.4015748031496063},{"duration":0.2189779999999928,"midi":42,"time":173.759043,"velocity":0.4015748031496063},{"duration":0.2189779999999928,"midi":30,"time":173.759043,"velocity":0.4015748031496063},{"duration":0.985400999999996,"midi":61,"time":173.868532,"velocity":0.4015748031496063},{"duration":0.2189779999999928,"midi":42,"time":173.868532,"velocity":0.4015748031496063},{"duration":0.2189779999999928,"midi":30,"time":173.868532,"velocity":0.4015748031496063},{"duration":0.2189779999999928,"midi":30,"time":173.97802099999998,"velocity":0.4015748031496063},{"duration":0.2189779999999928,"midi":42,"time":173.97802099999998,"velocity":0.4015748031496063},{"duration":0.2189779999999928,"midi":42,"time":174.08750999999998,"velocity":0.4015748031496063},{"duration":0.2189779999999928,"midi":30,"time":174.08750999999998,"velocity":0.4015748031496063},{"duration":0.2189779999999928,"midi":30,"time":174.19699899999998,"velocity":0.4015748031496063},{"duration":0.2189779999999928,"midi":42,"time":174.19699899999998,"velocity":0.4015748031496063},{"duration":0.2189780000000212,"midi":42,"time":174.30648799999997,"velocity":0.4015748031496063},{"duration":0.3284670000000176,"midi":54,"time":174.30648799999997,"velocity":0.4015748031496063},{"duration":0.2189780000000212,"midi":30,"time":174.30648799999997,"velocity":0.4015748031496063},{"duration":0.3284670000000176,"midi":54,"time":174.41597699999997,"velocity":0.4015748031496063},{"duration":0.2189780000000212,"midi":42,"time":174.41597699999997,"velocity":0.4015748031496063},{"duration":0.2189780000000212,"midi":30,"time":174.41597699999997,"velocity":0.4015748031496063},{"duration":0.2189779999999928,"midi":42,"time":174.525466,"velocity":0.4015748031496063},{"duration":0.2189779999999928,"midi":30,"time":174.525466,"velocity":0.4015748031496063},{"duration":0.3284669999999892,"midi":54,"time":174.525466,"velocity":0.4015748031496063},{"duration":0.2189779999999928,"midi":30,"time":174.634955,"velocity":0.4015748031496063},{"duration":0.2189779999999928,"midi":54,"time":174.634955,"velocity":0.4015748031496063},{"duration":0.2189779999999928,"midi":42,"time":174.634955,"velocity":0.4015748031496063},{"duration":0.4379559999999856,"midi":57,"time":174.744444,"velocity":0.4015748031496063},{"duration":0.2189779999999928,"midi":61,"time":174.744444,"velocity":0.4015748031496063},{"duration":0.2189779999999928,"midi":30,"time":174.744444,"velocity":0.4015748031496063},{"duration":0.4379559999999856,"midi":54,"time":174.744444,"velocity":0.4015748031496063},{"duration":0.2189779999999928,"midi":42,"time":174.744444,"velocity":0.4015748031496063},{"duration":0.4379559999999856,"midi":61,"time":174.744444,"velocity":0.4015748031496063},{"duration":0.2189779999999928,"midi":30,"time":174.85393299999998,"velocity":0.4015748031496063},{"duration":0.2189779999999928,"midi":42,"time":174.85393299999998,"velocity":0.4015748031496063},{"duration":0.2189779999999928,"midi":42,"time":174.96342199999998,"velocity":0.4015748031496063},{"duration":0.2189779999999928,"midi":30,"time":174.96342199999998,"velocity":0.4015748031496063},{"duration":0.2189779999999928,"midi":30,"time":175.07291099999998,"velocity":0.4015748031496063},{"duration":0.2189779999999928,"midi":42,"time":175.07291099999998,"velocity":0.4015748031496063},{"duration":0.2189780000000212,"midi":37,"time":175.18239999999997,"velocity":0.4015748031496063},{"duration":0.2189780000000212,"midi":29,"time":175.18239999999997,"velocity":0.4015748031496063},{"duration":1.42335700000001,"midi":49,"time":175.18239999999997,"velocity":0.4015748031496063},{"duration":1.42335700000001,"midi":53,"time":175.18239999999997,"velocity":0.4015748031496063},{"duration":1.42335700000001,"midi":56,"time":175.18239999999997,"velocity":0.4015748031496063},{"duration":0.2189780000000212,"midi":54,"time":175.18239999999997,"velocity":0.4015748031496063},{"duration":0.2189780000000212,"midi":29,"time":175.29188899999997,"velocity":0.4015748031496063},{"duration":0.2189780000000212,"midi":37,"time":175.29188899999997,"velocity":0.4015748031496063},{"duration":0.2189779999999928,"midi":29,"time":175.401378,"velocity":0.4015748031496063},{"duration":0.2189779999999928,"midi":37,"time":175.401378,"velocity":0.4015748031496063},{"duration":0.2189779999999928,"midi":54,"time":175.401378,"velocity":0.4015748031496063},{"duration":0.2189779999999928,"midi":37,"time":175.510867,"velocity":0.4015748031496063},{"duration":0.2189779999999928,"midi":29,"time":175.510867,"velocity":0.4015748031496063},{"duration":0.2189779999999928,"midi":29,"time":175.620356,"velocity":0.4015748031496063},{"duration":0.2189779999999928,"midi":61,"time":175.620356,"velocity":0.4015748031496063},{"duration":0.2189779999999928,"midi":37,"time":175.620356,"velocity":0.4015748031496063},{"duration":0.2189779999999928,"midi":29,"time":175.72984499999998,"velocity":0.4015748031496063},{"duration":0.2189779999999928,"midi":37,"time":175.72984499999998,"velocity":0.4015748031496063},{"duration":0.2189779999999928,"midi":37,"time":175.83933399999998,"velocity":0.4015748031496063},{"duration":0.2189779999999928,"midi":29,"time":175.83933399999998,"velocity":0.4015748031496063},{"duration":0.2189779999999928,"midi":37,"time":175.94882299999998,"velocity":0.4015748031496063},{"duration":0.2189779999999928,"midi":29,"time":175.94882299999998,"velocity":0.4015748031496063},{"duration":0.2189780000000212,"midi":54,"time":176.05831199999997,"velocity":0.4015748031496063},{"duration":0.2189780000000212,"midi":37,"time":176.05831199999997,"velocity":0.4015748031496063},{"duration":0.2189780000000212,"midi":29,"time":176.05831199999997,"velocity":0.4015748031496063},{"duration":0.2189780000000212,"midi":54,"time":176.16780099999997,"velocity":0.4015748031496063},{"duration":0.2189780000000212,"midi":37,"time":176.16780099999997,"velocity":0.4015748031496063},{"duration":0.2189780000000212,"midi":29,"time":176.16780099999997,"velocity":0.4015748031496063},{"duration":0.2189779999999928,"midi":37,"time":176.27729,"velocity":0.4015748031496063},{"duration":0.2189779999999928,"midi":54,"time":176.27729,"velocity":0.4015748031496063},{"duration":0.2189779999999928,"midi":29,"time":176.27729,"velocity":0.4015748031496063},{"duration":0.2189779999999928,"midi":37,"time":176.386779,"velocity":0.4015748031496063},{"duration":0.2189779999999928,"midi":29,"time":176.386779,"velocity":0.4015748031496063},{"duration":0.2189779999999928,"midi":54,"time":176.386779,"velocity":0.4015748031496063},{"duration":0.2189779999999928,"midi":37,"time":176.496268,"velocity":0.4015748031496063},{"duration":0.2189779999999928,"midi":29,"time":176.496268,"velocity":0.4015748031496063},{"duration":0.2189779999999928,"midi":61,"time":176.496268,"velocity":0.4015748031496063},{"duration":0.4379559999999856,"midi":56,"time":176.496268,"velocity":0.4015748031496063},{"duration":0.4379559999999856,"midi":49,"time":176.496268,"velocity":0.4015748031496063},{"duration":0.4379559999999856,"midi":53,"time":176.496268,"velocity":0.4015748031496063},{"duration":0.2189779999999928,"midi":37,"time":176.60575699999998,"velocity":0.4015748031496063},{"duration":0.2189779999999928,"midi":29,"time":176.60575699999998,"velocity":0.4015748031496063},{"duration":0.2189779999999928,"midi":29,"time":176.71524599999998,"velocity":0.4015748031496063},{"duration":0.2189779999999928,"midi":37,"time":176.71524599999998,"velocity":0.4015748031496063},{"duration":0.2189780000000212,"midi":38,"time":176.93422399999997,"velocity":0.4015748031496063},{"duration":1.42335700000001,"midi":50,"time":176.93422399999997,"velocity":0.4015748031496063},{"duration":0.2189780000000212,"midi":54,"time":176.93422399999997,"velocity":0.4015748031496063},{"duration":1.42335700000001,"midi":57,"time":176.93422399999997,"velocity":0.4015748031496063},{"duration":0.2189780000000212,"midi":30,"time":176.93422399999997,"velocity":0.4015748031496063},{"duration":0.437956000000014,"midi":54,"time":176.93422399999997,"velocity":0.4015748031496063},{"duration":0.2189780000000212,"midi":38,"time":177.04371299999997,"velocity":0.4015748031496063},{"duration":0.2189780000000212,"midi":30,"time":177.04371299999997,"velocity":0.4015748031496063},{"duration":0.8759119999999996,"midi":54,"time":177.153202,"velocity":0.4015748031496063},{"duration":0.2189779999999928,"midi":38,"time":177.153202,"velocity":0.4015748031496063},{"duration":0.2189779999999928,"midi":30,"time":177.153202,"velocity":0.4015748031496063},{"duration":0.2189779999999928,"midi":38,"time":177.262691,"velocity":0.4015748031496063},{"duration":0.2189779999999928,"midi":30,"time":177.262691,"velocity":0.4015748031496063},{"duration":0.2189779999999928,"midi":30,"time":177.37218,"velocity":0.4015748031496063},{"duration":0.2189779999999928,"midi":61,"time":177.37218,"velocity":0.4015748031496063},{"duration":0.2189779999999928,"midi":38,"time":177.37218,"velocity":0.4015748031496063},{"duration":0.2189779999999928,"midi":30,"time":177.48166899999998,"velocity":0.4015748031496063},{"duration":0.2189779999999928,"midi":38,"time":177.48166899999998,"velocity":0.4015748031496063},{"duration":0.2189779999999928,"midi":30,"time":177.59115799999998,"velocity":0.4015748031496063},{"duration":0.2189779999999928,"midi":38,"time":177.59115799999998,"velocity":0.4015748031496063},{"duration":0.2189780000000212,"midi":30,"time":177.70064699999998,"velocity":0.4015748031496063},{"duration":0.2189780000000212,"midi":38,"time":177.70064699999998,"velocity":0.4015748031496063},{"duration":0.2189780000000212,"midi":38,"time":177.81013599999997,"velocity":0.4015748031496063},{"duration":0.3284670000000176,"midi":54,"time":177.81013599999997,"velocity":0.4015748031496063},{"duration":0.2189780000000212,"midi":30,"time":177.81013599999997,"velocity":0.4015748031496063},{"duration":0.3284669999999892,"midi":54,"time":177.919625,"velocity":0.4015748031496063},{"duration":0.2189779999999928,"midi":38,"time":177.919625,"velocity":0.4015748031496063},{"duration":0.2189779999999928,"midi":30,"time":177.919625,"velocity":0.4015748031496063},{"duration":0.2189779999999928,"midi":38,"time":178.029114,"velocity":0.4015748031496063},{"duration":0.3284669999999892,"midi":54,"time":178.029114,"velocity":0.4015748031496063},{"duration":0.2189779999999928,"midi":30,"time":178.029114,"velocity":0.4015748031496063},{"duration":0.2189779999999928,"midi":38,"time":178.138603,"velocity":0.4015748031496063},{"duration":0.2189779999999928,"midi":54,"time":178.138603,"velocity":0.4015748031496063},{"duration":0.2189779999999928,"midi":30,"time":178.138603,"velocity":0.4015748031496063},{"duration":0.4379559999999856,"midi":54,"time":178.24809199999999,"velocity":0.4015748031496063},{"duration":0.4379559999999856,"midi":50,"time":178.24809199999999,"velocity":0.4015748031496063},{"duration":0.2189779999999928,"midi":61,"time":178.24809199999999,"velocity":0.4015748031496063},{"duration":0.2189779999999928,"midi":30,"time":178.24809199999999,"velocity":0.4015748031496063},{"duration":0.4379559999999856,"midi":57,"time":178.24809199999999,"velocity":0.4015748031496063},{"duration":0.2189779999999928,"midi":38,"time":178.24809199999999,"velocity":0.4015748031496063},{"duration":0.2189779999999928,"midi":38,"time":178.35758099999998,"velocity":0.4015748031496063},{"duration":0.2189779999999928,"midi":30,"time":178.35758099999998,"velocity":0.4015748031496063},{"duration":0.2189779999999928,"midi":30,"time":178.46706999999998,"velocity":0.4015748031496063},{"duration":0.2189779999999928,"midi":38,"time":178.46706999999998,"velocity":0.4015748031496063},{"duration":0.2189780000000212,"midi":37,"time":178.68604799999997,"velocity":0.4015748031496063},{"duration":0.2189780000000212,"midi":29,"time":178.68604799999997,"velocity":0.4015748031496063},{"duration":1.42335700000001,"midi":49,"time":178.68604799999997,"velocity":0.4015748031496063},{"duration":1.42335700000001,"midi":53,"time":178.68604799999997,"velocity":0.4015748031496063},{"duration":1.42335700000001,"midi":56,"time":178.68604799999997,"velocity":0.4015748031496063},{"duration":0.2189780000000212,"midi":54,"time":178.68604799999997,"velocity":0.4015748031496063},{"duration":0.2189779999999928,"midi":29,"time":178.795537,"velocity":0.4015748031496063},{"duration":0.2189779999999928,"midi":37,"time":178.795537,"velocity":0.4015748031496063},{"duration":0.2189779999999928,"midi":37,"time":178.905026,"velocity":0.4015748031496063},{"duration":0.2189779999999928,"midi":54,"time":178.905026,"velocity":0.4015748031496063},{"duration":0.2189779999999928,"midi":29,"time":178.905026,"velocity":0.4015748031496063},{"duration":0.2189779999999928,"midi":37,"time":179.014515,"velocity":0.4015748031496063},{"duration":0.2189779999999928,"midi":29,"time":179.014515,"velocity":0.4015748031496063},{"duration":0.2189779999999928,"midi":29,"time":179.12400399999999,"velocity":0.4015748031496063},{"duration":0.2189779999999928,"midi":61,"time":179.12400399999999,"velocity":0.4015748031496063},{"duration":0.2189779999999928,"midi":37,"time":179.12400399999999,"velocity":0.4015748031496063},{"duration":0.2189779999999928,"midi":29,"time":179.23349299999998,"velocity":0.4015748031496063},{"duration":0.2189779999999928,"midi":37,"time":179.23349299999998,"velocity":0.4015748031496063},{"duration":0.2189779999999928,"midi":37,"time":179.34298199999998,"velocity":0.4015748031496063},{"duration":0.2189779999999928,"midi":29,"time":179.34298199999998,"velocity":0.4015748031496063},{"duration":0.2189780000000212,"midi":37,"time":179.45247099999997,"velocity":0.4015748031496063},{"duration":0.2189780000000212,"midi":29,"time":179.45247099999997,"velocity":0.4015748031496063},{"duration":0.2189780000000212,"midi":37,"time":179.56195999999997,"velocity":0.4015748031496063},{"duration":0.2189780000000212,"midi":29,"time":179.56195999999997,"velocity":0.4015748031496063},{"duration":0.2189780000000212,"midi":54,"time":179.56195999999997,"velocity":0.4015748031496063},{"duration":0.2189779999999928,"midi":29,"time":179.671449,"velocity":0.4015748031496063},{"duration":0.2189779999999928,"midi":37,"time":179.671449,"velocity":0.4015748031496063},{"duration":0.2189779999999928,"midi":54,"time":179.671449,"velocity":0.4015748031496063},{"duration":0.2189779999999928,"midi":54,"time":179.780938,"velocity":0.4015748031496063},{"duration":0.2189779999999928,"midi":29,"time":179.780938,"velocity":0.4015748031496063},{"duration":0.2189779999999928,"midi":37,"time":179.780938,"velocity":0.4015748031496063},{"duration":0.2189779999999928,"midi":37,"time":179.890427,"velocity":0.4015748031496063},{"duration":0.2189779999999928,"midi":54,"time":179.890427,"velocity":0.4015748031496063},{"duration":0.2189779999999928,"midi":29,"time":179.890427,"velocity":0.4015748031496063},{"duration":0.4379559999999856,"midi":49,"time":179.99991599999998,"velocity":0.4015748031496063},{"duration":0.4379559999999856,"midi":53,"time":179.99991599999998,"velocity":0.4015748031496063},{"duration":0.2189779999999928,"midi":61,"time":179.99991599999998,"velocity":0.4015748031496063},{"duration":0.4379559999999856,"midi":56,"time":179.99991599999998,"velocity":0.4015748031496063},{"duration":0.2189779999999928,"midi":29,"time":179.99991599999998,"velocity":0.4015748031496063},{"duration":0.2189779999999928,"midi":37,"time":179.99991599999998,"velocity":0.4015748031496063},{"duration":0.2189779999999928,"midi":29,"time":180.10940499999998,"velocity":0.4015748031496063},{"duration":0.2189779999999928,"midi":37,"time":180.10940499999998,"velocity":0.4015748031496063},{"duration":0.2189779999999928,"midi":37,"time":180.21889399999998,"velocity":0.4015748031496063},{"duration":0.2189779999999928,"midi":29,"time":180.21889399999998,"velocity":0.4015748031496063},{"duration":0.2189780000000212,"midi":54,"time":180.43787199999997,"velocity":0.4015748031496063},{"duration":0.2189780000000212,"midi":30,"time":180.43787199999997,"velocity":0.4015748031496063},{"duration":0.6569340000000068,"midi":61,"time":180.43787199999997,"velocity":0.4015748031496063},{"duration":0.2189780000000212,"midi":42,"time":180.43787199999997,"velocity":0.4015748031496063},{"duration":0.437956000000014,"midi":54,"time":180.43787199999997,"velocity":0.4015748031496063},{"duration":1.42335700000001,"midi":57,"time":180.43787199999997,"velocity":0.4015748031496063},{"duration":0.2189779999999928,"midi":30,"time":180.547361,"velocity":0.4015748031496063},{"duration":0.2189779999999928,"midi":42,"time":180.547361,"velocity":0.4015748031496063},{"duration":0.2189779999999928,"midi":30,"time":180.65685,"velocity":0.4015748031496063},{"duration":0.8759119999999996,"midi":54,"time":180.65685,"velocity":0.4015748031496063},{"duration":0.2189779999999928,"midi":42,"time":180.65685,"velocity":0.4015748031496063},{"duration":0.2189779999999928,"midi":42,"time":180.766339,"velocity":0.4015748031496063},{"duration":0.2189779999999928,"midi":30,"time":180.766339,"velocity":0.4015748031496063},{"duration":0.2189779999999928,"midi":42,"time":180.87582799999998,"velocity":0.4015748031496063},{"duration":0.2189779999999928,"midi":30,"time":180.87582799999998,"velocity":0.4015748031496063},{"duration":0.985400999999996,"midi":61,"time":180.87582799999998,"velocity":0.4015748031496063},{"duration":0.2189779999999928,"midi":42,"time":180.98531699999998,"velocity":0.4015748031496063},{"duration":0.2189779999999928,"midi":30,"time":180.98531699999998,"velocity":0.4015748031496063},{"duration":0.2189779999999928,"midi":30,"time":181.09480599999998,"velocity":0.4015748031496063},{"duration":0.2189779999999928,"midi":42,"time":181.09480599999998,"velocity":0.4015748031496063},{"duration":0.2189780000000212,"midi":42,"time":181.20429499999997,"velocity":0.4015748031496063},{"duration":0.2189780000000212,"midi":30,"time":181.20429499999997,"velocity":0.4015748031496063},{"duration":0.2189780000000212,"midi":30,"time":181.31378399999997,"velocity":0.4015748031496063},{"duration":0.3284670000000176,"midi":54,"time":181.31378399999997,"velocity":0.4015748031496063},{"duration":0.2189780000000212,"midi":42,"time":181.31378399999997,"velocity":0.4015748031496063},{"duration":0.3284669999999892,"midi":54,"time":181.423273,"velocity":0.4015748031496063},{"duration":0.2189779999999928,"midi":42,"time":181.423273,"velocity":0.4015748031496063},{"duration":0.2189779999999928,"midi":30,"time":181.423273,"velocity":0.4015748031496063},{"duration":0.2189779999999928,"midi":30,"time":181.532762,"velocity":0.4015748031496063},{"duration":0.3284669999999892,"midi":54,"time":181.532762,"velocity":0.4015748031496063},{"duration":0.2189779999999928,"midi":42,"time":181.532762,"velocity":0.4015748031496063},{"duration":0.2189779999999928,"midi":42,"time":181.642251,"velocity":0.4015748031496063},{"duration":0.2189779999999928,"midi":54,"time":181.642251,"velocity":0.4015748031496063},{"duration":0.2189779999999928,"midi":30,"time":181.642251,"velocity":0.4015748031496063},{"duration":0.4379559999999856,"midi":54,"time":181.75173999999998,"velocity":0.4015748031496063},{"duration":0.2189779999999928,"midi":61,"time":181.75173999999998,"velocity":0.4015748031496063},{"duration":0.2189779999999928,"midi":42,"time":181.75173999999998,"velocity":0.4015748031496063},{"duration":0.4379559999999856,"midi":57,"time":181.75173999999998,"velocity":0.4015748031496063},{"duration":0.4379559999999856,"midi":61,"time":181.75173999999998,"velocity":0.4015748031496063},{"duration":0.2189779999999928,"midi":30,"time":181.75173999999998,"velocity":0.4015748031496063},{"duration":0.2189779999999928,"midi":42,"time":181.86122899999998,"velocity":0.4015748031496063},{"duration":0.2189779999999928,"midi":30,"time":181.86122899999998,"velocity":0.4015748031496063},{"duration":0.2189779999999928,"midi":30,"time":181.97071799999998,"velocity":0.4015748031496063},{"duration":0.2189779999999928,"midi":42,"time":181.97071799999998,"velocity":0.4015748031496063},{"duration":0.2189780000000212,"midi":42,"time":182.08020699999997,"velocity":0.4015748031496063},{"duration":0.2189780000000212,"midi":30,"time":182.08020699999997,"velocity":0.4015748031496063},{"duration":1.42335700000001,"midi":49,"time":182.18969599999997,"velocity":0.4015748031496063},{"duration":0.2189780000000212,"midi":37,"time":182.18969599999997,"velocity":0.4015748031496063},{"duration":0.2189780000000212,"midi":54,"time":182.18969599999997,"velocity":0.4015748031496063},{"duration":1.42335700000001,"midi":53,"time":182.18969599999997,"velocity":0.4015748031496063},{"duration":0.2189780000000212,"midi":29,"time":182.18969599999997,"velocity":0.4015748031496063},{"duration":1.42335700000001,"midi":56,"time":182.18969599999997,"velocity":0.4015748031496063},{"duration":0.2189779999999928,"midi":29,"time":182.299185,"velocity":0.4015748031496063},{"duration":0.2189779999999928,"midi":37,"time":182.299185,"velocity":0.4015748031496063},{"duration":0.2189779999999928,"midi":37,"time":182.408674,"velocity":0.4015748031496063},{"duration":0.2189779999999928,"midi":54,"time":182.408674,"velocity":0.4015748031496063},{"duration":0.2189779999999928,"midi":29,"time":182.408674,"velocity":0.4015748031496063},{"duration":0.2189779999999928,"midi":37,"time":182.518163,"velocity":0.4015748031496063},{"duration":0.2189779999999928,"midi":29,"time":182.518163,"velocity":0.4015748031496063},{"duration":0.2189779999999928,"midi":37,"time":182.62765199999998,"velocity":0.4015748031496063},{"duration":0.2189779999999928,"midi":61,"time":182.62765199999998,"velocity":0.4015748031496063},{"duration":0.2189779999999928,"midi":29,"time":182.62765199999998,"velocity":0.4015748031496063},{"duration":0.2189779999999928,"midi":37,"time":182.73714099999998,"velocity":0.4015748031496063},{"duration":0.2189779999999928,"midi":29,"time":182.73714099999998,"velocity":0.4015748031496063},{"duration":0.2189779999999928,"midi":37,"time":182.84662999999998,"velocity":0.4015748031496063},{"duration":0.2189779999999928,"midi":29,"time":182.84662999999998,"velocity":0.4015748031496063},{"duration":0.2189780000000212,"midi":29,"time":182.95611899999997,"velocity":0.4015748031496063},{"duration":0.2189780000000212,"midi":37,"time":182.95611899999997,"velocity":0.4015748031496063},{"duration":0.2189780000000212,"midi":37,"time":183.06560799999997,"velocity":0.4015748031496063},{"duration":0.2189780000000212,"midi":29,"time":183.06560799999997,"velocity":0.4015748031496063},{"duration":0.2189780000000212,"midi":54,"time":183.06560799999997,"velocity":0.4015748031496063},{"duration":0.2189779999999928,"midi":29,"time":183.175097,"velocity":0.4015748031496063},{"duration":0.2189779999999928,"midi":54,"time":183.175097,"velocity":0.4015748031496063},{"duration":0.2189779999999928,"midi":37,"time":183.175097,"velocity":0.4015748031496063},{"duration":0.2189779999999928,"midi":29,"time":183.284586,"velocity":0.4015748031496063},{"duration":0.2189779999999928,"midi":37,"time":183.284586,"velocity":0.4015748031496063},{"duration":0.2189779999999928,"midi":54,"time":183.284586,"velocity":0.4015748031496063},{"duration":0.2189779999999928,"midi":54,"time":183.394075,"velocity":0.4015748031496063},{"duration":0.2189779999999928,"midi":29,"time":183.394075,"velocity":0.4015748031496063},{"duration":0.2189779999999928,"midi":37,"time":183.394075,"velocity":0.4015748031496063},{"duration":0.2189779999999928,"midi":61,"time":183.50356399999998,"velocity":0.4015748031496063},{"duration":0.4379559999999856,"midi":56,"time":183.50356399999998,"velocity":0.4015748031496063},{"duration":0.2189779999999928,"midi":37,"time":183.50356399999998,"velocity":0.4015748031496063},{"duration":0.4379559999999856,"midi":49,"time":183.50356399999998,"velocity":0.4015748031496063},{"duration":0.4379559999999856,"midi":53,"time":183.50356399999998,"velocity":0.4015748031496063},{"duration":0.2189779999999928,"midi":29,"time":183.50356399999998,"velocity":0.4015748031496063},{"duration":0.2189779999999928,"midi":29,"time":183.61305299999998,"velocity":0.4015748031496063},{"duration":0.2189779999999928,"midi":37,"time":183.61305299999998,"velocity":0.4015748031496063},{"duration":0.2189779999999928,"midi":37,"time":183.72254199999998,"velocity":0.4015748031496063},{"duration":0.2189779999999928,"midi":29,"time":183.72254199999998,"velocity":0.4015748031496063},{"duration":0.2189780000000212,"midi":38,"time":183.94151999999997,"velocity":0.4015748031496063},{"duration":0.2189780000000212,"midi":54,"time":183.94151999999997,"velocity":0.4015748031496063},{"duration":0.437956000000014,"midi":54,"time":183.94151999999997,"velocity":0.4015748031496063},{"duration":1.42335700000001,"midi":57,"time":183.94151999999997,"velocity":0.4015748031496063},{"duration":0.2189780000000212,"midi":30,"time":183.94151999999997,"velocity":0.4015748031496063},{"duration":1.42335700000001,"midi":50,"time":183.94151999999997,"velocity":0.4015748031496063},{"duration":0.2189779999999928,"midi":30,"time":184.051009,"velocity":0.4015748031496063},{"duration":0.2189779999999928,"midi":38,"time":184.051009,"velocity":0.4015748031496063},{"duration":0.2189779999999928,"midi":30,"time":184.160498,"velocity":0.4015748031496063},{"duration":0.2189779999999928,"midi":38,"time":184.160498,"velocity":0.4015748031496063},{"duration":0.8759119999999996,"midi":54,"time":184.160498,"velocity":0.4015748031496063},{"duration":0.2189779999999928,"midi":38,"time":184.269987,"velocity":0.4015748031496063},{"duration":0.2189779999999928,"midi":30,"time":184.269987,"velocity":0.4015748031496063},{"duration":0.2189779999999928,"midi":61,"time":184.37947599999998,"velocity":0.4015748031496063},{"duration":0.2189779999999928,"midi":38,"time":184.37947599999998,"velocity":0.4015748031496063},{"duration":0.2189779999999928,"midi":30,"time":184.37947599999998,"velocity":0.4015748031496063},{"duration":0.2189779999999928,"midi":30,"time":184.48896499999998,"velocity":0.4015748031496063},{"duration":0.2189779999999928,"midi":38,"time":184.48896499999998,"velocity":0.4015748031496063},{"duration":0.2189779999999928,"midi":38,"time":184.59845399999998,"velocity":0.4015748031496063},{"duration":0.2189779999999928,"midi":30,"time":184.59845399999998,"velocity":0.4015748031496063},{"duration":0.2189780000000212,"midi":38,"time":184.70794299999997,"velocity":0.4015748031496063},{"duration":0.2189780000000212,"midi":30,"time":184.70794299999997,"velocity":0.4015748031496063},{"duration":0.2189780000000212,"midi":30,"time":184.81743199999997,"velocity":0.4015748031496063},{"duration":0.3284670000000176,"midi":54,"time":184.81743199999997,"velocity":0.4015748031496063},{"duration":0.2189780000000212,"midi":38,"time":184.81743199999997,"velocity":0.4015748031496063},{"duration":0.2189779999999928,"midi":30,"time":184.926921,"velocity":0.4015748031496063},{"duration":0.2189779999999928,"midi":38,"time":184.926921,"velocity":0.4015748031496063},{"duration":0.3284669999999892,"midi":54,"time":184.926921,"velocity":0.4015748031496063},{"duration":0.3284669999999892,"midi":54,"time":185.03641,"velocity":0.4015748031496063},{"duration":0.2189779999999928,"midi":30,"time":185.03641,"velocity":0.4015748031496063},{"duration":0.2189779999999928,"midi":38,"time":185.03641,"velocity":0.4015748031496063},{"duration":0.2189779999999928,"midi":30,"time":185.145899,"velocity":0.4015748031496063},{"duration":0.2189779999999928,"midi":54,"time":185.145899,"velocity":0.4015748031496063},{"duration":0.2189779999999928,"midi":38,"time":185.145899,"velocity":0.4015748031496063},{"duration":0.2189779999999928,"midi":61,"time":185.25538799999998,"velocity":0.4015748031496063},{"duration":0.4379559999999856,"midi":50,"time":185.25538799999998,"velocity":0.4015748031496063},{"duration":0.4379559999999856,"midi":54,"time":185.25538799999998,"velocity":0.4015748031496063},{"duration":0.2189779999999928,"midi":30,"time":185.25538799999998,"velocity":0.4015748031496063},{"duration":0.2189779999999928,"midi":38,"time":185.25538799999998,"velocity":0.4015748031496063},{"duration":0.4379559999999856,"midi":57,"time":185.25538799999998,"velocity":0.4015748031496063},{"duration":0.2189779999999928,"midi":38,"time":185.36487699999998,"velocity":0.4015748031496063},{"duration":0.2189779999999928,"midi":30,"time":185.36487699999998,"velocity":0.4015748031496063},{"duration":0.2189779999999928,"midi":38,"time":185.47436599999997,"velocity":0.4015748031496063},{"duration":0.2189779999999928,"midi":30,"time":185.47436599999997,"velocity":0.4015748031496063},{"duration":0.2189780000000212,"midi":29,"time":185.69334399999997,"velocity":0.4015748031496063},{"duration":1.42335700000001,"midi":56,"time":185.69334399999997,"velocity":0.4015748031496063},{"duration":1.42335700000001,"midi":49,"time":185.69334399999997,"velocity":0.4015748031496063},{"duration":1.42335700000001,"midi":53,"time":185.69334399999997,"velocity":0.4015748031496063},{"duration":0.2189780000000212,"midi":54,"time":185.69334399999997,"velocity":0.4015748031496063},{"duration":0.2189780000000212,"midi":37,"time":185.69334399999997,"velocity":0.4015748031496063},{"duration":0.2189779999999928,"midi":37,"time":185.802833,"velocity":0.4015748031496063},{"duration":0.2189779999999928,"midi":29,"time":185.802833,"velocity":0.4015748031496063},{"duration":0.2189779999999928,"midi":29,"time":185.912322,"velocity":0.4015748031496063},{"duration":0.2189779999999928,"midi":54,"time":185.912322,"velocity":0.4015748031496063},{"duration":0.2189779999999928,"midi":37,"time":185.912322,"velocity":0.4015748031496063},{"duration":0.2189779999999928,"midi":37,"time":186.02181099999999,"velocity":0.4015748031496063},{"duration":0.2189779999999928,"midi":29,"time":186.02181099999999,"velocity":0.4015748031496063},{"duration":0.2189779999999928,"midi":29,"time":186.13129999999998,"velocity":0.4015748031496063},{"duration":0.2189779999999928,"midi":61,"time":186.13129999999998,"velocity":0.4015748031496063},{"duration":0.2189779999999928,"midi":37,"time":186.13129999999998,"velocity":0.4015748031496063},{"duration":0.2189779999999928,"midi":37,"time":186.24078899999998,"velocity":0.4015748031496063},{"duration":0.2189779999999928,"midi":29,"time":186.24078899999998,"velocity":0.4015748031496063},{"duration":0.2189779999999928,"midi":29,"time":186.35027799999997,"velocity":0.4015748031496063},{"duration":0.2189779999999928,"midi":37,"time":186.35027799999997,"velocity":0.4015748031496063},{"duration":0.2189780000000212,"midi":29,"time":186.45976699999997,"velocity":0.4015748031496063},{"duration":0.2189780000000212,"midi":37,"time":186.45976699999997,"velocity":0.4015748031496063},{"duration":0.2189780000000212,"midi":29,"time":186.56925599999997,"velocity":0.4015748031496063},{"duration":0.2189780000000212,"midi":37,"time":186.56925599999997,"velocity":0.4015748031496063},{"duration":0.2189780000000212,"midi":54,"time":186.56925599999997,"velocity":0.4015748031496063},{"duration":0.2189779999999928,"midi":29,"time":186.678745,"velocity":0.4015748031496063},{"duration":0.2189779999999928,"midi":37,"time":186.678745,"velocity":0.4015748031496063},{"duration":0.2189779999999928,"midi":54,"time":186.678745,"velocity":0.4015748031496063},{"duration":0.2189779999999928,"midi":29,"time":186.788234,"velocity":0.4015748031496063},{"duration":0.2189779999999928,"midi":54,"time":186.788234,"velocity":0.4015748031496063},{"duration":0.2189779999999928,"midi":37,"time":186.788234,"velocity":0.4015748031496063},{"duration":0.2189779999999928,"midi":54,"time":186.89772299999998,"velocity":0.4015748031496063},{"duration":0.2189779999999928,"midi":29,"time":186.89772299999998,"velocity":0.4015748031496063},{"duration":0.2189779999999928,"midi":37,"time":186.89772299999998,"velocity":0.4015748031496063},{"duration":0.437956000000014,"midi":49,"time":187.00721199999998,"velocity":0.4015748031496063},{"duration":0.2189779999999928,"midi":61,"time":187.00721199999998,"velocity":0.4015748031496063},{"duration":0.437956000000014,"midi":56,"time":187.00721199999998,"velocity":0.4015748031496063},{"duration":0.2189779999999928,"midi":37,"time":187.00721199999998,"velocity":0.4015748031496063},{"duration":0.2189779999999928,"midi":29,"time":187.00721199999998,"velocity":0.4015748031496063},{"duration":0.437956000000014,"midi":53,"time":187.00721199999998,"velocity":0.4015748031496063},{"duration":0.2189779999999928,"midi":29,"time":187.11670099999998,"velocity":0.4015748031496063},{"duration":0.2189779999999928,"midi":37,"time":187.11670099999998,"velocity":0.4015748031496063},{"duration":0.2189780000000212,"midi":37,"time":187.22618999999997,"velocity":0.4015748031496063},{"duration":0.2189780000000212,"midi":29,"time":187.22618999999997,"velocity":0.4015748031496063},{"duration":0.2189779999999928,"midi":54,"time":187.445168,"velocity":0.4015748031496063},{"duration":0.2189779999999928,"midi":30,"time":187.445168,"velocity":0.4015748031496063},{"duration":0.4379559999999856,"midi":54,"time":187.445168,"velocity":0.4015748031496063},{"duration":0.6569339999999784,"midi":61,"time":187.445168,"velocity":0.4015748031496063},{"duration":0.2189779999999928,"midi":42,"time":187.445168,"velocity":0.4015748031496063},{"duration":1.4233569999999816,"midi":57,"time":187.445168,"velocity":0.4015748031496063},{"duration":0.2189779999999928,"midi":30,"time":187.554657,"velocity":0.4015748031496063},{"duration":0.2189779999999928,"midi":42,"time":187.554657,"velocity":0.4015748031496063},{"duration":0.2189779999999928,"midi":30,"time":187.664146,"velocity":0.4015748031496063},{"duration":0.8759119999999996,"midi":54,"time":187.664146,"velocity":0.4015748031496063},{"duration":0.2189779999999928,"midi":42,"time":187.664146,"velocity":0.4015748031496063},{"duration":0.2189779999999928,"midi":42,"time":187.77363499999998,"velocity":0.4015748031496063},{"duration":0.2189779999999928,"midi":30,"time":187.77363499999998,"velocity":0.4015748031496063},{"duration":0.2189779999999928,"midi":42,"time":187.88312399999998,"velocity":0.4015748031496063},{"duration":0.2189779999999928,"midi":30,"time":187.88312399999998,"velocity":0.4015748031496063},{"duration":0.985400999999996,"midi":61,"time":187.88312399999998,"velocity":0.4015748031496063},{"duration":0.2189779999999928,"midi":42,"time":187.99261299999998,"velocity":0.4015748031496063},{"duration":0.2189779999999928,"midi":30,"time":187.99261299999998,"velocity":0.4015748031496063},{"duration":0.2189780000000212,"midi":42,"time":188.10210199999997,"velocity":0.4015748031496063},{"duration":0.2189780000000212,"midi":30,"time":188.10210199999997,"velocity":0.4015748031496063},{"duration":0.2189780000000212,"midi":42,"time":188.21159099999997,"velocity":0.4015748031496063},{"duration":0.2189780000000212,"midi":30,"time":188.21159099999997,"velocity":0.4015748031496063},{"duration":0.3284669999999892,"midi":54,"time":188.32108,"velocity":0.4015748031496063},{"duration":0.2189779999999928,"midi":30,"time":188.32108,"velocity":0.4015748031496063},{"duration":0.2189779999999928,"midi":42,"time":188.32108,"velocity":0.4015748031496063},{"duration":0.3284669999999892,"midi":54,"time":188.430569,"velocity":0.4015748031496063},{"duration":0.2189779999999928,"midi":30,"time":188.430569,"velocity":0.4015748031496063},{"duration":0.2189779999999928,"midi":42,"time":188.430569,"velocity":0.4015748031496063},{"duration":0.2189779999999928,"midi":30,"time":188.540058,"velocity":0.4015748031496063},{"duration":0.3284669999999892,"midi":54,"time":188.540058,"velocity":0.4015748031496063},{"duration":0.2189779999999928,"midi":42,"time":188.540058,"velocity":0.4015748031496063},{"duration":0.2189779999999928,"midi":30,"time":188.64954699999998,"velocity":0.4015748031496063},{"duration":0.2189779999999928,"midi":42,"time":188.64954699999998,"velocity":0.4015748031496063},{"duration":0.2189779999999928,"midi":54,"time":188.64954699999998,"velocity":0.4015748031496063},{"duration":0.2189779999999928,"midi":61,"time":188.75903599999998,"velocity":0.4015748031496063},{"duration":0.2189779999999928,"midi":42,"time":188.75903599999998,"velocity":0.4015748031496063},{"duration":0.2189779999999928,"midi":30,"time":188.75903599999998,"velocity":0.4015748031496063},{"duration":0.437956000000014,"midi":61,"time":188.75903599999998,"velocity":0.4015748031496063},{"duration":0.437956000000014,"midi":57,"time":188.75903599999998,"velocity":0.4015748031496063},{"duration":0.437956000000014,"midi":54,"time":188.75903599999998,"velocity":0.4015748031496063},{"duration":0.2189779999999928,"midi":30,"time":188.86852499999998,"velocity":0.4015748031496063},{"duration":0.2189779999999928,"midi":42,"time":188.86852499999998,"velocity":0.4015748031496063},{"duration":0.2189780000000212,"midi":30,"time":188.97801399999997,"velocity":0.4015748031496063},{"duration":0.2189780000000212,"midi":42,"time":188.97801399999997,"velocity":0.4015748031496063},{"duration":0.2189780000000212,"midi":42,"time":189.08750299999997,"velocity":0.4015748031496063},{"duration":0.2189780000000212,"midi":30,"time":189.08750299999997,"velocity":0.4015748031496063},{"duration":1.4233569999999816,"midi":56,"time":189.196992,"velocity":0.4015748031496063},{"duration":1.4233569999999816,"midi":53,"time":189.196992,"velocity":0.4015748031496063},{"duration":0.2189779999999928,"midi":54,"time":189.196992,"velocity":0.4015748031496063},{"duration":0.2189779999999928,"midi":37,"time":189.196992,"velocity":0.4015748031496063},{"duration":1.4233569999999816,"midi":49,"time":189.196992,"velocity":0.4015748031496063},{"duration":0.2189779999999928,"midi":29,"time":189.196992,"velocity":0.4015748031496063},{"duration":0.2189779999999928,"midi":29,"time":189.306481,"velocity":0.4015748031496063},{"duration":0.2189779999999928,"midi":37,"time":189.306481,"velocity":0.4015748031496063},{"duration":0.2189779999999928,"midi":29,"time":189.41597,"velocity":0.4015748031496063},{"duration":0.2189779999999928,"midi":54,"time":189.41597,"velocity":0.4015748031496063},{"duration":0.2189779999999928,"midi":37,"time":189.41597,"velocity":0.4015748031496063},{"duration":0.2189779999999928,"midi":37,"time":189.52545899999998,"velocity":0.4015748031496063},{"duration":0.2189779999999928,"midi":29,"time":189.52545899999998,"velocity":0.4015748031496063},{"duration":0.2189779999999928,"midi":61,"time":189.63494799999998,"velocity":0.4015748031496063},{"duration":0.2189779999999928,"midi":29,"time":189.63494799999998,"velocity":0.4015748031496063},{"duration":0.2189779999999928,"midi":37,"time":189.63494799999998,"velocity":0.4015748031496063},{"duration":0.2189779999999928,"midi":29,"time":189.74443699999998,"velocity":0.4015748031496063},{"duration":0.2189779999999928,"midi":37,"time":189.74443699999998,"velocity":0.4015748031496063},{"duration":0.2189780000000212,"midi":29,"time":189.85392599999997,"velocity":0.4015748031496063},{"duration":0.2189780000000212,"midi":37,"time":189.85392599999997,"velocity":0.4015748031496063},{"duration":0.2189780000000212,"midi":29,"time":189.96341499999997,"velocity":0.4015748031496063},{"duration":0.2189780000000212,"midi":37,"time":189.96341499999997,"velocity":0.4015748031496063},{"duration":0.2189779999999928,"midi":54,"time":190.072904,"velocity":0.4015748031496063},{"duration":0.2189779999999928,"midi":29,"time":190.072904,"velocity":0.4015748031496063},{"duration":0.2189779999999928,"midi":37,"time":190.072904,"velocity":0.4015748031496063},{"duration":0.2189779999999928,"midi":54,"time":190.182393,"velocity":0.4015748031496063},{"duration":0.2189779999999928,"midi":37,"time":190.182393,"velocity":0.4015748031496063},{"duration":0.2189779999999928,"midi":29,"time":190.182393,"velocity":0.4015748031496063},{"duration":0.2189779999999928,"midi":29,"time":190.291882,"velocity":0.4015748031496063},{"duration":0.2189779999999928,"midi":37,"time":190.291882,"velocity":0.4015748031496063},{"duration":0.2189779999999928,"midi":54,"time":190.291882,"velocity":0.4015748031496063},{"duration":0.2189779999999928,"midi":37,"time":190.40137099999998,"velocity":0.4015748031496063},{"duration":0.2189779999999928,"midi":29,"time":190.40137099999998,"velocity":0.4015748031496063},{"duration":0.2189779999999928,"midi":54,"time":190.40137099999998,"velocity":0.4015748031496063},{"duration":0.437956000000014,"midi":49,"time":190.51085999999998,"velocity":0.4015748031496063},{"duration":0.437956000000014,"midi":56,"time":190.51085999999998,"velocity":0.4015748031496063},{"duration":0.2189779999999928,"midi":37,"time":190.51085999999998,"velocity":0.4015748031496063},{"duration":0.2189779999999928,"midi":29,"time":190.51085999999998,"velocity":0.4015748031496063},{"duration":0.2189779999999928,"midi":61,"time":190.51085999999998,"velocity":0.4015748031496063},{"duration":0.437956000000014,"midi":53,"time":190.51085999999998,"velocity":0.4015748031496063},{"duration":0.2189779999999928,"midi":37,"time":190.62034899999998,"velocity":0.4015748031496063},{"duration":0.2189779999999928,"midi":29,"time":190.62034899999998,"velocity":0.4015748031496063},{"duration":0.2189780000000212,"midi":37,"time":190.72983799999997,"velocity":0.4015748031496063},{"duration":0.2189780000000212,"midi":29,"time":190.72983799999997,"velocity":0.4015748031496063},{"duration":1.4233569999999816,"midi":50,"time":190.948816,"velocity":0.4015748031496063},{"duration":0.2189779999999928,"midi":54,"time":190.948816,"velocity":0.4015748031496063},{"duration":0.4379559999999856,"midi":54,"time":190.948816,"velocity":0.4015748031496063},{"duration":1.4233569999999816,"midi":57,"time":190.948816,"velocity":0.4015748031496063},{"duration":0.2189779999999928,"midi":30,"time":190.948816,"velocity":0.4015748031496063},{"duration":0.2189779999999928,"midi":38,"time":190.948816,"velocity":0.4015748031496063},{"duration":0.2189779999999928,"midi":38,"time":191.058305,"velocity":0.4015748031496063},{"duration":0.2189779999999928,"midi":30,"time":191.058305,"velocity":0.4015748031496063},{"duration":0.2189779999999928,"midi":38,"time":191.167794,"velocity":0.4015748031496063},{"duration":0.2189779999999928,"midi":30,"time":191.167794,"velocity":0.4015748031496063},{"duration":0.8759119999999996,"midi":54,"time":191.167794,"velocity":0.4015748031496063},{"duration":0.2189779999999928,"midi":30,"time":191.27728299999998,"velocity":0.4015748031496063},{"duration":0.2189779999999928,"midi":38,"time":191.27728299999998,"velocity":0.4015748031496063},{"duration":0.2189779999999928,"midi":30,"time":191.38677199999998,"velocity":0.4015748031496063},{"duration":0.2189779999999928,"midi":38,"time":191.38677199999998,"velocity":0.4015748031496063},{"duration":0.2189779999999928,"midi":61,"time":191.38677199999998,"velocity":0.4015748031496063},{"duration":0.2189779999999928,"midi":30,"time":191.49626099999998,"velocity":0.4015748031496063},{"duration":0.2189779999999928,"midi":38,"time":191.49626099999998,"velocity":0.4015748031496063},{"duration":0.2189780000000212,"midi":38,"time":191.60574999999997,"velocity":0.4015748031496063},{"duration":0.2189780000000212,"midi":30,"time":191.60574999999997,"velocity":0.4015748031496063},{"duration":0.2189780000000212,"midi":30,"time":191.71523899999997,"velocity":0.4015748031496063},{"duration":0.2189780000000212,"midi":38,"time":191.71523899999997,"velocity":0.4015748031496063},{"duration":0.2189779999999928,"midi":38,"time":191.824728,"velocity":0.4015748031496063},{"duration":0.3284669999999892,"midi":54,"time":191.824728,"velocity":0.4015748031496063},{"duration":0.2189779999999928,"midi":30,"time":191.824728,"velocity":0.4015748031496063},{"duration":0.2189779999999928,"midi":30,"time":191.934217,"velocity":0.4015748031496063},{"duration":0.3284669999999892,"midi":54,"time":191.934217,"velocity":0.4015748031496063},{"duration":0.2189779999999928,"midi":38,"time":191.934217,"velocity":0.4015748031496063},{"duration":0.2189779999999928,"midi":38,"time":192.043706,"velocity":0.4015748031496063},{"duration":0.2189779999999928,"midi":30,"time":192.043706,"velocity":0.4015748031496063},{"duration":0.3284669999999892,"midi":54,"time":192.043706,"velocity":0.4015748031496063},{"duration":0.2189779999999928,"midi":54,"time":192.15319499999998,"velocity":0.4015748031496063},{"duration":0.2189779999999928,"midi":38,"time":192.15319499999998,"velocity":0.4015748031496063},{"duration":0.2189779999999928,"midi":30,"time":192.15319499999998,"velocity":0.4015748031496063},{"duration":0.437956000000014,"midi":54,"time":192.26268399999998,"velocity":0.4015748031496063},{"duration":0.2189779999999928,"midi":38,"time":192.26268399999998,"velocity":0.4015748031496063},{"duration":0.437956000000014,"midi":50,"time":192.26268399999998,"velocity":0.4015748031496063},{"duration":0.437956000000014,"midi":57,"time":192.26268399999998,"velocity":0.4015748031496063},{"duration":0.2189779999999928,"midi":61,"time":192.26268399999998,"velocity":0.4015748031496063},{"duration":0.2189779999999928,"midi":30,"time":192.26268399999998,"velocity":0.4015748031496063},{"duration":0.2189779999999928,"midi":38,"time":192.37217299999998,"velocity":0.4015748031496063},{"duration":0.2189779999999928,"midi":30,"time":192.37217299999998,"velocity":0.4015748031496063},{"duration":0.2189780000000212,"midi":30,"time":192.48166199999997,"velocity":0.4015748031496063},{"duration":0.2189780000000212,"midi":38,"time":192.48166199999997,"velocity":0.4015748031496063},{"duration":1.4233569999999816,"midi":56,"time":192.70064,"velocity":0.4015748031496063},{"duration":0.2189779999999928,"midi":37,"time":192.70064,"velocity":0.4015748031496063},{"duration":1.4233569999999816,"midi":53,"time":192.70064,"velocity":0.4015748031496063},{"duration":1.4233569999999816,"midi":49,"time":192.70064,"velocity":0.4015748031496063},{"duration":0.2189779999999928,"midi":29,"time":192.70064,"velocity":0.4015748031496063},{"duration":0.2189779999999928,"midi":54,"time":192.70064,"velocity":0.4015748031496063},{"duration":0.2189779999999928,"midi":29,"time":192.810129,"velocity":0.4015748031496063},{"duration":0.2189779999999928,"midi":37,"time":192.810129,"velocity":0.4015748031496063},{"duration":0.2189779999999928,"midi":54,"time":192.91961799999999,"velocity":0.4015748031496063},{"duration":0.2189779999999928,"midi":37,"time":192.91961799999999,"velocity":0.4015748031496063},{"duration":0.2189779999999928,"midi":29,"time":192.91961799999999,"velocity":0.4015748031496063},{"duration":0.2189779999999928,"midi":29,"time":193.02910699999998,"velocity":0.4015748031496063},{"duration":0.2189779999999928,"midi":37,"time":193.02910699999998,"velocity":0.4015748031496063},{"duration":0.2189779999999928,"midi":61,"time":193.13859599999998,"velocity":0.4015748031496063},{"duration":0.2189779999999928,"midi":37,"time":193.13859599999998,"velocity":0.4015748031496063},{"duration":0.2189779999999928,"midi":29,"time":193.13859599999998,"velocity":0.4015748031496063},{"duration":0.2189779999999928,"midi":29,"time":193.24808499999997,"velocity":0.4015748031496063},{"duration":0.2189779999999928,"midi":37,"time":193.24808499999997,"velocity":0.4015748031496063},{"duration":0.2189780000000212,"midi":29,"time":193.35757399999997,"velocity":0.4015748031496063},{"duration":0.2189780000000212,"midi":37,"time":193.35757399999997,"velocity":0.4015748031496063},{"duration":0.2189780000000212,"midi":29,"time":193.46706299999997,"velocity":0.4015748031496063},{"duration":0.2189780000000212,"midi":37,"time":193.46706299999997,"velocity":0.4015748031496063},{"duration":0.2189779999999928,"midi":37,"time":193.576552,"velocity":0.4015748031496063},{"duration":0.2189779999999928,"midi":54,"time":193.576552,"velocity":0.4015748031496063},{"duration":0.2189779999999928,"midi":29,"time":193.576552,"velocity":0.4015748031496063},{"duration":0.2189779999999928,"midi":54,"time":193.686041,"velocity":0.4015748031496063},{"duration":0.2189779999999928,"midi":29,"time":193.686041,"velocity":0.4015748031496063},{"duration":0.2189779999999928,"midi":37,"time":193.686041,"velocity":0.4015748031496063},{"duration":0.2189779999999928,"midi":37,"time":193.79552999999999,"velocity":0.4015748031496063},{"duration":0.2189779999999928,"midi":29,"time":193.79552999999999,"velocity":0.4015748031496063},{"duration":0.2189779999999928,"midi":54,"time":193.79552999999999,"velocity":0.4015748031496063},{"duration":0.2189779999999928,"midi":54,"time":193.90501899999998,"velocity":0.4015748031496063},{"duration":0.2189779999999928,"midi":29,"time":193.90501899999998,"velocity":0.4015748031496063},{"duration":0.2189779999999928,"midi":37,"time":193.90501899999998,"velocity":0.4015748031496063},{"duration":0.2189779999999928,"midi":29,"time":194.01450799999998,"velocity":0.4015748031496063},{"duration":0.437956000000014,"midi":49,"time":194.01450799999998,"velocity":0.4015748031496063},{"duration":0.437956000000014,"midi":56,"time":194.01450799999998,"velocity":0.4015748031496063},{"duration":0.437956000000014,"midi":53,"time":194.01450799999998,"velocity":0.4015748031496063},{"duration":0.2189779999999928,"midi":61,"time":194.01450799999998,"velocity":0.4015748031496063},{"duration":0.2189779999999928,"midi":37,"time":194.01450799999998,"velocity":0.4015748031496063},{"duration":0.2189779999999928,"midi":29,"time":194.12399699999997,"velocity":0.4015748031496063},{"duration":0.2189779999999928,"midi":37,"time":194.12399699999997,"velocity":0.4015748031496063},{"duration":0.2189780000000212,"midi":37,"time":194.23348599999997,"velocity":0.4015748031496063},{"duration":0.2189780000000212,"midi":29,"time":194.23348599999997,"velocity":0.4015748031496063},{"duration":0.4379559999999856,"midi":81,"time":210.21887999999998,"velocity":0.4015748031496063},{"duration":0.4379559999999856,"midi":80,"time":210.875814,"velocity":0.4015748031496063},{"duration":0.437956000000014,"midi":86,"time":211.53274799999997,"velocity":0.4015748031496063},{"duration":0.437956000000014,"midi":85,"time":212.18968199999998,"velocity":0.4015748031496063},{"duration":0.4379559999999856,"midi":81,"time":212.84661599999998,"velocity":0.4015748031496063},{"duration":0.437956000000014,"midi":80,"time":213.28457199999997,"velocity":0.4015748031496063},{"duration":0.4379559999999856,"midi":81,"time":213.72252799999998,"velocity":0.4015748031496063},{"duration":0.4379559999999856,"midi":80,"time":214.379462,"velocity":0.4015748031496063},{"duration":0.437956000000014,"midi":86,"time":215.03639599999997,"velocity":0.4015748031496063},{"duration":0.437956000000014,"midi":85,"time":215.69332999999997,"velocity":0.4015748031496063},{"duration":0.1094889999999964,"midi":85,"time":216.35026399999998,"velocity":0.4015748031496063},{"duration":0.1094889999999964,"midi":83,"time":216.44606687499999,"velocity":0.4015748031496063},{"duration":0.2189779999999928,"midi":81,"time":216.56924199999997,"velocity":0.4015748031496063},{"duration":0.2189780000000212,"midi":80,"time":216.78821999999997,"velocity":0.4015748031496063},{"duration":0.6569339999999784,"midi":81,"time":217.007198,"velocity":0.4015748031496063},{"duration":0.4379559999999856,"midi":80,"time":217.88311,"velocity":0.4015748031496063},{"duration":0.437956000000014,"midi":86,"time":218.54004399999997,"velocity":0.4015748031496063},{"duration":0.437956000000014,"midi":85,"time":219.19697799999997,"velocity":0.4015748031496063},{"duration":0.4379559999999856,"midi":81,"time":219.85391199999998,"velocity":0.4015748031496063},{"duration":0.437956000000014,"midi":80,"time":220.29186799999997,"velocity":0.4015748031496063},{"duration":0.4379559999999856,"midi":81,"time":220.72982399999998,"velocity":0.4015748031496063},{"duration":0.4379559999999856,"midi":80,"time":221.386758,"velocity":0.4015748031496063},{"duration":0.437956000000014,"midi":86,"time":222.04369199999996,"velocity":0.4015748031496063},{"duration":0.437956000000014,"midi":85,"time":222.70062599999997,"velocity":0.4015748031496063},{"duration":0.1094889999999964,"midi":85,"time":223.35755999999998,"velocity":0.4015748031496063},{"duration":0.1094889999999964,"midi":83,"time":223.45336287499998,"velocity":0.4015748031496063},{"duration":0.2189779999999928,"midi":81,"time":223.57653799999997,"velocity":0.4015748031496063},{"duration":0.2189780000000212,"midi":80,"time":223.79551599999996,"velocity":0.4015748031496063},{"duration":0.2189779999999928,"midi":81,"time":224.01449399999998,"velocity":0.4015748031496063}]},{"instrument":{"family":"drums","number":0,"name":"standard kit"},"notes":[{"duration":0.10948899999999995,"midi":0,"time":13.138679999999999,"velocity":0.5433070866141733},{"duration":0.10948899999999995,"midi":0,"time":13.467146999999999,"velocity":0.5433070866141733},{"duration":0.10948899999999995,"midi":0,"time":13.795613999999999,"velocity":0.5433070866141733}]},{"instrument":{"family":"piano","number":0,"name":"acoustic grand piano"},"notes":[{"duration":0.4379559999999998,"midi":61,"time":28.029183999999997,"velocity":0.11811023622047244},{"duration":0.4379559999999998,"midi":64,"time":28.029183999999997,"velocity":0.11811023622047244},{"duration":0.4379559999999998,"midi":60,"time":28.686117999999997,"velocity":0.11811023622047244},{"duration":0.4379559999999998,"midi":63,"time":28.686117999999997,"velocity":0.11811023622047244},{"duration":0.4379559999999998,"midi":66,"time":29.343051999999997,"velocity":0.11811023622047244},{"duration":0.4379559999999998,"midi":69,"time":29.343051999999997,"velocity":0.11811023622047244},{"duration":0.4379559999999998,"midi":67,"time":29.999985999999996,"velocity":0.11811023622047244},{"duration":0.4379559999999998,"midi":64,"time":29.999985999999996,"velocity":0.11811023622047244},{"duration":0.4379559999999998,"midi":64,"time":30.656919999999996,"velocity":0.11811023622047244},{"duration":0.4379559999999998,"midi":61,"time":30.656919999999996,"velocity":0.11811023622047244},{"duration":0.4379559999999998,"midi":63,"time":31.094875999999996,"velocity":0.11811023622047244},{"duration":0.4379559999999998,"midi":60,"time":31.094875999999996,"velocity":0.11811023622047244},{"duration":0.4379559999999998,"midi":64,"time":31.532831999999996,"velocity":0.11811023622047244},{"duration":0.4379559999999998,"midi":61,"time":31.532831999999996,"velocity":0.11811023622047244},{"duration":0.4379559999999998,"midi":63,"time":32.189766,"velocity":0.11811023622047244},{"duration":0.4379559999999998,"midi":60,"time":32.189766,"velocity":0.11811023622047244},{"duration":0.4379559999999998,"midi":69,"time":32.8467,"velocity":0.11811023622047244},{"duration":0.4379559999999998,"midi":66,"time":32.8467,"velocity":0.11811023622047244},{"duration":0.4379559999999998,"midi":67,"time":33.503634,"velocity":0.11811023622047244},{"duration":0.4379559999999998,"midi":64,"time":33.503634,"velocity":0.11811023622047244},{"duration":0.1094889999999964,"midi":64,"time":34.160568,"velocity":0.11811023622047244},{"duration":0.1094889999999964,"midi":67,"time":34.160568,"velocity":0.11811023622047244},{"duration":0.1094890000000035,"midi":63,"time":34.270056999999994,"velocity":0.11811023622047244},{"duration":0.1094890000000035,"midi":66,"time":34.270056999999994,"velocity":0.11811023622047244},{"duration":0.2189779999999999,"midi":64,"time":34.379546,"velocity":0.11811023622047244},{"duration":0.2189779999999999,"midi":61,"time":34.379546,"velocity":0.11811023622047244},{"duration":0.2189779999999999,"midi":63,"time":34.598524,"velocity":0.11811023622047244},{"duration":0.2189779999999999,"midi":60,"time":34.598524,"velocity":0.11811023622047244},{"duration":0.2189779999999999,"midi":61,"time":34.817502,"velocity":0.11811023622047244},{"duration":0.2189779999999999,"midi":64,"time":34.817502,"velocity":0.11811023622047244},{"duration":0.4379559999999998,"midi":64,"time":35.03648,"velocity":0.11811023622047244},{"duration":0.4379559999999998,"midi":61,"time":35.03648,"velocity":0.11811023622047244},{"duration":0.4379559999999998,"midi":60,"time":35.693414,"velocity":0.11811023622047244},{"duration":0.4379559999999998,"midi":63,"time":35.693414,"velocity":0.11811023622047244},{"duration":0.4379559999999998,"midi":66,"time":36.350348,"velocity":0.11811023622047244},{"duration":0.4379559999999998,"midi":69,"time":36.350348,"velocity":0.11811023622047244},{"duration":0.4379559999999998,"midi":67,"time":37.007282,"velocity":0.11811023622047244},{"duration":0.4379559999999998,"midi":64,"time":37.007282,"velocity":0.11811023622047244},{"duration":0.4379559999999998,"midi":64,"time":37.664215999999996,"velocity":0.11811023622047244},{"duration":0.4379559999999998,"midi":61,"time":37.664215999999996,"velocity":0.11811023622047244},{"duration":0.4379559999999998,"midi":63,"time":38.102171999999996,"velocity":0.11811023622047244},{"duration":0.4379559999999998,"midi":60,"time":38.102171999999996,"velocity":0.11811023622047244},{"duration":0.4379559999999998,"midi":61,"time":38.540127999999996,"velocity":0.11811023622047244},{"duration":0.4379559999999998,"midi":64,"time":38.540127999999996,"velocity":0.11811023622047244},{"duration":0.4379559999999998,"midi":63,"time":39.197061999999995,"velocity":0.11811023622047244},{"duration":0.4379559999999998,"midi":60,"time":39.197061999999995,"velocity":0.11811023622047244},{"duration":0.4379559999999998,"midi":69,"time":39.853995999999995,"velocity":0.11811023622047244},{"duration":0.4379559999999998,"midi":66,"time":39.853995999999995,"velocity":0.11811023622047244},{"duration":0.4379559999999998,"midi":67,"time":40.510929999999995,"velocity":0.11811023622047244},{"duration":0.4379559999999998,"midi":64,"time":40.510929999999995,"velocity":0.11811023622047244},{"duration":0.1094890000000035,"midi":64,"time":41.167863999999994,"velocity":0.11811023622047244},{"duration":0.1094890000000035,"midi":67,"time":41.167863999999994,"velocity":0.11811023622047244},{"duration":0.1094889999999964,"midi":63,"time":41.277353,"velocity":0.11811023622047244},{"duration":0.1094889999999964,"midi":66,"time":41.277353,"velocity":0.11811023622047244},{"duration":0.2189779999999999,"midi":64,"time":41.386841999999994,"velocity":0.11811023622047244},{"duration":0.2189779999999999,"midi":61,"time":41.386841999999994,"velocity":0.11811023622047244},{"duration":0.2189779999999999,"midi":63,"time":41.605819999999994,"velocity":0.11811023622047244},{"duration":0.2189779999999999,"midi":60,"time":41.605819999999994,"velocity":0.11811023622047244}]}]}
