{"tracks":[{"instrument":{"family":"piano","number":0,"name":"acoustic grand piano"},"notes":[{"duration":0.16279069767441862,"midi":74,"time":0,"velocity":0.4094488188976378},{"duration":0.011627906976744186,"midi":41,"time":0.011627906976744186,"velocity":0.5748031496062992},{"duration":0.011627906976744186,"midi":40,"time":0.023255813953488372,"velocity":0.6062992125984252},{"duration":0.011627906976744186,"midi":36,"time":0.03488372093023256,"velocity":0.5905511811023622},{"duration":0.011627906976744186,"midi":33,"time":0.046511627906976744,"velocity":0.5748031496062992},{"duration":0.011627906976744186,"midi":31,"time":0.05813953488372093,"velocity":0.5905511811023622},{"duration":0.011627906976744193,"midi":30,"time":0.06976744186046512,"velocity":0.5748031496062992},{"duration":0.011627906976744179,"midi":29,"time":0.08139534883720931,"velocity":0.5196850393700787},{"duration":0.0813953488372093,"midi":43,"time":0.10465116279069768,"velocity":0.2755905511811024},{"duration":0.023255813953488358,"midi":54,"time":0.22093023255813954,"velocity":0.30708661417322836},{"duration":0.023255813953488386,"midi":63,"time":0.23255813953488372,"velocity":0.4409448818897638},{"duration":0.1744186046511628,"midi":74,"time":0.23255813953488372,"velocity":0.4409448818897638},{"duration":0.12790697674418605,"midi":55,"time":0.2441860465116279,"velocity":0.41732283464566927},{"duration":0.1046511627906977,"midi":69,"time":0.2441860465116279,"velocity":0.14173228346456693},{"duration":0.11627906976744184,"midi":62,"time":0.2558139534883721,"velocity":0.4645669291338583},{"duration":0.034883720930232565,"midi":31,"time":0.26744186046511625,"velocity":0.11023622047244094},{"duration":0.034883720930232565,"midi":66,"time":0.29069767441860467,"velocity":0.08661417322834646},{"duration":0.08139534883720934,"midi":93,"time":0.3023255813953488,"velocity":0.10236220472440945},{"duration":0.08139534883720928,"midi":69,"time":0.45348837209302323,"velocity":0.12598425196850394},{"duration":0.011627906976744207,"midi":41,"time":0.46511627906976744,"velocity":0.6299212598425197},{"duration":0.20930232558139533,"midi":74,"time":0.46511627906976744,"velocity":0.41732283464566927},{"duration":0.011627906976744151,"midi":38,"time":0.47674418604651164,"velocity":0.6299212598425197},{"duration":0.011627906976744207,"midi":35,"time":0.4883720930232558,"velocity":0.5826771653543307},{"duration":0.011627906976744207,"midi":32,"time":0.5,"velocity":0.6062992125984252},{"duration":0.011627906976744207,"midi":31,"time":0.5116279069767442,"velocity":0.6141732283464567},{"duration":0.10465116279069764,"midi":50,"time":0.5116279069767442,"velocity":0.3700787401574803},{"duration":0.011627906976744096,"midi":30,"time":0.5232558139534884,"velocity":0.5905511811023622},{"duration":0.011627906976744207,"midi":29,"time":0.5348837209302325,"velocity":0.5275590551181102},{"duration":0.023255813953488413,"midi":30,"time":0.5697674418604651,"velocity":0.31496062992125984},{"duration":0.03488372093023262,"midi":63,"time":0.6627906976744186,"velocity":0.4566929133858268},{"duration":0.10465116279069764,"midi":69,"time":0.686046511627907,"velocity":0.14960629921259844},{"duration":0.17441860465116277,"midi":76,"time":0.686046511627907,"velocity":0.41732283464566927},{"duration":0.09302325581395343,"midi":55,"time":0.6976744186046512,"velocity":0.3937007874015748},{"duration":0.11627906976744184,"midi":62,"time":0.6976744186046512,"velocity":0.4645669291338583},{"duration":0.05813953488372092,"midi":31,"time":0.7093023255813954,"velocity":0.1889763779527559},{"duration":0.08139534883720922,"midi":71,"time":0.7093023255813954,"velocity":0.13385826771653545},{"duration":0.03488372093023251,"midi":73,"time":0.7558139534883721,"velocity":0.13385826771653545},{"duration":0.011627906976744207,"midi":41,"time":0.9069767441860465,"velocity":0.5433070866141733},{"duration":0.2558139534883722,"midi":77,"time":0.9069767441860465,"velocity":0.4094488188976378},{"duration":0.011627906976744207,"midi":40,"time":0.9186046511627907,"velocity":0.6062992125984252},{"duration":0.011627906976744207,"midi":37,"time":0.9302325581395349,"velocity":0.6141732283464567},{"duration":0.011627906976744207,"midi":33,"time":0.9418604651162791,"velocity":0.5748031496062992},{"duration":0.011627906976744207,"midi":31,"time":0.9534883720930233,"velocity":0.5984251968503937},{"duration":0.023255813953488302,"midi":30,"time":0.9651162790697675,"velocity":0.5826771653543307},{"duration":0.023255813953488413,"midi":43,"time":0.9883720930232558,"velocity":0.28346456692913385},{"duration":0.023255813953488413,"midi":31,"time":1.0232558139534884,"velocity":0.2440944881889764},{"duration":0.046511627906976605,"midi":43,"time":1.0232558139534884,"velocity":0.2755905511811024},{"duration":0.023255813953488413,"midi":55,"time":1.1162790697674418,"velocity":0.28346456692913385},{"duration":0.03488372093023262,"midi":59,"time":1.1395348837209303,"velocity":0.44881889763779526},{"duration":0.08139534883720922,"midi":62,"time":1.1395348837209303,"velocity":0.4645669291338583},{"duration":0.12790697674418605,"midi":55,"time":1.1511627906976745,"velocity":0.41732283464566927},{"duration":0.046511627906976605,"midi":78,"time":1.1627906976744187,"velocity":0.07086614173228346},{"duration":0.046511627906976605,"midi":66,"time":1.1744186046511629,"velocity":0.09448818897637795},{"duration":0.05813953488372081,"midi":73,"time":1.1744186046511629,"velocity":0.11811023622047244},{"duration":0.03488372093023262,"midi":59,"time":1.2093023255813953,"velocity":0.4566929133858268},{"duration":0.08139534883720945,"midi":69,"time":1.3488372093023255,"velocity":0.11811023622047244},{"duration":0.2906976744186047,"midi":77,"time":1.3488372093023255,"velocity":0.41732283464566927},{"duration":0.011627906976744207,"midi":41,"time":1.3604651162790697,"velocity":0.6141732283464567},{"duration":0.011627906976744207,"midi":38,"time":1.372093023255814,"velocity":0.6141732283464567},{"duration":0.011627906976744207,"midi":36,"time":1.3837209302325582,"velocity":0.5748031496062992},{"duration":0.011627906976744207,"midi":32,"time":1.3953488372093024,"velocity":0.5905511811023622},{"duration":0.011627906976744207,"midi":31,"time":1.4069767441860466,"velocity":0.5984251968503937},{"duration":0.09302325581395343,"midi":50,"time":1.4069767441860466,"velocity":0.3464566929133858},{"duration":0.011627906976744207,"midi":30,"time":1.4186046511627908,"velocity":0.5669291338582677},{"duration":0.023255813953488413,"midi":63,"time":1.569767441860465,"velocity":0.4409448818897638},{"duration":0.09302325581395365,"midi":71,"time":1.569767441860465,"velocity":0.16535433070866143},{"duration":0.03488372093023262,"midi":101,"time":1.569767441860465,"velocity":0.2677165354330709},{"duration":0.12790697674418605,"midi":55,"time":1.5930232558139534,"velocity":0.4015748031496063},{"duration":0.04651162790697683,"midi":59,"time":1.5930232558139534,"velocity":0.41732283464566927},{"duration":0.10465116279069764,"midi":62,"time":1.5930232558139534,"velocity":0.4881889763779528},{"duration":0.10465116279069764,"midi":73,"time":1.5930232558139534,"velocity":0.12598425196850394},{"duration":0.09302325581395343,"midi":69,"time":1.6046511627906976,"velocity":0.15748031496062992},{"duration":0.04651162790697683,"midi":66,"time":1.6395348837209303,"velocity":0.11811023622047244},{"duration":0.011627906976743985,"midi":42,"time":1.802325581395349,"velocity":0.5275590551181102},{"duration":0.0348837209302324,"midi":57,"time":1.802325581395349,"velocity":0.14173228346456693},{"duration":0.011627906976744207,"midi":41,"time":1.813953488372093,"velocity":0.6220472440944882},{"duration":0.15116279069767447,"midi":83,"time":1.813953488372093,"velocity":0.29133858267716534},{"duration":0.011627906976744207,"midi":37,"time":1.8255813953488371,"velocity":0.6062992125984252},{"duration":0.011627906976744207,"midi":33,"time":1.8372093023255813,"velocity":0.5590551181102362},{"duration":0.023255813953488413,"midi":31,"time":1.8488372093023255,"velocity":0.5826771653543307},{"duration":0.011627906976744207,"midi":30,"time":1.872093023255814,"velocity":0.5354330708661418},{"duration":0.046511627906976605,"midi":43,"time":1.9069767441860466,"velocity":0.2755905511811024},{"duration":0.02325581395348819,"midi":31,"time":1.9186046511627908,"velocity":0.2283464566929134},{"duration":0.12790697674418583,"midi":55,"time":2.0348837209302326,"velocity":0.3937007874015748},{"duration":0.11627906976744162,"midi":62,"time":2.0348837209302326,"velocity":0.4881889763779528},{"duration":0.058139534883721034,"midi":73,"time":2.0348837209302326,"velocity":0.14173228346456693},{"duration":0.0697674418604648,"midi":78,"time":2.058139534883721,"velocity":0.13385826771653545},{"duration":0.11627906976744162,"midi":83,"time":2.058139534883721,"velocity":0.23622047244094488},{"duration":0.034883720930232176,"midi":59,"time":2.0930232558139537,"velocity":0.4409448818897638},{"duration":0.034883720930232176,"midi":66,"time":2.0930232558139537,"velocity":0.11811023622047244},{"duration":0.011627906976744207,"midi":41,"time":2.255813953488372,"velocity":0.6062992125984252},{"duration":0.13953488372093004,"midi":50,"time":2.255813953488372,"velocity":0.4094488188976378},{"duration":0.18604651162790686,"midi":83,"time":2.255813953488372,"velocity":0.2440944881889764},{"duration":0.011627906976744207,"midi":38,"time":2.2674418604651163,"velocity":0.6220472440944882},{"duration":0.011627906976744207,"midi":36,"time":2.2790697674418605,"velocity":0.5984251968503937},{"duration":0.011627906976744207,"midi":32,"time":2.2906976744186047,"velocity":0.5905511811023622},{"duration":0.011627906976744207,"midi":31,"time":2.302325581395349,"velocity":0.6062992125984252},{"duration":0.011627906976744207,"midi":30,"time":2.313953488372093,"velocity":0.5826771653543307},{"duration":0.011627906976744207,"midi":29,"time":2.3255813953488373,"velocity":0.5275590551181102},{"duration":0.023255813953488413,"midi":61,"time":2.4651162790697674,"velocity":0.44881889763779526},{"duration":0.06976744186046524,"midi":74,"time":2.4767441860465116,"velocity":0.16535433070866143},{"duration":0.13953488372093004,"midi":55,"time":2.488372093023256,"velocity":0.4094488188976378},{"duration":0.10465116279069786,"midi":62,"time":2.488372093023256,"velocity":0.48031496062992124},{"duration":0.11627906976744207,"midi":69,"time":2.488372093023256,"velocity":0.18110236220472442},{"duration":0.15116279069767424,"midi":81,"time":2.488372093023256,"velocity":0.36220472440944884},{"duration":0.058139534883721034,"midi":73,"time":2.5348837209302326,"velocity":0.11023622047244094},{"duration":0.04651162790697683,"midi":59,"time":2.558139534883721,"velocity":0.4251968503937008},{"duration":0.011627906976744207,"midi":42,"time":2.697674418604651,"velocity":0.5196850393700787},{"duration":0.011627906976744207,"midi":41,"time":2.7093023255813953,"velocity":0.6299212598425197},{"duration":0.2906976744186047,"midi":79,"time":2.7093023255813953,"velocity":0.3858267716535433},{"duration":0.011627906976744207,"midi":37,"time":2.7209302325581395,"velocity":0.6377952755905512},{"duration":0.011627906976744207,"midi":34,"time":2.7325581395348837,"velocity":0.5826771653543307},{"duration":0.011627906976744207,"midi":32,"time":2.744186046511628,"velocity":0.6141732283464567},{"duration":0.011627906976744207,"midi":31,"time":2.755813953488372,"velocity":0.6141732283464567},{"duration":0.011627906976744207,"midi":30,"time":2.7674418604651163,"velocity":0.5826771653543307},{"duration":0.011627906976744207,"midi":28,"time":2.7790697674418605,"velocity":0.5118110236220472},{"duration":0.023255813953488413,"midi":43,"time":2.8255813953488373,"velocity":0.25984251968503935},{"duration":0.13953488372093048,"midi":62,"time":2.9302325581395348,"velocity":0.48031496062992124},{"duration":0.06976744186046524,"midi":66,"time":2.9302325581395348,"velocity":0.1732283464566929},{"duration":0.11627906976744207,"midi":69,"time":2.9302325581395348,"velocity":0.1732283464566929},{"duration":0.09302325581395365,"midi":55,"time":2.941860465116279,"velocity":0.4015748031496063},{"duration":0.06976744186046524,"midi":73,"time":2.941860465116279,"velocity":0.12598425196850394},{"duration":0.011627906976744207,"midi":41,"time":3.1511627906976742,"velocity":0.5748031496062992},{"duration":0.011627906976744207,"midi":40,"time":3.1627906976744184,"velocity":0.6220472440944882},{"duration":0.4418604651162794,"midi":79,"time":3.1627906976744184,"velocity":0.4015748031496063},{"duration":0.011627906976744207,"midi":36,"time":3.1744186046511627,"velocity":0.5984251968503937},{"duration":0.12790697674418627,"midi":50,"time":3.1744186046511627,"velocity":0.36220472440944884},{"duration":0.011627906976744207,"midi":33,"time":3.186046511627907,"velocity":0.5826771653543307},{"duration":0.011627906976744207,"midi":31,"time":3.197674418604651,"velocity":0.5984251968503937},{"duration":0.011627906976744207,"midi":30,"time":3.2093023255813953,"velocity":0.5905511811023622},{"duration":0.011627906976744207,"midi":29,"time":3.2209302325581395,"velocity":0.5275590551181102},{"duration":0.023255813953488413,"midi":28,"time":3.2325581395348837,"velocity":0.4645669291338583},{"duration":0.023255813953488413,"midi":31,"time":3.2674418604651163,"velocity":0.23622047244094488},{"duration":0.034883720930232176,"midi":101,"time":3.36046511627907,"velocity":0.2125984251968504},{"duration":0.081395348837209,"midi":73,"time":3.372093023255814,"velocity":0.10236220472440945},{"duration":0.12790697674418627,"midi":62,"time":3.383720930232558,"velocity":0.4645669291338583},{"duration":0.11627906976744207,"midi":55,"time":3.395348837209302,"velocity":0.3937007874015748},{"duration":0.08139534883720945,"midi":81,"time":3.395348837209302,"velocity":0.08661417322834646},{"duration":0.08139534883720945,"midi":71,"time":3.4069767441860463,"velocity":0.13385826771653545},{"duration":0.03488372093023262,"midi":66,"time":3.4302325581395348,"velocity":0.09448818897637795},{"duration":0.03488372093023262,"midi":31,"time":3.441860465116279,"velocity":0.2125984251968504},{"duration":0.011627906976744207,"midi":41,"time":3.604651162790698,"velocity":0.5511811023622047},{"duration":0.011627906976743763,"midi":37,"time":3.616279069767442,"velocity":0.5590551181102362},{"duration":0.02325581395348797,"midi":73,"time":3.616279069767442,"velocity":0.41732283464566927},{"duration":0.011627906976744207,"midi":35,"time":3.627906976744186,"velocity":0.5275590551181102},{"duration":0.011627906976744207,"midi":32,"time":3.63953488372093,"velocity":0.5433070866141733},{"duration":0.8488372093023258,"midi":72,"time":3.63953488372093,"velocity":0.4566929133858268},{"duration":0.10465116279069786,"midi":91,"time":3.63953488372093,"velocity":0.12598425196850394},{"duration":0.011627906976744207,"midi":31,"time":3.6511627906976742,"velocity":0.5511811023622047},{"duration":0.011627906976744207,"midi":30,"time":3.6627906976744184,"velocity":0.5275590551181102},{"duration":0.04651162790697683,"midi":41,"time":3.7325581395348837,"velocity":0.23622047244094488},{"duration":0.11627906976744162,"midi":57,"time":3.8255813953488373,"velocity":0.4251968503937008},{"duration":0.023255813953488413,"midi":61,"time":3.8255813953488373,"velocity":0.44881889763779526},{"duration":0.05813953488372059,"midi":53,"time":3.8372093023255816,"velocity":0.3779527559055118},{"duration":0.09302325581395321,"midi":60,"time":3.8488372093023258,"velocity":0.4645669291338583},{"duration":0.10465116279069742,"midi":67,"time":3.8488372093023258,"velocity":0.14173228346456693},{"duration":0.05813953488372059,"midi":41,"time":3.86046511627907,"velocity":0.07874015748031496},{"duration":0.1744186046511631,"midi":91,"time":3.9186046511627906,"velocity":0.16535433070866143},{"duration":0.04651162790697683,"midi":60,"time":4.034883720930233,"velocity":0.14173228346456693},{"duration":0.03488372093023262,"midi":68,"time":4.034883720930233,"velocity":0.12598425196850394},{"duration":0.011627906976744207,"midi":41,"time":4.046511627906977,"velocity":0.5511811023622047},{"duration":0.011627906976744207,"midi":40,"time":4.058139534883721,"velocity":0.6141732283464567},{"duration":0.011627906976744207,"midi":37,"time":4.069767441860465,"velocity":0.6062992125984252},{"duration":0.011627906976744207,"midi":33,"time":4.0813953488372094,"velocity":0.5748031496062992},{"duration":0.11627906976744207,"midi":48,"time":4.0813953488372094,"velocity":0.4094488188976378},{"duration":0.023255813953488413,"midi":31,"time":4.093023255813954,"velocity":0.5905511811023622},{"duration":0.011627906976744207,"midi":30,"time":4.116279069767442,"velocity":0.5354330708661418},{"duration":0.023255813953488413,"midi":30,"time":4.162790697674419,"velocity":0.23622047244094488},{"duration":0.19767441860465063,"midi":91,"time":4.232558139534884,"velocity":0.16535433070866143},{"duration":0.023255813953488413,"midi":61,"time":4.267441860465116,"velocity":0.4330708661417323},{"duration":0.11627906976744207,"midi":67,"time":4.267441860465116,"velocity":0.14173228346456693},{"duration":0.06976744186046524,"midi":53,"time":4.27906976744186,"velocity":0.3858267716535433},{"duration":0.09302325581395365,"midi":60,"time":4.290697674418604,"velocity":0.47244094488188976},{"duration":0.03488372093023262,"midi":53,"time":4.3604651162790695,"velocity":0.36220472440944884},{"duration":0.03488372093023262,"midi":57,"time":4.372093023255814,"velocity":0.3937007874015748},{"duration":0.011627906976744207,"midi":41,"time":4.5,"velocity":0.6220472440944882},{"duration":0.023255813953488413,"midi":70,"time":4.5,"velocity":0.3937007874015748},{"duration":0.011627906976744207,"midi":38,"time":4.511627906976744,"velocity":0.6299212598425197},{"duration":0.011627906976744207,"midi":36,"time":4.523255813953488,"velocity":0.5826771653543307},{"duration":0.8720930232558137,"midi":69,"time":4.523255813953488,"velocity":0.4409448818897638},{"duration":0.011627906976744207,"midi":32,"time":4.534883720930233,"velocity":0.5984251968503937},{"duration":0.011627906976744207,"midi":31,"time":4.546511627906977,"velocity":0.5984251968503937},{"duration":0.22093023255813904,"midi":88,"time":4.546511627906977,"velocity":0.16535433070866143},{"duration":0.011627906976744207,"midi":30,"time":4.558139534883721,"velocity":0.5748031496062992},{"duration":0.011627906976744207,"midi":29,"time":4.569767441860465,"velocity":0.5118110236220472},{"duration":0.03488372093023262,"midi":41,"time":4.627906976744186,"velocity":0.25984251968503935},{"duration":0.1395348837209296,"midi":53,"time":4.72093023255814,"velocity":0.3779527559055118},{"duration":0.08139534883720856,"midi":72,"time":4.72093023255814,"velocity":0.14960629921259844},{"duration":0.11627906976744118,"midi":57,"time":4.732558139534884,"velocity":0.4251968503937008},{"duration":0.11627906976744118,"midi":60,"time":4.732558139534884,"velocity":0.4645669291338583},{"duration":0.03488372093023262,"midi":64,"time":4.767441860465116,"velocity":0.07086614173228346},{"duration":0.08139534883720945,"midi":76,"time":4.77906976744186,"velocity":0.08661417322834646},{"duration":0.03488372093023262,"midi":41,"time":4.790697674418604,"velocity":0.12598425196850394},{"duration":0.20930232558139572,"midi":88,"time":4.883720930232558,"velocity":0.1732283464566929},{"duration":0.03488372093023262,"midi":41,"time":4.930232558139535,"velocity":0.6456692913385826},{"duration":0.03488372093023262,"midi":56,"time":4.941860465116279,"velocity":0.2204724409448819},{"duration":0.011627906976744207,"midi":37,"time":4.965116279069767,"velocity":0.6377952755905512},{"duration":0.011627906976744207,"midi":33,"time":4.976744186046512,"velocity":0.5905511811023622},{"duration":0.12790697674418627,"midi":48,"time":4.976744186046512,"velocity":0.3937007874015748},{"duration":0.023255813953488413,"midi":31,"time":4.988372093023256,"velocity":0.6141732283464567},{"duration":0.011627906976744207,"midi":30,"time":5.011627906976744,"velocity":0.5669291338582677},{"duration":0.03488372093023262,"midi":61,"time":5.151162790697675,"velocity":0.4094488188976378},{"duration":0.04651162790697683,"midi":101,"time":5.151162790697675,"velocity":0.31496062992125984},{"duration":0.04651162790697683,"midi":53,"time":5.162790697674419,"velocity":0.3700787401574803},{"duration":0.023255813953488413,"midi":57,"time":5.162790697674419,"velocity":0.3700787401574803},{"duration":0.09302325581395277,"midi":79,"time":5.174418604651163,"velocity":0.10236220472440945},{"duration":0.10465116279069697,"midi":60,"time":5.186046511627907,"velocity":0.47244094488188976},{"duration":0.04651162790697683,"midi":76,"time":5.186046511627907,"velocity":0.07086614173228346},{"duration":0.023255813953488413,"midi":16,"time":5.1976744186046515,"velocity":0.2755905511811024},{"duration":0.08139534883720856,"midi":53,"time":5.22093023255814,"velocity":0.3700787401574803},{"duration":0.1744186046511622,"midi":88,"time":5.22093023255814,"velocity":0.15748031496062992},{"duration":0.03488372093023173,"midi":29,"time":5.232558139534884,"velocity":0.08661417322834646},{"duration":0.023255813953488413,"midi":73,"time":5.383720930232558,"velocity":0.30708661417322836},{"duration":0.011627906976744207,"midi":41,"time":5.395348837209302,"velocity":0.5748031496062992},{"duration":0.011627906976744207,"midi":40,"time":5.406976744186046,"velocity":0.5905511811023622},{"duration":0.011627906976744207,"midi":36,"time":5.4186046511627906,"velocity":0.5590551181102362},{"duration":0.023255813953488413,"midi":75,"time":5.4186046511627906,"velocity":0.3543307086614173},{"duration":0.011627906976744207,"midi":32,"time":5.430232558139535,"velocity":0.5511811023622047},{"duration":0.011627906976744207,"midi":31,"time":5.441860465116279,"velocity":0.5590551181102362},{"duration":0.8488372093023253,"midi":76,"time":5.441860465116279,"velocity":0.4251968503937008},{"duration":0.011627906976744207,"midi":30,"time":5.453488372093023,"velocity":0.5433070866141733},{"duration":0.04651162790697683,"midi":41,"time":5.523255813953488,"velocity":0.25196850393700787},{"duration":0.12790697674418627,"midi":60,"time":5.616279069767442,"velocity":0.4645669291338583},{"duration":0.04651162790697683,"midi":29,"time":5.627906976744186,"velocity":0.12598425196850394},{"duration":0.058139534883721034,"midi":53,"time":5.627906976744186,"velocity":0.36220472440944884},{"duration":0.12790697674418539,"midi":69,"time":5.627906976744186,"velocity":0.16535433070866143},{"duration":0.06976744186046435,"midi":67,"time":5.686046511627907,"velocity":0.08661417322834646},{"duration":0.03488372093023173,"midi":57,"time":5.744186046511628,"velocity":0.4094488188976378},{"duration":0.011627906976744207,"midi":41,"time":5.848837209302325,"velocity":0.6062992125984252},{"duration":0.011627906976744207,"midi":37,"time":5.8604651162790695,"velocity":0.5984251968503937},{"duration":0.011627906976744207,"midi":33,"time":5.872093023255814,"velocity":0.5511811023622047},{"duration":0.011627906976744207,"midi":32,"time":5.883720930232558,"velocity":0.5669291338582677},{"duration":0.12790697674418627,"midi":48,"time":5.883720930232558,"velocity":0.3464566929133858},{"duration":0.011627906976744207,"midi":31,"time":5.895348837209302,"velocity":0.5669291338582677},{"duration":0.011627906976744207,"midi":30,"time":5.906976744186046,"velocity":0.5354330708661418},{"duration":0.09302325581395365,"midi":60,"time":6.0813953488372094,"velocity":0.4645669291338583},{"duration":0.03488372093023262,"midi":53,"time":6.093023255813954,"velocity":0.3779527559055118},{"duration":0.058139534883721034,"midi":67,"time":6.093023255813954,"velocity":0.10236220472440945},{"duration":0.03488372093023262,"midi":28,"time":6.127906976744186,"velocity":0.12598425196850394},{"duration":0.058139534883721034,"midi":69,"time":6.127906976744186,"velocity":0.09448818897637795},{"duration":0.03488372093023262,"midi":64,"time":6.151162790697675,"velocity":0.08661417322834646},{"duration":0.03488372093023262,"midi":57,"time":6.186046511627907,"velocity":0.3937007874015748},{"duration":0.011627906976744207,"midi":41,"time":6.290697674418604,"velocity":0.5669291338582677},{"duration":0.03488372093023262,"midi":57,"time":6.290697674418604,"velocity":0.1889763779527559},{"duration":0.011627906976744207,"midi":40,"time":6.3023255813953485,"velocity":0.5984251968503937},{"duration":0.023255813953488413,"midi":73,"time":6.3023255813953485,"velocity":0.41732283464566927},{"duration":0.011627906976744207,"midi":36,"time":6.313953488372093,"velocity":0.5748031496062992},{"duration":0.011627906976744207,"midi":33,"time":6.325581395348837,"velocity":0.5826771653543307},{"duration":0.8720930232558146,"midi":72,"time":6.325581395348837,"velocity":0.44881889763779526},{"duration":0.10465116279069786,"midi":91,"time":6.325581395348837,"velocity":0.12598425196850394},{"duration":0.011627906976744207,"midi":31,"time":6.337209302325581,"velocity":0.5905511811023622},{"duration":0.011627906976744207,"midi":30,"time":6.348837209302325,"velocity":0.5826771653543307},{"duration":0.011627906976744207,"midi":29,"time":6.3604651162790695,"velocity":0.5275590551181102},{"duration":0.023255813953488413,"midi":30,"time":6.395348837209302,"velocity":0.33070866141732286},{"duration":0.023255813953488413,"midi":59,"time":6.5,"velocity":0.41732283464566927},{"duration":0.03488372093023262,"midi":101,"time":6.5,"velocity":0.2992125984251969},{"duration":0.12790697674418627,"midi":60,"time":6.523255813953488,"velocity":0.47244094488188976},{"duration":0.03488372093023262,"midi":64,"time":6.523255813953488,"velocity":0.09448818897637795},{"duration":0.03488372093023262,"midi":69,"time":6.534883720930233,"velocity":0.10236220472440945},{"duration":0.09302325581395365,"midi":67,"time":6.546511627906977,"velocity":0.14960629921259844},{"duration":0.10465116279069786,"midi":53,"time":6.558139534883721,"velocity":0.3858267716535433},{"duration":0.162790697674418,"midi":91,"time":6.593023255813954,"velocity":0.15748031496062992},{"duration":0.04651162790697683,"midi":41,"time":6.604651162790698,"velocity":0.07874015748031496},{"duration":0.023255813953487525,"midi":41,"time":6.732558139534884,"velocity":0.5984251968503937},{"duration":0.011627906976744207,"midi":38,"time":6.755813953488372,"velocity":0.5905511811023622},{"duration":0.011627906976744207,"midi":33,"time":6.767441860465116,"velocity":0.5433070866141733},{"duration":0.12790697674418627,"midi":48,"time":6.767441860465116,"velocity":0.3700787401574803},{"duration":0.011627906976744207,"midi":32,"time":6.77906976744186,"velocity":0.5669291338582677},{"duration":0.011627906976744207,"midi":31,"time":6.790697674418604,"velocity":0.5669291338582677},{"duration":0.011627906976744207,"midi":30,"time":6.8023255813953485,"velocity":0.5354330708661418},{"duration":0.1860465116279073,"midi":91,"time":6.9186046511627906,"velocity":0.13385826771653545},{"duration":0.023255813953488413,"midi":60,"time":6.941860465116279,"velocity":0.41732283464566927},{"duration":0.03488372093023262,"midi":101,"time":6.953488372093023,"velocity":0.23622047244094488},{"duration":0.13953488372093048,"midi":57,"time":6.965116279069767,"velocity":0.4251968503937008},{"duration":0.09302325581395365,"midi":53,"time":6.976744186046512,"velocity":0.3700787401574803},{"duration":0.08139534883720945,"midi":60,"time":6.976744186046512,"velocity":0.44881889763779526},{"duration":0.08139534883720945,"midi":67,"time":7,"velocity":0.12598425196850394},{"duration":0.011627906976744207,"midi":42,"time":7.186046511627907,"velocity":0.5275590551181102},{"duration":0.1511627906976738,"midi":74,"time":7.186046511627907,"velocity":0.4094488188976378},{"duration":0.011627906976744207,"midi":41,"time":7.1976744186046515,"velocity":0.5984251968503937},{"duration":0.011627906976744207,"midi":37,"time":7.209302325581396,"velocity":0.5590551181102362},{"duration":0.011627906976744207,"midi":33,"time":7.22093023255814,"velocity":0.5275590551181102},{"duration":0.023255813953487525,"midi":31,"time":7.232558139534884,"velocity":0.5511811023622047},{"duration":0.023255813953488413,"midi":43,"time":7.255813953488372,"velocity":0.2677165354330709},{"duration":0.03488372093023262,"midi":93,"time":7.27906976744186,"velocity":0.08661417322834646},{"duration":0.06976744186046524,"midi":43,"time":7.290697674418604,"velocity":0.2440944881889764},{"duration":0.1744186046511631,"midi":74,"time":7.406976744186046,"velocity":0.33858267716535434},{"duration":0.023255813953488413,"midi":59,"time":7.4186046511627906,"velocity":0.4251968503937008},{"duration":0.12790697674418627,"midi":62,"time":7.4186046511627906,"velocity":0.47244094488188976},{"duration":0.12790697674418627,"midi":55,"time":7.430232558139535,"velocity":0.3937007874015748},{"duration":0.03488372093023262,"midi":30,"time":7.441860465116279,"velocity":0.13385826771653545},{"duration":0.03488372093023262,"midi":69,"time":7.5,"velocity":0.11023622047244094},{"duration":0.058139534883721034,"midi":57,"time":7.627906976744186,"velocity":0.13385826771653545},{"duration":0.23255813953488325,"midi":74,"time":7.627906976744186,"velocity":0.4409448818897638},{"duration":0.011627906976744207,"midi":41,"time":7.6395348837209305,"velocity":0.5826771653543307},{"duration":0.1511627906976738,"midi":50,"time":7.6395348837209305,"velocity":0.4094488188976378},{"duration":0.011627906976744207,"midi":38,"time":7.651162790697675,"velocity":0.5905511811023622},{"duration":0.011627906976744207,"midi":35,"time":7.662790697674419,"velocity":0.5511811023622047},{"duration":0.06976744186046524,"midi":93,"time":7.662790697674419,"velocity":0.08661417322834646},{"duration":0.011627906976744207,"midi":32,"time":7.674418604651163,"velocity":0.5669291338582677},{"duration":0.011627906976744207,"midi":31,"time":7.686046511627907,"velocity":0.5748031496062992},{"duration":0.011627906976744207,"midi":30,"time":7.6976744186046515,"velocity":0.5511811023622047},{"duration":0.023255813953488413,"midi":63,"time":7.848837209302325,"velocity":0.4566929133858268},{"duration":0.09302325581395365,"midi":73,"time":7.8604651162790695,"velocity":0.13385826771653545},{"duration":0.08139534883720945,"midi":55,"time":7.872093023255814,"velocity":0.3937007874015748},{"duration":0.023255813953488413,"midi":59,"time":7.872093023255814,"velocity":0.4251968503937008},{"duration":0.09302325581395365,"midi":62,"time":7.872093023255814,"velocity":0.47244094488188976},{"duration":0.03488372093023262,"midi":66,"time":7.872093023255814,"velocity":0.10236220472440945},{"duration":0.09302325581395365,"midi":69,"time":7.872093023255814,"velocity":0.14173228346456693},{"duration":0.19767441860465151,"midi":76,"time":7.872093023255814,"velocity":0.41732283464566927},{"duration":0.06976744186046524,"midi":78,"time":7.895348837209302,"velocity":0.10236220472440945},{"duration":0.03488372093023262,"midi":59,"time":7.953488372093023,"velocity":0.4251968503937008},{"duration":0.023255813953488413,"midi":41,"time":8.081395348837209,"velocity":0.6299212598425197},{"duration":0.29069767441860606,"midi":77,"time":8.081395348837209,"velocity":0.3937007874015748},{"duration":0.011627906976745095,"midi":37,"time":8.104651162790697,"velocity":0.6141732283464567},{"duration":0.011627906976743319,"midi":33,"time":8.116279069767442,"velocity":0.5748031496062992},{"duration":0.023255813953488413,"midi":31,"time":8.127906976744185,"velocity":0.5984251968503937},{"duration":0.011627906976745095,"midi":30,"time":8.151162790697674,"velocity":0.5511811023622047},{"duration":0.06976744186046524,"midi":43,"time":8.186046511627907,"velocity":0.28346456692913385},{"duration":0.023255813953488413,"midi":30,"time":8.19767441860465,"velocity":0.2677165354330709},{"duration":0.13953488372093048,"midi":55,"time":8.30232558139535,"velocity":0.4094488188976378},{"duration":0.09302325581395365,"midi":62,"time":8.313953488372093,"velocity":0.48031496062992124},{"duration":0.08139534883720856,"midi":71,"time":8.325581395348838,"velocity":0.14960629921259844},{"duration":0.04651162790697683,"midi":59,"time":8.337209302325581,"velocity":0.41732283464566927},{"duration":0.08139534883721034,"midi":73,"time":8.337209302325581,"velocity":0.14173228346456693},{"duration":0.03488372093023173,"midi":59,"time":8.395348837209303,"velocity":0.4330708661417323},{"duration":0.023255813953488413,"midi":42,"time":8.511627906976743,"velocity":0.4409448818897638},{"duration":0.023255813953488413,"midi":53,"time":8.523255813953488,"velocity":0.25196850393700787},{"duration":0.011627906976745095,"midi":41,"time":8.534883720930232,"velocity":0.6062992125984252},{"duration":0.3023255813953494,"midi":77,"time":8.534883720930232,"velocity":0.3937007874015748},{"duration":0.011627906976743319,"midi":38,"time":8.546511627906977,"velocity":0.6141732283464567},{"duration":0.011627906976745095,"midi":36,"time":8.55813953488372,"velocity":0.5826771653543307},{"duration":0.11627906976744207,"midi":50,"time":8.55813953488372,"velocity":0.3543307086614173},{"duration":0.011627906976743319,"midi":32,"time":8.569767441860465,"velocity":0.5984251968503937},{"duration":0.011627906976745095,"midi":31,"time":8.581395348837209,"velocity":0.6141732283464567},{"duration":0.011627906976743319,"midi":30,"time":8.593023255813954,"velocity":0.5905511811023622},{"duration":0.011627906976745095,"midi":29,"time":8.604651162790697,"velocity":0.5275590551181102},{"duration":0.023255813953488413,"midi":30,"time":8.63953488372093,"velocity":0.3228346456692913},{"duration":0.023255813953488413,"midi":61,"time":8.744186046511627,"velocity":0.41732283464566927},{"duration":0.023255813953488413,"midi":45,"time":8.755813953488373,"velocity":0.2677165354330709},{"duration":0.13953488372093048,"midi":55,"time":8.755813953488373,"velocity":0.4094488188976378},{"duration":0.11627906976744207,"midi":69,"time":8.755813953488373,"velocity":0.1732283464566929},{"duration":0.04651162790697683,"midi":59,"time":8.767441860465116,"velocity":0.4330708661417323},{"duration":0.10465116279069875,"midi":62,"time":8.767441860465116,"velocity":0.4645669291338583},{"duration":0.03488372093023351,"midi":30,"time":8.837209302325581,"velocity":0.14960629921259844},{"duration":0.011627906976743319,"midi":41,"time":8.988372093023257,"velocity":0.5984251968503937},{"duration":0.011627906976743319,"midi":37,"time":9,"velocity":0.6062992125984252},{"duration":0.09302325581395365,"midi":84,"time":9,"velocity":0.2125984251968504},{"duration":0.011627906976745095,"midi":33,"time":9.011627906976743,"velocity":0.5590551181102362},{"duration":0.011627906976743319,"midi":32,"time":9.023255813953488,"velocity":0.5748031496062992},{"duration":0.011627906976745095,"midi":31,"time":9.034883720930232,"velocity":0.5748031496062992},{"duration":0.011627906976743319,"midi":30,"time":9.046511627906977,"velocity":0.5433070866141733},{"duration":0.023255813953488413,"midi":43,"time":9.05813953488372,"velocity":0.25196850393700787},{"duration":0.058139534883720145,"midi":43,"time":9.093023255813954,"velocity":0.25984251968503935},{"duration":0.15116279069767558,"midi":55,"time":9.19767441860465,"velocity":0.3937007874015748},{"duration":0.15116279069767558,"midi":83,"time":9.19767441860465,"velocity":0.2440944881889764},{"duration":0.08139534883720856,"midi":69,"time":9.209302325581396,"velocity":0.16535433070866143},{"duration":0.06976744186046524,"midi":74,"time":9.209302325581396,"velocity":0.1732283464566929},{"duration":0.11627906976744207,"midi":62,"time":9.220930232558139,"velocity":0.4881889763779528},{"duration":0.09302325581395365,"midi":71,"time":9.220930232558139,"velocity":0.12598425196850394},{"duration":0.06976744186046524,"midi":73,"time":9.244186046511627,"velocity":0.11023622047244094},{"duration":0.03488372093023351,"midi":42,"time":9.290697674418604,"velocity":0.11023622047244094},{"duration":0.08139534883720856,"midi":69,"time":9.418604651162791,"velocity":0.10236220472440945},{"duration":0.011627906976745095,"midi":41,"time":9.430232558139535,"velocity":0.6220472440944882},{"duration":0.023255813953488413,"midi":57,"time":9.430232558139535,"velocity":0.2283464566929134},{"duration":0.1860465116279073,"midi":83,"time":9.430232558139535,"velocity":0.30708661417322836},{"duration":0.011627906976743319,"midi":40,"time":9.44186046511628,"velocity":0.6535433070866141},{"duration":0.011627906976745095,"midi":36,"time":9.453488372093023,"velocity":0.6299212598425197},{"duration":0.011627906976743319,"midi":33,"time":9.465116279069768,"velocity":0.6220472440944882},{"duration":0.023255813953488413,"midi":51,"time":9.465116279069768,"velocity":0.30708661417322836},{"duration":0.011627906976745095,"midi":31,"time":9.476744186046512,"velocity":0.6377952755905512},{"duration":0.011627906976743319,"midi":30,"time":9.488372093023257,"velocity":0.6220472440944882},{"duration":0.09302325581395188,"midi":50,"time":9.488372093023257,"velocity":0.3464566929133858},{"duration":0.011627906976743319,"midi":29,"time":9.5,"velocity":0.5590551181102362},{"duration":0.03488372093023173,"midi":31,"time":9.546511627906977,"velocity":0.2440944881889764},{"duration":0.12790697674418539,"midi":55,"time":9.63953488372093,"velocity":0.41732283464566927},{"duration":0.06976744186046524,"midi":74,"time":9.651162790697674,"velocity":0.10236220472440945},{"duration":0.10465116279069697,"midi":62,"time":9.662790697674419,"velocity":0.4645669291338583},{"duration":0.06976744186046524,"midi":69,"time":9.662790697674419,"velocity":0.16535433070866143},{"duration":0.09302325581395365,"midi":78,"time":9.662790697674419,"velocity":0.09448818897637795},{"duration":0.11627906976744207,"midi":81,"time":9.686046511627907,"velocity":0.25984251968503935},{"duration":0.05813953488372192,"midi":71,"time":9.69767441860465,"velocity":0.14960629921259844},{"duration":0.03488372093023351,"midi":30,"time":9.720930232558139,"velocity":0.12598425196850394},{"duration":0.023255813953488413,"midi":59,"time":9.755813953488373,"velocity":0.2992125984251969},{"duration":0.325581395348836,"midi":79,"time":9.872093023255815,"velocity":0.36220472440944884},{"duration":0.011627906976745095,"midi":41,"time":9.883720930232558,"velocity":0.5984251968503937},{"duration":0.011627906976743319,"midi":37,"time":9.895348837209303,"velocity":0.6141732283464567},{"duration":0.011627906976745095,"midi":34,"time":9.906976744186046,"velocity":0.5590551181102362},{"duration":0.011627906976743319,"midi":32,"time":9.918604651162791,"velocity":0.5826771653543307},{"duration":0.011627906976745095,"midi":31,"time":9.930232558139535,"velocity":0.5984251968503937},{"duration":0.011627906976743319,"midi":30,"time":9.94186046511628,"velocity":0.5669291338582677},{"duration":0.058139534883720145,"midi":43,"time":10,"velocity":0.2440944881889764},{"duration":0.12790697674418716,"midi":62,"time":10.081395348837209,"velocity":0.48031496062992124},{"duration":0.13953488372093048,"midi":55,"time":10.104651162790697,"velocity":0.4094488188976378},{"duration":0.05813953488372192,"midi":71,"time":10.104651162790697,"velocity":0.13385826771653545},{"duration":0.10465116279069697,"midi":69,"time":10.116279069767442,"velocity":0.15748031496062992},{"duration":0.09302325581395365,"midi":73,"time":10.116279069767442,"velocity":0.11811023622047244},{"duration":0.04651162790697683,"midi":66,"time":10.127906976744185,"velocity":0.09448818897637795},{"duration":0.03488372093023173,"midi":30,"time":10.162790697674419,"velocity":0.13385826771653545},{"duration":0.023255813953488413,"midi":59,"time":10.19767441860465,"velocity":0.4094488188976378},{"duration":0.011627906976743319,"midi":41,"time":10.325581395348838,"velocity":0.5669291338582677},{"duration":0.3488372093023244,"midi":79,"time":10.325581395348838,"velocity":0.4094488188976378},{"duration":0.011627906976745095,"midi":40,"time":10.337209302325581,"velocity":0.6220472440944882},{"duration":0.12790697674418716,"midi":50,"time":10.337209302325581,"velocity":0.4094488188976378},{"duration":0.03488372093023351,"midi":57,"time":10.337209302325581,"velocity":0.14960629921259844},{"duration":0.011627906976743319,"midi":37,"time":10.348837209302326,"velocity":0.5984251968503937},{"duration":0.011627906976745095,"midi":33,"time":10.36046511627907,"velocity":0.5826771653543307},{"duration":0.011627906976743319,"midi":31,"time":10.372093023255815,"velocity":0.5984251968503937},{"duration":0.011627906976745095,"midi":30,"time":10.383720930232558,"velocity":0.5826771653543307},{"duration":0.011627906976743319,"midi":29,"time":10.395348837209303,"velocity":0.5354330708661418},{"duration":0.023255813953488413,"midi":28,"time":10.406976744186046,"velocity":0.4645669291338583},{"duration":0.1627906976744189,"midi":55,"time":10.534883720930232,"velocity":0.4015748031496063},{"duration":0.023255813953488413,"midi":63,"time":10.534883720930232,"velocity":0.3779527559055118},{"duration":0.04651162790697683,"midi":101,"time":10.534883720930232,"velocity":0.2440944881889764},{"duration":0.03488372093023173,"midi":81,"time":10.546511627906977,"velocity":0.08661417322834646},{"duration":0.12790697674418716,"midi":62,"time":10.55813953488372,"velocity":0.47244094488188976},{"duration":0.023255813953488413,"midi":19,"time":10.569767441860465,"velocity":0.3858267716535433},{"duration":0.058139534883720145,"midi":66,"time":10.569767441860465,"velocity":0.10236220472440945},{"duration":0.08139534883720856,"midi":69,"time":10.569767441860465,"velocity":0.14960629921259844},{"duration":0.058139534883720145,"midi":71,"time":10.569767441860465,"velocity":0.12598425196850394},{"duration":0.10465116279069697,"midi":73,"time":10.569767441860465,"velocity":0.11811023622047244},{"duration":0.011627906976745095,"midi":42,"time":10.767441860465116,"velocity":0.5196850393700787},{"duration":0.023255813953488413,"midi":61,"time":10.767441860465116,"velocity":0.2283464566929134},{"duration":0.011627906976743319,"midi":41,"time":10.779069767441861,"velocity":0.6535433070866141},{"duration":0.1511627906976738,"midi":81,"time":10.779069767441861,"velocity":0.29133858267716534},{"duration":0.011627906976745095,"midi":37,"time":10.790697674418604,"velocity":0.6614173228346457},{"duration":0.011627906976743319,"midi":35,"time":10.80232558139535,"velocity":0.6141732283464567},{"duration":0.011627906976745095,"midi":32,"time":10.813953488372093,"velocity":0.6299212598425197},{"duration":0.011627906976743319,"midi":31,"time":10.825581395348838,"velocity":0.6299212598425197},{"duration":0.011627906976745095,"midi":30,"time":10.837209302325581,"velocity":0.6062992125984252},{"duration":0.011627906976743319,"midi":29,"time":10.848837209302326,"velocity":0.5433070866141733},{"duration":0.03488372093023351,"midi":41,"time":10.906976744186046,"velocity":0.23622047244094488},{"duration":0.08139534883720856,"midi":53,"time":11,"velocity":0.36220472440944884},{"duration":0.023255813953488413,"midi":57,"time":11,"velocity":0.4015748031496063},{"duration":0.1511627906976738,"midi":60,"time":11,"velocity":0.4645669291338583},{"duration":0.12790697674418539,"midi":81,"time":11,"velocity":0.28346456692913385},{"duration":0.12790697674418716,"midi":67,"time":11.011627906976743,"velocity":0.15748031496062992},{"duration":0.05813953488372192,"midi":29,"time":11.05813953488372,"velocity":0.12598425196850394},{"duration":0.03488372093023351,"midi":57,"time":11.081395348837209,"velocity":0.41732283464566927},{"duration":0.06976744186046524,"midi":53,"time":11.093023255813954,"velocity":0.3700787401574803},{"duration":0.03488372093023173,"midi":41,"time":11.209302325581396,"velocity":0.6299212598425197},{"duration":0.03488372093023351,"midi":57,"time":11.220930232558139,"velocity":0.14960629921259844},{"duration":0.03488372093023351,"midi":61,"time":11.220930232558139,"velocity":0.18110236220472442},{"duration":0.1627906976744189,"midi":81,"time":11.232558139534884,"velocity":0.36220472440944884},{"duration":0.011627906976745095,"midi":37,"time":11.244186046511627,"velocity":0.6141732283464567},{"duration":0.011627906976743319,"midi":33,"time":11.255813953488373,"velocity":0.5748031496062992},{"duration":0.011627906976745095,"midi":31,"time":11.267441860465116,"velocity":0.5984251968503937},{"duration":0.10465116279069875,"midi":48,"time":11.267441860465116,"velocity":0.3779527559055118},{"duration":0.023255813953488413,"midi":30,"time":11.279069767441861,"velocity":0.5984251968503937},{"duration":0.1744186046511622,"midi":53,"time":11.430232558139535,"velocity":0.3937007874015748},{"duration":0.1511627906976738,"midi":60,"time":11.430232558139535,"velocity":0.4566929133858268},{"duration":0.04651162790697683,"midi":101,"time":11.430232558139535,"velocity":0.30708661417322836},{"duration":0.011627906976745095,"midi":22,"time":11.453488372093023,"velocity":0.5118110236220472},{"duration":0.1627906976744189,"midi":81,"time":11.453488372093023,"velocity":0.30708661417322836},{"duration":0.10465116279069697,"midi":67,"time":11.465116279069768,"velocity":0.14173228346456693},{"duration":0.03488372093023351,"midi":28,"time":11.511627906976743,"velocity":0.10236220472440945},{"duration":0.03488372093023173,"midi":57,"time":11.662790697674419,"velocity":0.14960629921259844},{"duration":0.1744186046511622,"midi":81,"time":11.662790697674419,"velocity":0.28346456692913385},{"duration":0.011627906976745095,"midi":41,"time":11.674418604651162,"velocity":0.6141732283464567},{"duration":0.011627906976743319,"midi":38,"time":11.686046511627907,"velocity":0.6141732283464567},{"duration":0.011627906976745095,"midi":36,"time":11.69767441860465,"velocity":0.5669291338582677},{"duration":0.011627906976743319,"midi":32,"time":11.709302325581396,"velocity":0.5748031496062992},{"duration":0.011627906976745095,"midi":31,"time":11.720930232558139,"velocity":0.5826771653543307},{"duration":0.011627906976743319,"midi":30,"time":11.732558139534884,"velocity":0.5669291338582677},{"duration":0.04651162790697683,"midi":41,"time":11.790697674418604,"velocity":0.25984251968503935},{"duration":0.1744186046511622,"midi":60,"time":11.883720930232558,"velocity":0.47244094488188976},{"duration":0.1744186046511622,"midi":81,"time":11.895348837209303,"velocity":0.36220472440944884},{"duration":0.11627906976744207,"midi":57,"time":11.906976744186046,"velocity":0.4251968503937008},{"duration":0.11627906976744207,"midi":67,"time":11.906976744186046,"velocity":0.12598425196850394},{"duration":0.03488372093023351,"midi":30,"time":11.953488372093023,"velocity":0.08661417322834646},{"duration":0.058139534883720145,"midi":71,"time":11.965116279069768,"velocity":0.11023622047244094},{"duration":0.03488372093023173,"midi":41,"time":11.976744186046512,"velocity":0.08661417322834646},{"duration":0.04651162790697683,"midi":53,"time":12.023255813953488,"velocity":0.36220472440944884},{"duration":0.03488372093023351,"midi":72,"time":12.104651162790697,"velocity":0.16535433070866143},{"duration":0.011627906976743319,"midi":42,"time":12.116279069767442,"velocity":0.5669291338582677},{"duration":0.04651162790697683,"midi":57,"time":12.116279069767442,"velocity":0.1732283464566929},{"duration":0.23255813953488413,"midi":81,"time":12.116279069767442,"velocity":0.36220472440944884},{"duration":0.011627906976745095,"midi":41,"time":12.127906976744185,"velocity":0.6614173228346457},{"duration":0.011627906976743319,"midi":37,"time":12.13953488372093,"velocity":0.6456692913385826},{"duration":0.011627906976745095,"midi":33,"time":12.151162790697674,"velocity":0.6062992125984252},{"duration":0.023255813953488413,"midi":31,"time":12.162790697674419,"velocity":0.6299212598425197},{"duration":0.10465116279069697,"midi":48,"time":12.162790697674419,"velocity":0.33858267716535434},{"duration":0.011627906976743319,"midi":30,"time":12.186046511627907,"velocity":0.5826771653543307},{"duration":0.011627906976745095,"midi":28,"time":12.19767441860465,"velocity":0.5118110236220472},{"duration":0.03488372093023173,"midi":61,"time":12.325581395348838,"velocity":0.3700787401574803},{"duration":0.12790697674418716,"midi":60,"time":12.36046511627907,"velocity":0.4645669291338583},{"duration":0.20930232558139572,"midi":83,"time":12.36046511627907,"velocity":0.25984251968503935},{"duration":0.1395348837209287,"midi":53,"time":12.372093023255815,"velocity":0.3779527559055118},{"duration":0.04651162790697683,"midi":64,"time":12.372093023255815,"velocity":0.10236220472440945},{"duration":0.09302325581395365,"midi":67,"time":12.383720930232558,"velocity":0.15748031496062992},{"duration":0.058139534883720145,"midi":71,"time":12.395348837209303,"velocity":0.08661417322834646},{"duration":0.011627906976743319,"midi":41,"time":12.569767441860465,"velocity":0.5826771653543307},{"duration":0.03488372093023173,"midi":57,"time":12.569767441860465,"velocity":0.1889763779527559},{"duration":0.011627906976745095,"midi":38,"time":12.581395348837209,"velocity":0.6141732283464567},{"duration":0.44186046511627985,"midi":81,"time":12.581395348837209,"velocity":0.36220472440944884},{"duration":0.011627906976743319,"midi":36,"time":12.593023255813954,"velocity":0.6062992125984252},{"duration":0.011627906976745095,"midi":32,"time":12.604651162790697,"velocity":0.6062992125984252},{"duration":0.023255813953488413,"midi":31,"time":12.616279069767442,"velocity":0.6141732283464567},{"duration":0.011627906976743319,"midi":29,"time":12.63953488372093,"velocity":0.5433070866141733},{"duration":0.023255813953488413,"midi":52,"time":12.779069767441861,"velocity":0.2440944881889764},{"duration":0.04651162790697683,"midi":57,"time":12.790697674418604,"velocity":0.41732283464566927},{"duration":0.023255813953488413,"midi":61,"time":12.790697674418604,"velocity":0.41732283464566927},{"duration":0.11627906976744207,"midi":67,"time":12.80232558139535,"velocity":0.18110236220472442},{"duration":0.13953488372093048,"midi":60,"time":12.813953488372093,"velocity":0.4645669291338583},{"duration":0.04651162790697683,"midi":71,"time":12.813953488372093,"velocity":0.10236220472440945},{"duration":0.08139534883721034,"midi":64,"time":12.837209302325581,"velocity":0.10236220472440945},{"duration":0.023255813953488413,"midi":53,"time":12.930232558139535,"velocity":0.2992125984251969},{"duration":0.011627906976745095,"midi":42,"time":13.011627906976743,"velocity":0.5354330708661418},{"duration":0.4069767441860481,"midi":79,"time":13.011627906976743,"velocity":0.3937007874015748},{"duration":0.011627906976743319,"midi":41,"time":13.023255813953488,"velocity":0.6377952755905512},{"duration":0.011627906976745095,"midi":37,"time":13.034883720930232,"velocity":0.6377952755905512},{"duration":0.011627906976743319,"midi":33,"time":13.046511627906977,"velocity":0.5905511811023622},{"duration":0.011627906976745095,"midi":32,"time":13.05813953488372,"velocity":0.6141732283464567},{"duration":0.011627906976743319,"midi":31,"time":13.069767441860465,"velocity":0.6220472440944882},{"duration":0.011627906976745095,"midi":30,"time":13.081395348837209,"velocity":0.5826771653543307},{"duration":0.08139534883721034,"midi":48,"time":13.081395348837209,"velocity":0.33070866141732286},{"duration":0.023255813953488413,"midi":28,"time":13.093023255813954,"velocity":0.5118110236220472},{"duration":0.023255813953488413,"midi":29,"time":13.116279069767442,"velocity":0.3937007874015748},{"duration":0.03488372093023173,"midi":58,"time":13.232558139534884,"velocity":0.4645669291338583},{"duration":0.13953488372093048,"midi":76,"time":13.232558139534884,"velocity":0.09448818897637795},{"duration":0.03488372093023173,"midi":101,"time":13.232558139534884,"velocity":0.28346456692913385},{"duration":0.13953488372093048,"midi":53,"time":13.255813953488373,"velocity":0.3779527559055118},{"duration":0.13953488372093048,"midi":60,"time":13.255813953488373,"velocity":0.48031496062992124},{"duration":0.10465116279069875,"midi":57,"time":13.267441860465116,"velocity":0.4251968503937008},{"duration":0.058139534883720145,"midi":71,"time":13.30232558139535,"velocity":0.09448818897637795},{"duration":0.011627906976743319,"midi":41,"time":13.465116279069768,"velocity":0.5748031496062992},{"duration":0.38372093023255793,"midi":77,"time":13.465116279069768,"velocity":0.4094488188976378},{"duration":0.011627906976745095,"midi":40,"time":13.476744186046512,"velocity":0.6220472440944882},{"duration":0.011627906976743319,"midi":37,"time":13.488372093023257,"velocity":0.5826771653543307},{"duration":0.011627906976743319,"midi":33,"time":13.5,"velocity":0.5590551181102362},{"duration":0.023255813953488413,"midi":31,"time":13.511627906976743,"velocity":0.5748031496062992},{"duration":0.011627906976745095,"midi":29,"time":13.534883720930232,"velocity":0.5196850393700787},{"duration":0.023255813953488413,"midi":27,"time":13.546511627906977,"velocity":0.44881889763779526},{"duration":0.03488372093023173,"midi":41,"time":13.593023255813954,"velocity":0.25196850393700787},{"duration":0.1627906976744189,"midi":60,"time":13.674418604651162,"velocity":0.47244094488188976},{"duration":0.11627906976744207,"midi":79,"time":13.686046511627907,"velocity":0.07874015748031496},{"duration":0.06976744186046524,"midi":41,"time":13.720930232558139,"velocity":0.13385826771653545},{"duration":0.03488372093023351,"midi":53,"time":13.767441860465116,"velocity":0.3779527559055118},{"duration":0.03488372093023173,"midi":67,"time":13.779069767441861,"velocity":0.07874015748031496},{"duration":0.03488372093023351,"midi":53,"time":13.813953488372093,"velocity":0.36220472440944884},{"duration":0.38372093023255793,"midi":76,"time":13.906976744186046,"velocity":0.41732283464566927},{"duration":0.011627906976743319,"midi":41,"time":13.918604651162791,"velocity":0.5196850393700787},{"duration":0.011627906976745095,"midi":38,"time":13.930232558139535,"velocity":0.5275590551181102},{"duration":0.12790697674418539,"midi":48,"time":13.94186046511628,"velocity":0.3700787401574803},{"duration":0.03488372093023173,"midi":56,"time":14.116279069767442,"velocity":0.4251968503937008},{"duration":0.023255813953488413,"midi":61,"time":14.127906976744185,"velocity":0.3858267716535433},{"duration":0.03488372093023351,"midi":101,"time":14.127906976744185,"velocity":0.2204724409448819},{"duration":0.03488372093023351,"midi":53,"time":14.151162790697674,"velocity":0.3858267716535433},{"duration":0.13953488372093048,"midi":60,"time":14.151162790697674,"velocity":0.4645669291338583},{"duration":0.1627906976744189,"midi":74,"time":14.36046511627907,"velocity":0.41732283464566927},{"duration":0.011627906976743319,"midi":41,"time":14.372093023255815,"velocity":0.6141732283464567},{"duration":0.011627906976745095,"midi":37,"time":14.383720930232558,"velocity":0.6062992125984252},{"duration":0.011627906976743319,"midi":35,"time":14.395348837209303,"velocity":0.5669291338582677},{"duration":0.023255813953488413,"midi":46,"time":14.395348837209303,"velocity":0.2755905511811024},{"duration":0.04651162790697683,"midi":93,"time":14.395348837209303,"velocity":0.07086614173228346},{"duration":0.011627906976745095,"midi":32,"time":14.406976744186046,"velocity":0.5826771653543307},{"duration":0.011627906976743319,"midi":31,"time":14.418604651162791,"velocity":0.5905511811023622},{"duration":0.011627906976745095,"midi":30,"time":14.430232558139535,"velocity":0.5590551181102362},{"duration":0.06976744186046524,"midi":43,"time":14.453488372093023,"velocity":0.2755905511811024},{"duration":0.1860465116279073,"midi":74,"time":14.581395348837209,"velocity":0.4409448818897638},{"duration":0.13953488372093048,"midi":55,"time":14.593023255813954,"velocity":0.41732283464566927},{"duration":0.09302325581395365,"midi":62,"time":14.604651162790697,"velocity":0.4645669291338583},{"duration":0.10465116279069875,"midi":69,"time":14.604651162790697,"velocity":0.14960629921259844},{"duration":0.04651162790697683,"midi":66,"time":14.616279069767442,"velocity":0.11023622047244094},{"duration":0.04651162790697683,"midi":71,"time":14.616279069767442,"velocity":0.07086614173228346},{"duration":0.03488372093023351,"midi":31,"time":14.627906976744185,"velocity":0.10236220472440945},{"duration":0.04651162790697683,"midi":59,"time":14.63953488372093,"velocity":0.4330708661417323},{"duration":0.06976744186046524,"midi":93,"time":14.662790697674419,"velocity":0.10236220472440945},{"duration":0.011627906976745095,"midi":41,"time":14.813953488372093,"velocity":0.5748031496062992},{"duration":0.08139534883721034,"midi":69,"time":14.813953488372093,"velocity":0.13385826771653545},{"duration":0.011627906976743319,"midi":40,"time":14.825581395348838,"velocity":0.6377952755905512},{"duration":0.03488372093023173,"midi":57,"time":14.825581395348838,"velocity":0.16535433070866143},{"duration":0.20930232558139394,"midi":74,"time":14.825581395348838,"velocity":0.41732283464566927},{"duration":0.011627906976745095,"midi":37,"time":14.837209302325581,"velocity":0.6220472440944882},{"duration":0.011627906976743319,"midi":33,"time":14.848837209302326,"velocity":0.5905511811023622},{"duration":0.023255813953488413,"midi":31,"time":14.86046511627907,"velocity":0.6141732283464567},{"duration":0.10465116279069697,"midi":50,"time":14.872093023255815,"velocity":0.3700787401574803},{"duration":0.011627906976745095,"midi":30,"time":14.883720930232558,"velocity":0.5669291338582677},{"duration":0.023255813953488413,"midi":28,"time":14.895348837209303,"velocity":0.49606299212598426},{"duration":0.023255813953488413,"midi":63,"time":15.023255813953488,"velocity":0.4094488188976378},{"duration":0.023255813953488413,"midi":59,"time":15.034883720930232,"velocity":0.4094488188976378},{"duration":0.174418604651164,"midi":76,"time":15.034883720930232,"velocity":0.41732283464566927},{"duration":0.11627906976744207,"midi":55,"time":15.046511627906977,"velocity":0.3937007874015748},{"duration":0.10465116279069697,"midi":62,"time":15.046511627906977,"velocity":0.4645669291338583},{"duration":0.058139534883720145,"midi":66,"time":15.046511627906977,"velocity":0.12598425196850394},{"duration":0.09302325581395365,"midi":69,"time":15.046511627906977,"velocity":0.14960629921259844},{"duration":0.09302325581395365,"midi":71,"time":15.05813953488372,"velocity":0.12598425196850394},{"duration":0.03488372093023351,"midi":31,"time":15.081395348837209,"velocity":0.1889763779527559},{"duration":0.023255813953488413,"midi":59,"time":15.093023255813954,"velocity":0.41732283464566927},{"duration":0.25581395348837077,"midi":77,"time":15.255813953488373,"velocity":0.4094488188976378},{"duration":0.011627906976745095,"midi":41,"time":15.267441860465116,"velocity":0.5905511811023622},{"duration":0.011627906976743319,"midi":38,"time":15.279069767441861,"velocity":0.6141732283464567},{"duration":0.011627906976745095,"midi":36,"time":15.290697674418604,"velocity":0.5905511811023622},{"duration":0.011627906976743319,"midi":32,"time":15.30232558139535,"velocity":0.5905511811023622},{"duration":0.011627906976745095,"midi":31,"time":15.313953488372093,"velocity":0.5984251968503937},{"duration":0.011627906976743319,"midi":30,"time":15.325581395348838,"velocity":0.5669291338582677},{"duration":0.011627906976745095,"midi":29,"time":15.337209302325581,"velocity":0.5118110236220472},{"duration":0.023255813953488413,"midi":43,"time":15.348837209302326,"velocity":0.28346456692913385},{"duration":0.05813953488372192,"midi":43,"time":15.383720930232558,"velocity":0.2755905511811024},{"duration":0.1511627906976738,"midi":55,"time":15.476744186046512,"velocity":0.41732283464566927},{"duration":0.12790697674418539,"midi":62,"time":15.476744186046512,"velocity":0.4645669291338583},{"duration":0.04651162790697683,"midi":78,"time":15.511627906976743,"velocity":0.09448818897637795},{"duration":0.08139534883720856,"midi":71,"time":15.523255813953488,"velocity":0.15748031496062992},{"duration":0.03488372093023173,"midi":73,"time":15.546511627906977,"velocity":0.11023622047244094},{"duration":0.03488372093023173,"midi":59,"time":15.569767441860465,"velocity":0.4409448818897638},{"duration":0.023255813953488413,"midi":41,"time":15.709302325581396,"velocity":0.6299212598425197},{"duration":0.06976744186046524,"midi":69,"time":15.709302325581396,"velocity":0.13385826771653545},{"duration":0.2906976744186043,"midi":77,"time":15.709302325581396,"velocity":0.41732283464566927},{"duration":0.04651162790697683,"midi":56,"time":15.720930232558139,"velocity":0.11811023622047244},{"duration":0.011627906976743319,"midi":37,"time":15.732558139534884,"velocity":0.6141732283464567},{"duration":0.11627906976744207,"midi":50,"time":15.732558139534884,"velocity":0.3464566929133858},{"duration":0.011627906976745095,"midi":34,"time":15.744186046511627,"velocity":0.5748031496062992},{"duration":0.023255813953488413,"midi":31,"time":15.755813953488373,"velocity":0.5984251968503937},{"duration":0.011627906976743319,"midi":30,"time":15.779069767441861,"velocity":0.5433070866141733},{"duration":0.04651162790697683,"midi":101,"time":15.918604651162791,"velocity":0.25196850393700787},{"duration":0.03488372093023351,"midi":67,"time":15.930232558139535,"velocity":0.1968503937007874},{"duration":0.06976744186046524,"midi":71,"time":15.930232558139535,"velocity":0.15748031496062992},{"duration":0.1395348837209287,"midi":55,"time":15.94186046511628,"velocity":0.4015748031496063},{"duration":0.11627906976744207,"midi":62,"time":15.94186046511628,"velocity":0.4881889763779528},{"duration":0.10465116279069875,"midi":73,"time":15.953488372093023,"velocity":0.12598425196850394},{"duration":0.09302325581395365,"midi":69,"time":15.965116279069768,"velocity":0.16535433070866143},{"duration":0.011627906976745095,"midi":41,"time":16.162790697674417,"velocity":0.5905511811023622},{"duration":0.15116279069767558,"midi":83,"time":16.162790697674417,"velocity":0.29133858267716534},{"duration":0.011627906976745095,"midi":40,"time":16.174418604651162,"velocity":0.6220472440944882},{"duration":0.011627906976745095,"midi":36,"time":16.186046511627907,"velocity":0.5748031496062992},{"duration":0.011627906976741542,"midi":32,"time":16.197674418604652,"velocity":0.5748031496062992},{"duration":0.011627906976745095,"midi":31,"time":16.209302325581394,"velocity":0.5826771653543307},{"duration":0.011627906976745095,"midi":30,"time":16.22093023255814,"velocity":0.5669291338582677},{"duration":0.011627906976745095,"midi":29,"time":16.232558139534884,"velocity":0.5118110236220472},{"duration":0.023255813953486637,"midi":63,"time":16.372093023255815,"velocity":0.4015748031496063},{"duration":0.05813953488371837,"midi":73,"time":16.38372093023256,"velocity":0.14173228346456693},{"duration":0.11627906976744384,"midi":55,"time":16.3953488372093,"velocity":0.4015748031496063},{"duration":0.11627906976744384,"midi":62,"time":16.3953488372093,"velocity":0.48031496062992124},{"duration":0.04651162790697683,"midi":59,"time":16.406976744186046,"velocity":0.4409448818897638},{"duration":0.08139534883720856,"midi":78,"time":16.406976744186046,"velocity":0.12598425196850394},{"duration":0.12790697674418539,"midi":83,"time":16.406976744186046,"velocity":0.23622047244094488},{"duration":0.034883720930235285,"midi":72,"time":16.441860465116278,"velocity":0.14960629921259844},{"duration":0.03488372093023173,"midi":66,"time":16.453488372093023,"velocity":0.11023622047244094},{"duration":0.011627906976741542,"midi":42,"time":16.6046511627907,"velocity":0.5275590551181102},{"duration":0.011627906976745095,"midi":41,"time":16.61627906976744,"velocity":0.6299212598425197},{"duration":0.1860465116279073,"midi":83,"time":16.61627906976744,"velocity":0.2440944881889764},{"duration":0.011627906976745095,"midi":37,"time":16.627906976744185,"velocity":0.6299212598425197},{"duration":0.011627906976745095,"midi":33,"time":16.63953488372093,"velocity":0.5826771653543307},{"duration":0.023255813953486637,"midi":50,"time":16.63953488372093,"velocity":0.3858267716535433},{"duration":0.011627906976741542,"midi":32,"time":16.651162790697676,"velocity":0.5984251968503937},{"duration":0.011627906976745095,"midi":31,"time":16.662790697674417,"velocity":0.5984251968503937},{"duration":0.011627906976745095,"midi":30,"time":16.674418604651162,"velocity":0.5590551181102362},{"duration":0.06976744186046702,"midi":50,"time":16.674418604651162,"velocity":0.3464566929133858},{"duration":0.03488372093023173,"midi":31,"time":16.72093023255814,"velocity":0.2755905511811024},{"duration":0.11627906976744029,"midi":74,"time":16.825581395348838,"velocity":0.16535433070866143},{"duration":0.13953488372093048,"midi":55,"time":16.837209302325583,"velocity":0.4094488188976378},{"duration":0.1046511627906952,"midi":62,"time":16.837209302325583,"velocity":0.47244094488188976},{"duration":0.11627906976744029,"midi":69,"time":16.837209302325583,"velocity":0.18110236220472442},{"duration":0.03488372093023173,"midi":71,"time":16.837209302325583,"velocity":0.10236220472440945},{"duration":0.16279069767441712,"midi":81,"time":16.837209302325583,"velocity":0.36220472440944884},{"duration":0.09302325581395365,"midi":73,"time":16.848837209302324,"velocity":0.11023622047244094},{"duration":0.023255813953486637,"midi":59,"time":16.872093023255815,"velocity":0.4251968503937008},{"duration":0.023255813953486637,"midi":59,"time":16.930232558139537,"velocity":0.4094488188976378},{"duration":0.011627906976741542,"midi":41,"time":17.058139534883722,"velocity":0.5826771653543307},{"duration":0.011627906976745095,"midi":40,"time":17.069767441860463,"velocity":0.6220472440944882},{"duration":0.27906976744186096,"midi":79,"time":17.069767441860463,"velocity":0.3858267716535433},{"duration":0.011627906976745095,"midi":36,"time":17.08139534883721,"velocity":0.6220472440944882},{"duration":0.011627906976745095,"midi":33,"time":17.093023255813954,"velocity":0.5984251968503937},{"duration":0.011627906976741542,"midi":31,"time":17.1046511627907,"velocity":0.6141732283464567},{"duration":0.011627906976745095,"midi":30,"time":17.11627906976744,"velocity":0.6062992125984252},{"duration":0.011627906976745095,"midi":29,"time":17.127906976744185,"velocity":0.5511811023622047},{"duration":0.02325581395349019,"midi":30,"time":17.174418604651162,"velocity":0.25984251968503935},{"duration":0.023255813953486637,"midi":43,"time":17.186046511627907,"velocity":0.25196850393700787},{"duration":0.1046511627906952,"midi":55,"time":17.290697674418606,"velocity":0.4015748031496063},{"duration":0.12790697674418539,"midi":62,"time":17.290697674418606,"velocity":0.48031496062992124},{"duration":0.11627906976744029,"midi":69,"time":17.290697674418606,"velocity":0.1732283464566929},{"duration":0.05813953488371837,"midi":71,"time":17.290697674418606,"velocity":0.07086614173228346},{"duration":0.034883720930235285,"midi":73,"time":17.302325581395348,"velocity":0.13385826771653545},{"duration":0.04651162790697683,"midi":59,"time":17.325581395348838,"velocity":0.4251968503937008},{"duration":0.05813953488371837,"midi":66,"time":17.337209302325583,"velocity":0.11023622047244094},{"duration":0.03488372093023173,"midi":41,"time":17.488372093023255,"velocity":0.6141732283464567},{"duration":0.011627906976745095,"midi":38,"time":17.523255813953487,"velocity":0.6220472440944882},{"duration":0.43023255813953654,"midi":79,"time":17.523255813953487,"velocity":0.4015748031496063},{"duration":0.011627906976745095,"midi":35,"time":17.53488372093023,"velocity":0.5669291338582677},{"duration":0.011627906976745095,"midi":32,"time":17.546511627906977,"velocity":0.5905511811023622},{"duration":0.11627906976744029,"midi":50,"time":17.546511627906977,"velocity":0.36220472440944884},{"duration":0.011627906976741542,"midi":31,"time":17.558139534883722,"velocity":0.5984251968503937},{"duration":0.011627906976745095,"midi":30,"time":17.569767441860463,"velocity":0.5669291338582677},{"duration":0.02325581395349019,"midi":56,"time":17.709302325581394,"velocity":0.3464566929133858},{"duration":0.03488372093023173,"midi":101,"time":17.72093023255814,"velocity":0.2204724409448819},{"duration":0.11627906976744029,"midi":55,"time":17.74418604651163,"velocity":0.3858267716535433},{"duration":0.11627906976744029,"midi":62,"time":17.74418604651163,"velocity":0.4645669291338583},{"duration":0.09302325581395365,"midi":81,"time":17.74418604651163,"velocity":0.09448818897637795},{"duration":0.02325581395349019,"midi":16,"time":17.75581395348837,"velocity":0.2440944881889764},{"duration":0.08139534883721211,"midi":71,"time":17.75581395348837,"velocity":0.13385826771653545},{"duration":0.04651162790697683,"midi":31,"time":17.790697674418606,"velocity":0.2047244094488189},{"duration":0.011627906976745095,"midi":40,"time":17.96511627906977,"velocity":0.5511811023622047},{"duration":0.011627906976741542,"midi":36,"time":17.976744186046513,"velocity":0.5511811023622047},{"duration":0.023255813953486637,"midi":73,"time":17.976744186046513,"velocity":0.4330708661417323},{"duration":0.011627906976745095,"midi":33,"time":17.988372093023255,"velocity":0.5354330708661418},{"duration":0.023255813953486637,"midi":31,"time":18,"velocity":0.5511811023622047},{"duration":0.8488372093023244,"midi":72,"time":18,"velocity":0.44881889763779526},{"duration":0.09302325581395365,"midi":91,"time":18,"velocity":0.12598425196850394},{"duration":0.04651162790697683,"midi":41,"time":18.08139534883721,"velocity":0.2283464566929134},{"duration":0.034883720930235285,"midi":61,"time":18.162790697674417,"velocity":0.4251968503937008},{"duration":0.09302325581395365,"midi":60,"time":18.197674418604652,"velocity":0.4645669291338583},{"duration":0.06976744186046702,"midi":41,"time":18.209302325581394,"velocity":0.07874015748031496},{"duration":0.09302325581395365,"midi":67,"time":18.209302325581394,"velocity":0.14960629921259844},{"duration":0.05813953488371837,"midi":76,"time":18.24418604651163,"velocity":0.07086614173228346},{"duration":0.03488372093023173,"midi":53,"time":18.267441860465116,"velocity":0.3700787401574803},{"duration":0.04651162790697683,"midi":57,"time":18.27906976744186,"velocity":0.4015748031496063},{"duration":0.1744186046511622,"midi":91,"time":18.27906976744186,"velocity":0.15748031496062992},{"duration":0.011627906976745095,"midi":41,"time":18.406976744186046,"velocity":0.5984251968503937},{"duration":0.011627906976745095,"midi":38,"time":18.41860465116279,"velocity":0.6141732283464567},{"duration":0.011627906976741542,"midi":36,"time":18.430232558139537,"velocity":0.5748031496062992},{"duration":0.011627906976745095,"midi":32,"time":18.441860465116278,"velocity":0.5826771653543307},{"duration":0.011627906976745095,"midi":31,"time":18.453488372093023,"velocity":0.5905511811023622},{"duration":0.011627906976745095,"midi":30,"time":18.46511627906977,"velocity":0.5669291338582677},{"duration":0.03488372093023173,"midi":30,"time":18.511627906976745,"velocity":0.30708661417322836},{"duration":0.1860465116279073,"midi":91,"time":18.593023255813954,"velocity":0.15748031496062992},{"duration":0.02325581395349019,"midi":61,"time":18.61627906976744,"velocity":0.4015748031496063},{"duration":0.10465116279069875,"midi":67,"time":18.627906976744185,"velocity":0.14960629921259844},{"duration":0.10465116279069875,"midi":60,"time":18.63953488372093,"velocity":0.47244094488188976},{"duration":0.1046511627906952,"midi":53,"time":18.651162790697676,"velocity":0.3779527559055118},{"duration":0.04651162790697683,"midi":57,"time":18.697674418604652,"velocity":0.41732283464566927},{"duration":0.03488372093023173,"midi":76,"time":18.72093023255814,"velocity":0.07086614173228346},{"duration":0.03488372093023173,"midi":61,"time":18.837209302325583,"velocity":0.18110236220472442},{"duration":0.011627906976745095,"midi":42,"time":18.848837209302324,"velocity":0.5590551181102362},{"duration":0.034883720930235285,"midi":57,"time":18.848837209302324,"velocity":0.1732283464566929},{"duration":0.011627906976745095,"midi":41,"time":18.86046511627907,"velocity":0.6456692913385826},{"duration":0.011627906976745095,"midi":37,"time":18.872093023255815,"velocity":0.6299212598425197},{"duration":0.8837209302325562,"midi":69,"time":18.872093023255815,"velocity":0.4409448818897638},{"duration":0.011627906976741542,"midi":33,"time":18.88372093023256,"velocity":0.5826771653543307},{"duration":0.02325581395349019,"midi":31,"time":18.8953488372093,"velocity":0.6062992125984252},{"duration":0.22093023255813904,"midi":88,"time":18.906976744186046,"velocity":0.16535433070866143},{"duration":0.011627906976745095,"midi":30,"time":18.91860465116279,"velocity":0.5511811023622047},{"duration":0.046511627906973274,"midi":41,"time":18.976744186046513,"velocity":0.2677165354330709},{"duration":0.034883720930235285,"midi":72,"time":19.069767441860463,"velocity":0.15748031496062992},{"duration":0.12790697674418539,"midi":60,"time":19.08139534883721,"velocity":0.4645669291338583},{"duration":0.06976744186046346,"midi":76,"time":19.13953488372093,"velocity":0.08661417322834646},{"duration":0.03488372093023173,"midi":41,"time":19.151162790697676,"velocity":0.11811023622047244},{"duration":0.22093023255813904,"midi":88,"time":19.232558139534884,"velocity":0.1732283464566929},{"duration":0.023255813953486637,"midi":42,"time":19.27906976744186,"velocity":0.4566929133858268},{"duration":0.011627906976745095,"midi":41,"time":19.302325581395348,"velocity":0.6220472440944882},{"duration":0.011627906976745095,"midi":38,"time":19.313953488372093,"velocity":0.6377952755905512},{"duration":0.011627906976745095,"midi":36,"time":19.325581395348838,"velocity":0.6062992125984252},{"duration":0.011627906976741542,"midi":32,"time":19.337209302325583,"velocity":0.6062992125984252},{"duration":0.011627906976745095,"midi":31,"time":19.348837209302324,"velocity":0.6141732283464567},{"duration":0.011627906976745095,"midi":30,"time":19.36046511627907,"velocity":0.5905511811023622},{"duration":0.09302325581395365,"midi":48,"time":19.36046511627907,"velocity":0.3464566929133858},{"duration":0.011627906976745095,"midi":29,"time":19.372093023255815,"velocity":0.5354330708661418},{"duration":0.03488372093023173,"midi":31,"time":19.41860465116279,"velocity":0.23622047244094488},{"duration":0.03488372093023173,"midi":101,"time":19.511627906976745,"velocity":0.33070866141732286},{"duration":0.034883720930235285,"midi":53,"time":19.523255813953487,"velocity":0.36220472440944884},{"duration":0.02325581395349019,"midi":61,"time":19.523255813953487,"velocity":0.4330708661417323},{"duration":0.10465116279069875,"midi":79,"time":19.53488372093023,"velocity":0.08661417322834646},{"duration":0.04651162790697683,"midi":57,"time":19.546511627906977,"velocity":0.41732283464566927},{"duration":0.09302325581395365,"midi":60,"time":19.546511627906977,"velocity":0.4645669291338583},{"duration":0.034883720930235285,"midi":53,"time":19.569767441860463,"velocity":0.3700787401574803},{"duration":0.17441860465116577,"midi":88,"time":19.569767441860463,"velocity":0.15748031496062992},{"duration":0.03488372093023173,"midi":29,"time":19.593023255813954,"velocity":0.07874015748031496},{"duration":0.011627906976745095,"midi":41,"time":19.75581395348837,"velocity":0.5984251968503937},{"duration":0.011627906976745095,"midi":38,"time":19.767441860465116,"velocity":0.5905511811023622},{"duration":0.02325581395349019,"midi":75,"time":19.767441860465116,"velocity":0.3464566929133858},{"duration":0.011627906976745095,"midi":34,"time":19.77906976744186,"velocity":0.5275590551181102},{"duration":0.011627906976741542,"midi":32,"time":19.790697674418606,"velocity":0.5590551181102362},{"duration":0.8604651162790695,"midi":76,"time":19.790697674418606,"velocity":0.4251968503937008},{"duration":0.011627906976745095,"midi":31,"time":19.802325581395348,"velocity":0.5590551181102362},{"duration":0.011627906976745095,"midi":30,"time":19.813953488372093,"velocity":0.5196850393700787},{"duration":0.05813953488372192,"midi":41,"time":19.86046511627907,"velocity":0.25984251968503935},{"duration":0.11627906976744029,"midi":57,"time":19.976744186046513,"velocity":0.41732283464566927},{"duration":0.11627906976744029,"midi":60,"time":19.976744186046513,"velocity":0.4645669291338583},{"duration":0.05813953488371837,"midi":53,"time":20.058139534883722,"velocity":0.3700787401574803},{"duration":0.03488372093023173,"midi":57,"time":20.1046511627907,"velocity":0.3858267716535433},{"duration":0.011627906976741542,"midi":41,"time":20.197674418604652,"velocity":0.5669291338582677},{"duration":0.011627906976745095,"midi":40,"time":20.209302325581394,"velocity":0.5984251968503937},{"duration":0.011627906976745095,"midi":36,"time":20.22093023255814,"velocity":0.5748031496062992},{"duration":0.011627906976745095,"midi":33,"time":20.232558139534884,"velocity":0.5590551181102362},{"duration":0.023255813953486637,"midi":31,"time":20.24418604651163,"velocity":0.5748031496062992},{"duration":0.12790697674418539,"midi":48,"time":20.24418604651163,"velocity":0.33858267716535434},{"duration":0.06976744186046346,"midi":67,"time":20.430232558139537,"velocity":0.10236220472440945},{"duration":0.09302325581395365,"midi":60,"time":20.441860465116278,"velocity":0.4566929133858268},{"duration":0.08139534883720856,"midi":53,"time":20.453488372093023,"velocity":0.3779527559055118},{"duration":0.1046511627906952,"midi":57,"time":20.46511627906977,"velocity":0.4330708661417323},{"duration":0.05813953488371837,"midi":64,"time":20.476744186046513,"velocity":0.10236220472440945},{"duration":0.03488372093023173,"midi":28,"time":20.488372093023255,"velocity":0.12598425196850394},{"duration":0.04651162790697683,"midi":57,"time":20.63953488372093,"velocity":0.18110236220472442},{"duration":0.023255813953486637,"midi":74,"time":20.63953488372093,"velocity":0.3779527559055118},{"duration":0.011627906976741542,"midi":41,"time":20.651162790697676,"velocity":0.5984251968503937},{"duration":0.011627906976745095,"midi":37,"time":20.662790697674417,"velocity":0.5984251968503937},{"duration":0.02325581395349019,"midi":73,"time":20.662790697674417,"velocity":0.4251968503937008},{"duration":0.011627906976745095,"midi":34,"time":20.674418604651162,"velocity":0.5590551181102362},{"duration":0.10465116279069875,"midi":91,"time":20.674418604651162,"velocity":0.12598425196850394},{"duration":0.011627906976745095,"midi":32,"time":20.686046511627907,"velocity":0.5905511811023622},{"duration":0.8720930232558146,"midi":72,"time":20.686046511627907,"velocity":0.44881889763779526},{"duration":0.011627906976741542,"midi":31,"time":20.697674418604652,"velocity":0.5905511811023622},{"duration":0.011627906976745095,"midi":30,"time":20.709302325581394,"velocity":0.5590551181102362},{"duration":0.02325581395349019,"midi":59,"time":20.86046511627907,"velocity":0.44881889763779526},{"duration":0.03488372093023173,"midi":101,"time":20.86046511627907,"velocity":0.28346456692913385},{"duration":0.03488372093023173,"midi":19,"time":20.88372093023256,"velocity":0.4330708661417323},{"duration":0.05813953488371837,"midi":53,"time":20.88372093023256,"velocity":0.3779527559055118},{"duration":0.09302325581395365,"midi":60,"time":20.88372093023256,"velocity":0.47244094488188976},{"duration":0.10465116279069875,"midi":67,"time":20.8953488372093,"velocity":0.15748031496062992},{"duration":0.04651162790697683,"midi":57,"time":20.906976744186046,"velocity":0.4251968503937008},{"duration":0.16279069767442067,"midi":91,"time":20.941860465116278,"velocity":0.15748031496062992},{"duration":0.03488372093023173,"midi":53,"time":20.953488372093023,"velocity":0.3858267716535433},{"duration":0.04651162790697683,"midi":41,"time":20.96511627906977,"velocity":0.07874015748031496},{"duration":0.03488372093023173,"midi":41,"time":21.08139534883721,"velocity":0.5984251968503937},{"duration":0.011627906976745095,"midi":37,"time":21.11627906976744,"velocity":0.5826771653543307},{"duration":0.011627906976745095,"midi":33,"time":21.127906976744185,"velocity":0.5590551181102362},{"duration":0.023255813953486637,"midi":31,"time":21.13953488372093,"velocity":0.5669291338582677},{"duration":0.11627906976744029,"midi":48,"time":21.13953488372093,"velocity":0.3464566929133858},{"duration":0.011627906976745095,"midi":29,"time":21.162790697674417,"velocity":0.5118110236220472},{"duration":0.02325581395349019,"midi":27,"time":21.174418604651162,"velocity":0.44881889763779526},{"duration":0.1860465116279073,"midi":91,"time":21.267441860465116,"velocity":0.13385826771653545},{"duration":0.02325581395349019,"midi":60,"time":21.302325581395348,"velocity":0.44881889763779526},{"duration":0.03488372093023173,"midi":101,"time":21.313953488372093,"velocity":0.2125984251968504},{"duration":0.04651162790697683,"midi":53,"time":21.337209302325583,"velocity":0.3700787401574803},{"duration":0.06976744186046346,"midi":60,"time":21.337209302325583,"velocity":0.4645669291338583},{"duration":0.04651162790697683,"midi":69,"time":21.337209302325583,"velocity":0.11023622047244094},{"duration":0.09302325581395365,"midi":67,"time":21.348837209302324,"velocity":0.12598425196850394},{"duration":0.05813953488371837,"midi":64,"time":21.38372093023256,"velocity":0.07086614173228346},{"duration":0.04651162790697683,"midi":57,"time":21.41860465116279,"velocity":0.4251968503937008},{"duration":0.16279069767442067,"midi":74,"time":21.53488372093023,"velocity":0.4094488188976378},{"duration":0.011627906976745095,"midi":41,"time":21.546511627906977,"velocity":0.5748031496062992},{"duration":0.011627906976741542,"midi":38,"time":21.558139534883722,"velocity":0.5748031496062992},{"duration":0.011627906976745095,"midi":35,"time":21.569767441860463,"velocity":0.5196850393700787},{"duration":0.011627906976745095,"midi":32,"time":21.58139534883721,"velocity":0.5354330708661418},{"duration":0.011627906976745095,"midi":31,"time":21.593023255813954,"velocity":0.5511811023622047},{"duration":0.011627906976741542,"midi":30,"time":21.6046511627907,"velocity":0.5196850393700787},{"duration":0.02325581395349019,"midi":43,"time":21.61627906976744,"velocity":0.2677165354330709},{"duration":0.03488372093023173,"midi":93,"time":21.63953488372093,"velocity":0.08661417322834646},{"duration":0.06976744186046346,"midi":43,"time":21.651162790697676,"velocity":0.2440944881889764},{"duration":0.15116279069767558,"midi":55,"time":21.75581395348837,"velocity":0.3858267716535433},{"duration":0.16279069767442067,"midi":74,"time":21.767441860465116,"velocity":0.33070866141732286},{"duration":0.12790697674418539,"midi":62,"time":21.77906976744186,"velocity":0.47244094488188976},{"duration":0.05813953488372192,"midi":71,"time":21.77906976744186,"velocity":0.15748031496062992},{"duration":0.03488372093023173,"midi":66,"time":21.790697674418606,"velocity":0.11811023622047244},{"duration":0.034883720930235285,"midi":69,"time":21.848837209302324,"velocity":0.09448818897637795},{"duration":0.011627906976745095,"midi":42,"time":21.988372093023255,"velocity":0.5196850393700787},{"duration":0.05813953488372192,"midi":57,"time":21.988372093023255,"velocity":0.12598425196850394},{"duration":0.23255813953488413,"midi":74,"time":21.988372093023255,"velocity":0.4409448818897638},{"duration":0.011627906976745095,"midi":41,"time":22,"velocity":0.5984251968503937},{"duration":0.15116279069767558,"midi":50,"time":22,"velocity":0.4094488188976378},{"duration":0.011627906976741542,"midi":37,"time":22.011627906976745,"velocity":0.5826771653543307},{"duration":0.06976744186046346,"midi":93,"time":22.011627906976745,"velocity":0.09448818897637795},{"duration":0.011627906976745095,"midi":33,"time":22.023255813953487,"velocity":0.5590551181102362},{"duration":0.02325581395349019,"midi":31,"time":22.03488372093023,"velocity":0.5748031496062992},{"duration":0.011627906976741542,"midi":30,"time":22.058139534883722,"velocity":0.5275590551181102},{"duration":0.023255813953486637,"midi":31,"time":22.1046511627907,"velocity":0.2283464566929134},{"duration":0.05813953488372192,"midi":73,"time":22.22093023255814,"velocity":0.13385826771653545},{"duration":0.2093023255813975,"midi":76,"time":22.22093023255814,"velocity":0.41732283464566927},{"duration":0.09302325581395365,"midi":55,"time":22.232558139534884,"velocity":0.3858267716535433},{"duration":0.09302325581395365,"midi":62,"time":22.232558139534884,"velocity":0.47244094488188976},{"duration":0.09302325581395365,"midi":69,"time":22.232558139534884,"velocity":0.14173228346456693},{"duration":0.08139534883720856,"midi":78,"time":22.24418604651163,"velocity":0.10236220472440945},{"duration":0.034883720930235285,"midi":30,"time":22.25581395348837,"velocity":0.07874015748031496},{"duration":0.02325581395349019,"midi":59,"time":22.267441860465116,"velocity":0.4251968503937008},{"duration":0.02325581395349019,"midi":59,"time":22.302325581395348,"velocity":0.4330708661417323},{"duration":0.3023255813953476,"midi":77,"time":22.430232558139537,"velocity":0.4015748031496063},{"duration":0.011627906976745095,"midi":41,"time":22.441860465116278,"velocity":0.5905511811023622},{"duration":0.011627906976745095,"midi":40,"time":22.453488372093023,"velocity":0.6220472440944882},{"duration":0.011627906976745095,"midi":36,"time":22.46511627906977,"velocity":0.5826771653543307},{"duration":0.011627906976741542,"midi":32,"time":22.476744186046513,"velocity":0.5826771653543307},{"duration":0.011627906976745095,"midi":31,"time":22.488372093023255,"velocity":0.6062992125984252},{"duration":0.011627906976745095,"midi":30,"time":22.5,"velocity":0.5826771653543307},{"duration":0.011627906976741542,"midi":29,"time":22.511627906976745,"velocity":0.5196850393700787},{"duration":0.023255813953486637,"midi":30,"time":22.546511627906977,"velocity":0.33070866141732286},{"duration":0.02325581395349019,"midi":43,"time":22.569767441860463,"velocity":0.25984251968503935},{"duration":0.11627906976744384,"midi":55,"time":22.662790697674417,"velocity":0.4094488188976378},{"duration":0.09302325581395365,"midi":62,"time":22.674418604651162,"velocity":0.48031496062992124},{"duration":0.08139534883720856,"midi":71,"time":22.686046511627907,"velocity":0.15748031496062992},{"duration":0.08139534883720856,"midi":73,"time":22.686046511627907,"velocity":0.14173228346456693},{"duration":0.02325581395349019,"midi":59,"time":22.75581395348837,"velocity":0.4330708661417323},{"duration":0.023255813953486637,"midi":41,"time":22.88372093023256,"velocity":0.6299212598425197},{"duration":0.034883720930235285,"midi":57,"time":22.8953488372093,"velocity":0.13385826771653545},{"duration":0.29069767441860606,"midi":77,"time":22.8953488372093,"velocity":0.3937007874015748},{"duration":0.011627906976745095,"midi":37,"time":22.906976744186046,"velocity":0.6220472440944882},{"duration":0.11627906976744029,"midi":50,"time":22.906976744186046,"velocity":0.3543307086614173},{"duration":0.011627906976745095,"midi":33,"time":22.91860465116279,"velocity":0.5826771653543307},{"duration":0.023255813953486637,"midi":31,"time":22.930232558139537,"velocity":0.6141732283464567},{"duration":0.011627906976745095,"midi":30,"time":22.953488372093023,"velocity":0.5669291338582677},{"duration":0.11627906976744029,"midi":69,"time":23.1046511627907,"velocity":0.18110236220472442},{"duration":0.03488372093023173,"midi":101,"time":23.1046511627907,"velocity":0.1889763779527559},{"duration":0.13953488372093048,"midi":55,"time":23.11627906976744,"velocity":0.4094488188976378},{"duration":0.034883720930235285,"midi":59,"time":23.11627906976744,"velocity":0.4409448818897638},{"duration":0.12790697674418894,"midi":62,"time":23.11627906976744,"velocity":0.4566929133858268},{"duration":0.03488372093023173,"midi":73,"time":23.127906976744185,"velocity":0.07874015748031496},{"duration":0.034883720930235285,"midi":71,"time":23.162790697674417,"velocity":0.08661417322834646},{"duration":0.03488372093023173,"midi":30,"time":23.197674418604652,"velocity":0.14960629921259844},{"duration":0.011627906976741542,"midi":41,"time":23.337209302325583,"velocity":0.5590551181102362},{"duration":0.011627906976745095,"midi":40,"time":23.348837209302324,"velocity":0.5984251968503937},{"duration":0.011627906976745095,"midi":36,"time":23.36046511627907,"velocity":0.5826771653543307},{"duration":0.09302325581395365,"midi":84,"time":23.36046511627907,"velocity":0.2125984251968504},{"duration":0.011627906976745095,"midi":33,"time":23.372093023255815,"velocity":0.5669291338582677},{"duration":0.023255813953486637,"midi":31,"time":23.38372093023256,"velocity":0.5826771653543307},{"duration":0.011627906976745095,"midi":29,"time":23.406976744186046,"velocity":0.5118110236220472},{"duration":0.05813953488372192,"midi":43,"time":23.453488372093023,"velocity":0.25984251968503935},{"duration":0.023255813953486637,"midi":63,"time":23.546511627906977,"velocity":0.3858267716535433},{"duration":0.13953488372093048,"midi":55,"time":23.558139534883722,"velocity":0.3937007874015748},{"duration":0.06976744186046346,"midi":69,"time":23.558139534883722,"velocity":0.16535433070866143},{"duration":0.06976744186046346,"midi":74,"time":23.558139534883722,"velocity":0.16535433070866143},{"duration":0.15116279069767202,"midi":83,"time":23.558139534883722,"velocity":0.25196850393700787},{"duration":0.10465116279069875,"midi":71,"time":23.569767441860463,"velocity":0.12598425196850394},{"duration":0.08139534883720856,"midi":62,"time":23.58139534883721,"velocity":0.47244094488188976},{"duration":0.09302325581395365,"midi":73,"time":23.58139534883721,"velocity":0.11811023622047244},{"duration":0.02325581395349019,"midi":62,"time":23.674418604651162,"velocity":0.33858267716535434},{"duration":0.011627906976745095,"midi":42,"time":23.77906976744186,"velocity":0.5354330708661418},{"duration":0.03488372093023173,"midi":57,"time":23.77906976744186,"velocity":0.23622047244094488},{"duration":0.1860465116279073,"midi":83,"time":23.77906976744186,"velocity":0.30708661417322836},{"duration":0.011627906976741542,"midi":41,"time":23.790697674418606,"velocity":0.6535433070866141},{"duration":0.011627906976745095,"midi":37,"time":23.802325581395348,"velocity":0.6535433070866141},{"duration":0.011627906976745095,"midi":34,"time":23.813953488372093,"velocity":0.5984251968503937},{"duration":0.011627906976745095,"midi":32,"time":23.825581395348838,"velocity":0.6299212598425197},{"duration":0.011627906976741542,"midi":31,"time":23.837209302325583,"velocity":0.6377952755905512},{"duration":0.1046511627906952,"midi":50,"time":23.837209302325583,"velocity":0.3464566929133858},{"duration":0.011627906976745095,"midi":30,"time":23.848837209302324,"velocity":0.5984251968503937},{"duration":0.011627906976745095,"midi":28,"time":23.86046511627907,"velocity":0.5275590551181102},{"duration":0.11627906976744029,"midi":62,"time":24.011627906976745,"velocity":0.4566929133858268},{"duration":0.08139534883720856,"midi":69,"time":24.011627906976745,"velocity":0.1732283464566929},{"duration":0.1046511627906952,"midi":78,"time":24.011627906976745,"velocity":0.09448818897637795},{"duration":0.10465116279069875,"midi":55,"time":24.023255813953487,"velocity":0.41732283464566927},{"duration":0.02325581395349019,"midi":59,"time":24.023255813953487,"velocity":0.4251968503937008},{"duration":0.03488372093023173,"midi":42,"time":24.046511627906977,"velocity":0.07086614173228346},{"duration":0.06976744186046346,"midi":71,"time":24.046511627906977,"velocity":0.14960629921259844},{"duration":0.11627906976744029,"midi":81,"time":24.046511627906977,"velocity":0.25984251968503935},{"duration":0.02325581395349019,"midi":59,"time":24.11627906976744,"velocity":0.2440944881889764},{"duration":0.011627906976745095,"midi":41,"time":24.232558139534884,"velocity":0.5433070866141733},{"duration":0.3255813953488378,"midi":79,"time":24.232558139534884,"velocity":0.3700787401574803},{"duration":0.011627906976741542,"midi":40,"time":24.24418604651163,"velocity":0.5984251968503937},{"duration":0.011627906976745095,"midi":36,"time":24.25581395348837,"velocity":0.6062992125984252},{"duration":0.011627906976745095,"midi":33,"time":24.267441860465116,"velocity":0.5748031496062992},{"duration":0.023255813953486637,"midi":31,"time":24.27906976744186,"velocity":0.5905511811023622},{"duration":0.011627906976745095,"midi":29,"time":24.302325581395348,"velocity":0.5433070866141733},{"duration":0.02325581395349019,"midi":28,"time":24.313953488372093,"velocity":0.47244094488188976},{"duration":0.02325581395349019,"midi":43,"time":24.313953488372093,"velocity":0.25984251968503935},{"duration":0.02325581395349019,"midi":31,"time":24.348837209302324,"velocity":0.23622047244094488},{"duration":0.034883720930235285,"midi":43,"time":24.348837209302324,"velocity":0.2440944881889764},{"duration":0.12790697674418539,"midi":62,"time":24.441860465116278,"velocity":0.48031496062992124},{"duration":0.13953488372093048,"midi":55,"time":24.453488372093023,"velocity":0.4015748031496063},{"duration":0.1046511627906952,"midi":69,"time":24.46511627906977,"velocity":0.14960629921259844},{"duration":0.06976744186046346,"midi":71,"time":24.46511627906977,"velocity":0.11811023622047244},{"duration":0.09302325581395365,"midi":73,"time":24.46511627906977,"velocity":0.11811023622047244},{"duration":0.046511627906973274,"midi":31,"time":24.476744186046513,"velocity":0.1968503937007874},{"duration":0.04651162790697683,"midi":66,"time":24.488372093023255,"velocity":0.10236220472440945},{"duration":0.023255813953486637,"midi":59,"time":24.511627906976745,"velocity":0.41732283464566927},{"duration":0.04651162790697683,"midi":43,"time":24.523255813953487,"velocity":0.07086614173228346},{"duration":0.023255813953486637,"midi":59,"time":24.546511627906977,"velocity":0.41732283464566927},{"duration":0.011627906976745095,"midi":41,"time":24.686046511627907,"velocity":0.6141732283464567},{"duration":0.13953488372093048,"midi":50,"time":24.686046511627907,"velocity":0.41732283464566927},{"duration":0.33720930232557933,"midi":79,"time":24.686046511627907,"velocity":0.4015748031496063},{"duration":0.011627906976741542,"midi":38,"time":24.697674418604652,"velocity":0.6141732283464567},{"duration":0.03488372093023173,"midi":57,"time":24.697674418604652,"velocity":0.14960629921259844},{"duration":0.011627906976745095,"midi":35,"time":24.709302325581394,"velocity":0.5669291338582677},{"duration":0.011627906976745095,"midi":32,"time":24.72093023255814,"velocity":0.5905511811023622},{"duration":0.011627906976745095,"midi":31,"time":24.732558139534884,"velocity":0.5984251968503937},{"duration":0.011627906976741542,"midi":30,"time":24.74418604651163,"velocity":0.5669291338582677},{"duration":0.023255813953486637,"midi":30,"time":24.790697674418606,"velocity":0.2992125984251969},{"duration":0.16279069767441712,"midi":55,"time":24.88372093023256,"velocity":0.4015748031496063},{"duration":0.02325581395349019,"midi":63,"time":24.8953488372093,"velocity":0.4251968503937008},{"duration":0.034883720930235285,"midi":101,"time":24.8953488372093,"velocity":0.25196850393700787},{"duration":0.03488372093023173,"midi":81,"time":24.906976744186046,"velocity":0.08661417322834646},{"duration":0.09302325581395365,"midi":62,"time":24.91860465116279,"velocity":0.4645669291338583},{"duration":0.06976744186046346,"midi":66,"time":24.91860465116279,"velocity":0.13385826771653545},{"duration":0.06976744186046346,"midi":71,"time":24.91860465116279,"velocity":0.12598425196850394},{"duration":0.023255813953486637,"midi":18,"time":24.930232558139537,"velocity":0.3543307086614173},{"duration":0.06976744186046346,"midi":69,"time":24.930232558139537,"velocity":0.14960629921259844},{"duration":0.02325581395349019,"midi":59,"time":24.953488372093023,"velocity":0.41732283464566927},{"duration":0.05813953488371837,"midi":73,"time":24.96511627906977,"velocity":0.11023622047244094},{"duration":0.03488372093023173,"midi":29,"time":24.976744186046513,"velocity":0.13385826771653545},{"duration":0.034883720930235285,"midi":72,"time":25.11627906976744,"velocity":0.15748031496062992},{"duration":0.02325581395349019,"midi":41,"time":25.127906976744185,"velocity":0.6614173228346457},{"duration":0.15116279069767558,"midi":81,"time":25.13953488372093,"velocity":0.29133858267716534},{"duration":0.011627906976741542,"midi":37,"time":25.151162790697676,"velocity":0.6456692913385826},{"duration":0.011627906976745095,"midi":33,"time":25.162790697674417,"velocity":0.6141732283464567},{"duration":0.02325581395349019,"midi":31,"time":25.174418604651162,"velocity":0.6299212598425197},{"duration":0.011627906976741542,"midi":30,"time":25.197674418604652,"velocity":0.5826771653543307},{"duration":0.011627906976745095,"midi":28,"time":25.209302325581394,"velocity":0.5118110236220472},{"duration":0.02325581395349019,"midi":41,"time":25.267441860465116,"velocity":0.2440944881889764},{"duration":0.13953488372093048,"midi":81,"time":25.348837209302324,"velocity":0.28346456692913385},{"duration":0.12790697674418539,"midi":67,"time":25.36046511627907,"velocity":0.15748031496062992},{"duration":0.03488372093023173,"midi":29,"time":25.372093023255815,"velocity":0.14173228346456693},{"duration":0.13953488372093048,"midi":60,"time":25.372093023255815,"velocity":0.4645669291338583},{"duration":0.03488372093023173,"midi":57,"time":25.38372093023256,"velocity":0.4015748031496063},{"duration":0.03488372093023173,"midi":71,"time":25.41860465116279,"velocity":0.07874015748031496},{"duration":0.04651162790697683,"midi":29,"time":25.430232558139537,"velocity":0.13385826771653545},{"duration":0.03488372093023173,"midi":57,"time":25.430232558139537,"velocity":0.4094488188976378},{"duration":0.046511627906973274,"midi":53,"time":25.476744186046513,"velocity":0.3543307086614173},{"duration":0.02325581395349019,"midi":41,"time":25.569767441860463,"velocity":0.6062992125984252},{"duration":0.16279069767442067,"midi":81,"time":25.58139534883721,"velocity":0.36220472440944884},{"duration":0.011627906976745095,"midi":38,"time":25.593023255813954,"velocity":0.6220472440944882},{"duration":0.011627906976741542,"midi":36,"time":25.6046511627907,"velocity":0.5905511811023622},{"duration":0.011627906976745095,"midi":32,"time":25.61627906976744,"velocity":0.5905511811023622},{"duration":0.011627906976745095,"midi":31,"time":25.627906976744185,"velocity":0.6062992125984252},{"duration":0.09302325581395365,"midi":48,"time":25.627906976744185,"velocity":0.3700787401574803},{"duration":0.011627906976745095,"midi":30,"time":25.63953488372093,"velocity":0.5826771653543307},{"duration":0.011627906976741542,"midi":29,"time":25.651162790697676,"velocity":0.5275590551181102},{"duration":0.16279069767441712,"midi":60,"time":25.77906976744186,"velocity":0.4566929133858268},{"duration":0.03488372093023173,"midi":101,"time":25.790697674418606,"velocity":0.31496062992125984},{"duration":0.011627906976745095,"midi":28,"time":25.802325581395348,"velocity":0.5118110236220472},{"duration":0.02325581395349019,"midi":54,"time":25.802325581395348,"velocity":0.4015748031496063},{"duration":0.16279069767442067,"midi":81,"time":25.813953488372093,"velocity":0.30708661417322836},{"duration":0.023255813953486637,"midi":53,"time":25.825581395348838,"velocity":0.3779527559055118},{"duration":0.09302325581395365,"midi":67,"time":25.825581395348838,"velocity":0.14173228346456693},{"duration":0.02325581395349019,"midi":57,"time":25.86046511627907,"velocity":0.4094488188976378},{"duration":0.08139534883720856,"midi":53,"time":25.88372093023256,"velocity":0.3858267716535433},{"duration":0.011627906976745095,"midi":42,"time":26.023255813953487,"velocity":0.5433070866141733},{"duration":0.17441860465116577,"midi":81,"time":26.023255813953487,"velocity":0.28346456692913385},{"duration":0.011627906976745095,"midi":41,"time":26.03488372093023,"velocity":0.6299212598425197},{"duration":0.011627906976745095,"midi":37,"time":26.046511627906977,"velocity":0.6141732283464567},{"duration":0.011627906976741542,"midi":33,"time":26.058139534883722,"velocity":0.5669291338582677},{"duration":0.011627906976745095,"midi":32,"time":26.069767441860463,"velocity":0.5826771653543307},{"duration":0.011627906976745095,"midi":31,"time":26.08139534883721,"velocity":0.5826771653543307},{"duration":0.011627906976745095,"midi":30,"time":26.093023255813954,"velocity":0.5433070866141733},{"duration":0.02325581395349019,"midi":29,"time":26.127906976744185,"velocity":0.3543307086614173},{"duration":0.04651162790697683,"midi":41,"time":26.151162790697676,"velocity":0.25196850393700787},{"duration":0.15116279069767558,"midi":60,"time":26.25581395348837,"velocity":0.47244094488188976},{"duration":0.17441860465116577,"midi":81,"time":26.25581395348837,"velocity":0.36220472440944884},{"duration":0.09302325581395365,"midi":67,"time":26.290697674418606,"velocity":0.13385826771653545},{"duration":0.034883720930235285,"midi":30,"time":26.302325581395348,"velocity":0.08661417322834646},{"duration":0.11627906976744384,"midi":53,"time":26.313953488372093,"velocity":0.3700787401574803},{"duration":0.04651162790697683,"midi":71,"time":26.325581395348838,"velocity":0.10236220472440945},{"duration":0.03488372093023173,"midi":29,"time":26.337209302325583,"velocity":0.08661417322834646},{"duration":0.03488372093023173,"midi":64,"time":26.337209302325583,"velocity":0.09448818897637795},{"duration":0.011627906976741542,"midi":41,"time":26.476744186046513,"velocity":0.6220472440944882},{"duration":0.03488372093023173,"midi":57,"time":26.476744186046513,"velocity":0.14173228346456693},{"duration":0.22093023255813904,"midi":81,"time":26.476744186046513,"velocity":0.36220472440944884},{"duration":0.011627906976745095,"midi":40,"time":26.488372093023255,"velocity":0.6456692913385826},{"duration":0.011627906976745095,"midi":36,"time":26.5,"velocity":0.6220472440944882},{"duration":0.011627906976741542,"midi":32,"time":26.511627906976745,"velocity":0.6220472440944882},{"duration":0.011627906976745095,"midi":31,"time":26.523255813953487,"velocity":0.6299212598425197},{"duration":0.011627906976745095,"midi":30,"time":26.53488372093023,"velocity":0.6141732283464567},{"duration":0.09302325581395365,"midi":48,"time":26.53488372093023,"velocity":0.33858267716535434},{"duration":0.011627906976745095,"midi":29,"time":26.546511627906977,"velocity":0.5511811023622047},{"duration":0.023255813953486637,"midi":31,"time":26.593023255813954,"velocity":0.25196850393700787},{"duration":0.023255813953486637,"midi":61,"time":26.686046511627907,"velocity":0.36220472440944884},{"duration":0.1046511627906952,"midi":53,"time":26.697674418604652,"velocity":0.3779527559055118},{"duration":0.023255813953486637,"midi":82,"time":26.697674418604652,"velocity":0.23622047244094488},{"duration":0.02325581395349019,"midi":57,"time":26.72093023255814,"velocity":0.4015748031496063},{"duration":0.12790697674418539,"midi":60,"time":26.72093023255814,"velocity":0.47244094488188976},{"duration":0.1976744186046524,"midi":83,"time":26.72093023255814,"velocity":0.25196850393700787},{"duration":0.04651162790697683,"midi":64,"time":26.732558139534884,"velocity":0.10236220472440945},{"duration":0.09302325581395365,"midi":67,"time":26.74418604651163,"velocity":0.14960629921259844},{"duration":0.04651162790697683,"midi":53,"time":26.813953488372093,"velocity":0.3700787401574803},{"duration":0.03488372093023173,"midi":41,"time":26.906976744186046,"velocity":0.6141732283464567},{"duration":0.04651162790697683,"midi":57,"time":26.91860465116279,"velocity":0.1968503937007874},{"duration":0.023255813953486637,"midi":82,"time":26.91860465116279,"velocity":0.29133858267716534},{"duration":0.011627906976745095,"midi":37,"time":26.941860465116278,"velocity":0.6220472440944882},{"duration":0.44186046511628163,"midi":81,"time":26.941860465116278,"velocity":0.3543307086614173},{"duration":0.011627906976745095,"midi":33,"time":26.953488372093023,"velocity":0.5826771653543307},{"duration":0.011627906976745095,"midi":32,"time":26.96511627906977,"velocity":0.6062992125984252},{"duration":0.011627906976741542,"midi":31,"time":26.976744186046513,"velocity":0.6141732283464567},{"duration":0.011627906976745095,"midi":30,"time":26.988372093023255,"velocity":0.5748031496062992},{"duration":0.011627906976745095,"midi":28,"time":27,"velocity":0.5118110236220472},{"duration":0.023255813953486637,"midi":61,"time":27.13953488372093,"velocity":0.4094488188976378},{"duration":0.12790697674418539,"midi":67,"time":27.151162790697676,"velocity":0.1889763779527559},{"duration":0.13953488372093048,"midi":60,"time":27.162790697674417,"velocity":0.4645669291338583},{"duration":0.03488372093023173,"midi":71,"time":27.174418604651162,"velocity":0.07086614173228346},{"duration":0.08139534883720856,"midi":64,"time":27.186046511627907,"velocity":0.09448818897637795},{"duration":0.03488372093023173,"midi":29,"time":27.197674418604652,"velocity":0.14960629921259844},{"duration":0.03488372093023173,"midi":57,"time":27.197674418604652,"velocity":0.4251968503937008},{"duration":0.05813953488372192,"midi":53,"time":27.22093023255814,"velocity":0.3700787401574803},{"duration":0.011627906976745095,"midi":41,"time":27.372093023255815,"velocity":0.5984251968503937},{"duration":0.40697674418604635,"midi":79,"time":27.372093023255815,"velocity":0.3858267716535433},{"duration":0.011627906976741542,"midi":40,"time":27.38372093023256,"velocity":0.6377952755905512},{"duration":0.011627906976745095,"midi":36,"time":27.3953488372093,"velocity":0.6141732283464567},{"duration":0.011627906976745095,"midi":33,"time":27.406976744186046,"velocity":0.5984251968503937},{"duration":0.011627906976745095,"midi":31,"time":27.41860465116279,"velocity":0.6220472440944882},{"duration":0.011627906976741542,"midi":30,"time":27.430232558139537,"velocity":0.6141732283464567},{"duration":0.011627906976745095,"midi":29,"time":27.441860465116278,"velocity":0.5590551181102362},{"duration":0.08139534883720856,"midi":48,"time":27.441860465116278,"velocity":0.33070866141732286},{"duration":0.02325581395349019,"midi":28,"time":27.453488372093023,"velocity":0.48031496062992124},{"duration":0.02325581395349019,"midi":58,"time":27.58139534883721,"velocity":0.41732283464566927},{"duration":0.03488372093023173,"midi":69,"time":27.58139534883721,"velocity":0.16535433070866143},{"duration":0.03488372093023173,"midi":101,"time":27.58139534883721,"velocity":0.31496062992125984},{"duration":0.12790697674418539,"midi":76,"time":27.593023255813954,"velocity":0.09448818897637795},{"duration":0.15116279069767202,"midi":60,"time":27.6046511627907,"velocity":0.48031496062992124},{"duration":0.02325581395349019,"midi":19,"time":27.61627906976744,"velocity":0.4094488188976378},{"duration":0.02325581395349019,"midi":53,"time":27.61627906976744,"velocity":0.3700787401574803},{"duration":0.06976744186046702,"midi":64,"time":27.627906976744185,"velocity":0.10236220472440945},{"duration":0.05813953488371837,"midi":71,"time":27.651162790697676,"velocity":0.09448818897637795},{"duration":0.03488372093023173,"midi":53,"time":27.72093023255814,"velocity":0.33070866141732286},{"duration":0.39534883720930125,"midi":77,"time":27.813953488372093,"velocity":0.4094488188976378},{"duration":0.011627906976745095,"midi":41,"time":27.825581395348838,"velocity":0.6141732283464567},{"duration":0.011627906976741542,"midi":38,"time":27.837209302325583,"velocity":0.6141732283464567},{"duration":0.011627906976745095,"midi":34,"time":27.848837209302324,"velocity":0.5354330708661418},{"duration":0.011627906976745095,"midi":32,"time":27.86046511627907,"velocity":0.5590551181102362},{"duration":0.011627906976745095,"midi":31,"time":27.872093023255815,"velocity":0.5748031496062992},{"duration":0.011627906976741542,"midi":30,"time":27.88372093023256,"velocity":0.5511811023622047},{"duration":0.04651162790697683,"midi":41,"time":27.941860465116278,"velocity":0.25984251968503935},{"duration":0.16279069767442067,"midi":60,"time":28.03488372093023,"velocity":0.4645669291338583},{"duration":0.03488372093023173,"midi":101,"time":28.03488372093023,"velocity":0.1889763779527559},{"duration":0.03488372093023173,"midi":79,"time":28.046511627906977,"velocity":0.07086614173228346},{"duration":0.04651162790697683,"midi":53,"time":28.058139534883722,"velocity":0.36220472440944884},{"duration":0.02325581395349019,"midi":19,"time":28.069767441860463,"velocity":0.28346456692913385},{"duration":0.06976744186046702,"midi":57,"time":28.08139534883721,"velocity":0.4251968503937008},{"duration":0.04651162790697683,"midi":41,"time":28.093023255813954,"velocity":0.12598425196850394},{"duration":0.03488372093023173,"midi":67,"time":28.13953488372093,"velocity":0.08661417322834646},{"duration":0.04651162790697683,"midi":53,"time":28.162790697674417,"velocity":0.3779527559055118},{"duration":0.02325581395349019,"midi":41,"time":28.267441860465116,"velocity":0.5275590551181102},{"duration":0.3837209302325597,"midi":76,"time":28.267441860465116,"velocity":0.41732283464566927},{"duration":0.011627906976741542,"midi":37,"time":28.290697674418606,"velocity":0.5196850393700787},{"duration":0.12790697674418894,"midi":48,"time":28.302325581395348,"velocity":0.3700787401574803},{"duration":0.02325581395349019,"midi":31,"time":28.313953488372093,"velocity":0.5039370078740157},{"duration":0.023255813953486637,"midi":56,"time":28.476744186046513,"velocity":0.3779527559055118},{"duration":0.11627906976744029,"midi":57,"time":28.5,"velocity":0.4251968503937008},{"duration":0.13953488372093048,"midi":60,"time":28.5,"velocity":0.4566929133858268},{"duration":0.1046511627906952,"midi":53,"time":28.511627906976745,"velocity":0.3937007874015748},{"duration":0.08139534883721211,"midi":71,"time":28.523255813953487,"velocity":0.10236220472440945}]}]}
