{"tracks":[{"instrument":{"family":"piano","number":0,"name":"acoustic grand piano"},"notes":[]},{"instrument":{"family":"reed","number":66,"name":"tenor sax"},"notes":[{"duration":0.3353652499999997,"midi":67,"time":5.6554776250000005,"velocity":1},{"duration":0.45731624999999987,"midi":67,"time":6.0365745,"velocity":1},{"duration":0.26676781250000037,"midi":67,"time":6.5624881875000005,"velocity":1},{"duration":0.20579231249999985,"midi":67,"time":6.897853437500001,"velocity":1},{"duration":0.7850595624999999,"midi":65,"time":7.103645750000001,"velocity":1},{"duration":0.18292649999999888,"midi":65,"time":8.025900187500001,"velocity":1},{"duration":0.42682850000000094,"midi":64,"time":8.185960875000001,"velocity":1},{"duration":0.3887188125000005,"midi":65,"time":8.589923562500001,"velocity":1},{"duration":0.20579231249999985,"midi":62,"time":8.978642375000002,"velocity":1},{"duration":0.1143290625000013,"midi":60,"time":9.0015081875,"velocity":1},{"duration":0.1600606874999997,"midi":62,"time":9.314007625,"velocity":1},{"duration":0.32012137500000115,"midi":65,"time":9.4740683125,"velocity":1},{"duration":0.3353652500000006,"midi":65,"time":9.839921312500001,"velocity":1},{"duration":0.678352437500001,"midi":67,"time":10.198152375000001,"velocity":1},{"duration":0.18292649999999888,"midi":67,"time":10.967968062500002,"velocity":1},{"duration":0.38871881249999873,"midi":65,"time":11.143272625000002,"velocity":1},{"duration":0.3582310625000016,"midi":68,"time":11.5319914375,"velocity":1},{"duration":0.884144749999999,"midi":67,"time":11.890222500000002,"velocity":1},{"duration":0.18292649999999888,"midi":65,"time":12.774367250000001,"velocity":1},{"duration":1.288107437499999,"midi":64,"time":12.949671812500002,"velocity":1},{"duration":0.2515239375,"midi":65,"time":14.2149134375,"velocity":1},{"duration":0.5640233750000014,"midi":67,"time":14.420705750000002,"velocity":1},{"duration":0.4039626874999982,"midi":65,"time":14.938997500000003,"velocity":1},{"duration":0.3658530000000013,"midi":64,"time":15.342960187500001,"velocity":1},{"duration":0.31249943749999964,"midi":67,"time":15.685947375000001,"velocity":1},{"duration":0.1600606874999997,"midi":67,"time":16.067044250000002,"velocity":1},{"duration":0.1600606874999997,"midi":68,"time":16.227104937500002,"velocity":1},{"duration":0.22865812499999905,"midi":67,"time":16.387165625,"velocity":1},{"duration":0.7850595625000025,"midi":65,"time":16.5929579375,"velocity":1},{"duration":0.2972555624999984,"midi":64,"time":17.378017500000002,"velocity":1},{"duration":0.5182917499999995,"midi":64,"time":17.721004687500002,"velocity":1},{"duration":0.3124994375000014,"midi":67,"time":18.239296437500002,"velocity":1},{"duration":0.20579231250000163,"midi":67,"time":18.5975275,"velocity":1},{"duration":0.8155473125000015,"midi":65,"time":18.780454000000002,"velocity":1},{"duration":0.22865812499999905,"midi":65,"time":19.72557425,"velocity":1},{"duration":0.4115846249999997,"midi":64,"time":19.931366562500003,"velocity":1},{"duration":0.35823106250000336,"midi":65,"time":20.320085375,"velocity":1},{"duration":0.2972555624999984,"midi":60,"time":20.678316437500005,"velocity":1},{"duration":0.15243874999999818,"midi":60,"time":21.067035250000004,"velocity":1},{"duration":0.3201213749999994,"midi":65,"time":21.219474,"velocity":1},{"duration":0.2896336249999969,"midi":65,"time":21.585327000000003,"velocity":1},{"duration":0.6783524375000027,"midi":67,"time":21.8978264375,"velocity":1},{"duration":0.20579231249999808,"midi":67,"time":22.690507937500005,"velocity":1},{"duration":0.35823106249999626,"midi":65,"time":22.850568625000005,"velocity":1},{"duration":0.34298718750000035,"midi":68,"time":23.2087996875,"velocity":1},{"duration":0.9679860624999996,"midi":67,"time":23.551786875,"velocity":1},{"duration":0.18292650000000066,"midi":65,"time":24.496907125,"velocity":1},{"duration":1.2347538750000027,"midi":64,"time":24.6569678125,"velocity":1},{"duration":0.20579231250000163,"midi":65,"time":25.9374533125,"velocity":1},{"duration":0.5411575625000005,"midi":67,"time":26.143245625000002,"velocity":1},{"duration":0.3887188125000023,"midi":65,"time":26.661537375,"velocity":1},{"duration":0.3810968750000008,"midi":64,"time":27.050256187500004,"velocity":1},{"duration":0.3201213749999994,"midi":67,"time":27.431353062500005,"velocity":1},{"duration":0.13719487499999872,"midi":67,"time":27.812449937500002,"velocity":1},{"duration":0.1600606874999997,"midi":68,"time":27.9496448125,"velocity":1},{"duration":0.22865812499999905,"midi":67,"time":28.1325713125,"velocity":1},{"duration":0.7469498749999985,"midi":65,"time":28.338363625000003,"velocity":1},{"duration":0.24390200000000206,"midi":67,"time":29.108179312500003,"velocity":1},{"duration":0.5182917499999959,"midi":67,"time":29.466410375000006,"velocity":1},{"duration":0.3201213749999994,"midi":64,"time":29.9618363125,"velocity":1},{"duration":0.1829264999999971,"midi":64,"time":30.350555125000003,"velocity":1},{"duration":0.8841447500000044,"midi":65,"time":30.525859687500002,"velocity":1},{"duration":0.3353652500000024,"midi":67,"time":40.777365625,"velocity":1},{"duration":0.4573162499999981,"midi":67,"time":41.158462500000006,"velocity":1},{"duration":0.2667678124999995,"midi":67,"time":41.68437618750001,"velocity":1},{"duration":0.20579231249999452,"midi":67,"time":42.01974143750001,"velocity":1},{"duration":0.7850595625000025,"midi":65,"time":42.225533750000004,"velocity":1},{"duration":0.18292650000000066,"midi":65,"time":43.147788187500005,"velocity":1},{"duration":0.42682849999999917,"midi":64,"time":43.307848875000005,"velocity":1},{"duration":0.3887188125000023,"midi":65,"time":43.7118115625,"velocity":1},{"duration":0.20579231250000163,"midi":62,"time":44.100530375000005,"velocity":1},{"duration":0.11432906249999775,"midi":60,"time":44.123396187500006,"velocity":1},{"duration":0.1600606874999997,"midi":62,"time":44.435895625,"velocity":1},{"duration":0.3201213749999994,"midi":65,"time":44.5959563125,"velocity":1},{"duration":0.3353652500000024,"midi":65,"time":44.9618093125,"velocity":1},{"duration":0.6783524375000027,"midi":67,"time":45.320040375000005,"velocity":1},{"duration":0.18292650000000066,"midi":67,"time":46.089856062500004,"velocity":1},{"duration":0.3887188125000023,"midi":65,"time":46.265160625,"velocity":1},{"duration":0.35823106250000336,"midi":68,"time":46.6538794375,"velocity":1},{"duration":0.8841447499999973,"midi":67,"time":47.012110500000006,"velocity":1},{"duration":0.18292650000000066,"midi":65,"time":47.89625525,"velocity":1},{"duration":1.2881074374999955,"midi":64,"time":48.071559812500006,"velocity":1},{"duration":0.25152393750000357,"midi":65,"time":49.3368014375,"velocity":1},{"duration":0.564023375000005,"midi":67,"time":49.54259375,"velocity":1},{"duration":0.4039626874999911,"midi":65,"time":50.06088550000001,"velocity":1},{"duration":0.3658530000000013,"midi":64,"time":50.4648481875,"velocity":1},{"duration":0.3124994375000014,"midi":67,"time":50.807835375,"velocity":1},{"duration":0.1600606874999997,"midi":67,"time":51.18893225,"velocity":1},{"duration":0.1600606874999997,"midi":68,"time":51.3489929375,"velocity":1},{"duration":0.2286581250000026,"midi":67,"time":51.509053625,"velocity":1},{"duration":0.7850595625000025,"midi":65,"time":51.7148459375,"velocity":1},{"duration":0.2972555624999984,"midi":64,"time":52.499905500000004,"velocity":1},{"duration":0.5182917499999959,"midi":64,"time":52.842892687500004,"velocity":1},{"duration":0.3124994375000085,"midi":67,"time":53.3611844375,"velocity":1},{"duration":0.20579231250000163,"midi":67,"time":53.71941550000001,"velocity":1},{"duration":0.8155473124999943,"midi":65,"time":53.90234200000001,"velocity":1},{"duration":0.2286581250000026,"midi":65,"time":54.84746225,"velocity":1},{"duration":0.41158462500000326,"midi":64,"time":55.0532545625,"velocity":1},{"duration":0.35823106250000336,"midi":65,"time":55.441973375,"velocity":1},{"duration":0.2972555625000055,"midi":60,"time":55.80020443750001,"velocity":1},{"duration":0.15243874999999463,"midi":60,"time":56.18892325000001,"velocity":1},{"duration":0.3201213749999994,"midi":65,"time":56.341362000000004,"velocity":1},{"duration":0.28963362500000045,"midi":65,"time":56.707215000000005,"velocity":1},{"duration":0.6783524375000098,"midi":67,"time":57.0197144375,"velocity":1},{"duration":0.20579231250000163,"midi":67,"time":57.81239593750001,"velocity":1},{"duration":0.35823106249999626,"midi":65,"time":57.97245662500001,"velocity":1},{"duration":0.34298718750000035,"midi":68,"time":58.3306876875,"velocity":1},{"duration":0.9679860625000032,"midi":67,"time":58.673674875,"velocity":1},{"duration":0.18292650000000066,"midi":65,"time":59.61879512500001,"velocity":1},{"duration":1.2347538749999956,"midi":64,"time":59.77885581250001,"velocity":1},{"duration":0.20579231250000163,"midi":65,"time":61.05934131250001,"velocity":1},{"duration":0.5411575624999969,"midi":67,"time":61.26513362500001,"velocity":1},{"duration":0.3887188125000023,"midi":65,"time":61.78342537500001,"velocity":1},{"duration":0.3810968749999901,"midi":64,"time":62.17214418750001,"velocity":1},{"duration":0.3201213750000065,"midi":67,"time":62.5532410625,"velocity":1},{"duration":0.13719487499999872,"midi":67,"time":62.93433793750001,"velocity":1},{"duration":0.1600606874999997,"midi":68,"time":63.07153281250001,"velocity":1},{"duration":0.2286581250000026,"midi":67,"time":63.25445931250001,"velocity":1},{"duration":0.7469498749999985,"midi":65,"time":63.46025162500001,"velocity":1},{"duration":0.2439019999999914,"midi":67,"time":64.23006731250001,"velocity":1},{"duration":0.518291750000003,"midi":67,"time":64.58829837500001,"velocity":1},{"duration":0.3201213749999994,"midi":64,"time":65.08372431250001,"velocity":1},{"duration":0.18292649999999355,"midi":64,"time":65.47244312500001,"velocity":1},{"duration":0.8841447500000044,"midi":65,"time":65.6477476875,"velocity":1},{"duration":0.3353652499999953,"midi":67,"time":75.89925362500001,"velocity":1},{"duration":0.457316249999991,"midi":67,"time":76.28035050000001,"velocity":1},{"duration":0.2667678124999924,"midi":67,"time":76.8062641875,"velocity":1},{"duration":0.20579231250000873,"midi":67,"time":77.1416294375,"velocity":1},{"duration":0.7850595624999954,"midi":65,"time":77.34742175000001,"velocity":1}]},{"instrument":{"family":"piano","number":0,"name":"acoustic grand piano"},"notes":[]},{"instrument":{"family":"reed","number":65,"name":"alto sax"},"notes":[{"duration":0.28963362500000045,"midi":70,"time":5.670721500000001,"velocity":1},{"duration":0.45731625000000076,"midi":70,"time":6.028952562500001,"velocity":1},{"duration":0.22865812499999993,"midi":70,"time":6.61584175,"velocity":1},{"duration":0.20579231249999985,"midi":70,"time":6.935963125000001,"velocity":1},{"duration":0.7850595625000008,"midi":68,"time":7.1417554375000005,"velocity":1},{"duration":0.20579231249999985,"midi":68,"time":8.018278250000002,"velocity":1},{"duration":0.36585299999999954,"midi":67,"time":8.224070562500001,"velocity":1},{"duration":0.36585299999999954,"midi":68,"time":8.582301625000001,"velocity":1},{"duration":0.22865812500000082,"midi":65,"time":8.9710204375,"velocity":1},{"duration":0.16006068750000146,"midi":60,"time":9.17681275,"velocity":1},{"duration":0.18292649999999888,"midi":65,"time":9.329251500000002,"velocity":1},{"duration":0.34298718750000035,"midi":68,"time":9.489312187500001,"velocity":1},{"duration":0.3353652500000006,"midi":72,"time":9.8551651875,"velocity":1},{"duration":0.655486625,"midi":70,"time":10.190530437500001,"velocity":1},{"duration":0.20579231249999985,"midi":70,"time":10.9146145,"velocity":1},{"duration":0.3353652500000006,"midi":68,"time":11.1204068125,"velocity":1},{"duration":0.3658530000000013,"midi":72,"time":11.478637875,"velocity":1},{"duration":0.1600606874999997,"midi":70,"time":11.8216250625,"velocity":1},{"duration":0.5182917499999995,"midi":70,"time":12.027417375,"velocity":1},{"duration":0.1753045625000027,"midi":70,"time":12.59144075,"velocity":1},{"duration":0.20579231249999985,"midi":68,"time":12.743879500000002,"velocity":1},{"duration":1.2195099999999996,"midi":70,"time":12.949671812500002,"velocity":1},{"duration":0.22865812500000082,"midi":70,"time":14.2149134375,"velocity":1},{"duration":0.5487795000000002,"midi":72,"time":14.435949625000003,"velocity":1},{"duration":0.381096874999999,"midi":70,"time":14.961863312500002,"velocity":1},{"duration":0.3887188125000005,"midi":68,"time":15.320094375000002,"velocity":1},{"duration":0.2972555625000002,"midi":67,"time":15.70119125,"velocity":1},{"duration":0.20579231249999808,"midi":67,"time":16.067044250000002,"velocity":1},{"duration":0.20579231250000163,"midi":68,"time":16.24997075,"velocity":1},{"duration":0.20579231250000163,"midi":67,"time":16.4024095,"velocity":1},{"duration":0.7698156874999995,"midi":65,"time":16.608201812500003,"velocity":1},{"duration":0.04573162499999839,"midi":70,"time":17.469480750000002,"velocity":1},{"duration":0.4344504375000007,"midi":70,"time":17.804846,"velocity":1},{"duration":0.28963362500000045,"midi":70,"time":18.307893875,"velocity":1},{"duration":0.20579231249999808,"midi":70,"time":18.643259125000004,"velocity":1},{"duration":0.7850595624999954,"midi":68,"time":18.826185625000004,"velocity":1},{"duration":0.22865812499999905,"midi":68,"time":19.72557425,"velocity":1},{"duration":0.3810968750000008,"midi":67,"time":19.931366562500003,"velocity":1},{"duration":0.3201213749999994,"midi":68,"time":20.312463437500003,"velocity":1},{"duration":0.20579231249999808,"midi":65,"time":20.655450625000004,"velocity":1},{"duration":0.18292650000000066,"midi":60,"time":20.830755187500003,"velocity":1},{"duration":0.22865812499999905,"midi":65,"time":20.990815875000003,"velocity":1},{"duration":0.3658530000000013,"midi":68,"time":21.1966081875,"velocity":1},{"duration":0.3582310624999998,"midi":72,"time":21.562461187500002,"velocity":1},{"duration":0.6554866250000018,"midi":70,"time":21.920692250000002,"velocity":1},{"duration":0.22865812499999905,"midi":70,"time":22.644776312500003,"velocity":1},{"duration":0.36585299999999776,"midi":68,"time":22.842946687500003,"velocity":1},{"duration":0.3658530000000013,"midi":72,"time":23.2087996875,"velocity":1},{"duration":0.1600606874999997,"midi":70,"time":23.544164937500003,"velocity":1},{"duration":0.5182917499999959,"midi":70,"time":23.749957250000005,"velocity":1},{"duration":0.18292650000000066,"midi":70,"time":24.313980625,"velocity":1},{"duration":0.22865812499999905,"midi":68,"time":24.474041312500002,"velocity":1},{"duration":1.2881074375000026,"midi":70,"time":24.679833625,"velocity":1},{"duration":0.18292650000000066,"midi":73,"time":25.960319125,"velocity":1},{"duration":0.5411575625000005,"midi":72,"time":26.143245625000002,"velocity":1},{"duration":0.3887188125000023,"midi":70,"time":26.661537375,"velocity":1},{"duration":0.3353652500000024,"midi":68,"time":27.050256187500004,"velocity":1},{"duration":0.36585299999999776,"midi":67,"time":27.385621437500006,"velocity":1},{"duration":0.19817037499999657,"midi":67,"time":27.797206062500006,"velocity":1},{"duration":0.18292650000000066,"midi":68,"time":27.972510625,"velocity":1},{"duration":0.20579231249999808,"midi":67,"time":28.155437125000002,"velocity":1},{"duration":0.7240840625000011,"midi":65,"time":28.338363625000003,"velocity":1},{"duration":0.3353652500000024,"midi":70,"time":29.062447687500004,"velocity":1},{"duration":0.47256012499999756,"midi":70,"time":29.443544562500005,"velocity":1},{"duration":0.2972555624999984,"midi":70,"time":29.984702125000002,"velocity":1},{"duration":0.19817037500000012,"midi":70,"time":30.327689312500002,"velocity":1},{"duration":0.7469498749999985,"midi":68,"time":30.502993875000005,"velocity":1},{"duration":0.28963362500000045,"midi":70,"time":40.792609500000005,"velocity":1},{"duration":0.4573162499999981,"midi":70,"time":41.15084056250001,"velocity":1},{"duration":0.2286581250000026,"midi":70,"time":41.73772975,"velocity":1},{"duration":0.20579231249999452,"midi":70,"time":42.057851125000006,"velocity":1},{"duration":0.7850595625000025,"midi":68,"time":42.2636434375,"velocity":1},{"duration":0.20579231250000163,"midi":68,"time":43.14016625000001,"velocity":1},{"duration":0.3658529999999942,"midi":67,"time":43.34595856250001,"velocity":1},{"duration":0.3658530000000013,"midi":68,"time":43.704189625000005,"velocity":1},{"duration":0.2286581250000026,"midi":65,"time":44.0929084375,"velocity":1},{"duration":0.1600606874999997,"midi":60,"time":44.29870075,"velocity":1},{"duration":0.18292650000000066,"midi":65,"time":44.451139500000004,"velocity":1},{"duration":0.34298718750000035,"midi":68,"time":44.6112001875,"velocity":1},{"duration":0.3353652500000024,"midi":72,"time":44.977053187500005,"velocity":1},{"duration":0.6554866249999947,"midi":70,"time":45.31241843750001,"velocity":1},{"duration":0.20579231250000163,"midi":70,"time":46.036502500000005,"velocity":1},{"duration":0.3353652499999953,"midi":68,"time":46.242294812500006,"velocity":1},{"duration":0.3658530000000013,"midi":72,"time":46.600525875,"velocity":1},{"duration":0.1600606874999997,"midi":70,"time":46.9435130625,"velocity":1},{"duration":0.5182917499999959,"midi":70,"time":47.149305375000004,"velocity":1},{"duration":0.1753045625000098,"midi":70,"time":47.71332875,"velocity":1},{"duration":0.20579231249999452,"midi":68,"time":47.86576750000001,"velocity":1},{"duration":1.2195099999999996,"midi":70,"time":48.071559812500006,"velocity":1},{"duration":0.2286581250000026,"midi":70,"time":49.3368014375,"velocity":1},{"duration":0.5487794999999949,"midi":72,"time":49.55783762500001,"velocity":1},{"duration":0.3810968749999972,"midi":70,"time":50.083751312500006,"velocity":1},{"duration":0.3887188125000023,"midi":68,"time":50.441982375,"velocity":1},{"duration":0.2972555625000055,"midi":67,"time":50.82307925,"velocity":1},{"duration":0.20579231250000163,"midi":67,"time":51.18893225,"velocity":1},{"duration":0.20579231250000163,"midi":68,"time":51.37185875,"velocity":1},{"duration":0.20579231250000163,"midi":67,"time":51.52429750000001,"velocity":1},{"duration":0.7698156874999924,"midi":65,"time":51.73008981250001,"velocity":1},{"duration":0.045731624999994835,"midi":70,"time":52.59136875000001,"velocity":1},{"duration":0.4344504374999971,"midi":70,"time":52.926734,"velocity":1},{"duration":0.28963362500000756,"midi":70,"time":53.429781875,"velocity":1},{"duration":0.20579231250000163,"midi":70,"time":53.765147125000006,"velocity":1},{"duration":0.7850595624999954,"midi":68,"time":53.948073625000006,"velocity":1},{"duration":0.2286581250000026,"midi":68,"time":54.84746225,"velocity":1},{"duration":0.38109687500001144,"midi":67,"time":55.0532545625,"velocity":1},{"duration":0.3201213749999994,"midi":68,"time":55.43435143750001,"velocity":1},{"duration":0.20579231249999452,"midi":65,"time":55.77733862500001,"velocity":1},{"duration":0.18292650000000066,"midi":60,"time":55.95264318750001,"velocity":1},{"duration":0.2286581249999955,"midi":65,"time":56.11270387500001,"velocity":1},{"duration":0.3658530000000013,"midi":68,"time":56.3184961875,"velocity":1},{"duration":0.35823106249999626,"midi":72,"time":56.684349187500004,"velocity":1},{"duration":0.6554866250000089,"midi":70,"time":57.04258025,"velocity":1},{"duration":0.2286581249999955,"midi":70,"time":57.76666431250001,"velocity":1},{"duration":0.3658529999999942,"midi":68,"time":57.96483468750001,"velocity":1},{"duration":0.3658530000000013,"midi":72,"time":58.3306876875,"velocity":1},{"duration":0.1600606874999997,"midi":70,"time":58.666052937500005,"velocity":1},{"duration":0.5182917500000102,"midi":70,"time":58.87184525,"velocity":1},{"duration":0.18292650000000066,"midi":70,"time":59.43586862500001,"velocity":1},{"duration":0.2286581249999955,"midi":68,"time":59.59592931250001,"velocity":1},{"duration":1.2881074374999884,"midi":70,"time":59.80172162500001,"velocity":1},{"duration":0.18292650000000066,"midi":73,"time":61.08220712500001,"velocity":1},{"duration":0.5411575624999969,"midi":72,"time":61.26513362500001,"velocity":1},{"duration":0.3887188125000023,"midi":70,"time":61.78342537500001,"velocity":1},{"duration":0.3353652499999953,"midi":68,"time":62.17214418750001,"velocity":1},{"duration":0.3658530000000013,"midi":67,"time":62.507509437500005,"velocity":1},{"duration":0.19817037500001078,"midi":67,"time":62.9190940625,"velocity":1},{"duration":0.18292650000000066,"midi":68,"time":63.09439862500001,"velocity":1},{"duration":0.20579231250000163,"midi":67,"time":63.27732512500001,"velocity":1},{"duration":0.7240840624999976,"midi":65,"time":63.46025162500001,"velocity":1},{"duration":0.3353652499999953,"midi":70,"time":64.18433568750001,"velocity":1},{"duration":0.4725601250000011,"midi":70,"time":64.5654325625,"velocity":1},{"duration":0.2972555624999984,"midi":70,"time":65.10659012500001,"velocity":1},{"duration":0.19817037499998946,"midi":70,"time":65.44957731250001,"velocity":1},{"duration":0.7469498749999843,"midi":68,"time":65.62488187500001,"velocity":1},{"duration":0.28963362499999334,"midi":70,"time":75.91449750000001,"velocity":1},{"duration":0.4573162500000052,"midi":70,"time":76.2727285625,"velocity":1},{"duration":0.2286581249999955,"midi":70,"time":76.85961775000001,"velocity":1},{"duration":0.20579231249999452,"midi":70,"time":77.17973912500001,"velocity":1},{"duration":0.7850595624999954,"midi":68,"time":77.3855314375,"velocity":1}]},{"instrument":{"family":"piano","number":0,"name":"acoustic grand piano"},"notes":[]},{"instrument":{"family":"strings","number":45,"name":"pizzicato strings"},"notes":[{"duration":0.38109687500000006,"midi":48,"time":0,"velocity":1},{"duration":0.411584625,"midi":53,"time":0.38109687500000006,"velocity":1},{"duration":0.10670712500000012,"midi":48,"time":0.746949875,"velocity":1},{"duration":0.16006068750000013,"midi":48,"time":0.9222544375000001,"velocity":1},{"duration":0.3429871874999999,"midi":53,"time":1.0823151250000003,"velocity":1},{"duration":0.11432906249999975,"midi":48,"time":1.4481681250000003,"velocity":1},{"duration":0.16006068750000013,"midi":48,"time":1.6463385000000001,"velocity":1},{"duration":0.1829265,"midi":53,"time":1.8063991875000003,"velocity":1},{"duration":0.22865812500000016,"midi":48,"time":1.9664598750000002,"velocity":1},{"duration":0.2057923125000003,"midi":48,"time":2.3475567500000003,"velocity":1},{"duration":0.1600606874999997,"midi":53,"time":2.5304832500000005,"velocity":1},{"duration":0.1600606874999997,"midi":48,"time":2.7820071875000005,"velocity":1},{"duration":0.1600606874999997,"midi":41,"time":2.9649336875000003,"velocity":1},{"duration":0.2972555625000002,"midi":53,"time":3.3002989375000005,"velocity":1},{"duration":0.11432906249999997,"midi":48,"time":3.6204203125000007,"velocity":1},{"duration":0.20579231249999985,"midi":48,"time":3.7957248750000003,"velocity":1},{"duration":0.2972555625000002,"midi":53,"time":4.0015171875,"velocity":1},{"duration":0.09146325000000033,"midi":48,"time":4.3445043750000005,"velocity":1},{"duration":0.17530456250000004,"midi":48,"time":4.527430875,"velocity":1},{"duration":0.1371948749999996,"midi":53,"time":4.7027354375,"velocity":1},{"duration":0.20579231250000074,"midi":48,"time":4.862796125,"velocity":1},{"duration":0.17530456250000004,"midi":48,"time":5.2515149375000005,"velocity":1},{"duration":0.1371948750000005,"midi":53,"time":5.426819500000001,"velocity":1},{"duration":0.09146324999999944,"midi":48,"time":5.586880187500001,"velocity":1},{"duration":0.3353652499999997,"midi":48,"time":5.792672500000001,"velocity":1},{"duration":0.36585299999999954,"midi":53,"time":6.128037750000001,"velocity":1},{"duration":0.3810968750000008,"midi":48,"time":6.49389075,"velocity":1},{"duration":0.3887188125000005,"midi":53,"time":6.874987625000001,"velocity":1},{"duration":0.381096874999999,"midi":48,"time":7.263706437500002,"velocity":1},{"duration":0.3887188124999996,"midi":53,"time":7.6219375000000005,"velocity":1},{"duration":0.40396268750000086,"midi":48,"time":7.9877905,"velocity":1},{"duration":0.18292649999999888,"midi":53,"time":8.368887375000002,"velocity":1},{"duration":0.24390200000000029,"midi":48,"time":8.551813875,"velocity":1},{"duration":0.18292650000000066,"midi":48,"time":8.932910750000001,"velocity":1},{"duration":0.1600606874999997,"midi":53,"time":9.115837250000002,"velocity":1},{"duration":0.1600606874999997,"midi":48,"time":9.275897937500002,"velocity":1},{"duration":0.3658530000000013,"midi":48,"time":9.4740683125,"velocity":1},{"duration":0.3887188125000005,"midi":53,"time":9.8170555,"velocity":1},{"duration":0.4344504375000007,"midi":48,"time":10.198152375000001,"velocity":1},{"duration":0.4039626875,"midi":55,"time":10.586871187500002,"velocity":1},{"duration":0.38871881249999873,"midi":48,"time":10.967968062500002,"velocity":1},{"duration":0.18292649999999888,"midi":55,"time":11.333821062500002,"velocity":1},{"duration":0.1371948750000005,"midi":48,"time":11.509125625000001,"velocity":1},{"duration":0.1600606874999997,"midi":48,"time":11.897844437500002,"velocity":1},{"duration":0.1371948750000005,"midi":55,"time":12.103636750000001,"velocity":1},{"duration":0.1143290625000013,"midi":48,"time":12.2332096875,"velocity":1},{"duration":0.38871881249999873,"midi":48,"time":12.393270375000002,"velocity":1},{"duration":0.3582310624999998,"midi":55,"time":12.759123375000001,"velocity":1},{"duration":0.02286581250000097,"midi":53,"time":12.8277208125,"velocity":1},{"duration":0.36585299999999954,"midi":48,"time":13.14022025,"velocity":1},{"duration":0.4268285000000027,"midi":55,"time":13.50607325,"velocity":1},{"duration":0.3887188125000005,"midi":48,"time":13.864304312500002,"velocity":1},{"duration":0.2667678124999995,"midi":55,"time":14.253023125000002,"velocity":1},{"duration":0.18292649999999888,"midi":48,"time":14.451193500000002,"velocity":1},{"duration":0.18292650000000066,"midi":48,"time":14.7941806875,"velocity":1},{"duration":0.2515239375,"midi":55,"time":14.931375562500001,"velocity":1},{"duration":0.11432906249999952,"midi":48,"time":15.129545937500001,"velocity":1},{"duration":0.3887188125000005,"midi":48,"time":15.3124724375,"velocity":1},{"duration":0.3810968750000008,"midi":55,"time":15.70119125,"velocity":1},{"duration":0.4115846249999997,"midi":48,"time":16.059422312500004,"velocity":1},{"duration":0.4344504375000007,"midi":53,"time":16.4405191875,"velocity":1},{"duration":0.3582310624999998,"midi":48,"time":16.806372187500003,"velocity":1},{"duration":0.20579231249999808,"midi":53,"time":17.164603250000003,"velocity":1},{"duration":0.20579231250000163,"midi":48,"time":17.3703955625,"velocity":1},{"duration":0.15243875000000173,"midi":48,"time":17.759114375,"velocity":1},{"duration":0.22865812499999905,"midi":53,"time":17.934418937500002,"velocity":1},{"duration":0.13719487499999872,"midi":48,"time":18.071613812500004,"velocity":1},{"duration":0.3658530000000013,"midi":48,"time":18.277406125000002,"velocity":1},{"duration":0.3887188125000023,"midi":53,"time":18.612771375,"velocity":1},{"duration":0.3810968749999972,"midi":48,"time":19.001490187500004,"velocity":1},{"duration":0.41158462500000326,"midi":53,"time":19.35972125,"velocity":1},{"duration":0.3810968750000008,"midi":48,"time":19.748440062500002,"velocity":1},{"duration":0.2286581250000026,"midi":53,"time":20.106671125000002,"velocity":1},{"duration":0.2515239375,"midi":48,"time":20.289597625000003,"velocity":1},{"duration":0.18292650000000066,"midi":48,"time":20.670694500000003,"velocity":1},{"duration":0.3201213749999994,"midi":53,"time":20.830755187500003,"velocity":1},{"duration":0.11432906249999775,"midi":48,"time":21.013681687500004,"velocity":1},{"duration":0.3582310624999998,"midi":48,"time":21.1966081875,"velocity":1},{"duration":0.3887188125000023,"midi":53,"time":21.55483925,"velocity":1},{"duration":0.40396268750000175,"midi":48,"time":21.920692250000002,"velocity":1},{"duration":0.3887188125000023,"midi":55,"time":22.301789125000003,"velocity":1},{"duration":0.04573162499999839,"midi":53,"time":22.324654937500004,"velocity":1},{"duration":0.3810968749999972,"midi":48,"time":22.667642125000004,"velocity":1},{"duration":0.22865812499999905,"midi":55,"time":23.003007375000003,"velocity":1},{"duration":0.18292650000000066,"midi":48,"time":23.2087996875,"velocity":1},{"duration":0.20579231250000163,"midi":48,"time":23.544164937500003,"velocity":1},{"duration":0.22865812499999905,"midi":55,"time":23.727091437500004,"velocity":1},{"duration":0.1600606874999997,"midi":48,"time":23.887152125000004,"velocity":1},{"duration":0.31249943749999787,"midi":48,"time":24.115810250000003,"velocity":1},{"duration":0.4115846249999997,"midi":55,"time":24.4283096875,"velocity":1},{"duration":0.35823106250000336,"midi":48,"time":24.8398943125,"velocity":1},{"duration":0.42682849999999917,"midi":55,"time":25.198125375000004,"velocity":1},{"duration":0.3658530000000013,"midi":48,"time":25.579222250000004,"velocity":1},{"duration":0.22865812499999905,"midi":55,"time":25.945075250000006,"velocity":1},{"duration":0.2667678124999995,"midi":48,"time":26.128001750000003,"velocity":1},{"duration":0.18292650000000066,"midi":48,"time":26.509098625,"velocity":1},{"duration":0.20579231250000163,"midi":55,"time":26.6691593125,"velocity":1},{"duration":0.13719487500000227,"midi":48,"time":26.8520858125,"velocity":1},{"duration":0.34298718750000035,"midi":48,"time":27.050256187500004,"velocity":1},{"duration":0.3582310624999998,"midi":55,"time":27.393243375000004,"velocity":1},{"duration":0.38871881249999873,"midi":48,"time":27.774340250000005,"velocity":1},{"duration":0.4039626874999982,"midi":53,"time":28.163059062500004,"velocity":1},{"duration":0.3658530000000013,"midi":48,"time":28.521290125,"velocity":1},{"duration":0.19817037500000012,"midi":53,"time":28.910008937500002,"velocity":1},{"duration":0.2286581250000026,"midi":48,"time":29.0853135,"velocity":1},{"duration":0.20579231250000163,"midi":48,"time":29.451166500000003,"velocity":1},{"duration":0.26676781250000303,"midi":53,"time":29.634093000000004,"velocity":1},{"duration":0.1600606874999997,"midi":48,"time":29.786531750000005,"velocity":1},{"duration":0.32012137500000293,"midi":48,"time":29.992324062500003,"velocity":1},{"duration":0.4039626874999982,"midi":53,"time":30.335311250000004,"velocity":1},{"duration":0.3887188125000023,"midi":48,"time":30.6935423125,"velocity":1},{"duration":0.4115846249999997,"midi":53,"time":31.074639187500004,"velocity":1},{"duration":0.35823106250000336,"midi":48,"time":31.440492187500002,"velocity":1},{"duration":0.20579231249999808,"midi":53,"time":31.821589062500006,"velocity":1},{"duration":0.22865812499999905,"midi":48,"time":31.981649750000006,"velocity":1},{"duration":0.19817037499999657,"midi":48,"time":32.370368562500005,"velocity":1},{"duration":0.3658530000000013,"midi":53,"time":32.545673125,"velocity":1},{"duration":0.1600606874999997,"midi":48,"time":32.7057338125,"velocity":1},{"duration":0.4725601250000011,"midi":48,"time":32.911526125,"velocity":1},{"duration":0.3658529999999942,"midi":53,"time":33.292623000000006,"velocity":1},{"duration":0.35823106250000336,"midi":48,"time":33.658476,"velocity":1},{"duration":0.3887188125000023,"midi":55,"time":34.016707062500004,"velocity":1},{"duration":0.4039626874999982,"midi":48,"time":34.382560062500005,"velocity":1},{"duration":0.2286581250000026,"midi":55,"time":34.7636569375,"velocity":1},{"duration":0.20579231250000163,"midi":48,"time":34.9465834375,"velocity":1},{"duration":0.20579231250000163,"midi":48,"time":35.281948687500005,"velocity":1},{"duration":0.3887188124999952,"midi":55,"time":35.464875187500006,"velocity":1},{"duration":0.1600606874999997,"midi":48,"time":35.624935875000006,"velocity":1},{"duration":0.3353652499999953,"midi":48,"time":35.83072818750001,"velocity":1},{"duration":0.3201213749999994,"midi":55,"time":36.18895925,"velocity":1},{"duration":0.41158462500000326,"midi":48,"time":36.5471903125,"velocity":1},{"duration":0.38109687500000433,"midi":56,"time":36.935909125,"velocity":1},{"duration":0.09146324999999678,"midi":48,"time":37.294140187500005,"velocity":1},{"duration":0.20579231249999452,"midi":48,"time":37.477066687500006,"velocity":1},{"duration":0.20579231250000163,"midi":56,"time":37.682859,"velocity":1},{"duration":0.24390200000000561,"midi":48,"time":37.8657855,"velocity":1},{"duration":0.18292650000000066,"midi":48,"time":38.224016562500005,"velocity":1},{"duration":0.4039626874999982,"midi":56,"time":38.406943062500005,"velocity":1},{"duration":0.3658530000000013,"midi":48,"time":38.765174125,"velocity":1},{"duration":0.35823106250000336,"midi":56,"time":39.131027125,"velocity":1},{"duration":0.41158462499999615,"midi":48,"time":39.466392375000005,"velocity":1},{"duration":0.35823106250000336,"midi":58,"time":39.877977,"velocity":1},{"duration":0.3887188125000023,"midi":48,"time":40.213342250000004,"velocity":1},{"duration":0.13719487499999872,"midi":58,"time":40.579195250000005,"velocity":1},{"duration":0.25152393750000357,"midi":48,"time":40.7544998125,"velocity":1},{"duration":0.20579231250000163,"midi":48,"time":41.1203528125,"velocity":1},{"duration":0.18292650000000066,"midi":53,"time":41.3032793125,"velocity":1},{"duration":0.13719487499999872,"midi":48,"time":41.455718062500004,"velocity":1},{"duration":0.3887188124999952,"midi":48,"time":41.661510375000006,"velocity":1},{"duration":0.3353652500000024,"midi":41,"time":42.02736337500001,"velocity":1},{"duration":0.3887188125000023,"midi":48,"time":42.408460250000005,"velocity":1},{"duration":0.3887188125000023,"midi":53,"time":42.7438255,"velocity":1},{"duration":0.4039626875000053,"midi":48,"time":43.1096785,"velocity":1},{"duration":0.18292650000000066,"midi":53,"time":43.490775375000005,"velocity":1},{"duration":0.2439019999999985,"midi":48,"time":43.673701875000006,"velocity":1},{"duration":0.18292650000000066,"midi":48,"time":44.05479875,"velocity":1},{"duration":0.1600606874999997,"midi":53,"time":44.237725250000004,"velocity":1},{"duration":0.1600606874999997,"midi":48,"time":44.397785937500004,"velocity":1},{"duration":0.3658530000000013,"midi":48,"time":44.5959563125,"velocity":1},{"duration":0.3887188125000023,"midi":53,"time":44.9389435,"velocity":1},{"duration":0.4344504374999971,"midi":48,"time":45.320040375000005,"velocity":1},{"duration":0.4039626874999982,"midi":55,"time":45.70875918750001,"velocity":1},{"duration":0.3887188125000023,"midi":48,"time":46.089856062500004,"velocity":1},{"duration":0.18292650000000066,"midi":55,"time":46.455709062500006,"velocity":1},{"duration":0.13719487499999872,"midi":48,"time":46.631013625,"velocity":1},{"duration":0.1600606874999997,"midi":48,"time":47.01973243750001,"velocity":1},{"duration":0.13719487500000582,"midi":55,"time":47.225524750000005,"velocity":1},{"duration":0.11432906249999775,"midi":48,"time":47.355097687500006,"velocity":1},{"duration":0.3887188125000023,"midi":48,"time":47.515158375000006,"velocity":1},{"duration":0.35823106249999626,"midi":55,"time":47.88101137500001,"velocity":1},{"duration":0.02286581250000097,"midi":53,"time":47.9496088125,"velocity":1},{"duration":0.3658529999999942,"midi":48,"time":48.262108250000004,"velocity":1},{"duration":0.4268285000000134,"midi":55,"time":48.62796125,"velocity":1},{"duration":0.3887188125000023,"midi":48,"time":48.98619231250001,"velocity":1},{"duration":0.2667678124999924,"midi":55,"time":49.37491112500001,"velocity":1},{"duration":0.18292650000000066,"midi":48,"time":49.57308150000001,"velocity":1},{"duration":0.18292650000000066,"midi":48,"time":49.91606868750001,"velocity":1},{"duration":0.25152393749999646,"midi":55,"time":50.05326356250001,"velocity":1},{"duration":0.11432906249999775,"midi":48,"time":50.2514339375,"velocity":1},{"duration":0.3887188124999952,"midi":48,"time":50.434360437500004,"velocity":1},{"duration":0.38109687500001144,"midi":55,"time":50.82307925,"velocity":1},{"duration":0.41158462499999615,"midi":48,"time":51.18131031250001,"velocity":1},{"duration":0.4344504374999971,"midi":53,"time":51.56240718750001,"velocity":1},{"duration":0.35823106249999626,"midi":48,"time":51.92826018750001,"velocity":1},{"duration":0.20579231249999452,"midi":53,"time":52.286491250000005,"velocity":1},{"duration":0.20579231250000163,"midi":48,"time":52.4922835625,"velocity":1},{"duration":0.15243875000000884,"midi":48,"time":52.881002375,"velocity":1},{"duration":0.2286581249999955,"midi":53,"time":53.05630693750001,"velocity":1},{"duration":0.13719487499999872,"midi":48,"time":53.19350181250001,"velocity":1},{"duration":0.3658529999999942,"midi":48,"time":53.39929412500001,"velocity":1},{"duration":0.3887188125000023,"midi":53,"time":53.73465937500001,"velocity":1},{"duration":0.3810968749999901,"midi":48,"time":54.12337818750001,"velocity":1},{"duration":0.41158462499999615,"midi":53,"time":54.481609250000005,"velocity":1},{"duration":0.38109687500001144,"midi":48,"time":54.8703280625,"velocity":1},{"duration":0.2286581249999955,"midi":53,"time":55.22855912500001,"velocity":1},{"duration":0.25152393749999646,"midi":48,"time":55.41148562500001,"velocity":1},{"duration":0.18292650000000066,"midi":48,"time":55.79258250000001,"velocity":1},{"duration":0.3201213749999994,"midi":53,"time":55.95264318750001,"velocity":1},{"duration":0.11432906249999775,"midi":48,"time":56.13556968750001,"velocity":1},{"duration":0.35823106250000336,"midi":48,"time":56.3184961875,"velocity":1},{"duration":0.3887188124999952,"midi":53,"time":56.676727250000006,"velocity":1},{"duration":0.4039626875000124,"midi":48,"time":57.04258025,"velocity":1},{"duration":0.3887188124999952,"midi":55,"time":57.42367712500001,"velocity":1},{"duration":0.045731624999994835,"midi":53,"time":57.44654293750001,"velocity":1},{"duration":0.3810968749999901,"midi":48,"time":57.78953012500001,"velocity":1},{"duration":0.2286581249999955,"midi":55,"time":58.12489537500001,"velocity":1},{"duration":0.18292650000000066,"midi":48,"time":58.3306876875,"velocity":1},{"duration":0.20579231249999452,"midi":48,"time":58.666052937500005,"velocity":1},{"duration":0.2286581249999955,"midi":55,"time":58.848979437500006,"velocity":1},{"duration":0.1600606874999997,"midi":48,"time":59.009040125000006,"velocity":1},{"duration":0.3124994375000085,"midi":48,"time":59.23769825,"velocity":1},{"duration":0.41158462500000326,"midi":55,"time":59.55019768750001,"velocity":1},{"duration":0.35823106249999626,"midi":48,"time":59.96178231250001,"velocity":1},{"duration":0.42682849999999206,"midi":55,"time":60.32001337500001,"velocity":1},{"duration":0.3658529999999942,"midi":48,"time":60.701110250000006,"velocity":1},{"duration":0.2286581250000026,"midi":55,"time":61.06696325,"velocity":1},{"duration":0.2667678125000066,"midi":48,"time":61.24988975,"velocity":1},{"duration":0.18292650000000066,"midi":48,"time":61.63098662500001,"velocity":1},{"duration":0.20579231249999452,"midi":55,"time":61.79104731250001,"velocity":1},{"duration":0.13719487499999872,"midi":48,"time":61.97397381250001,"velocity":1},{"duration":0.34298718750000035,"midi":48,"time":62.17214418750001,"velocity":1},{"duration":0.35823106249999626,"midi":55,"time":62.51513137500001,"velocity":1},{"duration":0.3887188125000023,"midi":48,"time":62.89622825,"velocity":1},{"duration":0.4039626875000053,"midi":53,"time":63.2849470625,"velocity":1},{"duration":0.3658529999999942,"midi":48,"time":63.64317812500001,"velocity":1},{"duration":0.19817037500000367,"midi":53,"time":64.03189693750001,"velocity":1},{"duration":0.2286581249999955,"midi":48,"time":64.20720150000001,"velocity":1},{"duration":0.20579231249999452,"midi":48,"time":64.57305450000001,"velocity":1},{"duration":0.2667678124999924,"midi":53,"time":64.755981,"velocity":1},{"duration":0.16006068749999258,"midi":48,"time":64.90841975000001,"velocity":1},{"duration":0.3201213749999994,"midi":48,"time":65.1142120625,"velocity":1},{"duration":0.4039626875000124,"midi":53,"time":65.45719925,"velocity":1},{"duration":0.3887188125000023,"midi":48,"time":65.81543031250001,"velocity":1},{"duration":0.41158462500000326,"midi":53,"time":66.19652718750001,"velocity":1},{"duration":0.35823106249999626,"midi":48,"time":66.56238018750001,"velocity":1},{"duration":0.20579231249999452,"midi":53,"time":66.94347706250001,"velocity":1},{"duration":0.2286581250000097,"midi":48,"time":67.10353775,"velocity":1},{"duration":0.19817037500000367,"midi":48,"time":67.4922565625,"velocity":1},{"duration":0.3658530000000013,"midi":53,"time":67.667561125,"velocity":1},{"duration":0.16006068749999258,"midi":48,"time":67.82762181250001,"velocity":1},{"duration":0.4725601250000011,"midi":48,"time":68.03341412500001,"velocity":1},{"duration":0.3658530000000013,"midi":53,"time":68.414511,"velocity":1},{"duration":0.35823106249999626,"midi":48,"time":68.780364,"velocity":1},{"duration":0.3887188125000023,"midi":55,"time":69.1385950625,"velocity":1},{"duration":0.4039626875000124,"midi":48,"time":69.5044480625,"velocity":1},{"duration":0.2286581249999955,"midi":55,"time":69.88554493750001,"velocity":1},{"duration":0.20579231250000873,"midi":48,"time":70.06847143750001,"velocity":1},{"duration":0.20579231250000873,"midi":48,"time":70.4038366875,"velocity":1},{"duration":0.3887188125000023,"midi":55,"time":70.58676318750001,"velocity":1},{"duration":0.1600606875000068,"midi":48,"time":70.746823875,"velocity":1},{"duration":0.3353652499999953,"midi":48,"time":70.95261618750001,"velocity":1},{"duration":0.3201213749999994,"midi":55,"time":71.31084725000001,"velocity":1},{"duration":0.41158462500000326,"midi":48,"time":71.6690783125,"velocity":1},{"duration":0.3810968749999972,"midi":56,"time":72.05779712500001,"velocity":1},{"duration":0.09146325000000388,"midi":48,"time":72.4160281875,"velocity":1},{"duration":0.20579231249999452,"midi":48,"time":72.59895468750001,"velocity":1},{"duration":0.20579231250000873,"midi":56,"time":72.804747,"velocity":1},{"duration":0.2439019999999914,"midi":48,"time":72.98767350000001,"velocity":1},{"duration":0.18292649999999355,"midi":48,"time":73.34590456250001,"velocity":1},{"duration":0.4039626875000124,"midi":56,"time":73.5288310625,"velocity":1},{"duration":0.3658530000000013,"midi":48,"time":73.88706212500001,"velocity":1},{"duration":0.35823106249999626,"midi":56,"time":74.25291512500002,"velocity":1},{"duration":0.41158462500000326,"midi":48,"time":74.58828037500001,"velocity":1},{"duration":0.35823106249999626,"midi":58,"time":74.99986500000001,"velocity":1},{"duration":0.3887188125000023,"midi":48,"time":75.33523025000001,"velocity":1},{"duration":0.1371948749999916,"midi":58,"time":75.70108325000001,"velocity":1},{"duration":0.25152393749999646,"midi":48,"time":75.87638781250001,"velocity":1},{"duration":0.20579231249999452,"midi":48,"time":76.24224081250001,"velocity":1},{"duration":0.18292650000000776,"midi":53,"time":76.42516731250001,"velocity":1},{"duration":0.1371948749999916,"midi":48,"time":76.57760606250001,"velocity":1},{"duration":0.3887188125000023,"midi":48,"time":76.783398375,"velocity":1},{"duration":0.3353652499999953,"midi":41,"time":77.149251375,"velocity":1},{"duration":0.3887188125000023,"midi":48,"time":77.53034825,"velocity":1}]},{"instrument":{"family":"piano","number":0,"name":"acoustic grand piano"},"notes":[]},{"instrument":{"family":"bass","number":35,"name":"fretless bass"},"notes":[{"duration":0.3353652500000006,"midi":32,"time":7.2941941875000005,"velocity":1},{"duration":0.1371948750000005,"midi":32,"time":7.652425250000001,"velocity":1},{"duration":0.11432906250000041,"midi":32,"time":7.835351750000001,"velocity":1},{"duration":0.3353652499999997,"midi":32,"time":7.9954124375000015,"velocity":1},{"duration":0.1143290625000013,"midi":32,"time":8.3765093125,"velocity":1},{"duration":0.3201213749999994,"midi":32,"time":8.536570000000001,"velocity":1},{"duration":0.3810968750000008,"midi":32,"time":8.9252888125,"velocity":1},{"duration":0.11432906249999952,"midi":32,"time":9.329251500000002,"velocity":1},{"duration":0.3124994375000014,"midi":32,"time":9.512178,"velocity":1},{"duration":0.1600606874999997,"midi":32,"time":9.870409062500002,"velocity":1},{"duration":0.1371948750000005,"midi":32,"time":10.053335562500001,"velocity":1},{"duration":0.31249943749999787,"midi":34,"time":10.213396250000002,"velocity":1},{"duration":0.09146325000000033,"midi":34,"time":10.5716273125,"velocity":1},{"duration":0.11432906249999952,"midi":34,"time":10.708822187500001,"velocity":1},{"duration":0.3353652500000006,"midi":34,"time":10.9374803125,"velocity":1},{"duration":0.1371948750000005,"midi":34,"time":11.3185771875,"velocity":1},{"duration":0.31249943749999964,"midi":34,"time":11.501503687500001,"velocity":1},{"duration":0.3201213749999994,"midi":34,"time":11.859734750000001,"velocity":1},{"duration":0.1143290625000013,"midi":34,"time":12.2484535625,"velocity":1},{"duration":0.3353652500000024,"midi":34,"time":12.4313800625,"velocity":1},{"duration":0.34298718749999857,"midi":32,"time":12.766745312500003,"velocity":1},{"duration":0.35823106249999803,"midi":31,"time":13.132598312500003,"velocity":1},{"duration":0.2972555625000002,"midi":31,"time":13.536561,"velocity":1},{"duration":0.2972555625000002,"midi":31,"time":13.871926250000001,"velocity":1},{"duration":0.18292650000000066,"midi":31,"time":14.2149134375,"velocity":1},{"duration":0.3353652500000006,"midi":36,"time":14.420705750000002,"velocity":1},{"duration":0.3201213749999994,"midi":36,"time":14.778936812500003,"velocity":1},{"duration":0.09146325000000033,"midi":36,"time":15.144789812500003,"velocity":1},{"duration":0.36585299999999954,"midi":36,"time":15.274362750000002,"velocity":1},{"duration":0.3810968750000008,"midi":36,"time":15.685947375000001,"velocity":1},{"duration":0.34298718750000035,"midi":29,"time":16.067044250000002,"velocity":1},{"duration":0.3353652500000024,"midi":29,"time":16.43289725,"velocity":1},{"duration":0.3201213749999994,"midi":29,"time":16.791128312500003,"velocity":1},{"duration":0.3124994375000014,"midi":29,"time":17.1569813125,"velocity":1},{"duration":0.20579231250000163,"midi":29,"time":17.538078187500002,"velocity":1},{"duration":0.4725601250000011,"midi":29,"time":17.7667363125,"velocity":1},{"duration":0.289633625000004,"midi":29,"time":18.2850280625,"velocity":1},{"duration":0.38871881249999873,"midi":29,"time":18.620393312500003,"velocity":1},{"duration":0.31249943749999787,"midi":32,"time":18.986246312500004,"velocity":1},{"duration":0.3201213749999994,"midi":32,"time":19.3673431875,"velocity":1},{"duration":0.31249943749999787,"midi":32,"time":19.733196187500003,"velocity":1},{"duration":0.13719487499999872,"midi":32,"time":20.091427250000002,"velocity":1},{"duration":0.3124994375000014,"midi":32,"time":20.274353750000003,"velocity":1},{"duration":0.34298718750000035,"midi":32,"time":20.632584812500003,"velocity":1},{"duration":0.1143290625000013,"midi":32,"time":21.021303625,"velocity":1},{"duration":0.31249943749999787,"midi":32,"time":21.181364312500005,"velocity":1},{"duration":0.33536524999999884,"midi":32,"time":21.539595375,"velocity":1},{"duration":0.2972555624999984,"midi":34,"time":21.920692250000002,"velocity":1},{"duration":0.3582310624999998,"midi":34,"time":22.263679437500002,"velocity":1},{"duration":0.3201213749999994,"midi":34,"time":22.667642125000004,"velocity":1},{"duration":0.1143290625000013,"midi":34,"time":23.033495125,"velocity":1},{"duration":0.2896336249999969,"midi":34,"time":23.193555812500005,"velocity":1},{"duration":0.32012137500000293,"midi":34,"time":23.551786875,"velocity":1},{"duration":0.10670712500000334,"midi":34,"time":23.8947740625,"velocity":1},{"duration":0.34298718750000035,"midi":34,"time":24.070078625000004,"velocity":1},{"duration":0.3810968749999972,"midi":34,"time":24.458797437500003,"velocity":1},{"duration":0.34298718750000035,"midi":31,"time":24.8170285,"velocity":1},{"duration":0.3353652500000024,"midi":31,"time":25.2057473125,"velocity":1},{"duration":0.29725556250000196,"midi":31,"time":25.586844187500002,"velocity":1},{"duration":0.19817037500000012,"midi":31,"time":25.929831375000003,"velocity":1},{"duration":0.34298718750000035,"midi":36,"time":26.128001750000003,"velocity":1},{"duration":0.3353652499999953,"midi":36,"time":26.493854750000004,"velocity":1},{"duration":0.1143290625000013,"midi":36,"time":26.8520858125,"velocity":1},{"duration":0.34298718750000035,"midi":36,"time":27.0121465,"velocity":1},{"duration":0.4115846249999997,"midi":36,"time":27.393243375000004,"velocity":1},{"duration":0.3124994375000014,"midi":29,"time":27.781962187500003,"velocity":1},{"duration":0.3201213749999994,"midi":29,"time":28.163059062500004,"velocity":1},{"duration":0.31249943749999787,"midi":29,"time":28.528912062500005,"velocity":1},{"duration":0.20579231249999808,"midi":29,"time":28.910008937500002,"velocity":1},{"duration":0.2286581250000026,"midi":32,"time":29.11580125,"velocity":1},{"duration":0.4344504375000007,"midi":34,"time":29.451166500000003,"velocity":1},{"duration":0.28963362500000045,"midi":34,"time":29.954214375000003,"velocity":1},{"duration":0.32012137500000293,"midi":34,"time":30.335311250000004,"velocity":1},{"duration":0.29725556250000196,"midi":32,"time":30.6935423125,"velocity":1},{"duration":0.28963362500000045,"midi":32,"time":31.0593953125,"velocity":1},{"duration":0.18292650000000066,"midi":32,"time":31.440492187500002,"velocity":1},{"duration":0.38871881249999873,"midi":29,"time":31.623418687500003,"velocity":1},{"duration":0.31249943749999787,"midi":32,"time":31.989271687500004,"velocity":1},{"duration":0.27438975000000454,"midi":29,"time":32.3246369375,"velocity":1},{"duration":0.22103618749999754,"midi":29,"time":32.667624125,"velocity":1},{"duration":0.34298718750000035,"midi":32,"time":32.8886603125,"velocity":1},{"duration":0.4039626874999982,"midi":29,"time":33.2545133125,"velocity":1},{"duration":0.3658529999999942,"midi":34,"time":33.635610187500006,"velocity":1},{"duration":0.2667678124999995,"midi":34,"time":34.0471948125,"velocity":1},{"duration":0.34298718750000035,"midi":34,"time":34.382560062500005,"velocity":1},{"duration":0.2286581250000026,"midi":29,"time":34.7179253125,"velocity":1},{"duration":0.2972555624999984,"midi":34,"time":34.923717625,"velocity":1},{"duration":0.3353652500000024,"midi":34,"time":35.312436437500004,"velocity":1},{"duration":0.20579231250000163,"midi":29,"time":35.624935875000006,"velocity":1},{"duration":0.2972555624999984,"midi":34,"time":35.807862375000006,"velocity":1},{"duration":0.4039626875000053,"midi":34,"time":36.173715375,"velocity":1},{"duration":0.3201213749999994,"midi":35,"time":36.554812250000005,"velocity":1},{"duration":0.3201213749999994,"midi":35,"time":36.9130433125,"velocity":1},{"duration":0.3353652500000024,"midi":35,"time":37.301762125,"velocity":1},{"duration":0.2286581249999955,"midi":29,"time":37.637127375000006,"velocity":1},{"duration":0.3201213749999994,"midi":35,"time":37.84291968750001,"velocity":1},{"duration":0.3353652500000024,"midi":35,"time":38.2087726875,"velocity":1},{"duration":0.25152393750000357,"midi":29,"time":38.544137937500004,"velocity":1},{"duration":0.28963362499999334,"midi":35,"time":38.77279606250001,"velocity":1},{"duration":0.3201213749999994,"midi":35,"time":39.131027125,"velocity":1},{"duration":0.28963362500000045,"midi":36,"time":39.496880125000004,"velocity":1},{"duration":0.2972555624999984,"midi":36,"time":39.85511118750001,"velocity":1},{"duration":0.3353652500000024,"midi":36,"time":40.24383,"velocity":1},{"duration":0.2286581250000026,"midi":29,"time":40.556329437500004,"velocity":1},{"duration":0.2667678124999995,"midi":36,"time":40.762121750000006,"velocity":1},{"duration":0.2972555624999984,"midi":36,"time":41.143218625,"velocity":1},{"duration":0.34298718750000035,"midi":29,"time":41.349010937500005,"velocity":1},{"duration":0.28963362500000045,"midi":36,"time":41.6462665,"velocity":1},{"duration":0.3201213749999994,"midi":36,"time":42.004497562500006,"velocity":1},{"duration":0.13719487499999872,"midi":32,"time":42.774313250000006,"velocity":1},{"duration":0.11432906249999775,"midi":32,"time":42.95723975000001,"velocity":1},{"duration":0.3353652499999953,"midi":32,"time":43.117300437500006,"velocity":1},{"duration":0.11432906249999775,"midi":32,"time":43.4983973125,"velocity":1},{"duration":0.3201213749999994,"midi":32,"time":43.658458,"velocity":1},{"duration":0.3810968749999972,"midi":32,"time":44.047176812500005,"velocity":1},{"duration":0.11432906249999775,"midi":32,"time":44.451139500000004,"velocity":1},{"duration":0.3124994375000014,"midi":32,"time":44.634066000000004,"velocity":1},{"duration":0.1600606874999997,"midi":32,"time":44.99229706250001,"velocity":1},{"duration":0.13719487499999872,"midi":32,"time":45.17522356250001,"velocity":1},{"duration":0.3124994374999943,"midi":34,"time":45.33528425000001,"velocity":1},{"duration":0.09146324999999678,"midi":34,"time":45.693515312500004,"velocity":1},{"duration":0.11432906249999775,"midi":34,"time":45.8307101875,"velocity":1},{"duration":0.3353652500000024,"midi":34,"time":46.059368312500006,"velocity":1},{"duration":0.13719487499999872,"midi":34,"time":46.4404651875,"velocity":1},{"duration":0.3124994375000014,"midi":34,"time":46.6233916875,"velocity":1},{"duration":0.3201213749999994,"midi":34,"time":46.98162275,"velocity":1},{"duration":0.11432906249999775,"midi":34,"time":47.3703415625,"velocity":1},{"duration":0.3353652500000095,"midi":34,"time":47.5532680625,"velocity":1},{"duration":0.34298718749999324,"midi":32,"time":47.88863331250001,"velocity":1},{"duration":0.35823106249999626,"midi":31,"time":48.254486312500006,"velocity":1},{"duration":0.2972555624999984,"midi":31,"time":48.658449000000005,"velocity":1},{"duration":0.2972555625000055,"midi":31,"time":48.99381425,"velocity":1},{"duration":0.18292650000000066,"midi":31,"time":49.3368014375,"velocity":1},{"duration":0.3353652500000095,"midi":36,"time":49.54259375,"velocity":1},{"duration":0.3201213749999994,"midi":36,"time":49.90082481250001,"velocity":1},{"duration":0.09146325000000388,"midi":36,"time":50.266677812500006,"velocity":1},{"duration":0.3658530000000013,"midi":36,"time":50.39625075000001,"velocity":1},{"duration":0.3810968749999972,"midi":36,"time":50.807835375,"velocity":1},{"duration":0.34298718750000035,"midi":29,"time":51.18893225,"velocity":1},{"duration":0.3353652500000095,"midi":29,"time":51.55478525,"velocity":1},{"duration":0.3201213749999994,"midi":29,"time":51.91301631250001,"velocity":1},{"duration":0.3124994375000014,"midi":29,"time":52.27886931250001,"velocity":1},{"duration":0.20579231250000163,"midi":29,"time":52.659966187500004,"velocity":1},{"duration":0.472560124999994,"midi":29,"time":52.888624312500006,"velocity":1},{"duration":0.28963362500000756,"midi":29,"time":53.4069160625,"velocity":1},{"duration":0.3887188124999952,"midi":29,"time":53.74228131250001,"velocity":1},{"duration":0.3124994375000014,"midi":32,"time":54.108134312500006,"velocity":1},{"duration":0.3201213749999994,"midi":32,"time":54.4892311875,"velocity":1},{"duration":0.3124994375000014,"midi":32,"time":54.855084187500005,"velocity":1},{"duration":0.13719487499999872,"midi":32,"time":55.21331525,"velocity":1},{"duration":0.3124994375000085,"midi":32,"time":55.39624175,"velocity":1},{"duration":0.34298718750000035,"midi":32,"time":55.75447281250001,"velocity":1},{"duration":0.11432906250000485,"midi":32,"time":56.14319162500001,"velocity":1},{"duration":0.3124994375000014,"midi":32,"time":56.30325231250001,"velocity":1},{"duration":0.3353652500000024,"midi":32,"time":56.661483375,"velocity":1},{"duration":0.2972555625000055,"midi":34,"time":57.04258025,"velocity":1},{"duration":0.35823106250001047,"midi":34,"time":57.3855674375,"velocity":1},{"duration":0.3201213749999994,"midi":34,"time":57.78953012500001,"velocity":1},{"duration":0.11432906250000485,"midi":34,"time":58.15538312500001,"velocity":1},{"duration":0.28963362500000045,"midi":34,"time":58.31544381250001,"velocity":1},{"duration":0.3201213750000065,"midi":34,"time":58.673674875,"velocity":1},{"duration":0.10670712499999979,"midi":34,"time":59.016662062500004,"velocity":1},{"duration":0.34298718749999324,"midi":34,"time":59.191966625000006,"velocity":1},{"duration":0.38109687500001144,"midi":34,"time":59.5806854375,"velocity":1},{"duration":0.34298718750000035,"midi":31,"time":59.93891650000001,"velocity":1},{"duration":0.3353652500000024,"midi":31,"time":60.32763531250001,"velocity":1},{"duration":0.2972555625000055,"midi":31,"time":60.708732187500004,"velocity":1},{"duration":0.19817037499999657,"midi":31,"time":61.051719375000005,"velocity":1},{"duration":0.34298718750000035,"midi":36,"time":61.24988975,"velocity":1},{"duration":0.3353652500000095,"midi":36,"time":61.61574275,"velocity":1},{"duration":0.11432906249999775,"midi":36,"time":61.97397381250001,"velocity":1},{"duration":0.34298718750000035,"midi":36,"time":62.13403450000001,"velocity":1},{"duration":0.41158462499999615,"midi":36,"time":62.51513137500001,"velocity":1},{"duration":0.3124994375000014,"midi":29,"time":62.903850187500005,"velocity":1},{"duration":0.3201213749999994,"midi":29,"time":63.2849470625,"velocity":1},{"duration":0.3124994375000085,"midi":29,"time":63.650800062500004,"velocity":1},{"duration":0.20579231250000873,"midi":29,"time":64.03189693750001,"velocity":1},{"duration":0.2286581249999955,"midi":32,"time":64.23768925000002,"velocity":1},{"duration":0.43445043749999,"midi":34,"time":64.57305450000001,"velocity":1},{"duration":0.28963362499999334,"midi":34,"time":65.076102375,"velocity":1},{"duration":0.3201213749999994,"midi":34,"time":65.45719925,"velocity":1},{"duration":0.2972555624999984,"midi":32,"time":65.81543031250001,"velocity":1},{"duration":0.28963362499999334,"midi":32,"time":66.18128331250001,"velocity":1},{"duration":0.18292649999999355,"midi":32,"time":66.56238018750001,"velocity":1},{"duration":0.3887188125000023,"midi":29,"time":66.7453066875,"velocity":1},{"duration":0.3124994374999943,"midi":32,"time":67.1111596875,"velocity":1},{"duration":0.27438974999999743,"midi":29,"time":67.4465249375,"velocity":1},{"duration":0.22103618750000464,"midi":29,"time":67.789512125,"velocity":1},{"duration":0.34298718750000035,"midi":32,"time":68.0105483125,"velocity":1},{"duration":0.4039626874999982,"midi":29,"time":68.37640131250001,"velocity":1},{"duration":0.3658530000000013,"midi":34,"time":68.7574981875,"velocity":1},{"duration":0.2667678124999924,"midi":34,"time":69.16908281250001,"velocity":1},{"duration":0.34298718750000035,"midi":34,"time":69.5044480625,"velocity":1},{"duration":0.2286581249999955,"midi":29,"time":69.83981331250001,"velocity":1},{"duration":0.2972555624999984,"midi":34,"time":70.04560562500001,"velocity":1},{"duration":0.3353652499999953,"midi":34,"time":70.43432443750001,"velocity":1},{"duration":0.20579231250000873,"midi":29,"time":70.746823875,"velocity":1},{"duration":0.2972555624999984,"midi":34,"time":70.92975037500001,"velocity":1},{"duration":0.4039626874999982,"midi":34,"time":71.29560337500001,"velocity":1},{"duration":0.3201213749999994,"midi":35,"time":71.67670025000001,"velocity":1},{"duration":0.3201213749999994,"midi":35,"time":72.0349313125,"velocity":1},{"duration":0.3353652499999953,"midi":35,"time":72.42365012500001,"velocity":1},{"duration":0.2286581250000097,"midi":29,"time":72.759015375,"velocity":1},{"duration":0.3201213749999994,"midi":35,"time":72.96480768750001,"velocity":1},{"duration":0.3353652499999953,"midi":35,"time":73.33066068750001,"velocity":1},{"duration":0.25152393749999646,"midi":29,"time":73.66602593750001,"velocity":1},{"duration":0.28963362500000756,"midi":35,"time":73.8946840625,"velocity":1},{"duration":0.3201213749999994,"midi":35,"time":74.25291512500002,"velocity":1},{"duration":0.28963362499999334,"midi":36,"time":74.61876812500002,"velocity":1},{"duration":0.2972555624999984,"midi":36,"time":74.97699918750001,"velocity":1},{"duration":0.3353652500000095,"midi":36,"time":75.365718,"velocity":1},{"duration":0.2286581249999955,"midi":29,"time":75.67821743750001,"velocity":1},{"duration":0.2667678125000066,"midi":36,"time":75.88400975,"velocity":1},{"duration":0.2972555624999984,"midi":36,"time":76.26510662500002,"velocity":1},{"duration":0.34298718750000035,"midi":29,"time":76.47089893750001,"velocity":1},{"duration":0.28963362499999334,"midi":36,"time":76.76815450000001,"velocity":1},{"duration":0.3201213749999994,"midi":36,"time":77.1263855625,"velocity":1}]},{"instrument":{"family":"piano","number":0,"name":"acoustic grand piano"},"notes":[]},{"instrument":{"family":"ensemble","number":52,"name":"choir aahs"},"notes":[{"duration":0.18292650000000066,"midi":71,"time":4.314016625,"velocity":1},{"duration":0.2210361875000002,"midi":70,"time":4.4740773125,"velocity":1},{"duration":0.18292649999999977,"midi":69,"time":4.687491562500001,"velocity":1},{"duration":0.19817037499999923,"midi":68,"time":4.855174187500001,"velocity":1},{"duration":0.16006068750000058,"midi":67,"time":5.03047875,"velocity":1},{"duration":0.22103618749999931,"midi":66,"time":5.190539437500001,"velocity":1},{"duration":0.2210361875000011,"midi":65,"time":5.3887098125,"velocity":1},{"duration":0.22865812499999905,"midi":67,"time":16.7758844375,"velocity":0.7086614173228346},{"duration":0.20579231249999808,"midi":68,"time":16.974054812500004,"velocity":0.7086614173228346},{"duration":0.16006068750000324,"midi":67,"time":17.1569813125,"velocity":0.7086614173228346},{"duration":0.20579231250000163,"midi":65,"time":17.3399078125,"velocity":0.7086614173228346},{"duration":0.22865812499999905,"midi":67,"time":28.498424312500003,"velocity":0.7086614173228346},{"duration":0.22865812499999905,"midi":68,"time":28.704216625,"velocity":0.7086614173228346},{"duration":0.13719487499999872,"midi":67,"time":28.902387000000004,"velocity":0.7086614173228346},{"duration":0.1600606874999997,"midi":65,"time":29.108179312500003,"velocity":0.7086614173228346},{"duration":0.785059562499999,"midi":68,"time":30.571591312500004,"velocity":1},{"duration":0.18292650000000066,"midi":68,"time":31.448114125,"velocity":1},{"duration":0.3429871874999968,"midi":67,"time":31.608174812500003,"velocity":1},{"duration":0.4115846249999997,"midi":68,"time":31.943540062500002,"velocity":1},{"duration":0.20579231250000163,"midi":65,"time":32.332258875,"velocity":1},{"duration":0.18292650000000066,"midi":60,"time":32.5380511875,"velocity":1},{"duration":0.2286581250000026,"midi":65,"time":32.690489937500004,"velocity":1},{"duration":0.3658530000000013,"midi":68,"time":32.896282250000006,"velocity":1},{"duration":0.3810968749999972,"midi":72,"time":33.26213525000001,"velocity":1},{"duration":1.2652416250000016,"midi":70,"time":33.643232125000004,"velocity":1},{"duration":0.2439019999999985,"midi":67,"time":34.908473750000006,"velocity":1},{"duration":0.41158462499999615,"midi":63,"time":35.106644125,"velocity":1},{"duration":0.3353652500000024,"midi":67,"time":35.472497125000004,"velocity":1},{"duration":0.3658529999999942,"midi":68,"time":35.807862375000006,"velocity":1},{"duration":0.44969431250000014,"midi":70,"time":36.15084956250001,"velocity":1},{"duration":0.5868891874999989,"midi":71,"time":36.60054387500001,"velocity":1},{"duration":0.25152393750000357,"midi":71,"time":37.2560305,"velocity":1},{"duration":0.35823106250000336,"midi":70,"time":37.4618228125,"velocity":1},{"duration":0.9298763749999992,"midi":71,"time":37.84291968750001,"velocity":1},{"duration":0.3810968749999972,"midi":70,"time":38.749930250000006,"velocity":1},{"duration":0.3353652500000024,"midi":71,"time":39.1081613125,"velocity":1},{"duration":1.036583500000006,"midi":74,"time":39.4740143125,"velocity":1},{"duration":0.18292650000000066,"midi":71,"time":39.527367875,"velocity":0.7874015748031497},{"duration":0.18292650000000066,"midi":70,"time":39.710294375000004,"velocity":0.7874015748031497},{"duration":0.15243875000000173,"midi":69,"time":39.85892215625,"velocity":0.7874015748031497},{"duration":0.18292650000000066,"midi":68,"time":40.011360906250005,"velocity":0.7874015748031497},{"duration":0.15624971875000426,"midi":67,"time":40.1904764375,"velocity":0.7874015748031497},{"duration":0.18292650000000066,"midi":66,"time":40.342915187500004,"velocity":0.7874015748031497},{"duration":0.18292650000000066,"midi":65,"time":40.495353937500006,"velocity":0.7874015748031497},{"duration":0.2286581250000026,"midi":67,"time":51.8977724375,"velocity":0.7086614173228346},{"duration":0.20579231250000163,"midi":68,"time":52.095942812500006,"velocity":0.7086614173228346},{"duration":0.1600606874999997,"midi":67,"time":52.27886931250001,"velocity":0.7086614173228346},{"duration":0.20579231250000163,"midi":65,"time":52.46179581250001,"velocity":0.7086614173228346},{"duration":0.2286581249999955,"midi":67,"time":63.62031231250001,"velocity":0.7086614173228346},{"duration":0.2286581249999955,"midi":68,"time":63.82610462500001,"velocity":0.7086614173228346},{"duration":0.13719487500000582,"midi":67,"time":64.024275,"velocity":0.7086614173228346},{"duration":0.16006068749999258,"midi":65,"time":64.23006731250001,"velocity":0.7086614173228346},{"duration":0.7850595625000096,"midi":68,"time":65.6934793125,"velocity":1},{"duration":0.18292649999999355,"midi":68,"time":66.57000212500002,"velocity":1},{"duration":0.34298718750000035,"midi":67,"time":66.73006281250001,"velocity":1},{"duration":0.41158462500000326,"midi":68,"time":67.0654280625,"velocity":1},{"duration":0.20579231249999452,"midi":65,"time":67.454146875,"velocity":1},{"duration":0.18292650000000776,"midi":60,"time":67.6599391875,"velocity":1},{"duration":0.2286581249999955,"midi":65,"time":67.8123779375,"velocity":1},{"duration":0.3658530000000013,"midi":68,"time":68.01817025,"velocity":1},{"duration":0.38109687500001144,"midi":72,"time":68.38402325,"velocity":1},{"duration":1.2652416249999874,"midi":70,"time":68.76512012500001,"velocity":1},{"duration":0.24390200000001983,"midi":67,"time":70.03036175,"velocity":1},{"duration":0.41158462499998905,"midi":63,"time":70.22853212500002,"velocity":1},{"duration":0.3353652499999953,"midi":67,"time":70.59438512500002,"velocity":1},{"duration":0.3658530000000013,"midi":68,"time":70.92975037500001,"velocity":1},{"duration":0.4496943124999859,"midi":70,"time":71.27273756250001,"velocity":1},{"duration":0.5868891875000202,"midi":71,"time":71.722431875,"velocity":1},{"duration":0.2515239375000107,"midi":71,"time":72.3779185,"velocity":1},{"duration":0.35823106249999626,"midi":70,"time":72.58371081250002,"velocity":1},{"duration":0.9298763749999921,"midi":71,"time":72.96480768750001,"velocity":1},{"duration":0.38109687500001144,"midi":70,"time":73.87181825,"velocity":1},{"duration":0.3353652499999953,"midi":71,"time":74.23004931250001,"velocity":1},{"duration":1.0365834999999919,"midi":74,"time":74.59590231250002,"velocity":1},{"duration":0.18292649999999355,"midi":71,"time":74.64925587500001,"velocity":0.7874015748031497},{"duration":0.18292650000000776,"midi":70,"time":74.832182375,"velocity":0.7874015748031497},{"duration":0.15243875000001594,"midi":69,"time":74.98081015625,"velocity":0.7874015748031497},{"duration":0.18292649999999355,"midi":68,"time":75.13324890625002,"velocity":0.7874015748031497},{"duration":0.15624971875000426,"midi":67,"time":75.31236443750001,"velocity":0.7874015748031497},{"duration":0.18292650000000776,"midi":66,"time":75.46480318750001,"velocity":0.7874015748031497},{"duration":0.18292649999999355,"midi":65,"time":75.61724193750001,"velocity":0.7874015748031497}]},{"instrument":{"family":"piano","number":0,"name":"acoustic grand piano"},"notes":[{"duration":0.31249943749999964,"midi":55,"time":5.541148562500001,"velocity":0.7874015748031497},{"duration":0.2667678124999995,"midi":52,"time":5.564014375000001,"velocity":0.7874015748031497},{"duration":2.0121914999999992,"midi":48,"time":5.564014375000001,"velocity":0.7874015748031497},{"duration":0.8536569999999992,"midi":55,"time":5.914623500000001,"velocity":0.7874015748031497},{"duration":0.8536569999999992,"midi":52,"time":5.914623500000001,"velocity":0.7874015748031497},{"duration":1.9969476249999998,"midi":48,"time":5.914623500000001,"velocity":0.7874015748031497},{"duration":1.082315125,"midi":48,"time":7.202730937500001,"velocity":0.7874015748031497},{"duration":1.0442054374999996,"midi":56,"time":7.2408406250000015,"velocity":0.7874015748031497},{"duration":1.0213396249999986,"midi":53,"time":7.2408406250000015,"velocity":0.7874015748031497},{"duration":1.0213396250000004,"midi":56,"time":7.614315562500001,"velocity":0.7874015748031497},{"duration":1.0365835000000017,"midi":48,"time":7.6219375000000005,"velocity":0.7874015748031497},{"duration":1.00609575,"midi":53,"time":7.637181375000001,"velocity":0.7874015748031497},{"duration":1.0442054374999987,"midi":48,"time":7.972546625000001,"velocity":0.7874015748031497},{"duration":1.0213396249999986,"midi":56,"time":7.9954124375000015,"velocity":0.7874015748031497},{"duration":1.0213396249999986,"midi":53,"time":7.9954124375000015,"velocity":0.7874015748031497},{"duration":1.0213396249999995,"midi":56,"time":8.368887375000002,"velocity":0.7874015748031497},{"duration":1.0213396249999995,"midi":53,"time":8.368887375000002,"velocity":0.7874015748031497},{"duration":1.0442054375000005,"midi":48,"time":8.368887375000002,"velocity":0.7874015748031497},{"duration":1.0594493125,"midi":48,"time":8.727118437500001,"velocity":0.7874015748031497},{"duration":1.0442054375000005,"midi":56,"time":8.742362312500001,"velocity":0.7874015748031497},{"duration":1.0213396249999995,"midi":53,"time":8.742362312500001,"velocity":0.7874015748031497},{"duration":0.8993886250000003,"midi":56,"time":9.100593375,"velocity":0.7874015748031497},{"duration":0.8993886250000003,"midi":53,"time":9.100593375,"velocity":0.7874015748031497},{"duration":0.9832299375000009,"midi":48,"time":9.100593375,"velocity":0.7874015748031497},{"duration":1.8978624375000006,"midi":56,"time":9.4740683125,"velocity":0.7874015748031497},{"duration":3.9634075000000006,"midi":53,"time":9.4740683125,"velocity":0.7874015748031497},{"duration":1.0213396250000013,"midi":48,"time":9.4740683125,"velocity":0.7874015748031497},{"duration":6.5320004375000025,"midi":56,"time":9.847543250000001,"velocity":0.7874015748031497},{"duration":3.925297812500002,"midi":53,"time":9.847543250000001,"velocity":0.7874015748031497},{"duration":1.3795706874999993,"midi":48,"time":9.847543250000001,"velocity":0.7874015748031497},{"duration":0.28963362500000045,"midi":58,"time":10.205774312500001,"velocity":0.7874015748031497},{"duration":1.3795706875000011,"midi":48,"time":10.205774312500001,"velocity":0.7874015748031497},{"duration":0.26676781250000126,"midi":55,"time":10.228640125,"velocity":0.7874015748031497},{"duration":0.2972555625000002,"midi":58,"time":10.556383437500001,"velocity":0.7874015748031497},{"duration":1.3948145625000006,"midi":48,"time":10.564005375,"velocity":0.7874015748031497},{"duration":0.2743897499999992,"midi":55,"time":10.579249250000002,"velocity":0.7874015748031497},{"duration":0.28963362500000045,"midi":58,"time":10.9374803125,"velocity":0.7874015748031497},{"duration":0.2972555625000002,"midi":55,"time":10.952724187500001,"velocity":0.7874015748031497},{"duration":0.1905484375000004,"midi":58,"time":11.326199125,"velocity":0.7874015748031497},{"duration":0.20579231249999985,"midi":55,"time":11.333821062500002,"velocity":0.7874015748031497},{"duration":1.3719487499999978,"midi":48,"time":11.333821062500002,"velocity":0.7874015748031497},{"duration":5.358222062499999,"midi":56,"time":11.349064937500001,"velocity":0.7874015748031497},{"duration":0.045731625000000165,"midi":54,"time":11.37193075,"velocity":0.7874015748031497},{"duration":1.791155312499999,"midi":48,"time":11.6691863125,"velocity":0.7874015748031497},{"duration":0.2743897499999992,"midi":58,"time":11.684430187500002,"velocity":0.7874015748031497},{"duration":0.2743897499999992,"midi":55,"time":11.684430187500002,"velocity":0.7874015748031497},{"duration":2.1493863750000006,"midi":48,"time":12.019795437500001,"velocity":0.7874015748031497},{"duration":0.28963362500000045,"midi":58,"time":12.065527062500001,"velocity":0.7874015748031497},{"duration":0.28963362500000045,"midi":55,"time":12.065527062500001,"velocity":0.7874015748031497},{"duration":0.2667678124999977,"midi":58,"time":12.439002000000002,"velocity":0.7874015748031497},{"duration":0.2667678124999977,"midi":55,"time":12.439002000000002,"velocity":0.7874015748031497},{"duration":1.6692043124999998,"midi":48,"time":12.728635625,"velocity":0.7874015748031497},{"duration":0.18292650000000066,"midi":58,"time":12.7515014375,"velocity":0.7874015748031497},{"duration":0.1676826250000012,"midi":55,"time":12.7515014375,"velocity":0.7874015748031497},{"duration":1.0213396249999995,"midi":53,"time":13.124976375000001,"velocity":0.7874015748031497},{"duration":0.31249943749999787,"midi":58,"time":13.147842187500002,"velocity":0.7874015748031497},{"duration":1.3795706874999976,"midi":48,"time":13.475585500000003,"velocity":0.7874015748031497},{"duration":0.2896336249999987,"midi":58,"time":13.498451312500002,"velocity":0.7874015748031497},{"duration":0.8384131249999989,"midi":53,"time":13.498451312500002,"velocity":0.7874015748031497},{"duration":0.3353652500000006,"midi":58,"time":13.833816562500001,"velocity":0.7874015748031497},{"duration":2.4999955000000007,"midi":53,"time":13.856682375000002,"velocity":0.7874015748031497},{"duration":0.12957293749999899,"midi":58,"time":14.207291500000002,"velocity":0.7874015748031497},{"duration":2.4847516249999995,"midi":53,"time":14.207291500000002,"velocity":0.7874015748031497},{"duration":1.0442054375000005,"midi":48,"time":14.207291500000002,"velocity":0.7874015748031497},{"duration":1.067071249999998,"midi":48,"time":14.496925125000002,"velocity":0.7874015748031497},{"duration":0.2972555625000002,"midi":55,"time":14.580766437500001,"velocity":0.7874015748031497},{"duration":0.2743897499999992,"midi":52,"time":14.580766437500001,"velocity":0.7874015748031497},{"duration":0.31249943749999964,"midi":55,"time":14.938997500000003,"velocity":0.7874015748031497},{"duration":0.31249943749999964,"midi":52,"time":14.938997500000003,"velocity":0.7874015748031497},{"duration":1.3948145624999988,"midi":48,"time":14.938997500000003,"velocity":0.7874015748031497},{"duration":0.2896336250000022,"midi":55,"time":15.3124724375,"velocity":0.7874015748031497},{"duration":0.274389750000001,"midi":52,"time":15.3124724375,"velocity":0.7874015748031497},{"duration":1.3795706875000011,"midi":48,"time":15.3124724375,"velocity":0.7874015748031497},{"duration":0.14481681249999845,"midi":55,"time":15.647837687500003,"velocity":0.7874015748031497},{"duration":0.14481681249999845,"midi":52,"time":15.647837687500003,"velocity":0.7874015748031497},{"duration":1.4557900624999984,"midi":48,"time":15.647837687500003,"velocity":0.7874015748031497},{"duration":1.0442054375000005,"midi":56,"time":16.0441784375,"velocity":0.7874015748031497},{"duration":1.021339625000003,"midi":53,"time":16.0441784375,"velocity":0.7874015748031497},{"duration":0.9832299375000026,"midi":56,"time":16.417653375,"velocity":0.7874015748031497},{"duration":0.9832299375000026,"midi":53,"time":16.417653375,"velocity":0.7874015748031497},{"duration":1.0213396249999995,"midi":48,"time":16.417653375,"velocity":0.7874015748031497},{"duration":2.522861312499998,"midi":56,"time":16.791128312500003,"velocity":0.7874015748031497},{"duration":2.5076174374999987,"midi":53,"time":16.791128312500003,"velocity":0.7874015748031497},{"duration":1.00609575,"midi":48,"time":16.791128312500003,"velocity":0.7874015748031497},{"duration":2.4618858125000003,"midi":56,"time":17.164603250000003,"velocity":0.7874015748031497},{"duration":2.4771296875000033,"midi":53,"time":17.1722251875,"velocity":0.7874015748031497},{"duration":1.0365835000000025,"midi":48,"time":17.1722251875,"velocity":0.7874015748031497},{"duration":1.0442054375000005,"midi":48,"time":17.522834312500002,"velocity":0.7874015748031497},{"duration":0.2667678124999995,"midi":55,"time":17.545700125000003,"velocity":0.7874015748031497},{"duration":0.22865812499999905,"midi":52,"time":17.568565937500004,"velocity":0.7874015748031497},{"duration":0.28963362500000045,"midi":55,"time":17.919175062500003,"velocity":0.7874015748031497},{"duration":0.28963362500000045,"midi":52,"time":17.919175062500003,"velocity":0.7874015748031497},{"duration":1.3948145624999988,"midi":48,"time":17.919175062500003,"velocity":0.7874015748031497},{"duration":0.3124994375000014,"midi":52,"time":18.2545403125,"velocity":0.7874015748031497},{"duration":1.3719487500000014,"midi":48,"time":18.2545403125,"velocity":0.7874015748031497},{"duration":0.28963362500000045,"midi":55,"time":18.277406125000002,"velocity":0.7874015748031497},{"duration":0.2515239375,"midi":55,"time":18.62801525,"velocity":0.7874015748031497},{"duration":0.22865812499999905,"midi":52,"time":18.62801525,"velocity":0.7874015748031497},{"duration":1.3948145625000024,"midi":48,"time":18.62801525,"velocity":0.7874015748031497},{"duration":0.9832299375000026,"midi":56,"time":19.024356,"velocity":0.7874015748031497},{"duration":0.9603641250000017,"midi":53,"time":19.024356,"velocity":0.7874015748031497},{"duration":0.9756080000000011,"midi":56,"time":19.3825870625,"velocity":0.7874015748031497},{"duration":0.9527421875000037,"midi":53,"time":19.3825870625,"velocity":0.7874015748031497},{"duration":0.9756080000000011,"midi":48,"time":19.3825870625,"velocity":0.7874015748031497},{"duration":1.0442054375000005,"midi":48,"time":19.695086500000002,"velocity":0.7874015748031497},{"duration":1.0213396249999995,"midi":56,"time":19.733196187500003,"velocity":0.7874015748031497},{"duration":0.9984738124999986,"midi":53,"time":19.733196187500003,"velocity":0.7874015748031497},{"duration":1.021339625000003,"midi":48,"time":20.0685614375,"velocity":0.7874015748031497},{"duration":0.9832299375000026,"midi":56,"time":20.106671125000002,"velocity":0.7874015748031497},{"duration":0.9756080000000047,"midi":53,"time":20.1142930625,"velocity":0.7874015748031497},{"duration":1.0442054375000005,"midi":48,"time":20.4649021875,"velocity":0.7874015748031497},{"duration":0.9984738124999986,"midi":56,"time":20.487768000000003,"velocity":0.7874015748031497},{"duration":0.9756079999999976,"midi":53,"time":20.487768000000003,"velocity":0.7874015748031497},{"duration":0.8612789374999963,"midi":56,"time":20.838377125000004,"velocity":0.7874015748031497},{"duration":0.8384131249999989,"midi":53,"time":20.838377125000004,"velocity":0.7874015748031497},{"duration":0.9222544374999977,"midi":48,"time":20.838377125000004,"velocity":0.7874015748031497},{"duration":1.0899370624999989,"midi":48,"time":21.150876562500002,"velocity":0.7874015748031497},{"duration":6.882609562500001,"midi":56,"time":21.173742375000003,"velocity":0.7874015748031497},{"duration":3.940541687499998,"midi":53,"time":21.173742375000003,"velocity":0.7874015748031497},{"duration":6.867365687500001,"midi":56,"time":21.547217312500003,"velocity":0.7874015748031497},{"duration":1.4024365000000003,"midi":48,"time":21.547217312500003,"velocity":0.7874015748031497},{"duration":3.9024319999999975,"midi":53,"time":21.570083125000004,"velocity":0.7874015748031497},{"duration":1.4786558749999976,"midi":48,"time":21.821607062500004,"velocity":0.7874015748031497},{"duration":0.21341424999999958,"midi":58,"time":21.943558062500003,"velocity":0.7874015748031497},{"duration":0.22865812499999905,"midi":55,"time":21.943558062500003,"velocity":0.7874015748031497},{"duration":0.22865812499999905,"midi":58,"time":22.301789125000003,"velocity":0.7874015748031497},{"duration":0.22865812499999905,"midi":55,"time":22.301789125000003,"velocity":0.7874015748031497},{"duration":1.3719487499999978,"midi":48,"time":22.301789125000003,"velocity":0.7874015748031497},{"duration":0.274389750000001,"midi":55,"time":22.65239825,"velocity":0.7874015748031497},{"duration":0.22865812499999905,"midi":58,"time":22.675264062500002,"velocity":0.7874015748031497},{"duration":0.9984738124999986,"midi":48,"time":23.010629312500004,"velocity":0.7874015748031497},{"duration":0.2515239375,"midi":58,"time":23.025873187500004,"velocity":0.7874015748031497},{"duration":0.2286581250000026,"midi":55,"time":23.048739,"velocity":0.7874015748031497},{"duration":0.2667678124999995,"midi":58,"time":23.38410425,"velocity":0.7874015748031497},{"duration":0.9832299375000026,"midi":48,"time":23.38410425,"velocity":0.7874015748031497},{"duration":0.25152393750000357,"midi":55,"time":23.4069700625,"velocity":0.7874015748031497},{"duration":0.9603641249999981,"midi":48,"time":23.719469500000002,"velocity":0.7874015748031497},{"duration":0.26676781250000303,"midi":58,"time":23.7423353125,"velocity":0.7874015748031497},{"duration":0.26676781250000303,"midi":55,"time":23.7423353125,"velocity":0.7874015748031497},{"duration":1.0594493125,"midi":48,"time":24.05483475,"velocity":0.7874015748031497},{"duration":0.274389750000001,"midi":58,"time":24.070078625000004,"velocity":0.7874015748031497},{"duration":0.28963362500000045,"midi":55,"time":24.077700562500002,"velocity":0.7874015748031497},{"duration":0.20579231249999808,"midi":58,"time":24.4511755,"velocity":0.7874015748031497},{"duration":0.1676826250000012,"midi":55,"time":24.4511755,"velocity":0.7874015748031497},{"duration":1.0365835000000025,"midi":48,"time":24.4511755,"velocity":0.7874015748031497},{"duration":1.0670712499999944,"midi":48,"time":24.778918812500006,"velocity":0.7874015748031497},{"duration":0.2896336249999969,"midi":58,"time":24.824650437500004,"velocity":0.7874015748031497},{"duration":0.998473812499995,"midi":53,"time":24.824650437500004,"velocity":0.7874015748031497},{"duration":0.2972555624999984,"midi":58,"time":25.175259562500003,"velocity":0.7874015748031497},{"duration":0.9222544374999977,"midi":53,"time":25.175259562500003,"velocity":0.7874015748031497},{"duration":0.9527421875000037,"midi":48,"time":25.1828815,"velocity":0.7874015748031497},{"duration":1.044205437499997,"midi":48,"time":25.510624812500005,"velocity":0.7874015748031497},{"duration":0.3124994374999943,"midi":58,"time":25.533490625000006,"velocity":0.7874015748031497},{"duration":2.5457271249999955,"midi":53,"time":25.533490625000006,"velocity":0.7874015748031497},{"duration":0.16768262499999764,"midi":58,"time":25.9069655625,"velocity":0.7874015748031497},{"duration":2.484751625000005,"midi":53,"time":25.9069655625,"velocity":0.7874015748031497},{"duration":1.044205437500004,"midi":48,"time":25.9069655625,"velocity":0.7874015748031497},{"duration":0.27438974999999743,"midi":55,"time":26.303306312500002,"velocity":0.7874015748031497},{"duration":0.2515239375,"midi":52,"time":26.303306312500002,"velocity":0.7874015748031497},{"duration":0.9832299374999991,"midi":48,"time":26.303306312500002,"velocity":0.7874015748031497},{"duration":0.3353652500000024,"midi":55,"time":26.661537375,"velocity":0.7874015748031497},{"duration":0.3124994375000014,"midi":52,"time":26.661537375,"velocity":0.7874015748031497},{"duration":1.3948145625000024,"midi":48,"time":26.661537375,"velocity":0.7874015748031497},{"duration":0.29725556250000196,"midi":55,"time":27.0121465,"velocity":0.7874015748031497},{"duration":1.4024365000000039,"midi":48,"time":27.0121465,"velocity":0.7874015748031497},{"duration":0.2515239375,"midi":52,"time":27.0350123125,"velocity":0.7874015748031497},{"duration":1.4405461875000007,"midi":48,"time":27.347511750000002,"velocity":0.7874015748031497},{"duration":0.20579231249999808,"midi":55,"time":27.370377562500003,"velocity":0.7874015748031497},{"duration":0.20579231249999808,"midi":52,"time":27.370377562500003,"velocity":0.7874015748031497},{"duration":1.021339625000003,"midi":56,"time":27.7667183125,"velocity":0.7874015748031497},{"duration":0.9984738125000021,"midi":53,"time":27.7667183125,"velocity":0.7874015748031497},{"duration":0.9222544374999977,"midi":56,"time":28.117327437500006,"velocity":0.7874015748031497},{"duration":0.9222544374999977,"midi":53,"time":28.117327437500006,"velocity":0.7874015748031497},{"duration":0.9451202499999987,"midi":48,"time":28.117327437500006,"velocity":0.7874015748031497},{"duration":0.7317059999999991,"midi":48,"time":28.4755585,"velocity":0.7874015748031497},{"duration":2.4771296875000033,"midi":56,"time":28.498424312500003,"velocity":0.7874015748031497},{"duration":2.4771296875000033,"midi":53,"time":28.498424312500003,"velocity":0.7874015748031497},{"duration":2.499995499999997,"midi":56,"time":28.871899250000006,"velocity":0.7874015748031497},{"duration":2.4847516249999977,"midi":53,"time":28.871899250000006,"velocity":0.7874015748031497},{"duration":0.6478646874999967,"midi":48,"time":28.871899250000006,"velocity":0.7874015748031497},{"duration":0.7545718125,"midi":48,"time":29.161532875000002,"velocity":0.7874015748031497},{"duration":0.9832299374999991,"midi":48,"time":29.245374187500005,"velocity":0.7874015748031497},{"duration":0.26676781250000303,"midi":55,"time":29.268240000000002,"velocity":0.7874015748031497},{"duration":0.26676781250000303,"midi":52,"time":29.268240000000002,"velocity":0.7874015748031497},{"duration":0.29725556250000196,"midi":55,"time":29.618849125,"velocity":0.7874015748031497},{"duration":0.29725556250000196,"midi":52,"time":29.618849125,"velocity":0.7874015748031497},{"duration":0.8765228124999993,"midi":48,"time":29.626471062500006,"velocity":0.7874015748031497},{"duration":0.2515239375,"midi":55,"time":29.977080187500004,"velocity":0.7874015748031497},{"duration":0.2515239375,"midi":52,"time":29.977080187500004,"velocity":0.7874015748031497},{"duration":0.9756080000000011,"midi":48,"time":29.977080187500004,"velocity":0.7874015748031497},{"duration":0.15243875000000173,"midi":55,"time":30.327689312500002,"velocity":0.7874015748031497},{"duration":0.14481681250000022,"midi":52,"time":30.335311250000004,"velocity":0.7874015748031497},{"duration":1.0213396249999995,"midi":48,"time":30.335311250000004,"velocity":0.7874015748031497},{"duration":1.1509125624999967,"midi":48,"time":30.541103562500005,"velocity":0.7874015748031497},{"duration":0.9984738125000021,"midi":56,"time":30.685920375000002,"velocity":0.7874015748031497},{"duration":0.9984738125000021,"midi":53,"time":30.685920375000002,"velocity":0.7874015748031497},{"duration":1.028961562500001,"midi":56,"time":31.0365295,"velocity":0.7874015748031497},{"duration":1.021339624999996,"midi":48,"time":31.044151437500005,"velocity":0.7874015748031497},{"duration":1.00609575,"midi":53,"time":31.0593953125,"velocity":0.7874015748031497},{"duration":0.9984738125000021,"midi":56,"time":31.417626375000005,"velocity":0.7874015748031497},{"duration":1.044205437500004,"midi":48,"time":31.417626375000005,"velocity":0.7874015748031497},{"duration":0.9984738125000057,"midi":53,"time":31.440492187500002,"velocity":0.7874015748031497},{"duration":0.9832299375000026,"midi":56,"time":31.7911013125,"velocity":0.7874015748031497},{"duration":1.0060957500000036,"midi":48,"time":31.7911013125,"velocity":0.7874015748031497},{"duration":0.9603641250000017,"midi":53,"time":31.813967125,"velocity":0.7874015748031497},{"duration":1.021339625000003,"midi":53,"time":32.149332375,"velocity":0.7874015748031497},{"duration":1.044205437500004,"midi":48,"time":32.149332375,"velocity":0.7874015748031497},{"duration":0.9984738125000021,"midi":56,"time":32.1721981875,"velocity":0.7874015748031497},{"duration":1.067071250000005,"midi":48,"time":32.4999415,"velocity":0.7874015748031497},{"duration":0.8536570000000054,"midi":56,"time":32.545673125,"velocity":0.7874015748031497},{"duration":0.8307911875000045,"midi":53,"time":32.545673125,"velocity":0.7874015748031497},{"duration":10.160042687500003,"midi":56,"time":32.873416437500005,"velocity":0.7874015748031497},{"duration":3.9176758750000005,"midi":53,"time":32.881038375,"velocity":0.7874015748031497},{"duration":1.082315125000001,"midi":48,"time":32.881038375,"velocity":0.7874015748031497},{"duration":1.082315125000001,"midi":48,"time":33.2316475,"velocity":0.7874015748031497},{"duration":10.152420749999997,"midi":56,"time":33.2545133125,"velocity":0.7874015748031497},{"duration":6.5243785000000045,"midi":53,"time":33.2545133125,"velocity":0.7874015748031497},{"duration":1.021339624999996,"midi":48,"time":33.62798825000001,"velocity":0.7874015748031497},{"duration":0.3124994375000014,"midi":58,"time":33.6508540625,"velocity":0.7874015748031497},{"duration":0.28963362500000045,"midi":55,"time":33.6508540625,"velocity":0.7874015748031497},{"duration":1.00609575,"midi":48,"time":34.0014631875,"velocity":0.7874015748031497},{"duration":0.2667678125000066,"midi":58,"time":34.024329,"velocity":0.7874015748031497},{"duration":0.2667678125000066,"midi":55,"time":34.024329,"velocity":0.7874015748031497},{"duration":1.021339624999996,"midi":48,"time":34.359694250000004,"velocity":0.7874015748031497},{"duration":0.27438975000000454,"midi":58,"time":34.374938125,"velocity":0.7874015748031497},{"duration":0.2667678124999995,"midi":55,"time":34.382560062500005,"velocity":0.7874015748031497},{"duration":1.044205437500004,"midi":48,"time":34.710303375,"velocity":0.7874015748031497},{"duration":0.25152393750000357,"midi":58,"time":34.7331691875,"velocity":0.7874015748031497},{"duration":0.25152393750000357,"midi":55,"time":34.7331691875,"velocity":0.7874015748031497},{"duration":1.2576196875000036,"midi":48,"time":35.0837783125,"velocity":0.7874015748031497},{"duration":0.25152393749999646,"midi":58,"time":35.106644125,"velocity":0.7874015748031497},{"duration":0.27438974999999743,"midi":55,"time":35.106644125,"velocity":0.7874015748031497},{"duration":0.2667678124999995,"midi":58,"time":35.464875187500006,"velocity":0.7874015748031497},{"duration":0.2667678124999995,"midi":55,"time":35.464875187500006,"velocity":0.7874015748031497},{"duration":1.7073139999999967,"midi":48,"time":35.464875187500006,"velocity":0.7874015748031497},{"duration":1.7682894999999945,"midi":48,"time":35.80024043750001,"velocity":0.7874015748031497},{"duration":0.25152393749999646,"midi":58,"time":35.815484312500004,"velocity":0.7874015748031497},{"duration":0.27438974999999743,"midi":55,"time":35.815484312500004,"velocity":0.7874015748031497},{"duration":0.12195100000000281,"midi":58,"time":36.173715375,"velocity":0.7874015748031497},{"duration":0.09908518750000184,"midi":55,"time":36.1965811875,"velocity":0.7874015748031497},{"duration":1.478655874999994,"midi":48,"time":36.46334900000001,"velocity":0.7874015748031497},{"duration":3.612798375000004,"midi":53,"time":36.5243245,"velocity":0.7874015748031497},{"duration":0.27438975000000454,"midi":59,"time":36.5471903125,"velocity":0.7874015748031497},{"duration":0.2972555624999984,"midi":55,"time":36.897799437500005,"velocity":0.7874015748031497},{"duration":0.28963362499999334,"midi":59,"time":36.920665250000006,"velocity":0.7874015748031497},{"duration":0.32774331250000444,"midi":59,"time":37.2788963125,"velocity":0.7874015748031497},{"duration":0.3124994375000014,"midi":55,"time":37.2788963125,"velocity":0.7874015748031497},{"duration":1.036583500000006,"midi":48,"time":37.2788963125,"velocity":0.7874015748031497},{"duration":0.28963362499999334,"midi":59,"time":37.65237125000001,"velocity":0.7874015748031497},{"duration":0.28963362499999334,"midi":55,"time":37.65237125000001,"velocity":0.7874015748031497},{"duration":1.021339624999996,"midi":48,"time":37.65237125000001,"velocity":0.7874015748031497},{"duration":0.3353652499999953,"midi":59,"time":38.00298037500001,"velocity":0.7874015748031497},{"duration":0.3124994375000014,"midi":55,"time":38.00298037500001,"velocity":0.7874015748031497},{"duration":0.9984738125000021,"midi":48,"time":38.010602312500005,"velocity":0.7874015748031497},{"duration":0.27438975000000454,"midi":59,"time":38.399321125,"velocity":0.7874015748031497},{"duration":0.27438975000000454,"midi":55,"time":38.399321125,"velocity":0.7874015748031497},{"duration":0.8917666875000023,"midi":48,"time":38.406943062500005,"velocity":0.7874015748031497},{"duration":0.25152393750000357,"midi":59,"time":38.7575521875,"velocity":0.7874015748031497},{"duration":0.25152393750000357,"midi":55,"time":38.7575521875,"velocity":0.7874015748031497},{"duration":1.021339625000003,"midi":48,"time":38.7575521875,"velocity":0.7874015748031497},{"duration":0.2286581250000026,"midi":59,"time":39.070051625000005,"velocity":0.7874015748031497},{"duration":0.20579231250000163,"midi":55,"time":39.092917437500006,"velocity":0.7874015748031497},{"duration":1.044205437499997,"midi":48,"time":39.092917437500006,"velocity":0.7874015748031497},{"duration":1.067071250000005,"midi":48,"time":39.405416875,"velocity":0.7874015748031497},{"duration":1.00609575,"midi":53,"time":39.489258187500006,"velocity":0.7874015748031497},{"duration":0.2667678124999995,"midi":60,"time":39.51212400000001,"velocity":0.7874015748031497},{"duration":0.08384131249999882,"midi":59,"time":39.51212400000001,"velocity":0.7874015748031497},{"duration":0.2972555624999984,"midi":60,"time":39.839867312500004,"velocity":0.7874015748031497},{"duration":0.9146324999999962,"midi":53,"time":39.84748925000001,"velocity":0.7874015748031497},{"duration":0.9374983124999972,"midi":48,"time":39.84748925000001,"velocity":0.7874015748031497},{"duration":0.28963362500000045,"midi":60,"time":40.19809837500001,"velocity":0.7874015748031497},{"duration":2.8353607499999995,"midi":53,"time":40.19809837500001,"velocity":0.7874015748031497},{"duration":0.9603641249999981,"midi":48,"time":40.19809837500001,"velocity":0.7874015748031497},{"duration":0.19054843750000572,"midi":60,"time":40.5715733125,"velocity":0.7874015748031497},{"duration":2.8124949375000057,"midi":53,"time":40.5715733125,"velocity":0.7874015748031497},{"duration":0.9756080000000011,"midi":48,"time":40.579195250000005,"velocity":0.7874015748031497},{"duration":1.036583500000006,"midi":48,"time":40.8916946875,"velocity":0.7874015748031497},{"duration":0.2286581250000026,"midi":55,"time":40.929804375,"velocity":0.7874015748031497},{"duration":0.20579231250000163,"midi":52,"time":40.952670187500004,"velocity":0.7874015748031497},{"duration":0.3124994374999943,"midi":55,"time":41.265169625000006,"velocity":0.7874015748031497},{"duration":0.3124994374999943,"midi":52,"time":41.265169625000006,"velocity":0.7874015748031497},{"duration":1.082315125000001,"midi":48,"time":41.265169625000006,"velocity":0.7874015748031497},{"duration":1.4176803750000033,"midi":48,"time":41.615778750000004,"velocity":0.7874015748031497},{"duration":0.28963362500000045,"midi":55,"time":41.638644562500005,"velocity":0.7874015748031497},{"duration":0.28963362500000045,"midi":52,"time":41.638644562500005,"velocity":0.7874015748031497},{"duration":0.3506091249999983,"midi":55,"time":41.99687562500001,"velocity":0.7874015748031497},{"duration":0.32774331249999733,"midi":52,"time":41.99687562500001,"velocity":0.7874015748031497},{"duration":1.4100584374999912,"midi":48,"time":41.99687562500001,"velocity":0.7874015748031497},{"duration":1.021339625000003,"midi":56,"time":42.7362035625,"velocity":0.7874015748031497},{"duration":1.036583500000006,"midi":48,"time":42.7438255,"velocity":0.7874015748031497},{"duration":1.00609575,"midi":53,"time":42.759069375,"velocity":0.7874015748031497},{"duration":1.044205437499997,"midi":48,"time":43.094434625000005,"velocity":0.7874015748031497},{"duration":1.021339624999996,"midi":56,"time":43.117300437500006,"velocity":0.7874015748031497},{"duration":1.021339624999996,"midi":53,"time":43.117300437500006,"velocity":0.7874015748031497},{"duration":1.021339625000003,"midi":56,"time":43.490775375000005,"velocity":0.7874015748031497},{"duration":1.021339625000003,"midi":53,"time":43.490775375000005,"velocity":0.7874015748031497},{"duration":1.044205437500004,"midi":48,"time":43.490775375000005,"velocity":0.7874015748031497},{"duration":1.0594493124999929,"midi":48,"time":43.84900643750001,"velocity":0.7874015748031497},{"duration":1.044205437499997,"midi":56,"time":43.864250312500005,"velocity":0.7874015748031497},{"duration":1.021339625000003,"midi":53,"time":43.864250312500005,"velocity":0.7874015748031497},{"duration":0.8993886249999932,"midi":56,"time":44.22248137500001,"velocity":0.7874015748031497},{"duration":0.8993886249999932,"midi":53,"time":44.22248137500001,"velocity":0.7874015748031497},{"duration":0.9832299374999991,"midi":48,"time":44.22248137500001,"velocity":0.7874015748031497},{"duration":1.8978624375000024,"midi":56,"time":44.5959563125,"velocity":0.7874015748031497},{"duration":3.9634075000000024,"midi":53,"time":44.5959563125,"velocity":0.7874015748031497},{"duration":1.021339625000003,"midi":48,"time":44.5959563125,"velocity":0.7874015748031497},{"duration":6.5320004375000025,"midi":56,"time":44.96943125000001,"velocity":0.7874015748031497},{"duration":3.9252978125000055,"midi":53,"time":44.96943125000001,"velocity":0.7874015748031497},{"duration":1.3795706874999993,"midi":48,"time":44.96943125000001,"velocity":0.7874015748031497},{"duration":0.28963362500000045,"midi":58,"time":45.3276623125,"velocity":0.7874015748031497},{"duration":1.3795706875000064,"midi":48,"time":45.3276623125,"velocity":0.7874015748031497},{"duration":0.2667678124999995,"midi":55,"time":45.350528125000004,"velocity":0.7874015748031497},{"duration":0.2972555624999984,"midi":58,"time":45.67827143750001,"velocity":0.7874015748031497},{"duration":1.3948145625000024,"midi":48,"time":45.685893375000006,"velocity":0.7874015748031497},{"duration":0.27438974999999743,"midi":55,"time":45.70113725000001,"velocity":0.7874015748031497},{"duration":0.28963362500000045,"midi":58,"time":46.059368312500006,"velocity":0.7874015748031497},{"duration":0.2972555625000055,"midi":55,"time":46.0746121875,"velocity":0.7874015748031497},{"duration":0.19054843750000572,"midi":58,"time":46.448087125,"velocity":0.7874015748031497},{"duration":0.20579231250000163,"midi":55,"time":46.455709062500006,"velocity":0.7874015748031497},{"duration":1.3719487499999943,"midi":48,"time":46.455709062500006,"velocity":0.7874015748031497},{"duration":5.358222062499998,"midi":56,"time":46.4709529375,"velocity":0.7874015748031497},{"duration":0.04573162500000194,"midi":54,"time":46.49381875,"velocity":0.7874015748031497},{"duration":1.7911553125000026,"midi":48,"time":46.7910743125,"velocity":0.7874015748031497},{"duration":0.27438975000000454,"midi":58,"time":46.806318187500004,"velocity":0.7874015748031497},{"duration":0.27438975000000454,"midi":55,"time":46.806318187500004,"velocity":0.7874015748031497},{"duration":2.149386375000006,"midi":48,"time":47.1416834375,"velocity":0.7874015748031497},{"duration":0.28963362500000756,"midi":58,"time":47.1874150625,"velocity":0.7874015748031497},{"duration":0.28963362500000756,"midi":55,"time":47.1874150625,"velocity":0.7874015748031497},{"duration":0.2667678124999924,"midi":58,"time":47.56089000000001,"velocity":0.7874015748031497},{"duration":0.2667678124999924,"midi":55,"time":47.56089000000001,"velocity":0.7874015748031497},{"duration":1.6692043124999998,"midi":48,"time":47.850523625,"velocity":0.7874015748031497},{"duration":0.18292650000000066,"midi":58,"time":47.8733894375,"velocity":0.7874015748031497},{"duration":0.16768262500000475,"midi":55,"time":47.8733894375,"velocity":0.7874015748031497},{"duration":1.021339624999996,"midi":53,"time":48.24686437500001,"velocity":0.7874015748031497},{"duration":0.3124994375000014,"midi":58,"time":48.2697301875,"velocity":0.7874015748031497},{"duration":1.3795706874999922,"midi":48,"time":48.59747350000001,"velocity":0.7874015748031497},{"duration":0.28963362500000045,"midi":58,"time":48.62033931250001,"velocity":0.7874015748031497},{"duration":0.8384131249999953,"midi":53,"time":48.62033931250001,"velocity":0.7874015748031497},{"duration":0.3353652500000024,"midi":58,"time":48.9557045625,"velocity":0.7874015748031497},{"duration":2.4999955000000043,"midi":53,"time":48.978570375000004,"velocity":0.7874015748031497},{"duration":0.12957293749999366,"midi":58,"time":49.32917950000001,"velocity":0.7874015748031497},{"duration":2.484751624999994,"midi":53,"time":49.32917950000001,"velocity":0.7874015748031497},{"duration":1.044205437499997,"midi":48,"time":49.32917950000001,"velocity":0.7874015748031497},{"duration":1.067071249999998,"midi":48,"time":49.618813125,"velocity":0.7874015748031497},{"duration":0.2972555624999984,"midi":55,"time":49.7026544375,"velocity":0.7874015748031497},{"duration":0.27438974999999743,"midi":52,"time":49.7026544375,"velocity":0.7874015748031497},{"duration":0.3124994374999943,"midi":55,"time":50.06088550000001,"velocity":0.7874015748031497},{"duration":0.3124994374999943,"midi":52,"time":50.06088550000001,"velocity":0.7874015748031497},{"duration":1.3948145624999952,"midi":48,"time":50.06088550000001,"velocity":0.7874015748031497},{"duration":0.28963362500000756,"midi":55,"time":50.434360437500004,"velocity":0.7874015748031497},{"duration":0.27438974999999743,"midi":52,"time":50.434360437500004,"velocity":0.7874015748031497},{"duration":1.3795706874999993,"midi":48,"time":50.434360437500004,"velocity":0.7874015748031497},{"duration":0.14481681249999667,"midi":55,"time":50.76972568750001,"velocity":0.7874015748031497},{"duration":0.14481681249999667,"midi":52,"time":50.76972568750001,"velocity":0.7874015748031497},{"duration":1.4557900625000002,"midi":48,"time":50.76972568750001,"velocity":0.7874015748031497},{"duration":1.0442054375000112,"midi":56,"time":51.1660664375,"velocity":0.7874015748031497},{"duration":1.0213396250000102,"midi":53,"time":51.1660664375,"velocity":0.7874015748031497},{"duration":0.9832299374999991,"midi":56,"time":51.539541375000006,"velocity":0.7874015748031497},{"duration":0.9832299374999991,"midi":53,"time":51.539541375000006,"velocity":0.7874015748031497},{"duration":1.021339624999996,"midi":48,"time":51.539541375000006,"velocity":0.7874015748031497},{"duration":2.522861312499991,"midi":56,"time":51.91301631250001,"velocity":0.7874015748031497},{"duration":2.507617437499995,"midi":53,"time":51.91301631250001,"velocity":0.7874015748031497},{"duration":1.00609575,"midi":48,"time":51.91301631250001,"velocity":0.7874015748031497},{"duration":2.4618858125000074,"midi":56,"time":52.286491250000005,"velocity":0.7874015748031497},{"duration":2.4771296875000104,"midi":53,"time":52.2941131875,"velocity":0.7874015748031497},{"duration":1.036583500000006,"midi":48,"time":52.2941131875,"velocity":0.7874015748031497},{"duration":1.044205437499997,"midi":48,"time":52.64472231250001,"velocity":0.7874015748031497},{"duration":0.2667678124999995,"midi":55,"time":52.66758812500001,"velocity":0.7874015748031497},{"duration":0.2286581250000026,"midi":52,"time":52.69045393750001,"velocity":0.7874015748031497},{"duration":0.28963362500000756,"midi":55,"time":53.0410630625,"velocity":0.7874015748031497},{"duration":0.28963362500000756,"midi":52,"time":53.0410630625,"velocity":0.7874015748031497},{"duration":1.3948145625000024,"midi":48,"time":53.0410630625,"velocity":0.7874015748031497},{"duration":0.3124994374999943,"midi":52,"time":53.37642831250001,"velocity":0.7874015748031497},{"duration":1.3719487500000014,"midi":48,"time":53.37642831250001,"velocity":0.7874015748031497},{"duration":0.28963362499999334,"midi":55,"time":53.39929412500001,"velocity":0.7874015748031497},{"duration":0.25152393749999646,"midi":55,"time":53.74990325,"velocity":0.7874015748031497},{"duration":0.2286581250000026,"midi":52,"time":53.74990325,"velocity":0.7874015748031497},{"duration":1.3948145625000024,"midi":48,"time":53.74990325,"velocity":0.7874015748031497},{"duration":0.9832299375000062,"midi":56,"time":54.146244,"velocity":0.7874015748031497},{"duration":0.9603641250000052,"midi":53,"time":54.146244,"velocity":0.7874015748031497},{"duration":0.9756080000000082,"midi":56,"time":54.5044750625,"velocity":0.7874015748031497},{"duration":0.9527421875000073,"midi":53,"time":54.5044750625,"velocity":0.7874015748031497},{"duration":0.9756080000000082,"midi":48,"time":54.5044750625,"velocity":0.7874015748031497},{"duration":1.044205437499997,"midi":48,"time":54.81697450000001,"velocity":0.7874015748031497},{"duration":1.021339624999996,"midi":56,"time":54.855084187500005,"velocity":0.7874015748031497},{"duration":0.998473812499995,"midi":53,"time":54.855084187500005,"velocity":0.7874015748031497},{"duration":1.0213396250000102,"midi":48,"time":55.1904494375,"velocity":0.7874015748031497},{"duration":0.9832299374999991,"midi":56,"time":55.22855912500001,"velocity":0.7874015748031497},{"duration":0.9756080000000082,"midi":53,"time":55.2361810625,"velocity":0.7874015748031497},{"duration":1.044205437499997,"midi":48,"time":55.58679018750001,"velocity":0.7874015748031497},{"duration":0.998473812499995,"midi":56,"time":55.60965600000001,"velocity":0.7874015748031497},{"duration":0.975607999999994,"midi":53,"time":55.60965600000001,"velocity":0.7874015748031497},{"duration":0.8612789374999963,"midi":56,"time":55.96026512500001,"velocity":0.7874015748031497},{"duration":0.8384131250000024,"midi":53,"time":55.96026512500001,"velocity":0.7874015748031497},{"duration":0.9222544374999941,"midi":48,"time":55.96026512500001,"velocity":0.7874015748031497},{"duration":1.0899370624999918,"midi":48,"time":56.27276456250001,"velocity":0.7874015748031497},{"duration":6.882609562500001,"midi":56,"time":56.29563037500001,"velocity":0.7874015748031497},{"duration":3.9405416875000014,"midi":53,"time":56.29563037500001,"velocity":0.7874015748031497},{"duration":6.867365687499998,"midi":56,"time":56.66910531250001,"velocity":0.7874015748031497},{"duration":1.4024364999999932,"midi":48,"time":56.66910531250001,"velocity":0.7874015748031497},{"duration":3.9024319999999975,"midi":53,"time":56.69197112500001,"velocity":0.7874015748031497},{"duration":1.478655874999994,"midi":48,"time":56.94349506250001,"velocity":0.7874015748031497},{"duration":0.2134142500000067,"midi":58,"time":57.0654460625,"velocity":0.7874015748031497},{"duration":0.2286581250000026,"midi":55,"time":57.0654460625,"velocity":0.7874015748031497},{"duration":0.2286581249999955,"midi":58,"time":57.42367712500001,"velocity":0.7874015748031497},{"duration":0.2286581249999955,"midi":55,"time":57.42367712500001,"velocity":0.7874015748031497},{"duration":1.3719487500000014,"midi":48,"time":57.42367712500001,"velocity":0.7874015748031497},{"duration":0.27438974999999743,"midi":55,"time":57.77428625,"velocity":0.7874015748031497},{"duration":0.2286581249999955,"midi":58,"time":57.797152062500004,"velocity":0.7874015748031497},{"duration":0.9984738125000021,"midi":48,"time":58.132517312500006,"velocity":0.7874015748031497},{"duration":0.25152393749999646,"midi":58,"time":58.14776118750001,"velocity":0.7874015748031497},{"duration":0.2286581250000026,"midi":55,"time":58.170627,"velocity":0.7874015748031497},{"duration":0.2667678125000066,"midi":58,"time":58.505992250000006,"velocity":0.7874015748031497},{"duration":0.9832299374999991,"midi":48,"time":58.505992250000006,"velocity":0.7874015748031497},{"duration":0.25152393750000357,"midi":55,"time":58.5288580625,"velocity":0.7874015748031497},{"duration":0.9603641250000052,"midi":48,"time":58.84135750000001,"velocity":0.7874015748031497},{"duration":0.2667678124999995,"midi":58,"time":58.86422331250001,"velocity":0.7874015748031497},{"duration":0.2667678124999995,"midi":55,"time":58.86422331250001,"velocity":0.7874015748031497},{"duration":1.059449312500007,"midi":48,"time":59.17672275,"velocity":0.7874015748031497},{"duration":0.27438974999999743,"midi":58,"time":59.191966625000006,"velocity":0.7874015748031497},{"duration":0.28963362500000045,"midi":55,"time":59.199588562500004,"velocity":0.7874015748031497},{"duration":0.20579231250000163,"midi":58,"time":59.57306350000001,"velocity":0.7874015748031497},{"duration":0.16768262499999054,"midi":55,"time":59.57306350000001,"velocity":0.7874015748031497},{"duration":1.0365834999999919,"midi":48,"time":59.57306350000001,"velocity":0.7874015748031497},{"duration":1.0670712500000121,"midi":48,"time":59.9008068125,"velocity":0.7874015748031497},{"duration":0.28963362500000756,"midi":58,"time":59.9465384375,"velocity":0.7874015748031497},{"duration":0.9984738125000092,"midi":53,"time":59.9465384375,"velocity":0.7874015748031497},{"duration":0.2972555624999984,"midi":58,"time":60.29714756250001,"velocity":0.7874015748031497},{"duration":0.9222544375000012,"midi":53,"time":60.29714756250001,"velocity":0.7874015748031497},{"duration":0.9527421874999931,"midi":48,"time":60.30476950000001,"velocity":0.7874015748031497},{"duration":1.044205437500004,"midi":48,"time":60.6325128125,"velocity":0.7874015748031497},{"duration":0.3124994375000085,"midi":58,"time":60.655378625000004,"velocity":0.7874015748031497},{"duration":2.545727124999999,"midi":53,"time":60.655378625000004,"velocity":0.7874015748031497},{"duration":0.16768262500000475,"midi":58,"time":61.028853562500004,"velocity":0.7874015748031497},{"duration":2.4847516250000012,"midi":53,"time":61.028853562500004,"velocity":0.7874015748031497},{"duration":1.044205437499997,"midi":48,"time":61.028853562500004,"velocity":0.7874015748031497},{"duration":0.27438974999999743,"midi":55,"time":61.42519431250001,"velocity":0.7874015748031497},{"duration":0.25152393749999646,"midi":52,"time":61.42519431250001,"velocity":0.7874015748031497},{"duration":0.9832299374999991,"midi":48,"time":61.42519431250001,"velocity":0.7874015748031497},{"duration":0.3353652499999953,"midi":55,"time":61.78342537500001,"velocity":0.7874015748031497},{"duration":0.3124994374999943,"midi":52,"time":61.78342537500001,"velocity":0.7874015748031497},{"duration":1.3948145625000024,"midi":48,"time":61.78342537500001,"velocity":0.7874015748031497},{"duration":0.2972555624999984,"midi":55,"time":62.13403450000001,"velocity":0.7874015748031497},{"duration":1.4024364999999932,"midi":48,"time":62.13403450000001,"velocity":0.7874015748031497},{"duration":0.25152393749999646,"midi":52,"time":62.156900312500014,"velocity":0.7874015748031497},{"duration":1.4405461874999972,"midi":48,"time":62.46939975000001,"velocity":0.7874015748031497},{"duration":0.20579231249999452,"midi":55,"time":62.49226556250001,"velocity":0.7874015748031497},{"duration":0.20579231249999452,"midi":52,"time":62.49226556250001,"velocity":0.7874015748031497},{"duration":1.021339624999996,"midi":56,"time":62.88860631250001,"velocity":0.7874015748031497},{"duration":0.998473812499995,"midi":53,"time":62.88860631250001,"velocity":0.7874015748031497},{"duration":0.9222544375000084,"midi":56,"time":63.2392154375,"velocity":0.7874015748031497},{"duration":0.9222544375000084,"midi":53,"time":63.2392154375,"velocity":0.7874015748031497},{"duration":0.9451202500000093,"midi":48,"time":63.2392154375,"velocity":0.7874015748031497},{"duration":0.7317059999999955,"midi":48,"time":63.59744650000001,"velocity":0.7874015748031497},{"duration":2.477129687499989,"midi":56,"time":63.62031231250001,"velocity":0.7874015748031497},{"duration":2.477129687499989,"midi":53,"time":63.62031231250001,"velocity":0.7874015748031497},{"duration":2.4999955000000043,"midi":56,"time":63.993787250000004,"velocity":0.7874015748031497},{"duration":2.4847516250000083,"midi":53,"time":63.993787250000004,"velocity":0.7874015748031497},{"duration":0.6478646874999967,"midi":48,"time":63.993787250000004,"velocity":0.7874015748031497},{"duration":0.7545718125000036,"midi":48,"time":64.283420875,"velocity":0.7874015748031497},{"duration":0.9832299374999991,"midi":48,"time":64.3672621875,"velocity":0.7874015748031497},{"duration":0.2667678124999924,"midi":55,"time":64.390128,"velocity":0.7874015748031497},{"duration":0.2667678124999924,"midi":52,"time":64.390128,"velocity":0.7874015748031497},{"duration":0.2972555624999984,"midi":55,"time":64.74073712500001,"velocity":0.7874015748031497},{"duration":0.2972555624999984,"midi":52,"time":64.74073712500001,"velocity":0.7874015748031497},{"duration":0.8765228125000135,"midi":48,"time":64.7483590625,"velocity":0.7874015748031497},{"duration":0.25152393749999646,"midi":55,"time":65.0989681875,"velocity":0.7874015748031497},{"duration":0.25152393749999646,"midi":52,"time":65.0989681875,"velocity":0.7874015748031497},{"duration":0.975607999999994,"midi":48,"time":65.0989681875,"velocity":0.7874015748031497},{"duration":0.15243875000000173,"midi":55,"time":65.44957731250001,"velocity":0.7874015748031497},{"duration":0.14481681250001088,"midi":52,"time":65.45719925,"velocity":0.7874015748031497},{"duration":1.0213396250000102,"midi":48,"time":65.45719925,"velocity":0.7874015748031497},{"duration":1.150912562500011,"midi":48,"time":65.6629915625,"velocity":0.7874015748031497},{"duration":0.998473812499995,"midi":56,"time":65.80780837500001,"velocity":0.7874015748031497},{"duration":0.998473812499995,"midi":53,"time":65.80780837500001,"velocity":0.7874015748031497},{"duration":1.028961562500001,"midi":56,"time":66.15841750000001,"velocity":0.7874015748031497},{"duration":1.0213396250000102,"midi":48,"time":66.1660394375,"velocity":0.7874015748031497},{"duration":1.00609575,"midi":53,"time":66.18128331250001,"velocity":0.7874015748031497},{"duration":0.998473812499995,"midi":56,"time":66.53951437500001,"velocity":0.7874015748031497},{"duration":1.044205437499997,"midi":48,"time":66.53951437500001,"velocity":0.7874015748031497},{"duration":0.998473812499995,"midi":53,"time":66.56238018750001,"velocity":0.7874015748031497},{"duration":0.9832299374999991,"midi":56,"time":66.91298931250002,"velocity":0.7874015748031497},{"duration":1.00609575,"midi":48,"time":66.91298931250002,"velocity":0.7874015748031497},{"duration":0.9603641249999981,"midi":53,"time":66.93585512500002,"velocity":0.7874015748031497},{"duration":1.021339624999996,"midi":53,"time":67.27122037500001,"velocity":0.7874015748031497},{"duration":1.044205437499997,"midi":48,"time":67.27122037500001,"velocity":0.7874015748031497},{"duration":0.998473812499995,"midi":56,"time":67.29408618750001,"velocity":0.7874015748031497},{"duration":1.067071249999998,"midi":48,"time":67.6218295,"velocity":0.7874015748031497},{"duration":0.8536569999999983,"midi":56,"time":67.667561125,"velocity":0.7874015748031497},{"duration":0.8307911874999974,"midi":53,"time":67.667561125,"velocity":0.7874015748031497},{"duration":10.735498968749994,"midi":56,"time":67.99530443750001,"velocity":0.7874015748031497},{"duration":3.9176758750000147,"midi":53,"time":68.002926375,"velocity":0.7874015748031497},{"duration":1.082315125000008,"midi":48,"time":68.002926375,"velocity":0.7874015748031497},{"duration":1.0823151249999938,"midi":48,"time":68.3535355,"velocity":0.7874015748031497},{"duration":10.365835000000004,"midi":56,"time":68.37640131250001,"velocity":0.7874015748031497},{"duration":6.524378499999997,"midi":53,"time":68.37640131250001,"velocity":0.7874015748031497},{"duration":1.0213396250000102,"midi":48,"time":68.74987625,"velocity":0.7874015748031497},{"duration":0.3124994375000085,"midi":58,"time":68.7727420625,"velocity":0.7874015748031497},{"duration":0.28963362500000756,"midi":55,"time":68.7727420625,"velocity":0.7874015748031497},{"duration":1.00609575,"midi":48,"time":69.1233511875,"velocity":0.7874015748031497},{"duration":0.2667678124999924,"midi":58,"time":69.14621700000001,"velocity":0.7874015748031497},{"duration":0.2667678124999924,"midi":55,"time":69.14621700000001,"velocity":0.7874015748031497},{"duration":1.0213396250000102,"midi":48,"time":69.48158225,"velocity":0.7874015748031497},{"duration":0.27438974999999743,"midi":58,"time":69.49682612500001,"velocity":0.7874015748031497},{"duration":0.2667678125000066,"midi":55,"time":69.5044480625,"velocity":0.7874015748031497},{"duration":1.044205437499997,"midi":48,"time":69.83219137500001,"velocity":0.7874015748031497},{"duration":0.25152393749999646,"midi":58,"time":69.85505718750001,"velocity":0.7874015748031497},{"duration":0.25152393749999646,"midi":55,"time":69.85505718750001,"velocity":0.7874015748031497},{"duration":1.2576196874999965,"midi":48,"time":70.20566631250001,"velocity":0.7874015748031497},{"duration":0.25152393749999646,"midi":58,"time":70.22853212500002,"velocity":0.7874015748031497},{"duration":0.27438974999999743,"midi":55,"time":70.22853212500002,"velocity":0.7874015748031497},{"duration":0.2667678124999924,"midi":58,"time":70.58676318750001,"velocity":0.7874015748031497},{"duration":0.2667678124999924,"midi":55,"time":70.58676318750001,"velocity":0.7874015748031497},{"duration":1.7073139999999967,"midi":48,"time":70.58676318750001,"velocity":0.7874015748031497},{"duration":1.7682894999999945,"midi":48,"time":70.9221284375,"velocity":0.7874015748031497},{"duration":0.25152393749999646,"midi":58,"time":70.93737231250002,"velocity":0.7874015748031497},{"duration":0.27438974999999743,"midi":55,"time":70.93737231250002,"velocity":0.7874015748031497},{"duration":0.1219509999999957,"midi":58,"time":71.29560337500001,"velocity":0.7874015748031497},{"duration":0.09908518749999473,"midi":55,"time":71.31846918750001,"velocity":0.7874015748031497},{"duration":1.4786558750000012,"midi":48,"time":71.585237,"velocity":0.7874015748031497},{"duration":3.612798375000011,"midi":53,"time":71.6462125,"velocity":0.7874015748031497},{"duration":0.27438975000001165,"midi":59,"time":71.6690783125,"velocity":0.7874015748031497},{"duration":0.2972555624999984,"midi":55,"time":72.01968743750001,"velocity":0.7874015748031497},{"duration":0.28963362500000756,"midi":59,"time":72.04255325,"velocity":0.7874015748031497},{"duration":0.3277433124999902,"midi":59,"time":72.40078431250001,"velocity":0.7874015748031497},{"duration":0.3124994374999943,"midi":55,"time":72.40078431250001,"velocity":0.7874015748031497},{"duration":1.0365834999999919,"midi":48,"time":72.40078431250001,"velocity":0.7874015748031497},{"duration":0.28963362500000756,"midi":59,"time":72.77425925,"velocity":0.7874015748031497},{"duration":0.28963362500000756,"midi":55,"time":72.77425925,"velocity":0.7874015748031497},{"duration":1.0213396250000102,"midi":48,"time":72.77425925,"velocity":0.7874015748031497},{"duration":0.3353652499999953,"midi":59,"time":73.124868375,"velocity":0.7874015748031497},{"duration":0.3124994374999943,"midi":55,"time":73.124868375,"velocity":0.7874015748031497},{"duration":0.998473812499995,"midi":48,"time":73.13249031250001,"velocity":0.7874015748031497},{"duration":0.27438974999999743,"midi":59,"time":73.52120912500001,"velocity":0.7874015748031497},{"duration":0.27438974999999743,"midi":55,"time":73.52120912500001,"velocity":0.7874015748031497},{"duration":0.8917666874999952,"midi":48,"time":73.5288310625,"velocity":0.7874015748031497},{"duration":0.25152393749999646,"midi":59,"time":73.87944018750001,"velocity":0.7874015748031497},{"duration":0.25152393749999646,"midi":55,"time":73.87944018750001,"velocity":0.7874015748031497},{"duration":1.021339624999996,"midi":48,"time":73.87944018750001,"velocity":0.7874015748031497},{"duration":0.2286581249999955,"midi":59,"time":74.191939625,"velocity":0.7874015748031497},{"duration":0.20579231249999452,"midi":55,"time":74.2148054375,"velocity":0.7874015748031497},{"duration":1.0442054375000112,"midi":48,"time":74.2148054375,"velocity":0.7874015748031497},{"duration":1.067071249999998,"midi":48,"time":74.52730487500001,"velocity":0.7874015748031497},{"duration":1.00609575,"midi":53,"time":74.61114618750001,"velocity":0.7874015748031497},{"duration":0.2667678124999924,"midi":60,"time":74.63401200000001,"velocity":0.7874015748031497},{"duration":0.08384131249999882,"midi":59,"time":74.63401200000001,"velocity":0.7874015748031497},{"duration":0.2972555624999984,"midi":60,"time":74.96175531250002,"velocity":0.7874015748031497},{"duration":0.9146324999999962,"midi":53,"time":74.96937725000001,"velocity":0.7874015748031497},{"duration":0.9374983124999972,"midi":48,"time":74.96937725000001,"velocity":0.7874015748031497},{"duration":0.28963362499999334,"midi":60,"time":75.31998637500001,"velocity":0.7874015748031497},{"duration":3.3917621874999924,"midi":53,"time":75.31998637500001,"velocity":0.7874015748031497},{"duration":0.9603641249999981,"midi":48,"time":75.31998637500001,"velocity":0.7874015748031497},{"duration":0.1905484374999986,"midi":60,"time":75.6934613125,"velocity":0.7874015748031497},{"duration":3.041153062500001,"midi":53,"time":75.6934613125,"velocity":0.7874015748031497},{"duration":0.975607999999994,"midi":48,"time":75.70108325000001,"velocity":0.7874015748031497},{"duration":1.036583500000006,"midi":48,"time":76.0135826875,"velocity":0.7874015748031497},{"duration":0.2286581250000097,"midi":55,"time":76.051692375,"velocity":0.7874015748031497},{"duration":0.20579231250000873,"midi":52,"time":76.0745581875,"velocity":0.7874015748031497},{"duration":0.3124994374999943,"midi":55,"time":76.38705762500001,"velocity":0.7874015748031497},{"duration":0.3124994374999943,"midi":52,"time":76.38705762500001,"velocity":0.7874015748031497},{"duration":1.0823151249999938,"midi":48,"time":76.38705762500001,"velocity":0.7874015748031497},{"duration":1.9740818125000033,"midi":48,"time":76.73766675,"velocity":0.7874015748031497},{"duration":0.28963362500000756,"midi":55,"time":76.7605325625,"velocity":0.7874015748031497},{"duration":0.28963362500000756,"midi":52,"time":76.7605325625,"velocity":0.7874015748031497},{"duration":0.3506091250000054,"midi":55,"time":77.118763625,"velocity":0.7874015748031497},{"duration":0.32774331250000444,"midi":52,"time":77.118763625,"velocity":0.7874015748031497},{"duration":1.615850750000007,"midi":48,"time":77.118763625,"velocity":0.7874015748031497},{"duration":1.208077093749992,"midi":56,"time":77.56845793750001,"velocity":0.7795275590551181},{"duration":1.1737783749999977,"midi":53,"time":77.56845793750001,"velocity":0.7795275590551181},{"duration":1.1737783749999977,"midi":48,"time":77.56845793750001,"velocity":0.7795275590551181}]},{"instrument":{"family":"drums","number":0,"name":"standard kit"},"notes":[{"duration":0.1676826250000003,"midi":46,"time":7.271328375,"velocity":1},{"duration":0.16006068750000058,"midi":44,"time":7.2789503125,"velocity":1},{"duration":0.1371948749999996,"midi":46,"time":7.4923645625000015,"velocity":1},{"duration":0.11432906249999952,"midi":44,"time":7.4923645625000015,"velocity":1},{"duration":0.14481681249999934,"midi":44,"time":7.652425250000001,"velocity":1},{"duration":0.16768262499999942,"midi":40,"time":7.660047187500001,"velocity":1},{"duration":0.11432906249999952,"midi":46,"time":7.682913000000001,"velocity":1},{"duration":0.11432906250000041,"midi":46,"time":7.850595625,"velocity":1},{"duration":0.09146325000000033,"midi":44,"time":7.850595625,"velocity":1},{"duration":0.1371948750000005,"midi":46,"time":8.018278250000002,"velocity":1},{"duration":0.11432906249999952,"midi":44,"time":8.018278250000002,"velocity":1},{"duration":0.12195100000000103,"midi":46,"time":8.20120475,"velocity":1},{"duration":0.1143290625000013,"midi":44,"time":8.2088266875,"velocity":1},{"duration":0.17530456250000093,"midi":40,"time":8.3460215625,"velocity":1},{"duration":0.045731625000000165,"midi":38,"time":8.3765093125,"velocity":1},{"duration":0.11432906249999952,"midi":46,"time":8.399375125,"velocity":1},{"duration":0.12195100000000103,"midi":44,"time":8.399375125,"velocity":1},{"duration":0.11432906249999952,"midi":46,"time":8.567057750000002,"velocity":1},{"duration":0.12195099999999925,"midi":44,"time":8.567057750000002,"velocity":1},{"duration":0.1371948750000005,"midi":44,"time":8.734740375000001,"velocity":1},{"duration":0.1143290625000013,"midi":46,"time":8.7576061875,"velocity":1},{"duration":0.11432906249999952,"midi":46,"time":8.948154625,"velocity":1},{"duration":0.11432906249999952,"midi":44,"time":8.948154625,"velocity":1},{"duration":0.14481681249999845,"midi":44,"time":9.115837250000002,"velocity":1},{"duration":0.16768262499999942,"midi":40,"time":9.115837250000002,"velocity":1},{"duration":0.11432906249999952,"midi":46,"time":9.138703062500001,"velocity":1},{"duration":0.11432906249999952,"midi":46,"time":9.3063856875,"velocity":1},{"duration":0.12195099999999925,"midi":44,"time":9.3063856875,"velocity":1},{"duration":0.1143290625000013,"midi":44,"time":9.4740683125,"velocity":1},{"duration":0.09146325000000033,"midi":46,"time":9.496934125000001,"velocity":1},{"duration":0.11432906249999952,"midi":46,"time":9.664616750000002,"velocity":1},{"duration":0.11432906249999952,"midi":44,"time":9.664616750000002,"velocity":1},{"duration":0.14481681249999845,"midi":44,"time":9.832299375000002,"velocity":1},{"duration":0.14481681249999845,"midi":40,"time":9.832299375000002,"velocity":1},{"duration":0.11432906249999952,"midi":46,"time":9.8551651875,"velocity":1},{"duration":0.1143290625000013,"midi":46,"time":10.0228478125,"velocity":1},{"duration":0.09146325000000033,"midi":44,"time":10.0228478125,"velocity":1},{"duration":0.09146324999999855,"midi":46,"time":10.213396250000002,"velocity":1},{"duration":0.06859743749999936,"midi":44,"time":10.213396250000002,"velocity":1},{"duration":0.11432906249999952,"midi":44,"time":10.381078875000002,"velocity":1},{"duration":0.09146325000000033,"midi":46,"time":10.403944687500001,"velocity":1},{"duration":0.144816812500002,"midi":46,"time":10.5716273125,"velocity":1},{"duration":0.11432906249999952,"midi":44,"time":10.5716273125,"velocity":1},{"duration":0.144816812500002,"midi":40,"time":10.5716273125,"velocity":1},{"duration":0.1143290625000013,"midi":46,"time":10.76217575,"velocity":1},{"duration":0.12195100000000103,"midi":44,"time":10.76217575,"velocity":1},{"duration":0.12195099999999925,"midi":46,"time":10.952724187500001,"velocity":1},{"duration":0.09146325000000033,"midi":44,"time":10.952724187500001,"velocity":1},{"duration":0.11432906249999952,"midi":46,"time":11.143272625000002,"velocity":1},{"duration":0.11432906249999952,"midi":44,"time":11.143272625000002,"velocity":1},{"duration":0.14481681250000022,"midi":46,"time":11.310955250000001,"velocity":1},{"duration":0.1143290625000013,"midi":44,"time":11.310955250000001,"velocity":1},{"duration":0.12195100000000103,"midi":40,"time":11.310955250000001,"velocity":1},{"duration":0.1143290625000013,"midi":44,"time":11.478637875,"velocity":1},{"duration":0.09146325000000033,"midi":46,"time":11.501503687500001,"velocity":1},{"duration":0.1143290625000013,"midi":46,"time":11.6691863125,"velocity":1},{"duration":0.1143290625000013,"midi":44,"time":11.6691863125,"velocity":1},{"duration":0.14481681250000022,"midi":46,"time":11.859734750000001,"velocity":1},{"duration":0.11432906249999952,"midi":44,"time":11.859734750000001,"velocity":1},{"duration":0.11432906249999952,"midi":46,"time":12.050283187500002,"velocity":1},{"duration":0.12195100000000103,"midi":44,"time":12.050283187500002,"velocity":1},{"duration":0.12195100000000103,"midi":40,"time":12.050283187500002,"velocity":1},{"duration":0.12195099999999748,"midi":46,"time":12.217965812500003,"velocity":1},{"duration":0.09146324999999855,"midi":44,"time":12.217965812500003,"velocity":1},{"duration":0.11432906249999952,"midi":46,"time":12.3856484375,"velocity":1},{"duration":0.11432906249999952,"midi":44,"time":12.3856484375,"velocity":1},{"duration":0.1143290625000013,"midi":46,"time":12.576196875,"velocity":1},{"duration":0.09146325000000033,"midi":44,"time":12.576196875,"velocity":1},{"duration":0.15243874999999996,"midi":40,"time":12.713391750000001,"velocity":1},{"duration":0.11432906249999952,"midi":46,"time":12.743879500000002,"velocity":1},{"duration":0.11432906249999952,"midi":44,"time":12.743879500000002,"velocity":1},{"duration":0.1143290625000013,"midi":46,"time":12.911562125,"velocity":1},{"duration":0.1143290625000013,"midi":44,"time":12.911562125,"velocity":1},{"duration":0.11432906249999952,"midi":46,"time":13.102110562500002,"velocity":1},{"duration":0.11432906249999952,"midi":44,"time":13.102110562500002,"velocity":1},{"duration":0.11432906249999952,"midi":46,"time":13.292659000000002,"velocity":1},{"duration":0.11432906249999952,"midi":44,"time":13.292659000000002,"velocity":1},{"duration":0.11432906249999952,"midi":46,"time":13.4832074375,"velocity":1},{"duration":0.11432906249999952,"midi":44,"time":13.4832074375,"velocity":1},{"duration":0.12195100000000103,"midi":40,"time":13.4832074375,"velocity":1},{"duration":0.09146325000000033,"midi":46,"time":13.673755875000001,"velocity":1},{"duration":0.09146325000000033,"midi":44,"time":13.673755875000001,"velocity":1},{"duration":0.11432906249999952,"midi":44,"time":13.841438500000002,"velocity":1},{"duration":0.1143290625000013,"midi":46,"time":13.864304312500002,"velocity":1},{"duration":0.11432906249999952,"midi":46,"time":14.031986937500001,"velocity":1},{"duration":0.11432906249999952,"midi":44,"time":14.031986937500001,"velocity":1},{"duration":0.11432906249999952,"midi":46,"time":14.222535375000001,"velocity":1},{"duration":0.11432906249999952,"midi":44,"time":14.222535375000001,"velocity":1},{"duration":0.12195100000000103,"midi":40,"time":14.222535375000001,"velocity":1},{"duration":0.11432906249999952,"midi":44,"time":14.390218000000003,"velocity":1},{"duration":0.09146325000000033,"midi":46,"time":14.413083812500002,"velocity":1},{"duration":0.09146325000000033,"midi":46,"time":14.580766437500001,"velocity":1},{"duration":0.11432906249999952,"midi":44,"time":14.580766437500001,"velocity":1},{"duration":0.13719487499999872,"midi":44,"time":14.748449062500002,"velocity":1},{"duration":0.11432906249999952,"midi":46,"time":14.771314875000002,"velocity":1},{"duration":0.14481681249999845,"midi":40,"time":14.938997500000003,"velocity":1},{"duration":0.1143290625000013,"midi":46,"time":14.961863312500002,"velocity":1},{"duration":0.12195099999999925,"midi":44,"time":14.961863312500002,"velocity":1},{"duration":0.12195100000000103,"midi":44,"time":15.129545937500001,"velocity":1},{"duration":0.09146325000000033,"midi":46,"time":15.15241175,"velocity":1},{"duration":0.11432906249999952,"midi":46,"time":15.320094375000002,"velocity":1},{"duration":0.09146325000000033,"midi":44,"time":15.320094375000002,"velocity":1},{"duration":0.11432906249999952,"midi":44,"time":15.487777000000003,"velocity":1},{"duration":0.09146325000000033,"midi":46,"time":15.510642812500002,"velocity":1},{"duration":0.14481681250000022,"midi":44,"time":15.678325437500002,"velocity":1},{"duration":0.14481681250000022,"midi":40,"time":15.678325437500002,"velocity":1},{"duration":0.11432906249999952,"midi":46,"time":15.70119125,"velocity":1},{"duration":0.11432906249999952,"midi":46,"time":15.868873875000002,"velocity":1},{"duration":0.12195100000000103,"midi":44,"time":15.868873875000002,"velocity":1},{"duration":0.11432906249999775,"midi":46,"time":16.059422312500004,"velocity":1},{"duration":0.1219509999999957,"midi":44,"time":16.059422312500004,"velocity":1},{"duration":0.1143290625000013,"midi":46,"time":16.24997075,"velocity":1},{"duration":0.09146325000000033,"midi":44,"time":16.24997075,"velocity":1},{"duration":0.14481681250000378,"midi":46,"time":16.417653375,"velocity":1},{"duration":0.1143290625000013,"midi":44,"time":16.417653375,"velocity":1},{"duration":0.12195100000000281,"midi":40,"time":16.417653375,"velocity":1},{"duration":0.1143290625000013,"midi":46,"time":16.608201812500003,"velocity":1},{"duration":0.12195099999999925,"midi":44,"time":16.608201812500003,"velocity":1},{"duration":0.09146325000000033,"midi":44,"time":16.79875025,"velocity":1},{"duration":0.06859743749999936,"midi":46,"time":16.821616062500002,"velocity":1},{"duration":0.11432906249999775,"midi":44,"time":16.966432875000002,"velocity":1},{"duration":0.12195099999999925,"midi":46,"time":16.989298687500003,"velocity":1},{"duration":0.1143290625000013,"midi":40,"time":17.1569813125,"velocity":1},{"duration":0.12195099999999925,"midi":46,"time":17.179847125000002,"velocity":1},{"duration":0.12195099999999925,"midi":44,"time":17.179847125000002,"velocity":1},{"duration":0.12195100000000281,"midi":46,"time":17.34752975,"velocity":1},{"duration":0.12195100000000281,"midi":44,"time":17.34752975,"velocity":1},{"duration":0.14481681250000022,"midi":46,"time":17.538078187500002,"velocity":1},{"duration":0.1143290625000013,"midi":44,"time":17.538078187500002,"velocity":1},{"duration":0.13719487499999872,"midi":46,"time":17.705760812500003,"velocity":1},{"duration":0.14481681249999667,"midi":44,"time":17.705760812500003,"velocity":1},{"duration":0.14481681250000022,"midi":46,"time":17.919175062500003,"velocity":1},{"duration":0.14481681250000022,"midi":44,"time":17.919175062500003,"velocity":1},{"duration":0.09908518750000184,"midi":40,"time":17.942040875,"velocity":1},{"duration":0.12195100000000281,"midi":46,"time":18.1097235,"velocity":1},{"duration":0.09908518750000184,"midi":44,"time":18.1097235,"velocity":1},{"duration":0.12195099999999925,"midi":46,"time":18.277406125000002,"velocity":1},{"duration":0.12195099999999925,"midi":44,"time":18.277406125000002,"velocity":1},{"duration":0.1676826250000012,"midi":46,"time":18.4679545625,"velocity":1},{"duration":0.1676826250000012,"midi":44,"time":18.4679545625,"velocity":1},{"duration":0.14481681250000022,"midi":40,"time":18.635637187500002,"velocity":1},{"duration":0.12195100000000281,"midi":46,"time":18.6813688125,"velocity":1},{"duration":0.09908518750000184,"midi":44,"time":18.6813688125,"velocity":1},{"duration":0.09146324999999678,"midi":46,"time":18.826185625000004,"velocity":1},{"duration":0.09908518749999828,"midi":44,"time":18.826185625000004,"velocity":1},{"duration":0.1143290625000013,"midi":44,"time":18.9710024375,"velocity":1},{"duration":0.09146325000000033,"midi":46,"time":18.993868250000002,"velocity":1},{"duration":0.14481681250000378,"midi":46,"time":19.1844166875,"velocity":1},{"duration":0.1143290625000013,"midi":44,"time":19.1844166875,"velocity":1},{"duration":0.14481681249999667,"midi":46,"time":19.374965125000003,"velocity":1},{"duration":0.14481681249999667,"midi":44,"time":19.374965125000003,"velocity":1},{"duration":0.12195099999999925,"midi":40,"time":19.374965125000003,"velocity":1},{"duration":0.12195099999999925,"midi":46,"time":19.5655135625,"velocity":1},{"duration":0.12195099999999925,"midi":44,"time":19.5655135625,"velocity":1},{"duration":0.14481681250000022,"midi":46,"time":19.733196187500003,"velocity":1},{"duration":0.14481681250000022,"midi":44,"time":19.733196187500003,"velocity":1},{"duration":0.14481681249999667,"midi":46,"time":19.923744625000005,"velocity":1},{"duration":0.14481681249999667,"midi":44,"time":19.923744625000005,"velocity":1},{"duration":0.14481681250000022,"midi":40,"time":20.091427250000002,"velocity":1},{"duration":0.14481681250000378,"midi":46,"time":20.1142930625,"velocity":1},{"duration":0.14481681250000378,"midi":44,"time":20.1142930625,"velocity":1},{"duration":0.12195100000000281,"midi":46,"time":20.304841500000002,"velocity":1},{"duration":0.12195100000000281,"midi":44,"time":20.304841500000002,"velocity":1},{"duration":0.14481681249999667,"midi":46,"time":20.472524125000003,"velocity":1},{"duration":0.14481681249999667,"midi":44,"time":20.472524125000003,"velocity":1},{"duration":0.14481681250000022,"midi":46,"time":20.663072562500002,"velocity":1},{"duration":0.14481681250000022,"midi":44,"time":20.663072562500002,"velocity":1},{"duration":0.14481681250000022,"midi":40,"time":20.830755187500003,"velocity":1},{"duration":0.14481681250000022,"midi":46,"time":20.853621000000004,"velocity":1},{"duration":0.14481681250000022,"midi":44,"time":20.853621000000004,"velocity":1},{"duration":0.12195099999999925,"midi":46,"time":21.044169437500003,"velocity":1},{"duration":0.09908518749999828,"midi":44,"time":21.044169437500003,"velocity":1},{"duration":0.12195100000000281,"midi":46,"time":21.2118520625,"velocity":1},{"duration":0.12195100000000281,"midi":44,"time":21.2118520625,"velocity":1},{"duration":0.1143290625000013,"midi":46,"time":21.3795346875,"velocity":1},{"duration":0.12195100000000281,"midi":44,"time":21.3795346875,"velocity":1},{"duration":0.14481681250000022,"midi":44,"time":21.547217312500003,"velocity":1},{"duration":0.14481681250000022,"midi":40,"time":21.547217312500003,"velocity":1},{"duration":0.12195099999999925,"midi":46,"time":21.570083125000004,"velocity":1},{"duration":0.12195100000000281,"midi":46,"time":21.73776575,"velocity":1},{"duration":0.12195100000000281,"midi":44,"time":21.73776575,"velocity":1},{"duration":0.11432906249999775,"midi":46,"time":21.928314187500003,"velocity":1},{"duration":0.12195099999999925,"midi":44,"time":21.928314187500003,"velocity":1},{"duration":0.14481681249999667,"midi":46,"time":22.095996812500005,"velocity":1},{"duration":0.11432906249999775,"midi":44,"time":22.095996812500005,"velocity":1},{"duration":0.14481681250000022,"midi":40,"time":22.263679437500002,"velocity":1},{"duration":0.11432906249999775,"midi":46,"time":22.286545250000003,"velocity":1},{"duration":0.12195099999999925,"midi":44,"time":22.286545250000003,"velocity":1},{"duration":0.12195100000000281,"midi":44,"time":22.454227875,"velocity":1},{"duration":0.09146325000000033,"midi":46,"time":22.477093687500002,"velocity":1},{"duration":0.12195099999999925,"midi":46,"time":22.644776312500003,"velocity":1},{"duration":0.09146325000000033,"midi":44,"time":22.644776312500003,"velocity":1},{"duration":0.1676826250000012,"midi":46,"time":22.8124589375,"velocity":1},{"duration":0.1676826250000012,"midi":44,"time":22.8124589375,"velocity":1},{"duration":0.12195100000000281,"midi":40,"time":22.972519625,"velocity":1},{"duration":0.12195099999999925,"midi":46,"time":23.025873187500004,"velocity":1},{"duration":0.12195099999999925,"midi":44,"time":23.025873187500004,"velocity":1},{"duration":0.11432906249999775,"midi":46,"time":23.193555812500005,"velocity":1},{"duration":0.1219509999999957,"midi":44,"time":23.193555812500005,"velocity":1},{"duration":0.1143290625000013,"midi":44,"time":23.361238437500003,"velocity":1},{"duration":0.09146325000000388,"midi":46,"time":23.38410425,"velocity":1},{"duration":0.1143290625000013,"midi":46,"time":23.551786875,"velocity":1},{"duration":0.1143290625000013,"midi":44,"time":23.551786875,"velocity":1},{"duration":0.1143290625000013,"midi":46,"time":23.7423353125,"velocity":1},{"duration":0.12195100000000281,"midi":44,"time":23.7423353125,"velocity":1},{"duration":0.12195100000000281,"midi":40,"time":23.7423353125,"velocity":1},{"duration":0.1143290625000013,"midi":46,"time":23.910017937500005,"velocity":1},{"duration":0.12195099999999925,"midi":44,"time":23.910017937500005,"velocity":1},{"duration":0.12195099999999925,"midi":46,"time":24.100566375000003,"velocity":1},{"duration":0.09146325000000033,"midi":44,"time":24.100566375000003,"velocity":1},{"duration":0.1143290625000013,"midi":46,"time":24.268249,"velocity":1},{"duration":0.1143290625000013,"midi":44,"time":24.268249,"velocity":1},{"duration":0.14481681249999667,"midi":40,"time":24.435931625000006,"velocity":1},{"duration":0.1143290625000013,"midi":46,"time":24.458797437500003,"velocity":1},{"duration":0.12195099999999925,"midi":44,"time":24.458797437500003,"velocity":1},{"duration":0.1219509999999957,"midi":44,"time":24.626480062500004,"velocity":1},{"duration":0.09146325000000033,"midi":46,"time":24.649345875,"velocity":1},{"duration":0.09146325000000033,"midi":46,"time":24.8170285,"velocity":1},{"duration":0.09146325000000033,"midi":44,"time":24.8170285,"velocity":1},{"duration":0.1143290625000013,"midi":44,"time":24.984711125000004,"velocity":1},{"duration":0.09146325000000033,"midi":46,"time":25.007576937500005,"velocity":1},{"duration":0.14481681249999667,"midi":44,"time":25.175259562500003,"velocity":1},{"duration":0.1143290625000013,"midi":40,"time":25.175259562500003,"velocity":1},{"duration":0.1219509999999957,"midi":46,"time":25.198125375000004,"velocity":1},{"duration":0.09146325000000033,"midi":46,"time":25.388673812500002,"velocity":1},{"duration":0.09908518750000184,"midi":44,"time":25.388673812500002,"velocity":1},{"duration":0.1143290625000013,"midi":46,"time":25.556356437500003,"velocity":1},{"duration":0.12195099999999925,"midi":44,"time":25.556356437500003,"velocity":1},{"duration":0.1143290625000013,"midi":46,"time":25.746904875000002,"velocity":1},{"duration":0.12195099999999925,"midi":44,"time":25.746904875000002,"velocity":1},{"duration":0.14481681250000378,"midi":44,"time":25.9145875,"velocity":1},{"duration":0.14481681250000378,"midi":40,"time":25.9145875,"velocity":1},{"duration":0.1143290625000013,"midi":46,"time":25.9374533125,"velocity":1},{"duration":0.14481681249999667,"midi":44,"time":26.105135937500005,"velocity":1},{"duration":0.12195099999999925,"midi":46,"time":26.128001750000003,"velocity":1},{"duration":0.12195099999999925,"midi":46,"time":26.3185501875,"velocity":1},{"duration":0.09146325000000033,"midi":44,"time":26.3185501875,"velocity":1},{"duration":0.11432906249999775,"midi":44,"time":26.463367,"velocity":1},{"duration":0.09146324999999678,"midi":46,"time":26.486232812500003,"velocity":1},{"duration":0.1143290625000013,"midi":40,"time":26.653915437500004,"velocity":1},{"duration":0.12195099999999925,"midi":46,"time":26.676781250000005,"velocity":1},{"duration":0.12195099999999925,"midi":44,"time":26.676781250000005,"velocity":1},{"duration":0.12195099999999925,"midi":46,"time":26.844463875000002,"velocity":1},{"duration":0.09146325000000033,"midi":44,"time":26.844463875000002,"velocity":1},{"duration":0.09146325000000033,"midi":46,"time":27.0350123125,"velocity":1},{"duration":0.09908518750000539,"midi":44,"time":27.0350123125,"velocity":1},{"duration":0.11432906249999775,"midi":44,"time":27.202694937500006,"velocity":1},{"duration":0.09146325000000033,"midi":46,"time":27.225560750000003,"velocity":1},{"duration":0.14481681249999667,"midi":40,"time":27.393243375000004,"velocity":1},{"duration":0.12195099999999925,"midi":46,"time":27.416109187500002,"velocity":1},{"duration":0.12195099999999925,"midi":44,"time":27.416109187500002,"velocity":1},{"duration":0.12195100000000281,"midi":44,"time":27.583791812500003,"velocity":1},{"duration":0.12195100000000281,"midi":46,"time":27.606657625,"velocity":1},{"duration":0.09146325000000033,"midi":46,"time":27.751474437500004,"velocity":1},{"duration":0.09146325000000033,"midi":44,"time":27.751474437500004,"velocity":1},{"duration":0.14481681250000022,"midi":44,"time":27.919157062500002,"velocity":1},{"duration":0.1143290625000013,"midi":46,"time":27.942022875000003,"velocity":1},{"duration":0.14481681250000378,"midi":46,"time":28.1325713125,"velocity":1},{"duration":0.14481681250000378,"midi":44,"time":28.1325713125,"velocity":1},{"duration":0.12195100000000281,"midi":40,"time":28.1325713125,"velocity":1},{"duration":0.12195099999999925,"midi":46,"time":28.323119750000004,"velocity":1},{"duration":0.12195099999999925,"midi":44,"time":28.323119750000004,"velocity":1},{"duration":0.12195099999999925,"midi":46,"time":28.513668187500002,"velocity":1},{"duration":0.12195099999999925,"midi":44,"time":28.513668187500002,"velocity":1},{"duration":0.16768262500000475,"midi":44,"time":28.6813508125,"velocity":1},{"duration":0.14481681250000378,"midi":46,"time":28.704216625,"velocity":1},{"duration":0.14481681249999667,"midi":44,"time":28.894765062500007,"velocity":1},{"duration":0.14481681249999667,"midi":40,"time":28.894765062500007,"velocity":1},{"duration":0.12195099999999925,"midi":46,"time":28.917630875000004,"velocity":1},{"duration":0.12195099999999925,"midi":46,"time":29.0853135,"velocity":1},{"duration":0.12195099999999925,"midi":44,"time":29.0853135,"velocity":1},{"duration":0.12195100000000281,"midi":44,"time":29.252996125000003,"velocity":1},{"duration":0.09908518750000539,"midi":46,"time":29.2758619375,"velocity":1},{"duration":0.12195099999999925,"midi":46,"time":29.443544562500005,"velocity":1},{"duration":0.12195099999999925,"midi":44,"time":29.443544562500005,"velocity":1},{"duration":0.14481681250000022,"midi":40,"time":29.611227187500003,"velocity":1},{"duration":0.12195099999999925,"midi":46,"time":29.634093000000004,"velocity":1},{"duration":0.12195099999999925,"midi":44,"time":29.634093000000004,"velocity":1},{"duration":0.12195100000000281,"midi":46,"time":29.801775625,"velocity":1},{"duration":0.09908518750000539,"midi":44,"time":29.801775625,"velocity":1},{"duration":0.09146325000000033,"midi":46,"time":29.969458250000006,"velocity":1},{"duration":0.09908518749999828,"midi":44,"time":29.969458250000006,"velocity":1},{"duration":0.09146325000000033,"midi":46,"time":30.137140875000004,"velocity":1},{"duration":0.09146325000000033,"midi":44,"time":30.137140875000004,"velocity":1},{"duration":0.09146325000000033,"midi":46,"time":30.327689312500002,"velocity":1},{"duration":0.09908518750000184,"midi":44,"time":30.327689312500002,"velocity":1},{"duration":0.12195100000000281,"midi":40,"time":30.327689312500002,"velocity":1},{"duration":0.09146325000000033,"midi":46,"time":30.449640312500005,"velocity":1},{"duration":0.06859743749999936,"midi":44,"time":30.472506125000006,"velocity":1},{"duration":0.1905484374999986,"midi":46,"time":30.708786187500003,"velocity":1},{"duration":0.21341424999999958,"midi":42,"time":30.708786187500003,"velocity":1},{"duration":0.28963362500000045,"midi":42,"time":31.0593953125,"velocity":1},{"duration":0.23628006250000055,"midi":46,"time":31.089883062500004,"velocity":1},{"duration":0.21341424999999958,"midi":37,"time":31.112748875000005,"velocity":1},{"duration":0.28963362500000045,"midi":42,"time":31.417626375000005,"velocity":1},{"duration":0.26676781250000303,"midi":46,"time":31.440492187500002,"velocity":1},{"duration":0.24390200000000206,"midi":39,"time":31.440492187500002,"velocity":1},{"duration":0.2362800625000041,"midi":37,"time":31.448114125,"velocity":1},{"duration":0.2896336249999969,"midi":46,"time":31.821589062500006,"velocity":1},{"duration":0.2667678124999959,"midi":42,"time":31.821589062500006,"velocity":1},{"duration":0.236280062499997,"midi":39,"time":31.829211000000004,"velocity":1},{"duration":0.236280062499997,"midi":37,"time":31.829211000000004,"velocity":1},{"duration":0.2667678125000066,"midi":46,"time":32.179820125,"velocity":1},{"duration":0.24390200000000561,"midi":42,"time":32.179820125,"velocity":1},{"duration":0.0685974374999958,"midi":39,"time":32.233173687500006,"velocity":1},{"duration":0.2591458750000015,"midi":42,"time":32.5380511875,"velocity":1},{"duration":0.23628006250000055,"midi":46,"time":32.560917,"velocity":1},{"duration":0.1905484374999986,"midi":39,"time":32.560917,"velocity":1},{"duration":0.23628006249999345,"midi":46,"time":32.91914806250001,"velocity":1},{"duration":0.23628006249999345,"midi":42,"time":32.91914806250001,"velocity":1},{"duration":0.23628006249999345,"midi":39,"time":32.91914806250001,"velocity":1},{"duration":0.23628006249999345,"midi":37,"time":32.91914806250001,"velocity":1},{"duration":0.2591458750000015,"midi":42,"time":33.277379125,"velocity":1},{"duration":0.23628006250000055,"midi":39,"time":33.277379125,"velocity":1},{"duration":0.21341424999999958,"midi":37,"time":33.277379125,"velocity":1},{"duration":0.23628006250000055,"midi":46,"time":33.300244937500004,"velocity":1},{"duration":0.2591458750000015,"midi":46,"time":33.658476,"velocity":1},{"duration":0.2591458750000015,"midi":42,"time":33.658476,"velocity":1},{"duration":0.24390200000000561,"midi":46,"time":34.0319509375,"velocity":1},{"duration":0.24390200000000561,"midi":42,"time":34.0319509375,"velocity":1},{"duration":0.23628006250000055,"midi":39,"time":34.039572875000005,"velocity":1},{"duration":0.2591458750000015,"midi":39,"time":34.3673161875,"velocity":1},{"duration":0.2667678124999995,"midi":46,"time":34.390182,"velocity":1},{"duration":0.2667678124999995,"midi":42,"time":34.390182,"velocity":1},{"duration":0.24390200000000561,"midi":37,"time":34.390182,"velocity":1},{"duration":0.21341424999999958,"midi":46,"time":34.77127887500001,"velocity":1},{"duration":0.22103618749999754,"midi":42,"time":34.77127887500001,"velocity":1},{"duration":0.16768262499999764,"midi":39,"time":34.77127887500001,"velocity":1},{"duration":0.16768262499999764,"midi":37,"time":34.77127887500001,"velocity":1},{"duration":0.23628006250000055,"midi":46,"time":35.1295099375,"velocity":1},{"duration":0.21341424999999958,"midi":42,"time":35.1295099375,"velocity":1},{"duration":0.16768262499999764,"midi":39,"time":35.48774100000001,"velocity":1},{"duration":0.1905484374999986,"midi":46,"time":35.5106068125,"velocity":1},{"duration":0.16768262500000475,"midi":42,"time":35.5106068125,"velocity":1},{"duration":0.2439019999999985,"midi":42,"time":35.815484312500004,"velocity":1},{"duration":0.2439019999999985,"midi":39,"time":35.815484312500004,"velocity":1},{"duration":0.2439019999999985,"midi":37,"time":35.815484312500004,"velocity":1},{"duration":0.21341424999999958,"midi":46,"time":35.8459720625,"velocity":1},{"duration":0.2667678125000066,"midi":42,"time":36.173715375,"velocity":1},{"duration":0.24390200000000561,"midi":46,"time":36.1965811875,"velocity":1},{"duration":0.22103618750000464,"midi":39,"time":36.1965811875,"velocity":1},{"duration":0.2134142500000067,"midi":37,"time":36.204203125,"velocity":1},{"duration":0.2591458750000015,"midi":46,"time":36.554812250000005,"velocity":1},{"duration":0.28963362500000045,"midi":42,"time":36.554812250000005,"velocity":1},{"duration":0.2134142500000067,"midi":39,"time":36.9130433125,"velocity":1},{"duration":0.2134142500000067,"midi":46,"time":36.935909125,"velocity":1},{"duration":0.2134142500000067,"midi":42,"time":36.935909125,"velocity":1},{"duration":0.2820116874999954,"midi":39,"time":37.294140187500005,"velocity":1},{"duration":0.2591458749999944,"midi":46,"time":37.317006000000006,"velocity":1},{"duration":0.2591458749999944,"midi":42,"time":37.317006000000006,"velocity":1},{"duration":0.23628006249999345,"midi":37,"time":37.317006000000006,"velocity":1},{"duration":0.1905484374999986,"midi":46,"time":37.698102875000004,"velocity":1},{"duration":0.21341424999999958,"midi":42,"time":37.698102875000004,"velocity":1},{"duration":0.16768262499999764,"midi":39,"time":37.698102875000004,"velocity":1},{"duration":0.16768262499999764,"midi":37,"time":37.698102875000004,"velocity":1},{"duration":0.23628006250000766,"midi":46,"time":38.0563339375,"velocity":1},{"duration":0.25914587500000863,"midi":42,"time":38.0563339375,"velocity":1},{"duration":0.1905484374999986,"midi":42,"time":38.406943062500005,"velocity":1},{"duration":0.1905484374999986,"midi":39,"time":38.406943062500005,"velocity":1},{"duration":0.16768262499999764,"midi":46,"time":38.429808875000006,"velocity":1},{"duration":0.23628006250000766,"midi":39,"time":38.765174125,"velocity":1},{"duration":0.23628006250000055,"midi":46,"time":38.7880399375,"velocity":1},{"duration":0.23628006250000055,"midi":42,"time":38.7880399375,"velocity":1},{"duration":0.2439019999999985,"midi":37,"time":38.7880399375,"velocity":1},{"duration":0.21341424999999958,"midi":46,"time":39.146271000000006,"velocity":1},{"duration":0.21341424999999958,"midi":42,"time":39.146271000000006,"velocity":1},{"duration":0.1905484374999986,"midi":39,"time":39.146271000000006,"velocity":1},{"duration":0.16768262499999764,"midi":37,"time":39.146271000000006,"velocity":1},{"duration":0.2591458749999944,"midi":46,"time":39.50450206250001,"velocity":1},{"duration":0.2591458749999944,"midi":42,"time":39.50450206250001,"velocity":1},{"duration":0.2667678124999995,"midi":39,"time":39.83224537500001,"velocity":1},{"duration":0.2439019999999985,"midi":46,"time":39.85511118750001,"velocity":1},{"duration":0.20579231249999452,"midi":42,"time":39.862733125000005,"velocity":1},{"duration":0.14481681250000378,"midi":46,"time":40.213342250000004,"velocity":1},{"duration":0.14481681250000378,"midi":42,"time":40.213342250000004,"velocity":1},{"duration":0.09908518750000184,"midi":39,"time":40.213342250000004,"velocity":1},{"duration":0.12195100000000281,"midi":37,"time":40.213342250000004,"velocity":1},{"duration":0.06859743750000291,"midi":40,"time":40.411512625,"velocity":1},{"duration":0.09146325000000388,"midi":38,"time":40.411512625,"velocity":1},{"duration":0.12195100000000281,"midi":38,"time":40.5715733125,"velocity":1},{"duration":0.21341424999999958,"midi":36,"time":40.762121750000006,"velocity":1},{"duration":0.18292650000000066,"midi":36,"time":41.1203528125,"velocity":1},{"duration":0.12195100000000281,"midi":38,"time":41.3032793125,"velocity":1},{"duration":0.1219509999999957,"midi":36,"time":41.49382775000001,"velocity":1},{"duration":0.3506091249999983,"midi":36,"time":41.661510375000006,"velocity":1},{"duration":0.14481681250000378,"midi":38,"time":42.034985312500005,"velocity":1},{"duration":0.13719487499999872,"midi":46,"time":42.614252562500006,"velocity":1},{"duration":0.11432906249999775,"midi":44,"time":42.614252562500006,"velocity":1},{"duration":0.14481681249999667,"midi":44,"time":42.774313250000006,"velocity":1},{"duration":0.16768262499999764,"midi":40,"time":42.781935187500004,"velocity":1},{"duration":0.11432906249999775,"midi":46,"time":42.804801000000005,"velocity":1},{"duration":0.11432906249999775,"midi":46,"time":42.972483625,"velocity":1},{"duration":0.09146325000000388,"midi":44,"time":42.972483625,"velocity":1},{"duration":0.13719487499999872,"midi":46,"time":43.14016625000001,"velocity":1},{"duration":0.11432906249999775,"midi":44,"time":43.14016625000001,"velocity":1},{"duration":0.1219509999999957,"midi":46,"time":43.32309275000001,"velocity":1},{"duration":0.11432906249999775,"midi":44,"time":43.330714687500006,"velocity":1},{"duration":0.1753045625000027,"midi":40,"time":43.467909562500004,"velocity":1},{"duration":0.04573162500000194,"midi":38,"time":43.4983973125,"velocity":1},{"duration":0.11432906249999775,"midi":46,"time":43.521263125000004,"velocity":1},{"duration":0.12195100000000281,"midi":44,"time":43.521263125000004,"velocity":1},{"duration":0.11432906249999775,"midi":46,"time":43.68894575000001,"velocity":1},{"duration":0.1219509999999957,"midi":44,"time":43.68894575000001,"velocity":1},{"duration":0.13719487499999872,"midi":44,"time":43.85662837500001,"velocity":1},{"duration":0.11432906249999775,"midi":46,"time":43.87949418750001,"velocity":1},{"duration":0.11432906249999775,"midi":46,"time":44.070042625000006,"velocity":1},{"duration":0.11432906249999775,"midi":44,"time":44.070042625000006,"velocity":1},{"duration":0.14481681250000378,"midi":44,"time":44.237725250000004,"velocity":1},{"duration":0.16768262499999764,"midi":40,"time":44.237725250000004,"velocity":1},{"duration":0.11432906250000485,"midi":46,"time":44.260591062500005,"velocity":1},{"duration":0.11432906250000485,"midi":46,"time":44.4282736875,"velocity":1},{"duration":0.12195100000000281,"midi":44,"time":44.4282736875,"velocity":1},{"duration":0.11432906250000485,"midi":44,"time":44.5959563125,"velocity":1},{"duration":0.09146325000000388,"midi":46,"time":44.618822125,"velocity":1},{"duration":0.11432906249999775,"midi":46,"time":44.786504750000006,"velocity":1},{"duration":0.11432906249999775,"midi":44,"time":44.786504750000006,"velocity":1},{"duration":0.14481681249999667,"midi":44,"time":44.954187375000004,"velocity":1},{"duration":0.14481681249999667,"midi":40,"time":44.954187375000004,"velocity":1},{"duration":0.11432906249999775,"midi":46,"time":44.977053187500005,"velocity":1},{"duration":0.11432906249999775,"midi":46,"time":45.1447358125,"velocity":1},{"duration":0.09146325000000388,"midi":44,"time":45.1447358125,"velocity":1},{"duration":0.09146324999999678,"midi":46,"time":45.33528425000001,"velocity":1},{"duration":0.0685974374999958,"midi":44,"time":45.33528425000001,"velocity":1},{"duration":0.11432906249999775,"midi":44,"time":45.502966875000006,"velocity":1},{"duration":0.09146324999999678,"midi":46,"time":45.52583268750001,"velocity":1},{"duration":0.14481681250000378,"midi":46,"time":45.693515312500004,"velocity":1},{"duration":0.11432906249999775,"midi":44,"time":45.693515312500004,"velocity":1},{"duration":0.14481681250000378,"midi":40,"time":45.693515312500004,"velocity":1},{"duration":0.11432906249999775,"midi":46,"time":45.88406375000001,"velocity":1},{"duration":0.1219509999999957,"midi":44,"time":45.88406375000001,"velocity":1},{"duration":0.12195100000000281,"midi":46,"time":46.0746121875,"velocity":1},{"duration":0.09146325000000388,"midi":44,"time":46.0746121875,"velocity":1},{"duration":0.11432906250000485,"midi":46,"time":46.265160625,"velocity":1},{"duration":0.11432906250000485,"midi":44,"time":46.265160625,"velocity":1},{"duration":0.14481681249999667,"midi":46,"time":46.432843250000005,"velocity":1},{"duration":0.11432906250000485,"midi":44,"time":46.432843250000005,"velocity":1},{"duration":0.12195100000000281,"midi":40,"time":46.432843250000005,"velocity":1},{"duration":0.11432906250000485,"midi":44,"time":46.600525875,"velocity":1},{"duration":0.09146325000000388,"midi":46,"time":46.6233916875,"velocity":1},{"duration":0.11432906250000485,"midi":46,"time":46.7910743125,"velocity":1},{"duration":0.11432906250000485,"midi":44,"time":46.7910743125,"velocity":1},{"duration":0.14481681250000378,"midi":46,"time":46.98162275,"velocity":1},{"duration":0.11432906250000485,"midi":44,"time":46.98162275,"velocity":1},{"duration":0.11432906249999775,"midi":46,"time":47.172171187500005,"velocity":1},{"duration":0.12195100000000281,"midi":44,"time":47.172171187500005,"velocity":1},{"duration":0.12195100000000281,"midi":40,"time":47.172171187500005,"velocity":1},{"duration":0.1219509999999886,"midi":46,"time":47.33985381250001,"velocity":1},{"duration":0.09146324999999678,"midi":44,"time":47.33985381250001,"velocity":1},{"duration":0.11432906249999775,"midi":46,"time":47.5075364375,"velocity":1},{"duration":0.11432906249999775,"midi":44,"time":47.5075364375,"velocity":1},{"duration":0.11432906249999775,"midi":46,"time":47.698084875000006,"velocity":1},{"duration":0.09146324999999678,"midi":44,"time":47.698084875000006,"velocity":1},{"duration":0.15243874999999463,"midi":40,"time":47.835279750000005,"velocity":1},{"duration":0.11432906249999775,"midi":46,"time":47.86576750000001,"velocity":1},{"duration":0.11432906249999775,"midi":44,"time":47.86576750000001,"velocity":1},{"duration":0.11432906249999775,"midi":46,"time":48.033450125,"velocity":1},{"duration":0.11432906249999775,"midi":44,"time":48.033450125,"velocity":1},{"duration":0.11432906249999775,"midi":46,"time":48.22399856250001,"velocity":1},{"duration":0.11432906249999775,"midi":44,"time":48.22399856250001,"velocity":1},{"duration":0.11432906250000485,"midi":46,"time":48.414547000000006,"velocity":1},{"duration":0.11432906250000485,"midi":44,"time":48.414547000000006,"velocity":1},{"duration":0.11432906249999775,"midi":46,"time":48.605095437500005,"velocity":1},{"duration":0.11432906249999775,"midi":44,"time":48.605095437500005,"velocity":1},{"duration":0.12195100000000281,"midi":40,"time":48.605095437500005,"velocity":1},{"duration":0.09146325000000388,"midi":46,"time":48.795643875,"velocity":1},{"duration":0.09146325000000388,"midi":44,"time":48.795643875,"velocity":1},{"duration":0.11432906249999775,"midi":44,"time":48.96332650000001,"velocity":1},{"duration":0.11432906249999775,"midi":46,"time":48.98619231250001,"velocity":1},{"duration":0.11432906250000485,"midi":46,"time":49.1538749375,"velocity":1},{"duration":0.11432906250000485,"midi":44,"time":49.1538749375,"velocity":1},{"duration":0.11432906249999775,"midi":46,"time":49.344423375000005,"velocity":1},{"duration":0.11432906249999775,"midi":44,"time":49.344423375000005,"velocity":1},{"duration":0.12195100000000281,"midi":40,"time":49.344423375000005,"velocity":1},{"duration":0.11432906249999775,"midi":44,"time":49.51210600000001,"velocity":1},{"duration":0.09146324999999678,"midi":46,"time":49.53497181250001,"velocity":1},{"duration":0.09146325000000388,"midi":46,"time":49.7026544375,"velocity":1},{"duration":0.11432906249999775,"midi":44,"time":49.7026544375,"velocity":1},{"duration":0.13719487499999872,"midi":44,"time":49.870337062500006,"velocity":1},{"duration":0.11432906249999775,"midi":46,"time":49.89320287500001,"velocity":1},{"duration":0.14481681249998957,"midi":40,"time":50.06088550000001,"velocity":1},{"duration":0.11432906250000485,"midi":46,"time":50.083751312500006,"velocity":1},{"duration":0.1219509999999957,"midi":44,"time":50.083751312500006,"velocity":1},{"duration":0.12195100000000281,"midi":44,"time":50.2514339375,"velocity":1},{"duration":0.09146324999999678,"midi":46,"time":50.274299750000004,"velocity":1},{"duration":0.11432906250000485,"midi":46,"time":50.441982375,"velocity":1},{"duration":0.09146325000000388,"midi":44,"time":50.441982375,"velocity":1},{"duration":0.11432906250000485,"midi":44,"time":50.60966500000001,"velocity":1},{"duration":0.09146325000000388,"midi":46,"time":50.63253081250001,"velocity":1},{"duration":0.14481681249999667,"midi":44,"time":50.800213437500005,"velocity":1},{"duration":0.14481681249999667,"midi":40,"time":50.800213437500005,"velocity":1},{"duration":0.11432906250000485,"midi":46,"time":50.82307925,"velocity":1},{"duration":0.11432906250000485,"midi":46,"time":50.990761875000004,"velocity":1},{"duration":0.12195100000000281,"midi":44,"time":50.990761875000004,"velocity":1},{"duration":0.11432906249999775,"midi":46,"time":51.18131031250001,"velocity":1},{"duration":0.1219509999999957,"midi":44,"time":51.18131031250001,"velocity":1},{"duration":0.11432906249999775,"midi":46,"time":51.37185875,"velocity":1},{"duration":0.09146325000000388,"midi":44,"time":51.37185875,"velocity":1},{"duration":0.14481681250000378,"midi":46,"time":51.539541375000006,"velocity":1},{"duration":0.11432906249999775,"midi":44,"time":51.539541375000006,"velocity":1},{"duration":0.12195100000000281,"midi":40,"time":51.539541375000006,"velocity":1},{"duration":0.11432906249999775,"midi":46,"time":51.73008981250001,"velocity":1},{"duration":0.1219509999999886,"midi":44,"time":51.73008981250001,"velocity":1},{"duration":0.09146324999999678,"midi":44,"time":51.92063825,"velocity":1},{"duration":0.0685974374999958,"midi":46,"time":51.943504062500004,"velocity":1},{"duration":0.11432906249999775,"midi":44,"time":52.08832087500001,"velocity":1},{"duration":0.12195100000000281,"midi":46,"time":52.11118668750001,"velocity":1},{"duration":0.11432906250000485,"midi":40,"time":52.27886931250001,"velocity":1},{"duration":0.1219509999999957,"midi":46,"time":52.30173512500001,"velocity":1},{"duration":0.1219509999999957,"midi":44,"time":52.30173512500001,"velocity":1},{"duration":0.12195100000000281,"midi":46,"time":52.469417750000005,"velocity":1},{"duration":0.12195100000000281,"midi":44,"time":52.469417750000005,"velocity":1},{"duration":0.14481681250000378,"midi":46,"time":52.659966187500004,"velocity":1},{"duration":0.11432906250000485,"midi":44,"time":52.659966187500004,"velocity":1},{"duration":0.13719487499999872,"midi":46,"time":52.82764881250001,"velocity":1},{"duration":0.14481681249999667,"midi":44,"time":52.82764881250001,"velocity":1},{"duration":0.14481681250000378,"midi":46,"time":53.0410630625,"velocity":1},{"duration":0.14481681250000378,"midi":44,"time":53.0410630625,"velocity":1},{"duration":0.09908518750000184,"midi":40,"time":53.063928875,"velocity":1},{"duration":0.12195100000000281,"midi":46,"time":53.23161150000001,"velocity":1},{"duration":0.09908518750000184,"midi":44,"time":53.23161150000001,"velocity":1},{"duration":0.1219509999999886,"midi":46,"time":53.39929412500001,"velocity":1},{"duration":0.1219509999999886,"midi":44,"time":53.39929412500001,"velocity":1},{"duration":0.16768262500000475,"midi":46,"time":53.5898425625,"velocity":1},{"duration":0.16768262500000475,"midi":44,"time":53.5898425625,"velocity":1},{"duration":0.14481681250000378,"midi":40,"time":53.75752518750001,"velocity":1},{"duration":0.12195100000000991,"midi":46,"time":53.8032568125,"velocity":1},{"duration":0.09908518750000894,"midi":44,"time":53.8032568125,"velocity":1},{"duration":0.09146325000000388,"midi":46,"time":53.948073625000006,"velocity":1},{"duration":0.09908518749999473,"midi":44,"time":53.948073625000006,"velocity":1},{"duration":0.11432906249999775,"midi":44,"time":54.0928904375,"velocity":1},{"duration":0.09146324999999678,"midi":46,"time":54.115756250000004,"velocity":1},{"duration":0.14481681250000378,"midi":46,"time":54.3063046875,"velocity":1},{"duration":0.11432906250000485,"midi":44,"time":54.3063046875,"velocity":1},{"duration":0.14481681249999667,"midi":46,"time":54.49685312500001,"velocity":1},{"duration":0.14481681249999667,"midi":44,"time":54.49685312500001,"velocity":1},{"duration":0.1219509999999957,"midi":40,"time":54.49685312500001,"velocity":1},{"duration":0.12195100000000281,"midi":46,"time":54.6874015625,"velocity":1},{"duration":0.12195100000000281,"midi":44,"time":54.6874015625,"velocity":1},{"duration":0.14481681250000378,"midi":46,"time":54.855084187500005,"velocity":1},{"duration":0.14481681250000378,"midi":44,"time":54.855084187500005,"velocity":1},{"duration":0.14481681249998957,"midi":46,"time":55.04563262500001,"velocity":1},{"duration":0.14481681249998957,"midi":44,"time":55.04563262500001,"velocity":1},{"duration":0.14481681250000378,"midi":40,"time":55.21331525,"velocity":1},{"duration":0.14481681250000378,"midi":46,"time":55.2361810625,"velocity":1},{"duration":0.14481681250000378,"midi":44,"time":55.2361810625,"velocity":1},{"duration":0.12195100000000281,"midi":46,"time":55.42672950000001,"velocity":1},{"duration":0.12195100000000281,"midi":44,"time":55.42672950000001,"velocity":1},{"duration":0.14481681249998957,"midi":46,"time":55.59441212500001,"velocity":1},{"duration":0.14481681249998957,"midi":44,"time":55.59441212500001,"velocity":1},{"duration":0.14481681250000378,"midi":46,"time":55.784960562500004,"velocity":1},{"duration":0.14481681250000378,"midi":44,"time":55.784960562500004,"velocity":1},{"duration":0.14481681250000378,"midi":40,"time":55.95264318750001,"velocity":1},{"duration":0.14481681249999667,"midi":46,"time":55.97550900000001,"velocity":1},{"duration":0.14481681249999667,"midi":44,"time":55.97550900000001,"velocity":1},{"duration":0.1219509999999957,"midi":46,"time":56.16605743750001,"velocity":1},{"duration":0.09908518749999473,"midi":44,"time":56.16605743750001,"velocity":1},{"duration":0.12195100000000281,"midi":46,"time":56.333740062500006,"velocity":1},{"duration":0.12195100000000281,"midi":44,"time":56.333740062500006,"velocity":1},{"duration":0.11432906250000485,"midi":46,"time":56.5014226875,"velocity":1},{"duration":0.12195100000000281,"midi":44,"time":56.5014226875,"velocity":1},{"duration":0.14481681249999667,"midi":44,"time":56.66910531250001,"velocity":1},{"duration":0.14481681249999667,"midi":40,"time":56.66910531250001,"velocity":1},{"duration":0.1219509999999957,"midi":46,"time":56.69197112500001,"velocity":1},{"duration":0.12195100000000991,"midi":46,"time":56.85965375,"velocity":1},{"duration":0.12195100000000991,"midi":44,"time":56.85965375,"velocity":1},{"duration":0.11432906249999775,"midi":46,"time":57.050202187500005,"velocity":1},{"duration":0.12195100000000281,"midi":44,"time":57.050202187500005,"velocity":1},{"duration":0.14481681249998957,"midi":46,"time":57.21788481250001,"velocity":1},{"duration":0.11432906249999775,"midi":44,"time":57.21788481250001,"velocity":1},{"duration":0.14481681250000378,"midi":40,"time":57.3855674375,"velocity":1},{"duration":0.11432906249999775,"midi":46,"time":57.40843325,"velocity":1},{"duration":0.12195100000000281,"midi":44,"time":57.40843325,"velocity":1},{"duration":0.12195100000000281,"midi":44,"time":57.576115875000006,"velocity":1},{"duration":0.09146324999999678,"midi":46,"time":57.59898168750001,"velocity":1},{"duration":0.1219509999999886,"midi":46,"time":57.76666431250001,"velocity":1},{"duration":0.09146324999999678,"midi":44,"time":57.76666431250001,"velocity":1},{"duration":0.16768262500000475,"midi":46,"time":57.9343469375,"velocity":1},{"duration":0.16768262500000475,"midi":44,"time":57.9343469375,"velocity":1},{"duration":0.12195100000000281,"midi":40,"time":58.094407625,"velocity":1},{"duration":0.12195100000000281,"midi":46,"time":58.14776118750001,"velocity":1},{"duration":0.12195100000000281,"midi":44,"time":58.14776118750001,"velocity":1},{"duration":0.11432906250000485,"midi":46,"time":58.31544381250001,"velocity":1},{"duration":0.1219509999999957,"midi":44,"time":58.31544381250001,"velocity":1},{"duration":0.11432906249999775,"midi":44,"time":58.483126437500005,"velocity":1},{"duration":0.09146324999999678,"midi":46,"time":58.505992250000006,"velocity":1},{"duration":0.11432906250000485,"midi":46,"time":58.673674875,"velocity":1},{"duration":0.11432906250000485,"midi":44,"time":58.673674875,"velocity":1},{"duration":0.11432906249999775,"midi":46,"time":58.86422331250001,"velocity":1},{"duration":0.1219509999999957,"midi":44,"time":58.86422331250001,"velocity":1},{"duration":0.1219509999999957,"midi":40,"time":58.86422331250001,"velocity":1},{"duration":0.11432906250000485,"midi":46,"time":59.0319059375,"velocity":1},{"duration":0.12195100000000991,"midi":44,"time":59.0319059375,"velocity":1},{"duration":0.12195100000000281,"midi":46,"time":59.222454375000005,"velocity":1},{"duration":0.09146325000000388,"midi":44,"time":59.222454375000005,"velocity":1},{"duration":0.11432906249999775,"midi":46,"time":59.39013700000001,"velocity":1},{"duration":0.11432906249999775,"midi":44,"time":59.39013700000001,"velocity":1},{"duration":0.14481681250000378,"midi":40,"time":59.557819625,"velocity":1},{"duration":0.11432906250000485,"midi":46,"time":59.5806854375,"velocity":1},{"duration":0.12195100000000281,"midi":44,"time":59.5806854375,"velocity":1},{"duration":0.12195100000000281,"midi":44,"time":59.748368062500006,"velocity":1},{"duration":0.09146324999999678,"midi":46,"time":59.77123387500001,"velocity":1},{"duration":0.09146324999999678,"midi":46,"time":59.93891650000001,"velocity":1},{"duration":0.09146324999999678,"midi":44,"time":59.93891650000001,"velocity":1},{"duration":0.11432906249999775,"midi":44,"time":60.106599125,"velocity":1},{"duration":0.09146324999999678,"midi":46,"time":60.1294649375,"velocity":1},{"duration":0.14481681250000378,"midi":44,"time":60.29714756250001,"velocity":1},{"duration":0.11432906249999775,"midi":40,"time":60.29714756250001,"velocity":1},{"duration":0.12195100000000281,"midi":46,"time":60.32001337500001,"velocity":1},{"duration":0.09146325000000388,"midi":46,"time":60.51056181250001,"velocity":1},{"duration":0.09908518749999473,"midi":44,"time":60.51056181250001,"velocity":1},{"duration":0.11432906249999775,"midi":46,"time":60.678244437500005,"velocity":1},{"duration":0.12195100000000281,"midi":44,"time":60.678244437500005,"velocity":1},{"duration":0.11432906250000485,"midi":46,"time":60.868792875000004,"velocity":1},{"duration":0.12195100000000281,"midi":44,"time":60.868792875000004,"velocity":1},{"duration":0.14481681249999667,"midi":44,"time":61.03647550000001,"velocity":1},{"duration":0.14481681249999667,"midi":40,"time":61.03647550000001,"velocity":1},{"duration":0.11432906249999775,"midi":46,"time":61.05934131250001,"velocity":1},{"duration":0.14481681250000378,"midi":44,"time":61.2270239375,"velocity":1},{"duration":0.12195100000000281,"midi":46,"time":61.24988975,"velocity":1},{"duration":0.12195100000000281,"midi":46,"time":61.44043818750001,"velocity":1},{"duration":0.09146324999999678,"midi":44,"time":61.44043818750001,"velocity":1},{"duration":0.11432906249999775,"midi":44,"time":61.58525500000001,"velocity":1},{"duration":0.09146324999999678,"midi":46,"time":61.60812081250001,"velocity":1},{"duration":0.11432906249999775,"midi":40,"time":61.7758034375,"velocity":1},{"duration":0.12195100000000281,"midi":46,"time":61.79866925,"velocity":1},{"duration":0.12195100000000281,"midi":44,"time":61.79866925,"velocity":1},{"duration":0.12195100000000281,"midi":46,"time":61.96635187500001,"velocity":1},{"duration":0.09146324999999678,"midi":44,"time":61.96635187500001,"velocity":1},{"duration":0.09146324999999678,"midi":46,"time":62.156900312500014,"velocity":1},{"duration":0.09908518749998763,"midi":44,"time":62.156900312500014,"velocity":1},{"duration":0.11432906249999775,"midi":44,"time":62.324582937500004,"velocity":1},{"duration":0.09146324999999678,"midi":46,"time":62.347448750000005,"velocity":1},{"duration":0.14481681250000378,"midi":40,"time":62.51513137500001,"velocity":1},{"duration":0.12195100000000991,"midi":46,"time":62.537997187500004,"velocity":1},{"duration":0.12195100000000991,"midi":44,"time":62.537997187500004,"velocity":1},{"duration":0.1219509999999957,"midi":44,"time":62.70567981250001,"velocity":1},{"duration":0.1219509999999957,"midi":46,"time":62.72854562500001,"velocity":1},{"duration":0.09146324999999678,"midi":46,"time":62.873362437500006,"velocity":1},{"duration":0.09146324999999678,"midi":44,"time":62.873362437500006,"velocity":1},{"duration":0.14481681250000378,"midi":44,"time":63.041045062500004,"velocity":1},{"duration":0.11432906250000485,"midi":46,"time":63.063910875000005,"velocity":1},{"duration":0.14481681249998957,"midi":46,"time":63.25445931250001,"velocity":1},{"duration":0.14481681249998957,"midi":44,"time":63.25445931250001,"velocity":1},{"duration":0.1219509999999957,"midi":40,"time":63.25445931250001,"velocity":1},{"duration":0.12195100000000281,"midi":46,"time":63.44500775,"velocity":1},{"duration":0.12195100000000281,"midi":44,"time":63.44500775,"velocity":1},{"duration":0.12195100000000281,"midi":46,"time":63.63555618750001,"velocity":1},{"duration":0.12195100000000281,"midi":44,"time":63.63555618750001,"velocity":1},{"duration":0.16768262499999054,"midi":44,"time":63.80323881250001,"velocity":1},{"duration":0.14481681249998957,"midi":46,"time":63.82610462500001,"velocity":1},{"duration":0.14481681250001088,"midi":44,"time":64.0166530625,"velocity":1},{"duration":0.14481681250001088,"midi":40,"time":64.0166530625,"velocity":1},{"duration":0.12195100000000991,"midi":46,"time":64.039518875,"velocity":1},{"duration":0.1219509999999957,"midi":46,"time":64.20720150000001,"velocity":1},{"duration":0.1219509999999957,"midi":44,"time":64.20720150000001,"velocity":1},{"duration":0.1219509999999957,"midi":44,"time":64.37488412500001,"velocity":1},{"duration":0.09908518749999473,"midi":46,"time":64.39774993750001,"velocity":1},{"duration":0.1219509999999957,"midi":46,"time":64.5654325625,"velocity":1},{"duration":0.1219509999999957,"midi":44,"time":64.5654325625,"velocity":1},{"duration":0.14481681250001088,"midi":40,"time":64.7331151875,"velocity":1},{"duration":0.12195100000000991,"midi":46,"time":64.755981,"velocity":1},{"duration":0.12195100000000991,"midi":44,"time":64.755981,"velocity":1},{"duration":0.12195099999998149,"midi":46,"time":64.92366362500002,"velocity":1},{"duration":0.09908518749998052,"midi":44,"time":64.92366362500002,"velocity":1},{"duration":0.09146325000000388,"midi":46,"time":65.09134625,"velocity":1},{"duration":0.09908518750000894,"midi":44,"time":65.09134625,"velocity":1},{"duration":0.09146324999998967,"midi":46,"time":65.25902887500001,"velocity":1},{"duration":0.09146324999998967,"midi":44,"time":65.25902887500001,"velocity":1},{"duration":0.09146325000000388,"midi":46,"time":65.44957731250001,"velocity":1},{"duration":0.09908518749999473,"midi":44,"time":65.44957731250001,"velocity":1},{"duration":0.1219509999999957,"midi":40,"time":65.44957731250001,"velocity":1},{"duration":0.09146324999998967,"midi":46,"time":65.5715283125,"velocity":1},{"duration":0.0685974374999887,"midi":44,"time":65.59439412500001,"velocity":1},{"duration":0.1905484374999986,"midi":46,"time":65.83067418750001,"velocity":1},{"duration":0.21341424999999958,"midi":42,"time":65.83067418750001,"velocity":1},{"duration":0.28963362499999334,"midi":42,"time":66.18128331250001,"velocity":1},{"duration":0.23628006250000055,"midi":46,"time":66.2117710625,"velocity":1},{"duration":0.21341424999999958,"midi":37,"time":66.234636875,"velocity":1},{"duration":0.28963362499999334,"midi":42,"time":66.53951437500001,"velocity":1},{"duration":0.2667678124999924,"midi":46,"time":66.56238018750001,"velocity":1},{"duration":0.2439019999999914,"midi":39,"time":66.56238018750001,"velocity":1},{"duration":0.23628006249998634,"midi":37,"time":66.57000212500002,"velocity":1},{"duration":0.28963362500000756,"midi":46,"time":66.94347706250001,"velocity":1},{"duration":0.2667678125000066,"midi":42,"time":66.94347706250001,"velocity":1},{"duration":0.23628006250000055,"midi":39,"time":66.95109900000001,"velocity":1},{"duration":0.23628006250000055,"midi":37,"time":66.95109900000001,"velocity":1},{"duration":0.2667678125000066,"midi":46,"time":67.301708125,"velocity":1},{"duration":0.24390200000000561,"midi":42,"time":67.301708125,"velocity":1},{"duration":0.06859743750000291,"midi":39,"time":67.3550616875,"velocity":1},{"duration":0.25914587500001574,"midi":42,"time":67.6599391875,"velocity":1},{"duration":0.23628006250001476,"midi":46,"time":67.682805,"velocity":1},{"duration":0.19054843750001282,"midi":39,"time":67.682805,"velocity":1},{"duration":0.23628006250001476,"midi":46,"time":68.0410360625,"velocity":1},{"duration":0.23628006250001476,"midi":42,"time":68.0410360625,"velocity":1},{"duration":0.23628006250001476,"midi":39,"time":68.0410360625,"velocity":1},{"duration":0.23628006250001476,"midi":37,"time":68.0410360625,"velocity":1},{"duration":0.2591458750000015,"midi":42,"time":68.39926712500001,"velocity":1},{"duration":0.23628006250000055,"midi":39,"time":68.39926712500001,"velocity":1},{"duration":0.21341424999999958,"midi":37,"time":68.39926712500001,"velocity":1},{"duration":0.23628006250000055,"midi":46,"time":68.42213293750001,"velocity":1},{"duration":0.2591458750000015,"midi":46,"time":68.780364,"velocity":1},{"duration":0.2591458750000015,"midi":42,"time":68.780364,"velocity":1},{"duration":0.2439019999999914,"midi":46,"time":69.15383893750001,"velocity":1},{"duration":0.2439019999999914,"midi":42,"time":69.15383893750001,"velocity":1},{"duration":0.23628006250000055,"midi":39,"time":69.161460875,"velocity":1},{"duration":0.2591458750000015,"midi":39,"time":69.48920418750001,"velocity":1},{"duration":0.2667678124999924,"midi":46,"time":69.51207000000001,"velocity":1},{"duration":0.2667678124999924,"midi":42,"time":69.51207000000001,"velocity":1},{"duration":0.2439019999999914,"midi":37,"time":69.51207000000001,"velocity":1},{"duration":0.21341424999999958,"midi":46,"time":69.893166875,"velocity":1},{"duration":0.22103618750000464,"midi":42,"time":69.893166875,"velocity":1},{"duration":0.16768262499999764,"midi":39,"time":69.893166875,"velocity":1},{"duration":0.16768262499999764,"midi":37,"time":69.893166875,"velocity":1},{"duration":0.23628006249998634,"midi":46,"time":70.25139793750002,"velocity":1},{"duration":0.21341424999998537,"midi":42,"time":70.25139793750002,"velocity":1},{"duration":0.16768262499999764,"midi":39,"time":70.60962900000001,"velocity":1},{"duration":0.1905484374999986,"midi":46,"time":70.63249481250001,"velocity":1},{"duration":0.16768262499999764,"midi":42,"time":70.63249481250001,"velocity":1},{"duration":0.2439019999999914,"midi":42,"time":70.93737231250002,"velocity":1},{"duration":0.2439019999999914,"midi":39,"time":70.93737231250002,"velocity":1},{"duration":0.2439019999999914,"midi":37,"time":70.93737231250002,"velocity":1},{"duration":0.21341424999999958,"midi":46,"time":70.96786006250001,"velocity":1},{"duration":0.2667678124999924,"midi":42,"time":71.29560337500001,"velocity":1},{"duration":0.2439019999999914,"midi":46,"time":71.31846918750001,"velocity":1},{"duration":0.22103618749999043,"midi":39,"time":71.31846918750001,"velocity":1},{"duration":0.21341424999999958,"midi":37,"time":71.326091125,"velocity":1},{"duration":0.2591458750000015,"midi":46,"time":71.67670025000001,"velocity":1},{"duration":0.28963362500000756,"midi":42,"time":71.67670025000001,"velocity":1},{"duration":0.21341424999999958,"midi":39,"time":72.0349313125,"velocity":1},{"duration":0.21341424999999958,"midi":46,"time":72.05779712500001,"velocity":1},{"duration":0.21341424999999958,"midi":42,"time":72.05779712500001,"velocity":1},{"duration":0.2820116875000025,"midi":39,"time":72.4160281875,"velocity":1},{"duration":0.2591458750000015,"midi":46,"time":72.438894,"velocity":1},{"duration":0.2591458750000015,"midi":42,"time":72.438894,"velocity":1},{"duration":0.23628006250000055,"midi":37,"time":72.438894,"velocity":1},{"duration":0.19054843750001282,"midi":46,"time":72.819990875,"velocity":1},{"duration":0.21341424999999958,"midi":42,"time":72.819990875,"velocity":1},{"duration":0.16768262500001185,"midi":39,"time":72.819990875,"velocity":1},{"duration":0.16768262500001185,"midi":37,"time":72.819990875,"velocity":1},{"duration":0.23628006249998634,"midi":46,"time":73.17822193750001,"velocity":1},{"duration":0.2591458749999873,"midi":42,"time":73.17822193750001,"velocity":1},{"duration":0.1905484374999986,"midi":42,"time":73.5288310625,"velocity":1},{"duration":0.1905484374999986,"midi":39,"time":73.5288310625,"velocity":1},{"duration":0.16768262499999764,"midi":46,"time":73.551696875,"velocity":1},{"duration":0.23628006249998634,"midi":39,"time":73.88706212500001,"velocity":1},{"duration":0.23628006249998634,"midi":46,"time":73.90992793750002,"velocity":1},{"duration":0.23628006249998634,"midi":42,"time":73.90992793750002,"velocity":1},{"duration":0.2439019999999914,"midi":37,"time":73.90992793750002,"velocity":1},{"duration":0.21341424999999958,"midi":46,"time":74.26815900000001,"velocity":1},{"duration":0.21341424999999958,"midi":42,"time":74.26815900000001,"velocity":1},{"duration":0.1905484374999986,"midi":39,"time":74.26815900000001,"velocity":1},{"duration":0.16768262499999764,"midi":37,"time":74.26815900000001,"velocity":1},{"duration":0.2591458750000015,"midi":46,"time":74.62639006250001,"velocity":1},{"duration":0.2591458750000015,"midi":42,"time":74.62639006250001,"velocity":1},{"duration":0.2667678124999924,"midi":39,"time":74.95413337500001,"velocity":1},{"duration":0.2439019999999914,"midi":46,"time":74.97699918750001,"velocity":1},{"duration":0.20579231249999452,"midi":42,"time":74.98462112500002,"velocity":1},{"duration":0.14481681249999667,"midi":46,"time":75.33523025000001,"velocity":1},{"duration":0.14481681249999667,"midi":42,"time":75.33523025000001,"velocity":1},{"duration":0.09908518749999473,"midi":39,"time":75.33523025000001,"velocity":1},{"duration":0.1219509999999957,"midi":37,"time":75.33523025000001,"velocity":1},{"duration":0.06859743750000291,"midi":40,"time":75.53340062500001,"velocity":1},{"duration":0.09146325000000388,"midi":38,"time":75.53340062500001,"velocity":1},{"duration":0.1219509999999957,"midi":38,"time":75.6934613125,"velocity":1},{"duration":0.21341424999999958,"midi":36,"time":75.88400975,"velocity":1},{"duration":0.18292649999999355,"midi":36,"time":76.24224081250001,"velocity":1},{"duration":0.1219509999999957,"midi":38,"time":76.42516731250001,"velocity":1},{"duration":0.1219509999999957,"midi":36,"time":76.61571575,"velocity":1},{"duration":0.3506091250000054,"midi":36,"time":76.783398375,"velocity":1},{"duration":0.14481681249999667,"midi":38,"time":77.15687331250001,"velocity":1}]},{"instrument":{"family":"piano","number":0,"name":"acoustic grand piano"},"notes":[]},{"instrument":{"family":"piano","number":0,"name":"acoustic grand piano"},"notes":[]},{"instrument":{"family":"piano","number":0,"name":"acoustic grand piano"},"notes":[]},{"instrument":{"family":"piano","number":0,"name":"acoustic grand piano"},"notes":[]}]}
