{"tracks":[{"instrument":{"family":"piano","number":0,"name":"acoustic grand piano"},"notes":[{"duration":0.1875,"midi":50,"time":0,"velocity":0.3858267716535433},{"duration":5.8125,"midi":38,"time":0,"velocity":0.3858267716535433},{"duration":5.8125,"midi":45,"time":0,"velocity":0.3858267716535433},{"duration":0.1875,"midi":57,"time":0.1875,"velocity":0.3858267716535433},{"duration":0.09375,"midi":55,"time":0.375,"velocity":0.3858267716535433},{"duration":0.1875,"midi":57,"time":0.46875,"velocity":0.3858267716535433},{"duration":0.1875,"midi":52,"time":0.65625,"velocity":0.3858267716535433},{"duration":0.1875,"midi":53,"time":0.84375,"velocity":0.3858267716535433},{"duration":0.09375,"midi":57,"time":1.03125,"velocity":0.3858267716535433},{"duration":0.09375,"midi":55,"time":1.125,"velocity":0.3858267716535433},{"duration":0.09375,"midi":53,"time":1.21875,"velocity":0.3858267716535433},{"duration":0.09375,"midi":52,"time":1.3125,"velocity":0.3858267716535433},{"duration":0.1875,"midi":50,"time":1.40625,"velocity":0.3858267716535433},{"duration":0.1875,"midi":57,"time":1.6875,"velocity":0.3858267716535433},{"duration":0.09375,"midi":55,"time":1.875,"velocity":0.3858267716535433},{"duration":0.1875,"midi":57,"time":1.96875,"velocity":0.3858267716535433},{"duration":0.1875,"midi":52,"time":2.15625,"velocity":0.3858267716535433},{"duration":0.1875,"midi":53,"time":2.34375,"velocity":0.3858267716535433},{"duration":0.09375,"midi":57,"time":2.53125,"velocity":0.3858267716535433},{"duration":0.1875,"midi":48,"time":2.625,"velocity":0.3858267716535433},{"duration":0.1875,"midi":49,"time":2.8125,"velocity":0.3858267716535433},{"duration":0.1875,"midi":50,"time":3,"velocity":0.3858267716535433},{"duration":0.1875,"midi":57,"time":3.1875,"velocity":0.3858267716535433},{"duration":0.09375,"midi":55,"time":3.375,"velocity":0.3858267716535433},{"duration":0.1875,"midi":57,"time":3.46875,"velocity":0.3858267716535433},{"duration":0.1875,"midi":52,"time":3.65625,"velocity":0.3858267716535433},{"duration":0.1875,"midi":53,"time":3.84375,"velocity":0.3858267716535433},{"duration":0.09375,"midi":57,"time":4.03125,"velocity":0.3858267716535433},{"duration":0.09375,"midi":55,"time":4.125,"velocity":0.3858267716535433},{"duration":0.09375,"midi":53,"time":4.21875,"velocity":0.3858267716535433},{"duration":0.09375,"midi":52,"time":4.3125,"velocity":0.3858267716535433},{"duration":0.1875,"midi":50,"time":4.40625,"velocity":0.3858267716535433},{"duration":0.1875,"midi":57,"time":4.6875,"velocity":0.3858267716535433},{"duration":0.09375,"midi":55,"time":4.875,"velocity":0.3858267716535433},{"duration":0.1875,"midi":57,"time":4.96875,"velocity":0.3858267716535433},{"duration":0.1875,"midi":52,"time":5.15625,"velocity":0.3858267716535433},{"duration":0.1875,"midi":53,"time":5.34375,"velocity":0.3858267716535433},{"duration":0.09375,"midi":57,"time":5.53125,"velocity":0.3858267716535433},{"duration":0.1875,"midi":48,"time":5.625,"velocity":0.3858267716535433},{"duration":0.1875,"midi":49,"time":5.8125,"velocity":0.3858267716535433},{"duration":1.3125,"midi":45,"time":6,"velocity":0.3858267716535433},{"duration":0.1875,"midi":50,"time":6,"velocity":0.3858267716535433},{"duration":1.3125,"midi":38,"time":6,"velocity":0.3858267716535433},{"duration":0.1875,"midi":57,"time":6.1875,"velocity":0.3858267716535433},{"duration":0.09375,"midi":55,"time":6.375,"velocity":0.3858267716535433},{"duration":0.1875,"midi":57,"time":6.46875,"velocity":0.3858267716535433},{"duration":0.1875,"midi":52,"time":6.65625,"velocity":0.3858267716535433},{"duration":0.1875,"midi":53,"time":6.84375,"velocity":0.3858267716535433},{"duration":0.09375,"midi":57,"time":7.03125,"velocity":0.3858267716535433},{"duration":0.09375,"midi":55,"time":7.125,"velocity":0.3858267716535433},{"duration":0.09375,"midi":53,"time":7.21875,"velocity":0.3858267716535433},{"duration":0.09375,"midi":52,"time":7.3125,"velocity":0.3858267716535433},{"duration":1.6875,"midi":38,"time":7.3125,"velocity":0.3858267716535433},{"duration":0.1875,"midi":50,"time":7.40625,"velocity":0.3858267716535433},{"duration":1.5,"midi":45,"time":7.5,"velocity":0.3858267716535433},{"duration":0.1875,"midi":57,"time":7.6875,"velocity":0.3858267716535433},{"duration":0.09375,"midi":55,"time":7.875,"velocity":0.3858267716535433},{"duration":0.1875,"midi":57,"time":7.96875,"velocity":0.3858267716535433},{"duration":0.1875,"midi":52,"time":8.15625,"velocity":0.3858267716535433},{"duration":0.1875,"midi":53,"time":8.34375,"velocity":0.3858267716535433},{"duration":0.09375,"midi":57,"time":8.53125,"velocity":0.3858267716535433},{"duration":0.1875,"midi":48,"time":8.625,"velocity":0.3858267716535433},{"duration":0.1875,"midi":49,"time":8.8125,"velocity":0.3858267716535433},{"duration":0.1875,"midi":50,"time":9,"velocity":0.3858267716535433},{"duration":0.75,"midi":45,"time":9,"velocity":0.3858267716535433},{"duration":0.75,"midi":38,"time":9,"velocity":0.3858267716535433},{"duration":0.1875,"midi":57,"time":9.1875,"velocity":0.3858267716535433},{"duration":0.09375,"midi":55,"time":9.375,"velocity":0.3858267716535433},{"duration":0.1875,"midi":57,"time":9.46875,"velocity":0.3858267716535433},{"duration":0.1875,"midi":52,"time":9.65625,"velocity":0.3858267716535433},{"duration":0.75,"midi":45,"time":9.75,"velocity":0.3858267716535433},{"duration":0.75,"midi":38,"time":9.75,"velocity":0.3858267716535433},{"duration":0.1875,"midi":53,"time":9.84375,"velocity":0.3858267716535433},{"duration":0.09375,"midi":57,"time":10.03125,"velocity":0.3858267716535433},{"duration":0.09375,"midi":55,"time":10.125,"velocity":0.3858267716535433},{"duration":0.09375,"midi":53,"time":10.21875,"velocity":0.3858267716535433},{"duration":0.09375,"midi":52,"time":10.3125,"velocity":0.3858267716535433},{"duration":0.1875,"midi":50,"time":10.40625,"velocity":0.3858267716535433},{"duration":0.375,"midi":45,"time":10.5,"velocity":0.3858267716535433},{"duration":0.375,"midi":38,"time":10.5,"velocity":0.3858267716535433},{"duration":0.1875,"midi":57,"time":10.6875,"velocity":0.3858267716535433},{"duration":0.375,"midi":50,"time":10.875,"velocity":0.3858267716535433},{"duration":0.375,"midi":45,"time":10.875,"velocity":0.3858267716535433},{"duration":0.375,"midi":38,"time":10.875,"velocity":0.3858267716535433},{"duration":0.09375,"midi":55,"time":10.875,"velocity":0.3858267716535433},{"duration":0.1875,"midi":57,"time":10.96875,"velocity":0.3858267716535433},{"duration":0.1875,"midi":60,"time":11.15625,"velocity":0.3858267716535433},{"duration":0.375,"midi":50,"time":11.25,"velocity":0.3858267716535433},{"duration":0.375,"midi":38,"time":11.25,"velocity":0.3858267716535433},{"duration":0.375,"midi":45,"time":11.25,"velocity":0.3858267716535433},{"duration":0.09375,"midi":60,"time":11.34375,"velocity":0.3858267716535433},{"duration":0.1875,"midi":57,"time":11.4375,"velocity":0.3858267716535433},{"duration":0.1875,"midi":64,"time":11.625,"velocity":0.3858267716535433},{"duration":0.1875,"midi":57,"time":11.625,"velocity":0.3858267716535433},{"duration":0.375,"midi":38,"time":11.625,"velocity":0.3858267716535433},{"duration":0.375,"midi":50,"time":11.625,"velocity":0.3858267716535433},{"duration":0.375,"midi":45,"time":11.625,"velocity":0.3858267716535433},{"duration":0.09375,"midi":60,"time":11.8125,"velocity":0.3858267716535433},{"duration":0.09375,"midi":61,"time":11.90625,"velocity":0.3858267716535433},{"duration":0.1875,"midi":62,"time":12,"velocity":0.3858267716535433},{"duration":0.1875,"midi":38,"time":12,"velocity":0.3858267716535433},{"duration":0.1875,"midi":65,"time":12.1875,"velocity":0.3858267716535433},{"duration":0.1875,"midi":53,"time":12.1875,"velocity":0.3858267716535433},{"duration":0.1875,"midi":50,"time":12.1875,"velocity":0.3858267716535433},{"duration":0.1875,"midi":69,"time":12.1875,"velocity":0.3858267716535433},{"duration":0.09375,"midi":67,"time":12.375,"velocity":0.3858267716535433},{"duration":0.1875,"midi":38,"time":12.375,"velocity":0.3858267716535433},{"duration":0.1875,"midi":69,"time":12.46875,"velocity":0.3858267716535433},{"duration":0.1875,"midi":53,"time":12.5625,"velocity":0.3858267716535433},{"duration":0.1875,"midi":50,"time":12.5625,"velocity":0.3858267716535433},{"duration":0.1875,"midi":64,"time":12.65625,"velocity":0.3858267716535433},{"duration":0.1875,"midi":60,"time":12.65625,"velocity":0.3858267716535433},{"duration":0.1875,"midi":38,"time":12.75,"velocity":0.3858267716535433},{"duration":0.1875,"midi":65,"time":12.84375,"velocity":0.3858267716535433},{"duration":0.1875,"midi":62,"time":12.84375,"velocity":0.3858267716535433},{"duration":0.1875,"midi":50,"time":12.9375,"velocity":0.3858267716535433},{"duration":0.1875,"midi":53,"time":12.9375,"velocity":0.3858267716535433},{"duration":0.09375,"midi":69,"time":13.03125,"velocity":0.3858267716535433},{"duration":0.1875,"midi":38,"time":13.125,"velocity":0.3858267716535433},{"duration":0.09375,"midi":67,"time":13.125,"velocity":0.3858267716535433},{"duration":0.09375,"midi":65,"time":13.21875,"velocity":0.3858267716535433},{"duration":0.1875,"midi":50,"time":13.3125,"velocity":0.3858267716535433},{"duration":0.1875,"midi":53,"time":13.3125,"velocity":0.3858267716535433},{"duration":0.09375,"midi":64,"time":13.3125,"velocity":0.3858267716535433},{"duration":0.1875,"midi":62,"time":13.40625,"velocity":0.3858267716535433},{"duration":0.1875,"midi":38,"time":13.5,"velocity":0.3858267716535433},{"duration":0.1875,"midi":53,"time":13.6875,"velocity":0.3858267716535433},{"duration":0.1875,"midi":50,"time":13.6875,"velocity":0.3858267716535433},{"duration":0.1875,"midi":69,"time":13.6875,"velocity":0.3858267716535433},{"duration":0.1875,"midi":65,"time":13.6875,"velocity":0.3858267716535433},{"duration":0.1875,"midi":38,"time":13.875,"velocity":0.3858267716535433},{"duration":0.09375,"midi":67,"time":13.875,"velocity":0.3858267716535433},{"duration":0.1875,"midi":69,"time":13.96875,"velocity":0.3858267716535433},{"duration":0.1875,"midi":50,"time":14.0625,"velocity":0.3858267716535433},{"duration":0.1875,"midi":53,"time":14.0625,"velocity":0.3858267716535433},{"duration":0.1875,"midi":64,"time":14.15625,"velocity":0.3858267716535433},{"duration":0.1875,"midi":60,"time":14.15625,"velocity":0.3858267716535433},{"duration":0.1875,"midi":38,"time":14.25,"velocity":0.3858267716535433},{"duration":0.1875,"midi":65,"time":14.34375,"velocity":0.3858267716535433},{"duration":0.1875,"midi":62,"time":14.34375,"velocity":0.3858267716535433},{"duration":0.1875,"midi":53,"time":14.4375,"velocity":0.3858267716535433},{"duration":0.1875,"midi":50,"time":14.4375,"velocity":0.3858267716535433},{"duration":0.09375,"midi":69,"time":14.53125,"velocity":0.3858267716535433},{"duration":0.1875,"midi":38,"time":14.625,"velocity":0.3858267716535433},{"duration":0.1875,"midi":57,"time":14.625,"velocity":0.3858267716535433},{"duration":0.1875,"midi":60,"time":14.625,"velocity":0.3858267716535433},{"duration":0.1875,"midi":53,"time":14.8125,"velocity":0.3858267716535433},{"duration":0.1875,"midi":61,"time":14.8125,"velocity":0.3858267716535433},{"duration":0.1875,"midi":50,"time":14.8125,"velocity":0.3858267716535433},{"duration":0.1875,"midi":57,"time":14.8125,"velocity":0.3858267716535433},{"duration":0.1875,"midi":57,"time":15,"velocity":0.3858267716535433},{"duration":0.1875,"midi":38,"time":15,"velocity":0.3858267716535433},{"duration":0.1875,"midi":62,"time":15,"velocity":0.3858267716535433},{"duration":0.1875,"midi":69,"time":15.1875,"velocity":0.3858267716535433},{"duration":0.1875,"midi":50,"time":15.1875,"velocity":0.3858267716535433},{"duration":0.1875,"midi":53,"time":15.1875,"velocity":0.3858267716535433},{"duration":0.1875,"midi":65,"time":15.1875,"velocity":0.3858267716535433},{"duration":0.09375,"midi":67,"time":15.375,"velocity":0.3858267716535433},{"duration":0.1875,"midi":38,"time":15.375,"velocity":0.3858267716535433},{"duration":0.1875,"midi":69,"time":15.46875,"velocity":0.3858267716535433},{"duration":0.1875,"midi":50,"time":15.5625,"velocity":0.3858267716535433},{"duration":0.1875,"midi":53,"time":15.5625,"velocity":0.3858267716535433},{"duration":0.1875,"midi":64,"time":15.65625,"velocity":0.3858267716535433},{"duration":0.1875,"midi":60,"time":15.65625,"velocity":0.3858267716535433},{"duration":0.1875,"midi":38,"time":15.75,"velocity":0.3858267716535433},{"duration":0.1875,"midi":65,"time":15.84375,"velocity":0.3858267716535433},{"duration":0.1875,"midi":62,"time":15.84375,"velocity":0.3858267716535433},{"duration":0.1875,"midi":50,"time":15.9375,"velocity":0.3858267716535433},{"duration":0.1875,"midi":53,"time":15.9375,"velocity":0.3858267716535433},{"duration":0.09375,"midi":69,"time":16.03125,"velocity":0.3858267716535433},{"duration":0.09375,"midi":67,"time":16.125,"velocity":0.3858267716535433},{"duration":0.1875,"midi":38,"time":16.125,"velocity":0.3858267716535433},{"duration":0.09375,"midi":65,"time":16.21875,"velocity":0.3858267716535433},{"duration":0.09375,"midi":64,"time":16.3125,"velocity":0.3858267716535433},{"duration":0.1875,"midi":53,"time":16.3125,"velocity":0.3858267716535433},{"duration":0.1875,"midi":50,"time":16.3125,"velocity":0.3858267716535433},{"duration":0.1875,"midi":62,"time":16.40625,"velocity":0.3858267716535433},{"duration":0.1875,"midi":38,"time":16.5,"velocity":0.3858267716535433},{"duration":0.1875,"midi":50,"time":16.6875,"velocity":0.3858267716535433},{"duration":0.1875,"midi":65,"time":16.6875,"velocity":0.3858267716535433},{"duration":0.1875,"midi":53,"time":16.6875,"velocity":0.3858267716535433},{"duration":0.1875,"midi":69,"time":16.6875,"velocity":0.3858267716535433},{"duration":0.1875,"midi":38,"time":16.875,"velocity":0.3858267716535433},{"duration":0.09375,"midi":67,"time":16.875,"velocity":0.3858267716535433},{"duration":0.1875,"midi":69,"time":16.96875,"velocity":0.3858267716535433},{"duration":0.1875,"midi":53,"time":17.0625,"velocity":0.3858267716535433},{"duration":0.1875,"midi":50,"time":17.0625,"velocity":0.3858267716535433},{"duration":0.1875,"midi":64,"time":17.15625,"velocity":0.3858267716535433},{"duration":0.1875,"midi":60,"time":17.15625,"velocity":0.3858267716535433},{"duration":0.1875,"midi":38,"time":17.25,"velocity":0.3858267716535433},{"duration":0.1875,"midi":65,"time":17.34375,"velocity":0.3858267716535433},{"duration":0.1875,"midi":62,"time":17.34375,"velocity":0.3858267716535433},{"duration":0.1875,"midi":53,"time":17.4375,"velocity":0.3858267716535433},{"duration":0.1875,"midi":50,"time":17.4375,"velocity":0.3858267716535433},{"duration":0.09375,"midi":69,"time":17.53125,"velocity":0.3858267716535433},{"duration":0.1875,"midi":38,"time":17.625,"velocity":0.3858267716535433},{"duration":0.1875,"midi":60,"time":17.625,"velocity":0.3858267716535433},{"duration":0.1875,"midi":57,"time":17.625,"velocity":0.3858267716535433},{"duration":0.1875,"midi":61,"time":17.8125,"velocity":0.3858267716535433},{"duration":0.1875,"midi":57,"time":17.8125,"velocity":0.3858267716535433},{"duration":0.1875,"midi":50,"time":17.8125,"velocity":0.3858267716535433},{"duration":0.1875,"midi":53,"time":17.8125,"velocity":0.3858267716535433},{"duration":0.1875,"midi":62,"time":18,"velocity":0.3858267716535433},{"duration":0.1875,"midi":38,"time":18,"velocity":0.3858267716535433},{"duration":0.1875,"midi":57,"time":18,"velocity":0.3858267716535433},{"duration":0.1875,"midi":65,"time":18.1875,"velocity":0.3858267716535433},{"duration":0.1875,"midi":69,"time":18.1875,"velocity":0.3858267716535433},{"duration":0.1875,"midi":50,"time":18.1875,"velocity":0.3858267716535433},{"duration":0.1875,"midi":53,"time":18.1875,"velocity":0.3858267716535433},{"duration":0.1875,"midi":38,"time":18.375,"velocity":0.3858267716535433},{"duration":0.09375,"midi":67,"time":18.375,"velocity":0.3858267716535433},{"duration":0.1875,"midi":69,"time":18.46875,"velocity":0.3858267716535433},{"duration":0.1875,"midi":50,"time":18.5625,"velocity":0.3858267716535433},{"duration":0.1875,"midi":53,"time":18.5625,"velocity":0.3858267716535433},{"duration":0.1875,"midi":64,"time":18.65625,"velocity":0.3858267716535433},{"duration":0.1875,"midi":60,"time":18.65625,"velocity":0.3858267716535433},{"duration":0.1875,"midi":38,"time":18.75,"velocity":0.3858267716535433},{"duration":0.1875,"midi":62,"time":18.84375,"velocity":0.3858267716535433},{"duration":0.1875,"midi":65,"time":18.84375,"velocity":0.3858267716535433},{"duration":0.1875,"midi":53,"time":18.9375,"velocity":0.3858267716535433},{"duration":0.1875,"midi":50,"time":18.9375,"velocity":0.3858267716535433},{"duration":0.09375,"midi":69,"time":19.03125,"velocity":0.3858267716535433},{"duration":0.09375,"midi":67,"time":19.125,"velocity":0.3858267716535433},{"duration":0.1875,"midi":38,"time":19.125,"velocity":0.3858267716535433},{"duration":0.09375,"midi":65,"time":19.21875,"velocity":0.3858267716535433},{"duration":0.1875,"midi":50,"time":19.3125,"velocity":0.3858267716535433},{"duration":0.1875,"midi":53,"time":19.3125,"velocity":0.3858267716535433},{"duration":0.09375,"midi":64,"time":19.3125,"velocity":0.3858267716535433},{"duration":0.1875,"midi":62,"time":19.40625,"velocity":0.3858267716535433},{"duration":0.1875,"midi":38,"time":19.5,"velocity":0.3858267716535433},{"duration":0.1875,"midi":50,"time":19.6875,"velocity":0.3858267716535433},{"duration":0.1875,"midi":69,"time":19.6875,"velocity":0.3858267716535433},{"duration":0.1875,"midi":65,"time":19.6875,"velocity":0.3858267716535433},{"duration":0.1875,"midi":53,"time":19.6875,"velocity":0.3858267716535433},{"duration":0.09375,"midi":67,"time":19.875,"velocity":0.3858267716535433},{"duration":0.1875,"midi":38,"time":19.875,"velocity":0.3858267716535433},{"duration":0.1875,"midi":69,"time":19.96875,"velocity":0.3858267716535433},{"duration":0.1875,"midi":53,"time":20.0625,"velocity":0.3858267716535433},{"duration":0.1875,"midi":50,"time":20.0625,"velocity":0.3858267716535433},{"duration":0.1875,"midi":64,"time":20.15625,"velocity":0.3858267716535433},{"duration":0.1875,"midi":60,"time":20.15625,"velocity":0.3858267716535433},{"duration":0.1875,"midi":38,"time":20.25,"velocity":0.3858267716535433},{"duration":0.1875,"midi":62,"time":20.34375,"velocity":0.3858267716535433},{"duration":0.1875,"midi":65,"time":20.34375,"velocity":0.3858267716535433},{"duration":0.1875,"midi":53,"time":20.4375,"velocity":0.3858267716535433},{"duration":0.1875,"midi":50,"time":20.4375,"velocity":0.3858267716535433},{"duration":0.09375,"midi":69,"time":20.53125,"velocity":0.3858267716535433},{"duration":0.1875,"midi":38,"time":20.625,"velocity":0.3858267716535433},{"duration":0.1875,"midi":60,"time":20.625,"velocity":0.3858267716535433},{"duration":0.1875,"midi":57,"time":20.625,"velocity":0.3858267716535433},{"duration":0.1875,"midi":50,"time":20.8125,"velocity":0.3858267716535433},{"duration":0.1875,"midi":53,"time":20.8125,"velocity":0.3858267716535433},{"duration":0.1875,"midi":57,"time":20.8125,"velocity":0.3858267716535433},{"duration":0.1875,"midi":61,"time":20.8125,"velocity":0.3858267716535433},{"duration":0.1875,"midi":57,"time":21,"velocity":0.3858267716535433},{"duration":0.1875,"midi":38,"time":21,"velocity":0.3858267716535433},{"duration":0.1875,"midi":62,"time":21,"velocity":0.3858267716535433},{"duration":0.1875,"midi":65,"time":21.1875,"velocity":0.3858267716535433},{"duration":0.1875,"midi":69,"time":21.1875,"velocity":0.3858267716535433},{"duration":0.1875,"midi":50,"time":21.1875,"velocity":0.3858267716535433},{"duration":0.1875,"midi":53,"time":21.1875,"velocity":0.3858267716535433},{"duration":0.09375,"midi":67,"time":21.375,"velocity":0.3858267716535433},{"duration":0.1875,"midi":38,"time":21.375,"velocity":0.3858267716535433},{"duration":0.1875,"midi":69,"time":21.46875,"velocity":0.3858267716535433},{"duration":0.1875,"midi":50,"time":21.5625,"velocity":0.3858267716535433},{"duration":0.1875,"midi":53,"time":21.5625,"velocity":0.3858267716535433},{"duration":0.1875,"midi":64,"time":21.65625,"velocity":0.3858267716535433},{"duration":0.1875,"midi":60,"time":21.65625,"velocity":0.3858267716535433},{"duration":0.1875,"midi":38,"time":21.75,"velocity":0.3858267716535433},{"duration":0.1875,"midi":65,"time":21.84375,"velocity":0.3858267716535433},{"duration":0.1875,"midi":62,"time":21.84375,"velocity":0.3858267716535433},{"duration":0.1875,"midi":53,"time":21.9375,"velocity":0.3858267716535433},{"duration":0.1875,"midi":50,"time":21.9375,"velocity":0.3858267716535433},{"duration":0.09375,"midi":69,"time":22.03125,"velocity":0.3858267716535433},{"duration":0.1875,"midi":38,"time":22.125,"velocity":0.3858267716535433},{"duration":0.09375,"midi":67,"time":22.125,"velocity":0.3858267716535433},{"duration":0.09375,"midi":65,"time":22.21875,"velocity":0.3858267716535433},{"duration":0.09375,"midi":64,"time":22.3125,"velocity":0.3858267716535433},{"duration":0.1875,"midi":53,"time":22.3125,"velocity":0.3858267716535433},{"duration":0.1875,"midi":50,"time":22.3125,"velocity":0.3858267716535433},{"duration":0.09375,"midi":62,"time":22.40625,"velocity":0.3858267716535433},{"duration":0.1875,"midi":38,"time":22.5,"velocity":0.3858267716535433},{"duration":0.09375,"midi":53,"time":22.5,"velocity":0.3858267716535433},{"duration":0.09375,"midi":55,"time":22.546875,"velocity":0.3858267716535433},{"duration":0.09375,"midi":57,"time":22.59375,"velocity":0.3858267716535433},{"duration":0.09375,"midi":59,"time":22.6171875,"velocity":0.3858267716535433},{"duration":0.09375,"midi":60,"time":22.6640625,"velocity":0.3858267716535433},{"duration":0.1875,"midi":53,"time":22.6875,"velocity":0.3858267716535433},{"duration":0.1875,"midi":50,"time":22.6875,"velocity":0.3858267716535433},{"duration":0.09375,"midi":62,"time":22.7109375,"velocity":0.3858267716535433},{"duration":0.09375,"midi":64,"time":22.7578125,"velocity":0.3858267716535433},{"duration":0.09375,"midi":65,"time":22.78125,"velocity":0.3858267716535433},{"duration":0.09375,"midi":67,"time":22.828125,"velocity":0.3858267716535433},{"duration":0.1875,"midi":38,"time":22.875,"velocity":0.3858267716535433},{"duration":0.09375,"midi":69,"time":22.875,"velocity":0.3858267716535433},{"duration":0.09375,"midi":71,"time":22.921875,"velocity":0.3858267716535433},{"duration":0.09375,"midi":72,"time":22.9453125,"velocity":0.3858267716535433},{"duration":0.09375,"midi":74,"time":22.9921875,"velocity":0.3858267716535433},{"duration":0.09375,"midi":76,"time":23.0390625,"velocity":0.3858267716535433},{"duration":0.1875,"midi":50,"time":23.0625,"velocity":0.3858267716535433},{"duration":0.1875,"midi":53,"time":23.0625,"velocity":0.3858267716535433},{"duration":0.09375,"midi":77,"time":23.0859375,"velocity":0.3858267716535433},{"duration":0.09375,"midi":79,"time":23.1328125,"velocity":0.3858267716535433},{"duration":0.09375,"midi":81,"time":23.15625,"velocity":0.3858267716535433},{"duration":0.09375,"midi":83,"time":23.203125,"velocity":0.3858267716535433},{"duration":0.09375,"midi":84,"time":23.25,"velocity":0.3858267716535433},{"duration":0.1875,"midi":38,"time":23.25,"velocity":0.3858267716535433},{"duration":0.09375,"midi":86,"time":23.296875,"velocity":0.3858267716535433},{"duration":0.09375,"midi":88,"time":23.3203125,"velocity":0.3858267716535433},{"duration":0.09375,"midi":89,"time":23.3671875,"velocity":0.3858267716535433},{"duration":0.09375,"midi":91,"time":23.4140625,"velocity":0.3858267716535433},{"duration":0.1875,"midi":50,"time":23.4375,"velocity":0.3858267716535433},{"duration":0.1875,"midi":53,"time":23.4375,"velocity":0.3858267716535433},{"duration":0.1875,"midi":53,"time":23.4375,"velocity":0.3858267716535433},{"duration":0.09375,"midi":93,"time":23.4609375,"velocity":0.3858267716535433},{"duration":0.09375,"midi":95,"time":23.484375,"velocity":0.3858267716535433},{"duration":0.09375,"midi":84,"time":23.53125,"velocity":0.3858267716535433},{"duration":0.375,"midi":86,"time":23.625,"velocity":0.3858267716535433},{"duration":0.1875,"midi":36,"time":23.625,"velocity":0.3858267716535433},{"duration":0.375,"midi":86,"time":23.625,"velocity":0.3858267716535433},{"duration":0.1875,"midi":52,"time":23.8125,"velocity":0.3858267716535433},{"duration":0.1875,"midi":48,"time":23.8125,"velocity":0.3858267716535433},{"duration":0.1875,"midi":34,"time":24,"velocity":0.3858267716535433},{"duration":0.1875,"midi":69,"time":24,"velocity":0.3858267716535433},{"duration":0.1875,"midi":65,"time":24,"velocity":0.3858267716535433},{"duration":0.1875,"midi":50,"time":24.1875,"velocity":0.3858267716535433},{"duration":0.1875,"midi":77,"time":24.1875,"velocity":0.3858267716535433},{"duration":0.1875,"midi":74,"time":24.1875,"velocity":0.3858267716535433},{"duration":0.1875,"midi":46,"time":24.1875,"velocity":0.3858267716535433},{"duration":0.1875,"midi":34,"time":24.375,"velocity":0.3858267716535433},{"duration":0.09375,"midi":76,"time":24.375,"velocity":0.3858267716535433},{"duration":0.09375,"midi":77,"time":24.46875,"velocity":0.3858267716535433},{"duration":0.1875,"midi":76,"time":24.5625,"velocity":0.3858267716535433},{"duration":0.1875,"midi":46,"time":24.5625,"velocity":0.3858267716535433},{"duration":0.1875,"midi":50,"time":24.5625,"velocity":0.3858267716535433},{"duration":0.1875,"midi":36,"time":24.75,"velocity":0.3858267716535433},{"duration":0.1875,"midi":79,"time":24.75,"velocity":0.3858267716535433},{"duration":0.1875,"midi":72,"time":24.75,"velocity":0.3858267716535433},{"duration":0.1875,"midi":48,"time":24.9375,"velocity":0.3858267716535433},{"duration":0.1875,"midi":77,"time":24.9375,"velocity":0.3858267716535433},{"duration":0.1875,"midi":52,"time":24.9375,"velocity":0.3858267716535433},{"duration":0.09375,"midi":76,"time":25.125,"velocity":0.3858267716535433},{"duration":0.1875,"midi":36,"time":25.125,"velocity":0.3858267716535433},{"duration":0.09375,"midi":77,"time":25.21875,"velocity":0.3858267716535433},{"duration":0.09375,"midi":76,"time":25.3125,"velocity":0.3858267716535433},{"duration":0.1875,"midi":52,"time":25.3125,"velocity":0.3858267716535433},{"duration":0.1875,"midi":48,"time":25.3125,"velocity":0.3858267716535433},{"duration":0.09375,"midi":72,"time":25.40625,"velocity":0.3858267716535433},{"duration":0.1875,"midi":38,"time":25.5,"velocity":0.3858267716535433},{"duration":0.1875,"midi":74,"time":25.5,"velocity":0.3858267716535433},{"duration":0.1875,"midi":77,"time":25.6875,"velocity":0.3858267716535433},{"duration":0.1875,"midi":81,"time":25.6875,"velocity":0.3858267716535433},{"duration":0.1875,"midi":53,"time":25.6875,"velocity":0.3858267716535433},{"duration":0.1875,"midi":50,"time":25.6875,"velocity":0.3858267716535433},{"duration":0.09375,"midi":79,"time":25.875,"velocity":0.3858267716535433},{"duration":0.1875,"midi":38,"time":25.875,"velocity":0.3858267716535433},{"duration":0.09375,"midi":81,"time":25.96875,"velocity":0.3858267716535433},{"duration":0.1875,"midi":50,"time":26.0625,"velocity":0.3858267716535433},{"duration":0.09375,"midi":79,"time":26.0625,"velocity":0.3858267716535433},{"duration":0.1875,"midi":53,"time":26.0625,"velocity":0.3858267716535433},{"duration":0.09375,"midi":81,"time":26.15625,"velocity":0.3858267716535433},{"duration":0.1875,"midi":84,"time":26.25,"velocity":0.3858267716535433},{"duration":0.1875,"midi":38,"time":26.25,"velocity":0.3858267716535433},{"duration":0.1875,"midi":77,"time":26.25,"velocity":0.3858267716535433},{"duration":0.1875,"midi":81,"time":26.4375,"velocity":0.3858267716535433},{"duration":0.1875,"midi":53,"time":26.4375,"velocity":0.3858267716535433},{"duration":0.1875,"midi":50,"time":26.4375,"velocity":0.3858267716535433},{"duration":0.1875,"midi":38,"time":26.625,"velocity":0.3858267716535433},{"duration":0.1875,"midi":79,"time":26.625,"velocity":0.3858267716535433},{"duration":0.1875,"midi":81,"time":26.8125,"velocity":0.3858267716535433},{"duration":0.1875,"midi":53,"time":26.8125,"velocity":0.3858267716535433},{"duration":0.1875,"midi":50,"time":26.8125,"velocity":0.3858267716535433},{"duration":0.1875,"midi":34,"time":27,"velocity":0.3858267716535433},{"duration":0.1875,"midi":69,"time":27,"velocity":0.3858267716535433},{"duration":0.1875,"midi":65,"time":27,"velocity":0.3858267716535433},{"duration":0.1875,"midi":77,"time":27.1875,"velocity":0.3858267716535433},{"duration":0.1875,"midi":46,"time":27.1875,"velocity":0.3858267716535433},{"duration":0.1875,"midi":74,"time":27.1875,"velocity":0.3858267716535433},{"duration":0.1875,"midi":50,"time":27.1875,"velocity":0.3858267716535433},{"duration":0.09375,"midi":76,"time":27.375,"velocity":0.3858267716535433},{"duration":0.1875,"midi":34,"time":27.375,"velocity":0.3858267716535433},{"duration":0.09375,"midi":77,"time":27.46875,"velocity":0.3858267716535433},{"duration":0.1875,"midi":76,"time":27.5625,"velocity":0.3858267716535433},{"duration":0.1875,"midi":50,"time":27.5625,"velocity":0.3858267716535433},{"duration":0.1875,"midi":46,"time":27.5625,"velocity":0.3858267716535433},{"duration":0.1875,"midi":36,"time":27.75,"velocity":0.3858267716535433},{"duration":0.1875,"midi":79,"time":27.75,"velocity":0.3858267716535433},{"duration":0.1875,"midi":72,"time":27.75,"velocity":0.3858267716535433},{"duration":0.1875,"midi":77,"time":27.9375,"velocity":0.3858267716535433},{"duration":0.1875,"midi":52,"time":27.9375,"velocity":0.3858267716535433},{"duration":0.1875,"midi":48,"time":27.9375,"velocity":0.3858267716535433},{"duration":0.1875,"midi":36,"time":28.125,"velocity":0.3858267716535433},{"duration":0.09375,"midi":76,"time":28.125,"velocity":0.3858267716535433},{"duration":0.09375,"midi":77,"time":28.21875,"velocity":0.3858267716535433},{"duration":0.09375,"midi":76,"time":28.3125,"velocity":0.3858267716535433},{"duration":0.1875,"midi":52,"time":28.3125,"velocity":0.3858267716535433},{"duration":0.1875,"midi":48,"time":28.3125,"velocity":0.3858267716535433},{"duration":0.09375,"midi":72,"time":28.40625,"velocity":0.3858267716535433},{"duration":0.1875,"midi":38,"time":28.5,"velocity":0.3858267716535433},{"duration":0.1875,"midi":74,"time":28.5,"velocity":0.3858267716535433},{"duration":0.1875,"midi":77,"time":28.6875,"velocity":0.3858267716535433},{"duration":0.1875,"midi":81,"time":28.6875,"velocity":0.3858267716535433},{"duration":0.1875,"midi":50,"time":28.6875,"velocity":0.3858267716535433},{"duration":0.1875,"midi":40,"time":28.875,"velocity":0.3858267716535433},{"duration":0.09375,"midi":79,"time":28.875,"velocity":0.3858267716535433},{"duration":0.09375,"midi":81,"time":28.96875,"velocity":0.3858267716535433},{"duration":0.1875,"midi":52,"time":29.0625,"velocity":0.3858267716535433},{"duration":0.09375,"midi":79,"time":29.0625,"velocity":0.3858267716535433},{"duration":0.09375,"midi":81,"time":29.15625,"velocity":0.3858267716535433},{"duration":0.1875,"midi":41,"time":29.25,"velocity":0.3858267716535433},{"duration":0.1875,"midi":85,"time":29.25,"velocity":0.3858267716535433},{"duration":0.1875,"midi":77,"time":29.25,"velocity":0.3858267716535433},{"duration":0.1875,"midi":81,"time":29.4375,"velocity":0.3858267716535433},{"duration":0.1875,"midi":53,"time":29.4375,"velocity":0.3858267716535433},{"duration":0.1875,"midi":43,"time":29.625,"velocity":0.3858267716535433},{"duration":0.1875,"midi":79,"time":29.625,"velocity":0.3858267716535433},{"duration":0.1875,"midi":81,"time":29.8125,"velocity":0.3858267716535433},{"duration":0.1875,"midi":55,"time":29.8125,"velocity":0.3858267716535433},{"duration":0.1875,"midi":34,"time":30,"velocity":0.3858267716535433},{"duration":0.1875,"midi":65,"time":30,"velocity":0.3858267716535433},{"duration":0.1875,"midi":69,"time":30,"velocity":0.3858267716535433},{"duration":0.1875,"midi":74,"time":30.1875,"velocity":0.3858267716535433},{"duration":0.1875,"midi":50,"time":30.1875,"velocity":0.3858267716535433},{"duration":0.1875,"midi":77,"time":30.1875,"velocity":0.3858267716535433},{"duration":0.1875,"midi":46,"time":30.1875,"velocity":0.3858267716535433},{"duration":0.09375,"midi":76,"time":30.375,"velocity":0.3858267716535433},{"duration":0.1875,"midi":34,"time":30.375,"velocity":0.3858267716535433},{"duration":0.09375,"midi":77,"time":30.46875,"velocity":0.3858267716535433},{"duration":0.1875,"midi":46,"time":30.5625,"velocity":0.3858267716535433},{"duration":0.1875,"midi":50,"time":30.5625,"velocity":0.3858267716535433},{"duration":0.1875,"midi":76,"time":30.5625,"velocity":0.3858267716535433},{"duration":0.1875,"midi":36,"time":30.75,"velocity":0.3858267716535433},{"duration":0.1875,"midi":79,"time":30.75,"velocity":0.3858267716535433},{"duration":0.1875,"midi":72,"time":30.75,"velocity":0.3858267716535433},{"duration":0.1875,"midi":77,"time":30.9375,"velocity":0.3858267716535433},{"duration":0.1875,"midi":52,"time":30.9375,"velocity":0.3858267716535433},{"duration":0.1875,"midi":48,"time":30.9375,"velocity":0.3858267716535433},{"duration":0.09375,"midi":76,"time":31.125,"velocity":0.3858267716535433},{"duration":0.1875,"midi":36,"time":31.125,"velocity":0.3858267716535433},{"duration":0.09375,"midi":77,"time":31.21875,"velocity":0.3858267716535433},{"duration":0.1875,"midi":48,"time":31.3125,"velocity":0.3858267716535433},{"duration":0.1875,"midi":52,"time":31.3125,"velocity":0.3858267716535433},{"duration":0.09375,"midi":76,"time":31.3125,"velocity":0.3858267716535433},{"duration":0.09375,"midi":72,"time":31.40625,"velocity":0.3858267716535433},{"duration":0.1875,"midi":74,"time":31.5,"velocity":0.3858267716535433},{"duration":0.1875,"midi":38,"time":31.5,"velocity":0.3858267716535433},{"duration":0.1875,"midi":50,"time":31.6875,"velocity":0.3858267716535433},{"duration":0.1875,"midi":53,"time":31.6875,"velocity":0.3858267716535433},{"duration":0.1875,"midi":81,"time":31.6875,"velocity":0.3858267716535433},{"duration":0.1875,"midi":77,"time":31.6875,"velocity":0.3858267716535433},{"duration":0.09375,"midi":79,"time":31.875,"velocity":0.3858267716535433},{"duration":0.1875,"midi":38,"time":31.875,"velocity":0.3858267716535433},{"duration":0.09375,"midi":81,"time":31.96875,"velocity":0.3858267716535433},{"duration":0.09375,"midi":79,"time":32.0625,"velocity":0.3858267716535433},{"duration":0.1875,"midi":50,"time":32.0625,"velocity":0.3858267716535433},{"duration":0.1875,"midi":53,"time":32.0625,"velocity":0.3858267716535433},{"duration":0.09375,"midi":81,"time":32.15625,"velocity":0.3858267716535433},{"duration":0.1875,"midi":77,"time":32.25,"velocity":0.3858267716535433},{"duration":0.1875,"midi":84,"time":32.25,"velocity":0.3858267716535433},{"duration":0.1875,"midi":38,"time":32.25,"velocity":0.3858267716535433},{"duration":0.1875,"midi":53,"time":32.4375,"velocity":0.3858267716535433},{"duration":0.1875,"midi":50,"time":32.4375,"velocity":0.3858267716535433},{"duration":0.1875,"midi":81,"time":32.4375,"velocity":0.3858267716535433},{"duration":0.1875,"midi":38,"time":32.625,"velocity":0.3858267716535433},{"duration":0.1875,"midi":77,"time":32.625,"velocity":0.3858267716535433},{"duration":0.1875,"midi":78,"time":32.8125,"velocity":0.3858267716535433},{"duration":0.1875,"midi":50,"time":32.8125,"velocity":0.3858267716535433},{"duration":0.1875,"midi":53,"time":32.8125,"velocity":0.3858267716535433},{"duration":0.1875,"midi":74,"time":33,"velocity":0.3858267716535433},{"duration":0.1875,"midi":79,"time":33,"velocity":0.3858267716535433},{"duration":0.1875,"midi":31,"time":33,"velocity":0.3858267716535433},{"duration":0.09375,"midi":70,"time":33.1875,"velocity":0.3858267716535433},{"duration":0.1875,"midi":46,"time":33.1875,"velocity":0.3858267716535433},{"duration":0.09375,"midi":74,"time":33.28125,"velocity":0.3858267716535433},{"duration":0.1875,"midi":31,"time":33.375,"velocity":0.3858267716535433},{"duration":0.1875,"midi":70,"time":33.375,"velocity":0.3858267716535433},{"duration":0.1875,"midi":74,"time":33.5625,"velocity":0.3858267716535433},{"duration":0.1875,"midi":79,"time":33.5625,"velocity":0.3858267716535433},{"duration":0.1875,"midi":46,"time":33.5625,"velocity":0.3858267716535433},{"duration":0.1875,"midi":81,"time":33.75,"velocity":0.3858267716535433},{"duration":0.1875,"midi":76,"time":33.75,"velocity":0.3858267716535433},{"duration":0.1875,"midi":33,"time":33.75,"velocity":0.3858267716535433},{"duration":0.1875,"midi":48,"time":33.9375,"velocity":0.3858267716535433},{"duration":0.1875,"midi":45,"time":33.9375,"velocity":0.3858267716535433},{"duration":0.09375,"midi":72,"time":33.9375,"velocity":0.3858267716535433},{"duration":0.09375,"midi":76,"time":34.03125,"velocity":0.3858267716535433},{"duration":0.09375,"midi":81,"time":34.03125,"velocity":0.3858267716535433},{"duration":0.1875,"midi":33,"time":34.125,"velocity":0.3858267716535433},{"duration":0.1875,"midi":72,"time":34.125,"velocity":0.3858267716535433},{"duration":0.1875,"midi":45,"time":34.3125,"velocity":0.3858267716535433},{"duration":0.1875,"midi":81,"time":34.3125,"velocity":0.3858267716535433},{"duration":0.1875,"midi":76,"time":34.3125,"velocity":0.3858267716535433},{"duration":0.1875,"midi":48,"time":34.3125,"velocity":0.3858267716535433},{"duration":0.1875,"midi":77,"time":34.5,"velocity":0.3858267716535433},{"duration":0.1875,"midi":34,"time":34.5,"velocity":0.3858267716535433},{"duration":0.1875,"midi":82,"time":34.5,"velocity":0.3858267716535433},{"duration":0.1875,"midi":50,"time":34.6875,"velocity":0.3858267716535433},{"duration":0.1875,"midi":46,"time":34.6875,"velocity":0.3858267716535433},{"duration":0.1875,"midi":74,"time":34.6875,"velocity":0.3858267716535433},{"duration":0.1875,"midi":83,"time":34.875,"velocity":0.3858267716535433},{"duration":0.1875,"midi":77,"time":34.875,"velocity":0.3858267716535433},{"duration":0.1875,"midi":35,"time":34.875,"velocity":0.3858267716535433},{"duration":0.1875,"midi":47,"time":35.0625,"velocity":0.3858267716535433},{"duration":0.1875,"midi":50,"time":35.0625,"velocity":0.3858267716535433},{"duration":0.1875,"midi":74,"time":35.0625,"velocity":0.3858267716535433},{"duration":0.75,"midi":79,"time":35.25,"velocity":0.3858267716535433},{"duration":0.75,"midi":84,"time":35.25,"velocity":0.3858267716535433},{"duration":0.75,"midi":76,"time":35.25,"velocity":0.3858267716535433},{"duration":0.1875,"midi":36,"time":35.25,"velocity":0.3858267716535433},{"duration":0.1875,"midi":48,"time":35.4375,"velocity":0.3858267716535433},{"duration":0.1875,"midi":52,"time":35.4375,"velocity":0.3858267716535433},{"duration":0.1875,"midi":36,"time":35.625,"velocity":0.3858267716535433},{"duration":0.1875,"midi":52,"time":35.8125,"velocity":0.3858267716535433},{"duration":0.1875,"midi":48,"time":35.8125,"velocity":0.3858267716535433},{"duration":0.1875,"midi":65,"time":36,"velocity":0.3858267716535433},{"duration":0.1875,"midi":34,"time":36,"velocity":0.3858267716535433},{"duration":0.1875,"midi":69,"time":36,"velocity":0.3858267716535433},{"duration":0.1875,"midi":77,"time":36.1875,"velocity":0.3858267716535433},{"duration":0.1875,"midi":74,"time":36.1875,"velocity":0.3858267716535433},{"duration":0.1875,"midi":50,"time":36.1875,"velocity":0.3858267716535433},{"duration":0.1875,"midi":46,"time":36.1875,"velocity":0.3858267716535433},{"duration":0.1875,"midi":34,"time":36.375,"velocity":0.3858267716535433},{"duration":0.09375,"midi":76,"time":36.375,"velocity":0.3858267716535433},{"duration":0.09375,"midi":77,"time":36.46875,"velocity":0.3858267716535433},{"duration":0.1875,"midi":50,"time":36.5625,"velocity":0.3858267716535433},{"duration":0.1875,"midi":46,"time":36.5625,"velocity":0.3858267716535433},{"duration":0.1875,"midi":76,"time":36.5625,"velocity":0.3858267716535433},{"duration":0.1875,"midi":36,"time":36.75,"velocity":0.3858267716535433},{"duration":0.1875,"midi":79,"time":36.75,"velocity":0.3858267716535433},{"duration":0.1875,"midi":72,"time":36.75,"velocity":0.3858267716535433},{"duration":0.1875,"midi":48,"time":36.9375,"velocity":0.3858267716535433},{"duration":0.1875,"midi":77,"time":36.9375,"velocity":0.3858267716535433},{"duration":0.1875,"midi":52,"time":36.9375,"velocity":0.3858267716535433},{"duration":0.09375,"midi":76,"time":37.125,"velocity":0.3858267716535433},{"duration":0.1875,"midi":36,"time":37.125,"velocity":0.3858267716535433},{"duration":0.09375,"midi":77,"time":37.21875,"velocity":0.3858267716535433},{"duration":0.1875,"midi":48,"time":37.3125,"velocity":0.3858267716535433},{"duration":0.09375,"midi":76,"time":37.3125,"velocity":0.3858267716535433},{"duration":0.1875,"midi":52,"time":37.3125,"velocity":0.3858267716535433},{"duration":0.09375,"midi":72,"time":37.40625,"velocity":0.3858267716535433},{"duration":0.1875,"midi":74,"time":37.5,"velocity":0.3858267716535433},{"duration":0.1875,"midi":38,"time":37.5,"velocity":0.3858267716535433},{"duration":0.1875,"midi":81,"time":37.6875,"velocity":0.3858267716535433},{"duration":0.1875,"midi":53,"time":37.6875,"velocity":0.3858267716535433},{"duration":0.1875,"midi":50,"time":37.6875,"velocity":0.3858267716535433},{"duration":0.1875,"midi":77,"time":37.6875,"velocity":0.3858267716535433},{"duration":0.09375,"midi":79,"time":37.875,"velocity":0.3858267716535433},{"duration":0.1875,"midi":38,"time":37.875,"velocity":0.3858267716535433},{"duration":0.09375,"midi":81,"time":37.96875,"velocity":0.3858267716535433},{"duration":0.1875,"midi":53,"time":38.0625,"velocity":0.3858267716535433},{"duration":0.1875,"midi":50,"time":38.0625,"velocity":0.3858267716535433},{"duration":0.09375,"midi":79,"time":38.0625,"velocity":0.3858267716535433},{"duration":0.09375,"midi":81,"time":38.15625,"velocity":0.3858267716535433},{"duration":0.1875,"midi":84,"time":38.25,"velocity":0.3858267716535433},{"duration":0.1875,"midi":77,"time":38.25,"velocity":0.3858267716535433},{"duration":0.1875,"midi":38,"time":38.25,"velocity":0.3858267716535433},{"duration":0.1875,"midi":50,"time":38.4375,"velocity":0.3858267716535433},{"duration":0.1875,"midi":53,"time":38.4375,"velocity":0.3858267716535433},{"duration":0.1875,"midi":81,"time":38.4375,"velocity":0.3858267716535433},{"duration":0.1875,"midi":38,"time":38.625,"velocity":0.3858267716535433},{"duration":0.1875,"midi":79,"time":38.625,"velocity":0.3858267716535433},{"duration":0.1875,"midi":50,"time":38.8125,"velocity":0.3858267716535433},{"duration":0.1875,"midi":81,"time":38.8125,"velocity":0.3858267716535433},{"duration":0.1875,"midi":53,"time":38.8125,"velocity":0.3858267716535433},{"duration":0.1875,"midi":65,"time":39,"velocity":0.3858267716535433},{"duration":0.1875,"midi":34,"time":39,"velocity":0.3858267716535433},{"duration":0.1875,"midi":69,"time":39,"velocity":0.3858267716535433},{"duration":0.1875,"midi":77,"time":39.1875,"velocity":0.3858267716535433},{"duration":0.1875,"midi":74,"time":39.1875,"velocity":0.3858267716535433},{"duration":0.1875,"midi":50,"time":39.1875,"velocity":0.3858267716535433},{"duration":0.1875,"midi":46,"time":39.1875,"velocity":0.3858267716535433},{"duration":0.1875,"midi":34,"time":39.375,"velocity":0.3858267716535433},{"duration":0.09375,"midi":76,"time":39.375,"velocity":0.3858267716535433},{"duration":0.09375,"midi":77,"time":39.46875,"velocity":0.3858267716535433},{"duration":0.1875,"midi":50,"time":39.5625,"velocity":0.3858267716535433},{"duration":0.1875,"midi":46,"time":39.5625,"velocity":0.3858267716535433},{"duration":0.1875,"midi":76,"time":39.5625,"velocity":0.3858267716535433},{"duration":0.1875,"midi":36,"time":39.75,"velocity":0.3858267716535433},{"duration":0.1875,"midi":79,"time":39.75,"velocity":0.3858267716535433},{"duration":0.1875,"midi":72,"time":39.75,"velocity":0.3858267716535433},{"duration":0.1875,"midi":48,"time":39.9375,"velocity":0.3858267716535433},{"duration":0.1875,"midi":77,"time":39.9375,"velocity":0.3858267716535433},{"duration":0.1875,"midi":52,"time":39.9375,"velocity":0.3858267716535433},{"duration":0.09375,"midi":76,"time":40.125,"velocity":0.3858267716535433},{"duration":0.1875,"midi":36,"time":40.125,"velocity":0.3858267716535433},{"duration":0.09375,"midi":77,"time":40.21875,"velocity":0.3858267716535433},{"duration":0.09375,"midi":76,"time":40.3125,"velocity":0.3858267716535433},{"duration":0.1875,"midi":52,"time":40.3125,"velocity":0.3858267716535433},{"duration":0.1875,"midi":48,"time":40.3125,"velocity":0.3858267716535433},{"duration":0.09375,"midi":72,"time":40.40625,"velocity":0.3858267716535433},{"duration":0.1875,"midi":74,"time":40.5,"velocity":0.3858267716535433},{"duration":0.1875,"midi":38,"time":40.5,"velocity":0.3858267716535433},{"duration":0.1875,"midi":81,"time":40.6875,"velocity":0.3858267716535433},{"duration":0.1875,"midi":77,"time":40.6875,"velocity":0.3858267716535433},{"duration":0.1875,"midi":50,"time":40.6875,"velocity":0.3858267716535433},{"duration":0.09375,"midi":79,"time":40.875,"velocity":0.3858267716535433},{"duration":0.1875,"midi":40,"time":40.875,"velocity":0.3858267716535433},{"duration":0.09375,"midi":81,"time":40.96875,"velocity":0.3858267716535433},{"duration":0.09375,"midi":79,"time":41.0625,"velocity":0.3858267716535433},{"duration":0.1875,"midi":52,"time":41.0625,"velocity":0.3858267716535433},{"duration":0.09375,"midi":81,"time":41.15625,"velocity":0.3858267716535433},{"duration":0.1875,"midi":41,"time":41.25,"velocity":0.3858267716535433},{"duration":0.1875,"midi":85,"time":41.25,"velocity":0.3858267716535433},{"duration":0.1875,"midi":77,"time":41.25,"velocity":0.3858267716535433},{"duration":0.1875,"midi":53,"time":41.4375,"velocity":0.3858267716535433},{"duration":0.1875,"midi":81,"time":41.4375,"velocity":0.3858267716535433},{"duration":0.1875,"midi":43,"time":41.625,"velocity":0.3858267716535433},{"duration":0.1875,"midi":79,"time":41.625,"velocity":0.3858267716535433},{"duration":0.1875,"midi":55,"time":41.8125,"velocity":0.3858267716535433},{"duration":0.1875,"midi":81,"time":41.8125,"velocity":0.3858267716535433},{"duration":0.1875,"midi":34,"time":42,"velocity":0.3858267716535433},{"duration":0.1875,"midi":69,"time":42,"velocity":0.3858267716535433},{"duration":0.1875,"midi":65,"time":42,"velocity":0.3858267716535433},{"duration":0.1875,"midi":74,"time":42.1875,"velocity":0.3858267716535433},{"duration":0.1875,"midi":50,"time":42.1875,"velocity":0.3858267716535433},{"duration":0.1875,"midi":46,"time":42.1875,"velocity":0.3858267716535433},{"duration":0.1875,"midi":77,"time":42.1875,"velocity":0.3858267716535433},{"duration":0.1875,"midi":34,"time":42.375,"velocity":0.3858267716535433},{"duration":0.09375,"midi":76,"time":42.375,"velocity":0.3858267716535433},{"duration":0.09375,"midi":77,"time":42.46875,"velocity":0.3858267716535433},{"duration":0.1875,"midi":76,"time":42.5625,"velocity":0.3858267716535433},{"duration":0.1875,"midi":46,"time":42.5625,"velocity":0.3858267716535433},{"duration":0.1875,"midi":50,"time":42.5625,"velocity":0.3858267716535433},{"duration":0.1875,"midi":36,"time":42.75,"velocity":0.3858267716535433},{"duration":0.1875,"midi":79,"time":42.75,"velocity":0.3858267716535433},{"duration":0.1875,"midi":72,"time":42.75,"velocity":0.3858267716535433},{"duration":0.1875,"midi":48,"time":42.9375,"velocity":0.3858267716535433},{"duration":0.1875,"midi":77,"time":42.9375,"velocity":0.3858267716535433},{"duration":0.1875,"midi":52,"time":42.9375,"velocity":0.3858267716535433},{"duration":0.09375,"midi":76,"time":43.125,"velocity":0.3858267716535433},{"duration":0.1875,"midi":36,"time":43.125,"velocity":0.3858267716535433},{"duration":0.09375,"midi":77,"time":43.21875,"velocity":0.3858267716535433},{"duration":0.09375,"midi":76,"time":43.3125,"velocity":0.3858267716535433},{"duration":0.1875,"midi":52,"time":43.3125,"velocity":0.3858267716535433},{"duration":0.1875,"midi":48,"time":43.3125,"velocity":0.3858267716535433},{"duration":0.09375,"midi":72,"time":43.40625,"velocity":0.3858267716535433},{"duration":0.1875,"midi":74,"time":43.5,"velocity":0.3858267716535433},{"duration":0.1875,"midi":38,"time":43.5,"velocity":0.3858267716535433},{"duration":0.1875,"midi":53,"time":43.6875,"velocity":0.3858267716535433},{"duration":0.1875,"midi":50,"time":43.6875,"velocity":0.3858267716535433},{"duration":0.1875,"midi":81,"time":43.6875,"velocity":0.3858267716535433},{"duration":0.1875,"midi":77,"time":43.6875,"velocity":0.3858267716535433},{"duration":0.1875,"midi":38,"time":43.875,"velocity":0.3858267716535433},{"duration":0.09375,"midi":79,"time":43.875,"velocity":0.3858267716535433},{"duration":0.09375,"midi":81,"time":43.96875,"velocity":0.3858267716535433},{"duration":0.1875,"midi":50,"time":44.0625,"velocity":0.3858267716535433},{"duration":0.1875,"midi":53,"time":44.0625,"velocity":0.3858267716535433},{"duration":0.09375,"midi":79,"time":44.0625,"velocity":0.3858267716535433},{"duration":0.09375,"midi":81,"time":44.15625,"velocity":0.3858267716535433},{"duration":0.1875,"midi":84,"time":44.25,"velocity":0.3858267716535433},{"duration":0.1875,"midi":77,"time":44.25,"velocity":0.3858267716535433},{"duration":0.1875,"midi":38,"time":44.25,"velocity":0.3858267716535433},{"duration":0.1875,"midi":53,"time":44.4375,"velocity":0.3858267716535433},{"duration":0.1875,"midi":50,"time":44.4375,"velocity":0.3858267716535433},{"duration":0.1875,"midi":81,"time":44.4375,"velocity":0.3858267716535433},{"duration":0.1875,"midi":38,"time":44.625,"velocity":0.3858267716535433},{"duration":0.1875,"midi":77,"time":44.625,"velocity":0.3858267716535433},{"duration":0.1875,"midi":53,"time":44.8125,"velocity":0.3858267716535433},{"duration":0.1875,"midi":50,"time":44.8125,"velocity":0.3858267716535433},{"duration":0.1875,"midi":78,"time":44.8125,"velocity":0.3858267716535433},{"duration":0.1875,"midi":31,"time":45,"velocity":0.3858267716535433},{"duration":0.1875,"midi":79,"time":45,"velocity":0.3858267716535433},{"duration":0.1875,"midi":74,"time":45,"velocity":0.3858267716535433},{"duration":0.1875,"midi":46,"time":45.1875,"velocity":0.3858267716535433},{"duration":0.09375,"midi":70,"time":45.1875,"velocity":0.3858267716535433},{"duration":0.09375,"midi":74,"time":45.28125,"velocity":0.3858267716535433},{"duration":0.1875,"midi":31,"time":45.375,"velocity":0.3858267716535433},{"duration":0.1875,"midi":70,"time":45.375,"velocity":0.3858267716535433},{"duration":0.375,"midi":76,"time":45.5625,"velocity":0.3858267716535433},{"duration":0.375,"midi":72,"time":45.5625,"velocity":0.3858267716535433},{"duration":0.375,"midi":81,"time":45.5625,"velocity":0.3858267716535433},{"duration":0.1875,"midi":46,"time":45.5625,"velocity":0.3858267716535433},{"duration":0.375,"midi":80,"time":45.5625,"velocity":0.3858267716535433},{"duration":0.1875,"midi":33,"time":45.75,"velocity":0.3858267716535433},{"duration":0.1875,"midi":72,"time":45.9375,"velocity":0.3858267716535433},{"duration":0.1875,"midi":45,"time":45.9375,"velocity":0.3858267716535433},{"duration":0.1875,"midi":48,"time":45.9375,"velocity":0.3858267716535433},{"duration":0.1875,"midi":79,"time":45.9375,"velocity":0.3858267716535433},{"duration":0.1875,"midi":33,"time":46.125,"velocity":0.3858267716535433},{"duration":0.1875,"midi":77,"time":46.125,"velocity":0.3858267716535433},{"duration":0.1875,"midi":72,"time":46.125,"velocity":0.3858267716535433},{"duration":0.1875,"midi":76,"time":46.3125,"velocity":0.3858267716535433},{"duration":0.1875,"midi":48,"time":46.3125,"velocity":0.3858267716535433},{"duration":0.1875,"midi":45,"time":46.3125,"velocity":0.3858267716535433},{"duration":0.1875,"midi":72,"time":46.3125,"velocity":0.3858267716535433},{"duration":1.5,"midi":69,"time":46.5,"velocity":0.3858267716535433},{"duration":1.5,"midi":65,"time":46.5,"velocity":0.3858267716535433},{"duration":1.5,"midi":74,"time":46.5,"velocity":0.3858267716535433},{"duration":0.1875,"midi":38,"time":46.5,"velocity":0.3858267716535433},{"duration":0.1875,"midi":50,"time":46.6875,"velocity":0.3858267716535433},{"duration":0.1875,"midi":53,"time":46.6875,"velocity":0.3858267716535433},{"duration":0.1875,"midi":38,"time":46.875,"velocity":0.3858267716535433},{"duration":0.1875,"midi":50,"time":47.0625,"velocity":0.3858267716535433},{"duration":0.1875,"midi":53,"time":47.0625,"velocity":0.3858267716535433},{"duration":0.1875,"midi":38,"time":47.25,"velocity":0.3858267716535433},{"duration":0.1875,"midi":53,"time":47.4375,"velocity":0.3858267716535433},{"duration":0.1875,"midi":50,"time":47.4375,"velocity":0.3858267716535433},{"duration":0.1875,"midi":38,"time":47.625,"velocity":0.3858267716535433},{"duration":0.1875,"midi":50,"time":47.8125,"velocity":0.3858267716535433},{"duration":0.1875,"midi":53,"time":47.8125,"velocity":0.3858267716535433},{"duration":0.1875,"midi":38,"time":48,"velocity":0.3858267716535433},{"duration":0.1875,"midi":57,"time":48,"velocity":0.3858267716535433},{"duration":0.1875,"midi":50,"time":48.1875,"velocity":0.3858267716535433},{"duration":0.1875,"midi":65,"time":48.1875,"velocity":0.3858267716535433},{"duration":0.1875,"midi":53,"time":48.1875,"velocity":0.3858267716535433},{"duration":0.1875,"midi":38,"time":48.375,"velocity":0.3858267716535433},{"duration":0.09375,"midi":64,"time":48.375,"velocity":0.3858267716535433},{"duration":0.09375,"midi":65,"time":48.46875,"velocity":0.3858267716535433},{"duration":0.1875,"midi":53,"time":48.5625,"velocity":0.3858267716535433},{"duration":0.1875,"midi":64,"time":48.5625,"velocity":0.3858267716535433},{"duration":0.1875,"midi":50,"time":48.5625,"velocity":0.3858267716535433},{"duration":0.1875,"midi":60,"time":48.75,"velocity":0.3858267716535433},{"duration":0.1875,"midi":67,"time":48.75,"velocity":0.3858267716535433},{"duration":0.1875,"midi":38,"time":48.75,"velocity":0.3858267716535433},{"duration":0.1875,"midi":53,"time":48.9375,"velocity":0.3858267716535433},{"duration":0.1875,"midi":50,"time":48.9375,"velocity":0.3858267716535433},{"duration":0.1875,"midi":65,"time":48.9375,"velocity":0.3858267716535433},{"duration":0.1875,"midi":38,"time":49.125,"velocity":0.3858267716535433},{"duration":0.09375,"midi":64,"time":49.125,"velocity":0.3858267716535433},{"duration":0.09375,"midi":65,"time":49.21875,"velocity":0.3858267716535433},{"duration":0.1875,"midi":50,"time":49.3125,"velocity":0.3858267716535433},{"duration":0.09375,"midi":64,"time":49.3125,"velocity":0.3858267716535433},{"duration":0.1875,"midi":53,"time":49.3125,"velocity":0.3858267716535433},{"duration":0.09375,"midi":60,"time":49.40625,"velocity":0.3858267716535433},{"duration":0.1875,"midi":38,"time":49.5,"velocity":0.3858267716535433},{"duration":0.1875,"midi":62,"time":49.5,"velocity":0.3858267716535433},{"duration":0.1875,"midi":53,"time":49.6875,"velocity":0.3858267716535433},{"duration":0.1875,"midi":50,"time":49.6875,"velocity":0.3858267716535433},{"duration":0.1875,"midi":69,"time":49.6875,"velocity":0.3858267716535433},{"duration":0.1875,"midi":38,"time":49.875,"velocity":0.3858267716535433},{"duration":0.09375,"midi":67,"time":49.875,"velocity":0.3858267716535433},{"duration":0.09375,"midi":69,"time":49.96875,"velocity":0.3858267716535433},{"duration":0.09375,"midi":67,"time":50.0625,"velocity":0.3858267716535433},{"duration":0.1875,"midi":50,"time":50.0625,"velocity":0.3858267716535433},{"duration":0.1875,"midi":53,"time":50.0625,"velocity":0.3858267716535433},{"duration":0.09375,"midi":69,"time":50.15625,"velocity":0.3858267716535433},{"duration":0.1875,"midi":38,"time":50.25,"velocity":0.3858267716535433},{"duration":0.1875,"midi":72,"time":50.25,"velocity":0.3858267716535433},{"duration":0.1875,"midi":53,"time":50.4375,"velocity":0.3858267716535433},{"duration":0.1875,"midi":50,"time":50.4375,"velocity":0.3858267716535433},{"duration":0.1875,"midi":69,"time":50.4375,"velocity":0.3858267716535433},{"duration":0.1875,"midi":67,"time":50.625,"velocity":0.3858267716535433},{"duration":0.1875,"midi":36,"time":50.625,"velocity":0.3858267716535433},{"duration":0.1875,"midi":52,"time":50.8125,"velocity":0.3858267716535433},{"duration":0.1875,"midi":48,"time":50.8125,"velocity":0.3858267716535433},{"duration":0.1875,"midi":69,"time":50.8125,"velocity":0.3858267716535433},{"duration":0.1875,"midi":34,"time":51,"velocity":0.3858267716535433},{"duration":0.1875,"midi":57,"time":51,"velocity":0.3858267716535433},{"duration":0.1875,"midi":50,"time":51.1875,"velocity":0.3858267716535433},{"duration":0.1875,"midi":46,"time":51.1875,"velocity":0.3858267716535433},{"duration":0.1875,"midi":65,"time":51.1875,"velocity":0.3858267716535433},{"duration":0.1875,"midi":34,"time":51.375,"velocity":0.3858267716535433},{"duration":0.09375,"midi":64,"time":51.375,"velocity":0.3858267716535433},{"duration":0.09375,"midi":65,"time":51.46875,"velocity":0.3858267716535433},{"duration":0.1875,"midi":46,"time":51.5625,"velocity":0.3858267716535433},{"duration":0.1875,"midi":64,"time":51.5625,"velocity":0.3858267716535433},{"duration":0.1875,"midi":50,"time":51.5625,"velocity":0.3858267716535433},{"duration":0.1875,"midi":67,"time":51.75,"velocity":0.3858267716535433},{"duration":0.1875,"midi":34,"time":51.75,"velocity":0.3858267716535433},{"duration":0.1875,"midi":60,"time":51.75,"velocity":0.3858267716535433},{"duration":0.1875,"midi":65,"time":51.9375,"velocity":0.3858267716535433},{"duration":0.1875,"midi":46,"time":51.9375,"velocity":0.3858267716535433},{"duration":0.1875,"midi":50,"time":51.9375,"velocity":0.3858267716535433},{"duration":0.09375,"midi":64,"time":52.125,"velocity":0.3858267716535433},{"duration":0.1875,"midi":34,"time":52.125,"velocity":0.3858267716535433},{"duration":0.09375,"midi":65,"time":52.21875,"velocity":0.3858267716535433},{"duration":0.09375,"midi":64,"time":52.3125,"velocity":0.3858267716535433},{"duration":0.1875,"midi":50,"time":52.3125,"velocity":0.3858267716535433},{"duration":0.1875,"midi":46,"time":52.3125,"velocity":0.3858267716535433},{"duration":0.09375,"midi":60,"time":52.40625,"velocity":0.3858267716535433},{"duration":0.1875,"midi":34,"time":52.5,"velocity":0.3858267716535433},{"duration":0.1875,"midi":62,"time":52.5,"velocity":0.3858267716535433},{"duration":0.1875,"midi":50,"time":52.6875,"velocity":0.3858267716535433},{"duration":0.1875,"midi":46,"time":52.6875,"velocity":0.3858267716535433},{"duration":0.1875,"midi":69,"time":52.6875,"velocity":0.3858267716535433},{"duration":0.1875,"midi":34,"time":52.875,"velocity":0.3858267716535433},{"duration":0.09375,"midi":67,"time":52.875,"velocity":0.3858267716535433},{"duration":0.09375,"midi":69,"time":52.96875,"velocity":0.3858267716535433},{"duration":0.1875,"midi":50,"time":53.0625,"velocity":0.3858267716535433},{"duration":0.09375,"midi":67,"time":53.0625,"velocity":0.3858267716535433},{"duration":0.1875,"midi":46,"time":53.0625,"velocity":0.3858267716535433},{"duration":0.09375,"midi":69,"time":53.15625,"velocity":0.3858267716535433},{"duration":0.1875,"midi":34,"time":53.25,"velocity":0.3858267716535433},{"duration":0.1875,"midi":72,"time":53.25,"velocity":0.3858267716535433},{"duration":0.1875,"midi":50,"time":53.4375,"velocity":0.3858267716535433},{"duration":0.1875,"midi":69,"time":53.4375,"velocity":0.3858267716535433},{"duration":0.1875,"midi":46,"time":53.4375,"velocity":0.3858267716535433},{"duration":0.1875,"midi":33,"time":53.625,"velocity":0.3858267716535433},{"duration":0.1875,"midi":67,"time":53.625,"velocity":0.3858267716535433},{"duration":0.1875,"midi":64,"time":53.8125,"velocity":0.3858267716535433},{"duration":0.1875,"midi":45,"time":53.8125,"velocity":0.3858267716535433},{"duration":0.1875,"midi":48,"time":53.8125,"velocity":0.3858267716535433},{"duration":0.1875,"midi":31,"time":54,"velocity":0.3858267716535433},{"duration":0.1875,"midi":65,"time":54,"velocity":0.3858267716535433},{"duration":0.09375,"midi":64,"time":54.1875,"velocity":0.3858267716535433},{"duration":0.1875,"midi":46,"time":54.1875,"velocity":0.3858267716535433},{"duration":0.09375,"midi":65,"time":54.28125,"velocity":0.3858267716535433},{"duration":0.1875,"midi":31,"time":54.375,"velocity":0.3858267716535433},{"duration":0.1875,"midi":64,"time":54.375,"velocity":0.3858267716535433},{"duration":0.1875,"midi":46,"time":54.5625,"velocity":0.3858267716535433},{"duration":0.1875,"midi":60,"time":54.5625,"velocity":0.3858267716535433},{"duration":0.1875,"midi":62,"time":54.75,"velocity":0.3858267716535433},{"duration":0.1875,"midi":31,"time":54.75,"velocity":0.3858267716535433},{"duration":0.1875,"midi":57,"time":54.9375,"velocity":0.3858267716535433},{"duration":0.1875,"midi":46,"time":54.9375,"velocity":0.3858267716535433},{"duration":0.1875,"midi":31,"time":55.125,"velocity":0.3858267716535433},{"duration":0.1875,"midi":55,"time":55.125,"velocity":0.3858267716535433},{"duration":0.1875,"midi":46,"time":55.3125,"velocity":0.3858267716535433},{"duration":0.1875,"midi":52,"time":55.3125,"velocity":0.3858267716535433},{"duration":0.1875,"midi":31,"time":55.5,"velocity":0.3858267716535433},{"duration":0.1875,"midi":50,"time":55.5,"velocity":0.3858267716535433},{"duration":0.1875,"midi":46,"time":55.6875,"velocity":0.3858267716535433},{"duration":0.1875,"midi":52,"time":55.6875,"velocity":0.3858267716535433},{"duration":0.1875,"midi":31,"time":55.875,"velocity":0.3858267716535433},{"duration":0.1875,"midi":53,"time":55.875,"velocity":0.3858267716535433},{"duration":0.1875,"midi":46,"time":56.0625,"velocity":0.3858267716535433},{"duration":0.1875,"midi":55,"time":56.0625,"velocity":0.3858267716535433},{"duration":0.1875,"midi":57,"time":56.25,"velocity":0.3858267716535433},{"duration":0.1875,"midi":31,"time":56.25,"velocity":0.3858267716535433},{"duration":0.1875,"midi":46,"time":56.4375,"velocity":0.3858267716535433},{"duration":0.1875,"midi":61,"time":56.4375,"velocity":0.3858267716535433},{"duration":0.1875,"midi":31,"time":56.625,"velocity":0.3858267716535433},{"duration":0.1875,"midi":62,"time":56.625,"velocity":0.3858267716535433},{"duration":0.1875,"midi":46,"time":56.8125,"velocity":0.3858267716535433},{"duration":0.1875,"midi":64,"time":56.8125,"velocity":0.3858267716535433},{"duration":0.1875,"midi":61,"time":57,"velocity":0.3858267716535433},{"duration":0.1875,"midi":57,"time":57,"velocity":0.3858267716535433},{"duration":0.1875,"midi":33,"time":57,"velocity":0.3858267716535433},{"duration":0.1875,"midi":69,"time":57.1875,"velocity":0.3858267716535433},{"duration":0.1875,"midi":49,"time":57.1875,"velocity":0.3858267716535433},{"duration":0.09375,"midi":67,"time":57.375,"velocity":0.3858267716535433},{"duration":0.1875,"midi":33,"time":57.375,"velocity":0.3858267716535433},{"duration":0.09375,"midi":69,"time":57.46875,"velocity":0.3858267716535433},{"duration":0.1875,"midi":67,"time":57.5625,"velocity":0.3858267716535433},{"duration":0.1875,"midi":49,"time":57.5625,"velocity":0.3858267716535433},{"duration":0.1875,"midi":64,"time":57.75,"velocity":0.3858267716535433},{"duration":0.1875,"midi":33,"time":57.75,"velocity":0.3858267716535433},{"duration":0.1875,"midi":73,"time":57.75,"velocity":0.3858267716535433},{"duration":0.1875,"midi":49,"time":57.9375,"velocity":0.3858267716535433},{"duration":0.1875,"midi":69,"time":57.9375,"velocity":0.3858267716535433},{"duration":0.09375,"midi":67,"time":58.125,"velocity":0.3858267716535433},{"duration":0.1875,"midi":33,"time":58.125,"velocity":0.3858267716535433},{"duration":0.09375,"midi":69,"time":58.21875,"velocity":0.3858267716535433},{"duration":0.1875,"midi":49,"time":58.3125,"velocity":0.3858267716535433},{"duration":0.1875,"midi":67,"time":58.3125,"velocity":0.3858267716535433},{"duration":0.1875,"midi":33,"time":58.5,"velocity":0.3858267716535433},{"duration":0.1875,"midi":57,"time":58.5,"velocity":0.3858267716535433},{"duration":0.1875,"midi":61,"time":58.5,"velocity":0.3858267716535433},{"duration":0.1875,"midi":73,"time":58.6875,"velocity":0.3858267716535433},{"duration":0.1875,"midi":64,"time":58.6875,"velocity":0.3858267716535433},{"duration":0.1875,"midi":49,"time":58.6875,"velocity":0.3858267716535433},{"duration":0.09375,"midi":69,"time":58.875,"velocity":0.3858267716535433},{"duration":0.1875,"midi":33,"time":58.875,"velocity":0.3858267716535433},{"duration":0.09375,"midi":73,"time":58.96875,"velocity":0.3858267716535433},{"duration":0.09375,"midi":69,"time":59.0625,"velocity":0.3858267716535433},{"duration":0.1875,"midi":49,"time":59.0625,"velocity":0.3858267716535433},{"duration":0.09375,"midi":73,"time":59.15625,"velocity":0.3858267716535433},{"duration":0.1875,"midi":69,"time":59.25,"velocity":0.3858267716535433},{"duration":0.1875,"midi":76,"time":59.25,"velocity":0.3858267716535433},{"duration":0.1875,"midi":33,"time":59.25,"velocity":0.3858267716535433},{"duration":0.1875,"midi":76,"time":59.4375,"velocity":0.3858267716535433},{"duration":0.1875,"midi":69,"time":59.4375,"velocity":0.3858267716535433},{"duration":0.1875,"midi":49,"time":59.4375,"velocity":0.3858267716535433},{"duration":0.1875,"midi":33,"time":59.625,"velocity":0.3858267716535433},{"duration":0.1875,"midi":69,"time":59.625,"velocity":0.3858267716535433},{"duration":0.1875,"midi":77,"time":59.625,"velocity":0.3858267716535433},{"duration":0.1875,"midi":69,"time":59.8125,"velocity":0.3858267716535433},{"duration":0.1875,"midi":49,"time":59.8125,"velocity":0.3858267716535433},{"duration":0.1875,"midi":76,"time":59.8125,"velocity":0.3858267716535433},{"duration":0.1875,"midi":38,"time":60,"velocity":0.3858267716535433},{"duration":0.1875,"midi":57,"time":60,"velocity":0.3858267716535433},{"duration":0.1875,"midi":50,"time":60.1875,"velocity":0.3858267716535433},{"duration":0.1875,"midi":65,"time":60.1875,"velocity":0.3858267716535433},{"duration":0.1875,"midi":53,"time":60.1875,"velocity":0.3858267716535433},{"duration":0.1875,"midi":38,"time":60.375,"velocity":0.3858267716535433},{"duration":0.09375,"midi":64,"time":60.375,"velocity":0.3858267716535433},{"duration":0.09375,"midi":65,"time":60.46875,"velocity":0.3858267716535433},{"duration":0.1875,"midi":64,"time":60.5625,"velocity":0.3858267716535433},{"duration":0.1875,"midi":50,"time":60.5625,"velocity":0.3858267716535433},{"duration":0.1875,"midi":53,"time":60.5625,"velocity":0.3858267716535433},{"duration":0.1875,"midi":38,"time":60.75,"velocity":0.3858267716535433},{"duration":0.1875,"midi":67,"time":60.75,"velocity":0.3858267716535433},{"duration":0.1875,"midi":60,"time":60.75,"velocity":0.3858267716535433},{"duration":0.1875,"midi":53,"time":60.9375,"velocity":0.3858267716535433},{"duration":0.1875,"midi":65,"time":60.9375,"velocity":0.3858267716535433},{"duration":0.1875,"midi":50,"time":60.9375,"velocity":0.3858267716535433},{"duration":0.09375,"midi":64,"time":61.125,"velocity":0.3858267716535433},{"duration":0.1875,"midi":38,"time":61.125,"velocity":0.3858267716535433},{"duration":0.09375,"midi":65,"time":61.21875,"velocity":0.3858267716535433},{"duration":0.09375,"midi":64,"time":61.3125,"velocity":0.3858267716535433},{"duration":0.1875,"midi":53,"time":61.3125,"velocity":0.3858267716535433},{"duration":0.1875,"midi":50,"time":61.3125,"velocity":0.3858267716535433},{"duration":0.09375,"midi":60,"time":61.40625,"velocity":0.3858267716535433},{"duration":0.1875,"midi":62,"time":61.5,"velocity":0.3858267716535433},{"duration":0.1875,"midi":38,"time":61.5,"velocity":0.3858267716535433},{"duration":0.1875,"midi":69,"time":61.6875,"velocity":0.3858267716535433},{"duration":0.1875,"midi":53,"time":61.6875,"velocity":0.3858267716535433},{"duration":0.1875,"midi":50,"time":61.6875,"velocity":0.3858267716535433},{"duration":0.09375,"midi":67,"time":61.875,"velocity":0.3858267716535433},{"duration":0.1875,"midi":38,"time":61.875,"velocity":0.3858267716535433},{"duration":0.09375,"midi":69,"time":61.96875,"velocity":0.3858267716535433},{"duration":0.1875,"midi":50,"time":62.0625,"velocity":0.3858267716535433},{"duration":0.1875,"midi":53,"time":62.0625,"velocity":0.3858267716535433},{"duration":0.09375,"midi":67,"time":62.0625,"velocity":0.3858267716535433},{"duration":0.09375,"midi":69,"time":62.15625,"velocity":0.3858267716535433},{"duration":0.1875,"midi":72,"time":62.25,"velocity":0.3858267716535433},{"duration":0.1875,"midi":38,"time":62.25,"velocity":0.3858267716535433},{"duration":0.1875,"midi":53,"time":62.4375,"velocity":0.3858267716535433},{"duration":0.1875,"midi":69,"time":62.4375,"velocity":0.3858267716535433},{"duration":0.1875,"midi":50,"time":62.4375,"velocity":0.3858267716535433},{"duration":0.1875,"midi":36,"time":62.625,"velocity":0.3858267716535433},{"duration":0.1875,"midi":67,"time":62.625,"velocity":0.3858267716535433},{"duration":0.1875,"midi":69,"time":62.8125,"velocity":0.3858267716535433},{"duration":0.1875,"midi":52,"time":62.8125,"velocity":0.3858267716535433},{"duration":0.1875,"midi":48,"time":62.8125,"velocity":0.3858267716535433},{"duration":0.1875,"midi":57,"time":63,"velocity":0.3858267716535433},{"duration":0.1875,"midi":34,"time":63,"velocity":0.3858267716535433},{"duration":0.1875,"midi":50,"time":63.1875,"velocity":0.3858267716535433},{"duration":0.1875,"midi":46,"time":63.1875,"velocity":0.3858267716535433},{"duration":0.1875,"midi":65,"time":63.1875,"velocity":0.3858267716535433},{"duration":0.09375,"midi":64,"time":63.375,"velocity":0.3858267716535433},{"duration":0.1875,"midi":34,"time":63.375,"velocity":0.3858267716535433},{"duration":0.09375,"midi":65,"time":63.46875,"velocity":0.3858267716535433},{"duration":0.1875,"midi":46,"time":63.5625,"velocity":0.3858267716535433},{"duration":0.1875,"midi":64,"time":63.5625,"velocity":0.3858267716535433},{"duration":0.1875,"midi":50,"time":63.5625,"velocity":0.3858267716535433},{"duration":0.1875,"midi":34,"time":63.75,"velocity":0.3858267716535433},{"duration":0.1875,"midi":67,"time":63.75,"velocity":0.3858267716535433},{"duration":0.1875,"midi":60,"time":63.75,"velocity":0.3858267716535433},{"duration":0.1875,"midi":46,"time":63.9375,"velocity":0.3858267716535433},{"duration":0.1875,"midi":65,"time":63.9375,"velocity":0.3858267716535433},{"duration":0.1875,"midi":50,"time":63.9375,"velocity":0.3858267716535433},{"duration":0.09375,"midi":64,"time":64.125,"velocity":0.3858267716535433},{"duration":0.1875,"midi":34,"time":64.125,"velocity":0.3858267716535433},{"duration":0.09375,"midi":65,"time":64.21875,"velocity":0.3858267716535433},{"duration":0.1875,"midi":50,"time":64.3125,"velocity":0.3858267716535433},{"duration":0.1875,"midi":46,"time":64.3125,"velocity":0.3858267716535433},{"duration":0.09375,"midi":64,"time":64.3125,"velocity":0.3858267716535433},{"duration":0.09375,"midi":60,"time":64.40625,"velocity":0.3858267716535433},{"duration":0.1875,"midi":62,"time":64.5,"velocity":0.3858267716535433},{"duration":0.1875,"midi":34,"time":64.5,"velocity":0.3858267716535433},{"duration":0.1875,"midi":46,"time":64.6875,"velocity":0.3858267716535433},{"duration":0.1875,"midi":69,"time":64.6875,"velocity":0.3858267716535433},{"duration":0.1875,"midi":50,"time":64.6875,"velocity":0.3858267716535433},{"duration":0.09375,"midi":67,"time":64.875,"velocity":0.3858267716535433},{"duration":0.1875,"midi":34,"time":64.875,"velocity":0.3858267716535433},{"duration":0.09375,"midi":69,"time":64.96875,"velocity":0.3858267716535433},{"duration":0.09375,"midi":67,"time":65.0625,"velocity":0.3858267716535433},{"duration":0.1875,"midi":50,"time":65.0625,"velocity":0.3858267716535433},{"duration":0.1875,"midi":46,"time":65.0625,"velocity":0.3858267716535433},{"duration":0.09375,"midi":69,"time":65.15625,"velocity":0.3858267716535433},{"duration":0.1875,"midi":34,"time":65.25,"velocity":0.3858267716535433},{"duration":0.1875,"midi":72,"time":65.25,"velocity":0.3858267716535433},{"duration":0.1875,"midi":69,"time":65.4375,"velocity":0.3858267716535433},{"duration":0.1875,"midi":50,"time":65.4375,"velocity":0.3858267716535433},{"duration":0.1875,"midi":46,"time":65.4375,"velocity":0.3858267716535433},{"duration":0.1875,"midi":33,"time":65.625,"velocity":0.3858267716535433},{"duration":0.1875,"midi":67,"time":65.625,"velocity":0.3858267716535433},{"duration":0.1875,"midi":45,"time":65.8125,"velocity":0.3858267716535433},{"duration":0.1875,"midi":48,"time":65.8125,"velocity":0.3858267716535433},{"duration":0.1875,"midi":64,"time":65.8125,"velocity":0.3858267716535433},{"duration":0.1875,"midi":31,"time":66,"velocity":0.3858267716535433},{"duration":0.1875,"midi":65,"time":66,"velocity":0.3858267716535433},{"duration":0.1875,"midi":46,"time":66.1875,"velocity":0.3858267716535433},{"duration":0.09375,"midi":64,"time":66.1875,"velocity":0.3858267716535433},{"duration":0.09375,"midi":65,"time":66.28125,"velocity":0.3858267716535433},{"duration":0.1875,"midi":31,"time":66.375,"velocity":0.3858267716535433},{"duration":0.1875,"midi":64,"time":66.375,"velocity":0.3858267716535433},{"duration":0.1875,"midi":60,"time":66.5625,"velocity":0.3858267716535433},{"duration":0.1875,"midi":46,"time":66.5625,"velocity":0.3858267716535433},{"duration":0.1875,"midi":31,"time":66.75,"velocity":0.3858267716535433},{"duration":0.1875,"midi":62,"time":66.75,"velocity":0.3858267716535433},{"duration":0.1875,"midi":46,"time":66.9375,"velocity":0.3858267716535433},{"duration":0.1875,"midi":60,"time":66.9375,"velocity":0.3858267716535433},{"duration":0.1875,"midi":31,"time":67.125,"velocity":0.3858267716535433},{"duration":0.1875,"midi":55,"time":67.125,"velocity":0.3858267716535433},{"duration":0.1875,"midi":52,"time":67.3125,"velocity":0.3858267716535433},{"duration":0.1875,"midi":46,"time":67.3125,"velocity":0.3858267716535433},{"duration":0.1875,"midi":31,"time":67.5,"velocity":0.3858267716535433},{"duration":0.1875,"midi":50,"time":67.5,"velocity":0.3858267716535433},{"duration":0.1875,"midi":43,"time":67.6875,"velocity":0.3858267716535433},{"duration":0.1875,"midi":52,"time":67.6875,"velocity":0.3858267716535433},{"duration":0.1875,"midi":46,"time":67.6875,"velocity":0.3858267716535433},{"duration":0.1875,"midi":53,"time":67.875,"velocity":0.3858267716535433},{"duration":0.1875,"midi":31,"time":67.875,"velocity":0.3858267716535433},{"duration":0.1875,"midi":55,"time":68.0625,"velocity":0.3858267716535433},{"duration":0.1875,"midi":43,"time":68.0625,"velocity":0.3858267716535433},{"duration":0.1875,"midi":46,"time":68.0625,"velocity":0.3858267716535433},{"duration":0.1875,"midi":31,"time":68.25,"velocity":0.3858267716535433},{"duration":0.1875,"midi":57,"time":68.25,"velocity":0.3858267716535433},{"duration":0.1875,"midi":61,"time":68.4375,"velocity":0.3858267716535433},{"duration":0.1875,"midi":43,"time":68.4375,"velocity":0.3858267716535433},{"duration":0.1875,"midi":46,"time":68.4375,"velocity":0.3858267716535433},{"duration":0.1875,"midi":31,"time":68.625,"velocity":0.3858267716535433},{"duration":0.1875,"midi":62,"time":68.625,"velocity":0.3858267716535433},{"duration":0.1875,"midi":46,"time":68.8125,"velocity":0.3858267716535433},{"duration":0.1875,"midi":64,"time":68.8125,"velocity":0.3858267716535433},{"duration":0.1875,"midi":43,"time":68.8125,"velocity":0.3858267716535433},{"duration":0.1875,"midi":33,"time":69,"velocity":0.3858267716535433},{"duration":0.1875,"midi":61,"time":69,"velocity":0.3858267716535433},{"duration":0.1875,"midi":57,"time":69,"velocity":0.3858267716535433},{"duration":0.1875,"midi":69,"time":69.1875,"velocity":0.3858267716535433},{"duration":0.1875,"midi":49,"time":69.1875,"velocity":0.3858267716535433},{"duration":0.09375,"midi":67,"time":69.375,"velocity":0.3858267716535433},{"duration":0.1875,"midi":33,"time":69.375,"velocity":0.3858267716535433},{"duration":0.09375,"midi":69,"time":69.46875,"velocity":0.3858267716535433},{"duration":0.1875,"midi":49,"time":69.5625,"velocity":0.3858267716535433},{"duration":0.1875,"midi":67,"time":69.5625,"velocity":0.3858267716535433},{"duration":0.1875,"midi":64,"time":69.75,"velocity":0.3858267716535433},{"duration":0.1875,"midi":33,"time":69.75,"velocity":0.3858267716535433},{"duration":0.1875,"midi":73,"time":69.75,"velocity":0.3858267716535433},{"duration":0.1875,"midi":49,"time":69.9375,"velocity":0.3858267716535433},{"duration":0.1875,"midi":69,"time":69.9375,"velocity":0.3858267716535433},{"duration":0.09375,"midi":67,"time":70.125,"velocity":0.3858267716535433},{"duration":0.1875,"midi":33,"time":70.125,"velocity":0.3858267716535433},{"duration":0.09375,"midi":69,"time":70.21875,"velocity":0.3858267716535433},{"duration":0.1875,"midi":49,"time":70.3125,"velocity":0.3858267716535433},{"duration":0.1875,"midi":67,"time":70.3125,"velocity":0.3858267716535433},{"duration":0.1875,"midi":61,"time":70.5,"velocity":0.3858267716535433},{"duration":0.1875,"midi":33,"time":70.5,"velocity":0.3858267716535433},{"duration":0.1875,"midi":57,"time":70.5,"velocity":0.3858267716535433},{"duration":0.1875,"midi":49,"time":70.6875,"velocity":0.3858267716535433},{"duration":0.1875,"midi":64,"time":70.6875,"velocity":0.3858267716535433},{"duration":0.1875,"midi":73,"time":70.6875,"velocity":0.3858267716535433},{"duration":0.1875,"midi":33,"time":70.875,"velocity":0.3858267716535433},{"duration":0.09375,"midi":69,"time":70.875,"velocity":0.3858267716535433},{"duration":0.09375,"midi":73,"time":70.96875,"velocity":0.3858267716535433},{"duration":0.09375,"midi":69,"time":71.0625,"velocity":0.3858267716535433},{"duration":0.1875,"midi":49,"time":71.0625,"velocity":0.3858267716535433},{"duration":0.09375,"midi":73,"time":71.15625,"velocity":0.3858267716535433},{"duration":0.1875,"midi":33,"time":71.25,"velocity":0.3858267716535433},{"duration":0.1875,"midi":76,"time":71.25,"velocity":0.3858267716535433},{"duration":0.1875,"midi":49,"time":71.4375,"velocity":0.3858267716535433},{"duration":0.1875,"midi":73,"time":71.4375,"velocity":0.3858267716535433},{"duration":0.1875,"midi":33,"time":71.625,"velocity":0.3858267716535433},{"duration":0.375,"midi":81,"time":71.625,"velocity":0.3858267716535433},{"duration":0.375,"midi":69,"time":71.625,"velocity":0.3858267716535433},{"duration":0.1875,"midi":49,"time":71.8125,"velocity":0.3858267716535433},{"duration":0.1875,"midi":34,"time":72,"velocity":0.3858267716535433},{"duration":0.375,"midi":74,"time":72,"velocity":0.3858267716535433},{"duration":0.1875,"midi":41,"time":72.1875,"velocity":0.3858267716535433},{"duration":0.1875,"midi":46,"time":72.375,"velocity":0.3858267716535433},{"duration":0.375,"midi":77,"time":72.375,"velocity":0.3858267716535433},{"duration":0.1875,"midi":50,"time":72.5625,"velocity":0.3858267716535433},{"duration":0.1875,"midi":53,"time":72.75,"velocity":0.3858267716535433},{"duration":0.375,"midi":76,"time":72.75,"velocity":0.3858267716535433},{"duration":0.1875,"midi":58,"time":72.9375,"velocity":0.3858267716535433},{"duration":0.1875,"midi":74,"time":73.125,"velocity":0.3858267716535433},{"duration":0.375,"midi":62,"time":73.125,"velocity":0.3858267716535433},{"duration":0.5625,"midi":72,"time":73.3125,"velocity":0.3858267716535433},{"duration":0.1875,"midi":36,"time":73.5,"velocity":0.3858267716535433},{"duration":0.1875,"midi":43,"time":73.6875,"velocity":0.3858267716535433},{"duration":0.1875,"midi":48,"time":73.875,"velocity":0.3858267716535433},{"duration":0.375,"midi":81,"time":73.875,"velocity":0.3858267716535433},{"duration":0.1875,"midi":52,"time":74.0625,"velocity":0.3858267716535433},{"duration":0.375,"midi":76,"time":74.25,"velocity":0.3858267716535433},{"duration":0.1875,"midi":55,"time":74.25,"velocity":0.3858267716535433},{"duration":0.1875,"midi":60,"time":74.4375,"velocity":0.3858267716535433},{"duration":0.375,"midi":72,"time":74.625,"velocity":0.3858267716535433},{"duration":0.375,"midi":64,"time":74.625,"velocity":0.3858267716535433},{"duration":0.1875,"midi":38,"time":75,"velocity":0.3858267716535433},{"duration":0.375,"midi":74,"time":75,"velocity":0.3858267716535433},{"duration":0.1875,"midi":45,"time":75.1875,"velocity":0.3858267716535433},{"duration":0.375,"midi":77,"time":75.375,"velocity":0.3858267716535433},{"duration":0.1875,"midi":50,"time":75.375,"velocity":0.3858267716535433},{"duration":0.1875,"midi":53,"time":75.5625,"velocity":0.3858267716535433},{"duration":0.1875,"midi":57,"time":75.75,"velocity":0.3858267716535433},{"duration":0.375,"midi":76,"time":75.75,"velocity":0.3858267716535433},{"duration":0.1875,"midi":62,"time":75.9375,"velocity":0.3858267716535433},{"duration":0.1875,"midi":74,"time":76.125,"velocity":0.3858267716535433},{"duration":0.375,"midi":65,"time":76.125,"velocity":0.3858267716535433},{"duration":0.75,"midi":72,"time":76.3125,"velocity":0.3858267716535433},{"duration":0.1875,"midi":38,"time":76.5,"velocity":0.3858267716535433},{"duration":0.1875,"midi":45,"time":76.6875,"velocity":0.3858267716535433},{"duration":0.1875,"midi":50,"time":76.875,"velocity":0.3858267716535433},{"duration":0.1875,"midi":81,"time":77.0625,"velocity":0.3858267716535433},{"duration":0.1875,"midi":53,"time":77.0625,"velocity":0.3858267716535433},{"duration":0.1875,"midi":57,"time":77.25,"velocity":0.3858267716535433},{"duration":0.1875,"midi":76,"time":77.25,"velocity":0.3858267716535433},{"duration":0.1875,"midi":62,"time":77.4375,"velocity":0.3858267716535433},{"duration":0.1875,"midi":74,"time":77.4375,"velocity":0.3858267716535433},{"duration":0.1875,"midi":72,"time":77.625,"velocity":0.3858267716535433},{"duration":0.375,"midi":65,"time":77.625,"velocity":0.3858267716535433},{"duration":0.1875,"midi":73,"time":77.8125,"velocity":0.3858267716535433},{"duration":0.1875,"midi":34,"time":78,"velocity":0.3858267716535433},{"duration":0.375,"midi":74,"time":78,"velocity":0.3858267716535433},{"duration":0.1875,"midi":41,"time":78.1875,"velocity":0.3858267716535433},{"duration":0.375,"midi":77,"time":78.375,"velocity":0.3858267716535433},{"duration":0.1875,"midi":46,"time":78.375,"velocity":0.3858267716535433},{"duration":0.1875,"midi":50,"time":78.5625,"velocity":0.3858267716535433},{"duration":0.1875,"midi":53,"time":78.75,"velocity":0.3858267716535433},{"duration":0.375,"midi":76,"time":78.75,"velocity":0.3858267716535433},{"duration":0.1875,"midi":58,"time":78.9375,"velocity":0.3858267716535433},{"duration":0.375,"midi":62,"time":79.125,"velocity":0.3858267716535433},{"duration":0.1875,"midi":74,"time":79.125,"velocity":0.3858267716535433},{"duration":0.5625,"midi":72,"time":79.3125,"velocity":0.3858267716535433},{"duration":0.1875,"midi":36,"time":79.5,"velocity":0.3858267716535433},{"duration":0.1875,"midi":43,"time":79.6875,"velocity":0.3858267716535433},{"duration":0.1875,"midi":48,"time":79.875,"velocity":0.3858267716535433},{"duration":0.375,"midi":81,"time":79.875,"velocity":0.3858267716535433},{"duration":0.1875,"midi":52,"time":80.0625,"velocity":0.3858267716535433},{"duration":0.1875,"midi":55,"time":80.25,"velocity":0.3858267716535433},{"duration":0.375,"midi":76,"time":80.25,"velocity":0.3858267716535433},{"duration":0.1875,"midi":60,"time":80.4375,"velocity":0.3858267716535433},{"duration":0.1875,"midi":72,"time":80.625,"velocity":0.3858267716535433},{"duration":0.375,"midi":64,"time":80.625,"velocity":0.3858267716535433},{"duration":0.1875,"midi":73,"time":80.8125,"velocity":0.3858267716535433},{"duration":0.1875,"midi":38,"time":81,"velocity":0.3858267716535433},{"duration":0.375,"midi":74,"time":81,"velocity":0.3858267716535433},{"duration":0.1875,"midi":45,"time":81.1875,"velocity":0.3858267716535433},{"duration":0.1875,"midi":50,"time":81.375,"velocity":0.3858267716535433},{"duration":0.375,"midi":77,"time":81.375,"velocity":0.3858267716535433},{"duration":0.1875,"midi":53,"time":81.5625,"velocity":0.3858267716535433},{"duration":0.1875,"midi":76,"time":81.75,"velocity":0.3858267716535433},{"duration":0.1875,"midi":57,"time":81.75,"velocity":0.3858267716535433},{"duration":0.1875,"midi":62,"time":81.9375,"velocity":0.3858267716535433},{"duration":0.375,"midi":77,"time":81.9375,"velocity":0.3858267716535433},{"duration":0.375,"midi":65,"time":82.125,"velocity":0.3858267716535433},{"duration":0.5625,"midi":79,"time":82.3125,"velocity":0.3858267716535433},{"duration":0.1875,"midi":38,"time":82.5,"velocity":0.3858267716535433},{"duration":0.1875,"midi":50,"time":82.6875,"velocity":0.3858267716535433},{"duration":0.1875,"midi":53,"time":82.6875,"velocity":0.3858267716535433},{"duration":0.1875,"midi":38,"time":82.875,"velocity":0.3858267716535433},{"duration":0.375,"midi":77,"time":82.875,"velocity":0.3858267716535433},{"duration":0.1875,"midi":53,"time":83.0625,"velocity":0.3858267716535433},{"duration":0.1875,"midi":50,"time":83.0625,"velocity":0.3858267716535433},{"duration":0.375,"midi":76,"time":83.25,"velocity":0.3858267716535433},{"duration":0.1875,"midi":38,"time":83.25,"velocity":0.3858267716535433},{"duration":0.1875,"midi":53,"time":83.4375,"velocity":0.3858267716535433},{"duration":0.1875,"midi":50,"time":83.4375,"velocity":0.3858267716535433},{"duration":0.1875,"midi":38,"time":83.625,"velocity":0.3858267716535433},{"duration":0.1875,"midi":72,"time":83.625,"velocity":0.3858267716535433},{"duration":0.1875,"midi":53,"time":83.8125,"velocity":0.3858267716535433},{"duration":0.1875,"midi":50,"time":83.8125,"velocity":0.3858267716535433},{"duration":0.1875,"midi":73,"time":83.8125,"velocity":0.3858267716535433},{"duration":0.1875,"midi":34,"time":84,"velocity":0.3858267716535433},{"duration":0.375,"midi":77,"time":84,"velocity":0.3858267716535433},{"duration":0.375,"midi":74,"time":84,"velocity":0.3858267716535433},{"duration":0.375,"midi":65,"time":84,"velocity":0.3858267716535433},{"duration":0.1875,"midi":50,"time":84.1875,"velocity":0.3858267716535433},{"duration":0.1875,"midi":46,"time":84.1875,"velocity":0.3858267716535433},{"duration":0.375,"midi":81,"time":84.375,"velocity":0.3858267716535433},{"duration":0.375,"midi":77,"time":84.375,"velocity":0.3858267716535433},{"duration":0.375,"midi":69,"time":84.375,"velocity":0.3858267716535433},{"duration":0.1875,"midi":34,"time":84.375,"velocity":0.3858267716535433},{"duration":0.1875,"midi":46,"time":84.5625,"velocity":0.3858267716535433},{"duration":0.1875,"midi":50,"time":84.5625,"velocity":0.3858267716535433},{"duration":0.1875,"midi":67,"time":84.75,"velocity":0.3858267716535433},{"duration":0.1875,"midi":34,"time":84.75,"velocity":0.3858267716535433},{"duration":0.1875,"midi":76,"time":84.75,"velocity":0.3858267716535433},{"duration":0.1875,"midi":79,"time":84.75,"velocity":0.3858267716535433},{"duration":0.375,"midi":65,"time":84.9375,"velocity":0.3858267716535433},{"duration":0.375,"midi":74,"time":84.9375,"velocity":0.3858267716535433},{"duration":0.375,"midi":77,"time":84.9375,"velocity":0.3858267716535433},{"duration":0.1875,"midi":50,"time":84.9375,"velocity":0.3858267716535433},{"duration":0.1875,"midi":46,"time":84.9375,"velocity":0.3858267716535433},{"duration":0.1875,"midi":34,"time":85.125,"velocity":0.3858267716535433},{"duration":0.1875,"midi":50,"time":85.3125,"velocity":0.3858267716535433},{"duration":0.5625,"midi":76,"time":85.3125,"velocity":0.3858267716535433},{"duration":0.1875,"midi":46,"time":85.3125,"velocity":0.3858267716535433},{"duration":0.5625,"midi":64,"time":85.3125,"velocity":0.3858267716535433},{"duration":0.5625,"midi":72,"time":85.3125,"velocity":0.3858267716535433},{"duration":0.1875,"midi":36,"time":85.5,"velocity":0.3858267716535433},{"duration":0.1875,"midi":52,"time":85.6875,"velocity":0.3858267716535433},{"duration":0.1875,"midi":48,"time":85.6875,"velocity":0.3858267716535433},{"duration":0.1875,"midi":36,"time":85.875,"velocity":0.3858267716535433},{"duration":0.375,"midi":84,"time":85.875,"velocity":0.3858267716535433},{"duration":0.375,"midi":81,"time":85.875,"velocity":0.3858267716535433},{"duration":0.375,"midi":72,"time":85.875,"velocity":0.3858267716535433},{"duration":0.1875,"midi":52,"time":86.0625,"velocity":0.3858267716535433},{"duration":0.1875,"midi":48,"time":86.0625,"velocity":0.3858267716535433},{"duration":0.1875,"midi":76,"time":86.25,"velocity":0.3858267716535433},{"duration":0.1875,"midi":36,"time":86.25,"velocity":0.3858267716535433},{"duration":0.1875,"midi":79,"time":86.25,"velocity":0.3858267716535433},{"duration":0.1875,"midi":74,"time":86.4375,"velocity":0.3858267716535433},{"duration":0.1875,"midi":52,"time":86.4375,"velocity":0.3858267716535433},{"duration":0.1875,"midi":48,"time":86.4375,"velocity":0.3858267716535433},{"duration":0.1875,"midi":77,"time":86.4375,"velocity":0.3858267716535433},{"duration":0.1875,"midi":76,"time":86.625,"velocity":0.3858267716535433},{"duration":0.1875,"midi":72,"time":86.625,"velocity":0.3858267716535433},{"duration":0.1875,"midi":36,"time":86.625,"velocity":0.3858267716535433},{"duration":0.1875,"midi":48,"time":86.8125,"velocity":0.3858267716535433},{"duration":0.1875,"midi":52,"time":86.8125,"velocity":0.3858267716535433},{"duration":0.375,"midi":74,"time":86.8125,"velocity":0.3858267716535433},{"duration":0.375,"midi":77,"time":86.8125,"velocity":0.3858267716535433},{"duration":0.1875,"midi":38,"time":87,"velocity":0.3858267716535433},{"duration":0.1875,"midi":53,"time":87.1875,"velocity":0.3858267716535433},{"duration":0.1875,"midi":69,"time":87.1875,"velocity":0.3858267716535433},{"duration":0.1875,"midi":50,"time":87.1875,"velocity":0.3858267716535433},{"duration":0.1875,"midi":68,"time":87.1875,"velocity":0.3858267716535433},{"duration":0.1875,"midi":72,"time":87.375,"velocity":0.3858267716535433},{"duration":0.1875,"midi":38,"time":87.375,"velocity":0.3858267716535433},{"duration":0.1875,"midi":53,"time":87.5625,"velocity":0.3858267716535433},{"duration":0.1875,"midi":50,"time":87.5625,"velocity":0.3858267716535433},{"duration":0.1875,"midi":74,"time":87.5625,"velocity":0.3858267716535433},{"duration":0.375,"midi":67,"time":87.75,"velocity":0.3858267716535433},{"duration":0.1875,"midi":38,"time":87.75,"velocity":0.3858267716535433},{"duration":0.375,"midi":77,"time":87.75,"velocity":0.3858267716535433},{"duration":0.1875,"midi":50,"time":87.9375,"velocity":0.3858267716535433},{"duration":0.1875,"midi":53,"time":87.9375,"velocity":0.3858267716535433},{"duration":0.1875,"midi":38,"time":88.125,"velocity":0.3858267716535433},{"duration":0.1875,"midi":79,"time":88.125,"velocity":0.3858267716535433},{"duration":0.1875,"midi":69,"time":88.125,"velocity":0.3858267716535433},{"duration":0.375,"midi":79,"time":88.3125,"velocity":0.3858267716535433},{"duration":0.375,"midi":83,"time":88.3125,"velocity":0.3858267716535433},{"duration":0.1875,"midi":53,"time":88.3125,"velocity":0.3858267716535433},{"duration":0.1875,"midi":50,"time":88.3125,"velocity":0.3858267716535433},{"duration":0.375,"midi":80,"time":88.3125,"velocity":0.3858267716535433},{"duration":0.1875,"midi":38,"time":88.5,"velocity":0.3858267716535433},{"duration":0.1875,"midi":50,"time":88.6875,"velocity":0.3858267716535433},{"duration":0.1875,"midi":77,"time":88.6875,"velocity":0.3858267716535433},{"duration":0.1875,"midi":53,"time":88.6875,"velocity":0.3858267716535433},{"duration":0.1875,"midi":84,"time":88.875,"velocity":0.3858267716535433},{"duration":0.1875,"midi":77,"time":88.875,"velocity":0.3858267716535433},{"duration":0.1875,"midi":38,"time":88.875,"velocity":0.3858267716535433},{"duration":0.1875,"midi":77,"time":89.0625,"velocity":0.3858267716535433},{"duration":0.1875,"midi":53,"time":89.0625,"velocity":0.3858267716535433},{"duration":0.1875,"midi":50,"time":89.0625,"velocity":0.3858267716535433},{"duration":0.1875,"midi":38,"time":89.25,"velocity":0.3858267716535433},{"duration":0.1875,"midi":74,"time":89.25,"velocity":0.3858267716535433},{"duration":0.1875,"midi":53,"time":89.4375,"velocity":0.3858267716535433},{"duration":0.1875,"midi":72,"time":89.4375,"velocity":0.3858267716535433},{"duration":0.1875,"midi":50,"time":89.4375,"velocity":0.3858267716535433},{"duration":0.1875,"midi":38,"time":89.625,"velocity":0.3858267716535433},{"duration":0.1875,"midi":69,"time":89.625,"velocity":0.3858267716535433},{"duration":0.1875,"midi":53,"time":89.8125,"velocity":0.3858267716535433},{"duration":0.1875,"midi":50,"time":89.8125,"velocity":0.3858267716535433},{"duration":0.1875,"midi":72,"time":89.8125,"velocity":0.3858267716535433},{"duration":0.375,"midi":62,"time":90,"velocity":0.3858267716535433},{"duration":0.375,"midi":70,"time":90,"velocity":0.3858267716535433},{"duration":0.1875,"midi":34,"time":90,"velocity":0.3858267716535433},{"duration":0.375,"midi":74,"time":90,"velocity":0.3858267716535433},{"duration":0.1875,"midi":50,"time":90.1875,"velocity":0.3858267716535433},{"duration":0.1875,"midi":46,"time":90.1875,"velocity":0.3858267716535433},{"duration":0.375,"midi":65,"time":90.375,"velocity":0.3858267716535433},{"duration":0.375,"midi":74,"time":90.375,"velocity":0.3858267716535433},{"duration":0.1875,"midi":34,"time":90.375,"velocity":0.3858267716535433},{"duration":0.375,"midi":77,"time":90.375,"velocity":0.3858267716535433},{"duration":0.1875,"midi":46,"time":90.5625,"velocity":0.3858267716535433},{"duration":0.1875,"midi":50,"time":90.5625,"velocity":0.3858267716535433},{"duration":0.1875,"midi":34,"time":90.75,"velocity":0.3858267716535433},{"duration":0.375,"midi":72,"time":90.75,"velocity":0.3858267716535433},{"duration":0.375,"midi":64,"time":90.75,"velocity":0.3858267716535433},{"duration":0.375,"midi":76,"time":90.75,"velocity":0.3858267716535433},{"duration":0.1875,"midi":50,"time":90.9375,"velocity":0.3858267716535433},{"duration":0.1875,"midi":46,"time":90.9375,"velocity":0.3858267716535433},{"duration":0.1875,"midi":34,"time":91.125,"velocity":0.3858267716535433},{"duration":0.375,"midi":74,"time":91.125,"velocity":0.3858267716535433},{"duration":0.375,"midi":70,"time":91.125,"velocity":0.3858267716535433},{"duration":0.375,"midi":62,"time":91.125,"velocity":0.3858267716535433},{"duration":0.1875,"midi":50,"time":91.3125,"velocity":0.3858267716535433},{"duration":0.1875,"midi":46,"time":91.3125,"velocity":0.3858267716535433},{"duration":0.375,"midi":74,"time":91.5,"velocity":0.3858267716535433},{"duration":0.375,"midi":70,"time":91.5,"velocity":0.3858267716535433},{"duration":0.375,"midi":62,"time":91.5,"velocity":0.3858267716535433},{"duration":0.1875,"midi":34,"time":91.5,"velocity":0.3858267716535433},{"duration":0.1875,"midi":50,"time":91.6875,"velocity":0.3858267716535433},{"duration":0.1875,"midi":46,"time":91.6875,"velocity":0.3858267716535433},{"duration":0.375,"midi":82,"time":91.875,"velocity":0.3858267716535433},{"duration":0.375,"midi":79,"time":91.875,"velocity":0.3858267716535433},{"duration":0.375,"midi":70,"time":91.875,"velocity":0.3858267716535433},{"duration":0.1875,"midi":34,"time":91.875,"velocity":0.3858267716535433},{"duration":0.1875,"midi":50,"time":92.0625,"velocity":0.3858267716535433},{"duration":0.1875,"midi":46,"time":92.0625,"velocity":0.3858267716535433},{"duration":0.375,"midi":69,"time":92.25,"velocity":0.3858267716535433},{"duration":0.1875,"midi":34,"time":92.25,"velocity":0.3858267716535433},{"duration":0.375,"midi":81,"time":92.25,"velocity":0.3858267716535433},{"duration":0.1875,"midi":46,"time":92.4375,"velocity":0.3858267716535433},{"duration":0.1875,"midi":50,"time":92.4375,"velocity":0.3858267716535433},{"duration":0.375,"midi":67,"time":92.625,"velocity":0.3858267716535433},{"duration":0.375,"midi":79,"time":92.625,"velocity":0.3858267716535433},{"duration":0.1875,"midi":34,"time":92.625,"velocity":0.3858267716535433},{"duration":0.1875,"midi":46,"time":92.8125,"velocity":0.3858267716535433},{"duration":0.1875,"midi":50,"time":92.8125,"velocity":0.3858267716535433},{"duration":0.375,"midi":33,"time":93,"velocity":0.3858267716535433},{"duration":0.375,"midi":45,"time":93,"velocity":0.3858267716535433},{"duration":0.1875,"midi":76,"time":93,"velocity":0.3858267716535433},{"duration":0.1875,"midi":81,"time":93,"velocity":0.3858267716535433},{"duration":0.1875,"midi":69,"time":93,"velocity":0.3858267716535433},{"duration":0.09375,"midi":76,"time":93.1875,"velocity":0.3858267716535433},{"duration":0.09375,"midi":73,"time":93.28125,"velocity":0.3858267716535433},{"duration":0.1875,"midi":69,"time":93.375,"velocity":0.3858267716535433},{"duration":0.1875,"midi":73,"time":93.5625,"velocity":0.3858267716535433},{"duration":0.1875,"midi":73,"time":93.75,"velocity":0.3858267716535433},{"duration":0.1875,"midi":83,"time":93.75,"velocity":0.3858267716535433},{"duration":0.5625,"midi":45,"time":93.75,"velocity":0.3858267716535433},{"duration":0.5625,"midi":33,"time":93.75,"velocity":0.3858267716535433},{"duration":0.1875,"midi":71,"time":93.9375,"velocity":0.3858267716535433},{"duration":0.1875,"midi":83,"time":94.125,"velocity":0.3858267716535433},{"duration":0.1875,"midi":73,"time":94.125,"velocity":0.3858267716535433},{"duration":0.5625,"midi":73,"time":94.3125,"velocity":0.3858267716535433},{"duration":0.5625,"midi":76,"time":94.3125,"velocity":0.3858267716535433},{"duration":0.375,"midi":33,"time":94.3125,"velocity":0.3858267716535433},{"duration":0.375,"midi":45,"time":94.3125,"velocity":0.3858267716535433},{"duration":0.5625,"midi":85,"time":94.3125,"velocity":0.3858267716535433},{"duration":0.1875,"midi":33,"time":94.6875,"velocity":0.3858267716535433},{"duration":0.1875,"midi":85,"time":94.875,"velocity":0.3858267716535433},{"duration":0.1875,"midi":73,"time":94.875,"velocity":0.3858267716535433},{"duration":0.1875,"midi":45,"time":94.875,"velocity":0.3858267716535433},{"duration":0.1875,"midi":33,"time":95.0625,"velocity":0.3858267716535433},{"duration":0.1875,"midi":74,"time":95.0625,"velocity":0.3858267716535433},{"duration":0.1875,"midi":86,"time":95.0625,"velocity":0.3858267716535433},{"duration":0.375,"midi":45,"time":95.25,"velocity":0.3858267716535433},{"duration":0.75,"midi":88,"time":95.25,"velocity":0.3858267716535433},{"duration":0.75,"midi":85,"time":95.25,"velocity":0.3858267716535433},{"duration":0.5625,"midi":59,"time":95.4375,"velocity":0.3858267716535433},{"duration":0.5625,"midi":59,"time":95.4375,"velocity":0.3858267716535433},{"duration":0.5625,"midi":60,"time":95.4609375,"velocity":0.3858267716535433},{"duration":0.5625,"midi":62,"time":95.484375,"velocity":0.3858267716535433},{"duration":0.46875,"midi":64,"time":95.5078125,"velocity":0.3858267716535433},{"duration":0.46875,"midi":65,"time":95.53125,"velocity":0.3858267716535433},{"duration":0.46875,"midi":67,"time":95.5546875,"velocity":0.3858267716535433},{"duration":0.46875,"midi":69,"time":95.578125,"velocity":0.3858267716535433},{"duration":0.375,"midi":71,"time":95.6015625,"velocity":0.3858267716535433},{"duration":0.375,"midi":72,"time":95.625,"velocity":0.3858267716535433},{"duration":0.375,"midi":33,"time":95.625,"velocity":0.3858267716535433},{"duration":0.375,"midi":74,"time":95.6484375,"velocity":0.3858267716535433},{"duration":0.28125,"midi":76,"time":95.671875,"velocity":0.3858267716535433},{"duration":0.375,"midi":76,"time":95.671875,"velocity":0.3858267716535433},{"duration":0.28125,"midi":77,"time":95.6953125,"velocity":0.3858267716535433},{"duration":0.28125,"midi":79,"time":95.71875,"velocity":0.3858267716535433},{"duration":0.28125,"midi":81,"time":95.7421875,"velocity":0.3858267716535433},{"duration":0.28125,"midi":81,"time":95.7421875,"velocity":0.3858267716535433},{"duration":0.1875,"midi":83,"time":95.8125,"velocity":0.3858267716535433},{"duration":0.1875,"midi":83,"time":95.8125,"velocity":0.3858267716535433},{"duration":0.1875,"midi":69,"time":96,"velocity":0.3858267716535433},{"duration":0.1875,"midi":34,"time":96,"velocity":0.3858267716535433},{"duration":0.1875,"midi":65,"time":96,"velocity":0.3858267716535433},{"duration":0.1875,"midi":46,"time":96.1875,"velocity":0.3858267716535433},{"duration":0.1875,"midi":77,"time":96.1875,"velocity":0.3858267716535433},{"duration":0.1875,"midi":74,"time":96.1875,"velocity":0.3858267716535433},{"duration":0.1875,"midi":50,"time":96.1875,"velocity":0.3858267716535433},{"duration":0.09375,"midi":76,"time":96.375,"velocity":0.3858267716535433},{"duration":0.1875,"midi":34,"time":96.375,"velocity":0.3858267716535433},{"duration":0.09375,"midi":77,"time":96.46875,"velocity":0.3858267716535433},{"duration":0.1875,"midi":50,"time":96.5625,"velocity":0.3858267716535433},{"duration":0.1875,"midi":46,"time":96.5625,"velocity":0.3858267716535433},{"duration":0.1875,"midi":76,"time":96.5625,"velocity":0.3858267716535433},{"duration":0.1875,"midi":72,"time":96.75,"velocity":0.3858267716535433},{"duration":0.1875,"midi":36,"time":96.75,"velocity":0.3858267716535433},{"duration":0.1875,"midi":79,"time":96.75,"velocity":0.3858267716535433},{"duration":0.1875,"midi":48,"time":96.9375,"velocity":0.3858267716535433},{"duration":0.1875,"midi":77,"time":96.9375,"velocity":0.3858267716535433},{"duration":0.1875,"midi":52,"time":96.9375,"velocity":0.3858267716535433},{"duration":0.09375,"midi":76,"time":97.125,"velocity":0.3858267716535433},{"duration":0.1875,"midi":36,"time":97.125,"velocity":0.3858267716535433},{"duration":0.09375,"midi":77,"time":97.21875,"velocity":0.3858267716535433},{"duration":0.1875,"midi":52,"time":97.3125,"velocity":0.3858267716535433},{"duration":0.1875,"midi":48,"time":97.3125,"velocity":0.3858267716535433},{"duration":0.09375,"midi":76,"time":97.3125,"velocity":0.3858267716535433},{"duration":0.09375,"midi":72,"time":97.40625,"velocity":0.3858267716535433},{"duration":0.1875,"midi":74,"time":97.5,"velocity":0.3858267716535433},{"duration":0.1875,"midi":38,"time":97.5,"velocity":0.3858267716535433},{"duration":0.1875,"midi":53,"time":97.6875,"velocity":0.3858267716535433},{"duration":0.1875,"midi":50,"time":97.6875,"velocity":0.3858267716535433},{"duration":0.1875,"midi":81,"time":97.6875,"velocity":0.3858267716535433},{"duration":0.1875,"midi":77,"time":97.6875,"velocity":0.3858267716535433},{"duration":0.09375,"midi":79,"time":97.875,"velocity":0.3858267716535433},{"duration":0.1875,"midi":38,"time":97.875,"velocity":0.3858267716535433},{"duration":0.09375,"midi":81,"time":97.96875,"velocity":0.3858267716535433},{"duration":0.09375,"midi":79,"time":98.0625,"velocity":0.3858267716535433},{"duration":0.1875,"midi":53,"time":98.0625,"velocity":0.3858267716535433},{"duration":0.1875,"midi":50,"time":98.0625,"velocity":0.3858267716535433},{"duration":0.09375,"midi":81,"time":98.15625,"velocity":0.3858267716535433},{"duration":0.1875,"midi":38,"time":98.25,"velocity":0.3858267716535433},{"duration":0.1875,"midi":84,"time":98.25,"velocity":0.3858267716535433},{"duration":0.1875,"midi":77,"time":98.25,"velocity":0.3858267716535433},{"duration":0.1875,"midi":53,"time":98.4375,"velocity":0.3858267716535433},{"duration":0.1875,"midi":81,"time":98.4375,"velocity":0.3858267716535433},{"duration":0.1875,"midi":50,"time":98.4375,"velocity":0.3858267716535433},{"duration":0.1875,"midi":38,"time":98.625,"velocity":0.3858267716535433},{"duration":0.1875,"midi":79,"time":98.625,"velocity":0.3858267716535433},{"duration":0.1875,"midi":81,"time":98.8125,"velocity":0.3858267716535433},{"duration":0.1875,"midi":53,"time":98.8125,"velocity":0.3858267716535433},{"duration":0.1875,"midi":50,"time":98.8125,"velocity":0.3858267716535433},{"duration":0.1875,"midi":34,"time":99,"velocity":0.3858267716535433},{"duration":0.1875,"midi":69,"time":99,"velocity":0.3858267716535433},{"duration":0.1875,"midi":65,"time":99,"velocity":0.3858267716535433},{"duration":0.1875,"midi":46,"time":99.1875,"velocity":0.3858267716535433},{"duration":0.1875,"midi":50,"time":99.1875,"velocity":0.3858267716535433},{"duration":0.1875,"midi":77,"time":99.1875,"velocity":0.3858267716535433},{"duration":0.1875,"midi":74,"time":99.1875,"velocity":0.3858267716535433},{"duration":0.09375,"midi":76,"time":99.375,"velocity":0.3858267716535433},{"duration":0.1875,"midi":34,"time":99.375,"velocity":0.3858267716535433},{"duration":0.09375,"midi":77,"time":99.46875,"velocity":0.3858267716535433},{"duration":0.1875,"midi":50,"time":99.5625,"velocity":0.3858267716535433},{"duration":0.1875,"midi":46,"time":99.5625,"velocity":0.3858267716535433},{"duration":0.1875,"midi":76,"time":99.5625,"velocity":0.3858267716535433},{"duration":0.1875,"midi":36,"time":99.75,"velocity":0.3858267716535433},{"duration":0.1875,"midi":72,"time":99.75,"velocity":0.3858267716535433},{"duration":0.1875,"midi":79,"time":99.75,"velocity":0.3858267716535433},{"duration":0.1875,"midi":52,"time":99.9375,"velocity":0.3858267716535433},{"duration":0.1875,"midi":77,"time":99.9375,"velocity":0.3858267716535433},{"duration":0.1875,"midi":48,"time":99.9375,"velocity":0.3858267716535433},{"duration":0.09375,"midi":76,"time":100.125,"velocity":0.3858267716535433},{"duration":0.1875,"midi":36,"time":100.125,"velocity":0.3858267716535433},{"duration":0.09375,"midi":77,"time":100.21875,"velocity":0.3858267716535433},{"duration":0.09375,"midi":76,"time":100.3125,"velocity":0.3858267716535433},{"duration":0.1875,"midi":52,"time":100.3125,"velocity":0.3858267716535433},{"duration":0.1875,"midi":48,"time":100.3125,"velocity":0.3858267716535433},{"duration":0.09375,"midi":72,"time":100.40625,"velocity":0.3858267716535433},{"duration":0.1875,"midi":38,"time":100.5,"velocity":0.3858267716535433},{"duration":0.1875,"midi":74,"time":100.5,"velocity":0.3858267716535433},{"duration":0.1875,"midi":81,"time":100.6875,"velocity":0.3858267716535433},{"duration":0.1875,"midi":77,"time":100.6875,"velocity":0.3858267716535433},{"duration":0.1875,"midi":50,"time":100.6875,"velocity":0.3858267716535433},{"duration":0.09375,"midi":79,"time":100.875,"velocity":0.3858267716535433},{"duration":0.1875,"midi":40,"time":100.875,"velocity":0.3858267716535433},{"duration":0.09375,"midi":81,"time":100.96875,"velocity":0.3858267716535433},{"duration":0.09375,"midi":79,"time":101.0625,"velocity":0.3858267716535433},{"duration":0.1875,"midi":52,"time":101.0625,"velocity":0.3858267716535433},{"duration":0.09375,"midi":81,"time":101.15625,"velocity":0.3858267716535433},{"duration":0.1875,"midi":41,"time":101.25,"velocity":0.3858267716535433},{"duration":0.1875,"midi":85,"time":101.25,"velocity":0.3858267716535433},{"duration":0.1875,"midi":77,"time":101.25,"velocity":0.3858267716535433},{"duration":0.1875,"midi":81,"time":101.4375,"velocity":0.3858267716535433},{"duration":0.1875,"midi":53,"time":101.4375,"velocity":0.3858267716535433},{"duration":0.1875,"midi":43,"time":101.625,"velocity":0.3858267716535433},{"duration":0.1875,"midi":79,"time":101.625,"velocity":0.3858267716535433},{"duration":0.1875,"midi":55,"time":101.8125,"velocity":0.3858267716535433},{"duration":0.1875,"midi":81,"time":101.8125,"velocity":0.3858267716535433},{"duration":0.1875,"midi":65,"time":102,"velocity":0.3858267716535433},{"duration":0.1875,"midi":34,"time":102,"velocity":0.3858267716535433},{"duration":0.1875,"midi":69,"time":102,"velocity":0.3858267716535433},{"duration":0.1875,"midi":77,"time":102.1875,"velocity":0.3858267716535433},{"duration":0.1875,"midi":46,"time":102.1875,"velocity":0.3858267716535433},{"duration":0.1875,"midi":50,"time":102.1875,"velocity":0.3858267716535433},{"duration":0.1875,"midi":74,"time":102.1875,"velocity":0.3858267716535433},{"duration":0.09375,"midi":76,"time":102.375,"velocity":0.3858267716535433},{"duration":0.1875,"midi":34,"time":102.375,"velocity":0.3858267716535433},{"duration":0.09375,"midi":77,"time":102.46875,"velocity":0.3858267716535433},{"duration":0.1875,"midi":46,"time":102.5625,"velocity":0.3858267716535433},{"duration":0.1875,"midi":50,"time":102.5625,"velocity":0.3858267716535433},{"duration":0.1875,"midi":76,"time":102.5625,"velocity":0.3858267716535433},{"duration":0.1875,"midi":72,"time":102.75,"velocity":0.3858267716535433},{"duration":0.1875,"midi":36,"time":102.75,"velocity":0.3858267716535433},{"duration":0.1875,"midi":79,"time":102.75,"velocity":0.3858267716535433},{"duration":0.1875,"midi":77,"time":102.9375,"velocity":0.3858267716535433},{"duration":0.1875,"midi":48,"time":102.9375,"velocity":0.3858267716535433},{"duration":0.1875,"midi":52,"time":102.9375,"velocity":0.3858267716535433},{"duration":0.09375,"midi":76,"time":103.125,"velocity":0.3858267716535433},{"duration":0.1875,"midi":36,"time":103.125,"velocity":0.3858267716535433},{"duration":0.09375,"midi":77,"time":103.21875,"velocity":0.3858267716535433},{"duration":0.1875,"midi":48,"time":103.3125,"velocity":0.3858267716535433},{"duration":0.1875,"midi":52,"time":103.3125,"velocity":0.3858267716535433},{"duration":0.09375,"midi":76,"time":103.3125,"velocity":0.3858267716535433},{"duration":0.09375,"midi":72,"time":103.40625,"velocity":0.3858267716535433},{"duration":0.1875,"midi":38,"time":103.5,"velocity":0.3858267716535433},{"duration":0.1875,"midi":74,"time":103.5,"velocity":0.3858267716535433},{"duration":0.1875,"midi":81,"time":103.6875,"velocity":0.3858267716535433},{"duration":0.1875,"midi":50,"time":103.6875,"velocity":0.3858267716535433},{"duration":0.1875,"midi":77,"time":103.6875,"velocity":0.3858267716535433},{"duration":0.1875,"midi":53,"time":103.6875,"velocity":0.3858267716535433},{"duration":0.09375,"midi":79,"time":103.875,"velocity":0.3858267716535433},{"duration":0.1875,"midi":38,"time":103.875,"velocity":0.3858267716535433},{"duration":0.09375,"midi":81,"time":103.96875,"velocity":0.3858267716535433},{"duration":0.1875,"midi":53,"time":104.0625,"velocity":0.3858267716535433},{"duration":0.09375,"midi":79,"time":104.0625,"velocity":0.3858267716535433},{"duration":0.1875,"midi":50,"time":104.0625,"velocity":0.3858267716535433},{"duration":0.09375,"midi":81,"time":104.15625,"velocity":0.3858267716535433},{"duration":0.1875,"midi":84,"time":104.25,"velocity":0.3858267716535433},{"duration":0.1875,"midi":38,"time":104.25,"velocity":0.3858267716535433},{"duration":0.1875,"midi":77,"time":104.25,"velocity":0.3858267716535433},{"duration":0.1875,"midi":53,"time":104.4375,"velocity":0.3858267716535433},{"duration":0.1875,"midi":50,"time":104.4375,"velocity":0.3858267716535433},{"duration":0.1875,"midi":81,"time":104.4375,"velocity":0.3858267716535433},{"duration":0.1875,"midi":77,"time":104.625,"velocity":0.3858267716535433},{"duration":0.1875,"midi":38,"time":104.625,"velocity":0.3858267716535433},{"duration":0.1875,"midi":53,"time":104.8125,"velocity":0.3858267716535433},{"duration":0.1875,"midi":50,"time":104.8125,"velocity":0.3858267716535433},{"duration":0.1875,"midi":78,"time":104.8125,"velocity":0.3858267716535433},{"duration":0.1875,"midi":31,"time":105,"velocity":0.3858267716535433},{"duration":0.1875,"midi":79,"time":105,"velocity":0.3858267716535433},{"duration":0.1875,"midi":74,"time":105,"velocity":0.3858267716535433},{"duration":0.1875,"midi":46,"time":105.1875,"velocity":0.3858267716535433},{"duration":0.09375,"midi":70,"time":105.1875,"velocity":0.3858267716535433},{"duration":0.09375,"midi":74,"time":105.28125,"velocity":0.3858267716535433},{"duration":0.1875,"midi":31,"time":105.375,"velocity":0.3858267716535433},{"duration":0.1875,"midi":70,"time":105.375,"velocity":0.3858267716535433},{"duration":0.1875,"midi":46,"time":105.5625,"velocity":0.3858267716535433},{"duration":0.1875,"midi":79,"time":105.5625,"velocity":0.3858267716535433},{"duration":0.1875,"midi":74,"time":105.5625,"velocity":0.3858267716535433},{"duration":0.1875,"midi":81,"time":105.75,"velocity":0.3858267716535433},{"duration":0.1875,"midi":76,"time":105.75,"velocity":0.3858267716535433},{"duration":0.1875,"midi":33,"time":105.75,"velocity":0.3858267716535433},{"duration":0.09375,"midi":72,"time":105.9375,"velocity":0.3858267716535433},{"duration":0.1875,"midi":45,"time":105.9375,"velocity":0.3858267716535433},{"duration":0.1875,"midi":48,"time":105.9375,"velocity":0.3858267716535433},{"duration":0.09375,"midi":76,"time":106.03125,"velocity":0.3858267716535433},{"duration":0.09375,"midi":81,"time":106.03125,"velocity":0.3858267716535433},{"duration":0.1875,"midi":33,"time":106.125,"velocity":0.3858267716535433},{"duration":0.1875,"midi":72,"time":106.125,"velocity":0.3858267716535433},{"duration":0.1875,"midi":76,"time":106.3125,"velocity":0.3858267716535433},{"duration":0.1875,"midi":81,"time":106.3125,"velocity":0.3858267716535433},{"duration":0.1875,"midi":48,"time":106.3125,"velocity":0.3858267716535433},{"duration":0.1875,"midi":45,"time":106.3125,"velocity":0.3858267716535433},{"duration":0.1875,"midi":34,"time":106.5,"velocity":0.3858267716535433},{"duration":0.1875,"midi":82,"time":106.5,"velocity":0.3858267716535433},{"duration":0.1875,"midi":77,"time":106.5,"velocity":0.3858267716535433},{"duration":0.1875,"midi":50,"time":106.6875,"velocity":0.3858267716535433},{"duration":0.1875,"midi":46,"time":106.6875,"velocity":0.3858267716535433},{"duration":0.1875,"midi":74,"time":106.6875,"velocity":0.3858267716535433},{"duration":0.1875,"midi":83,"time":106.875,"velocity":0.3858267716535433},{"duration":0.1875,"midi":35,"time":106.875,"velocity":0.3858267716535433},{"duration":0.1875,"midi":77,"time":106.875,"velocity":0.3858267716535433},{"duration":0.1875,"midi":50,"time":107.0625,"velocity":0.3858267716535433},{"duration":0.1875,"midi":47,"time":107.0625,"velocity":0.3858267716535433},{"duration":0.1875,"midi":74,"time":107.0625,"velocity":0.3858267716535433},{"duration":0.1875,"midi":36,"time":107.25,"velocity":0.3858267716535433},{"duration":0.75,"midi":84,"time":107.25,"velocity":0.3858267716535433},{"duration":0.75,"midi":76,"time":107.25,"velocity":0.3858267716535433},{"duration":0.75,"midi":79,"time":107.25,"velocity":0.3858267716535433},{"duration":0.1875,"midi":52,"time":107.4375,"velocity":0.3858267716535433},{"duration":0.1875,"midi":48,"time":107.4375,"velocity":0.3858267716535433},{"duration":0.1875,"midi":36,"time":107.625,"velocity":0.3858267716535433},{"duration":0.1875,"midi":48,"time":107.8125,"velocity":0.3858267716535433},{"duration":0.1875,"midi":52,"time":107.8125,"velocity":0.3858267716535433},{"duration":0.1875,"midi":34,"time":108,"velocity":0.3858267716535433},{"duration":0.1875,"midi":69,"time":108,"velocity":0.3858267716535433},{"duration":0.1875,"midi":65,"time":108,"velocity":0.3858267716535433},{"duration":0.1875,"midi":74,"time":108.1875,"velocity":0.3858267716535433},{"duration":0.1875,"midi":77,"time":108.1875,"velocity":0.3858267716535433},{"duration":0.1875,"midi":50,"time":108.1875,"velocity":0.3858267716535433},{"duration":0.1875,"midi":46,"time":108.1875,"velocity":0.3858267716535433},{"duration":0.09375,"midi":76,"time":108.375,"velocity":0.3858267716535433},{"duration":0.1875,"midi":34,"time":108.375,"velocity":0.3858267716535433},{"duration":0.09375,"midi":77,"time":108.46875,"velocity":0.3858267716535433},{"duration":0.1875,"midi":76,"time":108.5625,"velocity":0.3858267716535433},{"duration":0.1875,"midi":46,"time":108.5625,"velocity":0.3858267716535433},{"duration":0.1875,"midi":50,"time":108.5625,"velocity":0.3858267716535433},{"duration":0.1875,"midi":36,"time":108.75,"velocity":0.3858267716535433},{"duration":0.1875,"midi":79,"time":108.75,"velocity":0.3858267716535433},{"duration":0.1875,"midi":72,"time":108.75,"velocity":0.3858267716535433},{"duration":0.1875,"midi":77,"time":108.9375,"velocity":0.3858267716535433},{"duration":0.1875,"midi":48,"time":108.9375,"velocity":0.3858267716535433},{"duration":0.1875,"midi":52,"time":108.9375,"velocity":0.3858267716535433},{"duration":0.1875,"midi":36,"time":109.125,"velocity":0.3858267716535433},{"duration":0.09375,"midi":76,"time":109.125,"velocity":0.3858267716535433},{"duration":0.09375,"midi":77,"time":109.21875,"velocity":0.3858267716535433},{"duration":0.1875,"midi":52,"time":109.3125,"velocity":0.3858267716535433},{"duration":0.1875,"midi":48,"time":109.3125,"velocity":0.3858267716535433},{"duration":0.09375,"midi":76,"time":109.3125,"velocity":0.3858267716535433},{"duration":0.09375,"midi":72,"time":109.40625,"velocity":0.3858267716535433},{"duration":0.1875,"midi":74,"time":109.5,"velocity":0.3858267716535433},{"duration":0.1875,"midi":38,"time":109.5,"velocity":0.3858267716535433},{"duration":0.1875,"midi":77,"time":109.6875,"velocity":0.3858267716535433},{"duration":0.1875,"midi":81,"time":109.6875,"velocity":0.3858267716535433},{"duration":0.1875,"midi":53,"time":109.6875,"velocity":0.3858267716535433},{"duration":0.1875,"midi":50,"time":109.6875,"velocity":0.3858267716535433},{"duration":0.1875,"midi":38,"time":109.875,"velocity":0.3858267716535433},{"duration":0.09375,"midi":79,"time":109.875,"velocity":0.3858267716535433},{"duration":0.09375,"midi":81,"time":109.96875,"velocity":0.3858267716535433},{"duration":0.1875,"midi":50,"time":110.0625,"velocity":0.3858267716535433},{"duration":0.1875,"midi":53,"time":110.0625,"velocity":0.3858267716535433},{"duration":0.09375,"midi":79,"time":110.0625,"velocity":0.3858267716535433},{"duration":0.09375,"midi":81,"time":110.15625,"velocity":0.3858267716535433},{"duration":0.1875,"midi":84,"time":110.25,"velocity":0.3858267716535433},{"duration":0.1875,"midi":77,"time":110.25,"velocity":0.3858267716535433},{"duration":0.1875,"midi":38,"time":110.25,"velocity":0.3858267716535433},{"duration":0.1875,"midi":53,"time":110.4375,"velocity":0.3858267716535433},{"duration":0.1875,"midi":50,"time":110.4375,"velocity":0.3858267716535433},{"duration":0.1875,"midi":81,"time":110.4375,"velocity":0.3858267716535433},{"duration":0.1875,"midi":79,"time":110.625,"velocity":0.3858267716535433},{"duration":0.1875,"midi":38,"time":110.625,"velocity":0.3858267716535433},{"duration":0.1875,"midi":50,"time":110.8125,"velocity":0.3858267716535433},{"duration":0.1875,"midi":81,"time":110.8125,"velocity":0.3858267716535433},{"duration":0.1875,"midi":53,"time":110.8125,"velocity":0.3858267716535433},{"duration":0.1875,"midi":34,"time":111,"velocity":0.3858267716535433},{"duration":0.1875,"midi":69,"time":111,"velocity":0.3858267716535433},{"duration":0.1875,"midi":65,"time":111,"velocity":0.3858267716535433},{"duration":0.1875,"midi":77,"time":111.1875,"velocity":0.3858267716535433},{"duration":0.1875,"midi":74,"time":111.1875,"velocity":0.3858267716535433},{"duration":0.1875,"midi":46,"time":111.1875,"velocity":0.3858267716535433},{"duration":0.1875,"midi":50,"time":111.1875,"velocity":0.3858267716535433},{"duration":0.1875,"midi":34,"time":111.375,"velocity":0.3858267716535433},{"duration":0.09375,"midi":76,"time":111.375,"velocity":0.3858267716535433},{"duration":0.09375,"midi":77,"time":111.46875,"velocity":0.3858267716535433},{"duration":0.1875,"midi":46,"time":111.5625,"velocity":0.3858267716535433},{"duration":0.1875,"midi":76,"time":111.5625,"velocity":0.3858267716535433},{"duration":0.1875,"midi":50,"time":111.5625,"velocity":0.3858267716535433},{"duration":0.1875,"midi":79,"time":111.75,"velocity":0.3858267716535433},{"duration":0.1875,"midi":72,"time":111.75,"velocity":0.3858267716535433},{"duration":0.1875,"midi":36,"time":111.75,"velocity":0.3858267716535433},{"duration":0.1875,"midi":77,"time":111.9375,"velocity":0.3858267716535433},{"duration":0.1875,"midi":52,"time":111.9375,"velocity":0.3858267716535433},{"duration":0.1875,"midi":48,"time":111.9375,"velocity":0.3858267716535433},{"duration":0.09375,"midi":76,"time":112.125,"velocity":0.3858267716535433},{"duration":0.1875,"midi":36,"time":112.125,"velocity":0.3858267716535433},{"duration":0.09375,"midi":77,"time":112.21875,"velocity":0.3858267716535433},{"duration":0.1875,"midi":52,"time":112.3125,"velocity":0.3858267716535433},{"duration":0.09375,"midi":76,"time":112.3125,"velocity":0.3858267716535433},{"duration":0.1875,"midi":48,"time":112.3125,"velocity":0.3858267716535433},{"duration":0.09375,"midi":72,"time":112.40625,"velocity":0.3858267716535433},{"duration":0.1875,"midi":74,"time":112.5,"velocity":0.3858267716535433},{"duration":0.1875,"midi":38,"time":112.5,"velocity":0.3858267716535433},{"duration":0.1875,"midi":81,"time":112.6875,"velocity":0.3858267716535433},{"duration":0.1875,"midi":77,"time":112.6875,"velocity":0.3858267716535433},{"duration":0.1875,"midi":50,"time":112.6875,"velocity":0.3858267716535433},{"duration":0.1875,"midi":40,"time":112.875,"velocity":0.3858267716535433},{"duration":0.09375,"midi":79,"time":112.875,"velocity":0.3858267716535433},{"duration":0.09375,"midi":81,"time":112.96875,"velocity":0.3858267716535433},{"duration":0.1875,"midi":52,"time":113.0625,"velocity":0.3858267716535433},{"duration":0.09375,"midi":79,"time":113.0625,"velocity":0.3858267716535433},{"duration":0.09375,"midi":81,"time":113.15625,"velocity":0.3858267716535433},{"duration":0.1875,"midi":85,"time":113.25,"velocity":0.3858267716535433},{"duration":0.1875,"midi":77,"time":113.25,"velocity":0.3858267716535433},{"duration":0.1875,"midi":41,"time":113.25,"velocity":0.3858267716535433},{"duration":0.1875,"midi":53,"time":113.4375,"velocity":0.3858267716535433},{"duration":0.1875,"midi":81,"time":113.4375,"velocity":0.3858267716535433},{"duration":0.1875,"midi":79,"time":113.625,"velocity":0.3858267716535433},{"duration":0.1875,"midi":43,"time":113.625,"velocity":0.3858267716535433},{"duration":0.1875,"midi":81,"time":113.8125,"velocity":0.3858267716535433},{"duration":0.1875,"midi":55,"time":113.8125,"velocity":0.3858267716535433},{"duration":0.1875,"midi":69,"time":114,"velocity":0.3858267716535433},{"duration":0.1875,"midi":34,"time":114,"velocity":0.3858267716535433},{"duration":0.1875,"midi":65,"time":114,"velocity":0.3858267716535433},{"duration":0.1875,"midi":74,"time":114.1875,"velocity":0.3858267716535433},{"duration":0.1875,"midi":77,"time":114.1875,"velocity":0.3858267716535433},{"duration":0.1875,"midi":46,"time":114.1875,"velocity":0.3858267716535433},{"duration":0.1875,"midi":50,"time":114.1875,"velocity":0.3858267716535433},{"duration":0.09375,"midi":76,"time":114.375,"velocity":0.3858267716535433},{"duration":0.1875,"midi":34,"time":114.375,"velocity":0.3858267716535433},{"duration":0.09375,"midi":77,"time":114.46875,"velocity":0.3858267716535433},{"duration":0.1875,"midi":50,"time":114.5625,"velocity":0.3858267716535433},{"duration":0.1875,"midi":76,"time":114.5625,"velocity":0.3858267716535433},{"duration":0.1875,"midi":46,"time":114.5625,"velocity":0.3858267716535433},{"duration":0.1875,"midi":36,"time":114.75,"velocity":0.3858267716535433},{"duration":0.1875,"midi":79,"time":114.75,"velocity":0.3858267716535433},{"duration":0.1875,"midi":72,"time":114.75,"velocity":0.3858267716535433},{"duration":0.1875,"midi":77,"time":114.9375,"velocity":0.3858267716535433},{"duration":0.1875,"midi":48,"time":114.9375,"velocity":0.3858267716535433},{"duration":0.1875,"midi":52,"time":114.9375,"velocity":0.3858267716535433},{"duration":0.09375,"midi":76,"time":115.125,"velocity":0.3858267716535433},{"duration":0.1875,"midi":36,"time":115.125,"velocity":0.3858267716535433},{"duration":0.09375,"midi":77,"time":115.21875,"velocity":0.3858267716535433},{"duration":0.1875,"midi":48,"time":115.3125,"velocity":0.3858267716535433},{"duration":0.1875,"midi":52,"time":115.3125,"velocity":0.3858267716535433},{"duration":0.09375,"midi":76,"time":115.3125,"velocity":0.3858267716535433},{"duration":0.09375,"midi":72,"time":115.40625,"velocity":0.3858267716535433},{"duration":0.1875,"midi":74,"time":115.5,"velocity":0.3858267716535433},{"duration":0.1875,"midi":38,"time":115.5,"velocity":0.3858267716535433},{"duration":0.1875,"midi":77,"time":115.6875,"velocity":0.3858267716535433},{"duration":0.1875,"midi":81,"time":115.6875,"velocity":0.3858267716535433},{"duration":0.1875,"midi":53,"time":115.6875,"velocity":0.3858267716535433},{"duration":0.1875,"midi":50,"time":115.6875,"velocity":0.3858267716535433},{"duration":0.09375,"midi":79,"time":115.875,"velocity":0.3858267716535433},{"duration":0.1875,"midi":38,"time":115.875,"velocity":0.3858267716535433},{"duration":0.09375,"midi":81,"time":115.96875,"velocity":0.3858267716535433},{"duration":0.09375,"midi":79,"time":116.0625,"velocity":0.3858267716535433},{"duration":0.1875,"midi":50,"time":116.0625,"velocity":0.3858267716535433},{"duration":0.1875,"midi":53,"time":116.0625,"velocity":0.3858267716535433},{"duration":0.09375,"midi":81,"time":116.15625,"velocity":0.3858267716535433},{"duration":0.1875,"midi":38,"time":116.25,"velocity":0.3858267716535433},{"duration":0.1875,"midi":84,"time":116.25,"velocity":0.3858267716535433},{"duration":0.1875,"midi":77,"time":116.25,"velocity":0.3858267716535433},{"duration":0.1875,"midi":81,"time":116.4375,"velocity":0.3858267716535433},{"duration":0.1875,"midi":53,"time":116.4375,"velocity":0.3858267716535433},{"duration":0.1875,"midi":50,"time":116.4375,"velocity":0.3858267716535433},{"duration":0.1875,"midi":38,"time":116.625,"velocity":0.3858267716535433},{"duration":0.1875,"midi":77,"time":116.625,"velocity":0.3858267716535433},{"duration":0.1875,"midi":78,"time":116.8125,"velocity":0.3858267716535433},{"duration":0.1875,"midi":53,"time":116.8125,"velocity":0.3858267716535433},{"duration":0.1875,"midi":50,"time":116.8125,"velocity":0.3858267716535433},{"duration":0.1875,"midi":31,"time":117,"velocity":0.3858267716535433},{"duration":0.1875,"midi":74,"time":117,"velocity":0.3858267716535433},{"duration":0.1875,"midi":79,"time":117,"velocity":0.3858267716535433},{"duration":0.09375,"midi":70,"time":117.1875,"velocity":0.3858267716535433},{"duration":0.1875,"midi":46,"time":117.1875,"velocity":0.3858267716535433},{"duration":0.09375,"midi":74,"time":117.28125,"velocity":0.3858267716535433},{"duration":0.1875,"midi":31,"time":117.375,"velocity":0.3858267716535433},{"duration":0.1875,"midi":70,"time":117.375,"velocity":0.3858267716535433},{"duration":0.375,"midi":76,"time":117.5625,"velocity":0.3858267716535433},{"duration":0.375,"midi":80,"time":117.5625,"velocity":0.3858267716535433},{"duration":0.1875,"midi":46,"time":117.5625,"velocity":0.3858267716535433},{"duration":0.375,"midi":81,"time":117.5625,"velocity":0.3858267716535433},{"duration":0.375,"midi":72,"time":117.5625,"velocity":0.3858267716535433},{"duration":0.1875,"midi":33,"time":117.75,"velocity":0.3858267716535433},{"duration":0.1875,"midi":48,"time":117.9375,"velocity":0.3858267716535433},{"duration":0.1875,"midi":45,"time":117.9375,"velocity":0.3858267716535433},{"duration":0.1875,"midi":79,"time":117.9375,"velocity":0.3858267716535433},{"duration":0.1875,"midi":72,"time":117.9375,"velocity":0.3858267716535433},{"duration":0.1875,"midi":72,"time":118.125,"velocity":0.3858267716535433},{"duration":0.1875,"midi":33,"time":118.125,"velocity":0.3858267716535433},{"duration":0.1875,"midi":77,"time":118.125,"velocity":0.3858267716535433},{"duration":0.1875,"midi":48,"time":118.3125,"velocity":0.3858267716535433},{"duration":0.1875,"midi":72,"time":118.3125,"velocity":0.3858267716535433},{"duration":0.1875,"midi":45,"time":118.3125,"velocity":0.3858267716535433},{"duration":0.1875,"midi":76,"time":118.3125,"velocity":0.3858267716535433},{"duration":0.1875,"midi":38,"time":118.5,"velocity":0.3858267716535433},{"duration":1.5,"midi":74,"time":118.5,"velocity":0.3858267716535433},{"duration":1.5,"midi":65,"time":118.5,"velocity":0.3858267716535433},{"duration":1.5,"midi":69,"time":118.5,"velocity":0.3858267716535433},{"duration":0.1875,"midi":50,"time":118.6875,"velocity":0.3858267716535433},{"duration":0.1875,"midi":53,"time":118.6875,"velocity":0.3858267716535433},{"duration":0.1875,"midi":38,"time":118.875,"velocity":0.3858267716535433},{"duration":0.1875,"midi":53,"time":119.0625,"velocity":0.3858267716535433},{"duration":0.1875,"midi":50,"time":119.0625,"velocity":0.3858267716535433},{"duration":0.1875,"midi":38,"time":119.25,"velocity":0.3858267716535433},{"duration":0.1875,"midi":53,"time":119.4375,"velocity":0.3858267716535433},{"duration":0.1875,"midi":50,"time":119.4375,"velocity":0.3858267716535433},{"duration":0.1875,"midi":38,"time":119.625,"velocity":0.3858267716535433},{"duration":0.1875,"midi":50,"time":119.8125,"velocity":0.3858267716535433},{"duration":0.1875,"midi":53,"time":119.8125,"velocity":0.3858267716535433},{"duration":0.1875,"midi":50,"time":120,"velocity":0.3858267716535433},{"duration":0.1875,"midi":38,"time":120,"velocity":0.3858267716535433},{"duration":0.1875,"midi":45,"time":120.1875,"velocity":0.3858267716535433},{"duration":0.1875,"midi":57,"time":120.1875,"velocity":0.3858267716535433},{"duration":0.09375,"midi":55,"time":120.375,"velocity":0.3858267716535433},{"duration":0.1875,"midi":38,"time":120.375,"velocity":0.3858267716535433},{"duration":0.1875,"midi":57,"time":120.46875,"velocity":0.3858267716535433},{"duration":0.1875,"midi":50,"time":120.5625,"velocity":0.3858267716535433},{"duration":0.1875,"midi":45,"time":120.5625,"velocity":0.3858267716535433},{"duration":0.1875,"midi":52,"time":120.65625,"velocity":0.3858267716535433},{"duration":0.1875,"midi":38,"time":120.75,"velocity":0.3858267716535433},{"duration":0.1875,"midi":53,"time":120.84375,"velocity":0.3858267716535433},{"duration":0.1875,"midi":45,"time":120.9375,"velocity":0.3858267716535433},{"duration":0.1875,"midi":50,"time":120.9375,"velocity":0.3858267716535433},{"duration":0.09375,"midi":57,"time":121.03125,"velocity":0.3858267716535433},{"duration":0.09375,"midi":55,"time":121.125,"velocity":0.3858267716535433},{"duration":0.1875,"midi":38,"time":121.125,"velocity":0.3858267716535433},{"duration":0.09375,"midi":53,"time":121.21875,"velocity":0.3858267716535433},{"duration":0.09375,"midi":52,"time":121.3125,"velocity":0.3858267716535433},{"duration":0.1875,"midi":45,"time":121.3125,"velocity":0.3858267716535433},{"duration":0.1875,"midi":50,"time":121.40625,"velocity":0.3858267716535433},{"duration":0.1875,"midi":38,"time":121.5,"velocity":0.3858267716535433},{"duration":0.1875,"midi":50,"time":121.6875,"velocity":0.3858267716535433},{"duration":0.1875,"midi":57,"time":121.6875,"velocity":0.3858267716535433},{"duration":0.1875,"midi":45,"time":121.6875,"velocity":0.3858267716535433},{"duration":0.09375,"midi":55,"time":121.875,"velocity":0.3858267716535433},{"duration":0.1875,"midi":38,"time":121.875,"velocity":0.3858267716535433},{"duration":0.1875,"midi":57,"time":121.96875,"velocity":0.3858267716535433},{"duration":0.1875,"midi":50,"time":122.0625,"velocity":0.3858267716535433},{"duration":0.1875,"midi":45,"time":122.0625,"velocity":0.3858267716535433},{"duration":0.1875,"midi":52,"time":122.15625,"velocity":0.3858267716535433},{"duration":0.1875,"midi":38,"time":122.25,"velocity":0.3858267716535433},{"duration":0.1875,"midi":53,"time":122.34375,"velocity":0.3858267716535433},{"duration":0.1875,"midi":45,"time":122.4375,"velocity":0.3858267716535433},{"duration":0.1875,"midi":50,"time":122.4375,"velocity":0.3858267716535433},{"duration":0.09375,"midi":57,"time":122.53125,"velocity":0.3858267716535433},{"duration":0.1875,"midi":48,"time":122.625,"velocity":0.3858267716535433},{"duration":0.1875,"midi":38,"time":122.625,"velocity":0.3858267716535433},{"duration":0.1875,"midi":45,"time":122.8125,"velocity":0.3858267716535433},{"duration":0.1875,"midi":49,"time":122.8125,"velocity":0.3858267716535433},{"duration":0.1875,"midi":38,"time":123,"velocity":0.3858267716535433},{"duration":0.1875,"midi":50,"time":123,"velocity":0.3858267716535433},{"duration":0.1875,"midi":45,"time":123.1875,"velocity":0.3858267716535433},{"duration":0.1875,"midi":57,"time":123.1875,"velocity":0.3858267716535433},{"duration":0.1875,"midi":50,"time":123.1875,"velocity":0.3858267716535433},{"duration":0.09375,"midi":55,"time":123.375,"velocity":0.3858267716535433},{"duration":0.1875,"midi":38,"time":123.375,"velocity":0.3858267716535433},{"duration":0.1875,"midi":57,"time":123.46875,"velocity":0.3858267716535433},{"duration":0.1875,"midi":50,"time":123.5625,"velocity":0.3858267716535433},{"duration":0.1875,"midi":45,"time":123.5625,"velocity":0.3858267716535433},{"duration":0.1875,"midi":52,"time":123.65625,"velocity":0.3858267716535433},{"duration":0.1875,"midi":38,"time":123.75,"velocity":0.3858267716535433},{"duration":0.1875,"midi":53,"time":123.84375,"velocity":0.3858267716535433},{"duration":0.1875,"midi":50,"time":123.9375,"velocity":0.3858267716535433},{"duration":0.1875,"midi":45,"time":123.9375,"velocity":0.3858267716535433},{"duration":0.09375,"midi":57,"time":124.03125,"velocity":0.3858267716535433},{"duration":0.09375,"midi":55,"time":124.125,"velocity":0.3858267716535433},{"duration":0.1875,"midi":38,"time":124.125,"velocity":0.3858267716535433},{"duration":0.09375,"midi":53,"time":124.21875,"velocity":0.3858267716535433},{"duration":0.1875,"midi":45,"time":124.3125,"velocity":0.3858267716535433},{"duration":0.09375,"midi":52,"time":124.3125,"velocity":0.3858267716535433},{"duration":0.1875,"midi":50,"time":124.40625,"velocity":0.3858267716535433},{"duration":0.1875,"midi":38,"time":124.5,"velocity":0.3858267716535433},{"duration":0.1875,"midi":57,"time":124.6875,"velocity":0.3858267716535433},{"duration":0.1875,"midi":45,"time":124.6875,"velocity":0.3858267716535433},{"duration":0.1875,"midi":50,"time":124.6875,"velocity":0.3858267716535433},{"duration":0.09375,"midi":55,"time":124.875,"velocity":0.3858267716535433},{"duration":0.1875,"midi":38,"time":124.875,"velocity":0.3858267716535433},{"duration":0.1875,"midi":57,"time":124.96875,"velocity":0.3858267716535433},{"duration":0.1875,"midi":45,"time":125.0625,"velocity":0.3858267716535433},{"duration":0.1875,"midi":50,"time":125.0625,"velocity":0.3858267716535433},{"duration":0.1875,"midi":52,"time":125.15625,"velocity":0.3858267716535433},{"duration":0.1875,"midi":38,"time":125.25,"velocity":0.3858267716535433},{"duration":0.1875,"midi":53,"time":125.34375,"velocity":0.3858267716535433},{"duration":0.1875,"midi":50,"time":125.4375,"velocity":0.3858267716535433},{"duration":0.1875,"midi":45,"time":125.4375,"velocity":0.3858267716535433},{"duration":0.09375,"midi":57,"time":125.53125,"velocity":0.3858267716535433},{"duration":0.1875,"midi":38,"time":125.625,"velocity":0.3858267716535433},{"duration":0.1875,"midi":48,"time":125.625,"velocity":0.3858267716535433},{"duration":0.1875,"midi":45,"time":125.8125,"velocity":0.3858267716535433},{"duration":0.1875,"midi":49,"time":125.8125,"velocity":0.3858267716535433},{"duration":0.1875,"midi":38,"time":126,"velocity":0.3858267716535433},{"duration":0.1875,"midi":50,"time":126,"velocity":0.3858267716535433},{"duration":0.1875,"midi":45,"time":126.1875,"velocity":0.3858267716535433},{"duration":0.1875,"midi":57,"time":126.1875,"velocity":0.3858267716535433},{"duration":0.1875,"midi":50,"time":126.1875,"velocity":0.3858267716535433},{"duration":0.09375,"midi":55,"time":126.375,"velocity":0.3858267716535433},{"duration":0.1875,"midi":38,"time":126.375,"velocity":0.3858267716535433},{"duration":0.1875,"midi":57,"time":126.46875,"velocity":0.3858267716535433},{"duration":0.1875,"midi":50,"time":126.5625,"velocity":0.3858267716535433},{"duration":0.1875,"midi":45,"time":126.5625,"velocity":0.3858267716535433},{"duration":0.1875,"midi":52,"time":126.65625,"velocity":0.3858267716535433},{"duration":0.1875,"midi":38,"time":126.75,"velocity":0.3858267716535433},{"duration":0.1875,"midi":53,"time":126.84375,"velocity":0.3858267716535433},{"duration":0.1875,"midi":45,"time":126.9375,"velocity":0.3858267716535433},{"duration":0.1875,"midi":50,"time":126.9375,"velocity":0.3858267716535433},{"duration":0.09375,"midi":57,"time":127.03125,"velocity":0.3858267716535433},{"duration":0.1875,"midi":38,"time":127.125,"velocity":0.3858267716535433},{"duration":0.09375,"midi":55,"time":127.125,"velocity":0.3858267716535433},{"duration":0.09375,"midi":53,"time":127.21875,"velocity":0.3858267716535433},{"duration":0.1875,"midi":45,"time":127.3125,"velocity":0.3858267716535433},{"duration":0.09375,"midi":52,"time":127.3125,"velocity":0.3858267716535433},{"duration":0.1875,"midi":50,"time":127.40625,"velocity":0.3858267716535433},{"duration":0.1875,"midi":38,"time":127.5,"velocity":0.3858267716535433},{"duration":0.1875,"midi":50,"time":127.6875,"velocity":0.3858267716535433},{"duration":0.1875,"midi":45,"time":127.6875,"velocity":0.3858267716535433},{"duration":0.1875,"midi":57,"time":127.6875,"velocity":0.3858267716535433},{"duration":0.09375,"midi":55,"time":127.875,"velocity":0.3858267716535433},{"duration":0.1875,"midi":38,"time":127.875,"velocity":0.3858267716535433},{"duration":0.1875,"midi":57,"time":127.96875,"velocity":0.3858267716535433},{"duration":0.1875,"midi":50,"time":128.0625,"velocity":0.3858267716535433},{"duration":0.1875,"midi":45,"time":128.0625,"velocity":0.3858267716535433},{"duration":0.1875,"midi":52,"time":128.15625,"velocity":0.3858267716535433},{"duration":0.1875,"midi":38,"time":128.25,"velocity":0.3858267716535433},{"duration":0.1875,"midi":53,"time":128.34375,"velocity":0.3858267716535433},{"duration":0.1875,"midi":50,"time":128.4375,"velocity":0.3858267716535433},{"duration":0.1875,"midi":45,"time":128.4375,"velocity":0.3858267716535433},{"duration":0.09375,"midi":57,"time":128.53125,"velocity":0.3858267716535433},{"duration":0.1875,"midi":48,"time":128.625,"velocity":0.3858267716535433},{"duration":0.1875,"midi":38,"time":128.625,"velocity":0.3858267716535433},{"duration":0.1875,"midi":45,"time":128.8125,"velocity":0.3858267716535433},{"duration":0.1875,"midi":49,"time":128.8125,"velocity":0.3858267716535433},{"duration":0.1875,"midi":38,"time":129,"velocity":0.3858267716535433},{"duration":0.1875,"midi":50,"time":129,"velocity":0.3858267716535433},{"duration":0.1875,"midi":50,"time":129.1875,"velocity":0.3858267716535433},{"duration":0.1875,"midi":45,"time":129.1875,"velocity":0.3858267716535433},{"duration":0.1875,"midi":57,"time":129.1875,"velocity":0.3858267716535433},{"duration":0.1875,"midi":38,"time":129.375,"velocity":0.3858267716535433},{"duration":0.09375,"midi":55,"time":129.375,"velocity":0.3858267716535433},{"duration":0.1875,"midi":57,"time":129.46875,"velocity":0.3858267716535433},{"duration":0.1875,"midi":50,"time":129.5625,"velocity":0.3858267716535433},{"duration":0.1875,"midi":45,"time":129.5625,"velocity":0.3858267716535433},{"duration":0.1875,"midi":52,"time":129.65625,"velocity":0.3858267716535433},{"duration":0.1875,"midi":38,"time":129.75,"velocity":0.3858267716535433},{"duration":0.1875,"midi":53,"time":129.84375,"velocity":0.3858267716535433},{"duration":0.1875,"midi":45,"time":129.9375,"velocity":0.3858267716535433},{"duration":0.1875,"midi":50,"time":129.9375,"velocity":0.3858267716535433},{"duration":0.09375,"midi":57,"time":130.03125,"velocity":0.3858267716535433},{"duration":0.09375,"midi":55,"time":130.125,"velocity":0.3858267716535433},{"duration":0.1875,"midi":38,"time":130.125,"velocity":0.3858267716535433},{"duration":0.09375,"midi":53,"time":130.21875,"velocity":0.3858267716535433},{"duration":0.09375,"midi":52,"time":130.3125,"velocity":0.3858267716535433},{"duration":0.1875,"midi":45,"time":130.3125,"velocity":0.3858267716535433},{"duration":0.1875,"midi":50,"time":130.40625,"velocity":0.3858267716535433},{"duration":0.1875,"midi":38,"time":130.5,"velocity":0.3858267716535433},{"duration":0.1875,"midi":57,"time":130.6875,"velocity":0.3858267716535433},{"duration":0.1875,"midi":53,"time":130.6875,"velocity":0.3858267716535433},{"duration":0.1875,"midi":50,"time":130.6875,"velocity":0.3858267716535433},{"duration":0.1875,"midi":38,"time":130.875,"velocity":0.3858267716535433},{"duration":0.09375,"midi":55,"time":130.875,"velocity":0.3858267716535433},{"duration":0.1875,"midi":57,"time":130.96875,"velocity":0.3858267716535433},{"duration":0.1875,"midi":53,"time":131.0625,"velocity":0.3858267716535433},{"duration":0.1875,"midi":50,"time":131.0625,"velocity":0.3858267716535433},{"duration":0.1875,"midi":60,"time":131.15625,"velocity":0.3858267716535433},{"duration":0.1875,"midi":38,"time":131.25,"velocity":0.3858267716535433},{"duration":0.09375,"midi":60,"time":131.34375,"velocity":0.3858267716535433},{"duration":0.1875,"midi":53,"time":131.4375,"velocity":0.3858267716535433},{"duration":0.1875,"midi":50,"time":131.4375,"velocity":0.3858267716535433},{"duration":0.1875,"midi":57,"time":131.4375,"velocity":0.3858267716535433},{"duration":0.1875,"midi":57,"time":131.625,"velocity":0.3858267716535433},{"duration":0.1875,"midi":38,"time":131.625,"velocity":0.3858267716535433},{"duration":0.1875,"midi":64,"time":131.625,"velocity":0.3858267716535433},{"duration":0.1875,"midi":50,"time":131.8125,"velocity":0.3858267716535433},{"duration":0.1875,"midi":53,"time":131.8125,"velocity":0.3858267716535433},{"duration":0.09375,"midi":60,"time":131.8125,"velocity":0.3858267716535433},{"duration":0.09375,"midi":61,"time":131.90625,"velocity":0.3858267716535433},{"duration":0.1875,"midi":62,"time":132,"velocity":0.3858267716535433},{"duration":0.1875,"midi":38,"time":132,"velocity":0.3858267716535433},{"duration":0.1875,"midi":53,"time":132.1875,"velocity":0.3858267716535433},{"duration":0.1875,"midi":50,"time":132.1875,"velocity":0.3858267716535433},{"duration":0.1875,"midi":69,"time":132.1875,"velocity":0.3858267716535433},{"duration":0.1875,"midi":65,"time":132.1875,"velocity":0.3858267716535433},{"duration":0.1875,"midi":38,"time":132.375,"velocity":0.3858267716535433},{"duration":0.09375,"midi":67,"time":132.375,"velocity":0.3858267716535433},{"duration":0.1875,"midi":69,"time":132.46875,"velocity":0.3858267716535433},{"duration":0.1875,"midi":53,"time":132.5625,"velocity":0.3858267716535433},{"duration":0.1875,"midi":50,"time":132.5625,"velocity":0.3858267716535433},{"duration":0.1875,"midi":64,"time":132.65625,"velocity":0.3858267716535433},{"duration":0.1875,"midi":60,"time":132.65625,"velocity":0.3858267716535433},{"duration":0.1875,"midi":38,"time":132.75,"velocity":0.3858267716535433},{"duration":0.1875,"midi":65,"time":132.84375,"velocity":0.3858267716535433},{"duration":0.1875,"midi":62,"time":132.84375,"velocity":0.3858267716535433},{"duration":0.1875,"midi":53,"time":132.9375,"velocity":0.3858267716535433},{"duration":0.1875,"midi":50,"time":132.9375,"velocity":0.3858267716535433},{"duration":0.09375,"midi":69,"time":133.03125,"velocity":0.3858267716535433},{"duration":0.1875,"midi":38,"time":133.125,"velocity":0.3858267716535433},{"duration":0.09375,"midi":67,"time":133.125,"velocity":0.3858267716535433},{"duration":0.09375,"midi":65,"time":133.21875,"velocity":0.3858267716535433},{"duration":0.09375,"midi":64,"time":133.3125,"velocity":0.3858267716535433},{"duration":0.1875,"midi":53,"time":133.3125,"velocity":0.3858267716535433},{"duration":0.1875,"midi":50,"time":133.3125,"velocity":0.3858267716535433},{"duration":0.1875,"midi":62,"time":133.40625,"velocity":0.3858267716535433},{"duration":0.1875,"midi":38,"time":133.5,"velocity":0.3858267716535433},{"duration":0.1875,"midi":69,"time":133.6875,"velocity":0.3858267716535433},{"duration":0.1875,"midi":50,"time":133.6875,"velocity":0.3858267716535433},{"duration":0.1875,"midi":53,"time":133.6875,"velocity":0.3858267716535433},{"duration":0.1875,"midi":65,"time":133.6875,"velocity":0.3858267716535433},{"duration":0.09375,"midi":67,"time":133.875,"velocity":0.3858267716535433},{"duration":0.1875,"midi":38,"time":133.875,"velocity":0.3858267716535433},{"duration":0.1875,"midi":69,"time":133.96875,"velocity":0.3858267716535433},{"duration":0.1875,"midi":50,"time":134.0625,"velocity":0.3858267716535433},{"duration":0.1875,"midi":53,"time":134.0625,"velocity":0.3858267716535433},{"duration":0.1875,"midi":64,"time":134.15625,"velocity":0.3858267716535433},{"duration":0.1875,"midi":60,"time":134.15625,"velocity":0.3858267716535433},{"duration":0.1875,"midi":38,"time":134.25,"velocity":0.3858267716535433},{"duration":0.1875,"midi":65,"time":134.34375,"velocity":0.3858267716535433},{"duration":0.1875,"midi":62,"time":134.34375,"velocity":0.3858267716535433},{"duration":0.1875,"midi":53,"time":134.4375,"velocity":0.3858267716535433},{"duration":0.1875,"midi":50,"time":134.4375,"velocity":0.3858267716535433},{"duration":0.09375,"midi":69,"time":134.53125,"velocity":0.3858267716535433},{"duration":0.1875,"midi":60,"time":134.625,"velocity":0.3858267716535433},{"duration":0.1875,"midi":57,"time":134.625,"velocity":0.3858267716535433},{"duration":0.1875,"midi":38,"time":134.625,"velocity":0.3858267716535433},{"duration":0.1875,"midi":53,"time":134.8125,"velocity":0.3858267716535433},{"duration":0.1875,"midi":50,"time":134.8125,"velocity":0.3858267716535433},{"duration":0.1875,"midi":61,"time":134.8125,"velocity":0.3858267716535433},{"duration":0.1875,"midi":57,"time":134.8125,"velocity":0.3858267716535433},{"duration":0.1875,"midi":62,"time":135,"velocity":0.3858267716535433},{"duration":0.1875,"midi":38,"time":135,"velocity":0.3858267716535433},{"duration":0.1875,"midi":57,"time":135,"velocity":0.3858267716535433},{"duration":0.1875,"midi":65,"time":135.1875,"velocity":0.3858267716535433},{"duration":0.1875,"midi":69,"time":135.1875,"velocity":0.3858267716535433},{"duration":0.1875,"midi":53,"time":135.1875,"velocity":0.3858267716535433},{"duration":0.1875,"midi":50,"time":135.1875,"velocity":0.3858267716535433},{"duration":0.09375,"midi":67,"time":135.375,"velocity":0.3858267716535433},{"duration":0.1875,"midi":38,"time":135.375,"velocity":0.3858267716535433},{"duration":0.1875,"midi":69,"time":135.46875,"velocity":0.3858267716535433},{"duration":0.1875,"midi":50,"time":135.5625,"velocity":0.3858267716535433},{"duration":0.1875,"midi":53,"time":135.5625,"velocity":0.3858267716535433},{"duration":0.1875,"midi":64,"time":135.65625,"velocity":0.3858267716535433},{"duration":0.1875,"midi":60,"time":135.65625,"velocity":0.3858267716535433},{"duration":0.1875,"midi":38,"time":135.75,"velocity":0.3858267716535433},{"duration":0.1875,"midi":65,"time":135.84375,"velocity":0.3858267716535433},{"duration":0.1875,"midi":62,"time":135.84375,"velocity":0.3858267716535433},{"duration":0.1875,"midi":50,"time":135.9375,"velocity":0.3858267716535433},{"duration":0.1875,"midi":53,"time":135.9375,"velocity":0.3858267716535433},{"duration":0.09375,"midi":69,"time":136.03125,"velocity":0.3858267716535433},{"duration":0.09375,"midi":67,"time":136.125,"velocity":0.3858267716535433},{"duration":0.1875,"midi":38,"time":136.125,"velocity":0.3858267716535433},{"duration":0.09375,"midi":65,"time":136.21875,"velocity":0.3858267716535433},{"duration":0.1875,"midi":50,"time":136.3125,"velocity":0.3858267716535433},{"duration":0.09375,"midi":64,"time":136.3125,"velocity":0.3858267716535433},{"duration":0.1875,"midi":53,"time":136.3125,"velocity":0.3858267716535433},{"duration":0.1875,"midi":62,"time":136.40625,"velocity":0.3858267716535433},{"duration":0.1875,"midi":38,"time":136.5,"velocity":0.3858267716535433},{"duration":0.1875,"midi":65,"time":136.6875,"velocity":0.3858267716535433},{"duration":0.1875,"midi":50,"time":136.6875,"velocity":0.3858267716535433},{"duration":0.1875,"midi":69,"time":136.6875,"velocity":0.3858267716535433},{"duration":0.1875,"midi":53,"time":136.6875,"velocity":0.3858267716535433},{"duration":0.09375,"midi":67,"time":136.875,"velocity":0.3858267716535433},{"duration":0.1875,"midi":38,"time":136.875,"velocity":0.3858267716535433},{"duration":0.1875,"midi":69,"time":136.96875,"velocity":0.3858267716535433},{"duration":0.1875,"midi":53,"time":137.0625,"velocity":0.3858267716535433},{"duration":0.1875,"midi":50,"time":137.0625,"velocity":0.3858267716535433},{"duration":0.1875,"midi":64,"time":137.15625,"velocity":0.3858267716535433},{"duration":0.1875,"midi":60,"time":137.15625,"velocity":0.3858267716535433},{"duration":0.1875,"midi":38,"time":137.25,"velocity":0.3858267716535433},{"duration":0.1875,"midi":65,"time":137.34375,"velocity":0.3858267716535433},{"duration":0.1875,"midi":62,"time":137.34375,"velocity":0.3858267716535433},{"duration":0.1875,"midi":53,"time":137.4375,"velocity":0.3858267716535433},{"duration":0.1875,"midi":50,"time":137.4375,"velocity":0.3858267716535433},{"duration":0.09375,"midi":69,"time":137.53125,"velocity":0.3858267716535433},{"duration":0.1875,"midi":60,"time":137.625,"velocity":0.3858267716535433},{"duration":0.1875,"midi":57,"time":137.625,"velocity":0.3858267716535433},{"duration":0.1875,"midi":38,"time":137.625,"velocity":0.3858267716535433},{"duration":0.1875,"midi":57,"time":137.8125,"velocity":0.3858267716535433},{"duration":0.1875,"midi":61,"time":137.8125,"velocity":0.3858267716535433},{"duration":0.1875,"midi":53,"time":137.8125,"velocity":0.3858267716535433},{"duration":0.1875,"midi":50,"time":137.8125,"velocity":0.3858267716535433},{"duration":0.1875,"midi":62,"time":138,"velocity":0.3858267716535433},{"duration":0.1875,"midi":57,"time":138,"velocity":0.3858267716535433},{"duration":0.1875,"midi":38,"time":138,"velocity":0.3858267716535433},{"duration":0.1875,"midi":50,"time":138.1875,"velocity":0.3858267716535433},{"duration":0.1875,"midi":65,"time":138.1875,"velocity":0.3858267716535433},{"duration":0.1875,"midi":53,"time":138.1875,"velocity":0.3858267716535433},{"duration":0.1875,"midi":69,"time":138.1875,"velocity":0.3858267716535433},{"duration":0.1875,"midi":38,"time":138.375,"velocity":0.3858267716535433},{"duration":0.09375,"midi":67,"time":138.375,"velocity":0.3858267716535433},{"duration":0.1875,"midi":69,"time":138.46875,"velocity":0.3858267716535433},{"duration":0.1875,"midi":53,"time":138.5625,"velocity":0.3858267716535433},{"duration":0.1875,"midi":50,"time":138.5625,"velocity":0.3858267716535433},{"duration":0.1875,"midi":64,"time":138.65625,"velocity":0.3858267716535433},{"duration":0.1875,"midi":60,"time":138.65625,"velocity":0.3858267716535433},{"duration":0.1875,"midi":38,"time":138.75,"velocity":0.3858267716535433},{"duration":0.1875,"midi":65,"time":138.84375,"velocity":0.3858267716535433},{"duration":0.1875,"midi":62,"time":138.84375,"velocity":0.3858267716535433},{"duration":0.1875,"midi":50,"time":138.9375,"velocity":0.3858267716535433},{"duration":0.1875,"midi":53,"time":138.9375,"velocity":0.3858267716535433},{"duration":0.09375,"midi":69,"time":139.03125,"velocity":0.3858267716535433},{"duration":0.09375,"midi":67,"time":139.125,"velocity":0.3858267716535433},{"duration":0.1875,"midi":38,"time":139.125,"velocity":0.3858267716535433},{"duration":0.09375,"midi":65,"time":139.21875,"velocity":0.3858267716535433},{"duration":0.1875,"midi":50,"time":139.3125,"velocity":0.3858267716535433},{"duration":0.1875,"midi":53,"time":139.3125,"velocity":0.3858267716535433},{"duration":0.09375,"midi":64,"time":139.3125,"velocity":0.3858267716535433},{"duration":0.1875,"midi":62,"time":139.40625,"velocity":0.3858267716535433},{"duration":0.1875,"midi":38,"time":139.5,"velocity":0.3858267716535433},{"duration":0.1875,"midi":65,"time":139.6875,"velocity":0.3858267716535433},{"duration":0.1875,"midi":50,"time":139.6875,"velocity":0.3858267716535433},{"duration":0.1875,"midi":53,"time":139.6875,"velocity":0.3858267716535433},{"duration":0.1875,"midi":69,"time":139.6875,"velocity":0.3858267716535433},{"duration":0.09375,"midi":67,"time":139.875,"velocity":0.3858267716535433},{"duration":0.1875,"midi":38,"time":139.875,"velocity":0.3858267716535433},{"duration":0.1875,"midi":69,"time":139.96875,"velocity":0.3858267716535433},{"duration":0.1875,"midi":50,"time":140.0625,"velocity":0.3858267716535433},{"duration":0.1875,"midi":53,"time":140.0625,"velocity":0.3858267716535433},{"duration":0.1875,"midi":64,"time":140.15625,"velocity":0.3858267716535433},{"duration":0.1875,"midi":60,"time":140.15625,"velocity":0.3858267716535433},{"duration":0.1875,"midi":38,"time":140.25,"velocity":0.3858267716535433},{"duration":0.1875,"midi":62,"time":140.34375,"velocity":0.3858267716535433},{"duration":0.1875,"midi":65,"time":140.34375,"velocity":0.3858267716535433},{"duration":0.1875,"midi":50,"time":140.4375,"velocity":0.3858267716535433},{"duration":0.1875,"midi":53,"time":140.4375,"velocity":0.3858267716535433},{"duration":0.09375,"midi":69,"time":140.53125,"velocity":0.3858267716535433},{"duration":0.1875,"midi":57,"time":140.625,"velocity":0.3858267716535433},{"duration":0.1875,"midi":38,"time":140.625,"velocity":0.3858267716535433},{"duration":0.1875,"midi":60,"time":140.625,"velocity":0.3858267716535433},{"duration":0.1875,"midi":53,"time":140.8125,"velocity":0.3858267716535433},{"duration":0.1875,"midi":61,"time":140.8125,"velocity":0.3858267716535433},{"duration":0.1875,"midi":50,"time":140.8125,"velocity":0.3858267716535433},{"duration":0.1875,"midi":57,"time":140.8125,"velocity":0.3858267716535433},{"duration":0.1875,"midi":57,"time":141,"velocity":0.3858267716535433},{"duration":0.1875,"midi":62,"time":141,"velocity":0.3858267716535433},{"duration":0.1875,"midi":38,"time":141,"velocity":0.3858267716535433},{"duration":0.1875,"midi":53,"time":141.1875,"velocity":0.3858267716535433},{"duration":0.1875,"midi":69,"time":141.1875,"velocity":0.3858267716535433},{"duration":0.1875,"midi":65,"time":141.1875,"velocity":0.3858267716535433},{"duration":0.1875,"midi":50,"time":141.1875,"velocity":0.3858267716535433},{"duration":0.09375,"midi":67,"time":141.375,"velocity":0.3858267716535433},{"duration":0.1875,"midi":38,"time":141.375,"velocity":0.3858267716535433},{"duration":0.1875,"midi":69,"time":141.46875,"velocity":0.3858267716535433},{"duration":0.1875,"midi":53,"time":141.5625,"velocity":0.3858267716535433},{"duration":0.1875,"midi":50,"time":141.5625,"velocity":0.3858267716535433},{"duration":0.1875,"midi":64,"time":141.65625,"velocity":0.3858267716535433},{"duration":0.1875,"midi":60,"time":141.65625,"velocity":0.3858267716535433},{"duration":0.1875,"midi":38,"time":141.75,"velocity":0.3858267716535433},{"duration":0.1875,"midi":65,"time":141.84375,"velocity":0.3858267716535433},{"duration":0.1875,"midi":62,"time":141.84375,"velocity":0.3858267716535433},{"duration":0.1875,"midi":53,"time":141.9375,"velocity":0.3858267716535433},{"duration":0.1875,"midi":50,"time":141.9375,"velocity":0.3858267716535433},{"duration":0.09375,"midi":69,"time":142.03125,"velocity":0.3858267716535433},{"duration":0.09375,"midi":67,"time":142.125,"velocity":0.3858267716535433},{"duration":0.1875,"midi":38,"time":142.125,"velocity":0.3858267716535433},{"duration":0.09375,"midi":65,"time":142.21875,"velocity":0.3858267716535433},{"duration":0.09375,"midi":64,"time":142.3125,"velocity":0.3858267716535433},{"duration":0.1875,"midi":53,"time":142.3125,"velocity":0.3858267716535433},{"duration":0.1875,"midi":50,"time":142.3125,"velocity":0.3858267716535433},{"duration":0.09375,"midi":62,"time":142.40625,"velocity":0.3858267716535433},{"duration":0.1875,"midi":38,"time":142.5,"velocity":0.3858267716535433},{"duration":0.09375,"midi":53,"time":142.5,"velocity":0.3858267716535433},{"duration":0.09375,"midi":55,"time":142.546875,"velocity":0.3858267716535433},{"duration":0.09375,"midi":57,"time":142.59375,"velocity":0.3858267716535433},{"duration":0.09375,"midi":59,"time":142.6171875,"velocity":0.3858267716535433},{"duration":0.09375,"midi":60,"time":142.6640625,"velocity":0.3858267716535433},{"duration":0.1875,"midi":53,"time":142.6875,"velocity":0.3858267716535433},{"duration":0.1875,"midi":50,"time":142.6875,"velocity":0.3858267716535433},{"duration":0.09375,"midi":62,"time":142.7109375,"velocity":0.3858267716535433},{"duration":0.09375,"midi":64,"time":142.7578125,"velocity":0.3858267716535433},{"duration":0.09375,"midi":65,"time":142.78125,"velocity":0.3858267716535433},{"duration":0.09375,"midi":67,"time":142.828125,"velocity":0.3858267716535433},{"duration":0.1875,"midi":38,"time":142.875,"velocity":0.3858267716535433},{"duration":0.09375,"midi":69,"time":142.875,"velocity":0.3858267716535433},{"duration":0.09375,"midi":71,"time":142.921875,"velocity":0.3858267716535433},{"duration":0.09375,"midi":72,"time":142.9453125,"velocity":0.3858267716535433},{"duration":0.09375,"midi":74,"time":142.9921875,"velocity":0.3858267716535433},{"duration":0.09375,"midi":76,"time":143.0390625,"velocity":0.3858267716535433},{"duration":0.1875,"midi":53,"time":143.0625,"velocity":0.3858267716535433},{"duration":0.1875,"midi":50,"time":143.0625,"velocity":0.3858267716535433},{"duration":0.09375,"midi":77,"time":143.0859375,"velocity":0.3858267716535433},{"duration":0.09375,"midi":79,"time":143.1328125,"velocity":0.3858267716535433},{"duration":0.09375,"midi":81,"time":143.15625,"velocity":0.3858267716535433},{"duration":0.09375,"midi":83,"time":143.203125,"velocity":0.3858267716535433},{"duration":0.1875,"midi":38,"time":143.25,"velocity":0.3858267716535433},{"duration":0.09375,"midi":84,"time":143.25,"velocity":0.3858267716535433},{"duration":0.09375,"midi":86,"time":143.296875,"velocity":0.3858267716535433},{"duration":0.09375,"midi":88,"time":143.3203125,"velocity":0.3858267716535433},{"duration":0.09375,"midi":89,"time":143.3671875,"velocity":0.3858267716535433},{"duration":0.09375,"midi":91,"time":143.4140625,"velocity":0.3858267716535433},{"duration":0.1875,"midi":53,"time":143.4375,"velocity":0.3858267716535433},{"duration":0.1875,"midi":53,"time":143.4375,"velocity":0.3858267716535433},{"duration":0.1875,"midi":50,"time":143.4375,"velocity":0.3858267716535433},{"duration":0.09375,"midi":93,"time":143.4609375,"velocity":0.3858267716535433},{"duration":0.09375,"midi":95,"time":143.484375,"velocity":0.3858267716535433},{"duration":0.09375,"midi":84,"time":143.53125,"velocity":0.3858267716535433},{"duration":0.1875,"midi":36,"time":143.625,"velocity":0.3858267716535433},{"duration":0.375,"midi":86,"time":143.625,"velocity":0.3858267716535433},{"duration":0.375,"midi":86,"time":143.625,"velocity":0.3858267716535433},{"duration":0.1875,"midi":48,"time":143.8125,"velocity":0.3858267716535433},{"duration":0.1875,"midi":52,"time":143.8125,"velocity":0.3858267716535433},{"duration":0.1875,"midi":69,"time":144,"velocity":0.3858267716535433},{"duration":0.1875,"midi":34,"time":144,"velocity":0.3858267716535433},{"duration":0.1875,"midi":65,"time":144,"velocity":0.3858267716535433},{"duration":0.1875,"midi":74,"time":144.1875,"velocity":0.3858267716535433},{"duration":0.1875,"midi":50,"time":144.1875,"velocity":0.3858267716535433},{"duration":0.1875,"midi":46,"time":144.1875,"velocity":0.3858267716535433},{"duration":0.1875,"midi":77,"time":144.1875,"velocity":0.3858267716535433},{"duration":0.09375,"midi":76,"time":144.375,"velocity":0.3858267716535433},{"duration":0.1875,"midi":34,"time":144.375,"velocity":0.3858267716535433},{"duration":0.09375,"midi":77,"time":144.46875,"velocity":0.3858267716535433},{"duration":0.1875,"midi":46,"time":144.5625,"velocity":0.3858267716535433},{"duration":0.1875,"midi":76,"time":144.5625,"velocity":0.3858267716535433},{"duration":0.1875,"midi":50,"time":144.5625,"velocity":0.3858267716535433},{"duration":0.1875,"midi":72,"time":144.75,"velocity":0.3858267716535433},{"duration":0.1875,"midi":36,"time":144.75,"velocity":0.3858267716535433},{"duration":0.1875,"midi":79,"time":144.75,"velocity":0.3858267716535433},{"duration":0.1875,"midi":48,"time":144.9375,"velocity":0.3858267716535433},{"duration":0.1875,"midi":77,"time":144.9375,"velocity":0.3858267716535433},{"duration":0.1875,"midi":52,"time":144.9375,"velocity":0.3858267716535433},{"duration":0.09375,"midi":76,"time":145.125,"velocity":0.3858267716535433},{"duration":0.1875,"midi":36,"time":145.125,"velocity":0.3858267716535433},{"duration":0.09375,"midi":77,"time":145.21875,"velocity":0.3858267716535433},{"duration":0.09375,"midi":76,"time":145.3125,"velocity":0.3858267716535433},{"duration":0.1875,"midi":48,"time":145.3125,"velocity":0.3858267716535433},{"duration":0.1875,"midi":52,"time":145.3125,"velocity":0.3858267716535433},{"duration":0.09375,"midi":72,"time":145.40625,"velocity":0.3858267716535433},{"duration":0.1875,"midi":74,"time":145.5,"velocity":0.3858267716535433},{"duration":0.1875,"midi":38,"time":145.5,"velocity":0.3858267716535433},{"duration":0.1875,"midi":53,"time":145.6875,"velocity":0.3858267716535433},{"duration":0.1875,"midi":50,"time":145.6875,"velocity":0.3858267716535433},{"duration":0.1875,"midi":81,"time":145.6875,"velocity":0.3858267716535433},{"duration":0.1875,"midi":77,"time":145.6875,"velocity":0.3858267716535433},{"duration":0.1875,"midi":38,"time":145.875,"velocity":0.3858267716535433},{"duration":0.09375,"midi":79,"time":145.875,"velocity":0.3858267716535433},{"duration":0.09375,"midi":81,"time":145.96875,"velocity":0.3858267716535433},{"duration":0.1875,"midi":50,"time":146.0625,"velocity":0.3858267716535433},{"duration":0.09375,"midi":79,"time":146.0625,"velocity":0.3858267716535433},{"duration":0.1875,"midi":53,"time":146.0625,"velocity":0.3858267716535433},{"duration":0.09375,"midi":81,"time":146.15625,"velocity":0.3858267716535433},{"duration":0.1875,"midi":84,"time":146.25,"velocity":0.3858267716535433},{"duration":0.1875,"midi":77,"time":146.25,"velocity":0.3858267716535433},{"duration":0.1875,"midi":38,"time":146.25,"velocity":0.3858267716535433},{"duration":0.1875,"midi":53,"time":146.4375,"velocity":0.3858267716535433},{"duration":0.1875,"midi":50,"time":146.4375,"velocity":0.3858267716535433},{"duration":0.1875,"midi":81,"time":146.4375,"velocity":0.3858267716535433},{"duration":0.1875,"midi":79,"time":146.625,"velocity":0.3858267716535433},{"duration":0.1875,"midi":38,"time":146.625,"velocity":0.3858267716535433},{"duration":0.1875,"midi":81,"time":146.8125,"velocity":0.3858267716535433},{"duration":0.1875,"midi":53,"time":146.8125,"velocity":0.3858267716535433},{"duration":0.1875,"midi":50,"time":146.8125,"velocity":0.3858267716535433},{"duration":0.1875,"midi":69,"time":147,"velocity":0.3858267716535433},{"duration":0.1875,"midi":65,"time":147,"velocity":0.3858267716535433},{"duration":0.1875,"midi":34,"time":147,"velocity":0.3858267716535433},{"duration":0.1875,"midi":50,"time":147.1875,"velocity":0.3858267716535433},{"duration":0.1875,"midi":46,"time":147.1875,"velocity":0.3858267716535433},{"duration":0.1875,"midi":77,"time":147.1875,"velocity":0.3858267716535433},{"duration":0.1875,"midi":74,"time":147.1875,"velocity":0.3858267716535433},{"duration":0.1875,"midi":34,"time":147.375,"velocity":0.3858267716535433},{"duration":0.09375,"midi":76,"time":147.375,"velocity":0.3858267716535433},{"duration":0.09375,"midi":77,"time":147.46875,"velocity":0.3858267716535433},{"duration":0.1875,"midi":76,"time":147.5625,"velocity":0.3858267716535433},{"duration":0.1875,"midi":50,"time":147.5625,"velocity":0.3858267716535433},{"duration":0.1875,"midi":46,"time":147.5625,"velocity":0.3858267716535433},{"duration":0.1875,"midi":72,"time":147.75,"velocity":0.3858267716535433},{"duration":0.1875,"midi":79,"time":147.75,"velocity":0.3858267716535433},{"duration":0.1875,"midi":36,"time":147.75,"velocity":0.3858267716535433},{"duration":0.1875,"midi":52,"time":147.9375,"velocity":0.3858267716535433},{"duration":0.1875,"midi":48,"time":147.9375,"velocity":0.3858267716535433},{"duration":0.1875,"midi":77,"time":147.9375,"velocity":0.3858267716535433},{"duration":0.09375,"midi":76,"time":148.125,"velocity":0.3858267716535433},{"duration":0.1875,"midi":36,"time":148.125,"velocity":0.3858267716535433},{"duration":0.09375,"midi":77,"time":148.21875,"velocity":0.3858267716535433},{"duration":0.09375,"midi":76,"time":148.3125,"velocity":0.3858267716535433},{"duration":0.1875,"midi":48,"time":148.3125,"velocity":0.3858267716535433},{"duration":0.1875,"midi":52,"time":148.3125,"velocity":0.3858267716535433},{"duration":0.09375,"midi":72,"time":148.40625,"velocity":0.3858267716535433},{"duration":0.1875,"midi":38,"time":148.5,"velocity":0.3858267716535433},{"duration":0.1875,"midi":74,"time":148.5,"velocity":0.3858267716535433},{"duration":0.1875,"midi":81,"time":148.6875,"velocity":0.3858267716535433},{"duration":0.1875,"midi":77,"time":148.6875,"velocity":0.3858267716535433},{"duration":0.1875,"midi":50,"time":148.6875,"velocity":0.3858267716535433},{"duration":0.09375,"midi":79,"time":148.875,"velocity":0.3858267716535433},{"duration":0.1875,"midi":40,"time":148.875,"velocity":0.3858267716535433},{"duration":0.09375,"midi":81,"time":148.96875,"velocity":0.3858267716535433},{"duration":0.09375,"midi":79,"time":149.0625,"velocity":0.3858267716535433},{"duration":0.1875,"midi":52,"time":149.0625,"velocity":0.3858267716535433},{"duration":0.09375,"midi":81,"time":149.15625,"velocity":0.3858267716535433},{"duration":0.1875,"midi":77,"time":149.25,"velocity":0.3858267716535433},{"duration":0.1875,"midi":41,"time":149.25,"velocity":0.3858267716535433},{"duration":0.1875,"midi":85,"time":149.25,"velocity":0.3858267716535433},{"duration":0.1875,"midi":53,"time":149.4375,"velocity":0.3858267716535433},{"duration":0.1875,"midi":81,"time":149.4375,"velocity":0.3858267716535433},{"duration":0.1875,"midi":79,"time":149.625,"velocity":0.3858267716535433},{"duration":0.1875,"midi":43,"time":149.625,"velocity":0.3858267716535433},{"duration":0.1875,"midi":55,"time":149.8125,"velocity":0.3858267716535433},{"duration":0.1875,"midi":81,"time":149.8125,"velocity":0.3858267716535433},{"duration":0.1875,"midi":69,"time":150,"velocity":0.3858267716535433},{"duration":0.1875,"midi":34,"time":150,"velocity":0.3858267716535433},{"duration":0.1875,"midi":65,"time":150,"velocity":0.3858267716535433},{"duration":0.1875,"midi":50,"time":150.1875,"velocity":0.3858267716535433},{"duration":0.1875,"midi":74,"time":150.1875,"velocity":0.3858267716535433},{"duration":0.1875,"midi":46,"time":150.1875,"velocity":0.3858267716535433},{"duration":0.1875,"midi":77,"time":150.1875,"velocity":0.3858267716535433},{"duration":0.1875,"midi":34,"time":150.375,"velocity":0.3858267716535433},{"duration":0.09375,"midi":76,"time":150.375,"velocity":0.3858267716535433},{"duration":0.09375,"midi":77,"time":150.46875,"velocity":0.3858267716535433},{"duration":0.1875,"midi":50,"time":150.5625,"velocity":0.3858267716535433},{"duration":0.1875,"midi":46,"time":150.5625,"velocity":0.3858267716535433},{"duration":0.1875,"midi":76,"time":150.5625,"velocity":0.3858267716535433},{"duration":0.1875,"midi":72,"time":150.75,"velocity":0.3858267716535433},{"duration":0.1875,"midi":79,"time":150.75,"velocity":0.3858267716535433},{"duration":0.1875,"midi":36,"time":150.75,"velocity":0.3858267716535433},{"duration":0.1875,"midi":48,"time":150.9375,"velocity":0.3858267716535433},{"duration":0.1875,"midi":77,"time":150.9375,"velocity":0.3858267716535433},{"duration":0.1875,"midi":52,"time":150.9375,"velocity":0.3858267716535433},{"duration":0.1875,"midi":36,"time":151.125,"velocity":0.3858267716535433},{"duration":0.09375,"midi":76,"time":151.125,"velocity":0.3858267716535433},{"duration":0.09375,"midi":77,"time":151.21875,"velocity":0.3858267716535433},{"duration":0.09375,"midi":76,"time":151.3125,"velocity":0.3858267716535433},{"duration":0.1875,"midi":52,"time":151.3125,"velocity":0.3858267716535433},{"duration":0.1875,"midi":48,"time":151.3125,"velocity":0.3858267716535433},{"duration":0.09375,"midi":72,"time":151.40625,"velocity":0.3858267716535433},{"duration":0.1875,"midi":38,"time":151.5,"velocity":0.3858267716535433},{"duration":0.1875,"midi":74,"time":151.5,"velocity":0.3858267716535433},{"duration":0.1875,"midi":53,"time":151.6875,"velocity":0.3858267716535433},{"duration":0.1875,"midi":50,"time":151.6875,"velocity":0.3858267716535433},{"duration":0.1875,"midi":81,"time":151.6875,"velocity":0.3858267716535433},{"duration":0.1875,"midi":77,"time":151.6875,"velocity":0.3858267716535433},{"duration":0.09375,"midi":79,"time":151.875,"velocity":0.3858267716535433},{"duration":0.1875,"midi":38,"time":151.875,"velocity":0.3858267716535433},{"duration":0.09375,"midi":81,"time":151.96875,"velocity":0.3858267716535433},{"duration":0.09375,"midi":79,"time":152.0625,"velocity":0.3858267716535433},{"duration":0.1875,"midi":53,"time":152.0625,"velocity":0.3858267716535433},{"duration":0.1875,"midi":50,"time":152.0625,"velocity":0.3858267716535433},{"duration":0.09375,"midi":81,"time":152.15625,"velocity":0.3858267716535433},{"duration":0.1875,"midi":77,"time":152.25,"velocity":0.3858267716535433},{"duration":0.1875,"midi":38,"time":152.25,"velocity":0.3858267716535433},{"duration":0.1875,"midi":84,"time":152.25,"velocity":0.3858267716535433},{"duration":0.1875,"midi":81,"time":152.4375,"velocity":0.3858267716535433},{"duration":0.1875,"midi":53,"time":152.4375,"velocity":0.3858267716535433},{"duration":0.1875,"midi":50,"time":152.4375,"velocity":0.3858267716535433},{"duration":0.1875,"midi":77,"time":152.625,"velocity":0.3858267716535433},{"duration":0.1875,"midi":38,"time":152.625,"velocity":0.3858267716535433},{"duration":0.1875,"midi":53,"time":152.8125,"velocity":0.3858267716535433},{"duration":0.1875,"midi":50,"time":152.8125,"velocity":0.3858267716535433},{"duration":0.1875,"midi":78,"time":152.8125,"velocity":0.3858267716535433},{"duration":0.1875,"midi":79,"time":153,"velocity":0.3858267716535433},{"duration":0.1875,"midi":31,"time":153,"velocity":0.3858267716535433},{"duration":0.1875,"midi":74,"time":153,"velocity":0.3858267716535433},{"duration":0.1875,"midi":46,"time":153.1875,"velocity":0.3858267716535433},{"duration":0.09375,"midi":70,"time":153.1875,"velocity":0.3858267716535433},{"duration":0.09375,"midi":74,"time":153.28125,"velocity":0.3858267716535433},{"duration":0.1875,"midi":70,"time":153.375,"velocity":0.3858267716535433},{"duration":0.1875,"midi":31,"time":153.375,"velocity":0.3858267716535433},{"duration":0.1875,"midi":74,"time":153.5625,"velocity":0.3858267716535433},{"duration":0.1875,"midi":46,"time":153.5625,"velocity":0.3858267716535433},{"duration":0.1875,"midi":79,"time":153.5625,"velocity":0.3858267716535433},{"duration":0.1875,"midi":33,"time":153.75,"velocity":0.3858267716535433},{"duration":0.1875,"midi":81,"time":153.75,"velocity":0.3858267716535433},{"duration":0.1875,"midi":76,"time":153.75,"velocity":0.3858267716535433},{"duration":0.09375,"midi":72,"time":153.9375,"velocity":0.3858267716535433},{"duration":0.1875,"midi":45,"time":153.9375,"velocity":0.3858267716535433},{"duration":0.1875,"midi":48,"time":153.9375,"velocity":0.3858267716535433},{"duration":0.09375,"midi":76,"time":154.03125,"velocity":0.3858267716535433},{"duration":0.09375,"midi":81,"time":154.03125,"velocity":0.3858267716535433},{"duration":0.1875,"midi":72,"time":154.125,"velocity":0.3858267716535433},{"duration":0.1875,"midi":33,"time":154.125,"velocity":0.3858267716535433},{"duration":0.1875,"midi":48,"time":154.3125,"velocity":0.3858267716535433},{"duration":0.1875,"midi":45,"time":154.3125,"velocity":0.3858267716535433},{"duration":0.1875,"midi":81,"time":154.3125,"velocity":0.3858267716535433},{"duration":0.1875,"midi":76,"time":154.3125,"velocity":0.3858267716535433},{"duration":0.1875,"midi":82,"time":154.5,"velocity":0.3858267716535433},{"duration":0.1875,"midi":77,"time":154.5,"velocity":0.3858267716535433},{"duration":0.1875,"midi":34,"time":154.5,"velocity":0.3858267716535433},{"duration":0.1875,"midi":74,"time":154.6875,"velocity":0.3858267716535433},{"duration":0.1875,"midi":50,"time":154.6875,"velocity":0.3858267716535433},{"duration":0.1875,"midi":46,"time":154.6875,"velocity":0.3858267716535433},{"duration":0.1875,"midi":83,"time":154.875,"velocity":0.3858267716535433},{"duration":0.1875,"midi":77,"time":154.875,"velocity":0.3858267716535433},{"duration":0.1875,"midi":35,"time":154.875,"velocity":0.3858267716535433},{"duration":0.1875,"midi":50,"time":155.0625,"velocity":0.3858267716535433},{"duration":0.1875,"midi":47,"time":155.0625,"velocity":0.3858267716535433},{"duration":0.1875,"midi":74,"time":155.0625,"velocity":0.3858267716535433},{"duration":0.1875,"midi":76,"time":155.25,"velocity":0.3858267716535433},{"duration":0.1875,"midi":76,"time":155.25,"velocity":0.3858267716535433},{"duration":0.1875,"midi":76,"time":155.25,"velocity":0.3858267716535433},{"duration":0.1875,"midi":76,"time":155.25,"velocity":0.3858267716535433},{"duration":0.1875,"midi":76,"time":155.25,"velocity":0.3858267716535433},{"duration":0.1875,"midi":36,"time":155.25,"velocity":0.3858267716535433},{"duration":0.75,"midi":84,"time":155.25,"velocity":0.3858267716535433},{"duration":0.1875,"midi":76,"time":155.25,"velocity":0.3858267716535433},{"duration":0.1875,"midi":76,"time":155.25,"velocity":0.3858267716535433},{"duration":0.1875,"midi":76,"time":155.25,"velocity":0.3858267716535433},{"duration":0.1875,"midi":52,"time":155.4375,"velocity":0.3858267716535433},{"duration":0.1875,"midi":48,"time":155.4375,"velocity":0.3858267716535433},{"duration":0.09375,"midi":76,"time":155.4375,"velocity":0.3858267716535433},{"duration":0.09375,"midi":79,"time":155.53125,"velocity":0.3858267716535433},{"duration":0.09375,"midi":79,"time":155.625,"velocity":0.3858267716535433},{"duration":0.09375,"midi":79,"time":155.625,"velocity":0.3858267716535433},{"duration":0.09375,"midi":79,"time":155.625,"velocity":0.3858267716535433},{"duration":0.1875,"midi":36,"time":155.625,"velocity":0.3858267716535433},{"duration":0.09375,"midi":76,"time":155.625,"velocity":0.3858267716535433},{"duration":0.09375,"midi":79,"time":155.625,"velocity":0.3858267716535433},{"duration":0.09375,"midi":79,"time":155.625,"velocity":0.3858267716535433},{"duration":0.09375,"midi":79,"time":155.625,"velocity":0.3858267716535433},{"duration":0.09375,"midi":79,"time":155.625,"velocity":0.3858267716535433},{"duration":0.09375,"midi":79,"time":155.625,"velocity":0.3858267716535433},{"duration":0.09375,"midi":79,"time":155.71875,"velocity":0.3858267716535433},{"duration":0.09375,"midi":76,"time":155.8125,"velocity":0.3858267716535433},{"duration":0.1875,"midi":52,"time":155.8125,"velocity":0.3858267716535433},{"duration":0.1875,"midi":48,"time":155.8125,"velocity":0.3858267716535433},{"duration":0.09375,"midi":79,"time":155.90625,"velocity":0.3858267716535433},{"duration":0.09375,"midi":79,"time":155.90625,"velocity":0.3858267716535433},{"duration":0.1875,"midi":34,"time":156.75,"velocity":0.3858267716535433},{"duration":0.1875,"midi":69,"time":156.75,"velocity":0.3858267716535433},{"duration":0.1875,"midi":65,"time":156.75,"velocity":0.3858267716535433},{"duration":0.1875,"midi":77,"time":156.9375,"velocity":0.3858267716535433},{"duration":0.1875,"midi":46,"time":156.9375,"velocity":0.3858267716535433},{"duration":0.1875,"midi":50,"time":156.9375,"velocity":0.3858267716535433},{"duration":0.1875,"midi":74,"time":156.9375,"velocity":0.3858267716535433},{"duration":0.09375,"midi":76,"time":157.125,"velocity":0.3858267716535433},{"duration":0.1875,"midi":34,"time":157.125,"velocity":0.3858267716535433},{"duration":0.09375,"midi":77,"time":157.21875,"velocity":0.3858267716535433},{"duration":0.1875,"midi":76,"time":157.3125,"velocity":0.3858267716535433},{"duration":0.1875,"midi":46,"time":157.3125,"velocity":0.3858267716535433},{"duration":0.1875,"midi":50,"time":157.3125,"velocity":0.3858267716535433},{"duration":0.1875,"midi":36,"time":157.5,"velocity":0.3858267716535433},{"duration":0.1875,"midi":79,"time":157.5,"velocity":0.3858267716535433},{"duration":0.1875,"midi":72,"time":157.5,"velocity":0.3858267716535433},{"duration":0.1875,"midi":48,"time":157.6875,"velocity":0.3858267716535433},{"duration":0.1875,"midi":77,"time":157.6875,"velocity":0.3858267716535433},{"duration":0.1875,"midi":52,"time":157.6875,"velocity":0.3858267716535433},{"duration":0.09375,"midi":76,"time":157.875,"velocity":0.3858267716535433},{"duration":0.1875,"midi":36,"time":157.875,"velocity":0.3858267716535433},{"duration":0.09375,"midi":77,"time":157.96875,"velocity":0.3858267716535433},{"duration":0.1875,"midi":48,"time":158.0625,"velocity":0.3858267716535433},{"duration":0.1875,"midi":52,"time":158.0625,"velocity":0.3858267716535433},{"duration":0.09375,"midi":76,"time":158.0625,"velocity":0.3858267716535433},{"duration":0.09375,"midi":72,"time":158.15625,"velocity":0.3858267716535433},{"duration":0.1875,"midi":74,"time":158.25,"velocity":0.3858267716535433},{"duration":0.1875,"midi":38,"time":158.25,"velocity":0.3858267716535433},{"duration":0.1875,"midi":77,"time":158.4375,"velocity":0.3858267716535433},{"duration":0.1875,"midi":81,"time":158.4375,"velocity":0.3858267716535433},{"duration":0.1875,"midi":53,"time":158.4375,"velocity":0.3858267716535433},{"duration":0.1875,"midi":50,"time":158.4375,"velocity":0.3858267716535433},{"duration":0.09375,"midi":79,"time":158.625,"velocity":0.3858267716535433},{"duration":0.1875,"midi":38,"time":158.625,"velocity":0.3858267716535433},{"duration":0.09375,"midi":81,"time":158.71875,"velocity":0.3858267716535433},{"duration":0.1875,"midi":53,"time":158.8125,"velocity":0.3858267716535433},{"duration":0.1875,"midi":50,"time":158.8125,"velocity":0.3858267716535433},{"duration":0.09375,"midi":79,"time":158.8125,"velocity":0.3858267716535433},{"duration":0.09375,"midi":81,"time":158.90625,"velocity":0.3858267716535433},{"duration":0.1875,"midi":77,"time":159,"velocity":0.3858267716535433},{"duration":0.1875,"midi":38,"time":159,"velocity":0.3858267716535433},{"duration":0.1875,"midi":84,"time":159,"velocity":0.3858267716535433},{"duration":0.1875,"midi":53,"time":159.1875,"velocity":0.3858267716535433},{"duration":0.1875,"midi":50,"time":159.1875,"velocity":0.3858267716535433},{"duration":0.1875,"midi":81,"time":159.1875,"velocity":0.3858267716535433},{"duration":0.1875,"midi":79,"time":159.375,"velocity":0.3858267716535433},{"duration":0.1875,"midi":38,"time":159.375,"velocity":0.3858267716535433},{"duration":0.1875,"midi":81,"time":159.5625,"velocity":0.3858267716535433},{"duration":0.1875,"midi":53,"time":159.5625,"velocity":0.3858267716535433},{"duration":0.1875,"midi":50,"time":159.5625,"velocity":0.3858267716535433},{"duration":0.1875,"midi":34,"time":159.75,"velocity":0.3858267716535433},{"duration":0.1875,"midi":69,"time":159.75,"velocity":0.3858267716535433},{"duration":0.1875,"midi":65,"time":159.75,"velocity":0.3858267716535433},{"duration":0.1875,"midi":74,"time":159.9375,"velocity":0.3858267716535433},{"duration":0.1875,"midi":77,"time":159.9375,"velocity":0.3858267716535433},{"duration":0.1875,"midi":46,"time":159.9375,"velocity":0.3858267716535433},{"duration":0.1875,"midi":50,"time":159.9375,"velocity":0.3858267716535433},{"duration":0.1875,"midi":34,"time":160.125,"velocity":0.3858267716535433},{"duration":0.09375,"midi":76,"time":160.125,"velocity":0.3858267716535433},{"duration":0.09375,"midi":77,"time":160.21875,"velocity":0.3858267716535433},{"duration":0.1875,"midi":76,"time":160.3125,"velocity":0.3858267716535433},{"duration":0.1875,"midi":50,"time":160.3125,"velocity":0.3858267716535433},{"duration":0.1875,"midi":46,"time":160.3125,"velocity":0.3858267716535433},{"duration":0.1875,"midi":72,"time":160.5,"velocity":0.3858267716535433},{"duration":0.1875,"midi":79,"time":160.5,"velocity":0.3858267716535433},{"duration":0.1875,"midi":36,"time":160.5,"velocity":0.3858267716535433},{"duration":0.1875,"midi":52,"time":160.6875,"velocity":0.3858267716535433},{"duration":0.1875,"midi":48,"time":160.6875,"velocity":0.3858267716535433},{"duration":0.1875,"midi":77,"time":160.6875,"velocity":0.3858267716535433},{"duration":0.09375,"midi":76,"time":160.875,"velocity":0.3858267716535433},{"duration":0.1875,"midi":36,"time":160.875,"velocity":0.3858267716535433},{"duration":0.09375,"midi":77,"time":160.96875,"velocity":0.3858267716535433},{"duration":0.1875,"midi":48,"time":161.0625,"velocity":0.3858267716535433},{"duration":0.1875,"midi":52,"time":161.0625,"velocity":0.3858267716535433},{"duration":0.09375,"midi":76,"time":161.0625,"velocity":0.3858267716535433},{"duration":0.09375,"midi":72,"time":161.15625,"velocity":0.3858267716535433},{"duration":0.1875,"midi":38,"time":161.25,"velocity":0.3858267716535433},{"duration":0.1875,"midi":74,"time":161.25,"velocity":0.3858267716535433},{"duration":0.1875,"midi":50,"time":161.4375,"velocity":0.3858267716535433},{"duration":0.1875,"midi":81,"time":161.4375,"velocity":0.3858267716535433},{"duration":0.1875,"midi":77,"time":161.4375,"velocity":0.3858267716535433},{"duration":0.1875,"midi":40,"time":161.625,"velocity":0.3858267716535433},{"duration":0.09375,"midi":79,"time":161.625,"velocity":0.3858267716535433},{"duration":0.09375,"midi":81,"time":161.71875,"velocity":0.3858267716535433},{"duration":0.09375,"midi":79,"time":161.8125,"velocity":0.3858267716535433},{"duration":0.1875,"midi":52,"time":161.8125,"velocity":0.3858267716535433},{"duration":0.09375,"midi":81,"time":161.90625,"velocity":0.3858267716535433},{"duration":0.1875,"midi":85,"time":162,"velocity":0.3858267716535433},{"duration":0.1875,"midi":41,"time":162,"velocity":0.3858267716535433},{"duration":0.1875,"midi":77,"time":162,"velocity":0.3858267716535433},{"duration":0.1875,"midi":81,"time":162.1875,"velocity":0.3858267716535433},{"duration":0.1875,"midi":53,"time":162.1875,"velocity":0.3858267716535433},{"duration":0.1875,"midi":79,"time":162.375,"velocity":0.3858267716535433},{"duration":0.1875,"midi":43,"time":162.375,"velocity":0.3858267716535433},{"duration":0.1875,"midi":55,"time":162.5625,"velocity":0.3858267716535433},{"duration":0.1875,"midi":81,"time":162.5625,"velocity":0.3858267716535433},{"duration":0.1875,"midi":65,"time":162.75,"velocity":0.3858267716535433},{"duration":0.1875,"midi":69,"time":162.75,"velocity":0.3858267716535433},{"duration":0.1875,"midi":34,"time":162.75,"velocity":0.3858267716535433},{"duration":0.1875,"midi":74,"time":162.9375,"velocity":0.3858267716535433},{"duration":0.1875,"midi":46,"time":162.9375,"velocity":0.3858267716535433},{"duration":0.1875,"midi":50,"time":162.9375,"velocity":0.3858267716535433},{"duration":0.1875,"midi":77,"time":162.9375,"velocity":0.3858267716535433},{"duration":0.09375,"midi":76,"time":163.125,"velocity":0.3858267716535433},{"duration":0.1875,"midi":34,"time":163.125,"velocity":0.3858267716535433},{"duration":0.09375,"midi":77,"time":163.21875,"velocity":0.3858267716535433},{"duration":0.1875,"midi":46,"time":163.3125,"velocity":0.3858267716535433},{"duration":0.1875,"midi":76,"time":163.3125,"velocity":0.3858267716535433},{"duration":0.1875,"midi":50,"time":163.3125,"velocity":0.3858267716535433},{"duration":0.1875,"midi":72,"time":163.5,"velocity":0.3858267716535433},{"duration":0.1875,"midi":36,"time":163.5,"velocity":0.3858267716535433},{"duration":0.1875,"midi":79,"time":163.5,"velocity":0.3858267716535433},{"duration":0.1875,"midi":77,"time":163.6875,"velocity":0.3858267716535433},{"duration":0.1875,"midi":52,"time":163.6875,"velocity":0.3858267716535433},{"duration":0.1875,"midi":48,"time":163.6875,"velocity":0.3858267716535433},{"duration":0.1875,"midi":36,"time":163.875,"velocity":0.3858267716535433},{"duration":0.09375,"midi":76,"time":163.875,"velocity":0.3858267716535433},{"duration":0.09375,"midi":77,"time":163.96875,"velocity":0.3858267716535433},{"duration":0.1875,"midi":48,"time":164.0625,"velocity":0.3858267716535433},{"duration":0.09375,"midi":76,"time":164.0625,"velocity":0.3858267716535433},{"duration":0.1875,"midi":52,"time":164.0625,"velocity":0.3858267716535433},{"duration":0.09375,"midi":72,"time":164.15625,"velocity":0.3858267716535433},{"duration":0.1875,"midi":74,"time":164.25,"velocity":0.3858267716535433},{"duration":0.1875,"midi":38,"time":164.25,"velocity":0.3858267716535433},{"duration":0.1875,"midi":77,"time":164.4375,"velocity":0.3858267716535433},{"duration":0.1875,"midi":53,"time":164.4375,"velocity":0.3858267716535433},{"duration":0.1875,"midi":50,"time":164.4375,"velocity":0.3858267716535433},{"duration":0.1875,"midi":81,"time":164.4375,"velocity":0.3858267716535433},{"duration":0.1875,"midi":38,"time":164.625,"velocity":0.3858267716535433},{"duration":0.09375,"midi":79,"time":164.625,"velocity":0.3858267716535433},{"duration":0.09375,"midi":81,"time":164.71875,"velocity":0.3858267716535433},{"duration":0.09375,"midi":79,"time":164.8125,"velocity":0.3858267716535433},{"duration":0.1875,"midi":53,"time":164.8125,"velocity":0.3858267716535433},{"duration":0.1875,"midi":50,"time":164.8125,"velocity":0.3858267716535433},{"duration":0.09375,"midi":81,"time":164.90625,"velocity":0.3858267716535433},{"duration":0.1875,"midi":38,"time":165,"velocity":0.3858267716535433},{"duration":0.1875,"midi":84,"time":165,"velocity":0.3858267716535433},{"duration":0.1875,"midi":77,"time":165,"velocity":0.3858267716535433},{"duration":0.1875,"midi":53,"time":165.1875,"velocity":0.3858267716535433},{"duration":0.1875,"midi":81,"time":165.1875,"velocity":0.3858267716535433},{"duration":0.1875,"midi":50,"time":165.1875,"velocity":0.3858267716535433},{"duration":0.1875,"midi":77,"time":165.375,"velocity":0.3858267716535433},{"duration":0.1875,"midi":38,"time":165.375,"velocity":0.3858267716535433},{"duration":0.1875,"midi":50,"time":165.5625,"velocity":0.3858267716535433},{"duration":0.1875,"midi":78,"time":165.5625,"velocity":0.3858267716535433},{"duration":0.1875,"midi":53,"time":165.5625,"velocity":0.3858267716535433},{"duration":0.1875,"midi":31,"time":165.75,"velocity":0.3858267716535433},{"duration":0.1875,"midi":79,"time":165.75,"velocity":0.3858267716535433},{"duration":0.1875,"midi":74,"time":165.75,"velocity":0.3858267716535433},{"duration":0.1875,"midi":46,"time":165.9375,"velocity":0.3858267716535433},{"duration":0.09375,"midi":70,"time":165.9375,"velocity":0.3858267716535433},{"duration":0.09375,"midi":74,"time":166.03125,"velocity":0.3858267716535433},{"duration":0.1875,"midi":31,"time":166.125,"velocity":0.3858267716535433},{"duration":0.1875,"midi":70,"time":166.125,"velocity":0.3858267716535433},{"duration":0.1875,"midi":79,"time":166.3125,"velocity":0.3858267716535433},{"duration":0.1875,"midi":74,"time":166.3125,"velocity":0.3858267716535433},{"duration":0.1875,"midi":46,"time":166.3125,"velocity":0.3858267716535433},{"duration":0.1875,"midi":33,"time":166.5,"velocity":0.3858267716535433},{"duration":0.1875,"midi":81,"time":166.5,"velocity":0.3858267716535433},{"duration":0.1875,"midi":76,"time":166.5,"velocity":0.3858267716535433},{"duration":0.1875,"midi":45,"time":166.6875,"velocity":0.3858267716535433},{"duration":0.09375,"midi":72,"time":166.6875,"velocity":0.3858267716535433},{"duration":0.09375,"midi":81,"time":166.78125,"velocity":0.3858267716535433},{"duration":0.09375,"midi":76,"time":166.78125,"velocity":0.3858267716535433},{"duration":0.1875,"midi":33,"time":166.875,"velocity":0.3858267716535433},{"duration":0.1875,"midi":72,"time":166.875,"velocity":0.3858267716535433},{"duration":0.375,"midi":82,"time":167.0625,"velocity":0.3858267716535433},{"duration":0.375,"midi":74,"time":167.0625,"velocity":0.3858267716535433},{"duration":0.5625,"midi":46,"time":167.0625,"velocity":0.3858267716535433},{"duration":0.5625,"midi":34,"time":167.0625,"velocity":0.3858267716535433},{"duration":0.375,"midi":77,"time":167.0625,"velocity":0.3858267716535433},{"duration":0.1875,"midi":89,"time":167.4375,"velocity":0.3858267716535433},{"duration":0.1875,"midi":84,"time":167.4375,"velocity":0.3858267716535433},{"duration":0.1875,"midi":79,"time":167.4375,"velocity":0.3858267716535433},{"duration":0.375,"midi":35,"time":167.625,"velocity":0.3858267716535433},{"duration":0.375,"midi":47,"time":167.625,"velocity":0.3858267716535433},{"duration":0.1875,"midi":88,"time":167.625,"velocity":0.3858267716535433},{"duration":0.1875,"midi":86,"time":167.8125,"velocity":0.3858267716535433},{"duration":0.75,"midi":79,"time":168,"velocity":0.3858267716535433},{"duration":0.375,"midi":36,"time":168,"velocity":0.3858267716535433},{"duration":0.75,"midi":48,"time":168,"velocity":0.3858267716535433},{"duration":0.75,"midi":88,"time":168,"velocity":0.3858267716535433},{"duration":0.75,"midi":84,"time":168,"velocity":0.3858267716535433},{"duration":0.5625,"midi":60,"time":168.2109375,"velocity":0.3858267716535433},{"duration":0.5625,"midi":62,"time":168.234375,"velocity":0.3858267716535433},{"duration":0.46875,"midi":64,"time":168.2578125,"velocity":0.3858267716535433},{"duration":0.46875,"midi":65,"time":168.28125,"velocity":0.3858267716535433},{"duration":0.46875,"midi":67,"time":168.3046875,"velocity":0.3858267716535433},{"duration":0.46875,"midi":69,"time":168.328125,"velocity":0.3858267716535433},{"duration":0.375,"midi":71,"time":168.3515625,"velocity":0.3858267716535433},{"duration":0.375,"midi":59,"time":168.375,"velocity":0.3858267716535433},{"duration":0.375,"midi":36,"time":168.375,"velocity":0.3858267716535433},{"duration":0.375,"midi":72,"time":168.375,"velocity":0.3858267716535433},{"duration":0.375,"midi":59,"time":168.375,"velocity":0.3858267716535433},{"duration":0.375,"midi":74,"time":168.3984375,"velocity":0.3858267716535433},{"duration":0.375,"midi":76,"time":168.421875,"velocity":0.3858267716535433},{"duration":0.28125,"midi":77,"time":168.4453125,"velocity":0.3858267716535433},{"duration":0.1875,"midi":77,"time":168.75,"velocity":0.3858267716535433},{"duration":0.1875,"midi":35,"time":168.9375,"velocity":0.3858267716535433},{"duration":0.1875,"midi":70,"time":168.9375,"velocity":0.3858267716535433},{"duration":0.1875,"midi":66,"time":168.9375,"velocity":0.3858267716535433},{"duration":0.1875,"midi":51,"time":169.125,"velocity":0.3858267716535433},{"duration":0.1875,"midi":78,"time":169.125,"velocity":0.3858267716535433},{"duration":0.1875,"midi":75,"time":169.125,"velocity":0.3858267716535433},{"duration":0.09375,"midi":77,"time":169.3125,"velocity":0.3858267716535433},{"duration":0.1875,"midi":35,"time":169.3125,"velocity":0.3858267716535433},{"duration":0.09375,"midi":78,"time":169.40625,"velocity":0.3858267716535433},{"duration":0.09375,"midi":77,"time":169.5,"velocity":0.3858267716535433},{"duration":0.1875,"midi":51,"time":169.5,"velocity":0.3858267716535433},{"duration":0.09375,"midi":78,"time":169.59375,"velocity":0.3858267716535433},{"duration":0.1875,"midi":37,"time":169.6875,"velocity":0.3858267716535433},{"duration":0.1875,"midi":73,"time":169.6875,"velocity":0.3858267716535433},{"duration":0.1875,"midi":80,"time":169.6875,"velocity":0.3858267716535433},{"duration":0.1875,"midi":78,"time":169.875,"velocity":0.3858267716535433},{"duration":0.1875,"midi":53,"time":169.875,"velocity":0.3858267716535433},{"duration":0.1875,"midi":49,"time":169.875,"velocity":0.3858267716535433},{"duration":0.09375,"midi":77,"time":170.0625,"velocity":0.3858267716535433},{"duration":0.1875,"midi":37,"time":170.0625,"velocity":0.3858267716535433},{"duration":0.09375,"midi":78,"time":170.15625,"velocity":0.3858267716535433},{"duration":0.1875,"midi":49,"time":170.25,"velocity":0.3858267716535433},{"duration":0.09375,"midi":77,"time":170.25,"velocity":0.3858267716535433},{"duration":0.1875,"midi":53,"time":170.25,"velocity":0.3858267716535433},{"duration":0.09375,"midi":73,"time":170.34375,"velocity":0.3858267716535433},{"duration":0.1875,"midi":39,"time":170.4375,"velocity":0.3858267716535433},{"duration":0.1875,"midi":75,"time":170.4375,"velocity":0.3858267716535433},{"duration":0.1875,"midi":82,"time":170.625,"velocity":0.3858267716535433},{"duration":0.1875,"midi":54,"time":170.625,"velocity":0.3858267716535433},{"duration":0.1875,"midi":51,"time":170.625,"velocity":0.3858267716535433},{"duration":0.1875,"midi":78,"time":170.625,"velocity":0.3858267716535433},{"duration":0.09375,"midi":80,"time":170.8125,"velocity":0.3858267716535433},{"duration":0.1875,"midi":39,"time":170.8125,"velocity":0.3858267716535433},{"duration":0.09375,"midi":82,"time":170.90625,"velocity":0.3858267716535433},{"duration":0.09375,"midi":80,"time":171,"velocity":0.3858267716535433},{"duration":0.1875,"midi":54,"time":171,"velocity":0.3858267716535433},{"duration":0.1875,"midi":51,"time":171,"velocity":0.3858267716535433},{"duration":0.09375,"midi":82,"time":171.09375,"velocity":0.3858267716535433},{"duration":0.1875,"midi":85,"time":171.1875,"velocity":0.3858267716535433},{"duration":0.1875,"midi":39,"time":171.1875,"velocity":0.3858267716535433},{"duration":0.1875,"midi":78,"time":171.1875,"velocity":0.3858267716535433},{"duration":0.1875,"midi":54,"time":171.375,"velocity":0.3858267716535433},{"duration":0.1875,"midi":51,"time":171.375,"velocity":0.3858267716535433},{"duration":0.1875,"midi":82,"time":171.375,"velocity":0.3858267716535433},{"duration":0.1875,"midi":80,"time":171.5625,"velocity":0.3858267716535433},{"duration":0.1875,"midi":39,"time":171.5625,"velocity":0.3858267716535433},{"duration":0.1875,"midi":54,"time":171.75,"velocity":0.3858267716535433},{"duration":0.1875,"midi":51,"time":171.75,"velocity":0.3858267716535433},{"duration":0.1875,"midi":82,"time":171.75,"velocity":0.3858267716535433},{"duration":0.1875,"midi":70,"time":171.9375,"velocity":0.3858267716535433},{"duration":0.1875,"midi":66,"time":171.9375,"velocity":0.3858267716535433},{"duration":0.1875,"midi":35,"time":171.9375,"velocity":0.3858267716535433},{"duration":0.1875,"midi":51,"time":172.125,"velocity":0.3858267716535433},{"duration":0.1875,"midi":78,"time":172.125,"velocity":0.3858267716535433},{"duration":0.1875,"midi":75,"time":172.125,"velocity":0.3858267716535433},{"duration":0.1875,"midi":35,"time":172.3125,"velocity":0.3858267716535433},{"duration":0.09375,"midi":77,"time":172.3125,"velocity":0.3858267716535433},{"duration":0.09375,"midi":78,"time":172.40625,"velocity":0.3858267716535433},{"duration":0.09375,"midi":77,"time":172.5,"velocity":0.3858267716535433},{"duration":0.1875,"midi":51,"time":172.5,"velocity":0.3858267716535433},{"duration":0.09375,"midi":78,"time":172.59375,"velocity":0.3858267716535433},{"duration":0.1875,"midi":73,"time":172.6875,"velocity":0.3858267716535433},{"duration":0.1875,"midi":80,"time":172.6875,"velocity":0.3858267716535433},{"duration":0.1875,"midi":37,"time":172.6875,"velocity":0.3858267716535433},{"duration":0.1875,"midi":78,"time":172.875,"velocity":0.3858267716535433},{"duration":0.1875,"midi":49,"time":172.875,"velocity":0.3858267716535433},{"duration":0.1875,"midi":53,"time":172.875,"velocity":0.3858267716535433},{"duration":0.1875,"midi":37,"time":173.0625,"velocity":0.3858267716535433},{"duration":0.09375,"midi":77,"time":173.0625,"velocity":0.3858267716535433},{"duration":0.09375,"midi":78,"time":173.15625,"velocity":0.3858267716535433},{"duration":0.09375,"midi":77,"time":173.25,"velocity":0.3858267716535433},{"duration":0.1875,"midi":53,"time":173.25,"velocity":0.3858267716535433},{"duration":0.1875,"midi":49,"time":173.25,"velocity":0.3858267716535433},{"duration":0.09375,"midi":73,"time":173.34375,"velocity":0.3858267716535433},{"duration":0.1875,"midi":39,"time":173.4375,"velocity":0.3858267716535433},{"duration":0.1875,"midi":75,"time":173.4375,"velocity":0.3858267716535433},{"duration":0.1875,"midi":78,"time":173.625,"velocity":0.3858267716535433},{"duration":0.1875,"midi":82,"time":173.625,"velocity":0.3858267716535433},{"duration":0.1875,"midi":51,"time":173.625,"velocity":0.3858267716535433},{"duration":0.1875,"midi":41,"time":173.8125,"velocity":0.3858267716535433},{"duration":0.09375,"midi":80,"time":173.8125,"velocity":0.3858267716535433},{"duration":0.09375,"midi":82,"time":173.90625,"velocity":0.3858267716535433},{"duration":0.1875,"midi":53,"time":174,"velocity":0.3858267716535433},{"duration":0.09375,"midi":80,"time":174,"velocity":0.3858267716535433},{"duration":0.09375,"midi":82,"time":174.09375,"velocity":0.3858267716535433},{"duration":0.1875,"midi":42,"time":174.1875,"velocity":0.3858267716535433},{"duration":0.1875,"midi":86,"time":174.1875,"velocity":0.3858267716535433},{"duration":0.1875,"midi":78,"time":174.1875,"velocity":0.3858267716535433},{"duration":0.1875,"midi":54,"time":174.375,"velocity":0.3858267716535433},{"duration":0.1875,"midi":82,"time":174.375,"velocity":0.3858267716535433},{"duration":0.1875,"midi":80,"time":174.5625,"velocity":0.3858267716535433},{"duration":0.1875,"midi":44,"time":174.5625,"velocity":0.3858267716535433},{"duration":0.1875,"midi":56,"time":174.75,"velocity":0.3858267716535433},{"duration":0.1875,"midi":82,"time":174.75,"velocity":0.3858267716535433},{"duration":0.1875,"midi":66,"time":174.9375,"velocity":0.3858267716535433},{"duration":0.1875,"midi":70,"time":174.9375,"velocity":0.3858267716535433},{"duration":0.1875,"midi":35,"time":174.9375,"velocity":0.3858267716535433},{"duration":0.1875,"midi":51,"time":175.125,"velocity":0.3858267716535433},{"duration":0.1875,"midi":78,"time":175.125,"velocity":0.3858267716535433},{"duration":0.1875,"midi":75,"time":175.125,"velocity":0.3858267716535433},{"duration":0.1875,"midi":35,"time":175.3125,"velocity":0.3858267716535433},{"duration":0.09375,"midi":77,"time":175.3125,"velocity":0.3858267716535433},{"duration":0.09375,"midi":78,"time":175.40625,"velocity":0.3858267716535433},{"duration":0.09375,"midi":77,"time":175.5,"velocity":0.3858267716535433},{"duration":0.1875,"midi":51,"time":175.5,"velocity":0.3858267716535433},{"duration":0.09375,"midi":78,"time":175.59375,"velocity":0.3858267716535433},{"duration":0.1875,"midi":73,"time":175.6875,"velocity":0.3858267716535433},{"duration":0.1875,"midi":80,"time":175.6875,"velocity":0.3858267716535433},{"duration":0.1875,"midi":37,"time":175.6875,"velocity":0.3858267716535433},{"duration":0.1875,"midi":53,"time":175.875,"velocity":0.3858267716535433},{"duration":0.1875,"midi":49,"time":175.875,"velocity":0.3858267716535433},{"duration":0.1875,"midi":78,"time":175.875,"velocity":0.3858267716535433},{"duration":0.1875,"midi":37,"time":176.0625,"velocity":0.3858267716535433},{"duration":0.09375,"midi":77,"time":176.0625,"velocity":0.3858267716535433},{"duration":0.09375,"midi":78,"time":176.15625,"velocity":0.3858267716535433},{"duration":0.09375,"midi":77,"time":176.25,"velocity":0.3858267716535433},{"duration":0.1875,"midi":53,"time":176.25,"velocity":0.3858267716535433},{"duration":0.1875,"midi":49,"time":176.25,"velocity":0.3858267716535433},{"duration":0.09375,"midi":73,"time":176.34375,"velocity":0.3858267716535433},{"duration":0.1875,"midi":39,"time":176.4375,"velocity":0.3858267716535433},{"duration":0.1875,"midi":75,"time":176.4375,"velocity":0.3858267716535433},{"duration":0.1875,"midi":78,"time":176.625,"velocity":0.3858267716535433},{"duration":0.1875,"midi":54,"time":176.625,"velocity":0.3858267716535433},{"duration":0.1875,"midi":51,"time":176.625,"velocity":0.3858267716535433},{"duration":0.1875,"midi":82,"time":176.625,"velocity":0.3858267716535433},{"duration":0.1875,"midi":39,"time":176.8125,"velocity":0.3858267716535433},{"duration":0.09375,"midi":80,"time":176.8125,"velocity":0.3858267716535433},{"duration":0.09375,"midi":82,"time":176.90625,"velocity":0.3858267716535433},{"duration":0.09375,"midi":80,"time":177,"velocity":0.3858267716535433},{"duration":0.1875,"midi":54,"time":177,"velocity":0.3858267716535433},{"duration":0.1875,"midi":51,"time":177,"velocity":0.3858267716535433},{"duration":0.09375,"midi":82,"time":177.09375,"velocity":0.3858267716535433},{"duration":0.1875,"midi":78,"time":177.1875,"velocity":0.3858267716535433},{"duration":0.1875,"midi":85,"time":177.1875,"velocity":0.3858267716535433},{"duration":0.1875,"midi":39,"time":177.1875,"velocity":0.3858267716535433},{"duration":0.1875,"midi":54,"time":177.375,"velocity":0.3858267716535433},{"duration":0.1875,"midi":51,"time":177.375,"velocity":0.3858267716535433},{"duration":0.1875,"midi":82,"time":177.375,"velocity":0.3858267716535433},{"duration":0.1875,"midi":39,"time":177.5625,"velocity":0.3858267716535433},{"duration":0.1875,"midi":78,"time":177.5625,"velocity":0.3858267716535433},{"duration":0.1875,"midi":79,"time":177.75,"velocity":0.3858267716535433},{"duration":0.1875,"midi":54,"time":177.75,"velocity":0.3858267716535433},{"duration":0.1875,"midi":51,"time":177.75,"velocity":0.3858267716535433},{"duration":0.1875,"midi":75,"time":177.9375,"velocity":0.3858267716535433},{"duration":0.1875,"midi":80,"time":177.9375,"velocity":0.3858267716535433},{"duration":0.1875,"midi":32,"time":177.9375,"velocity":0.3858267716535433},{"duration":0.1875,"midi":47,"time":178.125,"velocity":0.3858267716535433},{"duration":0.1875,"midi":44,"time":178.125,"velocity":0.3858267716535433},{"duration":0.09375,"midi":71,"time":178.125,"velocity":0.3858267716535433},{"duration":0.09375,"midi":75,"time":178.21875,"velocity":0.3858267716535433},{"duration":0.09375,"midi":80,"time":178.21875,"velocity":0.3858267716535433},{"duration":0.1875,"midi":71,"time":178.3125,"velocity":0.3858267716535433},{"duration":0.1875,"midi":32,"time":178.3125,"velocity":0.3858267716535433},{"duration":0.1875,"midi":47,"time":178.5,"velocity":0.3858267716535433},{"duration":0.1875,"midi":44,"time":178.5,"velocity":0.3858267716535433},{"duration":0.1875,"midi":80,"time":178.5,"velocity":0.3858267716535433},{"duration":0.1875,"midi":75,"time":178.5,"velocity":0.3858267716535433},{"duration":0.1875,"midi":77,"time":178.6875,"velocity":0.3858267716535433},{"duration":0.1875,"midi":34,"time":178.6875,"velocity":0.3858267716535433},{"duration":0.1875,"midi":82,"time":178.6875,"velocity":0.3858267716535433},{"duration":0.1875,"midi":46,"time":178.875,"velocity":0.3858267716535433},{"duration":0.1875,"midi":49,"time":178.875,"velocity":0.3858267716535433},{"duration":0.09375,"midi":73,"time":178.875,"velocity":0.3858267716535433},{"duration":0.09375,"midi":77,"time":178.96875,"velocity":0.3858267716535433},{"duration":0.09375,"midi":82,"time":178.96875,"velocity":0.3858267716535433},{"duration":0.1875,"midi":34,"time":179.0625,"velocity":0.3858267716535433},{"duration":0.1875,"midi":73,"time":179.0625,"velocity":0.3858267716535433},{"duration":0.1875,"midi":77,"time":179.25,"velocity":0.3858267716535433},{"duration":0.1875,"midi":82,"time":179.25,"velocity":0.3858267716535433},{"duration":0.1875,"midi":46,"time":179.25,"velocity":0.3858267716535433},{"duration":0.1875,"midi":49,"time":179.25,"velocity":0.3858267716535433},{"duration":0.1875,"midi":78,"time":179.4375,"velocity":0.3858267716535433},{"duration":0.1875,"midi":35,"time":179.4375,"velocity":0.3858267716535433},{"duration":0.1875,"midi":83,"time":179.4375,"velocity":0.3858267716535433},{"duration":0.1875,"midi":75,"time":179.625,"velocity":0.3858267716535433},{"duration":0.1875,"midi":51,"time":179.625,"velocity":0.3858267716535433},{"duration":0.1875,"midi":84,"time":179.8125,"velocity":0.3858267716535433},{"duration":0.1875,"midi":35,"time":179.8125,"velocity":0.3858267716535433},{"duration":0.1875,"midi":78,"time":179.8125,"velocity":0.3858267716535433},{"duration":0.1875,"midi":51,"time":180,"velocity":0.3858267716535433},{"duration":0.1875,"midi":75,"time":180,"velocity":0.3858267716535433},{"duration":0.75,"midi":80,"time":180.1875,"velocity":0.3858267716535433},{"duration":0.75,"midi":77,"time":180.1875,"velocity":0.3858267716535433},{"duration":0.75,"midi":85,"time":180.1875,"velocity":0.3858267716535433},{"duration":0.1875,"midi":37,"time":180.1875,"velocity":0.3858267716535433},{"duration":0.1875,"midi":53,"time":180.375,"velocity":0.3858267716535433},{"duration":0.1875,"midi":49,"time":180.375,"velocity":0.3858267716535433},{"duration":0.1875,"midi":37,"time":180.5625,"velocity":0.3858267716535433},{"duration":0.1875,"midi":49,"time":180.75,"velocity":0.3858267716535433},{"duration":0.1875,"midi":53,"time":180.75,"velocity":0.3858267716535433},{"duration":0.1875,"midi":35,"time":180.9375,"velocity":0.3858267716535433},{"duration":0.1875,"midi":70,"time":180.9375,"velocity":0.3858267716535433},{"duration":0.1875,"midi":66,"time":180.9375,"velocity":0.3858267716535433},{"duration":0.1875,"midi":78,"time":181.125,"velocity":0.3858267716535433},{"duration":0.1875,"midi":75,"time":181.125,"velocity":0.3858267716535433},{"duration":0.1875,"midi":51,"time":181.125,"velocity":0.3858267716535433},{"duration":0.1875,"midi":35,"time":181.3125,"velocity":0.3858267716535433},{"duration":0.09375,"midi":77,"time":181.3125,"velocity":0.3858267716535433},{"duration":0.09375,"midi":78,"time":181.40625,"velocity":0.3858267716535433},{"duration":0.1875,"midi":51,"time":181.5,"velocity":0.3858267716535433},{"duration":0.09375,"midi":77,"time":181.5,"velocity":0.3858267716535433},{"duration":0.09375,"midi":78,"time":181.59375,"velocity":0.3858267716535433},{"duration":0.1875,"midi":37,"time":181.6875,"velocity":0.3858267716535433},{"duration":0.1875,"midi":80,"time":181.6875,"velocity":0.3858267716535433},{"duration":0.1875,"midi":73,"time":181.6875,"velocity":0.3858267716535433},{"duration":0.1875,"midi":53,"time":181.875,"velocity":0.3858267716535433},{"duration":0.1875,"midi":49,"time":181.875,"velocity":0.3858267716535433},{"duration":0.1875,"midi":78,"time":181.875,"velocity":0.3858267716535433},{"duration":0.1875,"midi":37,"time":182.0625,"velocity":0.3858267716535433},{"duration":0.09375,"midi":77,"time":182.0625,"velocity":0.3858267716535433},{"duration":0.09375,"midi":78,"time":182.15625,"velocity":0.3858267716535433},{"duration":0.1875,"midi":49,"time":182.25,"velocity":0.3858267716535433},{"duration":0.1875,"midi":53,"time":182.25,"velocity":0.3858267716535433},{"duration":0.09375,"midi":77,"time":182.25,"velocity":0.3858267716535433},{"duration":0.09375,"midi":73,"time":182.34375,"velocity":0.3858267716535433},{"duration":0.1875,"midi":75,"time":182.4375,"velocity":0.3858267716535433},{"duration":0.1875,"midi":39,"time":182.4375,"velocity":0.3858267716535433},{"duration":0.1875,"midi":54,"time":182.625,"velocity":0.3858267716535433},{"duration":0.1875,"midi":51,"time":182.625,"velocity":0.3858267716535433},{"duration":0.1875,"midi":82,"time":182.625,"velocity":0.3858267716535433},{"duration":0.1875,"midi":78,"time":182.625,"velocity":0.3858267716535433},{"duration":0.1875,"midi":39,"time":182.8125,"velocity":0.3858267716535433},{"duration":0.09375,"midi":80,"time":182.8125,"velocity":0.3858267716535433},{"duration":0.09375,"midi":82,"time":182.90625,"velocity":0.3858267716535433},{"duration":0.09375,"midi":80,"time":183,"velocity":0.3858267716535433},{"duration":0.1875,"midi":54,"time":183,"velocity":0.3858267716535433},{"duration":0.1875,"midi":51,"time":183,"velocity":0.3858267716535433},{"duration":0.09375,"midi":82,"time":183.09375,"velocity":0.3858267716535433},{"duration":0.1875,"midi":85,"time":183.1875,"velocity":0.3858267716535433},{"duration":0.1875,"midi":78,"time":183.1875,"velocity":0.3858267716535433},{"duration":0.1875,"midi":39,"time":183.1875,"velocity":0.3858267716535433},{"duration":0.1875,"midi":54,"time":183.375,"velocity":0.3858267716535433},{"duration":0.1875,"midi":51,"time":183.375,"velocity":0.3858267716535433},{"duration":0.1875,"midi":82,"time":183.375,"velocity":0.3858267716535433},{"duration":0.1875,"midi":80,"time":183.5625,"velocity":0.3858267716535433},{"duration":0.1875,"midi":39,"time":183.5625,"velocity":0.3858267716535433},{"duration":0.1875,"midi":54,"time":183.75,"velocity":0.3858267716535433},{"duration":0.1875,"midi":51,"time":183.75,"velocity":0.3858267716535433},{"duration":0.1875,"midi":82,"time":183.75,"velocity":0.3858267716535433},{"duration":0.1875,"midi":70,"time":183.9375,"velocity":0.3858267716535433},{"duration":0.1875,"midi":35,"time":183.9375,"velocity":0.3858267716535433},{"duration":0.1875,"midi":66,"time":183.9375,"velocity":0.3858267716535433},{"duration":0.1875,"midi":75,"time":184.125,"velocity":0.3858267716535433},{"duration":0.1875,"midi":51,"time":184.125,"velocity":0.3858267716535433},{"duration":0.1875,"midi":78,"time":184.125,"velocity":0.3858267716535433},{"duration":0.1875,"midi":35,"time":184.3125,"velocity":0.3858267716535433},{"duration":0.09375,"midi":77,"time":184.3125,"velocity":0.3858267716535433},{"duration":0.09375,"midi":78,"time":184.40625,"velocity":0.3858267716535433},{"duration":0.09375,"midi":77,"time":184.5,"velocity":0.3858267716535433},{"duration":0.1875,"midi":51,"time":184.5,"velocity":0.3858267716535433},{"duration":0.09375,"midi":78,"time":184.59375,"velocity":0.3858267716535433},{"duration":0.1875,"midi":37,"time":184.6875,"velocity":0.3858267716535433},{"duration":0.1875,"midi":80,"time":184.6875,"velocity":0.3858267716535433},{"duration":0.1875,"midi":73,"time":184.6875,"velocity":0.3858267716535433},{"duration":0.1875,"midi":78,"time":184.875,"velocity":0.3858267716535433},{"duration":0.1875,"midi":53,"time":184.875,"velocity":0.3858267716535433},{"duration":0.1875,"midi":49,"time":184.875,"velocity":0.3858267716535433},{"duration":0.09375,"midi":77,"time":185.0625,"velocity":0.3858267716535433},{"duration":0.1875,"midi":37,"time":185.0625,"velocity":0.3858267716535433},{"duration":0.09375,"midi":78,"time":185.15625,"velocity":0.3858267716535433},{"duration":0.09375,"midi":77,"time":185.25,"velocity":0.3858267716535433},{"duration":0.1875,"midi":53,"time":185.25,"velocity":0.3858267716535433},{"duration":0.1875,"midi":49,"time":185.25,"velocity":0.3858267716535433},{"duration":0.09375,"midi":73,"time":185.34375,"velocity":0.3858267716535433},{"duration":0.1875,"midi":39,"time":185.4375,"velocity":0.3858267716535433},{"duration":0.1875,"midi":75,"time":185.4375,"velocity":0.3858267716535433},{"duration":0.1875,"midi":78,"time":185.625,"velocity":0.3858267716535433},{"duration":0.1875,"midi":51,"time":185.625,"velocity":0.3858267716535433},{"duration":0.1875,"midi":82,"time":185.625,"velocity":0.3858267716535433},{"duration":0.09375,"midi":80,"time":185.8125,"velocity":0.3858267716535433},{"duration":0.1875,"midi":41,"time":185.8125,"velocity":0.3858267716535433},{"duration":0.09375,"midi":82,"time":185.90625,"velocity":0.3858267716535433},{"duration":0.1875,"midi":53,"time":186,"velocity":0.3858267716535433},{"duration":0.09375,"midi":80,"time":186,"velocity":0.3858267716535433},{"duration":0.09375,"midi":82,"time":186.09375,"velocity":0.3858267716535433},{"duration":0.1875,"midi":42,"time":186.1875,"velocity":0.3858267716535433},{"duration":0.1875,"midi":86,"time":186.1875,"velocity":0.3858267716535433},{"duration":0.1875,"midi":78,"time":186.1875,"velocity":0.3858267716535433},{"duration":0.1875,"midi":82,"time":186.375,"velocity":0.3858267716535433},{"duration":0.1875,"midi":54,"time":186.375,"velocity":0.3858267716535433},{"duration":0.1875,"midi":44,"time":186.5625,"velocity":0.3858267716535433},{"duration":0.1875,"midi":86,"time":186.5625,"velocity":0.3858267716535433},{"duration":0.1875,"midi":89,"time":186.75,"velocity":0.3858267716535433},{"duration":0.1875,"midi":56,"time":186.75,"velocity":0.3858267716535433},{"duration":0.1875,"midi":35,"time":186.9375,"velocity":0.3858267716535433},{"duration":0.5625,"midi":87,"time":186.9375,"velocity":0.3858267716535433},{"duration":0.5625,"midi":78,"time":186.9375,"velocity":0.3858267716535433},{"duration":0.1875,"midi":51,"time":187.125,"velocity":0.3858267716535433},{"duration":0.1875,"midi":35,"time":187.3125,"velocity":0.3858267716535433},{"duration":0.1875,"midi":87,"time":187.5,"velocity":0.3858267716535433},{"duration":0.1875,"midi":78,"time":187.5,"velocity":0.3858267716535433},{"duration":0.1875,"midi":51,"time":187.5,"velocity":0.3858267716535433},{"duration":0.1875,"midi":78,"time":187.6875,"velocity":0.3858267716535433},{"duration":0.1875,"midi":37,"time":187.6875,"velocity":0.3858267716535433},{"duration":0.1875,"midi":87,"time":187.6875,"velocity":0.3858267716535433},{"duration":0.375,"midi":77,"time":187.875,"velocity":0.3858267716535433},{"duration":0.375,"midi":85,"time":187.875,"velocity":0.3858267716535433},{"duration":0.1875,"midi":53,"time":187.875,"velocity":0.3858267716535433},{"duration":0.1875,"midi":49,"time":187.875,"velocity":0.3858267716535433},{"duration":0.1875,"midi":37,"time":188.0625,"velocity":0.3858267716535433},{"duration":0.375,"midi":78,"time":188.25,"velocity":0.3858267716535433},{"duration":0.375,"midi":87,"time":188.25,"velocity":0.3858267716535433},{"duration":0.1875,"midi":53,"time":188.25,"velocity":0.3858267716535433},{"duration":0.1875,"midi":49,"time":188.25,"velocity":0.3858267716535433},{"duration":0.1875,"midi":39,"time":188.4375,"velocity":0.3858267716535433},{"duration":0.1875,"midi":54,"time":188.625,"velocity":0.3858267716535433},{"duration":0.1875,"midi":51,"time":188.625,"velocity":0.3858267716535433},{"duration":0.1875,"midi":87,"time":188.625,"velocity":0.3858267716535433},{"duration":0.1875,"midi":78,"time":188.625,"velocity":0.3858267716535433},{"duration":0.375,"midi":77,"time":188.8125,"velocity":0.3858267716535433},{"duration":0.375,"midi":85,"time":188.8125,"velocity":0.3858267716535433},{"duration":0.1875,"midi":39,"time":188.8125,"velocity":0.3858267716535433},{"duration":0.1875,"midi":54,"time":189,"velocity":0.3858267716535433},{"duration":0.1875,"midi":51,"time":189,"velocity":0.3858267716535433},{"duration":0.1875,"midi":39,"time":189.1875,"velocity":0.3858267716535433},{"duration":0.09375,"midi":82,"time":189.1875,"velocity":0.3858267716535433},{"duration":0.09375,"midi":85,"time":189.28125,"velocity":0.3858267716535433},{"duration":0.1875,"midi":51,"time":189.375,"velocity":0.3858267716535433},{"duration":0.1875,"midi":54,"time":189.375,"velocity":0.3858267716535433},{"duration":0.1875,"midi":82,"time":189.375,"velocity":0.3858267716535433},{"duration":0.1875,"midi":78,"time":189.5625,"velocity":0.3858267716535433},{"duration":0.1875,"midi":39,"time":189.5625,"velocity":0.3858267716535433},{"duration":0.1875,"midi":51,"time":189.75,"velocity":0.3858267716535433},{"duration":0.1875,"midi":79,"time":189.75,"velocity":0.3858267716535433},{"duration":0.1875,"midi":54,"time":189.75,"velocity":0.3858267716535433},{"duration":0.1875,"midi":32,"time":189.9375,"velocity":0.3858267716535433},{"duration":0.1875,"midi":80,"time":189.9375,"velocity":0.3858267716535433},{"duration":0.1875,"midi":75,"time":189.9375,"velocity":0.3858267716535433},{"duration":0.1875,"midi":44,"time":190.125,"velocity":0.3858267716535433},{"duration":0.1875,"midi":47,"time":190.125,"velocity":0.3858267716535433},{"duration":0.09375,"midi":71,"time":190.125,"velocity":0.3858267716535433},{"duration":0.09375,"midi":75,"time":190.21875,"velocity":0.3858267716535433},{"duration":0.09375,"midi":80,"time":190.21875,"velocity":0.3858267716535433},{"duration":0.1875,"midi":32,"time":190.3125,"velocity":0.3858267716535433},{"duration":0.1875,"midi":71,"time":190.3125,"velocity":0.3858267716535433},{"duration":0.1875,"midi":75,"time":190.5,"velocity":0.3858267716535433},{"duration":0.1875,"midi":47,"time":190.5,"velocity":0.3858267716535433},{"duration":0.1875,"midi":44,"time":190.5,"velocity":0.3858267716535433},{"duration":0.1875,"midi":80,"time":190.5,"velocity":0.3858267716535433},{"duration":0.1875,"midi":82,"time":190.6875,"velocity":0.3858267716535433},{"duration":0.1875,"midi":73,"time":190.6875,"velocity":0.3858267716535433},{"duration":0.1875,"midi":34,"time":190.6875,"velocity":0.3858267716535433},{"duration":0.1875,"midi":49,"time":190.875,"velocity":0.3858267716535433},{"duration":0.1875,"midi":90,"time":190.875,"velocity":0.3858267716535433},{"duration":0.1875,"midi":46,"time":190.875,"velocity":0.3858267716535433},{"duration":0.1875,"midi":34,"time":191.0625,"velocity":0.3858267716535433},{"duration":0.1875,"midi":89,"time":191.0625,"velocity":0.3858267716535433},{"duration":0.1875,"midi":49,"time":191.25,"velocity":0.3858267716535433},{"duration":0.1875,"midi":46,"time":191.25,"velocity":0.3858267716535433},{"duration":0.1875,"midi":85,"time":191.25,"velocity":0.3858267716535433},{"duration":1.5,"midi":82,"time":191.4375,"velocity":0.3858267716535433},{"duration":1.5,"midi":78,"time":191.4375,"velocity":0.3858267716535433},{"duration":1.5,"midi":87,"time":191.4375,"velocity":0.3858267716535433},{"duration":0.1875,"midi":39,"time":191.4375,"velocity":0.3858267716535433},{"duration":0.1875,"midi":54,"time":191.625,"velocity":0.3858267716535433},{"duration":0.1875,"midi":51,"time":191.625,"velocity":0.3858267716535433},{"duration":0.1875,"midi":39,"time":191.8125,"velocity":0.3858267716535433},{"duration":0.1875,"midi":51,"time":192,"velocity":0.3858267716535433},{"duration":0.1875,"midi":54,"time":192,"velocity":0.3858267716535433},{"duration":0.1875,"midi":39,"time":192.1875,"velocity":0.3858267716535433},{"duration":0.1875,"midi":51,"time":192.375,"velocity":0.3858267716535433},{"duration":0.1875,"midi":54,"time":192.375,"velocity":0.3858267716535433},{"duration":0.1875,"midi":39,"time":192.5625,"velocity":0.3858267716535433},{"duration":0.1875,"midi":54,"time":192.75,"velocity":0.3858267716535433},{"duration":0.1875,"midi":51,"time":192.75,"velocity":0.3858267716535433},{"duration":0.375,"midi":70,"time":192.9375,"velocity":0.3858267716535433},{"duration":0.1875,"midi":35,"time":192.9375,"velocity":0.3858267716535433},{"duration":0.375,"midi":66,"time":192.9375,"velocity":0.3858267716535433},{"duration":0.1875,"midi":51,"time":193.125,"velocity":0.3858267716535433},{"duration":0.375,"midi":75,"time":193.3125,"velocity":0.3858267716535433},{"duration":0.1875,"midi":35,"time":193.3125,"velocity":0.3858267716535433},{"duration":0.375,"midi":78,"time":193.3125,"velocity":0.3858267716535433},{"duration":0.1875,"midi":51,"time":193.5,"velocity":0.3858267716535433},{"duration":0.1875,"midi":35,"time":193.6875,"velocity":0.3858267716535433},{"duration":0.1875,"midi":77,"time":193.6875,"velocity":0.3858267716535433},{"duration":0.1875,"midi":73,"time":193.6875,"velocity":0.3858267716535433},{"duration":0.375,"midi":78,"time":193.875,"velocity":0.3858267716535433},{"duration":0.375,"midi":75,"time":193.875,"velocity":0.3858267716535433},{"duration":0.1875,"midi":51,"time":193.875,"velocity":0.3858267716535433},{"duration":0.1875,"midi":35,"time":194.0625,"velocity":0.3858267716535433},{"duration":0.5625,"midi":80,"time":194.25,"velocity":0.3858267716535433},{"duration":0.1875,"midi":51,"time":194.25,"velocity":0.3858267716535433},{"duration":0.5625,"midi":77,"time":194.25,"velocity":0.3858267716535433},{"duration":0.1875,"midi":37,"time":194.4375,"velocity":0.3858267716535433},{"duration":0.1875,"midi":49,"time":194.625,"velocity":0.3858267716535433},{"duration":0.1875,"midi":53,"time":194.625,"velocity":0.3858267716535433},{"duration":0.1875,"midi":37,"time":194.8125,"velocity":0.3858267716535433},{"duration":0.375,"midi":78,"time":194.8125,"velocity":0.3858267716535433},{"duration":0.375,"midi":75,"time":194.8125,"velocity":0.3858267716535433},{"duration":0.1875,"midi":53,"time":195,"velocity":0.3858267716535433},{"duration":0.1875,"midi":49,"time":195,"velocity":0.3858267716535433},{"duration":0.375,"midi":77,"time":195.1875,"velocity":0.3858267716535433},{"duration":0.375,"midi":73,"time":195.1875,"velocity":0.3858267716535433},{"duration":0.1875,"midi":37,"time":195.1875,"velocity":0.3858267716535433},{"duration":0.1875,"midi":49,"time":195.375,"velocity":0.3858267716535433},{"duration":0.1875,"midi":53,"time":195.375,"velocity":0.3858267716535433},{"duration":0.1875,"midi":37,"time":195.5625,"velocity":0.3858267716535433},{"duration":0.1875,"midi":73,"time":195.5625,"velocity":0.3858267716535433},{"duration":0.1875,"midi":68,"time":195.5625,"velocity":0.3858267716535433},{"duration":0.1875,"midi":53,"time":195.75,"velocity":0.3858267716535433},{"duration":0.1875,"midi":49,"time":195.75,"velocity":0.3858267716535433},{"duration":0.1875,"midi":74,"time":195.75,"velocity":0.3858267716535433},{"duration":0.1875,"midi":69,"time":195.75,"velocity":0.3858267716535433},{"duration":0.1875,"midi":39,"time":195.9375,"velocity":0.3858267716535433},{"duration":0.375,"midi":75,"time":195.9375,"velocity":0.3858267716535433},{"duration":0.375,"midi":70,"time":195.9375,"velocity":0.3858267716535433},{"duration":0.1875,"midi":51,"time":196.125,"velocity":0.3858267716535433},{"duration":0.1875,"midi":54,"time":196.125,"velocity":0.3858267716535433},{"duration":0.375,"midi":82,"time":196.3125,"velocity":0.3858267716535433},{"duration":0.375,"midi":78,"time":196.3125,"velocity":0.3858267716535433},{"duration":0.1875,"midi":39,"time":196.3125,"velocity":0.3858267716535433},{"duration":0.1875,"midi":54,"time":196.5,"velocity":0.3858267716535433},{"duration":0.1875,"midi":51,"time":196.5,"velocity":0.3858267716535433},{"duration":0.1875,"midi":39,"time":196.6875,"velocity":0.3858267716535433},{"duration":0.1875,"midi":80,"time":196.6875,"velocity":0.3858267716535433},{"duration":0.1875,"midi":77,"time":196.6875,"velocity":0.3858267716535433},{"duration":0.1875,"midi":54,"time":196.875,"velocity":0.3858267716535433},{"duration":0.1875,"midi":51,"time":196.875,"velocity":0.3858267716535433},{"duration":0.375,"midi":82,"time":196.875,"velocity":0.3858267716535433},{"duration":0.375,"midi":78,"time":196.875,"velocity":0.3858267716535433},{"duration":0.1875,"midi":39,"time":197.0625,"velocity":0.3858267716535433},{"duration":0.5625,"midi":82,"time":197.25,"velocity":0.3858267716535433},{"duration":0.1875,"midi":54,"time":197.25,"velocity":0.3858267716535433},{"duration":0.1875,"midi":51,"time":197.25,"velocity":0.3858267716535433},{"duration":0.5625,"midi":85,"time":197.25,"velocity":0.3858267716535433},{"duration":0.1875,"midi":39,"time":197.4375,"velocity":0.3858267716535433},{"duration":0.1875,"midi":54,"time":197.625,"velocity":0.3858267716535433},{"duration":0.1875,"midi":51,"time":197.625,"velocity":0.3858267716535433},{"duration":0.1875,"midi":39,"time":197.8125,"velocity":0.3858267716535433},{"duration":0.375,"midi":83,"time":197.8125,"velocity":0.3858267716535433},{"duration":0.375,"midi":80,"time":197.8125,"velocity":0.3858267716535433},{"duration":0.1875,"midi":51,"time":198,"velocity":0.3858267716535433},{"duration":0.1875,"midi":54,"time":198,"velocity":0.3858267716535433},{"duration":0.375,"midi":82,"time":198.1875,"velocity":0.3858267716535433},{"duration":0.375,"midi":78,"time":198.1875,"velocity":0.3858267716535433},{"duration":0.1875,"midi":37,"time":198.1875,"velocity":0.3858267716535433},{"duration":0.1875,"midi":53,"time":198.375,"velocity":0.3858267716535433},{"duration":0.1875,"midi":49,"time":198.375,"velocity":0.3858267716535433},{"duration":0.1875,"midi":37,"time":198.5625,"velocity":0.3858267716535433},{"duration":0.1875,"midi":80,"time":198.5625,"velocity":0.3858267716535433},{"duration":0.1875,"midi":77,"time":198.5625,"velocity":0.3858267716535433},{"duration":0.1875,"midi":78,"time":198.75,"velocity":0.3858267716535433},{"duration":0.1875,"midi":49,"time":198.75,"velocity":0.3858267716535433},{"duration":0.1875,"midi":75,"time":198.75,"velocity":0.3858267716535433},{"duration":0.1875,"midi":53,"time":198.75,"velocity":0.3858267716535433},{"duration":0.1875,"midi":35,"time":198.9375,"velocity":0.3858267716535433},{"duration":0.75,"midi":78,"time":198.9375,"velocity":0.3858267716535433},{"duration":0.75,"midi":75,"time":198.9375,"velocity":0.3858267716535433},{"duration":0.1875,"midi":51,"time":199.125,"velocity":0.3858267716535433},{"duration":0.1875,"midi":35,"time":199.3125,"velocity":0.3858267716535433},{"duration":0.1875,"midi":51,"time":199.5,"velocity":0.3858267716535433},{"duration":0.1875,"midi":35,"time":199.6875,"velocity":0.3858267716535433},{"duration":0.1875,"midi":77,"time":199.6875,"velocity":0.3858267716535433},{"duration":0.1875,"midi":73,"time":199.6875,"velocity":0.3858267716535433},{"duration":0.375,"midi":78,"time":199.875,"velocity":0.3858267716535433},{"duration":0.1875,"midi":51,"time":199.875,"velocity":0.3858267716535433},{"duration":0.375,"midi":75,"time":199.875,"velocity":0.3858267716535433},{"duration":0.1875,"midi":35,"time":200.0625,"velocity":0.3858267716535433},{"duration":0.5625,"midi":80,"time":200.25,"velocity":0.3858267716535433},{"duration":0.5625,"midi":77,"time":200.25,"velocity":0.3858267716535433},{"duration":0.1875,"midi":51,"time":200.25,"velocity":0.3858267716535433},{"duration":0.1875,"midi":37,"time":200.4375,"velocity":0.3858267716535433},{"duration":0.1875,"midi":53,"time":200.625,"velocity":0.3858267716535433},{"duration":0.1875,"midi":49,"time":200.625,"velocity":0.3858267716535433},{"duration":0.375,"midi":75,"time":200.8125,"velocity":0.3858267716535433},{"duration":0.375,"midi":78,"time":200.8125,"velocity":0.3858267716535433},{"duration":0.1875,"midi":37,"time":200.8125,"velocity":0.3858267716535433},{"duration":0.1875,"midi":53,"time":201,"velocity":0.3858267716535433},{"duration":0.1875,"midi":49,"time":201,"velocity":0.3858267716535433},{"duration":0.1875,"midi":37,"time":201.1875,"velocity":0.3858267716535433},{"duration":0.375,"midi":77,"time":201.1875,"velocity":0.3858267716535433},{"duration":0.375,"midi":73,"time":201.1875,"velocity":0.3858267716535433},{"duration":0.1875,"midi":53,"time":201.375,"velocity":0.3858267716535433},{"duration":0.1875,"midi":49,"time":201.375,"velocity":0.3858267716535433},{"duration":0.1875,"midi":68,"time":201.5625,"velocity":0.3858267716535433},{"duration":0.1875,"midi":37,"time":201.5625,"velocity":0.3858267716535433},{"duration":0.1875,"midi":73,"time":201.5625,"velocity":0.3858267716535433},{"duration":0.1875,"midi":49,"time":201.75,"velocity":0.3858267716535433},{"duration":0.1875,"midi":53,"time":201.75,"velocity":0.3858267716535433},{"duration":0.1875,"midi":69,"time":201.75,"velocity":0.3858267716535433},{"duration":0.1875,"midi":74,"time":201.75,"velocity":0.3858267716535433},{"duration":0.1875,"midi":70,"time":201.9375,"velocity":0.3858267716535433},{"duration":0.1875,"midi":39,"time":201.9375,"velocity":0.3858267716535433},{"duration":0.1875,"midi":75,"time":201.9375,"velocity":0.3858267716535433},{"duration":0.1875,"midi":73,"time":202.125,"velocity":0.3858267716535433},{"duration":0.1875,"midi":51,"time":202.125,"velocity":0.3858267716535433},{"duration":0.1875,"midi":54,"time":202.125,"velocity":0.3858267716535433},{"duration":0.1875,"midi":73,"time":202.3125,"velocity":0.3858267716535433},{"duration":0.1875,"midi":39,"time":202.3125,"velocity":0.3858267716535433},{"duration":0.1875,"midi":77,"time":202.3125,"velocity":0.3858267716535433},{"duration":0.375,"midi":78,"time":202.5,"velocity":0.3858267716535433},{"duration":0.1875,"midi":51,"time":202.5,"velocity":0.3858267716535433},{"duration":0.1875,"midi":54,"time":202.5,"velocity":0.3858267716535433},{"duration":0.1875,"midi":39,"time":202.6875,"velocity":0.3858267716535433},{"duration":0.1875,"midi":73,"time":202.875,"velocity":0.3858267716535433},{"duration":0.1875,"midi":54,"time":202.875,"velocity":0.3858267716535433},{"duration":0.1875,"midi":51,"time":202.875,"velocity":0.3858267716535433},{"duration":0.1875,"midi":80,"time":203.0625,"velocity":0.3858267716535433},{"duration":0.1875,"midi":39,"time":203.0625,"velocity":0.3858267716535433},{"duration":0.375,"midi":82,"time":203.25,"velocity":0.3858267716535433},{"duration":0.1875,"midi":54,"time":203.25,"velocity":0.3858267716535433},{"duration":0.1875,"midi":51,"time":203.25,"velocity":0.3858267716535433},{"duration":0.1875,"midi":39,"time":203.4375,"velocity":0.3858267716535433},{"duration":0.1875,"midi":54,"time":203.625,"velocity":0.3858267716535433},{"duration":0.1875,"midi":85,"time":203.625,"velocity":0.3858267716535433},{"duration":0.1875,"midi":51,"time":203.625,"velocity":0.3858267716535433},{"duration":0.1875,"midi":39,"time":203.8125,"velocity":0.3858267716535433},{"duration":0.1875,"midi":87,"time":203.8125,"velocity":0.3858267716535433},{"duration":0.1875,"midi":51,"time":204,"velocity":0.3858267716535433},{"duration":0.1875,"midi":90,"time":204,"velocity":0.3858267716535433},{"duration":0.1875,"midi":54,"time":204,"velocity":0.3858267716535433},{"duration":0.1875,"midi":37,"time":204.1875,"velocity":0.3858267716535433},{"duration":0.1875,"midi":89,"time":204.1875,"velocity":0.3858267716535433},{"duration":0.1875,"midi":80,"time":204.1875,"velocity":0.3858267716535433},{"duration":0.1875,"midi":53,"time":204.375,"velocity":0.3858267716535433},{"duration":0.1875,"midi":49,"time":204.375,"velocity":0.3858267716535433},{"duration":0.1875,"midi":87,"time":204.375,"velocity":0.3858267716535433},{"duration":0.1875,"midi":37,"time":204.5625,"velocity":0.3858267716535433},{"duration":0.375,"midi":85,"time":204.5625,"velocity":0.3858267716535433},{"duration":0.1875,"midi":53,"time":204.75,"velocity":0.3858267716535433},{"duration":0.1875,"midi":49,"time":204.75,"velocity":0.3858267716535433},{"duration":0.375,"midi":87,"time":204.9375,"velocity":0.3858267716535433},{"duration":0.375,"midi":83,"time":204.9375,"velocity":0.3858267716535433},{"duration":0.1875,"midi":35,"time":204.9375,"velocity":0.3858267716535433},{"duration":0.1875,"midi":51,"time":205.125,"velocity":0.3858267716535433},{"duration":0.1875,"midi":35,"time":205.3125,"velocity":0.3858267716535433},{"duration":0.375,"midi":90,"time":205.3125,"velocity":0.3858267716535433},{"duration":0.375,"midi":87,"time":205.3125,"velocity":0.3858267716535433},{"duration":0.1875,"midi":51,"time":205.5,"velocity":0.3858267716535433},{"duration":0.1875,"midi":89,"time":205.6875,"velocity":0.3858267716535433},{"duration":0.1875,"midi":85,"time":205.6875,"velocity":0.3858267716535433},{"duration":0.1875,"midi":35,"time":205.6875,"velocity":0.3858267716535433},{"duration":0.375,"midi":82,"time":205.875,"velocity":0.3858267716535433},{"duration":0.375,"midi":87,"time":205.875,"velocity":0.3858267716535433},{"duration":0.1875,"midi":51,"time":205.875,"velocity":0.3858267716535433},{"duration":0.1875,"midi":35,"time":206.0625,"velocity":0.3858267716535433},{"duration":0.1875,"midi":51,"time":206.25,"velocity":0.3858267716535433},{"duration":1.5,"midi":87,"time":206.25,"velocity":0.3858267716535433},{"duration":1.5,"midi":82,"time":206.25,"velocity":0.3858267716535433},{"duration":0.1875,"midi":37,"time":206.4375,"velocity":0.3858267716535433},{"duration":0.1875,"midi":53,"time":206.625,"velocity":0.3858267716535433},{"duration":0.1875,"midi":49,"time":206.625,"velocity":0.3858267716535433},{"duration":0.1875,"midi":37,"time":206.8125,"velocity":0.3858267716535433},{"duration":0.1875,"midi":49,"time":207,"velocity":0.3858267716535433},{"duration":0.1875,"midi":53,"time":207,"velocity":0.3858267716535433},{"duration":0.1875,"midi":37,"time":207.1875,"velocity":0.3858267716535433},{"duration":0.1875,"midi":49,"time":207.375,"velocity":0.3858267716535433},{"duration":0.1875,"midi":53,"time":207.375,"velocity":0.3858267716535433},{"duration":0.1875,"midi":37,"time":207.5625,"velocity":0.3858267716535433},{"duration":0.5625,"midi":87,"time":207.75,"velocity":0.3858267716535433},{"duration":0.5625,"midi":82,"time":207.75,"velocity":0.3858267716535433},{"duration":0.1875,"midi":53,"time":207.75,"velocity":0.3858267716535433},{"duration":0.1875,"midi":49,"time":207.75,"velocity":0.3858267716535433},{"duration":0.1875,"midi":39,"time":207.9375,"velocity":0.3858267716535433},{"duration":0.1875,"midi":54,"time":208.125,"velocity":0.3858267716535433},{"duration":0.1875,"midi":51,"time":208.125,"velocity":0.3858267716535433},{"duration":0.1875,"midi":39,"time":208.3125,"velocity":0.3858267716535433},{"duration":0.375,"midi":94,"time":208.3125,"velocity":0.3858267716535433},{"duration":0.375,"midi":90,"time":208.3125,"velocity":0.3858267716535433},{"duration":0.1875,"midi":54,"time":208.5,"velocity":0.3858267716535433},{"duration":0.1875,"midi":51,"time":208.5,"velocity":0.3858267716535433},{"duration":0.1875,"midi":89,"time":208.6875,"velocity":0.3858267716535433},{"duration":0.1875,"midi":92,"time":208.6875,"velocity":0.3858267716535433},{"duration":0.1875,"midi":39,"time":208.6875,"velocity":0.3858267716535433},{"duration":0.1875,"midi":54,"time":208.875,"velocity":0.3858267716535433},{"duration":0.1875,"midi":51,"time":208.875,"velocity":0.3858267716535433},{"duration":0.1875,"midi":90,"time":208.875,"velocity":0.3858267716535433},{"duration":0.1875,"midi":87,"time":208.875,"velocity":0.3858267716535433},{"duration":0.1875,"midi":85,"time":209.0625,"velocity":0.3858267716535433},{"duration":0.1875,"midi":39,"time":209.0625,"velocity":0.3858267716535433},{"duration":0.1875,"midi":89,"time":209.0625,"velocity":0.3858267716535433},{"duration":1.5,"midi":90,"time":209.25,"velocity":0.3858267716535433},{"duration":0.1875,"midi":51,"time":209.25,"velocity":0.3858267716535433},{"duration":0.1875,"midi":54,"time":209.25,"velocity":0.3858267716535433},{"duration":1.5,"midi":87,"time":209.25,"velocity":0.3858267716535433},{"duration":0.1875,"midi":39,"time":209.4375,"velocity":0.3858267716535433},{"duration":0.1875,"midi":54,"time":209.625,"velocity":0.3858267716535433},{"duration":0.1875,"midi":51,"time":209.625,"velocity":0.3858267716535433},{"duration":0.1875,"midi":39,"time":209.8125,"velocity":0.3858267716535433},{"duration":0.1875,"midi":54,"time":210,"velocity":0.3858267716535433},{"duration":0.1875,"midi":51,"time":210,"velocity":0.3858267716535433},{"duration":0.1875,"midi":37,"time":210.1875,"velocity":0.3858267716535433},{"duration":0.1875,"midi":49,"time":210.375,"velocity":0.3858267716535433},{"duration":0.1875,"midi":53,"time":210.375,"velocity":0.3858267716535433},{"duration":0.1875,"midi":37,"time":210.5625,"velocity":0.3858267716535433},{"duration":0.5625,"midi":87,"time":210.75,"velocity":0.3858267716535433},{"duration":0.1875,"midi":53,"time":210.75,"velocity":0.3858267716535433},{"duration":0.1875,"midi":49,"time":210.75,"velocity":0.3858267716535433},{"duration":0.5625,"midi":90,"time":210.75,"velocity":0.3858267716535433},{"duration":0.1875,"midi":35,"time":210.9375,"velocity":0.3858267716535433},{"duration":0.1875,"midi":51,"time":211.125,"velocity":0.3858267716535433},{"duration":0.1875,"midi":35,"time":211.3125,"velocity":0.3858267716535433},{"duration":0.375,"midi":89,"time":211.3125,"velocity":0.3858267716535433},{"duration":0.375,"midi":85,"time":211.3125,"velocity":0.3858267716535433},{"duration":0.1875,"midi":51,"time":211.5,"velocity":0.3858267716535433},{"duration":0.1875,"midi":87,"time":211.6875,"velocity":0.3858267716535433},{"duration":0.1875,"midi":35,"time":211.6875,"velocity":0.3858267716535433},{"duration":0.1875,"midi":82,"time":211.6875,"velocity":0.3858267716535433},{"duration":0.375,"midi":89,"time":211.875,"velocity":0.3858267716535433},{"duration":0.375,"midi":85,"time":211.875,"velocity":0.3858267716535433},{"duration":0.1875,"midi":51,"time":211.875,"velocity":0.3858267716535433},{"duration":0.1875,"midi":35,"time":212.0625,"velocity":0.3858267716535433},{"duration":0.1875,"midi":51,"time":212.25,"velocity":0.3858267716535433},{"duration":0.5625,"midi":90,"time":212.25,"velocity":0.3858267716535433},{"duration":0.5625,"midi":87,"time":212.25,"velocity":0.3858267716535433},{"duration":0.1875,"midi":37,"time":212.4375,"velocity":0.3858267716535433},{"duration":0.1875,"midi":53,"time":212.625,"velocity":0.3858267716535433},{"duration":0.1875,"midi":49,"time":212.625,"velocity":0.3858267716535433},{"duration":0.375,"midi":85,"time":212.8125,"velocity":0.3858267716535433},{"duration":0.1875,"midi":37,"time":212.8125,"velocity":0.3858267716535433},{"duration":0.375,"midi":89,"time":212.8125,"velocity":0.3858267716535433},{"duration":0.1875,"midi":53,"time":213,"velocity":0.3858267716535433},{"duration":0.1875,"midi":49,"time":213,"velocity":0.3858267716535433},{"duration":0.1875,"midi":82,"time":213.1875,"velocity":0.3858267716535433},{"duration":0.1875,"midi":37,"time":213.1875,"velocity":0.3858267716535433},{"duration":0.1875,"midi":87,"time":213.1875,"velocity":0.3858267716535433},{"duration":0.1875,"midi":53,"time":213.375,"velocity":0.3858267716535433},{"duration":0.1875,"midi":49,"time":213.375,"velocity":0.3858267716535433},{"duration":0.375,"midi":85,"time":213.375,"velocity":0.3858267716535433},{"duration":0.375,"midi":89,"time":213.375,"velocity":0.3858267716535433},{"duration":0.1875,"midi":37,"time":213.5625,"velocity":0.3858267716535433},{"duration":0.9375,"midi":91,"time":213.75,"velocity":0.3858267716535433},{"duration":0.1875,"midi":53,"time":213.75,"velocity":0.3858267716535433},{"duration":0.9375,"midi":82,"time":213.75,"velocity":0.3858267716535433},{"duration":0.9375,"midi":87,"time":213.75,"velocity":0.3858267716535433},{"duration":0.9375,"midi":79,"time":213.75,"velocity":0.3858267716535433},{"duration":0.1875,"midi":49,"time":213.75,"velocity":0.3858267716535433},{"duration":0.375,"midi":27,"time":213.9375,"velocity":0.3858267716535433},{"duration":0.375,"midi":39,"time":213.9375,"velocity":0.3858267716535433},{"duration":4.125,"midi":39,"time":214.3125,"velocity":0.3858267716535433},{"duration":3.9375,"midi":51,"time":214.5,"velocity":0.3858267716535433},{"duration":0.1875,"midi":55,"time":214.6875,"velocity":0.3858267716535433},{"duration":0.09375,"midi":58,"time":214.875,"velocity":0.3858267716535433},{"duration":0.09375,"midi":63,"time":214.96875,"velocity":0.3858267716535433},{"duration":0.28125,"midi":67,"time":215.0625,"velocity":0.3858267716535433},{"duration":0.09375,"midi":67,"time":215.34375,"velocity":0.3858267716535433},{"duration":0.09375,"midi":70,"time":215.4375,"velocity":0.3858267716535433},{"duration":0.09375,"midi":75,"time":215.53125,"velocity":0.3858267716535433},{"duration":0.1875,"midi":79,"time":215.625,"velocity":0.3858267716535433},{"duration":0.09375,"midi":79,"time":215.8125,"velocity":0.3858267716535433},{"duration":0.09375,"midi":82,"time":215.90625,"velocity":0.3858267716535433},{"duration":0.09375,"midi":87,"time":216,"velocity":0.3858267716535433},{"duration":0.28125,"midi":91,"time":216.09375,"velocity":0.3858267716535433},{"duration":0.09375,"midi":91,"time":216.375,"velocity":0.3858267716535433},{"duration":0.09375,"midi":94,"time":216.46875,"velocity":0.3858267716535433},{"duration":0.09375,"midi":87,"time":216.5625,"velocity":0.3858267716535433},{"duration":1.78125,"midi":91,"time":216.65625,"velocity":0.3858267716535433},{"duration":0.1875,"midi":81,"time":219.5625,"velocity":0.3858267716535433},{"duration":0.9375,"midi":76,"time":219.75,"velocity":0.3858267716535433},{"duration":0.1875,"midi":82,"time":219.75,"velocity":0.3858267716535433},{"duration":0.1875,"midi":83,"time":219.9375,"velocity":0.3858267716535433},{"duration":0.75,"midi":79,"time":219.9375,"velocity":0.3858267716535433},{"duration":0.1875,"midi":91,"time":220.125,"velocity":0.3858267716535433},{"duration":0.09375,"midi":90,"time":220.3125,"velocity":0.3858267716535433},{"duration":0.09375,"midi":91,"time":220.40625,"velocity":0.3858267716535433},{"duration":0.1875,"midi":90,"time":220.5,"velocity":0.3858267716535433},{"duration":0.75,"midi":74,"time":220.6875,"velocity":0.3858267716535433},{"duration":0.75,"midi":81,"time":220.6875,"velocity":0.3858267716535433},{"duration":0.75,"midi":78,"time":220.6875,"velocity":0.3858267716535433},{"duration":0.1875,"midi":93,"time":220.6875,"velocity":0.3858267716535433},{"duration":0.1875,"midi":91,"time":220.875,"velocity":0.3858267716535433},{"duration":0.09375,"midi":90,"time":221.0625,"velocity":0.3858267716535433},{"duration":0.09375,"midi":91,"time":221.15625,"velocity":0.3858267716535433},{"duration":0.09375,"midi":90,"time":221.25,"velocity":0.3858267716535433},{"duration":0.09375,"midi":86,"time":221.34375,"velocity":0.3858267716535433},{"duration":0.75,"midi":76,"time":221.4375,"velocity":0.3858267716535433},{"duration":0.75,"midi":73,"time":221.4375,"velocity":0.3858267716535433},{"duration":0.75,"midi":79,"time":221.4375,"velocity":0.3858267716535433},{"duration":0.1875,"midi":88,"time":221.4375,"velocity":0.3858267716535433},{"duration":0.1875,"midi":95,"time":221.625,"velocity":0.3858267716535433},{"duration":0.09375,"midi":93,"time":221.8125,"velocity":0.3858267716535433},{"duration":0.09375,"midi":95,"time":221.90625,"velocity":0.3858267716535433},{"duration":0.09375,"midi":93,"time":222,"velocity":0.3858267716535433},{"duration":0.09375,"midi":95,"time":222.09375,"velocity":0.3858267716535433},{"duration":0.75,"midi":79,"time":222.1875,"velocity":0.3858267716535433},{"duration":0.75,"midi":76,"time":222.1875,"velocity":0.3858267716535433},{"duration":0.1875,"midi":86,"time":222.1875,"velocity":0.3858267716535433},{"duration":0.75,"midi":72,"time":222.1875,"velocity":0.3858267716535433},{"duration":0.1875,"midi":95,"time":222.375,"velocity":0.3858267716535433},{"duration":0.1875,"midi":93,"time":222.5625,"velocity":0.3858267716535433},{"duration":0.1875,"midi":95,"time":222.75,"velocity":0.3858267716535433},{"duration":0.75,"midi":76,"time":222.9375,"velocity":0.3858267716535433},{"duration":0.1875,"midi":69,"time":222.9375,"velocity":0.3858267716535433},{"duration":0.75,"midi":69,"time":222.9375,"velocity":0.3858267716535433},{"duration":0.1875,"midi":83,"time":222.9375,"velocity":0.3858267716535433},{"duration":0.75,"midi":72,"time":222.9375,"velocity":0.3858267716535433},{"duration":0.1875,"midi":91,"time":223.125,"velocity":0.3858267716535433},{"duration":0.09375,"midi":90,"time":223.3125,"velocity":0.3858267716535433},{"duration":0.09375,"midi":91,"time":223.40625,"velocity":0.3858267716535433},{"duration":0.1875,"midi":90,"time":223.5,"velocity":0.3858267716535433},{"duration":0.75,"midi":74,"time":223.6875,"velocity":0.3858267716535433},{"duration":0.75,"midi":78,"time":223.6875,"velocity":0.3858267716535433},{"duration":0.1875,"midi":93,"time":223.6875,"velocity":0.3858267716535433},{"duration":0.75,"midi":71,"time":223.6875,"velocity":0.3858267716535433},{"duration":0.1875,"midi":91,"time":223.875,"velocity":0.3858267716535433},{"duration":0.09375,"midi":90,"time":224.0625,"velocity":0.3858267716535433},{"duration":0.09375,"midi":91,"time":224.15625,"velocity":0.3858267716535433},{"duration":0.09375,"midi":90,"time":224.25,"velocity":0.3858267716535433},{"duration":0.09375,"midi":86,"time":224.34375,"velocity":0.3858267716535433},{"duration":0.75,"midi":79,"time":224.4375,"velocity":0.3858267716535433},{"duration":0.1875,"midi":88,"time":224.4375,"velocity":0.3858267716535433},{"duration":0.75,"midi":72,"time":224.4375,"velocity":0.3858267716535433},{"duration":0.75,"midi":76,"time":224.4375,"velocity":0.3858267716535433},{"duration":0.1875,"midi":95,"time":224.625,"velocity":0.3858267716535433},{"duration":0.09375,"midi":93,"time":224.8125,"velocity":0.3858267716535433},{"duration":0.09375,"midi":95,"time":224.90625,"velocity":0.3858267716535433},{"duration":0.09375,"midi":93,"time":225,"velocity":0.3858267716535433},{"duration":0.09375,"midi":95,"time":225.09375,"velocity":0.3858267716535433},{"duration":2.25,"midi":78,"time":225.1875,"velocity":0.3858267716535433},{"duration":2.25,"midi":74,"time":225.1875,"velocity":0.3858267716535433},{"duration":2.25,"midi":81,"time":225.1875,"velocity":0.3858267716535433},{"duration":0.1875,"midi":90,"time":225.1875,"velocity":0.3858267716535433},{"duration":0.1875,"midi":86,"time":225.1875,"velocity":0.3858267716535433},{"duration":0.1875,"midi":93,"time":225.1875,"velocity":0.3858267716535433},{"duration":2.25,"midi":86,"time":225.1875,"velocity":0.3858267716535433},{"duration":0.1875,"midi":95,"time":225.375,"velocity":0.3858267716535433},{"duration":0.1875,"midi":93,"time":225.5625,"velocity":0.3858267716535433},{"duration":1.6875,"midi":95,"time":225.75,"velocity":0.3858267716535433}]}]}
