{"tracks":[{"instrument":{"family":"guitar","number":24,"name":"acoustic guitar (nylon)"},"notes":[{"duration":0.08571425,"midi":38,"time":0,"velocity":0.3937007874015748},{"duration":0.08571425,"midi":50,"time":0,"velocity":0.3937007874015748},{"duration":0.08571425000000002,"midi":45,"time":0.1714285,"velocity":0.3937007874015748},{"duration":0.08571425000000002,"midi":57,"time":0.1714285,"velocity":0.3937007874015748},{"duration":0.08571425000000002,"midi":53,"time":0.1714285,"velocity":0.3937007874015748},{"duration":0.08571425000000002,"midi":41,"time":0.1714285,"velocity":0.3937007874015748},{"duration":0.08571424999999999,"midi":45,"time":0.5142855000000001,"velocity":0.3937007874015748},{"duration":0.08571424999999999,"midi":41,"time":0.5142855000000001,"velocity":0.3937007874015748},{"duration":0.08571424999999999,"midi":53,"time":0.5142855000000001,"velocity":0.3937007874015748},{"duration":0.08571424999999999,"midi":57,"time":0.5142855000000001,"velocity":0.3937007874015748},{"duration":0.08571424999999999,"midi":38,"time":0.685714,"velocity":0.3937007874015748},{"duration":0.08571424999999999,"midi":50,"time":0.685714,"velocity":0.3937007874015748},{"duration":0.08571424999999999,"midi":57,"time":0.8571425,"velocity":0.3937007874015748},{"duration":0.08571424999999999,"midi":41,"time":0.8571425,"velocity":0.3937007874015748},{"duration":0.08571424999999999,"midi":45,"time":0.8571425,"velocity":0.3937007874015748},{"duration":0.08571424999999999,"midi":53,"time":0.8571425,"velocity":0.3937007874015748},{"duration":0.08571424999999988,"midi":57,"time":1.1999995,"velocity":0.3937007874015748},{"duration":0.08571424999999988,"midi":41,"time":1.1999995,"velocity":0.3937007874015748},{"duration":0.08571424999999988,"midi":45,"time":1.1999995,"velocity":0.3937007874015748},{"duration":0.08571424999999988,"midi":53,"time":1.1999995,"velocity":0.3937007874015748},{"duration":0.0857142500000001,"midi":38,"time":1.371428,"velocity":0.3937007874015748},{"duration":0.0857142500000001,"midi":50,"time":1.371428,"velocity":0.3937007874015748},{"duration":0.0857142500000001,"midi":53,"time":1.5428565,"velocity":0.3937007874015748},{"duration":0.0857142500000001,"midi":45,"time":1.5428565,"velocity":0.3937007874015748},{"duration":0.0857142500000001,"midi":57,"time":1.5428565,"velocity":0.3937007874015748},{"duration":0.0857142500000001,"midi":41,"time":1.5428565,"velocity":0.3937007874015748},{"duration":0.0857142500000001,"midi":57,"time":1.8857135,"velocity":0.3937007874015748},{"duration":0.0857142500000001,"midi":41,"time":1.8857135,"velocity":0.3937007874015748},{"duration":0.0857142500000001,"midi":45,"time":1.8857135,"velocity":0.3937007874015748},{"duration":0.0857142500000001,"midi":53,"time":1.8857135,"velocity":0.3937007874015748},{"duration":0.0857142500000001,"midi":50,"time":2.0571420000000002,"velocity":0.3937007874015748},{"duration":0.0857142500000001,"midi":38,"time":2.0571420000000002,"velocity":0.3937007874015748},{"duration":0.0857142500000001,"midi":53,"time":2.2285705,"velocity":0.3937007874015748},{"duration":0.0857142500000001,"midi":45,"time":2.2285705,"velocity":0.3937007874015748},{"duration":0.0857142500000001,"midi":41,"time":2.2285705,"velocity":0.3937007874015748},{"duration":0.0857142500000001,"midi":57,"time":2.2285705,"velocity":0.3937007874015748},{"duration":0.0857142500000001,"midi":53,"time":2.5714275,"velocity":0.3937007874015748},{"duration":0.0857142500000001,"midi":45,"time":2.5714275,"velocity":0.3937007874015748},{"duration":0.0857142500000001,"midi":41,"time":2.5714275,"velocity":0.3937007874015748},{"duration":0.0857142500000001,"midi":57,"time":2.5714275,"velocity":0.3937007874015748},{"duration":0.0857142500000001,"midi":50,"time":2.742856,"velocity":0.3937007874015748},{"duration":0.0857142500000001,"midi":38,"time":2.742856,"velocity":0.3937007874015748},{"duration":0.08571424999999966,"midi":57,"time":2.9142845000000004,"velocity":0.3937007874015748},{"duration":0.08571424999999966,"midi":45,"time":2.9142845000000004,"velocity":0.3937007874015748},{"duration":0.08571424999999966,"midi":41,"time":2.9142845000000004,"velocity":0.3937007874015748},{"duration":0.08571424999999966,"midi":53,"time":2.9142845000000004,"velocity":0.3937007874015748},{"duration":0.08571424999999966,"midi":41,"time":3.2571415000000004,"velocity":0.3937007874015748},{"duration":0.08571424999999966,"midi":45,"time":3.2571415000000004,"velocity":0.3937007874015748},{"duration":0.08571424999999966,"midi":57,"time":3.2571415000000004,"velocity":0.3937007874015748},{"duration":0.08571424999999966,"midi":53,"time":3.2571415000000004,"velocity":0.3937007874015748},{"duration":0.0857142500000001,"midi":38,"time":3.42857,"velocity":0.3937007874015748},{"duration":0.0857142500000001,"midi":50,"time":3.42857,"velocity":0.3937007874015748},{"duration":0.0857142500000001,"midi":57,"time":3.5999985000000003,"velocity":0.3937007874015748},{"duration":0.0857142500000001,"midi":41,"time":3.5999985000000003,"velocity":0.3937007874015748},{"duration":0.0857142500000001,"midi":45,"time":3.5999985000000003,"velocity":0.3937007874015748},{"duration":0.0857142500000001,"midi":53,"time":3.5999985000000003,"velocity":0.3937007874015748},{"duration":0.08571424999999966,"midi":53,"time":3.9428555000000003,"velocity":0.3937007874015748},{"duration":0.08571424999999966,"midi":57,"time":3.9428555000000003,"velocity":0.3937007874015748},{"duration":0.08571424999999966,"midi":45,"time":3.9428555000000003,"velocity":0.3937007874015748},{"duration":0.08571424999999966,"midi":41,"time":3.9428555000000003,"velocity":0.3937007874015748},{"duration":0.08571424999999966,"midi":38,"time":4.1142840000000005,"velocity":0.3937007874015748},{"duration":0.08571424999999966,"midi":50,"time":4.1142840000000005,"velocity":0.3937007874015748},{"duration":0.08571424999999966,"midi":45,"time":4.285712500000001,"velocity":0.3937007874015748},{"duration":0.08571424999999966,"midi":53,"time":4.285712500000001,"velocity":0.3937007874015748},{"duration":0.08571424999999966,"midi":57,"time":4.285712500000001,"velocity":0.3937007874015748},{"duration":0.08571424999999966,"midi":41,"time":4.285712500000001,"velocity":0.3937007874015748},{"duration":0.08571424999999966,"midi":45,"time":4.6285695,"velocity":0.3937007874015748},{"duration":0.08571424999999966,"midi":41,"time":4.6285695,"velocity":0.3937007874015748},{"duration":0.08571424999999966,"midi":53,"time":4.6285695,"velocity":0.3937007874015748},{"duration":0.08571424999999966,"midi":57,"time":4.6285695,"velocity":0.3937007874015748},{"duration":0.08571424999999966,"midi":50,"time":4.799998,"velocity":0.3937007874015748},{"duration":0.08571424999999966,"midi":38,"time":4.799998,"velocity":0.3937007874015748},{"duration":0.08571424999999966,"midi":45,"time":4.971426500000001,"velocity":0.3937007874015748},{"duration":0.08571424999999966,"midi":41,"time":4.971426500000001,"velocity":0.3937007874015748},{"duration":0.08571424999999966,"midi":57,"time":4.971426500000001,"velocity":0.3937007874015748},{"duration":0.08571424999999966,"midi":53,"time":4.971426500000001,"velocity":0.3937007874015748},{"duration":0.08571425000000055,"midi":41,"time":5.3142835,"velocity":0.3937007874015748},{"duration":0.08571425000000055,"midi":53,"time":5.3142835,"velocity":0.3937007874015748},{"duration":0.08571425000000055,"midi":45,"time":5.3142835,"velocity":0.3937007874015748},{"duration":0.08571425000000055,"midi":57,"time":5.3142835,"velocity":0.3937007874015748},{"duration":0.08571424999999966,"midi":50,"time":5.485712,"velocity":0.3937007874015748},{"duration":0.08571424999999966,"midi":38,"time":5.485712,"velocity":0.3937007874015748},{"duration":0.08571424999999966,"midi":45,"time":5.657140500000001,"velocity":0.3937007874015748},{"duration":0.08571424999999966,"midi":57,"time":5.657140500000001,"velocity":0.3937007874015748},{"duration":0.08571424999999966,"midi":53,"time":5.657140500000001,"velocity":0.3937007874015748},{"duration":0.08571424999999966,"midi":41,"time":5.657140500000001,"velocity":0.3937007874015748},{"duration":0.08571425000000055,"midi":41,"time":5.9999975,"velocity":0.3937007874015748},{"duration":0.08571425000000055,"midi":53,"time":5.9999975,"velocity":0.3937007874015748},{"duration":0.08571425000000055,"midi":57,"time":5.9999975,"velocity":0.3937007874015748},{"duration":0.08571425000000055,"midi":45,"time":5.9999975,"velocity":0.3937007874015748},{"duration":0.08571425000000055,"midi":38,"time":6.171426,"velocity":0.3937007874015748},{"duration":0.08571425000000055,"midi":50,"time":6.171426,"velocity":0.3937007874015748},{"duration":0.08571424999999966,"midi":41,"time":6.3428545000000005,"velocity":0.3937007874015748},{"duration":0.08571424999999966,"midi":57,"time":6.3428545000000005,"velocity":0.3937007874015748},{"duration":0.08571424999999966,"midi":45,"time":6.3428545000000005,"velocity":0.3937007874015748},{"duration":0.08571424999999966,"midi":53,"time":6.3428545000000005,"velocity":0.3937007874015748},{"duration":0.08571425000000055,"midi":53,"time":6.6857115,"velocity":0.3937007874015748},{"duration":0.08571425000000055,"midi":41,"time":6.6857115,"velocity":0.3937007874015748},{"duration":0.08571425000000055,"midi":45,"time":6.6857115,"velocity":0.3937007874015748},{"duration":0.08571425000000055,"midi":57,"time":6.6857115,"velocity":0.3937007874015748},{"duration":0.08571425000000055,"midi":38,"time":6.85714,"velocity":0.3937007874015748},{"duration":0.08571425000000055,"midi":50,"time":6.85714,"velocity":0.3937007874015748},{"duration":0.08571424999999966,"midi":41,"time":7.0285685,"velocity":0.3937007874015748},{"duration":0.08571424999999966,"midi":57,"time":7.0285685,"velocity":0.3937007874015748},{"duration":0.08571424999999966,"midi":53,"time":7.0285685,"velocity":0.3937007874015748},{"duration":0.08571424999999966,"midi":45,"time":7.0285685,"velocity":0.3937007874015748},{"duration":0.08571424999999966,"midi":41,"time":7.371425500000001,"velocity":0.3937007874015748},{"duration":0.08571424999999966,"midi":57,"time":7.371425500000001,"velocity":0.3937007874015748},{"duration":0.08571424999999966,"midi":45,"time":7.371425500000001,"velocity":0.3937007874015748},{"duration":0.08571424999999966,"midi":53,"time":7.371425500000001,"velocity":0.3937007874015748},{"duration":0.08571425000000055,"midi":50,"time":7.542854,"velocity":0.3937007874015748},{"duration":0.08571425000000055,"midi":38,"time":7.542854,"velocity":0.3937007874015748},{"duration":0.08571425000000055,"midi":53,"time":7.7142825,"velocity":0.3937007874015748},{"duration":0.08571425000000055,"midi":57,"time":7.7142825,"velocity":0.3937007874015748},{"duration":0.08571425000000055,"midi":41,"time":7.7142825,"velocity":0.3937007874015748},{"duration":0.08571425000000055,"midi":45,"time":7.7142825,"velocity":0.3937007874015748},{"duration":0.08571425000000055,"midi":41,"time":8.0571395,"velocity":0.3937007874015748},{"duration":0.08571425000000055,"midi":57,"time":8.0571395,"velocity":0.3937007874015748},{"duration":0.08571425000000055,"midi":53,"time":8.0571395,"velocity":0.3937007874015748},{"duration":0.08571425000000055,"midi":45,"time":8.0571395,"velocity":0.3937007874015748},{"duration":0.08571424999999877,"midi":38,"time":8.228568000000001,"velocity":0.3937007874015748},{"duration":0.08571424999999877,"midi":50,"time":8.228568000000001,"velocity":0.3937007874015748},{"duration":0.08571425000000055,"midi":57,"time":8.3999965,"velocity":0.3937007874015748},{"duration":0.08571425000000055,"midi":41,"time":8.3999965,"velocity":0.3937007874015748},{"duration":0.08571425000000055,"midi":53,"time":8.3999965,"velocity":0.3937007874015748},{"duration":0.08571425000000055,"midi":45,"time":8.3999965,"velocity":0.3937007874015748},{"duration":0.08571425000000055,"midi":53,"time":8.7428535,"velocity":0.3937007874015748},{"duration":0.08571425000000055,"midi":57,"time":8.7428535,"velocity":0.3937007874015748},{"duration":0.08571425000000055,"midi":41,"time":8.7428535,"velocity":0.3937007874015748},{"duration":0.08571425000000055,"midi":45,"time":8.7428535,"velocity":0.3937007874015748},{"duration":0.08571425000000055,"midi":38,"time":8.914282,"velocity":0.3937007874015748},{"duration":0.08571425000000055,"midi":50,"time":8.914282,"velocity":0.3937007874015748},{"duration":0.08571424999999877,"midi":53,"time":9.085710500000001,"velocity":0.3937007874015748},{"duration":0.08571424999999877,"midi":45,"time":9.085710500000001,"velocity":0.3937007874015748},{"duration":0.08571424999999877,"midi":57,"time":9.085710500000001,"velocity":0.3937007874015748},{"duration":0.08571424999999877,"midi":41,"time":9.085710500000001,"velocity":0.3937007874015748},{"duration":0.08571425000000055,"midi":53,"time":9.4285675,"velocity":0.3937007874015748},{"duration":0.08571425000000055,"midi":45,"time":9.4285675,"velocity":0.3937007874015748},{"duration":0.08571425000000055,"midi":41,"time":9.4285675,"velocity":0.3937007874015748},{"duration":0.08571425000000055,"midi":57,"time":9.4285675,"velocity":0.3937007874015748},{"duration":0.08571425000000055,"midi":50,"time":9.599996,"velocity":0.3937007874015748},{"duration":0.08571425000000055,"midi":38,"time":9.599996,"velocity":0.3937007874015748},{"duration":0.08571425000000055,"midi":57,"time":9.7714245,"velocity":0.3937007874015748},{"duration":0.08571425000000055,"midi":41,"time":9.7714245,"velocity":0.3937007874015748},{"duration":0.08571425000000055,"midi":45,"time":9.7714245,"velocity":0.3937007874015748},{"duration":0.08571425000000055,"midi":53,"time":9.7714245,"velocity":0.3937007874015748},{"duration":0.08571425000000055,"midi":45,"time":10.1142815,"velocity":0.3937007874015748},{"duration":0.08571425000000055,"midi":53,"time":10.1142815,"velocity":0.3937007874015748},{"duration":0.08571425000000055,"midi":57,"time":10.1142815,"velocity":0.3937007874015748},{"duration":0.08571425000000055,"midi":41,"time":10.1142815,"velocity":0.3937007874015748},{"duration":0.08571425000000055,"midi":50,"time":10.28571,"velocity":0.3937007874015748},{"duration":0.08571425000000055,"midi":38,"time":10.28571,"velocity":0.3937007874015748},{"duration":0.08571425000000055,"midi":57,"time":10.457138500000001,"velocity":0.3937007874015748},{"duration":0.08571425000000055,"midi":53,"time":10.457138500000001,"velocity":0.3937007874015748},{"duration":0.08571425000000055,"midi":45,"time":10.457138500000001,"velocity":0.3937007874015748},{"duration":0.08571425000000055,"midi":41,"time":10.457138500000001,"velocity":0.3937007874015748},{"duration":0.08571424999999877,"midi":43,"time":10.799995500000001,"velocity":0.3937007874015748},{"duration":0.08571424999999877,"midi":55,"time":10.799995500000001,"velocity":0.3937007874015748},{"duration":0.08571424999999877,"midi":48,"time":10.799995500000001,"velocity":0.3937007874015748},{"duration":0.08571424999999877,"midi":60,"time":10.799995500000001,"velocity":0.3937007874015748},{"duration":0.08571425000000055,"midi":50,"time":10.971424,"velocity":0.3937007874015748},{"duration":0.08571425000000055,"midi":62,"time":10.971424,"velocity":0.3937007874015748},{"duration":0.08571425000000055,"midi":69,"time":11.1428525,"velocity":0.3937007874015748},{"duration":0.08571425000000055,"midi":53,"time":11.1428525,"velocity":0.3937007874015748},{"duration":0.08571425000000055,"midi":65,"time":11.1428525,"velocity":0.3937007874015748},{"duration":0.08571425000000055,"midi":57,"time":11.1428525,"velocity":0.3937007874015748},{"duration":0.08571425000000055,"midi":69,"time":11.4857095,"velocity":0.3937007874015748},{"duration":0.08571425000000055,"midi":53,"time":11.4857095,"velocity":0.3937007874015748},{"duration":0.08571425000000055,"midi":57,"time":11.4857095,"velocity":0.3937007874015748},{"duration":0.08571425000000055,"midi":65,"time":11.4857095,"velocity":0.3937007874015748},{"duration":0.08571424999999877,"midi":50,"time":11.657138000000002,"velocity":0.3937007874015748},{"duration":0.08571424999999877,"midi":62,"time":11.657138000000002,"velocity":0.3937007874015748},{"duration":0.08571425000000055,"midi":69,"time":11.8285665,"velocity":0.3937007874015748},{"duration":0.08571425000000055,"midi":65,"time":11.8285665,"velocity":0.3937007874015748},{"duration":0.08571425000000055,"midi":53,"time":11.8285665,"velocity":0.3937007874015748},{"duration":0.08571425000000055,"midi":57,"time":11.8285665,"velocity":0.3937007874015748},{"duration":0.08571424999999877,"midi":53,"time":12.171423500000001,"velocity":0.3937007874015748},{"duration":0.08571424999999877,"midi":65,"time":12.171423500000001,"velocity":0.3937007874015748},{"duration":0.08571424999999877,"midi":57,"time":12.171423500000001,"velocity":0.3937007874015748},{"duration":0.08571424999999877,"midi":69,"time":12.171423500000001,"velocity":0.3937007874015748},{"duration":0.08571425000000055,"midi":62,"time":12.342852,"velocity":0.3937007874015748},{"duration":0.08571425000000055,"midi":50,"time":12.342852,"velocity":0.3937007874015748},{"duration":0.08571424999999877,"midi":69,"time":12.514280500000002,"velocity":0.3937007874015748},{"duration":0.08571424999999877,"midi":65,"time":12.514280500000002,"velocity":0.3937007874015748},{"duration":0.08571424999999877,"midi":53,"time":12.514280500000002,"velocity":0.3937007874015748},{"duration":0.08571424999999877,"midi":57,"time":12.514280500000002,"velocity":0.3937007874015748},{"duration":0.08571425000000055,"midi":69,"time":12.8571375,"velocity":0.3937007874015748},{"duration":0.08571425000000055,"midi":53,"time":12.8571375,"velocity":0.3937007874015748},{"duration":0.08571425000000055,"midi":57,"time":12.8571375,"velocity":0.3937007874015748},{"duration":0.08571425000000055,"midi":65,"time":12.8571375,"velocity":0.3937007874015748},{"duration":0.08571424999999877,"midi":62,"time":13.028566000000001,"velocity":0.3937007874015748},{"duration":0.08571424999999877,"midi":50,"time":13.028566000000001,"velocity":0.3937007874015748},{"duration":0.08571425000000055,"midi":65,"time":13.1999945,"velocity":0.3937007874015748},{"duration":0.08571425000000055,"midi":69,"time":13.1999945,"velocity":0.3937007874015748},{"duration":0.08571425000000055,"midi":57,"time":13.1999945,"velocity":0.3937007874015748},{"duration":0.08571425000000055,"midi":53,"time":13.1999945,"velocity":0.3937007874015748},{"duration":0.08571425000000055,"midi":69,"time":13.542851500000001,"velocity":0.3937007874015748},{"duration":0.08571425000000055,"midi":57,"time":13.542851500000001,"velocity":0.3937007874015748},{"duration":0.08571425000000055,"midi":65,"time":13.542851500000001,"velocity":0.3937007874015748},{"duration":0.08571425000000055,"midi":53,"time":13.542851500000001,"velocity":0.3937007874015748},{"duration":0.08571425000000055,"midi":50,"time":13.71428,"velocity":0.3937007874015748},{"duration":0.08571425000000055,"midi":62,"time":13.71428,"velocity":0.3937007874015748},{"duration":0.08571424999999877,"midi":53,"time":13.885708500000002,"velocity":0.3937007874015748},{"duration":0.08571424999999877,"midi":57,"time":13.885708500000002,"velocity":0.3937007874015748},{"duration":0.08571424999999877,"midi":69,"time":13.885708500000002,"velocity":0.3937007874015748},{"duration":0.08571424999999877,"midi":65,"time":13.885708500000002,"velocity":0.3937007874015748},{"duration":0.08571425000000055,"midi":65,"time":14.2285655,"velocity":0.3937007874015748},{"duration":0.08571425000000055,"midi":57,"time":14.2285655,"velocity":0.3937007874015748},{"duration":0.08571425000000055,"midi":53,"time":14.2285655,"velocity":0.3937007874015748},{"duration":0.08571425000000055,"midi":69,"time":14.2285655,"velocity":0.3937007874015748},{"duration":0.08571425000000055,"midi":50,"time":14.399994000000001,"velocity":0.3937007874015748},{"duration":0.08571425000000055,"midi":62,"time":14.399994000000001,"velocity":0.3937007874015748},{"duration":0.08571425000000055,"midi":57,"time":14.5714225,"velocity":0.3937007874015748},{"duration":0.08571425000000055,"midi":69,"time":14.5714225,"velocity":0.3937007874015748},{"duration":0.08571425000000055,"midi":53,"time":14.5714225,"velocity":0.3937007874015748},{"duration":0.08571425000000055,"midi":65,"time":14.5714225,"velocity":0.3937007874015748},{"duration":0.08571425000000055,"midi":65,"time":14.914279500000001,"velocity":0.3937007874015748},{"duration":0.08571425000000055,"midi":53,"time":14.914279500000001,"velocity":0.3937007874015748},{"duration":0.08571425000000055,"midi":57,"time":14.914279500000001,"velocity":0.3937007874015748},{"duration":0.08571425000000055,"midi":69,"time":14.914279500000001,"velocity":0.3937007874015748},{"duration":0.08571425000000055,"midi":50,"time":15.085708,"velocity":0.3937007874015748},{"duration":0.08571425000000055,"midi":62,"time":15.085708,"velocity":0.3937007874015748},{"duration":0.08571424999999877,"midi":65,"time":15.257136500000001,"velocity":0.3937007874015748},{"duration":0.08571424999999877,"midi":69,"time":15.257136500000001,"velocity":0.3937007874015748},{"duration":0.08571424999999877,"midi":57,"time":15.257136500000001,"velocity":0.3937007874015748},{"duration":0.08571424999999877,"midi":53,"time":15.257136500000001,"velocity":0.3937007874015748},{"duration":0.08571424999999877,"midi":57,"time":15.599993500000002,"velocity":0.3937007874015748},{"duration":0.08571424999999877,"midi":53,"time":15.599993500000002,"velocity":0.3937007874015748},{"duration":0.08571424999999877,"midi":65,"time":15.599993500000002,"velocity":0.3937007874015748},{"duration":0.08571424999999877,"midi":69,"time":15.599993500000002,"velocity":0.3937007874015748},{"duration":0.08571425000000055,"midi":62,"time":15.771422000000001,"velocity":0.3937007874015748},{"duration":0.08571425000000055,"midi":50,"time":15.771422000000001,"velocity":0.3937007874015748},{"duration":0.08571425000000055,"midi":53,"time":15.9428505,"velocity":0.3937007874015748},{"duration":0.08571425000000055,"midi":65,"time":15.9428505,"velocity":0.3937007874015748},{"duration":0.08571425000000055,"midi":57,"time":15.9428505,"velocity":0.3937007874015748},{"duration":0.08571425000000055,"midi":69,"time":15.9428505,"velocity":0.3937007874015748},{"duration":0.08571424999999877,"midi":57,"time":16.2857075,"velocity":0.3937007874015748},{"duration":0.08571424999999877,"midi":53,"time":16.2857075,"velocity":0.3937007874015748},{"duration":0.08571424999999877,"midi":69,"time":16.2857075,"velocity":0.3937007874015748},{"duration":0.08571424999999877,"midi":65,"time":16.2857075,"velocity":0.3937007874015748},{"duration":0.08571424999999877,"midi":62,"time":16.457136000000002,"velocity":0.3937007874015748},{"duration":0.08571424999999877,"midi":50,"time":16.457136000000002,"velocity":0.3937007874015748},{"duration":0.08571425000000232,"midi":57,"time":16.6285645,"velocity":0.3937007874015748},{"duration":0.08571425000000232,"midi":69,"time":16.6285645,"velocity":0.3937007874015748},{"duration":0.08571425000000232,"midi":65,"time":16.6285645,"velocity":0.3937007874015748},{"duration":0.08571425000000232,"midi":53,"time":16.6285645,"velocity":0.3937007874015748},{"duration":0.08571424999999877,"midi":53,"time":16.9714215,"velocity":0.3937007874015748},{"duration":0.08571424999999877,"midi":69,"time":16.9714215,"velocity":0.3937007874015748},{"duration":0.08571424999999877,"midi":57,"time":16.9714215,"velocity":0.3937007874015748},{"duration":0.08571424999999877,"midi":65,"time":16.9714215,"velocity":0.3937007874015748},{"duration":0.08571424999999877,"midi":50,"time":17.142850000000003,"velocity":0.3937007874015748},{"duration":0.08571424999999877,"midi":62,"time":17.142850000000003,"velocity":0.3937007874015748},{"duration":0.08571425000000232,"midi":65,"time":17.3142785,"velocity":0.3937007874015748},{"duration":0.08571425000000232,"midi":57,"time":17.3142785,"velocity":0.3937007874015748},{"duration":0.08571425000000232,"midi":53,"time":17.3142785,"velocity":0.3937007874015748},{"duration":0.08571425000000232,"midi":69,"time":17.3142785,"velocity":0.3937007874015748},{"duration":0.08571424999999877,"midi":57,"time":17.657135500000003,"velocity":0.3937007874015748},{"duration":0.08571424999999877,"midi":53,"time":17.657135500000003,"velocity":0.3937007874015748},{"duration":0.08571424999999877,"midi":65,"time":17.657135500000003,"velocity":0.3937007874015748},{"duration":0.08571424999999877,"midi":69,"time":17.657135500000003,"velocity":0.3937007874015748},{"duration":0.08571425000000232,"midi":62,"time":17.828564,"velocity":0.3937007874015748},{"duration":0.08571425000000232,"midi":50,"time":17.828564,"velocity":0.3937007874015748},{"duration":0.08571424999999877,"midi":57,"time":17.9999925,"velocity":0.3937007874015748},{"duration":0.08571424999999877,"midi":53,"time":17.9999925,"velocity":0.3937007874015748},{"duration":0.08571424999999877,"midi":65,"time":17.9999925,"velocity":0.3937007874015748},{"duration":0.08571424999999877,"midi":69,"time":17.9999925,"velocity":0.3937007874015748},{"duration":0.08571425000000232,"midi":69,"time":18.3428495,"velocity":0.3937007874015748},{"duration":0.08571425000000232,"midi":65,"time":18.3428495,"velocity":0.3937007874015748},{"duration":0.08571425000000232,"midi":53,"time":18.3428495,"velocity":0.3937007874015748},{"duration":0.08571425000000232,"midi":57,"time":18.3428495,"velocity":0.3937007874015748},{"duration":0.08571424999999877,"midi":62,"time":18.514278,"velocity":0.3937007874015748},{"duration":0.08571424999999877,"midi":50,"time":18.514278,"velocity":0.3937007874015748},{"duration":0.08571424999999877,"midi":53,"time":18.685706500000002,"velocity":0.3937007874015748},{"duration":0.08571424999999877,"midi":69,"time":18.685706500000002,"velocity":0.3937007874015748},{"duration":0.08571424999999877,"midi":57,"time":18.685706500000002,"velocity":0.3937007874015748},{"duration":0.08571424999999877,"midi":65,"time":18.685706500000002,"velocity":0.3937007874015748},{"duration":0.08571425000000232,"midi":57,"time":19.0285635,"velocity":0.3937007874015748},{"duration":0.08571425000000232,"midi":65,"time":19.0285635,"velocity":0.3937007874015748},{"duration":0.08571425000000232,"midi":53,"time":19.0285635,"velocity":0.3937007874015748},{"duration":0.08571425000000232,"midi":69,"time":19.0285635,"velocity":0.3937007874015748},{"duration":0.08571424999999877,"midi":50,"time":19.199992,"velocity":0.3937007874015748},{"duration":0.08571424999999877,"midi":62,"time":19.199992,"velocity":0.3937007874015748},{"duration":0.08571424999999877,"midi":65,"time":19.371420500000003,"velocity":0.3937007874015748},{"duration":0.08571424999999877,"midi":53,"time":19.371420500000003,"velocity":0.3937007874015748},{"duration":0.08571424999999877,"midi":57,"time":19.371420500000003,"velocity":0.3937007874015748},{"duration":0.08571424999999877,"midi":69,"time":19.371420500000003,"velocity":0.3937007874015748},{"duration":0.08571424999999877,"midi":57,"time":19.7142775,"velocity":0.3937007874015748},{"duration":0.08571424999999877,"midi":53,"time":19.7142775,"velocity":0.3937007874015748},{"duration":0.08571424999999877,"midi":69,"time":19.7142775,"velocity":0.3937007874015748},{"duration":0.08571424999999877,"midi":65,"time":19.7142775,"velocity":0.3937007874015748},{"duration":0.08571424999999877,"midi":62,"time":19.885706000000003,"velocity":0.3937007874015748},{"duration":0.08571424999999877,"midi":50,"time":19.885706000000003,"velocity":0.3937007874015748},{"duration":0.08571425000000232,"midi":53,"time":20.0571345,"velocity":0.3937007874015748},{"duration":0.08571425000000232,"midi":65,"time":20.0571345,"velocity":0.3937007874015748},{"duration":0.08571425000000232,"midi":69,"time":20.0571345,"velocity":0.3937007874015748},{"duration":0.08571425000000232,"midi":57,"time":20.0571345,"velocity":0.3937007874015748},{"duration":0.08571424999999877,"midi":53,"time":20.399991500000002,"velocity":0.3937007874015748},{"duration":0.08571424999999877,"midi":69,"time":20.399991500000002,"velocity":0.3937007874015748},{"duration":0.08571424999999877,"midi":57,"time":20.399991500000002,"velocity":0.3937007874015748},{"duration":0.08571424999999877,"midi":65,"time":20.399991500000002,"velocity":0.3937007874015748},{"duration":0.08571425000000232,"midi":62,"time":20.57142,"velocity":0.3937007874015748},{"duration":0.08571425000000232,"midi":50,"time":20.57142,"velocity":0.3937007874015748},{"duration":0.08571424999999877,"midi":65,"time":20.7428485,"velocity":0.3937007874015748},{"duration":0.08571424999999877,"midi":57,"time":20.7428485,"velocity":0.3937007874015748},{"duration":0.08571424999999877,"midi":69,"time":20.7428485,"velocity":0.3937007874015748},{"duration":0.08571424999999877,"midi":53,"time":20.7428485,"velocity":0.3937007874015748},{"duration":0.08571424999999877,"midi":57,"time":21.085705500000003,"velocity":0.3937007874015748},{"duration":0.08571424999999877,"midi":65,"time":21.085705500000003,"velocity":0.3937007874015748},{"duration":0.08571424999999877,"midi":53,"time":21.085705500000003,"velocity":0.3937007874015748},{"duration":0.08571424999999877,"midi":69,"time":21.085705500000003,"velocity":0.3937007874015748},{"duration":0.08571425000000232,"midi":62,"time":21.257134,"velocity":0.3937007874015748},{"duration":0.08571425000000232,"midi":50,"time":21.257134,"velocity":0.3937007874015748},{"duration":0.08571424999999877,"midi":69,"time":21.4285625,"velocity":0.3937007874015748},{"duration":0.08571424999999877,"midi":53,"time":21.4285625,"velocity":0.3937007874015748},{"duration":0.08571424999999877,"midi":57,"time":21.4285625,"velocity":0.3937007874015748},{"duration":0.08571424999999877,"midi":65,"time":21.4285625,"velocity":0.3937007874015748},{"duration":0.08571425000000232,"midi":55,"time":21.7714195,"velocity":0.3937007874015748},{"duration":0.08571425000000232,"midi":67,"time":21.7714195,"velocity":0.3937007874015748},{"duration":0.08571425000000232,"midi":64,"time":21.7714195,"velocity":0.3937007874015748},{"duration":0.08571425000000232,"midi":52,"time":21.7714195,"velocity":0.3937007874015748},{"duration":0.08571424999999877,"midi":46,"time":21.942848,"velocity":0.3937007874015748},{"duration":0.08571424999999877,"midi":58,"time":21.942848,"velocity":0.3937007874015748},{"duration":0.08571424999999877,"midi":62,"time":22.114276500000003,"velocity":0.3937007874015748},{"duration":0.08571424999999877,"midi":50,"time":22.114276500000003,"velocity":0.3937007874015748},{"duration":0.08571424999999877,"midi":53,"time":22.114276500000003,"velocity":0.3937007874015748},{"duration":0.08571424999999877,"midi":65,"time":22.114276500000003,"velocity":0.3937007874015748},{"duration":0.08571424999999877,"midi":50,"time":22.4571335,"velocity":0.3937007874015748},{"duration":0.08571424999999877,"midi":65,"time":22.4571335,"velocity":0.3937007874015748},{"duration":0.08571424999999877,"midi":53,"time":22.4571335,"velocity":0.3937007874015748},{"duration":0.08571424999999877,"midi":62,"time":22.4571335,"velocity":0.3937007874015748},{"duration":0.08571424999999877,"midi":48,"time":22.628562000000002,"velocity":0.3937007874015748},{"duration":0.08571424999999877,"midi":60,"time":22.628562000000002,"velocity":0.3937007874015748},{"duration":0.08571425000000232,"midi":67,"time":22.7999905,"velocity":0.3937007874015748},{"duration":0.08571425000000232,"midi":52,"time":22.7999905,"velocity":0.3937007874015748},{"duration":0.08571425000000232,"midi":55,"time":22.7999905,"velocity":0.3937007874015748},{"duration":0.08571425000000232,"midi":64,"time":22.7999905,"velocity":0.3937007874015748},{"duration":0.08571424999999877,"midi":55,"time":23.142847500000002,"velocity":0.3937007874015748},{"duration":0.08571424999999877,"midi":67,"time":23.142847500000002,"velocity":0.3937007874015748},{"duration":0.08571424999999877,"midi":52,"time":23.142847500000002,"velocity":0.3937007874015748},{"duration":0.08571424999999877,"midi":64,"time":23.142847500000002,"velocity":0.3937007874015748},{"duration":0.08571424999999877,"midi":62,"time":23.314276000000003,"velocity":0.3937007874015748},{"duration":0.08571424999999877,"midi":50,"time":23.314276000000003,"velocity":0.3937007874015748},{"duration":0.08571425000000232,"midi":53,"time":23.4857045,"velocity":0.3937007874015748},{"duration":0.08571425000000232,"midi":57,"time":23.4857045,"velocity":0.3937007874015748},{"duration":0.08571425000000232,"midi":65,"time":23.4857045,"velocity":0.3937007874015748},{"duration":0.08571425000000232,"midi":69,"time":23.4857045,"velocity":0.3937007874015748},{"duration":0.08571424999999877,"midi":65,"time":23.828561500000003,"velocity":0.3937007874015748},{"duration":0.08571424999999877,"midi":69,"time":23.828561500000003,"velocity":0.3937007874015748},{"duration":0.08571424999999877,"midi":57,"time":23.828561500000003,"velocity":0.3937007874015748},{"duration":0.08571424999999877,"midi":53,"time":23.828561500000003,"velocity":0.3937007874015748},{"duration":0.08571425000000232,"midi":50,"time":23.99999,"velocity":0.3937007874015748},{"duration":0.08571425000000232,"midi":62,"time":23.99999,"velocity":0.3937007874015748},{"duration":0.08571424999999877,"midi":57,"time":24.1714185,"velocity":0.3937007874015748},{"duration":0.08571424999999877,"midi":69,"time":24.1714185,"velocity":0.3937007874015748},{"duration":0.08571424999999877,"midi":53,"time":24.1714185,"velocity":0.3937007874015748},{"duration":0.08571424999999877,"midi":65,"time":24.1714185,"velocity":0.3937007874015748},{"duration":0.08571425000000232,"midi":57,"time":24.5142755,"velocity":0.3937007874015748},{"duration":0.08571425000000232,"midi":65,"time":24.5142755,"velocity":0.3937007874015748},{"duration":0.08571425000000232,"midi":53,"time":24.5142755,"velocity":0.3937007874015748},{"duration":0.08571425000000232,"midi":69,"time":24.5142755,"velocity":0.3937007874015748},{"duration":0.08571424999999877,"midi":46,"time":24.685704,"velocity":0.3937007874015748},{"duration":0.08571424999999877,"midi":58,"time":24.685704,"velocity":0.3937007874015748},{"duration":0.08571424999999877,"midi":50,"time":24.857132500000002,"velocity":0.3937007874015748},{"duration":0.08571424999999877,"midi":65,"time":24.857132500000002,"velocity":0.3937007874015748},{"duration":0.08571424999999877,"midi":53,"time":24.857132500000002,"velocity":0.3937007874015748},{"duration":0.08571424999999877,"midi":62,"time":24.857132500000002,"velocity":0.3937007874015748},{"duration":0.08571425000000232,"midi":53,"time":25.1999895,"velocity":0.3937007874015748},{"duration":0.08571425000000232,"midi":65,"time":25.1999895,"velocity":0.3937007874015748},{"duration":0.08571425000000232,"midi":62,"time":25.1999895,"velocity":0.3937007874015748},{"duration":0.08571425000000232,"midi":50,"time":25.1999895,"velocity":0.3937007874015748},{"duration":0.08571424999999877,"midi":60,"time":25.371418000000002,"velocity":0.3937007874015748},{"duration":0.08571424999999877,"midi":48,"time":25.371418000000002,"velocity":0.3937007874015748},{"duration":0.08571424999999877,"midi":52,"time":25.542846500000003,"velocity":0.3937007874015748},{"duration":0.08571424999999877,"midi":64,"time":25.542846500000003,"velocity":0.3937007874015748},{"duration":0.08571424999999877,"midi":67,"time":25.542846500000003,"velocity":0.3937007874015748},{"duration":0.08571424999999877,"midi":55,"time":25.542846500000003,"velocity":0.3937007874015748},{"duration":0.08571424999999877,"midi":52,"time":25.8857035,"velocity":0.3937007874015748},{"duration":0.08571424999999877,"midi":67,"time":25.8857035,"velocity":0.3937007874015748},{"duration":0.08571424999999877,"midi":64,"time":25.8857035,"velocity":0.3937007874015748},{"duration":0.08571424999999877,"midi":55,"time":25.8857035,"velocity":0.3937007874015748},{"duration":0.08571424999999877,"midi":62,"time":26.057132000000003,"velocity":0.3937007874015748},{"duration":0.08571424999999877,"midi":50,"time":26.057132000000003,"velocity":0.3937007874015748},{"duration":0.08571425000000232,"midi":57,"time":26.2285605,"velocity":0.3937007874015748},{"duration":0.08571425000000232,"midi":69,"time":26.2285605,"velocity":0.3937007874015748},{"duration":0.08571425000000232,"midi":65,"time":26.2285605,"velocity":0.3937007874015748},{"duration":0.08571425000000232,"midi":53,"time":26.2285605,"velocity":0.3937007874015748},{"duration":0.08571424999999877,"midi":50,"time":26.399989,"velocity":0.3937007874015748},{"duration":0.08571424999999877,"midi":62,"time":26.399989,"velocity":0.3937007874015748},{"duration":0.08571424999999877,"midi":72,"time":26.571417500000003,"velocity":0.3937007874015748},{"duration":0.08571424999999877,"midi":67,"time":26.571417500000003,"velocity":0.3937007874015748},{"duration":0.08571424999999877,"midi":60,"time":26.571417500000003,"velocity":0.3937007874015748},{"duration":0.08571424999999877,"midi":55,"time":26.571417500000003,"velocity":0.3937007874015748},{"duration":0.08571425000000232,"midi":62,"time":26.742846,"velocity":0.3937007874015748},{"duration":0.08571425000000232,"midi":50,"time":26.742846,"velocity":0.3937007874015748},{"duration":0.08571425000000232,"midi":57,"time":26.9142745,"velocity":0.3937007874015748},{"duration":0.08571425000000232,"midi":62,"time":26.9142745,"velocity":0.3937007874015748},{"duration":0.08571425000000232,"midi":74,"time":26.9142745,"velocity":0.3937007874015748},{"duration":0.08571425000000232,"midi":69,"time":26.9142745,"velocity":0.3937007874015748},{"duration":0.08571424999999877,"midi":62,"time":27.085703000000002,"velocity":0.3937007874015748},{"duration":0.08571424999999877,"midi":50,"time":27.085703000000002,"velocity":0.3937007874015748},{"duration":0.08571424999999877,"midi":57,"time":27.257131500000003,"velocity":0.3937007874015748},{"duration":0.08571424999999877,"midi":69,"time":27.257131500000003,"velocity":0.3937007874015748},{"duration":0.08571424999999877,"midi":53,"time":27.257131500000003,"velocity":0.3937007874015748},{"duration":0.08571424999999877,"midi":65,"time":27.257131500000003,"velocity":0.3937007874015748},{"duration":0.08571425000000232,"midi":58,"time":27.42856,"velocity":0.3937007874015748},{"duration":0.08571425000000232,"midi":46,"time":27.42856,"velocity":0.3937007874015748},{"duration":0.08571424999999877,"midi":62,"time":27.599988500000002,"velocity":0.3937007874015748},{"duration":0.08571424999999877,"midi":65,"time":27.599988500000002,"velocity":0.3937007874015748},{"duration":0.08571424999999877,"midi":50,"time":27.599988500000002,"velocity":0.3937007874015748},{"duration":0.08571424999999877,"midi":53,"time":27.599988500000002,"velocity":0.3937007874015748},{"duration":0.08571425000000232,"midi":65,"time":27.9428455,"velocity":0.3937007874015748},{"duration":0.08571425000000232,"midi":50,"time":27.9428455,"velocity":0.3937007874015748},{"duration":0.08571425000000232,"midi":62,"time":27.9428455,"velocity":0.3937007874015748},{"duration":0.08571425000000232,"midi":53,"time":27.9428455,"velocity":0.3937007874015748},{"duration":0.08571424999999877,"midi":60,"time":28.114274,"velocity":0.3937007874015748},{"duration":0.08571424999999877,"midi":48,"time":28.114274,"velocity":0.3937007874015748},{"duration":0.08571424999999877,"midi":52,"time":28.285702500000003,"velocity":0.3937007874015748},{"duration":0.08571424999999877,"midi":64,"time":28.285702500000003,"velocity":0.3937007874015748},{"duration":0.08571424999999877,"midi":67,"time":28.285702500000003,"velocity":0.3937007874015748},{"duration":0.08571424999999877,"midi":55,"time":28.285702500000003,"velocity":0.3937007874015748},{"duration":0.08571424999999877,"midi":52,"time":28.6285595,"velocity":0.3937007874015748},{"duration":0.08571424999999877,"midi":64,"time":28.6285595,"velocity":0.3937007874015748},{"duration":0.08571424999999877,"midi":55,"time":28.6285595,"velocity":0.3937007874015748},{"duration":0.08571424999999877,"midi":67,"time":28.6285595,"velocity":0.3937007874015748},{"duration":0.08571424999999877,"midi":62,"time":28.799988000000003,"velocity":0.3937007874015748},{"duration":0.08571424999999877,"midi":50,"time":28.799988000000003,"velocity":0.3937007874015748},{"duration":0.08571424999999877,"midi":53,"time":28.971416500000004,"velocity":0.3937007874015748},{"duration":0.08571424999999877,"midi":57,"time":28.971416500000004,"velocity":0.3937007874015748},{"duration":0.08571424999999877,"midi":69,"time":28.971416500000004,"velocity":0.3937007874015748},{"duration":0.08571424999999877,"midi":65,"time":28.971416500000004,"velocity":0.3937007874015748},{"duration":0.08571424999999877,"midi":57,"time":29.314273500000002,"velocity":0.3937007874015748},{"duration":0.08571424999999877,"midi":69,"time":29.314273500000002,"velocity":0.3937007874015748},{"duration":0.08571424999999877,"midi":53,"time":29.314273500000002,"velocity":0.3937007874015748},{"duration":0.08571424999999877,"midi":65,"time":29.314273500000002,"velocity":0.3937007874015748},{"duration":0.08571424999999877,"midi":50,"time":29.485702000000003,"velocity":0.3937007874015748},{"duration":0.08571424999999877,"midi":62,"time":29.485702000000003,"velocity":0.3937007874015748},{"duration":0.08571425000000232,"midi":65,"time":29.6571305,"velocity":0.3937007874015748},{"duration":0.08571425000000232,"midi":69,"time":29.6571305,"velocity":0.3937007874015748},{"duration":0.08571425000000232,"midi":57,"time":29.6571305,"velocity":0.3937007874015748},{"duration":0.08571425000000232,"midi":53,"time":29.6571305,"velocity":0.3937007874015748},{"duration":0.08571424999999877,"midi":57,"time":29.999987500000003,"velocity":0.3937007874015748},{"duration":0.08571424999999877,"midi":65,"time":29.999987500000003,"velocity":0.3937007874015748},{"duration":0.08571424999999877,"midi":69,"time":29.999987500000003,"velocity":0.3937007874015748},{"duration":0.08571424999999877,"midi":53,"time":29.999987500000003,"velocity":0.3937007874015748},{"duration":0.08571425000000232,"midi":46,"time":30.171416,"velocity":0.3937007874015748},{"duration":0.08571425000000232,"midi":58,"time":30.171416,"velocity":0.3937007874015748},{"duration":0.08571424999999877,"midi":62,"time":30.3428445,"velocity":0.3937007874015748},{"duration":0.08571424999999877,"midi":67,"time":30.3428445,"velocity":0.3937007874015748},{"duration":0.08571424999999877,"midi":50,"time":30.3428445,"velocity":0.3937007874015748},{"duration":0.08571424999999877,"midi":55,"time":30.3428445,"velocity":0.3937007874015748},{"duration":0.08571425000000232,"midi":62,"time":30.6857015,"velocity":0.3937007874015748},{"duration":0.08571425000000232,"midi":55,"time":30.6857015,"velocity":0.3937007874015748},{"duration":0.08571425000000232,"midi":50,"time":30.6857015,"velocity":0.3937007874015748},{"duration":0.08571425000000232,"midi":67,"time":30.6857015,"velocity":0.3937007874015748},{"duration":0.08571425000000232,"midi":48,"time":30.85713,"velocity":0.3937007874015748},{"duration":0.08571425000000232,"midi":60,"time":30.85713,"velocity":0.3937007874015748},{"duration":0.08571424999999877,"midi":57,"time":31.028558500000003,"velocity":0.3937007874015748},{"duration":0.08571424999999877,"midi":52,"time":31.028558500000003,"velocity":0.3937007874015748},{"duration":0.08571424999999877,"midi":69,"time":31.028558500000003,"velocity":0.3937007874015748},{"duration":0.08571424999999877,"midi":64,"time":31.028558500000003,"velocity":0.3937007874015748},{"duration":0.08571425000000232,"midi":52,"time":31.3714155,"velocity":0.3937007874015748},{"duration":0.08571425000000232,"midi":69,"time":31.3714155,"velocity":0.3937007874015748},{"duration":0.08571425000000232,"midi":57,"time":31.3714155,"velocity":0.3937007874015748},{"duration":0.08571425000000232,"midi":64,"time":31.3714155,"velocity":0.3937007874015748},{"duration":0.08571424999999877,"midi":50,"time":31.542844000000002,"velocity":0.3937007874015748},{"duration":0.08571424999999877,"midi":62,"time":31.542844000000002,"velocity":0.3937007874015748},{"duration":0.08571424999999877,"midi":70,"time":31.714272500000003,"velocity":0.3937007874015748},{"duration":0.08571424999999877,"midi":58,"time":31.714272500000003,"velocity":0.3937007874015748},{"duration":0.08571424999999877,"midi":65,"time":31.714272500000003,"velocity":0.3937007874015748},{"duration":0.08571424999999877,"midi":53,"time":31.714272500000003,"velocity":0.3937007874015748},{"duration":0.08571425000000232,"midi":67,"time":32.0571295,"velocity":0.3937007874015748},{"duration":0.08571425000000232,"midi":55,"time":32.0571295,"velocity":0.3937007874015748},{"duration":0.08571425000000232,"midi":59,"time":32.0571295,"velocity":0.3937007874015748},{"duration":0.08571425000000232,"midi":71,"time":32.0571295,"velocity":0.3937007874015748},{"duration":0.08571425000000232,"midi":69,"time":32.228558,"velocity":0.3937007874015748},{"duration":0.08571425000000232,"midi":57,"time":32.228558,"velocity":0.3937007874015748},{"duration":0.08571425000000232,"midi":60,"time":32.228558,"velocity":0.3937007874015748},{"duration":0.08571425000000232,"midi":72,"time":32.228558,"velocity":0.3937007874015748},{"duration":0.08571425000000232,"midi":72,"time":32.48570075,"velocity":0.3937007874015748},{"duration":0.08571425000000232,"midi":69,"time":32.48570075,"velocity":0.3937007874015748},{"duration":0.08571425000000232,"midi":60,"time":32.48570075,"velocity":0.3937007874015748},{"duration":0.08571425000000232,"midi":57,"time":32.48570075,"velocity":0.3937007874015748},{"duration":0.08571425000000232,"midi":57,"time":32.7428435,"velocity":0.3937007874015748},{"duration":0.08571425000000232,"midi":72,"time":32.7428435,"velocity":0.3937007874015748},{"duration":0.08571425000000232,"midi":69,"time":32.7428435,"velocity":0.3937007874015748},{"duration":0.08571425000000232,"midi":60,"time":32.7428435,"velocity":0.3937007874015748},{"duration":0.08571424999999522,"midi":46,"time":32.914272000000004,"velocity":0.3937007874015748},{"duration":0.08571424999999522,"midi":58,"time":32.914272000000004,"velocity":0.3937007874015748},{"duration":0.08571425000000232,"midi":53,"time":33.0857005,"velocity":0.3937007874015748},{"duration":0.08571425000000232,"midi":65,"time":33.0857005,"velocity":0.3937007874015748},{"duration":0.08571425000000232,"midi":50,"time":33.0857005,"velocity":0.3937007874015748},{"duration":0.08571425000000232,"midi":62,"time":33.0857005,"velocity":0.3937007874015748},{"duration":0.08571424999999522,"midi":65,"time":33.428557500000004,"velocity":0.3937007874015748},{"duration":0.08571424999999522,"midi":53,"time":33.428557500000004,"velocity":0.3937007874015748},{"duration":0.08571424999999522,"midi":62,"time":33.428557500000004,"velocity":0.3937007874015748},{"duration":0.08571424999999522,"midi":50,"time":33.428557500000004,"velocity":0.3937007874015748},{"duration":0.08571425000000232,"midi":48,"time":33.599986,"velocity":0.3937007874015748},{"duration":0.08571425000000232,"midi":60,"time":33.599986,"velocity":0.3937007874015748},{"duration":0.08571425000000232,"midi":52,"time":33.7714145,"velocity":0.3937007874015748},{"duration":0.08571425000000232,"midi":67,"time":33.7714145,"velocity":0.3937007874015748},{"duration":0.08571425000000232,"midi":55,"time":33.7714145,"velocity":0.3937007874015748},{"duration":0.08571425000000232,"midi":64,"time":33.7714145,"velocity":0.3937007874015748},{"duration":0.08571425000000232,"midi":64,"time":34.1142715,"velocity":0.3937007874015748},{"duration":0.08571425000000232,"midi":52,"time":34.1142715,"velocity":0.3937007874015748},{"duration":0.08571425000000232,"midi":55,"time":34.1142715,"velocity":0.3937007874015748},{"duration":0.08571425000000232,"midi":67,"time":34.1142715,"velocity":0.3937007874015748},{"duration":0.08571424999999522,"midi":62,"time":34.285700000000006,"velocity":0.3937007874015748},{"duration":0.08571424999999522,"midi":50,"time":34.285700000000006,"velocity":0.3937007874015748},{"duration":0.08571425000000232,"midi":53,"time":34.4571285,"velocity":0.3937007874015748},{"duration":0.08571425000000232,"midi":69,"time":34.4571285,"velocity":0.3937007874015748},{"duration":0.08571425000000232,"midi":57,"time":34.4571285,"velocity":0.3937007874015748},{"duration":0.08571425000000232,"midi":65,"time":34.4571285,"velocity":0.3937007874015748},{"duration":0.08571424999999522,"midi":65,"time":34.799985500000005,"velocity":0.3937007874015748},{"duration":0.08571424999999522,"midi":53,"time":34.799985500000005,"velocity":0.3937007874015748},{"duration":0.08571424999999522,"midi":69,"time":34.799985500000005,"velocity":0.3937007874015748},{"duration":0.08571424999999522,"midi":57,"time":34.799985500000005,"velocity":0.3937007874015748},{"duration":0.08571425000000232,"midi":50,"time":34.971414,"velocity":0.3937007874015748},{"duration":0.08571425000000232,"midi":62,"time":34.971414,"velocity":0.3937007874015748},{"duration":0.08571425000000232,"midi":69,"time":35.1428425,"velocity":0.3937007874015748},{"duration":0.08571425000000232,"midi":65,"time":35.1428425,"velocity":0.3937007874015748},{"duration":0.08571425000000232,"midi":53,"time":35.1428425,"velocity":0.3937007874015748},{"duration":0.08571425000000232,"midi":57,"time":35.1428425,"velocity":0.3937007874015748},{"duration":0.08571425000000232,"midi":57,"time":35.4856995,"velocity":0.3937007874015748},{"duration":0.08571425000000232,"midi":65,"time":35.4856995,"velocity":0.3937007874015748},{"duration":0.08571425000000232,"midi":53,"time":35.4856995,"velocity":0.3937007874015748},{"duration":0.08571425000000232,"midi":69,"time":35.4856995,"velocity":0.3937007874015748},{"duration":0.08571425000000232,"midi":58,"time":35.657128,"velocity":0.3937007874015748},{"duration":0.08571425000000232,"midi":46,"time":35.657128,"velocity":0.3937007874015748},{"duration":0.08571424999999522,"midi":53,"time":35.828556500000005,"velocity":0.3937007874015748},{"duration":0.08571424999999522,"midi":65,"time":35.828556500000005,"velocity":0.3937007874015748},{"duration":0.08571424999999522,"midi":50,"time":35.828556500000005,"velocity":0.3937007874015748},{"duration":0.08571424999999522,"midi":62,"time":35.828556500000005,"velocity":0.3937007874015748},{"duration":0.08571425000000232,"midi":62,"time":36.1714135,"velocity":0.3937007874015748},{"duration":0.08571425000000232,"midi":65,"time":36.1714135,"velocity":0.3937007874015748},{"duration":0.08571425000000232,"midi":53,"time":36.1714135,"velocity":0.3937007874015748},{"duration":0.08571425000000232,"midi":50,"time":36.1714135,"velocity":0.3937007874015748},{"duration":0.08571424999999522,"midi":60,"time":36.342842000000005,"velocity":0.3937007874015748},{"duration":0.08571424999999522,"midi":48,"time":36.342842000000005,"velocity":0.3937007874015748},{"duration":0.08571425000000232,"midi":52,"time":36.5142705,"velocity":0.3937007874015748},{"duration":0.08571425000000232,"midi":55,"time":36.5142705,"velocity":0.3937007874015748},{"duration":0.08571425000000232,"midi":67,"time":36.5142705,"velocity":0.3937007874015748},{"duration":0.08571425000000232,"midi":64,"time":36.5142705,"velocity":0.3937007874015748},{"duration":0.08571424999999522,"midi":52,"time":36.857127500000004,"velocity":0.3937007874015748},{"duration":0.08571424999999522,"midi":55,"time":36.857127500000004,"velocity":0.3937007874015748},{"duration":0.08571424999999522,"midi":67,"time":36.857127500000004,"velocity":0.3937007874015748},{"duration":0.08571424999999522,"midi":64,"time":36.857127500000004,"velocity":0.3937007874015748},{"duration":0.08571425000000232,"midi":50,"time":37.028556,"velocity":0.3937007874015748},{"duration":0.08571425000000232,"midi":62,"time":37.028556,"velocity":0.3937007874015748},{"duration":0.08571425000000232,"midi":65,"time":37.1999845,"velocity":0.3937007874015748},{"duration":0.08571425000000232,"midi":57,"time":37.1999845,"velocity":0.3937007874015748},{"duration":0.08571425000000232,"midi":53,"time":37.1999845,"velocity":0.3937007874015748},{"duration":0.08571425000000232,"midi":69,"time":37.1999845,"velocity":0.3937007874015748},{"duration":0.08571424999999522,"midi":62,"time":37.371413000000004,"velocity":0.3937007874015748},{"duration":0.08571424999999522,"midi":50,"time":37.371413000000004,"velocity":0.3937007874015748},{"duration":0.08571425000000232,"midi":55,"time":37.5428415,"velocity":0.3937007874015748},{"duration":0.08571425000000232,"midi":60,"time":37.5428415,"velocity":0.3937007874015748},{"duration":0.08571425000000232,"midi":67,"time":37.5428415,"velocity":0.3937007874015748},{"duration":0.08571425000000232,"midi":72,"time":37.5428415,"velocity":0.3937007874015748},{"duration":0.08571425000000232,"midi":50,"time":37.71427,"velocity":0.3937007874015748},{"duration":0.08571425000000232,"midi":62,"time":37.71427,"velocity":0.3937007874015748},{"duration":0.08571425000000232,"midi":57,"time":37.885698500000004,"velocity":0.3937007874015748},{"duration":0.08571425000000232,"midi":69,"time":37.885698500000004,"velocity":0.3937007874015748},{"duration":0.08571425000000232,"midi":74,"time":37.885698500000004,"velocity":0.3937007874015748},{"duration":0.08571425000000232,"midi":62,"time":37.885698500000004,"velocity":0.3937007874015748},{"duration":0.08571425000000232,"midi":50,"time":38.057127,"velocity":0.3937007874015748},{"duration":0.08571425000000232,"midi":62,"time":38.057127,"velocity":0.3937007874015748},{"duration":0.08571424999999522,"midi":69,"time":38.228555500000006,"velocity":0.3937007874015748},{"duration":0.08571424999999522,"midi":57,"time":38.228555500000006,"velocity":0.3937007874015748},{"duration":0.08571424999999522,"midi":53,"time":38.228555500000006,"velocity":0.3937007874015748},{"duration":0.08571424999999522,"midi":65,"time":38.228555500000006,"velocity":0.3937007874015748},{"duration":0.08571425000000232,"midi":46,"time":38.399984,"velocity":0.3937007874015748},{"duration":0.08571425000000232,"midi":58,"time":38.399984,"velocity":0.3937007874015748},{"duration":0.08571425000000232,"midi":53,"time":38.5714125,"velocity":0.3937007874015748},{"duration":0.08571425000000232,"midi":50,"time":38.5714125,"velocity":0.3937007874015748},{"duration":0.08571425000000232,"midi":62,"time":38.5714125,"velocity":0.3937007874015748},{"duration":0.08571425000000232,"midi":65,"time":38.5714125,"velocity":0.3937007874015748},{"duration":0.08571425000000232,"midi":50,"time":38.9142695,"velocity":0.3937007874015748},{"duration":0.08571425000000232,"midi":62,"time":38.9142695,"velocity":0.3937007874015748},{"duration":0.08571425000000232,"midi":65,"time":38.9142695,"velocity":0.3937007874015748},{"duration":0.08571425000000232,"midi":53,"time":38.9142695,"velocity":0.3937007874015748},{"duration":0.08571425000000232,"midi":60,"time":39.085698,"velocity":0.3937007874015748},{"duration":0.08571425000000232,"midi":48,"time":39.085698,"velocity":0.3937007874015748},{"duration":0.08571424999999522,"midi":55,"time":39.257126500000005,"velocity":0.3937007874015748},{"duration":0.08571424999999522,"midi":64,"time":39.257126500000005,"velocity":0.3937007874015748},{"duration":0.08571424999999522,"midi":67,"time":39.257126500000005,"velocity":0.3937007874015748},{"duration":0.08571424999999522,"midi":52,"time":39.257126500000005,"velocity":0.3937007874015748},{"duration":0.08571425000000232,"midi":67,"time":39.5999835,"velocity":0.3937007874015748},{"duration":0.08571425000000232,"midi":55,"time":39.5999835,"velocity":0.3937007874015748},{"duration":0.08571425000000232,"midi":52,"time":39.5999835,"velocity":0.3937007874015748},{"duration":0.08571425000000232,"midi":64,"time":39.5999835,"velocity":0.3937007874015748},{"duration":0.08571424999999522,"midi":62,"time":39.771412000000005,"velocity":0.3937007874015748},{"duration":0.08571424999999522,"midi":50,"time":39.771412000000005,"velocity":0.3937007874015748},{"duration":0.08571425000000232,"midi":65,"time":39.9428405,"velocity":0.3937007874015748},{"duration":0.08571425000000232,"midi":53,"time":39.9428405,"velocity":0.3937007874015748},{"duration":0.08571425000000232,"midi":69,"time":39.9428405,"velocity":0.3937007874015748},{"duration":0.08571425000000232,"midi":57,"time":39.9428405,"velocity":0.3937007874015748},{"duration":0.08571424999999522,"midi":69,"time":40.285697500000005,"velocity":0.3937007874015748},{"duration":0.08571424999999522,"midi":57,"time":40.285697500000005,"velocity":0.3937007874015748},{"duration":0.08571424999999522,"midi":65,"time":40.285697500000005,"velocity":0.3937007874015748},{"duration":0.08571424999999522,"midi":53,"time":40.285697500000005,"velocity":0.3937007874015748},{"duration":0.08571425000000232,"midi":50,"time":40.457126,"velocity":0.3937007874015748},{"duration":0.08571425000000232,"midi":62,"time":40.457126,"velocity":0.3937007874015748},{"duration":0.08571425000000232,"midi":57,"time":40.6285545,"velocity":0.3937007874015748},{"duration":0.08571425000000232,"midi":69,"time":40.6285545,"velocity":0.3937007874015748},{"duration":0.08571425000000232,"midi":53,"time":40.6285545,"velocity":0.3937007874015748},{"duration":0.08571425000000232,"midi":65,"time":40.6285545,"velocity":0.3937007874015748},{"duration":0.08571425000000232,"midi":57,"time":40.9714115,"velocity":0.3937007874015748},{"duration":0.08571425000000232,"midi":69,"time":40.9714115,"velocity":0.3937007874015748},{"duration":0.08571425000000232,"midi":65,"time":40.9714115,"velocity":0.3937007874015748},{"duration":0.08571425000000232,"midi":53,"time":40.9714115,"velocity":0.3937007874015748},{"duration":0.08571425000000232,"midi":46,"time":41.14284,"velocity":0.3937007874015748},{"duration":0.08571425000000232,"midi":58,"time":41.14284,"velocity":0.3937007874015748},{"duration":0.08571424999999522,"midi":50,"time":41.314268500000004,"velocity":0.3937007874015748},{"duration":0.08571424999999522,"midi":62,"time":41.314268500000004,"velocity":0.3937007874015748},{"duration":0.08571424999999522,"midi":55,"time":41.314268500000004,"velocity":0.3937007874015748},{"duration":0.08571424999999522,"midi":67,"time":41.314268500000004,"velocity":0.3937007874015748},{"duration":0.08571425000000232,"midi":50,"time":41.6571255,"velocity":0.3937007874015748},{"duration":0.08571425000000232,"midi":67,"time":41.6571255,"velocity":0.3937007874015748},{"duration":0.08571425000000232,"midi":62,"time":41.6571255,"velocity":0.3937007874015748},{"duration":0.08571425000000232,"midi":55,"time":41.6571255,"velocity":0.3937007874015748},{"duration":0.08571425000000232,"midi":65,"time":41.828554000000004,"velocity":0.3937007874015748},{"duration":0.08571425000000232,"midi":57,"time":41.828554000000004,"velocity":0.3937007874015748},{"duration":0.08571425000000232,"midi":53,"time":41.828554000000004,"velocity":0.3937007874015748},{"duration":0.08571425000000232,"midi":69,"time":41.828554000000004,"velocity":0.3937007874015748},{"duration":0.08571425000000232,"midi":52,"time":41.9999825,"velocity":0.3937007874015748},{"duration":0.08571425000000232,"midi":67,"time":41.9999825,"velocity":0.3937007874015748},{"duration":0.08571425000000232,"midi":55,"time":41.9999825,"velocity":0.3937007874015748},{"duration":0.08571425000000232,"midi":64,"time":41.9999825,"velocity":0.3937007874015748},{"duration":0.08571424999999522,"midi":65,"time":42.171411000000006,"velocity":0.3937007874015748},{"duration":0.08571424999999522,"midi":50,"time":42.171411000000006,"velocity":0.3937007874015748},{"duration":0.08571424999999522,"midi":53,"time":42.171411000000006,"velocity":0.3937007874015748},{"duration":0.08571424999999522,"midi":62,"time":42.171411000000006,"velocity":0.3937007874015748},{"duration":0.08571425000000232,"midi":60,"time":42.342839500000004,"velocity":0.3937007874015748},{"duration":0.08571425000000232,"midi":48,"time":42.342839500000004,"velocity":0.3937007874015748},{"duration":0.08571425000000232,"midi":52,"time":42.342839500000004,"velocity":0.3937007874015748},{"duration":0.08571425000000232,"midi":64,"time":42.342839500000004,"velocity":0.3937007874015748},{"duration":0.08571425000000232,"midi":62,"time":42.514268,"velocity":0.3937007874015748},{"duration":0.08571425000000232,"midi":57,"time":42.514268,"velocity":0.3937007874015748},{"duration":0.08571425000000232,"midi":50,"time":42.514268,"velocity":0.3937007874015748},{"duration":0.08571425000000232,"midi":45,"time":42.514268,"velocity":0.3937007874015748},{"duration":0.08571424999999522,"midi":38,"time":42.685696500000006,"velocity":0.3937007874015748},{"duration":0.08571424999999522,"midi":50,"time":42.685696500000006,"velocity":0.3937007874015748},{"duration":0.08571425000000232,"midi":50,"time":42.857125,"velocity":0.3937007874015748},{"duration":0.08571425000000232,"midi":57,"time":42.857125,"velocity":0.3937007874015748},{"duration":0.08571425000000232,"midi":45,"time":42.857125,"velocity":0.3937007874015748},{"duration":0.08571425000000232,"midi":62,"time":42.857125,"velocity":0.3937007874015748},{"duration":0.08571425000000232,"midi":50,"time":43.0285535,"velocity":0.3937007874015748},{"duration":0.08571425000000232,"midi":38,"time":43.0285535,"velocity":0.3937007874015748},{"duration":0.08571424999999522,"midi":45,"time":43.199982000000006,"velocity":0.3937007874015748},{"duration":0.08571424999999522,"midi":62,"time":43.199982000000006,"velocity":0.3937007874015748},{"duration":0.08571424999999522,"midi":57,"time":43.199982000000006,"velocity":0.3937007874015748},{"duration":0.08571424999999522,"midi":50,"time":43.199982000000006,"velocity":0.3937007874015748},{"duration":0.08571425000000232,"midi":57,"time":43.3714105,"velocity":0.3937007874015748},{"duration":0.08571425000000232,"midi":62,"time":43.3714105,"velocity":0.3937007874015748},{"duration":0.08571425000000232,"midi":50,"time":43.3714105,"velocity":0.3937007874015748},{"duration":0.08571425000000232,"midi":45,"time":43.3714105,"velocity":0.3937007874015748},{"duration":0.08571425000000232,"midi":50,"time":43.542839,"velocity":0.3937007874015748},{"duration":0.08571425000000232,"midi":57,"time":43.542839,"velocity":0.3937007874015748},{"duration":0.08571425000000232,"midi":62,"time":43.542839,"velocity":0.3937007874015748},{"duration":0.08571425000000232,"midi":45,"time":43.542839,"velocity":0.3937007874015748},{"duration":0.08571424999999522,"midi":50,"time":43.714267500000005,"velocity":0.3937007874015748},{"duration":0.08571424999999522,"midi":57,"time":43.714267500000005,"velocity":0.3937007874015748},{"duration":0.08571424999999522,"midi":62,"time":43.714267500000005,"velocity":0.3937007874015748},{"duration":0.08571424999999522,"midi":45,"time":43.714267500000005,"velocity":0.3937007874015748},{"duration":0.08571425000000232,"midi":45,"time":43.885696,"velocity":0.3937007874015748},{"duration":0.08571425000000232,"midi":33,"time":43.885696,"velocity":0.3937007874015748},{"duration":0.08571425000000232,"midi":53,"time":44.0571245,"velocity":0.3937007874015748},{"duration":0.08571425000000232,"midi":38,"time":44.0571245,"velocity":0.3937007874015748},{"duration":0.08571425000000232,"midi":50,"time":44.0571245,"velocity":0.3937007874015748},{"duration":0.08571425000000232,"midi":41,"time":44.0571245,"velocity":0.3937007874015748},{"duration":0.08571425000000232,"midi":53,"time":44.3999815,"velocity":0.3937007874015748},{"duration":0.08571425000000232,"midi":38,"time":44.3999815,"velocity":0.3937007874015748},{"duration":0.08571425000000232,"midi":41,"time":44.3999815,"velocity":0.3937007874015748},{"duration":0.08571425000000232,"midi":50,"time":44.3999815,"velocity":0.3937007874015748},{"duration":0.08571425000000232,"midi":36,"time":44.57141,"velocity":0.3937007874015748},{"duration":0.08571425000000232,"midi":48,"time":44.57141,"velocity":0.3937007874015748},{"duration":0.08571424999999522,"midi":40,"time":44.742838500000005,"velocity":0.3937007874015748},{"duration":0.08571424999999522,"midi":43,"time":44.742838500000005,"velocity":0.3937007874015748},{"duration":0.08571424999999522,"midi":52,"time":44.742838500000005,"velocity":0.3937007874015748},{"duration":0.08571424999999522,"midi":55,"time":44.742838500000005,"velocity":0.3937007874015748},{"duration":0.08571425000000232,"midi":55,"time":45.0856955,"velocity":0.3937007874015748},{"duration":0.08571425000000232,"midi":52,"time":45.0856955,"velocity":0.3937007874015748},{"duration":0.08571425000000232,"midi":40,"time":45.0856955,"velocity":0.3937007874015748},{"duration":0.08571425000000232,"midi":43,"time":45.0856955,"velocity":0.3937007874015748},{"duration":0.08571424999999522,"midi":50,"time":45.257124000000005,"velocity":0.3937007874015748},{"duration":0.08571424999999522,"midi":38,"time":45.257124000000005,"velocity":0.3937007874015748},{"duration":0.08571425000000232,"midi":53,"time":45.4285525,"velocity":0.3937007874015748},{"duration":0.08571425000000232,"midi":41,"time":45.4285525,"velocity":0.3937007874015748},{"duration":0.08571425000000232,"midi":57,"time":45.4285525,"velocity":0.3937007874015748},{"duration":0.08571425000000232,"midi":45,"time":45.4285525,"velocity":0.3937007874015748},{"duration":0.08571424999999522,"midi":41,"time":45.771409500000004,"velocity":0.3937007874015748},{"duration":0.08571424999999522,"midi":45,"time":45.771409500000004,"velocity":0.3937007874015748},{"duration":0.08571424999999522,"midi":53,"time":45.771409500000004,"velocity":0.3937007874015748},{"duration":0.08571424999999522,"midi":57,"time":45.771409500000004,"velocity":0.3937007874015748},{"duration":0.08571425000000232,"midi":38,"time":45.942838,"velocity":0.3937007874015748},{"duration":0.08571425000000232,"midi":50,"time":45.942838,"velocity":0.3937007874015748},{"duration":0.08571424999999522,"midi":41,"time":46.11426650000001,"velocity":0.3937007874015748},{"duration":0.08571424999999522,"midi":57,"time":46.11426650000001,"velocity":0.3937007874015748},{"duration":0.08571424999999522,"midi":53,"time":46.11426650000001,"velocity":0.3937007874015748},{"duration":0.08571424999999522,"midi":45,"time":46.11426650000001,"velocity":0.3937007874015748},{"duration":0.08571425000000232,"midi":41,"time":46.4571235,"velocity":0.3937007874015748},{"duration":0.08571425000000232,"midi":57,"time":46.4571235,"velocity":0.3937007874015748},{"duration":0.08571425000000232,"midi":53,"time":46.4571235,"velocity":0.3937007874015748},{"duration":0.08571425000000232,"midi":45,"time":46.4571235,"velocity":0.3937007874015748},{"duration":0.08571424999999522,"midi":34,"time":46.628552000000006,"velocity":0.3937007874015748},{"duration":0.08571424999999522,"midi":46,"time":46.628552000000006,"velocity":0.3937007874015748},{"duration":0.08571425000000232,"midi":53,"time":46.799980500000004,"velocity":0.3937007874015748},{"duration":0.08571425000000232,"midi":50,"time":46.799980500000004,"velocity":0.3937007874015748},{"duration":0.08571425000000232,"midi":38,"time":46.799980500000004,"velocity":0.3937007874015748},{"duration":0.08571425000000232,"midi":41,"time":46.799980500000004,"velocity":0.3937007874015748},{"duration":0.08571424999999522,"midi":41,"time":47.142837500000006,"velocity":0.3937007874015748},{"duration":0.08571424999999522,"midi":38,"time":47.142837500000006,"velocity":0.3937007874015748},{"duration":0.08571424999999522,"midi":53,"time":47.142837500000006,"velocity":0.3937007874015748},{"duration":0.08571424999999522,"midi":50,"time":47.142837500000006,"velocity":0.3937007874015748},{"duration":0.08571425000000232,"midi":36,"time":47.314266,"velocity":0.3937007874015748},{"duration":0.08571425000000232,"midi":48,"time":47.314266,"velocity":0.3937007874015748},{"duration":0.08571425000000232,"midi":52,"time":47.4856945,"velocity":0.3937007874015748},{"duration":0.08571425000000232,"midi":43,"time":47.4856945,"velocity":0.3937007874015748},{"duration":0.08571425000000232,"midi":55,"time":47.4856945,"velocity":0.3937007874015748},{"duration":0.08571425000000232,"midi":40,"time":47.4856945,"velocity":0.3937007874015748},{"duration":0.08571425000000232,"midi":43,"time":47.8285515,"velocity":0.3937007874015748},{"duration":0.08571425000000232,"midi":40,"time":47.8285515,"velocity":0.3937007874015748},{"duration":0.08571425000000232,"midi":55,"time":47.8285515,"velocity":0.3937007874015748},{"duration":0.08571425000000232,"midi":52,"time":47.8285515,"velocity":0.3937007874015748},{"duration":0.08571425000000232,"midi":38,"time":47.99998,"velocity":0.3937007874015748},{"duration":0.08571425000000232,"midi":50,"time":47.99998,"velocity":0.3937007874015748},{"duration":0.08571424999999522,"midi":45,"time":48.171408500000005,"velocity":0.3937007874015748},{"duration":0.08571424999999522,"midi":41,"time":48.171408500000005,"velocity":0.3937007874015748},{"duration":0.08571424999999522,"midi":57,"time":48.171408500000005,"velocity":0.3937007874015748},{"duration":0.08571424999999522,"midi":53,"time":48.171408500000005,"velocity":0.3937007874015748},{"duration":0.08571425000000232,"midi":52,"time":48.342837,"velocity":0.3937007874015748},{"duration":0.08571425000000232,"midi":40,"time":48.342837,"velocity":0.3937007874015748},{"duration":0.08571425000000232,"midi":48,"time":48.5142655,"velocity":0.3937007874015748},{"duration":0.08571425000000232,"midi":60,"time":48.5142655,"velocity":0.3937007874015748},{"duration":0.08571425000000232,"midi":55,"time":48.5142655,"velocity":0.3937007874015748},{"duration":0.08571425000000232,"midi":43,"time":48.5142655,"velocity":0.3937007874015748},{"duration":0.08571424999999522,"midi":41,"time":48.685694000000005,"velocity":0.3937007874015748},{"duration":0.08571424999999522,"midi":53,"time":48.685694000000005,"velocity":0.3937007874015748},{"duration":0.08571425000000232,"midi":57,"time":48.8571225,"velocity":0.3937007874015748},{"duration":0.08571425000000232,"midi":62,"time":48.8571225,"velocity":0.3937007874015748},{"duration":0.08571425000000232,"midi":45,"time":48.8571225,"velocity":0.3937007874015748},{"duration":0.08571425000000232,"midi":50,"time":48.8571225,"velocity":0.3937007874015748},{"duration":0.08571425000000232,"midi":38,"time":49.028551,"velocity":0.3937007874015748},{"duration":0.08571425000000232,"midi":50,"time":49.028551,"velocity":0.3937007874015748},{"duration":0.08571424999999522,"midi":57,"time":49.199979500000005,"velocity":0.3937007874015748},{"duration":0.08571424999999522,"midi":40,"time":49.199979500000005,"velocity":0.3937007874015748},{"duration":0.08571424999999522,"midi":45,"time":49.199979500000005,"velocity":0.3937007874015748},{"duration":0.08571424999999522,"midi":52,"time":49.199979500000005,"velocity":0.3937007874015748},{"duration":0.08571425000000232,"midi":45,"time":49.371408,"velocity":0.3937007874015748},{"duration":0.08571425000000232,"midi":33,"time":49.371408,"velocity":0.3937007874015748},{"duration":0.08571425000000232,"midi":40,"time":49.5428365,"velocity":0.3937007874015748},{"duration":0.08571425000000232,"midi":52,"time":49.5428365,"velocity":0.3937007874015748},{"duration":0.08571425000000232,"midi":43,"time":49.5428365,"velocity":0.3937007874015748},{"duration":0.08571425000000232,"midi":55,"time":49.5428365,"velocity":0.3937007874015748},{"duration":0.08571425000000232,"midi":43,"time":49.8856935,"velocity":0.3937007874015748},{"duration":0.08571425000000232,"midi":55,"time":49.8856935,"velocity":0.3937007874015748},{"duration":0.08571425000000232,"midi":52,"time":49.8856935,"velocity":0.3937007874015748},{"duration":0.08571425000000232,"midi":40,"time":49.8856935,"velocity":0.3937007874015748},{"duration":0.08571424999999522,"midi":43,"time":50.05712200000001,"velocity":0.3937007874015748},{"duration":0.08571424999999522,"midi":31,"time":50.05712200000001,"velocity":0.3937007874015748},{"duration":0.08571425000000232,"midi":48,"time":50.228550500000004,"velocity":0.3937007874015748},{"duration":0.08571425000000232,"midi":36,"time":50.228550500000004,"velocity":0.3937007874015748},{"duration":0.08571425000000232,"midi":52,"time":50.228550500000004,"velocity":0.3937007874015748},{"duration":0.08571425000000232,"midi":40,"time":50.228550500000004,"velocity":0.3937007874015748},{"duration":0.08571424999999522,"midi":48,"time":50.57140750000001,"velocity":0.3937007874015748},{"duration":0.08571424999999522,"midi":36,"time":50.57140750000001,"velocity":0.3937007874015748},{"duration":0.08571424999999522,"midi":52,"time":50.57140750000001,"velocity":0.3937007874015748},{"duration":0.08571424999999522,"midi":40,"time":50.57140750000001,"velocity":0.3937007874015748},{"duration":0.08571425000000232,"midi":29,"time":50.742836000000004,"velocity":0.3937007874015748},{"duration":0.08571425000000232,"midi":41,"time":50.742836000000004,"velocity":0.3937007874015748},{"duration":0.08571425000000232,"midi":50,"time":50.9142645,"velocity":0.3937007874015748},{"duration":0.08571425000000232,"midi":38,"time":50.9142645,"velocity":0.3937007874015748},{"duration":0.08571425000000232,"midi":46,"time":50.9142645,"velocity":0.3937007874015748},{"duration":0.08571425000000232,"midi":34,"time":50.9142645,"velocity":0.3937007874015748},{"duration":0.08571425000000232,"midi":38,"time":51.257121500000004,"velocity":0.3937007874015748},{"duration":0.08571425000000232,"midi":50,"time":51.257121500000004,"velocity":0.3937007874015748},{"duration":0.08571425000000232,"midi":34,"time":51.257121500000004,"velocity":0.3937007874015748},{"duration":0.08571425000000232,"midi":46,"time":51.257121500000004,"velocity":0.3937007874015748},{"duration":0.08571425000000232,"midi":46,"time":51.42855,"velocity":0.3937007874015748},{"duration":0.08571425000000232,"midi":34,"time":51.42855,"velocity":0.3937007874015748},{"duration":0.08571424999999522,"midi":55,"time":51.599978500000006,"velocity":0.3937007874015748},{"duration":0.08571424999999522,"midi":52,"time":51.599978500000006,"velocity":0.3937007874015748},{"duration":0.08571424999999522,"midi":40,"time":51.599978500000006,"velocity":0.3937007874015748},{"duration":0.08571424999999522,"midi":43,"time":51.599978500000006,"velocity":0.3937007874015748},{"duration":0.08571425000000232,"midi":40,"time":51.9428355,"velocity":0.3937007874015748},{"duration":0.08571425000000232,"midi":55,"time":51.9428355,"velocity":0.3937007874015748},{"duration":0.08571425000000232,"midi":52,"time":51.9428355,"velocity":0.3937007874015748},{"duration":0.08571425000000232,"midi":43,"time":51.9428355,"velocity":0.3937007874015748},{"duration":0.08571424999999522,"midi":49,"time":52.114264000000006,"velocity":0.3937007874015748},{"duration":0.08571424999999522,"midi":37,"time":52.114264000000006,"velocity":0.3937007874015748},{"duration":0.08571425000000232,"midi":53,"time":52.2856925,"velocity":0.3937007874015748},{"duration":0.08571425000000232,"midi":45,"time":52.2856925,"velocity":0.3937007874015748},{"duration":0.08571425000000232,"midi":57,"time":52.2856925,"velocity":0.3937007874015748},{"duration":0.08571425000000232,"midi":41,"time":52.2856925,"velocity":0.3937007874015748},{"duration":0.08571424999999522,"midi":53,"time":52.628549500000005,"velocity":0.3937007874015748},{"duration":0.08571424999999522,"midi":41,"time":52.628549500000005,"velocity":0.3937007874015748},{"duration":0.08571424999999522,"midi":57,"time":52.628549500000005,"velocity":0.3937007874015748},{"duration":0.08571424999999522,"midi":45,"time":52.628549500000005,"velocity":0.3937007874015748},{"duration":0.08571425000000232,"midi":37,"time":52.799978,"velocity":0.3937007874015748},{"duration":0.08571425000000232,"midi":49,"time":52.799978,"velocity":0.3937007874015748},{"duration":0.08571425000000232,"midi":57,"time":52.9714065,"velocity":0.3937007874015748},{"duration":0.08571425000000232,"midi":49,"time":52.9714065,"velocity":0.3937007874015748},{"duration":0.08571425000000232,"midi":45,"time":52.9714065,"velocity":0.3937007874015748},{"duration":0.08571425000000232,"midi":61,"time":52.9714065,"velocity":0.3937007874015748},{"duration":0.08571425000000232,"midi":57,"time":53.3142635,"velocity":0.3937007874015748},{"duration":0.08571425000000232,"midi":61,"time":53.3142635,"velocity":0.3937007874015748},{"duration":0.08571425000000232,"midi":49,"time":53.3142635,"velocity":0.3937007874015748},{"duration":0.08571425000000232,"midi":45,"time":53.3142635,"velocity":0.3937007874015748},{"duration":0.08571425000000232,"midi":37,"time":53.485692,"velocity":0.3937007874015748},{"duration":0.08571425000000232,"midi":49,"time":53.485692,"velocity":0.3937007874015748},{"duration":0.08571424999999522,"midi":41,"time":53.657120500000005,"velocity":0.3937007874015748},{"duration":0.08571424999999522,"midi":45,"time":53.657120500000005,"velocity":0.3937007874015748},{"duration":0.08571424999999522,"midi":53,"time":53.657120500000005,"velocity":0.3937007874015748},{"duration":0.08571424999999522,"midi":57,"time":53.657120500000005,"velocity":0.3937007874015748},{"duration":0.08571425000000232,"midi":37,"time":53.828549,"velocity":0.3937007874015748},{"duration":0.08571425000000232,"midi":49,"time":53.828549,"velocity":0.3937007874015748},{"duration":0.08571424999999522,"midi":45,"time":53.99997750000001,"velocity":0.3937007874015748},{"duration":0.08571424999999522,"midi":57,"time":53.99997750000001,"velocity":0.3937007874015748},{"duration":0.08571424999999522,"midi":61,"time":53.99997750000001,"velocity":0.3937007874015748},{"duration":0.08571424999999522,"midi":49,"time":53.99997750000001,"velocity":0.3937007874015748},{"duration":0.08571425000000232,"midi":37,"time":54.171406000000005,"velocity":0.3937007874015748},{"duration":0.08571425000000232,"midi":49,"time":54.171406000000005,"velocity":0.3937007874015748},{"duration":0.08571425000000232,"midi":64,"time":54.3428345,"velocity":0.3937007874015748},{"duration":0.08571425000000232,"midi":57,"time":54.3428345,"velocity":0.3937007874015748},{"duration":0.08571425000000232,"midi":45,"time":54.3428345,"velocity":0.3937007874015748},{"duration":0.08571425000000232,"midi":52,"time":54.3428345,"velocity":0.3937007874015748},{"duration":0.08571425000000232,"midi":52,"time":54.685691500000004,"velocity":0.3937007874015748},{"duration":0.08571425000000232,"midi":69,"time":54.685691500000004,"velocity":0.3937007874015748},{"duration":0.08571425000000232,"midi":57,"time":54.685691500000004,"velocity":0.3937007874015748},{"duration":0.08571425000000232,"midi":64,"time":54.685691500000004,"velocity":0.3937007874015748},{"duration":0.08571425000000232,"midi":45,"time":54.85712,"velocity":0.3937007874015748},{"duration":0.08571425000000232,"midi":33,"time":54.85712,"velocity":0.3937007874015748},{"duration":0.08571424999999522,"midi":53,"time":55.02854850000001,"velocity":0.3937007874015748},{"duration":0.08571424999999522,"midi":41,"time":55.02854850000001,"velocity":0.3937007874015748},{"duration":0.08571424999999522,"midi":38,"time":55.02854850000001,"velocity":0.3937007874015748},{"duration":0.08571424999999522,"midi":50,"time":55.02854850000001,"velocity":0.3937007874015748},{"duration":0.08571425000000232,"midi":38,"time":55.3714055,"velocity":0.3937007874015748},{"duration":0.08571425000000232,"midi":53,"time":55.3714055,"velocity":0.3937007874015748},{"duration":0.08571425000000232,"midi":41,"time":55.3714055,"velocity":0.3937007874015748},{"duration":0.08571425000000232,"midi":50,"time":55.3714055,"velocity":0.3937007874015748},{"duration":0.08571424999999522,"midi":48,"time":55.542834000000006,"velocity":0.3937007874015748},{"duration":0.08571424999999522,"midi":36,"time":55.542834000000006,"velocity":0.3937007874015748},{"duration":0.08571425000000232,"midi":43,"time":55.714262500000004,"velocity":0.3937007874015748},{"duration":0.08571425000000232,"midi":55,"time":55.714262500000004,"velocity":0.3937007874015748},{"duration":0.08571425000000232,"midi":40,"time":55.714262500000004,"velocity":0.3937007874015748},{"duration":0.08571425000000232,"midi":52,"time":55.714262500000004,"velocity":0.3937007874015748},{"duration":0.08571424999999522,"midi":55,"time":56.057119500000006,"velocity":0.3937007874015748},{"duration":0.08571424999999522,"midi":52,"time":56.057119500000006,"velocity":0.3937007874015748},{"duration":0.08571424999999522,"midi":43,"time":56.057119500000006,"velocity":0.3937007874015748},{"duration":0.08571424999999522,"midi":40,"time":56.057119500000006,"velocity":0.3937007874015748},{"duration":0.08571425000000232,"midi":38,"time":56.228548,"velocity":0.3937007874015748},{"duration":0.08571425000000232,"midi":50,"time":56.228548,"velocity":0.3937007874015748},{"duration":0.08571425000000232,"midi":57,"time":56.3999765,"velocity":0.3937007874015748},{"duration":0.08571425000000232,"midi":41,"time":56.3999765,"velocity":0.3937007874015748},{"duration":0.08571425000000232,"midi":45,"time":56.3999765,"velocity":0.3937007874015748},{"duration":0.08571425000000232,"midi":53,"time":56.3999765,"velocity":0.3937007874015748},{"duration":0.08571425000000232,"midi":57,"time":56.7428335,"velocity":0.3937007874015748},{"duration":0.08571425000000232,"midi":53,"time":56.7428335,"velocity":0.3937007874015748},{"duration":0.08571425000000232,"midi":41,"time":56.7428335,"velocity":0.3937007874015748},{"duration":0.08571425000000232,"midi":45,"time":56.7428335,"velocity":0.3937007874015748},{"duration":0.08571425000000232,"midi":38,"time":56.914262,"velocity":0.3937007874015748},{"duration":0.08571425000000232,"midi":50,"time":56.914262,"velocity":0.3937007874015748},{"duration":0.08571424999999522,"midi":41,"time":57.085690500000005,"velocity":0.3937007874015748},{"duration":0.08571424999999522,"midi":45,"time":57.085690500000005,"velocity":0.3937007874015748},{"duration":0.08571424999999522,"midi":57,"time":57.085690500000005,"velocity":0.3937007874015748},{"duration":0.08571424999999522,"midi":53,"time":57.085690500000005,"velocity":0.3937007874015748},{"duration":0.08571425000000232,"midi":53,"time":57.4285475,"velocity":0.3937007874015748},{"duration":0.08571425000000232,"midi":57,"time":57.4285475,"velocity":0.3937007874015748},{"duration":0.08571425000000232,"midi":45,"time":57.4285475,"velocity":0.3937007874015748},{"duration":0.08571425000000232,"midi":41,"time":57.4285475,"velocity":0.3937007874015748},{"duration":0.08571424999999522,"midi":34,"time":57.599976000000005,"velocity":0.3937007874015748},{"duration":0.08571424999999522,"midi":46,"time":57.599976000000005,"velocity":0.3937007874015748},{"duration":0.08571425000000232,"midi":50,"time":57.7714045,"velocity":0.3937007874015748},{"duration":0.08571425000000232,"midi":53,"time":57.7714045,"velocity":0.3937007874015748},{"duration":0.08571425000000232,"midi":41,"time":57.7714045,"velocity":0.3937007874015748},{"duration":0.08571425000000232,"midi":38,"time":57.7714045,"velocity":0.3937007874015748},{"duration":0.08571425000000232,"midi":41,"time":58.114261500000005,"velocity":0.3937007874015748},{"duration":0.08571425000000232,"midi":38,"time":58.114261500000005,"velocity":0.3937007874015748},{"duration":0.08571425000000232,"midi":50,"time":58.114261500000005,"velocity":0.3937007874015748},{"duration":0.08571425000000232,"midi":53,"time":58.114261500000005,"velocity":0.3937007874015748},{"duration":0.08571425000000232,"midi":36,"time":58.28569,"velocity":0.3937007874015748},{"duration":0.08571425000000232,"midi":48,"time":58.28569,"velocity":0.3937007874015748},{"duration":0.08571424999999522,"midi":52,"time":58.45711850000001,"velocity":0.3937007874015748},{"duration":0.08571424999999522,"midi":40,"time":58.45711850000001,"velocity":0.3937007874015748},{"duration":0.08571424999999522,"midi":43,"time":58.45711850000001,"velocity":0.3937007874015748},{"duration":0.08571424999999522,"midi":55,"time":58.45711850000001,"velocity":0.3937007874015748},{"duration":0.08571425000000232,"midi":43,"time":58.7999755,"velocity":0.3937007874015748},{"duration":0.08571425000000232,"midi":52,"time":58.7999755,"velocity":0.3937007874015748},{"duration":0.08571425000000232,"midi":55,"time":58.7999755,"velocity":0.3937007874015748},{"duration":0.08571425000000232,"midi":40,"time":58.7999755,"velocity":0.3937007874015748},{"duration":0.08571424999999522,"midi":50,"time":58.97140400000001,"velocity":0.3937007874015748},{"duration":0.08571424999999522,"midi":38,"time":58.97140400000001,"velocity":0.3937007874015748},{"duration":0.08571425000000232,"midi":41,"time":59.142832500000004,"velocity":0.3937007874015748},{"duration":0.08571425000000232,"midi":57,"time":59.142832500000004,"velocity":0.3937007874015748},{"duration":0.08571425000000232,"midi":53,"time":59.142832500000004,"velocity":0.3937007874015748},{"duration":0.08571425000000232,"midi":45,"time":59.142832500000004,"velocity":0.3937007874015748},{"duration":0.08571425000000232,"midi":40,"time":59.314261,"velocity":0.3937007874015748},{"duration":0.08571425000000232,"midi":52,"time":59.314261,"velocity":0.3937007874015748},{"duration":0.08571424999999522,"midi":43,"time":59.48568950000001,"velocity":0.3937007874015748},{"duration":0.08571424999999522,"midi":55,"time":59.48568950000001,"velocity":0.3937007874015748},{"duration":0.08571424999999522,"midi":60,"time":59.48568950000001,"velocity":0.3937007874015748},{"duration":0.08571424999999522,"midi":48,"time":59.48568950000001,"velocity":0.3937007874015748},{"duration":0.08571425000000232,"midi":41,"time":59.657118000000004,"velocity":0.3937007874015748},{"duration":0.08571425000000232,"midi":53,"time":59.657118000000004,"velocity":0.3937007874015748},{"duration":0.08571425000000232,"midi":45,"time":59.8285465,"velocity":0.3937007874015748},{"duration":0.08571425000000232,"midi":62,"time":59.8285465,"velocity":0.3937007874015748},{"duration":0.08571425000000232,"midi":57,"time":59.8285465,"velocity":0.3937007874015748},{"duration":0.08571425000000232,"midi":50,"time":59.8285465,"velocity":0.3937007874015748},{"duration":0.08571424999999522,"midi":50,"time":59.999975000000006,"velocity":0.3937007874015748},{"duration":0.08571424999999522,"midi":38,"time":59.999975000000006,"velocity":0.3937007874015748},{"duration":0.08571425000000232,"midi":45,"time":60.171403500000004,"velocity":0.3937007874015748},{"duration":0.08571425000000232,"midi":57,"time":60.171403500000004,"velocity":0.3937007874015748},{"duration":0.08571425000000232,"midi":52,"time":60.171403500000004,"velocity":0.3937007874015748},{"duration":0.08571425000000232,"midi":40,"time":60.171403500000004,"velocity":0.3937007874015748},{"duration":0.08571425000000232,"midi":33,"time":60.342832,"velocity":0.3937007874015748},{"duration":0.08571425000000232,"midi":45,"time":60.342832,"velocity":0.3937007874015748},{"duration":0.08571424999999522,"midi":52,"time":60.514260500000006,"velocity":0.3937007874015748},{"duration":0.08571424999999522,"midi":55,"time":60.514260500000006,"velocity":0.3937007874015748},{"duration":0.08571424999999522,"midi":40,"time":60.514260500000006,"velocity":0.3937007874015748},{"duration":0.08571424999999522,"midi":43,"time":60.514260500000006,"velocity":0.3937007874015748},{"duration":0.08571425000000232,"midi":43,"time":60.8571175,"velocity":0.3937007874015748},{"duration":0.08571425000000232,"midi":55,"time":60.8571175,"velocity":0.3937007874015748},{"duration":0.08571425000000232,"midi":40,"time":60.8571175,"velocity":0.3937007874015748},{"duration":0.08571425000000232,"midi":52,"time":60.8571175,"velocity":0.3937007874015748},{"duration":0.08571424999999522,"midi":43,"time":61.028546000000006,"velocity":0.3937007874015748},{"duration":0.08571424999999522,"midi":31,"time":61.028546000000006,"velocity":0.3937007874015748},{"duration":0.08571425000000232,"midi":36,"time":61.1999745,"velocity":0.3937007874015748},{"duration":0.08571425000000232,"midi":48,"time":61.1999745,"velocity":0.3937007874015748},{"duration":0.08571425000000232,"midi":40,"time":61.1999745,"velocity":0.3937007874015748},{"duration":0.08571425000000232,"midi":52,"time":61.1999745,"velocity":0.3937007874015748},{"duration":0.08571424999999522,"midi":48,"time":61.542831500000005,"velocity":0.3937007874015748},{"duration":0.08571424999999522,"midi":52,"time":61.542831500000005,"velocity":0.3937007874015748},{"duration":0.08571424999999522,"midi":36,"time":61.542831500000005,"velocity":0.3937007874015748},{"duration":0.08571424999999522,"midi":40,"time":61.542831500000005,"velocity":0.3937007874015748},{"duration":0.08571425000000232,"midi":29,"time":61.71426,"velocity":0.3937007874015748},{"duration":0.08571425000000232,"midi":41,"time":61.71426,"velocity":0.3937007874015748},{"duration":0.08571424999999522,"midi":38,"time":61.88568850000001,"velocity":0.3937007874015748},{"duration":0.08571424999999522,"midi":50,"time":61.88568850000001,"velocity":0.3937007874015748},{"duration":0.08571424999999522,"midi":46,"time":61.88568850000001,"velocity":0.3937007874015748},{"duration":0.08571424999999522,"midi":34,"time":61.88568850000001,"velocity":0.3937007874015748},{"duration":0.08571425000000232,"midi":50,"time":62.2285455,"velocity":0.3937007874015748},{"duration":0.08571425000000232,"midi":38,"time":62.2285455,"velocity":0.3937007874015748},{"duration":0.08571425000000232,"midi":34,"time":62.2285455,"velocity":0.3937007874015748},{"duration":0.08571425000000232,"midi":46,"time":62.2285455,"velocity":0.3937007874015748},{"duration":0.08571424999999522,"midi":46,"time":62.39997400000001,"velocity":0.3937007874015748},{"duration":0.08571424999999522,"midi":34,"time":62.39997400000001,"velocity":0.3937007874015748},{"duration":0.08571425000000232,"midi":52,"time":62.571402500000005,"velocity":0.3937007874015748},{"duration":0.08571425000000232,"midi":43,"time":62.571402500000005,"velocity":0.3937007874015748},{"duration":0.08571425000000232,"midi":55,"time":62.571402500000005,"velocity":0.3937007874015748},{"duration":0.08571425000000232,"midi":40,"time":62.571402500000005,"velocity":0.3937007874015748},{"duration":0.08571424999999522,"midi":52,"time":62.91425950000001,"velocity":0.3937007874015748},{"duration":0.08571424999999522,"midi":55,"time":62.91425950000001,"velocity":0.3937007874015748},{"duration":0.08571424999999522,"midi":43,"time":62.91425950000001,"velocity":0.3937007874015748},{"duration":0.08571424999999522,"midi":40,"time":62.91425950000001,"velocity":0.3937007874015748},{"duration":0.08571425000000232,"midi":37,"time":63.085688000000005,"velocity":0.3937007874015748},{"duration":0.08571425000000232,"midi":49,"time":63.085688000000005,"velocity":0.3937007874015748},{"duration":0.08571425000000232,"midi":45,"time":63.2571165,"velocity":0.3937007874015748},{"duration":0.08571425000000232,"midi":57,"time":63.2571165,"velocity":0.3937007874015748},{"duration":0.08571425000000232,"midi":41,"time":63.2571165,"velocity":0.3937007874015748},{"duration":0.08571425000000232,"midi":53,"time":63.2571165,"velocity":0.3937007874015748},{"duration":0.08571425000000232,"midi":53,"time":63.599973500000004,"velocity":0.3937007874015748},{"duration":0.08571425000000232,"midi":57,"time":63.599973500000004,"velocity":0.3937007874015748},{"duration":0.08571425000000232,"midi":41,"time":63.599973500000004,"velocity":0.3937007874015748},{"duration":0.08571425000000232,"midi":45,"time":63.599973500000004,"velocity":0.3937007874015748},{"duration":0.08571425000000232,"midi":37,"time":63.771402,"velocity":0.3937007874015748},{"duration":0.08571425000000232,"midi":49,"time":63.771402,"velocity":0.3937007874015748},{"duration":0.08571425000000232,"midi":49,"time":63.94283050000001,"velocity":0.3937007874015748},{"duration":0.08571425000000232,"midi":57,"time":63.94283050000001,"velocity":0.3937007874015748},{"duration":0.08571425000000232,"midi":61,"time":63.94283050000001,"velocity":0.3937007874015748},{"duration":0.08571425000000232,"midi":45,"time":63.94283050000001,"velocity":0.3937007874015748},{"duration":0.08571424999999522,"midi":57,"time":64.28568750000001,"velocity":0.3937007874015748},{"duration":0.08571424999999522,"midi":49,"time":64.28568750000001,"velocity":0.3937007874015748},{"duration":0.08571424999999522,"midi":45,"time":64.28568750000001,"velocity":0.3937007874015748},{"duration":0.08571424999999522,"midi":61,"time":64.28568750000001,"velocity":0.3937007874015748},{"duration":0.08571425000000943,"midi":49,"time":64.457116,"velocity":0.3937007874015748},{"duration":0.08571425000000943,"midi":37,"time":64.457116,"velocity":0.3937007874015748},{"duration":0.08571424999999522,"midi":45,"time":64.6285445,"velocity":0.3937007874015748},{"duration":0.08571424999999522,"midi":41,"time":64.6285445,"velocity":0.3937007874015748},{"duration":0.08571424999999522,"midi":57,"time":64.6285445,"velocity":0.3937007874015748},{"duration":0.08571424999999522,"midi":53,"time":64.6285445,"velocity":0.3937007874015748},{"duration":0.08571424999999522,"midi":49,"time":64.79997300000001,"velocity":0.3937007874015748},{"duration":0.08571424999999522,"midi":37,"time":64.79997300000001,"velocity":0.3937007874015748},{"duration":0.08571425000000943,"midi":49,"time":64.9714015,"velocity":0.3937007874015748},{"duration":0.08571425000000943,"midi":45,"time":64.9714015,"velocity":0.3937007874015748},{"duration":0.08571425000000943,"midi":57,"time":64.9714015,"velocity":0.3937007874015748},{"duration":0.08571425000000943,"midi":61,"time":64.9714015,"velocity":0.3937007874015748},{"duration":0.08571424999999522,"midi":37,"time":65.14283,"velocity":0.3937007874015748},{"duration":0.08571424999999522,"midi":49,"time":65.14283,"velocity":0.3937007874015748},{"duration":0.08571424999999522,"midi":57,"time":65.31425850000001,"velocity":0.3937007874015748},{"duration":0.08571424999999522,"midi":52,"time":65.31425850000001,"velocity":0.3937007874015748},{"duration":0.08571424999999522,"midi":45,"time":65.31425850000001,"velocity":0.3937007874015748},{"duration":0.08571424999999522,"midi":64,"time":65.31425850000001,"velocity":0.3937007874015748},{"duration":0.08571424999999522,"midi":52,"time":65.6571155,"velocity":0.3937007874015748},{"duration":0.08571424999999522,"midi":57,"time":65.6571155,"velocity":0.3937007874015748},{"duration":0.08571424999999522,"midi":64,"time":65.6571155,"velocity":0.3937007874015748},{"duration":0.08571424999999522,"midi":69,"time":65.6571155,"velocity":0.3937007874015748},{"duration":0.08571424999999522,"midi":58,"time":65.82854400000001,"velocity":0.3937007874015748},{"duration":0.08571424999999522,"midi":46,"time":65.82854400000001,"velocity":0.3937007874015748},{"duration":0.08571425000000943,"midi":62,"time":65.9999725,"velocity":0.3937007874015748},{"duration":0.08571425000000943,"midi":50,"time":65.9999725,"velocity":0.3937007874015748},{"duration":0.08571425000000943,"midi":65,"time":65.9999725,"velocity":0.3937007874015748},{"duration":0.08571425000000943,"midi":53,"time":65.9999725,"velocity":0.3937007874015748},{"duration":0.08571424999999522,"midi":50,"time":66.34282950000001,"velocity":0.3937007874015748},{"duration":0.08571424999999522,"midi":62,"time":66.34282950000001,"velocity":0.3937007874015748},{"duration":0.08571424999999522,"midi":65,"time":66.34282950000001,"velocity":0.3937007874015748},{"duration":0.08571424999999522,"midi":53,"time":66.34282950000001,"velocity":0.3937007874015748},{"duration":0.08571425000000943,"midi":48,"time":66.514258,"velocity":0.3937007874015748},{"duration":0.08571425000000943,"midi":60,"time":66.514258,"velocity":0.3937007874015748},{"duration":0.08571424999999522,"midi":67,"time":66.6856865,"velocity":0.3937007874015748},{"duration":0.08571424999999522,"midi":52,"time":66.6856865,"velocity":0.3937007874015748},{"duration":0.08571424999999522,"midi":55,"time":66.6856865,"velocity":0.3937007874015748},{"duration":0.08571424999999522,"midi":64,"time":66.6856865,"velocity":0.3937007874015748},{"duration":0.08571425000000943,"midi":64,"time":67.0285435,"velocity":0.3937007874015748},{"duration":0.08571425000000943,"midi":52,"time":67.0285435,"velocity":0.3937007874015748},{"duration":0.08571425000000943,"midi":55,"time":67.0285435,"velocity":0.3937007874015748},{"duration":0.08571425000000943,"midi":67,"time":67.0285435,"velocity":0.3937007874015748},{"duration":0.08571424999999522,"midi":62,"time":67.199972,"velocity":0.3937007874015748},{"duration":0.08571424999999522,"midi":50,"time":67.199972,"velocity":0.3937007874015748},{"duration":0.08571424999999522,"midi":69,"time":67.37140050000001,"velocity":0.3937007874015748},{"duration":0.08571424999999522,"midi":65,"time":67.37140050000001,"velocity":0.3937007874015748},{"duration":0.08571424999999522,"midi":57,"time":67.37140050000001,"velocity":0.3937007874015748},{"duration":0.08571424999999522,"midi":53,"time":67.37140050000001,"velocity":0.3937007874015748},{"duration":0.08571424999999522,"midi":65,"time":67.7142575,"velocity":0.3937007874015748},{"duration":0.08571424999999522,"midi":69,"time":67.7142575,"velocity":0.3937007874015748},{"duration":0.08571424999999522,"midi":53,"time":67.7142575,"velocity":0.3937007874015748},{"duration":0.08571424999999522,"midi":57,"time":67.7142575,"velocity":0.3937007874015748},{"duration":0.08571424999999522,"midi":50,"time":67.885686,"velocity":0.3937007874015748},{"duration":0.08571424999999522,"midi":62,"time":67.885686,"velocity":0.3937007874015748},{"duration":0.08571424999999522,"midi":53,"time":68.05711450000001,"velocity":0.3937007874015748},{"duration":0.08571424999999522,"midi":65,"time":68.05711450000001,"velocity":0.3937007874015748},{"duration":0.08571424999999522,"midi":57,"time":68.05711450000001,"velocity":0.3937007874015748},{"duration":0.08571424999999522,"midi":69,"time":68.05711450000001,"velocity":0.3937007874015748},{"duration":0.08571424999999522,"midi":69,"time":68.3999715,"velocity":0.3937007874015748},{"duration":0.08571424999999522,"midi":57,"time":68.3999715,"velocity":0.3937007874015748},{"duration":0.08571424999999522,"midi":65,"time":68.3999715,"velocity":0.3937007874015748},{"duration":0.08571424999999522,"midi":53,"time":68.3999715,"velocity":0.3937007874015748},{"duration":0.08571424999999522,"midi":46,"time":68.57140000000001,"velocity":0.3937007874015748},{"duration":0.08571424999999522,"midi":58,"time":68.57140000000001,"velocity":0.3937007874015748},{"duration":0.08571425000000943,"midi":53,"time":68.7428285,"velocity":0.3937007874015748},{"duration":0.08571425000000943,"midi":50,"time":68.7428285,"velocity":0.3937007874015748},{"duration":0.08571425000000943,"midi":65,"time":68.7428285,"velocity":0.3937007874015748},{"duration":0.08571425000000943,"midi":62,"time":68.7428285,"velocity":0.3937007874015748},{"duration":0.08571424999999522,"midi":53,"time":69.08568550000001,"velocity":0.3937007874015748},{"duration":0.08571424999999522,"midi":50,"time":69.08568550000001,"velocity":0.3937007874015748},{"duration":0.08571424999999522,"midi":62,"time":69.08568550000001,"velocity":0.3937007874015748},{"duration":0.08571424999999522,"midi":65,"time":69.08568550000001,"velocity":0.3937007874015748},{"duration":0.08571425000000943,"midi":60,"time":69.257114,"velocity":0.3937007874015748},{"duration":0.08571425000000943,"midi":48,"time":69.257114,"velocity":0.3937007874015748},{"duration":0.08571424999999522,"midi":64,"time":69.4285425,"velocity":0.3937007874015748},{"duration":0.08571424999999522,"midi":55,"time":69.4285425,"velocity":0.3937007874015748},{"duration":0.08571424999999522,"midi":52,"time":69.4285425,"velocity":0.3937007874015748},{"duration":0.08571424999999522,"midi":67,"time":69.4285425,"velocity":0.3937007874015748},{"duration":0.08571425000000943,"midi":52,"time":69.7713995,"velocity":0.3937007874015748},{"duration":0.08571425000000943,"midi":64,"time":69.7713995,"velocity":0.3937007874015748},{"duration":0.08571425000000943,"midi":67,"time":69.7713995,"velocity":0.3937007874015748},{"duration":0.08571425000000943,"midi":55,"time":69.7713995,"velocity":0.3937007874015748},{"duration":0.08571424999999522,"midi":50,"time":69.942828,"velocity":0.3937007874015748},{"duration":0.08571424999999522,"midi":62,"time":69.942828,"velocity":0.3937007874015748},{"duration":0.08571424999999522,"midi":65,"time":70.11425650000001,"velocity":0.3937007874015748},{"duration":0.08571424999999522,"midi":53,"time":70.11425650000001,"velocity":0.3937007874015748},{"duration":0.08571424999999522,"midi":57,"time":70.11425650000001,"velocity":0.3937007874015748},{"duration":0.08571424999999522,"midi":69,"time":70.11425650000001,"velocity":0.3937007874015748},{"duration":0.08571425000000943,"midi":62,"time":70.285685,"velocity":0.3937007874015748},{"duration":0.08571425000000943,"midi":50,"time":70.285685,"velocity":0.3937007874015748},{"duration":0.08571424999999522,"midi":67,"time":70.4571135,"velocity":0.3937007874015748},{"duration":0.08571424999999522,"midi":55,"time":70.4571135,"velocity":0.3937007874015748},{"duration":0.08571424999999522,"midi":60,"time":70.4571135,"velocity":0.3937007874015748},{"duration":0.08571424999999522,"midi":72,"time":70.4571135,"velocity":0.3937007874015748},{"duration":0.08571424999999522,"midi":62,"time":70.62854200000001,"velocity":0.3937007874015748},{"duration":0.08571424999999522,"midi":50,"time":70.62854200000001,"velocity":0.3937007874015748},{"duration":0.08571425000000943,"midi":69,"time":70.7999705,"velocity":0.3937007874015748},{"duration":0.08571425000000943,"midi":57,"time":70.7999705,"velocity":0.3937007874015748},{"duration":0.08571425000000943,"midi":62,"time":70.7999705,"velocity":0.3937007874015748},{"duration":0.08571425000000943,"midi":74,"time":70.7999705,"velocity":0.3937007874015748},{"duration":0.08571424999999522,"midi":50,"time":70.971399,"velocity":0.3937007874015748},{"duration":0.08571424999999522,"midi":62,"time":70.971399,"velocity":0.3937007874015748},{"duration":0.08571424999999522,"midi":53,"time":71.14282750000001,"velocity":0.3937007874015748},{"duration":0.08571424999999522,"midi":57,"time":71.14282750000001,"velocity":0.3937007874015748},{"duration":0.08571424999999522,"midi":65,"time":71.14282750000001,"velocity":0.3937007874015748},{"duration":0.08571424999999522,"midi":69,"time":71.14282750000001,"velocity":0.3937007874015748},{"duration":0.08571425000000943,"midi":46,"time":71.314256,"velocity":0.3937007874015748},{"duration":0.08571425000000943,"midi":58,"time":71.314256,"velocity":0.3937007874015748},{"duration":0.08571424999999522,"midi":62,"time":71.4856845,"velocity":0.3937007874015748},{"duration":0.08571424999999522,"midi":65,"time":71.4856845,"velocity":0.3937007874015748},{"duration":0.08571424999999522,"midi":50,"time":71.4856845,"velocity":0.3937007874015748},{"duration":0.08571424999999522,"midi":53,"time":71.4856845,"velocity":0.3937007874015748},{"duration":0.08571425000000943,"midi":53,"time":71.8285415,"velocity":0.3937007874015748},{"duration":0.08571425000000943,"midi":65,"time":71.8285415,"velocity":0.3937007874015748},{"duration":0.08571425000000943,"midi":62,"time":71.8285415,"velocity":0.3937007874015748},{"duration":0.08571425000000943,"midi":50,"time":71.8285415,"velocity":0.3937007874015748},{"duration":0.08571424999999522,"midi":60,"time":71.99997,"velocity":0.3937007874015748},{"duration":0.08571424999999522,"midi":48,"time":71.99997,"velocity":0.3937007874015748},{"duration":0.08571424999999522,"midi":55,"time":72.17139850000001,"velocity":0.3937007874015748},{"duration":0.08571424999999522,"midi":67,"time":72.17139850000001,"velocity":0.3937007874015748},{"duration":0.08571424999999522,"midi":52,"time":72.17139850000001,"velocity":0.3937007874015748},{"duration":0.08571424999999522,"midi":64,"time":72.17139850000001,"velocity":0.3937007874015748},{"duration":0.08571424999999522,"midi":67,"time":72.5142555,"velocity":0.3937007874015748},{"duration":0.08571424999999522,"midi":64,"time":72.5142555,"velocity":0.3937007874015748},{"duration":0.08571424999999522,"midi":52,"time":72.5142555,"velocity":0.3937007874015748},{"duration":0.08571424999999522,"midi":55,"time":72.5142555,"velocity":0.3937007874015748},{"duration":0.08571424999999522,"midi":50,"time":72.68568400000001,"velocity":0.3937007874015748},{"duration":0.08571424999999522,"midi":62,"time":72.68568400000001,"velocity":0.3937007874015748},{"duration":0.08571425000000943,"midi":57,"time":72.8571125,"velocity":0.3937007874015748},{"duration":0.08571425000000943,"midi":69,"time":72.8571125,"velocity":0.3937007874015748},{"duration":0.08571425000000943,"midi":65,"time":72.8571125,"velocity":0.3937007874015748},{"duration":0.08571425000000943,"midi":53,"time":72.8571125,"velocity":0.3937007874015748},{"duration":0.08571424999999522,"midi":65,"time":73.19996950000001,"velocity":0.3937007874015748},{"duration":0.08571424999999522,"midi":57,"time":73.19996950000001,"velocity":0.3937007874015748},{"duration":0.08571424999999522,"midi":69,"time":73.19996950000001,"velocity":0.3937007874015748},{"duration":0.08571424999999522,"midi":53,"time":73.19996950000001,"velocity":0.3937007874015748},{"duration":0.08571425000000943,"midi":62,"time":73.371398,"velocity":0.3937007874015748},{"duration":0.08571425000000943,"midi":50,"time":73.371398,"velocity":0.3937007874015748},{"duration":0.08571424999999522,"midi":69,"time":73.5428265,"velocity":0.3937007874015748},{"duration":0.08571424999999522,"midi":65,"time":73.5428265,"velocity":0.3937007874015748},{"duration":0.08571424999999522,"midi":53,"time":73.5428265,"velocity":0.3937007874015748},{"duration":0.08571424999999522,"midi":57,"time":73.5428265,"velocity":0.3937007874015748},{"duration":0.08571425000000943,"midi":57,"time":73.8856835,"velocity":0.3937007874015748},{"duration":0.08571425000000943,"midi":53,"time":73.8856835,"velocity":0.3937007874015748},{"duration":0.08571425000000943,"midi":69,"time":73.8856835,"velocity":0.3937007874015748},{"duration":0.08571425000000943,"midi":65,"time":73.8856835,"velocity":0.3937007874015748},{"duration":0.08571424999999522,"midi":58,"time":74.057112,"velocity":0.3937007874015748},{"duration":0.08571424999999522,"midi":46,"time":74.057112,"velocity":0.3937007874015748},{"duration":0.08571424999999522,"midi":50,"time":74.22854050000001,"velocity":0.3937007874015748},{"duration":0.08571424999999522,"midi":55,"time":74.22854050000001,"velocity":0.3937007874015748},{"duration":0.08571424999999522,"midi":62,"time":74.22854050000001,"velocity":0.3937007874015748},{"duration":0.08571424999999522,"midi":67,"time":74.22854050000001,"velocity":0.3937007874015748},{"duration":0.08571424999999522,"midi":62,"time":74.5713975,"velocity":0.3937007874015748},{"duration":0.08571424999999522,"midi":67,"time":74.5713975,"velocity":0.3937007874015748},{"duration":0.08571424999999522,"midi":50,"time":74.5713975,"velocity":0.3937007874015748},{"duration":0.08571424999999522,"midi":55,"time":74.5713975,"velocity":0.3937007874015748},{"duration":0.08571424999999522,"midi":48,"time":74.74282600000001,"velocity":0.3937007874015748},{"duration":0.08571424999999522,"midi":60,"time":74.74282600000001,"velocity":0.3937007874015748},{"duration":0.08571425000000943,"midi":69,"time":74.9142545,"velocity":0.3937007874015748},{"duration":0.08571425000000943,"midi":57,"time":74.9142545,"velocity":0.3937007874015748},{"duration":0.08571425000000943,"midi":64,"time":74.9142545,"velocity":0.3937007874015748},{"duration":0.08571425000000943,"midi":52,"time":74.9142545,"velocity":0.3937007874015748},{"duration":0.08571424999999522,"midi":52,"time":75.25711150000001,"velocity":0.3937007874015748},{"duration":0.08571424999999522,"midi":57,"time":75.25711150000001,"velocity":0.3937007874015748},{"duration":0.08571424999999522,"midi":64,"time":75.25711150000001,"velocity":0.3937007874015748},{"duration":0.08571424999999522,"midi":69,"time":75.25711150000001,"velocity":0.3937007874015748},{"duration":0.08571425000000943,"midi":62,"time":75.42854,"velocity":0.3937007874015748},{"duration":0.08571425000000943,"midi":50,"time":75.42854,"velocity":0.3937007874015748},{"duration":0.08571424999999522,"midi":70,"time":75.5999685,"velocity":0.3937007874015748},{"duration":0.08571424999999522,"midi":65,"time":75.5999685,"velocity":0.3937007874015748},{"duration":0.08571424999999522,"midi":53,"time":75.5999685,"velocity":0.3937007874015748},{"duration":0.08571424999999522,"midi":58,"time":75.5999685,"velocity":0.3937007874015748},{"duration":0.08571424999999522,"midi":55,"time":75.94282550000001,"velocity":0.3937007874015748},{"duration":0.08571424999999522,"midi":71,"time":75.94282550000001,"velocity":0.3937007874015748},{"duration":0.08571424999999522,"midi":67,"time":75.94282550000001,"velocity":0.3937007874015748},{"duration":0.08571424999999522,"midi":59,"time":75.94282550000001,"velocity":0.3937007874015748},{"duration":0.08571425000000943,"midi":60,"time":76.114254,"velocity":0.3937007874015748},{"duration":0.08571425000000943,"midi":57,"time":76.114254,"velocity":0.3937007874015748},{"duration":0.08571425000000943,"midi":69,"time":76.114254,"velocity":0.3937007874015748},{"duration":0.08571425000000943,"midi":72,"time":76.114254,"velocity":0.3937007874015748},{"duration":0.08571425000000943,"midi":60,"time":76.37139675,"velocity":0.3937007874015748},{"duration":0.08571425000000943,"midi":57,"time":76.37139675,"velocity":0.3937007874015748},{"duration":0.08571425000000943,"midi":72,"time":76.37139675,"velocity":0.3937007874015748},{"duration":0.08571425000000943,"midi":69,"time":76.37139675,"velocity":0.3937007874015748},{"duration":0.08571425000000943,"midi":60,"time":76.6285395,"velocity":0.3937007874015748},{"duration":0.08571425000000943,"midi":69,"time":76.6285395,"velocity":0.3937007874015748},{"duration":0.08571425000000943,"midi":72,"time":76.6285395,"velocity":0.3937007874015748},{"duration":0.08571425000000943,"midi":57,"time":76.6285395,"velocity":0.3937007874015748},{"duration":0.08571424999999522,"midi":47,"time":76.799968,"velocity":0.3937007874015748},{"duration":0.08571424999999522,"midi":59,"time":76.799968,"velocity":0.3937007874015748},{"duration":0.08571424999999522,"midi":54,"time":76.97139650000001,"velocity":0.3937007874015748},{"duration":0.08571424999999522,"midi":63,"time":76.97139650000001,"velocity":0.3937007874015748},{"duration":0.08571424999999522,"midi":51,"time":76.97139650000001,"velocity":0.3937007874015748},{"duration":0.08571424999999522,"midi":66,"time":76.97139650000001,"velocity":0.3937007874015748},{"duration":0.08571424999999522,"midi":66,"time":77.3142535,"velocity":0.3937007874015748},{"duration":0.08571424999999522,"midi":51,"time":77.3142535,"velocity":0.3937007874015748},{"duration":0.08571424999999522,"midi":63,"time":77.3142535,"velocity":0.3937007874015748},{"duration":0.08571424999999522,"midi":54,"time":77.3142535,"velocity":0.3937007874015748},{"duration":0.08571424999999522,"midi":49,"time":77.48568200000001,"velocity":0.3937007874015748},{"duration":0.08571424999999522,"midi":61,"time":77.48568200000001,"velocity":0.3937007874015748},{"duration":0.08571425000000943,"midi":53,"time":77.6571105,"velocity":0.3937007874015748},{"duration":0.08571425000000943,"midi":65,"time":77.6571105,"velocity":0.3937007874015748},{"duration":0.08571425000000943,"midi":56,"time":77.6571105,"velocity":0.3937007874015748},{"duration":0.08571425000000943,"midi":68,"time":77.6571105,"velocity":0.3937007874015748},{"duration":0.08571424999999522,"midi":53,"time":77.99996750000001,"velocity":0.3937007874015748},{"duration":0.08571424999999522,"midi":65,"time":77.99996750000001,"velocity":0.3937007874015748},{"duration":0.08571424999999522,"midi":56,"time":77.99996750000001,"velocity":0.3937007874015748},{"duration":0.08571424999999522,"midi":68,"time":77.99996750000001,"velocity":0.3937007874015748},{"duration":0.08571425000000943,"midi":63,"time":78.171396,"velocity":0.3937007874015748},{"duration":0.08571425000000943,"midi":51,"time":78.171396,"velocity":0.3937007874015748},{"duration":0.08571424999999522,"midi":66,"time":78.3428245,"velocity":0.3937007874015748},{"duration":0.08571424999999522,"midi":70,"time":78.3428245,"velocity":0.3937007874015748},{"duration":0.08571424999999522,"midi":54,"time":78.3428245,"velocity":0.3937007874015748},{"duration":0.08571424999999522,"midi":58,"time":78.3428245,"velocity":0.3937007874015748},{"duration":0.08571425000000943,"midi":70,"time":78.6856815,"velocity":0.3937007874015748},{"duration":0.08571425000000943,"midi":66,"time":78.6856815,"velocity":0.3937007874015748},{"duration":0.08571425000000943,"midi":58,"time":78.6856815,"velocity":0.3937007874015748},{"duration":0.08571425000000943,"midi":54,"time":78.6856815,"velocity":0.3937007874015748},{"duration":0.08571424999999522,"midi":63,"time":78.85711,"velocity":0.3937007874015748},{"duration":0.08571424999999522,"midi":51,"time":78.85711,"velocity":0.3937007874015748},{"duration":0.08571424999999522,"midi":58,"time":79.02853850000001,"velocity":0.3937007874015748},{"duration":0.08571424999999522,"midi":66,"time":79.02853850000001,"velocity":0.3937007874015748},{"duration":0.08571424999999522,"midi":70,"time":79.02853850000001,"velocity":0.3937007874015748},{"duration":0.08571424999999522,"midi":54,"time":79.02853850000001,"velocity":0.3937007874015748},{"duration":0.08571424999999522,"midi":66,"time":79.3713955,"velocity":0.3937007874015748},{"duration":0.08571424999999522,"midi":54,"time":79.3713955,"velocity":0.3937007874015748},{"duration":0.08571424999999522,"midi":70,"time":79.3713955,"velocity":0.3937007874015748},{"duration":0.08571424999999522,"midi":58,"time":79.3713955,"velocity":0.3937007874015748},{"duration":0.08571424999999522,"midi":59,"time":79.54282400000001,"velocity":0.3937007874015748},{"duration":0.08571424999999522,"midi":47,"time":79.54282400000001,"velocity":0.3937007874015748},{"duration":0.08571425000000943,"midi":51,"time":79.7142525,"velocity":0.3937007874015748},{"duration":0.08571425000000943,"midi":54,"time":79.7142525,"velocity":0.3937007874015748},{"duration":0.08571425000000943,"midi":66,"time":79.7142525,"velocity":0.3937007874015748},{"duration":0.08571425000000943,"midi":63,"time":79.7142525,"velocity":0.3937007874015748},{"duration":0.08571424999999522,"midi":51,"time":80.05710950000001,"velocity":0.3937007874015748},{"duration":0.08571424999999522,"midi":63,"time":80.05710950000001,"velocity":0.3937007874015748},{"duration":0.08571424999999522,"midi":54,"time":80.05710950000001,"velocity":0.3937007874015748},{"duration":0.08571424999999522,"midi":66,"time":80.05710950000001,"velocity":0.3937007874015748},{"duration":0.08571425000000943,"midi":49,"time":80.228538,"velocity":0.3937007874015748},{"duration":0.08571425000000943,"midi":61,"time":80.228538,"velocity":0.3937007874015748},{"duration":0.08571424999999522,"midi":68,"time":80.3999665,"velocity":0.3937007874015748},{"duration":0.08571424999999522,"midi":65,"time":80.3999665,"velocity":0.3937007874015748},{"duration":0.08571424999999522,"midi":53,"time":80.3999665,"velocity":0.3937007874015748},{"duration":0.08571424999999522,"midi":56,"time":80.3999665,"velocity":0.3937007874015748},{"duration":0.08571425000000943,"midi":68,"time":80.7428235,"velocity":0.3937007874015748},{"duration":0.08571425000000943,"midi":65,"time":80.7428235,"velocity":0.3937007874015748},{"duration":0.08571425000000943,"midi":56,"time":80.7428235,"velocity":0.3937007874015748},{"duration":0.08571425000000943,"midi":53,"time":80.7428235,"velocity":0.3937007874015748},{"duration":0.08571424999999522,"midi":51,"time":80.914252,"velocity":0.3937007874015748},{"duration":0.08571424999999522,"midi":63,"time":80.914252,"velocity":0.3937007874015748},{"duration":0.08571424999999522,"midi":54,"time":81.08568050000001,"velocity":0.3937007874015748},{"duration":0.08571424999999522,"midi":70,"time":81.08568050000001,"velocity":0.3937007874015748},{"duration":0.08571424999999522,"midi":58,"time":81.08568050000001,"velocity":0.3937007874015748},{"duration":0.08571424999999522,"midi":66,"time":81.08568050000001,"velocity":0.3937007874015748},{"duration":0.08571425000000943,"midi":63,"time":81.257109,"velocity":0.3937007874015748},{"duration":0.08571425000000943,"midi":51,"time":81.257109,"velocity":0.3937007874015748},{"duration":0.08571424999999522,"midi":61,"time":81.4285375,"velocity":0.3937007874015748},{"duration":0.08571424999999522,"midi":68,"time":81.4285375,"velocity":0.3937007874015748},{"duration":0.08571424999999522,"midi":73,"time":81.4285375,"velocity":0.3937007874015748},{"duration":0.08571424999999522,"midi":56,"time":81.4285375,"velocity":0.3937007874015748},{"duration":0.08571424999999522,"midi":51,"time":81.59996600000001,"velocity":0.3937007874015748},{"duration":0.08571424999999522,"midi":63,"time":81.59996600000001,"velocity":0.3937007874015748},{"duration":0.08571425000000943,"midi":70,"time":81.7713945,"velocity":0.3937007874015748},{"duration":0.08571425000000943,"midi":75,"time":81.7713945,"velocity":0.3937007874015748},{"duration":0.08571425000000943,"midi":58,"time":81.7713945,"velocity":0.3937007874015748},{"duration":0.08571425000000943,"midi":63,"time":81.7713945,"velocity":0.3937007874015748},{"duration":0.08571424999999522,"midi":51,"time":81.942823,"velocity":0.3937007874015748},{"duration":0.08571424999999522,"midi":63,"time":81.942823,"velocity":0.3937007874015748},{"duration":0.08571424999999522,"midi":54,"time":82.11425150000001,"velocity":0.3937007874015748},{"duration":0.08571424999999522,"midi":66,"time":82.11425150000001,"velocity":0.3937007874015748},{"duration":0.08571424999999522,"midi":70,"time":82.11425150000001,"velocity":0.3937007874015748},{"duration":0.08571424999999522,"midi":58,"time":82.11425150000001,"velocity":0.3937007874015748},{"duration":0.08571425000000943,"midi":47,"time":82.28568,"velocity":0.3937007874015748},{"duration":0.08571425000000943,"midi":59,"time":82.28568,"velocity":0.3937007874015748},{"duration":0.08571424999999522,"midi":63,"time":82.4571085,"velocity":0.3937007874015748},{"duration":0.08571424999999522,"midi":66,"time":82.4571085,"velocity":0.3937007874015748},{"duration":0.08571424999999522,"midi":51,"time":82.4571085,"velocity":0.3937007874015748},{"duration":0.08571424999999522,"midi":54,"time":82.4571085,"velocity":0.3937007874015748},{"duration":0.08571425000000943,"midi":54,"time":82.7999655,"velocity":0.3937007874015748},{"duration":0.08571425000000943,"midi":66,"time":82.7999655,"velocity":0.3937007874015748},{"duration":0.08571425000000943,"midi":51,"time":82.7999655,"velocity":0.3937007874015748},{"duration":0.08571425000000943,"midi":63,"time":82.7999655,"velocity":0.3937007874015748},{"duration":0.08571424999999522,"midi":61,"time":82.971394,"velocity":0.3937007874015748},{"duration":0.08571424999999522,"midi":49,"time":82.971394,"velocity":0.3937007874015748},{"duration":0.08571424999999522,"midi":65,"time":83.14282250000001,"velocity":0.3937007874015748},{"duration":0.08571424999999522,"midi":56,"time":83.14282250000001,"velocity":0.3937007874015748},{"duration":0.08571424999999522,"midi":68,"time":83.14282250000001,"velocity":0.3937007874015748},{"duration":0.08571424999999522,"midi":53,"time":83.14282250000001,"velocity":0.3937007874015748},{"duration":0.08571424999999522,"midi":53,"time":83.4856795,"velocity":0.3937007874015748},{"duration":0.08571424999999522,"midi":68,"time":83.4856795,"velocity":0.3937007874015748},{"duration":0.08571424999999522,"midi":65,"time":83.4856795,"velocity":0.3937007874015748},{"duration":0.08571424999999522,"midi":56,"time":83.4856795,"velocity":0.3937007874015748},{"duration":0.08571424999999522,"midi":63,"time":83.65710800000001,"velocity":0.3937007874015748},{"duration":0.08571424999999522,"midi":51,"time":83.65710800000001,"velocity":0.3937007874015748},{"duration":0.08571424999999522,"midi":66,"time":83.82853650000001,"velocity":0.3937007874015748},{"duration":0.08571424999999522,"midi":58,"time":83.82853650000001,"velocity":0.3937007874015748},{"duration":0.08571424999999522,"midi":54,"time":83.82853650000001,"velocity":0.3937007874015748},{"duration":0.08571424999999522,"midi":70,"time":83.82853650000001,"velocity":0.3937007874015748},{"duration":0.08571424999999522,"midi":70,"time":84.17139350000001,"velocity":0.3937007874015748},{"duration":0.08571424999999522,"midi":58,"time":84.17139350000001,"velocity":0.3937007874015748},{"duration":0.08571424999999522,"midi":66,"time":84.17139350000001,"velocity":0.3937007874015748},{"duration":0.08571424999999522,"midi":54,"time":84.17139350000001,"velocity":0.3937007874015748},{"duration":0.08571424999999522,"midi":51,"time":84.34282200000001,"velocity":0.3937007874015748},{"duration":0.08571424999999522,"midi":63,"time":84.34282200000001,"velocity":0.3937007874015748},{"duration":0.08571425000000943,"midi":54,"time":84.5142505,"velocity":0.3937007874015748},{"duration":0.08571425000000943,"midi":66,"time":84.5142505,"velocity":0.3937007874015748},{"duration":0.08571425000000943,"midi":58,"time":84.5142505,"velocity":0.3937007874015748},{"duration":0.08571425000000943,"midi":70,"time":84.5142505,"velocity":0.3937007874015748},{"duration":0.08571424999999522,"midi":70,"time":84.85710750000001,"velocity":0.3937007874015748},{"duration":0.08571424999999522,"midi":58,"time":84.85710750000001,"velocity":0.3937007874015748},{"duration":0.08571424999999522,"midi":54,"time":84.85710750000001,"velocity":0.3937007874015748},{"duration":0.08571424999999522,"midi":66,"time":84.85710750000001,"velocity":0.3937007874015748},{"duration":0.08571425000000943,"midi":59,"time":85.028536,"velocity":0.3937007874015748},{"duration":0.08571425000000943,"midi":47,"time":85.028536,"velocity":0.3937007874015748},{"duration":0.08571424999999522,"midi":63,"time":85.19996450000001,"velocity":0.3937007874015748},{"duration":0.08571424999999522,"midi":68,"time":85.19996450000001,"velocity":0.3937007874015748},{"duration":0.08571424999999522,"midi":51,"time":85.19996450000001,"velocity":0.3937007874015748},{"duration":0.08571424999999522,"midi":56,"time":85.19996450000001,"velocity":0.3937007874015748},{"duration":0.08571425000000943,"midi":56,"time":85.5428215,"velocity":0.3937007874015748},{"duration":0.08571425000000943,"midi":51,"time":85.5428215,"velocity":0.3937007874015748},{"duration":0.08571425000000943,"midi":68,"time":85.5428215,"velocity":0.3937007874015748},{"duration":0.08571425000000943,"midi":63,"time":85.5428215,"velocity":0.3937007874015748},{"duration":0.08571424999999522,"midi":61,"time":85.71425,"velocity":0.3937007874015748},{"duration":0.08571424999999522,"midi":49,"time":85.71425,"velocity":0.3937007874015748},{"duration":0.08571424999999522,"midi":58,"time":85.88567850000001,"velocity":0.3937007874015748},{"duration":0.08571424999999522,"midi":65,"time":85.88567850000001,"velocity":0.3937007874015748},{"duration":0.08571424999999522,"midi":53,"time":85.88567850000001,"velocity":0.3937007874015748},{"duration":0.08571424999999522,"midi":70,"time":85.88567850000001,"velocity":0.3937007874015748},{"duration":0.08571424999999522,"midi":53,"time":86.2285355,"velocity":0.3937007874015748},{"duration":0.08571424999999522,"midi":65,"time":86.2285355,"velocity":0.3937007874015748},{"duration":0.08571424999999522,"midi":58,"time":86.2285355,"velocity":0.3937007874015748},{"duration":0.08571424999999522,"midi":70,"time":86.2285355,"velocity":0.3937007874015748},{"duration":0.08571424999999522,"midi":63,"time":86.39996400000001,"velocity":0.3937007874015748},{"duration":0.08571424999999522,"midi":51,"time":86.39996400000001,"velocity":0.3937007874015748},{"duration":0.08571425000000943,"midi":71,"time":86.5713925,"velocity":0.3937007874015748},{"duration":0.08571425000000943,"midi":66,"time":86.5713925,"velocity":0.3937007874015748},{"duration":0.08571425000000943,"midi":59,"time":86.5713925,"velocity":0.3937007874015748},{"duration":0.08571425000000943,"midi":54,"time":86.5713925,"velocity":0.3937007874015748},{"duration":0.08571424999999522,"midi":68,"time":86.91424950000001,"velocity":0.3937007874015748},{"duration":0.08571424999999522,"midi":56,"time":86.91424950000001,"velocity":0.3937007874015748},{"duration":0.08571424999999522,"midi":72,"time":86.91424950000001,"velocity":0.3937007874015748},{"duration":0.08571424999999522,"midi":60,"time":86.91424950000001,"velocity":0.3937007874015748},{"duration":0.08571425000000943,"midi":73,"time":87.085678,"velocity":0.3937007874015748},{"duration":0.08571425000000943,"midi":58,"time":87.085678,"velocity":0.3937007874015748},{"duration":0.08571425000000943,"midi":70,"time":87.085678,"velocity":0.3937007874015748},{"duration":0.08571425000000943,"midi":61,"time":87.085678,"velocity":0.3937007874015748},{"duration":0.08571425000000943,"midi":70,"time":87.34282075,"velocity":0.3937007874015748},{"duration":0.08571425000000943,"midi":73,"time":87.34282075,"velocity":0.3937007874015748},{"duration":0.08571425000000943,"midi":61,"time":87.34282075,"velocity":0.3937007874015748},{"duration":0.08571425000000943,"midi":58,"time":87.34282075,"velocity":0.3937007874015748},{"duration":0.08571425000000943,"midi":70,"time":87.5999635,"velocity":0.3937007874015748},{"duration":0.08571425000000943,"midi":61,"time":87.5999635,"velocity":0.3937007874015748},{"duration":0.08571425000000943,"midi":58,"time":87.5999635,"velocity":0.3937007874015748},{"duration":0.08571425000000943,"midi":73,"time":87.5999635,"velocity":0.3937007874015748},{"duration":0.08571424999999522,"midi":47,"time":87.771392,"velocity":0.3937007874015748},{"duration":0.08571424999999522,"midi":59,"time":87.771392,"velocity":0.3937007874015748},{"duration":0.08571424999999522,"midi":51,"time":87.94282050000001,"velocity":0.3937007874015748},{"duration":0.08571424999999522,"midi":54,"time":87.94282050000001,"velocity":0.3937007874015748},{"duration":0.08571424999999522,"midi":63,"time":87.94282050000001,"velocity":0.3937007874015748},{"duration":0.08571424999999522,"midi":66,"time":87.94282050000001,"velocity":0.3937007874015748},{"duration":0.08571424999999522,"midi":63,"time":88.2856775,"velocity":0.3937007874015748},{"duration":0.08571424999999522,"midi":66,"time":88.2856775,"velocity":0.3937007874015748},{"duration":0.08571424999999522,"midi":51,"time":88.2856775,"velocity":0.3937007874015748},{"duration":0.08571424999999522,"midi":54,"time":88.2856775,"velocity":0.3937007874015748},{"duration":0.08571424999999522,"midi":49,"time":88.45710600000001,"velocity":0.3937007874015748},{"duration":0.08571424999999522,"midi":61,"time":88.45710600000001,"velocity":0.3937007874015748},{"duration":0.08571425000000943,"midi":68,"time":88.6285345,"velocity":0.3937007874015748},{"duration":0.08571425000000943,"midi":53,"time":88.6285345,"velocity":0.3937007874015748},{"duration":0.08571425000000943,"midi":56,"time":88.6285345,"velocity":0.3937007874015748},{"duration":0.08571425000000943,"midi":65,"time":88.6285345,"velocity":0.3937007874015748},{"duration":0.08571424999999522,"midi":65,"time":88.97139150000001,"velocity":0.3937007874015748},{"duration":0.08571424999999522,"midi":53,"time":88.97139150000001,"velocity":0.3937007874015748},{"duration":0.08571424999999522,"midi":56,"time":88.97139150000001,"velocity":0.3937007874015748},{"duration":0.08571424999999522,"midi":68,"time":88.97139150000001,"velocity":0.3937007874015748},{"duration":0.08571425000000943,"midi":51,"time":89.14282,"velocity":0.3937007874015748},{"duration":0.08571425000000943,"midi":63,"time":89.14282,"velocity":0.3937007874015748},{"duration":0.08571424999999522,"midi":70,"time":89.3142485,"velocity":0.3937007874015748},{"duration":0.08571424999999522,"midi":66,"time":89.3142485,"velocity":0.3937007874015748},{"duration":0.08571424999999522,"midi":54,"time":89.3142485,"velocity":0.3937007874015748},{"duration":0.08571424999999522,"midi":58,"time":89.3142485,"velocity":0.3937007874015748},{"duration":0.08571425000000943,"midi":66,"time":89.6571055,"velocity":0.3937007874015748},{"duration":0.08571425000000943,"midi":70,"time":89.6571055,"velocity":0.3937007874015748},{"duration":0.08571425000000943,"midi":58,"time":89.6571055,"velocity":0.3937007874015748},{"duration":0.08571425000000943,"midi":54,"time":89.6571055,"velocity":0.3937007874015748},{"duration":0.08571424999999522,"midi":51,"time":89.828534,"velocity":0.3937007874015748},{"duration":0.08571424999999522,"midi":63,"time":89.828534,"velocity":0.3937007874015748},{"duration":0.08571424999999522,"midi":70,"time":89.99996250000001,"velocity":0.3937007874015748},{"duration":0.08571424999999522,"midi":54,"time":89.99996250000001,"velocity":0.3937007874015748},{"duration":0.08571424999999522,"midi":66,"time":89.99996250000001,"velocity":0.3937007874015748},{"duration":0.08571424999999522,"midi":58,"time":89.99996250000001,"velocity":0.3937007874015748},{"duration":0.08571424999999522,"midi":70,"time":90.3428195,"velocity":0.3937007874015748},{"duration":0.08571424999999522,"midi":66,"time":90.3428195,"velocity":0.3937007874015748},{"duration":0.08571424999999522,"midi":54,"time":90.3428195,"velocity":0.3937007874015748},{"duration":0.08571424999999522,"midi":58,"time":90.3428195,"velocity":0.3937007874015748},{"duration":0.08571424999999522,"midi":59,"time":90.51424800000001,"velocity":0.3937007874015748},{"duration":0.08571424999999522,"midi":47,"time":90.51424800000001,"velocity":0.3937007874015748},{"duration":0.08571425000000943,"midi":51,"time":90.6856765,"velocity":0.3937007874015748},{"duration":0.08571425000000943,"midi":54,"time":90.6856765,"velocity":0.3937007874015748},{"duration":0.08571425000000943,"midi":66,"time":90.6856765,"velocity":0.3937007874015748},{"duration":0.08571425000000943,"midi":63,"time":90.6856765,"velocity":0.3937007874015748},{"duration":0.08571424999999522,"midi":51,"time":91.02853350000001,"velocity":0.3937007874015748},{"duration":0.08571424999999522,"midi":63,"time":91.02853350000001,"velocity":0.3937007874015748},{"duration":0.08571424999999522,"midi":66,"time":91.02853350000001,"velocity":0.3937007874015748},{"duration":0.08571424999999522,"midi":54,"time":91.02853350000001,"velocity":0.3937007874015748},{"duration":0.08571425000000943,"midi":49,"time":91.199962,"velocity":0.3937007874015748},{"duration":0.08571425000000943,"midi":61,"time":91.199962,"velocity":0.3937007874015748},{"duration":0.08571424999999522,"midi":53,"time":91.3713905,"velocity":0.3937007874015748},{"duration":0.08571424999999522,"midi":56,"time":91.3713905,"velocity":0.3937007874015748},{"duration":0.08571424999999522,"midi":65,"time":91.3713905,"velocity":0.3937007874015748},{"duration":0.08571424999999522,"midi":68,"time":91.3713905,"velocity":0.3937007874015748},{"duration":0.08571425000000943,"midi":53,"time":91.7142475,"velocity":0.3937007874015748},{"duration":0.08571425000000943,"midi":68,"time":91.7142475,"velocity":0.3937007874015748},{"duration":0.08571425000000943,"midi":56,"time":91.7142475,"velocity":0.3937007874015748},{"duration":0.08571425000000943,"midi":65,"time":91.7142475,"velocity":0.3937007874015748},{"duration":0.08571425000000943,"midi":63,"time":91.885676,"velocity":0.3937007874015748},{"duration":0.08571425000000943,"midi":51,"time":91.885676,"velocity":0.3937007874015748},{"duration":0.08571424999999522,"midi":70,"time":92.05710450000001,"velocity":0.3937007874015748},{"duration":0.08571424999999522,"midi":54,"time":92.05710450000001,"velocity":0.3937007874015748},{"duration":0.08571424999999522,"midi":66,"time":92.05710450000001,"velocity":0.3937007874015748},{"duration":0.08571424999999522,"midi":58,"time":92.05710450000001,"velocity":0.3937007874015748},{"duration":0.08571424999999522,"midi":51,"time":92.22853300000001,"velocity":0.3937007874015748},{"duration":0.08571424999999522,"midi":63,"time":92.22853300000001,"velocity":0.3937007874015748},{"duration":0.08571425000000943,"midi":73,"time":92.3999615,"velocity":0.3937007874015748},{"duration":0.08571425000000943,"midi":61,"time":92.3999615,"velocity":0.3937007874015748},{"duration":0.08571425000000943,"midi":56,"time":92.3999615,"velocity":0.3937007874015748},{"duration":0.08571425000000943,"midi":68,"time":92.3999615,"velocity":0.3937007874015748},{"duration":0.08571424999999522,"midi":63,"time":92.57139000000001,"velocity":0.3937007874015748},{"duration":0.08571424999999522,"midi":51,"time":92.57139000000001,"velocity":0.3937007874015748},{"duration":0.08571424999999522,"midi":63,"time":92.74281850000001,"velocity":0.3937007874015748},{"duration":0.08571424999999522,"midi":70,"time":92.74281850000001,"velocity":0.3937007874015748},{"duration":0.08571424999999522,"midi":58,"time":92.74281850000001,"velocity":0.3937007874015748},{"duration":0.08571424999999522,"midi":75,"time":92.74281850000001,"velocity":0.3937007874015748},{"duration":0.08571425000000943,"midi":51,"time":92.914247,"velocity":0.3937007874015748},{"duration":0.08571425000000943,"midi":63,"time":92.914247,"velocity":0.3937007874015748},{"duration":0.08571424999999522,"midi":60,"time":93.08567550000001,"velocity":0.3937007874015748},{"duration":0.08571424999999522,"midi":77,"time":93.08567550000001,"velocity":0.3937007874015748},{"duration":0.08571424999999522,"midi":72,"time":93.08567550000001,"velocity":0.3937007874015748},{"duration":0.08571424999999522,"midi":65,"time":93.08567550000001,"velocity":0.3937007874015748},{"duration":0.08571424999999522,"midi":70,"time":93.25710400000001,"velocity":0.3937007874015748},{"duration":0.08571424999999522,"midi":75,"time":93.25710400000001,"velocity":0.3937007874015748},{"duration":0.08571424999999522,"midi":63,"time":93.25710400000001,"velocity":0.3937007874015748},{"duration":0.08571424999999522,"midi":58,"time":93.25710400000001,"velocity":0.3937007874015748},{"duration":0.08571424999999522,"midi":63,"time":93.59996100000001,"velocity":0.3937007874015748},{"duration":0.08571424999999522,"midi":51,"time":93.59996100000001,"velocity":0.3937007874015748},{"duration":0.08571424999999522,"midi":70,"time":93.77138950000001,"velocity":0.3937007874015748},{"duration":0.08571424999999522,"midi":75,"time":93.77138950000001,"velocity":0.3937007874015748},{"duration":0.08571424999999522,"midi":63,"time":93.77138950000001,"velocity":0.3937007874015748},{"duration":0.08571424999999522,"midi":58,"time":93.77138950000001,"velocity":0.3937007874015748},{"duration":0.08571425000000943,"midi":75,"time":93.942818,"velocity":0.3937007874015748},{"duration":0.08571425000000943,"midi":63,"time":93.942818,"velocity":0.3937007874015748},{"duration":0.08571425000000943,"midi":70,"time":93.942818,"velocity":0.3937007874015748},{"duration":0.08571425000000943,"midi":58,"time":93.942818,"velocity":0.3937007874015748},{"duration":0.08571424999999522,"midi":61,"time":94.11424650000001,"velocity":0.3937007874015748},{"duration":0.08571424999999522,"midi":73,"time":94.11424650000001,"velocity":0.3937007874015748},{"duration":0.08571424999999522,"midi":68,"time":94.11424650000001,"velocity":0.3937007874015748},{"duration":0.08571424999999522,"midi":56,"time":94.11424650000001,"velocity":0.3937007874015748},{"duration":0.08571425000000943,"midi":70,"time":94.4571035,"velocity":0.3937007874015748},{"duration":0.08571425000000943,"midi":58,"time":94.4571035,"velocity":0.3937007874015748},{"duration":0.08571425000000943,"midi":63,"time":94.4571035,"velocity":0.3937007874015748},{"duration":0.08571425000000943,"midi":75,"time":94.4571035,"velocity":0.3937007874015748},{"duration":0.08571424999999522,"midi":75,"time":94.79996050000001,"velocity":0.3937007874015748},{"duration":0.08571424999999522,"midi":63,"time":94.79996050000001,"velocity":0.3937007874015748},{"duration":0.08571424999999522,"midi":70,"time":94.79996050000001,"velocity":0.3937007874015748},{"duration":0.08571424999999522,"midi":58,"time":94.79996050000001,"velocity":0.3937007874015748},{"duration":0.08571425000000943,"midi":51,"time":94.971389,"velocity":0.3937007874015748},{"duration":0.08571425000000943,"midi":63,"time":94.971389,"velocity":0.3937007874015748},{"duration":0.08571424999999522,"midi":70,"time":95.1428175,"velocity":0.3937007874015748},{"duration":0.08571424999999522,"midi":63,"time":95.1428175,"velocity":0.3937007874015748},{"duration":0.08571424999999522,"midi":75,"time":95.1428175,"velocity":0.3937007874015748},{"duration":0.08571424999999522,"midi":58,"time":95.1428175,"velocity":0.3937007874015748},{"duration":0.08571424999999522,"midi":58,"time":95.31424600000001,"velocity":0.3937007874015748},{"duration":0.08571424999999522,"midi":63,"time":95.31424600000001,"velocity":0.3937007874015748},{"duration":0.08571424999999522,"midi":75,"time":95.31424600000001,"velocity":0.3937007874015748},{"duration":0.08571424999999522,"midi":70,"time":95.31424600000001,"velocity":0.3937007874015748},{"duration":0.08571424999999522,"midi":68,"time":95.39996025,"velocity":0.3937007874015748},{"duration":0.08571424999999522,"midi":73,"time":95.39996025,"velocity":0.3937007874015748},{"duration":0.08571424999999522,"midi":61,"time":95.39996025,"velocity":0.3937007874015748},{"duration":0.08571424999999522,"midi":56,"time":95.39996025,"velocity":0.3937007874015748},{"duration":0.08571425000000943,"midi":70,"time":95.4856745,"velocity":0.3937007874015748},{"duration":0.08571425000000943,"midi":58,"time":95.4856745,"velocity":0.3937007874015748},{"duration":0.08571425000000943,"midi":54,"time":95.4856745,"velocity":0.3937007874015748},{"duration":0.08571425000000943,"midi":66,"time":95.4856745,"velocity":0.3937007874015748},{"duration":0.08571424999999522,"midi":49,"time":95.657103,"velocity":0.3937007874015748},{"duration":0.08571424999999522,"midi":61,"time":95.657103,"velocity":0.3937007874015748},{"duration":0.08571424999999522,"midi":66,"time":95.657103,"velocity":0.3937007874015748},{"duration":0.08571424999999522,"midi":54,"time":95.657103,"velocity":0.3937007874015748},{"duration":0.08571424999999522,"midi":50,"time":95.82853150000001,"velocity":0.3937007874015748},{"duration":0.08571424999999522,"midi":67,"time":95.82853150000001,"velocity":0.3937007874015748},{"duration":0.08571424999999522,"midi":55,"time":95.82853150000001,"velocity":0.3937007874015748},{"duration":0.08571424999999522,"midi":62,"time":95.82853150000001,"velocity":0.3937007874015748},{"duration":0.08571425000000943,"midi":56,"time":95.99996,"velocity":0.3937007874015748},{"duration":0.08571425000000943,"midi":68,"time":95.99996,"velocity":0.3937007874015748},{"duration":0.08571424999999522,"midi":63,"time":96.1713885,"velocity":0.3937007874015748},{"duration":0.08571424999999522,"midi":51,"time":96.1713885,"velocity":0.3937007874015748},{"duration":0.08571425000000943,"midi":68,"time":96.25710275,"velocity":0.3937007874015748},{"duration":0.08571425000000943,"midi":56,"time":96.25710275,"velocity":0.3937007874015748},{"duration":0.08571424999999522,"midi":63,"time":96.42853125,"velocity":0.3937007874015748},{"duration":0.08571424999999522,"midi":51,"time":96.42853125,"velocity":0.3937007874015748},{"duration":0.08571425000000943,"midi":68,"time":96.5142455,"velocity":0.3937007874015748},{"duration":0.08571425000000943,"midi":56,"time":96.5142455,"velocity":0.3937007874015748},{"duration":0.08571424999999522,"midi":70,"time":96.685674,"velocity":0.3937007874015748},{"duration":0.08571424999999522,"midi":58,"time":96.685674,"velocity":0.3937007874015748},{"duration":0.08571424999999522,"midi":65,"time":96.685674,"velocity":0.3937007874015748},{"duration":0.08571424999999522,"midi":53,"time":96.685674,"velocity":0.3937007874015748},{"duration":0.08571424999999522,"midi":73,"time":96.85710250000001,"velocity":0.3937007874015748},{"duration":0.08571424999999522,"midi":66,"time":96.85710250000001,"velocity":0.3937007874015748},{"duration":0.08571424999999522,"midi":61,"time":96.85710250000001,"velocity":0.3937007874015748},{"duration":0.08571424999999522,"midi":78,"time":96.85710250000001,"velocity":0.3937007874015748},{"duration":0.08571425000000943,"midi":71,"time":97.028531,"velocity":0.3937007874015748},{"duration":0.08571425000000943,"midi":77,"time":97.028531,"velocity":0.3937007874015748},{"duration":0.08571425000000943,"midi":65,"time":97.028531,"velocity":0.3937007874015748},{"duration":0.08571425000000943,"midi":59,"time":97.028531,"velocity":0.3937007874015748},{"duration":0.08571424999999522,"midi":73,"time":97.1999595,"velocity":0.3937007874015748},{"duration":0.08571424999999522,"midi":56,"time":97.1999595,"velocity":0.3937007874015748},{"duration":0.08571424999999522,"midi":68,"time":97.1999595,"velocity":0.3937007874015748},{"duration":0.08571424999999522,"midi":61,"time":97.1999595,"velocity":0.3937007874015748},{"duration":0.08571424999999522,"midi":75,"time":97.37138800000001,"velocity":0.3937007874015748},{"duration":0.08571424999999522,"midi":58,"time":97.37138800000001,"velocity":0.3937007874015748},{"duration":0.08571424999999522,"midi":51,"time":97.37138800000001,"velocity":0.3937007874015748},{"duration":0.08571424999999522,"midi":70,"time":97.37138800000001,"velocity":0.3937007874015748},{"duration":0.08571424999999522,"midi":63,"time":97.37138800000001,"velocity":0.3937007874015748},{"duration":0.08571424999999522,"midi":63,"time":97.37138800000001,"velocity":0.3937007874015748},{"duration":0.08571424999999522,"midi":63,"time":97.62853075000001,"velocity":0.3937007874015748},{"duration":0.08571424999999522,"midi":63,"time":97.62853075000001,"velocity":0.3937007874015748},{"duration":0.08571424999999522,"midi":51,"time":97.62853075000001,"velocity":0.3937007874015748},{"duration":0.08571424999999522,"midi":75,"time":97.62853075000001,"velocity":0.3937007874015748},{"duration":0.08571424999999522,"midi":70,"time":97.62853075000001,"velocity":0.3937007874015748},{"duration":0.08571424999999522,"midi":58,"time":97.62853075000001,"velocity":0.3937007874015748},{"duration":0.08571424999999522,"midi":51,"time":97.88567350000001,"velocity":0.3937007874015748},{"duration":0.08571424999999522,"midi":58,"time":97.88567350000001,"velocity":0.3937007874015748},{"duration":0.08571424999999522,"midi":75,"time":97.88567350000001,"velocity":0.3937007874015748},{"duration":0.08571424999999522,"midi":63,"time":97.88567350000001,"velocity":0.3937007874015748},{"duration":0.08571424999999522,"midi":63,"time":97.88567350000001,"velocity":0.3937007874015748},{"duration":0.08571424999999522,"midi":70,"time":97.88567350000001,"velocity":0.3937007874015748},{"duration":0.08571425000000943,"midi":63,"time":98.057102,"velocity":0.3937007874015748},{"duration":0.08571425000000943,"midi":51,"time":98.057102,"velocity":0.3937007874015748},{"duration":0.08571425000000943,"midi":63,"time":98.057102,"velocity":0.3937007874015748},{"duration":0.08571425000000943,"midi":75,"time":98.057102,"velocity":0.3937007874015748},{"duration":0.08571425000000943,"midi":70,"time":98.057102,"velocity":0.3937007874015748},{"duration":0.08571425000000943,"midi":58,"time":98.057102,"velocity":0.3937007874015748}]},{"instrument":{"family":"chromatic percussion","number":10,"name":"music box"},"notes":[{"duration":0.08571425,"midi":57,"time":0,"velocity":0.23622047244094488},{"duration":0.08571425,"midi":62,"time":0,"velocity":0.23622047244094488},{"duration":0.08571425,"midi":74,"time":0,"velocity":0.23622047244094488},{"duration":0.08571425,"midi":39,"time":0,"velocity":0.23622047244094488},{"duration":0.08571425000000002,"midi":81,"time":0.1714285,"velocity":0.23622047244094488},{"duration":0.08571425000000002,"midi":69,"time":0.1714285,"velocity":0.23622047244094488},{"duration":0.08571425000000002,"midi":65,"time":0.1714285,"velocity":0.23622047244094488},{"duration":0.08571425000000002,"midi":41,"time":0.1714285,"velocity":0.23622047244094488},{"duration":0.08571424999999999,"midi":79,"time":0.342857,"velocity":0.23622047244094488},{"duration":0.08571424999999999,"midi":44,"time":0.342857,"velocity":0.23622047244094488},{"duration":0.08571425000000005,"midi":81,"time":0.42857125,"velocity":0.23622047244094488},{"duration":0.08571424999999999,"midi":39,"time":0.5142855000000001,"velocity":0.23622047244094488},{"duration":0.08571424999999999,"midi":69,"time":0.5142855000000001,"velocity":0.23622047244094488},{"duration":0.08571424999999999,"midi":65,"time":0.5142855000000001,"velocity":0.23622047244094488},{"duration":0.08571424999999999,"midi":76,"time":0.59999975,"velocity":0.23622047244094488},{"duration":0.08571424999999999,"midi":62,"time":0.685714,"velocity":0.23622047244094488},{"duration":0.08571424999999999,"midi":77,"time":0.77142825,"velocity":0.23622047244094488},{"duration":0.08571424999999999,"midi":39,"time":0.8571425,"velocity":0.23622047244094488},{"duration":0.08571424999999999,"midi":69,"time":0.8571425,"velocity":0.23622047244094488},{"duration":0.08571424999999999,"midi":65,"time":0.8571425,"velocity":0.23622047244094488},{"duration":0.0857142500000001,"midi":81,"time":0.94285675,"velocity":0.23622047244094488},{"duration":0.08571424999999988,"midi":79,"time":1.0285710000000001,"velocity":0.23622047244094488},{"duration":0.08571424999999988,"midi":44,"time":1.0285710000000001,"velocity":0.23622047244094488},{"duration":0.0857142500000001,"midi":77,"time":1.11428525,"velocity":0.23622047244094488},{"duration":0.08571424999999988,"midi":65,"time":1.1999995,"velocity":0.23622047244094488},{"duration":0.08571424999999988,"midi":69,"time":1.1999995,"velocity":0.23622047244094488},{"duration":0.08571424999999988,"midi":41,"time":1.1999995,"velocity":0.23622047244094488},{"duration":0.08571424999999988,"midi":76,"time":1.1999995,"velocity":0.23622047244094488},{"duration":0.0857142500000001,"midi":74,"time":1.28571375,"velocity":0.23622047244094488},{"duration":0.0857142500000001,"midi":62,"time":1.371428,"velocity":0.23622047244094488},{"duration":0.0857142500000001,"midi":39,"time":1.371428,"velocity":0.23622047244094488},{"duration":0.08571424999999988,"midi":74,"time":1.4571422500000002,"velocity":0.23622047244094488},{"duration":0.0857142500000001,"midi":69,"time":1.5428565,"velocity":0.23622047244094488},{"duration":0.0857142500000001,"midi":81,"time":1.5428565,"velocity":0.23622047244094488},{"duration":0.0857142500000001,"midi":41,"time":1.5428565,"velocity":0.23622047244094488},{"duration":0.0857142500000001,"midi":65,"time":1.5428565,"velocity":0.23622047244094488},{"duration":0.0857142500000001,"midi":44,"time":1.714285,"velocity":0.23622047244094488},{"duration":0.0857142500000001,"midi":79,"time":1.714285,"velocity":0.23622047244094488},{"duration":0.08571424999999988,"midi":81,"time":1.7999992500000002,"velocity":0.23622047244094488},{"duration":0.0857142500000001,"midi":69,"time":1.8857135,"velocity":0.23622047244094488},{"duration":0.0857142500000001,"midi":39,"time":1.8857135,"velocity":0.23622047244094488},{"duration":0.0857142500000001,"midi":65,"time":1.8857135,"velocity":0.23622047244094488},{"duration":0.0857142500000001,"midi":76,"time":1.9714277500000001,"velocity":0.23622047244094488},{"duration":0.0857142500000001,"midi":62,"time":2.0571420000000002,"velocity":0.23622047244094488},{"duration":0.08571424999999966,"midi":77,"time":2.1428562500000004,"velocity":0.23622047244094488},{"duration":0.0857142500000001,"midi":65,"time":2.2285705,"velocity":0.23622047244094488},{"duration":0.0857142500000001,"midi":39,"time":2.2285705,"velocity":0.23622047244094488},{"duration":0.0857142500000001,"midi":69,"time":2.2285705,"velocity":0.23622047244094488},{"duration":0.0857142500000001,"midi":81,"time":2.31428475,"velocity":0.23622047244094488},{"duration":0.0857142500000001,"midi":44,"time":2.399999,"velocity":0.23622047244094488},{"duration":0.0857142500000001,"midi":72,"time":2.399999,"velocity":0.23622047244094488},{"duration":0.0857142500000001,"midi":73,"time":2.5714275,"velocity":0.23622047244094488},{"duration":0.0857142500000001,"midi":69,"time":2.5714275,"velocity":0.23622047244094488},{"duration":0.0857142500000001,"midi":41,"time":2.5714275,"velocity":0.23622047244094488},{"duration":0.0857142500000001,"midi":65,"time":2.5714275,"velocity":0.23622047244094488},{"duration":0.0857142500000001,"midi":39,"time":2.742856,"velocity":0.23622047244094488},{"duration":0.0857142500000001,"midi":74,"time":2.742856,"velocity":0.23622047244094488},{"duration":0.0857142500000001,"midi":62,"time":2.742856,"velocity":0.23622047244094488},{"duration":0.08571424999999966,"midi":81,"time":2.9142845000000004,"velocity":0.23622047244094488},{"duration":0.08571424999999966,"midi":65,"time":2.9142845000000004,"velocity":0.23622047244094488},{"duration":0.08571424999999966,"midi":69,"time":2.9142845000000004,"velocity":0.23622047244094488},{"duration":0.08571424999999966,"midi":41,"time":2.9142845000000004,"velocity":0.23622047244094488},{"duration":0.0857142500000001,"midi":79,"time":3.085713,"velocity":0.23622047244094488},{"duration":0.0857142500000001,"midi":44,"time":3.085713,"velocity":0.23622047244094488},{"duration":0.0857142500000001,"midi":81,"time":3.1714272500000003,"velocity":0.23622047244094488},{"duration":0.08571424999999966,"midi":69,"time":3.2571415000000004,"velocity":0.23622047244094488},{"duration":0.08571424999999966,"midi":39,"time":3.2571415000000004,"velocity":0.23622047244094488},{"duration":0.08571424999999966,"midi":65,"time":3.2571415000000004,"velocity":0.23622047244094488},{"duration":0.0857142500000001,"midi":76,"time":3.34285575,"velocity":0.23622047244094488},{"duration":0.0857142500000001,"midi":62,"time":3.42857,"velocity":0.23622047244094488},{"duration":0.0857142500000001,"midi":77,"time":3.51428425,"velocity":0.23622047244094488},{"duration":0.0857142500000001,"midi":65,"time":3.5999985000000003,"velocity":0.23622047244094488},{"duration":0.0857142500000001,"midi":39,"time":3.5999985000000003,"velocity":0.23622047244094488},{"duration":0.0857142500000001,"midi":69,"time":3.5999985000000003,"velocity":0.23622047244094488},{"duration":0.08571424999999966,"midi":81,"time":3.6857127500000004,"velocity":0.23622047244094488},{"duration":0.0857142500000001,"midi":79,"time":3.771427,"velocity":0.23622047244094488},{"duration":0.0857142500000001,"midi":44,"time":3.771427,"velocity":0.23622047244094488},{"duration":0.0857142500000001,"midi":77,"time":3.85714125,"velocity":0.23622047244094488},{"duration":0.08571424999999966,"midi":76,"time":3.9428555000000003,"velocity":0.23622047244094488},{"duration":0.08571424999999966,"midi":69,"time":3.9428555000000003,"velocity":0.23622047244094488},{"duration":0.08571424999999966,"midi":65,"time":3.9428555000000003,"velocity":0.23622047244094488},{"duration":0.08571424999999966,"midi":41,"time":3.9428555000000003,"velocity":0.23622047244094488},{"duration":0.08571425000000055,"midi":74,"time":4.02856975,"velocity":0.23622047244094488},{"duration":0.08571424999999966,"midi":39,"time":4.1142840000000005,"velocity":0.23622047244094488},{"duration":0.08571424999999966,"midi":62,"time":4.1142840000000005,"velocity":0.23622047244094488},{"duration":0.08571425000000055,"midi":74,"time":4.19999825,"velocity":0.23622047244094488},{"duration":0.08571424999999966,"midi":81,"time":4.285712500000001,"velocity":0.23622047244094488},{"duration":0.08571424999999966,"midi":65,"time":4.285712500000001,"velocity":0.23622047244094488},{"duration":0.08571424999999966,"midi":69,"time":4.285712500000001,"velocity":0.23622047244094488},{"duration":0.08571424999999966,"midi":41,"time":4.285712500000001,"velocity":0.23622047244094488},{"duration":0.08571425000000055,"midi":79,"time":4.457141,"velocity":0.23622047244094488},{"duration":0.08571425000000055,"midi":44,"time":4.457141,"velocity":0.23622047244094488},{"duration":0.08571424999999966,"midi":81,"time":4.542855250000001,"velocity":0.23622047244094488},{"duration":0.08571424999999966,"midi":65,"time":4.6285695,"velocity":0.23622047244094488},{"duration":0.08571424999999966,"midi":69,"time":4.6285695,"velocity":0.23622047244094488},{"duration":0.08571424999999966,"midi":39,"time":4.6285695,"velocity":0.23622047244094488},{"duration":0.08571425000000055,"midi":76,"time":4.71428375,"velocity":0.23622047244094488},{"duration":0.08571424999999966,"midi":62,"time":4.799998,"velocity":0.23622047244094488},{"duration":0.08571425000000055,"midi":77,"time":4.88571225,"velocity":0.23622047244094488},{"duration":0.08571424999999966,"midi":65,"time":4.971426500000001,"velocity":0.23622047244094488},{"duration":0.08571424999999966,"midi":69,"time":4.971426500000001,"velocity":0.23622047244094488},{"duration":0.08571424999999966,"midi":39,"time":4.971426500000001,"velocity":0.23622047244094488},{"duration":0.08571424999999966,"midi":81,"time":5.05714075,"velocity":0.23622047244094488},{"duration":0.08571425000000055,"midi":72,"time":5.142855,"velocity":0.23622047244094488},{"duration":0.08571425000000055,"midi":44,"time":5.142855,"velocity":0.23622047244094488},{"duration":0.08571425000000055,"midi":65,"time":5.3142835,"velocity":0.23622047244094488},{"duration":0.08571425000000055,"midi":69,"time":5.3142835,"velocity":0.23622047244094488},{"duration":0.08571425000000055,"midi":41,"time":5.3142835,"velocity":0.23622047244094488},{"duration":0.08571425000000055,"midi":73,"time":5.3142835,"velocity":0.23622047244094488},{"duration":0.08571424999999966,"midi":74,"time":5.485712,"velocity":0.23622047244094488},{"duration":0.08571424999999966,"midi":57,"time":5.485712,"velocity":0.23622047244094488},{"duration":0.08571424999999966,"midi":62,"time":5.485712,"velocity":0.23622047244094488},{"duration":0.08571424999999966,"midi":39,"time":5.485712,"velocity":0.23622047244094488},{"duration":0.08571424999999966,"midi":41,"time":5.657140500000001,"velocity":0.23622047244094488},{"duration":0.08571424999999966,"midi":65,"time":5.657140500000001,"velocity":0.23622047244094488},{"duration":0.08571424999999966,"midi":81,"time":5.657140500000001,"velocity":0.23622047244094488},{"duration":0.08571424999999966,"midi":69,"time":5.657140500000001,"velocity":0.23622047244094488},{"duration":0.08571424999999966,"midi":44,"time":5.828569000000001,"velocity":0.23622047244094488},{"duration":0.08571424999999966,"midi":79,"time":5.828569000000001,"velocity":0.23622047244094488},{"duration":0.08571424999999966,"midi":81,"time":5.91428325,"velocity":0.23622047244094488},{"duration":0.08571425000000055,"midi":69,"time":5.9999975,"velocity":0.23622047244094488},{"duration":0.08571425000000055,"midi":65,"time":5.9999975,"velocity":0.23622047244094488},{"duration":0.08571425000000055,"midi":39,"time":5.9999975,"velocity":0.23622047244094488},{"duration":0.08571424999999966,"midi":76,"time":6.085711750000001,"velocity":0.23622047244094488},{"duration":0.08571425000000055,"midi":62,"time":6.171426,"velocity":0.23622047244094488},{"duration":0.08571424999999966,"midi":77,"time":6.257140250000001,"velocity":0.23622047244094488},{"duration":0.08571424999999966,"midi":69,"time":6.3428545000000005,"velocity":0.23622047244094488},{"duration":0.08571424999999966,"midi":39,"time":6.3428545000000005,"velocity":0.23622047244094488},{"duration":0.08571424999999966,"midi":65,"time":6.3428545000000005,"velocity":0.23622047244094488},{"duration":0.08571425000000055,"midi":81,"time":6.42856875,"velocity":0.23622047244094488},{"duration":0.08571424999999966,"midi":44,"time":6.514283000000001,"velocity":0.23622047244094488},{"duration":0.08571424999999966,"midi":79,"time":6.514283000000001,"velocity":0.23622047244094488},{"duration":0.08571424999999966,"midi":77,"time":6.59999725,"velocity":0.23622047244094488},{"duration":0.08571425000000055,"midi":41,"time":6.6857115,"velocity":0.23622047244094488},{"duration":0.08571425000000055,"midi":69,"time":6.6857115,"velocity":0.23622047244094488},{"duration":0.08571425000000055,"midi":76,"time":6.6857115,"velocity":0.23622047244094488},{"duration":0.08571425000000055,"midi":65,"time":6.6857115,"velocity":0.23622047244094488},{"duration":0.08571424999999966,"midi":74,"time":6.771425750000001,"velocity":0.23622047244094488},{"duration":0.08571425000000055,"midi":39,"time":6.85714,"velocity":0.23622047244094488},{"duration":0.08571425000000055,"midi":62,"time":6.85714,"velocity":0.23622047244094488},{"duration":0.08571424999999966,"midi":74,"time":6.942854250000001,"velocity":0.23622047244094488},{"duration":0.08571424999999966,"midi":41,"time":7.0285685,"velocity":0.23622047244094488},{"duration":0.08571424999999966,"midi":65,"time":7.0285685,"velocity":0.23622047244094488},{"duration":0.08571424999999966,"midi":69,"time":7.0285685,"velocity":0.23622047244094488},{"duration":0.08571424999999966,"midi":81,"time":7.0285685,"velocity":0.23622047244094488},{"duration":0.08571424999999966,"midi":79,"time":7.199997000000001,"velocity":0.23622047244094488},{"duration":0.08571424999999966,"midi":44,"time":7.199997000000001,"velocity":0.23622047244094488},{"duration":0.08571425000000055,"midi":81,"time":7.28571125,"velocity":0.23622047244094488},{"duration":0.08571424999999966,"midi":69,"time":7.371425500000001,"velocity":0.23622047244094488},{"duration":0.08571424999999966,"midi":65,"time":7.371425500000001,"velocity":0.23622047244094488},{"duration":0.08571424999999966,"midi":39,"time":7.371425500000001,"velocity":0.23622047244094488},{"duration":0.08571424999999966,"midi":76,"time":7.4571397500000005,"velocity":0.23622047244094488},{"duration":0.08571425000000055,"midi":62,"time":7.542854,"velocity":0.23622047244094488},{"duration":0.08571424999999966,"midi":77,"time":7.628568250000001,"velocity":0.23622047244094488},{"duration":0.08571425000000055,"midi":69,"time":7.7142825,"velocity":0.23622047244094488},{"duration":0.08571425000000055,"midi":65,"time":7.7142825,"velocity":0.23622047244094488},{"duration":0.08571425000000055,"midi":39,"time":7.7142825,"velocity":0.23622047244094488},{"duration":0.08571424999999966,"midi":81,"time":7.799996750000001,"velocity":0.23622047244094488},{"duration":0.08571424999999966,"midi":44,"time":7.885711000000001,"velocity":0.23622047244094488},{"duration":0.08571424999999966,"midi":72,"time":7.885711000000001,"velocity":0.23622047244094488},{"duration":0.08571425000000055,"midi":73,"time":8.0571395,"velocity":0.23622047244094488},{"duration":0.08571425000000055,"midi":69,"time":8.0571395,"velocity":0.23622047244094488},{"duration":0.08571425000000055,"midi":41,"time":8.0571395,"velocity":0.23622047244094488},{"duration":0.08571425000000055,"midi":65,"time":8.0571395,"velocity":0.23622047244094488},{"duration":0.08571424999999877,"midi":39,"time":8.228568000000001,"velocity":0.23622047244094488},{"duration":0.08571424999999877,"midi":62,"time":8.228568000000001,"velocity":0.23622047244094488},{"duration":0.08571424999999877,"midi":74,"time":8.228568000000001,"velocity":0.23622047244094488},{"duration":0.08571425000000055,"midi":41,"time":8.3999965,"velocity":0.23622047244094488},{"duration":0.08571425000000055,"midi":65,"time":8.3999965,"velocity":0.23622047244094488},{"duration":0.08571425000000055,"midi":69,"time":8.3999965,"velocity":0.23622047244094488},{"duration":0.08571425000000055,"midi":81,"time":8.3999965,"velocity":0.23622047244094488},{"duration":0.08571424999999877,"midi":79,"time":8.571425000000001,"velocity":0.23622047244094488},{"duration":0.08571424999999877,"midi":44,"time":8.571425000000001,"velocity":0.23622047244094488},{"duration":0.08571425000000055,"midi":81,"time":8.65713925,"velocity":0.23622047244094488},{"duration":0.08571425000000055,"midi":65,"time":8.7428535,"velocity":0.23622047244094488},{"duration":0.08571425000000055,"midi":39,"time":8.7428535,"velocity":0.23622047244094488},{"duration":0.08571425000000055,"midi":69,"time":8.7428535,"velocity":0.23622047244094488},{"duration":0.08571424999999877,"midi":76,"time":8.828567750000001,"velocity":0.23622047244094488},{"duration":0.08571425000000055,"midi":62,"time":8.914282,"velocity":0.23622047244094488},{"duration":0.08571425000000055,"midi":77,"time":8.99999625,"velocity":0.23622047244094488},{"duration":0.08571424999999877,"midi":69,"time":9.085710500000001,"velocity":0.23622047244094488},{"duration":0.08571424999999877,"midi":65,"time":9.085710500000001,"velocity":0.23622047244094488},{"duration":0.08571424999999877,"midi":39,"time":9.085710500000001,"velocity":0.23622047244094488},{"duration":0.08571425000000055,"midi":81,"time":9.17142475,"velocity":0.23622047244094488},{"duration":0.08571425000000055,"midi":79,"time":9.257139,"velocity":0.23622047244094488},{"duration":0.08571425000000055,"midi":44,"time":9.257139,"velocity":0.23622047244094488},{"duration":0.08571424999999877,"midi":77,"time":9.342853250000001,"velocity":0.23622047244094488},{"duration":0.08571425000000055,"midi":65,"time":9.4285675,"velocity":0.23622047244094488},{"duration":0.08571425000000055,"midi":76,"time":9.4285675,"velocity":0.23622047244094488},{"duration":0.08571425000000055,"midi":41,"time":9.4285675,"velocity":0.23622047244094488},{"duration":0.08571425000000055,"midi":69,"time":9.4285675,"velocity":0.23622047244094488},{"duration":0.08571425000000055,"midi":74,"time":9.51428175,"velocity":0.23622047244094488},{"duration":0.08571425000000055,"midi":62,"time":9.599996,"velocity":0.23622047244094488},{"duration":0.08571425000000055,"midi":39,"time":9.599996,"velocity":0.23622047244094488},{"duration":0.08571424999999877,"midi":74,"time":9.685710250000001,"velocity":0.23622047244094488},{"duration":0.08571425000000055,"midi":65,"time":9.7714245,"velocity":0.23622047244094488},{"duration":0.08571425000000055,"midi":69,"time":9.7714245,"velocity":0.23622047244094488},{"duration":0.08571425000000055,"midi":41,"time":9.7714245,"velocity":0.23622047244094488},{"duration":0.08571425000000055,"midi":81,"time":9.7714245,"velocity":0.23622047244094488},{"duration":0.08571424999999877,"midi":79,"time":9.942853000000001,"velocity":0.23622047244094488},{"duration":0.08571424999999877,"midi":44,"time":9.942853000000001,"velocity":0.23622047244094488},{"duration":0.08571425000000055,"midi":81,"time":10.02856725,"velocity":0.23622047244094488},{"duration":0.08571425000000055,"midi":65,"time":10.1142815,"velocity":0.23622047244094488},{"duration":0.08571425000000055,"midi":69,"time":10.1142815,"velocity":0.23622047244094488},{"duration":0.08571425000000055,"midi":39,"time":10.1142815,"velocity":0.23622047244094488},{"duration":0.08571424999999877,"midi":84,"time":10.199995750000001,"velocity":0.23622047244094488},{"duration":0.08571425000000055,"midi":44,"time":10.28571,"velocity":0.23622047244094488},{"duration":0.08571425000000055,"midi":62,"time":10.28571,"velocity":0.23622047244094488},{"duration":0.08571425000000055,"midi":84,"time":10.37142425,"velocity":0.23622047244094488},{"duration":0.08571425000000055,"midi":39,"time":10.457138500000001,"velocity":0.23622047244094488},{"duration":0.08571425000000055,"midi":81,"time":10.457138500000001,"velocity":0.23622047244094488},{"duration":0.08571425000000055,"midi":65,"time":10.457138500000001,"velocity":0.23622047244094488},{"duration":0.08571425000000055,"midi":69,"time":10.457138500000001,"velocity":0.23622047244094488},{"duration":0.08571425000000055,"midi":88,"time":10.628567,"velocity":0.23622047244094488},{"duration":0.08571425000000055,"midi":44,"time":10.628567,"velocity":0.23622047244094488},{"duration":0.08571424999999877,"midi":72,"time":10.799995500000001,"velocity":0.23622047244094488},{"duration":0.08571424999999877,"midi":84,"time":10.799995500000001,"velocity":0.23622047244094488},{"duration":0.08571424999999877,"midi":67,"time":10.799995500000001,"velocity":0.23622047244094488},{"duration":0.08571424999999877,"midi":41,"time":10.799995500000001,"velocity":0.23622047244094488},{"duration":0.08571425000000055,"midi":85,"time":10.88570975,"velocity":0.23622047244094488},{"duration":0.08571425000000055,"midi":39,"time":10.971424,"velocity":0.23622047244094488},{"duration":0.08571425000000055,"midi":86,"time":10.971424,"velocity":0.23622047244094488},{"duration":0.08571425000000055,"midi":57,"time":10.971424,"velocity":0.23622047244094488},{"duration":0.08571425000000055,"midi":74,"time":10.971424,"velocity":0.23622047244094488},{"duration":0.08571425000000055,"midi":77,"time":11.1428525,"velocity":0.23622047244094488},{"duration":0.08571425000000055,"midi":93,"time":11.1428525,"velocity":0.23622047244094488},{"duration":0.08571425000000055,"midi":81,"time":11.1428525,"velocity":0.23622047244094488},{"duration":0.08571425000000055,"midi":41,"time":11.1428525,"velocity":0.23622047244094488},{"duration":0.08571424999999877,"midi":44,"time":11.314281000000001,"velocity":0.23622047244094488},{"duration":0.08571424999999877,"midi":91,"time":11.314281000000001,"velocity":0.23622047244094488},{"duration":0.08571425000000055,"midi":93,"time":11.39999525,"velocity":0.23622047244094488},{"duration":0.08571425000000055,"midi":77,"time":11.4857095,"velocity":0.23622047244094488},{"duration":0.08571425000000055,"midi":39,"time":11.4857095,"velocity":0.23622047244094488},{"duration":0.08571425000000055,"midi":81,"time":11.4857095,"velocity":0.23622047244094488},{"duration":0.08571425000000055,"midi":88,"time":11.571423750000001,"velocity":0.23622047244094488},{"duration":0.08571424999999877,"midi":74,"time":11.657138000000002,"velocity":0.23622047244094488},{"duration":0.08571425000000055,"midi":89,"time":11.74285225,"velocity":0.23622047244094488},{"duration":0.08571425000000055,"midi":77,"time":11.8285665,"velocity":0.23622047244094488},{"duration":0.08571425000000055,"midi":39,"time":11.8285665,"velocity":0.23622047244094488},{"duration":0.08571425000000055,"midi":81,"time":11.8285665,"velocity":0.23622047244094488},{"duration":0.08571424999999877,"midi":93,"time":11.914280750000001,"velocity":0.23622047244094488},{"duration":0.08571425000000055,"midi":44,"time":11.999995,"velocity":0.23622047244094488},{"duration":0.08571425000000055,"midi":91,"time":11.999995,"velocity":0.23622047244094488},{"duration":0.08571425000000055,"midi":89,"time":12.08570925,"velocity":0.23622047244094488},{"duration":0.08571424999999877,"midi":77,"time":12.171423500000001,"velocity":0.23622047244094488},{"duration":0.08571424999999877,"midi":88,"time":12.171423500000001,"velocity":0.23622047244094488},{"duration":0.08571424999999877,"midi":81,"time":12.171423500000001,"velocity":0.23622047244094488},{"duration":0.08571424999999877,"midi":41,"time":12.171423500000001,"velocity":0.23622047244094488},{"duration":0.08571425000000055,"midi":86,"time":12.25713775,"velocity":0.23622047244094488},{"duration":0.08571425000000055,"midi":74,"time":12.342852,"velocity":0.23622047244094488},{"duration":0.08571425000000055,"midi":39,"time":12.342852,"velocity":0.23622047244094488},{"duration":0.08571425000000055,"midi":86,"time":12.428566250000001,"velocity":0.23622047244094488},{"duration":0.08571424999999877,"midi":93,"time":12.514280500000002,"velocity":0.23622047244094488},{"duration":0.08571424999999877,"midi":41,"time":12.514280500000002,"velocity":0.23622047244094488},{"duration":0.08571424999999877,"midi":77,"time":12.514280500000002,"velocity":0.23622047244094488},{"duration":0.08571424999999877,"midi":81,"time":12.514280500000002,"velocity":0.23622047244094488},{"duration":0.08571425000000055,"midi":91,"time":12.685709000000001,"velocity":0.23622047244094488},{"duration":0.08571425000000055,"midi":44,"time":12.685709000000001,"velocity":0.23622047244094488},{"duration":0.08571424999999877,"midi":93,"time":12.771423250000002,"velocity":0.23622047244094488},{"duration":0.08571425000000055,"midi":39,"time":12.8571375,"velocity":0.23622047244094488},{"duration":0.08571425000000055,"midi":77,"time":12.8571375,"velocity":0.23622047244094488},{"duration":0.08571425000000055,"midi":81,"time":12.8571375,"velocity":0.23622047244094488},{"duration":0.08571425000000055,"midi":88,"time":12.94285175,"velocity":0.23622047244094488},{"duration":0.08571424999999877,"midi":74,"time":13.028566000000001,"velocity":0.23622047244094488},{"duration":0.08571425000000055,"midi":89,"time":13.11428025,"velocity":0.23622047244094488},{"duration":0.08571425000000055,"midi":77,"time":13.1999945,"velocity":0.23622047244094488},{"duration":0.08571425000000055,"midi":39,"time":13.1999945,"velocity":0.23622047244094488},{"duration":0.08571425000000055,"midi":81,"time":13.1999945,"velocity":0.23622047244094488},{"duration":0.08571424999999877,"midi":93,"time":13.285708750000001,"velocity":0.23622047244094488},{"duration":0.08571425000000055,"midi":84,"time":13.371423,"velocity":0.23622047244094488},{"duration":0.08571425000000055,"midi":44,"time":13.371423,"velocity":0.23622047244094488},{"duration":0.08571425000000055,"midi":77,"time":13.542851500000001,"velocity":0.23622047244094488},{"duration":0.08571425000000055,"midi":81,"time":13.542851500000001,"velocity":0.23622047244094488},{"duration":0.08571425000000055,"midi":85,"time":13.542851500000001,"velocity":0.23622047244094488},{"duration":0.08571425000000055,"midi":41,"time":13.542851500000001,"velocity":0.23622047244094488},{"duration":0.08571425000000055,"midi":39,"time":13.71428,"velocity":0.23622047244094488},{"duration":0.08571425000000055,"midi":74,"time":13.71428,"velocity":0.23622047244094488},{"duration":0.08571425000000055,"midi":86,"time":13.71428,"velocity":0.23622047244094488},{"duration":0.08571424999999877,"midi":77,"time":13.885708500000002,"velocity":0.23622047244094488},{"duration":0.08571424999999877,"midi":93,"time":13.885708500000002,"velocity":0.23622047244094488},{"duration":0.08571424999999877,"midi":41,"time":13.885708500000002,"velocity":0.23622047244094488},{"duration":0.08571424999999877,"midi":81,"time":13.885708500000002,"velocity":0.23622047244094488},{"duration":0.08571425000000055,"midi":91,"time":14.057137,"velocity":0.23622047244094488},{"duration":0.08571425000000055,"midi":44,"time":14.057137,"velocity":0.23622047244094488},{"duration":0.08571424999999877,"midi":93,"time":14.142851250000001,"velocity":0.23622047244094488},{"duration":0.08571425000000055,"midi":77,"time":14.2285655,"velocity":0.23622047244094488},{"duration":0.08571425000000055,"midi":81,"time":14.2285655,"velocity":0.23622047244094488},{"duration":0.08571425000000055,"midi":39,"time":14.2285655,"velocity":0.23622047244094488},{"duration":0.08571425000000055,"midi":88,"time":14.31427975,"velocity":0.23622047244094488},{"duration":0.08571425000000055,"midi":74,"time":14.399994000000001,"velocity":0.23622047244094488},{"duration":0.08571424999999877,"midi":89,"time":14.485708250000002,"velocity":0.23622047244094488},{"duration":0.08571425000000055,"midi":77,"time":14.5714225,"velocity":0.23622047244094488},{"duration":0.08571425000000055,"midi":39,"time":14.5714225,"velocity":0.23622047244094488},{"duration":0.08571425000000055,"midi":81,"time":14.5714225,"velocity":0.23622047244094488},{"duration":0.08571425000000055,"midi":93,"time":14.657136750000001,"velocity":0.23622047244094488},{"duration":0.08571424999999877,"midi":91,"time":14.742851000000002,"velocity":0.23622047244094488},{"duration":0.08571424999999877,"midi":44,"time":14.742851000000002,"velocity":0.23622047244094488},{"duration":0.08571425000000055,"midi":89,"time":14.82856525,"velocity":0.23622047244094488},{"duration":0.08571425000000055,"midi":88,"time":14.914279500000001,"velocity":0.23622047244094488},{"duration":0.08571425000000055,"midi":41,"time":14.914279500000001,"velocity":0.23622047244094488},{"duration":0.08571425000000055,"midi":81,"time":14.914279500000001,"velocity":0.23622047244094488},{"duration":0.08571425000000055,"midi":77,"time":14.914279500000001,"velocity":0.23622047244094488},{"duration":0.08571424999999877,"midi":86,"time":14.999993750000002,"velocity":0.23622047244094488},{"duration":0.08571425000000055,"midi":74,"time":15.085708,"velocity":0.23622047244094488},{"duration":0.08571425000000055,"midi":39,"time":15.085708,"velocity":0.23622047244094488},{"duration":0.08571425000000055,"midi":86,"time":15.17142225,"velocity":0.23622047244094488},{"duration":0.08571424999999877,"midi":77,"time":15.257136500000001,"velocity":0.23622047244094488},{"duration":0.08571424999999877,"midi":93,"time":15.257136500000001,"velocity":0.23622047244094488},{"duration":0.08571424999999877,"midi":81,"time":15.257136500000001,"velocity":0.23622047244094488},{"duration":0.08571424999999877,"midi":41,"time":15.257136500000001,"velocity":0.23622047244094488},{"duration":0.08571425000000055,"midi":44,"time":15.428565,"velocity":0.23622047244094488},{"duration":0.08571425000000055,"midi":91,"time":15.428565,"velocity":0.23622047244094488},{"duration":0.08571425000000055,"midi":93,"time":15.514279250000001,"velocity":0.23622047244094488},{"duration":0.08571424999999877,"midi":81,"time":15.599993500000002,"velocity":0.23622047244094488},{"duration":0.08571424999999877,"midi":77,"time":15.599993500000002,"velocity":0.23622047244094488},{"duration":0.08571424999999877,"midi":39,"time":15.599993500000002,"velocity":0.23622047244094488},{"duration":0.08571425000000055,"midi":88,"time":15.68570775,"velocity":0.23622047244094488},{"duration":0.08571425000000055,"midi":44,"time":15.771422000000001,"velocity":0.23622047244094488},{"duration":0.08571425000000055,"midi":74,"time":15.771422000000001,"velocity":0.23622047244094488},{"duration":0.08571424999999877,"midi":89,"time":15.857136250000002,"velocity":0.23622047244094488},{"duration":0.08571425000000055,"midi":77,"time":15.9428505,"velocity":0.23622047244094488},{"duration":0.08571425000000055,"midi":81,"time":15.9428505,"velocity":0.23622047244094488},{"duration":0.08571425000000055,"midi":39,"time":15.9428505,"velocity":0.23622047244094488},{"duration":0.08571424999999877,"midi":93,"time":16.02856475,"velocity":0.23622047244094488},{"duration":0.08571425000000232,"midi":84,"time":16.114279,"velocity":0.23622047244094488},{"duration":0.08571425000000232,"midi":44,"time":16.114279,"velocity":0.23622047244094488},{"duration":0.08571424999999877,"midi":41,"time":16.2857075,"velocity":0.23622047244094488},{"duration":0.08571424999999877,"midi":81,"time":16.2857075,"velocity":0.23622047244094488},{"duration":0.08571424999999877,"midi":85,"time":16.2857075,"velocity":0.23622047244094488},{"duration":0.08571424999999877,"midi":77,"time":16.2857075,"velocity":0.23622047244094488},{"duration":0.08571424999999877,"midi":39,"time":16.457136000000002,"velocity":0.23622047244094488},{"duration":0.08571424999999877,"midi":57,"time":16.457136000000002,"velocity":0.23622047244094488},{"duration":0.08571424999999877,"midi":86,"time":16.457136000000002,"velocity":0.23622047244094488},{"duration":0.08571424999999877,"midi":74,"time":16.457136000000002,"velocity":0.23622047244094488},{"duration":0.08571425000000232,"midi":41,"time":16.6285645,"velocity":0.23622047244094488},{"duration":0.08571425000000232,"midi":81,"time":16.6285645,"velocity":0.23622047244094488},{"duration":0.08571425000000232,"midi":77,"time":16.6285645,"velocity":0.23622047244094488},{"duration":0.08571425000000232,"midi":93,"time":16.6285645,"velocity":0.23622047244094488},{"duration":0.08571424999999877,"midi":91,"time":16.799993,"velocity":0.23622047244094488},{"duration":0.08571424999999877,"midi":44,"time":16.799993,"velocity":0.23622047244094488},{"duration":0.08571425000000232,"midi":93,"time":16.88570725,"velocity":0.23622047244094488},{"duration":0.08571424999999877,"midi":39,"time":16.9714215,"velocity":0.23622047244094488},{"duration":0.08571424999999877,"midi":77,"time":16.9714215,"velocity":0.23622047244094488},{"duration":0.08571424999999877,"midi":81,"time":16.9714215,"velocity":0.23622047244094488},{"duration":0.08571425000000232,"midi":88,"time":17.05713575,"velocity":0.23622047244094488},{"duration":0.08571424999999877,"midi":74,"time":17.142850000000003,"velocity":0.23622047244094488},{"duration":0.08571424999999877,"midi":89,"time":17.22856425,"velocity":0.23622047244094488},{"duration":0.08571425000000232,"midi":81,"time":17.3142785,"velocity":0.23622047244094488},{"duration":0.08571425000000232,"midi":39,"time":17.3142785,"velocity":0.23622047244094488},{"duration":0.08571425000000232,"midi":77,"time":17.3142785,"velocity":0.23622047244094488},{"duration":0.08571424999999877,"midi":93,"time":17.399992750000003,"velocity":0.23622047244094488},{"duration":0.08571424999999877,"midi":44,"time":17.485707,"velocity":0.23622047244094488},{"duration":0.08571424999999877,"midi":91,"time":17.485707,"velocity":0.23622047244094488},{"duration":0.08571425000000232,"midi":89,"time":17.57142125,"velocity":0.23622047244094488},{"duration":0.08571424999999877,"midi":88,"time":17.657135500000003,"velocity":0.23622047244094488},{"duration":0.08571424999999877,"midi":77,"time":17.657135500000003,"velocity":0.23622047244094488},{"duration":0.08571424999999877,"midi":81,"time":17.657135500000003,"velocity":0.23622047244094488},{"duration":0.08571424999999877,"midi":41,"time":17.657135500000003,"velocity":0.23622047244094488},{"duration":0.08571424999999877,"midi":86,"time":17.74284975,"velocity":0.23622047244094488},{"duration":0.08571425000000232,"midi":74,"time":17.828564,"velocity":0.23622047244094488},{"duration":0.08571425000000232,"midi":39,"time":17.828564,"velocity":0.23622047244094488},{"duration":0.08571424999999877,"midi":86,"time":17.914278250000002,"velocity":0.23622047244094488},{"duration":0.08571424999999877,"midi":93,"time":17.9999925,"velocity":0.23622047244094488},{"duration":0.08571424999999877,"midi":81,"time":17.9999925,"velocity":0.23622047244094488},{"duration":0.08571424999999877,"midi":77,"time":17.9999925,"velocity":0.23622047244094488},{"duration":0.08571424999999877,"midi":41,"time":17.9999925,"velocity":0.23622047244094488},{"duration":0.08571424999999877,"midi":91,"time":18.171421000000002,"velocity":0.23622047244094488},{"duration":0.08571424999999877,"midi":44,"time":18.171421000000002,"velocity":0.23622047244094488},{"duration":0.08571424999999877,"midi":93,"time":18.25713525,"velocity":0.23622047244094488},{"duration":0.08571425000000232,"midi":81,"time":18.3428495,"velocity":0.23622047244094488},{"duration":0.08571425000000232,"midi":77,"time":18.3428495,"velocity":0.23622047244094488},{"duration":0.08571425000000232,"midi":39,"time":18.3428495,"velocity":0.23622047244094488},{"duration":0.08571424999999877,"midi":88,"time":18.428563750000002,"velocity":0.23622047244094488},{"duration":0.08571424999999877,"midi":74,"time":18.514278,"velocity":0.23622047244094488},{"duration":0.08571425000000232,"midi":89,"time":18.59999225,"velocity":0.23622047244094488},{"duration":0.08571424999999877,"midi":81,"time":18.685706500000002,"velocity":0.23622047244094488},{"duration":0.08571424999999877,"midi":39,"time":18.685706500000002,"velocity":0.23622047244094488},{"duration":0.08571424999999877,"midi":77,"time":18.685706500000002,"velocity":0.23622047244094488},{"duration":0.08571424999999877,"midi":93,"time":18.77142075,"velocity":0.23622047244094488},{"duration":0.08571425000000232,"midi":44,"time":18.857135,"velocity":0.23622047244094488},{"duration":0.08571425000000232,"midi":84,"time":18.857135,"velocity":0.23622047244094488},{"duration":0.08571425000000232,"midi":41,"time":19.0285635,"velocity":0.23622047244094488},{"duration":0.08571425000000232,"midi":85,"time":19.0285635,"velocity":0.23622047244094488},{"duration":0.08571425000000232,"midi":77,"time":19.0285635,"velocity":0.23622047244094488},{"duration":0.08571425000000232,"midi":81,"time":19.0285635,"velocity":0.23622047244094488},{"duration":0.08571424999999877,"midi":86,"time":19.199992,"velocity":0.23622047244094488},{"duration":0.08571424999999877,"midi":74,"time":19.199992,"velocity":0.23622047244094488},{"duration":0.08571424999999877,"midi":57,"time":19.199992,"velocity":0.23622047244094488},{"duration":0.08571424999999877,"midi":39,"time":19.199992,"velocity":0.23622047244094488},{"duration":0.08571424999999877,"midi":81,"time":19.371420500000003,"velocity":0.23622047244094488},{"duration":0.08571424999999877,"midi":41,"time":19.371420500000003,"velocity":0.23622047244094488},{"duration":0.08571424999999877,"midi":77,"time":19.371420500000003,"velocity":0.23622047244094488},{"duration":0.08571424999999877,"midi":93,"time":19.371420500000003,"velocity":0.23622047244094488},{"duration":0.08571425000000232,"midi":91,"time":19.542849,"velocity":0.23622047244094488},{"duration":0.08571425000000232,"midi":44,"time":19.542849,"velocity":0.23622047244094488},{"duration":0.08571424999999877,"midi":93,"time":19.628563250000003,"velocity":0.23622047244094488},{"duration":0.08571424999999877,"midi":39,"time":19.7142775,"velocity":0.23622047244094488},{"duration":0.08571424999999877,"midi":81,"time":19.7142775,"velocity":0.23622047244094488},{"duration":0.08571424999999877,"midi":77,"time":19.7142775,"velocity":0.23622047244094488},{"duration":0.08571425000000232,"midi":88,"time":19.79999175,"velocity":0.23622047244094488},{"duration":0.08571424999999877,"midi":74,"time":19.885706000000003,"velocity":0.23622047244094488},{"duration":0.08571424999999877,"midi":89,"time":19.97142025,"velocity":0.23622047244094488},{"duration":0.08571425000000232,"midi":81,"time":20.0571345,"velocity":0.23622047244094488},{"duration":0.08571425000000232,"midi":39,"time":20.0571345,"velocity":0.23622047244094488},{"duration":0.08571425000000232,"midi":77,"time":20.0571345,"velocity":0.23622047244094488},{"duration":0.08571424999999877,"midi":93,"time":20.142848750000002,"velocity":0.23622047244094488},{"duration":0.08571424999999877,"midi":44,"time":20.228563,"velocity":0.23622047244094488},{"duration":0.08571424999999877,"midi":91,"time":20.228563,"velocity":0.23622047244094488},{"duration":0.08571425000000232,"midi":89,"time":20.31427725,"velocity":0.23622047244094488},{"duration":0.08571424999999877,"midi":41,"time":20.399991500000002,"velocity":0.23622047244094488},{"duration":0.08571424999999877,"midi":81,"time":20.399991500000002,"velocity":0.23622047244094488},{"duration":0.08571424999999877,"midi":77,"time":20.399991500000002,"velocity":0.23622047244094488},{"duration":0.08571424999999877,"midi":88,"time":20.399991500000002,"velocity":0.23622047244094488},{"duration":0.08571424999999877,"midi":86,"time":20.48570575,"velocity":0.23622047244094488},{"duration":0.08571425000000232,"midi":44,"time":20.57142,"velocity":0.23622047244094488},{"duration":0.08571425000000232,"midi":74,"time":20.57142,"velocity":0.23622047244094488},{"duration":0.08571425000000232,"midi":39,"time":20.57142,"velocity":0.23622047244094488},{"duration":0.08571425000000232,"midi":57,"time":20.57142,"velocity":0.23622047244094488},{"duration":0.08571424999999877,"midi":86,"time":20.657134250000002,"velocity":0.23622047244094488},{"duration":0.08571424999999877,"midi":77,"time":20.7428485,"velocity":0.23622047244094488},{"duration":0.08571424999999877,"midi":41,"time":20.7428485,"velocity":0.23622047244094488},{"duration":0.08571424999999877,"midi":93,"time":20.7428485,"velocity":0.23622047244094488},{"duration":0.08571424999999877,"midi":81,"time":20.7428485,"velocity":0.23622047244094488},{"duration":0.08571424999999877,"midi":91,"time":20.914277000000002,"velocity":0.23622047244094488},{"duration":0.08571424999999877,"midi":44,"time":20.914277000000002,"velocity":0.23622047244094488},{"duration":0.08571425000000232,"midi":93,"time":20.99999125,"velocity":0.23622047244094488},{"duration":0.08571424999999877,"midi":39,"time":21.085705500000003,"velocity":0.23622047244094488},{"duration":0.08571424999999877,"midi":81,"time":21.085705500000003,"velocity":0.23622047244094488},{"duration":0.08571424999999877,"midi":77,"time":21.085705500000003,"velocity":0.23622047244094488},{"duration":0.08571424999999877,"midi":84,"time":21.171419750000002,"velocity":0.23622047244094488},{"duration":0.08571425000000232,"midi":44,"time":21.257134,"velocity":0.23622047244094488},{"duration":0.08571425000000232,"midi":74,"time":21.257134,"velocity":0.23622047244094488},{"duration":0.08571425000000232,"midi":57,"time":21.257134,"velocity":0.23622047244094488},{"duration":0.08571424999999877,"midi":84,"time":21.342848250000003,"velocity":0.23622047244094488},{"duration":0.08571424999999877,"midi":81,"time":21.4285625,"velocity":0.23622047244094488},{"duration":0.08571424999999877,"midi":39,"time":21.4285625,"velocity":0.23622047244094488},{"duration":0.08571424999999877,"midi":77,"time":21.4285625,"velocity":0.23622047244094488},{"duration":0.08571424999999877,"midi":93,"time":21.4285625,"velocity":0.23622047244094488},{"duration":0.08571424999999877,"midi":89,"time":21.599991000000003,"velocity":0.23622047244094488},{"duration":0.08571424999999877,"midi":57,"time":21.599991000000003,"velocity":0.23622047244094488},{"duration":0.08571424999999877,"midi":44,"time":21.599991000000003,"velocity":0.23622047244094488},{"duration":0.08571424999999877,"midi":88,"time":21.68570525,"velocity":0.23622047244094488},{"duration":0.08571425000000232,"midi":41,"time":21.7714195,"velocity":0.23622047244094488},{"duration":0.08571425000000232,"midi":57,"time":21.7714195,"velocity":0.23622047244094488},{"duration":0.08571425000000232,"midi":79,"time":21.7714195,"velocity":0.23622047244094488},{"duration":0.08571425000000232,"midi":86,"time":21.7714195,"velocity":0.23622047244094488},{"duration":0.08571425000000232,"midi":76,"time":21.7714195,"velocity":0.23622047244094488},{"duration":0.08571424999999877,"midi":84,"time":21.857133750000003,"velocity":0.23622047244094488},{"duration":0.08571424999999877,"midi":81,"time":21.942848,"velocity":0.23622047244094488},{"duration":0.08571424999999877,"midi":70,"time":21.942848,"velocity":0.23622047244094488},{"duration":0.08571424999999877,"midi":39,"time":21.942848,"velocity":0.23622047244094488},{"duration":0.08571424999999877,"midi":57,"time":21.942848,"velocity":0.23622047244094488},{"duration":0.08571424999999877,"midi":89,"time":22.114276500000003,"velocity":0.23622047244094488},{"duration":0.08571424999999877,"midi":77,"time":22.114276500000003,"velocity":0.23622047244094488},{"duration":0.08571424999999877,"midi":74,"time":22.114276500000003,"velocity":0.23622047244094488},{"duration":0.08571424999999877,"midi":41,"time":22.114276500000003,"velocity":0.23622047244094488},{"duration":0.08571425000000232,"midi":88,"time":22.285705,"velocity":0.23622047244094488},{"duration":0.08571425000000232,"midi":44,"time":22.285705,"velocity":0.23622047244094488},{"duration":0.08571424999999877,"midi":89,"time":22.371419250000002,"velocity":0.23622047244094488},{"duration":0.08571424999999877,"midi":39,"time":22.4571335,"velocity":0.23622047244094488},{"duration":0.08571424999999877,"midi":88,"time":22.4571335,"velocity":0.23622047244094488},{"duration":0.08571424999999877,"midi":74,"time":22.4571335,"velocity":0.23622047244094488},{"duration":0.08571424999999877,"midi":77,"time":22.4571335,"velocity":0.23622047244094488},{"duration":0.08571424999999877,"midi":91,"time":22.628562000000002,"velocity":0.23622047244094488},{"duration":0.08571424999999877,"midi":72,"time":22.628562000000002,"velocity":0.23622047244094488},{"duration":0.08571425000000232,"midi":89,"time":22.7999905,"velocity":0.23622047244094488},{"duration":0.08571425000000232,"midi":79,"time":22.7999905,"velocity":0.23622047244094488},{"duration":0.08571425000000232,"midi":76,"time":22.7999905,"velocity":0.23622047244094488},{"duration":0.08571425000000232,"midi":39,"time":22.7999905,"velocity":0.23622047244094488},{"duration":0.08571425000000232,"midi":44,"time":22.971419,"velocity":0.23622047244094488},{"duration":0.08571425000000232,"midi":88,"time":22.971419,"velocity":0.23622047244094488},{"duration":0.08571424999999877,"midi":89,"time":23.057133250000003,"velocity":0.23622047244094488},{"duration":0.08571424999999877,"midi":88,"time":23.142847500000002,"velocity":0.23622047244094488},{"duration":0.08571424999999877,"midi":76,"time":23.142847500000002,"velocity":0.23622047244094488},{"duration":0.08571424999999877,"midi":79,"time":23.142847500000002,"velocity":0.23622047244094488},{"duration":0.08571424999999877,"midi":41,"time":23.142847500000002,"velocity":0.23622047244094488},{"duration":0.08571425000000232,"midi":84,"time":23.22856175,"velocity":0.23622047244094488},{"duration":0.08571424999999877,"midi":86,"time":23.314276000000003,"velocity":0.23622047244094488},{"duration":0.08571424999999877,"midi":39,"time":23.314276000000003,"velocity":0.23622047244094488},{"duration":0.08571424999999877,"midi":74,"time":23.314276000000003,"velocity":0.23622047244094488},{"duration":0.08571425000000232,"midi":93,"time":23.4857045,"velocity":0.23622047244094488},{"duration":0.08571425000000232,"midi":41,"time":23.4857045,"velocity":0.23622047244094488},{"duration":0.08571425000000232,"midi":77,"time":23.4857045,"velocity":0.23622047244094488},{"duration":0.08571425000000232,"midi":81,"time":23.4857045,"velocity":0.23622047244094488},{"duration":0.08571424999999877,"midi":91,"time":23.657133,"velocity":0.23622047244094488},{"duration":0.08571424999999877,"midi":44,"time":23.657133,"velocity":0.23622047244094488},{"duration":0.08571425000000232,"midi":93,"time":23.74284725,"velocity":0.23622047244094488},{"duration":0.08571424999999877,"midi":77,"time":23.828561500000003,"velocity":0.23622047244094488},{"duration":0.08571424999999877,"midi":81,"time":23.828561500000003,"velocity":0.23622047244094488},{"duration":0.08571424999999877,"midi":39,"time":23.828561500000003,"velocity":0.23622047244094488},{"duration":0.08571424999999877,"midi":91,"time":23.828561500000003,"velocity":0.23622047244094488},{"duration":0.08571424999999877,"midi":93,"time":23.91427575,"velocity":0.23622047244094488},{"duration":0.08571425000000232,"midi":84,"time":23.99999,"velocity":0.23622047244094488},{"duration":0.08571425000000232,"midi":74,"time":23.99999,"velocity":0.23622047244094488},{"duration":0.08571424999999877,"midi":93,"time":24.1714185,"velocity":0.23622047244094488},{"duration":0.08571424999999877,"midi":77,"time":24.1714185,"velocity":0.23622047244094488},{"duration":0.08571424999999877,"midi":81,"time":24.1714185,"velocity":0.23622047244094488},{"duration":0.08571424999999877,"midi":39,"time":24.1714185,"velocity":0.23622047244094488},{"duration":0.08571424999999877,"midi":44,"time":24.342847000000003,"velocity":0.23622047244094488},{"duration":0.08571424999999877,"midi":91,"time":24.342847000000003,"velocity":0.23622047244094488},{"duration":0.08571425000000232,"midi":41,"time":24.5142755,"velocity":0.23622047244094488},{"duration":0.08571425000000232,"midi":93,"time":24.5142755,"velocity":0.23622047244094488},{"duration":0.08571425000000232,"midi":77,"time":24.5142755,"velocity":0.23622047244094488},{"duration":0.08571425000000232,"midi":81,"time":24.5142755,"velocity":0.23622047244094488},{"duration":0.08571424999999877,"midi":70,"time":24.685704,"velocity":0.23622047244094488},{"duration":0.08571424999999877,"midi":39,"time":24.685704,"velocity":0.23622047244094488},{"duration":0.08571424999999877,"midi":57,"time":24.685704,"velocity":0.23622047244094488},{"duration":0.08571424999999877,"midi":82,"time":24.685704,"velocity":0.23622047244094488},{"duration":0.08571424999999877,"midi":89,"time":24.857132500000002,"velocity":0.23622047244094488},{"duration":0.08571424999999877,"midi":41,"time":24.857132500000002,"velocity":0.23622047244094488},{"duration":0.08571424999999877,"midi":74,"time":24.857132500000002,"velocity":0.23622047244094488},{"duration":0.08571424999999877,"midi":77,"time":24.857132500000002,"velocity":0.23622047244094488},{"duration":0.08571424999999877,"midi":44,"time":25.028561000000003,"velocity":0.23622047244094488},{"duration":0.08571424999999877,"midi":88,"time":25.028561000000003,"velocity":0.23622047244094488},{"duration":0.08571424999999877,"midi":89,"time":25.114275250000002,"velocity":0.23622047244094488},{"duration":0.08571425000000232,"midi":77,"time":25.1999895,"velocity":0.23622047244094488},{"duration":0.08571425000000232,"midi":88,"time":25.1999895,"velocity":0.23622047244094488},{"duration":0.08571425000000232,"midi":74,"time":25.1999895,"velocity":0.23622047244094488},{"duration":0.08571425000000232,"midi":39,"time":25.1999895,"velocity":0.23622047244094488},{"duration":0.08571424999999877,"midi":91,"time":25.371418000000002,"velocity":0.23622047244094488},{"duration":0.08571424999999877,"midi":72,"time":25.371418000000002,"velocity":0.23622047244094488},{"duration":0.08571424999999877,"midi":39,"time":25.542846500000003,"velocity":0.23622047244094488},{"duration":0.08571424999999877,"midi":79,"time":25.542846500000003,"velocity":0.23622047244094488},{"duration":0.08571424999999877,"midi":76,"time":25.542846500000003,"velocity":0.23622047244094488},{"duration":0.08571424999999877,"midi":89,"time":25.542846500000003,"velocity":0.23622047244094488},{"duration":0.08571425000000232,"midi":88,"time":25.714275,"velocity":0.23622047244094488},{"duration":0.08571425000000232,"midi":44,"time":25.714275,"velocity":0.23622047244094488},{"duration":0.08571424999999877,"midi":89,"time":25.799989250000003,"velocity":0.23622047244094488},{"duration":0.08571424999999877,"midi":79,"time":25.8857035,"velocity":0.23622047244094488},{"duration":0.08571424999999877,"midi":88,"time":25.8857035,"velocity":0.23622047244094488},{"duration":0.08571424999999877,"midi":41,"time":25.8857035,"velocity":0.23622047244094488},{"duration":0.08571424999999877,"midi":76,"time":25.8857035,"velocity":0.23622047244094488},{"duration":0.08571425000000232,"midi":84,"time":25.97141775,"velocity":0.23622047244094488},{"duration":0.08571424999999877,"midi":39,"time":26.057132000000003,"velocity":0.23622047244094488},{"duration":0.08571424999999877,"midi":86,"time":26.057132000000003,"velocity":0.23622047244094488},{"duration":0.08571424999999877,"midi":74,"time":26.057132000000003,"velocity":0.23622047244094488},{"duration":0.08571424999999877,"midi":57,"time":26.057132000000003,"velocity":0.23622047244094488},{"duration":0.08571425000000232,"midi":81,"time":26.2285605,"velocity":0.23622047244094488},{"duration":0.08571425000000232,"midi":77,"time":26.2285605,"velocity":0.23622047244094488},{"duration":0.08571425000000232,"midi":41,"time":26.2285605,"velocity":0.23622047244094488},{"duration":0.08571425000000232,"midi":93,"time":26.2285605,"velocity":0.23622047244094488},{"duration":0.08571424999999877,"midi":74,"time":26.399989,"velocity":0.23622047244094488},{"duration":0.08571424999999877,"midi":91,"time":26.399989,"velocity":0.23622047244094488},{"duration":0.08571424999999877,"midi":44,"time":26.399989,"velocity":0.23622047244094488},{"duration":0.08571425000000232,"midi":93,"time":26.48570325,"velocity":0.23622047244094488},{"duration":0.08571424999999877,"midi":39,"time":26.571417500000003,"velocity":0.23622047244094488},{"duration":0.08571424999999877,"midi":91,"time":26.571417500000003,"velocity":0.23622047244094488},{"duration":0.08571424999999877,"midi":84,"time":26.571417500000003,"velocity":0.23622047244094488},{"duration":0.08571424999999877,"midi":79,"time":26.571417500000003,"velocity":0.23622047244094488},{"duration":0.08571424999999877,"midi":93,"time":26.65713175,"velocity":0.23622047244094488},{"duration":0.08571425000000232,"midi":85,"time":26.742846,"velocity":0.23622047244094488},{"duration":0.08571425000000232,"midi":44,"time":26.742846,"velocity":0.23622047244094488},{"duration":0.08571425000000232,"midi":74,"time":26.742846,"velocity":0.23622047244094488},{"duration":0.08571425000000232,"midi":57,"time":26.742846,"velocity":0.23622047244094488},{"duration":0.08571425000000232,"midi":39,"time":26.9142745,"velocity":0.23622047244094488},{"duration":0.08571425000000232,"midi":93,"time":26.9142745,"velocity":0.23622047244094488},{"duration":0.08571425000000232,"midi":86,"time":26.9142745,"velocity":0.23622047244094488},{"duration":0.08571425000000232,"midi":81,"time":26.9142745,"velocity":0.23622047244094488},{"duration":0.08571424999999877,"midi":91,"time":27.085703000000002,"velocity":0.23622047244094488},{"duration":0.08571424999999877,"midi":74,"time":27.085703000000002,"velocity":0.23622047244094488},{"duration":0.08571424999999877,"midi":44,"time":27.085703000000002,"velocity":0.23622047244094488},{"duration":0.08571424999999877,"midi":81,"time":27.257131500000003,"velocity":0.23622047244094488},{"duration":0.08571424999999877,"midi":41,"time":27.257131500000003,"velocity":0.23622047244094488},{"duration":0.08571424999999877,"midi":93,"time":27.257131500000003,"velocity":0.23622047244094488},{"duration":0.08571424999999877,"midi":77,"time":27.257131500000003,"velocity":0.23622047244094488},{"duration":0.08571425000000232,"midi":70,"time":27.42856,"velocity":0.23622047244094488},{"duration":0.08571425000000232,"midi":39,"time":27.42856,"velocity":0.23622047244094488},{"duration":0.08571425000000232,"midi":57,"time":27.42856,"velocity":0.23622047244094488},{"duration":0.08571425000000232,"midi":81,"time":27.42856,"velocity":0.23622047244094488},{"duration":0.08571424999999877,"midi":77,"time":27.599988500000002,"velocity":0.23622047244094488},{"duration":0.08571424999999877,"midi":89,"time":27.599988500000002,"velocity":0.23622047244094488},{"duration":0.08571424999999877,"midi":41,"time":27.599988500000002,"velocity":0.23622047244094488},{"duration":0.08571424999999877,"midi":74,"time":27.599988500000002,"velocity":0.23622047244094488},{"duration":0.08571424999999877,"midi":44,"time":27.771417000000003,"velocity":0.23622047244094488},{"duration":0.08571424999999877,"midi":88,"time":27.771417000000003,"velocity":0.23622047244094488},{"duration":0.08571424999999877,"midi":89,"time":27.857131250000002,"velocity":0.23622047244094488},{"duration":0.08571425000000232,"midi":39,"time":27.9428455,"velocity":0.23622047244094488},{"duration":0.08571425000000232,"midi":88,"time":27.9428455,"velocity":0.23622047244094488},{"duration":0.08571425000000232,"midi":77,"time":27.9428455,"velocity":0.23622047244094488},{"duration":0.08571425000000232,"midi":74,"time":27.9428455,"velocity":0.23622047244094488},{"duration":0.08571424999999877,"midi":91,"time":28.114274,"velocity":0.23622047244094488},{"duration":0.08571424999999877,"midi":72,"time":28.114274,"velocity":0.23622047244094488},{"duration":0.08571424999999877,"midi":89,"time":28.285702500000003,"velocity":0.23622047244094488},{"duration":0.08571424999999877,"midi":39,"time":28.285702500000003,"velocity":0.23622047244094488},{"duration":0.08571424999999877,"midi":76,"time":28.285702500000003,"velocity":0.23622047244094488},{"duration":0.08571424999999877,"midi":79,"time":28.285702500000003,"velocity":0.23622047244094488},{"duration":0.08571425000000232,"midi":44,"time":28.457131,"velocity":0.23622047244094488},{"duration":0.08571425000000232,"midi":88,"time":28.457131,"velocity":0.23622047244094488},{"duration":0.08571424999999877,"midi":89,"time":28.542845250000003,"velocity":0.23622047244094488},{"duration":0.08571424999999877,"midi":88,"time":28.6285595,"velocity":0.23622047244094488},{"duration":0.08571424999999877,"midi":79,"time":28.6285595,"velocity":0.23622047244094488},{"duration":0.08571424999999877,"midi":41,"time":28.6285595,"velocity":0.23622047244094488},{"duration":0.08571424999999877,"midi":76,"time":28.6285595,"velocity":0.23622047244094488},{"duration":0.08571425000000232,"midi":84,"time":28.71427375,"velocity":0.23622047244094488},{"duration":0.08571424999999877,"midi":74,"time":28.799988000000003,"velocity":0.23622047244094488},{"duration":0.08571424999999877,"midi":39,"time":28.799988000000003,"velocity":0.23622047244094488},{"duration":0.08571424999999877,"midi":86,"time":28.799988000000003,"velocity":0.23622047244094488},{"duration":0.08571424999999877,"midi":81,"time":28.971416500000004,"velocity":0.23622047244094488},{"duration":0.08571424999999877,"midi":41,"time":28.971416500000004,"velocity":0.23622047244094488},{"duration":0.08571424999999877,"midi":93,"time":28.971416500000004,"velocity":0.23622047244094488},{"duration":0.08571424999999877,"midi":77,"time":28.971416500000004,"velocity":0.23622047244094488},{"duration":0.08571425000000232,"midi":44,"time":29.142845,"velocity":0.23622047244094488},{"duration":0.08571425000000232,"midi":91,"time":29.142845,"velocity":0.23622047244094488},{"duration":0.08571424999999877,"midi":93,"time":29.228559250000004,"velocity":0.23622047244094488},{"duration":0.08571424999999877,"midi":39,"time":29.314273500000002,"velocity":0.23622047244094488},{"duration":0.08571424999999877,"midi":91,"time":29.314273500000002,"velocity":0.23622047244094488},{"duration":0.08571424999999877,"midi":81,"time":29.314273500000002,"velocity":0.23622047244094488},{"duration":0.08571424999999877,"midi":77,"time":29.314273500000002,"velocity":0.23622047244094488},{"duration":0.08571425000000232,"midi":93,"time":29.39998775,"velocity":0.23622047244094488},{"duration":0.08571424999999877,"midi":84,"time":29.485702000000003,"velocity":0.23622047244094488},{"duration":0.08571424999999877,"midi":74,"time":29.485702000000003,"velocity":0.23622047244094488},{"duration":0.08571425000000232,"midi":39,"time":29.6571305,"velocity":0.23622047244094488},{"duration":0.08571425000000232,"midi":93,"time":29.6571305,"velocity":0.23622047244094488},{"duration":0.08571425000000232,"midi":81,"time":29.6571305,"velocity":0.23622047244094488},{"duration":0.08571425000000232,"midi":77,"time":29.6571305,"velocity":0.23622047244094488},{"duration":0.08571424999999877,"midi":84,"time":29.742844750000003,"velocity":0.23622047244094488},{"duration":0.08571424999999877,"midi":88,"time":29.828559000000002,"velocity":0.23622047244094488},{"duration":0.08571424999999877,"midi":44,"time":29.828559000000002,"velocity":0.23622047244094488},{"duration":0.08571424999999877,"midi":89,"time":29.999987500000003,"velocity":0.23622047244094488},{"duration":0.08571424999999877,"midi":81,"time":29.999987500000003,"velocity":0.23622047244094488},{"duration":0.08571424999999877,"midi":77,"time":29.999987500000003,"velocity":0.23622047244094488},{"duration":0.08571424999999877,"midi":41,"time":29.999987500000003,"velocity":0.23622047244094488},{"duration":0.08571425000000232,"midi":39,"time":30.171416,"velocity":0.23622047244094488},{"duration":0.08571425000000232,"midi":70,"time":30.171416,"velocity":0.23622047244094488},{"duration":0.08571425000000232,"midi":91,"time":30.171416,"velocity":0.23622047244094488},{"duration":0.08571425000000232,"midi":57,"time":30.171416,"velocity":0.23622047244094488},{"duration":0.08571424999999877,"midi":79,"time":30.3428445,"velocity":0.23622047244094488},{"duration":0.08571424999999877,"midi":41,"time":30.3428445,"velocity":0.23622047244094488},{"duration":0.08571424999999877,"midi":74,"time":30.3428445,"velocity":0.23622047244094488},{"duration":0.08571424999999877,"midi":86,"time":30.3428445,"velocity":0.23622047244094488},{"duration":0.08571425000000232,"midi":91,"time":30.42855875,"velocity":0.23622047244094488},{"duration":0.08571424999999877,"midi":44,"time":30.514273000000003,"velocity":0.23622047244094488},{"duration":0.08571424999999877,"midi":86,"time":30.59998725,"velocity":0.23622047244094488},{"duration":0.08571425000000232,"midi":74,"time":30.6857015,"velocity":0.23622047244094488},{"duration":0.08571425000000232,"midi":91,"time":30.6857015,"velocity":0.23622047244094488},{"duration":0.08571425000000232,"midi":39,"time":30.6857015,"velocity":0.23622047244094488},{"duration":0.08571425000000232,"midi":79,"time":30.6857015,"velocity":0.23622047244094488},{"duration":0.08571425000000232,"midi":57,"time":30.85713,"velocity":0.23622047244094488},{"duration":0.08571425000000232,"midi":72,"time":30.85713,"velocity":0.23622047244094488},{"duration":0.08571425000000232,"midi":93,"time":30.85713,"velocity":0.23622047244094488},{"duration":0.08571424999999877,"midi":39,"time":31.028558500000003,"velocity":0.23622047244094488},{"duration":0.08571424999999877,"midi":76,"time":31.028558500000003,"velocity":0.23622047244094488},{"duration":0.08571424999999877,"midi":81,"time":31.028558500000003,"velocity":0.23622047244094488},{"duration":0.08571424999999877,"midi":88,"time":31.028558500000003,"velocity":0.23622047244094488},{"duration":0.08571425000000232,"midi":93,"time":31.11427275,"velocity":0.23622047244094488},{"duration":0.08571424999999877,"midi":44,"time":31.199987000000004,"velocity":0.23622047244094488},{"duration":0.08571424999999877,"midi":88,"time":31.285701250000002,"velocity":0.23622047244094488},{"duration":0.08571425000000232,"midi":93,"time":31.3714155,"velocity":0.23622047244094488},{"duration":0.08571425000000232,"midi":41,"time":31.3714155,"velocity":0.23622047244094488},{"duration":0.08571425000000232,"midi":81,"time":31.3714155,"velocity":0.23622047244094488},{"duration":0.08571425000000232,"midi":76,"time":31.3714155,"velocity":0.23622047244094488},{"duration":0.08571424999999877,"midi":94,"time":31.542844000000002,"velocity":0.23622047244094488},{"duration":0.08571424999999877,"midi":57,"time":31.542844000000002,"velocity":0.23622047244094488},{"duration":0.08571424999999877,"midi":74,"time":31.542844000000002,"velocity":0.23622047244094488},{"duration":0.08571424999999877,"midi":39,"time":31.542844000000002,"velocity":0.23622047244094488},{"duration":0.08571425000000232,"midi":89,"time":31.62855825,"velocity":0.23622047244094488},{"duration":0.08571424999999877,"midi":41,"time":31.714272500000003,"velocity":0.23622047244094488},{"duration":0.08571424999999877,"midi":77,"time":31.714272500000003,"velocity":0.23622047244094488},{"duration":0.08571424999999877,"midi":94,"time":31.714272500000003,"velocity":0.23622047244094488},{"duration":0.08571424999999877,"midi":82,"time":31.714272500000003,"velocity":0.23622047244094488},{"duration":0.08571425000000232,"midi":94,"time":31.885701,"velocity":0.23622047244094488},{"duration":0.08571425000000232,"midi":57,"time":31.885701,"velocity":0.23622047244094488},{"duration":0.08571425000000232,"midi":44,"time":31.885701,"velocity":0.23622047244094488},{"duration":0.08571425000000232,"midi":39,"time":32.0571295,"velocity":0.23622047244094488},{"duration":0.08571425000000232,"midi":79,"time":32.0571295,"velocity":0.23622047244094488},{"duration":0.08571425000000232,"midi":95,"time":32.0571295,"velocity":0.23622047244094488},{"duration":0.08571425000000232,"midi":83,"time":32.0571295,"velocity":0.23622047244094488},{"duration":0.08571425000000232,"midi":44,"time":32.228558,"velocity":0.23622047244094488},{"duration":0.08571425000000232,"midi":81,"time":32.228558,"velocity":0.23622047244094488},{"duration":0.08571425000000232,"midi":57,"time":32.228558,"velocity":0.23622047244094488},{"duration":0.08571425000000232,"midi":84,"time":32.228558,"velocity":0.23622047244094488},{"duration":0.08571425000000232,"midi":84,"time":32.228558,"velocity":0.23622047244094488},{"duration":0.08571424999999522,"midi":39,"time":32.399986500000004,"velocity":0.23622047244094488},{"duration":0.08571425000000232,"midi":84,"time":32.48570075,"velocity":0.23622047244094488},{"duration":0.08571425000000232,"midi":81,"time":32.48570075,"velocity":0.23622047244094488},{"duration":0.08571425000000232,"midi":44,"time":32.571415,"velocity":0.23622047244094488},{"duration":0.08571425000000232,"midi":57,"time":32.571415,"velocity":0.23622047244094488},{"duration":0.08571425000000232,"midi":81,"time":32.7428435,"velocity":0.23622047244094488},{"duration":0.08571425000000232,"midi":84,"time":32.7428435,"velocity":0.23622047244094488},{"duration":0.08571425000000232,"midi":41,"time":32.7428435,"velocity":0.23622047244094488},{"duration":0.08571424999999522,"midi":70,"time":32.914272000000004,"velocity":0.23622047244094488},{"duration":0.08571424999999522,"midi":39,"time":32.914272000000004,"velocity":0.23622047244094488},{"duration":0.08571424999999522,"midi":57,"time":32.914272000000004,"velocity":0.23622047244094488},{"duration":0.08571424999999522,"midi":81,"time":32.914272000000004,"velocity":0.23622047244094488},{"duration":0.08571425000000232,"midi":77,"time":33.0857005,"velocity":0.23622047244094488},{"duration":0.08571425000000232,"midi":41,"time":33.0857005,"velocity":0.23622047244094488},{"duration":0.08571425000000232,"midi":74,"time":33.0857005,"velocity":0.23622047244094488},{"duration":0.08571425000000232,"midi":89,"time":33.0857005,"velocity":0.23622047244094488},{"duration":0.08571425000000232,"midi":88,"time":33.257129,"velocity":0.23622047244094488},{"duration":0.08571425000000232,"midi":44,"time":33.257129,"velocity":0.23622047244094488},{"duration":0.08571425000000232,"midi":89,"time":33.34284325,"velocity":0.23622047244094488},{"duration":0.08571424999999522,"midi":77,"time":33.428557500000004,"velocity":0.23622047244094488},{"duration":0.08571424999999522,"midi":39,"time":33.428557500000004,"velocity":0.23622047244094488},{"duration":0.08571424999999522,"midi":74,"time":33.428557500000004,"velocity":0.23622047244094488},{"duration":0.08571424999999522,"midi":88,"time":33.428557500000004,"velocity":0.23622047244094488},{"duration":0.08571425000000232,"midi":72,"time":33.599986,"velocity":0.23622047244094488},{"duration":0.08571425000000232,"midi":91,"time":33.599986,"velocity":0.23622047244094488},{"duration":0.08571425000000232,"midi":79,"time":33.7714145,"velocity":0.23622047244094488},{"duration":0.08571425000000232,"midi":76,"time":33.7714145,"velocity":0.23622047244094488},{"duration":0.08571425000000232,"midi":39,"time":33.7714145,"velocity":0.23622047244094488},{"duration":0.08571425000000232,"midi":89,"time":33.7714145,"velocity":0.23622047244094488},{"duration":0.08571425000000232,"midi":44,"time":33.942843,"velocity":0.23622047244094488},{"duration":0.08571425000000232,"midi":88,"time":33.942843,"velocity":0.23622047244094488},{"duration":0.08571424999999522,"midi":89,"time":34.028557250000006,"velocity":0.23622047244094488},{"duration":0.08571425000000232,"midi":41,"time":34.1142715,"velocity":0.23622047244094488},{"duration":0.08571425000000232,"midi":88,"time":34.1142715,"velocity":0.23622047244094488},{"duration":0.08571425000000232,"midi":79,"time":34.1142715,"velocity":0.23622047244094488},{"duration":0.08571425000000232,"midi":76,"time":34.1142715,"velocity":0.23622047244094488},{"duration":0.08571425000000232,"midi":84,"time":34.19998575,"velocity":0.23622047244094488},{"duration":0.08571424999999522,"midi":86,"time":34.285700000000006,"velocity":0.23622047244094488},{"duration":0.08571424999999522,"midi":39,"time":34.285700000000006,"velocity":0.23622047244094488},{"duration":0.08571424999999522,"midi":74,"time":34.285700000000006,"velocity":0.23622047244094488},{"duration":0.08571425000000232,"midi":77,"time":34.4571285,"velocity":0.23622047244094488},{"duration":0.08571425000000232,"midi":93,"time":34.4571285,"velocity":0.23622047244094488},{"duration":0.08571425000000232,"midi":81,"time":34.4571285,"velocity":0.23622047244094488},{"duration":0.08571425000000232,"midi":41,"time":34.4571285,"velocity":0.23622047244094488},{"duration":0.08571425000000232,"midi":44,"time":34.628557,"velocity":0.23622047244094488},{"duration":0.08571425000000232,"midi":91,"time":34.628557,"velocity":0.23622047244094488},{"duration":0.08571425000000232,"midi":93,"time":34.71427125,"velocity":0.23622047244094488},{"duration":0.08571424999999522,"midi":91,"time":34.799985500000005,"velocity":0.23622047244094488},{"duration":0.08571424999999522,"midi":77,"time":34.799985500000005,"velocity":0.23622047244094488},{"duration":0.08571424999999522,"midi":39,"time":34.799985500000005,"velocity":0.23622047244094488},{"duration":0.08571424999999522,"midi":81,"time":34.799985500000005,"velocity":0.23622047244094488},{"duration":0.08571425000000232,"midi":93,"time":34.88569975,"velocity":0.23622047244094488},{"duration":0.08571425000000232,"midi":84,"time":34.971414,"velocity":0.23622047244094488},{"duration":0.08571425000000232,"midi":74,"time":34.971414,"velocity":0.23622047244094488},{"duration":0.08571425000000232,"midi":81,"time":35.1428425,"velocity":0.23622047244094488},{"duration":0.08571425000000232,"midi":93,"time":35.1428425,"velocity":0.23622047244094488},{"duration":0.08571425000000232,"midi":77,"time":35.1428425,"velocity":0.23622047244094488},{"duration":0.08571425000000232,"midi":39,"time":35.1428425,"velocity":0.23622047244094488},{"duration":0.08571424999999522,"midi":44,"time":35.314271000000005,"velocity":0.23622047244094488},{"duration":0.08571424999999522,"midi":91,"time":35.314271000000005,"velocity":0.23622047244094488},{"duration":0.08571425000000232,"midi":41,"time":35.4856995,"velocity":0.23622047244094488},{"duration":0.08571425000000232,"midi":93,"time":35.4856995,"velocity":0.23622047244094488},{"duration":0.08571425000000232,"midi":77,"time":35.4856995,"velocity":0.23622047244094488},{"duration":0.08571425000000232,"midi":81,"time":35.4856995,"velocity":0.23622047244094488},{"duration":0.08571425000000232,"midi":57,"time":35.657128,"velocity":0.23622047244094488},{"duration":0.08571425000000232,"midi":70,"time":35.657128,"velocity":0.23622047244094488},{"duration":0.08571425000000232,"midi":39,"time":35.657128,"velocity":0.23622047244094488},{"duration":0.08571425000000232,"midi":82,"time":35.657128,"velocity":0.23622047244094488},{"duration":0.08571424999999522,"midi":41,"time":35.828556500000005,"velocity":0.23622047244094488},{"duration":0.08571424999999522,"midi":89,"time":35.828556500000005,"velocity":0.23622047244094488},{"duration":0.08571424999999522,"midi":74,"time":35.828556500000005,"velocity":0.23622047244094488},{"duration":0.08571424999999522,"midi":77,"time":35.828556500000005,"velocity":0.23622047244094488},{"duration":0.08571425000000232,"midi":44,"time":35.999985,"velocity":0.23622047244094488},{"duration":0.08571425000000232,"midi":88,"time":35.999985,"velocity":0.23622047244094488},{"duration":0.08571424999999522,"midi":89,"time":36.085699250000005,"velocity":0.23622047244094488},{"duration":0.08571425000000232,"midi":39,"time":36.1714135,"velocity":0.23622047244094488},{"duration":0.08571425000000232,"midi":77,"time":36.1714135,"velocity":0.23622047244094488},{"duration":0.08571425000000232,"midi":74,"time":36.1714135,"velocity":0.23622047244094488},{"duration":0.08571425000000232,"midi":88,"time":36.1714135,"velocity":0.23622047244094488},{"duration":0.08571424999999522,"midi":91,"time":36.342842000000005,"velocity":0.23622047244094488},{"duration":0.08571424999999522,"midi":72,"time":36.342842000000005,"velocity":0.23622047244094488},{"duration":0.08571425000000232,"midi":79,"time":36.5142705,"velocity":0.23622047244094488},{"duration":0.08571425000000232,"midi":76,"time":36.5142705,"velocity":0.23622047244094488},{"duration":0.08571425000000232,"midi":39,"time":36.5142705,"velocity":0.23622047244094488},{"duration":0.08571425000000232,"midi":89,"time":36.5142705,"velocity":0.23622047244094488},{"duration":0.08571425000000232,"midi":44,"time":36.685699,"velocity":0.23622047244094488},{"duration":0.08571425000000232,"midi":88,"time":36.685699,"velocity":0.23622047244094488},{"duration":0.08571425000000232,"midi":89,"time":36.77141325,"velocity":0.23622047244094488},{"duration":0.08571424999999522,"midi":79,"time":36.857127500000004,"velocity":0.23622047244094488},{"duration":0.08571424999999522,"midi":88,"time":36.857127500000004,"velocity":0.23622047244094488},{"duration":0.08571424999999522,"midi":76,"time":36.857127500000004,"velocity":0.23622047244094488},{"duration":0.08571424999999522,"midi":41,"time":36.857127500000004,"velocity":0.23622047244094488},{"duration":0.08571425000000232,"midi":84,"time":36.94284175,"velocity":0.23622047244094488},{"duration":0.08571425000000232,"midi":86,"time":37.028556,"velocity":0.23622047244094488},{"duration":0.08571425000000232,"midi":39,"time":37.028556,"velocity":0.23622047244094488},{"duration":0.08571425000000232,"midi":74,"time":37.028556,"velocity":0.23622047244094488},{"duration":0.08571425000000232,"midi":57,"time":37.028556,"velocity":0.23622047244094488},{"duration":0.08571425000000232,"midi":81,"time":37.1999845,"velocity":0.23622047244094488},{"duration":0.08571425000000232,"midi":93,"time":37.1999845,"velocity":0.23622047244094488},{"duration":0.08571425000000232,"midi":41,"time":37.1999845,"velocity":0.23622047244094488},{"duration":0.08571425000000232,"midi":77,"time":37.1999845,"velocity":0.23622047244094488},{"duration":0.08571424999999522,"midi":74,"time":37.371413000000004,"velocity":0.23622047244094488},{"duration":0.08571424999999522,"midi":91,"time":37.371413000000004,"velocity":0.23622047244094488},{"duration":0.08571424999999522,"midi":44,"time":37.371413000000004,"velocity":0.23622047244094488},{"duration":0.08571425000000232,"midi":93,"time":37.45712725,"velocity":0.23622047244094488},{"duration":0.08571425000000232,"midi":84,"time":37.5428415,"velocity":0.23622047244094488},{"duration":0.08571425000000232,"midi":91,"time":37.5428415,"velocity":0.23622047244094488},{"duration":0.08571425000000232,"midi":39,"time":37.5428415,"velocity":0.23622047244094488},{"duration":0.08571425000000232,"midi":79,"time":37.5428415,"velocity":0.23622047244094488},{"duration":0.08571424999999522,"midi":93,"time":37.628555750000004,"velocity":0.23622047244094488},{"duration":0.08571425000000232,"midi":44,"time":37.71427,"velocity":0.23622047244094488},{"duration":0.08571425000000232,"midi":57,"time":37.71427,"velocity":0.23622047244094488},{"duration":0.08571425000000232,"midi":85,"time":37.71427,"velocity":0.23622047244094488},{"duration":0.08571425000000232,"midi":74,"time":37.71427,"velocity":0.23622047244094488},{"duration":0.08571425000000232,"midi":93,"time":37.885698500000004,"velocity":0.23622047244094488},{"duration":0.08571425000000232,"midi":39,"time":37.885698500000004,"velocity":0.23622047244094488},{"duration":0.08571425000000232,"midi":81,"time":37.885698500000004,"velocity":0.23622047244094488},{"duration":0.08571425000000232,"midi":86,"time":37.885698500000004,"velocity":0.23622047244094488},{"duration":0.08571425000000232,"midi":44,"time":38.057127,"velocity":0.23622047244094488},{"duration":0.08571425000000232,"midi":91,"time":38.057127,"velocity":0.23622047244094488},{"duration":0.08571425000000232,"midi":74,"time":38.057127,"velocity":0.23622047244094488},{"duration":0.08571424999999522,"midi":77,"time":38.228555500000006,"velocity":0.23622047244094488},{"duration":0.08571424999999522,"midi":41,"time":38.228555500000006,"velocity":0.23622047244094488},{"duration":0.08571424999999522,"midi":93,"time":38.228555500000006,"velocity":0.23622047244094488},{"duration":0.08571424999999522,"midi":81,"time":38.228555500000006,"velocity":0.23622047244094488},{"duration":0.08571425000000232,"midi":70,"time":38.399984,"velocity":0.23622047244094488},{"duration":0.08571425000000232,"midi":57,"time":38.399984,"velocity":0.23622047244094488},{"duration":0.08571425000000232,"midi":39,"time":38.399984,"velocity":0.23622047244094488},{"duration":0.08571425000000232,"midi":81,"time":38.399984,"velocity":0.23622047244094488},{"duration":0.08571425000000232,"midi":41,"time":38.5714125,"velocity":0.23622047244094488},{"duration":0.08571425000000232,"midi":89,"time":38.5714125,"velocity":0.23622047244094488},{"duration":0.08571425000000232,"midi":74,"time":38.5714125,"velocity":0.23622047244094488},{"duration":0.08571425000000232,"midi":77,"time":38.5714125,"velocity":0.23622047244094488},{"duration":0.08571424999999522,"midi":44,"time":38.742841000000006,"velocity":0.23622047244094488},{"duration":0.08571424999999522,"midi":88,"time":38.742841000000006,"velocity":0.23622047244094488},{"duration":0.08571425000000232,"midi":89,"time":38.82855525,"velocity":0.23622047244094488},{"duration":0.08571425000000232,"midi":77,"time":38.9142695,"velocity":0.23622047244094488},{"duration":0.08571425000000232,"midi":39,"time":38.9142695,"velocity":0.23622047244094488},{"duration":0.08571425000000232,"midi":88,"time":38.9142695,"velocity":0.23622047244094488},{"duration":0.08571425000000232,"midi":74,"time":38.9142695,"velocity":0.23622047244094488},{"duration":0.08571425000000232,"midi":72,"time":39.085698,"velocity":0.23622047244094488},{"duration":0.08571425000000232,"midi":91,"time":39.085698,"velocity":0.23622047244094488},{"duration":0.08571424999999522,"midi":89,"time":39.257126500000005,"velocity":0.23622047244094488},{"duration":0.08571424999999522,"midi":79,"time":39.257126500000005,"velocity":0.23622047244094488},{"duration":0.08571424999999522,"midi":39,"time":39.257126500000005,"velocity":0.23622047244094488},{"duration":0.08571424999999522,"midi":76,"time":39.257126500000005,"velocity":0.23622047244094488},{"duration":0.08571425000000232,"midi":88,"time":39.428555,"velocity":0.23622047244094488},{"duration":0.08571425000000232,"midi":44,"time":39.428555,"velocity":0.23622047244094488},{"duration":0.08571424999999522,"midi":89,"time":39.514269250000005,"velocity":0.23622047244094488},{"duration":0.08571425000000232,"midi":41,"time":39.5999835,"velocity":0.23622047244094488},{"duration":0.08571425000000232,"midi":79,"time":39.5999835,"velocity":0.23622047244094488},{"duration":0.08571425000000232,"midi":88,"time":39.5999835,"velocity":0.23622047244094488},{"duration":0.08571425000000232,"midi":76,"time":39.5999835,"velocity":0.23622047244094488},{"duration":0.08571425000000232,"midi":84,"time":39.68569775,"velocity":0.23622047244094488},{"duration":0.08571424999999522,"midi":74,"time":39.771412000000005,"velocity":0.23622047244094488},{"duration":0.08571424999999522,"midi":86,"time":39.771412000000005,"velocity":0.23622047244094488},{"duration":0.08571424999999522,"midi":39,"time":39.771412000000005,"velocity":0.23622047244094488},{"duration":0.08571425000000232,"midi":41,"time":39.9428405,"velocity":0.23622047244094488},{"duration":0.08571425000000232,"midi":81,"time":39.9428405,"velocity":0.23622047244094488},{"duration":0.08571425000000232,"midi":77,"time":39.9428405,"velocity":0.23622047244094488},{"duration":0.08571425000000232,"midi":93,"time":39.9428405,"velocity":0.23622047244094488},{"duration":0.08571425000000232,"midi":44,"time":40.114269,"velocity":0.23622047244094488},{"duration":0.08571425000000232,"midi":91,"time":40.114269,"velocity":0.23622047244094488},{"duration":0.08571425000000232,"midi":93,"time":40.19998325,"velocity":0.23622047244094488},{"duration":0.08571424999999522,"midi":81,"time":40.285697500000005,"velocity":0.23622047244094488},{"duration":0.08571424999999522,"midi":77,"time":40.285697500000005,"velocity":0.23622047244094488},{"duration":0.08571424999999522,"midi":91,"time":40.285697500000005,"velocity":0.23622047244094488},{"duration":0.08571424999999522,"midi":39,"time":40.285697500000005,"velocity":0.23622047244094488},{"duration":0.08571425000000232,"midi":93,"time":40.37141175,"velocity":0.23622047244094488},{"duration":0.08571425000000232,"midi":74,"time":40.457126,"velocity":0.23622047244094488},{"duration":0.08571425000000232,"midi":84,"time":40.457126,"velocity":0.23622047244094488},{"duration":0.08571425000000232,"midi":93,"time":40.6285545,"velocity":0.23622047244094488},{"duration":0.08571425000000232,"midi":81,"time":40.6285545,"velocity":0.23622047244094488},{"duration":0.08571425000000232,"midi":39,"time":40.6285545,"velocity":0.23622047244094488},{"duration":0.08571425000000232,"midi":77,"time":40.6285545,"velocity":0.23622047244094488},{"duration":0.08571425000000232,"midi":84,"time":40.71426875,"velocity":0.23622047244094488},{"duration":0.08571424999999522,"midi":44,"time":40.799983000000005,"velocity":0.23622047244094488},{"duration":0.08571424999999522,"midi":88,"time":40.799983000000005,"velocity":0.23622047244094488},{"duration":0.08571425000000232,"midi":81,"time":40.9714115,"velocity":0.23622047244094488},{"duration":0.08571425000000232,"midi":89,"time":40.9714115,"velocity":0.23622047244094488},{"duration":0.08571425000000232,"midi":41,"time":40.9714115,"velocity":0.23622047244094488},{"duration":0.08571425000000232,"midi":77,"time":40.9714115,"velocity":0.23622047244094488},{"duration":0.08571425000000232,"midi":57,"time":41.14284,"velocity":0.23622047244094488},{"duration":0.08571425000000232,"midi":39,"time":41.14284,"velocity":0.23622047244094488},{"duration":0.08571425000000232,"midi":70,"time":41.14284,"velocity":0.23622047244094488},{"duration":0.08571425000000232,"midi":91,"time":41.14284,"velocity":0.23622047244094488},{"duration":0.08571424999999522,"midi":41,"time":41.314268500000004,"velocity":0.23622047244094488},{"duration":0.08571424999999522,"midi":86,"time":41.314268500000004,"velocity":0.23622047244094488},{"duration":0.08571424999999522,"midi":74,"time":41.314268500000004,"velocity":0.23622047244094488},{"duration":0.08571424999999522,"midi":79,"time":41.314268500000004,"velocity":0.23622047244094488},{"duration":0.08571425000000232,"midi":91,"time":41.39998275,"velocity":0.23622047244094488},{"duration":0.08571425000000232,"midi":44,"time":41.485697,"velocity":0.23622047244094488},{"duration":0.08571424999999522,"midi":86,"time":41.571411250000004,"velocity":0.23622047244094488},{"duration":0.08571425000000232,"midi":91,"time":41.6571255,"velocity":0.23622047244094488},{"duration":0.08571425000000232,"midi":79,"time":41.6571255,"velocity":0.23622047244094488},{"duration":0.08571425000000232,"midi":74,"time":41.6571255,"velocity":0.23622047244094488},{"duration":0.08571425000000232,"midi":39,"time":41.6571255,"velocity":0.23622047244094488},{"duration":0.08571425000000232,"midi":81,"time":41.828554000000004,"velocity":0.23622047244094488},{"duration":0.08571425000000232,"midi":57,"time":41.828554000000004,"velocity":0.23622047244094488},{"duration":0.08571425000000232,"midi":93,"time":41.828554000000004,"velocity":0.23622047244094488},{"duration":0.08571425000000232,"midi":77,"time":41.828554000000004,"velocity":0.23622047244094488},{"duration":0.08571425000000232,"midi":76,"time":41.9999825,"velocity":0.23622047244094488},{"duration":0.08571425000000232,"midi":91,"time":41.9999825,"velocity":0.23622047244094488},{"duration":0.08571425000000232,"midi":79,"time":41.9999825,"velocity":0.23622047244094488},{"duration":0.08571425000000232,"midi":39,"time":41.9999825,"velocity":0.23622047244094488},{"duration":0.08571424999999522,"midi":77,"time":42.171411000000006,"velocity":0.23622047244094488},{"duration":0.08571424999999522,"midi":89,"time":42.171411000000006,"velocity":0.23622047244094488},{"duration":0.08571424999999522,"midi":74,"time":42.171411000000006,"velocity":0.23622047244094488},{"duration":0.08571424999999522,"midi":44,"time":42.171411000000006,"velocity":0.23622047244094488},{"duration":0.08571425000000232,"midi":88,"time":42.342839500000004,"velocity":0.23622047244094488},{"duration":0.08571425000000232,"midi":76,"time":42.342839500000004,"velocity":0.23622047244094488},{"duration":0.08571425000000232,"midi":72,"time":42.342839500000004,"velocity":0.23622047244094488},{"duration":0.08571425000000232,"midi":41,"time":42.342839500000004,"velocity":0.23622047244094488},{"duration":0.08571425000000232,"midi":86,"time":42.514268,"velocity":0.23622047244094488},{"duration":0.08571425000000232,"midi":39,"time":42.514268,"velocity":0.23622047244094488},{"duration":0.08571425000000232,"midi":74,"time":42.514268,"velocity":0.23622047244094488},{"duration":0.08571425000000232,"midi":69,"time":42.514268,"velocity":0.23622047244094488},{"duration":0.08571425000000232,"midi":57,"time":42.514268,"velocity":0.23622047244094488},{"duration":0.08571424999999522,"midi":62,"time":42.685696500000006,"velocity":0.23622047244094488},{"duration":0.08571424999999522,"midi":41,"time":42.685696500000006,"velocity":0.23622047244094488},{"duration":0.08571425000000232,"midi":57,"time":42.857125,"velocity":0.23622047244094488},{"duration":0.08571425000000232,"midi":44,"time":42.857125,"velocity":0.23622047244094488},{"duration":0.08571425000000232,"midi":74,"time":42.857125,"velocity":0.23622047244094488},{"duration":0.08571425000000232,"midi":69,"time":42.857125,"velocity":0.23622047244094488},{"duration":0.08571425000000232,"midi":39,"time":43.0285535,"velocity":0.23622047244094488},{"duration":0.08571425000000232,"midi":62,"time":43.0285535,"velocity":0.23622047244094488},{"duration":0.08571424999999522,"midi":74,"time":43.199982000000006,"velocity":0.23622047244094488},{"duration":0.08571424999999522,"midi":57,"time":43.199982000000006,"velocity":0.23622047244094488},{"duration":0.08571424999999522,"midi":44,"time":43.199982000000006,"velocity":0.23622047244094488},{"duration":0.08571424999999522,"midi":69,"time":43.199982000000006,"velocity":0.23622047244094488},{"duration":0.08571425000000232,"midi":74,"time":43.3714105,"velocity":0.23622047244094488},{"duration":0.08571425000000232,"midi":69,"time":43.3714105,"velocity":0.23622047244094488},{"duration":0.08571425000000232,"midi":39,"time":43.3714105,"velocity":0.23622047244094488},{"duration":0.08571425000000232,"midi":69,"time":43.542839,"velocity":0.23622047244094488},{"duration":0.08571425000000232,"midi":74,"time":43.542839,"velocity":0.23622047244094488},{"duration":0.08571425000000232,"midi":44,"time":43.542839,"velocity":0.23622047244094488},{"duration":0.08571425000000232,"midi":57,"time":43.542839,"velocity":0.23622047244094488},{"duration":0.08571424999999522,"midi":69,"time":43.714267500000005,"velocity":0.23622047244094488},{"duration":0.08571424999999522,"midi":74,"time":43.714267500000005,"velocity":0.23622047244094488},{"duration":0.08571424999999522,"midi":41,"time":43.714267500000005,"velocity":0.23622047244094488},{"duration":0.08571425000000232,"midi":57,"time":43.885696,"velocity":0.23622047244094488},{"duration":0.08571425000000232,"midi":39,"time":43.885696,"velocity":0.23622047244094488},{"duration":0.08571425000000232,"midi":69,"time":43.885696,"velocity":0.23622047244094488},{"duration":0.08571425000000232,"midi":57,"time":43.885696,"velocity":0.23622047244094488},{"duration":0.08571425000000232,"midi":41,"time":44.0571245,"velocity":0.23622047244094488},{"duration":0.08571425000000232,"midi":62,"time":44.0571245,"velocity":0.23622047244094488},{"duration":0.08571425000000232,"midi":65,"time":44.0571245,"velocity":0.23622047244094488},{"duration":0.08571425000000232,"midi":77,"time":44.0571245,"velocity":0.23622047244094488},{"duration":0.08571424999999522,"midi":76,"time":44.228553000000005,"velocity":0.23622047244094488},{"duration":0.08571424999999522,"midi":44,"time":44.228553000000005,"velocity":0.23622047244094488},{"duration":0.08571425000000232,"midi":77,"time":44.31426725,"velocity":0.23622047244094488},{"duration":0.08571425000000232,"midi":62,"time":44.3999815,"velocity":0.23622047244094488},{"duration":0.08571425000000232,"midi":76,"time":44.3999815,"velocity":0.23622047244094488},{"duration":0.08571425000000232,"midi":65,"time":44.3999815,"velocity":0.23622047244094488},{"duration":0.08571425000000232,"midi":39,"time":44.3999815,"velocity":0.23622047244094488},{"duration":0.08571425000000232,"midi":60,"time":44.57141,"velocity":0.23622047244094488},{"duration":0.08571425000000232,"midi":79,"time":44.57141,"velocity":0.23622047244094488},{"duration":0.08571424999999522,"midi":64,"time":44.742838500000005,"velocity":0.23622047244094488},{"duration":0.08571424999999522,"midi":67,"time":44.742838500000005,"velocity":0.23622047244094488},{"duration":0.08571424999999522,"midi":77,"time":44.742838500000005,"velocity":0.23622047244094488},{"duration":0.08571424999999522,"midi":39,"time":44.742838500000005,"velocity":0.23622047244094488},{"duration":0.08571425000000232,"midi":76,"time":44.914267,"velocity":0.23622047244094488},{"duration":0.08571425000000232,"midi":44,"time":44.914267,"velocity":0.23622047244094488},{"duration":0.08571424999999522,"midi":77,"time":44.999981250000005,"velocity":0.23622047244094488},{"duration":0.08571425000000232,"midi":41,"time":45.0856955,"velocity":0.23622047244094488},{"duration":0.08571425000000232,"midi":67,"time":45.0856955,"velocity":0.23622047244094488},{"duration":0.08571425000000232,"midi":64,"time":45.0856955,"velocity":0.23622047244094488},{"duration":0.08571425000000232,"midi":76,"time":45.0856955,"velocity":0.23622047244094488},{"duration":0.08571425000000232,"midi":72,"time":45.17140975,"velocity":0.23622047244094488},{"duration":0.08571424999999522,"midi":74,"time":45.257124000000005,"velocity":0.23622047244094488},{"duration":0.08571424999999522,"midi":62,"time":45.257124000000005,"velocity":0.23622047244094488},{"duration":0.08571424999999522,"midi":39,"time":45.257124000000005,"velocity":0.23622047244094488},{"duration":0.08571425000000232,"midi":65,"time":45.4285525,"velocity":0.23622047244094488},{"duration":0.08571425000000232,"midi":69,"time":45.4285525,"velocity":0.23622047244094488},{"duration":0.08571425000000232,"midi":41,"time":45.4285525,"velocity":0.23622047244094488},{"duration":0.08571425000000232,"midi":81,"time":45.4285525,"velocity":0.23622047244094488},{"duration":0.08571425000000232,"midi":79,"time":45.599981,"velocity":0.23622047244094488},{"duration":0.08571425000000232,"midi":44,"time":45.599981,"velocity":0.23622047244094488},{"duration":0.08571425000000232,"midi":81,"time":45.68569525,"velocity":0.23622047244094488},{"duration":0.08571424999999522,"midi":39,"time":45.771409500000004,"velocity":0.23622047244094488},{"duration":0.08571424999999522,"midi":79,"time":45.771409500000004,"velocity":0.23622047244094488},{"duration":0.08571424999999522,"midi":65,"time":45.771409500000004,"velocity":0.23622047244094488},{"duration":0.08571424999999522,"midi":69,"time":45.771409500000004,"velocity":0.23622047244094488},{"duration":0.08571425000000232,"midi":81,"time":45.85712375,"velocity":0.23622047244094488},{"duration":0.08571425000000232,"midi":84,"time":45.942838,"velocity":0.23622047244094488},{"duration":0.08571425000000232,"midi":62,"time":45.942838,"velocity":0.23622047244094488},{"duration":0.08571424999999522,"midi":69,"time":46.11426650000001,"velocity":0.23622047244094488},{"duration":0.08571424999999522,"midi":65,"time":46.11426650000001,"velocity":0.23622047244094488},{"duration":0.08571424999999522,"midi":81,"time":46.11426650000001,"velocity":0.23622047244094488},{"duration":0.08571424999999522,"midi":39,"time":46.11426650000001,"velocity":0.23622047244094488},{"duration":0.08571425000000232,"midi":44,"time":46.285695000000004,"velocity":0.23622047244094488},{"duration":0.08571425000000232,"midi":79,"time":46.285695000000004,"velocity":0.23622047244094488},{"duration":0.08571425000000232,"midi":69,"time":46.4571235,"velocity":0.23622047244094488},{"duration":0.08571425000000232,"midi":65,"time":46.4571235,"velocity":0.23622047244094488},{"duration":0.08571425000000232,"midi":41,"time":46.4571235,"velocity":0.23622047244094488},{"duration":0.08571425000000232,"midi":81,"time":46.4571235,"velocity":0.23622047244094488},{"duration":0.08571424999999522,"midi":58,"time":46.628552000000006,"velocity":0.23622047244094488},{"duration":0.08571424999999522,"midi":57,"time":46.628552000000006,"velocity":0.23622047244094488},{"duration":0.08571424999999522,"midi":39,"time":46.628552000000006,"velocity":0.23622047244094488},{"duration":0.08571424999999522,"midi":70,"time":46.628552000000006,"velocity":0.23622047244094488},{"duration":0.08571425000000232,"midi":41,"time":46.799980500000004,"velocity":0.23622047244094488},{"duration":0.08571425000000232,"midi":65,"time":46.799980500000004,"velocity":0.23622047244094488},{"duration":0.08571425000000232,"midi":62,"time":46.799980500000004,"velocity":0.23622047244094488},{"duration":0.08571425000000232,"midi":77,"time":46.799980500000004,"velocity":0.23622047244094488},{"duration":0.08571425000000232,"midi":76,"time":46.971409,"velocity":0.23622047244094488},{"duration":0.08571425000000232,"midi":44,"time":46.971409,"velocity":0.23622047244094488},{"duration":0.08571425000000232,"midi":77,"time":47.057123250000004,"velocity":0.23622047244094488},{"duration":0.08571424999999522,"midi":39,"time":47.142837500000006,"velocity":0.23622047244094488},{"duration":0.08571424999999522,"midi":62,"time":47.142837500000006,"velocity":0.23622047244094488},{"duration":0.08571424999999522,"midi":76,"time":47.142837500000006,"velocity":0.23622047244094488},{"duration":0.08571424999999522,"midi":65,"time":47.142837500000006,"velocity":0.23622047244094488},{"duration":0.08571425000000232,"midi":79,"time":47.314266,"velocity":0.23622047244094488},{"duration":0.08571425000000232,"midi":60,"time":47.314266,"velocity":0.23622047244094488},{"duration":0.08571425000000232,"midi":64,"time":47.4856945,"velocity":0.23622047244094488},{"duration":0.08571425000000232,"midi":77,"time":47.4856945,"velocity":0.23622047244094488},{"duration":0.08571425000000232,"midi":67,"time":47.4856945,"velocity":0.23622047244094488},{"duration":0.08571425000000232,"midi":39,"time":47.4856945,"velocity":0.23622047244094488},{"duration":0.08571424999999522,"midi":44,"time":47.657123000000006,"velocity":0.23622047244094488},{"duration":0.08571424999999522,"midi":76,"time":47.657123000000006,"velocity":0.23622047244094488},{"duration":0.08571425000000232,"midi":77,"time":47.74283725,"velocity":0.23622047244094488},{"duration":0.08571425000000232,"midi":76,"time":47.8285515,"velocity":0.23622047244094488},{"duration":0.08571425000000232,"midi":64,"time":47.8285515,"velocity":0.23622047244094488},{"duration":0.08571425000000232,"midi":67,"time":47.8285515,"velocity":0.23622047244094488},{"duration":0.08571425000000232,"midi":41,"time":47.8285515,"velocity":0.23622047244094488},{"duration":0.08571424999999522,"midi":72,"time":47.914265750000006,"velocity":0.23622047244094488},{"duration":0.08571425000000232,"midi":62,"time":47.99998,"velocity":0.23622047244094488},{"duration":0.08571425000000232,"midi":57,"time":47.99998,"velocity":0.23622047244094488},{"duration":0.08571425000000232,"midi":74,"time":47.99998,"velocity":0.23622047244094488},{"duration":0.08571425000000232,"midi":39,"time":47.99998,"velocity":0.23622047244094488},{"duration":0.08571424999999522,"midi":69,"time":48.171408500000005,"velocity":0.23622047244094488},{"duration":0.08571424999999522,"midi":81,"time":48.171408500000005,"velocity":0.23622047244094488},{"duration":0.08571424999999522,"midi":65,"time":48.171408500000005,"velocity":0.23622047244094488},{"duration":0.08571424999999522,"midi":41,"time":48.171408500000005,"velocity":0.23622047244094488},{"duration":0.08571425000000232,"midi":44,"time":48.342837,"velocity":0.23622047244094488},{"duration":0.08571425000000232,"midi":79,"time":48.342837,"velocity":0.23622047244094488},{"duration":0.08571425000000232,"midi":64,"time":48.342837,"velocity":0.23622047244094488},{"duration":0.08571424999999522,"midi":81,"time":48.428551250000005,"velocity":0.23622047244094488},{"duration":0.08571425000000232,"midi":39,"time":48.5142655,"velocity":0.23622047244094488},{"duration":0.08571425000000232,"midi":79,"time":48.5142655,"velocity":0.23622047244094488},{"duration":0.08571425000000232,"midi":67,"time":48.5142655,"velocity":0.23622047244094488},{"duration":0.08571425000000232,"midi":72,"time":48.5142655,"velocity":0.23622047244094488},{"duration":0.08571425000000232,"midi":81,"time":48.59997975,"velocity":0.23622047244094488},{"duration":0.08571424999999522,"midi":85,"time":48.685694000000005,"velocity":0.23622047244094488},{"duration":0.08571424999999522,"midi":65,"time":48.685694000000005,"velocity":0.23622047244094488},{"duration":0.08571424999999522,"midi":57,"time":48.685694000000005,"velocity":0.23622047244094488},{"duration":0.08571424999999522,"midi":44,"time":48.685694000000005,"velocity":0.23622047244094488},{"duration":0.08571425000000232,"midi":81,"time":48.8571225,"velocity":0.23622047244094488},{"duration":0.08571425000000232,"midi":74,"time":48.8571225,"velocity":0.23622047244094488},{"duration":0.08571425000000232,"midi":69,"time":48.8571225,"velocity":0.23622047244094488},{"duration":0.08571425000000232,"midi":39,"time":48.8571225,"velocity":0.23622047244094488},{"duration":0.08571425000000232,"midi":79,"time":49.028551,"velocity":0.23622047244094488},{"duration":0.08571425000000232,"midi":62,"time":49.028551,"velocity":0.23622047244094488},{"duration":0.08571425000000232,"midi":44,"time":49.028551,"velocity":0.23622047244094488},{"duration":0.08571424999999522,"midi":41,"time":49.199979500000005,"velocity":0.23622047244094488},{"duration":0.08571424999999522,"midi":69,"time":49.199979500000005,"velocity":0.23622047244094488},{"duration":0.08571424999999522,"midi":64,"time":49.199979500000005,"velocity":0.23622047244094488},{"duration":0.08571424999999522,"midi":76,"time":49.199979500000005,"velocity":0.23622047244094488},{"duration":0.08571425000000232,"midi":39,"time":49.371408,"velocity":0.23622047244094488},{"duration":0.08571425000000232,"midi":77,"time":49.371408,"velocity":0.23622047244094488},{"duration":0.08571425000000232,"midi":57,"time":49.371408,"velocity":0.23622047244094488},{"duration":0.08571425000000232,"midi":57,"time":49.371408,"velocity":0.23622047244094488},{"duration":0.08571425000000232,"midi":64,"time":49.5428365,"velocity":0.23622047244094488},{"duration":0.08571425000000232,"midi":67,"time":49.5428365,"velocity":0.23622047244094488},{"duration":0.08571425000000232,"midi":41,"time":49.5428365,"velocity":0.23622047244094488},{"duration":0.08571425000000232,"midi":76,"time":49.5428365,"velocity":0.23622047244094488},{"duration":0.08571425000000232,"midi":77,"time":49.62855075,"velocity":0.23622047244094488},{"duration":0.08571424999999522,"midi":44,"time":49.714265000000005,"velocity":0.23622047244094488},{"duration":0.08571424999999522,"midi":76,"time":49.714265000000005,"velocity":0.23622047244094488},{"duration":0.08571425000000232,"midi":72,"time":49.8856935,"velocity":0.23622047244094488},{"duration":0.08571425000000232,"midi":67,"time":49.8856935,"velocity":0.23622047244094488},{"duration":0.08571425000000232,"midi":64,"time":49.8856935,"velocity":0.23622047244094488},{"duration":0.08571425000000232,"midi":39,"time":49.8856935,"velocity":0.23622047244094488},{"duration":0.08571424999999522,"midi":55,"time":50.05712200000001,"velocity":0.23622047244094488},{"duration":0.08571424999999522,"midi":74,"time":50.05712200000001,"velocity":0.23622047244094488},{"duration":0.08571425000000232,"midi":72,"time":50.228550500000004,"velocity":0.23622047244094488},{"duration":0.08571425000000232,"midi":64,"time":50.228550500000004,"velocity":0.23622047244094488},{"duration":0.08571425000000232,"midi":60,"time":50.228550500000004,"velocity":0.23622047244094488},{"duration":0.08571425000000232,"midi":39,"time":50.228550500000004,"velocity":0.23622047244094488},{"duration":0.08571425000000232,"midi":44,"time":50.399979,"velocity":0.23622047244094488},{"duration":0.08571425000000232,"midi":67,"time":50.399979,"velocity":0.23622047244094488},{"duration":0.08571424999999522,"midi":41,"time":50.57140750000001,"velocity":0.23622047244094488},{"duration":0.08571424999999522,"midi":60,"time":50.57140750000001,"velocity":0.23622047244094488},{"duration":0.08571424999999522,"midi":64,"time":50.57140750000001,"velocity":0.23622047244094488},{"duration":0.08571424999999522,"midi":64,"time":50.57140750000001,"velocity":0.23622047244094488},{"duration":0.08571425000000232,"midi":53,"time":50.742836000000004,"velocity":0.23622047244094488},{"duration":0.08571425000000232,"midi":62,"time":50.742836000000004,"velocity":0.23622047244094488},{"duration":0.08571425000000232,"midi":39,"time":50.742836000000004,"velocity":0.23622047244094488},{"duration":0.08571425000000232,"midi":64,"time":50.9142645,"velocity":0.23622047244094488},{"duration":0.08571425000000232,"midi":62,"time":50.9142645,"velocity":0.23622047244094488},{"duration":0.08571425000000232,"midi":58,"time":50.9142645,"velocity":0.23622047244094488},{"duration":0.08571425000000232,"midi":41,"time":50.9142645,"velocity":0.23622047244094488},{"duration":0.08571424999999522,"midi":65,"time":51.085693000000006,"velocity":0.23622047244094488},{"duration":0.08571424999999522,"midi":44,"time":51.085693000000006,"velocity":0.23622047244094488},{"duration":0.08571425000000232,"midi":39,"time":51.257121500000004,"velocity":0.23622047244094488},{"duration":0.08571425000000232,"midi":67,"time":51.257121500000004,"velocity":0.23622047244094488},{"duration":0.08571425000000232,"midi":58,"time":51.257121500000004,"velocity":0.23622047244094488},{"duration":0.08571425000000232,"midi":62,"time":51.257121500000004,"velocity":0.23622047244094488},{"duration":0.08571425000000232,"midi":69,"time":51.42855,"velocity":0.23622047244094488},{"duration":0.08571425000000232,"midi":58,"time":51.42855,"velocity":0.23622047244094488},{"duration":0.08571424999999522,"midi":67,"time":51.599978500000006,"velocity":0.23622047244094488},{"duration":0.08571424999999522,"midi":64,"time":51.599978500000006,"velocity":0.23622047244094488},{"duration":0.08571424999999522,"midi":39,"time":51.599978500000006,"velocity":0.23622047244094488},{"duration":0.08571424999999522,"midi":73,"time":51.599978500000006,"velocity":0.23622047244094488},{"duration":0.08571425000000232,"midi":74,"time":51.771407,"velocity":0.23622047244094488},{"duration":0.08571425000000232,"midi":44,"time":51.771407,"velocity":0.23622047244094488},{"duration":0.08571425000000232,"midi":76,"time":51.9428355,"velocity":0.23622047244094488},{"duration":0.08571425000000232,"midi":41,"time":51.9428355,"velocity":0.23622047244094488},{"duration":0.08571425000000232,"midi":64,"time":51.9428355,"velocity":0.23622047244094488},{"duration":0.08571425000000232,"midi":67,"time":51.9428355,"velocity":0.23622047244094488},{"duration":0.08571424999999522,"midi":57,"time":52.114264000000006,"velocity":0.23622047244094488},{"duration":0.08571424999999522,"midi":39,"time":52.114264000000006,"velocity":0.23622047244094488},{"duration":0.08571424999999522,"midi":61,"time":52.114264000000006,"velocity":0.23622047244094488},{"duration":0.08571424999999522,"midi":73,"time":52.114264000000006,"velocity":0.23622047244094488},{"duration":0.08571425000000232,"midi":65,"time":52.2856925,"velocity":0.23622047244094488},{"duration":0.08571425000000232,"midi":69,"time":52.2856925,"velocity":0.23622047244094488},{"duration":0.08571425000000232,"midi":81,"time":52.2856925,"velocity":0.23622047244094488},{"duration":0.08571425000000232,"midi":41,"time":52.2856925,"velocity":0.23622047244094488},{"duration":0.08571425000000232,"midi":44,"time":52.457121,"velocity":0.23622047244094488},{"duration":0.08571425000000232,"midi":79,"time":52.457121,"velocity":0.23622047244094488},{"duration":0.08571425000000232,"midi":81,"time":52.54283525,"velocity":0.23622047244094488},{"duration":0.08571424999999522,"midi":69,"time":52.628549500000005,"velocity":0.23622047244094488},{"duration":0.08571424999999522,"midi":79,"time":52.628549500000005,"velocity":0.23622047244094488},{"duration":0.08571424999999522,"midi":39,"time":52.628549500000005,"velocity":0.23622047244094488},{"duration":0.08571424999999522,"midi":65,"time":52.628549500000005,"velocity":0.23622047244094488},{"duration":0.08571425000000232,"midi":81,"time":52.71426375,"velocity":0.23622047244094488},{"duration":0.08571425000000232,"midi":57,"time":52.799978,"velocity":0.23622047244094488},{"duration":0.08571425000000232,"midi":61,"time":52.799978,"velocity":0.23622047244094488},{"duration":0.08571425000000232,"midi":85,"time":52.799978,"velocity":0.23622047244094488},{"duration":0.08571425000000232,"midi":81,"time":52.9714065,"velocity":0.23622047244094488},{"duration":0.08571425000000232,"midi":73,"time":52.9714065,"velocity":0.23622047244094488},{"duration":0.08571425000000232,"midi":69,"time":52.9714065,"velocity":0.23622047244094488},{"duration":0.08571425000000232,"midi":39,"time":52.9714065,"velocity":0.23622047244094488},{"duration":0.08571424999999522,"midi":79,"time":53.142835000000005,"velocity":0.23622047244094488},{"duration":0.08571424999999522,"midi":44,"time":53.142835000000005,"velocity":0.23622047244094488},{"duration":0.08571425000000232,"midi":81,"time":53.22854925,"velocity":0.23622047244094488},{"duration":0.08571425000000232,"midi":69,"time":53.3142635,"velocity":0.23622047244094488},{"duration":0.08571425000000232,"midi":73,"time":53.3142635,"velocity":0.23622047244094488},{"duration":0.08571425000000232,"midi":79,"time":53.3142635,"velocity":0.23622047244094488},{"duration":0.08571425000000232,"midi":41,"time":53.3142635,"velocity":0.23622047244094488},{"duration":0.08571424999999522,"midi":81,"time":53.399977750000005,"velocity":0.23622047244094488},{"duration":0.08571425000000232,"midi":39,"time":53.485692,"velocity":0.23622047244094488},{"duration":0.08571425000000232,"midi":73,"time":53.485692,"velocity":0.23622047244094488},{"duration":0.08571425000000232,"midi":61,"time":53.485692,"velocity":0.23622047244094488},{"duration":0.08571425000000232,"midi":57,"time":53.485692,"velocity":0.23622047244094488},{"duration":0.08571424999999522,"midi":41,"time":53.657120500000005,"velocity":0.23622047244094488},{"duration":0.08571424999999522,"midi":81,"time":53.657120500000005,"velocity":0.23622047244094488},{"duration":0.08571424999999522,"midi":69,"time":53.657120500000005,"velocity":0.23622047244094488},{"duration":0.08571424999999522,"midi":65,"time":53.657120500000005,"velocity":0.23622047244094488},{"duration":0.08571425000000232,"midi":79,"time":53.828549,"velocity":0.23622047244094488},{"duration":0.08571425000000232,"midi":57,"time":53.828549,"velocity":0.23622047244094488},{"duration":0.08571425000000232,"midi":44,"time":53.828549,"velocity":0.23622047244094488},{"duration":0.08571425000000232,"midi":61,"time":53.828549,"velocity":0.23622047244094488},{"duration":0.08571425000000232,"midi":81,"time":53.914263250000005,"velocity":0.23622047244094488},{"duration":0.08571424999999522,"midi":73,"time":53.99997750000001,"velocity":0.23622047244094488},{"duration":0.08571424999999522,"midi":39,"time":53.99997750000001,"velocity":0.23622047244094488},{"duration":0.08571424999999522,"midi":79,"time":53.99997750000001,"velocity":0.23622047244094488},{"duration":0.08571424999999522,"midi":69,"time":53.99997750000001,"velocity":0.23622047244094488},{"duration":0.08571425000000232,"midi":81,"time":54.08569175,"velocity":0.23622047244094488},{"duration":0.08571425000000232,"midi":61,"time":54.171406000000005,"velocity":0.23622047244094488},{"duration":0.08571425000000232,"midi":85,"time":54.171406000000005,"velocity":0.23622047244094488},{"duration":0.08571425000000232,"midi":44,"time":54.171406000000005,"velocity":0.23622047244094488},{"duration":0.08571425000000232,"midi":57,"time":54.171406000000005,"velocity":0.23622047244094488},{"duration":0.08571425000000232,"midi":88,"time":54.3428345,"velocity":0.23622047244094488},{"duration":0.08571425000000232,"midi":69,"time":54.3428345,"velocity":0.23622047244094488},{"duration":0.08571425000000232,"midi":76,"time":54.3428345,"velocity":0.23622047244094488},{"duration":0.08571425000000232,"midi":39,"time":54.3428345,"velocity":0.23622047244094488},{"duration":0.08571424999999522,"midi":57,"time":54.51426300000001,"velocity":0.23622047244094488},{"duration":0.08571424999999522,"midi":85,"time":54.51426300000001,"velocity":0.23622047244094488},{"duration":0.08571424999999522,"midi":44,"time":54.51426300000001,"velocity":0.23622047244094488},{"duration":0.08571425000000232,"midi":81,"time":54.685691500000004,"velocity":0.23622047244094488},{"duration":0.08571425000000232,"midi":76,"time":54.685691500000004,"velocity":0.23622047244094488},{"duration":0.08571425000000232,"midi":81,"time":54.685691500000004,"velocity":0.23622047244094488},{"duration":0.08571425000000232,"midi":41,"time":54.685691500000004,"velocity":0.23622047244094488},{"duration":0.08571425000000232,"midi":39,"time":54.85712,"velocity":0.23622047244094488},{"duration":0.08571425000000232,"midi":57,"time":54.85712,"velocity":0.23622047244094488},{"duration":0.08571425000000232,"midi":69,"time":54.85712,"velocity":0.23622047244094488},{"duration":0.08571425000000232,"midi":57,"time":54.85712,"velocity":0.23622047244094488},{"duration":0.08571424999999522,"midi":41,"time":55.02854850000001,"velocity":0.23622047244094488},{"duration":0.08571424999999522,"midi":65,"time":55.02854850000001,"velocity":0.23622047244094488},{"duration":0.08571424999999522,"midi":62,"time":55.02854850000001,"velocity":0.23622047244094488},{"duration":0.08571424999999522,"midi":77,"time":55.02854850000001,"velocity":0.23622047244094488},{"duration":0.08571425000000232,"midi":44,"time":55.199977000000004,"velocity":0.23622047244094488},{"duration":0.08571425000000232,"midi":76,"time":55.199977000000004,"velocity":0.23622047244094488},{"duration":0.08571424999999522,"midi":77,"time":55.285691250000006,"velocity":0.23622047244094488},{"duration":0.08571425000000232,"midi":62,"time":55.3714055,"velocity":0.23622047244094488},{"duration":0.08571425000000232,"midi":65,"time":55.3714055,"velocity":0.23622047244094488},{"duration":0.08571425000000232,"midi":39,"time":55.3714055,"velocity":0.23622047244094488},{"duration":0.08571425000000232,"midi":76,"time":55.3714055,"velocity":0.23622047244094488},{"duration":0.08571424999999522,"midi":60,"time":55.542834000000006,"velocity":0.23622047244094488},{"duration":0.08571424999999522,"midi":79,"time":55.542834000000006,"velocity":0.23622047244094488},{"duration":0.08571425000000232,"midi":67,"time":55.714262500000004,"velocity":0.23622047244094488},{"duration":0.08571425000000232,"midi":64,"time":55.714262500000004,"velocity":0.23622047244094488},{"duration":0.08571425000000232,"midi":39,"time":55.714262500000004,"velocity":0.23622047244094488},{"duration":0.08571425000000232,"midi":77,"time":55.714262500000004,"velocity":0.23622047244094488},{"duration":0.08571425000000232,"midi":76,"time":55.885691,"velocity":0.23622047244094488},{"duration":0.08571425000000232,"midi":44,"time":55.885691,"velocity":0.23622047244094488},{"duration":0.08571425000000232,"midi":77,"time":55.971405250000004,"velocity":0.23622047244094488},{"duration":0.08571424999999522,"midi":67,"time":56.057119500000006,"velocity":0.23622047244094488},{"duration":0.08571424999999522,"midi":41,"time":56.057119500000006,"velocity":0.23622047244094488},{"duration":0.08571424999999522,"midi":76,"time":56.057119500000006,"velocity":0.23622047244094488},{"duration":0.08571424999999522,"midi":64,"time":56.057119500000006,"velocity":0.23622047244094488},{"duration":0.08571425000000232,"midi":72,"time":56.14283375,"velocity":0.23622047244094488},{"duration":0.08571425000000232,"midi":39,"time":56.228548,"velocity":0.23622047244094488},{"duration":0.08571425000000232,"midi":74,"time":56.228548,"velocity":0.23622047244094488},{"duration":0.08571425000000232,"midi":62,"time":56.228548,"velocity":0.23622047244094488},{"duration":0.08571425000000232,"midi":69,"time":56.3999765,"velocity":0.23622047244094488},{"duration":0.08571425000000232,"midi":41,"time":56.3999765,"velocity":0.23622047244094488},{"duration":0.08571425000000232,"midi":65,"time":56.3999765,"velocity":0.23622047244094488},{"duration":0.08571425000000232,"midi":81,"time":56.3999765,"velocity":0.23622047244094488},{"duration":0.08571424999999522,"midi":44,"time":56.571405000000006,"velocity":0.23622047244094488},{"duration":0.08571424999999522,"midi":79,"time":56.571405000000006,"velocity":0.23622047244094488},{"duration":0.08571425000000232,"midi":81,"time":56.65711925,"velocity":0.23622047244094488},{"duration":0.08571425000000232,"midi":79,"time":56.7428335,"velocity":0.23622047244094488},{"duration":0.08571425000000232,"midi":39,"time":56.7428335,"velocity":0.23622047244094488},{"duration":0.08571425000000232,"midi":69,"time":56.7428335,"velocity":0.23622047244094488},{"duration":0.08571425000000232,"midi":65,"time":56.7428335,"velocity":0.23622047244094488},{"duration":0.08571424999999522,"midi":81,"time":56.828547750000006,"velocity":0.23622047244094488},{"duration":0.08571425000000232,"midi":62,"time":56.914262,"velocity":0.23622047244094488},{"duration":0.08571425000000232,"midi":84,"time":56.914262,"velocity":0.23622047244094488},{"duration":0.08571424999999522,"midi":81,"time":57.085690500000005,"velocity":0.23622047244094488},{"duration":0.08571424999999522,"midi":39,"time":57.085690500000005,"velocity":0.23622047244094488},{"duration":0.08571424999999522,"midi":65,"time":57.085690500000005,"velocity":0.23622047244094488},{"duration":0.08571424999999522,"midi":69,"time":57.085690500000005,"velocity":0.23622047244094488},{"duration":0.08571425000000232,"midi":44,"time":57.257119,"velocity":0.23622047244094488},{"duration":0.08571425000000232,"midi":79,"time":57.257119,"velocity":0.23622047244094488},{"duration":0.08571425000000232,"midi":69,"time":57.4285475,"velocity":0.23622047244094488},{"duration":0.08571425000000232,"midi":65,"time":57.4285475,"velocity":0.23622047244094488},{"duration":0.08571425000000232,"midi":81,"time":57.4285475,"velocity":0.23622047244094488},{"duration":0.08571425000000232,"midi":41,"time":57.4285475,"velocity":0.23622047244094488},{"duration":0.08571424999999522,"midi":58,"time":57.599976000000005,"velocity":0.23622047244094488},{"duration":0.08571424999999522,"midi":57,"time":57.599976000000005,"velocity":0.23622047244094488},{"duration":0.08571424999999522,"midi":39,"time":57.599976000000005,"velocity":0.23622047244094488},{"duration":0.08571424999999522,"midi":70,"time":57.599976000000005,"velocity":0.23622047244094488},{"duration":0.08571425000000232,"midi":41,"time":57.7714045,"velocity":0.23622047244094488},{"duration":0.08571425000000232,"midi":62,"time":57.7714045,"velocity":0.23622047244094488},{"duration":0.08571425000000232,"midi":65,"time":57.7714045,"velocity":0.23622047244094488},{"duration":0.08571425000000232,"midi":77,"time":57.7714045,"velocity":0.23622047244094488},{"duration":0.08571424999999522,"midi":76,"time":57.94283300000001,"velocity":0.23622047244094488},{"duration":0.08571424999999522,"midi":44,"time":57.94283300000001,"velocity":0.23622047244094488},{"duration":0.08571425000000232,"midi":77,"time":58.02854725,"velocity":0.23622047244094488},{"duration":0.08571425000000232,"midi":65,"time":58.114261500000005,"velocity":0.23622047244094488},{"duration":0.08571425000000232,"midi":39,"time":58.114261500000005,"velocity":0.23622047244094488},{"duration":0.08571425000000232,"midi":76,"time":58.114261500000005,"velocity":0.23622047244094488},{"duration":0.08571425000000232,"midi":62,"time":58.114261500000005,"velocity":0.23622047244094488},{"duration":0.08571425000000232,"midi":79,"time":58.28569,"velocity":0.23622047244094488},{"duration":0.08571425000000232,"midi":60,"time":58.28569,"velocity":0.23622047244094488},{"duration":0.08571424999999522,"midi":39,"time":58.45711850000001,"velocity":0.23622047244094488},{"duration":0.08571424999999522,"midi":67,"time":58.45711850000001,"velocity":0.23622047244094488},{"duration":0.08571424999999522,"midi":64,"time":58.45711850000001,"velocity":0.23622047244094488},{"duration":0.08571424999999522,"midi":77,"time":58.45711850000001,"velocity":0.23622047244094488},{"duration":0.08571425000000232,"midi":76,"time":58.628547000000005,"velocity":0.23622047244094488},{"duration":0.08571425000000232,"midi":44,"time":58.628547000000005,"velocity":0.23622047244094488},{"duration":0.08571424999999522,"midi":77,"time":58.71426125000001,"velocity":0.23622047244094488},{"duration":0.08571425000000232,"midi":76,"time":58.7999755,"velocity":0.23622047244094488},{"duration":0.08571425000000232,"midi":67,"time":58.7999755,"velocity":0.23622047244094488},{"duration":0.08571425000000232,"midi":64,"time":58.7999755,"velocity":0.23622047244094488},{"duration":0.08571425000000232,"midi":41,"time":58.7999755,"velocity":0.23622047244094488},{"duration":0.08571425000000232,"midi":72,"time":58.885689750000004,"velocity":0.23622047244094488},{"duration":0.08571424999999522,"midi":39,"time":58.97140400000001,"velocity":0.23622047244094488},{"duration":0.08571424999999522,"midi":57,"time":58.97140400000001,"velocity":0.23622047244094488},{"duration":0.08571424999999522,"midi":74,"time":58.97140400000001,"velocity":0.23622047244094488},{"duration":0.08571424999999522,"midi":62,"time":58.97140400000001,"velocity":0.23622047244094488},{"duration":0.08571425000000232,"midi":69,"time":59.142832500000004,"velocity":0.23622047244094488},{"duration":0.08571425000000232,"midi":65,"time":59.142832500000004,"velocity":0.23622047244094488},{"duration":0.08571425000000232,"midi":41,"time":59.142832500000004,"velocity":0.23622047244094488},{"duration":0.08571425000000232,"midi":81,"time":59.142832500000004,"velocity":0.23622047244094488},{"duration":0.08571425000000232,"midi":79,"time":59.314261,"velocity":0.23622047244094488},{"duration":0.08571425000000232,"midi":44,"time":59.314261,"velocity":0.23622047244094488},{"duration":0.08571425000000232,"midi":64,"time":59.314261,"velocity":0.23622047244094488},{"duration":0.08571425000000232,"midi":81,"time":59.399975250000004,"velocity":0.23622047244094488},{"duration":0.08571424999999522,"midi":39,"time":59.48568950000001,"velocity":0.23622047244094488},{"duration":0.08571424999999522,"midi":79,"time":59.48568950000001,"velocity":0.23622047244094488},{"duration":0.08571424999999522,"midi":67,"time":59.48568950000001,"velocity":0.23622047244094488},{"duration":0.08571424999999522,"midi":72,"time":59.48568950000001,"velocity":0.23622047244094488},{"duration":0.08571425000000232,"midi":81,"time":59.57140375,"velocity":0.23622047244094488},{"duration":0.08571425000000232,"midi":85,"time":59.657118000000004,"velocity":0.23622047244094488},{"duration":0.08571425000000232,"midi":44,"time":59.657118000000004,"velocity":0.23622047244094488},{"duration":0.08571425000000232,"midi":57,"time":59.657118000000004,"velocity":0.23622047244094488},{"duration":0.08571425000000232,"midi":65,"time":59.657118000000004,"velocity":0.23622047244094488},{"duration":0.08571425000000232,"midi":69,"time":59.8285465,"velocity":0.23622047244094488},{"duration":0.08571425000000232,"midi":39,"time":59.8285465,"velocity":0.23622047244094488},{"duration":0.08571425000000232,"midi":74,"time":59.8285465,"velocity":0.23622047244094488},{"duration":0.08571425000000232,"midi":81,"time":59.8285465,"velocity":0.23622047244094488},{"duration":0.08571424999999522,"midi":62,"time":59.999975000000006,"velocity":0.23622047244094488},{"duration":0.08571424999999522,"midi":44,"time":59.999975000000006,"velocity":0.23622047244094488},{"duration":0.08571424999999522,"midi":79,"time":59.999975000000006,"velocity":0.23622047244094488},{"duration":0.08571425000000232,"midi":64,"time":60.171403500000004,"velocity":0.23622047244094488},{"duration":0.08571425000000232,"midi":69,"time":60.171403500000004,"velocity":0.23622047244094488},{"duration":0.08571425000000232,"midi":41,"time":60.171403500000004,"velocity":0.23622047244094488},{"duration":0.08571425000000232,"midi":76,"time":60.171403500000004,"velocity":0.23622047244094488},{"duration":0.08571425000000232,"midi":77,"time":60.342832,"velocity":0.23622047244094488},{"duration":0.08571425000000232,"midi":39,"time":60.342832,"velocity":0.23622047244094488},{"duration":0.08571425000000232,"midi":57,"time":60.342832,"velocity":0.23622047244094488},{"duration":0.08571425000000232,"midi":57,"time":60.342832,"velocity":0.23622047244094488},{"duration":0.08571424999999522,"midi":76,"time":60.514260500000006,"velocity":0.23622047244094488},{"duration":0.08571424999999522,"midi":64,"time":60.514260500000006,"velocity":0.23622047244094488},{"duration":0.08571424999999522,"midi":41,"time":60.514260500000006,"velocity":0.23622047244094488},{"duration":0.08571424999999522,"midi":67,"time":60.514260500000006,"velocity":0.23622047244094488},{"duration":0.08571425000000232,"midi":77,"time":60.59997475,"velocity":0.23622047244094488},{"duration":0.08571425000000232,"midi":44,"time":60.685689,"velocity":0.23622047244094488},{"duration":0.08571425000000232,"midi":76,"time":60.685689,"velocity":0.23622047244094488},{"duration":0.08571425000000232,"midi":64,"time":60.8571175,"velocity":0.23622047244094488},{"duration":0.08571425000000232,"midi":67,"time":60.8571175,"velocity":0.23622047244094488},{"duration":0.08571425000000232,"midi":72,"time":60.8571175,"velocity":0.23622047244094488},{"duration":0.08571425000000232,"midi":39,"time":60.8571175,"velocity":0.23622047244094488},{"duration":0.08571424999999522,"midi":55,"time":61.028546000000006,"velocity":0.23622047244094488},{"duration":0.08571424999999522,"midi":74,"time":61.028546000000006,"velocity":0.23622047244094488},{"duration":0.08571425000000232,"midi":64,"time":61.1999745,"velocity":0.23622047244094488},{"duration":0.08571425000000232,"midi":39,"time":61.1999745,"velocity":0.23622047244094488},{"duration":0.08571425000000232,"midi":60,"time":61.1999745,"velocity":0.23622047244094488},{"duration":0.08571425000000232,"midi":72,"time":61.1999745,"velocity":0.23622047244094488},{"duration":0.08571425000000232,"midi":67,"time":61.371403,"velocity":0.23622047244094488},{"duration":0.08571425000000232,"midi":44,"time":61.371403,"velocity":0.23622047244094488},{"duration":0.08571424999999522,"midi":60,"time":61.542831500000005,"velocity":0.23622047244094488},{"duration":0.08571424999999522,"midi":64,"time":61.542831500000005,"velocity":0.23622047244094488},{"duration":0.08571424999999522,"midi":41,"time":61.542831500000005,"velocity":0.23622047244094488},{"duration":0.08571424999999522,"midi":64,"time":61.542831500000005,"velocity":0.23622047244094488},{"duration":0.08571425000000232,"midi":53,"time":61.71426,"velocity":0.23622047244094488},{"duration":0.08571425000000232,"midi":62,"time":61.71426,"velocity":0.23622047244094488},{"duration":0.08571425000000232,"midi":39,"time":61.71426,"velocity":0.23622047244094488},{"duration":0.08571424999999522,"midi":62,"time":61.88568850000001,"velocity":0.23622047244094488},{"duration":0.08571424999999522,"midi":64,"time":61.88568850000001,"velocity":0.23622047244094488},{"duration":0.08571424999999522,"midi":41,"time":61.88568850000001,"velocity":0.23622047244094488},{"duration":0.08571424999999522,"midi":58,"time":61.88568850000001,"velocity":0.23622047244094488},{"duration":0.08571425000000232,"midi":65,"time":62.057117000000005,"velocity":0.23622047244094488},{"duration":0.08571425000000232,"midi":44,"time":62.057117000000005,"velocity":0.23622047244094488},{"duration":0.08571425000000232,"midi":67,"time":62.2285455,"velocity":0.23622047244094488},{"duration":0.08571425000000232,"midi":39,"time":62.2285455,"velocity":0.23622047244094488},{"duration":0.08571425000000232,"midi":62,"time":62.2285455,"velocity":0.23622047244094488},{"duration":0.08571425000000232,"midi":58,"time":62.2285455,"velocity":0.23622047244094488},{"duration":0.08571424999999522,"midi":69,"time":62.39997400000001,"velocity":0.23622047244094488},{"duration":0.08571424999999522,"midi":58,"time":62.39997400000001,"velocity":0.23622047244094488},{"duration":0.08571425000000232,"midi":73,"time":62.571402500000005,"velocity":0.23622047244094488},{"duration":0.08571425000000232,"midi":67,"time":62.571402500000005,"velocity":0.23622047244094488},{"duration":0.08571425000000232,"midi":64,"time":62.571402500000005,"velocity":0.23622047244094488},{"duration":0.08571425000000232,"midi":39,"time":62.571402500000005,"velocity":0.23622047244094488},{"duration":0.08571425000000232,"midi":44,"time":62.742831,"velocity":0.23622047244094488},{"duration":0.08571425000000232,"midi":74,"time":62.742831,"velocity":0.23622047244094488},{"duration":0.08571424999999522,"midi":76,"time":62.91425950000001,"velocity":0.23622047244094488},{"duration":0.08571424999999522,"midi":67,"time":62.91425950000001,"velocity":0.23622047244094488},{"duration":0.08571424999999522,"midi":64,"time":62.91425950000001,"velocity":0.23622047244094488},{"duration":0.08571424999999522,"midi":41,"time":62.91425950000001,"velocity":0.23622047244094488},{"duration":0.08571425000000232,"midi":39,"time":63.085688000000005,"velocity":0.23622047244094488},{"duration":0.08571425000000232,"midi":57,"time":63.085688000000005,"velocity":0.23622047244094488},{"duration":0.08571425000000232,"midi":73,"time":63.085688000000005,"velocity":0.23622047244094488},{"duration":0.08571425000000232,"midi":61,"time":63.085688000000005,"velocity":0.23622047244094488},{"duration":0.08571425000000232,"midi":69,"time":63.2571165,"velocity":0.23622047244094488},{"duration":0.08571425000000232,"midi":65,"time":63.2571165,"velocity":0.23622047244094488},{"duration":0.08571425000000232,"midi":81,"time":63.2571165,"velocity":0.23622047244094488},{"duration":0.08571425000000232,"midi":41,"time":63.2571165,"velocity":0.23622047244094488},{"duration":0.08571424999999522,"midi":44,"time":63.42854500000001,"velocity":0.23622047244094488},{"duration":0.08571424999999522,"midi":79,"time":63.42854500000001,"velocity":0.23622047244094488},{"duration":0.08571425000000232,"midi":81,"time":63.51425925,"velocity":0.23622047244094488},{"duration":0.08571425000000232,"midi":39,"time":63.599973500000004,"velocity":0.23622047244094488},{"duration":0.08571425000000232,"midi":79,"time":63.599973500000004,"velocity":0.23622047244094488},{"duration":0.08571425000000232,"midi":69,"time":63.599973500000004,"velocity":0.23622047244094488},{"duration":0.08571425000000232,"midi":65,"time":63.599973500000004,"velocity":0.23622047244094488},{"duration":0.08571424999999522,"midi":81,"time":63.68568775000001,"velocity":0.23622047244094488},{"duration":0.08571425000000232,"midi":57,"time":63.771402,"velocity":0.23622047244094488},{"duration":0.08571425000000232,"midi":85,"time":63.771402,"velocity":0.23622047244094488},{"duration":0.08571425000000232,"midi":61,"time":63.771402,"velocity":0.23622047244094488},{"duration":0.08571425000000232,"midi":39,"time":63.94283050000001,"velocity":0.23622047244094488},{"duration":0.08571425000000232,"midi":73,"time":63.94283050000001,"velocity":0.23622047244094488},{"duration":0.08571425000000232,"midi":69,"time":63.94283050000001,"velocity":0.23622047244094488},{"duration":0.08571425000000232,"midi":81,"time":63.94283050000001,"velocity":0.23622047244094488},{"duration":0.08571424999999522,"midi":79,"time":64.114259,"velocity":0.23622047244094488},{"duration":0.08571424999999522,"midi":44,"time":64.114259,"velocity":0.23622047244094488},{"duration":0.08571425000000943,"midi":81,"time":64.19997325,"velocity":0.23622047244094488},{"duration":0.08571424999999522,"midi":73,"time":64.28568750000001,"velocity":0.23622047244094488},{"duration":0.08571424999999522,"midi":69,"time":64.28568750000001,"velocity":0.23622047244094488},{"duration":0.08571424999999522,"midi":79,"time":64.28568750000001,"velocity":0.23622047244094488},{"duration":0.08571424999999522,"midi":41,"time":64.28568750000001,"velocity":0.23622047244094488},{"duration":0.08571424999999522,"midi":81,"time":64.37140175,"velocity":0.23622047244094488},{"duration":0.08571425000000943,"midi":39,"time":64.457116,"velocity":0.23622047244094488},{"duration":0.08571425000000943,"midi":61,"time":64.457116,"velocity":0.23622047244094488},{"duration":0.08571425000000943,"midi":73,"time":64.457116,"velocity":0.23622047244094488},{"duration":0.08571425000000943,"midi":57,"time":64.457116,"velocity":0.23622047244094488},{"duration":0.08571424999999522,"midi":41,"time":64.6285445,"velocity":0.23622047244094488},{"duration":0.08571424999999522,"midi":65,"time":64.6285445,"velocity":0.23622047244094488},{"duration":0.08571424999999522,"midi":81,"time":64.6285445,"velocity":0.23622047244094488},{"duration":0.08571424999999522,"midi":69,"time":64.6285445,"velocity":0.23622047244094488},{"duration":0.08571424999999522,"midi":44,"time":64.79997300000001,"velocity":0.23622047244094488},{"duration":0.08571424999999522,"midi":61,"time":64.79997300000001,"velocity":0.23622047244094488},{"duration":0.08571424999999522,"midi":57,"time":64.79997300000001,"velocity":0.23622047244094488},{"duration":0.08571424999999522,"midi":79,"time":64.79997300000001,"velocity":0.23622047244094488},{"duration":0.08571424999999522,"midi":81,"time":64.88568725,"velocity":0.23622047244094488},{"duration":0.08571425000000943,"midi":69,"time":64.9714015,"velocity":0.23622047244094488},{"duration":0.08571425000000943,"midi":79,"time":64.9714015,"velocity":0.23622047244094488},{"duration":0.08571425000000943,"midi":39,"time":64.9714015,"velocity":0.23622047244094488},{"duration":0.08571425000000943,"midi":73,"time":64.9714015,"velocity":0.23622047244094488},{"duration":0.08571424999999522,"midi":81,"time":65.05711575000001,"velocity":0.23622047244094488},{"duration":0.08571424999999522,"midi":85,"time":65.14283,"velocity":0.23622047244094488},{"duration":0.08571424999999522,"midi":44,"time":65.14283,"velocity":0.23622047244094488},{"duration":0.08571424999999522,"midi":57,"time":65.14283,"velocity":0.23622047244094488},{"duration":0.08571424999999522,"midi":61,"time":65.14283,"velocity":0.23622047244094488},{"duration":0.08571424999999522,"midi":39,"time":65.31425850000001,"velocity":0.23622047244094488},{"duration":0.08571424999999522,"midi":76,"time":65.31425850000001,"velocity":0.23622047244094488},{"duration":0.08571424999999522,"midi":69,"time":65.31425850000001,"velocity":0.23622047244094488},{"duration":0.08571424999999522,"midi":88,"time":65.31425850000001,"velocity":0.23622047244094488},{"duration":0.08571425000000943,"midi":93,"time":65.485687,"velocity":0.23622047244094488},{"duration":0.08571425000000943,"midi":44,"time":65.485687,"velocity":0.23622047244094488},{"duration":0.08571425000000943,"midi":57,"time":65.485687,"velocity":0.23622047244094488},{"duration":0.08571424999999522,"midi":81,"time":65.6571155,"velocity":0.23622047244094488},{"duration":0.08571424999999522,"midi":41,"time":65.6571155,"velocity":0.23622047244094488},{"duration":0.08571424999999522,"midi":76,"time":65.6571155,"velocity":0.23622047244094488},{"duration":0.08571424999999522,"midi":81,"time":65.82854400000001,"velocity":0.23622047244094488},{"duration":0.08571424999999522,"midi":70,"time":65.82854400000001,"velocity":0.23622047244094488},{"duration":0.08571424999999522,"midi":57,"time":65.82854400000001,"velocity":0.23622047244094488},{"duration":0.08571424999999522,"midi":39,"time":65.82854400000001,"velocity":0.23622047244094488},{"duration":0.08571425000000943,"midi":74,"time":65.9999725,"velocity":0.23622047244094488},{"duration":0.08571425000000943,"midi":41,"time":65.9999725,"velocity":0.23622047244094488},{"duration":0.08571425000000943,"midi":89,"time":65.9999725,"velocity":0.23622047244094488},{"duration":0.08571425000000943,"midi":77,"time":65.9999725,"velocity":0.23622047244094488},{"duration":0.08571424999999522,"midi":88,"time":66.171401,"velocity":0.23622047244094488},{"duration":0.08571424999999522,"midi":44,"time":66.171401,"velocity":0.23622047244094488},{"duration":0.08571425000000943,"midi":89,"time":66.25711525,"velocity":0.23622047244094488},{"duration":0.08571424999999522,"midi":88,"time":66.34282950000001,"velocity":0.23622047244094488},{"duration":0.08571424999999522,"midi":77,"time":66.34282950000001,"velocity":0.23622047244094488},{"duration":0.08571424999999522,"midi":74,"time":66.34282950000001,"velocity":0.23622047244094488},{"duration":0.08571424999999522,"midi":39,"time":66.34282950000001,"velocity":0.23622047244094488},{"duration":0.08571425000000943,"midi":91,"time":66.514258,"velocity":0.23622047244094488},{"duration":0.08571425000000943,"midi":72,"time":66.514258,"velocity":0.23622047244094488},{"duration":0.08571424999999522,"midi":76,"time":66.6856865,"velocity":0.23622047244094488},{"duration":0.08571424999999522,"midi":79,"time":66.6856865,"velocity":0.23622047244094488},{"duration":0.08571424999999522,"midi":89,"time":66.6856865,"velocity":0.23622047244094488},{"duration":0.08571424999999522,"midi":39,"time":66.6856865,"velocity":0.23622047244094488},{"duration":0.08571424999999522,"midi":88,"time":66.85711500000001,"velocity":0.23622047244094488},{"duration":0.08571424999999522,"midi":44,"time":66.85711500000001,"velocity":0.23622047244094488},{"duration":0.08571424999999522,"midi":89,"time":66.94282925,"velocity":0.23622047244094488},{"duration":0.08571425000000943,"midi":41,"time":67.0285435,"velocity":0.23622047244094488},{"duration":0.08571425000000943,"midi":88,"time":67.0285435,"velocity":0.23622047244094488},{"duration":0.08571425000000943,"midi":76,"time":67.0285435,"velocity":0.23622047244094488},{"duration":0.08571425000000943,"midi":79,"time":67.0285435,"velocity":0.23622047244094488},{"duration":0.08571424999999522,"midi":84,"time":67.11425775000001,"velocity":0.23622047244094488},{"duration":0.08571424999999522,"midi":74,"time":67.199972,"velocity":0.23622047244094488},{"duration":0.08571424999999522,"midi":86,"time":67.199972,"velocity":0.23622047244094488},{"duration":0.08571424999999522,"midi":39,"time":67.199972,"velocity":0.23622047244094488},{"duration":0.08571424999999522,"midi":81,"time":67.37140050000001,"velocity":0.23622047244094488},{"duration":0.08571424999999522,"midi":77,"time":67.37140050000001,"velocity":0.23622047244094488},{"duration":0.08571424999999522,"midi":41,"time":67.37140050000001,"velocity":0.23622047244094488},{"duration":0.08571424999999522,"midi":93,"time":67.37140050000001,"velocity":0.23622047244094488},{"duration":0.08571425000000943,"midi":91,"time":67.542829,"velocity":0.23622047244094488},{"duration":0.08571425000000943,"midi":44,"time":67.542829,"velocity":0.23622047244094488},{"duration":0.08571424999999522,"midi":93,"time":67.62854325,"velocity":0.23622047244094488},{"duration":0.08571424999999522,"midi":81,"time":67.7142575,"velocity":0.23622047244094488},{"duration":0.08571424999999522,"midi":39,"time":67.7142575,"velocity":0.23622047244094488},{"duration":0.08571424999999522,"midi":77,"time":67.7142575,"velocity":0.23622047244094488},{"duration":0.08571424999999522,"midi":91,"time":67.7142575,"velocity":0.23622047244094488},{"duration":0.08571425000000943,"midi":93,"time":67.79997175,"velocity":0.23622047244094488},{"duration":0.08571424999999522,"midi":74,"time":67.885686,"velocity":0.23622047244094488},{"duration":0.08571424999999522,"midi":84,"time":67.885686,"velocity":0.23622047244094488},{"duration":0.08571424999999522,"midi":81,"time":68.05711450000001,"velocity":0.23622047244094488},{"duration":0.08571424999999522,"midi":93,"time":68.05711450000001,"velocity":0.23622047244094488},{"duration":0.08571424999999522,"midi":39,"time":68.05711450000001,"velocity":0.23622047244094488},{"duration":0.08571424999999522,"midi":77,"time":68.05711450000001,"velocity":0.23622047244094488},{"duration":0.08571425000000943,"midi":44,"time":68.228543,"velocity":0.23622047244094488},{"duration":0.08571425000000943,"midi":91,"time":68.228543,"velocity":0.23622047244094488},{"duration":0.08571424999999522,"midi":77,"time":68.3999715,"velocity":0.23622047244094488},{"duration":0.08571424999999522,"midi":93,"time":68.3999715,"velocity":0.23622047244094488},{"duration":0.08571424999999522,"midi":81,"time":68.3999715,"velocity":0.23622047244094488},{"duration":0.08571424999999522,"midi":41,"time":68.3999715,"velocity":0.23622047244094488},{"duration":0.08571424999999522,"midi":39,"time":68.57140000000001,"velocity":0.23622047244094488},{"duration":0.08571424999999522,"midi":57,"time":68.57140000000001,"velocity":0.23622047244094488},{"duration":0.08571424999999522,"midi":82,"time":68.57140000000001,"velocity":0.23622047244094488},{"duration":0.08571424999999522,"midi":70,"time":68.57140000000001,"velocity":0.23622047244094488},{"duration":0.08571425000000943,"midi":74,"time":68.7428285,"velocity":0.23622047244094488},{"duration":0.08571425000000943,"midi":77,"time":68.7428285,"velocity":0.23622047244094488},{"duration":0.08571425000000943,"midi":89,"time":68.7428285,"velocity":0.23622047244094488},{"duration":0.08571425000000943,"midi":41,"time":68.7428285,"velocity":0.23622047244094488},{"duration":0.08571424999999522,"midi":44,"time":68.914257,"velocity":0.23622047244094488},{"duration":0.08571424999999522,"midi":88,"time":68.914257,"velocity":0.23622047244094488},{"duration":0.08571425000000943,"midi":89,"time":68.99997125,"velocity":0.23622047244094488},{"duration":0.08571424999999522,"midi":74,"time":69.08568550000001,"velocity":0.23622047244094488},{"duration":0.08571424999999522,"midi":39,"time":69.08568550000001,"velocity":0.23622047244094488},{"duration":0.08571424999999522,"midi":88,"time":69.08568550000001,"velocity":0.23622047244094488},{"duration":0.08571424999999522,"midi":77,"time":69.08568550000001,"velocity":0.23622047244094488},{"duration":0.08571425000000943,"midi":91,"time":69.257114,"velocity":0.23622047244094488},{"duration":0.08571425000000943,"midi":72,"time":69.257114,"velocity":0.23622047244094488},{"duration":0.08571424999999522,"midi":89,"time":69.4285425,"velocity":0.23622047244094488},{"duration":0.08571424999999522,"midi":79,"time":69.4285425,"velocity":0.23622047244094488},{"duration":0.08571424999999522,"midi":76,"time":69.4285425,"velocity":0.23622047244094488},{"duration":0.08571424999999522,"midi":39,"time":69.4285425,"velocity":0.23622047244094488},{"duration":0.08571424999999522,"midi":44,"time":69.59997100000001,"velocity":0.23622047244094488},{"duration":0.08571424999999522,"midi":88,"time":69.59997100000001,"velocity":0.23622047244094488},{"duration":0.08571424999999522,"midi":89,"time":69.68568525,"velocity":0.23622047244094488},{"duration":0.08571425000000943,"midi":41,"time":69.7713995,"velocity":0.23622047244094488},{"duration":0.08571425000000943,"midi":88,"time":69.7713995,"velocity":0.23622047244094488},{"duration":0.08571425000000943,"midi":76,"time":69.7713995,"velocity":0.23622047244094488},{"duration":0.08571425000000943,"midi":79,"time":69.7713995,"velocity":0.23622047244094488},{"duration":0.08571424999999522,"midi":84,"time":69.85711375000001,"velocity":0.23622047244094488},{"duration":0.08571424999999522,"midi":57,"time":69.942828,"velocity":0.23622047244094488},{"duration":0.08571424999999522,"midi":39,"time":69.942828,"velocity":0.23622047244094488},{"duration":0.08571424999999522,"midi":74,"time":69.942828,"velocity":0.23622047244094488},{"duration":0.08571424999999522,"midi":86,"time":69.942828,"velocity":0.23622047244094488},{"duration":0.08571424999999522,"midi":81,"time":70.11425650000001,"velocity":0.23622047244094488},{"duration":0.08571424999999522,"midi":77,"time":70.11425650000001,"velocity":0.23622047244094488},{"duration":0.08571424999999522,"midi":93,"time":70.11425650000001,"velocity":0.23622047244094488},{"duration":0.08571424999999522,"midi":41,"time":70.11425650000001,"velocity":0.23622047244094488},{"duration":0.08571425000000943,"midi":74,"time":70.285685,"velocity":0.23622047244094488},{"duration":0.08571425000000943,"midi":91,"time":70.285685,"velocity":0.23622047244094488},{"duration":0.08571425000000943,"midi":44,"time":70.285685,"velocity":0.23622047244094488},{"duration":0.08571424999999522,"midi":93,"time":70.37139925000001,"velocity":0.23622047244094488},{"duration":0.08571424999999522,"midi":79,"time":70.4571135,"velocity":0.23622047244094488},{"duration":0.08571424999999522,"midi":84,"time":70.4571135,"velocity":0.23622047244094488},{"duration":0.08571424999999522,"midi":91,"time":70.4571135,"velocity":0.23622047244094488},{"duration":0.08571424999999522,"midi":39,"time":70.4571135,"velocity":0.23622047244094488},{"duration":0.08571425000000943,"midi":93,"time":70.54282775,"velocity":0.23622047244094488},{"duration":0.08571424999999522,"midi":85,"time":70.62854200000001,"velocity":0.23622047244094488},{"duration":0.08571424999999522,"midi":74,"time":70.62854200000001,"velocity":0.23622047244094488},{"duration":0.08571424999999522,"midi":44,"time":70.62854200000001,"velocity":0.23622047244094488},{"duration":0.08571424999999522,"midi":57,"time":70.62854200000001,"velocity":0.23622047244094488},{"duration":0.08571425000000943,"midi":86,"time":70.7999705,"velocity":0.23622047244094488},{"duration":0.08571425000000943,"midi":81,"time":70.7999705,"velocity":0.23622047244094488},{"duration":0.08571425000000943,"midi":93,"time":70.7999705,"velocity":0.23622047244094488},{"duration":0.08571425000000943,"midi":39,"time":70.7999705,"velocity":0.23622047244094488},{"duration":0.08571424999999522,"midi":74,"time":70.971399,"velocity":0.23622047244094488},{"duration":0.08571424999999522,"midi":91,"time":70.971399,"velocity":0.23622047244094488},{"duration":0.08571424999999522,"midi":44,"time":70.971399,"velocity":0.23622047244094488},{"duration":0.08571424999999522,"midi":41,"time":71.14282750000001,"velocity":0.23622047244094488},{"duration":0.08571424999999522,"midi":93,"time":71.14282750000001,"velocity":0.23622047244094488},{"duration":0.08571424999999522,"midi":81,"time":71.14282750000001,"velocity":0.23622047244094488},{"duration":0.08571424999999522,"midi":77,"time":71.14282750000001,"velocity":0.23622047244094488},{"duration":0.08571425000000943,"midi":39,"time":71.314256,"velocity":0.23622047244094488},{"duration":0.08571425000000943,"midi":57,"time":71.314256,"velocity":0.23622047244094488},{"duration":0.08571425000000943,"midi":70,"time":71.314256,"velocity":0.23622047244094488},{"duration":0.08571425000000943,"midi":81,"time":71.314256,"velocity":0.23622047244094488},{"duration":0.08571424999999522,"midi":77,"time":71.4856845,"velocity":0.23622047244094488},{"duration":0.08571424999999522,"midi":74,"time":71.4856845,"velocity":0.23622047244094488},{"duration":0.08571424999999522,"midi":41,"time":71.4856845,"velocity":0.23622047244094488},{"duration":0.08571424999999522,"midi":89,"time":71.4856845,"velocity":0.23622047244094488},{"duration":0.08571424999999522,"midi":44,"time":71.65711300000001,"velocity":0.23622047244094488},{"duration":0.08571424999999522,"midi":88,"time":71.65711300000001,"velocity":0.23622047244094488},{"duration":0.08571424999999522,"midi":89,"time":71.74282725,"velocity":0.23622047244094488},{"duration":0.08571425000000943,"midi":77,"time":71.8285415,"velocity":0.23622047244094488},{"duration":0.08571425000000943,"midi":88,"time":71.8285415,"velocity":0.23622047244094488},{"duration":0.08571425000000943,"midi":39,"time":71.8285415,"velocity":0.23622047244094488},{"duration":0.08571425000000943,"midi":74,"time":71.8285415,"velocity":0.23622047244094488},{"duration":0.08571424999999522,"midi":72,"time":71.99997,"velocity":0.23622047244094488},{"duration":0.08571424999999522,"midi":91,"time":71.99997,"velocity":0.23622047244094488},{"duration":0.08571424999999522,"midi":89,"time":72.17139850000001,"velocity":0.23622047244094488},{"duration":0.08571424999999522,"midi":79,"time":72.17139850000001,"velocity":0.23622047244094488},{"duration":0.08571424999999522,"midi":39,"time":72.17139850000001,"velocity":0.23622047244094488},{"duration":0.08571424999999522,"midi":76,"time":72.17139850000001,"velocity":0.23622047244094488},{"duration":0.08571425000000943,"midi":44,"time":72.342827,"velocity":0.23622047244094488},{"duration":0.08571425000000943,"midi":88,"time":72.342827,"velocity":0.23622047244094488},{"duration":0.08571424999999522,"midi":89,"time":72.42854125000001,"velocity":0.23622047244094488},{"duration":0.08571424999999522,"midi":76,"time":72.5142555,"velocity":0.23622047244094488},{"duration":0.08571424999999522,"midi":41,"time":72.5142555,"velocity":0.23622047244094488},{"duration":0.08571424999999522,"midi":79,"time":72.5142555,"velocity":0.23622047244094488},{"duration":0.08571424999999522,"midi":88,"time":72.5142555,"velocity":0.23622047244094488},{"duration":0.08571425000000943,"midi":84,"time":72.59996975,"velocity":0.23622047244094488},{"duration":0.08571424999999522,"midi":86,"time":72.68568400000001,"velocity":0.23622047244094488},{"duration":0.08571424999999522,"midi":39,"time":72.68568400000001,"velocity":0.23622047244094488},{"duration":0.08571424999999522,"midi":74,"time":72.68568400000001,"velocity":0.23622047244094488},{"duration":0.08571425000000943,"midi":77,"time":72.8571125,"velocity":0.23622047244094488},{"duration":0.08571425000000943,"midi":81,"time":72.8571125,"velocity":0.23622047244094488},{"duration":0.08571425000000943,"midi":93,"time":72.8571125,"velocity":0.23622047244094488},{"duration":0.08571425000000943,"midi":41,"time":72.8571125,"velocity":0.23622047244094488},{"duration":0.08571424999999522,"midi":91,"time":73.028541,"velocity":0.23622047244094488},{"duration":0.08571424999999522,"midi":44,"time":73.028541,"velocity":0.23622047244094488},{"duration":0.08571425000000943,"midi":93,"time":73.11425525,"velocity":0.23622047244094488},{"duration":0.08571424999999522,"midi":81,"time":73.19996950000001,"velocity":0.23622047244094488},{"duration":0.08571424999999522,"midi":77,"time":73.19996950000001,"velocity":0.23622047244094488},{"duration":0.08571424999999522,"midi":91,"time":73.19996950000001,"velocity":0.23622047244094488},{"duration":0.08571424999999522,"midi":39,"time":73.19996950000001,"velocity":0.23622047244094488},{"duration":0.08571424999999522,"midi":93,"time":73.28568375,"velocity":0.23622047244094488},{"duration":0.08571425000000943,"midi":84,"time":73.371398,"velocity":0.23622047244094488},{"duration":0.08571425000000943,"midi":74,"time":73.371398,"velocity":0.23622047244094488},{"duration":0.08571424999999522,"midi":77,"time":73.5428265,"velocity":0.23622047244094488},{"duration":0.08571424999999522,"midi":39,"time":73.5428265,"velocity":0.23622047244094488},{"duration":0.08571424999999522,"midi":81,"time":73.5428265,"velocity":0.23622047244094488},{"duration":0.08571424999999522,"midi":93,"time":73.5428265,"velocity":0.23622047244094488},{"duration":0.08571425000000943,"midi":84,"time":73.62854075,"velocity":0.23622047244094488},{"duration":0.08571424999999522,"midi":44,"time":73.71425500000001,"velocity":0.23622047244094488},{"duration":0.08571424999999522,"midi":88,"time":73.71425500000001,"velocity":0.23622047244094488},{"duration":0.08571425000000943,"midi":41,"time":73.8856835,"velocity":0.23622047244094488},{"duration":0.08571425000000943,"midi":81,"time":73.8856835,"velocity":0.23622047244094488},{"duration":0.08571425000000943,"midi":89,"time":73.8856835,"velocity":0.23622047244094488},{"duration":0.08571425000000943,"midi":77,"time":73.8856835,"velocity":0.23622047244094488},{"duration":0.08571424999999522,"midi":70,"time":74.057112,"velocity":0.23622047244094488},{"duration":0.08571424999999522,"midi":57,"time":74.057112,"velocity":0.23622047244094488},{"duration":0.08571424999999522,"midi":91,"time":74.057112,"velocity":0.23622047244094488},{"duration":0.08571424999999522,"midi":39,"time":74.057112,"velocity":0.23622047244094488},{"duration":0.08571424999999522,"midi":79,"time":74.22854050000001,"velocity":0.23622047244094488},{"duration":0.08571424999999522,"midi":74,"time":74.22854050000001,"velocity":0.23622047244094488},{"duration":0.08571424999999522,"midi":41,"time":74.22854050000001,"velocity":0.23622047244094488},{"duration":0.08571424999999522,"midi":86,"time":74.22854050000001,"velocity":0.23622047244094488},{"duration":0.08571424999999522,"midi":91,"time":74.31425475,"velocity":0.23622047244094488},{"duration":0.08571425000000943,"midi":44,"time":74.399969,"velocity":0.23622047244094488},{"duration":0.08571424999999522,"midi":86,"time":74.48568325000001,"velocity":0.23622047244094488},{"duration":0.08571424999999522,"midi":39,"time":74.5713975,"velocity":0.23622047244094488},{"duration":0.08571424999999522,"midi":91,"time":74.5713975,"velocity":0.23622047244094488},{"duration":0.08571424999999522,"midi":79,"time":74.5713975,"velocity":0.23622047244094488},{"duration":0.08571424999999522,"midi":74,"time":74.5713975,"velocity":0.23622047244094488},{"duration":0.08571424999999522,"midi":93,"time":74.74282600000001,"velocity":0.23622047244094488},{"duration":0.08571424999999522,"midi":72,"time":74.74282600000001,"velocity":0.23622047244094488},{"duration":0.08571424999999522,"midi":57,"time":74.74282600000001,"velocity":0.23622047244094488},{"duration":0.08571425000000943,"midi":39,"time":74.9142545,"velocity":0.23622047244094488},{"duration":0.08571425000000943,"midi":88,"time":74.9142545,"velocity":0.23622047244094488},{"duration":0.08571425000000943,"midi":81,"time":74.9142545,"velocity":0.23622047244094488},{"duration":0.08571425000000943,"midi":76,"time":74.9142545,"velocity":0.23622047244094488},{"duration":0.08571424999999522,"midi":93,"time":74.99996875000001,"velocity":0.23622047244094488},{"duration":0.08571424999999522,"midi":44,"time":75.085683,"velocity":0.23622047244094488},{"duration":0.08571425000000943,"midi":88,"time":75.17139725,"velocity":0.23622047244094488},{"duration":0.08571424999999522,"midi":41,"time":75.25711150000001,"velocity":0.23622047244094488},{"duration":0.08571424999999522,"midi":81,"time":75.25711150000001,"velocity":0.23622047244094488},{"duration":0.08571424999999522,"midi":76,"time":75.25711150000001,"velocity":0.23622047244094488},{"duration":0.08571424999999522,"midi":93,"time":75.25711150000001,"velocity":0.23622047244094488},{"duration":0.08571425000000943,"midi":39,"time":75.42854,"velocity":0.23622047244094488},{"duration":0.08571425000000943,"midi":74,"time":75.42854,"velocity":0.23622047244094488},{"duration":0.08571425000000943,"midi":94,"time":75.42854,"velocity":0.23622047244094488},{"duration":0.08571425000000943,"midi":57,"time":75.42854,"velocity":0.23622047244094488},{"duration":0.08571424999999522,"midi":89,"time":75.5999685,"velocity":0.23622047244094488},{"duration":0.08571424999999522,"midi":82,"time":75.5999685,"velocity":0.23622047244094488},{"duration":0.08571424999999522,"midi":77,"time":75.5999685,"velocity":0.23622047244094488},{"duration":0.08571424999999522,"midi":41,"time":75.5999685,"velocity":0.23622047244094488},{"duration":0.08571424999999522,"midi":88,"time":75.77139700000001,"velocity":0.23622047244094488},{"duration":0.08571424999999522,"midi":57,"time":75.77139700000001,"velocity":0.23622047244094488},{"duration":0.08571424999999522,"midi":44,"time":75.77139700000001,"velocity":0.23622047244094488},{"duration":0.08571424999999522,"midi":83,"time":75.94282550000001,"velocity":0.23622047244094488},{"duration":0.08571424999999522,"midi":79,"time":75.94282550000001,"velocity":0.23622047244094488},{"duration":0.08571424999999522,"midi":86,"time":75.94282550000001,"velocity":0.23622047244094488},{"duration":0.08571424999999522,"midi":39,"time":75.94282550000001,"velocity":0.23622047244094488},{"duration":0.08571425000000943,"midi":57,"time":76.114254,"velocity":0.23622047244094488},{"duration":0.08571425000000943,"midi":84,"time":76.114254,"velocity":0.23622047244094488},{"duration":0.08571425000000943,"midi":81,"time":76.114254,"velocity":0.23622047244094488},{"duration":0.08571425000000943,"midi":88,"time":76.114254,"velocity":0.23622047244094488},{"duration":0.08571425000000943,"midi":44,"time":76.114254,"velocity":0.23622047244094488},{"duration":0.08571424999999522,"midi":39,"time":76.28568250000001,"velocity":0.23622047244094488},{"duration":0.08571425000000943,"midi":81,"time":76.37139675,"velocity":0.23622047244094488},{"duration":0.08571425000000943,"midi":84,"time":76.37139675,"velocity":0.23622047244094488},{"duration":0.08571424999999522,"midi":57,"time":76.45711100000001,"velocity":0.23622047244094488},{"duration":0.08571424999999522,"midi":44,"time":76.45711100000001,"velocity":0.23622047244094488},{"duration":0.08571425000000943,"midi":81,"time":76.6285395,"velocity":0.23622047244094488},{"duration":0.08571425000000943,"midi":41,"time":76.6285395,"velocity":0.23622047244094488},{"duration":0.08571425000000943,"midi":84,"time":76.6285395,"velocity":0.23622047244094488},{"duration":0.08571424999999522,"midi":82,"time":76.799968,"velocity":0.23622047244094488},{"duration":0.08571424999999522,"midi":39,"time":76.799968,"velocity":0.23622047244094488},{"duration":0.08571424999999522,"midi":71,"time":76.799968,"velocity":0.23622047244094488},{"duration":0.08571424999999522,"midi":57,"time":76.799968,"velocity":0.23622047244094488},{"duration":0.08571424999999522,"midi":78,"time":76.97139650000001,"velocity":0.23622047244094488},{"duration":0.08571424999999522,"midi":90,"time":76.97139650000001,"velocity":0.23622047244094488},{"duration":0.08571424999999522,"midi":75,"time":76.97139650000001,"velocity":0.23622047244094488},{"duration":0.08571424999999522,"midi":41,"time":76.97139650000001,"velocity":0.23622047244094488},{"duration":0.08571425000000943,"midi":89,"time":77.142825,"velocity":0.23622047244094488},{"duration":0.08571425000000943,"midi":44,"time":77.142825,"velocity":0.23622047244094488},{"duration":0.08571424999999522,"midi":90,"time":77.22853925000001,"velocity":0.23622047244094488},{"duration":0.08571424999999522,"midi":89,"time":77.3142535,"velocity":0.23622047244094488},{"duration":0.08571424999999522,"midi":39,"time":77.3142535,"velocity":0.23622047244094488},{"duration":0.08571424999999522,"midi":75,"time":77.3142535,"velocity":0.23622047244094488},{"duration":0.08571424999999522,"midi":78,"time":77.3142535,"velocity":0.23622047244094488},{"duration":0.08571424999999522,"midi":92,"time":77.48568200000001,"velocity":0.23622047244094488},{"duration":0.08571424999999522,"midi":73,"time":77.48568200000001,"velocity":0.23622047244094488},{"duration":0.08571425000000943,"midi":80,"time":77.6571105,"velocity":0.23622047244094488},{"duration":0.08571425000000943,"midi":77,"time":77.6571105,"velocity":0.23622047244094488},{"duration":0.08571425000000943,"midi":39,"time":77.6571105,"velocity":0.23622047244094488},{"duration":0.08571425000000943,"midi":90,"time":77.6571105,"velocity":0.23622047244094488},{"duration":0.08571424999999522,"midi":89,"time":77.828539,"velocity":0.23622047244094488},{"duration":0.08571424999999522,"midi":44,"time":77.828539,"velocity":0.23622047244094488},{"duration":0.08571425000000943,"midi":90,"time":77.91425325,"velocity":0.23622047244094488},{"duration":0.08571424999999522,"midi":77,"time":77.99996750000001,"velocity":0.23622047244094488},{"duration":0.08571424999999522,"midi":41,"time":77.99996750000001,"velocity":0.23622047244094488},{"duration":0.08571424999999522,"midi":89,"time":77.99996750000001,"velocity":0.23622047244094488},{"duration":0.08571424999999522,"midi":80,"time":77.99996750000001,"velocity":0.23622047244094488},{"duration":0.08571424999999522,"midi":85,"time":78.08568175,"velocity":0.23622047244094488},{"duration":0.08571425000000943,"midi":39,"time":78.171396,"velocity":0.23622047244094488},{"duration":0.08571425000000943,"midi":75,"time":78.171396,"velocity":0.23622047244094488},{"duration":0.08571425000000943,"midi":87,"time":78.171396,"velocity":0.23622047244094488},{"duration":0.08571424999999522,"midi":78,"time":78.3428245,"velocity":0.23622047244094488},{"duration":0.08571424999999522,"midi":94,"time":78.3428245,"velocity":0.23622047244094488},{"duration":0.08571424999999522,"midi":41,"time":78.3428245,"velocity":0.23622047244094488},{"duration":0.08571424999999522,"midi":82,"time":78.3428245,"velocity":0.23622047244094488},{"duration":0.08571424999999522,"midi":92,"time":78.51425300000001,"velocity":0.23622047244094488},{"duration":0.08571424999999522,"midi":44,"time":78.51425300000001,"velocity":0.23622047244094488},{"duration":0.08571424999999522,"midi":94,"time":78.59996725,"velocity":0.23622047244094488},{"duration":0.08571425000000943,"midi":82,"time":78.6856815,"velocity":0.23622047244094488},{"duration":0.08571425000000943,"midi":39,"time":78.6856815,"velocity":0.23622047244094488},{"duration":0.08571425000000943,"midi":92,"time":78.6856815,"velocity":0.23622047244094488},{"duration":0.08571425000000943,"midi":78,"time":78.6856815,"velocity":0.23622047244094488},{"duration":0.08571424999999522,"midi":94,"time":78.77139575000001,"velocity":0.23622047244094488},{"duration":0.08571424999999522,"midi":75,"time":78.85711,"velocity":0.23622047244094488},{"duration":0.08571424999999522,"midi":85,"time":78.85711,"velocity":0.23622047244094488},{"duration":0.08571424999999522,"midi":78,"time":79.02853850000001,"velocity":0.23622047244094488},{"duration":0.08571424999999522,"midi":82,"time":79.02853850000001,"velocity":0.23622047244094488},{"duration":0.08571424999999522,"midi":39,"time":79.02853850000001,"velocity":0.23622047244094488},{"duration":0.08571424999999522,"midi":94,"time":79.02853850000001,"velocity":0.23622047244094488},{"duration":0.08571425000000943,"midi":92,"time":79.199967,"velocity":0.23622047244094488},{"duration":0.08571425000000943,"midi":44,"time":79.199967,"velocity":0.23622047244094488},{"duration":0.08571424999999522,"midi":41,"time":79.3713955,"velocity":0.23622047244094488},{"duration":0.08571424999999522,"midi":94,"time":79.3713955,"velocity":0.23622047244094488},{"duration":0.08571424999999522,"midi":82,"time":79.3713955,"velocity":0.23622047244094488},{"duration":0.08571424999999522,"midi":78,"time":79.3713955,"velocity":0.23622047244094488},{"duration":0.08571424999999522,"midi":39,"time":79.54282400000001,"velocity":0.23622047244094488},{"duration":0.08571424999999522,"midi":83,"time":79.54282400000001,"velocity":0.23622047244094488},{"duration":0.08571424999999522,"midi":57,"time":79.54282400000001,"velocity":0.23622047244094488},{"duration":0.08571424999999522,"midi":71,"time":79.54282400000001,"velocity":0.23622047244094488},{"duration":0.08571425000000943,"midi":75,"time":79.7142525,"velocity":0.23622047244094488},{"duration":0.08571425000000943,"midi":78,"time":79.7142525,"velocity":0.23622047244094488},{"duration":0.08571425000000943,"midi":90,"time":79.7142525,"velocity":0.23622047244094488},{"duration":0.08571425000000943,"midi":41,"time":79.7142525,"velocity":0.23622047244094488},{"duration":0.08571424999999522,"midi":44,"time":79.885681,"velocity":0.23622047244094488},{"duration":0.08571424999999522,"midi":89,"time":79.885681,"velocity":0.23622047244094488},{"duration":0.08571425000000943,"midi":90,"time":79.97139525,"velocity":0.23622047244094488},{"duration":0.08571424999999522,"midi":75,"time":80.05710950000001,"velocity":0.23622047244094488},{"duration":0.08571424999999522,"midi":89,"time":80.05710950000001,"velocity":0.23622047244094488},{"duration":0.08571424999999522,"midi":39,"time":80.05710950000001,"velocity":0.23622047244094488},{"duration":0.08571424999999522,"midi":78,"time":80.05710950000001,"velocity":0.23622047244094488},{"duration":0.08571425000000943,"midi":73,"time":80.228538,"velocity":0.23622047244094488},{"duration":0.08571425000000943,"midi":92,"time":80.228538,"velocity":0.23622047244094488},{"duration":0.08571424999999522,"midi":77,"time":80.3999665,"velocity":0.23622047244094488},{"duration":0.08571424999999522,"midi":80,"time":80.3999665,"velocity":0.23622047244094488},{"duration":0.08571424999999522,"midi":90,"time":80.3999665,"velocity":0.23622047244094488},{"duration":0.08571424999999522,"midi":39,"time":80.3999665,"velocity":0.23622047244094488},{"duration":0.08571424999999522,"midi":44,"time":80.57139500000001,"velocity":0.23622047244094488},{"duration":0.08571424999999522,"midi":89,"time":80.57139500000001,"velocity":0.23622047244094488},{"duration":0.08571424999999522,"midi":90,"time":80.65710925,"velocity":0.23622047244094488},{"duration":0.08571425000000943,"midi":80,"time":80.7428235,"velocity":0.23622047244094488},{"duration":0.08571425000000943,"midi":89,"time":80.7428235,"velocity":0.23622047244094488},{"duration":0.08571425000000943,"midi":77,"time":80.7428235,"velocity":0.23622047244094488},{"duration":0.08571425000000943,"midi":41,"time":80.7428235,"velocity":0.23622047244094488},{"duration":0.08571424999999522,"midi":85,"time":80.82853775000001,"velocity":0.23622047244094488},{"duration":0.08571424999999522,"midi":39,"time":80.914252,"velocity":0.23622047244094488},{"duration":0.08571424999999522,"midi":87,"time":80.914252,"velocity":0.23622047244094488},{"duration":0.08571424999999522,"midi":75,"time":80.914252,"velocity":0.23622047244094488},{"duration":0.08571424999999522,"midi":57,"time":80.914252,"velocity":0.23622047244094488},{"duration":0.08571424999999522,"midi":94,"time":81.08568050000001,"velocity":0.23622047244094488},{"duration":0.08571424999999522,"midi":82,"time":81.08568050000001,"velocity":0.23622047244094488},{"duration":0.08571424999999522,"midi":41,"time":81.08568050000001,"velocity":0.23622047244094488},{"duration":0.08571424999999522,"midi":78,"time":81.08568050000001,"velocity":0.23622047244094488},{"duration":0.08571425000000943,"midi":44,"time":81.257109,"velocity":0.23622047244094488},{"duration":0.08571425000000943,"midi":75,"time":81.257109,"velocity":0.23622047244094488},{"duration":0.08571425000000943,"midi":92,"time":81.257109,"velocity":0.23622047244094488},{"duration":0.08571424999999522,"midi":94,"time":81.34282325000001,"velocity":0.23622047244094488},{"duration":0.08571424999999522,"midi":39,"time":81.4285375,"velocity":0.23622047244094488},{"duration":0.08571424999999522,"midi":92,"time":81.4285375,"velocity":0.23622047244094488},{"duration":0.08571424999999522,"midi":80,"time":81.4285375,"velocity":0.23622047244094488},{"duration":0.08571424999999522,"midi":85,"time":81.4285375,"velocity":0.23622047244094488},{"duration":0.08571425000000943,"midi":94,"time":81.51425175,"velocity":0.23622047244094488},{"duration":0.08571424999999522,"midi":57,"time":81.59996600000001,"velocity":0.23622047244094488},{"duration":0.08571424999999522,"midi":75,"time":81.59996600000001,"velocity":0.23622047244094488},{"duration":0.08571424999999522,"midi":44,"time":81.59996600000001,"velocity":0.23622047244094488},{"duration":0.08571424999999522,"midi":86,"time":81.59996600000001,"velocity":0.23622047244094488},{"duration":0.08571425000000943,"midi":39,"time":81.7713945,"velocity":0.23622047244094488},{"duration":0.08571425000000943,"midi":87,"time":81.7713945,"velocity":0.23622047244094488},{"duration":0.08571425000000943,"midi":94,"time":81.7713945,"velocity":0.23622047244094488},{"duration":0.08571425000000943,"midi":82,"time":81.7713945,"velocity":0.23622047244094488},{"duration":0.08571424999999522,"midi":75,"time":81.942823,"velocity":0.23622047244094488},{"duration":0.08571424999999522,"midi":44,"time":81.942823,"velocity":0.23622047244094488},{"duration":0.08571424999999522,"midi":92,"time":81.942823,"velocity":0.23622047244094488},{"duration":0.08571424999999522,"midi":94,"time":82.11425150000001,"velocity":0.23622047244094488},{"duration":0.08571424999999522,"midi":41,"time":82.11425150000001,"velocity":0.23622047244094488},{"duration":0.08571424999999522,"midi":78,"time":82.11425150000001,"velocity":0.23622047244094488},{"duration":0.08571424999999522,"midi":82,"time":82.11425150000001,"velocity":0.23622047244094488},{"duration":0.08571425000000943,"midi":57,"time":82.28568,"velocity":0.23622047244094488},{"duration":0.08571425000000943,"midi":71,"time":82.28568,"velocity":0.23622047244094488},{"duration":0.08571425000000943,"midi":82,"time":82.28568,"velocity":0.23622047244094488},{"duration":0.08571425000000943,"midi":39,"time":82.28568,"velocity":0.23622047244094488},{"duration":0.08571424999999522,"midi":90,"time":82.4571085,"velocity":0.23622047244094488},{"duration":0.08571424999999522,"midi":78,"time":82.4571085,"velocity":0.23622047244094488},{"duration":0.08571424999999522,"midi":75,"time":82.4571085,"velocity":0.23622047244094488},{"duration":0.08571424999999522,"midi":41,"time":82.4571085,"velocity":0.23622047244094488},{"duration":0.08571424999999522,"midi":44,"time":82.62853700000001,"velocity":0.23622047244094488},{"duration":0.08571424999999522,"midi":89,"time":82.62853700000001,"velocity":0.23622047244094488},{"duration":0.08571424999999522,"midi":90,"time":82.71425125,"velocity":0.23622047244094488},{"duration":0.08571425000000943,"midi":39,"time":82.7999655,"velocity":0.23622047244094488},{"duration":0.08571425000000943,"midi":89,"time":82.7999655,"velocity":0.23622047244094488},{"duration":0.08571425000000943,"midi":75,"time":82.7999655,"velocity":0.23622047244094488},{"duration":0.08571425000000943,"midi":78,"time":82.7999655,"velocity":0.23622047244094488},{"duration":0.08571424999999522,"midi":73,"time":82.971394,"velocity":0.23622047244094488},{"duration":0.08571424999999522,"midi":92,"time":82.971394,"velocity":0.23622047244094488},{"duration":0.08571424999999522,"midi":39,"time":83.14282250000001,"velocity":0.23622047244094488},{"duration":0.08571424999999522,"midi":90,"time":83.14282250000001,"velocity":0.23622047244094488},{"duration":0.08571424999999522,"midi":77,"time":83.14282250000001,"velocity":0.23622047244094488},{"duration":0.08571424999999522,"midi":80,"time":83.14282250000001,"velocity":0.23622047244094488},{"duration":0.08571425000000943,"midi":89,"time":83.314251,"velocity":0.23622047244094488},{"duration":0.08571425000000943,"midi":44,"time":83.314251,"velocity":0.23622047244094488},{"duration":0.08571424999999522,"midi":90,"time":83.39996525000001,"velocity":0.23622047244094488},{"duration":0.08571424999999522,"midi":41,"time":83.4856795,"velocity":0.23622047244094488},{"duration":0.08571424999999522,"midi":89,"time":83.4856795,"velocity":0.23622047244094488},{"duration":0.08571424999999522,"midi":80,"time":83.4856795,"velocity":0.23622047244094488},{"duration":0.08571424999999522,"midi":77,"time":83.4856795,"velocity":0.23622047244094488},{"duration":0.08571425000000943,"midi":85,"time":83.57139375,"velocity":0.23622047244094488},{"duration":0.08571424999999522,"midi":39,"time":83.65710800000001,"velocity":0.23622047244094488},{"duration":0.08571424999999522,"midi":75,"time":83.65710800000001,"velocity":0.23622047244094488},{"duration":0.08571424999999522,"midi":87,"time":83.65710800000001,"velocity":0.23622047244094488},{"duration":0.08571424999999522,"midi":78,"time":83.82853650000001,"velocity":0.23622047244094488},{"duration":0.08571424999999522,"midi":41,"time":83.82853650000001,"velocity":0.23622047244094488},{"duration":0.08571424999999522,"midi":82,"time":83.82853650000001,"velocity":0.23622047244094488},{"duration":0.08571424999999522,"midi":94,"time":83.82853650000001,"velocity":0.23622047244094488},{"duration":0.08571425000000943,"midi":92,"time":83.999965,"velocity":0.23622047244094488},{"duration":0.08571425000000943,"midi":44,"time":83.999965,"velocity":0.23622047244094488},{"duration":0.08571424999999522,"midi":94,"time":84.08567925000001,"velocity":0.23622047244094488},{"duration":0.08571424999999522,"midi":92,"time":84.17139350000001,"velocity":0.23622047244094488},{"duration":0.08571424999999522,"midi":39,"time":84.17139350000001,"velocity":0.23622047244094488},{"duration":0.08571424999999522,"midi":82,"time":84.17139350000001,"velocity":0.23622047244094488},{"duration":0.08571424999999522,"midi":78,"time":84.17139350000001,"velocity":0.23622047244094488},{"duration":0.08571425000000943,"midi":94,"time":84.25710775,"velocity":0.23622047244094488},{"duration":0.08571424999999522,"midi":75,"time":84.34282200000001,"velocity":0.23622047244094488},{"duration":0.08571424999999522,"midi":85,"time":84.34282200000001,"velocity":0.23622047244094488},{"duration":0.08571425000000943,"midi":94,"time":84.5142505,"velocity":0.23622047244094488},{"duration":0.08571425000000943,"midi":82,"time":84.5142505,"velocity":0.23622047244094488},{"duration":0.08571425000000943,"midi":39,"time":84.5142505,"velocity":0.23622047244094488},{"duration":0.08571425000000943,"midi":78,"time":84.5142505,"velocity":0.23622047244094488},{"duration":0.08571424999999522,"midi":85,"time":84.59996475000001,"velocity":0.23622047244094488},{"duration":0.08571424999999522,"midi":44,"time":84.68567900000001,"velocity":0.23622047244094488},{"duration":0.08571424999999522,"midi":89,"time":84.68567900000001,"velocity":0.23622047244094488},{"duration":0.08571424999999522,"midi":82,"time":84.85710750000001,"velocity":0.23622047244094488},{"duration":0.08571424999999522,"midi":78,"time":84.85710750000001,"velocity":0.23622047244094488},{"duration":0.08571424999999522,"midi":90,"time":84.85710750000001,"velocity":0.23622047244094488},{"duration":0.08571424999999522,"midi":41,"time":84.85710750000001,"velocity":0.23622047244094488},{"duration":0.08571425000000943,"midi":39,"time":85.028536,"velocity":0.23622047244094488},{"duration":0.08571425000000943,"midi":57,"time":85.028536,"velocity":0.23622047244094488},{"duration":0.08571425000000943,"midi":92,"time":85.028536,"velocity":0.23622047244094488},{"duration":0.08571425000000943,"midi":71,"time":85.028536,"velocity":0.23622047244094488},{"duration":0.08571424999999522,"midi":41,"time":85.19996450000001,"velocity":0.23622047244094488},{"duration":0.08571424999999522,"midi":87,"time":85.19996450000001,"velocity":0.23622047244094488},{"duration":0.08571424999999522,"midi":80,"time":85.19996450000001,"velocity":0.23622047244094488},{"duration":0.08571424999999522,"midi":75,"time":85.19996450000001,"velocity":0.23622047244094488},{"duration":0.08571425000000943,"midi":92,"time":85.28567875,"velocity":0.23622047244094488},{"duration":0.08571424999999522,"midi":44,"time":85.37139300000001,"velocity":0.23622047244094488},{"duration":0.08571424999999522,"midi":87,"time":85.45710725,"velocity":0.23622047244094488},{"duration":0.08571425000000943,"midi":92,"time":85.5428215,"velocity":0.23622047244094488},{"duration":0.08571425000000943,"midi":75,"time":85.5428215,"velocity":0.23622047244094488},{"duration":0.08571425000000943,"midi":39,"time":85.5428215,"velocity":0.23622047244094488},{"duration":0.08571425000000943,"midi":80,"time":85.5428215,"velocity":0.23622047244094488},{"duration":0.08571424999999522,"midi":94,"time":85.71425,"velocity":0.23622047244094488},{"duration":0.08571424999999522,"midi":57,"time":85.71425,"velocity":0.23622047244094488},{"duration":0.08571424999999522,"midi":73,"time":85.71425,"velocity":0.23622047244094488},{"duration":0.08571424999999522,"midi":77,"time":85.88567850000001,"velocity":0.23622047244094488},{"duration":0.08571424999999522,"midi":82,"time":85.88567850000001,"velocity":0.23622047244094488},{"duration":0.08571424999999522,"midi":89,"time":85.88567850000001,"velocity":0.23622047244094488},{"duration":0.08571424999999522,"midi":39,"time":85.88567850000001,"velocity":0.23622047244094488},{"duration":0.08571424999999522,"midi":94,"time":85.97139275,"velocity":0.23622047244094488},{"duration":0.08571425000000943,"midi":44,"time":86.057107,"velocity":0.23622047244094488},{"duration":0.08571424999999522,"midi":89,"time":86.14282125000001,"velocity":0.23622047244094488},{"duration":0.08571424999999522,"midi":77,"time":86.2285355,"velocity":0.23622047244094488},{"duration":0.08571424999999522,"midi":41,"time":86.2285355,"velocity":0.23622047244094488},{"duration":0.08571424999999522,"midi":82,"time":86.2285355,"velocity":0.23622047244094488},{"duration":0.08571424999999522,"midi":94,"time":86.2285355,"velocity":0.23622047244094488},{"duration":0.08571424999999522,"midi":75,"time":86.39996400000001,"velocity":0.23622047244094488},{"duration":0.08571424999999522,"midi":57,"time":86.39996400000001,"velocity":0.23622047244094488},{"duration":0.08571424999999522,"midi":95,"time":86.39996400000001,"velocity":0.23622047244094488},{"duration":0.08571424999999522,"midi":39,"time":86.39996400000001,"velocity":0.23622047244094488},{"duration":0.08571424999999522,"midi":90,"time":86.48567825,"velocity":0.23622047244094488},{"duration":0.08571425000000943,"midi":41,"time":86.5713925,"velocity":0.23622047244094488},{"duration":0.08571425000000943,"midi":83,"time":86.5713925,"velocity":0.23622047244094488},{"duration":0.08571425000000943,"midi":95,"time":86.5713925,"velocity":0.23622047244094488},{"duration":0.08571425000000943,"midi":78,"time":86.5713925,"velocity":0.23622047244094488},{"duration":0.08571424999999522,"midi":95,"time":86.65710675000001,"velocity":0.23622047244094488},{"duration":0.08571424999999522,"midi":57,"time":86.742821,"velocity":0.23622047244094488},{"duration":0.08571424999999522,"midi":44,"time":86.742821,"velocity":0.23622047244094488},{"duration":0.08571424999999522,"midi":95,"time":86.742821,"velocity":0.23622047244094488},{"duration":0.08571424999999522,"midi":80,"time":86.91424950000001,"velocity":0.23622047244094488},{"duration":0.08571424999999522,"midi":84,"time":86.91424950000001,"velocity":0.23622047244094488},{"duration":0.08571424999999522,"midi":84,"time":86.91424950000001,"velocity":0.23622047244094488},{"duration":0.08571424999999522,"midi":39,"time":86.91424950000001,"velocity":0.23622047244094488},{"duration":0.08571425000000943,"midi":82,"time":87.085678,"velocity":0.23622047244094488},{"duration":0.08571425000000943,"midi":57,"time":87.085678,"velocity":0.23622047244094488},{"duration":0.08571425000000943,"midi":44,"time":87.085678,"velocity":0.23622047244094488},{"duration":0.08571425000000943,"midi":85,"time":87.085678,"velocity":0.23622047244094488},{"duration":0.08571425000000943,"midi":85,"time":87.085678,"velocity":0.23622047244094488},{"duration":0.08571424999999522,"midi":39,"time":87.2571065,"velocity":0.23622047244094488},{"duration":0.08571425000000943,"midi":82,"time":87.34282075,"velocity":0.23622047244094488},{"duration":0.08571425000000943,"midi":85,"time":87.34282075,"velocity":0.23622047244094488},{"duration":0.08571424999999522,"midi":44,"time":87.42853500000001,"velocity":0.23622047244094488},{"duration":0.08571424999999522,"midi":57,"time":87.42853500000001,"velocity":0.23622047244094488},{"duration":0.08571425000000943,"midi":85,"time":87.5999635,"velocity":0.23622047244094488},{"duration":0.08571425000000943,"midi":82,"time":87.5999635,"velocity":0.23622047244094488},{"duration":0.08571425000000943,"midi":41,"time":87.5999635,"velocity":0.23622047244094488},{"duration":0.08571424999999522,"midi":71,"time":87.771392,"velocity":0.23622047244094488},{"duration":0.08571424999999522,"midi":39,"time":87.771392,"velocity":0.23622047244094488},{"duration":0.08571424999999522,"midi":57,"time":87.771392,"velocity":0.23622047244094488},{"duration":0.08571424999999522,"midi":82,"time":87.771392,"velocity":0.23622047244094488},{"duration":0.08571424999999522,"midi":75,"time":87.94282050000001,"velocity":0.23622047244094488},{"duration":0.08571424999999522,"midi":78,"time":87.94282050000001,"velocity":0.23622047244094488},{"duration":0.08571424999999522,"midi":90,"time":87.94282050000001,"velocity":0.23622047244094488},{"duration":0.08571424999999522,"midi":41,"time":87.94282050000001,"velocity":0.23622047244094488},{"duration":0.08571425000000943,"midi":89,"time":88.114249,"velocity":0.23622047244094488},{"duration":0.08571425000000943,"midi":44,"time":88.114249,"velocity":0.23622047244094488},{"duration":0.08571424999999522,"midi":90,"time":88.19996325000001,"velocity":0.23622047244094488},{"duration":0.08571424999999522,"midi":78,"time":88.2856775,"velocity":0.23622047244094488},{"duration":0.08571424999999522,"midi":39,"time":88.2856775,"velocity":0.23622047244094488},{"duration":0.08571424999999522,"midi":75,"time":88.2856775,"velocity":0.23622047244094488},{"duration":0.08571424999999522,"midi":89,"time":88.2856775,"velocity":0.23622047244094488},{"duration":0.08571424999999522,"midi":73,"time":88.45710600000001,"velocity":0.23622047244094488},{"duration":0.08571424999999522,"midi":92,"time":88.45710600000001,"velocity":0.23622047244094488},{"duration":0.08571425000000943,"midi":80,"time":88.6285345,"velocity":0.23622047244094488},{"duration":0.08571425000000943,"midi":90,"time":88.6285345,"velocity":0.23622047244094488},{"duration":0.08571425000000943,"midi":77,"time":88.6285345,"velocity":0.23622047244094488},{"duration":0.08571425000000943,"midi":39,"time":88.6285345,"velocity":0.23622047244094488},{"duration":0.08571424999999522,"midi":44,"time":88.799963,"velocity":0.23622047244094488},{"duration":0.08571424999999522,"midi":89,"time":88.799963,"velocity":0.23622047244094488},{"duration":0.08571425000000943,"midi":90,"time":88.88567725,"velocity":0.23622047244094488},{"duration":0.08571424999999522,"midi":89,"time":88.97139150000001,"velocity":0.23622047244094488},{"duration":0.08571424999999522,"midi":41,"time":88.97139150000001,"velocity":0.23622047244094488},{"duration":0.08571424999999522,"midi":77,"time":88.97139150000001,"velocity":0.23622047244094488},{"duration":0.08571424999999522,"midi":80,"time":88.97139150000001,"velocity":0.23622047244094488},{"duration":0.08571424999999522,"midi":85,"time":89.05710575,"velocity":0.23622047244094488},{"duration":0.08571425000000943,"midi":75,"time":89.14282,"velocity":0.23622047244094488},{"duration":0.08571425000000943,"midi":39,"time":89.14282,"velocity":0.23622047244094488},{"duration":0.08571425000000943,"midi":87,"time":89.14282,"velocity":0.23622047244094488},{"duration":0.08571424999999522,"midi":41,"time":89.3142485,"velocity":0.23622047244094488},{"duration":0.08571424999999522,"midi":82,"time":89.3142485,"velocity":0.23622047244094488},{"duration":0.08571424999999522,"midi":94,"time":89.3142485,"velocity":0.23622047244094488},{"duration":0.08571424999999522,"midi":78,"time":89.3142485,"velocity":0.23622047244094488},{"duration":0.08571424999999522,"midi":44,"time":89.48567700000001,"velocity":0.23622047244094488},{"duration":0.08571424999999522,"midi":92,"time":89.48567700000001,"velocity":0.23622047244094488},{"duration":0.08571424999999522,"midi":94,"time":89.57139125,"velocity":0.23622047244094488},{"duration":0.08571425000000943,"midi":82,"time":89.6571055,"velocity":0.23622047244094488},{"duration":0.08571425000000943,"midi":92,"time":89.6571055,"velocity":0.23622047244094488},{"duration":0.08571425000000943,"midi":78,"time":89.6571055,"velocity":0.23622047244094488},{"duration":0.08571425000000943,"midi":39,"time":89.6571055,"velocity":0.23622047244094488},{"duration":0.08571424999999522,"midi":94,"time":89.74281975000001,"velocity":0.23622047244094488},{"duration":0.08571424999999522,"midi":75,"time":89.828534,"velocity":0.23622047244094488},{"duration":0.08571424999999522,"midi":85,"time":89.828534,"velocity":0.23622047244094488},{"duration":0.08571424999999522,"midi":39,"time":89.99996250000001,"velocity":0.23622047244094488},{"duration":0.08571424999999522,"midi":82,"time":89.99996250000001,"velocity":0.23622047244094488},{"duration":0.08571424999999522,"midi":78,"time":89.99996250000001,"velocity":0.23622047244094488},{"duration":0.08571424999999522,"midi":94,"time":89.99996250000001,"velocity":0.23622047244094488},{"duration":0.08571425000000943,"midi":92,"time":90.171391,"velocity":0.23622047244094488},{"duration":0.08571425000000943,"midi":44,"time":90.171391,"velocity":0.23622047244094488},{"duration":0.08571424999999522,"midi":78,"time":90.3428195,"velocity":0.23622047244094488},{"duration":0.08571424999999522,"midi":41,"time":90.3428195,"velocity":0.23622047244094488},{"duration":0.08571424999999522,"midi":94,"time":90.3428195,"velocity":0.23622047244094488},{"duration":0.08571424999999522,"midi":82,"time":90.3428195,"velocity":0.23622047244094488},{"duration":0.08571424999999522,"midi":57,"time":90.51424800000001,"velocity":0.23622047244094488},{"duration":0.08571424999999522,"midi":71,"time":90.51424800000001,"velocity":0.23622047244094488},{"duration":0.08571424999999522,"midi":39,"time":90.51424800000001,"velocity":0.23622047244094488},{"duration":0.08571424999999522,"midi":83,"time":90.51424800000001,"velocity":0.23622047244094488},{"duration":0.08571425000000943,"midi":75,"time":90.6856765,"velocity":0.23622047244094488},{"duration":0.08571425000000943,"midi":78,"time":90.6856765,"velocity":0.23622047244094488},{"duration":0.08571425000000943,"midi":41,"time":90.6856765,"velocity":0.23622047244094488},{"duration":0.08571425000000943,"midi":90,"time":90.6856765,"velocity":0.23622047244094488},{"duration":0.08571424999999522,"midi":89,"time":90.857105,"velocity":0.23622047244094488},{"duration":0.08571424999999522,"midi":44,"time":90.857105,"velocity":0.23622047244094488},{"duration":0.08571425000000943,"midi":90,"time":90.94281925,"velocity":0.23622047244094488},{"duration":0.08571424999999522,"midi":89,"time":91.02853350000001,"velocity":0.23622047244094488},{"duration":0.08571424999999522,"midi":39,"time":91.02853350000001,"velocity":0.23622047244094488},{"duration":0.08571424999999522,"midi":78,"time":91.02853350000001,"velocity":0.23622047244094488},{"duration":0.08571424999999522,"midi":75,"time":91.02853350000001,"velocity":0.23622047244094488},{"duration":0.08571425000000943,"midi":92,"time":91.199962,"velocity":0.23622047244094488},{"duration":0.08571425000000943,"midi":73,"time":91.199962,"velocity":0.23622047244094488},{"duration":0.08571424999999522,"midi":90,"time":91.3713905,"velocity":0.23622047244094488},{"duration":0.08571424999999522,"midi":77,"time":91.3713905,"velocity":0.23622047244094488},{"duration":0.08571424999999522,"midi":80,"time":91.3713905,"velocity":0.23622047244094488},{"duration":0.08571424999999522,"midi":39,"time":91.3713905,"velocity":0.23622047244094488},{"duration":0.08571424999999522,"midi":89,"time":91.54281900000001,"velocity":0.23622047244094488},{"duration":0.08571424999999522,"midi":44,"time":91.54281900000001,"velocity":0.23622047244094488},{"duration":0.08571424999999522,"midi":90,"time":91.62853325,"velocity":0.23622047244094488},{"duration":0.08571425000000943,"midi":77,"time":91.7142475,"velocity":0.23622047244094488},{"duration":0.08571425000000943,"midi":41,"time":91.7142475,"velocity":0.23622047244094488},{"duration":0.08571425000000943,"midi":89,"time":91.7142475,"velocity":0.23622047244094488},{"duration":0.08571425000000943,"midi":80,"time":91.7142475,"velocity":0.23622047244094488},{"duration":0.08571424999999522,"midi":85,"time":91.79996175000001,"velocity":0.23622047244094488},{"duration":0.08571425000000943,"midi":57,"time":91.885676,"velocity":0.23622047244094488},{"duration":0.08571425000000943,"midi":39,"time":91.885676,"velocity":0.23622047244094488},{"duration":0.08571425000000943,"midi":75,"time":91.885676,"velocity":0.23622047244094488},{"duration":0.08571425000000943,"midi":87,"time":91.885676,"velocity":0.23622047244094488},{"duration":0.08571424999999522,"midi":78,"time":92.05710450000001,"velocity":0.23622047244094488},{"duration":0.08571424999999522,"midi":94,"time":92.05710450000001,"velocity":0.23622047244094488},{"duration":0.08571424999999522,"midi":82,"time":92.05710450000001,"velocity":0.23622047244094488},{"duration":0.08571424999999522,"midi":41,"time":92.05710450000001,"velocity":0.23622047244094488},{"duration":0.08571424999999522,"midi":75,"time":92.22853300000001,"velocity":0.23622047244094488},{"duration":0.08571424999999522,"midi":44,"time":92.22853300000001,"velocity":0.23622047244094488},{"duration":0.08571424999999522,"midi":92,"time":92.22853300000001,"velocity":0.23622047244094488},{"duration":0.08571424999999522,"midi":94,"time":92.31424725000001,"velocity":0.23622047244094488},{"duration":0.08571425000000943,"midi":80,"time":92.3999615,"velocity":0.23622047244094488},{"duration":0.08571425000000943,"midi":92,"time":92.3999615,"velocity":0.23622047244094488},{"duration":0.08571425000000943,"midi":39,"time":92.3999615,"velocity":0.23622047244094488},{"duration":0.08571425000000943,"midi":85,"time":92.3999615,"velocity":0.23622047244094488},{"duration":0.08571424999999522,"midi":94,"time":92.48567575000001,"velocity":0.23622047244094488},{"duration":0.08571424999999522,"midi":57,"time":92.57139000000001,"velocity":0.23622047244094488},{"duration":0.08571424999999522,"midi":75,"time":92.57139000000001,"velocity":0.23622047244094488},{"duration":0.08571424999999522,"midi":86,"time":92.57139000000001,"velocity":0.23622047244094488},{"duration":0.08571424999999522,"midi":44,"time":92.57139000000001,"velocity":0.23622047244094488},{"duration":0.08571424999999522,"midi":39,"time":92.74281850000001,"velocity":0.23622047244094488},{"duration":0.08571424999999522,"midi":94,"time":92.74281850000001,"velocity":0.23622047244094488},{"duration":0.08571424999999522,"midi":87,"time":92.74281850000001,"velocity":0.23622047244094488},{"duration":0.08571424999999522,"midi":82,"time":92.74281850000001,"velocity":0.23622047244094488},{"duration":0.08571425000000943,"midi":75,"time":92.914247,"velocity":0.23622047244094488},{"duration":0.08571425000000943,"midi":44,"time":92.914247,"velocity":0.23622047244094488},{"duration":0.08571425000000943,"midi":86,"time":92.914247,"velocity":0.23622047244094488},{"duration":0.08571424999999522,"midi":89,"time":93.08567550000001,"velocity":0.23622047244094488},{"duration":0.08571424999999522,"midi":89,"time":93.08567550000001,"velocity":0.23622047244094488},{"duration":0.08571424999999522,"midi":41,"time":93.08567550000001,"velocity":0.23622047244094488},{"duration":0.08571424999999522,"midi":84,"time":93.08567550000001,"velocity":0.23622047244094488},{"duration":0.08571424999999522,"midi":87,"time":93.25710400000001,"velocity":0.23622047244094488},{"duration":0.08571424999999522,"midi":87,"time":93.25710400000001,"velocity":0.23622047244094488},{"duration":0.08571424999999522,"midi":82,"time":93.25710400000001,"velocity":0.23622047244094488},{"duration":0.08571424999999522,"midi":57,"time":93.25710400000001,"velocity":0.23622047244094488},{"duration":0.08571424999999522,"midi":39,"time":93.25710400000001,"velocity":0.23622047244094488},{"duration":0.08571425000000943,"midi":41,"time":93.4285325,"velocity":0.23622047244094488},{"duration":0.08571424999999522,"midi":75,"time":93.59996100000001,"velocity":0.23622047244094488},{"duration":0.08571424999999522,"midi":44,"time":93.59996100000001,"velocity":0.23622047244094488},{"duration":0.08571424999999522,"midi":87,"time":93.77138950000001,"velocity":0.23622047244094488},{"duration":0.08571424999999522,"midi":39,"time":93.77138950000001,"velocity":0.23622047244094488},{"duration":0.08571424999999522,"midi":82,"time":93.77138950000001,"velocity":0.23622047244094488},{"duration":0.08571424999999522,"midi":87,"time":93.77138950000001,"velocity":0.23622047244094488},{"duration":0.08571425000000943,"midi":87,"time":93.942818,"velocity":0.23622047244094488},{"duration":0.08571425000000943,"midi":82,"time":93.942818,"velocity":0.23622047244094488},{"duration":0.08571425000000943,"midi":87,"time":93.942818,"velocity":0.23622047244094488},{"duration":0.08571424999999522,"midi":85,"time":94.11424650000001,"velocity":0.23622047244094488},{"duration":0.08571424999999522,"midi":39,"time":94.11424650000001,"velocity":0.23622047244094488},{"duration":0.08571424999999522,"midi":85,"time":94.11424650000001,"velocity":0.23622047244094488},{"duration":0.08571424999999522,"midi":80,"time":94.11424650000001,"velocity":0.23622047244094488},{"duration":0.08571424999999522,"midi":44,"time":94.28567500000001,"velocity":0.23622047244094488},{"duration":0.08571425000000943,"midi":87,"time":94.4571035,"velocity":0.23622047244094488},{"duration":0.08571425000000943,"midi":82,"time":94.4571035,"velocity":0.23622047244094488},{"duration":0.08571425000000943,"midi":87,"time":94.4571035,"velocity":0.23622047244094488},{"duration":0.08571425000000943,"midi":41,"time":94.4571035,"velocity":0.23622047244094488},{"duration":0.08571424999999522,"midi":39,"time":94.628532,"velocity":0.23622047244094488},{"duration":0.08571424999999522,"midi":82,"time":94.79996050000001,"velocity":0.23622047244094488},{"duration":0.08571424999999522,"midi":41,"time":94.79996050000001,"velocity":0.23622047244094488},{"duration":0.08571424999999522,"midi":87,"time":94.79996050000001,"velocity":0.23622047244094488},{"duration":0.08571424999999522,"midi":87,"time":94.79996050000001,"velocity":0.23622047244094488},{"duration":0.08571425000000943,"midi":44,"time":94.971389,"velocity":0.23622047244094488},{"duration":0.08571425000000943,"midi":85,"time":94.971389,"velocity":0.23622047244094488},{"duration":0.08571425000000943,"midi":75,"time":94.971389,"velocity":0.23622047244094488},{"duration":0.08571424999999522,"midi":82,"time":95.1428175,"velocity":0.23622047244094488},{"duration":0.08571424999999522,"midi":87,"time":95.1428175,"velocity":0.23622047244094488},{"duration":0.08571424999999522,"midi":87,"time":95.1428175,"velocity":0.23622047244094488},{"duration":0.08571424999999522,"midi":39,"time":95.1428175,"velocity":0.23622047244094488},{"duration":0.08571424999999522,"midi":82,"time":95.31424600000001,"velocity":0.23622047244094488},{"duration":0.08571424999999522,"midi":87,"time":95.31424600000001,"velocity":0.23622047244094488},{"duration":0.08571424999999522,"midi":87,"time":95.31424600000001,"velocity":0.23622047244094488},{"duration":0.08571424999999522,"midi":85,"time":95.39996025,"velocity":0.23622047244094488},{"duration":0.08571424999999522,"midi":85,"time":95.39996025,"velocity":0.23622047244094488},{"duration":0.08571424999999522,"midi":80,"time":95.39996025,"velocity":0.23622047244094488},{"duration":0.08571425000000943,"midi":78,"time":95.4856745,"velocity":0.23622047244094488},{"duration":0.08571425000000943,"midi":39,"time":95.4856745,"velocity":0.23622047244094488},{"duration":0.08571425000000943,"midi":82,"time":95.4856745,"velocity":0.23622047244094488},{"duration":0.08571425000000943,"midi":94,"time":95.4856745,"velocity":0.23622047244094488},{"duration":0.08571424999999522,"midi":44,"time":95.657103,"velocity":0.23622047244094488},{"duration":0.08571424999999522,"midi":78,"time":95.657103,"velocity":0.23622047244094488},{"duration":0.08571424999999522,"midi":90,"time":95.657103,"velocity":0.23622047244094488},{"duration":0.08571424999999522,"midi":73,"time":95.657103,"velocity":0.23622047244094488},{"duration":0.08571424999999522,"midi":79,"time":95.82853150000001,"velocity":0.23622047244094488},{"duration":0.08571424999999522,"midi":74,"time":95.82853150000001,"velocity":0.23622047244094488},{"duration":0.08571424999999522,"midi":41,"time":95.82853150000001,"velocity":0.23622047244094488},{"duration":0.08571424999999522,"midi":91,"time":95.82853150000001,"velocity":0.23622047244094488},{"duration":0.08571425000000943,"midi":57,"time":95.99996,"velocity":0.23622047244094488},{"duration":0.08571425000000943,"midi":39,"time":95.99996,"velocity":0.23622047244094488},{"duration":0.08571425000000943,"midi":80,"time":95.99996,"velocity":0.23622047244094488},{"duration":0.08571425000000943,"midi":92,"time":95.99996,"velocity":0.23622047244094488},{"duration":0.08571424999999522,"midi":87,"time":96.1713885,"velocity":0.23622047244094488},{"duration":0.08571424999999522,"midi":75,"time":96.1713885,"velocity":0.23622047244094488},{"duration":0.08571424999999522,"midi":41,"time":96.1713885,"velocity":0.23622047244094488},{"duration":0.08571425000000943,"midi":80,"time":96.25710275,"velocity":0.23622047244094488},{"duration":0.08571425000000943,"midi":92,"time":96.25710275,"velocity":0.23622047244094488},{"duration":0.08571424999999522,"midi":44,"time":96.34281700000001,"velocity":0.23622047244094488},{"duration":0.08571424999999522,"midi":87,"time":96.42853125,"velocity":0.23622047244094488},{"duration":0.08571424999999522,"midi":75,"time":96.42853125,"velocity":0.23622047244094488},{"duration":0.08571425000000943,"midi":80,"time":96.5142455,"velocity":0.23622047244094488},{"duration":0.08571425000000943,"midi":39,"time":96.5142455,"velocity":0.23622047244094488},{"duration":0.08571425000000943,"midi":92,"time":96.5142455,"velocity":0.23622047244094488},{"duration":0.08571424999999522,"midi":77,"time":96.685674,"velocity":0.23622047244094488},{"duration":0.08571424999999522,"midi":82,"time":96.685674,"velocity":0.23622047244094488},{"duration":0.08571424999999522,"midi":57,"time":96.685674,"velocity":0.23622047244094488},{"duration":0.08571424999999522,"midi":94,"time":96.685674,"velocity":0.23622047244094488},{"duration":0.08571424999999522,"midi":39,"time":96.85710250000001,"velocity":0.23622047244094488},{"duration":0.08571424999999522,"midi":85,"time":96.85710250000001,"velocity":0.23622047244094488},{"duration":0.08571424999999522,"midi":90,"time":96.85710250000001,"velocity":0.23622047244094488},{"duration":0.08571424999999522,"midi":90,"time":96.85710250000001,"velocity":0.23622047244094488},{"duration":0.08571425000000943,"midi":44,"time":97.028531,"velocity":0.23622047244094488},{"duration":0.08571425000000943,"midi":83,"time":97.028531,"velocity":0.23622047244094488},{"duration":0.08571425000000943,"midi":89,"time":97.028531,"velocity":0.23622047244094488},{"duration":0.08571425000000943,"midi":89,"time":97.028531,"velocity":0.23622047244094488},{"duration":0.08571424999999522,"midi":85,"time":97.1999595,"velocity":0.23622047244094488},{"duration":0.08571424999999522,"midi":80,"time":97.1999595,"velocity":0.23622047244094488},{"duration":0.08571424999999522,"midi":41,"time":97.1999595,"velocity":0.23622047244094488},{"duration":0.08571424999999522,"midi":85,"time":97.1999595,"velocity":0.23622047244094488},{"duration":0.08571424999999522,"midi":87,"time":97.37138800000001,"velocity":0.23622047244094488},{"duration":0.08571424999999522,"midi":87,"time":97.37138800000001,"velocity":0.23622047244094488},{"duration":0.08571424999999522,"midi":57,"time":97.37138800000001,"velocity":0.23622047244094488},{"duration":0.08571424999999522,"midi":39,"time":97.37138800000001,"velocity":0.23622047244094488},{"duration":0.08571424999999522,"midi":82,"time":97.37138800000001,"velocity":0.23622047244094488},{"duration":0.08571424999999522,"midi":75,"time":97.37138800000001,"velocity":0.23622047244094488},{"duration":0.08571425000000943,"midi":41,"time":97.5428165,"velocity":0.23622047244094488},{"duration":0.08571424999999522,"midi":82,"time":97.62853075000001,"velocity":0.23622047244094488},{"duration":0.08571424999999522,"midi":75,"time":97.62853075000001,"velocity":0.23622047244094488},{"duration":0.08571424999999522,"midi":87,"time":97.62853075000001,"velocity":0.23622047244094488},{"duration":0.08571424999999522,"midi":44,"time":97.714245,"velocity":0.23622047244094488},{"duration":0.08571424999999522,"midi":57,"time":97.714245,"velocity":0.23622047244094488},{"duration":0.08571424999999522,"midi":87,"time":97.88567350000001,"velocity":0.23622047244094488},{"duration":0.08571424999999522,"midi":39,"time":97.88567350000001,"velocity":0.23622047244094488},{"duration":0.08571424999999522,"midi":75,"time":97.88567350000001,"velocity":0.23622047244094488},{"duration":0.08571424999999522,"midi":82,"time":97.88567350000001,"velocity":0.23622047244094488},{"duration":0.08571425000000943,"midi":82,"time":98.057102,"velocity":0.23622047244094488},{"duration":0.08571425000000943,"midi":75,"time":98.057102,"velocity":0.23622047244094488},{"duration":0.08571425000000943,"midi":57,"time":98.057102,"velocity":0.23622047244094488},{"duration":0.08571425000000943,"midi":44,"time":98.057102,"velocity":0.23622047244094488},{"duration":0.08571425000000943,"midi":87,"time":98.057102,"velocity":0.23622047244094488}]},{"instrument":{"family":"world","number":107,"name":"koto"},"notes":[{"duration":0.08571425,"midi":62,"time":0,"velocity":0.3937007874015748},{"duration":0.08571425,"midi":50,"time":0,"velocity":0.3937007874015748},{"duration":0.08571425000000002,"midi":57,"time":0.1714285,"velocity":0.3937007874015748},{"duration":0.08571425000000002,"midi":69,"time":0.1714285,"velocity":0.3937007874015748},{"duration":0.08571424999999999,"midi":67,"time":0.342857,"velocity":0.3937007874015748},{"duration":0.08571424999999999,"midi":55,"time":0.342857,"velocity":0.3937007874015748},{"duration":0.08571425000000005,"midi":57,"time":0.42857125,"velocity":0.3937007874015748},{"duration":0.08571425000000005,"midi":69,"time":0.42857125,"velocity":0.3937007874015748},{"duration":0.08571424999999999,"midi":64,"time":0.59999975,"velocity":0.3937007874015748},{"duration":0.08571424999999999,"midi":52,"time":0.59999975,"velocity":0.3937007874015748},{"duration":0.08571424999999999,"midi":65,"time":0.77142825,"velocity":0.3937007874015748},{"duration":0.08571424999999999,"midi":53,"time":0.77142825,"velocity":0.3937007874015748},{"duration":0.0857142500000001,"midi":69,"time":0.94285675,"velocity":0.3937007874015748},{"duration":0.0857142500000001,"midi":57,"time":0.94285675,"velocity":0.3937007874015748},{"duration":0.08571424999999988,"midi":67,"time":1.0285710000000001,"velocity":0.3937007874015748},{"duration":0.08571424999999988,"midi":55,"time":1.0285710000000001,"velocity":0.3937007874015748},{"duration":0.0857142500000001,"midi":53,"time":1.11428525,"velocity":0.3937007874015748},{"duration":0.0857142500000001,"midi":65,"time":1.11428525,"velocity":0.3937007874015748},{"duration":0.08571424999999988,"midi":52,"time":1.1999995,"velocity":0.3937007874015748},{"duration":0.08571424999999988,"midi":64,"time":1.1999995,"velocity":0.3937007874015748},{"duration":0.0857142500000001,"midi":62,"time":1.28571375,"velocity":0.3937007874015748},{"duration":0.0857142500000001,"midi":50,"time":1.28571375,"velocity":0.3937007874015748},{"duration":0.08571424999999988,"midi":50,"time":1.4571422500000002,"velocity":0.3937007874015748},{"duration":0.08571424999999988,"midi":62,"time":1.4571422500000002,"velocity":0.3937007874015748},{"duration":0.0857142500000001,"midi":57,"time":1.5428565,"velocity":0.3937007874015748},{"duration":0.0857142500000001,"midi":69,"time":1.5428565,"velocity":0.3937007874015748},{"duration":0.0857142500000001,"midi":55,"time":1.714285,"velocity":0.3937007874015748},{"duration":0.0857142500000001,"midi":67,"time":1.714285,"velocity":0.3937007874015748},{"duration":0.08571424999999988,"midi":57,"time":1.7999992500000002,"velocity":0.3937007874015748},{"duration":0.08571424999999988,"midi":69,"time":1.7999992500000002,"velocity":0.3937007874015748},{"duration":0.0857142500000001,"midi":52,"time":1.9714277500000001,"velocity":0.3937007874015748},{"duration":0.0857142500000001,"midi":64,"time":1.9714277500000001,"velocity":0.3937007874015748},{"duration":0.08571424999999966,"midi":53,"time":2.1428562500000004,"velocity":0.3937007874015748},{"duration":0.08571424999999966,"midi":65,"time":2.1428562500000004,"velocity":0.3937007874015748},{"duration":0.0857142500000001,"midi":69,"time":2.31428475,"velocity":0.3937007874015748},{"duration":0.0857142500000001,"midi":57,"time":2.31428475,"velocity":0.3937007874015748},{"duration":0.0857142500000001,"midi":48,"time":2.399999,"velocity":0.3937007874015748},{"duration":0.0857142500000001,"midi":60,"time":2.399999,"velocity":0.3937007874015748},{"duration":0.0857142500000001,"midi":61,"time":2.5714275,"velocity":0.3937007874015748},{"duration":0.0857142500000001,"midi":49,"time":2.5714275,"velocity":0.3937007874015748},{"duration":0.0857142500000001,"midi":62,"time":2.742856,"velocity":0.3937007874015748},{"duration":0.0857142500000001,"midi":50,"time":2.742856,"velocity":0.3937007874015748},{"duration":0.08571424999999966,"midi":69,"time":2.9142845000000004,"velocity":0.3937007874015748},{"duration":0.08571424999999966,"midi":57,"time":2.9142845000000004,"velocity":0.3937007874015748},{"duration":0.0857142500000001,"midi":55,"time":3.085713,"velocity":0.3937007874015748},{"duration":0.0857142500000001,"midi":67,"time":3.085713,"velocity":0.3937007874015748},{"duration":0.0857142500000001,"midi":57,"time":3.1714272500000003,"velocity":0.3937007874015748},{"duration":0.0857142500000001,"midi":69,"time":3.1714272500000003,"velocity":0.3937007874015748},{"duration":0.0857142500000001,"midi":64,"time":3.34285575,"velocity":0.3937007874015748},{"duration":0.0857142500000001,"midi":52,"time":3.34285575,"velocity":0.3937007874015748},{"duration":0.0857142500000001,"midi":53,"time":3.51428425,"velocity":0.3937007874015748},{"duration":0.0857142500000001,"midi":65,"time":3.51428425,"velocity":0.3937007874015748},{"duration":0.08571424999999966,"midi":69,"time":3.6857127500000004,"velocity":0.3937007874015748},{"duration":0.08571424999999966,"midi":57,"time":3.6857127500000004,"velocity":0.3937007874015748},{"duration":0.0857142500000001,"midi":67,"time":3.771427,"velocity":0.3937007874015748},{"duration":0.0857142500000001,"midi":55,"time":3.771427,"velocity":0.3937007874015748},{"duration":0.0857142500000001,"midi":53,"time":3.85714125,"velocity":0.3937007874015748},{"duration":0.0857142500000001,"midi":65,"time":3.85714125,"velocity":0.3937007874015748},{"duration":0.08571424999999966,"midi":64,"time":3.9428555000000003,"velocity":0.3937007874015748},{"duration":0.08571424999999966,"midi":52,"time":3.9428555000000003,"velocity":0.3937007874015748},{"duration":0.08571425000000055,"midi":50,"time":4.02856975,"velocity":0.3937007874015748},{"duration":0.08571425000000055,"midi":62,"time":4.02856975,"velocity":0.3937007874015748},{"duration":0.08571425000000055,"midi":62,"time":4.19999825,"velocity":0.3937007874015748},{"duration":0.08571425000000055,"midi":50,"time":4.19999825,"velocity":0.3937007874015748},{"duration":0.08571424999999966,"midi":57,"time":4.285712500000001,"velocity":0.3937007874015748},{"duration":0.08571424999999966,"midi":69,"time":4.285712500000001,"velocity":0.3937007874015748},{"duration":0.08571425000000055,"midi":55,"time":4.457141,"velocity":0.3937007874015748},{"duration":0.08571425000000055,"midi":67,"time":4.457141,"velocity":0.3937007874015748},{"duration":0.08571424999999966,"midi":69,"time":4.542855250000001,"velocity":0.3937007874015748},{"duration":0.08571424999999966,"midi":57,"time":4.542855250000001,"velocity":0.3937007874015748},{"duration":0.08571425000000055,"midi":52,"time":4.71428375,"velocity":0.3937007874015748},{"duration":0.08571425000000055,"midi":64,"time":4.71428375,"velocity":0.3937007874015748},{"duration":0.08571425000000055,"midi":65,"time":4.88571225,"velocity":0.3937007874015748},{"duration":0.08571425000000055,"midi":53,"time":4.88571225,"velocity":0.3937007874015748},{"duration":0.08571424999999966,"midi":57,"time":5.05714075,"velocity":0.3937007874015748},{"duration":0.08571424999999966,"midi":69,"time":5.05714075,"velocity":0.3937007874015748},{"duration":0.08571425000000055,"midi":60,"time":5.142855,"velocity":0.3937007874015748},{"duration":0.08571425000000055,"midi":48,"time":5.142855,"velocity":0.3937007874015748},{"duration":0.08571425000000055,"midi":61,"time":5.3142835,"velocity":0.3937007874015748},{"duration":0.08571425000000055,"midi":49,"time":5.3142835,"velocity":0.3937007874015748},{"duration":0.08571424999999966,"midi":62,"time":5.485712,"velocity":0.3937007874015748},{"duration":0.08571424999999966,"midi":50,"time":5.485712,"velocity":0.3937007874015748},{"duration":0.08571424999999966,"midi":69,"time":5.657140500000001,"velocity":0.3937007874015748},{"duration":0.08571424999999966,"midi":57,"time":5.657140500000001,"velocity":0.3937007874015748},{"duration":0.08571424999999966,"midi":67,"time":5.828569000000001,"velocity":0.3937007874015748},{"duration":0.08571424999999966,"midi":55,"time":5.828569000000001,"velocity":0.3937007874015748},{"duration":0.08571424999999966,"midi":57,"time":5.91428325,"velocity":0.3937007874015748},{"duration":0.08571424999999966,"midi":69,"time":5.91428325,"velocity":0.3937007874015748},{"duration":0.08571424999999966,"midi":52,"time":6.085711750000001,"velocity":0.3937007874015748},{"duration":0.08571424999999966,"midi":64,"time":6.085711750000001,"velocity":0.3937007874015748},{"duration":0.08571424999999966,"midi":65,"time":6.257140250000001,"velocity":0.3937007874015748},{"duration":0.08571424999999966,"midi":53,"time":6.257140250000001,"velocity":0.3937007874015748},{"duration":0.08571425000000055,"midi":69,"time":6.42856875,"velocity":0.3937007874015748},{"duration":0.08571425000000055,"midi":57,"time":6.42856875,"velocity":0.3937007874015748},{"duration":0.08571424999999966,"midi":55,"time":6.514283000000001,"velocity":0.3937007874015748},{"duration":0.08571424999999966,"midi":67,"time":6.514283000000001,"velocity":0.3937007874015748},{"duration":0.08571424999999966,"midi":53,"time":6.59999725,"velocity":0.3937007874015748},{"duration":0.08571424999999966,"midi":65,"time":6.59999725,"velocity":0.3937007874015748},{"duration":0.08571425000000055,"midi":64,"time":6.6857115,"velocity":0.3937007874015748},{"duration":0.08571425000000055,"midi":52,"time":6.6857115,"velocity":0.3937007874015748},{"duration":0.08571424999999966,"midi":50,"time":6.771425750000001,"velocity":0.3937007874015748},{"duration":0.08571424999999966,"midi":62,"time":6.771425750000001,"velocity":0.3937007874015748},{"duration":0.08571424999999966,"midi":62,"time":6.942854250000001,"velocity":0.3937007874015748},{"duration":0.08571424999999966,"midi":50,"time":6.942854250000001,"velocity":0.3937007874015748},{"duration":0.08571424999999966,"midi":57,"time":7.0285685,"velocity":0.3937007874015748},{"duration":0.08571424999999966,"midi":69,"time":7.0285685,"velocity":0.3937007874015748},{"duration":0.08571424999999966,"midi":55,"time":7.199997000000001,"velocity":0.3937007874015748},{"duration":0.08571424999999966,"midi":67,"time":7.199997000000001,"velocity":0.3937007874015748},{"duration":0.08571425000000055,"midi":69,"time":7.28571125,"velocity":0.3937007874015748},{"duration":0.08571425000000055,"midi":57,"time":7.28571125,"velocity":0.3937007874015748},{"duration":0.08571424999999966,"midi":64,"time":7.4571397500000005,"velocity":0.3937007874015748},{"duration":0.08571424999999966,"midi":52,"time":7.4571397500000005,"velocity":0.3937007874015748},{"duration":0.08571424999999966,"midi":65,"time":7.628568250000001,"velocity":0.3937007874015748},{"duration":0.08571424999999966,"midi":53,"time":7.628568250000001,"velocity":0.3937007874015748},{"duration":0.08571424999999966,"midi":57,"time":7.799996750000001,"velocity":0.3937007874015748},{"duration":0.08571424999999966,"midi":69,"time":7.799996750000001,"velocity":0.3937007874015748},{"duration":0.08571424999999966,"midi":48,"time":7.885711000000001,"velocity":0.3937007874015748},{"duration":0.08571424999999966,"midi":60,"time":7.885711000000001,"velocity":0.3937007874015748},{"duration":0.08571425000000055,"midi":61,"time":8.0571395,"velocity":0.3937007874015748},{"duration":0.08571425000000055,"midi":49,"time":8.0571395,"velocity":0.3937007874015748},{"duration":0.08571424999999877,"midi":62,"time":8.228568000000001,"velocity":0.3937007874015748},{"duration":0.08571424999999877,"midi":50,"time":8.228568000000001,"velocity":0.3937007874015748},{"duration":0.08571425000000055,"midi":57,"time":8.3999965,"velocity":0.3937007874015748},{"duration":0.08571425000000055,"midi":69,"time":8.3999965,"velocity":0.3937007874015748},{"duration":0.08571424999999877,"midi":67,"time":8.571425000000001,"velocity":0.3937007874015748},{"duration":0.08571424999999877,"midi":55,"time":8.571425000000001,"velocity":0.3937007874015748},{"duration":0.08571425000000055,"midi":57,"time":8.65713925,"velocity":0.3937007874015748},{"duration":0.08571425000000055,"midi":69,"time":8.65713925,"velocity":0.3937007874015748},{"duration":0.08571424999999877,"midi":52,"time":8.828567750000001,"velocity":0.3937007874015748},{"duration":0.08571424999999877,"midi":64,"time":8.828567750000001,"velocity":0.3937007874015748},{"duration":0.08571425000000055,"midi":53,"time":8.99999625,"velocity":0.3937007874015748},{"duration":0.08571425000000055,"midi":65,"time":8.99999625,"velocity":0.3937007874015748},{"duration":0.08571425000000055,"midi":69,"time":9.17142475,"velocity":0.3937007874015748},{"duration":0.08571425000000055,"midi":57,"time":9.17142475,"velocity":0.3937007874015748},{"duration":0.08571425000000055,"midi":67,"time":9.257139,"velocity":0.3937007874015748},{"duration":0.08571425000000055,"midi":55,"time":9.257139,"velocity":0.3937007874015748},{"duration":0.08571424999999877,"midi":53,"time":9.342853250000001,"velocity":0.3937007874015748},{"duration":0.08571424999999877,"midi":65,"time":9.342853250000001,"velocity":0.3937007874015748},{"duration":0.08571425000000055,"midi":52,"time":9.4285675,"velocity":0.3937007874015748},{"duration":0.08571425000000055,"midi":64,"time":9.4285675,"velocity":0.3937007874015748},{"duration":0.08571425000000055,"midi":50,"time":9.51428175,"velocity":0.3937007874015748},{"duration":0.08571425000000055,"midi":62,"time":9.51428175,"velocity":0.3937007874015748},{"duration":0.08571424999999877,"midi":50,"time":9.685710250000001,"velocity":0.3937007874015748},{"duration":0.08571424999999877,"midi":62,"time":9.685710250000001,"velocity":0.3937007874015748},{"duration":0.08571425000000055,"midi":57,"time":9.7714245,"velocity":0.3937007874015748},{"duration":0.08571425000000055,"midi":69,"time":9.7714245,"velocity":0.3937007874015748},{"duration":0.08571424999999877,"midi":55,"time":9.942853000000001,"velocity":0.3937007874015748},{"duration":0.08571424999999877,"midi":67,"time":9.942853000000001,"velocity":0.3937007874015748},{"duration":0.08571425000000055,"midi":69,"time":10.02856725,"velocity":0.3937007874015748},{"duration":0.08571425000000055,"midi":57,"time":10.02856725,"velocity":0.3937007874015748},{"duration":0.08571424999999877,"midi":72,"time":10.199995750000001,"velocity":0.3937007874015748},{"duration":0.08571424999999877,"midi":60,"time":10.199995750000001,"velocity":0.3937007874015748},{"duration":0.08571425000000055,"midi":72,"time":10.37142425,"velocity":0.3937007874015748},{"duration":0.08571425000000055,"midi":60,"time":10.37142425,"velocity":0.3937007874015748},{"duration":0.08571425000000055,"midi":57,"time":10.457138500000001,"velocity":0.3937007874015748},{"duration":0.08571425000000055,"midi":69,"time":10.457138500000001,"velocity":0.3937007874015748},{"duration":0.08571425000000055,"midi":64,"time":10.628567,"velocity":0.3937007874015748},{"duration":0.08571425000000055,"midi":76,"time":10.628567,"velocity":0.3937007874015748},{"duration":0.08571424999999877,"midi":60,"time":10.799995500000001,"velocity":0.3937007874015748},{"duration":0.08571424999999877,"midi":72,"time":10.799995500000001,"velocity":0.3937007874015748},{"duration":0.08571425000000055,"midi":73,"time":10.88570975,"velocity":0.3937007874015748},{"duration":0.08571425000000055,"midi":61,"time":10.88570975,"velocity":0.3937007874015748},{"duration":0.08571425000000055,"midi":74,"time":10.971424,"velocity":0.3937007874015748},{"duration":0.08571425000000055,"midi":62,"time":10.971424,"velocity":0.3937007874015748},{"duration":0.08571425000000055,"midi":69,"time":11.1428525,"velocity":0.3937007874015748},{"duration":0.08571425000000055,"midi":81,"time":11.1428525,"velocity":0.3937007874015748},{"duration":0.08571424999999877,"midi":67,"time":11.314281000000001,"velocity":0.3937007874015748},{"duration":0.08571424999999877,"midi":79,"time":11.314281000000001,"velocity":0.3937007874015748},{"duration":0.08571425000000055,"midi":69,"time":11.39999525,"velocity":0.3937007874015748},{"duration":0.08571425000000055,"midi":81,"time":11.39999525,"velocity":0.3937007874015748},{"duration":0.08571425000000055,"midi":76,"time":11.571423750000001,"velocity":0.3937007874015748},{"duration":0.08571425000000055,"midi":64,"time":11.571423750000001,"velocity":0.3937007874015748},{"duration":0.08571425000000055,"midi":77,"time":11.74285225,"velocity":0.3937007874015748},{"duration":0.08571425000000055,"midi":65,"time":11.74285225,"velocity":0.3937007874015748},{"duration":0.08571424999999877,"midi":69,"time":11.914280750000001,"velocity":0.3937007874015748},{"duration":0.08571424999999877,"midi":81,"time":11.914280750000001,"velocity":0.3937007874015748},{"duration":0.08571425000000055,"midi":79,"time":11.999995,"velocity":0.3937007874015748},{"duration":0.08571425000000055,"midi":67,"time":11.999995,"velocity":0.3937007874015748},{"duration":0.08571425000000055,"midi":77,"time":12.08570925,"velocity":0.3937007874015748},{"duration":0.08571425000000055,"midi":65,"time":12.08570925,"velocity":0.3937007874015748},{"duration":0.08571424999999877,"midi":64,"time":12.171423500000001,"velocity":0.3937007874015748},{"duration":0.08571424999999877,"midi":76,"time":12.171423500000001,"velocity":0.3937007874015748},{"duration":0.08571425000000055,"midi":74,"time":12.25713775,"velocity":0.3937007874015748},{"duration":0.08571425000000055,"midi":62,"time":12.25713775,"velocity":0.3937007874015748},{"duration":0.08571425000000055,"midi":62,"time":12.428566250000001,"velocity":0.3937007874015748},{"duration":0.08571425000000055,"midi":74,"time":12.428566250000001,"velocity":0.3937007874015748},{"duration":0.08571424999999877,"midi":81,"time":12.514280500000002,"velocity":0.3937007874015748},{"duration":0.08571424999999877,"midi":69,"time":12.514280500000002,"velocity":0.3937007874015748},{"duration":0.08571425000000055,"midi":67,"time":12.685709000000001,"velocity":0.3937007874015748},{"duration":0.08571425000000055,"midi":79,"time":12.685709000000001,"velocity":0.3937007874015748},{"duration":0.08571424999999877,"midi":81,"time":12.771423250000002,"velocity":0.3937007874015748},{"duration":0.08571424999999877,"midi":69,"time":12.771423250000002,"velocity":0.3937007874015748},{"duration":0.08571425000000055,"midi":64,"time":12.94285175,"velocity":0.3937007874015748},{"duration":0.08571425000000055,"midi":76,"time":12.94285175,"velocity":0.3937007874015748},{"duration":0.08571425000000055,"midi":77,"time":13.11428025,"velocity":0.3937007874015748},{"duration":0.08571425000000055,"midi":65,"time":13.11428025,"velocity":0.3937007874015748},{"duration":0.08571424999999877,"midi":81,"time":13.285708750000001,"velocity":0.3937007874015748},{"duration":0.08571424999999877,"midi":69,"time":13.285708750000001,"velocity":0.3937007874015748},{"duration":0.08571425000000055,"midi":60,"time":13.371423,"velocity":0.3937007874015748},{"duration":0.08571425000000055,"midi":72,"time":13.371423,"velocity":0.3937007874015748},{"duration":0.08571425000000055,"midi":73,"time":13.542851500000001,"velocity":0.3937007874015748},{"duration":0.08571425000000055,"midi":61,"time":13.542851500000001,"velocity":0.3937007874015748},{"duration":0.08571425000000055,"midi":74,"time":13.71428,"velocity":0.3937007874015748},{"duration":0.08571425000000055,"midi":62,"time":13.71428,"velocity":0.3937007874015748},{"duration":0.08571424999999877,"midi":69,"time":13.885708500000002,"velocity":0.3937007874015748},{"duration":0.08571424999999877,"midi":81,"time":13.885708500000002,"velocity":0.3937007874015748},{"duration":0.08571425000000055,"midi":79,"time":14.057137,"velocity":0.3937007874015748},{"duration":0.08571425000000055,"midi":67,"time":14.057137,"velocity":0.3937007874015748},{"duration":0.08571424999999877,"midi":69,"time":14.142851250000001,"velocity":0.3937007874015748},{"duration":0.08571424999999877,"midi":81,"time":14.142851250000001,"velocity":0.3937007874015748},{"duration":0.08571425000000055,"midi":64,"time":14.31427975,"velocity":0.3937007874015748},{"duration":0.08571425000000055,"midi":76,"time":14.31427975,"velocity":0.3937007874015748},{"duration":0.08571424999999877,"midi":65,"time":14.485708250000002,"velocity":0.3937007874015748},{"duration":0.08571424999999877,"midi":77,"time":14.485708250000002,"velocity":0.3937007874015748},{"duration":0.08571425000000055,"midi":81,"time":14.657136750000001,"velocity":0.3937007874015748},{"duration":0.08571425000000055,"midi":69,"time":14.657136750000001,"velocity":0.3937007874015748},{"duration":0.08571424999999877,"midi":79,"time":14.742851000000002,"velocity":0.3937007874015748},{"duration":0.08571424999999877,"midi":67,"time":14.742851000000002,"velocity":0.3937007874015748},{"duration":0.08571425000000055,"midi":77,"time":14.82856525,"velocity":0.3937007874015748},{"duration":0.08571425000000055,"midi":65,"time":14.82856525,"velocity":0.3937007874015748},{"duration":0.08571425000000055,"midi":64,"time":14.914279500000001,"velocity":0.3937007874015748},{"duration":0.08571425000000055,"midi":76,"time":14.914279500000001,"velocity":0.3937007874015748},{"duration":0.08571424999999877,"midi":62,"time":14.999993750000002,"velocity":0.3937007874015748},{"duration":0.08571424999999877,"midi":74,"time":14.999993750000002,"velocity":0.3937007874015748},{"duration":0.08571425000000055,"midi":62,"time":15.17142225,"velocity":0.3937007874015748},{"duration":0.08571425000000055,"midi":74,"time":15.17142225,"velocity":0.3937007874015748},{"duration":0.08571424999999877,"midi":69,"time":15.257136500000001,"velocity":0.3937007874015748},{"duration":0.08571424999999877,"midi":81,"time":15.257136500000001,"velocity":0.3937007874015748},{"duration":0.08571425000000055,"midi":79,"time":15.428565,"velocity":0.3937007874015748},{"duration":0.08571425000000055,"midi":67,"time":15.428565,"velocity":0.3937007874015748},{"duration":0.08571425000000055,"midi":69,"time":15.514279250000001,"velocity":0.3937007874015748},{"duration":0.08571425000000055,"midi":81,"time":15.514279250000001,"velocity":0.3937007874015748},{"duration":0.08571425000000055,"midi":64,"time":15.68570775,"velocity":0.3937007874015748},{"duration":0.08571425000000055,"midi":76,"time":15.68570775,"velocity":0.3937007874015748},{"duration":0.08571424999999877,"midi":65,"time":15.857136250000002,"velocity":0.3937007874015748},{"duration":0.08571424999999877,"midi":77,"time":15.857136250000002,"velocity":0.3937007874015748},{"duration":0.08571424999999877,"midi":69,"time":16.02856475,"velocity":0.3937007874015748},{"duration":0.08571424999999877,"midi":81,"time":16.02856475,"velocity":0.3937007874015748},{"duration":0.08571425000000232,"midi":60,"time":16.114279,"velocity":0.3937007874015748},{"duration":0.08571425000000232,"midi":72,"time":16.114279,"velocity":0.3937007874015748},{"duration":0.08571424999999877,"midi":73,"time":16.2857075,"velocity":0.3937007874015748},{"duration":0.08571424999999877,"midi":61,"time":16.2857075,"velocity":0.3937007874015748},{"duration":0.08571424999999877,"midi":62,"time":16.457136000000002,"velocity":0.3937007874015748},{"duration":0.08571424999999877,"midi":74,"time":16.457136000000002,"velocity":0.3937007874015748},{"duration":0.08571425000000232,"midi":69,"time":16.6285645,"velocity":0.3937007874015748},{"duration":0.08571425000000232,"midi":81,"time":16.6285645,"velocity":0.3937007874015748},{"duration":0.08571424999999877,"midi":67,"time":16.799993,"velocity":0.3937007874015748},{"duration":0.08571424999999877,"midi":79,"time":16.799993,"velocity":0.3937007874015748},{"duration":0.08571425000000232,"midi":69,"time":16.88570725,"velocity":0.3937007874015748},{"duration":0.08571425000000232,"midi":81,"time":16.88570725,"velocity":0.3937007874015748},{"duration":0.08571425000000232,"midi":76,"time":17.05713575,"velocity":0.3937007874015748},{"duration":0.08571425000000232,"midi":64,"time":17.05713575,"velocity":0.3937007874015748},{"duration":0.08571424999999877,"midi":65,"time":17.22856425,"velocity":0.3937007874015748},{"duration":0.08571424999999877,"midi":77,"time":17.22856425,"velocity":0.3937007874015748},{"duration":0.08571424999999877,"midi":81,"time":17.399992750000003,"velocity":0.3937007874015748},{"duration":0.08571424999999877,"midi":69,"time":17.399992750000003,"velocity":0.3937007874015748},{"duration":0.08571424999999877,"midi":79,"time":17.485707,"velocity":0.3937007874015748},{"duration":0.08571424999999877,"midi":67,"time":17.485707,"velocity":0.3937007874015748},{"duration":0.08571425000000232,"midi":77,"time":17.57142125,"velocity":0.3937007874015748},{"duration":0.08571425000000232,"midi":65,"time":17.57142125,"velocity":0.3937007874015748},{"duration":0.08571424999999877,"midi":76,"time":17.657135500000003,"velocity":0.3937007874015748},{"duration":0.08571424999999877,"midi":64,"time":17.657135500000003,"velocity":0.3937007874015748},{"duration":0.08571424999999877,"midi":74,"time":17.74284975,"velocity":0.3937007874015748},{"duration":0.08571424999999877,"midi":62,"time":17.74284975,"velocity":0.3937007874015748},{"duration":0.08571424999999877,"midi":62,"time":17.914278250000002,"velocity":0.3937007874015748},{"duration":0.08571424999999877,"midi":74,"time":17.914278250000002,"velocity":0.3937007874015748},{"duration":0.08571424999999877,"midi":81,"time":17.9999925,"velocity":0.3937007874015748},{"duration":0.08571424999999877,"midi":69,"time":17.9999925,"velocity":0.3937007874015748},{"duration":0.08571424999999877,"midi":79,"time":18.171421000000002,"velocity":0.3937007874015748},{"duration":0.08571424999999877,"midi":67,"time":18.171421000000002,"velocity":0.3937007874015748},{"duration":0.08571424999999877,"midi":81,"time":18.25713525,"velocity":0.3937007874015748},{"duration":0.08571424999999877,"midi":69,"time":18.25713525,"velocity":0.3937007874015748},{"duration":0.08571424999999877,"midi":64,"time":18.428563750000002,"velocity":0.3937007874015748},{"duration":0.08571424999999877,"midi":76,"time":18.428563750000002,"velocity":0.3937007874015748},{"duration":0.08571425000000232,"midi":65,"time":18.59999225,"velocity":0.3937007874015748},{"duration":0.08571425000000232,"midi":77,"time":18.59999225,"velocity":0.3937007874015748},{"duration":0.08571424999999877,"midi":81,"time":18.77142075,"velocity":0.3937007874015748},{"duration":0.08571424999999877,"midi":69,"time":18.77142075,"velocity":0.3937007874015748},{"duration":0.08571425000000232,"midi":72,"time":18.857135,"velocity":0.3937007874015748},{"duration":0.08571425000000232,"midi":60,"time":18.857135,"velocity":0.3937007874015748},{"duration":0.08571425000000232,"midi":61,"time":19.0285635,"velocity":0.3937007874015748},{"duration":0.08571425000000232,"midi":73,"time":19.0285635,"velocity":0.3937007874015748},{"duration":0.08571424999999877,"midi":74,"time":19.199992,"velocity":0.3937007874015748},{"duration":0.08571424999999877,"midi":62,"time":19.199992,"velocity":0.3937007874015748},{"duration":0.08571424999999877,"midi":69,"time":19.371420500000003,"velocity":0.3937007874015748},{"duration":0.08571424999999877,"midi":81,"time":19.371420500000003,"velocity":0.3937007874015748},{"duration":0.08571425000000232,"midi":67,"time":19.542849,"velocity":0.3937007874015748},{"duration":0.08571425000000232,"midi":79,"time":19.542849,"velocity":0.3937007874015748},{"duration":0.08571424999999877,"midi":69,"time":19.628563250000003,"velocity":0.3937007874015748},{"duration":0.08571424999999877,"midi":81,"time":19.628563250000003,"velocity":0.3937007874015748},{"duration":0.08571425000000232,"midi":76,"time":19.79999175,"velocity":0.3937007874015748},{"duration":0.08571425000000232,"midi":64,"time":19.79999175,"velocity":0.3937007874015748},{"duration":0.08571424999999877,"midi":65,"time":19.97142025,"velocity":0.3937007874015748},{"duration":0.08571424999999877,"midi":77,"time":19.97142025,"velocity":0.3937007874015748},{"duration":0.08571424999999877,"midi":69,"time":20.142848750000002,"velocity":0.3937007874015748},{"duration":0.08571424999999877,"midi":81,"time":20.142848750000002,"velocity":0.3937007874015748},{"duration":0.08571424999999877,"midi":79,"time":20.228563,"velocity":0.3937007874015748},{"duration":0.08571424999999877,"midi":67,"time":20.228563,"velocity":0.3937007874015748},{"duration":0.08571425000000232,"midi":65,"time":20.31427725,"velocity":0.3937007874015748},{"duration":0.08571425000000232,"midi":77,"time":20.31427725,"velocity":0.3937007874015748},{"duration":0.08571424999999877,"midi":64,"time":20.399991500000002,"velocity":0.3937007874015748},{"duration":0.08571424999999877,"midi":76,"time":20.399991500000002,"velocity":0.3937007874015748},{"duration":0.08571424999999877,"midi":62,"time":20.48570575,"velocity":0.3937007874015748},{"duration":0.08571424999999877,"midi":74,"time":20.48570575,"velocity":0.3937007874015748},{"duration":0.08571424999999877,"midi":74,"time":20.657134250000002,"velocity":0.3937007874015748},{"duration":0.08571424999999877,"midi":62,"time":20.657134250000002,"velocity":0.3937007874015748},{"duration":0.08571424999999877,"midi":69,"time":20.7428485,"velocity":0.3937007874015748},{"duration":0.08571424999999877,"midi":81,"time":20.7428485,"velocity":0.3937007874015748},{"duration":0.08571424999999877,"midi":67,"time":20.914277000000002,"velocity":0.3937007874015748},{"duration":0.08571424999999877,"midi":79,"time":20.914277000000002,"velocity":0.3937007874015748},{"duration":0.08571425000000232,"midi":81,"time":20.99999125,"velocity":0.3937007874015748},{"duration":0.08571425000000232,"midi":69,"time":20.99999125,"velocity":0.3937007874015748},{"duration":0.08571424999999877,"midi":84,"time":21.171419750000002,"velocity":0.3937007874015748},{"duration":0.08571424999999877,"midi":72,"time":21.171419750000002,"velocity":0.3937007874015748},{"duration":0.08571424999999877,"midi":84,"time":21.342848250000003,"velocity":0.3937007874015748},{"duration":0.08571424999999877,"midi":72,"time":21.342848250000003,"velocity":0.3937007874015748},{"duration":0.08571424999999877,"midi":81,"time":21.4285625,"velocity":0.3937007874015748},{"duration":0.08571424999999877,"midi":69,"time":21.4285625,"velocity":0.3937007874015748},{"duration":0.08571424999999877,"midi":89,"time":21.599991000000003,"velocity":0.3937007874015748},{"duration":0.08571424999999877,"midi":77,"time":21.599991000000003,"velocity":0.3937007874015748},{"duration":0.08571424999999877,"midi":88,"time":21.68570525,"velocity":0.3937007874015748},{"duration":0.08571424999999877,"midi":76,"time":21.68570525,"velocity":0.3937007874015748},{"duration":0.08571425000000232,"midi":74,"time":21.7714195,"velocity":0.3937007874015748},{"duration":0.08571425000000232,"midi":86,"time":21.7714195,"velocity":0.3937007874015748},{"duration":0.08571424999999877,"midi":84,"time":21.857133750000003,"velocity":0.3937007874015748},{"duration":0.08571424999999877,"midi":72,"time":21.857133750000003,"velocity":0.3937007874015748},{"duration":0.08571424999999877,"midi":69,"time":21.942848,"velocity":0.3937007874015748},{"duration":0.08571424999999877,"midi":57,"time":21.942848,"velocity":0.3937007874015748},{"duration":0.08571424999999877,"midi":65,"time":22.114276500000003,"velocity":0.3937007874015748},{"duration":0.08571424999999877,"midi":77,"time":22.114276500000003,"velocity":0.3937007874015748},{"duration":0.08571425000000232,"midi":64,"time":22.285705,"velocity":0.3937007874015748},{"duration":0.08571425000000232,"midi":76,"time":22.285705,"velocity":0.3937007874015748},{"duration":0.08571424999999877,"midi":65,"time":22.371419250000002,"velocity":0.3937007874015748},{"duration":0.08571424999999877,"midi":77,"time":22.371419250000002,"velocity":0.3937007874015748},{"duration":0.08571424999999877,"midi":76,"time":22.4571335,"velocity":0.3937007874015748},{"duration":0.08571424999999877,"midi":64,"time":22.4571335,"velocity":0.3937007874015748},{"duration":0.08571424999999877,"midi":67,"time":22.628562000000002,"velocity":0.3937007874015748},{"duration":0.08571424999999877,"midi":79,"time":22.628562000000002,"velocity":0.3937007874015748},{"duration":0.08571425000000232,"midi":65,"time":22.7999905,"velocity":0.3937007874015748},{"duration":0.08571425000000232,"midi":77,"time":22.7999905,"velocity":0.3937007874015748},{"duration":0.08571425000000232,"midi":64,"time":22.971419,"velocity":0.3937007874015748},{"duration":0.08571425000000232,"midi":76,"time":22.971419,"velocity":0.3937007874015748},{"duration":0.08571424999999877,"midi":77,"time":23.057133250000003,"velocity":0.3937007874015748},{"duration":0.08571424999999877,"midi":65,"time":23.057133250000003,"velocity":0.3937007874015748},{"duration":0.08571424999999877,"midi":76,"time":23.142847500000002,"velocity":0.3937007874015748},{"duration":0.08571424999999877,"midi":64,"time":23.142847500000002,"velocity":0.3937007874015748},{"duration":0.08571425000000232,"midi":72,"time":23.22856175,"velocity":0.3937007874015748},{"duration":0.08571425000000232,"midi":60,"time":23.22856175,"velocity":0.3937007874015748},{"duration":0.08571424999999877,"midi":74,"time":23.314276000000003,"velocity":0.3937007874015748},{"duration":0.08571424999999877,"midi":62,"time":23.314276000000003,"velocity":0.3937007874015748},{"duration":0.08571425000000232,"midi":81,"time":23.4857045,"velocity":0.3937007874015748},{"duration":0.08571425000000232,"midi":69,"time":23.4857045,"velocity":0.3937007874015748},{"duration":0.08571424999999877,"midi":67,"time":23.657133,"velocity":0.3937007874015748},{"duration":0.08571424999999877,"midi":79,"time":23.657133,"velocity":0.3937007874015748},{"duration":0.08571425000000232,"midi":69,"time":23.74284725,"velocity":0.3937007874015748},{"duration":0.08571425000000232,"midi":81,"time":23.74284725,"velocity":0.3937007874015748},{"duration":0.08571424999999877,"midi":67,"time":23.828561500000003,"velocity":0.3937007874015748},{"duration":0.08571424999999877,"midi":79,"time":23.828561500000003,"velocity":0.3937007874015748},{"duration":0.08571424999999877,"midi":69,"time":23.91427575,"velocity":0.3937007874015748},{"duration":0.08571424999999877,"midi":81,"time":23.91427575,"velocity":0.3937007874015748},{"duration":0.08571425000000232,"midi":84,"time":23.99999,"velocity":0.3937007874015748},{"duration":0.08571425000000232,"midi":72,"time":23.99999,"velocity":0.3937007874015748},{"duration":0.08571424999999877,"midi":81,"time":24.1714185,"velocity":0.3937007874015748},{"duration":0.08571424999999877,"midi":69,"time":24.1714185,"velocity":0.3937007874015748},{"duration":0.08571424999999877,"midi":67,"time":24.342847000000003,"velocity":0.3937007874015748},{"duration":0.08571424999999877,"midi":79,"time":24.342847000000003,"velocity":0.3937007874015748},{"duration":0.08571425000000232,"midi":81,"time":24.5142755,"velocity":0.3937007874015748},{"duration":0.08571425000000232,"midi":69,"time":24.5142755,"velocity":0.3937007874015748},{"duration":0.08571424999999877,"midi":58,"time":24.685704,"velocity":0.3937007874015748},{"duration":0.08571424999999877,"midi":70,"time":24.685704,"velocity":0.3937007874015748},{"duration":0.08571424999999877,"midi":65,"time":24.857132500000002,"velocity":0.3937007874015748},{"duration":0.08571424999999877,"midi":77,"time":24.857132500000002,"velocity":0.3937007874015748},{"duration":0.08571424999999877,"midi":76,"time":25.028561000000003,"velocity":0.3937007874015748},{"duration":0.08571424999999877,"midi":64,"time":25.028561000000003,"velocity":0.3937007874015748},{"duration":0.08571424999999877,"midi":65,"time":25.114275250000002,"velocity":0.3937007874015748},{"duration":0.08571424999999877,"midi":77,"time":25.114275250000002,"velocity":0.3937007874015748},{"duration":0.08571425000000232,"midi":64,"time":25.1999895,"velocity":0.3937007874015748},{"duration":0.08571425000000232,"midi":76,"time":25.1999895,"velocity":0.3937007874015748},{"duration":0.08571424999999877,"midi":79,"time":25.371418000000002,"velocity":0.3937007874015748},{"duration":0.08571424999999877,"midi":67,"time":25.371418000000002,"velocity":0.3937007874015748},{"duration":0.08571424999999877,"midi":65,"time":25.542846500000003,"velocity":0.3937007874015748},{"duration":0.08571424999999877,"midi":77,"time":25.542846500000003,"velocity":0.3937007874015748},{"duration":0.08571425000000232,"midi":76,"time":25.714275,"velocity":0.3937007874015748},{"duration":0.08571425000000232,"midi":64,"time":25.714275,"velocity":0.3937007874015748},{"duration":0.08571424999999877,"midi":65,"time":25.799989250000003,"velocity":0.3937007874015748},{"duration":0.08571424999999877,"midi":77,"time":25.799989250000003,"velocity":0.3937007874015748},{"duration":0.08571424999999877,"midi":64,"time":25.8857035,"velocity":0.3937007874015748},{"duration":0.08571424999999877,"midi":76,"time":25.8857035,"velocity":0.3937007874015748},{"duration":0.08571425000000232,"midi":72,"time":25.97141775,"velocity":0.3937007874015748},{"duration":0.08571425000000232,"midi":60,"time":25.97141775,"velocity":0.3937007874015748},{"duration":0.08571424999999877,"midi":74,"time":26.057132000000003,"velocity":0.3937007874015748},{"duration":0.08571424999999877,"midi":62,"time":26.057132000000003,"velocity":0.3937007874015748},{"duration":0.08571425000000232,"midi":81,"time":26.2285605,"velocity":0.3937007874015748},{"duration":0.08571425000000232,"midi":69,"time":26.2285605,"velocity":0.3937007874015748},{"duration":0.08571424999999877,"midi":67,"time":26.399989,"velocity":0.3937007874015748},{"duration":0.08571424999999877,"midi":79,"time":26.399989,"velocity":0.3937007874015748},{"duration":0.08571425000000232,"midi":69,"time":26.48570325,"velocity":0.3937007874015748},{"duration":0.08571425000000232,"midi":81,"time":26.48570325,"velocity":0.3937007874015748},{"duration":0.08571424999999877,"midi":79,"time":26.571417500000003,"velocity":0.3937007874015748},{"duration":0.08571424999999877,"midi":67,"time":26.571417500000003,"velocity":0.3937007874015748},{"duration":0.08571424999999877,"midi":69,"time":26.65713175,"velocity":0.3937007874015748},{"duration":0.08571424999999877,"midi":81,"time":26.65713175,"velocity":0.3937007874015748},{"duration":0.08571425000000232,"midi":85,"time":26.742846,"velocity":0.3937007874015748},{"duration":0.08571425000000232,"midi":73,"time":26.742846,"velocity":0.3937007874015748},{"duration":0.08571425000000232,"midi":69,"time":26.9142745,"velocity":0.3937007874015748},{"duration":0.08571425000000232,"midi":81,"time":26.9142745,"velocity":0.3937007874015748},{"duration":0.08571424999999877,"midi":79,"time":27.085703000000002,"velocity":0.3937007874015748},{"duration":0.08571424999999877,"midi":67,"time":27.085703000000002,"velocity":0.3937007874015748},{"duration":0.08571424999999877,"midi":69,"time":27.257131500000003,"velocity":0.3937007874015748},{"duration":0.08571424999999877,"midi":81,"time":27.257131500000003,"velocity":0.3937007874015748},{"duration":0.08571425000000232,"midi":69,"time":27.42856,"velocity":0.3937007874015748},{"duration":0.08571425000000232,"midi":57,"time":27.42856,"velocity":0.3937007874015748},{"duration":0.08571424999999877,"midi":77,"time":27.599988500000002,"velocity":0.3937007874015748},{"duration":0.08571424999999877,"midi":65,"time":27.599988500000002,"velocity":0.3937007874015748},{"duration":0.08571424999999877,"midi":76,"time":27.771417000000003,"velocity":0.3937007874015748},{"duration":0.08571424999999877,"midi":64,"time":27.771417000000003,"velocity":0.3937007874015748},{"duration":0.08571424999999877,"midi":65,"time":27.857131250000002,"velocity":0.3937007874015748},{"duration":0.08571424999999877,"midi":77,"time":27.857131250000002,"velocity":0.3937007874015748},{"duration":0.08571425000000232,"midi":76,"time":27.9428455,"velocity":0.3937007874015748},{"duration":0.08571425000000232,"midi":64,"time":27.9428455,"velocity":0.3937007874015748},{"duration":0.08571424999999877,"midi":67,"time":28.114274,"velocity":0.3937007874015748},{"duration":0.08571424999999877,"midi":79,"time":28.114274,"velocity":0.3937007874015748},{"duration":0.08571424999999877,"midi":77,"time":28.285702500000003,"velocity":0.3937007874015748},{"duration":0.08571424999999877,"midi":65,"time":28.285702500000003,"velocity":0.3937007874015748},{"duration":0.08571425000000232,"midi":76,"time":28.457131,"velocity":0.3937007874015748},{"duration":0.08571425000000232,"midi":64,"time":28.457131,"velocity":0.3937007874015748},{"duration":0.08571424999999877,"midi":65,"time":28.542845250000003,"velocity":0.3937007874015748},{"duration":0.08571424999999877,"midi":77,"time":28.542845250000003,"velocity":0.3937007874015748},{"duration":0.08571424999999877,"midi":76,"time":28.6285595,"velocity":0.3937007874015748},{"duration":0.08571424999999877,"midi":64,"time":28.6285595,"velocity":0.3937007874015748},{"duration":0.08571425000000232,"midi":72,"time":28.71427375,"velocity":0.3937007874015748},{"duration":0.08571425000000232,"midi":60,"time":28.71427375,"velocity":0.3937007874015748},{"duration":0.08571424999999877,"midi":74,"time":28.799988000000003,"velocity":0.3937007874015748},{"duration":0.08571424999999877,"midi":62,"time":28.799988000000003,"velocity":0.3937007874015748},{"duration":0.08571424999999877,"midi":81,"time":28.971416500000004,"velocity":0.3937007874015748},{"duration":0.08571424999999877,"midi":69,"time":28.971416500000004,"velocity":0.3937007874015748},{"duration":0.08571425000000232,"midi":79,"time":29.142845,"velocity":0.3937007874015748},{"duration":0.08571425000000232,"midi":67,"time":29.142845,"velocity":0.3937007874015748},{"duration":0.08571424999999877,"midi":69,"time":29.228559250000004,"velocity":0.3937007874015748},{"duration":0.08571424999999877,"midi":81,"time":29.228559250000004,"velocity":0.3937007874015748},{"duration":0.08571424999999877,"midi":79,"time":29.314273500000002,"velocity":0.3937007874015748},{"duration":0.08571424999999877,"midi":67,"time":29.314273500000002,"velocity":0.3937007874015748},{"duration":0.08571425000000232,"midi":81,"time":29.39998775,"velocity":0.3937007874015748},{"duration":0.08571425000000232,"midi":69,"time":29.39998775,"velocity":0.3937007874015748},{"duration":0.08571424999999877,"midi":72,"time":29.485702000000003,"velocity":0.3937007874015748},{"duration":0.08571424999999877,"midi":84,"time":29.485702000000003,"velocity":0.3937007874015748},{"duration":0.08571425000000232,"midi":69,"time":29.6571305,"velocity":0.3937007874015748},{"duration":0.08571425000000232,"midi":81,"time":29.6571305,"velocity":0.3937007874015748},{"duration":0.08571424999999877,"midi":72,"time":29.742844750000003,"velocity":0.3937007874015748},{"duration":0.08571424999999877,"midi":84,"time":29.742844750000003,"velocity":0.3937007874015748},{"duration":0.08571424999999877,"midi":76,"time":29.828559000000002,"velocity":0.3937007874015748},{"duration":0.08571424999999877,"midi":64,"time":29.828559000000002,"velocity":0.3937007874015748},{"duration":0.08571424999999877,"midi":77,"time":29.999987500000003,"velocity":0.3937007874015748},{"duration":0.08571424999999877,"midi":65,"time":29.999987500000003,"velocity":0.3937007874015748},{"duration":0.08571425000000232,"midi":67,"time":30.171416,"velocity":0.3937007874015748},{"duration":0.08571425000000232,"midi":79,"time":30.171416,"velocity":0.3937007874015748},{"duration":0.08571424999999877,"midi":74,"time":30.3428445,"velocity":0.3937007874015748},{"duration":0.08571424999999877,"midi":62,"time":30.3428445,"velocity":0.3937007874015748},{"duration":0.08571425000000232,"midi":79,"time":30.42855875,"velocity":0.3937007874015748},{"duration":0.08571425000000232,"midi":67,"time":30.42855875,"velocity":0.3937007874015748},{"duration":0.08571424999999877,"midi":74,"time":30.59998725,"velocity":0.3937007874015748},{"duration":0.08571424999999877,"midi":62,"time":30.59998725,"velocity":0.3937007874015748},{"duration":0.08571425000000232,"midi":67,"time":30.6857015,"velocity":0.3937007874015748},{"duration":0.08571425000000232,"midi":79,"time":30.6857015,"velocity":0.3937007874015748},{"duration":0.08571425000000232,"midi":69,"time":30.85713,"velocity":0.3937007874015748},{"duration":0.08571425000000232,"midi":81,"time":30.85713,"velocity":0.3937007874015748},{"duration":0.08571424999999877,"midi":76,"time":31.028558500000003,"velocity":0.3937007874015748},{"duration":0.08571424999999877,"midi":64,"time":31.028558500000003,"velocity":0.3937007874015748},{"duration":0.08571425000000232,"midi":69,"time":31.11427275,"velocity":0.3937007874015748},{"duration":0.08571425000000232,"midi":81,"time":31.11427275,"velocity":0.3937007874015748},{"duration":0.08571424999999877,"midi":76,"time":31.285701250000002,"velocity":0.3937007874015748},{"duration":0.08571424999999877,"midi":64,"time":31.285701250000002,"velocity":0.3937007874015748},{"duration":0.08571425000000232,"midi":69,"time":31.3714155,"velocity":0.3937007874015748},{"duration":0.08571425000000232,"midi":81,"time":31.3714155,"velocity":0.3937007874015748},{"duration":0.08571424999999877,"midi":70,"time":31.542844000000002,"velocity":0.3937007874015748},{"duration":0.08571424999999877,"midi":82,"time":31.542844000000002,"velocity":0.3937007874015748},{"duration":0.08571425000000232,"midi":65,"time":31.62855825,"velocity":0.3937007874015748},{"duration":0.08571425000000232,"midi":77,"time":31.62855825,"velocity":0.3937007874015748},{"duration":0.08571424999999877,"midi":82,"time":31.714272500000003,"velocity":0.3937007874015748},{"duration":0.08571424999999877,"midi":70,"time":31.714272500000003,"velocity":0.3937007874015748},{"duration":0.08571425000000232,"midi":82,"time":31.885701,"velocity":0.3937007874015748},{"duration":0.08571425000000232,"midi":70,"time":31.885701,"velocity":0.3937007874015748},{"duration":0.08571425000000232,"midi":71,"time":32.0571295,"velocity":0.3937007874015748},{"duration":0.08571425000000232,"midi":83,"time":32.0571295,"velocity":0.3937007874015748},{"duration":0.08571425000000232,"midi":72,"time":32.228558,"velocity":0.3937007874015748},{"duration":0.08571425000000232,"midi":84,"time":32.228558,"velocity":0.3937007874015748},{"duration":0.08571424999999522,"midi":57,"time":32.914272000000004,"velocity":0.3937007874015748},{"duration":0.08571424999999522,"midi":69,"time":32.914272000000004,"velocity":0.3937007874015748},{"duration":0.08571425000000232,"midi":65,"time":33.0857005,"velocity":0.3937007874015748},{"duration":0.08571425000000232,"midi":77,"time":33.0857005,"velocity":0.3937007874015748},{"duration":0.08571425000000232,"midi":76,"time":33.257129,"velocity":0.3937007874015748},{"duration":0.08571425000000232,"midi":64,"time":33.257129,"velocity":0.3937007874015748},{"duration":0.08571425000000232,"midi":65,"time":33.34284325,"velocity":0.3937007874015748},{"duration":0.08571425000000232,"midi":77,"time":33.34284325,"velocity":0.3937007874015748},{"duration":0.08571424999999522,"midi":64,"time":33.428557500000004,"velocity":0.3937007874015748},{"duration":0.08571424999999522,"midi":76,"time":33.428557500000004,"velocity":0.3937007874015748},{"duration":0.08571425000000232,"midi":79,"time":33.599986,"velocity":0.3937007874015748},{"duration":0.08571425000000232,"midi":67,"time":33.599986,"velocity":0.3937007874015748},{"duration":0.08571425000000232,"midi":65,"time":33.7714145,"velocity":0.3937007874015748},{"duration":0.08571425000000232,"midi":77,"time":33.7714145,"velocity":0.3937007874015748},{"duration":0.08571425000000232,"midi":64,"time":33.942843,"velocity":0.3937007874015748},{"duration":0.08571425000000232,"midi":76,"time":33.942843,"velocity":0.3937007874015748},{"duration":0.08571424999999522,"midi":77,"time":34.028557250000006,"velocity":0.3937007874015748},{"duration":0.08571424999999522,"midi":65,"time":34.028557250000006,"velocity":0.3937007874015748},{"duration":0.08571425000000232,"midi":76,"time":34.1142715,"velocity":0.3937007874015748},{"duration":0.08571425000000232,"midi":64,"time":34.1142715,"velocity":0.3937007874015748},{"duration":0.08571425000000232,"midi":72,"time":34.19998575,"velocity":0.3937007874015748},{"duration":0.08571425000000232,"midi":60,"time":34.19998575,"velocity":0.3937007874015748},{"duration":0.08571424999999522,"midi":62,"time":34.285700000000006,"velocity":0.3937007874015748},{"duration":0.08571424999999522,"midi":74,"time":34.285700000000006,"velocity":0.3937007874015748},{"duration":0.08571425000000232,"midi":81,"time":34.4571285,"velocity":0.3937007874015748},{"duration":0.08571425000000232,"midi":69,"time":34.4571285,"velocity":0.3937007874015748},{"duration":0.08571425000000232,"midi":67,"time":34.628557,"velocity":0.3937007874015748},{"duration":0.08571425000000232,"midi":79,"time":34.628557,"velocity":0.3937007874015748},{"duration":0.08571425000000232,"midi":81,"time":34.71427125,"velocity":0.3937007874015748},{"duration":0.08571425000000232,"midi":69,"time":34.71427125,"velocity":0.3937007874015748},{"duration":0.08571424999999522,"midi":79,"time":34.799985500000005,"velocity":0.3937007874015748},{"duration":0.08571424999999522,"midi":67,"time":34.799985500000005,"velocity":0.3937007874015748},{"duration":0.08571425000000232,"midi":69,"time":34.88569975,"velocity":0.3937007874015748},{"duration":0.08571425000000232,"midi":81,"time":34.88569975,"velocity":0.3937007874015748},{"duration":0.08571425000000232,"midi":84,"time":34.971414,"velocity":0.3937007874015748},{"duration":0.08571425000000232,"midi":72,"time":34.971414,"velocity":0.3937007874015748},{"duration":0.08571425000000232,"midi":81,"time":35.1428425,"velocity":0.3937007874015748},{"duration":0.08571425000000232,"midi":69,"time":35.1428425,"velocity":0.3937007874015748},{"duration":0.08571424999999522,"midi":79,"time":35.314271000000005,"velocity":0.3937007874015748},{"duration":0.08571424999999522,"midi":67,"time":35.314271000000005,"velocity":0.3937007874015748},{"duration":0.08571425000000232,"midi":81,"time":35.4856995,"velocity":0.3937007874015748},{"duration":0.08571425000000232,"midi":69,"time":35.4856995,"velocity":0.3937007874015748},{"duration":0.08571425000000232,"midi":58,"time":35.657128,"velocity":0.3937007874015748},{"duration":0.08571425000000232,"midi":70,"time":35.657128,"velocity":0.3937007874015748},{"duration":0.08571424999999522,"midi":65,"time":35.828556500000005,"velocity":0.3937007874015748},{"duration":0.08571424999999522,"midi":77,"time":35.828556500000005,"velocity":0.3937007874015748},{"duration":0.08571425000000232,"midi":64,"time":35.999985,"velocity":0.3937007874015748},{"duration":0.08571425000000232,"midi":76,"time":35.999985,"velocity":0.3937007874015748},{"duration":0.08571424999999522,"midi":77,"time":36.085699250000005,"velocity":0.3937007874015748},{"duration":0.08571424999999522,"midi":65,"time":36.085699250000005,"velocity":0.3937007874015748},{"duration":0.08571425000000232,"midi":76,"time":36.1714135,"velocity":0.3937007874015748},{"duration":0.08571425000000232,"midi":64,"time":36.1714135,"velocity":0.3937007874015748},{"duration":0.08571424999999522,"midi":67,"time":36.342842000000005,"velocity":0.3937007874015748},{"duration":0.08571424999999522,"midi":79,"time":36.342842000000005,"velocity":0.3937007874015748},{"duration":0.08571425000000232,"midi":77,"time":36.5142705,"velocity":0.3937007874015748},{"duration":0.08571425000000232,"midi":65,"time":36.5142705,"velocity":0.3937007874015748},{"duration":0.08571425000000232,"midi":64,"time":36.685699,"velocity":0.3937007874015748},{"duration":0.08571425000000232,"midi":76,"time":36.685699,"velocity":0.3937007874015748},{"duration":0.08571425000000232,"midi":65,"time":36.77141325,"velocity":0.3937007874015748},{"duration":0.08571425000000232,"midi":77,"time":36.77141325,"velocity":0.3937007874015748},{"duration":0.08571424999999522,"midi":64,"time":36.857127500000004,"velocity":0.3937007874015748},{"duration":0.08571424999999522,"midi":76,"time":36.857127500000004,"velocity":0.3937007874015748},{"duration":0.08571425000000232,"midi":72,"time":36.94284175,"velocity":0.3937007874015748},{"duration":0.08571425000000232,"midi":60,"time":36.94284175,"velocity":0.3937007874015748},{"duration":0.08571425000000232,"midi":62,"time":37.028556,"velocity":0.3937007874015748},{"duration":0.08571425000000232,"midi":74,"time":37.028556,"velocity":0.3937007874015748},{"duration":0.08571425000000232,"midi":69,"time":37.1999845,"velocity":0.3937007874015748},{"duration":0.08571425000000232,"midi":81,"time":37.1999845,"velocity":0.3937007874015748},{"duration":0.08571424999999522,"midi":79,"time":37.371413000000004,"velocity":0.3937007874015748},{"duration":0.08571424999999522,"midi":67,"time":37.371413000000004,"velocity":0.3937007874015748},{"duration":0.08571425000000232,"midi":69,"time":37.45712725,"velocity":0.3937007874015748},{"duration":0.08571425000000232,"midi":81,"time":37.45712725,"velocity":0.3937007874015748},{"duration":0.08571425000000232,"midi":79,"time":37.5428415,"velocity":0.3937007874015748},{"duration":0.08571425000000232,"midi":67,"time":37.5428415,"velocity":0.3937007874015748},{"duration":0.08571424999999522,"midi":69,"time":37.628555750000004,"velocity":0.3937007874015748},{"duration":0.08571424999999522,"midi":81,"time":37.628555750000004,"velocity":0.3937007874015748},{"duration":0.08571425000000232,"midi":85,"time":37.71427,"velocity":0.3937007874015748},{"duration":0.08571425000000232,"midi":73,"time":37.71427,"velocity":0.3937007874015748},{"duration":0.08571425000000232,"midi":81,"time":37.885698500000004,"velocity":0.3937007874015748},{"duration":0.08571425000000232,"midi":69,"time":37.885698500000004,"velocity":0.3937007874015748},{"duration":0.08571425000000232,"midi":67,"time":38.057127,"velocity":0.3937007874015748},{"duration":0.08571425000000232,"midi":79,"time":38.057127,"velocity":0.3937007874015748},{"duration":0.08571424999999522,"midi":69,"time":38.228555500000006,"velocity":0.3937007874015748},{"duration":0.08571424999999522,"midi":81,"time":38.228555500000006,"velocity":0.3937007874015748},{"duration":0.08571425000000232,"midi":57,"time":38.399984,"velocity":0.3937007874015748},{"duration":0.08571425000000232,"midi":69,"time":38.399984,"velocity":0.3937007874015748},{"duration":0.08571425000000232,"midi":77,"time":38.5714125,"velocity":0.3937007874015748},{"duration":0.08571425000000232,"midi":65,"time":38.5714125,"velocity":0.3937007874015748},{"duration":0.08571424999999522,"midi":76,"time":38.742841000000006,"velocity":0.3937007874015748},{"duration":0.08571424999999522,"midi":64,"time":38.742841000000006,"velocity":0.3937007874015748},{"duration":0.08571425000000232,"midi":77,"time":38.82855525,"velocity":0.3937007874015748},{"duration":0.08571425000000232,"midi":65,"time":38.82855525,"velocity":0.3937007874015748},{"duration":0.08571425000000232,"midi":76,"time":38.9142695,"velocity":0.3937007874015748},{"duration":0.08571425000000232,"midi":64,"time":38.9142695,"velocity":0.3937007874015748},{"duration":0.08571425000000232,"midi":79,"time":39.085698,"velocity":0.3937007874015748},{"duration":0.08571425000000232,"midi":67,"time":39.085698,"velocity":0.3937007874015748},{"duration":0.08571424999999522,"midi":65,"time":39.257126500000005,"velocity":0.3937007874015748},{"duration":0.08571424999999522,"midi":77,"time":39.257126500000005,"velocity":0.3937007874015748},{"duration":0.08571425000000232,"midi":64,"time":39.428555,"velocity":0.3937007874015748},{"duration":0.08571425000000232,"midi":76,"time":39.428555,"velocity":0.3937007874015748},{"duration":0.08571424999999522,"midi":65,"time":39.514269250000005,"velocity":0.3937007874015748},{"duration":0.08571424999999522,"midi":77,"time":39.514269250000005,"velocity":0.3937007874015748},{"duration":0.08571425000000232,"midi":76,"time":39.5999835,"velocity":0.3937007874015748},{"duration":0.08571425000000232,"midi":64,"time":39.5999835,"velocity":0.3937007874015748},{"duration":0.08571425000000232,"midi":72,"time":39.68569775,"velocity":0.3937007874015748},{"duration":0.08571425000000232,"midi":60,"time":39.68569775,"velocity":0.3937007874015748},{"duration":0.08571424999999522,"midi":62,"time":39.771412000000005,"velocity":0.3937007874015748},{"duration":0.08571424999999522,"midi":74,"time":39.771412000000005,"velocity":0.3937007874015748},{"duration":0.08571425000000232,"midi":81,"time":39.9428405,"velocity":0.3937007874015748},{"duration":0.08571425000000232,"midi":69,"time":39.9428405,"velocity":0.3937007874015748},{"duration":0.08571425000000232,"midi":67,"time":40.114269,"velocity":0.3937007874015748},{"duration":0.08571425000000232,"midi":79,"time":40.114269,"velocity":0.3937007874015748},{"duration":0.08571425000000232,"midi":81,"time":40.19998325,"velocity":0.3937007874015748},{"duration":0.08571425000000232,"midi":69,"time":40.19998325,"velocity":0.3937007874015748},{"duration":0.08571424999999522,"midi":67,"time":40.285697500000005,"velocity":0.3937007874015748},{"duration":0.08571424999999522,"midi":79,"time":40.285697500000005,"velocity":0.3937007874015748},{"duration":0.08571425000000232,"midi":69,"time":40.37141175,"velocity":0.3937007874015748},{"duration":0.08571425000000232,"midi":81,"time":40.37141175,"velocity":0.3937007874015748},{"duration":0.08571425000000232,"midi":84,"time":40.457126,"velocity":0.3937007874015748},{"duration":0.08571425000000232,"midi":72,"time":40.457126,"velocity":0.3937007874015748},{"duration":0.08571425000000232,"midi":81,"time":40.6285545,"velocity":0.3937007874015748},{"duration":0.08571425000000232,"midi":69,"time":40.6285545,"velocity":0.3937007874015748},{"duration":0.08571425000000232,"midi":72,"time":40.71426875,"velocity":0.3937007874015748},{"duration":0.08571425000000232,"midi":84,"time":40.71426875,"velocity":0.3937007874015748},{"duration":0.08571424999999522,"midi":64,"time":40.799983000000005,"velocity":0.3937007874015748},{"duration":0.08571424999999522,"midi":76,"time":40.799983000000005,"velocity":0.3937007874015748},{"duration":0.08571425000000232,"midi":65,"time":40.9714115,"velocity":0.3937007874015748},{"duration":0.08571425000000232,"midi":77,"time":40.9714115,"velocity":0.3937007874015748},{"duration":0.08571425000000232,"midi":67,"time":41.14284,"velocity":0.3937007874015748},{"duration":0.08571425000000232,"midi":79,"time":41.14284,"velocity":0.3937007874015748},{"duration":0.08571424999999522,"midi":74,"time":41.314268500000004,"velocity":0.3937007874015748},{"duration":0.08571424999999522,"midi":62,"time":41.314268500000004,"velocity":0.3937007874015748},{"duration":0.08571425000000232,"midi":67,"time":41.39998275,"velocity":0.3937007874015748},{"duration":0.08571425000000232,"midi":79,"time":41.39998275,"velocity":0.3937007874015748},{"duration":0.08571424999999522,"midi":62,"time":41.571411250000004,"velocity":0.3937007874015748},{"duration":0.08571424999999522,"midi":74,"time":41.571411250000004,"velocity":0.3937007874015748},{"duration":0.08571425000000232,"midi":67,"time":41.6571255,"velocity":0.3937007874015748},{"duration":0.08571425000000232,"midi":79,"time":41.6571255,"velocity":0.3937007874015748},{"duration":0.08571425000000232,"midi":69,"time":41.828554000000004,"velocity":0.3937007874015748},{"duration":0.08571425000000232,"midi":81,"time":41.828554000000004,"velocity":0.3937007874015748},{"duration":0.08571425000000232,"midi":79,"time":41.9999825,"velocity":0.3937007874015748},{"duration":0.08571425000000232,"midi":67,"time":41.9999825,"velocity":0.3937007874015748},{"duration":0.08571424999999522,"midi":65,"time":42.171411000000006,"velocity":0.3937007874015748},{"duration":0.08571424999999522,"midi":77,"time":42.171411000000006,"velocity":0.3937007874015748},{"duration":0.08571425000000232,"midi":64,"time":42.342839500000004,"velocity":0.3937007874015748},{"duration":0.08571425000000232,"midi":76,"time":42.342839500000004,"velocity":0.3937007874015748},{"duration":0.08571425000000232,"midi":74,"time":42.514268,"velocity":0.3937007874015748},{"duration":0.08571425000000232,"midi":62,"time":42.514268,"velocity":0.3937007874015748},{"duration":0.08571425000000232,"midi":45,"time":43.885696,"velocity":0.3937007874015748},{"duration":0.08571425000000232,"midi":57,"time":43.885696,"velocity":0.3937007874015748},{"duration":0.08571425000000232,"midi":53,"time":44.0571245,"velocity":0.3937007874015748},{"duration":0.08571425000000232,"midi":65,"time":44.0571245,"velocity":0.3937007874015748},{"duration":0.08571424999999522,"midi":64,"time":44.228553000000005,"velocity":0.3937007874015748},{"duration":0.08571424999999522,"midi":52,"time":44.228553000000005,"velocity":0.3937007874015748},{"duration":0.08571425000000232,"midi":65,"time":44.31426725,"velocity":0.3937007874015748},{"duration":0.08571425000000232,"midi":53,"time":44.31426725,"velocity":0.3937007874015748},{"duration":0.08571425000000232,"midi":52,"time":44.3999815,"velocity":0.3937007874015748},{"duration":0.08571425000000232,"midi":64,"time":44.3999815,"velocity":0.3937007874015748},{"duration":0.08571425000000232,"midi":55,"time":44.57141,"velocity":0.3937007874015748},{"duration":0.08571425000000232,"midi":67,"time":44.57141,"velocity":0.3937007874015748},{"duration":0.08571424999999522,"midi":65,"time":44.742838500000005,"velocity":0.3937007874015748},{"duration":0.08571424999999522,"midi":53,"time":44.742838500000005,"velocity":0.3937007874015748},{"duration":0.08571425000000232,"midi":52,"time":44.914267,"velocity":0.3937007874015748},{"duration":0.08571425000000232,"midi":64,"time":44.914267,"velocity":0.3937007874015748},{"duration":0.08571424999999522,"midi":53,"time":44.999981250000005,"velocity":0.3937007874015748},{"duration":0.08571424999999522,"midi":65,"time":44.999981250000005,"velocity":0.3937007874015748},{"duration":0.08571425000000232,"midi":64,"time":45.0856955,"velocity":0.3937007874015748},{"duration":0.08571425000000232,"midi":52,"time":45.0856955,"velocity":0.3937007874015748},{"duration":0.08571425000000232,"midi":48,"time":45.17140975,"velocity":0.3937007874015748},{"duration":0.08571425000000232,"midi":60,"time":45.17140975,"velocity":0.3937007874015748},{"duration":0.08571424999999522,"midi":50,"time":45.257124000000005,"velocity":0.3937007874015748},{"duration":0.08571424999999522,"midi":62,"time":45.257124000000005,"velocity":0.3937007874015748},{"duration":0.08571425000000232,"midi":57,"time":45.4285525,"velocity":0.3937007874015748},{"duration":0.08571425000000232,"midi":69,"time":45.4285525,"velocity":0.3937007874015748},{"duration":0.08571425000000232,"midi":67,"time":45.599981,"velocity":0.3937007874015748},{"duration":0.08571425000000232,"midi":55,"time":45.599981,"velocity":0.3937007874015748},{"duration":0.08571425000000232,"midi":69,"time":45.68569525,"velocity":0.3937007874015748},{"duration":0.08571425000000232,"midi":57,"time":45.68569525,"velocity":0.3937007874015748},{"duration":0.08571424999999522,"midi":55,"time":45.771409500000004,"velocity":0.3937007874015748},{"duration":0.08571424999999522,"midi":67,"time":45.771409500000004,"velocity":0.3937007874015748},{"duration":0.08571425000000232,"midi":69,"time":45.85712375,"velocity":0.3937007874015748},{"duration":0.08571425000000232,"midi":57,"time":45.85712375,"velocity":0.3937007874015748},{"duration":0.08571425000000232,"midi":72,"time":45.942838,"velocity":0.3937007874015748},{"duration":0.08571425000000232,"midi":60,"time":45.942838,"velocity":0.3937007874015748},{"duration":0.08571424999999522,"midi":69,"time":46.11426650000001,"velocity":0.3937007874015748},{"duration":0.08571424999999522,"midi":57,"time":46.11426650000001,"velocity":0.3937007874015748},{"duration":0.08571425000000232,"midi":67,"time":46.285695000000004,"velocity":0.3937007874015748},{"duration":0.08571425000000232,"midi":55,"time":46.285695000000004,"velocity":0.3937007874015748},{"duration":0.08571425000000232,"midi":57,"time":46.4571235,"velocity":0.3937007874015748},{"duration":0.08571425000000232,"midi":69,"time":46.4571235,"velocity":0.3937007874015748},{"duration":0.08571424999999522,"midi":58,"time":46.628552000000006,"velocity":0.3937007874015748},{"duration":0.08571424999999522,"midi":46,"time":46.628552000000006,"velocity":0.3937007874015748},{"duration":0.08571425000000232,"midi":65,"time":46.799980500000004,"velocity":0.3937007874015748},{"duration":0.08571425000000232,"midi":53,"time":46.799980500000004,"velocity":0.3937007874015748},{"duration":0.08571425000000232,"midi":52,"time":46.971409,"velocity":0.3937007874015748},{"duration":0.08571425000000232,"midi":64,"time":46.971409,"velocity":0.3937007874015748},{"duration":0.08571425000000232,"midi":53,"time":47.057123250000004,"velocity":0.3937007874015748},{"duration":0.08571425000000232,"midi":65,"time":47.057123250000004,"velocity":0.3937007874015748},{"duration":0.08571424999999522,"midi":52,"time":47.142837500000006,"velocity":0.3937007874015748},{"duration":0.08571424999999522,"midi":64,"time":47.142837500000006,"velocity":0.3937007874015748},{"duration":0.08571425000000232,"midi":55,"time":47.314266,"velocity":0.3937007874015748},{"duration":0.08571425000000232,"midi":67,"time":47.314266,"velocity":0.3937007874015748},{"duration":0.08571425000000232,"midi":65,"time":47.4856945,"velocity":0.3937007874015748},{"duration":0.08571425000000232,"midi":53,"time":47.4856945,"velocity":0.3937007874015748},{"duration":0.08571424999999522,"midi":64,"time":47.657123000000006,"velocity":0.3937007874015748},{"duration":0.08571424999999522,"midi":52,"time":47.657123000000006,"velocity":0.3937007874015748},{"duration":0.08571425000000232,"midi":53,"time":47.74283725,"velocity":0.3937007874015748},{"duration":0.08571425000000232,"midi":65,"time":47.74283725,"velocity":0.3937007874015748},{"duration":0.08571425000000232,"midi":64,"time":47.8285515,"velocity":0.3937007874015748},{"duration":0.08571425000000232,"midi":52,"time":47.8285515,"velocity":0.3937007874015748},{"duration":0.08571424999999522,"midi":60,"time":47.914265750000006,"velocity":0.3937007874015748},{"duration":0.08571424999999522,"midi":48,"time":47.914265750000006,"velocity":0.3937007874015748},{"duration":0.08571425000000232,"midi":50,"time":47.99998,"velocity":0.3937007874015748},{"duration":0.08571425000000232,"midi":62,"time":47.99998,"velocity":0.3937007874015748},{"duration":0.08571424999999522,"midi":57,"time":48.171408500000005,"velocity":0.3937007874015748},{"duration":0.08571424999999522,"midi":69,"time":48.171408500000005,"velocity":0.3937007874015748},{"duration":0.08571425000000232,"midi":67,"time":48.342837,"velocity":0.3937007874015748},{"duration":0.08571425000000232,"midi":55,"time":48.342837,"velocity":0.3937007874015748},{"duration":0.08571424999999522,"midi":69,"time":48.428551250000005,"velocity":0.3937007874015748},{"duration":0.08571424999999522,"midi":57,"time":48.428551250000005,"velocity":0.3937007874015748},{"duration":0.08571425000000232,"midi":67,"time":48.5142655,"velocity":0.3937007874015748},{"duration":0.08571425000000232,"midi":55,"time":48.5142655,"velocity":0.3937007874015748},{"duration":0.08571425000000232,"midi":69,"time":48.59997975,"velocity":0.3937007874015748},{"duration":0.08571425000000232,"midi":57,"time":48.59997975,"velocity":0.3937007874015748},{"duration":0.08571424999999522,"midi":73,"time":48.685694000000005,"velocity":0.3937007874015748},{"duration":0.08571424999999522,"midi":61,"time":48.685694000000005,"velocity":0.3937007874015748},{"duration":0.08571425000000232,"midi":69,"time":48.8571225,"velocity":0.3937007874015748},{"duration":0.08571425000000232,"midi":57,"time":48.8571225,"velocity":0.3937007874015748},{"duration":0.08571425000000232,"midi":67,"time":49.028551,"velocity":0.3937007874015748},{"duration":0.08571425000000232,"midi":55,"time":49.028551,"velocity":0.3937007874015748},{"duration":0.08571424999999522,"midi":64,"time":49.199979500000005,"velocity":0.3937007874015748},{"duration":0.08571424999999522,"midi":52,"time":49.199979500000005,"velocity":0.3937007874015748},{"duration":0.08571425000000232,"midi":53,"time":49.371408,"velocity":0.3937007874015748},{"duration":0.08571425000000232,"midi":65,"time":49.371408,"velocity":0.3937007874015748},{"duration":0.08571425000000232,"midi":64,"time":49.5428365,"velocity":0.3937007874015748},{"duration":0.08571425000000232,"midi":52,"time":49.5428365,"velocity":0.3937007874015748},{"duration":0.08571425000000232,"midi":53,"time":49.62855075,"velocity":0.3937007874015748},{"duration":0.08571425000000232,"midi":65,"time":49.62855075,"velocity":0.3937007874015748},{"duration":0.08571424999999522,"midi":52,"time":49.714265000000005,"velocity":0.3937007874015748},{"duration":0.08571424999999522,"midi":64,"time":49.714265000000005,"velocity":0.3937007874015748},{"duration":0.08571425000000232,"midi":60,"time":49.8856935,"velocity":0.3937007874015748},{"duration":0.08571425000000232,"midi":48,"time":49.8856935,"velocity":0.3937007874015748},{"duration":0.08571424999999522,"midi":62,"time":50.05712200000001,"velocity":0.3937007874015748},{"duration":0.08571424999999522,"midi":50,"time":50.05712200000001,"velocity":0.3937007874015748},{"duration":0.08571425000000232,"midi":48,"time":50.228550500000004,"velocity":0.3937007874015748},{"duration":0.08571425000000232,"midi":60,"time":50.228550500000004,"velocity":0.3937007874015748},{"duration":0.08571425000000232,"midi":55,"time":50.399979,"velocity":0.3937007874015748},{"duration":0.08571425000000232,"midi":43,"time":50.399979,"velocity":0.3937007874015748},{"duration":0.08571424999999522,"midi":40,"time":50.57140750000001,"velocity":0.3937007874015748},{"duration":0.08571424999999522,"midi":52,"time":50.57140750000001,"velocity":0.3937007874015748},{"duration":0.08571425000000232,"midi":38,"time":50.742836000000004,"velocity":0.3937007874015748},{"duration":0.08571425000000232,"midi":50,"time":50.742836000000004,"velocity":0.3937007874015748},{"duration":0.08571425000000232,"midi":40,"time":50.9142645,"velocity":0.3937007874015748},{"duration":0.08571425000000232,"midi":52,"time":50.9142645,"velocity":0.3937007874015748},{"duration":0.08571424999999522,"midi":53,"time":51.085693000000006,"velocity":0.3937007874015748},{"duration":0.08571424999999522,"midi":41,"time":51.085693000000006,"velocity":0.3937007874015748},{"duration":0.08571425000000232,"midi":43,"time":51.257121500000004,"velocity":0.3937007874015748},{"duration":0.08571425000000232,"midi":55,"time":51.257121500000004,"velocity":0.3937007874015748},{"duration":0.08571425000000232,"midi":57,"time":51.42855,"velocity":0.3937007874015748},{"duration":0.08571425000000232,"midi":45,"time":51.42855,"velocity":0.3937007874015748},{"duration":0.08571424999999522,"midi":49,"time":51.599978500000006,"velocity":0.3937007874015748},{"duration":0.08571424999999522,"midi":61,"time":51.599978500000006,"velocity":0.3937007874015748},{"duration":0.08571425000000232,"midi":62,"time":51.771407,"velocity":0.3937007874015748},{"duration":0.08571425000000232,"midi":50,"time":51.771407,"velocity":0.3937007874015748},{"duration":0.08571425000000232,"midi":52,"time":51.9428355,"velocity":0.3937007874015748},{"duration":0.08571425000000232,"midi":64,"time":51.9428355,"velocity":0.3937007874015748},{"duration":0.08571424999999522,"midi":49,"time":52.114264000000006,"velocity":0.3937007874015748},{"duration":0.08571424999999522,"midi":61,"time":52.114264000000006,"velocity":0.3937007874015748},{"duration":0.08571425000000232,"midi":69,"time":52.2856925,"velocity":0.3937007874015748},{"duration":0.08571425000000232,"midi":57,"time":52.2856925,"velocity":0.3937007874015748},{"duration":0.08571425000000232,"midi":55,"time":52.457121,"velocity":0.3937007874015748},{"duration":0.08571425000000232,"midi":67,"time":52.457121,"velocity":0.3937007874015748},{"duration":0.08571425000000232,"midi":69,"time":52.54283525,"velocity":0.3937007874015748},{"duration":0.08571425000000232,"midi":57,"time":52.54283525,"velocity":0.3937007874015748},{"duration":0.08571424999999522,"midi":67,"time":52.628549500000005,"velocity":0.3937007874015748},{"duration":0.08571424999999522,"midi":55,"time":52.628549500000005,"velocity":0.3937007874015748},{"duration":0.08571425000000232,"midi":57,"time":52.71426375,"velocity":0.3937007874015748},{"duration":0.08571425000000232,"midi":69,"time":52.71426375,"velocity":0.3937007874015748},{"duration":0.08571425000000232,"midi":61,"time":52.799978,"velocity":0.3937007874015748},{"duration":0.08571425000000232,"midi":73,"time":52.799978,"velocity":0.3937007874015748},{"duration":0.08571425000000232,"midi":57,"time":52.9714065,"velocity":0.3937007874015748},{"duration":0.08571425000000232,"midi":69,"time":52.9714065,"velocity":0.3937007874015748},{"duration":0.08571424999999522,"midi":55,"time":53.142835000000005,"velocity":0.3937007874015748},{"duration":0.08571424999999522,"midi":67,"time":53.142835000000005,"velocity":0.3937007874015748},{"duration":0.08571425000000232,"midi":69,"time":53.22854925,"velocity":0.3937007874015748},{"duration":0.08571425000000232,"midi":57,"time":53.22854925,"velocity":0.3937007874015748},{"duration":0.08571425000000232,"midi":55,"time":53.3142635,"velocity":0.3937007874015748},{"duration":0.08571425000000232,"midi":67,"time":53.3142635,"velocity":0.3937007874015748},{"duration":0.08571424999999522,"midi":69,"time":53.399977750000005,"velocity":0.3937007874015748},{"duration":0.08571424999999522,"midi":57,"time":53.399977750000005,"velocity":0.3937007874015748},{"duration":0.08571425000000232,"midi":49,"time":53.485692,"velocity":0.3937007874015748},{"duration":0.08571425000000232,"midi":61,"time":53.485692,"velocity":0.3937007874015748},{"duration":0.08571424999999522,"midi":57,"time":53.657120500000005,"velocity":0.3937007874015748},{"duration":0.08571424999999522,"midi":69,"time":53.657120500000005,"velocity":0.3937007874015748},{"duration":0.08571425000000232,"midi":67,"time":53.828549,"velocity":0.3937007874015748},{"duration":0.08571425000000232,"midi":55,"time":53.828549,"velocity":0.3937007874015748},{"duration":0.08571425000000232,"midi":69,"time":53.914263250000005,"velocity":0.3937007874015748},{"duration":0.08571425000000232,"midi":57,"time":53.914263250000005,"velocity":0.3937007874015748},{"duration":0.08571424999999522,"midi":55,"time":53.99997750000001,"velocity":0.3937007874015748},{"duration":0.08571424999999522,"midi":67,"time":53.99997750000001,"velocity":0.3937007874015748},{"duration":0.08571425000000232,"midi":57,"time":54.08569175,"velocity":0.3937007874015748},{"duration":0.08571425000000232,"midi":69,"time":54.08569175,"velocity":0.3937007874015748},{"duration":0.08571425000000232,"midi":61,"time":54.171406000000005,"velocity":0.3937007874015748},{"duration":0.08571425000000232,"midi":73,"time":54.171406000000005,"velocity":0.3937007874015748},{"duration":0.08571425000000232,"midi":76,"time":54.3428345,"velocity":0.3937007874015748},{"duration":0.08571425000000232,"midi":64,"time":54.3428345,"velocity":0.3937007874015748},{"duration":0.08571424999999522,"midi":73,"time":54.51426300000001,"velocity":0.3937007874015748},{"duration":0.08571424999999522,"midi":61,"time":54.51426300000001,"velocity":0.3937007874015748},{"duration":0.08571425000000232,"midi":57,"time":54.685691500000004,"velocity":0.3937007874015748},{"duration":0.08571425000000232,"midi":69,"time":54.685691500000004,"velocity":0.3937007874015748},{"duration":0.08571425000000232,"midi":57,"time":54.85712,"velocity":0.3937007874015748},{"duration":0.08571425000000232,"midi":45,"time":54.85712,"velocity":0.3937007874015748},{"duration":0.08571424999999522,"midi":65,"time":55.02854850000001,"velocity":0.3937007874015748},{"duration":0.08571424999999522,"midi":53,"time":55.02854850000001,"velocity":0.3937007874015748},{"duration":0.08571425000000232,"midi":64,"time":55.199977000000004,"velocity":0.3937007874015748},{"duration":0.08571425000000232,"midi":52,"time":55.199977000000004,"velocity":0.3937007874015748},{"duration":0.08571424999999522,"midi":53,"time":55.285691250000006,"velocity":0.3937007874015748},{"duration":0.08571424999999522,"midi":65,"time":55.285691250000006,"velocity":0.3937007874015748},{"duration":0.08571425000000232,"midi":64,"time":55.3714055,"velocity":0.3937007874015748},{"duration":0.08571425000000232,"midi":52,"time":55.3714055,"velocity":0.3937007874015748},{"duration":0.08571424999999522,"midi":55,"time":55.542834000000006,"velocity":0.3937007874015748},{"duration":0.08571424999999522,"midi":67,"time":55.542834000000006,"velocity":0.3937007874015748},{"duration":0.08571425000000232,"midi":65,"time":55.714262500000004,"velocity":0.3937007874015748},{"duration":0.08571425000000232,"midi":53,"time":55.714262500000004,"velocity":0.3937007874015748},{"duration":0.08571425000000232,"midi":64,"time":55.885691,"velocity":0.3937007874015748},{"duration":0.08571425000000232,"midi":52,"time":55.885691,"velocity":0.3937007874015748},{"duration":0.08571425000000232,"midi":53,"time":55.971405250000004,"velocity":0.3937007874015748},{"duration":0.08571425000000232,"midi":65,"time":55.971405250000004,"velocity":0.3937007874015748},{"duration":0.08571424999999522,"midi":64,"time":56.057119500000006,"velocity":0.3937007874015748},{"duration":0.08571424999999522,"midi":52,"time":56.057119500000006,"velocity":0.3937007874015748},{"duration":0.08571425000000232,"midi":60,"time":56.14283375,"velocity":0.3937007874015748},{"duration":0.08571425000000232,"midi":48,"time":56.14283375,"velocity":0.3937007874015748},{"duration":0.08571425000000232,"midi":50,"time":56.228548,"velocity":0.3937007874015748},{"duration":0.08571425000000232,"midi":62,"time":56.228548,"velocity":0.3937007874015748},{"duration":0.08571425000000232,"midi":57,"time":56.3999765,"velocity":0.3937007874015748},{"duration":0.08571425000000232,"midi":69,"time":56.3999765,"velocity":0.3937007874015748},{"duration":0.08571424999999522,"midi":67,"time":56.571405000000006,"velocity":0.3937007874015748},{"duration":0.08571424999999522,"midi":55,"time":56.571405000000006,"velocity":0.3937007874015748},{"duration":0.08571425000000232,"midi":57,"time":56.65711925,"velocity":0.3937007874015748},{"duration":0.08571425000000232,"midi":69,"time":56.65711925,"velocity":0.3937007874015748},{"duration":0.08571425000000232,"midi":55,"time":56.7428335,"velocity":0.3937007874015748},{"duration":0.08571425000000232,"midi":67,"time":56.7428335,"velocity":0.3937007874015748},{"duration":0.08571424999999522,"midi":57,"time":56.828547750000006,"velocity":0.3937007874015748},{"duration":0.08571424999999522,"midi":69,"time":56.828547750000006,"velocity":0.3937007874015748},{"duration":0.08571425000000232,"midi":60,"time":56.914262,"velocity":0.3937007874015748},{"duration":0.08571425000000232,"midi":72,"time":56.914262,"velocity":0.3937007874015748},{"duration":0.08571424999999522,"midi":69,"time":57.085690500000005,"velocity":0.3937007874015748},{"duration":0.08571424999999522,"midi":57,"time":57.085690500000005,"velocity":0.3937007874015748},{"duration":0.08571425000000232,"midi":67,"time":57.257119,"velocity":0.3937007874015748},{"duration":0.08571425000000232,"midi":55,"time":57.257119,"velocity":0.3937007874015748},{"duration":0.08571425000000232,"midi":57,"time":57.4285475,"velocity":0.3937007874015748},{"duration":0.08571425000000232,"midi":69,"time":57.4285475,"velocity":0.3937007874015748},{"duration":0.08571424999999522,"midi":58,"time":57.599976000000005,"velocity":0.3937007874015748},{"duration":0.08571424999999522,"midi":46,"time":57.599976000000005,"velocity":0.3937007874015748},{"duration":0.08571425000000232,"midi":53,"time":57.7714045,"velocity":0.3937007874015748},{"duration":0.08571425000000232,"midi":65,"time":57.7714045,"velocity":0.3937007874015748},{"duration":0.08571424999999522,"midi":64,"time":57.94283300000001,"velocity":0.3937007874015748},{"duration":0.08571424999999522,"midi":52,"time":57.94283300000001,"velocity":0.3937007874015748},{"duration":0.08571425000000232,"midi":53,"time":58.02854725,"velocity":0.3937007874015748},{"duration":0.08571425000000232,"midi":65,"time":58.02854725,"velocity":0.3937007874015748},{"duration":0.08571425000000232,"midi":52,"time":58.114261500000005,"velocity":0.3937007874015748},{"duration":0.08571425000000232,"midi":64,"time":58.114261500000005,"velocity":0.3937007874015748},{"duration":0.08571425000000232,"midi":67,"time":58.28569,"velocity":0.3937007874015748},{"duration":0.08571425000000232,"midi":55,"time":58.28569,"velocity":0.3937007874015748},{"duration":0.08571424999999522,"midi":53,"time":58.45711850000001,"velocity":0.3937007874015748},{"duration":0.08571424999999522,"midi":65,"time":58.45711850000001,"velocity":0.3937007874015748},{"duration":0.08571425000000232,"midi":64,"time":58.628547000000005,"velocity":0.3937007874015748},{"duration":0.08571425000000232,"midi":52,"time":58.628547000000005,"velocity":0.3937007874015748},{"duration":0.08571424999999522,"midi":65,"time":58.71426125000001,"velocity":0.3937007874015748},{"duration":0.08571424999999522,"midi":53,"time":58.71426125000001,"velocity":0.3937007874015748},{"duration":0.08571425000000232,"midi":52,"time":58.7999755,"velocity":0.3937007874015748},{"duration":0.08571425000000232,"midi":64,"time":58.7999755,"velocity":0.3937007874015748},{"duration":0.08571425000000232,"midi":60,"time":58.885689750000004,"velocity":0.3937007874015748},{"duration":0.08571425000000232,"midi":48,"time":58.885689750000004,"velocity":0.3937007874015748},{"duration":0.08571424999999522,"midi":62,"time":58.97140400000001,"velocity":0.3937007874015748},{"duration":0.08571424999999522,"midi":50,"time":58.97140400000001,"velocity":0.3937007874015748},{"duration":0.08571425000000232,"midi":57,"time":59.142832500000004,"velocity":0.3937007874015748},{"duration":0.08571425000000232,"midi":69,"time":59.142832500000004,"velocity":0.3937007874015748},{"duration":0.08571425000000232,"midi":67,"time":59.314261,"velocity":0.3937007874015748},{"duration":0.08571425000000232,"midi":55,"time":59.314261,"velocity":0.3937007874015748},{"duration":0.08571425000000232,"midi":69,"time":59.399975250000004,"velocity":0.3937007874015748},{"duration":0.08571425000000232,"midi":57,"time":59.399975250000004,"velocity":0.3937007874015748},{"duration":0.08571424999999522,"midi":67,"time":59.48568950000001,"velocity":0.3937007874015748},{"duration":0.08571424999999522,"midi":55,"time":59.48568950000001,"velocity":0.3937007874015748},{"duration":0.08571425000000232,"midi":57,"time":59.57140375,"velocity":0.3937007874015748},{"duration":0.08571425000000232,"midi":69,"time":59.57140375,"velocity":0.3937007874015748},{"duration":0.08571425000000232,"midi":61,"time":59.657118000000004,"velocity":0.3937007874015748},{"duration":0.08571425000000232,"midi":73,"time":59.657118000000004,"velocity":0.3937007874015748},{"duration":0.08571425000000232,"midi":57,"time":59.8285465,"velocity":0.3937007874015748},{"duration":0.08571425000000232,"midi":69,"time":59.8285465,"velocity":0.3937007874015748},{"duration":0.08571424999999522,"midi":55,"time":59.999975000000006,"velocity":0.3937007874015748},{"duration":0.08571424999999522,"midi":67,"time":59.999975000000006,"velocity":0.3937007874015748},{"duration":0.08571425000000232,"midi":64,"time":60.171403500000004,"velocity":0.3937007874015748},{"duration":0.08571425000000232,"midi":52,"time":60.171403500000004,"velocity":0.3937007874015748},{"duration":0.08571425000000232,"midi":53,"time":60.342832,"velocity":0.3937007874015748},{"duration":0.08571425000000232,"midi":65,"time":60.342832,"velocity":0.3937007874015748},{"duration":0.08571424999999522,"midi":52,"time":60.514260500000006,"velocity":0.3937007874015748},{"duration":0.08571424999999522,"midi":64,"time":60.514260500000006,"velocity":0.3937007874015748},{"duration":0.08571425000000232,"midi":53,"time":60.59997475,"velocity":0.3937007874015748},{"duration":0.08571425000000232,"midi":65,"time":60.59997475,"velocity":0.3937007874015748},{"duration":0.08571425000000232,"midi":64,"time":60.685689,"velocity":0.3937007874015748},{"duration":0.08571425000000232,"midi":52,"time":60.685689,"velocity":0.3937007874015748},{"duration":0.08571425000000232,"midi":60,"time":60.8571175,"velocity":0.3937007874015748},{"duration":0.08571425000000232,"midi":48,"time":60.8571175,"velocity":0.3937007874015748},{"duration":0.08571424999999522,"midi":62,"time":61.028546000000006,"velocity":0.3937007874015748},{"duration":0.08571424999999522,"midi":50,"time":61.028546000000006,"velocity":0.3937007874015748},{"duration":0.08571425000000232,"midi":48,"time":61.1999745,"velocity":0.3937007874015748},{"duration":0.08571425000000232,"midi":60,"time":61.1999745,"velocity":0.3937007874015748},{"duration":0.08571425000000232,"midi":55,"time":61.371403,"velocity":0.3937007874015748},{"duration":0.08571425000000232,"midi":43,"time":61.371403,"velocity":0.3937007874015748},{"duration":0.08571424999999522,"midi":40,"time":61.542831500000005,"velocity":0.3937007874015748},{"duration":0.08571424999999522,"midi":52,"time":61.542831500000005,"velocity":0.3937007874015748},{"duration":0.08571425000000232,"midi":38,"time":61.71426,"velocity":0.3937007874015748},{"duration":0.08571425000000232,"midi":50,"time":61.71426,"velocity":0.3937007874015748},{"duration":0.08571424999999522,"midi":52,"time":61.88568850000001,"velocity":0.3937007874015748},{"duration":0.08571424999999522,"midi":40,"time":61.88568850000001,"velocity":0.3937007874015748},{"duration":0.08571425000000232,"midi":53,"time":62.057117000000005,"velocity":0.3937007874015748},{"duration":0.08571425000000232,"midi":41,"time":62.057117000000005,"velocity":0.3937007874015748},{"duration":0.08571425000000232,"midi":55,"time":62.2285455,"velocity":0.3937007874015748},{"duration":0.08571425000000232,"midi":43,"time":62.2285455,"velocity":0.3937007874015748},{"duration":0.08571424999999522,"midi":45,"time":62.39997400000001,"velocity":0.3937007874015748},{"duration":0.08571424999999522,"midi":57,"time":62.39997400000001,"velocity":0.3937007874015748},{"duration":0.08571425000000232,"midi":61,"time":62.571402500000005,"velocity":0.3937007874015748},{"duration":0.08571425000000232,"midi":49,"time":62.571402500000005,"velocity":0.3937007874015748},{"duration":0.08571425000000232,"midi":50,"time":62.742831,"velocity":0.3937007874015748},{"duration":0.08571425000000232,"midi":62,"time":62.742831,"velocity":0.3937007874015748},{"duration":0.08571424999999522,"midi":52,"time":62.91425950000001,"velocity":0.3937007874015748},{"duration":0.08571424999999522,"midi":64,"time":62.91425950000001,"velocity":0.3937007874015748},{"duration":0.08571425000000232,"midi":61,"time":63.085688000000005,"velocity":0.3937007874015748},{"duration":0.08571425000000232,"midi":49,"time":63.085688000000005,"velocity":0.3937007874015748},{"duration":0.08571425000000232,"midi":69,"time":63.2571165,"velocity":0.3937007874015748},{"duration":0.08571425000000232,"midi":57,"time":63.2571165,"velocity":0.3937007874015748},{"duration":0.08571424999999522,"midi":67,"time":63.42854500000001,"velocity":0.3937007874015748},{"duration":0.08571424999999522,"midi":55,"time":63.42854500000001,"velocity":0.3937007874015748},{"duration":0.08571425000000232,"midi":57,"time":63.51425925,"velocity":0.3937007874015748},{"duration":0.08571425000000232,"midi":69,"time":63.51425925,"velocity":0.3937007874015748},{"duration":0.08571425000000232,"midi":55,"time":63.599973500000004,"velocity":0.3937007874015748},{"duration":0.08571425000000232,"midi":67,"time":63.599973500000004,"velocity":0.3937007874015748},{"duration":0.08571424999999522,"midi":57,"time":63.68568775000001,"velocity":0.3937007874015748},{"duration":0.08571424999999522,"midi":69,"time":63.68568775000001,"velocity":0.3937007874015748},{"duration":0.08571425000000232,"midi":61,"time":63.771402,"velocity":0.3937007874015748},{"duration":0.08571425000000232,"midi":73,"time":63.771402,"velocity":0.3937007874015748},{"duration":0.08571425000000232,"midi":69,"time":63.94283050000001,"velocity":0.3937007874015748},{"duration":0.08571425000000232,"midi":57,"time":63.94283050000001,"velocity":0.3937007874015748},{"duration":0.08571424999999522,"midi":55,"time":64.114259,"velocity":0.3937007874015748},{"duration":0.08571424999999522,"midi":67,"time":64.114259,"velocity":0.3937007874015748},{"duration":0.08571425000000943,"midi":69,"time":64.19997325,"velocity":0.3937007874015748},{"duration":0.08571425000000943,"midi":57,"time":64.19997325,"velocity":0.3937007874015748},{"duration":0.08571424999999522,"midi":55,"time":64.28568750000001,"velocity":0.3937007874015748},{"duration":0.08571424999999522,"midi":67,"time":64.28568750000001,"velocity":0.3937007874015748},{"duration":0.08571424999999522,"midi":69,"time":64.37140175,"velocity":0.3937007874015748},{"duration":0.08571424999999522,"midi":57,"time":64.37140175,"velocity":0.3937007874015748},{"duration":0.08571425000000943,"midi":49,"time":64.457116,"velocity":0.3937007874015748},{"duration":0.08571425000000943,"midi":61,"time":64.457116,"velocity":0.3937007874015748},{"duration":0.08571424999999522,"midi":57,"time":64.6285445,"velocity":0.3937007874015748},{"duration":0.08571424999999522,"midi":69,"time":64.6285445,"velocity":0.3937007874015748},{"duration":0.08571424999999522,"midi":67,"time":64.79997300000001,"velocity":0.3937007874015748},{"duration":0.08571424999999522,"midi":55,"time":64.79997300000001,"velocity":0.3937007874015748},{"duration":0.08571424999999522,"midi":69,"time":64.88568725,"velocity":0.3937007874015748},{"duration":0.08571424999999522,"midi":57,"time":64.88568725,"velocity":0.3937007874015748},{"duration":0.08571425000000943,"midi":55,"time":64.9714015,"velocity":0.3937007874015748},{"duration":0.08571425000000943,"midi":67,"time":64.9714015,"velocity":0.3937007874015748},{"duration":0.08571424999999522,"midi":69,"time":65.05711575000001,"velocity":0.3937007874015748},{"duration":0.08571424999999522,"midi":57,"time":65.05711575000001,"velocity":0.3937007874015748},{"duration":0.08571424999999522,"midi":73,"time":65.14283,"velocity":0.3937007874015748},{"duration":0.08571424999999522,"midi":61,"time":65.14283,"velocity":0.3937007874015748},{"duration":0.08571424999999522,"midi":64,"time":65.31425850000001,"velocity":0.3937007874015748},{"duration":0.08571424999999522,"midi":76,"time":65.31425850000001,"velocity":0.3937007874015748},{"duration":0.08571425000000943,"midi":81,"time":65.485687,"velocity":0.3937007874015748},{"duration":0.08571425000000943,"midi":69,"time":65.485687,"velocity":0.3937007874015748},{"duration":0.08571424999999522,"midi":69,"time":65.82854400000001,"velocity":0.3937007874015748},{"duration":0.08571424999999522,"midi":57,"time":65.82854400000001,"velocity":0.3937007874015748},{"duration":0.08571425000000943,"midi":77,"time":65.9999725,"velocity":0.3937007874015748},{"duration":0.08571425000000943,"midi":65,"time":65.9999725,"velocity":0.3937007874015748},{"duration":0.08571424999999522,"midi":76,"time":66.171401,"velocity":0.3937007874015748},{"duration":0.08571424999999522,"midi":64,"time":66.171401,"velocity":0.3937007874015748},{"duration":0.08571425000000943,"midi":77,"time":66.25711525,"velocity":0.3937007874015748},{"duration":0.08571425000000943,"midi":65,"time":66.25711525,"velocity":0.3937007874015748},{"duration":0.08571424999999522,"midi":76,"time":66.34282950000001,"velocity":0.3937007874015748},{"duration":0.08571424999999522,"midi":64,"time":66.34282950000001,"velocity":0.3937007874015748},{"duration":0.08571425000000943,"midi":79,"time":66.514258,"velocity":0.3937007874015748},{"duration":0.08571425000000943,"midi":67,"time":66.514258,"velocity":0.3937007874015748},{"duration":0.08571424999999522,"midi":65,"time":66.6856865,"velocity":0.3937007874015748},{"duration":0.08571424999999522,"midi":77,"time":66.6856865,"velocity":0.3937007874015748},{"duration":0.08571424999999522,"midi":64,"time":66.85711500000001,"velocity":0.3937007874015748},{"duration":0.08571424999999522,"midi":76,"time":66.85711500000001,"velocity":0.3937007874015748},{"duration":0.08571424999999522,"midi":77,"time":66.94282925,"velocity":0.3937007874015748},{"duration":0.08571424999999522,"midi":65,"time":66.94282925,"velocity":0.3937007874015748},{"duration":0.08571425000000943,"midi":76,"time":67.0285435,"velocity":0.3937007874015748},{"duration":0.08571425000000943,"midi":64,"time":67.0285435,"velocity":0.3937007874015748},{"duration":0.08571424999999522,"midi":60,"time":67.11425775000001,"velocity":0.3937007874015748},{"duration":0.08571424999999522,"midi":72,"time":67.11425775000001,"velocity":0.3937007874015748},{"duration":0.08571424999999522,"midi":62,"time":67.199972,"velocity":0.3937007874015748},{"duration":0.08571424999999522,"midi":74,"time":67.199972,"velocity":0.3937007874015748},{"duration":0.08571424999999522,"midi":81,"time":67.37140050000001,"velocity":0.3937007874015748},{"duration":0.08571424999999522,"midi":69,"time":67.37140050000001,"velocity":0.3937007874015748},{"duration":0.08571425000000943,"midi":67,"time":67.542829,"velocity":0.3937007874015748},{"duration":0.08571425000000943,"midi":79,"time":67.542829,"velocity":0.3937007874015748},{"duration":0.08571424999999522,"midi":81,"time":67.62854325,"velocity":0.3937007874015748},{"duration":0.08571424999999522,"midi":69,"time":67.62854325,"velocity":0.3937007874015748},{"duration":0.08571424999999522,"midi":79,"time":67.7142575,"velocity":0.3937007874015748},{"duration":0.08571424999999522,"midi":67,"time":67.7142575,"velocity":0.3937007874015748},{"duration":0.08571425000000943,"midi":81,"time":67.79997175,"velocity":0.3937007874015748},{"duration":0.08571425000000943,"midi":69,"time":67.79997175,"velocity":0.3937007874015748},{"duration":0.08571424999999522,"midi":84,"time":67.885686,"velocity":0.3937007874015748},{"duration":0.08571424999999522,"midi":72,"time":67.885686,"velocity":0.3937007874015748},{"duration":0.08571424999999522,"midi":81,"time":68.05711450000001,"velocity":0.3937007874015748},{"duration":0.08571424999999522,"midi":69,"time":68.05711450000001,"velocity":0.3937007874015748},{"duration":0.08571425000000943,"midi":67,"time":68.228543,"velocity":0.3937007874015748},{"duration":0.08571425000000943,"midi":79,"time":68.228543,"velocity":0.3937007874015748},{"duration":0.08571424999999522,"midi":81,"time":68.3999715,"velocity":0.3937007874015748},{"duration":0.08571424999999522,"midi":69,"time":68.3999715,"velocity":0.3937007874015748},{"duration":0.08571424999999522,"midi":58,"time":68.57140000000001,"velocity":0.3937007874015748},{"duration":0.08571424999999522,"midi":70,"time":68.57140000000001,"velocity":0.3937007874015748},{"duration":0.08571425000000943,"midi":77,"time":68.7428285,"velocity":0.3937007874015748},{"duration":0.08571425000000943,"midi":65,"time":68.7428285,"velocity":0.3937007874015748},{"duration":0.08571424999999522,"midi":64,"time":68.914257,"velocity":0.3937007874015748},{"duration":0.08571424999999522,"midi":76,"time":68.914257,"velocity":0.3937007874015748},{"duration":0.08571425000000943,"midi":77,"time":68.99997125,"velocity":0.3937007874015748},{"duration":0.08571425000000943,"midi":65,"time":68.99997125,"velocity":0.3937007874015748},{"duration":0.08571424999999522,"midi":64,"time":69.08568550000001,"velocity":0.3937007874015748},{"duration":0.08571424999999522,"midi":76,"time":69.08568550000001,"velocity":0.3937007874015748},{"duration":0.08571425000000943,"midi":67,"time":69.257114,"velocity":0.3937007874015748},{"duration":0.08571425000000943,"midi":79,"time":69.257114,"velocity":0.3937007874015748},{"duration":0.08571424999999522,"midi":77,"time":69.4285425,"velocity":0.3937007874015748},{"duration":0.08571424999999522,"midi":65,"time":69.4285425,"velocity":0.3937007874015748},{"duration":0.08571424999999522,"midi":64,"time":69.59997100000001,"velocity":0.3937007874015748},{"duration":0.08571424999999522,"midi":76,"time":69.59997100000001,"velocity":0.3937007874015748},{"duration":0.08571424999999522,"midi":77,"time":69.68568525,"velocity":0.3937007874015748},{"duration":0.08571424999999522,"midi":65,"time":69.68568525,"velocity":0.3937007874015748},{"duration":0.08571425000000943,"midi":76,"time":69.7713995,"velocity":0.3937007874015748},{"duration":0.08571425000000943,"midi":64,"time":69.7713995,"velocity":0.3937007874015748},{"duration":0.08571424999999522,"midi":72,"time":69.85711375000001,"velocity":0.3937007874015748},{"duration":0.08571424999999522,"midi":60,"time":69.85711375000001,"velocity":0.3937007874015748},{"duration":0.08571424999999522,"midi":74,"time":69.942828,"velocity":0.3937007874015748},{"duration":0.08571424999999522,"midi":62,"time":69.942828,"velocity":0.3937007874015748},{"duration":0.08571424999999522,"midi":69,"time":70.11425650000001,"velocity":0.3937007874015748},{"duration":0.08571424999999522,"midi":81,"time":70.11425650000001,"velocity":0.3937007874015748},{"duration":0.08571425000000943,"midi":79,"time":70.285685,"velocity":0.3937007874015748},{"duration":0.08571425000000943,"midi":67,"time":70.285685,"velocity":0.3937007874015748},{"duration":0.08571424999999522,"midi":69,"time":70.37139925000001,"velocity":0.3937007874015748},{"duration":0.08571424999999522,"midi":81,"time":70.37139925000001,"velocity":0.3937007874015748},{"duration":0.08571424999999522,"midi":67,"time":70.4571135,"velocity":0.3937007874015748},{"duration":0.08571424999999522,"midi":79,"time":70.4571135,"velocity":0.3937007874015748},{"duration":0.08571425000000943,"midi":69,"time":70.54282775,"velocity":0.3937007874015748},{"duration":0.08571425000000943,"midi":81,"time":70.54282775,"velocity":0.3937007874015748},{"duration":0.08571424999999522,"midi":85,"time":70.62854200000001,"velocity":0.3937007874015748},{"duration":0.08571424999999522,"midi":73,"time":70.62854200000001,"velocity":0.3937007874015748},{"duration":0.08571425000000943,"midi":81,"time":70.7999705,"velocity":0.3937007874015748},{"duration":0.08571425000000943,"midi":69,"time":70.7999705,"velocity":0.3937007874015748},{"duration":0.08571424999999522,"midi":79,"time":70.971399,"velocity":0.3937007874015748},{"duration":0.08571424999999522,"midi":67,"time":70.971399,"velocity":0.3937007874015748},{"duration":0.08571424999999522,"midi":69,"time":71.14282750000001,"velocity":0.3937007874015748},{"duration":0.08571424999999522,"midi":81,"time":71.14282750000001,"velocity":0.3937007874015748},{"duration":0.08571425000000943,"midi":57,"time":71.314256,"velocity":0.3937007874015748},{"duration":0.08571425000000943,"midi":69,"time":71.314256,"velocity":0.3937007874015748},{"duration":0.08571424999999522,"midi":65,"time":71.4856845,"velocity":0.3937007874015748},{"duration":0.08571424999999522,"midi":77,"time":71.4856845,"velocity":0.3937007874015748},{"duration":0.08571424999999522,"midi":76,"time":71.65711300000001,"velocity":0.3937007874015748},{"duration":0.08571424999999522,"midi":64,"time":71.65711300000001,"velocity":0.3937007874015748},{"duration":0.08571424999999522,"midi":65,"time":71.74282725,"velocity":0.3937007874015748},{"duration":0.08571424999999522,"midi":77,"time":71.74282725,"velocity":0.3937007874015748},{"duration":0.08571425000000943,"midi":64,"time":71.8285415,"velocity":0.3937007874015748},{"duration":0.08571425000000943,"midi":76,"time":71.8285415,"velocity":0.3937007874015748},{"duration":0.08571424999999522,"midi":67,"time":71.99997,"velocity":0.3937007874015748},{"duration":0.08571424999999522,"midi":79,"time":71.99997,"velocity":0.3937007874015748},{"duration":0.08571424999999522,"midi":77,"time":72.17139850000001,"velocity":0.3937007874015748},{"duration":0.08571424999999522,"midi":65,"time":72.17139850000001,"velocity":0.3937007874015748},{"duration":0.08571425000000943,"midi":76,"time":72.342827,"velocity":0.3937007874015748},{"duration":0.08571425000000943,"midi":64,"time":72.342827,"velocity":0.3937007874015748},{"duration":0.08571424999999522,"midi":77,"time":72.42854125000001,"velocity":0.3937007874015748},{"duration":0.08571424999999522,"midi":65,"time":72.42854125000001,"velocity":0.3937007874015748},{"duration":0.08571424999999522,"midi":64,"time":72.5142555,"velocity":0.3937007874015748},{"duration":0.08571424999999522,"midi":76,"time":72.5142555,"velocity":0.3937007874015748},{"duration":0.08571425000000943,"midi":72,"time":72.59996975,"velocity":0.3937007874015748},{"duration":0.08571425000000943,"midi":60,"time":72.59996975,"velocity":0.3937007874015748},{"duration":0.08571424999999522,"midi":74,"time":72.68568400000001,"velocity":0.3937007874015748},{"duration":0.08571424999999522,"midi":62,"time":72.68568400000001,"velocity":0.3937007874015748},{"duration":0.08571425000000943,"midi":69,"time":72.8571125,"velocity":0.3937007874015748},{"duration":0.08571425000000943,"midi":81,"time":72.8571125,"velocity":0.3937007874015748},{"duration":0.08571424999999522,"midi":67,"time":73.028541,"velocity":0.3937007874015748},{"duration":0.08571424999999522,"midi":79,"time":73.028541,"velocity":0.3937007874015748},{"duration":0.08571425000000943,"midi":81,"time":73.11425525,"velocity":0.3937007874015748},{"duration":0.08571425000000943,"midi":69,"time":73.11425525,"velocity":0.3937007874015748},{"duration":0.08571424999999522,"midi":67,"time":73.19996950000001,"velocity":0.3937007874015748},{"duration":0.08571424999999522,"midi":79,"time":73.19996950000001,"velocity":0.3937007874015748},{"duration":0.08571424999999522,"midi":69,"time":73.28568375,"velocity":0.3937007874015748},{"duration":0.08571424999999522,"midi":81,"time":73.28568375,"velocity":0.3937007874015748},{"duration":0.08571425000000943,"midi":84,"time":73.371398,"velocity":0.3937007874015748},{"duration":0.08571425000000943,"midi":72,"time":73.371398,"velocity":0.3937007874015748},{"duration":0.08571424999999522,"midi":69,"time":73.5428265,"velocity":0.3937007874015748},{"duration":0.08571424999999522,"midi":81,"time":73.5428265,"velocity":0.3937007874015748},{"duration":0.08571425000000943,"midi":84,"time":73.62854075,"velocity":0.3937007874015748},{"duration":0.08571425000000943,"midi":72,"time":73.62854075,"velocity":0.3937007874015748},{"duration":0.08571424999999522,"midi":64,"time":73.71425500000001,"velocity":0.3937007874015748},{"duration":0.08571424999999522,"midi":76,"time":73.71425500000001,"velocity":0.3937007874015748},{"duration":0.08571425000000943,"midi":77,"time":73.8856835,"velocity":0.3937007874015748},{"duration":0.08571425000000943,"midi":65,"time":73.8856835,"velocity":0.3937007874015748},{"duration":0.08571424999999522,"midi":67,"time":74.057112,"velocity":0.3937007874015748},{"duration":0.08571424999999522,"midi":79,"time":74.057112,"velocity":0.3937007874015748},{"duration":0.08571424999999522,"midi":74,"time":74.22854050000001,"velocity":0.3937007874015748},{"duration":0.08571424999999522,"midi":62,"time":74.22854050000001,"velocity":0.3937007874015748},{"duration":0.08571424999999522,"midi":79,"time":74.31425475,"velocity":0.3937007874015748},{"duration":0.08571424999999522,"midi":67,"time":74.31425475,"velocity":0.3937007874015748},{"duration":0.08571424999999522,"midi":62,"time":74.48568325000001,"velocity":0.3937007874015748},{"duration":0.08571424999999522,"midi":74,"time":74.48568325000001,"velocity":0.3937007874015748},{"duration":0.08571424999999522,"midi":67,"time":74.5713975,"velocity":0.3937007874015748},{"duration":0.08571424999999522,"midi":79,"time":74.5713975,"velocity":0.3937007874015748},{"duration":0.08571424999999522,"midi":81,"time":74.74282600000001,"velocity":0.3937007874015748},{"duration":0.08571424999999522,"midi":69,"time":74.74282600000001,"velocity":0.3937007874015748},{"duration":0.08571425000000943,"midi":76,"time":74.9142545,"velocity":0.3937007874015748},{"duration":0.08571425000000943,"midi":64,"time":74.9142545,"velocity":0.3937007874015748},{"duration":0.08571424999999522,"midi":69,"time":74.99996875000001,"velocity":0.3937007874015748},{"duration":0.08571424999999522,"midi":81,"time":74.99996875000001,"velocity":0.3937007874015748},{"duration":0.08571425000000943,"midi":64,"time":75.17139725,"velocity":0.3937007874015748},{"duration":0.08571425000000943,"midi":76,"time":75.17139725,"velocity":0.3937007874015748},{"duration":0.08571424999999522,"midi":69,"time":75.25711150000001,"velocity":0.3937007874015748},{"duration":0.08571424999999522,"midi":81,"time":75.25711150000001,"velocity":0.3937007874015748},{"duration":0.08571425000000943,"midi":82,"time":75.42854,"velocity":0.3937007874015748},{"duration":0.08571425000000943,"midi":70,"time":75.42854,"velocity":0.3937007874015748},{"duration":0.08571424999999522,"midi":77,"time":75.5999685,"velocity":0.3937007874015748},{"duration":0.08571424999999522,"midi":89,"time":75.5999685,"velocity":0.3937007874015748},{"duration":0.08571424999999522,"midi":76,"time":75.77139700000001,"velocity":0.3937007874015748},{"duration":0.08571424999999522,"midi":88,"time":75.77139700000001,"velocity":0.3937007874015748},{"duration":0.08571424999999522,"midi":86,"time":75.94282550000001,"velocity":0.3937007874015748},{"duration":0.08571424999999522,"midi":74,"time":75.94282550000001,"velocity":0.3937007874015748},{"duration":0.08571425000000943,"midi":76,"time":76.114254,"velocity":0.3937007874015748},{"duration":0.08571425000000943,"midi":88,"time":76.114254,"velocity":0.3937007874015748},{"duration":0.08571424999999522,"midi":70,"time":76.799968,"velocity":0.3937007874015748},{"duration":0.08571424999999522,"midi":58,"time":76.799968,"velocity":0.3937007874015748},{"duration":0.08571424999999522,"midi":78,"time":76.97139650000001,"velocity":0.3937007874015748},{"duration":0.08571424999999522,"midi":66,"time":76.97139650000001,"velocity":0.3937007874015748},{"duration":0.08571425000000943,"midi":77,"time":77.142825,"velocity":0.3937007874015748},{"duration":0.08571425000000943,"midi":65,"time":77.142825,"velocity":0.3937007874015748},{"duration":0.08571424999999522,"midi":66,"time":77.22853925000001,"velocity":0.3937007874015748},{"duration":0.08571424999999522,"midi":78,"time":77.22853925000001,"velocity":0.3937007874015748},{"duration":0.08571424999999522,"midi":77,"time":77.3142535,"velocity":0.3937007874015748},{"duration":0.08571424999999522,"midi":65,"time":77.3142535,"velocity":0.3937007874015748},{"duration":0.08571424999999522,"midi":80,"time":77.48568200000001,"velocity":0.3937007874015748},{"duration":0.08571424999999522,"midi":68,"time":77.48568200000001,"velocity":0.3937007874015748},{"duration":0.08571425000000943,"midi":66,"time":77.6571105,"velocity":0.3937007874015748},{"duration":0.08571425000000943,"midi":78,"time":77.6571105,"velocity":0.3937007874015748},{"duration":0.08571424999999522,"midi":65,"time":77.828539,"velocity":0.3937007874015748},{"duration":0.08571424999999522,"midi":77,"time":77.828539,"velocity":0.3937007874015748},{"duration":0.08571425000000943,"midi":66,"time":77.91425325,"velocity":0.3937007874015748},{"duration":0.08571425000000943,"midi":78,"time":77.91425325,"velocity":0.3937007874015748},{"duration":0.08571424999999522,"midi":65,"time":77.99996750000001,"velocity":0.3937007874015748},{"duration":0.08571424999999522,"midi":77,"time":77.99996750000001,"velocity":0.3937007874015748},{"duration":0.08571424999999522,"midi":61,"time":78.08568175,"velocity":0.3937007874015748},{"duration":0.08571424999999522,"midi":73,"time":78.08568175,"velocity":0.3937007874015748},{"duration":0.08571425000000943,"midi":63,"time":78.171396,"velocity":0.3937007874015748},{"duration":0.08571425000000943,"midi":75,"time":78.171396,"velocity":0.3937007874015748},{"duration":0.08571424999999522,"midi":82,"time":78.3428245,"velocity":0.3937007874015748},{"duration":0.08571424999999522,"midi":70,"time":78.3428245,"velocity":0.3937007874015748},{"duration":0.08571424999999522,"midi":68,"time":78.51425300000001,"velocity":0.3937007874015748},{"duration":0.08571424999999522,"midi":80,"time":78.51425300000001,"velocity":0.3937007874015748},{"duration":0.08571424999999522,"midi":70,"time":78.59996725,"velocity":0.3937007874015748},{"duration":0.08571424999999522,"midi":82,"time":78.59996725,"velocity":0.3937007874015748},{"duration":0.08571425000000943,"midi":80,"time":78.6856815,"velocity":0.3937007874015748},{"duration":0.08571425000000943,"midi":68,"time":78.6856815,"velocity":0.3937007874015748},{"duration":0.08571424999999522,"midi":70,"time":78.77139575000001,"velocity":0.3937007874015748},{"duration":0.08571424999999522,"midi":82,"time":78.77139575000001,"velocity":0.3937007874015748},{"duration":0.08571424999999522,"midi":73,"time":78.85711,"velocity":0.3937007874015748},{"duration":0.08571424999999522,"midi":85,"time":78.85711,"velocity":0.3937007874015748},{"duration":0.08571424999999522,"midi":82,"time":79.02853850000001,"velocity":0.3937007874015748},{"duration":0.08571424999999522,"midi":70,"time":79.02853850000001,"velocity":0.3937007874015748},{"duration":0.08571425000000943,"midi":80,"time":79.199967,"velocity":0.3937007874015748},{"duration":0.08571425000000943,"midi":68,"time":79.199967,"velocity":0.3937007874015748},{"duration":0.08571424999999522,"midi":70,"time":79.3713955,"velocity":0.3937007874015748},{"duration":0.08571424999999522,"midi":82,"time":79.3713955,"velocity":0.3937007874015748},{"duration":0.08571424999999522,"midi":71,"time":79.54282400000001,"velocity":0.3937007874015748},{"duration":0.08571424999999522,"midi":59,"time":79.54282400000001,"velocity":0.3937007874015748},{"duration":0.08571425000000943,"midi":78,"time":79.7142525,"velocity":0.3937007874015748},{"duration":0.08571425000000943,"midi":66,"time":79.7142525,"velocity":0.3937007874015748},{"duration":0.08571424999999522,"midi":65,"time":79.885681,"velocity":0.3937007874015748},{"duration":0.08571424999999522,"midi":77,"time":79.885681,"velocity":0.3937007874015748},{"duration":0.08571425000000943,"midi":78,"time":79.97139525,"velocity":0.3937007874015748},{"duration":0.08571425000000943,"midi":66,"time":79.97139525,"velocity":0.3937007874015748},{"duration":0.08571424999999522,"midi":65,"time":80.05710950000001,"velocity":0.3937007874015748},{"duration":0.08571424999999522,"midi":77,"time":80.05710950000001,"velocity":0.3937007874015748},{"duration":0.08571425000000943,"midi":80,"time":80.228538,"velocity":0.3937007874015748},{"duration":0.08571425000000943,"midi":68,"time":80.228538,"velocity":0.3937007874015748},{"duration":0.08571424999999522,"midi":66,"time":80.3999665,"velocity":0.3937007874015748},{"duration":0.08571424999999522,"midi":78,"time":80.3999665,"velocity":0.3937007874015748},{"duration":0.08571424999999522,"midi":65,"time":80.57139500000001,"velocity":0.3937007874015748},{"duration":0.08571424999999522,"midi":77,"time":80.57139500000001,"velocity":0.3937007874015748},{"duration":0.08571424999999522,"midi":66,"time":80.65710925,"velocity":0.3937007874015748},{"duration":0.08571424999999522,"midi":78,"time":80.65710925,"velocity":0.3937007874015748},{"duration":0.08571425000000943,"midi":65,"time":80.7428235,"velocity":0.3937007874015748},{"duration":0.08571425000000943,"midi":77,"time":80.7428235,"velocity":0.3937007874015748},{"duration":0.08571424999999522,"midi":73,"time":80.82853775000001,"velocity":0.3937007874015748},{"duration":0.08571424999999522,"midi":61,"time":80.82853775000001,"velocity":0.3937007874015748},{"duration":0.08571424999999522,"midi":63,"time":80.914252,"velocity":0.3937007874015748},{"duration":0.08571424999999522,"midi":75,"time":80.914252,"velocity":0.3937007874015748},{"duration":0.08571424999999522,"midi":82,"time":81.08568050000001,"velocity":0.3937007874015748},{"duration":0.08571424999999522,"midi":70,"time":81.08568050000001,"velocity":0.3937007874015748},{"duration":0.08571425000000943,"midi":80,"time":81.257109,"velocity":0.3937007874015748},{"duration":0.08571425000000943,"midi":68,"time":81.257109,"velocity":0.3937007874015748},{"duration":0.08571424999999522,"midi":82,"time":81.34282325000001,"velocity":0.3937007874015748},{"duration":0.08571424999999522,"midi":70,"time":81.34282325000001,"velocity":0.3937007874015748},{"duration":0.08571424999999522,"midi":80,"time":81.4285375,"velocity":0.3937007874015748},{"duration":0.08571424999999522,"midi":68,"time":81.4285375,"velocity":0.3937007874015748},{"duration":0.08571425000000943,"midi":70,"time":81.51425175,"velocity":0.3937007874015748},{"duration":0.08571425000000943,"midi":82,"time":81.51425175,"velocity":0.3937007874015748},{"duration":0.08571424999999522,"midi":74,"time":81.59996600000001,"velocity":0.3937007874015748},{"duration":0.08571424999999522,"midi":86,"time":81.59996600000001,"velocity":0.3937007874015748},{"duration":0.08571425000000943,"midi":82,"time":81.7713945,"velocity":0.3937007874015748},{"duration":0.08571425000000943,"midi":70,"time":81.7713945,"velocity":0.3937007874015748},{"duration":0.08571424999999522,"midi":80,"time":81.942823,"velocity":0.3937007874015748},{"duration":0.08571424999999522,"midi":68,"time":81.942823,"velocity":0.3937007874015748},{"duration":0.08571424999999522,"midi":70,"time":82.11425150000001,"velocity":0.3937007874015748},{"duration":0.08571424999999522,"midi":82,"time":82.11425150000001,"velocity":0.3937007874015748},{"duration":0.08571425000000943,"midi":70,"time":82.28568,"velocity":0.3937007874015748},{"duration":0.08571425000000943,"midi":58,"time":82.28568,"velocity":0.3937007874015748},{"duration":0.08571424999999522,"midi":78,"time":82.4571085,"velocity":0.3937007874015748},{"duration":0.08571424999999522,"midi":66,"time":82.4571085,"velocity":0.3937007874015748},{"duration":0.08571424999999522,"midi":77,"time":82.62853700000001,"velocity":0.3937007874015748},{"duration":0.08571424999999522,"midi":65,"time":82.62853700000001,"velocity":0.3937007874015748},{"duration":0.08571424999999522,"midi":66,"time":82.71425125,"velocity":0.3937007874015748},{"duration":0.08571424999999522,"midi":78,"time":82.71425125,"velocity":0.3937007874015748},{"duration":0.08571425000000943,"midi":77,"time":82.7999655,"velocity":0.3937007874015748},{"duration":0.08571425000000943,"midi":65,"time":82.7999655,"velocity":0.3937007874015748},{"duration":0.08571424999999522,"midi":80,"time":82.971394,"velocity":0.3937007874015748},{"duration":0.08571424999999522,"midi":68,"time":82.971394,"velocity":0.3937007874015748},{"duration":0.08571424999999522,"midi":78,"time":83.14282250000001,"velocity":0.3937007874015748},{"duration":0.08571424999999522,"midi":66,"time":83.14282250000001,"velocity":0.3937007874015748},{"duration":0.08571425000000943,"midi":65,"time":83.314251,"velocity":0.3937007874015748},{"duration":0.08571425000000943,"midi":77,"time":83.314251,"velocity":0.3937007874015748},{"duration":0.08571424999999522,"midi":78,"time":83.39996525000001,"velocity":0.3937007874015748},{"duration":0.08571424999999522,"midi":66,"time":83.39996525000001,"velocity":0.3937007874015748},{"duration":0.08571424999999522,"midi":77,"time":83.4856795,"velocity":0.3937007874015748},{"duration":0.08571424999999522,"midi":65,"time":83.4856795,"velocity":0.3937007874015748},{"duration":0.08571425000000943,"midi":73,"time":83.57139375,"velocity":0.3937007874015748},{"duration":0.08571425000000943,"midi":61,"time":83.57139375,"velocity":0.3937007874015748},{"duration":0.08571424999999522,"midi":63,"time":83.65710800000001,"velocity":0.3937007874015748},{"duration":0.08571424999999522,"midi":75,"time":83.65710800000001,"velocity":0.3937007874015748},{"duration":0.08571424999999522,"midi":70,"time":83.82853650000001,"velocity":0.3937007874015748},{"duration":0.08571424999999522,"midi":82,"time":83.82853650000001,"velocity":0.3937007874015748},{"duration":0.08571425000000943,"midi":80,"time":83.999965,"velocity":0.3937007874015748},{"duration":0.08571425000000943,"midi":68,"time":83.999965,"velocity":0.3937007874015748},{"duration":0.08571424999999522,"midi":70,"time":84.08567925000001,"velocity":0.3937007874015748},{"duration":0.08571424999999522,"midi":82,"time":84.08567925000001,"velocity":0.3937007874015748},{"duration":0.08571424999999522,"midi":68,"time":84.17139350000001,"velocity":0.3937007874015748},{"duration":0.08571424999999522,"midi":80,"time":84.17139350000001,"velocity":0.3937007874015748},{"duration":0.08571425000000943,"midi":82,"time":84.25710775,"velocity":0.3937007874015748},{"duration":0.08571425000000943,"midi":70,"time":84.25710775,"velocity":0.3937007874015748},{"duration":0.08571424999999522,"midi":73,"time":84.34282200000001,"velocity":0.3937007874015748},{"duration":0.08571424999999522,"midi":85,"time":84.34282200000001,"velocity":0.3937007874015748},{"duration":0.08571425000000943,"midi":82,"time":84.5142505,"velocity":0.3937007874015748},{"duration":0.08571425000000943,"midi":70,"time":84.5142505,"velocity":0.3937007874015748},{"duration":0.08571424999999522,"midi":73,"time":84.59996475000001,"velocity":0.3937007874015748},{"duration":0.08571424999999522,"midi":85,"time":84.59996475000001,"velocity":0.3937007874015748},{"duration":0.08571424999999522,"midi":65,"time":84.68567900000001,"velocity":0.3937007874015748},{"duration":0.08571424999999522,"midi":77,"time":84.68567900000001,"velocity":0.3937007874015748},{"duration":0.08571424999999522,"midi":78,"time":84.85710750000001,"velocity":0.3937007874015748},{"duration":0.08571424999999522,"midi":66,"time":84.85710750000001,"velocity":0.3937007874015748},{"duration":0.08571425000000943,"midi":80,"time":85.028536,"velocity":0.3937007874015748},{"duration":0.08571425000000943,"midi":68,"time":85.028536,"velocity":0.3937007874015748},{"duration":0.08571424999999522,"midi":63,"time":85.19996450000001,"velocity":0.3937007874015748},{"duration":0.08571424999999522,"midi":75,"time":85.19996450000001,"velocity":0.3937007874015748},{"duration":0.08571425000000943,"midi":80,"time":85.28567875,"velocity":0.3937007874015748},{"duration":0.08571425000000943,"midi":68,"time":85.28567875,"velocity":0.3937007874015748},{"duration":0.08571424999999522,"midi":63,"time":85.45710725,"velocity":0.3937007874015748},{"duration":0.08571424999999522,"midi":75,"time":85.45710725,"velocity":0.3937007874015748},{"duration":0.08571425000000943,"midi":68,"time":85.5428215,"velocity":0.3937007874015748},{"duration":0.08571425000000943,"midi":80,"time":85.5428215,"velocity":0.3937007874015748},{"duration":0.08571424999999522,"midi":82,"time":85.71425,"velocity":0.3937007874015748},{"duration":0.08571424999999522,"midi":70,"time":85.71425,"velocity":0.3937007874015748},{"duration":0.08571424999999522,"midi":77,"time":85.88567850000001,"velocity":0.3937007874015748},{"duration":0.08571424999999522,"midi":65,"time":85.88567850000001,"velocity":0.3937007874015748},{"duration":0.08571424999999522,"midi":82,"time":85.97139275,"velocity":0.3937007874015748},{"duration":0.08571424999999522,"midi":70,"time":85.97139275,"velocity":0.3937007874015748},{"duration":0.08571424999999522,"midi":65,"time":86.14282125000001,"velocity":0.3937007874015748},{"duration":0.08571424999999522,"midi":77,"time":86.14282125000001,"velocity":0.3937007874015748},{"duration":0.08571424999999522,"midi":70,"time":86.2285355,"velocity":0.3937007874015748},{"duration":0.08571424999999522,"midi":82,"time":86.2285355,"velocity":0.3937007874015748},{"duration":0.08571424999999522,"midi":83,"time":86.39996400000001,"velocity":0.3937007874015748},{"duration":0.08571424999999522,"midi":71,"time":86.39996400000001,"velocity":0.3937007874015748},{"duration":0.08571424999999522,"midi":78,"time":86.48567825,"velocity":0.3937007874015748},{"duration":0.08571424999999522,"midi":66,"time":86.48567825,"velocity":0.3937007874015748},{"duration":0.08571425000000943,"midi":83,"time":86.5713925,"velocity":0.3937007874015748},{"duration":0.08571425000000943,"midi":71,"time":86.5713925,"velocity":0.3937007874015748},{"duration":0.08571424999999522,"midi":71,"time":86.65710675000001,"velocity":0.3937007874015748},{"duration":0.08571424999999522,"midi":83,"time":86.65710675000001,"velocity":0.3937007874015748},{"duration":0.08571424999999522,"midi":83,"time":86.742821,"velocity":0.3937007874015748},{"duration":0.08571424999999522,"midi":71,"time":86.742821,"velocity":0.3937007874015748},{"duration":0.08571424999999522,"midi":84,"time":86.91424950000001,"velocity":0.3937007874015748},{"duration":0.08571424999999522,"midi":72,"time":86.91424950000001,"velocity":0.3937007874015748},{"duration":0.08571425000000943,"midi":73,"time":87.085678,"velocity":0.3937007874015748},{"duration":0.08571425000000943,"midi":85,"time":87.085678,"velocity":0.3937007874015748},{"duration":0.08571424999999522,"midi":70,"time":87.771392,"velocity":0.3937007874015748},{"duration":0.08571424999999522,"midi":58,"time":87.771392,"velocity":0.3937007874015748},{"duration":0.08571424999999522,"midi":78,"time":87.94282050000001,"velocity":0.3937007874015748},{"duration":0.08571424999999522,"midi":66,"time":87.94282050000001,"velocity":0.3937007874015748},{"duration":0.08571425000000943,"midi":65,"time":88.114249,"velocity":0.3937007874015748},{"duration":0.08571425000000943,"midi":77,"time":88.114249,"velocity":0.3937007874015748},{"duration":0.08571424999999522,"midi":66,"time":88.19996325000001,"velocity":0.3937007874015748},{"duration":0.08571424999999522,"midi":78,"time":88.19996325000001,"velocity":0.3937007874015748},{"duration":0.08571424999999522,"midi":77,"time":88.2856775,"velocity":0.3937007874015748},{"duration":0.08571424999999522,"midi":65,"time":88.2856775,"velocity":0.3937007874015748},{"duration":0.08571424999999522,"midi":80,"time":88.45710600000001,"velocity":0.3937007874015748},{"duration":0.08571424999999522,"midi":68,"time":88.45710600000001,"velocity":0.3937007874015748},{"duration":0.08571425000000943,"midi":66,"time":88.6285345,"velocity":0.3937007874015748},{"duration":0.08571425000000943,"midi":78,"time":88.6285345,"velocity":0.3937007874015748},{"duration":0.08571424999999522,"midi":77,"time":88.799963,"velocity":0.3937007874015748},{"duration":0.08571424999999522,"midi":65,"time":88.799963,"velocity":0.3937007874015748},{"duration":0.08571425000000943,"midi":78,"time":88.88567725,"velocity":0.3937007874015748},{"duration":0.08571425000000943,"midi":66,"time":88.88567725,"velocity":0.3937007874015748},{"duration":0.08571424999999522,"midi":77,"time":88.97139150000001,"velocity":0.3937007874015748},{"duration":0.08571424999999522,"midi":65,"time":88.97139150000001,"velocity":0.3937007874015748},{"duration":0.08571424999999522,"midi":73,"time":89.05710575,"velocity":0.3937007874015748},{"duration":0.08571424999999522,"midi":61,"time":89.05710575,"velocity":0.3937007874015748},{"duration":0.08571425000000943,"midi":63,"time":89.14282,"velocity":0.3937007874015748},{"duration":0.08571425000000943,"midi":75,"time":89.14282,"velocity":0.3937007874015748},{"duration":0.08571424999999522,"midi":82,"time":89.3142485,"velocity":0.3937007874015748},{"duration":0.08571424999999522,"midi":70,"time":89.3142485,"velocity":0.3937007874015748},{"duration":0.08571424999999522,"midi":68,"time":89.48567700000001,"velocity":0.3937007874015748},{"duration":0.08571424999999522,"midi":80,"time":89.48567700000001,"velocity":0.3937007874015748},{"duration":0.08571424999999522,"midi":82,"time":89.57139125,"velocity":0.3937007874015748},{"duration":0.08571424999999522,"midi":70,"time":89.57139125,"velocity":0.3937007874015748},{"duration":0.08571425000000943,"midi":80,"time":89.6571055,"velocity":0.3937007874015748},{"duration":0.08571425000000943,"midi":68,"time":89.6571055,"velocity":0.3937007874015748},{"duration":0.08571424999999522,"midi":70,"time":89.74281975000001,"velocity":0.3937007874015748},{"duration":0.08571424999999522,"midi":82,"time":89.74281975000001,"velocity":0.3937007874015748},{"duration":0.08571424999999522,"midi":73,"time":89.828534,"velocity":0.3937007874015748},{"duration":0.08571424999999522,"midi":85,"time":89.828534,"velocity":0.3937007874015748},{"duration":0.08571424999999522,"midi":70,"time":89.99996250000001,"velocity":0.3937007874015748},{"duration":0.08571424999999522,"midi":82,"time":89.99996250000001,"velocity":0.3937007874015748},{"duration":0.08571425000000943,"midi":80,"time":90.171391,"velocity":0.3937007874015748},{"duration":0.08571425000000943,"midi":68,"time":90.171391,"velocity":0.3937007874015748},{"duration":0.08571424999999522,"midi":82,"time":90.3428195,"velocity":0.3937007874015748},{"duration":0.08571424999999522,"midi":70,"time":90.3428195,"velocity":0.3937007874015748},{"duration":0.08571424999999522,"midi":71,"time":90.51424800000001,"velocity":0.3937007874015748},{"duration":0.08571424999999522,"midi":59,"time":90.51424800000001,"velocity":0.3937007874015748},{"duration":0.08571425000000943,"midi":66,"time":90.6856765,"velocity":0.3937007874015748},{"duration":0.08571425000000943,"midi":78,"time":90.6856765,"velocity":0.3937007874015748},{"duration":0.08571424999999522,"midi":77,"time":90.857105,"velocity":0.3937007874015748},{"duration":0.08571424999999522,"midi":65,"time":90.857105,"velocity":0.3937007874015748},{"duration":0.08571425000000943,"midi":78,"time":90.94281925,"velocity":0.3937007874015748},{"duration":0.08571425000000943,"midi":66,"time":90.94281925,"velocity":0.3937007874015748},{"duration":0.08571424999999522,"midi":77,"time":91.02853350000001,"velocity":0.3937007874015748},{"duration":0.08571424999999522,"midi":65,"time":91.02853350000001,"velocity":0.3937007874015748},{"duration":0.08571425000000943,"midi":68,"time":91.199962,"velocity":0.3937007874015748},{"duration":0.08571425000000943,"midi":80,"time":91.199962,"velocity":0.3937007874015748},{"duration":0.08571424999999522,"midi":66,"time":91.3713905,"velocity":0.3937007874015748},{"duration":0.08571424999999522,"midi":78,"time":91.3713905,"velocity":0.3937007874015748},{"duration":0.08571424999999522,"midi":65,"time":91.54281900000001,"velocity":0.3937007874015748},{"duration":0.08571424999999522,"midi":77,"time":91.54281900000001,"velocity":0.3937007874015748},{"duration":0.08571424999999522,"midi":66,"time":91.62853325,"velocity":0.3937007874015748},{"duration":0.08571424999999522,"midi":78,"time":91.62853325,"velocity":0.3937007874015748},{"duration":0.08571425000000943,"midi":65,"time":91.7142475,"velocity":0.3937007874015748},{"duration":0.08571425000000943,"midi":77,"time":91.7142475,"velocity":0.3937007874015748},{"duration":0.08571424999999522,"midi":61,"time":91.79996175000001,"velocity":0.3937007874015748},{"duration":0.08571424999999522,"midi":73,"time":91.79996175000001,"velocity":0.3937007874015748},{"duration":0.08571425000000943,"midi":75,"time":91.885676,"velocity":0.3937007874015748},{"duration":0.08571425000000943,"midi":63,"time":91.885676,"velocity":0.3937007874015748},{"duration":0.08571424999999522,"midi":70,"time":92.05710450000001,"velocity":0.3937007874015748},{"duration":0.08571424999999522,"midi":82,"time":92.05710450000001,"velocity":0.3937007874015748},{"duration":0.08571424999999522,"midi":68,"time":92.22853300000001,"velocity":0.3937007874015748},{"duration":0.08571424999999522,"midi":80,"time":92.22853300000001,"velocity":0.3937007874015748},{"duration":0.08571424999999522,"midi":82,"time":92.31424725000001,"velocity":0.3937007874015748},{"duration":0.08571424999999522,"midi":70,"time":92.31424725000001,"velocity":0.3937007874015748},{"duration":0.08571425000000943,"midi":80,"time":92.3999615,"velocity":0.3937007874015748},{"duration":0.08571425000000943,"midi":68,"time":92.3999615,"velocity":0.3937007874015748},{"duration":0.08571424999999522,"midi":70,"time":92.48567575000001,"velocity":0.3937007874015748},{"duration":0.08571424999999522,"midi":82,"time":92.48567575000001,"velocity":0.3937007874015748},{"duration":0.08571424999999522,"midi":74,"time":92.57139000000001,"velocity":0.3937007874015748},{"duration":0.08571424999999522,"midi":86,"time":92.57139000000001,"velocity":0.3937007874015748},{"duration":0.08571424999999522,"midi":70,"time":92.74281850000001,"velocity":0.3937007874015748},{"duration":0.08571424999999522,"midi":82,"time":92.74281850000001,"velocity":0.3937007874015748},{"duration":0.08571425000000943,"midi":86,"time":92.914247,"velocity":0.3937007874015748},{"duration":0.08571425000000943,"midi":74,"time":92.914247,"velocity":0.3937007874015748},{"duration":0.08571424999999522,"midi":77,"time":93.08567550000001,"velocity":0.3937007874015748},{"duration":0.08571424999999522,"midi":89,"time":93.08567550000001,"velocity":0.3937007874015748},{"duration":0.08571424999999522,"midi":75,"time":93.25710400000001,"velocity":0.3937007874015748},{"duration":0.08571424999999522,"midi":87,"time":93.25710400000001,"velocity":0.3937007874015748},{"duration":0.08571424999999522,"midi":75,"time":93.77138950000001,"velocity":0.3937007874015748},{"duration":0.08571424999999522,"midi":87,"time":93.77138950000001,"velocity":0.3937007874015748},{"duration":0.08571425000000943,"midi":75,"time":93.942818,"velocity":0.3937007874015748},{"duration":0.08571425000000943,"midi":87,"time":93.942818,"velocity":0.3937007874015748},{"duration":0.08571424999999522,"midi":73,"time":94.11424650000001,"velocity":0.3937007874015748},{"duration":0.08571424999999522,"midi":85,"time":94.11424650000001,"velocity":0.3937007874015748},{"duration":0.08571425000000943,"midi":87,"time":94.4571035,"velocity":0.3937007874015748},{"duration":0.08571425000000943,"midi":75,"time":94.4571035,"velocity":0.3937007874015748},{"duration":0.08571424999999522,"midi":75,"time":94.79996050000001,"velocity":0.3937007874015748},{"duration":0.08571424999999522,"midi":87,"time":94.79996050000001,"velocity":0.3937007874015748},{"duration":0.08571425000000943,"midi":73,"time":94.971389,"velocity":0.3937007874015748},{"duration":0.08571425000000943,"midi":85,"time":94.971389,"velocity":0.3937007874015748},{"duration":0.08571424999999522,"midi":87,"time":95.1428175,"velocity":0.3937007874015748},{"duration":0.08571424999999522,"midi":75,"time":95.1428175,"velocity":0.3937007874015748},{"duration":0.08571424999999522,"midi":87,"time":95.31424600000001,"velocity":0.3937007874015748},{"duration":0.08571424999999522,"midi":75,"time":95.31424600000001,"velocity":0.3937007874015748},{"duration":0.08571424999999522,"midi":73,"time":95.39996025,"velocity":0.3937007874015748},{"duration":0.08571424999999522,"midi":85,"time":95.39996025,"velocity":0.3937007874015748},{"duration":0.08571425000000943,"midi":82,"time":95.4856745,"velocity":0.3937007874015748},{"duration":0.08571425000000943,"midi":70,"time":95.4856745,"velocity":0.3937007874015748},{"duration":0.08571424999999522,"midi":78,"time":95.657103,"velocity":0.3937007874015748},{"duration":0.08571424999999522,"midi":66,"time":95.657103,"velocity":0.3937007874015748},{"duration":0.08571424999999522,"midi":79,"time":95.82853150000001,"velocity":0.3937007874015748},{"duration":0.08571424999999522,"midi":67,"time":95.82853150000001,"velocity":0.3937007874015748},{"duration":0.08571425000000943,"midi":68,"time":95.99996,"velocity":0.3937007874015748},{"duration":0.08571425000000943,"midi":80,"time":95.99996,"velocity":0.3937007874015748},{"duration":0.08571424999999522,"midi":75,"time":96.1713885,"velocity":0.3937007874015748},{"duration":0.08571424999999522,"midi":63,"time":96.1713885,"velocity":0.3937007874015748},{"duration":0.08571425000000943,"midi":68,"time":96.25710275,"velocity":0.3937007874015748},{"duration":0.08571425000000943,"midi":80,"time":96.25710275,"velocity":0.3937007874015748},{"duration":0.08571424999999522,"midi":75,"time":96.42853125,"velocity":0.3937007874015748},{"duration":0.08571424999999522,"midi":63,"time":96.42853125,"velocity":0.3937007874015748},{"duration":0.08571425000000943,"midi":68,"time":96.5142455,"velocity":0.3937007874015748},{"duration":0.08571425000000943,"midi":80,"time":96.5142455,"velocity":0.3937007874015748},{"duration":0.08571424999999522,"midi":70,"time":96.685674,"velocity":0.3937007874015748},{"duration":0.08571424999999522,"midi":82,"time":96.685674,"velocity":0.3937007874015748},{"duration":0.08571424999999522,"midi":78,"time":96.85710250000001,"velocity":0.3937007874015748},{"duration":0.08571424999999522,"midi":90,"time":96.85710250000001,"velocity":0.3937007874015748},{"duration":0.08571425000000943,"midi":89,"time":97.028531,"velocity":0.3937007874015748},{"duration":0.08571425000000943,"midi":77,"time":97.028531,"velocity":0.3937007874015748},{"duration":0.08571424999999522,"midi":73,"time":97.1999595,"velocity":0.3937007874015748},{"duration":0.08571424999999522,"midi":85,"time":97.1999595,"velocity":0.3937007874015748},{"duration":0.08571424999999522,"midi":75,"time":97.37138800000001,"velocity":0.3937007874015748},{"duration":0.08571424999999522,"midi":87,"time":97.37138800000001,"velocity":0.3937007874015748}]},{"instrument":{"family":"drums","number":0,"name":"standard kit"},"notes":[{"duration":0.08571425,"midi":0,"time":0,"velocity":0.1732283464566929},{"duration":0.08571425,"midi":0,"time":0,"velocity":0.1732283464566929},{"duration":0.08571425,"midi":0,"time":0,"velocity":0.1732283464566929},{"duration":0.08571425,"midi":0,"time":0,"velocity":0.1732283464566929},{"duration":0.08571425,"midi":0,"time":0,"velocity":0.1732283464566929},{"duration":0.08571425,"midi":0,"time":0.08571425,"velocity":0.1732283464566929},{"duration":0.08571425000000002,"midi":0,"time":0.1714285,"velocity":0.1732283464566929},{"duration":0.08571425000000002,"midi":0,"time":0.1714285,"velocity":0.1732283464566929},{"duration":0.08571425000000002,"midi":0,"time":0.1714285,"velocity":0.1732283464566929},{"duration":0.08571424999999999,"midi":0,"time":0.25714275000000003,"velocity":0.1732283464566929},{"duration":0.08571424999999999,"midi":0,"time":0.342857,"velocity":0.1732283464566929},{"duration":0.08571424999999999,"midi":0,"time":0.342857,"velocity":0.1732283464566929},{"duration":0.08571424999999999,"midi":0,"time":0.342857,"velocity":0.1732283464566929},{"duration":0.08571425000000005,"midi":0,"time":0.42857125,"velocity":0.1732283464566929},{"duration":0.08571424999999999,"midi":0,"time":0.5142855000000001,"velocity":0.1732283464566929},{"duration":0.08571424999999999,"midi":0,"time":0.5142855000000001,"velocity":0.1732283464566929},{"duration":0.08571424999999999,"midi":0,"time":0.5142855000000001,"velocity":0.1732283464566929},{"duration":0.08571424999999999,"midi":0,"time":0.59999975,"velocity":0.1732283464566929},{"duration":0.08571424999999999,"midi":0,"time":0.685714,"velocity":0.1732283464566929},{"duration":0.08571424999999999,"midi":0,"time":0.77142825,"velocity":0.1732283464566929},{"duration":0.08571424999999999,"midi":0,"time":0.8571425,"velocity":0.1732283464566929},{"duration":0.08571424999999999,"midi":0,"time":0.8571425,"velocity":0.1732283464566929},{"duration":0.08571424999999999,"midi":0,"time":0.8571425,"velocity":0.1732283464566929},{"duration":0.0857142500000001,"midi":0,"time":0.94285675,"velocity":0.1732283464566929},{"duration":0.08571424999999988,"midi":0,"time":1.0285710000000001,"velocity":0.1732283464566929},{"duration":0.08571424999999988,"midi":0,"time":1.0285710000000001,"velocity":0.1732283464566929},{"duration":0.08571424999999988,"midi":0,"time":1.0285710000000001,"velocity":0.1732283464566929},{"duration":0.0857142500000001,"midi":0,"time":1.11428525,"velocity":0.1732283464566929},{"duration":0.08571424999999988,"midi":0,"time":1.1999995,"velocity":0.1732283464566929},{"duration":0.08571424999999988,"midi":0,"time":1.1999995,"velocity":0.1732283464566929},{"duration":0.08571424999999988,"midi":0,"time":1.1999995,"velocity":0.1732283464566929},{"duration":0.0857142500000001,"midi":0,"time":1.28571375,"velocity":0.1732283464566929},{"duration":0.0857142500000001,"midi":0,"time":1.371428,"velocity":0.1732283464566929},{"duration":0.0857142500000001,"midi":0,"time":1.371428,"velocity":0.1732283464566929},{"duration":0.0857142500000001,"midi":0,"time":1.371428,"velocity":0.1732283464566929},{"duration":0.08571424999999988,"midi":0,"time":1.4571422500000002,"velocity":0.1732283464566929},{"duration":0.0857142500000001,"midi":0,"time":1.5428565,"velocity":0.1732283464566929},{"duration":0.0857142500000001,"midi":0,"time":1.5428565,"velocity":0.1732283464566929},{"duration":0.0857142500000001,"midi":0,"time":1.5428565,"velocity":0.1732283464566929},{"duration":0.08571424999999988,"midi":0,"time":1.6285707500000002,"velocity":0.1732283464566929},{"duration":0.0857142500000001,"midi":0,"time":1.714285,"velocity":0.1732283464566929},{"duration":0.0857142500000001,"midi":0,"time":1.714285,"velocity":0.1732283464566929},{"duration":0.0857142500000001,"midi":0,"time":1.714285,"velocity":0.1732283464566929},{"duration":0.08571424999999988,"midi":0,"time":1.7999992500000002,"velocity":0.1732283464566929},{"duration":0.0857142500000001,"midi":0,"time":1.8857135,"velocity":0.1732283464566929},{"duration":0.0857142500000001,"midi":0,"time":1.8857135,"velocity":0.1732283464566929},{"duration":0.0857142500000001,"midi":0,"time":1.8857135,"velocity":0.1732283464566929},{"duration":0.0857142500000001,"midi":0,"time":1.9714277500000001,"velocity":0.1732283464566929},{"duration":0.0857142500000001,"midi":0,"time":2.0571420000000002,"velocity":0.1732283464566929},{"duration":0.08571424999999966,"midi":0,"time":2.1428562500000004,"velocity":0.1732283464566929},{"duration":0.0857142500000001,"midi":0,"time":2.2285705,"velocity":0.1732283464566929},{"duration":0.0857142500000001,"midi":0,"time":2.2285705,"velocity":0.1732283464566929},{"duration":0.0857142500000001,"midi":0,"time":2.2285705,"velocity":0.1732283464566929},{"duration":0.0857142500000001,"midi":0,"time":2.31428475,"velocity":0.1732283464566929},{"duration":0.0857142500000001,"midi":0,"time":2.399999,"velocity":0.1732283464566929},{"duration":0.0857142500000001,"midi":0,"time":2.399999,"velocity":0.1732283464566929},{"duration":0.0857142500000001,"midi":0,"time":2.399999,"velocity":0.1732283464566929},{"duration":0.08571424999999966,"midi":0,"time":2.4857132500000003,"velocity":0.1732283464566929},{"duration":0.0857142500000001,"midi":0,"time":2.5714275,"velocity":0.1732283464566929},{"duration":0.0857142500000001,"midi":0,"time":2.5714275,"velocity":0.1732283464566929},{"duration":0.0857142500000001,"midi":0,"time":2.5714275,"velocity":0.1732283464566929},{"duration":0.0857142500000001,"midi":0,"time":2.65714175,"velocity":0.1732283464566929},{"duration":0.0857142500000001,"midi":0,"time":2.742856,"velocity":0.1732283464566929},{"duration":0.0857142500000001,"midi":0,"time":2.742856,"velocity":0.1732283464566929},{"duration":0.0857142500000001,"midi":0,"time":2.742856,"velocity":0.1732283464566929},{"duration":0.0857142500000001,"midi":0,"time":2.8285702500000003,"velocity":0.1732283464566929},{"duration":0.08571424999999966,"midi":0,"time":2.9142845000000004,"velocity":0.1732283464566929},{"duration":0.08571424999999966,"midi":0,"time":2.9142845000000004,"velocity":0.1732283464566929},{"duration":0.08571424999999966,"midi":0,"time":2.9142845000000004,"velocity":0.1732283464566929},{"duration":0.0857142500000001,"midi":0,"time":2.99999875,"velocity":0.1732283464566929},{"duration":0.0857142500000001,"midi":0,"time":3.085713,"velocity":0.1732283464566929},{"duration":0.0857142500000001,"midi":0,"time":3.085713,"velocity":0.1732283464566929},{"duration":0.0857142500000001,"midi":0,"time":3.085713,"velocity":0.1732283464566929},{"duration":0.0857142500000001,"midi":0,"time":3.1714272500000003,"velocity":0.1732283464566929},{"duration":0.08571424999999966,"midi":0,"time":3.2571415000000004,"velocity":0.1732283464566929},{"duration":0.08571424999999966,"midi":0,"time":3.2571415000000004,"velocity":0.1732283464566929},{"duration":0.08571424999999966,"midi":0,"time":3.2571415000000004,"velocity":0.1732283464566929},{"duration":0.0857142500000001,"midi":0,"time":3.34285575,"velocity":0.1732283464566929},{"duration":0.0857142500000001,"midi":0,"time":3.42857,"velocity":0.1732283464566929},{"duration":0.0857142500000001,"midi":0,"time":3.51428425,"velocity":0.1732283464566929},{"duration":0.0857142500000001,"midi":0,"time":3.5999985000000003,"velocity":0.1732283464566929},{"duration":0.0857142500000001,"midi":0,"time":3.5999985000000003,"velocity":0.1732283464566929},{"duration":0.0857142500000001,"midi":0,"time":3.5999985000000003,"velocity":0.1732283464566929},{"duration":0.08571424999999966,"midi":0,"time":3.6857127500000004,"velocity":0.1732283464566929},{"duration":0.0857142500000001,"midi":0,"time":3.771427,"velocity":0.1732283464566929},{"duration":0.0857142500000001,"midi":0,"time":3.771427,"velocity":0.1732283464566929},{"duration":0.0857142500000001,"midi":0,"time":3.771427,"velocity":0.1732283464566929},{"duration":0.0857142500000001,"midi":0,"time":3.85714125,"velocity":0.1732283464566929},{"duration":0.08571424999999966,"midi":0,"time":3.9428555000000003,"velocity":0.1732283464566929},{"duration":0.08571424999999966,"midi":0,"time":3.9428555000000003,"velocity":0.1732283464566929},{"duration":0.08571424999999966,"midi":0,"time":3.9428555000000003,"velocity":0.1732283464566929},{"duration":0.08571425000000055,"midi":0,"time":4.02856975,"velocity":0.1732283464566929},{"duration":0.08571424999999966,"midi":0,"time":4.1142840000000005,"velocity":0.1732283464566929},{"duration":0.08571424999999966,"midi":0,"time":4.1142840000000005,"velocity":0.1732283464566929},{"duration":0.08571424999999966,"midi":0,"time":4.1142840000000005,"velocity":0.1732283464566929},{"duration":0.08571425000000055,"midi":0,"time":4.19999825,"velocity":0.1732283464566929},{"duration":0.08571424999999966,"midi":0,"time":4.285712500000001,"velocity":0.1732283464566929},{"duration":0.08571424999999966,"midi":0,"time":4.285712500000001,"velocity":0.1732283464566929},{"duration":0.08571424999999966,"midi":0,"time":4.285712500000001,"velocity":0.1732283464566929},{"duration":0.08571424999999966,"midi":0,"time":4.37142675,"velocity":0.1732283464566929},{"duration":0.08571425000000055,"midi":0,"time":4.457141,"velocity":0.1732283464566929},{"duration":0.08571425000000055,"midi":0,"time":4.457141,"velocity":0.1732283464566929},{"duration":0.08571425000000055,"midi":0,"time":4.457141,"velocity":0.1732283464566929},{"duration":0.08571424999999966,"midi":0,"time":4.542855250000001,"velocity":0.1732283464566929},{"duration":0.08571424999999966,"midi":0,"time":4.6285695,"velocity":0.1732283464566929},{"duration":0.08571424999999966,"midi":0,"time":4.6285695,"velocity":0.1732283464566929},{"duration":0.08571424999999966,"midi":0,"time":4.6285695,"velocity":0.1732283464566929},{"duration":0.08571425000000055,"midi":0,"time":4.71428375,"velocity":0.1732283464566929},{"duration":0.08571424999999966,"midi":0,"time":4.799998,"velocity":0.1732283464566929},{"duration":0.08571425000000055,"midi":0,"time":4.88571225,"velocity":0.1732283464566929},{"duration":0.08571424999999966,"midi":0,"time":4.971426500000001,"velocity":0.1732283464566929},{"duration":0.08571424999999966,"midi":0,"time":4.971426500000001,"velocity":0.1732283464566929},{"duration":0.08571424999999966,"midi":0,"time":4.971426500000001,"velocity":0.1732283464566929},{"duration":0.08571424999999966,"midi":0,"time":5.05714075,"velocity":0.1732283464566929},{"duration":0.08571425000000055,"midi":0,"time":5.142855,"velocity":0.1732283464566929},{"duration":0.08571425000000055,"midi":0,"time":5.142855,"velocity":0.1732283464566929},{"duration":0.08571425000000055,"midi":0,"time":5.142855,"velocity":0.1732283464566929},{"duration":0.08571424999999966,"midi":0,"time":5.2285692500000005,"velocity":0.1732283464566929},{"duration":0.08571425000000055,"midi":0,"time":5.3142835,"velocity":0.1732283464566929},{"duration":0.08571425000000055,"midi":0,"time":5.3142835,"velocity":0.1732283464566929},{"duration":0.08571425000000055,"midi":0,"time":5.3142835,"velocity":0.1732283464566929},{"duration":0.08571424999999966,"midi":0,"time":5.399997750000001,"velocity":0.1732283464566929},{"duration":0.08571424999999966,"midi":0,"time":5.485712,"velocity":0.1732283464566929},{"duration":0.08571424999999966,"midi":0,"time":5.485712,"velocity":0.1732283464566929},{"duration":0.08571424999999966,"midi":0,"time":5.485712,"velocity":0.1732283464566929},{"duration":0.08571424999999966,"midi":0,"time":5.485712,"velocity":0.1732283464566929},{"duration":0.08571424999999966,"midi":0,"time":5.485712,"velocity":0.1732283464566929},{"duration":0.08571425000000055,"midi":0,"time":5.57142625,"velocity":0.1732283464566929},{"duration":0.08571424999999966,"midi":0,"time":5.657140500000001,"velocity":0.1732283464566929},{"duration":0.08571424999999966,"midi":0,"time":5.657140500000001,"velocity":0.1732283464566929},{"duration":0.08571424999999966,"midi":0,"time":5.657140500000001,"velocity":0.1732283464566929},{"duration":0.08571425000000055,"midi":0,"time":5.74285475,"velocity":0.1732283464566929},{"duration":0.08571424999999966,"midi":0,"time":5.828569000000001,"velocity":0.1732283464566929},{"duration":0.08571424999999966,"midi":0,"time":5.828569000000001,"velocity":0.1732283464566929},{"duration":0.08571424999999966,"midi":0,"time":5.828569000000001,"velocity":0.1732283464566929},{"duration":0.08571424999999966,"midi":0,"time":5.91428325,"velocity":0.1732283464566929},{"duration":0.08571425000000055,"midi":0,"time":5.9999975,"velocity":0.1732283464566929},{"duration":0.08571425000000055,"midi":0,"time":5.9999975,"velocity":0.1732283464566929},{"duration":0.08571425000000055,"midi":0,"time":5.9999975,"velocity":0.1732283464566929},{"duration":0.08571424999999966,"midi":0,"time":6.085711750000001,"velocity":0.1732283464566929},{"duration":0.08571425000000055,"midi":0,"time":6.171426,"velocity":0.1732283464566929},{"duration":0.08571424999999966,"midi":0,"time":6.257140250000001,"velocity":0.1732283464566929},{"duration":0.08571424999999966,"midi":0,"time":6.3428545000000005,"velocity":0.1732283464566929},{"duration":0.08571424999999966,"midi":0,"time":6.3428545000000005,"velocity":0.1732283464566929},{"duration":0.08571424999999966,"midi":0,"time":6.3428545000000005,"velocity":0.1732283464566929},{"duration":0.08571425000000055,"midi":0,"time":6.42856875,"velocity":0.1732283464566929},{"duration":0.08571424999999966,"midi":0,"time":6.514283000000001,"velocity":0.1732283464566929},{"duration":0.08571424999999966,"midi":0,"time":6.514283000000001,"velocity":0.1732283464566929},{"duration":0.08571424999999966,"midi":0,"time":6.514283000000001,"velocity":0.1732283464566929},{"duration":0.08571424999999966,"midi":0,"time":6.59999725,"velocity":0.1732283464566929},{"duration":0.08571425000000055,"midi":0,"time":6.6857115,"velocity":0.1732283464566929},{"duration":0.08571425000000055,"midi":0,"time":6.6857115,"velocity":0.1732283464566929},{"duration":0.08571425000000055,"midi":0,"time":6.6857115,"velocity":0.1732283464566929},{"duration":0.08571424999999966,"midi":0,"time":6.771425750000001,"velocity":0.1732283464566929},{"duration":0.08571425000000055,"midi":0,"time":6.85714,"velocity":0.1732283464566929},{"duration":0.08571425000000055,"midi":0,"time":6.85714,"velocity":0.1732283464566929},{"duration":0.08571425000000055,"midi":0,"time":6.85714,"velocity":0.1732283464566929},{"duration":0.08571424999999966,"midi":0,"time":6.942854250000001,"velocity":0.1732283464566929},{"duration":0.08571424999999966,"midi":0,"time":7.0285685,"velocity":0.1732283464566929},{"duration":0.08571424999999966,"midi":0,"time":7.0285685,"velocity":0.1732283464566929},{"duration":0.08571424999999966,"midi":0,"time":7.0285685,"velocity":0.1732283464566929},{"duration":0.08571425000000055,"midi":0,"time":7.11428275,"velocity":0.1732283464566929},{"duration":0.08571424999999966,"midi":0,"time":7.199997000000001,"velocity":0.1732283464566929},{"duration":0.08571424999999966,"midi":0,"time":7.199997000000001,"velocity":0.1732283464566929},{"duration":0.08571424999999966,"midi":0,"time":7.199997000000001,"velocity":0.1732283464566929},{"duration":0.08571425000000055,"midi":0,"time":7.28571125,"velocity":0.1732283464566929},{"duration":0.08571424999999966,"midi":0,"time":7.371425500000001,"velocity":0.1732283464566929},{"duration":0.08571424999999966,"midi":0,"time":7.371425500000001,"velocity":0.1732283464566929},{"duration":0.08571424999999966,"midi":0,"time":7.371425500000001,"velocity":0.1732283464566929},{"duration":0.08571424999999966,"midi":0,"time":7.4571397500000005,"velocity":0.1732283464566929},{"duration":0.08571425000000055,"midi":0,"time":7.542854,"velocity":0.1732283464566929},{"duration":0.08571424999999966,"midi":0,"time":7.628568250000001,"velocity":0.1732283464566929},{"duration":0.08571425000000055,"midi":0,"time":7.7142825,"velocity":0.1732283464566929},{"duration":0.08571425000000055,"midi":0,"time":7.7142825,"velocity":0.1732283464566929},{"duration":0.08571425000000055,"midi":0,"time":7.7142825,"velocity":0.1732283464566929},{"duration":0.08571424999999966,"midi":0,"time":7.799996750000001,"velocity":0.1732283464566929},{"duration":0.08571424999999966,"midi":0,"time":7.885711000000001,"velocity":0.1732283464566929},{"duration":0.08571424999999966,"midi":0,"time":7.885711000000001,"velocity":0.1732283464566929},{"duration":0.08571424999999966,"midi":0,"time":7.885711000000001,"velocity":0.1732283464566929},{"duration":0.08571424999999966,"midi":0,"time":7.97142525,"velocity":0.1732283464566929},{"duration":0.08571425000000055,"midi":0,"time":8.0571395,"velocity":0.1732283464566929},{"duration":0.08571425000000055,"midi":0,"time":8.0571395,"velocity":0.1732283464566929},{"duration":0.08571425000000055,"midi":0,"time":8.0571395,"velocity":0.1732283464566929},{"duration":0.08571425000000055,"midi":0,"time":8.14285375,"velocity":0.1732283464566929},{"duration":0.08571424999999877,"midi":0,"time":8.228568000000001,"velocity":0.1732283464566929},{"duration":0.08571424999999877,"midi":0,"time":8.228568000000001,"velocity":0.1732283464566929},{"duration":0.08571424999999877,"midi":0,"time":8.228568000000001,"velocity":0.1732283464566929},{"duration":0.08571425000000055,"midi":0,"time":8.31428225,"velocity":0.1732283464566929},{"duration":0.08571425000000055,"midi":0,"time":8.3999965,"velocity":0.1732283464566929},{"duration":0.08571425000000055,"midi":0,"time":8.3999965,"velocity":0.1732283464566929},{"duration":0.08571425000000055,"midi":0,"time":8.3999965,"velocity":0.1732283464566929},{"duration":0.08571425000000055,"midi":0,"time":8.48571075,"velocity":0.1732283464566929},{"duration":0.08571424999999877,"midi":0,"time":8.571425000000001,"velocity":0.1732283464566929},{"duration":0.08571424999999877,"midi":0,"time":8.571425000000001,"velocity":0.1732283464566929},{"duration":0.08571424999999877,"midi":0,"time":8.571425000000001,"velocity":0.1732283464566929},{"duration":0.08571425000000055,"midi":0,"time":8.65713925,"velocity":0.1732283464566929},{"duration":0.08571425000000055,"midi":0,"time":8.7428535,"velocity":0.1732283464566929},{"duration":0.08571425000000055,"midi":0,"time":8.7428535,"velocity":0.1732283464566929},{"duration":0.08571425000000055,"midi":0,"time":8.7428535,"velocity":0.1732283464566929},{"duration":0.08571424999999877,"midi":0,"time":8.828567750000001,"velocity":0.1732283464566929},{"duration":0.08571425000000055,"midi":0,"time":8.914282,"velocity":0.1732283464566929},{"duration":0.08571425000000055,"midi":0,"time":8.99999625,"velocity":0.1732283464566929},{"duration":0.08571424999999877,"midi":0,"time":9.085710500000001,"velocity":0.1732283464566929},{"duration":0.08571424999999877,"midi":0,"time":9.085710500000001,"velocity":0.1732283464566929},{"duration":0.08571424999999877,"midi":0,"time":9.085710500000001,"velocity":0.1732283464566929},{"duration":0.08571425000000055,"midi":0,"time":9.17142475,"velocity":0.1732283464566929},{"duration":0.08571425000000055,"midi":0,"time":9.257139,"velocity":0.1732283464566929},{"duration":0.08571425000000055,"midi":0,"time":9.257139,"velocity":0.1732283464566929},{"duration":0.08571425000000055,"midi":0,"time":9.257139,"velocity":0.1732283464566929},{"duration":0.08571424999999877,"midi":0,"time":9.342853250000001,"velocity":0.1732283464566929},{"duration":0.08571425000000055,"midi":0,"time":9.4285675,"velocity":0.1732283464566929},{"duration":0.08571425000000055,"midi":0,"time":9.4285675,"velocity":0.1732283464566929},{"duration":0.08571425000000055,"midi":0,"time":9.4285675,"velocity":0.1732283464566929},{"duration":0.08571425000000055,"midi":0,"time":9.51428175,"velocity":0.1732283464566929},{"duration":0.08571425000000055,"midi":0,"time":9.599996,"velocity":0.1732283464566929},{"duration":0.08571425000000055,"midi":0,"time":9.599996,"velocity":0.1732283464566929},{"duration":0.08571425000000055,"midi":0,"time":9.599996,"velocity":0.1732283464566929},{"duration":0.08571424999999877,"midi":0,"time":9.685710250000001,"velocity":0.1732283464566929},{"duration":0.08571425000000055,"midi":0,"time":9.7714245,"velocity":0.1732283464566929},{"duration":0.08571425000000055,"midi":0,"time":9.7714245,"velocity":0.1732283464566929},{"duration":0.08571425000000055,"midi":0,"time":9.7714245,"velocity":0.1732283464566929},{"duration":0.08571425000000055,"midi":0,"time":9.85713875,"velocity":0.1732283464566929},{"duration":0.08571424999999877,"midi":0,"time":9.942853000000001,"velocity":0.1732283464566929},{"duration":0.08571424999999877,"midi":0,"time":9.942853000000001,"velocity":0.1732283464566929},{"duration":0.08571424999999877,"midi":0,"time":9.942853000000001,"velocity":0.1732283464566929},{"duration":0.08571425000000055,"midi":0,"time":10.02856725,"velocity":0.1732283464566929},{"duration":0.08571425000000055,"midi":0,"time":10.1142815,"velocity":0.1732283464566929},{"duration":0.08571425000000055,"midi":0,"time":10.1142815,"velocity":0.1732283464566929},{"duration":0.08571425000000055,"midi":0,"time":10.1142815,"velocity":0.1732283464566929},{"duration":0.08571424999999877,"midi":0,"time":10.199995750000001,"velocity":0.1732283464566929},{"duration":0.08571425000000055,"midi":0,"time":10.28571,"velocity":0.1732283464566929},{"duration":0.08571425000000055,"midi":0,"time":10.28571,"velocity":0.1732283464566929},{"duration":0.08571425000000055,"midi":0,"time":10.28571,"velocity":0.1732283464566929},{"duration":0.08571425000000055,"midi":0,"time":10.37142425,"velocity":0.1732283464566929},{"duration":0.08571425000000055,"midi":0,"time":10.457138500000001,"velocity":0.1732283464566929},{"duration":0.08571425000000055,"midi":0,"time":10.457138500000001,"velocity":0.1732283464566929},{"duration":0.08571425000000055,"midi":0,"time":10.457138500000001,"velocity":0.1732283464566929},{"duration":0.08571424999999877,"midi":0,"time":10.542852750000002,"velocity":0.1732283464566929},{"duration":0.08571425000000055,"midi":0,"time":10.628567,"velocity":0.1732283464566929},{"duration":0.08571425000000055,"midi":0,"time":10.628567,"velocity":0.1732283464566929},{"duration":0.08571425000000055,"midi":0,"time":10.628567,"velocity":0.1732283464566929},{"duration":0.08571425000000055,"midi":0,"time":10.71428125,"velocity":0.1732283464566929},{"duration":0.08571424999999877,"midi":0,"time":10.799995500000001,"velocity":0.1732283464566929},{"duration":0.08571424999999877,"midi":0,"time":10.799995500000001,"velocity":0.1732283464566929},{"duration":0.08571424999999877,"midi":0,"time":10.799995500000001,"velocity":0.1732283464566929},{"duration":0.08571425000000055,"midi":0,"time":10.88570975,"velocity":0.1732283464566929},{"duration":0.08571425000000055,"midi":0,"time":10.971424,"velocity":0.1732283464566929},{"duration":0.08571425000000055,"midi":0,"time":10.971424,"velocity":0.1732283464566929},{"duration":0.08571425000000055,"midi":0,"time":10.971424,"velocity":0.1732283464566929},{"duration":0.08571425000000055,"midi":0,"time":10.971424,"velocity":0.1732283464566929},{"duration":0.08571425000000055,"midi":0,"time":10.971424,"velocity":0.1732283464566929},{"duration":0.08571424999999877,"midi":0,"time":11.057138250000001,"velocity":0.1732283464566929},{"duration":0.08571425000000055,"midi":0,"time":11.1428525,"velocity":0.1732283464566929},{"duration":0.08571425000000055,"midi":0,"time":11.1428525,"velocity":0.1732283464566929},{"duration":0.08571425000000055,"midi":0,"time":11.1428525,"velocity":0.1732283464566929},{"duration":0.08571425000000055,"midi":0,"time":11.22856675,"velocity":0.1732283464566929},{"duration":0.08571424999999877,"midi":0,"time":11.314281000000001,"velocity":0.1732283464566929},{"duration":0.08571424999999877,"midi":0,"time":11.314281000000001,"velocity":0.1732283464566929},{"duration":0.08571424999999877,"midi":0,"time":11.314281000000001,"velocity":0.1732283464566929},{"duration":0.08571425000000055,"midi":0,"time":11.39999525,"velocity":0.1732283464566929},{"duration":0.08571425000000055,"midi":0,"time":11.4857095,"velocity":0.1732283464566929},{"duration":0.08571425000000055,"midi":0,"time":11.4857095,"velocity":0.1732283464566929},{"duration":0.08571425000000055,"midi":0,"time":11.4857095,"velocity":0.1732283464566929},{"duration":0.08571425000000055,"midi":0,"time":11.571423750000001,"velocity":0.1732283464566929},{"duration":0.08571424999999877,"midi":0,"time":11.657138000000002,"velocity":0.1732283464566929},{"duration":0.08571425000000055,"midi":0,"time":11.74285225,"velocity":0.1732283464566929},{"duration":0.08571425000000055,"midi":0,"time":11.8285665,"velocity":0.1732283464566929},{"duration":0.08571425000000055,"midi":0,"time":11.8285665,"velocity":0.1732283464566929},{"duration":0.08571425000000055,"midi":0,"time":11.8285665,"velocity":0.1732283464566929},{"duration":0.08571424999999877,"midi":0,"time":11.914280750000001,"velocity":0.1732283464566929},{"duration":0.08571425000000055,"midi":0,"time":11.999995,"velocity":0.1732283464566929},{"duration":0.08571425000000055,"midi":0,"time":11.999995,"velocity":0.1732283464566929},{"duration":0.08571425000000055,"midi":0,"time":11.999995,"velocity":0.1732283464566929},{"duration":0.08571425000000055,"midi":0,"time":12.08570925,"velocity":0.1732283464566929},{"duration":0.08571424999999877,"midi":0,"time":12.171423500000001,"velocity":0.1732283464566929},{"duration":0.08571424999999877,"midi":0,"time":12.171423500000001,"velocity":0.1732283464566929},{"duration":0.08571424999999877,"midi":0,"time":12.171423500000001,"velocity":0.1732283464566929},{"duration":0.08571425000000055,"midi":0,"time":12.25713775,"velocity":0.1732283464566929},{"duration":0.08571425000000055,"midi":0,"time":12.342852,"velocity":0.1732283464566929},{"duration":0.08571425000000055,"midi":0,"time":12.342852,"velocity":0.1732283464566929},{"duration":0.08571425000000055,"midi":0,"time":12.342852,"velocity":0.1732283464566929},{"duration":0.08571425000000055,"midi":0,"time":12.428566250000001,"velocity":0.1732283464566929},{"duration":0.08571424999999877,"midi":0,"time":12.514280500000002,"velocity":0.1732283464566929},{"duration":0.08571424999999877,"midi":0,"time":12.514280500000002,"velocity":0.1732283464566929},{"duration":0.08571424999999877,"midi":0,"time":12.514280500000002,"velocity":0.1732283464566929},{"duration":0.08571425000000055,"midi":0,"time":12.59999475,"velocity":0.1732283464566929},{"duration":0.08571425000000055,"midi":0,"time":12.685709000000001,"velocity":0.1732283464566929},{"duration":0.08571425000000055,"midi":0,"time":12.685709000000001,"velocity":0.1732283464566929},{"duration":0.08571425000000055,"midi":0,"time":12.685709000000001,"velocity":0.1732283464566929},{"duration":0.08571424999999877,"midi":0,"time":12.771423250000002,"velocity":0.1732283464566929},{"duration":0.08571425000000055,"midi":0,"time":12.8571375,"velocity":0.1732283464566929},{"duration":0.08571425000000055,"midi":0,"time":12.8571375,"velocity":0.1732283464566929},{"duration":0.08571425000000055,"midi":0,"time":12.8571375,"velocity":0.1732283464566929},{"duration":0.08571425000000055,"midi":0,"time":12.94285175,"velocity":0.1732283464566929},{"duration":0.08571424999999877,"midi":0,"time":13.028566000000001,"velocity":0.1732283464566929},{"duration":0.08571425000000055,"midi":0,"time":13.11428025,"velocity":0.1732283464566929},{"duration":0.08571425000000055,"midi":0,"time":13.1999945,"velocity":0.1732283464566929},{"duration":0.08571425000000055,"midi":0,"time":13.1999945,"velocity":0.1732283464566929},{"duration":0.08571425000000055,"midi":0,"time":13.1999945,"velocity":0.1732283464566929},{"duration":0.08571424999999877,"midi":0,"time":13.285708750000001,"velocity":0.1732283464566929},{"duration":0.08571425000000055,"midi":0,"time":13.371423,"velocity":0.1732283464566929},{"duration":0.08571425000000055,"midi":0,"time":13.371423,"velocity":0.1732283464566929},{"duration":0.08571425000000055,"midi":0,"time":13.371423,"velocity":0.1732283464566929},{"duration":0.08571425000000055,"midi":0,"time":13.45713725,"velocity":0.1732283464566929},{"duration":0.08571425000000055,"midi":0,"time":13.542851500000001,"velocity":0.1732283464566929},{"duration":0.08571425000000055,"midi":0,"time":13.542851500000001,"velocity":0.1732283464566929},{"duration":0.08571425000000055,"midi":0,"time":13.542851500000001,"velocity":0.1732283464566929},{"duration":0.08571424999999877,"midi":0,"time":13.628565750000002,"velocity":0.1732283464566929},{"duration":0.08571425000000055,"midi":0,"time":13.71428,"velocity":0.1732283464566929},{"duration":0.08571425000000055,"midi":0,"time":13.71428,"velocity":0.1732283464566929},{"duration":0.08571425000000055,"midi":0,"time":13.71428,"velocity":0.1732283464566929},{"duration":0.08571425000000055,"midi":0,"time":13.799994250000001,"velocity":0.1732283464566929},{"duration":0.08571424999999877,"midi":0,"time":13.885708500000002,"velocity":0.1732283464566929},{"duration":0.08571424999999877,"midi":0,"time":13.885708500000002,"velocity":0.1732283464566929},{"duration":0.08571424999999877,"midi":0,"time":13.885708500000002,"velocity":0.1732283464566929},{"duration":0.08571425000000055,"midi":0,"time":13.97142275,"velocity":0.1732283464566929},{"duration":0.08571425000000055,"midi":0,"time":14.057137,"velocity":0.1732283464566929},{"duration":0.08571425000000055,"midi":0,"time":14.057137,"velocity":0.1732283464566929},{"duration":0.08571425000000055,"midi":0,"time":14.057137,"velocity":0.1732283464566929},{"duration":0.08571424999999877,"midi":0,"time":14.142851250000001,"velocity":0.1732283464566929},{"duration":0.08571425000000055,"midi":0,"time":14.2285655,"velocity":0.1732283464566929},{"duration":0.08571425000000055,"midi":0,"time":14.2285655,"velocity":0.1732283464566929},{"duration":0.08571425000000055,"midi":0,"time":14.2285655,"velocity":0.1732283464566929},{"duration":0.08571425000000055,"midi":0,"time":14.31427975,"velocity":0.1732283464566929},{"duration":0.08571425000000055,"midi":0,"time":14.399994000000001,"velocity":0.1732283464566929},{"duration":0.08571424999999877,"midi":0,"time":14.485708250000002,"velocity":0.1732283464566929},{"duration":0.08571425000000055,"midi":0,"time":14.5714225,"velocity":0.1732283464566929},{"duration":0.08571425000000055,"midi":0,"time":14.5714225,"velocity":0.1732283464566929},{"duration":0.08571425000000055,"midi":0,"time":14.5714225,"velocity":0.1732283464566929},{"duration":0.08571425000000055,"midi":0,"time":14.657136750000001,"velocity":0.1732283464566929},{"duration":0.08571424999999877,"midi":0,"time":14.742851000000002,"velocity":0.1732283464566929},{"duration":0.08571424999999877,"midi":0,"time":14.742851000000002,"velocity":0.1732283464566929},{"duration":0.08571424999999877,"midi":0,"time":14.742851000000002,"velocity":0.1732283464566929},{"duration":0.08571425000000055,"midi":0,"time":14.82856525,"velocity":0.1732283464566929},{"duration":0.08571425000000055,"midi":0,"time":14.914279500000001,"velocity":0.1732283464566929},{"duration":0.08571425000000055,"midi":0,"time":14.914279500000001,"velocity":0.1732283464566929},{"duration":0.08571425000000055,"midi":0,"time":14.914279500000001,"velocity":0.1732283464566929},{"duration":0.08571424999999877,"midi":0,"time":14.999993750000002,"velocity":0.1732283464566929},{"duration":0.08571425000000055,"midi":0,"time":15.085708,"velocity":0.1732283464566929},{"duration":0.08571425000000055,"midi":0,"time":15.085708,"velocity":0.1732283464566929},{"duration":0.08571425000000055,"midi":0,"time":15.085708,"velocity":0.1732283464566929},{"duration":0.08571425000000055,"midi":0,"time":15.17142225,"velocity":0.1732283464566929},{"duration":0.08571424999999877,"midi":0,"time":15.257136500000001,"velocity":0.1732283464566929},{"duration":0.08571424999999877,"midi":0,"time":15.257136500000001,"velocity":0.1732283464566929},{"duration":0.08571424999999877,"midi":0,"time":15.257136500000001,"velocity":0.1732283464566929},{"duration":0.08571425000000055,"midi":0,"time":15.34285075,"velocity":0.1732283464566929},{"duration":0.08571425000000055,"midi":0,"time":15.428565,"velocity":0.1732283464566929},{"duration":0.08571425000000055,"midi":0,"time":15.428565,"velocity":0.1732283464566929},{"duration":0.08571425000000055,"midi":0,"time":15.428565,"velocity":0.1732283464566929},{"duration":0.08571425000000055,"midi":0,"time":15.514279250000001,"velocity":0.1732283464566929},{"duration":0.08571424999999877,"midi":0,"time":15.599993500000002,"velocity":0.1732283464566929},{"duration":0.08571424999999877,"midi":0,"time":15.599993500000002,"velocity":0.1732283464566929},{"duration":0.08571424999999877,"midi":0,"time":15.599993500000002,"velocity":0.1732283464566929},{"duration":0.08571425000000055,"midi":0,"time":15.68570775,"velocity":0.1732283464566929},{"duration":0.08571425000000055,"midi":0,"time":15.771422000000001,"velocity":0.1732283464566929},{"duration":0.08571425000000055,"midi":0,"time":15.771422000000001,"velocity":0.1732283464566929},{"duration":0.08571425000000055,"midi":0,"time":15.771422000000001,"velocity":0.1732283464566929},{"duration":0.08571424999999877,"midi":0,"time":15.857136250000002,"velocity":0.1732283464566929},{"duration":0.08571425000000055,"midi":0,"time":15.9428505,"velocity":0.1732283464566929},{"duration":0.08571425000000055,"midi":0,"time":15.9428505,"velocity":0.1732283464566929},{"duration":0.08571425000000055,"midi":0,"time":15.9428505,"velocity":0.1732283464566929},{"duration":0.08571424999999877,"midi":0,"time":16.02856475,"velocity":0.1732283464566929},{"duration":0.08571425000000232,"midi":0,"time":16.114279,"velocity":0.1732283464566929},{"duration":0.08571425000000232,"midi":0,"time":16.114279,"velocity":0.1732283464566929},{"duration":0.08571425000000232,"midi":0,"time":16.114279,"velocity":0.1732283464566929},{"duration":0.08571424999999877,"midi":0,"time":16.199993250000002,"velocity":0.1732283464566929},{"duration":0.08571424999999877,"midi":0,"time":16.2857075,"velocity":0.1732283464566929},{"duration":0.08571424999999877,"midi":0,"time":16.2857075,"velocity":0.1732283464566929},{"duration":0.08571424999999877,"midi":0,"time":16.2857075,"velocity":0.1732283464566929},{"duration":0.08571425000000232,"midi":0,"time":16.37142175,"velocity":0.1732283464566929},{"duration":0.08571424999999877,"midi":0,"time":16.457136000000002,"velocity":0.1732283464566929},{"duration":0.08571424999999877,"midi":0,"time":16.457136000000002,"velocity":0.1732283464566929},{"duration":0.08571424999999877,"midi":0,"time":16.457136000000002,"velocity":0.1732283464566929},{"duration":0.08571424999999877,"midi":0,"time":16.457136000000002,"velocity":0.1732283464566929},{"duration":0.08571424999999877,"midi":0,"time":16.457136000000002,"velocity":0.1732283464566929},{"duration":0.08571424999999877,"midi":0,"time":16.54285025,"velocity":0.1732283464566929},{"duration":0.08571425000000232,"midi":0,"time":16.6285645,"velocity":0.1732283464566929},{"duration":0.08571425000000232,"midi":0,"time":16.6285645,"velocity":0.1732283464566929},{"duration":0.08571425000000232,"midi":0,"time":16.6285645,"velocity":0.1732283464566929},{"duration":0.08571424999999877,"midi":0,"time":16.714278750000002,"velocity":0.1732283464566929},{"duration":0.08571424999999877,"midi":0,"time":16.799993,"velocity":0.1732283464566929},{"duration":0.08571424999999877,"midi":0,"time":16.799993,"velocity":0.1732283464566929},{"duration":0.08571424999999877,"midi":0,"time":16.799993,"velocity":0.1732283464566929},{"duration":0.08571425000000232,"midi":0,"time":16.88570725,"velocity":0.1732283464566929},{"duration":0.08571424999999877,"midi":0,"time":16.9714215,"velocity":0.1732283464566929},{"duration":0.08571424999999877,"midi":0,"time":16.9714215,"velocity":0.1732283464566929},{"duration":0.08571424999999877,"midi":0,"time":16.9714215,"velocity":0.1732283464566929},{"duration":0.08571425000000232,"midi":0,"time":17.05713575,"velocity":0.1732283464566929},{"duration":0.08571424999999877,"midi":0,"time":17.142850000000003,"velocity":0.1732283464566929},{"duration":0.08571424999999877,"midi":0,"time":17.22856425,"velocity":0.1732283464566929},{"duration":0.08571425000000232,"midi":0,"time":17.3142785,"velocity":0.1732283464566929},{"duration":0.08571425000000232,"midi":0,"time":17.3142785,"velocity":0.1732283464566929},{"duration":0.08571425000000232,"midi":0,"time":17.3142785,"velocity":0.1732283464566929},{"duration":0.08571424999999877,"midi":0,"time":17.399992750000003,"velocity":0.1732283464566929},{"duration":0.08571424999999877,"midi":0,"time":17.485707,"velocity":0.1732283464566929},{"duration":0.08571424999999877,"midi":0,"time":17.485707,"velocity":0.1732283464566929},{"duration":0.08571424999999877,"midi":0,"time":17.485707,"velocity":0.1732283464566929},{"duration":0.08571425000000232,"midi":0,"time":17.57142125,"velocity":0.1732283464566929},{"duration":0.08571424999999877,"midi":0,"time":17.657135500000003,"velocity":0.1732283464566929},{"duration":0.08571424999999877,"midi":0,"time":17.657135500000003,"velocity":0.1732283464566929},{"duration":0.08571424999999877,"midi":0,"time":17.657135500000003,"velocity":0.1732283464566929},{"duration":0.08571424999999877,"midi":0,"time":17.74284975,"velocity":0.1732283464566929},{"duration":0.08571425000000232,"midi":0,"time":17.828564,"velocity":0.1732283464566929},{"duration":0.08571425000000232,"midi":0,"time":17.828564,"velocity":0.1732283464566929},{"duration":0.08571425000000232,"midi":0,"time":17.828564,"velocity":0.1732283464566929},{"duration":0.08571424999999877,"midi":0,"time":17.914278250000002,"velocity":0.1732283464566929},{"duration":0.08571424999999877,"midi":0,"time":17.9999925,"velocity":0.1732283464566929},{"duration":0.08571424999999877,"midi":0,"time":17.9999925,"velocity":0.1732283464566929},{"duration":0.08571424999999877,"midi":0,"time":17.9999925,"velocity":0.1732283464566929},{"duration":0.08571425000000232,"midi":0,"time":18.08570675,"velocity":0.1732283464566929},{"duration":0.08571424999999877,"midi":0,"time":18.171421000000002,"velocity":0.1732283464566929},{"duration":0.08571424999999877,"midi":0,"time":18.171421000000002,"velocity":0.1732283464566929},{"duration":0.08571424999999877,"midi":0,"time":18.171421000000002,"velocity":0.1732283464566929},{"duration":0.08571424999999877,"midi":0,"time":18.25713525,"velocity":0.1732283464566929},{"duration":0.08571425000000232,"midi":0,"time":18.3428495,"velocity":0.1732283464566929},{"duration":0.08571425000000232,"midi":0,"time":18.3428495,"velocity":0.1732283464566929},{"duration":0.08571425000000232,"midi":0,"time":18.3428495,"velocity":0.1732283464566929},{"duration":0.08571424999999877,"midi":0,"time":18.428563750000002,"velocity":0.1732283464566929},{"duration":0.08571424999999877,"midi":0,"time":18.514278,"velocity":0.1732283464566929},{"duration":0.08571425000000232,"midi":0,"time":18.59999225,"velocity":0.1732283464566929},{"duration":0.08571424999999877,"midi":0,"time":18.685706500000002,"velocity":0.1732283464566929},{"duration":0.08571424999999877,"midi":0,"time":18.685706500000002,"velocity":0.1732283464566929},{"duration":0.08571424999999877,"midi":0,"time":18.685706500000002,"velocity":0.1732283464566929},{"duration":0.08571424999999877,"midi":0,"time":18.77142075,"velocity":0.1732283464566929},{"duration":0.08571425000000232,"midi":0,"time":18.857135,"velocity":0.1732283464566929},{"duration":0.08571425000000232,"midi":0,"time":18.857135,"velocity":0.1732283464566929},{"duration":0.08571425000000232,"midi":0,"time":18.857135,"velocity":0.1732283464566929},{"duration":0.08571424999999877,"midi":0,"time":18.942849250000002,"velocity":0.1732283464566929},{"duration":0.08571425000000232,"midi":0,"time":19.0285635,"velocity":0.1732283464566929},{"duration":0.08571425000000232,"midi":0,"time":19.0285635,"velocity":0.1732283464566929},{"duration":0.08571425000000232,"midi":0,"time":19.0285635,"velocity":0.1732283464566929},{"duration":0.08571424999999877,"midi":0,"time":19.114277750000003,"velocity":0.1732283464566929},{"duration":0.08571424999999877,"midi":0,"time":19.199992,"velocity":0.1732283464566929},{"duration":0.08571424999999877,"midi":0,"time":19.199992,"velocity":0.1732283464566929},{"duration":0.08571424999999877,"midi":0,"time":19.199992,"velocity":0.1732283464566929},{"duration":0.08571424999999877,"midi":0,"time":19.199992,"velocity":0.1732283464566929},{"duration":0.08571424999999877,"midi":0,"time":19.199992,"velocity":0.1732283464566929},{"duration":0.08571425000000232,"midi":0,"time":19.28570625,"velocity":0.1732283464566929},{"duration":0.08571424999999877,"midi":0,"time":19.371420500000003,"velocity":0.1732283464566929},{"duration":0.08571424999999877,"midi":0,"time":19.371420500000003,"velocity":0.1732283464566929},{"duration":0.08571424999999877,"midi":0,"time":19.371420500000003,"velocity":0.1732283464566929},{"duration":0.08571424999999877,"midi":0,"time":19.45713475,"velocity":0.1732283464566929},{"duration":0.08571425000000232,"midi":0,"time":19.542849,"velocity":0.1732283464566929},{"duration":0.08571425000000232,"midi":0,"time":19.542849,"velocity":0.1732283464566929},{"duration":0.08571425000000232,"midi":0,"time":19.542849,"velocity":0.1732283464566929},{"duration":0.08571424999999877,"midi":0,"time":19.628563250000003,"velocity":0.1732283464566929},{"duration":0.08571424999999877,"midi":0,"time":19.7142775,"velocity":0.1732283464566929},{"duration":0.08571424999999877,"midi":0,"time":19.7142775,"velocity":0.1732283464566929},{"duration":0.08571424999999877,"midi":0,"time":19.7142775,"velocity":0.1732283464566929},{"duration":0.08571425000000232,"midi":0,"time":19.79999175,"velocity":0.1732283464566929},{"duration":0.08571424999999877,"midi":0,"time":19.885706000000003,"velocity":0.1732283464566929},{"duration":0.08571424999999877,"midi":0,"time":19.97142025,"velocity":0.1732283464566929},{"duration":0.08571425000000232,"midi":0,"time":20.0571345,"velocity":0.1732283464566929},{"duration":0.08571425000000232,"midi":0,"time":20.0571345,"velocity":0.1732283464566929},{"duration":0.08571425000000232,"midi":0,"time":20.0571345,"velocity":0.1732283464566929},{"duration":0.08571424999999877,"midi":0,"time":20.142848750000002,"velocity":0.1732283464566929},{"duration":0.08571424999999877,"midi":0,"time":20.228563,"velocity":0.1732283464566929},{"duration":0.08571424999999877,"midi":0,"time":20.228563,"velocity":0.1732283464566929},{"duration":0.08571424999999877,"midi":0,"time":20.228563,"velocity":0.1732283464566929},{"duration":0.08571425000000232,"midi":0,"time":20.31427725,"velocity":0.1732283464566929},{"duration":0.08571424999999877,"midi":0,"time":20.399991500000002,"velocity":0.1732283464566929},{"duration":0.08571424999999877,"midi":0,"time":20.399991500000002,"velocity":0.1732283464566929},{"duration":0.08571424999999877,"midi":0,"time":20.399991500000002,"velocity":0.1732283464566929},{"duration":0.08571424999999877,"midi":0,"time":20.48570575,"velocity":0.1732283464566929},{"duration":0.08571425000000232,"midi":0,"time":20.57142,"velocity":0.1732283464566929},{"duration":0.08571425000000232,"midi":0,"time":20.57142,"velocity":0.1732283464566929},{"duration":0.08571425000000232,"midi":0,"time":20.57142,"velocity":0.1732283464566929},{"duration":0.08571425000000232,"midi":0,"time":20.57142,"velocity":0.1732283464566929},{"duration":0.08571425000000232,"midi":0,"time":20.57142,"velocity":0.1732283464566929},{"duration":0.08571425000000232,"midi":0,"time":20.57142,"velocity":0.1732283464566929},{"duration":0.08571425000000232,"midi":0,"time":20.57142,"velocity":0.1732283464566929},{"duration":0.08571424999999877,"midi":0,"time":20.657134250000002,"velocity":0.1732283464566929},{"duration":0.08571424999999877,"midi":0,"time":20.7428485,"velocity":0.1732283464566929},{"duration":0.08571424999999877,"midi":0,"time":20.7428485,"velocity":0.1732283464566929},{"duration":0.08571424999999877,"midi":0,"time":20.7428485,"velocity":0.1732283464566929},{"duration":0.08571425000000232,"midi":0,"time":20.82856275,"velocity":0.1732283464566929},{"duration":0.08571424999999877,"midi":0,"time":20.914277000000002,"velocity":0.1732283464566929},{"duration":0.08571424999999877,"midi":0,"time":20.914277000000002,"velocity":0.1732283464566929},{"duration":0.08571424999999877,"midi":0,"time":20.914277000000002,"velocity":0.1732283464566929},{"duration":0.08571425000000232,"midi":0,"time":20.99999125,"velocity":0.1732283464566929},{"duration":0.08571424999999877,"midi":0,"time":21.085705500000003,"velocity":0.1732283464566929},{"duration":0.08571424999999877,"midi":0,"time":21.085705500000003,"velocity":0.1732283464566929},{"duration":0.08571424999999877,"midi":0,"time":21.085705500000003,"velocity":0.1732283464566929},{"duration":0.08571424999999877,"midi":0,"time":21.171419750000002,"velocity":0.1732283464566929},{"duration":0.08571425000000232,"midi":0,"time":21.257134,"velocity":0.1732283464566929},{"duration":0.08571425000000232,"midi":0,"time":21.257134,"velocity":0.1732283464566929},{"duration":0.08571425000000232,"midi":0,"time":21.257134,"velocity":0.1732283464566929},{"duration":0.08571425000000232,"midi":0,"time":21.257134,"velocity":0.1732283464566929},{"duration":0.08571425000000232,"midi":0,"time":21.257134,"velocity":0.1732283464566929},{"duration":0.08571424999999877,"midi":0,"time":21.342848250000003,"velocity":0.1732283464566929},{"duration":0.08571424999999877,"midi":0,"time":21.4285625,"velocity":0.1732283464566929},{"duration":0.08571424999999877,"midi":0,"time":21.4285625,"velocity":0.1732283464566929},{"duration":0.08571424999999877,"midi":0,"time":21.4285625,"velocity":0.1732283464566929},{"duration":0.08571425000000232,"midi":0,"time":21.51427675,"velocity":0.1732283464566929},{"duration":0.08571424999999877,"midi":0,"time":21.599991000000003,"velocity":0.1732283464566929},{"duration":0.08571424999999877,"midi":0,"time":21.599991000000003,"velocity":0.1732283464566929},{"duration":0.08571424999999877,"midi":0,"time":21.599991000000003,"velocity":0.1732283464566929},{"duration":0.08571424999999877,"midi":0,"time":21.599991000000003,"velocity":0.1732283464566929},{"duration":0.08571424999999877,"midi":0,"time":21.599991000000003,"velocity":0.1732283464566929},{"duration":0.08571424999999877,"midi":0,"time":21.68570525,"velocity":0.1732283464566929},{"duration":0.08571425000000232,"midi":0,"time":21.7714195,"velocity":0.1732283464566929},{"duration":0.08571425000000232,"midi":0,"time":21.7714195,"velocity":0.1732283464566929},{"duration":0.08571425000000232,"midi":0,"time":21.7714195,"velocity":0.1732283464566929},{"duration":0.08571425000000232,"midi":0,"time":21.7714195,"velocity":0.1732283464566929},{"duration":0.08571425000000232,"midi":0,"time":21.7714195,"velocity":0.1732283464566929},{"duration":0.08571424999999877,"midi":0,"time":21.857133750000003,"velocity":0.1732283464566929},{"duration":0.08571424999999877,"midi":0,"time":21.942848,"velocity":0.1732283464566929},{"duration":0.08571424999999877,"midi":0,"time":21.942848,"velocity":0.1732283464566929},{"duration":0.08571424999999877,"midi":0,"time":21.942848,"velocity":0.1732283464566929},{"duration":0.08571424999999877,"midi":0,"time":21.942848,"velocity":0.1732283464566929},{"duration":0.08571424999999877,"midi":0,"time":21.942848,"velocity":0.1732283464566929},{"duration":0.08571425000000232,"midi":0,"time":22.02856225,"velocity":0.1732283464566929},{"duration":0.08571424999999877,"midi":0,"time":22.114276500000003,"velocity":0.1732283464566929},{"duration":0.08571424999999877,"midi":0,"time":22.114276500000003,"velocity":0.1732283464566929},{"duration":0.08571424999999877,"midi":0,"time":22.114276500000003,"velocity":0.1732283464566929},{"duration":0.08571424999999877,"midi":0,"time":22.19999075,"velocity":0.1732283464566929},{"duration":0.08571425000000232,"midi":0,"time":22.285705,"velocity":0.1732283464566929},{"duration":0.08571425000000232,"midi":0,"time":22.285705,"velocity":0.1732283464566929},{"duration":0.08571425000000232,"midi":0,"time":22.285705,"velocity":0.1732283464566929},{"duration":0.08571424999999877,"midi":0,"time":22.371419250000002,"velocity":0.1732283464566929},{"duration":0.08571424999999877,"midi":0,"time":22.4571335,"velocity":0.1732283464566929},{"duration":0.08571424999999877,"midi":0,"time":22.4571335,"velocity":0.1732283464566929},{"duration":0.08571424999999877,"midi":0,"time":22.4571335,"velocity":0.1732283464566929},{"duration":0.08571425000000232,"midi":0,"time":22.54284775,"velocity":0.1732283464566929},{"duration":0.08571424999999877,"midi":0,"time":22.628562000000002,"velocity":0.1732283464566929},{"duration":0.08571424999999877,"midi":0,"time":22.71427625,"velocity":0.1732283464566929},{"duration":0.08571425000000232,"midi":0,"time":22.7999905,"velocity":0.1732283464566929},{"duration":0.08571425000000232,"midi":0,"time":22.7999905,"velocity":0.1732283464566929},{"duration":0.08571425000000232,"midi":0,"time":22.7999905,"velocity":0.1732283464566929},{"duration":0.08571424999999877,"midi":0,"time":22.885704750000002,"velocity":0.1732283464566929},{"duration":0.08571425000000232,"midi":0,"time":22.971419,"velocity":0.1732283464566929},{"duration":0.08571425000000232,"midi":0,"time":22.971419,"velocity":0.1732283464566929},{"duration":0.08571425000000232,"midi":0,"time":22.971419,"velocity":0.1732283464566929},{"duration":0.08571424999999877,"midi":0,"time":23.057133250000003,"velocity":0.1732283464566929},{"duration":0.08571424999999877,"midi":0,"time":23.142847500000002,"velocity":0.1732283464566929},{"duration":0.08571424999999877,"midi":0,"time":23.142847500000002,"velocity":0.1732283464566929},{"duration":0.08571424999999877,"midi":0,"time":23.142847500000002,"velocity":0.1732283464566929},{"duration":0.08571425000000232,"midi":0,"time":23.22856175,"velocity":0.1732283464566929},{"duration":0.08571424999999877,"midi":0,"time":23.314276000000003,"velocity":0.1732283464566929},{"duration":0.08571424999999877,"midi":0,"time":23.314276000000003,"velocity":0.1732283464566929},{"duration":0.08571424999999877,"midi":0,"time":23.314276000000003,"velocity":0.1732283464566929},{"duration":0.08571424999999877,"midi":0,"time":23.399990250000002,"velocity":0.1732283464566929},{"duration":0.08571425000000232,"midi":0,"time":23.4857045,"velocity":0.1732283464566929},{"duration":0.08571425000000232,"midi":0,"time":23.4857045,"velocity":0.1732283464566929},{"duration":0.08571425000000232,"midi":0,"time":23.4857045,"velocity":0.1732283464566929},{"duration":0.08571424999999877,"midi":0,"time":23.571418750000003,"velocity":0.1732283464566929},{"duration":0.08571424999999877,"midi":0,"time":23.657133,"velocity":0.1732283464566929},{"duration":0.08571424999999877,"midi":0,"time":23.657133,"velocity":0.1732283464566929},{"duration":0.08571424999999877,"midi":0,"time":23.657133,"velocity":0.1732283464566929},{"duration":0.08571425000000232,"midi":0,"time":23.74284725,"velocity":0.1732283464566929},{"duration":0.08571424999999877,"midi":0,"time":23.828561500000003,"velocity":0.1732283464566929},{"duration":0.08571424999999877,"midi":0,"time":23.828561500000003,"velocity":0.1732283464566929},{"duration":0.08571424999999877,"midi":0,"time":23.828561500000003,"velocity":0.1732283464566929},{"duration":0.08571424999999877,"midi":0,"time":23.91427575,"velocity":0.1732283464566929},{"duration":0.08571425000000232,"midi":0,"time":23.99999,"velocity":0.1732283464566929},{"duration":0.08571424999999877,"midi":0,"time":24.085704250000003,"velocity":0.1732283464566929},{"duration":0.08571424999999877,"midi":0,"time":24.1714185,"velocity":0.1732283464566929},{"duration":0.08571424999999877,"midi":0,"time":24.1714185,"velocity":0.1732283464566929},{"duration":0.08571424999999877,"midi":0,"time":24.1714185,"velocity":0.1732283464566929},{"duration":0.08571425000000232,"midi":0,"time":24.25713275,"velocity":0.1732283464566929},{"duration":0.08571424999999877,"midi":0,"time":24.342847000000003,"velocity":0.1732283464566929},{"duration":0.08571424999999877,"midi":0,"time":24.342847000000003,"velocity":0.1732283464566929},{"duration":0.08571424999999877,"midi":0,"time":24.342847000000003,"velocity":0.1732283464566929},{"duration":0.08571424999999877,"midi":0,"time":24.42856125,"velocity":0.1732283464566929},{"duration":0.08571425000000232,"midi":0,"time":24.5142755,"velocity":0.1732283464566929},{"duration":0.08571425000000232,"midi":0,"time":24.5142755,"velocity":0.1732283464566929},{"duration":0.08571425000000232,"midi":0,"time":24.5142755,"velocity":0.1732283464566929},{"duration":0.08571424999999877,"midi":0,"time":24.599989750000002,"velocity":0.1732283464566929},{"duration":0.08571424999999877,"midi":0,"time":24.685704,"velocity":0.1732283464566929},{"duration":0.08571424999999877,"midi":0,"time":24.685704,"velocity":0.1732283464566929},{"duration":0.08571424999999877,"midi":0,"time":24.685704,"velocity":0.1732283464566929},{"duration":0.08571424999999877,"midi":0,"time":24.685704,"velocity":0.1732283464566929},{"duration":0.08571424999999877,"midi":0,"time":24.685704,"velocity":0.1732283464566929},{"duration":0.08571425000000232,"midi":0,"time":24.77141825,"velocity":0.1732283464566929},{"duration":0.08571424999999877,"midi":0,"time":24.857132500000002,"velocity":0.1732283464566929},{"duration":0.08571424999999877,"midi":0,"time":24.857132500000002,"velocity":0.1732283464566929},{"duration":0.08571424999999877,"midi":0,"time":24.857132500000002,"velocity":0.1732283464566929},{"duration":0.08571425000000232,"midi":0,"time":24.94284675,"velocity":0.1732283464566929},{"duration":0.08571424999999877,"midi":0,"time":25.028561000000003,"velocity":0.1732283464566929},{"duration":0.08571424999999877,"midi":0,"time":25.028561000000003,"velocity":0.1732283464566929},{"duration":0.08571424999999877,"midi":0,"time":25.028561000000003,"velocity":0.1732283464566929},{"duration":0.08571424999999877,"midi":0,"time":25.114275250000002,"velocity":0.1732283464566929},{"duration":0.08571425000000232,"midi":0,"time":25.1999895,"velocity":0.1732283464566929},{"duration":0.08571425000000232,"midi":0,"time":25.1999895,"velocity":0.1732283464566929},{"duration":0.08571425000000232,"midi":0,"time":25.1999895,"velocity":0.1732283464566929},{"duration":0.08571424999999877,"midi":0,"time":25.285703750000003,"velocity":0.1732283464566929},{"duration":0.08571424999999877,"midi":0,"time":25.371418000000002,"velocity":0.1732283464566929},{"duration":0.08571425000000232,"midi":0,"time":25.45713225,"velocity":0.1732283464566929},{"duration":0.08571424999999877,"midi":0,"time":25.542846500000003,"velocity":0.1732283464566929},{"duration":0.08571424999999877,"midi":0,"time":25.542846500000003,"velocity":0.1732283464566929},{"duration":0.08571424999999877,"midi":0,"time":25.542846500000003,"velocity":0.1732283464566929},{"duration":0.08571424999999877,"midi":0,"time":25.628560750000002,"velocity":0.1732283464566929},{"duration":0.08571425000000232,"midi":0,"time":25.714275,"velocity":0.1732283464566929},{"duration":0.08571425000000232,"midi":0,"time":25.714275,"velocity":0.1732283464566929},{"duration":0.08571425000000232,"midi":0,"time":25.714275,"velocity":0.1732283464566929},{"duration":0.08571424999999877,"midi":0,"time":25.799989250000003,"velocity":0.1732283464566929},{"duration":0.08571424999999877,"midi":0,"time":25.8857035,"velocity":0.1732283464566929},{"duration":0.08571424999999877,"midi":0,"time":25.8857035,"velocity":0.1732283464566929},{"duration":0.08571424999999877,"midi":0,"time":25.8857035,"velocity":0.1732283464566929},{"duration":0.08571425000000232,"midi":0,"time":25.97141775,"velocity":0.1732283464566929},{"duration":0.08571424999999877,"midi":0,"time":26.057132000000003,"velocity":0.1732283464566929},{"duration":0.08571424999999877,"midi":0,"time":26.057132000000003,"velocity":0.1732283464566929},{"duration":0.08571424999999877,"midi":0,"time":26.057132000000003,"velocity":0.1732283464566929},{"duration":0.08571424999999877,"midi":0,"time":26.057132000000003,"velocity":0.1732283464566929},{"duration":0.08571424999999877,"midi":0,"time":26.057132000000003,"velocity":0.1732283464566929},{"duration":0.08571424999999877,"midi":0,"time":26.14284625,"velocity":0.1732283464566929},{"duration":0.08571425000000232,"midi":0,"time":26.2285605,"velocity":0.1732283464566929},{"duration":0.08571425000000232,"midi":0,"time":26.2285605,"velocity":0.1732283464566929},{"duration":0.08571425000000232,"midi":0,"time":26.2285605,"velocity":0.1732283464566929},{"duration":0.08571424999999877,"midi":0,"time":26.314274750000003,"velocity":0.1732283464566929},{"duration":0.08571424999999877,"midi":0,"time":26.399989,"velocity":0.1732283464566929},{"duration":0.08571424999999877,"midi":0,"time":26.399989,"velocity":0.1732283464566929},{"duration":0.08571424999999877,"midi":0,"time":26.399989,"velocity":0.1732283464566929},{"duration":0.08571425000000232,"midi":0,"time":26.48570325,"velocity":0.1732283464566929},{"duration":0.08571424999999877,"midi":0,"time":26.571417500000003,"velocity":0.1732283464566929},{"duration":0.08571424999999877,"midi":0,"time":26.571417500000003,"velocity":0.1732283464566929},{"duration":0.08571424999999877,"midi":0,"time":26.571417500000003,"velocity":0.1732283464566929},{"duration":0.08571424999999877,"midi":0,"time":26.65713175,"velocity":0.1732283464566929},{"duration":0.08571425000000232,"midi":0,"time":26.742846,"velocity":0.1732283464566929},{"duration":0.08571425000000232,"midi":0,"time":26.742846,"velocity":0.1732283464566929},{"duration":0.08571425000000232,"midi":0,"time":26.742846,"velocity":0.1732283464566929},{"duration":0.08571425000000232,"midi":0,"time":26.742846,"velocity":0.1732283464566929},{"duration":0.08571425000000232,"midi":0,"time":26.742846,"velocity":0.1732283464566929},{"duration":0.08571424999999877,"midi":0,"time":26.828560250000002,"velocity":0.1732283464566929},{"duration":0.08571425000000232,"midi":0,"time":26.9142745,"velocity":0.1732283464566929},{"duration":0.08571425000000232,"midi":0,"time":26.9142745,"velocity":0.1732283464566929},{"duration":0.08571425000000232,"midi":0,"time":26.9142745,"velocity":0.1732283464566929},{"duration":0.08571424999999877,"midi":0,"time":26.999988750000004,"velocity":0.1732283464566929},{"duration":0.08571424999999877,"midi":0,"time":27.085703000000002,"velocity":0.1732283464566929},{"duration":0.08571424999999877,"midi":0,"time":27.085703000000002,"velocity":0.1732283464566929},{"duration":0.08571424999999877,"midi":0,"time":27.085703000000002,"velocity":0.1732283464566929},{"duration":0.08571425000000232,"midi":0,"time":27.17141725,"velocity":0.1732283464566929},{"duration":0.08571424999999877,"midi":0,"time":27.257131500000003,"velocity":0.1732283464566929},{"duration":0.08571424999999877,"midi":0,"time":27.257131500000003,"velocity":0.1732283464566929},{"duration":0.08571424999999877,"midi":0,"time":27.257131500000003,"velocity":0.1732283464566929},{"duration":0.08571424999999877,"midi":0,"time":27.342845750000002,"velocity":0.1732283464566929},{"duration":0.08571425000000232,"midi":0,"time":27.42856,"velocity":0.1732283464566929},{"duration":0.08571425000000232,"midi":0,"time":27.42856,"velocity":0.1732283464566929},{"duration":0.08571425000000232,"midi":0,"time":27.42856,"velocity":0.1732283464566929},{"duration":0.08571425000000232,"midi":0,"time":27.42856,"velocity":0.1732283464566929},{"duration":0.08571425000000232,"midi":0,"time":27.42856,"velocity":0.1732283464566929},{"duration":0.08571424999999877,"midi":0,"time":27.514274250000003,"velocity":0.1732283464566929},{"duration":0.08571424999999877,"midi":0,"time":27.599988500000002,"velocity":0.1732283464566929},{"duration":0.08571424999999877,"midi":0,"time":27.599988500000002,"velocity":0.1732283464566929},{"duration":0.08571424999999877,"midi":0,"time":27.599988500000002,"velocity":0.1732283464566929},{"duration":0.08571425000000232,"midi":0,"time":27.68570275,"velocity":0.1732283464566929},{"duration":0.08571424999999877,"midi":0,"time":27.771417000000003,"velocity":0.1732283464566929},{"duration":0.08571424999999877,"midi":0,"time":27.771417000000003,"velocity":0.1732283464566929},{"duration":0.08571424999999877,"midi":0,"time":27.771417000000003,"velocity":0.1732283464566929},{"duration":0.08571424999999877,"midi":0,"time":27.857131250000002,"velocity":0.1732283464566929},{"duration":0.08571425000000232,"midi":0,"time":27.9428455,"velocity":0.1732283464566929},{"duration":0.08571425000000232,"midi":0,"time":27.9428455,"velocity":0.1732283464566929},{"duration":0.08571425000000232,"midi":0,"time":27.9428455,"velocity":0.1732283464566929},{"duration":0.08571424999999877,"midi":0,"time":28.028559750000003,"velocity":0.1732283464566929},{"duration":0.08571424999999877,"midi":0,"time":28.114274,"velocity":0.1732283464566929},{"duration":0.08571425000000232,"midi":0,"time":28.19998825,"velocity":0.1732283464566929},{"duration":0.08571424999999877,"midi":0,"time":28.285702500000003,"velocity":0.1732283464566929},{"duration":0.08571424999999877,"midi":0,"time":28.285702500000003,"velocity":0.1732283464566929},{"duration":0.08571424999999877,"midi":0,"time":28.285702500000003,"velocity":0.1732283464566929},{"duration":0.08571424999999877,"midi":0,"time":28.37141675,"velocity":0.1732283464566929},{"duration":0.08571425000000232,"midi":0,"time":28.457131,"velocity":0.1732283464566929},{"duration":0.08571425000000232,"midi":0,"time":28.457131,"velocity":0.1732283464566929},{"duration":0.08571425000000232,"midi":0,"time":28.457131,"velocity":0.1732283464566929},{"duration":0.08571424999999877,"midi":0,"time":28.542845250000003,"velocity":0.1732283464566929},{"duration":0.08571424999999877,"midi":0,"time":28.6285595,"velocity":0.1732283464566929},{"duration":0.08571424999999877,"midi":0,"time":28.6285595,"velocity":0.1732283464566929},{"duration":0.08571424999999877,"midi":0,"time":28.6285595,"velocity":0.1732283464566929},{"duration":0.08571425000000232,"midi":0,"time":28.71427375,"velocity":0.1732283464566929},{"duration":0.08571424999999877,"midi":0,"time":28.799988000000003,"velocity":0.1732283464566929},{"duration":0.08571424999999877,"midi":0,"time":28.799988000000003,"velocity":0.1732283464566929},{"duration":0.08571424999999877,"midi":0,"time":28.799988000000003,"velocity":0.1732283464566929},{"duration":0.08571425000000232,"midi":0,"time":28.88570225,"velocity":0.1732283464566929},{"duration":0.08571424999999877,"midi":0,"time":28.971416500000004,"velocity":0.1732283464566929},{"duration":0.08571424999999877,"midi":0,"time":28.971416500000004,"velocity":0.1732283464566929},{"duration":0.08571424999999877,"midi":0,"time":28.971416500000004,"velocity":0.1732283464566929},{"duration":0.08571424999999877,"midi":0,"time":29.057130750000002,"velocity":0.1732283464566929},{"duration":0.08571425000000232,"midi":0,"time":29.142845,"velocity":0.1732283464566929},{"duration":0.08571425000000232,"midi":0,"time":29.142845,"velocity":0.1732283464566929},{"duration":0.08571425000000232,"midi":0,"time":29.142845,"velocity":0.1732283464566929},{"duration":0.08571424999999877,"midi":0,"time":29.228559250000004,"velocity":0.1732283464566929},{"duration":0.08571424999999877,"midi":0,"time":29.314273500000002,"velocity":0.1732283464566929},{"duration":0.08571424999999877,"midi":0,"time":29.314273500000002,"velocity":0.1732283464566929},{"duration":0.08571424999999877,"midi":0,"time":29.314273500000002,"velocity":0.1732283464566929},{"duration":0.08571425000000232,"midi":0,"time":29.39998775,"velocity":0.1732283464566929},{"duration":0.08571424999999877,"midi":0,"time":29.485702000000003,"velocity":0.1732283464566929},{"duration":0.08571424999999877,"midi":0,"time":29.571416250000002,"velocity":0.1732283464566929},{"duration":0.08571425000000232,"midi":0,"time":29.6571305,"velocity":0.1732283464566929},{"duration":0.08571425000000232,"midi":0,"time":29.6571305,"velocity":0.1732283464566929},{"duration":0.08571425000000232,"midi":0,"time":29.6571305,"velocity":0.1732283464566929},{"duration":0.08571424999999877,"midi":0,"time":29.742844750000003,"velocity":0.1732283464566929},{"duration":0.08571424999999877,"midi":0,"time":29.828559000000002,"velocity":0.1732283464566929},{"duration":0.08571424999999877,"midi":0,"time":29.828559000000002,"velocity":0.1732283464566929},{"duration":0.08571424999999877,"midi":0,"time":29.828559000000002,"velocity":0.1732283464566929},{"duration":0.08571425000000232,"midi":0,"time":29.91427325,"velocity":0.1732283464566929},{"duration":0.08571424999999877,"midi":0,"time":29.999987500000003,"velocity":0.1732283464566929},{"duration":0.08571424999999877,"midi":0,"time":29.999987500000003,"velocity":0.1732283464566929},{"duration":0.08571424999999877,"midi":0,"time":29.999987500000003,"velocity":0.1732283464566929},{"duration":0.08571424999999877,"midi":0,"time":30.085701750000002,"velocity":0.1732283464566929},{"duration":0.08571425000000232,"midi":0,"time":30.171416,"velocity":0.1732283464566929},{"duration":0.08571425000000232,"midi":0,"time":30.171416,"velocity":0.1732283464566929},{"duration":0.08571425000000232,"midi":0,"time":30.171416,"velocity":0.1732283464566929},{"duration":0.08571425000000232,"midi":0,"time":30.171416,"velocity":0.1732283464566929},{"duration":0.08571425000000232,"midi":0,"time":30.171416,"velocity":0.1732283464566929},{"duration":0.08571424999999877,"midi":0,"time":30.257130250000003,"velocity":0.1732283464566929},{"duration":0.08571424999999877,"midi":0,"time":30.3428445,"velocity":0.1732283464566929},{"duration":0.08571424999999877,"midi":0,"time":30.3428445,"velocity":0.1732283464566929},{"duration":0.08571424999999877,"midi":0,"time":30.3428445,"velocity":0.1732283464566929},{"duration":0.08571425000000232,"midi":0,"time":30.42855875,"velocity":0.1732283464566929},{"duration":0.08571424999999877,"midi":0,"time":30.514273000000003,"velocity":0.1732283464566929},{"duration":0.08571424999999877,"midi":0,"time":30.514273000000003,"velocity":0.1732283464566929},{"duration":0.08571424999999877,"midi":0,"time":30.514273000000003,"velocity":0.1732283464566929},{"duration":0.08571424999999877,"midi":0,"time":30.59998725,"velocity":0.1732283464566929},{"duration":0.08571425000000232,"midi":0,"time":30.6857015,"velocity":0.1732283464566929},{"duration":0.08571425000000232,"midi":0,"time":30.6857015,"velocity":0.1732283464566929},{"duration":0.08571425000000232,"midi":0,"time":30.6857015,"velocity":0.1732283464566929},{"duration":0.08571424999999877,"midi":0,"time":30.771415750000003,"velocity":0.1732283464566929},{"duration":0.08571425000000232,"midi":0,"time":30.85713,"velocity":0.1732283464566929},{"duration":0.08571425000000232,"midi":0,"time":30.85713,"velocity":0.1732283464566929},{"duration":0.08571425000000232,"midi":0,"time":30.85713,"velocity":0.1732283464566929},{"duration":0.08571424999999877,"midi":0,"time":30.942844250000004,"velocity":0.1732283464566929},{"duration":0.08571424999999877,"midi":0,"time":31.028558500000003,"velocity":0.1732283464566929},{"duration":0.08571424999999877,"midi":0,"time":31.028558500000003,"velocity":0.1732283464566929},{"duration":0.08571424999999877,"midi":0,"time":31.028558500000003,"velocity":0.1732283464566929},{"duration":0.08571425000000232,"midi":0,"time":31.11427275,"velocity":0.1732283464566929},{"duration":0.08571424999999877,"midi":0,"time":31.199987000000004,"velocity":0.1732283464566929},{"duration":0.08571424999999877,"midi":0,"time":31.199987000000004,"velocity":0.1732283464566929},{"duration":0.08571424999999877,"midi":0,"time":31.199987000000004,"velocity":0.1732283464566929},{"duration":0.08571424999999877,"midi":0,"time":31.285701250000002,"velocity":0.1732283464566929},{"duration":0.08571425000000232,"midi":0,"time":31.3714155,"velocity":0.1732283464566929},{"duration":0.08571425000000232,"midi":0,"time":31.3714155,"velocity":0.1732283464566929},{"duration":0.08571425000000232,"midi":0,"time":31.3714155,"velocity":0.1732283464566929},{"duration":0.08571424999999877,"midi":0,"time":31.457129750000004,"velocity":0.1732283464566929},{"duration":0.08571424999999877,"midi":0,"time":31.542844000000002,"velocity":0.1732283464566929},{"duration":0.08571424999999877,"midi":0,"time":31.542844000000002,"velocity":0.1732283464566929},{"duration":0.08571424999999877,"midi":0,"time":31.542844000000002,"velocity":0.1732283464566929},{"duration":0.08571424999999877,"midi":0,"time":31.542844000000002,"velocity":0.1732283464566929},{"duration":0.08571424999999877,"midi":0,"time":31.542844000000002,"velocity":0.1732283464566929},{"duration":0.08571425000000232,"midi":0,"time":31.62855825,"velocity":0.1732283464566929},{"duration":0.08571424999999877,"midi":0,"time":31.714272500000003,"velocity":0.1732283464566929},{"duration":0.08571424999999877,"midi":0,"time":31.714272500000003,"velocity":0.1732283464566929},{"duration":0.08571424999999877,"midi":0,"time":31.714272500000003,"velocity":0.1732283464566929},{"duration":0.08571424999999877,"midi":0,"time":31.799986750000002,"velocity":0.1732283464566929},{"duration":0.08571425000000232,"midi":0,"time":31.885701,"velocity":0.1732283464566929},{"duration":0.08571425000000232,"midi":0,"time":31.885701,"velocity":0.1732283464566929},{"duration":0.08571425000000232,"midi":0,"time":31.885701,"velocity":0.1732283464566929},{"duration":0.08571425000000232,"midi":0,"time":31.885701,"velocity":0.1732283464566929},{"duration":0.08571425000000232,"midi":0,"time":31.885701,"velocity":0.1732283464566929},{"duration":0.08571424999999877,"midi":0,"time":31.971415250000003,"velocity":0.1732283464566929},{"duration":0.08571425000000232,"midi":0,"time":32.0571295,"velocity":0.1732283464566929},{"duration":0.08571425000000232,"midi":0,"time":32.0571295,"velocity":0.1732283464566929},{"duration":0.08571425000000232,"midi":0,"time":32.0571295,"velocity":0.1732283464566929},{"duration":0.08571424999999522,"midi":0,"time":32.142843750000004,"velocity":0.1732283464566929},{"duration":0.08571425000000232,"midi":0,"time":32.228558,"velocity":0.1732283464566929},{"duration":0.08571425000000232,"midi":0,"time":32.228558,"velocity":0.1732283464566929},{"duration":0.08571425000000232,"midi":0,"time":32.228558,"velocity":0.1732283464566929},{"duration":0.08571425000000232,"midi":0,"time":32.228558,"velocity":0.1732283464566929},{"duration":0.08571425000000232,"midi":0,"time":32.228558,"velocity":0.1732283464566929},{"duration":0.08571425000000232,"midi":0,"time":32.31427225,"velocity":0.1732283464566929},{"duration":0.08571424999999522,"midi":0,"time":32.399986500000004,"velocity":0.1732283464566929},{"duration":0.08571424999999522,"midi":0,"time":32.399986500000004,"velocity":0.1732283464566929},{"duration":0.08571424999999522,"midi":0,"time":32.399986500000004,"velocity":0.1732283464566929},{"duration":0.08571425000000232,"midi":0,"time":32.48570075,"velocity":0.1732283464566929},{"duration":0.08571425000000232,"midi":0,"time":32.571415,"velocity":0.1732283464566929},{"duration":0.08571425000000232,"midi":0,"time":32.571415,"velocity":0.1732283464566929},{"duration":0.08571425000000232,"midi":0,"time":32.571415,"velocity":0.1732283464566929},{"duration":0.08571425000000232,"midi":0,"time":32.571415,"velocity":0.1732283464566929},{"duration":0.08571425000000232,"midi":0,"time":32.571415,"velocity":0.1732283464566929},{"duration":0.08571424999999522,"midi":0,"time":32.657129250000004,"velocity":0.1732283464566929},{"duration":0.08571425000000232,"midi":0,"time":32.7428435,"velocity":0.1732283464566929},{"duration":0.08571425000000232,"midi":0,"time":32.7428435,"velocity":0.1732283464566929},{"duration":0.08571425000000232,"midi":0,"time":32.7428435,"velocity":0.1732283464566929},{"duration":0.08571425000000232,"midi":0,"time":32.82855775,"velocity":0.1732283464566929},{"duration":0.08571424999999522,"midi":0,"time":32.914272000000004,"velocity":0.1732283464566929},{"duration":0.08571424999999522,"midi":0,"time":32.914272000000004,"velocity":0.1732283464566929},{"duration":0.08571424999999522,"midi":0,"time":32.914272000000004,"velocity":0.1732283464566929},{"duration":0.08571424999999522,"midi":0,"time":32.914272000000004,"velocity":0.1732283464566929},{"duration":0.08571424999999522,"midi":0,"time":32.914272000000004,"velocity":0.1732283464566929},{"duration":0.08571425000000232,"midi":0,"time":32.99998625,"velocity":0.1732283464566929},{"duration":0.08571425000000232,"midi":0,"time":33.0857005,"velocity":0.1732283464566929},{"duration":0.08571425000000232,"midi":0,"time":33.0857005,"velocity":0.1732283464566929},{"duration":0.08571425000000232,"midi":0,"time":33.0857005,"velocity":0.1732283464566929},{"duration":0.08571424999999522,"midi":0,"time":33.171414750000004,"velocity":0.1732283464566929},{"duration":0.08571425000000232,"midi":0,"time":33.257129,"velocity":0.1732283464566929},{"duration":0.08571425000000232,"midi":0,"time":33.257129,"velocity":0.1732283464566929},{"duration":0.08571425000000232,"midi":0,"time":33.257129,"velocity":0.1732283464566929},{"duration":0.08571425000000232,"midi":0,"time":33.34284325,"velocity":0.1732283464566929},{"duration":0.08571424999999522,"midi":0,"time":33.428557500000004,"velocity":0.1732283464566929},{"duration":0.08571424999999522,"midi":0,"time":33.428557500000004,"velocity":0.1732283464566929},{"duration":0.08571424999999522,"midi":0,"time":33.428557500000004,"velocity":0.1732283464566929},{"duration":0.08571425000000232,"midi":0,"time":33.51427175,"velocity":0.1732283464566929},{"duration":0.08571425000000232,"midi":0,"time":33.599986,"velocity":0.1732283464566929},{"duration":0.08571424999999522,"midi":0,"time":33.685700250000004,"velocity":0.1732283464566929},{"duration":0.08571425000000232,"midi":0,"time":33.7714145,"velocity":0.1732283464566929},{"duration":0.08571425000000232,"midi":0,"time":33.7714145,"velocity":0.1732283464566929},{"duration":0.08571425000000232,"midi":0,"time":33.7714145,"velocity":0.1732283464566929},{"duration":0.08571425000000232,"midi":0,"time":33.85712875,"velocity":0.1732283464566929},{"duration":0.08571425000000232,"midi":0,"time":33.942843,"velocity":0.1732283464566929},{"duration":0.08571425000000232,"midi":0,"time":33.942843,"velocity":0.1732283464566929},{"duration":0.08571425000000232,"midi":0,"time":33.942843,"velocity":0.1732283464566929},{"duration":0.08571424999999522,"midi":0,"time":34.028557250000006,"velocity":0.1732283464566929},{"duration":0.08571425000000232,"midi":0,"time":34.1142715,"velocity":0.1732283464566929},{"duration":0.08571425000000232,"midi":0,"time":34.1142715,"velocity":0.1732283464566929},{"duration":0.08571425000000232,"midi":0,"time":34.1142715,"velocity":0.1732283464566929},{"duration":0.08571425000000232,"midi":0,"time":34.19998575,"velocity":0.1732283464566929},{"duration":0.08571424999999522,"midi":0,"time":34.285700000000006,"velocity":0.1732283464566929},{"duration":0.08571424999999522,"midi":0,"time":34.285700000000006,"velocity":0.1732283464566929},{"duration":0.08571424999999522,"midi":0,"time":34.285700000000006,"velocity":0.1732283464566929},{"duration":0.08571425000000232,"midi":0,"time":34.37141425,"velocity":0.1732283464566929},{"duration":0.08571425000000232,"midi":0,"time":34.4571285,"velocity":0.1732283464566929},{"duration":0.08571425000000232,"midi":0,"time":34.4571285,"velocity":0.1732283464566929},{"duration":0.08571425000000232,"midi":0,"time":34.4571285,"velocity":0.1732283464566929},{"duration":0.08571424999999522,"midi":0,"time":34.542842750000005,"velocity":0.1732283464566929},{"duration":0.08571425000000232,"midi":0,"time":34.628557,"velocity":0.1732283464566929},{"duration":0.08571425000000232,"midi":0,"time":34.628557,"velocity":0.1732283464566929},{"duration":0.08571425000000232,"midi":0,"time":34.628557,"velocity":0.1732283464566929},{"duration":0.08571425000000232,"midi":0,"time":34.71427125,"velocity":0.1732283464566929},{"duration":0.08571424999999522,"midi":0,"time":34.799985500000005,"velocity":0.1732283464566929},{"duration":0.08571424999999522,"midi":0,"time":34.799985500000005,"velocity":0.1732283464566929},{"duration":0.08571424999999522,"midi":0,"time":34.799985500000005,"velocity":0.1732283464566929},{"duration":0.08571425000000232,"midi":0,"time":34.88569975,"velocity":0.1732283464566929},{"duration":0.08571425000000232,"midi":0,"time":34.971414,"velocity":0.1732283464566929},{"duration":0.08571424999999522,"midi":0,"time":35.057128250000005,"velocity":0.1732283464566929},{"duration":0.08571425000000232,"midi":0,"time":35.1428425,"velocity":0.1732283464566929},{"duration":0.08571425000000232,"midi":0,"time":35.1428425,"velocity":0.1732283464566929},{"duration":0.08571425000000232,"midi":0,"time":35.1428425,"velocity":0.1732283464566929},{"duration":0.08571425000000232,"midi":0,"time":35.22855675,"velocity":0.1732283464566929},{"duration":0.08571424999999522,"midi":0,"time":35.314271000000005,"velocity":0.1732283464566929},{"duration":0.08571424999999522,"midi":0,"time":35.314271000000005,"velocity":0.1732283464566929},{"duration":0.08571424999999522,"midi":0,"time":35.314271000000005,"velocity":0.1732283464566929},{"duration":0.08571425000000232,"midi":0,"time":35.39998525,"velocity":0.1732283464566929},{"duration":0.08571425000000232,"midi":0,"time":35.4856995,"velocity":0.1732283464566929},{"duration":0.08571425000000232,"midi":0,"time":35.4856995,"velocity":0.1732283464566929},{"duration":0.08571425000000232,"midi":0,"time":35.4856995,"velocity":0.1732283464566929},{"duration":0.08571424999999522,"midi":0,"time":35.571413750000005,"velocity":0.1732283464566929},{"duration":0.08571425000000232,"midi":0,"time":35.657128,"velocity":0.1732283464566929},{"duration":0.08571425000000232,"midi":0,"time":35.657128,"velocity":0.1732283464566929},{"duration":0.08571425000000232,"midi":0,"time":35.657128,"velocity":0.1732283464566929},{"duration":0.08571425000000232,"midi":0,"time":35.657128,"velocity":0.1732283464566929},{"duration":0.08571425000000232,"midi":0,"time":35.657128,"velocity":0.1732283464566929},{"duration":0.08571425000000232,"midi":0,"time":35.74284225,"velocity":0.1732283464566929},{"duration":0.08571424999999522,"midi":0,"time":35.828556500000005,"velocity":0.1732283464566929},{"duration":0.08571424999999522,"midi":0,"time":35.828556500000005,"velocity":0.1732283464566929},{"duration":0.08571424999999522,"midi":0,"time":35.828556500000005,"velocity":0.1732283464566929},{"duration":0.08571425000000232,"midi":0,"time":35.91427075,"velocity":0.1732283464566929},{"duration":0.08571425000000232,"midi":0,"time":35.999985,"velocity":0.1732283464566929},{"duration":0.08571425000000232,"midi":0,"time":35.999985,"velocity":0.1732283464566929},{"duration":0.08571425000000232,"midi":0,"time":35.999985,"velocity":0.1732283464566929},{"duration":0.08571424999999522,"midi":0,"time":36.085699250000005,"velocity":0.1732283464566929},{"duration":0.08571425000000232,"midi":0,"time":36.1714135,"velocity":0.1732283464566929},{"duration":0.08571425000000232,"midi":0,"time":36.1714135,"velocity":0.1732283464566929},{"duration":0.08571425000000232,"midi":0,"time":36.1714135,"velocity":0.1732283464566929},{"duration":0.08571425000000232,"midi":0,"time":36.25712775,"velocity":0.1732283464566929},{"duration":0.08571424999999522,"midi":0,"time":36.342842000000005,"velocity":0.1732283464566929},{"duration":0.08571425000000232,"midi":0,"time":36.42855625,"velocity":0.1732283464566929},{"duration":0.08571425000000232,"midi":0,"time":36.5142705,"velocity":0.1732283464566929},{"duration":0.08571425000000232,"midi":0,"time":36.5142705,"velocity":0.1732283464566929},{"duration":0.08571425000000232,"midi":0,"time":36.5142705,"velocity":0.1732283464566929},{"duration":0.08571424999999522,"midi":0,"time":36.599984750000004,"velocity":0.1732283464566929},{"duration":0.08571425000000232,"midi":0,"time":36.685699,"velocity":0.1732283464566929},{"duration":0.08571425000000232,"midi":0,"time":36.685699,"velocity":0.1732283464566929},{"duration":0.08571425000000232,"midi":0,"time":36.685699,"velocity":0.1732283464566929},{"duration":0.08571425000000232,"midi":0,"time":36.77141325,"velocity":0.1732283464566929},{"duration":0.08571424999999522,"midi":0,"time":36.857127500000004,"velocity":0.1732283464566929},{"duration":0.08571424999999522,"midi":0,"time":36.857127500000004,"velocity":0.1732283464566929},{"duration":0.08571424999999522,"midi":0,"time":36.857127500000004,"velocity":0.1732283464566929},{"duration":0.08571425000000232,"midi":0,"time":36.94284175,"velocity":0.1732283464566929},{"duration":0.08571425000000232,"midi":0,"time":37.028556,"velocity":0.1732283464566929},{"duration":0.08571425000000232,"midi":0,"time":37.028556,"velocity":0.1732283464566929},{"duration":0.08571425000000232,"midi":0,"time":37.028556,"velocity":0.1732283464566929},{"duration":0.08571425000000232,"midi":0,"time":37.028556,"velocity":0.1732283464566929},{"duration":0.08571425000000232,"midi":0,"time":37.028556,"velocity":0.1732283464566929},{"duration":0.08571424999999522,"midi":0,"time":37.114270250000004,"velocity":0.1732283464566929},{"duration":0.08571425000000232,"midi":0,"time":37.1999845,"velocity":0.1732283464566929},{"duration":0.08571425000000232,"midi":0,"time":37.1999845,"velocity":0.1732283464566929},{"duration":0.08571425000000232,"midi":0,"time":37.1999845,"velocity":0.1732283464566929},{"duration":0.08571425000000232,"midi":0,"time":37.28569875,"velocity":0.1732283464566929},{"duration":0.08571424999999522,"midi":0,"time":37.371413000000004,"velocity":0.1732283464566929},{"duration":0.08571424999999522,"midi":0,"time":37.371413000000004,"velocity":0.1732283464566929},{"duration":0.08571424999999522,"midi":0,"time":37.371413000000004,"velocity":0.1732283464566929},{"duration":0.08571425000000232,"midi":0,"time":37.45712725,"velocity":0.1732283464566929},{"duration":0.08571425000000232,"midi":0,"time":37.5428415,"velocity":0.1732283464566929},{"duration":0.08571425000000232,"midi":0,"time":37.5428415,"velocity":0.1732283464566929},{"duration":0.08571425000000232,"midi":0,"time":37.5428415,"velocity":0.1732283464566929},{"duration":0.08571424999999522,"midi":0,"time":37.628555750000004,"velocity":0.1732283464566929},{"duration":0.08571425000000232,"midi":0,"time":37.71427,"velocity":0.1732283464566929},{"duration":0.08571425000000232,"midi":0,"time":37.71427,"velocity":0.1732283464566929},{"duration":0.08571425000000232,"midi":0,"time":37.71427,"velocity":0.1732283464566929},{"duration":0.08571425000000232,"midi":0,"time":37.71427,"velocity":0.1732283464566929},{"duration":0.08571425000000232,"midi":0,"time":37.71427,"velocity":0.1732283464566929},{"duration":0.08571425000000232,"midi":0,"time":37.79998425,"velocity":0.1732283464566929},{"duration":0.08571425000000232,"midi":0,"time":37.885698500000004,"velocity":0.1732283464566929},{"duration":0.08571425000000232,"midi":0,"time":37.885698500000004,"velocity":0.1732283464566929},{"duration":0.08571425000000232,"midi":0,"time":37.885698500000004,"velocity":0.1732283464566929},{"duration":0.08571424999999522,"midi":0,"time":37.971412750000006,"velocity":0.1732283464566929},{"duration":0.08571425000000232,"midi":0,"time":38.057127,"velocity":0.1732283464566929},{"duration":0.08571425000000232,"midi":0,"time":38.057127,"velocity":0.1732283464566929},{"duration":0.08571425000000232,"midi":0,"time":38.057127,"velocity":0.1732283464566929},{"duration":0.08571425000000232,"midi":0,"time":38.142841250000004,"velocity":0.1732283464566929},{"duration":0.08571424999999522,"midi":0,"time":38.228555500000006,"velocity":0.1732283464566929},{"duration":0.08571424999999522,"midi":0,"time":38.228555500000006,"velocity":0.1732283464566929},{"duration":0.08571424999999522,"midi":0,"time":38.228555500000006,"velocity":0.1732283464566929},{"duration":0.08571425000000232,"midi":0,"time":38.31426975,"velocity":0.1732283464566929},{"duration":0.08571425000000232,"midi":0,"time":38.399984,"velocity":0.1732283464566929},{"duration":0.08571425000000232,"midi":0,"time":38.399984,"velocity":0.1732283464566929},{"duration":0.08571425000000232,"midi":0,"time":38.399984,"velocity":0.1732283464566929},{"duration":0.08571425000000232,"midi":0,"time":38.399984,"velocity":0.1732283464566929},{"duration":0.08571425000000232,"midi":0,"time":38.399984,"velocity":0.1732283464566929},{"duration":0.08571424999999522,"midi":0,"time":38.485698250000006,"velocity":0.1732283464566929},{"duration":0.08571425000000232,"midi":0,"time":38.5714125,"velocity":0.1732283464566929},{"duration":0.08571425000000232,"midi":0,"time":38.5714125,"velocity":0.1732283464566929},{"duration":0.08571425000000232,"midi":0,"time":38.5714125,"velocity":0.1732283464566929},{"duration":0.08571425000000232,"midi":0,"time":38.65712675,"velocity":0.1732283464566929},{"duration":0.08571424999999522,"midi":0,"time":38.742841000000006,"velocity":0.1732283464566929},{"duration":0.08571424999999522,"midi":0,"time":38.742841000000006,"velocity":0.1732283464566929},{"duration":0.08571424999999522,"midi":0,"time":38.742841000000006,"velocity":0.1732283464566929},{"duration":0.08571425000000232,"midi":0,"time":38.82855525,"velocity":0.1732283464566929},{"duration":0.08571425000000232,"midi":0,"time":38.9142695,"velocity":0.1732283464566929},{"duration":0.08571425000000232,"midi":0,"time":38.9142695,"velocity":0.1732283464566929},{"duration":0.08571425000000232,"midi":0,"time":38.9142695,"velocity":0.1732283464566929},{"duration":0.08571424999999522,"midi":0,"time":38.999983750000006,"velocity":0.1732283464566929},{"duration":0.08571425000000232,"midi":0,"time":39.085698,"velocity":0.1732283464566929},{"duration":0.08571425000000232,"midi":0,"time":39.17141225,"velocity":0.1732283464566929},{"duration":0.08571424999999522,"midi":0,"time":39.257126500000005,"velocity":0.1732283464566929},{"duration":0.08571424999999522,"midi":0,"time":39.257126500000005,"velocity":0.1732283464566929},{"duration":0.08571424999999522,"midi":0,"time":39.257126500000005,"velocity":0.1732283464566929},{"duration":0.08571425000000232,"midi":0,"time":39.34284075,"velocity":0.1732283464566929},{"duration":0.08571425000000232,"midi":0,"time":39.428555,"velocity":0.1732283464566929},{"duration":0.08571425000000232,"midi":0,"time":39.428555,"velocity":0.1732283464566929},{"duration":0.08571425000000232,"midi":0,"time":39.428555,"velocity":0.1732283464566929},{"duration":0.08571424999999522,"midi":0,"time":39.514269250000005,"velocity":0.1732283464566929},{"duration":0.08571425000000232,"midi":0,"time":39.5999835,"velocity":0.1732283464566929},{"duration":0.08571425000000232,"midi":0,"time":39.5999835,"velocity":0.1732283464566929},{"duration":0.08571425000000232,"midi":0,"time":39.5999835,"velocity":0.1732283464566929},{"duration":0.08571425000000232,"midi":0,"time":39.68569775,"velocity":0.1732283464566929},{"duration":0.08571424999999522,"midi":0,"time":39.771412000000005,"velocity":0.1732283464566929},{"duration":0.08571424999999522,"midi":0,"time":39.771412000000005,"velocity":0.1732283464566929},{"duration":0.08571424999999522,"midi":0,"time":39.771412000000005,"velocity":0.1732283464566929},{"duration":0.08571425000000232,"midi":0,"time":39.85712625,"velocity":0.1732283464566929},{"duration":0.08571425000000232,"midi":0,"time":39.9428405,"velocity":0.1732283464566929},{"duration":0.08571425000000232,"midi":0,"time":39.9428405,"velocity":0.1732283464566929},{"duration":0.08571425000000232,"midi":0,"time":39.9428405,"velocity":0.1732283464566929},{"duration":0.08571424999999522,"midi":0,"time":40.028554750000005,"velocity":0.1732283464566929},{"duration":0.08571425000000232,"midi":0,"time":40.114269,"velocity":0.1732283464566929},{"duration":0.08571425000000232,"midi":0,"time":40.114269,"velocity":0.1732283464566929},{"duration":0.08571425000000232,"midi":0,"time":40.114269,"velocity":0.1732283464566929},{"duration":0.08571425000000232,"midi":0,"time":40.19998325,"velocity":0.1732283464566929},{"duration":0.08571424999999522,"midi":0,"time":40.285697500000005,"velocity":0.1732283464566929},{"duration":0.08571424999999522,"midi":0,"time":40.285697500000005,"velocity":0.1732283464566929},{"duration":0.08571424999999522,"midi":0,"time":40.285697500000005,"velocity":0.1732283464566929},{"duration":0.08571425000000232,"midi":0,"time":40.37141175,"velocity":0.1732283464566929},{"duration":0.08571425000000232,"midi":0,"time":40.457126,"velocity":0.1732283464566929},{"duration":0.08571424999999522,"midi":0,"time":40.542840250000005,"velocity":0.1732283464566929},{"duration":0.08571425000000232,"midi":0,"time":40.6285545,"velocity":0.1732283464566929},{"duration":0.08571425000000232,"midi":0,"time":40.6285545,"velocity":0.1732283464566929},{"duration":0.08571425000000232,"midi":0,"time":40.6285545,"velocity":0.1732283464566929},{"duration":0.08571425000000232,"midi":0,"time":40.71426875,"velocity":0.1732283464566929},{"duration":0.08571424999999522,"midi":0,"time":40.799983000000005,"velocity":0.1732283464566929},{"duration":0.08571424999999522,"midi":0,"time":40.799983000000005,"velocity":0.1732283464566929},{"duration":0.08571424999999522,"midi":0,"time":40.799983000000005,"velocity":0.1732283464566929},{"duration":0.08571425000000232,"midi":0,"time":40.88569725,"velocity":0.1732283464566929},{"duration":0.08571425000000232,"midi":0,"time":40.9714115,"velocity":0.1732283464566929},{"duration":0.08571425000000232,"midi":0,"time":40.9714115,"velocity":0.1732283464566929},{"duration":0.08571425000000232,"midi":0,"time":40.9714115,"velocity":0.1732283464566929},{"duration":0.08571424999999522,"midi":0,"time":41.057125750000004,"velocity":0.1732283464566929},{"duration":0.08571425000000232,"midi":0,"time":41.14284,"velocity":0.1732283464566929},{"duration":0.08571425000000232,"midi":0,"time":41.14284,"velocity":0.1732283464566929},{"duration":0.08571425000000232,"midi":0,"time":41.14284,"velocity":0.1732283464566929},{"duration":0.08571425000000232,"midi":0,"time":41.14284,"velocity":0.1732283464566929},{"duration":0.08571425000000232,"midi":0,"time":41.14284,"velocity":0.1732283464566929},{"duration":0.08571425000000232,"midi":0,"time":41.22855425,"velocity":0.1732283464566929},{"duration":0.08571424999999522,"midi":0,"time":41.314268500000004,"velocity":0.1732283464566929},{"duration":0.08571424999999522,"midi":0,"time":41.314268500000004,"velocity":0.1732283464566929},{"duration":0.08571424999999522,"midi":0,"time":41.314268500000004,"velocity":0.1732283464566929},{"duration":0.08571425000000232,"midi":0,"time":41.39998275,"velocity":0.1732283464566929},{"duration":0.08571425000000232,"midi":0,"time":41.485697,"velocity":0.1732283464566929},{"duration":0.08571425000000232,"midi":0,"time":41.485697,"velocity":0.1732283464566929},{"duration":0.08571425000000232,"midi":0,"time":41.485697,"velocity":0.1732283464566929},{"duration":0.08571424999999522,"midi":0,"time":41.571411250000004,"velocity":0.1732283464566929},{"duration":0.08571425000000232,"midi":0,"time":41.6571255,"velocity":0.1732283464566929},{"duration":0.08571425000000232,"midi":0,"time":41.6571255,"velocity":0.1732283464566929},{"duration":0.08571425000000232,"midi":0,"time":41.6571255,"velocity":0.1732283464566929},{"duration":0.08571425000000232,"midi":0,"time":41.74283975,"velocity":0.1732283464566929},{"duration":0.08571425000000232,"midi":0,"time":41.828554000000004,"velocity":0.1732283464566929},{"duration":0.08571425000000232,"midi":0,"time":41.828554000000004,"velocity":0.1732283464566929},{"duration":0.08571425000000232,"midi":0,"time":41.828554000000004,"velocity":0.1732283464566929},{"duration":0.08571424999999522,"midi":0,"time":41.914268250000006,"velocity":0.1732283464566929},{"duration":0.08571425000000232,"midi":0,"time":41.9999825,"velocity":0.1732283464566929},{"duration":0.08571425000000232,"midi":0,"time":41.9999825,"velocity":0.1732283464566929},{"duration":0.08571425000000232,"midi":0,"time":41.9999825,"velocity":0.1732283464566929},{"duration":0.08571425000000232,"midi":0,"time":42.085696750000004,"velocity":0.1732283464566929},{"duration":0.08571424999999522,"midi":0,"time":42.171411000000006,"velocity":0.1732283464566929},{"duration":0.08571424999999522,"midi":0,"time":42.171411000000006,"velocity":0.1732283464566929},{"duration":0.08571424999999522,"midi":0,"time":42.171411000000006,"velocity":0.1732283464566929},{"duration":0.08571425000000232,"midi":0,"time":42.25712525,"velocity":0.1732283464566929},{"duration":0.08571425000000232,"midi":0,"time":42.342839500000004,"velocity":0.1732283464566929},{"duration":0.08571425000000232,"midi":0,"time":42.342839500000004,"velocity":0.1732283464566929},{"duration":0.08571425000000232,"midi":0,"time":42.342839500000004,"velocity":0.1732283464566929},{"duration":0.08571424999999522,"midi":0,"time":42.428553750000006,"velocity":0.1732283464566929},{"duration":0.08571425000000232,"midi":0,"time":42.514268,"velocity":0.1732283464566929},{"duration":0.08571425000000232,"midi":0,"time":42.514268,"velocity":0.1732283464566929},{"duration":0.08571425000000232,"midi":0,"time":42.514268,"velocity":0.1732283464566929},{"duration":0.08571425000000232,"midi":0,"time":42.514268,"velocity":0.1732283464566929},{"duration":0.08571425000000232,"midi":0,"time":42.514268,"velocity":0.1732283464566929},{"duration":0.08571425000000232,"midi":0,"time":42.599982250000004,"velocity":0.1732283464566929},{"duration":0.08571424999999522,"midi":0,"time":42.685696500000006,"velocity":0.1732283464566929},{"duration":0.08571424999999522,"midi":0,"time":42.685696500000006,"velocity":0.1732283464566929},{"duration":0.08571424999999522,"midi":0,"time":42.685696500000006,"velocity":0.1732283464566929},{"duration":0.08571425000000232,"midi":0,"time":42.77141075,"velocity":0.1732283464566929},{"duration":0.08571425000000232,"midi":0,"time":42.857125,"velocity":0.1732283464566929},{"duration":0.08571425000000232,"midi":0,"time":42.857125,"velocity":0.1732283464566929},{"duration":0.08571425000000232,"midi":0,"time":42.857125,"velocity":0.1732283464566929},{"duration":0.08571425000000232,"midi":0,"time":42.857125,"velocity":0.1732283464566929},{"duration":0.08571425000000232,"midi":0,"time":42.857125,"velocity":0.1732283464566929},{"duration":0.08571424999999522,"midi":0,"time":42.942839250000006,"velocity":0.1732283464566929},{"duration":0.08571425000000232,"midi":0,"time":43.0285535,"velocity":0.1732283464566929},{"duration":0.08571425000000232,"midi":0,"time":43.0285535,"velocity":0.1732283464566929},{"duration":0.08571425000000232,"midi":0,"time":43.0285535,"velocity":0.1732283464566929},{"duration":0.08571425000000232,"midi":0,"time":43.11426775,"velocity":0.1732283464566929},{"duration":0.08571424999999522,"midi":0,"time":43.199982000000006,"velocity":0.1732283464566929},{"duration":0.08571424999999522,"midi":0,"time":43.199982000000006,"velocity":0.1732283464566929},{"duration":0.08571424999999522,"midi":0,"time":43.199982000000006,"velocity":0.1732283464566929},{"duration":0.08571424999999522,"midi":0,"time":43.199982000000006,"velocity":0.1732283464566929},{"duration":0.08571424999999522,"midi":0,"time":43.199982000000006,"velocity":0.1732283464566929},{"duration":0.08571425000000232,"midi":0,"time":43.28569625,"velocity":0.1732283464566929},{"duration":0.08571425000000232,"midi":0,"time":43.3714105,"velocity":0.1732283464566929},{"duration":0.08571425000000232,"midi":0,"time":43.3714105,"velocity":0.1732283464566929},{"duration":0.08571425000000232,"midi":0,"time":43.3714105,"velocity":0.1732283464566929},{"duration":0.08571424999999522,"midi":0,"time":43.457124750000006,"velocity":0.1732283464566929},{"duration":0.08571425000000232,"midi":0,"time":43.542839,"velocity":0.1732283464566929},{"duration":0.08571425000000232,"midi":0,"time":43.542839,"velocity":0.1732283464566929},{"duration":0.08571425000000232,"midi":0,"time":43.542839,"velocity":0.1732283464566929},{"duration":0.08571425000000232,"midi":0,"time":43.542839,"velocity":0.1732283464566929},{"duration":0.08571425000000232,"midi":0,"time":43.542839,"velocity":0.1732283464566929},{"duration":0.08571425000000232,"midi":0,"time":43.62855325,"velocity":0.1732283464566929},{"duration":0.08571424999999522,"midi":0,"time":43.714267500000005,"velocity":0.1732283464566929},{"duration":0.08571424999999522,"midi":0,"time":43.714267500000005,"velocity":0.1732283464566929},{"duration":0.08571424999999522,"midi":0,"time":43.714267500000005,"velocity":0.1732283464566929},{"duration":0.08571425000000232,"midi":0,"time":43.79998175,"velocity":0.1732283464566929},{"duration":0.08571425000000232,"midi":0,"time":43.885696,"velocity":0.1732283464566929},{"duration":0.08571425000000232,"midi":0,"time":43.885696,"velocity":0.1732283464566929},{"duration":0.08571425000000232,"midi":0,"time":43.885696,"velocity":0.1732283464566929},{"duration":0.08571425000000232,"midi":0,"time":43.885696,"velocity":0.1732283464566929},{"duration":0.08571425000000232,"midi":0,"time":43.885696,"velocity":0.1732283464566929},{"duration":0.08571424999999522,"midi":0,"time":43.971410250000005,"velocity":0.1732283464566929},{"duration":0.08571425000000232,"midi":0,"time":44.0571245,"velocity":0.1732283464566929},{"duration":0.08571425000000232,"midi":0,"time":44.0571245,"velocity":0.1732283464566929},{"duration":0.08571425000000232,"midi":0,"time":44.0571245,"velocity":0.1732283464566929},{"duration":0.08571425000000232,"midi":0,"time":44.14283875,"velocity":0.1732283464566929},{"duration":0.08571424999999522,"midi":0,"time":44.228553000000005,"velocity":0.1732283464566929},{"duration":0.08571424999999522,"midi":0,"time":44.228553000000005,"velocity":0.1732283464566929},{"duration":0.08571424999999522,"midi":0,"time":44.228553000000005,"velocity":0.1732283464566929},{"duration":0.08571425000000232,"midi":0,"time":44.31426725,"velocity":0.1732283464566929},{"duration":0.08571425000000232,"midi":0,"time":44.3999815,"velocity":0.1732283464566929},{"duration":0.08571425000000232,"midi":0,"time":44.3999815,"velocity":0.1732283464566929},{"duration":0.08571425000000232,"midi":0,"time":44.3999815,"velocity":0.1732283464566929},{"duration":0.08571424999999522,"midi":0,"time":44.485695750000005,"velocity":0.1732283464566929},{"duration":0.08571425000000232,"midi":0,"time":44.57141,"velocity":0.1732283464566929},{"duration":0.08571425000000232,"midi":0,"time":44.65712425,"velocity":0.1732283464566929},{"duration":0.08571424999999522,"midi":0,"time":44.742838500000005,"velocity":0.1732283464566929},{"duration":0.08571424999999522,"midi":0,"time":44.742838500000005,"velocity":0.1732283464566929},{"duration":0.08571424999999522,"midi":0,"time":44.742838500000005,"velocity":0.1732283464566929},{"duration":0.08571425000000232,"midi":0,"time":44.82855275,"velocity":0.1732283464566929},{"duration":0.08571425000000232,"midi":0,"time":44.914267,"velocity":0.1732283464566929},{"duration":0.08571425000000232,"midi":0,"time":44.914267,"velocity":0.1732283464566929},{"duration":0.08571425000000232,"midi":0,"time":44.914267,"velocity":0.1732283464566929},{"duration":0.08571424999999522,"midi":0,"time":44.999981250000005,"velocity":0.1732283464566929},{"duration":0.08571425000000232,"midi":0,"time":45.0856955,"velocity":0.1732283464566929},{"duration":0.08571425000000232,"midi":0,"time":45.0856955,"velocity":0.1732283464566929},{"duration":0.08571425000000232,"midi":0,"time":45.0856955,"velocity":0.1732283464566929},{"duration":0.08571425000000232,"midi":0,"time":45.17140975,"velocity":0.1732283464566929},{"duration":0.08571424999999522,"midi":0,"time":45.257124000000005,"velocity":0.1732283464566929},{"duration":0.08571424999999522,"midi":0,"time":45.257124000000005,"velocity":0.1732283464566929},{"duration":0.08571424999999522,"midi":0,"time":45.257124000000005,"velocity":0.1732283464566929},{"duration":0.08571425000000232,"midi":0,"time":45.34283825,"velocity":0.1732283464566929},{"duration":0.08571425000000232,"midi":0,"time":45.4285525,"velocity":0.1732283464566929},{"duration":0.08571425000000232,"midi":0,"time":45.4285525,"velocity":0.1732283464566929},{"duration":0.08571425000000232,"midi":0,"time":45.4285525,"velocity":0.1732283464566929},{"duration":0.08571424999999522,"midi":0,"time":45.514266750000004,"velocity":0.1732283464566929},{"duration":0.08571425000000232,"midi":0,"time":45.599981,"velocity":0.1732283464566929},{"duration":0.08571425000000232,"midi":0,"time":45.599981,"velocity":0.1732283464566929},{"duration":0.08571425000000232,"midi":0,"time":45.599981,"velocity":0.1732283464566929},{"duration":0.08571425000000232,"midi":0,"time":45.68569525,"velocity":0.1732283464566929},{"duration":0.08571424999999522,"midi":0,"time":45.771409500000004,"velocity":0.1732283464566929},{"duration":0.08571424999999522,"midi":0,"time":45.771409500000004,"velocity":0.1732283464566929},{"duration":0.08571424999999522,"midi":0,"time":45.771409500000004,"velocity":0.1732283464566929},{"duration":0.08571425000000232,"midi":0,"time":45.85712375,"velocity":0.1732283464566929},{"duration":0.08571425000000232,"midi":0,"time":45.942838,"velocity":0.1732283464566929},{"duration":0.08571425000000232,"midi":0,"time":46.028552250000004,"velocity":0.1732283464566929},{"duration":0.08571424999999522,"midi":0,"time":46.11426650000001,"velocity":0.1732283464566929},{"duration":0.08571424999999522,"midi":0,"time":46.11426650000001,"velocity":0.1732283464566929},{"duration":0.08571424999999522,"midi":0,"time":46.11426650000001,"velocity":0.1732283464566929},{"duration":0.08571425000000232,"midi":0,"time":46.19998075,"velocity":0.1732283464566929},{"duration":0.08571425000000232,"midi":0,"time":46.285695000000004,"velocity":0.1732283464566929},{"duration":0.08571425000000232,"midi":0,"time":46.285695000000004,"velocity":0.1732283464566929},{"duration":0.08571425000000232,"midi":0,"time":46.285695000000004,"velocity":0.1732283464566929},{"duration":0.08571424999999522,"midi":0,"time":46.371409250000006,"velocity":0.1732283464566929},{"duration":0.08571425000000232,"midi":0,"time":46.4571235,"velocity":0.1732283464566929},{"duration":0.08571425000000232,"midi":0,"time":46.4571235,"velocity":0.1732283464566929},{"duration":0.08571425000000232,"midi":0,"time":46.4571235,"velocity":0.1732283464566929},{"duration":0.08571425000000232,"midi":0,"time":46.542837750000004,"velocity":0.1732283464566929},{"duration":0.08571424999999522,"midi":0,"time":46.628552000000006,"velocity":0.1732283464566929},{"duration":0.08571424999999522,"midi":0,"time":46.628552000000006,"velocity":0.1732283464566929},{"duration":0.08571424999999522,"midi":0,"time":46.628552000000006,"velocity":0.1732283464566929},{"duration":0.08571424999999522,"midi":0,"time":46.628552000000006,"velocity":0.1732283464566929},{"duration":0.08571424999999522,"midi":0,"time":46.628552000000006,"velocity":0.1732283464566929},{"duration":0.08571425000000232,"midi":0,"time":46.71426625,"velocity":0.1732283464566929},{"duration":0.08571425000000232,"midi":0,"time":46.799980500000004,"velocity":0.1732283464566929},{"duration":0.08571425000000232,"midi":0,"time":46.799980500000004,"velocity":0.1732283464566929},{"duration":0.08571425000000232,"midi":0,"time":46.799980500000004,"velocity":0.1732283464566929},{"duration":0.08571424999999522,"midi":0,"time":46.885694750000006,"velocity":0.1732283464566929},{"duration":0.08571425000000232,"midi":0,"time":46.971409,"velocity":0.1732283464566929},{"duration":0.08571425000000232,"midi":0,"time":46.971409,"velocity":0.1732283464566929},{"duration":0.08571425000000232,"midi":0,"time":46.971409,"velocity":0.1732283464566929},{"duration":0.08571425000000232,"midi":0,"time":47.057123250000004,"velocity":0.1732283464566929},{"duration":0.08571424999999522,"midi":0,"time":47.142837500000006,"velocity":0.1732283464566929},{"duration":0.08571424999999522,"midi":0,"time":47.142837500000006,"velocity":0.1732283464566929},{"duration":0.08571424999999522,"midi":0,"time":47.142837500000006,"velocity":0.1732283464566929},{"duration":0.08571425000000232,"midi":0,"time":47.22855175,"velocity":0.1732283464566929},{"duration":0.08571425000000232,"midi":0,"time":47.314266,"velocity":0.1732283464566929},{"duration":0.08571424999999522,"midi":0,"time":47.399980250000006,"velocity":0.1732283464566929},{"duration":0.08571425000000232,"midi":0,"time":47.4856945,"velocity":0.1732283464566929},{"duration":0.08571425000000232,"midi":0,"time":47.4856945,"velocity":0.1732283464566929},{"duration":0.08571425000000232,"midi":0,"time":47.4856945,"velocity":0.1732283464566929},{"duration":0.08571425000000232,"midi":0,"time":47.57140875,"velocity":0.1732283464566929},{"duration":0.08571424999999522,"midi":0,"time":47.657123000000006,"velocity":0.1732283464566929},{"duration":0.08571424999999522,"midi":0,"time":47.657123000000006,"velocity":0.1732283464566929},{"duration":0.08571424999999522,"midi":0,"time":47.657123000000006,"velocity":0.1732283464566929},{"duration":0.08571425000000232,"midi":0,"time":47.74283725,"velocity":0.1732283464566929},{"duration":0.08571425000000232,"midi":0,"time":47.8285515,"velocity":0.1732283464566929},{"duration":0.08571425000000232,"midi":0,"time":47.8285515,"velocity":0.1732283464566929},{"duration":0.08571425000000232,"midi":0,"time":47.8285515,"velocity":0.1732283464566929},{"duration":0.08571424999999522,"midi":0,"time":47.914265750000006,"velocity":0.1732283464566929},{"duration":0.08571425000000232,"midi":0,"time":47.99998,"velocity":0.1732283464566929},{"duration":0.08571425000000232,"midi":0,"time":47.99998,"velocity":0.1732283464566929},{"duration":0.08571425000000232,"midi":0,"time":47.99998,"velocity":0.1732283464566929},{"duration":0.08571425000000232,"midi":0,"time":47.99998,"velocity":0.1732283464566929},{"duration":0.08571425000000232,"midi":0,"time":47.99998,"velocity":0.1732283464566929},{"duration":0.08571425000000232,"midi":0,"time":48.08569425,"velocity":0.1732283464566929},{"duration":0.08571424999999522,"midi":0,"time":48.171408500000005,"velocity":0.1732283464566929},{"duration":0.08571424999999522,"midi":0,"time":48.171408500000005,"velocity":0.1732283464566929},{"duration":0.08571424999999522,"midi":0,"time":48.171408500000005,"velocity":0.1732283464566929},{"duration":0.08571425000000232,"midi":0,"time":48.25712275,"velocity":0.1732283464566929},{"duration":0.08571425000000232,"midi":0,"time":48.342837,"velocity":0.1732283464566929},{"duration":0.08571425000000232,"midi":0,"time":48.342837,"velocity":0.1732283464566929},{"duration":0.08571425000000232,"midi":0,"time":48.342837,"velocity":0.1732283464566929},{"duration":0.08571424999999522,"midi":0,"time":48.428551250000005,"velocity":0.1732283464566929},{"duration":0.08571425000000232,"midi":0,"time":48.5142655,"velocity":0.1732283464566929},{"duration":0.08571425000000232,"midi":0,"time":48.5142655,"velocity":0.1732283464566929},{"duration":0.08571425000000232,"midi":0,"time":48.5142655,"velocity":0.1732283464566929},{"duration":0.08571425000000232,"midi":0,"time":48.59997975,"velocity":0.1732283464566929},{"duration":0.08571424999999522,"midi":0,"time":48.685694000000005,"velocity":0.1732283464566929},{"duration":0.08571424999999522,"midi":0,"time":48.685694000000005,"velocity":0.1732283464566929},{"duration":0.08571424999999522,"midi":0,"time":48.685694000000005,"velocity":0.1732283464566929},{"duration":0.08571424999999522,"midi":0,"time":48.685694000000005,"velocity":0.1732283464566929},{"duration":0.08571424999999522,"midi":0,"time":48.685694000000005,"velocity":0.1732283464566929},{"duration":0.08571425000000232,"midi":0,"time":48.77140825,"velocity":0.1732283464566929},{"duration":0.08571425000000232,"midi":0,"time":48.8571225,"velocity":0.1732283464566929},{"duration":0.08571425000000232,"midi":0,"time":48.8571225,"velocity":0.1732283464566929},{"duration":0.08571425000000232,"midi":0,"time":48.8571225,"velocity":0.1732283464566929},{"duration":0.08571424999999522,"midi":0,"time":48.942836750000005,"velocity":0.1732283464566929},{"duration":0.08571425000000232,"midi":0,"time":49.028551,"velocity":0.1732283464566929},{"duration":0.08571425000000232,"midi":0,"time":49.028551,"velocity":0.1732283464566929},{"duration":0.08571425000000232,"midi":0,"time":49.028551,"velocity":0.1732283464566929},{"duration":0.08571425000000232,"midi":0,"time":49.11426525,"velocity":0.1732283464566929},{"duration":0.08571424999999522,"midi":0,"time":49.199979500000005,"velocity":0.1732283464566929},{"duration":0.08571424999999522,"midi":0,"time":49.199979500000005,"velocity":0.1732283464566929},{"duration":0.08571424999999522,"midi":0,"time":49.199979500000005,"velocity":0.1732283464566929},{"duration":0.08571425000000232,"midi":0,"time":49.28569375,"velocity":0.1732283464566929},{"duration":0.08571425000000232,"midi":0,"time":49.371408,"velocity":0.1732283464566929},{"duration":0.08571425000000232,"midi":0,"time":49.371408,"velocity":0.1732283464566929},{"duration":0.08571425000000232,"midi":0,"time":49.371408,"velocity":0.1732283464566929},{"duration":0.08571425000000232,"midi":0,"time":49.371408,"velocity":0.1732283464566929},{"duration":0.08571425000000232,"midi":0,"time":49.371408,"velocity":0.1732283464566929},{"duration":0.08571424999999522,"midi":0,"time":49.457122250000005,"velocity":0.1732283464566929},{"duration":0.08571425000000232,"midi":0,"time":49.5428365,"velocity":0.1732283464566929},{"duration":0.08571425000000232,"midi":0,"time":49.5428365,"velocity":0.1732283464566929},{"duration":0.08571425000000232,"midi":0,"time":49.5428365,"velocity":0.1732283464566929},{"duration":0.08571425000000232,"midi":0,"time":49.62855075,"velocity":0.1732283464566929},{"duration":0.08571424999999522,"midi":0,"time":49.714265000000005,"velocity":0.1732283464566929},{"duration":0.08571424999999522,"midi":0,"time":49.714265000000005,"velocity":0.1732283464566929},{"duration":0.08571424999999522,"midi":0,"time":49.714265000000005,"velocity":0.1732283464566929},{"duration":0.08571425000000232,"midi":0,"time":49.79997925,"velocity":0.1732283464566929},{"duration":0.08571425000000232,"midi":0,"time":49.8856935,"velocity":0.1732283464566929},{"duration":0.08571425000000232,"midi":0,"time":49.8856935,"velocity":0.1732283464566929},{"duration":0.08571425000000232,"midi":0,"time":49.8856935,"velocity":0.1732283464566929},{"duration":0.08571425000000232,"midi":0,"time":49.971407750000004,"velocity":0.1732283464566929},{"duration":0.08571424999999522,"midi":0,"time":50.05712200000001,"velocity":0.1732283464566929},{"duration":0.08571425000000232,"midi":0,"time":50.14283625,"velocity":0.1732283464566929},{"duration":0.08571425000000232,"midi":0,"time":50.228550500000004,"velocity":0.1732283464566929},{"duration":0.08571425000000232,"midi":0,"time":50.228550500000004,"velocity":0.1732283464566929},{"duration":0.08571425000000232,"midi":0,"time":50.228550500000004,"velocity":0.1732283464566929},{"duration":0.08571424999999522,"midi":0,"time":50.31426475000001,"velocity":0.1732283464566929},{"duration":0.08571425000000232,"midi":0,"time":50.399979,"velocity":0.1732283464566929},{"duration":0.08571425000000232,"midi":0,"time":50.399979,"velocity":0.1732283464566929},{"duration":0.08571425000000232,"midi":0,"time":50.399979,"velocity":0.1732283464566929},{"duration":0.08571425000000232,"midi":0,"time":50.485693250000004,"velocity":0.1732283464566929},{"duration":0.08571424999999522,"midi":0,"time":50.57140750000001,"velocity":0.1732283464566929},{"duration":0.08571424999999522,"midi":0,"time":50.57140750000001,"velocity":0.1732283464566929},{"duration":0.08571424999999522,"midi":0,"time":50.57140750000001,"velocity":0.1732283464566929},{"duration":0.08571425000000232,"midi":0,"time":50.65712175,"velocity":0.1732283464566929},{"duration":0.08571425000000232,"midi":0,"time":50.742836000000004,"velocity":0.1732283464566929},{"duration":0.08571425000000232,"midi":0,"time":50.742836000000004,"velocity":0.1732283464566929},{"duration":0.08571425000000232,"midi":0,"time":50.742836000000004,"velocity":0.1732283464566929},{"duration":0.08571424999999522,"midi":0,"time":50.828550250000006,"velocity":0.1732283464566929},{"duration":0.08571425000000232,"midi":0,"time":50.9142645,"velocity":0.1732283464566929},{"duration":0.08571425000000232,"midi":0,"time":50.9142645,"velocity":0.1732283464566929},{"duration":0.08571425000000232,"midi":0,"time":50.9142645,"velocity":0.1732283464566929},{"duration":0.08571425000000232,"midi":0,"time":50.999978750000004,"velocity":0.1732283464566929},{"duration":0.08571424999999522,"midi":0,"time":51.085693000000006,"velocity":0.1732283464566929},{"duration":0.08571424999999522,"midi":0,"time":51.085693000000006,"velocity":0.1732283464566929},{"duration":0.08571424999999522,"midi":0,"time":51.085693000000006,"velocity":0.1732283464566929},{"duration":0.08571425000000232,"midi":0,"time":51.17140725,"velocity":0.1732283464566929},{"duration":0.08571425000000232,"midi":0,"time":51.257121500000004,"velocity":0.1732283464566929},{"duration":0.08571425000000232,"midi":0,"time":51.257121500000004,"velocity":0.1732283464566929},{"duration":0.08571425000000232,"midi":0,"time":51.257121500000004,"velocity":0.1732283464566929},{"duration":0.08571424999999522,"midi":0,"time":51.342835750000006,"velocity":0.1732283464566929},{"duration":0.08571425000000232,"midi":0,"time":51.42855,"velocity":0.1732283464566929},{"duration":0.08571425000000232,"midi":0,"time":51.514264250000004,"velocity":0.1732283464566929},{"duration":0.08571424999999522,"midi":0,"time":51.599978500000006,"velocity":0.1732283464566929},{"duration":0.08571424999999522,"midi":0,"time":51.599978500000006,"velocity":0.1732283464566929},{"duration":0.08571424999999522,"midi":0,"time":51.599978500000006,"velocity":0.1732283464566929},{"duration":0.08571425000000232,"midi":0,"time":51.68569275,"velocity":0.1732283464566929},{"duration":0.08571425000000232,"midi":0,"time":51.771407,"velocity":0.1732283464566929},{"duration":0.08571425000000232,"midi":0,"time":51.771407,"velocity":0.1732283464566929},{"duration":0.08571425000000232,"midi":0,"time":51.771407,"velocity":0.1732283464566929},{"duration":0.08571424999999522,"midi":0,"time":51.857121250000006,"velocity":0.1732283464566929},{"duration":0.08571425000000232,"midi":0,"time":51.9428355,"velocity":0.1732283464566929},{"duration":0.08571425000000232,"midi":0,"time":51.9428355,"velocity":0.1732283464566929},{"duration":0.08571425000000232,"midi":0,"time":51.9428355,"velocity":0.1732283464566929},{"duration":0.08571425000000232,"midi":0,"time":52.02854975,"velocity":0.1732283464566929},{"duration":0.08571424999999522,"midi":0,"time":52.114264000000006,"velocity":0.1732283464566929},{"duration":0.08571424999999522,"midi":0,"time":52.114264000000006,"velocity":0.1732283464566929},{"duration":0.08571424999999522,"midi":0,"time":52.114264000000006,"velocity":0.1732283464566929},{"duration":0.08571424999999522,"midi":0,"time":52.114264000000006,"velocity":0.1732283464566929},{"duration":0.08571424999999522,"midi":0,"time":52.114264000000006,"velocity":0.1732283464566929},{"duration":0.08571425000000232,"midi":0,"time":52.19997825,"velocity":0.1732283464566929},{"duration":0.08571425000000232,"midi":0,"time":52.2856925,"velocity":0.1732283464566929},{"duration":0.08571425000000232,"midi":0,"time":52.2856925,"velocity":0.1732283464566929},{"duration":0.08571425000000232,"midi":0,"time":52.2856925,"velocity":0.1732283464566929},{"duration":0.08571424999999522,"midi":0,"time":52.371406750000006,"velocity":0.1732283464566929},{"duration":0.08571425000000232,"midi":0,"time":52.457121,"velocity":0.1732283464566929},{"duration":0.08571425000000232,"midi":0,"time":52.457121,"velocity":0.1732283464566929},{"duration":0.08571425000000232,"midi":0,"time":52.457121,"velocity":0.1732283464566929},{"duration":0.08571425000000232,"midi":0,"time":52.54283525,"velocity":0.1732283464566929},{"duration":0.08571424999999522,"midi":0,"time":52.628549500000005,"velocity":0.1732283464566929},{"duration":0.08571424999999522,"midi":0,"time":52.628549500000005,"velocity":0.1732283464566929},{"duration":0.08571424999999522,"midi":0,"time":52.628549500000005,"velocity":0.1732283464566929},{"duration":0.08571425000000232,"midi":0,"time":52.71426375,"velocity":0.1732283464566929},{"duration":0.08571425000000232,"midi":0,"time":52.799978,"velocity":0.1732283464566929},{"duration":0.08571425000000232,"midi":0,"time":52.799978,"velocity":0.1732283464566929},{"duration":0.08571425000000232,"midi":0,"time":52.799978,"velocity":0.1732283464566929},{"duration":0.08571424999999522,"midi":0,"time":52.885692250000005,"velocity":0.1732283464566929},{"duration":0.08571425000000232,"midi":0,"time":52.9714065,"velocity":0.1732283464566929},{"duration":0.08571425000000232,"midi":0,"time":52.9714065,"velocity":0.1732283464566929},{"duration":0.08571425000000232,"midi":0,"time":52.9714065,"velocity":0.1732283464566929},{"duration":0.08571425000000232,"midi":0,"time":53.05712075,"velocity":0.1732283464566929},{"duration":0.08571424999999522,"midi":0,"time":53.142835000000005,"velocity":0.1732283464566929},{"duration":0.08571424999999522,"midi":0,"time":53.142835000000005,"velocity":0.1732283464566929},{"duration":0.08571424999999522,"midi":0,"time":53.142835000000005,"velocity":0.1732283464566929},{"duration":0.08571425000000232,"midi":0,"time":53.22854925,"velocity":0.1732283464566929},{"duration":0.08571425000000232,"midi":0,"time":53.3142635,"velocity":0.1732283464566929},{"duration":0.08571425000000232,"midi":0,"time":53.3142635,"velocity":0.1732283464566929},{"duration":0.08571425000000232,"midi":0,"time":53.3142635,"velocity":0.1732283464566929},{"duration":0.08571424999999522,"midi":0,"time":53.399977750000005,"velocity":0.1732283464566929},{"duration":0.08571425000000232,"midi":0,"time":53.485692,"velocity":0.1732283464566929},{"duration":0.08571425000000232,"midi":0,"time":53.485692,"velocity":0.1732283464566929},{"duration":0.08571425000000232,"midi":0,"time":53.485692,"velocity":0.1732283464566929},{"duration":0.08571425000000232,"midi":0,"time":53.485692,"velocity":0.1732283464566929},{"duration":0.08571425000000232,"midi":0,"time":53.485692,"velocity":0.1732283464566929},{"duration":0.08571425000000232,"midi":0,"time":53.57140625,"velocity":0.1732283464566929},{"duration":0.08571424999999522,"midi":0,"time":53.657120500000005,"velocity":0.1732283464566929},{"duration":0.08571424999999522,"midi":0,"time":53.657120500000005,"velocity":0.1732283464566929},{"duration":0.08571424999999522,"midi":0,"time":53.657120500000005,"velocity":0.1732283464566929},{"duration":0.08571425000000232,"midi":0,"time":53.74283475,"velocity":0.1732283464566929},{"duration":0.08571425000000232,"midi":0,"time":53.828549,"velocity":0.1732283464566929},{"duration":0.08571425000000232,"midi":0,"time":53.828549,"velocity":0.1732283464566929},{"duration":0.08571425000000232,"midi":0,"time":53.828549,"velocity":0.1732283464566929},{"duration":0.08571425000000232,"midi":0,"time":53.828549,"velocity":0.1732283464566929},{"duration":0.08571425000000232,"midi":0,"time":53.828549,"velocity":0.1732283464566929},{"duration":0.08571425000000232,"midi":0,"time":53.914263250000005,"velocity":0.1732283464566929},{"duration":0.08571424999999522,"midi":0,"time":53.99997750000001,"velocity":0.1732283464566929},{"duration":0.08571424999999522,"midi":0,"time":53.99997750000001,"velocity":0.1732283464566929},{"duration":0.08571424999999522,"midi":0,"time":53.99997750000001,"velocity":0.1732283464566929},{"duration":0.08571425000000232,"midi":0,"time":54.08569175,"velocity":0.1732283464566929},{"duration":0.08571425000000232,"midi":0,"time":54.171406000000005,"velocity":0.1732283464566929},{"duration":0.08571425000000232,"midi":0,"time":54.171406000000005,"velocity":0.1732283464566929},{"duration":0.08571425000000232,"midi":0,"time":54.171406000000005,"velocity":0.1732283464566929},{"duration":0.08571425000000232,"midi":0,"time":54.171406000000005,"velocity":0.1732283464566929},{"duration":0.08571425000000232,"midi":0,"time":54.171406000000005,"velocity":0.1732283464566929},{"duration":0.08571424999999522,"midi":0,"time":54.25712025000001,"velocity":0.1732283464566929},{"duration":0.08571425000000232,"midi":0,"time":54.3428345,"velocity":0.1732283464566929},{"duration":0.08571425000000232,"midi":0,"time":54.3428345,"velocity":0.1732283464566929},{"duration":0.08571425000000232,"midi":0,"time":54.3428345,"velocity":0.1732283464566929},{"duration":0.08571425000000232,"midi":0,"time":54.428548750000004,"velocity":0.1732283464566929},{"duration":0.08571424999999522,"midi":0,"time":54.51426300000001,"velocity":0.1732283464566929},{"duration":0.08571424999999522,"midi":0,"time":54.51426300000001,"velocity":0.1732283464566929},{"duration":0.08571424999999522,"midi":0,"time":54.51426300000001,"velocity":0.1732283464566929},{"duration":0.08571424999999522,"midi":0,"time":54.51426300000001,"velocity":0.1732283464566929},{"duration":0.08571424999999522,"midi":0,"time":54.51426300000001,"velocity":0.1732283464566929},{"duration":0.08571425000000232,"midi":0,"time":54.59997725,"velocity":0.1732283464566929},{"duration":0.08571425000000232,"midi":0,"time":54.685691500000004,"velocity":0.1732283464566929},{"duration":0.08571425000000232,"midi":0,"time":54.685691500000004,"velocity":0.1732283464566929},{"duration":0.08571425000000232,"midi":0,"time":54.685691500000004,"velocity":0.1732283464566929},{"duration":0.08571424999999522,"midi":0,"time":54.77140575000001,"velocity":0.1732283464566929},{"duration":0.08571425000000232,"midi":0,"time":54.85712,"velocity":0.1732283464566929},{"duration":0.08571425000000232,"midi":0,"time":54.85712,"velocity":0.1732283464566929},{"duration":0.08571425000000232,"midi":0,"time":54.85712,"velocity":0.1732283464566929},{"duration":0.08571425000000232,"midi":0,"time":54.85712,"velocity":0.1732283464566929},{"duration":0.08571425000000232,"midi":0,"time":54.85712,"velocity":0.1732283464566929},{"duration":0.08571425000000232,"midi":0,"time":54.942834250000004,"velocity":0.1732283464566929},{"duration":0.08571424999999522,"midi":0,"time":55.02854850000001,"velocity":0.1732283464566929},{"duration":0.08571424999999522,"midi":0,"time":55.02854850000001,"velocity":0.1732283464566929},{"duration":0.08571424999999522,"midi":0,"time":55.02854850000001,"velocity":0.1732283464566929},{"duration":0.08571425000000232,"midi":0,"time":55.11426275,"velocity":0.1732283464566929},{"duration":0.08571425000000232,"midi":0,"time":55.199977000000004,"velocity":0.1732283464566929},{"duration":0.08571425000000232,"midi":0,"time":55.199977000000004,"velocity":0.1732283464566929},{"duration":0.08571425000000232,"midi":0,"time":55.199977000000004,"velocity":0.1732283464566929},{"duration":0.08571424999999522,"midi":0,"time":55.285691250000006,"velocity":0.1732283464566929},{"duration":0.08571425000000232,"midi":0,"time":55.3714055,"velocity":0.1732283464566929},{"duration":0.08571425000000232,"midi":0,"time":55.3714055,"velocity":0.1732283464566929},{"duration":0.08571425000000232,"midi":0,"time":55.3714055,"velocity":0.1732283464566929},{"duration":0.08571425000000232,"midi":0,"time":55.457119750000004,"velocity":0.1732283464566929},{"duration":0.08571424999999522,"midi":0,"time":55.542834000000006,"velocity":0.1732283464566929},{"duration":0.08571425000000232,"midi":0,"time":55.62854825,"velocity":0.1732283464566929},{"duration":0.08571425000000232,"midi":0,"time":55.714262500000004,"velocity":0.1732283464566929},{"duration":0.08571425000000232,"midi":0,"time":55.714262500000004,"velocity":0.1732283464566929},{"duration":0.08571425000000232,"midi":0,"time":55.714262500000004,"velocity":0.1732283464566929},{"duration":0.08571424999999522,"midi":0,"time":55.799976750000006,"velocity":0.1732283464566929},{"duration":0.08571425000000232,"midi":0,"time":55.885691,"velocity":0.1732283464566929},{"duration":0.08571425000000232,"midi":0,"time":55.885691,"velocity":0.1732283464566929},{"duration":0.08571425000000232,"midi":0,"time":55.885691,"velocity":0.1732283464566929},{"duration":0.08571425000000232,"midi":0,"time":55.971405250000004,"velocity":0.1732283464566929},{"duration":0.08571424999999522,"midi":0,"time":56.057119500000006,"velocity":0.1732283464566929},{"duration":0.08571424999999522,"midi":0,"time":56.057119500000006,"velocity":0.1732283464566929},{"duration":0.08571424999999522,"midi":0,"time":56.057119500000006,"velocity":0.1732283464566929},{"duration":0.08571425000000232,"midi":0,"time":56.14283375,"velocity":0.1732283464566929},{"duration":0.08571425000000232,"midi":0,"time":56.228548,"velocity":0.1732283464566929},{"duration":0.08571425000000232,"midi":0,"time":56.228548,"velocity":0.1732283464566929},{"duration":0.08571425000000232,"midi":0,"time":56.228548,"velocity":0.1732283464566929},{"duration":0.08571424999999522,"midi":0,"time":56.314262250000006,"velocity":0.1732283464566929},{"duration":0.08571425000000232,"midi":0,"time":56.3999765,"velocity":0.1732283464566929},{"duration":0.08571425000000232,"midi":0,"time":56.3999765,"velocity":0.1732283464566929},{"duration":0.08571425000000232,"midi":0,"time":56.3999765,"velocity":0.1732283464566929},{"duration":0.08571425000000232,"midi":0,"time":56.48569075,"velocity":0.1732283464566929},{"duration":0.08571424999999522,"midi":0,"time":56.571405000000006,"velocity":0.1732283464566929},{"duration":0.08571424999999522,"midi":0,"time":56.571405000000006,"velocity":0.1732283464566929},{"duration":0.08571424999999522,"midi":0,"time":56.571405000000006,"velocity":0.1732283464566929},{"duration":0.08571425000000232,"midi":0,"time":56.65711925,"velocity":0.1732283464566929},{"duration":0.08571425000000232,"midi":0,"time":56.7428335,"velocity":0.1732283464566929},{"duration":0.08571425000000232,"midi":0,"time":56.7428335,"velocity":0.1732283464566929},{"duration":0.08571425000000232,"midi":0,"time":56.7428335,"velocity":0.1732283464566929},{"duration":0.08571424999999522,"midi":0,"time":56.828547750000006,"velocity":0.1732283464566929},{"duration":0.08571425000000232,"midi":0,"time":56.914262,"velocity":0.1732283464566929},{"duration":0.08571425000000232,"midi":0,"time":56.99997625,"velocity":0.1732283464566929},{"duration":0.08571424999999522,"midi":0,"time":57.085690500000005,"velocity":0.1732283464566929},{"duration":0.08571424999999522,"midi":0,"time":57.085690500000005,"velocity":0.1732283464566929},{"duration":0.08571424999999522,"midi":0,"time":57.085690500000005,"velocity":0.1732283464566929},{"duration":0.08571425000000232,"midi":0,"time":57.17140475,"velocity":0.1732283464566929},{"duration":0.08571425000000232,"midi":0,"time":57.257119,"velocity":0.1732283464566929},{"duration":0.08571425000000232,"midi":0,"time":57.257119,"velocity":0.1732283464566929},{"duration":0.08571425000000232,"midi":0,"time":57.257119,"velocity":0.1732283464566929},{"duration":0.08571424999999522,"midi":0,"time":57.342833250000005,"velocity":0.1732283464566929},{"duration":0.08571425000000232,"midi":0,"time":57.4285475,"velocity":0.1732283464566929},{"duration":0.08571425000000232,"midi":0,"time":57.4285475,"velocity":0.1732283464566929},{"duration":0.08571425000000232,"midi":0,"time":57.4285475,"velocity":0.1732283464566929},{"duration":0.08571425000000232,"midi":0,"time":57.51426175,"velocity":0.1732283464566929},{"duration":0.08571424999999522,"midi":0,"time":57.599976000000005,"velocity":0.1732283464566929},{"duration":0.08571424999999522,"midi":0,"time":57.599976000000005,"velocity":0.1732283464566929},{"duration":0.08571424999999522,"midi":0,"time":57.599976000000005,"velocity":0.1732283464566929},{"duration":0.08571424999999522,"midi":0,"time":57.599976000000005,"velocity":0.1732283464566929},{"duration":0.08571424999999522,"midi":0,"time":57.599976000000005,"velocity":0.1732283464566929},{"duration":0.08571425000000232,"midi":0,"time":57.68569025,"velocity":0.1732283464566929},{"duration":0.08571425000000232,"midi":0,"time":57.7714045,"velocity":0.1732283464566929},{"duration":0.08571425000000232,"midi":0,"time":57.7714045,"velocity":0.1732283464566929},{"duration":0.08571425000000232,"midi":0,"time":57.7714045,"velocity":0.1732283464566929},{"duration":0.08571425000000232,"midi":0,"time":57.857118750000005,"velocity":0.1732283464566929},{"duration":0.08571424999999522,"midi":0,"time":57.94283300000001,"velocity":0.1732283464566929},{"duration":0.08571424999999522,"midi":0,"time":57.94283300000001,"velocity":0.1732283464566929},{"duration":0.08571424999999522,"midi":0,"time":57.94283300000001,"velocity":0.1732283464566929},{"duration":0.08571425000000232,"midi":0,"time":58.02854725,"velocity":0.1732283464566929},{"duration":0.08571425000000232,"midi":0,"time":58.114261500000005,"velocity":0.1732283464566929},{"duration":0.08571425000000232,"midi":0,"time":58.114261500000005,"velocity":0.1732283464566929},{"duration":0.08571425000000232,"midi":0,"time":58.114261500000005,"velocity":0.1732283464566929},{"duration":0.08571424999999522,"midi":0,"time":58.19997575000001,"velocity":0.1732283464566929},{"duration":0.08571425000000232,"midi":0,"time":58.28569,"velocity":0.1732283464566929},{"duration":0.08571425000000232,"midi":0,"time":58.371404250000005,"velocity":0.1732283464566929},{"duration":0.08571424999999522,"midi":0,"time":58.45711850000001,"velocity":0.1732283464566929},{"duration":0.08571424999999522,"midi":0,"time":58.45711850000001,"velocity":0.1732283464566929},{"duration":0.08571424999999522,"midi":0,"time":58.45711850000001,"velocity":0.1732283464566929},{"duration":0.08571425000000232,"midi":0,"time":58.54283275,"velocity":0.1732283464566929},{"duration":0.08571425000000232,"midi":0,"time":58.628547000000005,"velocity":0.1732283464566929},{"duration":0.08571425000000232,"midi":0,"time":58.628547000000005,"velocity":0.1732283464566929},{"duration":0.08571425000000232,"midi":0,"time":58.628547000000005,"velocity":0.1732283464566929},{"duration":0.08571424999999522,"midi":0,"time":58.71426125000001,"velocity":0.1732283464566929},{"duration":0.08571425000000232,"midi":0,"time":58.7999755,"velocity":0.1732283464566929},{"duration":0.08571425000000232,"midi":0,"time":58.7999755,"velocity":0.1732283464566929},{"duration":0.08571425000000232,"midi":0,"time":58.7999755,"velocity":0.1732283464566929},{"duration":0.08571425000000232,"midi":0,"time":58.885689750000004,"velocity":0.1732283464566929},{"duration":0.08571424999999522,"midi":0,"time":58.97140400000001,"velocity":0.1732283464566929},{"duration":0.08571424999999522,"midi":0,"time":58.97140400000001,"velocity":0.1732283464566929},{"duration":0.08571424999999522,"midi":0,"time":58.97140400000001,"velocity":0.1732283464566929},{"duration":0.08571424999999522,"midi":0,"time":58.97140400000001,"velocity":0.1732283464566929},{"duration":0.08571424999999522,"midi":0,"time":58.97140400000001,"velocity":0.1732283464566929},{"duration":0.08571425000000232,"midi":0,"time":59.05711825,"velocity":0.1732283464566929},{"duration":0.08571425000000232,"midi":0,"time":59.142832500000004,"velocity":0.1732283464566929},{"duration":0.08571425000000232,"midi":0,"time":59.142832500000004,"velocity":0.1732283464566929},{"duration":0.08571425000000232,"midi":0,"time":59.142832500000004,"velocity":0.1732283464566929},{"duration":0.08571424999999522,"midi":0,"time":59.22854675000001,"velocity":0.1732283464566929},{"duration":0.08571425000000232,"midi":0,"time":59.314261,"velocity":0.1732283464566929},{"duration":0.08571425000000232,"midi":0,"time":59.314261,"velocity":0.1732283464566929},{"duration":0.08571425000000232,"midi":0,"time":59.314261,"velocity":0.1732283464566929},{"duration":0.08571425000000232,"midi":0,"time":59.399975250000004,"velocity":0.1732283464566929},{"duration":0.08571424999999522,"midi":0,"time":59.48568950000001,"velocity":0.1732283464566929},{"duration":0.08571424999999522,"midi":0,"time":59.48568950000001,"velocity":0.1732283464566929},{"duration":0.08571424999999522,"midi":0,"time":59.48568950000001,"velocity":0.1732283464566929},{"duration":0.08571425000000232,"midi":0,"time":59.57140375,"velocity":0.1732283464566929},{"duration":0.08571425000000232,"midi":0,"time":59.657118000000004,"velocity":0.1732283464566929},{"duration":0.08571425000000232,"midi":0,"time":59.657118000000004,"velocity":0.1732283464566929},{"duration":0.08571425000000232,"midi":0,"time":59.657118000000004,"velocity":0.1732283464566929},{"duration":0.08571425000000232,"midi":0,"time":59.657118000000004,"velocity":0.1732283464566929},{"duration":0.08571425000000232,"midi":0,"time":59.657118000000004,"velocity":0.1732283464566929},{"duration":0.08571424999999522,"midi":0,"time":59.742832250000006,"velocity":0.1732283464566929},{"duration":0.08571425000000232,"midi":0,"time":59.8285465,"velocity":0.1732283464566929},{"duration":0.08571425000000232,"midi":0,"time":59.8285465,"velocity":0.1732283464566929},{"duration":0.08571425000000232,"midi":0,"time":59.8285465,"velocity":0.1732283464566929},{"duration":0.08571425000000232,"midi":0,"time":59.914260750000004,"velocity":0.1732283464566929},{"duration":0.08571424999999522,"midi":0,"time":59.999975000000006,"velocity":0.1732283464566929},{"duration":0.08571424999999522,"midi":0,"time":59.999975000000006,"velocity":0.1732283464566929},{"duration":0.08571424999999522,"midi":0,"time":59.999975000000006,"velocity":0.1732283464566929},{"duration":0.08571425000000232,"midi":0,"time":60.08568925,"velocity":0.1732283464566929},{"duration":0.08571425000000232,"midi":0,"time":60.171403500000004,"velocity":0.1732283464566929},{"duration":0.08571425000000232,"midi":0,"time":60.171403500000004,"velocity":0.1732283464566929},{"duration":0.08571425000000232,"midi":0,"time":60.171403500000004,"velocity":0.1732283464566929},{"duration":0.08571424999999522,"midi":0,"time":60.257117750000006,"velocity":0.1732283464566929},{"duration":0.08571425000000232,"midi":0,"time":60.342832,"velocity":0.1732283464566929},{"duration":0.08571425000000232,"midi":0,"time":60.342832,"velocity":0.1732283464566929},{"duration":0.08571425000000232,"midi":0,"time":60.342832,"velocity":0.1732283464566929},{"duration":0.08571425000000232,"midi":0,"time":60.342832,"velocity":0.1732283464566929},{"duration":0.08571425000000232,"midi":0,"time":60.342832,"velocity":0.1732283464566929},{"duration":0.08571425000000232,"midi":0,"time":60.428546250000004,"velocity":0.1732283464566929},{"duration":0.08571424999999522,"midi":0,"time":60.514260500000006,"velocity":0.1732283464566929},{"duration":0.08571424999999522,"midi":0,"time":60.514260500000006,"velocity":0.1732283464566929},{"duration":0.08571424999999522,"midi":0,"time":60.514260500000006,"velocity":0.1732283464566929},{"duration":0.08571425000000232,"midi":0,"time":60.59997475,"velocity":0.1732283464566929},{"duration":0.08571425000000232,"midi":0,"time":60.685689,"velocity":0.1732283464566929},{"duration":0.08571425000000232,"midi":0,"time":60.685689,"velocity":0.1732283464566929},{"duration":0.08571425000000232,"midi":0,"time":60.685689,"velocity":0.1732283464566929},{"duration":0.08571424999999522,"midi":0,"time":60.771403250000006,"velocity":0.1732283464566929},{"duration":0.08571425000000232,"midi":0,"time":60.8571175,"velocity":0.1732283464566929},{"duration":0.08571425000000232,"midi":0,"time":60.8571175,"velocity":0.1732283464566929},{"duration":0.08571425000000232,"midi":0,"time":60.8571175,"velocity":0.1732283464566929},{"duration":0.08571425000000232,"midi":0,"time":60.94283175,"velocity":0.1732283464566929},{"duration":0.08571424999999522,"midi":0,"time":61.028546000000006,"velocity":0.1732283464566929},{"duration":0.08571425000000232,"midi":0,"time":61.11426025,"velocity":0.1732283464566929},{"duration":0.08571425000000232,"midi":0,"time":61.1999745,"velocity":0.1732283464566929},{"duration":0.08571425000000232,"midi":0,"time":61.1999745,"velocity":0.1732283464566929},{"duration":0.08571425000000232,"midi":0,"time":61.1999745,"velocity":0.1732283464566929},{"duration":0.08571424999999522,"midi":0,"time":61.285688750000006,"velocity":0.1732283464566929},{"duration":0.08571425000000232,"midi":0,"time":61.371403,"velocity":0.1732283464566929},{"duration":0.08571425000000232,"midi":0,"time":61.371403,"velocity":0.1732283464566929},{"duration":0.08571425000000232,"midi":0,"time":61.371403,"velocity":0.1732283464566929},{"duration":0.08571425000000232,"midi":0,"time":61.45711725,"velocity":0.1732283464566929},{"duration":0.08571424999999522,"midi":0,"time":61.542831500000005,"velocity":0.1732283464566929},{"duration":0.08571424999999522,"midi":0,"time":61.542831500000005,"velocity":0.1732283464566929},{"duration":0.08571424999999522,"midi":0,"time":61.542831500000005,"velocity":0.1732283464566929},{"duration":0.08571425000000232,"midi":0,"time":61.62854575,"velocity":0.1732283464566929},{"duration":0.08571425000000232,"midi":0,"time":61.71426,"velocity":0.1732283464566929},{"duration":0.08571425000000232,"midi":0,"time":61.71426,"velocity":0.1732283464566929},{"duration":0.08571425000000232,"midi":0,"time":61.71426,"velocity":0.1732283464566929},{"duration":0.08571425000000232,"midi":0,"time":61.799974250000005,"velocity":0.1732283464566929},{"duration":0.08571424999999522,"midi":0,"time":61.88568850000001,"velocity":0.1732283464566929},{"duration":0.08571424999999522,"midi":0,"time":61.88568850000001,"velocity":0.1732283464566929},{"duration":0.08571424999999522,"midi":0,"time":61.88568850000001,"velocity":0.1732283464566929},{"duration":0.08571425000000232,"midi":0,"time":61.97140275,"velocity":0.1732283464566929},{"duration":0.08571425000000232,"midi":0,"time":62.057117000000005,"velocity":0.1732283464566929},{"duration":0.08571425000000232,"midi":0,"time":62.057117000000005,"velocity":0.1732283464566929},{"duration":0.08571425000000232,"midi":0,"time":62.057117000000005,"velocity":0.1732283464566929},{"duration":0.08571424999999522,"midi":0,"time":62.14283125000001,"velocity":0.1732283464566929},{"duration":0.08571425000000232,"midi":0,"time":62.2285455,"velocity":0.1732283464566929},{"duration":0.08571425000000232,"midi":0,"time":62.2285455,"velocity":0.1732283464566929},{"duration":0.08571425000000232,"midi":0,"time":62.2285455,"velocity":0.1732283464566929},{"duration":0.08571425000000232,"midi":0,"time":62.314259750000005,"velocity":0.1732283464566929},{"duration":0.08571424999999522,"midi":0,"time":62.39997400000001,"velocity":0.1732283464566929},{"duration":0.08571425000000232,"midi":0,"time":62.48568825,"velocity":0.1732283464566929},{"duration":0.08571425000000232,"midi":0,"time":62.571402500000005,"velocity":0.1732283464566929},{"duration":0.08571425000000232,"midi":0,"time":62.571402500000005,"velocity":0.1732283464566929},{"duration":0.08571425000000232,"midi":0,"time":62.571402500000005,"velocity":0.1732283464566929},{"duration":0.08571424999999522,"midi":0,"time":62.65711675000001,"velocity":0.1732283464566929},{"duration":0.08571425000000232,"midi":0,"time":62.742831,"velocity":0.1732283464566929},{"duration":0.08571425000000232,"midi":0,"time":62.742831,"velocity":0.1732283464566929},{"duration":0.08571425000000232,"midi":0,"time":62.742831,"velocity":0.1732283464566929},{"duration":0.08571425000000232,"midi":0,"time":62.828545250000005,"velocity":0.1732283464566929},{"duration":0.08571424999999522,"midi":0,"time":62.91425950000001,"velocity":0.1732283464566929},{"duration":0.08571424999999522,"midi":0,"time":62.91425950000001,"velocity":0.1732283464566929},{"duration":0.08571424999999522,"midi":0,"time":62.91425950000001,"velocity":0.1732283464566929},{"duration":0.08571425000000232,"midi":0,"time":62.99997375,"velocity":0.1732283464566929},{"duration":0.08571425000000232,"midi":0,"time":63.085688000000005,"velocity":0.1732283464566929},{"duration":0.08571425000000232,"midi":0,"time":63.085688000000005,"velocity":0.1732283464566929},{"duration":0.08571425000000232,"midi":0,"time":63.085688000000005,"velocity":0.1732283464566929},{"duration":0.08571425000000232,"midi":0,"time":63.085688000000005,"velocity":0.1732283464566929},{"duration":0.08571425000000232,"midi":0,"time":63.085688000000005,"velocity":0.1732283464566929},{"duration":0.08571424999999522,"midi":0,"time":63.17140225000001,"velocity":0.1732283464566929},{"duration":0.08571425000000232,"midi":0,"time":63.2571165,"velocity":0.1732283464566929},{"duration":0.08571425000000232,"midi":0,"time":63.2571165,"velocity":0.1732283464566929},{"duration":0.08571425000000232,"midi":0,"time":63.2571165,"velocity":0.1732283464566929},{"duration":0.08571425000000232,"midi":0,"time":63.342830750000005,"velocity":0.1732283464566929},{"duration":0.08571424999999522,"midi":0,"time":63.42854500000001,"velocity":0.1732283464566929},{"duration":0.08571424999999522,"midi":0,"time":63.42854500000001,"velocity":0.1732283464566929},{"duration":0.08571424999999522,"midi":0,"time":63.42854500000001,"velocity":0.1732283464566929},{"duration":0.08571425000000232,"midi":0,"time":63.51425925,"velocity":0.1732283464566929},{"duration":0.08571425000000232,"midi":0,"time":63.599973500000004,"velocity":0.1732283464566929},{"duration":0.08571425000000232,"midi":0,"time":63.599973500000004,"velocity":0.1732283464566929},{"duration":0.08571425000000232,"midi":0,"time":63.599973500000004,"velocity":0.1732283464566929},{"duration":0.08571424999999522,"midi":0,"time":63.68568775000001,"velocity":0.1732283464566929},{"duration":0.08571425000000232,"midi":0,"time":63.771402,"velocity":0.1732283464566929},{"duration":0.08571425000000232,"midi":0,"time":63.771402,"velocity":0.1732283464566929},{"duration":0.08571425000000232,"midi":0,"time":63.771402,"velocity":0.1732283464566929},{"duration":0.08571425000000232,"midi":0,"time":63.857116250000004,"velocity":0.1732283464566929},{"duration":0.08571425000000232,"midi":0,"time":63.94283050000001,"velocity":0.1732283464566929},{"duration":0.08571425000000232,"midi":0,"time":63.94283050000001,"velocity":0.1732283464566929},{"duration":0.08571425000000232,"midi":0,"time":63.94283050000001,"velocity":0.1732283464566929},{"duration":0.08571424999999522,"midi":0,"time":64.02854475000001,"velocity":0.1732283464566929},{"duration":0.08571424999999522,"midi":0,"time":64.114259,"velocity":0.1732283464566929},{"duration":0.08571424999999522,"midi":0,"time":64.114259,"velocity":0.1732283464566929},{"duration":0.08571424999999522,"midi":0,"time":64.114259,"velocity":0.1732283464566929},{"duration":0.08571425000000943,"midi":0,"time":64.19997325,"velocity":0.1732283464566929},{"duration":0.08571424999999522,"midi":0,"time":64.28568750000001,"velocity":0.1732283464566929},{"duration":0.08571424999999522,"midi":0,"time":64.28568750000001,"velocity":0.1732283464566929},{"duration":0.08571424999999522,"midi":0,"time":64.28568750000001,"velocity":0.1732283464566929},{"duration":0.08571424999999522,"midi":0,"time":64.37140175,"velocity":0.1732283464566929},{"duration":0.08571425000000943,"midi":0,"time":64.457116,"velocity":0.1732283464566929},{"duration":0.08571425000000943,"midi":0,"time":64.457116,"velocity":0.1732283464566929},{"duration":0.08571425000000943,"midi":0,"time":64.457116,"velocity":0.1732283464566929},{"duration":0.08571425000000943,"midi":0,"time":64.457116,"velocity":0.1732283464566929},{"duration":0.08571425000000943,"midi":0,"time":64.457116,"velocity":0.1732283464566929},{"duration":0.08571424999999522,"midi":0,"time":64.54283025000001,"velocity":0.1732283464566929},{"duration":0.08571424999999522,"midi":0,"time":64.6285445,"velocity":0.1732283464566929},{"duration":0.08571424999999522,"midi":0,"time":64.6285445,"velocity":0.1732283464566929},{"duration":0.08571424999999522,"midi":0,"time":64.6285445,"velocity":0.1732283464566929},{"duration":0.08571425000000943,"midi":0,"time":64.71425875,"velocity":0.1732283464566929},{"duration":0.08571424999999522,"midi":0,"time":64.79997300000001,"velocity":0.1732283464566929},{"duration":0.08571424999999522,"midi":0,"time":64.79997300000001,"velocity":0.1732283464566929},{"duration":0.08571424999999522,"midi":0,"time":64.79997300000001,"velocity":0.1732283464566929},{"duration":0.08571424999999522,"midi":0,"time":64.79997300000001,"velocity":0.1732283464566929},{"duration":0.08571424999999522,"midi":0,"time":64.79997300000001,"velocity":0.1732283464566929},{"duration":0.08571424999999522,"midi":0,"time":64.88568725,"velocity":0.1732283464566929},{"duration":0.08571425000000943,"midi":0,"time":64.9714015,"velocity":0.1732283464566929},{"duration":0.08571425000000943,"midi":0,"time":64.9714015,"velocity":0.1732283464566929},{"duration":0.08571425000000943,"midi":0,"time":64.9714015,"velocity":0.1732283464566929},{"duration":0.08571424999999522,"midi":0,"time":65.05711575000001,"velocity":0.1732283464566929},{"duration":0.08571424999999522,"midi":0,"time":65.14283,"velocity":0.1732283464566929},{"duration":0.08571424999999522,"midi":0,"time":65.14283,"velocity":0.1732283464566929},{"duration":0.08571424999999522,"midi":0,"time":65.14283,"velocity":0.1732283464566929},{"duration":0.08571424999999522,"midi":0,"time":65.14283,"velocity":0.1732283464566929},{"duration":0.08571424999999522,"midi":0,"time":65.14283,"velocity":0.1732283464566929},{"duration":0.08571425000000943,"midi":0,"time":65.22854425,"velocity":0.1732283464566929},{"duration":0.08571424999999522,"midi":0,"time":65.31425850000001,"velocity":0.1732283464566929},{"duration":0.08571424999999522,"midi":0,"time":65.31425850000001,"velocity":0.1732283464566929},{"duration":0.08571424999999522,"midi":0,"time":65.31425850000001,"velocity":0.1732283464566929},{"duration":0.08571424999999522,"midi":0,"time":65.39997275,"velocity":0.1732283464566929},{"duration":0.08571425000000943,"midi":0,"time":65.485687,"velocity":0.1732283464566929},{"duration":0.08571425000000943,"midi":0,"time":65.485687,"velocity":0.1732283464566929},{"duration":0.08571425000000943,"midi":0,"time":65.485687,"velocity":0.1732283464566929},{"duration":0.08571425000000943,"midi":0,"time":65.485687,"velocity":0.1732283464566929},{"duration":0.08571425000000943,"midi":0,"time":65.485687,"velocity":0.1732283464566929},{"duration":0.08571424999999522,"midi":0,"time":65.57140125000001,"velocity":0.1732283464566929},{"duration":0.08571424999999522,"midi":0,"time":65.6571155,"velocity":0.1732283464566929},{"duration":0.08571424999999522,"midi":0,"time":65.6571155,"velocity":0.1732283464566929},{"duration":0.08571424999999522,"midi":0,"time":65.6571155,"velocity":0.1732283464566929},{"duration":0.08571425000000943,"midi":0,"time":65.74282975,"velocity":0.1732283464566929},{"duration":0.08571424999999522,"midi":0,"time":65.82854400000001,"velocity":0.1732283464566929},{"duration":0.08571424999999522,"midi":0,"time":65.82854400000001,"velocity":0.1732283464566929},{"duration":0.08571424999999522,"midi":0,"time":65.82854400000001,"velocity":0.1732283464566929},{"duration":0.08571424999999522,"midi":0,"time":65.82854400000001,"velocity":0.1732283464566929},{"duration":0.08571424999999522,"midi":0,"time":65.82854400000001,"velocity":0.1732283464566929},{"duration":0.08571424999999522,"midi":0,"time":65.91425825,"velocity":0.1732283464566929},{"duration":0.08571425000000943,"midi":0,"time":65.9999725,"velocity":0.1732283464566929},{"duration":0.08571425000000943,"midi":0,"time":65.9999725,"velocity":0.1732283464566929},{"duration":0.08571425000000943,"midi":0,"time":65.9999725,"velocity":0.1732283464566929},{"duration":0.08571424999999522,"midi":0,"time":66.08568675000001,"velocity":0.1732283464566929},{"duration":0.08571424999999522,"midi":0,"time":66.171401,"velocity":0.1732283464566929},{"duration":0.08571424999999522,"midi":0,"time":66.171401,"velocity":0.1732283464566929},{"duration":0.08571424999999522,"midi":0,"time":66.171401,"velocity":0.1732283464566929},{"duration":0.08571425000000943,"midi":0,"time":66.25711525,"velocity":0.1732283464566929},{"duration":0.08571424999999522,"midi":0,"time":66.34282950000001,"velocity":0.1732283464566929},{"duration":0.08571424999999522,"midi":0,"time":66.34282950000001,"velocity":0.1732283464566929},{"duration":0.08571424999999522,"midi":0,"time":66.34282950000001,"velocity":0.1732283464566929},{"duration":0.08571424999999522,"midi":0,"time":66.42854375,"velocity":0.1732283464566929},{"duration":0.08571425000000943,"midi":0,"time":66.514258,"velocity":0.1732283464566929},{"duration":0.08571424999999522,"midi":0,"time":66.59997225000001,"velocity":0.1732283464566929},{"duration":0.08571424999999522,"midi":0,"time":66.6856865,"velocity":0.1732283464566929},{"duration":0.08571424999999522,"midi":0,"time":66.6856865,"velocity":0.1732283464566929},{"duration":0.08571424999999522,"midi":0,"time":66.6856865,"velocity":0.1732283464566929},{"duration":0.08571425000000943,"midi":0,"time":66.77140075,"velocity":0.1732283464566929},{"duration":0.08571424999999522,"midi":0,"time":66.85711500000001,"velocity":0.1732283464566929},{"duration":0.08571424999999522,"midi":0,"time":66.85711500000001,"velocity":0.1732283464566929},{"duration":0.08571424999999522,"midi":0,"time":66.85711500000001,"velocity":0.1732283464566929},{"duration":0.08571424999999522,"midi":0,"time":66.94282925,"velocity":0.1732283464566929},{"duration":0.08571425000000943,"midi":0,"time":67.0285435,"velocity":0.1732283464566929},{"duration":0.08571425000000943,"midi":0,"time":67.0285435,"velocity":0.1732283464566929},{"duration":0.08571425000000943,"midi":0,"time":67.0285435,"velocity":0.1732283464566929},{"duration":0.08571424999999522,"midi":0,"time":67.11425775000001,"velocity":0.1732283464566929},{"duration":0.08571424999999522,"midi":0,"time":67.199972,"velocity":0.1732283464566929},{"duration":0.08571424999999522,"midi":0,"time":67.199972,"velocity":0.1732283464566929},{"duration":0.08571424999999522,"midi":0,"time":67.199972,"velocity":0.1732283464566929},{"duration":0.08571425000000943,"midi":0,"time":67.28568625,"velocity":0.1732283464566929},{"duration":0.08571424999999522,"midi":0,"time":67.37140050000001,"velocity":0.1732283464566929},{"duration":0.08571424999999522,"midi":0,"time":67.37140050000001,"velocity":0.1732283464566929},{"duration":0.08571424999999522,"midi":0,"time":67.37140050000001,"velocity":0.1732283464566929},{"duration":0.08571424999999522,"midi":0,"time":67.45711475,"velocity":0.1732283464566929},{"duration":0.08571425000000943,"midi":0,"time":67.542829,"velocity":0.1732283464566929},{"duration":0.08571425000000943,"midi":0,"time":67.542829,"velocity":0.1732283464566929},{"duration":0.08571425000000943,"midi":0,"time":67.542829,"velocity":0.1732283464566929},{"duration":0.08571424999999522,"midi":0,"time":67.62854325,"velocity":0.1732283464566929},{"duration":0.08571424999999522,"midi":0,"time":67.7142575,"velocity":0.1732283464566929},{"duration":0.08571424999999522,"midi":0,"time":67.7142575,"velocity":0.1732283464566929},{"duration":0.08571424999999522,"midi":0,"time":67.7142575,"velocity":0.1732283464566929},{"duration":0.08571425000000943,"midi":0,"time":67.79997175,"velocity":0.1732283464566929},{"duration":0.08571424999999522,"midi":0,"time":67.885686,"velocity":0.1732283464566929},{"duration":0.08571425000000943,"midi":0,"time":67.97140025,"velocity":0.1732283464566929},{"duration":0.08571424999999522,"midi":0,"time":68.05711450000001,"velocity":0.1732283464566929},{"duration":0.08571424999999522,"midi":0,"time":68.05711450000001,"velocity":0.1732283464566929},{"duration":0.08571424999999522,"midi":0,"time":68.05711450000001,"velocity":0.1732283464566929},{"duration":0.08571424999999522,"midi":0,"time":68.14282875,"velocity":0.1732283464566929},{"duration":0.08571425000000943,"midi":0,"time":68.228543,"velocity":0.1732283464566929},{"duration":0.08571425000000943,"midi":0,"time":68.228543,"velocity":0.1732283464566929},{"duration":0.08571425000000943,"midi":0,"time":68.228543,"velocity":0.1732283464566929},{"duration":0.08571424999999522,"midi":0,"time":68.31425725000001,"velocity":0.1732283464566929},{"duration":0.08571424999999522,"midi":0,"time":68.3999715,"velocity":0.1732283464566929},{"duration":0.08571424999999522,"midi":0,"time":68.3999715,"velocity":0.1732283464566929},{"duration":0.08571424999999522,"midi":0,"time":68.3999715,"velocity":0.1732283464566929},{"duration":0.08571425000000943,"midi":0,"time":68.48568575,"velocity":0.1732283464566929},{"duration":0.08571424999999522,"midi":0,"time":68.57140000000001,"velocity":0.1732283464566929},{"duration":0.08571424999999522,"midi":0,"time":68.57140000000001,"velocity":0.1732283464566929},{"duration":0.08571424999999522,"midi":0,"time":68.57140000000001,"velocity":0.1732283464566929},{"duration":0.08571424999999522,"midi":0,"time":68.57140000000001,"velocity":0.1732283464566929},{"duration":0.08571424999999522,"midi":0,"time":68.57140000000001,"velocity":0.1732283464566929},{"duration":0.08571424999999522,"midi":0,"time":68.65711425,"velocity":0.1732283464566929},{"duration":0.08571425000000943,"midi":0,"time":68.7428285,"velocity":0.1732283464566929},{"duration":0.08571425000000943,"midi":0,"time":68.7428285,"velocity":0.1732283464566929},{"duration":0.08571425000000943,"midi":0,"time":68.7428285,"velocity":0.1732283464566929},{"duration":0.08571424999999522,"midi":0,"time":68.82854275000001,"velocity":0.1732283464566929},{"duration":0.08571424999999522,"midi":0,"time":68.914257,"velocity":0.1732283464566929},{"duration":0.08571424999999522,"midi":0,"time":68.914257,"velocity":0.1732283464566929},{"duration":0.08571424999999522,"midi":0,"time":68.914257,"velocity":0.1732283464566929},{"duration":0.08571425000000943,"midi":0,"time":68.99997125,"velocity":0.1732283464566929},{"duration":0.08571424999999522,"midi":0,"time":69.08568550000001,"velocity":0.1732283464566929},{"duration":0.08571424999999522,"midi":0,"time":69.08568550000001,"velocity":0.1732283464566929},{"duration":0.08571424999999522,"midi":0,"time":69.08568550000001,"velocity":0.1732283464566929},{"duration":0.08571424999999522,"midi":0,"time":69.17139975,"velocity":0.1732283464566929},{"duration":0.08571425000000943,"midi":0,"time":69.257114,"velocity":0.1732283464566929},{"duration":0.08571424999999522,"midi":0,"time":69.34282825000001,"velocity":0.1732283464566929},{"duration":0.08571424999999522,"midi":0,"time":69.4285425,"velocity":0.1732283464566929},{"duration":0.08571424999999522,"midi":0,"time":69.4285425,"velocity":0.1732283464566929},{"duration":0.08571424999999522,"midi":0,"time":69.4285425,"velocity":0.1732283464566929},{"duration":0.08571425000000943,"midi":0,"time":69.51425675,"velocity":0.1732283464566929},{"duration":0.08571424999999522,"midi":0,"time":69.59997100000001,"velocity":0.1732283464566929},{"duration":0.08571424999999522,"midi":0,"time":69.59997100000001,"velocity":0.1732283464566929},{"duration":0.08571424999999522,"midi":0,"time":69.59997100000001,"velocity":0.1732283464566929},{"duration":0.08571424999999522,"midi":0,"time":69.68568525,"velocity":0.1732283464566929},{"duration":0.08571425000000943,"midi":0,"time":69.7713995,"velocity":0.1732283464566929},{"duration":0.08571425000000943,"midi":0,"time":69.7713995,"velocity":0.1732283464566929},{"duration":0.08571425000000943,"midi":0,"time":69.7713995,"velocity":0.1732283464566929},{"duration":0.08571424999999522,"midi":0,"time":69.85711375000001,"velocity":0.1732283464566929},{"duration":0.08571424999999522,"midi":0,"time":69.942828,"velocity":0.1732283464566929},{"duration":0.08571424999999522,"midi":0,"time":69.942828,"velocity":0.1732283464566929},{"duration":0.08571424999999522,"midi":0,"time":69.942828,"velocity":0.1732283464566929},{"duration":0.08571424999999522,"midi":0,"time":69.942828,"velocity":0.1732283464566929},{"duration":0.08571424999999522,"midi":0,"time":69.942828,"velocity":0.1732283464566929},{"duration":0.08571425000000943,"midi":0,"time":70.02854225,"velocity":0.1732283464566929},{"duration":0.08571424999999522,"midi":0,"time":70.11425650000001,"velocity":0.1732283464566929},{"duration":0.08571424999999522,"midi":0,"time":70.11425650000001,"velocity":0.1732283464566929},{"duration":0.08571424999999522,"midi":0,"time":70.11425650000001,"velocity":0.1732283464566929},{"duration":0.08571424999999522,"midi":0,"time":70.19997075,"velocity":0.1732283464566929},{"duration":0.08571425000000943,"midi":0,"time":70.285685,"velocity":0.1732283464566929},{"duration":0.08571425000000943,"midi":0,"time":70.285685,"velocity":0.1732283464566929},{"duration":0.08571425000000943,"midi":0,"time":70.285685,"velocity":0.1732283464566929},{"duration":0.08571424999999522,"midi":0,"time":70.37139925000001,"velocity":0.1732283464566929},{"duration":0.08571424999999522,"midi":0,"time":70.4571135,"velocity":0.1732283464566929},{"duration":0.08571424999999522,"midi":0,"time":70.4571135,"velocity":0.1732283464566929},{"duration":0.08571424999999522,"midi":0,"time":70.4571135,"velocity":0.1732283464566929},{"duration":0.08571425000000943,"midi":0,"time":70.54282775,"velocity":0.1732283464566929},{"duration":0.08571424999999522,"midi":0,"time":70.62854200000001,"velocity":0.1732283464566929},{"duration":0.08571424999999522,"midi":0,"time":70.62854200000001,"velocity":0.1732283464566929},{"duration":0.08571424999999522,"midi":0,"time":70.62854200000001,"velocity":0.1732283464566929},{"duration":0.08571424999999522,"midi":0,"time":70.62854200000001,"velocity":0.1732283464566929},{"duration":0.08571424999999522,"midi":0,"time":70.62854200000001,"velocity":0.1732283464566929},{"duration":0.08571424999999522,"midi":0,"time":70.71425625,"velocity":0.1732283464566929},{"duration":0.08571425000000943,"midi":0,"time":70.7999705,"velocity":0.1732283464566929},{"duration":0.08571425000000943,"midi":0,"time":70.7999705,"velocity":0.1732283464566929},{"duration":0.08571425000000943,"midi":0,"time":70.7999705,"velocity":0.1732283464566929},{"duration":0.08571424999999522,"midi":0,"time":70.88568475000001,"velocity":0.1732283464566929},{"duration":0.08571424999999522,"midi":0,"time":70.971399,"velocity":0.1732283464566929},{"duration":0.08571424999999522,"midi":0,"time":70.971399,"velocity":0.1732283464566929},{"duration":0.08571424999999522,"midi":0,"time":70.971399,"velocity":0.1732283464566929},{"duration":0.08571425000000943,"midi":0,"time":71.05711325,"velocity":0.1732283464566929},{"duration":0.08571424999999522,"midi":0,"time":71.14282750000001,"velocity":0.1732283464566929},{"duration":0.08571424999999522,"midi":0,"time":71.14282750000001,"velocity":0.1732283464566929},{"duration":0.08571424999999522,"midi":0,"time":71.14282750000001,"velocity":0.1732283464566929},{"duration":0.08571424999999522,"midi":0,"time":71.22854175,"velocity":0.1732283464566929},{"duration":0.08571425000000943,"midi":0,"time":71.314256,"velocity":0.1732283464566929},{"duration":0.08571425000000943,"midi":0,"time":71.314256,"velocity":0.1732283464566929},{"duration":0.08571425000000943,"midi":0,"time":71.314256,"velocity":0.1732283464566929},{"duration":0.08571425000000943,"midi":0,"time":71.314256,"velocity":0.1732283464566929},{"duration":0.08571425000000943,"midi":0,"time":71.314256,"velocity":0.1732283464566929},{"duration":0.08571424999999522,"midi":0,"time":71.39997025000001,"velocity":0.1732283464566929},{"duration":0.08571424999999522,"midi":0,"time":71.4856845,"velocity":0.1732283464566929},{"duration":0.08571424999999522,"midi":0,"time":71.4856845,"velocity":0.1732283464566929},{"duration":0.08571424999999522,"midi":0,"time":71.4856845,"velocity":0.1732283464566929},{"duration":0.08571425000000943,"midi":0,"time":71.57139875,"velocity":0.1732283464566929},{"duration":0.08571424999999522,"midi":0,"time":71.65711300000001,"velocity":0.1732283464566929},{"duration":0.08571424999999522,"midi":0,"time":71.65711300000001,"velocity":0.1732283464566929},{"duration":0.08571424999999522,"midi":0,"time":71.65711300000001,"velocity":0.1732283464566929},{"duration":0.08571424999999522,"midi":0,"time":71.74282725,"velocity":0.1732283464566929},{"duration":0.08571425000000943,"midi":0,"time":71.8285415,"velocity":0.1732283464566929},{"duration":0.08571425000000943,"midi":0,"time":71.8285415,"velocity":0.1732283464566929},{"duration":0.08571425000000943,"midi":0,"time":71.8285415,"velocity":0.1732283464566929},{"duration":0.08571424999999522,"midi":0,"time":71.91425575000001,"velocity":0.1732283464566929},{"duration":0.08571424999999522,"midi":0,"time":71.99997,"velocity":0.1732283464566929},{"duration":0.08571425000000943,"midi":0,"time":72.08568425,"velocity":0.1732283464566929},{"duration":0.08571424999999522,"midi":0,"time":72.17139850000001,"velocity":0.1732283464566929},{"duration":0.08571424999999522,"midi":0,"time":72.17139850000001,"velocity":0.1732283464566929},{"duration":0.08571424999999522,"midi":0,"time":72.17139850000001,"velocity":0.1732283464566929},{"duration":0.08571424999999522,"midi":0,"time":72.25711275,"velocity":0.1732283464566929},{"duration":0.08571425000000943,"midi":0,"time":72.342827,"velocity":0.1732283464566929},{"duration":0.08571425000000943,"midi":0,"time":72.342827,"velocity":0.1732283464566929},{"duration":0.08571425000000943,"midi":0,"time":72.342827,"velocity":0.1732283464566929},{"duration":0.08571424999999522,"midi":0,"time":72.42854125000001,"velocity":0.1732283464566929},{"duration":0.08571424999999522,"midi":0,"time":72.5142555,"velocity":0.1732283464566929},{"duration":0.08571424999999522,"midi":0,"time":72.5142555,"velocity":0.1732283464566929},{"duration":0.08571424999999522,"midi":0,"time":72.5142555,"velocity":0.1732283464566929},{"duration":0.08571425000000943,"midi":0,"time":72.59996975,"velocity":0.1732283464566929},{"duration":0.08571424999999522,"midi":0,"time":72.68568400000001,"velocity":0.1732283464566929},{"duration":0.08571424999999522,"midi":0,"time":72.68568400000001,"velocity":0.1732283464566929},{"duration":0.08571424999999522,"midi":0,"time":72.68568400000001,"velocity":0.1732283464566929},{"duration":0.08571424999999522,"midi":0,"time":72.77139825,"velocity":0.1732283464566929},{"duration":0.08571425000000943,"midi":0,"time":72.8571125,"velocity":0.1732283464566929},{"duration":0.08571425000000943,"midi":0,"time":72.8571125,"velocity":0.1732283464566929},{"duration":0.08571425000000943,"midi":0,"time":72.8571125,"velocity":0.1732283464566929},{"duration":0.08571424999999522,"midi":0,"time":72.94282675000001,"velocity":0.1732283464566929},{"duration":0.08571424999999522,"midi":0,"time":73.028541,"velocity":0.1732283464566929},{"duration":0.08571424999999522,"midi":0,"time":73.028541,"velocity":0.1732283464566929},{"duration":0.08571424999999522,"midi":0,"time":73.028541,"velocity":0.1732283464566929},{"duration":0.08571425000000943,"midi":0,"time":73.11425525,"velocity":0.1732283464566929},{"duration":0.08571424999999522,"midi":0,"time":73.19996950000001,"velocity":0.1732283464566929},{"duration":0.08571424999999522,"midi":0,"time":73.19996950000001,"velocity":0.1732283464566929},{"duration":0.08571424999999522,"midi":0,"time":73.19996950000001,"velocity":0.1732283464566929},{"duration":0.08571424999999522,"midi":0,"time":73.28568375,"velocity":0.1732283464566929},{"duration":0.08571425000000943,"midi":0,"time":73.371398,"velocity":0.1732283464566929},{"duration":0.08571424999999522,"midi":0,"time":73.45711225000001,"velocity":0.1732283464566929},{"duration":0.08571424999999522,"midi":0,"time":73.5428265,"velocity":0.1732283464566929},{"duration":0.08571424999999522,"midi":0,"time":73.5428265,"velocity":0.1732283464566929},{"duration":0.08571424999999522,"midi":0,"time":73.5428265,"velocity":0.1732283464566929},{"duration":0.08571425000000943,"midi":0,"time":73.62854075,"velocity":0.1732283464566929},{"duration":0.08571424999999522,"midi":0,"time":73.71425500000001,"velocity":0.1732283464566929},{"duration":0.08571424999999522,"midi":0,"time":73.71425500000001,"velocity":0.1732283464566929},{"duration":0.08571424999999522,"midi":0,"time":73.71425500000001,"velocity":0.1732283464566929},{"duration":0.08571424999999522,"midi":0,"time":73.79996925,"velocity":0.1732283464566929},{"duration":0.08571425000000943,"midi":0,"time":73.8856835,"velocity":0.1732283464566929},{"duration":0.08571425000000943,"midi":0,"time":73.8856835,"velocity":0.1732283464566929},{"duration":0.08571425000000943,"midi":0,"time":73.8856835,"velocity":0.1732283464566929},{"duration":0.08571424999999522,"midi":0,"time":73.97139775000001,"velocity":0.1732283464566929},{"duration":0.08571424999999522,"midi":0,"time":74.057112,"velocity":0.1732283464566929},{"duration":0.08571424999999522,"midi":0,"time":74.057112,"velocity":0.1732283464566929},{"duration":0.08571424999999522,"midi":0,"time":74.057112,"velocity":0.1732283464566929},{"duration":0.08571424999999522,"midi":0,"time":74.057112,"velocity":0.1732283464566929},{"duration":0.08571424999999522,"midi":0,"time":74.057112,"velocity":0.1732283464566929},{"duration":0.08571425000000943,"midi":0,"time":74.14282625,"velocity":0.1732283464566929},{"duration":0.08571424999999522,"midi":0,"time":74.22854050000001,"velocity":0.1732283464566929},{"duration":0.08571424999999522,"midi":0,"time":74.22854050000001,"velocity":0.1732283464566929},{"duration":0.08571424999999522,"midi":0,"time":74.22854050000001,"velocity":0.1732283464566929},{"duration":0.08571424999999522,"midi":0,"time":74.31425475,"velocity":0.1732283464566929},{"duration":0.08571425000000943,"midi":0,"time":74.399969,"velocity":0.1732283464566929},{"duration":0.08571425000000943,"midi":0,"time":74.399969,"velocity":0.1732283464566929},{"duration":0.08571425000000943,"midi":0,"time":74.399969,"velocity":0.1732283464566929},{"duration":0.08571424999999522,"midi":0,"time":74.48568325000001,"velocity":0.1732283464566929},{"duration":0.08571424999999522,"midi":0,"time":74.5713975,"velocity":0.1732283464566929},{"duration":0.08571424999999522,"midi":0,"time":74.5713975,"velocity":0.1732283464566929},{"duration":0.08571424999999522,"midi":0,"time":74.5713975,"velocity":0.1732283464566929},{"duration":0.08571425000000943,"midi":0,"time":74.65711175,"velocity":0.1732283464566929},{"duration":0.08571424999999522,"midi":0,"time":74.74282600000001,"velocity":0.1732283464566929},{"duration":0.08571424999999522,"midi":0,"time":74.74282600000001,"velocity":0.1732283464566929},{"duration":0.08571424999999522,"midi":0,"time":74.74282600000001,"velocity":0.1732283464566929},{"duration":0.08571424999999522,"midi":0,"time":74.82854025,"velocity":0.1732283464566929},{"duration":0.08571425000000943,"midi":0,"time":74.9142545,"velocity":0.1732283464566929},{"duration":0.08571425000000943,"midi":0,"time":74.9142545,"velocity":0.1732283464566929},{"duration":0.08571425000000943,"midi":0,"time":74.9142545,"velocity":0.1732283464566929},{"duration":0.08571424999999522,"midi":0,"time":74.99996875000001,"velocity":0.1732283464566929},{"duration":0.08571424999999522,"midi":0,"time":75.085683,"velocity":0.1732283464566929},{"duration":0.08571424999999522,"midi":0,"time":75.085683,"velocity":0.1732283464566929},{"duration":0.08571424999999522,"midi":0,"time":75.085683,"velocity":0.1732283464566929},{"duration":0.08571425000000943,"midi":0,"time":75.17139725,"velocity":0.1732283464566929},{"duration":0.08571424999999522,"midi":0,"time":75.25711150000001,"velocity":0.1732283464566929},{"duration":0.08571424999999522,"midi":0,"time":75.25711150000001,"velocity":0.1732283464566929},{"duration":0.08571424999999522,"midi":0,"time":75.25711150000001,"velocity":0.1732283464566929},{"duration":0.08571424999999522,"midi":0,"time":75.34282575,"velocity":0.1732283464566929},{"duration":0.08571425000000943,"midi":0,"time":75.42854,"velocity":0.1732283464566929},{"duration":0.08571425000000943,"midi":0,"time":75.42854,"velocity":0.1732283464566929},{"duration":0.08571425000000943,"midi":0,"time":75.42854,"velocity":0.1732283464566929},{"duration":0.08571425000000943,"midi":0,"time":75.42854,"velocity":0.1732283464566929},{"duration":0.08571425000000943,"midi":0,"time":75.42854,"velocity":0.1732283464566929},{"duration":0.08571424999999522,"midi":0,"time":75.51425425000001,"velocity":0.1732283464566929},{"duration":0.08571424999999522,"midi":0,"time":75.5999685,"velocity":0.1732283464566929},{"duration":0.08571424999999522,"midi":0,"time":75.5999685,"velocity":0.1732283464566929},{"duration":0.08571424999999522,"midi":0,"time":75.5999685,"velocity":0.1732283464566929},{"duration":0.08571425000000943,"midi":0,"time":75.68568275,"velocity":0.1732283464566929},{"duration":0.08571424999999522,"midi":0,"time":75.77139700000001,"velocity":0.1732283464566929},{"duration":0.08571424999999522,"midi":0,"time":75.77139700000001,"velocity":0.1732283464566929},{"duration":0.08571424999999522,"midi":0,"time":75.77139700000001,"velocity":0.1732283464566929},{"duration":0.08571424999999522,"midi":0,"time":75.77139700000001,"velocity":0.1732283464566929},{"duration":0.08571424999999522,"midi":0,"time":75.77139700000001,"velocity":0.1732283464566929},{"duration":0.08571425000000943,"midi":0,"time":75.85711125,"velocity":0.1732283464566929},{"duration":0.08571424999999522,"midi":0,"time":75.94282550000001,"velocity":0.1732283464566929},{"duration":0.08571424999999522,"midi":0,"time":75.94282550000001,"velocity":0.1732283464566929},{"duration":0.08571424999999522,"midi":0,"time":75.94282550000001,"velocity":0.1732283464566929},{"duration":0.08571424999999522,"midi":0,"time":76.02853975000001,"velocity":0.1732283464566929},{"duration":0.08571425000000943,"midi":0,"time":76.114254,"velocity":0.1732283464566929},{"duration":0.08571425000000943,"midi":0,"time":76.114254,"velocity":0.1732283464566929},{"duration":0.08571425000000943,"midi":0,"time":76.114254,"velocity":0.1732283464566929},{"duration":0.08571425000000943,"midi":0,"time":76.114254,"velocity":0.1732283464566929},{"duration":0.08571425000000943,"midi":0,"time":76.114254,"velocity":0.1732283464566929},{"duration":0.08571424999999522,"midi":0,"time":76.19996825000001,"velocity":0.1732283464566929},{"duration":0.08571424999999522,"midi":0,"time":76.28568250000001,"velocity":0.1732283464566929},{"duration":0.08571424999999522,"midi":0,"time":76.28568250000001,"velocity":0.1732283464566929},{"duration":0.08571424999999522,"midi":0,"time":76.28568250000001,"velocity":0.1732283464566929},{"duration":0.08571425000000943,"midi":0,"time":76.37139675,"velocity":0.1732283464566929},{"duration":0.08571424999999522,"midi":0,"time":76.45711100000001,"velocity":0.1732283464566929},{"duration":0.08571424999999522,"midi":0,"time":76.45711100000001,"velocity":0.1732283464566929},{"duration":0.08571424999999522,"midi":0,"time":76.45711100000001,"velocity":0.1732283464566929},{"duration":0.08571424999999522,"midi":0,"time":76.45711100000001,"velocity":0.1732283464566929},{"duration":0.08571424999999522,"midi":0,"time":76.45711100000001,"velocity":0.1732283464566929},{"duration":0.08571424999999522,"midi":0,"time":76.54282525,"velocity":0.1732283464566929},{"duration":0.08571425000000943,"midi":0,"time":76.6285395,"velocity":0.1732283464566929},{"duration":0.08571425000000943,"midi":0,"time":76.6285395,"velocity":0.1732283464566929},{"duration":0.08571425000000943,"midi":0,"time":76.6285395,"velocity":0.1732283464566929},{"duration":0.08571424999999522,"midi":0,"time":76.71425375000001,"velocity":0.1732283464566929},{"duration":0.08571424999999522,"midi":0,"time":76.799968,"velocity":0.1732283464566929},{"duration":0.08571424999999522,"midi":0,"time":76.799968,"velocity":0.1732283464566929},{"duration":0.08571424999999522,"midi":0,"time":76.799968,"velocity":0.1732283464566929},{"duration":0.08571424999999522,"midi":0,"time":76.799968,"velocity":0.1732283464566929},{"duration":0.08571424999999522,"midi":0,"time":76.799968,"velocity":0.1732283464566929},{"duration":0.08571425000000943,"midi":0,"time":76.88568225,"velocity":0.1732283464566929},{"duration":0.08571424999999522,"midi":0,"time":76.97139650000001,"velocity":0.1732283464566929},{"duration":0.08571424999999522,"midi":0,"time":76.97139650000001,"velocity":0.1732283464566929},{"duration":0.08571424999999522,"midi":0,"time":76.97139650000001,"velocity":0.1732283464566929},{"duration":0.08571424999999522,"midi":0,"time":77.05711075,"velocity":0.1732283464566929},{"duration":0.08571425000000943,"midi":0,"time":77.142825,"velocity":0.1732283464566929},{"duration":0.08571425000000943,"midi":0,"time":77.142825,"velocity":0.1732283464566929},{"duration":0.08571425000000943,"midi":0,"time":77.142825,"velocity":0.1732283464566929},{"duration":0.08571424999999522,"midi":0,"time":77.22853925000001,"velocity":0.1732283464566929},{"duration":0.08571424999999522,"midi":0,"time":77.3142535,"velocity":0.1732283464566929},{"duration":0.08571424999999522,"midi":0,"time":77.3142535,"velocity":0.1732283464566929},{"duration":0.08571424999999522,"midi":0,"time":77.3142535,"velocity":0.1732283464566929},{"duration":0.08571425000000943,"midi":0,"time":77.39996775,"velocity":0.1732283464566929},{"duration":0.08571424999999522,"midi":0,"time":77.48568200000001,"velocity":0.1732283464566929},{"duration":0.08571424999999522,"midi":0,"time":77.57139625,"velocity":0.1732283464566929},{"duration":0.08571425000000943,"midi":0,"time":77.6571105,"velocity":0.1732283464566929},{"duration":0.08571425000000943,"midi":0,"time":77.6571105,"velocity":0.1732283464566929},{"duration":0.08571425000000943,"midi":0,"time":77.6571105,"velocity":0.1732283464566929},{"duration":0.08571424999999522,"midi":0,"time":77.74282475000001,"velocity":0.1732283464566929},{"duration":0.08571424999999522,"midi":0,"time":77.828539,"velocity":0.1732283464566929},{"duration":0.08571424999999522,"midi":0,"time":77.828539,"velocity":0.1732283464566929},{"duration":0.08571424999999522,"midi":0,"time":77.828539,"velocity":0.1732283464566929},{"duration":0.08571425000000943,"midi":0,"time":77.91425325,"velocity":0.1732283464566929},{"duration":0.08571424999999522,"midi":0,"time":77.99996750000001,"velocity":0.1732283464566929},{"duration":0.08571424999999522,"midi":0,"time":77.99996750000001,"velocity":0.1732283464566929},{"duration":0.08571424999999522,"midi":0,"time":77.99996750000001,"velocity":0.1732283464566929},{"duration":0.08571424999999522,"midi":0,"time":78.08568175,"velocity":0.1732283464566929},{"duration":0.08571425000000943,"midi":0,"time":78.171396,"velocity":0.1732283464566929},{"duration":0.08571425000000943,"midi":0,"time":78.171396,"velocity":0.1732283464566929},{"duration":0.08571425000000943,"midi":0,"time":78.171396,"velocity":0.1732283464566929},{"duration":0.08571424999999522,"midi":0,"time":78.25711025000001,"velocity":0.1732283464566929},{"duration":0.08571424999999522,"midi":0,"time":78.3428245,"velocity":0.1732283464566929},{"duration":0.08571424999999522,"midi":0,"time":78.3428245,"velocity":0.1732283464566929},{"duration":0.08571424999999522,"midi":0,"time":78.3428245,"velocity":0.1732283464566929},{"duration":0.08571425000000943,"midi":0,"time":78.42853875,"velocity":0.1732283464566929},{"duration":0.08571424999999522,"midi":0,"time":78.51425300000001,"velocity":0.1732283464566929},{"duration":0.08571424999999522,"midi":0,"time":78.51425300000001,"velocity":0.1732283464566929},{"duration":0.08571424999999522,"midi":0,"time":78.51425300000001,"velocity":0.1732283464566929},{"duration":0.08571424999999522,"midi":0,"time":78.59996725,"velocity":0.1732283464566929},{"duration":0.08571425000000943,"midi":0,"time":78.6856815,"velocity":0.1732283464566929},{"duration":0.08571425000000943,"midi":0,"time":78.6856815,"velocity":0.1732283464566929},{"duration":0.08571425000000943,"midi":0,"time":78.6856815,"velocity":0.1732283464566929},{"duration":0.08571424999999522,"midi":0,"time":78.77139575000001,"velocity":0.1732283464566929},{"duration":0.08571424999999522,"midi":0,"time":78.85711,"velocity":0.1732283464566929},{"duration":0.08571425000000943,"midi":0,"time":78.94282425,"velocity":0.1732283464566929},{"duration":0.08571424999999522,"midi":0,"time":79.02853850000001,"velocity":0.1732283464566929},{"duration":0.08571424999999522,"midi":0,"time":79.02853850000001,"velocity":0.1732283464566929},{"duration":0.08571424999999522,"midi":0,"time":79.02853850000001,"velocity":0.1732283464566929},{"duration":0.08571424999999522,"midi":0,"time":79.11425275,"velocity":0.1732283464566929},{"duration":0.08571425000000943,"midi":0,"time":79.199967,"velocity":0.1732283464566929},{"duration":0.08571425000000943,"midi":0,"time":79.199967,"velocity":0.1732283464566929},{"duration":0.08571425000000943,"midi":0,"time":79.199967,"velocity":0.1732283464566929},{"duration":0.08571424999999522,"midi":0,"time":79.28568125000001,"velocity":0.1732283464566929},{"duration":0.08571424999999522,"midi":0,"time":79.3713955,"velocity":0.1732283464566929},{"duration":0.08571424999999522,"midi":0,"time":79.3713955,"velocity":0.1732283464566929},{"duration":0.08571424999999522,"midi":0,"time":79.3713955,"velocity":0.1732283464566929},{"duration":0.08571425000000943,"midi":0,"time":79.45710975,"velocity":0.1732283464566929},{"duration":0.08571424999999522,"midi":0,"time":79.54282400000001,"velocity":0.1732283464566929},{"duration":0.08571424999999522,"midi":0,"time":79.54282400000001,"velocity":0.1732283464566929},{"duration":0.08571424999999522,"midi":0,"time":79.54282400000001,"velocity":0.1732283464566929},{"duration":0.08571424999999522,"midi":0,"time":79.54282400000001,"velocity":0.1732283464566929},{"duration":0.08571424999999522,"midi":0,"time":79.54282400000001,"velocity":0.1732283464566929},{"duration":0.08571424999999522,"midi":0,"time":79.62853825,"velocity":0.1732283464566929},{"duration":0.08571425000000943,"midi":0,"time":79.7142525,"velocity":0.1732283464566929},{"duration":0.08571425000000943,"midi":0,"time":79.7142525,"velocity":0.1732283464566929},{"duration":0.08571425000000943,"midi":0,"time":79.7142525,"velocity":0.1732283464566929},{"duration":0.08571424999999522,"midi":0,"time":79.79996675000001,"velocity":0.1732283464566929},{"duration":0.08571424999999522,"midi":0,"time":79.885681,"velocity":0.1732283464566929},{"duration":0.08571424999999522,"midi":0,"time":79.885681,"velocity":0.1732283464566929},{"duration":0.08571424999999522,"midi":0,"time":79.885681,"velocity":0.1732283464566929},{"duration":0.08571425000000943,"midi":0,"time":79.97139525,"velocity":0.1732283464566929},{"duration":0.08571424999999522,"midi":0,"time":80.05710950000001,"velocity":0.1732283464566929},{"duration":0.08571424999999522,"midi":0,"time":80.05710950000001,"velocity":0.1732283464566929},{"duration":0.08571424999999522,"midi":0,"time":80.05710950000001,"velocity":0.1732283464566929},{"duration":0.08571424999999522,"midi":0,"time":80.14282375,"velocity":0.1732283464566929},{"duration":0.08571425000000943,"midi":0,"time":80.228538,"velocity":0.1732283464566929},{"duration":0.08571424999999522,"midi":0,"time":80.31425225000001,"velocity":0.1732283464566929},{"duration":0.08571424999999522,"midi":0,"time":80.3999665,"velocity":0.1732283464566929},{"duration":0.08571424999999522,"midi":0,"time":80.3999665,"velocity":0.1732283464566929},{"duration":0.08571424999999522,"midi":0,"time":80.3999665,"velocity":0.1732283464566929},{"duration":0.08571425000000943,"midi":0,"time":80.48568075,"velocity":0.1732283464566929},{"duration":0.08571424999999522,"midi":0,"time":80.57139500000001,"velocity":0.1732283464566929},{"duration":0.08571424999999522,"midi":0,"time":80.57139500000001,"velocity":0.1732283464566929},{"duration":0.08571424999999522,"midi":0,"time":80.57139500000001,"velocity":0.1732283464566929},{"duration":0.08571424999999522,"midi":0,"time":80.65710925,"velocity":0.1732283464566929},{"duration":0.08571425000000943,"midi":0,"time":80.7428235,"velocity":0.1732283464566929},{"duration":0.08571425000000943,"midi":0,"time":80.7428235,"velocity":0.1732283464566929},{"duration":0.08571425000000943,"midi":0,"time":80.7428235,"velocity":0.1732283464566929},{"duration":0.08571424999999522,"midi":0,"time":80.82853775000001,"velocity":0.1732283464566929},{"duration":0.08571424999999522,"midi":0,"time":80.914252,"velocity":0.1732283464566929},{"duration":0.08571424999999522,"midi":0,"time":80.914252,"velocity":0.1732283464566929},{"duration":0.08571424999999522,"midi":0,"time":80.914252,"velocity":0.1732283464566929},{"duration":0.08571424999999522,"midi":0,"time":80.914252,"velocity":0.1732283464566929},{"duration":0.08571424999999522,"midi":0,"time":80.914252,"velocity":0.1732283464566929},{"duration":0.08571425000000943,"midi":0,"time":80.99996625,"velocity":0.1732283464566929},{"duration":0.08571424999999522,"midi":0,"time":81.08568050000001,"velocity":0.1732283464566929},{"duration":0.08571424999999522,"midi":0,"time":81.08568050000001,"velocity":0.1732283464566929},{"duration":0.08571424999999522,"midi":0,"time":81.08568050000001,"velocity":0.1732283464566929},{"duration":0.08571424999999522,"midi":0,"time":81.17139475,"velocity":0.1732283464566929},{"duration":0.08571425000000943,"midi":0,"time":81.257109,"velocity":0.1732283464566929},{"duration":0.08571425000000943,"midi":0,"time":81.257109,"velocity":0.1732283464566929},{"duration":0.08571425000000943,"midi":0,"time":81.257109,"velocity":0.1732283464566929},{"duration":0.08571424999999522,"midi":0,"time":81.34282325000001,"velocity":0.1732283464566929},{"duration":0.08571424999999522,"midi":0,"time":81.4285375,"velocity":0.1732283464566929},{"duration":0.08571424999999522,"midi":0,"time":81.4285375,"velocity":0.1732283464566929},{"duration":0.08571424999999522,"midi":0,"time":81.4285375,"velocity":0.1732283464566929},{"duration":0.08571425000000943,"midi":0,"time":81.51425175,"velocity":0.1732283464566929},{"duration":0.08571424999999522,"midi":0,"time":81.59996600000001,"velocity":0.1732283464566929},{"duration":0.08571424999999522,"midi":0,"time":81.59996600000001,"velocity":0.1732283464566929},{"duration":0.08571424999999522,"midi":0,"time":81.59996600000001,"velocity":0.1732283464566929},{"duration":0.08571424999999522,"midi":0,"time":81.59996600000001,"velocity":0.1732283464566929},{"duration":0.08571424999999522,"midi":0,"time":81.59996600000001,"velocity":0.1732283464566929},{"duration":0.08571424999999522,"midi":0,"time":81.68568025,"velocity":0.1732283464566929},{"duration":0.08571425000000943,"midi":0,"time":81.7713945,"velocity":0.1732283464566929},{"duration":0.08571425000000943,"midi":0,"time":81.7713945,"velocity":0.1732283464566929},{"duration":0.08571425000000943,"midi":0,"time":81.7713945,"velocity":0.1732283464566929},{"duration":0.08571424999999522,"midi":0,"time":81.85710875000001,"velocity":0.1732283464566929},{"duration":0.08571424999999522,"midi":0,"time":81.942823,"velocity":0.1732283464566929},{"duration":0.08571424999999522,"midi":0,"time":81.942823,"velocity":0.1732283464566929},{"duration":0.08571424999999522,"midi":0,"time":81.942823,"velocity":0.1732283464566929},{"duration":0.08571425000000943,"midi":0,"time":82.02853725,"velocity":0.1732283464566929},{"duration":0.08571424999999522,"midi":0,"time":82.11425150000001,"velocity":0.1732283464566929},{"duration":0.08571424999999522,"midi":0,"time":82.11425150000001,"velocity":0.1732283464566929},{"duration":0.08571424999999522,"midi":0,"time":82.11425150000001,"velocity":0.1732283464566929},{"duration":0.08571424999999522,"midi":0,"time":82.19996575,"velocity":0.1732283464566929},{"duration":0.08571425000000943,"midi":0,"time":82.28568,"velocity":0.1732283464566929},{"duration":0.08571425000000943,"midi":0,"time":82.28568,"velocity":0.1732283464566929},{"duration":0.08571425000000943,"midi":0,"time":82.28568,"velocity":0.1732283464566929},{"duration":0.08571425000000943,"midi":0,"time":82.28568,"velocity":0.1732283464566929},{"duration":0.08571425000000943,"midi":0,"time":82.28568,"velocity":0.1732283464566929},{"duration":0.08571424999999522,"midi":0,"time":82.37139425000001,"velocity":0.1732283464566929},{"duration":0.08571424999999522,"midi":0,"time":82.4571085,"velocity":0.1732283464566929},{"duration":0.08571424999999522,"midi":0,"time":82.4571085,"velocity":0.1732283464566929},{"duration":0.08571424999999522,"midi":0,"time":82.4571085,"velocity":0.1732283464566929},{"duration":0.08571425000000943,"midi":0,"time":82.54282275,"velocity":0.1732283464566929},{"duration":0.08571424999999522,"midi":0,"time":82.62853700000001,"velocity":0.1732283464566929},{"duration":0.08571424999999522,"midi":0,"time":82.62853700000001,"velocity":0.1732283464566929},{"duration":0.08571424999999522,"midi":0,"time":82.62853700000001,"velocity":0.1732283464566929},{"duration":0.08571424999999522,"midi":0,"time":82.71425125,"velocity":0.1732283464566929},{"duration":0.08571425000000943,"midi":0,"time":82.7999655,"velocity":0.1732283464566929},{"duration":0.08571425000000943,"midi":0,"time":82.7999655,"velocity":0.1732283464566929},{"duration":0.08571425000000943,"midi":0,"time":82.7999655,"velocity":0.1732283464566929},{"duration":0.08571424999999522,"midi":0,"time":82.88567975000001,"velocity":0.1732283464566929},{"duration":0.08571424999999522,"midi":0,"time":82.971394,"velocity":0.1732283464566929},{"duration":0.08571425000000943,"midi":0,"time":83.05710825,"velocity":0.1732283464566929},{"duration":0.08571424999999522,"midi":0,"time":83.14282250000001,"velocity":0.1732283464566929},{"duration":0.08571424999999522,"midi":0,"time":83.14282250000001,"velocity":0.1732283464566929},{"duration":0.08571424999999522,"midi":0,"time":83.14282250000001,"velocity":0.1732283464566929},{"duration":0.08571424999999522,"midi":0,"time":83.22853675,"velocity":0.1732283464566929},{"duration":0.08571425000000943,"midi":0,"time":83.314251,"velocity":0.1732283464566929},{"duration":0.08571425000000943,"midi":0,"time":83.314251,"velocity":0.1732283464566929},{"duration":0.08571425000000943,"midi":0,"time":83.314251,"velocity":0.1732283464566929},{"duration":0.08571424999999522,"midi":0,"time":83.39996525000001,"velocity":0.1732283464566929},{"duration":0.08571424999999522,"midi":0,"time":83.4856795,"velocity":0.1732283464566929},{"duration":0.08571424999999522,"midi":0,"time":83.4856795,"velocity":0.1732283464566929},{"duration":0.08571424999999522,"midi":0,"time":83.4856795,"velocity":0.1732283464566929},{"duration":0.08571425000000943,"midi":0,"time":83.57139375,"velocity":0.1732283464566929},{"duration":0.08571424999999522,"midi":0,"time":83.65710800000001,"velocity":0.1732283464566929},{"duration":0.08571424999999522,"midi":0,"time":83.65710800000001,"velocity":0.1732283464566929},{"duration":0.08571424999999522,"midi":0,"time":83.65710800000001,"velocity":0.1732283464566929},{"duration":0.08571425000000943,"midi":0,"time":83.74282225,"velocity":0.1732283464566929},{"duration":0.08571424999999522,"midi":0,"time":83.82853650000001,"velocity":0.1732283464566929},{"duration":0.08571424999999522,"midi":0,"time":83.82853650000001,"velocity":0.1732283464566929},{"duration":0.08571424999999522,"midi":0,"time":83.82853650000001,"velocity":0.1732283464566929},{"duration":0.08571424999999522,"midi":0,"time":83.91425075000001,"velocity":0.1732283464566929},{"duration":0.08571425000000943,"midi":0,"time":83.999965,"velocity":0.1732283464566929},{"duration":0.08571425000000943,"midi":0,"time":83.999965,"velocity":0.1732283464566929},{"duration":0.08571425000000943,"midi":0,"time":83.999965,"velocity":0.1732283464566929},{"duration":0.08571424999999522,"midi":0,"time":84.08567925000001,"velocity":0.1732283464566929},{"duration":0.08571424999999522,"midi":0,"time":84.17139350000001,"velocity":0.1732283464566929},{"duration":0.08571424999999522,"midi":0,"time":84.17139350000001,"velocity":0.1732283464566929},{"duration":0.08571424999999522,"midi":0,"time":84.17139350000001,"velocity":0.1732283464566929},{"duration":0.08571425000000943,"midi":0,"time":84.25710775,"velocity":0.1732283464566929},{"duration":0.08571424999999522,"midi":0,"time":84.34282200000001,"velocity":0.1732283464566929},{"duration":0.08571424999999522,"midi":0,"time":84.42853625000001,"velocity":0.1732283464566929},{"duration":0.08571425000000943,"midi":0,"time":84.5142505,"velocity":0.1732283464566929},{"duration":0.08571425000000943,"midi":0,"time":84.5142505,"velocity":0.1732283464566929},{"duration":0.08571425000000943,"midi":0,"time":84.5142505,"velocity":0.1732283464566929},{"duration":0.08571424999999522,"midi":0,"time":84.59996475000001,"velocity":0.1732283464566929},{"duration":0.08571424999999522,"midi":0,"time":84.68567900000001,"velocity":0.1732283464566929},{"duration":0.08571424999999522,"midi":0,"time":84.68567900000001,"velocity":0.1732283464566929},{"duration":0.08571424999999522,"midi":0,"time":84.68567900000001,"velocity":0.1732283464566929},{"duration":0.08571425000000943,"midi":0,"time":84.77139325,"velocity":0.1732283464566929},{"duration":0.08571424999999522,"midi":0,"time":84.85710750000001,"velocity":0.1732283464566929},{"duration":0.08571424999999522,"midi":0,"time":84.85710750000001,"velocity":0.1732283464566929},{"duration":0.08571424999999522,"midi":0,"time":84.85710750000001,"velocity":0.1732283464566929},{"duration":0.08571424999999522,"midi":0,"time":84.94282175000001,"velocity":0.1732283464566929},{"duration":0.08571425000000943,"midi":0,"time":85.028536,"velocity":0.1732283464566929},{"duration":0.08571425000000943,"midi":0,"time":85.028536,"velocity":0.1732283464566929},{"duration":0.08571425000000943,"midi":0,"time":85.028536,"velocity":0.1732283464566929},{"duration":0.08571425000000943,"midi":0,"time":85.028536,"velocity":0.1732283464566929},{"duration":0.08571425000000943,"midi":0,"time":85.028536,"velocity":0.1732283464566929},{"duration":0.08571424999999522,"midi":0,"time":85.11425025000001,"velocity":0.1732283464566929},{"duration":0.08571424999999522,"midi":0,"time":85.19996450000001,"velocity":0.1732283464566929},{"duration":0.08571424999999522,"midi":0,"time":85.19996450000001,"velocity":0.1732283464566929},{"duration":0.08571424999999522,"midi":0,"time":85.19996450000001,"velocity":0.1732283464566929},{"duration":0.08571425000000943,"midi":0,"time":85.28567875,"velocity":0.1732283464566929},{"duration":0.08571424999999522,"midi":0,"time":85.37139300000001,"velocity":0.1732283464566929},{"duration":0.08571424999999522,"midi":0,"time":85.37139300000001,"velocity":0.1732283464566929},{"duration":0.08571424999999522,"midi":0,"time":85.37139300000001,"velocity":0.1732283464566929},{"duration":0.08571424999999522,"midi":0,"time":85.45710725,"velocity":0.1732283464566929},{"duration":0.08571425000000943,"midi":0,"time":85.5428215,"velocity":0.1732283464566929},{"duration":0.08571425000000943,"midi":0,"time":85.5428215,"velocity":0.1732283464566929},{"duration":0.08571425000000943,"midi":0,"time":85.5428215,"velocity":0.1732283464566929},{"duration":0.08571424999999522,"midi":0,"time":85.62853575000001,"velocity":0.1732283464566929},{"duration":0.08571424999999522,"midi":0,"time":85.71425,"velocity":0.1732283464566929},{"duration":0.08571424999999522,"midi":0,"time":85.71425,"velocity":0.1732283464566929},{"duration":0.08571424999999522,"midi":0,"time":85.71425,"velocity":0.1732283464566929},{"duration":0.08571425000000943,"midi":0,"time":85.79996425,"velocity":0.1732283464566929},{"duration":0.08571424999999522,"midi":0,"time":85.88567850000001,"velocity":0.1732283464566929},{"duration":0.08571424999999522,"midi":0,"time":85.88567850000001,"velocity":0.1732283464566929},{"duration":0.08571424999999522,"midi":0,"time":85.88567850000001,"velocity":0.1732283464566929},{"duration":0.08571424999999522,"midi":0,"time":85.97139275,"velocity":0.1732283464566929},{"duration":0.08571425000000943,"midi":0,"time":86.057107,"velocity":0.1732283464566929},{"duration":0.08571425000000943,"midi":0,"time":86.057107,"velocity":0.1732283464566929},{"duration":0.08571425000000943,"midi":0,"time":86.057107,"velocity":0.1732283464566929},{"duration":0.08571424999999522,"midi":0,"time":86.14282125000001,"velocity":0.1732283464566929},{"duration":0.08571424999999522,"midi":0,"time":86.2285355,"velocity":0.1732283464566929},{"duration":0.08571424999999522,"midi":0,"time":86.2285355,"velocity":0.1732283464566929},{"duration":0.08571424999999522,"midi":0,"time":86.2285355,"velocity":0.1732283464566929},{"duration":0.08571425000000943,"midi":0,"time":86.31424975,"velocity":0.1732283464566929},{"duration":0.08571424999999522,"midi":0,"time":86.39996400000001,"velocity":0.1732283464566929},{"duration":0.08571424999999522,"midi":0,"time":86.39996400000001,"velocity":0.1732283464566929},{"duration":0.08571424999999522,"midi":0,"time":86.39996400000001,"velocity":0.1732283464566929},{"duration":0.08571424999999522,"midi":0,"time":86.39996400000001,"velocity":0.1732283464566929},{"duration":0.08571424999999522,"midi":0,"time":86.39996400000001,"velocity":0.1732283464566929},{"duration":0.08571424999999522,"midi":0,"time":86.48567825,"velocity":0.1732283464566929},{"duration":0.08571425000000943,"midi":0,"time":86.5713925,"velocity":0.1732283464566929},{"duration":0.08571425000000943,"midi":0,"time":86.5713925,"velocity":0.1732283464566929},{"duration":0.08571425000000943,"midi":0,"time":86.5713925,"velocity":0.1732283464566929},{"duration":0.08571424999999522,"midi":0,"time":86.65710675000001,"velocity":0.1732283464566929},{"duration":0.08571424999999522,"midi":0,"time":86.742821,"velocity":0.1732283464566929},{"duration":0.08571424999999522,"midi":0,"time":86.742821,"velocity":0.1732283464566929},{"duration":0.08571424999999522,"midi":0,"time":86.742821,"velocity":0.1732283464566929},{"duration":0.08571424999999522,"midi":0,"time":86.742821,"velocity":0.1732283464566929},{"duration":0.08571424999999522,"midi":0,"time":86.742821,"velocity":0.1732283464566929},{"duration":0.08571425000000943,"midi":0,"time":86.82853525,"velocity":0.1732283464566929},{"duration":0.08571424999999522,"midi":0,"time":86.91424950000001,"velocity":0.1732283464566929},{"duration":0.08571424999999522,"midi":0,"time":86.91424950000001,"velocity":0.1732283464566929},{"duration":0.08571424999999522,"midi":0,"time":86.91424950000001,"velocity":0.1732283464566929},{"duration":0.08571424999999522,"midi":0,"time":86.99996375,"velocity":0.1732283464566929},{"duration":0.08571425000000943,"midi":0,"time":87.085678,"velocity":0.1732283464566929},{"duration":0.08571425000000943,"midi":0,"time":87.085678,"velocity":0.1732283464566929},{"duration":0.08571425000000943,"midi":0,"time":87.085678,"velocity":0.1732283464566929},{"duration":0.08571425000000943,"midi":0,"time":87.085678,"velocity":0.1732283464566929},{"duration":0.08571425000000943,"midi":0,"time":87.085678,"velocity":0.1732283464566929},{"duration":0.08571424999999522,"midi":0,"time":87.17139225000001,"velocity":0.1732283464566929},{"duration":0.08571424999999522,"midi":0,"time":87.2571065,"velocity":0.1732283464566929},{"duration":0.08571424999999522,"midi":0,"time":87.2571065,"velocity":0.1732283464566929},{"duration":0.08571424999999522,"midi":0,"time":87.2571065,"velocity":0.1732283464566929},{"duration":0.08571425000000943,"midi":0,"time":87.34282075,"velocity":0.1732283464566929},{"duration":0.08571424999999522,"midi":0,"time":87.42853500000001,"velocity":0.1732283464566929},{"duration":0.08571424999999522,"midi":0,"time":87.42853500000001,"velocity":0.1732283464566929},{"duration":0.08571424999999522,"midi":0,"time":87.42853500000001,"velocity":0.1732283464566929},{"duration":0.08571424999999522,"midi":0,"time":87.42853500000001,"velocity":0.1732283464566929},{"duration":0.08571424999999522,"midi":0,"time":87.42853500000001,"velocity":0.1732283464566929},{"duration":0.08571424999999522,"midi":0,"time":87.51424925,"velocity":0.1732283464566929},{"duration":0.08571425000000943,"midi":0,"time":87.5999635,"velocity":0.1732283464566929},{"duration":0.08571425000000943,"midi":0,"time":87.5999635,"velocity":0.1732283464566929},{"duration":0.08571425000000943,"midi":0,"time":87.5999635,"velocity":0.1732283464566929},{"duration":0.08571424999999522,"midi":0,"time":87.68567775000001,"velocity":0.1732283464566929},{"duration":0.08571424999999522,"midi":0,"time":87.771392,"velocity":0.1732283464566929},{"duration":0.08571424999999522,"midi":0,"time":87.771392,"velocity":0.1732283464566929},{"duration":0.08571424999999522,"midi":0,"time":87.771392,"velocity":0.1732283464566929},{"duration":0.08571424999999522,"midi":0,"time":87.771392,"velocity":0.1732283464566929},{"duration":0.08571424999999522,"midi":0,"time":87.771392,"velocity":0.1732283464566929},{"duration":0.08571425000000943,"midi":0,"time":87.85710625,"velocity":0.1732283464566929},{"duration":0.08571424999999522,"midi":0,"time":87.94282050000001,"velocity":0.1732283464566929},{"duration":0.08571424999999522,"midi":0,"time":87.94282050000001,"velocity":0.1732283464566929},{"duration":0.08571424999999522,"midi":0,"time":87.94282050000001,"velocity":0.1732283464566929},{"duration":0.08571424999999522,"midi":0,"time":88.02853475,"velocity":0.1732283464566929},{"duration":0.08571425000000943,"midi":0,"time":88.114249,"velocity":0.1732283464566929},{"duration":0.08571425000000943,"midi":0,"time":88.114249,"velocity":0.1732283464566929},{"duration":0.08571425000000943,"midi":0,"time":88.114249,"velocity":0.1732283464566929},{"duration":0.08571424999999522,"midi":0,"time":88.19996325000001,"velocity":0.1732283464566929},{"duration":0.08571424999999522,"midi":0,"time":88.2856775,"velocity":0.1732283464566929},{"duration":0.08571424999999522,"midi":0,"time":88.2856775,"velocity":0.1732283464566929},{"duration":0.08571424999999522,"midi":0,"time":88.2856775,"velocity":0.1732283464566929},{"duration":0.08571425000000943,"midi":0,"time":88.37139175,"velocity":0.1732283464566929},{"duration":0.08571424999999522,"midi":0,"time":88.45710600000001,"velocity":0.1732283464566929},{"duration":0.08571424999999522,"midi":0,"time":88.54282025,"velocity":0.1732283464566929},{"duration":0.08571425000000943,"midi":0,"time":88.6285345,"velocity":0.1732283464566929},{"duration":0.08571425000000943,"midi":0,"time":88.6285345,"velocity":0.1732283464566929},{"duration":0.08571425000000943,"midi":0,"time":88.6285345,"velocity":0.1732283464566929},{"duration":0.08571424999999522,"midi":0,"time":88.71424875000001,"velocity":0.1732283464566929},{"duration":0.08571424999999522,"midi":0,"time":88.799963,"velocity":0.1732283464566929},{"duration":0.08571424999999522,"midi":0,"time":88.799963,"velocity":0.1732283464566929},{"duration":0.08571424999999522,"midi":0,"time":88.799963,"velocity":0.1732283464566929},{"duration":0.08571425000000943,"midi":0,"time":88.88567725,"velocity":0.1732283464566929},{"duration":0.08571424999999522,"midi":0,"time":88.97139150000001,"velocity":0.1732283464566929},{"duration":0.08571424999999522,"midi":0,"time":88.97139150000001,"velocity":0.1732283464566929},{"duration":0.08571424999999522,"midi":0,"time":88.97139150000001,"velocity":0.1732283464566929},{"duration":0.08571424999999522,"midi":0,"time":89.05710575,"velocity":0.1732283464566929},{"duration":0.08571425000000943,"midi":0,"time":89.14282,"velocity":0.1732283464566929},{"duration":0.08571425000000943,"midi":0,"time":89.14282,"velocity":0.1732283464566929},{"duration":0.08571425000000943,"midi":0,"time":89.14282,"velocity":0.1732283464566929},{"duration":0.08571424999999522,"midi":0,"time":89.22853425000001,"velocity":0.1732283464566929},{"duration":0.08571424999999522,"midi":0,"time":89.3142485,"velocity":0.1732283464566929},{"duration":0.08571424999999522,"midi":0,"time":89.3142485,"velocity":0.1732283464566929},{"duration":0.08571424999999522,"midi":0,"time":89.3142485,"velocity":0.1732283464566929},{"duration":0.08571425000000943,"midi":0,"time":89.39996275,"velocity":0.1732283464566929},{"duration":0.08571424999999522,"midi":0,"time":89.48567700000001,"velocity":0.1732283464566929},{"duration":0.08571424999999522,"midi":0,"time":89.48567700000001,"velocity":0.1732283464566929},{"duration":0.08571424999999522,"midi":0,"time":89.48567700000001,"velocity":0.1732283464566929},{"duration":0.08571424999999522,"midi":0,"time":89.57139125,"velocity":0.1732283464566929},{"duration":0.08571425000000943,"midi":0,"time":89.6571055,"velocity":0.1732283464566929},{"duration":0.08571425000000943,"midi":0,"time":89.6571055,"velocity":0.1732283464566929},{"duration":0.08571425000000943,"midi":0,"time":89.6571055,"velocity":0.1732283464566929},{"duration":0.08571424999999522,"midi":0,"time":89.74281975000001,"velocity":0.1732283464566929},{"duration":0.08571424999999522,"midi":0,"time":89.828534,"velocity":0.1732283464566929},{"duration":0.08571425000000943,"midi":0,"time":89.91424825,"velocity":0.1732283464566929},{"duration":0.08571424999999522,"midi":0,"time":89.99996250000001,"velocity":0.1732283464566929},{"duration":0.08571424999999522,"midi":0,"time":89.99996250000001,"velocity":0.1732283464566929},{"duration":0.08571424999999522,"midi":0,"time":89.99996250000001,"velocity":0.1732283464566929},{"duration":0.08571424999999522,"midi":0,"time":90.08567675,"velocity":0.1732283464566929},{"duration":0.08571425000000943,"midi":0,"time":90.171391,"velocity":0.1732283464566929},{"duration":0.08571425000000943,"midi":0,"time":90.171391,"velocity":0.1732283464566929},{"duration":0.08571425000000943,"midi":0,"time":90.171391,"velocity":0.1732283464566929},{"duration":0.08571424999999522,"midi":0,"time":90.25710525000001,"velocity":0.1732283464566929},{"duration":0.08571424999999522,"midi":0,"time":90.3428195,"velocity":0.1732283464566929},{"duration":0.08571424999999522,"midi":0,"time":90.3428195,"velocity":0.1732283464566929},{"duration":0.08571424999999522,"midi":0,"time":90.3428195,"velocity":0.1732283464566929},{"duration":0.08571425000000943,"midi":0,"time":90.42853375,"velocity":0.1732283464566929},{"duration":0.08571424999999522,"midi":0,"time":90.51424800000001,"velocity":0.1732283464566929},{"duration":0.08571424999999522,"midi":0,"time":90.51424800000001,"velocity":0.1732283464566929},{"duration":0.08571424999999522,"midi":0,"time":90.51424800000001,"velocity":0.1732283464566929},{"duration":0.08571424999999522,"midi":0,"time":90.51424800000001,"velocity":0.1732283464566929},{"duration":0.08571424999999522,"midi":0,"time":90.51424800000001,"velocity":0.1732283464566929},{"duration":0.08571424999999522,"midi":0,"time":90.59996225,"velocity":0.1732283464566929},{"duration":0.08571425000000943,"midi":0,"time":90.6856765,"velocity":0.1732283464566929},{"duration":0.08571425000000943,"midi":0,"time":90.6856765,"velocity":0.1732283464566929},{"duration":0.08571425000000943,"midi":0,"time":90.6856765,"velocity":0.1732283464566929},{"duration":0.08571424999999522,"midi":0,"time":90.77139075000001,"velocity":0.1732283464566929},{"duration":0.08571424999999522,"midi":0,"time":90.857105,"velocity":0.1732283464566929},{"duration":0.08571424999999522,"midi":0,"time":90.857105,"velocity":0.1732283464566929},{"duration":0.08571424999999522,"midi":0,"time":90.857105,"velocity":0.1732283464566929},{"duration":0.08571425000000943,"midi":0,"time":90.94281925,"velocity":0.1732283464566929},{"duration":0.08571424999999522,"midi":0,"time":91.02853350000001,"velocity":0.1732283464566929},{"duration":0.08571424999999522,"midi":0,"time":91.02853350000001,"velocity":0.1732283464566929},{"duration":0.08571424999999522,"midi":0,"time":91.02853350000001,"velocity":0.1732283464566929},{"duration":0.08571424999999522,"midi":0,"time":91.11424775,"velocity":0.1732283464566929},{"duration":0.08571425000000943,"midi":0,"time":91.199962,"velocity":0.1732283464566929},{"duration":0.08571424999999522,"midi":0,"time":91.28567625000001,"velocity":0.1732283464566929},{"duration":0.08571424999999522,"midi":0,"time":91.3713905,"velocity":0.1732283464566929},{"duration":0.08571424999999522,"midi":0,"time":91.3713905,"velocity":0.1732283464566929},{"duration":0.08571424999999522,"midi":0,"time":91.3713905,"velocity":0.1732283464566929},{"duration":0.08571425000000943,"midi":0,"time":91.45710475,"velocity":0.1732283464566929},{"duration":0.08571424999999522,"midi":0,"time":91.54281900000001,"velocity":0.1732283464566929},{"duration":0.08571424999999522,"midi":0,"time":91.54281900000001,"velocity":0.1732283464566929},{"duration":0.08571424999999522,"midi":0,"time":91.54281900000001,"velocity":0.1732283464566929},{"duration":0.08571424999999522,"midi":0,"time":91.62853325,"velocity":0.1732283464566929},{"duration":0.08571425000000943,"midi":0,"time":91.7142475,"velocity":0.1732283464566929},{"duration":0.08571425000000943,"midi":0,"time":91.7142475,"velocity":0.1732283464566929},{"duration":0.08571425000000943,"midi":0,"time":91.7142475,"velocity":0.1732283464566929},{"duration":0.08571424999999522,"midi":0,"time":91.79996175000001,"velocity":0.1732283464566929},{"duration":0.08571425000000943,"midi":0,"time":91.885676,"velocity":0.1732283464566929},{"duration":0.08571425000000943,"midi":0,"time":91.885676,"velocity":0.1732283464566929},{"duration":0.08571425000000943,"midi":0,"time":91.885676,"velocity":0.1732283464566929},{"duration":0.08571425000000943,"midi":0,"time":91.885676,"velocity":0.1732283464566929},{"duration":0.08571425000000943,"midi":0,"time":91.885676,"velocity":0.1732283464566929},{"duration":0.08571424999999522,"midi":0,"time":91.97139025000001,"velocity":0.1732283464566929},{"duration":0.08571424999999522,"midi":0,"time":92.05710450000001,"velocity":0.1732283464566929},{"duration":0.08571424999999522,"midi":0,"time":92.05710450000001,"velocity":0.1732283464566929},{"duration":0.08571424999999522,"midi":0,"time":92.05710450000001,"velocity":0.1732283464566929},{"duration":0.08571425000000943,"midi":0,"time":92.14281875,"velocity":0.1732283464566929},{"duration":0.08571424999999522,"midi":0,"time":92.22853300000001,"velocity":0.1732283464566929},{"duration":0.08571424999999522,"midi":0,"time":92.22853300000001,"velocity":0.1732283464566929},{"duration":0.08571424999999522,"midi":0,"time":92.22853300000001,"velocity":0.1732283464566929},{"duration":0.08571424999999522,"midi":0,"time":92.31424725000001,"velocity":0.1732283464566929},{"duration":0.08571425000000943,"midi":0,"time":92.3999615,"velocity":0.1732283464566929},{"duration":0.08571425000000943,"midi":0,"time":92.3999615,"velocity":0.1732283464566929},{"duration":0.08571425000000943,"midi":0,"time":92.3999615,"velocity":0.1732283464566929},{"duration":0.08571424999999522,"midi":0,"time":92.48567575000001,"velocity":0.1732283464566929},{"duration":0.08571424999999522,"midi":0,"time":92.57139000000001,"velocity":0.1732283464566929},{"duration":0.08571424999999522,"midi":0,"time":92.57139000000001,"velocity":0.1732283464566929},{"duration":0.08571424999999522,"midi":0,"time":92.57139000000001,"velocity":0.1732283464566929},{"duration":0.08571424999999522,"midi":0,"time":92.57139000000001,"velocity":0.1732283464566929},{"duration":0.08571424999999522,"midi":0,"time":92.57139000000001,"velocity":0.1732283464566929},{"duration":0.08571425000000943,"midi":0,"time":92.65710425,"velocity":0.1732283464566929},{"duration":0.08571424999999522,"midi":0,"time":92.74281850000001,"velocity":0.1732283464566929},{"duration":0.08571424999999522,"midi":0,"time":92.74281850000001,"velocity":0.1732283464566929},{"duration":0.08571424999999522,"midi":0,"time":92.74281850000001,"velocity":0.1732283464566929},{"duration":0.08571424999999522,"midi":0,"time":92.82853275000001,"velocity":0.1732283464566929},{"duration":0.08571425000000943,"midi":0,"time":92.914247,"velocity":0.1732283464566929},{"duration":0.08571425000000943,"midi":0,"time":92.914247,"velocity":0.1732283464566929},{"duration":0.08571425000000943,"midi":0,"time":92.914247,"velocity":0.1732283464566929},{"duration":0.08571424999999522,"midi":0,"time":92.99996125000001,"velocity":0.1732283464566929},{"duration":0.08571424999999522,"midi":0,"time":93.08567550000001,"velocity":0.1732283464566929},{"duration":0.08571424999999522,"midi":0,"time":93.08567550000001,"velocity":0.1732283464566929},{"duration":0.08571424999999522,"midi":0,"time":93.08567550000001,"velocity":0.1732283464566929},{"duration":0.08571425000000943,"midi":0,"time":93.17138975,"velocity":0.1732283464566929},{"duration":0.08571424999999522,"midi":0,"time":93.25710400000001,"velocity":0.1732283464566929},{"duration":0.08571424999999522,"midi":0,"time":93.25710400000001,"velocity":0.1732283464566929},{"duration":0.08571424999999522,"midi":0,"time":93.25710400000001,"velocity":0.1732283464566929},{"duration":0.08571424999999522,"midi":0,"time":93.25710400000001,"velocity":0.1732283464566929},{"duration":0.08571424999999522,"midi":0,"time":93.25710400000001,"velocity":0.1732283464566929},{"duration":0.08571424999999522,"midi":0,"time":93.34281825000001,"velocity":0.1732283464566929},{"duration":0.08571425000000943,"midi":0,"time":93.4285325,"velocity":0.1732283464566929},{"duration":0.08571425000000943,"midi":0,"time":93.4285325,"velocity":0.1732283464566929},{"duration":0.08571425000000943,"midi":0,"time":93.4285325,"velocity":0.1732283464566929},{"duration":0.08571424999999522,"midi":0,"time":93.51424675000001,"velocity":0.1732283464566929},{"duration":0.08571424999999522,"midi":0,"time":93.59996100000001,"velocity":0.1732283464566929},{"duration":0.08571424999999522,"midi":0,"time":93.59996100000001,"velocity":0.1732283464566929},{"duration":0.08571424999999522,"midi":0,"time":93.59996100000001,"velocity":0.1732283464566929},{"duration":0.08571425000000943,"midi":0,"time":93.68567525,"velocity":0.1732283464566929},{"duration":0.08571424999999522,"midi":0,"time":93.77138950000001,"velocity":0.1732283464566929},{"duration":0.08571424999999522,"midi":0,"time":93.77138950000001,"velocity":0.1732283464566929},{"duration":0.08571424999999522,"midi":0,"time":93.77138950000001,"velocity":0.1732283464566929},{"duration":0.08571424999999522,"midi":0,"time":93.85710375000001,"velocity":0.1732283464566929},{"duration":0.08571425000000943,"midi":0,"time":93.942818,"velocity":0.1732283464566929},{"duration":0.08571424999999522,"midi":0,"time":94.02853225000001,"velocity":0.1732283464566929},{"duration":0.08571424999999522,"midi":0,"time":94.11424650000001,"velocity":0.1732283464566929},{"duration":0.08571424999999522,"midi":0,"time":94.11424650000001,"velocity":0.1732283464566929},{"duration":0.08571424999999522,"midi":0,"time":94.11424650000001,"velocity":0.1732283464566929},{"duration":0.08571425000000943,"midi":0,"time":94.19996075,"velocity":0.1732283464566929},{"duration":0.08571424999999522,"midi":0,"time":94.28567500000001,"velocity":0.1732283464566929},{"duration":0.08571424999999522,"midi":0,"time":94.28567500000001,"velocity":0.1732283464566929},{"duration":0.08571424999999522,"midi":0,"time":94.28567500000001,"velocity":0.1732283464566929},{"duration":0.08571424999999522,"midi":0,"time":94.37138925000001,"velocity":0.1732283464566929},{"duration":0.08571425000000943,"midi":0,"time":94.4571035,"velocity":0.1732283464566929},{"duration":0.08571425000000943,"midi":0,"time":94.4571035,"velocity":0.1732283464566929},{"duration":0.08571425000000943,"midi":0,"time":94.4571035,"velocity":0.1732283464566929},{"duration":0.08571424999999522,"midi":0,"time":94.54281775000001,"velocity":0.1732283464566929},{"duration":0.08571424999999522,"midi":0,"time":94.628532,"velocity":0.1732283464566929},{"duration":0.08571424999999522,"midi":0,"time":94.628532,"velocity":0.1732283464566929},{"duration":0.08571424999999522,"midi":0,"time":94.628532,"velocity":0.1732283464566929},{"duration":0.08571425000000943,"midi":0,"time":94.71424625,"velocity":0.1732283464566929},{"duration":0.08571424999999522,"midi":0,"time":94.79996050000001,"velocity":0.1732283464566929},{"duration":0.08571424999999522,"midi":0,"time":94.79996050000001,"velocity":0.1732283464566929},{"duration":0.08571424999999522,"midi":0,"time":94.79996050000001,"velocity":0.1732283464566929},{"duration":0.08571424999999522,"midi":0,"time":94.88567475,"velocity":0.1732283464566929},{"duration":0.08571425000000943,"midi":0,"time":94.971389,"velocity":0.1732283464566929},{"duration":0.08571425000000943,"midi":0,"time":94.971389,"velocity":0.1732283464566929},{"duration":0.08571425000000943,"midi":0,"time":94.971389,"velocity":0.1732283464566929},{"duration":0.08571424999999522,"midi":0,"time":95.05710325000001,"velocity":0.1732283464566929},{"duration":0.08571424999999522,"midi":0,"time":95.1428175,"velocity":0.1732283464566929},{"duration":0.08571424999999522,"midi":0,"time":95.1428175,"velocity":0.1732283464566929},{"duration":0.08571424999999522,"midi":0,"time":95.1428175,"velocity":0.1732283464566929},{"duration":0.08571425000000943,"midi":0,"time":95.22853175,"velocity":0.1732283464566929},{"duration":0.08571424999999522,"midi":0,"time":95.31424600000001,"velocity":0.1732283464566929},{"duration":0.08571424999999522,"midi":0,"time":95.39996025,"velocity":0.1732283464566929},{"duration":0.08571425000000943,"midi":0,"time":95.4856745,"velocity":0.1732283464566929},{"duration":0.08571425000000943,"midi":0,"time":95.4856745,"velocity":0.1732283464566929},{"duration":0.08571425000000943,"midi":0,"time":95.4856745,"velocity":0.1732283464566929},{"duration":0.08571424999999522,"midi":0,"time":95.57138875000001,"velocity":0.1732283464566929},{"duration":0.08571424999999522,"midi":0,"time":95.657103,"velocity":0.1732283464566929},{"duration":0.08571424999999522,"midi":0,"time":95.657103,"velocity":0.1732283464566929},{"duration":0.08571424999999522,"midi":0,"time":95.657103,"velocity":0.1732283464566929},{"duration":0.08571425000000943,"midi":0,"time":95.74281725,"velocity":0.1732283464566929},{"duration":0.08571424999999522,"midi":0,"time":95.82853150000001,"velocity":0.1732283464566929},{"duration":0.08571424999999522,"midi":0,"time":95.82853150000001,"velocity":0.1732283464566929},{"duration":0.08571424999999522,"midi":0,"time":95.82853150000001,"velocity":0.1732283464566929},{"duration":0.08571424999999522,"midi":0,"time":95.91424575,"velocity":0.1732283464566929},{"duration":0.08571425000000943,"midi":0,"time":95.99996,"velocity":0.1732283464566929},{"duration":0.08571425000000943,"midi":0,"time":95.99996,"velocity":0.1732283464566929},{"duration":0.08571425000000943,"midi":0,"time":95.99996,"velocity":0.1732283464566929},{"duration":0.08571425000000943,"midi":0,"time":95.99996,"velocity":0.1732283464566929},{"duration":0.08571425000000943,"midi":0,"time":95.99996,"velocity":0.1732283464566929},{"duration":0.08571424999999522,"midi":0,"time":96.08567425000001,"velocity":0.1732283464566929},{"duration":0.08571424999999522,"midi":0,"time":96.1713885,"velocity":0.1732283464566929},{"duration":0.08571424999999522,"midi":0,"time":96.1713885,"velocity":0.1732283464566929},{"duration":0.08571424999999522,"midi":0,"time":96.1713885,"velocity":0.1732283464566929},{"duration":0.08571425000000943,"midi":0,"time":96.25710275,"velocity":0.1732283464566929},{"duration":0.08571424999999522,"midi":0,"time":96.34281700000001,"velocity":0.1732283464566929},{"duration":0.08571424999999522,"midi":0,"time":96.34281700000001,"velocity":0.1732283464566929},{"duration":0.08571424999999522,"midi":0,"time":96.34281700000001,"velocity":0.1732283464566929},{"duration":0.08571424999999522,"midi":0,"time":96.42853125,"velocity":0.1732283464566929},{"duration":0.08571425000000943,"midi":0,"time":96.5142455,"velocity":0.1732283464566929},{"duration":0.08571425000000943,"midi":0,"time":96.5142455,"velocity":0.1732283464566929},{"duration":0.08571425000000943,"midi":0,"time":96.5142455,"velocity":0.1732283464566929},{"duration":0.08571424999999522,"midi":0,"time":96.59995975000001,"velocity":0.1732283464566929},{"duration":0.08571424999999522,"midi":0,"time":96.685674,"velocity":0.1732283464566929},{"duration":0.08571424999999522,"midi":0,"time":96.685674,"velocity":0.1732283464566929},{"duration":0.08571424999999522,"midi":0,"time":96.685674,"velocity":0.1732283464566929},{"duration":0.08571425000000943,"midi":0,"time":96.77138825,"velocity":0.1732283464566929},{"duration":0.08571424999999522,"midi":0,"time":96.85710250000001,"velocity":0.1732283464566929},{"duration":0.08571424999999522,"midi":0,"time":96.85710250000001,"velocity":0.1732283464566929},{"duration":0.08571424999999522,"midi":0,"time":96.85710250000001,"velocity":0.1732283464566929},{"duration":0.08571424999999522,"midi":0,"time":96.94281675,"velocity":0.1732283464566929},{"duration":0.08571425000000943,"midi":0,"time":97.028531,"velocity":0.1732283464566929},{"duration":0.08571425000000943,"midi":0,"time":97.028531,"velocity":0.1732283464566929},{"duration":0.08571425000000943,"midi":0,"time":97.028531,"velocity":0.1732283464566929},{"duration":0.08571424999999522,"midi":0,"time":97.11424525000001,"velocity":0.1732283464566929},{"duration":0.08571424999999522,"midi":0,"time":97.1999595,"velocity":0.1732283464566929},{"duration":0.08571424999999522,"midi":0,"time":97.1999595,"velocity":0.1732283464566929},{"duration":0.08571424999999522,"midi":0,"time":97.1999595,"velocity":0.1732283464566929},{"duration":0.08571425000000943,"midi":0,"time":97.28567375,"velocity":0.1732283464566929},{"duration":0.08571424999999522,"midi":0,"time":97.37138800000001,"velocity":0.1732283464566929},{"duration":0.08571424999999522,"midi":0,"time":97.37138800000001,"velocity":0.1732283464566929},{"duration":0.08571424999999522,"midi":0,"time":97.37138800000001,"velocity":0.1732283464566929},{"duration":0.08571424999999522,"midi":0,"time":97.37138800000001,"velocity":0.1732283464566929},{"duration":0.08571424999999522,"midi":0,"time":97.37138800000001,"velocity":0.1732283464566929},{"duration":0.08571424999999522,"midi":0,"time":97.45710225,"velocity":0.1732283464566929},{"duration":0.08571425000000943,"midi":0,"time":97.5428165,"velocity":0.1732283464566929},{"duration":0.08571425000000943,"midi":0,"time":97.5428165,"velocity":0.1732283464566929},{"duration":0.08571425000000943,"midi":0,"time":97.5428165,"velocity":0.1732283464566929},{"duration":0.08571424999999522,"midi":0,"time":97.62853075000001,"velocity":0.1732283464566929},{"duration":0.08571424999999522,"midi":0,"time":97.714245,"velocity":0.1732283464566929},{"duration":0.08571424999999522,"midi":0,"time":97.714245,"velocity":0.1732283464566929},{"duration":0.08571424999999522,"midi":0,"time":97.714245,"velocity":0.1732283464566929},{"duration":0.08571424999999522,"midi":0,"time":97.714245,"velocity":0.1732283464566929},{"duration":0.08571424999999522,"midi":0,"time":97.714245,"velocity":0.1732283464566929},{"duration":0.08571425000000943,"midi":0,"time":97.79995925,"velocity":0.1732283464566929},{"duration":0.08571424999999522,"midi":0,"time":97.88567350000001,"velocity":0.1732283464566929},{"duration":0.08571424999999522,"midi":0,"time":97.88567350000001,"velocity":0.1732283464566929},{"duration":0.08571424999999522,"midi":0,"time":97.88567350000001,"velocity":0.1732283464566929},{"duration":0.08571424999999522,"midi":0,"time":97.97138775,"velocity":0.1732283464566929},{"duration":0.08571425000000943,"midi":0,"time":98.057102,"velocity":0.1732283464566929},{"duration":0.08571425000000943,"midi":0,"time":98.057102,"velocity":0.1732283464566929},{"duration":0.08571425000000943,"midi":0,"time":98.057102,"velocity":0.1732283464566929},{"duration":0.08571425000000943,"midi":0,"time":98.057102,"velocity":0.1732283464566929},{"duration":0.08571425000000943,"midi":0,"time":98.057102,"velocity":0.1732283464566929}]}]}
