{"tracks":[{"instrument":{"family":"drums","number":0,"name":"standard kit"},"notes":[{"duration":0.07601343749999989,"midi":38,"time":2.43243,"velocity":0.3937007874015748},{"duration":0.07601343749999989,"midi":38,"time":2.53378125,"velocity":0.3937007874015748},{"duration":0.07601343749999989,"midi":38,"time":2.6351325,"velocity":0.3937007874015748},{"duration":0.07601343749999989,"midi":38,"time":2.73648375,"velocity":0.3937007874015748},{"duration":0.07601343749999989,"midi":38,"time":2.837835,"velocity":0.3937007874015748}]},{"instrument":{"family":"synth lead","number":81,"name":"lead 2 (sawtooth)"},"notes":[{"duration":0.10135125,"midi":59,"time":0,"velocity":0.2283464566929134},{"duration":0.10135125,"midi":62,"time":0,"velocity":0.2283464566929134},{"duration":0.10135125,"midi":52,"time":0,"velocity":0.2283464566929134},{"duration":0.10135125,"midi":55,"time":0,"velocity":0.2283464566929134},{"duration":0.10135125,"midi":52,"time":0.2027025,"velocity":0.2283464566929134},{"duration":0.10135125,"midi":59,"time":0.2027025,"velocity":0.2283464566929134},{"duration":0.10135125,"midi":62,"time":0.2027025,"velocity":0.2283464566929134},{"duration":0.10135125,"midi":55,"time":0.2027025,"velocity":0.2283464566929134},{"duration":0.10135125,"midi":55,"time":0.405405,"velocity":0.2283464566929134},{"duration":0.10135125,"midi":62,"time":0.405405,"velocity":0.2283464566929134},{"duration":0.10135125,"midi":59,"time":0.405405,"velocity":0.2283464566929134},{"duration":0.10135125,"midi":52,"time":0.405405,"velocity":0.2283464566929134},{"duration":0.10135125,"midi":52,"time":0.6081075,"velocity":0.2283464566929134},{"duration":0.10135125,"midi":55,"time":0.6081075,"velocity":0.2283464566929134},{"duration":0.10135125,"midi":62,"time":0.6081075,"velocity":0.2283464566929134},{"duration":0.10135125,"midi":59,"time":0.6081075,"velocity":0.2283464566929134},{"duration":0.10135125,"midi":52,"time":0.81081,"velocity":0.2283464566929134},{"duration":0.10135125,"midi":62,"time":0.81081,"velocity":0.2283464566929134},{"duration":0.10135125,"midi":59,"time":0.81081,"velocity":0.2283464566929134},{"duration":0.10135125,"midi":55,"time":0.81081,"velocity":0.2283464566929134},{"duration":0.10135125,"midi":59,"time":1.216215,"velocity":0.2283464566929134},{"duration":0.10135125,"midi":62,"time":1.216215,"velocity":0.2283464566929134},{"duration":0.10135125,"midi":52,"time":1.216215,"velocity":0.2283464566929134},{"duration":0.10135125,"midi":55,"time":1.216215,"velocity":0.2283464566929134},{"duration":0.10135125,"midi":55,"time":1.4189175,"velocity":0.2283464566929134},{"duration":0.10135125,"midi":52,"time":1.4189175,"velocity":0.2283464566929134},{"duration":0.10135125,"midi":62,"time":1.4189175,"velocity":0.2283464566929134},{"duration":0.10135125,"midi":59,"time":1.4189175,"velocity":0.2283464566929134},{"duration":0.10135125,"midi":62,"time":1.62162,"velocity":0.2283464566929134},{"duration":0.10135125,"midi":52,"time":1.62162,"velocity":0.2283464566929134},{"duration":0.10135125,"midi":59,"time":1.62162,"velocity":0.2283464566929134},{"duration":0.10135125,"midi":55,"time":1.62162,"velocity":0.2283464566929134},{"duration":0.10135125,"midi":62,"time":1.8243225,"velocity":0.2283464566929134},{"duration":0.10135125,"midi":59,"time":1.8243225,"velocity":0.2283464566929134},{"duration":0.10135125,"midi":55,"time":1.8243225,"velocity":0.2283464566929134},{"duration":0.10135125,"midi":52,"time":1.8243225,"velocity":0.2283464566929134},{"duration":0.10135125,"midi":62,"time":2.027025,"velocity":0.2283464566929134},{"duration":0.10135125,"midi":55,"time":2.027025,"velocity":0.2283464566929134},{"duration":0.10135125,"midi":59,"time":2.027025,"velocity":0.2283464566929134},{"duration":0.10135125,"midi":52,"time":2.027025,"velocity":0.2283464566929134},{"duration":0.07601343749999989,"midi":55,"time":2.43243,"velocity":0.2283464566929134},{"duration":0.07601343749999989,"midi":62,"time":2.43243,"velocity":0.2283464566929134},{"duration":0.07601343749999989,"midi":59,"time":2.43243,"velocity":0.2283464566929134},{"duration":0.07601343749999989,"midi":52,"time":2.43243,"velocity":0.2283464566929134},{"duration":0.07601343749999989,"midi":52,"time":2.53378125,"velocity":0.2283464566929134},{"duration":0.07601343749999989,"midi":62,"time":2.53378125,"velocity":0.2283464566929134},{"duration":0.07601343749999989,"midi":55,"time":2.53378125,"velocity":0.2283464566929134},{"duration":0.07601343749999989,"midi":59,"time":2.53378125,"velocity":0.2283464566929134},{"duration":0.07601343749999989,"midi":55,"time":2.6351325,"velocity":0.2283464566929134},{"duration":0.07601343749999989,"midi":52,"time":2.6351325,"velocity":0.2283464566929134},{"duration":0.07601343749999989,"midi":59,"time":2.6351325,"velocity":0.2283464566929134},{"duration":0.07601343749999989,"midi":62,"time":2.6351325,"velocity":0.2283464566929134},{"duration":0.07601343749999989,"midi":52,"time":2.73648375,"velocity":0.2283464566929134},{"duration":0.07601343749999989,"midi":62,"time":2.73648375,"velocity":0.2283464566929134},{"duration":0.07601343749999989,"midi":55,"time":2.73648375,"velocity":0.2283464566929134},{"duration":0.07601343749999989,"midi":59,"time":2.73648375,"velocity":0.2283464566929134},{"duration":0.07601343749999989,"midi":59,"time":2.837835,"velocity":0.2283464566929134},{"duration":0.07601343749999989,"midi":55,"time":2.837835,"velocity":0.2283464566929134},{"duration":0.07601343749999989,"midi":52,"time":2.837835,"velocity":0.2283464566929134},{"duration":0.07601343749999989,"midi":62,"time":2.837835,"velocity":0.2283464566929134},{"duration":0.10135124999999956,"midi":47,"time":6.6891825,"velocity":0.2283464566929134},{"duration":0.10135124999999956,"midi":50,"time":6.6891825,"velocity":0.2283464566929134},{"duration":0.10135124999999956,"midi":57,"time":6.6891825,"velocity":0.2283464566929134},{"duration":0.10135125000000045,"midi":57,"time":6.891885,"velocity":0.2283464566929134},{"duration":0.10135125000000045,"midi":47,"time":6.891885,"velocity":0.2283464566929134},{"duration":0.10135125000000045,"midi":50,"time":6.891885,"velocity":0.2283464566929134},{"duration":0.10135125000000045,"midi":47,"time":7.29729,"velocity":0.2283464566929134},{"duration":0.10135125000000045,"midi":55,"time":7.29729,"velocity":0.2283464566929134},{"duration":0.10135125000000045,"midi":50,"time":7.29729,"velocity":0.2283464566929134},{"duration":0.10135124999999956,"midi":47,"time":7.4999925,"velocity":0.2283464566929134},{"duration":0.10135124999999956,"midi":50,"time":7.4999925,"velocity":0.2283464566929134},{"duration":0.10135124999999956,"midi":55,"time":7.4999925,"velocity":0.2283464566929134},{"duration":0.10135124999999956,"midi":50,"time":7.9053975,"velocity":0.2283464566929134},{"duration":0.10135124999999956,"midi":54,"time":7.9053975,"velocity":0.2283464566929134},{"duration":0.10135124999999956,"midi":47,"time":7.9053975,"velocity":0.2283464566929134},{"duration":0.10135125000000045,"midi":50,"time":8.1081,"velocity":0.2283464566929134},{"duration":0.10135125000000045,"midi":47,"time":8.1081,"velocity":0.2283464566929134},{"duration":0.10135125000000045,"midi":54,"time":8.1081,"velocity":0.2283464566929134},{"duration":0.10135125000000045,"midi":52,"time":8.513505,"velocity":0.2283464566929134},{"duration":0.10135125000000045,"midi":50,"time":8.513505,"velocity":0.2283464566929134},{"duration":0.10135125000000045,"midi":47,"time":8.513505,"velocity":0.2283464566929134},{"duration":0.10135125000000045,"midi":52,"time":8.7162075,"velocity":0.2283464566929134},{"duration":0.10135125000000045,"midi":47,"time":8.7162075,"velocity":0.2283464566929134},{"duration":0.10135125000000045,"midi":50,"time":8.7162075,"velocity":0.2283464566929134},{"duration":0.10135124999999867,"midi":50,"time":9.932422500000001,"velocity":0.2283464566929134},{"duration":0.10135124999999867,"midi":47,"time":9.932422500000001,"velocity":0.2283464566929134},{"duration":0.10135124999999867,"midi":57,"time":9.932422500000001,"velocity":0.2283464566929134},{"duration":0.10135125000000045,"midi":50,"time":10.135125,"velocity":0.2283464566929134},{"duration":0.10135125000000045,"midi":47,"time":10.135125,"velocity":0.2283464566929134},{"duration":0.10135125000000045,"midi":57,"time":10.135125,"velocity":0.2283464566929134},{"duration":0.10135125000000045,"midi":50,"time":10.54053,"velocity":0.2283464566929134},{"duration":0.10135125000000045,"midi":55,"time":10.54053,"velocity":0.2283464566929134},{"duration":0.10135125000000045,"midi":47,"time":10.54053,"velocity":0.2283464566929134},{"duration":0.10135124999999867,"midi":55,"time":10.743232500000001,"velocity":0.2283464566929134},{"duration":0.10135124999999867,"midi":50,"time":10.743232500000001,"velocity":0.2283464566929134},{"duration":0.10135124999999867,"midi":47,"time":10.743232500000001,"velocity":0.2283464566929134},{"duration":0.10135125000000045,"midi":50,"time":11.1486375,"velocity":0.2283464566929134},{"duration":0.10135125000000045,"midi":47,"time":11.1486375,"velocity":0.2283464566929134},{"duration":0.10135125000000045,"midi":54,"time":11.1486375,"velocity":0.2283464566929134},{"duration":0.10135125000000045,"midi":47,"time":11.35134,"velocity":0.2283464566929134},{"duration":0.10135125000000045,"midi":54,"time":11.35134,"velocity":0.2283464566929134},{"duration":0.10135125000000045,"midi":50,"time":11.35134,"velocity":0.2283464566929134},{"duration":0.10135125000000045,"midi":50,"time":11.756745,"velocity":0.2283464566929134},{"duration":0.10135125000000045,"midi":47,"time":11.756745,"velocity":0.2283464566929134},{"duration":0.10135125000000045,"midi":52,"time":11.756745,"velocity":0.2283464566929134},{"duration":0.10135125000000045,"midi":52,"time":11.9594475,"velocity":0.2283464566929134},{"duration":0.10135125000000045,"midi":50,"time":11.9594475,"velocity":0.2283464566929134},{"duration":0.10135125000000045,"midi":47,"time":11.9594475,"velocity":0.2283464566929134},{"duration":0.10135124999999867,"midi":55,"time":13.175662500000001,"velocity":0.2283464566929134},{"duration":0.10135124999999867,"midi":62,"time":13.175662500000001,"velocity":0.2283464566929134},{"duration":0.10135124999999867,"midi":52,"time":13.175662500000001,"velocity":0.2283464566929134},{"duration":0.10135125000000045,"midi":62,"time":13.378365,"velocity":0.2283464566929134},{"duration":0.10135125000000045,"midi":55,"time":13.378365,"velocity":0.2283464566929134},{"duration":0.10135125000000045,"midi":52,"time":13.378365,"velocity":0.2283464566929134},{"duration":0.10135125000000045,"midi":60,"time":13.78377,"velocity":0.2283464566929134},{"duration":0.10135125000000045,"midi":55,"time":13.78377,"velocity":0.2283464566929134},{"duration":0.10135125000000045,"midi":52,"time":13.78377,"velocity":0.2283464566929134},{"duration":0.10135124999999867,"midi":60,"time":13.986472500000001,"velocity":0.2283464566929134},{"duration":0.10135124999999867,"midi":55,"time":13.986472500000001,"velocity":0.2283464566929134},{"duration":0.10135124999999867,"midi":52,"time":13.986472500000001,"velocity":0.2283464566929134},{"duration":0.10135125000000045,"midi":55,"time":14.3918775,"velocity":0.2283464566929134},{"duration":0.10135125000000045,"midi":52,"time":14.3918775,"velocity":0.2283464566929134},{"duration":0.10135125000000045,"midi":59,"time":14.3918775,"velocity":0.2283464566929134},{"duration":0.10135125000000045,"midi":59,"time":14.59458,"velocity":0.2283464566929134},{"duration":0.10135125000000045,"midi":55,"time":14.59458,"velocity":0.2283464566929134},{"duration":0.10135125000000045,"midi":52,"time":14.59458,"velocity":0.2283464566929134},{"duration":0.10135125000000045,"midi":55,"time":14.999985,"velocity":0.2283464566929134},{"duration":0.10135125000000045,"midi":52,"time":14.999985,"velocity":0.2283464566929134},{"duration":0.10135125000000045,"midi":57,"time":14.999985,"velocity":0.2283464566929134},{"duration":0.10135125000000045,"midi":52,"time":15.2026875,"velocity":0.2283464566929134},{"duration":0.10135125000000045,"midi":55,"time":15.2026875,"velocity":0.2283464566929134},{"duration":0.10135125000000045,"midi":57,"time":15.2026875,"velocity":0.2283464566929134},{"duration":0.10135125000000045,"midi":51,"time":16.4189025,"velocity":0.2283464566929134},{"duration":0.10135125000000045,"midi":62,"time":16.4189025,"velocity":0.2283464566929134},{"duration":0.10135125000000045,"midi":55,"time":16.4189025,"velocity":0.2283464566929134},{"duration":0.1013512499999969,"midi":55,"time":16.621605000000002,"velocity":0.2283464566929134},{"duration":0.1013512499999969,"midi":62,"time":16.621605000000002,"velocity":0.2283464566929134},{"duration":0.1013512499999969,"midi":51,"time":16.621605000000002,"velocity":0.2283464566929134},{"duration":0.10135125000000045,"midi":60,"time":17.02701,"velocity":0.2283464566929134},{"duration":0.10135125000000045,"midi":51,"time":17.02701,"velocity":0.2283464566929134},{"duration":0.10135125000000045,"midi":55,"time":17.02701,"velocity":0.2283464566929134},{"duration":0.10135125000000045,"midi":55,"time":17.2297125,"velocity":0.2283464566929134},{"duration":0.10135125000000045,"midi":60,"time":17.2297125,"velocity":0.2283464566929134},{"duration":0.10135125000000045,"midi":51,"time":17.2297125,"velocity":0.2283464566929134},{"duration":0.10135125000000045,"midi":55,"time":17.6351175,"velocity":0.2283464566929134},{"duration":0.10135125000000045,"midi":51,"time":17.6351175,"velocity":0.2283464566929134},{"duration":0.10135125000000045,"midi":58,"time":17.6351175,"velocity":0.2283464566929134},{"duration":0.10135125000000045,"midi":55,"time":17.83782,"velocity":0.2283464566929134},{"duration":0.10135125000000045,"midi":51,"time":17.83782,"velocity":0.2283464566929134},{"duration":0.10135125000000045,"midi":58,"time":17.83782,"velocity":0.2283464566929134},{"duration":0.1013512499999969,"midi":51,"time":18.243225000000002,"velocity":0.2283464566929134},{"duration":0.1013512499999969,"midi":57,"time":18.243225000000002,"velocity":0.2283464566929134},{"duration":0.1013512499999969,"midi":55,"time":18.243225000000002,"velocity":0.2283464566929134},{"duration":0.10135125000000045,"midi":51,"time":18.4459275,"velocity":0.2283464566929134},{"duration":0.10135125000000045,"midi":55,"time":18.4459275,"velocity":0.2283464566929134},{"duration":0.10135125000000045,"midi":57,"time":18.4459275,"velocity":0.2283464566929134},{"duration":0.6081074999999991,"midi":39,"time":18.8513325,"velocity":0.2283464566929134},{"duration":0.6081074999999991,"midi":43,"time":18.8513325,"velocity":0.2283464566929134},{"duration":1.4189174999999992,"midi":42,"time":19.45944,"velocity":0.2283464566929134},{"duration":1.4189174999999992,"midi":38,"time":19.45944,"velocity":0.2283464566929134},{"duration":0.30405375000000134,"midi":54,"time":20.27025,"velocity":0.2283464566929134},{"duration":0.10135125000000045,"midi":57,"time":20.675655,"velocity":0.2283464566929134},{"duration":1.824322500000001,"midi":37,"time":20.8783575,"velocity":0.2283464566929134},{"duration":0.81081,"midi":52,"time":20.8783575,"velocity":0.2283464566929134},{"duration":3.445942500000001,"midi":40,"time":20.8783575,"velocity":0.2283464566929134},{"duration":1.62162,"midi":36,"time":22.70268,"velocity":0.2283464566929134},{"duration":0.2027025000000009,"midi":51,"time":23.3107875,"velocity":0.2283464566929134},{"duration":0.10135125000000045,"midi":52,"time":23.51349,"velocity":0.2283464566929134},{"duration":0.10135125000000045,"midi":54,"time":23.716192500000002,"velocity":0.2283464566929134},{"duration":0.10135125000000045,"midi":55,"time":23.918895,"velocity":0.2283464566929134},{"duration":0.10135125000000045,"midi":57,"time":24.1215975,"velocity":0.2283464566929134},{"duration":1.62162,"midi":41,"time":24.3243,"velocity":0.2283464566929134},{"duration":0.81081,"midi":59,"time":24.3243,"velocity":0.2283464566929134},{"duration":1.62162,"midi":38,"time":24.3243,"velocity":0.2283464566929134},{"duration":0.10135125000000045,"midi":60,"time":25.13511,"velocity":0.2283464566929134},{"duration":0.10135125000000045,"midi":59,"time":25.94592,"velocity":0.2283464566929134},{"duration":0.1013512499999969,"midi":52,"time":26.351325000000003,"velocity":0.2283464566929134},{"duration":0.1013512499999969,"midi":48,"time":26.351325000000003,"velocity":0.2283464566929134},{"duration":0.1013512499999969,"midi":43,"time":26.351325000000003,"velocity":0.2283464566929134},{"duration":0.10135125000000045,"midi":52,"time":26.5540275,"velocity":0.2283464566929134},{"duration":0.10135125000000045,"midi":43,"time":26.959432500000002,"velocity":0.2283464566929134},{"duration":0.10135125000000045,"midi":59,"time":26.959432500000002,"velocity":0.2283464566929134},{"duration":0.10135125000000045,"midi":48,"time":26.959432500000002,"velocity":0.2283464566929134},{"duration":0.4054050000000018,"midi":58,"time":27.3648375,"velocity":0.2283464566929134},{"duration":0.1013512499999969,"midi":48,"time":27.972945000000003,"velocity":0.2283464566929134},{"duration":0.1013512499999969,"midi":42,"time":27.972945000000003,"velocity":0.2283464566929134},{"duration":0.1013512499999969,"midi":51,"time":27.972945000000003,"velocity":0.2283464566929134},{"duration":0.10135125000000045,"midi":51,"time":28.1756475,"velocity":0.2283464566929134},{"duration":0.10135125000000045,"midi":42,"time":28.581052500000002,"velocity":0.2283464566929134},{"duration":0.10135125000000045,"midi":58,"time":28.581052500000002,"velocity":0.2283464566929134},{"duration":0.10135125000000045,"midi":48,"time":28.581052500000002,"velocity":0.2283464566929134},{"duration":1.013512500000001,"midi":57,"time":28.9864575,"velocity":0.2283464566929134},{"duration":0.1013512499999969,"midi":42,"time":29.594565000000003,"velocity":0.2283464566929134},{"duration":0.1013512499999969,"midi":50,"time":29.594565000000003,"velocity":0.2283464566929134},{"duration":0.1013512499999969,"midi":47,"time":29.594565000000003,"velocity":0.2283464566929134},{"duration":0.10135125000000045,"midi":50,"time":30.202672500000002,"velocity":0.2283464566929134},{"duration":0.10135125000000045,"midi":47,"time":30.202672500000002,"velocity":0.2283464566929134},{"duration":0.10135125000000045,"midi":42,"time":30.202672500000002,"velocity":0.2283464566929134},{"duration":0.1013512499999969,"midi":49,"time":31.216185000000003,"velocity":0.2283464566929134},{"duration":0.1013512499999969,"midi":45,"time":31.216185000000003,"velocity":0.2283464566929134},{"duration":0.1013512499999969,"midi":52,"time":31.216185000000003,"velocity":0.2283464566929134},{"duration":0.10135125000000045,"midi":49,"time":31.4188875,"velocity":0.2283464566929134},{"duration":0.10135125000000045,"midi":45,"time":31.4188875,"velocity":0.2283464566929134},{"duration":0.10135125000000045,"midi":52,"time":31.4188875,"velocity":0.2283464566929134},{"duration":0.10135125000000045,"midi":51,"time":31.62159,"velocity":0.2283464566929134},{"duration":0.10135125000000045,"midi":45,"time":31.62159,"velocity":0.2283464566929134},{"duration":0.10135125000000045,"midi":48,"time":31.62159,"velocity":0.2283464566929134},{"duration":0.10135125000000045,"midi":48,"time":31.824292500000002,"velocity":0.2283464566929134},{"duration":0.10135125000000045,"midi":45,"time":31.824292500000002,"velocity":0.2283464566929134},{"duration":0.10135125000000045,"midi":51,"time":31.824292500000002,"velocity":0.2283464566929134},{"duration":0.10135125000000045,"midi":51,"time":32.026995,"velocity":0.2283464566929134},{"duration":0.10135125000000045,"midi":48,"time":32.026995,"velocity":0.2283464566929134},{"duration":0.10135125000000045,"midi":45,"time":32.026995,"velocity":0.2283464566929134},{"duration":0.10135125000000045,"midi":44,"time":32.4324,"velocity":0.2283464566929134},{"duration":0.10135125000000045,"midi":51,"time":32.4324,"velocity":0.2283464566929134},{"duration":0.10135125000000045,"midi":47,"time":32.4324,"velocity":0.2283464566929134},{"duration":0.10135125000000045,"midi":59,"time":32.6351025,"velocity":0.2283464566929134},{"duration":0.10135125000000045,"midi":66,"time":32.6351025,"velocity":0.2283464566929134},{"duration":0.10135125000000045,"midi":56,"time":32.6351025,"velocity":0.2283464566929134},{"duration":0.10135125000000045,"midi":63,"time":32.6351025,"velocity":0.2283464566929134},{"duration":0.10135125000000045,"midi":56,"time":32.837805,"velocity":0.2283464566929134},{"duration":0.10135125000000045,"midi":66,"time":32.837805,"velocity":0.2283464566929134},{"duration":0.10135125000000045,"midi":59,"time":32.837805,"velocity":0.2283464566929134},{"duration":0.10135125000000045,"midi":63,"time":32.837805,"velocity":0.2283464566929134},{"duration":0.10135124999999334,"midi":64,"time":33.243210000000005,"velocity":0.2283464566929134},{"duration":0.10135124999999334,"midi":56,"time":33.243210000000005,"velocity":0.2283464566929134},{"duration":0.10135124999999334,"midi":59,"time":33.243210000000005,"velocity":0.2283464566929134},{"duration":0.10135125000000045,"midi":64,"time":33.4459125,"velocity":0.2283464566929134},{"duration":0.10135125000000045,"midi":59,"time":33.4459125,"velocity":0.2283464566929134},{"duration":0.10135125000000045,"midi":56,"time":33.4459125,"velocity":0.2283464566929134},{"duration":0.10135125000000045,"midi":56,"time":33.8513175,"velocity":0.2283464566929134},{"duration":0.10135125000000045,"midi":59,"time":33.8513175,"velocity":0.2283464566929134},{"duration":0.10135125000000045,"midi":63,"time":33.8513175,"velocity":0.2283464566929134},{"duration":0.10135125000000045,"midi":59,"time":34.05402,"velocity":0.2283464566929134},{"duration":0.10135125000000045,"midi":63,"time":34.05402,"velocity":0.2283464566929134},{"duration":0.10135125000000045,"midi":56,"time":34.05402,"velocity":0.2283464566929134},{"duration":0.10135125000000045,"midi":56,"time":34.459425,"velocity":0.2283464566929134},{"duration":0.10135125000000045,"midi":59,"time":34.459425,"velocity":0.2283464566929134},{"duration":0.10135125000000045,"midi":61,"time":34.459425,"velocity":0.2283464566929134},{"duration":0.10135125000000045,"midi":61,"time":34.662127500000004,"velocity":0.2283464566929134},{"duration":0.10135125000000045,"midi":56,"time":34.662127500000004,"velocity":0.2283464566929134},{"duration":0.10135125000000045,"midi":59,"time":34.662127500000004,"velocity":0.2283464566929134},{"duration":0.5827696875000044,"midi":42,"time":35.0675325,"velocity":0.2283464566929134},{"duration":0.5827696875000044,"midi":44,"time":35.0675325,"velocity":0.2283464566929134},{"duration":0.5827696875000044,"midi":47,"time":35.0675325,"velocity":0.2283464566929134},{"duration":0.5827696875000044,"midi":39,"time":35.0675325,"velocity":0.2283464566929134},{"duration":0.10135125000000045,"midi":39,"time":35.67564,"velocity":0.2283464566929134},{"duration":0.10135125000000045,"midi":44,"time":35.67564,"velocity":0.2283464566929134},{"duration":0.10135125000000045,"midi":35,"time":35.67564,"velocity":0.2283464566929134},{"duration":0.10135125000000045,"midi":42,"time":35.67564,"velocity":0.2283464566929134},{"duration":0.10135125000000045,"midi":63,"time":35.8783425,"velocity":0.2283464566929134},{"duration":0.10135125000000045,"midi":59,"time":35.8783425,"velocity":0.2283464566929134},{"duration":0.10135125000000045,"midi":56,"time":35.8783425,"velocity":0.2283464566929134},{"duration":0.10135125000000045,"midi":66,"time":35.8783425,"velocity":0.2283464566929134},{"duration":0.10135125000000045,"midi":66,"time":36.081045,"velocity":0.2283464566929134},{"duration":0.10135125000000045,"midi":59,"time":36.081045,"velocity":0.2283464566929134},{"duration":0.10135125000000045,"midi":56,"time":36.081045,"velocity":0.2283464566929134},{"duration":0.10135125000000045,"midi":63,"time":36.081045,"velocity":0.2283464566929134},{"duration":0.10135124999999334,"midi":64,"time":36.486450000000005,"velocity":0.2283464566929134},{"duration":0.10135124999999334,"midi":56,"time":36.486450000000005,"velocity":0.2283464566929134},{"duration":0.10135124999999334,"midi":59,"time":36.486450000000005,"velocity":0.2283464566929134},{"duration":0.10135125000000045,"midi":64,"time":36.6891525,"velocity":0.2283464566929134},{"duration":0.10135125000000045,"midi":59,"time":36.6891525,"velocity":0.2283464566929134},{"duration":0.10135125000000045,"midi":56,"time":36.6891525,"velocity":0.2283464566929134},{"duration":0.10135125000000045,"midi":63,"time":37.0945575,"velocity":0.2283464566929134},{"duration":0.10135125000000045,"midi":59,"time":37.0945575,"velocity":0.2283464566929134},{"duration":0.10135125000000045,"midi":56,"time":37.0945575,"velocity":0.2283464566929134},{"duration":0.10135125000000045,"midi":63,"time":37.29726,"velocity":0.2283464566929134},{"duration":0.10135125000000045,"midi":59,"time":37.29726,"velocity":0.2283464566929134},{"duration":0.10135125000000045,"midi":56,"time":37.29726,"velocity":0.2283464566929134},{"duration":0.10135125000000045,"midi":56,"time":37.702665,"velocity":0.2283464566929134},{"duration":0.10135125000000045,"midi":61,"time":37.702665,"velocity":0.2283464566929134},{"duration":0.10135125000000045,"midi":59,"time":37.702665,"velocity":0.2283464566929134},{"duration":0.10135125000000045,"midi":59,"time":37.905367500000004,"velocity":0.2283464566929134},{"duration":0.10135125000000045,"midi":56,"time":37.905367500000004,"velocity":0.2283464566929134},{"duration":0.10135125000000045,"midi":61,"time":37.905367500000004,"velocity":0.2283464566929134},{"duration":0.5827696875000044,"midi":39,"time":38.3107725,"velocity":0.2283464566929134},{"duration":0.5827696875000044,"midi":42,"time":38.3107725,"velocity":0.2283464566929134},{"duration":0.5827696875000044,"midi":44,"time":38.3107725,"velocity":0.2283464566929134},{"duration":0.5827696875000044,"midi":47,"time":38.3107725,"velocity":0.2283464566929134},{"duration":0.10135125000000045,"midi":43,"time":38.91888,"velocity":0.2283464566929134},{"duration":0.10135125000000045,"midi":35,"time":38.91888,"velocity":0.2283464566929134},{"duration":0.10135125000000045,"midi":38,"time":38.91888,"velocity":0.2283464566929134},{"duration":0.10135125000000045,"midi":40,"time":38.91888,"velocity":0.2283464566929134},{"duration":0.10135125000000045,"midi":66,"time":39.1215825,"velocity":0.2283464566929134},{"duration":0.10135125000000045,"midi":55,"time":39.1215825,"velocity":0.2283464566929134},{"duration":0.10135125000000045,"midi":62,"time":39.1215825,"velocity":0.2283464566929134},{"duration":0.10135125000000045,"midi":59,"time":39.1215825,"velocity":0.2283464566929134},{"duration":0.10135125000000045,"midi":66,"time":39.324285,"velocity":0.2283464566929134},{"duration":0.10135125000000045,"midi":59,"time":39.324285,"velocity":0.2283464566929134},{"duration":0.10135125000000045,"midi":55,"time":39.324285,"velocity":0.2283464566929134},{"duration":0.10135125000000045,"midi":62,"time":39.324285,"velocity":0.2283464566929134},{"duration":0.10135124999999334,"midi":64,"time":39.729690000000005,"velocity":0.2283464566929134},{"duration":0.10135124999999334,"midi":55,"time":39.729690000000005,"velocity":0.2283464566929134},{"duration":0.10135124999999334,"midi":59,"time":39.729690000000005,"velocity":0.2283464566929134},{"duration":0.10135125000000045,"midi":64,"time":39.9323925,"velocity":0.2283464566929134},{"duration":0.10135125000000045,"midi":59,"time":39.9323925,"velocity":0.2283464566929134},{"duration":0.10135125000000045,"midi":55,"time":39.9323925,"velocity":0.2283464566929134},{"duration":0.10135125000000045,"midi":62,"time":40.3377975,"velocity":0.2283464566929134},{"duration":0.10135125000000045,"midi":59,"time":40.3377975,"velocity":0.2283464566929134},{"duration":0.10135125000000045,"midi":55,"time":40.3377975,"velocity":0.2283464566929134},{"duration":0.10135125000000045,"midi":62,"time":40.5405,"velocity":0.2283464566929134},{"duration":0.10135125000000045,"midi":59,"time":40.5405,"velocity":0.2283464566929134},{"duration":0.10135125000000045,"midi":55,"time":40.5405,"velocity":0.2283464566929134},{"duration":0.10135125000000045,"midi":55,"time":40.945905,"velocity":0.2283464566929134},{"duration":0.10135125000000045,"midi":61,"time":40.945905,"velocity":0.2283464566929134},{"duration":0.10135125000000045,"midi":59,"time":40.945905,"velocity":0.2283464566929134},{"duration":0.10135125000000045,"midi":61,"time":41.148607500000004,"velocity":0.2283464566929134},{"duration":0.10135125000000045,"midi":59,"time":41.148607500000004,"velocity":0.2283464566929134},{"duration":0.10135125000000045,"midi":55,"time":41.148607500000004,"velocity":0.2283464566929134},{"duration":0.5827696875000044,"midi":37,"time":41.5540125,"velocity":0.2283464566929134},{"duration":0.5827696875000044,"midi":42,"time":41.5540125,"velocity":0.2283464566929134},{"duration":0.5827696875000044,"midi":45,"time":41.5540125,"velocity":0.2283464566929134},{"duration":0.5827696875000044,"midi":40,"time":41.5540125,"velocity":0.2283464566929134},{"duration":0.10135125000000045,"midi":35,"time":42.16212,"velocity":0.2283464566929134},{"duration":0.10135125000000045,"midi":38,"time":42.16212,"velocity":0.2283464566929134},{"duration":0.10135125000000045,"midi":42,"time":42.16212,"velocity":0.2283464566929134},{"duration":0.10135125000000045,"midi":33,"time":42.16212,"velocity":0.2283464566929134},{"duration":0.10135125000000045,"midi":54,"time":42.3648225,"velocity":0.2283464566929134},{"duration":0.10135125000000045,"midi":57,"time":42.3648225,"velocity":0.2283464566929134},{"duration":0.10135125000000045,"midi":61,"time":42.3648225,"velocity":0.2283464566929134},{"duration":0.10135125000000045,"midi":64,"time":42.3648225,"velocity":0.2283464566929134},{"duration":0.10135125000000045,"midi":57,"time":42.567525,"velocity":0.2283464566929134},{"duration":0.10135125000000045,"midi":54,"time":42.567525,"velocity":0.2283464566929134},{"duration":0.10135125000000045,"midi":61,"time":42.567525,"velocity":0.2283464566929134},{"duration":0.10135125000000045,"midi":64,"time":42.567525,"velocity":0.2283464566929134},{"duration":0.10135124999999334,"midi":54,"time":42.972930000000005,"velocity":0.2283464566929134},{"duration":0.10135124999999334,"midi":57,"time":42.972930000000005,"velocity":0.2283464566929134},{"duration":0.10135124999999334,"midi":62,"time":42.972930000000005,"velocity":0.2283464566929134},{"duration":0.10135125000000045,"midi":54,"time":43.1756325,"velocity":0.2283464566929134},{"duration":0.10135125000000045,"midi":62,"time":43.1756325,"velocity":0.2283464566929134},{"duration":0.10135125000000045,"midi":57,"time":43.1756325,"velocity":0.2283464566929134},{"duration":0.10135125000000045,"midi":54,"time":43.5810375,"velocity":0.2283464566929134},{"duration":0.10135125000000045,"midi":57,"time":43.5810375,"velocity":0.2283464566929134},{"duration":0.10135125000000045,"midi":61,"time":43.5810375,"velocity":0.2283464566929134},{"duration":0.10135125000000045,"midi":61,"time":43.78374,"velocity":0.2283464566929134},{"duration":0.10135125000000045,"midi":57,"time":43.78374,"velocity":0.2283464566929134},{"duration":0.10135125000000045,"midi":54,"time":43.78374,"velocity":0.2283464566929134},{"duration":0.10135125000000045,"midi":54,"time":44.189145,"velocity":0.2283464566929134},{"duration":0.10135125000000045,"midi":57,"time":44.189145,"velocity":0.2283464566929134},{"duration":0.10135125000000045,"midi":59,"time":44.189145,"velocity":0.2283464566929134},{"duration":0.10135125000000045,"midi":54,"time":44.391847500000004,"velocity":0.2283464566929134},{"duration":0.10135125000000045,"midi":57,"time":44.391847500000004,"velocity":0.2283464566929134},{"duration":0.10135125000000045,"midi":59,"time":44.391847500000004,"velocity":0.2283464566929134},{"duration":0.5827696875000044,"midi":41,"time":44.7972525,"velocity":0.2283464566929134},{"duration":0.5827696875000044,"midi":37,"time":44.7972525,"velocity":0.2283464566929134},{"duration":0.5827696875000044,"midi":45,"time":44.7972525,"velocity":0.2283464566929134},{"duration":1.62162,"midi":40,"time":45.40536,"velocity":0.2283464566929134},{"duration":1.62162,"midi":44,"time":45.40536,"velocity":0.2283464566929134},{"duration":1.62162,"midi":35,"time":45.40536,"velocity":0.2283464566929134},{"duration":0.10135125000000045,"midi":68,"time":45.810765,"velocity":0.2283464566929134},{"duration":0.10135125000000045,"midi":68,"time":46.013467500000004,"velocity":0.2283464566929134},{"duration":0.10135125000000045,"midi":71,"time":46.4188725,"velocity":0.2283464566929134},{"duration":0.4054050000000018,"midi":66,"time":46.8242775,"velocity":0.2283464566929134},{"duration":0.8108099999999965,"midi":35,"time":47.02698,"velocity":0.2283464566929134},{"duration":1.62162,"midi":39,"time":47.02698,"velocity":0.2283464566929134},{"duration":1.62162,"midi":42,"time":47.02698,"velocity":0.2283464566929134},{"duration":0.8108100000000036,"midi":33,"time":47.83779,"velocity":0.2283464566929134},{"duration":1.62162,"midi":38,"time":48.6486,"velocity":0.2283464566929134},{"duration":1.62162,"midi":42,"time":48.6486,"velocity":0.2283464566929134},{"duration":1.62162,"midi":33,"time":48.6486,"velocity":0.2283464566929134},{"duration":0.10135125000000045,"midi":66,"time":48.8513025,"velocity":0.2283464566929134},{"duration":0.2027025000000009,"midi":65,"time":49.256707500000005,"velocity":0.2283464566929134},{"duration":0.10135124999999334,"midi":66,"time":49.459410000000005,"velocity":0.2283464566929134},{"duration":0.10135125000000045,"midi":68,"time":49.6621125,"velocity":0.2283464566929134},{"duration":0.10135125000000045,"midi":69,"time":49.864815,"velocity":0.2283464566929134},{"duration":0.10135125000000045,"midi":71,"time":50.0675175,"velocity":0.2283464566929134},{"duration":0.8108099999999965,"midi":49,"time":50.27022,"velocity":0.2283464566929134},{"duration":1.0135124999999974,"midi":44,"time":50.27022,"velocity":0.2283464566929134},{"duration":0.8108099999999965,"midi":73,"time":50.27022,"velocity":0.2283464566929134},{"duration":1.0135124999999974,"midi":38,"time":50.27022,"velocity":0.2283464566929134},{"duration":0.8108099999999965,"midi":42,"time":50.27022,"velocity":0.2283464566929134},{"duration":0.2027025000000009,"midi":41,"time":51.08103,"velocity":0.2283464566929134},{"duration":0.2027025000000009,"midi":72,"time":51.08103,"velocity":0.2283464566929134},{"duration":0.2027025000000009,"midi":48,"time":51.08103,"velocity":0.2283464566929134},{"duration":0.10135125000000045,"midi":71,"time":51.89184,"velocity":0.2283464566929134},{"duration":0.10135125000000045,"midi":47,"time":51.89184,"velocity":0.2283464566929134},{"duration":0.10135125000000045,"midi":40,"time":51.89184,"velocity":0.2283464566929134},{"duration":0.10135125000000045,"midi":44,"time":51.89184,"velocity":0.2283464566929134},{"duration":0.10135125000000045,"midi":47,"time":52.0945425,"velocity":0.2283464566929134},{"duration":0.10135125000000045,"midi":71,"time":52.0945425,"velocity":0.2283464566929134},{"duration":0.10135125000000045,"midi":40,"time":52.0945425,"velocity":0.2283464566929134},{"duration":0.10135125000000045,"midi":44,"time":52.0945425,"velocity":0.2283464566929134},{"duration":0.10135125000000045,"midi":71,"time":52.297245000000004,"velocity":0.2283464566929134},{"duration":0.10135125000000045,"midi":47,"time":52.297245000000004,"velocity":0.2283464566929134},{"duration":0.10135125000000045,"midi":40,"time":52.297245000000004,"velocity":0.2283464566929134},{"duration":0.10135125000000045,"midi":44,"time":52.297245000000004,"velocity":0.2283464566929134},{"duration":0.10135125000000045,"midi":40,"time":52.499947500000005,"velocity":0.2283464566929134},{"duration":0.10135125000000045,"midi":47,"time":52.499947500000005,"velocity":0.2283464566929134},{"duration":0.10135125000000045,"midi":44,"time":52.499947500000005,"velocity":0.2283464566929134},{"duration":0.10135125000000045,"midi":71,"time":52.499947500000005,"velocity":0.2283464566929134},{"duration":0.10135124999999334,"midi":44,"time":52.702650000000006,"velocity":0.2283464566929134},{"duration":0.10135124999999334,"midi":71,"time":52.702650000000006,"velocity":0.2283464566929134},{"duration":0.10135124999999334,"midi":40,"time":52.702650000000006,"velocity":0.2283464566929134},{"duration":0.10135124999999334,"midi":47,"time":52.702650000000006,"velocity":0.2283464566929134},{"duration":0.10135125000000045,"midi":44,"time":53.918865000000004,"velocity":0.2283464566929134},{"duration":0.10135125000000045,"midi":71,"time":53.918865000000004,"velocity":0.2283464566929134},{"duration":0.10135125000000045,"midi":47,"time":53.918865000000004,"velocity":0.2283464566929134},{"duration":0.10135125000000045,"midi":40,"time":53.918865000000004,"velocity":0.2283464566929134},{"duration":0.10135125000000045,"midi":71,"time":54.121567500000005,"velocity":0.2283464566929134},{"duration":0.10135125000000045,"midi":40,"time":54.121567500000005,"velocity":0.2283464566929134},{"duration":0.10135125000000045,"midi":44,"time":54.121567500000005,"velocity":0.2283464566929134},{"duration":0.10135125000000045,"midi":47,"time":54.121567500000005,"velocity":0.2283464566929134},{"duration":0.10135125000000045,"midi":71,"time":54.32427,"velocity":0.2283464566929134},{"duration":0.10135125000000045,"midi":40,"time":54.32427,"velocity":0.2283464566929134},{"duration":0.10135125000000045,"midi":47,"time":54.32427,"velocity":0.2283464566929134},{"duration":0.10135125000000045,"midi":44,"time":54.32427,"velocity":0.2283464566929134},{"duration":0.10135125000000045,"midi":71,"time":54.5269725,"velocity":0.2283464566929134},{"duration":0.10135125000000045,"midi":44,"time":54.5269725,"velocity":0.2283464566929134},{"duration":0.10135125000000045,"midi":40,"time":54.5269725,"velocity":0.2283464566929134},{"duration":0.10135125000000045,"midi":47,"time":54.5269725,"velocity":0.2283464566929134},{"duration":0.10135125000000045,"midi":47,"time":54.729675,"velocity":0.2283464566929134},{"duration":0.10135125000000045,"midi":44,"time":54.729675,"velocity":0.2283464566929134},{"duration":0.10135125000000045,"midi":71,"time":54.729675,"velocity":0.2283464566929134},{"duration":0.10135125000000045,"midi":40,"time":54.729675,"velocity":0.2283464566929134},{"duration":0.10135125000000045,"midi":35,"time":55.13508,"velocity":0.2283464566929134},{"duration":0.10135125000000045,"midi":40,"time":55.13508,"velocity":0.2283464566929134},{"duration":0.10135125000000045,"midi":43,"time":55.13508,"velocity":0.2283464566929134},{"duration":0.10135125000000045,"midi":71,"time":55.13508,"velocity":0.2283464566929134},{"duration":0.10135125000000045,"midi":47,"time":55.13508,"velocity":0.2283464566929134},{"duration":0.10135125000000045,"midi":43,"time":55.3377825,"velocity":0.2283464566929134},{"duration":0.10135125000000045,"midi":47,"time":55.3377825,"velocity":0.2283464566929134},{"duration":0.10135125000000045,"midi":40,"time":55.3377825,"velocity":0.2283464566929134},{"duration":0.10135125000000045,"midi":35,"time":55.3377825,"velocity":0.2283464566929134},{"duration":0.10135125000000045,"midi":71,"time":55.3377825,"velocity":0.2283464566929134},{"duration":0.10135125000000045,"midi":71,"time":55.540485000000004,"velocity":0.2283464566929134},{"duration":0.10135125000000045,"midi":47,"time":55.540485000000004,"velocity":0.2283464566929134},{"duration":0.10135125000000045,"midi":35,"time":55.540485000000004,"velocity":0.2283464566929134},{"duration":0.10135125000000045,"midi":43,"time":55.540485000000004,"velocity":0.2283464566929134},{"duration":0.10135125000000045,"midi":40,"time":55.540485000000004,"velocity":0.2283464566929134},{"duration":0.10135125000000045,"midi":43,"time":55.743187500000005,"velocity":0.2283464566929134},{"duration":0.10135125000000045,"midi":71,"time":55.743187500000005,"velocity":0.2283464566929134},{"duration":0.10135125000000045,"midi":35,"time":55.743187500000005,"velocity":0.2283464566929134},{"duration":0.10135125000000045,"midi":47,"time":55.743187500000005,"velocity":0.2283464566929134},{"duration":0.10135125000000045,"midi":40,"time":55.743187500000005,"velocity":0.2283464566929134},{"duration":0.10135124999999334,"midi":47,"time":55.945890000000006,"velocity":0.2283464566929134},{"duration":0.10135124999999334,"midi":43,"time":55.945890000000006,"velocity":0.2283464566929134},{"duration":0.10135124999999334,"midi":35,"time":55.945890000000006,"velocity":0.2283464566929134},{"duration":0.10135124999999334,"midi":71,"time":55.945890000000006,"velocity":0.2283464566929134},{"duration":0.10135124999999334,"midi":40,"time":55.945890000000006,"velocity":0.2283464566929134},{"duration":0.06756750000000267,"midi":40,"time":57.56751,"velocity":0.2283464566929134},{"duration":0.06756750000000267,"midi":47,"time":57.56751,"velocity":0.2283464566929134},{"duration":0.06756750000000267,"midi":35,"time":57.56751,"velocity":0.2283464566929134},{"duration":0.06756750000000267,"midi":43,"time":57.56751,"velocity":0.2283464566929134},{"duration":0.06756750000000267,"midi":71,"time":57.56751,"velocity":0.2283464566929134},{"duration":0.06756750000000267,"midi":43,"time":57.66886125,"velocity":0.2283464566929134},{"duration":0.06756750000000267,"midi":35,"time":57.66886125,"velocity":0.2283464566929134},{"duration":0.06756750000000267,"midi":71,"time":57.66886125,"velocity":0.2283464566929134},{"duration":0.06756750000000267,"midi":47,"time":57.66886125,"velocity":0.2283464566929134},{"duration":0.06756750000000267,"midi":40,"time":57.66886125,"velocity":0.2283464566929134},{"duration":0.06756749999999556,"midi":47,"time":57.7702125,"velocity":0.2283464566929134},{"duration":0.06756749999999556,"midi":35,"time":57.7702125,"velocity":0.2283464566929134},{"duration":0.06756749999999556,"midi":71,"time":57.7702125,"velocity":0.2283464566929134},{"duration":0.06756749999999556,"midi":43,"time":57.7702125,"velocity":0.2283464566929134},{"duration":0.06756749999999556,"midi":40,"time":57.7702125,"velocity":0.2283464566929134},{"duration":0.06756749999999556,"midi":40,"time":57.87156375,"velocity":0.2283464566929134},{"duration":0.06756749999999556,"midi":43,"time":57.87156375,"velocity":0.2283464566929134},{"duration":0.06756749999999556,"midi":71,"time":57.87156375,"velocity":0.2283464566929134},{"duration":0.06756749999999556,"midi":35,"time":57.87156375,"velocity":0.2283464566929134},{"duration":0.06756749999999556,"midi":47,"time":57.87156375,"velocity":0.2283464566929134},{"duration":0.06756749999999556,"midi":71,"time":57.972915,"velocity":0.2283464566929134},{"duration":0.06756749999999556,"midi":47,"time":57.972915,"velocity":0.2283464566929134},{"duration":0.06756749999999556,"midi":43,"time":57.972915,"velocity":0.2283464566929134},{"duration":0.06756749999999556,"midi":40,"time":57.972915,"velocity":0.2283464566929134},{"duration":0.06756749999999556,"midi":35,"time":57.972915,"velocity":0.2283464566929134},{"duration":0.10135125000000045,"midi":47,"time":58.5810225,"velocity":0.2283464566929134},{"duration":0.10135125000000045,"midi":57,"time":58.5810225,"velocity":0.2283464566929134},{"duration":0.10135125000000045,"midi":50,"time":58.5810225,"velocity":0.2283464566929134},{"duration":0.10135125000000045,"midi":50,"time":58.783725000000004,"velocity":0.2283464566929134},{"duration":0.10135125000000045,"midi":47,"time":58.783725000000004,"velocity":0.2283464566929134},{"duration":0.10135125000000045,"midi":57,"time":58.783725000000004,"velocity":0.2283464566929134},{"duration":0.10135124999999334,"midi":47,"time":59.189130000000006,"velocity":0.2283464566929134},{"duration":0.10135124999999334,"midi":50,"time":59.189130000000006,"velocity":0.2283464566929134},{"duration":0.10135124999999334,"midi":55,"time":59.189130000000006,"velocity":0.2283464566929134},{"duration":0.10135125000000045,"midi":50,"time":59.3918325,"velocity":0.2283464566929134},{"duration":0.10135125000000045,"midi":47,"time":59.3918325,"velocity":0.2283464566929134},{"duration":0.10135125000000045,"midi":55,"time":59.3918325,"velocity":0.2283464566929134},{"duration":0.10135125000000045,"midi":50,"time":59.7972375,"velocity":0.2283464566929134},{"duration":0.10135125000000045,"midi":47,"time":59.7972375,"velocity":0.2283464566929134},{"duration":0.10135125000000045,"midi":54,"time":59.7972375,"velocity":0.2283464566929134},{"duration":0.10135125000000045,"midi":54,"time":59.99994,"velocity":0.2283464566929134},{"duration":0.10135125000000045,"midi":50,"time":59.99994,"velocity":0.2283464566929134},{"duration":0.10135125000000045,"midi":47,"time":59.99994,"velocity":0.2283464566929134},{"duration":0.10135125000000045,"midi":50,"time":60.405345000000004,"velocity":0.2283464566929134},{"duration":0.10135125000000045,"midi":47,"time":60.405345000000004,"velocity":0.2283464566929134},{"duration":0.10135125000000045,"midi":52,"time":60.405345000000004,"velocity":0.2283464566929134},{"duration":0.10135125000000045,"midi":50,"time":60.608047500000005,"velocity":0.2283464566929134},{"duration":0.10135125000000045,"midi":47,"time":60.608047500000005,"velocity":0.2283464566929134},{"duration":0.10135125000000045,"midi":52,"time":60.608047500000005,"velocity":0.2283464566929134},{"duration":0.10135125000000045,"midi":57,"time":61.8242625,"velocity":0.2283464566929134},{"duration":0.10135125000000045,"midi":47,"time":61.8242625,"velocity":0.2283464566929134},{"duration":0.10135125000000045,"midi":50,"time":61.8242625,"velocity":0.2283464566929134},{"duration":0.10135125000000045,"midi":57,"time":62.026965000000004,"velocity":0.2283464566929134},{"duration":0.10135125000000045,"midi":50,"time":62.026965000000004,"velocity":0.2283464566929134},{"duration":0.10135125000000045,"midi":47,"time":62.026965000000004,"velocity":0.2283464566929134},{"duration":0.10135124999999334,"midi":55,"time":62.432370000000006,"velocity":0.2283464566929134},{"duration":0.10135124999999334,"midi":50,"time":62.432370000000006,"velocity":0.2283464566929134},{"duration":0.10135124999999334,"midi":47,"time":62.432370000000006,"velocity":0.2283464566929134},{"duration":0.10135125000000045,"midi":50,"time":62.6350725,"velocity":0.2283464566929134},{"duration":0.10135125000000045,"midi":47,"time":62.6350725,"velocity":0.2283464566929134},{"duration":0.10135125000000045,"midi":55,"time":62.6350725,"velocity":0.2283464566929134},{"duration":0.10135125000000045,"midi":50,"time":63.0404775,"velocity":0.2283464566929134},{"duration":0.10135125000000045,"midi":47,"time":63.0404775,"velocity":0.2283464566929134},{"duration":0.10135125000000045,"midi":54,"time":63.0404775,"velocity":0.2283464566929134},{"duration":0.10135125000000045,"midi":47,"time":63.24318,"velocity":0.2283464566929134},{"duration":0.10135125000000045,"midi":54,"time":63.24318,"velocity":0.2283464566929134},{"duration":0.10135125000000045,"midi":50,"time":63.24318,"velocity":0.2283464566929134},{"duration":0.10135125000000045,"midi":47,"time":63.648585000000004,"velocity":0.2283464566929134},{"duration":0.10135125000000045,"midi":52,"time":63.648585000000004,"velocity":0.2283464566929134},{"duration":0.10135125000000045,"midi":50,"time":63.648585000000004,"velocity":0.2283464566929134},{"duration":0.10135125000000045,"midi":50,"time":63.851287500000005,"velocity":0.2283464566929134},{"duration":0.10135125000000045,"midi":47,"time":63.851287500000005,"velocity":0.2283464566929134},{"duration":0.10135125000000045,"midi":52,"time":63.851287500000005,"velocity":0.2283464566929134},{"duration":0.10135124999999334,"midi":55,"time":65.0675025,"velocity":0.2283464566929134},{"duration":0.10135124999999334,"midi":52,"time":65.0675025,"velocity":0.2283464566929134},{"duration":0.10135124999999334,"midi":62,"time":65.0675025,"velocity":0.2283464566929134},{"duration":0.10135124999999334,"midi":55,"time":65.270205,"velocity":0.2283464566929134},{"duration":0.10135124999999334,"midi":62,"time":65.270205,"velocity":0.2283464566929134},{"duration":0.10135124999999334,"midi":52,"time":65.270205,"velocity":0.2283464566929134},{"duration":0.10135124999999334,"midi":52,"time":65.67561,"velocity":0.2283464566929134},{"duration":0.10135124999999334,"midi":55,"time":65.67561,"velocity":0.2283464566929134},{"duration":0.10135124999999334,"midi":60,"time":65.67561,"velocity":0.2283464566929134},{"duration":0.10135124999999334,"midi":60,"time":65.8783125,"velocity":0.2283464566929134},{"duration":0.10135124999999334,"midi":52,"time":65.8783125,"velocity":0.2283464566929134},{"duration":0.10135124999999334,"midi":55,"time":65.8783125,"velocity":0.2283464566929134},{"duration":0.10135124999999334,"midi":55,"time":66.28371750000001,"velocity":0.2283464566929134},{"duration":0.10135124999999334,"midi":52,"time":66.28371750000001,"velocity":0.2283464566929134},{"duration":0.10135124999999334,"midi":59,"time":66.28371750000001,"velocity":0.2283464566929134},{"duration":0.10135124999999334,"midi":52,"time":66.48642000000001,"velocity":0.2283464566929134},{"duration":0.10135124999999334,"midi":59,"time":66.48642000000001,"velocity":0.2283464566929134},{"duration":0.10135124999999334,"midi":55,"time":66.48642000000001,"velocity":0.2283464566929134},{"duration":0.10135125000000755,"midi":57,"time":66.891825,"velocity":0.2283464566929134},{"duration":0.10135125000000755,"midi":55,"time":66.891825,"velocity":0.2283464566929134},{"duration":0.10135125000000755,"midi":52,"time":66.891825,"velocity":0.2283464566929134},{"duration":0.10135125000000755,"midi":55,"time":67.0945275,"velocity":0.2283464566929134},{"duration":0.10135125000000755,"midi":52,"time":67.0945275,"velocity":0.2283464566929134},{"duration":0.10135125000000755,"midi":57,"time":67.0945275,"velocity":0.2283464566929134},{"duration":0.10135124999999334,"midi":55,"time":68.3107425,"velocity":0.2283464566929134},{"duration":0.10135124999999334,"midi":51,"time":68.3107425,"velocity":0.2283464566929134},{"duration":0.10135124999999334,"midi":62,"time":68.3107425,"velocity":0.2283464566929134},{"duration":0.10135124999999334,"midi":62,"time":68.513445,"velocity":0.2283464566929134},{"duration":0.10135124999999334,"midi":55,"time":68.513445,"velocity":0.2283464566929134},{"duration":0.10135124999999334,"midi":51,"time":68.513445,"velocity":0.2283464566929134},{"duration":0.10135124999999334,"midi":55,"time":68.91885,"velocity":0.2283464566929134},{"duration":0.10135124999999334,"midi":51,"time":68.91885,"velocity":0.2283464566929134},{"duration":0.10135124999999334,"midi":60,"time":68.91885,"velocity":0.2283464566929134},{"duration":0.10135124999999334,"midi":55,"time":69.1215525,"velocity":0.2283464566929134},{"duration":0.10135124999999334,"midi":51,"time":69.1215525,"velocity":0.2283464566929134},{"duration":0.10135124999999334,"midi":60,"time":69.1215525,"velocity":0.2283464566929134},{"duration":0.10135124999999334,"midi":51,"time":69.52695750000001,"velocity":0.2283464566929134},{"duration":0.10135124999999334,"midi":58,"time":69.52695750000001,"velocity":0.2283464566929134},{"duration":0.10135124999999334,"midi":55,"time":69.52695750000001,"velocity":0.2283464566929134},{"duration":0.10135125000000755,"midi":55,"time":69.72966,"velocity":0.2283464566929134},{"duration":0.10135125000000755,"midi":51,"time":69.72966,"velocity":0.2283464566929134},{"duration":0.10135125000000755,"midi":58,"time":69.72966,"velocity":0.2283464566929134},{"duration":0.10135125000000755,"midi":57,"time":70.135065,"velocity":0.2283464566929134},{"duration":0.10135125000000755,"midi":55,"time":70.135065,"velocity":0.2283464566929134},{"duration":0.10135125000000755,"midi":51,"time":70.135065,"velocity":0.2283464566929134},{"duration":0.10135125000000755,"midi":51,"time":70.3377675,"velocity":0.2283464566929134},{"duration":0.10135125000000755,"midi":55,"time":70.3377675,"velocity":0.2283464566929134},{"duration":0.10135125000000755,"midi":57,"time":70.3377675,"velocity":0.2283464566929134},{"duration":0.6081075000000027,"midi":39,"time":70.7431725,"velocity":0.2283464566929134},{"duration":0.6081075000000027,"midi":43,"time":70.7431725,"velocity":0.2283464566929134},{"duration":1.4189175000000063,"midi":38,"time":71.35128,"velocity":0.2283464566929134},{"duration":1.4189175000000063,"midi":42,"time":71.35128,"velocity":0.2283464566929134},{"duration":0.30405374999999424,"midi":54,"time":72.16209,"velocity":0.2283464566929134},{"duration":0.10135124999999334,"midi":57,"time":72.56749500000001,"velocity":0.2283464566929134},{"duration":0.8108099999999894,"midi":52,"time":72.77019750000001,"velocity":0.2283464566929134},{"duration":1.8243224999999939,"midi":37,"time":72.77019750000001,"velocity":0.2283464566929134},{"duration":3.445942499999987,"midi":40,"time":72.77019750000001,"velocity":0.2283464566929134},{"duration":1.621619999999993,"midi":36,"time":74.59452,"velocity":0.2283464566929134},{"duration":0.2027025000000009,"midi":51,"time":75.2026275,"velocity":0.2283464566929134},{"duration":0.10135124999999334,"midi":52,"time":75.40533,"velocity":0.2283464566929134},{"duration":0.10135124999999334,"midi":54,"time":75.60803250000001,"velocity":0.2283464566929134},{"duration":0.10135124999999334,"midi":55,"time":75.81073500000001,"velocity":0.2283464566929134},{"duration":0.10135124999999334,"midi":57,"time":76.01343750000001,"velocity":0.2283464566929134},{"duration":1.6216200000000072,"midi":41,"time":76.21614,"velocity":0.2283464566929134},{"duration":1.6216200000000072,"midi":38,"time":76.21614,"velocity":0.2283464566929134},{"duration":0.8108100000000036,"midi":59,"time":76.21614,"velocity":0.2283464566929134},{"duration":0.10135125000000755,"midi":60,"time":77.02695,"velocity":0.2283464566929134},{"duration":0.10135124999999334,"midi":59,"time":77.83776,"velocity":0.2283464566929134},{"duration":0.10135124999999334,"midi":43,"time":78.243165,"velocity":0.2283464566929134},{"duration":0.10135124999999334,"midi":52,"time":78.243165,"velocity":0.2283464566929134},{"duration":0.10135124999999334,"midi":48,"time":78.243165,"velocity":0.2283464566929134},{"duration":0.10135124999999334,"midi":52,"time":78.4458675,"velocity":0.2283464566929134},{"duration":0.10135124999999334,"midi":43,"time":78.85127250000001,"velocity":0.2283464566929134},{"duration":0.10135124999999334,"midi":48,"time":78.85127250000001,"velocity":0.2283464566929134},{"duration":0.10135124999999334,"midi":59,"time":78.85127250000001,"velocity":0.2283464566929134},{"duration":0.4054049999999876,"midi":58,"time":79.25667750000001,"velocity":0.2283464566929134},{"duration":0.10135125000000755,"midi":42,"time":79.864785,"velocity":0.2283464566929134},{"duration":0.10135125000000755,"midi":51,"time":79.864785,"velocity":0.2283464566929134},{"duration":0.10135125000000755,"midi":48,"time":79.864785,"velocity":0.2283464566929134},{"duration":0.10135125000000755,"midi":51,"time":80.0674875,"velocity":0.2283464566929134},{"duration":0.10135125000000755,"midi":42,"time":80.4728925,"velocity":0.2283464566929134},{"duration":0.10135125000000755,"midi":48,"time":80.4728925,"velocity":0.2283464566929134},{"duration":0.10135125000000755,"midi":58,"time":80.4728925,"velocity":0.2283464566929134},{"duration":1.0135125000000045,"midi":57,"time":80.8782975,"velocity":0.2283464566929134},{"duration":0.10135124999999334,"midi":47,"time":81.486405,"velocity":0.2283464566929134},{"duration":0.10135124999999334,"midi":50,"time":81.486405,"velocity":0.2283464566929134},{"duration":0.10135124999999334,"midi":42,"time":81.486405,"velocity":0.2283464566929134},{"duration":0.10135124999999334,"midi":47,"time":82.09451250000001,"velocity":0.2283464566929134},{"duration":0.10135124999999334,"midi":42,"time":82.09451250000001,"velocity":0.2283464566929134},{"duration":0.10135124999999334,"midi":50,"time":82.09451250000001,"velocity":0.2283464566929134},{"duration":0.10135125000000755,"midi":45,"time":83.108025,"velocity":0.2283464566929134},{"duration":0.10135125000000755,"midi":49,"time":83.108025,"velocity":0.2283464566929134},{"duration":0.10135125000000755,"midi":52,"time":83.108025,"velocity":0.2283464566929134},{"duration":0.10135125000000755,"midi":45,"time":83.3107275,"velocity":0.2283464566929134},{"duration":0.10135125000000755,"midi":52,"time":83.3107275,"velocity":0.2283464566929134},{"duration":0.10135125000000755,"midi":49,"time":83.3107275,"velocity":0.2283464566929134},{"duration":0.10135125000000755,"midi":48,"time":83.51343,"velocity":0.2283464566929134},{"duration":0.10135125000000755,"midi":45,"time":83.51343,"velocity":0.2283464566929134},{"duration":0.10135125000000755,"midi":51,"time":83.51343,"velocity":0.2283464566929134},{"duration":0.10135125000000755,"midi":48,"time":83.7161325,"velocity":0.2283464566929134},{"duration":0.10135125000000755,"midi":45,"time":83.7161325,"velocity":0.2283464566929134},{"duration":0.10135125000000755,"midi":51,"time":83.7161325,"velocity":0.2283464566929134},{"duration":0.10135125000000755,"midi":51,"time":83.918835,"velocity":0.2283464566929134},{"duration":0.10135125000000755,"midi":48,"time":83.918835,"velocity":0.2283464566929134},{"duration":0.10135125000000755,"midi":45,"time":83.918835,"velocity":0.2283464566929134},{"duration":0.10135124999999334,"midi":44,"time":84.32424,"velocity":0.2283464566929134},{"duration":0.10135124999999334,"midi":51,"time":84.32424,"velocity":0.2283464566929134},{"duration":0.10135124999999334,"midi":47,"time":84.32424,"velocity":0.2283464566929134},{"duration":0.10135124999999334,"midi":63,"time":84.5269425,"velocity":0.2283464566929134},{"duration":0.10135124999999334,"midi":56,"time":84.5269425,"velocity":0.2283464566929134},{"duration":0.10135124999999334,"midi":59,"time":84.5269425,"velocity":0.2283464566929134},{"duration":0.10135124999999334,"midi":66,"time":84.5269425,"velocity":0.2283464566929134},{"duration":0.10135124999999334,"midi":66,"time":84.729645,"velocity":0.2283464566929134},{"duration":0.10135124999999334,"midi":56,"time":84.729645,"velocity":0.2283464566929134},{"duration":0.10135124999999334,"midi":63,"time":84.729645,"velocity":0.2283464566929134},{"duration":0.10135124999999334,"midi":59,"time":84.729645,"velocity":0.2283464566929134},{"duration":0.10135124999999334,"midi":56,"time":85.13505,"velocity":0.2283464566929134},{"duration":0.10135124999999334,"midi":64,"time":85.13505,"velocity":0.2283464566929134},{"duration":0.10135124999999334,"midi":59,"time":85.13505,"velocity":0.2283464566929134},{"duration":0.10135124999999334,"midi":56,"time":85.33775250000001,"velocity":0.2283464566929134},{"duration":0.10135124999999334,"midi":59,"time":85.33775250000001,"velocity":0.2283464566929134},{"duration":0.10135124999999334,"midi":64,"time":85.33775250000001,"velocity":0.2283464566929134},{"duration":0.10135124999999334,"midi":56,"time":85.74315750000001,"velocity":0.2283464566929134},{"duration":0.10135124999999334,"midi":63,"time":85.74315750000001,"velocity":0.2283464566929134},{"duration":0.10135124999999334,"midi":59,"time":85.74315750000001,"velocity":0.2283464566929134},{"duration":0.10135124999999334,"midi":59,"time":85.94586000000001,"velocity":0.2283464566929134},{"duration":0.10135124999999334,"midi":63,"time":85.94586000000001,"velocity":0.2283464566929134},{"duration":0.10135124999999334,"midi":56,"time":85.94586000000001,"velocity":0.2283464566929134},{"duration":0.10135125000000755,"midi":59,"time":86.351265,"velocity":0.2283464566929134},{"duration":0.10135125000000755,"midi":56,"time":86.351265,"velocity":0.2283464566929134},{"duration":0.10135125000000755,"midi":61,"time":86.351265,"velocity":0.2283464566929134},{"duration":0.10135125000000755,"midi":56,"time":86.5539675,"velocity":0.2283464566929134},{"duration":0.10135125000000755,"midi":61,"time":86.5539675,"velocity":0.2283464566929134},{"duration":0.10135125000000755,"midi":59,"time":86.5539675,"velocity":0.2283464566929134},{"duration":0.5827696875000044,"midi":47,"time":86.9593725,"velocity":0.2283464566929134},{"duration":0.5827696875000044,"midi":44,"time":86.9593725,"velocity":0.2283464566929134},{"duration":0.5827696875000044,"midi":42,"time":86.9593725,"velocity":0.2283464566929134},{"duration":0.5827696875000044,"midi":39,"time":86.9593725,"velocity":0.2283464566929134},{"duration":0.10135124999999334,"midi":42,"time":87.56748,"velocity":0.2283464566929134},{"duration":0.10135124999999334,"midi":44,"time":87.56748,"velocity":0.2283464566929134},{"duration":0.10135124999999334,"midi":39,"time":87.56748,"velocity":0.2283464566929134},{"duration":0.10135124999999334,"midi":35,"time":87.56748,"velocity":0.2283464566929134},{"duration":0.10135124999999334,"midi":56,"time":87.7701825,"velocity":0.2283464566929134},{"duration":0.10135124999999334,"midi":66,"time":87.7701825,"velocity":0.2283464566929134},{"duration":0.10135124999999334,"midi":63,"time":87.7701825,"velocity":0.2283464566929134},{"duration":0.10135124999999334,"midi":59,"time":87.7701825,"velocity":0.2283464566929134},{"duration":0.10135124999999334,"midi":59,"time":87.972885,"velocity":0.2283464566929134},{"duration":0.10135124999999334,"midi":56,"time":87.972885,"velocity":0.2283464566929134},{"duration":0.10135124999999334,"midi":63,"time":87.972885,"velocity":0.2283464566929134},{"duration":0.10135124999999334,"midi":66,"time":87.972885,"velocity":0.2283464566929134},{"duration":0.10135124999999334,"midi":56,"time":88.37829,"velocity":0.2283464566929134},{"duration":0.10135124999999334,"midi":59,"time":88.37829,"velocity":0.2283464566929134},{"duration":0.10135124999999334,"midi":64,"time":88.37829,"velocity":0.2283464566929134},{"duration":0.10135124999999334,"midi":59,"time":88.58099250000001,"velocity":0.2283464566929134},{"duration":0.10135124999999334,"midi":56,"time":88.58099250000001,"velocity":0.2283464566929134},{"duration":0.10135124999999334,"midi":64,"time":88.58099250000001,"velocity":0.2283464566929134},{"duration":0.10135124999999334,"midi":56,"time":88.98639750000001,"velocity":0.2283464566929134},{"duration":0.10135124999999334,"midi":63,"time":88.98639750000001,"velocity":0.2283464566929134},{"duration":0.10135124999999334,"midi":59,"time":88.98639750000001,"velocity":0.2283464566929134},{"duration":0.10135125000000755,"midi":59,"time":89.1891,"velocity":0.2283464566929134},{"duration":0.10135125000000755,"midi":56,"time":89.1891,"velocity":0.2283464566929134},{"duration":0.10135125000000755,"midi":63,"time":89.1891,"velocity":0.2283464566929134},{"duration":0.10135125000000755,"midi":56,"time":89.594505,"velocity":0.2283464566929134},{"duration":0.10135125000000755,"midi":59,"time":89.594505,"velocity":0.2283464566929134},{"duration":0.10135125000000755,"midi":61,"time":89.594505,"velocity":0.2283464566929134},{"duration":0.10135125000000755,"midi":61,"time":89.7972075,"velocity":0.2283464566929134},{"duration":0.10135125000000755,"midi":56,"time":89.7972075,"velocity":0.2283464566929134},{"duration":0.10135125000000755,"midi":59,"time":89.7972075,"velocity":0.2283464566929134},{"duration":0.5827696875000044,"midi":39,"time":90.2026125,"velocity":0.2283464566929134},{"duration":0.5827696875000044,"midi":47,"time":90.2026125,"velocity":0.2283464566929134},{"duration":0.5827696875000044,"midi":42,"time":90.2026125,"velocity":0.2283464566929134},{"duration":0.5827696875000044,"midi":44,"time":90.2026125,"velocity":0.2283464566929134},{"duration":0.10135124999999334,"midi":38,"time":90.81072,"velocity":0.2283464566929134},{"duration":0.10135124999999334,"midi":43,"time":90.81072,"velocity":0.2283464566929134},{"duration":0.10135124999999334,"midi":35,"time":90.81072,"velocity":0.2283464566929134},{"duration":0.10135124999999334,"midi":40,"time":90.81072,"velocity":0.2283464566929134},{"duration":0.10135124999999334,"midi":66,"time":91.0134225,"velocity":0.2283464566929134},{"duration":0.10135124999999334,"midi":62,"time":91.0134225,"velocity":0.2283464566929134},{"duration":0.10135124999999334,"midi":55,"time":91.0134225,"velocity":0.2283464566929134},{"duration":0.10135124999999334,"midi":59,"time":91.0134225,"velocity":0.2283464566929134},{"duration":0.10135124999999334,"midi":59,"time":91.216125,"velocity":0.2283464566929134},{"duration":0.10135124999999334,"midi":55,"time":91.216125,"velocity":0.2283464566929134},{"duration":0.10135124999999334,"midi":66,"time":91.216125,"velocity":0.2283464566929134},{"duration":0.10135124999999334,"midi":62,"time":91.216125,"velocity":0.2283464566929134},{"duration":0.10135124999999334,"midi":64,"time":91.62153,"velocity":0.2283464566929134},{"duration":0.10135124999999334,"midi":59,"time":91.62153,"velocity":0.2283464566929134},{"duration":0.10135124999999334,"midi":55,"time":91.62153,"velocity":0.2283464566929134},{"duration":0.10135124999999334,"midi":59,"time":91.82423250000001,"velocity":0.2283464566929134},{"duration":0.10135124999999334,"midi":64,"time":91.82423250000001,"velocity":0.2283464566929134},{"duration":0.10135124999999334,"midi":55,"time":91.82423250000001,"velocity":0.2283464566929134},{"duration":0.10135124999999334,"midi":55,"time":92.22963750000001,"velocity":0.2283464566929134},{"duration":0.10135124999999334,"midi":62,"time":92.22963750000001,"velocity":0.2283464566929134},{"duration":0.10135124999999334,"midi":59,"time":92.22963750000001,"velocity":0.2283464566929134},{"duration":0.10135124999999334,"midi":55,"time":92.43234000000001,"velocity":0.2283464566929134},{"duration":0.10135124999999334,"midi":62,"time":92.43234000000001,"velocity":0.2283464566929134},{"duration":0.10135124999999334,"midi":59,"time":92.43234000000001,"velocity":0.2283464566929134},{"duration":0.10135125000000755,"midi":55,"time":92.837745,"velocity":0.2283464566929134},{"duration":0.10135125000000755,"midi":61,"time":92.837745,"velocity":0.2283464566929134},{"duration":0.10135125000000755,"midi":59,"time":92.837745,"velocity":0.2283464566929134},{"duration":0.10135125000000755,"midi":59,"time":93.0404475,"velocity":0.2283464566929134},{"duration":0.10135125000000755,"midi":55,"time":93.0404475,"velocity":0.2283464566929134},{"duration":0.10135125000000755,"midi":61,"time":93.0404475,"velocity":0.2283464566929134},{"duration":0.5827696875000044,"midi":40,"time":93.4458525,"velocity":0.2283464566929134},{"duration":0.5827696875000044,"midi":42,"time":93.4458525,"velocity":0.2283464566929134},{"duration":0.5827696875000044,"midi":37,"time":93.4458525,"velocity":0.2283464566929134},{"duration":0.5827696875000044,"midi":45,"time":93.4458525,"velocity":0.2283464566929134},{"duration":0.10135124999999334,"midi":38,"time":94.05396,"velocity":0.2283464566929134},{"duration":0.10135124999999334,"midi":42,"time":94.05396,"velocity":0.2283464566929134},{"duration":0.10135124999999334,"midi":35,"time":94.05396,"velocity":0.2283464566929134},{"duration":0.10135124999999334,"midi":33,"time":94.05396,"velocity":0.2283464566929134},{"duration":0.10135124999999334,"midi":64,"time":94.2566625,"velocity":0.2283464566929134},{"duration":0.10135124999999334,"midi":54,"time":94.2566625,"velocity":0.2283464566929134},{"duration":0.10135124999999334,"midi":57,"time":94.2566625,"velocity":0.2283464566929134},{"duration":0.10135124999999334,"midi":61,"time":94.2566625,"velocity":0.2283464566929134},{"duration":0.10135124999999334,"midi":64,"time":94.459365,"velocity":0.2283464566929134},{"duration":0.10135124999999334,"midi":61,"time":94.459365,"velocity":0.2283464566929134},{"duration":0.10135124999999334,"midi":57,"time":94.459365,"velocity":0.2283464566929134},{"duration":0.10135124999999334,"midi":54,"time":94.459365,"velocity":0.2283464566929134},{"duration":0.10135124999999334,"midi":57,"time":94.86477000000001,"velocity":0.2283464566929134},{"duration":0.10135124999999334,"midi":54,"time":94.86477000000001,"velocity":0.2283464566929134},{"duration":0.10135124999999334,"midi":62,"time":94.86477000000001,"velocity":0.2283464566929134},{"duration":0.10135124999999334,"midi":62,"time":95.06747250000001,"velocity":0.2283464566929134},{"duration":0.10135124999999334,"midi":54,"time":95.06747250000001,"velocity":0.2283464566929134},{"duration":0.10135124999999334,"midi":57,"time":95.06747250000001,"velocity":0.2283464566929134},{"duration":0.10135124999999334,"midi":57,"time":95.47287750000001,"velocity":0.2283464566929134},{"duration":0.10135124999999334,"midi":54,"time":95.47287750000001,"velocity":0.2283464566929134},{"duration":0.10135124999999334,"midi":61,"time":95.47287750000001,"velocity":0.2283464566929134},{"duration":0.10135125000000755,"midi":54,"time":95.67558,"velocity":0.2283464566929134},{"duration":0.10135125000000755,"midi":57,"time":95.67558,"velocity":0.2283464566929134},{"duration":0.10135125000000755,"midi":61,"time":95.67558,"velocity":0.2283464566929134},{"duration":0.10135125000000755,"midi":57,"time":96.080985,"velocity":0.2283464566929134},{"duration":0.10135125000000755,"midi":54,"time":96.080985,"velocity":0.2283464566929134},{"duration":0.10135125000000755,"midi":59,"time":96.080985,"velocity":0.2283464566929134},{"duration":0.10135125000000755,"midi":54,"time":96.2836875,"velocity":0.2283464566929134},{"duration":0.10135125000000755,"midi":59,"time":96.2836875,"velocity":0.2283464566929134},{"duration":0.10135125000000755,"midi":57,"time":96.2836875,"velocity":0.2283464566929134},{"duration":0.5827696875000044,"midi":41,"time":96.6890925,"velocity":0.2283464566929134},{"duration":0.5827696875000044,"midi":45,"time":96.6890925,"velocity":0.2283464566929134},{"duration":0.5827696875000044,"midi":37,"time":96.6890925,"velocity":0.2283464566929134},{"duration":1.6216200000000072,"midi":40,"time":97.2972,"velocity":0.2283464566929134},{"duration":1.6216200000000072,"midi":44,"time":97.2972,"velocity":0.2283464566929134},{"duration":1.6216200000000072,"midi":35,"time":97.2972,"velocity":0.2283464566929134},{"duration":0.10135124999999334,"midi":68,"time":97.702605,"velocity":0.2283464566929134},{"duration":0.10135124999999334,"midi":68,"time":97.9053075,"velocity":0.2283464566929134},{"duration":0.10135124999999334,"midi":71,"time":98.31071250000001,"velocity":0.2283464566929134},{"duration":0.4054049999999876,"midi":66,"time":98.71611750000001,"velocity":0.2283464566929134},{"duration":1.621619999999993,"midi":39,"time":98.91882000000001,"velocity":0.2283464566929134},{"duration":0.8108099999999894,"midi":35,"time":98.91882000000001,"velocity":0.2283464566929134},{"duration":1.621619999999993,"midi":42,"time":98.91882000000001,"velocity":0.2283464566929134},{"duration":0.8108100000000036,"midi":33,"time":99.72963,"velocity":0.2283464566929134},{"duration":1.621619999999993,"midi":38,"time":100.54044,"velocity":0.2283464566929134},{"duration":1.621619999999993,"midi":42,"time":100.54044,"velocity":0.2283464566929134},{"duration":1.621619999999993,"midi":33,"time":100.54044,"velocity":0.2283464566929134},{"duration":0.10135124999999334,"midi":66,"time":100.7431425,"velocity":0.2283464566929134},{"duration":0.2027025000000009,"midi":65,"time":101.1485475,"velocity":0.2283464566929134},{"duration":0.10135124999999334,"midi":66,"time":101.35125000000001,"velocity":0.2283464566929134},{"duration":0.10135124999999334,"midi":68,"time":101.55395250000001,"velocity":0.2283464566929134},{"duration":0.10135124999999334,"midi":69,"time":101.75665500000001,"velocity":0.2283464566929134},{"duration":0.10135124999999334,"midi":71,"time":101.95935750000001,"velocity":0.2283464566929134},{"duration":1.0135125000000045,"midi":44,"time":102.16206,"velocity":0.2283464566929134},{"duration":1.0135125000000045,"midi":38,"time":102.16206,"velocity":0.2283464566929134},{"duration":0.8108100000000036,"midi":73,"time":102.16206,"velocity":0.2283464566929134},{"duration":0.8108100000000036,"midi":49,"time":102.16206,"velocity":0.2283464566929134},{"duration":0.8108100000000036,"midi":42,"time":102.16206,"velocity":0.2283464566929134},{"duration":0.2027025000000009,"midi":72,"time":102.97287,"velocity":0.2283464566929134},{"duration":0.2027025000000009,"midi":41,"time":102.97287,"velocity":0.2283464566929134},{"duration":0.2027025000000009,"midi":48,"time":102.97287,"velocity":0.2283464566929134},{"duration":0.10135124999999334,"midi":47,"time":103.78368,"velocity":0.2283464566929134},{"duration":0.10135124999999334,"midi":44,"time":103.78368,"velocity":0.2283464566929134},{"duration":0.10135124999999334,"midi":71,"time":103.78368,"velocity":0.2283464566929134},{"duration":0.10135124999999334,"midi":40,"time":103.78368,"velocity":0.2283464566929134},{"duration":0.10135124999999334,"midi":47,"time":103.9863825,"velocity":0.2283464566929134},{"duration":0.10135124999999334,"midi":71,"time":103.9863825,"velocity":0.2283464566929134},{"duration":0.10135124999999334,"midi":40,"time":103.9863825,"velocity":0.2283464566929134},{"duration":0.10135124999999334,"midi":44,"time":103.9863825,"velocity":0.2283464566929134},{"duration":0.10135124999999334,"midi":44,"time":104.189085,"velocity":0.2283464566929134},{"duration":0.10135124999999334,"midi":71,"time":104.189085,"velocity":0.2283464566929134},{"duration":0.10135124999999334,"midi":40,"time":104.189085,"velocity":0.2283464566929134},{"duration":0.10135124999999334,"midi":47,"time":104.189085,"velocity":0.2283464566929134},{"duration":0.10135124999999334,"midi":71,"time":104.3917875,"velocity":0.2283464566929134},{"duration":0.10135124999999334,"midi":40,"time":104.3917875,"velocity":0.2283464566929134},{"duration":0.10135124999999334,"midi":47,"time":104.3917875,"velocity":0.2283464566929134},{"duration":0.10135124999999334,"midi":44,"time":104.3917875,"velocity":0.2283464566929134},{"duration":0.10135124999999334,"midi":40,"time":104.59449000000001,"velocity":0.2283464566929134},{"duration":0.10135124999999334,"midi":44,"time":104.59449000000001,"velocity":0.2283464566929134},{"duration":0.10135124999999334,"midi":71,"time":104.59449000000001,"velocity":0.2283464566929134},{"duration":0.10135124999999334,"midi":47,"time":104.59449000000001,"velocity":0.2283464566929134},{"duration":0.10135125000000755,"midi":44,"time":105.810705,"velocity":0.2283464566929134},{"duration":0.10135125000000755,"midi":71,"time":105.810705,"velocity":0.2283464566929134},{"duration":0.10135125000000755,"midi":47,"time":105.810705,"velocity":0.2283464566929134},{"duration":0.10135125000000755,"midi":40,"time":105.810705,"velocity":0.2283464566929134},{"duration":0.10135125000000755,"midi":40,"time":106.0134075,"velocity":0.2283464566929134},{"duration":0.10135125000000755,"midi":44,"time":106.0134075,"velocity":0.2283464566929134},{"duration":0.10135125000000755,"midi":47,"time":106.0134075,"velocity":0.2283464566929134},{"duration":0.10135125000000755,"midi":71,"time":106.0134075,"velocity":0.2283464566929134},{"duration":0.10135125000000755,"midi":44,"time":106.21611,"velocity":0.2283464566929134},{"duration":0.10135125000000755,"midi":40,"time":106.21611,"velocity":0.2283464566929134},{"duration":0.10135125000000755,"midi":71,"time":106.21611,"velocity":0.2283464566929134},{"duration":0.10135125000000755,"midi":47,"time":106.21611,"velocity":0.2283464566929134},{"duration":0.10135125000000755,"midi":47,"time":106.4188125,"velocity":0.2283464566929134},{"duration":0.10135125000000755,"midi":71,"time":106.4188125,"velocity":0.2283464566929134},{"duration":0.10135125000000755,"midi":40,"time":106.4188125,"velocity":0.2283464566929134},{"duration":0.10135125000000755,"midi":44,"time":106.4188125,"velocity":0.2283464566929134},{"duration":0.10135125000000755,"midi":47,"time":106.621515,"velocity":0.2283464566929134},{"duration":0.10135125000000755,"midi":40,"time":106.621515,"velocity":0.2283464566929134},{"duration":0.10135125000000755,"midi":44,"time":106.621515,"velocity":0.2283464566929134},{"duration":0.10135125000000755,"midi":71,"time":106.621515,"velocity":0.2283464566929134},{"duration":0.10135124999999334,"midi":71,"time":107.02692,"velocity":0.2283464566929134},{"duration":0.10135124999999334,"midi":35,"time":107.02692,"velocity":0.2283464566929134},{"duration":0.10135124999999334,"midi":43,"time":107.02692,"velocity":0.2283464566929134},{"duration":0.10135124999999334,"midi":47,"time":107.02692,"velocity":0.2283464566929134},{"duration":0.10135124999999334,"midi":40,"time":107.02692,"velocity":0.2283464566929134},{"duration":0.10135124999999334,"midi":35,"time":107.2296225,"velocity":0.2283464566929134},{"duration":0.10135124999999334,"midi":40,"time":107.2296225,"velocity":0.2283464566929134},{"duration":0.10135124999999334,"midi":47,"time":107.2296225,"velocity":0.2283464566929134},{"duration":0.10135124999999334,"midi":71,"time":107.2296225,"velocity":0.2283464566929134},{"duration":0.10135124999999334,"midi":43,"time":107.2296225,"velocity":0.2283464566929134},{"duration":0.10135124999999334,"midi":71,"time":107.432325,"velocity":0.2283464566929134},{"duration":0.10135124999999334,"midi":40,"time":107.432325,"velocity":0.2283464566929134},{"duration":0.10135124999999334,"midi":35,"time":107.432325,"velocity":0.2283464566929134},{"duration":0.10135124999999334,"midi":43,"time":107.432325,"velocity":0.2283464566929134},{"duration":0.10135124999999334,"midi":47,"time":107.432325,"velocity":0.2283464566929134},{"duration":0.10135124999999334,"midi":43,"time":107.6350275,"velocity":0.2283464566929134},{"duration":0.10135124999999334,"midi":71,"time":107.6350275,"velocity":0.2283464566929134},{"duration":0.10135124999999334,"midi":35,"time":107.6350275,"velocity":0.2283464566929134},{"duration":0.10135124999999334,"midi":47,"time":107.6350275,"velocity":0.2283464566929134},{"duration":0.10135124999999334,"midi":40,"time":107.6350275,"velocity":0.2283464566929134},{"duration":0.10135124999999334,"midi":40,"time":107.83773000000001,"velocity":0.2283464566929134},{"duration":0.10135124999999334,"midi":43,"time":107.83773000000001,"velocity":0.2283464566929134},{"duration":0.10135124999999334,"midi":35,"time":107.83773000000001,"velocity":0.2283464566929134},{"duration":0.10135124999999334,"midi":71,"time":107.83773000000001,"velocity":0.2283464566929134},{"duration":0.10135124999999334,"midi":47,"time":107.83773000000001,"velocity":0.2283464566929134},{"duration":0.06756750000000977,"midi":47,"time":109.45935,"velocity":0.2283464566929134},{"duration":0.06756750000000977,"midi":71,"time":109.45935,"velocity":0.2283464566929134},{"duration":0.06756750000000977,"midi":43,"time":109.45935,"velocity":0.2283464566929134},{"duration":0.06756750000000977,"midi":35,"time":109.45935,"velocity":0.2283464566929134},{"duration":0.06756750000000977,"midi":40,"time":109.45935,"velocity":0.2283464566929134},{"duration":0.06756750000000977,"midi":43,"time":109.56070125000001,"velocity":0.2283464566929134},{"duration":0.06756750000000977,"midi":35,"time":109.56070125000001,"velocity":0.2283464566929134},{"duration":0.06756750000000977,"midi":40,"time":109.56070125000001,"velocity":0.2283464566929134},{"duration":0.06756750000000977,"midi":71,"time":109.56070125000001,"velocity":0.2283464566929134},{"duration":0.06756750000000977,"midi":47,"time":109.56070125000001,"velocity":0.2283464566929134},{"duration":0.06756750000000977,"midi":35,"time":109.6620525,"velocity":0.2283464566929134},{"duration":0.06756750000000977,"midi":43,"time":109.6620525,"velocity":0.2283464566929134},{"duration":0.06756750000000977,"midi":71,"time":109.6620525,"velocity":0.2283464566929134},{"duration":0.06756750000000977,"midi":40,"time":109.6620525,"velocity":0.2283464566929134},{"duration":0.06756750000000977,"midi":47,"time":109.6620525,"velocity":0.2283464566929134},{"duration":0.06756750000000977,"midi":40,"time":109.76340375000001,"velocity":0.2283464566929134},{"duration":0.06756750000000977,"midi":71,"time":109.76340375000001,"velocity":0.2283464566929134},{"duration":0.06756750000000977,"midi":43,"time":109.76340375000001,"velocity":0.2283464566929134},{"duration":0.06756750000000977,"midi":47,"time":109.76340375000001,"velocity":0.2283464566929134},{"duration":0.06756750000000977,"midi":35,"time":109.76340375000001,"velocity":0.2283464566929134},{"duration":0.06756750000000977,"midi":35,"time":109.864755,"velocity":0.2283464566929134},{"duration":0.06756750000000977,"midi":43,"time":109.864755,"velocity":0.2283464566929134},{"duration":0.06756750000000977,"midi":71,"time":109.864755,"velocity":0.2283464566929134},{"duration":0.06756750000000977,"midi":40,"time":109.864755,"velocity":0.2283464566929134},{"duration":0.06756750000000977,"midi":47,"time":109.864755,"velocity":0.2283464566929134}]},{"instrument":{"family":"synth lead","number":87,"name":"lead 8 (bass + lead)"},"notes":[{"duration":0.405405,"midi":38,"time":0,"velocity":0.7401574803149606},{"duration":0.405405,"midi":38,"time":1.216215,"velocity":0.7401574803149606},{"duration":0.07601343749999989,"midi":38,"time":2.43243,"velocity":0.7401574803149606},{"duration":0.07601343749999989,"midi":38,"time":2.53378125,"velocity":0.7401574803149606},{"duration":0.07601343749999989,"midi":38,"time":2.6351325,"velocity":0.7401574803149606},{"duration":0.07601343749999989,"midi":38,"time":2.73648375,"velocity":0.7401574803149606},{"duration":0.07601343749999989,"midi":38,"time":2.837835,"velocity":0.7401574803149606},{"duration":0.405405,"midi":31,"time":6.48648,"velocity":0.7401574803149606},{"duration":0.2027025,"midi":31,"time":7.0945875,"velocity":0.7401574803149606},{"duration":0.405405,"midi":38,"time":7.29729,"velocity":0.7401574803149606},{"duration":0.2027025,"midi":38,"time":7.9053975,"velocity":0.7401574803149606},{"duration":0.405405,"midi":31,"time":8.1081,"velocity":0.7401574803149606},{"duration":0.2027025000000009,"midi":31,"time":8.7162075,"velocity":0.7401574803149606},{"duration":0.405405,"midi":38,"time":8.91891,"velocity":0.7401574803149606},{"duration":0.2027025000000009,"midi":38,"time":9.5270175,"velocity":0.7401574803149606},{"duration":0.405405,"midi":31,"time":9.72972,"velocity":0.7401574803149606},{"duration":0.2027025000000009,"midi":31,"time":10.3378275,"velocity":0.7401574803149606},{"duration":0.405405,"midi":38,"time":10.54053,"velocity":0.7401574803149606},{"duration":0.2027025000000009,"midi":38,"time":11.1486375,"velocity":0.7401574803149606},{"duration":0.405405,"midi":31,"time":11.35134,"velocity":0.7401574803149606},{"duration":0.2027025000000009,"midi":31,"time":11.9594475,"velocity":0.7401574803149606},{"duration":0.405405,"midi":38,"time":12.16215,"velocity":0.7401574803149606},{"duration":0.2027025000000009,"midi":35,"time":12.7702575,"velocity":0.7401574803149606},{"duration":0.405405,"midi":36,"time":12.97296,"velocity":0.7401574803149606},{"duration":0.2027025000000009,"midi":36,"time":13.5810675,"velocity":0.7401574803149606},{"duration":0.405405,"midi":31,"time":13.78377,"velocity":0.7401574803149606},{"duration":0.2027025000000009,"midi":31,"time":14.3918775,"velocity":0.7401574803149606},{"duration":0.405405,"midi":36,"time":14.59458,"velocity":0.7401574803149606},{"duration":0.2027025000000009,"midi":36,"time":15.2026875,"velocity":0.7401574803149606},{"duration":0.405405,"midi":31,"time":15.40539,"velocity":0.7401574803149606},{"duration":0.2027025000000009,"midi":31,"time":16.0134975,"velocity":0.7401574803149606},{"duration":0.4054050000000018,"midi":36,"time":16.2162,"velocity":0.7401574803149606},{"duration":0.2027025000000009,"midi":36,"time":16.8243075,"velocity":0.7401574803149606},{"duration":0.40540499999999824,"midi":31,"time":17.02701,"velocity":0.7401574803149606},{"duration":0.2027025000000009,"midi":28,"time":17.6351175,"velocity":0.7401574803149606},{"duration":0.4054050000000018,"midi":29,"time":17.83782,"velocity":0.7401574803149606},{"duration":0.2027025000000009,"midi":29,"time":18.4459275,"velocity":0.7401574803149606},{"duration":0.40540499999999824,"midi":36,"time":18.64863,"velocity":0.7401574803149606},{"duration":0.2027025000000009,"midi":36,"time":19.2567375,"velocity":0.7401574803149606},{"duration":0.4054050000000018,"midi":35,"time":19.45944,"velocity":0.7401574803149606},{"duration":0.2027025000000009,"midi":35,"time":20.0675475,"velocity":0.7401574803149606},{"duration":0.40540499999999824,"midi":30,"time":20.27025,"velocity":0.7401574803149606},{"duration":0.2027025000000009,"midi":30,"time":20.8783575,"velocity":0.7401574803149606},{"duration":0.4054050000000018,"midi":34,"time":21.08106,"velocity":0.7401574803149606},{"duration":0.2027025000000009,"midi":34,"time":21.6891675,"velocity":0.7401574803149606},{"duration":0.40540499999999824,"midi":28,"time":21.89187,"velocity":0.7401574803149606},{"duration":0.2027025000000009,"midi":28,"time":22.4999775,"velocity":0.7401574803149606},{"duration":0.4054050000000018,"midi":33,"time":22.70268,"velocity":0.7401574803149606},{"duration":0.2027025000000009,"midi":33,"time":23.3107875,"velocity":0.7401574803149606},{"duration":0.40540499999999824,"midi":28,"time":23.51349,"velocity":0.7401574803149606},{"duration":0.2027025000000009,"midi":28,"time":24.1215975,"velocity":0.7401574803149606},{"duration":0.4054050000000018,"midi":32,"time":24.3243,"velocity":0.7401574803149606},{"duration":0.2027025000000009,"midi":38,"time":24.9324075,"velocity":0.7401574803149606},{"duration":0.2027025000000009,"midi":40,"time":25.13511,"velocity":0.7401574803149606},{"duration":0.20270249999999734,"midi":28,"time":25.337812500000002,"velocity":0.7401574803149606},{"duration":0.2027025000000009,"midi":30,"time":25.540515,"velocity":0.7401574803149606},{"duration":0.2027025000000009,"midi":32,"time":25.7432175,"velocity":0.7401574803149606},{"duration":0.4054050000000018,"midi":33,"time":25.94592,"velocity":0.7401574803149606},{"duration":0.2027025000000009,"midi":33,"time":26.5540275,"velocity":0.7401574803149606},{"duration":0.40540499999999824,"midi":28,"time":26.75673,"velocity":0.7401574803149606},{"duration":0.2027025000000009,"midi":28,"time":27.3648375,"velocity":0.7401574803149606},{"duration":0.4054050000000018,"midi":32,"time":27.56754,"velocity":0.7401574803149606},{"duration":0.2027025000000009,"midi":32,"time":28.1756475,"velocity":0.7401574803149606},{"duration":0.40540499999999824,"midi":39,"time":28.37835,"velocity":0.7401574803149606},{"duration":0.2027025000000009,"midi":30,"time":28.9864575,"velocity":0.7401574803149606},{"duration":0.4054050000000018,"midi":31,"time":29.18916,"velocity":0.7401574803149606},{"duration":0.2027025000000009,"midi":31,"time":29.7972675,"velocity":0.7401574803149606},{"duration":0.40540499999999824,"midi":38,"time":29.99997,"velocity":0.7401574803149606},{"duration":0.2027025000000009,"midi":31,"time":30.6080775,"velocity":0.7401574803149606},{"duration":0.4054050000000018,"midi":30,"time":30.81078,"velocity":0.7401574803149606},{"duration":0.2027025000000009,"midi":33,"time":31.4188875,"velocity":0.7401574803149606},{"duration":0.2027025000000009,"midi":35,"time":31.62159,"velocity":0.7401574803149606},{"duration":0.20270249999999734,"midi":34,"time":31.824292500000002,"velocity":0.7401574803149606},{"duration":0.2027025000000009,"midi":35,"time":32.026995,"velocity":0.7401574803149606},{"duration":0.2027025000000009,"midi":27,"time":32.2296975,"velocity":0.7401574803149606},{"duration":0.4054050000000018,"midi":28,"time":32.4324,"velocity":0.7401574803149606},{"duration":0.2027025000000009,"midi":28,"time":33.040507500000004,"velocity":0.7401574803149606},{"duration":0.4054049999999947,"midi":35,"time":33.243210000000005,"velocity":0.7401574803149606},{"duration":0.2027025000000009,"midi":27,"time":33.8513175,"velocity":0.7401574803149606},{"duration":0.4054050000000018,"midi":28,"time":34.05402,"velocity":0.7401574803149606},{"duration":0.2027024999999938,"midi":28,"time":34.662127500000004,"velocity":0.7401574803149606},{"duration":0.4054050000000018,"midi":35,"time":34.86483,"velocity":0.7401574803149606},{"duration":0.2027025000000009,"midi":35,"time":35.4729375,"velocity":0.7401574803149606},{"duration":0.4054050000000018,"midi":28,"time":35.67564,"velocity":0.7401574803149606},{"duration":0.2027025000000009,"midi":28,"time":36.283747500000004,"velocity":0.7401574803149606},{"duration":0.4054049999999947,"midi":35,"time":36.486450000000005,"velocity":0.7401574803149606},{"duration":0.2027025000000009,"midi":39,"time":37.0945575,"velocity":0.7401574803149606},{"duration":0.4054050000000018,"midi":40,"time":37.29726,"velocity":0.7401574803149606},{"duration":0.2027024999999938,"midi":32,"time":37.905367500000004,"velocity":0.7401574803149606},{"duration":0.4054050000000018,"midi":35,"time":38.10807,"velocity":0.7401574803149606},{"duration":0.2027025000000009,"midi":26,"time":38.7161775,"velocity":0.7401574803149606},{"duration":0.4054050000000018,"midi":28,"time":38.91888,"velocity":0.7401574803149606},{"duration":0.2027025000000009,"midi":28,"time":39.526987500000004,"velocity":0.7401574803149606},{"duration":0.4054049999999947,"midi":35,"time":39.729690000000005,"velocity":0.7401574803149606},{"duration":0.2027025000000009,"midi":31,"time":40.3377975,"velocity":0.7401574803149606},{"duration":0.4054050000000018,"midi":33,"time":40.5405,"velocity":0.7401574803149606},{"duration":0.2027024999999938,"midi":33,"time":41.148607500000004,"velocity":0.7401574803149606},{"duration":0.4054050000000018,"midi":40,"time":41.35131,"velocity":0.7401574803149606},{"duration":0.2027025000000009,"midi":36,"time":41.9594175,"velocity":0.7401574803149606},{"duration":0.4054050000000018,"midi":38,"time":42.16212,"velocity":0.7401574803149606},{"duration":0.2027025000000009,"midi":38,"time":42.770227500000004,"velocity":0.7401574803149606},{"duration":0.4054049999999947,"midi":33,"time":42.972930000000005,"velocity":0.7401574803149606},{"duration":0.2027025000000009,"midi":38,"time":43.5810375,"velocity":0.7401574803149606},{"duration":0.4054050000000018,"midi":39,"time":43.78374,"velocity":0.7401574803149606},{"duration":0.2027024999999938,"midi":39,"time":44.391847500000004,"velocity":0.7401574803149606},{"duration":0.4054050000000018,"midi":38,"time":44.59455,"velocity":0.7401574803149606},{"duration":0.2027025000000009,"midi":35,"time":45.2026575,"velocity":0.7401574803149606},{"duration":0.4054050000000018,"midi":37,"time":45.40536,"velocity":0.7401574803149606},{"duration":0.2027025000000009,"midi":37,"time":46.013467500000004,"velocity":0.7401574803149606},{"duration":0.4054049999999947,"midi":32,"time":46.216170000000005,"velocity":0.7401574803149606},{"duration":0.2027025000000009,"midi":32,"time":46.8242775,"velocity":0.7401574803149606},{"duration":0.4054050000000018,"midi":36,"time":47.02698,"velocity":0.7401574803149606},{"duration":0.2027024999999938,"midi":36,"time":47.635087500000004,"velocity":0.7401574803149606},{"duration":0.4054050000000018,"midi":30,"time":47.83779,"velocity":0.7401574803149606},{"duration":0.2027025000000009,"midi":30,"time":48.4458975,"velocity":0.7401574803149606},{"duration":0.4054050000000018,"midi":35,"time":48.6486,"velocity":0.7401574803149606},{"duration":0.2027025000000009,"midi":35,"time":49.256707500000005,"velocity":0.7401574803149606},{"duration":0.4054049999999947,"midi":30,"time":49.459410000000005,"velocity":0.7401574803149606},{"duration":0.2027025000000009,"midi":30,"time":50.0675175,"velocity":0.7401574803149606},{"duration":0.4054050000000018,"midi":28,"time":50.27022,"velocity":0.7401574803149606},{"duration":0.2027024999999938,"midi":38,"time":50.878327500000005,"velocity":0.7401574803149606},{"duration":0.2027025000000009,"midi":40,"time":51.08103,"velocity":0.7401574803149606},{"duration":0.2027025000000009,"midi":28,"time":51.2837325,"velocity":0.7401574803149606},{"duration":0.2027025000000009,"midi":30,"time":51.486435,"velocity":0.7401574803149606},{"duration":0.2027025000000009,"midi":32,"time":51.6891375,"velocity":0.7401574803149606},{"duration":0.2027025000000009,"midi":33,"time":51.89184,"velocity":0.7401574803149606},{"duration":0.4054050000000018,"midi":31,"time":58.37832,"velocity":0.7401574803149606},{"duration":0.2027025000000009,"midi":31,"time":58.986427500000005,"velocity":0.7401574803149606},{"duration":0.4054049999999947,"midi":38,"time":59.189130000000006,"velocity":0.7401574803149606},{"duration":0.2027025000000009,"midi":38,"time":59.7972375,"velocity":0.7401574803149606},{"duration":0.4054050000000018,"midi":31,"time":59.99994,"velocity":0.7401574803149606},{"duration":0.2027024999999938,"midi":31,"time":60.608047500000005,"velocity":0.7401574803149606},{"duration":0.4054050000000018,"midi":38,"time":60.81075,"velocity":0.7401574803149606},{"duration":0.2027025000000009,"midi":38,"time":61.4188575,"velocity":0.7401574803149606},{"duration":0.4054050000000018,"midi":31,"time":61.62156,"velocity":0.7401574803149606},{"duration":0.2027025000000009,"midi":31,"time":62.229667500000005,"velocity":0.7401574803149606},{"duration":0.4054049999999947,"midi":38,"time":62.432370000000006,"velocity":0.7401574803149606},{"duration":0.2027025000000009,"midi":38,"time":63.0404775,"velocity":0.7401574803149606},{"duration":0.4054050000000018,"midi":31,"time":63.24318,"velocity":0.7401574803149606},{"duration":0.2027024999999938,"midi":31,"time":63.851287500000005,"velocity":0.7401574803149606},{"duration":0.4054050000000018,"midi":38,"time":64.05399,"velocity":0.7401574803149606},{"duration":0.2027025000000009,"midi":35,"time":64.6620975,"velocity":0.7401574803149606},{"duration":0.4054050000000018,"midi":36,"time":64.8648,"velocity":0.7401574803149606},{"duration":0.2027025000000009,"midi":36,"time":65.4729075,"velocity":0.7401574803149606},{"duration":0.4054050000000018,"midi":31,"time":65.67561,"velocity":0.7401574803149606},{"duration":0.2027025000000009,"midi":31,"time":66.28371750000001,"velocity":0.7401574803149606},{"duration":0.4054049999999876,"midi":36,"time":66.48642000000001,"velocity":0.7401574803149606},{"duration":0.2027025000000009,"midi":36,"time":67.0945275,"velocity":0.7401574803149606},{"duration":0.4054050000000018,"midi":31,"time":67.29723,"velocity":0.7401574803149606},{"duration":0.2027025000000009,"midi":31,"time":67.9053375,"velocity":0.7401574803149606},{"duration":0.4054050000000018,"midi":36,"time":68.10804,"velocity":0.7401574803149606},{"duration":0.2027025000000009,"midi":36,"time":68.7161475,"velocity":0.7401574803149606},{"duration":0.4054050000000018,"midi":31,"time":68.91885,"velocity":0.7401574803149606},{"duration":0.20270249999998668,"midi":28,"time":69.52695750000001,"velocity":0.7401574803149606},{"duration":0.4054050000000018,"midi":29,"time":69.72966,"velocity":0.7401574803149606},{"duration":0.2027025000000009,"midi":29,"time":70.3377675,"velocity":0.7401574803149606},{"duration":0.4054050000000018,"midi":36,"time":70.54047,"velocity":0.7401574803149606},{"duration":0.2027025000000009,"midi":36,"time":71.1485775,"velocity":0.7401574803149606},{"duration":0.4054050000000018,"midi":35,"time":71.35128,"velocity":0.7401574803149606},{"duration":0.2027025000000009,"midi":35,"time":71.9593875,"velocity":0.7401574803149606},{"duration":0.4054050000000018,"midi":30,"time":72.16209,"velocity":0.7401574803149606},{"duration":0.2027025000000009,"midi":30,"time":72.77019750000001,"velocity":0.7401574803149606},{"duration":0.4054049999999876,"midi":34,"time":72.97290000000001,"velocity":0.7401574803149606},{"duration":0.2027025000000009,"midi":34,"time":73.5810075,"velocity":0.7401574803149606},{"duration":0.4054050000000018,"midi":28,"time":73.78371,"velocity":0.7401574803149606},{"duration":0.2027025000000009,"midi":28,"time":74.3918175,"velocity":0.7401574803149606},{"duration":0.4054050000000018,"midi":33,"time":74.59452,"velocity":0.7401574803149606},{"duration":0.2027025000000009,"midi":33,"time":75.2026275,"velocity":0.7401574803149606},{"duration":0.4054050000000018,"midi":28,"time":75.40533,"velocity":0.7401574803149606},{"duration":0.20270249999998668,"midi":28,"time":76.01343750000001,"velocity":0.7401574803149606},{"duration":0.4054050000000018,"midi":32,"time":76.21614,"velocity":0.7401574803149606},{"duration":0.2027025000000009,"midi":38,"time":76.8242475,"velocity":0.7401574803149606},{"duration":0.2027025000000009,"midi":40,"time":77.02695,"velocity":0.7401574803149606},{"duration":0.2027025000000009,"midi":28,"time":77.2296525,"velocity":0.7401574803149606},{"duration":0.2027025000000009,"midi":30,"time":77.432355,"velocity":0.7401574803149606},{"duration":0.2027025000000009,"midi":32,"time":77.6350575,"velocity":0.7401574803149606},{"duration":0.4054050000000018,"midi":33,"time":77.83776,"velocity":0.7401574803149606},{"duration":0.2027025000000009,"midi":33,"time":78.4458675,"velocity":0.7401574803149606},{"duration":0.4054050000000018,"midi":28,"time":78.64857,"velocity":0.7401574803149606},{"duration":0.2027025000000009,"midi":28,"time":79.25667750000001,"velocity":0.7401574803149606},{"duration":0.4054049999999876,"midi":32,"time":79.45938000000001,"velocity":0.7401574803149606},{"duration":0.2027025000000009,"midi":32,"time":80.0674875,"velocity":0.7401574803149606},{"duration":0.4054050000000018,"midi":39,"time":80.27019,"velocity":0.7401574803149606},{"duration":0.2027025000000009,"midi":30,"time":80.8782975,"velocity":0.7401574803149606},{"duration":0.4054050000000018,"midi":31,"time":81.081,"velocity":0.7401574803149606},{"duration":0.2027025000000009,"midi":31,"time":81.6891075,"velocity":0.7401574803149606},{"duration":0.4054050000000018,"midi":38,"time":81.89181,"velocity":0.7401574803149606},{"duration":0.20270249999998668,"midi":31,"time":82.49991750000001,"velocity":0.7401574803149606},{"duration":0.4054050000000018,"midi":30,"time":82.70262,"velocity":0.7401574803149606},{"duration":0.2027025000000009,"midi":33,"time":83.3107275,"velocity":0.7401574803149606},{"duration":0.2027025000000009,"midi":35,"time":83.51343,"velocity":0.7401574803149606},{"duration":0.2027025000000009,"midi":34,"time":83.7161325,"velocity":0.7401574803149606},{"duration":0.2027025000000009,"midi":35,"time":83.918835,"velocity":0.7401574803149606},{"duration":0.2027025000000009,"midi":27,"time":84.1215375,"velocity":0.7401574803149606},{"duration":0.4054050000000018,"midi":28,"time":84.32424,"velocity":0.7401574803149606},{"duration":0.2027025000000009,"midi":28,"time":84.9323475,"velocity":0.7401574803149606},{"duration":0.4054050000000018,"midi":35,"time":85.13505,"velocity":0.7401574803149606},{"duration":0.2027025000000009,"midi":27,"time":85.74315750000001,"velocity":0.7401574803149606},{"duration":0.4054049999999876,"midi":28,"time":85.94586000000001,"velocity":0.7401574803149606},{"duration":0.2027025000000009,"midi":28,"time":86.5539675,"velocity":0.7401574803149606},{"duration":0.4054050000000018,"midi":35,"time":86.75667,"velocity":0.7401574803149606},{"duration":0.2027025000000009,"midi":35,"time":87.3647775,"velocity":0.7401574803149606},{"duration":0.4054050000000018,"midi":28,"time":87.56748,"velocity":0.7401574803149606},{"duration":0.2027025000000009,"midi":28,"time":88.1755875,"velocity":0.7401574803149606},{"duration":0.4054050000000018,"midi":35,"time":88.37829,"velocity":0.7401574803149606},{"duration":0.20270249999998668,"midi":39,"time":88.98639750000001,"velocity":0.7401574803149606},{"duration":0.4054050000000018,"midi":40,"time":89.1891,"velocity":0.7401574803149606},{"duration":0.2027025000000009,"midi":32,"time":89.7972075,"velocity":0.7401574803149606},{"duration":0.4054050000000018,"midi":35,"time":89.99991,"velocity":0.7401574803149606},{"duration":0.2027025000000009,"midi":26,"time":90.6080175,"velocity":0.7401574803149606},{"duration":0.4054050000000018,"midi":28,"time":90.81072,"velocity":0.7401574803149606},{"duration":0.2027025000000009,"midi":28,"time":91.4188275,"velocity":0.7401574803149606},{"duration":0.4054050000000018,"midi":35,"time":91.62153,"velocity":0.7401574803149606},{"duration":0.2027025000000009,"midi":31,"time":92.22963750000001,"velocity":0.7401574803149606},{"duration":0.4054049999999876,"midi":33,"time":92.43234000000001,"velocity":0.7401574803149606},{"duration":0.2027025000000009,"midi":33,"time":93.0404475,"velocity":0.7401574803149606},{"duration":0.4054050000000018,"midi":40,"time":93.24315,"velocity":0.7401574803149606},{"duration":0.2027025000000009,"midi":36,"time":93.8512575,"velocity":0.7401574803149606},{"duration":0.4054050000000018,"midi":38,"time":94.05396,"velocity":0.7401574803149606},{"duration":0.2027025000000009,"midi":38,"time":94.6620675,"velocity":0.7401574803149606},{"duration":0.4054050000000018,"midi":33,"time":94.86477000000001,"velocity":0.7401574803149606},{"duration":0.20270249999998668,"midi":38,"time":95.47287750000001,"velocity":0.7401574803149606},{"duration":0.4054050000000018,"midi":39,"time":95.67558,"velocity":0.7401574803149606},{"duration":0.2027025000000009,"midi":39,"time":96.2836875,"velocity":0.7401574803149606},{"duration":0.4054050000000018,"midi":38,"time":96.48639,"velocity":0.7401574803149606},{"duration":0.2027025000000009,"midi":35,"time":97.0944975,"velocity":0.7401574803149606},{"duration":0.4054050000000018,"midi":37,"time":97.2972,"velocity":0.7401574803149606},{"duration":0.2027025000000009,"midi":37,"time":97.9053075,"velocity":0.7401574803149606},{"duration":0.4054050000000018,"midi":32,"time":98.10801000000001,"velocity":0.7401574803149606},{"duration":0.2027025000000009,"midi":32,"time":98.71611750000001,"velocity":0.7401574803149606},{"duration":0.4054049999999876,"midi":36,"time":98.91882000000001,"velocity":0.7401574803149606},{"duration":0.2027025000000009,"midi":36,"time":99.5269275,"velocity":0.7401574803149606},{"duration":0.4054050000000018,"midi":30,"time":99.72963,"velocity":0.7401574803149606},{"duration":0.2027025000000009,"midi":30,"time":100.3377375,"velocity":0.7401574803149606},{"duration":0.4054050000000018,"midi":35,"time":100.54044,"velocity":0.7401574803149606},{"duration":0.2027025000000009,"midi":35,"time":101.1485475,"velocity":0.7401574803149606},{"duration":0.4054050000000018,"midi":30,"time":101.35125000000001,"velocity":0.7401574803149606},{"duration":0.20270249999998668,"midi":30,"time":101.95935750000001,"velocity":0.7401574803149606},{"duration":0.4054050000000018,"midi":28,"time":102.16206,"velocity":0.7401574803149606},{"duration":0.2027025000000009,"midi":38,"time":102.7701675,"velocity":0.7401574803149606},{"duration":0.2027025000000009,"midi":40,"time":102.97287,"velocity":0.7401574803149606},{"duration":0.2027025000000009,"midi":28,"time":103.1755725,"velocity":0.7401574803149606},{"duration":0.2027025000000009,"midi":30,"time":103.378275,"velocity":0.7401574803149606},{"duration":0.2027025000000009,"midi":32,"time":103.5809775,"velocity":0.7401574803149606},{"duration":0.2027025000000009,"midi":33,"time":103.78368,"velocity":0.7401574803149606}]},{"instrument":{"family":"drums","number":0,"name":"standard kit"},"notes":[{"duration":0.10135125,"midi":37,"time":3.24324,"velocity":0.3937007874015748},{"duration":0.10135125,"midi":42,"time":3.24324,"velocity":0.3937007874015748},{"duration":0.10135125,"midi":42,"time":3.4459425,"velocity":0.3937007874015748},{"duration":0.10135125,"midi":42,"time":3.648645,"velocity":0.3937007874015748},{"duration":0.10135125,"midi":37,"time":3.8513475,"velocity":0.3937007874015748},{"duration":0.10135125,"midi":42,"time":3.8513475,"velocity":0.3937007874015748},{"duration":0.10135125000000045,"midi":42,"time":4.05405,"velocity":0.3937007874015748},{"duration":0.10135124999999956,"midi":42,"time":4.2567525,"velocity":0.3937007874015748},{"duration":0.10135125000000045,"midi":42,"time":4.459455,"velocity":0.3937007874015748},{"duration":0.10135125000000045,"midi":37,"time":4.459455,"velocity":0.3937007874015748},{"duration":0.10135124999999956,"midi":42,"time":4.6621575,"velocity":0.3937007874015748},{"duration":0.10135125000000045,"midi":42,"time":4.86486,"velocity":0.3937007874015748},{"duration":0.10135124999999956,"midi":42,"time":5.0675625,"velocity":0.3937007874015748},{"duration":0.10135125000000045,"midi":42,"time":5.270265,"velocity":0.3937007874015748},{"duration":0.10135125000000045,"midi":37,"time":5.270265,"velocity":0.3937007874015748},{"duration":0.10135124999999956,"midi":42,"time":5.4729675,"velocity":0.3937007874015748},{"duration":0.10135124999999956,"midi":37,"time":5.4729675,"velocity":0.3937007874015748},{"duration":0.10135125000000045,"midi":37,"time":5.67567,"velocity":0.3937007874015748},{"duration":0.10135125000000045,"midi":42,"time":5.67567,"velocity":0.3937007874015748},{"duration":0.10135124999999956,"midi":42,"time":5.8783725,"velocity":0.3937007874015748},{"duration":0.10135124999999956,"midi":37,"time":5.8783725,"velocity":0.3937007874015748},{"duration":0.10135125000000045,"midi":37,"time":6.081075,"velocity":0.3937007874015748},{"duration":0.10135125000000045,"midi":42,"time":6.081075,"velocity":0.3937007874015748},{"duration":0.10135124999999956,"midi":42,"time":6.2837775,"velocity":0.3937007874015748},{"duration":0.10135125000000045,"midi":37,"time":6.48648,"velocity":0.3937007874015748},{"duration":0.10135125000000045,"midi":42,"time":6.48648,"velocity":0.3937007874015748},{"duration":0.10135124999999956,"midi":42,"time":6.6891825,"velocity":0.3937007874015748},{"duration":0.10135125000000045,"midi":42,"time":6.891885,"velocity":0.3937007874015748},{"duration":0.10135124999999956,"midi":42,"time":7.0945875,"velocity":0.3937007874015748},{"duration":0.10135124999999956,"midi":37,"time":7.0945875,"velocity":0.3937007874015748},{"duration":0.10135125000000045,"midi":42,"time":7.29729,"velocity":0.3937007874015748},{"duration":0.10135124999999956,"midi":42,"time":7.4999925,"velocity":0.3937007874015748},{"duration":0.10135125000000045,"midi":42,"time":7.702695,"velocity":0.3937007874015748},{"duration":0.10135124999999956,"midi":42,"time":7.9053975,"velocity":0.3937007874015748},{"duration":0.10135124999999956,"midi":37,"time":7.9053975,"velocity":0.3937007874015748},{"duration":0.10135125000000045,"midi":42,"time":8.1081,"velocity":0.3937007874015748},{"duration":0.10135124999999867,"midi":42,"time":8.310802500000001,"velocity":0.3937007874015748},{"duration":0.10135125000000045,"midi":37,"time":8.513505,"velocity":0.3937007874015748},{"duration":0.10135125000000045,"midi":42,"time":8.513505,"velocity":0.3937007874015748},{"duration":0.10135125000000045,"midi":42,"time":8.7162075,"velocity":0.3937007874015748},{"duration":0.10135125000000045,"midi":42,"time":8.91891,"velocity":0.3937007874015748},{"duration":0.10135125000000045,"midi":37,"time":8.91891,"velocity":0.3937007874015748},{"duration":0.10135124999999867,"midi":42,"time":9.121612500000001,"velocity":0.3937007874015748},{"duration":0.10135125000000045,"midi":42,"time":9.324315,"velocity":0.3937007874015748},{"duration":0.10135125000000045,"midi":37,"time":9.324315,"velocity":0.3937007874015748},{"duration":0.10135125000000045,"midi":42,"time":9.5270175,"velocity":0.3937007874015748},{"duration":0.10135125000000045,"midi":37,"time":9.72972,"velocity":0.3937007874015748},{"duration":0.10135125000000045,"midi":42,"time":9.72972,"velocity":0.3937007874015748},{"duration":0.10135124999999867,"midi":42,"time":9.932422500000001,"velocity":0.3937007874015748},{"duration":0.10135125000000045,"midi":42,"time":10.135125,"velocity":0.3937007874015748},{"duration":0.10135125000000045,"midi":42,"time":10.3378275,"velocity":0.3937007874015748},{"duration":0.10135125000000045,"midi":37,"time":10.3378275,"velocity":0.3937007874015748},{"duration":0.10135125000000045,"midi":42,"time":10.54053,"velocity":0.3937007874015748},{"duration":0.10135124999999867,"midi":42,"time":10.743232500000001,"velocity":0.3937007874015748},{"duration":0.10135125000000045,"midi":42,"time":10.945935,"velocity":0.3937007874015748},{"duration":0.10135125000000045,"midi":37,"time":11.1486375,"velocity":0.3937007874015748},{"duration":0.10135125000000045,"midi":42,"time":11.1486375,"velocity":0.3937007874015748},{"duration":0.10135125000000045,"midi":42,"time":11.35134,"velocity":0.3937007874015748},{"duration":0.10135124999999867,"midi":42,"time":11.554042500000001,"velocity":0.3937007874015748},{"duration":0.10135125000000045,"midi":42,"time":11.756745,"velocity":0.3937007874015748},{"duration":0.10135125000000045,"midi":37,"time":11.756745,"velocity":0.3937007874015748},{"duration":0.10135125000000045,"midi":42,"time":11.9594475,"velocity":0.3937007874015748},{"duration":0.10135125000000045,"midi":42,"time":12.16215,"velocity":0.3937007874015748},{"duration":0.10135125000000045,"midi":37,"time":12.16215,"velocity":0.3937007874015748},{"duration":0.10135124999999867,"midi":42,"time":12.364852500000001,"velocity":0.3937007874015748},{"duration":0.10135125000000045,"midi":37,"time":12.567555,"velocity":0.3937007874015748},{"duration":0.10135125000000045,"midi":42,"time":12.567555,"velocity":0.3937007874015748},{"duration":0.10135125000000045,"midi":42,"time":12.7702575,"velocity":0.3937007874015748},{"duration":0.10135125000000045,"midi":37,"time":12.97296,"velocity":0.3937007874015748},{"duration":0.10135125000000045,"midi":42,"time":12.97296,"velocity":0.3937007874015748},{"duration":0.10135124999999867,"midi":42,"time":13.175662500000001,"velocity":0.3937007874015748},{"duration":0.10135125000000045,"midi":42,"time":13.378365,"velocity":0.3937007874015748},{"duration":0.10135125000000045,"midi":42,"time":13.5810675,"velocity":0.3937007874015748},{"duration":0.10135125000000045,"midi":37,"time":13.5810675,"velocity":0.3937007874015748},{"duration":0.10135125000000045,"midi":42,"time":13.78377,"velocity":0.3937007874015748},{"duration":0.10135124999999867,"midi":42,"time":13.986472500000001,"velocity":0.3937007874015748},{"duration":0.10135125000000045,"midi":42,"time":14.189175,"velocity":0.3937007874015748},{"duration":0.10135125000000045,"midi":37,"time":14.189175,"velocity":0.3937007874015748},{"duration":0.10135125000000045,"midi":42,"time":14.3918775,"velocity":0.3937007874015748},{"duration":0.10135125000000045,"midi":42,"time":14.59458,"velocity":0.3937007874015748},{"duration":0.10135124999999867,"midi":42,"time":14.797282500000001,"velocity":0.3937007874015748},{"duration":0.10135125000000045,"midi":42,"time":14.999985,"velocity":0.3937007874015748},{"duration":0.10135125000000045,"midi":37,"time":14.999985,"velocity":0.3937007874015748},{"duration":0.10135125000000045,"midi":37,"time":15.2026875,"velocity":0.3937007874015748},{"duration":0.10135125000000045,"midi":42,"time":15.2026875,"velocity":0.3937007874015748},{"duration":0.10135125000000045,"midi":42,"time":15.40539,"velocity":0.3937007874015748},{"duration":0.10135125000000045,"midi":37,"time":15.40539,"velocity":0.3937007874015748},{"duration":0.10135124999999867,"midi":42,"time":15.608092500000001,"velocity":0.3937007874015748},{"duration":0.10135124999999867,"midi":37,"time":15.608092500000001,"velocity":0.3937007874015748},{"duration":0.10135125000000045,"midi":37,"time":15.810795,"velocity":0.3937007874015748},{"duration":0.10135125000000045,"midi":42,"time":15.810795,"velocity":0.3937007874015748},{"duration":0.10135125000000045,"midi":42,"time":16.0134975,"velocity":0.3937007874015748},{"duration":0.10135125000000045,"midi":37,"time":16.2162,"velocity":0.3937007874015748},{"duration":0.10135125000000045,"midi":42,"time":16.2162,"velocity":0.3937007874015748},{"duration":0.10135125000000045,"midi":42,"time":16.4189025,"velocity":0.3937007874015748},{"duration":0.1013512499999969,"midi":42,"time":16.621605000000002,"velocity":0.3937007874015748},{"duration":0.10135125000000045,"midi":37,"time":16.8243075,"velocity":0.3937007874015748},{"duration":0.10135125000000045,"midi":42,"time":16.8243075,"velocity":0.3937007874015748},{"duration":0.10135125000000045,"midi":42,"time":17.02701,"velocity":0.3937007874015748},{"duration":0.10135125000000045,"midi":42,"time":17.2297125,"velocity":0.3937007874015748},{"duration":0.10135125000000045,"midi":37,"time":17.432415,"velocity":0.3937007874015748},{"duration":0.10135125000000045,"midi":42,"time":17.432415,"velocity":0.3937007874015748},{"duration":0.10135125000000045,"midi":42,"time":17.6351175,"velocity":0.3937007874015748},{"duration":0.10135125000000045,"midi":42,"time":17.83782,"velocity":0.3937007874015748},{"duration":0.10135125000000045,"midi":42,"time":18.0405225,"velocity":0.3937007874015748},{"duration":0.1013512499999969,"midi":42,"time":18.243225000000002,"velocity":0.3937007874015748},{"duration":0.1013512499999969,"midi":37,"time":18.243225000000002,"velocity":0.3937007874015748},{"duration":0.10135125000000045,"midi":42,"time":18.4459275,"velocity":0.3937007874015748},{"duration":0.10135125000000045,"midi":37,"time":18.4459275,"velocity":0.3937007874015748},{"duration":0.10135125000000045,"midi":42,"time":18.64863,"velocity":0.3937007874015748},{"duration":0.10135125000000045,"midi":37,"time":18.64863,"velocity":0.3937007874015748},{"duration":0.10135125000000045,"midi":37,"time":18.8513325,"velocity":0.3937007874015748},{"duration":0.10135125000000045,"midi":42,"time":18.8513325,"velocity":0.3937007874015748},{"duration":0.10135125000000045,"midi":37,"time":19.054035,"velocity":0.3937007874015748},{"duration":0.10135125000000045,"midi":42,"time":19.054035,"velocity":0.3937007874015748},{"duration":0.10135125000000045,"midi":42,"time":19.2567375,"velocity":0.3937007874015748},{"duration":0.10135125000000045,"midi":37,"time":19.45944,"velocity":0.3937007874015748},{"duration":0.10135125000000045,"midi":42,"time":19.45944,"velocity":0.3937007874015748},{"duration":0.10135125000000045,"midi":42,"time":19.6621425,"velocity":0.3937007874015748},{"duration":0.1013512499999969,"midi":42,"time":19.864845000000003,"velocity":0.3937007874015748},{"duration":0.10135125000000045,"midi":37,"time":20.0675475,"velocity":0.3937007874015748},{"duration":0.10135125000000045,"midi":42,"time":20.0675475,"velocity":0.3937007874015748},{"duration":0.10135125000000045,"midi":42,"time":20.27025,"velocity":0.3937007874015748},{"duration":0.10135125000000045,"midi":42,"time":20.4729525,"velocity":0.3937007874015748},{"duration":0.10135125000000045,"midi":42,"time":20.675655,"velocity":0.3937007874015748},{"duration":0.10135125000000045,"midi":37,"time":20.675655,"velocity":0.3937007874015748},{"duration":0.10135125000000045,"midi":42,"time":20.8783575,"velocity":0.3937007874015748},{"duration":0.10135125000000045,"midi":42,"time":21.08106,"velocity":0.3937007874015748},{"duration":0.10135125000000045,"midi":42,"time":21.2837625,"velocity":0.3937007874015748},{"duration":0.1013512499999969,"midi":37,"time":21.486465000000003,"velocity":0.3937007874015748},{"duration":0.1013512499999969,"midi":42,"time":21.486465000000003,"velocity":0.3937007874015748},{"duration":0.10135125000000045,"midi":37,"time":21.6891675,"velocity":0.3937007874015748},{"duration":0.10135125000000045,"midi":42,"time":21.6891675,"velocity":0.3937007874015748},{"duration":0.10135125000000045,"midi":42,"time":21.89187,"velocity":0.3937007874015748},{"duration":0.10135125000000045,"midi":37,"time":21.89187,"velocity":0.3937007874015748},{"duration":0.10135125000000045,"midi":42,"time":22.0945725,"velocity":0.3937007874015748},{"duration":0.10135125000000045,"midi":37,"time":22.0945725,"velocity":0.3937007874015748},{"duration":0.10135125000000045,"midi":42,"time":22.297275,"velocity":0.3937007874015748},{"duration":0.10135125000000045,"midi":37,"time":22.297275,"velocity":0.3937007874015748},{"duration":0.10135125000000045,"midi":42,"time":22.4999775,"velocity":0.3937007874015748},{"duration":0.10135125000000045,"midi":42,"time":22.70268,"velocity":0.3937007874015748},{"duration":0.10135125000000045,"midi":37,"time":22.70268,"velocity":0.3937007874015748},{"duration":0.10135125000000045,"midi":42,"time":22.9053825,"velocity":0.3937007874015748},{"duration":0.1013512499999969,"midi":42,"time":23.108085000000003,"velocity":0.3937007874015748},{"duration":0.10135125000000045,"midi":37,"time":23.3107875,"velocity":0.3937007874015748},{"duration":0.10135125000000045,"midi":42,"time":23.3107875,"velocity":0.3937007874015748},{"duration":0.10135125000000045,"midi":42,"time":23.51349,"velocity":0.3937007874015748},{"duration":0.10135125000000045,"midi":42,"time":23.716192500000002,"velocity":0.3937007874015748},{"duration":0.10135125000000045,"midi":42,"time":23.918895,"velocity":0.3937007874015748},{"duration":0.10135125000000045,"midi":37,"time":23.918895,"velocity":0.3937007874015748},{"duration":0.10135125000000045,"midi":42,"time":24.1215975,"velocity":0.3937007874015748},{"duration":0.10135125000000045,"midi":42,"time":24.3243,"velocity":0.3937007874015748},{"duration":0.10135125000000045,"midi":42,"time":24.527002500000002,"velocity":0.3937007874015748},{"duration":0.1013512499999969,"midi":42,"time":24.729705000000003,"velocity":0.3937007874015748},{"duration":0.1013512499999969,"midi":37,"time":24.729705000000003,"velocity":0.3937007874015748},{"duration":0.10135125000000045,"midi":37,"time":24.9324075,"velocity":0.3937007874015748},{"duration":0.10135125000000045,"midi":42,"time":24.9324075,"velocity":0.3937007874015748},{"duration":0.10135125000000045,"midi":42,"time":25.13511,"velocity":0.3937007874015748},{"duration":0.10135125000000045,"midi":37,"time":25.13511,"velocity":0.3937007874015748},{"duration":0.10135125000000045,"midi":37,"time":25.337812500000002,"velocity":0.3937007874015748},{"duration":0.10135125000000045,"midi":42,"time":25.337812500000002,"velocity":0.3937007874015748},{"duration":0.10135125000000045,"midi":37,"time":25.540515,"velocity":0.3937007874015748},{"duration":0.10135125000000045,"midi":42,"time":25.540515,"velocity":0.3937007874015748},{"duration":0.10135125000000045,"midi":42,"time":25.7432175,"velocity":0.3937007874015748},{"duration":0.10135125000000045,"midi":37,"time":25.94592,"velocity":0.3937007874015748},{"duration":0.10135125000000045,"midi":42,"time":25.94592,"velocity":0.3937007874015748},{"duration":0.10135125000000045,"midi":42,"time":26.148622500000002,"velocity":0.3937007874015748},{"duration":0.1013512499999969,"midi":42,"time":26.351325000000003,"velocity":0.3937007874015748},{"duration":0.10135125000000045,"midi":37,"time":26.5540275,"velocity":0.3937007874015748},{"duration":0.10135125000000045,"midi":42,"time":26.5540275,"velocity":0.3937007874015748},{"duration":0.10135125000000045,"midi":42,"time":26.75673,"velocity":0.3937007874015748},{"duration":0.10135125000000045,"midi":42,"time":26.959432500000002,"velocity":0.3937007874015748},{"duration":0.10135125000000045,"midi":42,"time":27.162135,"velocity":0.3937007874015748},{"duration":0.10135125000000045,"midi":37,"time":27.162135,"velocity":0.3937007874015748},{"duration":0.10135125000000045,"midi":42,"time":27.3648375,"velocity":0.3937007874015748},{"duration":0.10135125000000045,"midi":42,"time":27.56754,"velocity":0.3937007874015748},{"duration":0.10135125000000045,"midi":42,"time":27.770242500000002,"velocity":0.3937007874015748},{"duration":0.1013512499999969,"midi":37,"time":27.972945000000003,"velocity":0.3937007874015748},{"duration":0.1013512499999969,"midi":42,"time":27.972945000000003,"velocity":0.3937007874015748},{"duration":0.10135125000000045,"midi":37,"time":28.1756475,"velocity":0.3937007874015748},{"duration":0.10135125000000045,"midi":42,"time":28.1756475,"velocity":0.3937007874015748},{"duration":0.10135125000000045,"midi":42,"time":28.37835,"velocity":0.3937007874015748},{"duration":0.10135125000000045,"midi":37,"time":28.37835,"velocity":0.3937007874015748},{"duration":0.10135125000000045,"midi":37,"time":28.581052500000002,"velocity":0.3937007874015748},{"duration":0.10135125000000045,"midi":42,"time":28.581052500000002,"velocity":0.3937007874015748},{"duration":0.10135125000000045,"midi":42,"time":28.783755,"velocity":0.3937007874015748},{"duration":0.10135125000000045,"midi":37,"time":28.783755,"velocity":0.3937007874015748},{"duration":0.10135125000000045,"midi":42,"time":28.9864575,"velocity":0.3937007874015748},{"duration":0.10135125000000045,"midi":42,"time":29.18916,"velocity":0.3937007874015748},{"duration":0.10135125000000045,"midi":37,"time":29.18916,"velocity":0.3937007874015748},{"duration":0.10135125000000045,"midi":42,"time":29.391862500000002,"velocity":0.3937007874015748},{"duration":0.1013512499999969,"midi":42,"time":29.594565000000003,"velocity":0.3937007874015748},{"duration":0.10135125000000045,"midi":37,"time":29.7972675,"velocity":0.3937007874015748},{"duration":0.10135125000000045,"midi":42,"time":29.7972675,"velocity":0.3937007874015748},{"duration":0.10135125000000045,"midi":42,"time":29.99997,"velocity":0.3937007874015748},{"duration":0.10135125000000045,"midi":42,"time":30.202672500000002,"velocity":0.3937007874015748},{"duration":0.10135125000000045,"midi":37,"time":30.405375,"velocity":0.3937007874015748},{"duration":0.10135125000000045,"midi":42,"time":30.405375,"velocity":0.3937007874015748},{"duration":0.10135125000000045,"midi":42,"time":30.6080775,"velocity":0.3937007874015748},{"duration":0.10135125000000045,"midi":42,"time":30.81078,"velocity":0.3937007874015748},{"duration":0.10135125000000045,"midi":42,"time":31.013482500000002,"velocity":0.3937007874015748},{"duration":0.1013512499999969,"midi":42,"time":31.216185000000003,"velocity":0.3937007874015748},{"duration":0.1013512499999969,"midi":37,"time":31.216185000000003,"velocity":0.3937007874015748},{"duration":0.10135125000000045,"midi":42,"time":31.4188875,"velocity":0.3937007874015748},{"duration":0.10135125000000045,"midi":37,"time":31.4188875,"velocity":0.3937007874015748},{"duration":0.10135125000000045,"midi":42,"time":31.62159,"velocity":0.3937007874015748},{"duration":0.10135125000000045,"midi":37,"time":31.62159,"velocity":0.3937007874015748},{"duration":0.10135125000000045,"midi":37,"time":31.824292500000002,"velocity":0.3937007874015748},{"duration":0.10135125000000045,"midi":42,"time":31.824292500000002,"velocity":0.3937007874015748},{"duration":0.10135125000000045,"midi":42,"time":32.026995,"velocity":0.3937007874015748},{"duration":0.10135125000000045,"midi":37,"time":32.026995,"velocity":0.3937007874015748},{"duration":0.10135125000000045,"midi":42,"time":32.2296975,"velocity":0.3937007874015748},{"duration":0.10135125000000045,"midi":37,"time":32.4324,"velocity":0.3937007874015748},{"duration":0.10135125000000045,"midi":42,"time":32.4324,"velocity":0.3937007874015748},{"duration":0.10135125000000045,"midi":42,"time":32.6351025,"velocity":0.3937007874015748},{"duration":0.10135125000000045,"midi":42,"time":32.837805,"velocity":0.3937007874015748},{"duration":0.10135125000000045,"midi":37,"time":33.040507500000004,"velocity":0.3937007874015748},{"duration":0.10135125000000045,"midi":42,"time":33.040507500000004,"velocity":0.3937007874015748},{"duration":0.10135124999999334,"midi":42,"time":33.243210000000005,"velocity":0.3937007874015748},{"duration":0.10135125000000045,"midi":42,"time":33.4459125,"velocity":0.3937007874015748},{"duration":0.10135125000000045,"midi":42,"time":33.648615,"velocity":0.3937007874015748},{"duration":0.10135125000000045,"midi":37,"time":33.648615,"velocity":0.3937007874015748},{"duration":0.10135125000000045,"midi":42,"time":33.8513175,"velocity":0.3937007874015748},{"duration":0.10135125000000045,"midi":42,"time":34.05402,"velocity":0.3937007874015748},{"duration":0.10135125000000045,"midi":42,"time":34.2567225,"velocity":0.3937007874015748},{"duration":0.10135125000000045,"midi":37,"time":34.459425,"velocity":0.3937007874015748},{"duration":0.10135125000000045,"midi":42,"time":34.459425,"velocity":0.3937007874015748},{"duration":0.10135125000000045,"midi":42,"time":34.662127500000004,"velocity":0.3937007874015748},{"duration":0.10135125000000045,"midi":37,"time":34.662127500000004,"velocity":0.3937007874015748},{"duration":0.10135125000000045,"midi":42,"time":34.86483,"velocity":0.3937007874015748},{"duration":0.10135125000000045,"midi":37,"time":34.86483,"velocity":0.3937007874015748},{"duration":0.10135125000000045,"midi":42,"time":35.0675325,"velocity":0.3937007874015748},{"duration":0.10135125000000045,"midi":37,"time":35.0675325,"velocity":0.3937007874015748},{"duration":0.10135125000000045,"midi":37,"time":35.270235,"velocity":0.3937007874015748},{"duration":0.10135125000000045,"midi":42,"time":35.270235,"velocity":0.3937007874015748},{"duration":0.10135125000000045,"midi":42,"time":35.4729375,"velocity":0.3937007874015748},{"duration":0.10135125000000045,"midi":37,"time":35.67564,"velocity":0.3937007874015748},{"duration":0.10135125000000045,"midi":42,"time":35.67564,"velocity":0.3937007874015748},{"duration":0.10135125000000045,"midi":42,"time":35.8783425,"velocity":0.3937007874015748},{"duration":0.10135125000000045,"midi":42,"time":36.081045,"velocity":0.3937007874015748},{"duration":0.10135125000000045,"midi":37,"time":36.283747500000004,"velocity":0.3937007874015748},{"duration":0.10135125000000045,"midi":42,"time":36.283747500000004,"velocity":0.3937007874015748},{"duration":0.10135124999999334,"midi":42,"time":36.486450000000005,"velocity":0.3937007874015748},{"duration":0.10135125000000045,"midi":42,"time":36.6891525,"velocity":0.3937007874015748},{"duration":0.10135125000000045,"midi":42,"time":36.891855,"velocity":0.3937007874015748},{"duration":0.10135125000000045,"midi":37,"time":36.891855,"velocity":0.3937007874015748},{"duration":0.10135125000000045,"midi":42,"time":37.0945575,"velocity":0.3937007874015748},{"duration":0.10135125000000045,"midi":42,"time":37.29726,"velocity":0.3937007874015748},{"duration":0.10135125000000045,"midi":42,"time":37.4999625,"velocity":0.3937007874015748},{"duration":0.10135125000000045,"midi":37,"time":37.702665,"velocity":0.3937007874015748},{"duration":0.10135125000000045,"midi":42,"time":37.702665,"velocity":0.3937007874015748},{"duration":0.10135125000000045,"midi":37,"time":37.905367500000004,"velocity":0.3937007874015748},{"duration":0.10135125000000045,"midi":42,"time":37.905367500000004,"velocity":0.3937007874015748},{"duration":0.10135125000000045,"midi":42,"time":38.10807,"velocity":0.3937007874015748},{"duration":0.10135125000000045,"midi":37,"time":38.10807,"velocity":0.3937007874015748},{"duration":0.10135125000000045,"midi":42,"time":38.3107725,"velocity":0.3937007874015748},{"duration":0.10135125000000045,"midi":37,"time":38.3107725,"velocity":0.3937007874015748},{"duration":0.10135125000000045,"midi":37,"time":38.513475,"velocity":0.3937007874015748},{"duration":0.10135125000000045,"midi":42,"time":38.513475,"velocity":0.3937007874015748},{"duration":0.10135125000000045,"midi":42,"time":38.7161775,"velocity":0.3937007874015748},{"duration":0.10135125000000045,"midi":37,"time":38.91888,"velocity":0.3937007874015748},{"duration":0.10135125000000045,"midi":42,"time":38.91888,"velocity":0.3937007874015748},{"duration":0.10135125000000045,"midi":42,"time":39.1215825,"velocity":0.3937007874015748},{"duration":0.10135125000000045,"midi":42,"time":39.324285,"velocity":0.3937007874015748},{"duration":0.10135125000000045,"midi":42,"time":39.526987500000004,"velocity":0.3937007874015748},{"duration":0.10135125000000045,"midi":37,"time":39.526987500000004,"velocity":0.3937007874015748},{"duration":0.10135124999999334,"midi":42,"time":39.729690000000005,"velocity":0.3937007874015748},{"duration":0.10135125000000045,"midi":42,"time":39.9323925,"velocity":0.3937007874015748},{"duration":0.10135125000000045,"midi":42,"time":40.135095,"velocity":0.3937007874015748},{"duration":0.10135125000000045,"midi":37,"time":40.135095,"velocity":0.3937007874015748},{"duration":0.10135125000000045,"midi":42,"time":40.3377975,"velocity":0.3937007874015748},{"duration":0.10135125000000045,"midi":42,"time":40.5405,"velocity":0.3937007874015748},{"duration":0.10135125000000045,"midi":42,"time":40.7432025,"velocity":0.3937007874015748},{"duration":0.10135125000000045,"midi":42,"time":40.945905,"velocity":0.3937007874015748},{"duration":0.10135125000000045,"midi":37,"time":40.945905,"velocity":0.3937007874015748},{"duration":0.10135125000000045,"midi":42,"time":41.148607500000004,"velocity":0.3937007874015748},{"duration":0.10135125000000045,"midi":37,"time":41.148607500000004,"velocity":0.3937007874015748},{"duration":0.10135125000000045,"midi":37,"time":41.35131,"velocity":0.3937007874015748},{"duration":0.10135125000000045,"midi":42,"time":41.35131,"velocity":0.3937007874015748},{"duration":0.10135125000000045,"midi":42,"time":41.5540125,"velocity":0.3937007874015748},{"duration":0.10135125000000045,"midi":37,"time":41.5540125,"velocity":0.3937007874015748},{"duration":0.10135125000000045,"midi":37,"time":41.756715,"velocity":0.3937007874015748},{"duration":0.10135125000000045,"midi":42,"time":41.756715,"velocity":0.3937007874015748},{"duration":0.10135125000000045,"midi":42,"time":41.9594175,"velocity":0.3937007874015748},{"duration":0.10135125000000045,"midi":42,"time":42.16212,"velocity":0.3937007874015748},{"duration":0.10135125000000045,"midi":37,"time":42.16212,"velocity":0.3937007874015748},{"duration":0.10135125000000045,"midi":42,"time":42.3648225,"velocity":0.3937007874015748},{"duration":0.10135125000000045,"midi":42,"time":42.567525,"velocity":0.3937007874015748},{"duration":0.10135125000000045,"midi":37,"time":42.770227500000004,"velocity":0.3937007874015748},{"duration":0.10135125000000045,"midi":42,"time":42.770227500000004,"velocity":0.3937007874015748},{"duration":0.10135124999999334,"midi":42,"time":42.972930000000005,"velocity":0.3937007874015748},{"duration":0.10135125000000045,"midi":42,"time":43.1756325,"velocity":0.3937007874015748},{"duration":0.10135125000000045,"midi":42,"time":43.378335,"velocity":0.3937007874015748},{"duration":0.10135125000000045,"midi":37,"time":43.378335,"velocity":0.3937007874015748},{"duration":0.10135125000000045,"midi":42,"time":43.5810375,"velocity":0.3937007874015748},{"duration":0.10135125000000045,"midi":42,"time":43.78374,"velocity":0.3937007874015748},{"duration":0.10135125000000045,"midi":42,"time":43.9864425,"velocity":0.3937007874015748},{"duration":0.10135125000000045,"midi":42,"time":44.189145,"velocity":0.3937007874015748},{"duration":0.10135125000000045,"midi":37,"time":44.189145,"velocity":0.3937007874015748},{"duration":0.10135125000000045,"midi":37,"time":44.391847500000004,"velocity":0.3937007874015748},{"duration":0.10135125000000045,"midi":42,"time":44.391847500000004,"velocity":0.3937007874015748},{"duration":0.10135125000000045,"midi":42,"time":44.59455,"velocity":0.3937007874015748},{"duration":0.10135125000000045,"midi":37,"time":44.59455,"velocity":0.3937007874015748},{"duration":0.10135125000000045,"midi":42,"time":44.7972525,"velocity":0.3937007874015748},{"duration":0.10135125000000045,"midi":37,"time":44.7972525,"velocity":0.3937007874015748},{"duration":0.10135125000000045,"midi":37,"time":44.999955,"velocity":0.3937007874015748},{"duration":0.10135125000000045,"midi":42,"time":44.999955,"velocity":0.3937007874015748},{"duration":0.10135125000000045,"midi":42,"time":45.2026575,"velocity":0.3937007874015748},{"duration":0.10135125000000045,"midi":37,"time":45.40536,"velocity":0.3937007874015748},{"duration":0.10135125000000045,"midi":42,"time":45.40536,"velocity":0.3937007874015748},{"duration":0.10135125000000045,"midi":42,"time":45.6080625,"velocity":0.3937007874015748},{"duration":0.10135125000000045,"midi":42,"time":45.810765,"velocity":0.3937007874015748},{"duration":0.10135125000000045,"midi":42,"time":46.013467500000004,"velocity":0.3937007874015748},{"duration":0.10135125000000045,"midi":37,"time":46.013467500000004,"velocity":0.3937007874015748},{"duration":0.10135124999999334,"midi":42,"time":46.216170000000005,"velocity":0.3937007874015748},{"duration":0.10135125000000045,"midi":42,"time":46.4188725,"velocity":0.3937007874015748},{"duration":0.10135125000000045,"midi":42,"time":46.621575,"velocity":0.3937007874015748},{"duration":0.10135125000000045,"midi":37,"time":46.621575,"velocity":0.3937007874015748},{"duration":0.10135125000000045,"midi":42,"time":46.8242775,"velocity":0.3937007874015748},{"duration":0.10135125000000045,"midi":42,"time":47.02698,"velocity":0.3937007874015748},{"duration":0.10135125000000045,"midi":42,"time":47.2296825,"velocity":0.3937007874015748},{"duration":0.10135125000000045,"midi":42,"time":47.432385000000004,"velocity":0.3937007874015748},{"duration":0.10135125000000045,"midi":37,"time":47.432385000000004,"velocity":0.3937007874015748},{"duration":0.10135125000000045,"midi":42,"time":47.635087500000004,"velocity":0.3937007874015748},{"duration":0.10135125000000045,"midi":37,"time":47.635087500000004,"velocity":0.3937007874015748},{"duration":0.10135125000000045,"midi":37,"time":47.83779,"velocity":0.3937007874015748},{"duration":0.10135125000000045,"midi":42,"time":47.83779,"velocity":0.3937007874015748},{"duration":0.10135125000000045,"midi":42,"time":48.0404925,"velocity":0.3937007874015748},{"duration":0.10135125000000045,"midi":37,"time":48.0404925,"velocity":0.3937007874015748},{"duration":0.10135125000000045,"midi":37,"time":48.243195,"velocity":0.3937007874015748},{"duration":0.10135125000000045,"midi":42,"time":48.243195,"velocity":0.3937007874015748},{"duration":0.10135125000000045,"midi":42,"time":48.4458975,"velocity":0.3937007874015748},{"duration":0.10135125000000045,"midi":37,"time":48.6486,"velocity":0.3937007874015748},{"duration":0.10135125000000045,"midi":42,"time":48.6486,"velocity":0.3937007874015748},{"duration":0.10135125000000045,"midi":42,"time":48.8513025,"velocity":0.3937007874015748},{"duration":0.10135125000000045,"midi":42,"time":49.054005000000004,"velocity":0.3937007874015748},{"duration":0.10135125000000045,"midi":42,"time":49.256707500000005,"velocity":0.3937007874015748},{"duration":0.10135125000000045,"midi":37,"time":49.256707500000005,"velocity":0.3937007874015748},{"duration":0.10135124999999334,"midi":42,"time":49.459410000000005,"velocity":0.3937007874015748},{"duration":0.10135125000000045,"midi":42,"time":49.6621125,"velocity":0.3937007874015748},{"duration":0.10135125000000045,"midi":42,"time":49.864815,"velocity":0.3937007874015748},{"duration":0.10135125000000045,"midi":37,"time":49.864815,"velocity":0.3937007874015748},{"duration":0.10135125000000045,"midi":42,"time":50.0675175,"velocity":0.3937007874015748},{"duration":0.10135125000000045,"midi":42,"time":50.27022,"velocity":0.3937007874015748},{"duration":0.10135125000000045,"midi":42,"time":50.4729225,"velocity":0.3937007874015748},{"duration":0.10135125000000045,"midi":42,"time":50.675625000000004,"velocity":0.3937007874015748},{"duration":0.10135125000000045,"midi":37,"time":50.675625000000004,"velocity":0.3937007874015748},{"duration":0.10135125000000045,"midi":37,"time":50.878327500000005,"velocity":0.3937007874015748},{"duration":0.10135125000000045,"midi":42,"time":50.878327500000005,"velocity":0.3937007874015748},{"duration":0.10135125000000045,"midi":42,"time":51.08103,"velocity":0.3937007874015748},{"duration":0.10135125000000045,"midi":37,"time":51.08103,"velocity":0.3937007874015748},{"duration":0.10135125000000045,"midi":42,"time":51.2837325,"velocity":0.3937007874015748},{"duration":0.10135125000000045,"midi":37,"time":51.2837325,"velocity":0.3937007874015748},{"duration":0.10135125000000045,"midi":37,"time":51.486435,"velocity":0.3937007874015748},{"duration":0.10135125000000045,"midi":42,"time":51.486435,"velocity":0.3937007874015748},{"duration":0.10135125000000045,"midi":42,"time":51.6891375,"velocity":0.3937007874015748},{"duration":0.10135125000000045,"midi":42,"time":51.89184,"velocity":0.3937007874015748},{"duration":0.10135125000000045,"midi":37,"time":51.89184,"velocity":0.3937007874015748},{"duration":0.10135125000000045,"midi":42,"time":52.0945425,"velocity":0.3937007874015748},{"duration":0.10135125000000045,"midi":42,"time":52.297245000000004,"velocity":0.3937007874015748},{"duration":0.10135125000000045,"midi":37,"time":52.499947500000005,"velocity":0.3937007874015748},{"duration":0.10135125000000045,"midi":42,"time":52.499947500000005,"velocity":0.3937007874015748},{"duration":0.10135124999999334,"midi":42,"time":52.702650000000006,"velocity":0.3937007874015748},{"duration":0.10135125000000045,"midi":42,"time":52.9053525,"velocity":0.3937007874015748},{"duration":0.10135125000000045,"midi":42,"time":53.108055,"velocity":0.3937007874015748},{"duration":0.10135125000000045,"midi":37,"time":53.108055,"velocity":0.3937007874015748},{"duration":0.10135125000000045,"midi":42,"time":53.3107575,"velocity":0.3937007874015748},{"duration":0.10135125000000045,"midi":42,"time":53.51346,"velocity":0.3937007874015748},{"duration":0.10135125000000045,"midi":42,"time":53.7161625,"velocity":0.3937007874015748},{"duration":0.10135125000000045,"midi":37,"time":53.918865000000004,"velocity":0.3937007874015748},{"duration":0.10135125000000045,"midi":42,"time":53.918865000000004,"velocity":0.3937007874015748},{"duration":0.10135125000000045,"midi":37,"time":54.121567500000005,"velocity":0.3937007874015748},{"duration":0.10135125000000045,"midi":42,"time":54.121567500000005,"velocity":0.3937007874015748},{"duration":0.10135125000000045,"midi":37,"time":54.32427,"velocity":0.3937007874015748},{"duration":0.10135125000000045,"midi":42,"time":54.32427,"velocity":0.3937007874015748},{"duration":0.10135125000000045,"midi":42,"time":54.5269725,"velocity":0.3937007874015748},{"duration":0.10135125000000045,"midi":37,"time":54.5269725,"velocity":0.3937007874015748},{"duration":0.10135125000000045,"midi":42,"time":54.729675,"velocity":0.3937007874015748},{"duration":0.10135125000000045,"midi":37,"time":54.729675,"velocity":0.3937007874015748},{"duration":0.10135125000000045,"midi":42,"time":54.9323775,"velocity":0.3937007874015748},{"duration":0.10135125000000045,"midi":42,"time":55.13508,"velocity":0.3937007874015748},{"duration":0.10135125000000045,"midi":37,"time":55.13508,"velocity":0.3937007874015748},{"duration":0.10135125000000045,"midi":42,"time":55.3377825,"velocity":0.3937007874015748},{"duration":0.10135125000000045,"midi":42,"time":55.540485000000004,"velocity":0.3937007874015748},{"duration":0.10135125000000045,"midi":37,"time":55.743187500000005,"velocity":0.3937007874015748},{"duration":0.10135125000000045,"midi":42,"time":55.743187500000005,"velocity":0.3937007874015748},{"duration":0.10135124999999334,"midi":42,"time":55.945890000000006,"velocity":0.3937007874015748},{"duration":0.10135125000000045,"midi":42,"time":56.1485925,"velocity":0.3937007874015748},{"duration":0.10135125000000045,"midi":37,"time":56.351295,"velocity":0.3937007874015748},{"duration":0.10135125000000045,"midi":42,"time":56.351295,"velocity":0.3937007874015748},{"duration":0.10135125000000045,"midi":42,"time":56.5539975,"velocity":0.3937007874015748},{"duration":0.10135125000000045,"midi":42,"time":56.7567,"velocity":0.3937007874015748},{"duration":0.10135125000000045,"midi":42,"time":56.9594025,"velocity":0.3937007874015748},{"duration":0.10135125000000045,"midi":37,"time":57.162105000000004,"velocity":0.3937007874015748},{"duration":0.10135125000000045,"midi":34,"time":57.162105000000004,"velocity":0.3937007874015748},{"duration":0.10135125000000045,"midi":85,"time":57.162105000000004,"velocity":0.3937007874015748},{"duration":0.10135125000000045,"midi":42,"time":58.37832,"velocity":0.3937007874015748},{"duration":0.10135125000000045,"midi":37,"time":58.37832,"velocity":0.3937007874015748},{"duration":0.10135125000000045,"midi":42,"time":58.5810225,"velocity":0.3937007874015748},{"duration":0.10135125000000045,"midi":42,"time":58.783725000000004,"velocity":0.3937007874015748},{"duration":0.10135125000000045,"midi":37,"time":58.986427500000005,"velocity":0.3937007874015748},{"duration":0.10135125000000045,"midi":42,"time":58.986427500000005,"velocity":0.3937007874015748},{"duration":0.10135124999999334,"midi":42,"time":59.189130000000006,"velocity":0.3937007874015748},{"duration":0.10135125000000045,"midi":42,"time":59.3918325,"velocity":0.3937007874015748},{"duration":0.10135125000000045,"midi":42,"time":59.594535,"velocity":0.3937007874015748},{"duration":0.10135125000000045,"midi":42,"time":59.7972375,"velocity":0.3937007874015748},{"duration":0.10135125000000045,"midi":37,"time":59.7972375,"velocity":0.3937007874015748},{"duration":0.10135125000000045,"midi":42,"time":59.99994,"velocity":0.3937007874015748},{"duration":0.10135125000000045,"midi":42,"time":60.2026425,"velocity":0.3937007874015748},{"duration":0.10135125000000045,"midi":37,"time":60.405345000000004,"velocity":0.3937007874015748},{"duration":0.10135125000000045,"midi":42,"time":60.405345000000004,"velocity":0.3937007874015748},{"duration":0.10135125000000045,"midi":42,"time":60.608047500000005,"velocity":0.3937007874015748},{"duration":0.10135125000000045,"midi":42,"time":60.81075,"velocity":0.3937007874015748},{"duration":0.10135125000000045,"midi":37,"time":60.81075,"velocity":0.3937007874015748},{"duration":0.10135125000000045,"midi":42,"time":61.0134525,"velocity":0.3937007874015748},{"duration":0.10135125000000045,"midi":42,"time":61.216155,"velocity":0.3937007874015748},{"duration":0.10135125000000045,"midi":37,"time":61.216155,"velocity":0.3937007874015748},{"duration":0.10135125000000045,"midi":42,"time":61.4188575,"velocity":0.3937007874015748},{"duration":0.10135125000000045,"midi":42,"time":61.62156,"velocity":0.3937007874015748},{"duration":0.10135125000000045,"midi":37,"time":61.62156,"velocity":0.3937007874015748},{"duration":0.10135125000000045,"midi":42,"time":61.8242625,"velocity":0.3937007874015748},{"duration":0.10135125000000045,"midi":42,"time":62.026965000000004,"velocity":0.3937007874015748},{"duration":0.10135125000000045,"midi":42,"time":62.229667500000005,"velocity":0.3937007874015748},{"duration":0.10135125000000045,"midi":37,"time":62.229667500000005,"velocity":0.3937007874015748},{"duration":0.10135124999999334,"midi":42,"time":62.432370000000006,"velocity":0.3937007874015748},{"duration":0.10135125000000045,"midi":42,"time":62.6350725,"velocity":0.3937007874015748},{"duration":0.10135125000000045,"midi":42,"time":62.837775,"velocity":0.3937007874015748},{"duration":0.10135125000000045,"midi":42,"time":63.0404775,"velocity":0.3937007874015748},{"duration":0.10135125000000045,"midi":37,"time":63.0404775,"velocity":0.3937007874015748},{"duration":0.10135125000000045,"midi":42,"time":63.24318,"velocity":0.3937007874015748},{"duration":0.10135125000000045,"midi":42,"time":63.4458825,"velocity":0.3937007874015748},{"duration":0.10135125000000045,"midi":42,"time":63.648585000000004,"velocity":0.3937007874015748},{"duration":0.10135125000000045,"midi":37,"time":63.648585000000004,"velocity":0.3937007874015748},{"duration":0.10135125000000045,"midi":42,"time":63.851287500000005,"velocity":0.3937007874015748},{"duration":0.10135125000000755,"midi":42,"time":64.05399,"velocity":0.3937007874015748},{"duration":0.10135125000000755,"midi":37,"time":64.05399,"velocity":0.3937007874015748},{"duration":0.10135125000000755,"midi":42,"time":64.2566925,"velocity":0.3937007874015748},{"duration":0.10135125000000755,"midi":37,"time":64.459395,"velocity":0.3937007874015748},{"duration":0.10135125000000755,"midi":42,"time":64.459395,"velocity":0.3937007874015748},{"duration":0.10135125000000755,"midi":42,"time":64.6620975,"velocity":0.3937007874015748},{"duration":0.10135124999999334,"midi":37,"time":64.8648,"velocity":0.3937007874015748},{"duration":0.10135124999999334,"midi":42,"time":64.8648,"velocity":0.3937007874015748},{"duration":0.10135124999999334,"midi":42,"time":65.0675025,"velocity":0.3937007874015748},{"duration":0.10135124999999334,"midi":42,"time":65.270205,"velocity":0.3937007874015748},{"duration":0.10135124999999334,"midi":37,"time":65.4729075,"velocity":0.3937007874015748},{"duration":0.10135124999999334,"midi":42,"time":65.4729075,"velocity":0.3937007874015748},{"duration":0.10135124999999334,"midi":42,"time":65.67561,"velocity":0.3937007874015748},{"duration":0.10135124999999334,"midi":42,"time":65.8783125,"velocity":0.3937007874015748},{"duration":0.10135124999999334,"midi":37,"time":66.08101500000001,"velocity":0.3937007874015748},{"duration":0.10135124999999334,"midi":42,"time":66.08101500000001,"velocity":0.3937007874015748},{"duration":0.10135124999999334,"midi":42,"time":66.28371750000001,"velocity":0.3937007874015748},{"duration":0.10135124999999334,"midi":42,"time":66.48642000000001,"velocity":0.3937007874015748},{"duration":0.10135125000000755,"midi":42,"time":66.6891225,"velocity":0.3937007874015748},{"duration":0.10135125000000755,"midi":37,"time":66.891825,"velocity":0.3937007874015748},{"duration":0.10135125000000755,"midi":42,"time":66.891825,"velocity":0.3937007874015748},{"duration":0.10135125000000755,"midi":42,"time":67.0945275,"velocity":0.3937007874015748},{"duration":0.10135125000000755,"midi":37,"time":67.0945275,"velocity":0.3937007874015748},{"duration":0.10135125000000755,"midi":37,"time":67.29723,"velocity":0.3937007874015748},{"duration":0.10135125000000755,"midi":42,"time":67.29723,"velocity":0.3937007874015748},{"duration":0.10135125000000755,"midi":42,"time":67.4999325,"velocity":0.3937007874015748},{"duration":0.10135125000000755,"midi":37,"time":67.4999325,"velocity":0.3937007874015748},{"duration":0.10135125000000755,"midi":37,"time":67.702635,"velocity":0.3937007874015748},{"duration":0.10135125000000755,"midi":42,"time":67.702635,"velocity":0.3937007874015748},{"duration":0.10135125000000755,"midi":42,"time":67.9053375,"velocity":0.3937007874015748},{"duration":0.10135124999999334,"midi":37,"time":68.10804,"velocity":0.3937007874015748},{"duration":0.10135124999999334,"midi":42,"time":68.10804,"velocity":0.3937007874015748},{"duration":0.10135124999999334,"midi":42,"time":68.3107425,"velocity":0.3937007874015748},{"duration":0.10135124999999334,"midi":42,"time":68.513445,"velocity":0.3937007874015748},{"duration":0.10135124999999334,"midi":37,"time":68.7161475,"velocity":0.3937007874015748},{"duration":0.10135124999999334,"midi":42,"time":68.7161475,"velocity":0.3937007874015748},{"duration":0.10135124999999334,"midi":42,"time":68.91885,"velocity":0.3937007874015748},{"duration":0.10135124999999334,"midi":42,"time":69.1215525,"velocity":0.3937007874015748},{"duration":0.10135124999999334,"midi":42,"time":69.32425500000001,"velocity":0.3937007874015748},{"duration":0.10135124999999334,"midi":37,"time":69.32425500000001,"velocity":0.3937007874015748},{"duration":0.10135124999999334,"midi":42,"time":69.52695750000001,"velocity":0.3937007874015748},{"duration":0.10135125000000755,"midi":42,"time":69.72966,"velocity":0.3937007874015748},{"duration":0.10135125000000755,"midi":42,"time":69.9323625,"velocity":0.3937007874015748},{"duration":0.10135125000000755,"midi":42,"time":70.135065,"velocity":0.3937007874015748},{"duration":0.10135125000000755,"midi":37,"time":70.135065,"velocity":0.3937007874015748},{"duration":0.10135125000000755,"midi":42,"time":70.3377675,"velocity":0.3937007874015748},{"duration":0.10135125000000755,"midi":37,"time":70.3377675,"velocity":0.3937007874015748},{"duration":0.10135125000000755,"midi":42,"time":70.54047,"velocity":0.3937007874015748},{"duration":0.10135125000000755,"midi":37,"time":70.54047,"velocity":0.3937007874015748},{"duration":0.10135125000000755,"midi":37,"time":70.7431725,"velocity":0.3937007874015748},{"duration":0.10135125000000755,"midi":42,"time":70.7431725,"velocity":0.3937007874015748},{"duration":0.10135125000000755,"midi":37,"time":70.945875,"velocity":0.3937007874015748},{"duration":0.10135125000000755,"midi":42,"time":70.945875,"velocity":0.3937007874015748},{"duration":0.10135125000000755,"midi":42,"time":71.1485775,"velocity":0.3937007874015748},{"duration":0.10135124999999334,"midi":42,"time":71.35128,"velocity":0.3937007874015748},{"duration":0.10135124999999334,"midi":37,"time":71.35128,"velocity":0.3937007874015748},{"duration":0.10135124999999334,"midi":42,"time":71.5539825,"velocity":0.3937007874015748},{"duration":0.10135124999999334,"midi":42,"time":71.756685,"velocity":0.3937007874015748},{"duration":0.10135124999999334,"midi":42,"time":71.9593875,"velocity":0.3937007874015748},{"duration":0.10135124999999334,"midi":37,"time":71.9593875,"velocity":0.3937007874015748},{"duration":0.10135124999999334,"midi":42,"time":72.16209,"velocity":0.3937007874015748},{"duration":0.10135124999999334,"midi":42,"time":72.36479250000001,"velocity":0.3937007874015748},{"duration":0.10135124999999334,"midi":42,"time":72.56749500000001,"velocity":0.3937007874015748},{"duration":0.10135124999999334,"midi":37,"time":72.56749500000001,"velocity":0.3937007874015748},{"duration":0.10135124999999334,"midi":42,"time":72.77019750000001,"velocity":0.3937007874015748},{"duration":0.10135124999999334,"midi":42,"time":72.97290000000001,"velocity":0.3937007874015748},{"duration":0.10135125000000755,"midi":42,"time":73.1756025,"velocity":0.3937007874015748},{"duration":0.10135125000000755,"midi":42,"time":73.378305,"velocity":0.3937007874015748},{"duration":0.10135125000000755,"midi":37,"time":73.378305,"velocity":0.3937007874015748},{"duration":0.10135125000000755,"midi":42,"time":73.5810075,"velocity":0.3937007874015748},{"duration":0.10135125000000755,"midi":37,"time":73.5810075,"velocity":0.3937007874015748},{"duration":0.10135125000000755,"midi":37,"time":73.78371,"velocity":0.3937007874015748},{"duration":0.10135125000000755,"midi":42,"time":73.78371,"velocity":0.3937007874015748},{"duration":0.10135125000000755,"midi":42,"time":73.9864125,"velocity":0.3937007874015748},{"duration":0.10135125000000755,"midi":37,"time":73.9864125,"velocity":0.3937007874015748},{"duration":0.10135125000000755,"midi":37,"time":74.189115,"velocity":0.3937007874015748},{"duration":0.10135125000000755,"midi":42,"time":74.189115,"velocity":0.3937007874015748},{"duration":0.10135125000000755,"midi":42,"time":74.3918175,"velocity":0.3937007874015748},{"duration":0.10135124999999334,"midi":42,"time":74.59452,"velocity":0.3937007874015748},{"duration":0.10135124999999334,"midi":37,"time":74.59452,"velocity":0.3937007874015748},{"duration":0.10135124999999334,"midi":42,"time":74.7972225,"velocity":0.3937007874015748},{"duration":0.10135124999999334,"midi":42,"time":74.999925,"velocity":0.3937007874015748},{"duration":0.10135124999999334,"midi":42,"time":75.2026275,"velocity":0.3937007874015748},{"duration":0.10135124999999334,"midi":37,"time":75.2026275,"velocity":0.3937007874015748},{"duration":0.10135124999999334,"midi":42,"time":75.40533,"velocity":0.3937007874015748},{"duration":0.10135124999999334,"midi":42,"time":75.60803250000001,"velocity":0.3937007874015748},{"duration":0.10135124999999334,"midi":37,"time":75.81073500000001,"velocity":0.3937007874015748},{"duration":0.10135124999999334,"midi":42,"time":75.81073500000001,"velocity":0.3937007874015748},{"duration":0.10135124999999334,"midi":42,"time":76.01343750000001,"velocity":0.3937007874015748},{"duration":0.10135125000000755,"midi":42,"time":76.21614,"velocity":0.3937007874015748},{"duration":0.10135125000000755,"midi":42,"time":76.4188425,"velocity":0.3937007874015748},{"duration":0.10135125000000755,"midi":42,"time":76.621545,"velocity":0.3937007874015748},{"duration":0.10135125000000755,"midi":37,"time":76.621545,"velocity":0.3937007874015748},{"duration":0.10135125000000755,"midi":37,"time":76.8242475,"velocity":0.3937007874015748},{"duration":0.10135125000000755,"midi":42,"time":76.8242475,"velocity":0.3937007874015748},{"duration":0.10135125000000755,"midi":42,"time":77.02695,"velocity":0.3937007874015748},{"duration":0.10135125000000755,"midi":37,"time":77.02695,"velocity":0.3937007874015748},{"duration":0.10135125000000755,"midi":37,"time":77.2296525,"velocity":0.3937007874015748},{"duration":0.10135125000000755,"midi":42,"time":77.2296525,"velocity":0.3937007874015748},{"duration":0.10135125000000755,"midi":37,"time":77.432355,"velocity":0.3937007874015748},{"duration":0.10135125000000755,"midi":42,"time":77.432355,"velocity":0.3937007874015748},{"duration":0.10135125000000755,"midi":42,"time":77.6350575,"velocity":0.3937007874015748},{"duration":0.10135124999999334,"midi":37,"time":77.83776,"velocity":0.3937007874015748},{"duration":0.10135124999999334,"midi":42,"time":77.83776,"velocity":0.3937007874015748},{"duration":0.10135124999999334,"midi":42,"time":78.0404625,"velocity":0.3937007874015748},{"duration":0.10135124999999334,"midi":42,"time":78.243165,"velocity":0.3937007874015748},{"duration":0.10135124999999334,"midi":37,"time":78.4458675,"velocity":0.3937007874015748},{"duration":0.10135124999999334,"midi":42,"time":78.4458675,"velocity":0.3937007874015748},{"duration":0.10135124999999334,"midi":42,"time":78.64857,"velocity":0.3937007874015748},{"duration":0.10135124999999334,"midi":42,"time":78.85127250000001,"velocity":0.3937007874015748},{"duration":0.10135124999999334,"midi":37,"time":79.05397500000001,"velocity":0.3937007874015748},{"duration":0.10135124999999334,"midi":42,"time":79.05397500000001,"velocity":0.3937007874015748},{"duration":0.10135124999999334,"midi":42,"time":79.25667750000001,"velocity":0.3937007874015748},{"duration":0.10135124999999334,"midi":42,"time":79.45938000000001,"velocity":0.3937007874015748},{"duration":0.10135125000000755,"midi":42,"time":79.6620825,"velocity":0.3937007874015748},{"duration":0.10135125000000755,"midi":42,"time":79.864785,"velocity":0.3937007874015748},{"duration":0.10135125000000755,"midi":37,"time":79.864785,"velocity":0.3937007874015748},{"duration":0.10135125000000755,"midi":42,"time":80.0674875,"velocity":0.3937007874015748},{"duration":0.10135125000000755,"midi":37,"time":80.0674875,"velocity":0.3937007874015748},{"duration":0.10135125000000755,"midi":42,"time":80.27019,"velocity":0.3937007874015748},{"duration":0.10135125000000755,"midi":37,"time":80.27019,"velocity":0.3937007874015748},{"duration":0.10135125000000755,"midi":37,"time":80.4728925,"velocity":0.3937007874015748},{"duration":0.10135125000000755,"midi":42,"time":80.4728925,"velocity":0.3937007874015748},{"duration":0.10135125000000755,"midi":42,"time":80.675595,"velocity":0.3937007874015748},{"duration":0.10135125000000755,"midi":37,"time":80.675595,"velocity":0.3937007874015748},{"duration":0.10135125000000755,"midi":42,"time":80.8782975,"velocity":0.3937007874015748},{"duration":0.10135124999999334,"midi":37,"time":81.081,"velocity":0.3937007874015748},{"duration":0.10135124999999334,"midi":42,"time":81.081,"velocity":0.3937007874015748},{"duration":0.10135124999999334,"midi":42,"time":81.2837025,"velocity":0.3937007874015748},{"duration":0.10135124999999334,"midi":42,"time":81.486405,"velocity":0.3937007874015748},{"duration":0.10135124999999334,"midi":37,"time":81.6891075,"velocity":0.3937007874015748},{"duration":0.10135124999999334,"midi":42,"time":81.6891075,"velocity":0.3937007874015748},{"duration":0.10135124999999334,"midi":42,"time":81.89181,"velocity":0.3937007874015748},{"duration":0.10135124999999334,"midi":42,"time":82.09451250000001,"velocity":0.3937007874015748},{"duration":0.10135124999999334,"midi":37,"time":82.29721500000001,"velocity":0.3937007874015748},{"duration":0.10135124999999334,"midi":42,"time":82.29721500000001,"velocity":0.3937007874015748},{"duration":0.10135124999999334,"midi":42,"time":82.49991750000001,"velocity":0.3937007874015748},{"duration":0.10135125000000755,"midi":42,"time":82.70262,"velocity":0.3937007874015748},{"duration":0.10135125000000755,"midi":42,"time":82.9053225,"velocity":0.3937007874015748},{"duration":0.10135125000000755,"midi":42,"time":83.108025,"velocity":0.3937007874015748},{"duration":0.10135125000000755,"midi":37,"time":83.108025,"velocity":0.3937007874015748},{"duration":0.10135125000000755,"midi":37,"time":83.3107275,"velocity":0.3937007874015748},{"duration":0.10135125000000755,"midi":42,"time":83.3107275,"velocity":0.3937007874015748},{"duration":0.10135125000000755,"midi":42,"time":83.51343,"velocity":0.3937007874015748},{"duration":0.10135125000000755,"midi":37,"time":83.51343,"velocity":0.3937007874015748},{"duration":0.10135125000000755,"midi":37,"time":83.7161325,"velocity":0.3937007874015748},{"duration":0.10135125000000755,"midi":42,"time":83.7161325,"velocity":0.3937007874015748},{"duration":0.10135125000000755,"midi":42,"time":83.918835,"velocity":0.3937007874015748},{"duration":0.10135125000000755,"midi":37,"time":83.918835,"velocity":0.3937007874015748},{"duration":0.10135125000000755,"midi":42,"time":84.1215375,"velocity":0.3937007874015748},{"duration":0.10135124999999334,"midi":37,"time":84.32424,"velocity":0.3937007874015748},{"duration":0.10135124999999334,"midi":42,"time":84.32424,"velocity":0.3937007874015748},{"duration":0.10135124999999334,"midi":42,"time":84.5269425,"velocity":0.3937007874015748},{"duration":0.10135124999999334,"midi":42,"time":84.729645,"velocity":0.3937007874015748},{"duration":0.10135124999999334,"midi":42,"time":84.9323475,"velocity":0.3937007874015748},{"duration":0.10135124999999334,"midi":37,"time":84.9323475,"velocity":0.3937007874015748},{"duration":0.10135124999999334,"midi":42,"time":85.13505,"velocity":0.3937007874015748},{"duration":0.10135124999999334,"midi":42,"time":85.33775250000001,"velocity":0.3937007874015748},{"duration":0.10135124999999334,"midi":42,"time":85.54045500000001,"velocity":0.3937007874015748},{"duration":0.10135124999999334,"midi":37,"time":85.54045500000001,"velocity":0.3937007874015748},{"duration":0.10135124999999334,"midi":42,"time":85.74315750000001,"velocity":0.3937007874015748},{"duration":0.10135124999999334,"midi":42,"time":85.94586000000001,"velocity":0.3937007874015748},{"duration":0.10135125000000755,"midi":42,"time":86.1485625,"velocity":0.3937007874015748},{"duration":0.10135125000000755,"midi":42,"time":86.351265,"velocity":0.3937007874015748},{"duration":0.10135125000000755,"midi":37,"time":86.351265,"velocity":0.3937007874015748},{"duration":0.10135125000000755,"midi":42,"time":86.5539675,"velocity":0.3937007874015748},{"duration":0.10135125000000755,"midi":37,"time":86.5539675,"velocity":0.3937007874015748},{"duration":0.10135125000000755,"midi":37,"time":86.75667,"velocity":0.3937007874015748},{"duration":0.10135125000000755,"midi":42,"time":86.75667,"velocity":0.3937007874015748},{"duration":0.10135125000000755,"midi":42,"time":86.9593725,"velocity":0.3937007874015748},{"duration":0.10135125000000755,"midi":37,"time":86.9593725,"velocity":0.3937007874015748},{"duration":0.10135125000000755,"midi":37,"time":87.162075,"velocity":0.3937007874015748},{"duration":0.10135125000000755,"midi":42,"time":87.162075,"velocity":0.3937007874015748},{"duration":0.10135125000000755,"midi":42,"time":87.3647775,"velocity":0.3937007874015748},{"duration":0.10135124999999334,"midi":37,"time":87.56748,"velocity":0.3937007874015748},{"duration":0.10135124999999334,"midi":42,"time":87.56748,"velocity":0.3937007874015748},{"duration":0.10135124999999334,"midi":42,"time":87.7701825,"velocity":0.3937007874015748},{"duration":0.10135124999999334,"midi":42,"time":87.972885,"velocity":0.3937007874015748},{"duration":0.10135124999999334,"midi":37,"time":88.1755875,"velocity":0.3937007874015748},{"duration":0.10135124999999334,"midi":42,"time":88.1755875,"velocity":0.3937007874015748},{"duration":0.10135124999999334,"midi":42,"time":88.37829,"velocity":0.3937007874015748},{"duration":0.10135124999999334,"midi":42,"time":88.58099250000001,"velocity":0.3937007874015748},{"duration":0.10135124999999334,"midi":42,"time":88.78369500000001,"velocity":0.3937007874015748},{"duration":0.10135124999999334,"midi":37,"time":88.78369500000001,"velocity":0.3937007874015748},{"duration":0.10135124999999334,"midi":42,"time":88.98639750000001,"velocity":0.3937007874015748},{"duration":0.10135125000000755,"midi":42,"time":89.1891,"velocity":0.3937007874015748},{"duration":0.10135125000000755,"midi":42,"time":89.3918025,"velocity":0.3937007874015748},{"duration":0.10135125000000755,"midi":42,"time":89.594505,"velocity":0.3937007874015748},{"duration":0.10135125000000755,"midi":37,"time":89.594505,"velocity":0.3937007874015748},{"duration":0.10135125000000755,"midi":37,"time":89.7972075,"velocity":0.3937007874015748},{"duration":0.10135125000000755,"midi":42,"time":89.7972075,"velocity":0.3937007874015748},{"duration":0.10135125000000755,"midi":37,"time":89.99991,"velocity":0.3937007874015748},{"duration":0.10135125000000755,"midi":42,"time":89.99991,"velocity":0.3937007874015748},{"duration":0.10135125000000755,"midi":42,"time":90.2026125,"velocity":0.3937007874015748},{"duration":0.10135125000000755,"midi":37,"time":90.2026125,"velocity":0.3937007874015748},{"duration":0.10135125000000755,"midi":37,"time":90.405315,"velocity":0.3937007874015748},{"duration":0.10135125000000755,"midi":42,"time":90.405315,"velocity":0.3937007874015748},{"duration":0.10135125000000755,"midi":42,"time":90.6080175,"velocity":0.3937007874015748},{"duration":0.10135124999999334,"midi":37,"time":90.81072,"velocity":0.3937007874015748},{"duration":0.10135124999999334,"midi":42,"time":90.81072,"velocity":0.3937007874015748},{"duration":0.10135124999999334,"midi":42,"time":91.0134225,"velocity":0.3937007874015748},{"duration":0.10135124999999334,"midi":42,"time":91.216125,"velocity":0.3937007874015748},{"duration":0.10135124999999334,"midi":42,"time":91.4188275,"velocity":0.3937007874015748},{"duration":0.10135124999999334,"midi":37,"time":91.4188275,"velocity":0.3937007874015748},{"duration":0.10135124999999334,"midi":42,"time":91.62153,"velocity":0.3937007874015748},{"duration":0.10135124999999334,"midi":42,"time":91.82423250000001,"velocity":0.3937007874015748},{"duration":0.10135124999999334,"midi":42,"time":92.02693500000001,"velocity":0.3937007874015748},{"duration":0.10135124999999334,"midi":37,"time":92.02693500000001,"velocity":0.3937007874015748},{"duration":0.10135124999999334,"midi":42,"time":92.22963750000001,"velocity":0.3937007874015748},{"duration":0.10135124999999334,"midi":42,"time":92.43234000000001,"velocity":0.3937007874015748},{"duration":0.10135125000000755,"midi":42,"time":92.6350425,"velocity":0.3937007874015748},{"duration":0.10135125000000755,"midi":42,"time":92.837745,"velocity":0.3937007874015748},{"duration":0.10135125000000755,"midi":37,"time":92.837745,"velocity":0.3937007874015748},{"duration":0.10135125000000755,"midi":37,"time":93.0404475,"velocity":0.3937007874015748},{"duration":0.10135125000000755,"midi":42,"time":93.0404475,"velocity":0.3937007874015748},{"duration":0.10135125000000755,"midi":42,"time":93.24315,"velocity":0.3937007874015748},{"duration":0.10135125000000755,"midi":37,"time":93.24315,"velocity":0.3937007874015748},{"duration":0.10135125000000755,"midi":37,"time":93.4458525,"velocity":0.3937007874015748},{"duration":0.10135125000000755,"midi":42,"time":93.4458525,"velocity":0.3937007874015748},{"duration":0.10135125000000755,"midi":42,"time":93.648555,"velocity":0.3937007874015748},{"duration":0.10135125000000755,"midi":37,"time":93.648555,"velocity":0.3937007874015748},{"duration":0.10135125000000755,"midi":42,"time":93.8512575,"velocity":0.3937007874015748},{"duration":0.10135124999999334,"midi":42,"time":94.05396,"velocity":0.3937007874015748},{"duration":0.10135124999999334,"midi":37,"time":94.05396,"velocity":0.3937007874015748},{"duration":0.10135124999999334,"midi":42,"time":94.2566625,"velocity":0.3937007874015748},{"duration":0.10135124999999334,"midi":42,"time":94.459365,"velocity":0.3937007874015748},{"duration":0.10135124999999334,"midi":42,"time":94.6620675,"velocity":0.3937007874015748},{"duration":0.10135124999999334,"midi":37,"time":94.6620675,"velocity":0.3937007874015748},{"duration":0.10135124999999334,"midi":42,"time":94.86477000000001,"velocity":0.3937007874015748},{"duration":0.10135124999999334,"midi":42,"time":95.06747250000001,"velocity":0.3937007874015748},{"duration":0.10135124999999334,"midi":37,"time":95.27017500000001,"velocity":0.3937007874015748},{"duration":0.10135124999999334,"midi":42,"time":95.27017500000001,"velocity":0.3937007874015748},{"duration":0.10135124999999334,"midi":42,"time":95.47287750000001,"velocity":0.3937007874015748},{"duration":0.10135125000000755,"midi":42,"time":95.67558,"velocity":0.3937007874015748},{"duration":0.10135125000000755,"midi":42,"time":95.8782825,"velocity":0.3937007874015748},{"duration":0.10135125000000755,"midi":42,"time":96.080985,"velocity":0.3937007874015748},{"duration":0.10135125000000755,"midi":37,"time":96.080985,"velocity":0.3937007874015748},{"duration":0.10135125000000755,"midi":42,"time":96.2836875,"velocity":0.3937007874015748},{"duration":0.10135125000000755,"midi":37,"time":96.2836875,"velocity":0.3937007874015748},{"duration":0.10135125000000755,"midi":37,"time":96.48639,"velocity":0.3937007874015748},{"duration":0.10135125000000755,"midi":42,"time":96.48639,"velocity":0.3937007874015748},{"duration":0.10135125000000755,"midi":42,"time":96.6890925,"velocity":0.3937007874015748},{"duration":0.10135125000000755,"midi":37,"time":96.6890925,"velocity":0.3937007874015748},{"duration":0.10135125000000755,"midi":42,"time":96.891795,"velocity":0.3937007874015748},{"duration":0.10135125000000755,"midi":37,"time":96.891795,"velocity":0.3937007874015748},{"duration":0.10135125000000755,"midi":42,"time":97.0944975,"velocity":0.3937007874015748},{"duration":0.10135124999999334,"midi":42,"time":97.2972,"velocity":0.3937007874015748},{"duration":0.10135124999999334,"midi":37,"time":97.2972,"velocity":0.3937007874015748},{"duration":0.10135124999999334,"midi":42,"time":97.4999025,"velocity":0.3937007874015748},{"duration":0.10135124999999334,"midi":42,"time":97.702605,"velocity":0.3937007874015748},{"duration":0.10135124999999334,"midi":37,"time":97.9053075,"velocity":0.3937007874015748},{"duration":0.10135124999999334,"midi":42,"time":97.9053075,"velocity":0.3937007874015748},{"duration":0.10135124999999334,"midi":42,"time":98.10801000000001,"velocity":0.3937007874015748},{"duration":0.10135124999999334,"midi":42,"time":98.31071250000001,"velocity":0.3937007874015748},{"duration":0.10135124999999334,"midi":42,"time":98.51341500000001,"velocity":0.3937007874015748},{"duration":0.10135124999999334,"midi":37,"time":98.51341500000001,"velocity":0.3937007874015748},{"duration":0.10135124999999334,"midi":42,"time":98.71611750000001,"velocity":0.3937007874015748},{"duration":0.10135124999999334,"midi":42,"time":98.91882000000001,"velocity":0.3937007874015748},{"duration":0.10135125000000755,"midi":42,"time":99.1215225,"velocity":0.3937007874015748},{"duration":0.10135125000000755,"midi":42,"time":99.324225,"velocity":0.3937007874015748},{"duration":0.10135125000000755,"midi":37,"time":99.324225,"velocity":0.3937007874015748},{"duration":0.10135125000000755,"midi":37,"time":99.5269275,"velocity":0.3937007874015748},{"duration":0.10135125000000755,"midi":42,"time":99.5269275,"velocity":0.3937007874015748},{"duration":0.10135125000000755,"midi":37,"time":99.72963,"velocity":0.3937007874015748},{"duration":0.10135125000000755,"midi":42,"time":99.72963,"velocity":0.3937007874015748},{"duration":0.10135125000000755,"midi":37,"time":99.9323325,"velocity":0.3937007874015748},{"duration":0.10135125000000755,"midi":42,"time":99.9323325,"velocity":0.3937007874015748},{"duration":0.10135125000000755,"midi":37,"time":100.135035,"velocity":0.3937007874015748},{"duration":0.10135125000000755,"midi":42,"time":100.135035,"velocity":0.3937007874015748},{"duration":0.10135125000000755,"midi":42,"time":100.3377375,"velocity":0.3937007874015748},{"duration":0.10135124999999334,"midi":37,"time":100.54044,"velocity":0.3937007874015748},{"duration":0.10135124999999334,"midi":42,"time":100.54044,"velocity":0.3937007874015748},{"duration":0.10135124999999334,"midi":42,"time":100.7431425,"velocity":0.3937007874015748},{"duration":0.10135124999999334,"midi":42,"time":100.945845,"velocity":0.3937007874015748},{"duration":0.10135124999999334,"midi":42,"time":101.1485475,"velocity":0.3937007874015748},{"duration":0.10135124999999334,"midi":37,"time":101.1485475,"velocity":0.3937007874015748},{"duration":0.10135124999999334,"midi":42,"time":101.35125000000001,"velocity":0.3937007874015748},{"duration":0.10135124999999334,"midi":42,"time":101.55395250000001,"velocity":0.3937007874015748},{"duration":0.10135124999999334,"midi":42,"time":101.75665500000001,"velocity":0.3937007874015748},{"duration":0.10135124999999334,"midi":37,"time":101.75665500000001,"velocity":0.3937007874015748},{"duration":0.10135124999999334,"midi":42,"time":101.95935750000001,"velocity":0.3937007874015748},{"duration":0.10135125000000755,"midi":42,"time":102.16206,"velocity":0.3937007874015748},{"duration":0.10135125000000755,"midi":42,"time":102.3647625,"velocity":0.3937007874015748},{"duration":0.10135125000000755,"midi":42,"time":102.567465,"velocity":0.3937007874015748},{"duration":0.10135125000000755,"midi":37,"time":102.567465,"velocity":0.3937007874015748},{"duration":0.10135125000000755,"midi":37,"time":102.7701675,"velocity":0.3937007874015748},{"duration":0.10135125000000755,"midi":42,"time":102.7701675,"velocity":0.3937007874015748},{"duration":0.10135125000000755,"midi":42,"time":102.97287,"velocity":0.3937007874015748},{"duration":0.10135125000000755,"midi":37,"time":102.97287,"velocity":0.3937007874015748},{"duration":0.10135125000000755,"midi":37,"time":103.1755725,"velocity":0.3937007874015748},{"duration":0.10135125000000755,"midi":42,"time":103.1755725,"velocity":0.3937007874015748},{"duration":0.10135125000000755,"midi":42,"time":103.378275,"velocity":0.3937007874015748},{"duration":0.10135125000000755,"midi":37,"time":103.378275,"velocity":0.3937007874015748},{"duration":0.10135125000000755,"midi":42,"time":103.5809775,"velocity":0.3937007874015748},{"duration":0.10135124999999334,"midi":37,"time":103.78368,"velocity":0.3937007874015748},{"duration":0.10135124999999334,"midi":42,"time":103.78368,"velocity":0.3937007874015748},{"duration":0.10135124999999334,"midi":42,"time":103.9863825,"velocity":0.3937007874015748},{"duration":0.10135124999999334,"midi":42,"time":104.189085,"velocity":0.3937007874015748},{"duration":0.10135124999999334,"midi":37,"time":104.3917875,"velocity":0.3937007874015748},{"duration":0.10135124999999334,"midi":42,"time":104.3917875,"velocity":0.3937007874015748},{"duration":0.10135124999999334,"midi":42,"time":104.59449000000001,"velocity":0.3937007874015748},{"duration":0.10135124999999334,"midi":42,"time":104.79719250000001,"velocity":0.3937007874015748},{"duration":0.10135124999999334,"midi":37,"time":104.99989500000001,"velocity":0.3937007874015748},{"duration":0.10135124999999334,"midi":42,"time":104.99989500000001,"velocity":0.3937007874015748},{"duration":0.10135124999999334,"midi":42,"time":105.20259750000001,"velocity":0.3937007874015748},{"duration":0.10135124999999334,"midi":42,"time":105.40530000000001,"velocity":0.3937007874015748},{"duration":0.10135125000000755,"midi":42,"time":105.6080025,"velocity":0.3937007874015748},{"duration":0.10135125000000755,"midi":42,"time":105.810705,"velocity":0.3937007874015748},{"duration":0.10135125000000755,"midi":37,"time":105.810705,"velocity":0.3937007874015748},{"duration":0.10135125000000755,"midi":42,"time":106.0134075,"velocity":0.3937007874015748},{"duration":0.10135125000000755,"midi":37,"time":106.0134075,"velocity":0.3937007874015748},{"duration":0.10135125000000755,"midi":37,"time":106.21611,"velocity":0.3937007874015748},{"duration":0.10135125000000755,"midi":42,"time":106.21611,"velocity":0.3937007874015748},{"duration":0.10135125000000755,"midi":42,"time":106.4188125,"velocity":0.3937007874015748},{"duration":0.10135125000000755,"midi":37,"time":106.4188125,"velocity":0.3937007874015748},{"duration":0.10135125000000755,"midi":37,"time":106.621515,"velocity":0.3937007874015748},{"duration":0.10135125000000755,"midi":42,"time":106.621515,"velocity":0.3937007874015748},{"duration":0.10135125000000755,"midi":42,"time":106.8242175,"velocity":0.3937007874015748},{"duration":0.10135124999999334,"midi":37,"time":107.02692,"velocity":0.3937007874015748},{"duration":0.10135124999999334,"midi":42,"time":107.02692,"velocity":0.3937007874015748},{"duration":0.10135124999999334,"midi":42,"time":107.2296225,"velocity":0.3937007874015748},{"duration":0.10135124999999334,"midi":42,"time":107.432325,"velocity":0.3937007874015748},{"duration":0.10135124999999334,"midi":37,"time":107.6350275,"velocity":0.3937007874015748},{"duration":0.10135124999999334,"midi":42,"time":107.6350275,"velocity":0.3937007874015748},{"duration":0.10135124999999334,"midi":42,"time":107.83773000000001,"velocity":0.3937007874015748},{"duration":0.10135124999999334,"midi":42,"time":108.04043250000001,"velocity":0.3937007874015748},{"duration":0.10135124999999334,"midi":42,"time":108.24313500000001,"velocity":0.3937007874015748},{"duration":0.10135124999999334,"midi":37,"time":108.24313500000001,"velocity":0.3937007874015748},{"duration":0.10135124999999334,"midi":42,"time":108.44583750000001,"velocity":0.3937007874015748},{"duration":0.10135125000000755,"midi":42,"time":108.64854,"velocity":0.3937007874015748},{"duration":0.10135125000000755,"midi":42,"time":108.8512425,"velocity":0.3937007874015748},{"duration":0.10135125000000755,"midi":37,"time":109.053945,"velocity":0.3937007874015748},{"duration":0.10135125000000755,"midi":34,"time":109.053945,"velocity":0.3937007874015748},{"duration":0.10135125000000755,"midi":85,"time":109.053945,"velocity":0.3937007874015748}]},{"instrument":{"family":"drums","number":0,"name":"standard kit"},"notes":[{"duration":0.10135125,"midi":0,"time":0,"velocity":0.3937007874015748},{"duration":0.10135125,"midi":0,"time":0,"velocity":0.3937007874015748},{"duration":0.10135125,"midi":0,"time":0.405405,"velocity":0.3937007874015748},{"duration":0.10135125,"midi":0,"time":1.216215,"velocity":0.3937007874015748},{"duration":0.10135125,"midi":0,"time":1.216215,"velocity":0.3937007874015748},{"duration":0.10135125,"midi":0,"time":1.62162,"velocity":0.3937007874015748},{"duration":0.10135125,"midi":0,"time":2.43243,"velocity":0.3937007874015748},{"duration":0.10135125,"midi":0,"time":2.43243,"velocity":0.3937007874015748},{"duration":0.10135125,"midi":0,"time":2.837835,"velocity":0.3937007874015748},{"duration":0.10135125,"midi":0,"time":3.24324,"velocity":0.3937007874015748},{"duration":0.10135125,"midi":0,"time":3.24324,"velocity":0.3937007874015748},{"duration":0.10135125,"midi":0,"time":3.8513475,"velocity":0.3937007874015748},{"duration":0.10135125000000045,"midi":0,"time":4.05405,"velocity":0.3937007874015748},{"duration":0.10135125000000045,"midi":0,"time":4.05405,"velocity":0.3937007874015748},{"duration":0.10135124999999956,"midi":0,"time":4.6621575,"velocity":0.3937007874015748},{"duration":0.10135125000000045,"midi":0,"time":4.86486,"velocity":0.3937007874015748},{"duration":0.10135125000000045,"midi":0,"time":4.86486,"velocity":0.3937007874015748},{"duration":0.10135124999999956,"midi":0,"time":5.4729675,"velocity":0.3937007874015748},{"duration":0.10135125000000045,"midi":0,"time":5.67567,"velocity":0.3937007874015748},{"duration":0.10135125000000045,"midi":0,"time":5.67567,"velocity":0.3937007874015748},{"duration":0.10135125000000045,"midi":0,"time":6.081075,"velocity":0.3937007874015748},{"duration":0.10135124999999956,"midi":0,"time":6.2837775,"velocity":0.3937007874015748},{"duration":0.10135125000000045,"midi":0,"time":6.48648,"velocity":0.3937007874015748},{"duration":0.10135125000000045,"midi":0,"time":6.48648,"velocity":0.3937007874015748},{"duration":0.10135124999999956,"midi":0,"time":7.0945875,"velocity":0.3937007874015748},{"duration":0.10135125000000045,"midi":0,"time":7.29729,"velocity":0.3937007874015748},{"duration":0.10135125000000045,"midi":0,"time":7.29729,"velocity":0.3937007874015748},{"duration":0.10135124999999956,"midi":0,"time":7.9053975,"velocity":0.3937007874015748},{"duration":0.10135125000000045,"midi":0,"time":8.1081,"velocity":0.3937007874015748},{"duration":0.10135125000000045,"midi":0,"time":8.1081,"velocity":0.3937007874015748},{"duration":0.10135125000000045,"midi":0,"time":8.7162075,"velocity":0.3937007874015748},{"duration":0.10135125000000045,"midi":0,"time":8.91891,"velocity":0.3937007874015748},{"duration":0.10135125000000045,"midi":0,"time":8.91891,"velocity":0.3937007874015748},{"duration":0.10135125000000045,"midi":0,"time":9.5270175,"velocity":0.3937007874015748},{"duration":0.10135125000000045,"midi":0,"time":9.72972,"velocity":0.3937007874015748},{"duration":0.10135125000000045,"midi":0,"time":9.72972,"velocity":0.3937007874015748},{"duration":0.10135125000000045,"midi":0,"time":10.3378275,"velocity":0.3937007874015748},{"duration":0.10135125000000045,"midi":0,"time":10.54053,"velocity":0.3937007874015748},{"duration":0.10135125000000045,"midi":0,"time":10.54053,"velocity":0.3937007874015748},{"duration":0.10135125000000045,"midi":0,"time":11.1486375,"velocity":0.3937007874015748},{"duration":0.10135125000000045,"midi":0,"time":11.35134,"velocity":0.3937007874015748},{"duration":0.10135125000000045,"midi":0,"time":11.35134,"velocity":0.3937007874015748},{"duration":0.10135125000000045,"midi":0,"time":11.9594475,"velocity":0.3937007874015748},{"duration":0.10135125000000045,"midi":0,"time":12.16215,"velocity":0.3937007874015748},{"duration":0.10135125000000045,"midi":0,"time":12.16215,"velocity":0.3937007874015748},{"duration":0.10135125000000045,"midi":0,"time":12.7702575,"velocity":0.3937007874015748},{"duration":0.10135125000000045,"midi":0,"time":12.97296,"velocity":0.3937007874015748},{"duration":0.10135125000000045,"midi":0,"time":12.97296,"velocity":0.3937007874015748},{"duration":0.10135125000000045,"midi":0,"time":13.5810675,"velocity":0.3937007874015748},{"duration":0.10135125000000045,"midi":0,"time":13.78377,"velocity":0.3937007874015748},{"duration":0.10135125000000045,"midi":0,"time":13.78377,"velocity":0.3937007874015748},{"duration":0.10135125000000045,"midi":0,"time":14.3918775,"velocity":0.3937007874015748},{"duration":0.10135125000000045,"midi":0,"time":14.59458,"velocity":0.3937007874015748},{"duration":0.10135125000000045,"midi":0,"time":14.59458,"velocity":0.3937007874015748},{"duration":0.10135125000000045,"midi":0,"time":15.2026875,"velocity":0.3937007874015748},{"duration":0.10135125000000045,"midi":0,"time":15.40539,"velocity":0.3937007874015748},{"duration":0.10135125000000045,"midi":0,"time":15.40539,"velocity":0.3937007874015748},{"duration":0.10135125000000045,"midi":0,"time":15.810795,"velocity":0.3937007874015748},{"duration":0.10135125000000045,"midi":0,"time":16.0134975,"velocity":0.3937007874015748},{"duration":0.10135125000000045,"midi":0,"time":16.2162,"velocity":0.3937007874015748},{"duration":0.10135125000000045,"midi":0,"time":16.2162,"velocity":0.3937007874015748},{"duration":0.10135125000000045,"midi":0,"time":16.8243075,"velocity":0.3937007874015748},{"duration":0.10135125000000045,"midi":0,"time":17.02701,"velocity":0.3937007874015748},{"duration":0.10135125000000045,"midi":0,"time":17.02701,"velocity":0.3937007874015748},{"duration":0.10135125000000045,"midi":0,"time":17.6351175,"velocity":0.3937007874015748},{"duration":0.10135125000000045,"midi":0,"time":17.83782,"velocity":0.3937007874015748},{"duration":0.10135125000000045,"midi":0,"time":17.83782,"velocity":0.3937007874015748},{"duration":0.10135125000000045,"midi":0,"time":18.4459275,"velocity":0.3937007874015748},{"duration":0.10135125000000045,"midi":0,"time":18.64863,"velocity":0.3937007874015748},{"duration":0.10135125000000045,"midi":0,"time":18.64863,"velocity":0.3937007874015748},{"duration":0.10135125000000045,"midi":0,"time":19.054035,"velocity":0.3937007874015748},{"duration":0.10135125000000045,"midi":0,"time":19.2567375,"velocity":0.3937007874015748},{"duration":0.10135125000000045,"midi":0,"time":19.45944,"velocity":0.3937007874015748},{"duration":0.10135125000000045,"midi":0,"time":19.45944,"velocity":0.3937007874015748},{"duration":0.10135125000000045,"midi":0,"time":20.0675475,"velocity":0.3937007874015748},{"duration":0.10135125000000045,"midi":0,"time":20.27025,"velocity":0.3937007874015748},{"duration":0.10135125000000045,"midi":0,"time":20.27025,"velocity":0.3937007874015748},{"duration":0.10135125000000045,"midi":0,"time":20.8783575,"velocity":0.3937007874015748},{"duration":0.10135125000000045,"midi":0,"time":21.08106,"velocity":0.3937007874015748},{"duration":0.10135125000000045,"midi":0,"time":21.08106,"velocity":0.3937007874015748},{"duration":0.10135125000000045,"midi":0,"time":21.6891675,"velocity":0.3937007874015748},{"duration":0.10135125000000045,"midi":0,"time":21.89187,"velocity":0.3937007874015748},{"duration":0.10135125000000045,"midi":0,"time":21.89187,"velocity":0.3937007874015748},{"duration":0.10135125000000045,"midi":0,"time":22.297275,"velocity":0.3937007874015748},{"duration":0.10135125000000045,"midi":0,"time":22.4999775,"velocity":0.3937007874015748},{"duration":0.10135125000000045,"midi":0,"time":22.70268,"velocity":0.3937007874015748},{"duration":0.10135125000000045,"midi":0,"time":22.70268,"velocity":0.3937007874015748},{"duration":0.10135125000000045,"midi":0,"time":23.3107875,"velocity":0.3937007874015748},{"duration":0.10135125000000045,"midi":0,"time":23.51349,"velocity":0.3937007874015748},{"duration":0.10135125000000045,"midi":0,"time":23.51349,"velocity":0.3937007874015748},{"duration":0.10135125000000045,"midi":0,"time":24.1215975,"velocity":0.3937007874015748},{"duration":0.10135125000000045,"midi":0,"time":24.3243,"velocity":0.3937007874015748},{"duration":0.10135125000000045,"midi":0,"time":24.3243,"velocity":0.3937007874015748},{"duration":0.10135125000000045,"midi":0,"time":24.9324075,"velocity":0.3937007874015748},{"duration":0.10135125000000045,"midi":0,"time":25.13511,"velocity":0.3937007874015748},{"duration":0.10135125000000045,"midi":0,"time":25.13511,"velocity":0.3937007874015748},{"duration":0.10135125000000045,"midi":0,"time":25.540515,"velocity":0.3937007874015748},{"duration":0.10135125000000045,"midi":0,"time":25.7432175,"velocity":0.3937007874015748},{"duration":0.10135125000000045,"midi":0,"time":25.94592,"velocity":0.3937007874015748},{"duration":0.10135125000000045,"midi":0,"time":25.94592,"velocity":0.3937007874015748},{"duration":0.10135125000000045,"midi":0,"time":26.5540275,"velocity":0.3937007874015748},{"duration":0.10135125000000045,"midi":0,"time":26.75673,"velocity":0.3937007874015748},{"duration":0.10135125000000045,"midi":0,"time":26.75673,"velocity":0.3937007874015748},{"duration":0.10135125000000045,"midi":0,"time":27.3648375,"velocity":0.3937007874015748},{"duration":0.10135125000000045,"midi":0,"time":27.56754,"velocity":0.3937007874015748},{"duration":0.10135125000000045,"midi":0,"time":27.56754,"velocity":0.3937007874015748},{"duration":0.10135125000000045,"midi":0,"time":28.1756475,"velocity":0.3937007874015748},{"duration":0.10135125000000045,"midi":0,"time":28.37835,"velocity":0.3937007874015748},{"duration":0.10135125000000045,"midi":0,"time":28.37835,"velocity":0.3937007874015748},{"duration":0.10135125000000045,"midi":0,"time":28.783755,"velocity":0.3937007874015748},{"duration":0.10135125000000045,"midi":0,"time":28.9864575,"velocity":0.3937007874015748},{"duration":0.10135125000000045,"midi":0,"time":29.18916,"velocity":0.3937007874015748},{"duration":0.10135125000000045,"midi":0,"time":29.18916,"velocity":0.3937007874015748},{"duration":0.10135125000000045,"midi":0,"time":29.7972675,"velocity":0.3937007874015748},{"duration":0.10135125000000045,"midi":0,"time":29.99997,"velocity":0.3937007874015748},{"duration":0.10135125000000045,"midi":0,"time":29.99997,"velocity":0.3937007874015748},{"duration":0.10135125000000045,"midi":0,"time":30.6080775,"velocity":0.3937007874015748},{"duration":0.10135125000000045,"midi":0,"time":30.81078,"velocity":0.3937007874015748},{"duration":0.10135125000000045,"midi":0,"time":30.81078,"velocity":0.3937007874015748},{"duration":0.10135125000000045,"midi":0,"time":31.4188875,"velocity":0.3937007874015748},{"duration":0.10135125000000045,"midi":0,"time":31.62159,"velocity":0.3937007874015748},{"duration":0.10135125000000045,"midi":0,"time":31.62159,"velocity":0.3937007874015748},{"duration":0.10135125000000045,"midi":0,"time":32.026995,"velocity":0.3937007874015748},{"duration":0.10135125000000045,"midi":0,"time":32.2296975,"velocity":0.3937007874015748},{"duration":0.10135125000000045,"midi":0,"time":32.4324,"velocity":0.3937007874015748},{"duration":0.10135125000000045,"midi":0,"time":32.4324,"velocity":0.3937007874015748},{"duration":0.10135125000000045,"midi":0,"time":33.040507500000004,"velocity":0.3937007874015748},{"duration":0.10135124999999334,"midi":0,"time":33.243210000000005,"velocity":0.3937007874015748},{"duration":0.10135124999999334,"midi":0,"time":33.243210000000005,"velocity":0.3937007874015748},{"duration":0.10135125000000045,"midi":0,"time":33.8513175,"velocity":0.3937007874015748},{"duration":0.10135125000000045,"midi":0,"time":34.05402,"velocity":0.3937007874015748},{"duration":0.10135125000000045,"midi":0,"time":34.05402,"velocity":0.3937007874015748},{"duration":0.10135125000000045,"midi":0,"time":34.662127500000004,"velocity":0.3937007874015748},{"duration":0.10135125000000045,"midi":0,"time":34.86483,"velocity":0.3937007874015748},{"duration":0.10135125000000045,"midi":0,"time":34.86483,"velocity":0.3937007874015748},{"duration":0.10135125000000045,"midi":0,"time":35.270235,"velocity":0.3937007874015748},{"duration":0.10135125000000045,"midi":0,"time":35.4729375,"velocity":0.3937007874015748},{"duration":0.10135125000000045,"midi":0,"time":35.67564,"velocity":0.3937007874015748},{"duration":0.10135125000000045,"midi":0,"time":35.67564,"velocity":0.3937007874015748},{"duration":0.10135125000000045,"midi":0,"time":36.283747500000004,"velocity":0.3937007874015748},{"duration":0.10135124999999334,"midi":0,"time":36.486450000000005,"velocity":0.3937007874015748},{"duration":0.10135124999999334,"midi":0,"time":36.486450000000005,"velocity":0.3937007874015748},{"duration":0.10135125000000045,"midi":0,"time":37.0945575,"velocity":0.3937007874015748},{"duration":0.10135125000000045,"midi":0,"time":37.29726,"velocity":0.3937007874015748},{"duration":0.10135125000000045,"midi":0,"time":37.29726,"velocity":0.3937007874015748},{"duration":0.10135125000000045,"midi":0,"time":37.905367500000004,"velocity":0.3937007874015748},{"duration":0.10135125000000045,"midi":0,"time":38.10807,"velocity":0.3937007874015748},{"duration":0.10135125000000045,"midi":0,"time":38.10807,"velocity":0.3937007874015748},{"duration":0.10135125000000045,"midi":0,"time":38.513475,"velocity":0.3937007874015748},{"duration":0.10135125000000045,"midi":0,"time":38.7161775,"velocity":0.3937007874015748},{"duration":0.10135125000000045,"midi":0,"time":38.91888,"velocity":0.3937007874015748},{"duration":0.10135125000000045,"midi":0,"time":38.91888,"velocity":0.3937007874015748},{"duration":0.10135125000000045,"midi":0,"time":39.526987500000004,"velocity":0.3937007874015748},{"duration":0.10135124999999334,"midi":0,"time":39.729690000000005,"velocity":0.3937007874015748},{"duration":0.10135124999999334,"midi":0,"time":39.729690000000005,"velocity":0.3937007874015748},{"duration":0.10135125000000045,"midi":0,"time":40.3377975,"velocity":0.3937007874015748},{"duration":0.10135125000000045,"midi":0,"time":40.5405,"velocity":0.3937007874015748},{"duration":0.10135125000000045,"midi":0,"time":40.5405,"velocity":0.3937007874015748},{"duration":0.10135125000000045,"midi":0,"time":41.148607500000004,"velocity":0.3937007874015748},{"duration":0.10135125000000045,"midi":0,"time":41.35131,"velocity":0.3937007874015748},{"duration":0.10135125000000045,"midi":0,"time":41.35131,"velocity":0.3937007874015748},{"duration":0.10135125000000045,"midi":0,"time":41.756715,"velocity":0.3937007874015748},{"duration":0.10135125000000045,"midi":0,"time":41.9594175,"velocity":0.3937007874015748},{"duration":0.10135125000000045,"midi":0,"time":42.16212,"velocity":0.3937007874015748},{"duration":0.10135125000000045,"midi":0,"time":42.16212,"velocity":0.3937007874015748},{"duration":0.10135125000000045,"midi":0,"time":42.770227500000004,"velocity":0.3937007874015748},{"duration":0.10135124999999334,"midi":0,"time":42.972930000000005,"velocity":0.3937007874015748},{"duration":0.10135124999999334,"midi":0,"time":42.972930000000005,"velocity":0.3937007874015748},{"duration":0.10135125000000045,"midi":0,"time":43.5810375,"velocity":0.3937007874015748},{"duration":0.10135125000000045,"midi":0,"time":43.78374,"velocity":0.3937007874015748},{"duration":0.10135125000000045,"midi":0,"time":43.78374,"velocity":0.3937007874015748},{"duration":0.10135125000000045,"midi":0,"time":44.391847500000004,"velocity":0.3937007874015748},{"duration":0.10135125000000045,"midi":0,"time":44.59455,"velocity":0.3937007874015748},{"duration":0.10135125000000045,"midi":0,"time":44.59455,"velocity":0.3937007874015748},{"duration":0.10135125000000045,"midi":0,"time":44.999955,"velocity":0.3937007874015748},{"duration":0.10135125000000045,"midi":0,"time":45.2026575,"velocity":0.3937007874015748},{"duration":0.10135125000000045,"midi":0,"time":45.40536,"velocity":0.3937007874015748},{"duration":0.10135125000000045,"midi":0,"time":45.40536,"velocity":0.3937007874015748},{"duration":0.10135125000000045,"midi":0,"time":46.013467500000004,"velocity":0.3937007874015748},{"duration":0.10135124999999334,"midi":0,"time":46.216170000000005,"velocity":0.3937007874015748},{"duration":0.10135124999999334,"midi":0,"time":46.216170000000005,"velocity":0.3937007874015748},{"duration":0.10135125000000045,"midi":0,"time":46.8242775,"velocity":0.3937007874015748},{"duration":0.10135125000000045,"midi":0,"time":47.02698,"velocity":0.3937007874015748},{"duration":0.10135125000000045,"midi":0,"time":47.02698,"velocity":0.3937007874015748},{"duration":0.10135125000000045,"midi":0,"time":47.635087500000004,"velocity":0.3937007874015748},{"duration":0.10135125000000045,"midi":0,"time":47.83779,"velocity":0.3937007874015748},{"duration":0.10135125000000045,"midi":0,"time":47.83779,"velocity":0.3937007874015748},{"duration":0.10135125000000045,"midi":0,"time":48.243195,"velocity":0.3937007874015748},{"duration":0.10135125000000045,"midi":0,"time":48.4458975,"velocity":0.3937007874015748},{"duration":0.10135125000000045,"midi":0,"time":48.6486,"velocity":0.3937007874015748},{"duration":0.10135125000000045,"midi":0,"time":48.6486,"velocity":0.3937007874015748},{"duration":0.10135125000000045,"midi":0,"time":49.256707500000005,"velocity":0.3937007874015748},{"duration":0.10135124999999334,"midi":0,"time":49.459410000000005,"velocity":0.3937007874015748},{"duration":0.10135124999999334,"midi":0,"time":49.459410000000005,"velocity":0.3937007874015748},{"duration":0.10135125000000045,"midi":0,"time":50.0675175,"velocity":0.3937007874015748},{"duration":0.10135125000000045,"midi":0,"time":50.27022,"velocity":0.3937007874015748},{"duration":0.10135125000000045,"midi":0,"time":50.27022,"velocity":0.3937007874015748},{"duration":0.10135125000000045,"midi":0,"time":50.878327500000005,"velocity":0.3937007874015748},{"duration":0.10135125000000045,"midi":0,"time":51.08103,"velocity":0.3937007874015748},{"duration":0.10135125000000045,"midi":0,"time":51.08103,"velocity":0.3937007874015748},{"duration":0.10135125000000045,"midi":0,"time":51.486435,"velocity":0.3937007874015748},{"duration":0.10135125000000045,"midi":0,"time":51.6891375,"velocity":0.3937007874015748},{"duration":0.10135125000000045,"midi":0,"time":51.89184,"velocity":0.3937007874015748},{"duration":0.10135125000000045,"midi":0,"time":51.89184,"velocity":0.3937007874015748},{"duration":0.10135125000000045,"midi":0,"time":52.499947500000005,"velocity":0.3937007874015748},{"duration":0.10135124999999334,"midi":0,"time":52.702650000000006,"velocity":0.3937007874015748},{"duration":0.10135124999999334,"midi":0,"time":52.702650000000006,"velocity":0.3937007874015748},{"duration":0.10135125000000045,"midi":0,"time":53.3107575,"velocity":0.3937007874015748},{"duration":0.10135125000000045,"midi":0,"time":53.51346,"velocity":0.3937007874015748},{"duration":0.10135125000000045,"midi":0,"time":53.51346,"velocity":0.3937007874015748},{"duration":0.10135125000000045,"midi":0,"time":54.121567500000005,"velocity":0.3937007874015748},{"duration":0.10135125000000045,"midi":0,"time":54.32427,"velocity":0.3937007874015748},{"duration":0.10135125000000045,"midi":0,"time":54.32427,"velocity":0.3937007874015748},{"duration":0.10135125000000045,"midi":0,"time":54.729675,"velocity":0.3937007874015748},{"duration":0.10135125000000045,"midi":0,"time":54.9323775,"velocity":0.3937007874015748},{"duration":0.10135125000000045,"midi":0,"time":55.13508,"velocity":0.3937007874015748},{"duration":0.10135125000000045,"midi":0,"time":55.13508,"velocity":0.3937007874015748},{"duration":0.10135125000000045,"midi":0,"time":55.743187500000005,"velocity":0.3937007874015748},{"duration":0.10135124999999334,"midi":0,"time":55.945890000000006,"velocity":0.3937007874015748},{"duration":0.10135124999999334,"midi":0,"time":55.945890000000006,"velocity":0.3937007874015748},{"duration":0.10135125000000045,"midi":0,"time":56.5539975,"velocity":0.3937007874015748},{"duration":0.10135125000000045,"midi":0,"time":56.7567,"velocity":0.3937007874015748},{"duration":0.10135125000000045,"midi":0,"time":56.7567,"velocity":0.3937007874015748},{"duration":0.10135125000000045,"midi":0,"time":58.37832,"velocity":0.3937007874015748},{"duration":0.10135125000000045,"midi":0,"time":58.37832,"velocity":0.3937007874015748},{"duration":0.10135125000000045,"midi":0,"time":58.986427500000005,"velocity":0.3937007874015748},{"duration":0.10135124999999334,"midi":0,"time":59.189130000000006,"velocity":0.3937007874015748},{"duration":0.10135124999999334,"midi":0,"time":59.189130000000006,"velocity":0.3937007874015748},{"duration":0.10135125000000045,"midi":0,"time":59.7972375,"velocity":0.3937007874015748},{"duration":0.10135125000000045,"midi":0,"time":59.99994,"velocity":0.3937007874015748},{"duration":0.10135125000000045,"midi":0,"time":59.99994,"velocity":0.3937007874015748},{"duration":0.10135125000000045,"midi":0,"time":60.608047500000005,"velocity":0.3937007874015748},{"duration":0.10135125000000045,"midi":0,"time":60.81075,"velocity":0.3937007874015748},{"duration":0.10135125000000045,"midi":0,"time":60.81075,"velocity":0.3937007874015748},{"duration":0.10135125000000045,"midi":0,"time":61.4188575,"velocity":0.3937007874015748},{"duration":0.10135125000000045,"midi":0,"time":61.62156,"velocity":0.3937007874015748},{"duration":0.10135125000000045,"midi":0,"time":61.62156,"velocity":0.3937007874015748},{"duration":0.10135125000000045,"midi":0,"time":62.229667500000005,"velocity":0.3937007874015748},{"duration":0.10135124999999334,"midi":0,"time":62.432370000000006,"velocity":0.3937007874015748},{"duration":0.10135124999999334,"midi":0,"time":62.432370000000006,"velocity":0.3937007874015748},{"duration":0.10135125000000045,"midi":0,"time":63.0404775,"velocity":0.3937007874015748},{"duration":0.10135125000000045,"midi":0,"time":63.24318,"velocity":0.3937007874015748},{"duration":0.10135125000000045,"midi":0,"time":63.24318,"velocity":0.3937007874015748},{"duration":0.10135125000000045,"midi":0,"time":63.851287500000005,"velocity":0.3937007874015748},{"duration":0.10135125000000755,"midi":0,"time":64.05399,"velocity":0.3937007874015748},{"duration":0.10135125000000755,"midi":0,"time":64.05399,"velocity":0.3937007874015748},{"duration":0.10135125000000755,"midi":0,"time":64.6620975,"velocity":0.3937007874015748},{"duration":0.10135124999999334,"midi":0,"time":64.8648,"velocity":0.3937007874015748},{"duration":0.10135124999999334,"midi":0,"time":64.8648,"velocity":0.3937007874015748},{"duration":0.10135124999999334,"midi":0,"time":65.4729075,"velocity":0.3937007874015748},{"duration":0.10135124999999334,"midi":0,"time":65.67561,"velocity":0.3937007874015748},{"duration":0.10135124999999334,"midi":0,"time":65.67561,"velocity":0.3937007874015748},{"duration":0.10135124999999334,"midi":0,"time":66.28371750000001,"velocity":0.3937007874015748},{"duration":0.10135124999999334,"midi":0,"time":66.48642000000001,"velocity":0.3937007874015748},{"duration":0.10135124999999334,"midi":0,"time":66.48642000000001,"velocity":0.3937007874015748},{"duration":0.10135125000000755,"midi":0,"time":67.0945275,"velocity":0.3937007874015748},{"duration":0.10135125000000755,"midi":0,"time":67.29723,"velocity":0.3937007874015748},{"duration":0.10135125000000755,"midi":0,"time":67.29723,"velocity":0.3937007874015748},{"duration":0.10135125000000755,"midi":0,"time":67.702635,"velocity":0.3937007874015748},{"duration":0.10135125000000755,"midi":0,"time":67.9053375,"velocity":0.3937007874015748},{"duration":0.10135124999999334,"midi":0,"time":68.10804,"velocity":0.3937007874015748},{"duration":0.10135124999999334,"midi":0,"time":68.10804,"velocity":0.3937007874015748},{"duration":0.10135124999999334,"midi":0,"time":68.7161475,"velocity":0.3937007874015748},{"duration":0.10135124999999334,"midi":0,"time":68.91885,"velocity":0.3937007874015748},{"duration":0.10135124999999334,"midi":0,"time":68.91885,"velocity":0.3937007874015748},{"duration":0.10135124999999334,"midi":0,"time":69.52695750000001,"velocity":0.3937007874015748},{"duration":0.10135125000000755,"midi":0,"time":69.72966,"velocity":0.3937007874015748},{"duration":0.10135125000000755,"midi":0,"time":69.72966,"velocity":0.3937007874015748},{"duration":0.10135125000000755,"midi":0,"time":70.3377675,"velocity":0.3937007874015748},{"duration":0.10135125000000755,"midi":0,"time":70.54047,"velocity":0.3937007874015748},{"duration":0.10135125000000755,"midi":0,"time":70.54047,"velocity":0.3937007874015748},{"duration":0.10135125000000755,"midi":0,"time":70.945875,"velocity":0.3937007874015748},{"duration":0.10135125000000755,"midi":0,"time":71.1485775,"velocity":0.3937007874015748},{"duration":0.10135124999999334,"midi":0,"time":71.35128,"velocity":0.3937007874015748},{"duration":0.10135124999999334,"midi":0,"time":71.35128,"velocity":0.3937007874015748},{"duration":0.10135124999999334,"midi":0,"time":71.9593875,"velocity":0.3937007874015748},{"duration":0.10135124999999334,"midi":0,"time":72.16209,"velocity":0.3937007874015748},{"duration":0.10135124999999334,"midi":0,"time":72.16209,"velocity":0.3937007874015748},{"duration":0.10135124999999334,"midi":0,"time":72.77019750000001,"velocity":0.3937007874015748},{"duration":0.10135124999999334,"midi":0,"time":72.97290000000001,"velocity":0.3937007874015748},{"duration":0.10135124999999334,"midi":0,"time":72.97290000000001,"velocity":0.3937007874015748},{"duration":0.10135125000000755,"midi":0,"time":73.5810075,"velocity":0.3937007874015748},{"duration":0.10135125000000755,"midi":0,"time":73.78371,"velocity":0.3937007874015748},{"duration":0.10135125000000755,"midi":0,"time":73.78371,"velocity":0.3937007874015748},{"duration":0.10135125000000755,"midi":0,"time":74.189115,"velocity":0.3937007874015748},{"duration":0.10135125000000755,"midi":0,"time":74.3918175,"velocity":0.3937007874015748},{"duration":0.10135124999999334,"midi":0,"time":74.59452,"velocity":0.3937007874015748},{"duration":0.10135124999999334,"midi":0,"time":74.59452,"velocity":0.3937007874015748},{"duration":0.10135124999999334,"midi":0,"time":75.2026275,"velocity":0.3937007874015748},{"duration":0.10135124999999334,"midi":0,"time":75.40533,"velocity":0.3937007874015748},{"duration":0.10135124999999334,"midi":0,"time":75.40533,"velocity":0.3937007874015748},{"duration":0.10135124999999334,"midi":0,"time":76.01343750000001,"velocity":0.3937007874015748},{"duration":0.10135125000000755,"midi":0,"time":76.21614,"velocity":0.3937007874015748},{"duration":0.10135125000000755,"midi":0,"time":76.21614,"velocity":0.3937007874015748},{"duration":0.10135125000000755,"midi":0,"time":76.8242475,"velocity":0.3937007874015748},{"duration":0.10135125000000755,"midi":0,"time":77.02695,"velocity":0.3937007874015748},{"duration":0.10135125000000755,"midi":0,"time":77.02695,"velocity":0.3937007874015748},{"duration":0.10135125000000755,"midi":0,"time":77.432355,"velocity":0.3937007874015748},{"duration":0.10135125000000755,"midi":0,"time":77.6350575,"velocity":0.3937007874015748},{"duration":0.10135124999999334,"midi":0,"time":77.83776,"velocity":0.3937007874015748},{"duration":0.10135124999999334,"midi":0,"time":77.83776,"velocity":0.3937007874015748},{"duration":0.10135124999999334,"midi":0,"time":78.4458675,"velocity":0.3937007874015748},{"duration":0.10135124999999334,"midi":0,"time":78.64857,"velocity":0.3937007874015748},{"duration":0.10135124999999334,"midi":0,"time":78.64857,"velocity":0.3937007874015748},{"duration":0.10135124999999334,"midi":0,"time":79.25667750000001,"velocity":0.3937007874015748},{"duration":0.10135124999999334,"midi":0,"time":79.45938000000001,"velocity":0.3937007874015748},{"duration":0.10135124999999334,"midi":0,"time":79.45938000000001,"velocity":0.3937007874015748},{"duration":0.10135125000000755,"midi":0,"time":80.0674875,"velocity":0.3937007874015748},{"duration":0.10135125000000755,"midi":0,"time":80.27019,"velocity":0.3937007874015748},{"duration":0.10135125000000755,"midi":0,"time":80.27019,"velocity":0.3937007874015748},{"duration":0.10135125000000755,"midi":0,"time":80.675595,"velocity":0.3937007874015748},{"duration":0.10135125000000755,"midi":0,"time":80.8782975,"velocity":0.3937007874015748},{"duration":0.10135124999999334,"midi":0,"time":81.081,"velocity":0.3937007874015748},{"duration":0.10135124999999334,"midi":0,"time":81.081,"velocity":0.3937007874015748},{"duration":0.10135124999999334,"midi":0,"time":81.6891075,"velocity":0.3937007874015748},{"duration":0.10135124999999334,"midi":0,"time":81.89181,"velocity":0.3937007874015748},{"duration":0.10135124999999334,"midi":0,"time":81.89181,"velocity":0.3937007874015748},{"duration":0.10135124999999334,"midi":0,"time":82.49991750000001,"velocity":0.3937007874015748},{"duration":0.10135125000000755,"midi":0,"time":82.70262,"velocity":0.3937007874015748},{"duration":0.10135125000000755,"midi":0,"time":82.70262,"velocity":0.3937007874015748},{"duration":0.10135125000000755,"midi":0,"time":83.3107275,"velocity":0.3937007874015748},{"duration":0.10135125000000755,"midi":0,"time":83.51343,"velocity":0.3937007874015748},{"duration":0.10135125000000755,"midi":0,"time":83.51343,"velocity":0.3937007874015748},{"duration":0.10135125000000755,"midi":0,"time":83.918835,"velocity":0.3937007874015748},{"duration":0.10135125000000755,"midi":0,"time":84.1215375,"velocity":0.3937007874015748},{"duration":0.10135124999999334,"midi":0,"time":84.32424,"velocity":0.3937007874015748},{"duration":0.10135124999999334,"midi":0,"time":84.32424,"velocity":0.3937007874015748},{"duration":0.10135124999999334,"midi":0,"time":84.9323475,"velocity":0.3937007874015748},{"duration":0.10135124999999334,"midi":0,"time":85.13505,"velocity":0.3937007874015748},{"duration":0.10135124999999334,"midi":0,"time":85.13505,"velocity":0.3937007874015748},{"duration":0.10135124999999334,"midi":0,"time":85.74315750000001,"velocity":0.3937007874015748},{"duration":0.10135124999999334,"midi":0,"time":85.94586000000001,"velocity":0.3937007874015748},{"duration":0.10135124999999334,"midi":0,"time":85.94586000000001,"velocity":0.3937007874015748},{"duration":0.10135125000000755,"midi":0,"time":86.5539675,"velocity":0.3937007874015748},{"duration":0.10135125000000755,"midi":0,"time":86.75667,"velocity":0.3937007874015748},{"duration":0.10135125000000755,"midi":0,"time":86.75667,"velocity":0.3937007874015748},{"duration":0.10135125000000755,"midi":0,"time":87.162075,"velocity":0.3937007874015748},{"duration":0.10135125000000755,"midi":0,"time":87.3647775,"velocity":0.3937007874015748},{"duration":0.10135124999999334,"midi":0,"time":87.56748,"velocity":0.3937007874015748},{"duration":0.10135124999999334,"midi":0,"time":87.56748,"velocity":0.3937007874015748},{"duration":0.10135124999999334,"midi":0,"time":88.1755875,"velocity":0.3937007874015748},{"duration":0.10135124999999334,"midi":0,"time":88.37829,"velocity":0.3937007874015748},{"duration":0.10135124999999334,"midi":0,"time":88.37829,"velocity":0.3937007874015748},{"duration":0.10135124999999334,"midi":0,"time":88.98639750000001,"velocity":0.3937007874015748},{"duration":0.10135125000000755,"midi":0,"time":89.1891,"velocity":0.3937007874015748},{"duration":0.10135125000000755,"midi":0,"time":89.1891,"velocity":0.3937007874015748},{"duration":0.10135125000000755,"midi":0,"time":89.7972075,"velocity":0.3937007874015748},{"duration":0.10135125000000755,"midi":0,"time":89.99991,"velocity":0.3937007874015748},{"duration":0.10135125000000755,"midi":0,"time":89.99991,"velocity":0.3937007874015748},{"duration":0.10135125000000755,"midi":0,"time":90.405315,"velocity":0.3937007874015748},{"duration":0.10135125000000755,"midi":0,"time":90.6080175,"velocity":0.3937007874015748},{"duration":0.10135124999999334,"midi":0,"time":90.81072,"velocity":0.3937007874015748},{"duration":0.10135124999999334,"midi":0,"time":90.81072,"velocity":0.3937007874015748},{"duration":0.10135124999999334,"midi":0,"time":91.4188275,"velocity":0.3937007874015748},{"duration":0.10135124999999334,"midi":0,"time":91.62153,"velocity":0.3937007874015748},{"duration":0.10135124999999334,"midi":0,"time":91.62153,"velocity":0.3937007874015748},{"duration":0.10135124999999334,"midi":0,"time":92.22963750000001,"velocity":0.3937007874015748},{"duration":0.10135124999999334,"midi":0,"time":92.43234000000001,"velocity":0.3937007874015748},{"duration":0.10135124999999334,"midi":0,"time":92.43234000000001,"velocity":0.3937007874015748},{"duration":0.10135125000000755,"midi":0,"time":93.0404475,"velocity":0.3937007874015748},{"duration":0.10135125000000755,"midi":0,"time":93.24315,"velocity":0.3937007874015748},{"duration":0.10135125000000755,"midi":0,"time":93.24315,"velocity":0.3937007874015748},{"duration":0.10135125000000755,"midi":0,"time":93.648555,"velocity":0.3937007874015748},{"duration":0.10135125000000755,"midi":0,"time":93.8512575,"velocity":0.3937007874015748},{"duration":0.10135124999999334,"midi":0,"time":94.05396,"velocity":0.3937007874015748},{"duration":0.10135124999999334,"midi":0,"time":94.05396,"velocity":0.3937007874015748},{"duration":0.10135124999999334,"midi":0,"time":94.6620675,"velocity":0.3937007874015748},{"duration":0.10135124999999334,"midi":0,"time":94.86477000000001,"velocity":0.3937007874015748},{"duration":0.10135124999999334,"midi":0,"time":94.86477000000001,"velocity":0.3937007874015748},{"duration":0.10135124999999334,"midi":0,"time":95.47287750000001,"velocity":0.3937007874015748},{"duration":0.10135125000000755,"midi":0,"time":95.67558,"velocity":0.3937007874015748},{"duration":0.10135125000000755,"midi":0,"time":95.67558,"velocity":0.3937007874015748},{"duration":0.10135125000000755,"midi":0,"time":96.2836875,"velocity":0.3937007874015748},{"duration":0.10135125000000755,"midi":0,"time":96.48639,"velocity":0.3937007874015748},{"duration":0.10135125000000755,"midi":0,"time":96.48639,"velocity":0.3937007874015748},{"duration":0.10135125000000755,"midi":0,"time":96.891795,"velocity":0.3937007874015748},{"duration":0.10135125000000755,"midi":0,"time":97.0944975,"velocity":0.3937007874015748},{"duration":0.10135124999999334,"midi":0,"time":97.2972,"velocity":0.3937007874015748},{"duration":0.10135124999999334,"midi":0,"time":97.2972,"velocity":0.3937007874015748},{"duration":0.10135124999999334,"midi":0,"time":97.9053075,"velocity":0.3937007874015748},{"duration":0.10135124999999334,"midi":0,"time":98.10801000000001,"velocity":0.3937007874015748},{"duration":0.10135124999999334,"midi":0,"time":98.10801000000001,"velocity":0.3937007874015748},{"duration":0.10135124999999334,"midi":0,"time":98.71611750000001,"velocity":0.3937007874015748},{"duration":0.10135124999999334,"midi":0,"time":98.91882000000001,"velocity":0.3937007874015748},{"duration":0.10135124999999334,"midi":0,"time":98.91882000000001,"velocity":0.3937007874015748},{"duration":0.10135125000000755,"midi":0,"time":99.5269275,"velocity":0.3937007874015748},{"duration":0.10135125000000755,"midi":0,"time":99.72963,"velocity":0.3937007874015748},{"duration":0.10135125000000755,"midi":0,"time":99.72963,"velocity":0.3937007874015748},{"duration":0.10135125000000755,"midi":0,"time":100.135035,"velocity":0.3937007874015748},{"duration":0.10135125000000755,"midi":0,"time":100.3377375,"velocity":0.3937007874015748},{"duration":0.10135124999999334,"midi":0,"time":100.54044,"velocity":0.3937007874015748},{"duration":0.10135124999999334,"midi":0,"time":100.54044,"velocity":0.3937007874015748},{"duration":0.10135124999999334,"midi":0,"time":101.1485475,"velocity":0.3937007874015748},{"duration":0.10135124999999334,"midi":0,"time":101.35125000000001,"velocity":0.3937007874015748},{"duration":0.10135124999999334,"midi":0,"time":101.35125000000001,"velocity":0.3937007874015748},{"duration":0.10135124999999334,"midi":0,"time":101.95935750000001,"velocity":0.3937007874015748},{"duration":0.10135125000000755,"midi":0,"time":102.16206,"velocity":0.3937007874015748},{"duration":0.10135125000000755,"midi":0,"time":102.16206,"velocity":0.3937007874015748},{"duration":0.10135125000000755,"midi":0,"time":102.7701675,"velocity":0.3937007874015748},{"duration":0.10135125000000755,"midi":0,"time":102.97287,"velocity":0.3937007874015748},{"duration":0.10135125000000755,"midi":0,"time":102.97287,"velocity":0.3937007874015748},{"duration":0.10135125000000755,"midi":0,"time":103.378275,"velocity":0.3937007874015748},{"duration":0.10135125000000755,"midi":0,"time":103.5809775,"velocity":0.3937007874015748},{"duration":0.10135124999999334,"midi":0,"time":103.78368,"velocity":0.3937007874015748},{"duration":0.10135124999999334,"midi":0,"time":103.78368,"velocity":0.3937007874015748},{"duration":0.10135124999999334,"midi":0,"time":104.3917875,"velocity":0.3937007874015748},{"duration":0.10135124999999334,"midi":0,"time":104.59449000000001,"velocity":0.3937007874015748},{"duration":0.10135124999999334,"midi":0,"time":104.59449000000001,"velocity":0.3937007874015748},{"duration":0.10135124999999334,"midi":0,"time":105.20259750000001,"velocity":0.3937007874015748},{"duration":0.10135124999999334,"midi":0,"time":105.40530000000001,"velocity":0.3937007874015748},{"duration":0.10135124999999334,"midi":0,"time":105.40530000000001,"velocity":0.3937007874015748},{"duration":0.10135125000000755,"midi":0,"time":106.0134075,"velocity":0.3937007874015748},{"duration":0.10135125000000755,"midi":0,"time":106.21611,"velocity":0.3937007874015748},{"duration":0.10135125000000755,"midi":0,"time":106.21611,"velocity":0.3937007874015748},{"duration":0.10135125000000755,"midi":0,"time":106.621515,"velocity":0.3937007874015748},{"duration":0.10135125000000755,"midi":0,"time":106.8242175,"velocity":0.3937007874015748},{"duration":0.10135124999999334,"midi":0,"time":107.02692,"velocity":0.3937007874015748},{"duration":0.10135124999999334,"midi":0,"time":107.02692,"velocity":0.3937007874015748},{"duration":0.10135124999999334,"midi":0,"time":107.6350275,"velocity":0.3937007874015748},{"duration":0.10135124999999334,"midi":0,"time":107.83773000000001,"velocity":0.3937007874015748},{"duration":0.10135124999999334,"midi":0,"time":107.83773000000001,"velocity":0.3937007874015748},{"duration":0.10135124999999334,"midi":0,"time":108.44583750000001,"velocity":0.3937007874015748},{"duration":0.10135125000000755,"midi":0,"time":108.64854,"velocity":0.3937007874015748},{"duration":0.10135125000000755,"midi":0,"time":108.64854,"velocity":0.3937007874015748}]}]}
