{"tracks":[{"instrument":{"family":"synth lead","number":82,"name":"lead 3 (calliope)"},"notes":[{"duration":0.2608695,"midi":45,"time":0,"velocity":0.7874015748031497},{"duration":0.2608695,"midi":26,"time":0,"velocity":0.7874015748031497},{"duration":0.2608695,"midi":53,"time":0.2608695,"velocity":0.7874015748031497},{"duration":0.2608695,"midi":28,"time":0.521739,"velocity":0.7874015748031497},{"duration":0.2608695,"midi":48,"time":0.521739,"velocity":0.7874015748031497},{"duration":0.2608695,"midi":57,"time":0.7826084999999999,"velocity":0.7874015748031497},{"duration":1.043478,"midi":55,"time":1.043478,"velocity":0.7874015748031497},{"duration":1.043478,"midi":50,"time":1.043478,"velocity":0.7874015748031497},{"duration":1.043478,"midi":34,"time":1.043478,"velocity":0.7874015748031497},{"duration":0.2608695000000001,"midi":24,"time":2.086956,"velocity":0.7874015748031497},{"duration":0.2608695000000001,"midi":43,"time":2.086956,"velocity":0.7874015748031497},{"duration":0.2608695000000001,"midi":52,"time":2.3478255,"velocity":0.7874015748031497},{"duration":0.26086949999999964,"midi":48,"time":2.608695,"velocity":0.7874015748031497},{"duration":0.26086949999999964,"midi":28,"time":2.608695,"velocity":0.7874015748031497},{"duration":0.2608695000000001,"midi":55,"time":2.8695644999999996,"velocity":0.7874015748031497},{"duration":1.043478,"midi":53,"time":3.1304339999999997,"velocity":0.7874015748031497},{"duration":1.043478,"midi":26,"time":3.1304339999999997,"velocity":0.7874015748031497},{"duration":1.043478,"midi":45,"time":3.1304339999999997,"velocity":0.7874015748031497},{"duration":0.2608695000000001,"midi":33,"time":4.173912,"velocity":0.7874015748031497},{"duration":0.2608695000000001,"midi":43,"time":4.173912,"velocity":0.7874015748031497},{"duration":0.2608695000000001,"midi":50,"time":4.4347815,"velocity":0.7874015748031497},{"duration":0.2608695000000001,"midi":48,"time":4.695651,"velocity":0.7874015748031497},{"duration":0.2608695000000001,"midi":24,"time":4.695651,"velocity":0.7874015748031497},{"duration":0.2608695000000001,"midi":53,"time":4.9565205,"velocity":0.7874015748031497},{"duration":0.2608694999999992,"midi":48,"time":5.21739,"velocity":0.7874015748031497},{"duration":1.0434779999999995,"midi":34,"time":5.21739,"velocity":0.7874015748031497},{"duration":1.0434779999999995,"midi":52,"time":5.21739,"velocity":0.7874015748031497},{"duration":0.2608695000000001,"midi":46,"time":5.478259499999999,"velocity":0.7874015748031497},{"duration":0.2608695000000001,"midi":43,"time":5.739128999999999,"velocity":0.7874015748031497},{"duration":0.2608695000000001,"midi":45,"time":5.999998499999999,"velocity":0.7874015748031497},{"duration":0.13043475000000004,"midi":48,"time":6.260867999999999,"velocity":0.7874015748031497},{"duration":0.2608695000000001,"midi":31,"time":6.260867999999999,"velocity":0.7874015748031497},{"duration":0.2608695000000001,"midi":41,"time":6.5217374999999995,"velocity":0.7874015748031497},{"duration":0.2608695000000001,"midi":48,"time":6.5217374999999995,"velocity":0.7874015748031497},{"duration":0.2608695000000001,"midi":24,"time":6.782607,"velocity":0.7874015748031497},{"duration":0.2608695000000001,"midi":43,"time":6.782607,"velocity":0.7874015748031497},{"duration":0.13043475000000004,"midi":45,"time":7.0434765,"velocity":0.7874015748031497},{"duration":0.2608694999999992,"midi":50,"time":7.0434765,"velocity":0.7874015748031497},{"duration":0.9130432500000012,"midi":45,"time":7.304345999999999,"velocity":0.7874015748031497},{"duration":0.9130432500000012,"midi":45,"time":7.304345999999999,"velocity":0.7874015748031497},{"duration":0.9130432500000012,"midi":26,"time":7.304345999999999,"velocity":0.7874015748031497},{"duration":0.2608695000000001,"midi":45,"time":8.347824,"velocity":0.7874015748031497},{"duration":0.2608695000000001,"midi":26,"time":8.347824,"velocity":0.7874015748031497},{"duration":0.2608695000000001,"midi":53,"time":8.6086935,"velocity":0.7874015748031497},{"duration":0.2608695000000001,"midi":48,"time":8.869563,"velocity":0.7874015748031497},{"duration":0.2608695000000001,"midi":28,"time":8.869563,"velocity":0.7874015748031497},{"duration":0.2608695000000001,"midi":57,"time":9.1304325,"velocity":0.7874015748031497},{"duration":1.0434780000000003,"midi":34,"time":9.391302,"velocity":0.7874015748031497},{"duration":1.0434780000000003,"midi":50,"time":9.391302,"velocity":0.7874015748031497},{"duration":1.0434780000000003,"midi":55,"time":9.391302,"velocity":0.7874015748031497},{"duration":0.2608694999999983,"midi":24,"time":10.43478,"velocity":0.7874015748031497},{"duration":0.2608694999999983,"midi":52,"time":10.43478,"velocity":0.7874015748031497},{"duration":0.2608695000000001,"midi":60,"time":10.695649499999998,"velocity":0.7874015748031497},{"duration":0.2608695000000001,"midi":48,"time":10.956518999999998,"velocity":0.7874015748031497},{"duration":0.2608695000000001,"midi":28,"time":10.956518999999998,"velocity":0.7874015748031497},{"duration":0.2608695000000001,"midi":55,"time":11.217388499999998,"velocity":0.7874015748031497},{"duration":0.9130432500000012,"midi":26,"time":11.478257999999999,"velocity":0.7874015748031497},{"duration":1.0434780000000003,"midi":57,"time":11.478257999999999,"velocity":0.7874015748031497},{"duration":0.5217390000000002,"midi":52,"time":11.478257999999999,"velocity":0.7874015748031497},{"duration":0.5217390000000002,"midi":53,"time":11.999996999999999,"velocity":0.7874015748031497},{"duration":0.2608695000000001,"midi":52,"time":12.521735999999999,"velocity":0.7874015748031497},{"duration":0.2608695000000001,"midi":33,"time":12.521735999999999,"velocity":0.7874015748031497},{"duration":0.2608695000000001,"midi":50,"time":12.782605499999999,"velocity":0.7874015748031497},{"duration":0.2608695000000001,"midi":57,"time":12.782605499999999,"velocity":0.7874015748031497},{"duration":0.2608695000000001,"midi":24,"time":13.043474999999999,"velocity":0.7874015748031497},{"duration":0.2608695000000001,"midi":48,"time":13.043474999999999,"velocity":0.7874015748031497},{"duration":0.2608695000000001,"midi":55,"time":13.043474999999999,"velocity":0.7874015748031497},{"duration":0.2608695000000001,"midi":57,"time":13.3043445,"velocity":0.7874015748031497},{"duration":0.13043474999999916,"midi":52,"time":13.3043445,"velocity":0.7874015748031497},{"duration":0.5217390000000002,"midi":52,"time":13.565214,"velocity":0.7874015748031497},{"duration":0.9130432499999994,"midi":34,"time":13.565214,"velocity":0.7874015748031497},{"duration":0.5217389999999984,"midi":50,"time":14.086953,"velocity":0.7874015748031497},{"duration":0.2608694999999983,"midi":65,"time":14.3478225,"velocity":0.7874015748031497},{"duration":0.2608695000000001,"midi":31,"time":14.608691999999998,"velocity":0.7874015748031497},{"duration":0.2608695000000001,"midi":48,"time":14.608691999999998,"velocity":0.7874015748031497},{"duration":0.06521737499999958,"midi":65,"time":14.673909375,"velocity":0.7874015748031497},{"duration":0.13043474999999916,"midi":64,"time":14.739126749999999,"velocity":0.7874015748031497},{"duration":0.2608695000000001,"midi":41,"time":14.869561499999998,"velocity":0.7874015748031497},{"duration":0.2608695000000001,"midi":62,"time":14.869561499999998,"velocity":0.7874015748031497},{"duration":0.2608695000000001,"midi":60,"time":15.130430999999998,"velocity":0.7874015748031497},{"duration":0.2608695000000001,"midi":24,"time":15.130430999999998,"velocity":0.7874015748031497},{"duration":0.2608695000000001,"midi":43,"time":15.130430999999998,"velocity":0.7874015748031497},{"duration":0.2608695000000001,"midi":48,"time":15.391300499999998,"velocity":0.7874015748031497},{"duration":0.2608695000000001,"midi":64,"time":15.391300499999998,"velocity":0.7874015748031497},{"duration":1.0434780000000003,"midi":62,"time":15.652169999999998,"velocity":0.7874015748031497},{"duration":1.0434780000000003,"midi":45,"time":15.652169999999998,"velocity":0.7874015748031497},{"duration":1.0434780000000003,"midi":26,"time":15.652169999999998,"velocity":0.7874015748031497},{"duration":0.26086950000000186,"midi":62,"time":17.478256499999997,"velocity":0.7874015748031497},{"duration":0.1304347500000027,"midi":62,"time":17.999995499999997,"velocity":0.7874015748031497},{"duration":0.7826084999999985,"midi":62,"time":18.260865,"velocity":0.7874015748031497},{"duration":0.7826084999999985,"midi":58,"time":18.260865,"velocity":0.7874015748031497},{"duration":0.13043474999999916,"midi":34,"time":18.260865,"velocity":0.7874015748031497},{"duration":0.13043474999999916,"midi":41,"time":18.391299749999998,"velocity":0.7874015748031497},{"duration":0.1304347500000027,"midi":46,"time":18.521734499999997,"velocity":0.7874015748031497},{"duration":0.13043474999999916,"midi":41,"time":18.65216925,"velocity":0.7874015748031497},{"duration":0.13043474999999916,"midi":34,"time":18.782604,"velocity":0.7874015748031497},{"duration":0.13043474999999916,"midi":41,"time":18.91303875,"velocity":0.7874015748031497},{"duration":0.13043474999999916,"midi":46,"time":19.043473499999998,"velocity":0.7874015748031497},{"duration":0.1304347500000027,"midi":41,"time":19.173908249999997,"velocity":0.7874015748031497},{"duration":0.39130424999999747,"midi":58,"time":19.304343,"velocity":0.7874015748031497},{"duration":0.13043474999999916,"midi":34,"time":19.304343,"velocity":0.7874015748031497},{"duration":0.13043474999999916,"midi":41,"time":19.43477775,"velocity":0.7874015748031497},{"duration":0.13043474999999916,"midi":46,"time":19.565212499999998,"velocity":0.7874015748031497},{"duration":0.1304347500000027,"midi":41,"time":19.695647249999997,"velocity":0.7874015748031497},{"duration":0.13043474999999916,"midi":34,"time":19.826082,"velocity":0.7874015748031497},{"duration":0.13043474999999916,"midi":41,"time":19.95651675,"velocity":0.7874015748031497},{"duration":0.13043474999999916,"midi":46,"time":20.086951499999998,"velocity":0.7874015748031497},{"duration":0.1304347500000027,"midi":41,"time":20.217386249999997,"velocity":0.7874015748031497},{"duration":0.13043474999999916,"midi":34,"time":20.347821,"velocity":0.7874015748031497},{"duration":0.13043474999999916,"midi":41,"time":20.47825575,"velocity":0.7874015748031497},{"duration":0.13043474999999916,"midi":46,"time":20.608690499999998,"velocity":0.7874015748031497},{"duration":0.1304347500000027,"midi":41,"time":20.739125249999997,"velocity":0.7874015748031497},{"duration":0.13043474999999916,"midi":34,"time":20.86956,"velocity":0.7874015748031497},{"duration":0.13043474999999916,"midi":41,"time":20.99999475,"velocity":0.7874015748031497},{"duration":0.13043474999999916,"midi":46,"time":21.130429499999998,"velocity":0.7874015748031497},{"duration":0.13043474999999916,"midi":41,"time":21.260864249999997,"velocity":0.7874015748031497},{"duration":0.5217390000000002,"midi":34,"time":21.391298999999997,"velocity":0.7874015748031497},{"duration":0.5217390000000002,"midi":46,"time":21.391298999999997,"velocity":0.7874015748031497},{"duration":0.391304250000001,"midi":58,"time":21.391298999999997,"velocity":0.7874015748031497},{"duration":0.5217390000000002,"midi":58,"time":21.913037999999997,"velocity":0.7874015748031497},{"duration":0.5217390000000002,"midi":36,"time":21.913037999999997,"velocity":0.7874015748031497},{"duration":0.5217390000000002,"midi":48,"time":21.913037999999997,"velocity":0.7874015748031497},{"duration":0.1304347500000027,"midi":38,"time":22.434776999999997,"velocity":0.7874015748031497},{"duration":0.782608500000002,"midi":62,"time":22.434776999999997,"velocity":0.7874015748031497},{"duration":0.13043474999999916,"midi":45,"time":22.56521175,"velocity":0.7874015748031497},{"duration":0.13043474999999916,"midi":50,"time":22.6956465,"velocity":0.7874015748031497},{"duration":0.13043474999999916,"midi":45,"time":22.826081249999998,"velocity":0.7874015748031497},{"duration":0.13043474999999916,"midi":38,"time":22.956515999999997,"velocity":0.7874015748031497},{"duration":0.1304347500000027,"midi":45,"time":23.086950749999996,"velocity":0.7874015748031497},{"duration":0.13043474999999916,"midi":50,"time":23.2173855,"velocity":0.7874015748031497},{"duration":0.13043474999999916,"midi":45,"time":23.347820249999998,"velocity":0.7874015748031497},{"duration":0.13043474999999916,"midi":38,"time":23.478254999999997,"velocity":0.7874015748031497},{"duration":0.1304347500000027,"midi":45,"time":23.608689749999996,"velocity":0.7874015748031497},{"duration":0.13043474999999916,"midi":50,"time":23.7391245,"velocity":0.7874015748031497},{"duration":0.13043474999999916,"midi":45,"time":23.86955925,"velocity":0.7874015748031497},{"duration":0.13043474999999916,"midi":38,"time":23.999993999999997,"velocity":0.7874015748031497},{"duration":0.1304347500000027,"midi":45,"time":24.130428749999997,"velocity":0.7874015748031497},{"duration":0.13043474999999916,"midi":50,"time":24.2608635,"velocity":0.7874015748031497},{"duration":0.13043474999999916,"midi":45,"time":24.39129825,"velocity":0.7874015748031497},{"duration":0.13043474999999916,"midi":38,"time":24.521732999999998,"velocity":0.7874015748031497},{"duration":1.0434780000000003,"midi":62,"time":24.521732999999998,"velocity":0.7874015748031497},{"duration":1.0434780000000003,"midi":65,"time":24.521732999999998,"velocity":0.7874015748031497},{"duration":0.1304347500000027,"midi":45,"time":24.652167749999997,"velocity":0.7874015748031497},{"duration":0.13043474999999916,"midi":50,"time":24.7826025,"velocity":0.7874015748031497},{"duration":0.13043474999999916,"midi":45,"time":24.91303725,"velocity":0.7874015748031497},{"duration":0.13043474999999916,"midi":38,"time":25.043471999999998,"velocity":0.7874015748031497},{"duration":0.13043474999999916,"midi":45,"time":25.173906749999997,"velocity":0.7874015748031497},{"duration":0.1304347500000027,"midi":50,"time":25.304341499999996,"velocity":0.7874015748031497},{"duration":0.13043474999999916,"midi":45,"time":25.43477625,"velocity":0.7874015748031497},{"duration":0.5217390000000002,"midi":38,"time":25.565210999999998,"velocity":0.7874015748031497},{"duration":0.5217390000000002,"midi":50,"time":25.565210999999998,"velocity":0.7874015748031497},{"duration":0.2608694999999983,"midi":67,"time":25.565210999999998,"velocity":0.7874015748031497},{"duration":0.2608694999999983,"midi":67,"time":26.086949999999998,"velocity":0.7874015748031497},{"duration":0.5217390000000002,"midi":53,"time":26.086949999999998,"velocity":0.7874015748031497},{"duration":0.5217390000000002,"midi":41,"time":26.086949999999998,"velocity":0.7874015748031497},{"duration":0.7826084999999985,"midi":67,"time":26.608689,"velocity":0.7874015748031497},{"duration":0.13043474999999916,"midi":34,"time":26.608689,"velocity":0.7874015748031497},{"duration":0.13043474999999916,"midi":41,"time":26.739123749999997,"velocity":0.7874015748031497},{"duration":0.1304347500000027,"midi":46,"time":26.869558499999997,"velocity":0.7874015748031497},{"duration":0.13043474999999916,"midi":41,"time":26.99999325,"velocity":0.7874015748031497},{"duration":0.13043474999999916,"midi":34,"time":27.130428,"velocity":0.7874015748031497},{"duration":0.13043474999999916,"midi":41,"time":27.260862749999998,"velocity":0.7874015748031497},{"duration":0.13043474999999916,"midi":46,"time":27.391297499999997,"velocity":0.7874015748031497},{"duration":0.1304347500000027,"midi":41,"time":27.521732249999996,"velocity":0.7874015748031497},{"duration":0.13043474999999916,"midi":34,"time":27.652167,"velocity":0.7874015748031497},{"duration":0.13043474999999916,"midi":41,"time":27.782601749999998,"velocity":0.7874015748031497},{"duration":0.13043474999999916,"midi":46,"time":27.913036499999997,"velocity":0.7874015748031497},{"duration":0.1304347500000027,"midi":41,"time":28.043471249999996,"velocity":0.7874015748031497},{"duration":0.13043474999999916,"midi":34,"time":28.173906,"velocity":0.7874015748031497},{"duration":0.13043474999999916,"midi":41,"time":28.304340749999998,"velocity":0.7874015748031497},{"duration":0.13043474999999916,"midi":46,"time":28.434775499999997,"velocity":0.7874015748031497},{"duration":0.1304347500000027,"midi":41,"time":28.565210249999996,"velocity":0.7874015748031497},{"duration":0.13043474999999916,"midi":36,"time":28.695645,"velocity":0.7874015748031497},{"duration":0.7826084999999985,"midi":60,"time":28.695645,"velocity":0.7874015748031497},{"duration":0.7826084999999985,"midi":67,"time":28.695645,"velocity":0.7874015748031497},{"duration":0.13043474999999916,"midi":43,"time":28.826079749999998,"velocity":0.7874015748031497},{"duration":0.13043474999999916,"midi":48,"time":28.956514499999997,"velocity":0.7874015748031497},{"duration":0.13043474999999916,"midi":43,"time":29.086949249999996,"velocity":0.7874015748031497},{"duration":0.1304347500000027,"midi":36,"time":29.217383999999996,"velocity":0.7874015748031497},{"duration":0.13043474999999916,"midi":43,"time":29.34781875,"velocity":0.7874015748031497},{"duration":0.13043474999999916,"midi":48,"time":29.478253499999997,"velocity":0.7874015748031497},{"duration":0.13043474999999916,"midi":43,"time":29.608688249999997,"velocity":0.7874015748031497},{"duration":0.1304347500000027,"midi":36,"time":29.739122999999996,"velocity":0.7874015748031497},{"duration":0.13043474999999916,"midi":43,"time":29.86955775,"velocity":0.7874015748031497},{"duration":0.13043474999999916,"midi":48,"time":29.999992499999998,"velocity":0.7874015748031497},{"duration":0.13043474999999916,"midi":43,"time":30.130427249999997,"velocity":0.7874015748031497},{"duration":0.1304347500000027,"midi":36,"time":30.260861999999996,"velocity":0.7874015748031497},{"duration":0.13043474999999916,"midi":43,"time":30.39129675,"velocity":0.7874015748031497},{"duration":0.13043474999999916,"midi":48,"time":30.521731499999998,"velocity":0.7874015748031497},{"duration":0.13043474999999916,"midi":43,"time":30.652166249999997,"velocity":0.7874015748031497},{"duration":0.26086950000000186,"midi":38,"time":30.782600999999996,"velocity":0.7874015748031497},{"duration":0.9130432500000012,"midi":62,"time":30.782600999999996,"velocity":0.7874015748031497},{"duration":0.9130432500000012,"midi":65,"time":30.782600999999996,"velocity":0.7874015748031497},{"duration":0.2608694999999983,"midi":45,"time":31.043470499999998,"velocity":0.7874015748031497},{"duration":0.26086950000000186,"midi":50,"time":31.304339999999996,"velocity":0.7874015748031497},{"duration":0.2608694999999983,"midi":45,"time":31.565209499999998,"velocity":0.7874015748031497},{"duration":1.043478000000004,"midi":62,"time":31.826078999999996,"velocity":0.7874015748031497},{"duration":1.043478000000004,"midi":65,"time":31.826078999999996,"velocity":0.7874015748031497},{"duration":0.26086950000000186,"midi":38,"time":31.826078999999996,"velocity":0.7874015748031497},{"duration":0.2608694999999983,"midi":45,"time":32.0869485,"velocity":0.7874015748031497},{"duration":0.2608694999999983,"midi":50,"time":32.347818,"velocity":0.7874015748031497},{"duration":0.2608695000000054,"midi":45,"time":32.608687499999995,"velocity":0.7874015748031497},{"duration":1.0434779999999932,"midi":48,"time":32.869557,"velocity":0.7874015748031497},{"duration":1.0434779999999932,"midi":36,"time":32.869557,"velocity":0.7874015748031497},{"duration":1.0434779999999932,"midi":64,"time":32.869557,"velocity":0.7874015748031497},{"duration":1.0434779999999932,"midi":43,"time":32.869557,"velocity":0.7874015748031497},{"duration":0.39130425000000457,"midi":62,"time":33.913034999999994,"velocity":0.7874015748031497},{"duration":0.39130424999999747,"midi":62,"time":34.434774,"velocity":0.7874015748031497},{"duration":0.782608500000002,"midi":58,"time":34.956512999999994,"velocity":0.7874015748031497},{"duration":0.782608500000002,"midi":62,"time":34.956512999999994,"velocity":0.7874015748031497},{"duration":0.13043475000000626,"midi":34,"time":34.956512999999994,"velocity":0.7874015748031497},{"duration":0.13043474999999916,"midi":41,"time":35.08694775,"velocity":0.7874015748031497},{"duration":0.13043474999999916,"midi":46,"time":35.2173825,"velocity":0.7874015748031497},{"duration":0.13043474999999916,"midi":41,"time":35.34781725,"velocity":0.7874015748031497},{"duration":0.13043474999999916,"midi":34,"time":35.478252,"velocity":0.7874015748031497},{"duration":0.13043474999999916,"midi":41,"time":35.60868675,"velocity":0.7874015748031497},{"duration":0.13043474999999916,"midi":46,"time":35.739121499999996,"velocity":0.7874015748031497},{"duration":0.13043474999999916,"midi":41,"time":35.869556249999995,"velocity":0.7874015748031497},{"duration":0.39130425000000457,"midi":58,"time":35.999990999999994,"velocity":0.7874015748031497},{"duration":0.13043474999999916,"midi":34,"time":35.999990999999994,"velocity":0.7874015748031497},{"duration":0.13043475000000626,"midi":41,"time":36.13042574999999,"velocity":0.7874015748031497},{"duration":0.13043474999999916,"midi":46,"time":36.2608605,"velocity":0.7874015748031497},{"duration":0.13043474999999916,"midi":41,"time":36.39129525,"velocity":0.7874015748031497},{"duration":0.13043474999999916,"midi":34,"time":36.52173,"velocity":0.7874015748031497},{"duration":0.13043474999999916,"midi":41,"time":36.65216475,"velocity":0.7874015748031497},{"duration":0.13043474999999916,"midi":46,"time":36.782599499999996,"velocity":0.7874015748031497},{"duration":0.13043474999999916,"midi":41,"time":36.913034249999995,"velocity":0.7874015748031497},{"duration":1.0434780000000003,"midi":65,"time":37.043468999999995,"velocity":0.7874015748031497},{"duration":0.9130432500000012,"midi":58,"time":37.043468999999995,"velocity":0.7874015748031497},{"duration":0.13043474999999916,"midi":34,"time":37.043468999999995,"velocity":0.7874015748031497},{"duration":0.13043475000000626,"midi":41,"time":37.173903749999994,"velocity":0.7874015748031497},{"duration":0.13043474999999916,"midi":46,"time":37.3043385,"velocity":0.7874015748031497},{"duration":0.13043474999999916,"midi":41,"time":37.43477325,"velocity":0.7874015748031497},{"duration":0.13043474999999916,"midi":34,"time":37.565208,"velocity":0.7874015748031497},{"duration":0.13043474999999916,"midi":41,"time":37.69564275,"velocity":0.7874015748031497},{"duration":0.13043474999999916,"midi":46,"time":37.8260775,"velocity":0.7874015748031497},{"duration":0.13043474999999916,"midi":41,"time":37.956512249999996,"velocity":0.7874015748031497},{"duration":0.39130425000000457,"midi":58,"time":38.086946999999995,"velocity":0.7874015748031497},{"duration":0.5217390000000037,"midi":46,"time":38.086946999999995,"velocity":0.7874015748031497},{"duration":0.5217390000000037,"midi":34,"time":38.086946999999995,"velocity":0.7874015748031497},{"duration":0.5217389999999966,"midi":36,"time":38.608686,"velocity":0.7874015748031497},{"duration":0.5217389999999966,"midi":58,"time":38.608686,"velocity":0.7874015748031497},{"duration":0.5217389999999966,"midi":48,"time":38.608686,"velocity":0.7874015748031497},{"duration":0.782608500000002,"midi":62,"time":39.130424999999995,"velocity":0.7874015748031497},{"duration":0.13043474999999916,"midi":38,"time":39.130424999999995,"velocity":0.7874015748031497},{"duration":0.13043474999999916,"midi":45,"time":39.260859749999995,"velocity":0.7874015748031497},{"duration":0.13043475000000626,"midi":50,"time":39.391294499999994,"velocity":0.7874015748031497},{"duration":0.13043474999999916,"midi":45,"time":39.52172925,"velocity":0.7874015748031497},{"duration":0.13043474999999916,"midi":38,"time":39.652164,"velocity":0.7874015748031497},{"duration":0.13043474999999916,"midi":45,"time":39.78259875,"velocity":0.7874015748031497},{"duration":0.13043474999999916,"midi":50,"time":39.9130335,"velocity":0.7874015748031497},{"duration":0.13043474999999916,"midi":45,"time":40.04346825,"velocity":0.7874015748031497},{"duration":0.13043474999999916,"midi":38,"time":40.173902999999996,"velocity":0.7874015748031497},{"duration":0.13043474999999916,"midi":45,"time":40.304337749999995,"velocity":0.7874015748031497},{"duration":0.13043474999999916,"midi":50,"time":40.434772499999994,"velocity":0.7874015748031497},{"duration":0.13043475000000626,"midi":45,"time":40.56520724999999,"velocity":0.7874015748031497},{"duration":0.13043474999999916,"midi":38,"time":40.695642,"velocity":0.7874015748031497},{"duration":0.13043474999999916,"midi":45,"time":40.82607675,"velocity":0.7874015748031497},{"duration":0.13043474999999916,"midi":50,"time":40.9565115,"velocity":0.7874015748031497},{"duration":0.13043474999999916,"midi":45,"time":41.08694625,"velocity":0.7874015748031497},{"duration":1.0434780000000003,"midi":62,"time":41.217380999999996,"velocity":0.7874015748031497},{"duration":0.13043474999999916,"midi":38,"time":41.217380999999996,"velocity":0.7874015748031497},{"duration":1.0434780000000003,"midi":65,"time":41.217380999999996,"velocity":0.7874015748031497},{"duration":0.13043474999999916,"midi":45,"time":41.347815749999995,"velocity":0.7874015748031497},{"duration":0.13043474999999916,"midi":50,"time":41.478250499999994,"velocity":0.7874015748031497},{"duration":0.13043475000000626,"midi":45,"time":41.60868524999999,"velocity":0.7874015748031497},{"duration":0.13043474999999916,"midi":38,"time":41.73912,"velocity":0.7874015748031497},{"duration":0.13043474999999916,"midi":45,"time":41.86955475,"velocity":0.7874015748031497},{"duration":0.13043474999999916,"midi":50,"time":41.9999895,"velocity":0.7874015748031497},{"duration":0.13043474999999916,"midi":45,"time":42.13042425,"velocity":0.7874015748031497},{"duration":0.5217389999999966,"midi":50,"time":42.260858999999996,"velocity":0.7874015748031497},{"duration":0.5217389999999966,"midi":38,"time":42.260858999999996,"velocity":0.7874015748031497},{"duration":0.39130424999999747,"midi":67,"time":42.260858999999996,"velocity":0.7874015748031497},{"duration":0.5217390000000037,"midi":53,"time":42.78259799999999,"velocity":0.7874015748031497},{"duration":0.39130425000000457,"midi":67,"time":42.78259799999999,"velocity":0.7874015748031497},{"duration":0.5217390000000037,"midi":41,"time":42.78259799999999,"velocity":0.7874015748031497},{"duration":1.9565212500000015,"midi":46,"time":43.304337,"velocity":0.7874015748031497},{"duration":1.9565212500000015,"midi":50,"time":43.304337,"velocity":0.7874015748031497},{"duration":2.0869560000000007,"midi":43,"time":43.304337,"velocity":0.7874015748031497},{"duration":0.782608500000002,"midi":67,"time":43.304337,"velocity":0.7874015748031497},{"duration":1.9565212500000015,"midi":55,"time":43.434771749999996,"velocity":0.7874015748031497},{"duration":0.7826084999999949,"midi":60,"time":45.391293,"velocity":0.7874015748031497},{"duration":0.7826084999999949,"midi":67,"time":45.391293,"velocity":0.7874015748031497},{"duration":2.0869560000000007,"midi":45,"time":45.391293,"velocity":0.7874015748031497},{"duration":1.9565212500000015,"midi":52,"time":45.391293,"velocity":0.7874015748031497},{"duration":1.9565212500000015,"midi":48,"time":45.391293,"velocity":0.7874015748031497},{"duration":1.9565212500000015,"midi":57,"time":45.52172775,"velocity":0.7874015748031497},{"duration":1.9565212499999944,"midi":50,"time":47.478249,"velocity":0.7874015748031497},{"duration":2.0869560000000007,"midi":46,"time":47.478249,"velocity":0.7874015748031497},{"duration":0.9130432499999941,"midi":62,"time":47.478249,"velocity":0.7874015748031497},{"duration":0.9130432499999941,"midi":65,"time":47.478249,"velocity":0.7874015748031497},{"duration":1.9565212499999944,"midi":53,"time":47.478249,"velocity":0.7874015748031497},{"duration":1.9565212500000015,"midi":58,"time":47.60868375,"velocity":0.7874015748031497},{"duration":1.0434780000000003,"midi":62,"time":48.521727,"velocity":0.7874015748031497},{"duration":1.0434780000000003,"midi":65,"time":48.521727,"velocity":0.7874015748031497},{"duration":0.9130432499999941,"midi":52,"time":49.565205,"velocity":0.7874015748031497},{"duration":1.0434779999999932,"midi":48,"time":49.565205,"velocity":0.7874015748031497},{"duration":1.0434779999999932,"midi":64,"time":49.565205,"velocity":0.7874015748031497},{"duration":0.9130432499999941,"midi":55,"time":49.69563975,"velocity":0.7874015748031497},{"duration":0.7826084999999949,"midi":60,"time":49.8260745,"velocity":0.7874015748031497},{"duration":0.2608695000000054,"midi":41,"time":50.60868299999999,"velocity":0.7874015748031497},{"duration":0.2608695000000054,"midi":53,"time":50.60868299999999,"velocity":0.7874015748031497},{"duration":0.2608695000000054,"midi":62,"time":50.60868299999999,"velocity":0.7874015748031497},{"duration":0.2608694999999983,"midi":52,"time":51.130421999999996,"velocity":0.7874015748031497},{"duration":0.2608694999999983,"midi":41,"time":51.130421999999996,"velocity":0.7874015748031497},{"duration":0.2608694999999983,"midi":62,"time":51.130421999999996,"velocity":0.7874015748031497},{"duration":0.9130432500000012,"midi":53,"time":51.65216099999999,"velocity":0.7874015748031497},{"duration":0.9130432500000012,"midi":46,"time":51.65216099999999,"velocity":0.7874015748031497},{"duration":1.0434780000000003,"midi":46,"time":52.69563899999999,"velocity":0.7874015748031497},{"duration":1.0434780000000003,"midi":53,"time":52.69563899999999,"velocity":0.7874015748031497},{"duration":0.9130432500000012,"midi":48,"time":53.73911699999999,"velocity":0.7874015748031497},{"duration":0.9130432500000012,"midi":55,"time":53.73911699999999,"velocity":0.7874015748031497},{"duration":1.0434780000000003,"midi":55,"time":54.78259499999999,"velocity":0.7874015748031497},{"duration":1.0434780000000003,"midi":48,"time":54.78259499999999,"velocity":0.7874015748031497},{"duration":0.9130432500000012,"midi":45,"time":55.826072999999994,"velocity":0.7874015748031497},{"duration":0.9130432500000012,"midi":50,"time":55.826072999999994,"velocity":0.7874015748031497},{"duration":1.0434780000000003,"midi":50,"time":56.869550999999994,"velocity":0.7874015748031497},{"duration":0.9130432500000012,"midi":45,"time":56.869550999999994,"velocity":0.7874015748031497},{"duration":0.9130432500000012,"midi":45,"time":57.913028999999995,"velocity":0.7874015748031497},{"duration":0.9130432500000012,"midi":52,"time":57.913028999999995,"velocity":0.7874015748031497},{"duration":1.0434780000000003,"midi":52,"time":58.956506999999995,"velocity":0.7874015748031497},{"duration":1.0434780000000003,"midi":45,"time":58.956506999999995,"velocity":0.7874015748031497},{"duration":0.9130432500000012,"midi":46,"time":59.999984999999995,"velocity":0.7874015748031497},{"duration":0.9130432500000012,"midi":53,"time":59.999984999999995,"velocity":0.7874015748031497},{"duration":1.0434780000000003,"midi":53,"time":61.043462999999996,"velocity":0.7874015748031497},{"duration":1.0434780000000003,"midi":46,"time":61.043462999999996,"velocity":0.7874015748031497},{"duration":0.9130432500000012,"midi":55,"time":62.086940999999996,"velocity":0.7874015748031497},{"duration":0.9130432500000012,"midi":48,"time":62.086940999999996,"velocity":0.7874015748031497},{"duration":1.0434780000000003,"midi":48,"time":63.130418999999996,"velocity":0.7874015748031497},{"duration":1.0434780000000003,"midi":55,"time":63.130418999999996,"velocity":0.7874015748031497},{"duration":0.9130432500000012,"midi":45,"time":64.173897,"velocity":0.7874015748031497},{"duration":0.9130432500000012,"midi":50,"time":64.173897,"velocity":0.7874015748031497},{"duration":1.0434780000000075,"midi":50,"time":65.21737499999999,"velocity":0.7874015748031497},{"duration":0.9130432500000012,"midi":45,"time":65.21737499999999,"velocity":0.7874015748031497},{"duration":0.9130432500000012,"midi":45,"time":66.260853,"velocity":0.7874015748031497},{"duration":0.9130432500000012,"midi":52,"time":66.260853,"velocity":0.7874015748031497},{"duration":1.0434780000000075,"midi":52,"time":67.30433099999999,"velocity":0.7874015748031497},{"duration":1.0434780000000075,"midi":45,"time":67.30433099999999,"velocity":0.7874015748031497},{"duration":0.39130424999999036,"midi":46,"time":68.347809,"velocity":0.7874015748031497},{"duration":0.39130424999999036,"midi":53,"time":68.347809,"velocity":0.7874015748031497},{"duration":0.2608694999999983,"midi":46,"time":68.869548,"velocity":0.7874015748031497},{"duration":0.2608694999999983,"midi":53,"time":68.869548,"velocity":0.7874015748031497},{"duration":0.13043474999999205,"midi":53,"time":69.26085225,"velocity":0.7874015748031497},{"duration":0.13043474999999205,"midi":46,"time":69.26085225,"velocity":0.7874015748031497},{"duration":0.5217390000000108,"midi":46,"time":69.91302599999999,"velocity":0.7874015748031497},{"duration":0.5217390000000108,"midi":53,"time":69.91302599999999,"velocity":0.7874015748031497},{"duration":0.39130424999999036,"midi":48,"time":70.434765,"velocity":0.7874015748031497},{"duration":0.39130424999999036,"midi":55,"time":70.434765,"velocity":0.7874015748031497},{"duration":0.2608694999999983,"midi":55,"time":70.956504,"velocity":0.7874015748031497},{"duration":0.2608694999999983,"midi":48,"time":70.956504,"velocity":0.7874015748031497},{"duration":0.13043474999999205,"midi":48,"time":71.34780825,"velocity":0.7874015748031497},{"duration":0.13043474999999205,"midi":55,"time":71.34780825,"velocity":0.7874015748031497},{"duration":0.5217390000000108,"midi":55,"time":71.99998199999999,"velocity":0.7874015748031497},{"duration":0.5217390000000108,"midi":48,"time":71.99998199999999,"velocity":0.7874015748031497},{"duration":0.39130424999999036,"midi":45,"time":72.521721,"velocity":0.7874015748031497},{"duration":0.39130424999999036,"midi":50,"time":72.521721,"velocity":0.7874015748031497},{"duration":0.2608694999999983,"midi":50,"time":73.04346,"velocity":0.7874015748031497},{"duration":0.2608694999999983,"midi":45,"time":73.04346,"velocity":0.7874015748031497},{"duration":0.13043475000000626,"midi":45,"time":73.43476424999999,"velocity":0.7874015748031497},{"duration":0.13043475000000626,"midi":50,"time":73.43476424999999,"velocity":0.7874015748031497},{"duration":0.5217390000000108,"midi":50,"time":74.08693799999999,"velocity":0.7874015748031497},{"duration":0.39130425000000457,"midi":45,"time":74.08693799999999,"velocity":0.7874015748031497},{"duration":0.913043249999987,"midi":45,"time":74.608677,"velocity":0.7874015748031497},{"duration":0.913043249999987,"midi":52,"time":74.608677,"velocity":0.7874015748031497},{"duration":1.0434779999999932,"midi":45,"time":75.652155,"velocity":0.7874015748031497},{"duration":1.0434779999999932,"midi":52,"time":75.652155,"velocity":0.7874015748031497},{"duration":0.39130425000000457,"midi":46,"time":76.69563299999999,"velocity":0.7874015748031497},{"duration":0.39130425000000457,"midi":53,"time":76.69563299999999,"velocity":0.7874015748031497},{"duration":0.2608694999999983,"midi":46,"time":77.217372,"velocity":0.7874015748031497},{"duration":0.2608694999999983,"midi":53,"time":77.217372,"velocity":0.7874015748031497},{"duration":0.13043475000000626,"midi":53,"time":77.60867624999999,"velocity":0.7874015748031497},{"duration":0.13043475000000626,"midi":46,"time":77.60867624999999,"velocity":0.7874015748031497},{"duration":0.5217389999999966,"midi":46,"time":78.26084999999999,"velocity":0.7874015748031497},{"duration":0.5217389999999966,"midi":53,"time":78.26084999999999,"velocity":0.7874015748031497},{"duration":0.39130425000000457,"midi":55,"time":78.78258899999999,"velocity":0.7874015748031497},{"duration":0.39130425000000457,"midi":48,"time":78.78258899999999,"velocity":0.7874015748031497},{"duration":0.2608694999999983,"midi":48,"time":79.304328,"velocity":0.7874015748031497},{"duration":0.2608694999999983,"midi":55,"time":79.304328,"velocity":0.7874015748031497},{"duration":0.2608694999999983,"midi":48,"time":79.69563224999999,"velocity":0.7874015748031497},{"duration":0.2608694999999983,"midi":55,"time":79.69563224999999,"velocity":0.7874015748031497},{"duration":0.5217389999999966,"midi":55,"time":80.34780599999999,"velocity":0.7874015748031497},{"duration":0.5217389999999966,"midi":48,"time":80.34780599999999,"velocity":0.7874015748031497},{"duration":0.39130425000000457,"midi":50,"time":80.86954499999999,"velocity":0.7874015748031497},{"duration":0.39130425000000457,"midi":45,"time":80.86954499999999,"velocity":0.7874015748031497},{"duration":0.2608694999999983,"midi":45,"time":81.391284,"velocity":0.7874015748031497},{"duration":0.2608694999999983,"midi":50,"time":81.391284,"velocity":0.7874015748031497},{"duration":0.13043475000000626,"midi":50,"time":81.78258824999999,"velocity":0.7874015748031497},{"duration":0.13043475000000626,"midi":45,"time":81.78258824999999,"velocity":0.7874015748031497},{"duration":0.39130425000000457,"midi":45,"time":82.43476199999999,"velocity":0.7874015748031497},{"duration":0.5217389999999966,"midi":50,"time":82.43476199999999,"velocity":0.7874015748031497},{"duration":0.9130432500000012,"midi":45,"time":82.95650099999999,"velocity":0.7874015748031497},{"duration":0.9130432500000012,"midi":52,"time":82.95650099999999,"velocity":0.7874015748031497},{"duration":1.0434779999999932,"midi":45,"time":83.999979,"velocity":0.7874015748031497},{"duration":1.0434779999999932,"midi":52,"time":83.999979,"velocity":0.7874015748031497},{"duration":0.39130425000000457,"midi":53,"time":85.04345699999999,"velocity":0.7874015748031497},{"duration":0.39130425000000457,"midi":46,"time":85.04345699999999,"velocity":0.7874015748031497},{"duration":0.2608695000000125,"midi":46,"time":85.56519599999999,"velocity":0.7874015748031497},{"duration":0.2608695000000125,"midi":53,"time":85.56519599999999,"velocity":0.7874015748031497},{"duration":0.13043475000000626,"midi":53,"time":85.95650024999999,"velocity":0.7874015748031497},{"duration":0.13043475000000626,"midi":46,"time":85.95650024999999,"velocity":0.7874015748031497},{"duration":0.5217389999999966,"midi":53,"time":86.608674,"velocity":0.7874015748031497},{"duration":0.5217389999999966,"midi":46,"time":86.608674,"velocity":0.7874015748031497},{"duration":0.39130425000000457,"midi":55,"time":87.13041299999999,"velocity":0.7874015748031497},{"duration":0.39130425000000457,"midi":48,"time":87.13041299999999,"velocity":0.7874015748031497},{"duration":0.2608694999999983,"midi":55,"time":87.65215199999999,"velocity":0.7874015748031497},{"duration":0.2608694999999983,"midi":48,"time":87.65215199999999,"velocity":0.7874015748031497},{"duration":0.13043475000000626,"midi":48,"time":88.04345624999999,"velocity":0.7874015748031497},{"duration":0.13043475000000626,"midi":55,"time":88.04345624999999,"velocity":0.7874015748031497},{"duration":0.5217389999999966,"midi":48,"time":88.69563,"velocity":0.7874015748031497},{"duration":0.5217389999999966,"midi":55,"time":88.69563,"velocity":0.7874015748031497},{"duration":0.39130425000000457,"midi":45,"time":89.21736899999999,"velocity":0.7874015748031497},{"duration":0.39130425000000457,"midi":50,"time":89.21736899999999,"velocity":0.7874015748031497},{"duration":0.2608694999999983,"midi":45,"time":89.73910799999999,"velocity":0.7874015748031497},{"duration":0.2608694999999983,"midi":50,"time":89.73910799999999,"velocity":0.7874015748031497},{"duration":0.13043475000000626,"midi":50,"time":90.13041224999999,"velocity":0.7874015748031497},{"duration":0.13043475000000626,"midi":45,"time":90.13041224999999,"velocity":0.7874015748031497},{"duration":0.39130424999999036,"midi":45,"time":90.782586,"velocity":0.7874015748031497},{"duration":0.5217389999999966,"midi":50,"time":90.782586,"velocity":0.7874015748031497},{"duration":0.9130432500000012,"midi":45,"time":91.30432499999999,"velocity":0.7874015748031497},{"duration":0.9130432500000012,"midi":52,"time":91.30432499999999,"velocity":0.7874015748031497},{"duration":1.0434780000000075,"midi":52,"time":92.34780299999998,"velocity":0.7874015748031497},{"duration":1.0434780000000075,"midi":45,"time":92.34780299999998,"velocity":0.7874015748031497},{"duration":0.39130425000000457,"midi":46,"time":93.39128099999999,"velocity":0.7874015748031497},{"duration":0.39130425000000457,"midi":53,"time":93.39128099999999,"velocity":0.7874015748031497},{"duration":0.2608694999999983,"midi":46,"time":93.91301999999999,"velocity":0.7874015748031497},{"duration":0.2608694999999983,"midi":53,"time":93.91301999999999,"velocity":0.7874015748031497},{"duration":0.13043474999999205,"midi":53,"time":94.30432425,"velocity":0.7874015748031497},{"duration":0.13043474999999205,"midi":46,"time":94.30432425,"velocity":0.7874015748031497},{"duration":0.5217389999999966,"midi":53,"time":94.956498,"velocity":0.7874015748031497},{"duration":0.5217389999999966,"midi":46,"time":94.956498,"velocity":0.7874015748031497},{"duration":0.39130425000000457,"midi":48,"time":95.478237,"velocity":0.7874015748031497},{"duration":0.39130425000000457,"midi":55,"time":95.478237,"velocity":0.7874015748031497},{"duration":0.2608694999999983,"midi":55,"time":95.99997599999999,"velocity":0.7874015748031497},{"duration":0.2608694999999983,"midi":48,"time":95.99997599999999,"velocity":0.7874015748031497},{"duration":0.2608694999999983,"midi":55,"time":96.39128025,"velocity":0.7874015748031497},{"duration":0.2608694999999983,"midi":48,"time":96.39128025,"velocity":0.7874015748031497},{"duration":0.5217389999999966,"midi":55,"time":97.043454,"velocity":0.7874015748031497},{"duration":0.5217389999999966,"midi":48,"time":97.043454,"velocity":0.7874015748031497},{"duration":0.39130425000000457,"midi":50,"time":97.565193,"velocity":0.7874015748031497},{"duration":0.39130425000000457,"midi":45,"time":97.565193,"velocity":0.7874015748031497},{"duration":0.2608694999999983,"midi":45,"time":98.08693199999999,"velocity":0.7874015748031497},{"duration":0.2608694999999983,"midi":50,"time":98.08693199999999,"velocity":0.7874015748031497},{"duration":0.13043474999999205,"midi":45,"time":98.47823625,"velocity":0.7874015748031497},{"duration":0.13043474999999205,"midi":50,"time":98.47823625,"velocity":0.7874015748031497},{"duration":0.5217389999999966,"midi":50,"time":99.13041,"velocity":0.7874015748031497},{"duration":0.39130424999999036,"midi":45,"time":99.13041,"velocity":0.7874015748031497},{"duration":0.2608694999999983,"midi":45,"time":99.652149,"velocity":0.7874015748031497},{"duration":0.2608694999999983,"midi":49,"time":99.91301849999999,"velocity":0.7874015748031497},{"duration":0.2608694999999983,"midi":52,"time":100.17388799999999,"velocity":0.7874015748031497},{"duration":0.2608694999999983,"midi":57,"time":100.43475749999999,"velocity":0.7874015748031497},{"duration":0.5217389999999966,"midi":61,"time":100.69562699999999,"velocity":0.7874015748031497},{"duration":0.5217390000000108,"midi":49,"time":101.21736599999998,"velocity":0.7874015748031497},{"duration":0.39130424999999036,"midi":46,"time":101.739105,"velocity":0.7874015748031497},{"duration":1.5652169999999899,"midi":65,"time":101.739105,"velocity":0.7874015748031497},{"duration":0.39130425000000457,"midi":50,"time":102.13040924999999,"velocity":0.7874015748031497},{"duration":0.2608694999999983,"midi":53,"time":102.52171349999999,"velocity":0.7874015748031497},{"duration":1.0434780000000075,"midi":58,"time":102.78258299999999,"velocity":0.7874015748031497},{"duration":0.7826084999999949,"midi":67,"time":103.826061,"velocity":0.7874015748031497},{"duration":0.39130424999999036,"midi":48,"time":103.826061,"velocity":0.7874015748031497},{"duration":0.39130425000000457,"midi":52,"time":104.21736524999999,"velocity":0.7874015748031497},{"duration":0.2608694999999983,"midi":55,"time":104.60866949999999,"velocity":0.7874015748031497},{"duration":1.0434780000000075,"midi":60,"time":104.86953899999999,"velocity":0.7874015748031497},{"duration":0.39130424999999036,"midi":38,"time":105.913017,"velocity":0.7874015748031497},{"duration":1.0434779999999932,"midi":65,"time":105.913017,"velocity":0.7874015748031497},{"duration":0.39130425000000457,"midi":45,"time":106.30432124999999,"velocity":0.7874015748031497},{"duration":0.2608694999999983,"midi":50,"time":106.69562549999999,"velocity":0.7874015748031497},{"duration":1.0434780000000075,"midi":53,"time":106.95649499999999,"velocity":0.7874015748031497},{"duration":1.0434779999999932,"midi":67,"time":107.999973,"velocity":0.7874015748031497},{"duration":0.39130424999999036,"midi":48,"time":107.999973,"velocity":0.7874015748031497},{"duration":0.39130425000000457,"midi":52,"time":108.39127724999999,"velocity":0.7874015748031497},{"duration":0.2608694999999983,"midi":55,"time":108.78258149999999,"velocity":0.7874015748031497},{"duration":0.39130425000000457,"midi":50,"time":109.04345099999999,"velocity":0.7874015748031497},{"duration":0.39130425000000457,"midi":65,"time":109.04345099999999,"velocity":0.7874015748031497},{"duration":0.39130425000000457,"midi":69,"time":109.04345099999999,"velocity":0.7874015748031497},{"duration":0.39130425000000457,"midi":38,"time":109.04345099999999,"velocity":0.7874015748031497},{"duration":0.39130424999999036,"midi":72,"time":109.43475525,"velocity":0.7874015748031497},{"duration":0.39130424999999036,"midi":67,"time":109.43475525,"velocity":0.7874015748031497},{"duration":0.39130424999999036,"midi":53,"time":109.43475525,"velocity":0.7874015748031497},{"duration":0.39130424999999036,"midi":41,"time":109.43475525,"velocity":0.7874015748031497},{"duration":0.2608694999999983,"midi":65,"time":109.82605949999999,"velocity":0.7874015748031497},{"duration":0.2608694999999983,"midi":55,"time":109.82605949999999,"velocity":0.7874015748031497},{"duration":0.13043475000000626,"midi":74,"time":109.82605949999999,"velocity":0.7874015748031497},{"duration":0.2608694999999983,"midi":43,"time":109.82605949999999,"velocity":0.7874015748031497},{"duration":1.565217000000004,"midi":69,"time":110.08692899999998,"velocity":0.7874015748031497},{"duration":0.13043475000000626,"midi":34,"time":110.08692899999998,"velocity":0.7874015748031497},{"duration":1.565217000000004,"midi":74,"time":110.08692899999998,"velocity":0.7874015748031497},{"duration":0.13043475000000626,"midi":41,"time":110.21736374999999,"velocity":0.7874015748031497},{"duration":0.13043474999999205,"midi":46,"time":110.3477985,"velocity":0.7874015748031497},{"duration":0.13043475000000626,"midi":41,"time":110.47823324999999,"velocity":0.7874015748031497},{"duration":0.13043474999999205,"midi":34,"time":110.608668,"velocity":0.7874015748031497},{"duration":0.13043475000000626,"midi":41,"time":110.73910274999999,"velocity":0.7874015748031497},{"duration":0.13043474999999205,"midi":46,"time":110.86953749999999,"velocity":0.7874015748031497},{"duration":0.13043475000000626,"midi":41,"time":110.99997224999998,"velocity":0.7874015748031497},{"duration":0.13043474999999205,"midi":34,"time":111.13040699999999,"velocity":0.7874015748031497},{"duration":0.13043475000000626,"midi":41,"time":111.26084174999998,"velocity":0.7874015748031497},{"duration":0.13043475000000626,"midi":46,"time":111.39127649999999,"velocity":0.7874015748031497},{"duration":0.13043474999999205,"midi":41,"time":111.52171125,"velocity":0.7874015748031497},{"duration":0.13043475000000626,"midi":34,"time":111.65214599999999,"velocity":0.7874015748031497},{"duration":0.13043475000000626,"midi":72,"time":111.65214599999999,"velocity":0.7874015748031497},{"duration":0.13043474999999205,"midi":41,"time":111.78258075,"velocity":0.7874015748031497},{"duration":0.13043475000000626,"midi":46,"time":111.91301549999999,"velocity":0.7874015748031497},{"duration":0.13043475000000626,"midi":72,"time":111.91301549999999,"velocity":0.7874015748031497},{"duration":0.13043474999999205,"midi":41,"time":112.04345024999999,"velocity":0.7874015748031497},{"duration":0.7826085000000091,"midi":72,"time":112.17388499999998,"velocity":0.7874015748031497},{"duration":0.13043475000000626,"midi":36,"time":112.17388499999998,"velocity":0.7874015748031497},{"duration":0.7826085000000091,"midi":76,"time":112.17388499999998,"velocity":0.7874015748031497},{"duration":0.13043475000000626,"midi":43,"time":112.30431974999999,"velocity":0.7874015748031497},{"duration":0.13043474999999205,"midi":48,"time":112.4347545,"velocity":0.7874015748031497},{"duration":0.13043475000000626,"midi":43,"time":112.56518924999999,"velocity":0.7874015748031497},{"duration":0.13043474999999205,"midi":36,"time":112.695624,"velocity":0.7874015748031497},{"duration":0.13043475000000626,"midi":43,"time":112.82605874999999,"velocity":0.7874015748031497},{"duration":0.13043474999999205,"midi":48,"time":112.9564935,"velocity":0.7874015748031497},{"duration":0.13043475000000626,"midi":43,"time":113.08692824999999,"velocity":0.7874015748031497},{"duration":0.13043474999999205,"midi":36,"time":113.21736299999999,"velocity":0.7874015748031497},{"duration":0.2608694999999983,"midi":72,"time":113.21736299999999,"velocity":0.7874015748031497},{"duration":0.13043475000000626,"midi":43,"time":113.34779774999998,"velocity":0.7874015748031497},{"duration":0.13043475000000626,"midi":48,"time":113.47823249999999,"velocity":0.7874015748031497},{"duration":0.2608694999999983,"midi":72,"time":113.60866725,"velocity":0.7874015748031497},{"duration":0.13043474999999205,"midi":43,"time":113.60866725,"velocity":0.7874015748031497},{"duration":0.13043475000000626,"midi":36,"time":113.73910199999999,"velocity":0.7874015748031497},{"duration":0.13043474999999205,"midi":43,"time":113.86953675,"velocity":0.7874015748031497},{"duration":0.13043475000000626,"midi":48,"time":113.99997149999999,"velocity":0.7874015748031497},{"duration":0.13043475000000626,"midi":72,"time":113.99997149999999,"velocity":0.7874015748031497},{"duration":0.13043474999999205,"midi":43,"time":114.13040625,"velocity":0.7874015748031497},{"duration":0.13043475000000626,"midi":38,"time":114.26084099999999,"velocity":0.7874015748031497},{"duration":1.565217000000004,"midi":65,"time":114.26084099999999,"velocity":0.7874015748031497},{"duration":1.565217000000004,"midi":69,"time":114.26084099999999,"velocity":0.7874015748031497},{"duration":0.13043474999999205,"midi":45,"time":114.39127574999999,"velocity":0.7874015748031497},{"duration":0.13043475000000626,"midi":50,"time":114.52171049999998,"velocity":0.7874015748031497},{"duration":0.13043475000000626,"midi":45,"time":114.65214524999999,"velocity":0.7874015748031497},{"duration":0.13043474999999205,"midi":38,"time":114.78258,"velocity":0.7874015748031497},{"duration":0.13043475000000626,"midi":45,"time":114.91301474999999,"velocity":0.7874015748031497},{"duration":0.13043474999999205,"midi":50,"time":115.0434495,"velocity":0.7874015748031497},{"duration":0.13043475000000626,"midi":45,"time":115.17388424999999,"velocity":0.7874015748031497},{"duration":0.13043474999999205,"midi":38,"time":115.30431899999999,"velocity":0.7874015748031497},{"duration":0.13043475000000626,"midi":45,"time":115.43475374999998,"velocity":0.7874015748031497},{"duration":0.13043474999999205,"midi":50,"time":115.56518849999999,"velocity":0.7874015748031497},{"duration":0.13043475000000626,"midi":45,"time":115.69562324999998,"velocity":0.7874015748031497},{"duration":0.13043475000000626,"midi":74,"time":115.82605799999999,"velocity":0.7874015748031497},{"duration":0.13043475000000626,"midi":38,"time":115.82605799999999,"velocity":0.7874015748031497},{"duration":0.13043474999999205,"midi":45,"time":115.95649275,"velocity":0.7874015748031497},{"duration":0.13043475000000626,"midi":50,"time":116.08692749999999,"velocity":0.7874015748031497},{"duration":0.13043475000000626,"midi":74,"time":116.08692749999999,"velocity":0.7874015748031497},{"duration":0.13043474999999205,"midi":45,"time":116.21736225,"velocity":0.7874015748031497},{"duration":0.7826085000000091,"midi":76,"time":116.34779699999999,"velocity":0.7874015748031497},{"duration":0.7826085000000091,"midi":72,"time":116.34779699999999,"velocity":0.7874015748031497},{"duration":0.13043475000000626,"midi":36,"time":116.34779699999999,"velocity":0.7874015748031497},{"duration":0.13043474999999205,"midi":43,"time":116.47823174999999,"velocity":0.7874015748031497},{"duration":0.13043475000000626,"midi":48,"time":116.60866649999998,"velocity":0.7874015748031497},{"duration":0.13043474999999205,"midi":43,"time":116.73910124999999,"velocity":0.7874015748031497},{"duration":0.13043475000000626,"midi":36,"time":116.86953599999998,"velocity":0.7874015748031497},{"duration":0.13043475000000626,"midi":43,"time":116.99997074999999,"velocity":0.7874015748031497},{"duration":0.13043474999999205,"midi":48,"time":117.1304055,"velocity":0.7874015748031497},{"duration":0.13043475000000626,"midi":43,"time":117.26084024999999,"velocity":0.7874015748031497},{"duration":0.13043474999999205,"midi":36,"time":117.391275,"velocity":0.7874015748031497},{"duration":0.2608694999999983,"midi":72,"time":117.391275,"velocity":0.7874015748031497},{"duration":0.13043475000000626,"midi":43,"time":117.52170974999999,"velocity":0.7874015748031497},{"duration":0.13043474999999205,"midi":48,"time":117.65214449999999,"velocity":0.7874015748031497},{"duration":0.13043475000000626,"midi":43,"time":117.78257924999998,"velocity":0.7874015748031497},{"duration":0.39130425000000457,"midi":72,"time":117.78257924999998,"velocity":0.7874015748031497},{"duration":0.13043475000000626,"midi":36,"time":117.91301399999999,"velocity":0.7874015748031497},{"duration":0.13043474999999205,"midi":43,"time":118.04344875,"velocity":0.7874015748031497},{"duration":0.13043475000000626,"midi":48,"time":118.17388349999999,"velocity":0.7874015748031497},{"duration":0.13043474999999205,"midi":43,"time":118.30431825,"velocity":0.7874015748031497},{"duration":0.13043475000000626,"midi":34,"time":118.43475299999999,"velocity":0.7874015748031497},{"duration":1.565217000000004,"midi":74,"time":118.43475299999999,"velocity":0.7874015748031497},{"duration":1.4347822499999978,"midi":69,"time":118.43475299999999,"velocity":0.7874015748031497},{"duration":0.13043474999999205,"midi":41,"time":118.56518774999999,"velocity":0.7874015748031497},{"duration":0.13043475000000626,"midi":46,"time":118.69562249999998,"velocity":0.7874015748031497},{"duration":0.13043474999999205,"midi":41,"time":118.82605724999999,"velocity":0.7874015748031497},{"duration":0.13043475000000626,"midi":34,"time":118.95649199999998,"velocity":0.7874015748031497},{"duration":0.13043475000000626,"midi":41,"time":119.08692674999999,"velocity":0.7874015748031497},{"duration":0.13043474999999205,"midi":46,"time":119.2173615,"velocity":0.7874015748031497},{"duration":0.13043475000000626,"midi":41,"time":119.34779624999999,"velocity":0.7874015748031497},{"duration":0.13043474999999205,"midi":34,"time":119.478231,"velocity":0.7874015748031497},{"duration":0.13043475000000626,"midi":41,"time":119.60866574999999,"velocity":0.7874015748031497},{"duration":0.13043474999999205,"midi":46,"time":119.73910049999999,"velocity":0.7874015748031497},{"duration":0.13043475000000626,"midi":41,"time":119.86953524999998,"velocity":0.7874015748031497},{"duration":0.13043474999999205,"midi":70,"time":119.99996999999999,"velocity":0.7874015748031497},{"duration":0.13043474999999205,"midi":34,"time":119.99996999999999,"velocity":0.7874015748031497},{"duration":0.13043475000000626,"midi":41,"time":120.13040474999998,"velocity":0.7874015748031497},{"duration":0.13043475000000626,"midi":46,"time":120.26083949999999,"velocity":0.7874015748031497},{"duration":0.13043475000000626,"midi":70,"time":120.26083949999999,"velocity":0.7874015748031497},{"duration":0.13043474999999205,"midi":41,"time":120.39127425,"velocity":0.7874015748031497},{"duration":0.7826084999999949,"midi":76,"time":120.52170899999999,"velocity":0.7874015748031497},{"duration":0.13043475000000626,"midi":36,"time":120.52170899999999,"velocity":0.7874015748031497},{"duration":0.7826084999999949,"midi":72,"time":120.52170899999999,"velocity":0.7874015748031497},{"duration":0.13043474999999205,"midi":43,"time":120.65214375,"velocity":0.7874015748031497},{"duration":0.13043475000000626,"midi":48,"time":120.78257849999999,"velocity":0.7874015748031497},{"duration":0.13043474999999205,"midi":43,"time":120.91301324999999,"velocity":0.7874015748031497},{"duration":0.13043475000000626,"midi":36,"time":121.04344799999998,"velocity":0.7874015748031497},{"duration":0.13043474999999205,"midi":43,"time":121.17388274999999,"velocity":0.7874015748031497},{"duration":0.13043475000000626,"midi":48,"time":121.30431749999998,"velocity":0.7874015748031497},{"duration":0.13043475000000626,"midi":43,"time":121.43475224999999,"velocity":0.7874015748031497},{"duration":0.13043474999999205,"midi":36,"time":121.565187,"velocity":0.7874015748031497},{"duration":0.2608694999999983,"midi":72,"time":121.565187,"velocity":0.7874015748031497},{"duration":0.13043475000000626,"midi":43,"time":121.69562174999999,"velocity":0.7874015748031497},{"duration":0.13043474999999205,"midi":48,"time":121.82605649999999,"velocity":0.7874015748031497},{"duration":0.39130425000000457,"midi":72,"time":121.95649124999998,"velocity":0.7874015748031497},{"duration":0.13043475000000626,"midi":43,"time":121.95649124999998,"velocity":0.7874015748031497},{"duration":0.13043474999999205,"midi":36,"time":122.08692599999999,"velocity":0.7874015748031497},{"duration":0.13043475000000626,"midi":43,"time":122.21736074999998,"velocity":0.7874015748031497},{"duration":0.13043475000000626,"midi":48,"time":122.34779549999999,"velocity":0.7874015748031497},{"duration":0.13043474999999205,"midi":43,"time":122.47823025,"velocity":0.7874015748031497},{"duration":0.13043475000000626,"midi":38,"time":122.60866499999999,"velocity":0.7874015748031497},{"duration":2.0869560000000007,"midi":65,"time":122.60866499999999,"velocity":0.7874015748031497},{"duration":2.0869560000000007,"midi":69,"time":122.60866499999999,"velocity":0.7874015748031497},{"duration":0.13043474999999205,"midi":45,"time":122.73909975,"velocity":0.7874015748031497},{"duration":0.13043475000000626,"midi":50,"time":122.86953449999999,"velocity":0.7874015748031497},{"duration":0.13043474999999205,"midi":45,"time":122.99996924999999,"velocity":0.7874015748031497},{"duration":0.13043475000000626,"midi":38,"time":123.13040399999998,"velocity":0.7874015748031497},{"duration":0.13043474999999205,"midi":45,"time":123.26083874999999,"velocity":0.7874015748031497},{"duration":0.13043475000000626,"midi":50,"time":123.39127349999998,"velocity":0.7874015748031497},{"duration":0.13043475000000626,"midi":45,"time":123.52170824999999,"velocity":0.7874015748031497},{"duration":0.2608694999999983,"midi":38,"time":123.652143,"velocity":0.7874015748031497},{"duration":0.2608694999999983,"midi":45,"time":123.9130125,"velocity":0.7874015748031497},{"duration":0.2608694999999983,"midi":50,"time":124.17388199999999,"velocity":0.7874015748031497},{"duration":0.2608694999999983,"midi":53,"time":124.43475149999999,"velocity":0.7874015748031497},{"duration":1.0434779999999932,"midi":55,"time":124.69562099999999,"velocity":0.7874015748031497},{"duration":1.0434779999999932,"midi":48,"time":124.69562099999999,"velocity":0.7874015748031497},{"duration":0.9130432500000012,"midi":52,"time":124.69562099999999,"velocity":0.7874015748031497},{"duration":1.0434780000000075,"midi":52,"time":125.73909899999998,"velocity":0.7874015748031497},{"duration":1.0434780000000075,"midi":57,"time":125.73909899999998,"velocity":0.7874015748031497},{"duration":1.0434780000000075,"midi":49,"time":125.73909899999998,"velocity":0.7874015748031497},{"duration":1.0434779999999932,"midi":50,"time":126.78257699999999,"velocity":0.7874015748031497},{"duration":1.0434780000000075,"midi":43,"time":127.82605499999998,"velocity":0.7874015748031497},{"duration":0.5217389999999966,"midi":46,"time":128.869533,"velocity":0.7874015748031497},{"duration":0.5217389999999966,"midi":48,"time":129.391272,"velocity":0.7874015748031497},{"duration":0.9130432500000154,"midi":50,"time":129.91301099999998,"velocity":0.7874015748031497},{"duration":1.0434780000000217,"midi":50,"time":130.95648899999998,"velocity":0.7874015748031497},{"duration":1.0434779999999932,"midi":43,"time":131.999967,"velocity":0.7874015748031497},{"duration":0.5217389999999966,"midi":46,"time":133.043445,"velocity":0.7874015748031497},{"duration":0.5217389999999966,"midi":45,"time":133.565184,"velocity":0.7874015748031497},{"duration":0.9130432500000154,"midi":38,"time":134.08692299999998,"velocity":0.7874015748031497},{"duration":0.2608695000000125,"midi":38,"time":135.13040099999998,"velocity":0.7874015748031497},{"duration":0.2608694999999841,"midi":45,"time":135.3912705,"velocity":0.7874015748031497},{"duration":0.2608695000000125,"midi":50,"time":135.65213999999997,"velocity":0.7874015748031497},{"duration":0.2608695000000125,"midi":57,"time":135.9130095,"velocity":0.7874015748031497},{"duration":0.2608694999999841,"midi":43,"time":136.173879,"velocity":0.7874015748031497},{"duration":0.2608695000000125,"midi":47,"time":136.43474849999998,"velocity":0.7874015748031497},{"duration":0.2608694999999841,"midi":50,"time":136.695618,"velocity":0.7874015748031497},{"duration":0.2608695000000125,"midi":55,"time":136.95648749999998,"velocity":0.7874015748031497},{"duration":0.2608694999999841,"midi":46,"time":137.217357,"velocity":0.7874015748031497},{"duration":0.2608695000000125,"midi":48,"time":137.47822649999998,"velocity":0.7874015748031497},{"duration":0.2608694999999841,"midi":45,"time":137.739096,"velocity":0.7874015748031497},{"duration":0.2608695000000125,"midi":52,"time":137.99996549999997,"velocity":0.7874015748031497},{"duration":0.2608695000000125,"midi":50,"time":138.260835,"velocity":0.7874015748031497},{"duration":0.2608694999999841,"midi":45,"time":138.5217045,"velocity":0.7874015748031497},{"duration":0.2608695000000125,"midi":41,"time":138.78257399999998,"velocity":0.7874015748031497},{"duration":0.13043475000000626,"midi":38,"time":139.0434435,"velocity":0.7874015748031497},{"duration":0.2608695000000125,"midi":38,"time":139.30431299999998,"velocity":0.7874015748031497},{"duration":0.2608694999999841,"midi":45,"time":139.5651825,"velocity":0.7874015748031497},{"duration":0.2608695000000125,"midi":50,"time":139.82605199999998,"velocity":0.7874015748031497},{"duration":0.2608695000000125,"midi":57,"time":140.0869215,"velocity":0.7874015748031497},{"duration":0.2608694999999841,"midi":43,"time":140.347791,"velocity":0.7874015748031497},{"duration":0.2608695000000125,"midi":47,"time":140.60866049999998,"velocity":0.7874015748031497},{"duration":0.2608694999999841,"midi":50,"time":140.86953,"velocity":0.7874015748031497},{"duration":0.2608695000000125,"midi":55,"time":141.13039949999998,"velocity":0.7874015748031497},{"duration":0.2608694999999841,"midi":46,"time":141.391269,"velocity":0.7874015748031497},{"duration":0.2608695000000125,"midi":48,"time":141.65213849999998,"velocity":0.7874015748031497},{"duration":0.2608694999999841,"midi":45,"time":141.913008,"velocity":0.7874015748031497},{"duration":0.2608695000000125,"midi":52,"time":142.17387749999997,"velocity":0.7874015748031497},{"duration":0.2608695000000125,"midi":50,"time":142.434747,"velocity":0.7874015748031497},{"duration":0.2608694999999841,"midi":45,"time":142.6956165,"velocity":0.7874015748031497},{"duration":0.2608695000000125,"midi":41,"time":142.95648599999998,"velocity":0.7874015748031497},{"duration":0.2608694999999841,"midi":50,"time":143.2173555,"velocity":0.7874015748031497},{"duration":0.13043475000000626,"midi":46,"time":143.47822499999998,"velocity":0.7874015748031497},{"duration":0.2608694999999841,"midi":46,"time":143.7390945,"velocity":0.7874015748031497},{"duration":0.2608695000000125,"midi":55,"time":143.99996399999998,"velocity":0.7874015748031497},{"duration":0.2608694999999841,"midi":58,"time":144.2608335,"velocity":0.7874015748031497},{"duration":0.2608695000000125,"midi":50,"time":144.52170299999997,"velocity":0.7874015748031497},{"duration":0.2608695000000125,"midi":57,"time":144.7825725,"velocity":0.7874015748031497},{"duration":0.2608694999999841,"midi":62,"time":145.043442,"velocity":0.7874015748031497},{"duration":0.2608695000000125,"midi":50,"time":145.30431149999998,"velocity":0.7874015748031497},{"duration":0.13043474999997784,"midi":46,"time":145.565181,"velocity":0.7874015748031497},{"duration":0.2608695000000125,"midi":46,"time":145.82605049999998,"velocity":0.7874015748031497},{"duration":0.2608694999999841,"midi":55,"time":146.08692,"velocity":0.7874015748031497},{"duration":0.2608695000000125,"midi":58,"time":146.34778949999998,"velocity":0.7874015748031497},{"duration":0.2608694999999841,"midi":38,"time":146.608659,"velocity":0.7874015748031497},{"duration":0.2608694999999841,"midi":50,"time":146.608659,"velocity":0.7874015748031497},{"duration":0.2608695000000125,"midi":52,"time":146.86952849999997,"velocity":0.7874015748031497},{"duration":0.2608695000000125,"midi":40,"time":146.86952849999997,"velocity":0.7874015748031497},{"duration":0.39130424999999036,"midi":53,"time":147.13039799999999,"velocity":0.7874015748031497},{"duration":0.39130424999999036,"midi":41,"time":147.13039799999999,"velocity":0.7874015748031497},{"duration":1.0434779999999932,"midi":41,"time":147.65213699999998,"velocity":0.7874015748031497},{"duration":1.0434779999999932,"midi":53,"time":147.65213699999998,"velocity":0.7874015748031497},{"duration":0.2608695000000125,"midi":50,"time":148.69561499999998,"velocity":0.7874015748031497},{"duration":0.2608695000000125,"midi":45,"time":148.9564845,"velocity":0.7874015748031497},{"duration":0.2608694999999841,"midi":41,"time":149.217354,"velocity":0.7874015748031497},{"duration":0.2608695000000125,"midi":38,"time":149.47822349999998,"velocity":0.7874015748031497},{"duration":0.39130424999999036,"midi":46,"time":149.739093,"velocity":0.7874015748031497},{"duration":0.39130424999999036,"midi":41,"time":150.13039725,"velocity":0.7874015748031497},{"duration":0.13043475000000626,"midi":46,"time":150.52170149999998,"velocity":0.7874015748031497},{"duration":0.13043475000000626,"midi":57,"time":150.782571,"velocity":0.7874015748031497},{"duration":0.13043475000000626,"midi":52,"time":151.04344049999997,"velocity":0.7874015748031497},{"duration":0.13043475000000626,"midi":49,"time":151.30431,"velocity":0.7874015748031497},{"duration":0.13043474999997784,"midi":45,"time":151.5651795,"velocity":0.7874015748031497},{"duration":0.13043475000000626,"midi":46,"time":151.82604899999998,"velocity":0.7874015748031497},{"duration":0.2608694999999841,"midi":46,"time":152.0869185,"velocity":0.7874015748031497},{"duration":0.2608695000000125,"midi":55,"time":152.34778799999998,"velocity":0.7874015748031497},{"duration":0.2608694999999841,"midi":58,"time":152.6086575,"velocity":0.7874015748031497},{"duration":0.2608695000000125,"midi":50,"time":152.86952699999998,"velocity":0.7874015748031497},{"duration":0.2608694999999841,"midi":57,"time":153.1303965,"velocity":0.7874015748031497},{"duration":0.2608695000000125,"midi":62,"time":153.39126599999997,"velocity":0.7874015748031497},{"duration":0.2608695000000125,"midi":50,"time":153.65213549999999,"velocity":0.7874015748031497},{"duration":0.13043474999997784,"midi":46,"time":153.913005,"velocity":0.7874015748031497},{"duration":0.2608695000000125,"midi":46,"time":154.17387449999998,"velocity":0.7874015748031497},{"duration":0.2608694999999841,"midi":55,"time":154.434744,"velocity":0.7874015748031497},{"duration":0.2608695000000125,"midi":58,"time":154.69561349999998,"velocity":0.7874015748031497},{"duration":0.2608694999999841,"midi":38,"time":154.956483,"velocity":0.7874015748031497},{"duration":0.2608694999999841,"midi":50,"time":154.956483,"velocity":0.7874015748031497},{"duration":0.2608695000000125,"midi":52,"time":155.21735249999998,"velocity":0.7874015748031497},{"duration":0.2608695000000125,"midi":40,"time":155.21735249999998,"velocity":0.7874015748031497},{"duration":0.39130424999999036,"midi":53,"time":155.478222,"velocity":0.7874015748031497},{"duration":0.39130424999999036,"midi":41,"time":155.478222,"velocity":0.7874015748031497},{"duration":1.0434779999999932,"midi":53,"time":155.99996099999998,"velocity":0.7874015748031497},{"duration":1.0434779999999932,"midi":41,"time":155.99996099999998,"velocity":0.7874015748031497},{"duration":0.2608695000000125,"midi":50,"time":157.04343899999998,"velocity":0.7874015748031497},{"duration":0.2608694999999841,"midi":45,"time":157.3043085,"velocity":0.7874015748031497},{"duration":0.2608695000000125,"midi":41,"time":157.56517799999997,"velocity":0.7874015748031497},{"duration":0.2608695000000125,"midi":38,"time":157.8260475,"velocity":0.7874015748031497},{"duration":0.2608694999999841,"midi":46,"time":158.086917,"velocity":0.7874015748031497},{"duration":0.2608694999999841,"midi":50,"time":158.086917,"velocity":0.7874015748031497},{"duration":0.2608694999999841,"midi":50,"time":158.47822125,"velocity":0.7874015748031497},{"duration":0.2608694999999841,"midi":46,"time":158.47822125,"velocity":0.7874015748031497},{"duration":0.13043475000000626,"midi":50,"time":158.86952549999998,"velocity":0.7874015748031497},{"duration":0.13043475000000626,"midi":46,"time":158.86952549999998,"velocity":0.7874015748031497},{"duration":0.2608694999999841,"midi":46,"time":159.130395,"velocity":0.7874015748031497},{"duration":0.2608694999999841,"midi":50,"time":159.130395,"velocity":0.7874015748031497},{"duration":0.2608695000000125,"midi":46,"time":159.52169924999998,"velocity":0.7874015748031497},{"duration":0.2608695000000125,"midi":50,"time":159.52169924999998,"velocity":0.7874015748031497},{"duration":0.2608695000000125,"midi":46,"time":159.91300349999997,"velocity":0.7874015748031497},{"duration":0.2608695000000125,"midi":50,"time":159.91300349999997,"velocity":0.7874015748031497},{"duration":0.2608695000000125,"midi":48,"time":160.173873,"velocity":0.7874015748031497},{"duration":0.2608695000000125,"midi":52,"time":160.173873,"velocity":0.7874015748031497},{"duration":0.2608695000000125,"midi":48,"time":160.56517724999998,"velocity":0.7874015748031497},{"duration":0.2608695000000125,"midi":52,"time":160.56517724999998,"velocity":0.7874015748031497},{"duration":0.13043474999997784,"midi":52,"time":160.9564815,"velocity":0.7874015748031497},{"duration":0.13043474999997784,"midi":48,"time":160.9564815,"velocity":0.7874015748031497},{"duration":0.2608695000000125,"midi":52,"time":161.21735099999998,"velocity":0.7874015748031497},{"duration":0.2608695000000125,"midi":48,"time":161.21735099999998,"velocity":0.7874015748031497},{"duration":0.2608694999999841,"midi":48,"time":161.60865525,"velocity":0.7874015748031497},{"duration":0.2608694999999841,"midi":52,"time":161.60865525,"velocity":0.7874015748031497},{"duration":0.2608694999999841,"midi":52,"time":161.9999595,"velocity":0.7874015748031497},{"duration":0.2608694999999841,"midi":48,"time":161.9999595,"velocity":0.7874015748031497},{"duration":0.2608695000000125,"midi":46,"time":162.26082899999997,"velocity":0.7874015748031497},{"duration":0.2608695000000125,"midi":50,"time":162.26082899999997,"velocity":0.7874015748031497},{"duration":0.2608694999999841,"midi":46,"time":162.65213325,"velocity":0.7874015748031497},{"duration":0.2608694999999841,"midi":50,"time":162.65213325,"velocity":0.7874015748031497},{"duration":0.13043475000000626,"midi":46,"time":163.04343749999998,"velocity":0.7874015748031497},{"duration":0.13043475000000626,"midi":50,"time":163.04343749999998,"velocity":0.7874015748031497},{"duration":0.2608694999999841,"midi":50,"time":163.304307,"velocity":0.7874015748031497},{"duration":0.2608694999999841,"midi":46,"time":163.304307,"velocity":0.7874015748031497},{"duration":0.2608695000000125,"midi":50,"time":163.69561124999998,"velocity":0.7874015748031497},{"duration":0.2608695000000125,"midi":46,"time":163.69561124999998,"velocity":0.7874015748031497},{"duration":0.2608695000000125,"midi":50,"time":164.08691549999998,"velocity":0.7874015748031497},{"duration":0.2608695000000125,"midi":46,"time":164.08691549999998,"velocity":0.7874015748031497},{"duration":0.2608694999999841,"midi":52,"time":164.347785,"velocity":0.7874015748031497},{"duration":0.2608694999999841,"midi":48,"time":164.347785,"velocity":0.7874015748031497},{"duration":0.2608695000000125,"midi":52,"time":164.73908924999998,"velocity":0.7874015748031497},{"duration":0.2608695000000125,"midi":48,"time":164.73908924999998,"velocity":0.7874015748031497},{"duration":0.13043474999997784,"midi":52,"time":165.1303935,"velocity":0.7874015748031497},{"duration":0.13043474999997784,"midi":48,"time":165.1303935,"velocity":0.7874015748031497},{"duration":0.2608695000000125,"midi":52,"time":165.39126299999998,"velocity":0.7874015748031497},{"duration":0.2608695000000125,"midi":48,"time":165.39126299999998,"velocity":0.7874015748031497},{"duration":0.2608695000000125,"midi":48,"time":165.78256724999997,"velocity":0.7874015748031497},{"duration":0.2608695000000125,"midi":52,"time":165.78256724999997,"velocity":0.7874015748031497},{"duration":0.2608694999999841,"midi":52,"time":166.1738715,"velocity":0.7874015748031497},{"duration":0.2608694999999841,"midi":48,"time":166.1738715,"velocity":0.7874015748031497},{"duration":0.3913042500000188,"midi":74,"time":166.43474099999997,"velocity":0.7874015748031497},{"duration":0.2608695000000125,"midi":69,"time":166.43474099999997,"velocity":0.7874015748031497},{"duration":0.2608695000000125,"midi":62,"time":166.43474099999997,"velocity":0.7874015748031497},{"duration":0.3913042500000188,"midi":38,"time":166.43474099999997,"velocity":0.7874015748031497},{"duration":0.13043475000000626,"midi":45,"time":166.82604525,"velocity":0.7874015748031497},{"duration":0.13043475000000626,"midi":62,"time":166.82604525,"velocity":0.7874015748031497},{"duration":0.13043475000000626,"midi":69,"time":166.82604525,"velocity":0.7874015748031497},{"duration":0.13043475000000626,"midi":69,"time":167.21734949999998,"velocity":0.7874015748031497},{"duration":0.13043475000000626,"midi":62,"time":167.21734949999998,"velocity":0.7874015748031497},{"duration":0.13043475000000626,"midi":50,"time":167.21734949999998,"velocity":0.7874015748031497},{"duration":0.39130424999999036,"midi":71,"time":167.478219,"velocity":0.7874015748031497},{"duration":0.39130424999999036,"midi":43,"time":167.478219,"velocity":0.7874015748031497},{"duration":0.2608694999999841,"midi":62,"time":167.478219,"velocity":0.7874015748031497},{"duration":0.2608694999999841,"midi":67,"time":167.478219,"velocity":0.7874015748031497},{"duration":0.13043475000000626,"midi":67,"time":167.86952325,"velocity":0.7874015748031497},{"duration":0.13043475000000626,"midi":47,"time":167.86952325,"velocity":0.7874015748031497},{"duration":0.13043475000000626,"midi":62,"time":167.86952325,"velocity":0.7874015748031497},{"duration":0.2608695000000125,"midi":50,"time":168.26082749999998,"velocity":0.7874015748031497},{"duration":0.13043475000000626,"midi":67,"time":168.26082749999998,"velocity":0.7874015748031497},{"duration":0.13043475000000626,"midi":62,"time":168.26082749999998,"velocity":0.7874015748031497},{"duration":0.39130424999999036,"midi":74,"time":168.521697,"velocity":0.7874015748031497},{"duration":0.2608694999999841,"midi":69,"time":168.521697,"velocity":0.7874015748031497},{"duration":0.39130424999999036,"midi":38,"time":168.521697,"velocity":0.7874015748031497},{"duration":0.2608694999999841,"midi":62,"time":168.521697,"velocity":0.7874015748031497},{"duration":0.13043475000000626,"midi":69,"time":168.91300124999998,"velocity":0.7874015748031497},{"duration":0.3913042500000188,"midi":45,"time":168.91300124999998,"velocity":0.7874015748031497},{"duration":0.13043475000000626,"midi":62,"time":168.91300124999998,"velocity":0.7874015748031497},{"duration":0.13043474999997784,"midi":50,"time":169.3043055,"velocity":0.7874015748031497},{"duration":0.13043474999997784,"midi":69,"time":169.3043055,"velocity":0.7874015748031497},{"duration":0.13043474999997784,"midi":62,"time":169.3043055,"velocity":0.7874015748031497},{"duration":0.2608695000000125,"midi":62,"time":169.56517499999998,"velocity":0.7874015748031497},{"duration":0.2608695000000125,"midi":67,"time":169.56517499999998,"velocity":0.7874015748031497},{"duration":0.39130424999999036,"midi":71,"time":169.56517499999998,"velocity":0.7874015748031497},{"duration":0.39130424999999036,"midi":43,"time":169.56517499999998,"velocity":0.7874015748031497},{"duration":0.13043475000000626,"midi":62,"time":169.95647924999997,"velocity":0.7874015748031497},{"duration":0.13043475000000626,"midi":67,"time":169.95647924999997,"velocity":0.7874015748031497},{"duration":0.13043475000000626,"midi":47,"time":169.95647924999997,"velocity":0.7874015748031497},{"duration":0.13043475000000626,"midi":50,"time":170.3477835,"velocity":0.7874015748031497},{"duration":0.13043475000000626,"midi":67,"time":170.3477835,"velocity":0.7874015748031497},{"duration":0.13043475000000626,"midi":62,"time":170.3477835,"velocity":0.7874015748031497},{"duration":0.6521737500000029,"midi":45,"time":170.60865299999998,"velocity":0.7874015748031497},{"duration":0.6521737500000029,"midi":62,"time":170.60865299999998,"velocity":0.7874015748031497},{"duration":0.6521737500000029,"midi":65,"time":170.60865299999998,"velocity":0.7874015748031497},{"duration":0.6521737500000029,"midi":69,"time":170.60865299999998,"velocity":0.7874015748031497},{"duration":0.6521737500000029,"midi":50,"time":170.60865299999998,"velocity":0.7874015748031497},{"duration":0.6521737500000029,"midi":38,"time":170.60865299999998,"velocity":0.7874015748031497}]},{"instrument":{"family":"synth lead","number":80,"name":"lead 1 (square)"},"notes":[{"duration":0.2608695,"midi":65,"time":0,"velocity":0.7874015748031497},{"duration":0.2608695,"midi":57,"time":0.2608695,"velocity":0.7874015748031497},{"duration":0.2608695,"midi":69,"time":0.521739,"velocity":0.7874015748031497},{"duration":0.2608695,"midi":60,"time":0.7826084999999999,"velocity":0.7874015748031497},{"duration":1.043478,"midi":67,"time":1.043478,"velocity":0.7874015748031497},{"duration":1.043478,"midi":62,"time":1.043478,"velocity":0.7874015748031497},{"duration":0.2608695000000001,"midi":64,"time":2.086956,"velocity":0.7874015748031497},{"duration":0.2608695000000001,"midi":55,"time":2.3478255,"velocity":0.7874015748031497},{"duration":0.26086949999999964,"midi":67,"time":2.608695,"velocity":0.7874015748031497},{"duration":0.2608695000000001,"midi":60,"time":2.8695644999999996,"velocity":0.7874015748031497},{"duration":1.043478,"midi":57,"time":3.1304339999999997,"velocity":0.7874015748031497},{"duration":1.043478,"midi":65,"time":3.1304339999999997,"velocity":0.7874015748031497},{"duration":0.2608695000000001,"midi":62,"time":4.173912,"velocity":0.7874015748031497},{"duration":0.2608695000000001,"midi":55,"time":4.4347815,"velocity":0.7874015748031497},{"duration":0.5217390000000002,"midi":65,"time":4.695651,"velocity":0.7874015748031497},{"duration":1.0434779999999995,"midi":64,"time":5.21739,"velocity":0.7874015748031497},{"duration":0.2608694999999992,"midi":60,"time":5.21739,"velocity":0.7874015748031497},{"duration":0.2608695000000001,"midi":58,"time":5.478259499999999,"velocity":0.7874015748031497},{"duration":0.2608695000000001,"midi":55,"time":5.739128999999999,"velocity":0.7874015748031497},{"duration":0.2608695000000001,"midi":57,"time":5.999998499999999,"velocity":0.7874015748031497},{"duration":0.2608695000000001,"midi":60,"time":6.260867999999999,"velocity":0.7874015748031497},{"duration":0.2608695000000001,"midi":60,"time":6.260867999999999,"velocity":0.7874015748031497},{"duration":0.2608695000000001,"midi":53,"time":6.5217374999999995,"velocity":0.7874015748031497},{"duration":0.5217389999999993,"midi":55,"time":6.782607,"velocity":0.7874015748031497},{"duration":0.2608695000000001,"midi":62,"time":6.782607,"velocity":0.7874015748031497},{"duration":1.0434780000000003,"midi":57,"time":7.304345999999999,"velocity":0.7874015748031497},{"duration":1.0434780000000003,"midi":57,"time":7.304345999999999,"velocity":0.7874015748031497},{"duration":0.2608695000000001,"midi":65,"time":8.347824,"velocity":0.7874015748031497},{"duration":0.2608695000000001,"midi":57,"time":8.6086935,"velocity":0.7874015748031497},{"duration":0.2608695000000001,"midi":69,"time":8.869563,"velocity":0.7874015748031497},{"duration":0.2608695000000001,"midi":60,"time":9.1304325,"velocity":0.7874015748031497},{"duration":1.0434780000000003,"midi":62,"time":9.391302,"velocity":0.7874015748031497},{"duration":1.0434780000000003,"midi":67,"time":9.391302,"velocity":0.7874015748031497},{"duration":0.2608694999999983,"midi":72,"time":10.43478,"velocity":0.7874015748031497},{"duration":0.2608695000000001,"midi":64,"time":10.695649499999998,"velocity":0.7874015748031497},{"duration":0.2608695000000001,"midi":67,"time":10.956518999999998,"velocity":0.7874015748031497},{"duration":0.2608695000000001,"midi":60,"time":11.217388499999998,"velocity":0.7874015748031497},{"duration":0.9130432500000012,"midi":69,"time":11.478257999999999,"velocity":0.7874015748031497},{"duration":0.5217390000000002,"midi":64,"time":11.478257999999999,"velocity":0.7874015748031497},{"duration":0.5217390000000002,"midi":65,"time":11.999996999999999,"velocity":0.7874015748031497},{"duration":0.2608695000000001,"midi":69,"time":12.521735999999999,"velocity":0.7874015748031497},{"duration":0.2608695000000001,"midi":67,"time":12.782605499999999,"velocity":0.7874015748031497},{"duration":0.2608695000000001,"midi":69,"time":13.043474999999999,"velocity":0.7874015748031497},{"duration":0.2608695000000001,"midi":72,"time":13.3043445,"velocity":0.7874015748031497},{"duration":0.5217390000000002,"midi":74,"time":13.565214,"velocity":0.7874015748031497},{"duration":0.5217389999999984,"midi":77,"time":14.086953,"velocity":0.7874015748031497},{"duration":0.2608694999999983,"midi":62,"time":14.3478225,"velocity":0.7874015748031497},{"duration":0.2608695000000001,"midi":60,"time":14.608691999999998,"velocity":0.7874015748031497},{"duration":0.06521737499999958,"midi":77,"time":14.673909375,"velocity":0.7874015748031497},{"duration":0.13043474999999916,"midi":76,"time":14.739126749999999,"velocity":0.7874015748031497},{"duration":0.2608695000000001,"midi":74,"time":14.869561499999998,"velocity":0.7874015748031497},{"duration":0.2608695000000001,"midi":53,"time":14.869561499999998,"velocity":0.7874015748031497},{"duration":0.2608695000000001,"midi":72,"time":15.130430999999998,"velocity":0.7874015748031497},{"duration":0.2608695000000001,"midi":55,"time":15.130430999999998,"velocity":0.7874015748031497},{"duration":0.2608695000000001,"midi":60,"time":15.391300499999998,"velocity":0.7874015748031497},{"duration":0.2608695000000001,"midi":76,"time":15.391300499999998,"velocity":0.7874015748031497},{"duration":1.0434780000000003,"midi":57,"time":15.652169999999998,"velocity":0.7874015748031497},{"duration":1.0434780000000003,"midi":74,"time":15.652169999999998,"velocity":0.7874015748031497},{"duration":0.5217390000000002,"midi":65,"time":17.217387,"velocity":0.7874015748031497},{"duration":0.5217390000000002,"midi":69,"time":17.739126,"velocity":0.7874015748031497},{"duration":0.7826084999999985,"midi":67,"time":18.260865,"velocity":0.7874015748031497},{"duration":0.26086950000000186,"midi":69,"time":19.043473499999998,"velocity":0.7874015748031497},{"duration":0.39130424999999747,"midi":62,"time":19.304343,"velocity":0.7874015748031497},{"duration":0.391304250000001,"midi":64,"time":19.695647249999997,"velocity":0.7874015748031497},{"duration":0.26086950000000186,"midi":65,"time":20.086951499999998,"velocity":0.7874015748031497},{"duration":1.0434779999999968,"midi":69,"time":20.347821,"velocity":0.7874015748031497},{"duration":0.5217390000000002,"midi":65,"time":21.391298999999997,"velocity":0.7874015748031497},{"duration":0.5217390000000002,"midi":69,"time":21.913037999999997,"velocity":0.7874015748031497},{"duration":0.782608500000002,"midi":67,"time":22.434776999999997,"velocity":0.7874015748031497},{"duration":0.2608694999999983,"midi":69,"time":23.2173855,"velocity":0.7874015748031497},{"duration":0.391304250000001,"midi":62,"time":23.478254999999997,"velocity":0.7874015748031497},{"duration":0.391304250000001,"midi":64,"time":23.86955925,"velocity":0.7874015748031497},{"duration":0.2608694999999983,"midi":72,"time":24.2608635,"velocity":0.7874015748031497},{"duration":0.9130432500000012,"midi":69,"time":24.521732999999998,"velocity":0.7874015748031497},{"duration":0.2608694999999983,"midi":69,"time":25.565210999999998,"velocity":0.7874015748031497},{"duration":0.2608694999999983,"midi":70,"time":26.086949999999998,"velocity":0.7874015748031497},{"duration":0.7826084999999985,"midi":72,"time":26.608689,"velocity":0.7874015748031497},{"duration":0.26086950000000186,"midi":74,"time":27.391297499999997,"velocity":0.7874015748031497},{"duration":0.39130424999999747,"midi":65,"time":27.652167,"velocity":0.7874015748031497},{"duration":0.391304250000001,"midi":67,"time":28.043471249999996,"velocity":0.7874015748031497},{"duration":0.26086950000000186,"midi":69,"time":28.434775499999997,"velocity":0.7874015748031497},{"duration":0.7826084999999985,"midi":72,"time":28.695645,"velocity":0.7874015748031497},{"duration":0.2608694999999983,"midi":74,"time":29.478253499999997,"velocity":0.7874015748031497},{"duration":0.391304250000001,"midi":65,"time":29.739122999999996,"velocity":0.7874015748031497},{"duration":0.391304250000001,"midi":76,"time":30.130427249999997,"velocity":0.7874015748031497},{"duration":0.2608694999999983,"midi":72,"time":30.521731499999998,"velocity":0.7874015748031497},{"duration":2.0869560000000043,"midi":69,"time":30.782600999999996,"velocity":0.7874015748031497},{"duration":1.0434779999999932,"midi":67,"time":32.869557,"velocity":0.7874015748031497},{"duration":0.5217390000000037,"midi":65,"time":33.913034999999994,"velocity":0.7874015748031497},{"duration":0.5217389999999966,"midi":69,"time":34.434774,"velocity":0.7874015748031497},{"duration":0.782608500000002,"midi":67,"time":34.956512999999994,"velocity":0.7874015748031497},{"duration":0.2608694999999983,"midi":69,"time":35.739121499999996,"velocity":0.7874015748031497},{"duration":0.39130425000000457,"midi":62,"time":35.999990999999994,"velocity":0.7874015748031497},{"duration":0.39130424999999747,"midi":64,"time":36.39129525,"velocity":0.7874015748031497},{"duration":0.2608694999999983,"midi":65,"time":36.782599499999996,"velocity":0.7874015748031497},{"duration":1.0434780000000003,"midi":69,"time":37.043468999999995,"velocity":0.7874015748031497},{"duration":0.5217390000000037,"midi":65,"time":38.086946999999995,"velocity":0.7874015748031497},{"duration":0.5217389999999966,"midi":69,"time":38.608686,"velocity":0.7874015748031497},{"duration":0.782608500000002,"midi":67,"time":39.130424999999995,"velocity":0.7874015748031497},{"duration":0.2608694999999983,"midi":69,"time":39.9130335,"velocity":0.7874015748031497},{"duration":0.39130424999999747,"midi":62,"time":40.173902999999996,"velocity":0.7874015748031497},{"duration":0.39130425000000457,"midi":64,"time":40.56520724999999,"velocity":0.7874015748031497},{"duration":0.2608694999999983,"midi":72,"time":40.9565115,"velocity":0.7874015748031497},{"duration":0.9130432500000012,"midi":69,"time":41.217380999999996,"velocity":0.7874015748031497},{"duration":0.5217389999999966,"midi":69,"time":42.260858999999996,"velocity":0.7874015748031497},{"duration":0.5217390000000037,"midi":70,"time":42.78259799999999,"velocity":0.7874015748031497},{"duration":0.782608500000002,"midi":72,"time":43.304337,"velocity":0.7874015748031497},{"duration":0.2608694999999983,"midi":74,"time":44.0869455,"velocity":0.7874015748031497},{"duration":0.39130424999999747,"midi":65,"time":44.347815,"velocity":0.7874015748031497},{"duration":0.39130425000000457,"midi":67,"time":44.739119249999995,"velocity":0.7874015748031497},{"duration":0.2608694999999983,"midi":69,"time":45.1304235,"velocity":0.7874015748031497},{"duration":0.7826084999999949,"midi":72,"time":45.391293,"velocity":0.7874015748031497},{"duration":0.2608695000000054,"midi":74,"time":46.17390149999999,"velocity":0.7874015748031497},{"duration":0.39130424999999747,"midi":65,"time":46.434771,"velocity":0.7874015748031497},{"duration":0.39130424999999747,"midi":76,"time":46.826075249999995,"velocity":0.7874015748031497},{"duration":0.2608695000000054,"midi":72,"time":47.21737949999999,"velocity":0.7874015748031497},{"duration":1.9565212499999944,"midi":69,"time":47.478249,"velocity":0.7874015748031497},{"duration":1.0434779999999932,"midi":67,"time":49.565205,"velocity":0.7874015748031497},{"duration":0.2608695000000054,"midi":65,"time":50.60868299999999,"velocity":0.7874015748031497},{"duration":0.2608694999999983,"midi":64,"time":51.130421999999996,"velocity":0.7874015748031497},{"duration":0.13043475000000626,"midi":58,"time":51.65216099999999,"velocity":0.7874015748031497},{"duration":0.13043475000000626,"midi":62,"time":51.65216099999999,"velocity":0.7874015748031497},{"duration":0.13043474999999916,"midi":65,"time":51.78259575,"velocity":0.7874015748031497},{"duration":0.13043474999999916,"midi":64,"time":51.9130305,"velocity":0.7874015748031497},{"duration":0.13043474999999916,"midi":65,"time":52.04346525,"velocity":0.7874015748031497},{"duration":0.2608694999999983,"midi":62,"time":52.173899999999996,"velocity":0.7874015748031497},{"duration":0.2608694999999983,"midi":58,"time":52.565204249999994,"velocity":0.7874015748031497},{"duration":0.2608694999999983,"midi":62,"time":52.565204249999994,"velocity":0.7874015748031497},{"duration":0.13043475000000626,"midi":64,"time":52.82607374999999,"velocity":0.7874015748031497},{"duration":0.13043474999999916,"midi":65,"time":52.9565085,"velocity":0.7874015748031497},{"duration":0.13043474999999916,"midi":72,"time":53.08694325,"velocity":0.7874015748031497},{"duration":0.5217389999999966,"midi":69,"time":53.217378,"velocity":0.7874015748031497},{"duration":0.13043474999999916,"midi":60,"time":53.73911699999999,"velocity":0.7874015748031497},{"duration":0.13043474999999916,"midi":62,"time":53.73911699999999,"velocity":0.7874015748031497},{"duration":0.13043475000000626,"midi":65,"time":53.86955174999999,"velocity":0.7874015748031497},{"duration":0.13043474999999916,"midi":64,"time":53.9999865,"velocity":0.7874015748031497},{"duration":0.13043474999999916,"midi":65,"time":54.13042125,"velocity":0.7874015748031497},{"duration":0.2608694999999983,"midi":62,"time":54.260856,"velocity":0.7874015748031497},{"duration":0.2608694999999983,"midi":60,"time":54.652160249999994,"velocity":0.7874015748031497},{"duration":0.2608694999999983,"midi":62,"time":54.652160249999994,"velocity":0.7874015748031497},{"duration":0.13043474999999916,"midi":64,"time":54.91302974999999,"velocity":0.7874015748031497},{"duration":0.13043475000000626,"midi":65,"time":55.04346449999999,"velocity":0.7874015748031497},{"duration":0.13043474999999916,"midi":72,"time":55.17389925,"velocity":0.7874015748031497},{"duration":0.5217389999999966,"midi":69,"time":55.304334,"velocity":0.7874015748031497},{"duration":0.13043474999999916,"midi":57,"time":55.826072999999994,"velocity":0.7874015748031497},{"duration":0.13043474999999916,"midi":62,"time":55.826072999999994,"velocity":0.7874015748031497},{"duration":0.13043474999999916,"midi":65,"time":55.95650774999999,"velocity":0.7874015748031497},{"duration":0.13043475000000626,"midi":64,"time":56.08694249999999,"velocity":0.7874015748031497},{"duration":0.13043474999999916,"midi":65,"time":56.21737725,"velocity":0.7874015748031497},{"duration":0.2608694999999983,"midi":62,"time":56.347812,"velocity":0.7874015748031497},{"duration":0.2608694999999983,"midi":57,"time":56.739116249999995,"velocity":0.7874015748031497},{"duration":0.2608694999999983,"midi":62,"time":56.739116249999995,"velocity":0.7874015748031497},{"duration":0.13043474999999916,"midi":64,"time":56.99998574999999,"velocity":0.7874015748031497},{"duration":0.13043474999999916,"midi":65,"time":57.13042049999999,"velocity":0.7874015748031497},{"duration":0.13043475000000626,"midi":72,"time":57.26085524999999,"velocity":0.7874015748031497},{"duration":0.5217389999999966,"midi":69,"time":57.39129,"velocity":0.7874015748031497},{"duration":0.39130424999999747,"midi":57,"time":57.913028999999995,"velocity":0.7874015748031497},{"duration":0.39130424999999747,"midi":60,"time":57.913028999999995,"velocity":0.7874015748031497},{"duration":0.39130425000000457,"midi":67,"time":58.30433324999999,"velocity":0.7874015748031497},{"duration":0.2608694999999983,"midi":65,"time":58.6956375,"velocity":0.7874015748031497},{"duration":0.13043474999999916,"midi":64,"time":58.956506999999995,"velocity":0.7874015748031497},{"duration":0.13043474999999916,"midi":57,"time":58.956506999999995,"velocity":0.7874015748031497},{"duration":0.2608694999999983,"midi":62,"time":59.086941749999994,"velocity":0.7874015748031497},{"duration":0.39130425000000457,"midi":60,"time":59.34781124999999,"velocity":0.7874015748031497},{"duration":0.2608694999999983,"midi":64,"time":59.7391155,"velocity":0.7874015748031497},{"duration":0.13043474999999916,"midi":62,"time":59.999984999999995,"velocity":0.7874015748031497},{"duration":0.13043474999999916,"midi":58,"time":59.999984999999995,"velocity":0.7874015748031497},{"duration":0.13043474999999916,"midi":65,"time":60.130419749999994,"velocity":0.7874015748031497},{"duration":0.13043474999999916,"midi":64,"time":60.26085449999999,"velocity":0.7874015748031497},{"duration":0.13043474999999916,"midi":65,"time":60.39128924999999,"velocity":0.7874015748031497},{"duration":0.2608695000000054,"midi":62,"time":60.52172399999999,"velocity":0.7874015748031497},{"duration":0.2608694999999983,"midi":62,"time":60.913028249999996,"velocity":0.7874015748031497},{"duration":0.2608694999999983,"midi":58,"time":60.913028249999996,"velocity":0.7874015748031497},{"duration":0.13043474999999916,"midi":64,"time":61.173897749999995,"velocity":0.7874015748031497},{"duration":0.13043474999999916,"midi":65,"time":61.304332499999994,"velocity":0.7874015748031497},{"duration":0.13043474999999916,"midi":72,"time":61.43476724999999,"velocity":0.7874015748031497},{"duration":0.5217390000000037,"midi":69,"time":61.56520199999999,"velocity":0.7874015748031497},{"duration":0.13043474999999916,"midi":60,"time":62.086940999999996,"velocity":0.7874015748031497},{"duration":0.13043474999999916,"midi":62,"time":62.086940999999996,"velocity":0.7874015748031497},{"duration":0.13043474999999916,"midi":65,"time":62.217375749999995,"velocity":0.7874015748031497},{"duration":0.13043474999999916,"midi":64,"time":62.347810499999994,"velocity":0.7874015748031497},{"duration":0.13043474999999916,"midi":65,"time":62.47824524999999,"velocity":0.7874015748031497},{"duration":0.2608694999999983,"midi":62,"time":62.60867999999999,"velocity":0.7874015748031497},{"duration":0.2608694999999983,"midi":60,"time":62.99998425,"velocity":0.7874015748031497},{"duration":0.2608694999999983,"midi":62,"time":62.99998425,"velocity":0.7874015748031497},{"duration":0.13043474999999916,"midi":64,"time":63.260853749999995,"velocity":0.7874015748031497},{"duration":0.13043474999999916,"midi":65,"time":63.391288499999995,"velocity":0.7874015748031497},{"duration":0.13043474999999916,"midi":72,"time":63.521723249999994,"velocity":0.7874015748031497},{"duration":0.5217390000000037,"midi":69,"time":63.65215799999999,"velocity":0.7874015748031497},{"duration":0.13043474999999205,"midi":62,"time":64.173897,"velocity":0.7874015748031497},{"duration":0.13043474999999205,"midi":57,"time":64.173897,"velocity":0.7874015748031497},{"duration":0.13043475000000626,"midi":65,"time":64.30433174999999,"velocity":0.7874015748031497},{"duration":0.13043475000000626,"midi":64,"time":64.4347665,"velocity":0.7874015748031497},{"duration":0.13043474999999205,"midi":65,"time":64.56520125,"velocity":0.7874015748031497},{"duration":0.2608694999999983,"midi":62,"time":64.695636,"velocity":0.7874015748031497},{"duration":0.2608694999999983,"midi":57,"time":65.08694025,"velocity":0.7874015748031497},{"duration":0.2608694999999983,"midi":62,"time":65.08694025,"velocity":0.7874015748031497},{"duration":0.13043474999999205,"midi":64,"time":65.34780975,"velocity":0.7874015748031497},{"duration":0.13043475000000626,"midi":65,"time":65.47824449999999,"velocity":0.7874015748031497},{"duration":0.13043475000000626,"midi":72,"time":65.60867925,"velocity":0.7874015748031497},{"duration":0.5217389999999966,"midi":69,"time":65.739114,"velocity":0.7874015748031497},{"duration":0.39130424999999036,"midi":60,"time":66.260853,"velocity":0.7874015748031497},{"duration":0.39130424999999036,"midi":57,"time":66.260853,"velocity":0.7874015748031497},{"duration":0.39130425000000457,"midi":67,"time":66.65215724999999,"velocity":0.7874015748031497},{"duration":0.2608694999999983,"midi":65,"time":67.04346149999999,"velocity":0.7874015748031497},{"duration":0.13043475000000626,"midi":57,"time":67.30433099999999,"velocity":0.7874015748031497},{"duration":0.13043475000000626,"midi":64,"time":67.30433099999999,"velocity":0.7874015748031497},{"duration":0.2608694999999983,"midi":62,"time":67.43476575,"velocity":0.7874015748031497},{"duration":0.39130425000000457,"midi":60,"time":67.69563525,"velocity":0.7874015748031497},{"duration":0.2608694999999983,"midi":64,"time":68.0869395,"velocity":0.7874015748031497},{"duration":0.13043474999999205,"midi":70,"time":68.347809,"velocity":0.7874015748031497},{"duration":0.13043474999999205,"midi":74,"time":68.347809,"velocity":0.7874015748031497},{"duration":0.13043475000000626,"midi":77,"time":68.47824374999999,"velocity":0.7874015748031497},{"duration":0.13043474999999205,"midi":76,"time":68.6086785,"velocity":0.7874015748031497},{"duration":0.13043475000000626,"midi":77,"time":68.73911324999999,"velocity":0.7874015748031497},{"duration":0.2608694999999983,"midi":74,"time":68.869548,"velocity":0.7874015748031497},{"duration":0.2608694999999983,"midi":70,"time":69.26085225,"velocity":0.7874015748031497},{"duration":0.2608694999999983,"midi":74,"time":69.26085225,"velocity":0.7874015748031497},{"duration":0.13043474999999205,"midi":76,"time":69.52172175,"velocity":0.7874015748031497},{"duration":0.13043475000000626,"midi":77,"time":69.65215649999999,"velocity":0.7874015748031497},{"duration":0.13043474999999205,"midi":84,"time":69.78259125,"velocity":0.7874015748031497},{"duration":0.5217390000000108,"midi":81,"time":69.91302599999999,"velocity":0.7874015748031497},{"duration":0.13043474999999205,"midi":74,"time":70.434765,"velocity":0.7874015748031497},{"duration":0.13043474999999205,"midi":72,"time":70.434765,"velocity":0.7874015748031497},{"duration":0.13043475000000626,"midi":77,"time":70.56519974999999,"velocity":0.7874015748031497},{"duration":0.13043474999999205,"midi":76,"time":70.6956345,"velocity":0.7874015748031497},{"duration":0.13043475000000626,"midi":77,"time":70.82606924999999,"velocity":0.7874015748031497},{"duration":0.2608694999999983,"midi":74,"time":70.956504,"velocity":0.7874015748031497},{"duration":0.2608694999999983,"midi":74,"time":71.34780825,"velocity":0.7874015748031497},{"duration":0.2608694999999983,"midi":72,"time":71.34780825,"velocity":0.7874015748031497},{"duration":0.13043474999999205,"midi":76,"time":71.60867775,"velocity":0.7874015748031497},{"duration":0.13043475000000626,"midi":77,"time":71.73911249999999,"velocity":0.7874015748031497},{"duration":0.13043474999999205,"midi":84,"time":71.86954725,"velocity":0.7874015748031497},{"duration":0.5217390000000108,"midi":81,"time":71.99998199999999,"velocity":0.7874015748031497},{"duration":0.13043474999999205,"midi":69,"time":72.521721,"velocity":0.7874015748031497},{"duration":0.13043474999999205,"midi":74,"time":72.521721,"velocity":0.7874015748031497},{"duration":0.13043475000000626,"midi":77,"time":72.65215574999999,"velocity":0.7874015748031497},{"duration":0.13043474999999205,"midi":76,"time":72.7825905,"velocity":0.7874015748031497},{"duration":0.13043475000000626,"midi":77,"time":72.91302524999999,"velocity":0.7874015748031497},{"duration":0.2608694999999983,"midi":74,"time":73.04346,"velocity":0.7874015748031497},{"duration":0.2608695000000125,"midi":69,"time":73.43476424999999,"velocity":0.7874015748031497},{"duration":0.2608695000000125,"midi":74,"time":73.43476424999999,"velocity":0.7874015748031497},{"duration":0.13043474999999205,"midi":76,"time":73.69563375,"velocity":0.7874015748031497},{"duration":0.13043475000000626,"midi":77,"time":73.82606849999999,"velocity":0.7874015748031497},{"duration":0.13043474999999205,"midi":84,"time":73.95650325,"velocity":0.7874015748031497},{"duration":0.5217390000000108,"midi":81,"time":74.08693799999999,"velocity":0.7874015748031497},{"duration":0.39130424999999036,"midi":72,"time":74.608677,"velocity":0.7874015748031497},{"duration":0.39130424999999036,"midi":64,"time":74.608677,"velocity":0.7874015748031497},{"duration":0.39130425000000457,"midi":79,"time":74.99998124999999,"velocity":0.7874015748031497},{"duration":0.2608694999999983,"midi":77,"time":75.3912855,"velocity":0.7874015748031497},{"duration":0.13043475000000626,"midi":64,"time":75.652155,"velocity":0.7874015748031497},{"duration":0.13043475000000626,"midi":76,"time":75.652155,"velocity":0.7874015748031497},{"duration":0.2608694999999983,"midi":74,"time":75.78258975,"velocity":0.7874015748031497},{"duration":0.39130424999999036,"midi":72,"time":76.04345925,"velocity":0.7874015748031497},{"duration":0.2608694999999983,"midi":76,"time":76.43476349999999,"velocity":0.7874015748031497},{"duration":0.13043475000000626,"midi":74,"time":76.69563299999999,"velocity":0.7874015748031497},{"duration":0.13043475000000626,"midi":70,"time":76.69563299999999,"velocity":0.7874015748031497},{"duration":0.13043475000000626,"midi":77,"time":76.82606774999999,"velocity":0.7874015748031497},{"duration":0.13043474999999205,"midi":76,"time":76.9565025,"velocity":0.7874015748031497},{"duration":0.13043475000000626,"midi":77,"time":77.08693724999999,"velocity":0.7874015748031497},{"duration":0.2608694999999983,"midi":74,"time":77.217372,"velocity":0.7874015748031497},{"duration":0.2608694999999983,"midi":74,"time":77.60867624999999,"velocity":0.7874015748031497},{"duration":0.2608694999999983,"midi":70,"time":77.60867624999999,"velocity":0.7874015748031497},{"duration":0.13043475000000626,"midi":76,"time":77.86954574999999,"velocity":0.7874015748031497},{"duration":0.13043475000000626,"midi":77,"time":77.99998049999999,"velocity":0.7874015748031497},{"duration":0.13043474999999205,"midi":84,"time":78.13041525,"velocity":0.7874015748031497},{"duration":0.5217389999999966,"midi":81,"time":78.26084999999999,"velocity":0.7874015748031497},{"duration":0.13043475000000626,"midi":72,"time":78.78258899999999,"velocity":0.7874015748031497},{"duration":0.13043475000000626,"midi":74,"time":78.78258899999999,"velocity":0.7874015748031497},{"duration":0.13043475000000626,"midi":77,"time":78.91302375,"velocity":0.7874015748031497},{"duration":0.13043474999999205,"midi":76,"time":79.0434585,"velocity":0.7874015748031497},{"duration":0.13043475000000626,"midi":77,"time":79.17389324999999,"velocity":0.7874015748031497},{"duration":0.2608694999999983,"midi":74,"time":79.304328,"velocity":0.7874015748031497},{"duration":0.2608694999999983,"midi":72,"time":79.69563224999999,"velocity":0.7874015748031497},{"duration":0.2608694999999983,"midi":74,"time":79.69563224999999,"velocity":0.7874015748031497},{"duration":0.13043475000000626,"midi":76,"time":79.95650174999999,"velocity":0.7874015748031497},{"duration":0.13043475000000626,"midi":77,"time":80.0869365,"velocity":0.7874015748031497},{"duration":0.13043474999999205,"midi":84,"time":80.21737125,"velocity":0.7874015748031497},{"duration":0.5217389999999966,"midi":81,"time":80.34780599999999,"velocity":0.7874015748031497},{"duration":0.13043475000000626,"midi":74,"time":80.86954499999999,"velocity":0.7874015748031497},{"duration":0.13043475000000626,"midi":69,"time":80.86954499999999,"velocity":0.7874015748031497},{"duration":0.13043474999999205,"midi":77,"time":80.99997975,"velocity":0.7874015748031497},{"duration":0.13043475000000626,"midi":76,"time":81.13041449999999,"velocity":0.7874015748031497},{"duration":0.13043475000000626,"midi":77,"time":81.26084924999999,"velocity":0.7874015748031497},{"duration":0.2608694999999983,"midi":74,"time":81.391284,"velocity":0.7874015748031497},{"duration":0.2608694999999983,"midi":69,"time":81.78258824999999,"velocity":0.7874015748031497},{"duration":0.2608694999999983,"midi":74,"time":81.78258824999999,"velocity":0.7874015748031497},{"duration":0.13043475000000626,"midi":76,"time":82.04345774999999,"velocity":0.7874015748031497},{"duration":0.13043474999999205,"midi":77,"time":82.1738925,"velocity":0.7874015748031497},{"duration":0.13043475000000626,"midi":84,"time":82.30432724999999,"velocity":0.7874015748031497},{"duration":0.5217389999999966,"midi":81,"time":82.43476199999999,"velocity":0.7874015748031497},{"duration":0.39130425000000457,"midi":64,"time":82.95650099999999,"velocity":0.7874015748031497},{"duration":0.39130425000000457,"midi":73,"time":82.95650099999999,"velocity":0.7874015748031497},{"duration":0.39130425000000457,"midi":79,"time":83.34780525,"velocity":0.7874015748031497},{"duration":0.2608694999999983,"midi":77,"time":83.7391095,"velocity":0.7874015748031497},{"duration":0.13043474999999205,"midi":64,"time":83.999979,"velocity":0.7874015748031497},{"duration":0.13043474999999205,"midi":76,"time":83.999979,"velocity":0.7874015748031497},{"duration":0.2608694999999983,"midi":74,"time":84.13041374999999,"velocity":0.7874015748031497},{"duration":0.39130425000000457,"midi":73,"time":84.39128324999999,"velocity":0.7874015748031497},{"duration":0.2608694999999983,"midi":76,"time":84.78258749999999,"velocity":0.7874015748031497},{"duration":0.13043475000000626,"midi":70,"time":85.04345699999999,"velocity":0.7874015748031497},{"duration":0.13043475000000626,"midi":74,"time":85.04345699999999,"velocity":0.7874015748031497},{"duration":0.13043474999999205,"midi":77,"time":85.17389175,"velocity":0.7874015748031497},{"duration":0.13043475000000626,"midi":76,"time":85.30432649999999,"velocity":0.7874015748031497},{"duration":0.13043474999999205,"midi":77,"time":85.43476125,"velocity":0.7874015748031497},{"duration":0.2608695000000125,"midi":74,"time":85.56519599999999,"velocity":0.7874015748031497},{"duration":0.2608694999999983,"midi":70,"time":85.95650024999999,"velocity":0.7874015748031497},{"duration":0.2608694999999983,"midi":74,"time":85.95650024999999,"velocity":0.7874015748031497},{"duration":0.13043475000000626,"midi":76,"time":86.21736974999999,"velocity":0.7874015748031497},{"duration":0.13043474999999205,"midi":77,"time":86.3478045,"velocity":0.7874015748031497},{"duration":0.13043475000000626,"midi":84,"time":86.47823924999999,"velocity":0.7874015748031497},{"duration":0.5217389999999966,"midi":81,"time":86.608674,"velocity":0.7874015748031497},{"duration":0.13043475000000626,"midi":74,"time":87.13041299999999,"velocity":0.7874015748031497},{"duration":0.13043475000000626,"midi":72,"time":87.13041299999999,"velocity":0.7874015748031497},{"duration":0.13043474999999205,"midi":77,"time":87.26084775,"velocity":0.7874015748031497},{"duration":0.13043475000000626,"midi":76,"time":87.39128249999999,"velocity":0.7874015748031497},{"duration":0.13043474999999205,"midi":77,"time":87.52171725,"velocity":0.7874015748031497},{"duration":0.2608694999999983,"midi":74,"time":87.65215199999999,"velocity":0.7874015748031497},{"duration":0.2608694999999983,"midi":74,"time":88.04345624999999,"velocity":0.7874015748031497},{"duration":0.2608694999999983,"midi":72,"time":88.04345624999999,"velocity":0.7874015748031497},{"duration":0.13043475000000626,"midi":76,"time":88.30432574999999,"velocity":0.7874015748031497},{"duration":0.13043474999999205,"midi":77,"time":88.4347605,"velocity":0.7874015748031497},{"duration":0.13043475000000626,"midi":84,"time":88.56519524999999,"velocity":0.7874015748031497},{"duration":0.5217389999999966,"midi":81,"time":88.69563,"velocity":0.7874015748031497},{"duration":0.13043475000000626,"midi":69,"time":89.21736899999999,"velocity":0.7874015748031497},{"duration":0.13043475000000626,"midi":74,"time":89.21736899999999,"velocity":0.7874015748031497},{"duration":0.13043474999999205,"midi":77,"time":89.34780375,"velocity":0.7874015748031497},{"duration":0.13043475000000626,"midi":76,"time":89.47823849999999,"velocity":0.7874015748031497},{"duration":0.13043474999999205,"midi":77,"time":89.60867325,"velocity":0.7874015748031497},{"duration":0.2608694999999983,"midi":74,"time":89.73910799999999,"velocity":0.7874015748031497},{"duration":0.2608694999999983,"midi":69,"time":90.13041224999999,"velocity":0.7874015748031497},{"duration":0.2608694999999983,"midi":74,"time":90.13041224999999,"velocity":0.7874015748031497},{"duration":0.13043475000000626,"midi":76,"time":90.39128174999999,"velocity":0.7874015748031497},{"duration":0.13043474999999205,"midi":77,"time":90.5217165,"velocity":0.7874015748031497},{"duration":0.13043475000000626,"midi":84,"time":90.65215124999999,"velocity":0.7874015748031497},{"duration":0.5217389999999966,"midi":81,"time":90.782586,"velocity":0.7874015748031497},{"duration":0.39130425000000457,"midi":72,"time":91.30432499999999,"velocity":0.7874015748031497},{"duration":0.39130425000000457,"midi":64,"time":91.30432499999999,"velocity":0.7874015748031497},{"duration":0.39130424999999036,"midi":79,"time":91.69562925,"velocity":0.7874015748031497},{"duration":0.2608694999999983,"midi":77,"time":92.08693349999999,"velocity":0.7874015748031497},{"duration":0.13043475000000626,"midi":64,"time":92.34780299999998,"velocity":0.7874015748031497},{"duration":0.13043475000000626,"midi":76,"time":92.34780299999998,"velocity":0.7874015748031497},{"duration":0.2608694999999983,"midi":74,"time":92.47823774999999,"velocity":0.7874015748031497},{"duration":0.39130425000000457,"midi":72,"time":92.73910724999999,"velocity":0.7874015748031497},{"duration":0.2608694999999983,"midi":76,"time":93.1304115,"velocity":0.7874015748031497},{"duration":0.13043475000000626,"midi":70,"time":93.39128099999999,"velocity":0.7874015748031497},{"duration":0.13043475000000626,"midi":74,"time":93.39128099999999,"velocity":0.7874015748031497},{"duration":0.13043474999999205,"midi":77,"time":93.52171575,"velocity":0.7874015748031497},{"duration":0.13043475000000626,"midi":76,"time":93.65215049999999,"velocity":0.7874015748031497},{"duration":0.13043474999999205,"midi":77,"time":93.78258525,"velocity":0.7874015748031497},{"duration":0.2608694999999983,"midi":74,"time":93.91301999999999,"velocity":0.7874015748031497},{"duration":0.2608694999999983,"midi":70,"time":94.30432425,"velocity":0.7874015748031497},{"duration":0.2608694999999983,"midi":74,"time":94.30432425,"velocity":0.7874015748031497},{"duration":0.13043475000000626,"midi":76,"time":94.56519374999999,"velocity":0.7874015748031497},{"duration":0.13043474999999205,"midi":77,"time":94.6956285,"velocity":0.7874015748031497},{"duration":0.13043475000000626,"midi":84,"time":94.82606324999999,"velocity":0.7874015748031497},{"duration":0.5217389999999966,"midi":81,"time":94.956498,"velocity":0.7874015748031497},{"duration":0.13043474999999205,"midi":72,"time":95.478237,"velocity":0.7874015748031497},{"duration":0.13043474999999205,"midi":74,"time":95.478237,"velocity":0.7874015748031497},{"duration":0.13043475000000626,"midi":77,"time":95.60867174999998,"velocity":0.7874015748031497},{"duration":0.13043475000000626,"midi":76,"time":95.73910649999999,"velocity":0.7874015748031497},{"duration":0.13043474999999205,"midi":77,"time":95.86954125,"velocity":0.7874015748031497},{"duration":0.2608694999999983,"midi":74,"time":95.99997599999999,"velocity":0.7874015748031497},{"duration":0.2608694999999983,"midi":72,"time":96.39128025,"velocity":0.7874015748031497},{"duration":0.2608694999999983,"midi":74,"time":96.39128025,"velocity":0.7874015748031497},{"duration":0.13043474999999205,"midi":76,"time":96.65214974999999,"velocity":0.7874015748031497},{"duration":0.13043475000000626,"midi":77,"time":96.78258449999998,"velocity":0.7874015748031497},{"duration":0.13043475000000626,"midi":84,"time":96.91301924999999,"velocity":0.7874015748031497},{"duration":0.5217389999999966,"midi":81,"time":97.043454,"velocity":0.7874015748031497},{"duration":0.13043474999999205,"midi":74,"time":97.565193,"velocity":0.7874015748031497},{"duration":0.13043474999999205,"midi":69,"time":97.565193,"velocity":0.7874015748031497},{"duration":0.13043475000000626,"midi":77,"time":97.69562774999999,"velocity":0.7874015748031497},{"duration":0.13043475000000626,"midi":76,"time":97.82606249999999,"velocity":0.7874015748031497},{"duration":0.13043474999999205,"midi":77,"time":97.95649725,"velocity":0.7874015748031497},{"duration":0.2608694999999983,"midi":74,"time":98.08693199999999,"velocity":0.7874015748031497},{"duration":0.2608694999999983,"midi":74,"time":98.47823625,"velocity":0.7874015748031497},{"duration":0.2608694999999983,"midi":69,"time":98.47823625,"velocity":0.7874015748031497},{"duration":0.13043474999999205,"midi":76,"time":98.73910575,"velocity":0.7874015748031497},{"duration":0.13043475000000626,"midi":77,"time":98.86954049999999,"velocity":0.7874015748031497},{"duration":0.13043475000000626,"midi":84,"time":98.99997524999999,"velocity":0.7874015748031497},{"duration":0.5217389999999966,"midi":81,"time":99.13041,"velocity":0.7874015748031497},{"duration":0.39130424999999036,"midi":73,"time":99.652149,"velocity":0.7874015748031497},{"duration":0.39130425000000457,"midi":79,"time":100.04345324999998,"velocity":0.7874015748031497},{"duration":0.2608694999999983,"midi":77,"time":100.43475749999999,"velocity":0.7874015748031497},{"duration":0.13043475000000626,"midi":76,"time":100.69562699999999,"velocity":0.7874015748031497},{"duration":0.2608694999999983,"midi":74,"time":100.82606175,"velocity":0.7874015748031497},{"duration":0.39130425000000457,"midi":73,"time":101.08693124999999,"velocity":0.7874015748031497},{"duration":0.2608694999999983,"midi":76,"time":101.4782355,"velocity":0.7874015748031497},{"duration":0.13043474999999205,"midi":70,"time":101.739105,"velocity":0.7874015748031497},{"duration":1.4347822499999978,"midi":74,"time":101.86953974999999,"velocity":0.7874015748031497},{"duration":0.2608695000000125,"midi":69,"time":103.30432199999998,"velocity":0.7874015748031497},{"duration":0.13043474999999205,"midi":72,"time":103.5651915,"velocity":0.7874015748031497},{"duration":0.13043474999999205,"midi":72,"time":103.826061,"velocity":0.7874015748031497},{"duration":0.6521737500000029,"midi":74,"time":103.95649574999999,"velocity":0.7874015748031497},{"duration":0.2608694999999983,"midi":77,"time":104.60866949999999,"velocity":0.7874015748031497},{"duration":0.13043475000000626,"midi":79,"time":104.86953899999999,"velocity":0.7874015748031497},{"duration":0.2608694999999983,"midi":77,"time":104.99997375,"velocity":0.7874015748031497},{"duration":0.39130424999999036,"midi":76,"time":105.26084325,"velocity":0.7874015748031497},{"duration":0.2608695000000125,"midi":77,"time":105.65214749999998,"velocity":0.7874015748031497},{"duration":0.13043474999999205,"midi":69,"time":105.913017,"velocity":0.7874015748031497},{"duration":0.9130432500000012,"midi":74,"time":106.04345174999999,"velocity":0.7874015748031497},{"duration":0.13043475000000626,"midi":69,"time":106.95649499999999,"velocity":0.7874015748031497},{"duration":0.13043475000000626,"midi":69,"time":107.21736449999999,"velocity":0.7874015748031497},{"duration":0.13043474999999205,"midi":72,"time":107.34779925,"velocity":0.7874015748031497},{"duration":0.13043474999999205,"midi":72,"time":107.60866874999999,"velocity":0.7874015748031497},{"duration":0.2608695000000125,"midi":77,"time":107.73910349999998,"velocity":0.7874015748031497},{"duration":0.13043474999999205,"midi":72,"time":107.999973,"velocity":0.7874015748031497},{"duration":0.9130432500000012,"midi":76,"time":108.13040774999999,"velocity":0.7874015748031497},{"duration":0.39130425000000457,"midi":74,"time":109.04345099999999,"velocity":0.7874015748031497},{"duration":0.39130424999999036,"midi":77,"time":109.43475525,"velocity":0.7874015748031497},{"duration":0.2608694999999983,"midi":79,"time":109.82605949999999,"velocity":0.7874015748031497},{"duration":1.565217000000004,"midi":81,"time":110.08692899999998,"velocity":0.7874015748031497},{"duration":0.2608694999999983,"midi":77,"time":111.65214599999999,"velocity":0.7874015748031497},{"duration":0.13043475000000626,"midi":79,"time":111.91301549999999,"velocity":0.7874015748031497},{"duration":0.7826085000000091,"midi":81,"time":112.17388499999998,"velocity":0.7874015748031497},{"duration":0.2608694999999983,"midi":79,"time":112.9564935,"velocity":0.7874015748031497},{"duration":0.2608694999999983,"midi":77,"time":113.21736299999999,"velocity":0.7874015748031497},{"duration":0.13043475000000626,"midi":79,"time":113.47823249999999,"velocity":0.7874015748031497},{"duration":0.39130424999999036,"midi":76,"time":113.60866725,"velocity":0.7874015748031497},{"duration":1.565217000000004,"midi":74,"time":114.26084099999999,"velocity":0.7874015748031497},{"duration":0.2608694999999983,"midi":77,"time":115.82605799999999,"velocity":0.7874015748031497},{"duration":0.13043475000000626,"midi":79,"time":116.08692749999999,"velocity":0.7874015748031497},{"duration":0.7826085000000091,"midi":81,"time":116.34779699999999,"velocity":0.7874015748031497},{"duration":0.2608694999999983,"midi":79,"time":117.1304055,"velocity":0.7874015748031497},{"duration":0.2608694999999983,"midi":77,"time":117.391275,"velocity":0.7874015748031497},{"duration":0.13043474999999205,"midi":79,"time":117.65214449999999,"velocity":0.7874015748031497},{"duration":0.39130425000000457,"midi":76,"time":117.78257924999998,"velocity":0.7874015748031497},{"duration":0.13043475000000626,"midi":84,"time":118.17388349999999,"velocity":0.7874015748031497},{"duration":1.565217000000004,"midi":81,"time":118.43475299999999,"velocity":0.7874015748031497},{"duration":0.2608694999999983,"midi":77,"time":119.99996999999999,"velocity":0.7874015748031497},{"duration":0.13043475000000626,"midi":79,"time":120.26083949999999,"velocity":0.7874015748031497},{"duration":0.7826084999999949,"midi":81,"time":120.52170899999999,"velocity":0.7874015748031497},{"duration":0.2608695000000125,"midi":79,"time":121.30431749999998,"velocity":0.7874015748031497},{"duration":0.2608694999999983,"midi":77,"time":121.565187,"velocity":0.7874015748031497},{"duration":0.13043474999999205,"midi":79,"time":121.82605649999999,"velocity":0.7874015748031497},{"duration":0.39130425000000457,"midi":76,"time":121.95649124999998,"velocity":0.7874015748031497},{"duration":0.13043475000000626,"midi":72,"time":122.34779549999999,"velocity":0.7874015748031497},{"duration":2.0869560000000007,"midi":74,"time":122.60866499999999,"velocity":0.7874015748031497},{"duration":0.13043475000000626,"midi":89,"time":135.13040099999998,"velocity":0.7874015748031497},{"duration":0.13043475000000626,"midi":86,"time":135.13040099999998,"velocity":0.7874015748031497},{"duration":0.13043475000000626,"midi":88,"time":135.26083574999998,"velocity":0.7874015748031497},{"duration":0.13043475000000626,"midi":86,"time":135.3912705,"velocity":0.7874015748031497},{"duration":0.13043474999997784,"midi":84,"time":135.52170525,"velocity":0.7874015748031497},{"duration":0.2608695000000125,"midi":86,"time":135.65213999999997,"velocity":0.7874015748031497},{"duration":0.2608695000000125,"midi":81,"time":135.9130095,"velocity":0.7874015748031497},{"duration":0.39130424999999036,"midi":83,"time":136.173879,"velocity":0.7874015748031497},{"duration":0.2608694999999841,"midi":79,"time":136.173879,"velocity":0.7874015748031497},{"duration":0.39130424999999036,"midi":79,"time":136.56518325,"velocity":0.7874015748031497},{"duration":0.13043475000000626,"midi":74,"time":136.95648749999998,"velocity":0.7874015748031497},{"duration":0.13043475000000626,"midi":76,"time":137.08692225,"velocity":0.7874015748031497},{"duration":0.39130424999999036,"midi":77,"time":137.217357,"velocity":0.7874015748031497},{"duration":0.2608695000000125,"midi":79,"time":137.60866124999998,"velocity":0.7874015748031497},{"duration":0.13043474999997784,"midi":74,"time":137.86953075,"velocity":0.7874015748031497},{"duration":0.2608695000000125,"midi":84,"time":137.99996549999997,"velocity":0.7874015748031497},{"duration":1.0434779999999932,"midi":81,"time":138.260835,"velocity":0.7874015748031497},{"duration":0.13043475000000626,"midi":86,"time":139.30431299999998,"velocity":0.7874015748031497},{"duration":0.13043475000000626,"midi":89,"time":139.30431299999998,"velocity":0.7874015748031497},{"duration":0.13043475000000626,"midi":88,"time":139.43474774999999,"velocity":0.7874015748031497},{"duration":0.13043475000000626,"midi":86,"time":139.5651825,"velocity":0.7874015748031497},{"duration":0.13043474999997784,"midi":84,"time":139.69561725,"velocity":0.7874015748031497},{"duration":0.2608695000000125,"midi":86,"time":139.82605199999998,"velocity":0.7874015748031497},{"duration":0.2608695000000125,"midi":81,"time":140.0869215,"velocity":0.7874015748031497},{"duration":0.2608694999999841,"midi":79,"time":140.347791,"velocity":0.7874015748031497},{"duration":0.39130424999999036,"midi":83,"time":140.347791,"velocity":0.7874015748031497},{"duration":0.39130424999999036,"midi":79,"time":140.73909525,"velocity":0.7874015748031497},{"duration":0.13043475000000626,"midi":74,"time":141.13039949999998,"velocity":0.7874015748031497},{"duration":0.13043475000000626,"midi":76,"time":141.26083425,"velocity":0.7874015748031497},{"duration":0.39130424999999036,"midi":74,"time":141.391269,"velocity":0.7874015748031497},{"duration":0.39130424999999036,"midi":77,"time":141.391269,"velocity":0.7874015748031497},{"duration":0.2608695000000125,"midi":76,"time":141.78257324999998,"velocity":0.7874015748031497},{"duration":0.13043474999997784,"midi":72,"time":142.04344275,"velocity":0.7874015748031497},{"duration":0.2608695000000125,"midi":76,"time":142.17387749999997,"velocity":0.7874015748031497},{"duration":1.0434779999999932,"midi":74,"time":142.434747,"velocity":0.7874015748031497},{"duration":0.06521737500000313,"midi":75,"time":143.47822499999998,"velocity":0.7874015748031497},{"duration":0.06521737500000313,"midi":79,"time":143.47822499999998,"velocity":0.7874015748031497},{"duration":0.06521737500000313,"midi":77,"time":143.60865975,"velocity":0.7874015748031497},{"duration":0.06521737500000313,"midi":75,"time":143.7390945,"velocity":0.7874015748031497},{"duration":0.06521737499997471,"midi":74,"time":143.86952925,"velocity":0.7874015748031497},{"duration":0.06521737500000313,"midi":75,"time":143.99996399999998,"velocity":0.7874015748031497},{"duration":0.06521737500000313,"midi":72,"time":143.99996399999998,"velocity":0.7874015748031497},{"duration":0.06521737500000313,"midi":74,"time":144.13039874999998,"velocity":0.7874015748031497},{"duration":0.06521737500000313,"midi":72,"time":144.2608335,"velocity":0.7874015748031497},{"duration":0.06521737500000313,"midi":75,"time":144.39126825,"velocity":0.7874015748031497},{"duration":0.32608687500001565,"midi":74,"time":144.52170299999997,"velocity":0.7874015748031497},{"duration":0.32608687500001565,"midi":69,"time":144.52170299999997,"velocity":0.7874015748031497},{"duration":0.32608687499998723,"midi":69,"time":144.91300725,"velocity":0.7874015748031497},{"duration":0.06521737500000313,"midi":69,"time":145.30431149999998,"velocity":0.7874015748031497},{"duration":0.06521737500000313,"midi":74,"time":145.43474625,"velocity":0.7874015748031497},{"duration":0.06521737500000313,"midi":79,"time":145.565181,"velocity":0.7874015748031497},{"duration":0.06521737500000313,"midi":75,"time":145.565181,"velocity":0.7874015748031497},{"duration":0.06521737500000313,"midi":77,"time":145.69561574999997,"velocity":0.7874015748031497},{"duration":0.06521737500000313,"midi":75,"time":145.82605049999998,"velocity":0.7874015748031497},{"duration":0.06521737500000313,"midi":74,"time":145.95648525,"velocity":0.7874015748031497},{"duration":0.06521737500000313,"midi":69,"time":146.08692,"velocity":0.7874015748031497},{"duration":0.06521737500000313,"midi":72,"time":146.08692,"velocity":0.7874015748031497},{"duration":0.06521737499997471,"midi":82,"time":146.21735475,"velocity":0.7874015748031497},{"duration":0.06521737500000313,"midi":81,"time":146.34778949999998,"velocity":0.7874015748031497},{"duration":0.06521737500000313,"midi":79,"time":146.47822424999998,"velocity":0.7874015748031497},{"duration":0.1956521250000094,"midi":74,"time":146.608659,"velocity":0.7874015748031497},{"duration":0.1956521250000094,"midi":77,"time":146.608659,"velocity":0.7874015748031497},{"duration":0.1956521250000094,"midi":76,"time":146.86952849999997,"velocity":0.7874015748031497},{"duration":0.1956521250000094,"midi":79,"time":146.86952849999997,"velocity":0.7874015748031497},{"duration":0.32608687499998723,"midi":81,"time":147.13039799999999,"velocity":0.7874015748031497},{"duration":0.32608687499998723,"midi":77,"time":147.13039799999999,"velocity":0.7874015748031497},{"duration":0.06521737500000313,"midi":83,"time":147.52170224999998,"velocity":0.7874015748031497},{"duration":0.06521737500000313,"midi":81,"time":147.65213699999998,"velocity":0.7874015748031497},{"duration":0.06521737500000313,"midi":84,"time":147.65213699999998,"velocity":0.7874015748031497},{"duration":0.06521737500000313,"midi":83,"time":147.78257175,"velocity":0.7874015748031497},{"duration":0.06521737500000313,"midi":81,"time":147.9130065,"velocity":0.7874015748031497},{"duration":0.06521737499997471,"midi":79,"time":148.04344125,"velocity":0.7874015748031497},{"duration":0.06521737500000313,"midi":77,"time":148.17387599999998,"velocity":0.7874015748031497},{"duration":0.06521737500000313,"midi":81,"time":148.17387599999998,"velocity":0.7874015748031497},{"duration":0.06521737500000313,"midi":79,"time":148.30431074999998,"velocity":0.7874015748031497},{"duration":0.06521737500000313,"midi":81,"time":148.4347455,"velocity":0.7874015748031497},{"duration":0.06521737500000313,"midi":83,"time":148.56518025,"velocity":0.7874015748031497},{"duration":0.32608687500001565,"midi":77,"time":148.69561499999998,"velocity":0.7874015748031497},{"duration":0.32608687500001565,"midi":81,"time":148.69561499999998,"velocity":0.7874015748031497},{"duration":0.32608687499998723,"midi":74,"time":149.08691925,"velocity":0.7874015748031497},{"duration":0.32608687499998723,"midi":69,"time":149.08691925,"velocity":0.7874015748031497},{"duration":0.06521737500000313,"midi":74,"time":149.47822349999998,"velocity":0.7874015748031497},{"duration":0.06521737500000313,"midi":76,"time":149.60865825,"velocity":0.7874015748031497},{"duration":0.32608687499998723,"midi":77,"time":149.739093,"velocity":0.7874015748031497},{"duration":0.32608687499998723,"midi":79,"time":150.13039725,"velocity":0.7874015748031497},{"duration":0.06521737500000313,"midi":82,"time":150.52170149999998,"velocity":0.7874015748031497},{"duration":0.06521737500000313,"midi":81,"time":150.782571,"velocity":0.7874015748031497},{"duration":0.06521737500000313,"midi":76,"time":151.04344049999997,"velocity":0.7874015748031497},{"duration":0.06521737500000313,"midi":73,"time":151.30431,"velocity":0.7874015748031497},{"duration":0.06521737499997471,"midi":69,"time":151.5651795,"velocity":0.7874015748031497},{"duration":0.06521737500000313,"midi":75,"time":151.82604899999998,"velocity":0.7874015748031497},{"duration":0.06521737500000313,"midi":79,"time":151.82604899999998,"velocity":0.7874015748031497},{"duration":0.06521737500000313,"midi":77,"time":151.95648375,"velocity":0.7874015748031497},{"duration":0.06521737500000313,"midi":75,"time":152.0869185,"velocity":0.7874015748031497},{"duration":0.06521737500000313,"midi":74,"time":152.21735324999997,"velocity":0.7874015748031497},{"duration":0.06521737500000313,"midi":72,"time":152.34778799999998,"velocity":0.7874015748031497},{"duration":0.06521737500000313,"midi":75,"time":152.34778799999998,"velocity":0.7874015748031497},{"duration":0.06521737500000313,"midi":74,"time":152.47822275,"velocity":0.7874015748031497},{"duration":0.06521737500000313,"midi":72,"time":152.6086575,"velocity":0.7874015748031497},{"duration":0.06521737499997471,"midi":75,"time":152.73909225,"velocity":0.7874015748031497},{"duration":0.32608687500001565,"midi":69,"time":152.86952699999998,"velocity":0.7874015748031497},{"duration":0.32608687500001565,"midi":74,"time":152.86952699999998,"velocity":0.7874015748031497},{"duration":0.32608687499998723,"midi":69,"time":153.26083125,"velocity":0.7874015748031497},{"duration":0.06521737500000313,"midi":69,"time":153.65213549999999,"velocity":0.7874015748031497},{"duration":0.06521737500000313,"midi":74,"time":153.78257025,"velocity":0.7874015748031497},{"duration":0.06521737499997471,"midi":75,"time":153.913005,"velocity":0.7874015748031497},{"duration":0.06521737499997471,"midi":79,"time":153.913005,"velocity":0.7874015748031497},{"duration":0.06521737500000313,"midi":77,"time":154.04343974999998,"velocity":0.7874015748031497},{"duration":0.06521737500000313,"midi":75,"time":154.17387449999998,"velocity":0.7874015748031497},{"duration":0.06521737500000313,"midi":74,"time":154.30430925,"velocity":0.7874015748031497},{"duration":0.06521737500000313,"midi":69,"time":154.434744,"velocity":0.7874015748031497},{"duration":0.06521737500000313,"midi":72,"time":154.434744,"velocity":0.7874015748031497},{"duration":0.06521737500000313,"midi":82,"time":154.56517874999997,"velocity":0.7874015748031497},{"duration":0.06521737500000313,"midi":81,"time":154.69561349999998,"velocity":0.7874015748031497},{"duration":0.06521737500000313,"midi":79,"time":154.82604824999999,"velocity":0.7874015748031497},{"duration":0.19565212499998097,"midi":74,"time":154.956483,"velocity":0.7874015748031497},{"duration":0.19565212499998097,"midi":77,"time":154.956483,"velocity":0.7874015748031497},{"duration":0.1956521250000094,"midi":79,"time":155.21735249999998,"velocity":0.7874015748031497},{"duration":0.1956521250000094,"midi":76,"time":155.21735249999998,"velocity":0.7874015748031497},{"duration":0.32608687499998723,"midi":77,"time":155.478222,"velocity":0.7874015748031497},{"duration":0.32608687499998723,"midi":81,"time":155.478222,"velocity":0.7874015748031497},{"duration":0.06521737500000313,"midi":83,"time":155.86952624999998,"velocity":0.7874015748031497},{"duration":0.06521737500000313,"midi":84,"time":155.99996099999998,"velocity":0.7874015748031497},{"duration":0.06521737500000313,"midi":81,"time":155.99996099999998,"velocity":0.7874015748031497},{"duration":0.06521737500000313,"midi":83,"time":156.13039575,"velocity":0.7874015748031497},{"duration":0.06521737499997471,"midi":81,"time":156.2608305,"velocity":0.7874015748031497},{"duration":0.06521737500000313,"midi":79,"time":156.39126524999998,"velocity":0.7874015748031497},{"duration":0.06521737500000313,"midi":81,"time":156.52169999999998,"velocity":0.7874015748031497},{"duration":0.06521737500000313,"midi":77,"time":156.52169999999998,"velocity":0.7874015748031497},{"duration":0.06521737500000313,"midi":79,"time":156.65213475,"velocity":0.7874015748031497},{"duration":0.06521737500000313,"midi":81,"time":156.7825695,"velocity":0.7874015748031497},{"duration":0.06521737500000313,"midi":83,"time":156.91300424999997,"velocity":0.7874015748031497},{"duration":0.3913042500000188,"midi":81,"time":157.04343899999998,"velocity":0.7874015748031497},{"duration":0.3913042500000188,"midi":77,"time":157.04343899999998,"velocity":0.7874015748031497},{"duration":0.39130424999999036,"midi":69,"time":157.43474325,"velocity":0.7874015748031497},{"duration":0.2608694999999841,"midi":74,"time":157.43474325,"velocity":0.7874015748031497},{"duration":0.13043475000000626,"midi":74,"time":157.8260475,"velocity":0.7874015748031497},{"duration":0.13043475000000626,"midi":76,"time":157.95648225,"velocity":0.7874015748031497},{"duration":0.39130424999999036,"midi":70,"time":158.086917,"velocity":0.7874015748031497},{"duration":0.39130424999999036,"midi":77,"time":158.086917,"velocity":0.7874015748031497},{"duration":0.39130424999999036,"midi":76,"time":158.47822125,"velocity":0.7874015748031497},{"duration":0.2608695000000125,"midi":72,"time":158.86952549999998,"velocity":0.7874015748031497},{"duration":0.7826084999999807,"midi":70,"time":159.130395,"velocity":0.7874015748031497},{"duration":0.6521737500000029,"midi":74,"time":159.130395,"velocity":0.7874015748031497},{"duration":0.7826084999999807,"midi":65,"time":159.130395,"velocity":0.7874015748031497},{"duration":0.13043475000000626,"midi":74,"time":159.91300349999997,"velocity":0.7874015748031497},{"duration":0.13043475000000626,"midi":76,"time":160.04343824999998,"velocity":0.7874015748031497},{"duration":0.39130424999999036,"midi":72,"time":160.173873,"velocity":0.7874015748031497},{"duration":0.39130424999999036,"midi":77,"time":160.173873,"velocity":0.7874015748031497},{"duration":0.3913042500000188,"midi":76,"time":160.56517724999998,"velocity":0.7874015748031497},{"duration":0.2608694999999841,"midi":72,"time":160.9564815,"velocity":0.7874015748031497},{"duration":0.6521737500000029,"midi":74,"time":161.21735099999998,"velocity":0.7874015748031497},{"duration":0.13043475000000626,"midi":74,"time":161.9999595,"velocity":0.7874015748031497},{"duration":0.13043474999997784,"midi":76,"time":162.13039425,"velocity":0.7874015748031497},{"duration":0.3913042500000188,"midi":70,"time":162.26082899999997,"velocity":0.7874015748031497},{"duration":0.3913042500000188,"midi":77,"time":162.26082899999997,"velocity":0.7874015748031497},{"duration":0.39130424999999036,"midi":76,"time":162.65213325,"velocity":0.7874015748031497},{"duration":0.2608695000000125,"midi":72,"time":163.04343749999998,"velocity":0.7874015748031497},{"duration":0.7826084999999807,"midi":70,"time":163.304307,"velocity":0.7874015748031497},{"duration":0.6521737500000029,"midi":74,"time":163.304307,"velocity":0.7874015748031497},{"duration":0.7826084999999807,"midi":65,"time":163.304307,"velocity":0.7874015748031497},{"duration":0.13043475000000626,"midi":74,"time":164.08691549999998,"velocity":0.7874015748031497},{"duration":0.13043475000000626,"midi":76,"time":164.21735024999998,"velocity":0.7874015748031497},{"duration":0.39130424999999036,"midi":72,"time":164.347785,"velocity":0.7874015748031497},{"duration":0.39130424999999036,"midi":77,"time":164.347785,"velocity":0.7874015748031497},{"duration":0.3913042500000188,"midi":76,"time":164.73908924999998,"velocity":0.7874015748031497},{"duration":0.13043474999997784,"midi":72,"time":165.1303935,"velocity":0.7874015748031497},{"duration":0.7826085000000091,"midi":65,"time":165.39126299999998,"velocity":0.7874015748031497},{"duration":0.7826085000000091,"midi":74,"time":165.39126299999998,"velocity":0.7874015748031497},{"duration":0.2608694999999841,"midi":72,"time":166.1738715,"velocity":0.7874015748031497}]},{"instrument":{"family":"synth lead","number":81,"name":"lead 2 (sawtooth)"},"notes":[{"duration":0.2608695,"midi":33,"time":0,"velocity":0.7874015748031497},{"duration":0.2608695,"midi":14,"time":0,"velocity":0.7874015748031497},{"duration":0.2608695,"midi":41,"time":0.2608695,"velocity":0.7874015748031497},{"duration":0.2608695,"midi":16,"time":0.521739,"velocity":0.7874015748031497},{"duration":0.2608695,"midi":36,"time":0.521739,"velocity":0.7874015748031497},{"duration":0.2608695,"midi":45,"time":0.7826084999999999,"velocity":0.7874015748031497},{"duration":1.043478,"midi":43,"time":1.043478,"velocity":0.7874015748031497},{"duration":1.043478,"midi":38,"time":1.043478,"velocity":0.7874015748031497},{"duration":1.043478,"midi":22,"time":1.043478,"velocity":0.7874015748031497},{"duration":0.2608695000000001,"midi":12,"time":2.086956,"velocity":0.7874015748031497},{"duration":0.2608695000000001,"midi":31,"time":2.086956,"velocity":0.7874015748031497},{"duration":0.2608695000000001,"midi":40,"time":2.3478255,"velocity":0.7874015748031497},{"duration":0.26086949999999964,"midi":36,"time":2.608695,"velocity":0.7874015748031497},{"duration":0.26086949999999964,"midi":16,"time":2.608695,"velocity":0.7874015748031497},{"duration":0.2608695000000001,"midi":43,"time":2.8695644999999996,"velocity":0.7874015748031497},{"duration":1.043478,"midi":41,"time":3.1304339999999997,"velocity":0.7874015748031497},{"duration":1.043478,"midi":14,"time":3.1304339999999997,"velocity":0.7874015748031497},{"duration":1.043478,"midi":33,"time":3.1304339999999997,"velocity":0.7874015748031497},{"duration":0.2608695000000001,"midi":21,"time":4.173912,"velocity":0.7874015748031497},{"duration":0.2608695000000001,"midi":31,"time":4.173912,"velocity":0.7874015748031497},{"duration":0.2608695000000001,"midi":38,"time":4.4347815,"velocity":0.7874015748031497},{"duration":0.2608695000000001,"midi":36,"time":4.695651,"velocity":0.7874015748031497},{"duration":0.2608695000000001,"midi":12,"time":4.695651,"velocity":0.7874015748031497},{"duration":0.2608695000000001,"midi":41,"time":4.9565205,"velocity":0.7874015748031497},{"duration":0.2608694999999992,"midi":36,"time":5.21739,"velocity":0.7874015748031497},{"duration":1.0434779999999995,"midi":22,"time":5.21739,"velocity":0.7874015748031497},{"duration":1.0434779999999995,"midi":40,"time":5.21739,"velocity":0.7874015748031497},{"duration":0.2608695000000001,"midi":34,"time":5.478259499999999,"velocity":0.7874015748031497},{"duration":0.2608695000000001,"midi":31,"time":5.739128999999999,"velocity":0.7874015748031497},{"duration":0.2608695000000001,"midi":33,"time":5.999998499999999,"velocity":0.7874015748031497},{"duration":0.13043475000000004,"midi":36,"time":6.260867999999999,"velocity":0.7874015748031497},{"duration":0.2608695000000001,"midi":19,"time":6.260867999999999,"velocity":0.7874015748031497},{"duration":0.2608695000000001,"midi":29,"time":6.5217374999999995,"velocity":0.7874015748031497},{"duration":0.2608695000000001,"midi":36,"time":6.5217374999999995,"velocity":0.7874015748031497},{"duration":0.2608695000000001,"midi":12,"time":6.782607,"velocity":0.7874015748031497},{"duration":0.2608695000000001,"midi":31,"time":6.782607,"velocity":0.7874015748031497},{"duration":0.13043475000000004,"midi":33,"time":7.0434765,"velocity":0.7874015748031497},{"duration":0.2608694999999992,"midi":38,"time":7.0434765,"velocity":0.7874015748031497},{"duration":0.9130432500000012,"midi":33,"time":7.304345999999999,"velocity":0.7874015748031497},{"duration":0.9130432500000012,"midi":33,"time":7.304345999999999,"velocity":0.7874015748031497},{"duration":0.9130432500000012,"midi":14,"time":7.304345999999999,"velocity":0.7874015748031497},{"duration":0.2608695000000001,"midi":33,"time":8.347824,"velocity":0.7874015748031497},{"duration":0.2608695000000001,"midi":14,"time":8.347824,"velocity":0.7874015748031497},{"duration":0.2608695000000001,"midi":41,"time":8.6086935,"velocity":0.7874015748031497},{"duration":0.2608695000000001,"midi":36,"time":8.869563,"velocity":0.7874015748031497},{"duration":0.2608695000000001,"midi":16,"time":8.869563,"velocity":0.7874015748031497},{"duration":0.2608695000000001,"midi":45,"time":9.1304325,"velocity":0.7874015748031497},{"duration":1.0434780000000003,"midi":22,"time":9.391302,"velocity":0.7874015748031497},{"duration":1.0434780000000003,"midi":38,"time":9.391302,"velocity":0.7874015748031497},{"duration":1.0434780000000003,"midi":43,"time":9.391302,"velocity":0.7874015748031497},{"duration":0.2608694999999983,"midi":12,"time":10.43478,"velocity":0.7874015748031497},{"duration":0.2608694999999983,"midi":40,"time":10.43478,"velocity":0.7874015748031497},{"duration":0.2608695000000001,"midi":48,"time":10.695649499999998,"velocity":0.7874015748031497},{"duration":0.2608695000000001,"midi":36,"time":10.956518999999998,"velocity":0.7874015748031497},{"duration":0.2608695000000001,"midi":16,"time":10.956518999999998,"velocity":0.7874015748031497},{"duration":0.2608695000000001,"midi":43,"time":11.217388499999998,"velocity":0.7874015748031497},{"duration":0.9130432500000012,"midi":14,"time":11.478257999999999,"velocity":0.7874015748031497},{"duration":1.0434780000000003,"midi":45,"time":11.478257999999999,"velocity":0.7874015748031497},{"duration":0.5217390000000002,"midi":40,"time":11.478257999999999,"velocity":0.7874015748031497},{"duration":0.5217390000000002,"midi":41,"time":11.999996999999999,"velocity":0.7874015748031497},{"duration":0.2608695000000001,"midi":40,"time":12.521735999999999,"velocity":0.7874015748031497},{"duration":0.2608695000000001,"midi":21,"time":12.521735999999999,"velocity":0.7874015748031497},{"duration":0.2608695000000001,"midi":38,"time":12.782605499999999,"velocity":0.7874015748031497},{"duration":0.2608695000000001,"midi":45,"time":12.782605499999999,"velocity":0.7874015748031497},{"duration":0.2608695000000001,"midi":12,"time":13.043474999999999,"velocity":0.7874015748031497},{"duration":0.2608695000000001,"midi":36,"time":13.043474999999999,"velocity":0.7874015748031497},{"duration":0.2608695000000001,"midi":43,"time":13.043474999999999,"velocity":0.7874015748031497},{"duration":0.2608695000000001,"midi":45,"time":13.3043445,"velocity":0.7874015748031497},{"duration":0.13043474999999916,"midi":40,"time":13.3043445,"velocity":0.7874015748031497},{"duration":0.5217390000000002,"midi":40,"time":13.565214,"velocity":0.7874015748031497},{"duration":0.9130432499999994,"midi":22,"time":13.565214,"velocity":0.7874015748031497},{"duration":0.5217389999999984,"midi":38,"time":14.086953,"velocity":0.7874015748031497},{"duration":0.2608694999999983,"midi":53,"time":14.3478225,"velocity":0.7874015748031497},{"duration":0.2608695000000001,"midi":19,"time":14.608691999999998,"velocity":0.7874015748031497},{"duration":0.2608695000000001,"midi":36,"time":14.608691999999998,"velocity":0.7874015748031497},{"duration":0.06521737499999958,"midi":53,"time":14.673909375,"velocity":0.7874015748031497},{"duration":0.13043474999999916,"midi":52,"time":14.739126749999999,"velocity":0.7874015748031497},{"duration":0.2608695000000001,"midi":29,"time":14.869561499999998,"velocity":0.7874015748031497},{"duration":0.2608695000000001,"midi":50,"time":14.869561499999998,"velocity":0.7874015748031497},{"duration":0.2608695000000001,"midi":48,"time":15.130430999999998,"velocity":0.7874015748031497},{"duration":0.2608695000000001,"midi":12,"time":15.130430999999998,"velocity":0.7874015748031497},{"duration":0.2608695000000001,"midi":31,"time":15.130430999999998,"velocity":0.7874015748031497},{"duration":0.2608695000000001,"midi":36,"time":15.391300499999998,"velocity":0.7874015748031497},{"duration":0.2608695000000001,"midi":52,"time":15.391300499999998,"velocity":0.7874015748031497},{"duration":1.0434780000000003,"midi":50,"time":15.652169999999998,"velocity":0.7874015748031497},{"duration":1.0434780000000003,"midi":33,"time":15.652169999999998,"velocity":0.7874015748031497},{"duration":1.0434780000000003,"midi":14,"time":15.652169999999998,"velocity":0.7874015748031497},{"duration":0.26086950000000186,"midi":50,"time":17.478256499999997,"velocity":0.7874015748031497},{"duration":0.1304347500000027,"midi":50,"time":17.999995499999997,"velocity":0.7874015748031497},{"duration":0.7826084999999985,"midi":50,"time":18.260865,"velocity":0.7874015748031497},{"duration":0.7826084999999985,"midi":46,"time":18.260865,"velocity":0.7874015748031497},{"duration":0.13043474999999916,"midi":22,"time":18.260865,"velocity":0.7874015748031497},{"duration":0.13043474999999916,"midi":29,"time":18.391299749999998,"velocity":0.7874015748031497},{"duration":0.1304347500000027,"midi":34,"time":18.521734499999997,"velocity":0.7874015748031497},{"duration":0.13043474999999916,"midi":29,"time":18.65216925,"velocity":0.7874015748031497},{"duration":0.13043474999999916,"midi":22,"time":18.782604,"velocity":0.7874015748031497},{"duration":0.13043474999999916,"midi":29,"time":18.91303875,"velocity":0.7874015748031497},{"duration":0.13043474999999916,"midi":34,"time":19.043473499999998,"velocity":0.7874015748031497},{"duration":0.1304347500000027,"midi":29,"time":19.173908249999997,"velocity":0.7874015748031497},{"duration":0.39130424999999747,"midi":46,"time":19.304343,"velocity":0.7874015748031497},{"duration":0.13043474999999916,"midi":22,"time":19.304343,"velocity":0.7874015748031497},{"duration":0.13043474999999916,"midi":29,"time":19.43477775,"velocity":0.7874015748031497},{"duration":0.13043474999999916,"midi":34,"time":19.565212499999998,"velocity":0.7874015748031497},{"duration":0.1304347500000027,"midi":29,"time":19.695647249999997,"velocity":0.7874015748031497},{"duration":0.13043474999999916,"midi":22,"time":19.826082,"velocity":0.7874015748031497},{"duration":0.13043474999999916,"midi":29,"time":19.95651675,"velocity":0.7874015748031497},{"duration":0.13043474999999916,"midi":34,"time":20.086951499999998,"velocity":0.7874015748031497},{"duration":0.1304347500000027,"midi":29,"time":20.217386249999997,"velocity":0.7874015748031497},{"duration":0.13043474999999916,"midi":22,"time":20.347821,"velocity":0.7874015748031497},{"duration":0.13043474999999916,"midi":29,"time":20.47825575,"velocity":0.7874015748031497},{"duration":0.13043474999999916,"midi":34,"time":20.608690499999998,"velocity":0.7874015748031497},{"duration":0.1304347500000027,"midi":29,"time":20.739125249999997,"velocity":0.7874015748031497},{"duration":0.13043474999999916,"midi":22,"time":20.86956,"velocity":0.7874015748031497},{"duration":0.13043474999999916,"midi":29,"time":20.99999475,"velocity":0.7874015748031497},{"duration":0.13043474999999916,"midi":34,"time":21.130429499999998,"velocity":0.7874015748031497},{"duration":0.13043474999999916,"midi":29,"time":21.260864249999997,"velocity":0.7874015748031497},{"duration":0.5217390000000002,"midi":22,"time":21.391298999999997,"velocity":0.7874015748031497},{"duration":0.5217390000000002,"midi":34,"time":21.391298999999997,"velocity":0.7874015748031497},{"duration":0.391304250000001,"midi":46,"time":21.391298999999997,"velocity":0.7874015748031497},{"duration":0.5217390000000002,"midi":46,"time":21.913037999999997,"velocity":0.7874015748031497},{"duration":0.5217390000000002,"midi":24,"time":21.913037999999997,"velocity":0.7874015748031497},{"duration":0.5217390000000002,"midi":36,"time":21.913037999999997,"velocity":0.7874015748031497},{"duration":0.1304347500000027,"midi":26,"time":22.434776999999997,"velocity":0.7874015748031497},{"duration":0.782608500000002,"midi":50,"time":22.434776999999997,"velocity":0.7874015748031497},{"duration":0.13043474999999916,"midi":33,"time":22.56521175,"velocity":0.7874015748031497},{"duration":0.13043474999999916,"midi":38,"time":22.6956465,"velocity":0.7874015748031497},{"duration":0.13043474999999916,"midi":33,"time":22.826081249999998,"velocity":0.7874015748031497},{"duration":0.13043474999999916,"midi":26,"time":22.956515999999997,"velocity":0.7874015748031497},{"duration":0.1304347500000027,"midi":33,"time":23.086950749999996,"velocity":0.7874015748031497},{"duration":0.13043474999999916,"midi":38,"time":23.2173855,"velocity":0.7874015748031497},{"duration":0.13043474999999916,"midi":33,"time":23.347820249999998,"velocity":0.7874015748031497},{"duration":0.13043474999999916,"midi":26,"time":23.478254999999997,"velocity":0.7874015748031497},{"duration":0.1304347500000027,"midi":33,"time":23.608689749999996,"velocity":0.7874015748031497},{"duration":0.13043474999999916,"midi":38,"time":23.7391245,"velocity":0.7874015748031497},{"duration":0.13043474999999916,"midi":33,"time":23.86955925,"velocity":0.7874015748031497},{"duration":0.13043474999999916,"midi":26,"time":23.999993999999997,"velocity":0.7874015748031497},{"duration":0.1304347500000027,"midi":33,"time":24.130428749999997,"velocity":0.7874015748031497},{"duration":0.13043474999999916,"midi":38,"time":24.2608635,"velocity":0.7874015748031497},{"duration":0.13043474999999916,"midi":33,"time":24.39129825,"velocity":0.7874015748031497},{"duration":0.13043474999999916,"midi":26,"time":24.521732999999998,"velocity":0.7874015748031497},{"duration":1.0434780000000003,"midi":50,"time":24.521732999999998,"velocity":0.7874015748031497},{"duration":1.0434780000000003,"midi":53,"time":24.521732999999998,"velocity":0.7874015748031497},{"duration":0.1304347500000027,"midi":33,"time":24.652167749999997,"velocity":0.7874015748031497},{"duration":0.13043474999999916,"midi":38,"time":24.7826025,"velocity":0.7874015748031497},{"duration":0.13043474999999916,"midi":33,"time":24.91303725,"velocity":0.7874015748031497},{"duration":0.13043474999999916,"midi":26,"time":25.043471999999998,"velocity":0.7874015748031497},{"duration":0.13043474999999916,"midi":33,"time":25.173906749999997,"velocity":0.7874015748031497},{"duration":0.1304347500000027,"midi":38,"time":25.304341499999996,"velocity":0.7874015748031497},{"duration":0.13043474999999916,"midi":33,"time":25.43477625,"velocity":0.7874015748031497},{"duration":0.5217390000000002,"midi":26,"time":25.565210999999998,"velocity":0.7874015748031497},{"duration":0.5217390000000002,"midi":38,"time":25.565210999999998,"velocity":0.7874015748031497},{"duration":0.2608694999999983,"midi":55,"time":25.565210999999998,"velocity":0.7874015748031497},{"duration":0.2608694999999983,"midi":55,"time":26.086949999999998,"velocity":0.7874015748031497},{"duration":0.5217390000000002,"midi":41,"time":26.086949999999998,"velocity":0.7874015748031497},{"duration":0.5217390000000002,"midi":29,"time":26.086949999999998,"velocity":0.7874015748031497},{"duration":0.7826084999999985,"midi":55,"time":26.608689,"velocity":0.7874015748031497},{"duration":0.13043474999999916,"midi":22,"time":26.608689,"velocity":0.7874015748031497},{"duration":0.13043474999999916,"midi":29,"time":26.739123749999997,"velocity":0.7874015748031497},{"duration":0.1304347500000027,"midi":34,"time":26.869558499999997,"velocity":0.7874015748031497},{"duration":0.13043474999999916,"midi":29,"time":26.99999325,"velocity":0.7874015748031497},{"duration":0.13043474999999916,"midi":22,"time":27.130428,"velocity":0.7874015748031497},{"duration":0.13043474999999916,"midi":29,"time":27.260862749999998,"velocity":0.7874015748031497},{"duration":0.13043474999999916,"midi":34,"time":27.391297499999997,"velocity":0.7874015748031497},{"duration":0.1304347500000027,"midi":29,"time":27.521732249999996,"velocity":0.7874015748031497},{"duration":0.13043474999999916,"midi":22,"time":27.652167,"velocity":0.7874015748031497},{"duration":0.13043474999999916,"midi":29,"time":27.782601749999998,"velocity":0.7874015748031497},{"duration":0.13043474999999916,"midi":34,"time":27.913036499999997,"velocity":0.7874015748031497},{"duration":0.1304347500000027,"midi":29,"time":28.043471249999996,"velocity":0.7874015748031497},{"duration":0.13043474999999916,"midi":22,"time":28.173906,"velocity":0.7874015748031497},{"duration":0.13043474999999916,"midi":29,"time":28.304340749999998,"velocity":0.7874015748031497},{"duration":0.13043474999999916,"midi":34,"time":28.434775499999997,"velocity":0.7874015748031497},{"duration":0.1304347500000027,"midi":29,"time":28.565210249999996,"velocity":0.7874015748031497},{"duration":0.13043474999999916,"midi":24,"time":28.695645,"velocity":0.7874015748031497},{"duration":0.7826084999999985,"midi":48,"time":28.695645,"velocity":0.7874015748031497},{"duration":0.7826084999999985,"midi":55,"time":28.695645,"velocity":0.7874015748031497},{"duration":0.13043474999999916,"midi":31,"time":28.826079749999998,"velocity":0.7874015748031497},{"duration":0.13043474999999916,"midi":36,"time":28.956514499999997,"velocity":0.7874015748031497},{"duration":0.13043474999999916,"midi":31,"time":29.086949249999996,"velocity":0.7874015748031497},{"duration":0.1304347500000027,"midi":24,"time":29.217383999999996,"velocity":0.7874015748031497},{"duration":0.13043474999999916,"midi":31,"time":29.34781875,"velocity":0.7874015748031497},{"duration":0.13043474999999916,"midi":36,"time":29.478253499999997,"velocity":0.7874015748031497},{"duration":0.13043474999999916,"midi":31,"time":29.608688249999997,"velocity":0.7874015748031497},{"duration":0.1304347500000027,"midi":24,"time":29.739122999999996,"velocity":0.7874015748031497},{"duration":0.13043474999999916,"midi":31,"time":29.86955775,"velocity":0.7874015748031497},{"duration":0.13043474999999916,"midi":36,"time":29.999992499999998,"velocity":0.7874015748031497},{"duration":0.13043474999999916,"midi":31,"time":30.130427249999997,"velocity":0.7874015748031497},{"duration":0.1304347500000027,"midi":24,"time":30.260861999999996,"velocity":0.7874015748031497},{"duration":0.13043474999999916,"midi":31,"time":30.39129675,"velocity":0.7874015748031497},{"duration":0.13043474999999916,"midi":36,"time":30.521731499999998,"velocity":0.7874015748031497},{"duration":0.13043474999999916,"midi":31,"time":30.652166249999997,"velocity":0.7874015748031497},{"duration":0.26086950000000186,"midi":26,"time":30.782600999999996,"velocity":0.7874015748031497},{"duration":0.9130432500000012,"midi":50,"time":30.782600999999996,"velocity":0.7874015748031497},{"duration":0.9130432500000012,"midi":53,"time":30.782600999999996,"velocity":0.7874015748031497},{"duration":0.2608694999999983,"midi":33,"time":31.043470499999998,"velocity":0.7874015748031497},{"duration":0.26086950000000186,"midi":38,"time":31.304339999999996,"velocity":0.7874015748031497},{"duration":0.2608694999999983,"midi":33,"time":31.565209499999998,"velocity":0.7874015748031497},{"duration":1.043478000000004,"midi":50,"time":31.826078999999996,"velocity":0.7874015748031497},{"duration":1.043478000000004,"midi":53,"time":31.826078999999996,"velocity":0.7874015748031497},{"duration":0.26086950000000186,"midi":26,"time":31.826078999999996,"velocity":0.7874015748031497},{"duration":0.2608694999999983,"midi":33,"time":32.0869485,"velocity":0.7874015748031497},{"duration":0.2608694999999983,"midi":38,"time":32.347818,"velocity":0.7874015748031497},{"duration":0.2608695000000054,"midi":33,"time":32.608687499999995,"velocity":0.7874015748031497},{"duration":1.0434779999999932,"midi":36,"time":32.869557,"velocity":0.7874015748031497},{"duration":1.0434779999999932,"midi":24,"time":32.869557,"velocity":0.7874015748031497},{"duration":1.0434779999999932,"midi":52,"time":32.869557,"velocity":0.7874015748031497},{"duration":1.0434779999999932,"midi":31,"time":32.869557,"velocity":0.7874015748031497},{"duration":0.39130425000000457,"midi":50,"time":33.913034999999994,"velocity":0.7874015748031497},{"duration":0.39130424999999747,"midi":50,"time":34.434774,"velocity":0.7874015748031497},{"duration":0.782608500000002,"midi":46,"time":34.956512999999994,"velocity":0.7874015748031497},{"duration":0.782608500000002,"midi":50,"time":34.956512999999994,"velocity":0.7874015748031497},{"duration":0.13043475000000626,"midi":22,"time":34.956512999999994,"velocity":0.7874015748031497},{"duration":0.13043474999999916,"midi":29,"time":35.08694775,"velocity":0.7874015748031497},{"duration":0.13043474999999916,"midi":34,"time":35.2173825,"velocity":0.7874015748031497},{"duration":0.13043474999999916,"midi":29,"time":35.34781725,"velocity":0.7874015748031497},{"duration":0.13043474999999916,"midi":22,"time":35.478252,"velocity":0.7874015748031497},{"duration":0.13043474999999916,"midi":29,"time":35.60868675,"velocity":0.7874015748031497},{"duration":0.13043474999999916,"midi":34,"time":35.739121499999996,"velocity":0.7874015748031497},{"duration":0.13043474999999916,"midi":29,"time":35.869556249999995,"velocity":0.7874015748031497},{"duration":0.39130425000000457,"midi":46,"time":35.999990999999994,"velocity":0.7874015748031497},{"duration":0.13043474999999916,"midi":22,"time":35.999990999999994,"velocity":0.7874015748031497},{"duration":0.13043475000000626,"midi":29,"time":36.13042574999999,"velocity":0.7874015748031497},{"duration":0.13043474999999916,"midi":34,"time":36.2608605,"velocity":0.7874015748031497},{"duration":0.13043474999999916,"midi":29,"time":36.39129525,"velocity":0.7874015748031497},{"duration":0.13043474999999916,"midi":22,"time":36.52173,"velocity":0.7874015748031497},{"duration":0.13043474999999916,"midi":29,"time":36.65216475,"velocity":0.7874015748031497},{"duration":0.13043474999999916,"midi":34,"time":36.782599499999996,"velocity":0.7874015748031497},{"duration":0.13043474999999916,"midi":29,"time":36.913034249999995,"velocity":0.7874015748031497},{"duration":1.0434780000000003,"midi":53,"time":37.043468999999995,"velocity":0.7874015748031497},{"duration":0.9130432500000012,"midi":46,"time":37.043468999999995,"velocity":0.7874015748031497},{"duration":0.13043474999999916,"midi":22,"time":37.043468999999995,"velocity":0.7874015748031497},{"duration":0.13043475000000626,"midi":29,"time":37.173903749999994,"velocity":0.7874015748031497},{"duration":0.13043474999999916,"midi":34,"time":37.3043385,"velocity":0.7874015748031497},{"duration":0.13043474999999916,"midi":29,"time":37.43477325,"velocity":0.7874015748031497},{"duration":0.13043474999999916,"midi":22,"time":37.565208,"velocity":0.7874015748031497},{"duration":0.13043474999999916,"midi":29,"time":37.69564275,"velocity":0.7874015748031497},{"duration":0.13043474999999916,"midi":34,"time":37.8260775,"velocity":0.7874015748031497},{"duration":0.13043474999999916,"midi":29,"time":37.956512249999996,"velocity":0.7874015748031497},{"duration":0.39130425000000457,"midi":46,"time":38.086946999999995,"velocity":0.7874015748031497},{"duration":0.5217390000000037,"midi":34,"time":38.086946999999995,"velocity":0.7874015748031497},{"duration":0.5217390000000037,"midi":22,"time":38.086946999999995,"velocity":0.7874015748031497},{"duration":0.5217389999999966,"midi":24,"time":38.608686,"velocity":0.7874015748031497},{"duration":0.5217389999999966,"midi":46,"time":38.608686,"velocity":0.7874015748031497},{"duration":0.5217389999999966,"midi":36,"time":38.608686,"velocity":0.7874015748031497},{"duration":0.782608500000002,"midi":50,"time":39.130424999999995,"velocity":0.7874015748031497},{"duration":0.13043474999999916,"midi":26,"time":39.130424999999995,"velocity":0.7874015748031497},{"duration":0.13043474999999916,"midi":33,"time":39.260859749999995,"velocity":0.7874015748031497},{"duration":0.13043475000000626,"midi":38,"time":39.391294499999994,"velocity":0.7874015748031497},{"duration":0.13043474999999916,"midi":33,"time":39.52172925,"velocity":0.7874015748031497},{"duration":0.13043474999999916,"midi":26,"time":39.652164,"velocity":0.7874015748031497},{"duration":0.13043474999999916,"midi":33,"time":39.78259875,"velocity":0.7874015748031497},{"duration":0.13043474999999916,"midi":38,"time":39.9130335,"velocity":0.7874015748031497},{"duration":0.13043474999999916,"midi":33,"time":40.04346825,"velocity":0.7874015748031497},{"duration":0.13043474999999916,"midi":26,"time":40.173902999999996,"velocity":0.7874015748031497},{"duration":0.13043474999999916,"midi":33,"time":40.304337749999995,"velocity":0.7874015748031497},{"duration":0.13043474999999916,"midi":38,"time":40.434772499999994,"velocity":0.7874015748031497},{"duration":0.13043475000000626,"midi":33,"time":40.56520724999999,"velocity":0.7874015748031497},{"duration":0.13043474999999916,"midi":26,"time":40.695642,"velocity":0.7874015748031497},{"duration":0.13043474999999916,"midi":33,"time":40.82607675,"velocity":0.7874015748031497},{"duration":0.13043474999999916,"midi":38,"time":40.9565115,"velocity":0.7874015748031497},{"duration":0.13043474999999916,"midi":33,"time":41.08694625,"velocity":0.7874015748031497},{"duration":1.0434780000000003,"midi":50,"time":41.217380999999996,"velocity":0.7874015748031497},{"duration":0.13043474999999916,"midi":26,"time":41.217380999999996,"velocity":0.7874015748031497},{"duration":1.0434780000000003,"midi":53,"time":41.217380999999996,"velocity":0.7874015748031497},{"duration":0.13043474999999916,"midi":33,"time":41.347815749999995,"velocity":0.7874015748031497},{"duration":0.13043474999999916,"midi":38,"time":41.478250499999994,"velocity":0.7874015748031497},{"duration":0.13043475000000626,"midi":33,"time":41.60868524999999,"velocity":0.7874015748031497},{"duration":0.13043474999999916,"midi":26,"time":41.73912,"velocity":0.7874015748031497},{"duration":0.13043474999999916,"midi":33,"time":41.86955475,"velocity":0.7874015748031497},{"duration":0.13043474999999916,"midi":38,"time":41.9999895,"velocity":0.7874015748031497},{"duration":0.13043474999999916,"midi":33,"time":42.13042425,"velocity":0.7874015748031497},{"duration":0.5217389999999966,"midi":38,"time":42.260858999999996,"velocity":0.7874015748031497},{"duration":0.5217389999999966,"midi":26,"time":42.260858999999996,"velocity":0.7874015748031497},{"duration":0.39130424999999747,"midi":55,"time":42.260858999999996,"velocity":0.7874015748031497},{"duration":0.5217390000000037,"midi":41,"time":42.78259799999999,"velocity":0.7874015748031497},{"duration":0.39130425000000457,"midi":55,"time":42.78259799999999,"velocity":0.7874015748031497},{"duration":0.5217390000000037,"midi":29,"time":42.78259799999999,"velocity":0.7874015748031497},{"duration":1.9565212500000015,"midi":34,"time":43.304337,"velocity":0.7874015748031497},{"duration":1.9565212500000015,"midi":38,"time":43.304337,"velocity":0.7874015748031497},{"duration":2.0869560000000007,"midi":31,"time":43.304337,"velocity":0.7874015748031497},{"duration":0.782608500000002,"midi":55,"time":43.304337,"velocity":0.7874015748031497},{"duration":1.9565212500000015,"midi":43,"time":43.434771749999996,"velocity":0.7874015748031497},{"duration":0.7826084999999949,"midi":48,"time":45.391293,"velocity":0.7874015748031497},{"duration":0.7826084999999949,"midi":55,"time":45.391293,"velocity":0.7874015748031497},{"duration":2.0869560000000007,"midi":33,"time":45.391293,"velocity":0.7874015748031497},{"duration":1.9565212500000015,"midi":40,"time":45.391293,"velocity":0.7874015748031497},{"duration":1.9565212500000015,"midi":36,"time":45.391293,"velocity":0.7874015748031497},{"duration":1.9565212500000015,"midi":45,"time":45.52172775,"velocity":0.7874015748031497},{"duration":1.9565212499999944,"midi":38,"time":47.478249,"velocity":0.7874015748031497},{"duration":2.0869560000000007,"midi":34,"time":47.478249,"velocity":0.7874015748031497},{"duration":0.9130432499999941,"midi":50,"time":47.478249,"velocity":0.7874015748031497},{"duration":0.9130432499999941,"midi":53,"time":47.478249,"velocity":0.7874015748031497},{"duration":1.9565212499999944,"midi":41,"time":47.478249,"velocity":0.7874015748031497},{"duration":1.9565212500000015,"midi":46,"time":47.60868375,"velocity":0.7874015748031497},{"duration":1.0434780000000003,"midi":50,"time":48.521727,"velocity":0.7874015748031497},{"duration":1.0434780000000003,"midi":53,"time":48.521727,"velocity":0.7874015748031497},{"duration":0.9130432499999941,"midi":40,"time":49.565205,"velocity":0.7874015748031497},{"duration":1.0434779999999932,"midi":36,"time":49.565205,"velocity":0.7874015748031497},{"duration":1.0434779999999932,"midi":52,"time":49.565205,"velocity":0.7874015748031497},{"duration":0.9130432499999941,"midi":43,"time":49.69563975,"velocity":0.7874015748031497},{"duration":0.7826084999999949,"midi":48,"time":49.8260745,"velocity":0.7874015748031497},{"duration":0.2608695000000054,"midi":29,"time":50.60868299999999,"velocity":0.7874015748031497},{"duration":0.2608695000000054,"midi":41,"time":50.60868299999999,"velocity":0.7874015748031497},{"duration":0.2608695000000054,"midi":50,"time":50.60868299999999,"velocity":0.7874015748031497},{"duration":0.2608694999999983,"midi":40,"time":51.130421999999996,"velocity":0.7874015748031497},{"duration":0.2608694999999983,"midi":29,"time":51.130421999999996,"velocity":0.7874015748031497},{"duration":0.2608694999999983,"midi":50,"time":51.130421999999996,"velocity":0.7874015748031497},{"duration":0.9130432500000012,"midi":41,"time":51.65216099999999,"velocity":0.7874015748031497},{"duration":0.9130432500000012,"midi":34,"time":51.65216099999999,"velocity":0.7874015748031497},{"duration":1.0434780000000003,"midi":34,"time":52.69563899999999,"velocity":0.7874015748031497},{"duration":1.0434780000000003,"midi":41,"time":52.69563899999999,"velocity":0.7874015748031497},{"duration":0.9130432500000012,"midi":36,"time":53.73911699999999,"velocity":0.7874015748031497},{"duration":0.9130432500000012,"midi":43,"time":53.73911699999999,"velocity":0.7874015748031497},{"duration":1.0434780000000003,"midi":43,"time":54.78259499999999,"velocity":0.7874015748031497},{"duration":1.0434780000000003,"midi":36,"time":54.78259499999999,"velocity":0.7874015748031497},{"duration":0.9130432500000012,"midi":33,"time":55.826072999999994,"velocity":0.7874015748031497},{"duration":0.9130432500000012,"midi":38,"time":55.826072999999994,"velocity":0.7874015748031497},{"duration":1.0434780000000003,"midi":38,"time":56.869550999999994,"velocity":0.7874015748031497},{"duration":0.9130432500000012,"midi":33,"time":56.869550999999994,"velocity":0.7874015748031497},{"duration":0.9130432500000012,"midi":33,"time":57.913028999999995,"velocity":0.7874015748031497},{"duration":0.9130432500000012,"midi":40,"time":57.913028999999995,"velocity":0.7874015748031497},{"duration":1.0434780000000003,"midi":40,"time":58.956506999999995,"velocity":0.7874015748031497},{"duration":1.0434780000000003,"midi":33,"time":58.956506999999995,"velocity":0.7874015748031497},{"duration":0.9130432500000012,"midi":34,"time":59.999984999999995,"velocity":0.7874015748031497},{"duration":0.9130432500000012,"midi":41,"time":59.999984999999995,"velocity":0.7874015748031497},{"duration":1.0434780000000003,"midi":41,"time":61.043462999999996,"velocity":0.7874015748031497},{"duration":1.0434780000000003,"midi":34,"time":61.043462999999996,"velocity":0.7874015748031497},{"duration":0.9130432500000012,"midi":43,"time":62.086940999999996,"velocity":0.7874015748031497},{"duration":0.9130432500000012,"midi":36,"time":62.086940999999996,"velocity":0.7874015748031497},{"duration":1.0434780000000003,"midi":36,"time":63.130418999999996,"velocity":0.7874015748031497},{"duration":1.0434780000000003,"midi":43,"time":63.130418999999996,"velocity":0.7874015748031497},{"duration":0.9130432500000012,"midi":33,"time":64.173897,"velocity":0.7874015748031497},{"duration":0.9130432500000012,"midi":38,"time":64.173897,"velocity":0.7874015748031497},{"duration":1.0434780000000075,"midi":38,"time":65.21737499999999,"velocity":0.7874015748031497},{"duration":0.9130432500000012,"midi":33,"time":65.21737499999999,"velocity":0.7874015748031497},{"duration":0.9130432500000012,"midi":33,"time":66.260853,"velocity":0.7874015748031497},{"duration":0.9130432500000012,"midi":40,"time":66.260853,"velocity":0.7874015748031497},{"duration":1.0434780000000075,"midi":40,"time":67.30433099999999,"velocity":0.7874015748031497},{"duration":1.0434780000000075,"midi":33,"time":67.30433099999999,"velocity":0.7874015748031497},{"duration":0.39130424999999036,"midi":34,"time":68.347809,"velocity":0.7874015748031497},{"duration":0.39130424999999036,"midi":41,"time":68.347809,"velocity":0.7874015748031497},{"duration":0.2608694999999983,"midi":34,"time":68.869548,"velocity":0.7874015748031497},{"duration":0.2608694999999983,"midi":41,"time":68.869548,"velocity":0.7874015748031497},{"duration":0.13043474999999205,"midi":41,"time":69.26085225,"velocity":0.7874015748031497},{"duration":0.13043474999999205,"midi":34,"time":69.26085225,"velocity":0.7874015748031497},{"duration":0.5217390000000108,"midi":34,"time":69.91302599999999,"velocity":0.7874015748031497},{"duration":0.5217390000000108,"midi":41,"time":69.91302599999999,"velocity":0.7874015748031497},{"duration":0.39130424999999036,"midi":36,"time":70.434765,"velocity":0.7874015748031497},{"duration":0.39130424999999036,"midi":43,"time":70.434765,"velocity":0.7874015748031497},{"duration":0.2608694999999983,"midi":43,"time":70.956504,"velocity":0.7874015748031497},{"duration":0.2608694999999983,"midi":36,"time":70.956504,"velocity":0.7874015748031497},{"duration":0.13043474999999205,"midi":36,"time":71.34780825,"velocity":0.7874015748031497},{"duration":0.13043474999999205,"midi":43,"time":71.34780825,"velocity":0.7874015748031497},{"duration":0.5217390000000108,"midi":43,"time":71.99998199999999,"velocity":0.7874015748031497},{"duration":0.5217390000000108,"midi":36,"time":71.99998199999999,"velocity":0.7874015748031497},{"duration":0.39130424999999036,"midi":33,"time":72.521721,"velocity":0.7874015748031497},{"duration":0.39130424999999036,"midi":38,"time":72.521721,"velocity":0.7874015748031497},{"duration":0.2608694999999983,"midi":38,"time":73.04346,"velocity":0.7874015748031497},{"duration":0.2608694999999983,"midi":33,"time":73.04346,"velocity":0.7874015748031497},{"duration":0.13043475000000626,"midi":33,"time":73.43476424999999,"velocity":0.7874015748031497},{"duration":0.13043475000000626,"midi":38,"time":73.43476424999999,"velocity":0.7874015748031497},{"duration":0.5217390000000108,"midi":38,"time":74.08693799999999,"velocity":0.7874015748031497},{"duration":0.39130425000000457,"midi":33,"time":74.08693799999999,"velocity":0.7874015748031497},{"duration":0.913043249999987,"midi":33,"time":74.608677,"velocity":0.7874015748031497},{"duration":0.913043249999987,"midi":40,"time":74.608677,"velocity":0.7874015748031497},{"duration":1.0434779999999932,"midi":33,"time":75.652155,"velocity":0.7874015748031497},{"duration":1.0434779999999932,"midi":40,"time":75.652155,"velocity":0.7874015748031497},{"duration":0.39130425000000457,"midi":34,"time":76.69563299999999,"velocity":0.7874015748031497},{"duration":0.39130425000000457,"midi":41,"time":76.69563299999999,"velocity":0.7874015748031497},{"duration":0.2608694999999983,"midi":34,"time":77.217372,"velocity":0.7874015748031497},{"duration":0.2608694999999983,"midi":41,"time":77.217372,"velocity":0.7874015748031497},{"duration":0.13043475000000626,"midi":41,"time":77.60867624999999,"velocity":0.7874015748031497},{"duration":0.13043475000000626,"midi":34,"time":77.60867624999999,"velocity":0.7874015748031497},{"duration":0.5217389999999966,"midi":34,"time":78.26084999999999,"velocity":0.7874015748031497},{"duration":0.5217389999999966,"midi":41,"time":78.26084999999999,"velocity":0.7874015748031497},{"duration":0.39130425000000457,"midi":43,"time":78.78258899999999,"velocity":0.7874015748031497},{"duration":0.39130425000000457,"midi":36,"time":78.78258899999999,"velocity":0.7874015748031497},{"duration":0.2608694999999983,"midi":36,"time":79.304328,"velocity":0.7874015748031497},{"duration":0.2608694999999983,"midi":43,"time":79.304328,"velocity":0.7874015748031497},{"duration":0.2608694999999983,"midi":36,"time":79.69563224999999,"velocity":0.7874015748031497},{"duration":0.2608694999999983,"midi":43,"time":79.69563224999999,"velocity":0.7874015748031497},{"duration":0.5217389999999966,"midi":43,"time":80.34780599999999,"velocity":0.7874015748031497},{"duration":0.5217389999999966,"midi":36,"time":80.34780599999999,"velocity":0.7874015748031497},{"duration":0.39130425000000457,"midi":38,"time":80.86954499999999,"velocity":0.7874015748031497},{"duration":0.39130425000000457,"midi":33,"time":80.86954499999999,"velocity":0.7874015748031497},{"duration":0.2608694999999983,"midi":33,"time":81.391284,"velocity":0.7874015748031497},{"duration":0.2608694999999983,"midi":38,"time":81.391284,"velocity":0.7874015748031497},{"duration":0.13043475000000626,"midi":38,"time":81.78258824999999,"velocity":0.7874015748031497},{"duration":0.13043475000000626,"midi":33,"time":81.78258824999999,"velocity":0.7874015748031497},{"duration":0.39130425000000457,"midi":33,"time":82.43476199999999,"velocity":0.7874015748031497},{"duration":0.5217389999999966,"midi":38,"time":82.43476199999999,"velocity":0.7874015748031497},{"duration":0.9130432500000012,"midi":33,"time":82.95650099999999,"velocity":0.7874015748031497},{"duration":0.9130432500000012,"midi":40,"time":82.95650099999999,"velocity":0.7874015748031497},{"duration":1.0434779999999932,"midi":33,"time":83.999979,"velocity":0.7874015748031497},{"duration":1.0434779999999932,"midi":40,"time":83.999979,"velocity":0.7874015748031497},{"duration":0.39130425000000457,"midi":41,"time":85.04345699999999,"velocity":0.7874015748031497},{"duration":0.39130425000000457,"midi":34,"time":85.04345699999999,"velocity":0.7874015748031497},{"duration":0.2608695000000125,"midi":34,"time":85.56519599999999,"velocity":0.7874015748031497},{"duration":0.2608695000000125,"midi":41,"time":85.56519599999999,"velocity":0.7874015748031497},{"duration":0.13043475000000626,"midi":41,"time":85.95650024999999,"velocity":0.7874015748031497},{"duration":0.13043475000000626,"midi":34,"time":85.95650024999999,"velocity":0.7874015748031497},{"duration":0.5217389999999966,"midi":41,"time":86.608674,"velocity":0.7874015748031497},{"duration":0.5217389999999966,"midi":34,"time":86.608674,"velocity":0.7874015748031497},{"duration":0.39130425000000457,"midi":43,"time":87.13041299999999,"velocity":0.7874015748031497},{"duration":0.39130425000000457,"midi":36,"time":87.13041299999999,"velocity":0.7874015748031497},{"duration":0.2608694999999983,"midi":43,"time":87.65215199999999,"velocity":0.7874015748031497},{"duration":0.2608694999999983,"midi":36,"time":87.65215199999999,"velocity":0.7874015748031497},{"duration":0.13043475000000626,"midi":36,"time":88.04345624999999,"velocity":0.7874015748031497},{"duration":0.13043475000000626,"midi":43,"time":88.04345624999999,"velocity":0.7874015748031497},{"duration":0.5217389999999966,"midi":36,"time":88.69563,"velocity":0.7874015748031497},{"duration":0.5217389999999966,"midi":43,"time":88.69563,"velocity":0.7874015748031497},{"duration":0.39130425000000457,"midi":33,"time":89.21736899999999,"velocity":0.7874015748031497},{"duration":0.39130425000000457,"midi":38,"time":89.21736899999999,"velocity":0.7874015748031497},{"duration":0.2608694999999983,"midi":33,"time":89.73910799999999,"velocity":0.7874015748031497},{"duration":0.2608694999999983,"midi":38,"time":89.73910799999999,"velocity":0.7874015748031497},{"duration":0.13043475000000626,"midi":38,"time":90.13041224999999,"velocity":0.7874015748031497},{"duration":0.13043475000000626,"midi":33,"time":90.13041224999999,"velocity":0.7874015748031497},{"duration":0.39130424999999036,"midi":33,"time":90.782586,"velocity":0.7874015748031497},{"duration":0.5217389999999966,"midi":38,"time":90.782586,"velocity":0.7874015748031497},{"duration":0.9130432500000012,"midi":33,"time":91.30432499999999,"velocity":0.7874015748031497},{"duration":0.9130432500000012,"midi":40,"time":91.30432499999999,"velocity":0.7874015748031497},{"duration":1.0434780000000075,"midi":40,"time":92.34780299999998,"velocity":0.7874015748031497},{"duration":1.0434780000000075,"midi":33,"time":92.34780299999998,"velocity":0.7874015748031497},{"duration":0.39130425000000457,"midi":34,"time":93.39128099999999,"velocity":0.7874015748031497},{"duration":0.39130425000000457,"midi":41,"time":93.39128099999999,"velocity":0.7874015748031497},{"duration":0.2608694999999983,"midi":34,"time":93.91301999999999,"velocity":0.7874015748031497},{"duration":0.2608694999999983,"midi":41,"time":93.91301999999999,"velocity":0.7874015748031497},{"duration":0.13043474999999205,"midi":41,"time":94.30432425,"velocity":0.7874015748031497},{"duration":0.13043474999999205,"midi":34,"time":94.30432425,"velocity":0.7874015748031497},{"duration":0.5217389999999966,"midi":41,"time":94.956498,"velocity":0.7874015748031497},{"duration":0.5217389999999966,"midi":34,"time":94.956498,"velocity":0.7874015748031497},{"duration":0.39130425000000457,"midi":36,"time":95.478237,"velocity":0.7874015748031497},{"duration":0.39130425000000457,"midi":43,"time":95.478237,"velocity":0.7874015748031497},{"duration":0.2608694999999983,"midi":43,"time":95.99997599999999,"velocity":0.7874015748031497},{"duration":0.2608694999999983,"midi":36,"time":95.99997599999999,"velocity":0.7874015748031497},{"duration":0.2608694999999983,"midi":43,"time":96.39128025,"velocity":0.7874015748031497},{"duration":0.2608694999999983,"midi":36,"time":96.39128025,"velocity":0.7874015748031497},{"duration":0.5217389999999966,"midi":43,"time":97.043454,"velocity":0.7874015748031497},{"duration":0.5217389999999966,"midi":36,"time":97.043454,"velocity":0.7874015748031497},{"duration":0.39130425000000457,"midi":38,"time":97.565193,"velocity":0.7874015748031497},{"duration":0.39130425000000457,"midi":33,"time":97.565193,"velocity":0.7874015748031497},{"duration":0.2608694999999983,"midi":33,"time":98.08693199999999,"velocity":0.7874015748031497},{"duration":0.2608694999999983,"midi":38,"time":98.08693199999999,"velocity":0.7874015748031497},{"duration":0.13043474999999205,"midi":33,"time":98.47823625,"velocity":0.7874015748031497},{"duration":0.13043474999999205,"midi":38,"time":98.47823625,"velocity":0.7874015748031497},{"duration":0.5217389999999966,"midi":38,"time":99.13041,"velocity":0.7874015748031497},{"duration":0.39130424999999036,"midi":33,"time":99.13041,"velocity":0.7874015748031497},{"duration":0.2608694999999983,"midi":33,"time":99.652149,"velocity":0.7874015748031497},{"duration":0.2608694999999983,"midi":37,"time":99.91301849999999,"velocity":0.7874015748031497},{"duration":0.2608694999999983,"midi":40,"time":100.17388799999999,"velocity":0.7874015748031497},{"duration":0.2608694999999983,"midi":45,"time":100.43475749999999,"velocity":0.7874015748031497},{"duration":0.5217389999999966,"midi":49,"time":100.69562699999999,"velocity":0.7874015748031497},{"duration":0.5217390000000108,"midi":37,"time":101.21736599999998,"velocity":0.7874015748031497},{"duration":0.39130424999999036,"midi":34,"time":101.739105,"velocity":0.7874015748031497},{"duration":1.5652169999999899,"midi":53,"time":101.739105,"velocity":0.7874015748031497},{"duration":0.39130425000000457,"midi":38,"time":102.13040924999999,"velocity":0.7874015748031497},{"duration":0.2608694999999983,"midi":41,"time":102.52171349999999,"velocity":0.7874015748031497},{"duration":1.0434780000000075,"midi":46,"time":102.78258299999999,"velocity":0.7874015748031497},{"duration":0.7826084999999949,"midi":55,"time":103.826061,"velocity":0.7874015748031497},{"duration":0.39130424999999036,"midi":36,"time":103.826061,"velocity":0.7874015748031497},{"duration":0.39130425000000457,"midi":40,"time":104.21736524999999,"velocity":0.7874015748031497},{"duration":0.2608694999999983,"midi":43,"time":104.60866949999999,"velocity":0.7874015748031497},{"duration":1.0434780000000075,"midi":48,"time":104.86953899999999,"velocity":0.7874015748031497},{"duration":0.39130424999999036,"midi":26,"time":105.913017,"velocity":0.7874015748031497},{"duration":1.0434779999999932,"midi":53,"time":105.913017,"velocity":0.7874015748031497},{"duration":0.39130425000000457,"midi":33,"time":106.30432124999999,"velocity":0.7874015748031497},{"duration":0.2608694999999983,"midi":38,"time":106.69562549999999,"velocity":0.7874015748031497},{"duration":1.0434780000000075,"midi":41,"time":106.95649499999999,"velocity":0.7874015748031497},{"duration":1.0434779999999932,"midi":55,"time":107.999973,"velocity":0.7874015748031497},{"duration":0.39130424999999036,"midi":36,"time":107.999973,"velocity":0.7874015748031497},{"duration":0.39130425000000457,"midi":40,"time":108.39127724999999,"velocity":0.7874015748031497},{"duration":0.2608694999999983,"midi":43,"time":108.78258149999999,"velocity":0.7874015748031497},{"duration":0.39130425000000457,"midi":38,"time":109.04345099999999,"velocity":0.7874015748031497},{"duration":0.39130425000000457,"midi":53,"time":109.04345099999999,"velocity":0.7874015748031497},{"duration":0.39130425000000457,"midi":57,"time":109.04345099999999,"velocity":0.7874015748031497},{"duration":0.39130425000000457,"midi":26,"time":109.04345099999999,"velocity":0.7874015748031497},{"duration":0.39130424999999036,"midi":60,"time":109.43475525,"velocity":0.7874015748031497},{"duration":0.39130424999999036,"midi":55,"time":109.43475525,"velocity":0.7874015748031497},{"duration":0.39130424999999036,"midi":41,"time":109.43475525,"velocity":0.7874015748031497},{"duration":0.39130424999999036,"midi":29,"time":109.43475525,"velocity":0.7874015748031497},{"duration":0.2608694999999983,"midi":53,"time":109.82605949999999,"velocity":0.7874015748031497},{"duration":0.2608694999999983,"midi":43,"time":109.82605949999999,"velocity":0.7874015748031497},{"duration":0.13043475000000626,"midi":62,"time":109.82605949999999,"velocity":0.7874015748031497},{"duration":0.2608694999999983,"midi":31,"time":109.82605949999999,"velocity":0.7874015748031497},{"duration":1.565217000000004,"midi":57,"time":110.08692899999998,"velocity":0.7874015748031497},{"duration":0.13043475000000626,"midi":22,"time":110.08692899999998,"velocity":0.7874015748031497},{"duration":1.565217000000004,"midi":62,"time":110.08692899999998,"velocity":0.7874015748031497},{"duration":0.13043475000000626,"midi":29,"time":110.21736374999999,"velocity":0.7874015748031497},{"duration":0.13043474999999205,"midi":34,"time":110.3477985,"velocity":0.7874015748031497},{"duration":0.13043475000000626,"midi":29,"time":110.47823324999999,"velocity":0.7874015748031497},{"duration":0.13043474999999205,"midi":22,"time":110.608668,"velocity":0.7874015748031497},{"duration":0.13043475000000626,"midi":29,"time":110.73910274999999,"velocity":0.7874015748031497},{"duration":0.13043474999999205,"midi":34,"time":110.86953749999999,"velocity":0.7874015748031497},{"duration":0.13043475000000626,"midi":29,"time":110.99997224999998,"velocity":0.7874015748031497},{"duration":0.13043474999999205,"midi":22,"time":111.13040699999999,"velocity":0.7874015748031497},{"duration":0.13043475000000626,"midi":29,"time":111.26084174999998,"velocity":0.7874015748031497},{"duration":0.13043475000000626,"midi":34,"time":111.39127649999999,"velocity":0.7874015748031497},{"duration":0.13043474999999205,"midi":29,"time":111.52171125,"velocity":0.7874015748031497},{"duration":0.13043475000000626,"midi":22,"time":111.65214599999999,"velocity":0.7874015748031497},{"duration":0.13043475000000626,"midi":60,"time":111.65214599999999,"velocity":0.7874015748031497},{"duration":0.13043474999999205,"midi":29,"time":111.78258075,"velocity":0.7874015748031497},{"duration":0.13043475000000626,"midi":34,"time":111.91301549999999,"velocity":0.7874015748031497},{"duration":0.13043475000000626,"midi":60,"time":111.91301549999999,"velocity":0.7874015748031497},{"duration":0.13043474999999205,"midi":29,"time":112.04345024999999,"velocity":0.7874015748031497},{"duration":0.7826085000000091,"midi":60,"time":112.17388499999998,"velocity":0.7874015748031497},{"duration":0.13043475000000626,"midi":24,"time":112.17388499999998,"velocity":0.7874015748031497},{"duration":0.7826085000000091,"midi":64,"time":112.17388499999998,"velocity":0.7874015748031497},{"duration":0.13043475000000626,"midi":31,"time":112.30431974999999,"velocity":0.7874015748031497},{"duration":0.13043474999999205,"midi":36,"time":112.4347545,"velocity":0.7874015748031497},{"duration":0.13043475000000626,"midi":31,"time":112.56518924999999,"velocity":0.7874015748031497},{"duration":0.13043474999999205,"midi":24,"time":112.695624,"velocity":0.7874015748031497},{"duration":0.13043475000000626,"midi":31,"time":112.82605874999999,"velocity":0.7874015748031497},{"duration":0.13043474999999205,"midi":36,"time":112.9564935,"velocity":0.7874015748031497},{"duration":0.13043475000000626,"midi":31,"time":113.08692824999999,"velocity":0.7874015748031497},{"duration":0.13043474999999205,"midi":24,"time":113.21736299999999,"velocity":0.7874015748031497},{"duration":0.2608694999999983,"midi":60,"time":113.21736299999999,"velocity":0.7874015748031497},{"duration":0.13043475000000626,"midi":31,"time":113.34779774999998,"velocity":0.7874015748031497},{"duration":0.13043475000000626,"midi":36,"time":113.47823249999999,"velocity":0.7874015748031497},{"duration":0.2608694999999983,"midi":60,"time":113.60866725,"velocity":0.7874015748031497},{"duration":0.13043474999999205,"midi":31,"time":113.60866725,"velocity":0.7874015748031497},{"duration":0.13043475000000626,"midi":24,"time":113.73910199999999,"velocity":0.7874015748031497},{"duration":0.13043474999999205,"midi":31,"time":113.86953675,"velocity":0.7874015748031497},{"duration":0.13043475000000626,"midi":36,"time":113.99997149999999,"velocity":0.7874015748031497},{"duration":0.13043475000000626,"midi":60,"time":113.99997149999999,"velocity":0.7874015748031497},{"duration":0.13043474999999205,"midi":31,"time":114.13040625,"velocity":0.7874015748031497},{"duration":0.13043475000000626,"midi":26,"time":114.26084099999999,"velocity":0.7874015748031497},{"duration":1.565217000000004,"midi":53,"time":114.26084099999999,"velocity":0.7874015748031497},{"duration":1.565217000000004,"midi":57,"time":114.26084099999999,"velocity":0.7874015748031497},{"duration":0.13043474999999205,"midi":33,"time":114.39127574999999,"velocity":0.7874015748031497},{"duration":0.13043475000000626,"midi":38,"time":114.52171049999998,"velocity":0.7874015748031497},{"duration":0.13043475000000626,"midi":33,"time":114.65214524999999,"velocity":0.7874015748031497},{"duration":0.13043474999999205,"midi":26,"time":114.78258,"velocity":0.7874015748031497},{"duration":0.13043475000000626,"midi":33,"time":114.91301474999999,"velocity":0.7874015748031497},{"duration":0.13043474999999205,"midi":38,"time":115.0434495,"velocity":0.7874015748031497},{"duration":0.13043475000000626,"midi":33,"time":115.17388424999999,"velocity":0.7874015748031497},{"duration":0.13043474999999205,"midi":26,"time":115.30431899999999,"velocity":0.7874015748031497},{"duration":0.13043475000000626,"midi":33,"time":115.43475374999998,"velocity":0.7874015748031497},{"duration":0.13043474999999205,"midi":38,"time":115.56518849999999,"velocity":0.7874015748031497},{"duration":0.13043475000000626,"midi":33,"time":115.69562324999998,"velocity":0.7874015748031497},{"duration":0.13043475000000626,"midi":62,"time":115.82605799999999,"velocity":0.7874015748031497},{"duration":0.13043475000000626,"midi":26,"time":115.82605799999999,"velocity":0.7874015748031497},{"duration":0.13043474999999205,"midi":33,"time":115.95649275,"velocity":0.7874015748031497},{"duration":0.13043475000000626,"midi":38,"time":116.08692749999999,"velocity":0.7874015748031497},{"duration":0.13043475000000626,"midi":62,"time":116.08692749999999,"velocity":0.7874015748031497},{"duration":0.13043474999999205,"midi":33,"time":116.21736225,"velocity":0.7874015748031497},{"duration":0.7826085000000091,"midi":64,"time":116.34779699999999,"velocity":0.7874015748031497},{"duration":0.7826085000000091,"midi":60,"time":116.34779699999999,"velocity":0.7874015748031497},{"duration":0.13043475000000626,"midi":24,"time":116.34779699999999,"velocity":0.7874015748031497},{"duration":0.13043474999999205,"midi":31,"time":116.47823174999999,"velocity":0.7874015748031497},{"duration":0.13043475000000626,"midi":36,"time":116.60866649999998,"velocity":0.7874015748031497},{"duration":0.13043474999999205,"midi":31,"time":116.73910124999999,"velocity":0.7874015748031497},{"duration":0.13043475000000626,"midi":24,"time":116.86953599999998,"velocity":0.7874015748031497},{"duration":0.13043475000000626,"midi":31,"time":116.99997074999999,"velocity":0.7874015748031497},{"duration":0.13043474999999205,"midi":36,"time":117.1304055,"velocity":0.7874015748031497},{"duration":0.13043475000000626,"midi":31,"time":117.26084024999999,"velocity":0.7874015748031497},{"duration":0.13043474999999205,"midi":24,"time":117.391275,"velocity":0.7874015748031497},{"duration":0.2608694999999983,"midi":60,"time":117.391275,"velocity":0.7874015748031497},{"duration":0.13043475000000626,"midi":31,"time":117.52170974999999,"velocity":0.7874015748031497},{"duration":0.13043474999999205,"midi":36,"time":117.65214449999999,"velocity":0.7874015748031497},{"duration":0.13043475000000626,"midi":31,"time":117.78257924999998,"velocity":0.7874015748031497},{"duration":0.39130425000000457,"midi":60,"time":117.78257924999998,"velocity":0.7874015748031497},{"duration":0.13043475000000626,"midi":24,"time":117.91301399999999,"velocity":0.7874015748031497},{"duration":0.13043474999999205,"midi":31,"time":118.04344875,"velocity":0.7874015748031497},{"duration":0.13043475000000626,"midi":36,"time":118.17388349999999,"velocity":0.7874015748031497},{"duration":0.13043474999999205,"midi":31,"time":118.30431825,"velocity":0.7874015748031497},{"duration":0.13043475000000626,"midi":22,"time":118.43475299999999,"velocity":0.7874015748031497},{"duration":1.565217000000004,"midi":62,"time":118.43475299999999,"velocity":0.7874015748031497},{"duration":1.4347822499999978,"midi":57,"time":118.43475299999999,"velocity":0.7874015748031497},{"duration":0.13043474999999205,"midi":29,"time":118.56518774999999,"velocity":0.7874015748031497},{"duration":0.13043475000000626,"midi":34,"time":118.69562249999998,"velocity":0.7874015748031497},{"duration":0.13043474999999205,"midi":29,"time":118.82605724999999,"velocity":0.7874015748031497},{"duration":0.13043475000000626,"midi":22,"time":118.95649199999998,"velocity":0.7874015748031497},{"duration":0.13043475000000626,"midi":29,"time":119.08692674999999,"velocity":0.7874015748031497},{"duration":0.13043474999999205,"midi":34,"time":119.2173615,"velocity":0.7874015748031497},{"duration":0.13043475000000626,"midi":29,"time":119.34779624999999,"velocity":0.7874015748031497},{"duration":0.13043474999999205,"midi":22,"time":119.478231,"velocity":0.7874015748031497},{"duration":0.13043475000000626,"midi":29,"time":119.60866574999999,"velocity":0.7874015748031497},{"duration":0.13043474999999205,"midi":34,"time":119.73910049999999,"velocity":0.7874015748031497},{"duration":0.13043475000000626,"midi":29,"time":119.86953524999998,"velocity":0.7874015748031497},{"duration":0.13043474999999205,"midi":58,"time":119.99996999999999,"velocity":0.7874015748031497},{"duration":0.13043474999999205,"midi":22,"time":119.99996999999999,"velocity":0.7874015748031497},{"duration":0.13043475000000626,"midi":29,"time":120.13040474999998,"velocity":0.7874015748031497},{"duration":0.13043475000000626,"midi":34,"time":120.26083949999999,"velocity":0.7874015748031497},{"duration":0.13043475000000626,"midi":58,"time":120.26083949999999,"velocity":0.7874015748031497},{"duration":0.13043474999999205,"midi":29,"time":120.39127425,"velocity":0.7874015748031497},{"duration":0.7826084999999949,"midi":64,"time":120.52170899999999,"velocity":0.7874015748031497},{"duration":0.13043475000000626,"midi":24,"time":120.52170899999999,"velocity":0.7874015748031497},{"duration":0.7826084999999949,"midi":60,"time":120.52170899999999,"velocity":0.7874015748031497},{"duration":0.13043474999999205,"midi":31,"time":120.65214375,"velocity":0.7874015748031497},{"duration":0.13043475000000626,"midi":36,"time":120.78257849999999,"velocity":0.7874015748031497},{"duration":0.13043474999999205,"midi":31,"time":120.91301324999999,"velocity":0.7874015748031497},{"duration":0.13043475000000626,"midi":24,"time":121.04344799999998,"velocity":0.7874015748031497},{"duration":0.13043474999999205,"midi":31,"time":121.17388274999999,"velocity":0.7874015748031497},{"duration":0.13043475000000626,"midi":36,"time":121.30431749999998,"velocity":0.7874015748031497},{"duration":0.13043475000000626,"midi":31,"time":121.43475224999999,"velocity":0.7874015748031497},{"duration":0.13043474999999205,"midi":24,"time":121.565187,"velocity":0.7874015748031497},{"duration":0.2608694999999983,"midi":60,"time":121.565187,"velocity":0.7874015748031497},{"duration":0.13043475000000626,"midi":31,"time":121.69562174999999,"velocity":0.7874015748031497},{"duration":0.13043474999999205,"midi":36,"time":121.82605649999999,"velocity":0.7874015748031497},{"duration":0.39130425000000457,"midi":60,"time":121.95649124999998,"velocity":0.7874015748031497},{"duration":0.13043475000000626,"midi":31,"time":121.95649124999998,"velocity":0.7874015748031497},{"duration":0.13043474999999205,"midi":24,"time":122.08692599999999,"velocity":0.7874015748031497},{"duration":0.13043475000000626,"midi":31,"time":122.21736074999998,"velocity":0.7874015748031497},{"duration":0.13043475000000626,"midi":36,"time":122.34779549999999,"velocity":0.7874015748031497},{"duration":0.13043474999999205,"midi":31,"time":122.47823025,"velocity":0.7874015748031497},{"duration":0.13043475000000626,"midi":26,"time":122.60866499999999,"velocity":0.7874015748031497},{"duration":2.0869560000000007,"midi":53,"time":122.60866499999999,"velocity":0.7874015748031497},{"duration":2.0869560000000007,"midi":57,"time":122.60866499999999,"velocity":0.7874015748031497},{"duration":0.13043474999999205,"midi":33,"time":122.73909975,"velocity":0.7874015748031497},{"duration":0.13043475000000626,"midi":38,"time":122.86953449999999,"velocity":0.7874015748031497},{"duration":0.13043474999999205,"midi":33,"time":122.99996924999999,"velocity":0.7874015748031497},{"duration":0.13043475000000626,"midi":26,"time":123.13040399999998,"velocity":0.7874015748031497},{"duration":0.13043474999999205,"midi":33,"time":123.26083874999999,"velocity":0.7874015748031497},{"duration":0.13043475000000626,"midi":38,"time":123.39127349999998,"velocity":0.7874015748031497},{"duration":0.13043475000000626,"midi":33,"time":123.52170824999999,"velocity":0.7874015748031497},{"duration":0.2608694999999983,"midi":26,"time":123.652143,"velocity":0.7874015748031497},{"duration":0.2608694999999983,"midi":33,"time":123.9130125,"velocity":0.7874015748031497},{"duration":0.2608694999999983,"midi":38,"time":124.17388199999999,"velocity":0.7874015748031497},{"duration":0.2608694999999983,"midi":41,"time":124.43475149999999,"velocity":0.7874015748031497},{"duration":1.0434779999999932,"midi":43,"time":124.69562099999999,"velocity":0.7874015748031497},{"duration":1.0434779999999932,"midi":36,"time":124.69562099999999,"velocity":0.7874015748031497},{"duration":0.9130432500000012,"midi":40,"time":124.69562099999999,"velocity":0.7874015748031497},{"duration":1.0434780000000075,"midi":40,"time":125.73909899999998,"velocity":0.7874015748031497},{"duration":1.0434780000000075,"midi":45,"time":125.73909899999998,"velocity":0.7874015748031497},{"duration":1.0434780000000075,"midi":37,"time":125.73909899999998,"velocity":0.7874015748031497},{"duration":1.0434779999999932,"midi":38,"time":126.78257699999999,"velocity":0.7874015748031497},{"duration":1.0434780000000075,"midi":31,"time":127.82605499999998,"velocity":0.7874015748031497},{"duration":0.5217389999999966,"midi":34,"time":128.869533,"velocity":0.7874015748031497},{"duration":0.5217389999999966,"midi":36,"time":129.391272,"velocity":0.7874015748031497},{"duration":0.9130432500000154,"midi":38,"time":129.91301099999998,"velocity":0.7874015748031497},{"duration":1.0434780000000217,"midi":38,"time":130.95648899999998,"velocity":0.7874015748031497},{"duration":1.0434779999999932,"midi":31,"time":131.999967,"velocity":0.7874015748031497},{"duration":0.5217389999999966,"midi":34,"time":133.043445,"velocity":0.7874015748031497},{"duration":0.5217389999999966,"midi":33,"time":133.565184,"velocity":0.7874015748031497},{"duration":0.9130432500000154,"midi":26,"time":134.08692299999998,"velocity":0.7874015748031497},{"duration":0.2608695000000125,"midi":26,"time":135.13040099999998,"velocity":0.7874015748031497},{"duration":0.2608694999999841,"midi":33,"time":135.3912705,"velocity":0.7874015748031497},{"duration":0.2608695000000125,"midi":38,"time":135.65213999999997,"velocity":0.7874015748031497},{"duration":0.2608695000000125,"midi":45,"time":135.9130095,"velocity":0.7874015748031497},{"duration":0.2608694999999841,"midi":31,"time":136.173879,"velocity":0.7874015748031497},{"duration":0.2608695000000125,"midi":35,"time":136.43474849999998,"velocity":0.7874015748031497},{"duration":0.2608694999999841,"midi":38,"time":136.695618,"velocity":0.7874015748031497},{"duration":0.2608695000000125,"midi":43,"time":136.95648749999998,"velocity":0.7874015748031497},{"duration":0.2608694999999841,"midi":34,"time":137.217357,"velocity":0.7874015748031497},{"duration":0.2608695000000125,"midi":36,"time":137.47822649999998,"velocity":0.7874015748031497},{"duration":0.2608694999999841,"midi":33,"time":137.739096,"velocity":0.7874015748031497},{"duration":0.2608695000000125,"midi":40,"time":137.99996549999997,"velocity":0.7874015748031497},{"duration":0.2608695000000125,"midi":38,"time":138.260835,"velocity":0.7874015748031497},{"duration":0.2608694999999841,"midi":33,"time":138.5217045,"velocity":0.7874015748031497},{"duration":0.2608695000000125,"midi":29,"time":138.78257399999998,"velocity":0.7874015748031497},{"duration":0.13043475000000626,"midi":26,"time":139.0434435,"velocity":0.7874015748031497},{"duration":0.2608695000000125,"midi":26,"time":139.30431299999998,"velocity":0.7874015748031497},{"duration":0.2608694999999841,"midi":33,"time":139.5651825,"velocity":0.7874015748031497},{"duration":0.2608695000000125,"midi":38,"time":139.82605199999998,"velocity":0.7874015748031497},{"duration":0.2608695000000125,"midi":45,"time":140.0869215,"velocity":0.7874015748031497},{"duration":0.2608694999999841,"midi":31,"time":140.347791,"velocity":0.7874015748031497},{"duration":0.2608695000000125,"midi":35,"time":140.60866049999998,"velocity":0.7874015748031497},{"duration":0.2608694999999841,"midi":38,"time":140.86953,"velocity":0.7874015748031497},{"duration":0.2608695000000125,"midi":43,"time":141.13039949999998,"velocity":0.7874015748031497},{"duration":0.2608694999999841,"midi":34,"time":141.391269,"velocity":0.7874015748031497},{"duration":0.2608695000000125,"midi":36,"time":141.65213849999998,"velocity":0.7874015748031497},{"duration":0.2608694999999841,"midi":33,"time":141.913008,"velocity":0.7874015748031497},{"duration":0.2608695000000125,"midi":40,"time":142.17387749999997,"velocity":0.7874015748031497},{"duration":0.2608695000000125,"midi":38,"time":142.434747,"velocity":0.7874015748031497},{"duration":0.2608694999999841,"midi":33,"time":142.6956165,"velocity":0.7874015748031497},{"duration":0.2608695000000125,"midi":29,"time":142.95648599999998,"velocity":0.7874015748031497},{"duration":0.2608694999999841,"midi":38,"time":143.2173555,"velocity":0.7874015748031497},{"duration":0.13043475000000626,"midi":34,"time":143.47822499999998,"velocity":0.7874015748031497},{"duration":0.2608694999999841,"midi":34,"time":143.7390945,"velocity":0.7874015748031497},{"duration":0.2608695000000125,"midi":43,"time":143.99996399999998,"velocity":0.7874015748031497},{"duration":0.2608694999999841,"midi":46,"time":144.2608335,"velocity":0.7874015748031497},{"duration":0.2608695000000125,"midi":38,"time":144.52170299999997,"velocity":0.7874015748031497},{"duration":0.2608695000000125,"midi":45,"time":144.7825725,"velocity":0.7874015748031497},{"duration":0.2608694999999841,"midi":50,"time":145.043442,"velocity":0.7874015748031497},{"duration":0.2608695000000125,"midi":38,"time":145.30431149999998,"velocity":0.7874015748031497},{"duration":0.13043474999997784,"midi":34,"time":145.565181,"velocity":0.7874015748031497},{"duration":0.2608695000000125,"midi":34,"time":145.82605049999998,"velocity":0.7874015748031497},{"duration":0.2608694999999841,"midi":43,"time":146.08692,"velocity":0.7874015748031497},{"duration":0.2608695000000125,"midi":46,"time":146.34778949999998,"velocity":0.7874015748031497},{"duration":0.2608694999999841,"midi":26,"time":146.608659,"velocity":0.7874015748031497},{"duration":0.2608694999999841,"midi":38,"time":146.608659,"velocity":0.7874015748031497},{"duration":0.2608695000000125,"midi":40,"time":146.86952849999997,"velocity":0.7874015748031497},{"duration":0.2608695000000125,"midi":28,"time":146.86952849999997,"velocity":0.7874015748031497},{"duration":0.39130424999999036,"midi":41,"time":147.13039799999999,"velocity":0.7874015748031497},{"duration":0.39130424999999036,"midi":29,"time":147.13039799999999,"velocity":0.7874015748031497},{"duration":1.0434779999999932,"midi":29,"time":147.65213699999998,"velocity":0.7874015748031497},{"duration":1.0434779999999932,"midi":41,"time":147.65213699999998,"velocity":0.7874015748031497},{"duration":0.2608695000000125,"midi":38,"time":148.69561499999998,"velocity":0.7874015748031497},{"duration":0.2608695000000125,"midi":33,"time":148.9564845,"velocity":0.7874015748031497},{"duration":0.2608694999999841,"midi":29,"time":149.217354,"velocity":0.7874015748031497},{"duration":0.2608695000000125,"midi":26,"time":149.47822349999998,"velocity":0.7874015748031497},{"duration":0.39130424999999036,"midi":34,"time":149.739093,"velocity":0.7874015748031497},{"duration":0.39130424999999036,"midi":29,"time":150.13039725,"velocity":0.7874015748031497},{"duration":0.13043475000000626,"midi":34,"time":150.52170149999998,"velocity":0.7874015748031497},{"duration":0.13043475000000626,"midi":45,"time":150.782571,"velocity":0.7874015748031497},{"duration":0.13043475000000626,"midi":40,"time":151.04344049999997,"velocity":0.7874015748031497},{"duration":0.13043475000000626,"midi":37,"time":151.30431,"velocity":0.7874015748031497},{"duration":0.13043474999997784,"midi":33,"time":151.5651795,"velocity":0.7874015748031497},{"duration":0.13043475000000626,"midi":34,"time":151.82604899999998,"velocity":0.7874015748031497},{"duration":0.2608694999999841,"midi":34,"time":152.0869185,"velocity":0.7874015748031497},{"duration":0.2608695000000125,"midi":43,"time":152.34778799999998,"velocity":0.7874015748031497},{"duration":0.2608694999999841,"midi":46,"time":152.6086575,"velocity":0.7874015748031497},{"duration":0.2608695000000125,"midi":38,"time":152.86952699999998,"velocity":0.7874015748031497},{"duration":0.2608694999999841,"midi":45,"time":153.1303965,"velocity":0.7874015748031497},{"duration":0.2608695000000125,"midi":50,"time":153.39126599999997,"velocity":0.7874015748031497},{"duration":0.2608695000000125,"midi":38,"time":153.65213549999999,"velocity":0.7874015748031497},{"duration":0.13043474999997784,"midi":34,"time":153.913005,"velocity":0.7874015748031497},{"duration":0.2608695000000125,"midi":34,"time":154.17387449999998,"velocity":0.7874015748031497},{"duration":0.2608694999999841,"midi":43,"time":154.434744,"velocity":0.7874015748031497},{"duration":0.2608695000000125,"midi":46,"time":154.69561349999998,"velocity":0.7874015748031497},{"duration":0.2608694999999841,"midi":26,"time":154.956483,"velocity":0.7874015748031497},{"duration":0.2608694999999841,"midi":38,"time":154.956483,"velocity":0.7874015748031497},{"duration":0.2608695000000125,"midi":40,"time":155.21735249999998,"velocity":0.7874015748031497},{"duration":0.2608695000000125,"midi":28,"time":155.21735249999998,"velocity":0.7874015748031497},{"duration":0.39130424999999036,"midi":41,"time":155.478222,"velocity":0.7874015748031497},{"duration":0.39130424999999036,"midi":29,"time":155.478222,"velocity":0.7874015748031497},{"duration":1.0434779999999932,"midi":41,"time":155.99996099999998,"velocity":0.7874015748031497},{"duration":1.0434779999999932,"midi":29,"time":155.99996099999998,"velocity":0.7874015748031497},{"duration":0.2608695000000125,"midi":38,"time":157.04343899999998,"velocity":0.7874015748031497},{"duration":0.2608694999999841,"midi":33,"time":157.3043085,"velocity":0.7874015748031497},{"duration":0.2608695000000125,"midi":29,"time":157.56517799999997,"velocity":0.7874015748031497},{"duration":0.2608695000000125,"midi":26,"time":157.8260475,"velocity":0.7874015748031497},{"duration":0.2608694999999841,"midi":34,"time":158.086917,"velocity":0.7874015748031497},{"duration":0.2608694999999841,"midi":38,"time":158.086917,"velocity":0.7874015748031497},{"duration":0.2608694999999841,"midi":38,"time":158.47822125,"velocity":0.7874015748031497},{"duration":0.2608694999999841,"midi":34,"time":158.47822125,"velocity":0.7874015748031497},{"duration":0.13043475000000626,"midi":38,"time":158.86952549999998,"velocity":0.7874015748031497},{"duration":0.13043475000000626,"midi":34,"time":158.86952549999998,"velocity":0.7874015748031497},{"duration":0.2608694999999841,"midi":34,"time":159.130395,"velocity":0.7874015748031497},{"duration":0.2608694999999841,"midi":38,"time":159.130395,"velocity":0.7874015748031497},{"duration":0.2608695000000125,"midi":34,"time":159.52169924999998,"velocity":0.7874015748031497},{"duration":0.2608695000000125,"midi":38,"time":159.52169924999998,"velocity":0.7874015748031497},{"duration":0.2608695000000125,"midi":34,"time":159.91300349999997,"velocity":0.7874015748031497},{"duration":0.2608695000000125,"midi":38,"time":159.91300349999997,"velocity":0.7874015748031497},{"duration":0.2608695000000125,"midi":36,"time":160.173873,"velocity":0.7874015748031497},{"duration":0.2608695000000125,"midi":40,"time":160.173873,"velocity":0.7874015748031497},{"duration":0.2608695000000125,"midi":36,"time":160.56517724999998,"velocity":0.7874015748031497},{"duration":0.2608695000000125,"midi":40,"time":160.56517724999998,"velocity":0.7874015748031497},{"duration":0.13043474999997784,"midi":40,"time":160.9564815,"velocity":0.7874015748031497},{"duration":0.13043474999997784,"midi":36,"time":160.9564815,"velocity":0.7874015748031497},{"duration":0.2608695000000125,"midi":40,"time":161.21735099999998,"velocity":0.7874015748031497},{"duration":0.2608695000000125,"midi":36,"time":161.21735099999998,"velocity":0.7874015748031497},{"duration":0.2608694999999841,"midi":36,"time":161.60865525,"velocity":0.7874015748031497},{"duration":0.2608694999999841,"midi":40,"time":161.60865525,"velocity":0.7874015748031497},{"duration":0.2608694999999841,"midi":40,"time":161.9999595,"velocity":0.7874015748031497},{"duration":0.2608694999999841,"midi":36,"time":161.9999595,"velocity":0.7874015748031497},{"duration":0.2608695000000125,"midi":34,"time":162.26082899999997,"velocity":0.7874015748031497},{"duration":0.2608695000000125,"midi":38,"time":162.26082899999997,"velocity":0.7874015748031497},{"duration":0.2608694999999841,"midi":34,"time":162.65213325,"velocity":0.7874015748031497},{"duration":0.2608694999999841,"midi":38,"time":162.65213325,"velocity":0.7874015748031497},{"duration":0.13043475000000626,"midi":34,"time":163.04343749999998,"velocity":0.7874015748031497},{"duration":0.13043475000000626,"midi":38,"time":163.04343749999998,"velocity":0.7874015748031497},{"duration":0.2608694999999841,"midi":38,"time":163.304307,"velocity":0.7874015748031497},{"duration":0.2608694999999841,"midi":34,"time":163.304307,"velocity":0.7874015748031497},{"duration":0.2608695000000125,"midi":38,"time":163.69561124999998,"velocity":0.7874015748031497},{"duration":0.2608695000000125,"midi":34,"time":163.69561124999998,"velocity":0.7874015748031497},{"duration":0.2608695000000125,"midi":38,"time":164.08691549999998,"velocity":0.7874015748031497},{"duration":0.2608695000000125,"midi":34,"time":164.08691549999998,"velocity":0.7874015748031497},{"duration":0.2608694999999841,"midi":40,"time":164.347785,"velocity":0.7874015748031497},{"duration":0.2608694999999841,"midi":36,"time":164.347785,"velocity":0.7874015748031497},{"duration":0.2608695000000125,"midi":40,"time":164.73908924999998,"velocity":0.7874015748031497},{"duration":0.2608695000000125,"midi":36,"time":164.73908924999998,"velocity":0.7874015748031497},{"duration":0.13043474999997784,"midi":40,"time":165.1303935,"velocity":0.7874015748031497},{"duration":0.13043474999997784,"midi":36,"time":165.1303935,"velocity":0.7874015748031497},{"duration":0.2608695000000125,"midi":40,"time":165.39126299999998,"velocity":0.7874015748031497},{"duration":0.2608695000000125,"midi":36,"time":165.39126299999998,"velocity":0.7874015748031497},{"duration":0.2608695000000125,"midi":36,"time":165.78256724999997,"velocity":0.7874015748031497},{"duration":0.2608695000000125,"midi":40,"time":165.78256724999997,"velocity":0.7874015748031497},{"duration":0.2608694999999841,"midi":40,"time":166.1738715,"velocity":0.7874015748031497},{"duration":0.2608694999999841,"midi":36,"time":166.1738715,"velocity":0.7874015748031497},{"duration":0.3913042500000188,"midi":62,"time":166.43474099999997,"velocity":0.7874015748031497},{"duration":0.2608695000000125,"midi":57,"time":166.43474099999997,"velocity":0.7874015748031497},{"duration":0.2608695000000125,"midi":50,"time":166.43474099999997,"velocity":0.7874015748031497},{"duration":0.3913042500000188,"midi":26,"time":166.43474099999997,"velocity":0.7874015748031497},{"duration":0.13043475000000626,"midi":33,"time":166.82604525,"velocity":0.7874015748031497},{"duration":0.13043475000000626,"midi":50,"time":166.82604525,"velocity":0.7874015748031497},{"duration":0.13043475000000626,"midi":57,"time":166.82604525,"velocity":0.7874015748031497},{"duration":0.13043475000000626,"midi":57,"time":167.21734949999998,"velocity":0.7874015748031497},{"duration":0.13043475000000626,"midi":50,"time":167.21734949999998,"velocity":0.7874015748031497},{"duration":0.13043475000000626,"midi":38,"time":167.21734949999998,"velocity":0.7874015748031497},{"duration":0.39130424999999036,"midi":59,"time":167.478219,"velocity":0.7874015748031497},{"duration":0.39130424999999036,"midi":31,"time":167.478219,"velocity":0.7874015748031497},{"duration":0.2608694999999841,"midi":50,"time":167.478219,"velocity":0.7874015748031497},{"duration":0.2608694999999841,"midi":55,"time":167.478219,"velocity":0.7874015748031497},{"duration":0.13043475000000626,"midi":55,"time":167.86952325,"velocity":0.7874015748031497},{"duration":0.13043475000000626,"midi":35,"time":167.86952325,"velocity":0.7874015748031497},{"duration":0.13043475000000626,"midi":50,"time":167.86952325,"velocity":0.7874015748031497},{"duration":0.2608695000000125,"midi":38,"time":168.26082749999998,"velocity":0.7874015748031497},{"duration":0.13043475000000626,"midi":55,"time":168.26082749999998,"velocity":0.7874015748031497},{"duration":0.13043475000000626,"midi":50,"time":168.26082749999998,"velocity":0.7874015748031497},{"duration":0.39130424999999036,"midi":62,"time":168.521697,"velocity":0.7874015748031497},{"duration":0.2608694999999841,"midi":57,"time":168.521697,"velocity":0.7874015748031497},{"duration":0.39130424999999036,"midi":26,"time":168.521697,"velocity":0.7874015748031497},{"duration":0.2608694999999841,"midi":50,"time":168.521697,"velocity":0.7874015748031497},{"duration":0.13043475000000626,"midi":57,"time":168.91300124999998,"velocity":0.7874015748031497},{"duration":0.3913042500000188,"midi":33,"time":168.91300124999998,"velocity":0.7874015748031497},{"duration":0.13043475000000626,"midi":50,"time":168.91300124999998,"velocity":0.7874015748031497},{"duration":0.13043474999997784,"midi":38,"time":169.3043055,"velocity":0.7874015748031497},{"duration":0.13043474999997784,"midi":57,"time":169.3043055,"velocity":0.7874015748031497},{"duration":0.13043474999997784,"midi":50,"time":169.3043055,"velocity":0.7874015748031497},{"duration":0.2608695000000125,"midi":50,"time":169.56517499999998,"velocity":0.7874015748031497},{"duration":0.2608695000000125,"midi":55,"time":169.56517499999998,"velocity":0.7874015748031497},{"duration":0.39130424999999036,"midi":59,"time":169.56517499999998,"velocity":0.7874015748031497},{"duration":0.39130424999999036,"midi":31,"time":169.56517499999998,"velocity":0.7874015748031497},{"duration":0.13043475000000626,"midi":50,"time":169.95647924999997,"velocity":0.7874015748031497},{"duration":0.13043475000000626,"midi":55,"time":169.95647924999997,"velocity":0.7874015748031497},{"duration":0.13043475000000626,"midi":35,"time":169.95647924999997,"velocity":0.7874015748031497},{"duration":0.13043475000000626,"midi":38,"time":170.3477835,"velocity":0.7874015748031497},{"duration":0.13043475000000626,"midi":55,"time":170.3477835,"velocity":0.7874015748031497},{"duration":0.13043475000000626,"midi":50,"time":170.3477835,"velocity":0.7874015748031497},{"duration":0.6521737500000029,"midi":33,"time":170.60865299999998,"velocity":0.7874015748031497},{"duration":0.6521737500000029,"midi":50,"time":170.60865299999998,"velocity":0.7874015748031497},{"duration":0.6521737500000029,"midi":53,"time":170.60865299999998,"velocity":0.7874015748031497},{"duration":0.6521737500000029,"midi":57,"time":170.60865299999998,"velocity":0.7874015748031497},{"duration":0.6521737500000029,"midi":38,"time":170.60865299999998,"velocity":0.7874015748031497},{"duration":0.6521737500000029,"midi":26,"time":170.60865299999998,"velocity":0.7874015748031497}]},{"instrument":{"family":"synth lead","number":87,"name":"lead 8 (bass + lead)"},"notes":[{"duration":0.2608695,"midi":53,"time":0,"velocity":0.7874015748031497},{"duration":0.2608695,"midi":45,"time":0.2608695,"velocity":0.7874015748031497},{"duration":0.2608695,"midi":57,"time":0.521739,"velocity":0.7874015748031497},{"duration":0.2608695,"midi":48,"time":0.7826084999999999,"velocity":0.7874015748031497},{"duration":1.043478,"midi":50,"time":1.043478,"velocity":0.7874015748031497},{"duration":1.043478,"midi":55,"time":1.043478,"velocity":0.7874015748031497},{"duration":0.2608695000000001,"midi":52,"time":2.086956,"velocity":0.7874015748031497},{"duration":0.2608695000000001,"midi":43,"time":2.3478255,"velocity":0.7874015748031497},{"duration":0.26086949999999964,"midi":55,"time":2.608695,"velocity":0.7874015748031497},{"duration":0.2608695000000001,"midi":48,"time":2.8695644999999996,"velocity":0.7874015748031497},{"duration":1.043478,"midi":45,"time":3.1304339999999997,"velocity":0.7874015748031497},{"duration":1.043478,"midi":53,"time":3.1304339999999997,"velocity":0.7874015748031497},{"duration":0.2608695000000001,"midi":50,"time":4.173912,"velocity":0.7874015748031497},{"duration":0.2608695000000001,"midi":43,"time":4.4347815,"velocity":0.7874015748031497},{"duration":0.5217390000000002,"midi":53,"time":4.695651,"velocity":0.7874015748031497},{"duration":1.0434779999999995,"midi":52,"time":5.21739,"velocity":0.7874015748031497},{"duration":0.2608694999999992,"midi":48,"time":5.21739,"velocity":0.7874015748031497},{"duration":0.2608695000000001,"midi":46,"time":5.478259499999999,"velocity":0.7874015748031497},{"duration":0.2608695000000001,"midi":43,"time":5.739128999999999,"velocity":0.7874015748031497},{"duration":0.2608695000000001,"midi":45,"time":5.999998499999999,"velocity":0.7874015748031497},{"duration":0.2608695000000001,"midi":48,"time":6.260867999999999,"velocity":0.7874015748031497},{"duration":0.2608695000000001,"midi":48,"time":6.260867999999999,"velocity":0.7874015748031497},{"duration":0.2608695000000001,"midi":41,"time":6.5217374999999995,"velocity":0.7874015748031497},{"duration":0.2608695000000001,"midi":50,"time":6.782607,"velocity":0.7874015748031497},{"duration":0.5217389999999993,"midi":43,"time":6.782607,"velocity":0.7874015748031497},{"duration":1.0434780000000003,"midi":45,"time":7.304345999999999,"velocity":0.7874015748031497},{"duration":1.0434780000000003,"midi":45,"time":7.304345999999999,"velocity":0.7874015748031497},{"duration":0.2608695000000001,"midi":53,"time":8.347824,"velocity":0.7874015748031497},{"duration":0.2608695000000001,"midi":45,"time":8.6086935,"velocity":0.7874015748031497},{"duration":0.2608695000000001,"midi":57,"time":8.869563,"velocity":0.7874015748031497},{"duration":0.2608695000000001,"midi":48,"time":9.1304325,"velocity":0.7874015748031497},{"duration":1.0434780000000003,"midi":50,"time":9.391302,"velocity":0.7874015748031497},{"duration":1.0434780000000003,"midi":55,"time":9.391302,"velocity":0.7874015748031497},{"duration":0.2608694999999983,"midi":60,"time":10.43478,"velocity":0.7874015748031497},{"duration":0.2608695000000001,"midi":52,"time":10.695649499999998,"velocity":0.7874015748031497},{"duration":0.2608695000000001,"midi":55,"time":10.956518999999998,"velocity":0.7874015748031497},{"duration":0.2608695000000001,"midi":48,"time":11.217388499999998,"velocity":0.7874015748031497},{"duration":0.5217390000000002,"midi":52,"time":11.478257999999999,"velocity":0.7874015748031497},{"duration":0.9130432500000012,"midi":57,"time":11.478257999999999,"velocity":0.7874015748031497},{"duration":0.5217390000000002,"midi":53,"time":11.999996999999999,"velocity":0.7874015748031497},{"duration":0.2608695000000001,"midi":57,"time":12.521735999999999,"velocity":0.7874015748031497},{"duration":0.2608695000000001,"midi":55,"time":12.782605499999999,"velocity":0.7874015748031497},{"duration":0.2608695000000001,"midi":57,"time":13.043474999999999,"velocity":0.7874015748031497},{"duration":0.2608695000000001,"midi":60,"time":13.3043445,"velocity":0.7874015748031497},{"duration":0.5217390000000002,"midi":62,"time":13.565214,"velocity":0.7874015748031497},{"duration":0.5217389999999984,"midi":65,"time":14.086953,"velocity":0.7874015748031497},{"duration":0.2608694999999983,"midi":50,"time":14.3478225,"velocity":0.7874015748031497},{"duration":0.2608695000000001,"midi":48,"time":14.608691999999998,"velocity":0.7874015748031497},{"duration":0.06521737499999958,"midi":65,"time":14.673909375,"velocity":0.7874015748031497},{"duration":0.13043474999999916,"midi":64,"time":14.739126749999999,"velocity":0.7874015748031497},{"duration":0.2608695000000001,"midi":41,"time":14.869561499999998,"velocity":0.7874015748031497},{"duration":0.2608695000000001,"midi":62,"time":14.869561499999998,"velocity":0.7874015748031497},{"duration":0.2608695000000001,"midi":60,"time":15.130430999999998,"velocity":0.7874015748031497},{"duration":0.2608695000000001,"midi":43,"time":15.130430999999998,"velocity":0.7874015748031497},{"duration":0.2608695000000001,"midi":48,"time":15.391300499999998,"velocity":0.7874015748031497},{"duration":0.2608695000000001,"midi":64,"time":15.391300499999998,"velocity":0.7874015748031497},{"duration":1.0434780000000003,"midi":62,"time":15.652169999999998,"velocity":0.7874015748031497},{"duration":1.0434780000000003,"midi":45,"time":15.652169999999998,"velocity":0.7874015748031497},{"duration":0.5217390000000002,"midi":53,"time":17.217387,"velocity":0.7874015748031497},{"duration":0.5217390000000002,"midi":57,"time":17.739126,"velocity":0.7874015748031497},{"duration":0.7826084999999985,"midi":55,"time":18.260865,"velocity":0.7874015748031497},{"duration":0.26086950000000186,"midi":57,"time":19.043473499999998,"velocity":0.7874015748031497},{"duration":0.39130424999999747,"midi":50,"time":19.304343,"velocity":0.7874015748031497},{"duration":0.391304250000001,"midi":52,"time":19.695647249999997,"velocity":0.7874015748031497},{"duration":0.26086950000000186,"midi":53,"time":20.086951499999998,"velocity":0.7874015748031497},{"duration":0.5217390000000002,"midi":53,"time":21.391298999999997,"velocity":0.7874015748031497},{"duration":0.5217390000000002,"midi":57,"time":21.913037999999997,"velocity":0.7874015748031497},{"duration":0.782608500000002,"midi":55,"time":22.434776999999997,"velocity":0.7874015748031497},{"duration":0.2608694999999983,"midi":57,"time":23.2173855,"velocity":0.7874015748031497},{"duration":0.391304250000001,"midi":50,"time":23.478254999999997,"velocity":0.7874015748031497},{"duration":0.391304250000001,"midi":52,"time":23.86955925,"velocity":0.7874015748031497},{"duration":0.2608694999999983,"midi":60,"time":24.2608635,"velocity":0.7874015748031497},{"duration":0.9130432500000012,"midi":57,"time":24.521732999999998,"velocity":0.7874015748031497},{"duration":0.2608694999999983,"midi":57,"time":25.565210999999998,"velocity":0.7874015748031497},{"duration":0.2608694999999983,"midi":58,"time":26.086949999999998,"velocity":0.7874015748031497},{"duration":0.7826084999999985,"midi":60,"time":26.608689,"velocity":0.7874015748031497},{"duration":0.26086950000000186,"midi":62,"time":27.391297499999997,"velocity":0.7874015748031497},{"duration":0.39130424999999747,"midi":53,"time":27.652167,"velocity":0.7874015748031497},{"duration":0.391304250000001,"midi":55,"time":28.043471249999996,"velocity":0.7874015748031497},{"duration":0.26086950000000186,"midi":57,"time":28.434775499999997,"velocity":0.7874015748031497},{"duration":0.7826084999999985,"midi":60,"time":28.695645,"velocity":0.7874015748031497},{"duration":0.2608694999999983,"midi":62,"time":29.478253499999997,"velocity":0.7874015748031497},{"duration":0.391304250000001,"midi":53,"time":29.739122999999996,"velocity":0.7874015748031497},{"duration":0.391304250000001,"midi":64,"time":30.130427249999997,"velocity":0.7874015748031497},{"duration":0.2608694999999983,"midi":60,"time":30.521731499999998,"velocity":0.7874015748031497},{"duration":2.0869560000000043,"midi":57,"time":30.782600999999996,"velocity":0.7874015748031497},{"duration":1.0434779999999932,"midi":55,"time":32.869557,"velocity":0.7874015748031497},{"duration":0.5217390000000037,"midi":53,"time":33.913034999999994,"velocity":0.7874015748031497},{"duration":0.5217389999999966,"midi":57,"time":34.434774,"velocity":0.7874015748031497},{"duration":0.782608500000002,"midi":55,"time":34.956512999999994,"velocity":0.7874015748031497},{"duration":0.2608694999999983,"midi":57,"time":35.739121499999996,"velocity":0.7874015748031497},{"duration":0.39130425000000457,"midi":50,"time":35.999990999999994,"velocity":0.7874015748031497},{"duration":0.39130424999999747,"midi":52,"time":36.39129525,"velocity":0.7874015748031497},{"duration":0.2608694999999983,"midi":53,"time":36.782599499999996,"velocity":0.7874015748031497},{"duration":1.0434780000000003,"midi":57,"time":37.043468999999995,"velocity":0.7874015748031497},{"duration":0.5217390000000037,"midi":53,"time":38.086946999999995,"velocity":0.7874015748031497},{"duration":0.5217389999999966,"midi":57,"time":38.608686,"velocity":0.7874015748031497},{"duration":0.782608500000002,"midi":55,"time":39.130424999999995,"velocity":0.7874015748031497},{"duration":0.2608694999999983,"midi":57,"time":39.9130335,"velocity":0.7874015748031497},{"duration":0.39130424999999747,"midi":50,"time":40.173902999999996,"velocity":0.7874015748031497},{"duration":0.39130425000000457,"midi":52,"time":40.56520724999999,"velocity":0.7874015748031497},{"duration":0.2608694999999983,"midi":60,"time":40.9565115,"velocity":0.7874015748031497},{"duration":0.9130432500000012,"midi":57,"time":41.217380999999996,"velocity":0.7874015748031497},{"duration":0.5217389999999966,"midi":57,"time":42.260858999999996,"velocity":0.7874015748031497},{"duration":0.5217390000000037,"midi":58,"time":42.78259799999999,"velocity":0.7874015748031497},{"duration":0.782608500000002,"midi":60,"time":43.304337,"velocity":0.7874015748031497},{"duration":0.2608694999999983,"midi":62,"time":44.0869455,"velocity":0.7874015748031497},{"duration":0.39130424999999747,"midi":53,"time":44.347815,"velocity":0.7874015748031497},{"duration":0.39130425000000457,"midi":55,"time":44.739119249999995,"velocity":0.7874015748031497},{"duration":0.2608694999999983,"midi":57,"time":45.1304235,"velocity":0.7874015748031497},{"duration":0.7826084999999949,"midi":60,"time":45.391293,"velocity":0.7874015748031497},{"duration":0.2608695000000054,"midi":62,"time":46.17390149999999,"velocity":0.7874015748031497},{"duration":0.39130424999999747,"midi":53,"time":46.434771,"velocity":0.7874015748031497},{"duration":0.39130424999999747,"midi":64,"time":46.826075249999995,"velocity":0.7874015748031497},{"duration":0.2608695000000054,"midi":60,"time":47.21737949999999,"velocity":0.7874015748031497},{"duration":1.9565212499999944,"midi":57,"time":47.478249,"velocity":0.7874015748031497},{"duration":1.0434779999999932,"midi":55,"time":49.565205,"velocity":0.7874015748031497},{"duration":0.2608695000000054,"midi":53,"time":50.60868299999999,"velocity":0.7874015748031497},{"duration":0.2608694999999983,"midi":52,"time":51.130421999999996,"velocity":0.7874015748031497},{"duration":0.13043475000000626,"midi":46,"time":51.65216099999999,"velocity":0.7874015748031497},{"duration":0.13043475000000626,"midi":50,"time":51.65216099999999,"velocity":0.7874015748031497},{"duration":0.13043474999999916,"midi":53,"time":51.78259575,"velocity":0.7874015748031497},{"duration":0.13043474999999916,"midi":52,"time":51.9130305,"velocity":0.7874015748031497},{"duration":0.13043474999999916,"midi":53,"time":52.04346525,"velocity":0.7874015748031497},{"duration":0.2608694999999983,"midi":50,"time":52.173899999999996,"velocity":0.7874015748031497},{"duration":0.2608694999999983,"midi":46,"time":52.565204249999994,"velocity":0.7874015748031497},{"duration":0.2608694999999983,"midi":50,"time":52.565204249999994,"velocity":0.7874015748031497},{"duration":0.13043475000000626,"midi":52,"time":52.82607374999999,"velocity":0.7874015748031497},{"duration":0.13043474999999916,"midi":53,"time":52.9565085,"velocity":0.7874015748031497},{"duration":0.13043474999999916,"midi":60,"time":53.08694325,"velocity":0.7874015748031497},{"duration":0.5217389999999966,"midi":57,"time":53.217378,"velocity":0.7874015748031497},{"duration":0.13043474999999916,"midi":50,"time":53.73911699999999,"velocity":0.7874015748031497},{"duration":0.13043474999999916,"midi":48,"time":53.73911699999999,"velocity":0.7874015748031497},{"duration":0.13043475000000626,"midi":53,"time":53.86955174999999,"velocity":0.7874015748031497},{"duration":0.13043474999999916,"midi":52,"time":53.9999865,"velocity":0.7874015748031497},{"duration":0.13043474999999916,"midi":53,"time":54.13042125,"velocity":0.7874015748031497},{"duration":0.2608694999999983,"midi":50,"time":54.260856,"velocity":0.7874015748031497},{"duration":0.2608694999999983,"midi":50,"time":54.652160249999994,"velocity":0.7874015748031497},{"duration":0.2608694999999983,"midi":48,"time":54.652160249999994,"velocity":0.7874015748031497},{"duration":0.13043474999999916,"midi":52,"time":54.91302974999999,"velocity":0.7874015748031497},{"duration":0.13043475000000626,"midi":53,"time":55.04346449999999,"velocity":0.7874015748031497},{"duration":0.13043474999999916,"midi":60,"time":55.17389925,"velocity":0.7874015748031497},{"duration":0.5217389999999966,"midi":57,"time":55.304334,"velocity":0.7874015748031497},{"duration":0.13043474999999916,"midi":45,"time":55.826072999999994,"velocity":0.7874015748031497},{"duration":0.13043474999999916,"midi":50,"time":55.826072999999994,"velocity":0.7874015748031497},{"duration":0.13043474999999916,"midi":53,"time":55.95650774999999,"velocity":0.7874015748031497},{"duration":0.13043475000000626,"midi":52,"time":56.08694249999999,"velocity":0.7874015748031497},{"duration":0.13043474999999916,"midi":53,"time":56.21737725,"velocity":0.7874015748031497},{"duration":0.2608694999999983,"midi":50,"time":56.347812,"velocity":0.7874015748031497},{"duration":0.2608694999999983,"midi":45,"time":56.739116249999995,"velocity":0.7874015748031497},{"duration":0.2608694999999983,"midi":50,"time":56.739116249999995,"velocity":0.7874015748031497},{"duration":0.13043474999999916,"midi":52,"time":56.99998574999999,"velocity":0.7874015748031497},{"duration":0.13043474999999916,"midi":53,"time":57.13042049999999,"velocity":0.7874015748031497},{"duration":0.13043475000000626,"midi":60,"time":57.26085524999999,"velocity":0.7874015748031497},{"duration":0.5217389999999966,"midi":57,"time":57.39129,"velocity":0.7874015748031497},{"duration":0.39130424999999747,"midi":45,"time":57.913028999999995,"velocity":0.7874015748031497},{"duration":0.39130424999999747,"midi":48,"time":57.913028999999995,"velocity":0.7874015748031497},{"duration":0.39130425000000457,"midi":55,"time":58.30433324999999,"velocity":0.7874015748031497},{"duration":0.2608694999999983,"midi":53,"time":58.6956375,"velocity":0.7874015748031497},{"duration":0.13043474999999916,"midi":45,"time":58.956506999999995,"velocity":0.7874015748031497},{"duration":0.13043474999999916,"midi":52,"time":58.956506999999995,"velocity":0.7874015748031497},{"duration":0.2608694999999983,"midi":50,"time":59.086941749999994,"velocity":0.7874015748031497},{"duration":0.39130425000000457,"midi":48,"time":59.34781124999999,"velocity":0.7874015748031497},{"duration":0.2608694999999983,"midi":52,"time":59.7391155,"velocity":0.7874015748031497},{"duration":0.13043474999999916,"midi":46,"time":59.999984999999995,"velocity":0.7874015748031497},{"duration":0.13043474999999916,"midi":50,"time":59.999984999999995,"velocity":0.7874015748031497},{"duration":0.13043474999999916,"midi":53,"time":60.130419749999994,"velocity":0.7874015748031497},{"duration":0.13043474999999916,"midi":52,"time":60.26085449999999,"velocity":0.7874015748031497},{"duration":0.13043474999999916,"midi":53,"time":60.39128924999999,"velocity":0.7874015748031497},{"duration":0.2608695000000054,"midi":50,"time":60.52172399999999,"velocity":0.7874015748031497},{"duration":0.2608694999999983,"midi":46,"time":60.913028249999996,"velocity":0.7874015748031497},{"duration":0.2608694999999983,"midi":50,"time":60.913028249999996,"velocity":0.7874015748031497},{"duration":0.13043474999999916,"midi":52,"time":61.173897749999995,"velocity":0.7874015748031497},{"duration":0.13043474999999916,"midi":53,"time":61.304332499999994,"velocity":0.7874015748031497},{"duration":0.13043474999999916,"midi":60,"time":61.43476724999999,"velocity":0.7874015748031497},{"duration":0.5217390000000037,"midi":57,"time":61.56520199999999,"velocity":0.7874015748031497},{"duration":0.13043474999999916,"midi":50,"time":62.086940999999996,"velocity":0.7874015748031497},{"duration":0.13043474999999916,"midi":48,"time":62.086940999999996,"velocity":0.7874015748031497},{"duration":0.13043474999999916,"midi":53,"time":62.217375749999995,"velocity":0.7874015748031497},{"duration":0.13043474999999916,"midi":52,"time":62.347810499999994,"velocity":0.7874015748031497},{"duration":0.13043474999999916,"midi":53,"time":62.47824524999999,"velocity":0.7874015748031497},{"duration":0.2608694999999983,"midi":50,"time":62.60867999999999,"velocity":0.7874015748031497},{"duration":0.2608694999999983,"midi":48,"time":62.99998425,"velocity":0.7874015748031497},{"duration":0.2608694999999983,"midi":50,"time":62.99998425,"velocity":0.7874015748031497},{"duration":0.13043474999999916,"midi":52,"time":63.260853749999995,"velocity":0.7874015748031497},{"duration":0.13043474999999916,"midi":53,"time":63.391288499999995,"velocity":0.7874015748031497},{"duration":0.13043474999999916,"midi":60,"time":63.521723249999994,"velocity":0.7874015748031497},{"duration":0.5217390000000037,"midi":57,"time":63.65215799999999,"velocity":0.7874015748031497},{"duration":0.13043474999999205,"midi":45,"time":64.173897,"velocity":0.7874015748031497},{"duration":0.13043474999999205,"midi":50,"time":64.173897,"velocity":0.7874015748031497},{"duration":0.13043475000000626,"midi":53,"time":64.30433174999999,"velocity":0.7874015748031497},{"duration":0.13043475000000626,"midi":52,"time":64.4347665,"velocity":0.7874015748031497},{"duration":0.13043474999999205,"midi":53,"time":64.56520125,"velocity":0.7874015748031497},{"duration":0.2608694999999983,"midi":50,"time":64.695636,"velocity":0.7874015748031497},{"duration":0.2608694999999983,"midi":50,"time":65.08694025,"velocity":0.7874015748031497},{"duration":0.2608694999999983,"midi":45,"time":65.08694025,"velocity":0.7874015748031497},{"duration":0.13043474999999205,"midi":52,"time":65.34780975,"velocity":0.7874015748031497},{"duration":0.13043475000000626,"midi":53,"time":65.47824449999999,"velocity":0.7874015748031497},{"duration":0.13043475000000626,"midi":60,"time":65.60867925,"velocity":0.7874015748031497},{"duration":0.5217389999999966,"midi":57,"time":65.739114,"velocity":0.7874015748031497},{"duration":0.39130424999999036,"midi":48,"time":66.260853,"velocity":0.7874015748031497},{"duration":0.39130424999999036,"midi":45,"time":66.260853,"velocity":0.7874015748031497},{"duration":0.39130425000000457,"midi":55,"time":66.65215724999999,"velocity":0.7874015748031497},{"duration":0.2608694999999983,"midi":53,"time":67.04346149999999,"velocity":0.7874015748031497},{"duration":0.13043475000000626,"midi":52,"time":67.30433099999999,"velocity":0.7874015748031497},{"duration":0.13043475000000626,"midi":45,"time":67.30433099999999,"velocity":0.7874015748031497},{"duration":0.2608694999999983,"midi":50,"time":67.43476575,"velocity":0.7874015748031497},{"duration":0.39130425000000457,"midi":48,"time":67.69563525,"velocity":0.7874015748031497},{"duration":0.2608694999999983,"midi":52,"time":68.0869395,"velocity":0.7874015748031497},{"duration":0.13043474999999205,"midi":62,"time":68.347809,"velocity":0.7874015748031497},{"duration":0.13043474999999205,"midi":58,"time":68.347809,"velocity":0.7874015748031497},{"duration":0.13043475000000626,"midi":65,"time":68.47824374999999,"velocity":0.7874015748031497},{"duration":0.13043474999999205,"midi":64,"time":68.6086785,"velocity":0.7874015748031497},{"duration":0.13043475000000626,"midi":65,"time":68.73911324999999,"velocity":0.7874015748031497},{"duration":0.2608694999999983,"midi":62,"time":68.869548,"velocity":0.7874015748031497},{"duration":0.2608694999999983,"midi":58,"time":69.26085225,"velocity":0.7874015748031497},{"duration":0.2608694999999983,"midi":62,"time":69.26085225,"velocity":0.7874015748031497},{"duration":0.13043474999999205,"midi":64,"time":69.52172175,"velocity":0.7874015748031497},{"duration":0.13043475000000626,"midi":65,"time":69.65215649999999,"velocity":0.7874015748031497},{"duration":0.13043474999999205,"midi":72,"time":69.78259125,"velocity":0.7874015748031497},{"duration":0.5217390000000108,"midi":69,"time":69.91302599999999,"velocity":0.7874015748031497},{"duration":0.13043474999999205,"midi":60,"time":70.434765,"velocity":0.7874015748031497},{"duration":0.13043474999999205,"midi":62,"time":70.434765,"velocity":0.7874015748031497},{"duration":0.13043475000000626,"midi":65,"time":70.56519974999999,"velocity":0.7874015748031497},{"duration":0.13043474999999205,"midi":64,"time":70.6956345,"velocity":0.7874015748031497},{"duration":0.13043475000000626,"midi":65,"time":70.82606924999999,"velocity":0.7874015748031497},{"duration":0.2608694999999983,"midi":62,"time":70.956504,"velocity":0.7874015748031497},{"duration":0.2608694999999983,"midi":60,"time":71.34780825,"velocity":0.7874015748031497},{"duration":0.2608694999999983,"midi":62,"time":71.34780825,"velocity":0.7874015748031497},{"duration":0.13043474999999205,"midi":64,"time":71.60867775,"velocity":0.7874015748031497},{"duration":0.13043475000000626,"midi":65,"time":71.73911249999999,"velocity":0.7874015748031497},{"duration":0.13043474999999205,"midi":72,"time":71.86954725,"velocity":0.7874015748031497},{"duration":0.5217390000000108,"midi":69,"time":71.99998199999999,"velocity":0.7874015748031497},{"duration":0.13043474999999205,"midi":62,"time":72.521721,"velocity":0.7874015748031497},{"duration":0.13043474999999205,"midi":57,"time":72.521721,"velocity":0.7874015748031497},{"duration":0.13043475000000626,"midi":65,"time":72.65215574999999,"velocity":0.7874015748031497},{"duration":0.13043474999999205,"midi":64,"time":72.7825905,"velocity":0.7874015748031497},{"duration":0.13043475000000626,"midi":65,"time":72.91302524999999,"velocity":0.7874015748031497},{"duration":0.2608694999999983,"midi":62,"time":73.04346,"velocity":0.7874015748031497},{"duration":0.2608695000000125,"midi":57,"time":73.43476424999999,"velocity":0.7874015748031497},{"duration":0.2608695000000125,"midi":62,"time":73.43476424999999,"velocity":0.7874015748031497},{"duration":0.13043474999999205,"midi":64,"time":73.69563375,"velocity":0.7874015748031497},{"duration":0.13043475000000626,"midi":65,"time":73.82606849999999,"velocity":0.7874015748031497},{"duration":0.13043474999999205,"midi":72,"time":73.95650325,"velocity":0.7874015748031497},{"duration":0.5217390000000108,"midi":69,"time":74.08693799999999,"velocity":0.7874015748031497},{"duration":0.39130424999999036,"midi":52,"time":74.608677,"velocity":0.7874015748031497},{"duration":0.39130424999999036,"midi":60,"time":74.608677,"velocity":0.7874015748031497},{"duration":0.39130425000000457,"midi":67,"time":74.99998124999999,"velocity":0.7874015748031497},{"duration":0.2608694999999983,"midi":65,"time":75.3912855,"velocity":0.7874015748031497},{"duration":0.13043475000000626,"midi":52,"time":75.652155,"velocity":0.7874015748031497},{"duration":0.13043475000000626,"midi":64,"time":75.652155,"velocity":0.7874015748031497},{"duration":0.2608694999999983,"midi":62,"time":75.78258975,"velocity":0.7874015748031497},{"duration":0.39130424999999036,"midi":60,"time":76.04345925,"velocity":0.7874015748031497},{"duration":0.2608694999999983,"midi":64,"time":76.43476349999999,"velocity":0.7874015748031497},{"duration":0.13043475000000626,"midi":58,"time":76.69563299999999,"velocity":0.7874015748031497},{"duration":0.13043475000000626,"midi":62,"time":76.69563299999999,"velocity":0.7874015748031497},{"duration":0.13043475000000626,"midi":65,"time":76.82606774999999,"velocity":0.7874015748031497},{"duration":0.13043474999999205,"midi":64,"time":76.9565025,"velocity":0.7874015748031497},{"duration":0.13043475000000626,"midi":65,"time":77.08693724999999,"velocity":0.7874015748031497},{"duration":0.2608694999999983,"midi":62,"time":77.217372,"velocity":0.7874015748031497},{"duration":0.2608694999999983,"midi":62,"time":77.60867624999999,"velocity":0.7874015748031497},{"duration":0.2608694999999983,"midi":58,"time":77.60867624999999,"velocity":0.7874015748031497},{"duration":0.13043475000000626,"midi":64,"time":77.86954574999999,"velocity":0.7874015748031497},{"duration":0.13043475000000626,"midi":65,"time":77.99998049999999,"velocity":0.7874015748031497},{"duration":0.13043474999999205,"midi":72,"time":78.13041525,"velocity":0.7874015748031497},{"duration":0.5217389999999966,"midi":69,"time":78.26084999999999,"velocity":0.7874015748031497},{"duration":0.13043475000000626,"midi":62,"time":78.78258899999999,"velocity":0.7874015748031497},{"duration":0.13043475000000626,"midi":60,"time":78.78258899999999,"velocity":0.7874015748031497},{"duration":0.13043475000000626,"midi":65,"time":78.91302375,"velocity":0.7874015748031497},{"duration":0.13043474999999205,"midi":64,"time":79.0434585,"velocity":0.7874015748031497},{"duration":0.13043475000000626,"midi":65,"time":79.17389324999999,"velocity":0.7874015748031497},{"duration":0.2608694999999983,"midi":62,"time":79.304328,"velocity":0.7874015748031497},{"duration":0.2608694999999983,"midi":60,"time":79.69563224999999,"velocity":0.7874015748031497},{"duration":0.2608694999999983,"midi":62,"time":79.69563224999999,"velocity":0.7874015748031497},{"duration":0.13043475000000626,"midi":64,"time":79.95650174999999,"velocity":0.7874015748031497},{"duration":0.13043475000000626,"midi":65,"time":80.0869365,"velocity":0.7874015748031497},{"duration":0.13043474999999205,"midi":72,"time":80.21737125,"velocity":0.7874015748031497},{"duration":0.5217389999999966,"midi":69,"time":80.34780599999999,"velocity":0.7874015748031497},{"duration":0.13043475000000626,"midi":57,"time":80.86954499999999,"velocity":0.7874015748031497},{"duration":0.13043475000000626,"midi":62,"time":80.86954499999999,"velocity":0.7874015748031497},{"duration":0.13043474999999205,"midi":65,"time":80.99997975,"velocity":0.7874015748031497},{"duration":0.13043475000000626,"midi":64,"time":81.13041449999999,"velocity":0.7874015748031497},{"duration":0.13043475000000626,"midi":65,"time":81.26084924999999,"velocity":0.7874015748031497},{"duration":0.2608694999999983,"midi":62,"time":81.391284,"velocity":0.7874015748031497},{"duration":0.2608694999999983,"midi":57,"time":81.78258824999999,"velocity":0.7874015748031497},{"duration":0.2608694999999983,"midi":62,"time":81.78258824999999,"velocity":0.7874015748031497},{"duration":0.13043475000000626,"midi":64,"time":82.04345774999999,"velocity":0.7874015748031497},{"duration":0.13043474999999205,"midi":65,"time":82.1738925,"velocity":0.7874015748031497},{"duration":0.13043475000000626,"midi":72,"time":82.30432724999999,"velocity":0.7874015748031497},{"duration":0.5217389999999966,"midi":69,"time":82.43476199999999,"velocity":0.7874015748031497},{"duration":0.39130425000000457,"midi":52,"time":82.95650099999999,"velocity":0.7874015748031497},{"duration":0.39130425000000457,"midi":61,"time":82.95650099999999,"velocity":0.7874015748031497},{"duration":0.39130425000000457,"midi":67,"time":83.34780525,"velocity":0.7874015748031497},{"duration":0.2608694999999983,"midi":65,"time":83.7391095,"velocity":0.7874015748031497},{"duration":0.13043474999999205,"midi":64,"time":83.999979,"velocity":0.7874015748031497},{"duration":0.13043474999999205,"midi":52,"time":83.999979,"velocity":0.7874015748031497},{"duration":0.2608694999999983,"midi":62,"time":84.13041374999999,"velocity":0.7874015748031497},{"duration":0.39130425000000457,"midi":61,"time":84.39128324999999,"velocity":0.7874015748031497},{"duration":0.2608694999999983,"midi":64,"time":84.78258749999999,"velocity":0.7874015748031497},{"duration":0.13043475000000626,"midi":62,"time":85.04345699999999,"velocity":0.7874015748031497},{"duration":0.13043475000000626,"midi":58,"time":85.04345699999999,"velocity":0.7874015748031497},{"duration":0.13043474999999205,"midi":65,"time":85.17389175,"velocity":0.7874015748031497},{"duration":0.13043475000000626,"midi":64,"time":85.30432649999999,"velocity":0.7874015748031497},{"duration":0.13043474999999205,"midi":65,"time":85.43476125,"velocity":0.7874015748031497},{"duration":0.2608695000000125,"midi":62,"time":85.56519599999999,"velocity":0.7874015748031497},{"duration":0.2608694999999983,"midi":58,"time":85.95650024999999,"velocity":0.7874015748031497},{"duration":0.2608694999999983,"midi":62,"time":85.95650024999999,"velocity":0.7874015748031497},{"duration":0.13043475000000626,"midi":64,"time":86.21736974999999,"velocity":0.7874015748031497},{"duration":0.13043474999999205,"midi":65,"time":86.3478045,"velocity":0.7874015748031497},{"duration":0.13043475000000626,"midi":72,"time":86.47823924999999,"velocity":0.7874015748031497},{"duration":0.5217389999999966,"midi":69,"time":86.608674,"velocity":0.7874015748031497},{"duration":0.13043475000000626,"midi":60,"time":87.13041299999999,"velocity":0.7874015748031497},{"duration":0.13043475000000626,"midi":62,"time":87.13041299999999,"velocity":0.7874015748031497},{"duration":0.13043474999999205,"midi":65,"time":87.26084775,"velocity":0.7874015748031497},{"duration":0.13043475000000626,"midi":64,"time":87.39128249999999,"velocity":0.7874015748031497},{"duration":0.13043474999999205,"midi":65,"time":87.52171725,"velocity":0.7874015748031497},{"duration":0.2608694999999983,"midi":62,"time":87.65215199999999,"velocity":0.7874015748031497},{"duration":0.2608694999999983,"midi":60,"time":88.04345624999999,"velocity":0.7874015748031497},{"duration":0.2608694999999983,"midi":62,"time":88.04345624999999,"velocity":0.7874015748031497},{"duration":0.13043475000000626,"midi":64,"time":88.30432574999999,"velocity":0.7874015748031497},{"duration":0.13043474999999205,"midi":65,"time":88.4347605,"velocity":0.7874015748031497},{"duration":0.13043475000000626,"midi":72,"time":88.56519524999999,"velocity":0.7874015748031497},{"duration":0.5217389999999966,"midi":69,"time":88.69563,"velocity":0.7874015748031497},{"duration":0.13043475000000626,"midi":57,"time":89.21736899999999,"velocity":0.7874015748031497},{"duration":0.13043475000000626,"midi":62,"time":89.21736899999999,"velocity":0.7874015748031497},{"duration":0.13043474999999205,"midi":65,"time":89.34780375,"velocity":0.7874015748031497},{"duration":0.13043475000000626,"midi":64,"time":89.47823849999999,"velocity":0.7874015748031497},{"duration":0.13043474999999205,"midi":65,"time":89.60867325,"velocity":0.7874015748031497},{"duration":0.2608694999999983,"midi":62,"time":89.73910799999999,"velocity":0.7874015748031497},{"duration":0.2608694999999983,"midi":57,"time":90.13041224999999,"velocity":0.7874015748031497},{"duration":0.2608694999999983,"midi":62,"time":90.13041224999999,"velocity":0.7874015748031497},{"duration":0.13043475000000626,"midi":64,"time":90.39128174999999,"velocity":0.7874015748031497},{"duration":0.13043474999999205,"midi":65,"time":90.5217165,"velocity":0.7874015748031497},{"duration":0.13043475000000626,"midi":72,"time":90.65215124999999,"velocity":0.7874015748031497},{"duration":0.5217389999999966,"midi":69,"time":90.782586,"velocity":0.7874015748031497},{"duration":0.39130425000000457,"midi":52,"time":91.30432499999999,"velocity":0.7874015748031497},{"duration":0.39130425000000457,"midi":60,"time":91.30432499999999,"velocity":0.7874015748031497},{"duration":0.39130424999999036,"midi":67,"time":91.69562925,"velocity":0.7874015748031497},{"duration":0.2608694999999983,"midi":65,"time":92.08693349999999,"velocity":0.7874015748031497},{"duration":0.13043475000000626,"midi":52,"time":92.34780299999998,"velocity":0.7874015748031497},{"duration":0.13043475000000626,"midi":64,"time":92.34780299999998,"velocity":0.7874015748031497},{"duration":0.2608694999999983,"midi":62,"time":92.47823774999999,"velocity":0.7874015748031497},{"duration":0.39130425000000457,"midi":60,"time":92.73910724999999,"velocity":0.7874015748031497},{"duration":0.2608694999999983,"midi":64,"time":93.1304115,"velocity":0.7874015748031497},{"duration":0.13043475000000626,"midi":58,"time":93.39128099999999,"velocity":0.7874015748031497},{"duration":0.13043475000000626,"midi":62,"time":93.39128099999999,"velocity":0.7874015748031497},{"duration":0.13043474999999205,"midi":65,"time":93.52171575,"velocity":0.7874015748031497},{"duration":0.13043475000000626,"midi":64,"time":93.65215049999999,"velocity":0.7874015748031497},{"duration":0.13043474999999205,"midi":65,"time":93.78258525,"velocity":0.7874015748031497},{"duration":0.2608694999999983,"midi":62,"time":93.91301999999999,"velocity":0.7874015748031497},{"duration":0.2608694999999983,"midi":58,"time":94.30432425,"velocity":0.7874015748031497},{"duration":0.2608694999999983,"midi":62,"time":94.30432425,"velocity":0.7874015748031497},{"duration":0.13043475000000626,"midi":64,"time":94.56519374999999,"velocity":0.7874015748031497},{"duration":0.13043474999999205,"midi":65,"time":94.6956285,"velocity":0.7874015748031497},{"duration":0.13043475000000626,"midi":72,"time":94.82606324999999,"velocity":0.7874015748031497},{"duration":0.5217389999999966,"midi":69,"time":94.956498,"velocity":0.7874015748031497},{"duration":0.13043474999999205,"midi":62,"time":95.478237,"velocity":0.7874015748031497},{"duration":0.13043474999999205,"midi":60,"time":95.478237,"velocity":0.7874015748031497},{"duration":0.13043475000000626,"midi":65,"time":95.60867174999998,"velocity":0.7874015748031497},{"duration":0.13043475000000626,"midi":64,"time":95.73910649999999,"velocity":0.7874015748031497},{"duration":0.13043474999999205,"midi":65,"time":95.86954125,"velocity":0.7874015748031497},{"duration":0.2608694999999983,"midi":62,"time":95.99997599999999,"velocity":0.7874015748031497},{"duration":0.2608694999999983,"midi":60,"time":96.39128025,"velocity":0.7874015748031497},{"duration":0.2608694999999983,"midi":62,"time":96.39128025,"velocity":0.7874015748031497},{"duration":0.13043474999999205,"midi":64,"time":96.65214974999999,"velocity":0.7874015748031497},{"duration":0.13043475000000626,"midi":65,"time":96.78258449999998,"velocity":0.7874015748031497},{"duration":0.13043475000000626,"midi":72,"time":96.91301924999999,"velocity":0.7874015748031497},{"duration":0.5217389999999966,"midi":69,"time":97.043454,"velocity":0.7874015748031497},{"duration":0.13043474999999205,"midi":57,"time":97.565193,"velocity":0.7874015748031497},{"duration":0.13043474999999205,"midi":62,"time":97.565193,"velocity":0.7874015748031497},{"duration":0.13043475000000626,"midi":65,"time":97.69562774999999,"velocity":0.7874015748031497},{"duration":0.13043475000000626,"midi":64,"time":97.82606249999999,"velocity":0.7874015748031497},{"duration":0.13043474999999205,"midi":65,"time":97.95649725,"velocity":0.7874015748031497},{"duration":0.2608694999999983,"midi":62,"time":98.08693199999999,"velocity":0.7874015748031497},{"duration":0.2608694999999983,"midi":62,"time":98.47823625,"velocity":0.7874015748031497},{"duration":0.2608694999999983,"midi":57,"time":98.47823625,"velocity":0.7874015748031497},{"duration":0.13043474999999205,"midi":64,"time":98.73910575,"velocity":0.7874015748031497},{"duration":0.13043475000000626,"midi":65,"time":98.86954049999999,"velocity":0.7874015748031497},{"duration":0.13043475000000626,"midi":72,"time":98.99997524999999,"velocity":0.7874015748031497},{"duration":0.5217389999999966,"midi":69,"time":99.13041,"velocity":0.7874015748031497},{"duration":0.39130424999999036,"midi":61,"time":99.652149,"velocity":0.7874015748031497},{"duration":0.39130425000000457,"midi":67,"time":100.04345324999998,"velocity":0.7874015748031497},{"duration":0.2608694999999983,"midi":65,"time":100.43475749999999,"velocity":0.7874015748031497},{"duration":0.13043475000000626,"midi":64,"time":100.69562699999999,"velocity":0.7874015748031497},{"duration":0.2608694999999983,"midi":62,"time":100.82606175,"velocity":0.7874015748031497},{"duration":0.39130425000000457,"midi":61,"time":101.08693124999999,"velocity":0.7874015748031497},{"duration":0.2608694999999983,"midi":64,"time":101.4782355,"velocity":0.7874015748031497},{"duration":0.13043474999999205,"midi":58,"time":101.739105,"velocity":0.7874015748031497},{"duration":1.4347822499999978,"midi":62,"time":101.86953974999999,"velocity":0.7874015748031497},{"duration":0.2608695000000125,"midi":57,"time":103.30432199999998,"velocity":0.7874015748031497},{"duration":0.13043474999999205,"midi":60,"time":103.5651915,"velocity":0.7874015748031497},{"duration":0.13043474999999205,"midi":60,"time":103.826061,"velocity":0.7874015748031497},{"duration":0.6521737500000029,"midi":62,"time":103.95649574999999,"velocity":0.7874015748031497},{"duration":0.2608694999999983,"midi":65,"time":104.60866949999999,"velocity":0.7874015748031497},{"duration":0.13043475000000626,"midi":67,"time":104.86953899999999,"velocity":0.7874015748031497},{"duration":0.2608694999999983,"midi":65,"time":104.99997375,"velocity":0.7874015748031497},{"duration":0.39130424999999036,"midi":64,"time":105.26084325,"velocity":0.7874015748031497},{"duration":0.2608695000000125,"midi":65,"time":105.65214749999998,"velocity":0.7874015748031497},{"duration":0.13043474999999205,"midi":57,"time":105.913017,"velocity":0.7874015748031497},{"duration":0.9130432500000012,"midi":62,"time":106.04345174999999,"velocity":0.7874015748031497},{"duration":0.13043475000000626,"midi":57,"time":106.95649499999999,"velocity":0.7874015748031497},{"duration":0.13043475000000626,"midi":57,"time":107.21736449999999,"velocity":0.7874015748031497},{"duration":0.13043474999999205,"midi":60,"time":107.34779925,"velocity":0.7874015748031497},{"duration":0.13043474999999205,"midi":60,"time":107.60866874999999,"velocity":0.7874015748031497},{"duration":0.2608695000000125,"midi":65,"time":107.73910349999998,"velocity":0.7874015748031497},{"duration":0.13043474999999205,"midi":60,"time":107.999973,"velocity":0.7874015748031497},{"duration":0.9130432500000012,"midi":64,"time":108.13040774999999,"velocity":0.7874015748031497},{"duration":0.39130425000000457,"midi":62,"time":109.04345099999999,"velocity":0.7874015748031497},{"duration":0.39130424999999036,"midi":65,"time":109.43475525,"velocity":0.7874015748031497},{"duration":0.2608694999999983,"midi":67,"time":109.82605949999999,"velocity":0.7874015748031497},{"duration":1.565217000000004,"midi":69,"time":110.08692899999998,"velocity":0.7874015748031497},{"duration":0.2608694999999983,"midi":65,"time":111.65214599999999,"velocity":0.7874015748031497},{"duration":0.13043475000000626,"midi":67,"time":111.91301549999999,"velocity":0.7874015748031497},{"duration":0.7826085000000091,"midi":69,"time":112.17388499999998,"velocity":0.7874015748031497},{"duration":0.2608694999999983,"midi":67,"time":112.9564935,"velocity":0.7874015748031497},{"duration":0.2608694999999983,"midi":65,"time":113.21736299999999,"velocity":0.7874015748031497},{"duration":0.13043475000000626,"midi":67,"time":113.47823249999999,"velocity":0.7874015748031497},{"duration":0.39130424999999036,"midi":64,"time":113.60866725,"velocity":0.7874015748031497},{"duration":1.565217000000004,"midi":62,"time":114.26084099999999,"velocity":0.7874015748031497},{"duration":0.2608694999999983,"midi":65,"time":115.82605799999999,"velocity":0.7874015748031497},{"duration":0.13043475000000626,"midi":67,"time":116.08692749999999,"velocity":0.7874015748031497},{"duration":0.7826085000000091,"midi":69,"time":116.34779699999999,"velocity":0.7874015748031497},{"duration":0.2608694999999983,"midi":67,"time":117.1304055,"velocity":0.7874015748031497},{"duration":0.2608694999999983,"midi":65,"time":117.391275,"velocity":0.7874015748031497},{"duration":0.13043474999999205,"midi":67,"time":117.65214449999999,"velocity":0.7874015748031497},{"duration":0.39130425000000457,"midi":64,"time":117.78257924999998,"velocity":0.7874015748031497},{"duration":0.13043475000000626,"midi":72,"time":118.17388349999999,"velocity":0.7874015748031497},{"duration":1.565217000000004,"midi":69,"time":118.43475299999999,"velocity":0.7874015748031497},{"duration":0.2608694999999983,"midi":65,"time":119.99996999999999,"velocity":0.7874015748031497},{"duration":0.13043475000000626,"midi":67,"time":120.26083949999999,"velocity":0.7874015748031497},{"duration":0.7826084999999949,"midi":69,"time":120.52170899999999,"velocity":0.7874015748031497},{"duration":0.2608695000000125,"midi":67,"time":121.30431749999998,"velocity":0.7874015748031497},{"duration":0.2608694999999983,"midi":65,"time":121.565187,"velocity":0.7874015748031497},{"duration":0.13043474999999205,"midi":67,"time":121.82605649999999,"velocity":0.7874015748031497},{"duration":0.39130425000000457,"midi":64,"time":121.95649124999998,"velocity":0.7874015748031497},{"duration":0.13043475000000626,"midi":60,"time":122.34779549999999,"velocity":0.7874015748031497},{"duration":2.0869560000000007,"midi":62,"time":122.60866499999999,"velocity":0.7874015748031497},{"duration":0.13043475000000626,"midi":74,"time":135.13040099999998,"velocity":0.7874015748031497},{"duration":0.13043475000000626,"midi":77,"time":135.13040099999998,"velocity":0.7874015748031497},{"duration":0.13043475000000626,"midi":76,"time":135.26083574999998,"velocity":0.7874015748031497},{"duration":0.13043475000000626,"midi":74,"time":135.3912705,"velocity":0.7874015748031497},{"duration":0.13043474999997784,"midi":72,"time":135.52170525,"velocity":0.7874015748031497},{"duration":0.2608695000000125,"midi":74,"time":135.65213999999997,"velocity":0.7874015748031497},{"duration":0.2608695000000125,"midi":69,"time":135.9130095,"velocity":0.7874015748031497},{"duration":0.2608694999999841,"midi":67,"time":136.173879,"velocity":0.7874015748031497},{"duration":0.39130424999999036,"midi":71,"time":136.173879,"velocity":0.7874015748031497},{"duration":0.39130424999999036,"midi":67,"time":136.56518325,"velocity":0.7874015748031497},{"duration":0.13043475000000626,"midi":62,"time":136.95648749999998,"velocity":0.7874015748031497},{"duration":0.13043475000000626,"midi":64,"time":137.08692225,"velocity":0.7874015748031497},{"duration":0.39130424999999036,"midi":65,"time":137.217357,"velocity":0.7874015748031497},{"duration":0.2608695000000125,"midi":67,"time":137.60866124999998,"velocity":0.7874015748031497},{"duration":0.13043474999997784,"midi":62,"time":137.86953075,"velocity":0.7874015748031497},{"duration":0.2608695000000125,"midi":72,"time":137.99996549999997,"velocity":0.7874015748031497},{"duration":1.0434779999999932,"midi":69,"time":138.260835,"velocity":0.7874015748031497},{"duration":0.13043475000000626,"midi":77,"time":139.30431299999998,"velocity":0.7874015748031497},{"duration":0.13043475000000626,"midi":74,"time":139.30431299999998,"velocity":0.7874015748031497},{"duration":0.13043475000000626,"midi":76,"time":139.43474774999999,"velocity":0.7874015748031497},{"duration":0.13043475000000626,"midi":74,"time":139.5651825,"velocity":0.7874015748031497},{"duration":0.13043474999997784,"midi":72,"time":139.69561725,"velocity":0.7874015748031497},{"duration":0.2608695000000125,"midi":74,"time":139.82605199999998,"velocity":0.7874015748031497},{"duration":0.2608695000000125,"midi":69,"time":140.0869215,"velocity":0.7874015748031497},{"duration":0.2608694999999841,"midi":67,"time":140.347791,"velocity":0.7874015748031497},{"duration":0.39130424999999036,"midi":71,"time":140.347791,"velocity":0.7874015748031497},{"duration":0.39130424999999036,"midi":67,"time":140.73909525,"velocity":0.7874015748031497},{"duration":0.13043475000000626,"midi":62,"time":141.13039949999998,"velocity":0.7874015748031497},{"duration":0.13043475000000626,"midi":64,"time":141.26083425,"velocity":0.7874015748031497},{"duration":0.39130424999999036,"midi":62,"time":141.391269,"velocity":0.7874015748031497},{"duration":0.39130424999999036,"midi":65,"time":141.391269,"velocity":0.7874015748031497},{"duration":0.2608695000000125,"midi":64,"time":141.78257324999998,"velocity":0.7874015748031497},{"duration":0.13043474999997784,"midi":60,"time":142.04344275,"velocity":0.7874015748031497},{"duration":0.2608695000000125,"midi":64,"time":142.17387749999997,"velocity":0.7874015748031497},{"duration":1.0434779999999932,"midi":62,"time":142.434747,"velocity":0.7874015748031497},{"duration":0.06521737500000313,"midi":63,"time":143.47822499999998,"velocity":0.7874015748031497},{"duration":0.06521737500000313,"midi":67,"time":143.47822499999998,"velocity":0.7874015748031497},{"duration":0.06521737500000313,"midi":65,"time":143.60865975,"velocity":0.7874015748031497},{"duration":0.06521737500000313,"midi":63,"time":143.7390945,"velocity":0.7874015748031497},{"duration":0.06521737499997471,"midi":62,"time":143.86952925,"velocity":0.7874015748031497},{"duration":0.06521737500000313,"midi":60,"time":143.99996399999998,"velocity":0.7874015748031497},{"duration":0.06521737500000313,"midi":63,"time":143.99996399999998,"velocity":0.7874015748031497},{"duration":0.06521737500000313,"midi":62,"time":144.13039874999998,"velocity":0.7874015748031497},{"duration":0.06521737500000313,"midi":60,"time":144.2608335,"velocity":0.7874015748031497},{"duration":0.06521737500000313,"midi":63,"time":144.39126825,"velocity":0.7874015748031497},{"duration":0.32608687500001565,"midi":62,"time":144.52170299999997,"velocity":0.7874015748031497},{"duration":0.32608687500001565,"midi":57,"time":144.52170299999997,"velocity":0.7874015748031497},{"duration":0.32608687499998723,"midi":57,"time":144.91300725,"velocity":0.7874015748031497},{"duration":0.06521737500000313,"midi":57,"time":145.30431149999998,"velocity":0.7874015748031497},{"duration":0.06521737500000313,"midi":62,"time":145.43474625,"velocity":0.7874015748031497},{"duration":0.06521737500000313,"midi":67,"time":145.565181,"velocity":0.7874015748031497},{"duration":0.06521737500000313,"midi":63,"time":145.565181,"velocity":0.7874015748031497},{"duration":0.06521737500000313,"midi":65,"time":145.69561574999997,"velocity":0.7874015748031497},{"duration":0.06521737500000313,"midi":63,"time":145.82605049999998,"velocity":0.7874015748031497},{"duration":0.06521737500000313,"midi":62,"time":145.95648525,"velocity":0.7874015748031497},{"duration":0.06521737500000313,"midi":57,"time":146.08692,"velocity":0.7874015748031497},{"duration":0.06521737500000313,"midi":60,"time":146.08692,"velocity":0.7874015748031497},{"duration":0.06521737499997471,"midi":70,"time":146.21735475,"velocity":0.7874015748031497},{"duration":0.06521737500000313,"midi":69,"time":146.34778949999998,"velocity":0.7874015748031497},{"duration":0.06521737500000313,"midi":67,"time":146.47822424999998,"velocity":0.7874015748031497},{"duration":0.1956521250000094,"midi":62,"time":146.608659,"velocity":0.7874015748031497},{"duration":0.1956521250000094,"midi":65,"time":146.608659,"velocity":0.7874015748031497},{"duration":0.1956521250000094,"midi":64,"time":146.86952849999997,"velocity":0.7874015748031497},{"duration":0.1956521250000094,"midi":67,"time":146.86952849999997,"velocity":0.7874015748031497},{"duration":0.32608687499998723,"midi":69,"time":147.13039799999999,"velocity":0.7874015748031497},{"duration":0.32608687499998723,"midi":65,"time":147.13039799999999,"velocity":0.7874015748031497},{"duration":0.06521737500000313,"midi":71,"time":147.52170224999998,"velocity":0.7874015748031497},{"duration":0.06521737500000313,"midi":69,"time":147.65213699999998,"velocity":0.7874015748031497},{"duration":0.06521737500000313,"midi":72,"time":147.65213699999998,"velocity":0.7874015748031497},{"duration":0.06521737500000313,"midi":71,"time":147.78257175,"velocity":0.7874015748031497},{"duration":0.06521737500000313,"midi":69,"time":147.9130065,"velocity":0.7874015748031497},{"duration":0.06521737499997471,"midi":67,"time":148.04344125,"velocity":0.7874015748031497},{"duration":0.06521737500000313,"midi":65,"time":148.17387599999998,"velocity":0.7874015748031497},{"duration":0.06521737500000313,"midi":69,"time":148.17387599999998,"velocity":0.7874015748031497},{"duration":0.06521737500000313,"midi":67,"time":148.30431074999998,"velocity":0.7874015748031497},{"duration":0.06521737500000313,"midi":69,"time":148.4347455,"velocity":0.7874015748031497},{"duration":0.06521737500000313,"midi":71,"time":148.56518025,"velocity":0.7874015748031497},{"duration":0.32608687500001565,"midi":65,"time":148.69561499999998,"velocity":0.7874015748031497},{"duration":0.32608687500001565,"midi":69,"time":148.69561499999998,"velocity":0.7874015748031497},{"duration":0.32608687499998723,"midi":62,"time":149.08691925,"velocity":0.7874015748031497},{"duration":0.32608687499998723,"midi":57,"time":149.08691925,"velocity":0.7874015748031497},{"duration":0.06521737500000313,"midi":62,"time":149.47822349999998,"velocity":0.7874015748031497},{"duration":0.06521737500000313,"midi":64,"time":149.60865825,"velocity":0.7874015748031497},{"duration":0.32608687499998723,"midi":65,"time":149.739093,"velocity":0.7874015748031497},{"duration":0.32608687499998723,"midi":67,"time":150.13039725,"velocity":0.7874015748031497},{"duration":0.06521737500000313,"midi":70,"time":150.52170149999998,"velocity":0.7874015748031497},{"duration":0.06521737500000313,"midi":69,"time":150.782571,"velocity":0.7874015748031497},{"duration":0.06521737500000313,"midi":64,"time":151.04344049999997,"velocity":0.7874015748031497},{"duration":0.06521737500000313,"midi":61,"time":151.30431,"velocity":0.7874015748031497},{"duration":0.06521737499997471,"midi":57,"time":151.5651795,"velocity":0.7874015748031497},{"duration":0.06521737500000313,"midi":63,"time":151.82604899999998,"velocity":0.7874015748031497},{"duration":0.06521737500000313,"midi":67,"time":151.82604899999998,"velocity":0.7874015748031497},{"duration":0.06521737500000313,"midi":65,"time":151.95648375,"velocity":0.7874015748031497},{"duration":0.06521737500000313,"midi":63,"time":152.0869185,"velocity":0.7874015748031497},{"duration":0.06521737500000313,"midi":62,"time":152.21735324999997,"velocity":0.7874015748031497},{"duration":0.06521737500000313,"midi":60,"time":152.34778799999998,"velocity":0.7874015748031497},{"duration":0.06521737500000313,"midi":63,"time":152.34778799999998,"velocity":0.7874015748031497},{"duration":0.06521737500000313,"midi":62,"time":152.47822275,"velocity":0.7874015748031497},{"duration":0.06521737500000313,"midi":60,"time":152.6086575,"velocity":0.7874015748031497},{"duration":0.06521737499997471,"midi":63,"time":152.73909225,"velocity":0.7874015748031497},{"duration":0.32608687500001565,"midi":57,"time":152.86952699999998,"velocity":0.7874015748031497},{"duration":0.32608687500001565,"midi":62,"time":152.86952699999998,"velocity":0.7874015748031497},{"duration":0.32608687499998723,"midi":57,"time":153.26083125,"velocity":0.7874015748031497},{"duration":0.06521737500000313,"midi":57,"time":153.65213549999999,"velocity":0.7874015748031497},{"duration":0.06521737500000313,"midi":62,"time":153.78257025,"velocity":0.7874015748031497},{"duration":0.06521737499997471,"midi":63,"time":153.913005,"velocity":0.7874015748031497},{"duration":0.06521737499997471,"midi":67,"time":153.913005,"velocity":0.7874015748031497},{"duration":0.06521737500000313,"midi":65,"time":154.04343974999998,"velocity":0.7874015748031497},{"duration":0.06521737500000313,"midi":63,"time":154.17387449999998,"velocity":0.7874015748031497},{"duration":0.06521737500000313,"midi":62,"time":154.30430925,"velocity":0.7874015748031497},{"duration":0.06521737500000313,"midi":57,"time":154.434744,"velocity":0.7874015748031497},{"duration":0.06521737500000313,"midi":60,"time":154.434744,"velocity":0.7874015748031497},{"duration":0.06521737500000313,"midi":70,"time":154.56517874999997,"velocity":0.7874015748031497},{"duration":0.06521737500000313,"midi":69,"time":154.69561349999998,"velocity":0.7874015748031497},{"duration":0.06521737500000313,"midi":67,"time":154.82604824999999,"velocity":0.7874015748031497},{"duration":0.19565212499998097,"midi":62,"time":154.956483,"velocity":0.7874015748031497},{"duration":0.19565212499998097,"midi":65,"time":154.956483,"velocity":0.7874015748031497},{"duration":0.1956521250000094,"midi":67,"time":155.21735249999998,"velocity":0.7874015748031497},{"duration":0.1956521250000094,"midi":64,"time":155.21735249999998,"velocity":0.7874015748031497},{"duration":0.32608687499998723,"midi":65,"time":155.478222,"velocity":0.7874015748031497},{"duration":0.32608687499998723,"midi":69,"time":155.478222,"velocity":0.7874015748031497},{"duration":0.06521737500000313,"midi":71,"time":155.86952624999998,"velocity":0.7874015748031497},{"duration":0.06521737500000313,"midi":72,"time":155.99996099999998,"velocity":0.7874015748031497},{"duration":0.06521737500000313,"midi":69,"time":155.99996099999998,"velocity":0.7874015748031497},{"duration":0.06521737500000313,"midi":71,"time":156.13039575,"velocity":0.7874015748031497},{"duration":0.06521737499997471,"midi":69,"time":156.2608305,"velocity":0.7874015748031497},{"duration":0.06521737500000313,"midi":67,"time":156.39126524999998,"velocity":0.7874015748031497},{"duration":0.06521737500000313,"midi":69,"time":156.52169999999998,"velocity":0.7874015748031497},{"duration":0.06521737500000313,"midi":65,"time":156.52169999999998,"velocity":0.7874015748031497},{"duration":0.06521737500000313,"midi":67,"time":156.65213475,"velocity":0.7874015748031497},{"duration":0.06521737500000313,"midi":69,"time":156.7825695,"velocity":0.7874015748031497},{"duration":0.06521737500000313,"midi":71,"time":156.91300424999997,"velocity":0.7874015748031497},{"duration":0.3913042500000188,"midi":69,"time":157.04343899999998,"velocity":0.7874015748031497},{"duration":0.3913042500000188,"midi":65,"time":157.04343899999998,"velocity":0.7874015748031497},{"duration":0.39130424999999036,"midi":57,"time":157.43474325,"velocity":0.7874015748031497},{"duration":0.2608694999999841,"midi":62,"time":157.43474325,"velocity":0.7874015748031497},{"duration":0.13043475000000626,"midi":62,"time":157.8260475,"velocity":0.7874015748031497},{"duration":0.13043475000000626,"midi":64,"time":157.95648225,"velocity":0.7874015748031497},{"duration":0.39130424999999036,"midi":58,"time":158.086917,"velocity":0.7874015748031497},{"duration":0.39130424999999036,"midi":65,"time":158.086917,"velocity":0.7874015748031497},{"duration":0.39130424999999036,"midi":64,"time":158.47822125,"velocity":0.7874015748031497},{"duration":0.2608695000000125,"midi":60,"time":158.86952549999998,"velocity":0.7874015748031497},{"duration":0.7826084999999807,"midi":58,"time":159.130395,"velocity":0.7874015748031497},{"duration":0.6521737500000029,"midi":62,"time":159.130395,"velocity":0.7874015748031497},{"duration":0.7826084999999807,"midi":53,"time":159.130395,"velocity":0.7874015748031497},{"duration":0.13043475000000626,"midi":62,"time":159.91300349999997,"velocity":0.7874015748031497},{"duration":0.13043475000000626,"midi":64,"time":160.04343824999998,"velocity":0.7874015748031497},{"duration":0.39130424999999036,"midi":60,"time":160.173873,"velocity":0.7874015748031497},{"duration":0.39130424999999036,"midi":65,"time":160.173873,"velocity":0.7874015748031497},{"duration":0.3913042500000188,"midi":64,"time":160.56517724999998,"velocity":0.7874015748031497},{"duration":0.2608694999999841,"midi":60,"time":160.9564815,"velocity":0.7874015748031497},{"duration":0.6521737500000029,"midi":62,"time":161.21735099999998,"velocity":0.7874015748031497},{"duration":0.13043475000000626,"midi":62,"time":161.9999595,"velocity":0.7874015748031497},{"duration":0.13043474999997784,"midi":64,"time":162.13039425,"velocity":0.7874015748031497},{"duration":0.3913042500000188,"midi":58,"time":162.26082899999997,"velocity":0.7874015748031497},{"duration":0.3913042500000188,"midi":65,"time":162.26082899999997,"velocity":0.7874015748031497},{"duration":0.39130424999999036,"midi":64,"time":162.65213325,"velocity":0.7874015748031497},{"duration":0.2608695000000125,"midi":60,"time":163.04343749999998,"velocity":0.7874015748031497},{"duration":0.7826084999999807,"midi":58,"time":163.304307,"velocity":0.7874015748031497},{"duration":0.6521737500000029,"midi":62,"time":163.304307,"velocity":0.7874015748031497},{"duration":0.7826084999999807,"midi":53,"time":163.304307,"velocity":0.7874015748031497},{"duration":0.13043475000000626,"midi":62,"time":164.08691549999998,"velocity":0.7874015748031497},{"duration":0.13043475000000626,"midi":64,"time":164.21735024999998,"velocity":0.7874015748031497},{"duration":0.39130424999999036,"midi":60,"time":164.347785,"velocity":0.7874015748031497},{"duration":0.39130424999999036,"midi":65,"time":164.347785,"velocity":0.7874015748031497},{"duration":0.3913042500000188,"midi":64,"time":164.73908924999998,"velocity":0.7874015748031497},{"duration":0.13043474999997784,"midi":60,"time":165.1303935,"velocity":0.7874015748031497},{"duration":0.7826085000000091,"midi":53,"time":165.39126299999998,"velocity":0.7874015748031497},{"duration":0.7826085000000091,"midi":62,"time":165.39126299999998,"velocity":0.7874015748031497},{"duration":0.2608694999999841,"midi":60,"time":166.1738715,"velocity":0.7874015748031497}]},{"instrument":{"family":"drums","number":0,"name":"standard kit"},"notes":[{"duration":0.13043474999999916,"midi":35,"time":18.260865,"velocity":0.7874015748031497},{"duration":0.13043474999999916,"midi":36,"time":18.391299749999998,"velocity":0.7874015748031497},{"duration":0.1304347500000027,"midi":38,"time":18.521734499999997,"velocity":0.7874015748031497},{"duration":0.1304347500000027,"midi":40,"time":18.521734499999997,"velocity":0.7874015748031497},{"duration":0.13043474999999916,"midi":36,"time":18.65216925,"velocity":0.7874015748031497},{"duration":0.13043474999999916,"midi":35,"time":18.782604,"velocity":0.7874015748031497},{"duration":0.13043474999999916,"midi":36,"time":18.91303875,"velocity":0.7874015748031497},{"duration":0.13043474999999916,"midi":38,"time":19.043473499999998,"velocity":0.7874015748031497},{"duration":0.13043474999999916,"midi":40,"time":19.043473499999998,"velocity":0.7874015748031497},{"duration":0.1304347500000027,"midi":36,"time":19.173908249999997,"velocity":0.7874015748031497},{"duration":0.13043474999999916,"midi":35,"time":19.304343,"velocity":0.7874015748031497},{"duration":0.13043474999999916,"midi":36,"time":19.43477775,"velocity":0.7874015748031497},{"duration":0.13043474999999916,"midi":40,"time":19.565212499999998,"velocity":0.7874015748031497},{"duration":0.13043474999999916,"midi":38,"time":19.565212499999998,"velocity":0.7874015748031497},{"duration":0.1304347500000027,"midi":36,"time":19.695647249999997,"velocity":0.7874015748031497},{"duration":0.13043474999999916,"midi":35,"time":19.826082,"velocity":0.7874015748031497},{"duration":0.13043474999999916,"midi":36,"time":19.95651675,"velocity":0.7874015748031497},{"duration":0.13043474999999916,"midi":40,"time":20.086951499999998,"velocity":0.7874015748031497},{"duration":0.13043474999999916,"midi":38,"time":20.086951499999998,"velocity":0.7874015748031497},{"duration":0.1304347500000027,"midi":36,"time":20.217386249999997,"velocity":0.7874015748031497},{"duration":0.13043474999999916,"midi":35,"time":20.347821,"velocity":0.7874015748031497},{"duration":0.13043474999999916,"midi":36,"time":20.47825575,"velocity":0.7874015748031497},{"duration":0.13043474999999916,"midi":38,"time":20.608690499999998,"velocity":0.7874015748031497},{"duration":0.13043474999999916,"midi":40,"time":20.608690499999998,"velocity":0.7874015748031497},{"duration":0.1304347500000027,"midi":36,"time":20.739125249999997,"velocity":0.7874015748031497},{"duration":0.13043474999999916,"midi":35,"time":20.86956,"velocity":0.7874015748031497},{"duration":0.13043474999999916,"midi":36,"time":20.99999475,"velocity":0.7874015748031497},{"duration":0.13043474999999916,"midi":40,"time":21.130429499999998,"velocity":0.7874015748031497},{"duration":0.13043474999999916,"midi":38,"time":21.130429499999998,"velocity":0.7874015748031497},{"duration":0.13043474999999916,"midi":36,"time":21.260864249999997,"velocity":0.7874015748031497},{"duration":0.1304347500000027,"midi":35,"time":21.391298999999997,"velocity":0.7874015748031497},{"duration":0.1304347500000027,"midi":35,"time":21.913037999999997,"velocity":0.7874015748031497},{"duration":0.1304347500000027,"midi":36,"time":21.913037999999997,"velocity":0.7874015748031497},{"duration":0.1304347500000027,"midi":35,"time":22.434776999999997,"velocity":0.7874015748031497},{"duration":0.13043474999999916,"midi":36,"time":22.56521175,"velocity":0.7874015748031497},{"duration":0.13043474999999916,"midi":38,"time":22.6956465,"velocity":0.7874015748031497},{"duration":0.13043474999999916,"midi":36,"time":22.826081249999998,"velocity":0.7874015748031497},{"duration":0.13043474999999916,"midi":35,"time":22.956515999999997,"velocity":0.7874015748031497},{"duration":0.1304347500000027,"midi":36,"time":23.086950749999996,"velocity":0.7874015748031497},{"duration":0.13043474999999916,"midi":38,"time":23.2173855,"velocity":0.7874015748031497},{"duration":0.13043474999999916,"midi":36,"time":23.347820249999998,"velocity":0.7874015748031497},{"duration":0.13043474999999916,"midi":35,"time":23.478254999999997,"velocity":0.7874015748031497},{"duration":0.1304347500000027,"midi":36,"time":23.608689749999996,"velocity":0.7874015748031497},{"duration":0.13043474999999916,"midi":38,"time":23.7391245,"velocity":0.7874015748031497},{"duration":0.13043474999999916,"midi":36,"time":23.86955925,"velocity":0.7874015748031497},{"duration":0.13043474999999916,"midi":35,"time":23.999993999999997,"velocity":0.7874015748031497},{"duration":0.1304347500000027,"midi":36,"time":24.130428749999997,"velocity":0.7874015748031497},{"duration":0.13043474999999916,"midi":38,"time":24.2608635,"velocity":0.7874015748031497},{"duration":0.13043474999999916,"midi":36,"time":24.39129825,"velocity":0.7874015748031497},{"duration":0.13043474999999916,"midi":35,"time":24.521732999999998,"velocity":0.7874015748031497},{"duration":0.1304347500000027,"midi":36,"time":24.652167749999997,"velocity":0.7874015748031497},{"duration":0.13043474999999916,"midi":38,"time":24.7826025,"velocity":0.7874015748031497},{"duration":0.13043474999999916,"midi":36,"time":24.91303725,"velocity":0.7874015748031497},{"duration":0.13043474999999916,"midi":35,"time":25.043471999999998,"velocity":0.7874015748031497},{"duration":0.13043474999999916,"midi":36,"time":25.173906749999997,"velocity":0.7874015748031497},{"duration":0.1304347500000027,"midi":38,"time":25.304341499999996,"velocity":0.7874015748031497},{"duration":0.13043474999999916,"midi":36,"time":25.43477625,"velocity":0.7874015748031497},{"duration":0.13043474999999916,"midi":35,"time":25.565210999999998,"velocity":0.7874015748031497},{"duration":0.13043474999999916,"midi":36,"time":26.086949999999998,"velocity":0.7874015748031497},{"duration":0.13043474999999916,"midi":35,"time":26.086949999999998,"velocity":0.7874015748031497},{"duration":0.13043474999999916,"midi":35,"time":26.608689,"velocity":0.7874015748031497},{"duration":0.13043474999999916,"midi":36,"time":26.739123749999997,"velocity":0.7874015748031497},{"duration":0.1304347500000027,"midi":38,"time":26.869558499999997,"velocity":0.7874015748031497},{"duration":0.1304347500000027,"midi":40,"time":26.869558499999997,"velocity":0.7874015748031497},{"duration":0.13043474999999916,"midi":36,"time":26.99999325,"velocity":0.7874015748031497},{"duration":0.13043474999999916,"midi":35,"time":27.130428,"velocity":0.7874015748031497},{"duration":0.13043474999999916,"midi":36,"time":27.260862749999998,"velocity":0.7874015748031497},{"duration":0.13043474999999916,"midi":38,"time":27.391297499999997,"velocity":0.7874015748031497},{"duration":0.13043474999999916,"midi":40,"time":27.391297499999997,"velocity":0.7874015748031497},{"duration":0.1304347500000027,"midi":36,"time":27.521732249999996,"velocity":0.7874015748031497},{"duration":0.13043474999999916,"midi":35,"time":27.652167,"velocity":0.7874015748031497},{"duration":0.13043474999999916,"midi":36,"time":27.782601749999998,"velocity":0.7874015748031497},{"duration":0.13043474999999916,"midi":38,"time":27.913036499999997,"velocity":0.7874015748031497},{"duration":0.13043474999999916,"midi":40,"time":27.913036499999997,"velocity":0.7874015748031497},{"duration":0.1304347500000027,"midi":36,"time":28.043471249999996,"velocity":0.7874015748031497},{"duration":0.13043474999999916,"midi":35,"time":28.173906,"velocity":0.7874015748031497},{"duration":0.13043474999999916,"midi":36,"time":28.304340749999998,"velocity":0.7874015748031497},{"duration":0.13043474999999916,"midi":40,"time":28.434775499999997,"velocity":0.7874015748031497},{"duration":0.13043474999999916,"midi":38,"time":28.434775499999997,"velocity":0.7874015748031497},{"duration":0.1304347500000027,"midi":36,"time":28.565210249999996,"velocity":0.7874015748031497},{"duration":0.13043474999999916,"midi":35,"time":28.695645,"velocity":0.7874015748031497},{"duration":0.13043474999999916,"midi":36,"time":28.826079749999998,"velocity":0.7874015748031497},{"duration":0.13043474999999916,"midi":38,"time":28.956514499999997,"velocity":0.7874015748031497},{"duration":0.13043474999999916,"midi":36,"time":29.086949249999996,"velocity":0.7874015748031497},{"duration":0.1304347500000027,"midi":35,"time":29.217383999999996,"velocity":0.7874015748031497},{"duration":0.13043474999999916,"midi":36,"time":29.34781875,"velocity":0.7874015748031497},{"duration":0.13043474999999916,"midi":38,"time":29.478253499999997,"velocity":0.7874015748031497},{"duration":0.13043474999999916,"midi":36,"time":29.608688249999997,"velocity":0.7874015748031497},{"duration":0.1304347500000027,"midi":35,"time":29.739122999999996,"velocity":0.7874015748031497},{"duration":0.13043474999999916,"midi":36,"time":29.86955775,"velocity":0.7874015748031497},{"duration":0.13043474999999916,"midi":38,"time":29.999992499999998,"velocity":0.7874015748031497},{"duration":0.13043474999999916,"midi":36,"time":30.130427249999997,"velocity":0.7874015748031497},{"duration":0.1304347500000027,"midi":35,"time":30.260861999999996,"velocity":0.7874015748031497},{"duration":0.13043474999999916,"midi":36,"time":30.39129675,"velocity":0.7874015748031497},{"duration":0.13043474999999916,"midi":38,"time":30.521731499999998,"velocity":0.7874015748031497},{"duration":0.1304347500000027,"midi":35,"time":30.782600999999996,"velocity":0.7874015748031497},{"duration":0.13043474999999916,"midi":36,"time":31.043470499999998,"velocity":0.7874015748031497},{"duration":0.13043474999999916,"midi":39,"time":31.304339999999996,"velocity":0.7874015748031497},{"duration":0.13043474999999916,"midi":38,"time":31.304339999999996,"velocity":0.7874015748031497},{"duration":0.13043474999999916,"midi":40,"time":31.304339999999996,"velocity":0.7874015748031497},{"duration":0.13043474999999916,"midi":36,"time":31.565209499999998,"velocity":0.7874015748031497},{"duration":0.13043474999999916,"midi":35,"time":31.826078999999996,"velocity":0.7874015748031497},{"duration":0.13043474999999916,"midi":36,"time":32.0869485,"velocity":0.7874015748031497},{"duration":0.13043474999999916,"midi":39,"time":32.347818,"velocity":0.7874015748031497},{"duration":0.13043474999999916,"midi":38,"time":32.347818,"velocity":0.7874015748031497},{"duration":0.13043474999999916,"midi":40,"time":32.347818,"velocity":0.7874015748031497},{"duration":0.13043474999999916,"midi":36,"time":32.608687499999995,"velocity":0.7874015748031497},{"duration":0.13043474999999916,"midi":51,"time":32.869557,"velocity":0.7874015748031497},{"duration":0.13043474999999916,"midi":53,"time":32.869557,"velocity":0.7874015748031497},{"duration":0.13043474999999916,"midi":57,"time":32.869557,"velocity":0.7874015748031497},{"duration":0.13043474999999916,"midi":35,"time":32.869557,"velocity":0.7874015748031497},{"duration":0.13043474999999916,"midi":40,"time":32.869557,"velocity":0.7874015748031497},{"duration":0.13043474999999916,"midi":49,"time":32.869557,"velocity":0.7874015748031497},{"duration":0.13043474999999916,"midi":42,"time":32.869557,"velocity":0.7874015748031497},{"duration":0.13043474999999916,"midi":44,"time":32.869557,"velocity":0.7874015748031497},{"duration":0.13043474999999916,"midi":36,"time":32.869557,"velocity":0.7874015748031497},{"duration":0.13043474999999916,"midi":46,"time":32.869557,"velocity":0.7874015748031497},{"duration":0.13043474999999916,"midi":59,"time":32.869557,"velocity":0.7874015748031497},{"duration":0.13043474999999916,"midi":38,"time":32.869557,"velocity":0.7874015748031497},{"duration":0.13043475000000626,"midi":36,"time":33.913034999999994,"velocity":0.7874015748031497},{"duration":0.13043475000000626,"midi":35,"time":33.913034999999994,"velocity":0.7874015748031497},{"duration":0.13043474999999916,"midi":36,"time":34.434774,"velocity":0.7874015748031497},{"duration":0.13043474999999916,"midi":38,"time":34.434774,"velocity":0.7874015748031497},{"duration":0.13043474999999916,"midi":35,"time":34.434774,"velocity":0.7874015748031497},{"duration":0.13043475000000626,"midi":35,"time":34.956512999999994,"velocity":0.7874015748031497},{"duration":0.13043474999999916,"midi":36,"time":35.08694775,"velocity":0.7874015748031497},{"duration":0.13043474999999916,"midi":38,"time":35.2173825,"velocity":0.7874015748031497},{"duration":0.13043474999999916,"midi":40,"time":35.2173825,"velocity":0.7874015748031497},{"duration":0.13043474999999916,"midi":36,"time":35.34781725,"velocity":0.7874015748031497},{"duration":0.13043474999999916,"midi":35,"time":35.478252,"velocity":0.7874015748031497},{"duration":0.13043474999999916,"midi":36,"time":35.60868675,"velocity":0.7874015748031497},{"duration":0.13043474999999916,"midi":40,"time":35.739121499999996,"velocity":0.7874015748031497},{"duration":0.13043474999999916,"midi":38,"time":35.739121499999996,"velocity":0.7874015748031497},{"duration":0.13043474999999916,"midi":36,"time":35.869556249999995,"velocity":0.7874015748031497},{"duration":0.13043474999999916,"midi":35,"time":35.999990999999994,"velocity":0.7874015748031497},{"duration":0.13043475000000626,"midi":36,"time":36.13042574999999,"velocity":0.7874015748031497},{"duration":0.13043474999999916,"midi":40,"time":36.2608605,"velocity":0.7874015748031497},{"duration":0.13043474999999916,"midi":38,"time":36.2608605,"velocity":0.7874015748031497},{"duration":0.13043474999999916,"midi":36,"time":36.39129525,"velocity":0.7874015748031497},{"duration":0.13043474999999916,"midi":35,"time":36.52173,"velocity":0.7874015748031497},{"duration":0.13043474999999916,"midi":36,"time":36.65216475,"velocity":0.7874015748031497},{"duration":0.13043474999999916,"midi":40,"time":36.782599499999996,"velocity":0.7874015748031497},{"duration":0.13043474999999916,"midi":38,"time":36.782599499999996,"velocity":0.7874015748031497},{"duration":0.13043474999999916,"midi":36,"time":36.913034249999995,"velocity":0.7874015748031497},{"duration":0.13043474999999916,"midi":35,"time":37.043468999999995,"velocity":0.7874015748031497},{"duration":0.13043475000000626,"midi":36,"time":37.173903749999994,"velocity":0.7874015748031497},{"duration":0.13043474999999916,"midi":40,"time":37.3043385,"velocity":0.7874015748031497},{"duration":0.13043474999999916,"midi":38,"time":37.3043385,"velocity":0.7874015748031497},{"duration":0.13043474999999916,"midi":36,"time":37.43477325,"velocity":0.7874015748031497},{"duration":0.13043474999999916,"midi":35,"time":37.565208,"velocity":0.7874015748031497},{"duration":0.13043474999999916,"midi":36,"time":37.69564275,"velocity":0.7874015748031497},{"duration":0.13043474999999916,"midi":40,"time":37.8260775,"velocity":0.7874015748031497},{"duration":0.13043474999999916,"midi":38,"time":37.8260775,"velocity":0.7874015748031497},{"duration":0.13043474999999916,"midi":36,"time":37.956512249999996,"velocity":0.7874015748031497},{"duration":0.13043474999999916,"midi":35,"time":38.086946999999995,"velocity":0.7874015748031497},{"duration":0.13043474999999916,"midi":35,"time":38.608686,"velocity":0.7874015748031497},{"duration":0.13043474999999916,"midi":36,"time":38.608686,"velocity":0.7874015748031497},{"duration":0.13043474999999916,"midi":35,"time":39.130424999999995,"velocity":0.7874015748031497},{"duration":0.13043474999999916,"midi":36,"time":39.260859749999995,"velocity":0.7874015748031497},{"duration":0.13043475000000626,"midi":38,"time":39.391294499999994,"velocity":0.7874015748031497},{"duration":0.13043474999999916,"midi":36,"time":39.52172925,"velocity":0.7874015748031497},{"duration":0.13043474999999916,"midi":35,"time":39.652164,"velocity":0.7874015748031497},{"duration":0.13043474999999916,"midi":36,"time":39.78259875,"velocity":0.7874015748031497},{"duration":0.13043474999999916,"midi":38,"time":39.9130335,"velocity":0.7874015748031497},{"duration":0.13043474999999916,"midi":36,"time":40.04346825,"velocity":0.7874015748031497},{"duration":0.13043474999999916,"midi":35,"time":40.173902999999996,"velocity":0.7874015748031497},{"duration":0.13043474999999916,"midi":36,"time":40.304337749999995,"velocity":0.7874015748031497},{"duration":0.13043474999999916,"midi":38,"time":40.434772499999994,"velocity":0.7874015748031497},{"duration":0.13043475000000626,"midi":36,"time":40.56520724999999,"velocity":0.7874015748031497},{"duration":0.13043474999999916,"midi":35,"time":40.695642,"velocity":0.7874015748031497},{"duration":0.13043474999999916,"midi":36,"time":40.82607675,"velocity":0.7874015748031497},{"duration":0.13043474999999916,"midi":38,"time":40.9565115,"velocity":0.7874015748031497},{"duration":0.13043474999999916,"midi":36,"time":41.08694625,"velocity":0.7874015748031497},{"duration":0.13043474999999916,"midi":35,"time":41.217380999999996,"velocity":0.7874015748031497},{"duration":0.13043474999999916,"midi":36,"time":41.347815749999995,"velocity":0.7874015748031497},{"duration":0.13043474999999916,"midi":38,"time":41.478250499999994,"velocity":0.7874015748031497},{"duration":0.13043475000000626,"midi":36,"time":41.60868524999999,"velocity":0.7874015748031497},{"duration":0.13043474999999916,"midi":35,"time":41.73912,"velocity":0.7874015748031497},{"duration":0.13043474999999916,"midi":36,"time":41.86955475,"velocity":0.7874015748031497},{"duration":0.13043474999999916,"midi":38,"time":41.9999895,"velocity":0.7874015748031497},{"duration":0.13043474999999916,"midi":36,"time":42.13042425,"velocity":0.7874015748031497},{"duration":0.13043474999999916,"midi":35,"time":42.260858999999996,"velocity":0.7874015748031497},{"duration":0.13043475000000626,"midi":35,"time":42.78259799999999,"velocity":0.7874015748031497},{"duration":0.13043475000000626,"midi":36,"time":42.78259799999999,"velocity":0.7874015748031497},{"duration":0.13043474999999916,"midi":35,"time":43.304337,"velocity":0.7874015748031497},{"duration":0.13043474999999916,"midi":36,"time":43.304337,"velocity":0.7874015748031497},{"duration":0.13043474999999916,"midi":36,"time":43.434771749999996,"velocity":0.7874015748031497},{"duration":0.13043474999999916,"midi":36,"time":45.391293,"velocity":0.7874015748031497},{"duration":0.13043474999999916,"midi":35,"time":45.391293,"velocity":0.7874015748031497},{"duration":0.13043474999999916,"midi":36,"time":45.52172775,"velocity":0.7874015748031497},{"duration":0.13043474999999916,"midi":36,"time":47.478249,"velocity":0.7874015748031497},{"duration":0.13043474999999916,"midi":35,"time":47.478249,"velocity":0.7874015748031497},{"duration":0.13043474999999916,"midi":36,"time":47.60868375,"velocity":0.7874015748031497},{"duration":0.13043474999999916,"midi":35,"time":48.521727,"velocity":0.7874015748031497},{"duration":0.13043474999999916,"midi":38,"time":48.521727,"velocity":0.7874015748031497},{"duration":0.13043474999999916,"midi":36,"time":48.521727,"velocity":0.7874015748031497},{"duration":0.13043474999999916,"midi":35,"time":49.565205,"velocity":0.7874015748031497},{"duration":0.13043474999999916,"midi":36,"time":49.565205,"velocity":0.7874015748031497},{"duration":0.13043474999999916,"midi":36,"time":49.69563975,"velocity":0.7874015748031497},{"duration":0.13043474999999916,"midi":52,"time":49.69563975,"velocity":0.7874015748031497},{"duration":0.13043474999999916,"midi":51,"time":49.8260745,"velocity":0.7874015748031497},{"duration":0.13043474999999916,"midi":40,"time":49.8260745,"velocity":0.7874015748031497},{"duration":0.13043474999999916,"midi":38,"time":49.8260745,"velocity":0.7874015748031497},{"duration":0.13043474999999916,"midi":59,"time":49.8260745,"velocity":0.7874015748031497},{"duration":0.13043474999999916,"midi":52,"time":49.8260745,"velocity":0.7874015748031497},{"duration":0.13043474999999916,"midi":42,"time":49.8260745,"velocity":0.7874015748031497},{"duration":0.13043474999999916,"midi":46,"time":49.8260745,"velocity":0.7874015748031497},{"duration":0.13043474999999916,"midi":44,"time":49.8260745,"velocity":0.7874015748031497},{"duration":0.13043474999999916,"midi":49,"time":49.8260745,"velocity":0.7874015748031497},{"duration":0.13043474999999916,"midi":53,"time":49.8260745,"velocity":0.7874015748031497},{"duration":0.13043474999999916,"midi":57,"time":49.8260745,"velocity":0.7874015748031497},{"duration":0.13043474999999916,"midi":38,"time":50.217378749999995,"velocity":0.7874015748031497},{"duration":0.13043474999999916,"midi":38,"time":50.47824824999999,"velocity":0.7874015748031497},{"duration":0.13043475000000626,"midi":36,"time":50.60868299999999,"velocity":0.7874015748031497},{"duration":0.13043475000000626,"midi":35,"time":50.60868299999999,"velocity":0.7874015748031497},{"duration":0.13043474999999916,"midi":38,"time":51.130421999999996,"velocity":0.7874015748031497},{"duration":0.13043474999999916,"midi":35,"time":51.130421999999996,"velocity":0.7874015748031497},{"duration":0.13043474999999916,"midi":36,"time":51.130421999999996,"velocity":0.7874015748031497},{"duration":0.13043475000000626,"midi":36,"time":51.65216099999999,"velocity":0.7874015748031497},{"duration":0.13043475000000626,"midi":35,"time":51.65216099999999,"velocity":0.7874015748031497},{"duration":0.13043474999999916,"midi":36,"time":52.04346525,"velocity":0.7874015748031497},{"duration":0.13043474999999916,"midi":35,"time":52.04346525,"velocity":0.7874015748031497},{"duration":0.13043474999999916,"midi":35,"time":52.434769499999994,"velocity":0.7874015748031497},{"duration":0.13043474999999916,"midi":36,"time":52.434769499999994,"velocity":0.7874015748031497},{"duration":0.13043474999999916,"midi":36,"time":52.69563899999999,"velocity":0.7874015748031497},{"duration":0.13043474999999916,"midi":35,"time":52.69563899999999,"velocity":0.7874015748031497},{"duration":0.13043474999999916,"midi":35,"time":53.73911699999999,"velocity":0.7874015748031497},{"duration":0.13043474999999916,"midi":36,"time":53.73911699999999,"velocity":0.7874015748031497},{"duration":0.13043474999999916,"midi":35,"time":54.78259499999999,"velocity":0.7874015748031497},{"duration":0.13043474999999916,"midi":36,"time":54.78259499999999,"velocity":0.7874015748031497},{"duration":0.13043474999999916,"midi":36,"time":55.826072999999994,"velocity":0.7874015748031497},{"duration":0.13043474999999916,"midi":35,"time":55.826072999999994,"velocity":0.7874015748031497},{"duration":0.13043474999999916,"midi":35,"time":56.869550999999994,"velocity":0.7874015748031497},{"duration":0.13043474999999916,"midi":36,"time":56.869550999999994,"velocity":0.7874015748031497},{"duration":0.13043474999999916,"midi":35,"time":57.913028999999995,"velocity":0.7874015748031497},{"duration":0.13043474999999916,"midi":36,"time":57.913028999999995,"velocity":0.7874015748031497},{"duration":0.13043474999999916,"midi":35,"time":58.956506999999995,"velocity":0.7874015748031497},{"duration":0.13043474999999916,"midi":36,"time":58.956506999999995,"velocity":0.7874015748031497},{"duration":0.13043474999999916,"midi":36,"time":59.999984999999995,"velocity":0.7874015748031497},{"duration":0.13043474999999916,"midi":35,"time":59.999984999999995,"velocity":0.7874015748031497},{"duration":0.13043474999999916,"midi":36,"time":61.043462999999996,"velocity":0.7874015748031497},{"duration":0.13043474999999916,"midi":35,"time":61.043462999999996,"velocity":0.7874015748031497},{"duration":0.13043474999999916,"midi":36,"time":62.086940999999996,"velocity":0.7874015748031497},{"duration":0.13043474999999916,"midi":35,"time":62.086940999999996,"velocity":0.7874015748031497},{"duration":0.13043474999999916,"midi":36,"time":63.130418999999996,"velocity":0.7874015748031497},{"duration":0.13043474999999916,"midi":35,"time":63.130418999999996,"velocity":0.7874015748031497},{"duration":0.13043474999999205,"midi":35,"time":64.173897,"velocity":0.7874015748031497},{"duration":0.13043474999999205,"midi":36,"time":64.173897,"velocity":0.7874015748031497},{"duration":0.13043475000000626,"midi":35,"time":65.21737499999999,"velocity":0.7874015748031497},{"duration":0.13043475000000626,"midi":36,"time":65.21737499999999,"velocity":0.7874015748031497},{"duration":0.13043474999999205,"midi":36,"time":66.260853,"velocity":0.7874015748031497},{"duration":0.13043474999999205,"midi":35,"time":66.260853,"velocity":0.7874015748031497},{"duration":0.13043475000000626,"midi":35,"time":67.30433099999999,"velocity":0.7874015748031497},{"duration":0.13043475000000626,"midi":36,"time":67.30433099999999,"velocity":0.7874015748031497},{"duration":0.13043474999999205,"midi":36,"time":68.347809,"velocity":0.7874015748031497},{"duration":0.13043474999999205,"midi":35,"time":68.347809,"velocity":0.7874015748031497},{"duration":0.13043474999999205,"midi":36,"time":68.869548,"velocity":0.7874015748031497},{"duration":0.13043474999999205,"midi":35,"time":68.869548,"velocity":0.7874015748031497},{"duration":0.13043474999999205,"midi":35,"time":69.26085225,"velocity":0.7874015748031497},{"duration":0.13043474999999205,"midi":36,"time":69.26085225,"velocity":0.7874015748031497},{"duration":0.13043475000000626,"midi":35,"time":69.91302599999999,"velocity":0.7874015748031497},{"duration":0.13043475000000626,"midi":36,"time":69.91302599999999,"velocity":0.7874015748031497},{"duration":0.13043474999999205,"midi":35,"time":70.434765,"velocity":0.7874015748031497},{"duration":0.13043474999999205,"midi":36,"time":70.434765,"velocity":0.7874015748031497},{"duration":0.13043474999999205,"midi":35,"time":70.956504,"velocity":0.7874015748031497},{"duration":0.13043474999999205,"midi":36,"time":70.956504,"velocity":0.7874015748031497},{"duration":0.13043474999999205,"midi":36,"time":71.34780825,"velocity":0.7874015748031497},{"duration":0.13043474999999205,"midi":35,"time":71.34780825,"velocity":0.7874015748031497},{"duration":0.13043475000000626,"midi":35,"time":71.99998199999999,"velocity":0.7874015748031497},{"duration":0.13043475000000626,"midi":36,"time":71.99998199999999,"velocity":0.7874015748031497},{"duration":0.13043474999999205,"midi":36,"time":72.521721,"velocity":0.7874015748031497},{"duration":0.13043474999999205,"midi":35,"time":72.521721,"velocity":0.7874015748031497},{"duration":0.13043474999999205,"midi":35,"time":73.04346,"velocity":0.7874015748031497},{"duration":0.13043474999999205,"midi":36,"time":73.04346,"velocity":0.7874015748031497},{"duration":0.13043475000000626,"midi":35,"time":73.43476424999999,"velocity":0.7874015748031497},{"duration":0.13043475000000626,"midi":36,"time":73.43476424999999,"velocity":0.7874015748031497},{"duration":0.13043475000000626,"midi":36,"time":74.08693799999999,"velocity":0.7874015748031497},{"duration":0.13043475000000626,"midi":35,"time":74.08693799999999,"velocity":0.7874015748031497},{"duration":0.13043474999999205,"midi":35,"time":74.608677,"velocity":0.7874015748031497},{"duration":0.13043474999999205,"midi":36,"time":74.608677,"velocity":0.7874015748031497},{"duration":0.13043475000000626,"midi":35,"time":75.652155,"velocity":0.7874015748031497},{"duration":0.13043475000000626,"midi":36,"time":75.652155,"velocity":0.7874015748031497},{"duration":0.13043475000000626,"midi":36,"time":76.69563299999999,"velocity":0.7874015748031497},{"duration":0.13043475000000626,"midi":35,"time":76.69563299999999,"velocity":0.7874015748031497},{"duration":0.13043474999999205,"midi":35,"time":77.217372,"velocity":0.7874015748031497},{"duration":0.13043474999999205,"midi":36,"time":77.217372,"velocity":0.7874015748031497},{"duration":0.13043475000000626,"midi":35,"time":77.60867624999999,"velocity":0.7874015748031497},{"duration":0.13043475000000626,"midi":36,"time":77.60867624999999,"velocity":0.7874015748031497},{"duration":0.13043475000000626,"midi":36,"time":78.26084999999999,"velocity":0.7874015748031497},{"duration":0.13043475000000626,"midi":35,"time":78.26084999999999,"velocity":0.7874015748031497},{"duration":0.13043475000000626,"midi":35,"time":78.78258899999999,"velocity":0.7874015748031497},{"duration":0.13043475000000626,"midi":36,"time":78.78258899999999,"velocity":0.7874015748031497},{"duration":0.13043474999999205,"midi":36,"time":79.304328,"velocity":0.7874015748031497},{"duration":0.13043474999999205,"midi":35,"time":79.304328,"velocity":0.7874015748031497},{"duration":0.13043475000000626,"midi":35,"time":79.69563224999999,"velocity":0.7874015748031497},{"duration":0.13043475000000626,"midi":36,"time":79.69563224999999,"velocity":0.7874015748031497},{"duration":0.13043475000000626,"midi":36,"time":80.34780599999999,"velocity":0.7874015748031497},{"duration":0.13043475000000626,"midi":35,"time":80.34780599999999,"velocity":0.7874015748031497},{"duration":0.13043475000000626,"midi":36,"time":80.86954499999999,"velocity":0.7874015748031497},{"duration":0.13043475000000626,"midi":35,"time":80.86954499999999,"velocity":0.7874015748031497},{"duration":0.13043474999999205,"midi":35,"time":81.391284,"velocity":0.7874015748031497},{"duration":0.13043474999999205,"midi":36,"time":81.391284,"velocity":0.7874015748031497},{"duration":0.13043475000000626,"midi":35,"time":81.78258824999999,"velocity":0.7874015748031497},{"duration":0.13043475000000626,"midi":36,"time":81.78258824999999,"velocity":0.7874015748031497},{"duration":0.13043475000000626,"midi":36,"time":82.43476199999999,"velocity":0.7874015748031497},{"duration":0.13043475000000626,"midi":35,"time":82.43476199999999,"velocity":0.7874015748031497},{"duration":0.13043475000000626,"midi":36,"time":82.95650099999999,"velocity":0.7874015748031497},{"duration":0.13043475000000626,"midi":35,"time":82.95650099999999,"velocity":0.7874015748031497},{"duration":0.13043474999999205,"midi":36,"time":83.999979,"velocity":0.7874015748031497},{"duration":0.13043474999999205,"midi":35,"time":83.999979,"velocity":0.7874015748031497},{"duration":0.13043475000000626,"midi":36,"time":85.04345699999999,"velocity":0.7874015748031497},{"duration":0.13043475000000626,"midi":35,"time":85.04345699999999,"velocity":0.7874015748031497},{"duration":0.13043475000000626,"midi":35,"time":85.56519599999999,"velocity":0.7874015748031497},{"duration":0.13043475000000626,"midi":36,"time":85.56519599999999,"velocity":0.7874015748031497},{"duration":0.13043475000000626,"midi":35,"time":85.95650024999999,"velocity":0.7874015748031497},{"duration":0.13043475000000626,"midi":36,"time":85.95650024999999,"velocity":0.7874015748031497},{"duration":0.13043474999999205,"midi":35,"time":86.608674,"velocity":0.7874015748031497},{"duration":0.13043474999999205,"midi":36,"time":86.608674,"velocity":0.7874015748031497},{"duration":0.13043475000000626,"midi":36,"time":87.13041299999999,"velocity":0.7874015748031497},{"duration":0.13043475000000626,"midi":35,"time":87.13041299999999,"velocity":0.7874015748031497},{"duration":0.13043475000000626,"midi":36,"time":87.65215199999999,"velocity":0.7874015748031497},{"duration":0.13043475000000626,"midi":35,"time":87.65215199999999,"velocity":0.7874015748031497},{"duration":0.13043475000000626,"midi":35,"time":88.04345624999999,"velocity":0.7874015748031497},{"duration":0.13043475000000626,"midi":36,"time":88.04345624999999,"velocity":0.7874015748031497},{"duration":0.13043474999999205,"midi":36,"time":88.69563,"velocity":0.7874015748031497},{"duration":0.13043474999999205,"midi":35,"time":88.69563,"velocity":0.7874015748031497},{"duration":0.13043475000000626,"midi":35,"time":89.21736899999999,"velocity":0.7874015748031497},{"duration":0.13043475000000626,"midi":36,"time":89.21736899999999,"velocity":0.7874015748031497},{"duration":0.13043475000000626,"midi":35,"time":89.73910799999999,"velocity":0.7874015748031497},{"duration":0.13043475000000626,"midi":36,"time":89.73910799999999,"velocity":0.7874015748031497},{"duration":0.13043475000000626,"midi":36,"time":90.13041224999999,"velocity":0.7874015748031497},{"duration":0.13043475000000626,"midi":35,"time":90.13041224999999,"velocity":0.7874015748031497},{"duration":0.13043474999999205,"midi":35,"time":90.782586,"velocity":0.7874015748031497},{"duration":0.13043474999999205,"midi":36,"time":90.782586,"velocity":0.7874015748031497},{"duration":0.13043475000000626,"midi":35,"time":91.30432499999999,"velocity":0.7874015748031497},{"duration":0.13043475000000626,"midi":36,"time":91.30432499999999,"velocity":0.7874015748031497},{"duration":0.13043475000000626,"midi":36,"time":92.34780299999998,"velocity":0.7874015748031497},{"duration":0.13043475000000626,"midi":35,"time":92.34780299999998,"velocity":0.7874015748031497},{"duration":0.13043475000000626,"midi":35,"time":93.39128099999999,"velocity":0.7874015748031497},{"duration":0.13043475000000626,"midi":36,"time":93.39128099999999,"velocity":0.7874015748031497},{"duration":0.13043475000000626,"midi":36,"time":93.91301999999999,"velocity":0.7874015748031497},{"duration":0.13043475000000626,"midi":35,"time":93.91301999999999,"velocity":0.7874015748031497},{"duration":0.13043474999999205,"midi":36,"time":94.30432425,"velocity":0.7874015748031497},{"duration":0.13043474999999205,"midi":35,"time":94.30432425,"velocity":0.7874015748031497},{"duration":0.13043474999999205,"midi":35,"time":94.956498,"velocity":0.7874015748031497},{"duration":0.13043474999999205,"midi":36,"time":94.956498,"velocity":0.7874015748031497},{"duration":0.13043474999999205,"midi":35,"time":95.478237,"velocity":0.7874015748031497},{"duration":0.13043474999999205,"midi":36,"time":95.478237,"velocity":0.7874015748031497},{"duration":0.13043475000000626,"midi":35,"time":95.99997599999999,"velocity":0.7874015748031497},{"duration":0.13043475000000626,"midi":36,"time":95.99997599999999,"velocity":0.7874015748031497},{"duration":0.13043474999999205,"midi":35,"time":96.39128025,"velocity":0.7874015748031497},{"duration":0.13043474999999205,"midi":36,"time":96.39128025,"velocity":0.7874015748031497},{"duration":0.13043474999999205,"midi":35,"time":97.043454,"velocity":0.7874015748031497},{"duration":0.13043474999999205,"midi":36,"time":97.043454,"velocity":0.7874015748031497},{"duration":0.13043474999999205,"midi":35,"time":97.565193,"velocity":0.7874015748031497},{"duration":0.13043474999999205,"midi":36,"time":97.565193,"velocity":0.7874015748031497},{"duration":0.13043475000000626,"midi":36,"time":98.08693199999999,"velocity":0.7874015748031497},{"duration":0.13043475000000626,"midi":35,"time":98.08693199999999,"velocity":0.7874015748031497},{"duration":0.13043474999999205,"midi":35,"time":98.47823625,"velocity":0.7874015748031497},{"duration":0.13043474999999205,"midi":36,"time":98.47823625,"velocity":0.7874015748031497},{"duration":0.13043474999999205,"midi":35,"time":99.13041,"velocity":0.7874015748031497},{"duration":0.13043474999999205,"midi":36,"time":99.13041,"velocity":0.7874015748031497},{"duration":0.13043474999999205,"midi":36,"time":99.652149,"velocity":0.7874015748031497},{"duration":0.13043474999999205,"midi":35,"time":99.652149,"velocity":0.7874015748031497},{"duration":0.13043474999999205,"midi":36,"time":99.91301849999999,"velocity":0.7874015748031497},{"duration":0.13043474999999205,"midi":35,"time":99.91301849999999,"velocity":0.7874015748031497},{"duration":0.13043475000000626,"midi":38,"time":100.17388799999999,"velocity":0.7874015748031497},{"duration":0.13043475000000626,"midi":36,"time":100.17388799999999,"velocity":0.7874015748031497},{"duration":0.13043475000000626,"midi":38,"time":100.43475749999999,"velocity":0.7874015748031497},{"duration":0.13043475000000626,"midi":36,"time":100.43475749999999,"velocity":0.7874015748031497},{"duration":0.13043475000000626,"midi":35,"time":100.43475749999999,"velocity":0.7874015748031497},{"duration":0.13043475000000626,"midi":36,"time":100.69562699999999,"velocity":0.7874015748031497},{"duration":0.13043475000000626,"midi":38,"time":100.69562699999999,"velocity":0.7874015748031497},{"duration":0.13043475000000626,"midi":35,"time":100.69562699999999,"velocity":0.7874015748031497},{"duration":0.13043475000000626,"midi":40,"time":100.69562699999999,"velocity":0.7874015748031497},{"duration":0.13043475000000626,"midi":35,"time":101.21736599999998,"velocity":0.7874015748031497},{"duration":0.13043475000000626,"midi":36,"time":101.21736599999998,"velocity":0.7874015748031497},{"duration":0.13043474999999205,"midi":35,"time":101.739105,"velocity":0.7874015748031497},{"duration":0.13043474999999205,"midi":36,"time":101.739105,"velocity":0.7874015748031497},{"duration":0.13043475000000626,"midi":35,"time":102.13040924999999,"velocity":0.7874015748031497},{"duration":0.13043475000000626,"midi":36,"time":102.13040924999999,"velocity":0.7874015748031497},{"duration":0.13043475000000626,"midi":35,"time":102.52171349999999,"velocity":0.7874015748031497},{"duration":0.13043475000000626,"midi":36,"time":102.52171349999999,"velocity":0.7874015748031497},{"duration":0.13043475000000626,"midi":35,"time":103.04345249999999,"velocity":0.7874015748031497},{"duration":0.13043475000000626,"midi":36,"time":103.04345249999999,"velocity":0.7874015748031497},{"duration":0.13043474999999205,"midi":35,"time":103.826061,"velocity":0.7874015748031497},{"duration":0.13043474999999205,"midi":36,"time":103.826061,"velocity":0.7874015748031497},{"duration":0.13043475000000626,"midi":36,"time":104.21736524999999,"velocity":0.7874015748031497},{"duration":0.13043475000000626,"midi":35,"time":104.21736524999999,"velocity":0.7874015748031497},{"duration":0.13043475000000626,"midi":36,"time":104.60866949999999,"velocity":0.7874015748031497},{"duration":0.13043475000000626,"midi":35,"time":104.60866949999999,"velocity":0.7874015748031497},{"duration":0.13043475000000626,"midi":35,"time":104.86953899999999,"velocity":0.7874015748031497},{"duration":0.13043475000000626,"midi":36,"time":104.86953899999999,"velocity":0.7874015748031497},{"duration":0.13043475000000626,"midi":35,"time":105.39127799999999,"velocity":0.7874015748031497},{"duration":0.13043475000000626,"midi":36,"time":105.39127799999999,"velocity":0.7874015748031497},{"duration":0.13043474999999205,"midi":36,"time":105.913017,"velocity":0.7874015748031497},{"duration":0.13043474999999205,"midi":35,"time":105.913017,"velocity":0.7874015748031497},{"duration":0.13043475000000626,"midi":35,"time":106.30432124999999,"velocity":0.7874015748031497},{"duration":0.13043475000000626,"midi":36,"time":106.30432124999999,"velocity":0.7874015748031497},{"duration":0.13043474999999205,"midi":35,"time":106.69562549999999,"velocity":0.7874015748031497},{"duration":0.13043474999999205,"midi":36,"time":106.69562549999999,"velocity":0.7874015748031497},{"duration":0.13043475000000626,"midi":36,"time":107.21736449999999,"velocity":0.7874015748031497},{"duration":0.13043475000000626,"midi":35,"time":107.21736449999999,"velocity":0.7874015748031497},{"duration":0.13043474999999205,"midi":35,"time":107.999973,"velocity":0.7874015748031497},{"duration":0.13043474999999205,"midi":36,"time":107.999973,"velocity":0.7874015748031497},{"duration":0.13043475000000626,"midi":35,"time":108.39127724999999,"velocity":0.7874015748031497},{"duration":0.13043475000000626,"midi":36,"time":108.39127724999999,"velocity":0.7874015748031497},{"duration":0.13043474999999205,"midi":36,"time":108.78258149999999,"velocity":0.7874015748031497},{"duration":0.13043474999999205,"midi":35,"time":108.78258149999999,"velocity":0.7874015748031497},{"duration":0.13043475000000626,"midi":35,"time":109.04345099999999,"velocity":0.7874015748031497},{"duration":0.13043475000000626,"midi":36,"time":109.04345099999999,"velocity":0.7874015748031497},{"duration":0.13043474999999205,"midi":36,"time":109.43475525,"velocity":0.7874015748031497},{"duration":0.13043474999999205,"midi":35,"time":109.43475525,"velocity":0.7874015748031497},{"duration":0.13043475000000626,"midi":35,"time":109.82605949999999,"velocity":0.7874015748031497},{"duration":0.13043475000000626,"midi":36,"time":109.82605949999999,"velocity":0.7874015748031497},{"duration":0.13043475000000626,"midi":35,"time":110.08692899999998,"velocity":0.7874015748031497},{"duration":0.13043475000000626,"midi":36,"time":110.21736374999999,"velocity":0.7874015748031497},{"duration":0.13043474999999205,"midi":38,"time":110.3477985,"velocity":0.7874015748031497},{"duration":0.13043474999999205,"midi":40,"time":110.3477985,"velocity":0.7874015748031497},{"duration":0.13043475000000626,"midi":36,"time":110.47823324999999,"velocity":0.7874015748031497},{"duration":0.13043474999999205,"midi":35,"time":110.608668,"velocity":0.7874015748031497},{"duration":0.13043475000000626,"midi":36,"time":110.73910274999999,"velocity":0.7874015748031497},{"duration":0.13043474999999205,"midi":38,"time":110.86953749999999,"velocity":0.7874015748031497},{"duration":0.13043474999999205,"midi":40,"time":110.86953749999999,"velocity":0.7874015748031497},{"duration":0.13043475000000626,"midi":36,"time":110.99997224999998,"velocity":0.7874015748031497},{"duration":0.13043474999999205,"midi":35,"time":111.13040699999999,"velocity":0.7874015748031497},{"duration":0.13043475000000626,"midi":36,"time":111.26084174999998,"velocity":0.7874015748031497},{"duration":0.13043475000000626,"midi":40,"time":111.39127649999999,"velocity":0.7874015748031497},{"duration":0.13043475000000626,"midi":38,"time":111.39127649999999,"velocity":0.7874015748031497},{"duration":0.13043474999999205,"midi":36,"time":111.52171125,"velocity":0.7874015748031497},{"duration":0.13043475000000626,"midi":35,"time":111.65214599999999,"velocity":0.7874015748031497},{"duration":0.13043474999999205,"midi":36,"time":111.78258075,"velocity":0.7874015748031497},{"duration":0.13043475000000626,"midi":40,"time":111.91301549999999,"velocity":0.7874015748031497},{"duration":0.13043475000000626,"midi":38,"time":111.91301549999999,"velocity":0.7874015748031497},{"duration":0.13043474999999205,"midi":36,"time":112.04345024999999,"velocity":0.7874015748031497},{"duration":0.13043475000000626,"midi":35,"time":112.17388499999998,"velocity":0.7874015748031497},{"duration":0.13043475000000626,"midi":36,"time":112.30431974999999,"velocity":0.7874015748031497},{"duration":0.13043474999999205,"midi":40,"time":112.4347545,"velocity":0.7874015748031497},{"duration":0.13043474999999205,"midi":38,"time":112.4347545,"velocity":0.7874015748031497},{"duration":0.13043475000000626,"midi":36,"time":112.56518924999999,"velocity":0.7874015748031497},{"duration":0.13043474999999205,"midi":35,"time":112.695624,"velocity":0.7874015748031497},{"duration":0.13043475000000626,"midi":36,"time":112.82605874999999,"velocity":0.7874015748031497},{"duration":0.13043474999999205,"midi":40,"time":112.9564935,"velocity":0.7874015748031497},{"duration":0.13043474999999205,"midi":38,"time":112.9564935,"velocity":0.7874015748031497},{"duration":0.13043475000000626,"midi":36,"time":113.08692824999999,"velocity":0.7874015748031497},{"duration":0.13043474999999205,"midi":35,"time":113.21736299999999,"velocity":0.7874015748031497},{"duration":0.13043475000000626,"midi":36,"time":113.34779774999998,"velocity":0.7874015748031497},{"duration":0.13043475000000626,"midi":38,"time":113.47823249999999,"velocity":0.7874015748031497},{"duration":0.13043475000000626,"midi":40,"time":113.47823249999999,"velocity":0.7874015748031497},{"duration":0.13043474999999205,"midi":36,"time":113.60866725,"velocity":0.7874015748031497},{"duration":0.13043475000000626,"midi":35,"time":113.73910199999999,"velocity":0.7874015748031497},{"duration":0.13043474999999205,"midi":36,"time":113.86953675,"velocity":0.7874015748031497},{"duration":0.13043475000000626,"midi":38,"time":113.99997149999999,"velocity":0.7874015748031497},{"duration":0.13043475000000626,"midi":40,"time":113.99997149999999,"velocity":0.7874015748031497},{"duration":0.13043474999999205,"midi":36,"time":114.13040625,"velocity":0.7874015748031497},{"duration":0.13043475000000626,"midi":35,"time":114.26084099999999,"velocity":0.7874015748031497},{"duration":0.13043474999999205,"midi":36,"time":114.39127574999999,"velocity":0.7874015748031497},{"duration":0.13043475000000626,"midi":38,"time":114.52171049999998,"velocity":0.7874015748031497},{"duration":0.13043475000000626,"midi":40,"time":114.52171049999998,"velocity":0.7874015748031497},{"duration":0.13043475000000626,"midi":36,"time":114.65214524999999,"velocity":0.7874015748031497},{"duration":0.13043474999999205,"midi":35,"time":114.78258,"velocity":0.7874015748031497},{"duration":0.13043475000000626,"midi":36,"time":114.91301474999999,"velocity":0.7874015748031497},{"duration":0.13043474999999205,"midi":38,"time":115.0434495,"velocity":0.7874015748031497},{"duration":0.13043474999999205,"midi":40,"time":115.0434495,"velocity":0.7874015748031497},{"duration":0.13043475000000626,"midi":36,"time":115.17388424999999,"velocity":0.7874015748031497},{"duration":0.13043474999999205,"midi":35,"time":115.30431899999999,"velocity":0.7874015748031497},{"duration":0.13043475000000626,"midi":36,"time":115.43475374999998,"velocity":0.7874015748031497},{"duration":0.13043474999999205,"midi":38,"time":115.56518849999999,"velocity":0.7874015748031497},{"duration":0.13043474999999205,"midi":40,"time":115.56518849999999,"velocity":0.7874015748031497},{"duration":0.13043475000000626,"midi":36,"time":115.69562324999998,"velocity":0.7874015748031497},{"duration":0.13043475000000626,"midi":35,"time":115.82605799999999,"velocity":0.7874015748031497},{"duration":0.13043474999999205,"midi":36,"time":115.95649275,"velocity":0.7874015748031497},{"duration":0.13043475000000626,"midi":38,"time":116.08692749999999,"velocity":0.7874015748031497},{"duration":0.13043475000000626,"midi":40,"time":116.08692749999999,"velocity":0.7874015748031497},{"duration":0.13043474999999205,"midi":36,"time":116.21736225,"velocity":0.7874015748031497},{"duration":0.13043475000000626,"midi":35,"time":116.34779699999999,"velocity":0.7874015748031497},{"duration":0.13043474999999205,"midi":36,"time":116.47823174999999,"velocity":0.7874015748031497},{"duration":0.13043475000000626,"midi":38,"time":116.60866649999998,"velocity":0.7874015748031497},{"duration":0.13043475000000626,"midi":40,"time":116.60866649999998,"velocity":0.7874015748031497},{"duration":0.13043474999999205,"midi":36,"time":116.73910124999999,"velocity":0.7874015748031497},{"duration":0.13043475000000626,"midi":35,"time":116.86953599999998,"velocity":0.7874015748031497},{"duration":0.13043475000000626,"midi":36,"time":116.99997074999999,"velocity":0.7874015748031497},{"duration":0.13043474999999205,"midi":40,"time":117.1304055,"velocity":0.7874015748031497},{"duration":0.13043474999999205,"midi":38,"time":117.1304055,"velocity":0.7874015748031497},{"duration":0.13043475000000626,"midi":36,"time":117.26084024999999,"velocity":0.7874015748031497},{"duration":0.13043474999999205,"midi":35,"time":117.391275,"velocity":0.7874015748031497},{"duration":0.13043475000000626,"midi":36,"time":117.52170974999999,"velocity":0.7874015748031497},{"duration":0.13043474999999205,"midi":38,"time":117.65214449999999,"velocity":0.7874015748031497},{"duration":0.13043474999999205,"midi":40,"time":117.65214449999999,"velocity":0.7874015748031497},{"duration":0.13043475000000626,"midi":36,"time":117.78257924999998,"velocity":0.7874015748031497},{"duration":0.13043475000000626,"midi":35,"time":117.91301399999999,"velocity":0.7874015748031497},{"duration":0.13043474999999205,"midi":36,"time":118.04344875,"velocity":0.7874015748031497},{"duration":0.13043475000000626,"midi":38,"time":118.17388349999999,"velocity":0.7874015748031497},{"duration":0.13043475000000626,"midi":40,"time":118.17388349999999,"velocity":0.7874015748031497},{"duration":0.13043474999999205,"midi":36,"time":118.30431825,"velocity":0.7874015748031497},{"duration":0.13043475000000626,"midi":35,"time":118.43475299999999,"velocity":0.7874015748031497},{"duration":0.13043474999999205,"midi":36,"time":118.56518774999999,"velocity":0.7874015748031497},{"duration":0.13043475000000626,"midi":38,"time":118.69562249999998,"velocity":0.7874015748031497},{"duration":0.13043475000000626,"midi":40,"time":118.69562249999998,"velocity":0.7874015748031497},{"duration":0.13043474999999205,"midi":36,"time":118.82605724999999,"velocity":0.7874015748031497},{"duration":0.13043475000000626,"midi":35,"time":118.95649199999998,"velocity":0.7874015748031497},{"duration":0.13043475000000626,"midi":36,"time":119.08692674999999,"velocity":0.7874015748031497},{"duration":0.13043474999999205,"midi":38,"time":119.2173615,"velocity":0.7874015748031497},{"duration":0.13043474999999205,"midi":40,"time":119.2173615,"velocity":0.7874015748031497},{"duration":0.13043475000000626,"midi":36,"time":119.34779624999999,"velocity":0.7874015748031497},{"duration":0.13043474999999205,"midi":35,"time":119.478231,"velocity":0.7874015748031497},{"duration":0.13043475000000626,"midi":36,"time":119.60866574999999,"velocity":0.7874015748031497},{"duration":0.13043474999999205,"midi":40,"time":119.73910049999999,"velocity":0.7874015748031497},{"duration":0.13043474999999205,"midi":38,"time":119.73910049999999,"velocity":0.7874015748031497},{"duration":0.13043475000000626,"midi":36,"time":119.86953524999998,"velocity":0.7874015748031497},{"duration":0.13043474999999205,"midi":35,"time":119.99996999999999,"velocity":0.7874015748031497},{"duration":0.13043475000000626,"midi":36,"time":120.13040474999998,"velocity":0.7874015748031497},{"duration":0.13043475000000626,"midi":40,"time":120.26083949999999,"velocity":0.7874015748031497},{"duration":0.13043475000000626,"midi":38,"time":120.26083949999999,"velocity":0.7874015748031497},{"duration":0.13043474999999205,"midi":36,"time":120.39127425,"velocity":0.7874015748031497},{"duration":0.13043475000000626,"midi":35,"time":120.52170899999999,"velocity":0.7874015748031497},{"duration":0.13043474999999205,"midi":36,"time":120.65214375,"velocity":0.7874015748031497},{"duration":0.13043475000000626,"midi":38,"time":120.78257849999999,"velocity":0.7874015748031497},{"duration":0.13043475000000626,"midi":40,"time":120.78257849999999,"velocity":0.7874015748031497},{"duration":0.13043474999999205,"midi":36,"time":120.91301324999999,"velocity":0.7874015748031497},{"duration":0.13043475000000626,"midi":35,"time":121.04344799999998,"velocity":0.7874015748031497},{"duration":0.13043474999999205,"midi":36,"time":121.17388274999999,"velocity":0.7874015748031497},{"duration":0.13043475000000626,"midi":38,"time":121.30431749999998,"velocity":0.7874015748031497},{"duration":0.13043475000000626,"midi":40,"time":121.30431749999998,"velocity":0.7874015748031497},{"duration":0.13043475000000626,"midi":36,"time":121.43475224999999,"velocity":0.7874015748031497},{"duration":0.13043474999999205,"midi":35,"time":121.565187,"velocity":0.7874015748031497},{"duration":0.13043475000000626,"midi":36,"time":121.69562174999999,"velocity":0.7874015748031497},{"duration":0.13043474999999205,"midi":38,"time":121.82605649999999,"velocity":0.7874015748031497},{"duration":0.13043474999999205,"midi":40,"time":121.82605649999999,"velocity":0.7874015748031497},{"duration":0.13043475000000626,"midi":36,"time":121.95649124999998,"velocity":0.7874015748031497},{"duration":0.13043474999999205,"midi":35,"time":122.08692599999999,"velocity":0.7874015748031497},{"duration":0.13043475000000626,"midi":36,"time":122.21736074999998,"velocity":0.7874015748031497},{"duration":0.13043475000000626,"midi":38,"time":122.34779549999999,"velocity":0.7874015748031497},{"duration":0.13043475000000626,"midi":40,"time":122.34779549999999,"velocity":0.7874015748031497},{"duration":0.13043474999999205,"midi":36,"time":122.47823025,"velocity":0.7874015748031497},{"duration":0.13043475000000626,"midi":35,"time":122.60866499999999,"velocity":0.7874015748031497},{"duration":0.13043474999999205,"midi":36,"time":122.73909975,"velocity":0.7874015748031497},{"duration":0.13043475000000626,"midi":38,"time":122.86953449999999,"velocity":0.7874015748031497},{"duration":0.13043475000000626,"midi":40,"time":122.86953449999999,"velocity":0.7874015748031497},{"duration":0.13043474999999205,"midi":35,"time":122.99996924999999,"velocity":0.7874015748031497},{"duration":0.13043474999999205,"midi":36,"time":122.99996924999999,"velocity":0.7874015748031497},{"duration":0.13043475000000626,"midi":38,"time":123.13040399999998,"velocity":0.7874015748031497},{"duration":0.13043474999999205,"midi":36,"time":123.26083874999999,"velocity":0.7874015748031497},{"duration":0.13043474999999205,"midi":35,"time":123.26083874999999,"velocity":0.7874015748031497},{"duration":0.13043475000000626,"midi":40,"time":123.39127349999998,"velocity":0.7874015748031497},{"duration":0.13043475000000626,"midi":38,"time":123.39127349999998,"velocity":0.7874015748031497},{"duration":0.13043475000000626,"midi":35,"time":123.52170824999999,"velocity":0.7874015748031497},{"duration":0.13043475000000626,"midi":36,"time":123.52170824999999,"velocity":0.7874015748031497},{"duration":0.13043474999999205,"midi":38,"time":123.652143,"velocity":0.7874015748031497},{"duration":0.13043474999999205,"midi":35,"time":123.9130125,"velocity":0.7874015748031497},{"duration":0.13043474999999205,"midi":36,"time":123.9130125,"velocity":0.7874015748031497},{"duration":0.13043474999999205,"midi":36,"time":124.17388199999999,"velocity":0.7874015748031497},{"duration":0.13043474999999205,"midi":35,"time":124.43475149999999,"velocity":0.7874015748031497},{"duration":0.13043474999999205,"midi":36,"time":124.43475149999999,"velocity":0.7874015748031497},{"duration":0.13043475000000626,"midi":36,"time":124.69562099999999,"velocity":0.7874015748031497},{"duration":0.13043475000000626,"midi":35,"time":124.69562099999999,"velocity":0.7874015748031497},{"duration":0.13043475000000626,"midi":35,"time":125.73909899999998,"velocity":0.7874015748031497},{"duration":0.13043475000000626,"midi":36,"time":125.73909899999998,"velocity":0.7874015748031497},{"duration":0.13043475000000626,"midi":35,"time":126.78257699999999,"velocity":0.7874015748031497},{"duration":0.13043475000000626,"midi":46,"time":126.78257699999999,"velocity":0.7874015748031497},{"duration":0.13043475000000626,"midi":57,"time":126.78257699999999,"velocity":0.7874015748031497},{"duration":0.13043475000000626,"midi":36,"time":126.78257699999999,"velocity":0.7874015748031497},{"duration":0.13043475000000626,"midi":53,"time":126.78257699999999,"velocity":0.7874015748031497},{"duration":0.13043475000000626,"midi":59,"time":126.78257699999999,"velocity":0.7874015748031497},{"duration":0.13043475000000626,"midi":44,"time":126.78257699999999,"velocity":0.7874015748031497},{"duration":0.13043475000000626,"midi":51,"time":126.78257699999999,"velocity":0.7874015748031497},{"duration":0.13043475000000626,"midi":49,"time":126.78257699999999,"velocity":0.7874015748031497},{"duration":0.13043475000000626,"midi":42,"time":126.78257699999999,"velocity":0.7874015748031497},{"duration":0.13043475000000626,"midi":55,"time":126.78257699999999,"velocity":0.7874015748031497},{"duration":0.13043475000000626,"midi":35,"time":127.82605499999998,"velocity":0.7874015748031497},{"duration":0.13043475000000626,"midi":36,"time":127.82605499999998,"velocity":0.7874015748031497},{"duration":0.13043475000000626,"midi":36,"time":128.869533,"velocity":0.7874015748031497},{"duration":0.13043475000000626,"midi":35,"time":128.869533,"velocity":0.7874015748031497},{"duration":0.13043475000000626,"midi":35,"time":129.391272,"velocity":0.7874015748031497},{"duration":0.13043475000000626,"midi":36,"time":129.391272,"velocity":0.7874015748031497},{"duration":0.13043475000000626,"midi":49,"time":129.91301099999998,"velocity":0.7874015748031497},{"duration":0.13043475000000626,"midi":55,"time":129.91301099999998,"velocity":0.7874015748031497},{"duration":0.13043475000000626,"midi":53,"time":129.91301099999998,"velocity":0.7874015748031497},{"duration":0.13043475000000626,"midi":57,"time":129.91301099999998,"velocity":0.7874015748031497},{"duration":0.13043475000000626,"midi":36,"time":129.91301099999998,"velocity":0.7874015748031497},{"duration":0.13043475000000626,"midi":44,"time":129.91301099999998,"velocity":0.7874015748031497},{"duration":0.13043475000000626,"midi":42,"time":129.91301099999998,"velocity":0.7874015748031497},{"duration":0.13043475000000626,"midi":46,"time":129.91301099999998,"velocity":0.7874015748031497},{"duration":0.13043475000000626,"midi":59,"time":129.91301099999998,"velocity":0.7874015748031497},{"duration":0.13043475000000626,"midi":35,"time":129.91301099999998,"velocity":0.7874015748031497},{"duration":0.13043475000000626,"midi":51,"time":129.91301099999998,"velocity":0.7874015748031497},{"duration":0.13043475000000626,"midi":36,"time":130.95648899999998,"velocity":0.7874015748031497},{"duration":0.13043475000000626,"midi":35,"time":130.95648899999998,"velocity":0.7874015748031497},{"duration":0.13043474999997784,"midi":36,"time":131.999967,"velocity":0.7874015748031497},{"duration":0.13043474999997784,"midi":35,"time":131.999967,"velocity":0.7874015748031497},{"duration":0.13043475000000626,"midi":35,"time":133.043445,"velocity":0.7874015748031497},{"duration":0.13043475000000626,"midi":36,"time":133.043445,"velocity":0.7874015748031497},{"duration":0.13043475000000626,"midi":35,"time":133.565184,"velocity":0.7874015748031497},{"duration":0.13043475000000626,"midi":36,"time":133.565184,"velocity":0.7874015748031497},{"duration":0.13043475000000626,"midi":53,"time":134.08692299999998,"velocity":0.7874015748031497},{"duration":0.13043475000000626,"midi":51,"time":134.08692299999998,"velocity":0.7874015748031497},{"duration":0.13043475000000626,"midi":36,"time":134.08692299999998,"velocity":0.7874015748031497},{"duration":0.13043475000000626,"midi":35,"time":134.08692299999998,"velocity":0.7874015748031497},{"duration":0.13043475000000626,"midi":46,"time":134.08692299999998,"velocity":0.7874015748031497},{"duration":0.13043475000000626,"midi":59,"time":134.08692299999998,"velocity":0.7874015748031497},{"duration":0.13043475000000626,"midi":42,"time":134.08692299999998,"velocity":0.7874015748031497},{"duration":0.13043475000000626,"midi":44,"time":134.08692299999998,"velocity":0.7874015748031497},{"duration":0.13043475000000626,"midi":49,"time":134.08692299999998,"velocity":0.7874015748031497},{"duration":0.13043475000000626,"midi":57,"time":134.08692299999998,"velocity":0.7874015748031497},{"duration":0.13043475000000626,"midi":55,"time":134.08692299999998,"velocity":0.7874015748031497},{"duration":0.13043475000000626,"midi":35,"time":135.13040099999998,"velocity":0.7874015748031497},{"duration":0.13043475000000626,"midi":36,"time":135.3912705,"velocity":0.7874015748031497},{"duration":0.13043475000000626,"midi":38,"time":135.65213999999997,"velocity":0.7874015748031497},{"duration":0.13043475000000626,"midi":40,"time":135.9130095,"velocity":0.7874015748031497},{"duration":0.13043474999997784,"midi":35,"time":136.173879,"velocity":0.7874015748031497},{"duration":0.13043475000000626,"midi":36,"time":136.43474849999998,"velocity":0.7874015748031497},{"duration":0.13043474999997784,"midi":38,"time":136.695618,"velocity":0.7874015748031497},{"duration":0.13043475000000626,"midi":40,"time":136.95648749999998,"velocity":0.7874015748031497},{"duration":0.13043475000000626,"midi":36,"time":137.217357,"velocity":0.7874015748031497},{"duration":0.13043475000000626,"midi":38,"time":137.47822649999998,"velocity":0.7874015748031497},{"duration":0.13043475000000626,"midi":38,"time":137.739096,"velocity":0.7874015748031497},{"duration":0.13043475000000626,"midi":36,"time":137.739096,"velocity":0.7874015748031497},{"duration":0.13043475000000626,"midi":35,"time":137.739096,"velocity":0.7874015748031497},{"duration":0.13043475000000626,"midi":35,"time":137.99996549999997,"velocity":0.7874015748031497},{"duration":0.13043475000000626,"midi":38,"time":138.260835,"velocity":0.7874015748031497},{"duration":0.13043475000000626,"midi":36,"time":138.260835,"velocity":0.7874015748031497},{"duration":0.13043475000000626,"midi":35,"time":138.260835,"velocity":0.7874015748031497},{"duration":0.13043475000000626,"midi":35,"time":139.30431299999998,"velocity":0.7874015748031497},{"duration":0.13043475000000626,"midi":36,"time":139.5651825,"velocity":0.7874015748031497},{"duration":0.13043475000000626,"midi":38,"time":139.82605199999998,"velocity":0.7874015748031497},{"duration":0.13043475000000626,"midi":40,"time":140.0869215,"velocity":0.7874015748031497},{"duration":0.13043474999997784,"midi":35,"time":140.347791,"velocity":0.7874015748031497},{"duration":0.13043475000000626,"midi":36,"time":140.60866049999998,"velocity":0.7874015748031497},{"duration":0.13043474999997784,"midi":38,"time":140.86953,"velocity":0.7874015748031497},{"duration":0.13043475000000626,"midi":40,"time":141.13039949999998,"velocity":0.7874015748031497},{"duration":0.13043475000000626,"midi":36,"time":141.391269,"velocity":0.7874015748031497},{"duration":0.13043475000000626,"midi":38,"time":141.65213849999998,"velocity":0.7874015748031497},{"duration":0.13043475000000626,"midi":36,"time":141.913008,"velocity":0.7874015748031497},{"duration":0.13043475000000626,"midi":38,"time":141.913008,"velocity":0.7874015748031497},{"duration":0.13043475000000626,"midi":35,"time":141.913008,"velocity":0.7874015748031497},{"duration":0.13043475000000626,"midi":35,"time":142.17387749999997,"velocity":0.7874015748031497},{"duration":0.13043475000000626,"midi":35,"time":142.434747,"velocity":0.7874015748031497},{"duration":0.13043475000000626,"midi":38,"time":142.434747,"velocity":0.7874015748031497},{"duration":0.13043475000000626,"midi":36,"time":142.434747,"velocity":0.7874015748031497},{"duration":0.13043475000000626,"midi":35,"time":143.47822499999998,"velocity":0.7874015748031497},{"duration":0.13043475000000626,"midi":35,"time":143.7390945,"velocity":0.7874015748031497},{"duration":0.13043475000000626,"midi":36,"time":143.99996399999998,"velocity":0.7874015748031497},{"duration":0.13043475000000626,"midi":38,"time":144.2608335,"velocity":0.7874015748031497},{"duration":0.13043475000000626,"midi":40,"time":144.52170299999997,"velocity":0.7874015748031497},{"duration":0.13043475000000626,"midi":35,"time":144.52170299999997,"velocity":0.7874015748031497},{"duration":0.13043475000000626,"midi":36,"time":144.52170299999997,"velocity":0.7874015748031497},{"duration":0.13043475000000626,"midi":36,"time":144.91300725,"velocity":0.7874015748031497},{"duration":0.13043475000000626,"midi":35,"time":144.91300725,"velocity":0.7874015748031497},{"duration":0.13043475000000626,"midi":35,"time":145.30431149999998,"velocity":0.7874015748031497},{"duration":0.13043475000000626,"midi":36,"time":145.30431149999998,"velocity":0.7874015748031497},{"duration":0.13043474999997784,"midi":35,"time":145.565181,"velocity":0.7874015748031497},{"duration":0.13043475000000626,"midi":36,"time":145.82605049999998,"velocity":0.7874015748031497},{"duration":0.13043475000000626,"midi":36,"time":146.08692,"velocity":0.7874015748031497},{"duration":0.13043475000000626,"midi":35,"time":146.08692,"velocity":0.7874015748031497},{"duration":0.13043475000000626,"midi":38,"time":146.08692,"velocity":0.7874015748031497},{"duration":0.13043475000000626,"midi":36,"time":146.34778949999998,"velocity":0.7874015748031497},{"duration":0.13043475000000626,"midi":35,"time":146.608659,"velocity":0.7874015748031497},{"duration":0.13043475000000626,"midi":36,"time":146.86952849999997,"velocity":0.7874015748031497},{"duration":0.13043475000000626,"midi":36,"time":147.13039799999999,"velocity":0.7874015748031497},{"duration":0.13043475000000626,"midi":35,"time":147.13039799999999,"velocity":0.7874015748031497},{"duration":0.13043474999997784,"midi":35,"time":147.3912675,"velocity":0.7874015748031497},{"duration":0.13043475000000626,"midi":35,"time":147.65213699999998,"velocity":0.7874015748031497},{"duration":0.13043475000000626,"midi":36,"time":147.65213699999998,"velocity":0.7874015748031497},{"duration":0.13043475000000626,"midi":35,"time":148.17387599999998,"velocity":0.7874015748031497},{"duration":0.13043475000000626,"midi":35,"time":148.69561499999998,"velocity":0.7874015748031497},{"duration":0.13043475000000626,"midi":36,"time":148.69561499999998,"velocity":0.7874015748031497},{"duration":0.13043475000000626,"midi":59,"time":149.08691925,"velocity":0.7874015748031497},{"duration":0.13043475000000626,"midi":57,"time":149.08691925,"velocity":0.7874015748031497},{"duration":0.13043475000000626,"midi":35,"time":149.08691925,"velocity":0.7874015748031497},{"duration":0.13043475000000626,"midi":44,"time":149.08691925,"velocity":0.7874015748031497},{"duration":0.13043475000000626,"midi":46,"time":149.08691925,"velocity":0.7874015748031497},{"duration":0.13043475000000626,"midi":51,"time":149.08691925,"velocity":0.7874015748031497},{"duration":0.13043475000000626,"midi":49,"time":149.08691925,"velocity":0.7874015748031497},{"duration":0.13043475000000626,"midi":42,"time":149.08691925,"velocity":0.7874015748031497},{"duration":0.13043475000000626,"midi":53,"time":149.08691925,"velocity":0.7874015748031497},{"duration":0.13043475000000626,"midi":55,"time":149.08691925,"velocity":0.7874015748031497},{"duration":0.13043475000000626,"midi":36,"time":149.08691925,"velocity":0.7874015748031497},{"duration":0.13043475000000626,"midi":35,"time":149.47822349999998,"velocity":0.7874015748031497},{"duration":0.13043475000000626,"midi":36,"time":149.60865825,"velocity":0.7874015748031497},{"duration":0.13043474999997784,"midi":38,"time":149.739093,"velocity":0.7874015748031497},{"duration":0.13043475000000626,"midi":38,"time":150.13039725,"velocity":0.7874015748031497},{"duration":0.13043475000000626,"midi":36,"time":150.52170149999998,"velocity":0.7874015748031497},{"duration":0.13043475000000626,"midi":38,"time":151.04344049999997,"velocity":0.7874015748031497},{"duration":0.13043475000000626,"midi":36,"time":151.30431,"velocity":0.7874015748031497},{"duration":0.13043474999997784,"midi":35,"time":151.5651795,"velocity":0.7874015748031497},{"duration":0.13043475000000626,"midi":36,"time":151.82604899999998,"velocity":0.7874015748031497},{"duration":0.13043474999997784,"midi":36,"time":152.0869185,"velocity":0.7874015748031497},{"duration":0.13043475000000626,"midi":35,"time":152.34778799999998,"velocity":0.7874015748031497},{"duration":0.13043475000000626,"midi":35,"time":152.86952699999998,"velocity":0.7874015748031497},{"duration":0.13043475000000626,"midi":35,"time":153.1303965,"velocity":0.7874015748031497},{"duration":0.13043475000000626,"midi":36,"time":153.1303965,"velocity":0.7874015748031497},{"duration":0.13043475000000626,"midi":35,"time":153.39126599999997,"velocity":0.7874015748031497},{"duration":0.13043475000000626,"midi":36,"time":153.39126599999997,"velocity":0.7874015748031497},{"duration":0.13043475000000626,"midi":36,"time":153.65213549999999,"velocity":0.7874015748031497},{"duration":0.13043474999997784,"midi":38,"time":153.913005,"velocity":0.7874015748031497},{"duration":0.13043475000000626,"midi":36,"time":154.17387449999998,"velocity":0.7874015748031497},{"duration":0.13043474999997784,"midi":35,"time":154.434744,"velocity":0.7874015748031497},{"duration":0.13043475000000626,"midi":36,"time":154.69561349999998,"velocity":0.7874015748031497},{"duration":0.13043475000000626,"midi":35,"time":154.69561349999998,"velocity":0.7874015748031497},{"duration":0.13043475000000626,"midi":35,"time":154.956483,"velocity":0.7874015748031497},{"duration":0.13043475000000626,"midi":36,"time":154.956483,"velocity":0.7874015748031497},{"duration":0.13043475000000626,"midi":38,"time":155.21735249999998,"velocity":0.7874015748031497},{"duration":0.13043475000000626,"midi":40,"time":155.478222,"velocity":0.7874015748031497},{"duration":0.13043475000000626,"midi":36,"time":155.478222,"velocity":0.7874015748031497},{"duration":0.13043475000000626,"midi":35,"time":155.478222,"velocity":0.7874015748031497},{"duration":0.13043475000000626,"midi":38,"time":155.478222,"velocity":0.7874015748031497},{"duration":0.13043475000000626,"midi":35,"time":155.99996099999998,"velocity":0.7874015748031497},{"duration":0.13043475000000626,"midi":36,"time":155.99996099999998,"velocity":0.7874015748031497},{"duration":0.13043475000000626,"midi":35,"time":156.52169999999998,"velocity":0.7874015748031497},{"duration":0.13043475000000626,"midi":36,"time":157.04343899999998,"velocity":0.7874015748031497},{"duration":0.13043475000000626,"midi":35,"time":157.8260475,"velocity":0.7874015748031497},{"duration":0.13043474999997784,"midi":35,"time":158.086917,"velocity":0.7874015748031497},{"duration":0.13043474999997784,"midi":36,"time":158.086917,"velocity":0.7874015748031497},{"duration":0.13043475000000626,"midi":36,"time":158.47822125,"velocity":0.7874015748031497},{"duration":0.13043475000000626,"midi":35,"time":158.47822125,"velocity":0.7874015748031497},{"duration":0.13043475000000626,"midi":36,"time":158.86952549999998,"velocity":0.7874015748031497},{"duration":0.13043475000000626,"midi":35,"time":158.86952549999998,"velocity":0.7874015748031497},{"duration":0.13043475000000626,"midi":36,"time":159.130395,"velocity":0.7874015748031497},{"duration":0.13043475000000626,"midi":35,"time":159.130395,"velocity":0.7874015748031497},{"duration":0.13043475000000626,"midi":35,"time":159.52169924999998,"velocity":0.7874015748031497},{"duration":0.13043475000000626,"midi":36,"time":159.52169924999998,"velocity":0.7874015748031497},{"duration":0.13043475000000626,"midi":35,"time":159.91300349999997,"velocity":0.7874015748031497},{"duration":0.13043475000000626,"midi":36,"time":159.91300349999997,"velocity":0.7874015748031497},{"duration":0.13043475000000626,"midi":36,"time":160.173873,"velocity":0.7874015748031497},{"duration":0.13043475000000626,"midi":35,"time":160.173873,"velocity":0.7874015748031497},{"duration":0.13043475000000626,"midi":36,"time":160.56517724999998,"velocity":0.7874015748031497},{"duration":0.13043475000000626,"midi":35,"time":160.56517724999998,"velocity":0.7874015748031497},{"duration":0.13043474999997784,"midi":35,"time":160.9564815,"velocity":0.7874015748031497},{"duration":0.13043474999997784,"midi":36,"time":160.9564815,"velocity":0.7874015748031497},{"duration":0.13043475000000626,"midi":35,"time":161.21735099999998,"velocity":0.7874015748031497},{"duration":0.13043475000000626,"midi":36,"time":161.21735099999998,"velocity":0.7874015748031497},{"duration":0.13043474999997784,"midi":36,"time":161.60865525,"velocity":0.7874015748031497},{"duration":0.13043474999997784,"midi":35,"time":161.60865525,"velocity":0.7874015748031497},{"duration":0.13043475000000626,"midi":35,"time":161.9999595,"velocity":0.7874015748031497},{"duration":0.13043475000000626,"midi":36,"time":161.9999595,"velocity":0.7874015748031497},{"duration":0.13043475000000626,"midi":36,"time":162.26082899999997,"velocity":0.7874015748031497},{"duration":0.13043475000000626,"midi":35,"time":162.26082899999997,"velocity":0.7874015748031497},{"duration":0.13043475000000626,"midi":35,"time":162.65213325,"velocity":0.7874015748031497},{"duration":0.13043475000000626,"midi":36,"time":162.65213325,"velocity":0.7874015748031497},{"duration":0.13043475000000626,"midi":36,"time":163.04343749999998,"velocity":0.7874015748031497},{"duration":0.13043475000000626,"midi":35,"time":163.04343749999998,"velocity":0.7874015748031497},{"duration":0.13043474999997784,"midi":35,"time":163.304307,"velocity":0.7874015748031497},{"duration":0.13043474999997784,"midi":36,"time":163.304307,"velocity":0.7874015748031497},{"duration":0.13043475000000626,"midi":35,"time":163.69561124999998,"velocity":0.7874015748031497},{"duration":0.13043475000000626,"midi":36,"time":163.69561124999998,"velocity":0.7874015748031497},{"duration":0.13043475000000626,"midi":36,"time":164.08691549999998,"velocity":0.7874015748031497},{"duration":0.13043475000000626,"midi":35,"time":164.08691549999998,"velocity":0.7874015748031497},{"duration":0.13043475000000626,"midi":36,"time":164.347785,"velocity":0.7874015748031497},{"duration":0.13043475000000626,"midi":35,"time":164.347785,"velocity":0.7874015748031497},{"duration":0.13043475000000626,"midi":35,"time":164.73908924999998,"velocity":0.7874015748031497},{"duration":0.13043475000000626,"midi":36,"time":164.73908924999998,"velocity":0.7874015748031497},{"duration":0.13043474999997784,"midi":36,"time":165.1303935,"velocity":0.7874015748031497},{"duration":0.13043474999997784,"midi":35,"time":165.1303935,"velocity":0.7874015748031497},{"duration":0.13043475000000626,"midi":36,"time":165.39126299999998,"velocity":0.7874015748031497},{"duration":0.13043475000000626,"midi":35,"time":165.39126299999998,"velocity":0.7874015748031497},{"duration":0.13043475000000626,"midi":35,"time":165.78256724999997,"velocity":0.7874015748031497},{"duration":0.13043475000000626,"midi":36,"time":165.78256724999997,"velocity":0.7874015748031497},{"duration":0.13043475000000626,"midi":36,"time":166.1738715,"velocity":0.7874015748031497},{"duration":0.13043475000000626,"midi":35,"time":166.1738715,"velocity":0.7874015748031497},{"duration":0.13043475000000626,"midi":35,"time":166.43474099999997,"velocity":0.7874015748031497},{"duration":0.13043475000000626,"midi":36,"time":166.43474099999997,"velocity":0.7874015748031497},{"duration":0.13043475000000626,"midi":36,"time":166.6956105,"velocity":0.7874015748031497},{"duration":0.13043475000000626,"midi":38,"time":166.82604525,"velocity":0.7874015748031497},{"duration":0.13043475000000626,"midi":35,"time":167.21734949999998,"velocity":0.7874015748031497},{"duration":0.13043475000000626,"midi":40,"time":167.21734949999998,"velocity":0.7874015748031497},{"duration":0.13043475000000626,"midi":36,"time":167.21734949999998,"velocity":0.7874015748031497},{"duration":0.13043475000000626,"midi":52,"time":167.21734949999998,"velocity":0.7874015748031497},{"duration":0.13043475000000626,"midi":46,"time":167.21734949999998,"velocity":0.7874015748031497},{"duration":0.13043475000000626,"midi":51,"time":167.21734949999998,"velocity":0.7874015748031497},{"duration":0.13043475000000626,"midi":49,"time":167.21734949999998,"velocity":0.7874015748031497},{"duration":0.13043475000000626,"midi":42,"time":167.21734949999998,"velocity":0.7874015748031497},{"duration":0.13043475000000626,"midi":55,"time":167.21734949999998,"velocity":0.7874015748031497},{"duration":0.13043475000000626,"midi":44,"time":167.21734949999998,"velocity":0.7874015748031497},{"duration":0.13043475000000626,"midi":57,"time":167.21734949999998,"velocity":0.7874015748031497},{"duration":0.13043475000000626,"midi":59,"time":167.21734949999998,"velocity":0.7874015748031497},{"duration":0.13043475000000626,"midi":54,"time":167.21734949999998,"velocity":0.7874015748031497},{"duration":0.13043475000000626,"midi":38,"time":167.21734949999998,"velocity":0.7874015748031497},{"duration":0.13043474999997784,"midi":36,"time":167.478219,"velocity":0.7874015748031497},{"duration":0.13043474999997784,"midi":35,"time":167.478219,"velocity":0.7874015748031497},{"duration":0.13043475000000626,"midi":35,"time":167.73908849999998,"velocity":0.7874015748031497},{"duration":0.13043475000000626,"midi":36,"time":167.86952325,"velocity":0.7874015748031497},{"duration":0.13043475000000626,"midi":35,"time":167.86952325,"velocity":0.7874015748031497},{"duration":0.13043474999997784,"midi":36,"time":168.13039275,"velocity":0.7874015748031497},{"duration":0.13043475000000626,"midi":35,"time":168.26082749999998,"velocity":0.7874015748031497},{"duration":0.13043475000000626,"midi":35,"time":168.521697,"velocity":0.7874015748031497},{"duration":0.13043475000000626,"midi":36,"time":168.521697,"velocity":0.7874015748031497},{"duration":0.13043475000000626,"midi":36,"time":168.78256649999997,"velocity":0.7874015748031497},{"duration":0.13043475000000626,"midi":38,"time":168.91300124999998,"velocity":0.7874015748031497},{"duration":0.13043474999997784,"midi":40,"time":169.3043055,"velocity":0.7874015748031497},{"duration":0.13043474999997784,"midi":35,"time":169.3043055,"velocity":0.7874015748031497},{"duration":0.13043474999997784,"midi":54,"time":169.3043055,"velocity":0.7874015748031497},{"duration":0.13043474999997784,"midi":52,"time":169.3043055,"velocity":0.7874015748031497},{"duration":0.13043474999997784,"midi":42,"time":169.3043055,"velocity":0.7874015748031497},{"duration":0.13043474999997784,"midi":51,"time":169.3043055,"velocity":0.7874015748031497},{"duration":0.13043474999997784,"midi":46,"time":169.3043055,"velocity":0.7874015748031497},{"duration":0.13043474999997784,"midi":44,"time":169.3043055,"velocity":0.7874015748031497},{"duration":0.13043474999997784,"midi":49,"time":169.3043055,"velocity":0.7874015748031497},{"duration":0.13043474999997784,"midi":59,"time":169.3043055,"velocity":0.7874015748031497},{"duration":0.13043474999997784,"midi":55,"time":169.3043055,"velocity":0.7874015748031497},{"duration":0.13043474999997784,"midi":36,"time":169.3043055,"velocity":0.7874015748031497},{"duration":0.13043474999997784,"midi":38,"time":169.3043055,"velocity":0.7874015748031497},{"duration":0.13043474999997784,"midi":57,"time":169.3043055,"velocity":0.7874015748031497},{"duration":0.13043475000000626,"midi":36,"time":169.56517499999998,"velocity":0.7874015748031497},{"duration":0.13043475000000626,"midi":35,"time":169.56517499999998,"velocity":0.7874015748031497},{"duration":0.13043474999997784,"midi":35,"time":169.8260445,"velocity":0.7874015748031497},{"duration":0.13043475000000626,"midi":36,"time":169.95647924999997,"velocity":0.7874015748031497},{"duration":0.13043475000000626,"midi":35,"time":169.95647924999997,"velocity":0.7874015748031497},{"duration":0.06521737500000313,"midi":49,"time":170.3477835,"velocity":0.7874015748031497},{"duration":0.06521737500000313,"midi":57,"time":170.3477835,"velocity":0.7874015748031497},{"duration":0.13043475000000626,"midi":35,"time":170.3477835,"velocity":0.7874015748031497},{"duration":0.06521737500000313,"midi":44,"time":170.3477835,"velocity":0.7874015748031497},{"duration":0.13043475000000626,"midi":36,"time":170.3477835,"velocity":0.7874015748031497},{"duration":0.06521737500000313,"midi":52,"time":170.413000875,"velocity":0.7874015748031497},{"duration":0.06521737500000313,"midi":42,"time":170.413000875,"velocity":0.7874015748031497},{"duration":0.06521737500000313,"midi":59,"time":170.413000875,"velocity":0.7874015748031497},{"duration":0.06521737500000313,"midi":46,"time":170.413000875,"velocity":0.7874015748031497},{"duration":0.06521737499997471,"midi":49,"time":170.47821825,"velocity":0.7874015748031497},{"duration":0.06521737499997471,"midi":44,"time":170.47821825,"velocity":0.7874015748031497},{"duration":0.06521737499997471,"midi":57,"time":170.47821825,"velocity":0.7874015748031497},{"duration":0.06521737500000313,"midi":46,"time":170.54343562499997,"velocity":0.7874015748031497},{"duration":0.06521737500000313,"midi":42,"time":170.54343562499997,"velocity":0.7874015748031497},{"duration":0.06521737500000313,"midi":52,"time":170.54343562499997,"velocity":0.7874015748031497},{"duration":0.06521737500000313,"midi":59,"time":170.54343562499997,"velocity":0.7874015748031497},{"duration":0.13043475000000626,"midi":42,"time":170.60865299999998,"velocity":0.7874015748031497},{"duration":0.13043475000000626,"midi":49,"time":170.60865299999998,"velocity":0.7874015748031497},{"duration":0.13043475000000626,"midi":35,"time":170.60865299999998,"velocity":0.7874015748031497},{"duration":0.13043475000000626,"midi":57,"time":170.60865299999998,"velocity":0.7874015748031497},{"duration":0.13043475000000626,"midi":36,"time":170.60865299999998,"velocity":0.7874015748031497},{"duration":0.13043475000000626,"midi":59,"time":170.60865299999998,"velocity":0.7874015748031497},{"duration":0.13043475000000626,"midi":55,"time":170.60865299999998,"velocity":0.7874015748031497},{"duration":0.13043475000000626,"midi":46,"time":170.60865299999998,"velocity":0.7874015748031497},{"duration":0.13043475000000626,"midi":51,"time":170.60865299999998,"velocity":0.7874015748031497},{"duration":0.13043475000000626,"midi":54,"time":170.60865299999998,"velocity":0.7874015748031497},{"duration":0.13043475000000626,"midi":52,"time":170.60865299999998,"velocity":0.7874015748031497},{"duration":0.13043475000000626,"midi":38,"time":170.60865299999998,"velocity":0.7874015748031497},{"duration":0.13043475000000626,"midi":44,"time":170.60865299999998,"velocity":0.7874015748031497},{"duration":0.06521737500000313,"midi":57,"time":170.73908774999998,"velocity":0.7874015748031497},{"duration":0.06521737500000313,"midi":49,"time":170.73908774999998,"velocity":0.7874015748031497},{"duration":0.06521737500000313,"midi":52,"time":170.73908774999998,"velocity":0.7874015748031497},{"duration":0.06521737500000313,"midi":46,"time":170.73908774999998,"velocity":0.7874015748031497},{"duration":0.06521737500000313,"midi":46,"time":170.80430512499998,"velocity":0.7874015748031497},{"duration":0.06521737500000313,"midi":52,"time":170.80430512499998,"velocity":0.7874015748031497},{"duration":0.06521737500000313,"midi":49,"time":170.80430512499998,"velocity":0.7874015748031497},{"duration":0.06521737500000313,"midi":57,"time":170.80430512499998,"velocity":0.7874015748031497}]},{"instrument":{"family":"drums","number":0,"name":"standard kit"},"notes":[{"duration":0.13043474999999916,"midi":35,"time":18.260865,"velocity":0.7874015748031497},{"duration":0.13043474999999916,"midi":42,"time":18.391299749999998,"velocity":0.7874015748031497},{"duration":0.1304347500000027,"midi":40,"time":18.521734499999997,"velocity":0.7874015748031497},{"duration":0.1304347500000027,"midi":38,"time":18.521734499999997,"velocity":0.7874015748031497},{"duration":0.13043474999999916,"midi":42,"time":18.65216925,"velocity":0.7874015748031497},{"duration":0.13043474999999916,"midi":35,"time":18.782604,"velocity":0.7874015748031497},{"duration":0.13043474999999916,"midi":42,"time":18.91303875,"velocity":0.7874015748031497},{"duration":0.13043474999999916,"midi":40,"time":19.043473499999998,"velocity":0.7874015748031497},{"duration":0.13043474999999916,"midi":38,"time":19.043473499999998,"velocity":0.7874015748031497},{"duration":0.1304347500000027,"midi":42,"time":19.173908249999997,"velocity":0.7874015748031497},{"duration":0.13043474999999916,"midi":35,"time":19.304343,"velocity":0.7874015748031497},{"duration":0.13043474999999916,"midi":42,"time":19.43477775,"velocity":0.7874015748031497},{"duration":0.13043474999999916,"midi":38,"time":19.565212499999998,"velocity":0.7874015748031497},{"duration":0.13043474999999916,"midi":40,"time":19.565212499999998,"velocity":0.7874015748031497},{"duration":0.1304347500000027,"midi":42,"time":19.695647249999997,"velocity":0.7874015748031497},{"duration":0.13043474999999916,"midi":35,"time":19.826082,"velocity":0.7874015748031497},{"duration":0.13043474999999916,"midi":42,"time":19.95651675,"velocity":0.7874015748031497},{"duration":0.13043474999999916,"midi":40,"time":20.086951499999998,"velocity":0.7874015748031497},{"duration":0.13043474999999916,"midi":38,"time":20.086951499999998,"velocity":0.7874015748031497},{"duration":0.1304347500000027,"midi":42,"time":20.217386249999997,"velocity":0.7874015748031497},{"duration":0.13043474999999916,"midi":35,"time":20.347821,"velocity":0.7874015748031497},{"duration":0.13043474999999916,"midi":42,"time":20.47825575,"velocity":0.7874015748031497},{"duration":0.13043474999999916,"midi":40,"time":20.608690499999998,"velocity":0.7874015748031497},{"duration":0.13043474999999916,"midi":38,"time":20.608690499999998,"velocity":0.7874015748031497},{"duration":0.1304347500000027,"midi":42,"time":20.739125249999997,"velocity":0.7874015748031497},{"duration":0.13043474999999916,"midi":35,"time":20.86956,"velocity":0.7874015748031497},{"duration":0.13043474999999916,"midi":42,"time":20.99999475,"velocity":0.7874015748031497},{"duration":0.13043474999999916,"midi":40,"time":21.130429499999998,"velocity":0.7874015748031497},{"duration":0.13043474999999916,"midi":38,"time":21.130429499999998,"velocity":0.7874015748031497},{"duration":0.13043474999999916,"midi":42,"time":21.260864249999997,"velocity":0.7874015748031497},{"duration":0.1304347500000027,"midi":35,"time":21.391298999999997,"velocity":0.7874015748031497},{"duration":0.1304347500000027,"midi":40,"time":21.913037999999997,"velocity":0.7874015748031497},{"duration":0.1304347500000027,"midi":35,"time":21.913037999999997,"velocity":0.7874015748031497},{"duration":0.1304347500000027,"midi":35,"time":22.434776999999997,"velocity":0.7874015748031497},{"duration":0.13043474999999916,"midi":42,"time":22.56521175,"velocity":0.7874015748031497},{"duration":0.13043474999999916,"midi":38,"time":22.6956465,"velocity":0.7874015748031497},{"duration":0.13043474999999916,"midi":40,"time":22.6956465,"velocity":0.7874015748031497},{"duration":0.13043474999999916,"midi":42,"time":22.826081249999998,"velocity":0.7874015748031497},{"duration":0.13043474999999916,"midi":35,"time":22.956515999999997,"velocity":0.7874015748031497},{"duration":0.1304347500000027,"midi":42,"time":23.086950749999996,"velocity":0.7874015748031497},{"duration":0.13043474999999916,"midi":38,"time":23.2173855,"velocity":0.7874015748031497},{"duration":0.13043474999999916,"midi":40,"time":23.2173855,"velocity":0.7874015748031497},{"duration":0.13043474999999916,"midi":42,"time":23.347820249999998,"velocity":0.7874015748031497},{"duration":0.13043474999999916,"midi":35,"time":23.478254999999997,"velocity":0.7874015748031497},{"duration":0.1304347500000027,"midi":42,"time":23.608689749999996,"velocity":0.7874015748031497},{"duration":0.13043474999999916,"midi":38,"time":23.7391245,"velocity":0.7874015748031497},{"duration":0.13043474999999916,"midi":40,"time":23.7391245,"velocity":0.7874015748031497},{"duration":0.13043474999999916,"midi":42,"time":23.86955925,"velocity":0.7874015748031497},{"duration":0.13043474999999916,"midi":35,"time":23.999993999999997,"velocity":0.7874015748031497},{"duration":0.1304347500000027,"midi":42,"time":24.130428749999997,"velocity":0.7874015748031497},{"duration":0.13043474999999916,"midi":40,"time":24.2608635,"velocity":0.7874015748031497},{"duration":0.13043474999999916,"midi":38,"time":24.2608635,"velocity":0.7874015748031497},{"duration":0.13043474999999916,"midi":42,"time":24.39129825,"velocity":0.7874015748031497},{"duration":0.13043474999999916,"midi":35,"time":24.521732999999998,"velocity":0.7874015748031497},{"duration":0.1304347500000027,"midi":42,"time":24.652167749999997,"velocity":0.7874015748031497},{"duration":0.13043474999999916,"midi":38,"time":24.7826025,"velocity":0.7874015748031497},{"duration":0.13043474999999916,"midi":40,"time":24.7826025,"velocity":0.7874015748031497},{"duration":0.13043474999999916,"midi":42,"time":24.91303725,"velocity":0.7874015748031497},{"duration":0.13043474999999916,"midi":35,"time":25.043471999999998,"velocity":0.7874015748031497},{"duration":0.13043474999999916,"midi":42,"time":25.173906749999997,"velocity":0.7874015748031497},{"duration":0.1304347500000027,"midi":40,"time":25.304341499999996,"velocity":0.7874015748031497},{"duration":0.1304347500000027,"midi":38,"time":25.304341499999996,"velocity":0.7874015748031497},{"duration":0.13043474999999916,"midi":42,"time":25.43477625,"velocity":0.7874015748031497},{"duration":0.13043474999999916,"midi":35,"time":25.565210999999998,"velocity":0.7874015748031497},{"duration":0.13043474999999916,"midi":35,"time":26.086949999999998,"velocity":0.7874015748031497},{"duration":0.13043474999999916,"midi":40,"time":26.086949999999998,"velocity":0.7874015748031497},{"duration":0.13043474999999916,"midi":35,"time":26.608689,"velocity":0.7874015748031497},{"duration":0.13043474999999916,"midi":42,"time":26.739123749999997,"velocity":0.7874015748031497},{"duration":0.1304347500000027,"midi":40,"time":26.869558499999997,"velocity":0.7874015748031497},{"duration":0.1304347500000027,"midi":38,"time":26.869558499999997,"velocity":0.7874015748031497},{"duration":0.13043474999999916,"midi":42,"time":26.99999325,"velocity":0.7874015748031497},{"duration":0.13043474999999916,"midi":35,"time":27.130428,"velocity":0.7874015748031497},{"duration":0.13043474999999916,"midi":42,"time":27.260862749999998,"velocity":0.7874015748031497},{"duration":0.13043474999999916,"midi":38,"time":27.391297499999997,"velocity":0.7874015748031497},{"duration":0.13043474999999916,"midi":40,"time":27.391297499999997,"velocity":0.7874015748031497},{"duration":0.1304347500000027,"midi":42,"time":27.521732249999996,"velocity":0.7874015748031497},{"duration":0.13043474999999916,"midi":35,"time":27.652167,"velocity":0.7874015748031497},{"duration":0.13043474999999916,"midi":42,"time":27.782601749999998,"velocity":0.7874015748031497},{"duration":0.13043474999999916,"midi":40,"time":27.913036499999997,"velocity":0.7874015748031497},{"duration":0.13043474999999916,"midi":38,"time":27.913036499999997,"velocity":0.7874015748031497},{"duration":0.1304347500000027,"midi":42,"time":28.043471249999996,"velocity":0.7874015748031497},{"duration":0.13043474999999916,"midi":35,"time":28.173906,"velocity":0.7874015748031497},{"duration":0.13043474999999916,"midi":42,"time":28.304340749999998,"velocity":0.7874015748031497},{"duration":0.13043474999999916,"midi":38,"time":28.434775499999997,"velocity":0.7874015748031497},{"duration":0.13043474999999916,"midi":40,"time":28.434775499999997,"velocity":0.7874015748031497},{"duration":0.1304347500000027,"midi":42,"time":28.565210249999996,"velocity":0.7874015748031497},{"duration":0.13043474999999916,"midi":40,"time":28.695645,"velocity":0.7874015748031497},{"duration":0.13043474999999916,"midi":42,"time":28.826079749999998,"velocity":0.7874015748031497},{"duration":0.13043474999999916,"midi":38,"time":28.956514499999997,"velocity":0.7874015748031497},{"duration":0.13043474999999916,"midi":40,"time":28.956514499999997,"velocity":0.7874015748031497},{"duration":0.13043474999999916,"midi":42,"time":29.086949249999996,"velocity":0.7874015748031497},{"duration":0.1304347500000027,"midi":35,"time":29.217383999999996,"velocity":0.7874015748031497},{"duration":0.13043474999999916,"midi":42,"time":29.34781875,"velocity":0.7874015748031497},{"duration":0.13043474999999916,"midi":40,"time":29.478253499999997,"velocity":0.7874015748031497},{"duration":0.13043474999999916,"midi":38,"time":29.478253499999997,"velocity":0.7874015748031497},{"duration":0.13043474999999916,"midi":42,"time":29.608688249999997,"velocity":0.7874015748031497},{"duration":0.1304347500000027,"midi":35,"time":29.739122999999996,"velocity":0.7874015748031497},{"duration":0.13043474999999916,"midi":42,"time":29.86955775,"velocity":0.7874015748031497},{"duration":0.13043474999999916,"midi":38,"time":29.999992499999998,"velocity":0.7874015748031497},{"duration":0.13043474999999916,"midi":40,"time":29.999992499999998,"velocity":0.7874015748031497},{"duration":0.13043474999999916,"midi":42,"time":30.130427249999997,"velocity":0.7874015748031497},{"duration":0.1304347500000027,"midi":35,"time":30.260861999999996,"velocity":0.7874015748031497},{"duration":0.13043474999999916,"midi":42,"time":30.39129675,"velocity":0.7874015748031497},{"duration":0.13043474999999916,"midi":38,"time":30.521731499999998,"velocity":0.7874015748031497},{"duration":0.13043474999999916,"midi":40,"time":30.521731499999998,"velocity":0.7874015748031497},{"duration":0.13043474999999916,"midi":42,"time":30.652166249999997,"velocity":0.7874015748031497},{"duration":0.1304347500000027,"midi":35,"time":30.782600999999996,"velocity":0.7874015748031497},{"duration":0.13043474999999916,"midi":42,"time":31.043470499999998,"velocity":0.7874015748031497},{"duration":0.13043474999999916,"midi":38,"time":31.304339999999996,"velocity":0.7874015748031497},{"duration":0.13043474999999916,"midi":38,"time":31.304339999999996,"velocity":0.7874015748031497},{"duration":0.13043474999999916,"midi":40,"time":31.304339999999996,"velocity":0.7874015748031497},{"duration":0.13043474999999916,"midi":42,"time":31.565209499999998,"velocity":0.7874015748031497},{"duration":0.13043474999999916,"midi":35,"time":31.826078999999996,"velocity":0.7874015748031497},{"duration":0.13043474999999916,"midi":42,"time":32.0869485,"velocity":0.7874015748031497},{"duration":0.13043474999999916,"midi":40,"time":32.347818,"velocity":0.7874015748031497},{"duration":0.13043474999999916,"midi":38,"time":32.347818,"velocity":0.7874015748031497},{"duration":0.13043474999999916,"midi":38,"time":32.347818,"velocity":0.7874015748031497},{"duration":0.13043474999999916,"midi":42,"time":32.608687499999995,"velocity":0.7874015748031497},{"duration":0.13043474999999916,"midi":38,"time":32.869557,"velocity":0.7874015748031497},{"duration":0.13043474999999916,"midi":40,"time":32.869557,"velocity":0.7874015748031497},{"duration":0.13043474999999916,"midi":35,"time":32.869557,"velocity":0.7874015748031497},{"duration":0.13043475000000626,"midi":35,"time":34.956512999999994,"velocity":0.7874015748031497},{"duration":0.13043474999999916,"midi":42,"time":35.08694775,"velocity":0.7874015748031497},{"duration":0.13043474999999916,"midi":38,"time":35.2173825,"velocity":0.7874015748031497},{"duration":0.13043474999999916,"midi":40,"time":35.2173825,"velocity":0.7874015748031497},{"duration":0.13043474999999916,"midi":42,"time":35.34781725,"velocity":0.7874015748031497},{"duration":0.13043474999999916,"midi":35,"time":35.478252,"velocity":0.7874015748031497},{"duration":0.13043474999999916,"midi":42,"time":35.60868675,"velocity":0.7874015748031497},{"duration":0.13043474999999916,"midi":38,"time":35.739121499999996,"velocity":0.7874015748031497},{"duration":0.13043474999999916,"midi":40,"time":35.739121499999996,"velocity":0.7874015748031497},{"duration":0.13043474999999916,"midi":42,"time":35.869556249999995,"velocity":0.7874015748031497},{"duration":0.13043474999999916,"midi":35,"time":35.999990999999994,"velocity":0.7874015748031497},{"duration":0.13043475000000626,"midi":42,"time":36.13042574999999,"velocity":0.7874015748031497},{"duration":0.13043474999999916,"midi":38,"time":36.2608605,"velocity":0.7874015748031497},{"duration":0.13043474999999916,"midi":40,"time":36.2608605,"velocity":0.7874015748031497},{"duration":0.13043474999999916,"midi":42,"time":36.39129525,"velocity":0.7874015748031497},{"duration":0.13043474999999916,"midi":35,"time":36.52173,"velocity":0.7874015748031497},{"duration":0.13043474999999916,"midi":42,"time":36.65216475,"velocity":0.7874015748031497},{"duration":0.13043474999999916,"midi":40,"time":36.782599499999996,"velocity":0.7874015748031497},{"duration":0.13043474999999916,"midi":38,"time":36.782599499999996,"velocity":0.7874015748031497},{"duration":0.13043474999999916,"midi":42,"time":36.913034249999995,"velocity":0.7874015748031497},{"duration":0.13043474999999916,"midi":35,"time":37.043468999999995,"velocity":0.7874015748031497},{"duration":0.13043475000000626,"midi":42,"time":37.173903749999994,"velocity":0.7874015748031497},{"duration":0.13043474999999916,"midi":40,"time":37.3043385,"velocity":0.7874015748031497},{"duration":0.13043474999999916,"midi":38,"time":37.3043385,"velocity":0.7874015748031497},{"duration":0.13043474999999916,"midi":42,"time":37.43477325,"velocity":0.7874015748031497},{"duration":0.13043474999999916,"midi":35,"time":37.565208,"velocity":0.7874015748031497},{"duration":0.13043474999999916,"midi":42,"time":37.69564275,"velocity":0.7874015748031497},{"duration":0.13043474999999916,"midi":40,"time":37.8260775,"velocity":0.7874015748031497},{"duration":0.13043474999999916,"midi":38,"time":37.8260775,"velocity":0.7874015748031497},{"duration":0.13043474999999916,"midi":42,"time":37.956512249999996,"velocity":0.7874015748031497},{"duration":0.13043474999999916,"midi":35,"time":38.086946999999995,"velocity":0.7874015748031497},{"duration":0.13043474999999916,"midi":40,"time":38.608686,"velocity":0.7874015748031497},{"duration":0.13043474999999916,"midi":35,"time":38.608686,"velocity":0.7874015748031497},{"duration":0.13043474999999916,"midi":35,"time":39.130424999999995,"velocity":0.7874015748031497},{"duration":0.13043474999999916,"midi":42,"time":39.260859749999995,"velocity":0.7874015748031497},{"duration":0.13043475000000626,"midi":40,"time":39.391294499999994,"velocity":0.7874015748031497},{"duration":0.13043475000000626,"midi":38,"time":39.391294499999994,"velocity":0.7874015748031497},{"duration":0.13043474999999916,"midi":42,"time":39.52172925,"velocity":0.7874015748031497},{"duration":0.13043474999999916,"midi":35,"time":39.652164,"velocity":0.7874015748031497},{"duration":0.13043474999999916,"midi":42,"time":39.78259875,"velocity":0.7874015748031497},{"duration":0.13043474999999916,"midi":40,"time":39.9130335,"velocity":0.7874015748031497},{"duration":0.13043474999999916,"midi":38,"time":39.9130335,"velocity":0.7874015748031497},{"duration":0.13043474999999916,"midi":42,"time":40.04346825,"velocity":0.7874015748031497},{"duration":0.13043474999999916,"midi":35,"time":40.173902999999996,"velocity":0.7874015748031497},{"duration":0.13043474999999916,"midi":42,"time":40.304337749999995,"velocity":0.7874015748031497},{"duration":0.13043474999999916,"midi":40,"time":40.434772499999994,"velocity":0.7874015748031497},{"duration":0.13043474999999916,"midi":38,"time":40.434772499999994,"velocity":0.7874015748031497},{"duration":0.13043475000000626,"midi":42,"time":40.56520724999999,"velocity":0.7874015748031497},{"duration":0.13043474999999916,"midi":35,"time":40.695642,"velocity":0.7874015748031497},{"duration":0.13043474999999916,"midi":42,"time":40.82607675,"velocity":0.7874015748031497},{"duration":0.13043474999999916,"midi":38,"time":40.9565115,"velocity":0.7874015748031497},{"duration":0.13043474999999916,"midi":40,"time":40.9565115,"velocity":0.7874015748031497},{"duration":0.13043474999999916,"midi":42,"time":41.08694625,"velocity":0.7874015748031497},{"duration":0.13043474999999916,"midi":35,"time":41.217380999999996,"velocity":0.7874015748031497},{"duration":0.13043474999999916,"midi":42,"time":41.347815749999995,"velocity":0.7874015748031497},{"duration":0.13043474999999916,"midi":38,"time":41.478250499999994,"velocity":0.7874015748031497},{"duration":0.13043474999999916,"midi":40,"time":41.478250499999994,"velocity":0.7874015748031497},{"duration":0.13043475000000626,"midi":42,"time":41.60868524999999,"velocity":0.7874015748031497},{"duration":0.13043474999999916,"midi":35,"time":41.73912,"velocity":0.7874015748031497},{"duration":0.13043474999999916,"midi":42,"time":41.86955475,"velocity":0.7874015748031497},{"duration":0.13043474999999916,"midi":40,"time":41.9999895,"velocity":0.7874015748031497},{"duration":0.13043474999999916,"midi":38,"time":41.9999895,"velocity":0.7874015748031497},{"duration":0.13043474999999916,"midi":42,"time":42.13042425,"velocity":0.7874015748031497},{"duration":0.13043474999999916,"midi":35,"time":42.260858999999996,"velocity":0.7874015748031497},{"duration":0.13043475000000626,"midi":35,"time":42.78259799999999,"velocity":0.7874015748031497},{"duration":0.13043475000000626,"midi":40,"time":42.78259799999999,"velocity":0.7874015748031497},{"duration":0.13043474999999916,"midi":40,"time":43.304337,"velocity":0.7874015748031497},{"duration":0.13043474999999916,"midi":35,"time":43.304337,"velocity":0.7874015748031497},{"duration":0.13043474999999916,"midi":38,"time":45.391293,"velocity":0.7874015748031497},{"duration":0.13043474999999916,"midi":35,"time":45.391293,"velocity":0.7874015748031497},{"duration":0.13043474999999916,"midi":40,"time":45.391293,"velocity":0.7874015748031497},{"duration":0.13043474999999916,"midi":35,"time":47.478249,"velocity":0.7874015748031497},{"duration":0.13043474999999916,"midi":40,"time":47.478249,"velocity":0.7874015748031497},{"duration":0.13043474999999916,"midi":35,"time":49.565205,"velocity":0.7874015748031497},{"duration":0.13043474999999916,"midi":40,"time":49.69563975,"velocity":0.7874015748031497},{"duration":0.13043474999999916,"midi":38,"time":49.8260745,"velocity":0.7874015748031497},{"duration":0.13043475000000626,"midi":35,"time":50.60868299999999,"velocity":0.7874015748031497},{"duration":0.13043475000000626,"midi":40,"time":50.60868299999999,"velocity":0.7874015748031497},{"duration":0.13043474999999916,"midi":35,"time":51.130421999999996,"velocity":0.7874015748031497},{"duration":0.13043475000000626,"midi":35,"time":51.65216099999999,"velocity":0.7874015748031497},{"duration":0.13043475000000626,"midi":40,"time":51.65216099999999,"velocity":0.7874015748031497},{"duration":0.13043474999999916,"midi":40,"time":52.04346525,"velocity":0.7874015748031497},{"duration":0.13043474999999916,"midi":35,"time":52.04346525,"velocity":0.7874015748031497},{"duration":0.13043474999999916,"midi":40,"time":52.434769499999994,"velocity":0.7874015748031497},{"duration":0.13043474999999916,"midi":35,"time":52.565204249999994,"velocity":0.7874015748031497},{"duration":0.13043474999999916,"midi":40,"time":52.69563899999999,"velocity":0.7874015748031497},{"duration":0.13043475000000626,"midi":35,"time":52.82607374999999,"velocity":0.7874015748031497},{"duration":0.13043474999999916,"midi":40,"time":52.9565085,"velocity":0.7874015748031497},{"duration":0.13043474999999916,"midi":40,"time":53.08694325,"velocity":0.7874015748031497},{"duration":0.13043474999999916,"midi":40,"time":53.217378,"velocity":0.7874015748031497},{"duration":0.13043474999999916,"midi":35,"time":53.347812749999996,"velocity":0.7874015748031497},{"duration":0.13043474999999916,"midi":40,"time":53.478247499999995,"velocity":0.7874015748031497},{"duration":0.13043474999999916,"midi":35,"time":53.73911699999999,"velocity":0.7874015748031497},{"duration":0.13043474999999916,"midi":40,"time":53.73911699999999,"velocity":0.7874015748031497},{"duration":0.13043474999999916,"midi":40,"time":54.13042125,"velocity":0.7874015748031497},{"duration":0.13043474999999916,"midi":35,"time":54.13042125,"velocity":0.7874015748031497},{"duration":0.13043474999999916,"midi":40,"time":54.521725499999995,"velocity":0.7874015748031497},{"duration":0.13043474999999916,"midi":42,"time":54.652160249999994,"velocity":0.7874015748031497},{"duration":0.13043474999999916,"midi":40,"time":54.78259499999999,"velocity":0.7874015748031497},{"duration":0.13043474999999916,"midi":40,"time":54.91302974999999,"velocity":0.7874015748031497},{"duration":0.13043475000000626,"midi":40,"time":55.04346449999999,"velocity":0.7874015748031497},{"duration":0.13043474999999916,"midi":42,"time":55.17389925,"velocity":0.7874015748031497},{"duration":0.13043474999999916,"midi":35,"time":55.304334,"velocity":0.7874015748031497},{"duration":0.13043474999999916,"midi":40,"time":55.434768749999996,"velocity":0.7874015748031497},{"duration":0.13043474999999916,"midi":40,"time":55.565203499999996,"velocity":0.7874015748031497},{"duration":0.13043474999999916,"midi":40,"time":55.826072999999994,"velocity":0.7874015748031497},{"duration":0.13043474999999916,"midi":35,"time":55.826072999999994,"velocity":0.7874015748031497},{"duration":0.13043474999999916,"midi":35,"time":56.21737725,"velocity":0.7874015748031497},{"duration":0.13043474999999916,"midi":40,"time":56.21737725,"velocity":0.7874015748031497},{"duration":0.13043474999999916,"midi":40,"time":56.608681499999996,"velocity":0.7874015748031497},{"duration":0.13043474999999916,"midi":35,"time":56.739116249999995,"velocity":0.7874015748031497},{"duration":0.13043474999999916,"midi":40,"time":56.869550999999994,"velocity":0.7874015748031497},{"duration":0.13043474999999916,"midi":42,"time":56.99998574999999,"velocity":0.7874015748031497},{"duration":0.13043474999999916,"midi":40,"time":57.13042049999999,"velocity":0.7874015748031497},{"duration":0.13043475000000626,"midi":42,"time":57.26085524999999,"velocity":0.7874015748031497},{"duration":0.13043474999999916,"midi":40,"time":57.39129,"velocity":0.7874015748031497},{"duration":0.13043474999999916,"midi":40,"time":57.52172475,"velocity":0.7874015748031497},{"duration":0.13043474999999916,"midi":40,"time":57.652159499999996,"velocity":0.7874015748031497},{"duration":0.13043474999999916,"midi":40,"time":57.913028999999995,"velocity":0.7874015748031497},{"duration":0.13043474999999916,"midi":35,"time":57.913028999999995,"velocity":0.7874015748031497},{"duration":0.13043474999999916,"midi":40,"time":58.30433324999999,"velocity":0.7874015748031497},{"duration":0.13043474999999916,"midi":35,"time":58.30433324999999,"velocity":0.7874015748031497},{"duration":0.13043474999999916,"midi":40,"time":58.6956375,"velocity":0.7874015748031497},{"duration":0.13043474999999916,"midi":35,"time":58.6956375,"velocity":0.7874015748031497},{"duration":0.06521737500000313,"midi":35,"time":58.956506999999995,"velocity":0.7874015748031497},{"duration":0.06521737499999603,"midi":35,"time":59.021724375,"velocity":0.7874015748031497},{"duration":0.13043474999999916,"midi":35,"time":59.21737649999999,"velocity":0.7874015748031497},{"duration":0.13043475000000626,"midi":35,"time":59.47824599999999,"velocity":0.7874015748031497},{"duration":0.13043474999999916,"midi":40,"time":59.7391155,"velocity":0.7874015748031497},{"duration":0.13043474999999916,"midi":40,"time":59.999984999999995,"velocity":0.7874015748031497},{"duration":0.13043474999999916,"midi":35,"time":59.999984999999995,"velocity":0.7874015748031497},{"duration":0.13043474999999916,"midi":35,"time":60.52172399999999,"velocity":0.7874015748031497},{"duration":0.13043474999999916,"midi":40,"time":60.52172399999999,"velocity":0.7874015748031497},{"duration":0.13043474999999916,"midi":35,"time":60.913028249999996,"velocity":0.7874015748031497},{"duration":0.13043474999999916,"midi":40,"time":60.913028249999996,"velocity":0.7874015748031497},{"duration":0.13043474999999916,"midi":40,"time":61.304332499999994,"velocity":0.7874015748031497},{"duration":0.13043474999999916,"midi":35,"time":61.43476724999999,"velocity":0.7874015748031497},{"duration":0.13043474999999916,"midi":40,"time":61.56520199999999,"velocity":0.7874015748031497},{"duration":0.13043475000000626,"midi":35,"time":61.69563674999999,"velocity":0.7874015748031497},{"duration":0.13043474999999916,"midi":40,"time":61.8260715,"velocity":0.7874015748031497},{"duration":0.13043474999999916,"midi":40,"time":61.95650625,"velocity":0.7874015748031497},{"duration":0.13043474999999916,"midi":40,"time":62.086940999999996,"velocity":0.7874015748031497},{"duration":0.13043474999999916,"midi":35,"time":62.217375749999995,"velocity":0.7874015748031497},{"duration":0.13043474999999916,"midi":40,"time":62.347810499999994,"velocity":0.7874015748031497},{"duration":0.13043474999999916,"midi":35,"time":62.60867999999999,"velocity":0.7874015748031497},{"duration":0.13043474999999916,"midi":40,"time":62.60867999999999,"velocity":0.7874015748031497},{"duration":0.13043474999999916,"midi":35,"time":62.99998425,"velocity":0.7874015748031497},{"duration":0.13043474999999916,"midi":40,"time":62.99998425,"velocity":0.7874015748031497},{"duration":0.13043474999999916,"midi":40,"time":63.391288499999995,"velocity":0.7874015748031497},{"duration":0.13043474999999916,"midi":42,"time":63.521723249999994,"velocity":0.7874015748031497},{"duration":0.13043474999999916,"midi":40,"time":63.65215799999999,"velocity":0.7874015748031497},{"duration":0.13043474999999916,"midi":40,"time":63.78259274999999,"velocity":0.7874015748031497},{"duration":0.13043474999999916,"midi":40,"time":63.91302749999999,"velocity":0.7874015748031497},{"duration":0.13043475000000626,"midi":42,"time":64.04346224999999,"velocity":0.7874015748031497},{"duration":0.13043474999999205,"midi":35,"time":64.173897,"velocity":0.7874015748031497},{"duration":0.13043475000000626,"midi":40,"time":64.30433174999999,"velocity":0.7874015748031497},{"duration":0.13043475000000626,"midi":40,"time":64.4347665,"velocity":0.7874015748031497},{"duration":0.13043475000000626,"midi":35,"time":64.695636,"velocity":0.7874015748031497},{"duration":0.13043475000000626,"midi":40,"time":64.695636,"velocity":0.7874015748031497},{"duration":0.13043474999999205,"midi":40,"time":65.08694025,"velocity":0.7874015748031497},{"duration":0.13043474999999205,"midi":35,"time":65.08694025,"velocity":0.7874015748031497},{"duration":0.13043475000000626,"midi":40,"time":65.47824449999999,"velocity":0.7874015748031497},{"duration":0.13043475000000626,"midi":35,"time":65.60867925,"velocity":0.7874015748031497},{"duration":0.13043474999999205,"midi":40,"time":65.739114,"velocity":0.7874015748031497},{"duration":0.13043475000000626,"midi":42,"time":65.86954874999999,"velocity":0.7874015748031497},{"duration":0.13043474999999205,"midi":40,"time":65.9999835,"velocity":0.7874015748031497},{"duration":0.13043475000000626,"midi":42,"time":66.13041824999999,"velocity":0.7874015748031497},{"duration":0.13043474999999205,"midi":40,"time":66.260853,"velocity":0.7874015748031497},{"duration":0.13043475000000626,"midi":40,"time":66.39128774999999,"velocity":0.7874015748031497},{"duration":0.13043474999999205,"midi":40,"time":66.5217225,"velocity":0.7874015748031497},{"duration":0.13043475000000626,"midi":35,"time":66.782592,"velocity":0.7874015748031497},{"duration":0.13043475000000626,"midi":40,"time":66.782592,"velocity":0.7874015748031497},{"duration":0.13043474999999205,"midi":40,"time":67.17389625,"velocity":0.7874015748031497},{"duration":0.13043474999999205,"midi":35,"time":67.17389625,"velocity":0.7874015748031497},{"duration":0.13043475000000626,"midi":35,"time":67.56520049999999,"velocity":0.7874015748031497},{"duration":0.13043475000000626,"midi":40,"time":67.56520049999999,"velocity":0.7874015748031497},{"duration":0.06521737500000313,"midi":35,"time":67.82606999999999,"velocity":0.7874015748031497},{"duration":0.06521737500000313,"midi":35,"time":67.89128737499999,"velocity":0.7874015748031497},{"duration":0.13043474999999205,"midi":35,"time":68.0869395,"velocity":0.7874015748031497},{"duration":0.13043474999999205,"midi":35,"time":68.347809,"velocity":0.7874015748031497},{"duration":0.13043474999999205,"midi":35,"time":68.869548,"velocity":0.7874015748031497},{"duration":0.13043474999999205,"midi":35,"time":69.26085225,"velocity":0.7874015748031497},{"duration":0.13043475000000626,"midi":35,"time":69.65215649999999,"velocity":0.7874015748031497},{"duration":0.13043475000000626,"midi":35,"time":69.91302599999999,"velocity":0.7874015748031497},{"duration":0.13043474999999205,"midi":35,"time":70.1738955,"velocity":0.7874015748031497},{"duration":0.13043474999999205,"midi":35,"time":70.434765,"velocity":0.7874015748031497},{"duration":0.13043474999999205,"midi":35,"time":70.956504,"velocity":0.7874015748031497},{"duration":0.13043474999999205,"midi":35,"time":71.34780825,"velocity":0.7874015748031497},{"duration":0.13043475000000626,"midi":35,"time":71.73911249999999,"velocity":0.7874015748031497},{"duration":0.13043475000000626,"midi":35,"time":71.99998199999999,"velocity":0.7874015748031497},{"duration":0.13043475000000626,"midi":35,"time":72.26085149999999,"velocity":0.7874015748031497},{"duration":0.13043474999999205,"midi":35,"time":72.521721,"velocity":0.7874015748031497},{"duration":0.13043474999999205,"midi":40,"time":72.521721,"velocity":0.7874015748031497},{"duration":0.13043474999999205,"midi":35,"time":73.04346,"velocity":0.7874015748031497},{"duration":0.13043474999999205,"midi":40,"time":73.04346,"velocity":0.7874015748031497},{"duration":0.13043475000000626,"midi":40,"time":73.43476424999999,"velocity":0.7874015748031497},{"duration":0.13043475000000626,"midi":35,"time":73.43476424999999,"velocity":0.7874015748031497},{"duration":0.13043475000000626,"midi":35,"time":73.82606849999999,"velocity":0.7874015748031497},{"duration":0.13043475000000626,"midi":35,"time":74.08693799999999,"velocity":0.7874015748031497},{"duration":0.13043475000000626,"midi":35,"time":74.34780749999999,"velocity":0.7874015748031497},{"duration":0.13043474999999205,"midi":40,"time":74.608677,"velocity":0.7874015748031497},{"duration":0.13043474999999205,"midi":35,"time":74.608677,"velocity":0.7874015748031497},{"duration":0.13043475000000626,"midi":35,"time":75.652155,"velocity":0.7874015748031497},{"duration":0.13043475000000626,"midi":40,"time":75.652155,"velocity":0.7874015748031497},{"duration":0.13043475000000626,"midi":35,"time":76.17389399999999,"velocity":0.7874015748031497},{"duration":0.13043475000000626,"midi":35,"time":76.43476349999999,"velocity":0.7874015748031497},{"duration":0.13043475000000626,"midi":35,"time":76.69563299999999,"velocity":0.7874015748031497},{"duration":0.13043475000000626,"midi":40,"time":76.69563299999999,"velocity":0.7874015748031497},{"duration":0.13043474999999205,"midi":35,"time":77.217372,"velocity":0.7874015748031497},{"duration":0.13043474999999205,"midi":40,"time":77.217372,"velocity":0.7874015748031497},{"duration":0.13043475000000626,"midi":40,"time":77.60867624999999,"velocity":0.7874015748031497},{"duration":0.13043475000000626,"midi":38,"time":77.60867624999999,"velocity":0.7874015748031497},{"duration":0.13043475000000626,"midi":35,"time":77.60867624999999,"velocity":0.7874015748031497},{"duration":0.13043475000000626,"midi":35,"time":78.26084999999999,"velocity":0.7874015748031497},{"duration":0.13043475000000626,"midi":35,"time":78.78258899999999,"velocity":0.7874015748031497},{"duration":0.13043475000000626,"midi":35,"time":79.17389324999999,"velocity":0.7874015748031497},{"duration":0.13043474999999205,"midi":35,"time":79.5651975,"velocity":0.7874015748031497},{"duration":0.13043474999999205,"midi":35,"time":79.826067,"velocity":0.7874015748031497},{"duration":0.13043475000000626,"midi":35,"time":80.0869365,"velocity":0.7874015748031497},{"duration":0.13043475000000626,"midi":35,"time":80.34780599999999,"velocity":0.7874015748031497},{"duration":0.13043475000000626,"midi":35,"time":80.86954499999999,"velocity":0.7874015748031497},{"duration":0.13043475000000626,"midi":35,"time":81.26084924999999,"velocity":0.7874015748031497},{"duration":0.13043474999999205,"midi":35,"time":81.6521535,"velocity":0.7874015748031497},{"duration":0.13043474999999205,"midi":35,"time":81.913023,"velocity":0.7874015748031497},{"duration":0.13043474999999205,"midi":35,"time":82.1738925,"velocity":0.7874015748031497},{"duration":0.13043475000000626,"midi":40,"time":82.43476199999999,"velocity":0.7874015748031497},{"duration":0.13043475000000626,"midi":35,"time":82.43476199999999,"velocity":0.7874015748031497},{"duration":0.13043475000000626,"midi":35,"time":82.95650099999999,"velocity":0.7874015748031497},{"duration":0.13043475000000626,"midi":40,"time":82.95650099999999,"velocity":0.7874015748031497},{"duration":0.13043475000000626,"midi":40,"time":83.34780525,"velocity":0.7874015748031497},{"duration":0.13043475000000626,"midi":35,"time":83.34780525,"velocity":0.7874015748031497},{"duration":0.13043474999999205,"midi":35,"time":83.7391095,"velocity":0.7874015748031497},{"duration":0.13043474999999205,"midi":35,"time":83.999979,"velocity":0.7874015748031497},{"duration":0.13043474999999205,"midi":35,"time":84.2608485,"velocity":0.7874015748031497},{"duration":0.13043475000000626,"midi":35,"time":84.52171799999999,"velocity":0.7874015748031497},{"duration":0.13043475000000626,"midi":40,"time":84.52171799999999,"velocity":0.7874015748031497},{"duration":0.13043475000000626,"midi":35,"time":85.56519599999999,"velocity":0.7874015748031497},{"duration":0.13043475000000626,"midi":40,"time":85.56519599999999,"velocity":0.7874015748031497},{"duration":0.13043474999999205,"midi":35,"time":86.086935,"velocity":0.7874015748031497},{"duration":0.13043474999999205,"midi":35,"time":86.3478045,"velocity":0.7874015748031497},{"duration":0.13043474999999205,"midi":40,"time":86.608674,"velocity":0.7874015748031497},{"duration":0.13043474999999205,"midi":35,"time":86.608674,"velocity":0.7874015748031497},{"duration":0.13043475000000626,"midi":35,"time":87.13041299999999,"velocity":0.7874015748031497},{"duration":0.13043475000000626,"midi":40,"time":87.13041299999999,"velocity":0.7874015748031497},{"duration":0.13043474999999205,"midi":38,"time":87.52171725,"velocity":0.7874015748031497},{"duration":0.13043474999999205,"midi":35,"time":87.52171725,"velocity":0.7874015748031497},{"duration":0.13043474999999205,"midi":40,"time":87.52171725,"velocity":0.7874015748031497},{"duration":0.13043475000000626,"midi":35,"time":88.04345624999999,"velocity":0.7874015748031497},{"duration":0.13043475000000626,"midi":38,"time":88.04345624999999,"velocity":0.7874015748031497},{"duration":0.13043475000000626,"midi":40,"time":88.04345624999999,"velocity":0.7874015748031497},{"duration":0.13043475000000626,"midi":38,"time":88.04345624999999,"velocity":0.7874015748031497},{"duration":0.13043474999999205,"midi":35,"time":88.69563,"velocity":0.7874015748031497},{"duration":0.13043475000000626,"midi":35,"time":89.21736899999999,"velocity":0.7874015748031497},{"duration":0.13043474999999205,"midi":35,"time":89.60867325,"velocity":0.7874015748031497},{"duration":0.13043475000000626,"midi":35,"time":89.99997749999999,"velocity":0.7874015748031497},{"duration":0.13043474999999205,"midi":35,"time":90.260847,"velocity":0.7874015748031497},{"duration":0.13043474999999205,"midi":35,"time":90.5217165,"velocity":0.7874015748031497},{"duration":0.13043474999999205,"midi":35,"time":90.782586,"velocity":0.7874015748031497},{"duration":0.13043475000000626,"midi":35,"time":91.30432499999999,"velocity":0.7874015748031497},{"duration":0.13043474999999205,"midi":35,"time":91.69562925,"velocity":0.7874015748031497},{"duration":0.13043475000000626,"midi":35,"time":92.08693349999999,"velocity":0.7874015748031497},{"duration":0.13043475000000626,"midi":35,"time":92.34780299999998,"velocity":0.7874015748031497},{"duration":0.13043474999999205,"midi":35,"time":92.6086725,"velocity":0.7874015748031497},{"duration":0.13043474999999205,"midi":35,"time":92.869542,"velocity":0.7874015748031497},{"duration":0.13043474999999205,"midi":40,"time":92.869542,"velocity":0.7874015748031497},{"duration":0.13043475000000626,"midi":40,"time":93.39128099999999,"velocity":0.7874015748031497},{"duration":0.13043475000000626,"midi":35,"time":93.39128099999999,"velocity":0.7874015748031497},{"duration":0.13043474999999205,"midi":40,"time":93.78258525,"velocity":0.7874015748031497},{"duration":0.13043474999999205,"midi":35,"time":93.78258525,"velocity":0.7874015748031497},{"duration":0.13043475000000626,"midi":35,"time":94.17388949999999,"velocity":0.7874015748031497},{"duration":0.13043475000000626,"midi":35,"time":94.43475899999999,"velocity":0.7874015748031497},{"duration":0.13043474999999205,"midi":35,"time":94.6956285,"velocity":0.7874015748031497},{"duration":0.13043474999999205,"midi":40,"time":94.956498,"velocity":0.7874015748031497},{"duration":0.13043474999999205,"midi":35,"time":94.956498,"velocity":0.7874015748031497},{"duration":0.13043474999999205,"midi":40,"time":95.478237,"velocity":0.7874015748031497},{"duration":0.13043474999999205,"midi":35,"time":95.478237,"velocity":0.7874015748031497},{"duration":0.13043475000000626,"midi":40,"time":95.99997599999999,"velocity":0.7874015748031497},{"duration":0.13043475000000626,"midi":35,"time":95.99997599999999,"velocity":0.7874015748031497},{"duration":0.13043475000000626,"midi":35,"time":96.52171499999999,"velocity":0.7874015748031497},{"duration":0.13043475000000626,"midi":35,"time":96.78258449999998,"velocity":0.7874015748031497},{"duration":0.13043474999999205,"midi":40,"time":97.043454,"velocity":0.7874015748031497},{"duration":0.13043474999999205,"midi":35,"time":97.043454,"velocity":0.7874015748031497},{"duration":0.13043474999999205,"midi":40,"time":97.565193,"velocity":0.7874015748031497},{"duration":0.13043474999999205,"midi":35,"time":97.565193,"velocity":0.7874015748031497},{"duration":0.13043475000000626,"midi":35,"time":98.08693199999999,"velocity":0.7874015748031497},{"duration":0.13043475000000626,"midi":38,"time":98.08693199999999,"velocity":0.7874015748031497},{"duration":0.13043475000000626,"midi":40,"time":98.08693199999999,"velocity":0.7874015748031497},{"duration":0.13043474999999205,"midi":40,"time":98.47823625,"velocity":0.7874015748031497},{"duration":0.13043474999999205,"midi":35,"time":98.47823625,"velocity":0.7874015748031497},{"duration":0.13043474999999205,"midi":38,"time":98.47823625,"velocity":0.7874015748031497},{"duration":0.13043474999999205,"midi":38,"time":98.47823625,"velocity":0.7874015748031497},{"duration":0.13043474999999205,"midi":35,"time":99.13041,"velocity":0.7874015748031497},{"duration":0.13043474999999205,"midi":40,"time":99.13041,"velocity":0.7874015748031497},{"duration":0.13043474999999205,"midi":35,"time":99.652149,"velocity":0.7874015748031497},{"duration":0.13043474999999205,"midi":40,"time":99.91301849999999,"velocity":0.7874015748031497},{"duration":0.13043474999999205,"midi":35,"time":99.91301849999999,"velocity":0.7874015748031497},{"duration":0.13043475000000626,"midi":42,"time":100.17388799999999,"velocity":0.7874015748031497},{"duration":0.13043475000000626,"midi":38,"time":100.43475749999999,"velocity":0.7874015748031497},{"duration":0.13043475000000626,"midi":42,"time":100.69562699999999,"velocity":0.7874015748031497},{"duration":0.13043475000000626,"midi":38,"time":100.69562699999999,"velocity":0.7874015748031497},{"duration":0.13043475000000626,"midi":35,"time":101.21736599999998,"velocity":0.7874015748031497},{"duration":0.13043474999999205,"midi":35,"time":101.739105,"velocity":0.7874015748031497},{"duration":0.13043475000000626,"midi":35,"time":102.13040924999999,"velocity":0.7874015748031497},{"duration":0.13043475000000626,"midi":35,"time":102.52171349999999,"velocity":0.7874015748031497},{"duration":0.13043475000000626,"midi":35,"time":103.04345249999999,"velocity":0.7874015748031497},{"duration":0.13043474999999205,"midi":35,"time":103.826061,"velocity":0.7874015748031497},{"duration":0.13043475000000626,"midi":35,"time":104.21736524999999,"velocity":0.7874015748031497},{"duration":0.13043475000000626,"midi":35,"time":104.60866949999999,"velocity":0.7874015748031497},{"duration":0.13043475000000626,"midi":35,"time":104.86953899999999,"velocity":0.7874015748031497},{"duration":0.13043475000000626,"midi":35,"time":105.39127799999999,"velocity":0.7874015748031497},{"duration":0.13043474999999205,"midi":35,"time":105.913017,"velocity":0.7874015748031497},{"duration":0.13043475000000626,"midi":35,"time":106.30432124999999,"velocity":0.7874015748031497},{"duration":0.13043474999999205,"midi":35,"time":106.69562549999999,"velocity":0.7874015748031497},{"duration":0.13043475000000626,"midi":35,"time":106.95649499999999,"velocity":0.7874015748031497},{"duration":0.13043475000000626,"midi":35,"time":107.47823399999999,"velocity":0.7874015748031497},{"duration":0.13043474999999205,"midi":35,"time":107.999973,"velocity":0.7874015748031497},{"duration":0.13043475000000626,"midi":35,"time":108.39127724999999,"velocity":0.7874015748031497},{"duration":0.13043474999999205,"midi":35,"time":108.78258149999999,"velocity":0.7874015748031497},{"duration":0.13043475000000626,"midi":40,"time":109.04345099999999,"velocity":0.7874015748031497},{"duration":0.13043475000000626,"midi":35,"time":109.04345099999999,"velocity":0.7874015748031497},{"duration":0.13043474999999205,"midi":40,"time":109.43475525,"velocity":0.7874015748031497},{"duration":0.13043474999999205,"midi":35,"time":109.43475525,"velocity":0.7874015748031497},{"duration":0.13043475000000626,"midi":35,"time":109.82605949999999,"velocity":0.7874015748031497},{"duration":0.13043475000000626,"midi":40,"time":109.82605949999999,"velocity":0.7874015748031497},{"duration":0.13043475000000626,"midi":35,"time":110.08692899999998,"velocity":0.7874015748031497},{"duration":0.13043475000000626,"midi":42,"time":110.21736374999999,"velocity":0.7874015748031497},{"duration":0.13043474999999205,"midi":40,"time":110.3477985,"velocity":0.7874015748031497},{"duration":0.13043474999999205,"midi":38,"time":110.3477985,"velocity":0.7874015748031497},{"duration":0.13043475000000626,"midi":42,"time":110.47823324999999,"velocity":0.7874015748031497},{"duration":0.13043474999999205,"midi":35,"time":110.608668,"velocity":0.7874015748031497},{"duration":0.13043475000000626,"midi":42,"time":110.73910274999999,"velocity":0.7874015748031497},{"duration":0.13043474999999205,"midi":38,"time":110.86953749999999,"velocity":0.7874015748031497},{"duration":0.13043474999999205,"midi":40,"time":110.86953749999999,"velocity":0.7874015748031497},{"duration":0.13043475000000626,"midi":42,"time":110.99997224999998,"velocity":0.7874015748031497},{"duration":0.13043474999999205,"midi":35,"time":111.13040699999999,"velocity":0.7874015748031497},{"duration":0.13043475000000626,"midi":42,"time":111.26084174999998,"velocity":0.7874015748031497},{"duration":0.13043475000000626,"midi":38,"time":111.39127649999999,"velocity":0.7874015748031497},{"duration":0.13043475000000626,"midi":40,"time":111.39127649999999,"velocity":0.7874015748031497},{"duration":0.13043474999999205,"midi":42,"time":111.52171125,"velocity":0.7874015748031497},{"duration":0.13043475000000626,"midi":35,"time":111.65214599999999,"velocity":0.7874015748031497},{"duration":0.13043474999999205,"midi":42,"time":111.78258075,"velocity":0.7874015748031497},{"duration":0.13043475000000626,"midi":40,"time":111.91301549999999,"velocity":0.7874015748031497},{"duration":0.13043475000000626,"midi":38,"time":111.91301549999999,"velocity":0.7874015748031497},{"duration":0.13043474999999205,"midi":42,"time":112.04345024999999,"velocity":0.7874015748031497},{"duration":0.13043475000000626,"midi":35,"time":112.17388499999998,"velocity":0.7874015748031497},{"duration":0.13043475000000626,"midi":42,"time":112.30431974999999,"velocity":0.7874015748031497},{"duration":0.13043474999999205,"midi":38,"time":112.4347545,"velocity":0.7874015748031497},{"duration":0.13043474999999205,"midi":40,"time":112.4347545,"velocity":0.7874015748031497},{"duration":0.13043475000000626,"midi":42,"time":112.56518924999999,"velocity":0.7874015748031497},{"duration":0.13043474999999205,"midi":35,"time":112.695624,"velocity":0.7874015748031497},{"duration":0.13043475000000626,"midi":42,"time":112.82605874999999,"velocity":0.7874015748031497},{"duration":0.13043474999999205,"midi":38,"time":112.9564935,"velocity":0.7874015748031497},{"duration":0.13043474999999205,"midi":40,"time":112.9564935,"velocity":0.7874015748031497},{"duration":0.13043475000000626,"midi":42,"time":113.08692824999999,"velocity":0.7874015748031497},{"duration":0.13043474999999205,"midi":35,"time":113.21736299999999,"velocity":0.7874015748031497},{"duration":0.13043475000000626,"midi":42,"time":113.34779774999998,"velocity":0.7874015748031497},{"duration":0.13043475000000626,"midi":38,"time":113.47823249999999,"velocity":0.7874015748031497},{"duration":0.13043475000000626,"midi":40,"time":113.47823249999999,"velocity":0.7874015748031497},{"duration":0.13043474999999205,"midi":42,"time":113.60866725,"velocity":0.7874015748031497},{"duration":0.13043475000000626,"midi":35,"time":113.73910199999999,"velocity":0.7874015748031497},{"duration":0.13043474999999205,"midi":42,"time":113.86953675,"velocity":0.7874015748031497},{"duration":0.13043475000000626,"midi":38,"time":113.99997149999999,"velocity":0.7874015748031497},{"duration":0.13043475000000626,"midi":40,"time":113.99997149999999,"velocity":0.7874015748031497},{"duration":0.13043474999999205,"midi":42,"time":114.13040625,"velocity":0.7874015748031497},{"duration":0.13043475000000626,"midi":35,"time":114.26084099999999,"velocity":0.7874015748031497},{"duration":0.13043474999999205,"midi":42,"time":114.39127574999999,"velocity":0.7874015748031497},{"duration":0.13043475000000626,"midi":40,"time":114.52171049999998,"velocity":0.7874015748031497},{"duration":0.13043475000000626,"midi":38,"time":114.52171049999998,"velocity":0.7874015748031497},{"duration":0.13043475000000626,"midi":38,"time":114.52171049999998,"velocity":0.7874015748031497},{"duration":0.13043475000000626,"midi":42,"time":114.65214524999999,"velocity":0.7874015748031497},{"duration":0.13043474999999205,"midi":35,"time":114.78258,"velocity":0.7874015748031497},{"duration":0.13043475000000626,"midi":42,"time":114.91301474999999,"velocity":0.7874015748031497},{"duration":0.13043474999999205,"midi":38,"time":115.0434495,"velocity":0.7874015748031497},{"duration":0.13043474999999205,"midi":40,"time":115.0434495,"velocity":0.7874015748031497},{"duration":0.13043474999999205,"midi":38,"time":115.0434495,"velocity":0.7874015748031497},{"duration":0.13043475000000626,"midi":42,"time":115.17388424999999,"velocity":0.7874015748031497},{"duration":0.13043474999999205,"midi":35,"time":115.30431899999999,"velocity":0.7874015748031497},{"duration":0.13043475000000626,"midi":42,"time":115.43475374999998,"velocity":0.7874015748031497},{"duration":0.13043474999999205,"midi":40,"time":115.56518849999999,"velocity":0.7874015748031497},{"duration":0.13043474999999205,"midi":38,"time":115.56518849999999,"velocity":0.7874015748031497},{"duration":0.13043474999999205,"midi":38,"time":115.56518849999999,"velocity":0.7874015748031497},{"duration":0.13043475000000626,"midi":42,"time":115.69562324999998,"velocity":0.7874015748031497},{"duration":0.13043475000000626,"midi":35,"time":115.82605799999999,"velocity":0.7874015748031497},{"duration":0.13043474999999205,"midi":42,"time":115.95649275,"velocity":0.7874015748031497},{"duration":0.13043475000000626,"midi":38,"time":116.08692749999999,"velocity":0.7874015748031497},{"duration":0.13043475000000626,"midi":38,"time":116.08692749999999,"velocity":0.7874015748031497},{"duration":0.13043475000000626,"midi":40,"time":116.08692749999999,"velocity":0.7874015748031497},{"duration":0.13043474999999205,"midi":42,"time":116.21736225,"velocity":0.7874015748031497},{"duration":0.13043475000000626,"midi":35,"time":116.34779699999999,"velocity":0.7874015748031497},{"duration":0.13043474999999205,"midi":42,"time":116.47823174999999,"velocity":0.7874015748031497},{"duration":0.13043475000000626,"midi":38,"time":116.60866649999998,"velocity":0.7874015748031497},{"duration":0.13043475000000626,"midi":40,"time":116.60866649999998,"velocity":0.7874015748031497},{"duration":0.13043474999999205,"midi":42,"time":116.73910124999999,"velocity":0.7874015748031497},{"duration":0.13043475000000626,"midi":35,"time":116.86953599999998,"velocity":0.7874015748031497},{"duration":0.13043475000000626,"midi":42,"time":116.99997074999999,"velocity":0.7874015748031497},{"duration":0.13043474999999205,"midi":40,"time":117.1304055,"velocity":0.7874015748031497},{"duration":0.13043474999999205,"midi":38,"time":117.1304055,"velocity":0.7874015748031497},{"duration":0.13043475000000626,"midi":42,"time":117.26084024999999,"velocity":0.7874015748031497},{"duration":0.13043474999999205,"midi":35,"time":117.391275,"velocity":0.7874015748031497},{"duration":0.13043475000000626,"midi":42,"time":117.52170974999999,"velocity":0.7874015748031497},{"duration":0.13043474999999205,"midi":40,"time":117.65214449999999,"velocity":0.7874015748031497},{"duration":0.13043474999999205,"midi":38,"time":117.65214449999999,"velocity":0.7874015748031497},{"duration":0.13043475000000626,"midi":42,"time":117.78257924999998,"velocity":0.7874015748031497},{"duration":0.13043475000000626,"midi":35,"time":117.91301399999999,"velocity":0.7874015748031497},{"duration":0.13043474999999205,"midi":42,"time":118.04344875,"velocity":0.7874015748031497},{"duration":0.13043475000000626,"midi":38,"time":118.17388349999999,"velocity":0.7874015748031497},{"duration":0.13043475000000626,"midi":40,"time":118.17388349999999,"velocity":0.7874015748031497},{"duration":0.13043474999999205,"midi":42,"time":118.30431825,"velocity":0.7874015748031497},{"duration":0.13043475000000626,"midi":35,"time":118.43475299999999,"velocity":0.7874015748031497},{"duration":0.13043474999999205,"midi":42,"time":118.56518774999999,"velocity":0.7874015748031497},{"duration":0.13043475000000626,"midi":40,"time":118.69562249999998,"velocity":0.7874015748031497},{"duration":0.13043475000000626,"midi":38,"time":118.69562249999998,"velocity":0.7874015748031497},{"duration":0.13043474999999205,"midi":42,"time":118.82605724999999,"velocity":0.7874015748031497},{"duration":0.13043475000000626,"midi":35,"time":118.95649199999998,"velocity":0.7874015748031497},{"duration":0.13043475000000626,"midi":42,"time":119.08692674999999,"velocity":0.7874015748031497},{"duration":0.13043474999999205,"midi":40,"time":119.2173615,"velocity":0.7874015748031497},{"duration":0.13043474999999205,"midi":38,"time":119.2173615,"velocity":0.7874015748031497},{"duration":0.13043475000000626,"midi":42,"time":119.34779624999999,"velocity":0.7874015748031497},{"duration":0.13043474999999205,"midi":35,"time":119.478231,"velocity":0.7874015748031497},{"duration":0.13043475000000626,"midi":42,"time":119.60866574999999,"velocity":0.7874015748031497},{"duration":0.13043474999999205,"midi":40,"time":119.73910049999999,"velocity":0.7874015748031497},{"duration":0.13043474999999205,"midi":38,"time":119.73910049999999,"velocity":0.7874015748031497},{"duration":0.13043475000000626,"midi":42,"time":119.86953524999998,"velocity":0.7874015748031497},{"duration":0.13043474999999205,"midi":35,"time":119.99996999999999,"velocity":0.7874015748031497},{"duration":0.13043475000000626,"midi":42,"time":120.13040474999998,"velocity":0.7874015748031497},{"duration":0.13043475000000626,"midi":40,"time":120.26083949999999,"velocity":0.7874015748031497},{"duration":0.13043475000000626,"midi":38,"time":120.26083949999999,"velocity":0.7874015748031497},{"duration":0.13043474999999205,"midi":42,"time":120.39127425,"velocity":0.7874015748031497},{"duration":0.13043475000000626,"midi":35,"time":120.52170899999999,"velocity":0.7874015748031497},{"duration":0.13043474999999205,"midi":42,"time":120.65214375,"velocity":0.7874015748031497},{"duration":0.13043475000000626,"midi":38,"time":120.78257849999999,"velocity":0.7874015748031497},{"duration":0.13043475000000626,"midi":40,"time":120.78257849999999,"velocity":0.7874015748031497},{"duration":0.13043474999999205,"midi":42,"time":120.91301324999999,"velocity":0.7874015748031497},{"duration":0.13043475000000626,"midi":35,"time":121.04344799999998,"velocity":0.7874015748031497},{"duration":0.13043474999999205,"midi":42,"time":121.17388274999999,"velocity":0.7874015748031497},{"duration":0.13043475000000626,"midi":40,"time":121.30431749999998,"velocity":0.7874015748031497},{"duration":0.13043475000000626,"midi":38,"time":121.30431749999998,"velocity":0.7874015748031497},{"duration":0.13043475000000626,"midi":42,"time":121.43475224999999,"velocity":0.7874015748031497},{"duration":0.13043474999999205,"midi":35,"time":121.565187,"velocity":0.7874015748031497},{"duration":0.13043475000000626,"midi":42,"time":121.69562174999999,"velocity":0.7874015748031497},{"duration":0.13043474999999205,"midi":38,"time":121.82605649999999,"velocity":0.7874015748031497},{"duration":0.13043474999999205,"midi":40,"time":121.82605649999999,"velocity":0.7874015748031497},{"duration":0.13043475000000626,"midi":42,"time":121.95649124999998,"velocity":0.7874015748031497},{"duration":0.13043474999999205,"midi":35,"time":122.08692599999999,"velocity":0.7874015748031497},{"duration":0.13043475000000626,"midi":42,"time":122.21736074999998,"velocity":0.7874015748031497},{"duration":0.13043475000000626,"midi":40,"time":122.34779549999999,"velocity":0.7874015748031497},{"duration":0.13043475000000626,"midi":38,"time":122.34779549999999,"velocity":0.7874015748031497},{"duration":0.13043474999999205,"midi":42,"time":122.47823025,"velocity":0.7874015748031497},{"duration":0.13043475000000626,"midi":35,"time":122.60866499999999,"velocity":0.7874015748031497},{"duration":0.13043475000000626,"midi":42,"time":122.86953449999999,"velocity":0.7874015748031497},{"duration":0.13043475000000626,"midi":40,"time":123.13040399999998,"velocity":0.7874015748031497},{"duration":0.13043475000000626,"midi":52,"time":123.13040399999998,"velocity":0.7874015748031497},{"duration":0.13043475000000626,"midi":38,"time":123.13040399999998,"velocity":0.7874015748031497},{"duration":0.13043475000000626,"midi":42,"time":123.39127349999998,"velocity":0.7874015748031497},{"duration":0.13043474999999205,"midi":35,"time":123.652143,"velocity":0.7874015748031497},{"duration":0.13043474999999205,"midi":42,"time":123.9130125,"velocity":0.7874015748031497},{"duration":0.13043474999999205,"midi":52,"time":124.17388199999999,"velocity":0.7874015748031497},{"duration":0.13043474999999205,"midi":38,"time":124.17388199999999,"velocity":0.7874015748031497},{"duration":0.13043474999999205,"midi":40,"time":124.17388199999999,"velocity":0.7874015748031497},{"duration":0.13043474999999205,"midi":42,"time":124.43475149999999,"velocity":0.7874015748031497},{"duration":0.13043475000000626,"midi":35,"time":124.69562099999999,"velocity":0.7874015748031497},{"duration":0.13043475000000626,"midi":38,"time":124.69562099999999,"velocity":0.7874015748031497},{"duration":0.13043475000000626,"midi":40,"time":124.69562099999999,"velocity":0.7874015748031497},{"duration":0.13043475000000626,"midi":35,"time":125.73909899999998,"velocity":0.7874015748031497},{"duration":0.13043475000000626,"midi":40,"time":125.73909899999998,"velocity":0.7874015748031497},{"duration":0.13043475000000626,"midi":38,"time":125.73909899999998,"velocity":0.7874015748031497},{"duration":0.13043475000000626,"midi":38,"time":125.73909899999998,"velocity":0.7874015748031497},{"duration":0.13043475000000626,"midi":35,"time":126.78257699999999,"velocity":0.7874015748031497},{"duration":0.13043475000000626,"midi":40,"time":126.78257699999999,"velocity":0.7874015748031497},{"duration":0.13043475000000626,"midi":40,"time":127.82605499999998,"velocity":0.7874015748031497},{"duration":0.13043475000000626,"midi":35,"time":127.82605499999998,"velocity":0.7874015748031497},{"duration":0.13043475000000626,"midi":35,"time":128.869533,"velocity":0.7874015748031497},{"duration":0.13043475000000626,"midi":40,"time":128.869533,"velocity":0.7874015748031497},{"duration":0.13043475000000626,"midi":40,"time":129.391272,"velocity":0.7874015748031497},{"duration":0.13043475000000626,"midi":35,"time":129.391272,"velocity":0.7874015748031497},{"duration":0.13043475000000626,"midi":35,"time":129.91301099999998,"velocity":0.7874015748031497},{"duration":0.13043475000000626,"midi":40,"time":129.91301099999998,"velocity":0.7874015748031497},{"duration":0.13043475000000626,"midi":35,"time":130.95648899999998,"velocity":0.7874015748031497},{"duration":0.13043475000000626,"midi":40,"time":130.95648899999998,"velocity":0.7874015748031497},{"duration":0.13043474999997784,"midi":35,"time":131.999967,"velocity":0.7874015748031497},{"duration":0.13043474999997784,"midi":40,"time":131.999967,"velocity":0.7874015748031497},{"duration":0.13043475000000626,"midi":35,"time":133.043445,"velocity":0.7874015748031497},{"duration":0.13043475000000626,"midi":40,"time":133.043445,"velocity":0.7874015748031497},{"duration":0.13043475000000626,"midi":35,"time":133.565184,"velocity":0.7874015748031497},{"duration":0.13043475000000626,"midi":40,"time":133.565184,"velocity":0.7874015748031497},{"duration":0.13043475000000626,"midi":40,"time":134.08692299999998,"velocity":0.7874015748031497},{"duration":0.13043475000000626,"midi":35,"time":134.08692299999998,"velocity":0.7874015748031497},{"duration":0.13043475000000626,"midi":35,"time":135.13040099999998,"velocity":0.7874015748031497},{"duration":0.13043475000000626,"midi":40,"time":135.3912705,"velocity":0.7874015748031497},{"duration":0.13043475000000626,"midi":42,"time":135.65213999999997,"velocity":0.7874015748031497},{"duration":0.13043475000000626,"midi":38,"time":135.9130095,"velocity":0.7874015748031497},{"duration":0.13043474999997784,"midi":35,"time":136.173879,"velocity":0.7874015748031497},{"duration":0.13043475000000626,"midi":40,"time":136.43474849999998,"velocity":0.7874015748031497},{"duration":0.13043474999997784,"midi":38,"time":136.695618,"velocity":0.7874015748031497},{"duration":0.13043475000000626,"midi":38,"time":136.95648749999998,"velocity":0.7874015748031497},{"duration":0.13043475000000626,"midi":40,"time":137.217357,"velocity":0.7874015748031497},{"duration":0.13043475000000626,"midi":38,"time":137.47822649999998,"velocity":0.7874015748031497},{"duration":0.13043475000000626,"midi":42,"time":137.739096,"velocity":0.7874015748031497},{"duration":0.13043475000000626,"midi":35,"time":137.739096,"velocity":0.7874015748031497},{"duration":0.13043475000000626,"midi":38,"time":137.739096,"velocity":0.7874015748031497},{"duration":0.13043475000000626,"midi":38,"time":137.99996549999997,"velocity":0.7874015748031497},{"duration":0.13043475000000626,"midi":38,"time":138.260835,"velocity":0.7874015748031497},{"duration":0.13043475000000626,"midi":35,"time":138.260835,"velocity":0.7874015748031497},{"duration":0.13043475000000626,"midi":38,"time":138.260835,"velocity":0.7874015748031497},{"duration":0.13043475000000626,"midi":35,"time":139.30431299999998,"velocity":0.7874015748031497},{"duration":0.13043475000000626,"midi":40,"time":139.5651825,"velocity":0.7874015748031497},{"duration":0.13043475000000626,"midi":42,"time":139.82605199999998,"velocity":0.7874015748031497},{"duration":0.13043475000000626,"midi":38,"time":140.0869215,"velocity":0.7874015748031497},{"duration":0.13043474999997784,"midi":35,"time":140.347791,"velocity":0.7874015748031497},{"duration":0.13043475000000626,"midi":40,"time":140.60866049999998,"velocity":0.7874015748031497},{"duration":0.13043474999997784,"midi":38,"time":140.86953,"velocity":0.7874015748031497},{"duration":0.13043475000000626,"midi":38,"time":141.13039949999998,"velocity":0.7874015748031497},{"duration":0.13043475000000626,"midi":40,"time":141.391269,"velocity":0.7874015748031497},{"duration":0.13043475000000626,"midi":38,"time":141.65213849999998,"velocity":0.7874015748031497},{"duration":0.13043475000000626,"midi":35,"time":141.913008,"velocity":0.7874015748031497},{"duration":0.13043475000000626,"midi":42,"time":141.913008,"velocity":0.7874015748031497},{"duration":0.13043475000000626,"midi":38,"time":141.913008,"velocity":0.7874015748031497},{"duration":0.13043475000000626,"midi":38,"time":142.17387749999997,"velocity":0.7874015748031497},{"duration":0.13043475000000626,"midi":38,"time":142.434747,"velocity":0.7874015748031497},{"duration":0.13043475000000626,"midi":38,"time":142.434747,"velocity":0.7874015748031497},{"duration":0.13043475000000626,"midi":35,"time":142.434747,"velocity":0.7874015748031497},{"duration":0.13043475000000626,"midi":35,"time":143.47822499999998,"velocity":0.7874015748031497},{"duration":0.13043475000000626,"midi":35,"time":143.7390945,"velocity":0.7874015748031497},{"duration":0.13043475000000626,"midi":42,"time":143.99996399999998,"velocity":0.7874015748031497},{"duration":0.13043475000000626,"midi":38,"time":144.2608335,"velocity":0.7874015748031497},{"duration":0.13043475000000626,"midi":35,"time":144.52170299999997,"velocity":0.7874015748031497},{"duration":0.13043475000000626,"midi":38,"time":144.52170299999997,"velocity":0.7874015748031497},{"duration":0.13043475000000626,"midi":40,"time":144.52170299999997,"velocity":0.7874015748031497},{"duration":0.13043475000000626,"midi":40,"time":144.91300725,"velocity":0.7874015748031497},{"duration":0.13043475000000626,"midi":35,"time":144.91300725,"velocity":0.7874015748031497},{"duration":0.13043475000000626,"midi":35,"time":145.30431149999998,"velocity":0.7874015748031497},{"duration":0.13043475000000626,"midi":40,"time":145.30431149999998,"velocity":0.7874015748031497},{"duration":0.13043474999997784,"midi":40,"time":145.565181,"velocity":0.7874015748031497},{"duration":0.13043475000000626,"midi":42,"time":145.82605049999998,"velocity":0.7874015748031497},{"duration":0.13043475000000626,"midi":38,"time":146.08692,"velocity":0.7874015748031497},{"duration":0.13043475000000626,"midi":38,"time":146.08692,"velocity":0.7874015748031497},{"duration":0.13043475000000626,"midi":42,"time":146.34778949999998,"velocity":0.7874015748031497},{"duration":0.13043475000000626,"midi":35,"time":146.608659,"velocity":0.7874015748031497},{"duration":0.13043475000000626,"midi":40,"time":146.86952849999997,"velocity":0.7874015748031497},{"duration":0.13043475000000626,"midi":35,"time":147.13039799999999,"velocity":0.7874015748031497},{"duration":0.13043475000000626,"midi":40,"time":147.13039799999999,"velocity":0.7874015748031497},{"duration":0.13043474999997784,"midi":35,"time":147.3912675,"velocity":0.7874015748031497},{"duration":0.13043475000000626,"midi":35,"time":147.65213699999998,"velocity":0.7874015748031497},{"duration":0.13043475000000626,"midi":40,"time":147.65213699999998,"velocity":0.7874015748031497},{"duration":0.13043475000000626,"midi":40,"time":148.69561499999998,"velocity":0.7874015748031497},{"duration":0.13043475000000626,"midi":35,"time":148.69561499999998,"velocity":0.7874015748031497},{"duration":0.13043475000000626,"midi":40,"time":149.08691925,"velocity":0.7874015748031497},{"duration":0.13043475000000626,"midi":35,"time":149.08691925,"velocity":0.7874015748031497},{"duration":0.13043475000000626,"midi":35,"time":149.47822349999998,"velocity":0.7874015748031497},{"duration":0.13043475000000626,"midi":40,"time":149.60865825,"velocity":0.7874015748031497},{"duration":0.13043474999997784,"midi":42,"time":149.739093,"velocity":0.7874015748031497},{"duration":0.13043475000000626,"midi":42,"time":150.13039725,"velocity":0.7874015748031497},{"duration":0.13043475000000626,"midi":38,"time":150.13039725,"velocity":0.7874015748031497},{"duration":0.13043475000000626,"midi":40,"time":150.52170149999998,"velocity":0.7874015748031497},{"duration":0.13043475000000626,"midi":42,"time":150.782571,"velocity":0.7874015748031497},{"duration":0.13043475000000626,"midi":38,"time":151.04344049999997,"velocity":0.7874015748031497},{"duration":0.13043475000000626,"midi":42,"time":151.30431,"velocity":0.7874015748031497},{"duration":0.13043474999997784,"midi":40,"time":151.5651795,"velocity":0.7874015748031497},{"duration":0.13043475000000626,"midi":42,"time":151.82604899999998,"velocity":0.7874015748031497},{"duration":0.13043475000000626,"midi":35,"time":151.82604899999998,"velocity":0.7874015748031497},{"duration":0.13043474999997784,"midi":42,"time":152.0869185,"velocity":0.7874015748031497},{"duration":0.13043474999997784,"midi":35,"time":152.0869185,"velocity":0.7874015748031497},{"duration":0.13043475000000626,"midi":38,"time":152.34778799999998,"velocity":0.7874015748031497},{"duration":0.13043475000000626,"midi":35,"time":152.86952699999998,"velocity":0.7874015748031497},{"duration":0.13043475000000626,"midi":42,"time":153.1303965,"velocity":0.7874015748031497},{"duration":0.13043475000000626,"midi":35,"time":153.1303965,"velocity":0.7874015748031497},{"duration":0.13043475000000626,"midi":42,"time":153.39126599999997,"velocity":0.7874015748031497},{"duration":0.13043475000000626,"midi":35,"time":153.39126599999997,"velocity":0.7874015748031497},{"duration":0.13043475000000626,"midi":42,"time":153.65213549999999,"velocity":0.7874015748031497},{"duration":0.13043474999997784,"midi":35,"time":153.913005,"velocity":0.7874015748031497},{"duration":0.13043475000000626,"midi":42,"time":154.17387449999998,"velocity":0.7874015748031497},{"duration":0.13043474999997784,"midi":38,"time":154.434744,"velocity":0.7874015748031497},{"duration":0.13043475000000626,"midi":35,"time":154.69561349999998,"velocity":0.7874015748031497},{"duration":0.13043475000000626,"midi":35,"time":154.956483,"velocity":0.7874015748031497},{"duration":0.13043475000000626,"midi":40,"time":155.21735249999998,"velocity":0.7874015748031497},{"duration":0.13043475000000626,"midi":40,"time":155.478222,"velocity":0.7874015748031497},{"duration":0.13043475000000626,"midi":35,"time":155.478222,"velocity":0.7874015748031497},{"duration":0.13043475000000626,"midi":40,"time":155.99996099999998,"velocity":0.7874015748031497},{"duration":0.13043475000000626,"midi":35,"time":155.99996099999998,"velocity":0.7874015748031497},{"duration":0.13043475000000626,"midi":35,"time":157.8260475,"velocity":0.7874015748031497},{"duration":0.13043474999997784,"midi":35,"time":158.086917,"velocity":0.7874015748031497},{"duration":0.13043474999997784,"midi":40,"time":158.086917,"velocity":0.7874015748031497},{"duration":0.13043475000000626,"midi":40,"time":158.47822125,"velocity":0.7874015748031497},{"duration":0.13043475000000626,"midi":35,"time":158.47822125,"velocity":0.7874015748031497},{"duration":0.13043475000000626,"midi":40,"time":158.86952549999998,"velocity":0.7874015748031497},{"duration":0.13043475000000626,"midi":35,"time":158.86952549999998,"velocity":0.7874015748031497},{"duration":0.13043475000000626,"midi":35,"time":159.130395,"velocity":0.7874015748031497},{"duration":0.13043475000000626,"midi":40,"time":159.130395,"velocity":0.7874015748031497},{"duration":0.13043475000000626,"midi":35,"time":159.52169924999998,"velocity":0.7874015748031497},{"duration":0.13043475000000626,"midi":40,"time":159.52169924999998,"velocity":0.7874015748031497},{"duration":0.13043475000000626,"midi":35,"time":159.91300349999997,"velocity":0.7874015748031497},{"duration":0.13043475000000626,"midi":40,"time":159.91300349999997,"velocity":0.7874015748031497},{"duration":0.13043475000000626,"midi":40,"time":160.173873,"velocity":0.7874015748031497},{"duration":0.13043475000000626,"midi":35,"time":160.173873,"velocity":0.7874015748031497},{"duration":0.13043475000000626,"midi":35,"time":160.56517724999998,"velocity":0.7874015748031497},{"duration":0.13043475000000626,"midi":40,"time":160.56517724999998,"velocity":0.7874015748031497},{"duration":0.13043474999997784,"midi":35,"time":160.9564815,"velocity":0.7874015748031497},{"duration":0.13043474999997784,"midi":40,"time":160.9564815,"velocity":0.7874015748031497},{"duration":0.13043475000000626,"midi":35,"time":161.21735099999998,"velocity":0.7874015748031497},{"duration":0.13043475000000626,"midi":40,"time":161.21735099999998,"velocity":0.7874015748031497},{"duration":0.13043474999997784,"midi":40,"time":161.60865525,"velocity":0.7874015748031497},{"duration":0.13043474999997784,"midi":35,"time":161.60865525,"velocity":0.7874015748031497},{"duration":0.13043475000000626,"midi":35,"time":161.9999595,"velocity":0.7874015748031497},{"duration":0.13043475000000626,"midi":40,"time":161.9999595,"velocity":0.7874015748031497},{"duration":0.13043475000000626,"midi":35,"time":162.26082899999997,"velocity":0.7874015748031497},{"duration":0.13043475000000626,"midi":40,"time":162.26082899999997,"velocity":0.7874015748031497},{"duration":0.13043475000000626,"midi":40,"time":162.65213325,"velocity":0.7874015748031497},{"duration":0.13043475000000626,"midi":35,"time":162.65213325,"velocity":0.7874015748031497},{"duration":0.13043475000000626,"midi":40,"time":163.04343749999998,"velocity":0.7874015748031497},{"duration":0.13043475000000626,"midi":35,"time":163.04343749999998,"velocity":0.7874015748031497},{"duration":0.13043474999997784,"midi":35,"time":163.304307,"velocity":0.7874015748031497},{"duration":0.13043474999997784,"midi":40,"time":163.304307,"velocity":0.7874015748031497},{"duration":0.13043475000000626,"midi":40,"time":163.69561124999998,"velocity":0.7874015748031497},{"duration":0.13043475000000626,"midi":35,"time":163.69561124999998,"velocity":0.7874015748031497},{"duration":0.13043475000000626,"midi":35,"time":164.08691549999998,"velocity":0.7874015748031497},{"duration":0.13043475000000626,"midi":40,"time":164.08691549999998,"velocity":0.7874015748031497},{"duration":0.13043475000000626,"midi":35,"time":164.347785,"velocity":0.7874015748031497},{"duration":0.13043475000000626,"midi":40,"time":164.347785,"velocity":0.7874015748031497},{"duration":0.13043475000000626,"midi":40,"time":164.73908924999998,"velocity":0.7874015748031497},{"duration":0.13043475000000626,"midi":35,"time":164.73908924999998,"velocity":0.7874015748031497},{"duration":0.13043474999997784,"midi":40,"time":165.1303935,"velocity":0.7874015748031497},{"duration":0.13043474999997784,"midi":35,"time":165.1303935,"velocity":0.7874015748031497},{"duration":0.13043475000000626,"midi":35,"time":165.39126299999998,"velocity":0.7874015748031497},{"duration":0.13043475000000626,"midi":40,"time":165.39126299999998,"velocity":0.7874015748031497},{"duration":0.13043475000000626,"midi":40,"time":165.78256724999997,"velocity":0.7874015748031497},{"duration":0.13043475000000626,"midi":35,"time":165.78256724999997,"velocity":0.7874015748031497},{"duration":0.13043475000000626,"midi":35,"time":166.1738715,"velocity":0.7874015748031497},{"duration":0.13043475000000626,"midi":40,"time":166.1738715,"velocity":0.7874015748031497},{"duration":0.13043475000000626,"midi":42,"time":166.43474099999997,"velocity":0.7874015748031497},{"duration":0.13043475000000626,"midi":35,"time":166.43474099999997,"velocity":0.7874015748031497},{"duration":0.13043475000000626,"midi":40,"time":166.6956105,"velocity":0.7874015748031497},{"duration":0.13043475000000626,"midi":42,"time":166.6956105,"velocity":0.7874015748031497},{"duration":0.13043475000000626,"midi":38,"time":166.82604525,"velocity":0.7874015748031497},{"duration":0.13043475000000626,"midi":38,"time":167.21734949999998,"velocity":0.7874015748031497},{"duration":0.13043475000000626,"midi":38,"time":167.21734949999998,"velocity":0.7874015748031497},{"duration":0.13043475000000626,"midi":42,"time":167.21734949999998,"velocity":0.7874015748031497},{"duration":0.13043474999997784,"midi":42,"time":167.478219,"velocity":0.7874015748031497},{"duration":0.13043474999997784,"midi":35,"time":167.478219,"velocity":0.7874015748031497},{"duration":0.13043475000000626,"midi":40,"time":167.73908849999998,"velocity":0.7874015748031497},{"duration":0.13043475000000626,"midi":42,"time":167.73908849999998,"velocity":0.7874015748031497},{"duration":0.13043475000000626,"midi":38,"time":167.86952325,"velocity":0.7874015748031497},{"duration":0.13043475000000626,"midi":38,"time":168.26082749999998,"velocity":0.7874015748031497},{"duration":0.13043475000000626,"midi":42,"time":168.521697,"velocity":0.7874015748031497},{"duration":0.13043475000000626,"midi":35,"time":168.521697,"velocity":0.7874015748031497},{"duration":0.13043475000000626,"midi":40,"time":168.91300124999998,"velocity":0.7874015748031497},{"duration":0.13043475000000626,"midi":42,"time":168.91300124999998,"velocity":0.7874015748031497},{"duration":0.13043474999997784,"midi":38,"time":169.3043055,"velocity":0.7874015748031497},{"duration":0.13043475000000626,"midi":38,"time":169.56517499999998,"velocity":0.7874015748031497},{"duration":0.13043475000000626,"midi":38,"time":169.56517499999998,"velocity":0.7874015748031497},{"duration":0.13043475000000626,"midi":42,"time":169.95647924999997,"velocity":0.7874015748031497},{"duration":0.13043475000000626,"midi":35,"time":169.95647924999997,"velocity":0.7874015748031497},{"duration":0.13043475000000626,"midi":52,"time":170.3477835,"velocity":0.7874015748031497},{"duration":0.13043475000000626,"midi":38,"time":170.60865299999998,"velocity":0.7874015748031497},{"duration":0.13043475000000626,"midi":52,"time":170.60865299999998,"velocity":0.7874015748031497},{"duration":0.13043475000000626,"midi":35,"time":170.60865299999998,"velocity":0.7874015748031497},{"duration":0.13043475000000626,"midi":42,"time":170.60865299999998,"velocity":0.7874015748031497}]},{"instrument":{"family":"drums","number":255},"notes":[{"duration":0.06521737500000313,"midi":57,"time":170.3477835,"velocity":0.3937007874015748},{"duration":0.06521737500000313,"midi":55,"time":170.413000875,"velocity":0.3937007874015748},{"duration":0.06521737499997471,"midi":57,"time":170.47821825,"velocity":0.3937007874015748},{"duration":0.06521737500000313,"midi":55,"time":170.54343562499997,"velocity":0.3937007874015748},{"duration":0.06521737500000313,"midi":57,"time":170.60865299999998,"velocity":0.3937007874015748},{"duration":0.06521737500000313,"midi":55,"time":170.60865299999998,"velocity":0.3937007874015748},{"duration":0.06521737500000313,"midi":55,"time":170.67387037499998,"velocity":0.3937007874015748},{"duration":0.06521737500000313,"midi":57,"time":170.67387037499998,"velocity":0.3937007874015748},{"duration":0.06521737500000313,"midi":57,"time":170.73908774999998,"velocity":0.3937007874015748},{"duration":0.06521737500000313,"midi":55,"time":170.73908774999998,"velocity":0.3937007874015748},{"duration":0.06521737500000313,"midi":57,"time":170.80430512499998,"velocity":0.3937007874015748},{"duration":0.06521737500000313,"midi":55,"time":170.80430512499998,"velocity":0.3937007874015748}]},{"instrument":{"family":"piano","number":0,"name":"acoustic grand piano"},"notes":[{"duration":0.13043475000000626,"midi":72,"time":124.69562099999999,"velocity":0.7874015748031497},{"duration":0.13043474999999205,"midi":69,"time":124.82605575,"velocity":0.7874015748031497},{"duration":0.13043475000000626,"midi":72,"time":124.95649049999999,"velocity":0.7874015748031497},{"duration":0.13043474999999205,"midi":69,"time":125.08692525,"velocity":0.7874015748031497},{"duration":0.2608694999999983,"midi":72,"time":125.21735999999999,"velocity":0.7874015748031497},{"duration":0.2608694999999983,"midi":77,"time":125.47822949999998,"velocity":0.7874015748031497},{"duration":0.2608695000000125,"midi":76,"time":125.73909899999998,"velocity":0.7874015748031497},{"duration":0.13043474999999205,"midi":74,"time":125.9999685,"velocity":0.7874015748031497},{"duration":0.13043475000000626,"midi":73,"time":126.13040324999999,"velocity":0.7874015748031497},{"duration":0.2608694999999983,"midi":76,"time":126.52170749999999,"velocity":0.7874015748031497},{"duration":0.13043475000000626,"midi":89,"time":126.78257699999999,"velocity":0.7874015748031497},{"duration":0.13043474999999205,"midi":88,"time":126.91301175,"velocity":0.7874015748031497},{"duration":0.13043475000000626,"midi":86,"time":127.04344649999999,"velocity":0.7874015748031497},{"duration":0.13043474999999205,"midi":84,"time":127.17388125,"velocity":0.7874015748031497},{"duration":0.2608694999999983,"midi":86,"time":127.30431599999999,"velocity":0.7874015748031497},{"duration":0.2608694999999983,"midi":81,"time":127.56518549999998,"velocity":0.7874015748031497},{"duration":0.39130425000000457,"midi":83,"time":127.82605499999998,"velocity":0.7874015748031497},{"duration":0.13043475000000626,"midi":74,"time":128.60866349999998,"velocity":0.7874015748031497},{"duration":0.13043475000000626,"midi":76,"time":128.73909824999998,"velocity":0.7874015748031497},{"duration":0.39130424999999036,"midi":77,"time":128.869533,"velocity":0.7874015748031497},{"duration":0.2608695000000125,"midi":79,"time":129.26083724999998,"velocity":0.7874015748031497},{"duration":0.13043475000000626,"midi":74,"time":129.52170675,"velocity":0.7874015748031497},{"duration":0.2608694999999841,"midi":84,"time":129.6521415,"velocity":0.7874015748031497},{"duration":0.5217389999999966,"midi":81,"time":129.91301099999998,"velocity":0.7874015748031497},{"duration":0.13043475000000626,"midi":89,"time":130.95648899999998,"velocity":0.7874015748031497},{"duration":0.13043475000000626,"midi":88,"time":131.08692374999998,"velocity":0.7874015748031497},{"duration":0.13043475000000626,"midi":86,"time":131.2173585,"velocity":0.7874015748031497},{"duration":0.13043475000000626,"midi":84,"time":131.34779325,"velocity":0.7874015748031497},{"duration":0.2608694999999841,"midi":86,"time":131.478228,"velocity":0.7874015748031497},{"duration":0.2608695000000125,"midi":81,"time":131.73909749999999,"velocity":0.7874015748031497},{"duration":0.39130424999999036,"midi":83,"time":131.999967,"velocity":0.7874015748031497},{"duration":0.13043475000000626,"midi":74,"time":132.78257549999998,"velocity":0.7874015748031497},{"duration":0.13043475000000626,"midi":76,"time":132.91301024999999,"velocity":0.7874015748031497},{"duration":0.39130424999999036,"midi":77,"time":133.043445,"velocity":0.7874015748031497},{"duration":0.2608695000000125,"midi":76,"time":133.43474924999998,"velocity":0.7874015748031497},{"duration":0.13043475000000626,"midi":72,"time":133.69561875,"velocity":0.7874015748031497},{"duration":0.2608694999999841,"midi":76,"time":133.8260535,"velocity":0.7874015748031497},{"duration":1.0434779999999932,"midi":74,"time":134.08692299999998,"velocity":0.7874015748031497},{"duration":0.13043475000000626,"midi":74,"time":135.13040099999998,"velocity":0.7874015748031497},{"duration":0.13043475000000626,"midi":77,"time":135.13040099999998,"velocity":0.7874015748031497},{"duration":0.13043475000000626,"midi":76,"time":135.26083574999998,"velocity":0.7874015748031497},{"duration":0.13043475000000626,"midi":74,"time":135.3912705,"velocity":0.7874015748031497},{"duration":0.13043474999997784,"midi":72,"time":135.52170525,"velocity":0.7874015748031497},{"duration":0.2608695000000125,"midi":74,"time":135.65213999999997,"velocity":0.7874015748031497},{"duration":0.2608695000000125,"midi":69,"time":135.9130095,"velocity":0.7874015748031497},{"duration":0.39130424999999036,"midi":67,"time":136.173879,"velocity":0.7874015748031497},{"duration":0.39130424999999036,"midi":71,"time":136.173879,"velocity":0.7874015748031497},{"duration":0.39130424999999036,"midi":67,"time":136.56518325,"velocity":0.7874015748031497},{"duration":0.13043475000000626,"midi":62,"time":136.95648749999998,"velocity":0.7874015748031497},{"duration":0.13043475000000626,"midi":64,"time":137.08692225,"velocity":0.7874015748031497},{"duration":0.39130424999999036,"midi":62,"time":137.217357,"velocity":0.7874015748031497},{"duration":0.39130424999999036,"midi":65,"time":137.217357,"velocity":0.7874015748031497},{"duration":0.2608695000000125,"midi":67,"time":137.60866124999998,"velocity":0.7874015748031497},{"duration":0.13043474999997784,"midi":62,"time":137.86953075,"velocity":0.7874015748031497},{"duration":0.2608695000000125,"midi":72,"time":137.99996549999997,"velocity":0.7874015748031497},{"duration":1.0434779999999932,"midi":62,"time":138.260835,"velocity":0.7874015748031497},{"duration":1.0434779999999932,"midi":65,"time":138.260835,"velocity":0.7874015748031497},{"duration":1.0434779999999932,"midi":69,"time":138.260835,"velocity":0.7874015748031497},{"duration":0.13043475000000626,"midi":77,"time":139.30431299999998,"velocity":0.7874015748031497},{"duration":0.13043475000000626,"midi":74,"time":139.30431299999998,"velocity":0.7874015748031497},{"duration":0.13043475000000626,"midi":76,"time":139.43474774999999,"velocity":0.7874015748031497},{"duration":0.13043475000000626,"midi":74,"time":139.5651825,"velocity":0.7874015748031497},{"duration":0.13043474999997784,"midi":72,"time":139.69561725,"velocity":0.7874015748031497},{"duration":0.2608695000000125,"midi":74,"time":139.82605199999998,"velocity":0.7874015748031497},{"duration":0.2608695000000125,"midi":69,"time":140.0869215,"velocity":0.7874015748031497},{"duration":0.39130424999999036,"midi":67,"time":140.347791,"velocity":0.7874015748031497},{"duration":0.39130424999999036,"midi":71,"time":140.347791,"velocity":0.7874015748031497},{"duration":0.39130424999999036,"midi":67,"time":140.73909525,"velocity":0.7874015748031497},{"duration":0.13043475000000626,"midi":62,"time":141.13039949999998,"velocity":0.7874015748031497},{"duration":0.13043475000000626,"midi":64,"time":141.26083425,"velocity":0.7874015748031497},{"duration":0.39130424999999036,"midi":62,"time":141.391269,"velocity":0.7874015748031497},{"duration":0.39130424999999036,"midi":65,"time":141.391269,"velocity":0.7874015748031497},{"duration":0.2608695000000125,"midi":64,"time":141.78257324999998,"velocity":0.7874015748031497},{"duration":0.13043474999997784,"midi":60,"time":142.04344275,"velocity":0.7874015748031497},{"duration":0.2608695000000125,"midi":64,"time":142.17387749999997,"velocity":0.7874015748031497},{"duration":1.0434779999999932,"midi":53,"time":142.434747,"velocity":0.7874015748031497},{"duration":1.0434779999999932,"midi":57,"time":142.434747,"velocity":0.7874015748031497},{"duration":1.0434779999999932,"midi":62,"time":142.434747,"velocity":0.7874015748031497}]}]}
