{"tracks":[{"instrument":{"family":"guitar","number":24,"name":"acoustic guitar (nylon)"},"notes":[{"duration":0.17647050000005038,"midi":66,"time":307.764552,"velocity":0.3937007874015748},{"duration":0.17647049999999354,"midi":73,"time":307.94102250000003,"velocity":0.3937007874015748},{"duration":0.17647049999999354,"midi":71,"time":308.117493,"velocity":0.3937007874015748},{"duration":0.17647049999999354,"midi":66,"time":308.2939635,"velocity":0.3937007874015748},{"duration":0.2647057500000187,"midi":70,"time":308.470434,"velocity":0.3937007874015748},{"duration":0.2647057499999619,"midi":70,"time":308.73513975000003,"velocity":0.3937007874015748},{"duration":0.35294099999998707,"midi":71,"time":308.9998455,"velocity":0.3937007874015748},{"duration":0.17647050000005038,"midi":66,"time":309.3527865,"velocity":0.3937007874015748},{"duration":0.17647049999999354,"midi":71,"time":309.52925700000003,"velocity":0.3937007874015748},{"duration":0.17647049999999354,"midi":66,"time":309.7057275,"velocity":0.3937007874015748},{"duration":0.2647057499999619,"midi":70,"time":309.882198,"velocity":0.3937007874015748},{"duration":0.2647057500000187,"midi":70,"time":310.14690375,"velocity":0.3937007874015748},{"duration":0.17647049999999354,"midi":71,"time":310.4116095,"velocity":0.3937007874015748},{"duration":0.17647049999999354,"midi":66,"time":310.58808,"velocity":0.3937007874015748},{"duration":0.17647049999999354,"midi":73,"time":310.7645505,"velocity":0.3937007874015748},{"duration":0.17647050000005038,"midi":71,"time":310.941021,"velocity":0.3937007874015748},{"duration":0.17647049999999354,"midi":66,"time":311.1174915,"velocity":0.3937007874015748},{"duration":0.2647057499999619,"midi":70,"time":311.293962,"velocity":0.3937007874015748},{"duration":0.2647057500000187,"midi":70,"time":311.55866775,"velocity":0.3937007874015748},{"duration":0.35294099999998707,"midi":71,"time":311.8233735,"velocity":0.3937007874015748},{"duration":0.17647049999999354,"midi":66,"time":312.1763145,"velocity":0.3937007874015748},{"duration":0.17647049999999354,"midi":71,"time":312.352785,"velocity":0.3937007874015748},{"duration":0.17647050000005038,"midi":75,"time":312.5292555,"velocity":0.3937007874015748},{"duration":0.2647057499999619,"midi":73,"time":312.705726,"velocity":0.3937007874015748},{"duration":0.2647057500000187,"midi":71,"time":312.97043175,"velocity":0.3937007874015748},{"duration":0.17647049999999354,"midi":73,"time":313.2351375,"velocity":0.3937007874015748},{"duration":0.17647049999999354,"midi":66,"time":313.411608,"velocity":0.3937007874015748},{"duration":0.17647049999999354,"midi":73,"time":313.5880785,"velocity":0.3937007874015748},{"duration":0.17647049999999354,"midi":71,"time":313.764549,"velocity":0.3937007874015748},{"duration":0.17647050000005038,"midi":66,"time":313.9410195,"velocity":0.3937007874015748},{"duration":0.2647057499999619,"midi":70,"time":314.11749000000003,"velocity":0.3937007874015748},{"duration":0.2647057500000187,"midi":70,"time":314.38219575,"velocity":0.3937007874015748},{"duration":0.35294099999998707,"midi":71,"time":314.6469015,"velocity":0.3937007874015748},{"duration":0.17647049999999354,"midi":66,"time":314.9998425,"velocity":0.3937007874015748},{"duration":0.17647049999999354,"midi":71,"time":315.176313,"velocity":0.3937007874015748},{"duration":0.17647049999999354,"midi":66,"time":315.3527835,"velocity":0.3937007874015748},{"duration":0.2647057500000187,"midi":70,"time":315.529254,"velocity":0.3937007874015748},{"duration":0.2647057500000187,"midi":70,"time":315.79395975,"velocity":0.3937007874015748},{"duration":0.17647049999999354,"midi":71,"time":316.0586655,"velocity":0.3937007874015748},{"duration":0.17647049999999354,"midi":66,"time":316.235136,"velocity":0.3937007874015748},{"duration":0.17647049999999354,"midi":73,"time":316.4116065,"velocity":0.3937007874015748},{"duration":0.17647049999999354,"midi":71,"time":316.588077,"velocity":0.3937007874015748},{"duration":0.17647049999999354,"midi":66,"time":316.7645475,"velocity":0.3937007874015748},{"duration":0.2647057500000187,"midi":70,"time":316.941018,"velocity":0.3937007874015748},{"duration":0.2647057500000187,"midi":70,"time":317.20572375,"velocity":0.3937007874015748},{"duration":0.35294099999998707,"midi":71,"time":317.4704295,"velocity":0.3937007874015748},{"duration":0.17647049999999354,"midi":66,"time":317.8233705,"velocity":0.3937007874015748},{"duration":0.17647049999999354,"midi":71,"time":317.999841,"velocity":0.3937007874015748},{"duration":0.17647049999999354,"midi":75,"time":318.1763115,"velocity":0.3937007874015748},{"duration":0.2647057500000187,"midi":73,"time":318.352782,"velocity":0.3937007874015748},{"duration":0.2647057500000187,"midi":71,"time":318.61748775,"velocity":0.3937007874015748},{"duration":0.17647049999999354,"midi":73,"time":318.8821935,"velocity":0.3937007874015748},{"duration":0.17647049999999354,"midi":66,"time":319.058664,"velocity":0.3937007874015748},{"duration":0.17647049999999354,"midi":73,"time":319.2351345,"velocity":0.3937007874015748},{"duration":0.17647049999999354,"midi":71,"time":319.411605,"velocity":0.3937007874015748},{"duration":0.17647049999999354,"midi":66,"time":319.5880755,"velocity":0.3937007874015748},{"duration":0.2647057500000187,"midi":70,"time":319.764546,"velocity":0.3937007874015748},{"duration":0.2647057499999619,"midi":70,"time":320.02925175,"velocity":0.3937007874015748},{"duration":0.3529410000000439,"midi":71,"time":320.2939575,"velocity":0.3937007874015748},{"duration":0.17647049999999354,"midi":66,"time":320.6468985,"velocity":0.3937007874015748},{"duration":0.17647049999999354,"midi":71,"time":320.823369,"velocity":0.3937007874015748},{"duration":0.17647049999999354,"midi":66,"time":320.9998395,"velocity":0.3937007874015748},{"duration":0.2647057500000187,"midi":70,"time":321.17631,"velocity":0.3937007874015748},{"duration":0.2647057499999619,"midi":70,"time":321.44101575,"velocity":0.3937007874015748},{"duration":0.17647050000005038,"midi":71,"time":321.7057215,"velocity":0.3937007874015748},{"duration":0.17647049999999354,"midi":66,"time":321.88219200000003,"velocity":0.3937007874015748},{"duration":0.17647049999999354,"midi":73,"time":322.0586625,"velocity":0.3937007874015748},{"duration":0.17647049999999354,"midi":71,"time":322.235133,"velocity":0.3937007874015748},{"duration":0.17647049999999354,"midi":66,"time":322.4116035,"velocity":0.3937007874015748},{"duration":0.2647057500000187,"midi":70,"time":322.588074,"velocity":0.3937007874015748},{"duration":0.2647057499999619,"midi":70,"time":322.85277975,"velocity":0.3937007874015748},{"duration":0.3529410000000439,"midi":71,"time":323.1174855,"velocity":0.3937007874015748},{"duration":0.17647049999999354,"midi":66,"time":323.47042650000003,"velocity":0.3937007874015748},{"duration":0.17647049999999354,"midi":71,"time":323.646897,"velocity":0.3937007874015748},{"duration":0.17647049999999354,"midi":75,"time":323.8233675,"velocity":0.3937007874015748},{"duration":0.2647057500000187,"midi":73,"time":323.999838,"velocity":0.3937007874015748},{"duration":0.2647057499999619,"midi":71,"time":324.26454375000003,"velocity":0.3937007874015748},{"duration":0.17647049999999354,"midi":73,"time":324.5292495,"velocity":0.3937007874015748},{"duration":0.17647049999999354,"midi":66,"time":324.70572,"velocity":0.3937007874015748},{"duration":0.17647050000005038,"midi":73,"time":324.8821905,"velocity":0.3937007874015748},{"duration":0.17647049999999354,"midi":71,"time":325.05866100000003,"velocity":0.3937007874015748},{"duration":0.17647049999999354,"midi":66,"time":325.2351315,"velocity":0.3937007874015748},{"duration":0.2647057499999619,"midi":70,"time":325.411602,"velocity":0.3937007874015748},{"duration":0.2647057500000187,"midi":70,"time":325.67630775,"velocity":0.3937007874015748},{"duration":0.35294099999998707,"midi":71,"time":325.9410135,"velocity":0.3937007874015748},{"duration":0.17647049999999354,"midi":66,"time":326.2939545,"velocity":0.3937007874015748},{"duration":0.17647050000005038,"midi":71,"time":326.470425,"velocity":0.3937007874015748},{"duration":0.17647049999999354,"midi":66,"time":326.6468955,"velocity":0.3937007874015748},{"duration":0.2647057499999619,"midi":70,"time":326.823366,"velocity":0.3937007874015748},{"duration":0.2647057500000187,"midi":70,"time":327.08807175,"velocity":0.3937007874015748},{"duration":0.17647049999999354,"midi":71,"time":327.3527775,"velocity":0.3937007874015748},{"duration":0.17647049999999354,"midi":66,"time":327.529248,"velocity":0.3937007874015748},{"duration":0.17647049999999354,"midi":73,"time":327.7057185,"velocity":0.3937007874015748},{"duration":0.17647049999999354,"midi":71,"time":327.882189,"velocity":0.3937007874015748},{"duration":0.17647050000005038,"midi":66,"time":328.0586595,"velocity":0.3937007874015748},{"duration":0.2647057499999619,"midi":70,"time":328.23513,"velocity":0.3937007874015748},{"duration":0.2647057500000187,"midi":70,"time":328.49983575,"velocity":0.3937007874015748},{"duration":0.35294099999998707,"midi":71,"time":328.7645415,"velocity":0.3937007874015748},{"duration":0.17647049999999354,"midi":66,"time":329.1174825,"velocity":0.3937007874015748},{"duration":0.17647049999999354,"midi":71,"time":329.293953,"velocity":0.3937007874015748},{"duration":0.17647050000005038,"midi":75,"time":329.4704235,"velocity":0.3937007874015748},{"duration":0.2647057499999619,"midi":73,"time":329.64689400000003,"velocity":0.3937007874015748},{"duration":0.2647057500000187,"midi":71,"time":329.91159975,"velocity":0.3937007874015748},{"duration":0.17647049999999354,"midi":73,"time":330.1763055,"velocity":0.3937007874015748},{"duration":0.17647049999999354,"midi":66,"time":330.352776,"velocity":0.3937007874015748},{"duration":0.17647049999999354,"midi":73,"time":330.5292465,"velocity":0.3937007874015748},{"duration":0.17647049999999354,"midi":71,"time":330.705717,"velocity":0.3937007874015748},{"duration":0.17647049999999354,"midi":66,"time":330.8821875,"velocity":0.3937007874015748},{"duration":0.2647057500000187,"midi":70,"time":331.058658,"velocity":0.3937007874015748},{"duration":0.2647057500000187,"midi":70,"time":331.32336375,"velocity":0.3937007874015748},{"duration":0.35294099999998707,"midi":71,"time":331.5880695,"velocity":0.3937007874015748},{"duration":0.17647049999999354,"midi":66,"time":331.9410105,"velocity":0.3937007874015748},{"duration":0.17647049999999354,"midi":71,"time":332.117481,"velocity":0.3937007874015748},{"duration":0.17647049999999354,"midi":66,"time":332.2939515,"velocity":0.3937007874015748},{"duration":0.2647057500000187,"midi":70,"time":332.470422,"velocity":0.3937007874015748},{"duration":0.2647057500000187,"midi":70,"time":332.73512775,"velocity":0.3937007874015748},{"duration":0.17647049999999354,"midi":71,"time":332.9998335,"velocity":0.3937007874015748},{"duration":0.17647049999999354,"midi":66,"time":333.176304,"velocity":0.3937007874015748},{"duration":0.17647049999999354,"midi":73,"time":333.3527745,"velocity":0.3937007874015748},{"duration":0.17647049999999354,"midi":71,"time":333.529245,"velocity":0.3937007874015748},{"duration":0.17647049999999354,"midi":66,"time":333.7057155,"velocity":0.3937007874015748},{"duration":0.2647057500000187,"midi":70,"time":333.882186,"velocity":0.3937007874015748},{"duration":0.2647057500000187,"midi":70,"time":334.14689175,"velocity":0.3937007874015748},{"duration":0.35294099999998707,"midi":71,"time":334.4115975,"velocity":0.3937007874015748},{"duration":0.17647049999999354,"midi":66,"time":334.7645385,"velocity":0.3937007874015748},{"duration":0.17647049999999354,"midi":71,"time":334.941009,"velocity":0.3937007874015748},{"duration":0.17647049999999354,"midi":75,"time":335.1174795,"velocity":0.3937007874015748},{"duration":0.2647057500000187,"midi":73,"time":335.29395,"velocity":0.3937007874015748},{"duration":0.2647057500000187,"midi":71,"time":335.55865575,"velocity":0.3937007874015748},{"duration":0.17647049999999354,"midi":73,"time":335.82336150000003,"velocity":0.3937007874015748},{"duration":0.17647049999999354,"midi":66,"time":335.999832,"velocity":0.3937007874015748},{"duration":0.17647049999999354,"midi":73,"time":336.1763025,"velocity":0.3937007874015748},{"duration":0.17647049999999354,"midi":71,"time":336.352773,"velocity":0.3937007874015748},{"duration":0.17647049999999354,"midi":66,"time":336.5292435,"velocity":0.3937007874015748},{"duration":0.2647057500000187,"midi":70,"time":336.705714,"velocity":0.3937007874015748},{"duration":0.2647057499999619,"midi":70,"time":336.97041975,"velocity":0.3937007874015748},{"duration":0.3529410000000439,"midi":71,"time":337.2351255,"velocity":0.3937007874015748},{"duration":0.17647049999999354,"midi":66,"time":337.5880665,"velocity":0.3937007874015748},{"duration":0.17647049999999354,"midi":71,"time":337.764537,"velocity":0.3937007874015748},{"duration":0.17647049999999354,"midi":66,"time":337.9410075,"velocity":0.3937007874015748},{"duration":0.2647057500000187,"midi":70,"time":338.117478,"velocity":0.3937007874015748},{"duration":0.2647057499999619,"midi":70,"time":338.38218375,"velocity":0.3937007874015748},{"duration":0.17647049999999354,"midi":71,"time":338.6468895,"velocity":0.3937007874015748},{"duration":0.17647050000005038,"midi":66,"time":338.82336,"velocity":0.3937007874015748},{"duration":0.17647049999999354,"midi":73,"time":338.99983050000003,"velocity":0.3937007874015748},{"duration":0.17647049999999354,"midi":71,"time":339.176301,"velocity":0.3937007874015748},{"duration":0.17647049999999354,"midi":66,"time":339.3527715,"velocity":0.3937007874015748},{"duration":0.2647057500000187,"midi":70,"time":339.529242,"velocity":0.3937007874015748},{"duration":0.2647057499999619,"midi":70,"time":339.79394775000003,"velocity":0.3937007874015748},{"duration":0.35294099999998707,"midi":71,"time":340.0586535,"velocity":0.3937007874015748},{"duration":0.17647050000005038,"midi":66,"time":340.4115945,"velocity":0.3937007874015748},{"duration":0.17647049999999354,"midi":71,"time":340.58806500000003,"velocity":0.3937007874015748},{"duration":0.17647049999999354,"midi":75,"time":340.7645355,"velocity":0.3937007874015748},{"duration":0.2647057499999619,"midi":73,"time":340.941006,"velocity":0.3937007874015748},{"duration":0.2647057500000187,"midi":71,"time":341.20571175,"velocity":0.3937007874015748},{"duration":0.17647049999999354,"midi":73,"time":341.4704175,"velocity":0.3937007874015748},{"duration":0.17647049999999354,"midi":66,"time":341.646888,"velocity":0.3937007874015748},{"duration":0.17647049999999354,"midi":73,"time":341.8233585,"velocity":0.3937007874015748},{"duration":0.17647050000005038,"midi":71,"time":341.999829,"velocity":0.3937007874015748},{"duration":0.17647049999999354,"midi":66,"time":342.1762995,"velocity":0.3937007874015748},{"duration":0.2647057499999619,"midi":70,"time":342.35277,"velocity":0.3937007874015748},{"duration":0.2647057500000187,"midi":70,"time":342.61747575,"velocity":0.3937007874015748},{"duration":0.35294099999998707,"midi":71,"time":342.8821815,"velocity":0.3937007874015748},{"duration":0.17647049999999354,"midi":66,"time":343.2351225,"velocity":0.3937007874015748},{"duration":0.17647050000005038,"midi":71,"time":343.411593,"velocity":0.3937007874015748},{"duration":0.17647049999999354,"midi":66,"time":343.58806350000003,"velocity":0.3937007874015748},{"duration":0.2647057499999619,"midi":70,"time":343.764534,"velocity":0.3937007874015748},{"duration":0.2647057500000187,"midi":70,"time":344.02923975,"velocity":0.3937007874015748},{"duration":0.17647049999999354,"midi":71,"time":344.2939455,"velocity":0.3937007874015748},{"duration":0.17647049999999354,"midi":66,"time":344.470416,"velocity":0.3937007874015748},{"duration":0.17647049999999354,"midi":73,"time":344.6468865,"velocity":0.3937007874015748},{"duration":0.17647049999999354,"midi":71,"time":344.823357,"velocity":0.3937007874015748},{"duration":0.17647050000005038,"midi":66,"time":344.9998275,"velocity":0.3937007874015748},{"duration":0.2647057499999619,"midi":70,"time":345.17629800000003,"velocity":0.3937007874015748},{"duration":0.2647057500000187,"midi":70,"time":345.44100375,"velocity":0.3937007874015748},{"duration":0.35294099999998707,"midi":71,"time":345.7057095,"velocity":0.3937007874015748},{"duration":0.17647049999999354,"midi":66,"time":346.0586505,"velocity":0.3937007874015748},{"duration":0.17647049999999354,"midi":71,"time":346.235121,"velocity":0.3937007874015748},{"duration":0.17647049999999354,"midi":75,"time":346.4115915,"velocity":0.3937007874015748},{"duration":0.2647057500000187,"midi":73,"time":346.588062,"velocity":0.3937007874015748},{"duration":0.2647057500000187,"midi":71,"time":346.85276775,"velocity":0.3937007874015748},{"duration":0.17647049999999354,"midi":73,"time":347.1174735,"velocity":0.3937007874015748},{"duration":0.17647049999999354,"midi":66,"time":347.293944,"velocity":0.3937007874015748},{"duration":0.17647049999999354,"midi":73,"time":347.4704145,"velocity":0.3937007874015748},{"duration":0.17647049999999354,"midi":71,"time":347.646885,"velocity":0.3937007874015748},{"duration":0.17647049999999354,"midi":66,"time":347.8233555,"velocity":0.3937007874015748},{"duration":0.2647057500000187,"midi":70,"time":347.999826,"velocity":0.3937007874015748},{"duration":0.2647057500000187,"midi":70,"time":348.26453175,"velocity":0.3937007874015748},{"duration":0.35294099999998707,"midi":71,"time":348.5292375,"velocity":0.3937007874015748},{"duration":0.17647049999999354,"midi":66,"time":348.8821785,"velocity":0.3937007874015748},{"duration":0.17647049999999354,"midi":71,"time":349.058649,"velocity":0.3937007874015748},{"duration":0.17647049999999354,"midi":66,"time":349.2351195,"velocity":0.3937007874015748},{"duration":0.2647057500000187,"midi":70,"time":349.41159,"velocity":0.3937007874015748},{"duration":0.2647057500000187,"midi":70,"time":349.67629575,"velocity":0.3937007874015748},{"duration":0.17647049999999354,"midi":71,"time":349.9410015,"velocity":0.3937007874015748},{"duration":0.17647049999999354,"midi":66,"time":350.117472,"velocity":0.3937007874015748},{"duration":0.17647049999999354,"midi":73,"time":350.2939425,"velocity":0.3937007874015748},{"duration":0.17647049999999354,"midi":71,"time":350.470413,"velocity":0.3937007874015748},{"duration":0.17647049999999354,"midi":66,"time":350.6468835,"velocity":0.3937007874015748},{"duration":0.2647057500000187,"midi":70,"time":350.823354,"velocity":0.3937007874015748},{"duration":0.2647057500000187,"midi":70,"time":351.08805975,"velocity":0.3937007874015748},{"duration":0.35294099999998707,"midi":71,"time":351.35276550000003,"velocity":0.3937007874015748},{"duration":0.17647049999999354,"midi":66,"time":351.7057065,"velocity":0.3937007874015748},{"duration":0.17647049999999354,"midi":71,"time":351.882177,"velocity":0.3937007874015748},{"duration":0.17647049999999354,"midi":75,"time":352.0586475,"velocity":0.3937007874015748},{"duration":0.2647057500000187,"midi":73,"time":352.235118,"velocity":0.3937007874015748},{"duration":0.2647057499999619,"midi":71,"time":352.49982375,"velocity":0.3937007874015748},{"duration":0.17647050000005038,"midi":73,"time":352.7645295,"velocity":0.3937007874015748},{"duration":0.17647049999999354,"midi":66,"time":352.94100000000003,"velocity":0.3937007874015748},{"duration":0.17647049999999354,"midi":73,"time":353.1174705,"velocity":0.3937007874015748},{"duration":0.17647049999999354,"midi":71,"time":353.293941,"velocity":0.3937007874015748},{"duration":0.17647049999999354,"midi":66,"time":353.4704115,"velocity":0.3937007874015748},{"duration":0.2647057500000187,"midi":70,"time":353.646882,"velocity":0.3937007874015748},{"duration":0.2647057499999619,"midi":70,"time":353.91158775,"velocity":0.3937007874015748},{"duration":0.3529410000000439,"midi":71,"time":354.1762935,"velocity":0.3937007874015748},{"duration":0.17647049999999354,"midi":66,"time":354.52923450000003,"velocity":0.3937007874015748},{"duration":0.17647049999999354,"midi":71,"time":354.705705,"velocity":0.3937007874015748},{"duration":0.17647049999999354,"midi":66,"time":354.8821755,"velocity":0.3937007874015748},{"duration":0.2647057500000187,"midi":70,"time":355.058646,"velocity":0.3937007874015748},{"duration":0.2647057499999619,"midi":70,"time":355.32335175000003,"velocity":0.3937007874015748},{"duration":0.17647049999999354,"midi":71,"time":355.5880575,"velocity":0.3937007874015748},{"duration":0.17647049999999354,"midi":66,"time":355.764528,"velocity":0.3937007874015748},{"duration":0.17647050000005038,"midi":73,"time":355.9409985,"velocity":0.3937007874015748},{"duration":0.17647049999999354,"midi":71,"time":356.117469,"velocity":0.3937007874015748},{"duration":0.17647049999999354,"midi":66,"time":356.2939395,"velocity":0.3937007874015748},{"duration":0.2647057499999619,"midi":70,"time":356.47041,"velocity":0.3937007874015748},{"duration":0.2647057500000187,"midi":70,"time":356.73511575,"velocity":0.3937007874015748},{"duration":0.35294099999998707,"midi":71,"time":356.9998215,"velocity":0.3937007874015748},{"duration":0.17647049999999354,"midi":66,"time":357.3527625,"velocity":0.3937007874015748},{"duration":0.17647050000005038,"midi":71,"time":357.529233,"velocity":0.3937007874015748},{"duration":0.17647049999999354,"midi":75,"time":357.7057035,"velocity":0.3937007874015748},{"duration":0.2647057499999619,"midi":73,"time":357.882174,"velocity":0.3937007874015748},{"duration":0.2647057500000187,"midi":71,"time":358.14687975,"velocity":0.3937007874015748},{"duration":0.17647049999999354,"midi":73,"time":358.4115855,"velocity":0.3937007874015748},{"duration":0.17647049999999354,"midi":66,"time":358.588056,"velocity":0.3937007874015748},{"duration":0.17647049999999354,"midi":73,"time":358.7645265,"velocity":0.3937007874015748},{"duration":0.17647050000005038,"midi":71,"time":358.940997,"velocity":0.3937007874015748},{"duration":0.17647049999999354,"midi":66,"time":359.11746750000003,"velocity":0.3937007874015748},{"duration":0.2647057499999619,"midi":70,"time":359.293938,"velocity":0.3937007874015748},{"duration":0.2647057500000187,"midi":70,"time":359.55864375,"velocity":0.3937007874015748},{"duration":0.35294099999998707,"midi":71,"time":359.8233495,"velocity":0.3937007874015748},{"duration":0.17647049999999354,"midi":66,"time":360.1762905,"velocity":0.3937007874015748},{"duration":0.17647049999999354,"midi":71,"time":360.352761,"velocity":0.3937007874015748},{"duration":0.17647050000005038,"midi":66,"time":360.5292315,"velocity":0.3937007874015748},{"duration":0.2647057499999619,"midi":70,"time":360.70570200000003,"velocity":0.3937007874015748},{"duration":0.2647057500000187,"midi":70,"time":360.97040775,"velocity":0.3937007874015748},{"duration":0.17647049999999354,"midi":71,"time":361.2351135,"velocity":0.3937007874015748},{"duration":0.17647049999999354,"midi":66,"time":361.411584,"velocity":0.3937007874015748},{"duration":0.17647049999999354,"midi":73,"time":361.5880545,"velocity":0.3937007874015748},{"duration":0.17647049999999354,"midi":71,"time":361.764525,"velocity":0.3937007874015748},{"duration":0.17647049999999354,"midi":66,"time":361.9409955,"velocity":0.3937007874015748},{"duration":0.2647057500000187,"midi":70,"time":362.117466,"velocity":0.3937007874015748},{"duration":0.2647057500000187,"midi":70,"time":362.38217175,"velocity":0.3937007874015748},{"duration":0.35294099999998707,"midi":71,"time":362.6468775,"velocity":0.3937007874015748},{"duration":0.17647049999999354,"midi":66,"time":362.9998185,"velocity":0.3937007874015748},{"duration":0.17647049999999354,"midi":71,"time":363.176289,"velocity":0.3937007874015748},{"duration":0.17647049999999354,"midi":75,"time":363.3527595,"velocity":0.3937007874015748},{"duration":0.2647057500000187,"midi":73,"time":363.52923,"velocity":0.3937007874015748},{"duration":0.2647057500000187,"midi":71,"time":363.79393575,"velocity":0.3937007874015748},{"duration":0.17647049999999354,"midi":73,"time":364.0586415,"velocity":0.3937007874015748}]},{"instrument":{"family":"guitar","number":29,"name":"overdriven guitar"},"notes":[{"duration":0.17647050000000064,"midi":86,"time":21.17646,"velocity":0.3937007874015748},{"duration":0.17647050000000064,"midi":74,"time":21.17646,"velocity":0.3937007874015748},{"duration":0.3529410000000013,"midi":58,"time":21.17646,"velocity":0.3937007874015748},{"duration":0.3529410000000013,"midi":65,"time":21.17646,"velocity":0.3937007874015748},{"duration":0.17647050000000064,"midi":82,"time":21.3529305,"velocity":0.3937007874015748},{"duration":0.17647050000000064,"midi":81,"time":21.529401,"velocity":0.3937007874015748},{"duration":0.17647050000000064,"midi":57,"time":21.529401,"velocity":0.3937007874015748},{"duration":0.17647050000000064,"midi":53,"time":21.7058715,"velocity":0.3937007874015748},{"duration":0.17647050000000064,"midi":77,"time":21.7058715,"velocity":0.3937007874015748},{"duration":0.17647050000000064,"midi":50,"time":21.882342,"velocity":0.3937007874015748},{"duration":0.17647050000000064,"midi":74,"time":21.882342,"velocity":0.3937007874015748},{"duration":0.1764704999999971,"midi":48,"time":22.058812500000002,"velocity":0.3937007874015748},{"duration":0.1764704999999971,"midi":72,"time":22.058812500000002,"velocity":0.3937007874015748},{"duration":0.1764704999999971,"midi":60,"time":22.058812500000002,"velocity":0.3937007874015748},{"duration":0.17647050000000064,"midi":58,"time":22.235283,"velocity":0.3937007874015748},{"duration":0.17647050000000064,"midi":70,"time":22.235283,"velocity":0.3937007874015748},{"duration":0.17647050000000064,"midi":46,"time":22.235283,"velocity":0.3937007874015748},{"duration":0.17647050000000064,"midi":34,"time":22.235283,"velocity":0.3937007874015748},{"duration":0.17647050000000064,"midi":55,"time":22.4117535,"velocity":0.3937007874015748},{"duration":0.17647050000000064,"midi":43,"time":22.4117535,"velocity":0.3937007874015748},{"duration":0.17647050000000064,"midi":67,"time":22.4117535,"velocity":0.3937007874015748},{"duration":0.17647050000000064,"midi":31,"time":22.4117535,"velocity":0.3937007874015748},{"duration":0.705881999999999,"midi":53,"time":22.588224,"velocity":0.3937007874015748},{"duration":0.705881999999999,"midi":65,"time":22.588224,"velocity":0.3937007874015748},{"duration":0.7058820000000026,"midi":77,"time":23.294106,"velocity":0.3937007874015748},{"duration":0.7058820000000026,"midi":65,"time":23.294106,"velocity":0.3937007874015748},{"duration":1.0588229999999967,"midi":72,"time":23.999988000000002,"velocity":0.3937007874015748},{"duration":1.0588229999999967,"midi":60,"time":23.999988000000002,"velocity":0.3937007874015748},{"duration":0.705881999999999,"midi":58,"time":25.411752,"velocity":0.3937007874015748},{"duration":0.705881999999999,"midi":70,"time":25.411752,"velocity":0.3937007874015748},{"duration":0.7058820000000026,"midi":65,"time":26.117634,"velocity":0.3937007874015748},{"duration":0.7058820000000026,"midi":77,"time":26.117634,"velocity":0.3937007874015748},{"duration":1.0588230000000003,"midi":65,"time":26.823516,"velocity":0.3937007874015748},{"duration":1.0588230000000003,"midi":53,"time":26.823516,"velocity":0.3937007874015748},{"duration":0.7058820000000026,"midi":65,"time":28.23528,"velocity":0.3937007874015748},{"duration":0.7058820000000026,"midi":53,"time":28.23528,"velocity":0.3937007874015748},{"duration":0.705881999999999,"midi":65,"time":28.941162000000002,"velocity":0.3937007874015748},{"duration":0.705881999999999,"midi":57,"time":28.941162000000002,"velocity":0.3937007874015748},{"duration":0.705881999999999,"midi":69,"time":28.941162000000002,"velocity":0.3937007874015748},{"duration":0.705881999999999,"midi":60,"time":28.941162000000002,"velocity":0.3937007874015748},{"duration":1.0588230000000003,"midi":74,"time":29.647044,"velocity":0.3937007874015748},{"duration":1.0588230000000003,"midi":77,"time":29.647044,"velocity":0.3937007874015748},{"duration":1.0588230000000003,"midi":81,"time":29.647044,"velocity":0.3937007874015748},{"duration":1.0588230000000003,"midi":69,"time":29.647044,"velocity":0.3937007874015748},{"duration":0.35294099999999773,"midi":81,"time":30.705867,"velocity":0.3937007874015748},{"duration":0.35294099999999773,"midi":70,"time":30.705867,"velocity":0.3937007874015748},{"duration":0.35294099999999773,"midi":77,"time":30.705867,"velocity":0.3937007874015748},{"duration":0.35294099999999773,"midi":82,"time":30.705867,"velocity":0.3937007874015748},{"duration":0.7058820000000026,"midi":77,"time":31.058808,"velocity":0.3937007874015748},{"duration":0.7058820000000026,"midi":74,"time":31.058808,"velocity":0.3937007874015748},{"duration":0.7058820000000026,"midi":69,"time":31.058808,"velocity":0.3937007874015748},{"duration":0.7058820000000026,"midi":81,"time":31.058808,"velocity":0.3937007874015748},{"duration":0.7058819999999955,"midi":77,"time":31.76469,"velocity":0.3937007874015748},{"duration":0.7058819999999955,"midi":74,"time":31.76469,"velocity":0.3937007874015748},{"duration":0.7058819999999955,"midi":65,"time":31.76469,"velocity":0.3937007874015748},{"duration":0.7058819999999955,"midi":69,"time":31.76469,"velocity":0.3937007874015748},{"duration":0.7058820000000026,"midi":65,"time":32.470572,"velocity":0.3937007874015748},{"duration":0.7058820000000026,"midi":62,"time":32.470572,"velocity":0.3937007874015748},{"duration":0.7058820000000026,"midi":69,"time":32.470572,"velocity":0.3937007874015748},{"duration":0.7058820000000026,"midi":74,"time":32.470572,"velocity":0.3937007874015748},{"duration":0.7058819999999955,"midi":53,"time":33.882336,"velocity":0.3937007874015748},{"duration":0.7058819999999955,"midi":65,"time":33.882336,"velocity":0.3937007874015748},{"duration":0.7058820000000026,"midi":65,"time":34.588218,"velocity":0.3937007874015748},{"duration":0.7058820000000026,"midi":77,"time":34.588218,"velocity":0.3937007874015748},{"duration":1.0588229999999967,"midi":72,"time":35.2941,"velocity":0.3937007874015748},{"duration":1.0588229999999967,"midi":60,"time":35.2941,"velocity":0.3937007874015748},{"duration":0.7058820000000026,"midi":70,"time":36.705864,"velocity":0.3937007874015748},{"duration":0.7058820000000026,"midi":58,"time":36.705864,"velocity":0.3937007874015748},{"duration":0.7058820000000026,"midi":65,"time":37.411746,"velocity":0.3937007874015748},{"duration":0.7058820000000026,"midi":77,"time":37.411746,"velocity":0.3937007874015748},{"duration":1.0588229999999967,"midi":65,"time":38.117628,"velocity":0.3937007874015748},{"duration":1.0588229999999967,"midi":53,"time":38.117628,"velocity":0.3937007874015748},{"duration":0.7058820000000026,"midi":53,"time":39.529392,"velocity":0.3937007874015748},{"duration":0.7058820000000026,"midi":65,"time":39.529392,"velocity":0.3937007874015748},{"duration":0.7058819999999955,"midi":60,"time":40.235274000000004,"velocity":0.3937007874015748},{"duration":0.7058819999999955,"midi":69,"time":40.235274000000004,"velocity":0.3937007874015748},{"duration":0.7058819999999955,"midi":65,"time":40.235274000000004,"velocity":0.3937007874015748},{"duration":0.7058819999999955,"midi":57,"time":40.235274000000004,"velocity":0.3937007874015748},{"duration":1.0588230000000038,"midi":74,"time":40.941156,"velocity":0.3937007874015748},{"duration":1.0588230000000038,"midi":81,"time":40.941156,"velocity":0.3937007874015748},{"duration":1.0588230000000038,"midi":69,"time":40.941156,"velocity":0.3937007874015748},{"duration":1.0588230000000038,"midi":77,"time":40.941156,"velocity":0.3937007874015748},{"duration":0.3529409999999942,"midi":77,"time":41.999979,"velocity":0.3937007874015748},{"duration":0.3529409999999942,"midi":81,"time":41.999979,"velocity":0.3937007874015748},{"duration":0.3529409999999942,"midi":82,"time":41.999979,"velocity":0.3937007874015748},{"duration":0.3529409999999942,"midi":70,"time":41.999979,"velocity":0.3937007874015748},{"duration":0.7058820000000026,"midi":81,"time":42.35292,"velocity":0.3937007874015748},{"duration":0.7058820000000026,"midi":69,"time":42.35292,"velocity":0.3937007874015748},{"duration":0.7058820000000026,"midi":77,"time":42.35292,"velocity":0.3937007874015748},{"duration":0.7058820000000026,"midi":74,"time":42.35292,"velocity":0.3937007874015748},{"duration":0.7058820000000026,"midi":74,"time":43.058802,"velocity":0.3937007874015748},{"duration":0.7058820000000026,"midi":77,"time":43.058802,"velocity":0.3937007874015748},{"duration":0.7058820000000026,"midi":65,"time":43.058802,"velocity":0.3937007874015748},{"duration":0.7058820000000026,"midi":69,"time":43.058802,"velocity":0.3937007874015748},{"duration":0.7058819999999955,"midi":62,"time":43.764684,"velocity":0.3937007874015748},{"duration":0.7058819999999955,"midi":65,"time":43.764684,"velocity":0.3937007874015748},{"duration":0.7058819999999955,"midi":69,"time":43.764684,"velocity":0.3937007874015748},{"duration":0.7058819999999955,"midi":74,"time":43.764684,"velocity":0.3937007874015748},{"duration":0.3529410000000013,"midi":65,"time":67.764672,"velocity":0.3937007874015748},{"duration":0.3529410000000013,"midi":58,"time":68.117613,"velocity":0.3937007874015748},{"duration":0.35294099999998707,"midi":60,"time":68.470554,"velocity":0.3937007874015748},{"duration":0.3529410000000013,"midi":58,"time":68.823495,"velocity":0.3937007874015748},{"duration":0.17647050000000775,"midi":53,"time":69.176436,"velocity":0.3937007874015748},{"duration":0.17647049999999354,"midi":58,"time":69.3529065,"velocity":0.3937007874015748},{"duration":0.3529410000000013,"midi":60,"time":69.7058475,"velocity":0.3937007874015748},{"duration":0.08823524999999677,"midi":62,"time":70.0587885,"velocity":0.3937007874015748},{"duration":0.08823524999999677,"midi":60,"time":70.14702375,"velocity":0.3937007874015748},{"duration":0.3529410000000013,"midi":58,"time":70.235259,"velocity":0.3937007874015748},{"duration":0.3529410000000013,"midi":53,"time":70.5882,"velocity":0.3937007874015748},{"duration":0.3529410000000013,"midi":58,"time":70.941141,"velocity":0.3937007874015748},{"duration":0.17647049999999354,"midi":60,"time":71.294082,"velocity":0.3937007874015748},{"duration":0.17647050000000775,"midi":63,"time":71.4705525,"velocity":0.3937007874015748},{"duration":0.3529410000000013,"midi":62,"time":71.8234935,"velocity":0.3937007874015748},{"duration":0.08823524999999677,"midi":63,"time":72.1764345,"velocity":0.3937007874015748},{"duration":0.08823525000001098,"midi":62,"time":72.26466975,"velocity":0.3937007874015748},{"duration":0.35294099999998707,"midi":60,"time":72.352905,"velocity":0.3937007874015748},{"duration":0.3529410000000013,"midi":58,"time":72.705846,"velocity":0.3937007874015748},{"duration":0.3529410000000013,"midi":53,"time":73.058787,"velocity":0.3937007874015748},{"duration":0.3529410000000013,"midi":65,"time":73.411728,"velocity":0.3937007874015748},{"duration":0.3529410000000013,"midi":58,"time":73.764669,"velocity":0.3937007874015748},{"duration":0.3529410000000013,"midi":60,"time":74.11761,"velocity":0.3937007874015748},{"duration":0.3529410000000013,"midi":58,"time":74.470551,"velocity":0.3937007874015748},{"duration":0.17647049999999354,"midi":53,"time":74.823492,"velocity":0.3937007874015748},{"duration":0.17647050000000775,"midi":58,"time":74.9999625,"velocity":0.3937007874015748},{"duration":0.3529410000000013,"midi":60,"time":75.3529035,"velocity":0.3937007874015748},{"duration":0.08823524999999677,"midi":62,"time":75.7058445,"velocity":0.3937007874015748},{"duration":0.08823525000001098,"midi":60,"time":75.79407975,"velocity":0.3937007874015748},{"duration":0.3529410000000013,"midi":58,"time":75.882315,"velocity":0.3937007874015748},{"duration":0.3529410000000013,"midi":53,"time":76.235256,"velocity":0.3937007874015748},{"duration":0.35294099999998707,"midi":58,"time":76.58819700000001,"velocity":0.3937007874015748},{"duration":0.17647050000000775,"midi":60,"time":76.941138,"velocity":0.3937007874015748},{"duration":0.17647049999999354,"midi":63,"time":77.1176085,"velocity":0.3937007874015748},{"duration":0.3529410000000013,"midi":62,"time":77.4705495,"velocity":0.3937007874015748},{"duration":0.08823524999999677,"midi":63,"time":77.8234905,"velocity":0.3937007874015748},{"duration":0.08823524999999677,"midi":62,"time":77.91172575,"velocity":0.3937007874015748},{"duration":0.3529410000000013,"midi":60,"time":77.999961,"velocity":0.3937007874015748},{"duration":0.3529410000000013,"midi":58,"time":78.352902,"velocity":0.3937007874015748},{"duration":0.3529410000000013,"midi":53,"time":78.705843,"velocity":0.3937007874015748},{"duration":0.3529410000000013,"midi":77,"time":112.94112,"velocity":0.3937007874015748},{"duration":0.3529410000000013,"midi":65,"time":112.94112,"velocity":0.3937007874015748},{"duration":0.3529410000000013,"midi":70,"time":113.294061,"velocity":0.3937007874015748},{"duration":0.3529410000000013,"midi":58,"time":113.294061,"velocity":0.3937007874015748},{"duration":0.3529410000000013,"midi":72,"time":113.647002,"velocity":0.3937007874015748},{"duration":0.3529410000000013,"midi":60,"time":113.647002,"velocity":0.3937007874015748},{"duration":0.3529410000000013,"midi":58,"time":113.999943,"velocity":0.3937007874015748},{"duration":0.3529410000000013,"midi":70,"time":113.999943,"velocity":0.3937007874015748},{"duration":0.17647049999999354,"midi":53,"time":114.352884,"velocity":0.3937007874015748},{"duration":0.17647049999999354,"midi":65,"time":114.352884,"velocity":0.3937007874015748},{"duration":0.17647050000000775,"midi":58,"time":114.5293545,"velocity":0.3937007874015748},{"duration":0.17647050000000775,"midi":70,"time":114.5293545,"velocity":0.3937007874015748},{"duration":0.3529410000000013,"midi":72,"time":114.8822955,"velocity":0.3937007874015748},{"duration":0.3529410000000013,"midi":60,"time":114.8822955,"velocity":0.3937007874015748},{"duration":0.08823524999999677,"midi":74,"time":115.2352365,"velocity":0.3937007874015748},{"duration":0.08823525000001098,"midi":72,"time":115.32347175,"velocity":0.3937007874015748},{"duration":0.3529410000000013,"midi":70,"time":115.411707,"velocity":0.3937007874015748},{"duration":0.3529410000000013,"midi":58,"time":115.411707,"velocity":0.3937007874015748},{"duration":0.35294099999998707,"midi":53,"time":115.76464800000001,"velocity":0.3937007874015748},{"duration":0.35294099999998707,"midi":65,"time":115.76464800000001,"velocity":0.3937007874015748},{"duration":0.3529410000000013,"midi":70,"time":116.117589,"velocity":0.3937007874015748},{"duration":0.3529410000000013,"midi":58,"time":116.117589,"velocity":0.3937007874015748},{"duration":0.17647050000000775,"midi":60,"time":116.47053,"velocity":0.3937007874015748},{"duration":0.17647050000000775,"midi":72,"time":116.47053,"velocity":0.3937007874015748},{"duration":0.17647049999999354,"midi":75,"time":116.6470005,"velocity":0.3937007874015748},{"duration":0.17647049999999354,"midi":63,"time":116.6470005,"velocity":0.3937007874015748},{"duration":0.3529410000000013,"midi":74,"time":116.9999415,"velocity":0.3937007874015748},{"duration":0.3529410000000013,"midi":62,"time":116.9999415,"velocity":0.3937007874015748},{"duration":0.08823524999999677,"midi":75,"time":117.3528825,"velocity":0.3937007874015748},{"duration":0.08823524999999677,"midi":74,"time":117.44111775,"velocity":0.3937007874015748},{"duration":0.3529410000000013,"midi":60,"time":117.529353,"velocity":0.3937007874015748},{"duration":0.3529410000000013,"midi":72,"time":117.529353,"velocity":0.3937007874015748},{"duration":0.3529410000000013,"midi":58,"time":117.882294,"velocity":0.3937007874015748},{"duration":0.3529410000000013,"midi":70,"time":117.882294,"velocity":0.3937007874015748},{"duration":0.3529410000000013,"midi":53,"time":118.235235,"velocity":0.3937007874015748},{"duration":0.3529410000000013,"midi":65,"time":118.235235,"velocity":0.3937007874015748},{"duration":0.3529410000000013,"midi":65,"time":118.588176,"velocity":0.3937007874015748},{"duration":0.3529410000000013,"midi":77,"time":118.588176,"velocity":0.3937007874015748},{"duration":0.3529410000000013,"midi":70,"time":118.941117,"velocity":0.3937007874015748},{"duration":0.3529410000000013,"midi":58,"time":118.941117,"velocity":0.3937007874015748},{"duration":0.3529410000000013,"midi":60,"time":119.294058,"velocity":0.3937007874015748},{"duration":0.3529410000000013,"midi":72,"time":119.294058,"velocity":0.3937007874015748},{"duration":0.35294099999998707,"midi":70,"time":119.64699900000001,"velocity":0.3937007874015748},{"duration":0.35294099999998707,"midi":58,"time":119.64699900000001,"velocity":0.3937007874015748},{"duration":0.17647050000000775,"midi":53,"time":119.99994,"velocity":0.3937007874015748},{"duration":0.17647050000000775,"midi":65,"time":119.99994,"velocity":0.3937007874015748},{"duration":0.17647049999999354,"midi":70,"time":120.1764105,"velocity":0.3937007874015748},{"duration":0.17647049999999354,"midi":58,"time":120.1764105,"velocity":0.3937007874015748},{"duration":0.3529410000000013,"midi":60,"time":120.5293515,"velocity":0.3937007874015748},{"duration":0.3529410000000013,"midi":72,"time":120.5293515,"velocity":0.3937007874015748},{"duration":0.08823524999999677,"midi":74,"time":120.8822925,"velocity":0.3937007874015748},{"duration":0.08823524999999677,"midi":72,"time":120.97052775,"velocity":0.3937007874015748},{"duration":0.3529410000000013,"midi":70,"time":121.058763,"velocity":0.3937007874015748},{"duration":0.3529410000000013,"midi":58,"time":121.058763,"velocity":0.3937007874015748},{"duration":0.3529410000000013,"midi":65,"time":121.411704,"velocity":0.3937007874015748},{"duration":0.3529410000000013,"midi":53,"time":121.411704,"velocity":0.3937007874015748},{"duration":0.3529410000000013,"midi":70,"time":121.764645,"velocity":0.3937007874015748},{"duration":0.3529410000000013,"midi":58,"time":121.764645,"velocity":0.3937007874015748},{"duration":0.17647049999999354,"midi":70,"time":122.117586,"velocity":0.3937007874015748},{"duration":0.17647049999999354,"midi":74,"time":122.117586,"velocity":0.3937007874015748},{"duration":0.17647049999999354,"midi":77,"time":122.117586,"velocity":0.3937007874015748},{"duration":0.17647049999999354,"midi":82,"time":122.117586,"velocity":0.3937007874015748},{"duration":0.3529410000000013,"midi":81,"time":122.2940565,"velocity":0.3937007874015748},{"duration":0.3529410000000013,"midi":74,"time":122.2940565,"velocity":0.3937007874015748},{"duration":0.3529410000000013,"midi":77,"time":122.2940565,"velocity":0.3937007874015748},{"duration":0.3529410000000013,"midi":69,"time":122.2940565,"velocity":0.3937007874015748},{"duration":0.3529410000000013,"midi":65,"time":122.6469975,"velocity":0.3937007874015748},{"duration":0.3529410000000013,"midi":70,"time":122.6469975,"velocity":0.3937007874015748},{"duration":0.3529410000000013,"midi":74,"time":122.6469975,"velocity":0.3937007874015748},{"duration":0.3529410000000013,"midi":77,"time":122.6469975,"velocity":0.3937007874015748},{"duration":0.17647050000000775,"midi":62,"time":122.9999385,"velocity":0.3937007874015748},{"duration":0.17647050000000775,"midi":74,"time":122.9999385,"velocity":0.3937007874015748},{"duration":0.17647049999999354,"midi":72,"time":123.176409,"velocity":0.3937007874015748},{"duration":0.17647049999999354,"midi":60,"time":123.176409,"velocity":0.3937007874015748},{"duration":0.3529410000000013,"midi":58,"time":123.3528795,"velocity":0.3937007874015748},{"duration":0.3529410000000013,"midi":70,"time":123.3528795,"velocity":0.3937007874015748},{"duration":0.17647049999999354,"midi":72,"time":123.7058205,"velocity":0.3937007874015748},{"duration":0.17647049999999354,"midi":60,"time":123.7058205,"velocity":0.3937007874015748},{"duration":0.17647050000000775,"midi":58,"time":123.882291,"velocity":0.3937007874015748},{"duration":0.17647050000000775,"midi":70,"time":123.882291,"velocity":0.3937007874015748},{"duration":0.17647049999999354,"midi":65,"time":124.0587615,"velocity":0.3937007874015748},{"duration":0.17647049999999354,"midi":53,"time":124.0587615,"velocity":0.3937007874015748},{"duration":0.3529410000000013,"midi":65,"time":124.235232,"velocity":0.3937007874015748},{"duration":0.3529410000000013,"midi":77,"time":124.235232,"velocity":0.3937007874015748},{"duration":0.3529410000000013,"midi":70,"time":124.588173,"velocity":0.3937007874015748},{"duration":0.3529410000000013,"midi":58,"time":124.588173,"velocity":0.3937007874015748},{"duration":0.3529410000000013,"midi":60,"time":124.941114,"velocity":0.3937007874015748},{"duration":0.3529410000000013,"midi":72,"time":124.941114,"velocity":0.3937007874015748},{"duration":0.3529410000000013,"midi":70,"time":125.294055,"velocity":0.3937007874015748},{"duration":0.3529410000000013,"midi":58,"time":125.294055,"velocity":0.3937007874015748},{"duration":0.17647049999999354,"midi":53,"time":125.646996,"velocity":0.3937007874015748},{"duration":0.17647049999999354,"midi":65,"time":125.646996,"velocity":0.3937007874015748},{"duration":0.17647050000000775,"midi":58,"time":125.8234665,"velocity":0.3937007874015748},{"duration":0.17647050000000775,"midi":70,"time":125.8234665,"velocity":0.3937007874015748},{"duration":0.3529410000000013,"midi":60,"time":126.1764075,"velocity":0.3937007874015748},{"duration":0.3529410000000013,"midi":72,"time":126.1764075,"velocity":0.3937007874015748},{"duration":0.08823525000001098,"midi":74,"time":126.5293485,"velocity":0.3937007874015748},{"duration":0.08823524999999677,"midi":72,"time":126.61758375000001,"velocity":0.3937007874015748},{"duration":0.3529410000000013,"midi":70,"time":126.705819,"velocity":0.3937007874015748},{"duration":0.3529410000000013,"midi":58,"time":126.705819,"velocity":0.3937007874015748},{"duration":0.3529410000000013,"midi":53,"time":127.05876,"velocity":0.3937007874015748},{"duration":0.3529410000000013,"midi":65,"time":127.05876,"velocity":0.3937007874015748},{"duration":0.35294099999998707,"midi":58,"time":127.41170100000001,"velocity":0.3937007874015748},{"duration":0.35294099999998707,"midi":70,"time":127.41170100000001,"velocity":0.3937007874015748},{"duration":0.17647050000000775,"midi":72,"time":127.764642,"velocity":0.3937007874015748},{"duration":0.17647050000000775,"midi":60,"time":127.764642,"velocity":0.3937007874015748},{"duration":0.17647049999999354,"midi":63,"time":127.9411125,"velocity":0.3937007874015748},{"duration":0.17647049999999354,"midi":75,"time":127.9411125,"velocity":0.3937007874015748},{"duration":0.3529410000000155,"midi":74,"time":128.2940535,"velocity":0.3937007874015748},{"duration":0.3529410000000155,"midi":62,"time":128.2940535,"velocity":0.3937007874015748},{"duration":0.08823524999999677,"midi":75,"time":128.6469945,"velocity":0.3937007874015748},{"duration":0.08823524999999677,"midi":74,"time":128.73522975,"velocity":0.3937007874015748},{"duration":0.3529410000000155,"midi":60,"time":128.823465,"velocity":0.3937007874015748},{"duration":0.3529410000000155,"midi":72,"time":128.823465,"velocity":0.3937007874015748},{"duration":0.35294099999998707,"midi":58,"time":129.17640600000001,"velocity":0.3937007874015748},{"duration":0.35294099999998707,"midi":70,"time":129.17640600000001,"velocity":0.3937007874015748},{"duration":0.35294099999998707,"midi":53,"time":129.529347,"velocity":0.3937007874015748},{"duration":0.35294099999998707,"midi":65,"time":129.529347,"velocity":0.3937007874015748},{"duration":0.3529410000000155,"midi":65,"time":129.882288,"velocity":0.3937007874015748},{"duration":0.3529410000000155,"midi":77,"time":129.882288,"velocity":0.3937007874015748},{"duration":0.35294099999998707,"midi":70,"time":130.235229,"velocity":0.3937007874015748},{"duration":0.35294099999998707,"midi":58,"time":130.235229,"velocity":0.3937007874015748},{"duration":0.3529410000000155,"midi":72,"time":130.58817,"velocity":0.3937007874015748},{"duration":0.3529410000000155,"midi":60,"time":130.58817,"velocity":0.3937007874015748},{"duration":0.35294099999998707,"midi":70,"time":130.941111,"velocity":0.3937007874015748},{"duration":0.35294099999998707,"midi":58,"time":130.941111,"velocity":0.3937007874015748},{"duration":0.17647050000002196,"midi":53,"time":131.294052,"velocity":0.3937007874015748},{"duration":0.17647050000002196,"midi":65,"time":131.294052,"velocity":0.3937007874015748},{"duration":0.17647049999999354,"midi":58,"time":131.47052250000002,"velocity":0.3937007874015748},{"duration":0.17647049999999354,"midi":70,"time":131.47052250000002,"velocity":0.3937007874015748},{"duration":0.35294099999998707,"midi":72,"time":131.8234635,"velocity":0.3937007874015748},{"duration":0.35294099999998707,"midi":60,"time":131.8234635,"velocity":0.3937007874015748},{"duration":0.08823525000002519,"midi":74,"time":132.1764045,"velocity":0.3937007874015748},{"duration":0.08823524999999677,"midi":72,"time":132.26463975000001,"velocity":0.3937007874015748},{"duration":0.35294099999998707,"midi":70,"time":132.352875,"velocity":0.3937007874015748},{"duration":0.35294099999998707,"midi":58,"time":132.352875,"velocity":0.3937007874015748},{"duration":0.3529410000000155,"midi":53,"time":132.705816,"velocity":0.3937007874015748},{"duration":0.3529410000000155,"midi":65,"time":132.705816,"velocity":0.3937007874015748},{"duration":0.35294099999998707,"midi":58,"time":133.058757,"velocity":0.3937007874015748},{"duration":0.35294099999998707,"midi":70,"time":133.058757,"velocity":0.3937007874015748},{"duration":0.17647049999999354,"midi":70,"time":133.411698,"velocity":0.3937007874015748},{"duration":0.17647049999999354,"midi":74,"time":133.411698,"velocity":0.3937007874015748},{"duration":0.17647049999999354,"midi":82,"time":133.411698,"velocity":0.3937007874015748},{"duration":0.17647049999999354,"midi":77,"time":133.411698,"velocity":0.3937007874015748},{"duration":0.3529410000000155,"midi":81,"time":133.5881685,"velocity":0.3937007874015748},{"duration":0.3529410000000155,"midi":77,"time":133.5881685,"velocity":0.3937007874015748},{"duration":0.3529410000000155,"midi":69,"time":133.5881685,"velocity":0.3937007874015748},{"duration":0.3529410000000155,"midi":74,"time":133.5881685,"velocity":0.3937007874015748},{"duration":0.35294099999998707,"midi":74,"time":133.9411095,"velocity":0.3937007874015748},{"duration":0.35294099999998707,"midi":77,"time":133.9411095,"velocity":0.3937007874015748},{"duration":0.35294099999998707,"midi":65,"time":133.9411095,"velocity":0.3937007874015748},{"duration":0.35294099999998707,"midi":70,"time":133.9411095,"velocity":0.3937007874015748},{"duration":0.17647049999999354,"midi":62,"time":134.2940505,"velocity":0.3937007874015748},{"duration":0.17647049999999354,"midi":74,"time":134.2940505,"velocity":0.3937007874015748},{"duration":0.17647050000002196,"midi":72,"time":134.470521,"velocity":0.3937007874015748},{"duration":0.17647050000002196,"midi":60,"time":134.470521,"velocity":0.3937007874015748},{"duration":0.35294099999998707,"midi":58,"time":134.6469915,"velocity":0.3937007874015748},{"duration":0.35294099999998707,"midi":70,"time":134.6469915,"velocity":0.3937007874015748},{"duration":0.17647049999999354,"midi":72,"time":134.9999325,"velocity":0.3937007874015748},{"duration":0.17647049999999354,"midi":60,"time":134.9999325,"velocity":0.3937007874015748},{"duration":0.17647050000002196,"midi":70,"time":135.176403,"velocity":0.3937007874015748},{"duration":0.17647050000002196,"midi":58,"time":135.176403,"velocity":0.3937007874015748},{"duration":0.17647049999999354,"midi":65,"time":135.35287350000002,"velocity":0.3937007874015748},{"duration":0.17647049999999354,"midi":53,"time":135.35287350000002,"velocity":0.3937007874015748},{"duration":0.3529410000000155,"midi":60,"time":140.470518,"velocity":0.3937007874015748},{"duration":0.35294099999998707,"midi":62,"time":140.823459,"velocity":0.3937007874015748},{"duration":0.35294099999998707,"midi":46,"time":145.764633,"velocity":0.3937007874015748},{"duration":0.3529410000000155,"midi":45,"time":146.117574,"velocity":0.3937007874015748},{"duration":0.35294099999998707,"midi":43,"time":146.470515,"velocity":0.3937007874015748},{"duration":0.35294099999998707,"midi":60,"time":151.76463,"velocity":0.3937007874015748},{"duration":0.3529410000000155,"midi":62,"time":152.117571,"velocity":0.3937007874015748},{"duration":0.7058820000000026,"midi":53,"time":152.470512,"velocity":0.3937007874015748},{"duration":0.35294099999998707,"midi":50,"time":157.05874500000002,"velocity":0.3937007874015748},{"duration":0.35294099999998707,"midi":48,"time":157.411686,"velocity":0.3937007874015748},{"duration":0.3529410000000155,"midi":46,"time":157.764627,"velocity":0.3937007874015748},{"duration":0.3529410000000155,"midi":60,"time":163.058742,"velocity":0.3937007874015748},{"duration":0.35294099999998707,"midi":62,"time":163.411683,"velocity":0.3937007874015748},{"duration":0.7058820000000026,"midi":53,"time":163.764624,"velocity":0.3937007874015748},{"duration":0.3529410000000155,"midi":50,"time":168.352857,"velocity":0.3937007874015748},{"duration":0.35294099999998707,"midi":48,"time":168.70579800000002,"velocity":0.3937007874015748},{"duration":0.35294099999998707,"midi":46,"time":169.058739,"velocity":0.3937007874015748},{"duration":0.3529410000000155,"midi":62,"time":177.176382,"velocity":0.3937007874015748},{"duration":0.35294099999998707,"midi":58,"time":177.529323,"velocity":0.3937007874015748},{"duration":1.4117640000000051,"midi":60,"time":177.882264,"velocity":0.3937007874015748},{"duration":0.17647050000002196,"midi":54,"time":227.4704745,"velocity":0.3937007874015748},{"duration":0.17647049999999354,"midi":59,"time":227.64694500000002,"velocity":0.3937007874015748},{"duration":0.17647049999999354,"midi":61,"time":227.8234155,"velocity":0.3937007874015748},{"duration":0.17647049999999354,"midi":54,"time":228.1763565,"velocity":0.3937007874015748},{"duration":0.17647050000002196,"midi":59,"time":228.352827,"velocity":0.3937007874015748},{"duration":0.17647049999999354,"midi":61,"time":228.5292975,"velocity":0.3937007874015748},{"duration":0.17647049999999354,"midi":55,"time":228.8822385,"velocity":0.3937007874015748},{"duration":0.17647050000002196,"midi":59,"time":229.058709,"velocity":0.3937007874015748},{"duration":0.17647049999999354,"midi":61,"time":229.23517950000002,"velocity":0.3937007874015748},{"duration":0.17647049999999354,"midi":55,"time":229.5881205,"velocity":0.3937007874015748},{"duration":0.17647049999999354,"midi":67,"time":229.5881205,"velocity":0.3937007874015748},{"duration":0.17647049999999354,"midi":59,"time":229.764591,"velocity":0.3937007874015748},{"duration":0.17647049999999354,"midi":71,"time":229.764591,"velocity":0.3937007874015748},{"duration":0.17647050000002196,"midi":73,"time":229.9410615,"velocity":0.3937007874015748},{"duration":0.17647050000002196,"midi":61,"time":229.9410615,"velocity":0.3937007874015748},{"duration":0.35294099999998707,"midi":71,"time":230.117532,"velocity":0.3937007874015748},{"duration":0.35294099999998707,"midi":80,"time":230.117532,"velocity":0.3937007874015748},{"duration":0.35294099999998707,"midi":75,"time":230.117532,"velocity":0.3937007874015748},{"duration":0.35294099999998707,"midi":68,"time":230.117532,"velocity":0.3937007874015748},{"duration":0.3529410000000155,"midi":71,"time":230.470473,"velocity":0.3937007874015748},{"duration":0.3529410000000155,"midi":68,"time":230.470473,"velocity":0.3937007874015748},{"duration":0.3529410000000155,"midi":75,"time":230.470473,"velocity":0.3937007874015748},{"duration":0.3529410000000155,"midi":63,"time":230.470473,"velocity":0.3937007874015748},{"duration":0.17647049999999354,"midi":73,"time":230.823414,"velocity":0.3937007874015748},{"duration":0.17647049999999354,"midi":61,"time":230.823414,"velocity":0.3937007874015748},{"duration":0.17647049999999354,"midi":66,"time":230.823414,"velocity":0.3937007874015748},{"duration":0.17647049999999354,"midi":70,"time":230.823414,"velocity":0.3937007874015748},{"duration":0.35294099999998707,"midi":59,"time":230.9998845,"velocity":0.3937007874015748},{"duration":0.35294099999998707,"midi":68,"time":230.9998845,"velocity":0.3937007874015748},{"duration":0.35294099999998707,"midi":71,"time":230.9998845,"velocity":0.3937007874015748},{"duration":0.35294099999998707,"midi":63,"time":230.9998845,"velocity":0.3937007874015748},{"duration":0.3529410000000155,"midi":65,"time":231.3528255,"velocity":0.3937007874015748},{"duration":0.3529410000000155,"midi":73,"time":231.3528255,"velocity":0.3937007874015748},{"duration":0.3529410000000155,"midi":70,"time":231.3528255,"velocity":0.3937007874015748},{"duration":0.3529410000000155,"midi":61,"time":231.3528255,"velocity":0.3937007874015748},{"duration":0.08823524999999677,"midi":75,"time":231.7057665,"velocity":0.3937007874015748},{"duration":0.08823524999999677,"midi":73,"time":231.79400175,"velocity":0.3937007874015748},{"duration":0.35294099999998707,"midi":59,"time":231.882237,"velocity":0.3937007874015748},{"duration":0.35294099999998707,"midi":63,"time":231.882237,"velocity":0.3937007874015748},{"duration":0.35294099999998707,"midi":65,"time":231.882237,"velocity":0.3937007874015748},{"duration":0.35294099999998707,"midi":71,"time":231.882237,"velocity":0.3937007874015748},{"duration":0.3529410000000155,"midi":66,"time":232.235178,"velocity":0.3937007874015748},{"duration":0.3529410000000155,"midi":54,"time":232.235178,"velocity":0.3937007874015748},{"duration":0.35294099999998707,"midi":68,"time":232.588119,"velocity":0.3937007874015748},{"duration":0.35294099999998707,"midi":56,"time":232.588119,"velocity":0.3937007874015748},{"duration":0.3529410000000155,"midi":63,"time":232.94106,"velocity":0.3937007874015748},{"duration":0.3529410000000155,"midi":59,"time":232.94106,"velocity":0.3937007874015748},{"duration":0.3529410000000155,"midi":68,"time":232.94106,"velocity":0.3937007874015748},{"duration":0.3529410000000155,"midi":71,"time":232.94106,"velocity":0.3937007874015748},{"duration":0.17647049999999354,"midi":71,"time":233.294001,"velocity":0.3937007874015748},{"duration":0.17647049999999354,"midi":59,"time":233.294001,"velocity":0.3937007874015748},{"duration":0.17647049999999354,"midi":61,"time":233.4704715,"velocity":0.3937007874015748},{"duration":0.17647049999999354,"midi":73,"time":233.4704715,"velocity":0.3937007874015748},{"duration":0.3529410000000155,"midi":75,"time":233.646942,"velocity":0.3937007874015748},{"duration":0.3529410000000155,"midi":63,"time":233.646942,"velocity":0.3937007874015748},{"duration":0.3529410000000155,"midi":68,"time":233.646942,"velocity":0.3937007874015748},{"duration":0.3529410000000155,"midi":71,"time":233.646942,"velocity":0.3937007874015748},{"duration":0.35294099999998707,"midi":68,"time":233.999883,"velocity":0.3937007874015748},{"duration":0.35294099999998707,"midi":71,"time":233.999883,"velocity":0.3937007874015748},{"duration":0.35294099999998707,"midi":59,"time":233.999883,"velocity":0.3937007874015748},{"duration":0.35294099999998707,"midi":63,"time":233.999883,"velocity":0.3937007874015748},{"duration":0.3529410000000155,"midi":73,"time":234.352824,"velocity":0.3937007874015748},{"duration":0.3529410000000155,"midi":61,"time":234.352824,"velocity":0.3937007874015748},{"duration":0.3529410000000155,"midi":66,"time":234.352824,"velocity":0.3937007874015748},{"duration":0.3529410000000155,"midi":70,"time":234.352824,"velocity":0.3937007874015748},{"duration":0.17647049999999354,"midi":61,"time":234.705765,"velocity":0.3937007874015748},{"duration":0.17647049999999354,"midi":73,"time":234.705765,"velocity":0.3937007874015748},{"duration":0.17647049999999354,"midi":75,"time":234.8822355,"velocity":0.3937007874015748},{"duration":0.17647049999999354,"midi":63,"time":234.8822355,"velocity":0.3937007874015748},{"duration":0.17647049999999354,"midi":73,"time":235.058706,"velocity":0.3937007874015748},{"duration":0.3529410000000155,"midi":61,"time":235.058706,"velocity":0.3937007874015748},{"duration":0.3529410000000155,"midi":66,"time":235.058706,"velocity":0.3937007874015748},{"duration":0.3529410000000155,"midi":70,"time":235.058706,"velocity":0.3937007874015748},{"duration":0.08823524999999677,"midi":75,"time":235.2351765,"velocity":0.3937007874015748},{"duration":0.08823525000002519,"midi":73,"time":235.32341175,"velocity":0.3937007874015748},{"duration":0.35294099999998707,"midi":59,"time":235.41164700000002,"velocity":0.3937007874015748},{"duration":0.35294099999998707,"midi":63,"time":235.41164700000002,"velocity":0.3937007874015748},{"duration":0.35294099999998707,"midi":66,"time":235.41164700000002,"velocity":0.3937007874015748},{"duration":0.35294099999998707,"midi":71,"time":235.41164700000002,"velocity":0.3937007874015748},{"duration":0.35294099999998707,"midi":74,"time":235.764588,"velocity":0.3937007874015748},{"duration":0.35294099999998707,"midi":66,"time":235.764588,"velocity":0.3937007874015748},{"duration":0.35294099999998707,"midi":71,"time":235.764588,"velocity":0.3937007874015748},{"duration":0.35294099999998707,"midi":63,"time":235.764588,"velocity":0.3937007874015748},{"duration":0.3529410000000155,"midi":73,"time":236.117529,"velocity":0.3937007874015748},{"duration":0.3529410000000155,"midi":61,"time":236.117529,"velocity":0.3937007874015748},{"duration":0.3529410000000155,"midi":68,"time":236.117529,"velocity":0.3937007874015748},{"duration":0.3529410000000155,"midi":65,"time":236.117529,"velocity":0.3937007874015748},{"duration":0.35294099999998707,"midi":57,"time":236.47047,"velocity":0.3937007874015748},{"duration":0.35294099999998707,"midi":69,"time":236.47047,"velocity":0.3937007874015748},{"duration":0.35294099999998707,"midi":65,"time":236.47047,"velocity":0.3937007874015748},{"duration":0.35294099999998707,"midi":61,"time":236.47047,"velocity":0.3937007874015748},{"duration":0.3529410000000155,"midi":61,"time":236.823411,"velocity":0.3937007874015748},{"duration":0.3529410000000155,"midi":68,"time":236.823411,"velocity":0.3937007874015748},{"duration":0.3529410000000155,"midi":73,"time":236.823411,"velocity":0.3937007874015748},{"duration":0.3529410000000155,"midi":65,"time":236.823411,"velocity":0.3937007874015748},{"duration":0.7058820000000026,"midi":65,"time":237.176352,"velocity":0.3937007874015748},{"duration":0.7058820000000026,"midi":68,"time":237.176352,"velocity":0.3937007874015748},{"duration":0.7058820000000026,"midi":71,"time":237.176352,"velocity":0.3937007874015748},{"duration":0.7058820000000026,"midi":59,"time":237.176352,"velocity":0.3937007874015748},{"duration":0.7058820000000026,"midi":70,"time":237.882234,"velocity":0.3937007874015748},{"duration":0.7058820000000026,"midi":66,"time":237.882234,"velocity":0.3937007874015748},{"duration":0.7058820000000026,"midi":61,"time":237.882234,"velocity":0.3937007874015748},{"duration":0.7058820000000026,"midi":73,"time":237.882234,"velocity":0.3937007874015748},{"duration":0.17647049999999354,"midi":54,"time":238.7645865,"velocity":0.3937007874015748},{"duration":0.17647049999999354,"midi":66,"time":238.7645865,"velocity":0.3937007874015748},{"duration":0.17647049999999354,"midi":71,"time":238.941057,"velocity":0.3937007874015748},{"duration":0.17647049999999354,"midi":59,"time":238.941057,"velocity":0.3937007874015748},{"duration":0.17647050000002196,"midi":61,"time":239.1175275,"velocity":0.3937007874015748},{"duration":0.17647050000002196,"midi":73,"time":239.1175275,"velocity":0.3937007874015748},{"duration":0.17647049999999354,"midi":54,"time":239.4704685,"velocity":0.3937007874015748},{"duration":0.17647049999999354,"midi":66,"time":239.4704685,"velocity":0.3937007874015748},{"duration":0.17647049999999354,"midi":59,"time":239.646939,"velocity":0.3937007874015748},{"duration":0.17647049999999354,"midi":71,"time":239.646939,"velocity":0.3937007874015748},{"duration":0.17647049999999354,"midi":73,"time":239.8234095,"velocity":0.3937007874015748},{"duration":0.17647049999999354,"midi":61,"time":239.8234095,"velocity":0.3937007874015748},{"duration":0.17647049999999354,"midi":67,"time":240.1763505,"velocity":0.3937007874015748},{"duration":0.17647049999999354,"midi":55,"time":240.1763505,"velocity":0.3937007874015748},{"duration":0.17647049999999354,"midi":59,"time":240.352821,"velocity":0.3937007874015748},{"duration":0.17647049999999354,"midi":71,"time":240.352821,"velocity":0.3937007874015748},{"duration":0.17647049999999354,"midi":61,"time":240.5292915,"velocity":0.3937007874015748},{"duration":0.17647049999999354,"midi":73,"time":240.5292915,"velocity":0.3937007874015748},{"duration":0.17647049999999354,"midi":55,"time":240.88223250000001,"velocity":0.3937007874015748},{"duration":0.17647049999999354,"midi":67,"time":240.88223250000001,"velocity":0.3937007874015748},{"duration":0.17647049999999354,"midi":59,"time":241.058703,"velocity":0.3937007874015748},{"duration":0.17647049999999354,"midi":71,"time":241.058703,"velocity":0.3937007874015748},{"duration":0.17647049999999354,"midi":73,"time":241.2351735,"velocity":0.3937007874015748},{"duration":0.17647049999999354,"midi":61,"time":241.2351735,"velocity":0.3937007874015748},{"duration":0.3529410000000155,"midi":71,"time":241.411644,"velocity":0.3937007874015748},{"duration":0.3529410000000155,"midi":75,"time":241.411644,"velocity":0.3937007874015748},{"duration":0.3529410000000155,"midi":68,"time":241.411644,"velocity":0.3937007874015748},{"duration":0.35294099999998707,"midi":63,"time":241.764585,"velocity":0.3937007874015748},{"duration":0.35294099999998707,"midi":68,"time":241.764585,"velocity":0.3937007874015748},{"duration":0.35294099999998707,"midi":75,"time":241.764585,"velocity":0.3937007874015748},{"duration":0.35294099999998707,"midi":71,"time":241.764585,"velocity":0.3937007874015748},{"duration":0.17647049999999354,"midi":73,"time":242.117526,"velocity":0.3937007874015748},{"duration":0.17647049999999354,"midi":66,"time":242.117526,"velocity":0.3937007874015748},{"duration":0.17647049999999354,"midi":70,"time":242.117526,"velocity":0.3937007874015748},{"duration":0.17647049999999354,"midi":61,"time":242.117526,"velocity":0.3937007874015748},{"duration":0.3529410000000155,"midi":68,"time":242.2939965,"velocity":0.3937007874015748},{"duration":0.3529410000000155,"midi":71,"time":242.2939965,"velocity":0.3937007874015748},{"duration":0.3529410000000155,"midi":59,"time":242.2939965,"velocity":0.3937007874015748},{"duration":0.3529410000000155,"midi":63,"time":242.2939965,"velocity":0.3937007874015748},{"duration":0.35294099999998707,"midi":65,"time":242.6469375,"velocity":0.3937007874015748},{"duration":0.35294099999998707,"midi":61,"time":242.6469375,"velocity":0.3937007874015748},{"duration":0.35294099999998707,"midi":70,"time":242.6469375,"velocity":0.3937007874015748},{"duration":0.35294099999998707,"midi":73,"time":242.6469375,"velocity":0.3937007874015748},{"duration":0.08823524999999677,"midi":75,"time":242.9998785,"velocity":0.3937007874015748},{"duration":0.08823525000002519,"midi":73,"time":243.08811375,"velocity":0.3937007874015748},{"duration":0.35294099999998707,"midi":65,"time":243.17634900000002,"velocity":0.3937007874015748},{"duration":0.35294099999998707,"midi":59,"time":243.17634900000002,"velocity":0.3937007874015748},{"duration":0.35294099999998707,"midi":63,"time":243.17634900000002,"velocity":0.3937007874015748},{"duration":0.35294099999998707,"midi":71,"time":243.17634900000002,"velocity":0.3937007874015748},{"duration":0.35294099999998707,"midi":54,"time":243.52929,"velocity":0.3937007874015748},{"duration":0.35294099999998707,"midi":66,"time":243.52929,"velocity":0.3937007874015748},{"duration":0.3529410000000155,"midi":68,"time":243.882231,"velocity":0.3937007874015748},{"duration":0.3529410000000155,"midi":56,"time":243.882231,"velocity":0.3937007874015748},{"duration":0.35294099999998707,"midi":59,"time":244.235172,"velocity":0.3937007874015748},{"duration":0.35294099999998707,"midi":63,"time":244.235172,"velocity":0.3937007874015748},{"duration":0.35294099999998707,"midi":68,"time":244.235172,"velocity":0.3937007874015748},{"duration":0.35294099999998707,"midi":71,"time":244.235172,"velocity":0.3937007874015748},{"duration":0.17647050000002196,"midi":71,"time":244.588113,"velocity":0.3937007874015748},{"duration":0.17647050000002196,"midi":59,"time":244.588113,"velocity":0.3937007874015748},{"duration":0.17647049999999354,"midi":61,"time":244.76458350000001,"velocity":0.3937007874015748},{"duration":0.17647049999999354,"midi":73,"time":244.76458350000001,"velocity":0.3937007874015748},{"duration":0.35294099999998707,"midi":75,"time":244.941054,"velocity":0.3937007874015748},{"duration":0.35294099999998707,"midi":71,"time":244.941054,"velocity":0.3937007874015748},{"duration":0.35294099999998707,"midi":68,"time":244.941054,"velocity":0.3937007874015748},{"duration":0.35294099999998707,"midi":63,"time":244.941054,"velocity":0.3937007874015748},{"duration":0.3529410000000155,"midi":59,"time":245.293995,"velocity":0.3937007874015748},{"duration":0.3529410000000155,"midi":68,"time":245.293995,"velocity":0.3937007874015748},{"duration":0.3529410000000155,"midi":71,"time":245.293995,"velocity":0.3937007874015748},{"duration":0.3529410000000155,"midi":63,"time":245.293995,"velocity":0.3937007874015748},{"duration":0.35294099999998707,"midi":61,"time":245.646936,"velocity":0.3937007874015748},{"duration":0.35294099999998707,"midi":73,"time":245.646936,"velocity":0.3937007874015748},{"duration":0.35294099999998707,"midi":66,"time":245.646936,"velocity":0.3937007874015748},{"duration":0.35294099999998707,"midi":70,"time":245.646936,"velocity":0.3937007874015748},{"duration":0.17647049999999354,"midi":61,"time":245.999877,"velocity":0.3937007874015748},{"duration":0.17647049999999354,"midi":73,"time":245.999877,"velocity":0.3937007874015748},{"duration":0.17647050000002196,"midi":63,"time":246.1763475,"velocity":0.3937007874015748},{"duration":0.17647050000002196,"midi":75,"time":246.1763475,"velocity":0.3937007874015748},{"duration":0.35294099999998707,"midi":66,"time":246.352818,"velocity":0.3937007874015748},{"duration":0.35294099999998707,"midi":61,"time":246.352818,"velocity":0.3937007874015748},{"duration":0.17647049999999354,"midi":73,"time":246.352818,"velocity":0.3937007874015748},{"duration":0.35294099999998707,"midi":70,"time":246.352818,"velocity":0.3937007874015748},{"duration":0.08823524999999677,"midi":75,"time":246.5292885,"velocity":0.3937007874015748},{"duration":0.08823524999999677,"midi":73,"time":246.61752375,"velocity":0.3937007874015748},{"duration":0.3529410000000155,"midi":63,"time":246.705759,"velocity":0.3937007874015748},{"duration":0.3529410000000155,"midi":66,"time":246.705759,"velocity":0.3937007874015748},{"duration":0.3529410000000155,"midi":59,"time":246.705759,"velocity":0.3937007874015748},{"duration":0.3529410000000155,"midi":71,"time":246.705759,"velocity":0.3937007874015748},{"duration":0.35294099999998707,"midi":71,"time":247.05870000000002,"velocity":0.3937007874015748},{"duration":0.35294099999998707,"midi":63,"time":247.05870000000002,"velocity":0.3937007874015748},{"duration":0.35294099999998707,"midi":66,"time":247.05870000000002,"velocity":0.3937007874015748},{"duration":0.35294099999998707,"midi":74,"time":247.05870000000002,"velocity":0.3937007874015748},{"duration":0.35294099999998707,"midi":68,"time":247.411641,"velocity":0.3937007874015748},{"duration":0.35294099999998707,"midi":73,"time":247.411641,"velocity":0.3937007874015748},{"duration":0.35294099999998707,"midi":65,"time":247.411641,"velocity":0.3937007874015748},{"duration":0.35294099999998707,"midi":61,"time":247.411641,"velocity":0.3937007874015748},{"duration":0.3529410000000155,"midi":57,"time":247.764582,"velocity":0.3937007874015748},{"duration":0.3529410000000155,"midi":61,"time":247.764582,"velocity":0.3937007874015748},{"duration":0.3529410000000155,"midi":65,"time":247.764582,"velocity":0.3937007874015748},{"duration":0.3529410000000155,"midi":69,"time":247.764582,"velocity":0.3937007874015748},{"duration":0.35294099999998707,"midi":68,"time":248.117523,"velocity":0.3937007874015748},{"duration":0.35294099999998707,"midi":61,"time":248.117523,"velocity":0.3937007874015748},{"duration":0.35294099999998707,"midi":65,"time":248.117523,"velocity":0.3937007874015748},{"duration":0.35294099999998707,"midi":73,"time":248.117523,"velocity":0.3937007874015748},{"duration":0.7058820000000026,"midi":68,"time":248.470464,"velocity":0.3937007874015748},{"duration":0.7058820000000026,"midi":65,"time":248.470464,"velocity":0.3937007874015748},{"duration":0.7058820000000026,"midi":59,"time":248.470464,"velocity":0.3937007874015748},{"duration":0.7058820000000026,"midi":71,"time":248.470464,"velocity":0.3937007874015748},{"duration":0.7058820000000026,"midi":61,"time":249.176346,"velocity":0.3937007874015748},{"duration":0.7058820000000026,"midi":73,"time":249.176346,"velocity":0.3937007874015748},{"duration":0.7058820000000026,"midi":70,"time":249.176346,"velocity":0.3937007874015748},{"duration":0.7058820000000026,"midi":66,"time":249.176346,"velocity":0.3937007874015748}]},{"instrument":{"family":"bass","number":32,"name":"acoustic bass"},"notes":[{"duration":0.3529410000000013,"midi":41,"time":22.588224,"velocity":0.3937007874015748},{"duration":0.3529410000000013,"midi":39,"time":22.588224,"velocity":0.3937007874015748},{"duration":0.3529410000000013,"midi":46,"time":22.588224,"velocity":0.3937007874015748},{"duration":0.3529410000000013,"midi":53,"time":22.588224,"velocity":0.3937007874015748},{"duration":0.1764704999999971,"midi":41,"time":22.941165,"velocity":0.3937007874015748},{"duration":0.1764704999999971,"midi":39,"time":22.941165,"velocity":0.3937007874015748},{"duration":0.1764704999999971,"midi":46,"time":22.941165,"velocity":0.3937007874015748},{"duration":0.3529410000000013,"midi":39,"time":23.1176355,"velocity":0.3937007874015748},{"duration":0.3529410000000013,"midi":41,"time":23.1176355,"velocity":0.3937007874015748},{"duration":0.3529410000000013,"midi":46,"time":23.1176355,"velocity":0.3937007874015748},{"duration":0.3529410000000013,"midi":53,"time":23.1176355,"velocity":0.3937007874015748},{"duration":0.17647050000000064,"midi":41,"time":23.4705765,"velocity":0.3937007874015748},{"duration":0.17647050000000064,"midi":39,"time":23.4705765,"velocity":0.3937007874015748},{"duration":0.17647050000000064,"midi":46,"time":23.4705765,"velocity":0.3937007874015748},{"duration":0.3529410000000013,"midi":46,"time":23.647047,"velocity":0.3937007874015748},{"duration":0.3529410000000013,"midi":39,"time":23.647047,"velocity":0.3937007874015748},{"duration":0.3529410000000013,"midi":53,"time":23.647047,"velocity":0.3937007874015748},{"duration":0.3529410000000013,"midi":41,"time":23.647047,"velocity":0.3937007874015748},{"duration":0.1764704999999971,"midi":41,"time":23.999988000000002,"velocity":0.3937007874015748},{"duration":0.1764704999999971,"midi":39,"time":23.999988000000002,"velocity":0.3937007874015748},{"duration":0.1764704999999971,"midi":46,"time":23.999988000000002,"velocity":0.3937007874015748},{"duration":0.3529410000000013,"midi":39,"time":24.1764585,"velocity":0.3937007874015748},{"duration":0.3529410000000013,"midi":41,"time":24.1764585,"velocity":0.3937007874015748},{"duration":0.3529410000000013,"midi":53,"time":24.1764585,"velocity":0.3937007874015748},{"duration":0.3529410000000013,"midi":46,"time":24.1764585,"velocity":0.3937007874015748},{"duration":0.17647050000000064,"midi":39,"time":24.5293995,"velocity":0.3937007874015748},{"duration":0.17647050000000064,"midi":41,"time":24.5293995,"velocity":0.3937007874015748},{"duration":0.17647050000000064,"midi":46,"time":24.5293995,"velocity":0.3937007874015748},{"duration":0.35294099999999773,"midi":53,"time":24.70587,"velocity":0.3937007874015748},{"duration":0.35294099999999773,"midi":46,"time":24.70587,"velocity":0.3937007874015748},{"duration":0.35294099999999773,"midi":39,"time":24.70587,"velocity":0.3937007874015748},{"duration":0.35294099999999773,"midi":41,"time":24.70587,"velocity":0.3937007874015748},{"duration":0.17647050000000064,"midi":46,"time":25.058811,"velocity":0.3937007874015748},{"duration":0.17647050000000064,"midi":41,"time":25.058811,"velocity":0.3937007874015748},{"duration":0.17647050000000064,"midi":39,"time":25.058811,"velocity":0.3937007874015748},{"duration":0.17647050000000064,"midi":53,"time":25.058811,"velocity":0.3937007874015748},{"duration":0.17647050000000064,"midi":43,"time":25.2352815,"velocity":0.3937007874015748},{"duration":0.17647050000000064,"midi":48,"time":25.2352815,"velocity":0.3937007874015748},{"duration":0.17647050000000064,"midi":55,"time":25.2352815,"velocity":0.3937007874015748},{"duration":0.3529410000000013,"midi":41,"time":25.411752,"velocity":0.3937007874015748},{"duration":0.3529410000000013,"midi":46,"time":25.411752,"velocity":0.3937007874015748},{"duration":0.3529410000000013,"midi":53,"time":25.411752,"velocity":0.3937007874015748},{"duration":0.3529410000000013,"midi":39,"time":25.411752,"velocity":0.3937007874015748},{"duration":0.17647050000000064,"midi":39,"time":25.764693,"velocity":0.3937007874015748},{"duration":0.17647050000000064,"midi":41,"time":25.764693,"velocity":0.3937007874015748},{"duration":0.17647050000000064,"midi":46,"time":25.764693,"velocity":0.3937007874015748},{"duration":0.35294099999999773,"midi":46,"time":25.941163500000002,"velocity":0.3937007874015748},{"duration":0.35294099999999773,"midi":41,"time":25.941163500000002,"velocity":0.3937007874015748},{"duration":0.35294099999999773,"midi":39,"time":25.941163500000002,"velocity":0.3937007874015748},{"duration":0.35294099999999773,"midi":53,"time":25.941163500000002,"velocity":0.3937007874015748},{"duration":0.17647050000000064,"midi":46,"time":26.2941045,"velocity":0.3937007874015748},{"duration":0.17647050000000064,"midi":41,"time":26.2941045,"velocity":0.3937007874015748},{"duration":0.17647050000000064,"midi":39,"time":26.2941045,"velocity":0.3937007874015748},{"duration":0.3529410000000013,"midi":53,"time":26.470575,"velocity":0.3937007874015748},{"duration":0.3529410000000013,"midi":46,"time":26.470575,"velocity":0.3937007874015748},{"duration":0.3529410000000013,"midi":39,"time":26.470575,"velocity":0.3937007874015748},{"duration":0.3529410000000013,"midi":41,"time":26.470575,"velocity":0.3937007874015748},{"duration":0.17647050000000064,"midi":39,"time":26.823516,"velocity":0.3937007874015748},{"duration":0.17647050000000064,"midi":41,"time":26.823516,"velocity":0.3937007874015748},{"duration":0.17647050000000064,"midi":46,"time":26.823516,"velocity":0.3937007874015748},{"duration":0.35294099999999773,"midi":41,"time":26.999986500000002,"velocity":0.3937007874015748},{"duration":0.35294099999999773,"midi":46,"time":26.999986500000002,"velocity":0.3937007874015748},{"duration":0.35294099999999773,"midi":53,"time":26.999986500000002,"velocity":0.3937007874015748},{"duration":0.35294099999999773,"midi":39,"time":26.999986500000002,"velocity":0.3937007874015748},{"duration":0.17647050000000064,"midi":46,"time":27.3529275,"velocity":0.3937007874015748},{"duration":0.17647050000000064,"midi":39,"time":27.3529275,"velocity":0.3937007874015748},{"duration":0.17647050000000064,"midi":41,"time":27.3529275,"velocity":0.3937007874015748},{"duration":0.3529410000000013,"midi":41,"time":27.529398,"velocity":0.3937007874015748},{"duration":0.3529410000000013,"midi":53,"time":27.529398,"velocity":0.3937007874015748},{"duration":0.3529410000000013,"midi":39,"time":27.529398,"velocity":0.3937007874015748},{"duration":0.3529410000000013,"midi":46,"time":27.529398,"velocity":0.3937007874015748},{"duration":0.1764704999999971,"midi":39,"time":27.882339,"velocity":0.3937007874015748},{"duration":0.1764704999999971,"midi":46,"time":27.882339,"velocity":0.3937007874015748},{"duration":0.1764704999999971,"midi":41,"time":27.882339,"velocity":0.3937007874015748},{"duration":0.17647050000000064,"midi":48,"time":28.0588095,"velocity":0.3937007874015748},{"duration":0.17647050000000064,"midi":55,"time":28.0588095,"velocity":0.3937007874015748},{"duration":0.17647050000000064,"midi":43,"time":28.0588095,"velocity":0.3937007874015748},{"duration":0.3529410000000013,"midi":50,"time":28.23528,"velocity":0.3937007874015748},{"duration":0.3529410000000013,"midi":36,"time":28.23528,"velocity":0.3937007874015748},{"duration":0.3529410000000013,"midi":38,"time":28.23528,"velocity":0.3937007874015748},{"duration":0.3529410000000013,"midi":41,"time":28.23528,"velocity":0.3937007874015748},{"duration":0.17647050000000064,"midi":36,"time":28.588221,"velocity":0.3937007874015748},{"duration":0.17647050000000064,"midi":38,"time":28.588221,"velocity":0.3937007874015748},{"duration":0.17647050000000064,"midi":41,"time":28.588221,"velocity":0.3937007874015748},{"duration":0.35294099999999773,"midi":38,"time":28.7646915,"velocity":0.3937007874015748},{"duration":0.35294099999999773,"midi":41,"time":28.7646915,"velocity":0.3937007874015748},{"duration":0.35294099999999773,"midi":36,"time":28.7646915,"velocity":0.3937007874015748},{"duration":0.35294099999999773,"midi":50,"time":28.7646915,"velocity":0.3937007874015748},{"duration":0.17647050000000064,"midi":41,"time":29.1176325,"velocity":0.3937007874015748},{"duration":0.17647050000000064,"midi":38,"time":29.1176325,"velocity":0.3937007874015748},{"duration":0.17647050000000064,"midi":36,"time":29.1176325,"velocity":0.3937007874015748},{"duration":0.3529410000000013,"midi":50,"time":29.294103,"velocity":0.3937007874015748},{"duration":0.3529410000000013,"midi":36,"time":29.294103,"velocity":0.3937007874015748},{"duration":0.3529410000000013,"midi":38,"time":29.294103,"velocity":0.3937007874015748},{"duration":0.3529410000000013,"midi":41,"time":29.294103,"velocity":0.3937007874015748},{"duration":0.17647050000000064,"midi":41,"time":29.647044,"velocity":0.3937007874015748},{"duration":0.17647050000000064,"midi":38,"time":29.647044,"velocity":0.3937007874015748},{"duration":0.17647050000000064,"midi":36,"time":29.647044,"velocity":0.3937007874015748},{"duration":0.35294099999999773,"midi":41,"time":29.8235145,"velocity":0.3937007874015748},{"duration":0.35294099999999773,"midi":50,"time":29.8235145,"velocity":0.3937007874015748},{"duration":0.35294099999999773,"midi":36,"time":29.8235145,"velocity":0.3937007874015748},{"duration":0.35294099999999773,"midi":38,"time":29.8235145,"velocity":0.3937007874015748},{"duration":0.17647050000000064,"midi":36,"time":30.1764555,"velocity":0.3937007874015748},{"duration":0.17647050000000064,"midi":38,"time":30.1764555,"velocity":0.3937007874015748},{"duration":0.17647050000000064,"midi":41,"time":30.1764555,"velocity":0.3937007874015748},{"duration":0.3529410000000013,"midi":41,"time":30.352926,"velocity":0.3937007874015748},{"duration":0.3529410000000013,"midi":50,"time":30.352926,"velocity":0.3937007874015748},{"duration":0.3529410000000013,"midi":36,"time":30.352926,"velocity":0.3937007874015748},{"duration":0.3529410000000013,"midi":38,"time":30.352926,"velocity":0.3937007874015748},{"duration":0.17647050000000064,"midi":50,"time":30.705867,"velocity":0.3937007874015748},{"duration":0.17647050000000064,"midi":36,"time":30.705867,"velocity":0.3937007874015748},{"duration":0.17647050000000064,"midi":38,"time":30.705867,"velocity":0.3937007874015748},{"duration":0.17647050000000064,"midi":41,"time":30.705867,"velocity":0.3937007874015748},{"duration":0.1764704999999971,"midi":36,"time":30.882337500000002,"velocity":0.3937007874015748},{"duration":0.1764704999999971,"midi":41,"time":30.882337500000002,"velocity":0.3937007874015748},{"duration":0.1764704999999971,"midi":50,"time":30.882337500000002,"velocity":0.3937007874015748},{"duration":0.1764704999999971,"midi":38,"time":30.882337500000002,"velocity":0.3937007874015748},{"duration":0.17647050000000064,"midi":50,"time":31.058808,"velocity":0.3937007874015748},{"duration":0.17647050000000064,"midi":53,"time":31.058808,"velocity":0.3937007874015748},{"duration":0.17647050000000064,"midi":43,"time":31.058808,"velocity":0.3937007874015748},{"duration":0.17647050000000064,"midi":55,"time":31.2352785,"velocity":0.3937007874015748},{"duration":0.17647050000000064,"midi":43,"time":31.2352785,"velocity":0.3937007874015748},{"duration":0.17647050000000064,"midi":43,"time":31.411749,"velocity":0.3937007874015748},{"duration":0.17647050000000064,"midi":55,"time":31.411749,"velocity":0.3937007874015748},{"duration":0.17647050000000064,"midi":55,"time":31.5882195,"velocity":0.3937007874015748},{"duration":0.17647050000000064,"midi":43,"time":31.5882195,"velocity":0.3937007874015748},{"duration":0.1764704999999971,"midi":53,"time":31.76469,"velocity":0.3937007874015748},{"duration":0.1764704999999971,"midi":50,"time":31.76469,"velocity":0.3937007874015748},{"duration":0.1764704999999971,"midi":57,"time":31.76469,"velocity":0.3937007874015748},{"duration":0.1764704999999971,"midi":45,"time":31.76469,"velocity":0.3937007874015748},{"duration":0.1764705000000042,"midi":57,"time":31.9411605,"velocity":0.3937007874015748},{"duration":0.1764705000000042,"midi":45,"time":31.9411605,"velocity":0.3937007874015748},{"duration":0.17647050000000064,"midi":45,"time":32.117631,"velocity":0.3937007874015748},{"duration":0.17647050000000064,"midi":57,"time":32.117631,"velocity":0.3937007874015748},{"duration":0.17647049999999354,"midi":45,"time":32.294101500000004,"velocity":0.3937007874015748},{"duration":0.17647049999999354,"midi":57,"time":32.294101500000004,"velocity":0.3937007874015748},{"duration":0.17647050000000064,"midi":50,"time":32.470572,"velocity":0.3937007874015748},{"duration":0.17647050000000064,"midi":53,"time":32.470572,"velocity":0.3937007874015748},{"duration":0.17647050000000064,"midi":58,"time":32.470572,"velocity":0.3937007874015748},{"duration":0.17647050000000064,"midi":46,"time":32.470572,"velocity":0.3937007874015748},{"duration":0.17647050000000064,"midi":46,"time":32.6470425,"velocity":0.3937007874015748},{"duration":0.17647050000000064,"midi":58,"time":32.6470425,"velocity":0.3937007874015748},{"duration":0.17647050000000064,"midi":58,"time":32.823513,"velocity":0.3937007874015748},{"duration":0.17647050000000064,"midi":46,"time":32.823513,"velocity":0.3937007874015748},{"duration":0.17647050000000064,"midi":46,"time":32.9999835,"velocity":0.3937007874015748},{"duration":0.17647050000000064,"midi":58,"time":32.9999835,"velocity":0.3937007874015748},{"duration":0.17647050000000064,"midi":60,"time":33.176454,"velocity":0.3937007874015748},{"duration":0.17647050000000064,"midi":53,"time":33.176454,"velocity":0.3937007874015748},{"duration":0.17647050000000064,"midi":48,"time":33.176454,"velocity":0.3937007874015748},{"duration":0.17647050000000064,"midi":46,"time":33.3529245,"velocity":0.3937007874015748},{"duration":0.17647050000000064,"midi":58,"time":33.3529245,"velocity":0.3937007874015748},{"duration":0.17647050000000064,"midi":50,"time":33.3529245,"velocity":0.3937007874015748},{"duration":0.17647050000000064,"midi":48,"time":33.529395,"velocity":0.3937007874015748},{"duration":0.17647050000000064,"midi":53,"time":33.529395,"velocity":0.3937007874015748},{"duration":0.17647050000000064,"midi":60,"time":33.529395,"velocity":0.3937007874015748},{"duration":0.17647050000000064,"midi":62,"time":33.7058655,"velocity":0.3937007874015748},{"duration":0.17647050000000064,"midi":50,"time":33.7058655,"velocity":0.3937007874015748},{"duration":0.3529410000000013,"midi":53,"time":33.882336,"velocity":0.3937007874015748},{"duration":0.3529410000000013,"midi":39,"time":33.882336,"velocity":0.3937007874015748},{"duration":0.3529410000000013,"midi":46,"time":33.882336,"velocity":0.3937007874015748},{"duration":0.3529410000000013,"midi":41,"time":33.882336,"velocity":0.3937007874015748},{"duration":0.17647049999999354,"midi":46,"time":34.235277,"velocity":0.3937007874015748},{"duration":0.17647049999999354,"midi":41,"time":34.235277,"velocity":0.3937007874015748},{"duration":0.17647049999999354,"midi":39,"time":34.235277,"velocity":0.3937007874015748},{"duration":0.3529410000000013,"midi":39,"time":34.4117475,"velocity":0.3937007874015748},{"duration":0.3529410000000013,"midi":41,"time":34.4117475,"velocity":0.3937007874015748},{"duration":0.3529410000000013,"midi":53,"time":34.4117475,"velocity":0.3937007874015748},{"duration":0.3529410000000013,"midi":46,"time":34.4117475,"velocity":0.3937007874015748},{"duration":0.17647050000000064,"midi":41,"time":34.7646885,"velocity":0.3937007874015748},{"duration":0.17647050000000064,"midi":46,"time":34.7646885,"velocity":0.3937007874015748},{"duration":0.17647050000000064,"midi":39,"time":34.7646885,"velocity":0.3937007874015748},{"duration":0.3529410000000013,"midi":41,"time":34.941159,"velocity":0.3937007874015748},{"duration":0.3529410000000013,"midi":39,"time":34.941159,"velocity":0.3937007874015748},{"duration":0.3529410000000013,"midi":46,"time":34.941159,"velocity":0.3937007874015748},{"duration":0.3529410000000013,"midi":53,"time":34.941159,"velocity":0.3937007874015748},{"duration":0.17647050000000064,"midi":46,"time":35.2941,"velocity":0.3937007874015748},{"duration":0.17647050000000064,"midi":41,"time":35.2941,"velocity":0.3937007874015748},{"duration":0.17647050000000064,"midi":39,"time":35.2941,"velocity":0.3937007874015748},{"duration":0.3529410000000013,"midi":53,"time":35.4705705,"velocity":0.3937007874015748},{"duration":0.3529410000000013,"midi":39,"time":35.4705705,"velocity":0.3937007874015748},{"duration":0.3529410000000013,"midi":41,"time":35.4705705,"velocity":0.3937007874015748},{"duration":0.3529410000000013,"midi":46,"time":35.4705705,"velocity":0.3937007874015748},{"duration":0.17647050000000064,"midi":39,"time":35.8235115,"velocity":0.3937007874015748},{"duration":0.17647050000000064,"midi":41,"time":35.8235115,"velocity":0.3937007874015748},{"duration":0.17647050000000064,"midi":46,"time":35.8235115,"velocity":0.3937007874015748},{"duration":0.3529409999999942,"midi":53,"time":35.999982,"velocity":0.3937007874015748},{"duration":0.3529409999999942,"midi":46,"time":35.999982,"velocity":0.3937007874015748},{"duration":0.3529409999999942,"midi":39,"time":35.999982,"velocity":0.3937007874015748},{"duration":0.3529409999999942,"midi":41,"time":35.999982,"velocity":0.3937007874015748},{"duration":0.17647050000000064,"midi":53,"time":36.352923,"velocity":0.3937007874015748},{"duration":0.17647050000000064,"midi":39,"time":36.352923,"velocity":0.3937007874015748},{"duration":0.17647050000000064,"midi":46,"time":36.352923,"velocity":0.3937007874015748},{"duration":0.17647050000000064,"midi":41,"time":36.352923,"velocity":0.3937007874015748},{"duration":0.17647050000000064,"midi":43,"time":36.5293935,"velocity":0.3937007874015748},{"duration":0.17647050000000064,"midi":48,"time":36.5293935,"velocity":0.3937007874015748},{"duration":0.17647050000000064,"midi":55,"time":36.5293935,"velocity":0.3937007874015748},{"duration":0.3529410000000013,"midi":41,"time":36.705864,"velocity":0.3937007874015748},{"duration":0.3529410000000013,"midi":46,"time":36.705864,"velocity":0.3937007874015748},{"duration":0.3529410000000013,"midi":53,"time":36.705864,"velocity":0.3937007874015748},{"duration":0.3529410000000013,"midi":39,"time":36.705864,"velocity":0.3937007874015748},{"duration":0.17647050000000064,"midi":39,"time":37.058805,"velocity":0.3937007874015748},{"duration":0.17647050000000064,"midi":41,"time":37.058805,"velocity":0.3937007874015748},{"duration":0.17647050000000064,"midi":46,"time":37.058805,"velocity":0.3937007874015748},{"duration":0.3529410000000013,"midi":41,"time":37.2352755,"velocity":0.3937007874015748},{"duration":0.3529410000000013,"midi":46,"time":37.2352755,"velocity":0.3937007874015748},{"duration":0.3529410000000013,"midi":53,"time":37.2352755,"velocity":0.3937007874015748},{"duration":0.3529410000000013,"midi":39,"time":37.2352755,"velocity":0.3937007874015748},{"duration":0.17647050000000064,"midi":41,"time":37.5882165,"velocity":0.3937007874015748},{"duration":0.17647050000000064,"midi":39,"time":37.5882165,"velocity":0.3937007874015748},{"duration":0.17647050000000064,"midi":46,"time":37.5882165,"velocity":0.3937007874015748},{"duration":0.3529410000000013,"midi":41,"time":37.764687,"velocity":0.3937007874015748},{"duration":0.3529410000000013,"midi":53,"time":37.764687,"velocity":0.3937007874015748},{"duration":0.3529410000000013,"midi":46,"time":37.764687,"velocity":0.3937007874015748},{"duration":0.3529410000000013,"midi":39,"time":37.764687,"velocity":0.3937007874015748},{"duration":0.17647050000000064,"midi":41,"time":38.117628,"velocity":0.3937007874015748},{"duration":0.17647050000000064,"midi":46,"time":38.117628,"velocity":0.3937007874015748},{"duration":0.17647050000000064,"midi":39,"time":38.117628,"velocity":0.3937007874015748},{"duration":0.3529409999999942,"midi":46,"time":38.294098500000004,"velocity":0.3937007874015748},{"duration":0.3529409999999942,"midi":53,"time":38.294098500000004,"velocity":0.3937007874015748},{"duration":0.3529409999999942,"midi":41,"time":38.294098500000004,"velocity":0.3937007874015748},{"duration":0.3529409999999942,"midi":39,"time":38.294098500000004,"velocity":0.3937007874015748},{"duration":0.17647050000000064,"midi":39,"time":38.6470395,"velocity":0.3937007874015748},{"duration":0.17647050000000064,"midi":41,"time":38.6470395,"velocity":0.3937007874015748},{"duration":0.17647050000000064,"midi":46,"time":38.6470395,"velocity":0.3937007874015748},{"duration":0.3529410000000013,"midi":41,"time":38.82351,"velocity":0.3937007874015748},{"duration":0.3529410000000013,"midi":53,"time":38.82351,"velocity":0.3937007874015748},{"duration":0.3529410000000013,"midi":46,"time":38.82351,"velocity":0.3937007874015748},{"duration":0.3529410000000013,"midi":39,"time":38.82351,"velocity":0.3937007874015748},{"duration":0.17647050000000064,"midi":41,"time":39.176451,"velocity":0.3937007874015748},{"duration":0.17647050000000064,"midi":39,"time":39.176451,"velocity":0.3937007874015748},{"duration":0.17647050000000064,"midi":46,"time":39.176451,"velocity":0.3937007874015748},{"duration":0.17647050000000064,"midi":55,"time":39.3529215,"velocity":0.3937007874015748},{"duration":0.17647050000000064,"midi":43,"time":39.3529215,"velocity":0.3937007874015748},{"duration":0.17647050000000064,"midi":48,"time":39.3529215,"velocity":0.3937007874015748},{"duration":0.3529410000000013,"midi":50,"time":39.529392,"velocity":0.3937007874015748},{"duration":0.3529410000000013,"midi":41,"time":39.529392,"velocity":0.3937007874015748},{"duration":0.3529410000000013,"midi":36,"time":39.529392,"velocity":0.3937007874015748},{"duration":0.3529410000000013,"midi":38,"time":39.529392,"velocity":0.3937007874015748},{"duration":0.17647050000000064,"midi":36,"time":39.882333,"velocity":0.3937007874015748},{"duration":0.17647050000000064,"midi":38,"time":39.882333,"velocity":0.3937007874015748},{"duration":0.17647050000000064,"midi":41,"time":39.882333,"velocity":0.3937007874015748},{"duration":0.3529409999999942,"midi":41,"time":40.0588035,"velocity":0.3937007874015748},{"duration":0.3529409999999942,"midi":36,"time":40.0588035,"velocity":0.3937007874015748},{"duration":0.3529409999999942,"midi":50,"time":40.0588035,"velocity":0.3937007874015748},{"duration":0.3529409999999942,"midi":38,"time":40.0588035,"velocity":0.3937007874015748},{"duration":0.17647050000000064,"midi":41,"time":40.4117445,"velocity":0.3937007874015748},{"duration":0.17647050000000064,"midi":38,"time":40.4117445,"velocity":0.3937007874015748},{"duration":0.17647050000000064,"midi":36,"time":40.4117445,"velocity":0.3937007874015748},{"duration":0.3529410000000013,"midi":50,"time":40.588215,"velocity":0.3937007874015748},{"duration":0.3529410000000013,"midi":38,"time":40.588215,"velocity":0.3937007874015748},{"duration":0.3529410000000013,"midi":36,"time":40.588215,"velocity":0.3937007874015748},{"duration":0.3529410000000013,"midi":41,"time":40.588215,"velocity":0.3937007874015748},{"duration":0.17647050000000064,"midi":36,"time":40.941156,"velocity":0.3937007874015748},{"duration":0.17647050000000064,"midi":38,"time":40.941156,"velocity":0.3937007874015748},{"duration":0.17647050000000064,"midi":41,"time":40.941156,"velocity":0.3937007874015748},{"duration":0.3529410000000013,"midi":41,"time":41.1176265,"velocity":0.3937007874015748},{"duration":0.3529410000000013,"midi":36,"time":41.1176265,"velocity":0.3937007874015748},{"duration":0.3529410000000013,"midi":50,"time":41.1176265,"velocity":0.3937007874015748},{"duration":0.3529410000000013,"midi":38,"time":41.1176265,"velocity":0.3937007874015748},{"duration":0.17647050000000064,"midi":36,"time":41.4705675,"velocity":0.3937007874015748},{"duration":0.17647050000000064,"midi":38,"time":41.4705675,"velocity":0.3937007874015748},{"duration":0.17647050000000064,"midi":41,"time":41.4705675,"velocity":0.3937007874015748},{"duration":0.3529410000000013,"midi":41,"time":41.647038,"velocity":0.3937007874015748},{"duration":0.3529410000000013,"midi":50,"time":41.647038,"velocity":0.3937007874015748},{"duration":0.3529410000000013,"midi":36,"time":41.647038,"velocity":0.3937007874015748},{"duration":0.3529410000000013,"midi":38,"time":41.647038,"velocity":0.3937007874015748},{"duration":0.17647050000000064,"midi":50,"time":41.999979,"velocity":0.3937007874015748},{"duration":0.17647050000000064,"midi":36,"time":41.999979,"velocity":0.3937007874015748},{"duration":0.17647050000000064,"midi":38,"time":41.999979,"velocity":0.3937007874015748},{"duration":0.17647050000000064,"midi":41,"time":41.999979,"velocity":0.3937007874015748},{"duration":0.17647049999999354,"midi":41,"time":42.176449500000004,"velocity":0.3937007874015748},{"duration":0.17647049999999354,"midi":50,"time":42.176449500000004,"velocity":0.3937007874015748},{"duration":0.17647049999999354,"midi":36,"time":42.176449500000004,"velocity":0.3937007874015748},{"duration":0.17647049999999354,"midi":38,"time":42.176449500000004,"velocity":0.3937007874015748},{"duration":0.17647050000000064,"midi":53,"time":42.35292,"velocity":0.3937007874015748},{"duration":0.17647050000000064,"midi":43,"time":42.35292,"velocity":0.3937007874015748},{"duration":0.17647050000000064,"midi":50,"time":42.35292,"velocity":0.3937007874015748},{"duration":0.17647050000000064,"midi":55,"time":42.5293905,"velocity":0.3937007874015748},{"duration":0.17647050000000064,"midi":43,"time":42.5293905,"velocity":0.3937007874015748},{"duration":0.17647050000000064,"midi":43,"time":42.705861,"velocity":0.3937007874015748},{"duration":0.17647050000000064,"midi":55,"time":42.705861,"velocity":0.3937007874015748},{"duration":0.17647050000000064,"midi":55,"time":42.8823315,"velocity":0.3937007874015748},{"duration":0.17647050000000064,"midi":43,"time":42.8823315,"velocity":0.3937007874015748},{"duration":0.17647050000000064,"midi":50,"time":43.058802,"velocity":0.3937007874015748},{"duration":0.17647050000000064,"midi":53,"time":43.058802,"velocity":0.3937007874015748},{"duration":0.17647050000000064,"midi":57,"time":43.058802,"velocity":0.3937007874015748},{"duration":0.17647050000000064,"midi":45,"time":43.058802,"velocity":0.3937007874015748},{"duration":0.17647050000000064,"midi":45,"time":43.2352725,"velocity":0.3937007874015748},{"duration":0.17647050000000064,"midi":57,"time":43.2352725,"velocity":0.3937007874015748},{"duration":0.17647050000000064,"midi":57,"time":43.411743,"velocity":0.3937007874015748},{"duration":0.17647050000000064,"midi":45,"time":43.411743,"velocity":0.3937007874015748},{"duration":0.17647050000000064,"midi":57,"time":43.5882135,"velocity":0.3937007874015748},{"duration":0.17647050000000064,"midi":45,"time":43.5882135,"velocity":0.3937007874015748},{"duration":0.17647050000000064,"midi":46,"time":43.764684,"velocity":0.3937007874015748},{"duration":0.17647050000000064,"midi":50,"time":43.764684,"velocity":0.3937007874015748},{"duration":0.17647050000000064,"midi":58,"time":43.764684,"velocity":0.3937007874015748},{"duration":0.17647050000000064,"midi":53,"time":43.764684,"velocity":0.3937007874015748},{"duration":0.17647050000000064,"midi":58,"time":43.9411545,"velocity":0.3937007874015748},{"duration":0.17647050000000064,"midi":46,"time":43.9411545,"velocity":0.3937007874015748},{"duration":0.17647049999999354,"midi":46,"time":44.117625000000004,"velocity":0.3937007874015748},{"duration":0.17647049999999354,"midi":58,"time":44.117625000000004,"velocity":0.3937007874015748},{"duration":0.17647050000000064,"midi":46,"time":44.2940955,"velocity":0.3937007874015748},{"duration":0.17647050000000064,"midi":58,"time":44.2940955,"velocity":0.3937007874015748},{"duration":0.17647050000000064,"midi":48,"time":44.470566,"velocity":0.3937007874015748},{"duration":0.17647050000000064,"midi":60,"time":44.470566,"velocity":0.3937007874015748},{"duration":0.17647050000000064,"midi":53,"time":44.470566,"velocity":0.3937007874015748},{"duration":0.17647050000000064,"midi":58,"time":44.6470365,"velocity":0.3937007874015748},{"duration":0.17647050000000064,"midi":46,"time":44.6470365,"velocity":0.3937007874015748},{"duration":0.17647050000000064,"midi":50,"time":44.6470365,"velocity":0.3937007874015748},{"duration":0.17647050000000064,"midi":60,"time":44.823507,"velocity":0.3937007874015748},{"duration":0.17647050000000064,"midi":48,"time":44.823507,"velocity":0.3937007874015748},{"duration":0.17647050000000064,"midi":53,"time":44.823507,"velocity":0.3937007874015748},{"duration":0.17647050000000064,"midi":50,"time":44.9999775,"velocity":0.3937007874015748},{"duration":0.17647050000000064,"midi":62,"time":44.9999775,"velocity":0.3937007874015748},{"duration":0.3529410000000013,"midi":36,"time":45.176448,"velocity":0.3937007874015748},{"duration":0.3529410000000013,"midi":36,"time":45.529389,"velocity":0.3937007874015748},{"duration":0.17647049999999354,"midi":36,"time":46.058800500000004,"velocity":0.3937007874015748},{"duration":0.3529410000000013,"midi":36,"time":46.235271,"velocity":0.3937007874015748},{"duration":0.3529410000000013,"midi":36,"time":46.588212,"velocity":0.3937007874015748},{"duration":0.3529410000000013,"midi":36,"time":46.941153,"velocity":0.3937007874015748},{"duration":0.17647050000000064,"midi":36,"time":47.4705645,"velocity":0.3937007874015748},{"duration":0.3529410000000013,"midi":36,"time":47.647035,"velocity":0.3937007874015748},{"duration":0.3529409999999942,"midi":38,"time":47.999976000000004,"velocity":0.3937007874015748},{"duration":0.3529410000000013,"midi":38,"time":48.352917,"velocity":0.3937007874015748},{"duration":0.17647050000000064,"midi":38,"time":48.8823285,"velocity":0.3937007874015748},{"duration":0.3529410000000013,"midi":38,"time":49.058799,"velocity":0.3937007874015748},{"duration":0.3529410000000013,"midi":38,"time":49.41174,"velocity":0.3937007874015748},{"duration":0.3529409999999942,"midi":38,"time":49.764681,"velocity":0.3937007874015748},{"duration":0.17647050000000064,"midi":38,"time":50.2940925,"velocity":0.3937007874015748},{"duration":0.3529410000000013,"midi":38,"time":50.470563,"velocity":0.3937007874015748},{"duration":0.3529410000000013,"midi":39,"time":50.823504,"velocity":0.3937007874015748},{"duration":0.3529410000000013,"midi":39,"time":51.176445,"velocity":0.3937007874015748},{"duration":0.17647050000000064,"midi":39,"time":51.7058565,"velocity":0.3937007874015748},{"duration":0.3529409999999942,"midi":39,"time":51.882327000000004,"velocity":0.3937007874015748},{"duration":0.3529410000000013,"midi":39,"time":52.235268,"velocity":0.3937007874015748},{"duration":0.3529410000000013,"midi":39,"time":52.588209,"velocity":0.3937007874015748},{"duration":0.17647050000000064,"midi":39,"time":53.1176205,"velocity":0.3937007874015748},{"duration":0.3529410000000013,"midi":39,"time":53.294091,"velocity":0.3937007874015748},{"duration":0.3529410000000013,"midi":41,"time":53.647032,"velocity":0.3937007874015748},{"duration":0.3529409999999942,"midi":41,"time":53.999973000000004,"velocity":0.3937007874015748},{"duration":0.17647050000000064,"midi":41,"time":54.5293845,"velocity":0.3937007874015748},{"duration":0.3529410000000013,"midi":41,"time":54.705855,"velocity":0.3937007874015748},{"duration":0.3529410000000013,"midi":41,"time":55.058796,"velocity":0.3937007874015748},{"duration":0.3529410000000013,"midi":41,"time":55.411737,"velocity":0.3937007874015748},{"duration":0.17647049999999354,"midi":41,"time":55.941148500000004,"velocity":0.3937007874015748},{"duration":0.3529410000000013,"midi":41,"time":56.117619,"velocity":0.3937007874015748},{"duration":0.3529410000000013,"midi":43,"time":56.47056,"velocity":0.3937007874015748},{"duration":0.3529410000000013,"midi":48,"time":56.47056,"velocity":0.3937007874015748},{"duration":0.3529410000000013,"midi":36,"time":56.47056,"velocity":0.3937007874015748},{"duration":0.3529410000000013,"midi":48,"time":56.823501,"velocity":0.3937007874015748},{"duration":0.3529410000000013,"midi":36,"time":56.823501,"velocity":0.3937007874015748},{"duration":0.3529410000000013,"midi":43,"time":56.823501,"velocity":0.3937007874015748},{"duration":0.17647050000000064,"midi":36,"time":57.3529125,"velocity":0.3937007874015748},{"duration":0.17647050000000064,"midi":48,"time":57.3529125,"velocity":0.3937007874015748},{"duration":0.17647050000000064,"midi":43,"time":57.3529125,"velocity":0.3937007874015748},{"duration":0.3529410000000013,"midi":48,"time":57.529383,"velocity":0.3937007874015748},{"duration":0.3529410000000013,"midi":43,"time":57.529383,"velocity":0.3937007874015748},{"duration":0.3529410000000013,"midi":36,"time":57.529383,"velocity":0.3937007874015748},{"duration":0.3529409999999942,"midi":48,"time":57.882324000000004,"velocity":0.3937007874015748},{"duration":0.3529409999999942,"midi":43,"time":57.882324000000004,"velocity":0.3937007874015748},{"duration":0.3529409999999942,"midi":36,"time":57.882324000000004,"velocity":0.3937007874015748},{"duration":0.3529410000000013,"midi":48,"time":58.235265,"velocity":0.3937007874015748},{"duration":0.3529410000000013,"midi":43,"time":58.235265,"velocity":0.3937007874015748},{"duration":0.3529410000000013,"midi":36,"time":58.235265,"velocity":0.3937007874015748},{"duration":0.17647050000000064,"midi":48,"time":58.7646765,"velocity":0.3937007874015748},{"duration":0.17647050000000064,"midi":43,"time":58.7646765,"velocity":0.3937007874015748},{"duration":0.17647050000000064,"midi":36,"time":58.7646765,"velocity":0.3937007874015748},{"duration":0.3529410000000013,"midi":48,"time":58.941147,"velocity":0.3937007874015748},{"duration":0.3529410000000013,"midi":36,"time":58.941147,"velocity":0.3937007874015748},{"duration":0.3529410000000013,"midi":43,"time":58.941147,"velocity":0.3937007874015748},{"duration":0.3529410000000013,"midi":50,"time":59.294088,"velocity":0.3937007874015748},{"duration":0.3529410000000013,"midi":45,"time":59.294088,"velocity":0.3937007874015748},{"duration":0.3529410000000013,"midi":38,"time":59.294088,"velocity":0.3937007874015748},{"duration":0.3529409999999942,"midi":50,"time":59.647029,"velocity":0.3937007874015748},{"duration":0.3529409999999942,"midi":38,"time":59.647029,"velocity":0.3937007874015748},{"duration":0.3529409999999942,"midi":45,"time":59.647029,"velocity":0.3937007874015748},{"duration":0.17647050000000064,"midi":38,"time":60.1764405,"velocity":0.3937007874015748},{"duration":0.17647050000000064,"midi":45,"time":60.1764405,"velocity":0.3937007874015748},{"duration":0.17647050000000064,"midi":50,"time":60.1764405,"velocity":0.3937007874015748},{"duration":0.3529410000000013,"midi":38,"time":60.352911,"velocity":0.3937007874015748},{"duration":0.3529410000000013,"midi":45,"time":60.352911,"velocity":0.3937007874015748},{"duration":0.3529410000000013,"midi":50,"time":60.352911,"velocity":0.3937007874015748},{"duration":0.3529410000000013,"midi":50,"time":60.705852,"velocity":0.3937007874015748},{"duration":0.3529410000000013,"midi":45,"time":60.705852,"velocity":0.3937007874015748},{"duration":0.3529410000000013,"midi":38,"time":60.705852,"velocity":0.3937007874015748},{"duration":0.3529410000000013,"midi":45,"time":61.058793,"velocity":0.3937007874015748},{"duration":0.3529410000000013,"midi":38,"time":61.058793,"velocity":0.3937007874015748},{"duration":0.3529410000000013,"midi":50,"time":61.058793,"velocity":0.3937007874015748},{"duration":0.17647050000000064,"midi":50,"time":61.5882045,"velocity":0.3937007874015748},{"duration":0.17647050000000064,"midi":45,"time":61.5882045,"velocity":0.3937007874015748},{"duration":0.17647050000000064,"midi":38,"time":61.5882045,"velocity":0.3937007874015748},{"duration":0.3529409999999942,"midi":38,"time":61.764675000000004,"velocity":0.3937007874015748},{"duration":0.3529409999999942,"midi":45,"time":61.764675000000004,"velocity":0.3937007874015748},{"duration":0.3529409999999942,"midi":50,"time":61.764675000000004,"velocity":0.3937007874015748},{"duration":0.3529410000000013,"midi":51,"time":62.117616,"velocity":0.3937007874015748},{"duration":0.3529410000000013,"midi":39,"time":62.117616,"velocity":0.3937007874015748},{"duration":0.3529410000000013,"midi":46,"time":62.117616,"velocity":0.3937007874015748},{"duration":0.3529410000000013,"midi":51,"time":62.470557,"velocity":0.3937007874015748},{"duration":0.3529410000000013,"midi":46,"time":62.470557,"velocity":0.3937007874015748},{"duration":0.3529410000000013,"midi":39,"time":62.470557,"velocity":0.3937007874015748},{"duration":0.17647050000000064,"midi":51,"time":62.9999685,"velocity":0.3937007874015748},{"duration":0.17647050000000064,"midi":39,"time":62.9999685,"velocity":0.3937007874015748},{"duration":0.17647050000000064,"midi":46,"time":62.9999685,"velocity":0.3937007874015748},{"duration":0.3529410000000013,"midi":46,"time":63.176439,"velocity":0.3937007874015748},{"duration":0.3529410000000013,"midi":51,"time":63.176439,"velocity":0.3937007874015748},{"duration":0.3529410000000013,"midi":39,"time":63.176439,"velocity":0.3937007874015748},{"duration":0.3529409999999942,"midi":51,"time":63.52938,"velocity":0.3937007874015748},{"duration":0.3529409999999942,"midi":39,"time":63.52938,"velocity":0.3937007874015748},{"duration":0.3529409999999942,"midi":46,"time":63.52938,"velocity":0.3937007874015748},{"duration":0.3529410000000084,"midi":46,"time":63.882321,"velocity":0.3937007874015748},{"duration":0.3529410000000084,"midi":51,"time":63.882321,"velocity":0.3937007874015748},{"duration":0.3529410000000084,"midi":39,"time":63.882321,"velocity":0.3937007874015748},{"duration":0.17647050000000775,"midi":39,"time":64.4117325,"velocity":0.3937007874015748},{"duration":0.17647050000000775,"midi":46,"time":64.4117325,"velocity":0.3937007874015748},{"duration":0.17647050000000775,"midi":51,"time":64.4117325,"velocity":0.3937007874015748},{"duration":0.35294099999998707,"midi":46,"time":64.58820300000001,"velocity":0.3937007874015748},{"duration":0.35294099999998707,"midi":51,"time":64.58820300000001,"velocity":0.3937007874015748},{"duration":0.35294099999998707,"midi":39,"time":64.58820300000001,"velocity":0.3937007874015748},{"duration":0.3529410000000013,"midi":53,"time":64.941144,"velocity":0.3937007874015748},{"duration":0.3529410000000013,"midi":41,"time":64.941144,"velocity":0.3937007874015748},{"duration":0.3529410000000013,"midi":48,"time":64.941144,"velocity":0.3937007874015748},{"duration":0.3529410000000013,"midi":53,"time":65.294085,"velocity":0.3937007874015748},{"duration":0.3529410000000013,"midi":41,"time":65.294085,"velocity":0.3937007874015748},{"duration":0.3529410000000013,"midi":48,"time":65.294085,"velocity":0.3937007874015748},{"duration":0.17647049999999354,"midi":53,"time":65.8234965,"velocity":0.3937007874015748},{"duration":0.17647049999999354,"midi":41,"time":65.8234965,"velocity":0.3937007874015748},{"duration":0.17647049999999354,"midi":48,"time":65.8234965,"velocity":0.3937007874015748},{"duration":0.3529410000000013,"midi":53,"time":65.999967,"velocity":0.3937007874015748},{"duration":0.3529410000000013,"midi":48,"time":65.999967,"velocity":0.3937007874015748},{"duration":0.3529410000000013,"midi":41,"time":65.999967,"velocity":0.3937007874015748},{"duration":0.3529410000000013,"midi":48,"time":67.764672,"velocity":0.3937007874015748},{"duration":0.3529410000000013,"midi":36,"time":67.764672,"velocity":0.3937007874015748},{"duration":0.3529410000000013,"midi":36,"time":68.117613,"velocity":0.3937007874015748},{"duration":0.3529410000000013,"midi":48,"time":68.117613,"velocity":0.3937007874015748},{"duration":0.17647049999999354,"midi":36,"time":68.6470245,"velocity":0.3937007874015748},{"duration":0.17647049999999354,"midi":48,"time":68.6470245,"velocity":0.3937007874015748},{"duration":0.3529410000000013,"midi":48,"time":68.823495,"velocity":0.3937007874015748},{"duration":0.3529410000000013,"midi":36,"time":68.823495,"velocity":0.3937007874015748},{"duration":0.3529410000000013,"midi":48,"time":69.176436,"velocity":0.3937007874015748},{"duration":0.3529410000000013,"midi":36,"time":69.176436,"velocity":0.3937007874015748},{"duration":0.3529410000000013,"midi":48,"time":69.529377,"velocity":0.3937007874015748},{"duration":0.3529410000000013,"midi":36,"time":69.529377,"velocity":0.3937007874015748},{"duration":0.17647049999999354,"midi":36,"time":70.0587885,"velocity":0.3937007874015748},{"duration":0.17647049999999354,"midi":48,"time":70.0587885,"velocity":0.3937007874015748},{"duration":0.3529410000000013,"midi":36,"time":70.235259,"velocity":0.3937007874015748},{"duration":0.3529410000000013,"midi":48,"time":70.235259,"velocity":0.3937007874015748},{"duration":0.3529410000000013,"midi":50,"time":70.5882,"velocity":0.3937007874015748},{"duration":0.3529410000000013,"midi":38,"time":70.5882,"velocity":0.3937007874015748},{"duration":0.3529410000000013,"midi":38,"time":70.941141,"velocity":0.3937007874015748},{"duration":0.3529410000000013,"midi":50,"time":70.941141,"velocity":0.3937007874015748},{"duration":0.17647050000000775,"midi":38,"time":71.4705525,"velocity":0.3937007874015748},{"duration":0.17647050000000775,"midi":50,"time":71.4705525,"velocity":0.3937007874015748},{"duration":0.3529410000000013,"midi":50,"time":71.647023,"velocity":0.3937007874015748},{"duration":0.3529410000000013,"midi":38,"time":71.647023,"velocity":0.3937007874015748},{"duration":0.3529410000000013,"midi":50,"time":71.999964,"velocity":0.3937007874015748},{"duration":0.3529410000000013,"midi":38,"time":71.999964,"velocity":0.3937007874015748},{"duration":0.35294099999998707,"midi":50,"time":72.352905,"velocity":0.3937007874015748},{"duration":0.35294099999998707,"midi":38,"time":72.352905,"velocity":0.3937007874015748},{"duration":0.17647049999999354,"midi":38,"time":72.8823165,"velocity":0.3937007874015748},{"duration":0.17647049999999354,"midi":50,"time":72.8823165,"velocity":0.3937007874015748},{"duration":0.3529410000000013,"midi":38,"time":73.058787,"velocity":0.3937007874015748},{"duration":0.3529410000000013,"midi":50,"time":73.058787,"velocity":0.3937007874015748},{"duration":0.3529410000000013,"midi":51,"time":73.411728,"velocity":0.3937007874015748},{"duration":0.3529410000000013,"midi":39,"time":73.411728,"velocity":0.3937007874015748},{"duration":0.3529410000000013,"midi":39,"time":73.764669,"velocity":0.3937007874015748},{"duration":0.3529410000000013,"midi":51,"time":73.764669,"velocity":0.3937007874015748},{"duration":0.17647049999999354,"midi":51,"time":74.2940805,"velocity":0.3937007874015748},{"duration":0.17647049999999354,"midi":39,"time":74.2940805,"velocity":0.3937007874015748},{"duration":0.3529410000000013,"midi":51,"time":74.470551,"velocity":0.3937007874015748},{"duration":0.3529410000000013,"midi":39,"time":74.470551,"velocity":0.3937007874015748},{"duration":0.3529410000000013,"midi":51,"time":74.823492,"velocity":0.3937007874015748},{"duration":0.3529410000000013,"midi":39,"time":74.823492,"velocity":0.3937007874015748},{"duration":0.3529410000000013,"midi":51,"time":75.176433,"velocity":0.3937007874015748},{"duration":0.3529410000000013,"midi":39,"time":75.176433,"velocity":0.3937007874015748},{"duration":0.17647050000000775,"midi":39,"time":75.7058445,"velocity":0.3937007874015748},{"duration":0.17647050000000775,"midi":51,"time":75.7058445,"velocity":0.3937007874015748},{"duration":0.3529410000000013,"midi":39,"time":75.882315,"velocity":0.3937007874015748},{"duration":0.3529410000000013,"midi":51,"time":75.882315,"velocity":0.3937007874015748},{"duration":0.3529410000000013,"midi":41,"time":76.235256,"velocity":0.3937007874015748},{"duration":0.3529410000000013,"midi":53,"time":76.235256,"velocity":0.3937007874015748},{"duration":0.35294099999998707,"midi":41,"time":76.58819700000001,"velocity":0.3937007874015748},{"duration":0.35294099999998707,"midi":53,"time":76.58819700000001,"velocity":0.3937007874015748},{"duration":0.17647049999999354,"midi":53,"time":77.1176085,"velocity":0.3937007874015748},{"duration":0.17647049999999354,"midi":41,"time":77.1176085,"velocity":0.3937007874015748},{"duration":0.3529410000000013,"midi":53,"time":77.294079,"velocity":0.3937007874015748},{"duration":0.3529410000000013,"midi":41,"time":77.294079,"velocity":0.3937007874015748},{"duration":0.3529410000000013,"midi":43,"time":77.64702,"velocity":0.3937007874015748},{"duration":0.3529410000000013,"midi":55,"time":77.64702,"velocity":0.3937007874015748},{"duration":0.3529410000000013,"midi":43,"time":77.999961,"velocity":0.3937007874015748},{"duration":0.3529410000000013,"midi":55,"time":77.999961,"velocity":0.3937007874015748},{"duration":0.17647049999999354,"midi":43,"time":78.52937250000001,"velocity":0.3937007874015748},{"duration":0.17647049999999354,"midi":55,"time":78.52937250000001,"velocity":0.3937007874015748},{"duration":0.3529410000000013,"midi":55,"time":78.705843,"velocity":0.3937007874015748},{"duration":0.3529410000000013,"midi":43,"time":78.705843,"velocity":0.3937007874015748},{"duration":0.17647049999999354,"midi":48,"time":79.058784,"velocity":0.3937007874015748},{"duration":0.17647049999999354,"midi":36,"time":79.058784,"velocity":0.3937007874015748},{"duration":0.17647049999999354,"midi":43,"time":79.058784,"velocity":0.3937007874015748},{"duration":0.17647050000000775,"midi":43,"time":79.2352545,"velocity":0.3937007874015748},{"duration":0.17647050000000775,"midi":36,"time":79.2352545,"velocity":0.3937007874015748},{"duration":0.17647050000000775,"midi":48,"time":79.2352545,"velocity":0.3937007874015748},{"duration":0.3529410000000013,"midi":48,"time":79.411725,"velocity":0.3937007874015748},{"duration":0.3529410000000013,"midi":43,"time":79.411725,"velocity":0.3937007874015748},{"duration":0.3529410000000013,"midi":36,"time":79.411725,"velocity":0.3937007874015748},{"duration":0.17647049999999354,"midi":48,"time":79.764666,"velocity":0.3937007874015748},{"duration":0.17647049999999354,"midi":36,"time":79.764666,"velocity":0.3937007874015748},{"duration":0.17647049999999354,"midi":43,"time":79.764666,"velocity":0.3937007874015748},{"duration":0.3529410000000013,"midi":43,"time":79.9411365,"velocity":0.3937007874015748},{"duration":0.3529410000000013,"midi":48,"time":79.9411365,"velocity":0.3937007874015748},{"duration":0.3529410000000013,"midi":36,"time":79.9411365,"velocity":0.3937007874015748},{"duration":0.17647050000000775,"midi":48,"time":80.2940775,"velocity":0.3937007874015748},{"duration":0.17647050000000775,"midi":43,"time":80.2940775,"velocity":0.3937007874015748},{"duration":0.17647050000000775,"midi":36,"time":80.2940775,"velocity":0.3937007874015748},{"duration":0.17647049999999354,"midi":48,"time":80.47054800000001,"velocity":0.3937007874015748},{"duration":0.17647049999999354,"midi":36,"time":80.47054800000001,"velocity":0.3937007874015748},{"duration":0.17647049999999354,"midi":43,"time":80.47054800000001,"velocity":0.3937007874015748},{"duration":0.17647049999999354,"midi":48,"time":80.6470185,"velocity":0.3937007874015748},{"duration":0.17647049999999354,"midi":43,"time":80.6470185,"velocity":0.3937007874015748},{"duration":0.17647049999999354,"midi":36,"time":80.6470185,"velocity":0.3937007874015748},{"duration":0.3529410000000013,"midi":48,"time":80.823489,"velocity":0.3937007874015748},{"duration":0.3529410000000013,"midi":36,"time":80.823489,"velocity":0.3937007874015748},{"duration":0.3529410000000013,"midi":43,"time":80.823489,"velocity":0.3937007874015748},{"duration":0.17647050000000775,"midi":43,"time":81.17643,"velocity":0.3937007874015748},{"duration":0.17647050000000775,"midi":48,"time":81.17643,"velocity":0.3937007874015748},{"duration":0.17647050000000775,"midi":36,"time":81.17643,"velocity":0.3937007874015748},{"duration":0.3529410000000013,"midi":36,"time":81.3529005,"velocity":0.3937007874015748},{"duration":0.3529410000000013,"midi":48,"time":81.3529005,"velocity":0.3937007874015748},{"duration":0.3529410000000013,"midi":43,"time":81.3529005,"velocity":0.3937007874015748},{"duration":0.17647049999999354,"midi":43,"time":81.7058415,"velocity":0.3937007874015748},{"duration":0.17647049999999354,"midi":48,"time":81.7058415,"velocity":0.3937007874015748},{"duration":0.17647049999999354,"midi":36,"time":81.7058415,"velocity":0.3937007874015748},{"duration":0.17647050000000775,"midi":45,"time":81.882312,"velocity":0.3937007874015748},{"duration":0.17647050000000775,"midi":50,"time":81.882312,"velocity":0.3937007874015748},{"duration":0.17647050000000775,"midi":38,"time":81.882312,"velocity":0.3937007874015748},{"duration":0.17647049999999354,"midi":50,"time":82.0587825,"velocity":0.3937007874015748},{"duration":0.17647049999999354,"midi":38,"time":82.0587825,"velocity":0.3937007874015748},{"duration":0.17647049999999354,"midi":45,"time":82.0587825,"velocity":0.3937007874015748},{"duration":0.3529410000000013,"midi":50,"time":82.235253,"velocity":0.3937007874015748},{"duration":0.3529410000000013,"midi":45,"time":82.235253,"velocity":0.3937007874015748},{"duration":0.3529410000000013,"midi":38,"time":82.235253,"velocity":0.3937007874015748},{"duration":0.17647049999999354,"midi":45,"time":82.588194,"velocity":0.3937007874015748},{"duration":0.17647049999999354,"midi":50,"time":82.588194,"velocity":0.3937007874015748},{"duration":0.17647049999999354,"midi":38,"time":82.588194,"velocity":0.3937007874015748},{"duration":0.3529410000000013,"midi":50,"time":82.7646645,"velocity":0.3937007874015748},{"duration":0.3529410000000013,"midi":38,"time":82.7646645,"velocity":0.3937007874015748},{"duration":0.3529410000000013,"midi":45,"time":82.7646645,"velocity":0.3937007874015748},{"duration":0.17647050000000775,"midi":45,"time":83.1176055,"velocity":0.3937007874015748},{"duration":0.17647050000000775,"midi":50,"time":83.1176055,"velocity":0.3937007874015748},{"duration":0.17647050000000775,"midi":38,"time":83.1176055,"velocity":0.3937007874015748},{"duration":0.17647049999999354,"midi":38,"time":83.294076,"velocity":0.3937007874015748},{"duration":0.17647049999999354,"midi":50,"time":83.294076,"velocity":0.3937007874015748},{"duration":0.17647049999999354,"midi":45,"time":83.294076,"velocity":0.3937007874015748},{"duration":0.17647050000000775,"midi":45,"time":83.4705465,"velocity":0.3937007874015748},{"duration":0.17647050000000775,"midi":38,"time":83.4705465,"velocity":0.3937007874015748},{"duration":0.3529410000000013,"midi":50,"time":83.4705465,"velocity":0.3937007874015748},{"duration":0.3529410000000013,"midi":45,"time":83.647017,"velocity":0.3937007874015748},{"duration":0.3529410000000013,"midi":38,"time":83.647017,"velocity":0.3937007874015748},{"duration":0.17647050000000775,"midi":50,"time":83.8234875,"velocity":0.3937007874015748},{"duration":0.17647049999999354,"midi":50,"time":83.999958,"velocity":0.3937007874015748},{"duration":0.17647049999999354,"midi":38,"time":83.999958,"velocity":0.3937007874015748},{"duration":0.17647049999999354,"midi":45,"time":83.999958,"velocity":0.3937007874015748},{"duration":0.3529410000000013,"midi":45,"time":84.1764285,"velocity":0.3937007874015748},{"duration":0.3529410000000013,"midi":50,"time":84.1764285,"velocity":0.3937007874015748},{"duration":0.3529410000000013,"midi":38,"time":84.1764285,"velocity":0.3937007874015748},{"duration":0.17647049999999354,"midi":50,"time":84.5293695,"velocity":0.3937007874015748},{"duration":0.17647049999999354,"midi":38,"time":84.5293695,"velocity":0.3937007874015748},{"duration":0.17647049999999354,"midi":45,"time":84.5293695,"velocity":0.3937007874015748},{"duration":0.17647050000000775,"midi":51,"time":84.70584,"velocity":0.3937007874015748},{"duration":0.17647050000000775,"midi":46,"time":84.70584,"velocity":0.3937007874015748},{"duration":0.17647050000000775,"midi":39,"time":84.70584,"velocity":0.3937007874015748},{"duration":0.17647049999999354,"midi":39,"time":84.8823105,"velocity":0.3937007874015748},{"duration":0.17647049999999354,"midi":46,"time":84.8823105,"velocity":0.3937007874015748},{"duration":0.17647049999999354,"midi":51,"time":84.8823105,"velocity":0.3937007874015748},{"duration":0.3529410000000013,"midi":46,"time":85.058781,"velocity":0.3937007874015748},{"duration":0.3529410000000013,"midi":51,"time":85.058781,"velocity":0.3937007874015748},{"duration":0.3529410000000013,"midi":39,"time":85.058781,"velocity":0.3937007874015748},{"duration":0.17647050000000775,"midi":39,"time":85.411722,"velocity":0.3937007874015748},{"duration":0.17647050000000775,"midi":51,"time":85.411722,"velocity":0.3937007874015748},{"duration":0.17647050000000775,"midi":46,"time":85.411722,"velocity":0.3937007874015748},{"duration":0.3529410000000013,"midi":51,"time":85.5881925,"velocity":0.3937007874015748},{"duration":0.3529410000000013,"midi":39,"time":85.5881925,"velocity":0.3937007874015748},{"duration":0.3529410000000013,"midi":46,"time":85.5881925,"velocity":0.3937007874015748},{"duration":0.17647049999999354,"midi":39,"time":85.9411335,"velocity":0.3937007874015748},{"duration":0.17647049999999354,"midi":46,"time":85.9411335,"velocity":0.3937007874015748},{"duration":0.17647049999999354,"midi":51,"time":85.9411335,"velocity":0.3937007874015748},{"duration":0.17647050000000775,"midi":46,"time":86.117604,"velocity":0.3937007874015748},{"duration":0.17647050000000775,"midi":51,"time":86.117604,"velocity":0.3937007874015748},{"duration":0.17647050000000775,"midi":39,"time":86.117604,"velocity":0.3937007874015748},{"duration":0.17647049999999354,"midi":46,"time":86.29407450000001,"velocity":0.3937007874015748},{"duration":0.17647049999999354,"midi":39,"time":86.29407450000001,"velocity":0.3937007874015748},{"duration":0.17647049999999354,"midi":51,"time":86.29407450000001,"velocity":0.3937007874015748},{"duration":0.3529410000000013,"midi":51,"time":86.470545,"velocity":0.3937007874015748},{"duration":0.3529410000000013,"midi":46,"time":86.470545,"velocity":0.3937007874015748},{"duration":0.3529410000000013,"midi":39,"time":86.470545,"velocity":0.3937007874015748},{"duration":0.17647049999999354,"midi":39,"time":86.823486,"velocity":0.3937007874015748},{"duration":0.17647049999999354,"midi":51,"time":86.823486,"velocity":0.3937007874015748},{"duration":0.17647049999999354,"midi":46,"time":86.823486,"velocity":0.3937007874015748},{"duration":0.3529410000000013,"midi":51,"time":86.9999565,"velocity":0.3937007874015748},{"duration":0.3529410000000013,"midi":39,"time":86.9999565,"velocity":0.3937007874015748},{"duration":0.3529410000000013,"midi":46,"time":86.9999565,"velocity":0.3937007874015748},{"duration":0.17647050000000775,"midi":46,"time":87.3528975,"velocity":0.3937007874015748},{"duration":0.17647050000000775,"midi":39,"time":87.3528975,"velocity":0.3937007874015748},{"duration":0.17647050000000775,"midi":51,"time":87.3528975,"velocity":0.3937007874015748},{"duration":0.17647049999999354,"midi":41,"time":87.529368,"velocity":0.3937007874015748},{"duration":0.17647049999999354,"midi":53,"time":87.529368,"velocity":0.3937007874015748},{"duration":0.17647049999999354,"midi":48,"time":87.529368,"velocity":0.3937007874015748},{"duration":0.17647050000000775,"midi":48,"time":87.7058385,"velocity":0.3937007874015748},{"duration":0.17647050000000775,"midi":53,"time":87.7058385,"velocity":0.3937007874015748},{"duration":0.17647050000000775,"midi":41,"time":87.7058385,"velocity":0.3937007874015748},{"duration":0.3529410000000013,"midi":53,"time":87.882309,"velocity":0.3937007874015748},{"duration":0.3529410000000013,"midi":41,"time":87.882309,"velocity":0.3937007874015748},{"duration":0.3529410000000013,"midi":48,"time":87.882309,"velocity":0.3937007874015748},{"duration":0.17647049999999354,"midi":41,"time":88.23525000000001,"velocity":0.3937007874015748},{"duration":0.17647049999999354,"midi":53,"time":88.23525000000001,"velocity":0.3937007874015748},{"duration":0.17647049999999354,"midi":48,"time":88.23525000000001,"velocity":0.3937007874015748},{"duration":0.3529410000000013,"midi":48,"time":88.4117205,"velocity":0.3937007874015748},{"duration":0.3529410000000013,"midi":41,"time":88.4117205,"velocity":0.3937007874015748},{"duration":0.3529410000000013,"midi":53,"time":88.4117205,"velocity":0.3937007874015748},{"duration":0.17647049999999354,"midi":53,"time":88.7646615,"velocity":0.3937007874015748},{"duration":0.17647049999999354,"midi":41,"time":88.7646615,"velocity":0.3937007874015748},{"duration":0.17647049999999354,"midi":48,"time":88.7646615,"velocity":0.3937007874015748},{"duration":0.17647050000000775,"midi":43,"time":88.941132,"velocity":0.3937007874015748},{"duration":0.17647050000000775,"midi":55,"time":88.941132,"velocity":0.3937007874015748},{"duration":0.17647050000000775,"midi":50,"time":88.941132,"velocity":0.3937007874015748},{"duration":0.17647049999999354,"midi":55,"time":89.1176025,"velocity":0.3937007874015748},{"duration":0.17647049999999354,"midi":50,"time":89.1176025,"velocity":0.3937007874015748},{"duration":0.17647049999999354,"midi":43,"time":89.1176025,"velocity":0.3937007874015748},{"duration":0.3529410000000013,"midi":55,"time":89.294073,"velocity":0.3937007874015748},{"duration":0.3529410000000013,"midi":50,"time":89.294073,"velocity":0.3937007874015748},{"duration":0.3529410000000013,"midi":43,"time":89.294073,"velocity":0.3937007874015748},{"duration":0.17647050000000775,"midi":43,"time":89.647014,"velocity":0.3937007874015748},{"duration":0.17647050000000775,"midi":50,"time":89.647014,"velocity":0.3937007874015748},{"duration":0.17647050000000775,"midi":55,"time":89.647014,"velocity":0.3937007874015748},{"duration":0.3529410000000013,"midi":55,"time":89.8234845,"velocity":0.3937007874015748},{"duration":0.3529410000000013,"midi":43,"time":89.8234845,"velocity":0.3937007874015748},{"duration":0.3529410000000013,"midi":50,"time":89.8234845,"velocity":0.3937007874015748},{"duration":0.17647049999999354,"midi":50,"time":90.17642550000001,"velocity":0.3937007874015748},{"duration":0.17647049999999354,"midi":55,"time":90.17642550000001,"velocity":0.3937007874015748},{"duration":0.17647049999999354,"midi":43,"time":90.17642550000001,"velocity":0.3937007874015748},{"duration":0.17647049999999354,"midi":36,"time":90.352896,"velocity":0.3937007874015748},{"duration":0.17647049999999354,"midi":48,"time":90.352896,"velocity":0.3937007874015748},{"duration":0.17647049999999354,"midi":48,"time":90.352896,"velocity":0.3937007874015748},{"duration":0.17647049999999354,"midi":36,"time":90.352896,"velocity":0.3937007874015748},{"duration":0.17647050000000775,"midi":36,"time":90.5293665,"velocity":0.3937007874015748},{"duration":0.17647050000000775,"midi":36,"time":90.5293665,"velocity":0.3937007874015748},{"duration":0.17647050000000775,"midi":48,"time":90.5293665,"velocity":0.3937007874015748},{"duration":0.17647050000000775,"midi":48,"time":90.5293665,"velocity":0.3937007874015748},{"duration":0.3529410000000013,"midi":36,"time":90.705837,"velocity":0.3937007874015748},{"duration":0.3529410000000013,"midi":36,"time":90.705837,"velocity":0.3937007874015748},{"duration":0.3529410000000013,"midi":48,"time":90.705837,"velocity":0.3937007874015748},{"duration":0.3529410000000013,"midi":48,"time":90.705837,"velocity":0.3937007874015748},{"duration":0.17647049999999354,"midi":36,"time":91.058778,"velocity":0.3937007874015748},{"duration":0.17647049999999354,"midi":36,"time":91.058778,"velocity":0.3937007874015748},{"duration":0.17647049999999354,"midi":48,"time":91.058778,"velocity":0.3937007874015748},{"duration":0.17647049999999354,"midi":48,"time":91.058778,"velocity":0.3937007874015748},{"duration":0.3529410000000013,"midi":36,"time":91.2352485,"velocity":0.3937007874015748},{"duration":0.3529410000000013,"midi":36,"time":91.2352485,"velocity":0.3937007874015748},{"duration":0.3529410000000013,"midi":48,"time":91.2352485,"velocity":0.3937007874015748},{"duration":0.3529410000000013,"midi":48,"time":91.2352485,"velocity":0.3937007874015748},{"duration":0.17647050000000775,"midi":48,"time":91.5881895,"velocity":0.3937007874015748},{"duration":0.17647050000000775,"midi":48,"time":91.5881895,"velocity":0.3937007874015748},{"duration":0.17647050000000775,"midi":36,"time":91.5881895,"velocity":0.3937007874015748},{"duration":0.17647050000000775,"midi":36,"time":91.5881895,"velocity":0.3937007874015748},{"duration":0.17647049999999354,"midi":48,"time":91.76466,"velocity":0.3937007874015748},{"duration":0.17647049999999354,"midi":48,"time":91.76466,"velocity":0.3937007874015748},{"duration":0.17647049999999354,"midi":36,"time":91.76466,"velocity":0.3937007874015748},{"duration":0.17647049999999354,"midi":36,"time":91.76466,"velocity":0.3937007874015748},{"duration":0.3529410000000013,"midi":48,"time":91.9411305,"velocity":0.3937007874015748},{"duration":0.3529410000000013,"midi":36,"time":91.9411305,"velocity":0.3937007874015748},{"duration":0.3529410000000013,"midi":48,"time":91.9411305,"velocity":0.3937007874015748},{"duration":0.3529410000000013,"midi":36,"time":91.9411305,"velocity":0.3937007874015748},{"duration":0.17647049999999354,"midi":36,"time":92.2940715,"velocity":0.3937007874015748},{"duration":0.17647049999999354,"midi":36,"time":92.2940715,"velocity":0.3937007874015748},{"duration":0.17647049999999354,"midi":48,"time":92.2940715,"velocity":0.3937007874015748},{"duration":0.17647049999999354,"midi":48,"time":92.2940715,"velocity":0.3937007874015748},{"duration":0.17647050000000775,"midi":48,"time":92.470542,"velocity":0.3937007874015748},{"duration":0.17647050000000775,"midi":36,"time":92.470542,"velocity":0.3937007874015748},{"duration":0.17647050000000775,"midi":36,"time":92.470542,"velocity":0.3937007874015748},{"duration":0.17647050000000775,"midi":48,"time":92.470542,"velocity":0.3937007874015748},{"duration":0.3529410000000013,"midi":36,"time":92.6470125,"velocity":0.3937007874015748},{"duration":0.3529410000000013,"midi":36,"time":92.6470125,"velocity":0.3937007874015748},{"duration":0.3529410000000013,"midi":48,"time":92.6470125,"velocity":0.3937007874015748},{"duration":0.3529410000000013,"midi":48,"time":92.6470125,"velocity":0.3937007874015748},{"duration":0.17647049999999354,"midi":48,"time":92.9999535,"velocity":0.3937007874015748},{"duration":0.17647049999999354,"midi":48,"time":92.9999535,"velocity":0.3937007874015748},{"duration":0.17647049999999354,"midi":36,"time":92.9999535,"velocity":0.3937007874015748},{"duration":0.17647049999999354,"midi":36,"time":92.9999535,"velocity":0.3937007874015748},{"duration":0.17647050000000775,"midi":38,"time":93.176424,"velocity":0.3937007874015748},{"duration":0.17647050000000775,"midi":50,"time":93.176424,"velocity":0.3937007874015748},{"duration":0.17647050000000775,"midi":38,"time":93.176424,"velocity":0.3937007874015748},{"duration":0.17647050000000775,"midi":50,"time":93.176424,"velocity":0.3937007874015748},{"duration":0.17647049999999354,"midi":38,"time":93.3528945,"velocity":0.3937007874015748},{"duration":0.17647049999999354,"midi":50,"time":93.3528945,"velocity":0.3937007874015748},{"duration":0.17647049999999354,"midi":38,"time":93.3528945,"velocity":0.3937007874015748},{"duration":0.17647049999999354,"midi":50,"time":93.3528945,"velocity":0.3937007874015748},{"duration":0.3529410000000013,"midi":38,"time":93.529365,"velocity":0.3937007874015748},{"duration":0.3529410000000013,"midi":50,"time":93.529365,"velocity":0.3937007874015748},{"duration":0.3529410000000013,"midi":38,"time":93.529365,"velocity":0.3937007874015748},{"duration":0.3529410000000013,"midi":50,"time":93.529365,"velocity":0.3937007874015748},{"duration":0.17647050000000775,"midi":38,"time":93.882306,"velocity":0.3937007874015748},{"duration":0.17647050000000775,"midi":38,"time":93.882306,"velocity":0.3937007874015748},{"duration":0.17647050000000775,"midi":50,"time":93.882306,"velocity":0.3937007874015748},{"duration":0.17647050000000775,"midi":50,"time":93.882306,"velocity":0.3937007874015748},{"duration":0.35294099999998707,"midi":38,"time":94.05877650000001,"velocity":0.3937007874015748},{"duration":0.35294099999998707,"midi":50,"time":94.05877650000001,"velocity":0.3937007874015748},{"duration":0.35294099999998707,"midi":50,"time":94.05877650000001,"velocity":0.3937007874015748},{"duration":0.35294099999998707,"midi":38,"time":94.05877650000001,"velocity":0.3937007874015748},{"duration":0.17647050000000775,"midi":38,"time":94.4117175,"velocity":0.3937007874015748},{"duration":0.17647050000000775,"midi":38,"time":94.4117175,"velocity":0.3937007874015748},{"duration":0.17647050000000775,"midi":50,"time":94.4117175,"velocity":0.3937007874015748},{"duration":0.17647050000000775,"midi":50,"time":94.4117175,"velocity":0.3937007874015748},{"duration":0.17647049999999354,"midi":38,"time":94.588188,"velocity":0.3937007874015748},{"duration":0.17647049999999354,"midi":38,"time":94.588188,"velocity":0.3937007874015748},{"duration":0.17647049999999354,"midi":50,"time":94.588188,"velocity":0.3937007874015748},{"duration":0.17647049999999354,"midi":50,"time":94.588188,"velocity":0.3937007874015748},{"duration":0.3529410000000013,"midi":50,"time":94.7646585,"velocity":0.3937007874015748},{"duration":0.3529410000000013,"midi":38,"time":94.7646585,"velocity":0.3937007874015748},{"duration":0.3529410000000013,"midi":38,"time":94.7646585,"velocity":0.3937007874015748},{"duration":0.3529410000000013,"midi":50,"time":94.7646585,"velocity":0.3937007874015748},{"duration":0.17647050000000775,"midi":50,"time":95.1175995,"velocity":0.3937007874015748},{"duration":0.17647050000000775,"midi":38,"time":95.1175995,"velocity":0.3937007874015748},{"duration":0.17647050000000775,"midi":38,"time":95.1175995,"velocity":0.3937007874015748},{"duration":0.17647050000000775,"midi":50,"time":95.1175995,"velocity":0.3937007874015748},{"duration":0.17647049999999354,"midi":50,"time":95.29407,"velocity":0.3937007874015748},{"duration":0.17647049999999354,"midi":50,"time":95.29407,"velocity":0.3937007874015748},{"duration":0.17647049999999354,"midi":38,"time":95.29407,"velocity":0.3937007874015748},{"duration":0.17647049999999354,"midi":38,"time":95.29407,"velocity":0.3937007874015748},{"duration":0.3529410000000013,"midi":50,"time":95.4705405,"velocity":0.3937007874015748},{"duration":0.3529410000000013,"midi":50,"time":95.4705405,"velocity":0.3937007874015748},{"duration":0.3529410000000013,"midi":38,"time":95.4705405,"velocity":0.3937007874015748},{"duration":0.3529410000000013,"midi":38,"time":95.4705405,"velocity":0.3937007874015748},{"duration":0.17647050000000775,"midi":38,"time":95.8234815,"velocity":0.3937007874015748},{"duration":0.17647050000000775,"midi":50,"time":95.8234815,"velocity":0.3937007874015748},{"duration":0.17647050000000775,"midi":50,"time":95.8234815,"velocity":0.3937007874015748},{"duration":0.17647050000000775,"midi":38,"time":95.8234815,"velocity":0.3937007874015748},{"duration":0.17647049999999354,"midi":39,"time":95.99995200000001,"velocity":0.3937007874015748},{"duration":0.17647049999999354,"midi":39,"time":95.99995200000001,"velocity":0.3937007874015748},{"duration":0.17647049999999354,"midi":51,"time":95.99995200000001,"velocity":0.3937007874015748},{"duration":0.17647049999999354,"midi":51,"time":95.99995200000001,"velocity":0.3937007874015748},{"duration":0.17647049999999354,"midi":39,"time":96.1764225,"velocity":0.3937007874015748},{"duration":0.17647049999999354,"midi":51,"time":96.1764225,"velocity":0.3937007874015748},{"duration":0.17647049999999354,"midi":51,"time":96.1764225,"velocity":0.3937007874015748},{"duration":0.17647049999999354,"midi":39,"time":96.1764225,"velocity":0.3937007874015748},{"duration":0.3529410000000013,"midi":51,"time":96.352893,"velocity":0.3937007874015748},{"duration":0.3529410000000013,"midi":39,"time":96.352893,"velocity":0.3937007874015748},{"duration":0.3529410000000013,"midi":39,"time":96.352893,"velocity":0.3937007874015748},{"duration":0.3529410000000013,"midi":51,"time":96.352893,"velocity":0.3937007874015748},{"duration":0.17647050000000775,"midi":39,"time":96.705834,"velocity":0.3937007874015748},{"duration":0.17647050000000775,"midi":51,"time":96.705834,"velocity":0.3937007874015748},{"duration":0.17647050000000775,"midi":51,"time":96.705834,"velocity":0.3937007874015748},{"duration":0.17647050000000775,"midi":39,"time":96.705834,"velocity":0.3937007874015748},{"duration":0.3529410000000013,"midi":39,"time":96.8823045,"velocity":0.3937007874015748},{"duration":0.3529410000000013,"midi":51,"time":96.8823045,"velocity":0.3937007874015748},{"duration":0.3529410000000013,"midi":51,"time":96.8823045,"velocity":0.3937007874015748},{"duration":0.3529410000000013,"midi":39,"time":96.8823045,"velocity":0.3937007874015748},{"duration":0.17647049999999354,"midi":51,"time":97.2352455,"velocity":0.3937007874015748},{"duration":0.17647049999999354,"midi":39,"time":97.2352455,"velocity":0.3937007874015748},{"duration":0.17647049999999354,"midi":51,"time":97.2352455,"velocity":0.3937007874015748},{"duration":0.17647049999999354,"midi":39,"time":97.2352455,"velocity":0.3937007874015748},{"duration":0.17647050000000775,"midi":51,"time":97.411716,"velocity":0.3937007874015748},{"duration":0.17647050000000775,"midi":39,"time":97.411716,"velocity":0.3937007874015748},{"duration":0.17647050000000775,"midi":51,"time":97.411716,"velocity":0.3937007874015748},{"duration":0.17647050000000775,"midi":39,"time":97.411716,"velocity":0.3937007874015748},{"duration":0.3529410000000013,"midi":39,"time":97.5881865,"velocity":0.3937007874015748},{"duration":0.3529410000000013,"midi":51,"time":97.5881865,"velocity":0.3937007874015748},{"duration":0.3529410000000013,"midi":51,"time":97.5881865,"velocity":0.3937007874015748},{"duration":0.3529410000000013,"midi":39,"time":97.5881865,"velocity":0.3937007874015748},{"duration":0.17647049999999354,"midi":39,"time":97.94112750000001,"velocity":0.3937007874015748},{"duration":0.17647049999999354,"midi":39,"time":97.94112750000001,"velocity":0.3937007874015748},{"duration":0.17647049999999354,"midi":51,"time":97.94112750000001,"velocity":0.3937007874015748},{"duration":0.17647049999999354,"midi":51,"time":97.94112750000001,"velocity":0.3937007874015748},{"duration":0.17647049999999354,"midi":39,"time":98.117598,"velocity":0.3937007874015748},{"duration":0.17647049999999354,"midi":51,"time":98.117598,"velocity":0.3937007874015748},{"duration":0.17647049999999354,"midi":39,"time":98.117598,"velocity":0.3937007874015748},{"duration":0.17647049999999354,"midi":51,"time":98.117598,"velocity":0.3937007874015748},{"duration":0.3529410000000013,"midi":39,"time":98.2940685,"velocity":0.3937007874015748},{"duration":0.3529410000000013,"midi":51,"time":98.2940685,"velocity":0.3937007874015748},{"duration":0.3529410000000013,"midi":39,"time":98.2940685,"velocity":0.3937007874015748},{"duration":0.3529410000000013,"midi":51,"time":98.2940685,"velocity":0.3937007874015748},{"duration":0.17647050000000775,"midi":51,"time":98.6470095,"velocity":0.3937007874015748},{"duration":0.17647050000000775,"midi":51,"time":98.6470095,"velocity":0.3937007874015748},{"duration":0.17647050000000775,"midi":39,"time":98.6470095,"velocity":0.3937007874015748},{"duration":0.17647050000000775,"midi":39,"time":98.6470095,"velocity":0.3937007874015748},{"duration":0.17647049999999354,"midi":41,"time":98.82348,"velocity":0.3937007874015748},{"duration":0.17647049999999354,"midi":53,"time":98.82348,"velocity":0.3937007874015748},{"duration":0.17647049999999354,"midi":41,"time":98.82348,"velocity":0.3937007874015748},{"duration":0.17647049999999354,"midi":53,"time":98.82348,"velocity":0.3937007874015748},{"duration":0.17647050000000775,"midi":41,"time":98.9999505,"velocity":0.3937007874015748},{"duration":0.17647050000000775,"midi":53,"time":98.9999505,"velocity":0.3937007874015748},{"duration":0.17647050000000775,"midi":53,"time":98.9999505,"velocity":0.3937007874015748},{"duration":0.17647050000000775,"midi":41,"time":98.9999505,"velocity":0.3937007874015748},{"duration":0.3529410000000013,"midi":53,"time":99.176421,"velocity":0.3937007874015748},{"duration":0.3529410000000013,"midi":41,"time":99.176421,"velocity":0.3937007874015748},{"duration":0.3529410000000013,"midi":53,"time":99.176421,"velocity":0.3937007874015748},{"duration":0.3529410000000013,"midi":41,"time":99.176421,"velocity":0.3937007874015748},{"duration":0.17647049999999354,"midi":53,"time":99.529362,"velocity":0.3937007874015748},{"duration":0.17647049999999354,"midi":53,"time":99.529362,"velocity":0.3937007874015748},{"duration":0.17647049999999354,"midi":41,"time":99.529362,"velocity":0.3937007874015748},{"duration":0.17647049999999354,"midi":41,"time":99.529362,"velocity":0.3937007874015748},{"duration":0.3529410000000013,"midi":41,"time":99.7058325,"velocity":0.3937007874015748},{"duration":0.3529410000000013,"midi":53,"time":99.7058325,"velocity":0.3937007874015748},{"duration":0.3529410000000013,"midi":41,"time":99.7058325,"velocity":0.3937007874015748},{"duration":0.3529410000000013,"midi":53,"time":99.7058325,"velocity":0.3937007874015748},{"duration":0.17647049999999354,"midi":53,"time":100.0587735,"velocity":0.3937007874015748},{"duration":0.17647049999999354,"midi":53,"time":100.0587735,"velocity":0.3937007874015748},{"duration":0.17647049999999354,"midi":41,"time":100.0587735,"velocity":0.3937007874015748},{"duration":0.17647049999999354,"midi":41,"time":100.0587735,"velocity":0.3937007874015748},{"duration":0.17647050000000775,"midi":43,"time":100.235244,"velocity":0.3937007874015748},{"duration":0.17647050000000775,"midi":55,"time":100.235244,"velocity":0.3937007874015748},{"duration":0.17647050000000775,"midi":55,"time":100.235244,"velocity":0.3937007874015748},{"duration":0.17647050000000775,"midi":43,"time":100.235244,"velocity":0.3937007874015748},{"duration":0.3529410000000013,"midi":43,"time":100.4117145,"velocity":0.3937007874015748},{"duration":0.3529410000000013,"midi":55,"time":100.4117145,"velocity":0.3937007874015748},{"duration":0.3529410000000013,"midi":55,"time":100.4117145,"velocity":0.3937007874015748},{"duration":0.3529410000000013,"midi":43,"time":100.4117145,"velocity":0.3937007874015748},{"duration":0.17647049999999354,"midi":43,"time":100.7646555,"velocity":0.3937007874015748},{"duration":0.17647049999999354,"midi":55,"time":100.7646555,"velocity":0.3937007874015748},{"duration":0.17647049999999354,"midi":55,"time":100.7646555,"velocity":0.3937007874015748},{"duration":0.17647049999999354,"midi":43,"time":100.7646555,"velocity":0.3937007874015748},{"duration":0.17647050000000775,"midi":55,"time":100.941126,"velocity":0.3937007874015748},{"duration":0.17647050000000775,"midi":43,"time":100.941126,"velocity":0.3937007874015748},{"duration":0.17647050000000775,"midi":43,"time":100.941126,"velocity":0.3937007874015748},{"duration":0.17647050000000775,"midi":55,"time":100.941126,"velocity":0.3937007874015748},{"duration":0.3529410000000013,"midi":43,"time":101.1175965,"velocity":0.3937007874015748},{"duration":0.3529410000000013,"midi":55,"time":101.1175965,"velocity":0.3937007874015748},{"duration":0.3529410000000013,"midi":55,"time":101.1175965,"velocity":0.3937007874015748},{"duration":0.3529410000000013,"midi":43,"time":101.1175965,"velocity":0.3937007874015748},{"duration":0.17647049999999354,"midi":55,"time":101.4705375,"velocity":0.3937007874015748},{"duration":0.17647049999999354,"midi":55,"time":101.4705375,"velocity":0.3937007874015748},{"duration":0.17647049999999354,"midi":43,"time":101.4705375,"velocity":0.3937007874015748},{"duration":0.17647049999999354,"midi":43,"time":101.4705375,"velocity":0.3937007874015748},{"duration":0.17647050000000775,"midi":36,"time":101.647008,"velocity":0.3937007874015748},{"duration":0.17647050000000775,"midi":48,"time":101.647008,"velocity":0.3937007874015748},{"duration":0.17647050000000775,"midi":36,"time":101.647008,"velocity":0.3937007874015748},{"duration":0.17647050000000775,"midi":48,"time":101.647008,"velocity":0.3937007874015748},{"duration":0.17647049999999354,"midi":48,"time":101.82347850000001,"velocity":0.3937007874015748},{"duration":0.17647049999999354,"midi":36,"time":101.82347850000001,"velocity":0.3937007874015748},{"duration":0.17647049999999354,"midi":48,"time":101.82347850000001,"velocity":0.3937007874015748},{"duration":0.17647049999999354,"midi":36,"time":101.82347850000001,"velocity":0.3937007874015748},{"duration":0.3529410000000013,"midi":48,"time":101.999949,"velocity":0.3937007874015748},{"duration":0.3529410000000013,"midi":36,"time":101.999949,"velocity":0.3937007874015748},{"duration":0.3529410000000013,"midi":36,"time":101.999949,"velocity":0.3937007874015748},{"duration":0.3529410000000013,"midi":48,"time":101.999949,"velocity":0.3937007874015748},{"duration":0.17647049999999354,"midi":48,"time":102.35289,"velocity":0.3937007874015748},{"duration":0.17647049999999354,"midi":36,"time":102.35289,"velocity":0.3937007874015748},{"duration":0.17647049999999354,"midi":48,"time":102.35289,"velocity":0.3937007874015748},{"duration":0.17647049999999354,"midi":36,"time":102.35289,"velocity":0.3937007874015748},{"duration":0.3529410000000013,"midi":36,"time":102.5293605,"velocity":0.3937007874015748},{"duration":0.3529410000000013,"midi":48,"time":102.5293605,"velocity":0.3937007874015748},{"duration":0.3529410000000013,"midi":36,"time":102.5293605,"velocity":0.3937007874015748},{"duration":0.3529410000000013,"midi":48,"time":102.5293605,"velocity":0.3937007874015748},{"duration":0.17647050000000775,"midi":48,"time":102.8823015,"velocity":0.3937007874015748},{"duration":0.17647050000000775,"midi":48,"time":102.8823015,"velocity":0.3937007874015748},{"duration":0.17647050000000775,"midi":36,"time":102.8823015,"velocity":0.3937007874015748},{"duration":0.17647050000000775,"midi":36,"time":102.8823015,"velocity":0.3937007874015748},{"duration":0.17647049999999354,"midi":48,"time":103.058772,"velocity":0.3937007874015748},{"duration":0.17647049999999354,"midi":36,"time":103.058772,"velocity":0.3937007874015748},{"duration":0.17647049999999354,"midi":48,"time":103.058772,"velocity":0.3937007874015748},{"duration":0.17647049999999354,"midi":36,"time":103.058772,"velocity":0.3937007874015748},{"duration":0.3529410000000013,"midi":48,"time":103.2352425,"velocity":0.3937007874015748},{"duration":0.3529410000000013,"midi":48,"time":103.2352425,"velocity":0.3937007874015748},{"duration":0.3529410000000013,"midi":36,"time":103.2352425,"velocity":0.3937007874015748},{"duration":0.3529410000000013,"midi":36,"time":103.2352425,"velocity":0.3937007874015748},{"duration":0.17647050000000775,"midi":36,"time":103.5881835,"velocity":0.3937007874015748},{"duration":0.17647050000000775,"midi":48,"time":103.5881835,"velocity":0.3937007874015748},{"duration":0.17647050000000775,"midi":36,"time":103.5881835,"velocity":0.3937007874015748},{"duration":0.17647050000000775,"midi":48,"time":103.5881835,"velocity":0.3937007874015748},{"duration":0.17647049999999354,"midi":48,"time":103.76465400000001,"velocity":0.3937007874015748},{"duration":0.17647049999999354,"midi":36,"time":103.76465400000001,"velocity":0.3937007874015748},{"duration":0.17647049999999354,"midi":48,"time":103.76465400000001,"velocity":0.3937007874015748},{"duration":0.17647049999999354,"midi":36,"time":103.76465400000001,"velocity":0.3937007874015748},{"duration":0.3529410000000013,"midi":36,"time":103.9411245,"velocity":0.3937007874015748},{"duration":0.3529410000000013,"midi":48,"time":103.9411245,"velocity":0.3937007874015748},{"duration":0.3529410000000013,"midi":48,"time":103.9411245,"velocity":0.3937007874015748},{"duration":0.3529410000000013,"midi":36,"time":103.9411245,"velocity":0.3937007874015748},{"duration":0.17647049999999354,"midi":36,"time":104.2940655,"velocity":0.3937007874015748},{"duration":0.17647049999999354,"midi":36,"time":104.2940655,"velocity":0.3937007874015748},{"duration":0.17647049999999354,"midi":48,"time":104.2940655,"velocity":0.3937007874015748},{"duration":0.17647049999999354,"midi":48,"time":104.2940655,"velocity":0.3937007874015748},{"duration":0.17647050000000775,"midi":50,"time":104.470536,"velocity":0.3937007874015748},{"duration":0.17647050000000775,"midi":38,"time":104.470536,"velocity":0.3937007874015748},{"duration":0.17647050000000775,"midi":38,"time":104.470536,"velocity":0.3937007874015748},{"duration":0.17647050000000775,"midi":50,"time":104.470536,"velocity":0.3937007874015748},{"duration":0.17647049999999354,"midi":38,"time":104.6470065,"velocity":0.3937007874015748},{"duration":0.17647049999999354,"midi":50,"time":104.6470065,"velocity":0.3937007874015748},{"duration":0.17647049999999354,"midi":38,"time":104.6470065,"velocity":0.3937007874015748},{"duration":0.17647049999999354,"midi":50,"time":104.6470065,"velocity":0.3937007874015748},{"duration":0.3529410000000013,"midi":50,"time":104.823477,"velocity":0.3937007874015748},{"duration":0.3529410000000013,"midi":38,"time":104.823477,"velocity":0.3937007874015748},{"duration":0.3529410000000013,"midi":50,"time":104.823477,"velocity":0.3937007874015748},{"duration":0.3529410000000013,"midi":38,"time":104.823477,"velocity":0.3937007874015748},{"duration":0.17647050000000775,"midi":38,"time":105.176418,"velocity":0.3937007874015748},{"duration":0.17647050000000775,"midi":38,"time":105.176418,"velocity":0.3937007874015748},{"duration":0.17647050000000775,"midi":50,"time":105.176418,"velocity":0.3937007874015748},{"duration":0.17647050000000775,"midi":50,"time":105.176418,"velocity":0.3937007874015748},{"duration":0.3529410000000013,"midi":50,"time":105.3528885,"velocity":0.3937007874015748},{"duration":0.3529410000000013,"midi":38,"time":105.3528885,"velocity":0.3937007874015748},{"duration":0.3529410000000013,"midi":38,"time":105.3528885,"velocity":0.3937007874015748},{"duration":0.3529410000000013,"midi":50,"time":105.3528885,"velocity":0.3937007874015748},{"duration":0.17647049999999354,"midi":38,"time":105.70582950000001,"velocity":0.3937007874015748},{"duration":0.17647049999999354,"midi":50,"time":105.70582950000001,"velocity":0.3937007874015748},{"duration":0.17647049999999354,"midi":38,"time":105.70582950000001,"velocity":0.3937007874015748},{"duration":0.17647049999999354,"midi":50,"time":105.70582950000001,"velocity":0.3937007874015748},{"duration":0.17647050000000775,"midi":50,"time":105.8823,"velocity":0.3937007874015748},{"duration":0.17647050000000775,"midi":38,"time":105.8823,"velocity":0.3937007874015748},{"duration":0.17647050000000775,"midi":38,"time":105.8823,"velocity":0.3937007874015748},{"duration":0.17647050000000775,"midi":50,"time":105.8823,"velocity":0.3937007874015748},{"duration":0.35294099999998707,"midi":38,"time":106.05877050000001,"velocity":0.3937007874015748},{"duration":0.35294099999998707,"midi":38,"time":106.05877050000001,"velocity":0.3937007874015748},{"duration":0.35294099999998707,"midi":50,"time":106.05877050000001,"velocity":0.3937007874015748},{"duration":0.35294099999998707,"midi":50,"time":106.05877050000001,"velocity":0.3937007874015748},{"duration":0.17647050000000775,"midi":50,"time":106.4117115,"velocity":0.3937007874015748},{"duration":0.17647050000000775,"midi":38,"time":106.4117115,"velocity":0.3937007874015748},{"duration":0.17647050000000775,"midi":50,"time":106.4117115,"velocity":0.3937007874015748},{"duration":0.17647050000000775,"midi":38,"time":106.4117115,"velocity":0.3937007874015748},{"duration":0.17647049999999354,"midi":38,"time":106.588182,"velocity":0.3937007874015748},{"duration":0.17647049999999354,"midi":38,"time":106.588182,"velocity":0.3937007874015748},{"duration":0.17647049999999354,"midi":50,"time":106.588182,"velocity":0.3937007874015748},{"duration":0.17647049999999354,"midi":50,"time":106.588182,"velocity":0.3937007874015748},{"duration":0.3529410000000013,"midi":38,"time":106.7646525,"velocity":0.3937007874015748},{"duration":0.3529410000000013,"midi":50,"time":106.7646525,"velocity":0.3937007874015748},{"duration":0.3529410000000013,"midi":38,"time":106.7646525,"velocity":0.3937007874015748},{"duration":0.3529410000000013,"midi":50,"time":106.7646525,"velocity":0.3937007874015748},{"duration":0.17647050000000775,"midi":50,"time":107.1175935,"velocity":0.3937007874015748},{"duration":0.17647050000000775,"midi":38,"time":107.1175935,"velocity":0.3937007874015748},{"duration":0.17647050000000775,"midi":38,"time":107.1175935,"velocity":0.3937007874015748},{"duration":0.17647050000000775,"midi":50,"time":107.1175935,"velocity":0.3937007874015748},{"duration":0.17647049999999354,"midi":51,"time":107.294064,"velocity":0.3937007874015748},{"duration":0.17647049999999354,"midi":39,"time":107.294064,"velocity":0.3937007874015748},{"duration":0.17647049999999354,"midi":51,"time":107.294064,"velocity":0.3937007874015748},{"duration":0.17647049999999354,"midi":39,"time":107.294064,"velocity":0.3937007874015748},{"duration":0.17647050000000775,"midi":51,"time":107.4705345,"velocity":0.3937007874015748},{"duration":0.17647050000000775,"midi":39,"time":107.4705345,"velocity":0.3937007874015748},{"duration":0.17647050000000775,"midi":39,"time":107.4705345,"velocity":0.3937007874015748},{"duration":0.17647050000000775,"midi":51,"time":107.4705345,"velocity":0.3937007874015748},{"duration":0.3529410000000013,"midi":51,"time":107.64700500000001,"velocity":0.3937007874015748},{"duration":0.3529410000000013,"midi":51,"time":107.64700500000001,"velocity":0.3937007874015748},{"duration":0.3529410000000013,"midi":39,"time":107.64700500000001,"velocity":0.3937007874015748},{"duration":0.3529410000000013,"midi":39,"time":107.64700500000001,"velocity":0.3937007874015748},{"duration":0.17647049999999354,"midi":51,"time":107.99994600000001,"velocity":0.3937007874015748},{"duration":0.17647049999999354,"midi":39,"time":107.99994600000001,"velocity":0.3937007874015748},{"duration":0.17647049999999354,"midi":51,"time":107.99994600000001,"velocity":0.3937007874015748},{"duration":0.17647049999999354,"midi":39,"time":107.99994600000001,"velocity":0.3937007874015748},{"duration":0.3529410000000013,"midi":51,"time":108.1764165,"velocity":0.3937007874015748},{"duration":0.3529410000000013,"midi":39,"time":108.1764165,"velocity":0.3937007874015748},{"duration":0.3529410000000013,"midi":51,"time":108.1764165,"velocity":0.3937007874015748},{"duration":0.3529410000000013,"midi":39,"time":108.1764165,"velocity":0.3937007874015748},{"duration":0.17647049999999354,"midi":39,"time":108.5293575,"velocity":0.3937007874015748},{"duration":0.17647049999999354,"midi":51,"time":108.5293575,"velocity":0.3937007874015748},{"duration":0.17647049999999354,"midi":51,"time":108.5293575,"velocity":0.3937007874015748},{"duration":0.17647049999999354,"midi":39,"time":108.5293575,"velocity":0.3937007874015748},{"duration":0.17647050000000775,"midi":51,"time":108.705828,"velocity":0.3937007874015748},{"duration":0.17647050000000775,"midi":39,"time":108.705828,"velocity":0.3937007874015748},{"duration":0.17647050000000775,"midi":39,"time":108.705828,"velocity":0.3937007874015748},{"duration":0.17647050000000775,"midi":51,"time":108.705828,"velocity":0.3937007874015748},{"duration":0.3529410000000013,"midi":39,"time":108.8822985,"velocity":0.3937007874015748},{"duration":0.3529410000000013,"midi":39,"time":108.8822985,"velocity":0.3937007874015748},{"duration":0.3529410000000013,"midi":51,"time":108.8822985,"velocity":0.3937007874015748},{"duration":0.3529410000000013,"midi":51,"time":108.8822985,"velocity":0.3937007874015748},{"duration":0.17647049999999354,"midi":51,"time":109.2352395,"velocity":0.3937007874015748},{"duration":0.17647049999999354,"midi":39,"time":109.2352395,"velocity":0.3937007874015748},{"duration":0.17647049999999354,"midi":39,"time":109.2352395,"velocity":0.3937007874015748},{"duration":0.17647049999999354,"midi":51,"time":109.2352395,"velocity":0.3937007874015748},{"duration":0.17647050000000775,"midi":51,"time":109.41171,"velocity":0.3937007874015748},{"duration":0.17647050000000775,"midi":39,"time":109.41171,"velocity":0.3937007874015748},{"duration":0.17647050000000775,"midi":51,"time":109.41171,"velocity":0.3937007874015748},{"duration":0.17647050000000775,"midi":39,"time":109.41171,"velocity":0.3937007874015748},{"duration":0.3529410000000013,"midi":51,"time":109.5881805,"velocity":0.3937007874015748},{"duration":0.3529410000000013,"midi":39,"time":109.5881805,"velocity":0.3937007874015748},{"duration":0.3529410000000013,"midi":39,"time":109.5881805,"velocity":0.3937007874015748},{"duration":0.3529410000000013,"midi":51,"time":109.5881805,"velocity":0.3937007874015748},{"duration":0.17647049999999354,"midi":51,"time":109.94112150000001,"velocity":0.3937007874015748},{"duration":0.17647049999999354,"midi":51,"time":109.94112150000001,"velocity":0.3937007874015748},{"duration":0.17647049999999354,"midi":39,"time":109.94112150000001,"velocity":0.3937007874015748},{"duration":0.17647049999999354,"midi":39,"time":109.94112150000001,"velocity":0.3937007874015748},{"duration":0.17647049999999354,"midi":53,"time":110.117592,"velocity":0.3937007874015748},{"duration":0.17647049999999354,"midi":41,"time":110.117592,"velocity":0.3937007874015748},{"duration":0.17647049999999354,"midi":53,"time":110.117592,"velocity":0.3937007874015748},{"duration":0.17647049999999354,"midi":41,"time":110.117592,"velocity":0.3937007874015748},{"duration":0.17647050000000775,"midi":53,"time":110.2940625,"velocity":0.3937007874015748},{"duration":0.17647050000000775,"midi":53,"time":110.2940625,"velocity":0.3937007874015748},{"duration":0.17647050000000775,"midi":41,"time":110.2940625,"velocity":0.3937007874015748},{"duration":0.17647050000000775,"midi":41,"time":110.2940625,"velocity":0.3937007874015748},{"duration":0.3529410000000013,"midi":53,"time":110.470533,"velocity":0.3937007874015748},{"duration":0.3529410000000013,"midi":41,"time":110.470533,"velocity":0.3937007874015748},{"duration":0.3529410000000013,"midi":41,"time":110.470533,"velocity":0.3937007874015748},{"duration":0.3529410000000013,"midi":53,"time":110.470533,"velocity":0.3937007874015748},{"duration":0.17647049999999354,"midi":41,"time":110.823474,"velocity":0.3937007874015748},{"duration":0.17647049999999354,"midi":53,"time":110.823474,"velocity":0.3937007874015748},{"duration":0.17647049999999354,"midi":41,"time":110.823474,"velocity":0.3937007874015748},{"duration":0.17647049999999354,"midi":53,"time":110.823474,"velocity":0.3937007874015748},{"duration":0.3529410000000013,"midi":53,"time":110.9999445,"velocity":0.3937007874015748},{"duration":0.3529410000000013,"midi":53,"time":110.9999445,"velocity":0.3937007874015748},{"duration":0.3529410000000013,"midi":41,"time":110.9999445,"velocity":0.3937007874015748},{"duration":0.3529410000000013,"midi":41,"time":110.9999445,"velocity":0.3937007874015748},{"duration":0.17647050000000775,"midi":41,"time":111.3528855,"velocity":0.3937007874015748},{"duration":0.17647050000000775,"midi":53,"time":111.3528855,"velocity":0.3937007874015748},{"duration":0.17647050000000775,"midi":53,"time":111.3528855,"velocity":0.3937007874015748},{"duration":0.17647050000000775,"midi":41,"time":111.3528855,"velocity":0.3937007874015748},{"duration":0.17647049999999354,"midi":43,"time":111.529356,"velocity":0.3937007874015748},{"duration":0.17647049999999354,"midi":43,"time":111.529356,"velocity":0.3937007874015748},{"duration":0.17647049999999354,"midi":55,"time":111.529356,"velocity":0.3937007874015748},{"duration":0.17647049999999354,"midi":55,"time":111.529356,"velocity":0.3937007874015748},{"duration":0.3529410000000013,"midi":43,"time":111.7058265,"velocity":0.3937007874015748},{"duration":0.3529410000000013,"midi":43,"time":111.7058265,"velocity":0.3937007874015748},{"duration":0.3529410000000013,"midi":55,"time":111.7058265,"velocity":0.3937007874015748},{"duration":0.3529410000000013,"midi":55,"time":111.7058265,"velocity":0.3937007874015748},{"duration":0.17647049999999354,"midi":55,"time":112.0587675,"velocity":0.3937007874015748},{"duration":0.17647049999999354,"midi":55,"time":112.0587675,"velocity":0.3937007874015748},{"duration":0.17647049999999354,"midi":43,"time":112.0587675,"velocity":0.3937007874015748},{"duration":0.17647049999999354,"midi":43,"time":112.0587675,"velocity":0.3937007874015748},{"duration":0.17647050000000775,"midi":43,"time":112.235238,"velocity":0.3937007874015748},{"duration":0.17647050000000775,"midi":43,"time":112.235238,"velocity":0.3937007874015748},{"duration":0.17647050000000775,"midi":55,"time":112.235238,"velocity":0.3937007874015748},{"duration":0.17647050000000775,"midi":55,"time":112.235238,"velocity":0.3937007874015748},{"duration":0.3529410000000013,"midi":43,"time":112.4117085,"velocity":0.3937007874015748},{"duration":0.3529410000000013,"midi":43,"time":112.4117085,"velocity":0.3937007874015748},{"duration":0.3529410000000013,"midi":55,"time":112.4117085,"velocity":0.3937007874015748},{"duration":0.3529410000000013,"midi":55,"time":112.4117085,"velocity":0.3937007874015748},{"duration":0.17647049999999354,"midi":55,"time":112.7646495,"velocity":0.3937007874015748},{"duration":0.17647049999999354,"midi":43,"time":112.7646495,"velocity":0.3937007874015748},{"duration":0.17647049999999354,"midi":43,"time":112.7646495,"velocity":0.3937007874015748},{"duration":0.17647049999999354,"midi":55,"time":112.7646495,"velocity":0.3937007874015748},{"duration":0.17647050000000775,"midi":48,"time":112.94112,"velocity":0.3937007874015748},{"duration":0.17647050000000775,"midi":48,"time":112.94112,"velocity":0.3937007874015748},{"duration":0.17647050000000775,"midi":36,"time":112.94112,"velocity":0.3937007874015748},{"duration":0.17647050000000775,"midi":43,"time":112.94112,"velocity":0.3937007874015748},{"duration":0.17647050000000775,"midi":36,"time":112.94112,"velocity":0.3937007874015748},{"duration":0.17647049999999354,"midi":48,"time":113.1175905,"velocity":0.3937007874015748},{"duration":0.17647049999999354,"midi":43,"time":113.1175905,"velocity":0.3937007874015748},{"duration":0.17647049999999354,"midi":36,"time":113.1175905,"velocity":0.3937007874015748},{"duration":0.17647049999999354,"midi":36,"time":113.1175905,"velocity":0.3937007874015748},{"duration":0.17647049999999354,"midi":48,"time":113.1175905,"velocity":0.3937007874015748},{"duration":0.3529410000000013,"midi":43,"time":113.294061,"velocity":0.3937007874015748},{"duration":0.3529410000000013,"midi":48,"time":113.294061,"velocity":0.3937007874015748},{"duration":0.3529410000000013,"midi":36,"time":113.294061,"velocity":0.3937007874015748},{"duration":0.3529410000000013,"midi":36,"time":113.294061,"velocity":0.3937007874015748},{"duration":0.3529410000000013,"midi":48,"time":113.294061,"velocity":0.3937007874015748},{"duration":0.17647050000000775,"midi":48,"time":113.647002,"velocity":0.3937007874015748},{"duration":0.17647050000000775,"midi":48,"time":113.647002,"velocity":0.3937007874015748},{"duration":0.17647050000000775,"midi":36,"time":113.647002,"velocity":0.3937007874015748},{"duration":0.17647050000000775,"midi":43,"time":113.647002,"velocity":0.3937007874015748},{"duration":0.17647050000000775,"midi":36,"time":113.647002,"velocity":0.3937007874015748},{"duration":0.35294099999998707,"midi":48,"time":113.82347250000001,"velocity":0.3937007874015748},{"duration":0.35294099999998707,"midi":48,"time":113.82347250000001,"velocity":0.3937007874015748},{"duration":0.35294099999998707,"midi":36,"time":113.82347250000001,"velocity":0.3937007874015748},{"duration":0.35294099999998707,"midi":43,"time":113.82347250000001,"velocity":0.3937007874015748},{"duration":0.35294099999998707,"midi":36,"time":113.82347250000001,"velocity":0.3937007874015748},{"duration":0.17647050000000775,"midi":48,"time":114.1764135,"velocity":0.3937007874015748},{"duration":0.17647050000000775,"midi":43,"time":114.1764135,"velocity":0.3937007874015748},{"duration":0.17647050000000775,"midi":36,"time":114.1764135,"velocity":0.3937007874015748},{"duration":0.17647050000000775,"midi":48,"time":114.1764135,"velocity":0.3937007874015748},{"duration":0.17647050000000775,"midi":36,"time":114.1764135,"velocity":0.3937007874015748},{"duration":0.17647049999999354,"midi":48,"time":114.352884,"velocity":0.3937007874015748},{"duration":0.17647049999999354,"midi":36,"time":114.352884,"velocity":0.3937007874015748},{"duration":0.17647049999999354,"midi":48,"time":114.352884,"velocity":0.3937007874015748},{"duration":0.17647049999999354,"midi":36,"time":114.352884,"velocity":0.3937007874015748},{"duration":0.17647049999999354,"midi":43,"time":114.352884,"velocity":0.3937007874015748},{"duration":0.3529410000000013,"midi":36,"time":114.5293545,"velocity":0.3937007874015748},{"duration":0.3529410000000013,"midi":43,"time":114.5293545,"velocity":0.3937007874015748},{"duration":0.3529410000000013,"midi":48,"time":114.5293545,"velocity":0.3937007874015748},{"duration":0.3529410000000013,"midi":36,"time":114.5293545,"velocity":0.3937007874015748},{"duration":0.3529410000000013,"midi":48,"time":114.5293545,"velocity":0.3937007874015748},{"duration":0.17647050000000775,"midi":48,"time":114.8822955,"velocity":0.3937007874015748},{"duration":0.17647050000000775,"midi":36,"time":114.8822955,"velocity":0.3937007874015748},{"duration":0.17647050000000775,"midi":48,"time":114.8822955,"velocity":0.3937007874015748},{"duration":0.17647050000000775,"midi":36,"time":114.8822955,"velocity":0.3937007874015748},{"duration":0.17647050000000775,"midi":43,"time":114.8822955,"velocity":0.3937007874015748},{"duration":0.17647049999999354,"midi":48,"time":115.058766,"velocity":0.3937007874015748},{"duration":0.17647049999999354,"midi":48,"time":115.058766,"velocity":0.3937007874015748},{"duration":0.17647049999999354,"midi":43,"time":115.058766,"velocity":0.3937007874015748},{"duration":0.17647049999999354,"midi":36,"time":115.058766,"velocity":0.3937007874015748},{"duration":0.17647049999999354,"midi":36,"time":115.058766,"velocity":0.3937007874015748},{"duration":0.3529410000000013,"midi":36,"time":115.2352365,"velocity":0.3937007874015748},{"duration":0.3529410000000013,"midi":48,"time":115.2352365,"velocity":0.3937007874015748},{"duration":0.3529410000000013,"midi":36,"time":115.2352365,"velocity":0.3937007874015748},{"duration":0.3529410000000013,"midi":43,"time":115.2352365,"velocity":0.3937007874015748},{"duration":0.3529410000000013,"midi":48,"time":115.2352365,"velocity":0.3937007874015748},{"duration":0.17647050000000775,"midi":43,"time":115.5881775,"velocity":0.3937007874015748},{"duration":0.17647050000000775,"midi":48,"time":115.5881775,"velocity":0.3937007874015748},{"duration":0.17647050000000775,"midi":36,"time":115.5881775,"velocity":0.3937007874015748},{"duration":0.17647050000000775,"midi":36,"time":115.5881775,"velocity":0.3937007874015748},{"duration":0.17647050000000775,"midi":48,"time":115.5881775,"velocity":0.3937007874015748},{"duration":0.17647049999999354,"midi":50,"time":115.76464800000001,"velocity":0.3937007874015748},{"duration":0.17647049999999354,"midi":38,"time":115.76464800000001,"velocity":0.3937007874015748},{"duration":0.17647049999999354,"midi":38,"time":115.76464800000001,"velocity":0.3937007874015748},{"duration":0.17647049999999354,"midi":50,"time":115.76464800000001,"velocity":0.3937007874015748},{"duration":0.17647049999999354,"midi":45,"time":115.76464800000001,"velocity":0.3937007874015748},{"duration":0.17647049999999354,"midi":50,"time":115.9411185,"velocity":0.3937007874015748},{"duration":0.17647049999999354,"midi":50,"time":115.9411185,"velocity":0.3937007874015748},{"duration":0.17647049999999354,"midi":38,"time":115.9411185,"velocity":0.3937007874015748},{"duration":0.17647049999999354,"midi":38,"time":115.9411185,"velocity":0.3937007874015748},{"duration":0.17647049999999354,"midi":45,"time":115.9411185,"velocity":0.3937007874015748},{"duration":0.3529410000000013,"midi":50,"time":116.117589,"velocity":0.3937007874015748},{"duration":0.3529410000000013,"midi":50,"time":116.117589,"velocity":0.3937007874015748},{"duration":0.3529410000000013,"midi":38,"time":116.117589,"velocity":0.3937007874015748},{"duration":0.3529410000000013,"midi":38,"time":116.117589,"velocity":0.3937007874015748},{"duration":0.3529410000000013,"midi":45,"time":116.117589,"velocity":0.3937007874015748},{"duration":0.17647050000000775,"midi":50,"time":116.47053,"velocity":0.3937007874015748},{"duration":0.17647050000000775,"midi":50,"time":116.47053,"velocity":0.3937007874015748},{"duration":0.17647050000000775,"midi":38,"time":116.47053,"velocity":0.3937007874015748},{"duration":0.17647050000000775,"midi":45,"time":116.47053,"velocity":0.3937007874015748},{"duration":0.17647050000000775,"midi":38,"time":116.47053,"velocity":0.3937007874015748},{"duration":0.3529410000000013,"midi":38,"time":116.6470005,"velocity":0.3937007874015748},{"duration":0.3529410000000013,"midi":38,"time":116.6470005,"velocity":0.3937007874015748},{"duration":0.3529410000000013,"midi":50,"time":116.6470005,"velocity":0.3937007874015748},{"duration":0.3529410000000013,"midi":50,"time":116.6470005,"velocity":0.3937007874015748},{"duration":0.3529410000000013,"midi":45,"time":116.6470005,"velocity":0.3937007874015748},{"duration":0.17647049999999354,"midi":50,"time":116.9999415,"velocity":0.3937007874015748},{"duration":0.17647049999999354,"midi":38,"time":116.9999415,"velocity":0.3937007874015748},{"duration":0.17647049999999354,"midi":50,"time":116.9999415,"velocity":0.3937007874015748},{"duration":0.17647049999999354,"midi":45,"time":116.9999415,"velocity":0.3937007874015748},{"duration":0.17647049999999354,"midi":38,"time":116.9999415,"velocity":0.3937007874015748},{"duration":0.17647050000000775,"midi":50,"time":117.176412,"velocity":0.3937007874015748},{"duration":0.17647050000000775,"midi":38,"time":117.176412,"velocity":0.3937007874015748},{"duration":0.17647050000000775,"midi":50,"time":117.176412,"velocity":0.3937007874015748},{"duration":0.17647050000000775,"midi":38,"time":117.176412,"velocity":0.3937007874015748},{"duration":0.17647050000000775,"midi":45,"time":117.176412,"velocity":0.3937007874015748},{"duration":0.3529410000000013,"midi":38,"time":117.3528825,"velocity":0.3937007874015748},{"duration":0.3529410000000013,"midi":45,"time":117.3528825,"velocity":0.3937007874015748},{"duration":0.3529410000000013,"midi":38,"time":117.3528825,"velocity":0.3937007874015748},{"duration":0.3529410000000013,"midi":50,"time":117.3528825,"velocity":0.3937007874015748},{"duration":0.3529410000000013,"midi":50,"time":117.3528825,"velocity":0.3937007874015748},{"duration":0.17647049999999354,"midi":38,"time":117.70582350000001,"velocity":0.3937007874015748},{"duration":0.17647049999999354,"midi":45,"time":117.70582350000001,"velocity":0.3937007874015748},{"duration":0.17647049999999354,"midi":50,"time":117.70582350000001,"velocity":0.3937007874015748},{"duration":0.17647049999999354,"midi":38,"time":117.70582350000001,"velocity":0.3937007874015748},{"duration":0.17647049999999354,"midi":50,"time":117.70582350000001,"velocity":0.3937007874015748},{"duration":0.17647049999999354,"midi":50,"time":117.882294,"velocity":0.3937007874015748},{"duration":0.17647049999999354,"midi":45,"time":117.882294,"velocity":0.3937007874015748},{"duration":0.17647049999999354,"midi":38,"time":117.882294,"velocity":0.3937007874015748},{"duration":0.17647049999999354,"midi":38,"time":117.882294,"velocity":0.3937007874015748},{"duration":0.17647049999999354,"midi":50,"time":117.882294,"velocity":0.3937007874015748},{"duration":0.3529410000000013,"midi":38,"time":118.0587645,"velocity":0.3937007874015748},{"duration":0.3529410000000013,"midi":45,"time":118.0587645,"velocity":0.3937007874015748},{"duration":0.3529410000000013,"midi":38,"time":118.0587645,"velocity":0.3937007874015748},{"duration":0.3529410000000013,"midi":50,"time":118.0587645,"velocity":0.3937007874015748},{"duration":0.3529410000000013,"midi":50,"time":118.0587645,"velocity":0.3937007874015748},{"duration":0.17647050000000775,"midi":50,"time":118.4117055,"velocity":0.3937007874015748},{"duration":0.17647050000000775,"midi":45,"time":118.4117055,"velocity":0.3937007874015748},{"duration":0.17647050000000775,"midi":50,"time":118.4117055,"velocity":0.3937007874015748},{"duration":0.17647050000000775,"midi":38,"time":118.4117055,"velocity":0.3937007874015748},{"duration":0.17647050000000775,"midi":38,"time":118.4117055,"velocity":0.3937007874015748},{"duration":0.17647049999999354,"midi":46,"time":118.588176,"velocity":0.3937007874015748},{"duration":0.17647049999999354,"midi":51,"time":118.588176,"velocity":0.3937007874015748},{"duration":0.17647049999999354,"midi":39,"time":118.588176,"velocity":0.3937007874015748},{"duration":0.17647049999999354,"midi":51,"time":118.588176,"velocity":0.3937007874015748},{"duration":0.17647049999999354,"midi":39,"time":118.588176,"velocity":0.3937007874015748},{"duration":0.17647050000000775,"midi":39,"time":118.7646465,"velocity":0.3937007874015748},{"duration":0.17647050000000775,"midi":51,"time":118.7646465,"velocity":0.3937007874015748},{"duration":0.17647050000000775,"midi":46,"time":118.7646465,"velocity":0.3937007874015748},{"duration":0.17647050000000775,"midi":39,"time":118.7646465,"velocity":0.3937007874015748},{"duration":0.17647050000000775,"midi":51,"time":118.7646465,"velocity":0.3937007874015748},{"duration":0.3529410000000013,"midi":51,"time":118.941117,"velocity":0.3937007874015748},{"duration":0.3529410000000013,"midi":46,"time":118.941117,"velocity":0.3937007874015748},{"duration":0.3529410000000013,"midi":51,"time":118.941117,"velocity":0.3937007874015748},{"duration":0.3529410000000013,"midi":39,"time":118.941117,"velocity":0.3937007874015748},{"duration":0.3529410000000013,"midi":39,"time":118.941117,"velocity":0.3937007874015748},{"duration":0.17647049999999354,"midi":39,"time":119.294058,"velocity":0.3937007874015748},{"duration":0.17647049999999354,"midi":51,"time":119.294058,"velocity":0.3937007874015748},{"duration":0.17647049999999354,"midi":39,"time":119.294058,"velocity":0.3937007874015748},{"duration":0.17647049999999354,"midi":51,"time":119.294058,"velocity":0.3937007874015748},{"duration":0.17647049999999354,"midi":46,"time":119.294058,"velocity":0.3937007874015748},{"duration":0.3529410000000013,"midi":39,"time":119.4705285,"velocity":0.3937007874015748},{"duration":0.3529410000000013,"midi":51,"time":119.4705285,"velocity":0.3937007874015748},{"duration":0.3529410000000013,"midi":39,"time":119.4705285,"velocity":0.3937007874015748},{"duration":0.3529410000000013,"midi":51,"time":119.4705285,"velocity":0.3937007874015748},{"duration":0.3529410000000013,"midi":46,"time":119.4705285,"velocity":0.3937007874015748},{"duration":0.17647049999999354,"midi":46,"time":119.8234695,"velocity":0.3937007874015748},{"duration":0.17647049999999354,"midi":51,"time":119.8234695,"velocity":0.3937007874015748},{"duration":0.17647049999999354,"midi":39,"time":119.8234695,"velocity":0.3937007874015748},{"duration":0.17647049999999354,"midi":39,"time":119.8234695,"velocity":0.3937007874015748},{"duration":0.17647049999999354,"midi":51,"time":119.8234695,"velocity":0.3937007874015748},{"duration":0.17647050000000775,"midi":39,"time":119.99994,"velocity":0.3937007874015748},{"duration":0.17647050000000775,"midi":39,"time":119.99994,"velocity":0.3937007874015748},{"duration":0.17647050000000775,"midi":51,"time":119.99994,"velocity":0.3937007874015748},{"duration":0.17647050000000775,"midi":51,"time":119.99994,"velocity":0.3937007874015748},{"duration":0.17647050000000775,"midi":46,"time":119.99994,"velocity":0.3937007874015748},{"duration":0.3529410000000013,"midi":51,"time":120.1764105,"velocity":0.3937007874015748},{"duration":0.3529410000000013,"midi":51,"time":120.1764105,"velocity":0.3937007874015748},{"duration":0.3529410000000013,"midi":39,"time":120.1764105,"velocity":0.3937007874015748},{"duration":0.3529410000000013,"midi":46,"time":120.1764105,"velocity":0.3937007874015748},{"duration":0.3529410000000013,"midi":39,"time":120.1764105,"velocity":0.3937007874015748},{"duration":0.17647049999999354,"midi":46,"time":120.5293515,"velocity":0.3937007874015748},{"duration":0.17647049999999354,"midi":51,"time":120.5293515,"velocity":0.3937007874015748},{"duration":0.17647049999999354,"midi":39,"time":120.5293515,"velocity":0.3937007874015748},{"duration":0.17647049999999354,"midi":51,"time":120.5293515,"velocity":0.3937007874015748},{"duration":0.17647049999999354,"midi":39,"time":120.5293515,"velocity":0.3937007874015748},{"duration":0.17647050000000775,"midi":51,"time":120.705822,"velocity":0.3937007874015748},{"duration":0.17647050000000775,"midi":39,"time":120.705822,"velocity":0.3937007874015748},{"duration":0.17647050000000775,"midi":46,"time":120.705822,"velocity":0.3937007874015748},{"duration":0.17647050000000775,"midi":39,"time":120.705822,"velocity":0.3937007874015748},{"duration":0.17647050000000775,"midi":51,"time":120.705822,"velocity":0.3937007874015748},{"duration":0.3529410000000013,"midi":46,"time":120.8822925,"velocity":0.3937007874015748},{"duration":0.3529410000000013,"midi":39,"time":120.8822925,"velocity":0.3937007874015748},{"duration":0.3529410000000013,"midi":51,"time":120.8822925,"velocity":0.3937007874015748},{"duration":0.3529410000000013,"midi":39,"time":120.8822925,"velocity":0.3937007874015748},{"duration":0.3529410000000013,"midi":51,"time":120.8822925,"velocity":0.3937007874015748},{"duration":0.17647049999999354,"midi":39,"time":121.2352335,"velocity":0.3937007874015748},{"duration":0.17647049999999354,"midi":51,"time":121.2352335,"velocity":0.3937007874015748},{"duration":0.17647049999999354,"midi":51,"time":121.2352335,"velocity":0.3937007874015748},{"duration":0.17647049999999354,"midi":39,"time":121.2352335,"velocity":0.3937007874015748},{"duration":0.17647049999999354,"midi":46,"time":121.2352335,"velocity":0.3937007874015748},{"duration":0.17647050000000775,"midi":41,"time":121.411704,"velocity":0.3937007874015748},{"duration":0.17647050000000775,"midi":53,"time":121.411704,"velocity":0.3937007874015748},{"duration":0.17647050000000775,"midi":53,"time":121.411704,"velocity":0.3937007874015748},{"duration":0.17647050000000775,"midi":48,"time":121.411704,"velocity":0.3937007874015748},{"duration":0.17647050000000775,"midi":41,"time":121.411704,"velocity":0.3937007874015748},{"duration":0.17647049999999354,"midi":41,"time":121.58817450000001,"velocity":0.3937007874015748},{"duration":0.17647049999999354,"midi":53,"time":121.58817450000001,"velocity":0.3937007874015748},{"duration":0.17647049999999354,"midi":41,"time":121.58817450000001,"velocity":0.3937007874015748},{"duration":0.17647049999999354,"midi":53,"time":121.58817450000001,"velocity":0.3937007874015748},{"duration":0.17647049999999354,"midi":48,"time":121.58817450000001,"velocity":0.3937007874015748},{"duration":0.3529410000000013,"midi":41,"time":121.764645,"velocity":0.3937007874015748},{"duration":0.3529410000000013,"midi":48,"time":121.764645,"velocity":0.3937007874015748},{"duration":0.3529410000000013,"midi":53,"time":121.764645,"velocity":0.3937007874015748},{"duration":0.3529410000000013,"midi":53,"time":121.764645,"velocity":0.3937007874015748},{"duration":0.3529410000000013,"midi":41,"time":121.764645,"velocity":0.3937007874015748},{"duration":0.17647049999999354,"midi":53,"time":122.117586,"velocity":0.3937007874015748},{"duration":0.17647049999999354,"midi":53,"time":122.117586,"velocity":0.3937007874015748},{"duration":0.17647049999999354,"midi":48,"time":122.117586,"velocity":0.3937007874015748},{"duration":0.17647049999999354,"midi":41,"time":122.117586,"velocity":0.3937007874015748},{"duration":0.17647049999999354,"midi":41,"time":122.117586,"velocity":0.3937007874015748},{"duration":0.3529410000000013,"midi":48,"time":122.2940565,"velocity":0.3937007874015748},{"duration":0.3529410000000013,"midi":41,"time":122.2940565,"velocity":0.3937007874015748},{"duration":0.3529410000000013,"midi":53,"time":122.2940565,"velocity":0.3937007874015748},{"duration":0.3529410000000013,"midi":41,"time":122.2940565,"velocity":0.3937007874015748},{"duration":0.3529410000000013,"midi":53,"time":122.2940565,"velocity":0.3937007874015748},{"duration":0.17647050000000775,"midi":41,"time":122.6469975,"velocity":0.3937007874015748},{"duration":0.17647050000000775,"midi":41,"time":122.6469975,"velocity":0.3937007874015748},{"duration":0.17647050000000775,"midi":53,"time":122.6469975,"velocity":0.3937007874015748},{"duration":0.17647050000000775,"midi":53,"time":122.6469975,"velocity":0.3937007874015748},{"duration":0.17647050000000775,"midi":48,"time":122.6469975,"velocity":0.3937007874015748},{"duration":0.17647049999999354,"midi":55,"time":122.823468,"velocity":0.3937007874015748},{"duration":0.17647049999999354,"midi":43,"time":122.823468,"velocity":0.3937007874015748},{"duration":0.17647049999999354,"midi":43,"time":122.823468,"velocity":0.3937007874015748},{"duration":0.17647049999999354,"midi":50,"time":122.823468,"velocity":0.3937007874015748},{"duration":0.17647049999999354,"midi":55,"time":122.823468,"velocity":0.3937007874015748},{"duration":0.3529410000000013,"midi":43,"time":122.9999385,"velocity":0.3937007874015748},{"duration":0.3529410000000013,"midi":55,"time":122.9999385,"velocity":0.3937007874015748},{"duration":0.3529410000000013,"midi":55,"time":122.9999385,"velocity":0.3937007874015748},{"duration":0.3529410000000013,"midi":50,"time":122.9999385,"velocity":0.3937007874015748},{"duration":0.3529410000000013,"midi":43,"time":122.9999385,"velocity":0.3937007874015748},{"duration":0.17647050000000775,"midi":43,"time":123.3528795,"velocity":0.3937007874015748},{"duration":0.17647050000000775,"midi":55,"time":123.3528795,"velocity":0.3937007874015748},{"duration":0.17647050000000775,"midi":43,"time":123.3528795,"velocity":0.3937007874015748},{"duration":0.17647050000000775,"midi":50,"time":123.3528795,"velocity":0.3937007874015748},{"duration":0.17647050000000775,"midi":55,"time":123.3528795,"velocity":0.3937007874015748},{"duration":0.17647049999999354,"midi":55,"time":123.52935000000001,"velocity":0.3937007874015748},{"duration":0.17647049999999354,"midi":43,"time":123.52935000000001,"velocity":0.3937007874015748},{"duration":0.17647049999999354,"midi":50,"time":123.52935000000001,"velocity":0.3937007874015748},{"duration":0.17647049999999354,"midi":43,"time":123.52935000000001,"velocity":0.3937007874015748},{"duration":0.17647049999999354,"midi":55,"time":123.52935000000001,"velocity":0.3937007874015748},{"duration":0.3529410000000013,"midi":50,"time":123.7058205,"velocity":0.3937007874015748},{"duration":0.3529410000000013,"midi":43,"time":123.7058205,"velocity":0.3937007874015748},{"duration":0.3529410000000013,"midi":43,"time":123.7058205,"velocity":0.3937007874015748},{"duration":0.3529410000000013,"midi":55,"time":123.7058205,"velocity":0.3937007874015748},{"duration":0.3529410000000013,"midi":55,"time":123.7058205,"velocity":0.3937007874015748},{"duration":0.17647049999999354,"midi":50,"time":124.0587615,"velocity":0.3937007874015748},{"duration":0.17647049999999354,"midi":55,"time":124.0587615,"velocity":0.3937007874015748},{"duration":0.17647049999999354,"midi":43,"time":124.0587615,"velocity":0.3937007874015748},{"duration":0.17647049999999354,"midi":55,"time":124.0587615,"velocity":0.3937007874015748},{"duration":0.17647049999999354,"midi":43,"time":124.0587615,"velocity":0.3937007874015748},{"duration":0.17647050000000775,"midi":48,"time":124.235232,"velocity":0.3937007874015748},{"duration":0.17647050000000775,"midi":36,"time":124.235232,"velocity":0.3937007874015748},{"duration":0.17647050000000775,"midi":36,"time":124.235232,"velocity":0.3937007874015748},{"duration":0.17647050000000775,"midi":48,"time":124.235232,"velocity":0.3937007874015748},{"duration":0.17647050000000775,"midi":43,"time":124.235232,"velocity":0.3937007874015748},{"duration":0.17647049999999354,"midi":48,"time":124.4117025,"velocity":0.3937007874015748},{"duration":0.17647049999999354,"midi":48,"time":124.4117025,"velocity":0.3937007874015748},{"duration":0.17647049999999354,"midi":43,"time":124.4117025,"velocity":0.3937007874015748},{"duration":0.17647049999999354,"midi":36,"time":124.4117025,"velocity":0.3937007874015748},{"duration":0.17647049999999354,"midi":36,"time":124.4117025,"velocity":0.3937007874015748},{"duration":0.3529410000000013,"midi":36,"time":124.588173,"velocity":0.3937007874015748},{"duration":0.3529410000000013,"midi":48,"time":124.588173,"velocity":0.3937007874015748},{"duration":0.3529410000000013,"midi":48,"time":124.588173,"velocity":0.3937007874015748},{"duration":0.3529410000000013,"midi":36,"time":124.588173,"velocity":0.3937007874015748},{"duration":0.3529410000000013,"midi":43,"time":124.588173,"velocity":0.3937007874015748},{"duration":0.17647050000000775,"midi":36,"time":124.941114,"velocity":0.3937007874015748},{"duration":0.17647050000000775,"midi":36,"time":124.941114,"velocity":0.3937007874015748},{"duration":0.17647050000000775,"midi":48,"time":124.941114,"velocity":0.3937007874015748},{"duration":0.17647050000000775,"midi":48,"time":124.941114,"velocity":0.3937007874015748},{"duration":0.17647050000000775,"midi":43,"time":124.941114,"velocity":0.3937007874015748},{"duration":0.3529410000000013,"midi":48,"time":125.1175845,"velocity":0.3937007874015748},{"duration":0.3529410000000013,"midi":36,"time":125.1175845,"velocity":0.3937007874015748},{"duration":0.3529410000000013,"midi":48,"time":125.1175845,"velocity":0.3937007874015748},{"duration":0.3529410000000013,"midi":43,"time":125.1175845,"velocity":0.3937007874015748},{"duration":0.3529410000000013,"midi":36,"time":125.1175845,"velocity":0.3937007874015748},{"duration":0.17647049999999354,"midi":43,"time":125.47052550000001,"velocity":0.3937007874015748},{"duration":0.17647049999999354,"midi":48,"time":125.47052550000001,"velocity":0.3937007874015748},{"duration":0.17647049999999354,"midi":36,"time":125.47052550000001,"velocity":0.3937007874015748},{"duration":0.17647049999999354,"midi":36,"time":125.47052550000001,"velocity":0.3937007874015748},{"duration":0.17647049999999354,"midi":48,"time":125.47052550000001,"velocity":0.3937007874015748},{"duration":0.17647049999999354,"midi":36,"time":125.646996,"velocity":0.3937007874015748},{"duration":0.17647049999999354,"midi":36,"time":125.646996,"velocity":0.3937007874015748},{"duration":0.17647049999999354,"midi":43,"time":125.646996,"velocity":0.3937007874015748},{"duration":0.17647049999999354,"midi":48,"time":125.646996,"velocity":0.3937007874015748},{"duration":0.17647049999999354,"midi":48,"time":125.646996,"velocity":0.3937007874015748},{"duration":0.3529410000000013,"midi":36,"time":125.8234665,"velocity":0.3937007874015748},{"duration":0.3529410000000013,"midi":48,"time":125.8234665,"velocity":0.3937007874015748},{"duration":0.3529410000000013,"midi":36,"time":125.8234665,"velocity":0.3937007874015748},{"duration":0.3529410000000013,"midi":48,"time":125.8234665,"velocity":0.3937007874015748},{"duration":0.3529410000000013,"midi":43,"time":125.8234665,"velocity":0.3937007874015748},{"duration":0.17647050000000775,"midi":36,"time":126.1764075,"velocity":0.3937007874015748},{"duration":0.17647050000000775,"midi":36,"time":126.1764075,"velocity":0.3937007874015748},{"duration":0.17647050000000775,"midi":48,"time":126.1764075,"velocity":0.3937007874015748},{"duration":0.17647050000000775,"midi":48,"time":126.1764075,"velocity":0.3937007874015748},{"duration":0.17647050000000775,"midi":43,"time":126.1764075,"velocity":0.3937007874015748},{"duration":0.17647049999999354,"midi":36,"time":126.352878,"velocity":0.3937007874015748},{"duration":0.17647049999999354,"midi":43,"time":126.352878,"velocity":0.3937007874015748},{"duration":0.17647049999999354,"midi":36,"time":126.352878,"velocity":0.3937007874015748},{"duration":0.17647049999999354,"midi":48,"time":126.352878,"velocity":0.3937007874015748},{"duration":0.17647049999999354,"midi":48,"time":126.352878,"velocity":0.3937007874015748},{"duration":0.3529410000000013,"midi":36,"time":126.5293485,"velocity":0.3937007874015748},{"duration":0.3529410000000013,"midi":43,"time":126.5293485,"velocity":0.3937007874015748},{"duration":0.3529410000000013,"midi":48,"time":126.5293485,"velocity":0.3937007874015748},{"duration":0.3529410000000013,"midi":48,"time":126.5293485,"velocity":0.3937007874015748},{"duration":0.3529410000000013,"midi":36,"time":126.5293485,"velocity":0.3937007874015748},{"duration":0.17647050000000775,"midi":43,"time":126.8822895,"velocity":0.3937007874015748},{"duration":0.17647050000000775,"midi":48,"time":126.8822895,"velocity":0.3937007874015748},{"duration":0.17647050000000775,"midi":36,"time":126.8822895,"velocity":0.3937007874015748},{"duration":0.17647050000000775,"midi":48,"time":126.8822895,"velocity":0.3937007874015748},{"duration":0.17647050000000775,"midi":36,"time":126.8822895,"velocity":0.3937007874015748},{"duration":0.17647049999999354,"midi":38,"time":127.05876,"velocity":0.3937007874015748},{"duration":0.17647049999999354,"midi":38,"time":127.05876,"velocity":0.3937007874015748},{"duration":0.17647049999999354,"midi":50,"time":127.05876,"velocity":0.3937007874015748},{"duration":0.17647049999999354,"midi":45,"time":127.05876,"velocity":0.3937007874015748},{"duration":0.17647049999999354,"midi":50,"time":127.05876,"velocity":0.3937007874015748},{"duration":0.17647050000000775,"midi":38,"time":127.2352305,"velocity":0.3937007874015748},{"duration":0.17647050000000775,"midi":45,"time":127.2352305,"velocity":0.3937007874015748},{"duration":0.17647050000000775,"midi":38,"time":127.2352305,"velocity":0.3937007874015748},{"duration":0.17647050000000775,"midi":50,"time":127.2352305,"velocity":0.3937007874015748},{"duration":0.17647050000000775,"midi":50,"time":127.2352305,"velocity":0.3937007874015748},{"duration":0.35294099999998707,"midi":38,"time":127.41170100000001,"velocity":0.3937007874015748},{"duration":0.35294099999998707,"midi":45,"time":127.41170100000001,"velocity":0.3937007874015748},{"duration":0.35294099999998707,"midi":38,"time":127.41170100000001,"velocity":0.3937007874015748},{"duration":0.35294099999998707,"midi":50,"time":127.41170100000001,"velocity":0.3937007874015748},{"duration":0.35294099999998707,"midi":50,"time":127.41170100000001,"velocity":0.3937007874015748},{"duration":0.17647050000000775,"midi":38,"time":127.764642,"velocity":0.3937007874015748},{"duration":0.17647050000000775,"midi":45,"time":127.764642,"velocity":0.3937007874015748},{"duration":0.17647050000000775,"midi":38,"time":127.764642,"velocity":0.3937007874015748},{"duration":0.17647050000000775,"midi":50,"time":127.764642,"velocity":0.3937007874015748},{"duration":0.17647050000000775,"midi":50,"time":127.764642,"velocity":0.3937007874015748},{"duration":0.35294099999998707,"midi":38,"time":127.9411125,"velocity":0.3937007874015748},{"duration":0.35294099999998707,"midi":50,"time":127.9411125,"velocity":0.3937007874015748},{"duration":0.35294099999998707,"midi":45,"time":127.9411125,"velocity":0.3937007874015748},{"duration":0.35294099999998707,"midi":38,"time":127.9411125,"velocity":0.3937007874015748},{"duration":0.35294099999998707,"midi":50,"time":127.9411125,"velocity":0.3937007874015748},{"duration":0.17647050000002196,"midi":50,"time":128.2940535,"velocity":0.3937007874015748},{"duration":0.17647050000002196,"midi":38,"time":128.2940535,"velocity":0.3937007874015748},{"duration":0.17647050000002196,"midi":38,"time":128.2940535,"velocity":0.3937007874015748},{"duration":0.17647050000002196,"midi":45,"time":128.2940535,"velocity":0.3937007874015748},{"duration":0.17647050000002196,"midi":50,"time":128.2940535,"velocity":0.3937007874015748},{"duration":0.17647049999999354,"midi":38,"time":128.470524,"velocity":0.3937007874015748},{"duration":0.17647049999999354,"midi":50,"time":128.470524,"velocity":0.3937007874015748},{"duration":0.17647049999999354,"midi":50,"time":128.470524,"velocity":0.3937007874015748},{"duration":0.17647049999999354,"midi":45,"time":128.470524,"velocity":0.3937007874015748},{"duration":0.17647049999999354,"midi":38,"time":128.470524,"velocity":0.3937007874015748},{"duration":0.35294099999998707,"midi":38,"time":128.6469945,"velocity":0.3937007874015748},{"duration":0.35294099999998707,"midi":50,"time":128.6469945,"velocity":0.3937007874015748},{"duration":0.35294099999998707,"midi":45,"time":128.6469945,"velocity":0.3937007874015748},{"duration":0.35294099999998707,"midi":50,"time":128.6469945,"velocity":0.3937007874015748},{"duration":0.35294099999998707,"midi":38,"time":128.6469945,"velocity":0.3937007874015748},{"duration":0.17647050000002196,"midi":38,"time":128.9999355,"velocity":0.3937007874015748},{"duration":0.17647050000002196,"midi":45,"time":128.9999355,"velocity":0.3937007874015748},{"duration":0.17647050000002196,"midi":50,"time":128.9999355,"velocity":0.3937007874015748},{"duration":0.17647050000002196,"midi":50,"time":128.9999355,"velocity":0.3937007874015748},{"duration":0.17647050000002196,"midi":38,"time":128.9999355,"velocity":0.3937007874015748},{"duration":0.17647049999999354,"midi":50,"time":129.17640600000001,"velocity":0.3937007874015748},{"duration":0.17647049999999354,"midi":45,"time":129.17640600000001,"velocity":0.3937007874015748},{"duration":0.17647049999999354,"midi":38,"time":129.17640600000001,"velocity":0.3937007874015748},{"duration":0.17647049999999354,"midi":38,"time":129.17640600000001,"velocity":0.3937007874015748},{"duration":0.17647049999999354,"midi":50,"time":129.17640600000001,"velocity":0.3937007874015748},{"duration":0.35294099999998707,"midi":45,"time":129.3528765,"velocity":0.3937007874015748},{"duration":0.35294099999998707,"midi":50,"time":129.3528765,"velocity":0.3937007874015748},{"duration":0.35294099999998707,"midi":38,"time":129.3528765,"velocity":0.3937007874015748},{"duration":0.35294099999998707,"midi":50,"time":129.3528765,"velocity":0.3937007874015748},{"duration":0.35294099999998707,"midi":38,"time":129.3528765,"velocity":0.3937007874015748},{"duration":0.17647049999999354,"midi":50,"time":129.7058175,"velocity":0.3937007874015748},{"duration":0.17647049999999354,"midi":38,"time":129.7058175,"velocity":0.3937007874015748},{"duration":0.17647049999999354,"midi":50,"time":129.7058175,"velocity":0.3937007874015748},{"duration":0.17647049999999354,"midi":38,"time":129.7058175,"velocity":0.3937007874015748},{"duration":0.17647049999999354,"midi":45,"time":129.7058175,"velocity":0.3937007874015748},{"duration":0.17647050000002196,"midi":46,"time":129.882288,"velocity":0.3937007874015748},{"duration":0.17647050000002196,"midi":39,"time":129.882288,"velocity":0.3937007874015748},{"duration":0.17647050000002196,"midi":51,"time":129.882288,"velocity":0.3937007874015748},{"duration":0.17647050000002196,"midi":39,"time":129.882288,"velocity":0.3937007874015748},{"duration":0.17647050000002196,"midi":51,"time":129.882288,"velocity":0.3937007874015748},{"duration":0.17647049999999354,"midi":46,"time":130.0587585,"velocity":0.3937007874015748},{"duration":0.17647049999999354,"midi":39,"time":130.0587585,"velocity":0.3937007874015748},{"duration":0.17647049999999354,"midi":51,"time":130.0587585,"velocity":0.3937007874015748},{"duration":0.17647049999999354,"midi":51,"time":130.0587585,"velocity":0.3937007874015748},{"duration":0.17647049999999354,"midi":39,"time":130.0587585,"velocity":0.3937007874015748},{"duration":0.35294099999998707,"midi":39,"time":130.235229,"velocity":0.3937007874015748},{"duration":0.35294099999998707,"midi":51,"time":130.235229,"velocity":0.3937007874015748},{"duration":0.35294099999998707,"midi":46,"time":130.235229,"velocity":0.3937007874015748},{"duration":0.35294099999998707,"midi":51,"time":130.235229,"velocity":0.3937007874015748},{"duration":0.35294099999998707,"midi":39,"time":130.235229,"velocity":0.3937007874015748},{"duration":0.17647050000002196,"midi":46,"time":130.58817,"velocity":0.3937007874015748},{"duration":0.17647050000002196,"midi":51,"time":130.58817,"velocity":0.3937007874015748},{"duration":0.17647050000002196,"midi":39,"time":130.58817,"velocity":0.3937007874015748},{"duration":0.17647050000002196,"midi":39,"time":130.58817,"velocity":0.3937007874015748},{"duration":0.17647050000002196,"midi":51,"time":130.58817,"velocity":0.3937007874015748},{"duration":0.35294099999998707,"midi":51,"time":130.7646405,"velocity":0.3937007874015748},{"duration":0.35294099999998707,"midi":39,"time":130.7646405,"velocity":0.3937007874015748},{"duration":0.35294099999998707,"midi":39,"time":130.7646405,"velocity":0.3937007874015748},{"duration":0.35294099999998707,"midi":51,"time":130.7646405,"velocity":0.3937007874015748},{"duration":0.35294099999998707,"midi":46,"time":130.7646405,"velocity":0.3937007874015748},{"duration":0.17647049999999354,"midi":39,"time":131.1175815,"velocity":0.3937007874015748},{"duration":0.17647049999999354,"midi":51,"time":131.1175815,"velocity":0.3937007874015748},{"duration":0.17647049999999354,"midi":39,"time":131.1175815,"velocity":0.3937007874015748},{"duration":0.17647049999999354,"midi":46,"time":131.1175815,"velocity":0.3937007874015748},{"duration":0.17647049999999354,"midi":51,"time":131.1175815,"velocity":0.3937007874015748},{"duration":0.17647050000002196,"midi":39,"time":131.294052,"velocity":0.3937007874015748},{"duration":0.17647050000002196,"midi":46,"time":131.294052,"velocity":0.3937007874015748},{"duration":0.17647050000002196,"midi":51,"time":131.294052,"velocity":0.3937007874015748},{"duration":0.17647050000002196,"midi":51,"time":131.294052,"velocity":0.3937007874015748},{"duration":0.17647050000002196,"midi":39,"time":131.294052,"velocity":0.3937007874015748},{"duration":0.35294099999998707,"midi":51,"time":131.47052250000002,"velocity":0.3937007874015748},{"duration":0.35294099999998707,"midi":46,"time":131.47052250000002,"velocity":0.3937007874015748},{"duration":0.35294099999998707,"midi":39,"time":131.47052250000002,"velocity":0.3937007874015748},{"duration":0.35294099999998707,"midi":51,"time":131.47052250000002,"velocity":0.3937007874015748},{"duration":0.35294099999998707,"midi":39,"time":131.47052250000002,"velocity":0.3937007874015748},{"duration":0.17647049999999354,"midi":39,"time":131.8234635,"velocity":0.3937007874015748},{"duration":0.17647049999999354,"midi":51,"time":131.8234635,"velocity":0.3937007874015748},{"duration":0.17647049999999354,"midi":51,"time":131.8234635,"velocity":0.3937007874015748},{"duration":0.17647049999999354,"midi":46,"time":131.8234635,"velocity":0.3937007874015748},{"duration":0.17647049999999354,"midi":39,"time":131.8234635,"velocity":0.3937007874015748},{"duration":0.17647049999999354,"midi":51,"time":131.999934,"velocity":0.3937007874015748},{"duration":0.17647049999999354,"midi":51,"time":131.999934,"velocity":0.3937007874015748},{"duration":0.17647049999999354,"midi":39,"time":131.999934,"velocity":0.3937007874015748},{"duration":0.17647049999999354,"midi":46,"time":131.999934,"velocity":0.3937007874015748},{"duration":0.17647049999999354,"midi":39,"time":131.999934,"velocity":0.3937007874015748},{"duration":0.3529410000000155,"midi":51,"time":132.1764045,"velocity":0.3937007874015748},{"duration":0.3529410000000155,"midi":39,"time":132.1764045,"velocity":0.3937007874015748},{"duration":0.3529410000000155,"midi":46,"time":132.1764045,"velocity":0.3937007874015748},{"duration":0.3529410000000155,"midi":39,"time":132.1764045,"velocity":0.3937007874015748},{"duration":0.3529410000000155,"midi":51,"time":132.1764045,"velocity":0.3937007874015748},{"duration":0.17647049999999354,"midi":51,"time":132.5293455,"velocity":0.3937007874015748},{"duration":0.17647049999999354,"midi":51,"time":132.5293455,"velocity":0.3937007874015748},{"duration":0.17647049999999354,"midi":39,"time":132.5293455,"velocity":0.3937007874015748},{"duration":0.17647049999999354,"midi":39,"time":132.5293455,"velocity":0.3937007874015748},{"duration":0.17647049999999354,"midi":46,"time":132.5293455,"velocity":0.3937007874015748},{"duration":0.17647049999999354,"midi":41,"time":132.705816,"velocity":0.3937007874015748},{"duration":0.17647049999999354,"midi":53,"time":132.705816,"velocity":0.3937007874015748},{"duration":0.17647049999999354,"midi":48,"time":132.705816,"velocity":0.3937007874015748},{"duration":0.17647049999999354,"midi":53,"time":132.705816,"velocity":0.3937007874015748},{"duration":0.17647049999999354,"midi":41,"time":132.705816,"velocity":0.3937007874015748},{"duration":0.17647050000002196,"midi":53,"time":132.8822865,"velocity":0.3937007874015748},{"duration":0.17647050000002196,"midi":41,"time":132.8822865,"velocity":0.3937007874015748},{"duration":0.17647050000002196,"midi":41,"time":132.8822865,"velocity":0.3937007874015748},{"duration":0.17647050000002196,"midi":53,"time":132.8822865,"velocity":0.3937007874015748},{"duration":0.17647050000002196,"midi":48,"time":132.8822865,"velocity":0.3937007874015748},{"duration":0.35294099999998707,"midi":48,"time":133.058757,"velocity":0.3937007874015748},{"duration":0.35294099999998707,"midi":41,"time":133.058757,"velocity":0.3937007874015748},{"duration":0.35294099999998707,"midi":53,"time":133.058757,"velocity":0.3937007874015748},{"duration":0.35294099999998707,"midi":53,"time":133.058757,"velocity":0.3937007874015748},{"duration":0.35294099999998707,"midi":41,"time":133.058757,"velocity":0.3937007874015748},{"duration":0.17647049999999354,"midi":53,"time":133.411698,"velocity":0.3937007874015748},{"duration":0.17647049999999354,"midi":48,"time":133.411698,"velocity":0.3937007874015748},{"duration":0.17647049999999354,"midi":41,"time":133.411698,"velocity":0.3937007874015748},{"duration":0.17647049999999354,"midi":53,"time":133.411698,"velocity":0.3937007874015748},{"duration":0.17647049999999354,"midi":41,"time":133.411698,"velocity":0.3937007874015748},{"duration":0.3529410000000155,"midi":53,"time":133.5881685,"velocity":0.3937007874015748},{"duration":0.3529410000000155,"midi":41,"time":133.5881685,"velocity":0.3937007874015748},{"duration":0.3529410000000155,"midi":41,"time":133.5881685,"velocity":0.3937007874015748},{"duration":0.3529410000000155,"midi":48,"time":133.5881685,"velocity":0.3937007874015748},{"duration":0.3529410000000155,"midi":53,"time":133.5881685,"velocity":0.3937007874015748},{"duration":0.17647049999999354,"midi":53,"time":133.9411095,"velocity":0.3937007874015748},{"duration":0.17647049999999354,"midi":41,"time":133.9411095,"velocity":0.3937007874015748},{"duration":0.17647049999999354,"midi":48,"time":133.9411095,"velocity":0.3937007874015748},{"duration":0.17647049999999354,"midi":41,"time":133.9411095,"velocity":0.3937007874015748},{"duration":0.17647049999999354,"midi":53,"time":133.9411095,"velocity":0.3937007874015748},{"duration":0.17647049999999354,"midi":50,"time":134.11758,"velocity":0.3937007874015748},{"duration":0.17647049999999354,"midi":55,"time":134.11758,"velocity":0.3937007874015748},{"duration":0.17647049999999354,"midi":43,"time":134.11758,"velocity":0.3937007874015748},{"duration":0.17647049999999354,"midi":55,"time":134.11758,"velocity":0.3937007874015748},{"duration":0.17647049999999354,"midi":43,"time":134.11758,"velocity":0.3937007874015748},{"duration":0.3529410000000155,"midi":55,"time":134.2940505,"velocity":0.3937007874015748},{"duration":0.3529410000000155,"midi":43,"time":134.2940505,"velocity":0.3937007874015748},{"duration":0.3529410000000155,"midi":55,"time":134.2940505,"velocity":0.3937007874015748},{"duration":0.3529410000000155,"midi":43,"time":134.2940505,"velocity":0.3937007874015748},{"duration":0.3529410000000155,"midi":50,"time":134.2940505,"velocity":0.3937007874015748},{"duration":0.17647049999999354,"midi":43,"time":134.6469915,"velocity":0.3937007874015748},{"duration":0.17647049999999354,"midi":55,"time":134.6469915,"velocity":0.3937007874015748},{"duration":0.17647049999999354,"midi":50,"time":134.6469915,"velocity":0.3937007874015748},{"duration":0.17647049999999354,"midi":43,"time":134.6469915,"velocity":0.3937007874015748},{"duration":0.17647049999999354,"midi":55,"time":134.6469915,"velocity":0.3937007874015748},{"duration":0.17647049999999354,"midi":43,"time":134.823462,"velocity":0.3937007874015748},{"duration":0.17647049999999354,"midi":43,"time":134.823462,"velocity":0.3937007874015748},{"duration":0.17647049999999354,"midi":55,"time":134.823462,"velocity":0.3937007874015748},{"duration":0.17647049999999354,"midi":55,"time":134.823462,"velocity":0.3937007874015748},{"duration":0.17647049999999354,"midi":50,"time":134.823462,"velocity":0.3937007874015748},{"duration":0.3529410000000155,"midi":55,"time":134.9999325,"velocity":0.3937007874015748},{"duration":0.3529410000000155,"midi":50,"time":134.9999325,"velocity":0.3937007874015748},{"duration":0.3529410000000155,"midi":43,"time":134.9999325,"velocity":0.3937007874015748},{"duration":0.3529410000000155,"midi":43,"time":134.9999325,"velocity":0.3937007874015748},{"duration":0.3529410000000155,"midi":55,"time":134.9999325,"velocity":0.3937007874015748},{"duration":0.17647049999999354,"midi":55,"time":135.35287350000002,"velocity":0.3937007874015748},{"duration":0.17647049999999354,"midi":43,"time":135.35287350000002,"velocity":0.3937007874015748},{"duration":0.17647049999999354,"midi":50,"time":135.35287350000002,"velocity":0.3937007874015748},{"duration":0.17647049999999354,"midi":43,"time":135.35287350000002,"velocity":0.3937007874015748},{"duration":0.17647049999999354,"midi":55,"time":135.35287350000002,"velocity":0.3937007874015748},{"duration":2.823527999999982,"midi":38,"time":135.529344,"velocity":0.3937007874015748},{"duration":2.823527999999982,"midi":41,"time":135.529344,"velocity":0.3937007874015748},{"duration":2.823527999999982,"midi":50,"time":135.529344,"velocity":0.3937007874015748},{"duration":2.8235280000000103,"midi":41,"time":138.352872,"velocity":0.3937007874015748},{"duration":2.8235280000000103,"midi":39,"time":138.352872,"velocity":0.3937007874015748},{"duration":2.8235280000000103,"midi":51,"time":138.352872,"velocity":0.3937007874015748},{"duration":1.4117640000000051,"midi":41,"time":141.1764,"velocity":0.3937007874015748},{"duration":2.8235280000000103,"midi":38,"time":141.1764,"velocity":0.3937007874015748},{"duration":2.8235280000000103,"midi":45,"time":141.1764,"velocity":0.3937007874015748},{"duration":2.8235280000000103,"midi":50,"time":141.1764,"velocity":0.3937007874015748},{"duration":1.0588229999999896,"midi":39,"time":143.999928,"velocity":0.3937007874015748},{"duration":1.0588229999999896,"midi":41,"time":143.999928,"velocity":0.3937007874015748},{"duration":1.0588229999999896,"midi":48,"time":143.999928,"velocity":0.3937007874015748},{"duration":1.0588229999999896,"midi":53,"time":143.999928,"velocity":0.3937007874015748},{"duration":1.4117640000000051,"midi":55,"time":145.058751,"velocity":0.3937007874015748},{"duration":1.4117640000000051,"midi":50,"time":145.058751,"velocity":0.3937007874015748},{"duration":1.4117640000000051,"midi":43,"time":145.058751,"velocity":0.3937007874015748},{"duration":1.4117640000000051,"midi":41,"time":145.058751,"velocity":0.3937007874015748},{"duration":0.17647050000002196,"midi":38,"time":146.823456,"velocity":0.3937007874015748},{"duration":0.17647050000002196,"midi":50,"time":146.823456,"velocity":0.3937007874015748},{"duration":0.17647049999999354,"midi":38,"time":146.99992650000002,"velocity":0.3937007874015748},{"duration":0.17647049999999354,"midi":50,"time":146.99992650000002,"velocity":0.3937007874015748},{"duration":0.35294099999998707,"midi":38,"time":147.176397,"velocity":0.3937007874015748},{"duration":0.35294099999998707,"midi":50,"time":147.176397,"velocity":0.3937007874015748},{"duration":0.17647049999999354,"midi":38,"time":147.529338,"velocity":0.3937007874015748},{"duration":0.17647049999999354,"midi":50,"time":147.529338,"velocity":0.3937007874015748},{"duration":0.3529410000000155,"midi":38,"time":147.7058085,"velocity":0.3937007874015748},{"duration":0.3529410000000155,"midi":50,"time":147.7058085,"velocity":0.3937007874015748},{"duration":0.17647049999999354,"midi":50,"time":148.0587495,"velocity":0.3937007874015748},{"duration":0.17647049999999354,"midi":38,"time":148.0587495,"velocity":0.3937007874015748},{"duration":0.17647049999999354,"midi":50,"time":148.23522,"velocity":0.3937007874015748},{"duration":0.17647049999999354,"midi":38,"time":148.23522,"velocity":0.3937007874015748},{"duration":0.3529410000000155,"midi":38,"time":148.4116905,"velocity":0.3937007874015748},{"duration":0.3529410000000155,"midi":50,"time":148.4116905,"velocity":0.3937007874015748},{"duration":0.17647049999999354,"midi":50,"time":148.7646315,"velocity":0.3937007874015748},{"duration":0.17647049999999354,"midi":38,"time":148.7646315,"velocity":0.3937007874015748},{"duration":0.17647049999999354,"midi":50,"time":148.941102,"velocity":0.3937007874015748},{"duration":0.17647049999999354,"midi":38,"time":148.941102,"velocity":0.3937007874015748},{"duration":0.3529410000000155,"midi":50,"time":149.1175725,"velocity":0.3937007874015748},{"duration":0.3529410000000155,"midi":38,"time":149.1175725,"velocity":0.3937007874015748},{"duration":0.17647049999999354,"midi":38,"time":149.4705135,"velocity":0.3937007874015748},{"duration":0.17647049999999354,"midi":50,"time":149.4705135,"velocity":0.3937007874015748},{"duration":0.17647049999999354,"midi":39,"time":149.646984,"velocity":0.3937007874015748},{"duration":0.17647049999999354,"midi":51,"time":149.646984,"velocity":0.3937007874015748},{"duration":0.17647049999999354,"midi":51,"time":149.8234545,"velocity":0.3937007874015748},{"duration":0.17647049999999354,"midi":39,"time":149.8234545,"velocity":0.3937007874015748},{"duration":0.3529410000000155,"midi":51,"time":149.999925,"velocity":0.3937007874015748},{"duration":0.3529410000000155,"midi":39,"time":149.999925,"velocity":0.3937007874015748},{"duration":0.17647049999999354,"midi":51,"time":150.352866,"velocity":0.3937007874015748},{"duration":0.17647049999999354,"midi":39,"time":150.352866,"velocity":0.3937007874015748},{"duration":0.3529410000000155,"midi":39,"time":150.5293365,"velocity":0.3937007874015748},{"duration":0.3529410000000155,"midi":51,"time":150.5293365,"velocity":0.3937007874015748},{"duration":0.17647049999999354,"midi":51,"time":150.88227750000001,"velocity":0.3937007874015748},{"duration":0.17647049999999354,"midi":39,"time":150.88227750000001,"velocity":0.3937007874015748},{"duration":0.17647049999999354,"midi":39,"time":151.058748,"velocity":0.3937007874015748},{"duration":0.17647049999999354,"midi":51,"time":151.058748,"velocity":0.3937007874015748},{"duration":0.35294099999998707,"midi":39,"time":151.2352185,"velocity":0.3937007874015748},{"duration":0.35294099999998707,"midi":51,"time":151.2352185,"velocity":0.3937007874015748},{"duration":0.17647050000002196,"midi":51,"time":151.5881595,"velocity":0.3937007874015748},{"duration":0.17647050000002196,"midi":39,"time":151.5881595,"velocity":0.3937007874015748},{"duration":0.17647049999999354,"midi":51,"time":151.76463,"velocity":0.3937007874015748},{"duration":0.17647049999999354,"midi":39,"time":151.76463,"velocity":0.3937007874015748},{"duration":0.35294099999998707,"midi":51,"time":151.9411005,"velocity":0.3937007874015748},{"duration":0.35294099999998707,"midi":39,"time":151.9411005,"velocity":0.3937007874015748},{"duration":0.17647050000002196,"midi":39,"time":152.2940415,"velocity":0.3937007874015748},{"duration":0.17647050000002196,"midi":51,"time":152.2940415,"velocity":0.3937007874015748},{"duration":0.17647049999999354,"midi":50,"time":152.470512,"velocity":0.3937007874015748},{"duration":0.17647049999999354,"midi":38,"time":152.470512,"velocity":0.3937007874015748},{"duration":0.17647049999999354,"midi":38,"time":152.6469825,"velocity":0.3937007874015748},{"duration":0.17647049999999354,"midi":50,"time":152.6469825,"velocity":0.3937007874015748},{"duration":0.3529410000000155,"midi":38,"time":152.823453,"velocity":0.3937007874015748},{"duration":0.3529410000000155,"midi":50,"time":152.823453,"velocity":0.3937007874015748},{"duration":0.17647049999999354,"midi":38,"time":153.17639400000002,"velocity":0.3937007874015748},{"duration":0.17647049999999354,"midi":50,"time":153.17639400000002,"velocity":0.3937007874015748},{"duration":0.35294099999998707,"midi":38,"time":153.3528645,"velocity":0.3937007874015748},{"duration":0.35294099999998707,"midi":50,"time":153.3528645,"velocity":0.3937007874015748},{"duration":0.17647049999999354,"midi":38,"time":153.7058055,"velocity":0.3937007874015748},{"duration":0.17647049999999354,"midi":50,"time":153.7058055,"velocity":0.3937007874015748},{"duration":0.17647050000002196,"midi":38,"time":153.882276,"velocity":0.3937007874015748},{"duration":0.17647050000002196,"midi":50,"time":153.882276,"velocity":0.3937007874015748},{"duration":0.35294099999998707,"midi":38,"time":154.0587465,"velocity":0.3937007874015748},{"duration":0.35294099999998707,"midi":50,"time":154.0587465,"velocity":0.3937007874015748},{"duration":0.17647049999999354,"midi":38,"time":154.4116875,"velocity":0.3937007874015748},{"duration":0.17647049999999354,"midi":50,"time":154.4116875,"velocity":0.3937007874015748},{"duration":0.17647050000002196,"midi":50,"time":154.588158,"velocity":0.3937007874015748},{"duration":0.17647050000002196,"midi":38,"time":154.588158,"velocity":0.3937007874015748},{"duration":0.35294099999998707,"midi":38,"time":154.76462850000001,"velocity":0.3937007874015748},{"duration":0.35294099999998707,"midi":50,"time":154.76462850000001,"velocity":0.3937007874015748},{"duration":0.17647049999999354,"midi":50,"time":155.1175695,"velocity":0.3937007874015748},{"duration":0.17647049999999354,"midi":38,"time":155.1175695,"velocity":0.3937007874015748},{"duration":0.17647049999999354,"midi":41,"time":155.29404,"velocity":0.3937007874015748},{"duration":0.17647049999999354,"midi":53,"time":155.29404,"velocity":0.3937007874015748},{"duration":0.17647050000002196,"midi":41,"time":155.4705105,"velocity":0.3937007874015748},{"duration":0.17647050000002196,"midi":53,"time":155.4705105,"velocity":0.3937007874015748},{"duration":0.17647049999999354,"midi":41,"time":155.646981,"velocity":0.3937007874015748},{"duration":0.17647049999999354,"midi":53,"time":155.646981,"velocity":0.3937007874015748},{"duration":0.17647049999999354,"midi":41,"time":155.8234515,"velocity":0.3937007874015748},{"duration":0.17647049999999354,"midi":53,"time":155.8234515,"velocity":0.3937007874015748},{"duration":0.17647049999999354,"midi":53,"time":155.999922,"velocity":0.3937007874015748},{"duration":0.17647049999999354,"midi":41,"time":155.999922,"velocity":0.3937007874015748},{"duration":0.17647050000002196,"midi":53,"time":156.1763925,"velocity":0.3937007874015748},{"duration":0.17647050000002196,"midi":41,"time":156.1763925,"velocity":0.3937007874015748},{"duration":0.5294114999999806,"midi":55,"time":156.352863,"velocity":0.3937007874015748},{"duration":0.5294114999999806,"midi":43,"time":156.352863,"velocity":0.3937007874015748},{"duration":0.17647050000002196,"midi":43,"time":156.8822745,"velocity":0.3937007874015748},{"duration":0.17647050000002196,"midi":55,"time":156.8822745,"velocity":0.3937007874015748},{"duration":0.35294099999998707,"midi":55,"time":157.05874500000002,"velocity":0.3937007874015748},{"duration":0.35294099999998707,"midi":43,"time":157.05874500000002,"velocity":0.3937007874015748},{"duration":0.17647049999999354,"midi":55,"time":157.411686,"velocity":0.3937007874015748},{"duration":0.17647049999999354,"midi":43,"time":157.411686,"velocity":0.3937007874015748},{"duration":0.3529410000000155,"midi":55,"time":157.5881565,"velocity":0.3937007874015748},{"duration":0.3529410000000155,"midi":43,"time":157.5881565,"velocity":0.3937007874015748},{"duration":0.17647049999999354,"midi":43,"time":157.9410975,"velocity":0.3937007874015748},{"duration":0.17647049999999354,"midi":55,"time":157.9410975,"velocity":0.3937007874015748},{"duration":0.17647049999999354,"midi":45,"time":158.117568,"velocity":0.3937007874015748},{"duration":0.17647049999999354,"midi":38,"time":158.117568,"velocity":0.3937007874015748},{"duration":0.17647049999999354,"midi":50,"time":158.117568,"velocity":0.3937007874015748},{"duration":0.17647049999999354,"midi":45,"time":158.2940385,"velocity":0.3937007874015748},{"duration":0.17647049999999354,"midi":50,"time":158.2940385,"velocity":0.3937007874015748},{"duration":0.17647049999999354,"midi":38,"time":158.2940385,"velocity":0.3937007874015748},{"duration":0.3529410000000155,"midi":45,"time":158.470509,"velocity":0.3937007874015748},{"duration":0.3529410000000155,"midi":50,"time":158.470509,"velocity":0.3937007874015748},{"duration":0.3529410000000155,"midi":38,"time":158.470509,"velocity":0.3937007874015748},{"duration":0.17647049999999354,"midi":50,"time":158.82345,"velocity":0.3937007874015748},{"duration":0.17647049999999354,"midi":45,"time":158.82345,"velocity":0.3937007874015748},{"duration":0.17647049999999354,"midi":38,"time":158.82345,"velocity":0.3937007874015748},{"duration":0.35294099999998707,"midi":45,"time":158.9999205,"velocity":0.3937007874015748},{"duration":0.35294099999998707,"midi":38,"time":158.9999205,"velocity":0.3937007874015748},{"duration":0.35294099999998707,"midi":50,"time":158.9999205,"velocity":0.3937007874015748},{"duration":0.17647050000002196,"midi":38,"time":159.3528615,"velocity":0.3937007874015748},{"duration":0.17647050000002196,"midi":50,"time":159.3528615,"velocity":0.3937007874015748},{"duration":0.17647050000002196,"midi":45,"time":159.3528615,"velocity":0.3937007874015748},{"duration":0.17647049999999354,"midi":38,"time":159.529332,"velocity":0.3937007874015748},{"duration":0.17647049999999354,"midi":50,"time":159.529332,"velocity":0.3937007874015748},{"duration":0.17647049999999354,"midi":45,"time":159.529332,"velocity":0.3937007874015748},{"duration":0.35294099999998707,"midi":45,"time":159.7058025,"velocity":0.3937007874015748},{"duration":0.35294099999998707,"midi":38,"time":159.7058025,"velocity":0.3937007874015748},{"duration":0.35294099999998707,"midi":50,"time":159.7058025,"velocity":0.3937007874015748},{"duration":0.17647050000002196,"midi":45,"time":160.0587435,"velocity":0.3937007874015748},{"duration":0.17647050000002196,"midi":38,"time":160.0587435,"velocity":0.3937007874015748},{"duration":0.17647050000002196,"midi":50,"time":160.0587435,"velocity":0.3937007874015748},{"duration":0.17647049999999354,"midi":38,"time":160.235214,"velocity":0.3937007874015748},{"duration":0.17647049999999354,"midi":45,"time":160.235214,"velocity":0.3937007874015748},{"duration":0.17647049999999354,"midi":50,"time":160.235214,"velocity":0.3937007874015748},{"duration":0.35294099999998707,"midi":45,"time":160.4116845,"velocity":0.3937007874015748},{"duration":0.35294099999998707,"midi":50,"time":160.4116845,"velocity":0.3937007874015748},{"duration":0.35294099999998707,"midi":38,"time":160.4116845,"velocity":0.3937007874015748},{"duration":0.17647050000002196,"midi":50,"time":160.7646255,"velocity":0.3937007874015748},{"duration":0.17647050000002196,"midi":38,"time":160.7646255,"velocity":0.3937007874015748},{"duration":0.17647050000002196,"midi":45,"time":160.7646255,"velocity":0.3937007874015748},{"duration":0.17647049999999354,"midi":51,"time":160.94109600000002,"velocity":0.3937007874015748},{"duration":0.17647049999999354,"midi":46,"time":160.94109600000002,"velocity":0.3937007874015748},{"duration":0.17647049999999354,"midi":39,"time":160.94109600000002,"velocity":0.3937007874015748},{"duration":0.17647049999999354,"midi":39,"time":161.1175665,"velocity":0.3937007874015748},{"duration":0.17647049999999354,"midi":46,"time":161.1175665,"velocity":0.3937007874015748},{"duration":0.17647049999999354,"midi":51,"time":161.1175665,"velocity":0.3937007874015748},{"duration":0.35294099999998707,"midi":51,"time":161.294037,"velocity":0.3937007874015748},{"duration":0.35294099999998707,"midi":39,"time":161.294037,"velocity":0.3937007874015748},{"duration":0.35294099999998707,"midi":46,"time":161.294037,"velocity":0.3937007874015748},{"duration":0.17647050000002196,"midi":51,"time":161.646978,"velocity":0.3937007874015748},{"duration":0.17647050000002196,"midi":46,"time":161.646978,"velocity":0.3937007874015748},{"duration":0.17647050000002196,"midi":39,"time":161.646978,"velocity":0.3937007874015748},{"duration":0.35294099999998707,"midi":46,"time":161.8234485,"velocity":0.3937007874015748},{"duration":0.35294099999998707,"midi":51,"time":161.8234485,"velocity":0.3937007874015748},{"duration":0.35294099999998707,"midi":39,"time":161.8234485,"velocity":0.3937007874015748},{"duration":0.17647049999999354,"midi":51,"time":162.1763895,"velocity":0.3937007874015748},{"duration":0.17647049999999354,"midi":39,"time":162.1763895,"velocity":0.3937007874015748},{"duration":0.17647049999999354,"midi":46,"time":162.1763895,"velocity":0.3937007874015748},{"duration":0.17647050000002196,"midi":39,"time":162.35286,"velocity":0.3937007874015748},{"duration":0.17647050000002196,"midi":51,"time":162.35286,"velocity":0.3937007874015748},{"duration":0.17647050000002196,"midi":46,"time":162.35286,"velocity":0.3937007874015748},{"duration":0.35294099999998707,"midi":51,"time":162.52933050000001,"velocity":0.3937007874015748},{"duration":0.35294099999998707,"midi":46,"time":162.52933050000001,"velocity":0.3937007874015748},{"duration":0.35294099999998707,"midi":39,"time":162.52933050000001,"velocity":0.3937007874015748},{"duration":0.17647049999999354,"midi":46,"time":162.8822715,"velocity":0.3937007874015748},{"duration":0.17647049999999354,"midi":39,"time":162.8822715,"velocity":0.3937007874015748},{"duration":0.17647049999999354,"midi":51,"time":162.8822715,"velocity":0.3937007874015748},{"duration":0.17647049999999354,"midi":51,"time":163.058742,"velocity":0.3937007874015748},{"duration":0.17647049999999354,"midi":39,"time":163.058742,"velocity":0.3937007874015748},{"duration":0.17647049999999354,"midi":46,"time":163.058742,"velocity":0.3937007874015748},{"duration":0.3529410000000155,"midi":51,"time":163.2352125,"velocity":0.3937007874015748},{"duration":0.3529410000000155,"midi":46,"time":163.2352125,"velocity":0.3937007874015748},{"duration":0.3529410000000155,"midi":39,"time":163.2352125,"velocity":0.3937007874015748},{"duration":0.17647049999999354,"midi":46,"time":163.5881535,"velocity":0.3937007874015748},{"duration":0.17647049999999354,"midi":39,"time":163.5881535,"velocity":0.3937007874015748},{"duration":0.17647049999999354,"midi":51,"time":163.5881535,"velocity":0.3937007874015748},{"duration":0.17647049999999354,"midi":45,"time":163.764624,"velocity":0.3937007874015748},{"duration":0.17647049999999354,"midi":38,"time":163.764624,"velocity":0.3937007874015748},{"duration":0.17647049999999354,"midi":50,"time":163.764624,"velocity":0.3937007874015748},{"duration":0.17647050000002196,"midi":45,"time":163.9410945,"velocity":0.3937007874015748},{"duration":0.17647050000002196,"midi":38,"time":163.9410945,"velocity":0.3937007874015748},{"duration":0.17647050000002196,"midi":50,"time":163.9410945,"velocity":0.3937007874015748},{"duration":0.35294099999998707,"midi":38,"time":164.117565,"velocity":0.3937007874015748},{"duration":0.35294099999998707,"midi":45,"time":164.117565,"velocity":0.3937007874015748},{"duration":0.35294099999998707,"midi":50,"time":164.117565,"velocity":0.3937007874015748},{"duration":0.17647049999999354,"midi":50,"time":164.470506,"velocity":0.3937007874015748},{"duration":0.17647049999999354,"midi":45,"time":164.470506,"velocity":0.3937007874015748},{"duration":0.17647049999999354,"midi":38,"time":164.470506,"velocity":0.3937007874015748},{"duration":0.3529410000000155,"midi":45,"time":164.6469765,"velocity":0.3937007874015748},{"duration":0.3529410000000155,"midi":38,"time":164.6469765,"velocity":0.3937007874015748},{"duration":0.3529410000000155,"midi":50,"time":164.6469765,"velocity":0.3937007874015748},{"duration":0.17647049999999354,"midi":38,"time":164.9999175,"velocity":0.3937007874015748},{"duration":0.17647049999999354,"midi":50,"time":164.9999175,"velocity":0.3937007874015748},{"duration":0.17647049999999354,"midi":45,"time":164.9999175,"velocity":0.3937007874015748},{"duration":0.17647049999999354,"midi":45,"time":165.176388,"velocity":0.3937007874015748},{"duration":0.17647049999999354,"midi":38,"time":165.176388,"velocity":0.3937007874015748},{"duration":0.17647049999999354,"midi":50,"time":165.176388,"velocity":0.3937007874015748},{"duration":0.3529410000000155,"midi":38,"time":165.3528585,"velocity":0.3937007874015748},{"duration":0.3529410000000155,"midi":45,"time":165.3528585,"velocity":0.3937007874015748},{"duration":0.3529410000000155,"midi":50,"time":165.3528585,"velocity":0.3937007874015748},{"duration":0.17647049999999354,"midi":45,"time":165.7057995,"velocity":0.3937007874015748},{"duration":0.17647049999999354,"midi":38,"time":165.7057995,"velocity":0.3937007874015748},{"duration":0.17647049999999354,"midi":50,"time":165.7057995,"velocity":0.3937007874015748},{"duration":0.17647049999999354,"midi":38,"time":165.88227,"velocity":0.3937007874015748},{"duration":0.17647049999999354,"midi":50,"time":165.88227,"velocity":0.3937007874015748},{"duration":0.17647049999999354,"midi":45,"time":165.88227,"velocity":0.3937007874015748},{"duration":0.3529410000000155,"midi":45,"time":166.0587405,"velocity":0.3937007874015748},{"duration":0.3529410000000155,"midi":38,"time":166.0587405,"velocity":0.3937007874015748},{"duration":0.3529410000000155,"midi":50,"time":166.0587405,"velocity":0.3937007874015748},{"duration":0.17647049999999354,"midi":45,"time":166.41168150000001,"velocity":0.3937007874015748},{"duration":0.17647049999999354,"midi":50,"time":166.41168150000001,"velocity":0.3937007874015748},{"duration":0.17647049999999354,"midi":38,"time":166.41168150000001,"velocity":0.3937007874015748},{"duration":0.17647049999999354,"midi":53,"time":166.588152,"velocity":0.3937007874015748},{"duration":0.17647049999999354,"midi":48,"time":166.588152,"velocity":0.3937007874015748},{"duration":0.17647049999999354,"midi":41,"time":166.588152,"velocity":0.3937007874015748},{"duration":0.17647049999999354,"midi":48,"time":166.7646225,"velocity":0.3937007874015748},{"duration":0.17647049999999354,"midi":41,"time":166.7646225,"velocity":0.3937007874015748},{"duration":0.17647049999999354,"midi":53,"time":166.7646225,"velocity":0.3937007874015748},{"duration":0.17647049999999354,"midi":53,"time":166.941093,"velocity":0.3937007874015748},{"duration":0.17647049999999354,"midi":48,"time":166.941093,"velocity":0.3937007874015748},{"duration":0.17647049999999354,"midi":41,"time":166.941093,"velocity":0.3937007874015748},{"duration":0.17647050000002196,"midi":41,"time":167.1175635,"velocity":0.3937007874015748},{"duration":0.17647050000002196,"midi":48,"time":167.1175635,"velocity":0.3937007874015748},{"duration":0.17647050000002196,"midi":53,"time":167.1175635,"velocity":0.3937007874015748},{"duration":0.17647049999999354,"midi":48,"time":167.294034,"velocity":0.3937007874015748},{"duration":0.17647049999999354,"midi":41,"time":167.294034,"velocity":0.3937007874015748},{"duration":0.17647049999999354,"midi":53,"time":167.294034,"velocity":0.3937007874015748},{"duration":0.17647049999999354,"midi":41,"time":167.4705045,"velocity":0.3937007874015748},{"duration":0.17647049999999354,"midi":53,"time":167.4705045,"velocity":0.3937007874015748},{"duration":0.17647049999999354,"midi":48,"time":167.4705045,"velocity":0.3937007874015748},{"duration":0.529411500000009,"midi":55,"time":167.646975,"velocity":0.3937007874015748},{"duration":0.529411500000009,"midi":50,"time":167.646975,"velocity":0.3937007874015748},{"duration":0.529411500000009,"midi":43,"time":167.646975,"velocity":0.3937007874015748},{"duration":0.17647049999999354,"midi":43,"time":168.1763865,"velocity":0.3937007874015748},{"duration":0.17647049999999354,"midi":50,"time":168.1763865,"velocity":0.3937007874015748},{"duration":0.17647049999999354,"midi":55,"time":168.1763865,"velocity":0.3937007874015748},{"duration":0.3529410000000155,"midi":55,"time":168.352857,"velocity":0.3937007874015748},{"duration":0.3529410000000155,"midi":43,"time":168.352857,"velocity":0.3937007874015748},{"duration":0.3529410000000155,"midi":50,"time":168.352857,"velocity":0.3937007874015748},{"duration":0.17647049999999354,"midi":55,"time":168.70579800000002,"velocity":0.3937007874015748},{"duration":0.17647049999999354,"midi":43,"time":168.70579800000002,"velocity":0.3937007874015748},{"duration":0.17647049999999354,"midi":50,"time":168.70579800000002,"velocity":0.3937007874015748},{"duration":0.35294099999998707,"midi":55,"time":168.8822685,"velocity":0.3937007874015748},{"duration":0.35294099999998707,"midi":43,"time":168.8822685,"velocity":0.3937007874015748},{"duration":0.35294099999998707,"midi":50,"time":168.8822685,"velocity":0.3937007874015748},{"duration":0.17647049999999354,"midi":55,"time":169.2352095,"velocity":0.3937007874015748},{"duration":0.17647049999999354,"midi":43,"time":169.2352095,"velocity":0.3937007874015748},{"duration":0.17647049999999354,"midi":50,"time":169.2352095,"velocity":0.3937007874015748},{"duration":2.8235280000000103,"midi":36,"time":169.41168,"velocity":0.3937007874015748},{"duration":2.8235280000000103,"midi":48,"time":169.41168,"velocity":0.3937007874015748},{"duration":1.7647049999999922,"midi":38,"time":172.235208,"velocity":0.3937007874015748},{"duration":1.7647049999999922,"midi":50,"time":172.235208,"velocity":0.3937007874015748},{"duration":0.17647049999999354,"midi":38,"time":174.17638350000001,"velocity":0.3937007874015748},{"duration":0.17647049999999354,"midi":50,"time":174.17638350000001,"velocity":0.3937007874015748},{"duration":0.17647049999999354,"midi":38,"time":174.352854,"velocity":0.3937007874015748},{"duration":0.17647049999999354,"midi":50,"time":174.352854,"velocity":0.3937007874015748},{"duration":0.35294099999998707,"midi":38,"time":174.5293245,"velocity":0.3937007874015748},{"duration":0.35294099999998707,"midi":50,"time":174.5293245,"velocity":0.3937007874015748},{"duration":0.17647050000002196,"midi":50,"time":174.8822655,"velocity":0.3937007874015748},{"duration":0.17647050000002196,"midi":38,"time":174.8822655,"velocity":0.3937007874015748},{"duration":0.17647049999999354,"midi":39,"time":175.058736,"velocity":0.3937007874015748},{"duration":0.17647049999999354,"midi":51,"time":175.058736,"velocity":0.3937007874015748},{"duration":0.35294099999998707,"midi":51,"time":175.2352065,"velocity":0.3937007874015748},{"duration":0.35294099999998707,"midi":39,"time":175.2352065,"velocity":0.3937007874015748},{"duration":0.17647050000002196,"midi":51,"time":175.5881475,"velocity":0.3937007874015748},{"duration":0.17647050000002196,"midi":39,"time":175.5881475,"velocity":0.3937007874015748},{"duration":0.17647049999999354,"midi":39,"time":175.764618,"velocity":0.3937007874015748},{"duration":0.17647049999999354,"midi":51,"time":175.764618,"velocity":0.3937007874015748},{"duration":0.35294099999998707,"midi":51,"time":175.9410885,"velocity":0.3937007874015748},{"duration":0.35294099999998707,"midi":39,"time":175.9410885,"velocity":0.3937007874015748},{"duration":0.17647050000002196,"midi":51,"time":176.2940295,"velocity":0.3937007874015748},{"duration":0.17647050000002196,"midi":39,"time":176.2940295,"velocity":0.3937007874015748},{"duration":0.17647049999999354,"midi":39,"time":176.47050000000002,"velocity":0.3937007874015748},{"duration":0.17647049999999354,"midi":51,"time":176.47050000000002,"velocity":0.3937007874015748},{"duration":0.35294099999998707,"midi":51,"time":176.6469705,"velocity":0.3937007874015748},{"duration":0.35294099999998707,"midi":39,"time":176.6469705,"velocity":0.3937007874015748},{"duration":0.17647049999999354,"midi":39,"time":176.9999115,"velocity":0.3937007874015748},{"duration":0.17647049999999354,"midi":51,"time":176.9999115,"velocity":0.3937007874015748},{"duration":0.17647050000002196,"midi":51,"time":177.176382,"velocity":0.3937007874015748},{"duration":0.17647050000002196,"midi":39,"time":177.176382,"velocity":0.3937007874015748},{"duration":0.35294099999998707,"midi":51,"time":177.3528525,"velocity":0.3937007874015748},{"duration":0.35294099999998707,"midi":39,"time":177.3528525,"velocity":0.3937007874015748},{"duration":0.17647049999999354,"midi":51,"time":177.7057935,"velocity":0.3937007874015748},{"duration":0.17647049999999354,"midi":39,"time":177.7057935,"velocity":0.3937007874015748},{"duration":0.17647049999999354,"midi":32,"time":204.70578,"velocity":0.3937007874015748},{"duration":0.17647049999999354,"midi":44,"time":204.70578,"velocity":0.3937007874015748},{"duration":0.17647049999999354,"midi":39,"time":204.70578,"velocity":0.3937007874015748},{"duration":0.17647049999999354,"midi":32,"time":204.8822505,"velocity":0.3937007874015748},{"duration":0.17647049999999354,"midi":44,"time":204.8822505,"velocity":0.3937007874015748},{"duration":0.17647049999999354,"midi":39,"time":204.8822505,"velocity":0.3937007874015748},{"duration":0.3529410000000155,"midi":39,"time":205.058721,"velocity":0.3937007874015748},{"duration":0.3529410000000155,"midi":32,"time":205.058721,"velocity":0.3937007874015748},{"duration":0.3529410000000155,"midi":44,"time":205.058721,"velocity":0.3937007874015748},{"duration":0.17647049999999354,"midi":44,"time":205.411662,"velocity":0.3937007874015748},{"duration":0.17647049999999354,"midi":32,"time":205.411662,"velocity":0.3937007874015748},{"duration":0.17647049999999354,"midi":39,"time":205.411662,"velocity":0.3937007874015748},{"duration":0.3529410000000155,"midi":39,"time":205.5881325,"velocity":0.3937007874015748},{"duration":0.3529410000000155,"midi":32,"time":205.5881325,"velocity":0.3937007874015748},{"duration":0.3529410000000155,"midi":44,"time":205.5881325,"velocity":0.3937007874015748},{"duration":0.17647049999999354,"midi":44,"time":205.94107350000002,"velocity":0.3937007874015748},{"duration":0.17647049999999354,"midi":39,"time":205.94107350000002,"velocity":0.3937007874015748},{"duration":0.17647049999999354,"midi":32,"time":205.94107350000002,"velocity":0.3937007874015748},{"duration":0.17647049999999354,"midi":31,"time":206.117544,"velocity":0.3937007874015748},{"duration":0.17647049999999354,"midi":43,"time":206.117544,"velocity":0.3937007874015748},{"duration":0.17647049999999354,"midi":38,"time":206.117544,"velocity":0.3937007874015748},{"duration":0.35294099999998707,"midi":43,"time":206.2940145,"velocity":0.3937007874015748},{"duration":0.35294099999998707,"midi":38,"time":206.2940145,"velocity":0.3937007874015748},{"duration":0.35294099999998707,"midi":31,"time":206.2940145,"velocity":0.3937007874015748},{"duration":0.17647050000002196,"midi":43,"time":206.6469555,"velocity":0.3937007874015748},{"duration":0.17647050000002196,"midi":38,"time":206.6469555,"velocity":0.3937007874015748},{"duration":0.17647050000002196,"midi":31,"time":206.6469555,"velocity":0.3937007874015748},{"duration":0.17647049999999354,"midi":31,"time":206.823426,"velocity":0.3937007874015748},{"duration":0.17647049999999354,"midi":43,"time":206.823426,"velocity":0.3937007874015748},{"duration":0.17647049999999354,"midi":38,"time":206.823426,"velocity":0.3937007874015748},{"duration":0.35294099999998707,"midi":31,"time":206.9998965,"velocity":0.3937007874015748},{"duration":0.35294099999998707,"midi":43,"time":206.9998965,"velocity":0.3937007874015748},{"duration":0.35294099999998707,"midi":38,"time":206.9998965,"velocity":0.3937007874015748},{"duration":0.17647050000002196,"midi":43,"time":207.3528375,"velocity":0.3937007874015748},{"duration":0.17647050000002196,"midi":38,"time":207.3528375,"velocity":0.3937007874015748},{"duration":0.17647050000002196,"midi":31,"time":207.3528375,"velocity":0.3937007874015748},{"duration":0.17647049999999354,"midi":30,"time":207.52930800000001,"velocity":0.3937007874015748},{"duration":0.17647049999999354,"midi":37,"time":207.52930800000001,"velocity":0.3937007874015748},{"duration":0.17647049999999354,"midi":42,"time":207.52930800000001,"velocity":0.3937007874015748},{"duration":0.17647049999999354,"midi":42,"time":207.7057785,"velocity":0.3937007874015748},{"duration":0.17647049999999354,"midi":37,"time":207.7057785,"velocity":0.3937007874015748},{"duration":0.17647049999999354,"midi":30,"time":207.7057785,"velocity":0.3937007874015748},{"duration":0.35294099999998707,"midi":42,"time":207.882249,"velocity":0.3937007874015748},{"duration":0.35294099999998707,"midi":37,"time":207.882249,"velocity":0.3937007874015748},{"duration":0.35294099999998707,"midi":30,"time":207.882249,"velocity":0.3937007874015748},{"duration":0.17647050000002196,"midi":42,"time":208.23519,"velocity":0.3937007874015748},{"duration":0.17647050000002196,"midi":30,"time":208.23519,"velocity":0.3937007874015748},{"duration":0.17647050000002196,"midi":37,"time":208.23519,"velocity":0.3937007874015748},{"duration":0.35294099999998707,"midi":37,"time":208.4116605,"velocity":0.3937007874015748},{"duration":0.35294099999998707,"midi":42,"time":208.4116605,"velocity":0.3937007874015748},{"duration":0.35294099999998707,"midi":30,"time":208.4116605,"velocity":0.3937007874015748},{"duration":0.17647049999999354,"midi":37,"time":208.7646015,"velocity":0.3937007874015748},{"duration":0.17647049999999354,"midi":42,"time":208.7646015,"velocity":0.3937007874015748},{"duration":0.17647049999999354,"midi":30,"time":208.7646015,"velocity":0.3937007874015748},{"duration":0.17647050000002196,"midi":41,"time":208.941072,"velocity":0.3937007874015748},{"duration":0.17647050000002196,"midi":29,"time":208.941072,"velocity":0.3937007874015748},{"duration":0.17647050000002196,"midi":36,"time":208.941072,"velocity":0.3937007874015748},{"duration":0.35294099999998707,"midi":29,"time":209.1175425,"velocity":0.3937007874015748},{"duration":0.35294099999998707,"midi":36,"time":209.1175425,"velocity":0.3937007874015748},{"duration":0.35294099999998707,"midi":41,"time":209.1175425,"velocity":0.3937007874015748},{"duration":0.17647049999999354,"midi":41,"time":209.4704835,"velocity":0.3937007874015748},{"duration":0.17647049999999354,"midi":36,"time":209.4704835,"velocity":0.3937007874015748},{"duration":0.17647049999999354,"midi":29,"time":209.4704835,"velocity":0.3937007874015748},{"duration":0.17647050000002196,"midi":41,"time":209.646954,"velocity":0.3937007874015748},{"duration":0.17647050000002196,"midi":36,"time":209.646954,"velocity":0.3937007874015748},{"duration":0.17647050000002196,"midi":29,"time":209.646954,"velocity":0.3937007874015748},{"duration":0.35294099999998707,"midi":36,"time":209.82342450000002,"velocity":0.3937007874015748},{"duration":0.35294099999998707,"midi":41,"time":209.82342450000002,"velocity":0.3937007874015748},{"duration":0.35294099999998707,"midi":29,"time":209.82342450000002,"velocity":0.3937007874015748},{"duration":0.17647049999999354,"midi":29,"time":210.1763655,"velocity":0.3937007874015748},{"duration":0.17647049999999354,"midi":36,"time":210.1763655,"velocity":0.3937007874015748},{"duration":0.17647049999999354,"midi":41,"time":210.1763655,"velocity":0.3937007874015748},{"duration":0.17647049999999354,"midi":40,"time":210.352836,"velocity":0.3937007874015748},{"duration":0.17647049999999354,"midi":28,"time":210.352836,"velocity":0.3937007874015748},{"duration":0.17647049999999354,"midi":35,"time":210.352836,"velocity":0.3937007874015748},{"duration":0.17647050000002196,"midi":40,"time":210.5293065,"velocity":0.3937007874015748},{"duration":0.17647050000002196,"midi":35,"time":210.5293065,"velocity":0.3937007874015748},{"duration":0.17647050000002196,"midi":28,"time":210.5293065,"velocity":0.3937007874015748},{"duration":0.35294099999998707,"midi":40,"time":210.705777,"velocity":0.3937007874015748},{"duration":0.35294099999998707,"midi":28,"time":210.705777,"velocity":0.3937007874015748},{"duration":0.35294099999998707,"midi":35,"time":210.705777,"velocity":0.3937007874015748},{"duration":0.17647049999999354,"midi":28,"time":211.058718,"velocity":0.3937007874015748},{"duration":0.17647049999999354,"midi":35,"time":211.058718,"velocity":0.3937007874015748},{"duration":0.17647049999999354,"midi":40,"time":211.058718,"velocity":0.3937007874015748},{"duration":0.3529410000000155,"midi":40,"time":211.2351885,"velocity":0.3937007874015748},{"duration":0.3529410000000155,"midi":28,"time":211.2351885,"velocity":0.3937007874015748},{"duration":0.3529410000000155,"midi":35,"time":211.2351885,"velocity":0.3937007874015748},{"duration":0.17647049999999354,"midi":35,"time":211.5881295,"velocity":0.3937007874015748},{"duration":0.17647049999999354,"midi":28,"time":211.5881295,"velocity":0.3937007874015748},{"duration":0.17647049999999354,"midi":40,"time":211.5881295,"velocity":0.3937007874015748},{"duration":0.17647049999999354,"midi":34,"time":211.7646,"velocity":0.3937007874015748},{"duration":0.17647049999999354,"midi":39,"time":211.7646,"velocity":0.3937007874015748},{"duration":0.17647049999999354,"midi":27,"time":211.7646,"velocity":0.3937007874015748},{"duration":0.3529410000000155,"midi":27,"time":211.9410705,"velocity":0.3937007874015748},{"duration":0.3529410000000155,"midi":34,"time":211.9410705,"velocity":0.3937007874015748},{"duration":0.3529410000000155,"midi":39,"time":211.9410705,"velocity":0.3937007874015748},{"duration":0.17647049999999354,"midi":34,"time":212.2940115,"velocity":0.3937007874015748},{"duration":0.17647049999999354,"midi":27,"time":212.2940115,"velocity":0.3937007874015748},{"duration":0.17647049999999354,"midi":39,"time":212.2940115,"velocity":0.3937007874015748},{"duration":0.17647049999999354,"midi":39,"time":212.470482,"velocity":0.3937007874015748},{"duration":0.17647049999999354,"midi":34,"time":212.470482,"velocity":0.3937007874015748},{"duration":0.17647049999999354,"midi":27,"time":212.470482,"velocity":0.3937007874015748},{"duration":0.3529410000000155,"midi":27,"time":212.6469525,"velocity":0.3937007874015748},{"duration":0.3529410000000155,"midi":34,"time":212.6469525,"velocity":0.3937007874015748},{"duration":0.3529410000000155,"midi":39,"time":212.6469525,"velocity":0.3937007874015748},{"duration":0.17647049999999354,"midi":34,"time":212.9998935,"velocity":0.3937007874015748},{"duration":0.17647049999999354,"midi":39,"time":212.9998935,"velocity":0.3937007874015748},{"duration":0.17647049999999354,"midi":27,"time":212.9998935,"velocity":0.3937007874015748},{"duration":0.17647049999999354,"midi":26,"time":213.176364,"velocity":0.3937007874015748},{"duration":0.17647049999999354,"midi":33,"time":213.176364,"velocity":0.3937007874015748},{"duration":0.17647049999999354,"midi":38,"time":213.176364,"velocity":0.3937007874015748},{"duration":0.17647049999999354,"midi":26,"time":213.3528345,"velocity":0.3937007874015748},{"duration":0.17647049999999354,"midi":33,"time":213.3528345,"velocity":0.3937007874015748},{"duration":0.17647049999999354,"midi":38,"time":213.3528345,"velocity":0.3937007874015748},{"duration":0.3529410000000155,"midi":26,"time":213.529305,"velocity":0.3937007874015748},{"duration":0.3529410000000155,"midi":33,"time":213.529305,"velocity":0.3937007874015748},{"duration":0.3529410000000155,"midi":38,"time":213.529305,"velocity":0.3937007874015748},{"duration":0.17647049999999354,"midi":33,"time":213.882246,"velocity":0.3937007874015748},{"duration":0.17647049999999354,"midi":26,"time":213.882246,"velocity":0.3937007874015748},{"duration":0.17647049999999354,"midi":38,"time":213.882246,"velocity":0.3937007874015748},{"duration":0.35294099999998707,"midi":26,"time":214.0587165,"velocity":0.3937007874015748},{"duration":0.35294099999998707,"midi":33,"time":214.0587165,"velocity":0.3937007874015748},{"duration":0.35294099999998707,"midi":38,"time":214.0587165,"velocity":0.3937007874015748},{"duration":0.17647050000002196,"midi":26,"time":214.4116575,"velocity":0.3937007874015748},{"duration":0.17647050000002196,"midi":33,"time":214.4116575,"velocity":0.3937007874015748},{"duration":0.17647050000002196,"midi":38,"time":214.4116575,"velocity":0.3937007874015748},{"duration":0.17647049999999354,"midi":25,"time":214.588128,"velocity":0.3937007874015748},{"duration":0.17647049999999354,"midi":32,"time":214.588128,"velocity":0.3937007874015748},{"duration":0.17647049999999354,"midi":37,"time":214.588128,"velocity":0.3937007874015748},{"duration":0.35294099999998707,"midi":25,"time":214.7645985,"velocity":0.3937007874015748},{"duration":0.35294099999998707,"midi":32,"time":214.7645985,"velocity":0.3937007874015748},{"duration":0.35294099999998707,"midi":37,"time":214.7645985,"velocity":0.3937007874015748},{"duration":0.17647050000002196,"midi":32,"time":215.1175395,"velocity":0.3937007874015748},{"duration":0.17647050000002196,"midi":25,"time":215.1175395,"velocity":0.3937007874015748},{"duration":0.17647050000002196,"midi":37,"time":215.1175395,"velocity":0.3937007874015748},{"duration":0.17647049999999354,"midi":41,"time":215.29401000000001,"velocity":0.3937007874015748},{"duration":0.17647049999999354,"midi":36,"time":215.29401000000001,"velocity":0.3937007874015748},{"duration":0.17647049999999354,"midi":29,"time":215.29401000000001,"velocity":0.3937007874015748},{"duration":0.35294099999998707,"midi":36,"time":215.4704805,"velocity":0.3937007874015748},{"duration":0.35294099999998707,"midi":41,"time":215.4704805,"velocity":0.3937007874015748},{"duration":0.35294099999998707,"midi":29,"time":215.4704805,"velocity":0.3937007874015748},{"duration":0.17647050000002196,"midi":36,"time":215.8234215,"velocity":0.3937007874015748},{"duration":0.17647050000002196,"midi":29,"time":215.8234215,"velocity":0.3937007874015748},{"duration":0.17647050000002196,"midi":41,"time":215.8234215,"velocity":0.3937007874015748},{"duration":0.17647049999999354,"midi":39,"time":215.99989200000002,"velocity":0.3937007874015748},{"duration":0.17647049999999354,"midi":32,"time":215.99989200000002,"velocity":0.3937007874015748},{"duration":0.17647049999999354,"midi":44,"time":215.99989200000002,"velocity":0.3937007874015748},{"duration":0.17647049999999354,"midi":44,"time":216.1763625,"velocity":0.3937007874015748},{"duration":0.17647049999999354,"midi":39,"time":216.1763625,"velocity":0.3937007874015748},{"duration":0.17647049999999354,"midi":32,"time":216.1763625,"velocity":0.3937007874015748},{"duration":0.35294099999998707,"midi":32,"time":216.352833,"velocity":0.3937007874015748},{"duration":0.35294099999998707,"midi":39,"time":216.352833,"velocity":0.3937007874015748},{"duration":0.35294099999998707,"midi":44,"time":216.352833,"velocity":0.3937007874015748},{"duration":0.17647050000002196,"midi":44,"time":216.705774,"velocity":0.3937007874015748},{"duration":0.17647050000002196,"midi":32,"time":216.705774,"velocity":0.3937007874015748},{"duration":0.17647050000002196,"midi":39,"time":216.705774,"velocity":0.3937007874015748},{"duration":0.35294099999998707,"midi":44,"time":216.8822445,"velocity":0.3937007874015748},{"duration":0.35294099999998707,"midi":32,"time":216.8822445,"velocity":0.3937007874015748},{"duration":0.35294099999998707,"midi":39,"time":216.8822445,"velocity":0.3937007874015748},{"duration":0.17647049999999354,"midi":44,"time":217.2351855,"velocity":0.3937007874015748},{"duration":0.17647049999999354,"midi":39,"time":217.2351855,"velocity":0.3937007874015748},{"duration":0.17647049999999354,"midi":32,"time":217.2351855,"velocity":0.3937007874015748},{"duration":0.17647050000002196,"midi":31,"time":217.411656,"velocity":0.3937007874015748},{"duration":0.17647050000002196,"midi":38,"time":217.411656,"velocity":0.3937007874015748},{"duration":0.17647050000002196,"midi":43,"time":217.411656,"velocity":0.3937007874015748},{"duration":0.35294099999998707,"midi":43,"time":217.58812650000002,"velocity":0.3937007874015748},{"duration":0.35294099999998707,"midi":38,"time":217.58812650000002,"velocity":0.3937007874015748},{"duration":0.35294099999998707,"midi":31,"time":217.58812650000002,"velocity":0.3937007874015748},{"duration":0.17647049999999354,"midi":43,"time":217.9410675,"velocity":0.3937007874015748},{"duration":0.17647049999999354,"midi":38,"time":217.9410675,"velocity":0.3937007874015748},{"duration":0.17647049999999354,"midi":31,"time":217.9410675,"velocity":0.3937007874015748},{"duration":0.17647049999999354,"midi":31,"time":218.117538,"velocity":0.3937007874015748},{"duration":0.17647049999999354,"midi":43,"time":218.117538,"velocity":0.3937007874015748},{"duration":0.17647049999999354,"midi":38,"time":218.117538,"velocity":0.3937007874015748},{"duration":0.3529410000000155,"midi":43,"time":218.2940085,"velocity":0.3937007874015748},{"duration":0.3529410000000155,"midi":31,"time":218.2940085,"velocity":0.3937007874015748},{"duration":0.3529410000000155,"midi":38,"time":218.2940085,"velocity":0.3937007874015748},{"duration":0.17647049999999354,"midi":31,"time":218.6469495,"velocity":0.3937007874015748},{"duration":0.17647049999999354,"midi":43,"time":218.6469495,"velocity":0.3937007874015748},{"duration":0.17647049999999354,"midi":38,"time":218.6469495,"velocity":0.3937007874015748},{"duration":0.17647049999999354,"midi":42,"time":218.82342,"velocity":0.3937007874015748},{"duration":0.17647049999999354,"midi":30,"time":218.82342,"velocity":0.3937007874015748},{"duration":0.17647049999999354,"midi":37,"time":218.82342,"velocity":0.3937007874015748},{"duration":0.17647050000002196,"midi":42,"time":218.9998905,"velocity":0.3937007874015748},{"duration":0.17647050000002196,"midi":37,"time":218.9998905,"velocity":0.3937007874015748},{"duration":0.17647050000002196,"midi":30,"time":218.9998905,"velocity":0.3937007874015748},{"duration":0.35294099999998707,"midi":30,"time":219.176361,"velocity":0.3937007874015748},{"duration":0.35294099999998707,"midi":37,"time":219.176361,"velocity":0.3937007874015748},{"duration":0.35294099999998707,"midi":42,"time":219.176361,"velocity":0.3937007874015748},{"duration":0.17647049999999354,"midi":42,"time":219.529302,"velocity":0.3937007874015748},{"duration":0.17647049999999354,"midi":37,"time":219.529302,"velocity":0.3937007874015748},{"duration":0.17647049999999354,"midi":30,"time":219.529302,"velocity":0.3937007874015748},{"duration":0.3529410000000155,"midi":30,"time":219.7057725,"velocity":0.3937007874015748},{"duration":0.3529410000000155,"midi":37,"time":219.7057725,"velocity":0.3937007874015748},{"duration":0.3529410000000155,"midi":42,"time":219.7057725,"velocity":0.3937007874015748},{"duration":0.17647049999999354,"midi":37,"time":220.0587135,"velocity":0.3937007874015748},{"duration":0.17647049999999354,"midi":42,"time":220.0587135,"velocity":0.3937007874015748},{"duration":0.17647049999999354,"midi":30,"time":220.0587135,"velocity":0.3937007874015748},{"duration":0.17647049999999354,"midi":41,"time":220.235184,"velocity":0.3937007874015748},{"duration":0.17647049999999354,"midi":36,"time":220.235184,"velocity":0.3937007874015748},{"duration":0.17647049999999354,"midi":29,"time":220.235184,"velocity":0.3937007874015748},{"duration":0.3529410000000155,"midi":29,"time":220.4116545,"velocity":0.3937007874015748},{"duration":0.3529410000000155,"midi":36,"time":220.4116545,"velocity":0.3937007874015748},{"duration":0.3529410000000155,"midi":41,"time":220.4116545,"velocity":0.3937007874015748},{"duration":0.17647049999999354,"midi":36,"time":220.7645955,"velocity":0.3937007874015748},{"duration":0.17647049999999354,"midi":29,"time":220.7645955,"velocity":0.3937007874015748},{"duration":0.17647049999999354,"midi":41,"time":220.7645955,"velocity":0.3937007874015748},{"duration":0.17647049999999354,"midi":36,"time":220.941066,"velocity":0.3937007874015748},{"duration":0.17647049999999354,"midi":29,"time":220.941066,"velocity":0.3937007874015748},{"duration":0.17647049999999354,"midi":41,"time":220.941066,"velocity":0.3937007874015748},{"duration":0.3529410000000155,"midi":29,"time":221.1175365,"velocity":0.3937007874015748},{"duration":0.3529410000000155,"midi":36,"time":221.1175365,"velocity":0.3937007874015748},{"duration":0.3529410000000155,"midi":41,"time":221.1175365,"velocity":0.3937007874015748},{"duration":0.17647049999999354,"midi":29,"time":221.47047750000002,"velocity":0.3937007874015748},{"duration":0.17647049999999354,"midi":41,"time":221.47047750000002,"velocity":0.3937007874015748},{"duration":0.17647049999999354,"midi":36,"time":221.47047750000002,"velocity":0.3937007874015748},{"duration":0.17647049999999354,"midi":35,"time":221.646948,"velocity":0.3937007874015748},{"duration":0.17647049999999354,"midi":40,"time":221.646948,"velocity":0.3937007874015748},{"duration":0.17647049999999354,"midi":28,"time":221.646948,"velocity":0.3937007874015748},{"duration":0.17647049999999354,"midi":28,"time":221.8234185,"velocity":0.3937007874015748},{"duration":0.17647049999999354,"midi":35,"time":221.8234185,"velocity":0.3937007874015748},{"duration":0.17647049999999354,"midi":40,"time":221.8234185,"velocity":0.3937007874015748},{"duration":0.3529410000000155,"midi":28,"time":221.999889,"velocity":0.3937007874015748},{"duration":0.3529410000000155,"midi":40,"time":221.999889,"velocity":0.3937007874015748},{"duration":0.3529410000000155,"midi":35,"time":221.999889,"velocity":0.3937007874015748},{"duration":0.17647049999999354,"midi":35,"time":222.35283,"velocity":0.3937007874015748},{"duration":0.17647049999999354,"midi":40,"time":222.35283,"velocity":0.3937007874015748},{"duration":0.17647049999999354,"midi":28,"time":222.35283,"velocity":0.3937007874015748},{"duration":0.35294099999998707,"midi":28,"time":222.5293005,"velocity":0.3937007874015748},{"duration":0.35294099999998707,"midi":40,"time":222.5293005,"velocity":0.3937007874015748},{"duration":0.35294099999998707,"midi":35,"time":222.5293005,"velocity":0.3937007874015748},{"duration":0.17647050000002196,"midi":28,"time":222.8822415,"velocity":0.3937007874015748},{"duration":0.17647050000002196,"midi":35,"time":222.8822415,"velocity":0.3937007874015748},{"duration":0.17647050000002196,"midi":40,"time":222.8822415,"velocity":0.3937007874015748},{"duration":0.17647049999999354,"midi":27,"time":223.058712,"velocity":0.3937007874015748},{"duration":0.17647049999999354,"midi":34,"time":223.058712,"velocity":0.3937007874015748},{"duration":0.17647049999999354,"midi":39,"time":223.058712,"velocity":0.3937007874015748},{"duration":0.35294099999998707,"midi":27,"time":223.2351825,"velocity":0.3937007874015748},{"duration":0.35294099999998707,"midi":34,"time":223.2351825,"velocity":0.3937007874015748},{"duration":0.35294099999998707,"midi":39,"time":223.2351825,"velocity":0.3937007874015748},{"duration":0.17647050000002196,"midi":27,"time":223.5881235,"velocity":0.3937007874015748},{"duration":0.17647050000002196,"midi":34,"time":223.5881235,"velocity":0.3937007874015748},{"duration":0.17647050000002196,"midi":39,"time":223.5881235,"velocity":0.3937007874015748},{"duration":0.17647049999999354,"midi":34,"time":223.76459400000002,"velocity":0.3937007874015748},{"duration":0.17647049999999354,"midi":27,"time":223.76459400000002,"velocity":0.3937007874015748},{"duration":0.17647049999999354,"midi":39,"time":223.76459400000002,"velocity":0.3937007874015748},{"duration":0.35294099999998707,"midi":39,"time":223.9410645,"velocity":0.3937007874015748},{"duration":0.35294099999998707,"midi":27,"time":223.9410645,"velocity":0.3937007874015748},{"duration":0.35294099999998707,"midi":34,"time":223.9410645,"velocity":0.3937007874015748},{"duration":0.17647049999999354,"midi":27,"time":224.2940055,"velocity":0.3937007874015748},{"duration":0.17647049999999354,"midi":34,"time":224.2940055,"velocity":0.3937007874015748},{"duration":0.17647049999999354,"midi":39,"time":224.2940055,"velocity":0.3937007874015748},{"duration":0.17647050000002196,"midi":38,"time":224.470476,"velocity":0.3937007874015748},{"duration":0.17647050000002196,"midi":26,"time":224.470476,"velocity":0.3937007874015748},{"duration":0.17647050000002196,"midi":33,"time":224.470476,"velocity":0.3937007874015748},{"duration":0.17647049999999354,"midi":33,"time":224.6469465,"velocity":0.3937007874015748},{"duration":0.17647049999999354,"midi":38,"time":224.6469465,"velocity":0.3937007874015748},{"duration":0.17647049999999354,"midi":26,"time":224.6469465,"velocity":0.3937007874015748},{"duration":0.35294099999998707,"midi":26,"time":224.823417,"velocity":0.3937007874015748},{"duration":0.35294099999998707,"midi":33,"time":224.823417,"velocity":0.3937007874015748},{"duration":0.35294099999998707,"midi":38,"time":224.823417,"velocity":0.3937007874015748},{"duration":0.17647050000002196,"midi":33,"time":225.176358,"velocity":0.3937007874015748},{"duration":0.17647050000002196,"midi":26,"time":225.176358,"velocity":0.3937007874015748},{"duration":0.17647050000002196,"midi":38,"time":225.176358,"velocity":0.3937007874015748},{"duration":0.35294099999998707,"midi":38,"time":225.35282850000002,"velocity":0.3937007874015748},{"duration":0.35294099999998707,"midi":33,"time":225.35282850000002,"velocity":0.3937007874015748},{"duration":0.35294099999998707,"midi":26,"time":225.35282850000002,"velocity":0.3937007874015748},{"duration":0.17647049999999354,"midi":26,"time":225.7057695,"velocity":0.3937007874015748},{"duration":0.17647049999999354,"midi":33,"time":225.7057695,"velocity":0.3937007874015748},{"duration":0.17647049999999354,"midi":38,"time":225.7057695,"velocity":0.3937007874015748},{"duration":0.17647049999999354,"midi":25,"time":225.88224,"velocity":0.3937007874015748},{"duration":0.17647049999999354,"midi":32,"time":225.88224,"velocity":0.3937007874015748},{"duration":0.17647049999999354,"midi":37,"time":225.88224,"velocity":0.3937007874015748},{"duration":0.3529410000000155,"midi":37,"time":226.0587105,"velocity":0.3937007874015748},{"duration":0.3529410000000155,"midi":32,"time":226.0587105,"velocity":0.3937007874015748},{"duration":0.3529410000000155,"midi":25,"time":226.0587105,"velocity":0.3937007874015748},{"duration":0.17647049999999354,"midi":37,"time":226.4116515,"velocity":0.3937007874015748},{"duration":0.17647049999999354,"midi":32,"time":226.4116515,"velocity":0.3937007874015748},{"duration":0.17647049999999354,"midi":25,"time":226.4116515,"velocity":0.3937007874015748},{"duration":0.17647049999999354,"midi":41,"time":226.588122,"velocity":0.3937007874015748},{"duration":0.17647049999999354,"midi":36,"time":226.588122,"velocity":0.3937007874015748},{"duration":0.17647049999999354,"midi":29,"time":226.588122,"velocity":0.3937007874015748},{"duration":0.3529410000000155,"midi":36,"time":226.7645925,"velocity":0.3937007874015748},{"duration":0.3529410000000155,"midi":41,"time":226.7645925,"velocity":0.3937007874015748},{"duration":0.3529410000000155,"midi":29,"time":226.7645925,"velocity":0.3937007874015748},{"duration":0.17647049999999354,"midi":41,"time":227.1175335,"velocity":0.3937007874015748},{"duration":0.17647049999999354,"midi":36,"time":227.1175335,"velocity":0.3937007874015748},{"duration":0.17647049999999354,"midi":29,"time":227.1175335,"velocity":0.3937007874015748},{"duration":0.17647049999999354,"midi":39,"time":227.294004,"velocity":0.3937007874015748},{"duration":0.17647049999999354,"midi":32,"time":227.294004,"velocity":0.3937007874015748},{"duration":0.17647049999999354,"midi":44,"time":227.294004,"velocity":0.3937007874015748},{"duration":0.17647050000002196,"midi":44,"time":227.4704745,"velocity":0.3937007874015748},{"duration":0.17647050000002196,"midi":39,"time":227.4704745,"velocity":0.3937007874015748},{"duration":0.17647050000002196,"midi":32,"time":227.4704745,"velocity":0.3937007874015748},{"duration":0.35294099999998707,"midi":44,"time":227.64694500000002,"velocity":0.3937007874015748},{"duration":0.35294099999998707,"midi":39,"time":227.64694500000002,"velocity":0.3937007874015748},{"duration":0.35294099999998707,"midi":32,"time":227.64694500000002,"velocity":0.3937007874015748},{"duration":0.17647049999999354,"midi":44,"time":227.999886,"velocity":0.3937007874015748},{"duration":0.17647049999999354,"midi":39,"time":227.999886,"velocity":0.3937007874015748},{"duration":0.17647049999999354,"midi":32,"time":227.999886,"velocity":0.3937007874015748},{"duration":0.3529410000000155,"midi":32,"time":228.1763565,"velocity":0.3937007874015748},{"duration":0.3529410000000155,"midi":44,"time":228.1763565,"velocity":0.3937007874015748},{"duration":0.3529410000000155,"midi":39,"time":228.1763565,"velocity":0.3937007874015748},{"duration":0.17647049999999354,"midi":39,"time":228.5292975,"velocity":0.3937007874015748},{"duration":0.17647049999999354,"midi":32,"time":228.5292975,"velocity":0.3937007874015748},{"duration":0.17647049999999354,"midi":44,"time":228.5292975,"velocity":0.3937007874015748},{"duration":0.17647049999999354,"midi":43,"time":228.705768,"velocity":0.3937007874015748},{"duration":0.17647049999999354,"midi":38,"time":228.705768,"velocity":0.3937007874015748},{"duration":0.17647049999999354,"midi":31,"time":228.705768,"velocity":0.3937007874015748},{"duration":0.3529410000000155,"midi":38,"time":228.8822385,"velocity":0.3937007874015748},{"duration":0.3529410000000155,"midi":43,"time":228.8822385,"velocity":0.3937007874015748},{"duration":0.3529410000000155,"midi":31,"time":228.8822385,"velocity":0.3937007874015748},{"duration":0.17647049999999354,"midi":43,"time":229.23517950000002,"velocity":0.3937007874015748},{"duration":0.17647049999999354,"midi":38,"time":229.23517950000002,"velocity":0.3937007874015748},{"duration":0.17647049999999354,"midi":31,"time":229.23517950000002,"velocity":0.3937007874015748},{"duration":0.17647049999999354,"midi":31,"time":229.41165,"velocity":0.3937007874015748},{"duration":0.17647049999999354,"midi":38,"time":229.41165,"velocity":0.3937007874015748},{"duration":0.17647049999999354,"midi":43,"time":229.41165,"velocity":0.3937007874015748},{"duration":0.35294099999998707,"midi":43,"time":229.5881205,"velocity":0.3937007874015748},{"duration":0.35294099999998707,"midi":31,"time":229.5881205,"velocity":0.3937007874015748},{"duration":0.35294099999998707,"midi":38,"time":229.5881205,"velocity":0.3937007874015748},{"duration":0.17647050000002196,"midi":38,"time":229.9410615,"velocity":0.3937007874015748},{"duration":0.17647050000002196,"midi":31,"time":229.9410615,"velocity":0.3937007874015748},{"duration":0.17647050000002196,"midi":43,"time":229.9410615,"velocity":0.3937007874015748},{"duration":0.17647049999999354,"midi":42,"time":230.117532,"velocity":0.3937007874015748},{"duration":0.17647049999999354,"midi":30,"time":230.117532,"velocity":0.3937007874015748},{"duration":0.17647049999999354,"midi":37,"time":230.117532,"velocity":0.3937007874015748},{"duration":0.17647049999999354,"midi":30,"time":230.2940025,"velocity":0.3937007874015748},{"duration":0.17647049999999354,"midi":37,"time":230.2940025,"velocity":0.3937007874015748},{"duration":0.17647049999999354,"midi":42,"time":230.2940025,"velocity":0.3937007874015748},{"duration":0.3529410000000155,"midi":30,"time":230.470473,"velocity":0.3937007874015748},{"duration":0.3529410000000155,"midi":42,"time":230.470473,"velocity":0.3937007874015748},{"duration":0.3529410000000155,"midi":37,"time":230.470473,"velocity":0.3937007874015748},{"duration":0.17647049999999354,"midi":37,"time":230.823414,"velocity":0.3937007874015748},{"duration":0.17647049999999354,"midi":42,"time":230.823414,"velocity":0.3937007874015748},{"duration":0.17647049999999354,"midi":30,"time":230.823414,"velocity":0.3937007874015748},{"duration":0.35294099999998707,"midi":42,"time":230.9998845,"velocity":0.3937007874015748},{"duration":0.35294099999998707,"midi":30,"time":230.9998845,"velocity":0.3937007874015748},{"duration":0.35294099999998707,"midi":37,"time":230.9998845,"velocity":0.3937007874015748},{"duration":0.17647050000002196,"midi":42,"time":231.3528255,"velocity":0.3937007874015748},{"duration":0.17647050000002196,"midi":37,"time":231.3528255,"velocity":0.3937007874015748},{"duration":0.17647050000002196,"midi":30,"time":231.3528255,"velocity":0.3937007874015748},{"duration":0.17647049999999354,"midi":29,"time":231.52929600000002,"velocity":0.3937007874015748},{"duration":0.17647049999999354,"midi":41,"time":231.52929600000002,"velocity":0.3937007874015748},{"duration":0.17647049999999354,"midi":36,"time":231.52929600000002,"velocity":0.3937007874015748},{"duration":0.35294099999998707,"midi":41,"time":231.7057665,"velocity":0.3937007874015748},{"duration":0.35294099999998707,"midi":29,"time":231.7057665,"velocity":0.3937007874015748},{"duration":0.35294099999998707,"midi":36,"time":231.7057665,"velocity":0.3937007874015748},{"duration":0.17647049999999354,"midi":36,"time":232.0587075,"velocity":0.3937007874015748},{"duration":0.17647049999999354,"midi":29,"time":232.0587075,"velocity":0.3937007874015748},{"duration":0.17647049999999354,"midi":41,"time":232.0587075,"velocity":0.3937007874015748},{"duration":0.17647050000002196,"midi":29,"time":232.235178,"velocity":0.3937007874015748},{"duration":0.17647050000002196,"midi":41,"time":232.235178,"velocity":0.3937007874015748},{"duration":0.17647050000002196,"midi":36,"time":232.235178,"velocity":0.3937007874015748},{"duration":0.35294099999998707,"midi":41,"time":232.4116485,"velocity":0.3937007874015748},{"duration":0.35294099999998707,"midi":29,"time":232.4116485,"velocity":0.3937007874015748},{"duration":0.35294099999998707,"midi":36,"time":232.4116485,"velocity":0.3937007874015748},{"duration":0.17647049999999354,"midi":29,"time":232.7645895,"velocity":0.3937007874015748},{"duration":0.17647049999999354,"midi":36,"time":232.7645895,"velocity":0.3937007874015748},{"duration":0.17647049999999354,"midi":41,"time":232.7645895,"velocity":0.3937007874015748},{"duration":0.17647050000002196,"midi":40,"time":232.94106,"velocity":0.3937007874015748},{"duration":0.17647050000002196,"midi":28,"time":232.94106,"velocity":0.3937007874015748},{"duration":0.17647050000002196,"midi":35,"time":232.94106,"velocity":0.3937007874015748},{"duration":0.17647049999999354,"midi":28,"time":233.11753050000002,"velocity":0.3937007874015748},{"duration":0.17647049999999354,"midi":40,"time":233.11753050000002,"velocity":0.3937007874015748},{"duration":0.17647049999999354,"midi":35,"time":233.11753050000002,"velocity":0.3937007874015748},{"duration":0.35294099999998707,"midi":28,"time":233.294001,"velocity":0.3937007874015748},{"duration":0.35294099999998707,"midi":35,"time":233.294001,"velocity":0.3937007874015748},{"duration":0.35294099999998707,"midi":40,"time":233.294001,"velocity":0.3937007874015748},{"duration":0.17647049999999354,"midi":28,"time":233.646942,"velocity":0.3937007874015748},{"duration":0.17647049999999354,"midi":35,"time":233.646942,"velocity":0.3937007874015748},{"duration":0.17647049999999354,"midi":40,"time":233.646942,"velocity":0.3937007874015748},{"duration":0.3529410000000155,"midi":28,"time":233.8234125,"velocity":0.3937007874015748},{"duration":0.3529410000000155,"midi":40,"time":233.8234125,"velocity":0.3937007874015748},{"duration":0.3529410000000155,"midi":35,"time":233.8234125,"velocity":0.3937007874015748},{"duration":0.17647049999999354,"midi":28,"time":234.1763535,"velocity":0.3937007874015748},{"duration":0.17647049999999354,"midi":35,"time":234.1763535,"velocity":0.3937007874015748},{"duration":0.17647049999999354,"midi":40,"time":234.1763535,"velocity":0.3937007874015748},{"duration":0.17647049999999354,"midi":34,"time":234.352824,"velocity":0.3937007874015748},{"duration":0.17647049999999354,"midi":39,"time":234.352824,"velocity":0.3937007874015748},{"duration":0.17647049999999354,"midi":27,"time":234.352824,"velocity":0.3937007874015748},{"duration":0.3529410000000155,"midi":27,"time":234.5292945,"velocity":0.3937007874015748},{"duration":0.3529410000000155,"midi":34,"time":234.5292945,"velocity":0.3937007874015748},{"duration":0.3529410000000155,"midi":39,"time":234.5292945,"velocity":0.3937007874015748},{"duration":0.17647049999999354,"midi":27,"time":234.8822355,"velocity":0.3937007874015748},{"duration":0.17647049999999354,"midi":39,"time":234.8822355,"velocity":0.3937007874015748},{"duration":0.17647049999999354,"midi":34,"time":234.8822355,"velocity":0.3937007874015748},{"duration":0.17647049999999354,"midi":27,"time":235.058706,"velocity":0.3937007874015748},{"duration":0.17647049999999354,"midi":39,"time":235.058706,"velocity":0.3937007874015748},{"duration":0.17647049999999354,"midi":34,"time":235.058706,"velocity":0.3937007874015748},{"duration":0.3529410000000155,"midi":34,"time":235.2351765,"velocity":0.3937007874015748},{"duration":0.3529410000000155,"midi":39,"time":235.2351765,"velocity":0.3937007874015748},{"duration":0.3529410000000155,"midi":27,"time":235.2351765,"velocity":0.3937007874015748},{"duration":0.17647049999999354,"midi":39,"time":235.5881175,"velocity":0.3937007874015748},{"duration":0.17647049999999354,"midi":34,"time":235.5881175,"velocity":0.3937007874015748},{"duration":0.17647049999999354,"midi":27,"time":235.5881175,"velocity":0.3937007874015748},{"duration":0.17647049999999354,"midi":33,"time":235.764588,"velocity":0.3937007874015748},{"duration":0.17647049999999354,"midi":26,"time":235.764588,"velocity":0.3937007874015748},{"duration":0.17647049999999354,"midi":38,"time":235.764588,"velocity":0.3937007874015748},{"duration":0.17647049999999354,"midi":26,"time":235.9410585,"velocity":0.3937007874015748},{"duration":0.17647049999999354,"midi":33,"time":235.9410585,"velocity":0.3937007874015748},{"duration":0.17647049999999354,"midi":38,"time":235.9410585,"velocity":0.3937007874015748},{"duration":0.3529410000000155,"midi":26,"time":236.117529,"velocity":0.3937007874015748},{"duration":0.3529410000000155,"midi":38,"time":236.117529,"velocity":0.3937007874015748},{"duration":0.3529410000000155,"midi":33,"time":236.117529,"velocity":0.3937007874015748},{"duration":0.17647049999999354,"midi":38,"time":236.47047,"velocity":0.3937007874015748},{"duration":0.17647049999999354,"midi":33,"time":236.47047,"velocity":0.3937007874015748},{"duration":0.17647049999999354,"midi":26,"time":236.47047,"velocity":0.3937007874015748},{"duration":0.3529410000000155,"midi":26,"time":236.6469405,"velocity":0.3937007874015748},{"duration":0.3529410000000155,"midi":38,"time":236.6469405,"velocity":0.3937007874015748},{"duration":0.3529410000000155,"midi":33,"time":236.6469405,"velocity":0.3937007874015748},{"duration":0.17647049999999354,"midi":38,"time":236.99988150000001,"velocity":0.3937007874015748},{"duration":0.17647049999999354,"midi":26,"time":236.99988150000001,"velocity":0.3937007874015748},{"duration":0.17647049999999354,"midi":33,"time":236.99988150000001,"velocity":0.3937007874015748},{"duration":0.17647049999999354,"midi":25,"time":237.176352,"velocity":0.3937007874015748},{"duration":0.17647049999999354,"midi":32,"time":237.176352,"velocity":0.3937007874015748},{"duration":0.17647049999999354,"midi":37,"time":237.176352,"velocity":0.3937007874015748},{"duration":0.35294099999998707,"midi":37,"time":237.3528225,"velocity":0.3937007874015748},{"duration":0.35294099999998707,"midi":25,"time":237.3528225,"velocity":0.3937007874015748},{"duration":0.35294099999998707,"midi":32,"time":237.3528225,"velocity":0.3937007874015748},{"duration":0.17647050000002196,"midi":32,"time":237.7057635,"velocity":0.3937007874015748},{"duration":0.17647050000002196,"midi":25,"time":237.7057635,"velocity":0.3937007874015748},{"duration":0.17647050000002196,"midi":37,"time":237.7057635,"velocity":0.3937007874015748},{"duration":0.17647049999999354,"midi":36,"time":237.882234,"velocity":0.3937007874015748},{"duration":0.17647049999999354,"midi":29,"time":237.882234,"velocity":0.3937007874015748},{"duration":0.17647049999999354,"midi":41,"time":237.882234,"velocity":0.3937007874015748},{"duration":0.35294099999998707,"midi":29,"time":238.0587045,"velocity":0.3937007874015748},{"duration":0.35294099999998707,"midi":36,"time":238.0587045,"velocity":0.3937007874015748},{"duration":0.35294099999998707,"midi":41,"time":238.0587045,"velocity":0.3937007874015748},{"duration":0.17647050000002196,"midi":29,"time":238.4116455,"velocity":0.3937007874015748},{"duration":0.17647050000002196,"midi":41,"time":238.4116455,"velocity":0.3937007874015748},{"duration":0.17647050000002196,"midi":36,"time":238.4116455,"velocity":0.3937007874015748},{"duration":0.17647049999999354,"midi":39,"time":238.588116,"velocity":0.3937007874015748},{"duration":0.17647049999999354,"midi":32,"time":238.588116,"velocity":0.3937007874015748},{"duration":0.17647049999999354,"midi":44,"time":238.588116,"velocity":0.3937007874015748},{"duration":0.17647049999999354,"midi":32,"time":238.7645865,"velocity":0.3937007874015748},{"duration":0.17647049999999354,"midi":44,"time":238.7645865,"velocity":0.3937007874015748},{"duration":0.17647049999999354,"midi":39,"time":238.7645865,"velocity":0.3937007874015748},{"duration":0.3529410000000155,"midi":44,"time":238.941057,"velocity":0.3937007874015748},{"duration":0.3529410000000155,"midi":39,"time":238.941057,"velocity":0.3937007874015748},{"duration":0.3529410000000155,"midi":32,"time":238.941057,"velocity":0.3937007874015748},{"duration":0.17647049999999354,"midi":44,"time":239.29399800000002,"velocity":0.3937007874015748},{"duration":0.17647049999999354,"midi":39,"time":239.29399800000002,"velocity":0.3937007874015748},{"duration":0.17647049999999354,"midi":32,"time":239.29399800000002,"velocity":0.3937007874015748},{"duration":0.35294099999998707,"midi":39,"time":239.4704685,"velocity":0.3937007874015748},{"duration":0.35294099999998707,"midi":32,"time":239.4704685,"velocity":0.3937007874015748},{"duration":0.35294099999998707,"midi":44,"time":239.4704685,"velocity":0.3937007874015748},{"duration":0.17647049999999354,"midi":44,"time":239.8234095,"velocity":0.3937007874015748},{"duration":0.17647049999999354,"midi":32,"time":239.8234095,"velocity":0.3937007874015748},{"duration":0.17647049999999354,"midi":39,"time":239.8234095,"velocity":0.3937007874015748},{"duration":0.17647050000002196,"midi":38,"time":239.99988,"velocity":0.3937007874015748},{"duration":0.17647050000002196,"midi":43,"time":239.99988,"velocity":0.3937007874015748},{"duration":0.17647050000002196,"midi":31,"time":239.99988,"velocity":0.3937007874015748},{"duration":0.35294099999998707,"midi":43,"time":240.1763505,"velocity":0.3937007874015748},{"duration":0.35294099999998707,"midi":31,"time":240.1763505,"velocity":0.3937007874015748},{"duration":0.35294099999998707,"midi":38,"time":240.1763505,"velocity":0.3937007874015748},{"duration":0.17647049999999354,"midi":31,"time":240.5292915,"velocity":0.3937007874015748},{"duration":0.17647049999999354,"midi":38,"time":240.5292915,"velocity":0.3937007874015748},{"duration":0.17647049999999354,"midi":43,"time":240.5292915,"velocity":0.3937007874015748},{"duration":0.17647050000002196,"midi":31,"time":240.705762,"velocity":0.3937007874015748},{"duration":0.17647050000002196,"midi":38,"time":240.705762,"velocity":0.3937007874015748},{"duration":0.17647050000002196,"midi":43,"time":240.705762,"velocity":0.3937007874015748},{"duration":0.35294099999998707,"midi":38,"time":240.88223250000001,"velocity":0.3937007874015748},{"duration":0.35294099999998707,"midi":43,"time":240.88223250000001,"velocity":0.3937007874015748},{"duration":0.35294099999998707,"midi":31,"time":240.88223250000001,"velocity":0.3937007874015748},{"duration":0.17647049999999354,"midi":31,"time":241.2351735,"velocity":0.3937007874015748},{"duration":0.17647049999999354,"midi":43,"time":241.2351735,"velocity":0.3937007874015748},{"duration":0.17647049999999354,"midi":38,"time":241.2351735,"velocity":0.3937007874015748},{"duration":0.17647050000002196,"midi":37,"time":241.411644,"velocity":0.3937007874015748},{"duration":0.17647050000002196,"midi":42,"time":241.411644,"velocity":0.3937007874015748},{"duration":0.17647050000002196,"midi":30,"time":241.411644,"velocity":0.3937007874015748},{"duration":0.17647049999999354,"midi":37,"time":241.58811450000002,"velocity":0.3937007874015748},{"duration":0.17647049999999354,"midi":42,"time":241.58811450000002,"velocity":0.3937007874015748},{"duration":0.17647049999999354,"midi":30,"time":241.58811450000002,"velocity":0.3937007874015748},{"duration":0.35294099999998707,"midi":42,"time":241.764585,"velocity":0.3937007874015748},{"duration":0.35294099999998707,"midi":30,"time":241.764585,"velocity":0.3937007874015748},{"duration":0.35294099999998707,"midi":37,"time":241.764585,"velocity":0.3937007874015748},{"duration":0.17647049999999354,"midi":37,"time":242.117526,"velocity":0.3937007874015748},{"duration":0.17647049999999354,"midi":30,"time":242.117526,"velocity":0.3937007874015748},{"duration":0.17647049999999354,"midi":42,"time":242.117526,"velocity":0.3937007874015748},{"duration":0.3529410000000155,"midi":42,"time":242.2939965,"velocity":0.3937007874015748},{"duration":0.3529410000000155,"midi":37,"time":242.2939965,"velocity":0.3937007874015748},{"duration":0.3529410000000155,"midi":30,"time":242.2939965,"velocity":0.3937007874015748},{"duration":0.17647049999999354,"midi":37,"time":242.6469375,"velocity":0.3937007874015748},{"duration":0.17647049999999354,"midi":42,"time":242.6469375,"velocity":0.3937007874015748},{"duration":0.17647049999999354,"midi":30,"time":242.6469375,"velocity":0.3937007874015748},{"duration":0.17647049999999354,"midi":36,"time":242.823408,"velocity":0.3937007874015748},{"duration":0.17647049999999354,"midi":29,"time":242.823408,"velocity":0.3937007874015748},{"duration":0.17647049999999354,"midi":41,"time":242.823408,"velocity":0.3937007874015748},{"duration":0.3529410000000155,"midi":29,"time":242.9998785,"velocity":0.3937007874015748},{"duration":0.3529410000000155,"midi":36,"time":242.9998785,"velocity":0.3937007874015748},{"duration":0.3529410000000155,"midi":41,"time":242.9998785,"velocity":0.3937007874015748},{"duration":0.17647049999999354,"midi":36,"time":243.3528195,"velocity":0.3937007874015748},{"duration":0.17647049999999354,"midi":29,"time":243.3528195,"velocity":0.3937007874015748},{"duration":0.17647049999999354,"midi":41,"time":243.3528195,"velocity":0.3937007874015748},{"duration":0.17647049999999354,"midi":41,"time":243.52929,"velocity":0.3937007874015748},{"duration":0.17647049999999354,"midi":36,"time":243.52929,"velocity":0.3937007874015748},{"duration":0.17647049999999354,"midi":29,"time":243.52929,"velocity":0.3937007874015748},{"duration":0.3529410000000155,"midi":29,"time":243.7057605,"velocity":0.3937007874015748},{"duration":0.3529410000000155,"midi":36,"time":243.7057605,"velocity":0.3937007874015748},{"duration":0.3529410000000155,"midi":41,"time":243.7057605,"velocity":0.3937007874015748},{"duration":0.17647049999999354,"midi":41,"time":244.0587015,"velocity":0.3937007874015748},{"duration":0.17647049999999354,"midi":36,"time":244.0587015,"velocity":0.3937007874015748},{"duration":0.17647049999999354,"midi":29,"time":244.0587015,"velocity":0.3937007874015748},{"duration":0.17647049999999354,"midi":35,"time":244.235172,"velocity":0.3937007874015748},{"duration":0.17647049999999354,"midi":40,"time":244.235172,"velocity":0.3937007874015748},{"duration":0.17647049999999354,"midi":28,"time":244.235172,"velocity":0.3937007874015748},{"duration":0.17647049999999354,"midi":35,"time":244.4116425,"velocity":0.3937007874015748},{"duration":0.17647049999999354,"midi":28,"time":244.4116425,"velocity":0.3937007874015748},{"duration":0.17647049999999354,"midi":40,"time":244.4116425,"velocity":0.3937007874015748},{"duration":0.3529410000000155,"midi":35,"time":244.588113,"velocity":0.3937007874015748},{"duration":0.3529410000000155,"midi":40,"time":244.588113,"velocity":0.3937007874015748},{"duration":0.3529410000000155,"midi":28,"time":244.588113,"velocity":0.3937007874015748},{"duration":0.17647049999999354,"midi":28,"time":244.941054,"velocity":0.3937007874015748},{"duration":0.17647049999999354,"midi":40,"time":244.941054,"velocity":0.3937007874015748},{"duration":0.17647049999999354,"midi":35,"time":244.941054,"velocity":0.3937007874015748},{"duration":0.3529410000000155,"midi":40,"time":245.1175245,"velocity":0.3937007874015748},{"duration":0.3529410000000155,"midi":35,"time":245.1175245,"velocity":0.3937007874015748},{"duration":0.3529410000000155,"midi":28,"time":245.1175245,"velocity":0.3937007874015748},{"duration":0.17647049999999354,"midi":28,"time":245.47046550000002,"velocity":0.3937007874015748},{"duration":0.17647049999999354,"midi":40,"time":245.47046550000002,"velocity":0.3937007874015748},{"duration":0.17647049999999354,"midi":35,"time":245.47046550000002,"velocity":0.3937007874015748},{"duration":0.17647049999999354,"midi":34,"time":245.646936,"velocity":0.3937007874015748},{"duration":0.17647049999999354,"midi":39,"time":245.646936,"velocity":0.3937007874015748},{"duration":0.17647049999999354,"midi":27,"time":245.646936,"velocity":0.3937007874015748},{"duration":0.35294099999998707,"midi":34,"time":245.8234065,"velocity":0.3937007874015748},{"duration":0.35294099999998707,"midi":39,"time":245.8234065,"velocity":0.3937007874015748},{"duration":0.35294099999998707,"midi":27,"time":245.8234065,"velocity":0.3937007874015748},{"duration":0.17647050000002196,"midi":39,"time":246.1763475,"velocity":0.3937007874015748},{"duration":0.17647050000002196,"midi":34,"time":246.1763475,"velocity":0.3937007874015748},{"duration":0.17647050000002196,"midi":27,"time":246.1763475,"velocity":0.3937007874015748},{"duration":0.17647049999999354,"midi":27,"time":246.352818,"velocity":0.3937007874015748},{"duration":0.17647049999999354,"midi":39,"time":246.352818,"velocity":0.3937007874015748},{"duration":0.17647049999999354,"midi":34,"time":246.352818,"velocity":0.3937007874015748},{"duration":0.35294099999998707,"midi":39,"time":246.5292885,"velocity":0.3937007874015748},{"duration":0.35294099999998707,"midi":34,"time":246.5292885,"velocity":0.3937007874015748},{"duration":0.35294099999998707,"midi":27,"time":246.5292885,"velocity":0.3937007874015748},{"duration":0.17647050000002196,"midi":39,"time":246.8822295,"velocity":0.3937007874015748},{"duration":0.17647050000002196,"midi":34,"time":246.8822295,"velocity":0.3937007874015748},{"duration":0.17647050000002196,"midi":27,"time":246.8822295,"velocity":0.3937007874015748},{"duration":0.17647049999999354,"midi":33,"time":247.05870000000002,"velocity":0.3937007874015748},{"duration":0.17647049999999354,"midi":38,"time":247.05870000000002,"velocity":0.3937007874015748},{"duration":0.17647049999999354,"midi":26,"time":247.05870000000002,"velocity":0.3937007874015748},{"duration":0.17647049999999354,"midi":26,"time":247.2351705,"velocity":0.3937007874015748},{"duration":0.17647049999999354,"midi":33,"time":247.2351705,"velocity":0.3937007874015748},{"duration":0.17647049999999354,"midi":38,"time":247.2351705,"velocity":0.3937007874015748},{"duration":0.35294099999998707,"midi":26,"time":247.411641,"velocity":0.3937007874015748},{"duration":0.35294099999998707,"midi":33,"time":247.411641,"velocity":0.3937007874015748},{"duration":0.35294099999998707,"midi":38,"time":247.411641,"velocity":0.3937007874015748},{"duration":0.17647050000002196,"midi":26,"time":247.764582,"velocity":0.3937007874015748},{"duration":0.17647050000002196,"midi":33,"time":247.764582,"velocity":0.3937007874015748},{"duration":0.17647050000002196,"midi":38,"time":247.764582,"velocity":0.3937007874015748},{"duration":0.35294099999998707,"midi":26,"time":247.9410525,"velocity":0.3937007874015748},{"duration":0.35294099999998707,"midi":38,"time":247.9410525,"velocity":0.3937007874015748},{"duration":0.35294099999998707,"midi":33,"time":247.9410525,"velocity":0.3937007874015748},{"duration":0.17647049999999354,"midi":38,"time":248.2939935,"velocity":0.3937007874015748},{"duration":0.17647049999999354,"midi":26,"time":248.2939935,"velocity":0.3937007874015748},{"duration":0.17647049999999354,"midi":33,"time":248.2939935,"velocity":0.3937007874015748},{"duration":0.17647050000002196,"midi":25,"time":248.470464,"velocity":0.3937007874015748},{"duration":0.17647050000002196,"midi":32,"time":248.470464,"velocity":0.3937007874015748},{"duration":0.17647050000002196,"midi":37,"time":248.470464,"velocity":0.3937007874015748},{"duration":0.35294099999998707,"midi":37,"time":248.64693450000001,"velocity":0.3937007874015748},{"duration":0.35294099999998707,"midi":32,"time":248.64693450000001,"velocity":0.3937007874015748},{"duration":0.35294099999998707,"midi":25,"time":248.64693450000001,"velocity":0.3937007874015748},{"duration":0.17647049999999354,"midi":25,"time":248.9998755,"velocity":0.3937007874015748},{"duration":0.17647049999999354,"midi":37,"time":248.9998755,"velocity":0.3937007874015748},{"duration":0.17647049999999354,"midi":32,"time":248.9998755,"velocity":0.3937007874015748},{"duration":0.17647050000002196,"midi":29,"time":249.176346,"velocity":0.3937007874015748},{"duration":0.17647050000002196,"midi":41,"time":249.176346,"velocity":0.3937007874015748},{"duration":0.17647050000002196,"midi":36,"time":249.176346,"velocity":0.3937007874015748},{"duration":0.35294099999998707,"midi":36,"time":249.35281650000002,"velocity":0.3937007874015748},{"duration":0.35294099999998707,"midi":41,"time":249.35281650000002,"velocity":0.3937007874015748},{"duration":0.35294099999998707,"midi":29,"time":249.35281650000002,"velocity":0.3937007874015748},{"duration":0.17647049999999354,"midi":41,"time":249.7057575,"velocity":0.3937007874015748},{"duration":0.17647049999999354,"midi":36,"time":249.7057575,"velocity":0.3937007874015748},{"duration":0.17647049999999354,"midi":29,"time":249.7057575,"velocity":0.3937007874015748},{"duration":1.4117640000000051,"midi":56,"time":249.882228,"velocity":0.3937007874015748},{"duration":1.4117640000000051,"midi":54,"time":249.882228,"velocity":0.3937007874015748},{"duration":1.4117640000000051,"midi":51,"time":249.882228,"velocity":0.3937007874015748},{"duration":1.4117640000000051,"midi":49,"time":251.293992,"velocity":0.3937007874015748},{"duration":1.4117640000000051,"midi":54,"time":251.293992,"velocity":0.3937007874015748},{"duration":1.4117640000000051,"midi":54,"time":252.705756,"velocity":0.3937007874015748},{"duration":1.4117640000000051,"midi":47,"time":252.705756,"velocity":0.3937007874015748},{"duration":1.4117640000000051,"midi":53,"time":252.705756,"velocity":0.3937007874015748},{"duration":1.4117639999999767,"midi":54,"time":254.11752,"velocity":0.3937007874015748},{"duration":1.4117639999999767,"midi":46,"time":254.11752,"velocity":0.3937007874015748},{"duration":1.4117639999999767,"midi":51,"time":254.11752,"velocity":0.3937007874015748},{"duration":1.4117640000000335,"midi":51,"time":255.529284,"velocity":0.3937007874015748},{"duration":1.4117640000000335,"midi":56,"time":255.529284,"velocity":0.3937007874015748},{"duration":1.4117640000000335,"midi":54,"time":255.529284,"velocity":0.3937007874015748},{"duration":1.4117640000000051,"midi":54,"time":256.941048,"velocity":0.3937007874015748},{"duration":1.4117640000000051,"midi":49,"time":256.941048,"velocity":0.3937007874015748},{"duration":1.4117639999999483,"midi":47,"time":258.35281200000003,"velocity":0.3937007874015748},{"duration":1.4117639999999483,"midi":54,"time":258.35281200000003,"velocity":0.3937007874015748},{"duration":1.4117639999999483,"midi":53,"time":258.35281200000003,"velocity":0.3937007874015748},{"duration":1.4117640000000051,"midi":46,"time":259.764576,"velocity":0.3937007874015748},{"duration":1.4117640000000051,"midi":51,"time":259.764576,"velocity":0.3937007874015748},{"duration":1.4117640000000051,"midi":54,"time":259.764576,"velocity":0.3937007874015748},{"duration":1.4117640000000051,"midi":56,"time":261.17634,"velocity":0.3937007874015748},{"duration":1.4117640000000051,"midi":51,"time":261.17634,"velocity":0.3937007874015748},{"duration":1.4117640000000051,"midi":54,"time":261.17634,"velocity":0.3937007874015748},{"duration":1.4117640000000051,"midi":54,"time":262.588104,"velocity":0.3937007874015748},{"duration":1.4117640000000051,"midi":49,"time":262.588104,"velocity":0.3937007874015748},{"duration":1.4117640000000051,"midi":54,"time":263.999868,"velocity":0.3937007874015748},{"duration":1.4117640000000051,"midi":47,"time":263.999868,"velocity":0.3937007874015748},{"duration":1.4117640000000051,"midi":53,"time":263.999868,"velocity":0.3937007874015748},{"duration":1.4117640000000051,"midi":54,"time":265.411632,"velocity":0.3937007874015748},{"duration":1.4117640000000051,"midi":46,"time":265.411632,"velocity":0.3937007874015748},{"duration":1.4117640000000051,"midi":51,"time":265.411632,"velocity":0.3937007874015748},{"duration":1.4117640000000051,"midi":51,"time":266.823396,"velocity":0.3937007874015748},{"duration":1.4117640000000051,"midi":56,"time":266.823396,"velocity":0.3937007874015748},{"duration":1.4117640000000051,"midi":54,"time":266.823396,"velocity":0.3937007874015748},{"duration":1.4117640000000051,"midi":54,"time":268.23516,"velocity":0.3937007874015748},{"duration":1.4117640000000051,"midi":49,"time":268.23516,"velocity":0.3937007874015748},{"duration":1.4117640000000051,"midi":47,"time":269.646924,"velocity":0.3937007874015748},{"duration":1.4117640000000051,"midi":54,"time":269.646924,"velocity":0.3937007874015748},{"duration":1.4117640000000051,"midi":53,"time":269.646924,"velocity":0.3937007874015748},{"duration":1.4117640000000051,"midi":46,"time":271.058688,"velocity":0.3937007874015748},{"duration":1.4117640000000051,"midi":51,"time":271.058688,"velocity":0.3937007874015748},{"duration":1.4117640000000051,"midi":54,"time":271.058688,"velocity":0.3937007874015748},{"duration":0.17647049999999354,"midi":37,"time":272.470452,"velocity":0.3937007874015748},{"duration":0.17647049999999354,"midi":29,"time":272.470452,"velocity":0.3937007874015748},{"duration":0.17647049999999354,"midi":41,"time":272.470452,"velocity":0.3937007874015748},{"duration":0.17647049999999354,"midi":37,"time":272.6469225,"velocity":0.3937007874015748},{"duration":0.17647049999999354,"midi":29,"time":272.6469225,"velocity":0.3937007874015748},{"duration":0.17647049999999354,"midi":41,"time":272.6469225,"velocity":0.3937007874015748},{"duration":0.35294099999998707,"midi":41,"time":272.823393,"velocity":0.3937007874015748},{"duration":0.35294099999998707,"midi":29,"time":272.823393,"velocity":0.3937007874015748},{"duration":0.35294099999998707,"midi":37,"time":272.823393,"velocity":0.3937007874015748},{"duration":0.17647049999999354,"midi":37,"time":273.176334,"velocity":0.3937007874015748},{"duration":0.17647049999999354,"midi":29,"time":273.176334,"velocity":0.3937007874015748},{"duration":0.17647049999999354,"midi":41,"time":273.176334,"velocity":0.3937007874015748},{"duration":0.35294099999998707,"midi":41,"time":273.3528045,"velocity":0.3937007874015748},{"duration":0.35294099999998707,"midi":29,"time":273.3528045,"velocity":0.3937007874015748},{"duration":0.35294099999998707,"midi":37,"time":273.3528045,"velocity":0.3937007874015748},{"duration":0.17647050000005038,"midi":29,"time":273.7057455,"velocity":0.3937007874015748},{"duration":0.17647050000005038,"midi":41,"time":273.7057455,"velocity":0.3937007874015748},{"duration":0.17647050000005038,"midi":37,"time":273.7057455,"velocity":0.3937007874015748},{"duration":0.17647049999999354,"midi":41,"time":273.882216,"velocity":0.3937007874015748},{"duration":0.17647049999999354,"midi":29,"time":273.882216,"velocity":0.3937007874015748},{"duration":0.17647049999999354,"midi":37,"time":273.882216,"velocity":0.3937007874015748},{"duration":0.35294099999998707,"midi":37,"time":274.0586865,"velocity":0.3937007874015748},{"duration":0.35294099999998707,"midi":29,"time":274.0586865,"velocity":0.3937007874015748},{"duration":0.35294099999998707,"midi":41,"time":274.0586865,"velocity":0.3937007874015748},{"duration":0.17647049999999354,"midi":41,"time":274.4116275,"velocity":0.3937007874015748},{"duration":0.17647049999999354,"midi":29,"time":274.4116275,"velocity":0.3937007874015748},{"duration":0.17647049999999354,"midi":37,"time":274.4116275,"velocity":0.3937007874015748},{"duration":0.17647049999999354,"midi":29,"time":274.588098,"velocity":0.3937007874015748},{"duration":0.17647049999999354,"midi":37,"time":274.588098,"velocity":0.3937007874015748},{"duration":0.17647049999999354,"midi":41,"time":274.588098,"velocity":0.3937007874015748},{"duration":0.35294099999998707,"midi":41,"time":274.7645685,"velocity":0.3937007874015748},{"duration":0.35294099999998707,"midi":29,"time":274.7645685,"velocity":0.3937007874015748},{"duration":0.35294099999998707,"midi":37,"time":274.7645685,"velocity":0.3937007874015748},{"duration":0.17647049999999354,"midi":37,"time":275.1175095,"velocity":0.3937007874015748},{"duration":0.17647049999999354,"midi":41,"time":275.1175095,"velocity":0.3937007874015748},{"duration":0.17647049999999354,"midi":29,"time":275.1175095,"velocity":0.3937007874015748},{"duration":0.17647050000005038,"midi":30,"time":275.29398,"velocity":0.3937007874015748},{"duration":0.17647050000005038,"midi":39,"time":275.29398,"velocity":0.3937007874015748},{"duration":0.17647050000005038,"midi":42,"time":275.29398,"velocity":0.3937007874015748},{"duration":0.17647049999999354,"midi":30,"time":275.4704505,"velocity":0.3937007874015748},{"duration":0.17647049999999354,"midi":39,"time":275.4704505,"velocity":0.3937007874015748},{"duration":0.17647049999999354,"midi":42,"time":275.4704505,"velocity":0.3937007874015748},{"duration":0.35294099999998707,"midi":42,"time":275.646921,"velocity":0.3937007874015748},{"duration":0.35294099999998707,"midi":30,"time":275.646921,"velocity":0.3937007874015748},{"duration":0.35294099999998707,"midi":39,"time":275.646921,"velocity":0.3937007874015748},{"duration":0.17647049999999354,"midi":39,"time":275.999862,"velocity":0.3937007874015748},{"duration":0.17647049999999354,"midi":42,"time":275.999862,"velocity":0.3937007874015748},{"duration":0.17647049999999354,"midi":30,"time":275.999862,"velocity":0.3937007874015748},{"duration":0.35294099999998707,"midi":39,"time":276.1763325,"velocity":0.3937007874015748},{"duration":0.35294099999998707,"midi":42,"time":276.1763325,"velocity":0.3937007874015748},{"duration":0.35294099999998707,"midi":30,"time":276.1763325,"velocity":0.3937007874015748},{"duration":0.17647049999999354,"midi":42,"time":276.5292735,"velocity":0.3937007874015748},{"duration":0.17647049999999354,"midi":30,"time":276.5292735,"velocity":0.3937007874015748},{"duration":0.17647049999999354,"midi":39,"time":276.5292735,"velocity":0.3937007874015748},{"duration":0.17647050000005038,"midi":30,"time":276.705744,"velocity":0.3937007874015748},{"duration":0.17647050000005038,"midi":39,"time":276.705744,"velocity":0.3937007874015748},{"duration":0.17647050000005038,"midi":42,"time":276.705744,"velocity":0.3937007874015748},{"duration":0.35294099999998707,"midi":39,"time":276.88221450000003,"velocity":0.3937007874015748},{"duration":0.35294099999998707,"midi":42,"time":276.88221450000003,"velocity":0.3937007874015748},{"duration":0.35294099999998707,"midi":30,"time":276.88221450000003,"velocity":0.3937007874015748},{"duration":0.17647049999999354,"midi":42,"time":277.2351555,"velocity":0.3937007874015748},{"duration":0.17647049999999354,"midi":30,"time":277.2351555,"velocity":0.3937007874015748},{"duration":0.17647049999999354,"midi":39,"time":277.2351555,"velocity":0.3937007874015748},{"duration":0.17647049999999354,"midi":42,"time":277.411626,"velocity":0.3937007874015748},{"duration":0.17647049999999354,"midi":30,"time":277.411626,"velocity":0.3937007874015748},{"duration":0.17647049999999354,"midi":39,"time":277.411626,"velocity":0.3937007874015748},{"duration":0.35294099999998707,"midi":39,"time":277.5880965,"velocity":0.3937007874015748},{"duration":0.35294099999998707,"midi":42,"time":277.5880965,"velocity":0.3937007874015748},{"duration":0.35294099999998707,"midi":30,"time":277.5880965,"velocity":0.3937007874015748},{"duration":0.17647049999999354,"midi":30,"time":277.9410375,"velocity":0.3937007874015748},{"duration":0.17647049999999354,"midi":39,"time":277.9410375,"velocity":0.3937007874015748},{"duration":0.17647049999999354,"midi":42,"time":277.9410375,"velocity":0.3937007874015748},{"duration":0.17647049999999354,"midi":32,"time":278.117508,"velocity":0.3937007874015748},{"duration":0.17647049999999354,"midi":40,"time":278.117508,"velocity":0.3937007874015748},{"duration":0.17647049999999354,"midi":44,"time":278.117508,"velocity":0.3937007874015748},{"duration":0.17647050000005038,"midi":40,"time":278.2939785,"velocity":0.3937007874015748},{"duration":0.17647050000005038,"midi":44,"time":278.2939785,"velocity":0.3937007874015748},{"duration":0.17647050000005038,"midi":32,"time":278.2939785,"velocity":0.3937007874015748},{"duration":0.35294099999998707,"midi":40,"time":278.47044900000003,"velocity":0.3937007874015748},{"duration":0.35294099999998707,"midi":32,"time":278.47044900000003,"velocity":0.3937007874015748},{"duration":0.35294099999998707,"midi":44,"time":278.47044900000003,"velocity":0.3937007874015748},{"duration":0.17647049999999354,"midi":44,"time":278.82339,"velocity":0.3937007874015748},{"duration":0.17647049999999354,"midi":32,"time":278.82339,"velocity":0.3937007874015748},{"duration":0.17647049999999354,"midi":40,"time":278.82339,"velocity":0.3937007874015748},{"duration":0.35294099999998707,"midi":40,"time":278.9998605,"velocity":0.3937007874015748},{"duration":0.35294099999998707,"midi":44,"time":278.9998605,"velocity":0.3937007874015748},{"duration":0.35294099999998707,"midi":32,"time":278.9998605,"velocity":0.3937007874015748},{"duration":0.17647049999999354,"midi":44,"time":279.3528015,"velocity":0.3937007874015748},{"duration":0.17647049999999354,"midi":32,"time":279.3528015,"velocity":0.3937007874015748},{"duration":0.17647049999999354,"midi":40,"time":279.3528015,"velocity":0.3937007874015748},{"duration":0.17647049999999354,"midi":32,"time":279.529272,"velocity":0.3937007874015748},{"duration":0.17647049999999354,"midi":40,"time":279.529272,"velocity":0.3937007874015748},{"duration":0.17647049999999354,"midi":44,"time":279.529272,"velocity":0.3937007874015748},{"duration":0.3529410000000439,"midi":40,"time":279.7057425,"velocity":0.3937007874015748},{"duration":0.3529410000000439,"midi":44,"time":279.7057425,"velocity":0.3937007874015748},{"duration":0.3529410000000439,"midi":32,"time":279.7057425,"velocity":0.3937007874015748},{"duration":0.17647049999999354,"midi":40,"time":280.05868350000003,"velocity":0.3937007874015748},{"duration":0.17647049999999354,"midi":44,"time":280.05868350000003,"velocity":0.3937007874015748},{"duration":0.17647049999999354,"midi":32,"time":280.05868350000003,"velocity":0.3937007874015748},{"duration":0.17647049999999354,"midi":32,"time":280.235154,"velocity":0.3937007874015748},{"duration":0.17647049999999354,"midi":40,"time":280.235154,"velocity":0.3937007874015748},{"duration":0.17647049999999354,"midi":44,"time":280.235154,"velocity":0.3937007874015748},{"duration":0.35294099999998707,"midi":44,"time":280.4116245,"velocity":0.3937007874015748},{"duration":0.35294099999998707,"midi":32,"time":280.4116245,"velocity":0.3937007874015748},{"duration":0.35294099999998707,"midi":40,"time":280.4116245,"velocity":0.3937007874015748},{"duration":0.17647049999999354,"midi":44,"time":280.7645655,"velocity":0.3937007874015748},{"duration":0.17647049999999354,"midi":40,"time":280.7645655,"velocity":0.3937007874015748},{"duration":0.17647049999999354,"midi":32,"time":280.7645655,"velocity":0.3937007874015748},{"duration":0.17647049999999354,"midi":46,"time":280.941036,"velocity":0.3937007874015748},{"duration":0.17647049999999354,"midi":34,"time":280.941036,"velocity":0.3937007874015748},{"duration":0.17647049999999354,"midi":42,"time":280.941036,"velocity":0.3937007874015748},{"duration":0.17647049999999354,"midi":42,"time":281.1175065,"velocity":0.3937007874015748},{"duration":0.17647049999999354,"midi":34,"time":281.1175065,"velocity":0.3937007874015748},{"duration":0.17647049999999354,"midi":46,"time":281.1175065,"velocity":0.3937007874015748},{"duration":0.3529410000000439,"midi":46,"time":281.293977,"velocity":0.3937007874015748},{"duration":0.3529410000000439,"midi":34,"time":281.293977,"velocity":0.3937007874015748},{"duration":0.3529410000000439,"midi":42,"time":281.293977,"velocity":0.3937007874015748},{"duration":0.17647049999999354,"midi":46,"time":281.646918,"velocity":0.3937007874015748},{"duration":0.17647049999999354,"midi":34,"time":281.646918,"velocity":0.3937007874015748},{"duration":0.17647049999999354,"midi":42,"time":281.646918,"velocity":0.3937007874015748},{"duration":0.35294099999998707,"midi":34,"time":281.8233885,"velocity":0.3937007874015748},{"duration":0.35294099999998707,"midi":42,"time":281.8233885,"velocity":0.3937007874015748},{"duration":0.35294099999998707,"midi":46,"time":281.8233885,"velocity":0.3937007874015748},{"duration":0.17647049999999354,"midi":46,"time":282.1763295,"velocity":0.3937007874015748},{"duration":0.17647049999999354,"midi":34,"time":282.1763295,"velocity":0.3937007874015748},{"duration":0.17647049999999354,"midi":42,"time":282.1763295,"velocity":0.3937007874015748},{"duration":0.17647049999999354,"midi":35,"time":282.3528,"velocity":0.3937007874015748},{"duration":0.17647049999999354,"midi":47,"time":282.3528,"velocity":0.3937007874015748},{"duration":0.17647049999999354,"midi":44,"time":282.3528,"velocity":0.3937007874015748},{"duration":0.35294099999998707,"midi":35,"time":282.5292705,"velocity":0.3937007874015748},{"duration":0.35294099999998707,"midi":44,"time":282.5292705,"velocity":0.3937007874015748},{"duration":0.35294099999998707,"midi":47,"time":282.5292705,"velocity":0.3937007874015748},{"duration":0.17647049999999354,"midi":44,"time":282.8822115,"velocity":0.3937007874015748},{"duration":0.17647049999999354,"midi":35,"time":282.8822115,"velocity":0.3937007874015748},{"duration":0.17647049999999354,"midi":47,"time":282.8822115,"velocity":0.3937007874015748},{"duration":0.17647050000005038,"midi":47,"time":283.058682,"velocity":0.3937007874015748},{"duration":0.17647050000005038,"midi":35,"time":283.058682,"velocity":0.3937007874015748},{"duration":0.17647050000005038,"midi":44,"time":283.058682,"velocity":0.3937007874015748},{"duration":0.35294099999998707,"midi":35,"time":283.2351525,"velocity":0.3937007874015748},{"duration":0.35294099999998707,"midi":47,"time":283.2351525,"velocity":0.3937007874015748},{"duration":0.35294099999998707,"midi":44,"time":283.2351525,"velocity":0.3937007874015748},{"duration":0.17647049999999354,"midi":47,"time":283.5880935,"velocity":0.3937007874015748},{"duration":0.17647049999999354,"midi":35,"time":283.5880935,"velocity":0.3937007874015748},{"duration":0.17647049999999354,"midi":44,"time":283.5880935,"velocity":0.3937007874015748},{"duration":0.17647049999999354,"midi":29,"time":283.764564,"velocity":0.3937007874015748},{"duration":0.17647049999999354,"midi":37,"time":283.764564,"velocity":0.3937007874015748},{"duration":0.17647049999999354,"midi":41,"time":283.764564,"velocity":0.3937007874015748},{"duration":0.17647049999999354,"midi":41,"time":283.9410345,"velocity":0.3937007874015748},{"duration":0.17647049999999354,"midi":29,"time":283.9410345,"velocity":0.3937007874015748},{"duration":0.17647049999999354,"midi":37,"time":283.9410345,"velocity":0.3937007874015748},{"duration":0.35294099999998707,"midi":37,"time":284.117505,"velocity":0.3937007874015748},{"duration":0.35294099999998707,"midi":41,"time":284.117505,"velocity":0.3937007874015748},{"duration":0.35294099999998707,"midi":29,"time":284.117505,"velocity":0.3937007874015748},{"duration":0.17647050000005038,"midi":41,"time":284.470446,"velocity":0.3937007874015748},{"duration":0.17647050000005038,"midi":29,"time":284.470446,"velocity":0.3937007874015748},{"duration":0.17647050000005038,"midi":37,"time":284.470446,"velocity":0.3937007874015748},{"duration":0.35294099999998707,"midi":37,"time":284.64691650000003,"velocity":0.3937007874015748},{"duration":0.35294099999998707,"midi":29,"time":284.64691650000003,"velocity":0.3937007874015748},{"duration":0.35294099999998707,"midi":41,"time":284.64691650000003,"velocity":0.3937007874015748},{"duration":0.17647049999999354,"midi":41,"time":284.9998575,"velocity":0.3937007874015748},{"duration":0.17647049999999354,"midi":29,"time":284.9998575,"velocity":0.3937007874015748},{"duration":0.17647049999999354,"midi":37,"time":284.9998575,"velocity":0.3937007874015748},{"duration":0.17647049999999354,"midi":29,"time":285.176328,"velocity":0.3937007874015748},{"duration":0.17647049999999354,"midi":41,"time":285.176328,"velocity":0.3937007874015748},{"duration":0.17647049999999354,"midi":37,"time":285.176328,"velocity":0.3937007874015748},{"duration":0.35294099999998707,"midi":41,"time":285.3527985,"velocity":0.3937007874015748},{"duration":0.35294099999998707,"midi":29,"time":285.3527985,"velocity":0.3937007874015748},{"duration":0.35294099999998707,"midi":37,"time":285.3527985,"velocity":0.3937007874015748},{"duration":0.17647049999999354,"midi":37,"time":285.7057395,"velocity":0.3937007874015748},{"duration":0.17647049999999354,"midi":41,"time":285.7057395,"velocity":0.3937007874015748},{"duration":0.17647049999999354,"midi":29,"time":285.7057395,"velocity":0.3937007874015748},{"duration":0.17647049999999354,"midi":41,"time":285.88221,"velocity":0.3937007874015748},{"duration":0.17647049999999354,"midi":29,"time":285.88221,"velocity":0.3937007874015748},{"duration":0.17647049999999354,"midi":37,"time":285.88221,"velocity":0.3937007874015748},{"duration":0.3529410000000439,"midi":37,"time":286.0586805,"velocity":0.3937007874015748},{"duration":0.3529410000000439,"midi":41,"time":286.0586805,"velocity":0.3937007874015748},{"duration":0.3529410000000439,"midi":29,"time":286.0586805,"velocity":0.3937007874015748},{"duration":0.17647049999999354,"midi":37,"time":286.4116215,"velocity":0.3937007874015748},{"duration":0.17647049999999354,"midi":29,"time":286.4116215,"velocity":0.3937007874015748},{"duration":0.17647049999999354,"midi":41,"time":286.4116215,"velocity":0.3937007874015748},{"duration":0.17647049999999354,"midi":42,"time":286.588092,"velocity":0.3937007874015748},{"duration":0.17647049999999354,"midi":30,"time":286.588092,"velocity":0.3937007874015748},{"duration":0.17647049999999354,"midi":39,"time":286.588092,"velocity":0.3937007874015748},{"duration":0.17647049999999354,"midi":39,"time":286.7645625,"velocity":0.3937007874015748},{"duration":0.17647049999999354,"midi":42,"time":286.7645625,"velocity":0.3937007874015748},{"duration":0.17647049999999354,"midi":30,"time":286.7645625,"velocity":0.3937007874015748},{"duration":0.35294099999998707,"midi":42,"time":286.941033,"velocity":0.3937007874015748},{"duration":0.35294099999998707,"midi":39,"time":286.941033,"velocity":0.3937007874015748},{"duration":0.35294099999998707,"midi":30,"time":286.941033,"velocity":0.3937007874015748},{"duration":0.17647049999999354,"midi":42,"time":287.293974,"velocity":0.3937007874015748},{"duration":0.17647049999999354,"midi":30,"time":287.293974,"velocity":0.3937007874015748},{"duration":0.17647049999999354,"midi":39,"time":287.293974,"velocity":0.3937007874015748},{"duration":0.3529410000000439,"midi":39,"time":287.4704445,"velocity":0.3937007874015748},{"duration":0.3529410000000439,"midi":30,"time":287.4704445,"velocity":0.3937007874015748},{"duration":0.3529410000000439,"midi":42,"time":287.4704445,"velocity":0.3937007874015748},{"duration":0.17647049999999354,"midi":42,"time":287.82338550000003,"velocity":0.3937007874015748},{"duration":0.17647049999999354,"midi":30,"time":287.82338550000003,"velocity":0.3937007874015748},{"duration":0.17647049999999354,"midi":39,"time":287.82338550000003,"velocity":0.3937007874015748},{"duration":0.17647049999999354,"midi":30,"time":287.999856,"velocity":0.3937007874015748},{"duration":0.17647049999999354,"midi":42,"time":287.999856,"velocity":0.3937007874015748},{"duration":0.17647049999999354,"midi":39,"time":287.999856,"velocity":0.3937007874015748},{"duration":0.35294099999998707,"midi":42,"time":288.1763265,"velocity":0.3937007874015748},{"duration":0.35294099999998707,"midi":30,"time":288.1763265,"velocity":0.3937007874015748},{"duration":0.35294099999998707,"midi":39,"time":288.1763265,"velocity":0.3937007874015748},{"duration":0.17647049999999354,"midi":39,"time":288.5292675,"velocity":0.3937007874015748},{"duration":0.17647049999999354,"midi":42,"time":288.5292675,"velocity":0.3937007874015748},{"duration":0.17647049999999354,"midi":30,"time":288.5292675,"velocity":0.3937007874015748},{"duration":0.17647049999999354,"midi":30,"time":288.705738,"velocity":0.3937007874015748},{"duration":0.17647049999999354,"midi":39,"time":288.705738,"velocity":0.3937007874015748},{"duration":0.17647049999999354,"midi":42,"time":288.705738,"velocity":0.3937007874015748},{"duration":0.35294099999998707,"midi":30,"time":288.8822085,"velocity":0.3937007874015748},{"duration":0.35294099999998707,"midi":39,"time":288.8822085,"velocity":0.3937007874015748},{"duration":0.35294099999998707,"midi":42,"time":288.8822085,"velocity":0.3937007874015748},{"duration":0.17647050000005038,"midi":42,"time":289.2351495,"velocity":0.3937007874015748},{"duration":0.17647050000005038,"midi":30,"time":289.2351495,"velocity":0.3937007874015748},{"duration":0.17647050000005038,"midi":39,"time":289.2351495,"velocity":0.3937007874015748},{"duration":0.17647049999999354,"midi":40,"time":289.41162,"velocity":0.3937007874015748},{"duration":0.17647049999999354,"midi":44,"time":289.41162,"velocity":0.3937007874015748},{"duration":0.17647049999999354,"midi":32,"time":289.41162,"velocity":0.3937007874015748},{"duration":0.17647049999999354,"midi":40,"time":289.5880905,"velocity":0.3937007874015748},{"duration":0.17647049999999354,"midi":32,"time":289.5880905,"velocity":0.3937007874015748},{"duration":0.17647049999999354,"midi":44,"time":289.5880905,"velocity":0.3937007874015748},{"duration":0.35294099999998707,"midi":32,"time":289.764561,"velocity":0.3937007874015748},{"duration":0.35294099999998707,"midi":40,"time":289.764561,"velocity":0.3937007874015748},{"duration":0.35294099999998707,"midi":44,"time":289.764561,"velocity":0.3937007874015748},{"duration":0.17647049999999354,"midi":32,"time":290.117502,"velocity":0.3937007874015748},{"duration":0.17647049999999354,"midi":40,"time":290.117502,"velocity":0.3937007874015748},{"duration":0.17647049999999354,"midi":44,"time":290.117502,"velocity":0.3937007874015748},{"duration":0.35294099999998707,"midi":40,"time":290.2939725,"velocity":0.3937007874015748},{"duration":0.35294099999998707,"midi":44,"time":290.2939725,"velocity":0.3937007874015748},{"duration":0.35294099999998707,"midi":32,"time":290.2939725,"velocity":0.3937007874015748},{"duration":0.17647049999999354,"midi":40,"time":290.6469135,"velocity":0.3937007874015748},{"duration":0.17647049999999354,"midi":32,"time":290.6469135,"velocity":0.3937007874015748},{"duration":0.17647049999999354,"midi":44,"time":290.6469135,"velocity":0.3937007874015748},{"duration":0.17647050000005038,"midi":44,"time":290.823384,"velocity":0.3937007874015748},{"duration":0.17647050000005038,"midi":32,"time":290.823384,"velocity":0.3937007874015748},{"duration":0.17647050000005038,"midi":40,"time":290.823384,"velocity":0.3937007874015748},{"duration":0.35294099999998707,"midi":32,"time":290.9998545,"velocity":0.3937007874015748},{"duration":0.35294099999998707,"midi":44,"time":290.9998545,"velocity":0.3937007874015748},{"duration":0.35294099999998707,"midi":40,"time":290.9998545,"velocity":0.3937007874015748},{"duration":0.17647049999999354,"midi":32,"time":291.3527955,"velocity":0.3937007874015748},{"duration":0.17647049999999354,"midi":40,"time":291.3527955,"velocity":0.3937007874015748},{"duration":0.17647049999999354,"midi":44,"time":291.3527955,"velocity":0.3937007874015748},{"duration":0.17647049999999354,"midi":44,"time":291.529266,"velocity":0.3937007874015748},{"duration":0.17647049999999354,"midi":32,"time":291.529266,"velocity":0.3937007874015748},{"duration":0.17647049999999354,"midi":40,"time":291.529266,"velocity":0.3937007874015748},{"duration":0.35294099999998707,"midi":32,"time":291.7057365,"velocity":0.3937007874015748},{"duration":0.35294099999998707,"midi":44,"time":291.7057365,"velocity":0.3937007874015748},{"duration":0.35294099999998707,"midi":40,"time":291.7057365,"velocity":0.3937007874015748},{"duration":0.17647049999999354,"midi":40,"time":292.0586775,"velocity":0.3937007874015748},{"duration":0.17647049999999354,"midi":32,"time":292.0586775,"velocity":0.3937007874015748},{"duration":0.17647049999999354,"midi":44,"time":292.0586775,"velocity":0.3937007874015748},{"duration":0.17647050000005038,"midi":46,"time":292.235148,"velocity":0.3937007874015748},{"duration":0.17647050000005038,"midi":34,"time":292.235148,"velocity":0.3937007874015748},{"duration":0.17647050000005038,"midi":42,"time":292.235148,"velocity":0.3937007874015748},{"duration":0.17647049999999354,"midi":34,"time":292.41161850000003,"velocity":0.3937007874015748},{"duration":0.17647049999999354,"midi":46,"time":292.41161850000003,"velocity":0.3937007874015748},{"duration":0.17647049999999354,"midi":42,"time":292.41161850000003,"velocity":0.3937007874015748},{"duration":0.35294099999998707,"midi":34,"time":292.588089,"velocity":0.3937007874015748},{"duration":0.35294099999998707,"midi":42,"time":292.588089,"velocity":0.3937007874015748},{"duration":0.35294099999998707,"midi":46,"time":292.588089,"velocity":0.3937007874015748},{"duration":0.17647049999999354,"midi":34,"time":292.94103,"velocity":0.3937007874015748},{"duration":0.17647049999999354,"midi":42,"time":292.94103,"velocity":0.3937007874015748},{"duration":0.17647049999999354,"midi":46,"time":292.94103,"velocity":0.3937007874015748},{"duration":0.35294099999998707,"midi":46,"time":293.1175005,"velocity":0.3937007874015748},{"duration":0.35294099999998707,"midi":34,"time":293.1175005,"velocity":0.3937007874015748},{"duration":0.35294099999998707,"midi":42,"time":293.1175005,"velocity":0.3937007874015748},{"duration":0.17647049999999354,"midi":34,"time":293.4704415,"velocity":0.3937007874015748},{"duration":0.17647049999999354,"midi":46,"time":293.4704415,"velocity":0.3937007874015748},{"duration":0.17647049999999354,"midi":42,"time":293.4704415,"velocity":0.3937007874015748},{"duration":0.17647049999999354,"midi":35,"time":293.646912,"velocity":0.3937007874015748},{"duration":0.17647049999999354,"midi":44,"time":293.646912,"velocity":0.3937007874015748},{"duration":0.17647049999999354,"midi":47,"time":293.646912,"velocity":0.3937007874015748},{"duration":0.3529410000000439,"midi":47,"time":293.8233825,"velocity":0.3937007874015748},{"duration":0.3529410000000439,"midi":35,"time":293.8233825,"velocity":0.3937007874015748},{"duration":0.3529410000000439,"midi":44,"time":293.8233825,"velocity":0.3937007874015748},{"duration":0.17647049999999354,"midi":47,"time":294.1763235,"velocity":0.3937007874015748},{"duration":0.17647049999999354,"midi":35,"time":294.1763235,"velocity":0.3937007874015748},{"duration":0.17647049999999354,"midi":44,"time":294.1763235,"velocity":0.3937007874015748},{"duration":0.17647049999999354,"midi":47,"time":294.352794,"velocity":0.3937007874015748},{"duration":0.17647049999999354,"midi":35,"time":294.352794,"velocity":0.3937007874015748},{"duration":0.17647049999999354,"midi":44,"time":294.352794,"velocity":0.3937007874015748},{"duration":0.35294099999998707,"midi":44,"time":294.5292645,"velocity":0.3937007874015748},{"duration":0.35294099999998707,"midi":35,"time":294.5292645,"velocity":0.3937007874015748},{"duration":0.35294099999998707,"midi":47,"time":294.5292645,"velocity":0.3937007874015748},{"duration":0.17647049999999354,"midi":47,"time":294.8822055,"velocity":0.3937007874015748},{"duration":0.17647049999999354,"midi":35,"time":294.8822055,"velocity":0.3937007874015748},{"duration":0.17647049999999354,"midi":44,"time":294.8822055,"velocity":0.3937007874015748},{"duration":1.4117640000000051,"midi":56,"time":295.058676,"velocity":0.3937007874015748},{"duration":1.058823000000018,"midi":55,"time":296.47044,"velocity":0.3937007874015748},{"duration":0.35294099999998707,"midi":49,"time":297.529263,"velocity":0.3937007874015748},{"duration":0.35294099999998707,"midi":42,"time":297.882204,"velocity":0.3937007874015748},{"duration":0.35294099999998707,"midi":49,"time":298.235145,"velocity":0.3937007874015748},{"duration":0.3529410000000439,"midi":54,"time":298.588086,"velocity":0.3937007874015748},{"duration":0.35294099999998707,"midi":49,"time":298.941027,"velocity":0.3937007874015748},{"duration":0.35294099999998707,"midi":41,"time":299.293968,"velocity":0.3937007874015748},{"duration":0.35294099999998707,"midi":48,"time":299.646909,"velocity":0.3937007874015748},{"duration":0.3529410000000439,"midi":53,"time":299.99985,"velocity":0.3937007874015748},{"duration":0.35294099999998707,"midi":49,"time":300.352791,"velocity":0.3937007874015748},{"duration":0.35294099999998707,"midi":41,"time":300.705732,"velocity":0.3937007874015748},{"duration":0.35294099999998707,"midi":47,"time":301.058673,"velocity":0.3937007874015748},{"duration":0.3529410000000439,"midi":53,"time":301.411614,"velocity":0.3937007874015748},{"duration":0.35294099999998707,"midi":59,"time":301.76455500000003,"velocity":0.3937007874015748},{"duration":0.35294099999998707,"midi":39,"time":302.117496,"velocity":0.3937007874015748},{"duration":0.35294099999998707,"midi":47,"time":302.470437,"velocity":0.3937007874015748},{"duration":0.35294099999998707,"midi":51,"time":302.823378,"velocity":0.3937007874015748},{"duration":0.3529410000000439,"midi":59,"time":303.176319,"velocity":0.3937007874015748},{"duration":0.35294099999998707,"midi":38,"time":303.52926,"velocity":0.3937007874015748},{"duration":0.35294099999998707,"midi":45,"time":303.882201,"velocity":0.3937007874015748},{"duration":0.35294099999998707,"midi":50,"time":304.235142,"velocity":0.3937007874015748},{"duration":0.3529410000000439,"midi":45,"time":304.588083,"velocity":0.3937007874015748},{"duration":0.7058819999999741,"midi":49,"time":304.941024,"velocity":0.3937007874015748},{"duration":2.1176459999999793,"midi":54,"time":305.646906,"velocity":0.3937007874015748},{"duration":1.4117640000000051,"midi":53,"time":307.764552,"velocity":0.3937007874015748},{"duration":1.4117640000000051,"midi":54,"time":309.176316,"velocity":0.3937007874015748},{"duration":1.4117640000000051,"midi":56,"time":310.58808,"velocity":0.3937007874015748},{"duration":1.4117640000000051,"midi":58,"time":311.999844,"velocity":0.3937007874015748},{"duration":1.4117640000000051,"midi":53,"time":313.411608,"velocity":0.3937007874015748},{"duration":1.4117640000000051,"midi":54,"time":314.823372,"velocity":0.3937007874015748},{"duration":1.4117640000000051,"midi":56,"time":316.235136,"velocity":0.3937007874015748},{"duration":1.4117640000000051,"midi":58,"time":317.6469,"velocity":0.3937007874015748}]},{"instrument":{"family":"piano","number":0,"name":"acoustic grand piano"},"notes":[{"duration":0.705882000000031,"midi":66,"time":295.058676,"velocity":0.3937007874015748},{"duration":0.7058819999999741,"midi":78,"time":295.764558,"velocity":0.3937007874015748},{"duration":1.4117640000000051,"midi":73,"time":296.47044,"velocity":0.3937007874015748},{"duration":0.7058819999999741,"midi":66,"time":297.882204,"velocity":0.3937007874015748},{"duration":0.7058819999999741,"midi":71,"time":297.882204,"velocity":0.3937007874015748},{"duration":0.3529410000000439,"midi":78,"time":298.588086,"velocity":0.3937007874015748},{"duration":0.3529410000000439,"midi":71,"time":298.588086,"velocity":0.3937007874015748},{"duration":0.17647049999999354,"midi":80,"time":298.941027,"velocity":0.3937007874015748},{"duration":0.35294099999998707,"midi":78,"time":299.1174975,"velocity":0.3937007874015748},{"duration":0.35294099999998707,"midi":71,"time":299.1174975,"velocity":0.3937007874015748},{"duration":0.35294099999998707,"midi":66,"time":299.4704385,"velocity":0.3937007874015748},{"duration":0.35294099999998707,"midi":75,"time":299.4704385,"velocity":0.3937007874015748},{"duration":0.3529410000000439,"midi":70,"time":299.8233795,"velocity":0.3937007874015748},{"duration":0.3529410000000439,"midi":73,"time":299.8233795,"velocity":0.3937007874015748},{"duration":0.08823524999996835,"midi":75,"time":300.17632050000003,"velocity":0.3937007874015748},{"duration":0.08823525000002519,"midi":73,"time":300.26455575,"velocity":0.3937007874015748},{"duration":0.35294099999998707,"midi":71,"time":300.352791,"velocity":0.3937007874015748},{"duration":0.35294099999998707,"midi":66,"time":300.352791,"velocity":0.3937007874015748},{"duration":0.35294099999998707,"midi":71,"time":300.705732,"velocity":0.3937007874015748},{"duration":0.35294099999998707,"midi":66,"time":300.705732,"velocity":0.3937007874015748},{"duration":0.17647049999999354,"midi":66,"time":301.058673,"velocity":0.3937007874015748},{"duration":0.17647049999999354,"midi":71,"time":301.058673,"velocity":0.3937007874015748},{"duration":0.17647049999999354,"midi":73,"time":301.2351435,"velocity":0.3937007874015748},{"duration":0.17647049999999354,"midi":70,"time":301.2351435,"velocity":0.3937007874015748},{"duration":0.3529410000000439,"midi":71,"time":301.411614,"velocity":0.3937007874015748},{"duration":0.3529410000000439,"midi":75,"time":301.411614,"velocity":0.3937007874015748},{"duration":0.35294099999998707,"midi":71,"time":301.76455500000003,"velocity":0.3937007874015748},{"duration":0.35294099999998707,"midi":66,"time":301.76455500000003,"velocity":0.3937007874015748},{"duration":0.35294099999998707,"midi":73,"time":302.117496,"velocity":0.3937007874015748},{"duration":0.35294099999998707,"midi":70,"time":302.117496,"velocity":0.3937007874015748},{"duration":0.17647049999999354,"midi":70,"time":302.470437,"velocity":0.3937007874015748},{"duration":0.17647049999999354,"midi":73,"time":302.470437,"velocity":0.3937007874015748},{"duration":0.17647049999999354,"midi":75,"time":302.6469075,"velocity":0.3937007874015748},{"duration":0.17647049999999354,"midi":71,"time":302.6469075,"velocity":0.3937007874015748},{"duration":0.35294099999998707,"midi":73,"time":302.823378,"velocity":0.3937007874015748},{"duration":0.35294099999998707,"midi":70,"time":302.823378,"velocity":0.3937007874015748},{"duration":0.3529410000000439,"midi":66,"time":303.176319,"velocity":0.3937007874015748},{"duration":0.3529410000000439,"midi":71,"time":303.176319,"velocity":0.3937007874015748},{"duration":0.35294099999998707,"midi":74,"time":303.52926,"velocity":0.3937007874015748},{"duration":0.35294099999998707,"midi":69,"time":303.52926,"velocity":0.3937007874015748},{"duration":0.35294099999998707,"midi":69,"time":303.882201,"velocity":0.3937007874015748},{"duration":0.35294099999998707,"midi":73,"time":303.882201,"velocity":0.3937007874015748},{"duration":0.35294099999998707,"midi":66,"time":304.235142,"velocity":0.3937007874015748},{"duration":0.35294099999998707,"midi":69,"time":304.235142,"velocity":0.3937007874015748},{"duration":0.3529410000000439,"midi":65,"time":304.588083,"velocity":0.3937007874015748},{"duration":0.3529410000000439,"midi":61,"time":304.588083,"velocity":0.3937007874015748},{"duration":0.7058819999999741,"midi":63,"time":304.941024,"velocity":0.3937007874015748},{"duration":0.7058819999999741,"midi":68,"time":304.941024,"velocity":0.3937007874015748},{"duration":0.7058819999999741,"midi":71,"time":304.941024,"velocity":0.3937007874015748},{"duration":2.1176459999999793,"midi":66,"time":305.646906,"velocity":0.3937007874015748},{"duration":2.1176459999999793,"midi":70,"time":305.646906,"velocity":0.3937007874015748},{"duration":2.1176459999999793,"midi":73,"time":305.646906,"velocity":0.3937007874015748}]},{"instrument":{"family":"brass","number":60,"name":"french horn"},"notes":[{"duration":0.35294099999998707,"midi":56,"time":182.117556,"velocity":0.2125984251968504},{"duration":0.35294099999998707,"midi":51,"time":182.117556,"velocity":0.2125984251968504},{"duration":0.3529410000000155,"midi":55,"time":182.470497,"velocity":0.2125984251968504},{"duration":0.3529410000000155,"midi":50,"time":182.470497,"velocity":0.2125984251968504},{"duration":2.1176459999999793,"midi":54,"time":182.823438,"velocity":0.2125984251968504},{"duration":2.1176459999999793,"midi":59,"time":182.823438,"velocity":0.2125984251968504},{"duration":0.3529410000000155,"midi":57,"time":187.764612,"velocity":0.2125984251968504},{"duration":0.3529410000000155,"midi":52,"time":187.764612,"velocity":0.2125984251968504},{"duration":0.35294099999998707,"midi":56,"time":188.11755300000002,"velocity":0.2125984251968504},{"duration":0.35294099999998707,"midi":51,"time":188.11755300000002,"velocity":0.2125984251968504},{"duration":2.1176460000000077,"midi":55,"time":188.470494,"velocity":0.2125984251968504},{"duration":2.1176460000000077,"midi":60,"time":188.470494,"velocity":0.2125984251968504},{"duration":0.3529410000000155,"midi":56,"time":193.411668,"velocity":0.2125984251968504},{"duration":0.3529410000000155,"midi":51,"time":193.411668,"velocity":0.2125984251968504},{"duration":0.35294099999998707,"midi":55,"time":193.764609,"velocity":0.2125984251968504},{"duration":0.35294099999998707,"midi":50,"time":193.764609,"velocity":0.2125984251968504},{"duration":2.1176460000000077,"midi":54,"time":194.11755,"velocity":0.2125984251968504},{"duration":2.1176460000000077,"midi":59,"time":194.11755,"velocity":0.2125984251968504},{"duration":0.35294099999998707,"midi":57,"time":199.058724,"velocity":0.2125984251968504},{"duration":0.35294099999998707,"midi":52,"time":199.058724,"velocity":0.2125984251968504},{"duration":0.3529410000000155,"midi":56,"time":199.411665,"velocity":0.2125984251968504},{"duration":0.3529410000000155,"midi":51,"time":199.411665,"velocity":0.2125984251968504},{"duration":2.1176459999999793,"midi":55,"time":199.76460600000001,"velocity":0.2125984251968504},{"duration":2.1176459999999793,"midi":60,"time":199.76460600000001,"velocity":0.2125984251968504}]},{"instrument":{"family":"brass","number":57,"name":"trombone"},"notes":[{"duration":0.7058820000000026,"midi":54,"time":204.70578,"velocity":0.3937007874015748},{"duration":0.7058820000000026,"midi":59,"time":204.70578,"velocity":0.3937007874015748},{"duration":0.7058820000000026,"midi":71,"time":205.411662,"velocity":0.3937007874015748},{"duration":0.7058820000000026,"midi":66,"time":205.411662,"velocity":0.3937007874015748},{"duration":1.0588229999999896,"midi":61,"time":206.117544,"velocity":0.3937007874015748},{"duration":1.0588229999999896,"midi":66,"time":206.117544,"velocity":0.3937007874015748},{"duration":0.7058819999999741,"midi":63,"time":207.52930800000001,"velocity":0.3937007874015748},{"duration":0.7058819999999741,"midi":59,"time":207.52930800000001,"velocity":0.3937007874015748},{"duration":0.3529410000000155,"midi":66,"time":208.23519,"velocity":0.3937007874015748},{"duration":0.3529410000000155,"midi":70,"time":208.23519,"velocity":0.3937007874015748},{"duration":0.17647049999999354,"midi":68,"time":208.588131,"velocity":0.3937007874015748},{"duration":0.3529410000000155,"midi":66,"time":208.7646015,"velocity":0.3937007874015748},{"duration":0.3529410000000155,"midi":71,"time":208.7646015,"velocity":0.3937007874015748},{"duration":0.35294099999998707,"midi":66,"time":209.1175425,"velocity":0.3937007874015748},{"duration":0.35294099999998707,"midi":63,"time":209.1175425,"velocity":0.3937007874015748},{"duration":0.3529410000000155,"midi":66,"time":209.4704835,"velocity":0.3937007874015748},{"duration":0.3529410000000155,"midi":61,"time":209.4704835,"velocity":0.3937007874015748},{"duration":0.35294099999998707,"midi":59,"time":209.999895,"velocity":0.3937007874015748},{"duration":0.35294099999998707,"midi":63,"time":209.999895,"velocity":0.3937007874015748},{"duration":0.3529410000000155,"midi":59,"time":210.352836,"velocity":0.3937007874015748},{"duration":0.3529410000000155,"midi":63,"time":210.352836,"velocity":0.3937007874015748},{"duration":0.17647049999999354,"midi":59,"time":210.705777,"velocity":0.3937007874015748},{"duration":0.17647049999999354,"midi":61,"time":210.8822475,"velocity":0.3937007874015748},{"duration":0.3529410000000155,"midi":63,"time":211.058718,"velocity":0.3937007874015748},{"duration":0.3529410000000155,"midi":68,"time":211.058718,"velocity":0.3937007874015748},{"duration":0.35294099999998707,"midi":59,"time":211.41165900000001,"velocity":0.3937007874015748},{"duration":0.35294099999998707,"midi":63,"time":211.41165900000001,"velocity":0.3937007874015748},{"duration":0.3529410000000155,"midi":61,"time":211.7646,"velocity":0.3937007874015748},{"duration":0.3529410000000155,"midi":66,"time":211.7646,"velocity":0.3937007874015748},{"duration":0.17647049999999354,"midi":61,"time":212.11754100000002,"velocity":0.3937007874015748},{"duration":0.17647049999999354,"midi":63,"time":212.2940115,"velocity":0.3937007874015748},{"duration":0.35294099999998707,"midi":61,"time":212.470482,"velocity":0.3937007874015748},{"duration":0.35294099999998707,"midi":66,"time":212.470482,"velocity":0.3937007874015748},{"duration":0.3529410000000155,"midi":59,"time":212.823423,"velocity":0.3937007874015748},{"duration":0.3529410000000155,"midi":63,"time":212.823423,"velocity":0.3937007874015748},{"duration":0.35294099999998707,"midi":66,"time":213.176364,"velocity":0.3937007874015748},{"duration":0.35294099999998707,"midi":62,"time":213.176364,"velocity":0.3937007874015748},{"duration":0.3529410000000155,"midi":61,"time":213.529305,"velocity":0.3937007874015748},{"duration":0.3529410000000155,"midi":65,"time":213.529305,"velocity":0.3937007874015748},{"duration":0.35294099999998707,"midi":57,"time":213.882246,"velocity":0.3937007874015748},{"duration":0.35294099999998707,"midi":61,"time":213.882246,"velocity":0.3937007874015748},{"duration":0.3529410000000155,"midi":65,"time":214.235187,"velocity":0.3937007874015748},{"duration":0.3529410000000155,"midi":61,"time":214.235187,"velocity":0.3937007874015748},{"duration":0.7058820000000026,"midi":59,"time":214.588128,"velocity":0.3937007874015748},{"duration":0.7058820000000026,"midi":65,"time":214.588128,"velocity":0.3937007874015748},{"duration":0.7058820000000026,"midi":61,"time":215.29401000000001,"velocity":0.3937007874015748},{"duration":0.7058820000000026,"midi":65,"time":215.29401000000001,"velocity":0.3937007874015748},{"duration":0.7058819999999741,"midi":54,"time":215.99989200000002,"velocity":0.3937007874015748},{"duration":0.7058819999999741,"midi":59,"time":215.99989200000002,"velocity":0.3937007874015748},{"duration":0.7058820000000026,"midi":71,"time":216.705774,"velocity":0.3937007874015748},{"duration":0.7058820000000026,"midi":66,"time":216.705774,"velocity":0.3937007874015748},{"duration":1.058823000000018,"midi":61,"time":217.411656,"velocity":0.3937007874015748},{"duration":1.058823000000018,"midi":66,"time":217.411656,"velocity":0.3937007874015748},{"duration":0.7058820000000026,"midi":59,"time":218.82342,"velocity":0.3937007874015748},{"duration":0.7058820000000026,"midi":63,"time":218.82342,"velocity":0.3937007874015748},{"duration":0.3529410000000155,"midi":66,"time":219.529302,"velocity":0.3937007874015748},{"duration":0.3529410000000155,"midi":70,"time":219.529302,"velocity":0.3937007874015748},{"duration":0.17647049999999354,"midi":68,"time":219.88224300000002,"velocity":0.3937007874015748},{"duration":0.35294099999998707,"midi":71,"time":220.0587135,"velocity":0.3937007874015748},{"duration":0.35294099999998707,"midi":66,"time":220.0587135,"velocity":0.3937007874015748},{"duration":0.3529410000000155,"midi":63,"time":220.4116545,"velocity":0.3937007874015748},{"duration":0.3529410000000155,"midi":66,"time":220.4116545,"velocity":0.3937007874015748},{"duration":0.35294099999998707,"midi":61,"time":220.7645955,"velocity":0.3937007874015748},{"duration":0.35294099999998707,"midi":66,"time":220.7645955,"velocity":0.3937007874015748},{"duration":0.3529410000000155,"midi":59,"time":221.294007,"velocity":0.3937007874015748},{"duration":0.3529410000000155,"midi":63,"time":221.294007,"velocity":0.3937007874015748},{"duration":0.35294099999998707,"midi":63,"time":221.646948,"velocity":0.3937007874015748},{"duration":0.35294099999998707,"midi":59,"time":221.646948,"velocity":0.3937007874015748},{"duration":0.17647049999999354,"midi":59,"time":221.999889,"velocity":0.3937007874015748},{"duration":0.17647050000002196,"midi":61,"time":222.1763595,"velocity":0.3937007874015748},{"duration":0.35294099999998707,"midi":63,"time":222.35283,"velocity":0.3937007874015748},{"duration":0.35294099999998707,"midi":68,"time":222.35283,"velocity":0.3937007874015748},{"duration":0.3529410000000155,"midi":59,"time":222.705771,"velocity":0.3937007874015748},{"duration":0.3529410000000155,"midi":63,"time":222.705771,"velocity":0.3937007874015748},{"duration":0.35294099999998707,"midi":61,"time":223.058712,"velocity":0.3937007874015748},{"duration":0.35294099999998707,"midi":66,"time":223.058712,"velocity":0.3937007874015748},{"duration":0.17647049999999354,"midi":61,"time":223.411653,"velocity":0.3937007874015748},{"duration":0.17647050000002196,"midi":63,"time":223.5881235,"velocity":0.3937007874015748},{"duration":0.35294099999998707,"midi":61,"time":223.76459400000002,"velocity":0.3937007874015748},{"duration":0.35294099999998707,"midi":66,"time":223.76459400000002,"velocity":0.3937007874015748},{"duration":0.35294099999998707,"midi":63,"time":224.117535,"velocity":0.3937007874015748},{"duration":0.35294099999998707,"midi":59,"time":224.117535,"velocity":0.3937007874015748},{"duration":0.3529410000000155,"midi":62,"time":224.470476,"velocity":0.3937007874015748},{"duration":0.3529410000000155,"midi":66,"time":224.470476,"velocity":0.3937007874015748},{"duration":0.35294099999998707,"midi":61,"time":224.823417,"velocity":0.3937007874015748},{"duration":0.35294099999998707,"midi":65,"time":224.823417,"velocity":0.3937007874015748},{"duration":0.3529410000000155,"midi":61,"time":225.176358,"velocity":0.3937007874015748},{"duration":0.3529410000000155,"midi":57,"time":225.176358,"velocity":0.3937007874015748},{"duration":0.35294099999998707,"midi":61,"time":225.529299,"velocity":0.3937007874015748},{"duration":0.35294099999998707,"midi":65,"time":225.529299,"velocity":0.3937007874015748},{"duration":0.7058820000000026,"midi":59,"time":225.88224,"velocity":0.3937007874015748},{"duration":0.7058820000000026,"midi":65,"time":225.88224,"velocity":0.3937007874015748},{"duration":0.7058820000000026,"midi":61,"time":226.588122,"velocity":0.3937007874015748},{"duration":0.7058820000000026,"midi":65,"time":226.588122,"velocity":0.3937007874015748},{"duration":0.35294099999998707,"midi":71,"time":272.470452,"velocity":0.3937007874015748},{"duration":0.35294099999998707,"midi":66,"time":272.470452,"velocity":0.3937007874015748},{"duration":0.35294099999998707,"midi":59,"time":272.823393,"velocity":0.3937007874015748},{"duration":0.35294099999998707,"midi":63,"time":272.823393,"velocity":0.3937007874015748},{"duration":0.35294099999998707,"midi":61,"time":273.176334,"velocity":0.3937007874015748},{"duration":0.35294099999998707,"midi":66,"time":273.176334,"velocity":0.3937007874015748},{"duration":0.3529410000000439,"midi":63,"time":273.529275,"velocity":0.3937007874015748},{"duration":0.3529410000000439,"midi":59,"time":273.529275,"velocity":0.3937007874015748},{"duration":0.17647049999999354,"midi":54,"time":273.882216,"velocity":0.3937007874015748},{"duration":0.17647049999999354,"midi":59,"time":273.882216,"velocity":0.3937007874015748},{"duration":0.17647049999999354,"midi":59,"time":274.0586865,"velocity":0.3937007874015748},{"duration":0.35294099999998707,"midi":61,"time":274.4116275,"velocity":0.3937007874015748},{"duration":0.35294099999998707,"midi":66,"time":274.4116275,"velocity":0.3937007874015748},{"duration":0.35294099999998707,"midi":63,"time":274.941039,"velocity":0.3937007874015748},{"duration":0.35294099999998707,"midi":59,"time":274.941039,"velocity":0.3937007874015748},{"duration":0.3529410000000439,"midi":54,"time":275.29398,"velocity":0.3937007874015748},{"duration":0.3529410000000439,"midi":59,"time":275.29398,"velocity":0.3937007874015748},{"duration":0.35294099999998707,"midi":59,"time":275.646921,"velocity":0.3937007874015748},{"duration":0.35294099999998707,"midi":63,"time":275.646921,"velocity":0.3937007874015748},{"duration":0.17647049999999354,"midi":61,"time":275.999862,"velocity":0.3937007874015748},{"duration":0.17647049999999354,"midi":66,"time":275.999862,"velocity":0.3937007874015748},{"duration":0.17647049999999354,"midi":68,"time":276.1763325,"velocity":0.3937007874015748},{"duration":0.17647049999999354,"midi":65,"time":276.1763325,"velocity":0.3937007874015748},{"duration":0.5294115000000374,"midi":66,"time":276.5292735,"velocity":0.3937007874015748},{"duration":0.5294115000000374,"midi":63,"time":276.5292735,"velocity":0.3937007874015748},{"duration":0.35294099999998707,"midi":61,"time":277.058685,"velocity":0.3937007874015748},{"duration":0.35294099999998707,"midi":66,"time":277.058685,"velocity":0.3937007874015748},{"duration":0.35294099999998707,"midi":59,"time":277.411626,"velocity":0.3937007874015748},{"duration":0.35294099999998707,"midi":63,"time":277.411626,"velocity":0.3937007874015748},{"duration":0.35294099999998707,"midi":54,"time":277.764567,"velocity":0.3937007874015748},{"duration":0.35294099999998707,"midi":59,"time":277.764567,"velocity":0.3937007874015748},{"duration":0.3529410000000439,"midi":66,"time":278.117508,"velocity":0.3937007874015748},{"duration":0.3529410000000439,"midi":71,"time":278.117508,"velocity":0.3937007874015748},{"duration":0.35294099999998707,"midi":59,"time":278.47044900000003,"velocity":0.3937007874015748},{"duration":0.35294099999998707,"midi":63,"time":278.47044900000003,"velocity":0.3937007874015748},{"duration":0.35294099999998707,"midi":66,"time":278.82339,"velocity":0.3937007874015748},{"duration":0.35294099999998707,"midi":61,"time":278.82339,"velocity":0.3937007874015748},{"duration":0.35294099999998707,"midi":63,"time":279.176331,"velocity":0.3937007874015748},{"duration":0.35294099999998707,"midi":59,"time":279.176331,"velocity":0.3937007874015748},{"duration":0.17647049999999354,"midi":54,"time":279.529272,"velocity":0.3937007874015748},{"duration":0.17647049999999354,"midi":59,"time":279.529272,"velocity":0.3937007874015748},{"duration":0.17647049999999354,"midi":59,"time":279.7057425,"velocity":0.3937007874015748},{"duration":0.35294099999998707,"midi":66,"time":280.05868350000003,"velocity":0.3937007874015748},{"duration":0.35294099999998707,"midi":61,"time":280.05868350000003,"velocity":0.3937007874015748},{"duration":0.35294099999998707,"midi":59,"time":280.588095,"velocity":0.3937007874015748},{"duration":0.35294099999998707,"midi":63,"time":280.588095,"velocity":0.3937007874015748},{"duration":0.35294099999998707,"midi":54,"time":280.941036,"velocity":0.3937007874015748},{"duration":0.35294099999998707,"midi":59,"time":280.941036,"velocity":0.3937007874015748},{"duration":0.3529410000000439,"midi":59,"time":281.293977,"velocity":0.3937007874015748},{"duration":0.3529410000000439,"midi":63,"time":281.293977,"velocity":0.3937007874015748},{"duration":0.17647049999999354,"midi":71,"time":281.646918,"velocity":0.3937007874015748},{"duration":0.17647049999999354,"midi":75,"time":281.646918,"velocity":0.3937007874015748},{"duration":0.35294099999998707,"midi":70,"time":281.8233885,"velocity":0.3937007874015748},{"duration":0.35294099999998707,"midi":75,"time":281.8233885,"velocity":0.3937007874015748},{"duration":0.35294099999998707,"midi":66,"time":282.1763295,"velocity":0.3937007874015748},{"duration":0.35294099999998707,"midi":71,"time":282.1763295,"velocity":0.3937007874015748},{"duration":0.17647049999999354,"midi":63,"time":282.5292705,"velocity":0.3937007874015748},{"duration":0.17647049999999354,"midi":66,"time":282.5292705,"velocity":0.3937007874015748},{"duration":0.17647049999999354,"midi":66,"time":282.705741,"velocity":0.3937007874015748},{"duration":0.17647049999999354,"midi":61,"time":282.705741,"velocity":0.3937007874015748},{"duration":0.3529410000000439,"midi":59,"time":282.8822115,"velocity":0.3937007874015748},{"duration":0.3529410000000439,"midi":63,"time":282.8822115,"velocity":0.3937007874015748},{"duration":0.17647049999999354,"midi":61,"time":283.2351525,"velocity":0.3937007874015748},{"duration":0.17647049999999354,"midi":66,"time":283.2351525,"velocity":0.3937007874015748},{"duration":0.17647049999999354,"midi":63,"time":283.411623,"velocity":0.3937007874015748},{"duration":0.17647049999999354,"midi":59,"time":283.411623,"velocity":0.3937007874015748},{"duration":0.17647049999999354,"midi":54,"time":283.5880935,"velocity":0.3937007874015748},{"duration":0.17647049999999354,"midi":59,"time":283.5880935,"velocity":0.3937007874015748},{"duration":0.35294099999998707,"midi":66,"time":283.764564,"velocity":0.3937007874015748},{"duration":0.35294099999998707,"midi":71,"time":283.764564,"velocity":0.3937007874015748},{"duration":0.35294099999998707,"midi":59,"time":284.117505,"velocity":0.3937007874015748},{"duration":0.35294099999998707,"midi":63,"time":284.117505,"velocity":0.3937007874015748},{"duration":0.3529410000000439,"midi":66,"time":284.470446,"velocity":0.3937007874015748},{"duration":0.3529410000000439,"midi":61,"time":284.470446,"velocity":0.3937007874015748},{"duration":0.35294099999998707,"midi":59,"time":284.823387,"velocity":0.3937007874015748},{"duration":0.35294099999998707,"midi":63,"time":284.823387,"velocity":0.3937007874015748},{"duration":0.17647049999999354,"midi":54,"time":285.176328,"velocity":0.3937007874015748},{"duration":0.17647049999999354,"midi":59,"time":285.176328,"velocity":0.3937007874015748},{"duration":0.17647049999999354,"midi":59,"time":285.3527985,"velocity":0.3937007874015748},{"duration":0.35294099999998707,"midi":61,"time":285.7057395,"velocity":0.3937007874015748},{"duration":0.35294099999998707,"midi":66,"time":285.7057395,"velocity":0.3937007874015748},{"duration":0.35294099999998707,"midi":59,"time":286.23515100000003,"velocity":0.3937007874015748},{"duration":0.35294099999998707,"midi":63,"time":286.23515100000003,"velocity":0.3937007874015748},{"duration":0.35294099999998707,"midi":54,"time":286.588092,"velocity":0.3937007874015748},{"duration":0.35294099999998707,"midi":59,"time":286.588092,"velocity":0.3937007874015748},{"duration":0.35294099999998707,"midi":59,"time":286.941033,"velocity":0.3937007874015748},{"duration":0.35294099999998707,"midi":63,"time":286.941033,"velocity":0.3937007874015748},{"duration":0.17647049999999354,"midi":66,"time":287.293974,"velocity":0.3937007874015748},{"duration":0.17647049999999354,"midi":61,"time":287.293974,"velocity":0.3937007874015748},{"duration":0.17647049999999354,"midi":65,"time":287.4704445,"velocity":0.3937007874015748},{"duration":0.17647049999999354,"midi":68,"time":287.4704445,"velocity":0.3937007874015748},{"duration":0.5294114999999806,"midi":63,"time":287.82338550000003,"velocity":0.3937007874015748},{"duration":0.5294114999999806,"midi":66,"time":287.82338550000003,"velocity":0.3937007874015748},{"duration":0.35294099999998707,"midi":61,"time":288.352797,"velocity":0.3937007874015748},{"duration":0.35294099999998707,"midi":66,"time":288.352797,"velocity":0.3937007874015748},{"duration":0.35294099999998707,"midi":63,"time":288.705738,"velocity":0.3937007874015748},{"duration":0.35294099999998707,"midi":59,"time":288.705738,"velocity":0.3937007874015748},{"duration":0.3529410000000439,"midi":59,"time":289.058679,"velocity":0.3937007874015748},{"duration":0.3529410000000439,"midi":54,"time":289.058679,"velocity":0.3937007874015748},{"duration":0.35294099999998707,"midi":66,"time":289.41162,"velocity":0.3937007874015748},{"duration":0.35294099999998707,"midi":71,"time":289.41162,"velocity":0.3937007874015748},{"duration":0.35294099999998707,"midi":63,"time":289.764561,"velocity":0.3937007874015748},{"duration":0.35294099999998707,"midi":59,"time":289.764561,"velocity":0.3937007874015748},{"duration":0.35294099999998707,"midi":61,"time":290.117502,"velocity":0.3937007874015748},{"duration":0.35294099999998707,"midi":66,"time":290.117502,"velocity":0.3937007874015748},{"duration":0.35294099999998707,"midi":59,"time":290.470443,"velocity":0.3937007874015748},{"duration":0.35294099999998707,"midi":63,"time":290.470443,"velocity":0.3937007874015748},{"duration":0.17647050000005038,"midi":59,"time":290.823384,"velocity":0.3937007874015748},{"duration":0.17647050000005038,"midi":54,"time":290.823384,"velocity":0.3937007874015748},{"duration":0.17647049999999354,"midi":59,"time":290.9998545,"velocity":0.3937007874015748},{"duration":0.35294099999998707,"midi":66,"time":291.3527955,"velocity":0.3937007874015748},{"duration":0.35294099999998707,"midi":61,"time":291.3527955,"velocity":0.3937007874015748},{"duration":0.35294099999998707,"midi":59,"time":291.882207,"velocity":0.3937007874015748},{"duration":0.35294099999998707,"midi":63,"time":291.882207,"velocity":0.3937007874015748},{"duration":0.3529410000000439,"midi":59,"time":292.235148,"velocity":0.3937007874015748},{"duration":0.3529410000000439,"midi":54,"time":292.235148,"velocity":0.3937007874015748},{"duration":0.35294099999998707,"midi":59,"time":292.588089,"velocity":0.3937007874015748},{"duration":0.35294099999998707,"midi":63,"time":292.588089,"velocity":0.3937007874015748},{"duration":0.17647049999999354,"midi":71,"time":292.94103,"velocity":0.3937007874015748},{"duration":0.17647049999999354,"midi":75,"time":292.94103,"velocity":0.3937007874015748},{"duration":0.35294099999998707,"midi":70,"time":293.1175005,"velocity":0.3937007874015748},{"duration":0.35294099999998707,"midi":75,"time":293.1175005,"velocity":0.3937007874015748},{"duration":0.35294099999998707,"midi":71,"time":293.4704415,"velocity":0.3937007874015748},{"duration":0.35294099999998707,"midi":66,"time":293.4704415,"velocity":0.3937007874015748},{"duration":0.17647050000005038,"midi":66,"time":293.8233825,"velocity":0.3937007874015748},{"duration":0.17647050000005038,"midi":63,"time":293.8233825,"velocity":0.3937007874015748},{"duration":0.17647049999999354,"midi":61,"time":293.99985300000003,"velocity":0.3937007874015748},{"duration":0.17647049999999354,"midi":66,"time":293.99985300000003,"velocity":0.3937007874015748},{"duration":0.35294099999998707,"midi":63,"time":294.1763235,"velocity":0.3937007874015748},{"duration":0.35294099999998707,"midi":59,"time":294.1763235,"velocity":0.3937007874015748},{"duration":0.17647049999999354,"midi":61,"time":294.5292645,"velocity":0.3937007874015748},{"duration":0.17647049999999354,"midi":66,"time":294.5292645,"velocity":0.3937007874015748},{"duration":0.17647049999999354,"midi":59,"time":294.705735,"velocity":0.3937007874015748},{"duration":0.17647049999999354,"midi":63,"time":294.705735,"velocity":0.3937007874015748},{"duration":0.17647049999999354,"midi":54,"time":294.8822055,"velocity":0.3937007874015748},{"duration":0.17647049999999354,"midi":59,"time":294.8822055,"velocity":0.3937007874015748}]},{"instrument":{"family":"strings","number":40,"name":"violin"},"notes":[{"duration":0.352941,"midi":65,"time":0,"velocity":0.3937007874015748},{"duration":0.352941,"midi":77,"time":0,"velocity":0.3937007874015748},{"duration":0.35294100000000006,"midi":77,"time":0.705882,"velocity":0.3937007874015748},{"duration":0.35294100000000006,"midi":89,"time":0.705882,"velocity":0.3937007874015748},{"duration":0.7058820000000001,"midi":84,"time":1.411764,"velocity":0.3937007874015748},{"duration":0.7058820000000001,"midi":72,"time":1.411764,"velocity":0.3937007874015748},{"duration":0.35294099999999995,"midi":70,"time":2.823528,"velocity":0.3937007874015748},{"duration":0.35294099999999995,"midi":82,"time":2.823528,"velocity":0.3937007874015748},{"duration":0.35294099999999995,"midi":89,"time":3.52941,"velocity":0.3937007874015748},{"duration":0.35294099999999995,"midi":77,"time":3.52941,"velocity":0.3937007874015748},{"duration":0.7058819999999999,"midi":77,"time":4.235292,"velocity":0.3937007874015748},{"duration":0.7058819999999999,"midi":65,"time":4.235292,"velocity":0.3937007874015748},{"duration":0.3529410000000004,"midi":65,"time":5.647056,"velocity":0.3937007874015748},{"duration":0.3529410000000004,"midi":77,"time":5.647056,"velocity":0.3937007874015748},{"duration":0.3529410000000004,"midi":69,"time":6.352938,"velocity":0.3937007874015748},{"duration":0.3529410000000004,"midi":81,"time":6.352938,"velocity":0.3937007874015748},{"duration":1.0588229999999994,"midi":77,"time":7.05882,"velocity":0.3937007874015748},{"duration":1.0588229999999994,"midi":89,"time":7.05882,"velocity":0.3937007874015748},{"duration":0.3529410000000013,"midi":91,"time":8.117643,"velocity":0.3937007874015748},{"duration":0.3529410000000013,"midi":79,"time":8.117643,"velocity":0.3937007874015748},{"duration":0.3529409999999995,"midi":89,"time":8.470584,"velocity":0.3937007874015748},{"duration":0.3529409999999995,"midi":77,"time":8.470584,"velocity":0.3937007874015748},{"duration":0.3529410000000013,"midi":84,"time":9.176466,"velocity":0.3937007874015748},{"duration":0.3529410000000013,"midi":72,"time":9.176466,"velocity":0.3937007874015748},{"duration":0.705881999999999,"midi":70,"time":9.882348,"velocity":0.3937007874015748},{"duration":0.705881999999999,"midi":82,"time":9.882348,"velocity":0.3937007874015748},{"duration":0.3529409999999995,"midi":77,"time":11.294112,"velocity":0.3937007874015748},{"duration":0.3529409999999995,"midi":65,"time":11.294112,"velocity":0.3937007874015748},{"duration":0.3529409999999995,"midi":77,"time":11.999994000000001,"velocity":0.3937007874015748},{"duration":0.3529409999999995,"midi":89,"time":11.999994000000001,"velocity":0.3937007874015748},{"duration":0.7058820000000008,"midi":84,"time":12.705876,"velocity":0.3937007874015748},{"duration":0.7058820000000008,"midi":72,"time":12.705876,"velocity":0.3937007874015748},{"duration":0.3529410000000013,"midi":70,"time":14.11764,"velocity":0.3937007874015748},{"duration":0.3529410000000013,"midi":82,"time":14.11764,"velocity":0.3937007874015748},{"duration":0.3529409999999995,"midi":77,"time":14.823522,"velocity":0.3937007874015748},{"duration":0.3529409999999995,"midi":89,"time":14.823522,"velocity":0.3937007874015748},{"duration":0.705881999999999,"midi":77,"time":15.529404,"velocity":0.3937007874015748},{"duration":0.705881999999999,"midi":65,"time":15.529404,"velocity":0.3937007874015748},{"duration":0.35294099999999773,"midi":65,"time":16.941168,"velocity":0.3937007874015748},{"duration":0.35294099999999773,"midi":77,"time":16.941168,"velocity":0.3937007874015748},{"duration":0.3529410000000013,"midi":69,"time":17.64705,"velocity":0.3937007874015748},{"duration":0.3529410000000013,"midi":81,"time":17.64705,"velocity":0.3937007874015748},{"duration":1.0588230000000003,"midi":77,"time":18.352932,"velocity":0.3937007874015748},{"duration":1.0588230000000003,"midi":89,"time":18.352932,"velocity":0.3937007874015748},{"duration":0.3529410000000013,"midi":91,"time":19.411755,"velocity":0.3937007874015748},{"duration":0.3529410000000013,"midi":79,"time":19.411755,"velocity":0.3937007874015748},{"duration":0.3529410000000013,"midi":77,"time":19.764696,"velocity":0.3937007874015748},{"duration":0.3529410000000013,"midi":89,"time":19.764696,"velocity":0.3937007874015748},{"duration":0.3529410000000013,"midi":72,"time":20.470578,"velocity":0.3937007874015748},{"duration":0.3529410000000013,"midi":84,"time":20.470578,"velocity":0.3937007874015748},{"duration":0.3529410000000013,"midi":77,"time":79.058784,"velocity":0.3937007874015748},{"duration":0.3529410000000013,"midi":70,"time":79.411725,"velocity":0.3937007874015748},{"duration":0.3529410000000013,"midi":72,"time":79.764666,"velocity":0.3937007874015748},{"duration":0.3529410000000013,"midi":70,"time":80.117607,"velocity":0.3937007874015748},{"duration":0.17647049999999354,"midi":65,"time":80.47054800000001,"velocity":0.3937007874015748},{"duration":0.17647049999999354,"midi":70,"time":80.6470185,"velocity":0.3937007874015748},{"duration":0.3529410000000013,"midi":72,"time":80.9999595,"velocity":0.3937007874015748},{"duration":0.08823524999999677,"midi":74,"time":81.3529005,"velocity":0.3937007874015748},{"duration":0.08823524999999677,"midi":72,"time":81.44113575,"velocity":0.3937007874015748},{"duration":0.3529410000000013,"midi":70,"time":81.529371,"velocity":0.3937007874015748},{"duration":0.3529410000000013,"midi":65,"time":81.882312,"velocity":0.3937007874015748},{"duration":0.3529410000000013,"midi":70,"time":82.235253,"velocity":0.3937007874015748},{"duration":0.17647049999999354,"midi":72,"time":82.588194,"velocity":0.3937007874015748},{"duration":0.17647050000000775,"midi":75,"time":82.7646645,"velocity":0.3937007874015748},{"duration":0.3529410000000013,"midi":74,"time":83.1176055,"velocity":0.3937007874015748},{"duration":0.08823524999999677,"midi":75,"time":83.4705465,"velocity":0.3937007874015748},{"duration":0.08823525000001098,"midi":74,"time":83.55878175,"velocity":0.3937007874015748},{"duration":0.3529410000000013,"midi":72,"time":83.647017,"velocity":0.3937007874015748},{"duration":0.3529410000000013,"midi":70,"time":83.999958,"velocity":0.3937007874015748},{"duration":0.35294099999998707,"midi":65,"time":84.35289900000001,"velocity":0.3937007874015748},{"duration":0.3529410000000013,"midi":77,"time":84.70584,"velocity":0.3937007874015748},{"duration":0.3529410000000013,"midi":70,"time":85.058781,"velocity":0.3937007874015748},{"duration":0.3529410000000013,"midi":72,"time":85.411722,"velocity":0.3937007874015748},{"duration":0.3529410000000013,"midi":70,"time":85.764663,"velocity":0.3937007874015748},{"duration":0.17647050000000775,"midi":65,"time":86.117604,"velocity":0.3937007874015748},{"duration":0.17647049999999354,"midi":70,"time":86.29407450000001,"velocity":0.3937007874015748},{"duration":0.3529410000000013,"midi":72,"time":86.6470155,"velocity":0.3937007874015748},{"duration":0.08823525000001098,"midi":74,"time":86.9999565,"velocity":0.3937007874015748},{"duration":0.08823524999999677,"midi":72,"time":87.08819175000001,"velocity":0.3937007874015748},{"duration":0.3529410000000013,"midi":70,"time":87.176427,"velocity":0.3937007874015748},{"duration":0.3529410000000013,"midi":65,"time":87.529368,"velocity":0.3937007874015748},{"duration":0.3529410000000013,"midi":70,"time":87.882309,"velocity":0.3937007874015748},{"duration":0.17647049999999354,"midi":72,"time":88.23525000000001,"velocity":0.3937007874015748},{"duration":0.17647049999999354,"midi":75,"time":88.4117205,"velocity":0.3937007874015748},{"duration":0.3529410000000013,"midi":74,"time":88.7646615,"velocity":0.3937007874015748},{"duration":0.08823524999999677,"midi":75,"time":89.1176025,"velocity":0.3937007874015748},{"duration":0.08823524999999677,"midi":74,"time":89.20583775,"velocity":0.3937007874015748},{"duration":0.3529410000000013,"midi":72,"time":89.294073,"velocity":0.3937007874015748},{"duration":0.3529410000000013,"midi":70,"time":89.647014,"velocity":0.3937007874015748},{"duration":0.3529410000000013,"midi":65,"time":89.999955,"velocity":0.3937007874015748},{"duration":0.17647049999999354,"midi":65,"time":169.058739,"velocity":0.3937007874015748},{"duration":0.17647049999999354,"midi":62,"time":169.058739,"velocity":0.3937007874015748},{"duration":0.17647049999999354,"midi":65,"time":169.2352095,"velocity":0.3937007874015748},{"duration":0.17647049999999354,"midi":70,"time":169.2352095,"velocity":0.3937007874015748},{"duration":0.3529410000000155,"midi":74,"time":169.41168,"velocity":0.3937007874015748},{"duration":0.3529410000000155,"midi":70,"time":169.41168,"velocity":0.3937007874015748},{"duration":0.35294099999998707,"midi":74,"time":169.764621,"velocity":0.3937007874015748},{"duration":0.35294099999998707,"midi":70,"time":169.764621,"velocity":0.3937007874015748},{"duration":0.17647050000002196,"midi":74,"time":170.117562,"velocity":0.3937007874015748},{"duration":0.17647050000002196,"midi":70,"time":170.117562,"velocity":0.3937007874015748},{"duration":0.17647049999999354,"midi":70,"time":170.29403250000001,"velocity":0.3937007874015748},{"duration":0.17647049999999354,"midi":74,"time":170.29403250000001,"velocity":0.3937007874015748},{"duration":0.35294099999998707,"midi":70,"time":170.6469735,"velocity":0.3937007874015748},{"duration":0.35294099999998707,"midi":74,"time":170.6469735,"velocity":0.3937007874015748},{"duration":0.17647050000002196,"midi":70,"time":170.9999145,"velocity":0.3937007874015748},{"duration":0.17647050000002196,"midi":74,"time":170.9999145,"velocity":0.3937007874015748},{"duration":0.35294099999998707,"midi":69,"time":171.176385,"velocity":0.3937007874015748},{"duration":0.35294099999998707,"midi":72,"time":171.176385,"velocity":0.3937007874015748},{"duration":0.3529410000000155,"midi":65,"time":171.529326,"velocity":0.3937007874015748},{"duration":0.3529410000000155,"midi":70,"time":171.529326,"velocity":0.3937007874015748},{"duration":0.35294099999998707,"midi":67,"time":171.882267,"velocity":0.3937007874015748},{"duration":0.35294099999998707,"midi":62,"time":171.882267,"velocity":0.3937007874015748},{"duration":0.3529410000000155,"midi":67,"time":172.235208,"velocity":0.3937007874015748},{"duration":0.3529410000000155,"midi":60,"time":172.235208,"velocity":0.3937007874015748},{"duration":0.35294099999998707,"midi":69,"time":172.58814900000002,"velocity":0.3937007874015748},{"duration":0.35294099999998707,"midi":74,"time":172.58814900000002,"velocity":0.3937007874015748},{"duration":0.17647049999999354,"midi":69,"time":172.94109,"velocity":0.3937007874015748},{"duration":0.17647049999999354,"midi":74,"time":172.94109,"velocity":0.3937007874015748},{"duration":0.17647049999999354,"midi":74,"time":173.1175605,"velocity":0.3937007874015748},{"duration":0.17647049999999354,"midi":69,"time":173.1175605,"velocity":0.3937007874015748},{"duration":0.5294114999999806,"midi":74,"time":173.4705015,"velocity":0.3937007874015748},{"duration":0.5294114999999806,"midi":69,"time":173.4705015,"velocity":0.3937007874015748},{"duration":0.3529410000000155,"midi":60,"time":173.999913,"velocity":0.3937007874015748},{"duration":0.3529410000000155,"midi":65,"time":173.999913,"velocity":0.3937007874015748},{"duration":0.3529410000000155,"midi":69,"time":173.999913,"velocity":0.3937007874015748},{"duration":0.3529410000000155,"midi":72,"time":173.999913,"velocity":0.3937007874015748},{"duration":0.35294099999998707,"midi":62,"time":174.352854,"velocity":0.3937007874015748},{"duration":0.35294099999998707,"midi":65,"time":174.352854,"velocity":0.3937007874015748},{"duration":0.35294099999998707,"midi":70,"time":174.352854,"velocity":0.3937007874015748},{"duration":0.35294099999998707,"midi":74,"time":174.352854,"velocity":0.3937007874015748},{"duration":0.3529410000000155,"midi":70,"time":174.705795,"velocity":0.3937007874015748},{"duration":0.3529410000000155,"midi":74,"time":174.705795,"velocity":0.3937007874015748},{"duration":0.3529410000000155,"midi":77,"time":174.705795,"velocity":0.3937007874015748},{"duration":0.3529410000000155,"midi":65,"time":174.705795,"velocity":0.3937007874015748},{"duration":1.7647049999999922,"midi":70,"time":175.058736,"velocity":0.3937007874015748},{"duration":1.7647049999999922,"midi":75,"time":175.058736,"velocity":0.3937007874015748},{"duration":1.7647049999999922,"midi":79,"time":175.058736,"velocity":0.3937007874015748},{"duration":1.7647049999999922,"midi":67,"time":175.058736,"velocity":0.3937007874015748},{"duration":0.7058820000000026,"midi":66,"time":204.70578,"velocity":0.3937007874015748},{"duration":0.7058820000000026,"midi":63,"time":204.70578,"velocity":0.3937007874015748},{"duration":0.7058820000000026,"midi":75,"time":205.411662,"velocity":0.3937007874015748},{"duration":0.7058820000000026,"midi":78,"time":205.411662,"velocity":0.3937007874015748},{"duration":1.0588229999999896,"midi":73,"time":206.117544,"velocity":0.3937007874015748},{"duration":1.0588229999999896,"midi":70,"time":206.117544,"velocity":0.3937007874015748},{"duration":0.7058819999999741,"midi":66,"time":207.52930800000001,"velocity":0.3937007874015748},{"duration":0.7058819999999741,"midi":71,"time":207.52930800000001,"velocity":0.3937007874015748},{"duration":0.3529410000000155,"midi":75,"time":208.23519,"velocity":0.3937007874015748},{"duration":0.3529410000000155,"midi":78,"time":208.23519,"velocity":0.3937007874015748},{"duration":0.17647049999999354,"midi":80,"time":208.588131,"velocity":0.3937007874015748},{"duration":0.3529410000000155,"midi":78,"time":208.7646015,"velocity":0.3937007874015748},{"duration":0.3529410000000155,"midi":75,"time":208.7646015,"velocity":0.3937007874015748},{"duration":0.35294099999998707,"midi":75,"time":209.1175425,"velocity":0.3937007874015748},{"duration":0.35294099999998707,"midi":71,"time":209.1175425,"velocity":0.3937007874015748},{"duration":0.3529410000000155,"midi":73,"time":209.4704835,"velocity":0.3937007874015748},{"duration":0.3529410000000155,"midi":70,"time":209.4704835,"velocity":0.3937007874015748},{"duration":0.08823524999999677,"midi":75,"time":209.82342450000002,"velocity":0.3937007874015748},{"duration":0.08823524999999677,"midi":73,"time":209.91165975,"velocity":0.3937007874015748},{"duration":0.35294099999998707,"midi":66,"time":209.999895,"velocity":0.3937007874015748},{"duration":0.35294099999998707,"midi":71,"time":209.999895,"velocity":0.3937007874015748},{"duration":0.3529410000000155,"midi":71,"time":210.352836,"velocity":0.3937007874015748},{"duration":0.3529410000000155,"midi":66,"time":210.352836,"velocity":0.3937007874015748},{"duration":0.17647049999999354,"midi":71,"time":210.705777,"velocity":0.3937007874015748},{"duration":0.17647049999999354,"midi":73,"time":210.8822475,"velocity":0.3937007874015748},{"duration":0.3529410000000155,"midi":75,"time":211.058718,"velocity":0.3937007874015748},{"duration":0.3529410000000155,"midi":71,"time":211.058718,"velocity":0.3937007874015748},{"duration":0.35294099999998707,"midi":71,"time":211.41165900000001,"velocity":0.3937007874015748},{"duration":0.35294099999998707,"midi":66,"time":211.41165900000001,"velocity":0.3937007874015748},{"duration":0.3529410000000155,"midi":73,"time":211.7646,"velocity":0.3937007874015748},{"duration":0.3529410000000155,"midi":70,"time":211.7646,"velocity":0.3937007874015748},{"duration":0.17647049999999354,"midi":73,"time":212.11754100000002,"velocity":0.3937007874015748},{"duration":0.17647049999999354,"midi":75,"time":212.2940115,"velocity":0.3937007874015748},{"duration":0.35294099999998707,"midi":70,"time":212.470482,"velocity":0.3937007874015748},{"duration":0.17647049999999354,"midi":73,"time":212.470482,"velocity":0.3937007874015748},{"duration":0.08823524999999677,"midi":75,"time":212.6469525,"velocity":0.3937007874015748},{"duration":0.08823524999999677,"midi":73,"time":212.73518775,"velocity":0.3937007874015748},{"duration":0.3529410000000155,"midi":71,"time":212.823423,"velocity":0.3937007874015748},{"duration":0.3529410000000155,"midi":66,"time":212.823423,"velocity":0.3937007874015748},{"duration":0.35294099999998707,"midi":74,"time":213.176364,"velocity":0.3937007874015748},{"duration":0.35294099999998707,"midi":71,"time":213.176364,"velocity":0.3937007874015748},{"duration":0.3529410000000155,"midi":68,"time":213.529305,"velocity":0.3937007874015748},{"duration":0.3529410000000155,"midi":73,"time":213.529305,"velocity":0.3937007874015748},{"duration":0.35294099999998707,"midi":65,"time":213.882246,"velocity":0.3937007874015748},{"duration":0.35294099999998707,"midi":69,"time":213.882246,"velocity":0.3937007874015748},{"duration":0.3529410000000155,"midi":73,"time":214.235187,"velocity":0.3937007874015748},{"duration":0.3529410000000155,"midi":68,"time":214.235187,"velocity":0.3937007874015748},{"duration":0.7058820000000026,"midi":71,"time":214.588128,"velocity":0.3937007874015748},{"duration":0.7058820000000026,"midi":68,"time":214.588128,"velocity":0.3937007874015748},{"duration":0.7058820000000026,"midi":73,"time":215.29401000000001,"velocity":0.3937007874015748},{"duration":0.7058820000000026,"midi":70,"time":215.29401000000001,"velocity":0.3937007874015748},{"duration":0.7058819999999741,"midi":63,"time":215.99989200000002,"velocity":0.3937007874015748},{"duration":0.7058819999999741,"midi":66,"time":215.99989200000002,"velocity":0.3937007874015748},{"duration":0.7058820000000026,"midi":78,"time":216.705774,"velocity":0.3937007874015748},{"duration":0.7058820000000026,"midi":75,"time":216.705774,"velocity":0.3937007874015748},{"duration":1.058823000000018,"midi":70,"time":217.411656,"velocity":0.3937007874015748},{"duration":1.058823000000018,"midi":73,"time":217.411656,"velocity":0.3937007874015748},{"duration":0.7058820000000026,"midi":66,"time":218.82342,"velocity":0.3937007874015748},{"duration":0.7058820000000026,"midi":71,"time":218.82342,"velocity":0.3937007874015748},{"duration":0.3529410000000155,"midi":75,"time":219.529302,"velocity":0.3937007874015748},{"duration":0.3529410000000155,"midi":78,"time":219.529302,"velocity":0.3937007874015748},{"duration":0.17647049999999354,"midi":80,"time":219.88224300000002,"velocity":0.3937007874015748},{"duration":0.35294099999998707,"midi":78,"time":220.0587135,"velocity":0.3937007874015748},{"duration":0.35294099999998707,"midi":75,"time":220.0587135,"velocity":0.3937007874015748},{"duration":0.3529410000000155,"midi":75,"time":220.4116545,"velocity":0.3937007874015748},{"duration":0.3529410000000155,"midi":71,"time":220.4116545,"velocity":0.3937007874015748},{"duration":0.35294099999998707,"midi":73,"time":220.7645955,"velocity":0.3937007874015748},{"duration":0.35294099999998707,"midi":70,"time":220.7645955,"velocity":0.3937007874015748},{"duration":0.08823524999999677,"midi":75,"time":221.1175365,"velocity":0.3937007874015748},{"duration":0.08823524999999677,"midi":73,"time":221.20577175,"velocity":0.3937007874015748},{"duration":0.3529410000000155,"midi":66,"time":221.294007,"velocity":0.3937007874015748},{"duration":0.3529410000000155,"midi":71,"time":221.294007,"velocity":0.3937007874015748},{"duration":0.35294099999998707,"midi":66,"time":221.646948,"velocity":0.3937007874015748},{"duration":0.35294099999998707,"midi":71,"time":221.646948,"velocity":0.3937007874015748},{"duration":0.17647049999999354,"midi":71,"time":221.999889,"velocity":0.3937007874015748},{"duration":0.17647050000002196,"midi":73,"time":222.1763595,"velocity":0.3937007874015748},{"duration":0.35294099999998707,"midi":75,"time":222.35283,"velocity":0.3937007874015748},{"duration":0.35294099999998707,"midi":71,"time":222.35283,"velocity":0.3937007874015748},{"duration":0.3529410000000155,"midi":71,"time":222.705771,"velocity":0.3937007874015748},{"duration":0.3529410000000155,"midi":66,"time":222.705771,"velocity":0.3937007874015748},{"duration":0.35294099999998707,"midi":70,"time":223.058712,"velocity":0.3937007874015748},{"duration":0.35294099999998707,"midi":73,"time":223.058712,"velocity":0.3937007874015748},{"duration":0.17647049999999354,"midi":73,"time":223.411653,"velocity":0.3937007874015748},{"duration":0.17647050000002196,"midi":75,"time":223.5881235,"velocity":0.3937007874015748},{"duration":0.35294099999998707,"midi":70,"time":223.76459400000002,"velocity":0.3937007874015748},{"duration":0.17647049999999354,"midi":73,"time":223.76459400000002,"velocity":0.3937007874015748},{"duration":0.08823524999999677,"midi":75,"time":223.9410645,"velocity":0.3937007874015748},{"duration":0.08823524999999677,"midi":73,"time":224.02929975,"velocity":0.3937007874015748},{"duration":0.35294099999998707,"midi":66,"time":224.117535,"velocity":0.3937007874015748},{"duration":0.35294099999998707,"midi":71,"time":224.117535,"velocity":0.3937007874015748},{"duration":0.3529410000000155,"midi":74,"time":224.470476,"velocity":0.3937007874015748},{"duration":0.3529410000000155,"midi":71,"time":224.470476,"velocity":0.3937007874015748},{"duration":0.35294099999998707,"midi":73,"time":224.823417,"velocity":0.3937007874015748},{"duration":0.35294099999998707,"midi":68,"time":224.823417,"velocity":0.3937007874015748},{"duration":0.3529410000000155,"midi":65,"time":225.176358,"velocity":0.3937007874015748},{"duration":0.3529410000000155,"midi":69,"time":225.176358,"velocity":0.3937007874015748},{"duration":0.35294099999998707,"midi":73,"time":225.529299,"velocity":0.3937007874015748},{"duration":0.35294099999998707,"midi":68,"time":225.529299,"velocity":0.3937007874015748},{"duration":0.7058820000000026,"midi":68,"time":225.88224,"velocity":0.3937007874015748},{"duration":0.7058820000000026,"midi":71,"time":225.88224,"velocity":0.3937007874015748},{"duration":0.7058820000000026,"midi":70,"time":226.588122,"velocity":0.3937007874015748},{"duration":0.7058820000000026,"midi":73,"time":226.588122,"velocity":0.3937007874015748},{"duration":0.35294099999998707,"midi":75,"time":272.470452,"velocity":0.3937007874015748},{"duration":0.35294099999998707,"midi":78,"time":272.470452,"velocity":0.3937007874015748},{"duration":0.35294099999998707,"midi":66,"time":272.823393,"velocity":0.3937007874015748},{"duration":0.35294099999998707,"midi":71,"time":272.823393,"velocity":0.3937007874015748},{"duration":0.35294099999998707,"midi":73,"time":273.176334,"velocity":0.3937007874015748},{"duration":0.35294099999998707,"midi":70,"time":273.176334,"velocity":0.3937007874015748},{"duration":0.3529410000000439,"midi":71,"time":273.529275,"velocity":0.3937007874015748},{"duration":0.3529410000000439,"midi":66,"time":273.529275,"velocity":0.3937007874015748},{"duration":0.17647049999999354,"midi":66,"time":273.882216,"velocity":0.3937007874015748},{"duration":0.17647049999999354,"midi":63,"time":273.882216,"velocity":0.3937007874015748},{"duration":0.17647049999999354,"midi":71,"time":274.0586865,"velocity":0.3937007874015748},{"duration":0.35294099999998707,"midi":70,"time":274.4116275,"velocity":0.3937007874015748},{"duration":0.35294099999998707,"midi":73,"time":274.4116275,"velocity":0.3937007874015748},{"duration":0.08823525000002519,"midi":75,"time":274.7645685,"velocity":0.3937007874015748},{"duration":0.08823524999996835,"midi":73,"time":274.85280375,"velocity":0.3937007874015748},{"duration":0.35294099999998707,"midi":71,"time":274.941039,"velocity":0.3937007874015748},{"duration":0.35294099999998707,"midi":66,"time":274.941039,"velocity":0.3937007874015748},{"duration":0.3529410000000439,"midi":66,"time":275.29398,"velocity":0.3937007874015748},{"duration":0.3529410000000439,"midi":63,"time":275.29398,"velocity":0.3937007874015748},{"duration":0.35294099999998707,"midi":66,"time":275.646921,"velocity":0.3937007874015748},{"duration":0.35294099999998707,"midi":71,"time":275.646921,"velocity":0.3937007874015748},{"duration":0.17647049999999354,"midi":73,"time":275.999862,"velocity":0.3937007874015748},{"duration":0.17647049999999354,"midi":70,"time":275.999862,"velocity":0.3937007874015748},{"duration":0.17647049999999354,"midi":73,"time":276.1763325,"velocity":0.3937007874015748},{"duration":0.17647049999999354,"midi":77,"time":276.1763325,"velocity":0.3937007874015748},{"duration":0.5294115000000374,"midi":71,"time":276.5292735,"velocity":0.3937007874015748},{"duration":0.3529410000000439,"midi":75,"time":276.5292735,"velocity":0.3937007874015748},{"duration":0.08823524999996835,"midi":77,"time":276.88221450000003,"velocity":0.3937007874015748},{"duration":0.08823525000002519,"midi":75,"time":276.97044975,"velocity":0.3937007874015748},{"duration":0.35294099999998707,"midi":73,"time":277.058685,"velocity":0.3937007874015748},{"duration":0.35294099999998707,"midi":70,"time":277.058685,"velocity":0.3937007874015748},{"duration":0.35294099999998707,"midi":71,"time":277.411626,"velocity":0.3937007874015748},{"duration":0.35294099999998707,"midi":66,"time":277.411626,"velocity":0.3937007874015748},{"duration":0.35294099999998707,"midi":66,"time":277.764567,"velocity":0.3937007874015748},{"duration":0.35294099999998707,"midi":63,"time":277.764567,"velocity":0.3937007874015748},{"duration":0.3529410000000439,"midi":75,"time":278.117508,"velocity":0.3937007874015748},{"duration":0.3529410000000439,"midi":78,"time":278.117508,"velocity":0.3937007874015748},{"duration":0.35294099999998707,"midi":66,"time":278.47044900000003,"velocity":0.3937007874015748},{"duration":0.35294099999998707,"midi":71,"time":278.47044900000003,"velocity":0.3937007874015748},{"duration":0.35294099999998707,"midi":70,"time":278.82339,"velocity":0.3937007874015748},{"duration":0.35294099999998707,"midi":73,"time":278.82339,"velocity":0.3937007874015748},{"duration":0.35294099999998707,"midi":71,"time":279.176331,"velocity":0.3937007874015748},{"duration":0.35294099999998707,"midi":66,"time":279.176331,"velocity":0.3937007874015748},{"duration":0.17647049999999354,"midi":66,"time":279.529272,"velocity":0.3937007874015748},{"duration":0.17647049999999354,"midi":63,"time":279.529272,"velocity":0.3937007874015748},{"duration":0.17647049999999354,"midi":71,"time":279.7057425,"velocity":0.3937007874015748},{"duration":0.35294099999998707,"midi":70,"time":280.05868350000003,"velocity":0.3937007874015748},{"duration":0.35294099999998707,"midi":73,"time":280.05868350000003,"velocity":0.3937007874015748},{"duration":0.08823524999996835,"midi":75,"time":280.4116245,"velocity":0.3937007874015748},{"duration":0.08823525000002519,"midi":73,"time":280.49985975,"velocity":0.3937007874015748},{"duration":0.35294099999998707,"midi":66,"time":280.588095,"velocity":0.3937007874015748},{"duration":0.35294099999998707,"midi":71,"time":280.588095,"velocity":0.3937007874015748},{"duration":0.35294099999998707,"midi":66,"time":280.941036,"velocity":0.3937007874015748},{"duration":0.35294099999998707,"midi":63,"time":280.941036,"velocity":0.3937007874015748},{"duration":0.3529410000000439,"midi":71,"time":281.293977,"velocity":0.3937007874015748},{"duration":0.3529410000000439,"midi":66,"time":281.293977,"velocity":0.3937007874015748},{"duration":0.17647049999999354,"midi":78,"time":281.646918,"velocity":0.3937007874015748},{"duration":0.17647049999999354,"midi":83,"time":281.646918,"velocity":0.3937007874015748},{"duration":0.35294099999998707,"midi":82,"time":281.8233885,"velocity":0.3937007874015748},{"duration":0.35294099999998707,"midi":78,"time":281.8233885,"velocity":0.3937007874015748},{"duration":0.35294099999998707,"midi":78,"time":282.1763295,"velocity":0.3937007874015748},{"duration":0.35294099999998707,"midi":75,"time":282.1763295,"velocity":0.3937007874015748},{"duration":0.17647049999999354,"midi":75,"time":282.5292705,"velocity":0.3937007874015748},{"duration":0.17647049999999354,"midi":71,"time":282.5292705,"velocity":0.3937007874015748},{"duration":0.17647049999999354,"midi":70,"time":282.705741,"velocity":0.3937007874015748},{"duration":0.17647049999999354,"midi":73,"time":282.705741,"velocity":0.3937007874015748},{"duration":0.3529410000000439,"midi":66,"time":282.8822115,"velocity":0.3937007874015748},{"duration":0.3529410000000439,"midi":71,"time":282.8822115,"velocity":0.3937007874015748},{"duration":0.17647049999999354,"midi":73,"time":283.2351525,"velocity":0.3937007874015748},{"duration":0.17647049999999354,"midi":70,"time":283.2351525,"velocity":0.3937007874015748},{"duration":0.17647049999999354,"midi":71,"time":283.411623,"velocity":0.3937007874015748},{"duration":0.17647049999999354,"midi":66,"time":283.411623,"velocity":0.3937007874015748},{"duration":0.17647049999999354,"midi":63,"time":283.5880935,"velocity":0.3937007874015748},{"duration":0.17647049999999354,"midi":66,"time":283.5880935,"velocity":0.3937007874015748},{"duration":0.35294099999998707,"midi":78,"time":283.764564,"velocity":0.3937007874015748},{"duration":0.35294099999998707,"midi":75,"time":283.764564,"velocity":0.3937007874015748},{"duration":0.35294099999998707,"midi":71,"time":284.117505,"velocity":0.3937007874015748},{"duration":0.35294099999998707,"midi":66,"time":284.117505,"velocity":0.3937007874015748},{"duration":0.3529410000000439,"midi":70,"time":284.470446,"velocity":0.3937007874015748},{"duration":0.3529410000000439,"midi":73,"time":284.470446,"velocity":0.3937007874015748},{"duration":0.35294099999998707,"midi":71,"time":284.823387,"velocity":0.3937007874015748},{"duration":0.35294099999998707,"midi":66,"time":284.823387,"velocity":0.3937007874015748},{"duration":0.17647049999999354,"midi":66,"time":285.176328,"velocity":0.3937007874015748},{"duration":0.17647049999999354,"midi":63,"time":285.176328,"velocity":0.3937007874015748},{"duration":0.17647049999999354,"midi":71,"time":285.3527985,"velocity":0.3937007874015748},{"duration":0.35294099999998707,"midi":70,"time":285.7057395,"velocity":0.3937007874015748},{"duration":0.35294099999998707,"midi":73,"time":285.7057395,"velocity":0.3937007874015748},{"duration":0.08823525000002519,"midi":75,"time":286.0586805,"velocity":0.3937007874015748},{"duration":0.08823525000002519,"midi":73,"time":286.14691575,"velocity":0.3937007874015748},{"duration":0.35294099999998707,"midi":71,"time":286.23515100000003,"velocity":0.3937007874015748},{"duration":0.35294099999998707,"midi":66,"time":286.23515100000003,"velocity":0.3937007874015748},{"duration":0.35294099999998707,"midi":63,"time":286.588092,"velocity":0.3937007874015748},{"duration":0.35294099999998707,"midi":66,"time":286.588092,"velocity":0.3937007874015748},{"duration":0.35294099999998707,"midi":66,"time":286.941033,"velocity":0.3937007874015748},{"duration":0.35294099999998707,"midi":71,"time":286.941033,"velocity":0.3937007874015748},{"duration":0.17647049999999354,"midi":73,"time":287.293974,"velocity":0.3937007874015748},{"duration":0.17647049999999354,"midi":70,"time":287.293974,"velocity":0.3937007874015748},{"duration":0.17647049999999354,"midi":77,"time":287.4704445,"velocity":0.3937007874015748},{"duration":0.17647049999999354,"midi":73,"time":287.4704445,"velocity":0.3937007874015748},{"duration":0.35294099999998707,"midi":75,"time":287.82338550000003,"velocity":0.3937007874015748},{"duration":0.5294114999999806,"midi":71,"time":287.82338550000003,"velocity":0.3937007874015748},{"duration":0.08823524999996835,"midi":77,"time":288.1763265,"velocity":0.3937007874015748},{"duration":0.08823525000002519,"midi":75,"time":288.26456175,"velocity":0.3937007874015748},{"duration":0.35294099999998707,"midi":73,"time":288.352797,"velocity":0.3937007874015748},{"duration":0.35294099999998707,"midi":70,"time":288.352797,"velocity":0.3937007874015748},{"duration":0.35294099999998707,"midi":71,"time":288.705738,"velocity":0.3937007874015748},{"duration":0.35294099999998707,"midi":66,"time":288.705738,"velocity":0.3937007874015748},{"duration":0.3529410000000439,"midi":63,"time":289.058679,"velocity":0.3937007874015748},{"duration":0.3529410000000439,"midi":66,"time":289.058679,"velocity":0.3937007874015748},{"duration":0.35294099999998707,"midi":75,"time":289.41162,"velocity":0.3937007874015748},{"duration":0.35294099999998707,"midi":78,"time":289.41162,"velocity":0.3937007874015748},{"duration":0.35294099999998707,"midi":66,"time":289.764561,"velocity":0.3937007874015748},{"duration":0.35294099999998707,"midi":71,"time":289.764561,"velocity":0.3937007874015748},{"duration":0.35294099999998707,"midi":73,"time":290.117502,"velocity":0.3937007874015748},{"duration":0.35294099999998707,"midi":70,"time":290.117502,"velocity":0.3937007874015748},{"duration":0.35294099999998707,"midi":66,"time":290.470443,"velocity":0.3937007874015748},{"duration":0.35294099999998707,"midi":71,"time":290.470443,"velocity":0.3937007874015748},{"duration":0.17647050000005038,"midi":66,"time":290.823384,"velocity":0.3937007874015748},{"duration":0.17647050000005038,"midi":63,"time":290.823384,"velocity":0.3937007874015748},{"duration":0.17647049999999354,"midi":71,"time":290.9998545,"velocity":0.3937007874015748},{"duration":0.35294099999998707,"midi":70,"time":291.3527955,"velocity":0.3937007874015748},{"duration":0.35294099999998707,"midi":73,"time":291.3527955,"velocity":0.3937007874015748},{"duration":0.08823525000002519,"midi":75,"time":291.7057365,"velocity":0.3937007874015748},{"duration":0.08823524999996835,"midi":73,"time":291.79397175,"velocity":0.3937007874015748},{"duration":0.35294099999998707,"midi":71,"time":291.882207,"velocity":0.3937007874015748},{"duration":0.35294099999998707,"midi":66,"time":291.882207,"velocity":0.3937007874015748},{"duration":0.3529410000000439,"midi":63,"time":292.235148,"velocity":0.3937007874015748},{"duration":0.3529410000000439,"midi":66,"time":292.235148,"velocity":0.3937007874015748},{"duration":0.35294099999998707,"midi":66,"time":292.588089,"velocity":0.3937007874015748},{"duration":0.35294099999998707,"midi":71,"time":292.588089,"velocity":0.3937007874015748},{"duration":0.17647049999999354,"midi":83,"time":292.94103,"velocity":0.3937007874015748},{"duration":0.17647049999999354,"midi":78,"time":292.94103,"velocity":0.3937007874015748},{"duration":0.35294099999998707,"midi":78,"time":293.1175005,"velocity":0.3937007874015748},{"duration":0.35294099999998707,"midi":82,"time":293.1175005,"velocity":0.3937007874015748},{"duration":0.35294099999998707,"midi":75,"time":293.4704415,"velocity":0.3937007874015748},{"duration":0.35294099999998707,"midi":78,"time":293.4704415,"velocity":0.3937007874015748},{"duration":0.17647050000005038,"midi":75,"time":293.8233825,"velocity":0.3937007874015748},{"duration":0.17647050000005038,"midi":71,"time":293.8233825,"velocity":0.3937007874015748},{"duration":0.17647049999999354,"midi":70,"time":293.99985300000003,"velocity":0.3937007874015748},{"duration":0.17647049999999354,"midi":73,"time":293.99985300000003,"velocity":0.3937007874015748},{"duration":0.35294099999998707,"midi":71,"time":294.1763235,"velocity":0.3937007874015748},{"duration":0.35294099999998707,"midi":66,"time":294.1763235,"velocity":0.3937007874015748},{"duration":0.17647049999999354,"midi":73,"time":294.5292645,"velocity":0.3937007874015748},{"duration":0.17647049999999354,"midi":70,"time":294.5292645,"velocity":0.3937007874015748},{"duration":0.17647049999999354,"midi":71,"time":294.705735,"velocity":0.3937007874015748},{"duration":0.17647049999999354,"midi":66,"time":294.705735,"velocity":0.3937007874015748},{"duration":0.17647049999999354,"midi":63,"time":294.8822055,"velocity":0.3937007874015748},{"duration":0.17647049999999354,"midi":66,"time":294.8822055,"velocity":0.3937007874015748},{"duration":0.08823525000002519,"midi":77,"time":330.352776,"velocity":0.3937007874015748},{"duration":0.2647057499999619,"midi":77,"time":330.44101125000003,"velocity":0.3937007874015748},{"duration":0.08823525000002519,"midi":77,"time":330.705717,"velocity":0.3937007874015748},{"duration":0.2647057499999619,"midi":77,"time":330.79395225,"velocity":0.3937007874015748},{"duration":0.08823525000002519,"midi":77,"time":331.058658,"velocity":0.3937007874015748},{"duration":0.2647057500000187,"midi":77,"time":331.14689325,"velocity":0.3937007874015748},{"duration":0.08823524999996835,"midi":77,"time":331.411599,"velocity":0.3937007874015748},{"duration":0.2647057500000187,"midi":77,"time":331.49983425,"velocity":0.3937007874015748},{"duration":0.08823524999996835,"midi":77,"time":331.76454,"velocity":0.3937007874015748},{"duration":0.2647057500000187,"midi":77,"time":331.85277525,"velocity":0.3937007874015748},{"duration":0.08823525000002519,"midi":77,"time":332.117481,"velocity":0.3937007874015748},{"duration":0.2647057499999619,"midi":77,"time":332.20571625,"velocity":0.3937007874015748},{"duration":0.08823525000002519,"midi":77,"time":332.470422,"velocity":0.3937007874015748},{"duration":0.2647057500000187,"midi":77,"time":332.55865725,"velocity":0.3937007874015748},{"duration":0.08823524999996835,"midi":77,"time":332.82336300000003,"velocity":0.3937007874015748},{"duration":0.2647057500000187,"midi":77,"time":332.91159825,"velocity":0.3937007874015748},{"duration":0.08823524999996835,"midi":77,"time":333.176304,"velocity":0.3937007874015748},{"duration":0.2647057500000187,"midi":77,"time":333.26453925,"velocity":0.3937007874015748},{"duration":0.08823525000002519,"midi":77,"time":333.529245,"velocity":0.3937007874015748},{"duration":0.2647057499999619,"midi":77,"time":333.61748025,"velocity":0.3937007874015748},{"duration":0.08823525000002519,"midi":77,"time":333.882186,"velocity":0.3937007874015748},{"duration":0.2647057499999619,"midi":77,"time":333.97042125,"velocity":0.3937007874015748},{"duration":0.08823525000002519,"midi":77,"time":334.235127,"velocity":0.3937007874015748},{"duration":0.2647057500000187,"midi":77,"time":334.32336225,"velocity":0.3937007874015748},{"duration":0.08823524999996835,"midi":77,"time":334.588068,"velocity":0.3937007874015748},{"duration":0.2647057500000187,"midi":77,"time":334.67630325,"velocity":0.3937007874015748},{"duration":0.08823524999996835,"midi":77,"time":334.941009,"velocity":0.3937007874015748},{"duration":0.2647057500000187,"midi":77,"time":335.02924425,"velocity":0.3937007874015748},{"duration":0.08823525000002519,"midi":77,"time":335.29395,"velocity":0.3937007874015748},{"duration":0.2647057499999619,"midi":77,"time":335.38218525,"velocity":0.3937007874015748},{"duration":0.08823525000002519,"midi":77,"time":335.646891,"velocity":0.3937007874015748},{"duration":0.2647057500000187,"midi":77,"time":335.73512625,"velocity":0.3937007874015748},{"duration":0.08823524999996835,"midi":77,"time":335.999832,"velocity":0.3937007874015748},{"duration":0.2647057500000187,"midi":77,"time":336.08806725,"velocity":0.3937007874015748},{"duration":0.08823524999996835,"midi":77,"time":336.352773,"velocity":0.3937007874015748},{"duration":0.2647057500000187,"midi":77,"time":336.44100825,"velocity":0.3937007874015748},{"duration":0.08823525000002519,"midi":77,"time":336.705714,"velocity":0.3937007874015748},{"duration":0.2647057499999619,"midi":77,"time":336.79394925,"velocity":0.3937007874015748},{"duration":0.08823525000002519,"midi":77,"time":337.058655,"velocity":0.3937007874015748},{"duration":0.2647057500000187,"midi":77,"time":337.14689025,"velocity":0.3937007874015748},{"duration":0.08823524999996835,"midi":77,"time":337.41159600000003,"velocity":0.3937007874015748},{"duration":0.2647057500000187,"midi":77,"time":337.49983125,"velocity":0.3937007874015748},{"duration":0.08823524999996835,"midi":77,"time":337.764537,"velocity":0.3937007874015748},{"duration":0.2647057500000187,"midi":77,"time":337.85277225,"velocity":0.3937007874015748},{"duration":0.08823525000002519,"midi":77,"time":338.117478,"velocity":0.3937007874015748},{"duration":0.2647057499999619,"midi":77,"time":338.20571325000003,"velocity":0.3937007874015748},{"duration":0.08823525000002519,"midi":77,"time":338.470419,"velocity":0.3937007874015748},{"duration":0.2647057499999619,"midi":77,"time":338.55865425,"velocity":0.3937007874015748},{"duration":0.08823525000002519,"midi":77,"time":338.82336,"velocity":0.3937007874015748},{"duration":0.2647057500000187,"midi":77,"time":338.91159525,"velocity":0.3937007874015748},{"duration":0.08823524999996835,"midi":77,"time":339.176301,"velocity":0.3937007874015748},{"duration":0.2647057500000187,"midi":77,"time":339.26453625,"velocity":0.3937007874015748},{"duration":0.08823524999996835,"midi":77,"time":339.529242,"velocity":0.3937007874015748},{"duration":0.2647057500000187,"midi":77,"time":339.61747725,"velocity":0.3937007874015748},{"duration":0.08823525000002519,"midi":77,"time":339.882183,"velocity":0.3937007874015748},{"duration":0.2647057499999619,"midi":77,"time":339.97041825,"velocity":0.3937007874015748},{"duration":0.08823525000002519,"midi":77,"time":340.235124,"velocity":0.3937007874015748},{"duration":0.2647057500000187,"midi":77,"time":340.32335925,"velocity":0.3937007874015748},{"duration":0.08823524999996835,"midi":77,"time":340.58806500000003,"velocity":0.3937007874015748},{"duration":0.2647057500000187,"midi":77,"time":340.67630025,"velocity":0.3937007874015748},{"duration":0.08823524999996835,"midi":77,"time":340.941006,"velocity":0.3937007874015748},{"duration":0.2647057500000187,"midi":77,"time":341.02924125,"velocity":0.3937007874015748},{"duration":0.08823525000002519,"midi":77,"time":341.293947,"velocity":0.3937007874015748},{"duration":0.2647057499999619,"midi":77,"time":341.38218225,"velocity":0.3937007874015748},{"duration":0.08823525000002519,"midi":77,"time":341.646888,"velocity":0.3937007874015748},{"duration":0.2647057499999619,"midi":77,"time":341.73512325,"velocity":0.3937007874015748},{"duration":0.08823525000002519,"midi":77,"time":341.999829,"velocity":0.3937007874015748},{"duration":0.2647057500000187,"midi":77,"time":342.08806425,"velocity":0.3937007874015748},{"duration":0.08823524999996835,"midi":77,"time":342.35277,"velocity":0.3937007874015748},{"duration":0.2647057500000187,"midi":77,"time":342.44100525,"velocity":0.3937007874015748},{"duration":0.08823524999996835,"midi":77,"time":342.705711,"velocity":0.3937007874015748},{"duration":0.2647057500000187,"midi":77,"time":342.79394625,"velocity":0.3937007874015748},{"duration":0.08823525000002519,"midi":77,"time":343.058652,"velocity":0.3937007874015748},{"duration":0.2647057499999619,"midi":77,"time":343.14688725,"velocity":0.3937007874015748},{"duration":0.08823525000002519,"midi":77,"time":343.411593,"velocity":0.3937007874015748},{"duration":0.2647057500000187,"midi":77,"time":343.49982825,"velocity":0.3937007874015748},{"duration":0.08823524999996835,"midi":77,"time":343.764534,"velocity":0.3937007874015748},{"duration":0.2647057500000187,"midi":77,"time":343.85276925,"velocity":0.3937007874015748},{"duration":0.08823524999996835,"midi":77,"time":344.117475,"velocity":0.3937007874015748},{"duration":0.2647057500000187,"midi":77,"time":344.20571025,"velocity":0.3937007874015748},{"duration":0.08823525000002519,"midi":77,"time":344.470416,"velocity":0.3937007874015748},{"duration":0.2647057499999619,"midi":77,"time":344.55865125,"velocity":0.3937007874015748},{"duration":0.08823525000002519,"midi":77,"time":344.823357,"velocity":0.3937007874015748},{"duration":0.2647057500000187,"midi":77,"time":344.91159225,"velocity":0.3937007874015748},{"duration":0.08823524999996835,"midi":77,"time":345.17629800000003,"velocity":0.3937007874015748},{"duration":0.2647057500000187,"midi":77,"time":345.26453325,"velocity":0.3937007874015748},{"duration":0.08823524999996835,"midi":77,"time":345.529239,"velocity":0.3937007874015748},{"duration":0.2647057500000187,"midi":77,"time":345.61747425,"velocity":0.3937007874015748},{"duration":0.08823525000002519,"midi":77,"time":345.88218,"velocity":0.3937007874015748},{"duration":0.2647057499999619,"midi":77,"time":345.97041525000003,"velocity":0.3937007874015748},{"duration":0.08823525000002519,"midi":77,"time":346.235121,"velocity":0.3937007874015748},{"duration":0.2647057499999619,"midi":77,"time":346.32335625,"velocity":0.3937007874015748},{"duration":0.08823525000002519,"midi":77,"time":346.588062,"velocity":0.3937007874015748},{"duration":0.2647057500000187,"midi":77,"time":346.67629725,"velocity":0.3937007874015748},{"duration":0.08823524999996835,"midi":77,"time":346.941003,"velocity":0.3937007874015748},{"duration":0.2647057500000187,"midi":77,"time":347.02923825,"velocity":0.3937007874015748},{"duration":0.08823524999996835,"midi":77,"time":347.293944,"velocity":0.3937007874015748},{"duration":0.2647057500000187,"midi":77,"time":347.38217925,"velocity":0.3937007874015748},{"duration":0.08823525000002519,"midi":77,"time":347.646885,"velocity":0.3937007874015748},{"duration":0.2647057499999619,"midi":77,"time":347.73512025,"velocity":0.3937007874015748},{"duration":0.08823525000002519,"midi":77,"time":347.999826,"velocity":0.3937007874015748},{"duration":0.2647057500000187,"midi":77,"time":348.08806125,"velocity":0.3937007874015748},{"duration":0.08823524999996835,"midi":77,"time":348.35276700000003,"velocity":0.3937007874015748},{"duration":0.2647057500000187,"midi":77,"time":348.44100225,"velocity":0.3937007874015748},{"duration":0.08823524999996835,"midi":77,"time":348.705708,"velocity":0.3937007874015748},{"duration":0.2647057500000187,"midi":77,"time":348.79394325,"velocity":0.3937007874015748},{"duration":0.08823525000002519,"midi":77,"time":349.058649,"velocity":0.3937007874015748},{"duration":0.2647057499999619,"midi":77,"time":349.14688425,"velocity":0.3937007874015748},{"duration":0.08823525000002519,"midi":77,"time":349.41159,"velocity":0.3937007874015748},{"duration":0.2647057499999619,"midi":77,"time":349.49982525,"velocity":0.3937007874015748},{"duration":0.08823525000002519,"midi":77,"time":349.764531,"velocity":0.3937007874015748},{"duration":0.2647057500000187,"midi":77,"time":349.85276625,"velocity":0.3937007874015748},{"duration":0.08823524999996835,"midi":77,"time":350.117472,"velocity":0.3937007874015748},{"duration":0.2647057500000187,"midi":77,"time":350.20570725,"velocity":0.3937007874015748},{"duration":0.08823525000002519,"midi":77,"time":350.470413,"velocity":0.3937007874015748},{"duration":0.2647057499999619,"midi":77,"time":350.55864825000003,"velocity":0.3937007874015748},{"duration":0.08823525000002519,"midi":77,"time":350.823354,"velocity":0.3937007874015748},{"duration":0.2647057499999619,"midi":77,"time":350.91158925,"velocity":0.3937007874015748},{"duration":0.08823525000002519,"midi":77,"time":351.176295,"velocity":0.3937007874015748},{"duration":0.2647057500000187,"midi":77,"time":351.26453025,"velocity":0.3937007874015748},{"duration":0.08823524999996835,"midi":77,"time":351.529236,"velocity":0.3937007874015748},{"duration":0.2647057500000187,"midi":77,"time":351.61747125,"velocity":0.3937007874015748},{"duration":0.08823524999996835,"midi":77,"time":351.882177,"velocity":0.3937007874015748},{"duration":0.2647057500000187,"midi":77,"time":351.97041225,"velocity":0.3937007874015748},{"duration":0.08823525000002519,"midi":77,"time":352.235118,"velocity":0.3937007874015748},{"duration":0.2647057499999619,"midi":77,"time":352.32335325,"velocity":0.3937007874015748},{"duration":0.08823525000002519,"midi":77,"time":352.588059,"velocity":0.3937007874015748},{"duration":0.2647057500000187,"midi":77,"time":352.67629425,"velocity":0.3937007874015748},{"duration":0.08823524999996835,"midi":77,"time":352.94100000000003,"velocity":0.3937007874015748},{"duration":0.2647057500000187,"midi":77,"time":353.02923525,"velocity":0.3937007874015748},{"duration":0.08823524999996835,"midi":77,"time":353.293941,"velocity":0.3937007874015748},{"duration":0.2647057500000187,"midi":77,"time":353.38217625,"velocity":0.3937007874015748},{"duration":0.08823525000002519,"midi":77,"time":353.646882,"velocity":0.3937007874015748},{"duration":0.2647057499999619,"midi":77,"time":353.73511725000003,"velocity":0.3937007874015748},{"duration":0.08823525000002519,"midi":77,"time":353.999823,"velocity":0.3937007874015748},{"duration":0.2647057499999619,"midi":77,"time":354.08805825,"velocity":0.3937007874015748},{"duration":0.08823525000002519,"midi":77,"time":354.352764,"velocity":0.3937007874015748},{"duration":0.2647057500000187,"midi":77,"time":354.44099925,"velocity":0.3937007874015748},{"duration":0.08823524999996835,"midi":77,"time":354.705705,"velocity":0.3937007874015748},{"duration":0.2647057500000187,"midi":77,"time":354.79394025,"velocity":0.3937007874015748},{"duration":0.08823524999996835,"midi":77,"time":355.058646,"velocity":0.3937007874015748},{"duration":0.2647057500000187,"midi":77,"time":355.14688125,"velocity":0.3937007874015748},{"duration":0.08823525000002519,"midi":77,"time":355.411587,"velocity":0.3937007874015748},{"duration":0.2647057499999619,"midi":77,"time":355.49982225,"velocity":0.3937007874015748},{"duration":0.08823525000002519,"midi":77,"time":355.764528,"velocity":0.3937007874015748},{"duration":0.2647057500000187,"midi":77,"time":355.85276325,"velocity":0.3937007874015748},{"duration":0.08823524999996835,"midi":77,"time":356.117469,"velocity":0.3937007874015748},{"duration":0.2647057500000187,"midi":77,"time":356.20570425,"velocity":0.3937007874015748},{"duration":0.08823524999996835,"midi":77,"time":356.47041,"velocity":0.3937007874015748},{"duration":0.2647057500000187,"midi":77,"time":356.55864525,"velocity":0.3937007874015748},{"duration":0.08823525000002519,"midi":77,"time":356.823351,"velocity":0.3937007874015748},{"duration":0.2647057499999619,"midi":77,"time":356.91158625,"velocity":0.3937007874015748},{"duration":0.08823525000002519,"midi":77,"time":357.176292,"velocity":0.3937007874015748},{"duration":0.2647057499999619,"midi":77,"time":357.26452725,"velocity":0.3937007874015748},{"duration":0.08823525000002519,"midi":77,"time":357.529233,"velocity":0.3937007874015748},{"duration":0.2647057500000187,"midi":77,"time":357.61746825,"velocity":0.3937007874015748},{"duration":0.08823524999996835,"midi":77,"time":357.882174,"velocity":0.3937007874015748},{"duration":0.2647057500000187,"midi":77,"time":357.97040925,"velocity":0.3937007874015748},{"duration":0.08823525000002519,"midi":77,"time":358.235115,"velocity":0.3937007874015748},{"duration":0.2647057499999619,"midi":77,"time":358.32335025000003,"velocity":0.3937007874015748},{"duration":0.08823525000002519,"midi":77,"time":358.588056,"velocity":0.3937007874015748},{"duration":0.2647057499999619,"midi":77,"time":358.67629125,"velocity":0.3937007874015748},{"duration":0.08823525000002519,"midi":77,"time":358.940997,"velocity":0.3937007874015748},{"duration":0.2647057500000187,"midi":77,"time":359.02923225,"velocity":0.3937007874015748},{"duration":0.08823524999996835,"midi":77,"time":359.293938,"velocity":0.3937007874015748},{"duration":0.2647057500000187,"midi":77,"time":359.38217325,"velocity":0.3937007874015748},{"duration":0.08823524999996835,"midi":77,"time":359.646879,"velocity":0.3937007874015748},{"duration":0.2647057500000187,"midi":77,"time":359.73511425,"velocity":0.3937007874015748},{"duration":0.08823525000002519,"midi":77,"time":359.99982,"velocity":0.3937007874015748},{"duration":0.2647057499999619,"midi":77,"time":360.08805525,"velocity":0.3937007874015748},{"duration":0.08823525000002519,"midi":77,"time":360.352761,"velocity":0.3937007874015748},{"duration":0.2647057500000187,"midi":77,"time":360.44099625,"velocity":0.3937007874015748},{"duration":0.08823524999996835,"midi":77,"time":360.70570200000003,"velocity":0.3937007874015748},{"duration":0.2647057500000187,"midi":77,"time":360.79393725,"velocity":0.3937007874015748},{"duration":0.08823524999996835,"midi":77,"time":361.058643,"velocity":0.3937007874015748},{"duration":0.2647057500000187,"midi":77,"time":361.14687825,"velocity":0.3937007874015748},{"duration":0.08823525000002519,"midi":77,"time":361.411584,"velocity":0.3937007874015748},{"duration":0.2647057499999619,"midi":77,"time":361.49981925000003,"velocity":0.3937007874015748},{"duration":0.08823525000002519,"midi":77,"time":361.764525,"velocity":0.3937007874015748},{"duration":0.2647057499999619,"midi":77,"time":361.85276025,"velocity":0.3937007874015748},{"duration":0.08823525000002519,"midi":77,"time":362.117466,"velocity":0.3937007874015748},{"duration":0.2647057500000187,"midi":77,"time":362.20570125,"velocity":0.3937007874015748},{"duration":0.08823524999996835,"midi":77,"time":362.470407,"velocity":0.3937007874015748},{"duration":0.2647057500000187,"midi":77,"time":362.55864225,"velocity":0.3937007874015748},{"duration":0.08823524999996835,"midi":77,"time":362.823348,"velocity":0.3937007874015748},{"duration":0.2647057500000187,"midi":77,"time":362.91158325,"velocity":0.3937007874015748},{"duration":0.08823525000002519,"midi":77,"time":363.176289,"velocity":0.3937007874015748},{"duration":0.2647057499999619,"midi":77,"time":363.26452425,"velocity":0.3937007874015748},{"duration":0.08823525000002519,"midi":77,"time":363.52923,"velocity":0.3937007874015748},{"duration":0.2647057500000187,"midi":77,"time":363.61746525,"velocity":0.3937007874015748},{"duration":0.08823524999996835,"midi":77,"time":363.882171,"velocity":0.3937007874015748},{"duration":0.2647057500000187,"midi":77,"time":363.97040625,"velocity":0.3937007874015748}]},{"instrument":{"family":"strings","number":42,"name":"cello"},"notes":[{"duration":0.1764705,"midi":58,"time":0,"velocity":0.3937007874015748},{"duration":0.1764705,"midi":51,"time":0,"velocity":0.3937007874015748},{"duration":0.1764705,"midi":51,"time":0.1764705,"velocity":0.3937007874015748},{"duration":0.1764705,"midi":58,"time":0.1764705,"velocity":0.3937007874015748},{"duration":0.17647049999999997,"midi":51,"time":0.5294115,"velocity":0.3937007874015748},{"duration":0.17647049999999997,"midi":58,"time":0.5294115,"velocity":0.3937007874015748},{"duration":0.17647049999999997,"midi":58,"time":0.705882,"velocity":0.3937007874015748},{"duration":0.17647049999999997,"midi":51,"time":0.705882,"velocity":0.3937007874015748},{"duration":0.17647050000000009,"midi":51,"time":0.8823525,"velocity":0.3937007874015748},{"duration":0.17647050000000009,"midi":58,"time":0.8823525,"velocity":0.3937007874015748},{"duration":0.17647049999999997,"midi":58,"time":1.2352935,"velocity":0.3937007874015748},{"duration":0.17647049999999997,"midi":51,"time":1.2352935,"velocity":0.3937007874015748},{"duration":0.17647049999999997,"midi":51,"time":1.411764,"velocity":0.3937007874015748},{"duration":0.17647049999999997,"midi":58,"time":1.411764,"velocity":0.3937007874015748},{"duration":0.17647049999999997,"midi":58,"time":1.5882345,"velocity":0.3937007874015748},{"duration":0.17647049999999997,"midi":51,"time":1.5882345,"velocity":0.3937007874015748},{"duration":0.1764705000000002,"midi":58,"time":1.9411755,"velocity":0.3937007874015748},{"duration":0.1764705000000002,"midi":51,"time":1.9411755,"velocity":0.3937007874015748},{"duration":0.17647049999999975,"midi":51,"time":2.117646,"velocity":0.3937007874015748},{"duration":0.17647049999999975,"midi":58,"time":2.117646,"velocity":0.3937007874015748},{"duration":0.1764705000000002,"midi":58,"time":2.2941165,"velocity":0.3937007874015748},{"duration":0.1764705000000002,"midi":51,"time":2.2941165,"velocity":0.3937007874015748},{"duration":0.17647049999999975,"midi":51,"time":2.470587,"velocity":0.3937007874015748},{"duration":0.17647049999999975,"midi":58,"time":2.470587,"velocity":0.3937007874015748},{"duration":0.1764705000000002,"midi":60,"time":2.6470575,"velocity":0.3937007874015748},{"duration":0.1764705000000002,"midi":53,"time":2.6470575,"velocity":0.3937007874015748},{"duration":0.1764705000000002,"midi":51,"time":2.823528,"velocity":0.3937007874015748},{"duration":0.1764705000000002,"midi":58,"time":2.823528,"velocity":0.3937007874015748},{"duration":0.17647049999999975,"midi":58,"time":2.9999985000000002,"velocity":0.3937007874015748},{"duration":0.17647049999999975,"midi":51,"time":2.9999985000000002,"velocity":0.3937007874015748},{"duration":0.17647049999999975,"midi":58,"time":3.3529395,"velocity":0.3937007874015748},{"duration":0.17647049999999975,"midi":51,"time":3.3529395,"velocity":0.3937007874015748},{"duration":0.1764705000000002,"midi":51,"time":3.52941,"velocity":0.3937007874015748},{"duration":0.1764705000000002,"midi":58,"time":3.52941,"velocity":0.3937007874015748},{"duration":0.17647049999999975,"midi":58,"time":3.7058805,"velocity":0.3937007874015748},{"duration":0.17647049999999975,"midi":51,"time":3.7058805,"velocity":0.3937007874015748},{"duration":0.17647050000000064,"midi":58,"time":4.0588215,"velocity":0.3937007874015748},{"duration":0.17647050000000064,"midi":51,"time":4.0588215,"velocity":0.3937007874015748},{"duration":0.17647049999999975,"midi":51,"time":4.235292,"velocity":0.3937007874015748},{"duration":0.17647049999999975,"midi":58,"time":4.235292,"velocity":0.3937007874015748},{"duration":0.17647049999999975,"midi":58,"time":4.4117625,"velocity":0.3937007874015748},{"duration":0.17647049999999975,"midi":51,"time":4.4117625,"velocity":0.3937007874015748},{"duration":0.17647049999999975,"midi":51,"time":4.7647035,"velocity":0.3937007874015748},{"duration":0.17647049999999975,"midi":58,"time":4.7647035,"velocity":0.3937007874015748},{"duration":0.17647049999999975,"midi":58,"time":4.941174,"velocity":0.3937007874015748},{"duration":0.17647049999999975,"midi":51,"time":4.941174,"velocity":0.3937007874015748},{"duration":0.17647049999999975,"midi":51,"time":5.1176445,"velocity":0.3937007874015748},{"duration":0.17647049999999975,"midi":58,"time":5.1176445,"velocity":0.3937007874015748},{"duration":0.17647050000000064,"midi":58,"time":5.294115,"velocity":0.3937007874015748},{"duration":0.17647050000000064,"midi":51,"time":5.294115,"velocity":0.3937007874015748},{"duration":0.17647049999999975,"midi":53,"time":5.4705855,"velocity":0.3937007874015748},{"duration":0.17647049999999975,"midi":60,"time":5.4705855,"velocity":0.3937007874015748},{"duration":0.17647049999999975,"midi":57,"time":5.647056,"velocity":0.3937007874015748},{"duration":0.17647049999999975,"midi":50,"time":5.647056,"velocity":0.3937007874015748},{"duration":0.17647050000000064,"midi":57,"time":5.8235265,"velocity":0.3937007874015748},{"duration":0.17647050000000064,"midi":50,"time":5.8235265,"velocity":0.3937007874015748},{"duration":0.17647049999999975,"midi":57,"time":6.1764675,"velocity":0.3937007874015748},{"duration":0.17647049999999975,"midi":50,"time":6.1764675,"velocity":0.3937007874015748},{"duration":0.17647049999999975,"midi":57,"time":6.352938,"velocity":0.3937007874015748},{"duration":0.17647049999999975,"midi":50,"time":6.352938,"velocity":0.3937007874015748},{"duration":0.17647050000000064,"midi":50,"time":6.5294085,"velocity":0.3937007874015748},{"duration":0.17647050000000064,"midi":57,"time":6.5294085,"velocity":0.3937007874015748},{"duration":0.17647049999999975,"midi":57,"time":6.8823495,"velocity":0.3937007874015748},{"duration":0.17647049999999975,"midi":50,"time":6.8823495,"velocity":0.3937007874015748},{"duration":0.17647050000000064,"midi":50,"time":7.05882,"velocity":0.3937007874015748},{"duration":0.17647050000000064,"midi":57,"time":7.05882,"velocity":0.3937007874015748},{"duration":0.17647049999999975,"midi":57,"time":7.2352905000000005,"velocity":0.3937007874015748},{"duration":0.17647049999999975,"midi":50,"time":7.2352905000000005,"velocity":0.3937007874015748},{"duration":0.17647049999999975,"midi":50,"time":7.5882315,"velocity":0.3937007874015748},{"duration":0.17647049999999975,"midi":57,"time":7.5882315,"velocity":0.3937007874015748},{"duration":0.17647050000000064,"midi":57,"time":7.764702,"velocity":0.3937007874015748},{"duration":0.17647050000000064,"midi":50,"time":7.764702,"velocity":0.3937007874015748},{"duration":0.17647049999999886,"midi":57,"time":7.9411725,"velocity":0.3937007874015748},{"duration":0.17647049999999886,"midi":50,"time":7.9411725,"velocity":0.3937007874015748},{"duration":0.17647050000000064,"midi":50,"time":8.117643,"velocity":0.3937007874015748},{"duration":0.17647050000000064,"midi":57,"time":8.117643,"velocity":0.3937007874015748},{"duration":0.17647049999999886,"midi":58,"time":8.470584,"velocity":0.3937007874015748},{"duration":0.17647049999999886,"midi":51,"time":8.470584,"velocity":0.3937007874015748},{"duration":0.17647050000000064,"midi":51,"time":8.6470545,"velocity":0.3937007874015748},{"duration":0.17647050000000064,"midi":58,"time":8.6470545,"velocity":0.3937007874015748},{"duration":0.17647049999999886,"midi":51,"time":8.9999955,"velocity":0.3937007874015748},{"duration":0.17647049999999886,"midi":58,"time":8.9999955,"velocity":0.3937007874015748},{"duration":0.17647050000000064,"midi":53,"time":9.176466,"velocity":0.3937007874015748},{"duration":0.17647050000000064,"midi":62,"time":9.176466,"velocity":0.3937007874015748},{"duration":0.17647050000000064,"midi":62,"time":9.3529365,"velocity":0.3937007874015748},{"duration":0.17647050000000064,"midi":53,"time":9.3529365,"velocity":0.3937007874015748},{"duration":0.17647050000000064,"midi":62,"time":9.7058775,"velocity":0.3937007874015748},{"duration":0.17647050000000064,"midi":53,"time":9.7058775,"velocity":0.3937007874015748},{"duration":0.17647050000000064,"midi":58,"time":9.882348,"velocity":0.3937007874015748},{"duration":0.17647050000000064,"midi":65,"time":9.882348,"velocity":0.3937007874015748},{"duration":0.17647049999999886,"midi":65,"time":10.058818500000001,"velocity":0.3937007874015748},{"duration":0.17647049999999886,"midi":58,"time":10.058818500000001,"velocity":0.3937007874015748},{"duration":0.17647050000000064,"midi":62,"time":10.235289,"velocity":0.3937007874015748},{"duration":0.17647050000000064,"midi":56,"time":10.235289,"velocity":0.3937007874015748},{"duration":0.17647049999999886,"midi":53,"time":10.4117595,"velocity":0.3937007874015748},{"duration":0.17647049999999886,"midi":59,"time":10.4117595,"velocity":0.3937007874015748},{"duration":0.17647050000000064,"midi":50,"time":10.58823,"velocity":0.3937007874015748},{"duration":0.17647050000000064,"midi":58,"time":10.58823,"velocity":0.3937007874015748},{"duration":0.17647050000000064,"midi":53,"time":10.7647005,"velocity":0.3937007874015748},{"duration":0.17647050000000064,"midi":47,"time":10.7647005,"velocity":0.3937007874015748},{"duration":0.17647049999999886,"midi":49,"time":10.941171,"velocity":0.3937007874015748},{"duration":0.17647049999999886,"midi":46,"time":10.941171,"velocity":0.3937007874015748},{"duration":0.17647050000000064,"midi":47,"time":11.1176415,"velocity":0.3937007874015748},{"duration":0.17647050000000064,"midi":45,"time":11.1176415,"velocity":0.3937007874015748},{"duration":0.17647050000000064,"midi":58,"time":11.294112,"velocity":0.3937007874015748},{"duration":0.17647050000000064,"midi":51,"time":11.294112,"velocity":0.3937007874015748},{"duration":0.17647049999999886,"midi":58,"time":11.4705825,"velocity":0.3937007874015748},{"duration":0.17647049999999886,"midi":51,"time":11.4705825,"velocity":0.3937007874015748},{"duration":0.17647050000000064,"midi":58,"time":11.8235235,"velocity":0.3937007874015748},{"duration":0.17647050000000064,"midi":51,"time":11.8235235,"velocity":0.3937007874015748},{"duration":0.17647049999999886,"midi":58,"time":11.999994000000001,"velocity":0.3937007874015748},{"duration":0.17647049999999886,"midi":51,"time":11.999994000000001,"velocity":0.3937007874015748},{"duration":0.17647050000000064,"midi":51,"time":12.1764645,"velocity":0.3937007874015748},{"duration":0.17647050000000064,"midi":58,"time":12.1764645,"velocity":0.3937007874015748},{"duration":0.17647050000000064,"midi":58,"time":12.5294055,"velocity":0.3937007874015748},{"duration":0.17647050000000064,"midi":51,"time":12.5294055,"velocity":0.3937007874015748},{"duration":0.17647050000000064,"midi":58,"time":12.705876,"velocity":0.3937007874015748},{"duration":0.17647050000000064,"midi":51,"time":12.705876,"velocity":0.3937007874015748},{"duration":0.17647049999999886,"midi":58,"time":12.8823465,"velocity":0.3937007874015748},{"duration":0.17647049999999886,"midi":51,"time":12.8823465,"velocity":0.3937007874015748},{"duration":0.17647050000000064,"midi":51,"time":13.2352875,"velocity":0.3937007874015748},{"duration":0.17647050000000064,"midi":58,"time":13.2352875,"velocity":0.3937007874015748},{"duration":0.17647049999999886,"midi":51,"time":13.411758,"velocity":0.3937007874015748},{"duration":0.17647049999999886,"midi":58,"time":13.411758,"velocity":0.3937007874015748},{"duration":0.17647050000000064,"midi":51,"time":13.5882285,"velocity":0.3937007874015748},{"duration":0.17647050000000064,"midi":58,"time":13.5882285,"velocity":0.3937007874015748},{"duration":0.17647050000000064,"midi":58,"time":13.764699,"velocity":0.3937007874015748},{"duration":0.17647050000000064,"midi":51,"time":13.764699,"velocity":0.3937007874015748},{"duration":0.17647049999999886,"midi":60,"time":13.9411695,"velocity":0.3937007874015748},{"duration":0.17647049999999886,"midi":53,"time":13.9411695,"velocity":0.3937007874015748},{"duration":0.17647050000000064,"midi":51,"time":14.11764,"velocity":0.3937007874015748},{"duration":0.17647050000000064,"midi":58,"time":14.11764,"velocity":0.3937007874015748},{"duration":0.17647050000000064,"midi":58,"time":14.2941105,"velocity":0.3937007874015748},{"duration":0.17647050000000064,"midi":51,"time":14.2941105,"velocity":0.3937007874015748},{"duration":0.17647050000000064,"midi":58,"time":14.6470515,"velocity":0.3937007874015748},{"duration":0.17647050000000064,"midi":51,"time":14.6470515,"velocity":0.3937007874015748},{"duration":0.17647049999999886,"midi":58,"time":14.823522,"velocity":0.3937007874015748},{"duration":0.17647049999999886,"midi":51,"time":14.823522,"velocity":0.3937007874015748},{"duration":0.17647050000000064,"midi":51,"time":14.9999925,"velocity":0.3937007874015748},{"duration":0.17647050000000064,"midi":58,"time":14.9999925,"velocity":0.3937007874015748},{"duration":0.17647049999999886,"midi":58,"time":15.3529335,"velocity":0.3937007874015748},{"duration":0.17647049999999886,"midi":51,"time":15.3529335,"velocity":0.3937007874015748},{"duration":0.17647050000000064,"midi":58,"time":15.529404,"velocity":0.3937007874015748},{"duration":0.17647050000000064,"midi":51,"time":15.529404,"velocity":0.3937007874015748},{"duration":0.17647050000000064,"midi":51,"time":15.7058745,"velocity":0.3937007874015748},{"duration":0.17647050000000064,"midi":58,"time":15.7058745,"velocity":0.3937007874015748},{"duration":0.1764704999999971,"midi":58,"time":16.0588155,"velocity":0.3937007874015748},{"duration":0.1764704999999971,"midi":51,"time":16.0588155,"velocity":0.3937007874015748},{"duration":0.17647050000000064,"midi":51,"time":16.235286,"velocity":0.3937007874015748},{"duration":0.17647050000000064,"midi":58,"time":16.235286,"velocity":0.3937007874015748},{"duration":0.17647050000000064,"midi":58,"time":16.4117565,"velocity":0.3937007874015748},{"duration":0.17647050000000064,"midi":51,"time":16.4117565,"velocity":0.3937007874015748},{"duration":0.17647050000000064,"midi":51,"time":16.588227,"velocity":0.3937007874015748},{"duration":0.17647050000000064,"midi":58,"time":16.588227,"velocity":0.3937007874015748},{"duration":0.17647050000000064,"midi":60,"time":16.7646975,"velocity":0.3937007874015748},{"duration":0.17647050000000064,"midi":53,"time":16.7646975,"velocity":0.3937007874015748},{"duration":0.17647050000000064,"midi":57,"time":16.941168,"velocity":0.3937007874015748},{"duration":0.17647050000000064,"midi":50,"time":16.941168,"velocity":0.3937007874015748},{"duration":0.1764704999999971,"midi":50,"time":17.1176385,"velocity":0.3937007874015748},{"duration":0.1764704999999971,"midi":57,"time":17.1176385,"velocity":0.3937007874015748},{"duration":0.17647050000000064,"midi":57,"time":17.4705795,"velocity":0.3937007874015748},{"duration":0.17647050000000064,"midi":50,"time":17.4705795,"velocity":0.3937007874015748},{"duration":0.17647050000000064,"midi":57,"time":17.64705,"velocity":0.3937007874015748},{"duration":0.17647050000000064,"midi":50,"time":17.64705,"velocity":0.3937007874015748},{"duration":0.17647050000000064,"midi":57,"time":17.8235205,"velocity":0.3937007874015748},{"duration":0.17647050000000064,"midi":50,"time":17.8235205,"velocity":0.3937007874015748},{"duration":0.17647050000000064,"midi":57,"time":18.1764615,"velocity":0.3937007874015748},{"duration":0.17647050000000064,"midi":50,"time":18.1764615,"velocity":0.3937007874015748},{"duration":0.17647050000000064,"midi":50,"time":18.352932,"velocity":0.3937007874015748},{"duration":0.17647050000000064,"midi":57,"time":18.352932,"velocity":0.3937007874015748},{"duration":0.17647050000000064,"midi":50,"time":18.5294025,"velocity":0.3937007874015748},{"duration":0.17647050000000064,"midi":57,"time":18.5294025,"velocity":0.3937007874015748},{"duration":0.17647050000000064,"midi":50,"time":18.8823435,"velocity":0.3937007874015748},{"duration":0.17647050000000064,"midi":57,"time":18.8823435,"velocity":0.3937007874015748},{"duration":0.1764704999999971,"midi":50,"time":19.058814,"velocity":0.3937007874015748},{"duration":0.1764704999999971,"midi":57,"time":19.058814,"velocity":0.3937007874015748},{"duration":0.17647050000000064,"midi":50,"time":19.2352845,"velocity":0.3937007874015748},{"duration":0.17647050000000064,"midi":57,"time":19.2352845,"velocity":0.3937007874015748},{"duration":0.17647050000000064,"midi":50,"time":19.411755,"velocity":0.3937007874015748},{"duration":0.17647050000000064,"midi":57,"time":19.411755,"velocity":0.3937007874015748},{"duration":0.3529410000000013,"midi":62,"time":19.764696,"velocity":0.3937007874015748},{"duration":0.3529410000000013,"midi":55,"time":19.764696,"velocity":0.3937007874015748},{"duration":0.3529410000000013,"midi":57,"time":20.470578,"velocity":0.3937007874015748},{"duration":0.3529410000000013,"midi":65,"time":20.470578,"velocity":0.3937007874015748},{"duration":0.3529410000000013,"midi":65,"time":45.176448,"velocity":0.3937007874015748},{"duration":0.3529410000000013,"midi":58,"time":45.529389,"velocity":0.3937007874015748},{"duration":0.3529409999999942,"midi":60,"time":45.88233,"velocity":0.3937007874015748},{"duration":0.3529410000000013,"midi":58,"time":46.235271,"velocity":0.3937007874015748},{"duration":0.3529410000000013,"midi":53,"time":46.588212,"velocity":0.3937007874015748},{"duration":0.3529410000000013,"midi":58,"time":46.941153,"velocity":0.3937007874015748},{"duration":0.3529410000000013,"midi":60,"time":47.294094,"velocity":0.3937007874015748},{"duration":0.3529410000000013,"midi":58,"time":47.647035,"velocity":0.3937007874015748},{"duration":0.3529409999999942,"midi":53,"time":47.999976000000004,"velocity":0.3937007874015748},{"duration":0.17647050000000064,"midi":53,"time":48.352917,"velocity":0.3937007874015748},{"duration":0.17647050000000064,"midi":58,"time":48.5293875,"velocity":0.3937007874015748},{"duration":0.3529410000000013,"midi":60,"time":48.705858,"velocity":0.3937007874015748},{"duration":0.3529410000000013,"midi":63,"time":49.058799,"velocity":0.3937007874015748},{"duration":0.3529410000000013,"midi":62,"time":49.41174,"velocity":0.3937007874015748},{"duration":0.3529409999999942,"midi":63,"time":49.764681,"velocity":0.3937007874015748},{"duration":0.17647050000000064,"midi":62,"time":50.117622,"velocity":0.3937007874015748},{"duration":0.17647050000000064,"midi":60,"time":50.2940925,"velocity":0.3937007874015748},{"duration":0.3529410000000013,"midi":58,"time":50.470563,"velocity":0.3937007874015748},{"duration":0.3529410000000013,"midi":65,"time":50.823504,"velocity":0.3937007874015748},{"duration":0.3529410000000013,"midi":58,"time":51.176445,"velocity":0.3937007874015748},{"duration":0.3529410000000013,"midi":60,"time":51.529386,"velocity":0.3937007874015748},{"duration":0.3529409999999942,"midi":58,"time":51.882327000000004,"velocity":0.3937007874015748},{"duration":0.3529410000000013,"midi":53,"time":52.235268,"velocity":0.3937007874015748},{"duration":0.3529410000000013,"midi":58,"time":52.588209,"velocity":0.3937007874015748},{"duration":0.3529410000000013,"midi":60,"time":52.94115,"velocity":0.3937007874015748},{"duration":0.3529410000000013,"midi":58,"time":53.294091,"velocity":0.3937007874015748},{"duration":0.3529410000000013,"midi":53,"time":53.647032,"velocity":0.3937007874015748},{"duration":0.17647049999999354,"midi":53,"time":53.999973000000004,"velocity":0.3937007874015748},{"duration":0.17647050000000064,"midi":58,"time":54.1764435,"velocity":0.3937007874015748},{"duration":0.3529410000000013,"midi":60,"time":54.352914,"velocity":0.3937007874015748},{"duration":0.3529410000000013,"midi":63,"time":54.705855,"velocity":0.3937007874015748},{"duration":0.3529410000000013,"midi":62,"time":55.058796,"velocity":0.3937007874015748},{"duration":0.3529410000000013,"midi":63,"time":55.411737,"velocity":0.3937007874015748},{"duration":0.17647050000000064,"midi":62,"time":55.764678,"velocity":0.3937007874015748},{"duration":0.17647049999999354,"midi":60,"time":55.941148500000004,"velocity":0.3937007874015748},{"duration":0.3529410000000013,"midi":58,"time":56.117619,"velocity":0.3937007874015748},{"duration":0.3529410000000013,"midi":65,"time":56.47056,"velocity":0.3937007874015748},{"duration":0.3529410000000013,"midi":58,"time":56.823501,"velocity":0.3937007874015748},{"duration":0.3529410000000013,"midi":60,"time":57.176442,"velocity":0.3937007874015748},{"duration":0.3529410000000013,"midi":58,"time":57.529383,"velocity":0.3937007874015748},{"duration":0.3529409999999942,"midi":53,"time":57.882324000000004,"velocity":0.3937007874015748},{"duration":0.3529410000000013,"midi":58,"time":58.235265,"velocity":0.3937007874015748},{"duration":0.3529410000000013,"midi":60,"time":58.588206,"velocity":0.3937007874015748},{"duration":0.3529410000000013,"midi":58,"time":58.941147,"velocity":0.3937007874015748},{"duration":0.3529410000000013,"midi":53,"time":59.294088,"velocity":0.3937007874015748},{"duration":0.17647050000000064,"midi":53,"time":59.647029,"velocity":0.3937007874015748},{"duration":0.17647049999999354,"midi":58,"time":59.823499500000004,"velocity":0.3937007874015748},{"duration":0.3529410000000013,"midi":60,"time":59.99997,"velocity":0.3937007874015748},{"duration":0.3529410000000013,"midi":63,"time":60.352911,"velocity":0.3937007874015748},{"duration":0.3529410000000013,"midi":62,"time":60.705852,"velocity":0.3937007874015748},{"duration":0.3529410000000013,"midi":63,"time":61.058793,"velocity":0.3937007874015748},{"duration":0.17647050000000064,"midi":62,"time":61.411734,"velocity":0.3937007874015748},{"duration":0.17647050000000064,"midi":60,"time":61.5882045,"velocity":0.3937007874015748},{"duration":0.3529409999999942,"midi":58,"time":61.764675000000004,"velocity":0.3937007874015748},{"duration":0.3529410000000013,"midi":65,"time":62.117616,"velocity":0.3937007874015748},{"duration":0.3529410000000013,"midi":58,"time":62.470557,"velocity":0.3937007874015748},{"duration":0.3529410000000013,"midi":60,"time":62.823498,"velocity":0.3937007874015748},{"duration":0.3529410000000013,"midi":58,"time":63.176439,"velocity":0.3937007874015748},{"duration":0.3529409999999942,"midi":53,"time":63.52938,"velocity":0.3937007874015748},{"duration":0.3529410000000084,"midi":58,"time":63.882321,"velocity":0.3937007874015748},{"duration":0.3529410000000013,"midi":60,"time":64.235262,"velocity":0.3937007874015748},{"duration":0.35294099999998707,"midi":58,"time":64.58820300000001,"velocity":0.3937007874015748},{"duration":0.3529410000000013,"midi":53,"time":64.941144,"velocity":0.3937007874015748},{"duration":0.17647050000000775,"midi":53,"time":65.294085,"velocity":0.3937007874015748},{"duration":0.17647049999999354,"midi":58,"time":65.4705555,"velocity":0.3937007874015748},{"duration":0.3529410000000013,"midi":60,"time":65.647026,"velocity":0.3937007874015748},{"duration":0.3529410000000013,"midi":63,"time":65.999967,"velocity":0.3937007874015748},{"duration":0.3529410000000013,"midi":62,"time":66.352908,"velocity":0.3937007874015748},{"duration":0.3529410000000013,"midi":63,"time":66.705849,"velocity":0.3937007874015748},{"duration":0.17647049999999354,"midi":62,"time":67.05879,"velocity":0.3937007874015748},{"duration":0.17647050000000775,"midi":60,"time":67.2352605,"velocity":0.3937007874015748},{"duration":0.3529410000000013,"midi":58,"time":67.411731,"velocity":0.3937007874015748},{"duration":0.3529410000000013,"midi":65,"time":79.058784,"velocity":0.3937007874015748},{"duration":0.3529410000000013,"midi":58,"time":79.411725,"velocity":0.3937007874015748},{"duration":0.3529410000000013,"midi":60,"time":79.764666,"velocity":0.3937007874015748},{"duration":0.3529410000000013,"midi":58,"time":80.117607,"velocity":0.3937007874015748},{"duration":0.17647049999999354,"midi":53,"time":80.47054800000001,"velocity":0.3937007874015748},{"duration":0.17647049999999354,"midi":58,"time":80.6470185,"velocity":0.3937007874015748},{"duration":0.3529410000000013,"midi":60,"time":80.9999595,"velocity":0.3937007874015748},{"duration":0.3529410000000013,"midi":58,"time":81.529371,"velocity":0.3937007874015748},{"duration":0.3529410000000013,"midi":53,"time":81.882312,"velocity":0.3937007874015748},{"duration":0.3529410000000013,"midi":58,"time":82.235253,"velocity":0.3937007874015748},{"duration":0.17647049999999354,"midi":60,"time":82.588194,"velocity":0.3937007874015748},{"duration":0.17647050000000775,"midi":63,"time":82.7646645,"velocity":0.3937007874015748},{"duration":0.3529410000000013,"midi":62,"time":83.1176055,"velocity":0.3937007874015748},{"duration":0.3529410000000013,"midi":60,"time":83.647017,"velocity":0.3937007874015748},{"duration":0.3529410000000013,"midi":58,"time":83.999958,"velocity":0.3937007874015748},{"duration":0.35294099999998707,"midi":53,"time":84.35289900000001,"velocity":0.3937007874015748},{"duration":0.3529410000000013,"midi":65,"time":84.70584,"velocity":0.3937007874015748},{"duration":0.3529410000000013,"midi":58,"time":85.058781,"velocity":0.3937007874015748},{"duration":0.3529410000000013,"midi":60,"time":85.411722,"velocity":0.3937007874015748},{"duration":0.3529410000000013,"midi":58,"time":85.764663,"velocity":0.3937007874015748},{"duration":0.17647050000000775,"midi":53,"time":86.117604,"velocity":0.3937007874015748},{"duration":0.17647049999999354,"midi":58,"time":86.29407450000001,"velocity":0.3937007874015748},{"duration":0.3529410000000013,"midi":60,"time":86.6470155,"velocity":0.3937007874015748},{"duration":0.3529410000000013,"midi":58,"time":87.176427,"velocity":0.3937007874015748},{"duration":0.3529410000000013,"midi":53,"time":87.529368,"velocity":0.3937007874015748},{"duration":0.3529410000000013,"midi":58,"time":87.882309,"velocity":0.3937007874015748},{"duration":0.17647049999999354,"midi":60,"time":88.23525000000001,"velocity":0.3937007874015748},{"duration":0.17647049999999354,"midi":63,"time":88.4117205,"velocity":0.3937007874015748},{"duration":0.3529410000000013,"midi":62,"time":88.7646615,"velocity":0.3937007874015748},{"duration":0.3529410000000013,"midi":60,"time":89.294073,"velocity":0.3937007874015748},{"duration":0.3529410000000013,"midi":58,"time":89.647014,"velocity":0.3937007874015748},{"duration":0.3529410000000013,"midi":53,"time":89.999955,"velocity":0.3937007874015748},{"duration":0.35294099999998707,"midi":51,"time":263.293986,"velocity":0.3937007874015748},{"duration":0.35294099999998707,"midi":53,"time":263.646927,"velocity":0.3937007874015748},{"duration":0.705882000000031,"midi":54,"time":263.999868,"velocity":0.3937007874015748},{"duration":0.7058819999999741,"midi":59,"time":264.70575,"velocity":0.3937007874015748},{"duration":0.705882000000031,"midi":58,"time":265.411632,"velocity":0.3937007874015748},{"duration":0.7058819999999741,"midi":61,"time":266.117514,"velocity":0.3937007874015748},{"duration":2.470587000000023,"midi":63,"time":266.823396,"velocity":0.3937007874015748},{"duration":0.35294099999998707,"midi":65,"time":269.293983,"velocity":0.3937007874015748},{"duration":1.4117640000000051,"midi":66,"time":269.646924,"velocity":0.3937007874015748},{"duration":1.4117640000000051,"midi":68,"time":271.058688,"velocity":0.3937007874015748}]},{"instrument":{"family":"chromatic percussion","number":13,"name":"xylophone"},"notes":[{"duration":0.3529410000000155,"midi":78,"time":249.882228,"velocity":0.3937007874015748},{"duration":0.35294099999998707,"midi":71,"time":250.235169,"velocity":0.3937007874015748},{"duration":0.3529410000000155,"midi":73,"time":250.58811,"velocity":0.3937007874015748},{"duration":0.35294099999998707,"midi":71,"time":250.94105100000002,"velocity":0.3937007874015748},{"duration":0.17647049999999354,"midi":66,"time":251.293992,"velocity":0.3937007874015748},{"duration":0.3529410000000155,"midi":71,"time":251.4704625,"velocity":0.3937007874015748},{"duration":0.35294099999998707,"midi":73,"time":251.8234035,"velocity":0.3937007874015748},{"duration":0.08823524999999677,"midi":75,"time":252.1763445,"velocity":0.3937007874015748},{"duration":0.08823524999999677,"midi":73,"time":252.26457975,"velocity":0.3937007874015748},{"duration":0.3529410000000155,"midi":71,"time":252.352815,"velocity":0.3937007874015748},{"duration":0.35294099999998707,"midi":66,"time":252.705756,"velocity":0.3937007874015748},{"duration":0.3529410000000155,"midi":71,"time":253.058697,"velocity":0.3937007874015748},{"duration":0.17647049999999354,"midi":73,"time":253.411638,"velocity":0.3937007874015748},{"duration":0.35294099999998707,"midi":77,"time":253.5881085,"velocity":0.3937007874015748},{"duration":0.3529410000000155,"midi":75,"time":253.9410495,"velocity":0.3937007874015748},{"duration":0.08823524999999677,"midi":77,"time":254.2939905,"velocity":0.3937007874015748},{"duration":0.08823524999999677,"midi":75,"time":254.38222575,"velocity":0.3937007874015748},{"duration":0.3529410000000155,"midi":73,"time":254.470461,"velocity":0.3937007874015748},{"duration":0.35294099999998707,"midi":71,"time":254.82340200000002,"velocity":0.3937007874015748},{"duration":0.35294099999998707,"midi":66,"time":255.176343,"velocity":0.3937007874015748},{"duration":0.3529410000000155,"midi":78,"time":255.529284,"velocity":0.3937007874015748},{"duration":0.35294099999998707,"midi":71,"time":255.882225,"velocity":0.3937007874015748},{"duration":0.35294099999998707,"midi":73,"time":256.235166,"velocity":0.3937007874015748},{"duration":0.3529410000000439,"midi":71,"time":256.588107,"velocity":0.3937007874015748},{"duration":0.17647049999999354,"midi":66,"time":256.941048,"velocity":0.3937007874015748},{"duration":0.35294099999998707,"midi":71,"time":257.1175185,"velocity":0.3937007874015748},{"duration":0.35294099999998707,"midi":73,"time":257.4704595,"velocity":0.3937007874015748},{"duration":0.08823525000002519,"midi":75,"time":257.8234005,"velocity":0.3937007874015748},{"duration":0.08823524999996835,"midi":73,"time":257.91163575,"velocity":0.3937007874015748},{"duration":0.3529410000000439,"midi":71,"time":257.999871,"velocity":0.3937007874015748},{"duration":0.35294099999998707,"midi":66,"time":258.35281200000003,"velocity":0.3937007874015748},{"duration":0.35294099999998707,"midi":71,"time":258.705753,"velocity":0.3937007874015748},{"duration":0.17647049999999354,"midi":73,"time":259.058694,"velocity":0.3937007874015748},{"duration":0.35294099999998707,"midi":77,"time":259.2351645,"velocity":0.3937007874015748},{"duration":0.3529410000000439,"midi":75,"time":259.5881055,"velocity":0.3937007874015748},{"duration":0.08823524999996835,"midi":77,"time":259.9410465,"velocity":0.3937007874015748},{"duration":0.08823525000002519,"midi":75,"time":260.02928175,"velocity":0.3937007874015748},{"duration":0.35294099999998707,"midi":73,"time":260.117517,"velocity":0.3937007874015748},{"duration":0.35294099999998707,"midi":71,"time":260.470458,"velocity":0.3937007874015748},{"duration":0.35294099999998707,"midi":66,"time":260.823399,"velocity":0.3937007874015748},{"duration":0.3529410000000439,"midi":78,"time":261.17634,"velocity":0.3937007874015748},{"duration":0.35294099999998707,"midi":71,"time":261.529281,"velocity":0.3937007874015748},{"duration":0.35294099999998707,"midi":73,"time":261.882222,"velocity":0.3937007874015748},{"duration":0.35294099999998707,"midi":71,"time":262.235163,"velocity":0.3937007874015748},{"duration":0.17647049999999354,"midi":66,"time":262.588104,"velocity":0.3937007874015748},{"duration":0.3529410000000439,"midi":71,"time":262.7645745,"velocity":0.3937007874015748},{"duration":0.35294099999998707,"midi":73,"time":263.1175155,"velocity":0.3937007874015748},{"duration":0.08823524999996835,"midi":75,"time":263.4704565,"velocity":0.3937007874015748},{"duration":0.08823525000002519,"midi":73,"time":263.55869175,"velocity":0.3937007874015748},{"duration":0.35294099999998707,"midi":71,"time":263.646927,"velocity":0.3937007874015748},{"duration":0.35294099999998707,"midi":66,"time":263.999868,"velocity":0.3937007874015748},{"duration":0.3529410000000439,"midi":71,"time":264.352809,"velocity":0.3937007874015748},{"duration":0.17647049999999354,"midi":73,"time":264.70575,"velocity":0.3937007874015748},{"duration":0.35294099999998707,"midi":77,"time":264.8822205,"velocity":0.3937007874015748},{"duration":0.35294099999998707,"midi":75,"time":265.2351615,"velocity":0.3937007874015748},{"duration":0.08823525000002519,"midi":77,"time":265.5881025,"velocity":0.3937007874015748},{"duration":0.08823524999996835,"midi":75,"time":265.67633775,"velocity":0.3937007874015748},{"duration":0.3529410000000439,"midi":73,"time":265.764573,"velocity":0.3937007874015748},{"duration":0.35294099999998707,"midi":71,"time":266.117514,"velocity":0.3937007874015748},{"duration":0.35294099999998707,"midi":66,"time":266.470455,"velocity":0.3937007874015748},{"duration":0.35294099999998707,"midi":78,"time":266.823396,"velocity":0.3937007874015748},{"duration":0.35294099999998707,"midi":71,"time":267.176337,"velocity":0.3937007874015748},{"duration":0.3529410000000439,"midi":73,"time":267.529278,"velocity":0.3937007874015748},{"duration":0.35294099999998707,"midi":71,"time":267.882219,"velocity":0.3937007874015748},{"duration":0.17647049999999354,"midi":66,"time":268.23516,"velocity":0.3937007874015748},{"duration":0.35294099999998707,"midi":71,"time":268.4116305,"velocity":0.3937007874015748},{"duration":0.35294099999998707,"midi":73,"time":268.7645715,"velocity":0.3937007874015748},{"duration":0.08823525000002519,"midi":75,"time":269.1175125,"velocity":0.3937007874015748},{"duration":0.08823525000002519,"midi":73,"time":269.20574775,"velocity":0.3937007874015748},{"duration":0.35294099999998707,"midi":71,"time":269.293983,"velocity":0.3937007874015748},{"duration":0.35294099999998707,"midi":66,"time":269.646924,"velocity":0.3937007874015748},{"duration":0.35294099999998707,"midi":71,"time":269.999865,"velocity":0.3937007874015748},{"duration":0.17647049999999354,"midi":73,"time":270.352806,"velocity":0.3937007874015748},{"duration":0.3529410000000439,"midi":77,"time":270.5292765,"velocity":0.3937007874015748},{"duration":0.35294099999998707,"midi":75,"time":270.8822175,"velocity":0.3937007874015748},{"duration":0.08823524999996835,"midi":77,"time":271.2351585,"velocity":0.3937007874015748},{"duration":0.08823525000002519,"midi":75,"time":271.32339375,"velocity":0.3937007874015748},{"duration":0.35294099999998707,"midi":73,"time":271.411629,"velocity":0.3937007874015748},{"duration":0.35294099999998707,"midi":71,"time":271.76457,"velocity":0.3937007874015748},{"duration":0.3529410000000439,"midi":66,"time":272.117511,"velocity":0.3937007874015748}]},{"instrument":{"family":"pipe","number":73,"name":"flute"},"notes":[{"duration":0.3529410000000155,"midi":77,"time":135.882285,"velocity":0.5669291338582677},{"duration":0.17647049999999354,"midi":77,"time":136.235226,"velocity":0.5669291338582677},{"duration":0.17647049999999354,"midi":77,"time":136.4116965,"velocity":0.5669291338582677},{"duration":0.3529410000000155,"midi":77,"time":136.7646375,"velocity":0.5669291338582677},{"duration":0.17647049999999354,"midi":77,"time":137.1175785,"velocity":0.5669291338582677},{"duration":0.35294099999998707,"midi":75,"time":137.294049,"velocity":0.5669291338582677},{"duration":0.3529410000000155,"midi":74,"time":137.64699,"velocity":0.5669291338582677},{"duration":0.35294099999998707,"midi":75,"time":137.999931,"velocity":0.5669291338582677},{"duration":0.7058820000000026,"midi":77,"time":138.352872,"velocity":0.5669291338582677},{"duration":0.3529410000000155,"midi":82,"time":139.058754,"velocity":0.5669291338582677},{"duration":1.2352935000000116,"midi":77,"time":139.5881655,"velocity":0.5669291338582677},{"duration":0.3529410000000155,"midi":77,"time":141.529341,"velocity":0.5669291338582677},{"duration":0.17647049999999354,"midi":77,"time":141.882282,"velocity":0.5669291338582677},{"duration":0.17647049999999354,"midi":77,"time":142.0587525,"velocity":0.5669291338582677},{"duration":0.35294099999998707,"midi":77,"time":142.4116935,"velocity":0.5669291338582677},{"duration":0.17647049999999354,"midi":77,"time":142.7646345,"velocity":0.5669291338582677},{"duration":0.3529410000000155,"midi":75,"time":142.941105,"velocity":0.5669291338582677},{"duration":0.35294099999998707,"midi":74,"time":143.294046,"velocity":0.5669291338582677},{"duration":0.3529410000000155,"midi":75,"time":143.646987,"velocity":0.5669291338582677},{"duration":0.35294099999998707,"midi":77,"time":143.999928,"velocity":0.5669291338582677},{"duration":0.3529410000000155,"midi":72,"time":144.352869,"velocity":0.5669291338582677},{"duration":0.35294099999998707,"midi":69,"time":144.70581,"velocity":0.5669291338582677},{"duration":1.4117640000000051,"midi":70,"time":145.058751,"velocity":0.5669291338582677},{"duration":0.35294099999998707,"midi":65,"time":147.176397,"velocity":0.5669291338582677},{"duration":0.35294099999998707,"midi":77,"time":147.176397,"velocity":0.5669291338582677},{"duration":0.17647049999999354,"midi":77,"time":147.529338,"velocity":0.5669291338582677},{"duration":0.17647049999999354,"midi":65,"time":147.529338,"velocity":0.5669291338582677},{"duration":0.17647050000002196,"midi":65,"time":147.7058085,"velocity":0.5669291338582677},{"duration":0.17647050000002196,"midi":77,"time":147.7058085,"velocity":0.5669291338582677},{"duration":0.35294099999998707,"midi":65,"time":148.0587495,"velocity":0.5669291338582677},{"duration":0.35294099999998707,"midi":77,"time":148.0587495,"velocity":0.5669291338582677},{"duration":0.17647050000002196,"midi":77,"time":148.4116905,"velocity":0.5669291338582677},{"duration":0.17647050000002196,"midi":65,"time":148.4116905,"velocity":0.5669291338582677},{"duration":0.35294099999998707,"midi":75,"time":148.588161,"velocity":0.5669291338582677},{"duration":0.35294099999998707,"midi":63,"time":148.588161,"velocity":0.5669291338582677},{"duration":0.35294099999998707,"midi":62,"time":148.941102,"velocity":0.5669291338582677},{"duration":0.35294099999998707,"midi":74,"time":148.941102,"velocity":0.5669291338582677},{"duration":0.3529410000000155,"midi":63,"time":149.294043,"velocity":0.5669291338582677},{"duration":0.3529410000000155,"midi":75,"time":149.294043,"velocity":0.5669291338582677},{"duration":0.7058820000000026,"midi":77,"time":149.646984,"velocity":0.5669291338582677},{"duration":0.7058820000000026,"midi":65,"time":149.646984,"velocity":0.5669291338582677},{"duration":0.35294099999998707,"midi":82,"time":150.352866,"velocity":0.5669291338582677},{"duration":0.35294099999998707,"midi":70,"time":150.352866,"velocity":0.5669291338582677},{"duration":1.2352934999999832,"midi":65,"time":150.88227750000001,"velocity":0.5669291338582677},{"duration":1.2352934999999832,"midi":77,"time":150.88227750000001,"velocity":0.5669291338582677},{"duration":0.3529410000000155,"midi":65,"time":152.823453,"velocity":0.5669291338582677},{"duration":0.3529410000000155,"midi":77,"time":152.823453,"velocity":0.5669291338582677},{"duration":0.17647049999999354,"midi":65,"time":153.17639400000002,"velocity":0.5669291338582677},{"duration":0.17647049999999354,"midi":77,"time":153.17639400000002,"velocity":0.5669291338582677},{"duration":0.17647049999999354,"midi":77,"time":153.3528645,"velocity":0.5669291338582677},{"duration":0.17647049999999354,"midi":65,"time":153.3528645,"velocity":0.5669291338582677},{"duration":0.3529410000000155,"midi":65,"time":153.7058055,"velocity":0.5669291338582677},{"duration":0.3529410000000155,"midi":77,"time":153.7058055,"velocity":0.5669291338582677},{"duration":0.17647049999999354,"midi":77,"time":154.0587465,"velocity":0.5669291338582677},{"duration":0.17647049999999354,"midi":65,"time":154.0587465,"velocity":0.5669291338582677},{"duration":0.35294099999998707,"midi":63,"time":154.235217,"velocity":0.5669291338582677},{"duration":0.35294099999998707,"midi":75,"time":154.235217,"velocity":0.5669291338582677},{"duration":0.3529410000000155,"midi":74,"time":154.588158,"velocity":0.5669291338582677},{"duration":0.3529410000000155,"midi":62,"time":154.588158,"velocity":0.5669291338582677},{"duration":0.35294099999998707,"midi":63,"time":154.941099,"velocity":0.5669291338582677},{"duration":0.35294099999998707,"midi":75,"time":154.941099,"velocity":0.5669291338582677},{"duration":0.3529410000000155,"midi":77,"time":155.29404,"velocity":0.5669291338582677},{"duration":0.3529410000000155,"midi":65,"time":155.29404,"velocity":0.5669291338582677},{"duration":0.35294099999998707,"midi":70,"time":155.646981,"velocity":0.5669291338582677},{"duration":0.35294099999998707,"midi":82,"time":155.646981,"velocity":0.5669291338582677},{"duration":0.3529410000000155,"midi":69,"time":155.999922,"velocity":0.5669291338582677},{"duration":0.3529410000000155,"midi":81,"time":155.999922,"velocity":0.5669291338582677},{"duration":1.4117639999999767,"midi":82,"time":156.352863,"velocity":0.5669291338582677},{"duration":1.4117639999999767,"midi":70,"time":156.352863,"velocity":0.5669291338582677},{"duration":0.3529410000000155,"midi":65,"time":158.470509,"velocity":0.5669291338582677},{"duration":0.3529410000000155,"midi":77,"time":158.470509,"velocity":0.5669291338582677},{"duration":0.17647049999999354,"midi":77,"time":158.82345,"velocity":0.5669291338582677},{"duration":0.17647049999999354,"midi":65,"time":158.82345,"velocity":0.5669291338582677},{"duration":0.17647049999999354,"midi":65,"time":158.9999205,"velocity":0.5669291338582677},{"duration":0.17647049999999354,"midi":77,"time":158.9999205,"velocity":0.5669291338582677},{"duration":0.3529410000000155,"midi":77,"time":159.3528615,"velocity":0.5669291338582677},{"duration":0.3529410000000155,"midi":65,"time":159.3528615,"velocity":0.5669291338582677},{"duration":0.17647049999999354,"midi":77,"time":159.7058025,"velocity":0.5669291338582677},{"duration":0.17647049999999354,"midi":65,"time":159.7058025,"velocity":0.5669291338582677},{"duration":0.3529410000000155,"midi":63,"time":159.882273,"velocity":0.5669291338582677},{"duration":0.3529410000000155,"midi":75,"time":159.882273,"velocity":0.5669291338582677},{"duration":0.35294099999998707,"midi":74,"time":160.235214,"velocity":0.5669291338582677},{"duration":0.35294099999998707,"midi":62,"time":160.235214,"velocity":0.5669291338582677},{"duration":0.3529410000000155,"midi":75,"time":160.588155,"velocity":0.5669291338582677},{"duration":0.3529410000000155,"midi":63,"time":160.588155,"velocity":0.5669291338582677},{"duration":0.7058819999999741,"midi":65,"time":160.94109600000002,"velocity":0.5669291338582677},{"duration":0.7058819999999741,"midi":77,"time":160.94109600000002,"velocity":0.5669291338582677},{"duration":0.3529410000000155,"midi":70,"time":161.646978,"velocity":0.5669291338582677},{"duration":0.3529410000000155,"midi":82,"time":161.646978,"velocity":0.5669291338582677},{"duration":1.2352935000000116,"midi":77,"time":162.1763895,"velocity":0.5669291338582677},{"duration":1.2352935000000116,"midi":65,"time":162.1763895,"velocity":0.5669291338582677},{"duration":0.35294099999998707,"midi":77,"time":164.117565,"velocity":0.5669291338582677},{"duration":0.35294099999998707,"midi":65,"time":164.117565,"velocity":0.5669291338582677},{"duration":0.17647049999999354,"midi":65,"time":164.470506,"velocity":0.5669291338582677},{"duration":0.17647049999999354,"midi":77,"time":164.470506,"velocity":0.5669291338582677},{"duration":0.17647050000002196,"midi":77,"time":164.6469765,"velocity":0.5669291338582677},{"duration":0.17647050000002196,"midi":65,"time":164.6469765,"velocity":0.5669291338582677},{"duration":0.35294099999998707,"midi":65,"time":164.9999175,"velocity":0.5669291338582677},{"duration":0.35294099999998707,"midi":77,"time":164.9999175,"velocity":0.5669291338582677},{"duration":0.17647049999999354,"midi":65,"time":165.3528585,"velocity":0.5669291338582677},{"duration":0.17647049999999354,"midi":77,"time":165.3528585,"velocity":0.5669291338582677},{"duration":0.3529410000000155,"midi":75,"time":165.529329,"velocity":0.5669291338582677},{"duration":0.3529410000000155,"midi":63,"time":165.529329,"velocity":0.5669291338582677},{"duration":0.35294099999998707,"midi":62,"time":165.88227,"velocity":0.5669291338582677},{"duration":0.35294099999998707,"midi":74,"time":165.88227,"velocity":0.5669291338582677},{"duration":0.3529410000000155,"midi":63,"time":166.235211,"velocity":0.5669291338582677},{"duration":0.3529410000000155,"midi":75,"time":166.235211,"velocity":0.5669291338582677},{"duration":0.35294099999998707,"midi":65,"time":166.588152,"velocity":0.5669291338582677},{"duration":0.35294099999998707,"midi":77,"time":166.588152,"velocity":0.5669291338582677},{"duration":0.3529410000000155,"midi":82,"time":166.941093,"velocity":0.5669291338582677},{"duration":0.3529410000000155,"midi":70,"time":166.941093,"velocity":0.5669291338582677},{"duration":0.35294099999998707,"midi":81,"time":167.294034,"velocity":0.5669291338582677},{"duration":0.35294099999998707,"midi":69,"time":167.294034,"velocity":0.5669291338582677},{"duration":1.4117640000000051,"midi":82,"time":167.646975,"velocity":0.5669291338582677},{"duration":1.4117640000000051,"midi":70,"time":167.646975,"velocity":0.5669291338582677}]},{"instrument":{"family":"reed","number":64,"name":"soprano sax"},"notes":[{"duration":0.3529410000000013,"midi":70,"time":90.352896,"velocity":0.3937007874015748},{"duration":0.17647049999999354,"midi":70,"time":90.705837,"velocity":0.3937007874015748},{"duration":0.17647050000000775,"midi":72,"time":90.8823075,"velocity":0.3937007874015748},{"duration":0.3529410000000013,"midi":74,"time":91.058778,"velocity":0.3937007874015748},{"duration":0.3529410000000013,"midi":70,"time":91.411719,"velocity":0.3937007874015748},{"duration":0.3529410000000013,"midi":72,"time":91.76466,"velocity":0.3937007874015748},{"duration":0.17647049999999354,"midi":72,"time":92.11760100000001,"velocity":0.3937007874015748},{"duration":0.17647049999999354,"midi":74,"time":92.2940715,"velocity":0.3937007874015748},{"duration":0.3529410000000013,"midi":72,"time":92.470542,"velocity":0.3937007874015748},{"duration":0.3529410000000013,"midi":70,"time":92.823483,"velocity":0.3937007874015748},{"duration":0.3529410000000013,"midi":74,"time":93.176424,"velocity":0.3937007874015748},{"duration":0.17647050000000775,"midi":74,"time":93.529365,"velocity":0.3937007874015748},{"duration":0.17647049999999354,"midi":75,"time":93.7058355,"velocity":0.3937007874015748},{"duration":0.3529410000000013,"midi":77,"time":93.882306,"velocity":0.3937007874015748},{"duration":0.3529410000000013,"midi":82,"time":94.235247,"velocity":0.3937007874015748},{"duration":0.7058820000000026,"midi":79,"time":94.588188,"velocity":0.3937007874015748},{"duration":0.7058820000000026,"midi":77,"time":95.29407,"velocity":0.3937007874015748},{"duration":0.35294099999998707,"midi":70,"time":95.99995200000001,"velocity":0.3937007874015748},{"duration":0.17647050000000775,"midi":70,"time":96.352893,"velocity":0.3937007874015748},{"duration":0.17647049999999354,"midi":72,"time":96.5293635,"velocity":0.3937007874015748},{"duration":0.3529410000000013,"midi":74,"time":96.705834,"velocity":0.3937007874015748},{"duration":0.3529410000000013,"midi":70,"time":97.058775,"velocity":0.3937007874015748},{"duration":0.3529410000000013,"midi":72,"time":97.411716,"velocity":0.3937007874015748},{"duration":0.17647050000000775,"midi":72,"time":97.764657,"velocity":0.3937007874015748},{"duration":0.17647049999999354,"midi":74,"time":97.94112750000001,"velocity":0.3937007874015748},{"duration":0.3529410000000013,"midi":72,"time":98.117598,"velocity":0.3937007874015748},{"duration":0.3529410000000013,"midi":70,"time":98.470539,"velocity":0.3937007874015748},{"duration":0.3529410000000013,"midi":74,"time":98.82348,"velocity":0.3937007874015748},{"duration":0.17647049999999354,"midi":74,"time":99.176421,"velocity":0.3937007874015748},{"duration":0.17647050000000775,"midi":75,"time":99.3528915,"velocity":0.3937007874015748},{"duration":0.3529410000000013,"midi":77,"time":99.529362,"velocity":0.3937007874015748},{"duration":0.35294099999998707,"midi":82,"time":99.88230300000001,"velocity":0.3937007874015748},{"duration":0.7058820000000026,"midi":79,"time":100.235244,"velocity":0.3937007874015748},{"duration":0.7058820000000026,"midi":77,"time":100.941126,"velocity":0.3937007874015748},{"duration":0.17647050000000775,"midi":70,"time":101.647008,"velocity":0.3937007874015748},{"duration":0.17647050000000775,"midi":67,"time":101.647008,"velocity":0.3937007874015748},{"duration":0.17647049999999354,"midi":67,"time":101.82347850000001,"velocity":0.3937007874015748},{"duration":0.17647049999999354,"midi":70,"time":101.82347850000001,"velocity":0.3937007874015748},{"duration":0.17647049999999354,"midi":67,"time":101.999949,"velocity":0.3937007874015748},{"duration":0.17647049999999354,"midi":70,"time":101.999949,"velocity":0.3937007874015748},{"duration":0.17647050000000775,"midi":72,"time":102.1764195,"velocity":0.3937007874015748},{"duration":0.17647050000000775,"midi":67,"time":102.1764195,"velocity":0.3937007874015748},{"duration":0.3529410000000013,"midi":74,"time":102.35289,"velocity":0.3937007874015748},{"duration":0.3529410000000013,"midi":70,"time":102.35289,"velocity":0.3937007874015748},{"duration":0.3529410000000013,"midi":67,"time":102.705831,"velocity":0.3937007874015748},{"duration":0.3529410000000013,"midi":70,"time":102.705831,"velocity":0.3937007874015748},{"duration":0.17647049999999354,"midi":72,"time":103.058772,"velocity":0.3937007874015748},{"duration":0.17647049999999354,"midi":69,"time":103.058772,"velocity":0.3937007874015748},{"duration":0.17647050000000775,"midi":69,"time":103.2352425,"velocity":0.3937007874015748},{"duration":0.17647050000000775,"midi":72,"time":103.2352425,"velocity":0.3937007874015748},{"duration":0.17647049999999354,"midi":69,"time":103.411713,"velocity":0.3937007874015748},{"duration":0.17647049999999354,"midi":72,"time":103.411713,"velocity":0.3937007874015748},{"duration":0.17647050000000775,"midi":70,"time":103.5881835,"velocity":0.3937007874015748},{"duration":0.17647050000000775,"midi":74,"time":103.5881835,"velocity":0.3937007874015748},{"duration":0.35294099999998707,"midi":72,"time":103.76465400000001,"velocity":0.3937007874015748},{"duration":0.35294099999998707,"midi":69,"time":103.76465400000001,"velocity":0.3937007874015748},{"duration":0.3529410000000013,"midi":65,"time":104.117595,"velocity":0.3937007874015748},{"duration":0.3529410000000013,"midi":70,"time":104.117595,"velocity":0.3937007874015748},{"duration":0.3529410000000013,"midi":70,"time":104.470536,"velocity":0.3937007874015748},{"duration":0.3529410000000013,"midi":74,"time":104.470536,"velocity":0.3937007874015748},{"duration":0.17647050000000775,"midi":70,"time":104.823477,"velocity":0.3937007874015748},{"duration":0.17647050000000775,"midi":74,"time":104.823477,"velocity":0.3937007874015748},{"duration":0.17647049999999354,"midi":72,"time":104.9999475,"velocity":0.3937007874015748},{"duration":0.17647049999999354,"midi":75,"time":104.9999475,"velocity":0.3937007874015748},{"duration":0.3529410000000013,"midi":74,"time":105.176418,"velocity":0.3937007874015748},{"duration":0.3529410000000013,"midi":77,"time":105.176418,"velocity":0.3937007874015748},{"duration":0.3529410000000013,"midi":77,"time":105.529359,"velocity":0.3937007874015748},{"duration":0.3529410000000013,"midi":82,"time":105.529359,"velocity":0.3937007874015748},{"duration":0.7058820000000026,"midi":79,"time":105.8823,"velocity":0.3937007874015748},{"duration":0.7058820000000026,"midi":74,"time":105.8823,"velocity":0.3937007874015748},{"duration":0.7058820000000026,"midi":70,"time":105.8823,"velocity":0.3937007874015748},{"duration":0.7058820000000026,"midi":70,"time":106.588182,"velocity":0.3937007874015748},{"duration":0.7058820000000026,"midi":74,"time":106.588182,"velocity":0.3937007874015748},{"duration":0.7058820000000026,"midi":77,"time":106.588182,"velocity":0.3937007874015748},{"duration":0.17647049999999354,"midi":67,"time":107.294064,"velocity":0.3937007874015748},{"duration":0.17647049999999354,"midi":70,"time":107.294064,"velocity":0.3937007874015748},{"duration":0.17647050000000775,"midi":70,"time":107.4705345,"velocity":0.3937007874015748},{"duration":0.17647050000000775,"midi":67,"time":107.4705345,"velocity":0.3937007874015748},{"duration":0.17647049999999354,"midi":70,"time":107.64700500000001,"velocity":0.3937007874015748},{"duration":0.17647049999999354,"midi":67,"time":107.64700500000001,"velocity":0.3937007874015748},{"duration":0.17647050000000775,"midi":72,"time":107.8234755,"velocity":0.3937007874015748},{"duration":0.17647050000000775,"midi":67,"time":107.8234755,"velocity":0.3937007874015748},{"duration":0.35294099999998707,"midi":70,"time":107.99994600000001,"velocity":0.3937007874015748},{"duration":0.35294099999998707,"midi":74,"time":107.99994600000001,"velocity":0.3937007874015748},{"duration":0.3529410000000013,"midi":70,"time":108.352887,"velocity":0.3937007874015748},{"duration":0.3529410000000013,"midi":67,"time":108.352887,"velocity":0.3937007874015748},{"duration":0.17647050000000775,"midi":69,"time":108.705828,"velocity":0.3937007874015748},{"duration":0.17647050000000775,"midi":72,"time":108.705828,"velocity":0.3937007874015748},{"duration":0.17647049999999354,"midi":69,"time":108.8822985,"velocity":0.3937007874015748},{"duration":0.17647049999999354,"midi":72,"time":108.8822985,"velocity":0.3937007874015748},{"duration":0.17647050000000775,"midi":69,"time":109.058769,"velocity":0.3937007874015748},{"duration":0.17647050000000775,"midi":72,"time":109.058769,"velocity":0.3937007874015748},{"duration":0.17647049999999354,"midi":70,"time":109.2352395,"velocity":0.3937007874015748},{"duration":0.17647049999999354,"midi":74,"time":109.2352395,"velocity":0.3937007874015748},{"duration":0.3529410000000013,"midi":69,"time":109.41171,"velocity":0.3937007874015748},{"duration":0.3529410000000013,"midi":72,"time":109.41171,"velocity":0.3937007874015748},{"duration":0.3529410000000013,"midi":65,"time":109.764651,"velocity":0.3937007874015748},{"duration":0.3529410000000013,"midi":70,"time":109.764651,"velocity":0.3937007874015748},{"duration":0.3529410000000013,"midi":74,"time":110.117592,"velocity":0.3937007874015748},{"duration":0.3529410000000013,"midi":70,"time":110.117592,"velocity":0.3937007874015748},{"duration":0.17647049999999354,"midi":70,"time":110.470533,"velocity":0.3937007874015748},{"duration":0.17647049999999354,"midi":74,"time":110.470533,"velocity":0.3937007874015748},{"duration":0.17647050000000775,"midi":72,"time":110.6470035,"velocity":0.3937007874015748},{"duration":0.17647050000000775,"midi":75,"time":110.6470035,"velocity":0.3937007874015748},{"duration":0.3529410000000013,"midi":74,"time":110.823474,"velocity":0.3937007874015748},{"duration":0.3529410000000013,"midi":77,"time":110.823474,"velocity":0.3937007874015748},{"duration":0.3529410000000013,"midi":82,"time":111.176415,"velocity":0.3937007874015748},{"duration":0.3529410000000013,"midi":77,"time":111.176415,"velocity":0.3937007874015748},{"duration":0.7058819999999884,"midi":70,"time":111.529356,"velocity":0.3937007874015748},{"duration":0.7058819999999884,"midi":79,"time":111.529356,"velocity":0.3937007874015748},{"duration":0.7058819999999884,"midi":74,"time":111.529356,"velocity":0.3937007874015748},{"duration":0.7058820000000026,"midi":70,"time":112.235238,"velocity":0.3937007874015748},{"duration":0.7058820000000026,"midi":74,"time":112.235238,"velocity":0.3937007874015748},{"duration":0.7058820000000026,"midi":77,"time":112.235238,"velocity":0.3937007874015748},{"duration":0.17647049999999354,"midi":78,"time":341.646888,"velocity":0.3937007874015748},{"duration":0.17647049999999354,"midi":85,"time":341.8233585,"velocity":0.3937007874015748},{"duration":0.17647050000005038,"midi":83,"time":341.999829,"velocity":0.3937007874015748},{"duration":0.17647049999999354,"midi":78,"time":342.1762995,"velocity":0.3937007874015748},{"duration":0.2647057499999619,"midi":82,"time":342.35277,"velocity":0.3937007874015748},{"duration":0.2647057500000187,"midi":82,"time":342.61747575,"velocity":0.3937007874015748},{"duration":0.35294099999998707,"midi":83,"time":342.8821815,"velocity":0.3937007874015748},{"duration":0.17647049999999354,"midi":78,"time":343.2351225,"velocity":0.3937007874015748},{"duration":0.17647050000005038,"midi":83,"time":343.411593,"velocity":0.3937007874015748},{"duration":0.17647049999999354,"midi":78,"time":343.58806350000003,"velocity":0.3937007874015748},{"duration":0.2647057499999619,"midi":82,"time":343.764534,"velocity":0.3937007874015748},{"duration":0.2647057500000187,"midi":82,"time":344.02923975,"velocity":0.3937007874015748},{"duration":0.17647049999999354,"midi":83,"time":344.2939455,"velocity":0.3937007874015748},{"duration":0.17647049999999354,"midi":78,"time":344.470416,"velocity":0.3937007874015748},{"duration":0.17647049999999354,"midi":85,"time":344.6468865,"velocity":0.3937007874015748},{"duration":0.17647049999999354,"midi":83,"time":344.823357,"velocity":0.3937007874015748},{"duration":0.17647050000005038,"midi":78,"time":344.9998275,"velocity":0.3937007874015748},{"duration":0.2647057499999619,"midi":82,"time":345.17629800000003,"velocity":0.3937007874015748},{"duration":0.2647057500000187,"midi":82,"time":345.44100375,"velocity":0.3937007874015748},{"duration":0.35294099999998707,"midi":83,"time":345.7057095,"velocity":0.3937007874015748},{"duration":0.17647049999999354,"midi":78,"time":346.0586505,"velocity":0.3937007874015748},{"duration":0.17647049999999354,"midi":83,"time":346.235121,"velocity":0.3937007874015748},{"duration":0.17647049999999354,"midi":87,"time":346.4115915,"velocity":0.3937007874015748},{"duration":0.2647057500000187,"midi":85,"time":346.588062,"velocity":0.3937007874015748},{"duration":0.2647057500000187,"midi":83,"time":346.85276775,"velocity":0.3937007874015748},{"duration":0.17647049999999354,"midi":85,"time":347.1174735,"velocity":0.3937007874015748},{"duration":0.17647049999999354,"midi":78,"time":347.293944,"velocity":0.3937007874015748},{"duration":0.17647049999999354,"midi":85,"time":347.4704145,"velocity":0.3937007874015748},{"duration":0.17647049999999354,"midi":83,"time":347.646885,"velocity":0.3937007874015748},{"duration":0.17647049999999354,"midi":78,"time":347.8233555,"velocity":0.3937007874015748},{"duration":0.2647057500000187,"midi":82,"time":347.999826,"velocity":0.3937007874015748},{"duration":0.2647057500000187,"midi":82,"time":348.26453175,"velocity":0.3937007874015748},{"duration":0.35294099999998707,"midi":83,"time":348.5292375,"velocity":0.3937007874015748},{"duration":0.17647049999999354,"midi":78,"time":348.8821785,"velocity":0.3937007874015748},{"duration":0.17647049999999354,"midi":83,"time":349.058649,"velocity":0.3937007874015748},{"duration":0.17647049999999354,"midi":78,"time":349.2351195,"velocity":0.3937007874015748},{"duration":0.2647057500000187,"midi":82,"time":349.41159,"velocity":0.3937007874015748},{"duration":0.2647057500000187,"midi":82,"time":349.67629575,"velocity":0.3937007874015748},{"duration":0.17647049999999354,"midi":83,"time":349.9410015,"velocity":0.3937007874015748},{"duration":0.17647049999999354,"midi":78,"time":350.117472,"velocity":0.3937007874015748},{"duration":0.17647049999999354,"midi":85,"time":350.2939425,"velocity":0.3937007874015748},{"duration":0.17647049999999354,"midi":83,"time":350.470413,"velocity":0.3937007874015748},{"duration":0.17647049999999354,"midi":78,"time":350.6468835,"velocity":0.3937007874015748},{"duration":0.2647057500000187,"midi":82,"time":350.823354,"velocity":0.3937007874015748},{"duration":0.2647057500000187,"midi":82,"time":351.08805975,"velocity":0.3937007874015748},{"duration":0.35294099999998707,"midi":83,"time":351.35276550000003,"velocity":0.3937007874015748},{"duration":0.17647049999999354,"midi":78,"time":351.7057065,"velocity":0.3937007874015748},{"duration":0.17647049999999354,"midi":83,"time":351.882177,"velocity":0.3937007874015748},{"duration":0.17647049999999354,"midi":87,"time":352.0586475,"velocity":0.3937007874015748},{"duration":0.2647057500000187,"midi":85,"time":352.235118,"velocity":0.3937007874015748},{"duration":0.2647057499999619,"midi":83,"time":352.49982375,"velocity":0.3937007874015748},{"duration":0.17647050000005038,"midi":85,"time":352.7645295,"velocity":0.3937007874015748},{"duration":0.17647049999999354,"midi":78,"time":352.94100000000003,"velocity":0.3937007874015748},{"duration":0.17647049999999354,"midi":85,"time":353.1174705,"velocity":0.3937007874015748},{"duration":0.17647049999999354,"midi":83,"time":353.293941,"velocity":0.3937007874015748},{"duration":0.17647049999999354,"midi":78,"time":353.4704115,"velocity":0.3937007874015748},{"duration":0.2647057500000187,"midi":82,"time":353.646882,"velocity":0.3937007874015748},{"duration":0.2647057499999619,"midi":82,"time":353.91158775,"velocity":0.3937007874015748},{"duration":0.3529410000000439,"midi":83,"time":354.1762935,"velocity":0.3937007874015748},{"duration":0.17647049999999354,"midi":78,"time":354.52923450000003,"velocity":0.3937007874015748},{"duration":0.17647049999999354,"midi":83,"time":354.705705,"velocity":0.3937007874015748},{"duration":0.17647049999999354,"midi":78,"time":354.8821755,"velocity":0.3937007874015748},{"duration":0.2647057500000187,"midi":82,"time":355.058646,"velocity":0.3937007874015748},{"duration":0.2647057499999619,"midi":82,"time":355.32335175000003,"velocity":0.3937007874015748},{"duration":0.17647049999999354,"midi":83,"time":355.5880575,"velocity":0.3937007874015748},{"duration":0.17647049999999354,"midi":78,"time":355.764528,"velocity":0.3937007874015748},{"duration":0.17647050000005038,"midi":85,"time":355.9409985,"velocity":0.3937007874015748},{"duration":0.17647049999999354,"midi":83,"time":356.117469,"velocity":0.3937007874015748},{"duration":0.17647049999999354,"midi":78,"time":356.2939395,"velocity":0.3937007874015748},{"duration":0.2647057499999619,"midi":82,"time":356.47041,"velocity":0.3937007874015748},{"duration":0.2647057500000187,"midi":82,"time":356.73511575,"velocity":0.3937007874015748},{"duration":0.35294099999998707,"midi":83,"time":356.9998215,"velocity":0.3937007874015748},{"duration":0.17647049999999354,"midi":78,"time":357.3527625,"velocity":0.3937007874015748},{"duration":0.17647050000005038,"midi":83,"time":357.529233,"velocity":0.3937007874015748},{"duration":0.17647049999999354,"midi":87,"time":357.7057035,"velocity":0.3937007874015748},{"duration":0.2647057499999619,"midi":85,"time":357.882174,"velocity":0.3937007874015748},{"duration":0.2647057500000187,"midi":83,"time":358.14687975,"velocity":0.3937007874015748},{"duration":0.17647049999999354,"midi":85,"time":358.4115855,"velocity":0.3937007874015748},{"duration":0.17647049999999354,"midi":78,"time":358.588056,"velocity":0.3937007874015748},{"duration":0.17647049999999354,"midi":85,"time":358.7645265,"velocity":0.3937007874015748},{"duration":0.17647050000005038,"midi":83,"time":358.940997,"velocity":0.3937007874015748},{"duration":0.17647049999999354,"midi":78,"time":359.11746750000003,"velocity":0.3937007874015748},{"duration":0.2647057499999619,"midi":82,"time":359.293938,"velocity":0.3937007874015748},{"duration":0.2647057500000187,"midi":82,"time":359.55864375,"velocity":0.3937007874015748},{"duration":0.35294099999998707,"midi":83,"time":359.8233495,"velocity":0.3937007874015748},{"duration":0.17647049999999354,"midi":78,"time":360.1762905,"velocity":0.3937007874015748},{"duration":0.17647049999999354,"midi":83,"time":360.352761,"velocity":0.3937007874015748},{"duration":0.17647050000005038,"midi":78,"time":360.5292315,"velocity":0.3937007874015748},{"duration":0.2647057499999619,"midi":82,"time":360.70570200000003,"velocity":0.3937007874015748},{"duration":0.2647057500000187,"midi":82,"time":360.97040775,"velocity":0.3937007874015748},{"duration":0.17647049999999354,"midi":83,"time":361.2351135,"velocity":0.3937007874015748},{"duration":0.17647049999999354,"midi":78,"time":361.411584,"velocity":0.3937007874015748},{"duration":0.17647049999999354,"midi":85,"time":361.5880545,"velocity":0.3937007874015748},{"duration":0.17647049999999354,"midi":83,"time":361.764525,"velocity":0.3937007874015748},{"duration":0.17647049999999354,"midi":78,"time":361.9409955,"velocity":0.3937007874015748},{"duration":0.2647057500000187,"midi":82,"time":362.117466,"velocity":0.3937007874015748},{"duration":0.2647057500000187,"midi":82,"time":362.38217175,"velocity":0.3937007874015748},{"duration":0.35294099999998707,"midi":83,"time":362.6468775,"velocity":0.3937007874015748},{"duration":0.17647049999999354,"midi":78,"time":362.9998185,"velocity":0.3937007874015748},{"duration":0.17647049999999354,"midi":83,"time":363.176289,"velocity":0.3937007874015748},{"duration":0.17647049999999354,"midi":87,"time":363.3527595,"velocity":0.3937007874015748},{"duration":0.2647057500000187,"midi":85,"time":363.52923,"velocity":0.3937007874015748},{"duration":0.2647057500000187,"midi":83,"time":363.79393575,"velocity":0.3937007874015748},{"duration":0.17647049999999354,"midi":85,"time":364.0586415,"velocity":0.3937007874015748},{"duration":0.17647049999999354,"midi":78,"time":364.235112,"velocity":0.3937007874015748},{"duration":0.17647049999999354,"midi":85,"time":364.4115825,"velocity":0.3937007874015748},{"duration":0.17647049999999354,"midi":83,"time":364.588053,"velocity":0.3937007874015748},{"duration":0.17647049999999354,"midi":78,"time":364.7645235,"velocity":0.3937007874015748},{"duration":0.2647057500000187,"midi":82,"time":364.940994,"velocity":0.3937007874015748},{"duration":0.2647057500000187,"midi":82,"time":365.20569975,"velocity":0.3937007874015748},{"duration":0.35294099999998707,"midi":83,"time":365.4704055,"velocity":0.3937007874015748},{"duration":0.17647049999999354,"midi":78,"time":365.8233465,"velocity":0.3937007874015748},{"duration":0.17647049999999354,"midi":83,"time":365.999817,"velocity":0.3937007874015748},{"duration":0.17647049999999354,"midi":78,"time":366.1762875,"velocity":0.3937007874015748},{"duration":0.2647057500000187,"midi":82,"time":366.352758,"velocity":0.3937007874015748},{"duration":0.2647057500000187,"midi":82,"time":366.61746375,"velocity":0.3937007874015748},{"duration":0.17647049999999354,"midi":83,"time":366.88216950000003,"velocity":0.3937007874015748},{"duration":0.17647049999999354,"midi":78,"time":367.05864,"velocity":0.3937007874015748},{"duration":0.17647049999999354,"midi":85,"time":367.2351105,"velocity":0.3937007874015748},{"duration":0.17647049999999354,"midi":83,"time":367.411581,"velocity":0.3937007874015748},{"duration":0.17647049999999354,"midi":78,"time":367.5880515,"velocity":0.3937007874015748},{"duration":0.2647057500000187,"midi":82,"time":367.764522,"velocity":0.3937007874015748},{"duration":0.2647057499999619,"midi":82,"time":368.02922775,"velocity":0.3937007874015748},{"duration":0.3529410000000439,"midi":83,"time":368.2939335,"velocity":0.3937007874015748},{"duration":0.17647049999999354,"midi":78,"time":368.6468745,"velocity":0.3937007874015748},{"duration":0.17647049999999354,"midi":83,"time":368.823345,"velocity":0.3937007874015748},{"duration":0.17647049999999354,"midi":87,"time":368.9998155,"velocity":0.3937007874015748},{"duration":0.2647057500000187,"midi":85,"time":369.176286,"velocity":0.3937007874015748},{"duration":0.2647057499999619,"midi":83,"time":369.44099175,"velocity":0.3937007874015748},{"duration":0.17647049999999354,"midi":85,"time":369.7056975,"velocity":0.3937007874015748}]},{"instrument":{"family":"bass","number":36,"name":"slap bass 1"},"notes":[{"duration":0.08823524999999677,"midi":35,"time":182.117556,"velocity":0.6535433070866141},{"duration":0.08823524999999677,"midi":47,"time":182.20579125,"velocity":0.6535433070866141},{"duration":0.08823524999999677,"midi":35,"time":182.2940265,"velocity":0.6535433070866141},{"duration":0.08823524999999677,"midi":47,"time":182.38226175,"velocity":0.6535433070866141},{"duration":0.17647050000002196,"midi":35,"time":182.470497,"velocity":0.6535433070866141},{"duration":0.17647049999999354,"midi":35,"time":182.73520275,"velocity":0.6535433070866141},{"duration":0.08823524999999677,"midi":35,"time":182.91167325,"velocity":0.6535433070866141},{"duration":0.08823524999999677,"midi":47,"time":182.9999085,"velocity":0.6535433070866141},{"duration":0.08823524999999677,"midi":35,"time":183.08814375,"velocity":0.6535433070866141},{"duration":0.3529410000000155,"midi":47,"time":183.176379,"velocity":0.6535433070866141},{"duration":0.08823524999999677,"midi":35,"time":183.52932,"velocity":0.6535433070866141},{"duration":0.08823524999999677,"midi":47,"time":183.61755525,"velocity":0.6535433070866141},{"duration":0.08823524999999677,"midi":35,"time":183.7057905,"velocity":0.6535433070866141},{"duration":0.08823524999999677,"midi":47,"time":183.79402575,"velocity":0.6535433070866141},{"duration":0.17647049999999354,"midi":35,"time":183.882261,"velocity":0.6535433070866141},{"duration":0.17647050000002196,"midi":35,"time":184.14696675,"velocity":0.6535433070866141},{"duration":0.08823524999999677,"midi":35,"time":184.32343725,"velocity":0.6535433070866141},{"duration":0.08823524999999677,"midi":47,"time":184.4116725,"velocity":0.6535433070866141},{"duration":0.08823524999999677,"midi":35,"time":184.49990775,"velocity":0.6535433070866141},{"duration":0.35294099999998707,"midi":47,"time":184.588143,"velocity":0.6535433070866141},{"duration":0.08823525000002519,"midi":35,"time":184.941084,"velocity":0.6535433070866141},{"duration":0.08823524999999677,"midi":47,"time":185.02931925000001,"velocity":0.6535433070866141},{"duration":0.08823524999999677,"midi":35,"time":185.1175545,"velocity":0.6535433070866141},{"duration":0.08823524999999677,"midi":47,"time":185.20578975,"velocity":0.6535433070866141},{"duration":0.17647049999999354,"midi":35,"time":185.294025,"velocity":0.6535433070866141},{"duration":0.17647049999999354,"midi":35,"time":185.55873075,"velocity":0.6535433070866141},{"duration":0.08823525000002519,"midi":35,"time":185.73520125,"velocity":0.6535433070866141},{"duration":0.08823524999999677,"midi":47,"time":185.8234365,"velocity":0.6535433070866141},{"duration":0.08823524999999677,"midi":35,"time":185.91167175,"velocity":0.6535433070866141},{"duration":0.35294099999998707,"midi":47,"time":185.999907,"velocity":0.6535433070866141},{"duration":0.08823524999999677,"midi":35,"time":186.352848,"velocity":0.6535433070866141},{"duration":0.08823525000002519,"midi":47,"time":186.44108325,"velocity":0.6535433070866141},{"duration":0.08823524999999677,"midi":35,"time":186.52931850000002,"velocity":0.6535433070866141},{"duration":0.08823524999999677,"midi":47,"time":186.61755375,"velocity":0.6535433070866141},{"duration":0.17647049999999354,"midi":35,"time":186.705789,"velocity":0.6535433070866141},{"duration":0.17647049999999354,"midi":35,"time":186.97049475,"velocity":0.6535433070866141},{"duration":0.08823524999999677,"midi":35,"time":187.14696525,"velocity":0.6535433070866141},{"duration":0.08823525000002519,"midi":47,"time":187.2352005,"velocity":0.6535433070866141},{"duration":0.08823524999999677,"midi":35,"time":187.32343575000002,"velocity":0.6535433070866141},{"duration":0.35294099999998707,"midi":47,"time":187.411671,"velocity":0.6535433070866141},{"duration":0.08823524999999677,"midi":36,"time":187.764612,"velocity":0.6535433070866141},{"duration":0.08823524999999677,"midi":48,"time":187.85284725,"velocity":0.6535433070866141},{"duration":0.08823524999999677,"midi":36,"time":187.9410825,"velocity":0.6535433070866141},{"duration":0.08823525000002519,"midi":48,"time":188.02931775,"velocity":0.6535433070866141},{"duration":0.17647049999999354,"midi":36,"time":188.11755300000002,"velocity":0.6535433070866141},{"duration":0.17647049999999354,"midi":36,"time":188.38225875,"velocity":0.6535433070866141},{"duration":0.08823524999999677,"midi":36,"time":188.55872925,"velocity":0.6535433070866141},{"duration":0.08823524999999677,"midi":48,"time":188.6469645,"velocity":0.6535433070866141},{"duration":0.08823524999999677,"midi":36,"time":188.73519975,"velocity":0.6535433070866141},{"duration":0.3529410000000155,"midi":48,"time":188.823435,"velocity":0.6535433070866141},{"duration":0.08823524999999677,"midi":36,"time":189.176376,"velocity":0.6535433070866141},{"duration":0.08823524999999677,"midi":48,"time":189.26461125,"velocity":0.6535433070866141},{"duration":0.08823524999999677,"midi":36,"time":189.3528465,"velocity":0.6535433070866141},{"duration":0.08823524999999677,"midi":48,"time":189.44108175,"velocity":0.6535433070866141},{"duration":0.17647050000002196,"midi":36,"time":189.529317,"velocity":0.6535433070866141},{"duration":0.17647049999999354,"midi":36,"time":189.79402275,"velocity":0.6535433070866141},{"duration":0.08823524999999677,"midi":36,"time":189.97049325,"velocity":0.6535433070866141},{"duration":0.08823524999999677,"midi":48,"time":190.0587285,"velocity":0.6535433070866141},{"duration":0.08823524999999677,"midi":36,"time":190.14696375,"velocity":0.6535433070866141},{"duration":0.3529410000000155,"midi":48,"time":190.235199,"velocity":0.6535433070866141},{"duration":0.08823524999999677,"midi":36,"time":190.58814,"velocity":0.6535433070866141},{"duration":0.08823524999999677,"midi":48,"time":190.67637525,"velocity":0.6535433070866141},{"duration":0.08823524999999677,"midi":36,"time":190.7646105,"velocity":0.6535433070866141},{"duration":0.08823524999999677,"midi":48,"time":190.85284575,"velocity":0.6535433070866141},{"duration":0.17647049999999354,"midi":36,"time":190.941081,"velocity":0.6535433070866141},{"duration":0.17647049999999354,"midi":36,"time":191.20578675000002,"velocity":0.6535433070866141},{"duration":0.08823524999999677,"midi":36,"time":191.38225725,"velocity":0.6535433070866141},{"duration":0.08823524999999677,"midi":48,"time":191.4704925,"velocity":0.6535433070866141},{"duration":0.08823524999999677,"midi":36,"time":191.55872775,"velocity":0.6535433070866141},{"duration":0.3529410000000155,"midi":48,"time":191.646963,"velocity":0.6535433070866141},{"duration":0.08823524999999677,"midi":36,"time":191.99990400000002,"velocity":0.6535433070866141},{"duration":0.08823524999999677,"midi":48,"time":192.08813925,"velocity":0.6535433070866141},{"duration":0.08823524999999677,"midi":36,"time":192.1763745,"velocity":0.6535433070866141},{"duration":0.08823524999999677,"midi":48,"time":192.26460975,"velocity":0.6535433070866141},{"duration":0.17647049999999354,"midi":36,"time":192.352845,"velocity":0.6535433070866141},{"duration":0.17647050000002196,"midi":36,"time":192.61755075,"velocity":0.6535433070866141},{"duration":0.08823524999999677,"midi":36,"time":192.79402125000001,"velocity":0.6535433070866141},{"duration":0.08823524999999677,"midi":48,"time":192.8822565,"velocity":0.6535433070866141},{"duration":0.08823524999999677,"midi":36,"time":192.97049175,"velocity":0.6535433070866141},{"duration":0.35294099999998707,"midi":48,"time":193.058727,"velocity":0.6535433070866141},{"duration":0.08823524999999677,"midi":35,"time":193.411668,"velocity":0.6535433070866141},{"duration":0.08823525000002519,"midi":47,"time":193.49990325,"velocity":0.6535433070866141},{"duration":0.08823524999999677,"midi":35,"time":193.5881385,"velocity":0.6535433070866141},{"duration":0.08823524999999677,"midi":47,"time":193.67637375,"velocity":0.6535433070866141},{"duration":0.17647049999999354,"midi":35,"time":193.764609,"velocity":0.6535433070866141},{"duration":0.17647049999999354,"midi":35,"time":194.02931475,"velocity":0.6535433070866141},{"duration":0.08823525000002519,"midi":35,"time":194.20578525,"velocity":0.6535433070866141},{"duration":0.08823524999999677,"midi":47,"time":194.29402050000002,"velocity":0.6535433070866141},{"duration":0.08823524999999677,"midi":35,"time":194.38225575,"velocity":0.6535433070866141},{"duration":0.35294099999998707,"midi":47,"time":194.470491,"velocity":0.6535433070866141},{"duration":0.08823524999999677,"midi":35,"time":194.823432,"velocity":0.6535433070866141},{"duration":0.08823524999999677,"midi":47,"time":194.91166725,"velocity":0.6535433070866141},{"duration":0.08823525000002519,"midi":35,"time":194.9999025,"velocity":0.6535433070866141},{"duration":0.08823524999999677,"midi":47,"time":195.08813775000002,"velocity":0.6535433070866141},{"duration":0.17647049999999354,"midi":35,"time":195.176373,"velocity":0.6535433070866141},{"duration":0.17647049999999354,"midi":35,"time":195.44107875,"velocity":0.6535433070866141},{"duration":0.08823524999999677,"midi":35,"time":195.61754925,"velocity":0.6535433070866141},{"duration":0.08823524999999677,"midi":47,"time":195.7057845,"velocity":0.6535433070866141},{"duration":0.08823525000002519,"midi":35,"time":195.79401975,"velocity":0.6535433070866141},{"duration":0.35294099999998707,"midi":47,"time":195.88225500000001,"velocity":0.6535433070866141},{"duration":0.08823524999999677,"midi":35,"time":196.235196,"velocity":0.6535433070866141},{"duration":0.08823524999999677,"midi":47,"time":196.32343125,"velocity":0.6535433070866141},{"duration":0.08823524999999677,"midi":35,"time":196.4116665,"velocity":0.6535433070866141},{"duration":0.08823524999999677,"midi":47,"time":196.49990175,"velocity":0.6535433070866141},{"duration":0.17647050000002196,"midi":35,"time":196.588137,"velocity":0.6535433070866141},{"duration":0.17647049999999354,"midi":35,"time":196.85284275,"velocity":0.6535433070866141},{"duration":0.08823524999999677,"midi":35,"time":197.02931325,"velocity":0.6535433070866141},{"duration":0.08823524999999677,"midi":47,"time":197.1175485,"velocity":0.6535433070866141},{"duration":0.08823524999999677,"midi":35,"time":197.20578375,"velocity":0.6535433070866141},{"duration":0.3529410000000155,"midi":47,"time":197.294019,"velocity":0.6535433070866141},{"duration":0.08823524999999677,"midi":35,"time":197.64696,"velocity":0.6535433070866141},{"duration":0.08823524999999677,"midi":47,"time":197.73519525,"velocity":0.6535433070866141},{"duration":0.08823524999999677,"midi":35,"time":197.8234305,"velocity":0.6535433070866141},{"duration":0.08823524999999677,"midi":47,"time":197.91166575,"velocity":0.6535433070866141},{"duration":0.17647050000002196,"midi":35,"time":197.999901,"velocity":0.6535433070866141},{"duration":0.17647049999999354,"midi":35,"time":198.26460675,"velocity":0.6535433070866141},{"duration":0.08823524999999677,"midi":35,"time":198.44107725,"velocity":0.6535433070866141},{"duration":0.08823524999999677,"midi":47,"time":198.5293125,"velocity":0.6535433070866141},{"duration":0.08823524999999677,"midi":35,"time":198.61754775,"velocity":0.6535433070866141},{"duration":0.3529410000000155,"midi":47,"time":198.705783,"velocity":0.6535433070866141},{"duration":0.08823524999999677,"midi":36,"time":199.058724,"velocity":0.6535433070866141},{"duration":0.08823524999999677,"midi":48,"time":199.14695925,"velocity":0.6535433070866141},{"duration":0.08823524999999677,"midi":36,"time":199.2351945,"velocity":0.6535433070866141},{"duration":0.08823524999999677,"midi":48,"time":199.32342975,"velocity":0.6535433070866141},{"duration":0.17647049999999354,"midi":36,"time":199.411665,"velocity":0.6535433070866141},{"duration":0.17647050000002196,"midi":36,"time":199.67637075,"velocity":0.6535433070866141},{"duration":0.08823524999999677,"midi":36,"time":199.85284125,"velocity":0.6535433070866141},{"duration":0.08823524999999677,"midi":48,"time":199.9410765,"velocity":0.6535433070866141},{"duration":0.08823524999999677,"midi":36,"time":200.02931175,"velocity":0.6535433070866141},{"duration":0.35294099999998707,"midi":48,"time":200.117547,"velocity":0.6535433070866141},{"duration":0.08823525000002519,"midi":36,"time":200.470488,"velocity":0.6535433070866141},{"duration":0.08823524999999677,"midi":48,"time":200.55872325,"velocity":0.6535433070866141},{"duration":0.08823524999999677,"midi":36,"time":200.6469585,"velocity":0.6535433070866141},{"duration":0.08823524999999677,"midi":48,"time":200.73519375,"velocity":0.6535433070866141},{"duration":0.17647049999999354,"midi":36,"time":200.823429,"velocity":0.6535433070866141},{"duration":0.17647050000002196,"midi":36,"time":201.08813475,"velocity":0.6535433070866141},{"duration":0.08823524999999677,"midi":36,"time":201.26460525000002,"velocity":0.6535433070866141},{"duration":0.08823524999999677,"midi":48,"time":201.3528405,"velocity":0.6535433070866141},{"duration":0.08823524999999677,"midi":36,"time":201.44107575,"velocity":0.6535433070866141},{"duration":0.35294099999998707,"midi":48,"time":201.529311,"velocity":0.6535433070866141},{"duration":0.08823524999999677,"midi":36,"time":201.882252,"velocity":0.6535433070866141},{"duration":0.08823525000002519,"midi":48,"time":201.97048725,"velocity":0.6535433070866141},{"duration":0.08823524999999677,"midi":36,"time":202.05872250000002,"velocity":0.6535433070866141},{"duration":0.08823524999999677,"midi":48,"time":202.14695775,"velocity":0.6535433070866141},{"duration":0.17647049999999354,"midi":36,"time":202.235193,"velocity":0.6535433070866141},{"duration":0.17647049999999354,"midi":36,"time":202.49989875,"velocity":0.6535433070866141},{"duration":0.08823524999999677,"midi":36,"time":202.67636925,"velocity":0.6535433070866141},{"duration":0.08823525000002519,"midi":48,"time":202.7646045,"velocity":0.6535433070866141},{"duration":0.08823524999999677,"midi":36,"time":202.85283975000002,"velocity":0.6535433070866141},{"duration":0.35294099999998707,"midi":48,"time":202.941075,"velocity":0.6535433070866141},{"duration":0.08823524999999677,"midi":36,"time":203.294016,"velocity":0.6535433070866141},{"duration":0.08823524999999677,"midi":48,"time":203.38225125,"velocity":0.6535433070866141},{"duration":0.08823524999999677,"midi":36,"time":203.4704865,"velocity":0.6535433070866141},{"duration":0.08823525000002519,"midi":48,"time":203.55872175,"velocity":0.6535433070866141},{"duration":0.17647049999999354,"midi":36,"time":203.64695700000001,"velocity":0.6535433070866141},{"duration":0.17647049999999354,"midi":36,"time":203.91166275,"velocity":0.6535433070866141},{"duration":0.08823524999999677,"midi":36,"time":204.08813325,"velocity":0.6535433070866141},{"duration":0.08823524999999677,"midi":48,"time":204.1763685,"velocity":0.6535433070866141},{"duration":0.08823524999999677,"midi":36,"time":204.26460375,"velocity":0.6535433070866141},{"duration":0.3529410000000155,"midi":48,"time":204.352839,"velocity":0.6535433070866141},{"duration":0.17647049999999354,"midi":53,"time":319.058664,"velocity":0.6535433070866141},{"duration":0.08823524999996835,"midi":53,"time":319.2351345,"velocity":0.6535433070866141},{"duration":0.08823525000002519,"midi":53,"time":319.32336975,"velocity":0.6535433070866141},{"duration":0.17647049999999354,"midi":53,"time":319.411605,"velocity":0.6535433070866141},{"duration":0.08823525000002519,"midi":53,"time":319.5880755,"velocity":0.6535433070866141},{"duration":0.08823524999996835,"midi":53,"time":319.67631075,"velocity":0.6535433070866141},{"duration":0.17647049999999354,"midi":53,"time":319.764546,"velocity":0.6535433070866141},{"duration":0.08823525000002519,"midi":53,"time":319.9410165,"velocity":0.6535433070866141},{"duration":0.08823524999996835,"midi":53,"time":320.02925175,"velocity":0.6535433070866141},{"duration":0.17647049999999354,"midi":53,"time":320.117487,"velocity":0.6535433070866141},{"duration":0.08823525000002519,"midi":53,"time":320.2939575,"velocity":0.6535433070866141},{"duration":0.08823525000002519,"midi":53,"time":320.38219275,"velocity":0.6535433070866141},{"duration":0.17647049999999354,"midi":54,"time":320.470428,"velocity":0.6535433070866141},{"duration":0.08823524999996835,"midi":54,"time":320.6468985,"velocity":0.6535433070866141},{"duration":0.08823525000002519,"midi":54,"time":320.73513375,"velocity":0.6535433070866141},{"duration":0.17647049999999354,"midi":54,"time":320.823369,"velocity":0.6535433070866141},{"duration":0.08823525000002519,"midi":54,"time":320.9998395,"velocity":0.6535433070866141},{"duration":0.08823524999996835,"midi":54,"time":321.08807475000003,"velocity":0.6535433070866141},{"duration":0.17647049999999354,"midi":54,"time":321.17631,"velocity":0.6535433070866141},{"duration":0.08823525000002519,"midi":54,"time":321.3527805,"velocity":0.6535433070866141},{"duration":0.08823524999996835,"midi":54,"time":321.44101575,"velocity":0.6535433070866141},{"duration":0.17647049999999354,"midi":54,"time":321.529251,"velocity":0.6535433070866141},{"duration":0.08823525000002519,"midi":54,"time":321.7057215,"velocity":0.6535433070866141},{"duration":0.08823525000002519,"midi":54,"time":321.79395675,"velocity":0.6535433070866141},{"duration":0.17647049999999354,"midi":56,"time":321.88219200000003,"velocity":0.6535433070866141},{"duration":0.08823524999996835,"midi":56,"time":322.0586625,"velocity":0.6535433070866141},{"duration":0.08823525000002519,"midi":56,"time":322.14689775,"velocity":0.6535433070866141},{"duration":0.17647049999999354,"midi":56,"time":322.235133,"velocity":0.6535433070866141},{"duration":0.08823524999996835,"midi":56,"time":322.4116035,"velocity":0.6535433070866141},{"duration":0.08823525000002519,"midi":56,"time":322.49983875,"velocity":0.6535433070866141},{"duration":0.17647049999999354,"midi":56,"time":322.588074,"velocity":0.6535433070866141},{"duration":0.08823525000002519,"midi":56,"time":322.7645445,"velocity":0.6535433070866141},{"duration":0.08823524999996835,"midi":56,"time":322.85277975,"velocity":0.6535433070866141},{"duration":0.17647049999999354,"midi":56,"time":322.941015,"velocity":0.6535433070866141},{"duration":0.08823525000002519,"midi":56,"time":323.1174855,"velocity":0.6535433070866141},{"duration":0.08823524999996835,"midi":56,"time":323.20572075,"velocity":0.6535433070866141},{"duration":0.17647050000005038,"midi":58,"time":323.293956,"velocity":0.6535433070866141},{"duration":0.08823524999996835,"midi":58,"time":323.47042650000003,"velocity":0.6535433070866141},{"duration":0.08823525000002519,"midi":58,"time":323.55866175,"velocity":0.6535433070866141},{"duration":0.17647049999999354,"midi":58,"time":323.646897,"velocity":0.6535433070866141},{"duration":0.08823524999996835,"midi":58,"time":323.8233675,"velocity":0.6535433070866141},{"duration":0.08823525000002519,"midi":58,"time":323.91160275,"velocity":0.6535433070866141},{"duration":0.17647049999999354,"midi":58,"time":323.999838,"velocity":0.6535433070866141},{"duration":0.08823525000002519,"midi":58,"time":324.1763085,"velocity":0.6535433070866141},{"duration":0.08823524999996835,"midi":58,"time":324.26454375000003,"velocity":0.6535433070866141},{"duration":0.17647049999999354,"midi":58,"time":324.352779,"velocity":0.6535433070866141},{"duration":0.08823525000002519,"midi":58,"time":324.5292495,"velocity":0.6535433070866141},{"duration":0.08823524999996835,"midi":58,"time":324.61748475,"velocity":0.6535433070866141},{"duration":0.17647049999999354,"midi":53,"time":324.70572,"velocity":0.6535433070866141},{"duration":0.08823525000002519,"midi":53,"time":324.8821905,"velocity":0.6535433070866141},{"duration":0.08823525000002519,"midi":53,"time":324.97042575,"velocity":0.6535433070866141},{"duration":0.17647049999999354,"midi":53,"time":325.05866100000003,"velocity":0.6535433070866141},{"duration":0.08823524999996835,"midi":53,"time":325.2351315,"velocity":0.6535433070866141},{"duration":0.08823525000002519,"midi":53,"time":325.32336675,"velocity":0.6535433070866141},{"duration":0.17647049999999354,"midi":53,"time":325.411602,"velocity":0.6535433070866141},{"duration":0.08823524999996835,"midi":53,"time":325.5880725,"velocity":0.6535433070866141},{"duration":0.08823525000002519,"midi":53,"time":325.67630775,"velocity":0.6535433070866141},{"duration":0.17647049999999354,"midi":53,"time":325.764543,"velocity":0.6535433070866141},{"duration":0.08823525000002519,"midi":53,"time":325.9410135,"velocity":0.6535433070866141},{"duration":0.08823524999996835,"midi":53,"time":326.02924875,"velocity":0.6535433070866141},{"duration":0.17647049999999354,"midi":54,"time":326.117484,"velocity":0.6535433070866141},{"duration":0.08823525000002519,"midi":54,"time":326.2939545,"velocity":0.6535433070866141},{"duration":0.08823524999996835,"midi":54,"time":326.38218975,"velocity":0.6535433070866141},{"duration":0.17647050000005038,"midi":54,"time":326.470425,"velocity":0.6535433070866141},{"duration":0.08823524999996835,"midi":54,"time":326.6468955,"velocity":0.6535433070866141},{"duration":0.08823525000002519,"midi":54,"time":326.73513075,"velocity":0.6535433070866141},{"duration":0.17647049999999354,"midi":54,"time":326.823366,"velocity":0.6535433070866141},{"duration":0.08823524999996835,"midi":54,"time":326.9998365,"velocity":0.6535433070866141},{"duration":0.08823525000002519,"midi":54,"time":327.08807175,"velocity":0.6535433070866141},{"duration":0.17647049999999354,"midi":54,"time":327.176307,"velocity":0.6535433070866141},{"duration":0.08823525000002519,"midi":54,"time":327.3527775,"velocity":0.6535433070866141},{"duration":0.08823524999996835,"midi":54,"time":327.44101275,"velocity":0.6535433070866141},{"duration":0.17647049999999354,"midi":56,"time":327.529248,"velocity":0.6535433070866141},{"duration":0.08823525000002519,"midi":56,"time":327.7057185,"velocity":0.6535433070866141},{"duration":0.08823524999996835,"midi":56,"time":327.79395375,"velocity":0.6535433070866141},{"duration":0.17647049999999354,"midi":56,"time":327.882189,"velocity":0.6535433070866141},{"duration":0.08823525000002519,"midi":56,"time":328.0586595,"velocity":0.6535433070866141},{"duration":0.08823525000002519,"midi":56,"time":328.14689475,"velocity":0.6535433070866141},{"duration":0.17647049999999354,"midi":56,"time":328.23513,"velocity":0.6535433070866141},{"duration":0.08823524999996835,"midi":56,"time":328.4116005,"velocity":0.6535433070866141},{"duration":0.08823525000002519,"midi":56,"time":328.49983575,"velocity":0.6535433070866141},{"duration":0.17647049999999354,"midi":56,"time":328.588071,"velocity":0.6535433070866141},{"duration":0.08823525000002519,"midi":56,"time":328.7645415,"velocity":0.6535433070866141},{"duration":0.08823524999996835,"midi":56,"time":328.85277675000003,"velocity":0.6535433070866141},{"duration":0.17647049999999354,"midi":58,"time":328.941012,"velocity":0.6535433070866141},{"duration":0.08823525000002519,"midi":58,"time":329.1174825,"velocity":0.6535433070866141},{"duration":0.08823524999996835,"midi":58,"time":329.20571775,"velocity":0.6535433070866141},{"duration":0.17647049999999354,"midi":58,"time":329.293953,"velocity":0.6535433070866141},{"duration":0.08823525000002519,"midi":58,"time":329.4704235,"velocity":0.6535433070866141},{"duration":0.08823525000002519,"midi":58,"time":329.55865875,"velocity":0.6535433070866141},{"duration":0.17647049999999354,"midi":58,"time":329.64689400000003,"velocity":0.6535433070866141},{"duration":0.08823524999996835,"midi":58,"time":329.8233645,"velocity":0.6535433070866141},{"duration":0.08823525000002519,"midi":58,"time":329.91159975,"velocity":0.6535433070866141},{"duration":0.17647049999999354,"midi":58,"time":329.999835,"velocity":0.6535433070866141},{"duration":0.08823524999996835,"midi":58,"time":330.1763055,"velocity":0.6535433070866141},{"duration":0.08823525000002519,"midi":58,"time":330.26454075,"velocity":0.6535433070866141},{"duration":0.17647049999999354,"midi":53,"time":330.352776,"velocity":0.6535433070866141},{"duration":0.08823525000002519,"midi":53,"time":330.5292465,"velocity":0.6535433070866141},{"duration":0.08823524999996835,"midi":53,"time":330.61748175,"velocity":0.6535433070866141},{"duration":0.17647049999999354,"midi":53,"time":330.705717,"velocity":0.6535433070866141},{"duration":0.08823525000002519,"midi":53,"time":330.8821875,"velocity":0.6535433070866141},{"duration":0.08823524999996835,"midi":53,"time":330.97042275,"velocity":0.6535433070866141},{"duration":0.17647050000005038,"midi":53,"time":331.058658,"velocity":0.6535433070866141},{"duration":0.08823524999996835,"midi":53,"time":331.23512850000003,"velocity":0.6535433070866141},{"duration":0.08823525000002519,"midi":53,"time":331.32336375,"velocity":0.6535433070866141},{"duration":0.17647049999999354,"midi":53,"time":331.411599,"velocity":0.6535433070866141},{"duration":0.08823524999996835,"midi":53,"time":331.5880695,"velocity":0.6535433070866141},{"duration":0.08823525000002519,"midi":53,"time":331.67630475,"velocity":0.6535433070866141},{"duration":0.17647049999999354,"midi":54,"time":331.76454,"velocity":0.6535433070866141},{"duration":0.08823525000002519,"midi":54,"time":331.9410105,"velocity":0.6535433070866141},{"duration":0.08823524999996835,"midi":54,"time":332.02924575000003,"velocity":0.6535433070866141},{"duration":0.17647049999999354,"midi":54,"time":332.117481,"velocity":0.6535433070866141},{"duration":0.08823525000002519,"midi":54,"time":332.2939515,"velocity":0.6535433070866141},{"duration":0.08823524999996835,"midi":54,"time":332.38218675,"velocity":0.6535433070866141},{"duration":0.17647049999999354,"midi":54,"time":332.470422,"velocity":0.6535433070866141},{"duration":0.08823525000002519,"midi":54,"time":332.6468925,"velocity":0.6535433070866141},{"duration":0.08823525000002519,"midi":54,"time":332.73512775,"velocity":0.6535433070866141},{"duration":0.17647049999999354,"midi":54,"time":332.82336300000003,"velocity":0.6535433070866141},{"duration":0.08823524999996835,"midi":54,"time":332.9998335,"velocity":0.6535433070866141},{"duration":0.08823525000002519,"midi":54,"time":333.08806875,"velocity":0.6535433070866141},{"duration":0.17647049999999354,"midi":56,"time":333.176304,"velocity":0.6535433070866141},{"duration":0.08823524999996835,"midi":56,"time":333.3527745,"velocity":0.6535433070866141},{"duration":0.08823525000002519,"midi":56,"time":333.44100975,"velocity":0.6535433070866141},{"duration":0.17647049999999354,"midi":56,"time":333.529245,"velocity":0.6535433070866141},{"duration":0.08823525000002519,"midi":56,"time":333.7057155,"velocity":0.6535433070866141},{"duration":0.08823524999996835,"midi":56,"time":333.79395075,"velocity":0.6535433070866141},{"duration":0.17647049999999354,"midi":56,"time":333.882186,"velocity":0.6535433070866141},{"duration":0.08823525000002519,"midi":56,"time":334.0586565,"velocity":0.6535433070866141},{"duration":0.08823524999996835,"midi":56,"time":334.14689175,"velocity":0.6535433070866141},{"duration":0.17647050000005038,"midi":56,"time":334.235127,"velocity":0.6535433070866141},{"duration":0.08823524999996835,"midi":56,"time":334.4115975,"velocity":0.6535433070866141},{"duration":0.08823525000002519,"midi":56,"time":334.49983275,"velocity":0.6535433070866141},{"duration":0.17647049999999354,"midi":58,"time":334.588068,"velocity":0.6535433070866141},{"duration":0.08823524999996835,"midi":58,"time":334.7645385,"velocity":0.6535433070866141},{"duration":0.08823525000002519,"midi":58,"time":334.85277375,"velocity":0.6535433070866141},{"duration":0.17647049999999354,"midi":58,"time":334.941009,"velocity":0.6535433070866141},{"duration":0.08823525000002519,"midi":58,"time":335.1174795,"velocity":0.6535433070866141},{"duration":0.08823524999996835,"midi":58,"time":335.20571475,"velocity":0.6535433070866141},{"duration":0.17647049999999354,"midi":58,"time":335.29395,"velocity":0.6535433070866141},{"duration":0.08823525000002519,"midi":58,"time":335.4704205,"velocity":0.6535433070866141},{"duration":0.08823524999996835,"midi":58,"time":335.55865575,"velocity":0.6535433070866141},{"duration":0.17647050000005038,"midi":58,"time":335.646891,"velocity":0.6535433070866141},{"duration":0.08823524999996835,"midi":58,"time":335.82336150000003,"velocity":0.6535433070866141},{"duration":0.08823525000002519,"midi":58,"time":335.91159675,"velocity":0.6535433070866141},{"duration":0.17647049999999354,"midi":53,"time":335.999832,"velocity":0.6535433070866141},{"duration":0.08823524999996835,"midi":53,"time":336.1763025,"velocity":0.6535433070866141},{"duration":0.08823525000002519,"midi":53,"time":336.26453775,"velocity":0.6535433070866141},{"duration":0.17647049999999354,"midi":53,"time":336.352773,"velocity":0.6535433070866141},{"duration":0.08823525000002519,"midi":53,"time":336.5292435,"velocity":0.6535433070866141},{"duration":0.08823524999996835,"midi":53,"time":336.61747875000003,"velocity":0.6535433070866141},{"duration":0.17647049999999354,"midi":53,"time":336.705714,"velocity":0.6535433070866141},{"duration":0.08823525000002519,"midi":53,"time":336.8821845,"velocity":0.6535433070866141},{"duration":0.08823524999996835,"midi":53,"time":336.97041975,"velocity":0.6535433070866141},{"duration":0.17647049999999354,"midi":53,"time":337.058655,"velocity":0.6535433070866141},{"duration":0.08823525000002519,"midi":53,"time":337.2351255,"velocity":0.6535433070866141},{"duration":0.08823525000002519,"midi":53,"time":337.32336075,"velocity":0.6535433070866141},{"duration":0.17647049999999354,"midi":54,"time":337.41159600000003,"velocity":0.6535433070866141},{"duration":0.08823524999996835,"midi":54,"time":337.5880665,"velocity":0.6535433070866141},{"duration":0.08823525000002519,"midi":54,"time":337.67630175,"velocity":0.6535433070866141},{"duration":0.17647049999999354,"midi":54,"time":337.764537,"velocity":0.6535433070866141},{"duration":0.08823524999996835,"midi":54,"time":337.9410075,"velocity":0.6535433070866141},{"duration":0.08823525000002519,"midi":54,"time":338.02924275,"velocity":0.6535433070866141},{"duration":0.17647049999999354,"midi":54,"time":338.117478,"velocity":0.6535433070866141},{"duration":0.08823525000002519,"midi":54,"time":338.2939485,"velocity":0.6535433070866141},{"duration":0.08823524999996835,"midi":54,"time":338.38218375,"velocity":0.6535433070866141},{"duration":0.17647049999999354,"midi":54,"time":338.470419,"velocity":0.6535433070866141},{"duration":0.08823525000002519,"midi":54,"time":338.6468895,"velocity":0.6535433070866141},{"duration":0.08823524999996835,"midi":54,"time":338.73512475,"velocity":0.6535433070866141},{"duration":0.17647050000005038,"midi":56,"time":338.82336,"velocity":0.6535433070866141},{"duration":0.08823524999996835,"midi":56,"time":338.99983050000003,"velocity":0.6535433070866141},{"duration":0.08823525000002519,"midi":56,"time":339.08806575,"velocity":0.6535433070866141},{"duration":0.17647049999999354,"midi":56,"time":339.176301,"velocity":0.6535433070866141},{"duration":0.08823524999996835,"midi":56,"time":339.3527715,"velocity":0.6535433070866141},{"duration":0.08823525000002519,"midi":56,"time":339.44100675,"velocity":0.6535433070866141},{"duration":0.17647049999999354,"midi":56,"time":339.529242,"velocity":0.6535433070866141},{"duration":0.08823525000002519,"midi":56,"time":339.7057125,"velocity":0.6535433070866141},{"duration":0.08823524999996835,"midi":56,"time":339.79394775000003,"velocity":0.6535433070866141},{"duration":0.17647049999999354,"midi":56,"time":339.882183,"velocity":0.6535433070866141},{"duration":0.08823525000002519,"midi":56,"time":340.0586535,"velocity":0.6535433070866141},{"duration":0.08823524999996835,"midi":56,"time":340.14688875,"velocity":0.6535433070866141},{"duration":0.17647049999999354,"midi":58,"time":340.235124,"velocity":0.6535433070866141},{"duration":0.08823525000002519,"midi":58,"time":340.4115945,"velocity":0.6535433070866141},{"duration":0.08823525000002519,"midi":58,"time":340.49982975,"velocity":0.6535433070866141},{"duration":0.17647049999999354,"midi":58,"time":340.58806500000003,"velocity":0.6535433070866141},{"duration":0.08823524999996835,"midi":58,"time":340.7645355,"velocity":0.6535433070866141},{"duration":0.08823525000002519,"midi":58,"time":340.85277075,"velocity":0.6535433070866141},{"duration":0.17647049999999354,"midi":58,"time":340.941006,"velocity":0.6535433070866141},{"duration":0.08823524999996835,"midi":58,"time":341.1174765,"velocity":0.6535433070866141},{"duration":0.08823525000002519,"midi":58,"time":341.20571175,"velocity":0.6535433070866141},{"duration":0.17647049999999354,"midi":58,"time":341.293947,"velocity":0.6535433070866141},{"duration":0.08823525000002519,"midi":58,"time":341.4704175,"velocity":0.6535433070866141},{"duration":0.08823524999996835,"midi":58,"time":341.55865275,"velocity":0.6535433070866141},{"duration":0.17647049999999354,"midi":53,"time":341.646888,"velocity":0.6535433070866141},{"duration":0.08823525000002519,"midi":53,"time":341.8233585,"velocity":0.6535433070866141},{"duration":0.08823524999996835,"midi":53,"time":341.91159375,"velocity":0.6535433070866141},{"duration":0.17647050000005038,"midi":53,"time":341.999829,"velocity":0.6535433070866141},{"duration":0.08823524999996835,"midi":53,"time":342.1762995,"velocity":0.6535433070866141},{"duration":0.08823525000002519,"midi":53,"time":342.26453475,"velocity":0.6535433070866141},{"duration":0.17647049999999354,"midi":53,"time":342.35277,"velocity":0.6535433070866141},{"duration":0.08823524999996835,"midi":53,"time":342.5292405,"velocity":0.6535433070866141},{"duration":0.08823525000002519,"midi":53,"time":342.61747575,"velocity":0.6535433070866141},{"duration":0.17647049999999354,"midi":53,"time":342.705711,"velocity":0.6535433070866141},{"duration":0.08823525000002519,"midi":53,"time":342.8821815,"velocity":0.6535433070866141},{"duration":0.08823524999996835,"midi":53,"time":342.97041675,"velocity":0.6535433070866141},{"duration":0.17647049999999354,"midi":54,"time":343.058652,"velocity":0.6535433070866141},{"duration":0.08823525000002519,"midi":54,"time":343.2351225,"velocity":0.6535433070866141},{"duration":0.08823524999996835,"midi":54,"time":343.32335775,"velocity":0.6535433070866141},{"duration":0.17647050000005038,"midi":54,"time":343.411593,"velocity":0.6535433070866141},{"duration":0.08823524999996835,"midi":54,"time":343.58806350000003,"velocity":0.6535433070866141},{"duration":0.08823525000002519,"midi":54,"time":343.67629875,"velocity":0.6535433070866141},{"duration":0.17647049999999354,"midi":54,"time":343.764534,"velocity":0.6535433070866141},{"duration":0.08823524999996835,"midi":54,"time":343.9410045,"velocity":0.6535433070866141},{"duration":0.08823525000002519,"midi":54,"time":344.02923975,"velocity":0.6535433070866141},{"duration":0.17647049999999354,"midi":54,"time":344.117475,"velocity":0.6535433070866141},{"duration":0.08823525000002519,"midi":54,"time":344.2939455,"velocity":0.6535433070866141},{"duration":0.08823524999996835,"midi":54,"time":344.38218075000003,"velocity":0.6535433070866141},{"duration":0.17647049999999354,"midi":56,"time":344.470416,"velocity":0.6535433070866141},{"duration":0.08823525000002519,"midi":56,"time":344.6468865,"velocity":0.6535433070866141},{"duration":0.08823524999996835,"midi":56,"time":344.73512175,"velocity":0.6535433070866141},{"duration":0.17647049999999354,"midi":56,"time":344.823357,"velocity":0.6535433070866141},{"duration":0.08823525000002519,"midi":56,"time":344.9998275,"velocity":0.6535433070866141},{"duration":0.08823525000002519,"midi":56,"time":345.08806275,"velocity":0.6535433070866141},{"duration":0.17647049999999354,"midi":56,"time":345.17629800000003,"velocity":0.6535433070866141},{"duration":0.08823524999996835,"midi":56,"time":345.3527685,"velocity":0.6535433070866141},{"duration":0.08823525000002519,"midi":56,"time":345.44100375,"velocity":0.6535433070866141},{"duration":0.17647049999999354,"midi":56,"time":345.529239,"velocity":0.6535433070866141},{"duration":0.08823524999996835,"midi":56,"time":345.7057095,"velocity":0.6535433070866141},{"duration":0.08823525000002519,"midi":56,"time":345.79394475,"velocity":0.6535433070866141},{"duration":0.17647049999999354,"midi":58,"time":345.88218,"velocity":0.6535433070866141},{"duration":0.08823525000002519,"midi":58,"time":346.0586505,"velocity":0.6535433070866141},{"duration":0.08823524999996835,"midi":58,"time":346.14688575,"velocity":0.6535433070866141},{"duration":0.17647049999999354,"midi":58,"time":346.235121,"velocity":0.6535433070866141},{"duration":0.08823525000002519,"midi":58,"time":346.4115915,"velocity":0.6535433070866141},{"duration":0.08823524999996835,"midi":58,"time":346.49982675,"velocity":0.6535433070866141},{"duration":0.17647050000005038,"midi":58,"time":346.588062,"velocity":0.6535433070866141},{"duration":0.08823524999996835,"midi":58,"time":346.76453250000003,"velocity":0.6535433070866141},{"duration":0.08823525000002519,"midi":58,"time":346.85276775,"velocity":0.6535433070866141},{"duration":0.17647049999999354,"midi":58,"time":346.941003,"velocity":0.6535433070866141},{"duration":0.08823524999996835,"midi":58,"time":347.1174735,"velocity":0.6535433070866141},{"duration":0.08823525000002519,"midi":58,"time":347.20570875,"velocity":0.6535433070866141},{"duration":0.17647049999999354,"midi":53,"time":347.293944,"velocity":0.6535433070866141},{"duration":0.08823525000002519,"midi":53,"time":347.4704145,"velocity":0.6535433070866141},{"duration":0.08823524999996835,"midi":53,"time":347.55864975000003,"velocity":0.6535433070866141},{"duration":0.17647049999999354,"midi":53,"time":347.646885,"velocity":0.6535433070866141},{"duration":0.08823525000002519,"midi":53,"time":347.8233555,"velocity":0.6535433070866141},{"duration":0.08823524999996835,"midi":53,"time":347.91159075,"velocity":0.6535433070866141},{"duration":0.17647049999999354,"midi":53,"time":347.999826,"velocity":0.6535433070866141},{"duration":0.08823525000002519,"midi":53,"time":348.1762965,"velocity":0.6535433070866141},{"duration":0.08823525000002519,"midi":53,"time":348.26453175,"velocity":0.6535433070866141},{"duration":0.17647049999999354,"midi":53,"time":348.35276700000003,"velocity":0.6535433070866141},{"duration":0.08823524999996835,"midi":53,"time":348.5292375,"velocity":0.6535433070866141},{"duration":0.08823525000002519,"midi":53,"time":348.61747275,"velocity":0.6535433070866141},{"duration":0.17647049999999354,"midi":54,"time":348.705708,"velocity":0.6535433070866141},{"duration":0.08823524999996835,"midi":54,"time":348.8821785,"velocity":0.6535433070866141},{"duration":0.08823525000002519,"midi":54,"time":348.97041375,"velocity":0.6535433070866141},{"duration":0.17647049999999354,"midi":54,"time":349.058649,"velocity":0.6535433070866141},{"duration":0.08823525000002519,"midi":54,"time":349.2351195,"velocity":0.6535433070866141},{"duration":0.08823524999996835,"midi":54,"time":349.32335475,"velocity":0.6535433070866141},{"duration":0.17647049999999354,"midi":54,"time":349.41159,"velocity":0.6535433070866141},{"duration":0.08823525000002519,"midi":54,"time":349.5880605,"velocity":0.6535433070866141},{"duration":0.08823524999996835,"midi":54,"time":349.67629575,"velocity":0.6535433070866141},{"duration":0.17647050000005038,"midi":54,"time":349.764531,"velocity":0.6535433070866141},{"duration":0.08823524999996835,"midi":54,"time":349.9410015,"velocity":0.6535433070866141},{"duration":0.08823525000002519,"midi":54,"time":350.02923675,"velocity":0.6535433070866141},{"duration":0.17647049999999354,"midi":56,"time":350.117472,"velocity":0.6535433070866141},{"duration":0.08823524999996835,"midi":56,"time":350.2939425,"velocity":0.6535433070866141},{"duration":0.08823525000002519,"midi":56,"time":350.38217775,"velocity":0.6535433070866141},{"duration":0.17647049999999354,"midi":56,"time":350.470413,"velocity":0.6535433070866141},{"duration":0.08823525000002519,"midi":56,"time":350.6468835,"velocity":0.6535433070866141},{"duration":0.08823524999996835,"midi":56,"time":350.73511875,"velocity":0.6535433070866141},{"duration":0.17647049999999354,"midi":56,"time":350.823354,"velocity":0.6535433070866141},{"duration":0.08823525000002519,"midi":56,"time":350.9998245,"velocity":0.6535433070866141},{"duration":0.08823524999996835,"midi":56,"time":351.08805975,"velocity":0.6535433070866141},{"duration":0.17647050000005038,"midi":56,"time":351.176295,"velocity":0.6535433070866141},{"duration":0.08823524999996835,"midi":56,"time":351.35276550000003,"velocity":0.6535433070866141},{"duration":0.08823525000002519,"midi":56,"time":351.44100075,"velocity":0.6535433070866141},{"duration":0.17647049999999354,"midi":58,"time":351.529236,"velocity":0.6535433070866141},{"duration":0.08823524999996835,"midi":58,"time":351.7057065,"velocity":0.6535433070866141},{"duration":0.08823525000002519,"midi":58,"time":351.79394175,"velocity":0.6535433070866141},{"duration":0.17647049999999354,"midi":58,"time":351.882177,"velocity":0.6535433070866141},{"duration":0.08823525000002519,"midi":58,"time":352.0586475,"velocity":0.6535433070866141},{"duration":0.08823524999996835,"midi":58,"time":352.14688275000003,"velocity":0.6535433070866141},{"duration":0.17647049999999354,"midi":58,"time":352.235118,"velocity":0.6535433070866141},{"duration":0.08823525000002519,"midi":58,"time":352.4115885,"velocity":0.6535433070866141},{"duration":0.08823524999996835,"midi":58,"time":352.49982375,"velocity":0.6535433070866141},{"duration":0.17647049999999354,"midi":58,"time":352.588059,"velocity":0.6535433070866141},{"duration":0.08823525000002519,"midi":58,"time":352.7645295,"velocity":0.6535433070866141},{"duration":0.08823525000002519,"midi":58,"time":352.85276475,"velocity":0.6535433070866141},{"duration":0.17647049999999354,"midi":53,"time":352.94100000000003,"velocity":0.6535433070866141},{"duration":0.08823524999996835,"midi":53,"time":353.1174705,"velocity":0.6535433070866141},{"duration":0.08823525000002519,"midi":53,"time":353.20570575,"velocity":0.6535433070866141},{"duration":0.17647049999999354,"midi":53,"time":353.293941,"velocity":0.6535433070866141},{"duration":0.08823524999996835,"midi":53,"time":353.4704115,"velocity":0.6535433070866141},{"duration":0.08823525000002519,"midi":53,"time":353.55864675,"velocity":0.6535433070866141},{"duration":0.17647049999999354,"midi":53,"time":353.646882,"velocity":0.6535433070866141},{"duration":0.08823525000002519,"midi":53,"time":353.8233525,"velocity":0.6535433070866141},{"duration":0.08823524999996835,"midi":53,"time":353.91158775,"velocity":0.6535433070866141},{"duration":0.17647049999999354,"midi":53,"time":353.999823,"velocity":0.6535433070866141},{"duration":0.08823525000002519,"midi":53,"time":354.1762935,"velocity":0.6535433070866141},{"duration":0.08823524999996835,"midi":53,"time":354.26452875,"velocity":0.6535433070866141},{"duration":0.17647050000005038,"midi":54,"time":354.352764,"velocity":0.6535433070866141},{"duration":0.08823524999996835,"midi":54,"time":354.52923450000003,"velocity":0.6535433070866141},{"duration":0.08823525000002519,"midi":54,"time":354.61746975,"velocity":0.6535433070866141},{"duration":0.17647049999999354,"midi":54,"time":354.705705,"velocity":0.6535433070866141},{"duration":0.08823524999996835,"midi":54,"time":354.8821755,"velocity":0.6535433070866141},{"duration":0.08823525000002519,"midi":54,"time":354.97041075,"velocity":0.6535433070866141},{"duration":0.17647049999999354,"midi":54,"time":355.058646,"velocity":0.6535433070866141},{"duration":0.08823525000002519,"midi":54,"time":355.2351165,"velocity":0.6535433070866141},{"duration":0.08823524999996835,"midi":54,"time":355.32335175000003,"velocity":0.6535433070866141},{"duration":0.17647049999999354,"midi":54,"time":355.411587,"velocity":0.6535433070866141},{"duration":0.08823525000002519,"midi":54,"time":355.5880575,"velocity":0.6535433070866141},{"duration":0.08823524999996835,"midi":54,"time":355.67629275,"velocity":0.6535433070866141},{"duration":0.17647049999999354,"midi":56,"time":355.764528,"velocity":0.6535433070866141},{"duration":0.08823525000002519,"midi":56,"time":355.9409985,"velocity":0.6535433070866141},{"duration":0.08823525000002519,"midi":56,"time":356.02923375,"velocity":0.6535433070866141},{"duration":0.17647049999999354,"midi":56,"time":356.117469,"velocity":0.6535433070866141},{"duration":0.08823524999996835,"midi":56,"time":356.2939395,"velocity":0.6535433070866141},{"duration":0.08823525000002519,"midi":56,"time":356.38217475,"velocity":0.6535433070866141},{"duration":0.17647049999999354,"midi":56,"time":356.47041,"velocity":0.6535433070866141},{"duration":0.08823524999996835,"midi":56,"time":356.6468805,"velocity":0.6535433070866141},{"duration":0.08823525000002519,"midi":56,"time":356.73511575,"velocity":0.6535433070866141},{"duration":0.17647049999999354,"midi":56,"time":356.823351,"velocity":0.6535433070866141},{"duration":0.08823525000002519,"midi":56,"time":356.9998215,"velocity":0.6535433070866141},{"duration":0.08823524999996835,"midi":56,"time":357.08805675,"velocity":0.6535433070866141},{"duration":0.17647049999999354,"midi":58,"time":357.176292,"velocity":0.6535433070866141},{"duration":0.08823525000002519,"midi":58,"time":357.3527625,"velocity":0.6535433070866141},{"duration":0.08823524999996835,"midi":58,"time":357.44099775,"velocity":0.6535433070866141},{"duration":0.17647050000005038,"midi":58,"time":357.529233,"velocity":0.6535433070866141},{"duration":0.08823524999996835,"midi":58,"time":357.7057035,"velocity":0.6535433070866141},{"duration":0.08823525000002519,"midi":58,"time":357.79393875,"velocity":0.6535433070866141},{"duration":0.17647049999999354,"midi":58,"time":357.882174,"velocity":0.6535433070866141},{"duration":0.08823524999996835,"midi":58,"time":358.0586445,"velocity":0.6535433070866141},{"duration":0.08823525000002519,"midi":58,"time":358.14687975,"velocity":0.6535433070866141},{"duration":0.17647049999999354,"midi":58,"time":358.235115,"velocity":0.6535433070866141},{"duration":0.08823525000002519,"midi":58,"time":358.4115855,"velocity":0.6535433070866141},{"duration":0.08823524999996835,"midi":58,"time":358.49982075,"velocity":0.6535433070866141},{"duration":0.17647049999999354,"midi":53,"time":358.588056,"velocity":0.6535433070866141},{"duration":0.08823525000002519,"midi":53,"time":358.7645265,"velocity":0.6535433070866141},{"duration":0.08823524999996835,"midi":53,"time":358.85276175,"velocity":0.6535433070866141},{"duration":0.17647050000005038,"midi":53,"time":358.940997,"velocity":0.6535433070866141},{"duration":0.08823524999996835,"midi":53,"time":359.11746750000003,"velocity":0.6535433070866141},{"duration":0.08823525000002519,"midi":53,"time":359.20570275,"velocity":0.6535433070866141},{"duration":0.17647049999999354,"midi":53,"time":359.293938,"velocity":0.6535433070866141},{"duration":0.08823524999996835,"midi":53,"time":359.4704085,"velocity":0.6535433070866141},{"duration":0.08823525000002519,"midi":53,"time":359.55864375,"velocity":0.6535433070866141},{"duration":0.17647049999999354,"midi":53,"time":359.646879,"velocity":0.6535433070866141},{"duration":0.08823525000002519,"midi":53,"time":359.8233495,"velocity":0.6535433070866141},{"duration":0.08823524999996835,"midi":53,"time":359.91158475000003,"velocity":0.6535433070866141},{"duration":0.17647049999999354,"midi":54,"time":359.99982,"velocity":0.6535433070866141},{"duration":0.08823525000002519,"midi":54,"time":360.1762905,"velocity":0.6535433070866141},{"duration":0.08823524999996835,"midi":54,"time":360.26452575,"velocity":0.6535433070866141},{"duration":0.17647049999999354,"midi":54,"time":360.352761,"velocity":0.6535433070866141},{"duration":0.08823525000002519,"midi":54,"time":360.5292315,"velocity":0.6535433070866141},{"duration":0.08823525000002519,"midi":54,"time":360.61746675,"velocity":0.6535433070866141},{"duration":0.17647049999999354,"midi":54,"time":360.70570200000003,"velocity":0.6535433070866141},{"duration":0.08823524999996835,"midi":54,"time":360.8821725,"velocity":0.6535433070866141},{"duration":0.08823525000002519,"midi":54,"time":360.97040775,"velocity":0.6535433070866141},{"duration":0.17647049999999354,"midi":54,"time":361.058643,"velocity":0.6535433070866141},{"duration":0.08823524999996835,"midi":54,"time":361.2351135,"velocity":0.6535433070866141},{"duration":0.08823525000002519,"midi":54,"time":361.32334875,"velocity":0.6535433070866141},{"duration":0.17647049999999354,"midi":56,"time":361.411584,"velocity":0.6535433070866141},{"duration":0.08823525000002519,"midi":56,"time":361.5880545,"velocity":0.6535433070866141},{"duration":0.08823524999996835,"midi":56,"time":361.67628975,"velocity":0.6535433070866141},{"duration":0.17647049999999354,"midi":56,"time":361.764525,"velocity":0.6535433070866141},{"duration":0.08823525000002519,"midi":56,"time":361.9409955,"velocity":0.6535433070866141},{"duration":0.08823524999996835,"midi":56,"time":362.02923075,"velocity":0.6535433070866141},{"duration":0.17647050000005038,"midi":56,"time":362.117466,"velocity":0.6535433070866141},{"duration":0.08823524999996835,"midi":56,"time":362.29393650000003,"velocity":0.6535433070866141},{"duration":0.08823525000002519,"midi":56,"time":362.38217175,"velocity":0.6535433070866141},{"duration":0.17647049999999354,"midi":56,"time":362.470407,"velocity":0.6535433070866141},{"duration":0.08823524999996835,"midi":56,"time":362.6468775,"velocity":0.6535433070866141},{"duration":0.08823525000002519,"midi":56,"time":362.73511275,"velocity":0.6535433070866141},{"duration":0.17647049999999354,"midi":58,"time":362.823348,"velocity":0.6535433070866141},{"duration":0.08823525000002519,"midi":58,"time":362.9998185,"velocity":0.6535433070866141},{"duration":0.08823524999996835,"midi":58,"time":363.08805375000003,"velocity":0.6535433070866141},{"duration":0.17647049999999354,"midi":58,"time":363.176289,"velocity":0.6535433070866141},{"duration":0.08823525000002519,"midi":58,"time":363.3527595,"velocity":0.6535433070866141},{"duration":0.08823524999996835,"midi":58,"time":363.44099475,"velocity":0.6535433070866141},{"duration":0.17647049999999354,"midi":58,"time":363.52923,"velocity":0.6535433070866141},{"duration":0.08823525000002519,"midi":58,"time":363.7057005,"velocity":0.6535433070866141},{"duration":0.08823525000002519,"midi":58,"time":363.79393575,"velocity":0.6535433070866141},{"duration":0.17647049999999354,"midi":58,"time":363.882171,"velocity":0.6535433070866141},{"duration":0.08823524999996835,"midi":58,"time":364.0586415,"velocity":0.6535433070866141},{"duration":0.08823525000002519,"midi":58,"time":364.14687675,"velocity":0.6535433070866141}]}]}
