{"tracks":[{"instrument":{"family":"piano","number":0,"name":"acoustic grand piano"},"notes":[{"duration":0.04545449999999818,"midi":82,"time":56.727216000000006,"velocity":0.015748031496062992},{"duration":0.04545449999999818,"midi":70,"time":56.727216000000006,"velocity":0.015748031496062992},{"duration":0.04545449999999818,"midi":94,"time":56.727216000000006,"velocity":0.015748031496062992},{"duration":0.04545449999999818,"midi":94,"time":56.772670500000004,"velocity":0.015748031496062992},{"duration":0.04545449999999818,"midi":70,"time":56.772670500000004,"velocity":0.015748031496062992},{"duration":0.04545449999999818,"midi":82,"time":56.772670500000004,"velocity":0.015748031496062992},{"duration":0.04545449999999818,"midi":82,"time":56.818125,"velocity":0.015748031496062992},{"duration":0.04545449999999818,"midi":94,"time":56.818125,"velocity":0.015748031496062992},{"duration":0.04545449999999818,"midi":70,"time":56.818125,"velocity":0.015748031496062992},{"duration":0.04545450000000528,"midi":70,"time":56.8635795,"velocity":0.015748031496062992},{"duration":0.04545450000000528,"midi":82,"time":56.8635795,"velocity":0.015748031496062992},{"duration":0.04545450000000528,"midi":94,"time":56.8635795,"velocity":0.015748031496062992},{"duration":0.04545449999999818,"midi":94,"time":56.909034000000005,"velocity":0.015748031496062992},{"duration":0.04545449999999818,"midi":70,"time":56.909034000000005,"velocity":0.015748031496062992},{"duration":0.04545449999999818,"midi":70,"time":56.909034000000005,"velocity":0.015748031496062992},{"duration":0.04545449999999818,"midi":82,"time":56.909034000000005,"velocity":0.015748031496062992},{"duration":0.04545449999999818,"midi":82,"time":56.909034000000005,"velocity":0.015748031496062992},{"duration":0.04545449999999818,"midi":94,"time":56.909034000000005,"velocity":0.015748031496062992},{"duration":0.04545449999999818,"midi":70,"time":56.954488500000004,"velocity":0.015748031496062992},{"duration":0.04545449999999818,"midi":70,"time":56.954488500000004,"velocity":0.015748031496062992},{"duration":0.04545449999999818,"midi":94,"time":56.954488500000004,"velocity":0.015748031496062992},{"duration":0.04545449999999818,"midi":82,"time":56.954488500000004,"velocity":0.015748031496062992},{"duration":0.04545449999999818,"midi":82,"time":56.954488500000004,"velocity":0.015748031496062992},{"duration":0.04545449999999818,"midi":94,"time":56.954488500000004,"velocity":0.015748031496062992},{"duration":0.04545449999999818,"midi":70,"time":56.999943,"velocity":0.015748031496062992},{"duration":0.04545449999999818,"midi":82,"time":56.999943,"velocity":0.015748031496062992},{"duration":0.04545449999999818,"midi":94,"time":56.999943,"velocity":0.015748031496062992},{"duration":0.04545449999999818,"midi":82,"time":56.999943,"velocity":0.015748031496062992},{"duration":0.04545449999999818,"midi":94,"time":56.999943,"velocity":0.015748031496062992},{"duration":0.04545449999999818,"midi":70,"time":56.999943,"velocity":0.015748031496062992},{"duration":0.04545450000000528,"midi":82,"time":57.0453975,"velocity":0.015748031496062992},{"duration":0.04545450000000528,"midi":94,"time":57.0453975,"velocity":0.015748031496062992},{"duration":0.04545450000000528,"midi":82,"time":57.0453975,"velocity":0.015748031496062992},{"duration":0.04545450000000528,"midi":94,"time":57.0453975,"velocity":0.015748031496062992},{"duration":0.04545450000000528,"midi":70,"time":57.0453975,"velocity":0.015748031496062992},{"duration":0.04545450000000528,"midi":70,"time":57.0453975,"velocity":0.015748031496062992},{"duration":0.04545449999999818,"midi":82,"time":57.090852000000005,"velocity":0.015748031496062992},{"duration":0.04545449999999818,"midi":70,"time":57.090852000000005,"velocity":0.015748031496062992},{"duration":0.04545449999999818,"midi":70,"time":57.090852000000005,"velocity":0.015748031496062992},{"duration":0.04545449999999818,"midi":94,"time":57.090852000000005,"velocity":0.015748031496062992},{"duration":0.04545449999999818,"midi":94,"time":57.090852000000005,"velocity":0.015748031496062992},{"duration":0.04545449999999818,"midi":82,"time":57.090852000000005,"velocity":0.015748031496062992},{"duration":0.04545449999999818,"midi":70,"time":57.090852000000005,"velocity":0.015748031496062992},{"duration":0.04545449999999818,"midi":94,"time":57.090852000000005,"velocity":0.015748031496062992},{"duration":0.04545449999999818,"midi":82,"time":57.090852000000005,"velocity":0.015748031496062992},{"duration":0.04545449999999818,"midi":94,"time":57.090852000000005,"velocity":0.015748031496062992},{"duration":0.04545449999999818,"midi":70,"time":57.090852000000005,"velocity":0.015748031496062992},{"duration":0.04545449999999818,"midi":82,"time":57.090852000000005,"velocity":0.015748031496062992},{"duration":0.04545449999999818,"midi":82,"time":57.1363065,"velocity":0.015748031496062992},{"duration":0.04545449999999818,"midi":70,"time":57.1363065,"velocity":0.015748031496062992},{"duration":0.04545449999999818,"midi":94,"time":57.1363065,"velocity":0.015748031496062992},{"duration":0.04545449999999818,"midi":82,"time":57.1363065,"velocity":0.015748031496062992},{"duration":0.04545449999999818,"midi":94,"time":57.1363065,"velocity":0.015748031496062992},{"duration":0.04545449999999818,"midi":94,"time":57.1363065,"velocity":0.015748031496062992},{"duration":0.04545449999999818,"midi":82,"time":57.1363065,"velocity":0.015748031496062992},{"duration":0.04545449999999818,"midi":70,"time":57.1363065,"velocity":0.015748031496062992},{"duration":0.04545449999999818,"midi":94,"time":57.1363065,"velocity":0.015748031496062992},{"duration":0.04545449999999818,"midi":70,"time":57.1363065,"velocity":0.015748031496062992},{"duration":0.04545449999999818,"midi":82,"time":57.1363065,"velocity":0.015748031496062992},{"duration":0.04545449999999818,"midi":70,"time":57.1363065,"velocity":0.015748031496062992},{"duration":0.04545449999999818,"midi":82,"time":57.181761,"velocity":0.015748031496062992},{"duration":0.04545449999999818,"midi":94,"time":57.181761,"velocity":0.015748031496062992},{"duration":0.04545449999999818,"midi":82,"time":57.181761,"velocity":0.015748031496062992},{"duration":0.04545449999999818,"midi":94,"time":57.181761,"velocity":0.015748031496062992},{"duration":0.04545449999999818,"midi":70,"time":57.181761,"velocity":0.015748031496062992},{"duration":0.04545449999999818,"midi":70,"time":57.181761,"velocity":0.015748031496062992},{"duration":0.04545449999999818,"midi":70,"time":57.181761,"velocity":0.015748031496062992},{"duration":0.04545449999999818,"midi":94,"time":57.181761,"velocity":0.015748031496062992},{"duration":0.04545449999999818,"midi":82,"time":57.181761,"velocity":0.015748031496062992},{"duration":0.04545449999999818,"midi":70,"time":57.181761,"velocity":0.015748031496062992},{"duration":0.04545449999999818,"midi":94,"time":57.181761,"velocity":0.015748031496062992},{"duration":0.04545449999999818,"midi":82,"time":57.181761,"velocity":0.015748031496062992},{"duration":0.04545450000000528,"midi":82,"time":57.2272155,"velocity":0.015748031496062992},{"duration":0.04545450000000528,"midi":70,"time":57.2272155,"velocity":0.015748031496062992},{"duration":0.04545450000000528,"midi":82,"time":57.2272155,"velocity":0.015748031496062992},{"duration":0.04545450000000528,"midi":82,"time":57.2272155,"velocity":0.015748031496062992},{"duration":0.04545450000000528,"midi":70,"time":57.2272155,"velocity":0.015748031496062992},{"duration":0.04545450000000528,"midi":94,"time":57.2272155,"velocity":0.015748031496062992},{"duration":0.04545450000000528,"midi":82,"time":57.2272155,"velocity":0.015748031496062992},{"duration":0.04545450000000528,"midi":94,"time":57.2272155,"velocity":0.015748031496062992},{"duration":0.04545450000000528,"midi":70,"time":57.2272155,"velocity":0.015748031496062992},{"duration":0.04545450000000528,"midi":94,"time":57.2272155,"velocity":0.015748031496062992},{"duration":0.04545450000000528,"midi":70,"time":57.2272155,"velocity":0.015748031496062992},{"duration":0.04545450000000528,"midi":94,"time":57.2272155,"velocity":0.015748031496062992},{"duration":0.04545449999999818,"midi":94,"time":57.272670000000005,"velocity":0.015748031496062992},{"duration":0.04545449999999818,"midi":82,"time":57.272670000000005,"velocity":0.015748031496062992},{"duration":0.04545449999999818,"midi":82,"time":57.272670000000005,"velocity":0.015748031496062992},{"duration":0.04545449999999818,"midi":94,"time":57.272670000000005,"velocity":0.015748031496062992},{"duration":0.04545449999999818,"midi":82,"time":57.272670000000005,"velocity":0.015748031496062992},{"duration":0.04545449999999818,"midi":70,"time":57.272670000000005,"velocity":0.015748031496062992},{"duration":0.04545449999999818,"midi":94,"time":57.272670000000005,"velocity":0.015748031496062992},{"duration":0.04545449999999818,"midi":94,"time":57.272670000000005,"velocity":0.015748031496062992},{"duration":0.04545449999999818,"midi":82,"time":57.272670000000005,"velocity":0.015748031496062992},{"duration":0.04545449999999818,"midi":70,"time":57.272670000000005,"velocity":0.015748031496062992},{"duration":0.04545449999999818,"midi":94,"time":57.272670000000005,"velocity":0.015748031496062992},{"duration":0.04545449999999818,"midi":82,"time":57.272670000000005,"velocity":0.015748031496062992},{"duration":0.04545449999999818,"midi":70,"time":57.272670000000005,"velocity":0.015748031496062992},{"duration":0.04545449999999818,"midi":70,"time":57.272670000000005,"velocity":0.015748031496062992},{"duration":0.04545449999999818,"midi":94,"time":57.272670000000005,"velocity":0.015748031496062992},{"duration":0.04545449999999818,"midi":70,"time":57.272670000000005,"velocity":0.015748031496062992},{"duration":0.04545449999999818,"midi":70,"time":57.272670000000005,"velocity":0.015748031496062992},{"duration":0.04545449999999818,"midi":82,"time":57.272670000000005,"velocity":0.015748031496062992},{"duration":0.04545449999999818,"midi":70,"time":57.3181245,"velocity":0.015748031496062992},{"duration":0.04545449999999818,"midi":70,"time":57.3181245,"velocity":0.015748031496062992},{"duration":0.04545449999999818,"midi":82,"time":57.3181245,"velocity":0.015748031496062992},{"duration":0.04545449999999818,"midi":94,"time":57.3181245,"velocity":0.015748031496062992},{"duration":0.04545449999999818,"midi":94,"time":57.3181245,"velocity":0.015748031496062992},{"duration":0.04545449999999818,"midi":82,"time":57.3181245,"velocity":0.015748031496062992},{"duration":0.04545449999999818,"midi":70,"time":57.3181245,"velocity":0.015748031496062992},{"duration":0.04545449999999818,"midi":82,"time":57.3181245,"velocity":0.015748031496062992},{"duration":0.04545449999999818,"midi":70,"time":57.3181245,"velocity":0.015748031496062992},{"duration":0.04545449999999818,"midi":94,"time":57.3181245,"velocity":0.015748031496062992},{"duration":0.04545449999999818,"midi":82,"time":57.3181245,"velocity":0.015748031496062992},{"duration":0.04545449999999818,"midi":82,"time":57.3181245,"velocity":0.015748031496062992},{"duration":0.04545449999999818,"midi":82,"time":57.3181245,"velocity":0.015748031496062992},{"duration":0.04545449999999818,"midi":94,"time":57.3181245,"velocity":0.015748031496062992},{"duration":0.04545449999999818,"midi":70,"time":57.3181245,"velocity":0.015748031496062992},{"duration":0.04545449999999818,"midi":94,"time":57.3181245,"velocity":0.015748031496062992},{"duration":0.04545449999999818,"midi":94,"time":57.3181245,"velocity":0.015748031496062992},{"duration":0.04545449999999818,"midi":70,"time":57.3181245,"velocity":0.015748031496062992},{"duration":0.04545449999999818,"midi":94,"time":57.363579,"velocity":0.015748031496062992},{"duration":0.04545449999999818,"midi":82,"time":57.363579,"velocity":0.015748031496062992},{"duration":0.04545449999999818,"midi":94,"time":57.363579,"velocity":0.015748031496062992},{"duration":0.04545449999999818,"midi":70,"time":57.363579,"velocity":0.015748031496062992},{"duration":0.04545449999999818,"midi":82,"time":57.363579,"velocity":0.015748031496062992},{"duration":0.04545449999999818,"midi":94,"time":57.363579,"velocity":0.015748031496062992},{"duration":0.04545449999999818,"midi":70,"time":57.363579,"velocity":0.015748031496062992},{"duration":0.04545449999999818,"midi":94,"time":57.363579,"velocity":0.015748031496062992},{"duration":0.04545449999999818,"midi":82,"time":57.363579,"velocity":0.015748031496062992},{"duration":0.04545449999999818,"midi":70,"time":57.363579,"velocity":0.015748031496062992},{"duration":0.04545449999999818,"midi":82,"time":57.363579,"velocity":0.015748031496062992},{"duration":0.04545449999999818,"midi":94,"time":57.363579,"velocity":0.015748031496062992},{"duration":0.04545449999999818,"midi":94,"time":57.363579,"velocity":0.015748031496062992},{"duration":0.04545449999999818,"midi":82,"time":57.363579,"velocity":0.015748031496062992},{"duration":0.04545449999999818,"midi":70,"time":57.363579,"velocity":0.015748031496062992},{"duration":0.04545449999999818,"midi":70,"time":57.363579,"velocity":0.015748031496062992},{"duration":0.04545449999999818,"midi":82,"time":57.363579,"velocity":0.015748031496062992},{"duration":0.04545449999999818,"midi":70,"time":57.363579,"velocity":0.015748031496062992},{"duration":0.04545450000000528,"midi":82,"time":57.4090335,"velocity":0.015748031496062992},{"duration":0.04545450000000528,"midi":70,"time":57.4090335,"velocity":0.015748031496062992},{"duration":0.04545450000000528,"midi":94,"time":57.4090335,"velocity":0.015748031496062992},{"duration":0.04545450000000528,"midi":82,"time":57.4090335,"velocity":0.015748031496062992},{"duration":0.04545450000000528,"midi":70,"time":57.4090335,"velocity":0.015748031496062992},{"duration":0.04545450000000528,"midi":82,"time":57.4090335,"velocity":0.015748031496062992},{"duration":0.04545450000000528,"midi":82,"time":57.4090335,"velocity":0.015748031496062992},{"duration":0.04545450000000528,"midi":70,"time":57.4090335,"velocity":0.015748031496062992},{"duration":0.04545450000000528,"midi":70,"time":57.4090335,"velocity":0.015748031496062992},{"duration":0.04545450000000528,"midi":94,"time":57.4090335,"velocity":0.015748031496062992},{"duration":0.04545450000000528,"midi":94,"time":57.4090335,"velocity":0.015748031496062992},{"duration":0.04545450000000528,"midi":82,"time":57.4090335,"velocity":0.015748031496062992},{"duration":0.04545450000000528,"midi":70,"time":57.4090335,"velocity":0.015748031496062992},{"duration":0.04545450000000528,"midi":70,"time":57.4090335,"velocity":0.015748031496062992},{"duration":0.04545450000000528,"midi":94,"time":57.4090335,"velocity":0.015748031496062992},{"duration":0.04545450000000528,"midi":94,"time":57.4090335,"velocity":0.015748031496062992},{"duration":0.04545450000000528,"midi":82,"time":57.4090335,"velocity":0.015748031496062992},{"duration":0.04545450000000528,"midi":94,"time":57.4090335,"velocity":0.015748031496062992},{"duration":0.04545449999999818,"midi":70,"time":57.454488000000005,"velocity":0.015748031496062992},{"duration":0.04545449999999818,"midi":94,"time":57.454488000000005,"velocity":0.015748031496062992},{"duration":0.04545449999999818,"midi":82,"time":57.454488000000005,"velocity":0.015748031496062992},{"duration":0.04545449999999818,"midi":70,"time":57.454488000000005,"velocity":0.015748031496062992},{"duration":0.04545449999999818,"midi":70,"time":57.454488000000005,"velocity":0.015748031496062992},{"duration":0.04545449999999818,"midi":82,"time":57.454488000000005,"velocity":0.015748031496062992},{"duration":0.04545449999999818,"midi":94,"time":57.454488000000005,"velocity":0.015748031496062992},{"duration":0.04545449999999818,"midi":70,"time":57.454488000000005,"velocity":0.015748031496062992},{"duration":0.04545449999999818,"midi":70,"time":57.454488000000005,"velocity":0.015748031496062992},{"duration":0.04545449999999818,"midi":82,"time":57.454488000000005,"velocity":0.015748031496062992},{"duration":0.04545449999999818,"midi":82,"time":57.454488000000005,"velocity":0.015748031496062992},{"duration":0.04545449999999818,"midi":94,"time":57.454488000000005,"velocity":0.015748031496062992},{"duration":0.04545449999999818,"midi":70,"time":57.454488000000005,"velocity":0.015748031496062992},{"duration":0.04545449999999818,"midi":70,"time":57.454488000000005,"velocity":0.015748031496062992},{"duration":0.04545449999999818,"midi":82,"time":57.454488000000005,"velocity":0.015748031496062992},{"duration":0.04545449999999818,"midi":94,"time":57.454488000000005,"velocity":0.015748031496062992},{"duration":0.04545449999999818,"midi":94,"time":57.454488000000005,"velocity":0.015748031496062992},{"duration":0.04545449999999818,"midi":82,"time":57.454488000000005,"velocity":0.015748031496062992},{"duration":0.04545449999999818,"midi":94,"time":57.454488000000005,"velocity":0.015748031496062992},{"duration":0.04545449999999818,"midi":82,"time":57.454488000000005,"velocity":0.015748031496062992},{"duration":0.04545449999999818,"midi":94,"time":57.454488000000005,"velocity":0.015748031496062992},{"duration":0.04545449999999818,"midi":94,"time":57.4999425,"velocity":0.015748031496062992},{"duration":0.04545449999999818,"midi":70,"time":57.4999425,"velocity":0.015748031496062992},{"duration":0.04545449999999818,"midi":82,"time":57.4999425,"velocity":0.015748031496062992},{"duration":0.04545449999999818,"midi":82,"time":57.4999425,"velocity":0.015748031496062992},{"duration":0.04545449999999818,"midi":70,"time":57.4999425,"velocity":0.015748031496062992},{"duration":0.04545449999999818,"midi":70,"time":57.4999425,"velocity":0.015748031496062992},{"duration":0.04545449999999818,"midi":94,"time":57.4999425,"velocity":0.015748031496062992},{"duration":0.04545449999999818,"midi":82,"time":57.4999425,"velocity":0.015748031496062992},{"duration":0.04545449999999818,"midi":70,"time":57.4999425,"velocity":0.015748031496062992},{"duration":0.04545449999999818,"midi":70,"time":57.4999425,"velocity":0.015748031496062992},{"duration":0.04545449999999818,"midi":82,"time":57.4999425,"velocity":0.015748031496062992},{"duration":0.04545449999999818,"midi":94,"time":57.4999425,"velocity":0.015748031496062992},{"duration":0.04545449999999818,"midi":82,"time":57.4999425,"velocity":0.015748031496062992},{"duration":0.04545449999999818,"midi":94,"time":57.4999425,"velocity":0.015748031496062992},{"duration":0.04545449999999818,"midi":82,"time":57.4999425,"velocity":0.015748031496062992},{"duration":0.04545449999999818,"midi":70,"time":57.4999425,"velocity":0.015748031496062992},{"duration":0.04545449999999818,"midi":94,"time":57.4999425,"velocity":0.015748031496062992},{"duration":0.04545449999999818,"midi":82,"time":57.4999425,"velocity":0.015748031496062992},{"duration":0.04545449999999818,"midi":70,"time":57.4999425,"velocity":0.015748031496062992},{"duration":0.04545449999999818,"midi":94,"time":57.4999425,"velocity":0.015748031496062992},{"duration":0.04545449999999818,"midi":94,"time":57.4999425,"velocity":0.015748031496062992},{"duration":0.04545449999999818,"midi":70,"time":57.545397,"velocity":0.015748031496062992},{"duration":0.04545449999999818,"midi":82,"time":57.545397,"velocity":0.015748031496062992},{"duration":0.04545449999999818,"midi":70,"time":57.545397,"velocity":0.015748031496062992},{"duration":0.04545449999999818,"midi":82,"time":57.545397,"velocity":0.015748031496062992},{"duration":0.04545449999999818,"midi":82,"time":57.545397,"velocity":0.015748031496062992},{"duration":0.04545449999999818,"midi":82,"time":57.545397,"velocity":0.015748031496062992},{"duration":0.04545449999999818,"midi":94,"time":57.545397,"velocity":0.015748031496062992},{"duration":0.04545449999999818,"midi":94,"time":57.545397,"velocity":0.015748031496062992},{"duration":0.04545449999999818,"midi":70,"time":57.545397,"velocity":0.015748031496062992},{"duration":0.04545449999999818,"midi":82,"time":57.545397,"velocity":0.015748031496062992},{"duration":0.04545449999999818,"midi":94,"time":57.545397,"velocity":0.015748031496062992},{"duration":0.04545449999999818,"midi":70,"time":57.545397,"velocity":0.015748031496062992},{"duration":0.04545449999999818,"midi":82,"time":57.545397,"velocity":0.015748031496062992},{"duration":0.04545449999999818,"midi":70,"time":57.545397,"velocity":0.015748031496062992},{"duration":0.04545449999999818,"midi":94,"time":57.545397,"velocity":0.015748031496062992},{"duration":0.04545449999999818,"midi":94,"time":57.545397,"velocity":0.015748031496062992},{"duration":0.04545449999999818,"midi":94,"time":57.545397,"velocity":0.015748031496062992},{"duration":0.04545449999999818,"midi":82,"time":57.545397,"velocity":0.015748031496062992},{"duration":0.04545449999999818,"midi":70,"time":57.545397,"velocity":0.015748031496062992},{"duration":0.04545449999999818,"midi":94,"time":57.545397,"velocity":0.015748031496062992},{"duration":0.04545449999999818,"midi":70,"time":57.545397,"velocity":0.015748031496062992},{"duration":0.04545450000000528,"midi":94,"time":57.5908515,"velocity":0.015748031496062992},{"duration":0.04545450000000528,"midi":82,"time":57.5908515,"velocity":0.015748031496062992},{"duration":0.04545450000000528,"midi":70,"time":57.5908515,"velocity":0.015748031496062992},{"duration":0.04545450000000528,"midi":94,"time":57.5908515,"velocity":0.015748031496062992},{"duration":0.04545450000000528,"midi":70,"time":57.5908515,"velocity":0.015748031496062992},{"duration":0.04545450000000528,"midi":82,"time":57.5908515,"velocity":0.015748031496062992},{"duration":0.04545450000000528,"midi":82,"time":57.5908515,"velocity":0.015748031496062992},{"duration":0.04545450000000528,"midi":94,"time":57.5908515,"velocity":0.015748031496062992},{"duration":0.04545450000000528,"midi":82,"time":57.5908515,"velocity":0.015748031496062992},{"duration":0.04545450000000528,"midi":82,"time":57.5908515,"velocity":0.015748031496062992},{"duration":0.04545450000000528,"midi":94,"time":57.5908515,"velocity":0.015748031496062992},{"duration":0.04545450000000528,"midi":82,"time":57.5908515,"velocity":0.015748031496062992},{"duration":0.04545450000000528,"midi":82,"time":57.5908515,"velocity":0.015748031496062992},{"duration":0.04545450000000528,"midi":70,"time":57.5908515,"velocity":0.015748031496062992},{"duration":0.04545450000000528,"midi":94,"time":57.5908515,"velocity":0.015748031496062992},{"duration":0.04545450000000528,"midi":70,"time":57.5908515,"velocity":0.015748031496062992},{"duration":0.04545450000000528,"midi":70,"time":57.5908515,"velocity":0.015748031496062992},{"duration":0.04545450000000528,"midi":94,"time":57.5908515,"velocity":0.015748031496062992},{"duration":0.04545450000000528,"midi":70,"time":57.5908515,"velocity":0.015748031496062992},{"duration":0.04545450000000528,"midi":94,"time":57.5908515,"velocity":0.015748031496062992},{"duration":0.04545450000000528,"midi":70,"time":57.5908515,"velocity":0.015748031496062992},{"duration":0.04545449999999818,"midi":70,"time":57.636306000000005,"velocity":0.015748031496062992},{"duration":0.04545449999999818,"midi":82,"time":57.636306000000005,"velocity":0.015748031496062992},{"duration":0.04545449999999818,"midi":82,"time":57.636306000000005,"velocity":0.015748031496062992},{"duration":0.04545449999999818,"midi":70,"time":57.636306000000005,"velocity":0.015748031496062992},{"duration":0.04545449999999818,"midi":82,"time":57.636306000000005,"velocity":0.015748031496062992},{"duration":0.04545449999999818,"midi":94,"time":57.636306000000005,"velocity":0.015748031496062992},{"duration":0.04545449999999818,"midi":94,"time":57.636306000000005,"velocity":0.015748031496062992},{"duration":0.04545449999999818,"midi":70,"time":57.636306000000005,"velocity":0.015748031496062992},{"duration":0.04545449999999818,"midi":82,"time":57.636306000000005,"velocity":0.015748031496062992},{"duration":0.04545449999999818,"midi":94,"time":57.636306000000005,"velocity":0.015748031496062992},{"duration":0.04545449999999818,"midi":70,"time":57.636306000000005,"velocity":0.015748031496062992},{"duration":0.04545449999999818,"midi":70,"time":57.636306000000005,"velocity":0.015748031496062992},{"duration":0.04545449999999818,"midi":94,"time":57.636306000000005,"velocity":0.015748031496062992},{"duration":0.04545449999999818,"midi":94,"time":57.636306000000005,"velocity":0.015748031496062992},{"duration":0.04545449999999818,"midi":70,"time":57.636306000000005,"velocity":0.015748031496062992},{"duration":0.04545449999999818,"midi":70,"time":57.636306000000005,"velocity":0.015748031496062992},{"duration":0.04545449999999818,"midi":70,"time":57.636306000000005,"velocity":0.015748031496062992},{"duration":0.04545449999999818,"midi":82,"time":57.636306000000005,"velocity":0.015748031496062992},{"duration":0.04545449999999818,"midi":82,"time":57.636306000000005,"velocity":0.015748031496062992},{"duration":0.04545449999999818,"midi":94,"time":57.636306000000005,"velocity":0.015748031496062992},{"duration":0.04545449999999818,"midi":94,"time":57.636306000000005,"velocity":0.015748031496062992},{"duration":0.04545449999999818,"midi":94,"time":57.636306000000005,"velocity":0.015748031496062992},{"duration":0.04545449999999818,"midi":82,"time":57.636306000000005,"velocity":0.015748031496062992},{"duration":0.04545449999999818,"midi":82,"time":57.636306000000005,"velocity":0.015748031496062992},{"duration":0.04545449999999818,"midi":82,"time":57.6817605,"velocity":0.015748031496062992},{"duration":0.04545449999999818,"midi":82,"time":57.6817605,"velocity":0.015748031496062992},{"duration":0.04545449999999818,"midi":94,"time":57.6817605,"velocity":0.015748031496062992},{"duration":0.04545449999999818,"midi":70,"time":57.6817605,"velocity":0.015748031496062992},{"duration":0.04545449999999818,"midi":70,"time":57.6817605,"velocity":0.015748031496062992},{"duration":0.04545449999999818,"midi":94,"time":57.6817605,"velocity":0.015748031496062992},{"duration":0.04545449999999818,"midi":82,"time":57.6817605,"velocity":0.015748031496062992},{"duration":0.04545449999999818,"midi":70,"time":57.6817605,"velocity":0.015748031496062992},{"duration":0.04545449999999818,"midi":94,"time":57.6817605,"velocity":0.015748031496062992},{"duration":0.04545449999999818,"midi":82,"time":57.6817605,"velocity":0.015748031496062992},{"duration":0.04545449999999818,"midi":82,"time":57.6817605,"velocity":0.015748031496062992},{"duration":0.04545449999999818,"midi":70,"time":57.6817605,"velocity":0.015748031496062992},{"duration":0.04545449999999818,"midi":94,"time":57.6817605,"velocity":0.015748031496062992},{"duration":0.04545449999999818,"midi":70,"time":57.6817605,"velocity":0.015748031496062992},{"duration":0.04545449999999818,"midi":70,"time":57.6817605,"velocity":0.015748031496062992},{"duration":0.04545449999999818,"midi":94,"time":57.6817605,"velocity":0.015748031496062992},{"duration":0.04545449999999818,"midi":94,"time":57.6817605,"velocity":0.015748031496062992},{"duration":0.04545449999999818,"midi":94,"time":57.6817605,"velocity":0.015748031496062992},{"duration":0.04545449999999818,"midi":82,"time":57.6817605,"velocity":0.015748031496062992},{"duration":0.04545449999999818,"midi":94,"time":57.6817605,"velocity":0.015748031496062992},{"duration":0.04545449999999818,"midi":82,"time":57.6817605,"velocity":0.015748031496062992},{"duration":0.04545449999999818,"midi":82,"time":57.6817605,"velocity":0.015748031496062992},{"duration":0.04545449999999818,"midi":70,"time":57.6817605,"velocity":0.015748031496062992},{"duration":0.04545449999999818,"midi":70,"time":57.6817605,"velocity":0.015748031496062992},{"duration":0.04545449999999818,"midi":70,"time":57.727215,"velocity":0.015748031496062992},{"duration":0.04545449999999818,"midi":70,"time":57.727215,"velocity":0.015748031496062992},{"duration":0.04545449999999818,"midi":70,"time":57.727215,"velocity":0.015748031496062992},{"duration":0.04545449999999818,"midi":94,"time":57.727215,"velocity":0.015748031496062992},{"duration":0.04545449999999818,"midi":82,"time":57.727215,"velocity":0.015748031496062992},{"duration":0.04545449999999818,"midi":94,"time":57.727215,"velocity":0.015748031496062992},{"duration":0.04545449999999818,"midi":82,"time":57.727215,"velocity":0.015748031496062992},{"duration":0.04545449999999818,"midi":94,"time":57.727215,"velocity":0.015748031496062992},{"duration":0.04545449999999818,"midi":82,"time":57.727215,"velocity":0.015748031496062992},{"duration":0.04545449999999818,"midi":70,"time":57.727215,"velocity":0.015748031496062992},{"duration":0.04545449999999818,"midi":70,"time":57.727215,"velocity":0.015748031496062992},{"duration":0.04545449999999818,"midi":94,"time":57.727215,"velocity":0.015748031496062992},{"duration":0.04545449999999818,"midi":82,"time":57.727215,"velocity":0.015748031496062992},{"duration":0.04545449999999818,"midi":70,"time":57.727215,"velocity":0.015748031496062992},{"duration":0.04545449999999818,"midi":94,"time":57.727215,"velocity":0.015748031496062992},{"duration":0.04545449999999818,"midi":82,"time":57.727215,"velocity":0.015748031496062992},{"duration":0.04545449999999818,"midi":82,"time":57.727215,"velocity":0.015748031496062992},{"duration":0.04545449999999818,"midi":94,"time":57.727215,"velocity":0.015748031496062992},{"duration":0.04545449999999818,"midi":82,"time":57.727215,"velocity":0.015748031496062992},{"duration":0.04545449999999818,"midi":70,"time":57.727215,"velocity":0.015748031496062992},{"duration":0.04545449999999818,"midi":70,"time":57.727215,"velocity":0.015748031496062992},{"duration":0.04545449999999818,"midi":94,"time":57.727215,"velocity":0.015748031496062992},{"duration":0.04545449999999818,"midi":82,"time":57.727215,"velocity":0.015748031496062992},{"duration":0.04545449999999818,"midi":94,"time":57.727215,"velocity":0.015748031496062992},{"duration":0.04545450000000528,"midi":70,"time":57.7726695,"velocity":0.015748031496062992},{"duration":0.04545450000000528,"midi":70,"time":57.7726695,"velocity":0.015748031496062992},{"duration":0.04545450000000528,"midi":82,"time":57.7726695,"velocity":0.015748031496062992},{"duration":0.04545450000000528,"midi":94,"time":57.7726695,"velocity":0.015748031496062992},{"duration":0.04545450000000528,"midi":70,"time":57.7726695,"velocity":0.015748031496062992},{"duration":0.04545450000000528,"midi":94,"time":57.7726695,"velocity":0.015748031496062992},{"duration":0.04545450000000528,"midi":82,"time":57.7726695,"velocity":0.015748031496062992},{"duration":0.04545450000000528,"midi":94,"time":57.7726695,"velocity":0.015748031496062992},{"duration":0.04545450000000528,"midi":82,"time":57.7726695,"velocity":0.015748031496062992},{"duration":0.04545450000000528,"midi":82,"time":57.7726695,"velocity":0.015748031496062992},{"duration":0.04545450000000528,"midi":70,"time":57.7726695,"velocity":0.015748031496062992},{"duration":0.04545450000000528,"midi":82,"time":57.7726695,"velocity":0.015748031496062992},{"duration":0.04545450000000528,"midi":82,"time":57.7726695,"velocity":0.015748031496062992},{"duration":0.04545450000000528,"midi":94,"time":57.7726695,"velocity":0.015748031496062992},{"duration":0.04545450000000528,"midi":82,"time":57.7726695,"velocity":0.015748031496062992},{"duration":0.04545450000000528,"midi":70,"time":57.7726695,"velocity":0.015748031496062992},{"duration":0.04545450000000528,"midi":94,"time":57.7726695,"velocity":0.015748031496062992},{"duration":0.04545450000000528,"midi":94,"time":57.7726695,"velocity":0.015748031496062992},{"duration":0.04545450000000528,"midi":70,"time":57.7726695,"velocity":0.015748031496062992},{"duration":0.04545450000000528,"midi":70,"time":57.7726695,"velocity":0.015748031496062992},{"duration":0.04545450000000528,"midi":82,"time":57.7726695,"velocity":0.015748031496062992},{"duration":0.04545450000000528,"midi":94,"time":57.7726695,"velocity":0.015748031496062992},{"duration":0.04545450000000528,"midi":94,"time":57.7726695,"velocity":0.015748031496062992},{"duration":0.04545450000000528,"midi":70,"time":57.7726695,"velocity":0.015748031496062992},{"duration":0.04545449999999818,"midi":94,"time":57.818124000000005,"velocity":0.015748031496062992},{"duration":0.04545449999999818,"midi":82,"time":57.818124000000005,"velocity":0.015748031496062992},{"duration":0.04545449999999818,"midi":70,"time":57.818124000000005,"velocity":0.015748031496062992},{"duration":0.04545449999999818,"midi":94,"time":57.818124000000005,"velocity":0.015748031496062992},{"duration":0.04545449999999818,"midi":82,"time":57.818124000000005,"velocity":0.015748031496062992},{"duration":0.04545449999999818,"midi":70,"time":57.818124000000005,"velocity":0.015748031496062992},{"duration":0.04545449999999818,"midi":82,"time":57.818124000000005,"velocity":0.015748031496062992},{"duration":0.04545449999999818,"midi":94,"time":57.818124000000005,"velocity":0.015748031496062992},{"duration":0.04545449999999818,"midi":82,"time":57.818124000000005,"velocity":0.015748031496062992},{"duration":0.04545449999999818,"midi":70,"time":57.818124000000005,"velocity":0.015748031496062992},{"duration":0.04545449999999818,"midi":94,"time":57.818124000000005,"velocity":0.015748031496062992},{"duration":0.04545449999999818,"midi":70,"time":57.818124000000005,"velocity":0.015748031496062992},{"duration":0.04545449999999818,"midi":70,"time":57.818124000000005,"velocity":0.015748031496062992},{"duration":0.04545449999999818,"midi":70,"time":57.818124000000005,"velocity":0.015748031496062992},{"duration":0.04545449999999818,"midi":94,"time":57.818124000000005,"velocity":0.015748031496062992},{"duration":0.04545449999999818,"midi":94,"time":57.818124000000005,"velocity":0.015748031496062992},{"duration":0.04545449999999818,"midi":94,"time":57.818124000000005,"velocity":0.015748031496062992},{"duration":0.04545449999999818,"midi":82,"time":57.818124000000005,"velocity":0.015748031496062992},{"duration":0.04545449999999818,"midi":82,"time":57.818124000000005,"velocity":0.015748031496062992},{"duration":0.04545449999999818,"midi":82,"time":57.818124000000005,"velocity":0.015748031496062992},{"duration":0.04545449999999818,"midi":70,"time":57.818124000000005,"velocity":0.015748031496062992},{"duration":0.04545449999999818,"midi":94,"time":57.818124000000005,"velocity":0.015748031496062992},{"duration":0.04545449999999818,"midi":70,"time":57.818124000000005,"velocity":0.015748031496062992},{"duration":0.04545449999999818,"midi":82,"time":57.818124000000005,"velocity":0.015748031496062992},{"duration":0.04545449999999818,"midi":94,"time":57.8635785,"velocity":0.015748031496062992},{"duration":0.04545449999999818,"midi":82,"time":57.8635785,"velocity":0.015748031496062992},{"duration":0.04545449999999818,"midi":82,"time":57.8635785,"velocity":0.015748031496062992},{"duration":0.04545449999999818,"midi":82,"time":57.8635785,"velocity":0.015748031496062992},{"duration":0.04545449999999818,"midi":82,"time":57.8635785,"velocity":0.015748031496062992},{"duration":0.04545449999999818,"midi":94,"time":57.8635785,"velocity":0.015748031496062992},{"duration":0.04545449999999818,"midi":70,"time":57.8635785,"velocity":0.015748031496062992},{"duration":0.04545449999999818,"midi":94,"time":57.8635785,"velocity":0.015748031496062992},{"duration":0.04545449999999818,"midi":82,"time":57.8635785,"velocity":0.015748031496062992},{"duration":0.04545449999999818,"midi":70,"time":57.8635785,"velocity":0.015748031496062992},{"duration":0.04545449999999818,"midi":82,"time":57.8635785,"velocity":0.015748031496062992},{"duration":0.04545449999999818,"midi":70,"time":57.8635785,"velocity":0.015748031496062992},{"duration":0.04545449999999818,"midi":82,"time":57.8635785,"velocity":0.015748031496062992},{"duration":0.04545449999999818,"midi":82,"time":57.8635785,"velocity":0.015748031496062992},{"duration":0.04545449999999818,"midi":94,"time":57.8635785,"velocity":0.015748031496062992},{"duration":0.04545449999999818,"midi":70,"time":57.8635785,"velocity":0.015748031496062992},{"duration":0.04545449999999818,"midi":94,"time":57.8635785,"velocity":0.015748031496062992},{"duration":0.04545449999999818,"midi":70,"time":57.8635785,"velocity":0.015748031496062992},{"duration":0.04545449999999818,"midi":94,"time":57.8635785,"velocity":0.015748031496062992},{"duration":0.04545449999999818,"midi":94,"time":57.8635785,"velocity":0.015748031496062992},{"duration":0.04545449999999818,"midi":94,"time":57.8635785,"velocity":0.015748031496062992},{"duration":0.04545449999999818,"midi":70,"time":57.8635785,"velocity":0.015748031496062992},{"duration":0.04545449999999818,"midi":70,"time":57.8635785,"velocity":0.015748031496062992},{"duration":0.04545449999999818,"midi":70,"time":57.8635785,"velocity":0.015748031496062992},{"duration":0.04545449999999818,"midi":82,"time":57.909033,"velocity":0.015748031496062992},{"duration":0.04545449999999818,"midi":94,"time":57.909033,"velocity":0.015748031496062992},{"duration":0.04545449999999818,"midi":94,"time":57.909033,"velocity":0.015748031496062992},{"duration":0.04545449999999818,"midi":70,"time":57.909033,"velocity":0.015748031496062992},{"duration":0.04545449999999818,"midi":82,"time":57.909033,"velocity":0.015748031496062992},{"duration":0.04545449999999818,"midi":70,"time":57.909033,"velocity":0.015748031496062992},{"duration":0.04545449999999818,"midi":82,"time":57.909033,"velocity":0.015748031496062992},{"duration":0.04545449999999818,"midi":94,"time":57.909033,"velocity":0.015748031496062992},{"duration":0.04545449999999818,"midi":94,"time":57.909033,"velocity":0.015748031496062992},{"duration":0.04545449999999818,"midi":70,"time":57.909033,"velocity":0.015748031496062992},{"duration":0.04545449999999818,"midi":94,"time":57.909033,"velocity":0.015748031496062992},{"duration":0.04545449999999818,"midi":70,"time":57.909033,"velocity":0.015748031496062992},{"duration":0.04545449999999818,"midi":82,"time":57.909033,"velocity":0.015748031496062992},{"duration":0.04545449999999818,"midi":94,"time":57.909033,"velocity":0.015748031496062992},{"duration":0.04545449999999818,"midi":82,"time":57.909033,"velocity":0.015748031496062992},{"duration":0.04545449999999818,"midi":94,"time":57.909033,"velocity":0.015748031496062992},{"duration":0.04545449999999818,"midi":70,"time":57.909033,"velocity":0.015748031496062992},{"duration":0.04545449999999818,"midi":82,"time":57.909033,"velocity":0.015748031496062992},{"duration":0.04545449999999818,"midi":94,"time":57.909033,"velocity":0.015748031496062992},{"duration":0.04545449999999818,"midi":70,"time":57.909033,"velocity":0.015748031496062992},{"duration":0.04545449999999818,"midi":82,"time":57.909033,"velocity":0.015748031496062992},{"duration":0.04545449999999818,"midi":70,"time":57.909033,"velocity":0.015748031496062992},{"duration":0.04545449999999818,"midi":82,"time":57.909033,"velocity":0.015748031496062992},{"duration":0.04545449999999818,"midi":70,"time":57.909033,"velocity":0.015748031496062992},{"duration":0.04545450000000528,"midi":70,"time":57.9544875,"velocity":0.015748031496062992},{"duration":0.04545450000000528,"midi":94,"time":57.9544875,"velocity":0.015748031496062992},{"duration":0.04545450000000528,"midi":82,"time":57.9544875,"velocity":0.015748031496062992},{"duration":0.04545450000000528,"midi":94,"time":57.9544875,"velocity":0.015748031496062992},{"duration":0.04545450000000528,"midi":70,"time":57.9544875,"velocity":0.015748031496062992},{"duration":0.04545450000000528,"midi":94,"time":57.9544875,"velocity":0.015748031496062992},{"duration":0.04545450000000528,"midi":70,"time":57.9544875,"velocity":0.015748031496062992},{"duration":0.04545450000000528,"midi":70,"time":57.9544875,"velocity":0.015748031496062992},{"duration":0.04545450000000528,"midi":94,"time":57.9544875,"velocity":0.015748031496062992},{"duration":0.04545450000000528,"midi":82,"time":57.9544875,"velocity":0.015748031496062992},{"duration":0.04545450000000528,"midi":82,"time":57.9544875,"velocity":0.015748031496062992},{"duration":0.04545450000000528,"midi":70,"time":57.9544875,"velocity":0.015748031496062992},{"duration":0.04545450000000528,"midi":94,"time":57.9544875,"velocity":0.015748031496062992},{"duration":0.04545450000000528,"midi":82,"time":57.9544875,"velocity":0.015748031496062992},{"duration":0.04545450000000528,"midi":94,"time":57.9544875,"velocity":0.015748031496062992},{"duration":0.04545450000000528,"midi":70,"time":57.9544875,"velocity":0.015748031496062992},{"duration":0.04545450000000528,"midi":82,"time":57.9544875,"velocity":0.015748031496062992},{"duration":0.04545450000000528,"midi":94,"time":57.9544875,"velocity":0.015748031496062992},{"duration":0.04545450000000528,"midi":94,"time":57.9544875,"velocity":0.015748031496062992},{"duration":0.04545450000000528,"midi":70,"time":57.9544875,"velocity":0.015748031496062992},{"duration":0.04545450000000528,"midi":82,"time":57.9544875,"velocity":0.015748031496062992},{"duration":0.04545450000000528,"midi":70,"time":57.9544875,"velocity":0.015748031496062992},{"duration":0.04545450000000528,"midi":82,"time":57.9544875,"velocity":0.015748031496062992},{"duration":0.04545450000000528,"midi":82,"time":57.9544875,"velocity":0.015748031496062992},{"duration":0.04545449999999818,"midi":94,"time":57.999942000000004,"velocity":0.015748031496062992},{"duration":0.04545449999999818,"midi":70,"time":57.999942000000004,"velocity":0.015748031496062992},{"duration":0.04545449999999818,"midi":70,"time":57.999942000000004,"velocity":0.015748031496062992},{"duration":0.04545449999999818,"midi":70,"time":57.999942000000004,"velocity":0.015748031496062992},{"duration":0.04545449999999818,"midi":94,"time":57.999942000000004,"velocity":0.015748031496062992},{"duration":0.04545449999999818,"midi":82,"time":57.999942000000004,"velocity":0.015748031496062992},{"duration":0.04545449999999818,"midi":82,"time":57.999942000000004,"velocity":0.015748031496062992},{"duration":0.04545449999999818,"midi":82,"time":57.999942000000004,"velocity":0.015748031496062992},{"duration":0.04545449999999818,"midi":82,"time":57.999942000000004,"velocity":0.015748031496062992},{"duration":0.04545449999999818,"midi":94,"time":57.999942000000004,"velocity":0.015748031496062992},{"duration":0.04545449999999818,"midi":82,"time":57.999942000000004,"velocity":0.015748031496062992},{"duration":0.04545449999999818,"midi":94,"time":57.999942000000004,"velocity":0.015748031496062992},{"duration":0.04545449999999818,"midi":82,"time":57.999942000000004,"velocity":0.015748031496062992},{"duration":0.04545449999999818,"midi":94,"time":57.999942000000004,"velocity":0.015748031496062992},{"duration":0.04545449999999818,"midi":94,"time":57.999942000000004,"velocity":0.015748031496062992},{"duration":0.04545449999999818,"midi":94,"time":57.999942000000004,"velocity":0.015748031496062992},{"duration":0.04545449999999818,"midi":82,"time":57.999942000000004,"velocity":0.015748031496062992},{"duration":0.04545449999999818,"midi":70,"time":57.999942000000004,"velocity":0.015748031496062992},{"duration":0.04545449999999818,"midi":94,"time":57.999942000000004,"velocity":0.015748031496062992},{"duration":0.04545449999999818,"midi":70,"time":57.999942000000004,"velocity":0.015748031496062992},{"duration":0.04545449999999818,"midi":94,"time":57.999942000000004,"velocity":0.015748031496062992},{"duration":0.04545449999999818,"midi":70,"time":57.999942000000004,"velocity":0.015748031496062992},{"duration":0.04545449999999818,"midi":70,"time":57.999942000000004,"velocity":0.015748031496062992},{"duration":0.04545449999999818,"midi":70,"time":57.999942000000004,"velocity":0.015748031496062992},{"duration":0.04545449999999818,"midi":82,"time":57.999942000000004,"velocity":0.015748031496062992},{"duration":0.04545449999999818,"midi":70,"time":57.999942000000004,"velocity":0.015748031496062992},{"duration":0.04545449999999818,"midi":82,"time":57.999942000000004,"velocity":0.015748031496062992},{"duration":0.04545449999999818,"midi":70,"time":58.0453965,"velocity":0.015748031496062992},{"duration":0.04545449999999818,"midi":94,"time":58.0453965,"velocity":0.015748031496062992},{"duration":0.04545449999999818,"midi":94,"time":58.0453965,"velocity":0.015748031496062992},{"duration":0.04545449999999818,"midi":70,"time":58.0453965,"velocity":0.015748031496062992},{"duration":0.04545449999999818,"midi":82,"time":58.0453965,"velocity":0.015748031496062992},{"duration":0.04545449999999818,"midi":94,"time":58.0453965,"velocity":0.015748031496062992},{"duration":0.04545449999999818,"midi":82,"time":58.0453965,"velocity":0.015748031496062992},{"duration":0.04545449999999818,"midi":82,"time":58.0453965,"velocity":0.015748031496062992},{"duration":0.04545449999999818,"midi":94,"time":58.0453965,"velocity":0.015748031496062992},{"duration":0.04545449999999818,"midi":70,"time":58.0453965,"velocity":0.015748031496062992},{"duration":0.04545449999999818,"midi":94,"time":58.0453965,"velocity":0.015748031496062992},{"duration":0.04545449999999818,"midi":94,"time":58.0453965,"velocity":0.015748031496062992},{"duration":0.04545449999999818,"midi":82,"time":58.0453965,"velocity":0.015748031496062992},{"duration":0.04545449999999818,"midi":70,"time":58.0453965,"velocity":0.015748031496062992},{"duration":0.04545449999999818,"midi":82,"time":58.0453965,"velocity":0.015748031496062992},{"duration":0.04545449999999818,"midi":70,"time":58.0453965,"velocity":0.015748031496062992},{"duration":0.04545449999999818,"midi":82,"time":58.0453965,"velocity":0.015748031496062992},{"duration":0.04545449999999818,"midi":70,"time":58.0453965,"velocity":0.015748031496062992},{"duration":0.04545449999999818,"midi":82,"time":58.0453965,"velocity":0.015748031496062992},{"duration":0.04545449999999818,"midi":94,"time":58.0453965,"velocity":0.015748031496062992},{"duration":0.04545449999999818,"midi":82,"time":58.0453965,"velocity":0.015748031496062992},{"duration":0.04545449999999818,"midi":94,"time":58.0453965,"velocity":0.015748031496062992},{"duration":0.04545449999999818,"midi":70,"time":58.0453965,"velocity":0.015748031496062992},{"duration":0.04545449999999818,"midi":70,"time":58.0453965,"velocity":0.015748031496062992},{"duration":0.04545449999999818,"midi":94,"time":58.0453965,"velocity":0.015748031496062992},{"duration":0.04545449999999818,"midi":82,"time":58.0453965,"velocity":0.015748031496062992},{"duration":0.04545449999999818,"midi":70,"time":58.0453965,"velocity":0.015748031496062992},{"duration":0.04545449999999818,"midi":70,"time":58.090851,"velocity":0.015748031496062992},{"duration":0.04545449999999818,"midi":94,"time":58.090851,"velocity":0.015748031496062992},{"duration":0.04545449999999818,"midi":70,"time":58.090851,"velocity":0.015748031496062992},{"duration":0.04545449999999818,"midi":94,"time":58.090851,"velocity":0.015748031496062992},{"duration":0.04545449999999818,"midi":82,"time":58.090851,"velocity":0.015748031496062992},{"duration":0.04545449999999818,"midi":70,"time":58.090851,"velocity":0.015748031496062992},{"duration":0.04545449999999818,"midi":70,"time":58.090851,"velocity":0.015748031496062992},{"duration":0.04545449999999818,"midi":82,"time":58.090851,"velocity":0.015748031496062992},{"duration":0.04545449999999818,"midi":82,"time":58.090851,"velocity":0.015748031496062992},{"duration":0.04545449999999818,"midi":82,"time":58.090851,"velocity":0.015748031496062992},{"duration":0.04545449999999818,"midi":70,"time":58.090851,"velocity":0.015748031496062992},{"duration":0.04545449999999818,"midi":82,"time":58.090851,"velocity":0.015748031496062992},{"duration":0.04545449999999818,"midi":82,"time":58.090851,"velocity":0.015748031496062992},{"duration":0.04545449999999818,"midi":94,"time":58.090851,"velocity":0.015748031496062992},{"duration":0.04545449999999818,"midi":70,"time":58.090851,"velocity":0.015748031496062992},{"duration":0.04545449999999818,"midi":82,"time":58.090851,"velocity":0.015748031496062992},{"duration":0.04545449999999818,"midi":82,"time":58.090851,"velocity":0.015748031496062992},{"duration":0.04545449999999818,"midi":70,"time":58.090851,"velocity":0.015748031496062992},{"duration":0.04545449999999818,"midi":82,"time":58.090851,"velocity":0.015748031496062992},{"duration":0.04545449999999818,"midi":94,"time":58.090851,"velocity":0.015748031496062992},{"duration":0.04545449999999818,"midi":70,"time":58.090851,"velocity":0.015748031496062992},{"duration":0.04545449999999818,"midi":94,"time":58.090851,"velocity":0.015748031496062992},{"duration":0.04545449999999818,"midi":94,"time":58.090851,"velocity":0.015748031496062992},{"duration":0.04545449999999818,"midi":70,"time":58.090851,"velocity":0.015748031496062992},{"duration":0.04545449999999818,"midi":94,"time":58.090851,"velocity":0.015748031496062992},{"duration":0.04545449999999818,"midi":94,"time":58.090851,"velocity":0.015748031496062992},{"duration":0.04545449999999818,"midi":94,"time":58.090851,"velocity":0.015748031496062992},{"duration":0.04545450000000528,"midi":94,"time":58.1363055,"velocity":0.015748031496062992},{"duration":0.04545450000000528,"midi":82,"time":58.1363055,"velocity":0.015748031496062992},{"duration":0.04545450000000528,"midi":82,"time":58.1363055,"velocity":0.015748031496062992},{"duration":0.04545450000000528,"midi":94,"time":58.1363055,"velocity":0.015748031496062992},{"duration":0.04545450000000528,"midi":70,"time":58.1363055,"velocity":0.015748031496062992},{"duration":0.04545450000000528,"midi":94,"time":58.1363055,"velocity":0.015748031496062992},{"duration":0.04545450000000528,"midi":82,"time":58.1363055,"velocity":0.015748031496062992},{"duration":0.04545450000000528,"midi":94,"time":58.1363055,"velocity":0.015748031496062992},{"duration":0.04545450000000528,"midi":82,"time":58.1363055,"velocity":0.015748031496062992},{"duration":0.04545450000000528,"midi":70,"time":58.1363055,"velocity":0.015748031496062992},{"duration":0.04545450000000528,"midi":70,"time":58.1363055,"velocity":0.015748031496062992},{"duration":0.04545450000000528,"midi":82,"time":58.1363055,"velocity":0.015748031496062992},{"duration":0.04545450000000528,"midi":82,"time":58.1363055,"velocity":0.015748031496062992},{"duration":0.04545450000000528,"midi":94,"time":58.1363055,"velocity":0.015748031496062992},{"duration":0.04545450000000528,"midi":70,"time":58.1363055,"velocity":0.015748031496062992},{"duration":0.04545450000000528,"midi":94,"time":58.1363055,"velocity":0.015748031496062992},{"duration":0.04545450000000528,"midi":82,"time":58.1363055,"velocity":0.015748031496062992},{"duration":0.04545450000000528,"midi":70,"time":58.1363055,"velocity":0.015748031496062992},{"duration":0.04545450000000528,"midi":70,"time":58.1363055,"velocity":0.015748031496062992},{"duration":0.04545450000000528,"midi":70,"time":58.1363055,"velocity":0.015748031496062992},{"duration":0.04545450000000528,"midi":94,"time":58.1363055,"velocity":0.015748031496062992},{"duration":0.04545450000000528,"midi":70,"time":58.1363055,"velocity":0.015748031496062992},{"duration":0.04545450000000528,"midi":70,"time":58.1363055,"velocity":0.015748031496062992},{"duration":0.04545450000000528,"midi":94,"time":58.1363055,"velocity":0.015748031496062992},{"duration":0.04545450000000528,"midi":94,"time":58.1363055,"velocity":0.015748031496062992},{"duration":0.04545450000000528,"midi":82,"time":58.1363055,"velocity":0.015748031496062992},{"duration":0.04545450000000528,"midi":82,"time":58.1363055,"velocity":0.015748031496062992},{"duration":0.1818179999999998,"midi":55,"time":58.181760000000004,"velocity":0.015748031496062992},{"duration":0.1818179999999998,"midi":55,"time":58.181760000000004,"velocity":0.015748031496062992},{"duration":0.1818179999999998,"midi":55,"time":58.363578000000004,"velocity":0.015748031496062992},{"duration":0.1818179999999998,"midi":55,"time":58.363578000000004,"velocity":0.015748031496062992},{"duration":0.1818179999999998,"midi":55,"time":58.545396000000004,"velocity":0.015748031496062992},{"duration":0.1818179999999998,"midi":55,"time":58.545396000000004,"velocity":0.015748031496062992},{"duration":0.1818179999999998,"midi":55,"time":58.727214000000004,"velocity":0.015748031496062992},{"duration":0.1818179999999998,"midi":55,"time":58.727214000000004,"velocity":0.015748031496062992},{"duration":0.1818179999999998,"midi":55,"time":58.909032,"velocity":0.015748031496062992},{"duration":0.1818179999999998,"midi":55,"time":58.909032,"velocity":0.015748031496062992},{"duration":0.1818179999999998,"midi":55,"time":59.09085,"velocity":0.015748031496062992},{"duration":0.1818179999999998,"midi":55,"time":59.09085,"velocity":0.015748031496062992},{"duration":0.1818179999999998,"midi":55,"time":59.272668,"velocity":0.015748031496062992},{"duration":0.1818179999999998,"midi":55,"time":59.272668,"velocity":0.015748031496062992},{"duration":0.1818179999999998,"midi":55,"time":59.454486,"velocity":0.015748031496062992},{"duration":0.1818179999999998,"midi":55,"time":59.454486,"velocity":0.015748031496062992},{"duration":0.1818179999999998,"midi":58,"time":59.636304,"velocity":0.015748031496062992},{"duration":0.1818179999999998,"midi":58,"time":59.636304,"velocity":0.015748031496062992},{"duration":0.1818179999999998,"midi":58,"time":59.636304,"velocity":0.015748031496062992},{"duration":0.1818179999999998,"midi":58,"time":59.636304,"velocity":0.015748031496062992},{"duration":0.1818179999999998,"midi":58,"time":59.818122,"velocity":0.015748031496062992},{"duration":0.1818179999999998,"midi":58,"time":59.818122,"velocity":0.015748031496062992},{"duration":0.1818179999999998,"midi":58,"time":59.818122,"velocity":0.015748031496062992},{"duration":0.1818179999999998,"midi":58,"time":59.818122,"velocity":0.015748031496062992},{"duration":0.1818179999999998,"midi":58,"time":59.99994,"velocity":0.015748031496062992},{"duration":0.1818179999999998,"midi":58,"time":59.99994,"velocity":0.015748031496062992},{"duration":0.1818179999999998,"midi":58,"time":59.99994,"velocity":0.015748031496062992},{"duration":0.1818179999999998,"midi":58,"time":59.99994,"velocity":0.015748031496062992},{"duration":0.1818179999999998,"midi":58,"time":60.181758,"velocity":0.015748031496062992},{"duration":0.1818179999999998,"midi":58,"time":60.181758,"velocity":0.015748031496062992},{"duration":0.1818179999999998,"midi":58,"time":60.181758,"velocity":0.015748031496062992},{"duration":0.1818179999999998,"midi":58,"time":60.181758,"velocity":0.015748031496062992},{"duration":0.1818179999999998,"midi":58,"time":60.363576,"velocity":0.015748031496062992},{"duration":0.1818179999999998,"midi":58,"time":60.363576,"velocity":0.015748031496062992},{"duration":0.1818179999999998,"midi":58,"time":60.363576,"velocity":0.015748031496062992},{"duration":0.1818179999999998,"midi":58,"time":60.363576,"velocity":0.015748031496062992},{"duration":0.1818179999999998,"midi":58,"time":60.545394,"velocity":0.015748031496062992},{"duration":0.1818179999999998,"midi":58,"time":60.545394,"velocity":0.015748031496062992},{"duration":0.1818179999999998,"midi":58,"time":60.545394,"velocity":0.015748031496062992},{"duration":0.1818179999999998,"midi":58,"time":60.545394,"velocity":0.015748031496062992},{"duration":0.1818179999999998,"midi":60,"time":60.727212,"velocity":0.015748031496062992},{"duration":0.1818179999999998,"midi":60,"time":60.727212,"velocity":0.015748031496062992},{"duration":0.1818179999999998,"midi":60,"time":60.727212,"velocity":0.015748031496062992},{"duration":0.1818179999999998,"midi":60,"time":60.727212,"velocity":0.015748031496062992},{"duration":0.1818179999999998,"midi":58,"time":60.90903,"velocity":0.015748031496062992},{"duration":0.1818179999999998,"midi":58,"time":60.90903,"velocity":0.015748031496062992},{"duration":0.1818179999999998,"midi":58,"time":60.90903,"velocity":0.015748031496062992},{"duration":0.1818179999999998,"midi":58,"time":60.90903,"velocity":0.015748031496062992},{"duration":0.1818179999999998,"midi":57,"time":61.090848,"velocity":0.015748031496062992},{"duration":0.1818179999999998,"midi":57,"time":61.090848,"velocity":0.015748031496062992},{"duration":0.1818179999999998,"midi":57,"time":61.090848,"velocity":0.015748031496062992},{"duration":0.1818179999999998,"midi":57,"time":61.090848,"velocity":0.015748031496062992},{"duration":0.1818179999999998,"midi":57,"time":61.090848,"velocity":0.015748031496062992},{"duration":0.1818179999999998,"midi":57,"time":61.090848,"velocity":0.015748031496062992},{"duration":0.1818179999999998,"midi":57,"time":61.272666,"velocity":0.015748031496062992},{"duration":0.1818179999999998,"midi":57,"time":61.272666,"velocity":0.015748031496062992},{"duration":0.1818179999999998,"midi":57,"time":61.272666,"velocity":0.015748031496062992},{"duration":0.1818179999999998,"midi":57,"time":61.272666,"velocity":0.015748031496062992},{"duration":0.1818179999999998,"midi":57,"time":61.272666,"velocity":0.015748031496062992},{"duration":0.1818179999999998,"midi":57,"time":61.272666,"velocity":0.015748031496062992},{"duration":0.1818179999999998,"midi":57,"time":61.454484,"velocity":0.015748031496062992},{"duration":0.1818179999999998,"midi":57,"time":61.454484,"velocity":0.015748031496062992},{"duration":0.1818179999999998,"midi":57,"time":61.454484,"velocity":0.015748031496062992},{"duration":0.1818179999999998,"midi":57,"time":61.454484,"velocity":0.015748031496062992},{"duration":0.1818179999999998,"midi":57,"time":61.454484,"velocity":0.015748031496062992},{"duration":0.1818179999999998,"midi":57,"time":61.454484,"velocity":0.015748031496062992},{"duration":0.1818179999999998,"midi":57,"time":61.636302,"velocity":0.015748031496062992},{"duration":0.1818179999999998,"midi":57,"time":61.636302,"velocity":0.015748031496062992},{"duration":0.1818179999999998,"midi":57,"time":61.636302,"velocity":0.015748031496062992},{"duration":0.1818179999999998,"midi":57,"time":61.636302,"velocity":0.015748031496062992},{"duration":0.1818179999999998,"midi":57,"time":61.636302,"velocity":0.015748031496062992},{"duration":0.1818179999999998,"midi":57,"time":61.636302,"velocity":0.015748031496062992},{"duration":0.1818179999999998,"midi":57,"time":61.81812,"velocity":0.015748031496062992},{"duration":0.1818179999999998,"midi":57,"time":61.81812,"velocity":0.015748031496062992},{"duration":0.1818179999999998,"midi":57,"time":61.81812,"velocity":0.015748031496062992},{"duration":0.1818179999999998,"midi":57,"time":61.81812,"velocity":0.015748031496062992},{"duration":0.1818179999999998,"midi":57,"time":61.81812,"velocity":0.015748031496062992},{"duration":0.1818179999999998,"midi":57,"time":61.81812,"velocity":0.015748031496062992},{"duration":0.1818179999999998,"midi":57,"time":61.999938,"velocity":0.015748031496062992},{"duration":0.1818179999999998,"midi":57,"time":61.999938,"velocity":0.015748031496062992},{"duration":0.1818179999999998,"midi":57,"time":61.999938,"velocity":0.015748031496062992},{"duration":0.1818179999999998,"midi":57,"time":61.999938,"velocity":0.015748031496062992},{"duration":0.1818179999999998,"midi":57,"time":61.999938,"velocity":0.015748031496062992},{"duration":0.1818179999999998,"midi":57,"time":61.999938,"velocity":0.015748031496062992},{"duration":0.1818179999999998,"midi":57,"time":62.181756,"velocity":0.015748031496062992},{"duration":0.1818179999999998,"midi":57,"time":62.181756,"velocity":0.015748031496062992},{"duration":0.1818179999999998,"midi":57,"time":62.181756,"velocity":0.015748031496062992},{"duration":0.1818179999999998,"midi":57,"time":62.181756,"velocity":0.015748031496062992},{"duration":0.1818179999999998,"midi":57,"time":62.181756,"velocity":0.015748031496062992},{"duration":0.1818179999999998,"midi":57,"time":62.181756,"velocity":0.015748031496062992},{"duration":0.1818179999999998,"midi":57,"time":62.363574,"velocity":0.015748031496062992},{"duration":0.1818179999999998,"midi":57,"time":62.363574,"velocity":0.015748031496062992},{"duration":0.1818179999999998,"midi":57,"time":62.363574,"velocity":0.015748031496062992},{"duration":0.1818179999999998,"midi":57,"time":62.363574,"velocity":0.015748031496062992},{"duration":0.1818179999999998,"midi":57,"time":62.363574,"velocity":0.015748031496062992},{"duration":0.1818179999999998,"midi":57,"time":62.363574,"velocity":0.015748031496062992},{"duration":0.1818179999999998,"midi":58,"time":62.545392,"velocity":0.015748031496062992},{"duration":0.1818179999999998,"midi":58,"time":62.545392,"velocity":0.015748031496062992},{"duration":0.1818179999999998,"midi":58,"time":62.545392,"velocity":0.015748031496062992},{"duration":0.1818179999999998,"midi":58,"time":62.545392,"velocity":0.015748031496062992},{"duration":0.1818179999999998,"midi":58,"time":62.545392,"velocity":0.015748031496062992},{"duration":0.1818179999999998,"midi":58,"time":62.545392,"velocity":0.015748031496062992},{"duration":0.1818179999999998,"midi":58,"time":62.545392,"velocity":0.015748031496062992},{"duration":0.1818179999999998,"midi":58,"time":62.545392,"velocity":0.015748031496062992},{"duration":0.1818179999999998,"midi":58,"time":62.72721,"velocity":0.015748031496062992},{"duration":0.1818179999999998,"midi":58,"time":62.72721,"velocity":0.015748031496062992},{"duration":0.1818179999999998,"midi":58,"time":62.72721,"velocity":0.015748031496062992},{"duration":0.1818179999999998,"midi":58,"time":62.72721,"velocity":0.015748031496062992},{"duration":0.1818179999999998,"midi":58,"time":62.72721,"velocity":0.015748031496062992},{"duration":0.1818179999999998,"midi":58,"time":62.72721,"velocity":0.015748031496062992},{"duration":0.1818179999999998,"midi":58,"time":62.72721,"velocity":0.015748031496062992},{"duration":0.1818179999999998,"midi":58,"time":62.72721,"velocity":0.015748031496062992},{"duration":0.1818179999999998,"midi":58,"time":62.909028,"velocity":0.015748031496062992},{"duration":0.1818179999999998,"midi":58,"time":62.909028,"velocity":0.015748031496062992},{"duration":0.1818179999999998,"midi":58,"time":62.909028,"velocity":0.015748031496062992},{"duration":0.1818179999999998,"midi":58,"time":62.909028,"velocity":0.015748031496062992},{"duration":0.1818179999999998,"midi":58,"time":62.909028,"velocity":0.015748031496062992},{"duration":0.1818179999999998,"midi":58,"time":62.909028,"velocity":0.015748031496062992},{"duration":0.1818179999999998,"midi":58,"time":62.909028,"velocity":0.015748031496062992},{"duration":0.1818179999999998,"midi":58,"time":62.909028,"velocity":0.015748031496062992},{"duration":0.18181800000000692,"midi":58,"time":63.090846,"velocity":0.015748031496062992},{"duration":0.18181800000000692,"midi":58,"time":63.090846,"velocity":0.015748031496062992},{"duration":0.18181800000000692,"midi":58,"time":63.090846,"velocity":0.015748031496062992},{"duration":0.18181800000000692,"midi":58,"time":63.090846,"velocity":0.015748031496062992},{"duration":0.18181800000000692,"midi":58,"time":63.090846,"velocity":0.015748031496062992},{"duration":0.18181800000000692,"midi":58,"time":63.090846,"velocity":0.015748031496062992},{"duration":0.18181800000000692,"midi":58,"time":63.090846,"velocity":0.015748031496062992},{"duration":0.18181800000000692,"midi":58,"time":63.090846,"velocity":0.015748031496062992},{"duration":0.1818179999999998,"midi":58,"time":63.272664000000006,"velocity":0.015748031496062992},{"duration":0.1818179999999998,"midi":58,"time":63.272664000000006,"velocity":0.015748031496062992},{"duration":0.1818179999999998,"midi":58,"time":63.272664000000006,"velocity":0.015748031496062992},{"duration":0.1818179999999998,"midi":58,"time":63.272664000000006,"velocity":0.015748031496062992},{"duration":0.1818179999999998,"midi":58,"time":63.272664000000006,"velocity":0.015748031496062992},{"duration":0.1818179999999998,"midi":58,"time":63.272664000000006,"velocity":0.015748031496062992},{"duration":0.1818179999999998,"midi":58,"time":63.272664000000006,"velocity":0.015748031496062992},{"duration":0.1818179999999998,"midi":58,"time":63.272664000000006,"velocity":0.015748031496062992},{"duration":0.1818179999999998,"midi":58,"time":63.454482000000006,"velocity":0.015748031496062992},{"duration":0.1818179999999998,"midi":58,"time":63.454482000000006,"velocity":0.015748031496062992},{"duration":0.1818179999999998,"midi":58,"time":63.454482000000006,"velocity":0.015748031496062992},{"duration":0.1818179999999998,"midi":58,"time":63.454482000000006,"velocity":0.015748031496062992},{"duration":0.1818179999999998,"midi":58,"time":63.454482000000006,"velocity":0.015748031496062992},{"duration":0.1818179999999998,"midi":58,"time":63.454482000000006,"velocity":0.015748031496062992},{"duration":0.1818179999999998,"midi":58,"time":63.454482000000006,"velocity":0.015748031496062992},{"duration":0.1818179999999998,"midi":58,"time":63.454482000000006,"velocity":0.015748031496062992},{"duration":0.1818179999999998,"midi":58,"time":63.636300000000006,"velocity":0.015748031496062992},{"duration":0.1818179999999998,"midi":58,"time":63.636300000000006,"velocity":0.015748031496062992},{"duration":0.1818179999999998,"midi":58,"time":63.636300000000006,"velocity":0.015748031496062992},{"duration":0.1818179999999998,"midi":58,"time":63.636300000000006,"velocity":0.015748031496062992},{"duration":0.1818179999999998,"midi":58,"time":63.636300000000006,"velocity":0.015748031496062992},{"duration":0.1818179999999998,"midi":58,"time":63.636300000000006,"velocity":0.015748031496062992},{"duration":0.1818179999999998,"midi":58,"time":63.636300000000006,"velocity":0.015748031496062992},{"duration":0.1818179999999998,"midi":58,"time":63.636300000000006,"velocity":0.015748031496062992},{"duration":0.1818179999999998,"midi":58,"time":63.818118000000005,"velocity":0.015748031496062992},{"duration":0.1818179999999998,"midi":58,"time":63.818118000000005,"velocity":0.015748031496062992},{"duration":0.1818179999999998,"midi":58,"time":63.818118000000005,"velocity":0.015748031496062992},{"duration":0.1818179999999998,"midi":58,"time":63.818118000000005,"velocity":0.015748031496062992},{"duration":0.1818179999999998,"midi":58,"time":63.818118000000005,"velocity":0.015748031496062992},{"duration":0.1818179999999998,"midi":58,"time":63.818118000000005,"velocity":0.015748031496062992},{"duration":0.1818179999999998,"midi":58,"time":63.818118000000005,"velocity":0.015748031496062992},{"duration":0.1818179999999998,"midi":58,"time":63.818118000000005,"velocity":0.015748031496062992},{"duration":0.1818179999999927,"midi":62,"time":63.999936000000005,"velocity":0.015748031496062992},{"duration":0.1818179999999927,"midi":62,"time":63.999936000000005,"velocity":0.015748031496062992},{"duration":0.1818179999999927,"midi":62,"time":63.999936000000005,"velocity":0.015748031496062992},{"duration":0.1818179999999927,"midi":62,"time":63.999936000000005,"velocity":0.015748031496062992},{"duration":0.1818179999999927,"midi":62,"time":63.999936000000005,"velocity":0.015748031496062992},{"duration":0.1818179999999927,"midi":62,"time":63.999936000000005,"velocity":0.015748031496062992},{"duration":0.1818179999999927,"midi":62,"time":63.999936000000005,"velocity":0.015748031496062992},{"duration":0.1818179999999927,"midi":62,"time":63.999936000000005,"velocity":0.015748031496062992},{"duration":0.1818179999999927,"midi":62,"time":63.999936000000005,"velocity":0.015748031496062992},{"duration":0.1818179999999927,"midi":62,"time":63.999936000000005,"velocity":0.015748031496062992},{"duration":0.1818179999999927,"midi":62,"time":63.999936000000005,"velocity":0.015748031496062992},{"duration":0.1818179999999927,"midi":62,"time":63.999936000000005,"velocity":0.015748031496062992},{"duration":0.18181800000000692,"midi":62,"time":64.181754,"velocity":0.015748031496062992},{"duration":0.18181800000000692,"midi":62,"time":64.181754,"velocity":0.015748031496062992},{"duration":0.18181800000000692,"midi":62,"time":64.181754,"velocity":0.015748031496062992},{"duration":0.18181800000000692,"midi":62,"time":64.181754,"velocity":0.015748031496062992},{"duration":0.18181800000000692,"midi":62,"time":64.181754,"velocity":0.015748031496062992},{"duration":0.18181800000000692,"midi":62,"time":64.181754,"velocity":0.015748031496062992},{"duration":0.18181800000000692,"midi":62,"time":64.181754,"velocity":0.015748031496062992},{"duration":0.18181800000000692,"midi":62,"time":64.181754,"velocity":0.015748031496062992},{"duration":0.18181800000000692,"midi":62,"time":64.181754,"velocity":0.015748031496062992},{"duration":0.18181800000000692,"midi":62,"time":64.181754,"velocity":0.015748031496062992},{"duration":0.18181800000000692,"midi":62,"time":64.181754,"velocity":0.015748031496062992},{"duration":0.18181800000000692,"midi":62,"time":64.181754,"velocity":0.015748031496062992},{"duration":0.1818179999999927,"midi":62,"time":64.363572,"velocity":0.015748031496062992},{"duration":0.1818179999999927,"midi":62,"time":64.363572,"velocity":0.015748031496062992},{"duration":0.1818179999999927,"midi":62,"time":64.363572,"velocity":0.015748031496062992},{"duration":0.1818179999999927,"midi":62,"time":64.363572,"velocity":0.015748031496062992},{"duration":0.1818179999999927,"midi":62,"time":64.363572,"velocity":0.015748031496062992},{"duration":0.1818179999999927,"midi":62,"time":64.363572,"velocity":0.015748031496062992},{"duration":0.1818179999999927,"midi":62,"time":64.363572,"velocity":0.015748031496062992},{"duration":0.1818179999999927,"midi":62,"time":64.363572,"velocity":0.015748031496062992},{"duration":0.1818179999999927,"midi":62,"time":64.363572,"velocity":0.015748031496062992},{"duration":0.1818179999999927,"midi":62,"time":64.363572,"velocity":0.015748031496062992},{"duration":0.1818179999999927,"midi":62,"time":64.363572,"velocity":0.015748031496062992},{"duration":0.1818179999999927,"midi":62,"time":64.363572,"velocity":0.015748031496062992},{"duration":0.18181800000000692,"midi":62,"time":64.54539,"velocity":0.015748031496062992},{"duration":0.18181800000000692,"midi":62,"time":64.54539,"velocity":0.015748031496062992},{"duration":0.18181800000000692,"midi":62,"time":64.54539,"velocity":0.015748031496062992},{"duration":0.18181800000000692,"midi":62,"time":64.54539,"velocity":0.015748031496062992},{"duration":0.18181800000000692,"midi":62,"time":64.54539,"velocity":0.015748031496062992},{"duration":0.18181800000000692,"midi":62,"time":64.54539,"velocity":0.015748031496062992},{"duration":0.18181800000000692,"midi":62,"time":64.54539,"velocity":0.015748031496062992},{"duration":0.18181800000000692,"midi":62,"time":64.54539,"velocity":0.015748031496062992},{"duration":0.18181800000000692,"midi":62,"time":64.54539,"velocity":0.015748031496062992},{"duration":0.18181800000000692,"midi":62,"time":64.54539,"velocity":0.015748031496062992},{"duration":0.18181800000000692,"midi":62,"time":64.54539,"velocity":0.015748031496062992},{"duration":0.18181800000000692,"midi":62,"time":64.54539,"velocity":0.015748031496062992},{"duration":0.1818179999999927,"midi":62,"time":64.727208,"velocity":0.015748031496062992},{"duration":0.1818179999999927,"midi":62,"time":64.727208,"velocity":0.015748031496062992},{"duration":0.1818179999999927,"midi":62,"time":64.727208,"velocity":0.015748031496062992},{"duration":0.1818179999999927,"midi":62,"time":64.727208,"velocity":0.015748031496062992},{"duration":0.1818179999999927,"midi":62,"time":64.727208,"velocity":0.015748031496062992},{"duration":0.1818179999999927,"midi":62,"time":64.727208,"velocity":0.015748031496062992},{"duration":0.1818179999999927,"midi":62,"time":64.727208,"velocity":0.015748031496062992},{"duration":0.1818179999999927,"midi":62,"time":64.727208,"velocity":0.015748031496062992},{"duration":0.1818179999999927,"midi":62,"time":64.727208,"velocity":0.015748031496062992},{"duration":0.1818179999999927,"midi":62,"time":64.727208,"velocity":0.015748031496062992},{"duration":0.1818179999999927,"midi":62,"time":64.727208,"velocity":0.015748031496062992},{"duration":0.1818179999999927,"midi":62,"time":64.727208,"velocity":0.015748031496062992},{"duration":0.18181800000000692,"midi":62,"time":64.909026,"velocity":0.015748031496062992},{"duration":0.18181800000000692,"midi":62,"time":64.909026,"velocity":0.015748031496062992},{"duration":0.18181800000000692,"midi":62,"time":64.909026,"velocity":0.015748031496062992},{"duration":0.18181800000000692,"midi":62,"time":64.909026,"velocity":0.015748031496062992},{"duration":0.18181800000000692,"midi":62,"time":64.909026,"velocity":0.015748031496062992},{"duration":0.18181800000000692,"midi":62,"time":64.909026,"velocity":0.015748031496062992},{"duration":0.18181800000000692,"midi":62,"time":64.909026,"velocity":0.015748031496062992},{"duration":0.18181800000000692,"midi":62,"time":64.909026,"velocity":0.015748031496062992},{"duration":0.18181800000000692,"midi":62,"time":64.909026,"velocity":0.015748031496062992},{"duration":0.18181800000000692,"midi":62,"time":64.909026,"velocity":0.015748031496062992},{"duration":0.18181800000000692,"midi":62,"time":64.909026,"velocity":0.015748031496062992},{"duration":0.18181800000000692,"midi":62,"time":64.909026,"velocity":0.015748031496062992},{"duration":0.1818179999999927,"midi":62,"time":65.090844,"velocity":0.015748031496062992},{"duration":0.1818179999999927,"midi":62,"time":65.090844,"velocity":0.015748031496062992},{"duration":0.1818179999999927,"midi":62,"time":65.090844,"velocity":0.015748031496062992},{"duration":0.1818179999999927,"midi":62,"time":65.090844,"velocity":0.015748031496062992},{"duration":0.1818179999999927,"midi":62,"time":65.090844,"velocity":0.015748031496062992},{"duration":0.1818179999999927,"midi":62,"time":65.090844,"velocity":0.015748031496062992},{"duration":0.1818179999999927,"midi":62,"time":65.090844,"velocity":0.015748031496062992},{"duration":0.1818179999999927,"midi":62,"time":65.090844,"velocity":0.015748031496062992},{"duration":0.1818179999999927,"midi":62,"time":65.090844,"velocity":0.015748031496062992},{"duration":0.1818179999999927,"midi":62,"time":65.090844,"velocity":0.015748031496062992},{"duration":0.1818179999999927,"midi":62,"time":65.090844,"velocity":0.015748031496062992},{"duration":0.1818179999999927,"midi":62,"time":65.090844,"velocity":0.015748031496062992},{"duration":0.18181800000000692,"midi":63,"time":65.272662,"velocity":0.015748031496062992},{"duration":0.18181800000000692,"midi":63,"time":65.272662,"velocity":0.015748031496062992},{"duration":0.18181800000000692,"midi":63,"time":65.272662,"velocity":0.015748031496062992},{"duration":0.18181800000000692,"midi":63,"time":65.272662,"velocity":0.015748031496062992},{"duration":0.18181800000000692,"midi":63,"time":65.272662,"velocity":0.015748031496062992},{"duration":0.18181800000000692,"midi":63,"time":65.272662,"velocity":0.015748031496062992},{"duration":0.18181800000000692,"midi":63,"time":65.272662,"velocity":0.015748031496062992},{"duration":0.18181800000000692,"midi":63,"time":65.272662,"velocity":0.015748031496062992},{"duration":0.18181800000000692,"midi":63,"time":65.272662,"velocity":0.015748031496062992},{"duration":0.18181800000000692,"midi":63,"time":65.272662,"velocity":0.015748031496062992},{"duration":0.18181800000000692,"midi":63,"time":65.272662,"velocity":0.015748031496062992},{"duration":0.18181800000000692,"midi":63,"time":65.272662,"velocity":0.015748031496062992},{"duration":0.1818179999999927,"midi":62,"time":65.45448,"velocity":0.015748031496062992},{"duration":0.1818179999999927,"midi":62,"time":65.45448,"velocity":0.015748031496062992},{"duration":0.1818179999999927,"midi":62,"time":65.45448,"velocity":0.015748031496062992},{"duration":0.1818179999999927,"midi":62,"time":65.45448,"velocity":0.015748031496062992},{"duration":0.1818179999999927,"midi":62,"time":65.45448,"velocity":0.015748031496062992},{"duration":0.1818179999999927,"midi":62,"time":65.45448,"velocity":0.015748031496062992},{"duration":0.1818179999999927,"midi":62,"time":65.45448,"velocity":0.015748031496062992},{"duration":0.1818179999999927,"midi":62,"time":65.45448,"velocity":0.015748031496062992},{"duration":0.1818179999999927,"midi":62,"time":65.45448,"velocity":0.015748031496062992},{"duration":0.1818179999999927,"midi":62,"time":65.45448,"velocity":0.015748031496062992},{"duration":0.1818179999999927,"midi":62,"time":65.45448,"velocity":0.015748031496062992},{"duration":0.1818179999999927,"midi":62,"time":65.45448,"velocity":0.015748031496062992},{"duration":0.18181800000000692,"midi":62,"time":65.636298,"velocity":0.015748031496062992},{"duration":0.18181800000000692,"midi":62,"time":65.636298,"velocity":0.015748031496062992},{"duration":0.18181800000000692,"midi":62,"time":65.636298,"velocity":0.015748031496062992},{"duration":0.18181800000000692,"midi":62,"time":65.636298,"velocity":0.015748031496062992},{"duration":0.18181800000000692,"midi":62,"time":65.636298,"velocity":0.015748031496062992},{"duration":0.18181800000000692,"midi":62,"time":65.636298,"velocity":0.015748031496062992},{"duration":0.18181800000000692,"midi":62,"time":65.636298,"velocity":0.015748031496062992},{"duration":0.18181800000000692,"midi":62,"time":65.636298,"velocity":0.015748031496062992},{"duration":0.18181800000000692,"midi":62,"time":65.636298,"velocity":0.015748031496062992},{"duration":0.18181800000000692,"midi":62,"time":65.636298,"velocity":0.015748031496062992},{"duration":0.18181800000000692,"midi":62,"time":65.636298,"velocity":0.015748031496062992},{"duration":0.18181800000000692,"midi":62,"time":65.636298,"velocity":0.015748031496062992},{"duration":0.1818179999999927,"midi":62,"time":65.818116,"velocity":0.015748031496062992},{"duration":0.1818179999999927,"midi":62,"time":65.818116,"velocity":0.015748031496062992},{"duration":0.1818179999999927,"midi":62,"time":65.818116,"velocity":0.015748031496062992},{"duration":0.1818179999999927,"midi":62,"time":65.818116,"velocity":0.015748031496062992},{"duration":0.1818179999999927,"midi":62,"time":65.818116,"velocity":0.015748031496062992},{"duration":0.1818179999999927,"midi":62,"time":65.818116,"velocity":0.015748031496062992},{"duration":0.1818179999999927,"midi":62,"time":65.818116,"velocity":0.015748031496062992},{"duration":0.1818179999999927,"midi":62,"time":65.818116,"velocity":0.015748031496062992},{"duration":0.1818179999999927,"midi":62,"time":65.818116,"velocity":0.015748031496062992},{"duration":0.1818179999999927,"midi":62,"time":65.818116,"velocity":0.015748031496062992},{"duration":0.1818179999999927,"midi":62,"time":65.818116,"velocity":0.015748031496062992},{"duration":0.1818179999999927,"midi":62,"time":65.818116,"velocity":0.015748031496062992},{"duration":0.18181800000000692,"midi":62,"time":65.999934,"velocity":0.015748031496062992},{"duration":0.18181800000000692,"midi":62,"time":65.999934,"velocity":0.015748031496062992},{"duration":0.18181800000000692,"midi":62,"time":65.999934,"velocity":0.015748031496062992},{"duration":0.18181800000000692,"midi":62,"time":65.999934,"velocity":0.015748031496062992},{"duration":0.18181800000000692,"midi":62,"time":65.999934,"velocity":0.015748031496062992},{"duration":0.18181800000000692,"midi":62,"time":65.999934,"velocity":0.015748031496062992},{"duration":0.18181800000000692,"midi":62,"time":65.999934,"velocity":0.015748031496062992},{"duration":0.18181800000000692,"midi":62,"time":65.999934,"velocity":0.015748031496062992},{"duration":0.18181800000000692,"midi":62,"time":65.999934,"velocity":0.015748031496062992},{"duration":0.18181800000000692,"midi":62,"time":65.999934,"velocity":0.015748031496062992},{"duration":0.18181800000000692,"midi":62,"time":65.999934,"velocity":0.015748031496062992},{"duration":0.18181800000000692,"midi":62,"time":65.999934,"velocity":0.015748031496062992},{"duration":0.1818179999999927,"midi":62,"time":66.181752,"velocity":0.015748031496062992},{"duration":0.1818179999999927,"midi":62,"time":66.181752,"velocity":0.015748031496062992},{"duration":0.1818179999999927,"midi":62,"time":66.181752,"velocity":0.015748031496062992},{"duration":0.1818179999999927,"midi":62,"time":66.181752,"velocity":0.015748031496062992},{"duration":0.1818179999999927,"midi":62,"time":66.181752,"velocity":0.015748031496062992},{"duration":0.1818179999999927,"midi":62,"time":66.181752,"velocity":0.015748031496062992},{"duration":0.1818179999999927,"midi":62,"time":66.181752,"velocity":0.015748031496062992},{"duration":0.1818179999999927,"midi":62,"time":66.181752,"velocity":0.015748031496062992},{"duration":0.1818179999999927,"midi":62,"time":66.181752,"velocity":0.015748031496062992},{"duration":0.1818179999999927,"midi":62,"time":66.181752,"velocity":0.015748031496062992},{"duration":0.1818179999999927,"midi":62,"time":66.181752,"velocity":0.015748031496062992},{"duration":0.1818179999999927,"midi":62,"time":66.181752,"velocity":0.015748031496062992},{"duration":0.18181800000000692,"midi":62,"time":66.36357,"velocity":0.015748031496062992},{"duration":0.18181800000000692,"midi":62,"time":66.36357,"velocity":0.015748031496062992},{"duration":0.18181800000000692,"midi":62,"time":66.36357,"velocity":0.015748031496062992},{"duration":0.18181800000000692,"midi":62,"time":66.36357,"velocity":0.015748031496062992},{"duration":0.18181800000000692,"midi":62,"time":66.36357,"velocity":0.015748031496062992},{"duration":0.18181800000000692,"midi":62,"time":66.36357,"velocity":0.015748031496062992},{"duration":0.18181800000000692,"midi":62,"time":66.36357,"velocity":0.015748031496062992},{"duration":0.18181800000000692,"midi":62,"time":66.36357,"velocity":0.015748031496062992},{"duration":0.18181800000000692,"midi":62,"time":66.36357,"velocity":0.015748031496062992},{"duration":0.18181800000000692,"midi":62,"time":66.36357,"velocity":0.015748031496062992},{"duration":0.18181800000000692,"midi":62,"time":66.36357,"velocity":0.015748031496062992},{"duration":0.18181800000000692,"midi":62,"time":66.36357,"velocity":0.015748031496062992},{"duration":0.18181800000000692,"midi":62,"time":66.545388,"velocity":0.015748031496062992},{"duration":0.18181800000000692,"midi":62,"time":66.545388,"velocity":0.015748031496062992},{"duration":0.18181800000000692,"midi":62,"time":66.545388,"velocity":0.015748031496062992},{"duration":0.18181800000000692,"midi":62,"time":66.545388,"velocity":0.015748031496062992},{"duration":0.18181800000000692,"midi":62,"time":66.545388,"velocity":0.015748031496062992},{"duration":0.18181800000000692,"midi":62,"time":66.545388,"velocity":0.015748031496062992},{"duration":0.18181800000000692,"midi":62,"time":66.545388,"velocity":0.015748031496062992},{"duration":0.18181800000000692,"midi":62,"time":66.545388,"velocity":0.015748031496062992},{"duration":0.18181800000000692,"midi":62,"time":66.545388,"velocity":0.015748031496062992},{"duration":0.18181800000000692,"midi":62,"time":66.545388,"velocity":0.015748031496062992},{"duration":0.18181800000000692,"midi":62,"time":66.545388,"velocity":0.015748031496062992},{"duration":0.18181800000000692,"midi":62,"time":66.545388,"velocity":0.015748031496062992},{"duration":0.1818179999999927,"midi":62,"time":66.72720600000001,"velocity":0.015748031496062992},{"duration":0.1818179999999927,"midi":62,"time":66.72720600000001,"velocity":0.015748031496062992},{"duration":0.1818179999999927,"midi":62,"time":66.72720600000001,"velocity":0.015748031496062992},{"duration":0.1818179999999927,"midi":62,"time":66.72720600000001,"velocity":0.015748031496062992},{"duration":0.1818179999999927,"midi":62,"time":66.72720600000001,"velocity":0.015748031496062992},{"duration":0.1818179999999927,"midi":62,"time":66.72720600000001,"velocity":0.015748031496062992},{"duration":0.1818179999999927,"midi":62,"time":66.72720600000001,"velocity":0.015748031496062992},{"duration":0.1818179999999927,"midi":62,"time":66.72720600000001,"velocity":0.015748031496062992},{"duration":0.1818179999999927,"midi":62,"time":66.72720600000001,"velocity":0.015748031496062992},{"duration":0.1818179999999927,"midi":62,"time":66.72720600000001,"velocity":0.015748031496062992},{"duration":0.1818179999999927,"midi":62,"time":66.72720600000001,"velocity":0.015748031496062992},{"duration":0.1818179999999927,"midi":62,"time":66.72720600000001,"velocity":0.015748031496062992},{"duration":0.18181800000000692,"midi":57,"time":66.909024,"velocity":0.015748031496062992},{"duration":0.18181800000000692,"midi":57,"time":66.909024,"velocity":0.015748031496062992},{"duration":0.18181800000000692,"midi":57,"time":66.909024,"velocity":0.015748031496062992},{"duration":0.18181800000000692,"midi":57,"time":66.909024,"velocity":0.015748031496062992},{"duration":0.18181800000000692,"midi":57,"time":66.909024,"velocity":0.015748031496062992},{"duration":0.18181800000000692,"midi":57,"time":66.909024,"velocity":0.015748031496062992},{"duration":0.18181800000000692,"midi":57,"time":66.909024,"velocity":0.015748031496062992},{"duration":0.18181800000000692,"midi":57,"time":66.909024,"velocity":0.015748031496062992},{"duration":0.18181800000000692,"midi":57,"time":66.909024,"velocity":0.015748031496062992},{"duration":0.18181800000000692,"midi":57,"time":66.909024,"velocity":0.015748031496062992},{"duration":0.18181800000000692,"midi":57,"time":66.909024,"velocity":0.015748031496062992},{"duration":0.18181800000000692,"midi":57,"time":66.909024,"velocity":0.015748031496062992},{"duration":0.18181800000000692,"midi":57,"time":66.909024,"velocity":0.015748031496062992},{"duration":0.18181800000000692,"midi":57,"time":66.909024,"velocity":0.015748031496062992},{"duration":0.1818179999999927,"midi":57,"time":67.09084200000001,"velocity":0.015748031496062992},{"duration":0.1818179999999927,"midi":57,"time":67.09084200000001,"velocity":0.015748031496062992},{"duration":0.1818179999999927,"midi":57,"time":67.09084200000001,"velocity":0.015748031496062992},{"duration":0.1818179999999927,"midi":57,"time":67.09084200000001,"velocity":0.015748031496062992},{"duration":0.1818179999999927,"midi":57,"time":67.09084200000001,"velocity":0.015748031496062992},{"duration":0.1818179999999927,"midi":57,"time":67.09084200000001,"velocity":0.015748031496062992},{"duration":0.1818179999999927,"midi":57,"time":67.09084200000001,"velocity":0.015748031496062992},{"duration":0.1818179999999927,"midi":57,"time":67.09084200000001,"velocity":0.015748031496062992},{"duration":0.1818179999999927,"midi":57,"time":67.09084200000001,"velocity":0.015748031496062992},{"duration":0.1818179999999927,"midi":57,"time":67.09084200000001,"velocity":0.015748031496062992},{"duration":0.1818179999999927,"midi":57,"time":67.09084200000001,"velocity":0.015748031496062992},{"duration":0.1818179999999927,"midi":57,"time":67.09084200000001,"velocity":0.015748031496062992},{"duration":0.1818179999999927,"midi":57,"time":67.09084200000001,"velocity":0.015748031496062992},{"duration":0.1818179999999927,"midi":57,"time":67.09084200000001,"velocity":0.015748031496062992},{"duration":0.18181800000000692,"midi":57,"time":67.27266,"velocity":0.015748031496062992},{"duration":0.18181800000000692,"midi":57,"time":67.27266,"velocity":0.015748031496062992},{"duration":0.18181800000000692,"midi":57,"time":67.27266,"velocity":0.015748031496062992},{"duration":0.18181800000000692,"midi":57,"time":67.27266,"velocity":0.015748031496062992},{"duration":0.18181800000000692,"midi":57,"time":67.27266,"velocity":0.015748031496062992},{"duration":0.18181800000000692,"midi":57,"time":67.27266,"velocity":0.015748031496062992},{"duration":0.18181800000000692,"midi":57,"time":67.27266,"velocity":0.015748031496062992},{"duration":0.18181800000000692,"midi":57,"time":67.27266,"velocity":0.015748031496062992},{"duration":0.18181800000000692,"midi":57,"time":67.27266,"velocity":0.015748031496062992},{"duration":0.18181800000000692,"midi":57,"time":67.27266,"velocity":0.015748031496062992},{"duration":0.18181800000000692,"midi":57,"time":67.27266,"velocity":0.015748031496062992},{"duration":0.18181800000000692,"midi":57,"time":67.27266,"velocity":0.015748031496062992},{"duration":0.18181800000000692,"midi":57,"time":67.27266,"velocity":0.015748031496062992},{"duration":0.18181800000000692,"midi":57,"time":67.27266,"velocity":0.015748031496062992},{"duration":0.1818179999999927,"midi":57,"time":67.45447800000001,"velocity":0.015748031496062992},{"duration":0.1818179999999927,"midi":57,"time":67.45447800000001,"velocity":0.015748031496062992},{"duration":0.1818179999999927,"midi":57,"time":67.45447800000001,"velocity":0.015748031496062992},{"duration":0.1818179999999927,"midi":57,"time":67.45447800000001,"velocity":0.015748031496062992},{"duration":0.1818179999999927,"midi":57,"time":67.45447800000001,"velocity":0.015748031496062992},{"duration":0.1818179999999927,"midi":57,"time":67.45447800000001,"velocity":0.015748031496062992},{"duration":0.1818179999999927,"midi":57,"time":67.45447800000001,"velocity":0.015748031496062992},{"duration":0.1818179999999927,"midi":57,"time":67.45447800000001,"velocity":0.015748031496062992},{"duration":0.1818179999999927,"midi":57,"time":67.45447800000001,"velocity":0.015748031496062992},{"duration":0.1818179999999927,"midi":57,"time":67.45447800000001,"velocity":0.015748031496062992},{"duration":0.1818179999999927,"midi":57,"time":67.45447800000001,"velocity":0.015748031496062992},{"duration":0.1818179999999927,"midi":57,"time":67.45447800000001,"velocity":0.015748031496062992},{"duration":0.1818179999999927,"midi":57,"time":67.45447800000001,"velocity":0.015748031496062992},{"duration":0.1818179999999927,"midi":57,"time":67.45447800000001,"velocity":0.015748031496062992},{"duration":0.18181800000000692,"midi":57,"time":67.636296,"velocity":0.015748031496062992},{"duration":0.18181800000000692,"midi":57,"time":67.636296,"velocity":0.015748031496062992},{"duration":0.18181800000000692,"midi":57,"time":67.636296,"velocity":0.015748031496062992},{"duration":0.18181800000000692,"midi":57,"time":67.636296,"velocity":0.015748031496062992},{"duration":0.18181800000000692,"midi":57,"time":67.636296,"velocity":0.015748031496062992},{"duration":0.18181800000000692,"midi":57,"time":67.636296,"velocity":0.015748031496062992},{"duration":0.18181800000000692,"midi":57,"time":67.636296,"velocity":0.015748031496062992},{"duration":0.18181800000000692,"midi":57,"time":67.636296,"velocity":0.015748031496062992},{"duration":0.18181800000000692,"midi":57,"time":67.636296,"velocity":0.015748031496062992},{"duration":0.18181800000000692,"midi":57,"time":67.636296,"velocity":0.015748031496062992},{"duration":0.18181800000000692,"midi":57,"time":67.636296,"velocity":0.015748031496062992},{"duration":0.18181800000000692,"midi":57,"time":67.636296,"velocity":0.015748031496062992},{"duration":0.18181800000000692,"midi":57,"time":67.636296,"velocity":0.015748031496062992},{"duration":0.18181800000000692,"midi":57,"time":67.636296,"velocity":0.015748031496062992},{"duration":0.1818179999999927,"midi":57,"time":67.81811400000001,"velocity":0.015748031496062992},{"duration":0.1818179999999927,"midi":57,"time":67.81811400000001,"velocity":0.015748031496062992},{"duration":0.1818179999999927,"midi":57,"time":67.81811400000001,"velocity":0.015748031496062992},{"duration":0.1818179999999927,"midi":57,"time":67.81811400000001,"velocity":0.015748031496062992},{"duration":0.1818179999999927,"midi":57,"time":67.81811400000001,"velocity":0.015748031496062992},{"duration":0.1818179999999927,"midi":57,"time":67.81811400000001,"velocity":0.015748031496062992},{"duration":0.1818179999999927,"midi":57,"time":67.81811400000001,"velocity":0.015748031496062992},{"duration":0.1818179999999927,"midi":57,"time":67.81811400000001,"velocity":0.015748031496062992},{"duration":0.1818179999999927,"midi":57,"time":67.81811400000001,"velocity":0.015748031496062992},{"duration":0.1818179999999927,"midi":57,"time":67.81811400000001,"velocity":0.015748031496062992},{"duration":0.1818179999999927,"midi":57,"time":67.81811400000001,"velocity":0.015748031496062992},{"duration":0.1818179999999927,"midi":57,"time":67.81811400000001,"velocity":0.015748031496062992},{"duration":0.1818179999999927,"midi":57,"time":67.81811400000001,"velocity":0.015748031496062992},{"duration":0.1818179999999927,"midi":57,"time":67.81811400000001,"velocity":0.015748031496062992},{"duration":0.18181800000000692,"midi":58,"time":67.999932,"velocity":0.015748031496062992},{"duration":0.18181800000000692,"midi":58,"time":67.999932,"velocity":0.015748031496062992},{"duration":0.18181800000000692,"midi":58,"time":67.999932,"velocity":0.015748031496062992},{"duration":0.18181800000000692,"midi":58,"time":67.999932,"velocity":0.015748031496062992},{"duration":0.18181800000000692,"midi":58,"time":67.999932,"velocity":0.015748031496062992},{"duration":0.18181800000000692,"midi":58,"time":67.999932,"velocity":0.015748031496062992},{"duration":0.18181800000000692,"midi":58,"time":67.999932,"velocity":0.015748031496062992},{"duration":0.18181800000000692,"midi":58,"time":67.999932,"velocity":0.015748031496062992},{"duration":0.18181800000000692,"midi":58,"time":67.999932,"velocity":0.015748031496062992},{"duration":0.18181800000000692,"midi":58,"time":67.999932,"velocity":0.015748031496062992},{"duration":0.18181800000000692,"midi":58,"time":67.999932,"velocity":0.015748031496062992},{"duration":0.18181800000000692,"midi":58,"time":67.999932,"velocity":0.015748031496062992},{"duration":0.18181800000000692,"midi":58,"time":67.999932,"velocity":0.015748031496062992},{"duration":0.18181800000000692,"midi":58,"time":67.999932,"velocity":0.015748031496062992},{"duration":0.1818179999999927,"midi":57,"time":68.18175000000001,"velocity":0.015748031496062992},{"duration":0.1818179999999927,"midi":57,"time":68.18175000000001,"velocity":0.015748031496062992},{"duration":0.1818179999999927,"midi":57,"time":68.18175000000001,"velocity":0.015748031496062992},{"duration":0.1818179999999927,"midi":57,"time":68.18175000000001,"velocity":0.015748031496062992},{"duration":0.1818179999999927,"midi":57,"time":68.18175000000001,"velocity":0.015748031496062992},{"duration":0.1818179999999927,"midi":57,"time":68.18175000000001,"velocity":0.015748031496062992},{"duration":0.1818179999999927,"midi":57,"time":68.18175000000001,"velocity":0.015748031496062992},{"duration":0.1818179999999927,"midi":57,"time":68.18175000000001,"velocity":0.015748031496062992},{"duration":0.1818179999999927,"midi":57,"time":68.18175000000001,"velocity":0.015748031496062992},{"duration":0.1818179999999927,"midi":57,"time":68.18175000000001,"velocity":0.015748031496062992},{"duration":0.1818179999999927,"midi":57,"time":68.18175000000001,"velocity":0.015748031496062992},{"duration":0.1818179999999927,"midi":57,"time":68.18175000000001,"velocity":0.015748031496062992},{"duration":0.1818179999999927,"midi":57,"time":68.18175000000001,"velocity":0.015748031496062992},{"duration":0.1818179999999927,"midi":57,"time":68.18175000000001,"velocity":0.015748031496062992},{"duration":0.18181800000000692,"midi":55,"time":68.363568,"velocity":0.015748031496062992},{"duration":0.18181800000000692,"midi":55,"time":68.363568,"velocity":0.015748031496062992},{"duration":0.18181800000000692,"midi":55,"time":68.363568,"velocity":0.015748031496062992},{"duration":0.18181800000000692,"midi":55,"time":68.363568,"velocity":0.015748031496062992},{"duration":0.18181800000000692,"midi":55,"time":68.363568,"velocity":0.015748031496062992},{"duration":0.18181800000000692,"midi":55,"time":68.363568,"velocity":0.015748031496062992},{"duration":0.18181800000000692,"midi":55,"time":68.363568,"velocity":0.015748031496062992},{"duration":0.18181800000000692,"midi":55,"time":68.363568,"velocity":0.015748031496062992},{"duration":0.18181800000000692,"midi":55,"time":68.363568,"velocity":0.015748031496062992},{"duration":0.18181800000000692,"midi":55,"time":68.363568,"velocity":0.015748031496062992},{"duration":0.18181800000000692,"midi":55,"time":68.363568,"velocity":0.015748031496062992},{"duration":0.18181800000000692,"midi":55,"time":68.363568,"velocity":0.015748031496062992},{"duration":0.18181800000000692,"midi":55,"time":68.363568,"velocity":0.015748031496062992},{"duration":0.18181800000000692,"midi":55,"time":68.363568,"velocity":0.015748031496062992},{"duration":0.18181800000000692,"midi":55,"time":68.363568,"velocity":0.015748031496062992},{"duration":0.18181800000000692,"midi":55,"time":68.363568,"velocity":0.015748031496062992},{"duration":0.1818179999999927,"midi":55,"time":68.54538600000001,"velocity":0.015748031496062992},{"duration":0.1818179999999927,"midi":55,"time":68.54538600000001,"velocity":0.015748031496062992},{"duration":0.1818179999999927,"midi":55,"time":68.54538600000001,"velocity":0.015748031496062992},{"duration":0.1818179999999927,"midi":55,"time":68.54538600000001,"velocity":0.015748031496062992},{"duration":0.1818179999999927,"midi":55,"time":68.54538600000001,"velocity":0.015748031496062992},{"duration":0.1818179999999927,"midi":55,"time":68.54538600000001,"velocity":0.015748031496062992},{"duration":0.1818179999999927,"midi":55,"time":68.54538600000001,"velocity":0.015748031496062992},{"duration":0.1818179999999927,"midi":55,"time":68.54538600000001,"velocity":0.015748031496062992},{"duration":0.1818179999999927,"midi":55,"time":68.54538600000001,"velocity":0.015748031496062992},{"duration":0.1818179999999927,"midi":55,"time":68.54538600000001,"velocity":0.015748031496062992},{"duration":0.1818179999999927,"midi":55,"time":68.54538600000001,"velocity":0.015748031496062992},{"duration":0.1818179999999927,"midi":55,"time":68.54538600000001,"velocity":0.015748031496062992},{"duration":0.1818179999999927,"midi":55,"time":68.54538600000001,"velocity":0.015748031496062992},{"duration":0.1818179999999927,"midi":55,"time":68.54538600000001,"velocity":0.015748031496062992},{"duration":0.1818179999999927,"midi":55,"time":68.54538600000001,"velocity":0.015748031496062992},{"duration":0.1818179999999927,"midi":55,"time":68.54538600000001,"velocity":0.015748031496062992},{"duration":0.18181800000000692,"midi":55,"time":68.727204,"velocity":0.015748031496062992},{"duration":0.18181800000000692,"midi":55,"time":68.727204,"velocity":0.015748031496062992},{"duration":0.18181800000000692,"midi":55,"time":68.727204,"velocity":0.015748031496062992},{"duration":0.18181800000000692,"midi":55,"time":68.727204,"velocity":0.015748031496062992},{"duration":0.18181800000000692,"midi":55,"time":68.727204,"velocity":0.015748031496062992},{"duration":0.18181800000000692,"midi":55,"time":68.727204,"velocity":0.015748031496062992},{"duration":0.18181800000000692,"midi":55,"time":68.727204,"velocity":0.015748031496062992},{"duration":0.18181800000000692,"midi":55,"time":68.727204,"velocity":0.015748031496062992},{"duration":0.18181800000000692,"midi":55,"time":68.727204,"velocity":0.015748031496062992},{"duration":0.18181800000000692,"midi":55,"time":68.727204,"velocity":0.015748031496062992},{"duration":0.18181800000000692,"midi":55,"time":68.727204,"velocity":0.015748031496062992},{"duration":0.18181800000000692,"midi":55,"time":68.727204,"velocity":0.015748031496062992},{"duration":0.18181800000000692,"midi":55,"time":68.727204,"velocity":0.015748031496062992},{"duration":0.18181800000000692,"midi":55,"time":68.727204,"velocity":0.015748031496062992},{"duration":0.18181800000000692,"midi":55,"time":68.727204,"velocity":0.015748031496062992},{"duration":0.18181800000000692,"midi":55,"time":68.727204,"velocity":0.015748031496062992},{"duration":0.1818179999999927,"midi":55,"time":68.90902200000001,"velocity":0.015748031496062992},{"duration":0.1818179999999927,"midi":55,"time":68.90902200000001,"velocity":0.015748031496062992},{"duration":0.1818179999999927,"midi":55,"time":68.90902200000001,"velocity":0.015748031496062992},{"duration":0.1818179999999927,"midi":55,"time":68.90902200000001,"velocity":0.015748031496062992},{"duration":0.1818179999999927,"midi":55,"time":68.90902200000001,"velocity":0.015748031496062992},{"duration":0.1818179999999927,"midi":55,"time":68.90902200000001,"velocity":0.015748031496062992},{"duration":0.1818179999999927,"midi":55,"time":68.90902200000001,"velocity":0.015748031496062992},{"duration":0.1818179999999927,"midi":55,"time":68.90902200000001,"velocity":0.015748031496062992},{"duration":0.1818179999999927,"midi":55,"time":68.90902200000001,"velocity":0.015748031496062992},{"duration":0.1818179999999927,"midi":55,"time":68.90902200000001,"velocity":0.015748031496062992},{"duration":0.1818179999999927,"midi":55,"time":68.90902200000001,"velocity":0.015748031496062992},{"duration":0.1818179999999927,"midi":55,"time":68.90902200000001,"velocity":0.015748031496062992},{"duration":0.1818179999999927,"midi":55,"time":68.90902200000001,"velocity":0.015748031496062992},{"duration":0.1818179999999927,"midi":55,"time":68.90902200000001,"velocity":0.015748031496062992},{"duration":0.1818179999999927,"midi":55,"time":68.90902200000001,"velocity":0.015748031496062992},{"duration":0.1818179999999927,"midi":55,"time":68.90902200000001,"velocity":0.015748031496062992},{"duration":0.02272725000000264,"midi":82,"time":185.45436,"velocity":0.015748031496062992},{"duration":0.02272725000000264,"midi":82,"time":185.45436,"velocity":0.015748031496062992},{"duration":0.02272725000000264,"midi":82,"time":185.47708725,"velocity":0.015748031496062992},{"duration":0.02272725000000264,"midi":82,"time":185.47708725,"velocity":0.015748031496062992},{"duration":0.02272725000000264,"midi":82,"time":185.4998145,"velocity":0.015748031496062992},{"duration":0.02272725000000264,"midi":82,"time":185.4998145,"velocity":0.015748031496062992},{"duration":0.02272725000000264,"midi":82,"time":185.52254175000002,"velocity":0.015748031496062992},{"duration":0.02272725000000264,"midi":82,"time":185.52254175000002,"velocity":0.015748031496062992},{"duration":0.02272725000000264,"midi":82,"time":185.52254175000002,"velocity":0.015748031496062992},{"duration":0.02272725000000264,"midi":82,"time":185.52254175000002,"velocity":0.015748031496062992},{"duration":0.02272725000000264,"midi":82,"time":185.54526900000002,"velocity":0.015748031496062992},{"duration":0.02272725000000264,"midi":82,"time":185.54526900000002,"velocity":0.015748031496062992},{"duration":0.02272725000000264,"midi":82,"time":185.54526900000002,"velocity":0.015748031496062992},{"duration":0.02272725000000264,"midi":82,"time":185.54526900000002,"velocity":0.015748031496062992},{"duration":0.02272725000000264,"midi":82,"time":185.54526900000002,"velocity":0.015748031496062992},{"duration":0.02272724999997422,"midi":82,"time":185.56799625000002,"velocity":0.015748031496062992},{"duration":0.02272724999997422,"midi":82,"time":185.56799625000002,"velocity":0.015748031496062992},{"duration":0.02272724999997422,"midi":82,"time":185.56799625000002,"velocity":0.015748031496062992},{"duration":0.02272724999997422,"midi":82,"time":185.56799625000002,"velocity":0.015748031496062992},{"duration":0.02272724999997422,"midi":82,"time":185.56799625000002,"velocity":0.015748031496062992},{"duration":0.02272724999997422,"midi":82,"time":185.56799625000002,"velocity":0.015748031496062992},{"duration":0.02272725000000264,"midi":82,"time":185.5907235,"velocity":0.015748031496062992},{"duration":0.02272725000000264,"midi":82,"time":185.5907235,"velocity":0.015748031496062992},{"duration":0.02272725000000264,"midi":82,"time":185.5907235,"velocity":0.015748031496062992},{"duration":0.02272725000000264,"midi":82,"time":185.5907235,"velocity":0.015748031496062992},{"duration":0.02272725000000264,"midi":82,"time":185.5907235,"velocity":0.015748031496062992},{"duration":0.02272725000000264,"midi":82,"time":185.5907235,"velocity":0.015748031496062992},{"duration":0.02272725000000264,"midi":82,"time":185.5907235,"velocity":0.015748031496062992},{"duration":0.02272725000000264,"midi":82,"time":185.61345075,"velocity":0.015748031496062992},{"duration":0.02272725000000264,"midi":82,"time":185.61345075,"velocity":0.015748031496062992},{"duration":0.02272725000000264,"midi":82,"time":185.61345075,"velocity":0.015748031496062992},{"duration":0.02272725000000264,"midi":82,"time":185.61345075,"velocity":0.015748031496062992},{"duration":0.02272725000000264,"midi":82,"time":185.61345075,"velocity":0.015748031496062992},{"duration":0.02272725000000264,"midi":82,"time":185.61345075,"velocity":0.015748031496062992},{"duration":0.02272725000000264,"midi":82,"time":185.61345075,"velocity":0.015748031496062992},{"duration":0.02272725000000264,"midi":82,"time":185.61345075,"velocity":0.015748031496062992},{"duration":0.02272725000000264,"midi":82,"time":185.636178,"velocity":0.015748031496062992},{"duration":0.02272725000000264,"midi":82,"time":185.636178,"velocity":0.015748031496062992},{"duration":0.02272725000000264,"midi":82,"time":185.636178,"velocity":0.015748031496062992},{"duration":0.02272725000000264,"midi":82,"time":185.636178,"velocity":0.015748031496062992},{"duration":0.02272725000000264,"midi":82,"time":185.636178,"velocity":0.015748031496062992},{"duration":0.02272725000000264,"midi":82,"time":185.636178,"velocity":0.015748031496062992},{"duration":0.02272725000000264,"midi":82,"time":185.636178,"velocity":0.015748031496062992},{"duration":0.02272725000000264,"midi":82,"time":185.636178,"velocity":0.015748031496062992},{"duration":0.02272725000000264,"midi":82,"time":185.636178,"velocity":0.015748031496062992},{"duration":0.02272725000000264,"midi":82,"time":185.65890525,"velocity":0.015748031496062992},{"duration":0.02272725000000264,"midi":82,"time":185.65890525,"velocity":0.015748031496062992},{"duration":0.02272725000000264,"midi":82,"time":185.65890525,"velocity":0.015748031496062992},{"duration":0.02272725000000264,"midi":82,"time":185.65890525,"velocity":0.015748031496062992},{"duration":0.02272725000000264,"midi":82,"time":185.65890525,"velocity":0.015748031496062992},{"duration":0.02272725000000264,"midi":82,"time":185.65890525,"velocity":0.015748031496062992},{"duration":0.02272725000000264,"midi":82,"time":185.65890525,"velocity":0.015748031496062992},{"duration":0.02272725000000264,"midi":82,"time":185.65890525,"velocity":0.015748031496062992},{"duration":0.02272725000000264,"midi":82,"time":185.65890525,"velocity":0.015748031496062992},{"duration":0.02272725000000264,"midi":82,"time":185.65890525,"velocity":0.015748031496062992},{"duration":0.02272725000000264,"midi":82,"time":185.6816325,"velocity":0.015748031496062992},{"duration":0.02272725000000264,"midi":82,"time":185.6816325,"velocity":0.015748031496062992},{"duration":0.02272725000000264,"midi":82,"time":185.6816325,"velocity":0.015748031496062992},{"duration":0.02272725000000264,"midi":82,"time":185.6816325,"velocity":0.015748031496062992},{"duration":0.02272725000000264,"midi":82,"time":185.6816325,"velocity":0.015748031496062992},{"duration":0.02272725000000264,"midi":82,"time":185.6816325,"velocity":0.015748031496062992},{"duration":0.02272725000000264,"midi":82,"time":185.6816325,"velocity":0.015748031496062992},{"duration":0.02272725000000264,"midi":82,"time":185.6816325,"velocity":0.015748031496062992},{"duration":0.02272725000000264,"midi":82,"time":185.6816325,"velocity":0.015748031496062992},{"duration":0.02272725000000264,"midi":82,"time":185.6816325,"velocity":0.015748031496062992},{"duration":0.02272725000000264,"midi":82,"time":185.6816325,"velocity":0.015748031496062992},{"duration":0.02272725000000264,"midi":82,"time":185.70435975,"velocity":0.015748031496062992},{"duration":0.02272725000000264,"midi":82,"time":185.70435975,"velocity":0.015748031496062992},{"duration":0.02272725000000264,"midi":82,"time":185.70435975,"velocity":0.015748031496062992},{"duration":0.02272725000000264,"midi":82,"time":185.70435975,"velocity":0.015748031496062992},{"duration":0.02272725000000264,"midi":82,"time":185.70435975,"velocity":0.015748031496062992},{"duration":0.02272725000000264,"midi":82,"time":185.70435975,"velocity":0.015748031496062992},{"duration":0.02272725000000264,"midi":82,"time":185.70435975,"velocity":0.015748031496062992},{"duration":0.02272725000000264,"midi":82,"time":185.70435975,"velocity":0.015748031496062992},{"duration":0.02272725000000264,"midi":82,"time":185.70435975,"velocity":0.015748031496062992},{"duration":0.02272725000000264,"midi":82,"time":185.70435975,"velocity":0.015748031496062992},{"duration":0.02272725000000264,"midi":82,"time":185.70435975,"velocity":0.015748031496062992},{"duration":0.02272725000000264,"midi":82,"time":185.70435975,"velocity":0.015748031496062992},{"duration":0.02272725000000264,"midi":82,"time":185.727087,"velocity":0.015748031496062992},{"duration":0.02272725000000264,"midi":82,"time":185.727087,"velocity":0.015748031496062992},{"duration":0.02272725000000264,"midi":82,"time":185.727087,"velocity":0.015748031496062992},{"duration":0.02272725000000264,"midi":82,"time":185.727087,"velocity":0.015748031496062992},{"duration":0.02272725000000264,"midi":82,"time":185.727087,"velocity":0.015748031496062992},{"duration":0.02272725000000264,"midi":82,"time":185.727087,"velocity":0.015748031496062992},{"duration":0.02272725000000264,"midi":82,"time":185.727087,"velocity":0.015748031496062992},{"duration":0.02272725000000264,"midi":82,"time":185.727087,"velocity":0.015748031496062992},{"duration":0.02272725000000264,"midi":82,"time":185.727087,"velocity":0.015748031496062992},{"duration":0.02272725000000264,"midi":82,"time":185.727087,"velocity":0.015748031496062992},{"duration":0.02272725000000264,"midi":82,"time":185.727087,"velocity":0.015748031496062992},{"duration":0.02272725000000264,"midi":82,"time":185.727087,"velocity":0.015748031496062992},{"duration":0.02272725000000264,"midi":82,"time":185.727087,"velocity":0.015748031496062992},{"duration":0.02272725000000264,"midi":82,"time":185.74981425000001,"velocity":0.015748031496062992},{"duration":0.02272725000000264,"midi":82,"time":185.74981425000001,"velocity":0.015748031496062992},{"duration":0.02272725000000264,"midi":82,"time":185.74981425000001,"velocity":0.015748031496062992},{"duration":0.02272725000000264,"midi":82,"time":185.74981425000001,"velocity":0.015748031496062992},{"duration":0.02272725000000264,"midi":82,"time":185.74981425000001,"velocity":0.015748031496062992},{"duration":0.02272725000000264,"midi":82,"time":185.74981425000001,"velocity":0.015748031496062992},{"duration":0.02272725000000264,"midi":82,"time":185.74981425000001,"velocity":0.015748031496062992},{"duration":0.02272725000000264,"midi":82,"time":185.74981425000001,"velocity":0.015748031496062992},{"duration":0.02272725000000264,"midi":82,"time":185.74981425000001,"velocity":0.015748031496062992},{"duration":0.02272725000000264,"midi":82,"time":185.74981425000001,"velocity":0.015748031496062992},{"duration":0.02272725000000264,"midi":82,"time":185.74981425000001,"velocity":0.015748031496062992},{"duration":0.02272725000000264,"midi":82,"time":185.74981425000001,"velocity":0.015748031496062992},{"duration":0.02272725000000264,"midi":82,"time":185.74981425000001,"velocity":0.015748031496062992},{"duration":0.02272725000000264,"midi":82,"time":185.77254150000002,"velocity":0.015748031496062992},{"duration":0.02272725000000264,"midi":82,"time":185.77254150000002,"velocity":0.015748031496062992},{"duration":0.02272725000000264,"midi":82,"time":185.77254150000002,"velocity":0.015748031496062992},{"duration":0.02272725000000264,"midi":82,"time":185.77254150000002,"velocity":0.015748031496062992},{"duration":0.02272725000000264,"midi":82,"time":185.77254150000002,"velocity":0.015748031496062992},{"duration":0.02272725000000264,"midi":82,"time":185.77254150000002,"velocity":0.015748031496062992},{"duration":0.02272725000000264,"midi":82,"time":185.77254150000002,"velocity":0.015748031496062992},{"duration":0.02272725000000264,"midi":82,"time":185.77254150000002,"velocity":0.015748031496062992},{"duration":0.02272725000000264,"midi":82,"time":185.77254150000002,"velocity":0.015748031496062992},{"duration":0.02272725000000264,"midi":82,"time":185.77254150000002,"velocity":0.015748031496062992},{"duration":0.02272725000000264,"midi":82,"time":185.77254150000002,"velocity":0.015748031496062992},{"duration":0.02272725000000264,"midi":82,"time":185.77254150000002,"velocity":0.015748031496062992},{"duration":0.02272725000000264,"midi":82,"time":185.77254150000002,"velocity":0.015748031496062992},{"duration":0.02272724999997422,"midi":82,"time":185.79526875000002,"velocity":0.015748031496062992},{"duration":0.02272724999997422,"midi":82,"time":185.79526875000002,"velocity":0.015748031496062992},{"duration":0.02272724999997422,"midi":82,"time":185.79526875000002,"velocity":0.015748031496062992},{"duration":0.02272724999997422,"midi":82,"time":185.79526875000002,"velocity":0.015748031496062992},{"duration":0.02272724999997422,"midi":82,"time":185.79526875000002,"velocity":0.015748031496062992},{"duration":0.02272724999997422,"midi":82,"time":185.79526875000002,"velocity":0.015748031496062992},{"duration":0.02272724999997422,"midi":82,"time":185.79526875000002,"velocity":0.015748031496062992},{"duration":0.02272724999997422,"midi":82,"time":185.79526875000002,"velocity":0.015748031496062992},{"duration":0.02272724999997422,"midi":82,"time":185.79526875000002,"velocity":0.015748031496062992},{"duration":0.02272724999997422,"midi":82,"time":185.79526875000002,"velocity":0.015748031496062992},{"duration":0.02272724999997422,"midi":82,"time":185.79526875000002,"velocity":0.015748031496062992},{"duration":0.02272724999997422,"midi":82,"time":185.79526875000002,"velocity":0.015748031496062992},{"duration":0.02272724999997422,"midi":82,"time":185.79526875000002,"velocity":0.015748031496062992},{"duration":0.02272725000000264,"midi":82,"time":185.817996,"velocity":0.015748031496062992},{"duration":0.02272725000000264,"midi":82,"time":185.817996,"velocity":0.015748031496062992},{"duration":0.02272725000000264,"midi":82,"time":185.817996,"velocity":0.015748031496062992},{"duration":0.02272725000000264,"midi":82,"time":185.817996,"velocity":0.015748031496062992},{"duration":0.02272725000000264,"midi":82,"time":185.817996,"velocity":0.015748031496062992},{"duration":0.02272725000000264,"midi":82,"time":185.817996,"velocity":0.015748031496062992},{"duration":0.02272725000000264,"midi":82,"time":185.817996,"velocity":0.015748031496062992},{"duration":0.02272725000000264,"midi":82,"time":185.817996,"velocity":0.015748031496062992},{"duration":0.02272725000000264,"midi":82,"time":185.817996,"velocity":0.015748031496062992},{"duration":0.02272725000000264,"midi":82,"time":185.817996,"velocity":0.015748031496062992},{"duration":0.02272725000000264,"midi":82,"time":185.817996,"velocity":0.015748031496062992},{"duration":0.02272725000000264,"midi":82,"time":185.817996,"velocity":0.015748031496062992},{"duration":0.02272725000000264,"midi":82,"time":185.817996,"velocity":0.015748031496062992},{"duration":0.02272725000000264,"midi":82,"time":185.84072325,"velocity":0.015748031496062992},{"duration":0.02272725000000264,"midi":82,"time":185.84072325,"velocity":0.015748031496062992},{"duration":0.02272725000000264,"midi":82,"time":185.84072325,"velocity":0.015748031496062992},{"duration":0.02272725000000264,"midi":82,"time":185.84072325,"velocity":0.015748031496062992},{"duration":0.02272725000000264,"midi":82,"time":185.84072325,"velocity":0.015748031496062992},{"duration":0.02272725000000264,"midi":82,"time":185.84072325,"velocity":0.015748031496062992},{"duration":0.02272725000000264,"midi":82,"time":185.84072325,"velocity":0.015748031496062992},{"duration":0.02272725000000264,"midi":82,"time":185.84072325,"velocity":0.015748031496062992},{"duration":0.02272725000000264,"midi":82,"time":185.84072325,"velocity":0.015748031496062992},{"duration":0.02272725000000264,"midi":82,"time":185.84072325,"velocity":0.015748031496062992},{"duration":0.02272725000000264,"midi":82,"time":185.84072325,"velocity":0.015748031496062992},{"duration":0.02272725000000264,"midi":82,"time":185.84072325,"velocity":0.015748031496062992},{"duration":0.02272725000000264,"midi":82,"time":185.84072325,"velocity":0.015748031496062992},{"duration":0.02272725000000264,"midi":82,"time":185.8634505,"velocity":0.015748031496062992},{"duration":0.02272725000000264,"midi":82,"time":185.8634505,"velocity":0.015748031496062992},{"duration":0.02272725000000264,"midi":82,"time":185.8634505,"velocity":0.015748031496062992},{"duration":0.02272725000000264,"midi":82,"time":185.8634505,"velocity":0.015748031496062992},{"duration":0.02272725000000264,"midi":82,"time":185.8634505,"velocity":0.015748031496062992},{"duration":0.02272725000000264,"midi":82,"time":185.8634505,"velocity":0.015748031496062992},{"duration":0.02272725000000264,"midi":82,"time":185.8634505,"velocity":0.015748031496062992},{"duration":0.02272725000000264,"midi":82,"time":185.8634505,"velocity":0.015748031496062992},{"duration":0.02272725000000264,"midi":82,"time":185.8634505,"velocity":0.015748031496062992},{"duration":0.02272725000000264,"midi":82,"time":185.8634505,"velocity":0.015748031496062992},{"duration":0.02272725000000264,"midi":82,"time":185.8634505,"velocity":0.015748031496062992},{"duration":0.02272725000000264,"midi":82,"time":185.8634505,"velocity":0.015748031496062992},{"duration":0.02272725000000264,"midi":82,"time":185.8634505,"velocity":0.015748031496062992},{"duration":0.02272725000000264,"midi":82,"time":185.88617775,"velocity":0.015748031496062992},{"duration":0.02272725000000264,"midi":82,"time":185.88617775,"velocity":0.015748031496062992},{"duration":0.02272725000000264,"midi":82,"time":185.88617775,"velocity":0.015748031496062992},{"duration":0.02272725000000264,"midi":82,"time":185.88617775,"velocity":0.015748031496062992},{"duration":0.02272725000000264,"midi":82,"time":185.88617775,"velocity":0.015748031496062992},{"duration":0.02272725000000264,"midi":82,"time":185.88617775,"velocity":0.015748031496062992},{"duration":0.02272725000000264,"midi":82,"time":185.88617775,"velocity":0.015748031496062992},{"duration":0.02272725000000264,"midi":82,"time":185.88617775,"velocity":0.015748031496062992},{"duration":0.02272725000000264,"midi":82,"time":185.88617775,"velocity":0.015748031496062992},{"duration":0.02272725000000264,"midi":82,"time":185.88617775,"velocity":0.015748031496062992},{"duration":0.02272725000000264,"midi":82,"time":185.88617775,"velocity":0.015748031496062992},{"duration":0.02272725000000264,"midi":82,"time":185.88617775,"velocity":0.015748031496062992},{"duration":0.02272725000000264,"midi":82,"time":185.88617775,"velocity":0.015748031496062992},{"duration":0.02272725000000264,"midi":82,"time":185.908905,"velocity":0.015748031496062992},{"duration":0.02272725000000264,"midi":82,"time":185.908905,"velocity":0.015748031496062992},{"duration":0.02272725000000264,"midi":82,"time":185.908905,"velocity":0.015748031496062992},{"duration":0.02272725000000264,"midi":82,"time":185.908905,"velocity":0.015748031496062992},{"duration":0.02272725000000264,"midi":82,"time":185.908905,"velocity":0.015748031496062992},{"duration":0.02272725000000264,"midi":82,"time":185.908905,"velocity":0.015748031496062992},{"duration":0.02272725000000264,"midi":82,"time":185.908905,"velocity":0.015748031496062992},{"duration":0.02272725000000264,"midi":82,"time":185.908905,"velocity":0.015748031496062992},{"duration":0.02272725000000264,"midi":82,"time":185.908905,"velocity":0.015748031496062992},{"duration":0.02272725000000264,"midi":82,"time":185.908905,"velocity":0.015748031496062992},{"duration":0.02272725000000264,"midi":82,"time":185.908905,"velocity":0.015748031496062992},{"duration":0.02272725000000264,"midi":82,"time":185.908905,"velocity":0.015748031496062992},{"duration":0.02272725000000264,"midi":82,"time":185.908905,"velocity":0.015748031496062992},{"duration":0.02272725000000264,"midi":82,"time":185.93163225,"velocity":0.015748031496062992},{"duration":0.02272725000000264,"midi":82,"time":185.93163225,"velocity":0.015748031496062992},{"duration":0.02272725000000264,"midi":82,"time":185.93163225,"velocity":0.015748031496062992},{"duration":0.02272725000000264,"midi":82,"time":185.93163225,"velocity":0.015748031496062992},{"duration":0.02272725000000264,"midi":82,"time":185.93163225,"velocity":0.015748031496062992},{"duration":0.02272725000000264,"midi":82,"time":185.93163225,"velocity":0.015748031496062992},{"duration":0.02272725000000264,"midi":82,"time":185.93163225,"velocity":0.015748031496062992},{"duration":0.02272725000000264,"midi":82,"time":185.93163225,"velocity":0.015748031496062992},{"duration":0.02272725000000264,"midi":82,"time":185.93163225,"velocity":0.015748031496062992},{"duration":0.02272725000000264,"midi":82,"time":185.93163225,"velocity":0.015748031496062992},{"duration":0.02272725000000264,"midi":82,"time":185.93163225,"velocity":0.015748031496062992},{"duration":0.02272725000000264,"midi":82,"time":185.93163225,"velocity":0.015748031496062992},{"duration":0.02272725000000264,"midi":82,"time":185.93163225,"velocity":0.015748031496062992},{"duration":0.02272725000000264,"midi":82,"time":185.9543595,"velocity":0.015748031496062992},{"duration":0.02272725000000264,"midi":82,"time":185.9543595,"velocity":0.015748031496062992},{"duration":0.02272725000000264,"midi":82,"time":185.9543595,"velocity":0.015748031496062992},{"duration":0.02272725000000264,"midi":82,"time":185.9543595,"velocity":0.015748031496062992},{"duration":0.02272725000000264,"midi":82,"time":185.9543595,"velocity":0.015748031496062992},{"duration":0.02272725000000264,"midi":82,"time":185.9543595,"velocity":0.015748031496062992},{"duration":0.02272725000000264,"midi":82,"time":185.9543595,"velocity":0.015748031496062992},{"duration":0.02272725000000264,"midi":82,"time":185.9543595,"velocity":0.015748031496062992},{"duration":0.02272725000000264,"midi":82,"time":185.9543595,"velocity":0.015748031496062992},{"duration":0.02272725000000264,"midi":82,"time":185.9543595,"velocity":0.015748031496062992},{"duration":0.02272725000000264,"midi":82,"time":185.9543595,"velocity":0.015748031496062992},{"duration":0.02272725000000264,"midi":82,"time":185.9543595,"velocity":0.015748031496062992},{"duration":0.02272725000000264,"midi":82,"time":185.9543595,"velocity":0.015748031496062992},{"duration":0.02272725000000264,"midi":82,"time":185.97708675,"velocity":0.015748031496062992},{"duration":0.02272725000000264,"midi":82,"time":185.97708675,"velocity":0.015748031496062992},{"duration":0.02272725000000264,"midi":82,"time":185.97708675,"velocity":0.015748031496062992},{"duration":0.02272725000000264,"midi":82,"time":185.97708675,"velocity":0.015748031496062992},{"duration":0.02272725000000264,"midi":82,"time":185.97708675,"velocity":0.015748031496062992},{"duration":0.02272725000000264,"midi":82,"time":185.97708675,"velocity":0.015748031496062992},{"duration":0.02272725000000264,"midi":82,"time":185.97708675,"velocity":0.015748031496062992},{"duration":0.02272725000000264,"midi":82,"time":185.97708675,"velocity":0.015748031496062992},{"duration":0.02272725000000264,"midi":82,"time":185.97708675,"velocity":0.015748031496062992},{"duration":0.02272725000000264,"midi":82,"time":185.97708675,"velocity":0.015748031496062992},{"duration":0.02272725000000264,"midi":82,"time":185.97708675,"velocity":0.015748031496062992},{"duration":0.02272725000000264,"midi":82,"time":185.97708675,"velocity":0.015748031496062992},{"duration":0.02272725000000264,"midi":82,"time":185.97708675,"velocity":0.015748031496062992},{"duration":0.02272725000000264,"midi":82,"time":185.99981400000001,"velocity":0.015748031496062992},{"duration":0.02272725000000264,"midi":82,"time":185.99981400000001,"velocity":0.015748031496062992},{"duration":0.02272725000000264,"midi":82,"time":185.99981400000001,"velocity":0.015748031496062992},{"duration":0.02272725000000264,"midi":82,"time":185.99981400000001,"velocity":0.015748031496062992},{"duration":0.02272725000000264,"midi":82,"time":185.99981400000001,"velocity":0.015748031496062992},{"duration":0.02272725000000264,"midi":82,"time":185.99981400000001,"velocity":0.015748031496062992},{"duration":0.02272725000000264,"midi":82,"time":185.99981400000001,"velocity":0.015748031496062992},{"duration":0.02272725000000264,"midi":82,"time":185.99981400000001,"velocity":0.015748031496062992},{"duration":0.02272725000000264,"midi":82,"time":185.99981400000001,"velocity":0.015748031496062992},{"duration":0.02272725000000264,"midi":82,"time":185.99981400000001,"velocity":0.015748031496062992},{"duration":0.02272725000000264,"midi":82,"time":185.99981400000001,"velocity":0.015748031496062992},{"duration":0.02272725000000264,"midi":82,"time":185.99981400000001,"velocity":0.015748031496062992},{"duration":0.02272725000000264,"midi":82,"time":185.99981400000001,"velocity":0.015748031496062992},{"duration":0.02272725000000264,"midi":82,"time":186.02254125000002,"velocity":0.015748031496062992},{"duration":0.02272725000000264,"midi":82,"time":186.02254125000002,"velocity":0.015748031496062992},{"duration":0.02272725000000264,"midi":82,"time":186.02254125000002,"velocity":0.015748031496062992},{"duration":0.02272725000000264,"midi":82,"time":186.02254125000002,"velocity":0.015748031496062992},{"duration":0.02272725000000264,"midi":82,"time":186.02254125000002,"velocity":0.015748031496062992},{"duration":0.02272725000000264,"midi":82,"time":186.02254125000002,"velocity":0.015748031496062992},{"duration":0.02272725000000264,"midi":82,"time":186.02254125000002,"velocity":0.015748031496062992},{"duration":0.02272725000000264,"midi":82,"time":186.02254125000002,"velocity":0.015748031496062992},{"duration":0.02272725000000264,"midi":82,"time":186.02254125000002,"velocity":0.015748031496062992},{"duration":0.02272725000000264,"midi":82,"time":186.02254125000002,"velocity":0.015748031496062992},{"duration":0.02272725000000264,"midi":82,"time":186.02254125000002,"velocity":0.015748031496062992},{"duration":0.02272725000000264,"midi":82,"time":186.02254125000002,"velocity":0.015748031496062992},{"duration":0.02272725000000264,"midi":82,"time":186.02254125000002,"velocity":0.015748031496062992},{"duration":0.02272724999997422,"midi":82,"time":186.04526850000002,"velocity":0.015748031496062992},{"duration":0.02272724999997422,"midi":82,"time":186.04526850000002,"velocity":0.015748031496062992},{"duration":0.02272724999997422,"midi":82,"time":186.04526850000002,"velocity":0.015748031496062992},{"duration":0.02272724999997422,"midi":82,"time":186.04526850000002,"velocity":0.015748031496062992},{"duration":0.02272724999997422,"midi":82,"time":186.04526850000002,"velocity":0.015748031496062992},{"duration":0.02272724999997422,"midi":82,"time":186.04526850000002,"velocity":0.015748031496062992},{"duration":0.02272724999997422,"midi":82,"time":186.04526850000002,"velocity":0.015748031496062992},{"duration":0.02272724999997422,"midi":82,"time":186.04526850000002,"velocity":0.015748031496062992},{"duration":0.02272724999997422,"midi":82,"time":186.04526850000002,"velocity":0.015748031496062992},{"duration":0.02272724999997422,"midi":82,"time":186.04526850000002,"velocity":0.015748031496062992},{"duration":0.02272724999997422,"midi":82,"time":186.04526850000002,"velocity":0.015748031496062992},{"duration":0.02272724999997422,"midi":82,"time":186.04526850000002,"velocity":0.015748031496062992},{"duration":0.02272724999997422,"midi":82,"time":186.04526850000002,"velocity":0.015748031496062992},{"duration":0.02272725000000264,"midi":82,"time":186.06799575,"velocity":0.015748031496062992},{"duration":0.02272725000000264,"midi":82,"time":186.06799575,"velocity":0.015748031496062992},{"duration":0.02272725000000264,"midi":82,"time":186.06799575,"velocity":0.015748031496062992},{"duration":0.02272725000000264,"midi":82,"time":186.06799575,"velocity":0.015748031496062992},{"duration":0.02272725000000264,"midi":82,"time":186.06799575,"velocity":0.015748031496062992},{"duration":0.02272725000000264,"midi":82,"time":186.06799575,"velocity":0.015748031496062992},{"duration":0.02272725000000264,"midi":82,"time":186.06799575,"velocity":0.015748031496062992},{"duration":0.02272725000000264,"midi":82,"time":186.06799575,"velocity":0.015748031496062992},{"duration":0.02272725000000264,"midi":82,"time":186.06799575,"velocity":0.015748031496062992},{"duration":0.02272725000000264,"midi":82,"time":186.06799575,"velocity":0.015748031496062992},{"duration":0.02272725000000264,"midi":82,"time":186.06799575,"velocity":0.015748031496062992},{"duration":0.02272725000000264,"midi":82,"time":186.06799575,"velocity":0.015748031496062992},{"duration":0.02272725000000264,"midi":82,"time":186.06799575,"velocity":0.015748031496062992},{"duration":0.02272725000000264,"midi":82,"time":186.090723,"velocity":0.015748031496062992},{"duration":0.02272725000000264,"midi":82,"time":186.090723,"velocity":0.015748031496062992},{"duration":0.02272725000000264,"midi":82,"time":186.090723,"velocity":0.015748031496062992},{"duration":0.02272725000000264,"midi":82,"time":186.090723,"velocity":0.015748031496062992},{"duration":0.02272725000000264,"midi":82,"time":186.090723,"velocity":0.015748031496062992},{"duration":0.02272725000000264,"midi":82,"time":186.090723,"velocity":0.015748031496062992},{"duration":0.02272725000000264,"midi":82,"time":186.090723,"velocity":0.015748031496062992},{"duration":0.02272725000000264,"midi":82,"time":186.090723,"velocity":0.015748031496062992},{"duration":0.02272725000000264,"midi":82,"time":186.090723,"velocity":0.015748031496062992},{"duration":0.02272725000000264,"midi":82,"time":186.090723,"velocity":0.015748031496062992},{"duration":0.02272725000000264,"midi":82,"time":186.090723,"velocity":0.015748031496062992},{"duration":0.02272725000000264,"midi":82,"time":186.090723,"velocity":0.015748031496062992},{"duration":0.02272725000000264,"midi":82,"time":186.090723,"velocity":0.015748031496062992},{"duration":0.02272725000000264,"midi":82,"time":186.11345025,"velocity":0.015748031496062992},{"duration":0.02272725000000264,"midi":82,"time":186.11345025,"velocity":0.015748031496062992},{"duration":0.02272725000000264,"midi":82,"time":186.11345025,"velocity":0.015748031496062992},{"duration":0.02272725000000264,"midi":82,"time":186.11345025,"velocity":0.015748031496062992},{"duration":0.02272725000000264,"midi":82,"time":186.11345025,"velocity":0.015748031496062992},{"duration":0.02272725000000264,"midi":82,"time":186.11345025,"velocity":0.015748031496062992},{"duration":0.02272725000000264,"midi":82,"time":186.11345025,"velocity":0.015748031496062992},{"duration":0.02272725000000264,"midi":82,"time":186.11345025,"velocity":0.015748031496062992},{"duration":0.02272725000000264,"midi":82,"time":186.11345025,"velocity":0.015748031496062992},{"duration":0.02272725000000264,"midi":82,"time":186.11345025,"velocity":0.015748031496062992},{"duration":0.02272725000000264,"midi":82,"time":186.11345025,"velocity":0.015748031496062992},{"duration":0.02272725000000264,"midi":82,"time":186.11345025,"velocity":0.015748031496062992},{"duration":0.02272725000000264,"midi":82,"time":186.11345025,"velocity":0.015748031496062992},{"duration":0.02272725000000264,"midi":82,"time":186.1361775,"velocity":0.015748031496062992},{"duration":0.02272725000000264,"midi":82,"time":186.1361775,"velocity":0.015748031496062992},{"duration":0.02272725000000264,"midi":82,"time":186.1361775,"velocity":0.015748031496062992},{"duration":0.02272725000000264,"midi":82,"time":186.1361775,"velocity":0.015748031496062992},{"duration":0.02272725000000264,"midi":82,"time":186.1361775,"velocity":0.015748031496062992},{"duration":0.02272725000000264,"midi":82,"time":186.1361775,"velocity":0.015748031496062992},{"duration":0.02272725000000264,"midi":82,"time":186.1361775,"velocity":0.015748031496062992},{"duration":0.02272725000000264,"midi":82,"time":186.1361775,"velocity":0.015748031496062992},{"duration":0.02272725000000264,"midi":82,"time":186.1361775,"velocity":0.015748031496062992},{"duration":0.02272725000000264,"midi":82,"time":186.1361775,"velocity":0.015748031496062992},{"duration":0.02272725000000264,"midi":82,"time":186.1361775,"velocity":0.015748031496062992},{"duration":0.02272725000000264,"midi":82,"time":186.1361775,"velocity":0.015748031496062992},{"duration":0.02272725000000264,"midi":82,"time":186.1361775,"velocity":0.015748031496062992},{"duration":0.02272725000000264,"midi":82,"time":186.15890475,"velocity":0.015748031496062992},{"duration":0.02272725000000264,"midi":82,"time":186.15890475,"velocity":0.015748031496062992},{"duration":0.02272725000000264,"midi":82,"time":186.15890475,"velocity":0.015748031496062992},{"duration":0.02272725000000264,"midi":82,"time":186.15890475,"velocity":0.015748031496062992},{"duration":0.02272725000000264,"midi":82,"time":186.15890475,"velocity":0.015748031496062992},{"duration":0.02272725000000264,"midi":82,"time":186.15890475,"velocity":0.015748031496062992},{"duration":0.02272725000000264,"midi":82,"time":186.15890475,"velocity":0.015748031496062992},{"duration":0.02272725000000264,"midi":82,"time":186.15890475,"velocity":0.015748031496062992},{"duration":0.02272725000000264,"midi":82,"time":186.15890475,"velocity":0.015748031496062992},{"duration":0.02272725000000264,"midi":82,"time":186.15890475,"velocity":0.015748031496062992},{"duration":0.02272725000000264,"midi":82,"time":186.15890475,"velocity":0.015748031496062992},{"duration":0.02272725000000264,"midi":82,"time":186.15890475,"velocity":0.015748031496062992},{"duration":0.02272725000000264,"midi":82,"time":186.15890475,"velocity":0.015748031496062992},{"duration":0.09090900000001056,"midi":73,"time":266.181552,"velocity":0.015748031496062992},{"duration":0.09090900000001056,"midi":69,"time":266.181552,"velocity":0.015748031496062992},{"duration":0.09090900000001056,"midi":79,"time":266.181552,"velocity":0.015748031496062992},{"duration":0.09090900000001056,"midi":73,"time":266.181552,"velocity":0.015748031496062992},{"duration":0.09090900000001056,"midi":79,"time":266.181552,"velocity":0.015748031496062992},{"duration":0.09090900000001056,"midi":79,"time":266.181552,"velocity":0.015748031496062992},{"duration":0.09090900000001056,"midi":69,"time":266.181552,"velocity":0.015748031496062992},{"duration":0.09090900000001056,"midi":79,"time":266.181552,"velocity":0.015748031496062992},{"duration":0.09090900000001056,"midi":79,"time":266.181552,"velocity":0.015748031496062992},{"duration":0.09090900000001056,"midi":69,"time":266.181552,"velocity":0.015748031496062992},{"duration":0.09090900000001056,"midi":69,"time":266.181552,"velocity":0.015748031496062992},{"duration":0.09090900000001056,"midi":69,"time":266.181552,"velocity":0.015748031496062992},{"duration":0.09090900000001056,"midi":79,"time":266.181552,"velocity":0.015748031496062992},{"duration":0.09090900000001056,"midi":73,"time":266.181552,"velocity":0.015748031496062992},{"duration":0.09090900000001056,"midi":69,"time":266.181552,"velocity":0.015748031496062992},{"duration":0.09090900000001056,"midi":69,"time":266.181552,"velocity":0.015748031496062992},{"duration":0.09090900000001056,"midi":73,"time":266.181552,"velocity":0.015748031496062992},{"duration":0.09090900000001056,"midi":73,"time":266.181552,"velocity":0.015748031496062992},{"duration":0.09090900000001056,"midi":79,"time":266.181552,"velocity":0.015748031496062992},{"duration":0.09090900000001056,"midi":73,"time":266.181552,"velocity":0.015748031496062992},{"duration":0.09090900000001056,"midi":79,"time":266.181552,"velocity":0.015748031496062992},{"duration":0.09090900000001056,"midi":73,"time":266.181552,"velocity":0.015748031496062992},{"duration":0.09090900000001056,"midi":69,"time":266.181552,"velocity":0.015748031496062992},{"duration":0.09090900000001056,"midi":79,"time":266.181552,"velocity":0.015748031496062992},{"duration":0.09090900000001056,"midi":73,"time":266.181552,"velocity":0.015748031496062992},{"duration":0.09090900000001056,"midi":79,"time":266.181552,"velocity":0.015748031496062992},{"duration":0.09090900000001056,"midi":69,"time":266.181552,"velocity":0.015748031496062992},{"duration":0.09090900000001056,"midi":73,"time":266.181552,"velocity":0.015748031496062992},{"duration":0.09090900000001056,"midi":73,"time":266.181552,"velocity":0.015748031496062992},{"duration":0.09090900000001056,"midi":73,"time":266.181552,"velocity":0.015748031496062992},{"duration":0.09090900000001056,"midi":79,"time":266.181552,"velocity":0.015748031496062992},{"duration":0.09090900000001056,"midi":73,"time":266.181552,"velocity":0.015748031496062992},{"duration":0.09090900000001056,"midi":73,"time":266.181552,"velocity":0.015748031496062992},{"duration":0.09090900000001056,"midi":79,"time":266.181552,"velocity":0.015748031496062992},{"duration":0.09090900000001056,"midi":69,"time":266.181552,"velocity":0.015748031496062992},{"duration":0.09090900000001056,"midi":69,"time":266.181552,"velocity":0.015748031496062992},{"duration":0.09090900000001056,"midi":73,"time":266.181552,"velocity":0.015748031496062992},{"duration":0.09090900000001056,"midi":73,"time":266.181552,"velocity":0.015748031496062992},{"duration":0.09090900000001056,"midi":79,"time":266.181552,"velocity":0.015748031496062992},{"duration":0.09090900000001056,"midi":79,"time":266.181552,"velocity":0.015748031496062992},{"duration":0.09090900000001056,"midi":79,"time":266.181552,"velocity":0.015748031496062992},{"duration":0.09090900000001056,"midi":69,"time":266.181552,"velocity":0.015748031496062992},{"duration":0.09090900000001056,"midi":69,"time":266.181552,"velocity":0.015748031496062992},{"duration":0.09090900000001056,"midi":69,"time":266.181552,"velocity":0.015748031496062992},{"duration":0.09090900000001056,"midi":79,"time":266.181552,"velocity":0.015748031496062992},{"duration":0.09090900000001056,"midi":73,"time":266.181552,"velocity":0.015748031496062992},{"duration":0.09090900000001056,"midi":69,"time":266.181552,"velocity":0.015748031496062992},{"duration":0.09090900000001056,"midi":69,"time":266.181552,"velocity":0.015748031496062992},{"duration":0.09090899999995372,"midi":79,"time":266.90882400000004,"velocity":0.015748031496062992},{"duration":0.09090899999995372,"midi":79,"time":266.90882400000004,"velocity":0.015748031496062992},{"duration":0.09090899999995372,"midi":69,"time":266.90882400000004,"velocity":0.015748031496062992},{"duration":0.09090899999995372,"midi":73,"time":266.90882400000004,"velocity":0.015748031496062992},{"duration":0.09090899999995372,"midi":69,"time":266.90882400000004,"velocity":0.015748031496062992},{"duration":0.09090899999995372,"midi":73,"time":266.90882400000004,"velocity":0.015748031496062992},{"duration":0.09090899999995372,"midi":73,"time":266.90882400000004,"velocity":0.015748031496062992},{"duration":0.09090899999995372,"midi":69,"time":266.90882400000004,"velocity":0.015748031496062992},{"duration":0.09090899999995372,"midi":79,"time":266.90882400000004,"velocity":0.015748031496062992},{"duration":0.09090899999995372,"midi":73,"time":266.90882400000004,"velocity":0.015748031496062992},{"duration":0.09090899999995372,"midi":73,"time":266.90882400000004,"velocity":0.015748031496062992},{"duration":0.09090899999995372,"midi":69,"time":266.90882400000004,"velocity":0.015748031496062992},{"duration":0.09090899999995372,"midi":69,"time":266.90882400000004,"velocity":0.015748031496062992},{"duration":0.09090899999995372,"midi":73,"time":266.90882400000004,"velocity":0.015748031496062992},{"duration":0.09090899999995372,"midi":69,"time":266.90882400000004,"velocity":0.015748031496062992},{"duration":0.09090899999995372,"midi":79,"time":266.90882400000004,"velocity":0.015748031496062992},{"duration":0.09090899999995372,"midi":73,"time":266.90882400000004,"velocity":0.015748031496062992},{"duration":0.09090899999995372,"midi":79,"time":266.90882400000004,"velocity":0.015748031496062992},{"duration":0.09090899999995372,"midi":73,"time":266.90882400000004,"velocity":0.015748031496062992},{"duration":0.09090899999995372,"midi":69,"time":266.90882400000004,"velocity":0.015748031496062992},{"duration":0.09090899999995372,"midi":69,"time":266.90882400000004,"velocity":0.015748031496062992},{"duration":0.09090899999995372,"midi":79,"time":266.90882400000004,"velocity":0.015748031496062992},{"duration":0.09090899999995372,"midi":73,"time":266.90882400000004,"velocity":0.015748031496062992},{"duration":0.09090899999995372,"midi":69,"time":266.90882400000004,"velocity":0.015748031496062992},{"duration":0.09090899999995372,"midi":79,"time":266.90882400000004,"velocity":0.015748031496062992},{"duration":0.09090899999995372,"midi":73,"time":266.90882400000004,"velocity":0.015748031496062992},{"duration":0.09090899999995372,"midi":79,"time":266.90882400000004,"velocity":0.015748031496062992},{"duration":0.09090899999995372,"midi":79,"time":266.90882400000004,"velocity":0.015748031496062992},{"duration":0.09090899999995372,"midi":69,"time":266.90882400000004,"velocity":0.015748031496062992},{"duration":0.09090899999995372,"midi":73,"time":266.90882400000004,"velocity":0.015748031496062992},{"duration":0.09090899999995372,"midi":73,"time":266.90882400000004,"velocity":0.015748031496062992},{"duration":0.09090899999995372,"midi":79,"time":266.90882400000004,"velocity":0.015748031496062992},{"duration":0.09090899999995372,"midi":79,"time":266.90882400000004,"velocity":0.015748031496062992},{"duration":0.09090899999995372,"midi":79,"time":266.90882400000004,"velocity":0.015748031496062992},{"duration":0.09090899999995372,"midi":69,"time":266.90882400000004,"velocity":0.015748031496062992},{"duration":0.09090899999995372,"midi":69,"time":266.90882400000004,"velocity":0.015748031496062992},{"duration":0.09090899999995372,"midi":69,"time":266.90882400000004,"velocity":0.015748031496062992},{"duration":0.09090899999995372,"midi":79,"time":266.90882400000004,"velocity":0.015748031496062992},{"duration":0.09090899999995372,"midi":73,"time":266.90882400000004,"velocity":0.015748031496062992},{"duration":0.09090899999995372,"midi":79,"time":266.90882400000004,"velocity":0.015748031496062992},{"duration":0.09090899999995372,"midi":79,"time":266.90882400000004,"velocity":0.015748031496062992},{"duration":0.09090899999995372,"midi":79,"time":266.90882400000004,"velocity":0.015748031496062992},{"duration":0.09090899999995372,"midi":73,"time":266.90882400000004,"velocity":0.015748031496062992},{"duration":0.09090899999995372,"midi":69,"time":266.90882400000004,"velocity":0.015748031496062992},{"duration":0.09090899999995372,"midi":69,"time":266.90882400000004,"velocity":0.015748031496062992},{"duration":0.09090899999995372,"midi":73,"time":266.90882400000004,"velocity":0.015748031496062992},{"duration":0.09090899999995372,"midi":79,"time":266.90882400000004,"velocity":0.015748031496062992},{"duration":0.09090899999995372,"midi":79,"time":266.90882400000004,"velocity":0.015748031496062992},{"duration":0.09090899999995372,"midi":73,"time":266.90882400000004,"velocity":0.015748031496062992},{"duration":0.09090899999995372,"midi":73,"time":266.90882400000004,"velocity":0.015748031496062992},{"duration":0.09090899999995372,"midi":73,"time":266.90882400000004,"velocity":0.015748031496062992},{"duration":0.09090899999995372,"midi":69,"time":266.90882400000004,"velocity":0.015748031496062992},{"duration":0.09090899999995372,"midi":79,"time":266.90882400000004,"velocity":0.015748031496062992},{"duration":0.09090899999995372,"midi":79,"time":266.90882400000004,"velocity":0.015748031496062992},{"duration":0.09090899999995372,"midi":73,"time":266.90882400000004,"velocity":0.015748031496062992},{"duration":0.09090899999995372,"midi":79,"time":266.90882400000004,"velocity":0.015748031496062992},{"duration":0.09090899999995372,"midi":69,"time":266.90882400000004,"velocity":0.015748031496062992},{"duration":0.09090899999995372,"midi":73,"time":266.90882400000004,"velocity":0.015748031496062992},{"duration":0.09090899999995372,"midi":79,"time":266.90882400000004,"velocity":0.015748031496062992},{"duration":0.09090899999995372,"midi":79,"time":266.90882400000004,"velocity":0.015748031496062992},{"duration":0.09090899999995372,"midi":79,"time":266.90882400000004,"velocity":0.015748031496062992},{"duration":0.09090899999995372,"midi":69,"time":266.90882400000004,"velocity":0.015748031496062992},{"duration":0.09090899999995372,"midi":73,"time":266.90882400000004,"velocity":0.015748031496062992},{"duration":0.09090899999995372,"midi":79,"time":266.90882400000004,"velocity":0.015748031496062992},{"duration":0.09090899999995372,"midi":79,"time":266.90882400000004,"velocity":0.015748031496062992},{"duration":0.09090899999995372,"midi":69,"time":266.90882400000004,"velocity":0.015748031496062992},{"duration":0.09090899999995372,"midi":73,"time":266.90882400000004,"velocity":0.015748031496062992},{"duration":0.09090899999995372,"midi":69,"time":266.90882400000004,"velocity":0.015748031496062992},{"duration":0.09090899999995372,"midi":73,"time":266.90882400000004,"velocity":0.015748031496062992},{"duration":0.09090899999995372,"midi":79,"time":266.90882400000004,"velocity":0.015748031496062992},{"duration":0.09090899999995372,"midi":79,"time":266.90882400000004,"velocity":0.015748031496062992},{"duration":0.09090899999995372,"midi":73,"time":266.90882400000004,"velocity":0.015748031496062992},{"duration":0.09090899999995372,"midi":73,"time":266.90882400000004,"velocity":0.015748031496062992},{"duration":0.09090899999995372,"midi":79,"time":266.90882400000004,"velocity":0.015748031496062992},{"duration":0.09090899999995372,"midi":69,"time":266.90882400000004,"velocity":0.015748031496062992},{"duration":0.09090899999995372,"midi":73,"time":266.90882400000004,"velocity":0.015748031496062992},{"duration":0.09090899999995372,"midi":69,"time":266.90882400000004,"velocity":0.015748031496062992},{"duration":0.09090899999995372,"midi":79,"time":266.90882400000004,"velocity":0.015748031496062992},{"duration":0.09090899999995372,"midi":73,"time":266.90882400000004,"velocity":0.015748031496062992},{"duration":0.09090899999995372,"midi":69,"time":266.90882400000004,"velocity":0.015748031496062992},{"duration":0.09090899999995372,"midi":79,"time":266.90882400000004,"velocity":0.015748031496062992},{"duration":0.09090899999995372,"midi":73,"time":266.90882400000004,"velocity":0.015748031496062992},{"duration":0.09090899999995372,"midi":69,"time":266.90882400000004,"velocity":0.015748031496062992},{"duration":0.09090899999995372,"midi":69,"time":266.90882400000004,"velocity":0.015748031496062992},{"duration":0.09090899999995372,"midi":73,"time":266.90882400000004,"velocity":0.015748031496062992},{"duration":0.09090899999995372,"midi":69,"time":266.90882400000004,"velocity":0.015748031496062992},{"duration":0.09090899999995372,"midi":69,"time":266.90882400000004,"velocity":0.015748031496062992},{"duration":0.09090899999995372,"midi":69,"time":266.90882400000004,"velocity":0.015748031496062992},{"duration":0.09090899999995372,"midi":73,"time":266.90882400000004,"velocity":0.015748031496062992},{"duration":0.09090899999995372,"midi":69,"time":266.90882400000004,"velocity":0.015748031496062992},{"duration":0.09090899999995372,"midi":79,"time":266.90882400000004,"velocity":0.015748031496062992},{"duration":0.09090899999995372,"midi":69,"time":266.90882400000004,"velocity":0.015748031496062992},{"duration":0.09090899999995372,"midi":73,"time":266.90882400000004,"velocity":0.015748031496062992},{"duration":0.09090899999995372,"midi":73,"time":266.90882400000004,"velocity":0.015748031496062992},{"duration":0.09090899999995372,"midi":69,"time":266.90882400000004,"velocity":0.015748031496062992},{"duration":0.09090899999995372,"midi":69,"time":266.90882400000004,"velocity":0.015748031496062992}]},{"instrument":{"family":"drums","number":0,"name":"standard kit"},"notes":[{"duration":0.181818,"midi":31,"time":0,"velocity":0.3937007874015748},{"duration":0.18181799999999998,"midi":31,"time":0.363636,"velocity":0.3937007874015748},{"duration":0.18181800000000004,"midi":31,"time":0.727272,"velocity":0.3937007874015748},{"duration":0.18181800000000004,"midi":31,"time":1.090908,"velocity":0.3937007874015748},{"duration":0.18181800000000004,"midi":31,"time":1.454544,"velocity":0.3937007874015748},{"duration":0.18181800000000004,"midi":31,"time":1.8181800000000001,"velocity":0.3937007874015748},{"duration":0.18181800000000026,"midi":31,"time":2.181816,"velocity":0.3937007874015748},{"duration":0.18181800000000026,"midi":31,"time":2.545452,"velocity":0.3937007874015748},{"duration":0.1818179999999998,"midi":31,"time":2.909088,"velocity":0.3937007874015748},{"duration":0.1818179999999998,"midi":31,"time":3.272724,"velocity":0.3937007874015748},{"duration":0.1818179999999998,"midi":31,"time":3.6363600000000003,"velocity":0.3937007874015748},{"duration":0.1818179999999998,"midi":31,"time":3.9999960000000003,"velocity":0.3937007874015748},{"duration":0.1818179999999998,"midi":31,"time":4.363632,"velocity":0.3937007874015748},{"duration":0.1818179999999998,"midi":31,"time":4.7272680000000005,"velocity":0.3937007874015748},{"duration":0.1818179999999998,"midi":31,"time":5.090904,"velocity":0.3937007874015748},{"duration":0.1818179999999998,"midi":31,"time":5.454540000000001,"velocity":0.3937007874015748},{"duration":0.1818179999999998,"midi":31,"time":5.818176,"velocity":0.3937007874015748},{"duration":0.1818180000000007,"midi":31,"time":6.181812,"velocity":0.3937007874015748},{"duration":0.1818179999999998,"midi":31,"time":6.545448,"velocity":0.3937007874015748},{"duration":0.1818180000000007,"midi":31,"time":6.909084,"velocity":0.3937007874015748},{"duration":0.1818179999999998,"midi":31,"time":7.2727200000000005,"velocity":0.3937007874015748},{"duration":0.1818179999999998,"midi":31,"time":7.636356,"velocity":0.3937007874015748},{"duration":0.1818179999999998,"midi":31,"time":7.999992000000001,"velocity":0.3937007874015748},{"duration":0.1818179999999998,"midi":31,"time":8.363628,"velocity":0.3937007874015748},{"duration":0.1818179999999998,"midi":31,"time":8.727264,"velocity":0.3937007874015748},{"duration":0.1818180000000016,"midi":31,"time":9.0909,"velocity":0.3937007874015748},{"duration":0.1818179999999998,"midi":31,"time":9.454536000000001,"velocity":0.3937007874015748},{"duration":0.1818179999999998,"midi":31,"time":9.818172,"velocity":0.3937007874015748},{"duration":0.1818179999999998,"midi":31,"time":10.181808,"velocity":0.3937007874015748},{"duration":0.1818179999999998,"midi":31,"time":10.545444,"velocity":0.3937007874015748},{"duration":0.1818179999999998,"midi":31,"time":10.909080000000001,"velocity":0.3937007874015748},{"duration":0.04545449999999995,"midi":31,"time":11.636352,"velocity":0.3937007874015748},{"duration":0.04545449999999995,"midi":31,"time":11.999988,"velocity":0.3937007874015748},{"duration":0.04545449999999995,"midi":31,"time":12.363624,"velocity":0.3937007874015748},{"duration":0.04545449999999995,"midi":31,"time":12.727260000000001,"velocity":0.3937007874015748},{"duration":0.04545449999999995,"midi":31,"time":13.090896,"velocity":0.3937007874015748},{"duration":0.04545449999999995,"midi":31,"time":13.454532,"velocity":0.3937007874015748},{"duration":0.04545449999999995,"midi":31,"time":13.818168,"velocity":0.3937007874015748},{"duration":0.04545449999999995,"midi":31,"time":14.181804000000001,"velocity":0.3937007874015748},{"duration":0.04545449999999995,"midi":31,"time":14.545440000000001,"velocity":0.3937007874015748},{"duration":0.04545449999999995,"midi":31,"time":14.909076,"velocity":0.3937007874015748},{"duration":0.04545449999999995,"midi":31,"time":15.272712,"velocity":0.3937007874015748},{"duration":0.04545449999999995,"midi":31,"time":15.636348,"velocity":0.3937007874015748},{"duration":0.04545449999999818,"midi":31,"time":15.999984000000001,"velocity":0.3937007874015748},{"duration":0.04545449999999818,"midi":31,"time":16.36362,"velocity":0.3937007874015748},{"duration":0.04545450000000173,"midi":31,"time":16.727256,"velocity":0.3937007874015748},{"duration":0.04545450000000173,"midi":31,"time":17.090892,"velocity":0.3937007874015748},{"duration":0.04545450000000173,"midi":31,"time":17.454528,"velocity":0.3937007874015748},{"duration":0.04545450000000173,"midi":31,"time":17.818164,"velocity":0.3937007874015748},{"duration":0.04545450000000173,"midi":31,"time":18.1818,"velocity":0.3937007874015748},{"duration":0.04545449999999818,"midi":31,"time":18.545436000000002,"velocity":0.3937007874015748},{"duration":0.04545449999999818,"midi":31,"time":18.909072000000002,"velocity":0.3937007874015748},{"duration":0.04545449999999818,"midi":31,"time":19.272708,"velocity":0.3937007874015748},{"duration":0.04545449999999818,"midi":31,"time":19.636344,"velocity":0.3937007874015748},{"duration":0.04545450000000173,"midi":31,"time":19.99998,"velocity":0.3937007874015748},{"duration":0.04545450000000173,"midi":31,"time":20.363616,"velocity":0.3937007874015748},{"duration":0.04545450000000173,"midi":31,"time":20.727252,"velocity":0.3937007874015748},{"duration":0.04545450000000173,"midi":31,"time":21.090888,"velocity":0.3937007874015748},{"duration":0.04545450000000173,"midi":31,"time":21.454524,"velocity":0.3937007874015748},{"duration":0.04545449999999818,"midi":31,"time":21.818160000000002,"velocity":0.3937007874015748},{"duration":0.04545449999999818,"midi":31,"time":22.181796000000002,"velocity":0.3937007874015748},{"duration":0.04545449999999818,"midi":31,"time":22.545432,"velocity":0.3937007874015748},{"duration":0.04545449999999818,"midi":31,"time":22.909068,"velocity":0.3937007874015748},{"duration":0.04545450000000528,"midi":31,"time":34.909056,"velocity":0.3937007874015748},{"duration":0.04545450000000528,"midi":31,"time":35.272692,"velocity":0.3937007874015748},{"duration":0.04545450000000528,"midi":31,"time":35.636328,"velocity":0.3937007874015748},{"duration":0.04545450000000528,"midi":31,"time":35.999964,"velocity":0.3937007874015748},{"duration":0.04545450000000528,"midi":31,"time":36.3636,"velocity":0.3937007874015748},{"duration":0.04545449999999818,"midi":31,"time":36.727236000000005,"velocity":0.3937007874015748},{"duration":0.04545449999999818,"midi":31,"time":37.090872000000005,"velocity":0.3937007874015748},{"duration":0.04545449999999818,"midi":31,"time":37.454508000000004,"velocity":0.3937007874015748},{"duration":0.04545449999999818,"midi":31,"time":37.818144000000004,"velocity":0.3937007874015748},{"duration":0.04545449999999818,"midi":31,"time":38.18178,"velocity":0.3937007874015748},{"duration":0.04545449999999818,"midi":31,"time":38.545416,"velocity":0.3937007874015748},{"duration":0.04545449999999818,"midi":31,"time":38.909052,"velocity":0.3937007874015748},{"duration":0.04545449999999818,"midi":31,"time":39.272688,"velocity":0.3937007874015748},{"duration":0.04545449999999818,"midi":31,"time":39.636324,"velocity":0.3937007874015748},{"duration":0.04545449999999818,"midi":31,"time":39.99996,"velocity":0.3937007874015748},{"duration":0.04545449999999818,"midi":31,"time":40.363596,"velocity":0.3937007874015748},{"duration":0.04545449999999818,"midi":31,"time":40.727232,"velocity":0.3937007874015748},{"duration":0.04545449999999818,"midi":31,"time":41.090868,"velocity":0.3937007874015748},{"duration":0.04545449999999818,"midi":31,"time":41.454504,"velocity":0.3937007874015748},{"duration":0.04545450000000528,"midi":31,"time":41.81814,"velocity":0.3937007874015748},{"duration":0.04545450000000528,"midi":31,"time":42.181776,"velocity":0.3937007874015748},{"duration":0.04545450000000528,"midi":31,"time":42.545412,"velocity":0.3937007874015748},{"duration":0.04545450000000528,"midi":31,"time":42.909048,"velocity":0.3937007874015748},{"duration":0.04545449999999818,"midi":31,"time":43.272684000000005,"velocity":0.3937007874015748},{"duration":0.04545449999999818,"midi":31,"time":43.636320000000005,"velocity":0.3937007874015748},{"duration":0.04545449999999818,"midi":31,"time":43.999956000000005,"velocity":0.3937007874015748},{"duration":0.04545449999999818,"midi":31,"time":44.363592000000004,"velocity":0.3937007874015748},{"duration":0.04545449999999818,"midi":31,"time":44.727228000000004,"velocity":0.3937007874015748},{"duration":0.04545449999999818,"midi":31,"time":45.090864,"velocity":0.3937007874015748},{"duration":0.04545449999999818,"midi":31,"time":45.4545,"velocity":0.3937007874015748},{"duration":0.04545449999999818,"midi":31,"time":45.818136,"velocity":0.3937007874015748},{"duration":0.04545449999999818,"midi":31,"time":46.181772,"velocity":0.3937007874015748},{"duration":0.1818179999999998,"midi":28,"time":58.545396000000004,"velocity":0.3937007874015748},{"duration":0.1818179999999998,"midi":28,"time":59.272668,"velocity":0.3937007874015748},{"duration":0.1818179999999998,"midi":28,"time":59.99994,"velocity":0.3937007874015748},{"duration":0.1818179999999998,"midi":28,"time":60.727212,"velocity":0.3937007874015748},{"duration":0.1818179999999998,"midi":28,"time":61.454484,"velocity":0.3937007874015748},{"duration":0.1818179999999998,"midi":28,"time":62.181756,"velocity":0.3937007874015748},{"duration":0.1818179999999998,"midi":28,"time":62.909028,"velocity":0.3937007874015748},{"duration":0.1818179999999998,"midi":28,"time":63.636300000000006,"velocity":0.3937007874015748},{"duration":0.1818179999999927,"midi":28,"time":64.363572,"velocity":0.3937007874015748},{"duration":0.1818179999999927,"midi":28,"time":65.090844,"velocity":0.3937007874015748},{"duration":0.1818179999999927,"midi":28,"time":65.818116,"velocity":0.3937007874015748},{"duration":0.18181800000000692,"midi":28,"time":66.545388,"velocity":0.3937007874015748},{"duration":0.18181800000000692,"midi":28,"time":67.27266,"velocity":0.3937007874015748},{"duration":0.18181800000000692,"midi":28,"time":67.999932,"velocity":0.3937007874015748},{"duration":0.18181800000000692,"midi":28,"time":68.727204,"velocity":0.3937007874015748},{"duration":0.18181800000000692,"midi":28,"time":70.181748,"velocity":0.3937007874015748},{"duration":0.18181800000000692,"midi":28,"time":70.90902,"velocity":0.3937007874015748},{"duration":0.18181800000000692,"midi":28,"time":71.636292,"velocity":0.3937007874015748},{"duration":0.18181800000000692,"midi":28,"time":72.363564,"velocity":0.3937007874015748},{"duration":0.18181800000000692,"midi":28,"time":73.090836,"velocity":0.3937007874015748},{"duration":0.1818179999999927,"midi":28,"time":73.81810800000001,"velocity":0.3937007874015748},{"duration":0.1818179999999927,"midi":28,"time":74.54538000000001,"velocity":0.3937007874015748},{"duration":0.1818179999999927,"midi":28,"time":75.27265200000001,"velocity":0.3937007874015748},{"duration":0.1818179999999927,"midi":28,"time":75.99992400000001,"velocity":0.3937007874015748},{"duration":0.1818179999999927,"midi":28,"time":76.727196,"velocity":0.3937007874015748},{"duration":0.1818179999999927,"midi":28,"time":77.454468,"velocity":0.3937007874015748},{"duration":0.1818179999999927,"midi":28,"time":78.18174,"velocity":0.3937007874015748},{"duration":0.1818179999999927,"midi":28,"time":78.909012,"velocity":0.3937007874015748},{"duration":0.18181800000000692,"midi":28,"time":79.636284,"velocity":0.3937007874015748},{"duration":0.18181800000000692,"midi":28,"time":80.363556,"velocity":0.3937007874015748},{"duration":0.18181800000000692,"midi":28,"time":81.090828,"velocity":0.3937007874015748},{"duration":0.18181800000000692,"midi":28,"time":81.8181,"velocity":0.3937007874015748},{"duration":0.18181800000000692,"midi":28,"time":82.545372,"velocity":0.3937007874015748},{"duration":0.18181800000000692,"midi":28,"time":83.272644,"velocity":0.3937007874015748},{"duration":0.18181800000000692,"midi":28,"time":83.999916,"velocity":0.3937007874015748},{"duration":0.18181800000000692,"midi":28,"time":84.727188,"velocity":0.3937007874015748},{"duration":0.18181800000000692,"midi":28,"time":85.45446,"velocity":0.3937007874015748},{"duration":0.18181800000000692,"midi":28,"time":86.181732,"velocity":0.3937007874015748},{"duration":0.1818179999999927,"midi":28,"time":86.90900400000001,"velocity":0.3937007874015748},{"duration":0.1818179999999927,"midi":28,"time":87.63627600000001,"velocity":0.3937007874015748},{"duration":0.1818179999999927,"midi":28,"time":88.36354800000001,"velocity":0.3937007874015748},{"duration":0.1818179999999927,"midi":28,"time":89.09082000000001,"velocity":0.3937007874015748},{"duration":0.1818179999999927,"midi":28,"time":89.81809200000001,"velocity":0.3937007874015748},{"duration":0.1818179999999927,"midi":28,"time":90.545364,"velocity":0.3937007874015748},{"duration":0.1818179999999927,"midi":28,"time":91.272636,"velocity":0.3937007874015748},{"duration":0.1818179999999927,"midi":28,"time":91.999908,"velocity":0.3937007874015748},{"duration":0.1818179999999927,"midi":28,"time":92.72718,"velocity":0.3937007874015748},{"duration":0.1818179999999927,"midi":31,"time":127.99987200000001,"velocity":0.3937007874015748},{"duration":0.18181800000002113,"midi":31,"time":128.363508,"velocity":0.3937007874015748},{"duration":0.1818179999999927,"midi":31,"time":128.727144,"velocity":0.3937007874015748},{"duration":0.18181800000002113,"midi":31,"time":129.09078,"velocity":0.3937007874015748},{"duration":0.1818179999999927,"midi":31,"time":129.454416,"velocity":0.3937007874015748},{"duration":0.18181800000002113,"midi":31,"time":129.818052,"velocity":0.3937007874015748},{"duration":0.1818179999999927,"midi":31,"time":130.181688,"velocity":0.3937007874015748},{"duration":0.18181800000002113,"midi":31,"time":130.545324,"velocity":0.3937007874015748},{"duration":0.1818179999999927,"midi":31,"time":130.90896,"velocity":0.3937007874015748},{"duration":0.18181800000002113,"midi":31,"time":131.272596,"velocity":0.3937007874015748},{"duration":0.1818179999999927,"midi":31,"time":131.636232,"velocity":0.3937007874015748},{"duration":0.18181800000002113,"midi":31,"time":131.999868,"velocity":0.3937007874015748},{"duration":0.1818179999999927,"midi":31,"time":132.363504,"velocity":0.3937007874015748},{"duration":0.18181800000002113,"midi":31,"time":132.72714,"velocity":0.3937007874015748},{"duration":0.1818179999999927,"midi":31,"time":133.090776,"velocity":0.3937007874015748},{"duration":0.1818179999999927,"midi":31,"time":133.45441200000002,"velocity":0.3937007874015748},{"duration":0.1818179999999927,"midi":31,"time":133.818048,"velocity":0.3937007874015748},{"duration":0.1818179999999927,"midi":31,"time":134.18168400000002,"velocity":0.3937007874015748},{"duration":0.1818179999999927,"midi":31,"time":134.54532,"velocity":0.3937007874015748},{"duration":0.1818179999999927,"midi":31,"time":134.90895600000002,"velocity":0.3937007874015748},{"duration":0.1818179999999927,"midi":31,"time":135.272592,"velocity":0.3937007874015748},{"duration":0.1818179999999927,"midi":31,"time":135.63622800000002,"velocity":0.3937007874015748},{"duration":0.1818179999999927,"midi":31,"time":135.999864,"velocity":0.3937007874015748},{"duration":0.1818179999999927,"midi":31,"time":136.36350000000002,"velocity":0.3937007874015748},{"duration":0.1818179999999927,"midi":31,"time":136.727136,"velocity":0.3937007874015748},{"duration":0.1818179999999927,"midi":31,"time":137.09077200000002,"velocity":0.3937007874015748},{"duration":0.1818179999999927,"midi":31,"time":137.454408,"velocity":0.3937007874015748},{"duration":0.1818179999999927,"midi":31,"time":137.81804400000001,"velocity":0.3937007874015748},{"duration":0.1818179999999927,"midi":31,"time":138.18168,"velocity":0.3937007874015748},{"duration":0.1818179999999927,"midi":31,"time":138.545316,"velocity":0.3937007874015748},{"duration":0.1818179999999927,"midi":31,"time":138.908952,"velocity":0.3937007874015748},{"duration":0.1818179999999927,"midi":31,"time":184.727088,"velocity":0.3937007874015748},{"duration":0.18181800000002113,"midi":31,"time":185.090724,"velocity":0.3937007874015748},{"duration":0.1818179999999927,"midi":31,"time":185.45436,"velocity":0.3937007874015748},{"duration":0.18181800000002113,"midi":31,"time":185.817996,"velocity":0.3937007874015748},{"duration":0.18181800000002113,"midi":28,"time":267.999732,"velocity":0.3937007874015748},{"duration":0.18181799999996429,"midi":28,"time":268.727004,"velocity":0.3937007874015748},{"duration":0.18181800000002113,"midi":28,"time":269.454276,"velocity":0.3937007874015748},{"duration":0.18181799999996429,"midi":28,"time":270.181548,"velocity":0.3937007874015748},{"duration":0.18181800000002113,"midi":28,"time":270.90882,"velocity":0.3937007874015748},{"duration":0.18181799999996429,"midi":28,"time":271.636092,"velocity":0.3937007874015748},{"duration":0.18181800000002113,"midi":28,"time":272.363364,"velocity":0.3937007874015748},{"duration":0.18181800000002113,"midi":28,"time":273.090636,"velocity":0.3937007874015748},{"duration":0.18181800000002113,"midi":28,"time":273.817908,"velocity":0.3937007874015748},{"duration":0.18181800000002113,"midi":28,"time":274.54518,"velocity":0.3937007874015748},{"duration":0.18181800000002113,"midi":28,"time":275.272452,"velocity":0.3937007874015748},{"duration":0.18181800000002113,"midi":28,"time":275.999724,"velocity":0.3937007874015748},{"duration":0.18181800000002113,"midi":28,"time":276.726996,"velocity":0.3937007874015748},{"duration":0.18181800000002113,"midi":28,"time":277.454268,"velocity":0.3937007874015748},{"duration":0.18181800000002113,"midi":28,"time":278.18154,"velocity":0.3937007874015748},{"duration":0.18181800000002113,"midi":28,"time":278.908812,"velocity":0.3937007874015748},{"duration":0.18181799999996429,"midi":28,"time":279.63608400000004,"velocity":0.3937007874015748},{"duration":0.18181800000002113,"midi":28,"time":280.363356,"velocity":0.3937007874015748},{"duration":0.18181799999996429,"midi":28,"time":281.09062800000004,"velocity":0.3937007874015748},{"duration":0.18181800000002113,"midi":28,"time":281.8179,"velocity":0.3937007874015748},{"duration":0.18181799999996429,"midi":28,"time":282.54517200000004,"velocity":0.3937007874015748},{"duration":0.18181800000002113,"midi":28,"time":283.272444,"velocity":0.3937007874015748},{"duration":0.18181799999996429,"midi":28,"time":283.99971600000003,"velocity":0.3937007874015748},{"duration":0.18181800000002113,"midi":28,"time":284.726988,"velocity":0.3937007874015748},{"duration":0.18181799999996429,"midi":28,"time":285.45426000000003,"velocity":0.3937007874015748},{"duration":0.18181800000002113,"midi":28,"time":286.181532,"velocity":0.3937007874015748},{"duration":0.18181799999996429,"midi":28,"time":286.90880400000003,"velocity":0.3937007874015748},{"duration":0.18181800000002113,"midi":28,"time":287.636076,"velocity":0.3937007874015748},{"duration":0.18181799999996429,"midi":28,"time":288.36334800000003,"velocity":0.3937007874015748},{"duration":0.18181800000002113,"midi":28,"time":289.09062,"velocity":0.3937007874015748},{"duration":0.18181799999996429,"midi":28,"time":289.81789200000003,"velocity":0.3937007874015748},{"duration":0.18181800000002113,"midi":28,"time":290.545164,"velocity":0.3937007874015748},{"duration":0.18181799999996429,"midi":28,"time":291.272436,"velocity":0.3937007874015748},{"duration":0.18181800000002113,"midi":28,"time":291.999708,"velocity":0.3937007874015748},{"duration":0.18181799999996429,"midi":28,"time":292.72698,"velocity":0.3937007874015748},{"duration":0.18181800000002113,"midi":28,"time":293.454252,"velocity":0.3937007874015748},{"duration":0.18181799999996429,"midi":28,"time":294.181524,"velocity":0.3937007874015748},{"duration":0.18181800000002113,"midi":28,"time":294.908796,"velocity":0.3937007874015748},{"duration":0.18181799999996429,"midi":28,"time":295.636068,"velocity":0.3937007874015748},{"duration":0.18181800000002113,"midi":28,"time":296.36334,"velocity":0.3937007874015748},{"duration":0.18181799999996429,"midi":28,"time":297.090612,"velocity":0.3937007874015748},{"duration":0.18181800000002113,"midi":28,"time":297.817884,"velocity":0.3937007874015748},{"duration":0.18181799999996429,"midi":28,"time":298.545156,"velocity":0.3937007874015748},{"duration":0.18181800000002113,"midi":28,"time":299.272428,"velocity":0.3937007874015748},{"duration":0.18181800000002113,"midi":28,"time":299.9997,"velocity":0.3937007874015748},{"duration":0.18181800000002113,"midi":28,"time":300.726972,"velocity":0.3937007874015748},{"duration":0.18181800000002113,"midi":28,"time":301.454244,"velocity":0.3937007874015748},{"duration":0.18181800000002113,"midi":28,"time":302.181516,"velocity":0.3937007874015748}]},{"instrument":{"family":"synth lead","number":80,"name":"lead 1 (square)"},"notes":[{"duration":0.1818179999999998,"midi":31,"time":12.727260000000001,"velocity":0.3937007874015748},{"duration":0.1818179999999998,"midi":31,"time":12.909078000000001,"velocity":0.3937007874015748},{"duration":0.1818179999999998,"midi":28,"time":14.181804000000001,"velocity":0.3937007874015748},{"duration":0.1818179999999998,"midi":28,"time":14.363622000000001,"velocity":0.3937007874015748},{"duration":0.1818180000000016,"midi":29,"time":15.636348,"velocity":0.3937007874015748},{"duration":0.1818179999999998,"midi":29,"time":15.818166000000002,"velocity":0.3937007874015748},{"duration":0.1818179999999998,"midi":31,"time":17.090892,"velocity":0.3937007874015748},{"duration":0.1818179999999998,"midi":31,"time":17.27271,"velocity":0.3937007874015748},{"duration":0.1818179999999998,"midi":31,"time":18.545436000000002,"velocity":0.3937007874015748},{"duration":0.1818179999999998,"midi":31,"time":18.727254000000002,"velocity":0.3937007874015748},{"duration":0.1818179999999998,"midi":28,"time":19.99998,"velocity":0.3937007874015748},{"duration":0.1818179999999998,"midi":28,"time":20.181798,"velocity":0.3937007874015748},{"duration":0.18181800000000337,"midi":29,"time":21.454524,"velocity":0.3937007874015748},{"duration":0.1818179999999998,"midi":29,"time":21.636342000000003,"velocity":0.3937007874015748},{"duration":0.1818179999999998,"midi":31,"time":22.909068,"velocity":0.3937007874015748},{"duration":0.1818179999999998,"midi":31,"time":23.090886,"velocity":0.3937007874015748},{"duration":0.1818179999999927,"midi":31,"time":140.727132,"velocity":0.3937007874015748},{"duration":0.1818179999999927,"midi":31,"time":140.90895,"velocity":0.3937007874015748},{"duration":0.1818179999999927,"midi":28,"time":142.181676,"velocity":0.3937007874015748},{"duration":0.1818179999999927,"midi":28,"time":142.363494,"velocity":0.3937007874015748},{"duration":0.1818179999999927,"midi":29,"time":143.63622,"velocity":0.3937007874015748},{"duration":0.1818179999999927,"midi":29,"time":143.818038,"velocity":0.3937007874015748},{"duration":0.1818179999999927,"midi":31,"time":145.090764,"velocity":0.3937007874015748},{"duration":0.1818179999999927,"midi":31,"time":145.272582,"velocity":0.3937007874015748},{"duration":0.1818179999999927,"midi":31,"time":146.545308,"velocity":0.3937007874015748},{"duration":0.18181800000002113,"midi":31,"time":146.727126,"velocity":0.3937007874015748},{"duration":0.1818179999999927,"midi":28,"time":147.999852,"velocity":0.3937007874015748},{"duration":0.18181800000002113,"midi":28,"time":148.18167,"velocity":0.3937007874015748},{"duration":0.1818179999999927,"midi":29,"time":149.454396,"velocity":0.3937007874015748},{"duration":0.18181800000002113,"midi":29,"time":149.636214,"velocity":0.3937007874015748},{"duration":0.1818179999999927,"midi":31,"time":150.90894,"velocity":0.3937007874015748},{"duration":0.18181800000002113,"midi":31,"time":151.090758,"velocity":0.3937007874015748}]},{"instrument":{"family":"guitar","number":29,"name":"overdriven guitar"},"notes":[{"duration":0.13636349999999986,"midi":43,"time":11.636352,"velocity":0.1968503937007874},{"duration":0.13636349999999986,"midi":31,"time":11.636352,"velocity":0.1968503937007874},{"duration":0.13636349999999986,"midi":43,"time":11.636352,"velocity":0.1968503937007874},{"duration":0.13636349999999986,"midi":31,"time":11.636352,"velocity":0.1968503937007874},{"duration":0.13636349999999986,"midi":43,"time":11.81817,"velocity":0.1968503937007874},{"duration":0.13636349999999986,"midi":55,"time":11.81817,"velocity":0.1968503937007874},{"duration":0.13636349999999986,"midi":43,"time":11.81817,"velocity":0.1968503937007874},{"duration":0.13636349999999986,"midi":55,"time":11.81817,"velocity":0.1968503937007874},{"duration":0.13636349999999986,"midi":31,"time":11.999988,"velocity":0.1968503937007874},{"duration":0.13636349999999986,"midi":31,"time":11.999988,"velocity":0.1968503937007874},{"duration":0.13636349999999986,"midi":43,"time":11.999988,"velocity":0.1968503937007874},{"duration":0.13636349999999986,"midi":43,"time":11.999988,"velocity":0.1968503937007874},{"duration":0.13636349999999986,"midi":43,"time":12.181806,"velocity":0.1968503937007874},{"duration":0.13636349999999986,"midi":43,"time":12.181806,"velocity":0.1968503937007874},{"duration":0.13636349999999986,"midi":55,"time":12.181806,"velocity":0.1968503937007874},{"duration":0.13636349999999986,"midi":55,"time":12.181806,"velocity":0.1968503937007874},{"duration":0.13636350000000164,"midi":43,"time":12.363624,"velocity":0.1968503937007874},{"duration":0.13636350000000164,"midi":43,"time":12.363624,"velocity":0.1968503937007874},{"duration":0.13636350000000164,"midi":31,"time":12.363624,"velocity":0.1968503937007874},{"duration":0.13636350000000164,"midi":31,"time":12.363624,"velocity":0.1968503937007874},{"duration":0.13636349999999986,"midi":55,"time":12.545442000000001,"velocity":0.1968503937007874},{"duration":0.13636349999999986,"midi":55,"time":12.545442000000001,"velocity":0.1968503937007874},{"duration":0.13636349999999986,"midi":43,"time":12.545442000000001,"velocity":0.1968503937007874},{"duration":0.13636349999999986,"midi":43,"time":12.545442000000001,"velocity":0.1968503937007874},{"duration":0.13636349999999986,"midi":43,"time":12.727260000000001,"velocity":0.1968503937007874},{"duration":0.13636349999999986,"midi":31,"time":12.727260000000001,"velocity":0.1968503937007874},{"duration":0.13636349999999986,"midi":43,"time":12.727260000000001,"velocity":0.1968503937007874},{"duration":0.13636349999999986,"midi":31,"time":12.727260000000001,"velocity":0.1968503937007874},{"duration":0.13636349999999986,"midi":55,"time":12.909078000000001,"velocity":0.1968503937007874},{"duration":0.13636349999999986,"midi":43,"time":12.909078000000001,"velocity":0.1968503937007874},{"duration":0.13636349999999986,"midi":43,"time":12.909078000000001,"velocity":0.1968503937007874},{"duration":0.13636349999999986,"midi":55,"time":12.909078000000001,"velocity":0.1968503937007874},{"duration":0.13636349999999986,"midi":40,"time":13.090896,"velocity":0.1968503937007874},{"duration":0.13636349999999986,"midi":40,"time":13.090896,"velocity":0.1968503937007874},{"duration":0.13636349999999986,"midi":28,"time":13.090896,"velocity":0.1968503937007874},{"duration":0.13636349999999986,"midi":28,"time":13.090896,"velocity":0.1968503937007874},{"duration":0.13636349999999986,"midi":40,"time":13.272714,"velocity":0.1968503937007874},{"duration":0.13636349999999986,"midi":40,"time":13.272714,"velocity":0.1968503937007874},{"duration":0.13636349999999986,"midi":52,"time":13.272714,"velocity":0.1968503937007874},{"duration":0.13636349999999986,"midi":52,"time":13.272714,"velocity":0.1968503937007874},{"duration":0.13636349999999986,"midi":28,"time":13.454532,"velocity":0.1968503937007874},{"duration":0.13636349999999986,"midi":40,"time":13.454532,"velocity":0.1968503937007874},{"duration":0.13636349999999986,"midi":40,"time":13.454532,"velocity":0.1968503937007874},{"duration":0.13636349999999986,"midi":28,"time":13.454532,"velocity":0.1968503937007874},{"duration":0.13636349999999986,"midi":40,"time":13.63635,"velocity":0.1968503937007874},{"duration":0.13636349999999986,"midi":52,"time":13.63635,"velocity":0.1968503937007874},{"duration":0.13636349999999986,"midi":40,"time":13.63635,"velocity":0.1968503937007874},{"duration":0.13636349999999986,"midi":52,"time":13.63635,"velocity":0.1968503937007874},{"duration":0.13636349999999986,"midi":40,"time":13.818168,"velocity":0.1968503937007874},{"duration":0.13636349999999986,"midi":28,"time":13.818168,"velocity":0.1968503937007874},{"duration":0.13636349999999986,"midi":40,"time":13.818168,"velocity":0.1968503937007874},{"duration":0.13636349999999986,"midi":28,"time":13.818168,"velocity":0.1968503937007874},{"duration":0.13636350000000164,"midi":40,"time":13.999986,"velocity":0.1968503937007874},{"duration":0.13636350000000164,"midi":40,"time":13.999986,"velocity":0.1968503937007874},{"duration":0.13636350000000164,"midi":52,"time":13.999986,"velocity":0.1968503937007874},{"duration":0.13636350000000164,"midi":52,"time":13.999986,"velocity":0.1968503937007874},{"duration":0.13636349999999986,"midi":40,"time":14.181804000000001,"velocity":0.1968503937007874},{"duration":0.13636349999999986,"midi":28,"time":14.181804000000001,"velocity":0.1968503937007874},{"duration":0.13636349999999986,"midi":40,"time":14.181804000000001,"velocity":0.1968503937007874},{"duration":0.13636349999999986,"midi":28,"time":14.181804000000001,"velocity":0.1968503937007874},{"duration":0.13636349999999986,"midi":52,"time":14.363622000000001,"velocity":0.1968503937007874},{"duration":0.13636349999999986,"midi":52,"time":14.363622000000001,"velocity":0.1968503937007874},{"duration":0.13636349999999986,"midi":40,"time":14.363622000000001,"velocity":0.1968503937007874},{"duration":0.13636349999999986,"midi":40,"time":14.363622000000001,"velocity":0.1968503937007874},{"duration":0.13636349999999986,"midi":41,"time":14.545440000000001,"velocity":0.1968503937007874},{"duration":0.13636349999999986,"midi":29,"time":14.545440000000001,"velocity":0.1968503937007874},{"duration":0.13636349999999986,"midi":29,"time":14.545440000000001,"velocity":0.1968503937007874},{"duration":0.13636349999999986,"midi":41,"time":14.545440000000001,"velocity":0.1968503937007874},{"duration":0.13636349999999986,"midi":41,"time":14.727258,"velocity":0.1968503937007874},{"duration":0.13636349999999986,"midi":53,"time":14.727258,"velocity":0.1968503937007874},{"duration":0.13636349999999986,"midi":41,"time":14.727258,"velocity":0.1968503937007874},{"duration":0.13636349999999986,"midi":53,"time":14.727258,"velocity":0.1968503937007874},{"duration":0.13636349999999986,"midi":41,"time":14.909076,"velocity":0.1968503937007874},{"duration":0.13636349999999986,"midi":29,"time":14.909076,"velocity":0.1968503937007874},{"duration":0.13636349999999986,"midi":29,"time":14.909076,"velocity":0.1968503937007874},{"duration":0.13636349999999986,"midi":41,"time":14.909076,"velocity":0.1968503937007874},{"duration":0.13636349999999986,"midi":41,"time":15.090894,"velocity":0.1968503937007874},{"duration":0.13636349999999986,"midi":41,"time":15.090894,"velocity":0.1968503937007874},{"duration":0.13636349999999986,"midi":53,"time":15.090894,"velocity":0.1968503937007874},{"duration":0.13636349999999986,"midi":53,"time":15.090894,"velocity":0.1968503937007874},{"duration":0.13636349999999986,"midi":41,"time":15.272712,"velocity":0.1968503937007874},{"duration":0.13636349999999986,"midi":29,"time":15.272712,"velocity":0.1968503937007874},{"duration":0.13636349999999986,"midi":41,"time":15.272712,"velocity":0.1968503937007874},{"duration":0.13636349999999986,"midi":29,"time":15.272712,"velocity":0.1968503937007874},{"duration":0.13636349999999986,"midi":41,"time":15.45453,"velocity":0.1968503937007874},{"duration":0.13636349999999986,"midi":53,"time":15.45453,"velocity":0.1968503937007874},{"duration":0.13636349999999986,"midi":53,"time":15.45453,"velocity":0.1968503937007874},{"duration":0.13636349999999986,"midi":41,"time":15.45453,"velocity":0.1968503937007874},{"duration":0.13636349999999986,"midi":41,"time":15.636348,"velocity":0.1968503937007874},{"duration":0.13636349999999986,"midi":29,"time":15.636348,"velocity":0.1968503937007874},{"duration":0.13636349999999986,"midi":41,"time":15.636348,"velocity":0.1968503937007874},{"duration":0.13636349999999986,"midi":29,"time":15.636348,"velocity":0.1968503937007874},{"duration":0.13636349999999986,"midi":41,"time":15.818166000000002,"velocity":0.1968503937007874},{"duration":0.13636349999999986,"midi":53,"time":15.818166000000002,"velocity":0.1968503937007874},{"duration":0.13636349999999986,"midi":41,"time":15.818166000000002,"velocity":0.1968503937007874},{"duration":0.13636349999999986,"midi":53,"time":15.818166000000002,"velocity":0.1968503937007874},{"duration":0.13636349999999808,"midi":31,"time":15.999984000000001,"velocity":0.1968503937007874},{"duration":0.13636349999999808,"midi":43,"time":15.999984000000001,"velocity":0.1968503937007874},{"duration":0.13636349999999808,"midi":43,"time":15.999984000000001,"velocity":0.1968503937007874},{"duration":0.13636349999999808,"midi":31,"time":15.999984000000001,"velocity":0.1968503937007874},{"duration":0.13636349999999808,"midi":55,"time":16.181802,"velocity":0.1968503937007874},{"duration":0.13636349999999808,"midi":43,"time":16.181802,"velocity":0.1968503937007874},{"duration":0.13636349999999808,"midi":43,"time":16.181802,"velocity":0.1968503937007874},{"duration":0.13636349999999808,"midi":55,"time":16.181802,"velocity":0.1968503937007874},{"duration":0.13636349999999808,"midi":43,"time":16.36362,"velocity":0.1968503937007874},{"duration":0.13636349999999808,"midi":31,"time":16.36362,"velocity":0.1968503937007874},{"duration":0.13636349999999808,"midi":31,"time":16.36362,"velocity":0.1968503937007874},{"duration":0.13636349999999808,"midi":43,"time":16.36362,"velocity":0.1968503937007874},{"duration":0.13636350000000164,"midi":43,"time":16.545438,"velocity":0.1968503937007874},{"duration":0.13636350000000164,"midi":55,"time":16.545438,"velocity":0.1968503937007874},{"duration":0.13636350000000164,"midi":43,"time":16.545438,"velocity":0.1968503937007874},{"duration":0.13636350000000164,"midi":55,"time":16.545438,"velocity":0.1968503937007874},{"duration":0.13636350000000164,"midi":31,"time":16.727256,"velocity":0.1968503937007874},{"duration":0.13636350000000164,"midi":31,"time":16.727256,"velocity":0.1968503937007874},{"duration":0.13636350000000164,"midi":43,"time":16.727256,"velocity":0.1968503937007874},{"duration":0.13636350000000164,"midi":43,"time":16.727256,"velocity":0.1968503937007874},{"duration":0.13636350000000164,"midi":55,"time":16.909074,"velocity":0.1968503937007874},{"duration":0.13636350000000164,"midi":43,"time":16.909074,"velocity":0.1968503937007874},{"duration":0.13636350000000164,"midi":43,"time":16.909074,"velocity":0.1968503937007874},{"duration":0.13636350000000164,"midi":55,"time":16.909074,"velocity":0.1968503937007874},{"duration":0.13636350000000164,"midi":43,"time":17.090892,"velocity":0.1968503937007874},{"duration":0.13636350000000164,"midi":43,"time":17.090892,"velocity":0.1968503937007874},{"duration":0.13636350000000164,"midi":31,"time":17.090892,"velocity":0.1968503937007874},{"duration":0.13636350000000164,"midi":31,"time":17.090892,"velocity":0.1968503937007874},{"duration":0.13636350000000164,"midi":55,"time":17.27271,"velocity":0.1968503937007874},{"duration":0.13636350000000164,"midi":43,"time":17.27271,"velocity":0.1968503937007874},{"duration":0.13636350000000164,"midi":43,"time":17.27271,"velocity":0.1968503937007874},{"duration":0.13636350000000164,"midi":55,"time":17.27271,"velocity":0.1968503937007874},{"duration":0.13636350000000164,"midi":43,"time":17.454528,"velocity":0.1968503937007874},{"duration":0.13636350000000164,"midi":31,"time":17.454528,"velocity":0.1968503937007874},{"duration":0.13636350000000164,"midi":31,"time":17.454528,"velocity":0.1968503937007874},{"duration":0.13636350000000164,"midi":43,"time":17.454528,"velocity":0.1968503937007874},{"duration":0.13636350000000164,"midi":43,"time":17.636346,"velocity":0.1968503937007874},{"duration":0.13636350000000164,"midi":55,"time":17.636346,"velocity":0.1968503937007874},{"duration":0.13636350000000164,"midi":55,"time":17.636346,"velocity":0.1968503937007874},{"duration":0.13636350000000164,"midi":43,"time":17.636346,"velocity":0.1968503937007874},{"duration":0.13636350000000164,"midi":31,"time":17.818164,"velocity":0.1968503937007874},{"duration":0.13636350000000164,"midi":31,"time":17.818164,"velocity":0.1968503937007874},{"duration":0.13636350000000164,"midi":43,"time":17.818164,"velocity":0.1968503937007874},{"duration":0.13636350000000164,"midi":43,"time":17.818164,"velocity":0.1968503937007874},{"duration":0.13636350000000164,"midi":55,"time":17.999982,"velocity":0.1968503937007874},{"duration":0.13636350000000164,"midi":43,"time":17.999982,"velocity":0.1968503937007874},{"duration":0.13636350000000164,"midi":43,"time":17.999982,"velocity":0.1968503937007874},{"duration":0.13636350000000164,"midi":55,"time":17.999982,"velocity":0.1968503937007874},{"duration":0.13636350000000164,"midi":43,"time":18.1818,"velocity":0.1968503937007874},{"duration":0.13636350000000164,"midi":31,"time":18.1818,"velocity":0.1968503937007874},{"duration":0.13636350000000164,"midi":43,"time":18.1818,"velocity":0.1968503937007874},{"duration":0.13636350000000164,"midi":31,"time":18.1818,"velocity":0.1968503937007874},{"duration":0.13636349999999808,"midi":55,"time":18.363618000000002,"velocity":0.1968503937007874},{"duration":0.13636349999999808,"midi":43,"time":18.363618000000002,"velocity":0.1968503937007874},{"duration":0.13636349999999808,"midi":55,"time":18.363618000000002,"velocity":0.1968503937007874},{"duration":0.13636349999999808,"midi":43,"time":18.363618000000002,"velocity":0.1968503937007874},{"duration":0.13636349999999808,"midi":31,"time":18.545436000000002,"velocity":0.1968503937007874},{"duration":0.13636349999999808,"midi":43,"time":18.545436000000002,"velocity":0.1968503937007874},{"duration":0.13636349999999808,"midi":43,"time":18.545436000000002,"velocity":0.1968503937007874},{"duration":0.13636349999999808,"midi":31,"time":18.545436000000002,"velocity":0.1968503937007874},{"duration":0.13636349999999808,"midi":43,"time":18.727254000000002,"velocity":0.1968503937007874},{"duration":0.13636349999999808,"midi":55,"time":18.727254000000002,"velocity":0.1968503937007874},{"duration":0.13636349999999808,"midi":55,"time":18.727254000000002,"velocity":0.1968503937007874},{"duration":0.13636349999999808,"midi":43,"time":18.727254000000002,"velocity":0.1968503937007874},{"duration":0.13636349999999808,"midi":28,"time":18.909072000000002,"velocity":0.1968503937007874},{"duration":0.13636349999999808,"midi":40,"time":18.909072000000002,"velocity":0.1968503937007874},{"duration":0.13636349999999808,"midi":40,"time":18.909072000000002,"velocity":0.1968503937007874},{"duration":0.13636349999999808,"midi":28,"time":18.909072000000002,"velocity":0.1968503937007874},{"duration":0.13636349999999808,"midi":52,"time":19.09089,"velocity":0.1968503937007874},{"duration":0.13636349999999808,"midi":52,"time":19.09089,"velocity":0.1968503937007874},{"duration":0.13636349999999808,"midi":40,"time":19.09089,"velocity":0.1968503937007874},{"duration":0.13636349999999808,"midi":40,"time":19.09089,"velocity":0.1968503937007874},{"duration":0.13636349999999808,"midi":40,"time":19.272708,"velocity":0.1968503937007874},{"duration":0.13636349999999808,"midi":28,"time":19.272708,"velocity":0.1968503937007874},{"duration":0.13636349999999808,"midi":40,"time":19.272708,"velocity":0.1968503937007874},{"duration":0.13636349999999808,"midi":28,"time":19.272708,"velocity":0.1968503937007874},{"duration":0.13636349999999808,"midi":40,"time":19.454526,"velocity":0.1968503937007874},{"duration":0.13636349999999808,"midi":40,"time":19.454526,"velocity":0.1968503937007874},{"duration":0.13636349999999808,"midi":52,"time":19.454526,"velocity":0.1968503937007874},{"duration":0.13636349999999808,"midi":52,"time":19.454526,"velocity":0.1968503937007874},{"duration":0.13636349999999808,"midi":28,"time":19.636344,"velocity":0.1968503937007874},{"duration":0.13636349999999808,"midi":40,"time":19.636344,"velocity":0.1968503937007874},{"duration":0.13636349999999808,"midi":28,"time":19.636344,"velocity":0.1968503937007874},{"duration":0.13636349999999808,"midi":40,"time":19.636344,"velocity":0.1968503937007874},{"duration":0.13636350000000164,"midi":40,"time":19.818162,"velocity":0.1968503937007874},{"duration":0.13636350000000164,"midi":52,"time":19.818162,"velocity":0.1968503937007874},{"duration":0.13636350000000164,"midi":52,"time":19.818162,"velocity":0.1968503937007874},{"duration":0.13636350000000164,"midi":40,"time":19.818162,"velocity":0.1968503937007874},{"duration":0.13636350000000164,"midi":40,"time":19.99998,"velocity":0.1968503937007874},{"duration":0.13636350000000164,"midi":28,"time":19.99998,"velocity":0.1968503937007874},{"duration":0.13636350000000164,"midi":28,"time":19.99998,"velocity":0.1968503937007874},{"duration":0.13636350000000164,"midi":40,"time":19.99998,"velocity":0.1968503937007874},{"duration":0.13636350000000164,"midi":40,"time":20.181798,"velocity":0.1968503937007874},{"duration":0.13636350000000164,"midi":52,"time":20.181798,"velocity":0.1968503937007874},{"duration":0.13636350000000164,"midi":52,"time":20.181798,"velocity":0.1968503937007874},{"duration":0.13636350000000164,"midi":40,"time":20.181798,"velocity":0.1968503937007874},{"duration":0.13636350000000164,"midi":41,"time":20.363616,"velocity":0.1968503937007874},{"duration":0.13636350000000164,"midi":29,"time":20.363616,"velocity":0.1968503937007874},{"duration":0.13636350000000164,"midi":29,"time":20.363616,"velocity":0.1968503937007874},{"duration":0.13636350000000164,"midi":41,"time":20.363616,"velocity":0.1968503937007874},{"duration":0.13636350000000164,"midi":41,"time":20.545434,"velocity":0.1968503937007874},{"duration":0.13636350000000164,"midi":53,"time":20.545434,"velocity":0.1968503937007874},{"duration":0.13636350000000164,"midi":41,"time":20.545434,"velocity":0.1968503937007874},{"duration":0.13636350000000164,"midi":53,"time":20.545434,"velocity":0.1968503937007874},{"duration":0.13636350000000164,"midi":41,"time":20.727252,"velocity":0.1968503937007874},{"duration":0.13636350000000164,"midi":41,"time":20.727252,"velocity":0.1968503937007874},{"duration":0.13636350000000164,"midi":29,"time":20.727252,"velocity":0.1968503937007874},{"duration":0.13636350000000164,"midi":29,"time":20.727252,"velocity":0.1968503937007874},{"duration":0.13636350000000164,"midi":41,"time":20.90907,"velocity":0.1968503937007874},{"duration":0.13636350000000164,"midi":41,"time":20.90907,"velocity":0.1968503937007874},{"duration":0.13636350000000164,"midi":53,"time":20.90907,"velocity":0.1968503937007874},{"duration":0.13636350000000164,"midi":53,"time":20.90907,"velocity":0.1968503937007874},{"duration":0.13636350000000164,"midi":41,"time":21.090888,"velocity":0.1968503937007874},{"duration":0.13636350000000164,"midi":29,"time":21.090888,"velocity":0.1968503937007874},{"duration":0.13636350000000164,"midi":41,"time":21.090888,"velocity":0.1968503937007874},{"duration":0.13636350000000164,"midi":29,"time":21.090888,"velocity":0.1968503937007874},{"duration":0.13636350000000164,"midi":53,"time":21.272706,"velocity":0.1968503937007874},{"duration":0.13636350000000164,"midi":41,"time":21.272706,"velocity":0.1968503937007874},{"duration":0.13636350000000164,"midi":53,"time":21.272706,"velocity":0.1968503937007874},{"duration":0.13636350000000164,"midi":41,"time":21.272706,"velocity":0.1968503937007874},{"duration":0.13636350000000164,"midi":29,"time":21.454524,"velocity":0.1968503937007874},{"duration":0.13636350000000164,"midi":41,"time":21.454524,"velocity":0.1968503937007874},{"duration":0.13636350000000164,"midi":41,"time":21.454524,"velocity":0.1968503937007874},{"duration":0.13636350000000164,"midi":29,"time":21.454524,"velocity":0.1968503937007874},{"duration":0.13636349999999808,"midi":41,"time":21.636342000000003,"velocity":0.1968503937007874},{"duration":0.13636349999999808,"midi":53,"time":21.636342000000003,"velocity":0.1968503937007874},{"duration":0.13636349999999808,"midi":53,"time":21.636342000000003,"velocity":0.1968503937007874},{"duration":0.13636349999999808,"midi":41,"time":21.636342000000003,"velocity":0.1968503937007874},{"duration":0.13636349999999808,"midi":31,"time":21.818160000000002,"velocity":0.1968503937007874},{"duration":0.13636349999999808,"midi":43,"time":21.818160000000002,"velocity":0.1968503937007874},{"duration":0.13636349999999808,"midi":31,"time":21.818160000000002,"velocity":0.1968503937007874},{"duration":0.13636349999999808,"midi":43,"time":21.818160000000002,"velocity":0.1968503937007874},{"duration":0.13636349999999808,"midi":43,"time":21.999978000000002,"velocity":0.1968503937007874},{"duration":0.13636349999999808,"midi":43,"time":21.999978000000002,"velocity":0.1968503937007874},{"duration":0.13636349999999808,"midi":55,"time":21.999978000000002,"velocity":0.1968503937007874},{"duration":0.13636349999999808,"midi":55,"time":21.999978000000002,"velocity":0.1968503937007874},{"duration":0.13636349999999808,"midi":43,"time":22.181796000000002,"velocity":0.1968503937007874},{"duration":0.13636349999999808,"midi":31,"time":22.181796000000002,"velocity":0.1968503937007874},{"duration":0.13636349999999808,"midi":43,"time":22.181796000000002,"velocity":0.1968503937007874},{"duration":0.13636349999999808,"midi":31,"time":22.181796000000002,"velocity":0.1968503937007874},{"duration":0.13636349999999808,"midi":43,"time":22.363614000000002,"velocity":0.1968503937007874},{"duration":0.13636349999999808,"midi":55,"time":22.363614000000002,"velocity":0.1968503937007874},{"duration":0.13636349999999808,"midi":55,"time":22.363614000000002,"velocity":0.1968503937007874},{"duration":0.13636349999999808,"midi":43,"time":22.363614000000002,"velocity":0.1968503937007874},{"duration":0.13636349999999808,"midi":43,"time":22.545432,"velocity":0.1968503937007874},{"duration":0.13636349999999808,"midi":31,"time":22.545432,"velocity":0.1968503937007874},{"duration":0.13636349999999808,"midi":31,"time":22.545432,"velocity":0.1968503937007874},{"duration":0.13636349999999808,"midi":43,"time":22.545432,"velocity":0.1968503937007874},{"duration":0.13636349999999808,"midi":55,"time":22.72725,"velocity":0.1968503937007874},{"duration":0.13636349999999808,"midi":55,"time":22.72725,"velocity":0.1968503937007874},{"duration":0.13636349999999808,"midi":43,"time":22.72725,"velocity":0.1968503937007874},{"duration":0.13636349999999808,"midi":43,"time":22.72725,"velocity":0.1968503937007874},{"duration":0.13636349999999808,"midi":31,"time":22.909068,"velocity":0.1968503937007874},{"duration":0.13636349999999808,"midi":31,"time":22.909068,"velocity":0.1968503937007874},{"duration":0.13636349999999808,"midi":43,"time":22.909068,"velocity":0.1968503937007874},{"duration":0.13636349999999808,"midi":43,"time":22.909068,"velocity":0.1968503937007874},{"duration":0.13636349999999808,"midi":43,"time":23.090886,"velocity":0.1968503937007874},{"duration":0.13636349999999808,"midi":43,"time":23.090886,"velocity":0.1968503937007874},{"duration":0.13636349999999808,"midi":55,"time":23.090886,"velocity":0.1968503937007874},{"duration":0.13636349999999808,"midi":55,"time":23.090886,"velocity":0.1968503937007874},{"duration":0.13636350000000164,"midi":43,"time":34.909056,"velocity":0.1968503937007874},{"duration":0.13636350000000164,"midi":31,"time":34.909056,"velocity":0.1968503937007874},{"duration":0.13636350000000164,"midi":43,"time":34.909056,"velocity":0.1968503937007874},{"duration":0.13636350000000164,"midi":31,"time":34.909056,"velocity":0.1968503937007874},{"duration":0.13636350000000164,"midi":55,"time":35.090874,"velocity":0.1968503937007874},{"duration":0.13636350000000164,"midi":55,"time":35.090874,"velocity":0.1968503937007874},{"duration":0.13636350000000164,"midi":43,"time":35.090874,"velocity":0.1968503937007874},{"duration":0.13636350000000164,"midi":43,"time":35.090874,"velocity":0.1968503937007874},{"duration":0.13636350000000164,"midi":31,"time":35.272692,"velocity":0.1968503937007874},{"duration":0.13636350000000164,"midi":31,"time":35.272692,"velocity":0.1968503937007874},{"duration":0.13636350000000164,"midi":43,"time":35.272692,"velocity":0.1968503937007874},{"duration":0.13636350000000164,"midi":43,"time":35.272692,"velocity":0.1968503937007874},{"duration":0.13636350000000164,"midi":43,"time":35.45451,"velocity":0.1968503937007874},{"duration":0.13636350000000164,"midi":55,"time":35.45451,"velocity":0.1968503937007874},{"duration":0.13636350000000164,"midi":55,"time":35.45451,"velocity":0.1968503937007874},{"duration":0.13636350000000164,"midi":43,"time":35.45451,"velocity":0.1968503937007874},{"duration":0.13636350000000164,"midi":31,"time":35.636328,"velocity":0.1968503937007874},{"duration":0.13636350000000164,"midi":43,"time":35.636328,"velocity":0.1968503937007874},{"duration":0.13636350000000164,"midi":43,"time":35.636328,"velocity":0.1968503937007874},{"duration":0.13636350000000164,"midi":31,"time":35.636328,"velocity":0.1968503937007874},{"duration":0.13636350000000164,"midi":43,"time":35.818146,"velocity":0.1968503937007874},{"duration":0.13636350000000164,"midi":43,"time":35.818146,"velocity":0.1968503937007874},{"duration":0.13636350000000164,"midi":55,"time":35.818146,"velocity":0.1968503937007874},{"duration":0.13636350000000164,"midi":55,"time":35.818146,"velocity":0.1968503937007874},{"duration":0.13636350000000164,"midi":43,"time":35.999964,"velocity":0.1968503937007874},{"duration":0.13636350000000164,"midi":31,"time":35.999964,"velocity":0.1968503937007874},{"duration":0.13636350000000164,"midi":31,"time":35.999964,"velocity":0.1968503937007874},{"duration":0.13636350000000164,"midi":43,"time":35.999964,"velocity":0.1968503937007874},{"duration":0.13636350000000164,"midi":43,"time":36.181782,"velocity":0.1968503937007874},{"duration":0.13636350000000164,"midi":55,"time":36.181782,"velocity":0.1968503937007874},{"duration":0.13636350000000164,"midi":55,"time":36.181782,"velocity":0.1968503937007874},{"duration":0.13636350000000164,"midi":43,"time":36.181782,"velocity":0.1968503937007874},{"duration":0.13636350000000164,"midi":40,"time":36.3636,"velocity":0.1968503937007874},{"duration":0.13636350000000164,"midi":40,"time":36.3636,"velocity":0.1968503937007874},{"duration":0.13636350000000164,"midi":28,"time":36.3636,"velocity":0.1968503937007874},{"duration":0.13636350000000164,"midi":28,"time":36.3636,"velocity":0.1968503937007874},{"duration":0.13636350000000164,"midi":52,"time":36.545418,"velocity":0.1968503937007874},{"duration":0.13636350000000164,"midi":52,"time":36.545418,"velocity":0.1968503937007874},{"duration":0.13636350000000164,"midi":40,"time":36.545418,"velocity":0.1968503937007874},{"duration":0.13636350000000164,"midi":40,"time":36.545418,"velocity":0.1968503937007874},{"duration":0.13636349999999453,"midi":40,"time":36.727236000000005,"velocity":0.1968503937007874},{"duration":0.13636349999999453,"midi":28,"time":36.727236000000005,"velocity":0.1968503937007874},{"duration":0.13636349999999453,"midi":40,"time":36.727236000000005,"velocity":0.1968503937007874},{"duration":0.13636349999999453,"midi":28,"time":36.727236000000005,"velocity":0.1968503937007874},{"duration":0.13636349999999453,"midi":40,"time":36.909054000000005,"velocity":0.1968503937007874},{"duration":0.13636349999999453,"midi":52,"time":36.909054000000005,"velocity":0.1968503937007874},{"duration":0.13636349999999453,"midi":52,"time":36.909054000000005,"velocity":0.1968503937007874},{"duration":0.13636349999999453,"midi":40,"time":36.909054000000005,"velocity":0.1968503937007874},{"duration":0.13636349999999453,"midi":28,"time":37.090872000000005,"velocity":0.1968503937007874},{"duration":0.13636349999999453,"midi":40,"time":37.090872000000005,"velocity":0.1968503937007874},{"duration":0.13636349999999453,"midi":28,"time":37.090872000000005,"velocity":0.1968503937007874},{"duration":0.13636349999999453,"midi":40,"time":37.090872000000005,"velocity":0.1968503937007874},{"duration":0.13636349999999453,"midi":52,"time":37.272690000000004,"velocity":0.1968503937007874},{"duration":0.13636349999999453,"midi":40,"time":37.272690000000004,"velocity":0.1968503937007874},{"duration":0.13636349999999453,"midi":52,"time":37.272690000000004,"velocity":0.1968503937007874},{"duration":0.13636349999999453,"midi":40,"time":37.272690000000004,"velocity":0.1968503937007874},{"duration":0.13636349999999453,"midi":40,"time":37.454508000000004,"velocity":0.1968503937007874},{"duration":0.13636349999999453,"midi":40,"time":37.454508000000004,"velocity":0.1968503937007874},{"duration":0.13636349999999453,"midi":28,"time":37.454508000000004,"velocity":0.1968503937007874},{"duration":0.13636349999999453,"midi":28,"time":37.454508000000004,"velocity":0.1968503937007874},{"duration":0.13636349999999453,"midi":52,"time":37.636326000000004,"velocity":0.1968503937007874},{"duration":0.13636349999999453,"midi":52,"time":37.636326000000004,"velocity":0.1968503937007874},{"duration":0.13636349999999453,"midi":40,"time":37.636326000000004,"velocity":0.1968503937007874},{"duration":0.13636349999999453,"midi":40,"time":37.636326000000004,"velocity":0.1968503937007874},{"duration":0.13636349999999453,"midi":29,"time":37.818144000000004,"velocity":0.1968503937007874},{"duration":0.13636349999999453,"midi":29,"time":37.818144000000004,"velocity":0.1968503937007874},{"duration":0.13636349999999453,"midi":41,"time":37.818144000000004,"velocity":0.1968503937007874},{"duration":0.13636349999999453,"midi":41,"time":37.818144000000004,"velocity":0.1968503937007874},{"duration":0.13636349999999453,"midi":41,"time":37.999962000000004,"velocity":0.1968503937007874},{"duration":0.13636349999999453,"midi":41,"time":37.999962000000004,"velocity":0.1968503937007874},{"duration":0.13636349999999453,"midi":53,"time":37.999962000000004,"velocity":0.1968503937007874},{"duration":0.13636349999999453,"midi":53,"time":37.999962000000004,"velocity":0.1968503937007874},{"duration":0.13636350000000164,"midi":41,"time":38.18178,"velocity":0.1968503937007874},{"duration":0.13636350000000164,"midi":29,"time":38.18178,"velocity":0.1968503937007874},{"duration":0.13636350000000164,"midi":41,"time":38.18178,"velocity":0.1968503937007874},{"duration":0.13636350000000164,"midi":29,"time":38.18178,"velocity":0.1968503937007874},{"duration":0.13636350000000164,"midi":41,"time":38.363598,"velocity":0.1968503937007874},{"duration":0.13636350000000164,"midi":53,"time":38.363598,"velocity":0.1968503937007874},{"duration":0.13636350000000164,"midi":53,"time":38.363598,"velocity":0.1968503937007874},{"duration":0.13636350000000164,"midi":41,"time":38.363598,"velocity":0.1968503937007874},{"duration":0.13636350000000164,"midi":29,"time":38.545416,"velocity":0.1968503937007874},{"duration":0.13636350000000164,"midi":41,"time":38.545416,"velocity":0.1968503937007874},{"duration":0.13636350000000164,"midi":41,"time":38.545416,"velocity":0.1968503937007874},{"duration":0.13636350000000164,"midi":29,"time":38.545416,"velocity":0.1968503937007874},{"duration":0.13636350000000164,"midi":41,"time":38.727234,"velocity":0.1968503937007874},{"duration":0.13636350000000164,"midi":41,"time":38.727234,"velocity":0.1968503937007874},{"duration":0.13636350000000164,"midi":53,"time":38.727234,"velocity":0.1968503937007874},{"duration":0.13636350000000164,"midi":53,"time":38.727234,"velocity":0.1968503937007874},{"duration":0.13636350000000164,"midi":29,"time":38.909052,"velocity":0.1968503937007874},{"duration":0.13636350000000164,"midi":29,"time":38.909052,"velocity":0.1968503937007874},{"duration":0.13636350000000164,"midi":41,"time":38.909052,"velocity":0.1968503937007874},{"duration":0.13636350000000164,"midi":41,"time":38.909052,"velocity":0.1968503937007874},{"duration":0.13636350000000164,"midi":53,"time":39.09087,"velocity":0.1968503937007874},{"duration":0.13636350000000164,"midi":41,"time":39.09087,"velocity":0.1968503937007874},{"duration":0.13636350000000164,"midi":41,"time":39.09087,"velocity":0.1968503937007874},{"duration":0.13636350000000164,"midi":53,"time":39.09087,"velocity":0.1968503937007874},{"duration":0.13636350000000164,"midi":31,"time":39.272688,"velocity":0.1968503937007874},{"duration":0.13636350000000164,"midi":43,"time":39.272688,"velocity":0.1968503937007874},{"duration":0.13636350000000164,"midi":31,"time":39.272688,"velocity":0.1968503937007874},{"duration":0.13636350000000164,"midi":43,"time":39.272688,"velocity":0.1968503937007874},{"duration":0.13636350000000164,"midi":43,"time":39.454506,"velocity":0.1968503937007874},{"duration":0.13636350000000164,"midi":55,"time":39.454506,"velocity":0.1968503937007874},{"duration":0.13636350000000164,"midi":43,"time":39.454506,"velocity":0.1968503937007874},{"duration":0.13636350000000164,"midi":55,"time":39.454506,"velocity":0.1968503937007874},{"duration":0.13636350000000164,"midi":43,"time":39.636324,"velocity":0.1968503937007874},{"duration":0.13636350000000164,"midi":31,"time":39.636324,"velocity":0.1968503937007874},{"duration":0.13636350000000164,"midi":43,"time":39.636324,"velocity":0.1968503937007874},{"duration":0.13636350000000164,"midi":31,"time":39.636324,"velocity":0.1968503937007874},{"duration":0.13636350000000164,"midi":55,"time":39.818142,"velocity":0.1968503937007874},{"duration":0.13636350000000164,"midi":43,"time":39.818142,"velocity":0.1968503937007874},{"duration":0.13636350000000164,"midi":55,"time":39.818142,"velocity":0.1968503937007874},{"duration":0.13636350000000164,"midi":43,"time":39.818142,"velocity":0.1968503937007874},{"duration":0.13636350000000164,"midi":31,"time":39.99996,"velocity":0.1968503937007874},{"duration":0.13636350000000164,"midi":43,"time":39.99996,"velocity":0.1968503937007874},{"duration":0.13636350000000164,"midi":43,"time":39.99996,"velocity":0.1968503937007874},{"duration":0.13636350000000164,"midi":31,"time":39.99996,"velocity":0.1968503937007874},{"duration":0.13636350000000164,"midi":55,"time":40.181778,"velocity":0.1968503937007874},{"duration":0.13636350000000164,"midi":43,"time":40.181778,"velocity":0.1968503937007874},{"duration":0.13636350000000164,"midi":55,"time":40.181778,"velocity":0.1968503937007874},{"duration":0.13636350000000164,"midi":43,"time":40.181778,"velocity":0.1968503937007874},{"duration":0.13636350000000164,"midi":43,"time":40.363596,"velocity":0.1968503937007874},{"duration":0.13636350000000164,"midi":31,"time":40.363596,"velocity":0.1968503937007874},{"duration":0.13636350000000164,"midi":31,"time":40.363596,"velocity":0.1968503937007874},{"duration":0.13636350000000164,"midi":43,"time":40.363596,"velocity":0.1968503937007874},{"duration":0.13636350000000164,"midi":55,"time":40.545414,"velocity":0.1968503937007874},{"duration":0.13636350000000164,"midi":55,"time":40.545414,"velocity":0.1968503937007874},{"duration":0.13636350000000164,"midi":43,"time":40.545414,"velocity":0.1968503937007874},{"duration":0.13636350000000164,"midi":43,"time":40.545414,"velocity":0.1968503937007874},{"duration":0.13636350000000164,"midi":43,"time":40.727232,"velocity":0.1968503937007874},{"duration":0.13636350000000164,"midi":31,"time":40.727232,"velocity":0.1968503937007874},{"duration":0.13636350000000164,"midi":31,"time":40.727232,"velocity":0.1968503937007874},{"duration":0.13636350000000164,"midi":43,"time":40.727232,"velocity":0.1968503937007874},{"duration":0.13636350000000164,"midi":43,"time":40.90905,"velocity":0.1968503937007874},{"duration":0.13636350000000164,"midi":55,"time":40.90905,"velocity":0.1968503937007874},{"duration":0.13636350000000164,"midi":55,"time":40.90905,"velocity":0.1968503937007874},{"duration":0.13636350000000164,"midi":43,"time":40.90905,"velocity":0.1968503937007874},{"duration":0.13636350000000164,"midi":31,"time":41.090868,"velocity":0.1968503937007874},{"duration":0.13636350000000164,"midi":43,"time":41.090868,"velocity":0.1968503937007874},{"duration":0.13636350000000164,"midi":43,"time":41.090868,"velocity":0.1968503937007874},{"duration":0.13636350000000164,"midi":31,"time":41.090868,"velocity":0.1968503937007874},{"duration":0.13636350000000164,"midi":55,"time":41.272686,"velocity":0.1968503937007874},{"duration":0.13636350000000164,"midi":55,"time":41.272686,"velocity":0.1968503937007874},{"duration":0.13636350000000164,"midi":43,"time":41.272686,"velocity":0.1968503937007874},{"duration":0.13636350000000164,"midi":43,"time":41.272686,"velocity":0.1968503937007874},{"duration":0.13636350000000164,"midi":43,"time":41.454504,"velocity":0.1968503937007874},{"duration":0.13636350000000164,"midi":31,"time":41.454504,"velocity":0.1968503937007874},{"duration":0.13636350000000164,"midi":43,"time":41.454504,"velocity":0.1968503937007874},{"duration":0.13636350000000164,"midi":31,"time":41.454504,"velocity":0.1968503937007874},{"duration":0.13636350000000164,"midi":55,"time":41.636322,"velocity":0.1968503937007874},{"duration":0.13636350000000164,"midi":43,"time":41.636322,"velocity":0.1968503937007874},{"duration":0.13636350000000164,"midi":55,"time":41.636322,"velocity":0.1968503937007874},{"duration":0.13636350000000164,"midi":43,"time":41.636322,"velocity":0.1968503937007874},{"duration":0.13636350000000164,"midi":43,"time":41.81814,"velocity":0.1968503937007874},{"duration":0.13636350000000164,"midi":31,"time":41.81814,"velocity":0.1968503937007874},{"duration":0.13636350000000164,"midi":31,"time":41.81814,"velocity":0.1968503937007874},{"duration":0.13636350000000164,"midi":43,"time":41.81814,"velocity":0.1968503937007874},{"duration":0.13636350000000164,"midi":55,"time":41.999958,"velocity":0.1968503937007874},{"duration":0.13636350000000164,"midi":43,"time":41.999958,"velocity":0.1968503937007874},{"duration":0.13636350000000164,"midi":43,"time":41.999958,"velocity":0.1968503937007874},{"duration":0.13636350000000164,"midi":55,"time":41.999958,"velocity":0.1968503937007874},{"duration":0.13636350000000164,"midi":40,"time":42.181776,"velocity":0.1968503937007874},{"duration":0.13636350000000164,"midi":40,"time":42.181776,"velocity":0.1968503937007874},{"duration":0.13636350000000164,"midi":28,"time":42.181776,"velocity":0.1968503937007874},{"duration":0.13636350000000164,"midi":28,"time":42.181776,"velocity":0.1968503937007874},{"duration":0.13636350000000164,"midi":52,"time":42.363594,"velocity":0.1968503937007874},{"duration":0.13636350000000164,"midi":40,"time":42.363594,"velocity":0.1968503937007874},{"duration":0.13636350000000164,"midi":52,"time":42.363594,"velocity":0.1968503937007874},{"duration":0.13636350000000164,"midi":40,"time":42.363594,"velocity":0.1968503937007874},{"duration":0.13636350000000164,"midi":40,"time":42.545412,"velocity":0.1968503937007874},{"duration":0.13636350000000164,"midi":28,"time":42.545412,"velocity":0.1968503937007874},{"duration":0.13636350000000164,"midi":40,"time":42.545412,"velocity":0.1968503937007874},{"duration":0.13636350000000164,"midi":28,"time":42.545412,"velocity":0.1968503937007874},{"duration":0.13636350000000164,"midi":40,"time":42.72723,"velocity":0.1968503937007874},{"duration":0.13636350000000164,"midi":52,"time":42.72723,"velocity":0.1968503937007874},{"duration":0.13636350000000164,"midi":40,"time":42.72723,"velocity":0.1968503937007874},{"duration":0.13636350000000164,"midi":52,"time":42.72723,"velocity":0.1968503937007874},{"duration":0.13636350000000164,"midi":28,"time":42.909048,"velocity":0.1968503937007874},{"duration":0.13636350000000164,"midi":40,"time":42.909048,"velocity":0.1968503937007874},{"duration":0.13636350000000164,"midi":40,"time":42.909048,"velocity":0.1968503937007874},{"duration":0.13636350000000164,"midi":28,"time":42.909048,"velocity":0.1968503937007874},{"duration":0.13636350000000164,"midi":52,"time":43.090866,"velocity":0.1968503937007874},{"duration":0.13636350000000164,"midi":40,"time":43.090866,"velocity":0.1968503937007874},{"duration":0.13636350000000164,"midi":40,"time":43.090866,"velocity":0.1968503937007874},{"duration":0.13636350000000164,"midi":52,"time":43.090866,"velocity":0.1968503937007874},{"duration":0.13636349999999453,"midi":40,"time":43.272684000000005,"velocity":0.1968503937007874},{"duration":0.13636349999999453,"midi":40,"time":43.272684000000005,"velocity":0.1968503937007874},{"duration":0.13636349999999453,"midi":28,"time":43.272684000000005,"velocity":0.1968503937007874},{"duration":0.13636349999999453,"midi":28,"time":43.272684000000005,"velocity":0.1968503937007874},{"duration":0.13636349999999453,"midi":40,"time":43.454502000000005,"velocity":0.1968503937007874},{"duration":0.13636349999999453,"midi":40,"time":43.454502000000005,"velocity":0.1968503937007874},{"duration":0.13636349999999453,"midi":52,"time":43.454502000000005,"velocity":0.1968503937007874},{"duration":0.13636349999999453,"midi":52,"time":43.454502000000005,"velocity":0.1968503937007874},{"duration":0.13636349999999453,"midi":29,"time":43.636320000000005,"velocity":0.1968503937007874},{"duration":0.13636349999999453,"midi":41,"time":43.636320000000005,"velocity":0.1968503937007874},{"duration":0.13636349999999453,"midi":29,"time":43.636320000000005,"velocity":0.1968503937007874},{"duration":0.13636349999999453,"midi":41,"time":43.636320000000005,"velocity":0.1968503937007874},{"duration":0.13636349999999453,"midi":53,"time":43.818138000000005,"velocity":0.1968503937007874},{"duration":0.13636349999999453,"midi":53,"time":43.818138000000005,"velocity":0.1968503937007874},{"duration":0.13636349999999453,"midi":41,"time":43.818138000000005,"velocity":0.1968503937007874},{"duration":0.13636349999999453,"midi":41,"time":43.818138000000005,"velocity":0.1968503937007874},{"duration":0.13636349999999453,"midi":29,"time":43.999956000000005,"velocity":0.1968503937007874},{"duration":0.13636349999999453,"midi":29,"time":43.999956000000005,"velocity":0.1968503937007874},{"duration":0.13636349999999453,"midi":41,"time":43.999956000000005,"velocity":0.1968503937007874},{"duration":0.13636349999999453,"midi":41,"time":43.999956000000005,"velocity":0.1968503937007874},{"duration":0.13636349999999453,"midi":53,"time":44.181774000000004,"velocity":0.1968503937007874},{"duration":0.13636349999999453,"midi":41,"time":44.181774000000004,"velocity":0.1968503937007874},{"duration":0.13636349999999453,"midi":41,"time":44.181774000000004,"velocity":0.1968503937007874},{"duration":0.13636349999999453,"midi":53,"time":44.181774000000004,"velocity":0.1968503937007874},{"duration":0.13636349999999453,"midi":41,"time":44.363592000000004,"velocity":0.1968503937007874},{"duration":0.13636349999999453,"midi":41,"time":44.363592000000004,"velocity":0.1968503937007874},{"duration":0.13636349999999453,"midi":29,"time":44.363592000000004,"velocity":0.1968503937007874},{"duration":0.13636349999999453,"midi":29,"time":44.363592000000004,"velocity":0.1968503937007874},{"duration":0.13636349999999453,"midi":53,"time":44.545410000000004,"velocity":0.1968503937007874},{"duration":0.13636349999999453,"midi":53,"time":44.545410000000004,"velocity":0.1968503937007874},{"duration":0.13636349999999453,"midi":41,"time":44.545410000000004,"velocity":0.1968503937007874},{"duration":0.13636349999999453,"midi":41,"time":44.545410000000004,"velocity":0.1968503937007874},{"duration":0.13636349999999453,"midi":41,"time":44.727228000000004,"velocity":0.1968503937007874},{"duration":0.13636349999999453,"midi":29,"time":44.727228000000004,"velocity":0.1968503937007874},{"duration":0.13636349999999453,"midi":41,"time":44.727228000000004,"velocity":0.1968503937007874},{"duration":0.13636349999999453,"midi":29,"time":44.727228000000004,"velocity":0.1968503937007874},{"duration":0.13636350000000164,"midi":53,"time":44.909046000000004,"velocity":0.1968503937007874},{"duration":0.13636350000000164,"midi":41,"time":44.909046000000004,"velocity":0.1968503937007874},{"duration":0.13636350000000164,"midi":41,"time":44.909046000000004,"velocity":0.1968503937007874},{"duration":0.13636350000000164,"midi":53,"time":44.909046000000004,"velocity":0.1968503937007874},{"duration":0.13636350000000164,"midi":43,"time":45.090864,"velocity":0.1968503937007874},{"duration":0.13636350000000164,"midi":31,"time":45.090864,"velocity":0.1968503937007874},{"duration":0.13636350000000164,"midi":43,"time":45.090864,"velocity":0.1968503937007874},{"duration":0.13636350000000164,"midi":31,"time":45.090864,"velocity":0.1968503937007874},{"duration":0.13636350000000164,"midi":55,"time":45.272682,"velocity":0.1968503937007874},{"duration":0.13636350000000164,"midi":43,"time":45.272682,"velocity":0.1968503937007874},{"duration":0.13636350000000164,"midi":43,"time":45.272682,"velocity":0.1968503937007874},{"duration":0.13636350000000164,"midi":55,"time":45.272682,"velocity":0.1968503937007874},{"duration":0.13636350000000164,"midi":43,"time":45.4545,"velocity":0.1968503937007874},{"duration":0.13636350000000164,"midi":31,"time":45.4545,"velocity":0.1968503937007874},{"duration":0.13636350000000164,"midi":31,"time":45.4545,"velocity":0.1968503937007874},{"duration":0.13636350000000164,"midi":43,"time":45.4545,"velocity":0.1968503937007874},{"duration":0.13636350000000164,"midi":43,"time":45.636318,"velocity":0.1968503937007874},{"duration":0.13636350000000164,"midi":55,"time":45.636318,"velocity":0.1968503937007874},{"duration":0.13636350000000164,"midi":43,"time":45.636318,"velocity":0.1968503937007874},{"duration":0.13636350000000164,"midi":55,"time":45.636318,"velocity":0.1968503937007874},{"duration":0.13636350000000164,"midi":31,"time":45.818136,"velocity":0.1968503937007874},{"duration":0.13636350000000164,"midi":43,"time":45.818136,"velocity":0.1968503937007874},{"duration":0.13636350000000164,"midi":31,"time":45.818136,"velocity":0.1968503937007874},{"duration":0.13636350000000164,"midi":43,"time":45.818136,"velocity":0.1968503937007874},{"duration":0.13636350000000164,"midi":55,"time":45.999954,"velocity":0.1968503937007874},{"duration":0.13636350000000164,"midi":43,"time":45.999954,"velocity":0.1968503937007874},{"duration":0.13636350000000164,"midi":43,"time":45.999954,"velocity":0.1968503937007874},{"duration":0.13636350000000164,"midi":55,"time":45.999954,"velocity":0.1968503937007874},{"duration":0.13636350000000164,"midi":43,"time":46.181772,"velocity":0.1968503937007874},{"duration":0.13636350000000164,"midi":31,"time":46.181772,"velocity":0.1968503937007874},{"duration":0.13636350000000164,"midi":31,"time":46.181772,"velocity":0.1968503937007874},{"duration":0.13636350000000164,"midi":43,"time":46.181772,"velocity":0.1968503937007874},{"duration":0.13636350000000164,"midi":43,"time":46.36359,"velocity":0.1968503937007874},{"duration":0.13636350000000164,"midi":43,"time":46.36359,"velocity":0.1968503937007874},{"duration":0.13636350000000164,"midi":55,"time":46.36359,"velocity":0.1968503937007874},{"duration":0.13636350000000164,"midi":55,"time":46.36359,"velocity":0.1968503937007874},{"duration":0.3636359999999996,"midi":43,"time":46.545408,"velocity":0.1968503937007874},{"duration":0.3636359999999996,"midi":43,"time":46.545408,"velocity":0.1968503937007874},{"duration":0.3636359999999996,"midi":43,"time":46.545408,"velocity":0.1968503937007874},{"duration":0.3636359999999996,"midi":50,"time":46.727226,"velocity":0.1968503937007874},{"duration":0.3636359999999996,"midi":50,"time":46.727226,"velocity":0.1968503937007874},{"duration":0.3636359999999996,"midi":50,"time":46.727226,"velocity":0.1968503937007874},{"duration":0.3636359999999996,"midi":43,"time":46.909044,"velocity":0.1968503937007874},{"duration":0.3636359999999996,"midi":43,"time":46.909044,"velocity":0.1968503937007874},{"duration":0.3636359999999996,"midi":43,"time":46.909044,"velocity":0.1968503937007874},{"duration":0.3636359999999996,"midi":50,"time":47.090862,"velocity":0.1968503937007874},{"duration":0.3636359999999996,"midi":50,"time":47.090862,"velocity":0.1968503937007874},{"duration":0.3636359999999996,"midi":50,"time":47.090862,"velocity":0.1968503937007874},{"duration":0.3636359999999996,"midi":43,"time":47.27268,"velocity":0.1968503937007874},{"duration":0.3636359999999996,"midi":43,"time":47.27268,"velocity":0.1968503937007874},{"duration":0.3636359999999996,"midi":43,"time":47.27268,"velocity":0.1968503937007874},{"duration":0.3636359999999996,"midi":50,"time":47.454498,"velocity":0.1968503937007874},{"duration":0.3636359999999996,"midi":50,"time":47.454498,"velocity":0.1968503937007874},{"duration":0.3636359999999996,"midi":50,"time":47.454498,"velocity":0.1968503937007874},{"duration":0.3636359999999996,"midi":43,"time":47.636316,"velocity":0.1968503937007874},{"duration":0.3636359999999996,"midi":43,"time":47.636316,"velocity":0.1968503937007874},{"duration":0.3636359999999996,"midi":43,"time":47.636316,"velocity":0.1968503937007874},{"duration":0.3636359999999996,"midi":50,"time":47.818134,"velocity":0.1968503937007874},{"duration":0.3636359999999996,"midi":50,"time":47.818134,"velocity":0.1968503937007874},{"duration":0.3636359999999996,"midi":50,"time":47.818134,"velocity":0.1968503937007874},{"duration":0.3636359999999996,"midi":40,"time":47.999952,"velocity":0.1968503937007874},{"duration":0.3636359999999996,"midi":40,"time":47.999952,"velocity":0.1968503937007874},{"duration":0.3636359999999996,"midi":40,"time":47.999952,"velocity":0.1968503937007874},{"duration":0.3636359999999996,"midi":46,"time":48.18177,"velocity":0.1968503937007874},{"duration":0.3636359999999996,"midi":46,"time":48.18177,"velocity":0.1968503937007874},{"duration":0.3636359999999996,"midi":46,"time":48.18177,"velocity":0.1968503937007874},{"duration":0.3636359999999996,"midi":40,"time":48.363588,"velocity":0.1968503937007874},{"duration":0.3636359999999996,"midi":40,"time":48.363588,"velocity":0.1968503937007874},{"duration":0.3636359999999996,"midi":40,"time":48.363588,"velocity":0.1968503937007874},{"duration":0.3636359999999996,"midi":46,"time":48.545406,"velocity":0.1968503937007874},{"duration":0.3636359999999996,"midi":46,"time":48.545406,"velocity":0.1968503937007874},{"duration":0.3636359999999996,"midi":46,"time":48.545406,"velocity":0.1968503937007874},{"duration":0.3636359999999996,"midi":40,"time":48.727224,"velocity":0.1968503937007874},{"duration":0.3636359999999996,"midi":40,"time":48.727224,"velocity":0.1968503937007874},{"duration":0.3636359999999996,"midi":40,"time":48.727224,"velocity":0.1968503937007874},{"duration":0.3636359999999996,"midi":46,"time":48.909042,"velocity":0.1968503937007874},{"duration":0.3636359999999996,"midi":46,"time":48.909042,"velocity":0.1968503937007874},{"duration":0.3636359999999996,"midi":46,"time":48.909042,"velocity":0.1968503937007874},{"duration":0.3636359999999996,"midi":40,"time":49.09086,"velocity":0.1968503937007874},{"duration":0.3636359999999996,"midi":40,"time":49.09086,"velocity":0.1968503937007874},{"duration":0.3636359999999996,"midi":40,"time":49.09086,"velocity":0.1968503937007874},{"duration":0.3636359999999996,"midi":46,"time":49.272678,"velocity":0.1968503937007874},{"duration":0.3636359999999996,"midi":46,"time":49.272678,"velocity":0.1968503937007874},{"duration":0.3636359999999996,"midi":46,"time":49.272678,"velocity":0.1968503937007874},{"duration":0.3636359999999996,"midi":41,"time":49.454496,"velocity":0.1968503937007874},{"duration":0.3636359999999996,"midi":41,"time":49.454496,"velocity":0.1968503937007874},{"duration":0.3636359999999996,"midi":41,"time":49.454496,"velocity":0.1968503937007874},{"duration":0.36363600000000673,"midi":48,"time":49.636314,"velocity":0.1968503937007874},{"duration":0.36363600000000673,"midi":48,"time":49.636314,"velocity":0.1968503937007874},{"duration":0.36363600000000673,"midi":48,"time":49.636314,"velocity":0.1968503937007874},{"duration":0.36363600000000673,"midi":41,"time":49.818132,"velocity":0.1968503937007874},{"duration":0.36363600000000673,"midi":41,"time":49.818132,"velocity":0.1968503937007874},{"duration":0.36363600000000673,"midi":41,"time":49.818132,"velocity":0.1968503937007874},{"duration":0.3636359999999996,"midi":48,"time":49.999950000000005,"velocity":0.1968503937007874},{"duration":0.3636359999999996,"midi":48,"time":49.999950000000005,"velocity":0.1968503937007874},{"duration":0.3636359999999996,"midi":48,"time":49.999950000000005,"velocity":0.1968503937007874},{"duration":0.3636359999999996,"midi":41,"time":50.181768000000005,"velocity":0.1968503937007874},{"duration":0.3636359999999996,"midi":41,"time":50.181768000000005,"velocity":0.1968503937007874},{"duration":0.3636359999999996,"midi":41,"time":50.181768000000005,"velocity":0.1968503937007874},{"duration":0.3636359999999996,"midi":48,"time":50.363586000000005,"velocity":0.1968503937007874},{"duration":0.3636359999999996,"midi":48,"time":50.363586000000005,"velocity":0.1968503937007874},{"duration":0.3636359999999996,"midi":48,"time":50.363586000000005,"velocity":0.1968503937007874},{"duration":0.3636359999999996,"midi":41,"time":50.545404000000005,"velocity":0.1968503937007874},{"duration":0.3636359999999996,"midi":41,"time":50.545404000000005,"velocity":0.1968503937007874},{"duration":0.3636359999999996,"midi":41,"time":50.545404000000005,"velocity":0.1968503937007874},{"duration":0.3636359999999996,"midi":48,"time":50.727222000000005,"velocity":0.1968503937007874},{"duration":0.3636359999999996,"midi":48,"time":50.727222000000005,"velocity":0.1968503937007874},{"duration":0.3636359999999996,"midi":48,"time":50.727222000000005,"velocity":0.1968503937007874},{"duration":0.3636359999999996,"midi":43,"time":50.909040000000005,"velocity":0.1968503937007874},{"duration":0.3636359999999996,"midi":43,"time":50.909040000000005,"velocity":0.1968503937007874},{"duration":0.3636359999999996,"midi":43,"time":50.909040000000005,"velocity":0.1968503937007874},{"duration":0.3636359999999996,"midi":50,"time":51.090858000000004,"velocity":0.1968503937007874},{"duration":0.3636359999999996,"midi":50,"time":51.090858000000004,"velocity":0.1968503937007874},{"duration":0.3636359999999996,"midi":50,"time":51.090858000000004,"velocity":0.1968503937007874},{"duration":0.3636359999999996,"midi":43,"time":51.272676000000004,"velocity":0.1968503937007874},{"duration":0.3636359999999996,"midi":43,"time":51.272676000000004,"velocity":0.1968503937007874},{"duration":0.3636359999999996,"midi":43,"time":51.272676000000004,"velocity":0.1968503937007874},{"duration":0.3636359999999996,"midi":50,"time":51.454494000000004,"velocity":0.1968503937007874},{"duration":0.3636359999999996,"midi":50,"time":51.454494000000004,"velocity":0.1968503937007874},{"duration":0.3636359999999996,"midi":50,"time":51.454494000000004,"velocity":0.1968503937007874},{"duration":0.3636359999999996,"midi":43,"time":51.636312000000004,"velocity":0.1968503937007874},{"duration":0.3636359999999996,"midi":43,"time":51.636312000000004,"velocity":0.1968503937007874},{"duration":0.3636359999999996,"midi":43,"time":51.636312000000004,"velocity":0.1968503937007874},{"duration":0.3636359999999996,"midi":50,"time":51.818130000000004,"velocity":0.1968503937007874},{"duration":0.3636359999999996,"midi":50,"time":51.818130000000004,"velocity":0.1968503937007874},{"duration":0.3636359999999996,"midi":50,"time":51.818130000000004,"velocity":0.1968503937007874},{"duration":0.3636359999999996,"midi":43,"time":51.999948,"velocity":0.1968503937007874},{"duration":0.3636359999999996,"midi":43,"time":51.999948,"velocity":0.1968503937007874},{"duration":0.3636359999999996,"midi":43,"time":51.999948,"velocity":0.1968503937007874},{"duration":0.3636359999999996,"midi":50,"time":52.181766,"velocity":0.1968503937007874},{"duration":0.3636359999999996,"midi":50,"time":52.181766,"velocity":0.1968503937007874},{"duration":0.3636359999999996,"midi":50,"time":52.181766,"velocity":0.1968503937007874},{"duration":0.3636359999999996,"midi":43,"time":52.363584,"velocity":0.1968503937007874},{"duration":0.3636359999999996,"midi":43,"time":52.363584,"velocity":0.1968503937007874},{"duration":0.3636359999999996,"midi":43,"time":52.363584,"velocity":0.1968503937007874},{"duration":0.3636359999999996,"midi":50,"time":52.545402,"velocity":0.1968503937007874},{"duration":0.3636359999999996,"midi":50,"time":52.545402,"velocity":0.1968503937007874},{"duration":0.3636359999999996,"midi":50,"time":52.545402,"velocity":0.1968503937007874},{"duration":0.3636359999999996,"midi":43,"time":52.72722,"velocity":0.1968503937007874},{"duration":0.3636359999999996,"midi":43,"time":52.72722,"velocity":0.1968503937007874},{"duration":0.3636359999999996,"midi":43,"time":52.72722,"velocity":0.1968503937007874},{"duration":0.3636359999999996,"midi":50,"time":52.909038,"velocity":0.1968503937007874},{"duration":0.3636359999999996,"midi":50,"time":52.909038,"velocity":0.1968503937007874},{"duration":0.3636359999999996,"midi":50,"time":52.909038,"velocity":0.1968503937007874},{"duration":0.3636359999999996,"midi":43,"time":53.090856,"velocity":0.1968503937007874},{"duration":0.3636359999999996,"midi":43,"time":53.090856,"velocity":0.1968503937007874},{"duration":0.3636359999999996,"midi":43,"time":53.090856,"velocity":0.1968503937007874},{"duration":0.3636359999999996,"midi":50,"time":53.272674,"velocity":0.1968503937007874},{"duration":0.3636359999999996,"midi":50,"time":53.272674,"velocity":0.1968503937007874},{"duration":0.3636359999999996,"midi":50,"time":53.272674,"velocity":0.1968503937007874},{"duration":0.3636359999999996,"midi":43,"time":53.454492,"velocity":0.1968503937007874},{"duration":0.3636359999999996,"midi":43,"time":53.454492,"velocity":0.1968503937007874},{"duration":0.3636359999999996,"midi":43,"time":53.454492,"velocity":0.1968503937007874},{"duration":0.3636359999999996,"midi":50,"time":53.63631,"velocity":0.1968503937007874},{"duration":0.3636359999999996,"midi":50,"time":53.63631,"velocity":0.1968503937007874},{"duration":0.3636359999999996,"midi":50,"time":53.63631,"velocity":0.1968503937007874},{"duration":0.3636359999999996,"midi":40,"time":53.818128,"velocity":0.1968503937007874},{"duration":0.3636359999999996,"midi":40,"time":53.818128,"velocity":0.1968503937007874},{"duration":0.3636359999999996,"midi":40,"time":53.818128,"velocity":0.1968503937007874},{"duration":0.3636359999999996,"midi":46,"time":53.999946,"velocity":0.1968503937007874},{"duration":0.3636359999999996,"midi":46,"time":53.999946,"velocity":0.1968503937007874},{"duration":0.3636359999999996,"midi":46,"time":53.999946,"velocity":0.1968503937007874},{"duration":0.3636359999999996,"midi":40,"time":54.181764,"velocity":0.1968503937007874},{"duration":0.3636359999999996,"midi":40,"time":54.181764,"velocity":0.1968503937007874},{"duration":0.3636359999999996,"midi":40,"time":54.181764,"velocity":0.1968503937007874},{"duration":0.3636359999999996,"midi":46,"time":54.363582,"velocity":0.1968503937007874},{"duration":0.3636359999999996,"midi":46,"time":54.363582,"velocity":0.1968503937007874},{"duration":0.3636359999999996,"midi":46,"time":54.363582,"velocity":0.1968503937007874},{"duration":0.3636359999999996,"midi":40,"time":54.5454,"velocity":0.1968503937007874},{"duration":0.3636359999999996,"midi":40,"time":54.5454,"velocity":0.1968503937007874},{"duration":0.3636359999999996,"midi":40,"time":54.5454,"velocity":0.1968503937007874},{"duration":0.3636359999999996,"midi":46,"time":54.727218,"velocity":0.1968503937007874},{"duration":0.3636359999999996,"midi":46,"time":54.727218,"velocity":0.1968503937007874},{"duration":0.3636359999999996,"midi":46,"time":54.727218,"velocity":0.1968503937007874},{"duration":0.3636359999999996,"midi":40,"time":54.909036,"velocity":0.1968503937007874},{"duration":0.3636359999999996,"midi":40,"time":54.909036,"velocity":0.1968503937007874},{"duration":0.3636359999999996,"midi":40,"time":54.909036,"velocity":0.1968503937007874},{"duration":0.3636359999999996,"midi":46,"time":55.090854,"velocity":0.1968503937007874},{"duration":0.3636359999999996,"midi":46,"time":55.090854,"velocity":0.1968503937007874},{"duration":0.3636359999999996,"midi":46,"time":55.090854,"velocity":0.1968503937007874},{"duration":0.3636359999999996,"midi":41,"time":55.272672,"velocity":0.1968503937007874},{"duration":0.3636359999999996,"midi":41,"time":55.272672,"velocity":0.1968503937007874},{"duration":0.3636359999999996,"midi":41,"time":55.272672,"velocity":0.1968503937007874},{"duration":0.3636359999999996,"midi":48,"time":55.45449,"velocity":0.1968503937007874},{"duration":0.3636359999999996,"midi":48,"time":55.45449,"velocity":0.1968503937007874},{"duration":0.3636359999999996,"midi":48,"time":55.45449,"velocity":0.1968503937007874},{"duration":0.3636359999999996,"midi":41,"time":55.636308,"velocity":0.1968503937007874},{"duration":0.3636359999999996,"midi":41,"time":55.636308,"velocity":0.1968503937007874},{"duration":0.3636359999999996,"midi":41,"time":55.636308,"velocity":0.1968503937007874},{"duration":0.3636359999999996,"midi":48,"time":55.818126,"velocity":0.1968503937007874},{"duration":0.3636359999999996,"midi":48,"time":55.818126,"velocity":0.1968503937007874},{"duration":0.3636359999999996,"midi":48,"time":55.818126,"velocity":0.1968503937007874},{"duration":0.3636359999999996,"midi":41,"time":55.999944,"velocity":0.1968503937007874},{"duration":0.3636359999999996,"midi":41,"time":55.999944,"velocity":0.1968503937007874},{"duration":0.3636359999999996,"midi":41,"time":55.999944,"velocity":0.1968503937007874},{"duration":0.36363600000000673,"midi":48,"time":56.181762,"velocity":0.1968503937007874},{"duration":0.36363600000000673,"midi":48,"time":56.181762,"velocity":0.1968503937007874},{"duration":0.36363600000000673,"midi":48,"time":56.181762,"velocity":0.1968503937007874},{"duration":0.36363600000000673,"midi":41,"time":56.36358,"velocity":0.1968503937007874},{"duration":0.36363600000000673,"midi":41,"time":56.36358,"velocity":0.1968503937007874},{"duration":0.36363600000000673,"midi":41,"time":56.36358,"velocity":0.1968503937007874},{"duration":0.3636359999999996,"midi":48,"time":56.545398000000006,"velocity":0.1968503937007874},{"duration":0.3636359999999996,"midi":48,"time":56.545398000000006,"velocity":0.1968503937007874},{"duration":0.3636359999999996,"midi":48,"time":56.545398000000006,"velocity":0.1968503937007874},{"duration":0.09090899999999635,"midi":43,"time":93.090816,"velocity":0.1968503937007874},{"duration":0.09090899999999635,"midi":31,"time":93.090816,"velocity":0.1968503937007874},{"duration":0.09090899999999635,"midi":43,"time":93.27263400000001,"velocity":0.1968503937007874},{"duration":0.09090899999999635,"midi":55,"time":93.27263400000001,"velocity":0.1968503937007874},{"duration":0.09090899999999635,"midi":31,"time":93.454452,"velocity":0.1968503937007874},{"duration":0.09090899999999635,"midi":43,"time":93.454452,"velocity":0.1968503937007874},{"duration":0.09090899999999635,"midi":55,"time":93.63627000000001,"velocity":0.1968503937007874},{"duration":0.09090899999999635,"midi":43,"time":93.63627000000001,"velocity":0.1968503937007874},{"duration":0.09090899999999635,"midi":31,"time":93.818088,"velocity":0.1968503937007874},{"duration":0.09090899999999635,"midi":43,"time":93.818088,"velocity":0.1968503937007874},{"duration":0.09090899999999635,"midi":55,"time":93.99990600000001,"velocity":0.1968503937007874},{"duration":0.09090899999999635,"midi":43,"time":93.99990600000001,"velocity":0.1968503937007874},{"duration":0.09090899999999635,"midi":31,"time":94.181724,"velocity":0.1968503937007874},{"duration":0.09090899999999635,"midi":43,"time":94.181724,"velocity":0.1968503937007874},{"duration":0.09090899999999635,"midi":55,"time":94.36354200000001,"velocity":0.1968503937007874},{"duration":0.09090899999999635,"midi":43,"time":94.36354200000001,"velocity":0.1968503937007874},{"duration":0.09090899999999635,"midi":43,"time":94.54536,"velocity":0.1968503937007874},{"duration":0.09090899999999635,"midi":31,"time":94.54536,"velocity":0.1968503937007874},{"duration":0.09090899999999635,"midi":55,"time":94.72717800000001,"velocity":0.1968503937007874},{"duration":0.09090899999999635,"midi":43,"time":94.72717800000001,"velocity":0.1968503937007874},{"duration":0.09090899999999635,"midi":43,"time":94.908996,"velocity":0.1968503937007874},{"duration":0.09090899999999635,"midi":31,"time":94.908996,"velocity":0.1968503937007874},{"duration":0.09090899999999635,"midi":55,"time":95.09081400000001,"velocity":0.1968503937007874},{"duration":0.09090899999999635,"midi":43,"time":95.09081400000001,"velocity":0.1968503937007874},{"duration":0.09090899999999635,"midi":43,"time":95.272632,"velocity":0.1968503937007874},{"duration":0.09090899999999635,"midi":31,"time":95.272632,"velocity":0.1968503937007874},{"duration":0.09090899999999635,"midi":55,"time":95.45445000000001,"velocity":0.1968503937007874},{"duration":0.09090899999999635,"midi":43,"time":95.45445000000001,"velocity":0.1968503937007874},{"duration":0.09090899999999635,"midi":31,"time":95.636268,"velocity":0.1968503937007874},{"duration":0.09090899999999635,"midi":43,"time":95.636268,"velocity":0.1968503937007874},{"duration":0.09090899999999635,"midi":55,"time":95.81808600000001,"velocity":0.1968503937007874},{"duration":0.09090899999999635,"midi":43,"time":95.81808600000001,"velocity":0.1968503937007874},{"duration":0.09090899999999635,"midi":29,"time":95.999904,"velocity":0.1968503937007874},{"duration":0.09090899999999635,"midi":41,"time":95.999904,"velocity":0.1968503937007874},{"duration":0.09090899999999635,"midi":53,"time":96.18172200000001,"velocity":0.1968503937007874},{"duration":0.09090899999999635,"midi":41,"time":96.18172200000001,"velocity":0.1968503937007874},{"duration":0.09090900000001056,"midi":29,"time":96.36354,"velocity":0.1968503937007874},{"duration":0.09090900000001056,"midi":41,"time":96.36354,"velocity":0.1968503937007874},{"duration":0.09090899999999635,"midi":53,"time":96.54535800000001,"velocity":0.1968503937007874},{"duration":0.09090899999999635,"midi":41,"time":96.54535800000001,"velocity":0.1968503937007874},{"duration":0.09090900000001056,"midi":41,"time":96.727176,"velocity":0.1968503937007874},{"duration":0.09090900000001056,"midi":29,"time":96.727176,"velocity":0.1968503937007874},{"duration":0.09090899999999635,"midi":41,"time":96.908994,"velocity":0.1968503937007874},{"duration":0.09090899999999635,"midi":53,"time":96.908994,"velocity":0.1968503937007874},{"duration":0.09090900000001056,"midi":41,"time":97.090812,"velocity":0.1968503937007874},{"duration":0.09090900000001056,"midi":29,"time":97.090812,"velocity":0.1968503937007874},{"duration":0.09090899999999635,"midi":53,"time":97.27263,"velocity":0.1968503937007874},{"duration":0.09090899999999635,"midi":41,"time":97.27263,"velocity":0.1968503937007874},{"duration":0.09090900000001056,"midi":43,"time":97.454448,"velocity":0.1968503937007874},{"duration":0.09090900000001056,"midi":31,"time":97.454448,"velocity":0.1968503937007874},{"duration":0.09090899999999635,"midi":55,"time":97.636266,"velocity":0.1968503937007874},{"duration":0.09090899999999635,"midi":43,"time":97.636266,"velocity":0.1968503937007874},{"duration":0.09090900000001056,"midi":31,"time":97.818084,"velocity":0.1968503937007874},{"duration":0.09090900000001056,"midi":43,"time":97.818084,"velocity":0.1968503937007874},{"duration":0.09090899999999635,"midi":55,"time":97.999902,"velocity":0.1968503937007874},{"duration":0.09090899999999635,"midi":43,"time":97.999902,"velocity":0.1968503937007874},{"duration":0.09090900000001056,"midi":43,"time":98.18172,"velocity":0.1968503937007874},{"duration":0.09090900000001056,"midi":31,"time":98.18172,"velocity":0.1968503937007874},{"duration":0.09090899999999635,"midi":43,"time":98.363538,"velocity":0.1968503937007874},{"duration":0.09090899999999635,"midi":55,"time":98.363538,"velocity":0.1968503937007874},{"duration":0.09090900000001056,"midi":43,"time":98.545356,"velocity":0.1968503937007874},{"duration":0.09090900000001056,"midi":31,"time":98.545356,"velocity":0.1968503937007874},{"duration":0.09090899999999635,"midi":55,"time":98.727174,"velocity":0.1968503937007874},{"duration":0.09090899999999635,"midi":43,"time":98.727174,"velocity":0.1968503937007874},{"duration":0.09090900000001056,"midi":31,"time":98.908992,"velocity":0.1968503937007874},{"duration":0.09090900000001056,"midi":43,"time":98.908992,"velocity":0.1968503937007874},{"duration":0.09090899999999635,"midi":55,"time":99.09081,"velocity":0.1968503937007874},{"duration":0.09090899999999635,"midi":43,"time":99.09081,"velocity":0.1968503937007874},{"duration":0.09090900000001056,"midi":31,"time":99.272628,"velocity":0.1968503937007874},{"duration":0.09090900000001056,"midi":43,"time":99.272628,"velocity":0.1968503937007874},{"duration":0.09090899999999635,"midi":43,"time":99.454446,"velocity":0.1968503937007874},{"duration":0.09090899999999635,"midi":55,"time":99.454446,"velocity":0.1968503937007874},{"duration":0.09090900000001056,"midi":43,"time":99.636264,"velocity":0.1968503937007874},{"duration":0.09090900000001056,"midi":31,"time":99.636264,"velocity":0.1968503937007874},{"duration":0.09090899999999635,"midi":55,"time":99.818082,"velocity":0.1968503937007874},{"duration":0.09090899999999635,"midi":43,"time":99.818082,"velocity":0.1968503937007874},{"duration":0.09090899999999635,"midi":43,"time":99.99990000000001,"velocity":0.1968503937007874},{"duration":0.09090899999999635,"midi":31,"time":99.99990000000001,"velocity":0.1968503937007874},{"duration":0.09090899999999635,"midi":55,"time":100.181718,"velocity":0.1968503937007874},{"duration":0.09090899999999635,"midi":43,"time":100.181718,"velocity":0.1968503937007874},{"duration":0.09090899999999635,"midi":31,"time":100.36353600000001,"velocity":0.1968503937007874},{"duration":0.09090899999999635,"midi":43,"time":100.36353600000001,"velocity":0.1968503937007874},{"duration":0.09090899999999635,"midi":55,"time":100.545354,"velocity":0.1968503937007874},{"duration":0.09090899999999635,"midi":43,"time":100.545354,"velocity":0.1968503937007874},{"duration":0.09090899999999635,"midi":31,"time":100.72717200000001,"velocity":0.1968503937007874},{"duration":0.09090899999999635,"midi":43,"time":100.72717200000001,"velocity":0.1968503937007874},{"duration":0.09090899999999635,"midi":55,"time":100.90899,"velocity":0.1968503937007874},{"duration":0.09090899999999635,"midi":43,"time":100.90899,"velocity":0.1968503937007874},{"duration":0.09090899999999635,"midi":31,"time":101.09080800000001,"velocity":0.1968503937007874},{"duration":0.09090899999999635,"midi":43,"time":101.09080800000001,"velocity":0.1968503937007874},{"duration":0.09090899999999635,"midi":43,"time":101.272626,"velocity":0.1968503937007874},{"duration":0.09090899999999635,"midi":55,"time":101.272626,"velocity":0.1968503937007874},{"duration":0.09090899999999635,"midi":43,"time":101.45444400000001,"velocity":0.1968503937007874},{"duration":0.09090899999999635,"midi":31,"time":101.45444400000001,"velocity":0.1968503937007874},{"duration":0.09090899999999635,"midi":43,"time":101.636262,"velocity":0.1968503937007874},{"duration":0.09090899999999635,"midi":55,"time":101.636262,"velocity":0.1968503937007874},{"duration":0.09090899999999635,"midi":29,"time":101.81808000000001,"velocity":0.1968503937007874},{"duration":0.09090899999999635,"midi":41,"time":101.81808000000001,"velocity":0.1968503937007874},{"duration":0.09090899999999635,"midi":41,"time":101.999898,"velocity":0.1968503937007874},{"duration":0.09090899999999635,"midi":53,"time":101.999898,"velocity":0.1968503937007874},{"duration":0.09090899999999635,"midi":29,"time":102.18171600000001,"velocity":0.1968503937007874},{"duration":0.09090899999999635,"midi":41,"time":102.18171600000001,"velocity":0.1968503937007874},{"duration":0.09090899999999635,"midi":53,"time":102.363534,"velocity":0.1968503937007874},{"duration":0.09090899999999635,"midi":41,"time":102.363534,"velocity":0.1968503937007874},{"duration":0.09090899999999635,"midi":41,"time":102.54535200000001,"velocity":0.1968503937007874},{"duration":0.09090899999999635,"midi":29,"time":102.54535200000001,"velocity":0.1968503937007874},{"duration":0.09090899999999635,"midi":41,"time":102.72717,"velocity":0.1968503937007874},{"duration":0.09090899999999635,"midi":53,"time":102.72717,"velocity":0.1968503937007874},{"duration":0.09090899999999635,"midi":29,"time":102.90898800000001,"velocity":0.1968503937007874},{"duration":0.09090899999999635,"midi":41,"time":102.90898800000001,"velocity":0.1968503937007874},{"duration":0.09090900000001056,"midi":53,"time":103.090806,"velocity":0.1968503937007874},{"duration":0.09090900000001056,"midi":41,"time":103.090806,"velocity":0.1968503937007874},{"duration":0.09090899999999635,"midi":43,"time":103.27262400000001,"velocity":0.1968503937007874},{"duration":0.09090899999999635,"midi":31,"time":103.27262400000001,"velocity":0.1968503937007874},{"duration":0.09090900000001056,"midi":43,"time":103.454442,"velocity":0.1968503937007874},{"duration":0.09090900000001056,"midi":55,"time":103.454442,"velocity":0.1968503937007874},{"duration":0.09090899999999635,"midi":43,"time":103.63626000000001,"velocity":0.1968503937007874},{"duration":0.09090899999999635,"midi":31,"time":103.63626000000001,"velocity":0.1968503937007874},{"duration":0.09090900000001056,"midi":55,"time":103.818078,"velocity":0.1968503937007874},{"duration":0.09090900000001056,"midi":43,"time":103.818078,"velocity":0.1968503937007874},{"duration":0.09090899999999635,"midi":31,"time":103.999896,"velocity":0.1968503937007874},{"duration":0.09090899999999635,"midi":43,"time":103.999896,"velocity":0.1968503937007874},{"duration":0.09090900000001056,"midi":55,"time":104.181714,"velocity":0.1968503937007874},{"duration":0.09090900000001056,"midi":43,"time":104.181714,"velocity":0.1968503937007874},{"duration":0.09090899999999635,"midi":43,"time":104.363532,"velocity":0.1968503937007874},{"duration":0.09090899999999635,"midi":31,"time":104.363532,"velocity":0.1968503937007874},{"duration":0.09090900000001056,"midi":43,"time":104.54535,"velocity":0.1968503937007874},{"duration":0.09090900000001056,"midi":55,"time":104.54535,"velocity":0.1968503937007874},{"duration":0.09090899999999635,"midi":58,"time":104.727168,"velocity":0.1968503937007874},{"duration":0.09090900000001056,"midi":55,"time":104.908986,"velocity":0.1968503937007874},{"duration":0.09090899999999635,"midi":58,"time":105.45444,"velocity":0.1968503937007874},{"duration":0.09090900000001056,"midi":55,"time":105.636258,"velocity":0.1968503937007874},{"duration":0.1818179999999927,"midi":57,"time":105.818076,"velocity":0.1968503937007874},{"duration":0.09090899999999635,"midi":58,"time":106.181712,"velocity":0.1968503937007874},{"duration":0.09090900000001056,"midi":55,"time":106.36353,"velocity":0.1968503937007874},{"duration":0.09090899999999635,"midi":58,"time":106.908984,"velocity":0.1968503937007874},{"duration":0.09090899999999635,"midi":55,"time":107.09080200000001,"velocity":0.1968503937007874},{"duration":0.18181800000000692,"midi":57,"time":107.27262,"velocity":0.1968503937007874},{"duration":0.09090899999999635,"midi":58,"time":107.636256,"velocity":0.1968503937007874},{"duration":0.09090899999999635,"midi":55,"time":107.81807400000001,"velocity":0.1968503937007874},{"duration":0.09090899999999635,"midi":58,"time":108.363528,"velocity":0.1968503937007874},{"duration":0.09090899999999635,"midi":55,"time":108.54534600000001,"velocity":0.1968503937007874},{"duration":0.18181800000000692,"midi":57,"time":108.727164,"velocity":0.1968503937007874},{"duration":0.09090899999999635,"midi":58,"time":109.0908,"velocity":0.1968503937007874},{"duration":0.09090899999999635,"midi":55,"time":109.27261800000001,"velocity":0.1968503937007874},{"duration":0.09090900000001056,"midi":58,"time":109.818072,"velocity":0.1968503937007874},{"duration":0.09090899999999635,"midi":55,"time":109.99989000000001,"velocity":0.1968503937007874},{"duration":0.18181800000000692,"midi":57,"time":110.181708,"velocity":0.1968503937007874},{"duration":0.09090900000001056,"midi":58,"time":110.545344,"velocity":0.1968503937007874},{"duration":0.09090899999999635,"midi":55,"time":110.727162,"velocity":0.1968503937007874},{"duration":0.09090900000001056,"midi":58,"time":111.272616,"velocity":0.1968503937007874},{"duration":0.09090899999999635,"midi":55,"time":111.454434,"velocity":0.1968503937007874},{"duration":0.18181800000000692,"midi":57,"time":111.636252,"velocity":0.1968503937007874},{"duration":0.09090900000001056,"midi":58,"time":111.999888,"velocity":0.1968503937007874},{"duration":0.09090899999999635,"midi":55,"time":112.181706,"velocity":0.1968503937007874},{"duration":0.09090900000001056,"midi":58,"time":112.72716,"velocity":0.1968503937007874},{"duration":0.09090899999999635,"midi":55,"time":112.908978,"velocity":0.1968503937007874},{"duration":0.1818179999999927,"midi":57,"time":113.09079600000001,"velocity":0.1968503937007874},{"duration":0.09090899999999635,"midi":58,"time":113.45443200000001,"velocity":0.1968503937007874},{"duration":0.09090899999999635,"midi":55,"time":113.63625,"velocity":0.1968503937007874},{"duration":0.09090899999999635,"midi":58,"time":114.18170400000001,"velocity":0.1968503937007874},{"duration":0.09090899999999635,"midi":55,"time":114.363522,"velocity":0.1968503937007874},{"duration":0.1818179999999927,"midi":57,"time":114.54534000000001,"velocity":0.1968503937007874},{"duration":0.09090899999999635,"midi":58,"time":114.90897600000001,"velocity":0.1968503937007874},{"duration":0.09090899999999635,"midi":55,"time":115.090794,"velocity":0.1968503937007874},{"duration":0.09090899999999635,"midi":58,"time":115.63624800000001,"velocity":0.1968503937007874},{"duration":0.09090899999999635,"midi":55,"time":115.818066,"velocity":0.1968503937007874},{"duration":0.1818179999999927,"midi":57,"time":115.99988400000001,"velocity":0.1968503937007874},{"duration":0.09090899999999635,"midi":58,"time":116.36352000000001,"velocity":0.1968503937007874},{"duration":0.09090900000001056,"midi":55,"time":116.545338,"velocity":0.1968503937007874},{"duration":0.09090899999999635,"midi":58,"time":117.09079200000001,"velocity":0.1968503937007874},{"duration":0.09090900000001056,"midi":55,"time":117.27261,"velocity":0.1968503937007874},{"duration":0.1818179999999927,"midi":57,"time":117.45442800000001,"velocity":0.1968503937007874},{"duration":0.09090899999999635,"midi":58,"time":117.818064,"velocity":0.1968503937007874},{"duration":0.09090900000001056,"midi":55,"time":117.999882,"velocity":0.1968503937007874},{"duration":0.09090899999999635,"midi":58,"time":118.545336,"velocity":0.1968503937007874},{"duration":0.09090900000001056,"midi":55,"time":118.727154,"velocity":0.1968503937007874},{"duration":0.1818179999999927,"midi":57,"time":118.908972,"velocity":0.1968503937007874},{"duration":0.09090899999999635,"midi":58,"time":119.272608,"velocity":0.1968503937007874},{"duration":0.09090900000001056,"midi":55,"time":119.454426,"velocity":0.1968503937007874},{"duration":0.09090899999999635,"midi":58,"time":119.99988,"velocity":0.1968503937007874},{"duration":0.09090899999999635,"midi":55,"time":120.18169800000001,"velocity":0.1968503937007874},{"duration":0.18181800000000692,"midi":57,"time":120.363516,"velocity":0.1968503937007874},{"duration":0.09090899999999635,"midi":58,"time":120.727152,"velocity":0.1968503937007874},{"duration":0.09090899999999635,"midi":55,"time":120.90897000000001,"velocity":0.1968503937007874},{"duration":0.09090899999999635,"midi":58,"time":121.454424,"velocity":0.1968503937007874},{"duration":0.09090899999999635,"midi":55,"time":121.63624200000001,"velocity":0.1968503937007874},{"duration":0.18181800000000692,"midi":57,"time":121.81806,"velocity":0.1968503937007874},{"duration":0.09090899999999635,"midi":58,"time":122.181696,"velocity":0.1968503937007874},{"duration":0.09090899999999635,"midi":55,"time":122.36351400000001,"velocity":0.1968503937007874},{"duration":0.09090899999999635,"midi":58,"time":122.908968,"velocity":0.1968503937007874},{"duration":0.09090899999999635,"midi":55,"time":123.09078600000001,"velocity":0.1968503937007874},{"duration":0.18181800000000692,"midi":57,"time":123.272604,"velocity":0.1968503937007874},{"duration":0.09090900000001056,"midi":58,"time":123.63624,"velocity":0.1968503937007874},{"duration":0.09090899999999635,"midi":55,"time":123.81805800000001,"velocity":0.1968503937007874},{"duration":0.09090900000001056,"midi":58,"time":124.363512,"velocity":0.1968503937007874},{"duration":0.09090899999999635,"midi":55,"time":124.54533,"velocity":0.1968503937007874},{"duration":0.18181800000000692,"midi":57,"time":124.727148,"velocity":0.1968503937007874},{"duration":0.09090900000001056,"midi":58,"time":125.090784,"velocity":0.1968503937007874},{"duration":0.09090899999999635,"midi":55,"time":125.272602,"velocity":0.1968503937007874},{"duration":0.09090900000001056,"midi":58,"time":125.818056,"velocity":0.1968503937007874},{"duration":0.09090899999999635,"midi":55,"time":125.999874,"velocity":0.1968503937007874},{"duration":0.18181800000000692,"midi":57,"time":126.181692,"velocity":0.1968503937007874},{"duration":0.09090899999999635,"midi":58,"time":126.54532800000001,"velocity":0.1968503937007874},{"duration":0.09090899999999635,"midi":55,"time":126.727146,"velocity":0.1968503937007874},{"duration":0.09090899999999635,"midi":58,"time":127.27260000000001,"velocity":0.1968503937007874},{"duration":0.09090899999999635,"midi":58,"time":127.27260000000001,"velocity":0.1968503937007874},{"duration":0.09090899999999635,"midi":55,"time":127.454418,"velocity":0.1968503937007874},{"duration":0.09090899999999635,"midi":55,"time":127.454418,"velocity":0.1968503937007874},{"duration":0.09090899999999635,"midi":55,"time":127.454418,"velocity":0.1968503937007874},{"duration":0.1818179999999927,"midi":57,"time":127.63623600000001,"velocity":0.1968503937007874},{"duration":0.1818179999999927,"midi":57,"time":127.63623600000001,"velocity":0.1968503937007874},{"duration":0.1818179999999927,"midi":57,"time":127.63623600000001,"velocity":0.1968503937007874},{"duration":0.1818179999999927,"midi":57,"time":127.63623600000001,"velocity":0.1968503937007874},{"duration":0.13636349999998743,"midi":55,"time":139.81804200000002,"velocity":0.1968503937007874},{"duration":0.13636349999998743,"midi":55,"time":139.81804200000002,"velocity":0.1968503937007874},{"duration":0.13636349999998743,"midi":55,"time":140.181678,"velocity":0.1968503937007874},{"duration":0.13636349999998743,"midi":55,"time":140.181678,"velocity":0.1968503937007874},{"duration":0.13636349999998743,"midi":55,"time":140.54531400000002,"velocity":0.1968503937007874},{"duration":0.13636349999998743,"midi":55,"time":140.54531400000002,"velocity":0.1968503937007874},{"duration":0.13636349999998743,"midi":55,"time":140.90895,"velocity":0.1968503937007874},{"duration":0.13636349999998743,"midi":55,"time":140.90895,"velocity":0.1968503937007874},{"duration":0.13636349999998743,"midi":52,"time":141.27258600000002,"velocity":0.1968503937007874},{"duration":0.13636349999998743,"midi":52,"time":141.27258600000002,"velocity":0.1968503937007874},{"duration":0.13636350000001585,"midi":52,"time":141.636222,"velocity":0.1968503937007874},{"duration":0.13636350000001585,"midi":52,"time":141.636222,"velocity":0.1968503937007874},{"duration":0.13636349999998743,"midi":52,"time":141.99985800000002,"velocity":0.1968503937007874},{"duration":0.13636349999998743,"midi":52,"time":141.99985800000002,"velocity":0.1968503937007874},{"duration":0.13636350000001585,"midi":52,"time":142.363494,"velocity":0.1968503937007874},{"duration":0.13636350000001585,"midi":52,"time":142.363494,"velocity":0.1968503937007874},{"duration":0.13636349999998743,"midi":53,"time":142.72713000000002,"velocity":0.1968503937007874},{"duration":0.13636349999998743,"midi":53,"time":142.72713000000002,"velocity":0.1968503937007874},{"duration":0.13636350000001585,"midi":53,"time":143.090766,"velocity":0.1968503937007874},{"duration":0.13636350000001585,"midi":53,"time":143.090766,"velocity":0.1968503937007874},{"duration":0.13636349999998743,"midi":53,"time":143.45440200000002,"velocity":0.1968503937007874},{"duration":0.13636349999998743,"midi":53,"time":143.45440200000002,"velocity":0.1968503937007874},{"duration":0.13636350000001585,"midi":53,"time":143.818038,"velocity":0.1968503937007874},{"duration":0.13636350000001585,"midi":53,"time":143.818038,"velocity":0.1968503937007874},{"duration":0.13636349999998743,"midi":55,"time":144.18167400000002,"velocity":0.1968503937007874},{"duration":0.13636349999998743,"midi":55,"time":144.18167400000002,"velocity":0.1968503937007874},{"duration":0.13636350000001585,"midi":55,"time":144.54531,"velocity":0.1968503937007874},{"duration":0.13636350000001585,"midi":55,"time":144.54531,"velocity":0.1968503937007874},{"duration":0.13636349999998743,"midi":55,"time":144.90894600000001,"velocity":0.1968503937007874},{"duration":0.13636349999998743,"midi":55,"time":144.90894600000001,"velocity":0.1968503937007874},{"duration":0.13636350000001585,"midi":55,"time":145.272582,"velocity":0.1968503937007874},{"duration":0.13636350000001585,"midi":55,"time":145.272582,"velocity":0.1968503937007874},{"duration":0.13636349999998743,"midi":55,"time":145.636218,"velocity":0.1968503937007874},{"duration":0.13636349999998743,"midi":55,"time":145.636218,"velocity":0.1968503937007874},{"duration":0.13636350000001585,"midi":55,"time":145.999854,"velocity":0.1968503937007874},{"duration":0.13636350000001585,"midi":55,"time":145.999854,"velocity":0.1968503937007874},{"duration":0.13636349999998743,"midi":55,"time":146.36349,"velocity":0.1968503937007874},{"duration":0.13636349999998743,"midi":55,"time":146.36349,"velocity":0.1968503937007874},{"duration":0.13636350000001585,"midi":55,"time":146.727126,"velocity":0.1968503937007874},{"duration":0.13636350000001585,"midi":55,"time":146.727126,"velocity":0.1968503937007874},{"duration":0.13636349999998743,"midi":52,"time":147.090762,"velocity":0.1968503937007874},{"duration":0.13636349999998743,"midi":52,"time":147.090762,"velocity":0.1968503937007874},{"duration":0.13636350000001585,"midi":52,"time":147.454398,"velocity":0.1968503937007874},{"duration":0.13636350000001585,"midi":52,"time":147.454398,"velocity":0.1968503937007874},{"duration":0.13636349999998743,"midi":52,"time":147.818034,"velocity":0.1968503937007874},{"duration":0.13636349999998743,"midi":52,"time":147.818034,"velocity":0.1968503937007874},{"duration":0.13636350000001585,"midi":52,"time":148.18167,"velocity":0.1968503937007874},{"duration":0.13636350000001585,"midi":52,"time":148.18167,"velocity":0.1968503937007874},{"duration":0.13636349999998743,"midi":53,"time":148.545306,"velocity":0.1968503937007874},{"duration":0.13636349999998743,"midi":53,"time":148.545306,"velocity":0.1968503937007874},{"duration":0.13636350000001585,"midi":53,"time":148.908942,"velocity":0.1968503937007874},{"duration":0.13636350000001585,"midi":53,"time":148.908942,"velocity":0.1968503937007874},{"duration":0.13636349999998743,"midi":53,"time":149.272578,"velocity":0.1968503937007874},{"duration":0.13636349999998743,"midi":53,"time":149.272578,"velocity":0.1968503937007874},{"duration":0.13636350000001585,"midi":53,"time":149.636214,"velocity":0.1968503937007874},{"duration":0.13636350000001585,"midi":53,"time":149.636214,"velocity":0.1968503937007874},{"duration":0.13636349999998743,"midi":55,"time":149.99985,"velocity":0.1968503937007874},{"duration":0.13636349999998743,"midi":55,"time":149.99985,"velocity":0.1968503937007874},{"duration":0.13636350000001585,"midi":55,"time":150.363486,"velocity":0.1968503937007874},{"duration":0.13636350000001585,"midi":55,"time":150.363486,"velocity":0.1968503937007874},{"duration":0.13636349999998743,"midi":55,"time":150.727122,"velocity":0.1968503937007874},{"duration":0.13636349999998743,"midi":55,"time":150.727122,"velocity":0.1968503937007874},{"duration":0.13636350000001585,"midi":55,"time":151.090758,"velocity":0.1968503937007874},{"duration":0.13636350000001585,"midi":55,"time":151.090758,"velocity":0.1968503937007874},{"duration":0.09090899999998214,"midi":43,"time":151.27257600000002,"velocity":0.1968503937007874},{"duration":0.09090899999998214,"midi":43,"time":151.27257600000002,"velocity":0.1968503937007874},{"duration":0.09090899999998214,"midi":43,"time":151.27257600000002,"velocity":0.1968503937007874},{"duration":0.09090900000001056,"midi":55,"time":151.454394,"velocity":0.1968503937007874},{"duration":0.09090900000001056,"midi":43,"time":151.454394,"velocity":0.1968503937007874},{"duration":0.09090900000001056,"midi":55,"time":151.454394,"velocity":0.1968503937007874},{"duration":0.09090900000001056,"midi":55,"time":151.454394,"velocity":0.1968503937007874},{"duration":0.09090900000001056,"midi":43,"time":151.454394,"velocity":0.1968503937007874},{"duration":0.09090900000001056,"midi":43,"time":151.454394,"velocity":0.1968503937007874},{"duration":0.09090900000001056,"midi":43,"time":151.636212,"velocity":0.1968503937007874},{"duration":0.09090900000001056,"midi":43,"time":151.636212,"velocity":0.1968503937007874},{"duration":0.09090900000001056,"midi":43,"time":151.636212,"velocity":0.1968503937007874},{"duration":0.09090900000001056,"midi":43,"time":151.81803,"velocity":0.1968503937007874},{"duration":0.09090900000001056,"midi":55,"time":151.81803,"velocity":0.1968503937007874},{"duration":0.09090900000001056,"midi":55,"time":151.81803,"velocity":0.1968503937007874},{"duration":0.09090900000001056,"midi":43,"time":151.81803,"velocity":0.1968503937007874},{"duration":0.09090900000001056,"midi":43,"time":151.81803,"velocity":0.1968503937007874},{"duration":0.09090900000001056,"midi":55,"time":151.81803,"velocity":0.1968503937007874},{"duration":0.09090899999998214,"midi":43,"time":151.99984800000001,"velocity":0.1968503937007874},{"duration":0.09090899999998214,"midi":43,"time":151.99984800000001,"velocity":0.1968503937007874},{"duration":0.09090899999998214,"midi":43,"time":151.99984800000001,"velocity":0.1968503937007874},{"duration":0.09090900000001056,"midi":43,"time":152.181666,"velocity":0.1968503937007874},{"duration":0.09090900000001056,"midi":43,"time":152.181666,"velocity":0.1968503937007874},{"duration":0.09090900000001056,"midi":55,"time":152.181666,"velocity":0.1968503937007874},{"duration":0.09090900000001056,"midi":55,"time":152.181666,"velocity":0.1968503937007874},{"duration":0.09090900000001056,"midi":55,"time":152.181666,"velocity":0.1968503937007874},{"duration":0.09090900000001056,"midi":43,"time":152.181666,"velocity":0.1968503937007874},{"duration":0.09090900000001056,"midi":43,"time":152.363484,"velocity":0.1968503937007874},{"duration":0.09090900000001056,"midi":43,"time":152.363484,"velocity":0.1968503937007874},{"duration":0.09090900000001056,"midi":43,"time":152.363484,"velocity":0.1968503937007874},{"duration":0.09090900000001056,"midi":55,"time":152.545302,"velocity":0.1968503937007874},{"duration":0.09090900000001056,"midi":43,"time":152.545302,"velocity":0.1968503937007874},{"duration":0.09090900000001056,"midi":43,"time":152.545302,"velocity":0.1968503937007874},{"duration":0.09090900000001056,"midi":43,"time":152.545302,"velocity":0.1968503937007874},{"duration":0.09090900000001056,"midi":55,"time":152.545302,"velocity":0.1968503937007874},{"duration":0.09090900000001056,"midi":55,"time":152.545302,"velocity":0.1968503937007874},{"duration":0.09090899999998214,"midi":40,"time":152.72712,"velocity":0.1968503937007874},{"duration":0.09090899999998214,"midi":40,"time":152.72712,"velocity":0.1968503937007874},{"duration":0.09090899999998214,"midi":40,"time":152.72712,"velocity":0.1968503937007874},{"duration":0.09090900000001056,"midi":40,"time":152.908938,"velocity":0.1968503937007874},{"duration":0.09090900000001056,"midi":52,"time":152.908938,"velocity":0.1968503937007874},{"duration":0.09090900000001056,"midi":40,"time":152.908938,"velocity":0.1968503937007874},{"duration":0.09090900000001056,"midi":52,"time":152.908938,"velocity":0.1968503937007874},{"duration":0.09090900000001056,"midi":52,"time":152.908938,"velocity":0.1968503937007874},{"duration":0.09090900000001056,"midi":40,"time":152.908938,"velocity":0.1968503937007874},{"duration":0.09090900000001056,"midi":40,"time":153.090756,"velocity":0.1968503937007874},{"duration":0.09090900000001056,"midi":40,"time":153.090756,"velocity":0.1968503937007874},{"duration":0.09090900000001056,"midi":40,"time":153.090756,"velocity":0.1968503937007874},{"duration":0.09090899999998214,"midi":52,"time":153.27257400000002,"velocity":0.1968503937007874},{"duration":0.09090899999998214,"midi":52,"time":153.27257400000002,"velocity":0.1968503937007874},{"duration":0.09090899999998214,"midi":40,"time":153.27257400000002,"velocity":0.1968503937007874},{"duration":0.09090899999998214,"midi":40,"time":153.27257400000002,"velocity":0.1968503937007874},{"duration":0.09090899999998214,"midi":40,"time":153.27257400000002,"velocity":0.1968503937007874},{"duration":0.09090899999998214,"midi":52,"time":153.27257400000002,"velocity":0.1968503937007874},{"duration":0.09090899999998214,"midi":40,"time":153.454392,"velocity":0.1968503937007874},{"duration":0.09090899999998214,"midi":40,"time":153.454392,"velocity":0.1968503937007874},{"duration":0.09090899999998214,"midi":40,"time":153.454392,"velocity":0.1968503937007874},{"duration":0.09090900000001056,"midi":40,"time":153.63621,"velocity":0.1968503937007874},{"duration":0.09090900000001056,"midi":52,"time":153.63621,"velocity":0.1968503937007874},{"duration":0.09090900000001056,"midi":40,"time":153.63621,"velocity":0.1968503937007874},{"duration":0.09090900000001056,"midi":52,"time":153.63621,"velocity":0.1968503937007874},{"duration":0.09090900000001056,"midi":52,"time":153.63621,"velocity":0.1968503937007874},{"duration":0.09090900000001056,"midi":40,"time":153.63621,"velocity":0.1968503937007874},{"duration":0.09090900000001056,"midi":40,"time":153.818028,"velocity":0.1968503937007874},{"duration":0.09090900000001056,"midi":40,"time":153.818028,"velocity":0.1968503937007874},{"duration":0.09090900000001056,"midi":40,"time":153.818028,"velocity":0.1968503937007874},{"duration":0.09090899999998214,"midi":40,"time":153.99984600000002,"velocity":0.1968503937007874},{"duration":0.09090899999998214,"midi":52,"time":153.99984600000002,"velocity":0.1968503937007874},{"duration":0.09090899999998214,"midi":40,"time":153.99984600000002,"velocity":0.1968503937007874},{"duration":0.09090899999998214,"midi":52,"time":153.99984600000002,"velocity":0.1968503937007874},{"duration":0.09090899999998214,"midi":40,"time":153.99984600000002,"velocity":0.1968503937007874},{"duration":0.09090899999998214,"midi":52,"time":153.99984600000002,"velocity":0.1968503937007874},{"duration":0.09090899999998214,"midi":41,"time":154.181664,"velocity":0.1968503937007874},{"duration":0.09090899999998214,"midi":41,"time":154.181664,"velocity":0.1968503937007874},{"duration":0.09090899999998214,"midi":41,"time":154.181664,"velocity":0.1968503937007874},{"duration":0.09090900000001056,"midi":53,"time":154.363482,"velocity":0.1968503937007874},{"duration":0.09090900000001056,"midi":41,"time":154.363482,"velocity":0.1968503937007874},{"duration":0.09090900000001056,"midi":53,"time":154.363482,"velocity":0.1968503937007874},{"duration":0.09090900000001056,"midi":41,"time":154.363482,"velocity":0.1968503937007874},{"duration":0.09090900000001056,"midi":53,"time":154.363482,"velocity":0.1968503937007874},{"duration":0.09090900000001056,"midi":41,"time":154.363482,"velocity":0.1968503937007874},{"duration":0.09090900000001056,"midi":41,"time":154.5453,"velocity":0.1968503937007874},{"duration":0.09090900000001056,"midi":41,"time":154.5453,"velocity":0.1968503937007874},{"duration":0.09090900000001056,"midi":41,"time":154.5453,"velocity":0.1968503937007874},{"duration":0.09090899999998214,"midi":41,"time":154.72711800000002,"velocity":0.1968503937007874},{"duration":0.09090899999998214,"midi":41,"time":154.72711800000002,"velocity":0.1968503937007874},{"duration":0.09090899999998214,"midi":53,"time":154.72711800000002,"velocity":0.1968503937007874},{"duration":0.09090899999998214,"midi":53,"time":154.72711800000002,"velocity":0.1968503937007874},{"duration":0.09090899999998214,"midi":41,"time":154.72711800000002,"velocity":0.1968503937007874},{"duration":0.09090899999998214,"midi":53,"time":154.72711800000002,"velocity":0.1968503937007874},{"duration":0.09090899999998214,"midi":41,"time":154.908936,"velocity":0.1968503937007874},{"duration":0.09090899999998214,"midi":41,"time":154.908936,"velocity":0.1968503937007874},{"duration":0.09090899999998214,"midi":41,"time":154.908936,"velocity":0.1968503937007874},{"duration":0.09090900000001056,"midi":41,"time":155.090754,"velocity":0.1968503937007874},{"duration":0.09090900000001056,"midi":41,"time":155.090754,"velocity":0.1968503937007874},{"duration":0.09090900000001056,"midi":41,"time":155.090754,"velocity":0.1968503937007874},{"duration":0.09090900000001056,"midi":53,"time":155.090754,"velocity":0.1968503937007874},{"duration":0.09090900000001056,"midi":53,"time":155.090754,"velocity":0.1968503937007874},{"duration":0.09090900000001056,"midi":53,"time":155.090754,"velocity":0.1968503937007874},{"duration":0.09090900000001056,"midi":41,"time":155.272572,"velocity":0.1968503937007874},{"duration":0.09090900000001056,"midi":41,"time":155.272572,"velocity":0.1968503937007874},{"duration":0.09090900000001056,"midi":41,"time":155.272572,"velocity":0.1968503937007874},{"duration":0.09090899999998214,"midi":41,"time":155.45439000000002,"velocity":0.1968503937007874},{"duration":0.09090899999998214,"midi":41,"time":155.45439000000002,"velocity":0.1968503937007874},{"duration":0.09090899999998214,"midi":41,"time":155.45439000000002,"velocity":0.1968503937007874},{"duration":0.09090899999998214,"midi":53,"time":155.45439000000002,"velocity":0.1968503937007874},{"duration":0.09090899999998214,"midi":53,"time":155.45439000000002,"velocity":0.1968503937007874},{"duration":0.09090899999998214,"midi":53,"time":155.45439000000002,"velocity":0.1968503937007874},{"duration":0.09090899999998214,"midi":43,"time":155.636208,"velocity":0.1968503937007874},{"duration":0.09090899999998214,"midi":43,"time":155.636208,"velocity":0.1968503937007874},{"duration":0.09090899999998214,"midi":43,"time":155.636208,"velocity":0.1968503937007874},{"duration":0.09090900000001056,"midi":43,"time":155.818026,"velocity":0.1968503937007874},{"duration":0.09090900000001056,"midi":43,"time":155.818026,"velocity":0.1968503937007874},{"duration":0.09090900000001056,"midi":55,"time":155.818026,"velocity":0.1968503937007874},{"duration":0.09090900000001056,"midi":43,"time":155.818026,"velocity":0.1968503937007874},{"duration":0.09090900000001056,"midi":55,"time":155.818026,"velocity":0.1968503937007874},{"duration":0.09090900000001056,"midi":55,"time":155.818026,"velocity":0.1968503937007874},{"duration":0.09090900000001056,"midi":43,"time":155.999844,"velocity":0.1968503937007874},{"duration":0.09090900000001056,"midi":43,"time":155.999844,"velocity":0.1968503937007874},{"duration":0.09090900000001056,"midi":43,"time":155.999844,"velocity":0.1968503937007874},{"duration":0.09090899999998214,"midi":43,"time":156.18166200000002,"velocity":0.1968503937007874},{"duration":0.09090899999998214,"midi":55,"time":156.18166200000002,"velocity":0.1968503937007874},{"duration":0.09090899999998214,"midi":43,"time":156.18166200000002,"velocity":0.1968503937007874},{"duration":0.09090899999998214,"midi":43,"time":156.18166200000002,"velocity":0.1968503937007874},{"duration":0.09090899999998214,"midi":55,"time":156.18166200000002,"velocity":0.1968503937007874},{"duration":0.09090899999998214,"midi":55,"time":156.18166200000002,"velocity":0.1968503937007874},{"duration":0.09090900000001056,"midi":43,"time":156.36348,"velocity":0.1968503937007874},{"duration":0.09090900000001056,"midi":43,"time":156.36348,"velocity":0.1968503937007874},{"duration":0.09090900000001056,"midi":43,"time":156.36348,"velocity":0.1968503937007874},{"duration":0.09090900000001056,"midi":55,"time":156.545298,"velocity":0.1968503937007874},{"duration":0.09090900000001056,"midi":43,"time":156.545298,"velocity":0.1968503937007874},{"duration":0.09090900000001056,"midi":55,"time":156.545298,"velocity":0.1968503937007874},{"duration":0.09090900000001056,"midi":43,"time":156.545298,"velocity":0.1968503937007874},{"duration":0.09090900000001056,"midi":43,"time":156.545298,"velocity":0.1968503937007874},{"duration":0.09090900000001056,"midi":55,"time":156.545298,"velocity":0.1968503937007874},{"duration":0.09090900000001056,"midi":43,"time":156.727116,"velocity":0.1968503937007874},{"duration":0.09090900000001056,"midi":43,"time":156.727116,"velocity":0.1968503937007874},{"duration":0.09090900000001056,"midi":43,"time":156.727116,"velocity":0.1968503937007874},{"duration":0.09090899999998214,"midi":55,"time":156.90893400000002,"velocity":0.1968503937007874},{"duration":0.09090899999998214,"midi":55,"time":156.90893400000002,"velocity":0.1968503937007874},{"duration":0.09090899999998214,"midi":43,"time":156.90893400000002,"velocity":0.1968503937007874},{"duration":0.09090899999998214,"midi":43,"time":156.90893400000002,"velocity":0.1968503937007874},{"duration":0.09090899999998214,"midi":55,"time":156.90893400000002,"velocity":0.1968503937007874},{"duration":0.09090899999998214,"midi":43,"time":156.90893400000002,"velocity":0.1968503937007874},{"duration":0.09090900000001056,"midi":43,"time":157.090752,"velocity":0.1968503937007874},{"duration":0.09090900000001056,"midi":43,"time":157.090752,"velocity":0.1968503937007874},{"duration":0.09090900000001056,"midi":43,"time":157.090752,"velocity":0.1968503937007874},{"duration":0.09090900000001056,"midi":43,"time":157.27257,"velocity":0.1968503937007874},{"duration":0.09090900000001056,"midi":55,"time":157.27257,"velocity":0.1968503937007874},{"duration":0.09090900000001056,"midi":55,"time":157.27257,"velocity":0.1968503937007874},{"duration":0.09090900000001056,"midi":43,"time":157.27257,"velocity":0.1968503937007874},{"duration":0.09090900000001056,"midi":43,"time":157.27257,"velocity":0.1968503937007874},{"duration":0.09090900000001056,"midi":55,"time":157.27257,"velocity":0.1968503937007874},{"duration":0.09090900000001056,"midi":43,"time":157.454388,"velocity":0.1968503937007874},{"duration":0.09090900000001056,"midi":43,"time":157.454388,"velocity":0.1968503937007874},{"duration":0.09090900000001056,"midi":43,"time":157.454388,"velocity":0.1968503937007874},{"duration":0.09090899999998214,"midi":43,"time":157.63620600000002,"velocity":0.1968503937007874},{"duration":0.09090899999998214,"midi":43,"time":157.63620600000002,"velocity":0.1968503937007874},{"duration":0.09090899999998214,"midi":55,"time":157.63620600000002,"velocity":0.1968503937007874},{"duration":0.09090899999998214,"midi":55,"time":157.63620600000002,"velocity":0.1968503937007874},{"duration":0.09090899999998214,"midi":43,"time":157.63620600000002,"velocity":0.1968503937007874},{"duration":0.09090899999998214,"midi":55,"time":157.63620600000002,"velocity":0.1968503937007874},{"duration":0.09090900000001056,"midi":43,"time":157.818024,"velocity":0.1968503937007874},{"duration":0.09090900000001056,"midi":43,"time":157.818024,"velocity":0.1968503937007874},{"duration":0.09090900000001056,"midi":43,"time":157.818024,"velocity":0.1968503937007874},{"duration":0.09090900000001056,"midi":43,"time":157.999842,"velocity":0.1968503937007874},{"duration":0.09090900000001056,"midi":55,"time":157.999842,"velocity":0.1968503937007874},{"duration":0.09090900000001056,"midi":43,"time":157.999842,"velocity":0.1968503937007874},{"duration":0.09090900000001056,"midi":43,"time":157.999842,"velocity":0.1968503937007874},{"duration":0.09090900000001056,"midi":55,"time":157.999842,"velocity":0.1968503937007874},{"duration":0.09090900000001056,"midi":55,"time":157.999842,"velocity":0.1968503937007874},{"duration":0.09090900000001056,"midi":43,"time":158.18166,"velocity":0.1968503937007874},{"duration":0.09090900000001056,"midi":43,"time":158.18166,"velocity":0.1968503937007874},{"duration":0.09090900000001056,"midi":43,"time":158.18166,"velocity":0.1968503937007874},{"duration":0.09090899999998214,"midi":43,"time":158.36347800000001,"velocity":0.1968503937007874},{"duration":0.09090899999998214,"midi":55,"time":158.36347800000001,"velocity":0.1968503937007874},{"duration":0.09090899999998214,"midi":55,"time":158.36347800000001,"velocity":0.1968503937007874},{"duration":0.09090899999998214,"midi":43,"time":158.36347800000001,"velocity":0.1968503937007874},{"duration":0.09090899999998214,"midi":55,"time":158.36347800000001,"velocity":0.1968503937007874},{"duration":0.09090899999998214,"midi":43,"time":158.36347800000001,"velocity":0.1968503937007874},{"duration":0.09090900000001056,"midi":40,"time":158.545296,"velocity":0.1968503937007874},{"duration":0.09090900000001056,"midi":40,"time":158.545296,"velocity":0.1968503937007874},{"duration":0.09090900000001056,"midi":40,"time":158.545296,"velocity":0.1968503937007874},{"duration":0.09090900000001056,"midi":40,"time":158.727114,"velocity":0.1968503937007874},{"duration":0.09090900000001056,"midi":40,"time":158.727114,"velocity":0.1968503937007874},{"duration":0.09090900000001056,"midi":52,"time":158.727114,"velocity":0.1968503937007874},{"duration":0.09090900000001056,"midi":52,"time":158.727114,"velocity":0.1968503937007874},{"duration":0.09090900000001056,"midi":52,"time":158.727114,"velocity":0.1968503937007874},{"duration":0.09090900000001056,"midi":40,"time":158.727114,"velocity":0.1968503937007874},{"duration":0.09090900000001056,"midi":40,"time":158.908932,"velocity":0.1968503937007874},{"duration":0.09090900000001056,"midi":40,"time":158.908932,"velocity":0.1968503937007874},{"duration":0.09090900000001056,"midi":40,"time":158.908932,"velocity":0.1968503937007874},{"duration":0.09090899999998214,"midi":52,"time":159.09075,"velocity":0.1968503937007874},{"duration":0.09090899999998214,"midi":52,"time":159.09075,"velocity":0.1968503937007874},{"duration":0.09090899999998214,"midi":52,"time":159.09075,"velocity":0.1968503937007874},{"duration":0.09090899999998214,"midi":40,"time":159.09075,"velocity":0.1968503937007874},{"duration":0.09090899999998214,"midi":40,"time":159.09075,"velocity":0.1968503937007874},{"duration":0.09090899999998214,"midi":40,"time":159.09075,"velocity":0.1968503937007874},{"duration":0.09090900000001056,"midi":40,"time":159.272568,"velocity":0.1968503937007874},{"duration":0.09090900000001056,"midi":40,"time":159.272568,"velocity":0.1968503937007874},{"duration":0.09090900000001056,"midi":40,"time":159.272568,"velocity":0.1968503937007874},{"duration":0.09090900000001056,"midi":40,"time":159.454386,"velocity":0.1968503937007874},{"duration":0.09090900000001056,"midi":40,"time":159.454386,"velocity":0.1968503937007874},{"duration":0.09090900000001056,"midi":52,"time":159.454386,"velocity":0.1968503937007874},{"duration":0.09090900000001056,"midi":52,"time":159.454386,"velocity":0.1968503937007874},{"duration":0.09090900000001056,"midi":40,"time":159.454386,"velocity":0.1968503937007874},{"duration":0.09090900000001056,"midi":52,"time":159.454386,"velocity":0.1968503937007874},{"duration":0.09090899999998214,"midi":40,"time":159.63620400000002,"velocity":0.1968503937007874},{"duration":0.09090899999998214,"midi":40,"time":159.63620400000002,"velocity":0.1968503937007874},{"duration":0.09090899999998214,"midi":40,"time":159.63620400000002,"velocity":0.1968503937007874},{"duration":0.09090899999998214,"midi":40,"time":159.818022,"velocity":0.1968503937007874},{"duration":0.09090899999998214,"midi":40,"time":159.818022,"velocity":0.1968503937007874},{"duration":0.09090899999998214,"midi":52,"time":159.818022,"velocity":0.1968503937007874},{"duration":0.09090899999998214,"midi":52,"time":159.818022,"velocity":0.1968503937007874},{"duration":0.09090899999998214,"midi":40,"time":159.818022,"velocity":0.1968503937007874},{"duration":0.09090899999998214,"midi":52,"time":159.818022,"velocity":0.1968503937007874},{"duration":0.09090900000001056,"midi":41,"time":159.99984,"velocity":0.1968503937007874},{"duration":0.09090900000001056,"midi":41,"time":159.99984,"velocity":0.1968503937007874},{"duration":0.09090900000001056,"midi":41,"time":159.99984,"velocity":0.1968503937007874},{"duration":0.09090900000001056,"midi":41,"time":160.181658,"velocity":0.1968503937007874},{"duration":0.09090900000001056,"midi":53,"time":160.181658,"velocity":0.1968503937007874},{"duration":0.09090900000001056,"midi":41,"time":160.181658,"velocity":0.1968503937007874},{"duration":0.09090900000001056,"midi":53,"time":160.181658,"velocity":0.1968503937007874},{"duration":0.09090900000001056,"midi":41,"time":160.181658,"velocity":0.1968503937007874},{"duration":0.09090900000001056,"midi":53,"time":160.181658,"velocity":0.1968503937007874},{"duration":0.09090899999998214,"midi":41,"time":160.36347600000002,"velocity":0.1968503937007874},{"duration":0.09090899999998214,"midi":41,"time":160.36347600000002,"velocity":0.1968503937007874},{"duration":0.09090899999998214,"midi":41,"time":160.36347600000002,"velocity":0.1968503937007874},{"duration":0.09090899999998214,"midi":53,"time":160.545294,"velocity":0.1968503937007874},{"duration":0.09090899999998214,"midi":41,"time":160.545294,"velocity":0.1968503937007874},{"duration":0.09090899999998214,"midi":41,"time":160.545294,"velocity":0.1968503937007874},{"duration":0.09090899999998214,"midi":53,"time":160.545294,"velocity":0.1968503937007874},{"duration":0.09090899999998214,"midi":41,"time":160.545294,"velocity":0.1968503937007874},{"duration":0.09090899999998214,"midi":53,"time":160.545294,"velocity":0.1968503937007874},{"duration":0.09090900000001056,"midi":41,"time":160.727112,"velocity":0.1968503937007874},{"duration":0.09090900000001056,"midi":41,"time":160.727112,"velocity":0.1968503937007874},{"duration":0.09090900000001056,"midi":41,"time":160.727112,"velocity":0.1968503937007874},{"duration":0.09090900000001056,"midi":53,"time":160.90893,"velocity":0.1968503937007874},{"duration":0.09090900000001056,"midi":53,"time":160.90893,"velocity":0.1968503937007874},{"duration":0.09090900000001056,"midi":41,"time":160.90893,"velocity":0.1968503937007874},{"duration":0.09090900000001056,"midi":53,"time":160.90893,"velocity":0.1968503937007874},{"duration":0.09090900000001056,"midi":41,"time":160.90893,"velocity":0.1968503937007874},{"duration":0.09090900000001056,"midi":41,"time":160.90893,"velocity":0.1968503937007874},{"duration":0.09090899999998214,"midi":41,"time":161.09074800000002,"velocity":0.1968503937007874},{"duration":0.09090899999998214,"midi":41,"time":161.09074800000002,"velocity":0.1968503937007874},{"duration":0.09090899999998214,"midi":41,"time":161.09074800000002,"velocity":0.1968503937007874},{"duration":0.09090899999998214,"midi":53,"time":161.272566,"velocity":0.1968503937007874},{"duration":0.09090899999998214,"midi":53,"time":161.272566,"velocity":0.1968503937007874},{"duration":0.09090899999998214,"midi":41,"time":161.272566,"velocity":0.1968503937007874},{"duration":0.09090899999998214,"midi":41,"time":161.272566,"velocity":0.1968503937007874},{"duration":0.09090899999998214,"midi":53,"time":161.272566,"velocity":0.1968503937007874},{"duration":0.09090899999998214,"midi":41,"time":161.272566,"velocity":0.1968503937007874},{"duration":0.09090900000001056,"midi":43,"time":161.454384,"velocity":0.1968503937007874},{"duration":0.09090900000001056,"midi":43,"time":161.454384,"velocity":0.1968503937007874},{"duration":0.09090900000001056,"midi":43,"time":161.454384,"velocity":0.1968503937007874},{"duration":0.09090900000001056,"midi":55,"time":161.636202,"velocity":0.1968503937007874},{"duration":0.09090900000001056,"midi":55,"time":161.636202,"velocity":0.1968503937007874},{"duration":0.09090900000001056,"midi":43,"time":161.636202,"velocity":0.1968503937007874},{"duration":0.09090900000001056,"midi":43,"time":161.636202,"velocity":0.1968503937007874},{"duration":0.09090900000001056,"midi":43,"time":161.636202,"velocity":0.1968503937007874},{"duration":0.09090900000001056,"midi":55,"time":161.636202,"velocity":0.1968503937007874},{"duration":0.09090899999998214,"midi":43,"time":161.81802000000002,"velocity":0.1968503937007874},{"duration":0.09090899999998214,"midi":43,"time":161.81802000000002,"velocity":0.1968503937007874},{"duration":0.09090899999998214,"midi":43,"time":161.81802000000002,"velocity":0.1968503937007874},{"duration":0.09090899999998214,"midi":43,"time":161.999838,"velocity":0.1968503937007874},{"duration":0.09090899999998214,"midi":43,"time":161.999838,"velocity":0.1968503937007874},{"duration":0.09090899999998214,"midi":43,"time":161.999838,"velocity":0.1968503937007874},{"duration":0.09090899999998214,"midi":55,"time":161.999838,"velocity":0.1968503937007874},{"duration":0.09090899999998214,"midi":55,"time":161.999838,"velocity":0.1968503937007874},{"duration":0.09090899999998214,"midi":55,"time":161.999838,"velocity":0.1968503937007874},{"duration":0.09090900000001056,"midi":43,"time":162.181656,"velocity":0.1968503937007874},{"duration":0.09090900000001056,"midi":43,"time":162.181656,"velocity":0.1968503937007874},{"duration":0.09090900000001056,"midi":43,"time":162.181656,"velocity":0.1968503937007874},{"duration":0.09090900000001056,"midi":43,"time":162.363474,"velocity":0.1968503937007874},{"duration":0.09090900000001056,"midi":55,"time":162.363474,"velocity":0.1968503937007874},{"duration":0.09090900000001056,"midi":55,"time":162.363474,"velocity":0.1968503937007874},{"duration":0.09090900000001056,"midi":43,"time":162.363474,"velocity":0.1968503937007874},{"duration":0.09090900000001056,"midi":43,"time":162.363474,"velocity":0.1968503937007874},{"duration":0.09090900000001056,"midi":55,"time":162.363474,"velocity":0.1968503937007874},{"duration":0.09090900000001056,"midi":43,"time":162.908928,"velocity":0.1968503937007874},{"duration":0.09090900000001056,"midi":43,"time":162.908928,"velocity":0.1968503937007874},{"duration":0.09090900000001056,"midi":31,"time":162.908928,"velocity":0.1968503937007874},{"duration":0.09090900000001056,"midi":43,"time":162.908928,"velocity":0.1968503937007874},{"duration":0.09090900000001056,"midi":31,"time":162.908928,"velocity":0.1968503937007874},{"duration":0.09090900000001056,"midi":31,"time":162.908928,"velocity":0.1968503937007874},{"duration":0.09090900000001056,"midi":55,"time":163.090746,"velocity":0.1968503937007874},{"duration":0.09090900000001056,"midi":43,"time":163.090746,"velocity":0.1968503937007874},{"duration":0.09090900000001056,"midi":55,"time":163.090746,"velocity":0.1968503937007874},{"duration":0.09090900000001056,"midi":43,"time":163.090746,"velocity":0.1968503937007874},{"duration":0.09090900000001056,"midi":55,"time":163.090746,"velocity":0.1968503937007874},{"duration":0.09090900000001056,"midi":43,"time":163.090746,"velocity":0.1968503937007874},{"duration":0.09090899999998214,"midi":31,"time":163.27256400000002,"velocity":0.1968503937007874},{"duration":0.09090899999998214,"midi":31,"time":163.27256400000002,"velocity":0.1968503937007874},{"duration":0.09090899999998214,"midi":31,"time":163.27256400000002,"velocity":0.1968503937007874},{"duration":0.09090899999998214,"midi":43,"time":163.27256400000002,"velocity":0.1968503937007874},{"duration":0.09090899999998214,"midi":43,"time":163.27256400000002,"velocity":0.1968503937007874},{"duration":0.09090899999998214,"midi":43,"time":163.27256400000002,"velocity":0.1968503937007874},{"duration":0.09090900000001056,"midi":55,"time":163.454382,"velocity":0.1968503937007874},{"duration":0.09090900000001056,"midi":43,"time":163.454382,"velocity":0.1968503937007874},{"duration":0.09090900000001056,"midi":55,"time":163.454382,"velocity":0.1968503937007874},{"duration":0.09090900000001056,"midi":43,"time":163.454382,"velocity":0.1968503937007874},{"duration":0.09090900000001056,"midi":55,"time":163.454382,"velocity":0.1968503937007874},{"duration":0.09090900000001056,"midi":43,"time":163.454382,"velocity":0.1968503937007874},{"duration":0.09090900000001056,"midi":31,"time":163.6362,"velocity":0.1968503937007874},{"duration":0.09090900000001056,"midi":43,"time":163.6362,"velocity":0.1968503937007874},{"duration":0.09090900000001056,"midi":31,"time":163.6362,"velocity":0.1968503937007874},{"duration":0.09090900000001056,"midi":43,"time":163.6362,"velocity":0.1968503937007874},{"duration":0.09090900000001056,"midi":31,"time":163.6362,"velocity":0.1968503937007874},{"duration":0.09090900000001056,"midi":43,"time":163.6362,"velocity":0.1968503937007874},{"duration":0.09090900000001056,"midi":43,"time":163.818018,"velocity":0.1968503937007874},{"duration":0.09090900000001056,"midi":55,"time":163.818018,"velocity":0.1968503937007874},{"duration":0.09090900000001056,"midi":55,"time":163.818018,"velocity":0.1968503937007874},{"duration":0.09090900000001056,"midi":43,"time":163.818018,"velocity":0.1968503937007874},{"duration":0.09090900000001056,"midi":55,"time":163.818018,"velocity":0.1968503937007874},{"duration":0.09090900000001056,"midi":43,"time":163.818018,"velocity":0.1968503937007874},{"duration":0.09090899999998214,"midi":43,"time":163.99983600000002,"velocity":0.1968503937007874},{"duration":0.09090899999998214,"midi":43,"time":163.99983600000002,"velocity":0.1968503937007874},{"duration":0.09090899999998214,"midi":31,"time":163.99983600000002,"velocity":0.1968503937007874},{"duration":0.09090899999998214,"midi":31,"time":163.99983600000002,"velocity":0.1968503937007874},{"duration":0.09090899999998214,"midi":31,"time":163.99983600000002,"velocity":0.1968503937007874},{"duration":0.09090899999998214,"midi":43,"time":163.99983600000002,"velocity":0.1968503937007874},{"duration":0.09090900000001056,"midi":55,"time":164.181654,"velocity":0.1968503937007874},{"duration":0.09090900000001056,"midi":43,"time":164.181654,"velocity":0.1968503937007874},{"duration":0.09090900000001056,"midi":55,"time":164.181654,"velocity":0.1968503937007874},{"duration":0.09090900000001056,"midi":55,"time":164.181654,"velocity":0.1968503937007874},{"duration":0.09090900000001056,"midi":43,"time":164.181654,"velocity":0.1968503937007874},{"duration":0.09090900000001056,"midi":43,"time":164.181654,"velocity":0.1968503937007874},{"duration":0.09090900000001056,"midi":28,"time":164.363472,"velocity":0.1968503937007874},{"duration":0.09090900000001056,"midi":40,"time":164.363472,"velocity":0.1968503937007874},{"duration":0.09090900000001056,"midi":40,"time":164.363472,"velocity":0.1968503937007874},{"duration":0.09090900000001056,"midi":40,"time":164.363472,"velocity":0.1968503937007874},{"duration":0.09090900000001056,"midi":28,"time":164.363472,"velocity":0.1968503937007874},{"duration":0.09090900000001056,"midi":28,"time":164.363472,"velocity":0.1968503937007874},{"duration":0.09090900000001056,"midi":40,"time":164.54529,"velocity":0.1968503937007874},{"duration":0.09090900000001056,"midi":52,"time":164.54529,"velocity":0.1968503937007874},{"duration":0.09090900000001056,"midi":52,"time":164.54529,"velocity":0.1968503937007874},{"duration":0.09090900000001056,"midi":40,"time":164.54529,"velocity":0.1968503937007874},{"duration":0.09090900000001056,"midi":40,"time":164.54529,"velocity":0.1968503937007874},{"duration":0.09090900000001056,"midi":52,"time":164.54529,"velocity":0.1968503937007874},{"duration":0.09090899999998214,"midi":28,"time":164.72710800000002,"velocity":0.1968503937007874},{"duration":0.09090899999998214,"midi":28,"time":164.72710800000002,"velocity":0.1968503937007874},{"duration":0.09090899999998214,"midi":40,"time":164.72710800000002,"velocity":0.1968503937007874},{"duration":0.09090899999998214,"midi":40,"time":164.72710800000002,"velocity":0.1968503937007874},{"duration":0.09090899999998214,"midi":28,"time":164.72710800000002,"velocity":0.1968503937007874},{"duration":0.09090899999998214,"midi":40,"time":164.72710800000002,"velocity":0.1968503937007874},{"duration":0.09090900000001056,"midi":52,"time":164.908926,"velocity":0.1968503937007874},{"duration":0.09090900000001056,"midi":52,"time":164.908926,"velocity":0.1968503937007874},{"duration":0.09090900000001056,"midi":52,"time":164.908926,"velocity":0.1968503937007874},{"duration":0.09090900000001056,"midi":40,"time":164.908926,"velocity":0.1968503937007874},{"duration":0.09090900000001056,"midi":40,"time":164.908926,"velocity":0.1968503937007874},{"duration":0.09090900000001056,"midi":40,"time":164.908926,"velocity":0.1968503937007874},{"duration":0.09090900000001056,"midi":40,"time":165.090744,"velocity":0.1968503937007874},{"duration":0.09090900000001056,"midi":28,"time":165.090744,"velocity":0.1968503937007874},{"duration":0.09090900000001056,"midi":28,"time":165.090744,"velocity":0.1968503937007874},{"duration":0.09090900000001056,"midi":40,"time":165.090744,"velocity":0.1968503937007874},{"duration":0.09090900000001056,"midi":40,"time":165.090744,"velocity":0.1968503937007874},{"duration":0.09090900000001056,"midi":28,"time":165.090744,"velocity":0.1968503937007874},{"duration":0.09090900000001056,"midi":52,"time":165.272562,"velocity":0.1968503937007874},{"duration":0.09090900000001056,"midi":52,"time":165.272562,"velocity":0.1968503937007874},{"duration":0.09090900000001056,"midi":40,"time":165.272562,"velocity":0.1968503937007874},{"duration":0.09090900000001056,"midi":40,"time":165.272562,"velocity":0.1968503937007874},{"duration":0.09090900000001056,"midi":40,"time":165.272562,"velocity":0.1968503937007874},{"duration":0.09090900000001056,"midi":52,"time":165.272562,"velocity":0.1968503937007874},{"duration":0.09090899999998214,"midi":28,"time":165.45438000000001,"velocity":0.1968503937007874},{"duration":0.09090899999998214,"midi":40,"time":165.45438000000001,"velocity":0.1968503937007874},{"duration":0.09090899999998214,"midi":28,"time":165.45438000000001,"velocity":0.1968503937007874},{"duration":0.09090899999998214,"midi":40,"time":165.45438000000001,"velocity":0.1968503937007874},{"duration":0.09090899999998214,"midi":28,"time":165.45438000000001,"velocity":0.1968503937007874},{"duration":0.09090899999998214,"midi":40,"time":165.45438000000001,"velocity":0.1968503937007874},{"duration":0.09090900000001056,"midi":40,"time":165.636198,"velocity":0.1968503937007874},{"duration":0.09090900000001056,"midi":40,"time":165.636198,"velocity":0.1968503937007874},{"duration":0.09090900000001056,"midi":40,"time":165.636198,"velocity":0.1968503937007874},{"duration":0.09090900000001056,"midi":52,"time":165.636198,"velocity":0.1968503937007874},{"duration":0.09090900000001056,"midi":52,"time":165.636198,"velocity":0.1968503937007874},{"duration":0.09090900000001056,"midi":52,"time":165.636198,"velocity":0.1968503937007874},{"duration":0.09090900000001056,"midi":29,"time":165.818016,"velocity":0.1968503937007874},{"duration":0.09090900000001056,"midi":41,"time":165.818016,"velocity":0.1968503937007874},{"duration":0.09090900000001056,"midi":41,"time":165.818016,"velocity":0.1968503937007874},{"duration":0.09090900000001056,"midi":41,"time":165.818016,"velocity":0.1968503937007874},{"duration":0.09090900000001056,"midi":29,"time":165.818016,"velocity":0.1968503937007874},{"duration":0.09090900000001056,"midi":29,"time":165.818016,"velocity":0.1968503937007874},{"duration":0.09090900000001056,"midi":53,"time":165.999834,"velocity":0.1968503937007874},{"duration":0.09090900000001056,"midi":41,"time":165.999834,"velocity":0.1968503937007874},{"duration":0.09090900000001056,"midi":41,"time":165.999834,"velocity":0.1968503937007874},{"duration":0.09090900000001056,"midi":53,"time":165.999834,"velocity":0.1968503937007874},{"duration":0.09090900000001056,"midi":41,"time":165.999834,"velocity":0.1968503937007874},{"duration":0.09090900000001056,"midi":53,"time":165.999834,"velocity":0.1968503937007874},{"duration":0.09090899999998214,"midi":41,"time":166.181652,"velocity":0.1968503937007874},{"duration":0.09090899999998214,"midi":29,"time":166.181652,"velocity":0.1968503937007874},{"duration":0.09090899999998214,"midi":29,"time":166.181652,"velocity":0.1968503937007874},{"duration":0.09090899999998214,"midi":29,"time":166.181652,"velocity":0.1968503937007874},{"duration":0.09090899999998214,"midi":41,"time":166.181652,"velocity":0.1968503937007874},{"duration":0.09090899999998214,"midi":41,"time":166.181652,"velocity":0.1968503937007874},{"duration":0.09090900000001056,"midi":53,"time":166.36347,"velocity":0.1968503937007874},{"duration":0.09090900000001056,"midi":53,"time":166.36347,"velocity":0.1968503937007874},{"duration":0.09090900000001056,"midi":41,"time":166.36347,"velocity":0.1968503937007874},{"duration":0.09090900000001056,"midi":53,"time":166.36347,"velocity":0.1968503937007874},{"duration":0.09090900000001056,"midi":41,"time":166.36347,"velocity":0.1968503937007874},{"duration":0.09090900000001056,"midi":41,"time":166.36347,"velocity":0.1968503937007874},{"duration":0.09090900000001056,"midi":41,"time":166.545288,"velocity":0.1968503937007874},{"duration":0.09090900000001056,"midi":29,"time":166.545288,"velocity":0.1968503937007874},{"duration":0.09090900000001056,"midi":41,"time":166.545288,"velocity":0.1968503937007874},{"duration":0.09090900000001056,"midi":29,"time":166.545288,"velocity":0.1968503937007874},{"duration":0.09090900000001056,"midi":41,"time":166.545288,"velocity":0.1968503937007874},{"duration":0.09090900000001056,"midi":29,"time":166.545288,"velocity":0.1968503937007874},{"duration":0.09090899999998214,"midi":53,"time":166.72710600000002,"velocity":0.1968503937007874},{"duration":0.09090899999998214,"midi":41,"time":166.72710600000002,"velocity":0.1968503937007874},{"duration":0.09090899999998214,"midi":41,"time":166.72710600000002,"velocity":0.1968503937007874},{"duration":0.09090899999998214,"midi":53,"time":166.72710600000002,"velocity":0.1968503937007874},{"duration":0.09090899999998214,"midi":53,"time":166.72710600000002,"velocity":0.1968503937007874},{"duration":0.09090899999998214,"midi":41,"time":166.72710600000002,"velocity":0.1968503937007874},{"duration":0.09090899999998214,"midi":41,"time":166.908924,"velocity":0.1968503937007874},{"duration":0.09090899999998214,"midi":41,"time":166.908924,"velocity":0.1968503937007874},{"duration":0.09090899999998214,"midi":29,"time":166.908924,"velocity":0.1968503937007874},{"duration":0.09090899999998214,"midi":41,"time":166.908924,"velocity":0.1968503937007874},{"duration":0.09090899999998214,"midi":29,"time":166.908924,"velocity":0.1968503937007874},{"duration":0.09090899999998214,"midi":29,"time":166.908924,"velocity":0.1968503937007874},{"duration":0.09090900000001056,"midi":41,"time":167.090742,"velocity":0.1968503937007874},{"duration":0.09090900000001056,"midi":41,"time":167.090742,"velocity":0.1968503937007874},{"duration":0.09090900000001056,"midi":53,"time":167.090742,"velocity":0.1968503937007874},{"duration":0.09090900000001056,"midi":53,"time":167.090742,"velocity":0.1968503937007874},{"duration":0.09090900000001056,"midi":53,"time":167.090742,"velocity":0.1968503937007874},{"duration":0.09090900000001056,"midi":41,"time":167.090742,"velocity":0.1968503937007874},{"duration":0.09090900000001056,"midi":43,"time":167.27256,"velocity":0.1968503937007874},{"duration":0.09090900000001056,"midi":31,"time":167.27256,"velocity":0.1968503937007874},{"duration":0.09090900000001056,"midi":31,"time":167.27256,"velocity":0.1968503937007874},{"duration":0.09090900000001056,"midi":43,"time":167.27256,"velocity":0.1968503937007874},{"duration":0.09090900000001056,"midi":43,"time":167.27256,"velocity":0.1968503937007874},{"duration":0.09090900000001056,"midi":31,"time":167.27256,"velocity":0.1968503937007874},{"duration":0.09090899999998214,"midi":55,"time":167.45437800000002,"velocity":0.1968503937007874},{"duration":0.09090899999998214,"midi":43,"time":167.45437800000002,"velocity":0.1968503937007874},{"duration":0.09090899999998214,"midi":55,"time":167.45437800000002,"velocity":0.1968503937007874},{"duration":0.09090899999998214,"midi":43,"time":167.45437800000002,"velocity":0.1968503937007874},{"duration":0.09090899999998214,"midi":43,"time":167.45437800000002,"velocity":0.1968503937007874},{"duration":0.09090899999998214,"midi":55,"time":167.45437800000002,"velocity":0.1968503937007874},{"duration":0.09090899999998214,"midi":31,"time":167.636196,"velocity":0.1968503937007874},{"duration":0.09090899999998214,"midi":31,"time":167.636196,"velocity":0.1968503937007874},{"duration":0.09090899999998214,"midi":43,"time":167.636196,"velocity":0.1968503937007874},{"duration":0.09090899999998214,"midi":43,"time":167.636196,"velocity":0.1968503937007874},{"duration":0.09090899999998214,"midi":43,"time":167.636196,"velocity":0.1968503937007874},{"duration":0.09090899999998214,"midi":31,"time":167.636196,"velocity":0.1968503937007874},{"duration":0.09090900000001056,"midi":55,"time":167.818014,"velocity":0.1968503937007874},{"duration":0.09090900000001056,"midi":55,"time":167.818014,"velocity":0.1968503937007874},{"duration":0.09090900000001056,"midi":55,"time":167.818014,"velocity":0.1968503937007874},{"duration":0.09090900000001056,"midi":43,"time":167.818014,"velocity":0.1968503937007874},{"duration":0.09090900000001056,"midi":43,"time":167.818014,"velocity":0.1968503937007874},{"duration":0.09090900000001056,"midi":43,"time":167.818014,"velocity":0.1968503937007874},{"duration":0.09090900000001056,"midi":31,"time":167.999832,"velocity":0.1968503937007874},{"duration":0.09090900000001056,"midi":43,"time":167.999832,"velocity":0.1968503937007874},{"duration":0.09090900000001056,"midi":43,"time":167.999832,"velocity":0.1968503937007874},{"duration":0.09090900000001056,"midi":43,"time":167.999832,"velocity":0.1968503937007874},{"duration":0.09090900000001056,"midi":31,"time":167.999832,"velocity":0.1968503937007874},{"duration":0.09090900000001056,"midi":31,"time":167.999832,"velocity":0.1968503937007874},{"duration":0.09090899999998214,"midi":55,"time":168.18165000000002,"velocity":0.1968503937007874},{"duration":0.09090899999998214,"midi":43,"time":168.18165000000002,"velocity":0.1968503937007874},{"duration":0.09090899999998214,"midi":43,"time":168.18165000000002,"velocity":0.1968503937007874},{"duration":0.09090899999998214,"midi":43,"time":168.18165000000002,"velocity":0.1968503937007874},{"duration":0.09090899999998214,"midi":55,"time":168.18165000000002,"velocity":0.1968503937007874},{"duration":0.09090899999998214,"midi":55,"time":168.18165000000002,"velocity":0.1968503937007874},{"duration":0.09090899999998214,"midi":31,"time":168.363468,"velocity":0.1968503937007874},{"duration":0.09090899999998214,"midi":43,"time":168.363468,"velocity":0.1968503937007874},{"duration":0.09090899999998214,"midi":31,"time":168.363468,"velocity":0.1968503937007874},{"duration":0.09090899999998214,"midi":43,"time":168.363468,"velocity":0.1968503937007874},{"duration":0.09090899999998214,"midi":31,"time":168.363468,"velocity":0.1968503937007874},{"duration":0.09090899999998214,"midi":43,"time":168.363468,"velocity":0.1968503937007874},{"duration":0.09090900000001056,"midi":55,"time":168.545286,"velocity":0.1968503937007874},{"duration":0.09090900000001056,"midi":55,"time":168.545286,"velocity":0.1968503937007874},{"duration":0.09090900000001056,"midi":43,"time":168.545286,"velocity":0.1968503937007874},{"duration":0.09090900000001056,"midi":55,"time":168.545286,"velocity":0.1968503937007874},{"duration":0.09090900000001056,"midi":43,"time":168.545286,"velocity":0.1968503937007874},{"duration":0.09090900000001056,"midi":43,"time":168.545286,"velocity":0.1968503937007874},{"duration":0.09090900000001056,"midi":31,"time":168.727104,"velocity":0.1968503937007874},{"duration":0.09090900000001056,"midi":31,"time":168.727104,"velocity":0.1968503937007874},{"duration":0.09090900000001056,"midi":43,"time":168.727104,"velocity":0.1968503937007874},{"duration":0.09090900000001056,"midi":43,"time":168.727104,"velocity":0.1968503937007874},{"duration":0.09090900000001056,"midi":43,"time":168.727104,"velocity":0.1968503937007874},{"duration":0.09090900000001056,"midi":31,"time":168.727104,"velocity":0.1968503937007874},{"duration":0.09090899999998214,"midi":55,"time":168.90892200000002,"velocity":0.1968503937007874},{"duration":0.09090899999998214,"midi":55,"time":168.90892200000002,"velocity":0.1968503937007874},{"duration":0.09090899999998214,"midi":43,"time":168.90892200000002,"velocity":0.1968503937007874},{"duration":0.09090899999998214,"midi":55,"time":168.90892200000002,"velocity":0.1968503937007874},{"duration":0.09090899999998214,"midi":43,"time":168.90892200000002,"velocity":0.1968503937007874},{"duration":0.09090899999998214,"midi":43,"time":168.90892200000002,"velocity":0.1968503937007874},{"duration":0.09090899999998214,"midi":31,"time":169.09074,"velocity":0.1968503937007874},{"duration":0.09090899999998214,"midi":43,"time":169.09074,"velocity":0.1968503937007874},{"duration":0.09090899999998214,"midi":43,"time":169.09074,"velocity":0.1968503937007874},{"duration":0.09090899999998214,"midi":31,"time":169.09074,"velocity":0.1968503937007874},{"duration":0.09090899999998214,"midi":31,"time":169.09074,"velocity":0.1968503937007874},{"duration":0.09090899999998214,"midi":43,"time":169.09074,"velocity":0.1968503937007874},{"duration":0.09090900000001056,"midi":43,"time":169.272558,"velocity":0.1968503937007874},{"duration":0.09090900000001056,"midi":55,"time":169.272558,"velocity":0.1968503937007874},{"duration":0.09090900000001056,"midi":55,"time":169.272558,"velocity":0.1968503937007874},{"duration":0.09090900000001056,"midi":55,"time":169.272558,"velocity":0.1968503937007874},{"duration":0.09090900000001056,"midi":43,"time":169.272558,"velocity":0.1968503937007874},{"duration":0.09090900000001056,"midi":43,"time":169.272558,"velocity":0.1968503937007874},{"duration":0.09090900000001056,"midi":43,"time":169.454376,"velocity":0.1968503937007874},{"duration":0.09090900000001056,"midi":31,"time":169.454376,"velocity":0.1968503937007874},{"duration":0.09090900000001056,"midi":43,"time":169.454376,"velocity":0.1968503937007874},{"duration":0.09090900000001056,"midi":31,"time":169.454376,"velocity":0.1968503937007874},{"duration":0.09090900000001056,"midi":43,"time":169.454376,"velocity":0.1968503937007874},{"duration":0.09090900000001056,"midi":31,"time":169.454376,"velocity":0.1968503937007874},{"duration":0.09090899999998214,"midi":55,"time":169.63619400000002,"velocity":0.1968503937007874},{"duration":0.09090899999998214,"midi":55,"time":169.63619400000002,"velocity":0.1968503937007874},{"duration":0.09090899999998214,"midi":43,"time":169.63619400000002,"velocity":0.1968503937007874},{"duration":0.09090899999998214,"midi":43,"time":169.63619400000002,"velocity":0.1968503937007874},{"duration":0.09090899999998214,"midi":43,"time":169.63619400000002,"velocity":0.1968503937007874},{"duration":0.09090899999998214,"midi":55,"time":169.63619400000002,"velocity":0.1968503937007874},{"duration":0.09090900000001056,"midi":31,"time":169.818012,"velocity":0.1968503937007874},{"duration":0.09090900000001056,"midi":31,"time":169.818012,"velocity":0.1968503937007874},{"duration":0.09090900000001056,"midi":43,"time":169.818012,"velocity":0.1968503937007874},{"duration":0.09090900000001056,"midi":43,"time":169.818012,"velocity":0.1968503937007874},{"duration":0.09090900000001056,"midi":31,"time":169.818012,"velocity":0.1968503937007874},{"duration":0.09090900000001056,"midi":43,"time":169.818012,"velocity":0.1968503937007874},{"duration":0.09090900000001056,"midi":55,"time":169.99983,"velocity":0.1968503937007874},{"duration":0.09090900000001056,"midi":55,"time":169.99983,"velocity":0.1968503937007874},{"duration":0.09090900000001056,"midi":43,"time":169.99983,"velocity":0.1968503937007874},{"duration":0.09090900000001056,"midi":55,"time":169.99983,"velocity":0.1968503937007874},{"duration":0.09090900000001056,"midi":43,"time":169.99983,"velocity":0.1968503937007874},{"duration":0.09090900000001056,"midi":43,"time":169.99983,"velocity":0.1968503937007874},{"duration":0.09090900000001056,"midi":40,"time":170.181648,"velocity":0.1968503937007874},{"duration":0.09090900000001056,"midi":28,"time":170.181648,"velocity":0.1968503937007874},{"duration":0.09090900000001056,"midi":40,"time":170.181648,"velocity":0.1968503937007874},{"duration":0.09090900000001056,"midi":28,"time":170.181648,"velocity":0.1968503937007874},{"duration":0.09090900000001056,"midi":40,"time":170.181648,"velocity":0.1968503937007874},{"duration":0.09090900000001056,"midi":28,"time":170.181648,"velocity":0.1968503937007874},{"duration":0.09090900000001056,"midi":40,"time":170.181648,"velocity":0.1968503937007874},{"duration":0.09090900000001056,"midi":28,"time":170.181648,"velocity":0.1968503937007874},{"duration":0.09090900000001056,"midi":28,"time":170.181648,"velocity":0.1968503937007874},{"duration":0.09090900000001056,"midi":40,"time":170.181648,"velocity":0.1968503937007874},{"duration":0.09090900000001056,"midi":40,"time":170.181648,"velocity":0.1968503937007874},{"duration":0.09090900000001056,"midi":28,"time":170.181648,"velocity":0.1968503937007874},{"duration":0.09090899999998214,"midi":40,"time":170.36346600000002,"velocity":0.1968503937007874},{"duration":0.09090899999998214,"midi":52,"time":170.36346600000002,"velocity":0.1968503937007874},{"duration":0.09090899999998214,"midi":52,"time":170.36346600000002,"velocity":0.1968503937007874},{"duration":0.09090899999998214,"midi":52,"time":170.36346600000002,"velocity":0.1968503937007874},{"duration":0.09090899999998214,"midi":40,"time":170.36346600000002,"velocity":0.1968503937007874},{"duration":0.09090899999998214,"midi":40,"time":170.36346600000002,"velocity":0.1968503937007874},{"duration":0.09090899999998214,"midi":52,"time":170.36346600000002,"velocity":0.1968503937007874},{"duration":0.09090899999998214,"midi":52,"time":170.36346600000002,"velocity":0.1968503937007874},{"duration":0.09090899999998214,"midi":40,"time":170.36346600000002,"velocity":0.1968503937007874},{"duration":0.09090899999998214,"midi":40,"time":170.36346600000002,"velocity":0.1968503937007874},{"duration":0.09090899999998214,"midi":52,"time":170.36346600000002,"velocity":0.1968503937007874},{"duration":0.09090899999998214,"midi":40,"time":170.36346600000002,"velocity":0.1968503937007874},{"duration":0.09090900000001056,"midi":28,"time":170.545284,"velocity":0.1968503937007874},{"duration":0.09090900000001056,"midi":40,"time":170.545284,"velocity":0.1968503937007874},{"duration":0.09090900000001056,"midi":28,"time":170.545284,"velocity":0.1968503937007874},{"duration":0.09090900000001056,"midi":40,"time":170.545284,"velocity":0.1968503937007874},{"duration":0.09090900000001056,"midi":28,"time":170.545284,"velocity":0.1968503937007874},{"duration":0.09090900000001056,"midi":40,"time":170.545284,"velocity":0.1968503937007874},{"duration":0.09090900000001056,"midi":28,"time":170.545284,"velocity":0.1968503937007874},{"duration":0.09090900000001056,"midi":40,"time":170.545284,"velocity":0.1968503937007874},{"duration":0.09090900000001056,"midi":40,"time":170.545284,"velocity":0.1968503937007874},{"duration":0.09090900000001056,"midi":40,"time":170.545284,"velocity":0.1968503937007874},{"duration":0.09090900000001056,"midi":28,"time":170.545284,"velocity":0.1968503937007874},{"duration":0.09090900000001056,"midi":28,"time":170.545284,"velocity":0.1968503937007874},{"duration":0.09090900000001056,"midi":40,"time":170.727102,"velocity":0.1968503937007874},{"duration":0.09090900000001056,"midi":52,"time":170.727102,"velocity":0.1968503937007874},{"duration":0.09090900000001056,"midi":52,"time":170.727102,"velocity":0.1968503937007874},{"duration":0.09090900000001056,"midi":40,"time":170.727102,"velocity":0.1968503937007874},{"duration":0.09090900000001056,"midi":40,"time":170.727102,"velocity":0.1968503937007874},{"duration":0.09090900000001056,"midi":40,"time":170.727102,"velocity":0.1968503937007874},{"duration":0.09090900000001056,"midi":52,"time":170.727102,"velocity":0.1968503937007874},{"duration":0.09090900000001056,"midi":52,"time":170.727102,"velocity":0.1968503937007874},{"duration":0.09090900000001056,"midi":52,"time":170.727102,"velocity":0.1968503937007874},{"duration":0.09090900000001056,"midi":52,"time":170.727102,"velocity":0.1968503937007874},{"duration":0.09090900000001056,"midi":40,"time":170.727102,"velocity":0.1968503937007874},{"duration":0.09090900000001056,"midi":40,"time":170.727102,"velocity":0.1968503937007874},{"duration":0.09090900000001056,"midi":28,"time":170.90892,"velocity":0.1968503937007874},{"duration":0.09090900000001056,"midi":28,"time":170.90892,"velocity":0.1968503937007874},{"duration":0.09090900000001056,"midi":40,"time":170.90892,"velocity":0.1968503937007874},{"duration":0.09090900000001056,"midi":28,"time":170.90892,"velocity":0.1968503937007874},{"duration":0.09090900000001056,"midi":40,"time":170.90892,"velocity":0.1968503937007874},{"duration":0.09090900000001056,"midi":28,"time":170.90892,"velocity":0.1968503937007874},{"duration":0.09090900000001056,"midi":40,"time":170.90892,"velocity":0.1968503937007874},{"duration":0.09090900000001056,"midi":40,"time":170.90892,"velocity":0.1968503937007874},{"duration":0.09090900000001056,"midi":28,"time":170.90892,"velocity":0.1968503937007874},{"duration":0.09090900000001056,"midi":40,"time":170.90892,"velocity":0.1968503937007874},{"duration":0.09090900000001056,"midi":28,"time":170.90892,"velocity":0.1968503937007874},{"duration":0.09090900000001056,"midi":40,"time":170.90892,"velocity":0.1968503937007874},{"duration":0.09090899999998214,"midi":40,"time":171.09073800000002,"velocity":0.1968503937007874},{"duration":0.09090899999998214,"midi":52,"time":171.09073800000002,"velocity":0.1968503937007874},{"duration":0.09090899999998214,"midi":52,"time":171.09073800000002,"velocity":0.1968503937007874},{"duration":0.09090899999998214,"midi":52,"time":171.09073800000002,"velocity":0.1968503937007874},{"duration":0.09090899999998214,"midi":40,"time":171.09073800000002,"velocity":0.1968503937007874},{"duration":0.09090899999998214,"midi":40,"time":171.09073800000002,"velocity":0.1968503937007874},{"duration":0.09090899999998214,"midi":52,"time":171.09073800000002,"velocity":0.1968503937007874},{"duration":0.09090899999998214,"midi":40,"time":171.09073800000002,"velocity":0.1968503937007874},{"duration":0.09090899999998214,"midi":40,"time":171.09073800000002,"velocity":0.1968503937007874},{"duration":0.09090899999998214,"midi":40,"time":171.09073800000002,"velocity":0.1968503937007874},{"duration":0.09090899999998214,"midi":52,"time":171.09073800000002,"velocity":0.1968503937007874},{"duration":0.09090899999998214,"midi":52,"time":171.09073800000002,"velocity":0.1968503937007874},{"duration":0.09090900000001056,"midi":28,"time":171.272556,"velocity":0.1968503937007874},{"duration":0.09090900000001056,"midi":28,"time":171.272556,"velocity":0.1968503937007874},{"duration":0.09090900000001056,"midi":28,"time":171.272556,"velocity":0.1968503937007874},{"duration":0.09090900000001056,"midi":40,"time":171.272556,"velocity":0.1968503937007874},{"duration":0.09090900000001056,"midi":40,"time":171.272556,"velocity":0.1968503937007874},{"duration":0.09090900000001056,"midi":28,"time":171.272556,"velocity":0.1968503937007874},{"duration":0.09090900000001056,"midi":40,"time":171.272556,"velocity":0.1968503937007874},{"duration":0.09090900000001056,"midi":28,"time":171.272556,"velocity":0.1968503937007874},{"duration":0.09090900000001056,"midi":28,"time":171.272556,"velocity":0.1968503937007874},{"duration":0.09090900000001056,"midi":40,"time":171.272556,"velocity":0.1968503937007874},{"duration":0.09090900000001056,"midi":40,"time":171.272556,"velocity":0.1968503937007874},{"duration":0.09090900000001056,"midi":40,"time":171.272556,"velocity":0.1968503937007874},{"duration":0.09090900000001056,"midi":52,"time":171.454374,"velocity":0.1968503937007874},{"duration":0.09090900000001056,"midi":52,"time":171.454374,"velocity":0.1968503937007874},{"duration":0.09090900000001056,"midi":40,"time":171.454374,"velocity":0.1968503937007874},{"duration":0.09090900000001056,"midi":52,"time":171.454374,"velocity":0.1968503937007874},{"duration":0.09090900000001056,"midi":52,"time":171.454374,"velocity":0.1968503937007874},{"duration":0.09090900000001056,"midi":40,"time":171.454374,"velocity":0.1968503937007874},{"duration":0.09090900000001056,"midi":52,"time":171.454374,"velocity":0.1968503937007874},{"duration":0.09090900000001056,"midi":40,"time":171.454374,"velocity":0.1968503937007874},{"duration":0.09090900000001056,"midi":52,"time":171.454374,"velocity":0.1968503937007874},{"duration":0.09090900000001056,"midi":40,"time":171.454374,"velocity":0.1968503937007874},{"duration":0.09090900000001056,"midi":40,"time":171.454374,"velocity":0.1968503937007874},{"duration":0.09090900000001056,"midi":40,"time":171.454374,"velocity":0.1968503937007874},{"duration":0.09090900000001056,"midi":41,"time":171.636192,"velocity":0.1968503937007874},{"duration":0.09090900000001056,"midi":29,"time":171.636192,"velocity":0.1968503937007874},{"duration":0.09090900000001056,"midi":41,"time":171.636192,"velocity":0.1968503937007874},{"duration":0.09090900000001056,"midi":29,"time":171.636192,"velocity":0.1968503937007874},{"duration":0.09090900000001056,"midi":29,"time":171.636192,"velocity":0.1968503937007874},{"duration":0.09090900000001056,"midi":41,"time":171.636192,"velocity":0.1968503937007874},{"duration":0.09090900000001056,"midi":41,"time":171.636192,"velocity":0.1968503937007874},{"duration":0.09090900000001056,"midi":29,"time":171.636192,"velocity":0.1968503937007874},{"duration":0.09090900000001056,"midi":41,"time":171.636192,"velocity":0.1968503937007874},{"duration":0.09090900000001056,"midi":29,"time":171.636192,"velocity":0.1968503937007874},{"duration":0.09090900000001056,"midi":41,"time":171.636192,"velocity":0.1968503937007874},{"duration":0.09090900000001056,"midi":29,"time":171.636192,"velocity":0.1968503937007874},{"duration":0.09090899999998214,"midi":53,"time":171.81801000000002,"velocity":0.1968503937007874},{"duration":0.09090899999998214,"midi":41,"time":171.81801000000002,"velocity":0.1968503937007874},{"duration":0.09090899999998214,"midi":53,"time":171.81801000000002,"velocity":0.1968503937007874},{"duration":0.09090899999998214,"midi":41,"time":171.81801000000002,"velocity":0.1968503937007874},{"duration":0.09090899999998214,"midi":41,"time":171.81801000000002,"velocity":0.1968503937007874},{"duration":0.09090899999998214,"midi":41,"time":171.81801000000002,"velocity":0.1968503937007874},{"duration":0.09090899999998214,"midi":53,"time":171.81801000000002,"velocity":0.1968503937007874},{"duration":0.09090899999998214,"midi":53,"time":171.81801000000002,"velocity":0.1968503937007874},{"duration":0.09090899999998214,"midi":41,"time":171.81801000000002,"velocity":0.1968503937007874},{"duration":0.09090899999998214,"midi":41,"time":171.81801000000002,"velocity":0.1968503937007874},{"duration":0.09090899999998214,"midi":53,"time":171.81801000000002,"velocity":0.1968503937007874},{"duration":0.09090899999998214,"midi":53,"time":171.81801000000002,"velocity":0.1968503937007874},{"duration":0.09090900000001056,"midi":41,"time":171.999828,"velocity":0.1968503937007874},{"duration":0.09090900000001056,"midi":29,"time":171.999828,"velocity":0.1968503937007874},{"duration":0.09090900000001056,"midi":41,"time":171.999828,"velocity":0.1968503937007874},{"duration":0.09090900000001056,"midi":29,"time":171.999828,"velocity":0.1968503937007874},{"duration":0.09090900000001056,"midi":41,"time":171.999828,"velocity":0.1968503937007874},{"duration":0.09090900000001056,"midi":29,"time":171.999828,"velocity":0.1968503937007874},{"duration":0.09090900000001056,"midi":41,"time":171.999828,"velocity":0.1968503937007874},{"duration":0.09090900000001056,"midi":29,"time":171.999828,"velocity":0.1968503937007874},{"duration":0.09090900000001056,"midi":41,"time":171.999828,"velocity":0.1968503937007874},{"duration":0.09090900000001056,"midi":29,"time":171.999828,"velocity":0.1968503937007874},{"duration":0.09090900000001056,"midi":29,"time":171.999828,"velocity":0.1968503937007874},{"duration":0.09090900000001056,"midi":41,"time":171.999828,"velocity":0.1968503937007874},{"duration":0.09090900000001056,"midi":41,"time":172.181646,"velocity":0.1968503937007874},{"duration":0.09090900000001056,"midi":41,"time":172.181646,"velocity":0.1968503937007874},{"duration":0.09090900000001056,"midi":41,"time":172.181646,"velocity":0.1968503937007874},{"duration":0.09090900000001056,"midi":41,"time":172.181646,"velocity":0.1968503937007874},{"duration":0.09090900000001056,"midi":53,"time":172.181646,"velocity":0.1968503937007874},{"duration":0.09090900000001056,"midi":53,"time":172.181646,"velocity":0.1968503937007874},{"duration":0.09090900000001056,"midi":53,"time":172.181646,"velocity":0.1968503937007874},{"duration":0.09090900000001056,"midi":53,"time":172.181646,"velocity":0.1968503937007874},{"duration":0.09090900000001056,"midi":41,"time":172.181646,"velocity":0.1968503937007874},{"duration":0.09090900000001056,"midi":53,"time":172.181646,"velocity":0.1968503937007874},{"duration":0.09090900000001056,"midi":53,"time":172.181646,"velocity":0.1968503937007874},{"duration":0.09090900000001056,"midi":41,"time":172.181646,"velocity":0.1968503937007874},{"duration":0.09090900000001056,"midi":41,"time":172.363464,"velocity":0.1968503937007874},{"duration":0.09090900000001056,"midi":29,"time":172.363464,"velocity":0.1968503937007874},{"duration":0.09090900000001056,"midi":29,"time":172.363464,"velocity":0.1968503937007874},{"duration":0.09090900000001056,"midi":29,"time":172.363464,"velocity":0.1968503937007874},{"duration":0.09090900000001056,"midi":29,"time":172.363464,"velocity":0.1968503937007874},{"duration":0.09090900000001056,"midi":41,"time":172.363464,"velocity":0.1968503937007874},{"duration":0.09090900000001056,"midi":29,"time":172.363464,"velocity":0.1968503937007874},{"duration":0.09090900000001056,"midi":41,"time":172.363464,"velocity":0.1968503937007874},{"duration":0.09090900000001056,"midi":41,"time":172.363464,"velocity":0.1968503937007874},{"duration":0.09090900000001056,"midi":41,"time":172.363464,"velocity":0.1968503937007874},{"duration":0.09090900000001056,"midi":41,"time":172.363464,"velocity":0.1968503937007874},{"duration":0.09090900000001056,"midi":29,"time":172.363464,"velocity":0.1968503937007874},{"duration":0.09090899999998214,"midi":41,"time":172.54528200000001,"velocity":0.1968503937007874},{"duration":0.09090899999998214,"midi":53,"time":172.54528200000001,"velocity":0.1968503937007874},{"duration":0.09090899999998214,"midi":41,"time":172.54528200000001,"velocity":0.1968503937007874},{"duration":0.09090899999998214,"midi":53,"time":172.54528200000001,"velocity":0.1968503937007874},{"duration":0.09090899999998214,"midi":53,"time":172.54528200000001,"velocity":0.1968503937007874},{"duration":0.09090899999998214,"midi":53,"time":172.54528200000001,"velocity":0.1968503937007874},{"duration":0.09090899999998214,"midi":53,"time":172.54528200000001,"velocity":0.1968503937007874},{"duration":0.09090899999998214,"midi":41,"time":172.54528200000001,"velocity":0.1968503937007874},{"duration":0.09090899999998214,"midi":41,"time":172.54528200000001,"velocity":0.1968503937007874},{"duration":0.09090899999998214,"midi":41,"time":172.54528200000001,"velocity":0.1968503937007874},{"duration":0.09090899999998214,"midi":53,"time":172.54528200000001,"velocity":0.1968503937007874},{"duration":0.09090899999998214,"midi":41,"time":172.54528200000001,"velocity":0.1968503937007874},{"duration":0.09090900000001056,"midi":29,"time":172.7271,"velocity":0.1968503937007874},{"duration":0.09090900000001056,"midi":41,"time":172.7271,"velocity":0.1968503937007874},{"duration":0.09090900000001056,"midi":29,"time":172.7271,"velocity":0.1968503937007874},{"duration":0.09090900000001056,"midi":41,"time":172.7271,"velocity":0.1968503937007874},{"duration":0.09090900000001056,"midi":29,"time":172.7271,"velocity":0.1968503937007874},{"duration":0.09090900000001056,"midi":41,"time":172.7271,"velocity":0.1968503937007874},{"duration":0.09090900000001056,"midi":29,"time":172.7271,"velocity":0.1968503937007874},{"duration":0.09090900000001056,"midi":29,"time":172.7271,"velocity":0.1968503937007874},{"duration":0.09090900000001056,"midi":41,"time":172.7271,"velocity":0.1968503937007874},{"duration":0.09090900000001056,"midi":29,"time":172.7271,"velocity":0.1968503937007874},{"duration":0.09090900000001056,"midi":41,"time":172.7271,"velocity":0.1968503937007874},{"duration":0.09090900000001056,"midi":41,"time":172.7271,"velocity":0.1968503937007874},{"duration":0.09090900000001056,"midi":53,"time":172.908918,"velocity":0.1968503937007874},{"duration":0.09090900000001056,"midi":53,"time":172.908918,"velocity":0.1968503937007874},{"duration":0.09090900000001056,"midi":53,"time":172.908918,"velocity":0.1968503937007874},{"duration":0.09090900000001056,"midi":41,"time":172.908918,"velocity":0.1968503937007874},{"duration":0.09090900000001056,"midi":41,"time":172.908918,"velocity":0.1968503937007874},{"duration":0.09090900000001056,"midi":53,"time":172.908918,"velocity":0.1968503937007874},{"duration":0.09090900000001056,"midi":53,"time":172.908918,"velocity":0.1968503937007874},{"duration":0.09090900000001056,"midi":41,"time":172.908918,"velocity":0.1968503937007874},{"duration":0.09090900000001056,"midi":41,"time":172.908918,"velocity":0.1968503937007874},{"duration":0.09090900000001056,"midi":41,"time":172.908918,"velocity":0.1968503937007874},{"duration":0.09090900000001056,"midi":41,"time":172.908918,"velocity":0.1968503937007874},{"duration":0.09090900000001056,"midi":53,"time":172.908918,"velocity":0.1968503937007874},{"duration":0.09090899999998214,"midi":31,"time":173.09073600000002,"velocity":0.1968503937007874},{"duration":0.09090899999998214,"midi":31,"time":173.09073600000002,"velocity":0.1968503937007874},{"duration":0.09090899999998214,"midi":31,"time":173.09073600000002,"velocity":0.1968503937007874},{"duration":0.09090899999998214,"midi":43,"time":173.09073600000002,"velocity":0.1968503937007874},{"duration":0.09090899999998214,"midi":43,"time":173.09073600000002,"velocity":0.1968503937007874},{"duration":0.09090899999998214,"midi":31,"time":173.09073600000002,"velocity":0.1968503937007874},{"duration":0.09090899999998214,"midi":43,"time":173.09073600000002,"velocity":0.1968503937007874},{"duration":0.09090899999998214,"midi":43,"time":173.09073600000002,"velocity":0.1968503937007874},{"duration":0.09090899999998214,"midi":31,"time":173.09073600000002,"velocity":0.1968503937007874},{"duration":0.09090899999998214,"midi":43,"time":173.09073600000002,"velocity":0.1968503937007874},{"duration":0.09090899999998214,"midi":43,"time":173.09073600000002,"velocity":0.1968503937007874},{"duration":0.09090899999998214,"midi":31,"time":173.09073600000002,"velocity":0.1968503937007874},{"duration":0.09090899999998214,"midi":43,"time":173.272554,"velocity":0.1968503937007874},{"duration":0.09090899999998214,"midi":55,"time":173.272554,"velocity":0.1968503937007874},{"duration":0.09090899999998214,"midi":55,"time":173.272554,"velocity":0.1968503937007874},{"duration":0.09090899999998214,"midi":43,"time":173.272554,"velocity":0.1968503937007874},{"duration":0.09090899999998214,"midi":55,"time":173.272554,"velocity":0.1968503937007874},{"duration":0.09090899999998214,"midi":43,"time":173.272554,"velocity":0.1968503937007874},{"duration":0.09090899999998214,"midi":55,"time":173.272554,"velocity":0.1968503937007874},{"duration":0.09090899999998214,"midi":55,"time":173.272554,"velocity":0.1968503937007874},{"duration":0.09090899999998214,"midi":43,"time":173.272554,"velocity":0.1968503937007874},{"duration":0.09090899999998214,"midi":43,"time":173.272554,"velocity":0.1968503937007874},{"duration":0.09090899999998214,"midi":55,"time":173.272554,"velocity":0.1968503937007874},{"duration":0.09090899999998214,"midi":43,"time":173.272554,"velocity":0.1968503937007874},{"duration":0.09090900000001056,"midi":43,"time":173.454372,"velocity":0.1968503937007874},{"duration":0.09090900000001056,"midi":43,"time":173.454372,"velocity":0.1968503937007874},{"duration":0.09090900000001056,"midi":31,"time":173.454372,"velocity":0.1968503937007874},{"duration":0.09090900000001056,"midi":43,"time":173.454372,"velocity":0.1968503937007874},{"duration":0.09090900000001056,"midi":31,"time":173.454372,"velocity":0.1968503937007874},{"duration":0.09090900000001056,"midi":31,"time":173.454372,"velocity":0.1968503937007874},{"duration":0.09090900000001056,"midi":43,"time":173.454372,"velocity":0.1968503937007874},{"duration":0.09090900000001056,"midi":43,"time":173.454372,"velocity":0.1968503937007874},{"duration":0.09090900000001056,"midi":31,"time":173.454372,"velocity":0.1968503937007874},{"duration":0.09090900000001056,"midi":43,"time":173.454372,"velocity":0.1968503937007874},{"duration":0.09090900000001056,"midi":31,"time":173.454372,"velocity":0.1968503937007874},{"duration":0.09090900000001056,"midi":31,"time":173.454372,"velocity":0.1968503937007874},{"duration":0.09090900000001056,"midi":55,"time":173.63619,"velocity":0.1968503937007874},{"duration":0.09090900000001056,"midi":43,"time":173.63619,"velocity":0.1968503937007874},{"duration":0.09090900000001056,"midi":55,"time":173.63619,"velocity":0.1968503937007874},{"duration":0.09090900000001056,"midi":43,"time":173.63619,"velocity":0.1968503937007874},{"duration":0.09090900000001056,"midi":55,"time":173.63619,"velocity":0.1968503937007874},{"duration":0.09090900000001056,"midi":55,"time":173.63619,"velocity":0.1968503937007874},{"duration":0.09090900000001056,"midi":43,"time":173.63619,"velocity":0.1968503937007874},{"duration":0.09090900000001056,"midi":55,"time":173.63619,"velocity":0.1968503937007874},{"duration":0.09090900000001056,"midi":43,"time":173.63619,"velocity":0.1968503937007874},{"duration":0.09090900000001056,"midi":55,"time":173.63619,"velocity":0.1968503937007874},{"duration":0.09090900000001056,"midi":43,"time":173.63619,"velocity":0.1968503937007874},{"duration":0.09090900000001056,"midi":43,"time":173.63619,"velocity":0.1968503937007874},{"duration":0.09090899999998214,"midi":43,"time":173.81800800000002,"velocity":0.1968503937007874},{"duration":0.09090899999998214,"midi":43,"time":173.81800800000002,"velocity":0.1968503937007874},{"duration":0.09090899999998214,"midi":31,"time":173.81800800000002,"velocity":0.1968503937007874},{"duration":0.09090899999998214,"midi":43,"time":173.81800800000002,"velocity":0.1968503937007874},{"duration":0.09090899999998214,"midi":31,"time":173.81800800000002,"velocity":0.1968503937007874},{"duration":0.09090899999998214,"midi":31,"time":173.81800800000002,"velocity":0.1968503937007874},{"duration":0.09090899999998214,"midi":43,"time":173.81800800000002,"velocity":0.1968503937007874},{"duration":0.09090899999998214,"midi":31,"time":173.81800800000002,"velocity":0.1968503937007874},{"duration":0.09090899999998214,"midi":43,"time":173.81800800000002,"velocity":0.1968503937007874},{"duration":0.09090899999998214,"midi":43,"time":173.81800800000002,"velocity":0.1968503937007874},{"duration":0.09090899999998214,"midi":31,"time":173.81800800000002,"velocity":0.1968503937007874},{"duration":0.09090899999998214,"midi":31,"time":173.81800800000002,"velocity":0.1968503937007874},{"duration":0.09090899999998214,"midi":43,"time":173.999826,"velocity":0.1968503937007874},{"duration":0.09090899999998214,"midi":43,"time":173.999826,"velocity":0.1968503937007874},{"duration":0.09090899999998214,"midi":55,"time":173.999826,"velocity":0.1968503937007874},{"duration":0.09090899999998214,"midi":43,"time":173.999826,"velocity":0.1968503937007874},{"duration":0.09090899999998214,"midi":43,"time":173.999826,"velocity":0.1968503937007874},{"duration":0.09090899999998214,"midi":43,"time":173.999826,"velocity":0.1968503937007874},{"duration":0.09090899999998214,"midi":55,"time":173.999826,"velocity":0.1968503937007874},{"duration":0.09090899999998214,"midi":43,"time":173.999826,"velocity":0.1968503937007874},{"duration":0.09090899999998214,"midi":55,"time":173.999826,"velocity":0.1968503937007874},{"duration":0.09090899999998214,"midi":55,"time":173.999826,"velocity":0.1968503937007874},{"duration":0.09090899999998214,"midi":55,"time":173.999826,"velocity":0.1968503937007874},{"duration":0.09090899999998214,"midi":55,"time":173.999826,"velocity":0.1968503937007874},{"duration":0.09090900000001056,"midi":43,"time":174.181644,"velocity":0.1968503937007874},{"duration":0.09090900000001056,"midi":31,"time":174.181644,"velocity":0.1968503937007874},{"duration":0.09090900000001056,"midi":31,"time":174.181644,"velocity":0.1968503937007874},{"duration":0.09090900000001056,"midi":43,"time":174.181644,"velocity":0.1968503937007874},{"duration":0.09090900000001056,"midi":43,"time":174.181644,"velocity":0.1968503937007874},{"duration":0.09090900000001056,"midi":31,"time":174.181644,"velocity":0.1968503937007874},{"duration":0.09090900000001056,"midi":31,"time":174.181644,"velocity":0.1968503937007874},{"duration":0.09090900000001056,"midi":31,"time":174.181644,"velocity":0.1968503937007874},{"duration":0.09090900000001056,"midi":43,"time":174.181644,"velocity":0.1968503937007874},{"duration":0.09090900000001056,"midi":43,"time":174.181644,"velocity":0.1968503937007874},{"duration":0.09090900000001056,"midi":31,"time":174.181644,"velocity":0.1968503937007874},{"duration":0.09090900000001056,"midi":43,"time":174.181644,"velocity":0.1968503937007874},{"duration":0.09090900000001056,"midi":43,"time":174.363462,"velocity":0.1968503937007874},{"duration":0.09090900000001056,"midi":43,"time":174.363462,"velocity":0.1968503937007874},{"duration":0.09090900000001056,"midi":55,"time":174.363462,"velocity":0.1968503937007874},{"duration":0.09090900000001056,"midi":43,"time":174.363462,"velocity":0.1968503937007874},{"duration":0.09090900000001056,"midi":55,"time":174.363462,"velocity":0.1968503937007874},{"duration":0.09090900000001056,"midi":43,"time":174.363462,"velocity":0.1968503937007874},{"duration":0.09090900000001056,"midi":55,"time":174.363462,"velocity":0.1968503937007874},{"duration":0.09090900000001056,"midi":43,"time":174.363462,"velocity":0.1968503937007874},{"duration":0.09090900000001056,"midi":55,"time":174.363462,"velocity":0.1968503937007874},{"duration":0.09090900000001056,"midi":55,"time":174.363462,"velocity":0.1968503937007874},{"duration":0.09090900000001056,"midi":55,"time":174.363462,"velocity":0.1968503937007874},{"duration":0.09090900000001056,"midi":43,"time":174.363462,"velocity":0.1968503937007874},{"duration":0.13636349999998743,"midi":55,"time":186.181632,"velocity":0.1968503937007874},{"duration":0.13636349999998743,"midi":67,"time":186.181632,"velocity":0.1968503937007874},{"duration":0.13636350000001585,"midi":67,"time":186.36345,"velocity":0.1968503937007874},{"duration":0.13636350000001585,"midi":55,"time":186.36345,"velocity":0.1968503937007874},{"duration":0.13636349999998743,"midi":55,"time":186.54526800000002,"velocity":0.1968503937007874},{"duration":0.13636349999998743,"midi":67,"time":186.54526800000002,"velocity":0.1968503937007874},{"duration":0.13636349999998743,"midi":67,"time":186.727086,"velocity":0.1968503937007874},{"duration":0.13636349999998743,"midi":55,"time":186.727086,"velocity":0.1968503937007874},{"duration":0.13636349999998743,"midi":55,"time":186.908904,"velocity":0.1968503937007874},{"duration":0.13636349999998743,"midi":67,"time":186.908904,"velocity":0.1968503937007874},{"duration":0.13636350000001585,"midi":55,"time":187.090722,"velocity":0.1968503937007874},{"duration":0.13636350000001585,"midi":67,"time":187.090722,"velocity":0.1968503937007874},{"duration":0.13636349999998743,"midi":67,"time":187.27254000000002,"velocity":0.1968503937007874},{"duration":0.13636349999998743,"midi":55,"time":187.27254000000002,"velocity":0.1968503937007874},{"duration":0.13636349999998743,"midi":67,"time":187.454358,"velocity":0.1968503937007874},{"duration":0.13636349999998743,"midi":55,"time":187.454358,"velocity":0.1968503937007874},{"duration":0.13636349999998743,"midi":70,"time":187.636176,"velocity":0.1968503937007874},{"duration":0.13636349999998743,"midi":58,"time":187.636176,"velocity":0.1968503937007874},{"duration":0.13636350000001585,"midi":70,"time":187.817994,"velocity":0.1968503937007874},{"duration":0.13636350000001585,"midi":58,"time":187.817994,"velocity":0.1968503937007874},{"duration":0.13636349999998743,"midi":58,"time":187.99981200000002,"velocity":0.1968503937007874},{"duration":0.13636349999998743,"midi":70,"time":187.99981200000002,"velocity":0.1968503937007874},{"duration":0.13636349999998743,"midi":58,"time":188.18163,"velocity":0.1968503937007874},{"duration":0.13636349999998743,"midi":70,"time":188.18163,"velocity":0.1968503937007874},{"duration":0.13636350000001585,"midi":58,"time":188.363448,"velocity":0.1968503937007874},{"duration":0.13636350000001585,"midi":70,"time":188.363448,"velocity":0.1968503937007874},{"duration":0.13636350000001585,"midi":70,"time":188.545266,"velocity":0.1968503937007874},{"duration":0.13636350000001585,"midi":58,"time":188.545266,"velocity":0.1968503937007874},{"duration":0.13636349999998743,"midi":72,"time":188.72708400000002,"velocity":0.1968503937007874},{"duration":0.13636349999998743,"midi":60,"time":188.72708400000002,"velocity":0.1968503937007874},{"duration":0.13636349999998743,"midi":58,"time":188.908902,"velocity":0.1968503937007874},{"duration":0.13636349999998743,"midi":70,"time":188.908902,"velocity":0.1968503937007874},{"duration":0.13636350000001585,"midi":57,"time":189.09072,"velocity":0.1968503937007874},{"duration":0.13636350000001585,"midi":69,"time":189.09072,"velocity":0.1968503937007874},{"duration":0.13636350000001585,"midi":57,"time":189.272538,"velocity":0.1968503937007874},{"duration":0.13636350000001585,"midi":69,"time":189.272538,"velocity":0.1968503937007874},{"duration":0.13636349999998743,"midi":57,"time":189.45435600000002,"velocity":0.1968503937007874},{"duration":0.13636349999998743,"midi":69,"time":189.45435600000002,"velocity":0.1968503937007874},{"duration":0.13636349999998743,"midi":69,"time":189.636174,"velocity":0.1968503937007874},{"duration":0.13636349999998743,"midi":57,"time":189.636174,"velocity":0.1968503937007874},{"duration":0.13636350000001585,"midi":69,"time":189.817992,"velocity":0.1968503937007874},{"duration":0.13636350000001585,"midi":57,"time":189.817992,"velocity":0.1968503937007874},{"duration":0.13636350000001585,"midi":69,"time":189.99981,"velocity":0.1968503937007874},{"duration":0.13636350000001585,"midi":57,"time":189.99981,"velocity":0.1968503937007874},{"duration":0.13636349999998743,"midi":57,"time":190.18162800000002,"velocity":0.1968503937007874},{"duration":0.13636349999998743,"midi":69,"time":190.18162800000002,"velocity":0.1968503937007874},{"duration":0.13636349999998743,"midi":55,"time":190.363446,"velocity":0.1968503937007874},{"duration":0.13636349999998743,"midi":67,"time":190.363446,"velocity":0.1968503937007874},{"duration":0.13636350000001585,"midi":70,"time":190.545264,"velocity":0.1968503937007874},{"duration":0.13636350000001585,"midi":58,"time":190.545264,"velocity":0.1968503937007874},{"duration":0.13636350000001585,"midi":58,"time":190.727082,"velocity":0.1968503937007874},{"duration":0.13636350000001585,"midi":70,"time":190.727082,"velocity":0.1968503937007874},{"duration":0.13636349999998743,"midi":58,"time":190.90890000000002,"velocity":0.1968503937007874},{"duration":0.13636349999998743,"midi":70,"time":190.90890000000002,"velocity":0.1968503937007874},{"duration":0.13636349999998743,"midi":58,"time":191.090718,"velocity":0.1968503937007874},{"duration":0.13636349999998743,"midi":70,"time":191.090718,"velocity":0.1968503937007874},{"duration":0.13636350000001585,"midi":70,"time":191.272536,"velocity":0.1968503937007874},{"duration":0.13636350000001585,"midi":58,"time":191.272536,"velocity":0.1968503937007874},{"duration":0.13636350000001585,"midi":58,"time":191.454354,"velocity":0.1968503937007874},{"duration":0.13636350000001585,"midi":70,"time":191.454354,"velocity":0.1968503937007874},{"duration":0.13636349999998743,"midi":70,"time":191.63617200000002,"velocity":0.1968503937007874},{"duration":0.13636349999998743,"midi":58,"time":191.63617200000002,"velocity":0.1968503937007874},{"duration":0.13636349999998743,"midi":70,"time":191.81799,"velocity":0.1968503937007874},{"duration":0.13636349999998743,"midi":58,"time":191.81799,"velocity":0.1968503937007874},{"duration":0.13636350000001585,"midi":74,"time":191.999808,"velocity":0.1968503937007874},{"duration":0.13636350000001585,"midi":62,"time":191.999808,"velocity":0.1968503937007874},{"duration":0.13636350000001585,"midi":74,"time":192.181626,"velocity":0.1968503937007874},{"duration":0.13636350000001585,"midi":62,"time":192.181626,"velocity":0.1968503937007874},{"duration":0.13636349999998743,"midi":62,"time":192.36344400000002,"velocity":0.1968503937007874},{"duration":0.13636349999998743,"midi":74,"time":192.36344400000002,"velocity":0.1968503937007874},{"duration":0.13636349999998743,"midi":62,"time":192.545262,"velocity":0.1968503937007874},{"duration":0.13636349999998743,"midi":74,"time":192.545262,"velocity":0.1968503937007874},{"duration":0.13636350000001585,"midi":74,"time":192.72708,"velocity":0.1968503937007874},{"duration":0.13636350000001585,"midi":62,"time":192.72708,"velocity":0.1968503937007874},{"duration":0.13636349999998743,"midi":62,"time":192.90889800000002,"velocity":0.1968503937007874},{"duration":0.13636349999998743,"midi":74,"time":192.90889800000002,"velocity":0.1968503937007874},{"duration":0.13636349999998743,"midi":62,"time":193.09071600000001,"velocity":0.1968503937007874},{"duration":0.13636349999998743,"midi":74,"time":193.09071600000001,"velocity":0.1968503937007874},{"duration":0.13636349999998743,"midi":75,"time":193.272534,"velocity":0.1968503937007874},{"duration":0.13636349999998743,"midi":63,"time":193.272534,"velocity":0.1968503937007874},{"duration":0.13636350000001585,"midi":74,"time":193.454352,"velocity":0.1968503937007874},{"duration":0.13636350000001585,"midi":62,"time":193.454352,"velocity":0.1968503937007874},{"duration":0.13636349999998743,"midi":74,"time":193.63617000000002,"velocity":0.1968503937007874},{"duration":0.13636349999998743,"midi":62,"time":193.63617000000002,"velocity":0.1968503937007874},{"duration":0.13636349999998743,"midi":62,"time":193.817988,"velocity":0.1968503937007874},{"duration":0.13636349999998743,"midi":74,"time":193.817988,"velocity":0.1968503937007874},{"duration":0.13636349999998743,"midi":62,"time":193.999806,"velocity":0.1968503937007874},{"duration":0.13636349999998743,"midi":74,"time":193.999806,"velocity":0.1968503937007874},{"duration":0.13636350000001585,"midi":62,"time":194.181624,"velocity":0.1968503937007874},{"duration":0.13636350000001585,"midi":74,"time":194.181624,"velocity":0.1968503937007874},{"duration":0.13636349999998743,"midi":62,"time":194.36344200000002,"velocity":0.1968503937007874},{"duration":0.13636349999998743,"midi":74,"time":194.36344200000002,"velocity":0.1968503937007874},{"duration":0.13636349999998743,"midi":74,"time":194.54526,"velocity":0.1968503937007874},{"duration":0.13636349999998743,"midi":62,"time":194.54526,"velocity":0.1968503937007874},{"duration":0.13636350000001585,"midi":62,"time":194.727078,"velocity":0.1968503937007874},{"duration":0.13636350000001585,"midi":74,"time":194.727078,"velocity":0.1968503937007874},{"duration":0.13636350000001585,"midi":57,"time":194.908896,"velocity":0.1968503937007874},{"duration":0.13636350000001585,"midi":69,"time":194.908896,"velocity":0.1968503937007874},{"duration":0.13636349999998743,"midi":57,"time":195.09071400000002,"velocity":0.1968503937007874},{"duration":0.13636349999998743,"midi":69,"time":195.09071400000002,"velocity":0.1968503937007874},{"duration":0.13636349999998743,"midi":69,"time":195.272532,"velocity":0.1968503937007874},{"duration":0.13636349999998743,"midi":57,"time":195.272532,"velocity":0.1968503937007874},{"duration":0.13636350000001585,"midi":57,"time":195.45435,"velocity":0.1968503937007874},{"duration":0.13636350000001585,"midi":69,"time":195.45435,"velocity":0.1968503937007874},{"duration":0.13636350000001585,"midi":69,"time":195.636168,"velocity":0.1968503937007874},{"duration":0.13636350000001585,"midi":57,"time":195.636168,"velocity":0.1968503937007874},{"duration":0.13636349999998743,"midi":57,"time":195.81798600000002,"velocity":0.1968503937007874},{"duration":0.13636349999998743,"midi":69,"time":195.81798600000002,"velocity":0.1968503937007874},{"duration":0.13636349999998743,"midi":70,"time":195.999804,"velocity":0.1968503937007874},{"duration":0.13636349999998743,"midi":58,"time":195.999804,"velocity":0.1968503937007874},{"duration":0.13636350000001585,"midi":69,"time":196.181622,"velocity":0.1968503937007874},{"duration":0.13636350000001585,"midi":57,"time":196.181622,"velocity":0.1968503937007874},{"duration":0.13636350000001585,"midi":55,"time":196.36344,"velocity":0.1968503937007874},{"duration":0.13636350000001585,"midi":67,"time":196.36344,"velocity":0.1968503937007874},{"duration":0.13636349999998743,"midi":67,"time":196.54525800000002,"velocity":0.1968503937007874},{"duration":0.13636349999998743,"midi":55,"time":196.54525800000002,"velocity":0.1968503937007874},{"duration":0.13636349999998743,"midi":67,"time":196.727076,"velocity":0.1968503937007874},{"duration":0.13636349999998743,"midi":55,"time":196.727076,"velocity":0.1968503937007874},{"duration":0.13636350000001585,"midi":55,"time":196.908894,"velocity":0.1968503937007874},{"duration":0.13636350000001585,"midi":67,"time":196.908894,"velocity":0.1968503937007874},{"duration":0.13636350000001585,"midi":55,"time":197.090712,"velocity":0.1968503937007874},{"duration":0.13636350000001585,"midi":67,"time":197.090712,"velocity":0.1968503937007874},{"duration":0.13636349999998743,"midi":67,"time":197.27253000000002,"velocity":0.1968503937007874},{"duration":0.13636349999998743,"midi":55,"time":197.27253000000002,"velocity":0.1968503937007874},{"duration":0.13636349999998743,"midi":67,"time":197.454348,"velocity":0.1968503937007874},{"duration":0.13636349999998743,"midi":55,"time":197.454348,"velocity":0.1968503937007874},{"duration":0.13636350000001585,"midi":67,"time":197.636166,"velocity":0.1968503937007874},{"duration":0.13636350000001585,"midi":55,"time":197.636166,"velocity":0.1968503937007874},{"duration":0.13636350000001585,"midi":55,"time":197.817984,"velocity":0.1968503937007874},{"duration":0.09090900000001056,"midi":43,"time":197.817984,"velocity":0.1968503937007874},{"duration":0.13636350000001585,"midi":67,"time":197.817984,"velocity":0.1968503937007874},{"duration":0.09090900000001056,"midi":43,"time":197.817984,"velocity":0.1968503937007874},{"duration":0.09090900000001056,"midi":43,"time":197.817984,"velocity":0.1968503937007874},{"duration":0.09090900000001056,"midi":31,"time":197.817984,"velocity":0.1968503937007874},{"duration":0.09090900000001056,"midi":31,"time":197.817984,"velocity":0.1968503937007874},{"duration":0.09090900000001056,"midi":31,"time":197.817984,"velocity":0.1968503937007874},{"duration":0.09090899999998214,"midi":55,"time":197.99980200000002,"velocity":0.1968503937007874},{"duration":0.09090899999998214,"midi":43,"time":197.99980200000002,"velocity":0.1968503937007874},{"duration":0.09090899999998214,"midi":55,"time":197.99980200000002,"velocity":0.1968503937007874},{"duration":0.09090899999998214,"midi":55,"time":197.99980200000002,"velocity":0.1968503937007874},{"duration":0.09090899999998214,"midi":43,"time":197.99980200000002,"velocity":0.1968503937007874},{"duration":0.13636349999998743,"midi":67,"time":197.99980200000002,"velocity":0.1968503937007874},{"duration":0.13636349999998743,"midi":55,"time":197.99980200000002,"velocity":0.1968503937007874},{"duration":0.09090899999998214,"midi":43,"time":197.99980200000002,"velocity":0.1968503937007874},{"duration":0.13636349999998743,"midi":55,"time":198.18162,"velocity":0.1968503937007874},{"duration":0.09090900000001056,"midi":31,"time":198.18162,"velocity":0.1968503937007874},{"duration":0.09090900000001056,"midi":43,"time":198.18162,"velocity":0.1968503937007874},{"duration":0.13636349999998743,"midi":67,"time":198.18162,"velocity":0.1968503937007874},{"duration":0.09090900000001056,"midi":31,"time":198.18162,"velocity":0.1968503937007874},{"duration":0.09090900000001056,"midi":43,"time":198.18162,"velocity":0.1968503937007874},{"duration":0.09090900000001056,"midi":43,"time":198.18162,"velocity":0.1968503937007874},{"duration":0.09090900000001056,"midi":31,"time":198.18162,"velocity":0.1968503937007874},{"duration":0.09090900000001056,"midi":43,"time":198.363438,"velocity":0.1968503937007874},{"duration":0.13636350000001585,"midi":67,"time":198.363438,"velocity":0.1968503937007874},{"duration":0.09090900000001056,"midi":43,"time":198.363438,"velocity":0.1968503937007874},{"duration":0.09090900000001056,"midi":55,"time":198.363438,"velocity":0.1968503937007874},{"duration":0.09090900000001056,"midi":55,"time":198.363438,"velocity":0.1968503937007874},{"duration":0.09090900000001056,"midi":55,"time":198.363438,"velocity":0.1968503937007874},{"duration":0.09090900000001056,"midi":43,"time":198.363438,"velocity":0.1968503937007874},{"duration":0.13636350000001585,"midi":55,"time":198.363438,"velocity":0.1968503937007874},{"duration":0.09090900000001056,"midi":31,"time":198.545256,"velocity":0.1968503937007874},{"duration":0.13636350000001585,"midi":55,"time":198.545256,"velocity":0.1968503937007874},{"duration":0.09090900000001056,"midi":43,"time":198.545256,"velocity":0.1968503937007874},{"duration":0.09090900000001056,"midi":31,"time":198.545256,"velocity":0.1968503937007874},{"duration":0.09090900000001056,"midi":43,"time":198.545256,"velocity":0.1968503937007874},{"duration":0.13636350000001585,"midi":67,"time":198.545256,"velocity":0.1968503937007874},{"duration":0.09090900000001056,"midi":43,"time":198.545256,"velocity":0.1968503937007874},{"duration":0.09090900000001056,"midi":31,"time":198.545256,"velocity":0.1968503937007874},{"duration":0.09090899999998214,"midi":43,"time":198.72707400000002,"velocity":0.1968503937007874},{"duration":0.09090899999998214,"midi":55,"time":198.72707400000002,"velocity":0.1968503937007874},{"duration":0.13636349999998743,"midi":67,"time":198.72707400000002,"velocity":0.1968503937007874},{"duration":0.09090899999998214,"midi":55,"time":198.72707400000002,"velocity":0.1968503937007874},{"duration":0.09090899999998214,"midi":55,"time":198.72707400000002,"velocity":0.1968503937007874},{"duration":0.13636349999998743,"midi":55,"time":198.72707400000002,"velocity":0.1968503937007874},{"duration":0.09090899999998214,"midi":43,"time":198.72707400000002,"velocity":0.1968503937007874},{"duration":0.09090899999998214,"midi":43,"time":198.72707400000002,"velocity":0.1968503937007874},{"duration":0.09090900000001056,"midi":31,"time":198.908892,"velocity":0.1968503937007874},{"duration":0.09090900000001056,"midi":31,"time":198.908892,"velocity":0.1968503937007874},{"duration":0.13636349999998743,"midi":67,"time":198.908892,"velocity":0.1968503937007874},{"duration":0.09090900000001056,"midi":43,"time":198.908892,"velocity":0.1968503937007874},{"duration":0.09090900000001056,"midi":31,"time":198.908892,"velocity":0.1968503937007874},{"duration":0.13636349999998743,"midi":55,"time":198.908892,"velocity":0.1968503937007874},{"duration":0.09090900000001056,"midi":43,"time":198.908892,"velocity":0.1968503937007874},{"duration":0.09090900000001056,"midi":43,"time":198.908892,"velocity":0.1968503937007874},{"duration":0.09090900000001056,"midi":43,"time":199.09071,"velocity":0.1968503937007874},{"duration":0.09090900000001056,"midi":55,"time":199.09071,"velocity":0.1968503937007874},{"duration":0.09090900000001056,"midi":55,"time":199.09071,"velocity":0.1968503937007874},{"duration":0.09090900000001056,"midi":55,"time":199.09071,"velocity":0.1968503937007874},{"duration":0.13636350000001585,"midi":67,"time":199.09071,"velocity":0.1968503937007874},{"duration":0.09090900000001056,"midi":43,"time":199.09071,"velocity":0.1968503937007874},{"duration":0.09090900000001056,"midi":43,"time":199.09071,"velocity":0.1968503937007874},{"duration":0.13636350000001585,"midi":55,"time":199.09071,"velocity":0.1968503937007874},{"duration":0.09090900000001056,"midi":28,"time":199.272528,"velocity":0.1968503937007874},{"duration":0.13636350000001585,"midi":70,"time":199.272528,"velocity":0.1968503937007874},{"duration":0.09090900000001056,"midi":28,"time":199.272528,"velocity":0.1968503937007874},{"duration":0.09090900000001056,"midi":40,"time":199.272528,"velocity":0.1968503937007874},{"duration":0.09090900000001056,"midi":40,"time":199.272528,"velocity":0.1968503937007874},{"duration":0.13636350000001585,"midi":58,"time":199.272528,"velocity":0.1968503937007874},{"duration":0.09090900000001056,"midi":28,"time":199.272528,"velocity":0.1968503937007874},{"duration":0.09090900000001056,"midi":28,"time":199.272528,"velocity":0.1968503937007874},{"duration":0.09090900000001056,"midi":40,"time":199.272528,"velocity":0.1968503937007874},{"duration":0.09090900000001056,"midi":40,"time":199.272528,"velocity":0.1968503937007874},{"duration":0.09090899999998214,"midi":52,"time":199.45434600000002,"velocity":0.1968503937007874},{"duration":0.09090899999998214,"midi":52,"time":199.45434600000002,"velocity":0.1968503937007874},{"duration":0.09090899999998214,"midi":40,"time":199.45434600000002,"velocity":0.1968503937007874},{"duration":0.09090899999998214,"midi":40,"time":199.45434600000002,"velocity":0.1968503937007874},{"duration":0.09090899999998214,"midi":52,"time":199.45434600000002,"velocity":0.1968503937007874},{"duration":0.09090899999998214,"midi":40,"time":199.45434600000002,"velocity":0.1968503937007874},{"duration":0.13636349999998743,"midi":58,"time":199.45434600000002,"velocity":0.1968503937007874},{"duration":0.09090899999998214,"midi":52,"time":199.45434600000002,"velocity":0.1968503937007874},{"duration":0.13636349999998743,"midi":70,"time":199.45434600000002,"velocity":0.1968503937007874},{"duration":0.09090899999998214,"midi":40,"time":199.45434600000002,"velocity":0.1968503937007874},{"duration":0.09090900000001056,"midi":40,"time":199.636164,"velocity":0.1968503937007874},{"duration":0.09090900000001056,"midi":28,"time":199.636164,"velocity":0.1968503937007874},{"duration":0.09090900000001056,"midi":28,"time":199.636164,"velocity":0.1968503937007874},{"duration":0.09090900000001056,"midi":40,"time":199.636164,"velocity":0.1968503937007874},{"duration":0.09090900000001056,"midi":28,"time":199.636164,"velocity":0.1968503937007874},{"duration":0.09090900000001056,"midi":40,"time":199.636164,"velocity":0.1968503937007874},{"duration":0.09090900000001056,"midi":28,"time":199.636164,"velocity":0.1968503937007874},{"duration":0.09090900000001056,"midi":40,"time":199.636164,"velocity":0.1968503937007874},{"duration":0.13636349999998743,"midi":58,"time":199.636164,"velocity":0.1968503937007874},{"duration":0.13636349999998743,"midi":70,"time":199.636164,"velocity":0.1968503937007874},{"duration":0.09090900000001056,"midi":40,"time":199.817982,"velocity":0.1968503937007874},{"duration":0.13636350000001585,"midi":58,"time":199.817982,"velocity":0.1968503937007874},{"duration":0.09090900000001056,"midi":52,"time":199.817982,"velocity":0.1968503937007874},{"duration":0.09090900000001056,"midi":52,"time":199.817982,"velocity":0.1968503937007874},{"duration":0.09090900000001056,"midi":40,"time":199.817982,"velocity":0.1968503937007874},{"duration":0.13636350000001585,"midi":70,"time":199.817982,"velocity":0.1968503937007874},{"duration":0.09090900000001056,"midi":52,"time":199.817982,"velocity":0.1968503937007874},{"duration":0.09090900000001056,"midi":40,"time":199.817982,"velocity":0.1968503937007874},{"duration":0.09090900000001056,"midi":52,"time":199.817982,"velocity":0.1968503937007874},{"duration":0.09090900000001056,"midi":40,"time":199.817982,"velocity":0.1968503937007874},{"duration":0.13636349999998743,"midi":58,"time":199.99980000000002,"velocity":0.1968503937007874},{"duration":0.13636349999998743,"midi":70,"time":199.99980000000002,"velocity":0.1968503937007874},{"duration":0.09090899999998214,"midi":28,"time":199.99980000000002,"velocity":0.1968503937007874},{"duration":0.09090899999998214,"midi":28,"time":199.99980000000002,"velocity":0.1968503937007874},{"duration":0.09090899999998214,"midi":40,"time":199.99980000000002,"velocity":0.1968503937007874},{"duration":0.09090899999998214,"midi":28,"time":199.99980000000002,"velocity":0.1968503937007874},{"duration":0.09090899999998214,"midi":40,"time":199.99980000000002,"velocity":0.1968503937007874},{"duration":0.09090899999998214,"midi":28,"time":199.99980000000002,"velocity":0.1968503937007874},{"duration":0.09090899999998214,"midi":40,"time":199.99980000000002,"velocity":0.1968503937007874},{"duration":0.09090899999998214,"midi":40,"time":199.99980000000002,"velocity":0.1968503937007874},{"duration":0.09090899999998214,"midi":40,"time":200.18161800000001,"velocity":0.1968503937007874},{"duration":0.09090899999998214,"midi":52,"time":200.18161800000001,"velocity":0.1968503937007874},{"duration":0.13636349999998743,"midi":58,"time":200.18161800000001,"velocity":0.1968503937007874},{"duration":0.09090899999998214,"midi":52,"time":200.18161800000001,"velocity":0.1968503937007874},{"duration":0.09090899999998214,"midi":52,"time":200.18161800000001,"velocity":0.1968503937007874},{"duration":0.09090899999998214,"midi":40,"time":200.18161800000001,"velocity":0.1968503937007874},{"duration":0.09090899999998214,"midi":40,"time":200.18161800000001,"velocity":0.1968503937007874},{"duration":0.13636349999998743,"midi":70,"time":200.18161800000001,"velocity":0.1968503937007874},{"duration":0.09090899999998214,"midi":40,"time":200.18161800000001,"velocity":0.1968503937007874},{"duration":0.09090899999998214,"midi":52,"time":200.18161800000001,"velocity":0.1968503937007874},{"duration":0.09090900000001056,"midi":28,"time":200.363436,"velocity":0.1968503937007874},{"duration":0.09090900000001056,"midi":40,"time":200.363436,"velocity":0.1968503937007874},{"duration":0.13636349999998743,"midi":72,"time":200.363436,"velocity":0.1968503937007874},{"duration":0.09090900000001056,"midi":40,"time":200.363436,"velocity":0.1968503937007874},{"duration":0.09090900000001056,"midi":40,"time":200.363436,"velocity":0.1968503937007874},{"duration":0.09090900000001056,"midi":28,"time":200.363436,"velocity":0.1968503937007874},{"duration":0.09090900000001056,"midi":28,"time":200.363436,"velocity":0.1968503937007874},{"duration":0.09090900000001056,"midi":28,"time":200.363436,"velocity":0.1968503937007874},{"duration":0.13636349999998743,"midi":60,"time":200.363436,"velocity":0.1968503937007874},{"duration":0.09090900000001056,"midi":40,"time":200.363436,"velocity":0.1968503937007874},{"duration":0.09090900000001056,"midi":40,"time":200.545254,"velocity":0.1968503937007874},{"duration":0.09090900000001056,"midi":40,"time":200.545254,"velocity":0.1968503937007874},{"duration":0.09090900000001056,"midi":52,"time":200.545254,"velocity":0.1968503937007874},{"duration":0.09090900000001056,"midi":40,"time":200.545254,"velocity":0.1968503937007874},{"duration":0.13636350000001585,"midi":58,"time":200.545254,"velocity":0.1968503937007874},{"duration":0.09090900000001056,"midi":40,"time":200.545254,"velocity":0.1968503937007874},{"duration":0.09090900000001056,"midi":52,"time":200.545254,"velocity":0.1968503937007874},{"duration":0.13636350000001585,"midi":70,"time":200.545254,"velocity":0.1968503937007874},{"duration":0.09090900000001056,"midi":52,"time":200.545254,"velocity":0.1968503937007874},{"duration":0.09090900000001056,"midi":52,"time":200.545254,"velocity":0.1968503937007874},{"duration":0.09090899999998214,"midi":29,"time":200.72707200000002,"velocity":0.1968503937007874},{"duration":0.09090899999998214,"midi":41,"time":200.72707200000002,"velocity":0.1968503937007874},{"duration":0.09090899999998214,"midi":41,"time":200.72707200000002,"velocity":0.1968503937007874},{"duration":0.13636349999998743,"midi":69,"time":200.72707200000002,"velocity":0.1968503937007874},{"duration":0.09090899999998214,"midi":41,"time":200.72707200000002,"velocity":0.1968503937007874},{"duration":0.13636349999998743,"midi":57,"time":200.72707200000002,"velocity":0.1968503937007874},{"duration":0.09090899999998214,"midi":29,"time":200.72707200000002,"velocity":0.1968503937007874},{"duration":0.09090899999998214,"midi":29,"time":200.72707200000002,"velocity":0.1968503937007874},{"duration":0.09090899999998214,"midi":29,"time":200.72707200000002,"velocity":0.1968503937007874},{"duration":0.09090899999998214,"midi":41,"time":200.72707200000002,"velocity":0.1968503937007874},{"duration":0.09090899999998214,"midi":29,"time":200.72707200000002,"velocity":0.1968503937007874},{"duration":0.09090899999998214,"midi":41,"time":200.72707200000002,"velocity":0.1968503937007874},{"duration":0.09090899999998214,"midi":41,"time":200.72707200000002,"velocity":0.1968503937007874},{"duration":0.09090899999998214,"midi":29,"time":200.72707200000002,"velocity":0.1968503937007874},{"duration":0.09090899999998214,"midi":53,"time":200.90889,"velocity":0.1968503937007874},{"duration":0.09090899999998214,"midi":53,"time":200.90889,"velocity":0.1968503937007874},{"duration":0.09090899999998214,"midi":41,"time":200.90889,"velocity":0.1968503937007874},{"duration":0.09090899999998214,"midi":53,"time":200.90889,"velocity":0.1968503937007874},{"duration":0.09090899999998214,"midi":53,"time":200.90889,"velocity":0.1968503937007874},{"duration":0.09090899999998214,"midi":41,"time":200.90889,"velocity":0.1968503937007874},{"duration":0.09090899999998214,"midi":41,"time":200.90889,"velocity":0.1968503937007874},{"duration":0.09090899999998214,"midi":41,"time":200.90889,"velocity":0.1968503937007874},{"duration":0.09090899999998214,"midi":53,"time":200.90889,"velocity":0.1968503937007874},{"duration":0.13636349999998743,"midi":69,"time":200.90889,"velocity":0.1968503937007874},{"duration":0.09090899999998214,"midi":53,"time":200.90889,"velocity":0.1968503937007874},{"duration":0.09090899999998214,"midi":41,"time":200.90889,"velocity":0.1968503937007874},{"duration":0.13636349999998743,"midi":57,"time":200.90889,"velocity":0.1968503937007874},{"duration":0.09090899999998214,"midi":41,"time":200.90889,"velocity":0.1968503937007874},{"duration":0.09090900000001056,"midi":29,"time":201.090708,"velocity":0.1968503937007874},{"duration":0.09090900000001056,"midi":29,"time":201.090708,"velocity":0.1968503937007874},{"duration":0.13636350000001585,"midi":69,"time":201.090708,"velocity":0.1968503937007874},{"duration":0.09090900000001056,"midi":29,"time":201.090708,"velocity":0.1968503937007874},{"duration":0.09090900000001056,"midi":41,"time":201.090708,"velocity":0.1968503937007874},{"duration":0.09090900000001056,"midi":29,"time":201.090708,"velocity":0.1968503937007874},{"duration":0.13636350000001585,"midi":57,"time":201.090708,"velocity":0.1968503937007874},{"duration":0.09090900000001056,"midi":41,"time":201.090708,"velocity":0.1968503937007874},{"duration":0.09090900000001056,"midi":41,"time":201.090708,"velocity":0.1968503937007874},{"duration":0.09090900000001056,"midi":41,"time":201.090708,"velocity":0.1968503937007874},{"duration":0.09090900000001056,"midi":29,"time":201.090708,"velocity":0.1968503937007874},{"duration":0.09090900000001056,"midi":41,"time":201.090708,"velocity":0.1968503937007874},{"duration":0.09090900000001056,"midi":29,"time":201.090708,"velocity":0.1968503937007874},{"duration":0.09090900000001056,"midi":41,"time":201.090708,"velocity":0.1968503937007874},{"duration":0.09090900000001056,"midi":53,"time":201.272526,"velocity":0.1968503937007874},{"duration":0.09090900000001056,"midi":53,"time":201.272526,"velocity":0.1968503937007874},{"duration":0.09090900000001056,"midi":53,"time":201.272526,"velocity":0.1968503937007874},{"duration":0.09090900000001056,"midi":53,"time":201.272526,"velocity":0.1968503937007874},{"duration":0.09090900000001056,"midi":41,"time":201.272526,"velocity":0.1968503937007874},{"duration":0.09090900000001056,"midi":41,"time":201.272526,"velocity":0.1968503937007874},{"duration":0.13636350000001585,"midi":69,"time":201.272526,"velocity":0.1968503937007874},{"duration":0.09090900000001056,"midi":53,"time":201.272526,"velocity":0.1968503937007874},{"duration":0.09090900000001056,"midi":41,"time":201.272526,"velocity":0.1968503937007874},{"duration":0.09090900000001056,"midi":41,"time":201.272526,"velocity":0.1968503937007874},{"duration":0.09090900000001056,"midi":53,"time":201.272526,"velocity":0.1968503937007874},{"duration":0.09090900000001056,"midi":41,"time":201.272526,"velocity":0.1968503937007874},{"duration":0.09090900000001056,"midi":41,"time":201.272526,"velocity":0.1968503937007874},{"duration":0.13636350000001585,"midi":57,"time":201.272526,"velocity":0.1968503937007874},{"duration":0.09090899999998214,"midi":41,"time":201.45434400000002,"velocity":0.1968503937007874},{"duration":0.09090899999998214,"midi":41,"time":201.45434400000002,"velocity":0.1968503937007874},{"duration":0.09090899999998214,"midi":41,"time":201.45434400000002,"velocity":0.1968503937007874},{"duration":0.13636349999998743,"midi":69,"time":201.45434400000002,"velocity":0.1968503937007874},{"duration":0.09090899999998214,"midi":29,"time":201.45434400000002,"velocity":0.1968503937007874},{"duration":0.09090899999998214,"midi":41,"time":201.45434400000002,"velocity":0.1968503937007874},{"duration":0.09090899999998214,"midi":41,"time":201.45434400000002,"velocity":0.1968503937007874},{"duration":0.09090899999998214,"midi":29,"time":201.45434400000002,"velocity":0.1968503937007874},{"duration":0.09090899999998214,"midi":29,"time":201.45434400000002,"velocity":0.1968503937007874},{"duration":0.09090899999998214,"midi":29,"time":201.45434400000002,"velocity":0.1968503937007874},{"duration":0.13636349999998743,"midi":57,"time":201.45434400000002,"velocity":0.1968503937007874},{"duration":0.09090899999998214,"midi":41,"time":201.45434400000002,"velocity":0.1968503937007874},{"duration":0.09090899999998214,"midi":29,"time":201.45434400000002,"velocity":0.1968503937007874},{"duration":0.09090899999998214,"midi":29,"time":201.45434400000002,"velocity":0.1968503937007874},{"duration":0.13636349999998743,"midi":69,"time":201.636162,"velocity":0.1968503937007874},{"duration":0.09090899999998214,"midi":53,"time":201.636162,"velocity":0.1968503937007874},{"duration":0.09090899999998214,"midi":53,"time":201.636162,"velocity":0.1968503937007874},{"duration":0.09090899999998214,"midi":41,"time":201.636162,"velocity":0.1968503937007874},{"duration":0.09090899999998214,"midi":53,"time":201.636162,"velocity":0.1968503937007874},{"duration":0.09090899999998214,"midi":53,"time":201.636162,"velocity":0.1968503937007874},{"duration":0.13636349999998743,"midi":57,"time":201.636162,"velocity":0.1968503937007874},{"duration":0.09090899999998214,"midi":41,"time":201.636162,"velocity":0.1968503937007874},{"duration":0.09090899999998214,"midi":41,"time":201.636162,"velocity":0.1968503937007874},{"duration":0.09090899999998214,"midi":41,"time":201.636162,"velocity":0.1968503937007874},{"duration":0.09090899999998214,"midi":53,"time":201.636162,"velocity":0.1968503937007874},{"duration":0.09090899999998214,"midi":53,"time":201.636162,"velocity":0.1968503937007874},{"duration":0.09090899999998214,"midi":41,"time":201.636162,"velocity":0.1968503937007874},{"duration":0.09090899999998214,"midi":41,"time":201.636162,"velocity":0.1968503937007874},{"duration":0.09090900000001056,"midi":29,"time":201.81798,"velocity":0.1968503937007874},{"duration":0.09090900000001056,"midi":41,"time":201.81798,"velocity":0.1968503937007874},{"duration":0.09090900000001056,"midi":41,"time":201.81798,"velocity":0.1968503937007874},{"duration":0.09090900000001056,"midi":29,"time":201.81798,"velocity":0.1968503937007874},{"duration":0.09090900000001056,"midi":41,"time":201.81798,"velocity":0.1968503937007874},{"duration":0.09090900000001056,"midi":29,"time":201.81798,"velocity":0.1968503937007874},{"duration":0.09090900000001056,"midi":41,"time":201.81798,"velocity":0.1968503937007874},{"duration":0.09090900000001056,"midi":41,"time":201.81798,"velocity":0.1968503937007874},{"duration":0.13636350000001585,"midi":69,"time":201.81798,"velocity":0.1968503937007874},{"duration":0.09090900000001056,"midi":29,"time":201.81798,"velocity":0.1968503937007874},{"duration":0.13636350000001585,"midi":57,"time":201.81798,"velocity":0.1968503937007874},{"duration":0.09090900000001056,"midi":41,"time":201.81798,"velocity":0.1968503937007874},{"duration":0.09090900000001056,"midi":29,"time":201.81798,"velocity":0.1968503937007874},{"duration":0.09090900000001056,"midi":29,"time":201.81798,"velocity":0.1968503937007874},{"duration":0.09090900000001056,"midi":53,"time":201.999798,"velocity":0.1968503937007874},{"duration":0.09090900000001056,"midi":53,"time":201.999798,"velocity":0.1968503937007874},{"duration":0.09090900000001056,"midi":53,"time":201.999798,"velocity":0.1968503937007874},{"duration":0.09090900000001056,"midi":53,"time":201.999798,"velocity":0.1968503937007874},{"duration":0.09090900000001056,"midi":41,"time":201.999798,"velocity":0.1968503937007874},{"duration":0.09090900000001056,"midi":53,"time":201.999798,"velocity":0.1968503937007874},{"duration":0.13636350000001585,"midi":55,"time":201.999798,"velocity":0.1968503937007874},{"duration":0.09090900000001056,"midi":41,"time":201.999798,"velocity":0.1968503937007874},{"duration":0.09090900000001056,"midi":41,"time":201.999798,"velocity":0.1968503937007874},{"duration":0.09090900000001056,"midi":41,"time":201.999798,"velocity":0.1968503937007874},{"duration":0.13636350000001585,"midi":67,"time":201.999798,"velocity":0.1968503937007874},{"duration":0.09090900000001056,"midi":53,"time":201.999798,"velocity":0.1968503937007874},{"duration":0.09090900000001056,"midi":41,"time":201.999798,"velocity":0.1968503937007874},{"duration":0.09090900000001056,"midi":41,"time":201.999798,"velocity":0.1968503937007874},{"duration":0.09090899999998214,"midi":43,"time":202.18161600000002,"velocity":0.1968503937007874},{"duration":0.09090899999998214,"midi":31,"time":202.18161600000002,"velocity":0.1968503937007874},{"duration":0.09090899999998214,"midi":43,"time":202.18161600000002,"velocity":0.1968503937007874},{"duration":0.09090899999998214,"midi":31,"time":202.18161600000002,"velocity":0.1968503937007874},{"duration":0.13636349999998743,"midi":70,"time":202.18161600000002,"velocity":0.1968503937007874},{"duration":0.09090899999998214,"midi":31,"time":202.18161600000002,"velocity":0.1968503937007874},{"duration":0.09090899999998214,"midi":31,"time":202.18161600000002,"velocity":0.1968503937007874},{"duration":0.13636349999998743,"midi":58,"time":202.18161600000002,"velocity":0.1968503937007874},{"duration":0.09090899999998214,"midi":43,"time":202.18161600000002,"velocity":0.1968503937007874},{"duration":0.09090899999998214,"midi":43,"time":202.18161600000002,"velocity":0.1968503937007874},{"duration":0.09090899999998214,"midi":43,"time":202.18161600000002,"velocity":0.1968503937007874},{"duration":0.09090899999998214,"midi":31,"time":202.18161600000002,"velocity":0.1968503937007874},{"duration":0.09090899999998214,"midi":43,"time":202.18161600000002,"velocity":0.1968503937007874},{"duration":0.09090899999998214,"midi":31,"time":202.18161600000002,"velocity":0.1968503937007874},{"duration":0.09090899999998214,"midi":43,"time":202.363434,"velocity":0.1968503937007874},{"duration":0.13636349999998743,"midi":70,"time":202.363434,"velocity":0.1968503937007874},{"duration":0.09090899999998214,"midi":43,"time":202.363434,"velocity":0.1968503937007874},{"duration":0.09090899999998214,"midi":43,"time":202.363434,"velocity":0.1968503937007874},{"duration":0.09090899999998214,"midi":55,"time":202.363434,"velocity":0.1968503937007874},{"duration":0.09090899999998214,"midi":43,"time":202.363434,"velocity":0.1968503937007874},{"duration":0.09090899999998214,"midi":55,"time":202.363434,"velocity":0.1968503937007874},{"duration":0.09090899999998214,"midi":55,"time":202.363434,"velocity":0.1968503937007874},{"duration":0.09090899999998214,"midi":55,"time":202.363434,"velocity":0.1968503937007874},{"duration":0.13636349999998743,"midi":58,"time":202.363434,"velocity":0.1968503937007874},{"duration":0.09090899999998214,"midi":43,"time":202.363434,"velocity":0.1968503937007874},{"duration":0.09090899999998214,"midi":43,"time":202.363434,"velocity":0.1968503937007874},{"duration":0.09090899999998214,"midi":55,"time":202.363434,"velocity":0.1968503937007874},{"duration":0.09090899999998214,"midi":55,"time":202.363434,"velocity":0.1968503937007874},{"duration":0.09090900000001056,"midi":43,"time":202.545252,"velocity":0.1968503937007874},{"duration":0.09090900000001056,"midi":43,"time":202.545252,"velocity":0.1968503937007874},{"duration":0.09090900000001056,"midi":31,"time":202.545252,"velocity":0.1968503937007874},{"duration":0.13636350000001585,"midi":70,"time":202.545252,"velocity":0.1968503937007874},{"duration":0.09090900000001056,"midi":43,"time":202.545252,"velocity":0.1968503937007874},{"duration":0.09090900000001056,"midi":43,"time":202.545252,"velocity":0.1968503937007874},{"duration":0.09090900000001056,"midi":31,"time":202.545252,"velocity":0.1968503937007874},{"duration":0.09090900000001056,"midi":31,"time":202.545252,"velocity":0.1968503937007874},{"duration":0.09090900000001056,"midi":31,"time":202.545252,"velocity":0.1968503937007874},{"duration":0.13636350000001585,"midi":58,"time":202.545252,"velocity":0.1968503937007874},{"duration":0.09090900000001056,"midi":43,"time":202.545252,"velocity":0.1968503937007874},{"duration":0.09090900000001056,"midi":43,"time":202.545252,"velocity":0.1968503937007874},{"duration":0.09090900000001056,"midi":31,"time":202.545252,"velocity":0.1968503937007874},{"duration":0.09090900000001056,"midi":31,"time":202.545252,"velocity":0.1968503937007874},{"duration":0.09090900000001056,"midi":43,"time":202.72707,"velocity":0.1968503937007874},{"duration":0.09090900000001056,"midi":55,"time":202.72707,"velocity":0.1968503937007874},{"duration":0.09090900000001056,"midi":55,"time":202.72707,"velocity":0.1968503937007874},{"duration":0.09090900000001056,"midi":55,"time":202.72707,"velocity":0.1968503937007874},{"duration":0.09090900000001056,"midi":55,"time":202.72707,"velocity":0.1968503937007874},{"duration":0.09090900000001056,"midi":43,"time":202.72707,"velocity":0.1968503937007874},{"duration":0.09090900000001056,"midi":43,"time":202.72707,"velocity":0.1968503937007874},{"duration":0.09090900000001056,"midi":43,"time":202.72707,"velocity":0.1968503937007874},{"duration":0.13636350000001585,"midi":70,"time":202.72707,"velocity":0.1968503937007874},{"duration":0.13636350000001585,"midi":58,"time":202.72707,"velocity":0.1968503937007874},{"duration":0.09090900000001056,"midi":55,"time":202.72707,"velocity":0.1968503937007874},{"duration":0.09090900000001056,"midi":43,"time":202.72707,"velocity":0.1968503937007874},{"duration":0.09090900000001056,"midi":43,"time":202.72707,"velocity":0.1968503937007874},{"duration":0.09090900000001056,"midi":55,"time":202.72707,"velocity":0.1968503937007874},{"duration":0.13636349999998743,"midi":58,"time":202.90888800000002,"velocity":0.1968503937007874},{"duration":0.09090899999998214,"midi":31,"time":202.90888800000002,"velocity":0.1968503937007874},{"duration":0.09090899999998214,"midi":43,"time":202.90888800000002,"velocity":0.1968503937007874},{"duration":0.09090899999998214,"midi":43,"time":202.90888800000002,"velocity":0.1968503937007874},{"duration":0.09090899999998214,"midi":43,"time":202.90888800000002,"velocity":0.1968503937007874},{"duration":0.09090899999998214,"midi":43,"time":202.90888800000002,"velocity":0.1968503937007874},{"duration":0.13636349999998743,"midi":70,"time":202.90888800000002,"velocity":0.1968503937007874},{"duration":0.09090899999998214,"midi":31,"time":202.90888800000002,"velocity":0.1968503937007874},{"duration":0.09090899999998214,"midi":43,"time":202.90888800000002,"velocity":0.1968503937007874},{"duration":0.09090899999998214,"midi":31,"time":202.90888800000002,"velocity":0.1968503937007874},{"duration":0.09090899999998214,"midi":43,"time":202.90888800000002,"velocity":0.1968503937007874},{"duration":0.09090899999998214,"midi":31,"time":202.90888800000002,"velocity":0.1968503937007874},{"duration":0.09090899999998214,"midi":31,"time":202.90888800000002,"velocity":0.1968503937007874},{"duration":0.09090899999998214,"midi":31,"time":202.90888800000002,"velocity":0.1968503937007874},{"duration":0.09090900000001056,"midi":55,"time":203.090706,"velocity":0.1968503937007874},{"duration":0.09090900000001056,"midi":43,"time":203.090706,"velocity":0.1968503937007874},{"duration":0.09090900000001056,"midi":55,"time":203.090706,"velocity":0.1968503937007874},{"duration":0.09090900000001056,"midi":43,"time":203.090706,"velocity":0.1968503937007874},{"duration":0.09090900000001056,"midi":55,"time":203.090706,"velocity":0.1968503937007874},{"duration":0.09090900000001056,"midi":43,"time":203.090706,"velocity":0.1968503937007874},{"duration":0.09090900000001056,"midi":55,"time":203.090706,"velocity":0.1968503937007874},{"duration":0.13636349999998743,"midi":58,"time":203.090706,"velocity":0.1968503937007874},{"duration":0.09090900000001056,"midi":55,"time":203.090706,"velocity":0.1968503937007874},{"duration":0.09090900000001056,"midi":43,"time":203.090706,"velocity":0.1968503937007874},{"duration":0.09090900000001056,"midi":55,"time":203.090706,"velocity":0.1968503937007874},{"duration":0.09090900000001056,"midi":43,"time":203.090706,"velocity":0.1968503937007874},{"duration":0.13636349999998743,"midi":70,"time":203.090706,"velocity":0.1968503937007874},{"duration":0.09090900000001056,"midi":43,"time":203.090706,"velocity":0.1968503937007874},{"duration":0.13636350000001585,"midi":58,"time":203.272524,"velocity":0.1968503937007874},{"duration":0.09090900000001056,"midi":31,"time":203.272524,"velocity":0.1968503937007874},{"duration":0.09090900000001056,"midi":43,"time":203.272524,"velocity":0.1968503937007874},{"duration":0.09090900000001056,"midi":43,"time":203.272524,"velocity":0.1968503937007874},{"duration":0.09090900000001056,"midi":43,"time":203.272524,"velocity":0.1968503937007874},{"duration":0.09090900000001056,"midi":31,"time":203.272524,"velocity":0.1968503937007874},{"duration":0.09090900000001056,"midi":31,"time":203.272524,"velocity":0.1968503937007874},{"duration":0.09090900000001056,"midi":31,"time":203.272524,"velocity":0.1968503937007874},{"duration":0.09090900000001056,"midi":43,"time":203.272524,"velocity":0.1968503937007874},{"duration":0.09090900000001056,"midi":31,"time":203.272524,"velocity":0.1968503937007874},{"duration":0.13636350000001585,"midi":70,"time":203.272524,"velocity":0.1968503937007874},{"duration":0.09090900000001056,"midi":31,"time":203.272524,"velocity":0.1968503937007874},{"duration":0.09090900000001056,"midi":43,"time":203.272524,"velocity":0.1968503937007874},{"duration":0.09090900000001056,"midi":43,"time":203.272524,"velocity":0.1968503937007874},{"duration":0.09090900000001056,"midi":43,"time":203.454342,"velocity":0.1968503937007874},{"duration":0.09090900000001056,"midi":55,"time":203.454342,"velocity":0.1968503937007874},{"duration":0.09090900000001056,"midi":43,"time":203.454342,"velocity":0.1968503937007874},{"duration":0.09090900000001056,"midi":55,"time":203.454342,"velocity":0.1968503937007874},{"duration":0.13636350000001585,"midi":58,"time":203.454342,"velocity":0.1968503937007874},{"duration":0.09090900000001056,"midi":55,"time":203.454342,"velocity":0.1968503937007874},{"duration":0.09090900000001056,"midi":43,"time":203.454342,"velocity":0.1968503937007874},{"duration":0.09090900000001056,"midi":43,"time":203.454342,"velocity":0.1968503937007874},{"duration":0.09090900000001056,"midi":43,"time":203.454342,"velocity":0.1968503937007874},{"duration":0.13636350000001585,"midi":70,"time":203.454342,"velocity":0.1968503937007874},{"duration":0.09090900000001056,"midi":55,"time":203.454342,"velocity":0.1968503937007874},{"duration":0.09090900000001056,"midi":55,"time":203.454342,"velocity":0.1968503937007874},{"duration":0.09090900000001056,"midi":55,"time":203.454342,"velocity":0.1968503937007874},{"duration":0.09090900000001056,"midi":43,"time":203.454342,"velocity":0.1968503937007874},{"duration":0.09090899999998214,"midi":31,"time":203.63616000000002,"velocity":0.1968503937007874},{"duration":0.13636349999998743,"midi":62,"time":203.63616000000002,"velocity":0.1968503937007874},{"duration":0.09090899999998214,"midi":31,"time":203.63616000000002,"velocity":0.1968503937007874},{"duration":0.09090899999998214,"midi":31,"time":203.63616000000002,"velocity":0.1968503937007874},{"duration":0.09090899999998214,"midi":43,"time":203.63616000000002,"velocity":0.1968503937007874},{"duration":0.09090899999998214,"midi":43,"time":203.63616000000002,"velocity":0.1968503937007874},{"duration":0.09090899999998214,"midi":43,"time":203.63616000000002,"velocity":0.1968503937007874},{"duration":0.13636349999998743,"midi":74,"time":203.63616000000002,"velocity":0.1968503937007874},{"duration":0.09090900000001056,"midi":43,"time":203.817978,"velocity":0.1968503937007874},{"duration":0.09090900000001056,"midi":43,"time":203.817978,"velocity":0.1968503937007874},{"duration":0.09090900000001056,"midi":55,"time":203.817978,"velocity":0.1968503937007874},{"duration":0.09090900000001056,"midi":55,"time":203.817978,"velocity":0.1968503937007874},{"duration":0.09090900000001056,"midi":55,"time":203.817978,"velocity":0.1968503937007874},{"duration":0.13636349999998743,"midi":74,"time":203.817978,"velocity":0.1968503937007874},{"duration":0.09090900000001056,"midi":43,"time":203.817978,"velocity":0.1968503937007874},{"duration":0.13636349999998743,"midi":55,"time":203.817978,"velocity":0.1968503937007874},{"duration":0.13636349999998743,"midi":62,"time":203.817978,"velocity":0.1968503937007874},{"duration":0.09090900000001056,"midi":31,"time":203.999796,"velocity":0.1968503937007874},{"duration":0.13636350000001585,"midi":62,"time":203.999796,"velocity":0.1968503937007874},{"duration":0.09090900000001056,"midi":31,"time":203.999796,"velocity":0.1968503937007874},{"duration":0.13636350000001585,"midi":74,"time":203.999796,"velocity":0.1968503937007874},{"duration":0.09090900000001056,"midi":31,"time":203.999796,"velocity":0.1968503937007874},{"duration":0.09090900000001056,"midi":43,"time":203.999796,"velocity":0.1968503937007874},{"duration":0.09090900000001056,"midi":43,"time":203.999796,"velocity":0.1968503937007874},{"duration":0.09090900000001056,"midi":43,"time":203.999796,"velocity":0.1968503937007874},{"duration":0.09090900000001056,"midi":43,"time":204.181614,"velocity":0.1968503937007874},{"duration":0.09090900000001056,"midi":55,"time":204.181614,"velocity":0.1968503937007874},{"duration":0.13636350000001585,"midi":62,"time":204.181614,"velocity":0.1968503937007874},{"duration":0.09090900000001056,"midi":43,"time":204.181614,"velocity":0.1968503937007874},{"duration":0.09090900000001056,"midi":43,"time":204.181614,"velocity":0.1968503937007874},{"duration":0.09090900000001056,"midi":55,"time":204.181614,"velocity":0.1968503937007874},{"duration":0.09090900000001056,"midi":55,"time":204.181614,"velocity":0.1968503937007874},{"duration":0.13636350000001585,"midi":55,"time":204.181614,"velocity":0.1968503937007874},{"duration":0.13636350000001585,"midi":74,"time":204.181614,"velocity":0.1968503937007874},{"duration":0.09090899999998214,"midi":31,"time":204.36343200000002,"velocity":0.1968503937007874},{"duration":0.13636349999998743,"midi":74,"time":204.36343200000002,"velocity":0.1968503937007874},{"duration":0.13636349999998743,"midi":62,"time":204.36343200000002,"velocity":0.1968503937007874},{"duration":0.09090899999998214,"midi":43,"time":204.36343200000002,"velocity":0.1968503937007874},{"duration":0.09090899999998214,"midi":43,"time":204.36343200000002,"velocity":0.1968503937007874},{"duration":0.09090899999998214,"midi":31,"time":204.36343200000002,"velocity":0.1968503937007874},{"duration":0.09090899999998214,"midi":43,"time":204.36343200000002,"velocity":0.1968503937007874},{"duration":0.09090899999998214,"midi":31,"time":204.36343200000002,"velocity":0.1968503937007874},{"duration":0.09090900000001056,"midi":55,"time":204.54525,"velocity":0.1968503937007874},{"duration":0.09090900000001056,"midi":55,"time":204.54525,"velocity":0.1968503937007874},{"duration":0.09090900000001056,"midi":43,"time":204.54525,"velocity":0.1968503937007874},{"duration":0.09090900000001056,"midi":43,"time":204.54525,"velocity":0.1968503937007874},{"duration":0.09090900000001056,"midi":55,"time":204.54525,"velocity":0.1968503937007874},{"duration":0.09090900000001056,"midi":43,"time":204.54525,"velocity":0.1968503937007874},{"duration":0.13636349999998743,"midi":55,"time":204.54525,"velocity":0.1968503937007874},{"duration":0.13636349999998743,"midi":62,"time":204.54525,"velocity":0.1968503937007874},{"duration":0.13636349999998743,"midi":74,"time":204.54525,"velocity":0.1968503937007874},{"duration":0.09090900000001056,"midi":43,"time":204.727068,"velocity":0.1968503937007874},{"duration":0.09090900000001056,"midi":43,"time":204.727068,"velocity":0.1968503937007874},{"duration":0.09090900000001056,"midi":43,"time":204.727068,"velocity":0.1968503937007874},{"duration":0.09090900000001056,"midi":31,"time":204.727068,"velocity":0.1968503937007874},{"duration":0.13636350000001585,"midi":74,"time":204.727068,"velocity":0.1968503937007874},{"duration":0.09090900000001056,"midi":31,"time":204.727068,"velocity":0.1968503937007874},{"duration":0.09090900000001056,"midi":31,"time":204.727068,"velocity":0.1968503937007874},{"duration":0.13636350000001585,"midi":62,"time":204.727068,"velocity":0.1968503937007874},{"duration":0.13636350000001585,"midi":63,"time":204.908886,"velocity":0.1968503937007874},{"duration":0.09090900000001056,"midi":43,"time":204.908886,"velocity":0.1968503937007874},{"duration":0.09090900000001056,"midi":55,"time":204.908886,"velocity":0.1968503937007874},{"duration":0.09090900000001056,"midi":55,"time":204.908886,"velocity":0.1968503937007874},{"duration":0.09090900000001056,"midi":55,"time":204.908886,"velocity":0.1968503937007874},{"duration":0.09090900000001056,"midi":43,"time":204.908886,"velocity":0.1968503937007874},{"duration":0.09090900000001056,"midi":43,"time":204.908886,"velocity":0.1968503937007874},{"duration":0.13636350000001585,"midi":75,"time":204.908886,"velocity":0.1968503937007874},{"duration":0.13636350000001585,"midi":55,"time":204.908886,"velocity":0.1968503937007874},{"duration":0.09090899999998214,"midi":28,"time":205.09070400000002,"velocity":0.1968503937007874},{"duration":0.09090899999998214,"midi":28,"time":205.09070400000002,"velocity":0.1968503937007874},{"duration":0.13636349999998743,"midi":62,"time":205.09070400000002,"velocity":0.1968503937007874},{"duration":0.09090899999998214,"midi":40,"time":205.09070400000002,"velocity":0.1968503937007874},{"duration":0.09090899999998214,"midi":40,"time":205.09070400000002,"velocity":0.1968503937007874},{"duration":0.09090899999998214,"midi":28,"time":205.09070400000002,"velocity":0.1968503937007874},{"duration":0.09090899999998214,"midi":28,"time":205.09070400000002,"velocity":0.1968503937007874},{"duration":0.09090899999998214,"midi":28,"time":205.09070400000002,"velocity":0.1968503937007874},{"duration":0.09090899999998214,"midi":40,"time":205.09070400000002,"velocity":0.1968503937007874},{"duration":0.13636349999998743,"midi":74,"time":205.09070400000002,"velocity":0.1968503937007874},{"duration":0.09090899999998214,"midi":40,"time":205.09070400000002,"velocity":0.1968503937007874},{"duration":0.09090899999998214,"midi":40,"time":205.09070400000002,"velocity":0.1968503937007874},{"duration":0.09090899999998214,"midi":28,"time":205.09070400000002,"velocity":0.1968503937007874},{"duration":0.09090899999998214,"midi":40,"time":205.09070400000002,"velocity":0.1968503937007874},{"duration":0.09090900000001056,"midi":52,"time":205.272522,"velocity":0.1968503937007874},{"duration":0.09090900000001056,"midi":52,"time":205.272522,"velocity":0.1968503937007874},{"duration":0.09090900000001056,"midi":52,"time":205.272522,"velocity":0.1968503937007874},{"duration":0.09090900000001056,"midi":52,"time":205.272522,"velocity":0.1968503937007874},{"duration":0.09090900000001056,"midi":40,"time":205.272522,"velocity":0.1968503937007874},{"duration":0.09090900000001056,"midi":40,"time":205.272522,"velocity":0.1968503937007874},{"duration":0.09090900000001056,"midi":52,"time":205.272522,"velocity":0.1968503937007874},{"duration":0.09090900000001056,"midi":40,"time":205.272522,"velocity":0.1968503937007874},{"duration":0.09090900000001056,"midi":40,"time":205.272522,"velocity":0.1968503937007874},{"duration":0.09090900000001056,"midi":52,"time":205.272522,"velocity":0.1968503937007874},{"duration":0.09090900000001056,"midi":40,"time":205.272522,"velocity":0.1968503937007874},{"duration":0.13636349999998743,"midi":74,"time":205.272522,"velocity":0.1968503937007874},{"duration":0.13636349999998743,"midi":62,"time":205.272522,"velocity":0.1968503937007874},{"duration":0.09090900000001056,"midi":40,"time":205.272522,"velocity":0.1968503937007874},{"duration":0.09090900000001056,"midi":28,"time":205.45434,"velocity":0.1968503937007874},{"duration":0.09090900000001056,"midi":40,"time":205.45434,"velocity":0.1968503937007874},{"duration":0.09090900000001056,"midi":28,"time":205.45434,"velocity":0.1968503937007874},{"duration":0.09090900000001056,"midi":28,"time":205.45434,"velocity":0.1968503937007874},{"duration":0.13636350000001585,"midi":74,"time":205.45434,"velocity":0.1968503937007874},{"duration":0.09090900000001056,"midi":40,"time":205.45434,"velocity":0.1968503937007874},{"duration":0.09090900000001056,"midi":28,"time":205.45434,"velocity":0.1968503937007874},{"duration":0.09090900000001056,"midi":40,"time":205.45434,"velocity":0.1968503937007874},{"duration":0.09090900000001056,"midi":40,"time":205.45434,"velocity":0.1968503937007874},{"duration":0.13636350000001585,"midi":62,"time":205.45434,"velocity":0.1968503937007874},{"duration":0.09090900000001056,"midi":28,"time":205.45434,"velocity":0.1968503937007874},{"duration":0.09090900000001056,"midi":40,"time":205.45434,"velocity":0.1968503937007874},{"duration":0.09090900000001056,"midi":28,"time":205.45434,"velocity":0.1968503937007874},{"duration":0.09090900000001056,"midi":40,"time":205.45434,"velocity":0.1968503937007874},{"duration":0.09090900000001056,"midi":40,"time":205.636158,"velocity":0.1968503937007874},{"duration":0.09090900000001056,"midi":52,"time":205.636158,"velocity":0.1968503937007874},{"duration":0.09090900000001056,"midi":40,"time":205.636158,"velocity":0.1968503937007874},{"duration":0.09090900000001056,"midi":52,"time":205.636158,"velocity":0.1968503937007874},{"duration":0.13636350000001585,"midi":74,"time":205.636158,"velocity":0.1968503937007874},{"duration":0.09090900000001056,"midi":52,"time":205.636158,"velocity":0.1968503937007874},{"duration":0.13636350000001585,"midi":62,"time":205.636158,"velocity":0.1968503937007874},{"duration":0.09090900000001056,"midi":52,"time":205.636158,"velocity":0.1968503937007874},{"duration":0.09090900000001056,"midi":40,"time":205.636158,"velocity":0.1968503937007874},{"duration":0.09090900000001056,"midi":52,"time":205.636158,"velocity":0.1968503937007874},{"duration":0.09090900000001056,"midi":40,"time":205.636158,"velocity":0.1968503937007874},{"duration":0.09090900000001056,"midi":40,"time":205.636158,"velocity":0.1968503937007874},{"duration":0.09090900000001056,"midi":52,"time":205.636158,"velocity":0.1968503937007874},{"duration":0.09090900000001056,"midi":40,"time":205.636158,"velocity":0.1968503937007874},{"duration":0.09090899999998214,"midi":28,"time":205.81797600000002,"velocity":0.1968503937007874},{"duration":0.09090899999998214,"midi":28,"time":205.81797600000002,"velocity":0.1968503937007874},{"duration":0.13636349999998743,"midi":74,"time":205.81797600000002,"velocity":0.1968503937007874},{"duration":0.09090899999998214,"midi":40,"time":205.81797600000002,"velocity":0.1968503937007874},{"duration":0.09090899999998214,"midi":28,"time":205.81797600000002,"velocity":0.1968503937007874},{"duration":0.09090899999998214,"midi":28,"time":205.81797600000002,"velocity":0.1968503937007874},{"duration":0.09090899999998214,"midi":40,"time":205.81797600000002,"velocity":0.1968503937007874},{"duration":0.09090899999998214,"midi":28,"time":205.81797600000002,"velocity":0.1968503937007874},{"duration":0.09090899999998214,"midi":40,"time":205.81797600000002,"velocity":0.1968503937007874},{"duration":0.09090899999998214,"midi":40,"time":205.81797600000002,"velocity":0.1968503937007874},{"duration":0.09090899999998214,"midi":40,"time":205.81797600000002,"velocity":0.1968503937007874},{"duration":0.09090899999998214,"midi":40,"time":205.81797600000002,"velocity":0.1968503937007874},{"duration":0.13636349999998743,"midi":62,"time":205.81797600000002,"velocity":0.1968503937007874},{"duration":0.09090899999998214,"midi":28,"time":205.81797600000002,"velocity":0.1968503937007874},{"duration":0.09090900000001056,"midi":40,"time":205.999794,"velocity":0.1968503937007874},{"duration":0.09090900000001056,"midi":40,"time":205.999794,"velocity":0.1968503937007874},{"duration":0.09090900000001056,"midi":52,"time":205.999794,"velocity":0.1968503937007874},{"duration":0.13636349999998743,"midi":74,"time":205.999794,"velocity":0.1968503937007874},{"duration":0.09090900000001056,"midi":52,"time":205.999794,"velocity":0.1968503937007874},{"duration":0.13636349999998743,"midi":62,"time":205.999794,"velocity":0.1968503937007874},{"duration":0.09090900000001056,"midi":52,"time":205.999794,"velocity":0.1968503937007874},{"duration":0.09090900000001056,"midi":40,"time":205.999794,"velocity":0.1968503937007874},{"duration":0.09090900000001056,"midi":52,"time":205.999794,"velocity":0.1968503937007874},{"duration":0.09090900000001056,"midi":52,"time":205.999794,"velocity":0.1968503937007874},{"duration":0.09090900000001056,"midi":40,"time":205.999794,"velocity":0.1968503937007874},{"duration":0.09090900000001056,"midi":52,"time":205.999794,"velocity":0.1968503937007874},{"duration":0.09090900000001056,"midi":40,"time":205.999794,"velocity":0.1968503937007874},{"duration":0.09090900000001056,"midi":40,"time":205.999794,"velocity":0.1968503937007874},{"duration":0.09090900000001056,"midi":28,"time":206.181612,"velocity":0.1968503937007874},{"duration":0.13636350000001585,"midi":62,"time":206.181612,"velocity":0.1968503937007874},{"duration":0.09090900000001056,"midi":40,"time":206.181612,"velocity":0.1968503937007874},{"duration":0.09090900000001056,"midi":28,"time":206.181612,"velocity":0.1968503937007874},{"duration":0.09090900000001056,"midi":40,"time":206.181612,"velocity":0.1968503937007874},{"duration":0.09090900000001056,"midi":28,"time":206.181612,"velocity":0.1968503937007874},{"duration":0.09090900000001056,"midi":40,"time":206.181612,"velocity":0.1968503937007874},{"duration":0.09090900000001056,"midi":28,"time":206.181612,"velocity":0.1968503937007874},{"duration":0.09090900000001056,"midi":28,"time":206.181612,"velocity":0.1968503937007874},{"duration":0.09090900000001056,"midi":40,"time":206.181612,"velocity":0.1968503937007874},{"duration":0.13636350000001585,"midi":74,"time":206.181612,"velocity":0.1968503937007874},{"duration":0.09090900000001056,"midi":40,"time":206.181612,"velocity":0.1968503937007874},{"duration":0.09090900000001056,"midi":28,"time":206.181612,"velocity":0.1968503937007874},{"duration":0.09090900000001056,"midi":40,"time":206.181612,"velocity":0.1968503937007874},{"duration":0.13636349999998743,"midi":62,"time":206.36343000000002,"velocity":0.1968503937007874},{"duration":0.09090899999998214,"midi":52,"time":206.36343000000002,"velocity":0.1968503937007874},{"duration":0.09090899999998214,"midi":52,"time":206.36343000000002,"velocity":0.1968503937007874},{"duration":0.13636349999998743,"midi":74,"time":206.36343000000002,"velocity":0.1968503937007874},{"duration":0.09090899999998214,"midi":52,"time":206.36343000000002,"velocity":0.1968503937007874},{"duration":0.09090899999998214,"midi":40,"time":206.36343000000002,"velocity":0.1968503937007874},{"duration":0.09090899999998214,"midi":40,"time":206.36343000000002,"velocity":0.1968503937007874},{"duration":0.09090899999998214,"midi":40,"time":206.36343000000002,"velocity":0.1968503937007874},{"duration":0.09090899999998214,"midi":52,"time":206.36343000000002,"velocity":0.1968503937007874},{"duration":0.09090899999998214,"midi":40,"time":206.36343000000002,"velocity":0.1968503937007874},{"duration":0.09090899999998214,"midi":52,"time":206.36343000000002,"velocity":0.1968503937007874},{"duration":0.09090899999998214,"midi":40,"time":206.36343000000002,"velocity":0.1968503937007874},{"duration":0.09090899999998214,"midi":52,"time":206.36343000000002,"velocity":0.1968503937007874},{"duration":0.09090899999998214,"midi":40,"time":206.36343000000002,"velocity":0.1968503937007874},{"duration":0.09090899999998214,"midi":41,"time":206.54524800000002,"velocity":0.1968503937007874},{"duration":0.09090899999998214,"midi":29,"time":206.54524800000002,"velocity":0.1968503937007874},{"duration":0.09090899999998214,"midi":29,"time":206.54524800000002,"velocity":0.1968503937007874},{"duration":0.09090899999998214,"midi":41,"time":206.54524800000002,"velocity":0.1968503937007874},{"duration":0.09090899999998214,"midi":29,"time":206.54524800000002,"velocity":0.1968503937007874},{"duration":0.13636349999998743,"midi":57,"time":206.54524800000002,"velocity":0.1968503937007874},{"duration":0.09090899999998214,"midi":41,"time":206.54524800000002,"velocity":0.1968503937007874},{"duration":0.09090899999998214,"midi":29,"time":206.54524800000002,"velocity":0.1968503937007874},{"duration":0.13636349999998743,"midi":69,"time":206.54524800000002,"velocity":0.1968503937007874},{"duration":0.09090899999998214,"midi":29,"time":206.54524800000002,"velocity":0.1968503937007874},{"duration":0.09090899999998214,"midi":41,"time":206.54524800000002,"velocity":0.1968503937007874},{"duration":0.09090899999998214,"midi":41,"time":206.54524800000002,"velocity":0.1968503937007874},{"duration":0.09090899999998214,"midi":29,"time":206.54524800000002,"velocity":0.1968503937007874},{"duration":0.09090899999998214,"midi":41,"time":206.54524800000002,"velocity":0.1968503937007874},{"duration":0.09090900000001056,"midi":41,"time":206.727066,"velocity":0.1968503937007874},{"duration":0.09090900000001056,"midi":53,"time":206.727066,"velocity":0.1968503937007874},{"duration":0.09090900000001056,"midi":53,"time":206.727066,"velocity":0.1968503937007874},{"duration":0.13636349999998743,"midi":69,"time":206.727066,"velocity":0.1968503937007874},{"duration":0.09090900000001056,"midi":53,"time":206.727066,"velocity":0.1968503937007874},{"duration":0.09090900000001056,"midi":41,"time":206.727066,"velocity":0.1968503937007874},{"duration":0.09090900000001056,"midi":41,"time":206.727066,"velocity":0.1968503937007874},{"duration":0.09090900000001056,"midi":41,"time":206.727066,"velocity":0.1968503937007874},{"duration":0.09090900000001056,"midi":41,"time":206.727066,"velocity":0.1968503937007874},{"duration":0.09090900000001056,"midi":41,"time":206.727066,"velocity":0.1968503937007874},{"duration":0.09090900000001056,"midi":53,"time":206.727066,"velocity":0.1968503937007874},{"duration":0.09090900000001056,"midi":53,"time":206.727066,"velocity":0.1968503937007874},{"duration":0.09090900000001056,"midi":53,"time":206.727066,"velocity":0.1968503937007874},{"duration":0.13636349999998743,"midi":57,"time":206.727066,"velocity":0.1968503937007874},{"duration":0.09090900000001056,"midi":41,"time":206.908884,"velocity":0.1968503937007874},{"duration":0.09090900000001056,"midi":41,"time":206.908884,"velocity":0.1968503937007874},{"duration":0.09090900000001056,"midi":29,"time":206.908884,"velocity":0.1968503937007874},{"duration":0.09090900000001056,"midi":41,"time":206.908884,"velocity":0.1968503937007874},{"duration":0.09090900000001056,"midi":29,"time":206.908884,"velocity":0.1968503937007874},{"duration":0.09090900000001056,"midi":41,"time":206.908884,"velocity":0.1968503937007874},{"duration":0.13636350000001585,"midi":57,"time":206.908884,"velocity":0.1968503937007874},{"duration":0.09090900000001056,"midi":29,"time":206.908884,"velocity":0.1968503937007874},{"duration":0.09090900000001056,"midi":29,"time":206.908884,"velocity":0.1968503937007874},{"duration":0.09090900000001056,"midi":41,"time":206.908884,"velocity":0.1968503937007874},{"duration":0.09090900000001056,"midi":41,"time":206.908884,"velocity":0.1968503937007874},{"duration":0.09090900000001056,"midi":29,"time":206.908884,"velocity":0.1968503937007874},{"duration":0.09090900000001056,"midi":29,"time":206.908884,"velocity":0.1968503937007874},{"duration":0.13636350000001585,"midi":69,"time":206.908884,"velocity":0.1968503937007874},{"duration":0.09090899999998214,"midi":53,"time":207.09070200000002,"velocity":0.1968503937007874},{"duration":0.09090899999998214,"midi":41,"time":207.09070200000002,"velocity":0.1968503937007874},{"duration":0.09090899999998214,"midi":53,"time":207.09070200000002,"velocity":0.1968503937007874},{"duration":0.13636349999998743,"midi":69,"time":207.09070200000002,"velocity":0.1968503937007874},{"duration":0.09090899999998214,"midi":53,"time":207.09070200000002,"velocity":0.1968503937007874},{"duration":0.09090899999998214,"midi":41,"time":207.09070200000002,"velocity":0.1968503937007874},{"duration":0.13636349999998743,"midi":57,"time":207.09070200000002,"velocity":0.1968503937007874},{"duration":0.09090899999998214,"midi":41,"time":207.09070200000002,"velocity":0.1968503937007874},{"duration":0.09090899999998214,"midi":41,"time":207.09070200000002,"velocity":0.1968503937007874},{"duration":0.09090899999998214,"midi":53,"time":207.09070200000002,"velocity":0.1968503937007874},{"duration":0.09090899999998214,"midi":53,"time":207.09070200000002,"velocity":0.1968503937007874},{"duration":0.09090899999998214,"midi":41,"time":207.09070200000002,"velocity":0.1968503937007874},{"duration":0.09090899999998214,"midi":53,"time":207.09070200000002,"velocity":0.1968503937007874},{"duration":0.09090899999998214,"midi":41,"time":207.09070200000002,"velocity":0.1968503937007874},{"duration":0.09090899999998214,"midi":29,"time":207.27252000000001,"velocity":0.1968503937007874},{"duration":0.09090899999998214,"midi":29,"time":207.27252000000001,"velocity":0.1968503937007874},{"duration":0.09090899999998214,"midi":29,"time":207.27252000000001,"velocity":0.1968503937007874},{"duration":0.09090899999998214,"midi":29,"time":207.27252000000001,"velocity":0.1968503937007874},{"duration":0.09090899999998214,"midi":29,"time":207.27252000000001,"velocity":0.1968503937007874},{"duration":0.09090899999998214,"midi":41,"time":207.27252000000001,"velocity":0.1968503937007874},{"duration":0.09090899999998214,"midi":29,"time":207.27252000000001,"velocity":0.1968503937007874},{"duration":0.09090899999998214,"midi":41,"time":207.27252000000001,"velocity":0.1968503937007874},{"duration":0.09090899999998214,"midi":41,"time":207.27252000000001,"velocity":0.1968503937007874},{"duration":0.13636349999998743,"midi":57,"time":207.27252000000001,"velocity":0.1968503937007874},{"duration":0.09090899999998214,"midi":41,"time":207.27252000000001,"velocity":0.1968503937007874},{"duration":0.09090899999998214,"midi":41,"time":207.27252000000001,"velocity":0.1968503937007874},{"duration":0.13636349999998743,"midi":69,"time":207.27252000000001,"velocity":0.1968503937007874},{"duration":0.09090899999998214,"midi":41,"time":207.27252000000001,"velocity":0.1968503937007874},{"duration":0.09090900000001056,"midi":53,"time":207.454338,"velocity":0.1968503937007874},{"duration":0.09090900000001056,"midi":53,"time":207.454338,"velocity":0.1968503937007874},{"duration":0.09090900000001056,"midi":41,"time":207.454338,"velocity":0.1968503937007874},{"duration":0.09090900000001056,"midi":41,"time":207.454338,"velocity":0.1968503937007874},{"duration":0.09090900000001056,"midi":53,"time":207.454338,"velocity":0.1968503937007874},{"duration":0.13636349999998743,"midi":69,"time":207.454338,"velocity":0.1968503937007874},{"duration":0.09090900000001056,"midi":53,"time":207.454338,"velocity":0.1968503937007874},{"duration":0.09090900000001056,"midi":53,"time":207.454338,"velocity":0.1968503937007874},{"duration":0.13636349999998743,"midi":57,"time":207.454338,"velocity":0.1968503937007874},{"duration":0.09090900000001056,"midi":41,"time":207.454338,"velocity":0.1968503937007874},{"duration":0.09090900000001056,"midi":41,"time":207.454338,"velocity":0.1968503937007874},{"duration":0.09090900000001056,"midi":41,"time":207.454338,"velocity":0.1968503937007874},{"duration":0.09090900000001056,"midi":41,"time":207.454338,"velocity":0.1968503937007874},{"duration":0.09090900000001056,"midi":53,"time":207.454338,"velocity":0.1968503937007874},{"duration":0.09090900000001056,"midi":41,"time":207.636156,"velocity":0.1968503937007874},{"duration":0.09090900000001056,"midi":41,"time":207.636156,"velocity":0.1968503937007874},{"duration":0.09090900000001056,"midi":29,"time":207.636156,"velocity":0.1968503937007874},{"duration":0.09090900000001056,"midi":29,"time":207.636156,"velocity":0.1968503937007874},{"duration":0.09090900000001056,"midi":29,"time":207.636156,"velocity":0.1968503937007874},{"duration":0.09090900000001056,"midi":29,"time":207.636156,"velocity":0.1968503937007874},{"duration":0.09090900000001056,"midi":29,"time":207.636156,"velocity":0.1968503937007874},{"duration":0.09090900000001056,"midi":29,"time":207.636156,"velocity":0.1968503937007874},{"duration":0.13636350000001585,"midi":70,"time":207.636156,"velocity":0.1968503937007874},{"duration":0.09090900000001056,"midi":41,"time":207.636156,"velocity":0.1968503937007874},{"duration":0.09090900000001056,"midi":41,"time":207.636156,"velocity":0.1968503937007874},{"duration":0.13636350000001585,"midi":58,"time":207.636156,"velocity":0.1968503937007874},{"duration":0.09090900000001056,"midi":41,"time":207.636156,"velocity":0.1968503937007874},{"duration":0.09090900000001056,"midi":41,"time":207.636156,"velocity":0.1968503937007874},{"duration":0.09090899999998214,"midi":41,"time":207.81797400000002,"velocity":0.1968503937007874},{"duration":0.09090899999998214,"midi":41,"time":207.81797400000002,"velocity":0.1968503937007874},{"duration":0.09090899999998214,"midi":41,"time":207.81797400000002,"velocity":0.1968503937007874},{"duration":0.09090899999998214,"midi":41,"time":207.81797400000002,"velocity":0.1968503937007874},{"duration":0.09090899999998214,"midi":41,"time":207.81797400000002,"velocity":0.1968503937007874},{"duration":0.09090899999998214,"midi":41,"time":207.81797400000002,"velocity":0.1968503937007874},{"duration":0.09090899999998214,"midi":53,"time":207.81797400000002,"velocity":0.1968503937007874},{"duration":0.13636349999998743,"midi":69,"time":207.81797400000002,"velocity":0.1968503937007874},{"duration":0.09090899999998214,"midi":53,"time":207.81797400000002,"velocity":0.1968503937007874},{"duration":0.09090899999998214,"midi":53,"time":207.81797400000002,"velocity":0.1968503937007874},{"duration":0.13636349999998743,"midi":57,"time":207.81797400000002,"velocity":0.1968503937007874},{"duration":0.13636349999998743,"midi":55,"time":207.81797400000002,"velocity":0.1968503937007874},{"duration":0.09090899999998214,"midi":53,"time":207.81797400000002,"velocity":0.1968503937007874},{"duration":0.09090899999998214,"midi":53,"time":207.81797400000002,"velocity":0.1968503937007874},{"duration":0.09090899999998214,"midi":53,"time":207.81797400000002,"velocity":0.1968503937007874},{"duration":0.09090899999998214,"midi":43,"time":207.999792,"velocity":0.1968503937007874},{"duration":0.09090899999998214,"midi":43,"time":207.999792,"velocity":0.1968503937007874},{"duration":0.09090899999998214,"midi":43,"time":207.999792,"velocity":0.1968503937007874},{"duration":0.09090899999998214,"midi":43,"time":207.999792,"velocity":0.1968503937007874},{"duration":0.09090899999998214,"midi":31,"time":207.999792,"velocity":0.1968503937007874},{"duration":0.09090899999998214,"midi":31,"time":207.999792,"velocity":0.1968503937007874},{"duration":0.13636349999998743,"midi":67,"time":207.999792,"velocity":0.1968503937007874},{"duration":0.09090899999998214,"midi":43,"time":207.999792,"velocity":0.1968503937007874},{"duration":0.09090899999998214,"midi":31,"time":207.999792,"velocity":0.1968503937007874},{"duration":0.09090899999998214,"midi":43,"time":207.999792,"velocity":0.1968503937007874},{"duration":0.13636349999998743,"midi":55,"time":207.999792,"velocity":0.1968503937007874},{"duration":0.09090899999998214,"midi":31,"time":207.999792,"velocity":0.1968503937007874},{"duration":0.09090899999998214,"midi":31,"time":207.999792,"velocity":0.1968503937007874},{"duration":0.09090899999998214,"midi":31,"time":207.999792,"velocity":0.1968503937007874},{"duration":0.09090900000001056,"midi":43,"time":208.18161,"velocity":0.1968503937007874},{"duration":0.09090900000001056,"midi":43,"time":208.18161,"velocity":0.1968503937007874},{"duration":0.09090900000001056,"midi":55,"time":208.18161,"velocity":0.1968503937007874},{"duration":0.09090900000001056,"midi":43,"time":208.18161,"velocity":0.1968503937007874},{"duration":0.13636350000001585,"midi":67,"time":208.18161,"velocity":0.1968503937007874},{"duration":0.09090900000001056,"midi":55,"time":208.18161,"velocity":0.1968503937007874},{"duration":0.09090900000001056,"midi":55,"time":208.18161,"velocity":0.1968503937007874},{"duration":0.09090900000001056,"midi":43,"time":208.18161,"velocity":0.1968503937007874},{"duration":0.09090900000001056,"midi":55,"time":208.18161,"velocity":0.1968503937007874},{"duration":0.09090900000001056,"midi":55,"time":208.18161,"velocity":0.1968503937007874},{"duration":0.09090900000001056,"midi":43,"time":208.18161,"velocity":0.1968503937007874},{"duration":0.09090900000001056,"midi":43,"time":208.18161,"velocity":0.1968503937007874},{"duration":0.09090900000001056,"midi":55,"time":208.18161,"velocity":0.1968503937007874},{"duration":0.13636350000001585,"midi":55,"time":208.18161,"velocity":0.1968503937007874},{"duration":0.09090900000001056,"midi":31,"time":208.363428,"velocity":0.1968503937007874},{"duration":0.09090900000001056,"midi":31,"time":208.363428,"velocity":0.1968503937007874},{"duration":0.13636350000001585,"midi":55,"time":208.363428,"velocity":0.1968503937007874},{"duration":0.09090900000001056,"midi":31,"time":208.363428,"velocity":0.1968503937007874},{"duration":0.09090900000001056,"midi":43,"time":208.363428,"velocity":0.1968503937007874},{"duration":0.13636350000001585,"midi":67,"time":208.363428,"velocity":0.1968503937007874},{"duration":0.09090900000001056,"midi":31,"time":208.363428,"velocity":0.1968503937007874},{"duration":0.09090900000001056,"midi":31,"time":208.363428,"velocity":0.1968503937007874},{"duration":0.09090900000001056,"midi":43,"time":208.363428,"velocity":0.1968503937007874},{"duration":0.09090900000001056,"midi":43,"time":208.363428,"velocity":0.1968503937007874},{"duration":0.09090900000001056,"midi":43,"time":208.363428,"velocity":0.1968503937007874},{"duration":0.09090900000001056,"midi":43,"time":208.363428,"velocity":0.1968503937007874},{"duration":0.09090900000001056,"midi":31,"time":208.363428,"velocity":0.1968503937007874},{"duration":0.09090900000001056,"midi":43,"time":208.363428,"velocity":0.1968503937007874},{"duration":0.09090899999998214,"midi":55,"time":208.54524600000002,"velocity":0.1968503937007874},{"duration":0.09090899999998214,"midi":55,"time":208.54524600000002,"velocity":0.1968503937007874},{"duration":0.09090899999998214,"midi":43,"time":208.54524600000002,"velocity":0.1968503937007874},{"duration":0.09090899999998214,"midi":43,"time":208.54524600000002,"velocity":0.1968503937007874},{"duration":0.09090899999998214,"midi":55,"time":208.54524600000002,"velocity":0.1968503937007874},{"duration":0.09090899999998214,"midi":55,"time":208.54524600000002,"velocity":0.1968503937007874},{"duration":0.09090899999998214,"midi":55,"time":208.54524600000002,"velocity":0.1968503937007874},{"duration":0.09090899999998214,"midi":55,"time":208.54524600000002,"velocity":0.1968503937007874},{"duration":0.09090899999998214,"midi":43,"time":208.54524600000002,"velocity":0.1968503937007874},{"duration":0.13636349999998743,"midi":67,"time":208.54524600000002,"velocity":0.1968503937007874},{"duration":0.09090899999998214,"midi":43,"time":208.54524600000002,"velocity":0.1968503937007874},{"duration":0.09090899999998214,"midi":43,"time":208.54524600000002,"velocity":0.1968503937007874},{"duration":0.09090899999998214,"midi":43,"time":208.54524600000002,"velocity":0.1968503937007874},{"duration":0.13636349999998743,"midi":55,"time":208.54524600000002,"velocity":0.1968503937007874},{"duration":0.09090899999998214,"midi":31,"time":208.727064,"velocity":0.1968503937007874},{"duration":0.09090899999998214,"midi":31,"time":208.727064,"velocity":0.1968503937007874},{"duration":0.09090899999998214,"midi":31,"time":208.727064,"velocity":0.1968503937007874},{"duration":0.09090899999998214,"midi":43,"time":208.727064,"velocity":0.1968503937007874},{"duration":0.09090899999998214,"midi":43,"time":208.727064,"velocity":0.1968503937007874},{"duration":0.13636349999998743,"midi":55,"time":208.727064,"velocity":0.1968503937007874},{"duration":0.09090899999998214,"midi":43,"time":208.727064,"velocity":0.1968503937007874},{"duration":0.09090899999998214,"midi":31,"time":208.727064,"velocity":0.1968503937007874},{"duration":0.09090899999998214,"midi":43,"time":208.727064,"velocity":0.1968503937007874},{"duration":0.09090899999998214,"midi":43,"time":208.727064,"velocity":0.1968503937007874},{"duration":0.13636349999998743,"midi":67,"time":208.727064,"velocity":0.1968503937007874},{"duration":0.09090899999998214,"midi":31,"time":208.727064,"velocity":0.1968503937007874},{"duration":0.09090899999998214,"midi":31,"time":208.727064,"velocity":0.1968503937007874},{"duration":0.09090899999998214,"midi":43,"time":208.727064,"velocity":0.1968503937007874},{"duration":0.09090900000001056,"midi":55,"time":208.908882,"velocity":0.1968503937007874},{"duration":0.09090900000001056,"midi":43,"time":208.908882,"velocity":0.1968503937007874},{"duration":0.09090900000001056,"midi":55,"time":208.908882,"velocity":0.1968503937007874},{"duration":0.09090900000001056,"midi":55,"time":208.908882,"velocity":0.1968503937007874},{"duration":0.09090900000001056,"midi":43,"time":208.908882,"velocity":0.1968503937007874},{"duration":0.09090900000001056,"midi":43,"time":208.908882,"velocity":0.1968503937007874},{"duration":0.13636350000001585,"midi":67,"time":208.908882,"velocity":0.1968503937007874},{"duration":0.09090900000001056,"midi":43,"time":208.908882,"velocity":0.1968503937007874},{"duration":0.09090900000001056,"midi":55,"time":208.908882,"velocity":0.1968503937007874},{"duration":0.09090900000001056,"midi":43,"time":208.908882,"velocity":0.1968503937007874},{"duration":0.09090900000001056,"midi":55,"time":208.908882,"velocity":0.1968503937007874},{"duration":0.09090900000001056,"midi":55,"time":208.908882,"velocity":0.1968503937007874},{"duration":0.09090900000001056,"midi":43,"time":208.908882,"velocity":0.1968503937007874},{"duration":0.13636350000001585,"midi":55,"time":208.908882,"velocity":0.1968503937007874},{"duration":0.09090900000001056,"midi":31,"time":209.0907,"velocity":0.1968503937007874},{"duration":0.09090900000001056,"midi":43,"time":209.0907,"velocity":0.1968503937007874},{"duration":0.09090900000001056,"midi":43,"time":209.0907,"velocity":0.1968503937007874},{"duration":0.13636350000001585,"midi":67,"time":209.0907,"velocity":0.1968503937007874},{"duration":0.09090900000001056,"midi":43,"time":209.0907,"velocity":0.1968503937007874},{"duration":0.09090900000001056,"midi":31,"time":209.0907,"velocity":0.1968503937007874},{"duration":0.09090900000001056,"midi":31,"time":209.0907,"velocity":0.1968503937007874},{"duration":0.09090900000001056,"midi":43,"time":209.0907,"velocity":0.1968503937007874},{"duration":0.09090900000001056,"midi":31,"time":209.0907,"velocity":0.1968503937007874},{"duration":0.09090900000001056,"midi":31,"time":209.0907,"velocity":0.1968503937007874},{"duration":0.13636350000001585,"midi":55,"time":209.0907,"velocity":0.1968503937007874},{"duration":0.09090900000001056,"midi":43,"time":209.0907,"velocity":0.1968503937007874},{"duration":0.09090900000001056,"midi":31,"time":209.0907,"velocity":0.1968503937007874},{"duration":0.09090900000001056,"midi":43,"time":209.0907,"velocity":0.1968503937007874},{"duration":0.09090899999998214,"midi":43,"time":209.27251800000002,"velocity":0.1968503937007874},{"duration":0.09090899999998214,"midi":43,"time":209.27251800000002,"velocity":0.1968503937007874},{"duration":0.09090899999998214,"midi":43,"time":209.27251800000002,"velocity":0.1968503937007874},{"duration":0.09090899999998214,"midi":43,"time":209.27251800000002,"velocity":0.1968503937007874},{"duration":0.09090899999998214,"midi":55,"time":209.27251800000002,"velocity":0.1968503937007874},{"duration":0.09090899999998214,"midi":43,"time":209.27251800000002,"velocity":0.1968503937007874},{"duration":0.09090899999998214,"midi":55,"time":209.27251800000002,"velocity":0.1968503937007874},{"duration":0.09090899999998214,"midi":43,"time":209.27251800000002,"velocity":0.1968503937007874},{"duration":0.09090899999998214,"midi":55,"time":209.27251800000002,"velocity":0.1968503937007874},{"duration":0.09090899999998214,"midi":55,"time":209.27251800000002,"velocity":0.1968503937007874},{"duration":0.13636349999998743,"midi":67,"time":209.27251800000002,"velocity":0.1968503937007874},{"duration":0.09090899999998214,"midi":55,"time":209.27251800000002,"velocity":0.1968503937007874},{"duration":0.09090899999998214,"midi":55,"time":209.27251800000002,"velocity":0.1968503937007874},{"duration":0.13636349999998743,"midi":55,"time":209.27251800000002,"velocity":0.1968503937007874},{"duration":0.09090900000001056,"midi":58,"time":221.090688,"velocity":0.1968503937007874},{"duration":0.09090899999998214,"midi":55,"time":221.27250600000002,"velocity":0.1968503937007874},{"duration":0.09090900000001056,"midi":58,"time":221.81796,"velocity":0.1968503937007874},{"duration":0.09090899999998214,"midi":55,"time":221.99977800000002,"velocity":0.1968503937007874},{"duration":0.1818179999999927,"midi":57,"time":222.181596,"velocity":0.1968503937007874},{"duration":0.09090900000001056,"midi":58,"time":222.545232,"velocity":0.1968503937007874},{"duration":0.09090899999998214,"midi":55,"time":222.72705000000002,"velocity":0.1968503937007874},{"duration":0.09090900000001056,"midi":58,"time":223.272504,"velocity":0.1968503937007874},{"duration":0.09090899999998214,"midi":55,"time":223.45432200000002,"velocity":0.1968503937007874},{"duration":0.1818179999999927,"midi":57,"time":223.63614,"velocity":0.1968503937007874},{"duration":0.09090900000001056,"midi":58,"time":223.999776,"velocity":0.1968503937007874},{"duration":0.09090899999998214,"midi":55,"time":224.18159400000002,"velocity":0.1968503937007874},{"duration":0.09090900000001056,"midi":58,"time":224.727048,"velocity":0.1968503937007874},{"duration":0.09090899999998214,"midi":55,"time":224.90886600000002,"velocity":0.1968503937007874},{"duration":0.1818179999999927,"midi":57,"time":225.090684,"velocity":0.1968503937007874},{"duration":0.09090900000001056,"midi":58,"time":225.45432,"velocity":0.1968503937007874},{"duration":0.09090899999998214,"midi":55,"time":225.63613800000002,"velocity":0.1968503937007874},{"duration":0.09090899999998214,"midi":58,"time":226.18159200000002,"velocity":0.1968503937007874},{"duration":0.09090899999998214,"midi":55,"time":226.36341000000002,"velocity":0.1968503937007874},{"duration":0.1818179999999927,"midi":57,"time":226.545228,"velocity":0.1968503937007874},{"duration":0.09090899999998214,"midi":58,"time":226.90886400000002,"velocity":0.1968503937007874},{"duration":0.09090899999998214,"midi":55,"time":227.09068200000002,"velocity":0.1968503937007874},{"duration":0.09090899999998214,"midi":58,"time":227.63613600000002,"velocity":0.1968503937007874},{"duration":0.09090899999998214,"midi":55,"time":227.81795400000001,"velocity":0.1968503937007874},{"duration":0.1818179999999927,"midi":57,"time":227.999772,"velocity":0.1968503937007874},{"duration":0.09090899999998214,"midi":58,"time":228.36340800000002,"velocity":0.1968503937007874},{"duration":0.09090899999998214,"midi":55,"time":228.545226,"velocity":0.1968503937007874},{"duration":0.09090899999998214,"midi":58,"time":229.09068000000002,"velocity":0.1968503937007874},{"duration":0.09090899999998214,"midi":55,"time":229.272498,"velocity":0.1968503937007874},{"duration":0.1818179999999927,"midi":57,"time":229.454316,"velocity":0.1968503937007874},{"duration":0.09090899999998214,"midi":58,"time":229.81795200000002,"velocity":0.1968503937007874},{"duration":0.09090900000001056,"midi":55,"time":229.99977,"velocity":0.1968503937007874},{"duration":0.09090899999998214,"midi":58,"time":230.54522400000002,"velocity":0.1968503937007874},{"duration":0.09090900000001056,"midi":55,"time":230.727042,"velocity":0.1968503937007874},{"duration":0.1818179999999927,"midi":57,"time":230.90886,"velocity":0.1968503937007874},{"duration":0.09090899999998214,"midi":58,"time":231.27249600000002,"velocity":0.1968503937007874},{"duration":0.09090900000001056,"midi":55,"time":231.454314,"velocity":0.1968503937007874},{"duration":0.09090899999998214,"midi":58,"time":231.99976800000002,"velocity":0.1968503937007874},{"duration":0.09090900000001056,"midi":55,"time":232.181586,"velocity":0.1968503937007874},{"duration":0.1818179999999927,"midi":57,"time":232.363404,"velocity":0.1968503937007874},{"duration":0.09090899999998214,"midi":58,"time":232.72704000000002,"velocity":0.1968503937007874},{"duration":0.09090900000001056,"midi":55,"time":232.908858,"velocity":0.1968503937007874},{"duration":0.09090899999998214,"midi":58,"time":233.45431200000002,"velocity":0.1968503937007874},{"duration":0.09090900000001056,"midi":55,"time":233.63613,"velocity":0.1968503937007874},{"duration":0.18181800000002113,"midi":57,"time":233.817948,"velocity":0.1968503937007874},{"duration":0.09090899999998214,"midi":58,"time":234.18158400000002,"velocity":0.1968503937007874},{"duration":0.09090900000001056,"midi":55,"time":234.363402,"velocity":0.1968503937007874},{"duration":0.09090899999998214,"midi":58,"time":234.90885600000001,"velocity":0.1968503937007874},{"duration":0.09090900000001056,"midi":55,"time":235.090674,"velocity":0.1968503937007874},{"duration":0.18181800000002113,"midi":57,"time":235.272492,"velocity":0.1968503937007874},{"duration":0.09090899999998214,"midi":58,"time":235.636128,"velocity":0.1968503937007874},{"duration":0.09090900000001056,"midi":55,"time":235.817946,"velocity":0.1968503937007874},{"duration":0.09090900000001056,"midi":58,"time":236.3634,"velocity":0.1968503937007874},{"duration":0.09090900000001056,"midi":55,"time":236.545218,"velocity":0.1968503937007874},{"duration":0.18181800000002113,"midi":57,"time":236.727036,"velocity":0.1968503937007874},{"duration":0.09090900000001056,"midi":58,"time":237.090672,"velocity":0.1968503937007874},{"duration":0.09090900000001056,"midi":55,"time":237.27249,"velocity":0.1968503937007874},{"duration":0.09090900000001056,"midi":58,"time":237.817944,"velocity":0.1968503937007874},{"duration":0.09090900000001056,"midi":55,"time":237.999762,"velocity":0.1968503937007874},{"duration":0.18181800000002113,"midi":57,"time":238.18158,"velocity":0.1968503937007874},{"duration":0.09090900000001056,"midi":58,"time":238.545216,"velocity":0.1968503937007874},{"duration":0.09090900000001056,"midi":55,"time":238.727034,"velocity":0.1968503937007874},{"duration":0.09090900000001056,"midi":58,"time":239.272488,"velocity":0.1968503937007874},{"duration":0.09090900000001056,"midi":55,"time":239.454306,"velocity":0.1968503937007874},{"duration":0.1818179999999927,"midi":57,"time":239.63612400000002,"velocity":0.1968503937007874},{"duration":0.09090900000001056,"midi":58,"time":239.99976,"velocity":0.1968503937007874},{"duration":0.09090900000001056,"midi":55,"time":240.181578,"velocity":0.1968503937007874},{"duration":0.09090900000001056,"midi":58,"time":240.727032,"velocity":0.1968503937007874},{"duration":0.09090900000001056,"midi":55,"time":240.90885,"velocity":0.1968503937007874},{"duration":0.1818179999999927,"midi":57,"time":241.09066800000002,"velocity":0.1968503937007874},{"duration":0.09090900000001056,"midi":58,"time":241.454304,"velocity":0.1968503937007874},{"duration":0.09090900000001056,"midi":55,"time":241.636122,"velocity":0.1968503937007874},{"duration":0.09090900000001056,"midi":58,"time":242.181576,"velocity":0.1968503937007874},{"duration":0.09090900000001056,"midi":55,"time":242.363394,"velocity":0.1968503937007874},{"duration":0.1818179999999927,"midi":57,"time":242.54521200000002,"velocity":0.1968503937007874},{"duration":0.09090900000001056,"midi":58,"time":242.908848,"velocity":0.1968503937007874},{"duration":0.09090900000001056,"midi":55,"time":243.090666,"velocity":0.1968503937007874},{"duration":0.09090900000001056,"midi":58,"time":243.63612,"velocity":0.1968503937007874},{"duration":0.09090900000001056,"midi":58,"time":243.63612,"velocity":0.1968503937007874},{"duration":0.09090900000001056,"midi":55,"time":243.817938,"velocity":0.1968503937007874},{"duration":0.09090900000001056,"midi":55,"time":243.817938,"velocity":0.1968503937007874},{"duration":0.09090900000001056,"midi":55,"time":243.817938,"velocity":0.1968503937007874},{"duration":0.1818179999999927,"midi":57,"time":243.99975600000002,"velocity":0.1968503937007874},{"duration":0.1818179999999927,"midi":57,"time":243.99975600000002,"velocity":0.1968503937007874},{"duration":0.1818179999999927,"midi":57,"time":243.99975600000002,"velocity":0.1968503937007874},{"duration":0.1818179999999927,"midi":57,"time":243.99975600000002,"velocity":0.1968503937007874},{"duration":0.13636350000001585,"midi":55,"time":267.636096,"velocity":0.1968503937007874},{"duration":0.136363499999959,"midi":55,"time":267.81791400000003,"velocity":0.1968503937007874},{"duration":0.13636350000001585,"midi":55,"time":267.999732,"velocity":0.1968503937007874},{"duration":0.13636350000001585,"midi":55,"time":268.18155,"velocity":0.1968503937007874},{"duration":0.136363499999959,"midi":55,"time":268.36336800000004,"velocity":0.1968503937007874},{"duration":0.13636350000001585,"midi":55,"time":268.545186,"velocity":0.1968503937007874},{"duration":0.13636350000001585,"midi":55,"time":268.727004,"velocity":0.1968503937007874},{"duration":0.13636350000001585,"midi":55,"time":268.908822,"velocity":0.1968503937007874},{"duration":0.13636350000001585,"midi":58,"time":269.09064,"velocity":0.1968503937007874},{"duration":0.136363499999959,"midi":58,"time":269.27245800000003,"velocity":0.1968503937007874},{"duration":0.13636350000001585,"midi":58,"time":269.454276,"velocity":0.1968503937007874},{"duration":0.13636350000001585,"midi":58,"time":269.636094,"velocity":0.1968503937007874},{"duration":0.136363499999959,"midi":58,"time":269.81791200000004,"velocity":0.1968503937007874},{"duration":0.13636350000001585,"midi":58,"time":269.99973,"velocity":0.1968503937007874},{"duration":0.13636350000001585,"midi":60,"time":270.181548,"velocity":0.1968503937007874},{"duration":0.13636350000001585,"midi":58,"time":270.363366,"velocity":0.1968503937007874},{"duration":0.13636350000001585,"midi":57,"time":270.545184,"velocity":0.1968503937007874},{"duration":0.136363499999959,"midi":57,"time":270.727002,"velocity":0.1968503937007874},{"duration":0.13636350000001585,"midi":57,"time":270.90882,"velocity":0.1968503937007874},{"duration":0.13636350000001585,"midi":57,"time":271.090638,"velocity":0.1968503937007874},{"duration":0.136363499999959,"midi":57,"time":271.27245600000003,"velocity":0.1968503937007874},{"duration":0.13636350000001585,"midi":57,"time":271.454274,"velocity":0.1968503937007874},{"duration":0.13636350000001585,"midi":57,"time":271.636092,"velocity":0.1968503937007874},{"duration":0.13636350000001585,"midi":55,"time":271.81791,"velocity":0.1968503937007874},{"duration":0.13636350000001585,"midi":58,"time":271.999728,"velocity":0.1968503937007874},{"duration":0.136363499999959,"midi":58,"time":272.181546,"velocity":0.1968503937007874},{"duration":0.13636350000001585,"midi":58,"time":272.363364,"velocity":0.1968503937007874},{"duration":0.13636350000001585,"midi":58,"time":272.545182,"velocity":0.1968503937007874},{"duration":0.136363499999959,"midi":58,"time":272.72700000000003,"velocity":0.1968503937007874},{"duration":0.13636350000001585,"midi":58,"time":272.908818,"velocity":0.1968503937007874},{"duration":0.13636350000001585,"midi":58,"time":273.090636,"velocity":0.1968503937007874},{"duration":0.136363499999959,"midi":58,"time":273.27245400000004,"velocity":0.1968503937007874},{"duration":0.13636350000001585,"midi":62,"time":273.454272,"velocity":0.1968503937007874},{"duration":0.136363499999959,"midi":62,"time":273.63609,"velocity":0.1968503937007874},{"duration":0.13636350000001585,"midi":62,"time":273.817908,"velocity":0.1968503937007874},{"duration":0.13636350000001585,"midi":62,"time":273.999726,"velocity":0.1968503937007874},{"duration":0.136363499999959,"midi":62,"time":274.18154400000003,"velocity":0.1968503937007874},{"duration":0.13636350000001585,"midi":62,"time":274.363362,"velocity":0.1968503937007874},{"duration":0.13636350000001585,"midi":62,"time":274.54518,"velocity":0.1968503937007874},{"duration":0.136363499999959,"midi":63,"time":274.72699800000004,"velocity":0.1968503937007874},{"duration":0.13636350000001585,"midi":62,"time":274.908816,"velocity":0.1968503937007874},{"duration":0.13636350000001585,"midi":62,"time":275.090634,"velocity":0.1968503937007874},{"duration":0.13636350000001585,"midi":62,"time":275.272452,"velocity":0.1968503937007874},{"duration":0.13636350000001585,"midi":62,"time":275.45427,"velocity":0.1968503937007874},{"duration":0.136363499999959,"midi":62,"time":275.63608800000003,"velocity":0.1968503937007874},{"duration":0.13636350000001585,"midi":62,"time":275.817906,"velocity":0.1968503937007874},{"duration":0.13636350000001585,"midi":62,"time":275.999724,"velocity":0.1968503937007874},{"duration":0.136363499999959,"midi":62,"time":276.18154200000004,"velocity":0.1968503937007874},{"duration":0.13636350000001585,"midi":57,"time":276.36336,"velocity":0.1968503937007874},{"duration":0.13636350000001585,"midi":57,"time":276.545178,"velocity":0.1968503937007874},{"duration":0.13636350000001585,"midi":57,"time":276.726996,"velocity":0.1968503937007874},{"duration":0.13636350000001585,"midi":57,"time":276.908814,"velocity":0.1968503937007874},{"duration":0.136363499999959,"midi":57,"time":277.090632,"velocity":0.1968503937007874},{"duration":0.13636350000001585,"midi":57,"time":277.27245,"velocity":0.1968503937007874},{"duration":0.13636350000001585,"midi":58,"time":277.454268,"velocity":0.1968503937007874},{"duration":0.136363499999959,"midi":57,"time":277.63608600000003,"velocity":0.1968503937007874},{"duration":0.13636350000001585,"midi":55,"time":277.817904,"velocity":0.1968503937007874},{"duration":0.13636350000001585,"midi":55,"time":277.999722,"velocity":0.1968503937007874},{"duration":0.13636350000001585,"midi":55,"time":278.18154,"velocity":0.1968503937007874},{"duration":0.13636350000001585,"midi":55,"time":278.363358,"velocity":0.1968503937007874},{"duration":0.136363499999959,"midi":55,"time":278.545176,"velocity":0.1968503937007874},{"duration":0.13636350000001585,"midi":55,"time":278.726994,"velocity":0.1968503937007874},{"duration":0.13636350000001585,"midi":53,"time":278.908812,"velocity":0.1968503937007874},{"duration":0.136363499999959,"midi":53,"time":279.09063000000003,"velocity":0.1968503937007874},{"duration":0.13636350000001585,"midi":55,"time":279.272448,"velocity":0.1968503937007874},{"duration":0.13636350000001585,"midi":55,"time":279.454266,"velocity":0.1968503937007874},{"duration":0.136363499999959,"midi":55,"time":279.63608400000004,"velocity":0.1968503937007874},{"duration":0.13636350000001585,"midi":55,"time":279.817902,"velocity":0.1968503937007874},{"duration":0.136363499999959,"midi":55,"time":279.99972,"velocity":0.1968503937007874},{"duration":0.13636350000001585,"midi":55,"time":280.181538,"velocity":0.1968503937007874},{"duration":0.13636350000001585,"midi":55,"time":280.363356,"velocity":0.1968503937007874},{"duration":0.136363499999959,"midi":55,"time":280.54517400000003,"velocity":0.1968503937007874},{"duration":0.13636350000001585,"midi":58,"time":280.726992,"velocity":0.1968503937007874},{"duration":0.13636350000001585,"midi":58,"time":280.90881,"velocity":0.1968503937007874},{"duration":0.136363499999959,"midi":58,"time":281.09062800000004,"velocity":0.1968503937007874},{"duration":0.13636350000001585,"midi":58,"time":281.272446,"velocity":0.1968503937007874},{"duration":0.13636350000001585,"midi":58,"time":281.454264,"velocity":0.1968503937007874},{"duration":0.13636350000001585,"midi":58,"time":281.636082,"velocity":0.1968503937007874},{"duration":0.13636350000001585,"midi":60,"time":281.8179,"velocity":0.1968503937007874},{"duration":0.136363499999959,"midi":58,"time":281.99971800000003,"velocity":0.1968503937007874},{"duration":0.13636350000001585,"midi":57,"time":282.181536,"velocity":0.1968503937007874},{"duration":0.13636350000001585,"midi":57,"time":282.363354,"velocity":0.1968503937007874},{"duration":0.136363499999959,"midi":57,"time":282.54517200000004,"velocity":0.1968503937007874},{"duration":0.13636350000001585,"midi":57,"time":282.72699,"velocity":0.1968503937007874},{"duration":0.13636350000001585,"midi":57,"time":282.908808,"velocity":0.1968503937007874},{"duration":0.13636350000001585,"midi":57,"time":283.090626,"velocity":0.1968503937007874},{"duration":0.13636350000001585,"midi":57,"time":283.272444,"velocity":0.1968503937007874},{"duration":0.136363499999959,"midi":55,"time":283.454262,"velocity":0.1968503937007874},{"duration":0.13636350000001585,"midi":58,"time":283.63608,"velocity":0.1968503937007874},{"duration":0.13636350000001585,"midi":58,"time":283.817898,"velocity":0.1968503937007874},{"duration":0.136363499999959,"midi":58,"time":283.99971600000003,"velocity":0.1968503937007874},{"duration":0.13636350000001585,"midi":58,"time":284.181534,"velocity":0.1968503937007874},{"duration":0.13636350000001585,"midi":58,"time":284.363352,"velocity":0.1968503937007874},{"duration":0.13636350000001585,"midi":58,"time":284.54517,"velocity":0.1968503937007874},{"duration":0.13636350000001585,"midi":58,"time":284.726988,"velocity":0.1968503937007874},{"duration":0.136363499999959,"midi":58,"time":284.908806,"velocity":0.1968503937007874},{"duration":0.13636350000001585,"midi":62,"time":285.090624,"velocity":0.1968503937007874},{"duration":0.13636350000001585,"midi":62,"time":285.272442,"velocity":0.1968503937007874},{"duration":0.136363499999959,"midi":62,"time":285.45426000000003,"velocity":0.1968503937007874},{"duration":0.13636350000001585,"midi":62,"time":285.636078,"velocity":0.1968503937007874},{"duration":0.13636350000001585,"midi":62,"time":285.817896,"velocity":0.1968503937007874},{"duration":0.136363499999959,"midi":62,"time":285.99971400000004,"velocity":0.1968503937007874},{"duration":0.13636350000001585,"midi":62,"time":286.181532,"velocity":0.1968503937007874},{"duration":0.136363499999959,"midi":63,"time":286.36335,"velocity":0.1968503937007874},{"duration":0.13636350000001585,"midi":62,"time":286.545168,"velocity":0.1968503937007874},{"duration":0.13636350000001585,"midi":62,"time":286.726986,"velocity":0.1968503937007874},{"duration":0.136363499999959,"midi":62,"time":286.90880400000003,"velocity":0.1968503937007874},{"duration":0.13636350000001585,"midi":62,"time":287.090622,"velocity":0.1968503937007874},{"duration":0.13636350000001585,"midi":62,"time":287.27244,"velocity":0.1968503937007874},{"duration":0.136363499999959,"midi":62,"time":287.45425800000004,"velocity":0.1968503937007874},{"duration":0.13636350000001585,"midi":62,"time":287.636076,"velocity":0.1968503937007874},{"duration":0.13636350000001585,"midi":62,"time":287.817894,"velocity":0.1968503937007874},{"duration":0.13636350000001585,"midi":57,"time":287.999712,"velocity":0.1968503937007874},{"duration":0.13636350000001585,"midi":57,"time":288.18153,"velocity":0.1968503937007874},{"duration":0.136363499999959,"midi":57,"time":288.36334800000003,"velocity":0.1968503937007874},{"duration":0.13636350000001585,"midi":57,"time":288.545166,"velocity":0.1968503937007874},{"duration":0.13636350000001585,"midi":57,"time":288.726984,"velocity":0.1968503937007874},{"duration":0.136363499999959,"midi":57,"time":288.90880200000004,"velocity":0.1968503937007874},{"duration":0.13636350000001585,"midi":58,"time":289.09062,"velocity":0.1968503937007874},{"duration":0.13636350000001585,"midi":57,"time":289.272438,"velocity":0.1968503937007874},{"duration":0.13636350000001585,"midi":55,"time":289.454256,"velocity":0.1968503937007874},{"duration":0.13636350000001585,"midi":55,"time":289.636074,"velocity":0.1968503937007874},{"duration":0.136363499999959,"midi":55,"time":289.81789200000003,"velocity":0.1968503937007874},{"duration":0.13636350000001585,"midi":55,"time":289.99971,"velocity":0.1968503937007874},{"duration":0.13636350000001585,"midi":55,"time":290.181528,"velocity":0.1968503937007874},{"duration":0.136363499999959,"midi":55,"time":290.36334600000004,"velocity":0.1968503937007874},{"duration":0.13636350000001585,"midi":53,"time":290.545164,"velocity":0.1968503937007874},{"duration":0.13636350000001585,"midi":53,"time":290.726982,"velocity":0.1968503937007874}]},{"instrument":{"family":"synth lead","number":87,"name":"lead 8 (bass + lead)"},"notes":[{"duration":0.1818179999999927,"midi":43,"time":140.727132,"velocity":0.7322834645669292},{"duration":0.1818179999999927,"midi":43,"time":140.90895,"velocity":0.7322834645669292},{"duration":0.1818179999999927,"midi":40,"time":142.181676,"velocity":0.7322834645669292},{"duration":0.1818179999999927,"midi":40,"time":142.363494,"velocity":0.7322834645669292},{"duration":0.1818179999999927,"midi":41,"time":143.63622,"velocity":0.7322834645669292},{"duration":0.1818179999999927,"midi":41,"time":143.818038,"velocity":0.7322834645669292},{"duration":0.1818179999999927,"midi":43,"time":145.090764,"velocity":0.7322834645669292},{"duration":0.1818179999999927,"midi":43,"time":145.272582,"velocity":0.7322834645669292},{"duration":0.1818179999999927,"midi":43,"time":146.545308,"velocity":0.7322834645669292},{"duration":0.18181800000002113,"midi":43,"time":146.727126,"velocity":0.7322834645669292},{"duration":0.1818179999999927,"midi":40,"time":147.999852,"velocity":0.7322834645669292},{"duration":0.18181800000002113,"midi":40,"time":148.18167,"velocity":0.7322834645669292},{"duration":0.1818179999999927,"midi":41,"time":149.454396,"velocity":0.7322834645669292},{"duration":0.18181800000002113,"midi":41,"time":149.636214,"velocity":0.7322834645669292},{"duration":0.1818179999999927,"midi":43,"time":150.90894,"velocity":0.7322834645669292},{"duration":0.18181800000002113,"midi":43,"time":151.090758,"velocity":0.7322834645669292}]},{"instrument":{"family":"synth effects","number":99,"name":"fx 4 (atmosphere)"},"notes":[{"duration":0.1818179999999927,"midi":55,"time":174.54528000000002,"velocity":0.3937007874015748},{"duration":0.1818179999999927,"midi":67,"time":174.54528000000002,"velocity":0.3937007874015748},{"duration":0.1818179999999927,"midi":55,"time":174.54528000000002,"velocity":0.3937007874015748},{"duration":0.1818179999999927,"midi":67,"time":174.54528000000002,"velocity":0.3937007874015748},{"duration":0.1818179999999927,"midi":67,"time":174.727098,"velocity":0.3937007874015748},{"duration":0.1818179999999927,"midi":67,"time":174.727098,"velocity":0.3937007874015748},{"duration":0.1818179999999927,"midi":55,"time":174.727098,"velocity":0.3937007874015748},{"duration":0.1818179999999927,"midi":55,"time":174.727098,"velocity":0.3937007874015748},{"duration":0.09090900000001056,"midi":55,"time":174.908916,"velocity":0.3937007874015748},{"duration":0.09090900000001056,"midi":55,"time":174.908916,"velocity":0.3937007874015748},{"duration":0.09090900000001056,"midi":67,"time":174.908916,"velocity":0.3937007874015748},{"duration":0.09090900000001056,"midi":67,"time":174.908916,"velocity":0.3937007874015748},{"duration":0.1818179999999927,"midi":55,"time":174.99982500000002,"velocity":0.3937007874015748},{"duration":0.1818179999999927,"midi":67,"time":174.99982500000002,"velocity":0.3937007874015748},{"duration":0.1818179999999927,"midi":67,"time":174.99982500000002,"velocity":0.3937007874015748},{"duration":0.1818179999999927,"midi":55,"time":174.99982500000002,"velocity":0.3937007874015748},{"duration":0.09090900000001056,"midi":55,"time":175.181643,"velocity":0.3937007874015748},{"duration":0.09090900000001056,"midi":55,"time":175.181643,"velocity":0.3937007874015748},{"duration":0.09090900000001056,"midi":67,"time":175.181643,"velocity":0.3937007874015748},{"duration":0.09090900000001056,"midi":67,"time":175.181643,"velocity":0.3937007874015748},{"duration":0.1818179999999927,"midi":67,"time":175.27255200000002,"velocity":0.3937007874015748},{"duration":0.1818179999999927,"midi":67,"time":175.27255200000002,"velocity":0.3937007874015748},{"duration":0.1818179999999927,"midi":55,"time":175.27255200000002,"velocity":0.3937007874015748},{"duration":0.1818179999999927,"midi":55,"time":175.27255200000002,"velocity":0.3937007874015748},{"duration":0.1818179999999927,"midi":55,"time":175.45437,"velocity":0.3937007874015748},{"duration":0.1818179999999927,"midi":55,"time":175.45437,"velocity":0.3937007874015748},{"duration":0.1818179999999927,"midi":67,"time":175.45437,"velocity":0.3937007874015748},{"duration":0.1818179999999927,"midi":67,"time":175.45437,"velocity":0.3937007874015748},{"duration":0.1818179999999927,"midi":67,"time":175.636188,"velocity":0.3937007874015748},{"duration":0.1818179999999927,"midi":55,"time":175.636188,"velocity":0.3937007874015748},{"duration":0.1818179999999927,"midi":55,"time":175.636188,"velocity":0.3937007874015748},{"duration":0.1818179999999927,"midi":67,"time":175.636188,"velocity":0.3937007874015748},{"duration":0.18181800000002113,"midi":55,"time":175.818006,"velocity":0.3937007874015748},{"duration":0.18181800000002113,"midi":67,"time":175.818006,"velocity":0.3937007874015748},{"duration":0.18181800000002113,"midi":55,"time":175.818006,"velocity":0.3937007874015748},{"duration":0.18181800000002113,"midi":67,"time":175.818006,"velocity":0.3937007874015748},{"duration":0.1818179999999927,"midi":58,"time":175.99982400000002,"velocity":0.3937007874015748},{"duration":0.1818179999999927,"midi":70,"time":175.99982400000002,"velocity":0.3937007874015748},{"duration":0.1818179999999927,"midi":70,"time":176.181642,"velocity":0.3937007874015748},{"duration":0.1818179999999927,"midi":58,"time":176.181642,"velocity":0.3937007874015748},{"duration":0.09090900000001056,"midi":58,"time":176.36346,"velocity":0.3937007874015748},{"duration":0.09090900000001056,"midi":70,"time":176.36346,"velocity":0.3937007874015748},{"duration":0.1818179999999927,"midi":70,"time":176.454369,"velocity":0.3937007874015748},{"duration":0.1818179999999927,"midi":58,"time":176.454369,"velocity":0.3937007874015748},{"duration":0.09090900000001056,"midi":70,"time":176.636187,"velocity":0.3937007874015748},{"duration":0.09090900000001056,"midi":58,"time":176.636187,"velocity":0.3937007874015748},{"duration":0.1818179999999927,"midi":70,"time":176.72709600000002,"velocity":0.3937007874015748},{"duration":0.1818179999999927,"midi":58,"time":176.72709600000002,"velocity":0.3937007874015748},{"duration":0.1818179999999927,"midi":58,"time":176.908914,"velocity":0.3937007874015748},{"duration":0.1818179999999927,"midi":70,"time":176.908914,"velocity":0.3937007874015748},{"duration":0.1818179999999927,"midi":72,"time":177.090732,"velocity":0.3937007874015748},{"duration":0.1818179999999927,"midi":60,"time":177.090732,"velocity":0.3937007874015748},{"duration":0.18181800000002113,"midi":58,"time":177.27255,"velocity":0.3937007874015748},{"duration":0.18181800000002113,"midi":70,"time":177.27255,"velocity":0.3937007874015748},{"duration":0.1818179999999927,"midi":53,"time":177.45436800000002,"velocity":0.3937007874015748},{"duration":0.1818179999999927,"midi":65,"time":177.45436800000002,"velocity":0.3937007874015748},{"duration":0.1818179999999927,"midi":65,"time":177.636186,"velocity":0.3937007874015748},{"duration":0.1818179999999927,"midi":53,"time":177.636186,"velocity":0.3937007874015748},{"duration":0.09090900000001056,"midi":53,"time":177.818004,"velocity":0.3937007874015748},{"duration":0.09090900000001056,"midi":65,"time":177.818004,"velocity":0.3937007874015748},{"duration":0.1818179999999927,"midi":65,"time":177.908913,"velocity":0.3937007874015748},{"duration":0.1818179999999927,"midi":53,"time":177.908913,"velocity":0.3937007874015748},{"duration":0.09090900000001056,"midi":65,"time":178.090731,"velocity":0.3937007874015748},{"duration":0.09090900000001056,"midi":53,"time":178.090731,"velocity":0.3937007874015748},{"duration":0.1818179999999927,"midi":65,"time":178.18164000000002,"velocity":0.3937007874015748},{"duration":0.1818179999999927,"midi":53,"time":178.18164000000002,"velocity":0.3937007874015748},{"duration":0.1818179999999927,"midi":53,"time":178.363458,"velocity":0.3937007874015748},{"duration":0.1818179999999927,"midi":65,"time":178.363458,"velocity":0.3937007874015748},{"duration":0.1818179999999927,"midi":65,"time":178.545276,"velocity":0.3937007874015748},{"duration":0.1818179999999927,"midi":53,"time":178.545276,"velocity":0.3937007874015748},{"duration":0.18181800000002113,"midi":50,"time":178.727094,"velocity":0.3937007874015748},{"duration":0.18181800000002113,"midi":62,"time":178.727094,"velocity":0.3937007874015748},{"duration":0.1818179999999927,"midi":67,"time":178.90891200000002,"velocity":0.3937007874015748},{"duration":0.1818179999999927,"midi":55,"time":178.90891200000002,"velocity":0.3937007874015748},{"duration":0.1818179999999927,"midi":55,"time":179.09073,"velocity":0.3937007874015748},{"duration":0.1818179999999927,"midi":67,"time":179.09073,"velocity":0.3937007874015748},{"duration":0.09090900000001056,"midi":55,"time":179.272548,"velocity":0.3937007874015748},{"duration":0.09090900000001056,"midi":67,"time":179.272548,"velocity":0.3937007874015748},{"duration":0.1818179999999927,"midi":55,"time":179.363457,"velocity":0.3937007874015748},{"duration":0.1818179999999927,"midi":67,"time":179.363457,"velocity":0.3937007874015748},{"duration":0.09090900000001056,"midi":67,"time":179.545275,"velocity":0.3937007874015748},{"duration":0.09090900000001056,"midi":55,"time":179.545275,"velocity":0.3937007874015748},{"duration":0.1818179999999927,"midi":67,"time":179.63618400000001,"velocity":0.3937007874015748},{"duration":0.1818179999999927,"midi":55,"time":179.63618400000001,"velocity":0.3937007874015748},{"duration":0.1818179999999927,"midi":55,"time":179.818002,"velocity":0.3937007874015748},{"duration":0.1818179999999927,"midi":67,"time":179.818002,"velocity":0.3937007874015748},{"duration":0.18181800000002113,"midi":55,"time":179.99982,"velocity":0.3937007874015748},{"duration":0.18181800000002113,"midi":67,"time":179.99982,"velocity":0.3937007874015748},{"duration":0.1818179999999927,"midi":65,"time":180.18163800000002,"velocity":0.3937007874015748},{"duration":0.1818179999999927,"midi":53,"time":180.18163800000002,"velocity":0.3937007874015748},{"duration":0.1818179999999927,"midi":55,"time":180.363456,"velocity":0.3937007874015748},{"duration":0.1818179999999927,"midi":67,"time":180.363456,"velocity":0.3937007874015748},{"duration":0.1818179999999927,"midi":67,"time":180.545274,"velocity":0.3937007874015748},{"duration":0.1818179999999927,"midi":55,"time":180.545274,"velocity":0.3937007874015748},{"duration":0.09090900000001056,"midi":55,"time":180.727092,"velocity":0.3937007874015748},{"duration":0.09090900000001056,"midi":67,"time":180.727092,"velocity":0.3937007874015748},{"duration":0.1818179999999927,"midi":55,"time":180.818001,"velocity":0.3937007874015748},{"duration":0.1818179999999927,"midi":67,"time":180.818001,"velocity":0.3937007874015748},{"duration":0.09090900000001056,"midi":67,"time":180.999819,"velocity":0.3937007874015748},{"duration":0.09090900000001056,"midi":55,"time":180.999819,"velocity":0.3937007874015748},{"duration":0.1818179999999927,"midi":67,"time":181.090728,"velocity":0.3937007874015748},{"duration":0.1818179999999927,"midi":55,"time":181.090728,"velocity":0.3937007874015748},{"duration":0.1818179999999927,"midi":55,"time":181.272546,"velocity":0.3937007874015748},{"duration":0.1818179999999927,"midi":67,"time":181.272546,"velocity":0.3937007874015748},{"duration":0.18181800000002113,"midi":55,"time":181.454364,"velocity":0.3937007874015748},{"duration":0.18181800000002113,"midi":67,"time":181.454364,"velocity":0.3937007874015748},{"duration":0.1818179999999927,"midi":55,"time":181.63618200000002,"velocity":0.3937007874015748},{"duration":0.1818179999999927,"midi":67,"time":181.63618200000002,"velocity":0.3937007874015748},{"duration":0.1818179999999927,"midi":58,"time":181.818,"velocity":0.3937007874015748},{"duration":0.1818179999999927,"midi":70,"time":181.818,"velocity":0.3937007874015748},{"duration":0.1818179999999927,"midi":58,"time":181.999818,"velocity":0.3937007874015748},{"duration":0.1818179999999927,"midi":70,"time":181.999818,"velocity":0.3937007874015748},{"duration":0.09090900000001056,"midi":58,"time":182.181636,"velocity":0.3937007874015748},{"duration":0.09090900000001056,"midi":70,"time":182.181636,"velocity":0.3937007874015748},{"duration":0.1818179999999927,"midi":70,"time":182.272545,"velocity":0.3937007874015748},{"duration":0.1818179999999927,"midi":58,"time":182.272545,"velocity":0.3937007874015748},{"duration":0.09090900000001056,"midi":58,"time":182.454363,"velocity":0.3937007874015748},{"duration":0.09090900000001056,"midi":70,"time":182.454363,"velocity":0.3937007874015748},{"duration":0.1818179999999927,"midi":70,"time":182.545272,"velocity":0.3937007874015748},{"duration":0.1818179999999927,"midi":58,"time":182.545272,"velocity":0.3937007874015748},{"duration":0.1818179999999927,"midi":58,"time":182.72709,"velocity":0.3937007874015748},{"duration":0.1818179999999927,"midi":70,"time":182.72709,"velocity":0.3937007874015748},{"duration":0.18181800000002113,"midi":60,"time":182.908908,"velocity":0.3937007874015748},{"duration":0.18181800000002113,"midi":72,"time":182.908908,"velocity":0.3937007874015748},{"duration":0.1818179999999927,"midi":70,"time":183.09072600000002,"velocity":0.3937007874015748},{"duration":0.1818179999999927,"midi":58,"time":183.09072600000002,"velocity":0.3937007874015748},{"duration":0.1818179999999927,"midi":65,"time":183.272544,"velocity":0.3937007874015748},{"duration":0.1818179999999927,"midi":53,"time":183.272544,"velocity":0.3937007874015748},{"duration":0.1818179999999927,"midi":53,"time":183.454362,"velocity":0.3937007874015748},{"duration":0.1818179999999927,"midi":65,"time":183.454362,"velocity":0.3937007874015748},{"duration":0.09090900000001056,"midi":65,"time":183.63618,"velocity":0.3937007874015748},{"duration":0.09090900000001056,"midi":53,"time":183.63618,"velocity":0.3937007874015748},{"duration":0.1818179999999927,"midi":65,"time":183.727089,"velocity":0.3937007874015748},{"duration":0.1818179999999927,"midi":53,"time":183.727089,"velocity":0.3937007874015748},{"duration":0.09090900000001056,"midi":65,"time":183.908907,"velocity":0.3937007874015748},{"duration":0.09090900000001056,"midi":53,"time":183.908907,"velocity":0.3937007874015748},{"duration":0.1818179999999927,"midi":65,"time":183.999816,"velocity":0.3937007874015748},{"duration":0.1818179999999927,"midi":53,"time":183.999816,"velocity":0.3937007874015748},{"duration":0.1818179999999927,"midi":65,"time":184.181634,"velocity":0.3937007874015748},{"duration":0.1818179999999927,"midi":53,"time":184.181634,"velocity":0.3937007874015748},{"duration":0.18181800000002113,"midi":53,"time":184.363452,"velocity":0.3937007874015748},{"duration":0.18181800000002113,"midi":65,"time":184.363452,"velocity":0.3937007874015748},{"duration":0.1818179999999927,"midi":62,"time":184.54527000000002,"velocity":0.3937007874015748},{"duration":0.1818179999999927,"midi":50,"time":184.54527000000002,"velocity":0.3937007874015748},{"duration":0.1818179999999927,"midi":67,"time":186.181632,"velocity":0.3937007874015748},{"duration":0.1818179999999927,"midi":55,"time":186.181632,"velocity":0.3937007874015748},{"duration":0.18181800000002113,"midi":55,"time":186.36345,"velocity":0.3937007874015748},{"duration":0.18181800000002113,"midi":67,"time":186.36345,"velocity":0.3937007874015748},{"duration":0.1818179999999927,"midi":67,"time":186.54526800000002,"velocity":0.3937007874015748},{"duration":0.1818179999999927,"midi":55,"time":186.54526800000002,"velocity":0.3937007874015748},{"duration":0.1818179999999927,"midi":55,"time":186.727086,"velocity":0.3937007874015748},{"duration":0.1818179999999927,"midi":67,"time":186.727086,"velocity":0.3937007874015748},{"duration":0.1818179999999927,"midi":67,"time":186.908904,"velocity":0.3937007874015748},{"duration":0.1818179999999927,"midi":55,"time":186.908904,"velocity":0.3937007874015748},{"duration":0.18181800000002113,"midi":55,"time":187.090722,"velocity":0.3937007874015748},{"duration":0.18181800000002113,"midi":67,"time":187.090722,"velocity":0.3937007874015748},{"duration":0.1818179999999927,"midi":55,"time":187.27254000000002,"velocity":0.3937007874015748},{"duration":0.1818179999999927,"midi":67,"time":187.27254000000002,"velocity":0.3937007874015748},{"duration":0.1818179999999927,"midi":55,"time":187.454358,"velocity":0.3937007874015748},{"duration":0.1818179999999927,"midi":67,"time":187.454358,"velocity":0.3937007874015748},{"duration":0.1818179999999927,"midi":58,"time":187.636176,"velocity":0.3937007874015748},{"duration":0.1818179999999927,"midi":70,"time":187.636176,"velocity":0.3937007874015748},{"duration":0.18181800000002113,"midi":70,"time":187.817994,"velocity":0.3937007874015748},{"duration":0.18181800000002113,"midi":58,"time":187.817994,"velocity":0.3937007874015748},{"duration":0.1818179999999927,"midi":58,"time":187.99981200000002,"velocity":0.3937007874015748},{"duration":0.1818179999999927,"midi":70,"time":187.99981200000002,"velocity":0.3937007874015748},{"duration":0.1818179999999927,"midi":70,"time":188.18163,"velocity":0.3937007874015748},{"duration":0.1818179999999927,"midi":58,"time":188.18163,"velocity":0.3937007874015748},{"duration":0.1818179999999927,"midi":58,"time":188.363448,"velocity":0.3937007874015748},{"duration":0.1818179999999927,"midi":70,"time":188.363448,"velocity":0.3937007874015748},{"duration":0.18181800000002113,"midi":70,"time":188.545266,"velocity":0.3937007874015748},{"duration":0.18181800000002113,"midi":58,"time":188.545266,"velocity":0.3937007874015748},{"duration":0.1818179999999927,"midi":60,"time":188.72708400000002,"velocity":0.3937007874015748},{"duration":0.1818179999999927,"midi":72,"time":188.72708400000002,"velocity":0.3937007874015748},{"duration":0.1818179999999927,"midi":70,"time":188.908902,"velocity":0.3937007874015748},{"duration":0.1818179999999927,"midi":58,"time":188.908902,"velocity":0.3937007874015748},{"duration":0.1818179999999927,"midi":69,"time":189.09072,"velocity":0.3937007874015748},{"duration":0.1818179999999927,"midi":57,"time":189.09072,"velocity":0.3937007874015748},{"duration":0.18181800000002113,"midi":69,"time":189.272538,"velocity":0.3937007874015748},{"duration":0.18181800000002113,"midi":57,"time":189.272538,"velocity":0.3937007874015748},{"duration":0.1818179999999927,"midi":69,"time":189.45435600000002,"velocity":0.3937007874015748},{"duration":0.1818179999999927,"midi":57,"time":189.45435600000002,"velocity":0.3937007874015748},{"duration":0.1818179999999927,"midi":69,"time":189.636174,"velocity":0.3937007874015748},{"duration":0.1818179999999927,"midi":57,"time":189.636174,"velocity":0.3937007874015748},{"duration":0.1818179999999927,"midi":57,"time":189.817992,"velocity":0.3937007874015748},{"duration":0.1818179999999927,"midi":69,"time":189.817992,"velocity":0.3937007874015748},{"duration":0.18181800000002113,"midi":57,"time":189.99981,"velocity":0.3937007874015748},{"duration":0.18181800000002113,"midi":69,"time":189.99981,"velocity":0.3937007874015748},{"duration":0.1818179999999927,"midi":57,"time":190.18162800000002,"velocity":0.3937007874015748},{"duration":0.1818179999999927,"midi":69,"time":190.18162800000002,"velocity":0.3937007874015748},{"duration":0.1818179999999927,"midi":67,"time":190.363446,"velocity":0.3937007874015748},{"duration":0.1818179999999927,"midi":55,"time":190.363446,"velocity":0.3937007874015748},{"duration":0.1818179999999927,"midi":58,"time":190.545264,"velocity":0.3937007874015748},{"duration":0.1818179999999927,"midi":70,"time":190.545264,"velocity":0.3937007874015748},{"duration":0.18181800000002113,"midi":70,"time":190.727082,"velocity":0.3937007874015748},{"duration":0.18181800000002113,"midi":58,"time":190.727082,"velocity":0.3937007874015748},{"duration":0.1818179999999927,"midi":70,"time":190.90890000000002,"velocity":0.3937007874015748},{"duration":0.1818179999999927,"midi":58,"time":190.90890000000002,"velocity":0.3937007874015748},{"duration":0.1818179999999927,"midi":70,"time":191.090718,"velocity":0.3937007874015748},{"duration":0.1818179999999927,"midi":58,"time":191.090718,"velocity":0.3937007874015748},{"duration":0.1818179999999927,"midi":58,"time":191.272536,"velocity":0.3937007874015748},{"duration":0.1818179999999927,"midi":70,"time":191.272536,"velocity":0.3937007874015748},{"duration":0.18181800000002113,"midi":58,"time":191.454354,"velocity":0.3937007874015748},{"duration":0.18181800000002113,"midi":70,"time":191.454354,"velocity":0.3937007874015748},{"duration":0.1818179999999927,"midi":58,"time":191.63617200000002,"velocity":0.3937007874015748},{"duration":0.1818179999999927,"midi":70,"time":191.63617200000002,"velocity":0.3937007874015748},{"duration":0.1818179999999927,"midi":58,"time":191.81799,"velocity":0.3937007874015748},{"duration":0.1818179999999927,"midi":70,"time":191.81799,"velocity":0.3937007874015748},{"duration":0.1818179999999927,"midi":74,"time":191.999808,"velocity":0.3937007874015748},{"duration":0.1818179999999927,"midi":62,"time":191.999808,"velocity":0.3937007874015748},{"duration":0.18181800000002113,"midi":62,"time":192.181626,"velocity":0.3937007874015748},{"duration":0.18181800000002113,"midi":74,"time":192.181626,"velocity":0.3937007874015748},{"duration":0.1818179999999927,"midi":62,"time":192.36344400000002,"velocity":0.3937007874015748},{"duration":0.1818179999999927,"midi":74,"time":192.36344400000002,"velocity":0.3937007874015748},{"duration":0.1818179999999927,"midi":74,"time":192.545262,"velocity":0.3937007874015748},{"duration":0.1818179999999927,"midi":62,"time":192.545262,"velocity":0.3937007874015748},{"duration":0.18181800000002113,"midi":62,"time":192.72708,"velocity":0.3937007874015748},{"duration":0.18181800000002113,"midi":74,"time":192.72708,"velocity":0.3937007874015748},{"duration":0.1818179999999927,"midi":74,"time":192.90889800000002,"velocity":0.3937007874015748},{"duration":0.1818179999999927,"midi":62,"time":192.90889800000002,"velocity":0.3937007874015748},{"duration":0.1818179999999927,"midi":62,"time":193.09071600000001,"velocity":0.3937007874015748},{"duration":0.1818179999999927,"midi":74,"time":193.09071600000001,"velocity":0.3937007874015748},{"duration":0.1818179999999927,"midi":63,"time":193.272534,"velocity":0.3937007874015748},{"duration":0.1818179999999927,"midi":75,"time":193.272534,"velocity":0.3937007874015748},{"duration":0.18181800000002113,"midi":74,"time":193.454352,"velocity":0.3937007874015748},{"duration":0.18181800000002113,"midi":62,"time":193.454352,"velocity":0.3937007874015748},{"duration":0.1818179999999927,"midi":74,"time":193.63617000000002,"velocity":0.3937007874015748},{"duration":0.1818179999999927,"midi":62,"time":193.63617000000002,"velocity":0.3937007874015748},{"duration":0.1818179999999927,"midi":74,"time":193.817988,"velocity":0.3937007874015748},{"duration":0.1818179999999927,"midi":62,"time":193.817988,"velocity":0.3937007874015748},{"duration":0.1818179999999927,"midi":62,"time":193.999806,"velocity":0.3937007874015748},{"duration":0.1818179999999927,"midi":74,"time":193.999806,"velocity":0.3937007874015748},{"duration":0.18181800000002113,"midi":74,"time":194.181624,"velocity":0.3937007874015748},{"duration":0.18181800000002113,"midi":62,"time":194.181624,"velocity":0.3937007874015748},{"duration":0.1818179999999927,"midi":62,"time":194.36344200000002,"velocity":0.3937007874015748},{"duration":0.1818179999999927,"midi":74,"time":194.36344200000002,"velocity":0.3937007874015748},{"duration":0.1818179999999927,"midi":74,"time":194.54526,"velocity":0.3937007874015748},{"duration":0.1818179999999927,"midi":62,"time":194.54526,"velocity":0.3937007874015748},{"duration":0.1818179999999927,"midi":74,"time":194.727078,"velocity":0.3937007874015748},{"duration":0.1818179999999927,"midi":62,"time":194.727078,"velocity":0.3937007874015748},{"duration":0.18181800000002113,"midi":69,"time":194.908896,"velocity":0.3937007874015748},{"duration":0.18181800000002113,"midi":57,"time":194.908896,"velocity":0.3937007874015748},{"duration":0.1818179999999927,"midi":57,"time":195.09071400000002,"velocity":0.3937007874015748},{"duration":0.1818179999999927,"midi":69,"time":195.09071400000002,"velocity":0.3937007874015748},{"duration":0.1818179999999927,"midi":69,"time":195.272532,"velocity":0.3937007874015748},{"duration":0.1818179999999927,"midi":57,"time":195.272532,"velocity":0.3937007874015748},{"duration":0.1818179999999927,"midi":57,"time":195.45435,"velocity":0.3937007874015748},{"duration":0.1818179999999927,"midi":69,"time":195.45435,"velocity":0.3937007874015748},{"duration":0.18181800000002113,"midi":57,"time":195.636168,"velocity":0.3937007874015748},{"duration":0.18181800000002113,"midi":69,"time":195.636168,"velocity":0.3937007874015748},{"duration":0.1818179999999927,"midi":69,"time":195.81798600000002,"velocity":0.3937007874015748},{"duration":0.1818179999999927,"midi":57,"time":195.81798600000002,"velocity":0.3937007874015748},{"duration":0.1818179999999927,"midi":70,"time":195.999804,"velocity":0.3937007874015748},{"duration":0.1818179999999927,"midi":58,"time":195.999804,"velocity":0.3937007874015748},{"duration":0.1818179999999927,"midi":57,"time":196.181622,"velocity":0.3937007874015748},{"duration":0.1818179999999927,"midi":69,"time":196.181622,"velocity":0.3937007874015748},{"duration":0.18181800000002113,"midi":55,"time":196.36344,"velocity":0.3937007874015748},{"duration":0.18181800000002113,"midi":67,"time":196.36344,"velocity":0.3937007874015748},{"duration":0.1818179999999927,"midi":67,"time":196.54525800000002,"velocity":0.3937007874015748},{"duration":0.1818179999999927,"midi":55,"time":196.54525800000002,"velocity":0.3937007874015748},{"duration":0.1818179999999927,"midi":55,"time":196.727076,"velocity":0.3937007874015748},{"duration":0.1818179999999927,"midi":67,"time":196.727076,"velocity":0.3937007874015748},{"duration":0.1818179999999927,"midi":55,"time":196.908894,"velocity":0.3937007874015748},{"duration":0.1818179999999927,"midi":67,"time":196.908894,"velocity":0.3937007874015748},{"duration":0.18181800000002113,"midi":67,"time":197.090712,"velocity":0.3937007874015748},{"duration":0.18181800000002113,"midi":55,"time":197.090712,"velocity":0.3937007874015748},{"duration":0.1818179999999927,"midi":55,"time":197.27253000000002,"velocity":0.3937007874015748},{"duration":0.1818179999999927,"midi":67,"time":197.27253000000002,"velocity":0.3937007874015748},{"duration":0.1818179999999927,"midi":55,"time":197.454348,"velocity":0.3937007874015748},{"duration":0.1818179999999927,"midi":67,"time":197.454348,"velocity":0.3937007874015748},{"duration":0.1818179999999927,"midi":55,"time":197.636166,"velocity":0.3937007874015748},{"duration":0.1818179999999927,"midi":67,"time":197.636166,"velocity":0.3937007874015748},{"duration":0.18181800000002113,"midi":55,"time":197.817984,"velocity":0.3937007874015748},{"duration":0.18181800000002113,"midi":67,"time":197.817984,"velocity":0.3937007874015748},{"duration":0.1818179999999927,"midi":55,"time":197.99980200000002,"velocity":0.3937007874015748},{"duration":0.1818179999999927,"midi":67,"time":197.99980200000002,"velocity":0.3937007874015748},{"duration":0.1818179999999927,"midi":55,"time":198.18162,"velocity":0.3937007874015748},{"duration":0.1818179999999927,"midi":67,"time":198.18162,"velocity":0.3937007874015748},{"duration":0.1818179999999927,"midi":55,"time":198.363438,"velocity":0.3937007874015748},{"duration":0.1818179999999927,"midi":67,"time":198.363438,"velocity":0.3937007874015748},{"duration":0.18181800000002113,"midi":67,"time":198.545256,"velocity":0.3937007874015748},{"duration":0.18181800000002113,"midi":55,"time":198.545256,"velocity":0.3937007874015748},{"duration":0.1818179999999927,"midi":55,"time":198.72707400000002,"velocity":0.3937007874015748},{"duration":0.1818179999999927,"midi":67,"time":198.72707400000002,"velocity":0.3937007874015748},{"duration":0.1818179999999927,"midi":67,"time":198.908892,"velocity":0.3937007874015748},{"duration":0.1818179999999927,"midi":55,"time":198.908892,"velocity":0.3937007874015748},{"duration":0.1818179999999927,"midi":67,"time":199.09071,"velocity":0.3937007874015748},{"duration":0.1818179999999927,"midi":55,"time":199.09071,"velocity":0.3937007874015748},{"duration":0.18181800000002113,"midi":58,"time":199.272528,"velocity":0.3937007874015748},{"duration":0.18181800000002113,"midi":70,"time":199.272528,"velocity":0.3937007874015748},{"duration":0.1818179999999927,"midi":70,"time":199.45434600000002,"velocity":0.3937007874015748},{"duration":0.1818179999999927,"midi":58,"time":199.45434600000002,"velocity":0.3937007874015748},{"duration":0.1818179999999927,"midi":70,"time":199.636164,"velocity":0.3937007874015748},{"duration":0.1818179999999927,"midi":58,"time":199.636164,"velocity":0.3937007874015748},{"duration":0.18181800000002113,"midi":70,"time":199.817982,"velocity":0.3937007874015748},{"duration":0.18181800000002113,"midi":58,"time":199.817982,"velocity":0.3937007874015748},{"duration":0.1818179999999927,"midi":58,"time":199.99980000000002,"velocity":0.3937007874015748},{"duration":0.1818179999999927,"midi":70,"time":199.99980000000002,"velocity":0.3937007874015748},{"duration":0.1818179999999927,"midi":70,"time":200.18161800000001,"velocity":0.3937007874015748},{"duration":0.1818179999999927,"midi":58,"time":200.18161800000001,"velocity":0.3937007874015748},{"duration":0.1818179999999927,"midi":72,"time":200.363436,"velocity":0.3937007874015748},{"duration":0.1818179999999927,"midi":60,"time":200.363436,"velocity":0.3937007874015748},{"duration":0.18181800000002113,"midi":70,"time":200.545254,"velocity":0.3937007874015748},{"duration":0.18181800000002113,"midi":58,"time":200.545254,"velocity":0.3937007874015748},{"duration":0.1818179999999927,"midi":57,"time":200.72707200000002,"velocity":0.3937007874015748},{"duration":0.1818179999999927,"midi":69,"time":200.72707200000002,"velocity":0.3937007874015748},{"duration":0.1818179999999927,"midi":57,"time":200.90889,"velocity":0.3937007874015748},{"duration":0.1818179999999927,"midi":69,"time":200.90889,"velocity":0.3937007874015748},{"duration":0.1818179999999927,"midi":57,"time":201.090708,"velocity":0.3937007874015748},{"duration":0.1818179999999927,"midi":69,"time":201.090708,"velocity":0.3937007874015748},{"duration":0.18181800000002113,"midi":57,"time":201.272526,"velocity":0.3937007874015748},{"duration":0.18181800000002113,"midi":69,"time":201.272526,"velocity":0.3937007874015748},{"duration":0.1818179999999927,"midi":69,"time":201.45434400000002,"velocity":0.3937007874015748},{"duration":0.1818179999999927,"midi":57,"time":201.45434400000002,"velocity":0.3937007874015748},{"duration":0.1818179999999927,"midi":57,"time":201.636162,"velocity":0.3937007874015748},{"duration":0.1818179999999927,"midi":69,"time":201.636162,"velocity":0.3937007874015748},{"duration":0.1818179999999927,"midi":57,"time":201.81798,"velocity":0.3937007874015748},{"duration":0.1818179999999927,"midi":69,"time":201.81798,"velocity":0.3937007874015748},{"duration":0.18181800000002113,"midi":55,"time":201.999798,"velocity":0.3937007874015748},{"duration":0.18181800000002113,"midi":67,"time":201.999798,"velocity":0.3937007874015748},{"duration":0.1818179999999927,"midi":70,"time":202.18161600000002,"velocity":0.3937007874015748},{"duration":0.1818179999999927,"midi":58,"time":202.18161600000002,"velocity":0.3937007874015748},{"duration":0.1818179999999927,"midi":58,"time":202.363434,"velocity":0.3937007874015748},{"duration":0.1818179999999927,"midi":70,"time":202.363434,"velocity":0.3937007874015748},{"duration":0.1818179999999927,"midi":58,"time":202.545252,"velocity":0.3937007874015748},{"duration":0.1818179999999927,"midi":70,"time":202.545252,"velocity":0.3937007874015748},{"duration":0.18181800000002113,"midi":70,"time":202.72707,"velocity":0.3937007874015748},{"duration":0.18181800000002113,"midi":58,"time":202.72707,"velocity":0.3937007874015748},{"duration":0.1818179999999927,"midi":70,"time":202.90888800000002,"velocity":0.3937007874015748},{"duration":0.1818179999999927,"midi":58,"time":202.90888800000002,"velocity":0.3937007874015748},{"duration":0.1818179999999927,"midi":70,"time":203.090706,"velocity":0.3937007874015748},{"duration":0.1818179999999927,"midi":58,"time":203.090706,"velocity":0.3937007874015748},{"duration":0.1818179999999927,"midi":70,"time":203.272524,"velocity":0.3937007874015748},{"duration":0.1818179999999927,"midi":58,"time":203.272524,"velocity":0.3937007874015748},{"duration":0.18181800000002113,"midi":70,"time":203.454342,"velocity":0.3937007874015748},{"duration":0.18181800000002113,"midi":58,"time":203.454342,"velocity":0.3937007874015748},{"duration":0.1818179999999927,"midi":74,"time":203.63616000000002,"velocity":0.3937007874015748},{"duration":0.1818179999999927,"midi":62,"time":203.63616000000002,"velocity":0.3937007874015748},{"duration":0.1818179999999927,"midi":62,"time":203.817978,"velocity":0.3937007874015748},{"duration":0.1818179999999927,"midi":74,"time":203.817978,"velocity":0.3937007874015748},{"duration":0.1818179999999927,"midi":74,"time":203.999796,"velocity":0.3937007874015748},{"duration":0.1818179999999927,"midi":62,"time":203.999796,"velocity":0.3937007874015748},{"duration":0.18181800000002113,"midi":74,"time":204.181614,"velocity":0.3937007874015748},{"duration":0.18181800000002113,"midi":62,"time":204.181614,"velocity":0.3937007874015748},{"duration":0.1818179999999927,"midi":74,"time":204.36343200000002,"velocity":0.3937007874015748},{"duration":0.1818179999999927,"midi":62,"time":204.36343200000002,"velocity":0.3937007874015748},{"duration":0.1818179999999927,"midi":62,"time":204.54525,"velocity":0.3937007874015748},{"duration":0.1818179999999927,"midi":74,"time":204.54525,"velocity":0.3937007874015748},{"duration":0.1818179999999927,"midi":62,"time":204.727068,"velocity":0.3937007874015748},{"duration":0.1818179999999927,"midi":74,"time":204.727068,"velocity":0.3937007874015748},{"duration":0.18181800000002113,"midi":75,"time":204.908886,"velocity":0.3937007874015748},{"duration":0.18181800000002113,"midi":63,"time":204.908886,"velocity":0.3937007874015748},{"duration":0.1818179999999927,"midi":74,"time":205.09070400000002,"velocity":0.3937007874015748},{"duration":0.1818179999999927,"midi":62,"time":205.09070400000002,"velocity":0.3937007874015748},{"duration":0.1818179999999927,"midi":62,"time":205.272522,"velocity":0.3937007874015748},{"duration":0.1818179999999927,"midi":74,"time":205.272522,"velocity":0.3937007874015748},{"duration":0.1818179999999927,"midi":74,"time":205.45434,"velocity":0.3937007874015748},{"duration":0.1818179999999927,"midi":62,"time":205.45434,"velocity":0.3937007874015748},{"duration":0.18181800000002113,"midi":62,"time":205.636158,"velocity":0.3937007874015748},{"duration":0.18181800000002113,"midi":74,"time":205.636158,"velocity":0.3937007874015748},{"duration":0.1818179999999927,"midi":74,"time":205.81797600000002,"velocity":0.3937007874015748},{"duration":0.1818179999999927,"midi":62,"time":205.81797600000002,"velocity":0.3937007874015748},{"duration":0.1818179999999927,"midi":74,"time":205.999794,"velocity":0.3937007874015748},{"duration":0.1818179999999927,"midi":62,"time":205.999794,"velocity":0.3937007874015748},{"duration":0.18181800000002113,"midi":62,"time":206.181612,"velocity":0.3937007874015748},{"duration":0.18181800000002113,"midi":74,"time":206.181612,"velocity":0.3937007874015748},{"duration":0.1818179999999927,"midi":62,"time":206.36343000000002,"velocity":0.3937007874015748},{"duration":0.1818179999999927,"midi":74,"time":206.36343000000002,"velocity":0.3937007874015748},{"duration":0.1818179999999927,"midi":69,"time":206.54524800000002,"velocity":0.3937007874015748},{"duration":0.1818179999999927,"midi":57,"time":206.54524800000002,"velocity":0.3937007874015748},{"duration":0.1818179999999927,"midi":69,"time":206.727066,"velocity":0.3937007874015748},{"duration":0.1818179999999927,"midi":57,"time":206.727066,"velocity":0.3937007874015748},{"duration":0.18181800000002113,"midi":57,"time":206.908884,"velocity":0.3937007874015748},{"duration":0.18181800000002113,"midi":69,"time":206.908884,"velocity":0.3937007874015748},{"duration":0.1818179999999927,"midi":69,"time":207.09070200000002,"velocity":0.3937007874015748},{"duration":0.1818179999999927,"midi":57,"time":207.09070200000002,"velocity":0.3937007874015748},{"duration":0.1818179999999927,"midi":57,"time":207.27252000000001,"velocity":0.3937007874015748},{"duration":0.1818179999999927,"midi":69,"time":207.27252000000001,"velocity":0.3937007874015748},{"duration":0.1818179999999927,"midi":57,"time":207.454338,"velocity":0.3937007874015748},{"duration":0.1818179999999927,"midi":69,"time":207.454338,"velocity":0.3937007874015748},{"duration":0.18181800000002113,"midi":58,"time":207.636156,"velocity":0.3937007874015748},{"duration":0.18181800000002113,"midi":70,"time":207.636156,"velocity":0.3937007874015748},{"duration":0.1818179999999927,"midi":69,"time":207.81797400000002,"velocity":0.3937007874015748},{"duration":0.1818179999999927,"midi":57,"time":207.81797400000002,"velocity":0.3937007874015748},{"duration":0.1818179999999927,"midi":67,"time":207.999792,"velocity":0.3937007874015748},{"duration":0.1818179999999927,"midi":55,"time":207.999792,"velocity":0.3937007874015748},{"duration":0.1818179999999927,"midi":55,"time":208.18161,"velocity":0.3937007874015748},{"duration":0.1818179999999927,"midi":67,"time":208.18161,"velocity":0.3937007874015748},{"duration":0.18181800000002113,"midi":55,"time":208.363428,"velocity":0.3937007874015748},{"duration":0.18181800000002113,"midi":67,"time":208.363428,"velocity":0.3937007874015748},{"duration":0.1818179999999927,"midi":67,"time":208.54524600000002,"velocity":0.3937007874015748},{"duration":0.1818179999999927,"midi":55,"time":208.54524600000002,"velocity":0.3937007874015748},{"duration":0.1818179999999927,"midi":67,"time":208.727064,"velocity":0.3937007874015748},{"duration":0.1818179999999927,"midi":55,"time":208.727064,"velocity":0.3937007874015748},{"duration":0.1818179999999927,"midi":55,"time":208.908882,"velocity":0.3937007874015748},{"duration":0.1818179999999927,"midi":67,"time":208.908882,"velocity":0.3937007874015748},{"duration":0.18181800000002113,"midi":67,"time":209.0907,"velocity":0.3937007874015748},{"duration":0.18181800000002113,"midi":55,"time":209.0907,"velocity":0.3937007874015748},{"duration":0.1818179999999927,"midi":55,"time":209.27251800000002,"velocity":0.3937007874015748},{"duration":0.1818179999999927,"midi":67,"time":209.27251800000002,"velocity":0.3937007874015748},{"duration":0.18181800000002113,"midi":55,"time":267.636096,"velocity":0.3937007874015748},{"duration":0.18181799999996429,"midi":55,"time":267.81791400000003,"velocity":0.3937007874015748},{"duration":0.18181800000002113,"midi":55,"time":267.999732,"velocity":0.3937007874015748},{"duration":0.18181800000002113,"midi":55,"time":268.18155,"velocity":0.3937007874015748},{"duration":0.18181799999996429,"midi":55,"time":268.36336800000004,"velocity":0.3937007874015748},{"duration":0.18181800000002113,"midi":55,"time":268.545186,"velocity":0.3937007874015748},{"duration":0.18181799999996429,"midi":55,"time":268.727004,"velocity":0.3937007874015748},{"duration":0.18181800000002113,"midi":55,"time":268.908822,"velocity":0.3937007874015748},{"duration":0.18181800000002113,"midi":58,"time":269.09064,"velocity":0.3937007874015748},{"duration":0.18181799999996429,"midi":58,"time":269.27245800000003,"velocity":0.3937007874015748},{"duration":0.18181800000002113,"midi":58,"time":269.454276,"velocity":0.3937007874015748},{"duration":0.18181800000002113,"midi":58,"time":269.636094,"velocity":0.3937007874015748},{"duration":0.18181799999996429,"midi":58,"time":269.81791200000004,"velocity":0.3937007874015748},{"duration":0.18181800000002113,"midi":58,"time":269.99973,"velocity":0.3937007874015748},{"duration":0.18181799999996429,"midi":60,"time":270.181548,"velocity":0.3937007874015748},{"duration":0.18181800000002113,"midi":58,"time":270.363366,"velocity":0.3937007874015748},{"duration":0.18181800000002113,"midi":57,"time":270.545184,"velocity":0.3937007874015748},{"duration":0.18181799999996429,"midi":57,"time":270.727002,"velocity":0.3937007874015748},{"duration":0.18181800000002113,"midi":57,"time":270.90882,"velocity":0.3937007874015748},{"duration":0.18181800000002113,"midi":57,"time":271.090638,"velocity":0.3937007874015748},{"duration":0.18181799999996429,"midi":57,"time":271.27245600000003,"velocity":0.3937007874015748},{"duration":0.18181800000002113,"midi":57,"time":271.454274,"velocity":0.3937007874015748},{"duration":0.18181799999996429,"midi":57,"time":271.636092,"velocity":0.3937007874015748},{"duration":0.18181800000002113,"midi":55,"time":271.81791,"velocity":0.3937007874015748},{"duration":0.18181800000002113,"midi":58,"time":271.999728,"velocity":0.3937007874015748},{"duration":0.18181799999996429,"midi":58,"time":272.181546,"velocity":0.3937007874015748},{"duration":0.18181800000002113,"midi":58,"time":272.363364,"velocity":0.3937007874015748},{"duration":0.18181800000002113,"midi":58,"time":272.545182,"velocity":0.3937007874015748},{"duration":0.18181799999996429,"midi":58,"time":272.72700000000003,"velocity":0.3937007874015748},{"duration":0.18181800000002113,"midi":58,"time":272.908818,"velocity":0.3937007874015748},{"duration":0.18181800000002113,"midi":58,"time":273.090636,"velocity":0.3937007874015748},{"duration":0.18181799999996429,"midi":58,"time":273.27245400000004,"velocity":0.3937007874015748},{"duration":0.18181800000002113,"midi":62,"time":273.454272,"velocity":0.3937007874015748},{"duration":0.18181799999996429,"midi":62,"time":273.63609,"velocity":0.3937007874015748},{"duration":0.18181800000002113,"midi":62,"time":273.817908,"velocity":0.3937007874015748},{"duration":0.18181800000002113,"midi":62,"time":273.999726,"velocity":0.3937007874015748},{"duration":0.18181799999996429,"midi":62,"time":274.18154400000003,"velocity":0.3937007874015748},{"duration":0.18181800000002113,"midi":62,"time":274.363362,"velocity":0.3937007874015748},{"duration":0.18181800000002113,"midi":62,"time":274.54518,"velocity":0.3937007874015748},{"duration":0.18181799999996429,"midi":63,"time":274.72699800000004,"velocity":0.3937007874015748},{"duration":0.18181800000002113,"midi":62,"time":274.908816,"velocity":0.3937007874015748},{"duration":0.18181799999996429,"midi":62,"time":275.090634,"velocity":0.3937007874015748},{"duration":0.18181800000002113,"midi":62,"time":275.272452,"velocity":0.3937007874015748},{"duration":0.18181800000002113,"midi":62,"time":275.45427,"velocity":0.3937007874015748},{"duration":0.18181799999996429,"midi":62,"time":275.63608800000003,"velocity":0.3937007874015748},{"duration":0.18181800000002113,"midi":62,"time":275.817906,"velocity":0.3937007874015748},{"duration":0.18181800000002113,"midi":62,"time":275.999724,"velocity":0.3937007874015748},{"duration":0.18181799999996429,"midi":62,"time":276.18154200000004,"velocity":0.3937007874015748},{"duration":0.18181800000002113,"midi":57,"time":276.36336,"velocity":0.3937007874015748},{"duration":0.18181799999996429,"midi":57,"time":276.545178,"velocity":0.3937007874015748},{"duration":0.18181800000002113,"midi":57,"time":276.726996,"velocity":0.3937007874015748},{"duration":0.18181800000002113,"midi":57,"time":276.908814,"velocity":0.3937007874015748},{"duration":0.18181799999996429,"midi":57,"time":277.090632,"velocity":0.3937007874015748},{"duration":0.18181800000002113,"midi":57,"time":277.27245,"velocity":0.3937007874015748},{"duration":0.18181800000002113,"midi":58,"time":277.454268,"velocity":0.3937007874015748},{"duration":0.18181799999996429,"midi":57,"time":277.63608600000003,"velocity":0.3937007874015748},{"duration":0.18181800000002113,"midi":55,"time":277.817904,"velocity":0.3937007874015748},{"duration":0.18181799999996429,"midi":55,"time":277.999722,"velocity":0.3937007874015748},{"duration":0.18181800000002113,"midi":55,"time":278.18154,"velocity":0.3937007874015748},{"duration":0.18181800000002113,"midi":55,"time":278.363358,"velocity":0.3937007874015748},{"duration":0.18181799999996429,"midi":55,"time":278.545176,"velocity":0.3937007874015748},{"duration":0.18181800000002113,"midi":55,"time":278.726994,"velocity":0.3937007874015748},{"duration":0.18181800000002113,"midi":53,"time":278.908812,"velocity":0.3937007874015748},{"duration":0.18181799999996429,"midi":53,"time":279.09063000000003,"velocity":0.3937007874015748},{"duration":0.18181800000002113,"midi":55,"time":279.272448,"velocity":0.3937007874015748},{"duration":0.18181800000002113,"midi":55,"time":279.454266,"velocity":0.3937007874015748},{"duration":0.18181799999996429,"midi":55,"time":279.63608400000004,"velocity":0.3937007874015748},{"duration":0.18181800000002113,"midi":55,"time":279.817902,"velocity":0.3937007874015748},{"duration":0.18181799999996429,"midi":55,"time":279.99972,"velocity":0.3937007874015748},{"duration":0.18181800000002113,"midi":55,"time":280.181538,"velocity":0.3937007874015748},{"duration":0.18181800000002113,"midi":55,"time":280.363356,"velocity":0.3937007874015748},{"duration":0.18181799999996429,"midi":55,"time":280.54517400000003,"velocity":0.3937007874015748},{"duration":0.18181800000002113,"midi":58,"time":280.726992,"velocity":0.3937007874015748},{"duration":0.18181800000002113,"midi":58,"time":280.90881,"velocity":0.3937007874015748},{"duration":0.18181799999996429,"midi":58,"time":281.09062800000004,"velocity":0.3937007874015748},{"duration":0.18181800000002113,"midi":58,"time":281.272446,"velocity":0.3937007874015748},{"duration":0.18181799999996429,"midi":58,"time":281.454264,"velocity":0.3937007874015748},{"duration":0.18181800000002113,"midi":58,"time":281.636082,"velocity":0.3937007874015748},{"duration":0.18181800000002113,"midi":60,"time":281.8179,"velocity":0.3937007874015748},{"duration":0.18181799999996429,"midi":58,"time":281.99971800000003,"velocity":0.3937007874015748},{"duration":0.18181800000002113,"midi":57,"time":282.181536,"velocity":0.3937007874015748},{"duration":0.18181800000002113,"midi":57,"time":282.363354,"velocity":0.3937007874015748},{"duration":0.18181799999996429,"midi":57,"time":282.54517200000004,"velocity":0.3937007874015748},{"duration":0.18181800000002113,"midi":57,"time":282.72699,"velocity":0.3937007874015748},{"duration":0.18181799999996429,"midi":57,"time":282.908808,"velocity":0.3937007874015748},{"duration":0.18181800000002113,"midi":57,"time":283.090626,"velocity":0.3937007874015748},{"duration":0.18181800000002113,"midi":57,"time":283.272444,"velocity":0.3937007874015748},{"duration":0.18181799999996429,"midi":55,"time":283.454262,"velocity":0.3937007874015748},{"duration":0.18181800000002113,"midi":58,"time":283.63608,"velocity":0.3937007874015748},{"duration":0.18181800000002113,"midi":58,"time":283.817898,"velocity":0.3937007874015748},{"duration":0.18181799999996429,"midi":58,"time":283.99971600000003,"velocity":0.3937007874015748},{"duration":0.18181800000002113,"midi":58,"time":284.181534,"velocity":0.3937007874015748},{"duration":0.18181799999996429,"midi":58,"time":284.363352,"velocity":0.3937007874015748},{"duration":0.18181800000002113,"midi":58,"time":284.54517,"velocity":0.3937007874015748},{"duration":0.18181800000002113,"midi":58,"time":284.726988,"velocity":0.3937007874015748},{"duration":0.18181799999996429,"midi":58,"time":284.908806,"velocity":0.3937007874015748},{"duration":0.18181800000002113,"midi":62,"time":285.090624,"velocity":0.3937007874015748},{"duration":0.18181800000002113,"midi":62,"time":285.272442,"velocity":0.3937007874015748},{"duration":0.18181799999996429,"midi":62,"time":285.45426000000003,"velocity":0.3937007874015748},{"duration":0.18181800000002113,"midi":62,"time":285.636078,"velocity":0.3937007874015748},{"duration":0.18181800000002113,"midi":62,"time":285.817896,"velocity":0.3937007874015748},{"duration":0.18181799999996429,"midi":62,"time":285.99971400000004,"velocity":0.3937007874015748},{"duration":0.18181800000002113,"midi":62,"time":286.181532,"velocity":0.3937007874015748},{"duration":0.18181799999996429,"midi":63,"time":286.36335,"velocity":0.3937007874015748},{"duration":0.18181800000002113,"midi":62,"time":286.545168,"velocity":0.3937007874015748},{"duration":0.18181800000002113,"midi":62,"time":286.726986,"velocity":0.3937007874015748},{"duration":0.18181799999996429,"midi":62,"time":286.90880400000003,"velocity":0.3937007874015748},{"duration":0.18181800000002113,"midi":62,"time":287.090622,"velocity":0.3937007874015748},{"duration":0.18181800000002113,"midi":62,"time":287.27244,"velocity":0.3937007874015748},{"duration":0.18181799999996429,"midi":62,"time":287.45425800000004,"velocity":0.3937007874015748},{"duration":0.18181800000002113,"midi":62,"time":287.636076,"velocity":0.3937007874015748},{"duration":0.18181799999996429,"midi":62,"time":287.817894,"velocity":0.3937007874015748},{"duration":0.18181800000002113,"midi":57,"time":287.999712,"velocity":0.3937007874015748},{"duration":0.18181800000002113,"midi":57,"time":288.18153,"velocity":0.3937007874015748},{"duration":0.18181799999996429,"midi":57,"time":288.36334800000003,"velocity":0.3937007874015748},{"duration":0.18181800000002113,"midi":57,"time":288.545166,"velocity":0.3937007874015748},{"duration":0.18181800000002113,"midi":57,"time":288.726984,"velocity":0.3937007874015748},{"duration":0.18181799999996429,"midi":57,"time":288.90880200000004,"velocity":0.3937007874015748},{"duration":0.18181800000002113,"midi":58,"time":289.09062,"velocity":0.3937007874015748},{"duration":0.18181799999996429,"midi":57,"time":289.272438,"velocity":0.3937007874015748},{"duration":0.18181800000002113,"midi":55,"time":289.454256,"velocity":0.3937007874015748},{"duration":0.18181800000002113,"midi":55,"time":289.636074,"velocity":0.3937007874015748},{"duration":0.18181799999996429,"midi":55,"time":289.81789200000003,"velocity":0.3937007874015748},{"duration":0.18181800000002113,"midi":55,"time":289.99971,"velocity":0.3937007874015748},{"duration":0.18181800000002113,"midi":55,"time":290.181528,"velocity":0.3937007874015748},{"duration":0.18181799999996429,"midi":55,"time":290.36334600000004,"velocity":0.3937007874015748},{"duration":0.18181800000002113,"midi":53,"time":290.545164,"velocity":0.3937007874015748},{"duration":0.18181799999996429,"midi":53,"time":290.726982,"velocity":0.3937007874015748}]},{"instrument":{"family":"piano","number":0,"name":"acoustic grand piano"},"notes":[{"duration":0.18181800000000692,"midi":55,"time":69.818112,"velocity":0.3858267716535433},{"duration":0.18181800000000692,"midi":55,"time":69.818112,"velocity":0.3858267716535433},{"duration":0.18181800000000692,"midi":55,"time":69.818112,"velocity":0.3858267716535433},{"duration":0.1818179999999927,"midi":55,"time":69.99993,"velocity":0.3858267716535433},{"duration":0.1818179999999927,"midi":55,"time":69.99993,"velocity":0.3858267716535433},{"duration":0.1818179999999927,"midi":55,"time":69.99993,"velocity":0.3858267716535433},{"duration":0.18181800000000692,"midi":55,"time":70.181748,"velocity":0.3858267716535433},{"duration":0.18181800000000692,"midi":55,"time":70.181748,"velocity":0.3858267716535433},{"duration":0.18181800000000692,"midi":55,"time":70.181748,"velocity":0.3858267716535433},{"duration":0.1818179999999927,"midi":55,"time":70.363566,"velocity":0.3858267716535433},{"duration":0.1818179999999927,"midi":55,"time":70.363566,"velocity":0.3858267716535433},{"duration":0.1818179999999927,"midi":55,"time":70.363566,"velocity":0.3858267716535433},{"duration":0.18181800000000692,"midi":55,"time":70.545384,"velocity":0.3858267716535433},{"duration":0.18181800000000692,"midi":55,"time":70.545384,"velocity":0.3858267716535433},{"duration":0.18181800000000692,"midi":55,"time":70.545384,"velocity":0.3858267716535433},{"duration":0.1818179999999927,"midi":55,"time":70.727202,"velocity":0.3858267716535433},{"duration":0.1818179999999927,"midi":55,"time":70.727202,"velocity":0.3858267716535433},{"duration":0.1818179999999927,"midi":55,"time":70.727202,"velocity":0.3858267716535433},{"duration":0.18181800000000692,"midi":55,"time":70.90902,"velocity":0.3858267716535433},{"duration":0.18181800000000692,"midi":55,"time":70.90902,"velocity":0.3858267716535433},{"duration":0.18181800000000692,"midi":55,"time":70.90902,"velocity":0.3858267716535433},{"duration":0.1818179999999927,"midi":55,"time":71.090838,"velocity":0.3858267716535433},{"duration":0.1818179999999927,"midi":55,"time":71.090838,"velocity":0.3858267716535433},{"duration":0.1818179999999927,"midi":55,"time":71.090838,"velocity":0.3858267716535433},{"duration":0.18181800000000692,"midi":58,"time":71.272656,"velocity":0.3858267716535433},{"duration":0.18181800000000692,"midi":58,"time":71.272656,"velocity":0.3858267716535433},{"duration":0.18181800000000692,"midi":58,"time":71.272656,"velocity":0.3858267716535433},{"duration":0.1818179999999927,"midi":58,"time":71.454474,"velocity":0.3858267716535433},{"duration":0.1818179999999927,"midi":58,"time":71.454474,"velocity":0.3858267716535433},{"duration":0.1818179999999927,"midi":58,"time":71.454474,"velocity":0.3858267716535433},{"duration":0.18181800000000692,"midi":58,"time":71.636292,"velocity":0.3858267716535433},{"duration":0.18181800000000692,"midi":58,"time":71.636292,"velocity":0.3858267716535433},{"duration":0.18181800000000692,"midi":58,"time":71.636292,"velocity":0.3858267716535433},{"duration":0.1818179999999927,"midi":58,"time":71.81811,"velocity":0.3858267716535433},{"duration":0.1818179999999927,"midi":58,"time":71.81811,"velocity":0.3858267716535433},{"duration":0.1818179999999927,"midi":58,"time":71.81811,"velocity":0.3858267716535433},{"duration":0.18181800000000692,"midi":58,"time":71.999928,"velocity":0.3858267716535433},{"duration":0.18181800000000692,"midi":58,"time":71.999928,"velocity":0.3858267716535433},{"duration":0.18181800000000692,"midi":58,"time":71.999928,"velocity":0.3858267716535433},{"duration":0.1818179999999927,"midi":58,"time":72.181746,"velocity":0.3858267716535433},{"duration":0.1818179999999927,"midi":58,"time":72.181746,"velocity":0.3858267716535433},{"duration":0.1818179999999927,"midi":58,"time":72.181746,"velocity":0.3858267716535433},{"duration":0.18181800000000692,"midi":60,"time":72.363564,"velocity":0.3858267716535433},{"duration":0.18181800000000692,"midi":60,"time":72.363564,"velocity":0.3858267716535433},{"duration":0.18181800000000692,"midi":60,"time":72.363564,"velocity":0.3858267716535433},{"duration":0.1818179999999927,"midi":58,"time":72.545382,"velocity":0.3858267716535433},{"duration":0.1818179999999927,"midi":58,"time":72.545382,"velocity":0.3858267716535433},{"duration":0.1818179999999927,"midi":58,"time":72.545382,"velocity":0.3858267716535433},{"duration":0.18181800000000692,"midi":57,"time":72.7272,"velocity":0.3858267716535433},{"duration":0.18181800000000692,"midi":57,"time":72.7272,"velocity":0.3858267716535433},{"duration":0.18181800000000692,"midi":57,"time":72.7272,"velocity":0.3858267716535433},{"duration":0.1818179999999927,"midi":57,"time":72.909018,"velocity":0.3858267716535433},{"duration":0.1818179999999927,"midi":57,"time":72.909018,"velocity":0.3858267716535433},{"duration":0.1818179999999927,"midi":57,"time":72.909018,"velocity":0.3858267716535433},{"duration":0.18181800000000692,"midi":57,"time":73.090836,"velocity":0.3858267716535433},{"duration":0.18181800000000692,"midi":57,"time":73.090836,"velocity":0.3858267716535433},{"duration":0.18181800000000692,"midi":57,"time":73.090836,"velocity":0.3858267716535433},{"duration":0.18181800000000692,"midi":57,"time":73.272654,"velocity":0.3858267716535433},{"duration":0.18181800000000692,"midi":57,"time":73.272654,"velocity":0.3858267716535433},{"duration":0.18181800000000692,"midi":57,"time":73.272654,"velocity":0.3858267716535433},{"duration":0.1818179999999927,"midi":57,"time":73.45447200000001,"velocity":0.3858267716535433},{"duration":0.1818179999999927,"midi":57,"time":73.45447200000001,"velocity":0.3858267716535433},{"duration":0.1818179999999927,"midi":57,"time":73.45447200000001,"velocity":0.3858267716535433},{"duration":0.18181800000000692,"midi":57,"time":73.63629,"velocity":0.3858267716535433},{"duration":0.18181800000000692,"midi":57,"time":73.63629,"velocity":0.3858267716535433},{"duration":0.18181800000000692,"midi":57,"time":73.63629,"velocity":0.3858267716535433},{"duration":0.1818179999999927,"midi":57,"time":73.81810800000001,"velocity":0.3858267716535433},{"duration":0.1818179999999927,"midi":57,"time":73.81810800000001,"velocity":0.3858267716535433},{"duration":0.1818179999999927,"midi":57,"time":73.81810800000001,"velocity":0.3858267716535433},{"duration":0.18181800000000692,"midi":57,"time":73.999926,"velocity":0.3858267716535433},{"duration":0.18181800000000692,"midi":57,"time":73.999926,"velocity":0.3858267716535433},{"duration":0.18181800000000692,"midi":57,"time":73.999926,"velocity":0.3858267716535433},{"duration":0.1818179999999927,"midi":58,"time":74.18174400000001,"velocity":0.3858267716535433},{"duration":0.1818179999999927,"midi":58,"time":74.18174400000001,"velocity":0.3858267716535433},{"duration":0.1818179999999927,"midi":58,"time":74.18174400000001,"velocity":0.3858267716535433},{"duration":0.18181800000000692,"midi":58,"time":74.363562,"velocity":0.3858267716535433},{"duration":0.18181800000000692,"midi":58,"time":74.363562,"velocity":0.3858267716535433},{"duration":0.18181800000000692,"midi":58,"time":74.363562,"velocity":0.3858267716535433},{"duration":0.1818179999999927,"midi":58,"time":74.54538000000001,"velocity":0.3858267716535433},{"duration":0.1818179999999927,"midi":58,"time":74.54538000000001,"velocity":0.3858267716535433},{"duration":0.1818179999999927,"midi":58,"time":74.54538000000001,"velocity":0.3858267716535433},{"duration":0.18181800000000692,"midi":58,"time":74.727198,"velocity":0.3858267716535433},{"duration":0.18181800000000692,"midi":58,"time":74.727198,"velocity":0.3858267716535433},{"duration":0.18181800000000692,"midi":58,"time":74.727198,"velocity":0.3858267716535433},{"duration":0.1818179999999927,"midi":58,"time":74.90901600000001,"velocity":0.3858267716535433},{"duration":0.1818179999999927,"midi":58,"time":74.90901600000001,"velocity":0.3858267716535433},{"duration":0.1818179999999927,"midi":58,"time":74.90901600000001,"velocity":0.3858267716535433},{"duration":0.18181800000000692,"midi":58,"time":75.090834,"velocity":0.3858267716535433},{"duration":0.18181800000000692,"midi":58,"time":75.090834,"velocity":0.3858267716535433},{"duration":0.18181800000000692,"midi":58,"time":75.090834,"velocity":0.3858267716535433},{"duration":0.1818179999999927,"midi":58,"time":75.27265200000001,"velocity":0.3858267716535433},{"duration":0.1818179999999927,"midi":58,"time":75.27265200000001,"velocity":0.3858267716535433},{"duration":0.1818179999999927,"midi":58,"time":75.27265200000001,"velocity":0.3858267716535433},{"duration":0.18181800000000692,"midi":58,"time":75.45447,"velocity":0.3858267716535433},{"duration":0.18181800000000692,"midi":58,"time":75.45447,"velocity":0.3858267716535433},{"duration":0.18181800000000692,"midi":58,"time":75.45447,"velocity":0.3858267716535433},{"duration":0.1818179999999927,"midi":62,"time":75.63628800000001,"velocity":0.3858267716535433},{"duration":0.1818179999999927,"midi":62,"time":75.63628800000001,"velocity":0.3858267716535433},{"duration":0.1818179999999927,"midi":62,"time":75.63628800000001,"velocity":0.3858267716535433},{"duration":0.18181800000000692,"midi":62,"time":75.818106,"velocity":0.3858267716535433},{"duration":0.18181800000000692,"midi":62,"time":75.818106,"velocity":0.3858267716535433},{"duration":0.18181800000000692,"midi":62,"time":75.818106,"velocity":0.3858267716535433},{"duration":0.1818179999999927,"midi":62,"time":75.99992400000001,"velocity":0.3858267716535433},{"duration":0.1818179999999927,"midi":62,"time":75.99992400000001,"velocity":0.3858267716535433},{"duration":0.1818179999999927,"midi":62,"time":75.99992400000001,"velocity":0.3858267716535433},{"duration":0.18181800000000692,"midi":62,"time":76.181742,"velocity":0.3858267716535433},{"duration":0.18181800000000692,"midi":62,"time":76.181742,"velocity":0.3858267716535433},{"duration":0.18181800000000692,"midi":62,"time":76.181742,"velocity":0.3858267716535433},{"duration":0.1818179999999927,"midi":62,"time":76.36356,"velocity":0.3858267716535433},{"duration":0.1818179999999927,"midi":62,"time":76.36356,"velocity":0.3858267716535433},{"duration":0.1818179999999927,"midi":62,"time":76.36356,"velocity":0.3858267716535433},{"duration":0.18181800000000692,"midi":62,"time":76.545378,"velocity":0.3858267716535433},{"duration":0.18181800000000692,"midi":62,"time":76.545378,"velocity":0.3858267716535433},{"duration":0.18181800000000692,"midi":62,"time":76.545378,"velocity":0.3858267716535433},{"duration":0.1818179999999927,"midi":62,"time":76.727196,"velocity":0.3858267716535433},{"duration":0.1818179999999927,"midi":62,"time":76.727196,"velocity":0.3858267716535433},{"duration":0.1818179999999927,"midi":62,"time":76.727196,"velocity":0.3858267716535433},{"duration":0.18181800000000692,"midi":63,"time":76.909014,"velocity":0.3858267716535433},{"duration":0.18181800000000692,"midi":63,"time":76.909014,"velocity":0.3858267716535433},{"duration":0.18181800000000692,"midi":63,"time":76.909014,"velocity":0.3858267716535433},{"duration":0.1818179999999927,"midi":62,"time":77.090832,"velocity":0.3858267716535433},{"duration":0.1818179999999927,"midi":62,"time":77.090832,"velocity":0.3858267716535433},{"duration":0.1818179999999927,"midi":62,"time":77.090832,"velocity":0.3858267716535433},{"duration":0.18181800000000692,"midi":62,"time":77.27265,"velocity":0.3858267716535433},{"duration":0.18181800000000692,"midi":62,"time":77.27265,"velocity":0.3858267716535433},{"duration":0.18181800000000692,"midi":62,"time":77.27265,"velocity":0.3858267716535433},{"duration":0.1818179999999927,"midi":62,"time":77.454468,"velocity":0.3858267716535433},{"duration":0.1818179999999927,"midi":62,"time":77.454468,"velocity":0.3858267716535433},{"duration":0.1818179999999927,"midi":62,"time":77.454468,"velocity":0.3858267716535433},{"duration":0.18181800000000692,"midi":62,"time":77.636286,"velocity":0.3858267716535433},{"duration":0.18181800000000692,"midi":62,"time":77.636286,"velocity":0.3858267716535433},{"duration":0.18181800000000692,"midi":62,"time":77.636286,"velocity":0.3858267716535433},{"duration":0.1818179999999927,"midi":62,"time":77.818104,"velocity":0.3858267716535433},{"duration":0.1818179999999927,"midi":62,"time":77.818104,"velocity":0.3858267716535433},{"duration":0.1818179999999927,"midi":62,"time":77.818104,"velocity":0.3858267716535433},{"duration":0.18181800000000692,"midi":62,"time":77.999922,"velocity":0.3858267716535433},{"duration":0.18181800000000692,"midi":62,"time":77.999922,"velocity":0.3858267716535433},{"duration":0.18181800000000692,"midi":62,"time":77.999922,"velocity":0.3858267716535433},{"duration":0.1818179999999927,"midi":62,"time":78.18174,"velocity":0.3858267716535433},{"duration":0.1818179999999927,"midi":62,"time":78.18174,"velocity":0.3858267716535433},{"duration":0.1818179999999927,"midi":62,"time":78.18174,"velocity":0.3858267716535433},{"duration":0.18181800000000692,"midi":62,"time":78.363558,"velocity":0.3858267716535433},{"duration":0.18181800000000692,"midi":62,"time":78.363558,"velocity":0.3858267716535433},{"duration":0.18181800000000692,"midi":62,"time":78.363558,"velocity":0.3858267716535433},{"duration":0.1818179999999927,"midi":57,"time":78.545376,"velocity":0.3858267716535433},{"duration":0.1818179999999927,"midi":57,"time":78.545376,"velocity":0.3858267716535433},{"duration":0.1818179999999927,"midi":57,"time":78.545376,"velocity":0.3858267716535433},{"duration":0.18181800000000692,"midi":57,"time":78.727194,"velocity":0.3858267716535433},{"duration":0.18181800000000692,"midi":57,"time":78.727194,"velocity":0.3858267716535433},{"duration":0.18181800000000692,"midi":57,"time":78.727194,"velocity":0.3858267716535433},{"duration":0.1818179999999927,"midi":57,"time":78.909012,"velocity":0.3858267716535433},{"duration":0.1818179999999927,"midi":57,"time":78.909012,"velocity":0.3858267716535433},{"duration":0.1818179999999927,"midi":57,"time":78.909012,"velocity":0.3858267716535433},{"duration":0.18181800000000692,"midi":57,"time":79.09083,"velocity":0.3858267716535433},{"duration":0.18181800000000692,"midi":57,"time":79.09083,"velocity":0.3858267716535433},{"duration":0.18181800000000692,"midi":57,"time":79.09083,"velocity":0.3858267716535433},{"duration":0.1818179999999927,"midi":57,"time":79.272648,"velocity":0.3858267716535433},{"duration":0.1818179999999927,"midi":57,"time":79.272648,"velocity":0.3858267716535433},{"duration":0.1818179999999927,"midi":57,"time":79.272648,"velocity":0.3858267716535433},{"duration":0.18181800000000692,"midi":57,"time":79.454466,"velocity":0.3858267716535433},{"duration":0.18181800000000692,"midi":57,"time":79.454466,"velocity":0.3858267716535433},{"duration":0.18181800000000692,"midi":57,"time":79.454466,"velocity":0.3858267716535433},{"duration":0.18181800000000692,"midi":58,"time":79.636284,"velocity":0.3858267716535433},{"duration":0.18181800000000692,"midi":58,"time":79.636284,"velocity":0.3858267716535433},{"duration":0.18181800000000692,"midi":58,"time":79.636284,"velocity":0.3858267716535433},{"duration":0.1818179999999927,"midi":57,"time":79.81810200000001,"velocity":0.3858267716535433},{"duration":0.1818179999999927,"midi":57,"time":79.81810200000001,"velocity":0.3858267716535433},{"duration":0.1818179999999927,"midi":57,"time":79.81810200000001,"velocity":0.3858267716535433},{"duration":0.18181800000000692,"midi":55,"time":79.99992,"velocity":0.3858267716535433},{"duration":0.18181800000000692,"midi":55,"time":79.99992,"velocity":0.3858267716535433},{"duration":0.18181800000000692,"midi":55,"time":79.99992,"velocity":0.3858267716535433},{"duration":0.1818179999999927,"midi":55,"time":80.18173800000001,"velocity":0.3858267716535433},{"duration":0.1818179999999927,"midi":55,"time":80.18173800000001,"velocity":0.3858267716535433},{"duration":0.1818179999999927,"midi":55,"time":80.18173800000001,"velocity":0.3858267716535433},{"duration":0.18181800000000692,"midi":55,"time":80.363556,"velocity":0.3858267716535433},{"duration":0.18181800000000692,"midi":55,"time":80.363556,"velocity":0.3858267716535433},{"duration":0.18181800000000692,"midi":55,"time":80.363556,"velocity":0.3858267716535433},{"duration":0.1818179999999927,"midi":55,"time":80.54537400000001,"velocity":0.3858267716535433},{"duration":0.1818179999999927,"midi":55,"time":80.54537400000001,"velocity":0.3858267716535433},{"duration":0.1818179999999927,"midi":55,"time":80.54537400000001,"velocity":0.3858267716535433},{"duration":0.18181800000000692,"midi":55,"time":80.727192,"velocity":0.3858267716535433},{"duration":0.18181800000000692,"midi":55,"time":80.727192,"velocity":0.3858267716535433},{"duration":0.18181800000000692,"midi":55,"time":80.727192,"velocity":0.3858267716535433},{"duration":0.1818179999999927,"midi":55,"time":80.90901000000001,"velocity":0.3858267716535433},{"duration":0.1818179999999927,"midi":55,"time":80.90901000000001,"velocity":0.3858267716535433},{"duration":0.1818179999999927,"midi":55,"time":80.90901000000001,"velocity":0.3858267716535433},{"duration":0.18181800000000692,"midi":53,"time":81.090828,"velocity":0.3858267716535433},{"duration":0.18181800000000692,"midi":53,"time":81.090828,"velocity":0.3858267716535433},{"duration":0.18181800000000692,"midi":53,"time":81.090828,"velocity":0.3858267716535433},{"duration":0.1818179999999927,"midi":53,"time":81.27264600000001,"velocity":0.3858267716535433},{"duration":0.1818179999999927,"midi":53,"time":81.27264600000001,"velocity":0.3858267716535433},{"duration":0.1818179999999927,"midi":53,"time":81.27264600000001,"velocity":0.3858267716535433},{"duration":0.18181800000000692,"midi":55,"time":81.454464,"velocity":0.3858267716535433},{"duration":0.18181800000000692,"midi":55,"time":81.454464,"velocity":0.3858267716535433},{"duration":0.18181800000000692,"midi":55,"time":81.454464,"velocity":0.3858267716535433},{"duration":0.1818179999999927,"midi":55,"time":81.63628200000001,"velocity":0.3858267716535433},{"duration":0.1818179999999927,"midi":55,"time":81.63628200000001,"velocity":0.3858267716535433},{"duration":0.1818179999999927,"midi":55,"time":81.63628200000001,"velocity":0.3858267716535433},{"duration":0.18181800000000692,"midi":55,"time":81.8181,"velocity":0.3858267716535433},{"duration":0.18181800000000692,"midi":55,"time":81.8181,"velocity":0.3858267716535433},{"duration":0.18181800000000692,"midi":55,"time":81.8181,"velocity":0.3858267716535433},{"duration":0.1818179999999927,"midi":55,"time":81.99991800000001,"velocity":0.3858267716535433},{"duration":0.1818179999999927,"midi":55,"time":81.99991800000001,"velocity":0.3858267716535433},{"duration":0.1818179999999927,"midi":55,"time":81.99991800000001,"velocity":0.3858267716535433},{"duration":0.18181800000000692,"midi":55,"time":82.181736,"velocity":0.3858267716535433},{"duration":0.18181800000000692,"midi":55,"time":82.181736,"velocity":0.3858267716535433},{"duration":0.18181800000000692,"midi":55,"time":82.181736,"velocity":0.3858267716535433},{"duration":0.1818179999999927,"midi":55,"time":82.36355400000001,"velocity":0.3858267716535433},{"duration":0.1818179999999927,"midi":55,"time":82.36355400000001,"velocity":0.3858267716535433},{"duration":0.1818179999999927,"midi":55,"time":82.36355400000001,"velocity":0.3858267716535433},{"duration":0.18181800000000692,"midi":55,"time":82.545372,"velocity":0.3858267716535433},{"duration":0.18181800000000692,"midi":55,"time":82.545372,"velocity":0.3858267716535433},{"duration":0.18181800000000692,"midi":55,"time":82.545372,"velocity":0.3858267716535433},{"duration":0.1818179999999927,"midi":55,"time":82.72719000000001,"velocity":0.3858267716535433},{"duration":0.1818179999999927,"midi":55,"time":82.72719000000001,"velocity":0.3858267716535433},{"duration":0.1818179999999927,"midi":55,"time":82.72719000000001,"velocity":0.3858267716535433},{"duration":0.18181800000000692,"midi":58,"time":82.909008,"velocity":0.3858267716535433},{"duration":0.18181800000000692,"midi":58,"time":82.909008,"velocity":0.3858267716535433},{"duration":0.18181800000000692,"midi":58,"time":82.909008,"velocity":0.3858267716535433},{"duration":0.1818179999999927,"midi":58,"time":83.090826,"velocity":0.3858267716535433},{"duration":0.1818179999999927,"midi":58,"time":83.090826,"velocity":0.3858267716535433},{"duration":0.1818179999999927,"midi":58,"time":83.090826,"velocity":0.3858267716535433},{"duration":0.18181800000000692,"midi":58,"time":83.272644,"velocity":0.3858267716535433},{"duration":0.18181800000000692,"midi":58,"time":83.272644,"velocity":0.3858267716535433},{"duration":0.18181800000000692,"midi":58,"time":83.272644,"velocity":0.3858267716535433},{"duration":0.1818179999999927,"midi":58,"time":83.454462,"velocity":0.3858267716535433},{"duration":0.1818179999999927,"midi":58,"time":83.454462,"velocity":0.3858267716535433},{"duration":0.1818179999999927,"midi":58,"time":83.454462,"velocity":0.3858267716535433},{"duration":0.18181800000000692,"midi":58,"time":83.63628,"velocity":0.3858267716535433},{"duration":0.18181800000000692,"midi":58,"time":83.63628,"velocity":0.3858267716535433},{"duration":0.18181800000000692,"midi":58,"time":83.63628,"velocity":0.3858267716535433},{"duration":0.1818179999999927,"midi":58,"time":83.818098,"velocity":0.3858267716535433},{"duration":0.1818179999999927,"midi":58,"time":83.818098,"velocity":0.3858267716535433},{"duration":0.1818179999999927,"midi":58,"time":83.818098,"velocity":0.3858267716535433},{"duration":0.18181800000000692,"midi":60,"time":83.999916,"velocity":0.3858267716535433},{"duration":0.18181800000000692,"midi":60,"time":83.999916,"velocity":0.3858267716535433},{"duration":0.18181800000000692,"midi":60,"time":83.999916,"velocity":0.3858267716535433},{"duration":0.1818179999999927,"midi":58,"time":84.181734,"velocity":0.3858267716535433},{"duration":0.1818179999999927,"midi":58,"time":84.181734,"velocity":0.3858267716535433},{"duration":0.1818179999999927,"midi":58,"time":84.181734,"velocity":0.3858267716535433},{"duration":0.18181800000000692,"midi":57,"time":84.363552,"velocity":0.3858267716535433},{"duration":0.18181800000000692,"midi":57,"time":84.363552,"velocity":0.3858267716535433},{"duration":0.18181800000000692,"midi":57,"time":84.363552,"velocity":0.3858267716535433},{"duration":0.1818179999999927,"midi":57,"time":84.54537,"velocity":0.3858267716535433},{"duration":0.1818179999999927,"midi":57,"time":84.54537,"velocity":0.3858267716535433},{"duration":0.1818179999999927,"midi":57,"time":84.54537,"velocity":0.3858267716535433},{"duration":0.18181800000000692,"midi":57,"time":84.727188,"velocity":0.3858267716535433},{"duration":0.18181800000000692,"midi":57,"time":84.727188,"velocity":0.3858267716535433},{"duration":0.18181800000000692,"midi":57,"time":84.727188,"velocity":0.3858267716535433},{"duration":0.1818179999999927,"midi":57,"time":84.909006,"velocity":0.3858267716535433},{"duration":0.1818179999999927,"midi":57,"time":84.909006,"velocity":0.3858267716535433},{"duration":0.1818179999999927,"midi":57,"time":84.909006,"velocity":0.3858267716535433},{"duration":0.18181800000000692,"midi":57,"time":85.090824,"velocity":0.3858267716535433},{"duration":0.18181800000000692,"midi":57,"time":85.090824,"velocity":0.3858267716535433},{"duration":0.18181800000000692,"midi":57,"time":85.090824,"velocity":0.3858267716535433},{"duration":0.1818179999999927,"midi":57,"time":85.272642,"velocity":0.3858267716535433},{"duration":0.1818179999999927,"midi":57,"time":85.272642,"velocity":0.3858267716535433},{"duration":0.1818179999999927,"midi":57,"time":85.272642,"velocity":0.3858267716535433},{"duration":0.18181800000000692,"midi":57,"time":85.45446,"velocity":0.3858267716535433},{"duration":0.18181800000000692,"midi":57,"time":85.45446,"velocity":0.3858267716535433},{"duration":0.18181800000000692,"midi":57,"time":85.45446,"velocity":0.3858267716535433},{"duration":0.1818179999999927,"midi":57,"time":85.636278,"velocity":0.3858267716535433},{"duration":0.1818179999999927,"midi":57,"time":85.636278,"velocity":0.3858267716535433},{"duration":0.1818179999999927,"midi":57,"time":85.636278,"velocity":0.3858267716535433},{"duration":0.18181800000000692,"midi":58,"time":85.818096,"velocity":0.3858267716535433},{"duration":0.18181800000000692,"midi":58,"time":85.818096,"velocity":0.3858267716535433},{"duration":0.18181800000000692,"midi":58,"time":85.818096,"velocity":0.3858267716535433},{"duration":0.1818179999999927,"midi":58,"time":85.999914,"velocity":0.3858267716535433},{"duration":0.1818179999999927,"midi":58,"time":85.999914,"velocity":0.3858267716535433},{"duration":0.1818179999999927,"midi":58,"time":85.999914,"velocity":0.3858267716535433},{"duration":0.18181800000000692,"midi":58,"time":86.181732,"velocity":0.3858267716535433},{"duration":0.18181800000000692,"midi":58,"time":86.181732,"velocity":0.3858267716535433},{"duration":0.18181800000000692,"midi":58,"time":86.181732,"velocity":0.3858267716535433},{"duration":0.18181800000000692,"midi":58,"time":86.36355,"velocity":0.3858267716535433},{"duration":0.18181800000000692,"midi":58,"time":86.36355,"velocity":0.3858267716535433},{"duration":0.18181800000000692,"midi":58,"time":86.36355,"velocity":0.3858267716535433},{"duration":0.1818179999999927,"midi":58,"time":86.54536800000001,"velocity":0.3858267716535433},{"duration":0.1818179999999927,"midi":58,"time":86.54536800000001,"velocity":0.3858267716535433},{"duration":0.1818179999999927,"midi":58,"time":86.54536800000001,"velocity":0.3858267716535433},{"duration":0.18181800000000692,"midi":58,"time":86.727186,"velocity":0.3858267716535433},{"duration":0.18181800000000692,"midi":58,"time":86.727186,"velocity":0.3858267716535433},{"duration":0.18181800000000692,"midi":58,"time":86.727186,"velocity":0.3858267716535433},{"duration":0.1818179999999927,"midi":58,"time":86.90900400000001,"velocity":0.3858267716535433},{"duration":0.1818179999999927,"midi":58,"time":86.90900400000001,"velocity":0.3858267716535433},{"duration":0.1818179999999927,"midi":58,"time":86.90900400000001,"velocity":0.3858267716535433},{"duration":0.18181800000000692,"midi":58,"time":87.090822,"velocity":0.3858267716535433},{"duration":0.18181800000000692,"midi":58,"time":87.090822,"velocity":0.3858267716535433},{"duration":0.18181800000000692,"midi":58,"time":87.090822,"velocity":0.3858267716535433},{"duration":0.1818179999999927,"midi":62,"time":87.27264000000001,"velocity":0.3858267716535433},{"duration":0.1818179999999927,"midi":62,"time":87.27264000000001,"velocity":0.3858267716535433},{"duration":0.1818179999999927,"midi":62,"time":87.27264000000001,"velocity":0.3858267716535433},{"duration":0.18181800000000692,"midi":62,"time":87.454458,"velocity":0.3858267716535433},{"duration":0.18181800000000692,"midi":62,"time":87.454458,"velocity":0.3858267716535433},{"duration":0.18181800000000692,"midi":62,"time":87.454458,"velocity":0.3858267716535433},{"duration":0.1818179999999927,"midi":62,"time":87.63627600000001,"velocity":0.3858267716535433},{"duration":0.1818179999999927,"midi":62,"time":87.63627600000001,"velocity":0.3858267716535433},{"duration":0.1818179999999927,"midi":62,"time":87.63627600000001,"velocity":0.3858267716535433},{"duration":0.18181800000000692,"midi":62,"time":87.818094,"velocity":0.3858267716535433},{"duration":0.18181800000000692,"midi":62,"time":87.818094,"velocity":0.3858267716535433},{"duration":0.18181800000000692,"midi":62,"time":87.818094,"velocity":0.3858267716535433},{"duration":0.1818179999999927,"midi":62,"time":87.99991200000001,"velocity":0.3858267716535433},{"duration":0.1818179999999927,"midi":62,"time":87.99991200000001,"velocity":0.3858267716535433},{"duration":0.1818179999999927,"midi":62,"time":87.99991200000001,"velocity":0.3858267716535433},{"duration":0.18181800000000692,"midi":62,"time":88.18173,"velocity":0.3858267716535433},{"duration":0.18181800000000692,"midi":62,"time":88.18173,"velocity":0.3858267716535433},{"duration":0.18181800000000692,"midi":62,"time":88.18173,"velocity":0.3858267716535433},{"duration":0.1818179999999927,"midi":62,"time":88.36354800000001,"velocity":0.3858267716535433},{"duration":0.1818179999999927,"midi":62,"time":88.36354800000001,"velocity":0.3858267716535433},{"duration":0.1818179999999927,"midi":62,"time":88.36354800000001,"velocity":0.3858267716535433},{"duration":0.18181800000000692,"midi":63,"time":88.545366,"velocity":0.3858267716535433},{"duration":0.18181800000000692,"midi":63,"time":88.545366,"velocity":0.3858267716535433},{"duration":0.18181800000000692,"midi":63,"time":88.545366,"velocity":0.3858267716535433},{"duration":0.1818179999999927,"midi":62,"time":88.72718400000001,"velocity":0.3858267716535433},{"duration":0.1818179999999927,"midi":62,"time":88.72718400000001,"velocity":0.3858267716535433},{"duration":0.1818179999999927,"midi":62,"time":88.72718400000001,"velocity":0.3858267716535433},{"duration":0.18181800000000692,"midi":62,"time":88.909002,"velocity":0.3858267716535433},{"duration":0.18181800000000692,"midi":62,"time":88.909002,"velocity":0.3858267716535433},{"duration":0.18181800000000692,"midi":62,"time":88.909002,"velocity":0.3858267716535433},{"duration":0.1818179999999927,"midi":62,"time":89.09082000000001,"velocity":0.3858267716535433},{"duration":0.1818179999999927,"midi":62,"time":89.09082000000001,"velocity":0.3858267716535433},{"duration":0.1818179999999927,"midi":62,"time":89.09082000000001,"velocity":0.3858267716535433},{"duration":0.18181800000000692,"midi":62,"time":89.272638,"velocity":0.3858267716535433},{"duration":0.18181800000000692,"midi":62,"time":89.272638,"velocity":0.3858267716535433},{"duration":0.18181800000000692,"midi":62,"time":89.272638,"velocity":0.3858267716535433},{"duration":0.1818179999999927,"midi":62,"time":89.45445600000001,"velocity":0.3858267716535433},{"duration":0.1818179999999927,"midi":62,"time":89.45445600000001,"velocity":0.3858267716535433},{"duration":0.1818179999999927,"midi":62,"time":89.45445600000001,"velocity":0.3858267716535433},{"duration":0.18181800000000692,"midi":62,"time":89.636274,"velocity":0.3858267716535433},{"duration":0.18181800000000692,"midi":62,"time":89.636274,"velocity":0.3858267716535433},{"duration":0.18181800000000692,"midi":62,"time":89.636274,"velocity":0.3858267716535433},{"duration":0.1818179999999927,"midi":62,"time":89.81809200000001,"velocity":0.3858267716535433},{"duration":0.1818179999999927,"midi":62,"time":89.81809200000001,"velocity":0.3858267716535433},{"duration":0.1818179999999927,"midi":62,"time":89.81809200000001,"velocity":0.3858267716535433},{"duration":0.18181800000000692,"midi":62,"time":89.99991,"velocity":0.3858267716535433},{"duration":0.18181800000000692,"midi":62,"time":89.99991,"velocity":0.3858267716535433},{"duration":0.18181800000000692,"midi":62,"time":89.99991,"velocity":0.3858267716535433},{"duration":0.1818179999999927,"midi":57,"time":90.181728,"velocity":0.3858267716535433},{"duration":0.1818179999999927,"midi":57,"time":90.181728,"velocity":0.3858267716535433},{"duration":0.1818179999999927,"midi":57,"time":90.181728,"velocity":0.3858267716535433},{"duration":0.18181800000000692,"midi":57,"time":90.363546,"velocity":0.3858267716535433},{"duration":0.18181800000000692,"midi":57,"time":90.363546,"velocity":0.3858267716535433},{"duration":0.18181800000000692,"midi":57,"time":90.363546,"velocity":0.3858267716535433},{"duration":0.1818179999999927,"midi":57,"time":90.545364,"velocity":0.3858267716535433},{"duration":0.1818179999999927,"midi":57,"time":90.545364,"velocity":0.3858267716535433},{"duration":0.1818179999999927,"midi":57,"time":90.545364,"velocity":0.3858267716535433},{"duration":0.18181800000000692,"midi":57,"time":90.727182,"velocity":0.3858267716535433},{"duration":0.18181800000000692,"midi":57,"time":90.727182,"velocity":0.3858267716535433},{"duration":0.18181800000000692,"midi":57,"time":90.727182,"velocity":0.3858267716535433},{"duration":0.1818179999999927,"midi":57,"time":90.909,"velocity":0.3858267716535433},{"duration":0.1818179999999927,"midi":57,"time":90.909,"velocity":0.3858267716535433},{"duration":0.1818179999999927,"midi":57,"time":90.909,"velocity":0.3858267716535433},{"duration":0.18181800000000692,"midi":57,"time":91.090818,"velocity":0.3858267716535433},{"duration":0.18181800000000692,"midi":57,"time":91.090818,"velocity":0.3858267716535433},{"duration":0.18181800000000692,"midi":57,"time":91.090818,"velocity":0.3858267716535433},{"duration":0.1818179999999927,"midi":58,"time":91.272636,"velocity":0.3858267716535433},{"duration":0.1818179999999927,"midi":58,"time":91.272636,"velocity":0.3858267716535433},{"duration":0.1818179999999927,"midi":58,"time":91.272636,"velocity":0.3858267716535433},{"duration":0.18181800000000692,"midi":57,"time":91.454454,"velocity":0.3858267716535433},{"duration":0.18181800000000692,"midi":57,"time":91.454454,"velocity":0.3858267716535433},{"duration":0.18181800000000692,"midi":57,"time":91.454454,"velocity":0.3858267716535433},{"duration":0.1818179999999927,"midi":55,"time":91.636272,"velocity":0.3858267716535433},{"duration":0.1818179999999927,"midi":55,"time":91.636272,"velocity":0.3858267716535433},{"duration":0.1818179999999927,"midi":55,"time":91.636272,"velocity":0.3858267716535433},{"duration":0.18181800000000692,"midi":55,"time":91.81809,"velocity":0.3858267716535433},{"duration":0.18181800000000692,"midi":55,"time":91.81809,"velocity":0.3858267716535433},{"duration":0.18181800000000692,"midi":55,"time":91.81809,"velocity":0.3858267716535433},{"duration":0.1818179999999927,"midi":55,"time":91.999908,"velocity":0.3858267716535433},{"duration":0.1818179999999927,"midi":55,"time":91.999908,"velocity":0.3858267716535433},{"duration":0.1818179999999927,"midi":55,"time":91.999908,"velocity":0.3858267716535433},{"duration":0.18181800000000692,"midi":55,"time":92.181726,"velocity":0.3858267716535433},{"duration":0.18181800000000692,"midi":55,"time":92.181726,"velocity":0.3858267716535433},{"duration":0.18181800000000692,"midi":55,"time":92.181726,"velocity":0.3858267716535433},{"duration":0.1818179999999927,"midi":55,"time":92.363544,"velocity":0.3858267716535433},{"duration":0.1818179999999927,"midi":55,"time":92.363544,"velocity":0.3858267716535433},{"duration":0.1818179999999927,"midi":55,"time":92.363544,"velocity":0.3858267716535433},{"duration":0.18181800000000692,"midi":55,"time":92.545362,"velocity":0.3858267716535433},{"duration":0.18181800000000692,"midi":55,"time":92.545362,"velocity":0.3858267716535433},{"duration":0.18181800000000692,"midi":55,"time":92.545362,"velocity":0.3858267716535433},{"duration":0.1818179999999927,"midi":53,"time":92.72718,"velocity":0.3858267716535433},{"duration":0.1818179999999927,"midi":53,"time":92.72718,"velocity":0.3858267716535433},{"duration":0.1818179999999927,"midi":53,"time":92.72718,"velocity":0.3858267716535433},{"duration":0.18181800000000692,"midi":53,"time":92.908998,"velocity":0.3858267716535433},{"duration":0.18181800000000692,"midi":53,"time":92.908998,"velocity":0.3858267716535433},{"duration":0.18181800000000692,"midi":53,"time":92.908998,"velocity":0.3858267716535433},{"duration":0.18181800000000692,"midi":69,"time":93.090816,"velocity":0.3858267716535433},{"duration":0.1818179999999927,"midi":70,"time":93.27263400000001,"velocity":0.3858267716535433},{"duration":0.18181800000000692,"midi":74,"time":93.454452,"velocity":0.3858267716535433},{"duration":0.1818179999999927,"midi":70,"time":93.63627000000001,"velocity":0.3858267716535433},{"duration":0.18181800000000692,"midi":69,"time":93.818088,"velocity":0.3858267716535433},{"duration":0.1818179999999927,"midi":70,"time":93.99990600000001,"velocity":0.3858267716535433},{"duration":0.18181800000000692,"midi":74,"time":94.181724,"velocity":0.3858267716535433},{"duration":0.1818179999999927,"midi":70,"time":94.36354200000001,"velocity":0.3858267716535433},{"duration":0.18181800000000692,"midi":69,"time":94.54536,"velocity":0.3858267716535433},{"duration":0.1818179999999927,"midi":70,"time":94.72717800000001,"velocity":0.3858267716535433},{"duration":0.18181800000000692,"midi":74,"time":94.908996,"velocity":0.3858267716535433},{"duration":0.1818179999999927,"midi":70,"time":95.09081400000001,"velocity":0.3858267716535433},{"duration":0.18181800000000692,"midi":69,"time":95.272632,"velocity":0.3858267716535433},{"duration":0.1818179999999927,"midi":70,"time":95.45445000000001,"velocity":0.3858267716535433},{"duration":0.18181800000000692,"midi":74,"time":95.636268,"velocity":0.3858267716535433},{"duration":0.1818179999999927,"midi":70,"time":95.81808600000001,"velocity":0.3858267716535433},{"duration":0.18181800000000692,"midi":65,"time":95.999904,"velocity":0.3858267716535433},{"duration":0.1818179999999927,"midi":69,"time":96.18172200000001,"velocity":0.3858267716535433},{"duration":0.18181800000000692,"midi":72,"time":96.36354,"velocity":0.3858267716535433},{"duration":0.1818179999999927,"midi":69,"time":96.54535800000001,"velocity":0.3858267716535433},{"duration":0.18181800000000692,"midi":65,"time":96.727176,"velocity":0.3858267716535433},{"duration":0.1818179999999927,"midi":69,"time":96.908994,"velocity":0.3858267716535433},{"duration":0.18181800000000692,"midi":72,"time":97.090812,"velocity":0.3858267716535433},{"duration":0.1818179999999927,"midi":69,"time":97.27263,"velocity":0.3858267716535433},{"duration":0.18181800000000692,"midi":67,"time":97.454448,"velocity":0.3858267716535433},{"duration":0.1818179999999927,"midi":70,"time":97.636266,"velocity":0.3858267716535433},{"duration":0.18181800000000692,"midi":74,"time":97.818084,"velocity":0.3858267716535433},{"duration":0.1818179999999927,"midi":70,"time":97.999902,"velocity":0.3858267716535433},{"duration":0.18181800000000692,"midi":67,"time":98.18172,"velocity":0.3858267716535433},{"duration":0.1818179999999927,"midi":70,"time":98.363538,"velocity":0.3858267716535433},{"duration":0.18181800000000692,"midi":74,"time":98.545356,"velocity":0.3858267716535433},{"duration":0.1818179999999927,"midi":70,"time":98.727174,"velocity":0.3858267716535433},{"duration":0.18181800000000692,"midi":69,"time":98.908992,"velocity":0.3858267716535433},{"duration":0.1818179999999927,"midi":70,"time":99.09081,"velocity":0.3858267716535433},{"duration":0.18181800000000692,"midi":74,"time":99.272628,"velocity":0.3858267716535433},{"duration":0.1818179999999927,"midi":70,"time":99.454446,"velocity":0.3858267716535433},{"duration":0.18181800000000692,"midi":69,"time":99.636264,"velocity":0.3858267716535433},{"duration":0.18181800000000692,"midi":70,"time":99.818082,"velocity":0.3858267716535433},{"duration":0.1818179999999927,"midi":74,"time":99.99990000000001,"velocity":0.3858267716535433},{"duration":0.18181800000000692,"midi":70,"time":100.181718,"velocity":0.3858267716535433},{"duration":0.1818179999999927,"midi":69,"time":100.36353600000001,"velocity":0.3858267716535433},{"duration":0.18181800000000692,"midi":70,"time":100.545354,"velocity":0.3858267716535433},{"duration":0.1818179999999927,"midi":74,"time":100.72717200000001,"velocity":0.3858267716535433},{"duration":0.18181800000000692,"midi":70,"time":100.90899,"velocity":0.3858267716535433},{"duration":0.1818179999999927,"midi":69,"time":101.09080800000001,"velocity":0.3858267716535433},{"duration":0.18181800000000692,"midi":70,"time":101.272626,"velocity":0.3858267716535433},{"duration":0.1818179999999927,"midi":74,"time":101.45444400000001,"velocity":0.3858267716535433},{"duration":0.18181800000000692,"midi":70,"time":101.636262,"velocity":0.3858267716535433},{"duration":0.1818179999999927,"midi":65,"time":101.81808000000001,"velocity":0.3858267716535433},{"duration":0.18181800000000692,"midi":69,"time":101.999898,"velocity":0.3858267716535433},{"duration":0.1818179999999927,"midi":72,"time":102.18171600000001,"velocity":0.3858267716535433},{"duration":0.18181800000000692,"midi":69,"time":102.363534,"velocity":0.3858267716535433},{"duration":0.1818179999999927,"midi":65,"time":102.54535200000001,"velocity":0.3858267716535433},{"duration":0.18181800000000692,"midi":69,"time":102.72717,"velocity":0.3858267716535433},{"duration":0.1818179999999927,"midi":72,"time":102.90898800000001,"velocity":0.3858267716535433},{"duration":0.18181800000000692,"midi":69,"time":103.090806,"velocity":0.3858267716535433},{"duration":0.1818179999999927,"midi":67,"time":103.27262400000001,"velocity":0.3858267716535433},{"duration":0.18181800000000692,"midi":70,"time":103.454442,"velocity":0.3858267716535433},{"duration":0.1818179999999927,"midi":74,"time":103.63626000000001,"velocity":0.3858267716535433},{"duration":0.18181800000000692,"midi":70,"time":103.818078,"velocity":0.3858267716535433},{"duration":0.1818179999999927,"midi":67,"time":103.999896,"velocity":0.3858267716535433},{"duration":0.18181800000000692,"midi":70,"time":104.181714,"velocity":0.3858267716535433},{"duration":0.1818179999999927,"midi":74,"time":104.363532,"velocity":0.3858267716535433},{"duration":0.18181800000000692,"midi":70,"time":104.54535,"velocity":0.3858267716535433},{"duration":0.1818179999999927,"midi":74,"time":104.727168,"velocity":0.3858267716535433},{"duration":0.09090900000001056,"midi":31,"time":105.636258,"velocity":0.3858267716535433},{"duration":0.09090899999999635,"midi":38,"time":105.818076,"velocity":0.3858267716535433},{"duration":0.09090900000001056,"midi":31,"time":105.999894,"velocity":0.3858267716535433},{"duration":0.09090899999999635,"midi":31,"time":107.09080200000001,"velocity":0.3858267716535433},{"duration":0.09090899999999635,"midi":38,"time":107.27262,"velocity":0.3858267716535433},{"duration":0.09090899999999635,"midi":31,"time":107.45443800000001,"velocity":0.3858267716535433},{"duration":0.09090899999999635,"midi":31,"time":108.54534600000001,"velocity":0.3858267716535433},{"duration":0.09090899999999635,"midi":38,"time":108.727164,"velocity":0.3858267716535433},{"duration":0.09090899999999635,"midi":31,"time":108.90898200000001,"velocity":0.3858267716535433},{"duration":0.3636359999999854,"midi":67,"time":127.99987200000001,"velocity":0.3858267716535433},{"duration":0.18181800000002113,"midi":70,"time":128.363508,"velocity":0.3858267716535433},{"duration":0.1818179999999927,"midi":67,"time":128.54532600000002,"velocity":0.3858267716535433},{"duration":0.3636359999999854,"midi":62,"time":128.727144,"velocity":0.3858267716535433},{"duration":0.36363600000001384,"midi":58,"time":129.09078,"velocity":0.3858267716535433},{"duration":0.3636359999999854,"midi":55,"time":129.454416,"velocity":0.3858267716535433},{"duration":0.36363600000001384,"midi":62,"time":129.818052,"velocity":0.3858267716535433},{"duration":0.1818179999999927,"midi":62,"time":130.181688,"velocity":0.3858267716535433},{"duration":0.1818179999999927,"midi":61,"time":130.363506,"velocity":0.3858267716535433},{"duration":0.18181800000002113,"midi":60,"time":130.545324,"velocity":0.3858267716535433},{"duration":0.1818179999999927,"midi":58,"time":130.72714200000001,"velocity":0.3858267716535433},{"duration":0.3636359999999854,"midi":67,"time":130.90896,"velocity":0.3858267716535433},{"duration":0.18181800000002113,"midi":70,"time":131.272596,"velocity":0.3858267716535433},{"duration":0.1818179999999927,"midi":67,"time":131.454414,"velocity":0.3858267716535433},{"duration":0.3636359999999854,"midi":62,"time":131.636232,"velocity":0.3858267716535433},{"duration":0.36363600000001384,"midi":58,"time":131.999868,"velocity":0.3858267716535433},{"duration":0.3636359999999854,"midi":55,"time":132.363504,"velocity":0.3858267716535433},{"duration":0.36363600000001384,"midi":62,"time":132.72714,"velocity":0.3858267716535433},{"duration":0.1818179999999927,"midi":62,"time":133.090776,"velocity":0.3858267716535433},{"duration":0.18181800000002113,"midi":61,"time":133.272594,"velocity":0.3858267716535433},{"duration":0.1818179999999927,"midi":60,"time":133.45441200000002,"velocity":0.3858267716535433},{"duration":0.1818179999999927,"midi":58,"time":133.63623,"velocity":0.3858267716535433},{"duration":0.36363600000001384,"midi":67,"time":133.818048,"velocity":0.3858267716535433},{"duration":0.1818179999999927,"midi":70,"time":134.18168400000002,"velocity":0.3858267716535433},{"duration":0.1818179999999927,"midi":67,"time":134.363502,"velocity":0.3858267716535433},{"duration":0.36363600000001384,"midi":62,"time":134.54532,"velocity":0.3858267716535433},{"duration":0.3636359999999854,"midi":58,"time":134.90895600000002,"velocity":0.3858267716535433},{"duration":0.36363600000001384,"midi":55,"time":135.272592,"velocity":0.3858267716535433},{"duration":0.3636359999999854,"midi":62,"time":135.63622800000002,"velocity":0.3858267716535433},{"duration":0.1818179999999927,"midi":62,"time":135.999864,"velocity":0.3858267716535433},{"duration":0.18181800000002113,"midi":61,"time":136.181682,"velocity":0.3858267716535433},{"duration":0.1818179999999927,"midi":60,"time":136.36350000000002,"velocity":0.3858267716535433},{"duration":0.1818179999999927,"midi":58,"time":136.545318,"velocity":0.3858267716535433},{"duration":0.36363600000001384,"midi":67,"time":136.727136,"velocity":0.3858267716535433},{"duration":0.1818179999999927,"midi":70,"time":137.09077200000002,"velocity":0.3858267716535433},{"duration":0.1818179999999927,"midi":67,"time":137.27259,"velocity":0.3858267716535433},{"duration":0.36363600000001384,"midi":62,"time":137.454408,"velocity":0.3858267716535433},{"duration":0.3636359999999854,"midi":58,"time":137.81804400000001,"velocity":0.3858267716535433},{"duration":0.36363600000001384,"midi":55,"time":138.18168,"velocity":0.3858267716535433},{"duration":0.3636359999999854,"midi":62,"time":138.545316,"velocity":0.3858267716535433},{"duration":0.1818179999999927,"midi":62,"time":138.908952,"velocity":0.3858267716535433},{"duration":0.18181800000002113,"midi":61,"time":139.09077,"velocity":0.3858267716535433},{"duration":0.1818179999999927,"midi":60,"time":139.272588,"velocity":0.3858267716535433},{"duration":0.1818179999999927,"midi":58,"time":139.454406,"velocity":0.3858267716535433},{"duration":0.3636359999999854,"midi":67,"time":184.727088,"velocity":0.3858267716535433},{"duration":0.18181800000002113,"midi":70,"time":185.090724,"velocity":0.3858267716535433},{"duration":0.1818179999999927,"midi":67,"time":185.27254200000002,"velocity":0.3858267716535433},{"duration":0.3636359999999854,"midi":62,"time":185.45436,"velocity":0.3858267716535433},{"duration":0.36363600000001384,"midi":58,"time":185.817996,"velocity":0.3858267716535433},{"duration":0.18181800000002113,"midi":69,"time":197.817984,"velocity":0.3858267716535433},{"duration":0.18181800000002113,"midi":69,"time":197.817984,"velocity":0.3858267716535433},{"duration":0.1818179999999927,"midi":70,"time":197.99980200000002,"velocity":0.3858267716535433},{"duration":0.1818179999999927,"midi":70,"time":197.99980200000002,"velocity":0.3858267716535433},{"duration":0.1818179999999927,"midi":74,"time":198.18162,"velocity":0.3858267716535433},{"duration":0.1818179999999927,"midi":74,"time":198.18162,"velocity":0.3858267716535433},{"duration":0.1818179999999927,"midi":70,"time":198.363438,"velocity":0.3858267716535433},{"duration":0.1818179999999927,"midi":70,"time":198.363438,"velocity":0.3858267716535433},{"duration":0.18181800000002113,"midi":69,"time":198.545256,"velocity":0.3858267716535433},{"duration":0.18181800000002113,"midi":69,"time":198.545256,"velocity":0.3858267716535433},{"duration":0.1818179999999927,"midi":70,"time":198.72707400000002,"velocity":0.3858267716535433},{"duration":0.1818179999999927,"midi":70,"time":198.72707400000002,"velocity":0.3858267716535433},{"duration":0.1818179999999927,"midi":74,"time":198.908892,"velocity":0.3858267716535433},{"duration":0.1818179999999927,"midi":74,"time":198.908892,"velocity":0.3858267716535433},{"duration":0.1818179999999927,"midi":70,"time":199.09071,"velocity":0.3858267716535433},{"duration":0.1818179999999927,"midi":70,"time":199.09071,"velocity":0.3858267716535433},{"duration":0.18181800000002113,"midi":69,"time":199.272528,"velocity":0.3858267716535433},{"duration":0.18181800000002113,"midi":69,"time":199.272528,"velocity":0.3858267716535433},{"duration":0.1818179999999927,"midi":70,"time":199.45434600000002,"velocity":0.3858267716535433},{"duration":0.1818179999999927,"midi":70,"time":199.45434600000002,"velocity":0.3858267716535433},{"duration":0.1818179999999927,"midi":74,"time":199.636164,"velocity":0.3858267716535433},{"duration":0.1818179999999927,"midi":74,"time":199.636164,"velocity":0.3858267716535433},{"duration":0.18181800000002113,"midi":70,"time":199.817982,"velocity":0.3858267716535433},{"duration":0.18181800000002113,"midi":70,"time":199.817982,"velocity":0.3858267716535433},{"duration":0.1818179999999927,"midi":69,"time":199.99980000000002,"velocity":0.3858267716535433},{"duration":0.1818179999999927,"midi":69,"time":199.99980000000002,"velocity":0.3858267716535433},{"duration":0.1818179999999927,"midi":70,"time":200.18161800000001,"velocity":0.3858267716535433},{"duration":0.1818179999999927,"midi":70,"time":200.18161800000001,"velocity":0.3858267716535433},{"duration":0.1818179999999927,"midi":74,"time":200.363436,"velocity":0.3858267716535433},{"duration":0.1818179999999927,"midi":74,"time":200.363436,"velocity":0.3858267716535433},{"duration":0.18181800000002113,"midi":70,"time":200.545254,"velocity":0.3858267716535433},{"duration":0.18181800000002113,"midi":70,"time":200.545254,"velocity":0.3858267716535433},{"duration":0.1818179999999927,"midi":65,"time":200.72707200000002,"velocity":0.3858267716535433},{"duration":0.1818179999999927,"midi":65,"time":200.72707200000002,"velocity":0.3858267716535433},{"duration":0.1818179999999927,"midi":69,"time":200.90889,"velocity":0.3858267716535433},{"duration":0.1818179999999927,"midi":69,"time":200.90889,"velocity":0.3858267716535433},{"duration":0.1818179999999927,"midi":72,"time":201.090708,"velocity":0.3858267716535433},{"duration":0.1818179999999927,"midi":72,"time":201.090708,"velocity":0.3858267716535433},{"duration":0.18181800000002113,"midi":69,"time":201.272526,"velocity":0.3858267716535433},{"duration":0.18181800000002113,"midi":69,"time":201.272526,"velocity":0.3858267716535433},{"duration":0.1818179999999927,"midi":65,"time":201.45434400000002,"velocity":0.3858267716535433},{"duration":0.1818179999999927,"midi":65,"time":201.45434400000002,"velocity":0.3858267716535433},{"duration":0.1818179999999927,"midi":69,"time":201.636162,"velocity":0.3858267716535433},{"duration":0.1818179999999927,"midi":69,"time":201.636162,"velocity":0.3858267716535433},{"duration":0.1818179999999927,"midi":72,"time":201.81798,"velocity":0.3858267716535433},{"duration":0.1818179999999927,"midi":72,"time":201.81798,"velocity":0.3858267716535433},{"duration":0.18181800000002113,"midi":69,"time":201.999798,"velocity":0.3858267716535433},{"duration":0.18181800000002113,"midi":69,"time":201.999798,"velocity":0.3858267716535433},{"duration":0.1818179999999927,"midi":67,"time":202.18161600000002,"velocity":0.3858267716535433},{"duration":0.1818179999999927,"midi":67,"time":202.18161600000002,"velocity":0.3858267716535433},{"duration":0.1818179999999927,"midi":70,"time":202.363434,"velocity":0.3858267716535433},{"duration":0.1818179999999927,"midi":70,"time":202.363434,"velocity":0.3858267716535433},{"duration":0.1818179999999927,"midi":74,"time":202.545252,"velocity":0.3858267716535433},{"duration":0.1818179999999927,"midi":74,"time":202.545252,"velocity":0.3858267716535433},{"duration":0.18181800000002113,"midi":70,"time":202.72707,"velocity":0.3858267716535433},{"duration":0.18181800000002113,"midi":70,"time":202.72707,"velocity":0.3858267716535433},{"duration":0.1818179999999927,"midi":67,"time":202.90888800000002,"velocity":0.3858267716535433},{"duration":0.1818179999999927,"midi":67,"time":202.90888800000002,"velocity":0.3858267716535433},{"duration":0.1818179999999927,"midi":70,"time":203.090706,"velocity":0.3858267716535433},{"duration":0.1818179999999927,"midi":70,"time":203.090706,"velocity":0.3858267716535433},{"duration":0.1818179999999927,"midi":74,"time":203.272524,"velocity":0.3858267716535433},{"duration":0.1818179999999927,"midi":74,"time":203.272524,"velocity":0.3858267716535433},{"duration":0.18181800000002113,"midi":70,"time":203.454342,"velocity":0.3858267716535433},{"duration":0.18181800000002113,"midi":70,"time":203.454342,"velocity":0.3858267716535433},{"duration":0.1818179999999927,"midi":69,"time":203.63616000000002,"velocity":0.3858267716535433},{"duration":0.1818179999999927,"midi":69,"time":203.63616000000002,"velocity":0.3858267716535433},{"duration":0.1818179999999927,"midi":70,"time":203.817978,"velocity":0.3858267716535433},{"duration":0.1818179999999927,"midi":70,"time":203.817978,"velocity":0.3858267716535433},{"duration":0.1818179999999927,"midi":74,"time":203.999796,"velocity":0.3858267716535433},{"duration":0.1818179999999927,"midi":74,"time":203.999796,"velocity":0.3858267716535433},{"duration":0.18181800000002113,"midi":70,"time":204.181614,"velocity":0.3858267716535433},{"duration":0.18181800000002113,"midi":70,"time":204.181614,"velocity":0.3858267716535433},{"duration":0.1818179999999927,"midi":69,"time":204.36343200000002,"velocity":0.3858267716535433},{"duration":0.1818179999999927,"midi":69,"time":204.36343200000002,"velocity":0.3858267716535433},{"duration":0.1818179999999927,"midi":70,"time":204.54525,"velocity":0.3858267716535433},{"duration":0.1818179999999927,"midi":70,"time":204.54525,"velocity":0.3858267716535433},{"duration":0.1818179999999927,"midi":74,"time":204.727068,"velocity":0.3858267716535433},{"duration":0.1818179999999927,"midi":74,"time":204.727068,"velocity":0.3858267716535433},{"duration":0.18181800000002113,"midi":70,"time":204.908886,"velocity":0.3858267716535433},{"duration":0.18181800000002113,"midi":70,"time":204.908886,"velocity":0.3858267716535433},{"duration":0.1818179999999927,"midi":69,"time":205.09070400000002,"velocity":0.3858267716535433},{"duration":0.1818179999999927,"midi":69,"time":205.09070400000002,"velocity":0.3858267716535433},{"duration":0.1818179999999927,"midi":70,"time":205.272522,"velocity":0.3858267716535433},{"duration":0.1818179999999927,"midi":70,"time":205.272522,"velocity":0.3858267716535433},{"duration":0.1818179999999927,"midi":74,"time":205.45434,"velocity":0.3858267716535433},{"duration":0.1818179999999927,"midi":74,"time":205.45434,"velocity":0.3858267716535433},{"duration":0.18181800000002113,"midi":70,"time":205.636158,"velocity":0.3858267716535433},{"duration":0.18181800000002113,"midi":70,"time":205.636158,"velocity":0.3858267716535433},{"duration":0.1818179999999927,"midi":69,"time":205.81797600000002,"velocity":0.3858267716535433},{"duration":0.1818179999999927,"midi":69,"time":205.81797600000002,"velocity":0.3858267716535433},{"duration":0.1818179999999927,"midi":70,"time":205.999794,"velocity":0.3858267716535433},{"duration":0.1818179999999927,"midi":70,"time":205.999794,"velocity":0.3858267716535433},{"duration":0.18181800000002113,"midi":74,"time":206.181612,"velocity":0.3858267716535433},{"duration":0.18181800000002113,"midi":74,"time":206.181612,"velocity":0.3858267716535433},{"duration":0.1818179999999927,"midi":70,"time":206.36343000000002,"velocity":0.3858267716535433},{"duration":0.1818179999999927,"midi":70,"time":206.36343000000002,"velocity":0.3858267716535433},{"duration":0.1818179999999927,"midi":65,"time":206.54524800000002,"velocity":0.3858267716535433},{"duration":0.1818179999999927,"midi":65,"time":206.54524800000002,"velocity":0.3858267716535433},{"duration":0.1818179999999927,"midi":69,"time":206.727066,"velocity":0.3858267716535433},{"duration":0.1818179999999927,"midi":69,"time":206.727066,"velocity":0.3858267716535433},{"duration":0.18181800000002113,"midi":72,"time":206.908884,"velocity":0.3858267716535433},{"duration":0.18181800000002113,"midi":72,"time":206.908884,"velocity":0.3858267716535433},{"duration":0.1818179999999927,"midi":69,"time":207.09070200000002,"velocity":0.3858267716535433},{"duration":0.1818179999999927,"midi":69,"time":207.09070200000002,"velocity":0.3858267716535433},{"duration":0.1818179999999927,"midi":65,"time":207.27252000000001,"velocity":0.3858267716535433},{"duration":0.1818179999999927,"midi":65,"time":207.27252000000001,"velocity":0.3858267716535433},{"duration":0.1818179999999927,"midi":69,"time":207.454338,"velocity":0.3858267716535433},{"duration":0.1818179999999927,"midi":69,"time":207.454338,"velocity":0.3858267716535433},{"duration":0.18181800000002113,"midi":72,"time":207.636156,"velocity":0.3858267716535433},{"duration":0.18181800000002113,"midi":72,"time":207.636156,"velocity":0.3858267716535433},{"duration":0.1818179999999927,"midi":69,"time":207.81797400000002,"velocity":0.3858267716535433},{"duration":0.1818179999999927,"midi":69,"time":207.81797400000002,"velocity":0.3858267716535433},{"duration":0.1818179999999927,"midi":67,"time":207.999792,"velocity":0.3858267716535433},{"duration":0.1818179999999927,"midi":67,"time":207.999792,"velocity":0.3858267716535433},{"duration":0.1818179999999927,"midi":70,"time":208.18161,"velocity":0.3858267716535433},{"duration":0.1818179999999927,"midi":70,"time":208.18161,"velocity":0.3858267716535433},{"duration":0.18181800000002113,"midi":74,"time":208.363428,"velocity":0.3858267716535433},{"duration":0.18181800000002113,"midi":74,"time":208.363428,"velocity":0.3858267716535433},{"duration":0.1818179999999927,"midi":70,"time":208.54524600000002,"velocity":0.3858267716535433},{"duration":0.1818179999999927,"midi":70,"time":208.54524600000002,"velocity":0.3858267716535433},{"duration":0.1818179999999927,"midi":67,"time":208.727064,"velocity":0.3858267716535433},{"duration":0.1818179999999927,"midi":67,"time":208.727064,"velocity":0.3858267716535433},{"duration":0.1818179999999927,"midi":70,"time":208.908882,"velocity":0.3858267716535433},{"duration":0.1818179999999927,"midi":70,"time":208.908882,"velocity":0.3858267716535433},{"duration":0.18181800000002113,"midi":74,"time":209.0907,"velocity":0.3858267716535433},{"duration":0.18181800000002113,"midi":74,"time":209.0907,"velocity":0.3858267716535433},{"duration":0.1818179999999927,"midi":70,"time":209.27251800000002,"velocity":0.3858267716535433},{"duration":0.1818179999999927,"midi":70,"time":209.27251800000002,"velocity":0.3858267716535433},{"duration":0.1818179999999927,"midi":69,"time":209.454336,"velocity":0.3858267716535433},{"duration":0.1818179999999927,"midi":69,"time":209.454336,"velocity":0.3858267716535433},{"duration":0.1818179999999927,"midi":70,"time":209.636154,"velocity":0.3858267716535433},{"duration":0.1818179999999927,"midi":70,"time":209.636154,"velocity":0.3858267716535433},{"duration":0.18181800000002113,"midi":74,"time":209.817972,"velocity":0.3858267716535433},{"duration":0.18181800000002113,"midi":74,"time":209.817972,"velocity":0.3858267716535433},{"duration":0.1818179999999927,"midi":70,"time":209.99979000000002,"velocity":0.3858267716535433},{"duration":0.1818179999999927,"midi":70,"time":209.99979000000002,"velocity":0.3858267716535433},{"duration":0.1818179999999927,"midi":69,"time":210.181608,"velocity":0.3858267716535433},{"duration":0.1818179999999927,"midi":69,"time":210.181608,"velocity":0.3858267716535433},{"duration":0.1818179999999927,"midi":70,"time":210.363426,"velocity":0.3858267716535433},{"duration":0.1818179999999927,"midi":70,"time":210.363426,"velocity":0.3858267716535433},{"duration":0.18181800000002113,"midi":74,"time":210.545244,"velocity":0.3858267716535433},{"duration":0.18181800000002113,"midi":74,"time":210.545244,"velocity":0.3858267716535433},{"duration":0.1818179999999927,"midi":70,"time":210.72706200000002,"velocity":0.3858267716535433},{"duration":0.1818179999999927,"midi":70,"time":210.72706200000002,"velocity":0.3858267716535433},{"duration":0.1818179999999927,"midi":69,"time":210.90888,"velocity":0.3858267716535433},{"duration":0.1818179999999927,"midi":69,"time":210.90888,"velocity":0.3858267716535433},{"duration":0.1818179999999927,"midi":70,"time":211.090698,"velocity":0.3858267716535433},{"duration":0.1818179999999927,"midi":70,"time":211.090698,"velocity":0.3858267716535433},{"duration":0.18181800000002113,"midi":74,"time":211.272516,"velocity":0.3858267716535433},{"duration":0.18181800000002113,"midi":74,"time":211.272516,"velocity":0.3858267716535433},{"duration":0.1818179999999927,"midi":70,"time":211.45433400000002,"velocity":0.3858267716535433},{"duration":0.1818179999999927,"midi":70,"time":211.45433400000002,"velocity":0.3858267716535433},{"duration":0.1818179999999927,"midi":69,"time":211.636152,"velocity":0.3858267716535433},{"duration":0.1818179999999927,"midi":69,"time":211.636152,"velocity":0.3858267716535433},{"duration":0.1818179999999927,"midi":70,"time":211.81797,"velocity":0.3858267716535433},{"duration":0.1818179999999927,"midi":70,"time":211.81797,"velocity":0.3858267716535433},{"duration":0.18181800000002113,"midi":74,"time":211.999788,"velocity":0.3858267716535433},{"duration":0.18181800000002113,"midi":74,"time":211.999788,"velocity":0.3858267716535433},{"duration":0.1818179999999927,"midi":70,"time":212.18160600000002,"velocity":0.3858267716535433},{"duration":0.1818179999999927,"midi":70,"time":212.18160600000002,"velocity":0.3858267716535433},{"duration":0.1818179999999927,"midi":65,"time":212.363424,"velocity":0.3858267716535433},{"duration":0.1818179999999927,"midi":65,"time":212.363424,"velocity":0.3858267716535433},{"duration":0.1818179999999927,"midi":69,"time":212.545242,"velocity":0.3858267716535433},{"duration":0.1818179999999927,"midi":69,"time":212.545242,"velocity":0.3858267716535433},{"duration":0.18181800000002113,"midi":72,"time":212.72706,"velocity":0.3858267716535433},{"duration":0.18181800000002113,"midi":72,"time":212.72706,"velocity":0.3858267716535433},{"duration":0.1818179999999927,"midi":69,"time":212.90887800000002,"velocity":0.3858267716535433},{"duration":0.1818179999999927,"midi":69,"time":212.90887800000002,"velocity":0.3858267716535433},{"duration":0.1818179999999927,"midi":65,"time":213.090696,"velocity":0.3858267716535433},{"duration":0.1818179999999927,"midi":65,"time":213.090696,"velocity":0.3858267716535433},{"duration":0.18181800000002113,"midi":69,"time":213.272514,"velocity":0.3858267716535433},{"duration":0.18181800000002113,"midi":69,"time":213.272514,"velocity":0.3858267716535433},{"duration":0.1818179999999927,"midi":72,"time":213.45433200000002,"velocity":0.3858267716535433},{"duration":0.1818179999999927,"midi":72,"time":213.45433200000002,"velocity":0.3858267716535433},{"duration":0.1818179999999927,"midi":69,"time":213.63615000000001,"velocity":0.3858267716535433},{"duration":0.1818179999999927,"midi":69,"time":213.63615000000001,"velocity":0.3858267716535433},{"duration":0.1818179999999927,"midi":67,"time":213.817968,"velocity":0.3858267716535433},{"duration":0.1818179999999927,"midi":67,"time":213.817968,"velocity":0.3858267716535433},{"duration":0.18181800000002113,"midi":70,"time":213.999786,"velocity":0.3858267716535433},{"duration":0.18181800000002113,"midi":70,"time":213.999786,"velocity":0.3858267716535433},{"duration":0.1818179999999927,"midi":74,"time":214.18160400000002,"velocity":0.3858267716535433},{"duration":0.1818179999999927,"midi":74,"time":214.18160400000002,"velocity":0.3858267716535433},{"duration":0.1818179999999927,"midi":70,"time":214.363422,"velocity":0.3858267716535433},{"duration":0.1818179999999927,"midi":70,"time":214.363422,"velocity":0.3858267716535433},{"duration":0.1818179999999927,"midi":67,"time":214.54524,"velocity":0.3858267716535433},{"duration":0.1818179999999927,"midi":67,"time":214.54524,"velocity":0.3858267716535433},{"duration":0.18181800000002113,"midi":70,"time":214.727058,"velocity":0.3858267716535433},{"duration":0.18181800000002113,"midi":70,"time":214.727058,"velocity":0.3858267716535433},{"duration":0.1818179999999927,"midi":74,"time":214.90887600000002,"velocity":0.3858267716535433},{"duration":0.1818179999999927,"midi":74,"time":214.90887600000002,"velocity":0.3858267716535433},{"duration":0.1818179999999927,"midi":70,"time":215.090694,"velocity":0.3858267716535433},{"duration":0.1818179999999927,"midi":70,"time":215.090694,"velocity":0.3858267716535433},{"duration":0.1818179999999927,"midi":69,"time":215.272512,"velocity":0.3858267716535433},{"duration":0.1818179999999927,"midi":69,"time":215.272512,"velocity":0.3858267716535433},{"duration":0.18181800000002113,"midi":70,"time":215.45433,"velocity":0.3858267716535433},{"duration":0.18181800000002113,"midi":70,"time":215.45433,"velocity":0.3858267716535433},{"duration":0.1818179999999927,"midi":74,"time":215.63614800000002,"velocity":0.3858267716535433},{"duration":0.1818179999999927,"midi":74,"time":215.63614800000002,"velocity":0.3858267716535433},{"duration":0.1818179999999927,"midi":70,"time":215.817966,"velocity":0.3858267716535433},{"duration":0.1818179999999927,"midi":70,"time":215.817966,"velocity":0.3858267716535433},{"duration":0.1818179999999927,"midi":69,"time":215.999784,"velocity":0.3858267716535433},{"duration":0.1818179999999927,"midi":69,"time":215.999784,"velocity":0.3858267716535433},{"duration":0.18181800000002113,"midi":70,"time":216.181602,"velocity":0.3858267716535433},{"duration":0.18181800000002113,"midi":70,"time":216.181602,"velocity":0.3858267716535433},{"duration":0.1818179999999927,"midi":74,"time":216.36342000000002,"velocity":0.3858267716535433},{"duration":0.1818179999999927,"midi":74,"time":216.36342000000002,"velocity":0.3858267716535433},{"duration":0.1818179999999927,"midi":70,"time":216.545238,"velocity":0.3858267716535433},{"duration":0.1818179999999927,"midi":70,"time":216.545238,"velocity":0.3858267716535433},{"duration":0.1818179999999927,"midi":69,"time":216.727056,"velocity":0.3858267716535433},{"duration":0.1818179999999927,"midi":69,"time":216.727056,"velocity":0.3858267716535433},{"duration":0.18181800000002113,"midi":70,"time":216.908874,"velocity":0.3858267716535433},{"duration":0.18181800000002113,"midi":70,"time":216.908874,"velocity":0.3858267716535433},{"duration":0.1818179999999927,"midi":74,"time":217.09069200000002,"velocity":0.3858267716535433},{"duration":0.1818179999999927,"midi":74,"time":217.09069200000002,"velocity":0.3858267716535433},{"duration":0.1818179999999927,"midi":70,"time":217.27251,"velocity":0.3858267716535433},{"duration":0.1818179999999927,"midi":70,"time":217.27251,"velocity":0.3858267716535433},{"duration":0.1818179999999927,"midi":69,"time":217.454328,"velocity":0.3858267716535433},{"duration":0.1818179999999927,"midi":69,"time":217.454328,"velocity":0.3858267716535433},{"duration":0.18181800000002113,"midi":70,"time":217.636146,"velocity":0.3858267716535433},{"duration":0.18181800000002113,"midi":70,"time":217.636146,"velocity":0.3858267716535433},{"duration":0.1818179999999927,"midi":74,"time":217.81796400000002,"velocity":0.3858267716535433},{"duration":0.1818179999999927,"midi":74,"time":217.81796400000002,"velocity":0.3858267716535433},{"duration":0.1818179999999927,"midi":70,"time":217.999782,"velocity":0.3858267716535433},{"duration":0.1818179999999927,"midi":70,"time":217.999782,"velocity":0.3858267716535433},{"duration":0.1818179999999927,"midi":65,"time":218.1816,"velocity":0.3858267716535433},{"duration":0.1818179999999927,"midi":65,"time":218.1816,"velocity":0.3858267716535433},{"duration":0.18181800000002113,"midi":69,"time":218.363418,"velocity":0.3858267716535433},{"duration":0.18181800000002113,"midi":69,"time":218.363418,"velocity":0.3858267716535433},{"duration":0.1818179999999927,"midi":72,"time":218.54523600000002,"velocity":0.3858267716535433},{"duration":0.1818179999999927,"midi":72,"time":218.54523600000002,"velocity":0.3858267716535433},{"duration":0.1818179999999927,"midi":69,"time":218.727054,"velocity":0.3858267716535433},{"duration":0.1818179999999927,"midi":69,"time":218.727054,"velocity":0.3858267716535433},{"duration":0.1818179999999927,"midi":65,"time":218.908872,"velocity":0.3858267716535433},{"duration":0.1818179999999927,"midi":65,"time":218.908872,"velocity":0.3858267716535433},{"duration":0.18181800000002113,"midi":69,"time":219.09069,"velocity":0.3858267716535433},{"duration":0.18181800000002113,"midi":69,"time":219.09069,"velocity":0.3858267716535433},{"duration":0.1818179999999927,"midi":72,"time":219.27250800000002,"velocity":0.3858267716535433},{"duration":0.1818179999999927,"midi":72,"time":219.27250800000002,"velocity":0.3858267716535433},{"duration":0.1818179999999927,"midi":69,"time":219.454326,"velocity":0.3858267716535433},{"duration":0.1818179999999927,"midi":69,"time":219.454326,"velocity":0.3858267716535433},{"duration":0.18181800000002113,"midi":67,"time":219.636144,"velocity":0.3858267716535433},{"duration":0.18181800000002113,"midi":67,"time":219.636144,"velocity":0.3858267716535433},{"duration":0.1818179999999927,"midi":70,"time":219.81796200000002,"velocity":0.3858267716535433},{"duration":0.1818179999999927,"midi":70,"time":219.81796200000002,"velocity":0.3858267716535433},{"duration":0.1818179999999927,"midi":74,"time":219.99978000000002,"velocity":0.3858267716535433},{"duration":0.1818179999999927,"midi":74,"time":219.99978000000002,"velocity":0.3858267716535433},{"duration":0.1818179999999927,"midi":70,"time":220.181598,"velocity":0.3858267716535433},{"duration":0.1818179999999927,"midi":70,"time":220.181598,"velocity":0.3858267716535433},{"duration":0.18181800000002113,"midi":67,"time":220.363416,"velocity":0.3858267716535433},{"duration":0.18181800000002113,"midi":67,"time":220.363416,"velocity":0.3858267716535433},{"duration":0.1818179999999927,"midi":70,"time":220.54523400000002,"velocity":0.3858267716535433},{"duration":0.1818179999999927,"midi":70,"time":220.54523400000002,"velocity":0.3858267716535433},{"duration":0.1818179999999927,"midi":74,"time":220.72705200000001,"velocity":0.3858267716535433},{"duration":0.1818179999999927,"midi":74,"time":220.72705200000001,"velocity":0.3858267716535433},{"duration":0.1818179999999927,"midi":70,"time":220.90887,"velocity":0.3858267716535433},{"duration":0.1818179999999927,"midi":70,"time":220.90887,"velocity":0.3858267716535433},{"duration":0.18181800000002113,"midi":74,"time":221.090688,"velocity":0.3858267716535433},{"duration":0.09090899999998214,"midi":31,"time":221.99977800000002,"velocity":0.3858267716535433},{"duration":0.09090899999998214,"midi":38,"time":222.181596,"velocity":0.3858267716535433},{"duration":0.09090900000001056,"midi":31,"time":222.363414,"velocity":0.3858267716535433},{"duration":0.09090899999998214,"midi":31,"time":223.45432200000002,"velocity":0.3858267716535433},{"duration":0.09090900000001056,"midi":38,"time":223.63614,"velocity":0.3858267716535433},{"duration":0.09090900000001056,"midi":31,"time":223.817958,"velocity":0.3858267716535433},{"duration":0.09090899999998214,"midi":31,"time":224.90886600000002,"velocity":0.3858267716535433},{"duration":0.09090900000001056,"midi":38,"time":225.090684,"velocity":0.3858267716535433},{"duration":0.09090900000001056,"midi":31,"time":225.272502,"velocity":0.3858267716535433},{"duration":0.18181800000002113,"midi":69,"time":267.636096,"velocity":0.3858267716535433},{"duration":0.13636350000001585,"midi":57,"time":267.636096,"velocity":0.3858267716535433},{"duration":0.136363499999959,"midi":58,"time":267.81791400000003,"velocity":0.3858267716535433},{"duration":0.18181799999996429,"midi":70,"time":267.81791400000003,"velocity":0.3858267716535433},{"duration":0.18181800000002113,"midi":74,"time":267.999732,"velocity":0.3858267716535433},{"duration":0.13636350000001585,"midi":62,"time":267.999732,"velocity":0.3858267716535433},{"duration":0.13636350000001585,"midi":58,"time":268.18155,"velocity":0.3858267716535433},{"duration":0.18181800000002113,"midi":70,"time":268.18155,"velocity":0.3858267716535433},{"duration":0.136363499999959,"midi":57,"time":268.36336800000004,"velocity":0.3858267716535433},{"duration":0.18181799999996429,"midi":69,"time":268.36336800000004,"velocity":0.3858267716535433},{"duration":0.13636350000001585,"midi":58,"time":268.545186,"velocity":0.3858267716535433},{"duration":0.18181800000002113,"midi":70,"time":268.545186,"velocity":0.3858267716535433},{"duration":0.18181799999996429,"midi":74,"time":268.727004,"velocity":0.3858267716535433},{"duration":0.13636350000001585,"midi":62,"time":268.727004,"velocity":0.3858267716535433},{"duration":0.18181800000002113,"midi":70,"time":268.908822,"velocity":0.3858267716535433},{"duration":0.13636350000001585,"midi":58,"time":268.908822,"velocity":0.3858267716535433},{"duration":0.13636350000001585,"midi":57,"time":269.09064,"velocity":0.3858267716535433},{"duration":0.18181800000002113,"midi":69,"time":269.09064,"velocity":0.3858267716535433},{"duration":0.18181799999996429,"midi":70,"time":269.27245800000003,"velocity":0.3858267716535433},{"duration":0.136363499999959,"midi":58,"time":269.27245800000003,"velocity":0.3858267716535433},{"duration":0.13636350000001585,"midi":62,"time":269.454276,"velocity":0.3858267716535433},{"duration":0.18181800000002113,"midi":74,"time":269.454276,"velocity":0.3858267716535433},{"duration":0.13636350000001585,"midi":58,"time":269.636094,"velocity":0.3858267716535433},{"duration":0.18181800000002113,"midi":70,"time":269.636094,"velocity":0.3858267716535433},{"duration":0.18181799999996429,"midi":69,"time":269.81791200000004,"velocity":0.3858267716535433},{"duration":0.136363499999959,"midi":57,"time":269.81791200000004,"velocity":0.3858267716535433},{"duration":0.18181800000002113,"midi":70,"time":269.99973,"velocity":0.3858267716535433},{"duration":0.13636350000001585,"midi":58,"time":269.99973,"velocity":0.3858267716535433},{"duration":0.13636350000001585,"midi":62,"time":270.181548,"velocity":0.3858267716535433},{"duration":0.18181799999996429,"midi":74,"time":270.181548,"velocity":0.3858267716535433},{"duration":0.13636350000001585,"midi":58,"time":270.363366,"velocity":0.3858267716535433},{"duration":0.18181800000002113,"midi":70,"time":270.363366,"velocity":0.3858267716535433},{"duration":0.18181800000002113,"midi":65,"time":270.545184,"velocity":0.3858267716535433},{"duration":0.13636350000001585,"midi":53,"time":270.545184,"velocity":0.3858267716535433},{"duration":0.136363499999959,"midi":57,"time":270.727002,"velocity":0.3858267716535433},{"duration":0.18181799999996429,"midi":69,"time":270.727002,"velocity":0.3858267716535433},{"duration":0.18181800000002113,"midi":72,"time":270.90882,"velocity":0.3858267716535433},{"duration":0.13636350000001585,"midi":60,"time":270.90882,"velocity":0.3858267716535433},{"duration":0.18181800000002113,"midi":69,"time":271.090638,"velocity":0.3858267716535433},{"duration":0.13636350000001585,"midi":57,"time":271.090638,"velocity":0.3858267716535433},{"duration":0.18181799999996429,"midi":65,"time":271.27245600000003,"velocity":0.3858267716535433},{"duration":0.136363499999959,"midi":53,"time":271.27245600000003,"velocity":0.3858267716535433},{"duration":0.18181800000002113,"midi":69,"time":271.454274,"velocity":0.3858267716535433},{"duration":0.13636350000001585,"midi":57,"time":271.454274,"velocity":0.3858267716535433},{"duration":0.18181799999996429,"midi":72,"time":271.636092,"velocity":0.3858267716535433},{"duration":0.13636350000001585,"midi":60,"time":271.636092,"velocity":0.3858267716535433},{"duration":0.18181800000002113,"midi":69,"time":271.81791,"velocity":0.3858267716535433},{"duration":0.13636350000001585,"midi":57,"time":271.81791,"velocity":0.3858267716535433},{"duration":0.13636350000001585,"midi":55,"time":271.999728,"velocity":0.3858267716535433},{"duration":0.18181800000002113,"midi":67,"time":271.999728,"velocity":0.3858267716535433},{"duration":0.136363499999959,"midi":58,"time":272.181546,"velocity":0.3858267716535433},{"duration":0.18181799999996429,"midi":70,"time":272.181546,"velocity":0.3858267716535433},{"duration":0.18181800000002113,"midi":74,"time":272.363364,"velocity":0.3858267716535433},{"duration":0.13636350000001585,"midi":62,"time":272.363364,"velocity":0.3858267716535433},{"duration":0.18181800000002113,"midi":70,"time":272.545182,"velocity":0.3858267716535433},{"duration":0.13636350000001585,"midi":58,"time":272.545182,"velocity":0.3858267716535433},{"duration":0.136363499999959,"midi":55,"time":272.72700000000003,"velocity":0.3858267716535433},{"duration":0.18181799999996429,"midi":67,"time":272.72700000000003,"velocity":0.3858267716535433},{"duration":0.18181800000002113,"midi":70,"time":272.908818,"velocity":0.3858267716535433},{"duration":0.13636350000001585,"midi":58,"time":272.908818,"velocity":0.3858267716535433},{"duration":0.18181800000002113,"midi":74,"time":273.090636,"velocity":0.3858267716535433},{"duration":0.13636350000001585,"midi":62,"time":273.090636,"velocity":0.3858267716535433},{"duration":0.136363499999959,"midi":58,"time":273.27245400000004,"velocity":0.3858267716535433},{"duration":0.18181799999996429,"midi":70,"time":273.27245400000004,"velocity":0.3858267716535433},{"duration":0.18181800000002113,"midi":69,"time":273.454272,"velocity":0.3858267716535433},{"duration":0.13636350000001585,"midi":57,"time":273.454272,"velocity":0.3858267716535433},{"duration":0.18181799999996429,"midi":70,"time":273.63609,"velocity":0.3858267716535433},{"duration":0.136363499999959,"midi":58,"time":273.63609,"velocity":0.3858267716535433},{"duration":0.18181800000002113,"midi":74,"time":273.817908,"velocity":0.3858267716535433},{"duration":0.13636350000001585,"midi":62,"time":273.817908,"velocity":0.3858267716535433},{"duration":0.18181800000002113,"midi":70,"time":273.999726,"velocity":0.3858267716535433},{"duration":0.13636350000001585,"midi":58,"time":273.999726,"velocity":0.3858267716535433},{"duration":0.136363499999959,"midi":57,"time":274.18154400000003,"velocity":0.3858267716535433},{"duration":0.18181799999996429,"midi":69,"time":274.18154400000003,"velocity":0.3858267716535433},{"duration":0.18181800000002113,"midi":70,"time":274.363362,"velocity":0.3858267716535433},{"duration":0.13636350000001585,"midi":58,"time":274.363362,"velocity":0.3858267716535433},{"duration":0.18181800000002113,"midi":74,"time":274.54518,"velocity":0.3858267716535433},{"duration":0.13636350000001585,"midi":62,"time":274.54518,"velocity":0.3858267716535433},{"duration":0.18181799999996429,"midi":70,"time":274.72699800000004,"velocity":0.3858267716535433},{"duration":0.136363499999959,"midi":58,"time":274.72699800000004,"velocity":0.3858267716535433},{"duration":0.13636350000001585,"midi":57,"time":274.908816,"velocity":0.3858267716535433},{"duration":0.18181800000002113,"midi":69,"time":274.908816,"velocity":0.3858267716535433},{"duration":0.18181799999996429,"midi":70,"time":275.090634,"velocity":0.3858267716535433},{"duration":0.13636350000001585,"midi":58,"time":275.090634,"velocity":0.3858267716535433},{"duration":0.18181800000002113,"midi":74,"time":275.272452,"velocity":0.3858267716535433},{"duration":0.13636350000001585,"midi":62,"time":275.272452,"velocity":0.3858267716535433},{"duration":0.13636350000001585,"midi":58,"time":275.45427,"velocity":0.3858267716535433},{"duration":0.18181800000002113,"midi":70,"time":275.45427,"velocity":0.3858267716535433},{"duration":0.136363499999959,"midi":57,"time":275.63608800000003,"velocity":0.3858267716535433},{"duration":0.18181799999996429,"midi":69,"time":275.63608800000003,"velocity":0.3858267716535433},{"duration":0.13636350000001585,"midi":58,"time":275.817906,"velocity":0.3858267716535433},{"duration":0.18181800000002113,"midi":70,"time":275.817906,"velocity":0.3858267716535433},{"duration":0.18181800000002113,"midi":74,"time":275.999724,"velocity":0.3858267716535433},{"duration":0.13636350000001585,"midi":62,"time":275.999724,"velocity":0.3858267716535433},{"duration":0.18181799999996429,"midi":70,"time":276.18154200000004,"velocity":0.3858267716535433},{"duration":0.136363499999959,"midi":58,"time":276.18154200000004,"velocity":0.3858267716535433},{"duration":0.18181800000002113,"midi":65,"time":276.36336,"velocity":0.3858267716535433},{"duration":0.13636350000001585,"midi":53,"time":276.36336,"velocity":0.3858267716535433},{"duration":0.18181799999996429,"midi":69,"time":276.545178,"velocity":0.3858267716535433},{"duration":0.13636350000001585,"midi":57,"time":276.545178,"velocity":0.3858267716535433},{"duration":0.13636350000001585,"midi":60,"time":276.726996,"velocity":0.3858267716535433},{"duration":0.18181800000002113,"midi":72,"time":276.726996,"velocity":0.3858267716535433},{"duration":0.13636350000001585,"midi":57,"time":276.908814,"velocity":0.3858267716535433},{"duration":0.18181800000002113,"midi":69,"time":276.908814,"velocity":0.3858267716535433},{"duration":0.136363499999959,"midi":53,"time":277.090632,"velocity":0.3858267716535433},{"duration":0.18181799999996429,"midi":65,"time":277.090632,"velocity":0.3858267716535433},{"duration":0.18181800000002113,"midi":69,"time":277.27245,"velocity":0.3858267716535433},{"duration":0.13636350000001585,"midi":57,"time":277.27245,"velocity":0.3858267716535433},{"duration":0.13636350000001585,"midi":60,"time":277.454268,"velocity":0.3858267716535433},{"duration":0.18181800000002113,"midi":72,"time":277.454268,"velocity":0.3858267716535433},{"duration":0.136363499999959,"midi":57,"time":277.63608600000003,"velocity":0.3858267716535433},{"duration":0.18181799999996429,"midi":69,"time":277.63608600000003,"velocity":0.3858267716535433},{"duration":0.18181800000002113,"midi":67,"time":277.817904,"velocity":0.3858267716535433},{"duration":0.13636350000001585,"midi":55,"time":277.817904,"velocity":0.3858267716535433},{"duration":0.13636350000001585,"midi":58,"time":277.999722,"velocity":0.3858267716535433},{"duration":0.18181799999996429,"midi":70,"time":277.999722,"velocity":0.3858267716535433},{"duration":0.18181800000002113,"midi":74,"time":278.18154,"velocity":0.3858267716535433},{"duration":0.13636350000001585,"midi":62,"time":278.18154,"velocity":0.3858267716535433},{"duration":0.18181800000002113,"midi":70,"time":278.363358,"velocity":0.3858267716535433},{"duration":0.13636350000001585,"midi":58,"time":278.363358,"velocity":0.3858267716535433},{"duration":0.136363499999959,"midi":55,"time":278.545176,"velocity":0.3858267716535433},{"duration":0.18181799999996429,"midi":67,"time":278.545176,"velocity":0.3858267716535433},{"duration":0.13636350000001585,"midi":58,"time":278.726994,"velocity":0.3858267716535433},{"duration":0.18181800000002113,"midi":70,"time":278.726994,"velocity":0.3858267716535433},{"duration":0.18181800000002113,"midi":74,"time":278.908812,"velocity":0.3858267716535433},{"duration":0.13636350000001585,"midi":62,"time":278.908812,"velocity":0.3858267716535433},{"duration":0.136363499999959,"midi":58,"time":279.09063000000003,"velocity":0.3858267716535433},{"duration":0.18181799999996429,"midi":70,"time":279.09063000000003,"velocity":0.3858267716535433},{"duration":0.18181800000002113,"midi":69,"time":279.272448,"velocity":0.3858267716535433},{"duration":0.13636350000001585,"midi":57,"time":279.272448,"velocity":0.3858267716535433},{"duration":0.13636350000001585,"midi":58,"time":279.454266,"velocity":0.3858267716535433},{"duration":0.18181800000002113,"midi":70,"time":279.454266,"velocity":0.3858267716535433},{"duration":0.18181799999996429,"midi":74,"time":279.63608400000004,"velocity":0.3858267716535433},{"duration":0.136363499999959,"midi":62,"time":279.63608400000004,"velocity":0.3858267716535433},{"duration":0.13636350000001585,"midi":58,"time":279.817902,"velocity":0.3858267716535433},{"duration":0.18181800000002113,"midi":70,"time":279.817902,"velocity":0.3858267716535433},{"duration":0.136363499999959,"midi":57,"time":279.99972,"velocity":0.3858267716535433},{"duration":0.18181799999996429,"midi":69,"time":279.99972,"velocity":0.3858267716535433},{"duration":0.18181800000002113,"midi":70,"time":280.181538,"velocity":0.3858267716535433},{"duration":0.13636350000001585,"midi":58,"time":280.181538,"velocity":0.3858267716535433},{"duration":0.13636350000001585,"midi":62,"time":280.363356,"velocity":0.3858267716535433},{"duration":0.18181800000002113,"midi":74,"time":280.363356,"velocity":0.3858267716535433},{"duration":0.18181799999996429,"midi":70,"time":280.54517400000003,"velocity":0.3858267716535433},{"duration":0.136363499999959,"midi":58,"time":280.54517400000003,"velocity":0.3858267716535433},{"duration":0.18181800000002113,"midi":69,"time":280.726992,"velocity":0.3858267716535433},{"duration":0.13636350000001585,"midi":57,"time":280.726992,"velocity":0.3858267716535433},{"duration":0.18181800000002113,"midi":70,"time":280.90881,"velocity":0.3858267716535433},{"duration":0.13636350000001585,"midi":58,"time":280.90881,"velocity":0.3858267716535433},{"duration":0.18181799999996429,"midi":74,"time":281.09062800000004,"velocity":0.3858267716535433},{"duration":0.136363499999959,"midi":62,"time":281.09062800000004,"velocity":0.3858267716535433},{"duration":0.18181800000002113,"midi":70,"time":281.272446,"velocity":0.3858267716535433},{"duration":0.13636350000001585,"midi":58,"time":281.272446,"velocity":0.3858267716535433},{"duration":0.18181799999996429,"midi":69,"time":281.454264,"velocity":0.3858267716535433},{"duration":0.13636350000001585,"midi":57,"time":281.454264,"velocity":0.3858267716535433},{"duration":0.13636350000001585,"midi":58,"time":281.636082,"velocity":0.3858267716535433},{"duration":0.18181800000002113,"midi":70,"time":281.636082,"velocity":0.3858267716535433},{"duration":0.18181800000002113,"midi":74,"time":281.8179,"velocity":0.3858267716535433},{"duration":0.13636350000001585,"midi":62,"time":281.8179,"velocity":0.3858267716535433},{"duration":0.18181799999996429,"midi":70,"time":281.99971800000003,"velocity":0.3858267716535433},{"duration":0.136363499999959,"midi":58,"time":281.99971800000003,"velocity":0.3858267716535433},{"duration":0.13636350000001585,"midi":53,"time":282.181536,"velocity":0.3858267716535433},{"duration":0.18181800000002113,"midi":65,"time":282.181536,"velocity":0.3858267716535433},{"duration":0.18181800000002113,"midi":69,"time":282.363354,"velocity":0.3858267716535433},{"duration":0.13636350000001585,"midi":57,"time":282.363354,"velocity":0.3858267716535433},{"duration":0.136363499999959,"midi":60,"time":282.54517200000004,"velocity":0.3858267716535433},{"duration":0.18181799999996429,"midi":72,"time":282.54517200000004,"velocity":0.3858267716535433},{"duration":0.18181800000002113,"midi":69,"time":282.72699,"velocity":0.3858267716535433},{"duration":0.13636350000001585,"midi":57,"time":282.72699,"velocity":0.3858267716535433},{"duration":0.18181799999996429,"midi":65,"time":282.908808,"velocity":0.3858267716535433},{"duration":0.13636350000001585,"midi":53,"time":282.908808,"velocity":0.3858267716535433},{"duration":0.18181800000002113,"midi":69,"time":283.090626,"velocity":0.3858267716535433},{"duration":0.13636350000001585,"midi":57,"time":283.090626,"velocity":0.3858267716535433},{"duration":0.18181800000002113,"midi":72,"time":283.272444,"velocity":0.3858267716535433},{"duration":0.13636350000001585,"midi":60,"time":283.272444,"velocity":0.3858267716535433},{"duration":0.136363499999959,"midi":57,"time":283.454262,"velocity":0.3858267716535433},{"duration":0.18181799999996429,"midi":69,"time":283.454262,"velocity":0.3858267716535433},{"duration":0.18181800000002113,"midi":67,"time":283.63608,"velocity":0.3858267716535433},{"duration":0.13636350000001585,"midi":55,"time":283.63608,"velocity":0.3858267716535433},{"duration":0.13636350000001585,"midi":58,"time":283.817898,"velocity":0.3858267716535433},{"duration":0.18181800000002113,"midi":70,"time":283.817898,"velocity":0.3858267716535433},{"duration":0.136363499999959,"midi":62,"time":283.99971600000003,"velocity":0.3858267716535433},{"duration":0.18181799999996429,"midi":74,"time":283.99971600000003,"velocity":0.3858267716535433},{"duration":0.18181800000002113,"midi":70,"time":284.181534,"velocity":0.3858267716535433},{"duration":0.13636350000001585,"midi":58,"time":284.181534,"velocity":0.3858267716535433},{"duration":0.13636350000001585,"midi":55,"time":284.363352,"velocity":0.3858267716535433},{"duration":0.18181799999996429,"midi":67,"time":284.363352,"velocity":0.3858267716535433},{"duration":0.18181800000002113,"midi":70,"time":284.54517,"velocity":0.3858267716535433},{"duration":0.13636350000001585,"midi":58,"time":284.54517,"velocity":0.3858267716535433},{"duration":0.13636350000001585,"midi":62,"time":284.726988,"velocity":0.3858267716535433},{"duration":0.18181800000002113,"midi":74,"time":284.726988,"velocity":0.3858267716535433},{"duration":0.18181799999996429,"midi":70,"time":284.908806,"velocity":0.3858267716535433},{"duration":0.136363499999959,"midi":58,"time":284.908806,"velocity":0.3858267716535433},{"duration":0.18181800000002113,"midi":69,"time":285.090624,"velocity":0.3858267716535433},{"duration":0.13636350000001585,"midi":57,"time":285.090624,"velocity":0.3858267716535433},{"duration":0.18181800000002113,"midi":70,"time":285.272442,"velocity":0.3858267716535433},{"duration":0.13636350000001585,"midi":58,"time":285.272442,"velocity":0.3858267716535433},{"duration":0.18181799999996429,"midi":74,"time":285.45426000000003,"velocity":0.3858267716535433},{"duration":0.136363499999959,"midi":62,"time":285.45426000000003,"velocity":0.3858267716535433},{"duration":0.18181800000002113,"midi":70,"time":285.636078,"velocity":0.3858267716535433},{"duration":0.13636350000001585,"midi":58,"time":285.636078,"velocity":0.3858267716535433},{"duration":0.13636350000001585,"midi":57,"time":285.817896,"velocity":0.3858267716535433},{"duration":0.18181800000002113,"midi":69,"time":285.817896,"velocity":0.3858267716535433},{"duration":0.136363499999959,"midi":58,"time":285.99971400000004,"velocity":0.3858267716535433},{"duration":0.18181799999996429,"midi":70,"time":285.99971400000004,"velocity":0.3858267716535433},{"duration":0.13636350000001585,"midi":62,"time":286.181532,"velocity":0.3858267716535433},{"duration":0.18181800000002113,"midi":74,"time":286.181532,"velocity":0.3858267716535433},{"duration":0.136363499999959,"midi":58,"time":286.36335,"velocity":0.3858267716535433},{"duration":0.18181799999996429,"midi":70,"time":286.36335,"velocity":0.3858267716535433},{"duration":0.18181800000002113,"midi":69,"time":286.545168,"velocity":0.3858267716535433},{"duration":0.13636350000001585,"midi":57,"time":286.545168,"velocity":0.3858267716535433},{"duration":0.13636350000001585,"midi":58,"time":286.726986,"velocity":0.3858267716535433},{"duration":0.18181800000002113,"midi":70,"time":286.726986,"velocity":0.3858267716535433},{"duration":0.136363499999959,"midi":62,"time":286.90880400000003,"velocity":0.3858267716535433},{"duration":0.18181799999996429,"midi":74,"time":286.90880400000003,"velocity":0.3858267716535433},{"duration":0.13636350000001585,"midi":58,"time":287.090622,"velocity":0.3858267716535433},{"duration":0.18181800000002113,"midi":70,"time":287.090622,"velocity":0.3858267716535433},{"duration":0.13636350000001585,"midi":57,"time":287.27244,"velocity":0.3858267716535433},{"duration":0.18181800000002113,"midi":69,"time":287.27244,"velocity":0.3858267716535433},{"duration":0.18181799999996429,"midi":70,"time":287.45425800000004,"velocity":0.3858267716535433},{"duration":0.136363499999959,"midi":58,"time":287.45425800000004,"velocity":0.3858267716535433},{"duration":0.13636350000001585,"midi":62,"time":287.636076,"velocity":0.3858267716535433},{"duration":0.18181800000002113,"midi":74,"time":287.636076,"velocity":0.3858267716535433},{"duration":0.13636350000001585,"midi":58,"time":287.817894,"velocity":0.3858267716535433},{"duration":0.18181799999996429,"midi":70,"time":287.817894,"velocity":0.3858267716535433},{"duration":0.13636350000001585,"midi":53,"time":287.999712,"velocity":0.3858267716535433},{"duration":0.18181800000002113,"midi":65,"time":287.999712,"velocity":0.3858267716535433},{"duration":0.18181800000002113,"midi":69,"time":288.18153,"velocity":0.3858267716535433},{"duration":0.13636350000001585,"midi":57,"time":288.18153,"velocity":0.3858267716535433},{"duration":0.18181799999996429,"midi":72,"time":288.36334800000003,"velocity":0.3858267716535433},{"duration":0.136363499999959,"midi":60,"time":288.36334800000003,"velocity":0.3858267716535433},{"duration":0.13636350000001585,"midi":57,"time":288.545166,"velocity":0.3858267716535433},{"duration":0.18181800000002113,"midi":69,"time":288.545166,"velocity":0.3858267716535433},{"duration":0.18181800000002113,"midi":65,"time":288.726984,"velocity":0.3858267716535433},{"duration":0.13636350000001585,"midi":53,"time":288.726984,"velocity":0.3858267716535433},{"duration":0.136363499999959,"midi":57,"time":288.90880200000004,"velocity":0.3858267716535433},{"duration":0.18181799999996429,"midi":69,"time":288.90880200000004,"velocity":0.3858267716535433},{"duration":0.18181800000002113,"midi":72,"time":289.09062,"velocity":0.3858267716535433},{"duration":0.13636350000001585,"midi":60,"time":289.09062,"velocity":0.3858267716535433},{"duration":0.18181799999996429,"midi":69,"time":289.272438,"velocity":0.3858267716535433},{"duration":0.13636350000001585,"midi":57,"time":289.272438,"velocity":0.3858267716535433},{"duration":0.18181800000002113,"midi":67,"time":289.454256,"velocity":0.3858267716535433},{"duration":0.13636350000001585,"midi":55,"time":289.454256,"velocity":0.3858267716535433},{"duration":0.18181800000002113,"midi":70,"time":289.636074,"velocity":0.3858267716535433},{"duration":0.13636350000001585,"midi":58,"time":289.636074,"velocity":0.3858267716535433},{"duration":0.18181799999996429,"midi":74,"time":289.81789200000003,"velocity":0.3858267716535433},{"duration":0.136363499999959,"midi":62,"time":289.81789200000003,"velocity":0.3858267716535433},{"duration":0.18181800000002113,"midi":70,"time":289.99971,"velocity":0.3858267716535433},{"duration":0.13636350000001585,"midi":58,"time":289.99971,"velocity":0.3858267716535433},{"duration":0.18181800000002113,"midi":67,"time":290.181528,"velocity":0.3858267716535433},{"duration":0.13636350000001585,"midi":55,"time":290.181528,"velocity":0.3858267716535433},{"duration":0.136363499999959,"midi":58,"time":290.36334600000004,"velocity":0.3858267716535433},{"duration":0.18181799999996429,"midi":70,"time":290.36334600000004,"velocity":0.3858267716535433},{"duration":0.13636350000001585,"midi":62,"time":290.545164,"velocity":0.3858267716535433},{"duration":0.18181800000002113,"midi":74,"time":290.545164,"velocity":0.3858267716535433},{"duration":0.18181799999996429,"midi":70,"time":290.726982,"velocity":0.3858267716535433},{"duration":0.13636350000001585,"midi":58,"time":290.726982,"velocity":0.3858267716535433},{"duration":0.18181800000002113,"midi":69,"time":290.9088,"velocity":0.3858267716535433},{"duration":0.13636350000001585,"midi":57,"time":290.9088,"velocity":0.3858267716535433},{"duration":0.18181800000002113,"midi":70,"time":291.090618,"velocity":0.3858267716535433},{"duration":0.13636350000001585,"midi":58,"time":291.090618,"velocity":0.3858267716535433},{"duration":0.136363499999959,"midi":62,"time":291.272436,"velocity":0.3858267716535433},{"duration":0.18181799999996429,"midi":74,"time":291.272436,"velocity":0.3858267716535433},{"duration":0.13636350000001585,"midi":58,"time":291.454254,"velocity":0.3858267716535433},{"duration":0.18181800000002113,"midi":70,"time":291.454254,"velocity":0.3858267716535433},{"duration":0.18181800000002113,"midi":69,"time":291.636072,"velocity":0.3858267716535433},{"duration":0.13636350000001585,"midi":57,"time":291.636072,"velocity":0.3858267716535433},{"duration":0.18181799999996429,"midi":70,"time":291.81789000000003,"velocity":0.3858267716535433},{"duration":0.136363499999959,"midi":58,"time":291.81789000000003,"velocity":0.3858267716535433},{"duration":0.13636350000001585,"midi":62,"time":291.999708,"velocity":0.3858267716535433},{"duration":0.18181800000002113,"midi":74,"time":291.999708,"velocity":0.3858267716535433},{"duration":0.18181799999996429,"midi":70,"time":292.181526,"velocity":0.3858267716535433},{"duration":0.13636350000001585,"midi":58,"time":292.181526,"velocity":0.3858267716535433},{"duration":0.18181800000002113,"midi":69,"time":292.363344,"velocity":0.3858267716535433},{"duration":0.13636350000001585,"midi":57,"time":292.363344,"velocity":0.3858267716535433},{"duration":0.13636350000001585,"midi":58,"time":292.545162,"velocity":0.3858267716535433},{"duration":0.18181800000002113,"midi":70,"time":292.545162,"velocity":0.3858267716535433},{"duration":0.18181799999996429,"midi":74,"time":292.72698,"velocity":0.3858267716535433},{"duration":0.136363499999959,"midi":62,"time":292.72698,"velocity":0.3858267716535433},{"duration":0.18181800000002113,"midi":70,"time":292.908798,"velocity":0.3858267716535433},{"duration":0.13636350000001585,"midi":58,"time":292.908798,"velocity":0.3858267716535433},{"duration":0.18181800000002113,"midi":69,"time":293.090616,"velocity":0.3858267716535433},{"duration":0.13636350000001585,"midi":57,"time":293.090616,"velocity":0.3858267716535433},{"duration":0.18181799999996429,"midi":70,"time":293.27243400000003,"velocity":0.3858267716535433},{"duration":0.136363499999959,"midi":58,"time":293.27243400000003,"velocity":0.3858267716535433},{"duration":0.18181800000002113,"midi":74,"time":293.454252,"velocity":0.3858267716535433},{"duration":0.13636350000001585,"midi":62,"time":293.454252,"velocity":0.3858267716535433},{"duration":0.13636350000001585,"midi":58,"time":293.63607,"velocity":0.3858267716535433},{"duration":0.18181800000002113,"midi":70,"time":293.63607,"velocity":0.3858267716535433},{"duration":0.18181799999996429,"midi":65,"time":293.81788800000004,"velocity":0.3858267716535433},{"duration":0.136363499999959,"midi":53,"time":293.81788800000004,"velocity":0.3858267716535433},{"duration":0.13636350000001585,"midi":57,"time":293.999706,"velocity":0.3858267716535433},{"duration":0.18181800000002113,"midi":69,"time":293.999706,"velocity":0.3858267716535433},{"duration":0.13636350000001585,"midi":60,"time":294.181524,"velocity":0.3858267716535433},{"duration":0.18181799999996429,"midi":72,"time":294.181524,"velocity":0.3858267716535433},{"duration":0.18181800000002113,"midi":69,"time":294.363342,"velocity":0.3858267716535433},{"duration":0.13636350000001585,"midi":57,"time":294.363342,"velocity":0.3858267716535433},{"duration":0.13636350000001585,"midi":53,"time":294.54516,"velocity":0.3858267716535433},{"duration":0.18181800000002113,"midi":65,"time":294.54516,"velocity":0.3858267716535433},{"duration":0.136363499999959,"midi":57,"time":294.72697800000003,"velocity":0.3858267716535433},{"duration":0.18181799999996429,"midi":69,"time":294.72697800000003,"velocity":0.3858267716535433},{"duration":0.18181800000002113,"midi":72,"time":294.908796,"velocity":0.3858267716535433},{"duration":0.13636350000001585,"midi":60,"time":294.908796,"velocity":0.3858267716535433},{"duration":0.13636350000001585,"midi":57,"time":295.090614,"velocity":0.3858267716535433},{"duration":0.18181800000002113,"midi":69,"time":295.090614,"velocity":0.3858267716535433},{"duration":0.18181799999996429,"midi":67,"time":295.27243200000004,"velocity":0.3858267716535433},{"duration":0.136363499999959,"midi":55,"time":295.27243200000004,"velocity":0.3858267716535433},{"duration":0.13636350000001585,"midi":58,"time":295.45425,"velocity":0.3858267716535433},{"duration":0.18181800000002113,"midi":70,"time":295.45425,"velocity":0.3858267716535433},{"duration":0.18181799999996429,"midi":74,"time":295.636068,"velocity":0.3858267716535433},{"duration":0.13636350000001585,"midi":62,"time":295.636068,"velocity":0.3858267716535433},{"duration":0.13636350000001585,"midi":58,"time":295.817886,"velocity":0.3858267716535433},{"duration":0.18181800000002113,"midi":70,"time":295.817886,"velocity":0.3858267716535433},{"duration":0.13636350000001585,"midi":55,"time":295.999704,"velocity":0.3858267716535433},{"duration":0.18181800000002113,"midi":67,"time":295.999704,"velocity":0.3858267716535433},{"duration":0.18181799999996429,"midi":70,"time":296.18152200000003,"velocity":0.3858267716535433},{"duration":0.136363499999959,"midi":58,"time":296.18152200000003,"velocity":0.3858267716535433},{"duration":0.18181800000002113,"midi":74,"time":296.36334,"velocity":0.3858267716535433},{"duration":0.13636350000001585,"midi":62,"time":296.36334,"velocity":0.3858267716535433},{"duration":0.18181800000002113,"midi":70,"time":296.545158,"velocity":0.3858267716535433},{"duration":0.13636350000001585,"midi":58,"time":296.545158,"velocity":0.3858267716535433},{"duration":0.136363499999959,"midi":57,"time":296.72697600000004,"velocity":0.3858267716535433},{"duration":0.18181799999996429,"midi":69,"time":296.72697600000004,"velocity":0.3858267716535433},{"duration":0.13636350000001585,"midi":58,"time":296.908794,"velocity":0.3858267716535433},{"duration":0.18181800000002113,"midi":70,"time":296.908794,"velocity":0.3858267716535433},{"duration":0.18181799999996429,"midi":74,"time":297.090612,"velocity":0.3858267716535433},{"duration":0.13636350000001585,"midi":62,"time":297.090612,"velocity":0.3858267716535433},{"duration":0.13636350000001585,"midi":58,"time":297.27243,"velocity":0.3858267716535433},{"duration":0.18181800000002113,"midi":70,"time":297.27243,"velocity":0.3858267716535433},{"duration":0.18181800000002113,"midi":69,"time":297.454248,"velocity":0.3858267716535433},{"duration":0.13636350000001585,"midi":57,"time":297.454248,"velocity":0.3858267716535433},{"duration":0.18181799999996429,"midi":70,"time":297.636066,"velocity":0.3858267716535433},{"duration":0.136363499999959,"midi":58,"time":297.636066,"velocity":0.3858267716535433},{"duration":0.13636350000001585,"midi":62,"time":297.817884,"velocity":0.3858267716535433},{"duration":0.18181800000002113,"midi":74,"time":297.817884,"velocity":0.3858267716535433},{"duration":0.13636350000001585,"midi":58,"time":297.999702,"velocity":0.3858267716535433},{"duration":0.18181800000002113,"midi":70,"time":297.999702,"velocity":0.3858267716535433},{"duration":0.18181799999996429,"midi":69,"time":298.18152000000003,"velocity":0.3858267716535433},{"duration":0.136363499999959,"midi":57,"time":298.18152000000003,"velocity":0.3858267716535433},{"duration":0.13636350000001585,"midi":58,"time":298.363338,"velocity":0.3858267716535433},{"duration":0.18181800000002113,"midi":70,"time":298.363338,"velocity":0.3858267716535433},{"duration":0.13636350000001585,"midi":62,"time":298.545156,"velocity":0.3858267716535433},{"duration":0.18181799999996429,"midi":74,"time":298.545156,"velocity":0.3858267716535433},{"duration":0.18181800000002113,"midi":70,"time":298.726974,"velocity":0.3858267716535433},{"duration":0.13636350000001585,"midi":58,"time":298.726974,"velocity":0.3858267716535433},{"duration":0.13636350000001585,"midi":57,"time":298.908792,"velocity":0.3858267716535433},{"duration":0.18181800000002113,"midi":69,"time":298.908792,"velocity":0.3858267716535433},{"duration":0.18181799999996429,"midi":70,"time":299.09061,"velocity":0.3858267716535433},{"duration":0.136363499999959,"midi":58,"time":299.09061,"velocity":0.3858267716535433},{"duration":0.18181800000002113,"midi":74,"time":299.272428,"velocity":0.3858267716535433},{"duration":0.13636350000001585,"midi":62,"time":299.272428,"velocity":0.3858267716535433},{"duration":0.18181800000002113,"midi":70,"time":299.454246,"velocity":0.3858267716535433},{"duration":0.13636350000001585,"midi":58,"time":299.454246,"velocity":0.3858267716535433},{"duration":0.136363499999959,"midi":53,"time":299.63606400000003,"velocity":0.3858267716535433},{"duration":0.18181799999996429,"midi":65,"time":299.63606400000003,"velocity":0.3858267716535433},{"duration":0.13636350000001585,"midi":57,"time":299.817882,"velocity":0.3858267716535433},{"duration":0.18181800000002113,"midi":69,"time":299.817882,"velocity":0.3858267716535433},{"duration":0.18181800000002113,"midi":72,"time":299.9997,"velocity":0.3858267716535433},{"duration":0.13636350000001585,"midi":60,"time":299.9997,"velocity":0.3858267716535433},{"duration":0.18181799999996429,"midi":69,"time":300.18151800000004,"velocity":0.3858267716535433},{"duration":0.136363499999959,"midi":57,"time":300.18151800000004,"velocity":0.3858267716535433},{"duration":0.18181800000002113,"midi":65,"time":300.363336,"velocity":0.3858267716535433},{"duration":0.13636350000001585,"midi":53,"time":300.363336,"velocity":0.3858267716535433},{"duration":0.18181799999996429,"midi":69,"time":300.545154,"velocity":0.3858267716535433},{"duration":0.136363499999959,"midi":57,"time":300.545154,"velocity":0.3858267716535433},{"duration":0.13636350000001585,"midi":60,"time":300.726972,"velocity":0.3858267716535433},{"duration":0.18181800000002113,"midi":72,"time":300.726972,"velocity":0.3858267716535433},{"duration":0.18181800000002113,"midi":69,"time":300.90879,"velocity":0.3858267716535433},{"duration":0.13636350000001585,"midi":57,"time":300.90879,"velocity":0.3858267716535433},{"duration":0.18181799999996429,"midi":67,"time":301.09060800000003,"velocity":0.3858267716535433},{"duration":0.136363499999959,"midi":55,"time":301.09060800000003,"velocity":0.3858267716535433},{"duration":0.18181800000002113,"midi":70,"time":301.272426,"velocity":0.3858267716535433},{"duration":0.13636350000001585,"midi":58,"time":301.272426,"velocity":0.3858267716535433},{"duration":0.18181800000002113,"midi":74,"time":301.454244,"velocity":0.3858267716535433},{"duration":0.13636350000001585,"midi":62,"time":301.454244,"velocity":0.3858267716535433},{"duration":0.18181799999996429,"midi":70,"time":301.63606200000004,"velocity":0.3858267716535433},{"duration":0.136363499999959,"midi":58,"time":301.63606200000004,"velocity":0.3858267716535433},{"duration":0.13636350000001585,"midi":55,"time":301.81788,"velocity":0.3858267716535433},{"duration":0.18181800000002113,"midi":67,"time":301.81788,"velocity":0.3858267716535433},{"duration":0.13636350000001585,"midi":58,"time":301.999698,"velocity":0.3858267716535433},{"duration":0.18181799999996429,"midi":70,"time":301.999698,"velocity":0.3858267716535433},{"duration":0.18181800000002113,"midi":74,"time":302.181516,"velocity":0.3858267716535433},{"duration":0.13636350000001585,"midi":62,"time":302.181516,"velocity":0.3858267716535433},{"duration":0.13636350000001585,"midi":58,"time":302.363334,"velocity":0.3858267716535433},{"duration":0.18181800000002113,"midi":70,"time":302.363334,"velocity":0.3858267716535433},{"duration":0.18181799999996429,"midi":69,"time":302.54515200000003,"velocity":0.3858267716535433},{"duration":0.136363499999959,"midi":57,"time":302.54515200000003,"velocity":0.3858267716535433},{"duration":0.18181800000002113,"midi":70,"time":302.72697,"velocity":0.3858267716535433},{"duration":0.13636350000001585,"midi":58,"time":302.72697,"velocity":0.3858267716535433},{"duration":0.18181800000002113,"midi":74,"time":302.908788,"velocity":0.3858267716535433},{"duration":0.13636350000001585,"midi":62,"time":302.908788,"velocity":0.3858267716535433},{"duration":0.136363499999959,"midi":58,"time":303.09060600000004,"velocity":0.3858267716535433},{"duration":0.18181799999996429,"midi":70,"time":303.09060600000004,"velocity":0.3858267716535433},{"duration":0.13636350000001585,"midi":57,"time":303.272424,"velocity":0.3858267716535433},{"duration":0.18181800000002113,"midi":69,"time":303.272424,"velocity":0.3858267716535433},{"duration":0.13636350000001585,"midi":58,"time":303.454242,"velocity":0.3858267716535433},{"duration":0.18181799999996429,"midi":70,"time":303.454242,"velocity":0.3858267716535433},{"duration":0.13636350000001585,"midi":62,"time":303.63606,"velocity":0.3858267716535433},{"duration":0.18181800000002113,"midi":74,"time":303.63606,"velocity":0.3858267716535433},{"duration":0.18181800000002113,"midi":70,"time":303.817878,"velocity":0.3858267716535433},{"duration":0.13636350000001585,"midi":58,"time":303.817878,"velocity":0.3858267716535433},{"duration":0.18181799999996429,"midi":69,"time":303.99969600000003,"velocity":0.3858267716535433},{"duration":0.136363499999959,"midi":57,"time":303.99969600000003,"velocity":0.3858267716535433},{"duration":0.18181800000002113,"midi":70,"time":304.181514,"velocity":0.3858267716535433},{"duration":0.13636350000001585,"midi":58,"time":304.181514,"velocity":0.3858267716535433},{"duration":0.13636350000001585,"midi":62,"time":304.363332,"velocity":0.3858267716535433},{"duration":0.18181800000002113,"midi":74,"time":304.363332,"velocity":0.3858267716535433},{"duration":0.136363499999959,"midi":58,"time":304.54515000000004,"velocity":0.3858267716535433},{"duration":0.18181799999996429,"midi":70,"time":304.54515000000004,"velocity":0.3858267716535433},{"duration":0.18181800000002113,"midi":69,"time":304.726968,"velocity":0.3858267716535433},{"duration":0.13636350000001585,"midi":57,"time":304.726968,"velocity":0.3858267716535433},{"duration":0.18181799999996429,"midi":70,"time":304.908786,"velocity":0.3858267716535433},{"duration":0.13636350000001585,"midi":58,"time":304.908786,"velocity":0.3858267716535433},{"duration":0.13636350000001585,"midi":62,"time":305.090604,"velocity":0.3858267716535433},{"duration":0.18181800000002113,"midi":74,"time":305.090604,"velocity":0.3858267716535433},{"duration":0.13636350000001585,"midi":58,"time":305.272422,"velocity":0.3858267716535433},{"duration":0.18181800000002113,"midi":70,"time":305.272422,"velocity":0.3858267716535433},{"duration":0.136363499999959,"midi":53,"time":305.45424,"velocity":0.3858267716535433},{"duration":0.18181799999996429,"midi":65,"time":305.45424,"velocity":0.3858267716535433},{"duration":0.18181800000002113,"midi":69,"time":305.636058,"velocity":0.3858267716535433},{"duration":0.13636350000001585,"midi":57,"time":305.636058,"velocity":0.3858267716535433},{"duration":0.13636350000001585,"midi":60,"time":305.817876,"velocity":0.3858267716535433},{"duration":0.18181800000002113,"midi":72,"time":305.817876,"velocity":0.3858267716535433},{"duration":0.18181799999996429,"midi":69,"time":305.99969400000003,"velocity":0.3858267716535433},{"duration":0.136363499999959,"midi":57,"time":305.99969400000003,"velocity":0.3858267716535433},{"duration":0.13636350000001585,"midi":53,"time":306.181512,"velocity":0.3858267716535433},{"duration":0.18181800000002113,"midi":65,"time":306.181512,"velocity":0.3858267716535433},{"duration":0.13636350000001585,"midi":57,"time":306.36333,"velocity":0.3858267716535433},{"duration":0.18181800000002113,"midi":69,"time":306.36333,"velocity":0.3858267716535433},{"duration":0.18181799999996429,"midi":72,"time":306.54514800000004,"velocity":0.3858267716535433},{"duration":0.136363499999959,"midi":60,"time":306.54514800000004,"velocity":0.3858267716535433},{"duration":0.13636350000001585,"midi":57,"time":306.726966,"velocity":0.3858267716535433},{"duration":0.18181800000002113,"midi":69,"time":306.726966,"velocity":0.3858267716535433},{"duration":0.136363499999959,"midi":55,"time":306.908784,"velocity":0.3858267716535433},{"duration":0.18181799999996429,"midi":67,"time":306.908784,"velocity":0.3858267716535433},{"duration":0.13636350000001585,"midi":58,"time":307.090602,"velocity":0.3858267716535433},{"duration":0.18181800000002113,"midi":70,"time":307.090602,"velocity":0.3858267716535433},{"duration":0.18181800000002113,"midi":74,"time":307.27242,"velocity":0.3858267716535433},{"duration":0.13636350000001585,"midi":62,"time":307.27242,"velocity":0.3858267716535433},{"duration":0.18181799999996429,"midi":70,"time":307.45423800000003,"velocity":0.3858267716535433},{"duration":0.136363499999959,"midi":58,"time":307.45423800000003,"velocity":0.3858267716535433},{"duration":0.13636350000001585,"midi":55,"time":307.636056,"velocity":0.3858267716535433},{"duration":0.18181800000002113,"midi":67,"time":307.636056,"velocity":0.3858267716535433},{"duration":0.18181800000002113,"midi":70,"time":307.817874,"velocity":0.3858267716535433},{"duration":0.13636350000001585,"midi":58,"time":307.817874,"velocity":0.3858267716535433},{"duration":0.18181799999996429,"midi":74,"time":307.99969200000004,"velocity":0.3858267716535433},{"duration":0.136363499999959,"midi":62,"time":307.99969200000004,"velocity":0.3858267716535433},{"duration":0.13636350000001585,"midi":58,"time":308.18151,"velocity":0.3858267716535433},{"duration":0.18181800000002113,"midi":70,"time":308.18151,"velocity":0.3858267716535433},{"duration":0.18181799999996429,"midi":69,"time":308.363328,"velocity":0.3858267716535433},{"duration":0.13636350000001585,"midi":57,"time":308.363328,"velocity":0.3858267716535433},{"duration":0.18181800000002113,"midi":70,"time":308.545146,"velocity":0.3858267716535433},{"duration":0.13636350000001585,"midi":58,"time":308.545146,"velocity":0.3858267716535433},{"duration":0.13636350000001585,"midi":62,"time":308.726964,"velocity":0.3858267716535433},{"duration":0.18181800000002113,"midi":74,"time":308.726964,"velocity":0.3858267716535433},{"duration":0.18181799999996429,"midi":70,"time":308.90878200000003,"velocity":0.3858267716535433},{"duration":0.136363499999959,"midi":58,"time":308.90878200000003,"velocity":0.3858267716535433},{"duration":0.13636350000001585,"midi":57,"time":309.0906,"velocity":0.3858267716535433},{"duration":0.18181800000002113,"midi":69,"time":309.0906,"velocity":0.3858267716535433},{"duration":0.18181800000002113,"midi":70,"time":309.272418,"velocity":0.3858267716535433},{"duration":0.13636350000001585,"midi":58,"time":309.272418,"velocity":0.3858267716535433},{"duration":0.18181799999996429,"midi":74,"time":309.45423600000004,"velocity":0.3858267716535433},{"duration":0.136363499999959,"midi":62,"time":309.45423600000004,"velocity":0.3858267716535433},{"duration":0.18181800000002113,"midi":70,"time":309.636054,"velocity":0.3858267716535433},{"duration":0.13636350000001585,"midi":58,"time":309.636054,"velocity":0.3858267716535433},{"duration":0.18181799999996429,"midi":69,"time":309.817872,"velocity":0.3858267716535433},{"duration":0.13636350000001585,"midi":57,"time":309.817872,"velocity":0.3858267716535433},{"duration":0.18181800000002113,"midi":70,"time":309.99969,"velocity":0.3858267716535433},{"duration":0.13636350000001585,"midi":58,"time":309.99969,"velocity":0.3858267716535433},{"duration":0.18181800000002113,"midi":74,"time":310.181508,"velocity":0.3858267716535433},{"duration":0.13636350000001585,"midi":62,"time":310.181508,"velocity":0.3858267716535433},{"duration":0.136363499999959,"midi":58,"time":310.36332600000003,"velocity":0.3858267716535433},{"duration":0.18181799999996429,"midi":70,"time":310.36332600000003,"velocity":0.3858267716535433},{"duration":0.18181800000002113,"midi":69,"time":310.545144,"velocity":0.3858267716535433},{"duration":0.13636350000001585,"midi":57,"time":310.545144,"velocity":0.3858267716535433},{"duration":0.13636350000001585,"midi":58,"time":310.726962,"velocity":0.3858267716535433},{"duration":0.18181800000002113,"midi":70,"time":310.726962,"velocity":0.3858267716535433},{"duration":0.18181799999996429,"midi":74,"time":310.90878000000004,"velocity":0.3858267716535433},{"duration":0.136363499999959,"midi":62,"time":310.90878000000004,"velocity":0.3858267716535433},{"duration":0.18181800000002113,"midi":70,"time":311.090598,"velocity":0.3858267716535433},{"duration":0.13636350000001585,"midi":58,"time":311.090598,"velocity":0.3858267716535433},{"duration":0.13636350000001585,"midi":53,"time":311.272416,"velocity":0.3858267716535433},{"duration":0.18181799999996429,"midi":65,"time":311.272416,"velocity":0.3858267716535433},{"duration":0.13636350000001585,"midi":57,"time":311.454234,"velocity":0.3858267716535433},{"duration":0.18181800000002113,"midi":69,"time":311.454234,"velocity":0.3858267716535433},{"duration":0.18181800000002113,"midi":72,"time":311.636052,"velocity":0.3858267716535433},{"duration":0.13636350000001585,"midi":60,"time":311.636052,"velocity":0.3858267716535433},{"duration":0.136363499999959,"midi":57,"time":311.81787,"velocity":0.3858267716535433},{"duration":0.18181799999996429,"midi":69,"time":311.81787,"velocity":0.3858267716535433},{"duration":0.18181800000002113,"midi":65,"time":311.999688,"velocity":0.3858267716535433},{"duration":0.13636350000001585,"midi":53,"time":311.999688,"velocity":0.3858267716535433},{"duration":0.18181800000002113,"midi":69,"time":312.181506,"velocity":0.3858267716535433},{"duration":0.13636350000001585,"midi":57,"time":312.181506,"velocity":0.3858267716535433},{"duration":0.18181799999996429,"midi":72,"time":312.36332400000003,"velocity":0.3858267716535433},{"duration":0.136363499999959,"midi":60,"time":312.36332400000003,"velocity":0.3858267716535433},{"duration":0.18181800000002113,"midi":69,"time":312.545142,"velocity":0.3858267716535433},{"duration":0.13636350000001585,"midi":57,"time":312.545142,"velocity":0.3858267716535433},{"duration":0.18181800000002113,"midi":67,"time":312.72696,"velocity":0.3858267716535433},{"duration":0.18181799999996429,"midi":70,"time":312.90877800000004,"velocity":0.3858267716535433},{"duration":0.18181800000002113,"midi":74,"time":313.090596,"velocity":0.3858267716535433},{"duration":0.18181799999996429,"midi":70,"time":313.272414,"velocity":0.3858267716535433},{"duration":0.18181800000002113,"midi":67,"time":313.454232,"velocity":0.3858267716535433},{"duration":0.18181800000002113,"midi":70,"time":313.63605,"velocity":0.3858267716535433},{"duration":0.18181799999996429,"midi":74,"time":313.81786800000003,"velocity":0.3858267716535433},{"duration":0.18181800000002113,"midi":70,"time":313.999686,"velocity":0.3858267716535433},{"duration":0.18181800000002113,"midi":67,"time":314.181504,"velocity":0.3858267716535433}]},{"instrument":{"family":"brass","number":60,"name":"french horn"},"notes":[]},{"instrument":{"family":"strings","number":40,"name":"violin"},"notes":[{"duration":0.13636349999999986,"midi":69,"time":11.636352,"velocity":0.7874015748031497},{"duration":0.13636349999999986,"midi":81,"time":11.636352,"velocity":0.7874015748031497},{"duration":0.13636349999999986,"midi":70,"time":11.81817,"velocity":0.7874015748031497},{"duration":0.13636349999999986,"midi":82,"time":11.81817,"velocity":0.7874015748031497},{"duration":0.13636349999999986,"midi":84,"time":11.999988,"velocity":0.7874015748031497},{"duration":0.13636349999999986,"midi":72,"time":11.999988,"velocity":0.7874015748031497},{"duration":0.13636349999999986,"midi":70,"time":12.181806,"velocity":0.7874015748031497},{"duration":0.13636349999999986,"midi":82,"time":12.181806,"velocity":0.7874015748031497},{"duration":0.13636350000000164,"midi":69,"time":12.363624,"velocity":0.7874015748031497},{"duration":0.13636350000000164,"midi":81,"time":12.363624,"velocity":0.7874015748031497},{"duration":0.13636349999999986,"midi":82,"time":12.545442000000001,"velocity":0.7874015748031497},{"duration":0.13636349999999986,"midi":70,"time":12.545442000000001,"velocity":0.7874015748031497},{"duration":0.13636349999999986,"midi":84,"time":12.727260000000001,"velocity":0.7874015748031497},{"duration":0.13636349999999986,"midi":72,"time":12.727260000000001,"velocity":0.7874015748031497},{"duration":0.13636349999999986,"midi":70,"time":12.909078000000001,"velocity":0.7874015748031497},{"duration":0.13636349999999986,"midi":82,"time":12.909078000000001,"velocity":0.7874015748031497},{"duration":0.13636349999999986,"midi":81,"time":13.090896,"velocity":0.7874015748031497},{"duration":0.13636349999999986,"midi":69,"time":13.090896,"velocity":0.7874015748031497},{"duration":0.13636349999999986,"midi":70,"time":13.272714,"velocity":0.7874015748031497},{"duration":0.13636349999999986,"midi":82,"time":13.272714,"velocity":0.7874015748031497},{"duration":0.13636349999999986,"midi":72,"time":13.454532,"velocity":0.7874015748031497},{"duration":0.13636349999999986,"midi":84,"time":13.454532,"velocity":0.7874015748031497},{"duration":0.13636349999999986,"midi":82,"time":13.63635,"velocity":0.7874015748031497},{"duration":0.13636349999999986,"midi":70,"time":13.63635,"velocity":0.7874015748031497},{"duration":0.13636349999999986,"midi":81,"time":13.818168,"velocity":0.7874015748031497},{"duration":0.13636349999999986,"midi":69,"time":13.818168,"velocity":0.7874015748031497},{"duration":0.13636350000000164,"midi":70,"time":13.999986,"velocity":0.7874015748031497},{"duration":0.13636350000000164,"midi":82,"time":13.999986,"velocity":0.7874015748031497},{"duration":0.13636349999999986,"midi":84,"time":14.181804000000001,"velocity":0.7874015748031497},{"duration":0.13636349999999986,"midi":72,"time":14.181804000000001,"velocity":0.7874015748031497},{"duration":0.13636349999999986,"midi":70,"time":14.363622000000001,"velocity":0.7874015748031497},{"duration":0.13636349999999986,"midi":82,"time":14.363622000000001,"velocity":0.7874015748031497},{"duration":0.13636349999999986,"midi":65,"time":14.545440000000001,"velocity":0.7874015748031497},{"duration":0.13636349999999986,"midi":77,"time":14.545440000000001,"velocity":0.7874015748031497},{"duration":0.13636349999999986,"midi":69,"time":14.727258,"velocity":0.7874015748031497},{"duration":0.13636349999999986,"midi":81,"time":14.727258,"velocity":0.7874015748031497},{"duration":0.13636349999999986,"midi":72,"time":14.909076,"velocity":0.7874015748031497},{"duration":0.13636349999999986,"midi":84,"time":14.909076,"velocity":0.7874015748031497},{"duration":0.13636349999999986,"midi":69,"time":15.090894,"velocity":0.7874015748031497},{"duration":0.13636349999999986,"midi":81,"time":15.090894,"velocity":0.7874015748031497},{"duration":0.13636349999999986,"midi":65,"time":15.272712,"velocity":0.7874015748031497},{"duration":0.13636349999999986,"midi":77,"time":15.272712,"velocity":0.7874015748031497},{"duration":0.13636349999999986,"midi":69,"time":15.45453,"velocity":0.7874015748031497},{"duration":0.13636349999999986,"midi":81,"time":15.45453,"velocity":0.7874015748031497},{"duration":0.13636349999999986,"midi":72,"time":15.636348,"velocity":0.7874015748031497},{"duration":0.13636349999999986,"midi":84,"time":15.636348,"velocity":0.7874015748031497},{"duration":0.13636349999999986,"midi":69,"time":15.818166000000002,"velocity":0.7874015748031497},{"duration":0.13636349999999986,"midi":81,"time":15.818166000000002,"velocity":0.7874015748031497},{"duration":0.13636349999999808,"midi":67,"time":15.999984000000001,"velocity":0.7874015748031497},{"duration":0.13636349999999808,"midi":79,"time":15.999984000000001,"velocity":0.7874015748031497},{"duration":0.13636349999999808,"midi":82,"time":16.181802,"velocity":0.7874015748031497},{"duration":0.13636349999999808,"midi":70,"time":16.181802,"velocity":0.7874015748031497},{"duration":0.13636349999999808,"midi":86,"time":16.36362,"velocity":0.7874015748031497},{"duration":0.13636349999999808,"midi":74,"time":16.36362,"velocity":0.7874015748031497},{"duration":0.13636350000000164,"midi":70,"time":16.545438,"velocity":0.7874015748031497},{"duration":0.13636350000000164,"midi":82,"time":16.545438,"velocity":0.7874015748031497},{"duration":0.13636350000000164,"midi":79,"time":16.727256,"velocity":0.7874015748031497},{"duration":0.13636350000000164,"midi":67,"time":16.727256,"velocity":0.7874015748031497},{"duration":0.13636350000000164,"midi":82,"time":16.909074,"velocity":0.7874015748031497},{"duration":0.13636350000000164,"midi":70,"time":16.909074,"velocity":0.7874015748031497},{"duration":0.13636350000000164,"midi":74,"time":17.090892,"velocity":0.7874015748031497},{"duration":0.13636350000000164,"midi":86,"time":17.090892,"velocity":0.7874015748031497},{"duration":0.13636350000000164,"midi":70,"time":17.27271,"velocity":0.7874015748031497},{"duration":0.13636350000000164,"midi":82,"time":17.27271,"velocity":0.7874015748031497},{"duration":0.13636350000000164,"midi":81,"time":17.454528,"velocity":0.7874015748031497},{"duration":0.13636350000000164,"midi":69,"time":17.454528,"velocity":0.7874015748031497},{"duration":0.13636350000000164,"midi":82,"time":17.636346,"velocity":0.7874015748031497},{"duration":0.13636350000000164,"midi":70,"time":17.636346,"velocity":0.7874015748031497},{"duration":0.13636350000000164,"midi":84,"time":17.818164,"velocity":0.7874015748031497},{"duration":0.13636350000000164,"midi":72,"time":17.818164,"velocity":0.7874015748031497},{"duration":0.13636350000000164,"midi":70,"time":17.999982,"velocity":0.7874015748031497},{"duration":0.13636350000000164,"midi":82,"time":17.999982,"velocity":0.7874015748031497},{"duration":0.13636350000000164,"midi":81,"time":18.1818,"velocity":0.7874015748031497},{"duration":0.13636350000000164,"midi":69,"time":18.1818,"velocity":0.7874015748031497},{"duration":0.13636349999999808,"midi":70,"time":18.363618000000002,"velocity":0.7874015748031497},{"duration":0.13636349999999808,"midi":82,"time":18.363618000000002,"velocity":0.7874015748031497},{"duration":0.13636349999999808,"midi":72,"time":18.545436000000002,"velocity":0.7874015748031497},{"duration":0.13636349999999808,"midi":84,"time":18.545436000000002,"velocity":0.7874015748031497},{"duration":0.13636349999999808,"midi":70,"time":18.727254000000002,"velocity":0.7874015748031497},{"duration":0.13636349999999808,"midi":82,"time":18.727254000000002,"velocity":0.7874015748031497},{"duration":0.13636349999999808,"midi":69,"time":18.909072000000002,"velocity":0.7874015748031497},{"duration":0.13636349999999808,"midi":81,"time":18.909072000000002,"velocity":0.7874015748031497},{"duration":0.13636349999999808,"midi":70,"time":19.09089,"velocity":0.7874015748031497},{"duration":0.13636349999999808,"midi":82,"time":19.09089,"velocity":0.7874015748031497},{"duration":0.13636349999999808,"midi":72,"time":19.272708,"velocity":0.7874015748031497},{"duration":0.13636349999999808,"midi":84,"time":19.272708,"velocity":0.7874015748031497},{"duration":0.13636349999999808,"midi":82,"time":19.454526,"velocity":0.7874015748031497},{"duration":0.13636349999999808,"midi":70,"time":19.454526,"velocity":0.7874015748031497},{"duration":0.13636349999999808,"midi":81,"time":19.636344,"velocity":0.7874015748031497},{"duration":0.13636349999999808,"midi":69,"time":19.636344,"velocity":0.7874015748031497},{"duration":0.13636350000000164,"midi":82,"time":19.818162,"velocity":0.7874015748031497},{"duration":0.13636350000000164,"midi":70,"time":19.818162,"velocity":0.7874015748031497},{"duration":0.13636350000000164,"midi":72,"time":19.99998,"velocity":0.7874015748031497},{"duration":0.13636350000000164,"midi":84,"time":19.99998,"velocity":0.7874015748031497},{"duration":0.13636350000000164,"midi":70,"time":20.181798,"velocity":0.7874015748031497},{"duration":0.13636350000000164,"midi":82,"time":20.181798,"velocity":0.7874015748031497},{"duration":0.13636350000000164,"midi":77,"time":20.363616,"velocity":0.7874015748031497},{"duration":0.13636350000000164,"midi":65,"time":20.363616,"velocity":0.7874015748031497},{"duration":0.13636350000000164,"midi":69,"time":20.545434,"velocity":0.7874015748031497},{"duration":0.13636350000000164,"midi":81,"time":20.545434,"velocity":0.7874015748031497},{"duration":0.13636350000000164,"midi":72,"time":20.727252,"velocity":0.7874015748031497},{"duration":0.13636350000000164,"midi":84,"time":20.727252,"velocity":0.7874015748031497},{"duration":0.13636350000000164,"midi":69,"time":20.90907,"velocity":0.7874015748031497},{"duration":0.13636350000000164,"midi":81,"time":20.90907,"velocity":0.7874015748031497},{"duration":0.13636350000000164,"midi":77,"time":21.090888,"velocity":0.7874015748031497},{"duration":0.13636350000000164,"midi":65,"time":21.090888,"velocity":0.7874015748031497},{"duration":0.13636350000000164,"midi":69,"time":21.272706,"velocity":0.7874015748031497},{"duration":0.13636350000000164,"midi":81,"time":21.272706,"velocity":0.7874015748031497},{"duration":0.13636350000000164,"midi":84,"time":21.454524,"velocity":0.7874015748031497},{"duration":0.13636350000000164,"midi":72,"time":21.454524,"velocity":0.7874015748031497},{"duration":0.13636349999999808,"midi":69,"time":21.636342000000003,"velocity":0.7874015748031497},{"duration":0.13636349999999808,"midi":81,"time":21.636342000000003,"velocity":0.7874015748031497},{"duration":0.13636349999999808,"midi":67,"time":21.818160000000002,"velocity":0.7874015748031497},{"duration":0.13636349999999808,"midi":79,"time":21.818160000000002,"velocity":0.7874015748031497},{"duration":0.13636349999999808,"midi":82,"time":21.999978000000002,"velocity":0.7874015748031497},{"duration":0.13636349999999808,"midi":70,"time":21.999978000000002,"velocity":0.7874015748031497},{"duration":0.13636349999999808,"midi":74,"time":22.181796000000002,"velocity":0.7874015748031497},{"duration":0.13636349999999808,"midi":86,"time":22.181796000000002,"velocity":0.7874015748031497},{"duration":0.13636349999999808,"midi":82,"time":22.363614000000002,"velocity":0.7874015748031497},{"duration":0.13636349999999808,"midi":70,"time":22.363614000000002,"velocity":0.7874015748031497},{"duration":0.13636349999999808,"midi":79,"time":22.545432,"velocity":0.7874015748031497},{"duration":0.13636349999999808,"midi":67,"time":22.545432,"velocity":0.7874015748031497},{"duration":0.13636349999999808,"midi":82,"time":22.72725,"velocity":0.7874015748031497},{"duration":0.13636349999999808,"midi":70,"time":22.72725,"velocity":0.7874015748031497},{"duration":0.13636349999999808,"midi":74,"time":22.909068,"velocity":0.7874015748031497},{"duration":0.13636349999999808,"midi":86,"time":22.909068,"velocity":0.7874015748031497},{"duration":0.13636349999999808,"midi":82,"time":23.090886,"velocity":0.7874015748031497},{"duration":0.13636349999999808,"midi":70,"time":23.090886,"velocity":0.7874015748031497},{"duration":0.1818179999999998,"midi":74,"time":23.272704,"velocity":0.7874015748031497},{"duration":0.13636350000000164,"midi":77,"time":23.63634,"velocity":0.7874015748031497},{"duration":0.02272724999999909,"midi":73,"time":23.909067,"velocity":0.7874015748031497},{"duration":0.02272724999999909,"midi":74,"time":23.954521500000002,"velocity":0.7874015748031497},{"duration":0.0909089999999999,"midi":72,"time":23.999976,"velocity":0.7874015748031497},{"duration":0.1818179999999998,"midi":70,"time":24.181794,"velocity":0.7874015748031497},{"duration":0.0909089999999999,"midi":67,"time":24.54543,"velocity":0.7874015748031497},{"duration":0.1818179999999998,"midi":74,"time":24.727248,"velocity":0.7874015748031497},{"duration":0.1818179999999998,"midi":77,"time":25.090884000000003,"velocity":0.7874015748031497},{"duration":0.1818179999999998,"midi":74,"time":25.454520000000002,"velocity":0.7874015748031497},{"duration":0.1818179999999998,"midi":77,"time":25.818156000000002,"velocity":0.7874015748031497},{"duration":0.1818179999999998,"midi":72,"time":26.181792,"velocity":0.7874015748031497},{"duration":0.13636350000000164,"midi":72,"time":26.545428,"velocity":0.7874015748031497},{"duration":0.02272724999999909,"midi":73,"time":26.818155,"velocity":0.7874015748031497},{"duration":0.02272724999999909,"midi":74,"time":26.863609500000003,"velocity":0.7874015748031497},{"duration":0.0909089999999999,"midi":72,"time":26.909064,"velocity":0.7874015748031497},{"duration":0.1818179999999998,"midi":70,"time":27.090882,"velocity":0.7874015748031497},{"duration":0.0909089999999999,"midi":67,"time":27.454518,"velocity":0.7874015748031497},{"duration":0.1818179999999998,"midi":73,"time":27.636336,"velocity":0.7874015748031497},{"duration":0.1818179999999998,"midi":72,"time":27.999972,"velocity":0.7874015748031497},{"duration":0.1818179999999998,"midi":73,"time":28.363608000000003,"velocity":0.7874015748031497},{"duration":0.0909089999999999,"midi":72,"time":28.727244000000002,"velocity":0.7874015748031497},{"duration":0.0909089999999999,"midi":70,"time":28.909062000000002,"velocity":0.7874015748031497},{"duration":0.1818179999999998,"midi":74,"time":29.090880000000002,"velocity":0.7874015748031497},{"duration":0.13636349999999808,"midi":77,"time":29.454516,"velocity":0.7874015748031497},{"duration":0.02272724999999909,"midi":73,"time":29.727243,"velocity":0.7874015748031497},{"duration":0.02272725000000264,"midi":74,"time":29.7726975,"velocity":0.7874015748031497},{"duration":0.0909089999999999,"midi":72,"time":29.818152,"velocity":0.7874015748031497},{"duration":0.1818179999999998,"midi":70,"time":29.99997,"velocity":0.7874015748031497},{"duration":0.0909089999999999,"midi":67,"time":30.363606,"velocity":0.7874015748031497},{"duration":0.1818179999999998,"midi":74,"time":30.545424,"velocity":0.7874015748031497},{"duration":0.1818179999999998,"midi":77,"time":30.90906,"velocity":0.7874015748031497},{"duration":0.1818179999999998,"midi":74,"time":31.272696,"velocity":0.7874015748031497},{"duration":0.1818179999999998,"midi":77,"time":31.636332000000003,"velocity":0.7874015748031497},{"duration":0.1818179999999998,"midi":72,"time":31.999968000000003,"velocity":0.7874015748031497},{"duration":0.09090899999999635,"midi":72,"time":32.363604,"velocity":0.7874015748031497},{"duration":0.02272725000000264,"midi":73,"time":32.636331,"velocity":0.7874015748031497},{"duration":0.022727249999995536,"midi":74,"time":32.681785500000004,"velocity":0.7874015748031497},{"duration":0.09090899999999635,"midi":72,"time":32.72724,"velocity":0.7874015748031497},{"duration":0.1818179999999998,"midi":70,"time":32.909058,"velocity":0.7874015748031497},{"duration":0.09090900000000346,"midi":67,"time":33.272694,"velocity":0.7874015748031497},{"duration":0.1818179999999998,"midi":73,"time":33.454512,"velocity":0.7874015748031497},{"duration":0.1818179999999998,"midi":72,"time":33.818148,"velocity":0.7874015748031497},{"duration":0.09090900000000346,"midi":55,"time":34.181784,"velocity":0.7874015748031497},{"duration":0.09090900000000346,"midi":67,"time":34.181784,"velocity":0.7874015748031497},{"duration":0.09090900000000346,"midi":55,"time":34.181784,"velocity":0.7874015748031497},{"duration":0.09090900000000346,"midi":67,"time":34.181784,"velocity":0.7874015748031497},{"duration":0.09090900000000346,"midi":70,"time":34.181784,"velocity":0.7874015748031497},{"duration":0.09090900000000346,"midi":58,"time":34.181784,"velocity":0.7874015748031497},{"duration":0.09090900000000346,"midi":58,"time":34.181784,"velocity":0.7874015748031497},{"duration":0.09090900000000346,"midi":70,"time":34.181784,"velocity":0.7874015748031497},{"duration":0.09090899999999635,"midi":55,"time":34.272693000000004,"velocity":0.7874015748031497},{"duration":0.09090899999999635,"midi":58,"time":34.272693000000004,"velocity":0.7874015748031497},{"duration":0.09090899999999635,"midi":58,"time":34.272693000000004,"velocity":0.7874015748031497},{"duration":0.09090899999999635,"midi":55,"time":34.272693000000004,"velocity":0.7874015748031497},{"duration":0.09090899999999635,"midi":70,"time":34.272693000000004,"velocity":0.7874015748031497},{"duration":0.09090899999999635,"midi":67,"time":34.272693000000004,"velocity":0.7874015748031497},{"duration":0.09090899999999635,"midi":67,"time":34.272693000000004,"velocity":0.7874015748031497},{"duration":0.09090899999999635,"midi":70,"time":34.272693000000004,"velocity":0.7874015748031497},{"duration":0.09090900000000346,"midi":67,"time":34.363602,"velocity":0.7874015748031497},{"duration":0.09090900000000346,"midi":55,"time":34.363602,"velocity":0.7874015748031497},{"duration":0.09090900000000346,"midi":55,"time":34.363602,"velocity":0.7874015748031497},{"duration":0.09090900000000346,"midi":58,"time":34.363602,"velocity":0.7874015748031497},{"duration":0.09090900000000346,"midi":70,"time":34.363602,"velocity":0.7874015748031497},{"duration":0.09090900000000346,"midi":70,"time":34.363602,"velocity":0.7874015748031497},{"duration":0.09090900000000346,"midi":67,"time":34.363602,"velocity":0.7874015748031497},{"duration":0.09090900000000346,"midi":58,"time":34.363602,"velocity":0.7874015748031497},{"duration":0.09090899999999635,"midi":67,"time":34.454511000000004,"velocity":0.7874015748031497},{"duration":0.09090899999999635,"midi":70,"time":34.454511000000004,"velocity":0.7874015748031497},{"duration":0.09090899999999635,"midi":55,"time":34.454511000000004,"velocity":0.7874015748031497},{"duration":0.09090899999999635,"midi":58,"time":34.454511000000004,"velocity":0.7874015748031497},{"duration":0.09090899999999635,"midi":70,"time":34.454511000000004,"velocity":0.7874015748031497},{"duration":0.09090899999999635,"midi":58,"time":34.454511000000004,"velocity":0.7874015748031497},{"duration":0.09090899999999635,"midi":55,"time":34.454511000000004,"velocity":0.7874015748031497},{"duration":0.09090899999999635,"midi":67,"time":34.454511000000004,"velocity":0.7874015748031497},{"duration":0.1818179999999998,"midi":79,"time":34.54542,"velocity":0.7874015748031497},{"duration":0.1818179999999998,"midi":70,"time":34.54542,"velocity":0.7874015748031497},{"duration":0.1818179999999998,"midi":74,"time":34.54542,"velocity":0.7874015748031497},{"duration":0.1818179999999998,"midi":79,"time":34.54542,"velocity":0.7874015748031497},{"duration":0.1818179999999998,"midi":74,"time":34.54542,"velocity":0.7874015748031497},{"duration":0.1818179999999998,"midi":62,"time":34.54542,"velocity":0.7874015748031497},{"duration":0.1818179999999998,"midi":67,"time":34.54542,"velocity":0.7874015748031497},{"duration":0.1818179999999998,"midi":62,"time":34.54542,"velocity":0.7874015748031497},{"duration":0.1818179999999998,"midi":67,"time":34.54542,"velocity":0.7874015748031497},{"duration":0.1818179999999998,"midi":70,"time":34.54542,"velocity":0.7874015748031497},{"duration":0.1818179999999998,"midi":70,"time":34.727238,"velocity":0.7874015748031497},{"duration":0.1818179999999998,"midi":62,"time":34.727238,"velocity":0.7874015748031497},{"duration":0.1818179999999998,"midi":70,"time":34.727238,"velocity":0.7874015748031497},{"duration":0.1818179999999998,"midi":67,"time":34.727238,"velocity":0.7874015748031497},{"duration":0.1818179999999998,"midi":58,"time":34.727238,"velocity":0.7874015748031497},{"duration":0.1818179999999998,"midi":62,"time":34.727238,"velocity":0.7874015748031497},{"duration":0.1818179999999998,"midi":58,"time":34.727238,"velocity":0.7874015748031497},{"duration":0.1818179999999998,"midi":67,"time":34.727238,"velocity":0.7874015748031497},{"duration":0.1818179999999998,"midi":62,"time":34.909056,"velocity":0.7874015748031497},{"duration":0.1818179999999998,"midi":74,"time":34.909056,"velocity":0.7874015748031497},{"duration":0.13636350000000164,"midi":65,"time":35.272692,"velocity":0.7874015748031497},{"duration":0.13636350000000164,"midi":77,"time":35.272692,"velocity":0.7874015748031497},{"duration":0.022727249999995536,"midi":73,"time":35.545419,"velocity":0.7874015748031497},{"duration":0.022727249999995536,"midi":61,"time":35.545419,"velocity":0.7874015748031497},{"duration":0.02272725000000264,"midi":62,"time":35.5908735,"velocity":0.7874015748031497},{"duration":0.02272725000000264,"midi":74,"time":35.5908735,"velocity":0.7874015748031497},{"duration":0.09090900000000346,"midi":72,"time":35.636328,"velocity":0.7874015748031497},{"duration":0.09090900000000346,"midi":60,"time":35.636328,"velocity":0.7874015748031497},{"duration":0.1818179999999998,"midi":58,"time":35.818146,"velocity":0.7874015748031497},{"duration":0.1818179999999998,"midi":70,"time":35.818146,"velocity":0.7874015748031497},{"duration":0.09090900000000346,"midi":55,"time":36.181782,"velocity":0.7874015748031497},{"duration":0.09090900000000346,"midi":67,"time":36.181782,"velocity":0.7874015748031497},{"duration":0.2727270000000033,"midi":62,"time":36.3636,"velocity":0.7874015748031497},{"duration":0.2727270000000033,"midi":74,"time":36.3636,"velocity":0.7874015748031497},{"duration":0.27272699999999617,"midi":77,"time":36.727236000000005,"velocity":0.7874015748031497},{"duration":0.27272699999999617,"midi":65,"time":36.727236000000005,"velocity":0.7874015748031497},{"duration":0.27272699999999617,"midi":74,"time":37.090872000000005,"velocity":0.7874015748031497},{"duration":0.27272699999999617,"midi":62,"time":37.090872000000005,"velocity":0.7874015748031497},{"duration":0.27272699999999617,"midi":77,"time":37.454508000000004,"velocity":0.7874015748031497},{"duration":0.27272699999999617,"midi":65,"time":37.454508000000004,"velocity":0.7874015748031497},{"duration":0.27272699999999617,"midi":60,"time":37.818144000000004,"velocity":0.7874015748031497},{"duration":0.27272699999999617,"midi":72,"time":37.818144000000004,"velocity":0.7874015748031497},{"duration":0.1818179999999998,"midi":60,"time":38.18178,"velocity":0.7874015748031497},{"duration":0.1818179999999998,"midi":72,"time":38.18178,"velocity":0.7874015748031497},{"duration":0.02272725000000264,"midi":73,"time":38.454507,"velocity":0.7874015748031497},{"duration":0.02272725000000264,"midi":61,"time":38.454507,"velocity":0.7874015748031497},{"duration":0.022727249999995536,"midi":62,"time":38.499961500000005,"velocity":0.7874015748031497},{"duration":0.022727249999995536,"midi":74,"time":38.499961500000005,"velocity":0.7874015748031497},{"duration":0.09090899999999635,"midi":60,"time":38.545416,"velocity":0.7874015748031497},{"duration":0.09090899999999635,"midi":72,"time":38.545416,"velocity":0.7874015748031497},{"duration":0.27272699999999617,"midi":70,"time":38.727234,"velocity":0.7874015748031497},{"duration":0.27272699999999617,"midi":58,"time":38.727234,"velocity":0.7874015748031497},{"duration":0.09090899999999635,"midi":55,"time":39.09087,"velocity":0.7874015748031497},{"duration":0.09090899999999635,"midi":67,"time":39.09087,"velocity":0.7874015748031497},{"duration":0.1818179999999998,"midi":73,"time":39.272688,"velocity":0.7874015748031497},{"duration":0.1818179999999998,"midi":61,"time":39.272688,"velocity":0.7874015748031497},{"duration":0.1818179999999998,"midi":60,"time":39.636324,"velocity":0.7874015748031497},{"duration":0.1818179999999998,"midi":72,"time":39.636324,"velocity":0.7874015748031497},{"duration":0.1818179999999998,"midi":73,"time":39.99996,"velocity":0.7874015748031497},{"duration":0.1818179999999998,"midi":61,"time":39.99996,"velocity":0.7874015748031497},{"duration":0.09090900000000346,"midi":60,"time":40.363596,"velocity":0.7874015748031497},{"duration":0.09090900000000346,"midi":72,"time":40.363596,"velocity":0.7874015748031497},{"duration":0.09090900000000346,"midi":58,"time":40.545414,"velocity":0.7874015748031497},{"duration":0.09090900000000346,"midi":70,"time":40.545414,"velocity":0.7874015748031497},{"duration":0.1818179999999998,"midi":74,"time":40.727232,"velocity":0.7874015748031497},{"duration":0.1818179999999998,"midi":62,"time":40.727232,"velocity":0.7874015748031497},{"duration":0.1818179999999998,"midi":77,"time":41.090868,"velocity":0.7874015748031497},{"duration":0.1818179999999998,"midi":65,"time":41.090868,"velocity":0.7874015748031497},{"duration":0.022727249999995536,"midi":61,"time":41.363595000000004,"velocity":0.7874015748031497},{"duration":0.022727249999995536,"midi":73,"time":41.363595000000004,"velocity":0.7874015748031497},{"duration":0.02272725000000264,"midi":62,"time":41.4090495,"velocity":0.7874015748031497},{"duration":0.02272725000000264,"midi":74,"time":41.4090495,"velocity":0.7874015748031497},{"duration":0.09090900000000346,"midi":60,"time":41.454504,"velocity":0.7874015748031497},{"duration":0.09090900000000346,"midi":72,"time":41.454504,"velocity":0.7874015748031497},{"duration":0.1818179999999998,"midi":58,"time":41.636322,"velocity":0.7874015748031497},{"duration":0.1818179999999998,"midi":70,"time":41.636322,"velocity":0.7874015748031497},{"duration":0.09090900000000346,"midi":67,"time":41.999958,"velocity":0.7874015748031497},{"duration":0.09090900000000346,"midi":55,"time":41.999958,"velocity":0.7874015748031497},{"duration":0.1818179999999998,"midi":74,"time":42.181776,"velocity":0.7874015748031497},{"duration":0.1818179999999998,"midi":62,"time":42.181776,"velocity":0.7874015748031497},{"duration":0.1818179999999998,"midi":65,"time":42.545412,"velocity":0.7874015748031497},{"duration":0.1818179999999998,"midi":77,"time":42.545412,"velocity":0.7874015748031497},{"duration":0.1818179999999998,"midi":62,"time":42.909048,"velocity":0.7874015748031497},{"duration":0.1818179999999998,"midi":74,"time":42.909048,"velocity":0.7874015748031497},{"duration":0.1818179999999998,"midi":65,"time":43.272684000000005,"velocity":0.7874015748031497},{"duration":0.1818179999999998,"midi":77,"time":43.272684000000005,"velocity":0.7874015748031497},{"duration":0.1818179999999998,"midi":60,"time":43.636320000000005,"velocity":0.7874015748031497},{"duration":0.1818179999999998,"midi":72,"time":43.636320000000005,"velocity":0.7874015748031497},{"duration":0.1818179999999998,"midi":72,"time":43.999956000000005,"velocity":0.7874015748031497},{"duration":0.1818179999999998,"midi":60,"time":43.999956000000005,"velocity":0.7874015748031497},{"duration":0.02272725000000264,"midi":61,"time":44.272683,"velocity":0.7874015748031497},{"duration":0.02272725000000264,"midi":73,"time":44.272683,"velocity":0.7874015748031497},{"duration":0.02272725000000264,"midi":74,"time":44.3181375,"velocity":0.7874015748031497},{"duration":0.02272725000000264,"midi":62,"time":44.3181375,"velocity":0.7874015748031497},{"duration":0.09090899999999635,"midi":72,"time":44.363592000000004,"velocity":0.7874015748031497},{"duration":0.09090899999999635,"midi":60,"time":44.363592000000004,"velocity":0.7874015748031497},{"duration":0.1818179999999998,"midi":58,"time":44.545410000000004,"velocity":0.7874015748031497},{"duration":0.1818179999999998,"midi":70,"time":44.545410000000004,"velocity":0.7874015748031497},{"duration":0.09090899999999635,"midi":67,"time":44.909046000000004,"velocity":0.7874015748031497},{"duration":0.09090899999999635,"midi":55,"time":44.909046000000004,"velocity":0.7874015748031497},{"duration":0.1818179999999998,"midi":73,"time":45.090864,"velocity":0.7874015748031497},{"duration":0.1818179999999998,"midi":61,"time":45.090864,"velocity":0.7874015748031497},{"duration":0.1818179999999998,"midi":72,"time":45.4545,"velocity":0.7874015748031497},{"duration":0.1818179999999998,"midi":60,"time":45.4545,"velocity":0.7874015748031497},{"duration":0.1818179999999998,"midi":61,"time":45.818136,"velocity":0.7874015748031497},{"duration":0.1818179999999998,"midi":73,"time":45.818136,"velocity":0.7874015748031497},{"duration":0.09090899999999635,"midi":60,"time":46.181772,"velocity":0.7874015748031497},{"duration":0.09090899999999635,"midi":72,"time":46.181772,"velocity":0.7874015748031497},{"duration":0.09090899999999635,"midi":70,"time":46.36359,"velocity":0.7874015748031497},{"duration":0.09090899999999635,"midi":58,"time":46.36359,"velocity":0.7874015748031497},{"duration":0.3636359999999996,"midi":79,"time":46.545408,"velocity":0.7874015748031497},{"duration":0.3636359999999996,"midi":70,"time":46.545408,"velocity":0.7874015748031497},{"duration":0.3636359999999996,"midi":67,"time":46.545408,"velocity":0.7874015748031497},{"duration":0.3636359999999996,"midi":74,"time":46.545408,"velocity":0.7874015748031497},{"duration":0.7272719999999993,"midi":70,"time":46.909044,"velocity":0.7874015748031497},{"duration":0.7272719999999993,"midi":67,"time":46.909044,"velocity":0.7874015748031497},{"duration":0.7272719999999993,"midi":79,"time":46.909044,"velocity":0.7874015748031497},{"duration":0.7272719999999993,"midi":74,"time":46.909044,"velocity":0.7874015748031497},{"duration":0.3636359999999996,"midi":74,"time":47.636316,"velocity":0.7874015748031497},{"duration":0.3636359999999996,"midi":79,"time":47.636316,"velocity":0.7874015748031497},{"duration":0.3636359999999996,"midi":70,"time":47.636316,"velocity":0.7874015748031497},{"duration":0.3636359999999996,"midi":67,"time":47.636316,"velocity":0.7874015748031497},{"duration":0.3636359999999996,"midi":82,"time":47.999952,"velocity":0.7874015748031497},{"duration":0.3636359999999996,"midi":70,"time":47.999952,"velocity":0.7874015748031497},{"duration":0.3636359999999996,"midi":76,"time":47.999952,"velocity":0.7874015748031497},{"duration":0.3636359999999996,"midi":79,"time":47.999952,"velocity":0.7874015748031497},{"duration":0.7272719999999993,"midi":79,"time":48.363588,"velocity":0.7874015748031497},{"duration":0.7272719999999993,"midi":70,"time":48.363588,"velocity":0.7874015748031497},{"duration":0.7272719999999993,"midi":82,"time":48.363588,"velocity":0.7874015748031497},{"duration":0.7272719999999993,"midi":76,"time":48.363588,"velocity":0.7874015748031497},{"duration":0.3636359999999996,"midi":76,"time":49.09086,"velocity":0.7874015748031497},{"duration":0.3636359999999996,"midi":70,"time":49.09086,"velocity":0.7874015748031497},{"duration":0.3636359999999996,"midi":79,"time":49.09086,"velocity":0.7874015748031497},{"duration":0.3636359999999996,"midi":82,"time":49.09086,"velocity":0.7874015748031497},{"duration":0.3636359999999996,"midi":69,"time":49.454496,"velocity":0.7874015748031497},{"duration":0.3636359999999996,"midi":72,"time":49.454496,"velocity":0.7874015748031497},{"duration":0.3636359999999996,"midi":65,"time":49.454496,"velocity":0.7874015748031497},{"duration":0.3636359999999996,"midi":77,"time":49.454496,"velocity":0.7874015748031497},{"duration":0.7272720000000064,"midi":72,"time":49.818132,"velocity":0.7874015748031497},{"duration":0.7272720000000064,"midi":69,"time":49.818132,"velocity":0.7874015748031497},{"duration":0.7272720000000064,"midi":65,"time":49.818132,"velocity":0.7874015748031497},{"duration":0.7272720000000064,"midi":77,"time":49.818132,"velocity":0.7874015748031497},{"duration":0.3636359999999996,"midi":77,"time":50.545404000000005,"velocity":0.7874015748031497},{"duration":0.3636359999999996,"midi":69,"time":50.545404000000005,"velocity":0.7874015748031497},{"duration":0.3636359999999996,"midi":65,"time":50.545404000000005,"velocity":0.7874015748031497},{"duration":0.3636359999999996,"midi":72,"time":50.545404000000005,"velocity":0.7874015748031497},{"duration":0.3636359999999996,"midi":67,"time":50.909040000000005,"velocity":0.7874015748031497},{"duration":0.3636359999999996,"midi":74,"time":50.909040000000005,"velocity":0.7874015748031497},{"duration":0.3636359999999996,"midi":70,"time":50.909040000000005,"velocity":0.7874015748031497},{"duration":0.3636359999999996,"midi":79,"time":50.909040000000005,"velocity":0.7874015748031497},{"duration":0.7272719999999993,"midi":67,"time":51.272676000000004,"velocity":0.7874015748031497},{"duration":0.7272719999999993,"midi":70,"time":51.272676000000004,"velocity":0.7874015748031497},{"duration":0.7272719999999993,"midi":74,"time":51.272676000000004,"velocity":0.7874015748031497},{"duration":0.7272719999999993,"midi":79,"time":51.272676000000004,"velocity":0.7874015748031497},{"duration":0.3636359999999996,"midi":65,"time":51.999948,"velocity":0.7874015748031497},{"duration":0.3636359999999996,"midi":79,"time":51.999948,"velocity":0.7874015748031497},{"duration":0.3636359999999996,"midi":74,"time":51.999948,"velocity":0.7874015748031497},{"duration":0.3636359999999996,"midi":70,"time":51.999948,"velocity":0.7874015748031497},{"duration":0.3636359999999996,"midi":79,"time":52.363584,"velocity":0.7874015748031497},{"duration":0.3636359999999996,"midi":67,"time":52.363584,"velocity":0.7874015748031497},{"duration":0.3636359999999996,"midi":74,"time":52.363584,"velocity":0.7874015748031497},{"duration":0.3636359999999996,"midi":70,"time":52.363584,"velocity":0.7874015748031497},{"duration":0.7272719999999993,"midi":67,"time":52.72722,"velocity":0.7874015748031497},{"duration":0.7272719999999993,"midi":79,"time":52.72722,"velocity":0.7874015748031497},{"duration":0.7272719999999993,"midi":74,"time":52.72722,"velocity":0.7874015748031497},{"duration":0.7272719999999993,"midi":70,"time":52.72722,"velocity":0.7874015748031497},{"duration":0.3636359999999996,"midi":67,"time":53.454492,"velocity":0.7874015748031497},{"duration":0.3636359999999996,"midi":79,"time":53.454492,"velocity":0.7874015748031497},{"duration":0.3636359999999996,"midi":70,"time":53.454492,"velocity":0.7874015748031497},{"duration":0.3636359999999996,"midi":74,"time":53.454492,"velocity":0.7874015748031497},{"duration":0.3636359999999996,"midi":82,"time":53.818128,"velocity":0.7874015748031497},{"duration":0.3636359999999996,"midi":70,"time":53.818128,"velocity":0.7874015748031497},{"duration":0.3636359999999996,"midi":76,"time":53.818128,"velocity":0.7874015748031497},{"duration":0.3636359999999996,"midi":79,"time":53.818128,"velocity":0.7874015748031497},{"duration":0.7272719999999993,"midi":79,"time":54.181764,"velocity":0.7874015748031497},{"duration":0.7272719999999993,"midi":82,"time":54.181764,"velocity":0.7874015748031497},{"duration":0.7272719999999993,"midi":70,"time":54.181764,"velocity":0.7874015748031497},{"duration":0.7272719999999993,"midi":76,"time":54.181764,"velocity":0.7874015748031497},{"duration":0.3636359999999996,"midi":79,"time":54.909036,"velocity":0.7874015748031497},{"duration":0.3636359999999996,"midi":76,"time":54.909036,"velocity":0.7874015748031497},{"duration":0.3636359999999996,"midi":70,"time":54.909036,"velocity":0.7874015748031497},{"duration":0.3636359999999996,"midi":82,"time":54.909036,"velocity":0.7874015748031497},{"duration":0.3636359999999996,"midi":69,"time":55.272672,"velocity":0.7874015748031497},{"duration":0.3636359999999996,"midi":72,"time":55.272672,"velocity":0.7874015748031497},{"duration":0.3636359999999996,"midi":65,"time":55.272672,"velocity":0.7874015748031497},{"duration":0.3636359999999996,"midi":77,"time":55.272672,"velocity":0.7874015748031497},{"duration":0.7272719999999993,"midi":77,"time":55.636308,"velocity":0.7874015748031497},{"duration":0.7272719999999993,"midi":72,"time":55.636308,"velocity":0.7874015748031497},{"duration":0.7272719999999993,"midi":69,"time":55.636308,"velocity":0.7874015748031497},{"duration":0.7272719999999993,"midi":65,"time":55.636308,"velocity":0.7874015748031497},{"duration":0.36363600000000673,"midi":77,"time":56.36358,"velocity":0.7874015748031497},{"duration":0.36363600000000673,"midi":69,"time":56.36358,"velocity":0.7874015748031497},{"duration":0.36363600000000673,"midi":65,"time":56.36358,"velocity":0.7874015748031497},{"duration":0.36363600000000673,"midi":72,"time":56.36358,"velocity":0.7874015748031497},{"duration":0.09090899999999635,"midi":55,"time":69.09084,"velocity":0.7874015748031497},{"duration":0.09090899999999635,"midi":67,"time":69.09084,"velocity":0.7874015748031497},{"duration":0.09090899999999635,"midi":58,"time":69.09084,"velocity":0.7874015748031497},{"duration":0.09090899999999635,"midi":70,"time":69.09084,"velocity":0.7874015748031497},{"duration":0.09090899999999635,"midi":55,"time":69.09084,"velocity":0.7874015748031497},{"duration":0.09090899999999635,"midi":67,"time":69.09084,"velocity":0.7874015748031497},{"duration":0.09090899999999635,"midi":58,"time":69.09084,"velocity":0.7874015748031497},{"duration":0.09090899999999635,"midi":70,"time":69.09084,"velocity":0.7874015748031497},{"duration":0.09090900000001056,"midi":58,"time":69.181749,"velocity":0.7874015748031497},{"duration":0.09090900000001056,"midi":55,"time":69.181749,"velocity":0.7874015748031497},{"duration":0.09090900000001056,"midi":70,"time":69.181749,"velocity":0.7874015748031497},{"duration":0.09090900000001056,"midi":70,"time":69.181749,"velocity":0.7874015748031497},{"duration":0.09090900000001056,"midi":67,"time":69.181749,"velocity":0.7874015748031497},{"duration":0.09090900000001056,"midi":67,"time":69.181749,"velocity":0.7874015748031497},{"duration":0.09090900000001056,"midi":55,"time":69.181749,"velocity":0.7874015748031497},{"duration":0.09090900000001056,"midi":58,"time":69.181749,"velocity":0.7874015748031497},{"duration":0.09090899999999635,"midi":70,"time":69.272658,"velocity":0.7874015748031497},{"duration":0.09090899999999635,"midi":55,"time":69.272658,"velocity":0.7874015748031497},{"duration":0.09090899999999635,"midi":67,"time":69.272658,"velocity":0.7874015748031497},{"duration":0.09090899999999635,"midi":55,"time":69.272658,"velocity":0.7874015748031497},{"duration":0.09090899999999635,"midi":70,"time":69.272658,"velocity":0.7874015748031497},{"duration":0.09090899999999635,"midi":67,"time":69.272658,"velocity":0.7874015748031497},{"duration":0.09090899999999635,"midi":58,"time":69.272658,"velocity":0.7874015748031497},{"duration":0.09090899999999635,"midi":58,"time":69.272658,"velocity":0.7874015748031497},{"duration":0.09090899999999635,"midi":70,"time":69.363567,"velocity":0.7874015748031497},{"duration":0.09090899999999635,"midi":58,"time":69.363567,"velocity":0.7874015748031497},{"duration":0.09090899999999635,"midi":55,"time":69.363567,"velocity":0.7874015748031497},{"duration":0.09090899999999635,"midi":55,"time":69.363567,"velocity":0.7874015748031497},{"duration":0.09090899999999635,"midi":67,"time":69.363567,"velocity":0.7874015748031497},{"duration":0.09090899999999635,"midi":58,"time":69.363567,"velocity":0.7874015748031497},{"duration":0.09090899999999635,"midi":70,"time":69.363567,"velocity":0.7874015748031497},{"duration":0.09090899999999635,"midi":67,"time":69.363567,"velocity":0.7874015748031497},{"duration":0.18181800000000692,"midi":67,"time":69.454476,"velocity":0.7874015748031497},{"duration":0.18181800000000692,"midi":62,"time":69.454476,"velocity":0.7874015748031497},{"duration":0.18181800000000692,"midi":67,"time":69.454476,"velocity":0.7874015748031497},{"duration":0.18181800000000692,"midi":79,"time":69.454476,"velocity":0.7874015748031497},{"duration":0.18181800000000692,"midi":62,"time":69.454476,"velocity":0.7874015748031497},{"duration":0.18181800000000692,"midi":70,"time":69.454476,"velocity":0.7874015748031497},{"duration":0.18181800000000692,"midi":74,"time":69.454476,"velocity":0.7874015748031497},{"duration":0.18181800000000692,"midi":79,"time":69.454476,"velocity":0.7874015748031497},{"duration":0.18181800000000692,"midi":70,"time":69.454476,"velocity":0.7874015748031497},{"duration":0.18181800000000692,"midi":74,"time":69.454476,"velocity":0.7874015748031497},{"duration":0.1818179999999927,"midi":62,"time":69.636294,"velocity":0.7874015748031497},{"duration":0.1818179999999927,"midi":58,"time":69.636294,"velocity":0.7874015748031497},{"duration":0.1818179999999927,"midi":70,"time":69.636294,"velocity":0.7874015748031497},{"duration":0.1818179999999927,"midi":67,"time":69.636294,"velocity":0.7874015748031497},{"duration":0.1818179999999927,"midi":67,"time":69.636294,"velocity":0.7874015748031497},{"duration":0.1818179999999927,"midi":62,"time":69.636294,"velocity":0.7874015748031497},{"duration":0.1818179999999927,"midi":58,"time":69.636294,"velocity":0.7874015748031497},{"duration":0.1818179999999927,"midi":70,"time":69.636294,"velocity":0.7874015748031497},{"duration":0.1818179999999927,"midi":70,"time":116.36352000000001,"velocity":0.7874015748031497},{"duration":0.18181800000000692,"midi":67,"time":116.545338,"velocity":0.7874015748031497},{"duration":0.1818179999999927,"midi":70,"time":117.09079200000001,"velocity":0.7874015748031497},{"duration":0.18181800000000692,"midi":67,"time":117.27261,"velocity":0.7874015748031497},{"duration":0.3636359999999996,"midi":69,"time":117.45442800000001,"velocity":0.7874015748031497},{"duration":0.1818179999999927,"midi":70,"time":117.818064,"velocity":0.7874015748031497},{"duration":0.18181800000000692,"midi":67,"time":117.999882,"velocity":0.7874015748031497},{"duration":0.1818179999999927,"midi":70,"time":118.545336,"velocity":0.7874015748031497},{"duration":0.18181800000000692,"midi":67,"time":118.727154,"velocity":0.7874015748031497},{"duration":0.3636359999999996,"midi":69,"time":118.908972,"velocity":0.7874015748031497},{"duration":0.1818179999999927,"midi":70,"time":119.272608,"velocity":0.7874015748031497},{"duration":0.18181800000000692,"midi":67,"time":119.454426,"velocity":0.7874015748031497},{"duration":0.18181800000000692,"midi":70,"time":119.99988,"velocity":0.7874015748031497},{"duration":0.1818179999999927,"midi":67,"time":120.18169800000001,"velocity":0.7874015748031497},{"duration":0.3636359999999996,"midi":69,"time":120.363516,"velocity":0.7874015748031497},{"duration":0.18181800000000692,"midi":70,"time":120.727152,"velocity":0.7874015748031497},{"duration":0.1818179999999927,"midi":67,"time":120.90897000000001,"velocity":0.7874015748031497},{"duration":0.18181800000000692,"midi":70,"time":121.454424,"velocity":0.7874015748031497},{"duration":0.1818179999999927,"midi":67,"time":121.63624200000001,"velocity":0.7874015748031497},{"duration":0.3636359999999996,"midi":69,"time":121.81806,"velocity":0.7874015748031497},{"duration":0.18181800000000692,"midi":70,"time":122.181696,"velocity":0.7874015748031497},{"duration":0.1818179999999927,"midi":67,"time":122.36351400000001,"velocity":0.7874015748031497},{"duration":0.18181800000000692,"midi":70,"time":122.908968,"velocity":0.7874015748031497},{"duration":0.1818179999999927,"midi":67,"time":123.09078600000001,"velocity":0.7874015748031497},{"duration":0.3636359999999996,"midi":69,"time":123.272604,"velocity":0.7874015748031497},{"duration":0.18181800000000692,"midi":70,"time":123.63624,"velocity":0.7874015748031497},{"duration":0.1818179999999927,"midi":67,"time":123.81805800000001,"velocity":0.7874015748031497},{"duration":0.18181800000000692,"midi":70,"time":124.363512,"velocity":0.7874015748031497},{"duration":0.1818179999999927,"midi":67,"time":124.54533,"velocity":0.7874015748031497},{"duration":0.3636359999999996,"midi":69,"time":124.727148,"velocity":0.7874015748031497},{"duration":0.18181800000000692,"midi":70,"time":125.090784,"velocity":0.7874015748031497},{"duration":0.1818179999999927,"midi":67,"time":125.272602,"velocity":0.7874015748031497},{"duration":0.18181800000000692,"midi":70,"time":125.818056,"velocity":0.7874015748031497},{"duration":0.1818179999999927,"midi":67,"time":125.999874,"velocity":0.7874015748031497},{"duration":0.36363600000001384,"midi":69,"time":126.181692,"velocity":0.7874015748031497},{"duration":0.1818179999999927,"midi":70,"time":126.54532800000001,"velocity":0.7874015748031497},{"duration":0.18181800000000692,"midi":67,"time":126.727146,"velocity":0.7874015748031497},{"duration":0.1818179999999927,"midi":70,"time":127.27260000000001,"velocity":0.7874015748031497},{"duration":0.1818179999999927,"midi":70,"time":127.27260000000001,"velocity":0.7874015748031497},{"duration":0.18181800000000692,"midi":67,"time":127.454418,"velocity":0.7874015748031497},{"duration":0.18181800000000692,"midi":67,"time":127.454418,"velocity":0.7874015748031497},{"duration":0.18181800000000692,"midi":67,"time":127.454418,"velocity":0.7874015748031497},{"duration":0.3636359999999996,"midi":69,"time":127.63623600000001,"velocity":0.7874015748031497},{"duration":0.3636359999999996,"midi":69,"time":127.63623600000001,"velocity":0.7874015748031497},{"duration":0.3636359999999996,"midi":69,"time":127.63623600000001,"velocity":0.7874015748031497},{"duration":0.3636359999999996,"midi":69,"time":127.63623600000001,"velocity":0.7874015748031497},{"duration":0.13636350000001585,"midi":69,"time":139.636224,"velocity":0.7874015748031497},{"duration":0.13636349999998743,"midi":70,"time":139.81804200000002,"velocity":0.7874015748031497},{"duration":0.13636349999998743,"midi":72,"time":139.99986,"velocity":0.7874015748031497},{"duration":0.13636349999998743,"midi":70,"time":140.181678,"velocity":0.7874015748031497},{"duration":0.13636350000001585,"midi":69,"time":140.363496,"velocity":0.7874015748031497},{"duration":0.13636349999998743,"midi":70,"time":140.54531400000002,"velocity":0.7874015748031497},{"duration":0.13636349999998743,"midi":72,"time":140.727132,"velocity":0.7874015748031497},{"duration":0.13636349999998743,"midi":70,"time":140.90895,"velocity":0.7874015748031497},{"duration":0.13636350000001585,"midi":69,"time":141.090768,"velocity":0.7874015748031497},{"duration":0.13636349999998743,"midi":70,"time":141.27258600000002,"velocity":0.7874015748031497},{"duration":0.13636349999998743,"midi":72,"time":141.454404,"velocity":0.7874015748031497},{"duration":0.13636350000001585,"midi":70,"time":141.636222,"velocity":0.7874015748031497},{"duration":0.13636350000001585,"midi":69,"time":141.81804,"velocity":0.7874015748031497},{"duration":0.13636349999998743,"midi":70,"time":141.99985800000002,"velocity":0.7874015748031497},{"duration":0.13636349999998743,"midi":72,"time":142.181676,"velocity":0.7874015748031497},{"duration":0.13636350000001585,"midi":70,"time":142.363494,"velocity":0.7874015748031497},{"duration":0.13636350000001585,"midi":65,"time":142.545312,"velocity":0.7874015748031497},{"duration":0.13636349999998743,"midi":69,"time":142.72713000000002,"velocity":0.7874015748031497},{"duration":0.13636349999998743,"midi":72,"time":142.908948,"velocity":0.7874015748031497},{"duration":0.13636350000001585,"midi":69,"time":143.090766,"velocity":0.7874015748031497},{"duration":0.13636350000001585,"midi":65,"time":143.272584,"velocity":0.7874015748031497},{"duration":0.13636349999998743,"midi":69,"time":143.45440200000002,"velocity":0.7874015748031497},{"duration":0.13636349999998743,"midi":72,"time":143.63622,"velocity":0.7874015748031497},{"duration":0.13636350000001585,"midi":69,"time":143.818038,"velocity":0.7874015748031497},{"duration":0.13636350000001585,"midi":67,"time":143.999856,"velocity":0.7874015748031497},{"duration":0.13636349999998743,"midi":70,"time":144.18167400000002,"velocity":0.7874015748031497},{"duration":0.13636349999998743,"midi":74,"time":144.363492,"velocity":0.7874015748031497},{"duration":0.13636350000001585,"midi":70,"time":144.54531,"velocity":0.7874015748031497},{"duration":0.13636350000001585,"midi":67,"time":144.727128,"velocity":0.7874015748031497},{"duration":0.13636349999998743,"midi":70,"time":144.90894600000001,"velocity":0.7874015748031497},{"duration":0.13636349999998743,"midi":74,"time":145.090764,"velocity":0.7874015748031497},{"duration":0.13636350000001585,"midi":70,"time":145.272582,"velocity":0.7874015748031497},{"duration":0.13636350000001585,"midi":81,"time":145.4544,"velocity":0.7874015748031497},{"duration":0.13636350000001585,"midi":69,"time":145.4544,"velocity":0.7874015748031497},{"duration":0.13636349999998743,"midi":70,"time":145.636218,"velocity":0.7874015748031497},{"duration":0.13636349999998743,"midi":82,"time":145.636218,"velocity":0.7874015748031497},{"duration":0.13636349999998743,"midi":72,"time":145.818036,"velocity":0.7874015748031497},{"duration":0.13636349999998743,"midi":84,"time":145.818036,"velocity":0.7874015748031497},{"duration":0.13636350000001585,"midi":82,"time":145.999854,"velocity":0.7874015748031497},{"duration":0.13636350000001585,"midi":70,"time":145.999854,"velocity":0.7874015748031497},{"duration":0.13636350000001585,"midi":69,"time":146.181672,"velocity":0.7874015748031497},{"duration":0.13636350000001585,"midi":81,"time":146.181672,"velocity":0.7874015748031497},{"duration":0.13636349999998743,"midi":82,"time":146.36349,"velocity":0.7874015748031497},{"duration":0.13636349999998743,"midi":70,"time":146.36349,"velocity":0.7874015748031497},{"duration":0.13636349999998743,"midi":84,"time":146.545308,"velocity":0.7874015748031497},{"duration":0.13636349999998743,"midi":72,"time":146.545308,"velocity":0.7874015748031497},{"duration":0.13636350000001585,"midi":70,"time":146.727126,"velocity":0.7874015748031497},{"duration":0.13636350000001585,"midi":82,"time":146.727126,"velocity":0.7874015748031497},{"duration":0.13636349999998743,"midi":81,"time":146.90894400000002,"velocity":0.7874015748031497},{"duration":0.13636349999998743,"midi":69,"time":146.90894400000002,"velocity":0.7874015748031497},{"duration":0.13636349999998743,"midi":70,"time":147.090762,"velocity":0.7874015748031497},{"duration":0.13636349999998743,"midi":82,"time":147.090762,"velocity":0.7874015748031497},{"duration":0.13636349999998743,"midi":72,"time":147.27258,"velocity":0.7874015748031497},{"duration":0.13636349999998743,"midi":84,"time":147.27258,"velocity":0.7874015748031497},{"duration":0.13636350000001585,"midi":70,"time":147.454398,"velocity":0.7874015748031497},{"duration":0.13636350000001585,"midi":82,"time":147.454398,"velocity":0.7874015748031497},{"duration":0.13636349999998743,"midi":81,"time":147.63621600000002,"velocity":0.7874015748031497},{"duration":0.13636349999998743,"midi":69,"time":147.63621600000002,"velocity":0.7874015748031497},{"duration":0.13636349999998743,"midi":70,"time":147.818034,"velocity":0.7874015748031497},{"duration":0.13636349999998743,"midi":82,"time":147.818034,"velocity":0.7874015748031497},{"duration":0.13636350000001585,"midi":72,"time":147.999852,"velocity":0.7874015748031497},{"duration":0.13636350000001585,"midi":84,"time":147.999852,"velocity":0.7874015748031497},{"duration":0.13636350000001585,"midi":82,"time":148.18167,"velocity":0.7874015748031497},{"duration":0.13636350000001585,"midi":70,"time":148.18167,"velocity":0.7874015748031497},{"duration":0.13636349999998743,"midi":65,"time":148.36348800000002,"velocity":0.7874015748031497},{"duration":0.13636349999998743,"midi":77,"time":148.36348800000002,"velocity":0.7874015748031497},{"duration":0.13636349999998743,"midi":69,"time":148.545306,"velocity":0.7874015748031497},{"duration":0.13636349999998743,"midi":81,"time":148.545306,"velocity":0.7874015748031497},{"duration":0.13636350000001585,"midi":84,"time":148.727124,"velocity":0.7874015748031497},{"duration":0.13636350000001585,"midi":72,"time":148.727124,"velocity":0.7874015748031497},{"duration":0.13636350000001585,"midi":81,"time":148.908942,"velocity":0.7874015748031497},{"duration":0.13636350000001585,"midi":69,"time":148.908942,"velocity":0.7874015748031497},{"duration":0.13636349999998743,"midi":77,"time":149.09076000000002,"velocity":0.7874015748031497},{"duration":0.13636349999998743,"midi":65,"time":149.09076000000002,"velocity":0.7874015748031497},{"duration":0.13636349999998743,"midi":81,"time":149.272578,"velocity":0.7874015748031497},{"duration":0.13636349999998743,"midi":69,"time":149.272578,"velocity":0.7874015748031497},{"duration":0.13636350000001585,"midi":72,"time":149.454396,"velocity":0.7874015748031497},{"duration":0.13636350000001585,"midi":84,"time":149.454396,"velocity":0.7874015748031497},{"duration":0.13636350000001585,"midi":81,"time":149.636214,"velocity":0.7874015748031497},{"duration":0.13636350000001585,"midi":69,"time":149.636214,"velocity":0.7874015748031497},{"duration":0.13636349999998743,"midi":79,"time":149.81803200000002,"velocity":0.7874015748031497},{"duration":0.13636349999998743,"midi":67,"time":149.81803200000002,"velocity":0.7874015748031497},{"duration":0.13636349999998743,"midi":82,"time":149.99985,"velocity":0.7874015748031497},{"duration":0.13636349999998743,"midi":70,"time":149.99985,"velocity":0.7874015748031497},{"duration":0.13636350000001585,"midi":74,"time":150.181668,"velocity":0.7874015748031497},{"duration":0.13636350000001585,"midi":86,"time":150.181668,"velocity":0.7874015748031497},{"duration":0.13636350000001585,"midi":82,"time":150.363486,"velocity":0.7874015748031497},{"duration":0.13636350000001585,"midi":70,"time":150.363486,"velocity":0.7874015748031497},{"duration":0.13636349999998743,"midi":67,"time":150.54530400000002,"velocity":0.7874015748031497},{"duration":0.13636349999998743,"midi":79,"time":150.54530400000002,"velocity":0.7874015748031497},{"duration":0.13636349999998743,"midi":70,"time":150.727122,"velocity":0.7874015748031497},{"duration":0.13636349999998743,"midi":82,"time":150.727122,"velocity":0.7874015748031497},{"duration":0.13636350000001585,"midi":74,"time":150.90894,"velocity":0.7874015748031497},{"duration":0.13636350000001585,"midi":86,"time":150.90894,"velocity":0.7874015748031497},{"duration":0.13636350000001585,"midi":70,"time":151.090758,"velocity":0.7874015748031497},{"duration":0.13636350000001585,"midi":82,"time":151.090758,"velocity":0.7874015748031497},{"duration":0.2727270000000033,"midi":86,"time":151.27257600000002,"velocity":0.7874015748031497},{"duration":0.2727270000000033,"midi":82,"time":151.27257600000002,"velocity":0.7874015748031497},{"duration":0.227272499999998,"midi":86,"time":151.636212,"velocity":0.7874015748031497},{"duration":0.227272499999998,"midi":89,"time":151.636212,"velocity":0.7874015748031497},{"duration":0.02272725000000264,"midi":81,"time":151.908939,"velocity":0.7874015748031497},{"duration":0.02272725000000264,"midi":85,"time":151.908939,"velocity":0.7874015748031497},{"duration":0.02272725000000264,"midi":86,"time":151.9543935,"velocity":0.7874015748031497},{"duration":0.02272725000000264,"midi":82,"time":151.9543935,"velocity":0.7874015748031497},{"duration":0.13636349999998743,"midi":84,"time":151.99984800000001,"velocity":0.7874015748031497},{"duration":0.13636349999998743,"midi":81,"time":151.99984800000001,"velocity":0.7874015748031497},{"duration":0.2727270000000033,"midi":79,"time":152.181666,"velocity":0.7874015748031497},{"duration":0.2727270000000033,"midi":82,"time":152.181666,"velocity":0.7874015748031497},{"duration":0.13636350000001585,"midi":79,"time":152.545302,"velocity":0.7874015748031497},{"duration":0.2727270000000033,"midi":82,"time":152.72712,"velocity":0.7874015748031497},{"duration":0.2727270000000033,"midi":86,"time":152.72712,"velocity":0.7874015748031497},{"duration":0.2727270000000033,"midi":86,"time":153.090756,"velocity":0.7874015748031497},{"duration":0.2727270000000033,"midi":89,"time":153.090756,"velocity":0.7874015748031497},{"duration":0.2727270000000033,"midi":82,"time":153.454392,"velocity":0.7874015748031497},{"duration":0.2727270000000033,"midi":86,"time":153.454392,"velocity":0.7874015748031497},{"duration":0.2727270000000033,"midi":86,"time":153.818028,"velocity":0.7874015748031497},{"duration":0.2727270000000033,"midi":89,"time":153.818028,"velocity":0.7874015748031497},{"duration":0.2727270000000033,"midi":81,"time":154.181664,"velocity":0.7874015748031497},{"duration":0.2727270000000033,"midi":84,"time":154.181664,"velocity":0.7874015748031497},{"duration":0.227272499999998,"midi":81,"time":154.5453,"velocity":0.7874015748031497},{"duration":0.02272725000000264,"midi":81,"time":154.818027,"velocity":0.7874015748031497},{"duration":0.02272725000000264,"midi":85,"time":154.818027,"velocity":0.7874015748031497},{"duration":0.02272725000000264,"midi":86,"time":154.8634815,"velocity":0.7874015748031497},{"duration":0.02272725000000264,"midi":82,"time":154.8634815,"velocity":0.7874015748031497},{"duration":0.13636349999998743,"midi":81,"time":154.908936,"velocity":0.7874015748031497},{"duration":0.13636349999998743,"midi":84,"time":154.908936,"velocity":0.7874015748031497},{"duration":0.13636350000001585,"midi":79,"time":155.090754,"velocity":0.7874015748031497},{"duration":0.13636350000001585,"midi":79,"time":155.272572,"velocity":0.7874015748031497},{"duration":0.13636349999998743,"midi":79,"time":155.45439000000002,"velocity":0.7874015748031497},{"duration":0.2727270000000033,"midi":82,"time":155.636208,"velocity":0.7874015748031497},{"duration":0.2727270000000033,"midi":85,"time":155.636208,"velocity":0.7874015748031497},{"duration":0.2727270000000033,"midi":84,"time":155.999844,"velocity":0.7874015748031497},{"duration":0.2727270000000033,"midi":81,"time":155.999844,"velocity":0.7874015748031497},{"duration":0.2727270000000033,"midi":82,"time":156.36348,"velocity":0.7874015748031497},{"duration":0.2727270000000033,"midi":85,"time":156.36348,"velocity":0.7874015748031497},{"duration":0.13636350000001585,"midi":81,"time":156.727116,"velocity":0.7874015748031497},{"duration":0.13636350000001585,"midi":84,"time":156.727116,"velocity":0.7874015748031497},{"duration":0.13636349999998743,"midi":79,"time":156.90893400000002,"velocity":0.7874015748031497},{"duration":0.13636349999998743,"midi":82,"time":156.90893400000002,"velocity":0.7874015748031497},{"duration":0.2727270000000033,"midi":86,"time":157.090752,"velocity":0.7874015748031497},{"duration":0.2727270000000033,"midi":82,"time":157.090752,"velocity":0.7874015748031497},{"duration":0.227272499999998,"midi":86,"time":157.454388,"velocity":0.7874015748031497},{"duration":0.227272499999998,"midi":89,"time":157.454388,"velocity":0.7874015748031497},{"duration":0.02272725000000264,"midi":81,"time":157.727115,"velocity":0.7874015748031497},{"duration":0.02272725000000264,"midi":85,"time":157.727115,"velocity":0.7874015748031497},{"duration":0.02272725000000264,"midi":86,"time":157.7725695,"velocity":0.7874015748031497},{"duration":0.02272725000000264,"midi":82,"time":157.7725695,"velocity":0.7874015748031497},{"duration":0.13636349999998743,"midi":81,"time":157.818024,"velocity":0.7874015748031497},{"duration":0.13636349999998743,"midi":84,"time":157.818024,"velocity":0.7874015748031497},{"duration":0.2727270000000033,"midi":79,"time":157.999842,"velocity":0.7874015748031497},{"duration":0.2727270000000033,"midi":82,"time":157.999842,"velocity":0.7874015748031497},{"duration":0.13636349999998743,"midi":79,"time":158.36347800000001,"velocity":0.7874015748031497},{"duration":0.2727270000000033,"midi":82,"time":158.545296,"velocity":0.7874015748031497},{"duration":0.2727270000000033,"midi":86,"time":158.545296,"velocity":0.7874015748031497},{"duration":0.2727270000000033,"midi":89,"time":158.908932,"velocity":0.7874015748031497},{"duration":0.2727270000000033,"midi":86,"time":158.908932,"velocity":0.7874015748031497},{"duration":0.2727270000000033,"midi":82,"time":159.272568,"velocity":0.7874015748031497},{"duration":0.2727270000000033,"midi":86,"time":159.272568,"velocity":0.7874015748031497},{"duration":0.27272699999997485,"midi":86,"time":159.63620400000002,"velocity":0.7874015748031497},{"duration":0.27272699999997485,"midi":89,"time":159.63620400000002,"velocity":0.7874015748031497},{"duration":0.2727270000000033,"midi":81,"time":159.99984,"velocity":0.7874015748031497},{"duration":0.2727270000000033,"midi":84,"time":159.99984,"velocity":0.7874015748031497},{"duration":0.227272499999998,"midi":81,"time":160.36347600000002,"velocity":0.7874015748031497},{"duration":0.227272499999998,"midi":84,"time":160.36347600000002,"velocity":0.7874015748031497},{"duration":0.02272725000000264,"midi":85,"time":160.636203,"velocity":0.7874015748031497},{"duration":0.02272725000000264,"midi":81,"time":160.636203,"velocity":0.7874015748031497},{"duration":0.02272725000000264,"midi":86,"time":160.6816575,"velocity":0.7874015748031497},{"duration":0.02272725000000264,"midi":82,"time":160.6816575,"velocity":0.7874015748031497},{"duration":0.13636349999998743,"midi":84,"time":160.727112,"velocity":0.7874015748031497},{"duration":0.13636349999998743,"midi":81,"time":160.727112,"velocity":0.7874015748031497},{"duration":0.13636350000001585,"midi":79,"time":160.90893,"velocity":0.7874015748031497},{"duration":0.13636350000001585,"midi":82,"time":160.90893,"velocity":0.7874015748031497},{"duration":0.13636349999998743,"midi":79,"time":161.09074800000002,"velocity":0.7874015748031497},{"duration":0.13636349999998743,"midi":82,"time":161.09074800000002,"velocity":0.7874015748031497},{"duration":0.13636349999998743,"midi":79,"time":161.272566,"velocity":0.7874015748031497},{"duration":0.2727270000000033,"midi":85,"time":161.454384,"velocity":0.7874015748031497},{"duration":0.2727270000000033,"midi":82,"time":161.454384,"velocity":0.7874015748031497},{"duration":0.27272699999997485,"midi":81,"time":161.81802000000002,"velocity":0.7874015748031497},{"duration":0.27272699999997485,"midi":84,"time":161.81802000000002,"velocity":0.7874015748031497},{"duration":0.2727270000000033,"midi":85,"time":162.181656,"velocity":0.7874015748031497},{"duration":0.2727270000000033,"midi":82,"time":162.181656,"velocity":0.7874015748031497},{"duration":0.13636349999998743,"midi":81,"time":162.54529200000002,"velocity":0.7874015748031497},{"duration":0.13636349999998743,"midi":84,"time":162.54529200000002,"velocity":0.7874015748031497},{"duration":0.13636349999998743,"midi":82,"time":162.72711,"velocity":0.7874015748031497},{"duration":0.13636349999998743,"midi":79,"time":162.72711,"velocity":0.7874015748031497},{"duration":0.2727270000000033,"midi":86,"time":162.908928,"velocity":0.7874015748031497},{"duration":0.2727270000000033,"midi":82,"time":162.908928,"velocity":0.7874015748031497},{"duration":0.227272499999998,"midi":86,"time":163.27256400000002,"velocity":0.7874015748031497},{"duration":0.227272499999998,"midi":89,"time":163.27256400000002,"velocity":0.7874015748031497},{"duration":0.02272724999997422,"midi":81,"time":163.54529100000002,"velocity":0.7874015748031497},{"duration":0.02272724999997422,"midi":85,"time":163.54529100000002,"velocity":0.7874015748031497},{"duration":0.02272725000000264,"midi":82,"time":163.5907455,"velocity":0.7874015748031497},{"duration":0.02272725000000264,"midi":86,"time":163.5907455,"velocity":0.7874015748031497},{"duration":0.13636350000001585,"midi":81,"time":163.6362,"velocity":0.7874015748031497},{"duration":0.13636350000001585,"midi":84,"time":163.6362,"velocity":0.7874015748031497},{"duration":0.2727270000000033,"midi":82,"time":163.818018,"velocity":0.7874015748031497},{"duration":0.2727270000000033,"midi":79,"time":163.818018,"velocity":0.7874015748031497},{"duration":0.13636349999998743,"midi":79,"time":164.181654,"velocity":0.7874015748031497},{"duration":0.2727270000000033,"midi":86,"time":164.363472,"velocity":0.7874015748031497},{"duration":0.2727270000000033,"midi":82,"time":164.363472,"velocity":0.7874015748031497},{"duration":0.2727270000000033,"midi":86,"time":164.72710800000002,"velocity":0.7874015748031497},{"duration":0.2727270000000033,"midi":89,"time":164.72710800000002,"velocity":0.7874015748031497},{"duration":0.2727270000000033,"midi":82,"time":165.090744,"velocity":0.7874015748031497},{"duration":0.2727270000000033,"midi":86,"time":165.090744,"velocity":0.7874015748031497},{"duration":0.2727270000000033,"midi":86,"time":165.45438000000001,"velocity":0.7874015748031497},{"duration":0.2727270000000033,"midi":89,"time":165.45438000000001,"velocity":0.7874015748031497},{"duration":0.2727270000000033,"midi":81,"time":165.818016,"velocity":0.7874015748031497},{"duration":0.2727270000000033,"midi":84,"time":165.818016,"velocity":0.7874015748031497},{"duration":0.227272499999998,"midi":81,"time":166.181652,"velocity":0.7874015748031497},{"duration":0.02272725000000264,"midi":81,"time":166.45437900000002,"velocity":0.7874015748031497},{"duration":0.02272725000000264,"midi":85,"time":166.45437900000002,"velocity":0.7874015748031497},{"duration":0.02272725000000264,"midi":82,"time":166.4998335,"velocity":0.7874015748031497},{"duration":0.02272725000000264,"midi":86,"time":166.4998335,"velocity":0.7874015748031497},{"duration":0.13636350000001585,"midi":84,"time":166.545288,"velocity":0.7874015748031497},{"duration":0.13636350000001585,"midi":81,"time":166.545288,"velocity":0.7874015748031497},{"duration":0.13636349999998743,"midi":79,"time":166.72710600000002,"velocity":0.7874015748031497},{"duration":0.13636349999998743,"midi":79,"time":166.908924,"velocity":0.7874015748031497},{"duration":0.13636349999998743,"midi":79,"time":167.090742,"velocity":0.7874015748031497},{"duration":0.2727270000000033,"midi":85,"time":167.27256,"velocity":0.7874015748031497},{"duration":0.2727270000000033,"midi":82,"time":167.27256,"velocity":0.7874015748031497},{"duration":0.2727270000000033,"midi":84,"time":167.636196,"velocity":0.7874015748031497},{"duration":0.2727270000000033,"midi":81,"time":167.636196,"velocity":0.7874015748031497},{"duration":0.2727270000000033,"midi":82,"time":167.999832,"velocity":0.7874015748031497},{"duration":0.2727270000000033,"midi":85,"time":167.999832,"velocity":0.7874015748031497},{"duration":0.13636349999998743,"midi":84,"time":168.363468,"velocity":0.7874015748031497},{"duration":0.13636349999998743,"midi":81,"time":168.363468,"velocity":0.7874015748031497},{"duration":0.13636350000001585,"midi":82,"time":168.545286,"velocity":0.7874015748031497},{"duration":0.13636350000001585,"midi":79,"time":168.545286,"velocity":0.7874015748031497},{"duration":0.2727270000000033,"midi":86,"time":168.727104,"velocity":0.7874015748031497},{"duration":0.2727270000000033,"midi":82,"time":168.727104,"velocity":0.7874015748031497},{"duration":0.227272499999998,"midi":86,"time":169.09074,"velocity":0.7874015748031497},{"duration":0.227272499999998,"midi":89,"time":169.09074,"velocity":0.7874015748031497},{"duration":0.02272725000000264,"midi":85,"time":169.363467,"velocity":0.7874015748031497},{"duration":0.02272725000000264,"midi":81,"time":169.363467,"velocity":0.7874015748031497},{"duration":0.02272724999997422,"midi":82,"time":169.40892150000002,"velocity":0.7874015748031497},{"duration":0.02272724999997422,"midi":86,"time":169.40892150000002,"velocity":0.7874015748031497},{"duration":0.13636350000001585,"midi":84,"time":169.454376,"velocity":0.7874015748031497},{"duration":0.13636350000001585,"midi":81,"time":169.454376,"velocity":0.7874015748031497},{"duration":0.2727270000000033,"midi":82,"time":169.63619400000002,"velocity":0.7874015748031497},{"duration":0.2727270000000033,"midi":79,"time":169.63619400000002,"velocity":0.7874015748031497},{"duration":0.13636350000001585,"midi":79,"time":169.99983,"velocity":0.7874015748031497},{"duration":0.2727270000000033,"midi":82,"time":170.181648,"velocity":0.7874015748031497},{"duration":0.2727270000000033,"midi":86,"time":170.181648,"velocity":0.7874015748031497},{"duration":0.2727270000000033,"midi":89,"time":170.545284,"velocity":0.7874015748031497},{"duration":0.2727270000000033,"midi":86,"time":170.545284,"velocity":0.7874015748031497},{"duration":0.2727270000000033,"midi":82,"time":170.90892,"velocity":0.7874015748031497},{"duration":0.2727270000000033,"midi":86,"time":170.90892,"velocity":0.7874015748031497},{"duration":0.2727270000000033,"midi":89,"time":171.272556,"velocity":0.7874015748031497},{"duration":0.2727270000000033,"midi":86,"time":171.272556,"velocity":0.7874015748031497},{"duration":0.2727270000000033,"midi":81,"time":171.636192,"velocity":0.7874015748031497},{"duration":0.2727270000000033,"midi":84,"time":171.636192,"velocity":0.7874015748031497},{"duration":0.227272499999998,"midi":81,"time":171.999828,"velocity":0.7874015748031497},{"duration":0.227272499999998,"midi":84,"time":171.999828,"velocity":0.7874015748031497},{"duration":0.02272725000000264,"midi":85,"time":172.272555,"velocity":0.7874015748031497},{"duration":0.02272725000000264,"midi":81,"time":172.272555,"velocity":0.7874015748031497},{"duration":0.02272725000000264,"midi":86,"time":172.31800950000002,"velocity":0.7874015748031497},{"duration":0.02272725000000264,"midi":82,"time":172.31800950000002,"velocity":0.7874015748031497},{"duration":0.13636350000001585,"midi":84,"time":172.363464,"velocity":0.7874015748031497},{"duration":0.13636350000001585,"midi":81,"time":172.363464,"velocity":0.7874015748031497},{"duration":0.13636349999998743,"midi":79,"time":172.54528200000001,"velocity":0.7874015748031497},{"duration":0.13636349999998743,"midi":82,"time":172.54528200000001,"velocity":0.7874015748031497},{"duration":0.13636349999998743,"midi":79,"time":172.7271,"velocity":0.7874015748031497},{"duration":0.13636349999998743,"midi":82,"time":172.7271,"velocity":0.7874015748031497},{"duration":0.13636350000001585,"midi":79,"time":172.908918,"velocity":0.7874015748031497},{"duration":0.27272699999997485,"midi":85,"time":173.09073600000002,"velocity":0.7874015748031497},{"duration":0.27272699999997485,"midi":82,"time":173.09073600000002,"velocity":0.7874015748031497},{"duration":0.2727270000000033,"midi":84,"time":173.454372,"velocity":0.7874015748031497},{"duration":0.2727270000000033,"midi":81,"time":173.454372,"velocity":0.7874015748031497},{"duration":0.27272699999997485,"midi":82,"time":173.81800800000002,"velocity":0.7874015748031497},{"duration":0.27272699999997485,"midi":85,"time":173.81800800000002,"velocity":0.7874015748031497},{"duration":0.13636349999998743,"midi":84,"time":174.181644,"velocity":0.7874015748031497},{"duration":0.13636349999998743,"midi":81,"time":174.181644,"velocity":0.7874015748031497},{"duration":0.13636350000001585,"midi":79,"time":174.363462,"velocity":0.7874015748031497},{"duration":0.13636350000001585,"midi":82,"time":174.363462,"velocity":0.7874015748031497},{"duration":0.1818179999999927,"midi":70,"time":232.72704000000002,"velocity":0.7874015748031497},{"duration":0.1818179999999927,"midi":67,"time":232.908858,"velocity":0.7874015748031497},{"duration":0.1818179999999927,"midi":70,"time":233.45431200000002,"velocity":0.7874015748031497},{"duration":0.1818179999999927,"midi":67,"time":233.63613,"velocity":0.7874015748031497},{"duration":0.36363600000001384,"midi":69,"time":233.817948,"velocity":0.7874015748031497},{"duration":0.1818179999999927,"midi":70,"time":234.18158400000002,"velocity":0.7874015748031497},{"duration":0.1818179999999927,"midi":67,"time":234.363402,"velocity":0.7874015748031497},{"duration":0.1818179999999927,"midi":70,"time":234.90885600000001,"velocity":0.7874015748031497},{"duration":0.1818179999999927,"midi":67,"time":235.090674,"velocity":0.7874015748031497},{"duration":0.36363600000001384,"midi":69,"time":235.272492,"velocity":0.7874015748031497},{"duration":0.1818179999999927,"midi":70,"time":235.636128,"velocity":0.7874015748031497},{"duration":0.1818179999999927,"midi":67,"time":235.817946,"velocity":0.7874015748031497},{"duration":0.1818179999999927,"midi":70,"time":236.3634,"velocity":0.7874015748031497},{"duration":0.1818179999999927,"midi":67,"time":236.545218,"velocity":0.7874015748031497},{"duration":0.36363600000001384,"midi":69,"time":236.727036,"velocity":0.7874015748031497},{"duration":0.1818179999999927,"midi":70,"time":237.090672,"velocity":0.7874015748031497},{"duration":0.1818179999999927,"midi":67,"time":237.27249,"velocity":0.7874015748031497},{"duration":0.1818179999999927,"midi":70,"time":237.817944,"velocity":0.7874015748031497},{"duration":0.1818179999999927,"midi":67,"time":237.999762,"velocity":0.7874015748031497},{"duration":0.36363600000001384,"midi":69,"time":238.18158,"velocity":0.7874015748031497},{"duration":0.1818179999999927,"midi":70,"time":238.545216,"velocity":0.7874015748031497},{"duration":0.1818179999999927,"midi":67,"time":238.727034,"velocity":0.7874015748031497},{"duration":0.1818179999999927,"midi":70,"time":239.272488,"velocity":0.7874015748031497},{"duration":0.18181800000002113,"midi":67,"time":239.454306,"velocity":0.7874015748031497},{"duration":0.3636359999999854,"midi":69,"time":239.63612400000002,"velocity":0.7874015748031497},{"duration":0.1818179999999927,"midi":70,"time":239.99976,"velocity":0.7874015748031497},{"duration":0.18181800000002113,"midi":67,"time":240.181578,"velocity":0.7874015748031497},{"duration":0.1818179999999927,"midi":70,"time":240.727032,"velocity":0.7874015748031497},{"duration":0.18181800000002113,"midi":67,"time":240.90885,"velocity":0.7874015748031497},{"duration":0.3636359999999854,"midi":69,"time":241.09066800000002,"velocity":0.7874015748031497},{"duration":0.1818179999999927,"midi":70,"time":241.454304,"velocity":0.7874015748031497},{"duration":0.18181800000002113,"midi":67,"time":241.636122,"velocity":0.7874015748031497},{"duration":0.1818179999999927,"midi":70,"time":242.181576,"velocity":0.7874015748031497},{"duration":0.18181800000002113,"midi":67,"time":242.363394,"velocity":0.7874015748031497},{"duration":0.3636359999999854,"midi":69,"time":242.54521200000002,"velocity":0.7874015748031497},{"duration":0.1818179999999927,"midi":70,"time":242.908848,"velocity":0.7874015748031497},{"duration":0.18181800000002113,"midi":67,"time":243.090666,"velocity":0.7874015748031497},{"duration":0.1818179999999927,"midi":70,"time":243.63612,"velocity":0.7874015748031497},{"duration":0.1818179999999927,"midi":70,"time":243.63612,"velocity":0.7874015748031497},{"duration":0.18181800000002113,"midi":67,"time":243.817938,"velocity":0.7874015748031497},{"duration":0.18181800000002113,"midi":67,"time":243.817938,"velocity":0.7874015748031497},{"duration":0.18181800000002113,"midi":67,"time":243.817938,"velocity":0.7874015748031497},{"duration":0.3636359999999854,"midi":69,"time":243.99975600000002,"velocity":0.7874015748031497},{"duration":0.3636359999999854,"midi":69,"time":243.99975600000002,"velocity":0.7874015748031497},{"duration":0.3636359999999854,"midi":69,"time":243.99975600000002,"velocity":0.7874015748031497},{"duration":0.3636359999999854,"midi":69,"time":243.99975600000002,"velocity":0.7874015748031497},{"duration":0.36363600000001384,"midi":74,"time":244.363392,"velocity":0.7874015748031497},{"duration":0.2727270000000033,"midi":77,"time":244.72702800000002,"velocity":0.7874015748031497},{"duration":0.04545449999997686,"midi":73,"time":244.99975500000002,"velocity":0.7874015748031497},{"duration":0.04545450000000528,"midi":74,"time":245.0452095,"velocity":0.7874015748031497},{"duration":0.1818179999999927,"midi":72,"time":245.090664,"velocity":0.7874015748031497},{"duration":0.36363600000001384,"midi":70,"time":245.272482,"velocity":0.7874015748031497},{"duration":0.1818179999999927,"midi":67,"time":245.636118,"velocity":0.7874015748031497},{"duration":0.36363600000001384,"midi":74,"time":245.817936,"velocity":0.7874015748031497},{"duration":0.3636359999999854,"midi":77,"time":246.18157200000002,"velocity":0.7874015748031497},{"duration":0.36363600000001384,"midi":74,"time":246.545208,"velocity":0.7874015748031497},{"duration":0.3636359999999854,"midi":77,"time":246.90884400000002,"velocity":0.7874015748031497},{"duration":0.36363600000001384,"midi":72,"time":247.27248,"velocity":0.7874015748031497},{"duration":0.2727270000000033,"midi":72,"time":247.63611600000002,"velocity":0.7874015748031497},{"duration":0.04545450000000528,"midi":73,"time":247.90884300000002,"velocity":0.7874015748031497},{"duration":0.04545449999997686,"midi":74,"time":247.95429750000002,"velocity":0.7874015748031497},{"duration":0.18181800000002113,"midi":72,"time":247.999752,"velocity":0.7874015748031497},{"duration":0.3636359999999854,"midi":70,"time":248.18157000000002,"velocity":0.7874015748031497},{"duration":0.1818179999999927,"midi":67,"time":248.545206,"velocity":0.7874015748031497},{"duration":0.36363600000001384,"midi":73,"time":248.727024,"velocity":0.7874015748031497},{"duration":0.3636359999999854,"midi":72,"time":249.09066,"velocity":0.7874015748031497},{"duration":0.36363600000001384,"midi":73,"time":249.454296,"velocity":0.7874015748031497},{"duration":0.1818179999999927,"midi":72,"time":249.817932,"velocity":0.7874015748031497},{"duration":0.1818179999999927,"midi":70,"time":249.99975,"velocity":0.7874015748031497},{"duration":0.36363600000001384,"midi":74,"time":250.181568,"velocity":0.7874015748031497},{"duration":0.2727270000000033,"midi":77,"time":250.545204,"velocity":0.7874015748031497},{"duration":0.04545450000000528,"midi":73,"time":250.81793100000002,"velocity":0.7874015748031497},{"duration":0.04545449999997686,"midi":74,"time":250.86338550000002,"velocity":0.7874015748031497},{"duration":0.18181800000002113,"midi":72,"time":250.90884,"velocity":0.7874015748031497},{"duration":0.3636359999999854,"midi":70,"time":251.09065800000002,"velocity":0.7874015748031497},{"duration":0.1818179999999927,"midi":67,"time":251.454294,"velocity":0.7874015748031497},{"duration":0.36363600000001384,"midi":74,"time":251.636112,"velocity":0.7874015748031497},{"duration":0.3636359999999854,"midi":77,"time":251.999748,"velocity":0.7874015748031497},{"duration":0.36363600000001384,"midi":74,"time":252.363384,"velocity":0.7874015748031497},{"duration":0.36363600000001384,"midi":77,"time":252.72702,"velocity":0.7874015748031497},{"duration":0.3636359999999854,"midi":72,"time":253.09065600000002,"velocity":0.7874015748031497},{"duration":0.2727270000000033,"midi":72,"time":253.454292,"velocity":0.7874015748031497},{"duration":0.04545450000000528,"midi":73,"time":253.727019,"velocity":0.7874015748031497},{"duration":0.04545450000000528,"midi":74,"time":253.77247350000002,"velocity":0.7874015748031497},{"duration":0.1818179999999927,"midi":72,"time":253.81792800000002,"velocity":0.7874015748031497},{"duration":0.3636359999999854,"midi":70,"time":253.99974600000002,"velocity":0.7874015748031497},{"duration":0.18181800000002113,"midi":67,"time":254.363382,"velocity":0.7874015748031497},{"duration":0.3636359999999854,"midi":73,"time":254.54520000000002,"velocity":0.7874015748031497},{"duration":0.36363600000001384,"midi":72,"time":254.908836,"velocity":0.7874015748031497},{"duration":0.3636359999999854,"midi":73,"time":255.27247200000002,"velocity":0.7874015748031497},{"duration":0.1818179999999927,"midi":72,"time":255.636108,"velocity":0.7874015748031497},{"duration":0.18181800000002113,"midi":70,"time":255.817926,"velocity":0.7874015748031497},{"duration":0.3636359999999854,"midi":74,"time":255.99974400000002,"velocity":0.7874015748031497},{"duration":0.2727270000000317,"midi":77,"time":256.36338,"velocity":0.7874015748031497},{"duration":0.04545449999994844,"midi":73,"time":256.63610700000004,"velocity":0.7874015748031497},{"duration":0.04545450000000528,"midi":74,"time":256.6815615,"velocity":0.7874015748031497},{"duration":0.18181800000002113,"midi":72,"time":256.727016,"velocity":0.7874015748031497},{"duration":0.3636359999999854,"midi":70,"time":256.908834,"velocity":0.7874015748031497},{"duration":0.18181800000002113,"midi":67,"time":257.27247,"velocity":0.7874015748031497},{"duration":0.3636359999999854,"midi":74,"time":257.454288,"velocity":0.7874015748031497},{"duration":0.3636359999999854,"midi":77,"time":257.817924,"velocity":0.7874015748031497},{"duration":0.36363600000004226,"midi":74,"time":258.18156,"velocity":0.7874015748031497},{"duration":0.3636359999999854,"midi":77,"time":258.54519600000003,"velocity":0.7874015748031497},{"duration":0.3636359999999854,"midi":72,"time":258.908832,"velocity":0.7874015748031497},{"duration":0.2727270000000317,"midi":72,"time":259.272468,"velocity":0.7874015748031497},{"duration":0.04545449999994844,"midi":73,"time":259.54519500000004,"velocity":0.7874015748031497},{"duration":0.04545450000000528,"midi":74,"time":259.5906495,"velocity":0.7874015748031497},{"duration":0.18181800000002113,"midi":72,"time":259.636104,"velocity":0.7874015748031497},{"duration":0.3636359999999854,"midi":70,"time":259.817922,"velocity":0.7874015748031497},{"duration":0.18181800000002113,"midi":67,"time":260.181558,"velocity":0.7874015748031497},{"duration":0.3636359999999854,"midi":73,"time":260.363376,"velocity":0.7874015748031497},{"duration":0.3636359999999854,"midi":72,"time":260.727012,"velocity":0.7874015748031497},{"duration":0.36363600000004226,"midi":73,"time":261.090648,"velocity":0.7874015748031497},{"duration":0.18181799999996429,"midi":72,"time":261.45428400000003,"velocity":0.7874015748031497},{"duration":0.18181800000002113,"midi":70,"time":261.636102,"velocity":0.7874015748031497},{"duration":0.3636359999999854,"midi":74,"time":261.81792,"velocity":0.7874015748031497},{"duration":0.2727270000000317,"midi":77,"time":262.181556,"velocity":0.7874015748031497},{"duration":0.04545450000000528,"midi":73,"time":262.45428300000003,"velocity":0.7874015748031497},{"duration":0.04545449999994844,"midi":74,"time":262.49973750000004,"velocity":0.7874015748031497},{"duration":0.18181800000002113,"midi":72,"time":262.545192,"velocity":0.7874015748031497},{"duration":0.3636359999999854,"midi":70,"time":262.72701,"velocity":0.7874015748031497},{"duration":0.3636359999999854,"midi":74,"time":263.272464,"velocity":0.7874015748031497},{"duration":0.3636359999999854,"midi":77,"time":263.6361,"velocity":0.7874015748031497},{"duration":0.36363600000004226,"midi":74,"time":263.999736,"velocity":0.7874015748031497},{"duration":0.3636359999999854,"midi":77,"time":264.363372,"velocity":0.7874015748031497},{"duration":0.3636359999999854,"midi":72,"time":264.727008,"velocity":0.7874015748031497},{"duration":0.2727270000000317,"midi":72,"time":265.090644,"velocity":0.7874015748031497},{"duration":0.04545450000000528,"midi":73,"time":265.36337100000003,"velocity":0.7874015748031497},{"duration":0.04545449999994844,"midi":74,"time":265.40882550000003,"velocity":0.7874015748031497},{"duration":0.18181800000002113,"midi":72,"time":265.45428,"velocity":0.7874015748031497},{"duration":0.3636359999999854,"midi":70,"time":265.636098,"velocity":0.7874015748031497},{"duration":0.3636359999999854,"midi":73,"time":266.181552,"velocity":0.7874015748031497},{"duration":0.36363600000004226,"midi":72,"time":266.545188,"velocity":0.7874015748031497},{"duration":0.3636359999999854,"midi":73,"time":266.90882400000004,"velocity":0.7874015748031497},{"duration":0.18181799999996429,"midi":72,"time":267.27246,"velocity":0.7874015748031497},{"duration":0.18181800000002113,"midi":70,"time":267.454278,"velocity":0.7874015748031497},{"duration":0.13636350000001585,"midi":69,"time":267.636096,"velocity":0.7874015748031497},{"duration":0.136363499999959,"midi":70,"time":267.81791400000003,"velocity":0.7874015748031497},{"duration":0.13636350000001585,"midi":74,"time":267.999732,"velocity":0.7874015748031497},{"duration":0.13636350000001585,"midi":70,"time":268.18155,"velocity":0.7874015748031497},{"duration":0.136363499999959,"midi":69,"time":268.36336800000004,"velocity":0.7874015748031497},{"duration":0.13636350000001585,"midi":70,"time":268.545186,"velocity":0.7874015748031497},{"duration":0.13636350000001585,"midi":74,"time":268.727004,"velocity":0.7874015748031497},{"duration":0.13636350000001585,"midi":70,"time":268.908822,"velocity":0.7874015748031497},{"duration":0.13636350000001585,"midi":69,"time":269.09064,"velocity":0.7874015748031497},{"duration":0.136363499999959,"midi":70,"time":269.27245800000003,"velocity":0.7874015748031497},{"duration":0.13636350000001585,"midi":74,"time":269.454276,"velocity":0.7874015748031497},{"duration":0.13636350000001585,"midi":70,"time":269.636094,"velocity":0.7874015748031497},{"duration":0.136363499999959,"midi":69,"time":269.81791200000004,"velocity":0.7874015748031497},{"duration":0.13636350000001585,"midi":70,"time":269.99973,"velocity":0.7874015748031497},{"duration":0.13636350000001585,"midi":74,"time":270.181548,"velocity":0.7874015748031497},{"duration":0.13636350000001585,"midi":70,"time":270.363366,"velocity":0.7874015748031497},{"duration":0.13636350000001585,"midi":65,"time":270.545184,"velocity":0.7874015748031497},{"duration":0.136363499999959,"midi":69,"time":270.727002,"velocity":0.7874015748031497},{"duration":0.13636350000001585,"midi":72,"time":270.90882,"velocity":0.7874015748031497},{"duration":0.13636350000001585,"midi":69,"time":271.090638,"velocity":0.7874015748031497},{"duration":0.136363499999959,"midi":65,"time":271.27245600000003,"velocity":0.7874015748031497},{"duration":0.13636350000001585,"midi":69,"time":271.454274,"velocity":0.7874015748031497},{"duration":0.13636350000001585,"midi":72,"time":271.636092,"velocity":0.7874015748031497},{"duration":0.13636350000001585,"midi":69,"time":271.81791,"velocity":0.7874015748031497},{"duration":0.13636350000001585,"midi":67,"time":271.999728,"velocity":0.7874015748031497},{"duration":0.136363499999959,"midi":70,"time":272.181546,"velocity":0.7874015748031497},{"duration":0.13636350000001585,"midi":74,"time":272.363364,"velocity":0.7874015748031497},{"duration":0.13636350000001585,"midi":70,"time":272.545182,"velocity":0.7874015748031497},{"duration":0.136363499999959,"midi":67,"time":272.72700000000003,"velocity":0.7874015748031497},{"duration":0.13636350000001585,"midi":70,"time":272.908818,"velocity":0.7874015748031497},{"duration":0.13636350000001585,"midi":74,"time":273.090636,"velocity":0.7874015748031497},{"duration":0.136363499999959,"midi":70,"time":273.27245400000004,"velocity":0.7874015748031497},{"duration":0.13636350000001585,"midi":69,"time":273.454272,"velocity":0.7874015748031497},{"duration":0.136363499999959,"midi":70,"time":273.63609,"velocity":0.7874015748031497},{"duration":0.13636350000001585,"midi":74,"time":273.817908,"velocity":0.7874015748031497},{"duration":0.13636350000001585,"midi":70,"time":273.999726,"velocity":0.7874015748031497},{"duration":0.136363499999959,"midi":69,"time":274.18154400000003,"velocity":0.7874015748031497},{"duration":0.13636350000001585,"midi":70,"time":274.363362,"velocity":0.7874015748031497},{"duration":0.13636350000001585,"midi":74,"time":274.54518,"velocity":0.7874015748031497},{"duration":0.136363499999959,"midi":70,"time":274.72699800000004,"velocity":0.7874015748031497},{"duration":0.13636350000001585,"midi":69,"time":274.908816,"velocity":0.7874015748031497},{"duration":0.13636350000001585,"midi":70,"time":275.090634,"velocity":0.7874015748031497},{"duration":0.13636350000001585,"midi":74,"time":275.272452,"velocity":0.7874015748031497},{"duration":0.13636350000001585,"midi":70,"time":275.45427,"velocity":0.7874015748031497},{"duration":0.136363499999959,"midi":69,"time":275.63608800000003,"velocity":0.7874015748031497},{"duration":0.13636350000001585,"midi":70,"time":275.817906,"velocity":0.7874015748031497},{"duration":0.13636350000001585,"midi":74,"time":275.999724,"velocity":0.7874015748031497},{"duration":0.136363499999959,"midi":70,"time":276.18154200000004,"velocity":0.7874015748031497},{"duration":0.13636350000001585,"midi":65,"time":276.36336,"velocity":0.7874015748031497},{"duration":0.13636350000001585,"midi":69,"time":276.545178,"velocity":0.7874015748031497},{"duration":0.13636350000001585,"midi":72,"time":276.726996,"velocity":0.7874015748031497},{"duration":0.13636350000001585,"midi":69,"time":276.908814,"velocity":0.7874015748031497},{"duration":0.136363499999959,"midi":65,"time":277.090632,"velocity":0.7874015748031497},{"duration":0.13636350000001585,"midi":69,"time":277.27245,"velocity":0.7874015748031497},{"duration":0.13636350000001585,"midi":72,"time":277.454268,"velocity":0.7874015748031497},{"duration":0.136363499999959,"midi":69,"time":277.63608600000003,"velocity":0.7874015748031497},{"duration":0.13636350000001585,"midi":67,"time":277.817904,"velocity":0.7874015748031497},{"duration":0.13636350000001585,"midi":70,"time":277.999722,"velocity":0.7874015748031497},{"duration":0.13636350000001585,"midi":74,"time":278.18154,"velocity":0.7874015748031497},{"duration":0.13636350000001585,"midi":70,"time":278.363358,"velocity":0.7874015748031497},{"duration":0.136363499999959,"midi":67,"time":278.545176,"velocity":0.7874015748031497},{"duration":0.13636350000001585,"midi":70,"time":278.726994,"velocity":0.7874015748031497},{"duration":0.13636350000001585,"midi":74,"time":278.908812,"velocity":0.7874015748031497},{"duration":0.136363499999959,"midi":70,"time":279.09063000000003,"velocity":0.7874015748031497},{"duration":0.13636350000001585,"midi":69,"time":279.272448,"velocity":0.7874015748031497},{"duration":0.13636350000001585,"midi":70,"time":279.454266,"velocity":0.7874015748031497},{"duration":0.136363499999959,"midi":74,"time":279.63608400000004,"velocity":0.7874015748031497},{"duration":0.13636350000001585,"midi":70,"time":279.817902,"velocity":0.7874015748031497},{"duration":0.136363499999959,"midi":69,"time":279.99972,"velocity":0.7874015748031497},{"duration":0.13636350000001585,"midi":70,"time":280.181538,"velocity":0.7874015748031497},{"duration":0.13636350000001585,"midi":74,"time":280.363356,"velocity":0.7874015748031497},{"duration":0.136363499999959,"midi":70,"time":280.54517400000003,"velocity":0.7874015748031497},{"duration":0.13636350000001585,"midi":69,"time":280.726992,"velocity":0.7874015748031497},{"duration":0.13636350000001585,"midi":70,"time":280.90881,"velocity":0.7874015748031497},{"duration":0.136363499999959,"midi":74,"time":281.09062800000004,"velocity":0.7874015748031497},{"duration":0.13636350000001585,"midi":70,"time":281.272446,"velocity":0.7874015748031497},{"duration":0.13636350000001585,"midi":69,"time":281.454264,"velocity":0.7874015748031497},{"duration":0.13636350000001585,"midi":70,"time":281.636082,"velocity":0.7874015748031497},{"duration":0.13636350000001585,"midi":74,"time":281.8179,"velocity":0.7874015748031497},{"duration":0.136363499999959,"midi":70,"time":281.99971800000003,"velocity":0.7874015748031497},{"duration":0.13636350000001585,"midi":65,"time":282.181536,"velocity":0.7874015748031497},{"duration":0.13636350000001585,"midi":69,"time":282.363354,"velocity":0.7874015748031497},{"duration":0.136363499999959,"midi":72,"time":282.54517200000004,"velocity":0.7874015748031497},{"duration":0.13636350000001585,"midi":69,"time":282.72699,"velocity":0.7874015748031497},{"duration":0.13636350000001585,"midi":65,"time":282.908808,"velocity":0.7874015748031497},{"duration":0.13636350000001585,"midi":69,"time":283.090626,"velocity":0.7874015748031497},{"duration":0.13636350000001585,"midi":72,"time":283.272444,"velocity":0.7874015748031497},{"duration":0.136363499999959,"midi":69,"time":283.454262,"velocity":0.7874015748031497},{"duration":0.13636350000001585,"midi":67,"time":283.63608,"velocity":0.7874015748031497},{"duration":0.13636350000001585,"midi":70,"time":283.817898,"velocity":0.7874015748031497},{"duration":0.136363499999959,"midi":74,"time":283.99971600000003,"velocity":0.7874015748031497},{"duration":0.13636350000001585,"midi":70,"time":284.181534,"velocity":0.7874015748031497},{"duration":0.13636350000001585,"midi":67,"time":284.363352,"velocity":0.7874015748031497},{"duration":0.13636350000001585,"midi":70,"time":284.54517,"velocity":0.7874015748031497},{"duration":0.13636350000001585,"midi":74,"time":284.726988,"velocity":0.7874015748031497},{"duration":0.136363499999959,"midi":70,"time":284.908806,"velocity":0.7874015748031497},{"duration":0.13636350000001585,"midi":69,"time":285.090624,"velocity":0.7874015748031497},{"duration":0.13636350000001585,"midi":70,"time":285.272442,"velocity":0.7874015748031497},{"duration":0.136363499999959,"midi":74,"time":285.45426000000003,"velocity":0.7874015748031497},{"duration":0.13636350000001585,"midi":70,"time":285.636078,"velocity":0.7874015748031497},{"duration":0.13636350000001585,"midi":69,"time":285.817896,"velocity":0.7874015748031497},{"duration":0.136363499999959,"midi":70,"time":285.99971400000004,"velocity":0.7874015748031497},{"duration":0.13636350000001585,"midi":74,"time":286.181532,"velocity":0.7874015748031497},{"duration":0.136363499999959,"midi":70,"time":286.36335,"velocity":0.7874015748031497},{"duration":0.13636350000001585,"midi":69,"time":286.545168,"velocity":0.7874015748031497},{"duration":0.13636350000001585,"midi":70,"time":286.726986,"velocity":0.7874015748031497},{"duration":0.136363499999959,"midi":74,"time":286.90880400000003,"velocity":0.7874015748031497},{"duration":0.13636350000001585,"midi":70,"time":287.090622,"velocity":0.7874015748031497},{"duration":0.13636350000001585,"midi":69,"time":287.27244,"velocity":0.7874015748031497},{"duration":0.136363499999959,"midi":70,"time":287.45425800000004,"velocity":0.7874015748031497},{"duration":0.13636350000001585,"midi":74,"time":287.636076,"velocity":0.7874015748031497},{"duration":0.13636350000001585,"midi":70,"time":287.817894,"velocity":0.7874015748031497},{"duration":0.13636350000001585,"midi":65,"time":287.999712,"velocity":0.7874015748031497},{"duration":0.13636350000001585,"midi":69,"time":288.18153,"velocity":0.7874015748031497},{"duration":0.136363499999959,"midi":72,"time":288.36334800000003,"velocity":0.7874015748031497},{"duration":0.13636350000001585,"midi":69,"time":288.545166,"velocity":0.7874015748031497},{"duration":0.13636350000001585,"midi":65,"time":288.726984,"velocity":0.7874015748031497},{"duration":0.136363499999959,"midi":69,"time":288.90880200000004,"velocity":0.7874015748031497},{"duration":0.13636350000001585,"midi":72,"time":289.09062,"velocity":0.7874015748031497},{"duration":0.13636350000001585,"midi":69,"time":289.272438,"velocity":0.7874015748031497},{"duration":0.13636350000001585,"midi":67,"time":289.454256,"velocity":0.7874015748031497},{"duration":0.13636350000001585,"midi":70,"time":289.636074,"velocity":0.7874015748031497},{"duration":0.136363499999959,"midi":74,"time":289.81789200000003,"velocity":0.7874015748031497},{"duration":0.13636350000001585,"midi":70,"time":289.99971,"velocity":0.7874015748031497},{"duration":0.13636350000001585,"midi":67,"time":290.181528,"velocity":0.7874015748031497},{"duration":0.136363499999959,"midi":70,"time":290.36334600000004,"velocity":0.7874015748031497},{"duration":0.13636350000001585,"midi":74,"time":290.545164,"velocity":0.7874015748031497},{"duration":0.13636350000001585,"midi":70,"time":290.726982,"velocity":0.7874015748031497},{"duration":0.13636350000001585,"midi":69,"time":290.9088,"velocity":0.7874015748031497},{"duration":0.13636350000001585,"midi":70,"time":291.090618,"velocity":0.7874015748031497},{"duration":0.136363499999959,"midi":74,"time":291.272436,"velocity":0.7874015748031497},{"duration":0.13636350000001585,"midi":70,"time":291.454254,"velocity":0.7874015748031497},{"duration":0.13636350000001585,"midi":69,"time":291.636072,"velocity":0.7874015748031497},{"duration":0.136363499999959,"midi":70,"time":291.81789000000003,"velocity":0.7874015748031497},{"duration":0.13636350000001585,"midi":74,"time":291.999708,"velocity":0.7874015748031497},{"duration":0.13636350000001585,"midi":70,"time":292.181526,"velocity":0.7874015748031497},{"duration":0.13636350000001585,"midi":69,"time":292.363344,"velocity":0.7874015748031497},{"duration":0.13636350000001585,"midi":70,"time":292.545162,"velocity":0.7874015748031497},{"duration":0.136363499999959,"midi":74,"time":292.72698,"velocity":0.7874015748031497},{"duration":0.13636350000001585,"midi":70,"time":292.908798,"velocity":0.7874015748031497},{"duration":0.13636350000001585,"midi":69,"time":293.090616,"velocity":0.7874015748031497},{"duration":0.136363499999959,"midi":70,"time":293.27243400000003,"velocity":0.7874015748031497},{"duration":0.13636350000001585,"midi":74,"time":293.454252,"velocity":0.7874015748031497},{"duration":0.13636350000001585,"midi":70,"time":293.63607,"velocity":0.7874015748031497},{"duration":0.136363499999959,"midi":65,"time":293.81788800000004,"velocity":0.7874015748031497},{"duration":0.13636350000001585,"midi":69,"time":293.999706,"velocity":0.7874015748031497},{"duration":0.13636350000001585,"midi":72,"time":294.181524,"velocity":0.7874015748031497},{"duration":0.13636350000001585,"midi":69,"time":294.363342,"velocity":0.7874015748031497},{"duration":0.13636350000001585,"midi":65,"time":294.54516,"velocity":0.7874015748031497},{"duration":0.136363499999959,"midi":69,"time":294.72697800000003,"velocity":0.7874015748031497},{"duration":0.13636350000001585,"midi":72,"time":294.908796,"velocity":0.7874015748031497},{"duration":0.13636350000001585,"midi":69,"time":295.090614,"velocity":0.7874015748031497},{"duration":0.136363499999959,"midi":67,"time":295.27243200000004,"velocity":0.7874015748031497},{"duration":0.13636350000001585,"midi":70,"time":295.45425,"velocity":0.7874015748031497},{"duration":0.13636350000001585,"midi":74,"time":295.636068,"velocity":0.7874015748031497},{"duration":0.13636350000001585,"midi":70,"time":295.817886,"velocity":0.7874015748031497},{"duration":0.13636350000001585,"midi":67,"time":295.999704,"velocity":0.7874015748031497},{"duration":0.136363499999959,"midi":70,"time":296.18152200000003,"velocity":0.7874015748031497},{"duration":0.13636350000001585,"midi":74,"time":296.36334,"velocity":0.7874015748031497},{"duration":0.13636350000001585,"midi":70,"time":296.545158,"velocity":0.7874015748031497},{"duration":0.136363499999959,"midi":69,"time":296.72697600000004,"velocity":0.7874015748031497},{"duration":0.13636350000001585,"midi":70,"time":296.908794,"velocity":0.7874015748031497},{"duration":0.13636350000001585,"midi":74,"time":297.090612,"velocity":0.7874015748031497},{"duration":0.13636350000001585,"midi":70,"time":297.27243,"velocity":0.7874015748031497},{"duration":0.13636350000001585,"midi":69,"time":297.454248,"velocity":0.7874015748031497},{"duration":0.136363499999959,"midi":70,"time":297.636066,"velocity":0.7874015748031497},{"duration":0.13636350000001585,"midi":74,"time":297.817884,"velocity":0.7874015748031497},{"duration":0.13636350000001585,"midi":70,"time":297.999702,"velocity":0.7874015748031497},{"duration":0.136363499999959,"midi":69,"time":298.18152000000003,"velocity":0.7874015748031497},{"duration":0.13636350000001585,"midi":70,"time":298.363338,"velocity":0.7874015748031497},{"duration":0.13636350000001585,"midi":74,"time":298.545156,"velocity":0.7874015748031497},{"duration":0.13636350000001585,"midi":70,"time":298.726974,"velocity":0.7874015748031497},{"duration":0.13636350000001585,"midi":69,"time":298.908792,"velocity":0.7874015748031497},{"duration":0.136363499999959,"midi":70,"time":299.09061,"velocity":0.7874015748031497},{"duration":0.13636350000001585,"midi":74,"time":299.272428,"velocity":0.7874015748031497},{"duration":0.13636350000001585,"midi":70,"time":299.454246,"velocity":0.7874015748031497},{"duration":0.136363499999959,"midi":65,"time":299.63606400000003,"velocity":0.7874015748031497},{"duration":0.13636350000001585,"midi":69,"time":299.817882,"velocity":0.7874015748031497},{"duration":0.13636350000001585,"midi":72,"time":299.9997,"velocity":0.7874015748031497},{"duration":0.136363499999959,"midi":69,"time":300.18151800000004,"velocity":0.7874015748031497},{"duration":0.13636350000001585,"midi":65,"time":300.363336,"velocity":0.7874015748031497},{"duration":0.136363499999959,"midi":69,"time":300.545154,"velocity":0.7874015748031497},{"duration":0.13636350000001585,"midi":72,"time":300.726972,"velocity":0.7874015748031497},{"duration":0.13636350000001585,"midi":69,"time":300.90879,"velocity":0.7874015748031497},{"duration":0.136363499999959,"midi":67,"time":301.09060800000003,"velocity":0.7874015748031497},{"duration":0.13636350000001585,"midi":70,"time":301.272426,"velocity":0.7874015748031497},{"duration":0.13636350000001585,"midi":74,"time":301.454244,"velocity":0.7874015748031497},{"duration":0.136363499999959,"midi":70,"time":301.63606200000004,"velocity":0.7874015748031497},{"duration":0.13636350000001585,"midi":67,"time":301.81788,"velocity":0.7874015748031497},{"duration":0.13636350000001585,"midi":70,"time":301.999698,"velocity":0.7874015748031497},{"duration":0.13636350000001585,"midi":74,"time":302.181516,"velocity":0.7874015748031497},{"duration":0.13636350000001585,"midi":70,"time":302.363334,"velocity":0.7874015748031497},{"duration":0.136363499999959,"midi":69,"time":302.54515200000003,"velocity":0.7874015748031497},{"duration":0.13636350000001585,"midi":70,"time":302.72697,"velocity":0.7874015748031497},{"duration":0.13636350000001585,"midi":74,"time":302.908788,"velocity":0.7874015748031497},{"duration":0.136363499999959,"midi":70,"time":303.09060600000004,"velocity":0.7874015748031497},{"duration":0.13636350000001585,"midi":69,"time":303.272424,"velocity":0.7874015748031497},{"duration":0.13636350000001585,"midi":70,"time":303.454242,"velocity":0.7874015748031497},{"duration":0.13636350000001585,"midi":74,"time":303.63606,"velocity":0.7874015748031497},{"duration":0.13636350000001585,"midi":70,"time":303.817878,"velocity":0.7874015748031497},{"duration":0.136363499999959,"midi":69,"time":303.99969600000003,"velocity":0.7874015748031497},{"duration":0.13636350000001585,"midi":70,"time":304.181514,"velocity":0.7874015748031497},{"duration":0.13636350000001585,"midi":74,"time":304.363332,"velocity":0.7874015748031497},{"duration":0.136363499999959,"midi":70,"time":304.54515000000004,"velocity":0.7874015748031497},{"duration":0.13636350000001585,"midi":69,"time":304.726968,"velocity":0.7874015748031497},{"duration":0.13636350000001585,"midi":70,"time":304.908786,"velocity":0.7874015748031497},{"duration":0.13636350000001585,"midi":74,"time":305.090604,"velocity":0.7874015748031497},{"duration":0.13636350000001585,"midi":70,"time":305.272422,"velocity":0.7874015748031497},{"duration":0.136363499999959,"midi":65,"time":305.45424,"velocity":0.7874015748031497},{"duration":0.13636350000001585,"midi":69,"time":305.636058,"velocity":0.7874015748031497},{"duration":0.13636350000001585,"midi":72,"time":305.817876,"velocity":0.7874015748031497},{"duration":0.136363499999959,"midi":69,"time":305.99969400000003,"velocity":0.7874015748031497},{"duration":0.13636350000001585,"midi":65,"time":306.181512,"velocity":0.7874015748031497},{"duration":0.13636350000001585,"midi":69,"time":306.36333,"velocity":0.7874015748031497},{"duration":0.136363499999959,"midi":72,"time":306.54514800000004,"velocity":0.7874015748031497},{"duration":0.13636350000001585,"midi":69,"time":306.726966,"velocity":0.7874015748031497},{"duration":0.136363499999959,"midi":67,"time":306.908784,"velocity":0.7874015748031497},{"duration":0.13636350000001585,"midi":70,"time":307.090602,"velocity":0.7874015748031497},{"duration":0.13636350000001585,"midi":74,"time":307.27242,"velocity":0.7874015748031497},{"duration":0.136363499999959,"midi":70,"time":307.45423800000003,"velocity":0.7874015748031497},{"duration":0.13636350000001585,"midi":67,"time":307.636056,"velocity":0.7874015748031497},{"duration":0.13636350000001585,"midi":70,"time":307.817874,"velocity":0.7874015748031497},{"duration":0.136363499999959,"midi":74,"time":307.99969200000004,"velocity":0.7874015748031497},{"duration":0.13636350000001585,"midi":70,"time":308.18151,"velocity":0.7874015748031497},{"duration":0.13636350000001585,"midi":69,"time":308.363328,"velocity":0.7874015748031497},{"duration":0.13636350000001585,"midi":70,"time":308.545146,"velocity":0.7874015748031497},{"duration":0.13636350000001585,"midi":74,"time":308.726964,"velocity":0.7874015748031497},{"duration":0.136363499999959,"midi":70,"time":308.90878200000003,"velocity":0.7874015748031497},{"duration":0.13636350000001585,"midi":69,"time":309.0906,"velocity":0.7874015748031497},{"duration":0.13636350000001585,"midi":70,"time":309.272418,"velocity":0.7874015748031497},{"duration":0.136363499999959,"midi":74,"time":309.45423600000004,"velocity":0.7874015748031497},{"duration":0.13636350000001585,"midi":70,"time":309.636054,"velocity":0.7874015748031497},{"duration":0.13636350000001585,"midi":69,"time":309.817872,"velocity":0.7874015748031497},{"duration":0.13636350000001585,"midi":70,"time":309.99969,"velocity":0.7874015748031497},{"duration":0.13636350000001585,"midi":74,"time":310.181508,"velocity":0.7874015748031497},{"duration":0.136363499999959,"midi":70,"time":310.36332600000003,"velocity":0.7874015748031497},{"duration":0.13636350000001585,"midi":69,"time":310.545144,"velocity":0.7874015748031497},{"duration":0.13636350000001585,"midi":70,"time":310.726962,"velocity":0.7874015748031497},{"duration":0.136363499999959,"midi":74,"time":310.90878000000004,"velocity":0.7874015748031497},{"duration":0.13636350000001585,"midi":70,"time":311.090598,"velocity":0.7874015748031497},{"duration":0.13636350000001585,"midi":65,"time":311.272416,"velocity":0.7874015748031497},{"duration":0.13636350000001585,"midi":69,"time":311.454234,"velocity":0.7874015748031497},{"duration":0.13636350000001585,"midi":72,"time":311.636052,"velocity":0.7874015748031497},{"duration":0.136363499999959,"midi":69,"time":311.81787,"velocity":0.7874015748031497},{"duration":0.13636350000001585,"midi":65,"time":311.999688,"velocity":0.7874015748031497},{"duration":0.13636350000001585,"midi":69,"time":312.181506,"velocity":0.7874015748031497},{"duration":0.136363499999959,"midi":72,"time":312.36332400000003,"velocity":0.7874015748031497},{"duration":0.13636350000001585,"midi":69,"time":312.545142,"velocity":0.7874015748031497},{"duration":0.13636350000001585,"midi":67,"time":312.72696,"velocity":0.7874015748031497},{"duration":0.136363499999959,"midi":70,"time":312.90877800000004,"velocity":0.7874015748031497},{"duration":0.13636350000001585,"midi":74,"time":313.090596,"velocity":0.7874015748031497},{"duration":0.136363499999959,"midi":70,"time":313.272414,"velocity":0.7874015748031497},{"duration":0.13636350000001585,"midi":67,"time":313.454232,"velocity":0.7874015748031497},{"duration":0.13636350000001585,"midi":70,"time":313.63605,"velocity":0.7874015748031497},{"duration":0.136363499999959,"midi":74,"time":313.81786800000003,"velocity":0.7874015748031497},{"duration":0.13636350000001585,"midi":70,"time":313.999686,"velocity":0.7874015748031497},{"duration":0.13636350000001585,"midi":67,"time":314.181504,"velocity":0.7874015748031497}]},{"instrument":{"family":"strings","number":42,"name":"cello"},"notes":[{"duration":0.09090900000000346,"midi":31,"time":34.909056,"velocity":0.3937007874015748},{"duration":0.09090900000000346,"midi":43,"time":34.909056,"velocity":0.3937007874015748},{"duration":0.09090900000000346,"midi":31,"time":34.909056,"velocity":0.3937007874015748},{"duration":0.09090900000000346,"midi":43,"time":34.909056,"velocity":0.3937007874015748},{"duration":0.09090900000000346,"midi":43,"time":35.090874,"velocity":0.3937007874015748},{"duration":0.09090900000000346,"midi":43,"time":35.090874,"velocity":0.3937007874015748},{"duration":0.09090900000000346,"midi":55,"time":35.090874,"velocity":0.3937007874015748},{"duration":0.09090900000000346,"midi":55,"time":35.090874,"velocity":0.3937007874015748},{"duration":0.09090900000000346,"midi":43,"time":35.272692,"velocity":0.3937007874015748},{"duration":0.09090900000000346,"midi":31,"time":35.272692,"velocity":0.3937007874015748},{"duration":0.09090900000000346,"midi":31,"time":35.272692,"velocity":0.3937007874015748},{"duration":0.09090900000000346,"midi":43,"time":35.272692,"velocity":0.3937007874015748},{"duration":0.09090900000000346,"midi":55,"time":35.45451,"velocity":0.3937007874015748},{"duration":0.09090900000000346,"midi":55,"time":35.45451,"velocity":0.3937007874015748},{"duration":0.09090900000000346,"midi":43,"time":35.45451,"velocity":0.3937007874015748},{"duration":0.09090900000000346,"midi":43,"time":35.45451,"velocity":0.3937007874015748},{"duration":0.09090900000000346,"midi":43,"time":35.636328,"velocity":0.3937007874015748},{"duration":0.09090900000000346,"midi":31,"time":35.636328,"velocity":0.3937007874015748},{"duration":0.09090900000000346,"midi":31,"time":35.636328,"velocity":0.3937007874015748},{"duration":0.09090900000000346,"midi":43,"time":35.636328,"velocity":0.3937007874015748},{"duration":0.09090900000000346,"midi":55,"time":35.818146,"velocity":0.3937007874015748},{"duration":0.09090900000000346,"midi":43,"time":35.818146,"velocity":0.3937007874015748},{"duration":0.09090900000000346,"midi":43,"time":35.818146,"velocity":0.3937007874015748},{"duration":0.09090900000000346,"midi":55,"time":35.818146,"velocity":0.3937007874015748},{"duration":0.09090900000000346,"midi":43,"time":35.999964,"velocity":0.3937007874015748},{"duration":0.09090900000000346,"midi":31,"time":35.999964,"velocity":0.3937007874015748},{"duration":0.09090900000000346,"midi":31,"time":35.999964,"velocity":0.3937007874015748},{"duration":0.09090900000000346,"midi":43,"time":35.999964,"velocity":0.3937007874015748},{"duration":0.09090900000000346,"midi":55,"time":36.181782,"velocity":0.3937007874015748},{"duration":0.09090900000000346,"midi":43,"time":36.181782,"velocity":0.3937007874015748},{"duration":0.09090900000000346,"midi":43,"time":36.181782,"velocity":0.3937007874015748},{"duration":0.09090900000000346,"midi":55,"time":36.181782,"velocity":0.3937007874015748},{"duration":0.09090900000000346,"midi":40,"time":36.3636,"velocity":0.3937007874015748},{"duration":0.09090900000000346,"midi":28,"time":36.3636,"velocity":0.3937007874015748},{"duration":0.09090900000000346,"midi":40,"time":36.3636,"velocity":0.3937007874015748},{"duration":0.09090900000000346,"midi":28,"time":36.3636,"velocity":0.3937007874015748},{"duration":0.09090900000000346,"midi":40,"time":36.545418,"velocity":0.3937007874015748},{"duration":0.09090900000000346,"midi":52,"time":36.545418,"velocity":0.3937007874015748},{"duration":0.09090900000000346,"midi":40,"time":36.545418,"velocity":0.3937007874015748},{"duration":0.09090900000000346,"midi":52,"time":36.545418,"velocity":0.3937007874015748},{"duration":0.09090899999999635,"midi":28,"time":36.727236000000005,"velocity":0.3937007874015748},{"duration":0.09090899999999635,"midi":40,"time":36.727236000000005,"velocity":0.3937007874015748},{"duration":0.09090899999999635,"midi":28,"time":36.727236000000005,"velocity":0.3937007874015748},{"duration":0.09090899999999635,"midi":40,"time":36.727236000000005,"velocity":0.3937007874015748},{"duration":0.09090899999999635,"midi":40,"time":36.909054000000005,"velocity":0.3937007874015748},{"duration":0.09090899999999635,"midi":52,"time":36.909054000000005,"velocity":0.3937007874015748},{"duration":0.09090899999999635,"midi":52,"time":36.909054000000005,"velocity":0.3937007874015748},{"duration":0.09090899999999635,"midi":40,"time":36.909054000000005,"velocity":0.3937007874015748},{"duration":0.09090899999999635,"midi":40,"time":37.090872000000005,"velocity":0.3937007874015748},{"duration":0.09090899999999635,"midi":28,"time":37.090872000000005,"velocity":0.3937007874015748},{"duration":0.09090899999999635,"midi":28,"time":37.090872000000005,"velocity":0.3937007874015748},{"duration":0.09090899999999635,"midi":40,"time":37.090872000000005,"velocity":0.3937007874015748},{"duration":0.09090899999999635,"midi":40,"time":37.272690000000004,"velocity":0.3937007874015748},{"duration":0.09090899999999635,"midi":52,"time":37.272690000000004,"velocity":0.3937007874015748},{"duration":0.09090899999999635,"midi":52,"time":37.272690000000004,"velocity":0.3937007874015748},{"duration":0.09090899999999635,"midi":40,"time":37.272690000000004,"velocity":0.3937007874015748},{"duration":0.09090899999999635,"midi":40,"time":37.454508000000004,"velocity":0.3937007874015748},{"duration":0.09090899999999635,"midi":28,"time":37.454508000000004,"velocity":0.3937007874015748},{"duration":0.09090899999999635,"midi":28,"time":37.454508000000004,"velocity":0.3937007874015748},{"duration":0.09090899999999635,"midi":40,"time":37.454508000000004,"velocity":0.3937007874015748},{"duration":0.09090899999999635,"midi":52,"time":37.636326000000004,"velocity":0.3937007874015748},{"duration":0.09090899999999635,"midi":40,"time":37.636326000000004,"velocity":0.3937007874015748},{"duration":0.09090899999999635,"midi":52,"time":37.636326000000004,"velocity":0.3937007874015748},{"duration":0.09090899999999635,"midi":40,"time":37.636326000000004,"velocity":0.3937007874015748},{"duration":0.09090899999999635,"midi":29,"time":37.818144000000004,"velocity":0.3937007874015748},{"duration":0.09090899999999635,"midi":41,"time":37.818144000000004,"velocity":0.3937007874015748},{"duration":0.09090899999999635,"midi":29,"time":37.818144000000004,"velocity":0.3937007874015748},{"duration":0.09090899999999635,"midi":41,"time":37.818144000000004,"velocity":0.3937007874015748},{"duration":0.09090899999999635,"midi":53,"time":37.999962000000004,"velocity":0.3937007874015748},{"duration":0.09090899999999635,"midi":41,"time":37.999962000000004,"velocity":0.3937007874015748},{"duration":0.09090899999999635,"midi":41,"time":37.999962000000004,"velocity":0.3937007874015748},{"duration":0.09090899999999635,"midi":53,"time":37.999962000000004,"velocity":0.3937007874015748},{"duration":0.09090899999999635,"midi":41,"time":38.18178,"velocity":0.3937007874015748},{"duration":0.09090899999999635,"midi":29,"time":38.18178,"velocity":0.3937007874015748},{"duration":0.09090899999999635,"midi":41,"time":38.18178,"velocity":0.3937007874015748},{"duration":0.09090899999999635,"midi":29,"time":38.18178,"velocity":0.3937007874015748},{"duration":0.09090899999999635,"midi":53,"time":38.363598,"velocity":0.3937007874015748},{"duration":0.09090899999999635,"midi":41,"time":38.363598,"velocity":0.3937007874015748},{"duration":0.09090899999999635,"midi":53,"time":38.363598,"velocity":0.3937007874015748},{"duration":0.09090899999999635,"midi":41,"time":38.363598,"velocity":0.3937007874015748},{"duration":0.09090899999999635,"midi":29,"time":38.545416,"velocity":0.3937007874015748},{"duration":0.09090899999999635,"midi":29,"time":38.545416,"velocity":0.3937007874015748},{"duration":0.09090899999999635,"midi":41,"time":38.545416,"velocity":0.3937007874015748},{"duration":0.09090899999999635,"midi":41,"time":38.545416,"velocity":0.3937007874015748},{"duration":0.09090899999999635,"midi":53,"time":38.727234,"velocity":0.3937007874015748},{"duration":0.09090899999999635,"midi":41,"time":38.727234,"velocity":0.3937007874015748},{"duration":0.09090899999999635,"midi":41,"time":38.727234,"velocity":0.3937007874015748},{"duration":0.09090899999999635,"midi":53,"time":38.727234,"velocity":0.3937007874015748},{"duration":0.09090899999999635,"midi":29,"time":38.909052,"velocity":0.3937007874015748},{"duration":0.09090899999999635,"midi":41,"time":38.909052,"velocity":0.3937007874015748},{"duration":0.09090899999999635,"midi":41,"time":38.909052,"velocity":0.3937007874015748},{"duration":0.09090899999999635,"midi":29,"time":38.909052,"velocity":0.3937007874015748},{"duration":0.09090899999999635,"midi":53,"time":39.09087,"velocity":0.3937007874015748},{"duration":0.09090899999999635,"midi":41,"time":39.09087,"velocity":0.3937007874015748},{"duration":0.09090899999999635,"midi":41,"time":39.09087,"velocity":0.3937007874015748},{"duration":0.09090899999999635,"midi":53,"time":39.09087,"velocity":0.3937007874015748},{"duration":0.09090899999999635,"midi":31,"time":39.272688,"velocity":0.3937007874015748},{"duration":0.09090899999999635,"midi":43,"time":39.272688,"velocity":0.3937007874015748},{"duration":0.09090899999999635,"midi":43,"time":39.272688,"velocity":0.3937007874015748},{"duration":0.09090899999999635,"midi":31,"time":39.272688,"velocity":0.3937007874015748},{"duration":0.09090899999999635,"midi":43,"time":39.454506,"velocity":0.3937007874015748},{"duration":0.09090899999999635,"midi":55,"time":39.454506,"velocity":0.3937007874015748},{"duration":0.09090899999999635,"midi":43,"time":39.454506,"velocity":0.3937007874015748},{"duration":0.09090899999999635,"midi":55,"time":39.454506,"velocity":0.3937007874015748},{"duration":0.09090899999999635,"midi":43,"time":39.636324,"velocity":0.3937007874015748},{"duration":0.09090899999999635,"midi":31,"time":39.636324,"velocity":0.3937007874015748},{"duration":0.09090899999999635,"midi":31,"time":39.636324,"velocity":0.3937007874015748},{"duration":0.09090899999999635,"midi":43,"time":39.636324,"velocity":0.3937007874015748},{"duration":0.09090900000000346,"midi":55,"time":39.818142,"velocity":0.3937007874015748},{"duration":0.09090900000000346,"midi":55,"time":39.818142,"velocity":0.3937007874015748},{"duration":0.09090900000000346,"midi":43,"time":39.818142,"velocity":0.3937007874015748},{"duration":0.09090900000000346,"midi":43,"time":39.818142,"velocity":0.3937007874015748},{"duration":0.09090900000000346,"midi":43,"time":39.99996,"velocity":0.3937007874015748},{"duration":0.09090900000000346,"midi":43,"time":39.99996,"velocity":0.3937007874015748},{"duration":0.09090900000000346,"midi":31,"time":39.99996,"velocity":0.3937007874015748},{"duration":0.09090900000000346,"midi":31,"time":39.99996,"velocity":0.3937007874015748},{"duration":0.09090900000000346,"midi":43,"time":40.181778,"velocity":0.3937007874015748},{"duration":0.09090900000000346,"midi":55,"time":40.181778,"velocity":0.3937007874015748},{"duration":0.09090900000000346,"midi":55,"time":40.181778,"velocity":0.3937007874015748},{"duration":0.09090900000000346,"midi":43,"time":40.181778,"velocity":0.3937007874015748},{"duration":0.09090900000000346,"midi":43,"time":40.363596,"velocity":0.3937007874015748},{"duration":0.09090900000000346,"midi":43,"time":40.363596,"velocity":0.3937007874015748},{"duration":0.09090900000000346,"midi":31,"time":40.363596,"velocity":0.3937007874015748},{"duration":0.09090900000000346,"midi":31,"time":40.363596,"velocity":0.3937007874015748},{"duration":0.09090900000000346,"midi":43,"time":40.545414,"velocity":0.3937007874015748},{"duration":0.09090900000000346,"midi":43,"time":40.545414,"velocity":0.3937007874015748},{"duration":0.09090900000000346,"midi":55,"time":40.545414,"velocity":0.3937007874015748},{"duration":0.09090900000000346,"midi":55,"time":40.545414,"velocity":0.3937007874015748},{"duration":0.09090900000000346,"midi":43,"time":40.727232,"velocity":0.3937007874015748},{"duration":0.09090900000000346,"midi":31,"time":40.727232,"velocity":0.3937007874015748},{"duration":0.09090900000000346,"midi":43,"time":40.727232,"velocity":0.3937007874015748},{"duration":0.09090900000000346,"midi":31,"time":40.727232,"velocity":0.3937007874015748},{"duration":0.09090900000000346,"midi":55,"time":40.90905,"velocity":0.3937007874015748},{"duration":0.09090900000000346,"midi":43,"time":40.90905,"velocity":0.3937007874015748},{"duration":0.09090900000000346,"midi":43,"time":40.90905,"velocity":0.3937007874015748},{"duration":0.09090900000000346,"midi":55,"time":40.90905,"velocity":0.3937007874015748},{"duration":0.09090900000000346,"midi":31,"time":41.090868,"velocity":0.3937007874015748},{"duration":0.09090900000000346,"midi":43,"time":41.090868,"velocity":0.3937007874015748},{"duration":0.09090900000000346,"midi":43,"time":41.090868,"velocity":0.3937007874015748},{"duration":0.09090900000000346,"midi":31,"time":41.090868,"velocity":0.3937007874015748},{"duration":0.09090900000000346,"midi":43,"time":41.272686,"velocity":0.3937007874015748},{"duration":0.09090900000000346,"midi":43,"time":41.272686,"velocity":0.3937007874015748},{"duration":0.09090900000000346,"midi":55,"time":41.272686,"velocity":0.3937007874015748},{"duration":0.09090900000000346,"midi":55,"time":41.272686,"velocity":0.3937007874015748},{"duration":0.09090900000000346,"midi":31,"time":41.454504,"velocity":0.3937007874015748},{"duration":0.09090900000000346,"midi":43,"time":41.454504,"velocity":0.3937007874015748},{"duration":0.09090900000000346,"midi":31,"time":41.454504,"velocity":0.3937007874015748},{"duration":0.09090900000000346,"midi":43,"time":41.454504,"velocity":0.3937007874015748},{"duration":0.09090900000000346,"midi":43,"time":41.636322,"velocity":0.3937007874015748},{"duration":0.09090900000000346,"midi":43,"time":41.636322,"velocity":0.3937007874015748},{"duration":0.09090900000000346,"midi":55,"time":41.636322,"velocity":0.3937007874015748},{"duration":0.09090900000000346,"midi":55,"time":41.636322,"velocity":0.3937007874015748},{"duration":0.09090900000000346,"midi":31,"time":41.81814,"velocity":0.3937007874015748},{"duration":0.09090900000000346,"midi":43,"time":41.81814,"velocity":0.3937007874015748},{"duration":0.09090900000000346,"midi":31,"time":41.81814,"velocity":0.3937007874015748},{"duration":0.09090900000000346,"midi":43,"time":41.81814,"velocity":0.3937007874015748},{"duration":0.09090900000000346,"midi":43,"time":41.999958,"velocity":0.3937007874015748},{"duration":0.09090900000000346,"midi":55,"time":41.999958,"velocity":0.3937007874015748},{"duration":0.09090900000000346,"midi":55,"time":41.999958,"velocity":0.3937007874015748},{"duration":0.09090900000000346,"midi":43,"time":41.999958,"velocity":0.3937007874015748},{"duration":0.09090900000000346,"midi":28,"time":42.181776,"velocity":0.3937007874015748},{"duration":0.09090900000000346,"midi":40,"time":42.181776,"velocity":0.3937007874015748},{"duration":0.09090900000000346,"midi":28,"time":42.181776,"velocity":0.3937007874015748},{"duration":0.09090900000000346,"midi":40,"time":42.181776,"velocity":0.3937007874015748},{"duration":0.09090900000000346,"midi":52,"time":42.363594,"velocity":0.3937007874015748},{"duration":0.09090900000000346,"midi":40,"time":42.363594,"velocity":0.3937007874015748},{"duration":0.09090900000000346,"midi":40,"time":42.363594,"velocity":0.3937007874015748},{"duration":0.09090900000000346,"midi":52,"time":42.363594,"velocity":0.3937007874015748},{"duration":0.09090900000000346,"midi":40,"time":42.545412,"velocity":0.3937007874015748},{"duration":0.09090900000000346,"midi":40,"time":42.545412,"velocity":0.3937007874015748},{"duration":0.09090900000000346,"midi":28,"time":42.545412,"velocity":0.3937007874015748},{"duration":0.09090900000000346,"midi":28,"time":42.545412,"velocity":0.3937007874015748},{"duration":0.09090900000000346,"midi":40,"time":42.72723,"velocity":0.3937007874015748},{"duration":0.09090900000000346,"midi":52,"time":42.72723,"velocity":0.3937007874015748},{"duration":0.09090900000000346,"midi":40,"time":42.72723,"velocity":0.3937007874015748},{"duration":0.09090900000000346,"midi":52,"time":42.72723,"velocity":0.3937007874015748},{"duration":0.09090900000000346,"midi":40,"time":42.909048,"velocity":0.3937007874015748},{"duration":0.09090900000000346,"midi":40,"time":42.909048,"velocity":0.3937007874015748},{"duration":0.09090900000000346,"midi":28,"time":42.909048,"velocity":0.3937007874015748},{"duration":0.09090900000000346,"midi":28,"time":42.909048,"velocity":0.3937007874015748},{"duration":0.09090900000000346,"midi":40,"time":43.090866,"velocity":0.3937007874015748},{"duration":0.09090900000000346,"midi":52,"time":43.090866,"velocity":0.3937007874015748},{"duration":0.09090900000000346,"midi":52,"time":43.090866,"velocity":0.3937007874015748},{"duration":0.09090900000000346,"midi":40,"time":43.090866,"velocity":0.3937007874015748},{"duration":0.09090899999999635,"midi":40,"time":43.272684000000005,"velocity":0.3937007874015748},{"duration":0.09090899999999635,"midi":40,"time":43.272684000000005,"velocity":0.3937007874015748},{"duration":0.09090899999999635,"midi":28,"time":43.272684000000005,"velocity":0.3937007874015748},{"duration":0.09090899999999635,"midi":28,"time":43.272684000000005,"velocity":0.3937007874015748},{"duration":0.09090899999999635,"midi":52,"time":43.454502000000005,"velocity":0.3937007874015748},{"duration":0.09090899999999635,"midi":40,"time":43.454502000000005,"velocity":0.3937007874015748},{"duration":0.09090899999999635,"midi":40,"time":43.454502000000005,"velocity":0.3937007874015748},{"duration":0.09090899999999635,"midi":52,"time":43.454502000000005,"velocity":0.3937007874015748},{"duration":0.09090899999999635,"midi":29,"time":43.636320000000005,"velocity":0.3937007874015748},{"duration":0.09090899999999635,"midi":41,"time":43.636320000000005,"velocity":0.3937007874015748},{"duration":0.09090899999999635,"midi":29,"time":43.636320000000005,"velocity":0.3937007874015748},{"duration":0.09090899999999635,"midi":41,"time":43.636320000000005,"velocity":0.3937007874015748},{"duration":0.09090899999999635,"midi":53,"time":43.818138000000005,"velocity":0.3937007874015748},{"duration":0.09090899999999635,"midi":41,"time":43.818138000000005,"velocity":0.3937007874015748},{"duration":0.09090899999999635,"midi":41,"time":43.818138000000005,"velocity":0.3937007874015748},{"duration":0.09090899999999635,"midi":53,"time":43.818138000000005,"velocity":0.3937007874015748},{"duration":0.09090899999999635,"midi":41,"time":43.999956000000005,"velocity":0.3937007874015748},{"duration":0.09090899999999635,"midi":41,"time":43.999956000000005,"velocity":0.3937007874015748},{"duration":0.09090899999999635,"midi":29,"time":43.999956000000005,"velocity":0.3937007874015748},{"duration":0.09090899999999635,"midi":29,"time":43.999956000000005,"velocity":0.3937007874015748},{"duration":0.09090899999999635,"midi":41,"time":44.181774000000004,"velocity":0.3937007874015748},{"duration":0.09090899999999635,"midi":53,"time":44.181774000000004,"velocity":0.3937007874015748},{"duration":0.09090899999999635,"midi":53,"time":44.181774000000004,"velocity":0.3937007874015748},{"duration":0.09090899999999635,"midi":41,"time":44.181774000000004,"velocity":0.3937007874015748},{"duration":0.09090899999999635,"midi":41,"time":44.363592000000004,"velocity":0.3937007874015748},{"duration":0.09090899999999635,"midi":29,"time":44.363592000000004,"velocity":0.3937007874015748},{"duration":0.09090899999999635,"midi":29,"time":44.363592000000004,"velocity":0.3937007874015748},{"duration":0.09090899999999635,"midi":41,"time":44.363592000000004,"velocity":0.3937007874015748},{"duration":0.09090899999999635,"midi":53,"time":44.545410000000004,"velocity":0.3937007874015748},{"duration":0.09090899999999635,"midi":53,"time":44.545410000000004,"velocity":0.3937007874015748},{"duration":0.09090899999999635,"midi":41,"time":44.545410000000004,"velocity":0.3937007874015748},{"duration":0.09090899999999635,"midi":41,"time":44.545410000000004,"velocity":0.3937007874015748},{"duration":0.09090899999999635,"midi":29,"time":44.727228000000004,"velocity":0.3937007874015748},{"duration":0.09090899999999635,"midi":41,"time":44.727228000000004,"velocity":0.3937007874015748},{"duration":0.09090899999999635,"midi":41,"time":44.727228000000004,"velocity":0.3937007874015748},{"duration":0.09090899999999635,"midi":29,"time":44.727228000000004,"velocity":0.3937007874015748},{"duration":0.09090899999999635,"midi":53,"time":44.909046000000004,"velocity":0.3937007874015748},{"duration":0.09090899999999635,"midi":41,"time":44.909046000000004,"velocity":0.3937007874015748},{"duration":0.09090899999999635,"midi":53,"time":44.909046000000004,"velocity":0.3937007874015748},{"duration":0.09090899999999635,"midi":41,"time":44.909046000000004,"velocity":0.3937007874015748},{"duration":0.09090899999999635,"midi":43,"time":45.090864,"velocity":0.3937007874015748},{"duration":0.09090899999999635,"midi":31,"time":45.090864,"velocity":0.3937007874015748},{"duration":0.09090899999999635,"midi":43,"time":45.090864,"velocity":0.3937007874015748},{"duration":0.09090899999999635,"midi":31,"time":45.090864,"velocity":0.3937007874015748},{"duration":0.09090899999999635,"midi":55,"time":45.272682,"velocity":0.3937007874015748},{"duration":0.09090899999999635,"midi":43,"time":45.272682,"velocity":0.3937007874015748},{"duration":0.09090899999999635,"midi":55,"time":45.272682,"velocity":0.3937007874015748},{"duration":0.09090899999999635,"midi":43,"time":45.272682,"velocity":0.3937007874015748},{"duration":0.09090899999999635,"midi":43,"time":45.4545,"velocity":0.3937007874015748},{"duration":0.09090899999999635,"midi":43,"time":45.4545,"velocity":0.3937007874015748},{"duration":0.09090899999999635,"midi":31,"time":45.4545,"velocity":0.3937007874015748},{"duration":0.09090899999999635,"midi":31,"time":45.4545,"velocity":0.3937007874015748},{"duration":0.09090899999999635,"midi":43,"time":45.636318,"velocity":0.3937007874015748},{"duration":0.09090899999999635,"midi":43,"time":45.636318,"velocity":0.3937007874015748},{"duration":0.09090899999999635,"midi":55,"time":45.636318,"velocity":0.3937007874015748},{"duration":0.09090899999999635,"midi":55,"time":45.636318,"velocity":0.3937007874015748},{"duration":0.09090899999999635,"midi":43,"time":45.818136,"velocity":0.3937007874015748},{"duration":0.09090899999999635,"midi":31,"time":45.818136,"velocity":0.3937007874015748},{"duration":0.09090899999999635,"midi":43,"time":45.818136,"velocity":0.3937007874015748},{"duration":0.09090899999999635,"midi":31,"time":45.818136,"velocity":0.3937007874015748},{"duration":0.09090899999999635,"midi":55,"time":45.999954,"velocity":0.3937007874015748},{"duration":0.09090899999999635,"midi":43,"time":45.999954,"velocity":0.3937007874015748},{"duration":0.09090899999999635,"midi":43,"time":45.999954,"velocity":0.3937007874015748},{"duration":0.09090899999999635,"midi":55,"time":45.999954,"velocity":0.3937007874015748},{"duration":0.09090899999999635,"midi":43,"time":46.181772,"velocity":0.3937007874015748},{"duration":0.09090899999999635,"midi":43,"time":46.181772,"velocity":0.3937007874015748},{"duration":0.09090899999999635,"midi":31,"time":46.181772,"velocity":0.3937007874015748},{"duration":0.09090899999999635,"midi":31,"time":46.181772,"velocity":0.3937007874015748},{"duration":0.09090899999999635,"midi":55,"time":46.36359,"velocity":0.3937007874015748},{"duration":0.09090899999999635,"midi":43,"time":46.36359,"velocity":0.3937007874015748},{"duration":0.09090899999999635,"midi":43,"time":46.36359,"velocity":0.3937007874015748},{"duration":0.09090899999999635,"midi":55,"time":46.36359,"velocity":0.3937007874015748},{"duration":0.09090899999999635,"midi":46,"time":69.09084,"velocity":0.3937007874015748},{"duration":0.09090899999999635,"midi":43,"time":69.09084,"velocity":0.3937007874015748},{"duration":0.09090899999999635,"midi":31,"time":69.09084,"velocity":0.3937007874015748},{"duration":0.09090899999999635,"midi":43,"time":69.09084,"velocity":0.3937007874015748},{"duration":0.09090899999999635,"midi":34,"time":69.09084,"velocity":0.3937007874015748},{"duration":0.09090899999999635,"midi":34,"time":69.09084,"velocity":0.3937007874015748},{"duration":0.09090899999999635,"midi":31,"time":69.09084,"velocity":0.3937007874015748},{"duration":0.09090899999999635,"midi":46,"time":69.09084,"velocity":0.3937007874015748},{"duration":0.09090900000001056,"midi":31,"time":69.181749,"velocity":0.3937007874015748},{"duration":0.09090900000001056,"midi":46,"time":69.181749,"velocity":0.3937007874015748},{"duration":0.09090900000001056,"midi":34,"time":69.181749,"velocity":0.3937007874015748},{"duration":0.09090900000001056,"midi":43,"time":69.181749,"velocity":0.3937007874015748},{"duration":0.09090900000001056,"midi":34,"time":69.181749,"velocity":0.3937007874015748},{"duration":0.09090900000001056,"midi":31,"time":69.181749,"velocity":0.3937007874015748},{"duration":0.09090900000001056,"midi":43,"time":69.181749,"velocity":0.3937007874015748},{"duration":0.09090900000001056,"midi":46,"time":69.181749,"velocity":0.3937007874015748},{"duration":0.09090899999999635,"midi":31,"time":69.272658,"velocity":0.3937007874015748},{"duration":0.09090899999999635,"midi":43,"time":69.272658,"velocity":0.3937007874015748},{"duration":0.09090899999999635,"midi":34,"time":69.272658,"velocity":0.3937007874015748},{"duration":0.09090899999999635,"midi":43,"time":69.272658,"velocity":0.3937007874015748},{"duration":0.09090899999999635,"midi":46,"time":69.272658,"velocity":0.3937007874015748},{"duration":0.09090899999999635,"midi":46,"time":69.272658,"velocity":0.3937007874015748},{"duration":0.09090899999999635,"midi":31,"time":69.272658,"velocity":0.3937007874015748},{"duration":0.09090899999999635,"midi":34,"time":69.272658,"velocity":0.3937007874015748},{"duration":0.09090899999999635,"midi":34,"time":69.363567,"velocity":0.3937007874015748},{"duration":0.09090899999999635,"midi":34,"time":69.363567,"velocity":0.3937007874015748},{"duration":0.09090899999999635,"midi":46,"time":69.363567,"velocity":0.3937007874015748},{"duration":0.09090899999999635,"midi":43,"time":69.363567,"velocity":0.3937007874015748},{"duration":0.09090899999999635,"midi":31,"time":69.363567,"velocity":0.3937007874015748},{"duration":0.09090899999999635,"midi":43,"time":69.363567,"velocity":0.3937007874015748},{"duration":0.09090899999999635,"midi":31,"time":69.363567,"velocity":0.3937007874015748},{"duration":0.09090899999999635,"midi":46,"time":69.363567,"velocity":0.3937007874015748},{"duration":0.18181800000000692,"midi":46,"time":69.454476,"velocity":0.3937007874015748},{"duration":0.18181800000000692,"midi":55,"time":69.454476,"velocity":0.3937007874015748},{"duration":0.18181800000000692,"midi":46,"time":69.454476,"velocity":0.3937007874015748},{"duration":0.18181800000000692,"midi":50,"time":69.454476,"velocity":0.3937007874015748},{"duration":0.18181800000000692,"midi":50,"time":69.454476,"velocity":0.3937007874015748},{"duration":0.18181800000000692,"midi":43,"time":69.454476,"velocity":0.3937007874015748},{"duration":0.18181800000000692,"midi":55,"time":69.454476,"velocity":0.3937007874015748},{"duration":0.18181800000000692,"midi":38,"time":69.454476,"velocity":0.3937007874015748},{"duration":0.18181800000000692,"midi":38,"time":69.454476,"velocity":0.3937007874015748},{"duration":0.18181800000000692,"midi":43,"time":69.454476,"velocity":0.3937007874015748},{"duration":0.1818179999999927,"midi":46,"time":69.636294,"velocity":0.3937007874015748},{"duration":0.1818179999999927,"midi":34,"time":69.636294,"velocity":0.3937007874015748},{"duration":0.1818179999999927,"midi":46,"time":69.636294,"velocity":0.3937007874015748},{"duration":0.1818179999999927,"midi":43,"time":69.636294,"velocity":0.3937007874015748},{"duration":0.1818179999999927,"midi":34,"time":69.636294,"velocity":0.3937007874015748},{"duration":0.1818179999999927,"midi":38,"time":69.636294,"velocity":0.3937007874015748},{"duration":0.1818179999999927,"midi":38,"time":69.636294,"velocity":0.3937007874015748},{"duration":0.1818179999999927,"midi":43,"time":69.636294,"velocity":0.3937007874015748},{"duration":0.18181800000000692,"midi":46,"time":110.545344,"velocity":0.3937007874015748},{"duration":0.1818179999999927,"midi":43,"time":110.727162,"velocity":0.3937007874015748},{"duration":0.18181800000000692,"midi":46,"time":111.272616,"velocity":0.3937007874015748},{"duration":0.1818179999999927,"midi":43,"time":111.454434,"velocity":0.3937007874015748},{"duration":0.3636359999999996,"midi":45,"time":111.636252,"velocity":0.3937007874015748},{"duration":0.18181800000000692,"midi":46,"time":111.999888,"velocity":0.3937007874015748},{"duration":0.1818179999999927,"midi":43,"time":112.181706,"velocity":0.3937007874015748},{"duration":0.18181800000000692,"midi":46,"time":112.72716,"velocity":0.3937007874015748},{"duration":0.18181800000000692,"midi":43,"time":112.908978,"velocity":0.3937007874015748},{"duration":0.3636359999999996,"midi":45,"time":113.09079600000001,"velocity":0.3937007874015748},{"duration":0.1818179999999927,"midi":46,"time":113.45443200000001,"velocity":0.3937007874015748},{"duration":0.18181800000000692,"midi":43,"time":113.63625,"velocity":0.3937007874015748},{"duration":0.1818179999999927,"midi":46,"time":114.18170400000001,"velocity":0.3937007874015748},{"duration":0.18181800000000692,"midi":43,"time":114.363522,"velocity":0.3937007874015748},{"duration":0.3636359999999996,"midi":45,"time":114.54534000000001,"velocity":0.3937007874015748},{"duration":0.1818179999999927,"midi":46,"time":114.90897600000001,"velocity":0.3937007874015748},{"duration":0.18181800000000692,"midi":43,"time":115.090794,"velocity":0.3937007874015748},{"duration":0.1818179999999927,"midi":46,"time":115.63624800000001,"velocity":0.3937007874015748},{"duration":0.18181800000000692,"midi":43,"time":115.818066,"velocity":0.3937007874015748},{"duration":0.3636359999999996,"midi":45,"time":115.99988400000001,"velocity":0.3937007874015748},{"duration":0.1818179999999927,"midi":46,"time":116.36352000000001,"velocity":0.3937007874015748},{"duration":0.18181800000000692,"midi":43,"time":116.545338,"velocity":0.3937007874015748},{"duration":0.1818179999999927,"midi":46,"time":117.09079200000001,"velocity":0.3937007874015748},{"duration":0.18181800000000692,"midi":43,"time":117.27261,"velocity":0.3937007874015748},{"duration":0.3636359999999996,"midi":45,"time":117.45442800000001,"velocity":0.3937007874015748},{"duration":0.1818179999999927,"midi":46,"time":117.818064,"velocity":0.3937007874015748},{"duration":0.18181800000000692,"midi":43,"time":117.999882,"velocity":0.3937007874015748},{"duration":0.1818179999999927,"midi":46,"time":118.545336,"velocity":0.3937007874015748},{"duration":0.18181800000000692,"midi":43,"time":118.727154,"velocity":0.3937007874015748},{"duration":0.3636359999999996,"midi":45,"time":118.908972,"velocity":0.3937007874015748},{"duration":0.1818179999999927,"midi":46,"time":119.272608,"velocity":0.3937007874015748},{"duration":0.18181800000000692,"midi":43,"time":119.454426,"velocity":0.3937007874015748},{"duration":0.18181800000000692,"midi":46,"time":119.99988,"velocity":0.3937007874015748},{"duration":0.1818179999999927,"midi":43,"time":120.18169800000001,"velocity":0.3937007874015748},{"duration":0.3636359999999996,"midi":45,"time":120.363516,"velocity":0.3937007874015748},{"duration":0.18181800000000692,"midi":46,"time":120.727152,"velocity":0.3937007874015748},{"duration":0.1818179999999927,"midi":43,"time":120.90897000000001,"velocity":0.3937007874015748},{"duration":0.18181800000000692,"midi":46,"time":121.454424,"velocity":0.3937007874015748},{"duration":0.1818179999999927,"midi":43,"time":121.63624200000001,"velocity":0.3937007874015748},{"duration":0.3636359999999996,"midi":45,"time":121.81806,"velocity":0.3937007874015748},{"duration":0.18181800000000692,"midi":46,"time":122.181696,"velocity":0.3937007874015748},{"duration":0.1818179999999927,"midi":43,"time":122.36351400000001,"velocity":0.3937007874015748},{"duration":0.18181800000000692,"midi":46,"time":122.908968,"velocity":0.3937007874015748},{"duration":0.1818179999999927,"midi":43,"time":123.09078600000001,"velocity":0.3937007874015748},{"duration":0.3636359999999996,"midi":45,"time":123.272604,"velocity":0.3937007874015748},{"duration":0.18181800000000692,"midi":46,"time":123.63624,"velocity":0.3937007874015748},{"duration":0.1818179999999927,"midi":43,"time":123.81805800000001,"velocity":0.3937007874015748},{"duration":0.18181800000000692,"midi":46,"time":124.363512,"velocity":0.3937007874015748},{"duration":0.1818179999999927,"midi":43,"time":124.54533,"velocity":0.3937007874015748},{"duration":0.3636359999999996,"midi":45,"time":124.727148,"velocity":0.3937007874015748},{"duration":0.18181800000000692,"midi":46,"time":125.090784,"velocity":0.3937007874015748},{"duration":0.1818179999999927,"midi":43,"time":125.272602,"velocity":0.3937007874015748},{"duration":0.18181800000000692,"midi":46,"time":125.818056,"velocity":0.3937007874015748},{"duration":0.1818179999999927,"midi":43,"time":125.999874,"velocity":0.3937007874015748},{"duration":0.36363600000001384,"midi":45,"time":126.181692,"velocity":0.3937007874015748},{"duration":0.1818179999999927,"midi":46,"time":126.54532800000001,"velocity":0.3937007874015748},{"duration":0.18181800000000692,"midi":43,"time":126.727146,"velocity":0.3937007874015748},{"duration":0.1818179999999927,"midi":46,"time":127.27260000000001,"velocity":0.3937007874015748},{"duration":0.1818179999999927,"midi":46,"time":127.27260000000001,"velocity":0.3937007874015748},{"duration":0.18181800000000692,"midi":43,"time":127.454418,"velocity":0.3937007874015748},{"duration":0.18181800000000692,"midi":43,"time":127.454418,"velocity":0.3937007874015748},{"duration":0.18181800000000692,"midi":43,"time":127.454418,"velocity":0.3937007874015748},{"duration":0.3636359999999996,"midi":45,"time":127.63623600000001,"velocity":0.3937007874015748},{"duration":0.3636359999999996,"midi":45,"time":127.63623600000001,"velocity":0.3937007874015748},{"duration":0.3636359999999996,"midi":45,"time":127.63623600000001,"velocity":0.3937007874015748},{"duration":0.3636359999999996,"midi":45,"time":127.63623600000001,"velocity":0.3937007874015748},{"duration":0.36363600000001384,"midi":46,"time":162.908928,"velocity":0.3937007874015748},{"duration":0.36363600000001384,"midi":50,"time":162.908928,"velocity":0.3937007874015748},{"duration":0.2727270000000033,"midi":53,"time":163.27256400000002,"velocity":0.3937007874015748},{"duration":0.2727270000000033,"midi":50,"time":163.27256400000002,"velocity":0.3937007874015748},{"duration":0.04545449999997686,"midi":49,"time":163.54529100000002,"velocity":0.3937007874015748},{"duration":0.04545449999997686,"midi":45,"time":163.54529100000002,"velocity":0.3937007874015748},{"duration":0.04545450000000528,"midi":46,"time":163.5907455,"velocity":0.3937007874015748},{"duration":0.04545450000000528,"midi":50,"time":163.5907455,"velocity":0.3937007874015748},{"duration":0.1818179999999927,"midi":48,"time":163.6362,"velocity":0.3937007874015748},{"duration":0.1818179999999927,"midi":45,"time":163.6362,"velocity":0.3937007874015748},{"duration":0.36363600000001384,"midi":46,"time":163.818018,"velocity":0.3937007874015748},{"duration":0.36363600000001384,"midi":43,"time":163.818018,"velocity":0.3937007874015748},{"duration":0.1818179999999927,"midi":43,"time":164.181654,"velocity":0.3937007874015748},{"duration":0.36363600000001384,"midi":46,"time":164.363472,"velocity":0.3937007874015748},{"duration":0.36363600000001384,"midi":50,"time":164.363472,"velocity":0.3937007874015748},{"duration":0.3636359999999854,"midi":53,"time":164.72710800000002,"velocity":0.3937007874015748},{"duration":0.3636359999999854,"midi":50,"time":164.72710800000002,"velocity":0.3937007874015748},{"duration":0.36363600000001384,"midi":46,"time":165.090744,"velocity":0.3937007874015748},{"duration":0.36363600000001384,"midi":50,"time":165.090744,"velocity":0.3937007874015748},{"duration":0.3636359999999854,"midi":53,"time":165.45438000000001,"velocity":0.3937007874015748},{"duration":0.3636359999999854,"midi":50,"time":165.45438000000001,"velocity":0.3937007874015748},{"duration":0.36363600000001384,"midi":48,"time":165.818016,"velocity":0.3937007874015748},{"duration":0.36363600000001384,"midi":45,"time":165.818016,"velocity":0.3937007874015748},{"duration":0.2727270000000033,"midi":45,"time":166.181652,"velocity":0.3937007874015748},{"duration":0.2727270000000033,"midi":48,"time":166.181652,"velocity":0.3937007874015748},{"duration":0.04545449999997686,"midi":45,"time":166.45437900000002,"velocity":0.3937007874015748},{"duration":0.04545449999997686,"midi":49,"time":166.45437900000002,"velocity":0.3937007874015748},{"duration":0.04545450000000528,"midi":46,"time":166.4998335,"velocity":0.3937007874015748},{"duration":0.04545450000000528,"midi":50,"time":166.4998335,"velocity":0.3937007874015748},{"duration":0.18181800000002113,"midi":45,"time":166.545288,"velocity":0.3937007874015748},{"duration":0.18181800000002113,"midi":48,"time":166.545288,"velocity":0.3937007874015748},{"duration":0.3636359999999854,"midi":43,"time":166.72710600000002,"velocity":0.3937007874015748},{"duration":0.1818179999999927,"midi":43,"time":167.090742,"velocity":0.3937007874015748},{"duration":0.36363600000001384,"midi":49,"time":167.27256,"velocity":0.3937007874015748},{"duration":0.36363600000001384,"midi":46,"time":167.27256,"velocity":0.3937007874015748},{"duration":0.3636359999999854,"midi":45,"time":167.636196,"velocity":0.3937007874015748},{"duration":0.3636359999999854,"midi":48,"time":167.636196,"velocity":0.3937007874015748},{"duration":0.36363600000001384,"midi":49,"time":167.999832,"velocity":0.3937007874015748},{"duration":0.36363600000001384,"midi":46,"time":167.999832,"velocity":0.3937007874015748},{"duration":0.1818179999999927,"midi":45,"time":168.363468,"velocity":0.3937007874015748},{"duration":0.1818179999999927,"midi":48,"time":168.363468,"velocity":0.3937007874015748},{"duration":0.1818179999999927,"midi":43,"time":168.545286,"velocity":0.3937007874015748},{"duration":0.1818179999999927,"midi":46,"time":168.545286,"velocity":0.3937007874015748},{"duration":0.36363600000001384,"midi":46,"time":168.727104,"velocity":0.3937007874015748},{"duration":0.36363600000001384,"midi":50,"time":168.727104,"velocity":0.3937007874015748},{"duration":0.2727270000000033,"midi":50,"time":169.09074,"velocity":0.3937007874015748},{"duration":0.2727270000000033,"midi":53,"time":169.09074,"velocity":0.3937007874015748},{"duration":0.04545450000000528,"midi":45,"time":169.363467,"velocity":0.3937007874015748},{"duration":0.04545450000000528,"midi":49,"time":169.363467,"velocity":0.3937007874015748},{"duration":0.04545449999997686,"midi":50,"time":169.40892150000002,"velocity":0.3937007874015748},{"duration":0.04545449999997686,"midi":46,"time":169.40892150000002,"velocity":0.3937007874015748},{"duration":0.18181800000002113,"midi":45,"time":169.454376,"velocity":0.3937007874015748},{"duration":0.18181800000002113,"midi":48,"time":169.454376,"velocity":0.3937007874015748},{"duration":0.3636359999999854,"midi":43,"time":169.63619400000002,"velocity":0.3937007874015748},{"duration":0.3636359999999854,"midi":46,"time":169.63619400000002,"velocity":0.3937007874015748},{"duration":0.1818179999999927,"midi":43,"time":169.99983,"velocity":0.3937007874015748},{"duration":0.36363600000001384,"midi":46,"time":170.181648,"velocity":0.3937007874015748},{"duration":0.36363600000001384,"midi":50,"time":170.181648,"velocity":0.3937007874015748},{"duration":0.3636359999999854,"midi":53,"time":170.545284,"velocity":0.3937007874015748},{"duration":0.3636359999999854,"midi":50,"time":170.545284,"velocity":0.3937007874015748},{"duration":0.36363600000001384,"midi":50,"time":170.90892,"velocity":0.3937007874015748},{"duration":0.36363600000001384,"midi":46,"time":170.90892,"velocity":0.3937007874015748},{"duration":0.3636359999999854,"midi":50,"time":171.272556,"velocity":0.3937007874015748},{"duration":0.3636359999999854,"midi":53,"time":171.272556,"velocity":0.3937007874015748},{"duration":0.36363600000001384,"midi":48,"time":171.636192,"velocity":0.3937007874015748},{"duration":0.36363600000001384,"midi":45,"time":171.636192,"velocity":0.3937007874015748},{"duration":0.2727270000000033,"midi":45,"time":171.999828,"velocity":0.3937007874015748},{"duration":0.2727270000000033,"midi":48,"time":171.999828,"velocity":0.3937007874015748},{"duration":0.04545450000000528,"midi":45,"time":172.272555,"velocity":0.3937007874015748},{"duration":0.04545450000000528,"midi":49,"time":172.272555,"velocity":0.3937007874015748},{"duration":0.04545449999997686,"midi":50,"time":172.31800950000002,"velocity":0.3937007874015748},{"duration":0.04545449999997686,"midi":46,"time":172.31800950000002,"velocity":0.3937007874015748},{"duration":0.18181800000002113,"midi":48,"time":172.363464,"velocity":0.3937007874015748},{"duration":0.18181800000002113,"midi":45,"time":172.363464,"velocity":0.3937007874015748},{"duration":0.3636359999999854,"midi":46,"time":172.54528200000001,"velocity":0.3937007874015748},{"duration":0.3636359999999854,"midi":43,"time":172.54528200000001,"velocity":0.3937007874015748},{"duration":0.18181800000002113,"midi":43,"time":172.908918,"velocity":0.3937007874015748},{"duration":0.3636359999999854,"midi":46,"time":173.09073600000002,"velocity":0.3937007874015748},{"duration":0.3636359999999854,"midi":49,"time":173.09073600000002,"velocity":0.3937007874015748},{"duration":0.36363600000001384,"midi":45,"time":173.454372,"velocity":0.3937007874015748},{"duration":0.36363600000001384,"midi":48,"time":173.454372,"velocity":0.3937007874015748},{"duration":0.3636359999999854,"midi":49,"time":173.81800800000002,"velocity":0.3937007874015748},{"duration":0.3636359999999854,"midi":46,"time":173.81800800000002,"velocity":0.3937007874015748},{"duration":0.1818179999999927,"midi":45,"time":174.181644,"velocity":0.3937007874015748},{"duration":0.1818179999999927,"midi":48,"time":174.181644,"velocity":0.3937007874015748},{"duration":0.18181800000002113,"midi":43,"time":174.363462,"velocity":0.3937007874015748},{"duration":0.18181800000002113,"midi":46,"time":174.363462,"velocity":0.3937007874015748},{"duration":0.18181800000002113,"midi":43,"time":197.817984,"velocity":0.3937007874015748},{"duration":0.18181800000002113,"midi":48,"time":197.817984,"velocity":0.3937007874015748},{"duration":0.1818179999999927,"midi":48,"time":198.18162,"velocity":0.3937007874015748},{"duration":0.1818179999999927,"midi":43,"time":198.18162,"velocity":0.3937007874015748},{"duration":0.18181800000002113,"midi":43,"time":198.545256,"velocity":0.3937007874015748},{"duration":0.18181800000002113,"midi":48,"time":198.545256,"velocity":0.3937007874015748},{"duration":0.1818179999999927,"midi":48,"time":198.908892,"velocity":0.3937007874015748},{"duration":0.1818179999999927,"midi":43,"time":198.908892,"velocity":0.3937007874015748},{"duration":0.18181800000002113,"midi":46,"time":199.272528,"velocity":0.3937007874015748},{"duration":0.18181800000002113,"midi":53,"time":199.272528,"velocity":0.3937007874015748},{"duration":0.1818179999999927,"midi":53,"time":199.636164,"velocity":0.3937007874015748},{"duration":0.1818179999999927,"midi":46,"time":199.636164,"velocity":0.3937007874015748},{"duration":0.1818179999999927,"midi":46,"time":199.99980000000002,"velocity":0.3937007874015748},{"duration":0.1818179999999927,"midi":53,"time":199.99980000000002,"velocity":0.3937007874015748},{"duration":0.1818179999999927,"midi":46,"time":200.363436,"velocity":0.3937007874015748},{"duration":0.1818179999999927,"midi":53,"time":200.363436,"velocity":0.3937007874015748},{"duration":0.1818179999999927,"midi":45,"time":200.72707200000002,"velocity":0.3937007874015748},{"duration":0.1818179999999927,"midi":52,"time":200.72707200000002,"velocity":0.3937007874015748},{"duration":0.1818179999999927,"midi":52,"time":201.090708,"velocity":0.3937007874015748},{"duration":0.1818179999999927,"midi":45,"time":201.090708,"velocity":0.3937007874015748},{"duration":0.1818179999999927,"midi":45,"time":201.45434400000002,"velocity":0.3937007874015748},{"duration":0.1818179999999927,"midi":52,"time":201.45434400000002,"velocity":0.3937007874015748},{"duration":0.1818179999999927,"midi":52,"time":201.81798,"velocity":0.3937007874015748},{"duration":0.1818179999999927,"midi":45,"time":201.81798,"velocity":0.3937007874015748},{"duration":0.1818179999999927,"midi":46,"time":202.18161600000002,"velocity":0.3937007874015748},{"duration":0.1818179999999927,"midi":53,"time":202.18161600000002,"velocity":0.3937007874015748},{"duration":0.1818179999999927,"midi":46,"time":202.545252,"velocity":0.3937007874015748},{"duration":0.1818179999999927,"midi":53,"time":202.545252,"velocity":0.3937007874015748},{"duration":0.1818179999999927,"midi":53,"time":202.90888800000002,"velocity":0.3937007874015748},{"duration":0.1818179999999927,"midi":46,"time":202.90888800000002,"velocity":0.3937007874015748},{"duration":0.1818179999999927,"midi":46,"time":203.272524,"velocity":0.3937007874015748},{"duration":0.1818179999999927,"midi":53,"time":203.272524,"velocity":0.3937007874015748},{"duration":0.1818179999999927,"midi":50,"time":203.63616000000002,"velocity":0.3937007874015748},{"duration":0.1818179999999927,"midi":57,"time":203.63616000000002,"velocity":0.3937007874015748},{"duration":0.1818179999999927,"midi":50,"time":203.999796,"velocity":0.3937007874015748},{"duration":0.1818179999999927,"midi":57,"time":203.999796,"velocity":0.3937007874015748},{"duration":0.1818179999999927,"midi":50,"time":204.36343200000002,"velocity":0.3937007874015748},{"duration":0.1818179999999927,"midi":57,"time":204.36343200000002,"velocity":0.3937007874015748},{"duration":0.1818179999999927,"midi":57,"time":204.727068,"velocity":0.3937007874015748},{"duration":0.1818179999999927,"midi":50,"time":204.727068,"velocity":0.3937007874015748},{"duration":0.1818179999999927,"midi":57,"time":205.09070400000002,"velocity":0.3937007874015748},{"duration":0.1818179999999927,"midi":50,"time":205.09070400000002,"velocity":0.3937007874015748},{"duration":0.1818179999999927,"midi":57,"time":205.45434,"velocity":0.3937007874015748},{"duration":0.1818179999999927,"midi":50,"time":205.45434,"velocity":0.3937007874015748},{"duration":0.1818179999999927,"midi":50,"time":205.81797600000002,"velocity":0.3937007874015748},{"duration":0.1818179999999927,"midi":57,"time":205.81797600000002,"velocity":0.3937007874015748},{"duration":0.18181800000002113,"midi":50,"time":206.181612,"velocity":0.3937007874015748},{"duration":0.18181800000002113,"midi":57,"time":206.181612,"velocity":0.3937007874015748},{"duration":0.1818179999999927,"midi":52,"time":206.54524800000002,"velocity":0.3937007874015748},{"duration":0.1818179999999927,"midi":45,"time":206.54524800000002,"velocity":0.3937007874015748},{"duration":0.18181800000002113,"midi":52,"time":206.908884,"velocity":0.3937007874015748},{"duration":0.18181800000002113,"midi":45,"time":206.908884,"velocity":0.3937007874015748},{"duration":0.1818179999999927,"midi":52,"time":207.27252000000001,"velocity":0.3937007874015748},{"duration":0.1818179999999927,"midi":45,"time":207.27252000000001,"velocity":0.3937007874015748},{"duration":0.18181800000002113,"midi":52,"time":207.636156,"velocity":0.3937007874015748},{"duration":0.18181800000002113,"midi":45,"time":207.636156,"velocity":0.3937007874015748},{"duration":0.1818179999999927,"midi":43,"time":207.999792,"velocity":0.3937007874015748},{"duration":0.1818179999999927,"midi":50,"time":207.999792,"velocity":0.3937007874015748},{"duration":0.18181800000002113,"midi":50,"time":208.363428,"velocity":0.3937007874015748},{"duration":0.18181800000002113,"midi":43,"time":208.363428,"velocity":0.3937007874015748},{"duration":0.1818179999999927,"midi":43,"time":208.727064,"velocity":0.3937007874015748},{"duration":0.1818179999999927,"midi":50,"time":208.727064,"velocity":0.3937007874015748},{"duration":0.18181800000002113,"midi":43,"time":209.0907,"velocity":0.3937007874015748},{"duration":0.18181800000002113,"midi":50,"time":209.0907,"velocity":0.3937007874015748},{"duration":0.1818179999999927,"midi":48,"time":209.454336,"velocity":0.3937007874015748},{"duration":0.1818179999999927,"midi":43,"time":209.454336,"velocity":0.3937007874015748},{"duration":0.18181800000002113,"midi":43,"time":209.817972,"velocity":0.3937007874015748},{"duration":0.18181800000002113,"midi":48,"time":209.817972,"velocity":0.3937007874015748},{"duration":0.1818179999999927,"midi":43,"time":210.181608,"velocity":0.3937007874015748},{"duration":0.1818179999999927,"midi":48,"time":210.181608,"velocity":0.3937007874015748},{"duration":0.18181800000002113,"midi":48,"time":210.545244,"velocity":0.3937007874015748},{"duration":0.18181800000002113,"midi":43,"time":210.545244,"velocity":0.3937007874015748},{"duration":0.1818179999999927,"midi":46,"time":210.90888,"velocity":0.3937007874015748},{"duration":0.1818179999999927,"midi":53,"time":210.90888,"velocity":0.3937007874015748},{"duration":0.18181800000002113,"midi":46,"time":211.272516,"velocity":0.3937007874015748},{"duration":0.18181800000002113,"midi":53,"time":211.272516,"velocity":0.3937007874015748},{"duration":0.1818179999999927,"midi":53,"time":211.636152,"velocity":0.3937007874015748},{"duration":0.1818179999999927,"midi":46,"time":211.636152,"velocity":0.3937007874015748},{"duration":0.18181800000002113,"midi":53,"time":211.999788,"velocity":0.3937007874015748},{"duration":0.18181800000002113,"midi":46,"time":211.999788,"velocity":0.3937007874015748},{"duration":0.1818179999999927,"midi":52,"time":212.363424,"velocity":0.3937007874015748},{"duration":0.1818179999999927,"midi":45,"time":212.363424,"velocity":0.3937007874015748},{"duration":0.18181800000002113,"midi":45,"time":212.72706,"velocity":0.3937007874015748},{"duration":0.18181800000002113,"midi":52,"time":212.72706,"velocity":0.3937007874015748},{"duration":0.1818179999999927,"midi":52,"time":213.090696,"velocity":0.3937007874015748},{"duration":0.1818179999999927,"midi":45,"time":213.090696,"velocity":0.3937007874015748},{"duration":0.1818179999999927,"midi":45,"time":213.45433200000002,"velocity":0.3937007874015748},{"duration":0.1818179999999927,"midi":52,"time":213.45433200000002,"velocity":0.3937007874015748},{"duration":0.1818179999999927,"midi":53,"time":213.817968,"velocity":0.3937007874015748},{"duration":0.1818179999999927,"midi":46,"time":213.817968,"velocity":0.3937007874015748},{"duration":0.1818179999999927,"midi":46,"time":214.18160400000002,"velocity":0.3937007874015748},{"duration":0.1818179999999927,"midi":53,"time":214.18160400000002,"velocity":0.3937007874015748},{"duration":0.1818179999999927,"midi":46,"time":214.54524,"velocity":0.3937007874015748},{"duration":0.1818179999999927,"midi":53,"time":214.54524,"velocity":0.3937007874015748},{"duration":0.1818179999999927,"midi":46,"time":214.90887600000002,"velocity":0.3937007874015748},{"duration":0.1818179999999927,"midi":53,"time":214.90887600000002,"velocity":0.3937007874015748},{"duration":0.1818179999999927,"midi":57,"time":215.272512,"velocity":0.3937007874015748},{"duration":0.1818179999999927,"midi":50,"time":215.272512,"velocity":0.3937007874015748},{"duration":0.1818179999999927,"midi":50,"time":215.63614800000002,"velocity":0.3937007874015748},{"duration":0.1818179999999927,"midi":57,"time":215.63614800000002,"velocity":0.3937007874015748},{"duration":0.1818179999999927,"midi":57,"time":215.999784,"velocity":0.3937007874015748},{"duration":0.1818179999999927,"midi":50,"time":215.999784,"velocity":0.3937007874015748},{"duration":0.1818179999999927,"midi":57,"time":216.36342000000002,"velocity":0.3937007874015748},{"duration":0.1818179999999927,"midi":50,"time":216.36342000000002,"velocity":0.3937007874015748},{"duration":0.1818179999999927,"midi":57,"time":216.727056,"velocity":0.3937007874015748},{"duration":0.1818179999999927,"midi":50,"time":216.727056,"velocity":0.3937007874015748},{"duration":0.1818179999999927,"midi":57,"time":217.09069200000002,"velocity":0.3937007874015748},{"duration":0.1818179999999927,"midi":50,"time":217.09069200000002,"velocity":0.3937007874015748},{"duration":0.1818179999999927,"midi":57,"time":217.454328,"velocity":0.3937007874015748},{"duration":0.1818179999999927,"midi":50,"time":217.454328,"velocity":0.3937007874015748},{"duration":0.1818179999999927,"midi":50,"time":217.81796400000002,"velocity":0.3937007874015748},{"duration":0.1818179999999927,"midi":57,"time":217.81796400000002,"velocity":0.3937007874015748},{"duration":0.1818179999999927,"midi":45,"time":218.1816,"velocity":0.3937007874015748},{"duration":0.1818179999999927,"midi":52,"time":218.1816,"velocity":0.3937007874015748},{"duration":0.1818179999999927,"midi":52,"time":218.54523600000002,"velocity":0.3937007874015748},{"duration":0.1818179999999927,"midi":45,"time":218.54523600000002,"velocity":0.3937007874015748},{"duration":0.1818179999999927,"midi":52,"time":218.908872,"velocity":0.3937007874015748},{"duration":0.1818179999999927,"midi":45,"time":218.908872,"velocity":0.3937007874015748},{"duration":0.1818179999999927,"midi":45,"time":219.27250800000002,"velocity":0.3937007874015748},{"duration":0.1818179999999927,"midi":52,"time":219.27250800000002,"velocity":0.3937007874015748},{"duration":0.18181800000002113,"midi":43,"time":219.636144,"velocity":0.3937007874015748},{"duration":0.18181800000002113,"midi":50,"time":219.636144,"velocity":0.3937007874015748},{"duration":0.1818179999999927,"midi":43,"time":219.99978000000002,"velocity":0.3937007874015748},{"duration":0.1818179999999927,"midi":50,"time":219.99978000000002,"velocity":0.3937007874015748},{"duration":0.18181800000002113,"midi":43,"time":220.363416,"velocity":0.3937007874015748},{"duration":0.18181800000002113,"midi":50,"time":220.363416,"velocity":0.3937007874015748},{"duration":0.1818179999999927,"midi":50,"time":220.72705200000001,"velocity":0.3937007874015748},{"duration":0.1818179999999927,"midi":43,"time":220.72705200000001,"velocity":0.3937007874015748},{"duration":0.1818179999999927,"midi":46,"time":226.90886400000002,"velocity":0.3937007874015748},{"duration":0.1818179999999927,"midi":43,"time":227.09068200000002,"velocity":0.3937007874015748},{"duration":0.1818179999999927,"midi":46,"time":227.63613600000002,"velocity":0.3937007874015748},{"duration":0.1818179999999927,"midi":43,"time":227.81795400000001,"velocity":0.3937007874015748},{"duration":0.36363600000001384,"midi":45,"time":227.999772,"velocity":0.3937007874015748},{"duration":0.1818179999999927,"midi":46,"time":228.36340800000002,"velocity":0.3937007874015748},{"duration":0.1818179999999927,"midi":43,"time":228.545226,"velocity":0.3937007874015748},{"duration":0.1818179999999927,"midi":46,"time":229.09068000000002,"velocity":0.3937007874015748},{"duration":0.1818179999999927,"midi":43,"time":229.272498,"velocity":0.3937007874015748},{"duration":0.36363600000001384,"midi":45,"time":229.454316,"velocity":0.3937007874015748},{"duration":0.1818179999999927,"midi":46,"time":229.81795200000002,"velocity":0.3937007874015748},{"duration":0.1818179999999927,"midi":43,"time":229.99977,"velocity":0.3937007874015748},{"duration":0.1818179999999927,"midi":46,"time":230.54522400000002,"velocity":0.3937007874015748},{"duration":0.1818179999999927,"midi":43,"time":230.727042,"velocity":0.3937007874015748},{"duration":0.36363600000001384,"midi":45,"time":230.90886,"velocity":0.3937007874015748},{"duration":0.1818179999999927,"midi":46,"time":231.27249600000002,"velocity":0.3937007874015748},{"duration":0.1818179999999927,"midi":43,"time":231.454314,"velocity":0.3937007874015748},{"duration":0.1818179999999927,"midi":46,"time":231.99976800000002,"velocity":0.3937007874015748},{"duration":0.1818179999999927,"midi":43,"time":232.181586,"velocity":0.3937007874015748},{"duration":0.36363600000001384,"midi":45,"time":232.363404,"velocity":0.3937007874015748},{"duration":0.1818179999999927,"midi":46,"time":232.72704000000002,"velocity":0.3937007874015748},{"duration":0.1818179999999927,"midi":43,"time":232.908858,"velocity":0.3937007874015748},{"duration":0.1818179999999927,"midi":46,"time":233.45431200000002,"velocity":0.3937007874015748},{"duration":0.1818179999999927,"midi":43,"time":233.63613,"velocity":0.3937007874015748},{"duration":0.36363600000001384,"midi":45,"time":233.817948,"velocity":0.3937007874015748},{"duration":0.1818179999999927,"midi":46,"time":234.18158400000002,"velocity":0.3937007874015748},{"duration":0.1818179999999927,"midi":43,"time":234.363402,"velocity":0.3937007874015748},{"duration":0.1818179999999927,"midi":46,"time":234.90885600000001,"velocity":0.3937007874015748},{"duration":0.1818179999999927,"midi":43,"time":235.090674,"velocity":0.3937007874015748},{"duration":0.36363600000001384,"midi":45,"time":235.272492,"velocity":0.3937007874015748},{"duration":0.1818179999999927,"midi":46,"time":235.636128,"velocity":0.3937007874015748},{"duration":0.1818179999999927,"midi":43,"time":235.817946,"velocity":0.3937007874015748},{"duration":0.1818179999999927,"midi":46,"time":236.3634,"velocity":0.3937007874015748},{"duration":0.1818179999999927,"midi":43,"time":236.545218,"velocity":0.3937007874015748},{"duration":0.36363600000001384,"midi":45,"time":236.727036,"velocity":0.3937007874015748},{"duration":0.1818179999999927,"midi":46,"time":237.090672,"velocity":0.3937007874015748},{"duration":0.1818179999999927,"midi":43,"time":237.27249,"velocity":0.3937007874015748},{"duration":0.1818179999999927,"midi":46,"time":237.817944,"velocity":0.3937007874015748},{"duration":0.1818179999999927,"midi":43,"time":237.999762,"velocity":0.3937007874015748},{"duration":0.36363600000001384,"midi":45,"time":238.18158,"velocity":0.3937007874015748},{"duration":0.1818179999999927,"midi":46,"time":238.545216,"velocity":0.3937007874015748},{"duration":0.1818179999999927,"midi":43,"time":238.727034,"velocity":0.3937007874015748},{"duration":0.1818179999999927,"midi":46,"time":239.272488,"velocity":0.3937007874015748},{"duration":0.18181800000002113,"midi":43,"time":239.454306,"velocity":0.3937007874015748},{"duration":0.3636359999999854,"midi":45,"time":239.63612400000002,"velocity":0.3937007874015748},{"duration":0.1818179999999927,"midi":46,"time":239.99976,"velocity":0.3937007874015748},{"duration":0.18181800000002113,"midi":43,"time":240.181578,"velocity":0.3937007874015748},{"duration":0.1818179999999927,"midi":46,"time":240.727032,"velocity":0.3937007874015748},{"duration":0.18181800000002113,"midi":43,"time":240.90885,"velocity":0.3937007874015748},{"duration":0.3636359999999854,"midi":45,"time":241.09066800000002,"velocity":0.3937007874015748},{"duration":0.1818179999999927,"midi":46,"time":241.454304,"velocity":0.3937007874015748},{"duration":0.18181800000002113,"midi":43,"time":241.636122,"velocity":0.3937007874015748},{"duration":0.1818179999999927,"midi":46,"time":242.181576,"velocity":0.3937007874015748},{"duration":0.18181800000002113,"midi":43,"time":242.363394,"velocity":0.3937007874015748},{"duration":0.3636359999999854,"midi":45,"time":242.54521200000002,"velocity":0.3937007874015748},{"duration":0.1818179999999927,"midi":46,"time":242.908848,"velocity":0.3937007874015748},{"duration":0.18181800000002113,"midi":43,"time":243.090666,"velocity":0.3937007874015748},{"duration":0.1818179999999927,"midi":46,"time":243.63612,"velocity":0.3937007874015748},{"duration":0.1818179999999927,"midi":46,"time":243.63612,"velocity":0.3937007874015748},{"duration":0.18181800000002113,"midi":43,"time":243.817938,"velocity":0.3937007874015748},{"duration":0.18181800000002113,"midi":43,"time":243.817938,"velocity":0.3937007874015748},{"duration":0.18181800000002113,"midi":43,"time":243.817938,"velocity":0.3937007874015748},{"duration":0.3636359999999854,"midi":45,"time":243.99975600000002,"velocity":0.3937007874015748},{"duration":0.3636359999999854,"midi":45,"time":243.99975600000002,"velocity":0.3937007874015748},{"duration":0.3636359999999854,"midi":45,"time":243.99975600000002,"velocity":0.3937007874015748},{"duration":0.3636359999999854,"midi":45,"time":243.99975600000002,"velocity":0.3937007874015748},{"duration":0.36363600000001384,"midi":62,"time":244.363392,"velocity":0.3937007874015748},{"duration":0.2727270000000033,"midi":65,"time":244.72702800000002,"velocity":0.3937007874015748},{"duration":0.04545449999997686,"midi":61,"time":244.99975500000002,"velocity":0.3937007874015748},{"duration":0.04545450000000528,"midi":62,"time":245.0452095,"velocity":0.3937007874015748},{"duration":0.1818179999999927,"midi":60,"time":245.090664,"velocity":0.3937007874015748},{"duration":0.36363600000001384,"midi":58,"time":245.272482,"velocity":0.3937007874015748},{"duration":0.1818179999999927,"midi":55,"time":245.636118,"velocity":0.3937007874015748},{"duration":0.36363600000001384,"midi":62,"time":245.817936,"velocity":0.3937007874015748},{"duration":0.3636359999999854,"midi":65,"time":246.18157200000002,"velocity":0.3937007874015748},{"duration":0.36363600000001384,"midi":62,"time":246.545208,"velocity":0.3937007874015748},{"duration":0.3636359999999854,"midi":65,"time":246.90884400000002,"velocity":0.3937007874015748},{"duration":0.36363600000001384,"midi":60,"time":247.27248,"velocity":0.3937007874015748},{"duration":0.2727270000000033,"midi":60,"time":247.63611600000002,"velocity":0.3937007874015748},{"duration":0.04545450000000528,"midi":61,"time":247.90884300000002,"velocity":0.3937007874015748},{"duration":0.04545449999997686,"midi":62,"time":247.95429750000002,"velocity":0.3937007874015748},{"duration":0.18181800000002113,"midi":60,"time":247.999752,"velocity":0.3937007874015748},{"duration":0.3636359999999854,"midi":58,"time":248.18157000000002,"velocity":0.3937007874015748},{"duration":0.1818179999999927,"midi":55,"time":248.545206,"velocity":0.3937007874015748},{"duration":0.36363600000001384,"midi":61,"time":248.727024,"velocity":0.3937007874015748},{"duration":0.3636359999999854,"midi":60,"time":249.09066,"velocity":0.3937007874015748},{"duration":0.36363600000001384,"midi":61,"time":249.454296,"velocity":0.3937007874015748},{"duration":0.1818179999999927,"midi":60,"time":249.817932,"velocity":0.3937007874015748},{"duration":0.1818179999999927,"midi":58,"time":249.99975,"velocity":0.3937007874015748},{"duration":0.36363600000001384,"midi":62,"time":250.181568,"velocity":0.3937007874015748},{"duration":0.2727270000000033,"midi":65,"time":250.545204,"velocity":0.3937007874015748},{"duration":0.04545450000000528,"midi":61,"time":250.81793100000002,"velocity":0.3937007874015748},{"duration":0.04545449999997686,"midi":62,"time":250.86338550000002,"velocity":0.3937007874015748},{"duration":0.18181800000002113,"midi":60,"time":250.90884,"velocity":0.3937007874015748},{"duration":0.3636359999999854,"midi":58,"time":251.09065800000002,"velocity":0.3937007874015748},{"duration":0.1818179999999927,"midi":55,"time":251.454294,"velocity":0.3937007874015748},{"duration":0.36363600000001384,"midi":62,"time":251.636112,"velocity":0.3937007874015748},{"duration":0.3636359999999854,"midi":65,"time":251.999748,"velocity":0.3937007874015748},{"duration":0.36363600000001384,"midi":62,"time":252.363384,"velocity":0.3937007874015748},{"duration":0.36363600000001384,"midi":65,"time":252.72702,"velocity":0.3937007874015748},{"duration":0.3636359999999854,"midi":60,"time":253.09065600000002,"velocity":0.3937007874015748},{"duration":0.2727270000000033,"midi":60,"time":253.454292,"velocity":0.3937007874015748},{"duration":0.04545450000000528,"midi":61,"time":253.727019,"velocity":0.3937007874015748},{"duration":0.04545450000000528,"midi":62,"time":253.77247350000002,"velocity":0.3937007874015748},{"duration":0.1818179999999927,"midi":60,"time":253.81792800000002,"velocity":0.3937007874015748},{"duration":0.3636359999999854,"midi":58,"time":253.99974600000002,"velocity":0.3937007874015748},{"duration":0.18181800000002113,"midi":55,"time":254.363382,"velocity":0.3937007874015748},{"duration":0.3636359999999854,"midi":61,"time":254.54520000000002,"velocity":0.3937007874015748},{"duration":0.36363600000001384,"midi":60,"time":254.908836,"velocity":0.3937007874015748},{"duration":0.3636359999999854,"midi":61,"time":255.27247200000002,"velocity":0.3937007874015748},{"duration":0.1818179999999927,"midi":60,"time":255.636108,"velocity":0.3937007874015748},{"duration":0.18181800000002113,"midi":58,"time":255.817926,"velocity":0.3937007874015748},{"duration":0.3636359999999854,"midi":62,"time":255.99974400000002,"velocity":0.3937007874015748},{"duration":0.2727270000000317,"midi":65,"time":256.36338,"velocity":0.3937007874015748},{"duration":0.04545449999994844,"midi":61,"time":256.63610700000004,"velocity":0.3937007874015748},{"duration":0.04545450000000528,"midi":62,"time":256.6815615,"velocity":0.3937007874015748},{"duration":0.18181800000002113,"midi":60,"time":256.727016,"velocity":0.3937007874015748},{"duration":0.3636359999999854,"midi":58,"time":256.908834,"velocity":0.3937007874015748},{"duration":0.18181800000002113,"midi":55,"time":257.27247,"velocity":0.3937007874015748},{"duration":0.3636359999999854,"midi":62,"time":257.454288,"velocity":0.3937007874015748},{"duration":0.3636359999999854,"midi":65,"time":257.817924,"velocity":0.3937007874015748},{"duration":0.36363600000004226,"midi":62,"time":258.18156,"velocity":0.3937007874015748},{"duration":0.3636359999999854,"midi":65,"time":258.54519600000003,"velocity":0.3937007874015748},{"duration":0.3636359999999854,"midi":60,"time":258.908832,"velocity":0.3937007874015748},{"duration":0.2727270000000317,"midi":60,"time":259.272468,"velocity":0.3937007874015748},{"duration":0.04545449999994844,"midi":61,"time":259.54519500000004,"velocity":0.3937007874015748},{"duration":0.04545450000000528,"midi":62,"time":259.5906495,"velocity":0.3937007874015748},{"duration":0.18181800000002113,"midi":60,"time":259.636104,"velocity":0.3937007874015748},{"duration":0.3636359999999854,"midi":58,"time":259.817922,"velocity":0.3937007874015748},{"duration":0.18181800000002113,"midi":55,"time":260.181558,"velocity":0.3937007874015748},{"duration":0.3636359999999854,"midi":61,"time":260.363376,"velocity":0.3937007874015748},{"duration":0.3636359999999854,"midi":60,"time":260.727012,"velocity":0.3937007874015748},{"duration":0.36363600000004226,"midi":61,"time":261.090648,"velocity":0.3937007874015748},{"duration":0.18181799999996429,"midi":60,"time":261.45428400000003,"velocity":0.3937007874015748},{"duration":0.18181800000002113,"midi":58,"time":261.636102,"velocity":0.3937007874015748},{"duration":0.3636359999999854,"midi":62,"time":261.81792,"velocity":0.3937007874015748},{"duration":0.2727270000000317,"midi":65,"time":262.181556,"velocity":0.3937007874015748},{"duration":0.04545450000000528,"midi":61,"time":262.45428300000003,"velocity":0.3937007874015748},{"duration":0.04545449999994844,"midi":62,"time":262.49973750000004,"velocity":0.3937007874015748},{"duration":0.18181800000002113,"midi":60,"time":262.545192,"velocity":0.3937007874015748},{"duration":0.3636359999999854,"midi":58,"time":262.72701,"velocity":0.3937007874015748},{"duration":0.18181800000002113,"midi":55,"time":263.090646,"velocity":0.3937007874015748},{"duration":0.3636359999999854,"midi":62,"time":263.272464,"velocity":0.3937007874015748},{"duration":0.3636359999999854,"midi":65,"time":263.6361,"velocity":0.3937007874015748},{"duration":0.36363600000004226,"midi":62,"time":263.999736,"velocity":0.3937007874015748},{"duration":0.3636359999999854,"midi":65,"time":264.363372,"velocity":0.3937007874015748},{"duration":0.3636359999999854,"midi":60,"time":264.727008,"velocity":0.3937007874015748},{"duration":0.2727270000000317,"midi":60,"time":265.090644,"velocity":0.3937007874015748},{"duration":0.04545450000000528,"midi":61,"time":265.36337100000003,"velocity":0.3937007874015748},{"duration":0.04545449999994844,"midi":62,"time":265.40882550000003,"velocity":0.3937007874015748},{"duration":0.18181800000002113,"midi":60,"time":265.45428,"velocity":0.3937007874015748},{"duration":0.3636359999999854,"midi":58,"time":265.636098,"velocity":0.3937007874015748},{"duration":0.18181800000002113,"midi":55,"time":265.999734,"velocity":0.3937007874015748},{"duration":0.3636359999999854,"midi":61,"time":266.181552,"velocity":0.3937007874015748},{"duration":0.36363600000004226,"midi":60,"time":266.545188,"velocity":0.3937007874015748},{"duration":0.3636359999999854,"midi":61,"time":266.90882400000004,"velocity":0.3937007874015748},{"duration":0.18181799999996429,"midi":60,"time":267.27246,"velocity":0.3937007874015748},{"duration":0.18181800000002113,"midi":58,"time":267.454278,"velocity":0.3937007874015748}]},{"instrument":{"family":"synth lead","number":81,"name":"lead 2 (sawtooth)"},"notes":[{"duration":0.090909,"midi":67,"time":0,"velocity":0.3937007874015748},{"duration":0.09090900000000002,"midi":70,"time":0.363636,"velocity":0.3937007874015748},{"duration":0.09090900000000002,"midi":67,"time":0.545454,"velocity":0.3937007874015748},{"duration":0.09090900000000002,"midi":62,"time":0.727272,"velocity":0.3937007874015748},{"duration":0.09090900000000013,"midi":58,"time":1.090908,"velocity":0.3937007874015748},{"duration":0.0909089999999999,"midi":55,"time":1.454544,"velocity":0.3937007874015748},{"duration":0.0909089999999999,"midi":62,"time":1.8181800000000001,"velocity":0.3937007874015748},{"duration":0.0909089999999999,"midi":62,"time":2.181816,"velocity":0.3937007874015748},{"duration":0.0909089999999999,"midi":61,"time":2.3636340000000002,"velocity":0.3937007874015748},{"duration":0.0909089999999999,"midi":60,"time":2.545452,"velocity":0.3937007874015748},{"duration":0.0909089999999999,"midi":58,"time":2.7272700000000003,"velocity":0.3937007874015748},{"duration":0.0909089999999999,"midi":67,"time":2.909088,"velocity":0.3937007874015748},{"duration":0.0909089999999999,"midi":70,"time":3.272724,"velocity":0.3937007874015748},{"duration":0.09090900000000035,"midi":67,"time":3.454542,"velocity":0.3937007874015748},{"duration":0.0909089999999999,"midi":62,"time":3.6363600000000003,"velocity":0.3937007874015748},{"duration":0.0909089999999999,"midi":58,"time":3.9999960000000003,"velocity":0.3937007874015748},{"duration":0.0909089999999999,"midi":55,"time":4.363632,"velocity":0.3937007874015748},{"duration":0.0909089999999999,"midi":62,"time":4.7272680000000005,"velocity":0.3937007874015748},{"duration":0.0909089999999999,"midi":62,"time":5.090904,"velocity":0.3937007874015748},{"duration":0.0909089999999999,"midi":61,"time":5.272722,"velocity":0.3937007874015748},{"duration":0.0909089999999999,"midi":60,"time":5.454540000000001,"velocity":0.3937007874015748},{"duration":0.0909089999999999,"midi":58,"time":5.636358,"velocity":0.3937007874015748},{"duration":0.0909089999999999,"midi":67,"time":5.818176,"velocity":0.3937007874015748},{"duration":0.0909090000000008,"midi":70,"time":6.181812,"velocity":0.3937007874015748},{"duration":0.0909089999999999,"midi":67,"time":6.363630000000001,"velocity":0.3937007874015748},{"duration":0.0909089999999999,"midi":62,"time":6.545448,"velocity":0.3937007874015748},{"duration":0.0909089999999999,"midi":58,"time":6.909084,"velocity":0.3937007874015748},{"duration":0.0909089999999999,"midi":55,"time":7.2727200000000005,"velocity":0.3937007874015748},{"duration":0.0909089999999999,"midi":62,"time":7.636356,"velocity":0.3937007874015748},{"duration":0.0909089999999999,"midi":62,"time":7.999992000000001,"velocity":0.3937007874015748},{"duration":0.0909089999999999,"midi":61,"time":8.18181,"velocity":0.3937007874015748},{"duration":0.0909089999999999,"midi":60,"time":8.363628,"velocity":0.3937007874015748},{"duration":0.0909089999999999,"midi":58,"time":8.545446,"velocity":0.3937007874015748},{"duration":0.0909089999999999,"midi":67,"time":8.727264,"velocity":0.3937007874015748},{"duration":0.09090900000000168,"midi":70,"time":9.0909,"velocity":0.3937007874015748},{"duration":0.0909089999999999,"midi":67,"time":9.272718000000001,"velocity":0.3937007874015748},{"duration":0.0909089999999999,"midi":62,"time":9.454536000000001,"velocity":0.3937007874015748},{"duration":0.0909089999999999,"midi":58,"time":9.818172,"velocity":0.3937007874015748},{"duration":0.0909089999999999,"midi":55,"time":10.181808,"velocity":0.3937007874015748},{"duration":0.0909089999999999,"midi":62,"time":10.545444,"velocity":0.3937007874015748},{"duration":0.0909089999999999,"midi":62,"time":10.909080000000001,"velocity":0.3937007874015748},{"duration":0.0909089999999999,"midi":61,"time":11.090898000000001,"velocity":0.3937007874015748},{"duration":0.0909089999999999,"midi":60,"time":11.272716,"velocity":0.3937007874015748},{"duration":0.0909089999999999,"midi":58,"time":11.454534,"velocity":0.3937007874015748},{"duration":0.0909089999999999,"midi":69,"time":11.636352,"velocity":0.3937007874015748},{"duration":0.0909089999999999,"midi":70,"time":11.81817,"velocity":0.3937007874015748},{"duration":0.0909089999999999,"midi":72,"time":11.999988,"velocity":0.3937007874015748},{"duration":0.0909089999999999,"midi":70,"time":12.181806,"velocity":0.3937007874015748},{"duration":0.0909089999999999,"midi":69,"time":12.363624,"velocity":0.3937007874015748},{"duration":0.0909089999999999,"midi":70,"time":12.545442000000001,"velocity":0.3937007874015748},{"duration":0.0909089999999999,"midi":72,"time":12.727260000000001,"velocity":0.3937007874015748},{"duration":0.0909089999999999,"midi":70,"time":12.909078000000001,"velocity":0.3937007874015748},{"duration":0.0909089999999999,"midi":69,"time":13.090896,"velocity":0.3937007874015748},{"duration":0.0909089999999999,"midi":70,"time":13.272714,"velocity":0.3937007874015748},{"duration":0.0909089999999999,"midi":72,"time":13.454532,"velocity":0.3937007874015748},{"duration":0.0909089999999999,"midi":70,"time":13.63635,"velocity":0.3937007874015748},{"duration":0.0909089999999999,"midi":69,"time":13.818168,"velocity":0.3937007874015748},{"duration":0.0909089999999999,"midi":70,"time":13.999986,"velocity":0.3937007874015748},{"duration":0.0909089999999999,"midi":72,"time":14.181804000000001,"velocity":0.3937007874015748},{"duration":0.0909089999999999,"midi":70,"time":14.363622000000001,"velocity":0.3937007874015748},{"duration":0.0909089999999999,"midi":65,"time":14.545440000000001,"velocity":0.3937007874015748},{"duration":0.0909089999999999,"midi":69,"time":14.727258,"velocity":0.3937007874015748},{"duration":0.0909089999999999,"midi":72,"time":14.909076,"velocity":0.3937007874015748},{"duration":0.0909089999999999,"midi":69,"time":15.090894,"velocity":0.3937007874015748},{"duration":0.0909089999999999,"midi":65,"time":15.272712,"velocity":0.3937007874015748},{"duration":0.0909089999999999,"midi":69,"time":15.45453,"velocity":0.3937007874015748},{"duration":0.0909089999999999,"midi":72,"time":15.636348,"velocity":0.3937007874015748},{"duration":0.0909089999999999,"midi":69,"time":15.818166000000002,"velocity":0.3937007874015748},{"duration":0.0909089999999999,"midi":67,"time":15.999984000000001,"velocity":0.3937007874015748},{"duration":0.0909089999999999,"midi":70,"time":16.181802,"velocity":0.3937007874015748},{"duration":0.0909089999999999,"midi":74,"time":16.36362,"velocity":0.3937007874015748},{"duration":0.0909089999999999,"midi":70,"time":16.545438,"velocity":0.3937007874015748},{"duration":0.0909089999999999,"midi":67,"time":16.727256,"velocity":0.3937007874015748},{"duration":0.0909089999999999,"midi":70,"time":16.909074,"velocity":0.3937007874015748},{"duration":0.0909089999999999,"midi":74,"time":17.090892,"velocity":0.3937007874015748},{"duration":0.0909089999999999,"midi":70,"time":17.27271,"velocity":0.3937007874015748},{"duration":0.0909089999999999,"midi":69,"time":17.454528,"velocity":0.3937007874015748},{"duration":0.0909089999999999,"midi":70,"time":17.636346,"velocity":0.3937007874015748},{"duration":0.0909089999999999,"midi":72,"time":17.818164,"velocity":0.3937007874015748},{"duration":0.0909089999999999,"midi":70,"time":17.999982,"velocity":0.3937007874015748},{"duration":0.0909089999999999,"midi":69,"time":18.1818,"velocity":0.3937007874015748},{"duration":0.0909089999999999,"midi":70,"time":18.363618000000002,"velocity":0.3937007874015748},{"duration":0.0909089999999999,"midi":72,"time":18.545436000000002,"velocity":0.3937007874015748},{"duration":0.0909089999999999,"midi":70,"time":18.727254000000002,"velocity":0.3937007874015748},{"duration":0.0909089999999999,"midi":69,"time":18.909072000000002,"velocity":0.3937007874015748},{"duration":0.0909089999999999,"midi":70,"time":19.09089,"velocity":0.3937007874015748},{"duration":0.0909089999999999,"midi":72,"time":19.272708,"velocity":0.3937007874015748},{"duration":0.0909089999999999,"midi":70,"time":19.454526,"velocity":0.3937007874015748},{"duration":0.0909089999999999,"midi":69,"time":19.636344,"velocity":0.3937007874015748},{"duration":0.0909089999999999,"midi":70,"time":19.818162,"velocity":0.3937007874015748},{"duration":0.0909089999999999,"midi":72,"time":19.99998,"velocity":0.3937007874015748},{"duration":0.0909089999999999,"midi":70,"time":20.181798,"velocity":0.3937007874015748},{"duration":0.0909089999999999,"midi":65,"time":20.363616,"velocity":0.3937007874015748},{"duration":0.0909089999999999,"midi":69,"time":20.545434,"velocity":0.3937007874015748},{"duration":0.0909089999999999,"midi":72,"time":20.727252,"velocity":0.3937007874015748},{"duration":0.0909089999999999,"midi":69,"time":20.90907,"velocity":0.3937007874015748},{"duration":0.0909089999999999,"midi":65,"time":21.090888,"velocity":0.3937007874015748},{"duration":0.0909089999999999,"midi":69,"time":21.272706,"velocity":0.3937007874015748},{"duration":0.0909089999999999,"midi":72,"time":21.454524,"velocity":0.3937007874015748},{"duration":0.0909089999999999,"midi":69,"time":21.636342000000003,"velocity":0.3937007874015748},{"duration":0.0909089999999999,"midi":67,"time":21.818160000000002,"velocity":0.3937007874015748},{"duration":0.0909089999999999,"midi":70,"time":21.999978000000002,"velocity":0.3937007874015748},{"duration":0.0909089999999999,"midi":74,"time":22.181796000000002,"velocity":0.3937007874015748},{"duration":0.0909089999999999,"midi":70,"time":22.363614000000002,"velocity":0.3937007874015748},{"duration":0.0909089999999999,"midi":67,"time":22.545432,"velocity":0.3937007874015748},{"duration":0.0909089999999999,"midi":70,"time":22.72725,"velocity":0.3937007874015748},{"duration":0.0909089999999999,"midi":74,"time":22.909068,"velocity":0.3937007874015748},{"duration":0.0909089999999999,"midi":70,"time":23.090886,"velocity":0.3937007874015748},{"duration":0.0909089999999999,"midi":31,"time":23.272704,"velocity":0.3937007874015748},{"duration":0.0909089999999999,"midi":31,"time":23.454522,"velocity":0.3937007874015748},{"duration":0.0909089999999999,"midi":43,"time":23.454522,"velocity":0.3937007874015748},{"duration":0.0909089999999999,"midi":31,"time":23.63634,"velocity":0.3937007874015748},{"duration":0.0909089999999999,"midi":31,"time":23.818158,"velocity":0.3937007874015748},{"duration":0.0909089999999999,"midi":43,"time":23.818158,"velocity":0.3937007874015748},{"duration":0.0909089999999999,"midi":31,"time":23.999976,"velocity":0.3937007874015748},{"duration":0.0909089999999999,"midi":43,"time":24.181794,"velocity":0.3937007874015748},{"duration":0.0909089999999999,"midi":31,"time":24.181794,"velocity":0.3937007874015748},{"duration":0.0909089999999999,"midi":31,"time":24.363612,"velocity":0.3937007874015748},{"duration":0.0909089999999999,"midi":31,"time":24.54543,"velocity":0.3937007874015748},{"duration":0.0909089999999999,"midi":43,"time":24.54543,"velocity":0.3937007874015748},{"duration":0.0909089999999999,"midi":28,"time":24.727248,"velocity":0.3937007874015748},{"duration":0.09090900000000346,"midi":28,"time":24.909066,"velocity":0.3937007874015748},{"duration":0.09090900000000346,"midi":40,"time":24.909066,"velocity":0.3937007874015748},{"duration":0.0909089999999999,"midi":28,"time":25.090884000000003,"velocity":0.3937007874015748},{"duration":0.0909089999999999,"midi":40,"time":25.272702000000002,"velocity":0.3937007874015748},{"duration":0.0909089999999999,"midi":28,"time":25.272702000000002,"velocity":0.3937007874015748},{"duration":0.0909089999999999,"midi":28,"time":25.454520000000002,"velocity":0.3937007874015748},{"duration":0.0909089999999999,"midi":28,"time":25.636338000000002,"velocity":0.3937007874015748},{"duration":0.0909089999999999,"midi":40,"time":25.636338000000002,"velocity":0.3937007874015748},{"duration":0.0909089999999999,"midi":28,"time":25.818156000000002,"velocity":0.3937007874015748},{"duration":0.0909089999999999,"midi":28,"time":25.999974,"velocity":0.3937007874015748},{"duration":0.0909089999999999,"midi":40,"time":25.999974,"velocity":0.3937007874015748},{"duration":0.0909089999999999,"midi":29,"time":26.181792,"velocity":0.3937007874015748},{"duration":0.0909089999999999,"midi":41,"time":26.36361,"velocity":0.3937007874015748},{"duration":0.0909089999999999,"midi":29,"time":26.36361,"velocity":0.3937007874015748},{"duration":0.0909089999999999,"midi":29,"time":26.545428,"velocity":0.3937007874015748},{"duration":0.0909089999999999,"midi":41,"time":26.727246,"velocity":0.3937007874015748},{"duration":0.0909089999999999,"midi":29,"time":26.727246,"velocity":0.3937007874015748},{"duration":0.0909089999999999,"midi":29,"time":26.909064,"velocity":0.3937007874015748},{"duration":0.0909089999999999,"midi":41,"time":27.090882,"velocity":0.3937007874015748},{"duration":0.0909089999999999,"midi":29,"time":27.090882,"velocity":0.3937007874015748},{"duration":0.0909089999999999,"midi":29,"time":27.2727,"velocity":0.3937007874015748},{"duration":0.0909089999999999,"midi":29,"time":27.454518,"velocity":0.3937007874015748},{"duration":0.0909089999999999,"midi":41,"time":27.454518,"velocity":0.3937007874015748},{"duration":0.0909089999999999,"midi":31,"time":27.636336,"velocity":0.3937007874015748},{"duration":0.0909089999999999,"midi":43,"time":27.818154,"velocity":0.3937007874015748},{"duration":0.0909089999999999,"midi":31,"time":27.818154,"velocity":0.3937007874015748},{"duration":0.0909089999999999,"midi":31,"time":27.999972,"velocity":0.3937007874015748},{"duration":0.09090900000000346,"midi":31,"time":28.18179,"velocity":0.3937007874015748},{"duration":0.09090900000000346,"midi":43,"time":28.18179,"velocity":0.3937007874015748},{"duration":0.0909089999999999,"midi":31,"time":28.363608000000003,"velocity":0.3937007874015748},{"duration":0.0909089999999999,"midi":31,"time":28.545426000000003,"velocity":0.3937007874015748},{"duration":0.0909089999999999,"midi":43,"time":28.545426000000003,"velocity":0.3937007874015748},{"duration":0.0909089999999999,"midi":31,"time":28.727244000000002,"velocity":0.3937007874015748},{"duration":0.0909089999999999,"midi":43,"time":28.909062000000002,"velocity":0.3937007874015748},{"duration":0.0909089999999999,"midi":31,"time":28.909062000000002,"velocity":0.3937007874015748},{"duration":0.0909089999999999,"midi":31,"time":29.090880000000002,"velocity":0.3937007874015748},{"duration":0.0909089999999999,"midi":43,"time":29.272698000000002,"velocity":0.3937007874015748},{"duration":0.0909089999999999,"midi":31,"time":29.272698000000002,"velocity":0.3937007874015748},{"duration":0.0909089999999999,"midi":31,"time":29.454516,"velocity":0.3937007874015748},{"duration":0.0909089999999999,"midi":43,"time":29.636334,"velocity":0.3937007874015748},{"duration":0.0909089999999999,"midi":31,"time":29.636334,"velocity":0.3937007874015748},{"duration":0.0909089999999999,"midi":31,"time":29.818152,"velocity":0.3937007874015748},{"duration":0.0909089999999999,"midi":31,"time":29.99997,"velocity":0.3937007874015748},{"duration":0.0909089999999999,"midi":43,"time":29.99997,"velocity":0.3937007874015748},{"duration":0.0909089999999999,"midi":31,"time":30.181788,"velocity":0.3937007874015748},{"duration":0.0909089999999999,"midi":31,"time":30.363606,"velocity":0.3937007874015748},{"duration":0.0909089999999999,"midi":43,"time":30.363606,"velocity":0.3937007874015748},{"duration":0.0909089999999999,"midi":28,"time":30.545424,"velocity":0.3937007874015748},{"duration":0.0909089999999999,"midi":40,"time":30.727242,"velocity":0.3937007874015748},{"duration":0.0909089999999999,"midi":28,"time":30.727242,"velocity":0.3937007874015748},{"duration":0.0909089999999999,"midi":28,"time":30.90906,"velocity":0.3937007874015748},{"duration":0.0909089999999999,"midi":28,"time":31.090878,"velocity":0.3937007874015748},{"duration":0.0909089999999999,"midi":40,"time":31.090878,"velocity":0.3937007874015748},{"duration":0.0909089999999999,"midi":28,"time":31.272696,"velocity":0.3937007874015748},{"duration":0.0909089999999999,"midi":28,"time":31.454514,"velocity":0.3937007874015748},{"duration":0.0909089999999999,"midi":40,"time":31.454514,"velocity":0.3937007874015748},{"duration":0.0909089999999999,"midi":28,"time":31.636332000000003,"velocity":0.3937007874015748},{"duration":0.0909089999999999,"midi":40,"time":31.818150000000003,"velocity":0.3937007874015748},{"duration":0.0909089999999999,"midi":28,"time":31.818150000000003,"velocity":0.3937007874015748},{"duration":0.09090899999999635,"midi":29,"time":31.999968000000003,"velocity":0.3937007874015748},{"duration":0.09090899999999635,"midi":41,"time":32.181786,"velocity":0.3937007874015748},{"duration":0.09090899999999635,"midi":29,"time":32.181786,"velocity":0.3937007874015748},{"duration":0.09090899999999635,"midi":29,"time":32.363604,"velocity":0.3937007874015748},{"duration":0.09090899999999635,"midi":29,"time":32.545422,"velocity":0.3937007874015748},{"duration":0.09090899999999635,"midi":41,"time":32.545422,"velocity":0.3937007874015748},{"duration":0.09090899999999635,"midi":29,"time":32.72724,"velocity":0.3937007874015748},{"duration":0.09090899999999635,"midi":29,"time":32.909058,"velocity":0.3937007874015748},{"duration":0.09090899999999635,"midi":41,"time":32.909058,"velocity":0.3937007874015748},{"duration":0.09090899999999635,"midi":29,"time":33.090876,"velocity":0.3937007874015748},{"duration":0.09090900000000346,"midi":29,"time":33.272694,"velocity":0.3937007874015748},{"duration":0.09090900000000346,"midi":41,"time":33.272694,"velocity":0.3937007874015748},{"duration":0.09090900000000346,"midi":31,"time":33.454512,"velocity":0.3937007874015748},{"duration":0.09090900000000346,"midi":31,"time":33.63633,"velocity":0.3937007874015748},{"duration":0.09090900000000346,"midi":43,"time":33.63633,"velocity":0.3937007874015748},{"duration":0.09090900000000346,"midi":31,"time":33.818148,"velocity":0.3937007874015748},{"duration":0.09090900000000346,"midi":43,"time":33.999966,"velocity":0.3937007874015748},{"duration":0.09090900000000346,"midi":31,"time":33.999966,"velocity":0.3937007874015748},{"duration":0.09090900000000346,"midi":62,"time":34.909056,"velocity":0.3937007874015748},{"duration":0.09090900000000346,"midi":74,"time":34.909056,"velocity":0.3937007874015748},{"duration":0.09090900000000346,"midi":65,"time":35.272692,"velocity":0.3937007874015748},{"duration":0.09090900000000346,"midi":77,"time":35.272692,"velocity":0.3937007874015748},{"duration":0.022727249999995536,"midi":73,"time":35.545419,"velocity":0.3937007874015748},{"duration":0.022727249999995536,"midi":61,"time":35.545419,"velocity":0.3937007874015748},{"duration":0.02272725000000264,"midi":74,"time":35.5908735,"velocity":0.3937007874015748},{"duration":0.02272725000000264,"midi":62,"time":35.5908735,"velocity":0.3937007874015748},{"duration":0.09090900000000346,"midi":72,"time":35.636328,"velocity":0.3937007874015748},{"duration":0.09090900000000346,"midi":60,"time":35.636328,"velocity":0.3937007874015748},{"duration":0.09090900000000346,"midi":58,"time":35.818146,"velocity":0.3937007874015748},{"duration":0.09090900000000346,"midi":70,"time":35.818146,"velocity":0.3937007874015748},{"duration":0.09090900000000346,"midi":55,"time":36.181782,"velocity":0.3937007874015748},{"duration":0.09090900000000346,"midi":67,"time":36.181782,"velocity":0.3937007874015748},{"duration":0.09090900000000346,"midi":62,"time":36.3636,"velocity":0.3937007874015748},{"duration":0.09090900000000346,"midi":74,"time":36.3636,"velocity":0.3937007874015748},{"duration":0.09090899999999635,"midi":65,"time":36.727236000000005,"velocity":0.3937007874015748},{"duration":0.09090899999999635,"midi":77,"time":36.727236000000005,"velocity":0.3937007874015748},{"duration":0.09090899999999635,"midi":74,"time":37.090872000000005,"velocity":0.3937007874015748},{"duration":0.09090899999999635,"midi":62,"time":37.090872000000005,"velocity":0.3937007874015748},{"duration":0.09090899999999635,"midi":77,"time":37.454508000000004,"velocity":0.3937007874015748},{"duration":0.09090899999999635,"midi":65,"time":37.454508000000004,"velocity":0.3937007874015748},{"duration":0.09090899999999635,"midi":72,"time":37.818144000000004,"velocity":0.3937007874015748},{"duration":0.09090899999999635,"midi":60,"time":37.818144000000004,"velocity":0.3937007874015748},{"duration":0.09090899999999635,"midi":72,"time":38.18178,"velocity":0.3937007874015748},{"duration":0.09090899999999635,"midi":60,"time":38.18178,"velocity":0.3937007874015748},{"duration":0.02272725000000264,"midi":73,"time":38.454507,"velocity":0.3937007874015748},{"duration":0.02272725000000264,"midi":61,"time":38.454507,"velocity":0.3937007874015748},{"duration":0.022727249999995536,"midi":74,"time":38.499961500000005,"velocity":0.3937007874015748},{"duration":0.022727249999995536,"midi":62,"time":38.499961500000005,"velocity":0.3937007874015748},{"duration":0.09090899999999635,"midi":60,"time":38.545416,"velocity":0.3937007874015748},{"duration":0.09090899999999635,"midi":72,"time":38.545416,"velocity":0.3937007874015748},{"duration":0.09090899999999635,"midi":58,"time":38.727234,"velocity":0.3937007874015748},{"duration":0.09090899999999635,"midi":70,"time":38.727234,"velocity":0.3937007874015748},{"duration":0.09090899999999635,"midi":55,"time":39.09087,"velocity":0.3937007874015748},{"duration":0.09090899999999635,"midi":67,"time":39.09087,"velocity":0.3937007874015748},{"duration":0.09090899999999635,"midi":61,"time":39.272688,"velocity":0.3937007874015748},{"duration":0.09090899999999635,"midi":73,"time":39.272688,"velocity":0.3937007874015748},{"duration":0.09090899999999635,"midi":72,"time":39.636324,"velocity":0.3937007874015748},{"duration":0.09090899999999635,"midi":60,"time":39.636324,"velocity":0.3937007874015748},{"duration":0.09090900000000346,"midi":61,"time":39.99996,"velocity":0.3937007874015748},{"duration":0.09090900000000346,"midi":73,"time":39.99996,"velocity":0.3937007874015748},{"duration":0.09090900000000346,"midi":72,"time":40.363596,"velocity":0.3937007874015748},{"duration":0.09090900000000346,"midi":60,"time":40.363596,"velocity":0.3937007874015748},{"duration":0.09090900000000346,"midi":70,"time":40.545414,"velocity":0.3937007874015748},{"duration":0.09090900000000346,"midi":58,"time":40.545414,"velocity":0.3937007874015748},{"duration":0.09090900000000346,"midi":74,"time":40.727232,"velocity":0.3937007874015748},{"duration":0.09090900000000346,"midi":62,"time":40.727232,"velocity":0.3937007874015748},{"duration":0.09090900000000346,"midi":77,"time":41.090868,"velocity":0.3937007874015748},{"duration":0.09090900000000346,"midi":65,"time":41.090868,"velocity":0.3937007874015748},{"duration":0.022727249999995536,"midi":73,"time":41.363595000000004,"velocity":0.3937007874015748},{"duration":0.022727249999995536,"midi":61,"time":41.363595000000004,"velocity":0.3937007874015748},{"duration":0.02272725000000264,"midi":62,"time":41.4090495,"velocity":0.3937007874015748},{"duration":0.02272725000000264,"midi":74,"time":41.4090495,"velocity":0.3937007874015748},{"duration":0.09090900000000346,"midi":72,"time":41.454504,"velocity":0.3937007874015748},{"duration":0.09090900000000346,"midi":60,"time":41.454504,"velocity":0.3937007874015748},{"duration":0.09090900000000346,"midi":58,"time":41.636322,"velocity":0.3937007874015748},{"duration":0.09090900000000346,"midi":70,"time":41.636322,"velocity":0.3937007874015748},{"duration":0.09090900000000346,"midi":55,"time":41.999958,"velocity":0.3937007874015748},{"duration":0.09090900000000346,"midi":67,"time":41.999958,"velocity":0.3937007874015748},{"duration":0.09090900000000346,"midi":74,"time":42.181776,"velocity":0.3937007874015748},{"duration":0.09090900000000346,"midi":62,"time":42.181776,"velocity":0.3937007874015748},{"duration":0.09090900000000346,"midi":77,"time":42.545412,"velocity":0.3937007874015748},{"duration":0.09090900000000346,"midi":65,"time":42.545412,"velocity":0.3937007874015748},{"duration":0.09090900000000346,"midi":74,"time":42.909048,"velocity":0.3937007874015748},{"duration":0.09090900000000346,"midi":62,"time":42.909048,"velocity":0.3937007874015748},{"duration":0.09090899999999635,"midi":77,"time":43.272684000000005,"velocity":0.3937007874015748},{"duration":0.09090899999999635,"midi":65,"time":43.272684000000005,"velocity":0.3937007874015748},{"duration":0.09090899999999635,"midi":72,"time":43.636320000000005,"velocity":0.3937007874015748},{"duration":0.09090899999999635,"midi":60,"time":43.636320000000005,"velocity":0.3937007874015748},{"duration":0.09090899999999635,"midi":72,"time":43.999956000000005,"velocity":0.3937007874015748},{"duration":0.09090899999999635,"midi":60,"time":43.999956000000005,"velocity":0.3937007874015748},{"duration":0.02272725000000264,"midi":73,"time":44.272683,"velocity":0.3937007874015748},{"duration":0.02272725000000264,"midi":61,"time":44.272683,"velocity":0.3937007874015748},{"duration":0.02272725000000264,"midi":74,"time":44.3181375,"velocity":0.3937007874015748},{"duration":0.02272725000000264,"midi":62,"time":44.3181375,"velocity":0.3937007874015748},{"duration":0.09090899999999635,"midi":60,"time":44.363592000000004,"velocity":0.3937007874015748},{"duration":0.09090899999999635,"midi":72,"time":44.363592000000004,"velocity":0.3937007874015748},{"duration":0.09090899999999635,"midi":70,"time":44.545410000000004,"velocity":0.3937007874015748},{"duration":0.09090899999999635,"midi":58,"time":44.545410000000004,"velocity":0.3937007874015748},{"duration":0.09090899999999635,"midi":55,"time":44.909046000000004,"velocity":0.3937007874015748},{"duration":0.09090899999999635,"midi":67,"time":44.909046000000004,"velocity":0.3937007874015748},{"duration":0.09090899999999635,"midi":73,"time":45.090864,"velocity":0.3937007874015748},{"duration":0.09090899999999635,"midi":61,"time":45.090864,"velocity":0.3937007874015748},{"duration":0.09090899999999635,"midi":60,"time":45.4545,"velocity":0.3937007874015748},{"duration":0.09090899999999635,"midi":72,"time":45.4545,"velocity":0.3937007874015748},{"duration":0.09090899999999635,"midi":61,"time":45.818136,"velocity":0.3937007874015748},{"duration":0.09090899999999635,"midi":73,"time":45.818136,"velocity":0.3937007874015748},{"duration":0.09090899999999635,"midi":60,"time":46.181772,"velocity":0.3937007874015748},{"duration":0.09090899999999635,"midi":72,"time":46.181772,"velocity":0.3937007874015748},{"duration":0.09090899999999635,"midi":58,"time":46.36359,"velocity":0.3937007874015748},{"duration":0.09090899999999635,"midi":70,"time":46.36359,"velocity":0.3937007874015748},{"duration":0.09090899999999635,"midi":29,"time":93.090816,"velocity":0.3937007874015748},{"duration":0.09090899999999635,"midi":31,"time":93.818088,"velocity":0.3937007874015748},{"duration":0.09090899999999635,"midi":31,"time":94.181724,"velocity":0.3937007874015748},{"duration":0.09090899999999635,"midi":31,"time":94.36354200000001,"velocity":0.3937007874015748},{"duration":0.09090899999999635,"midi":29,"time":94.54536,"velocity":0.3937007874015748},{"duration":0.09090899999999635,"midi":31,"time":95.272632,"velocity":0.3937007874015748},{"duration":0.09090899999999635,"midi":31,"time":95.636268,"velocity":0.3937007874015748},{"duration":0.09090899999999635,"midi":31,"time":95.81808600000001,"velocity":0.3937007874015748},{"duration":0.09090899999999635,"midi":29,"time":95.999904,"velocity":0.3937007874015748},{"duration":0.09090900000001056,"midi":31,"time":96.727176,"velocity":0.3937007874015748},{"duration":0.09090900000001056,"midi":31,"time":97.090812,"velocity":0.3937007874015748},{"duration":0.09090899999999635,"midi":31,"time":97.27263,"velocity":0.3937007874015748},{"duration":0.09090900000001056,"midi":29,"time":97.454448,"velocity":0.3937007874015748},{"duration":0.09090900000001056,"midi":31,"time":98.18172,"velocity":0.3937007874015748},{"duration":0.09090900000001056,"midi":31,"time":98.545356,"velocity":0.3937007874015748},{"duration":0.09090899999999635,"midi":31,"time":98.727174,"velocity":0.3937007874015748},{"duration":0.09090900000001056,"midi":29,"time":98.908992,"velocity":0.3937007874015748},{"duration":0.09090900000001056,"midi":31,"time":99.636264,"velocity":0.3937007874015748},{"duration":0.09090899999999635,"midi":31,"time":99.99990000000001,"velocity":0.3937007874015748},{"duration":0.09090899999999635,"midi":31,"time":100.181718,"velocity":0.3937007874015748},{"duration":0.09090899999999635,"midi":29,"time":100.36353600000001,"velocity":0.3937007874015748},{"duration":0.09090899999999635,"midi":31,"time":101.09080800000001,"velocity":0.3937007874015748},{"duration":0.09090899999999635,"midi":31,"time":101.45444400000001,"velocity":0.3937007874015748},{"duration":0.09090899999999635,"midi":31,"time":101.636262,"velocity":0.3937007874015748},{"duration":0.09090899999999635,"midi":29,"time":101.81808000000001,"velocity":0.3937007874015748},{"duration":0.09090899999999635,"midi":31,"time":102.54535200000001,"velocity":0.3937007874015748},{"duration":0.09090899999999635,"midi":31,"time":102.90898800000001,"velocity":0.3937007874015748},{"duration":0.09090900000001056,"midi":31,"time":103.090806,"velocity":0.3937007874015748},{"duration":0.09090899999999635,"midi":29,"time":103.27262400000001,"velocity":0.3937007874015748},{"duration":0.09090899999999635,"midi":31,"time":103.999896,"velocity":0.3937007874015748},{"duration":0.1818179999999927,"midi":62,"time":151.27257600000002,"velocity":0.3937007874015748},{"duration":0.1818179999999927,"midi":58,"time":151.27257600000002,"velocity":0.3937007874015748},{"duration":0.1818179999999927,"midi":65,"time":151.636212,"velocity":0.3937007874015748},{"duration":0.1818179999999927,"midi":62,"time":151.636212,"velocity":0.3937007874015748},{"duration":0.02272725000000264,"midi":61,"time":151.908939,"velocity":0.3937007874015748},{"duration":0.02272725000000264,"midi":57,"time":151.908939,"velocity":0.3937007874015748},{"duration":0.02272725000000264,"midi":62,"time":151.9543935,"velocity":0.3937007874015748},{"duration":0.02272725000000264,"midi":58,"time":151.9543935,"velocity":0.3937007874015748},{"duration":0.09090899999998214,"midi":60,"time":151.99984800000001,"velocity":0.3937007874015748},{"duration":0.09090899999998214,"midi":57,"time":151.99984800000001,"velocity":0.3937007874015748},{"duration":0.1818179999999927,"midi":55,"time":152.181666,"velocity":0.3937007874015748},{"duration":0.1818179999999927,"midi":58,"time":152.181666,"velocity":0.3937007874015748},{"duration":0.09090900000001056,"midi":55,"time":152.545302,"velocity":0.3937007874015748},{"duration":0.1818179999999927,"midi":62,"time":152.72712,"velocity":0.3937007874015748},{"duration":0.1818179999999927,"midi":58,"time":152.72712,"velocity":0.3937007874015748},{"duration":0.18181800000002113,"midi":62,"time":153.090756,"velocity":0.3937007874015748},{"duration":0.18181800000002113,"midi":65,"time":153.090756,"velocity":0.3937007874015748},{"duration":0.1818179999999927,"midi":62,"time":153.454392,"velocity":0.3937007874015748},{"duration":0.1818179999999927,"midi":58,"time":153.454392,"velocity":0.3937007874015748},{"duration":0.18181800000002113,"midi":65,"time":153.818028,"velocity":0.3937007874015748},{"duration":0.18181800000002113,"midi":62,"time":153.818028,"velocity":0.3937007874015748},{"duration":0.1818179999999927,"midi":57,"time":154.181664,"velocity":0.3937007874015748},{"duration":0.1818179999999927,"midi":60,"time":154.181664,"velocity":0.3937007874015748},{"duration":0.18181800000002113,"midi":60,"time":154.5453,"velocity":0.3937007874015748},{"duration":0.18181800000002113,"midi":57,"time":154.5453,"velocity":0.3937007874015748},{"duration":0.02272725000000264,"midi":57,"time":154.818027,"velocity":0.3937007874015748},{"duration":0.02272725000000264,"midi":61,"time":154.818027,"velocity":0.3937007874015748},{"duration":0.02272725000000264,"midi":58,"time":154.8634815,"velocity":0.3937007874015748},{"duration":0.02272725000000264,"midi":62,"time":154.8634815,"velocity":0.3937007874015748},{"duration":0.09090899999998214,"midi":60,"time":154.908936,"velocity":0.3937007874015748},{"duration":0.09090899999998214,"midi":57,"time":154.908936,"velocity":0.3937007874015748},{"duration":0.09090900000001056,"midi":58,"time":155.090754,"velocity":0.3937007874015748},{"duration":0.09090900000001056,"midi":55,"time":155.090754,"velocity":0.3937007874015748},{"duration":0.09090900000001056,"midi":55,"time":155.272572,"velocity":0.3937007874015748},{"duration":0.09090900000001056,"midi":58,"time":155.272572,"velocity":0.3937007874015748},{"duration":0.09090899999998214,"midi":55,"time":155.45439000000002,"velocity":0.3937007874015748},{"duration":0.1818179999999927,"midi":58,"time":155.636208,"velocity":0.3937007874015748},{"duration":0.1818179999999927,"midi":61,"time":155.636208,"velocity":0.3937007874015748},{"duration":0.18181800000002113,"midi":57,"time":155.999844,"velocity":0.3937007874015748},{"duration":0.18181800000002113,"midi":60,"time":155.999844,"velocity":0.3937007874015748},{"duration":0.1818179999999927,"midi":61,"time":156.36348,"velocity":0.3937007874015748},{"duration":0.1818179999999927,"midi":58,"time":156.36348,"velocity":0.3937007874015748},{"duration":0.09090900000001056,"midi":60,"time":156.727116,"velocity":0.3937007874015748},{"duration":0.09090900000001056,"midi":57,"time":156.727116,"velocity":0.3937007874015748},{"duration":0.09090899999998214,"midi":58,"time":156.90893400000002,"velocity":0.3937007874015748},{"duration":0.09090899999998214,"midi":55,"time":156.90893400000002,"velocity":0.3937007874015748},{"duration":0.1818179999999927,"midi":58,"time":157.090752,"velocity":0.3937007874015748},{"duration":0.1818179999999927,"midi":62,"time":157.090752,"velocity":0.3937007874015748},{"duration":0.18181800000002113,"midi":62,"time":157.454388,"velocity":0.3937007874015748},{"duration":0.18181800000002113,"midi":65,"time":157.454388,"velocity":0.3937007874015748},{"duration":0.02272725000000264,"midi":57,"time":157.727115,"velocity":0.3937007874015748},{"duration":0.02272725000000264,"midi":61,"time":157.727115,"velocity":0.3937007874015748},{"duration":0.02272725000000264,"midi":58,"time":157.7725695,"velocity":0.3937007874015748},{"duration":0.02272725000000264,"midi":62,"time":157.7725695,"velocity":0.3937007874015748},{"duration":0.09090900000001056,"midi":57,"time":157.818024,"velocity":0.3937007874015748},{"duration":0.09090900000001056,"midi":60,"time":157.818024,"velocity":0.3937007874015748},{"duration":0.1818179999999927,"midi":55,"time":157.999842,"velocity":0.3937007874015748},{"duration":0.1818179999999927,"midi":58,"time":157.999842,"velocity":0.3937007874015748},{"duration":0.09090899999998214,"midi":55,"time":158.36347800000001,"velocity":0.3937007874015748},{"duration":0.1818179999999927,"midi":62,"time":158.545296,"velocity":0.3937007874015748},{"duration":0.1818179999999927,"midi":58,"time":158.545296,"velocity":0.3937007874015748},{"duration":0.18181800000002113,"midi":65,"time":158.908932,"velocity":0.3937007874015748},{"duration":0.18181800000002113,"midi":62,"time":158.908932,"velocity":0.3937007874015748},{"duration":0.1818179999999927,"midi":62,"time":159.272568,"velocity":0.3937007874015748},{"duration":0.1818179999999927,"midi":58,"time":159.272568,"velocity":0.3937007874015748},{"duration":0.1818179999999927,"midi":65,"time":159.63620400000002,"velocity":0.3937007874015748},{"duration":0.1818179999999927,"midi":62,"time":159.63620400000002,"velocity":0.3937007874015748},{"duration":0.1818179999999927,"midi":57,"time":159.99984,"velocity":0.3937007874015748},{"duration":0.1818179999999927,"midi":60,"time":159.99984,"velocity":0.3937007874015748},{"duration":0.1818179999999927,"midi":57,"time":160.36347600000002,"velocity":0.3937007874015748},{"duration":0.1818179999999927,"midi":60,"time":160.36347600000002,"velocity":0.3937007874015748},{"duration":0.02272725000000264,"midi":57,"time":160.636203,"velocity":0.3937007874015748},{"duration":0.02272725000000264,"midi":61,"time":160.636203,"velocity":0.3937007874015748},{"duration":0.02272725000000264,"midi":62,"time":160.6816575,"velocity":0.3937007874015748},{"duration":0.02272725000000264,"midi":58,"time":160.6816575,"velocity":0.3937007874015748},{"duration":0.09090900000001056,"midi":60,"time":160.727112,"velocity":0.3937007874015748},{"duration":0.09090900000001056,"midi":57,"time":160.727112,"velocity":0.3937007874015748},{"duration":0.09090900000001056,"midi":58,"time":160.90893,"velocity":0.3937007874015748},{"duration":0.09090900000001056,"midi":55,"time":160.90893,"velocity":0.3937007874015748},{"duration":0.09090899999998214,"midi":55,"time":161.09074800000002,"velocity":0.3937007874015748},{"duration":0.09090899999998214,"midi":58,"time":161.09074800000002,"velocity":0.3937007874015748},{"duration":0.09090899999998214,"midi":55,"time":161.272566,"velocity":0.3937007874015748},{"duration":0.1818179999999927,"midi":58,"time":161.454384,"velocity":0.3937007874015748},{"duration":0.1818179999999927,"midi":61,"time":161.454384,"velocity":0.3937007874015748},{"duration":0.1818179999999927,"midi":57,"time":161.81802000000002,"velocity":0.3937007874015748},{"duration":0.1818179999999927,"midi":60,"time":161.81802000000002,"velocity":0.3937007874015748},{"duration":0.1818179999999927,"midi":58,"time":162.181656,"velocity":0.3937007874015748},{"duration":0.1818179999999927,"midi":61,"time":162.181656,"velocity":0.3937007874015748},{"duration":0.1818179999999927,"midi":31,"time":162.908928,"velocity":0.3937007874015748},{"duration":0.1818179999999927,"midi":62,"time":162.908928,"velocity":0.3937007874015748},{"duration":0.1818179999999927,"midi":58,"time":162.908928,"velocity":0.3937007874015748},{"duration":0.1818179999999927,"midi":31,"time":163.27256400000002,"velocity":0.3937007874015748},{"duration":0.1818179999999927,"midi":62,"time":163.27256400000002,"velocity":0.3937007874015748},{"duration":0.1818179999999927,"midi":65,"time":163.27256400000002,"velocity":0.3937007874015748},{"duration":0.02272724999997422,"midi":61,"time":163.54529100000002,"velocity":0.3937007874015748},{"duration":0.02272724999997422,"midi":57,"time":163.54529100000002,"velocity":0.3937007874015748},{"duration":0.02272725000000264,"midi":58,"time":163.5907455,"velocity":0.3937007874015748},{"duration":0.02272725000000264,"midi":62,"time":163.5907455,"velocity":0.3937007874015748},{"duration":0.09090900000001056,"midi":57,"time":163.6362,"velocity":0.3937007874015748},{"duration":0.1818179999999927,"midi":31,"time":163.6362,"velocity":0.3937007874015748},{"duration":0.09090900000001056,"midi":60,"time":163.6362,"velocity":0.3937007874015748},{"duration":0.18181800000002113,"midi":58,"time":163.818018,"velocity":0.3937007874015748},{"duration":0.18181800000002113,"midi":55,"time":163.818018,"velocity":0.3937007874015748},{"duration":0.1818179999999927,"midi":31,"time":163.99983600000002,"velocity":0.3937007874015748},{"duration":0.09090900000001056,"midi":55,"time":164.181654,"velocity":0.3937007874015748},{"duration":0.1818179999999927,"midi":62,"time":164.363472,"velocity":0.3937007874015748},{"duration":0.1818179999999927,"midi":28,"time":164.363472,"velocity":0.3937007874015748},{"duration":0.1818179999999927,"midi":58,"time":164.363472,"velocity":0.3937007874015748},{"duration":0.1818179999999927,"midi":62,"time":164.72710800000002,"velocity":0.3937007874015748},{"duration":0.1818179999999927,"midi":65,"time":164.72710800000002,"velocity":0.3937007874015748},{"duration":0.1818179999999927,"midi":28,"time":164.72710800000002,"velocity":0.3937007874015748},{"duration":0.1818179999999927,"midi":58,"time":165.090744,"velocity":0.3937007874015748},{"duration":0.1818179999999927,"midi":62,"time":165.090744,"velocity":0.3937007874015748},{"duration":0.1818179999999927,"midi":28,"time":165.090744,"velocity":0.3937007874015748},{"duration":0.1818179999999927,"midi":62,"time":165.45438000000001,"velocity":0.3937007874015748},{"duration":0.1818179999999927,"midi":28,"time":165.45438000000001,"velocity":0.3937007874015748},{"duration":0.1818179999999927,"midi":65,"time":165.45438000000001,"velocity":0.3937007874015748},{"duration":0.1818179999999927,"midi":29,"time":165.818016,"velocity":0.3937007874015748},{"duration":0.1818179999999927,"midi":60,"time":165.818016,"velocity":0.3937007874015748},{"duration":0.1818179999999927,"midi":57,"time":165.818016,"velocity":0.3937007874015748},{"duration":0.1818179999999927,"midi":57,"time":166.181652,"velocity":0.3937007874015748},{"duration":0.1818179999999927,"midi":60,"time":166.181652,"velocity":0.3937007874015748},{"duration":0.1818179999999927,"midi":29,"time":166.181652,"velocity":0.3937007874015748},{"duration":0.02272725000000264,"midi":61,"time":166.45437900000002,"velocity":0.3937007874015748},{"duration":0.02272725000000264,"midi":57,"time":166.45437900000002,"velocity":0.3937007874015748},{"duration":0.02272725000000264,"midi":62,"time":166.4998335,"velocity":0.3937007874015748},{"duration":0.02272725000000264,"midi":58,"time":166.4998335,"velocity":0.3937007874015748},{"duration":0.18181800000002113,"midi":29,"time":166.545288,"velocity":0.3937007874015748},{"duration":0.09090900000001056,"midi":57,"time":166.545288,"velocity":0.3937007874015748},{"duration":0.09090900000001056,"midi":60,"time":166.545288,"velocity":0.3937007874015748},{"duration":0.09090899999998214,"midi":55,"time":166.72710600000002,"velocity":0.3937007874015748},{"duration":0.09090899999998214,"midi":58,"time":166.72710600000002,"velocity":0.3937007874015748},{"duration":0.09090899999998214,"midi":58,"time":166.908924,"velocity":0.3937007874015748},{"duration":0.1818179999999927,"midi":29,"time":166.908924,"velocity":0.3937007874015748},{"duration":0.09090899999998214,"midi":55,"time":166.908924,"velocity":0.3937007874015748},{"duration":0.09090900000001056,"midi":55,"time":167.090742,"velocity":0.3937007874015748},{"duration":0.18181800000002113,"midi":31,"time":167.27256,"velocity":0.3937007874015748},{"duration":0.18181800000002113,"midi":58,"time":167.27256,"velocity":0.3937007874015748},{"duration":0.18181800000002113,"midi":61,"time":167.27256,"velocity":0.3937007874015748},{"duration":0.1818179999999927,"midi":31,"time":167.636196,"velocity":0.3937007874015748},{"duration":0.1818179999999927,"midi":57,"time":167.636196,"velocity":0.3937007874015748},{"duration":0.1818179999999927,"midi":60,"time":167.636196,"velocity":0.3937007874015748},{"duration":0.18181800000002113,"midi":31,"time":167.999832,"velocity":0.3937007874015748},{"duration":0.18181800000002113,"midi":58,"time":167.999832,"velocity":0.3937007874015748},{"duration":0.18181800000002113,"midi":61,"time":167.999832,"velocity":0.3937007874015748},{"duration":0.1818179999999927,"midi":31,"time":168.363468,"velocity":0.3937007874015748},{"duration":0.09090899999998214,"midi":57,"time":168.363468,"velocity":0.3937007874015748},{"duration":0.09090899999998214,"midi":60,"time":168.363468,"velocity":0.3937007874015748},{"duration":0.09090900000001056,"midi":58,"time":168.545286,"velocity":0.3937007874015748},{"duration":0.09090900000001056,"midi":55,"time":168.545286,"velocity":0.3937007874015748},{"duration":0.18181800000002113,"midi":31,"time":168.727104,"velocity":0.3937007874015748},{"duration":0.18181800000002113,"midi":62,"time":168.727104,"velocity":0.3937007874015748},{"duration":0.18181800000002113,"midi":58,"time":168.727104,"velocity":0.3937007874015748},{"duration":0.1818179999999927,"midi":31,"time":169.09074,"velocity":0.3937007874015748},{"duration":0.1818179999999927,"midi":62,"time":169.09074,"velocity":0.3937007874015748},{"duration":0.1818179999999927,"midi":65,"time":169.09074,"velocity":0.3937007874015748},{"duration":0.02272725000000264,"midi":61,"time":169.363467,"velocity":0.3937007874015748},{"duration":0.02272725000000264,"midi":57,"time":169.363467,"velocity":0.3937007874015748},{"duration":0.02272724999997422,"midi":62,"time":169.40892150000002,"velocity":0.3937007874015748},{"duration":0.02272724999997422,"midi":58,"time":169.40892150000002,"velocity":0.3937007874015748},{"duration":0.09090900000001056,"midi":57,"time":169.454376,"velocity":0.3937007874015748},{"duration":0.09090900000001056,"midi":60,"time":169.454376,"velocity":0.3937007874015748},{"duration":0.18181800000002113,"midi":31,"time":169.454376,"velocity":0.3937007874015748},{"duration":0.1818179999999927,"midi":55,"time":169.63619400000002,"velocity":0.3937007874015748},{"duration":0.1818179999999927,"midi":58,"time":169.63619400000002,"velocity":0.3937007874015748},{"duration":0.1818179999999927,"midi":31,"time":169.818012,"velocity":0.3937007874015748},{"duration":0.09090900000001056,"midi":55,"time":169.99983,"velocity":0.3937007874015748},{"duration":0.18181800000002113,"midi":62,"time":170.181648,"velocity":0.3937007874015748},{"duration":0.18181800000002113,"midi":28,"time":170.181648,"velocity":0.3937007874015748},{"duration":0.18181800000002113,"midi":58,"time":170.181648,"velocity":0.3937007874015748},{"duration":0.1818179999999927,"midi":62,"time":170.545284,"velocity":0.3937007874015748},{"duration":0.1818179999999927,"midi":65,"time":170.545284,"velocity":0.3937007874015748},{"duration":0.1818179999999927,"midi":28,"time":170.545284,"velocity":0.3937007874015748},{"duration":0.18181800000002113,"midi":62,"time":170.90892,"velocity":0.3937007874015748},{"duration":0.18181800000002113,"midi":28,"time":170.90892,"velocity":0.3937007874015748},{"duration":0.18181800000002113,"midi":58,"time":170.90892,"velocity":0.3937007874015748},{"duration":0.1818179999999927,"midi":65,"time":171.272556,"velocity":0.3937007874015748},{"duration":0.1818179999999927,"midi":28,"time":171.272556,"velocity":0.3937007874015748},{"duration":0.1818179999999927,"midi":62,"time":171.272556,"velocity":0.3937007874015748},{"duration":0.18181800000002113,"midi":60,"time":171.636192,"velocity":0.3937007874015748},{"duration":0.18181800000002113,"midi":57,"time":171.636192,"velocity":0.3937007874015748},{"duration":0.18181800000002113,"midi":29,"time":171.636192,"velocity":0.3937007874015748},{"duration":0.1818179999999927,"midi":57,"time":171.999828,"velocity":0.3937007874015748},{"duration":0.1818179999999927,"midi":60,"time":171.999828,"velocity":0.3937007874015748},{"duration":0.1818179999999927,"midi":29,"time":171.999828,"velocity":0.3937007874015748},{"duration":0.02272725000000264,"midi":61,"time":172.272555,"velocity":0.3937007874015748},{"duration":0.02272725000000264,"midi":57,"time":172.272555,"velocity":0.3937007874015748},{"duration":0.02272725000000264,"midi":62,"time":172.31800950000002,"velocity":0.3937007874015748},{"duration":0.02272725000000264,"midi":58,"time":172.31800950000002,"velocity":0.3937007874015748},{"duration":0.18181800000002113,"midi":29,"time":172.363464,"velocity":0.3937007874015748},{"duration":0.09090900000001056,"midi":60,"time":172.363464,"velocity":0.3937007874015748},{"duration":0.09090900000001056,"midi":57,"time":172.363464,"velocity":0.3937007874015748},{"duration":0.09090899999998214,"midi":55,"time":172.54528200000001,"velocity":0.3937007874015748},{"duration":0.09090899999998214,"midi":58,"time":172.54528200000001,"velocity":0.3937007874015748},{"duration":0.09090900000001056,"midi":55,"time":172.7271,"velocity":0.3937007874015748},{"duration":0.1818179999999927,"midi":29,"time":172.7271,"velocity":0.3937007874015748},{"duration":0.09090900000001056,"midi":58,"time":172.7271,"velocity":0.3937007874015748},{"duration":0.09090900000001056,"midi":55,"time":172.908918,"velocity":0.3937007874015748},{"duration":0.1818179999999927,"midi":61,"time":173.09073600000002,"velocity":0.3937007874015748},{"duration":0.1818179999999927,"midi":58,"time":173.09073600000002,"velocity":0.3937007874015748},{"duration":0.1818179999999927,"midi":31,"time":173.09073600000002,"velocity":0.3937007874015748},{"duration":0.1818179999999927,"midi":60,"time":173.454372,"velocity":0.3937007874015748},{"duration":0.1818179999999927,"midi":57,"time":173.454372,"velocity":0.3937007874015748},{"duration":0.1818179999999927,"midi":31,"time":173.454372,"velocity":0.3937007874015748},{"duration":0.1818179999999927,"midi":31,"time":173.81800800000002,"velocity":0.3937007874015748},{"duration":0.1818179999999927,"midi":58,"time":173.81800800000002,"velocity":0.3937007874015748},{"duration":0.1818179999999927,"midi":61,"time":173.81800800000002,"velocity":0.3937007874015748},{"duration":0.09090900000001056,"midi":57,"time":174.181644,"velocity":0.3937007874015748},{"duration":0.09090900000001056,"midi":60,"time":174.181644,"velocity":0.3937007874015748},{"duration":0.1818179999999927,"midi":31,"time":174.181644,"velocity":0.3937007874015748},{"duration":0.09090900000001056,"midi":55,"time":174.363462,"velocity":0.3937007874015748},{"duration":0.09090900000001056,"midi":58,"time":174.363462,"velocity":0.3937007874015748},{"duration":0.1818179999999927,"midi":43,"time":174.727098,"velocity":0.3937007874015748},{"duration":0.1818179999999927,"midi":38,"time":174.727098,"velocity":0.3937007874015748},{"duration":0.1818179999999927,"midi":31,"time":174.727098,"velocity":0.3937007874015748},{"duration":0.18181800000002113,"midi":38,"time":175.090734,"velocity":0.3937007874015748},{"duration":0.18181800000002113,"midi":43,"time":175.090734,"velocity":0.3937007874015748},{"duration":0.18181800000002113,"midi":31,"time":175.090734,"velocity":0.3937007874015748},{"duration":0.1818179999999927,"midi":38,"time":175.45437,"velocity":0.3937007874015748},{"duration":0.1818179999999927,"midi":43,"time":175.45437,"velocity":0.3937007874015748},{"duration":0.1818179999999927,"midi":31,"time":175.45437,"velocity":0.3937007874015748},{"duration":0.18181800000002113,"midi":38,"time":175.818006,"velocity":0.3937007874015748},{"duration":0.18181800000002113,"midi":31,"time":175.818006,"velocity":0.3937007874015748},{"duration":0.18181800000002113,"midi":43,"time":175.818006,"velocity":0.3937007874015748},{"duration":0.1818179999999927,"midi":34,"time":176.181642,"velocity":0.3937007874015748},{"duration":0.1818179999999927,"midi":40,"time":176.181642,"velocity":0.3937007874015748},{"duration":0.1818179999999927,"midi":28,"time":176.181642,"velocity":0.3937007874015748},{"duration":0.18181800000002113,"midi":40,"time":176.545278,"velocity":0.3937007874015748},{"duration":0.18181800000002113,"midi":28,"time":176.545278,"velocity":0.3937007874015748},{"duration":0.18181800000002113,"midi":34,"time":176.545278,"velocity":0.3937007874015748},{"duration":0.1818179999999927,"midi":34,"time":176.908914,"velocity":0.3937007874015748},{"duration":0.1818179999999927,"midi":28,"time":176.908914,"velocity":0.3937007874015748},{"duration":0.1818179999999927,"midi":40,"time":176.908914,"velocity":0.3937007874015748},{"duration":0.18181800000002113,"midi":34,"time":177.27255,"velocity":0.3937007874015748},{"duration":0.18181800000002113,"midi":28,"time":177.27255,"velocity":0.3937007874015748},{"duration":0.18181800000002113,"midi":40,"time":177.27255,"velocity":0.3937007874015748},{"duration":0.1818179999999927,"midi":29,"time":177.636186,"velocity":0.3937007874015748},{"duration":0.1818179999999927,"midi":36,"time":177.636186,"velocity":0.3937007874015748},{"duration":0.1818179999999927,"midi":41,"time":177.636186,"velocity":0.3937007874015748},{"duration":0.18181800000002113,"midi":41,"time":177.999822,"velocity":0.3937007874015748},{"duration":0.18181800000002113,"midi":29,"time":177.999822,"velocity":0.3937007874015748},{"duration":0.18181800000002113,"midi":36,"time":177.999822,"velocity":0.3937007874015748},{"duration":0.1818179999999927,"midi":29,"time":178.363458,"velocity":0.3937007874015748},{"duration":0.1818179999999927,"midi":36,"time":178.363458,"velocity":0.3937007874015748},{"duration":0.1818179999999927,"midi":41,"time":178.363458,"velocity":0.3937007874015748},{"duration":0.18181800000002113,"midi":36,"time":178.727094,"velocity":0.3937007874015748},{"duration":0.18181800000002113,"midi":29,"time":178.727094,"velocity":0.3937007874015748},{"duration":0.18181800000002113,"midi":41,"time":178.727094,"velocity":0.3937007874015748},{"duration":0.1818179999999927,"midi":38,"time":179.09073,"velocity":0.3937007874015748},{"duration":0.1818179999999927,"midi":31,"time":179.09073,"velocity":0.3937007874015748},{"duration":0.1818179999999927,"midi":43,"time":179.09073,"velocity":0.3937007874015748},{"duration":0.18181800000002113,"midi":31,"time":179.454366,"velocity":0.3937007874015748},{"duration":0.18181800000002113,"midi":43,"time":179.454366,"velocity":0.3937007874015748},{"duration":0.18181800000002113,"midi":38,"time":179.454366,"velocity":0.3937007874015748},{"duration":0.1818179999999927,"midi":43,"time":179.818002,"velocity":0.3937007874015748},{"duration":0.1818179999999927,"midi":31,"time":179.818002,"velocity":0.3937007874015748},{"duration":0.1818179999999927,"midi":38,"time":179.818002,"velocity":0.3937007874015748},{"duration":0.1818179999999927,"midi":31,"time":180.18163800000002,"velocity":0.3937007874015748},{"duration":0.1818179999999927,"midi":43,"time":180.18163800000002,"velocity":0.3937007874015748},{"duration":0.1818179999999927,"midi":38,"time":180.18163800000002,"velocity":0.3937007874015748},{"duration":0.1818179999999927,"midi":43,"time":180.545274,"velocity":0.3937007874015748},{"duration":0.1818179999999927,"midi":38,"time":180.545274,"velocity":0.3937007874015748},{"duration":0.1818179999999927,"midi":31,"time":180.545274,"velocity":0.3937007874015748},{"duration":0.1818179999999927,"midi":31,"time":180.90891000000002,"velocity":0.3937007874015748},{"duration":0.1818179999999927,"midi":38,"time":180.90891000000002,"velocity":0.3937007874015748},{"duration":0.1818179999999927,"midi":43,"time":180.90891000000002,"velocity":0.3937007874015748},{"duration":0.1818179999999927,"midi":43,"time":181.272546,"velocity":0.3937007874015748},{"duration":0.1818179999999927,"midi":31,"time":181.272546,"velocity":0.3937007874015748},{"duration":0.1818179999999927,"midi":38,"time":181.272546,"velocity":0.3937007874015748},{"duration":0.1818179999999927,"midi":43,"time":181.63618200000002,"velocity":0.3937007874015748},{"duration":0.1818179999999927,"midi":38,"time":181.63618200000002,"velocity":0.3937007874015748},{"duration":0.1818179999999927,"midi":31,"time":181.63618200000002,"velocity":0.3937007874015748},{"duration":0.1818179999999927,"midi":40,"time":181.999818,"velocity":0.3937007874015748},{"duration":0.1818179999999927,"midi":28,"time":181.999818,"velocity":0.3937007874015748},{"duration":0.1818179999999927,"midi":34,"time":181.999818,"velocity":0.3937007874015748},{"duration":0.1818179999999927,"midi":34,"time":182.36345400000002,"velocity":0.3937007874015748},{"duration":0.1818179999999927,"midi":40,"time":182.36345400000002,"velocity":0.3937007874015748},{"duration":0.1818179999999927,"midi":28,"time":182.36345400000002,"velocity":0.3937007874015748},{"duration":0.1818179999999927,"midi":34,"time":182.72709,"velocity":0.3937007874015748},{"duration":0.1818179999999927,"midi":40,"time":182.72709,"velocity":0.3937007874015748},{"duration":0.1818179999999927,"midi":28,"time":182.72709,"velocity":0.3937007874015748},{"duration":0.1818179999999927,"midi":28,"time":183.09072600000002,"velocity":0.3937007874015748},{"duration":0.1818179999999927,"midi":40,"time":183.09072600000002,"velocity":0.3937007874015748},{"duration":0.1818179999999927,"midi":34,"time":183.09072600000002,"velocity":0.3937007874015748},{"duration":0.1818179999999927,"midi":36,"time":183.454362,"velocity":0.3937007874015748},{"duration":0.1818179999999927,"midi":41,"time":183.454362,"velocity":0.3937007874015748},{"duration":0.1818179999999927,"midi":29,"time":183.454362,"velocity":0.3937007874015748},{"duration":0.1818179999999927,"midi":29,"time":183.81799800000002,"velocity":0.3937007874015748},{"duration":0.1818179999999927,"midi":41,"time":183.81799800000002,"velocity":0.3937007874015748},{"duration":0.1818179999999927,"midi":36,"time":183.81799800000002,"velocity":0.3937007874015748},{"duration":0.1818179999999927,"midi":41,"time":184.181634,"velocity":0.3937007874015748},{"duration":0.1818179999999927,"midi":29,"time":184.181634,"velocity":0.3937007874015748},{"duration":0.1818179999999927,"midi":36,"time":184.181634,"velocity":0.3937007874015748},{"duration":0.1818179999999927,"midi":41,"time":184.54527000000002,"velocity":0.3937007874015748},{"duration":0.1818179999999927,"midi":29,"time":184.54527000000002,"velocity":0.3937007874015748},{"duration":0.1818179999999927,"midi":36,"time":184.54527000000002,"velocity":0.3937007874015748},{"duration":0.1818179999999927,"midi":26,"time":186.181632,"velocity":0.3937007874015748},{"duration":0.1818179999999927,"midi":31,"time":186.181632,"velocity":0.3937007874015748},{"duration":0.18181800000002113,"midi":38,"time":186.36345,"velocity":0.3937007874015748},{"duration":0.18181800000002113,"midi":43,"time":186.36345,"velocity":0.3937007874015748},{"duration":0.1818179999999927,"midi":31,"time":186.54526800000002,"velocity":0.3937007874015748},{"duration":0.1818179999999927,"midi":38,"time":186.54526800000002,"velocity":0.3937007874015748},{"duration":0.1818179999999927,"midi":38,"time":186.727086,"velocity":0.3937007874015748},{"duration":0.1818179999999927,"midi":43,"time":186.727086,"velocity":0.3937007874015748},{"duration":0.1818179999999927,"midi":26,"time":186.908904,"velocity":0.3937007874015748},{"duration":0.1818179999999927,"midi":31,"time":186.908904,"velocity":0.3937007874015748},{"duration":0.18181800000002113,"midi":38,"time":187.090722,"velocity":0.3937007874015748},{"duration":0.18181800000002113,"midi":43,"time":187.090722,"velocity":0.3937007874015748},{"duration":0.1818179999999927,"midi":38,"time":187.27254000000002,"velocity":0.3937007874015748},{"duration":0.1818179999999927,"midi":31,"time":187.27254000000002,"velocity":0.3937007874015748},{"duration":0.1818179999999927,"midi":43,"time":187.454358,"velocity":0.3937007874015748},{"duration":0.1818179999999927,"midi":38,"time":187.454358,"velocity":0.3937007874015748},{"duration":0.1818179999999927,"midi":34,"time":187.636176,"velocity":0.3937007874015748},{"duration":0.1818179999999927,"midi":28,"time":187.636176,"velocity":0.3937007874015748},{"duration":0.18181800000002113,"midi":40,"time":187.817994,"velocity":0.3937007874015748},{"duration":0.18181800000002113,"midi":34,"time":187.817994,"velocity":0.3937007874015748},{"duration":0.1818179999999927,"midi":28,"time":187.99981200000002,"velocity":0.3937007874015748},{"duration":0.1818179999999927,"midi":34,"time":187.99981200000002,"velocity":0.3937007874015748},{"duration":0.1818179999999927,"midi":40,"time":188.18163,"velocity":0.3937007874015748},{"duration":0.1818179999999927,"midi":34,"time":188.18163,"velocity":0.3937007874015748},{"duration":0.1818179999999927,"midi":28,"time":188.363448,"velocity":0.3937007874015748},{"duration":0.1818179999999927,"midi":34,"time":188.363448,"velocity":0.3937007874015748},{"duration":0.18181800000002113,"midi":34,"time":188.545266,"velocity":0.3937007874015748},{"duration":0.18181800000002113,"midi":40,"time":188.545266,"velocity":0.3937007874015748},{"duration":0.1818179999999927,"midi":28,"time":188.72708400000002,"velocity":0.3937007874015748},{"duration":0.1818179999999927,"midi":34,"time":188.72708400000002,"velocity":0.3937007874015748},{"duration":0.1818179999999927,"midi":40,"time":188.908902,"velocity":0.3937007874015748},{"duration":0.1818179999999927,"midi":34,"time":188.908902,"velocity":0.3937007874015748},{"duration":0.1818179999999927,"midi":24,"time":189.09072,"velocity":0.3937007874015748},{"duration":0.1818179999999927,"midi":29,"time":189.09072,"velocity":0.3937007874015748},{"duration":0.18181800000002113,"midi":36,"time":189.272538,"velocity":0.3937007874015748},{"duration":0.18181800000002113,"midi":41,"time":189.272538,"velocity":0.3937007874015748},{"duration":0.1818179999999927,"midi":29,"time":189.45435600000002,"velocity":0.3937007874015748},{"duration":0.1818179999999927,"midi":24,"time":189.45435600000002,"velocity":0.3937007874015748},{"duration":0.1818179999999927,"midi":36,"time":189.636174,"velocity":0.3937007874015748},{"duration":0.1818179999999927,"midi":41,"time":189.636174,"velocity":0.3937007874015748},{"duration":0.1818179999999927,"midi":29,"time":189.817992,"velocity":0.3937007874015748},{"duration":0.1818179999999927,"midi":24,"time":189.817992,"velocity":0.3937007874015748},{"duration":0.18181800000002113,"midi":36,"time":189.99981,"velocity":0.3937007874015748},{"duration":0.18181800000002113,"midi":41,"time":189.99981,"velocity":0.3937007874015748},{"duration":0.1818179999999927,"midi":24,"time":190.18162800000002,"velocity":0.3937007874015748},{"duration":0.1818179999999927,"midi":29,"time":190.18162800000002,"velocity":0.3937007874015748},{"duration":0.1818179999999927,"midi":41,"time":190.363446,"velocity":0.3937007874015748},{"duration":0.1818179999999927,"midi":36,"time":190.363446,"velocity":0.3937007874015748},{"duration":0.1818179999999927,"midi":26,"time":190.545264,"velocity":0.3937007874015748},{"duration":0.1818179999999927,"midi":31,"time":190.545264,"velocity":0.3937007874015748},{"duration":0.18181800000002113,"midi":38,"time":190.727082,"velocity":0.3937007874015748},{"duration":0.18181800000002113,"midi":43,"time":190.727082,"velocity":0.3937007874015748},{"duration":0.1818179999999927,"midi":31,"time":190.90890000000002,"velocity":0.3937007874015748},{"duration":0.1818179999999927,"midi":38,"time":190.90890000000002,"velocity":0.3937007874015748},{"duration":0.1818179999999927,"midi":43,"time":191.090718,"velocity":0.3937007874015748},{"duration":0.1818179999999927,"midi":38,"time":191.090718,"velocity":0.3937007874015748},{"duration":0.1818179999999927,"midi":31,"time":191.272536,"velocity":0.3937007874015748},{"duration":0.1818179999999927,"midi":26,"time":191.272536,"velocity":0.3937007874015748},{"duration":0.18181800000002113,"midi":43,"time":191.454354,"velocity":0.3937007874015748},{"duration":0.18181800000002113,"midi":38,"time":191.454354,"velocity":0.3937007874015748},{"duration":0.1818179999999927,"midi":38,"time":191.63617200000002,"velocity":0.3937007874015748},{"duration":0.1818179999999927,"midi":31,"time":191.63617200000002,"velocity":0.3937007874015748},{"duration":0.1818179999999927,"midi":38,"time":191.81799,"velocity":0.3937007874015748},{"duration":0.1818179999999927,"midi":43,"time":191.81799,"velocity":0.3937007874015748},{"duration":0.1818179999999927,"midi":31,"time":191.999808,"velocity":0.3937007874015748},{"duration":0.1818179999999927,"midi":26,"time":191.999808,"velocity":0.3937007874015748},{"duration":0.18181800000002113,"midi":43,"time":192.181626,"velocity":0.3937007874015748},{"duration":0.18181800000002113,"midi":38,"time":192.181626,"velocity":0.3937007874015748},{"duration":0.1818179999999927,"midi":31,"time":192.36344400000002,"velocity":0.3937007874015748},{"duration":0.1818179999999927,"midi":38,"time":192.36344400000002,"velocity":0.3937007874015748},{"duration":0.1818179999999927,"midi":38,"time":192.545262,"velocity":0.3937007874015748},{"duration":0.1818179999999927,"midi":43,"time":192.545262,"velocity":0.3937007874015748},{"duration":0.18181800000002113,"midi":26,"time":192.72708,"velocity":0.3937007874015748},{"duration":0.18181800000002113,"midi":31,"time":192.72708,"velocity":0.3937007874015748},{"duration":0.1818179999999927,"midi":38,"time":192.90889800000002,"velocity":0.3937007874015748},{"duration":0.1818179999999927,"midi":43,"time":192.90889800000002,"velocity":0.3937007874015748},{"duration":0.1818179999999927,"midi":38,"time":193.09071600000001,"velocity":0.3937007874015748},{"duration":0.1818179999999927,"midi":31,"time":193.09071600000001,"velocity":0.3937007874015748},{"duration":0.1818179999999927,"midi":38,"time":193.272534,"velocity":0.3937007874015748},{"duration":0.1818179999999927,"midi":43,"time":193.272534,"velocity":0.3937007874015748},{"duration":0.18181800000002113,"midi":28,"time":193.454352,"velocity":0.3937007874015748},{"duration":0.18181800000002113,"midi":34,"time":193.454352,"velocity":0.3937007874015748},{"duration":0.1818179999999927,"midi":40,"time":193.63617000000002,"velocity":0.3937007874015748},{"duration":0.1818179999999927,"midi":34,"time":193.63617000000002,"velocity":0.3937007874015748},{"duration":0.1818179999999927,"midi":34,"time":193.817988,"velocity":0.3937007874015748},{"duration":0.1818179999999927,"midi":28,"time":193.817988,"velocity":0.3937007874015748},{"duration":0.1818179999999927,"midi":34,"time":193.999806,"velocity":0.3937007874015748},{"duration":0.1818179999999927,"midi":40,"time":193.999806,"velocity":0.3937007874015748},{"duration":0.18181800000002113,"midi":34,"time":194.181624,"velocity":0.3937007874015748},{"duration":0.18181800000002113,"midi":28,"time":194.181624,"velocity":0.3937007874015748},{"duration":0.1818179999999927,"midi":34,"time":194.36344200000002,"velocity":0.3937007874015748},{"duration":0.1818179999999927,"midi":40,"time":194.36344200000002,"velocity":0.3937007874015748},{"duration":0.1818179999999927,"midi":34,"time":194.54526,"velocity":0.3937007874015748},{"duration":0.1818179999999927,"midi":28,"time":194.54526,"velocity":0.3937007874015748},{"duration":0.1818179999999927,"midi":40,"time":194.727078,"velocity":0.3937007874015748},{"duration":0.1818179999999927,"midi":34,"time":194.727078,"velocity":0.3937007874015748},{"duration":0.18181800000002113,"midi":24,"time":194.908896,"velocity":0.3937007874015748},{"duration":0.18181800000002113,"midi":29,"time":194.908896,"velocity":0.3937007874015748},{"duration":0.1818179999999927,"midi":41,"time":195.09071400000002,"velocity":0.3937007874015748},{"duration":0.1818179999999927,"midi":36,"time":195.09071400000002,"velocity":0.3937007874015748},{"duration":0.1818179999999927,"midi":29,"time":195.272532,"velocity":0.3937007874015748},{"duration":0.1818179999999927,"midi":24,"time":195.272532,"velocity":0.3937007874015748},{"duration":0.1818179999999927,"midi":41,"time":195.45435,"velocity":0.3937007874015748},{"duration":0.1818179999999927,"midi":36,"time":195.45435,"velocity":0.3937007874015748},{"duration":0.18181800000002113,"midi":24,"time":195.636168,"velocity":0.3937007874015748},{"duration":0.18181800000002113,"midi":29,"time":195.636168,"velocity":0.3937007874015748},{"duration":0.1818179999999927,"midi":36,"time":195.81798600000002,"velocity":0.3937007874015748},{"duration":0.1818179999999927,"midi":41,"time":195.81798600000002,"velocity":0.3937007874015748},{"duration":0.1818179999999927,"midi":29,"time":195.999804,"velocity":0.3937007874015748},{"duration":0.1818179999999927,"midi":24,"time":195.999804,"velocity":0.3937007874015748},{"duration":0.1818179999999927,"midi":41,"time":196.181622,"velocity":0.3937007874015748},{"duration":0.1818179999999927,"midi":36,"time":196.181622,"velocity":0.3937007874015748},{"duration":0.18181800000002113,"midi":26,"time":196.36344,"velocity":0.3937007874015748},{"duration":0.18181800000002113,"midi":31,"time":196.36344,"velocity":0.3937007874015748},{"duration":0.1818179999999927,"midi":38,"time":196.54525800000002,"velocity":0.3937007874015748},{"duration":0.1818179999999927,"midi":43,"time":196.54525800000002,"velocity":0.3937007874015748},{"duration":0.1818179999999927,"midi":38,"time":196.727076,"velocity":0.3937007874015748},{"duration":0.1818179999999927,"midi":31,"time":196.727076,"velocity":0.3937007874015748},{"duration":0.1818179999999927,"midi":38,"time":196.908894,"velocity":0.3937007874015748},{"duration":0.1818179999999927,"midi":43,"time":196.908894,"velocity":0.3937007874015748},{"duration":0.18181800000002113,"midi":26,"time":197.090712,"velocity":0.3937007874015748},{"duration":0.18181800000002113,"midi":31,"time":197.090712,"velocity":0.3937007874015748},{"duration":0.1818179999999927,"midi":38,"time":197.27253000000002,"velocity":0.3937007874015748},{"duration":0.1818179999999927,"midi":43,"time":197.27253000000002,"velocity":0.3937007874015748},{"duration":0.18181800000002113,"midi":31,"time":197.817984,"velocity":0.3937007874015748},{"duration":0.18181800000002113,"midi":26,"time":197.817984,"velocity":0.3937007874015748},{"duration":0.1818179999999927,"midi":38,"time":197.99980200000002,"velocity":0.3937007874015748},{"duration":0.1818179999999927,"midi":43,"time":197.99980200000002,"velocity":0.3937007874015748},{"duration":0.1818179999999927,"midi":38,"time":198.18162,"velocity":0.3937007874015748},{"duration":0.1818179999999927,"midi":31,"time":198.18162,"velocity":0.3937007874015748},{"duration":0.1818179999999927,"midi":43,"time":198.363438,"velocity":0.3937007874015748},{"duration":0.1818179999999927,"midi":38,"time":198.363438,"velocity":0.3937007874015748},{"duration":0.18181800000002113,"midi":26,"time":198.545256,"velocity":0.3937007874015748},{"duration":0.18181800000002113,"midi":31,"time":198.545256,"velocity":0.3937007874015748},{"duration":0.1818179999999927,"midi":38,"time":198.72707400000002,"velocity":0.3937007874015748},{"duration":0.1818179999999927,"midi":43,"time":198.72707400000002,"velocity":0.3937007874015748},{"duration":0.1818179999999927,"midi":38,"time":198.908892,"velocity":0.3937007874015748},{"duration":0.1818179999999927,"midi":31,"time":198.908892,"velocity":0.3937007874015748},{"duration":0.1818179999999927,"midi":38,"time":199.09071,"velocity":0.3937007874015748},{"duration":0.1818179999999927,"midi":43,"time":199.09071,"velocity":0.3937007874015748},{"duration":0.18181800000002113,"midi":28,"time":199.272528,"velocity":0.3937007874015748},{"duration":0.18181800000002113,"midi":34,"time":199.272528,"velocity":0.3937007874015748},{"duration":0.1818179999999927,"midi":40,"time":199.45434600000002,"velocity":0.3937007874015748},{"duration":0.1818179999999927,"midi":34,"time":199.45434600000002,"velocity":0.3937007874015748},{"duration":0.1818179999999927,"midi":34,"time":199.636164,"velocity":0.3937007874015748},{"duration":0.1818179999999927,"midi":28,"time":199.636164,"velocity":0.3937007874015748},{"duration":0.18181800000002113,"midi":34,"time":199.817982,"velocity":0.3937007874015748},{"duration":0.18181800000002113,"midi":40,"time":199.817982,"velocity":0.3937007874015748},{"duration":0.1818179999999927,"midi":34,"time":199.99980000000002,"velocity":0.3937007874015748},{"duration":0.1818179999999927,"midi":28,"time":199.99980000000002,"velocity":0.3937007874015748},{"duration":0.1818179999999927,"midi":40,"time":200.18161800000001,"velocity":0.3937007874015748},{"duration":0.1818179999999927,"midi":34,"time":200.18161800000001,"velocity":0.3937007874015748},{"duration":0.1818179999999927,"midi":34,"time":200.363436,"velocity":0.3937007874015748},{"duration":0.1818179999999927,"midi":28,"time":200.363436,"velocity":0.3937007874015748},{"duration":0.18181800000002113,"midi":34,"time":200.545254,"velocity":0.3937007874015748},{"duration":0.18181800000002113,"midi":40,"time":200.545254,"velocity":0.3937007874015748},{"duration":0.1818179999999927,"midi":29,"time":200.72707200000002,"velocity":0.3937007874015748},{"duration":0.1818179999999927,"midi":24,"time":200.72707200000002,"velocity":0.3937007874015748},{"duration":0.1818179999999927,"midi":36,"time":200.90889,"velocity":0.3937007874015748},{"duration":0.1818179999999927,"midi":41,"time":200.90889,"velocity":0.3937007874015748},{"duration":0.1818179999999927,"midi":29,"time":201.090708,"velocity":0.3937007874015748},{"duration":0.1818179999999927,"midi":24,"time":201.090708,"velocity":0.3937007874015748},{"duration":0.18181800000002113,"midi":41,"time":201.272526,"velocity":0.3937007874015748},{"duration":0.18181800000002113,"midi":36,"time":201.272526,"velocity":0.3937007874015748},{"duration":0.1818179999999927,"midi":24,"time":201.45434400000002,"velocity":0.3937007874015748},{"duration":0.1818179999999927,"midi":29,"time":201.45434400000002,"velocity":0.3937007874015748},{"duration":0.1818179999999927,"midi":36,"time":201.636162,"velocity":0.3937007874015748},{"duration":0.1818179999999927,"midi":41,"time":201.636162,"velocity":0.3937007874015748},{"duration":0.1818179999999927,"midi":29,"time":201.81798,"velocity":0.3937007874015748},{"duration":0.1818179999999927,"midi":24,"time":201.81798,"velocity":0.3937007874015748},{"duration":0.18181800000002113,"midi":41,"time":201.999798,"velocity":0.3937007874015748},{"duration":0.18181800000002113,"midi":36,"time":201.999798,"velocity":0.3937007874015748},{"duration":0.1818179999999927,"midi":26,"time":202.18161600000002,"velocity":0.3937007874015748},{"duration":0.1818179999999927,"midi":31,"time":202.18161600000002,"velocity":0.3937007874015748},{"duration":0.1818179999999927,"midi":43,"time":202.363434,"velocity":0.3937007874015748},{"duration":0.1818179999999927,"midi":38,"time":202.363434,"velocity":0.3937007874015748},{"duration":0.1818179999999927,"midi":31,"time":202.545252,"velocity":0.3937007874015748},{"duration":0.1818179999999927,"midi":38,"time":202.545252,"velocity":0.3937007874015748},{"duration":0.18181800000002113,"midi":43,"time":202.72707,"velocity":0.3937007874015748},{"duration":0.18181800000002113,"midi":38,"time":202.72707,"velocity":0.3937007874015748},{"duration":0.1818179999999927,"midi":31,"time":202.90888800000002,"velocity":0.3937007874015748},{"duration":0.1818179999999927,"midi":26,"time":202.90888800000002,"velocity":0.3937007874015748},{"duration":0.1818179999999927,"midi":38,"time":203.090706,"velocity":0.3937007874015748},{"duration":0.1818179999999927,"midi":43,"time":203.090706,"velocity":0.3937007874015748},{"duration":0.1818179999999927,"midi":38,"time":203.272524,"velocity":0.3937007874015748},{"duration":0.1818179999999927,"midi":31,"time":203.272524,"velocity":0.3937007874015748},{"duration":0.18181800000002113,"midi":43,"time":203.454342,"velocity":0.3937007874015748},{"duration":0.18181800000002113,"midi":38,"time":203.454342,"velocity":0.3937007874015748},{"duration":0.1818179999999927,"midi":26,"time":203.63616000000002,"velocity":0.3937007874015748},{"duration":0.1818179999999927,"midi":31,"time":203.63616000000002,"velocity":0.3937007874015748},{"duration":0.1818179999999927,"midi":43,"time":203.817978,"velocity":0.3937007874015748},{"duration":0.1818179999999927,"midi":38,"time":203.817978,"velocity":0.3937007874015748},{"duration":0.1818179999999927,"midi":31,"time":203.999796,"velocity":0.3937007874015748},{"duration":0.1818179999999927,"midi":38,"time":203.999796,"velocity":0.3937007874015748},{"duration":0.18181800000002113,"midi":43,"time":204.181614,"velocity":0.3937007874015748},{"duration":0.18181800000002113,"midi":38,"time":204.181614,"velocity":0.3937007874015748},{"duration":0.1818179999999927,"midi":26,"time":204.36343200000002,"velocity":0.3937007874015748},{"duration":0.1818179999999927,"midi":31,"time":204.36343200000002,"velocity":0.3937007874015748},{"duration":0.1818179999999927,"midi":38,"time":204.54525,"velocity":0.3937007874015748},{"duration":0.1818179999999927,"midi":43,"time":204.54525,"velocity":0.3937007874015748},{"duration":0.1818179999999927,"midi":31,"time":204.727068,"velocity":0.3937007874015748},{"duration":0.1818179999999927,"midi":38,"time":204.727068,"velocity":0.3937007874015748},{"duration":0.18181800000002113,"midi":38,"time":204.908886,"velocity":0.3937007874015748},{"duration":0.18181800000002113,"midi":43,"time":204.908886,"velocity":0.3937007874015748},{"duration":0.1818179999999927,"midi":28,"time":205.09070400000002,"velocity":0.3937007874015748},{"duration":0.1818179999999927,"midi":34,"time":205.09070400000002,"velocity":0.3937007874015748},{"duration":0.1818179999999927,"midi":40,"time":205.272522,"velocity":0.3937007874015748},{"duration":0.1818179999999927,"midi":34,"time":205.272522,"velocity":0.3937007874015748},{"duration":0.1818179999999927,"midi":34,"time":205.45434,"velocity":0.3937007874015748},{"duration":0.1818179999999927,"midi":28,"time":205.45434,"velocity":0.3937007874015748},{"duration":0.18181800000002113,"midi":34,"time":205.636158,"velocity":0.3937007874015748},{"duration":0.18181800000002113,"midi":40,"time":205.636158,"velocity":0.3937007874015748},{"duration":0.1818179999999927,"midi":34,"time":205.81797600000002,"velocity":0.3937007874015748},{"duration":0.1818179999999927,"midi":28,"time":205.81797600000002,"velocity":0.3937007874015748},{"duration":0.1818179999999927,"midi":40,"time":205.999794,"velocity":0.3937007874015748},{"duration":0.1818179999999927,"midi":34,"time":205.999794,"velocity":0.3937007874015748},{"duration":0.18181800000002113,"midi":28,"time":206.181612,"velocity":0.3937007874015748},{"duration":0.18181800000002113,"midi":34,"time":206.181612,"velocity":0.3937007874015748},{"duration":0.1818179999999927,"midi":34,"time":206.36343000000002,"velocity":0.3937007874015748},{"duration":0.1818179999999927,"midi":40,"time":206.36343000000002,"velocity":0.3937007874015748},{"duration":0.1818179999999927,"midi":24,"time":206.54524800000002,"velocity":0.3937007874015748},{"duration":0.1818179999999927,"midi":29,"time":206.54524800000002,"velocity":0.3937007874015748},{"duration":0.1818179999999927,"midi":36,"time":206.727066,"velocity":0.3937007874015748},{"duration":0.1818179999999927,"midi":41,"time":206.727066,"velocity":0.3937007874015748},{"duration":0.18181800000002113,"midi":24,"time":206.908884,"velocity":0.3937007874015748},{"duration":0.18181800000002113,"midi":29,"time":206.908884,"velocity":0.3937007874015748},{"duration":0.1818179999999927,"midi":41,"time":207.09070200000002,"velocity":0.3937007874015748},{"duration":0.1818179999999927,"midi":36,"time":207.09070200000002,"velocity":0.3937007874015748},{"duration":0.1818179999999927,"midi":29,"time":207.27252000000001,"velocity":0.3937007874015748},{"duration":0.1818179999999927,"midi":24,"time":207.27252000000001,"velocity":0.3937007874015748},{"duration":0.1818179999999927,"midi":36,"time":207.454338,"velocity":0.3937007874015748},{"duration":0.1818179999999927,"midi":41,"time":207.454338,"velocity":0.3937007874015748},{"duration":0.18181800000002113,"midi":29,"time":207.636156,"velocity":0.3937007874015748},{"duration":0.18181800000002113,"midi":24,"time":207.636156,"velocity":0.3937007874015748},{"duration":0.1818179999999927,"midi":36,"time":207.81797400000002,"velocity":0.3937007874015748},{"duration":0.1818179999999927,"midi":41,"time":207.81797400000002,"velocity":0.3937007874015748},{"duration":0.1818179999999927,"midi":31,"time":207.999792,"velocity":0.3937007874015748},{"duration":0.1818179999999927,"midi":26,"time":207.999792,"velocity":0.3937007874015748},{"duration":0.1818179999999927,"midi":38,"time":208.18161,"velocity":0.3937007874015748},{"duration":0.1818179999999927,"midi":43,"time":208.18161,"velocity":0.3937007874015748},{"duration":0.18181800000002113,"midi":31,"time":208.363428,"velocity":0.3937007874015748},{"duration":0.18181800000002113,"midi":38,"time":208.363428,"velocity":0.3937007874015748},{"duration":0.1818179999999927,"midi":43,"time":208.54524600000002,"velocity":0.3937007874015748},{"duration":0.1818179999999927,"midi":38,"time":208.54524600000002,"velocity":0.3937007874015748},{"duration":0.1818179999999927,"midi":26,"time":208.727064,"velocity":0.3937007874015748},{"duration":0.1818179999999927,"midi":31,"time":208.727064,"velocity":0.3937007874015748},{"duration":0.1818179999999927,"midi":43,"time":208.908882,"velocity":0.3937007874015748},{"duration":0.1818179999999927,"midi":38,"time":208.908882,"velocity":0.3937007874015748},{"duration":0.18181800000002113,"midi":38,"time":209.0907,"velocity":0.3937007874015748},{"duration":0.18181800000002113,"midi":31,"time":209.0907,"velocity":0.3937007874015748},{"duration":0.1818179999999927,"midi":43,"time":209.27251800000002,"velocity":0.3937007874015748},{"duration":0.1818179999999927,"midi":38,"time":209.27251800000002,"velocity":0.3937007874015748}]},{"instrument":{"family":"synth lead","number":87,"name":"lead 8 (bass + lead)"},"notes":[{"duration":0.1590907500000185,"midi":43,"time":244.363392,"velocity":0.3937007874015748},{"duration":0.1590907500000185,"midi":31,"time":244.363392,"velocity":0.3937007874015748},{"duration":0.1590907500000185,"midi":38,"time":244.363392,"velocity":0.3937007874015748},{"duration":0.18181800000002113,"midi":43,"time":244.54521,"velocity":0.3937007874015748},{"duration":0.18181800000002113,"midi":38,"time":244.54521,"velocity":0.3937007874015748},{"duration":0.18181800000002113,"midi":31,"time":244.54521,"velocity":0.3937007874015748},{"duration":0.15909074999999007,"midi":43,"time":244.908846,"velocity":0.3937007874015748},{"duration":0.15909074999999007,"midi":38,"time":244.908846,"velocity":0.3937007874015748},{"duration":0.15909074999999007,"midi":31,"time":244.908846,"velocity":0.3937007874015748},{"duration":0.1590907500000185,"midi":43,"time":245.090664,"velocity":0.3937007874015748},{"duration":0.1590907500000185,"midi":31,"time":245.090664,"velocity":0.3937007874015748},{"duration":0.1590907500000185,"midi":38,"time":245.090664,"velocity":0.3937007874015748},{"duration":0.1590907500000185,"midi":38,"time":245.272482,"velocity":0.3937007874015748},{"duration":0.1590907500000185,"midi":31,"time":245.272482,"velocity":0.3937007874015748},{"duration":0.1590907500000185,"midi":43,"time":245.272482,"velocity":0.3937007874015748},{"duration":0.3636359999999854,"midi":38,"time":245.45430000000002,"velocity":0.3937007874015748},{"duration":0.3636359999999854,"midi":43,"time":245.45430000000002,"velocity":0.3937007874015748},{"duration":0.3636359999999854,"midi":31,"time":245.45430000000002,"velocity":0.3937007874015748},{"duration":0.1590907500000185,"midi":34,"time":245.817936,"velocity":0.3937007874015748},{"duration":0.1590907500000185,"midi":41,"time":245.817936,"velocity":0.3937007874015748},{"duration":0.1590907500000185,"midi":46,"time":245.817936,"velocity":0.3937007874015748},{"duration":0.18181800000002113,"midi":41,"time":245.999754,"velocity":0.3937007874015748},{"duration":0.18181800000002113,"midi":46,"time":245.999754,"velocity":0.3937007874015748},{"duration":0.18181800000002113,"midi":34,"time":245.999754,"velocity":0.3937007874015748},{"duration":0.15909074999999007,"midi":46,"time":246.36339,"velocity":0.3937007874015748},{"duration":0.15909074999999007,"midi":41,"time":246.36339,"velocity":0.3937007874015748},{"duration":0.15909074999999007,"midi":34,"time":246.36339,"velocity":0.3937007874015748},{"duration":0.1590907500000185,"midi":34,"time":246.545208,"velocity":0.3937007874015748},{"duration":0.1590907500000185,"midi":41,"time":246.545208,"velocity":0.3937007874015748},{"duration":0.1590907500000185,"midi":46,"time":246.545208,"velocity":0.3937007874015748},{"duration":0.15909074999999007,"midi":41,"time":246.72702600000002,"velocity":0.3937007874015748},{"duration":0.15909074999999007,"midi":46,"time":246.72702600000002,"velocity":0.3937007874015748},{"duration":0.15909074999999007,"midi":34,"time":246.72702600000002,"velocity":0.3937007874015748},{"duration":0.3636359999999854,"midi":43,"time":246.90884400000002,"velocity":0.3937007874015748},{"duration":0.3636359999999854,"midi":48,"time":246.90884400000002,"velocity":0.3937007874015748},{"duration":0.3636359999999854,"midi":36,"time":246.90884400000002,"velocity":0.3937007874015748},{"duration":0.1590907500000185,"midi":45,"time":247.27248,"velocity":0.3937007874015748},{"duration":0.1590907500000185,"midi":33,"time":247.27248,"velocity":0.3937007874015748},{"duration":0.1590907500000185,"midi":41,"time":247.27248,"velocity":0.3937007874015748},{"duration":0.1818179999999927,"midi":45,"time":247.45429800000002,"velocity":0.3937007874015748},{"duration":0.1818179999999927,"midi":33,"time":247.45429800000002,"velocity":0.3937007874015748},{"duration":0.1818179999999927,"midi":41,"time":247.45429800000002,"velocity":0.3937007874015748},{"duration":0.15909074999999007,"midi":45,"time":247.817934,"velocity":0.3937007874015748},{"duration":0.15909074999999007,"midi":33,"time":247.817934,"velocity":0.3937007874015748},{"duration":0.15909074999999007,"midi":41,"time":247.817934,"velocity":0.3937007874015748},{"duration":0.1590907500000185,"midi":33,"time":247.999752,"velocity":0.3937007874015748},{"duration":0.1590907500000185,"midi":41,"time":247.999752,"velocity":0.3937007874015748},{"duration":0.1590907500000185,"midi":45,"time":247.999752,"velocity":0.3937007874015748},{"duration":0.15909074999999007,"midi":41,"time":248.18157000000002,"velocity":0.3937007874015748},{"duration":0.15909074999999007,"midi":45,"time":248.18157000000002,"velocity":0.3937007874015748},{"duration":0.15909074999999007,"midi":33,"time":248.18157000000002,"velocity":0.3937007874015748},{"duration":0.3636359999999854,"midi":33,"time":248.36338800000001,"velocity":0.3937007874015748},{"duration":0.3636359999999854,"midi":45,"time":248.36338800000001,"velocity":0.3937007874015748},{"duration":0.3636359999999854,"midi":41,"time":248.36338800000001,"velocity":0.3937007874015748},{"duration":0.1590907500000185,"midi":46,"time":248.727024,"velocity":0.3937007874015748},{"duration":0.1590907500000185,"midi":43,"time":248.727024,"velocity":0.3937007874015748},{"duration":0.1590907500000185,"midi":34,"time":248.727024,"velocity":0.3937007874015748},{"duration":0.1818179999999927,"midi":34,"time":248.90884200000002,"velocity":0.3937007874015748},{"duration":0.1818179999999927,"midi":43,"time":248.90884200000002,"velocity":0.3937007874015748},{"duration":0.1818179999999927,"midi":46,"time":248.90884200000002,"velocity":0.3937007874015748},{"duration":0.15909074999999007,"midi":43,"time":249.272478,"velocity":0.3937007874015748},{"duration":0.15909074999999007,"midi":34,"time":249.272478,"velocity":0.3937007874015748},{"duration":0.15909074999999007,"midi":46,"time":249.272478,"velocity":0.3937007874015748},{"duration":0.1590907500000185,"midi":34,"time":249.454296,"velocity":0.3937007874015748},{"duration":0.1590907500000185,"midi":43,"time":249.454296,"velocity":0.3937007874015748},{"duration":0.1590907500000185,"midi":46,"time":249.454296,"velocity":0.3937007874015748},{"duration":0.15909074999999007,"midi":43,"time":249.63611400000002,"velocity":0.3937007874015748},{"duration":0.15909074999999007,"midi":34,"time":249.63611400000002,"velocity":0.3937007874015748},{"duration":0.15909074999999007,"midi":46,"time":249.63611400000002,"velocity":0.3937007874015748},{"duration":0.3636359999999854,"midi":43,"time":249.817932,"velocity":0.3937007874015748},{"duration":0.3636359999999854,"midi":34,"time":249.817932,"velocity":0.3937007874015748},{"duration":0.3636359999999854,"midi":46,"time":249.817932,"velocity":0.3937007874015748},{"duration":0.1590907500000185,"midi":58,"time":250.181568,"velocity":0.3937007874015748},{"duration":0.1590907500000185,"midi":50,"time":250.181568,"velocity":0.3937007874015748},{"duration":0.1590907500000185,"midi":46,"time":250.181568,"velocity":0.3937007874015748},{"duration":0.1590907500000185,"midi":62,"time":250.181568,"velocity":0.3937007874015748},{"duration":0.1590907500000185,"midi":38,"time":250.181568,"velocity":0.3937007874015748},{"duration":0.1818179999999927,"midi":58,"time":250.36338600000002,"velocity":0.3937007874015748},{"duration":0.1818179999999927,"midi":38,"time":250.36338600000002,"velocity":0.3937007874015748},{"duration":0.1818179999999927,"midi":62,"time":250.36338600000002,"velocity":0.3937007874015748},{"duration":0.1818179999999927,"midi":50,"time":250.36338600000002,"velocity":0.3937007874015748},{"duration":0.1818179999999927,"midi":46,"time":250.36338600000002,"velocity":0.3937007874015748},{"duration":0.1590907500000185,"midi":50,"time":250.727022,"velocity":0.3937007874015748},{"duration":0.1590907500000185,"midi":46,"time":250.727022,"velocity":0.3937007874015748},{"duration":0.1590907500000185,"midi":58,"time":250.727022,"velocity":0.3937007874015748},{"duration":0.1590907500000185,"midi":62,"time":250.727022,"velocity":0.3937007874015748},{"duration":0.1590907500000185,"midi":38,"time":250.727022,"velocity":0.3937007874015748},{"duration":0.1590907500000185,"midi":38,"time":250.90884,"velocity":0.3937007874015748},{"duration":0.1590907500000185,"midi":62,"time":250.90884,"velocity":0.3937007874015748},{"duration":0.1590907500000185,"midi":58,"time":250.90884,"velocity":0.3937007874015748},{"duration":0.1590907500000185,"midi":46,"time":250.90884,"velocity":0.3937007874015748},{"duration":0.1590907500000185,"midi":50,"time":250.90884,"velocity":0.3937007874015748},{"duration":0.15909074999999007,"midi":38,"time":251.09065800000002,"velocity":0.3937007874015748},{"duration":0.15909074999999007,"midi":58,"time":251.09065800000002,"velocity":0.3937007874015748},{"duration":0.15909074999999007,"midi":50,"time":251.09065800000002,"velocity":0.3937007874015748},{"duration":0.15909074999999007,"midi":62,"time":251.09065800000002,"velocity":0.3937007874015748},{"duration":0.15909074999999007,"midi":46,"time":251.09065800000002,"velocity":0.3937007874015748},{"duration":0.3636359999999854,"midi":39,"time":251.272476,"velocity":0.3937007874015748},{"duration":0.3636359999999854,"midi":51,"time":251.272476,"velocity":0.3937007874015748},{"duration":0.3636359999999854,"midi":48,"time":251.272476,"velocity":0.3937007874015748},{"duration":0.3636359999999854,"midi":63,"time":251.272476,"velocity":0.3937007874015748},{"duration":0.3636359999999854,"midi":60,"time":251.272476,"velocity":0.3937007874015748},{"duration":0.1590907500000185,"midi":50,"time":251.636112,"velocity":0.3937007874015748},{"duration":0.1590907500000185,"midi":58,"time":251.636112,"velocity":0.3937007874015748},{"duration":0.1590907500000185,"midi":46,"time":251.636112,"velocity":0.3937007874015748},{"duration":0.1590907500000185,"midi":38,"time":251.636112,"velocity":0.3937007874015748},{"duration":0.1590907500000185,"midi":62,"time":251.636112,"velocity":0.3937007874015748},{"duration":0.1818179999999927,"midi":46,"time":251.81793000000002,"velocity":0.3937007874015748},{"duration":0.1818179999999927,"midi":50,"time":251.81793000000002,"velocity":0.3937007874015748},{"duration":0.1818179999999927,"midi":58,"time":251.81793000000002,"velocity":0.3937007874015748},{"duration":0.1818179999999927,"midi":38,"time":251.81793000000002,"velocity":0.3937007874015748},{"duration":0.1818179999999927,"midi":62,"time":251.81793000000002,"velocity":0.3937007874015748},{"duration":0.1590907500000185,"midi":58,"time":252.181566,"velocity":0.3937007874015748},{"duration":0.1590907500000185,"midi":50,"time":252.181566,"velocity":0.3937007874015748},{"duration":0.1590907500000185,"midi":62,"time":252.181566,"velocity":0.3937007874015748},{"duration":0.1590907500000185,"midi":46,"time":252.181566,"velocity":0.3937007874015748},{"duration":0.1590907500000185,"midi":38,"time":252.181566,"velocity":0.3937007874015748},{"duration":0.1590907500000185,"midi":38,"time":252.363384,"velocity":0.3937007874015748},{"duration":0.1590907500000185,"midi":62,"time":252.363384,"velocity":0.3937007874015748},{"duration":0.1590907500000185,"midi":50,"time":252.363384,"velocity":0.3937007874015748},{"duration":0.1590907500000185,"midi":46,"time":252.363384,"velocity":0.3937007874015748},{"duration":0.1590907500000185,"midi":58,"time":252.363384,"velocity":0.3937007874015748},{"duration":0.15909074999999007,"midi":58,"time":252.54520200000002,"velocity":0.3937007874015748},{"duration":0.15909074999999007,"midi":46,"time":252.54520200000002,"velocity":0.3937007874015748},{"duration":0.15909074999999007,"midi":62,"time":252.54520200000002,"velocity":0.3937007874015748},{"duration":0.15909074999999007,"midi":50,"time":252.54520200000002,"velocity":0.3937007874015748},{"duration":0.15909074999999007,"midi":38,"time":252.54520200000002,"velocity":0.3937007874015748},{"duration":0.36363600000001384,"midi":50,"time":252.72702,"velocity":0.3937007874015748},{"duration":0.36363600000001384,"midi":46,"time":252.72702,"velocity":0.3937007874015748},{"duration":0.36363600000001384,"midi":58,"time":252.72702,"velocity":0.3937007874015748},{"duration":0.36363600000001384,"midi":38,"time":252.72702,"velocity":0.3937007874015748},{"duration":0.36363600000001384,"midi":62,"time":252.72702,"velocity":0.3937007874015748},{"duration":0.15909074999999007,"midi":41,"time":253.09065600000002,"velocity":0.3937007874015748},{"duration":0.15909074999999007,"midi":33,"time":253.09065600000002,"velocity":0.3937007874015748},{"duration":0.15909074999999007,"midi":45,"time":253.09065600000002,"velocity":0.3937007874015748},{"duration":0.15909074999999007,"midi":53,"time":253.09065600000002,"velocity":0.3937007874015748},{"duration":0.15909074999999007,"midi":57,"time":253.09065600000002,"velocity":0.3937007874015748},{"duration":0.1818179999999927,"midi":41,"time":253.27247400000002,"velocity":0.3937007874015748},{"duration":0.1818179999999927,"midi":45,"time":253.27247400000002,"velocity":0.3937007874015748},{"duration":0.1818179999999927,"midi":53,"time":253.27247400000002,"velocity":0.3937007874015748},{"duration":0.1818179999999927,"midi":33,"time":253.27247400000002,"velocity":0.3937007874015748},{"duration":0.1818179999999927,"midi":57,"time":253.27247400000002,"velocity":0.3937007874015748},{"duration":0.1590907500000185,"midi":57,"time":253.63611,"velocity":0.3937007874015748},{"duration":0.1590907500000185,"midi":45,"time":253.63611,"velocity":0.3937007874015748},{"duration":0.1590907500000185,"midi":53,"time":253.63611,"velocity":0.3937007874015748},{"duration":0.1590907500000185,"midi":33,"time":253.63611,"velocity":0.3937007874015748},{"duration":0.1590907500000185,"midi":41,"time":253.63611,"velocity":0.3937007874015748},{"duration":0.15909074999999007,"midi":33,"time":253.81792800000002,"velocity":0.3937007874015748},{"duration":0.15909074999999007,"midi":53,"time":253.81792800000002,"velocity":0.3937007874015748},{"duration":0.15909074999999007,"midi":57,"time":253.81792800000002,"velocity":0.3937007874015748},{"duration":0.15909074999999007,"midi":41,"time":253.81792800000002,"velocity":0.3937007874015748},{"duration":0.15909074999999007,"midi":45,"time":253.81792800000002,"velocity":0.3937007874015748},{"duration":0.15909074999999007,"midi":33,"time":253.99974600000002,"velocity":0.3937007874015748},{"duration":0.15909074999999007,"midi":57,"time":253.99974600000002,"velocity":0.3937007874015748},{"duration":0.15909074999999007,"midi":53,"time":253.99974600000002,"velocity":0.3937007874015748},{"duration":0.15909074999999007,"midi":45,"time":253.99974600000002,"velocity":0.3937007874015748},{"duration":0.15909074999999007,"midi":41,"time":253.99974600000002,"velocity":0.3937007874015748},{"duration":0.36363600000001384,"midi":46,"time":254.181564,"velocity":0.3937007874015748},{"duration":0.36363600000001384,"midi":58,"time":254.181564,"velocity":0.3937007874015748},{"duration":0.36363600000001384,"midi":55,"time":254.181564,"velocity":0.3937007874015748},{"duration":0.36363600000001384,"midi":34,"time":254.181564,"velocity":0.3937007874015748},{"duration":0.36363600000001384,"midi":43,"time":254.181564,"velocity":0.3937007874015748},{"duration":0.15909074999999007,"midi":38,"time":254.54520000000002,"velocity":0.3937007874015748},{"duration":0.15909074999999007,"midi":55,"time":254.54520000000002,"velocity":0.3937007874015748},{"duration":0.15909074999999007,"midi":43,"time":254.54520000000002,"velocity":0.3937007874015748},{"duration":0.15909074999999007,"midi":31,"time":254.54520000000002,"velocity":0.3937007874015748},{"duration":0.15909074999999007,"midi":50,"time":254.54520000000002,"velocity":0.3937007874015748},{"duration":0.1818179999999927,"midi":55,"time":254.72701800000002,"velocity":0.3937007874015748},{"duration":0.1818179999999927,"midi":38,"time":254.72701800000002,"velocity":0.3937007874015748},{"duration":0.1818179999999927,"midi":50,"time":254.72701800000002,"velocity":0.3937007874015748},{"duration":0.1818179999999927,"midi":31,"time":254.72701800000002,"velocity":0.3937007874015748},{"duration":0.1818179999999927,"midi":43,"time":254.72701800000002,"velocity":0.3937007874015748},{"duration":0.1590907500000185,"midi":43,"time":255.090654,"velocity":0.3937007874015748},{"duration":0.1590907500000185,"midi":50,"time":255.090654,"velocity":0.3937007874015748},{"duration":0.1590907500000185,"midi":55,"time":255.090654,"velocity":0.3937007874015748},{"duration":0.1590907500000185,"midi":38,"time":255.090654,"velocity":0.3937007874015748},{"duration":0.1590907500000185,"midi":31,"time":255.090654,"velocity":0.3937007874015748},{"duration":0.15909074999999007,"midi":31,"time":255.27247200000002,"velocity":0.3937007874015748},{"duration":0.15909074999999007,"midi":55,"time":255.27247200000002,"velocity":0.3937007874015748},{"duration":0.15909074999999007,"midi":38,"time":255.27247200000002,"velocity":0.3937007874015748},{"duration":0.15909074999999007,"midi":43,"time":255.27247200000002,"velocity":0.3937007874015748},{"duration":0.15909074999999007,"midi":50,"time":255.27247200000002,"velocity":0.3937007874015748},{"duration":0.15909074999999007,"midi":31,"time":255.45429000000001,"velocity":0.3937007874015748},{"duration":0.15909074999999007,"midi":38,"time":255.45429000000001,"velocity":0.3937007874015748},{"duration":0.15909074999999007,"midi":50,"time":255.45429000000001,"velocity":0.3937007874015748},{"duration":0.15909074999999007,"midi":43,"time":255.45429000000001,"velocity":0.3937007874015748},{"duration":0.15909074999999007,"midi":55,"time":255.45429000000001,"velocity":0.3937007874015748},{"duration":0.36363600000001384,"midi":38,"time":255.636108,"velocity":0.3937007874015748},{"duration":0.36363600000001384,"midi":50,"time":255.636108,"velocity":0.3937007874015748},{"duration":0.36363600000001384,"midi":31,"time":255.636108,"velocity":0.3937007874015748},{"duration":0.36363600000001384,"midi":43,"time":255.636108,"velocity":0.3937007874015748},{"duration":0.36363600000001384,"midi":55,"time":255.636108,"velocity":0.3937007874015748},{"duration":0.15909074999996164,"midi":43,"time":255.99974400000002,"velocity":0.3937007874015748},{"duration":0.15909074999996164,"midi":31,"time":255.99974400000002,"velocity":0.3937007874015748},{"duration":0.15909074999996164,"midi":38,"time":255.99974400000002,"velocity":0.3937007874015748},{"duration":0.18181800000002113,"midi":31,"time":256.181562,"velocity":0.3937007874015748},{"duration":0.18181800000002113,"midi":43,"time":256.181562,"velocity":0.3937007874015748},{"duration":0.18181800000002113,"midi":38,"time":256.181562,"velocity":0.3937007874015748},{"duration":0.15909074999996164,"midi":43,"time":256.545198,"velocity":0.3937007874015748},{"duration":0.15909074999996164,"midi":38,"time":256.545198,"velocity":0.3937007874015748},{"duration":0.15909074999996164,"midi":31,"time":256.545198,"velocity":0.3937007874015748},{"duration":0.1590907500000185,"midi":38,"time":256.727016,"velocity":0.3937007874015748},{"duration":0.1590907500000185,"midi":43,"time":256.727016,"velocity":0.3937007874015748},{"duration":0.1590907500000185,"midi":31,"time":256.727016,"velocity":0.3937007874015748},{"duration":0.1590907500000185,"midi":43,"time":256.908834,"velocity":0.3937007874015748},{"duration":0.1590907500000185,"midi":38,"time":256.908834,"velocity":0.3937007874015748},{"duration":0.1590907500000185,"midi":31,"time":256.908834,"velocity":0.3937007874015748},{"duration":0.3636359999999854,"midi":43,"time":257.09065200000003,"velocity":0.3937007874015748},{"duration":0.3636359999999854,"midi":38,"time":257.09065200000003,"velocity":0.3937007874015748},{"duration":0.3636359999999854,"midi":31,"time":257.09065200000003,"velocity":0.3937007874015748},{"duration":0.1590907500000185,"midi":41,"time":257.454288,"velocity":0.3937007874015748},{"duration":0.1590907500000185,"midi":46,"time":257.454288,"velocity":0.3937007874015748},{"duration":0.1590907500000185,"midi":34,"time":257.454288,"velocity":0.3937007874015748},{"duration":0.18181800000002113,"midi":41,"time":257.636106,"velocity":0.3937007874015748},{"duration":0.18181800000002113,"midi":34,"time":257.636106,"velocity":0.3937007874015748},{"duration":0.18181800000002113,"midi":46,"time":257.636106,"velocity":0.3937007874015748},{"duration":0.15909074999996164,"midi":46,"time":257.999742,"velocity":0.3937007874015748},{"duration":0.15909074999996164,"midi":41,"time":257.999742,"velocity":0.3937007874015748},{"duration":0.15909074999996164,"midi":34,"time":257.999742,"velocity":0.3937007874015748},{"duration":0.1590907500000185,"midi":46,"time":258.18156,"velocity":0.3937007874015748},{"duration":0.1590907500000185,"midi":41,"time":258.18156,"velocity":0.3937007874015748},{"duration":0.1590907500000185,"midi":34,"time":258.18156,"velocity":0.3937007874015748},{"duration":0.1590907500000185,"midi":46,"time":258.363378,"velocity":0.3937007874015748},{"duration":0.1590907500000185,"midi":34,"time":258.363378,"velocity":0.3937007874015748},{"duration":0.1590907500000185,"midi":41,"time":258.363378,"velocity":0.3937007874015748},{"duration":0.3636359999999854,"midi":36,"time":258.54519600000003,"velocity":0.3937007874015748},{"duration":0.3636359999999854,"midi":48,"time":258.54519600000003,"velocity":0.3937007874015748},{"duration":0.3636359999999854,"midi":43,"time":258.54519600000003,"velocity":0.3937007874015748},{"duration":0.1590907500000185,"midi":45,"time":258.908832,"velocity":0.3937007874015748},{"duration":0.1590907500000185,"midi":33,"time":258.908832,"velocity":0.3937007874015748},{"duration":0.1590907500000185,"midi":41,"time":258.908832,"velocity":0.3937007874015748},{"duration":0.18181800000002113,"midi":33,"time":259.09065,"velocity":0.3937007874015748},{"duration":0.18181800000002113,"midi":41,"time":259.09065,"velocity":0.3937007874015748},{"duration":0.18181800000002113,"midi":45,"time":259.09065,"velocity":0.3937007874015748},{"duration":0.15909074999996164,"midi":41,"time":259.454286,"velocity":0.3937007874015748},{"duration":0.15909074999996164,"midi":45,"time":259.454286,"velocity":0.3937007874015748},{"duration":0.15909074999996164,"midi":33,"time":259.454286,"velocity":0.3937007874015748},{"duration":0.1590907500000185,"midi":33,"time":259.636104,"velocity":0.3937007874015748},{"duration":0.1590907500000185,"midi":45,"time":259.636104,"velocity":0.3937007874015748},{"duration":0.1590907500000185,"midi":41,"time":259.636104,"velocity":0.3937007874015748},{"duration":0.1590907500000185,"midi":45,"time":259.817922,"velocity":0.3937007874015748},{"duration":0.1590907500000185,"midi":41,"time":259.817922,"velocity":0.3937007874015748},{"duration":0.1590907500000185,"midi":33,"time":259.817922,"velocity":0.3937007874015748},{"duration":0.3636359999999854,"midi":45,"time":259.99974000000003,"velocity":0.3937007874015748},{"duration":0.3636359999999854,"midi":33,"time":259.99974000000003,"velocity":0.3937007874015748},{"duration":0.3636359999999854,"midi":41,"time":259.99974000000003,"velocity":0.3937007874015748},{"duration":0.1590907500000185,"midi":34,"time":260.363376,"velocity":0.3937007874015748},{"duration":0.1590907500000185,"midi":46,"time":260.363376,"velocity":0.3937007874015748},{"duration":0.1590907500000185,"midi":43,"time":260.363376,"velocity":0.3937007874015748},{"duration":0.18181799999996429,"midi":34,"time":260.54519400000004,"velocity":0.3937007874015748},{"duration":0.18181799999996429,"midi":43,"time":260.54519400000004,"velocity":0.3937007874015748},{"duration":0.18181799999996429,"midi":46,"time":260.54519400000004,"velocity":0.3937007874015748},{"duration":0.15909074999996164,"midi":34,"time":260.90883,"velocity":0.3937007874015748},{"duration":0.15909074999996164,"midi":43,"time":260.90883,"velocity":0.3937007874015748},{"duration":0.15909074999996164,"midi":46,"time":260.90883,"velocity":0.3937007874015748},{"duration":0.1590907500000185,"midi":43,"time":261.090648,"velocity":0.3937007874015748},{"duration":0.1590907500000185,"midi":34,"time":261.090648,"velocity":0.3937007874015748},{"duration":0.1590907500000185,"midi":46,"time":261.090648,"velocity":0.3937007874015748},{"duration":0.1590907500000185,"midi":34,"time":261.272466,"velocity":0.3937007874015748},{"duration":0.1590907500000185,"midi":46,"time":261.272466,"velocity":0.3937007874015748},{"duration":0.1590907500000185,"midi":43,"time":261.272466,"velocity":0.3937007874015748},{"duration":0.3636359999999854,"midi":43,"time":261.45428400000003,"velocity":0.3937007874015748},{"duration":0.3636359999999854,"midi":46,"time":261.45428400000003,"velocity":0.3937007874015748},{"duration":0.3636359999999854,"midi":34,"time":261.45428400000003,"velocity":0.3937007874015748},{"duration":0.1590907500000185,"midi":46,"time":261.81792,"velocity":0.3937007874015748},{"duration":0.1590907500000185,"midi":38,"time":261.81792,"velocity":0.3937007874015748},{"duration":0.1590907500000185,"midi":50,"time":261.81792,"velocity":0.3937007874015748},{"duration":0.1590907500000185,"midi":62,"time":261.81792,"velocity":0.3937007874015748},{"duration":0.1590907500000185,"midi":58,"time":261.81792,"velocity":0.3937007874015748},{"duration":0.18181799999996429,"midi":46,"time":261.99973800000004,"velocity":0.3937007874015748},{"duration":0.18181799999996429,"midi":50,"time":261.99973800000004,"velocity":0.3937007874015748},{"duration":0.18181799999996429,"midi":38,"time":261.99973800000004,"velocity":0.3937007874015748},{"duration":0.18181799999996429,"midi":58,"time":261.99973800000004,"velocity":0.3937007874015748},{"duration":0.18181799999996429,"midi":62,"time":261.99973800000004,"velocity":0.3937007874015748},{"duration":0.15909074999996164,"midi":46,"time":262.363374,"velocity":0.3937007874015748},{"duration":0.15909074999996164,"midi":58,"time":262.363374,"velocity":0.3937007874015748},{"duration":0.15909074999996164,"midi":38,"time":262.363374,"velocity":0.3937007874015748},{"duration":0.15909074999996164,"midi":62,"time":262.363374,"velocity":0.3937007874015748},{"duration":0.15909074999996164,"midi":50,"time":262.363374,"velocity":0.3937007874015748},{"duration":0.1590907500000185,"midi":38,"time":262.545192,"velocity":0.3937007874015748},{"duration":0.1590907500000185,"midi":62,"time":262.545192,"velocity":0.3937007874015748},{"duration":0.1590907500000185,"midi":58,"time":262.545192,"velocity":0.3937007874015748},{"duration":0.1590907500000185,"midi":46,"time":262.545192,"velocity":0.3937007874015748},{"duration":0.1590907500000185,"midi":50,"time":262.545192,"velocity":0.3937007874015748},{"duration":0.1590907500000185,"midi":58,"time":262.72701,"velocity":0.3937007874015748},{"duration":0.1590907500000185,"midi":50,"time":262.72701,"velocity":0.3937007874015748},{"duration":0.1590907500000185,"midi":62,"time":262.72701,"velocity":0.3937007874015748},{"duration":0.1590907500000185,"midi":46,"time":262.72701,"velocity":0.3937007874015748},{"duration":0.1590907500000185,"midi":38,"time":262.72701,"velocity":0.3937007874015748},{"duration":0.3636359999999854,"midi":60,"time":262.908828,"velocity":0.3937007874015748},{"duration":0.3636359999999854,"midi":51,"time":262.908828,"velocity":0.3937007874015748},{"duration":0.3636359999999854,"midi":63,"time":262.908828,"velocity":0.3937007874015748},{"duration":0.3636359999999854,"midi":48,"time":262.908828,"velocity":0.3937007874015748},{"duration":0.3636359999999854,"midi":39,"time":262.908828,"velocity":0.3937007874015748},{"duration":0.1590907500000185,"midi":38,"time":263.272464,"velocity":0.3937007874015748},{"duration":0.1590907500000185,"midi":50,"time":263.272464,"velocity":0.3937007874015748},{"duration":0.1590907500000185,"midi":62,"time":263.272464,"velocity":0.3937007874015748},{"duration":0.1590907500000185,"midi":58,"time":263.272464,"velocity":0.3937007874015748},{"duration":0.1590907500000185,"midi":46,"time":263.272464,"velocity":0.3937007874015748},{"duration":0.18181799999996429,"midi":58,"time":263.45428200000003,"velocity":0.3937007874015748},{"duration":0.18181799999996429,"midi":46,"time":263.45428200000003,"velocity":0.3937007874015748},{"duration":0.18181799999996429,"midi":62,"time":263.45428200000003,"velocity":0.3937007874015748},{"duration":0.18181799999996429,"midi":38,"time":263.45428200000003,"velocity":0.3937007874015748},{"duration":0.18181799999996429,"midi":50,"time":263.45428200000003,"velocity":0.3937007874015748},{"duration":0.1590907500000185,"midi":62,"time":263.817918,"velocity":0.3937007874015748},{"duration":0.1590907500000185,"midi":46,"time":263.817918,"velocity":0.3937007874015748},{"duration":0.1590907500000185,"midi":58,"time":263.817918,"velocity":0.3937007874015748},{"duration":0.1590907500000185,"midi":38,"time":263.817918,"velocity":0.3937007874015748},{"duration":0.1590907500000185,"midi":50,"time":263.817918,"velocity":0.3937007874015748},{"duration":0.1590907500000185,"midi":50,"time":263.999736,"velocity":0.3937007874015748},{"duration":0.1590907500000185,"midi":58,"time":263.999736,"velocity":0.3937007874015748},{"duration":0.1590907500000185,"midi":46,"time":263.999736,"velocity":0.3937007874015748},{"duration":0.1590907500000185,"midi":38,"time":263.999736,"velocity":0.3937007874015748},{"duration":0.1590907500000185,"midi":62,"time":263.999736,"velocity":0.3937007874015748},{"duration":0.1590907500000185,"midi":38,"time":264.181554,"velocity":0.3937007874015748},{"duration":0.1590907500000185,"midi":58,"time":264.181554,"velocity":0.3937007874015748},{"duration":0.1590907500000185,"midi":46,"time":264.181554,"velocity":0.3937007874015748},{"duration":0.1590907500000185,"midi":50,"time":264.181554,"velocity":0.3937007874015748},{"duration":0.1590907500000185,"midi":62,"time":264.181554,"velocity":0.3937007874015748},{"duration":0.3636359999999854,"midi":38,"time":264.363372,"velocity":0.3937007874015748},{"duration":0.3636359999999854,"midi":46,"time":264.363372,"velocity":0.3937007874015748},{"duration":0.3636359999999854,"midi":62,"time":264.363372,"velocity":0.3937007874015748},{"duration":0.3636359999999854,"midi":50,"time":264.363372,"velocity":0.3937007874015748},{"duration":0.3636359999999854,"midi":58,"time":264.363372,"velocity":0.3937007874015748},{"duration":0.1590907500000185,"midi":53,"time":264.727008,"velocity":0.3937007874015748},{"duration":0.1590907500000185,"midi":45,"time":264.727008,"velocity":0.3937007874015748},{"duration":0.1590907500000185,"midi":57,"time":264.727008,"velocity":0.3937007874015748},{"duration":0.1590907500000185,"midi":33,"time":264.727008,"velocity":0.3937007874015748},{"duration":0.1590907500000185,"midi":41,"time":264.727008,"velocity":0.3937007874015748},{"duration":0.18181799999996429,"midi":53,"time":264.90882600000003,"velocity":0.3937007874015748},{"duration":0.18181799999996429,"midi":41,"time":264.90882600000003,"velocity":0.3937007874015748},{"duration":0.18181799999996429,"midi":57,"time":264.90882600000003,"velocity":0.3937007874015748},{"duration":0.18181799999996429,"midi":45,"time":264.90882600000003,"velocity":0.3937007874015748},{"duration":0.18181799999996429,"midi":33,"time":264.90882600000003,"velocity":0.3937007874015748},{"duration":0.1590907500000185,"midi":53,"time":265.272462,"velocity":0.3937007874015748},{"duration":0.1590907500000185,"midi":57,"time":265.272462,"velocity":0.3937007874015748},{"duration":0.1590907500000185,"midi":33,"time":265.272462,"velocity":0.3937007874015748},{"duration":0.1590907500000185,"midi":45,"time":265.272462,"velocity":0.3937007874015748},{"duration":0.1590907500000185,"midi":41,"time":265.272462,"velocity":0.3937007874015748},{"duration":0.1590907500000185,"midi":53,"time":265.45428,"velocity":0.3937007874015748},{"duration":0.1590907500000185,"midi":33,"time":265.45428,"velocity":0.3937007874015748},{"duration":0.1590907500000185,"midi":41,"time":265.45428,"velocity":0.3937007874015748},{"duration":0.1590907500000185,"midi":45,"time":265.45428,"velocity":0.3937007874015748},{"duration":0.1590907500000185,"midi":57,"time":265.45428,"velocity":0.3937007874015748},{"duration":0.1590907500000185,"midi":33,"time":265.636098,"velocity":0.3937007874015748},{"duration":0.1590907500000185,"midi":57,"time":265.636098,"velocity":0.3937007874015748},{"duration":0.1590907500000185,"midi":53,"time":265.636098,"velocity":0.3937007874015748},{"duration":0.1590907500000185,"midi":45,"time":265.636098,"velocity":0.3937007874015748},{"duration":0.1590907500000185,"midi":41,"time":265.636098,"velocity":0.3937007874015748},{"duration":0.3636359999999854,"midi":34,"time":265.817916,"velocity":0.3937007874015748},{"duration":0.3636359999999854,"midi":58,"time":265.817916,"velocity":0.3937007874015748},{"duration":0.3636359999999854,"midi":46,"time":265.817916,"velocity":0.3937007874015748},{"duration":0.3636359999999854,"midi":43,"time":265.817916,"velocity":0.3937007874015748},{"duration":0.3636359999999854,"midi":55,"time":265.817916,"velocity":0.3937007874015748},{"duration":0.1590907500000185,"midi":31,"time":266.181552,"velocity":0.3937007874015748},{"duration":0.1590907500000185,"midi":38,"time":266.181552,"velocity":0.3937007874015748},{"duration":0.1590907500000185,"midi":55,"time":266.181552,"velocity":0.3937007874015748},{"duration":0.1590907500000185,"midi":50,"time":266.181552,"velocity":0.3937007874015748},{"duration":0.1590907500000185,"midi":43,"time":266.181552,"velocity":0.3937007874015748},{"duration":0.18181799999996429,"midi":38,"time":266.36337000000003,"velocity":0.3937007874015748},{"duration":0.18181799999996429,"midi":31,"time":266.36337000000003,"velocity":0.3937007874015748},{"duration":0.18181799999996429,"midi":55,"time":266.36337000000003,"velocity":0.3937007874015748},{"duration":0.18181799999996429,"midi":50,"time":266.36337000000003,"velocity":0.3937007874015748},{"duration":0.18181799999996429,"midi":43,"time":266.36337000000003,"velocity":0.3937007874015748},{"duration":0.1590907500000185,"midi":31,"time":266.727006,"velocity":0.3937007874015748},{"duration":0.1590907500000185,"midi":43,"time":266.727006,"velocity":0.3937007874015748},{"duration":0.1590907500000185,"midi":38,"time":266.727006,"velocity":0.3937007874015748},{"duration":0.1590907500000185,"midi":55,"time":266.727006,"velocity":0.3937007874015748},{"duration":0.1590907500000185,"midi":50,"time":266.727006,"velocity":0.3937007874015748},{"duration":0.15909074999996164,"midi":55,"time":266.90882400000004,"velocity":0.3937007874015748},{"duration":0.15909074999996164,"midi":50,"time":266.90882400000004,"velocity":0.3937007874015748},{"duration":0.15909074999996164,"midi":43,"time":266.90882400000004,"velocity":0.3937007874015748},{"duration":0.15909074999996164,"midi":31,"time":266.90882400000004,"velocity":0.3937007874015748},{"duration":0.15909074999996164,"midi":38,"time":266.90882400000004,"velocity":0.3937007874015748}]},{"instrument":{"family":"piano","number":6,"name":"harpsichord"},"notes":[{"duration":0.363636,"midi":67,"time":0,"velocity":0.3937007874015748},{"duration":0.18181799999999998,"midi":70,"time":0.363636,"velocity":0.3937007874015748},{"duration":0.18181800000000004,"midi":67,"time":0.545454,"velocity":0.3937007874015748},{"duration":0.36363599999999996,"midi":62,"time":0.727272,"velocity":0.3937007874015748},{"duration":0.36363600000000007,"midi":58,"time":1.090908,"velocity":0.3937007874015748},{"duration":0.36363600000000007,"midi":55,"time":1.454544,"velocity":0.3937007874015748},{"duration":0.36363599999999985,"midi":62,"time":1.8181800000000001,"velocity":0.3937007874015748},{"duration":0.18181800000000026,"midi":62,"time":2.181816,"velocity":0.3937007874015748},{"duration":0.1818179999999998,"midi":61,"time":2.3636340000000002,"velocity":0.3937007874015748},{"duration":0.18181800000000026,"midi":60,"time":2.545452,"velocity":0.3937007874015748},{"duration":0.1818179999999998,"midi":58,"time":2.7272700000000003,"velocity":0.3937007874015748},{"duration":0.36363600000000007,"midi":67,"time":2.909088,"velocity":0.3937007874015748},{"duration":0.1818179999999998,"midi":70,"time":3.272724,"velocity":0.3937007874015748},{"duration":0.18181800000000026,"midi":67,"time":3.454542,"velocity":0.3937007874015748},{"duration":0.36363600000000007,"midi":62,"time":3.6363600000000003,"velocity":0.3937007874015748},{"duration":0.3636359999999996,"midi":58,"time":3.9999960000000003,"velocity":0.3937007874015748},{"duration":0.3636360000000005,"midi":55,"time":4.363632,"velocity":0.3937007874015748},{"duration":0.3636359999999996,"midi":62,"time":4.7272680000000005,"velocity":0.3937007874015748},{"duration":0.1818179999999998,"midi":62,"time":5.090904,"velocity":0.3937007874015748},{"duration":0.1818180000000007,"midi":61,"time":5.272722,"velocity":0.3937007874015748},{"duration":0.1818179999999998,"midi":60,"time":5.454540000000001,"velocity":0.3937007874015748},{"duration":0.1818179999999998,"midi":58,"time":5.636358,"velocity":0.3937007874015748},{"duration":0.3636359999999996,"midi":67,"time":5.818176,"velocity":0.3937007874015748},{"duration":0.1818180000000007,"midi":70,"time":6.181812,"velocity":0.3937007874015748},{"duration":0.1818179999999998,"midi":67,"time":6.363630000000001,"velocity":0.3937007874015748},{"duration":0.3636359999999996,"midi":62,"time":6.545448,"velocity":0.3937007874015748},{"duration":0.3636360000000005,"midi":58,"time":6.909084,"velocity":0.3937007874015748},{"duration":0.3636359999999996,"midi":55,"time":7.2727200000000005,"velocity":0.3937007874015748},{"duration":0.3636360000000005,"midi":62,"time":7.636356,"velocity":0.3937007874015748},{"duration":0.1818179999999998,"midi":62,"time":7.999992000000001,"velocity":0.3937007874015748},{"duration":0.1818179999999998,"midi":61,"time":8.18181,"velocity":0.3937007874015748},{"duration":0.1818179999999998,"midi":60,"time":8.363628,"velocity":0.3937007874015748},{"duration":0.1818179999999998,"midi":58,"time":8.545446,"velocity":0.3937007874015748},{"duration":0.3636359999999996,"midi":67,"time":8.727264,"velocity":0.3937007874015748},{"duration":0.1818180000000016,"midi":70,"time":9.0909,"velocity":0.3937007874015748},{"duration":0.1818179999999998,"midi":67,"time":9.272718000000001,"velocity":0.3937007874015748},{"duration":0.3636359999999996,"midi":62,"time":9.454536000000001,"velocity":0.3937007874015748},{"duration":0.3636359999999996,"midi":58,"time":9.818172,"velocity":0.3937007874015748},{"duration":0.3636359999999996,"midi":55,"time":10.181808,"velocity":0.3937007874015748},{"duration":0.3636360000000014,"midi":62,"time":10.545444,"velocity":0.3937007874015748},{"duration":0.1818179999999998,"midi":62,"time":10.909080000000001,"velocity":0.3937007874015748},{"duration":0.1818179999999998,"midi":61,"time":11.090898000000001,"velocity":0.3937007874015748},{"duration":0.1818179999999998,"midi":60,"time":11.272716,"velocity":0.3937007874015748},{"duration":0.1818179999999998,"midi":58,"time":11.454534,"velocity":0.3937007874015748},{"duration":0.1818179999999998,"midi":69,"time":11.636352,"velocity":0.3937007874015748},{"duration":0.1818179999999998,"midi":81,"time":11.636352,"velocity":0.3937007874015748},{"duration":0.1818179999999998,"midi":82,"time":11.81817,"velocity":0.3937007874015748},{"duration":0.1818179999999998,"midi":70,"time":11.81817,"velocity":0.3937007874015748},{"duration":0.1818179999999998,"midi":72,"time":11.999988,"velocity":0.3937007874015748},{"duration":0.1818179999999998,"midi":84,"time":11.999988,"velocity":0.3937007874015748},{"duration":0.1818179999999998,"midi":70,"time":12.181806,"velocity":0.3937007874015748},{"duration":0.1818179999999998,"midi":82,"time":12.181806,"velocity":0.3937007874015748},{"duration":0.1818180000000016,"midi":81,"time":12.363624,"velocity":0.3937007874015748},{"duration":0.1818180000000016,"midi":69,"time":12.363624,"velocity":0.3937007874015748},{"duration":0.1818179999999998,"midi":82,"time":12.545442000000001,"velocity":0.3937007874015748},{"duration":0.1818179999999998,"midi":70,"time":12.545442000000001,"velocity":0.3937007874015748},{"duration":0.1818179999999998,"midi":72,"time":12.727260000000001,"velocity":0.3937007874015748},{"duration":0.1818179999999998,"midi":84,"time":12.727260000000001,"velocity":0.3937007874015748},{"duration":0.1818179999999998,"midi":82,"time":12.909078000000001,"velocity":0.3937007874015748},{"duration":0.1818179999999998,"midi":70,"time":12.909078000000001,"velocity":0.3937007874015748},{"duration":0.1818179999999998,"midi":81,"time":13.090896,"velocity":0.3937007874015748},{"duration":0.1818179999999998,"midi":69,"time":13.090896,"velocity":0.3937007874015748},{"duration":0.1818179999999998,"midi":70,"time":13.272714,"velocity":0.3937007874015748},{"duration":0.1818179999999998,"midi":82,"time":13.272714,"velocity":0.3937007874015748},{"duration":0.1818179999999998,"midi":72,"time":13.454532,"velocity":0.3937007874015748},{"duration":0.1818179999999998,"midi":84,"time":13.454532,"velocity":0.3937007874015748},{"duration":0.1818179999999998,"midi":70,"time":13.63635,"velocity":0.3937007874015748},{"duration":0.1818179999999998,"midi":82,"time":13.63635,"velocity":0.3937007874015748},{"duration":0.1818179999999998,"midi":69,"time":13.818168,"velocity":0.3937007874015748},{"duration":0.1818179999999998,"midi":81,"time":13.818168,"velocity":0.3937007874015748},{"duration":0.1818180000000016,"midi":70,"time":13.999986,"velocity":0.3937007874015748},{"duration":0.1818180000000016,"midi":82,"time":13.999986,"velocity":0.3937007874015748},{"duration":0.1818179999999998,"midi":72,"time":14.181804000000001,"velocity":0.3937007874015748},{"duration":0.1818179999999998,"midi":84,"time":14.181804000000001,"velocity":0.3937007874015748},{"duration":0.1818179999999998,"midi":82,"time":14.363622000000001,"velocity":0.3937007874015748},{"duration":0.1818179999999998,"midi":70,"time":14.363622000000001,"velocity":0.3937007874015748},{"duration":0.1818179999999998,"midi":65,"time":14.545440000000001,"velocity":0.3937007874015748},{"duration":0.1818179999999998,"midi":77,"time":14.545440000000001,"velocity":0.3937007874015748},{"duration":0.1818179999999998,"midi":81,"time":14.727258,"velocity":0.3937007874015748},{"duration":0.1818179999999998,"midi":69,"time":14.727258,"velocity":0.3937007874015748},{"duration":0.1818179999999998,"midi":72,"time":14.909076,"velocity":0.3937007874015748},{"duration":0.1818179999999998,"midi":84,"time":14.909076,"velocity":0.3937007874015748},{"duration":0.1818179999999998,"midi":81,"time":15.090894,"velocity":0.3937007874015748},{"duration":0.1818179999999998,"midi":69,"time":15.090894,"velocity":0.3937007874015748},{"duration":0.1818179999999998,"midi":77,"time":15.272712,"velocity":0.3937007874015748},{"duration":0.1818179999999998,"midi":65,"time":15.272712,"velocity":0.3937007874015748},{"duration":0.1818179999999998,"midi":69,"time":15.45453,"velocity":0.3937007874015748},{"duration":0.1818179999999998,"midi":81,"time":15.45453,"velocity":0.3937007874015748},{"duration":0.1818180000000016,"midi":84,"time":15.636348,"velocity":0.3937007874015748},{"duration":0.1818180000000016,"midi":72,"time":15.636348,"velocity":0.3937007874015748},{"duration":0.1818179999999998,"midi":69,"time":15.818166000000002,"velocity":0.3937007874015748},{"duration":0.1818179999999998,"midi":81,"time":15.818166000000002,"velocity":0.3937007874015748},{"duration":0.1818179999999998,"midi":67,"time":15.999984000000001,"velocity":0.3937007874015748},{"duration":0.1818179999999998,"midi":79,"time":15.999984000000001,"velocity":0.3937007874015748},{"duration":0.1818179999999998,"midi":82,"time":16.181802,"velocity":0.3937007874015748},{"duration":0.1818179999999998,"midi":70,"time":16.181802,"velocity":0.3937007874015748},{"duration":0.1818179999999998,"midi":74,"time":16.36362,"velocity":0.3937007874015748},{"duration":0.1818179999999998,"midi":86,"time":16.36362,"velocity":0.3937007874015748},{"duration":0.1818179999999998,"midi":70,"time":16.545438,"velocity":0.3937007874015748},{"duration":0.1818179999999998,"midi":82,"time":16.545438,"velocity":0.3937007874015748},{"duration":0.1818179999999998,"midi":67,"time":16.727256,"velocity":0.3937007874015748},{"duration":0.1818179999999998,"midi":79,"time":16.727256,"velocity":0.3937007874015748},{"duration":0.1818179999999998,"midi":70,"time":16.909074,"velocity":0.3937007874015748},{"duration":0.1818179999999998,"midi":82,"time":16.909074,"velocity":0.3937007874015748},{"duration":0.1818179999999998,"midi":86,"time":17.090892,"velocity":0.3937007874015748},{"duration":0.1818179999999998,"midi":74,"time":17.090892,"velocity":0.3937007874015748},{"duration":0.1818179999999998,"midi":70,"time":17.27271,"velocity":0.3937007874015748},{"duration":0.1818179999999998,"midi":82,"time":17.27271,"velocity":0.3937007874015748},{"duration":0.1818179999999998,"midi":81,"time":17.454528,"velocity":0.3937007874015748},{"duration":0.1818179999999998,"midi":69,"time":17.454528,"velocity":0.3937007874015748},{"duration":0.1818179999999998,"midi":70,"time":17.636346,"velocity":0.3937007874015748},{"duration":0.1818179999999998,"midi":82,"time":17.636346,"velocity":0.3937007874015748},{"duration":0.1818179999999998,"midi":84,"time":17.818164,"velocity":0.3937007874015748},{"duration":0.1818179999999998,"midi":72,"time":17.818164,"velocity":0.3937007874015748},{"duration":0.1818179999999998,"midi":70,"time":17.999982,"velocity":0.3937007874015748},{"duration":0.1818179999999998,"midi":82,"time":17.999982,"velocity":0.3937007874015748},{"duration":0.18181800000000337,"midi":69,"time":18.1818,"velocity":0.3937007874015748},{"duration":0.18181800000000337,"midi":81,"time":18.1818,"velocity":0.3937007874015748},{"duration":0.1818179999999998,"midi":70,"time":18.363618000000002,"velocity":0.3937007874015748},{"duration":0.1818179999999998,"midi":82,"time":18.363618000000002,"velocity":0.3937007874015748},{"duration":0.1818179999999998,"midi":72,"time":18.545436000000002,"velocity":0.3937007874015748},{"duration":0.1818179999999998,"midi":84,"time":18.545436000000002,"velocity":0.3937007874015748},{"duration":0.1818179999999998,"midi":82,"time":18.727254000000002,"velocity":0.3937007874015748},{"duration":0.1818179999999998,"midi":70,"time":18.727254000000002,"velocity":0.3937007874015748},{"duration":0.1818179999999998,"midi":69,"time":18.909072000000002,"velocity":0.3937007874015748},{"duration":0.1818179999999998,"midi":81,"time":18.909072000000002,"velocity":0.3937007874015748},{"duration":0.1818179999999998,"midi":70,"time":19.09089,"velocity":0.3937007874015748},{"duration":0.1818179999999998,"midi":82,"time":19.09089,"velocity":0.3937007874015748},{"duration":0.1818179999999998,"midi":84,"time":19.272708,"velocity":0.3937007874015748},{"duration":0.1818179999999998,"midi":72,"time":19.272708,"velocity":0.3937007874015748},{"duration":0.1818179999999998,"midi":70,"time":19.454526,"velocity":0.3937007874015748},{"duration":0.1818179999999998,"midi":82,"time":19.454526,"velocity":0.3937007874015748},{"duration":0.1818179999999998,"midi":81,"time":19.636344,"velocity":0.3937007874015748},{"duration":0.1818179999999998,"midi":69,"time":19.636344,"velocity":0.3937007874015748},{"duration":0.1818179999999998,"midi":82,"time":19.818162,"velocity":0.3937007874015748},{"duration":0.1818179999999998,"midi":70,"time":19.818162,"velocity":0.3937007874015748},{"duration":0.1818179999999998,"midi":72,"time":19.99998,"velocity":0.3937007874015748},{"duration":0.1818179999999998,"midi":84,"time":19.99998,"velocity":0.3937007874015748},{"duration":0.1818179999999998,"midi":82,"time":20.181798,"velocity":0.3937007874015748},{"duration":0.1818179999999998,"midi":70,"time":20.181798,"velocity":0.3937007874015748},{"duration":0.1818179999999998,"midi":65,"time":20.363616,"velocity":0.3937007874015748},{"duration":0.1818179999999998,"midi":77,"time":20.363616,"velocity":0.3937007874015748},{"duration":0.1818179999999998,"midi":81,"time":20.545434,"velocity":0.3937007874015748},{"duration":0.1818179999999998,"midi":69,"time":20.545434,"velocity":0.3937007874015748},{"duration":0.1818179999999998,"midi":72,"time":20.727252,"velocity":0.3937007874015748},{"duration":0.1818179999999998,"midi":84,"time":20.727252,"velocity":0.3937007874015748},{"duration":0.1818179999999998,"midi":81,"time":20.90907,"velocity":0.3937007874015748},{"duration":0.1818179999999998,"midi":69,"time":20.90907,"velocity":0.3937007874015748},{"duration":0.1818179999999998,"midi":77,"time":21.090888,"velocity":0.3937007874015748},{"duration":0.1818179999999998,"midi":65,"time":21.090888,"velocity":0.3937007874015748},{"duration":0.1818179999999998,"midi":81,"time":21.272706,"velocity":0.3937007874015748},{"duration":0.1818179999999998,"midi":69,"time":21.272706,"velocity":0.3937007874015748},{"duration":0.18181800000000337,"midi":72,"time":21.454524,"velocity":0.3937007874015748},{"duration":0.18181800000000337,"midi":84,"time":21.454524,"velocity":0.3937007874015748},{"duration":0.1818179999999998,"midi":69,"time":21.636342000000003,"velocity":0.3937007874015748},{"duration":0.1818179999999998,"midi":81,"time":21.636342000000003,"velocity":0.3937007874015748},{"duration":0.1818179999999998,"midi":79,"time":21.818160000000002,"velocity":0.3937007874015748},{"duration":0.1818179999999998,"midi":67,"time":21.818160000000002,"velocity":0.3937007874015748},{"duration":0.1818179999999998,"midi":82,"time":21.999978000000002,"velocity":0.3937007874015748},{"duration":0.1818179999999998,"midi":70,"time":21.999978000000002,"velocity":0.3937007874015748},{"duration":0.1818179999999998,"midi":74,"time":22.181796000000002,"velocity":0.3937007874015748},{"duration":0.1818179999999998,"midi":86,"time":22.181796000000002,"velocity":0.3937007874015748},{"duration":0.1818179999999998,"midi":82,"time":22.363614000000002,"velocity":0.3937007874015748},{"duration":0.1818179999999998,"midi":70,"time":22.363614000000002,"velocity":0.3937007874015748},{"duration":0.1818179999999998,"midi":67,"time":22.545432,"velocity":0.3937007874015748},{"duration":0.1818179999999998,"midi":79,"time":22.545432,"velocity":0.3937007874015748},{"duration":0.1818179999999998,"midi":70,"time":22.72725,"velocity":0.3937007874015748},{"duration":0.1818179999999998,"midi":82,"time":22.72725,"velocity":0.3937007874015748},{"duration":0.1818179999999998,"midi":86,"time":22.909068,"velocity":0.3937007874015748},{"duration":0.1818179999999998,"midi":74,"time":22.909068,"velocity":0.3937007874015748},{"duration":0.1818179999999998,"midi":82,"time":23.090886,"velocity":0.3937007874015748},{"duration":0.1818179999999998,"midi":70,"time":23.090886,"velocity":0.3937007874015748},{"duration":0.3636359999999996,"midi":74,"time":23.272704,"velocity":0.3937007874015748},{"duration":0.2727269999999997,"midi":77,"time":23.63634,"velocity":0.3937007874015748},{"duration":0.04545450000000173,"midi":73,"time":23.909067,"velocity":0.3937007874015748},{"duration":0.04545449999999818,"midi":74,"time":23.954521500000002,"velocity":0.3937007874015748},{"duration":0.1818179999999998,"midi":72,"time":23.999976,"velocity":0.3937007874015748},{"duration":0.3636359999999996,"midi":70,"time":24.181794,"velocity":0.3937007874015748},{"duration":0.1818179999999998,"midi":67,"time":24.54543,"velocity":0.3937007874015748},{"duration":0.3636360000000032,"midi":74,"time":24.727248,"velocity":0.3937007874015748},{"duration":0.3636359999999996,"midi":77,"time":25.090884000000003,"velocity":0.3937007874015748},{"duration":0.3636359999999996,"midi":74,"time":25.454520000000002,"velocity":0.3937007874015748},{"duration":0.3636359999999996,"midi":77,"time":25.818156000000002,"velocity":0.3937007874015748},{"duration":0.3636359999999996,"midi":72,"time":26.181792,"velocity":0.3937007874015748},{"duration":0.2727269999999997,"midi":72,"time":26.545428,"velocity":0.3937007874015748},{"duration":0.04545450000000173,"midi":73,"time":26.818155,"velocity":0.3937007874015748},{"duration":0.04545449999999818,"midi":74,"time":26.863609500000003,"velocity":0.3937007874015748},{"duration":0.1818179999999998,"midi":72,"time":26.909064,"velocity":0.3937007874015748},{"duration":0.3636359999999996,"midi":70,"time":27.090882,"velocity":0.3937007874015748},{"duration":0.1818179999999998,"midi":67,"time":27.454518,"velocity":0.3937007874015748},{"duration":0.3636359999999996,"midi":73,"time":27.636336,"velocity":0.3937007874015748},{"duration":0.3636360000000032,"midi":72,"time":27.999972,"velocity":0.3937007874015748},{"duration":0.3636359999999996,"midi":73,"time":28.363608000000003,"velocity":0.3937007874015748},{"duration":0.1818179999999998,"midi":72,"time":28.727244000000002,"velocity":0.3937007874015748},{"duration":0.1818179999999998,"midi":70,"time":28.909062000000002,"velocity":0.3937007874015748},{"duration":0.3636359999999996,"midi":74,"time":29.090880000000002,"velocity":0.3937007874015748},{"duration":0.2727269999999997,"midi":77,"time":29.454516,"velocity":0.3937007874015748},{"duration":0.04545449999999818,"midi":73,"time":29.727243,"velocity":0.3937007874015748},{"duration":0.04545450000000173,"midi":74,"time":29.7726975,"velocity":0.3937007874015748},{"duration":0.1818179999999998,"midi":72,"time":29.818152,"velocity":0.3937007874015748},{"duration":0.3636359999999996,"midi":70,"time":29.99997,"velocity":0.3937007874015748},{"duration":0.1818179999999998,"midi":67,"time":30.363606,"velocity":0.3937007874015748},{"duration":0.3636359999999996,"midi":74,"time":30.545424,"velocity":0.3937007874015748},{"duration":0.3636359999999996,"midi":77,"time":30.90906,"velocity":0.3937007874015748},{"duration":0.3636360000000032,"midi":74,"time":31.272696,"velocity":0.3937007874015748},{"duration":0.3636359999999996,"midi":77,"time":31.636332000000003,"velocity":0.3937007874015748},{"duration":0.3636359999999996,"midi":72,"time":31.999968000000003,"velocity":0.3937007874015748},{"duration":0.27272699999999617,"midi":72,"time":32.363604,"velocity":0.3937007874015748},{"duration":0.04545450000000528,"midi":73,"time":32.636331,"velocity":0.3937007874015748},{"duration":0.04545449999999818,"midi":74,"time":32.681785500000004,"velocity":0.3937007874015748},{"duration":0.1818179999999998,"midi":72,"time":32.72724,"velocity":0.3937007874015748},{"duration":0.3636359999999996,"midi":70,"time":32.909058,"velocity":0.3937007874015748},{"duration":0.1818179999999998,"midi":67,"time":33.272694,"velocity":0.3937007874015748},{"duration":0.3636359999999996,"midi":73,"time":33.454512,"velocity":0.3937007874015748},{"duration":0.3636359999999996,"midi":72,"time":33.818148,"velocity":0.3937007874015748},{"duration":0.3636359999999996,"midi":74,"time":34.909056,"velocity":0.3937007874015748},{"duration":0.3636359999999996,"midi":62,"time":34.909056,"velocity":0.3937007874015748},{"duration":0.2727270000000033,"midi":65,"time":35.272692,"velocity":0.3937007874015748},{"duration":0.2727270000000033,"midi":77,"time":35.272692,"velocity":0.3937007874015748},{"duration":0.04545449999999818,"midi":73,"time":35.545419,"velocity":0.3937007874015748},{"duration":0.04545449999999818,"midi":61,"time":35.545419,"velocity":0.3937007874015748},{"duration":0.04545449999999818,"midi":62,"time":35.5908735,"velocity":0.3937007874015748},{"duration":0.04545449999999818,"midi":74,"time":35.5908735,"velocity":0.3937007874015748},{"duration":0.1818179999999998,"midi":72,"time":35.636328,"velocity":0.3937007874015748},{"duration":0.1818179999999998,"midi":60,"time":35.636328,"velocity":0.3937007874015748},{"duration":0.3636359999999996,"midi":70,"time":35.818146,"velocity":0.3937007874015748},{"duration":0.3636359999999996,"midi":58,"time":35.818146,"velocity":0.3937007874015748},{"duration":0.1818179999999998,"midi":67,"time":36.181782,"velocity":0.3937007874015748},{"duration":0.1818179999999998,"midi":55,"time":36.181782,"velocity":0.3937007874015748},{"duration":0.36363600000000673,"midi":74,"time":36.3636,"velocity":0.3937007874015748},{"duration":0.36363600000000673,"midi":62,"time":36.3636,"velocity":0.3937007874015748},{"duration":0.3636359999999996,"midi":65,"time":36.727236000000005,"velocity":0.3937007874015748},{"duration":0.3636359999999996,"midi":77,"time":36.727236000000005,"velocity":0.3937007874015748},{"duration":0.3636359999999996,"midi":62,"time":37.090872000000005,"velocity":0.3937007874015748},{"duration":0.3636359999999996,"midi":74,"time":37.090872000000005,"velocity":0.3937007874015748},{"duration":0.3636359999999996,"midi":77,"time":37.454508000000004,"velocity":0.3937007874015748},{"duration":0.3636359999999996,"midi":65,"time":37.454508000000004,"velocity":0.3937007874015748},{"duration":0.3636359999999996,"midi":72,"time":37.818144000000004,"velocity":0.3937007874015748},{"duration":0.3636359999999996,"midi":60,"time":37.818144000000004,"velocity":0.3937007874015748},{"duration":0.27272699999999617,"midi":72,"time":38.18178,"velocity":0.3937007874015748},{"duration":0.27272699999999617,"midi":60,"time":38.18178,"velocity":0.3937007874015748},{"duration":0.04545450000000528,"midi":73,"time":38.454507,"velocity":0.3937007874015748},{"duration":0.04545450000000528,"midi":61,"time":38.454507,"velocity":0.3937007874015748},{"duration":0.04545449999999818,"midi":74,"time":38.499961500000005,"velocity":0.3937007874015748},{"duration":0.04545449999999818,"midi":62,"time":38.499961500000005,"velocity":0.3937007874015748},{"duration":0.1818179999999998,"midi":72,"time":38.545416,"velocity":0.3937007874015748},{"duration":0.1818179999999998,"midi":60,"time":38.545416,"velocity":0.3937007874015748},{"duration":0.3636359999999996,"midi":70,"time":38.727234,"velocity":0.3937007874015748},{"duration":0.3636359999999996,"midi":58,"time":38.727234,"velocity":0.3937007874015748},{"duration":0.1818179999999998,"midi":67,"time":39.09087,"velocity":0.3937007874015748},{"duration":0.1818179999999998,"midi":55,"time":39.09087,"velocity":0.3937007874015748},{"duration":0.3636359999999996,"midi":73,"time":39.272688,"velocity":0.3937007874015748},{"duration":0.3636359999999996,"midi":61,"time":39.272688,"velocity":0.3937007874015748},{"duration":0.3636359999999996,"midi":72,"time":39.636324,"velocity":0.3937007874015748},{"duration":0.3636359999999996,"midi":60,"time":39.636324,"velocity":0.3937007874015748},{"duration":0.3636359999999996,"midi":61,"time":39.99996,"velocity":0.3937007874015748},{"duration":0.3636359999999996,"midi":73,"time":39.99996,"velocity":0.3937007874015748},{"duration":0.1818179999999998,"midi":60,"time":40.363596,"velocity":0.3937007874015748},{"duration":0.1818179999999998,"midi":72,"time":40.363596,"velocity":0.3937007874015748},{"duration":0.1818179999999998,"midi":70,"time":40.545414,"velocity":0.3937007874015748},{"duration":0.1818179999999998,"midi":58,"time":40.545414,"velocity":0.3937007874015748},{"duration":0.3636359999999996,"midi":62,"time":40.727232,"velocity":0.3937007874015748},{"duration":0.3636359999999996,"midi":74,"time":40.727232,"velocity":0.3937007874015748},{"duration":0.2727270000000033,"midi":77,"time":41.090868,"velocity":0.3937007874015748},{"duration":0.2727270000000033,"midi":65,"time":41.090868,"velocity":0.3937007874015748},{"duration":0.04545449999999818,"midi":61,"time":41.363595000000004,"velocity":0.3937007874015748},{"duration":0.04545449999999818,"midi":73,"time":41.363595000000004,"velocity":0.3937007874015748},{"duration":0.04545449999999818,"midi":62,"time":41.4090495,"velocity":0.3937007874015748},{"duration":0.04545449999999818,"midi":74,"time":41.4090495,"velocity":0.3937007874015748},{"duration":0.1818179999999998,"midi":72,"time":41.454504,"velocity":0.3937007874015748},{"duration":0.1818179999999998,"midi":60,"time":41.454504,"velocity":0.3937007874015748},{"duration":0.3636359999999996,"midi":58,"time":41.636322,"velocity":0.3937007874015748},{"duration":0.3636359999999996,"midi":70,"time":41.636322,"velocity":0.3937007874015748},{"duration":0.1818179999999998,"midi":55,"time":41.999958,"velocity":0.3937007874015748},{"duration":0.1818179999999998,"midi":67,"time":41.999958,"velocity":0.3937007874015748},{"duration":0.3636359999999996,"midi":74,"time":42.181776,"velocity":0.3937007874015748},{"duration":0.3636359999999996,"midi":62,"time":42.181776,"velocity":0.3937007874015748},{"duration":0.3636359999999996,"midi":77,"time":42.545412,"velocity":0.3937007874015748},{"duration":0.3636359999999996,"midi":65,"time":42.545412,"velocity":0.3937007874015748},{"duration":0.36363600000000673,"midi":62,"time":42.909048,"velocity":0.3937007874015748},{"duration":0.36363600000000673,"midi":74,"time":42.909048,"velocity":0.3937007874015748},{"duration":0.3636359999999996,"midi":65,"time":43.272684000000005,"velocity":0.3937007874015748},{"duration":0.3636359999999996,"midi":77,"time":43.272684000000005,"velocity":0.3937007874015748},{"duration":0.3636359999999996,"midi":72,"time":43.636320000000005,"velocity":0.3937007874015748},{"duration":0.3636359999999996,"midi":60,"time":43.636320000000005,"velocity":0.3937007874015748},{"duration":0.27272699999999617,"midi":72,"time":43.999956000000005,"velocity":0.3937007874015748},{"duration":0.27272699999999617,"midi":60,"time":43.999956000000005,"velocity":0.3937007874015748},{"duration":0.04545449999999818,"midi":61,"time":44.272683,"velocity":0.3937007874015748},{"duration":0.04545449999999818,"midi":73,"time":44.272683,"velocity":0.3937007874015748},{"duration":0.04545450000000528,"midi":62,"time":44.3181375,"velocity":0.3937007874015748},{"duration":0.04545450000000528,"midi":74,"time":44.3181375,"velocity":0.3937007874015748},{"duration":0.1818179999999998,"midi":72,"time":44.363592000000004,"velocity":0.3937007874015748},{"duration":0.1818179999999998,"midi":60,"time":44.363592000000004,"velocity":0.3937007874015748},{"duration":0.3636359999999996,"midi":58,"time":44.545410000000004,"velocity":0.3937007874015748},{"duration":0.3636359999999996,"midi":70,"time":44.545410000000004,"velocity":0.3937007874015748},{"duration":0.1818179999999998,"midi":55,"time":44.909046000000004,"velocity":0.3937007874015748},{"duration":0.1818179999999998,"midi":67,"time":44.909046000000004,"velocity":0.3937007874015748},{"duration":0.3636359999999996,"midi":73,"time":45.090864,"velocity":0.3937007874015748},{"duration":0.3636359999999996,"midi":61,"time":45.090864,"velocity":0.3937007874015748},{"duration":0.3636359999999996,"midi":72,"time":45.4545,"velocity":0.3937007874015748},{"duration":0.3636359999999996,"midi":60,"time":45.4545,"velocity":0.3937007874015748},{"duration":0.3636359999999996,"midi":73,"time":45.818136,"velocity":0.3937007874015748},{"duration":0.3636359999999996,"midi":61,"time":45.818136,"velocity":0.3937007874015748},{"duration":0.1818179999999998,"midi":72,"time":46.181772,"velocity":0.3937007874015748},{"duration":0.1818179999999998,"midi":60,"time":46.181772,"velocity":0.3937007874015748},{"duration":0.1818179999999998,"midi":70,"time":46.36359,"velocity":0.3937007874015748},{"duration":0.1818179999999998,"midi":58,"time":46.36359,"velocity":0.3937007874015748},{"duration":0.3636359999999996,"midi":67,"time":46.545408,"velocity":0.3937007874015748},{"duration":0.3636359999999996,"midi":62,"time":46.545408,"velocity":0.3937007874015748},{"duration":0.3636359999999996,"midi":55,"time":46.545408,"velocity":0.3937007874015748},{"duration":0.3636359999999996,"midi":58,"time":46.545408,"velocity":0.3937007874015748},{"duration":0.7272719999999993,"midi":62,"time":46.909044,"velocity":0.3937007874015748},{"duration":0.7272719999999993,"midi":55,"time":46.909044,"velocity":0.3937007874015748},{"duration":0.7272719999999993,"midi":67,"time":46.909044,"velocity":0.3937007874015748},{"duration":0.7272719999999993,"midi":58,"time":46.909044,"velocity":0.3937007874015748},{"duration":0.3636359999999996,"midi":67,"time":47.636316,"velocity":0.3937007874015748},{"duration":0.3636359999999996,"midi":62,"time":47.636316,"velocity":0.3937007874015748},{"duration":0.3636359999999996,"midi":55,"time":47.636316,"velocity":0.3937007874015748},{"duration":0.3636359999999996,"midi":58,"time":47.636316,"velocity":0.3937007874015748},{"duration":0.3636359999999996,"midi":58,"time":47.999952,"velocity":0.3937007874015748},{"duration":0.3636359999999996,"midi":70,"time":47.999952,"velocity":0.3937007874015748},{"duration":0.3636359999999996,"midi":67,"time":47.999952,"velocity":0.3937007874015748},{"duration":0.3636359999999996,"midi":64,"time":47.999952,"velocity":0.3937007874015748},{"duration":0.7272719999999993,"midi":64,"time":48.363588,"velocity":0.3937007874015748},{"duration":0.7272719999999993,"midi":70,"time":48.363588,"velocity":0.3937007874015748},{"duration":0.7272719999999993,"midi":58,"time":48.363588,"velocity":0.3937007874015748},{"duration":0.7272719999999993,"midi":67,"time":48.363588,"velocity":0.3937007874015748},{"duration":0.3636359999999996,"midi":67,"time":49.09086,"velocity":0.3937007874015748},{"duration":0.3636359999999996,"midi":58,"time":49.09086,"velocity":0.3937007874015748},{"duration":0.3636359999999996,"midi":70,"time":49.09086,"velocity":0.3937007874015748},{"duration":0.3636359999999996,"midi":64,"time":49.09086,"velocity":0.3937007874015748},{"duration":0.3636359999999996,"midi":60,"time":49.454496,"velocity":0.3937007874015748},{"duration":0.3636359999999996,"midi":53,"time":49.454496,"velocity":0.3937007874015748},{"duration":0.3636359999999996,"midi":65,"time":49.454496,"velocity":0.3937007874015748},{"duration":0.3636359999999996,"midi":57,"time":49.454496,"velocity":0.3937007874015748},{"duration":0.7272720000000064,"midi":53,"time":49.818132,"velocity":0.3937007874015748},{"duration":0.7272720000000064,"midi":57,"time":49.818132,"velocity":0.3937007874015748},{"duration":0.7272720000000064,"midi":65,"time":49.818132,"velocity":0.3937007874015748},{"duration":0.7272720000000064,"midi":60,"time":49.818132,"velocity":0.3937007874015748},{"duration":0.3636359999999996,"midi":53,"time":50.545404000000005,"velocity":0.3937007874015748},{"duration":0.3636359999999996,"midi":65,"time":50.545404000000005,"velocity":0.3937007874015748},{"duration":0.3636359999999996,"midi":60,"time":50.545404000000005,"velocity":0.3937007874015748},{"duration":0.3636359999999996,"midi":57,"time":50.545404000000005,"velocity":0.3937007874015748},{"duration":0.3636359999999996,"midi":55,"time":50.909040000000005,"velocity":0.3937007874015748},{"duration":0.3636359999999996,"midi":62,"time":50.909040000000005,"velocity":0.3937007874015748},{"duration":0.3636359999999996,"midi":58,"time":50.909040000000005,"velocity":0.3937007874015748},{"duration":0.3636359999999996,"midi":67,"time":50.909040000000005,"velocity":0.3937007874015748},{"duration":0.7272719999999993,"midi":58,"time":51.272676000000004,"velocity":0.3937007874015748},{"duration":0.7272719999999993,"midi":67,"time":51.272676000000004,"velocity":0.3937007874015748},{"duration":0.7272719999999993,"midi":62,"time":51.272676000000004,"velocity":0.3937007874015748},{"duration":0.7272719999999993,"midi":55,"time":51.272676000000004,"velocity":0.3937007874015748},{"duration":0.3636359999999996,"midi":58,"time":51.999948,"velocity":0.3937007874015748},{"duration":0.3636359999999996,"midi":62,"time":51.999948,"velocity":0.3937007874015748},{"duration":0.3636359999999996,"midi":67,"time":51.999948,"velocity":0.3937007874015748},{"duration":0.3636359999999996,"midi":53,"time":51.999948,"velocity":0.3937007874015748},{"duration":0.3636359999999996,"midi":67,"time":52.363584,"velocity":0.3937007874015748},{"duration":0.3636359999999996,"midi":62,"time":52.363584,"velocity":0.3937007874015748},{"duration":0.3636359999999996,"midi":55,"time":52.363584,"velocity":0.3937007874015748},{"duration":0.3636359999999996,"midi":58,"time":52.363584,"velocity":0.3937007874015748},{"duration":0.7272719999999993,"midi":67,"time":52.72722,"velocity":0.3937007874015748},{"duration":0.7272719999999993,"midi":62,"time":52.72722,"velocity":0.3937007874015748},{"duration":0.7272719999999993,"midi":58,"time":52.72722,"velocity":0.3937007874015748},{"duration":0.7272719999999993,"midi":55,"time":52.72722,"velocity":0.3937007874015748},{"duration":0.3636359999999996,"midi":67,"time":53.454492,"velocity":0.3937007874015748},{"duration":0.3636359999999996,"midi":55,"time":53.454492,"velocity":0.3937007874015748},{"duration":0.3636359999999996,"midi":58,"time":53.454492,"velocity":0.3937007874015748},{"duration":0.3636359999999996,"midi":62,"time":53.454492,"velocity":0.3937007874015748},{"duration":0.3636359999999996,"midi":58,"time":53.818128,"velocity":0.3937007874015748},{"duration":0.3636359999999996,"midi":64,"time":53.818128,"velocity":0.3937007874015748},{"duration":0.3636359999999996,"midi":70,"time":53.818128,"velocity":0.3937007874015748},{"duration":0.3636359999999996,"midi":67,"time":53.818128,"velocity":0.3937007874015748},{"duration":0.7272719999999993,"midi":64,"time":54.181764,"velocity":0.3937007874015748},{"duration":0.7272719999999993,"midi":58,"time":54.181764,"velocity":0.3937007874015748},{"duration":0.7272719999999993,"midi":70,"time":54.181764,"velocity":0.3937007874015748},{"duration":0.7272719999999993,"midi":67,"time":54.181764,"velocity":0.3937007874015748},{"duration":0.3636359999999996,"midi":67,"time":54.909036,"velocity":0.3937007874015748},{"duration":0.3636359999999996,"midi":58,"time":54.909036,"velocity":0.3937007874015748},{"duration":0.3636359999999996,"midi":70,"time":54.909036,"velocity":0.3937007874015748},{"duration":0.3636359999999996,"midi":64,"time":54.909036,"velocity":0.3937007874015748},{"duration":0.3636359999999996,"midi":65,"time":55.272672,"velocity":0.3937007874015748},{"duration":0.3636359999999996,"midi":57,"time":55.272672,"velocity":0.3937007874015748},{"duration":0.3636359999999996,"midi":60,"time":55.272672,"velocity":0.3937007874015748},{"duration":0.3636359999999996,"midi":53,"time":55.272672,"velocity":0.3937007874015748},{"duration":0.7272719999999993,"midi":57,"time":55.636308,"velocity":0.3937007874015748},{"duration":0.7272719999999993,"midi":53,"time":55.636308,"velocity":0.3937007874015748},{"duration":0.7272719999999993,"midi":65,"time":55.636308,"velocity":0.3937007874015748},{"duration":0.7272719999999993,"midi":60,"time":55.636308,"velocity":0.3937007874015748},{"duration":0.36363600000000673,"midi":53,"time":56.36358,"velocity":0.3937007874015748},{"duration":0.36363600000000673,"midi":60,"time":56.36358,"velocity":0.3937007874015748},{"duration":0.36363600000000673,"midi":57,"time":56.36358,"velocity":0.3937007874015748},{"duration":0.36363600000000673,"midi":65,"time":56.36358,"velocity":0.3937007874015748},{"duration":0.18181800000000692,"midi":62,"time":69.818112,"velocity":0.3937007874015748},{"duration":0.1818179999999927,"midi":62,"time":69.99993,"velocity":0.3937007874015748},{"duration":0.18181800000000692,"midi":62,"time":70.181748,"velocity":0.3937007874015748},{"duration":0.1818179999999927,"midi":62,"time":70.363566,"velocity":0.3937007874015748},{"duration":0.18181800000000692,"midi":62,"time":70.545384,"velocity":0.3937007874015748},{"duration":0.1818179999999927,"midi":62,"time":70.727202,"velocity":0.3937007874015748},{"duration":0.18181800000000692,"midi":62,"time":70.90902,"velocity":0.3937007874015748},{"duration":0.1818179999999927,"midi":62,"time":71.090838,"velocity":0.3937007874015748},{"duration":0.18181800000000692,"midi":62,"time":71.272656,"velocity":0.3937007874015748},{"duration":0.1818179999999927,"midi":62,"time":71.454474,"velocity":0.3937007874015748},{"duration":0.18181800000000692,"midi":62,"time":71.636292,"velocity":0.3937007874015748},{"duration":0.1818179999999927,"midi":62,"time":71.81811,"velocity":0.3937007874015748},{"duration":0.18181800000000692,"midi":62,"time":71.999928,"velocity":0.3937007874015748},{"duration":0.1818179999999927,"midi":62,"time":72.181746,"velocity":0.3937007874015748},{"duration":0.18181800000000692,"midi":62,"time":72.363564,"velocity":0.3937007874015748},{"duration":0.1818179999999927,"midi":62,"time":72.545382,"velocity":0.3937007874015748},{"duration":0.18181800000000692,"midi":57,"time":72.7272,"velocity":0.3937007874015748},{"duration":0.1818179999999927,"midi":60,"time":72.909018,"velocity":0.3937007874015748},{"duration":0.18181800000000692,"midi":60,"time":73.090836,"velocity":0.3937007874015748},{"duration":0.18181800000000692,"midi":60,"time":73.272654,"velocity":0.3937007874015748},{"duration":0.1818179999999927,"midi":57,"time":73.45447200000001,"velocity":0.3937007874015748},{"duration":0.18181800000000692,"midi":60,"time":73.63629,"velocity":0.3937007874015748},{"duration":0.1818179999999927,"midi":60,"time":73.81810800000001,"velocity":0.3937007874015748},{"duration":0.18181800000000692,"midi":60,"time":73.999926,"velocity":0.3937007874015748},{"duration":0.1818179999999927,"midi":57,"time":74.18174400000001,"velocity":0.3937007874015748},{"duration":0.18181800000000692,"midi":60,"time":74.363562,"velocity":0.3937007874015748},{"duration":0.1818179999999927,"midi":60,"time":74.54538000000001,"velocity":0.3937007874015748},{"duration":0.18181800000000692,"midi":60,"time":74.727198,"velocity":0.3937007874015748},{"duration":0.1818179999999927,"midi":57,"time":74.90901600000001,"velocity":0.3937007874015748},{"duration":0.18181800000000692,"midi":60,"time":75.090834,"velocity":0.3937007874015748},{"duration":0.1818179999999927,"midi":60,"time":75.27265200000001,"velocity":0.3937007874015748},{"duration":0.18181800000000692,"midi":60,"time":75.45447,"velocity":0.3937007874015748},{"duration":0.1818179999999927,"midi":62,"time":75.63628800000001,"velocity":0.3937007874015748},{"duration":0.18181800000000692,"midi":62,"time":75.818106,"velocity":0.3937007874015748},{"duration":0.1818179999999927,"midi":62,"time":75.99992400000001,"velocity":0.3937007874015748},{"duration":0.18181800000000692,"midi":62,"time":76.181742,"velocity":0.3937007874015748},{"duration":0.1818179999999927,"midi":62,"time":76.36356,"velocity":0.3937007874015748},{"duration":0.18181800000000692,"midi":62,"time":76.545378,"velocity":0.3937007874015748},{"duration":0.1818179999999927,"midi":62,"time":76.727196,"velocity":0.3937007874015748},{"duration":0.18181800000000692,"midi":62,"time":76.909014,"velocity":0.3937007874015748},{"duration":0.1818179999999927,"midi":62,"time":77.090832,"velocity":0.3937007874015748},{"duration":0.18181800000000692,"midi":62,"time":77.27265,"velocity":0.3937007874015748},{"duration":0.1818179999999927,"midi":62,"time":77.454468,"velocity":0.3937007874015748},{"duration":0.18181800000000692,"midi":62,"time":77.636286,"velocity":0.3937007874015748},{"duration":0.1818179999999927,"midi":62,"time":77.818104,"velocity":0.3937007874015748},{"duration":0.18181800000000692,"midi":62,"time":77.999922,"velocity":0.3937007874015748},{"duration":0.1818179999999927,"midi":62,"time":78.18174,"velocity":0.3937007874015748},{"duration":0.18181800000000692,"midi":62,"time":78.363558,"velocity":0.3937007874015748},{"duration":0.1818179999999927,"midi":57,"time":78.545376,"velocity":0.3937007874015748},{"duration":0.18181800000000692,"midi":60,"time":78.727194,"velocity":0.3937007874015748},{"duration":0.1818179999999927,"midi":60,"time":78.909012,"velocity":0.3937007874015748},{"duration":0.18181800000000692,"midi":60,"time":79.09083,"velocity":0.3937007874015748},{"duration":0.1818179999999927,"midi":57,"time":79.272648,"velocity":0.3937007874015748},{"duration":0.18181800000000692,"midi":60,"time":79.454466,"velocity":0.3937007874015748},{"duration":0.18181800000000692,"midi":60,"time":79.636284,"velocity":0.3937007874015748},{"duration":0.1818179999999927,"midi":60,"time":79.81810200000001,"velocity":0.3937007874015748},{"duration":0.18181800000000692,"midi":57,"time":79.99992,"velocity":0.3937007874015748},{"duration":0.1818179999999927,"midi":60,"time":80.18173800000001,"velocity":0.3937007874015748},{"duration":0.18181800000000692,"midi":60,"time":80.363556,"velocity":0.3937007874015748},{"duration":0.1818179999999927,"midi":60,"time":80.54537400000001,"velocity":0.3937007874015748},{"duration":0.18181800000000692,"midi":57,"time":80.727192,"velocity":0.3937007874015748},{"duration":0.1818179999999927,"midi":60,"time":80.90901000000001,"velocity":0.3937007874015748},{"duration":0.18181800000000692,"midi":60,"time":81.090828,"velocity":0.3937007874015748},{"duration":0.1818179999999927,"midi":60,"time":81.27264600000001,"velocity":0.3937007874015748},{"duration":0.18181800000000692,"midi":62,"time":81.454464,"velocity":0.3937007874015748},{"duration":0.1818179999999927,"midi":62,"time":81.63628200000001,"velocity":0.3937007874015748},{"duration":0.18181800000000692,"midi":62,"time":81.8181,"velocity":0.3937007874015748},{"duration":0.1818179999999927,"midi":62,"time":81.99991800000001,"velocity":0.3937007874015748},{"duration":0.18181800000000692,"midi":62,"time":82.181736,"velocity":0.3937007874015748},{"duration":0.1818179999999927,"midi":62,"time":82.36355400000001,"velocity":0.3937007874015748},{"duration":0.18181800000000692,"midi":62,"time":82.545372,"velocity":0.3937007874015748},{"duration":0.1818179999999927,"midi":62,"time":82.72719000000001,"velocity":0.3937007874015748},{"duration":0.18181800000000692,"midi":62,"time":82.909008,"velocity":0.3937007874015748},{"duration":0.1818179999999927,"midi":62,"time":83.090826,"velocity":0.3937007874015748},{"duration":0.18181800000000692,"midi":62,"time":83.272644,"velocity":0.3937007874015748},{"duration":0.1818179999999927,"midi":62,"time":83.454462,"velocity":0.3937007874015748},{"duration":0.18181800000000692,"midi":62,"time":83.63628,"velocity":0.3937007874015748},{"duration":0.1818179999999927,"midi":62,"time":83.818098,"velocity":0.3937007874015748},{"duration":0.18181800000000692,"midi":62,"time":83.999916,"velocity":0.3937007874015748},{"duration":0.1818179999999927,"midi":62,"time":84.181734,"velocity":0.3937007874015748},{"duration":0.18181800000000692,"midi":57,"time":84.363552,"velocity":0.3937007874015748},{"duration":0.1818179999999927,"midi":60,"time":84.54537,"velocity":0.3937007874015748},{"duration":0.18181800000000692,"midi":60,"time":84.727188,"velocity":0.3937007874015748},{"duration":0.1818179999999927,"midi":60,"time":84.909006,"velocity":0.3937007874015748},{"duration":0.18181800000000692,"midi":57,"time":85.090824,"velocity":0.3937007874015748},{"duration":0.1818179999999927,"midi":60,"time":85.272642,"velocity":0.3937007874015748},{"duration":0.18181800000000692,"midi":60,"time":85.45446,"velocity":0.3937007874015748},{"duration":0.1818179999999927,"midi":60,"time":85.636278,"velocity":0.3937007874015748},{"duration":0.18181800000000692,"midi":57,"time":85.818096,"velocity":0.3937007874015748},{"duration":0.1818179999999927,"midi":60,"time":85.999914,"velocity":0.3937007874015748},{"duration":0.18181800000000692,"midi":60,"time":86.181732,"velocity":0.3937007874015748},{"duration":0.18181800000000692,"midi":60,"time":86.36355,"velocity":0.3937007874015748},{"duration":0.1818179999999927,"midi":57,"time":86.54536800000001,"velocity":0.3937007874015748},{"duration":0.18181800000000692,"midi":60,"time":86.727186,"velocity":0.3937007874015748},{"duration":0.1818179999999927,"midi":60,"time":86.90900400000001,"velocity":0.3937007874015748},{"duration":0.18181800000000692,"midi":60,"time":87.090822,"velocity":0.3937007874015748},{"duration":0.1818179999999927,"midi":62,"time":87.27264000000001,"velocity":0.3937007874015748},{"duration":0.18181800000000692,"midi":62,"time":87.454458,"velocity":0.3937007874015748},{"duration":0.1818179999999927,"midi":62,"time":87.63627600000001,"velocity":0.3937007874015748},{"duration":0.18181800000000692,"midi":62,"time":87.818094,"velocity":0.3937007874015748},{"duration":0.1818179999999927,"midi":62,"time":87.99991200000001,"velocity":0.3937007874015748},{"duration":0.18181800000000692,"midi":62,"time":88.18173,"velocity":0.3937007874015748},{"duration":0.1818179999999927,"midi":62,"time":88.36354800000001,"velocity":0.3937007874015748},{"duration":0.18181800000000692,"midi":62,"time":88.545366,"velocity":0.3937007874015748},{"duration":0.1818179999999927,"midi":62,"time":88.72718400000001,"velocity":0.3937007874015748},{"duration":0.18181800000000692,"midi":62,"time":88.909002,"velocity":0.3937007874015748},{"duration":0.1818179999999927,"midi":62,"time":89.09082000000001,"velocity":0.3937007874015748},{"duration":0.18181800000000692,"midi":62,"time":89.272638,"velocity":0.3937007874015748},{"duration":0.1818179999999927,"midi":62,"time":89.45445600000001,"velocity":0.3937007874015748},{"duration":0.18181800000000692,"midi":62,"time":89.636274,"velocity":0.3937007874015748},{"duration":0.1818179999999927,"midi":62,"time":89.81809200000001,"velocity":0.3937007874015748},{"duration":0.18181800000000692,"midi":62,"time":89.99991,"velocity":0.3937007874015748},{"duration":0.1818179999999927,"midi":57,"time":90.181728,"velocity":0.3937007874015748},{"duration":0.18181800000000692,"midi":60,"time":90.363546,"velocity":0.3937007874015748},{"duration":0.1818179999999927,"midi":60,"time":90.545364,"velocity":0.3937007874015748},{"duration":0.18181800000000692,"midi":60,"time":90.727182,"velocity":0.3937007874015748},{"duration":0.1818179999999927,"midi":57,"time":90.909,"velocity":0.3937007874015748},{"duration":0.18181800000000692,"midi":60,"time":91.090818,"velocity":0.3937007874015748},{"duration":0.1818179999999927,"midi":60,"time":91.272636,"velocity":0.3937007874015748},{"duration":0.18181800000000692,"midi":60,"time":91.454454,"velocity":0.3937007874015748},{"duration":0.1818179999999927,"midi":57,"time":91.636272,"velocity":0.3937007874015748},{"duration":0.18181800000000692,"midi":60,"time":91.81809,"velocity":0.3937007874015748},{"duration":0.1818179999999927,"midi":60,"time":91.999908,"velocity":0.3937007874015748},{"duration":0.18181800000000692,"midi":60,"time":92.181726,"velocity":0.3937007874015748},{"duration":0.1818179999999927,"midi":57,"time":92.363544,"velocity":0.3937007874015748},{"duration":0.18181800000000692,"midi":60,"time":92.545362,"velocity":0.3937007874015748},{"duration":0.1818179999999927,"midi":60,"time":92.72718,"velocity":0.3937007874015748},{"duration":0.18181800000000692,"midi":60,"time":92.908998,"velocity":0.3937007874015748},{"duration":0.1818179999999927,"midi":58,"time":104.727168,"velocity":0.3937007874015748},{"duration":0.18181800000000692,"midi":55,"time":104.908986,"velocity":0.3937007874015748},{"duration":0.1818179999999927,"midi":58,"time":105.45444,"velocity":0.3937007874015748},{"duration":0.18181800000000692,"midi":55,"time":105.636258,"velocity":0.3937007874015748},{"duration":0.3636359999999996,"midi":57,"time":105.818076,"velocity":0.3937007874015748},{"duration":0.1818179999999927,"midi":58,"time":106.181712,"velocity":0.3937007874015748},{"duration":0.18181800000000692,"midi":55,"time":106.36353,"velocity":0.3937007874015748},{"duration":0.18181800000000692,"midi":58,"time":106.908984,"velocity":0.3937007874015748},{"duration":0.1818179999999927,"midi":55,"time":107.09080200000001,"velocity":0.3937007874015748},{"duration":0.3636359999999996,"midi":57,"time":107.27262,"velocity":0.3937007874015748},{"duration":0.18181800000000692,"midi":58,"time":107.636256,"velocity":0.3937007874015748},{"duration":0.1818179999999927,"midi":55,"time":107.81807400000001,"velocity":0.3937007874015748},{"duration":0.18181800000000692,"midi":58,"time":108.363528,"velocity":0.3937007874015748},{"duration":0.1818179999999927,"midi":55,"time":108.54534600000001,"velocity":0.3937007874015748},{"duration":0.3636359999999996,"midi":57,"time":108.727164,"velocity":0.3937007874015748},{"duration":0.18181800000000692,"midi":58,"time":109.0908,"velocity":0.3937007874015748},{"duration":0.1818179999999927,"midi":55,"time":109.27261800000001,"velocity":0.3937007874015748},{"duration":0.18181800000000692,"midi":58,"time":109.818072,"velocity":0.3937007874015748},{"duration":0.1818179999999927,"midi":55,"time":109.99989000000001,"velocity":0.3937007874015748},{"duration":0.3636359999999996,"midi":57,"time":110.181708,"velocity":0.3937007874015748},{"duration":0.18181800000000692,"midi":58,"time":110.545344,"velocity":0.3937007874015748},{"duration":0.1818179999999927,"midi":55,"time":110.727162,"velocity":0.3937007874015748},{"duration":0.18181800000000692,"midi":58,"time":111.272616,"velocity":0.3937007874015748},{"duration":0.1818179999999927,"midi":55,"time":111.454434,"velocity":0.3937007874015748},{"duration":0.3636359999999996,"midi":57,"time":111.636252,"velocity":0.3937007874015748},{"duration":0.18181800000000692,"midi":58,"time":111.999888,"velocity":0.3937007874015748},{"duration":0.1818179999999927,"midi":55,"time":112.181706,"velocity":0.3937007874015748},{"duration":0.18181800000000692,"midi":58,"time":112.72716,"velocity":0.3937007874015748},{"duration":0.18181800000000692,"midi":55,"time":112.908978,"velocity":0.3937007874015748},{"duration":0.3636359999999996,"midi":57,"time":113.09079600000001,"velocity":0.3937007874015748},{"duration":0.1818179999999927,"midi":58,"time":113.45443200000001,"velocity":0.3937007874015748},{"duration":0.18181800000000692,"midi":55,"time":113.63625,"velocity":0.3937007874015748},{"duration":0.1818179999999927,"midi":58,"time":114.18170400000001,"velocity":0.3937007874015748},{"duration":0.18181800000000692,"midi":55,"time":114.363522,"velocity":0.3937007874015748},{"duration":0.3636359999999996,"midi":57,"time":114.54534000000001,"velocity":0.3937007874015748},{"duration":0.1818179999999927,"midi":58,"time":114.90897600000001,"velocity":0.3937007874015748},{"duration":0.18181800000000692,"midi":55,"time":115.090794,"velocity":0.3937007874015748},{"duration":0.1818179999999927,"midi":58,"time":115.63624800000001,"velocity":0.3937007874015748},{"duration":0.18181800000000692,"midi":55,"time":115.818066,"velocity":0.3937007874015748},{"duration":0.3636359999999996,"midi":57,"time":115.99988400000001,"velocity":0.3937007874015748},{"duration":0.1818179999999927,"midi":58,"time":116.36352000000001,"velocity":0.3937007874015748},{"duration":0.18181800000000692,"midi":55,"time":116.545338,"velocity":0.3937007874015748},{"duration":0.1818179999999927,"midi":58,"time":117.09079200000001,"velocity":0.3937007874015748},{"duration":0.18181800000000692,"midi":55,"time":117.27261,"velocity":0.3937007874015748},{"duration":0.3636359999999996,"midi":57,"time":117.45442800000001,"velocity":0.3937007874015748},{"duration":0.1818179999999927,"midi":58,"time":117.818064,"velocity":0.3937007874015748},{"duration":0.18181800000000692,"midi":55,"time":117.999882,"velocity":0.3937007874015748},{"duration":0.1818179999999927,"midi":58,"time":118.545336,"velocity":0.3937007874015748},{"duration":0.18181800000000692,"midi":55,"time":118.727154,"velocity":0.3937007874015748},{"duration":0.3636359999999996,"midi":57,"time":118.908972,"velocity":0.3937007874015748},{"duration":0.1818179999999927,"midi":58,"time":119.272608,"velocity":0.3937007874015748},{"duration":0.18181800000000692,"midi":55,"time":119.454426,"velocity":0.3937007874015748},{"duration":0.18181800000000692,"midi":58,"time":119.99988,"velocity":0.3937007874015748},{"duration":0.1818179999999927,"midi":55,"time":120.18169800000001,"velocity":0.3937007874015748},{"duration":0.3636359999999996,"midi":57,"time":120.363516,"velocity":0.3937007874015748},{"duration":0.18181800000000692,"midi":58,"time":120.727152,"velocity":0.3937007874015748},{"duration":0.1818179999999927,"midi":55,"time":120.90897000000001,"velocity":0.3937007874015748},{"duration":0.18181800000000692,"midi":58,"time":121.454424,"velocity":0.3937007874015748},{"duration":0.1818179999999927,"midi":55,"time":121.63624200000001,"velocity":0.3937007874015748},{"duration":0.3636359999999996,"midi":57,"time":121.81806,"velocity":0.3937007874015748},{"duration":0.18181800000000692,"midi":58,"time":122.181696,"velocity":0.3937007874015748},{"duration":0.1818179999999927,"midi":55,"time":122.36351400000001,"velocity":0.3937007874015748},{"duration":0.18181800000000692,"midi":58,"time":122.908968,"velocity":0.3937007874015748},{"duration":0.1818179999999927,"midi":55,"time":123.09078600000001,"velocity":0.3937007874015748},{"duration":0.3636359999999996,"midi":57,"time":123.272604,"velocity":0.3937007874015748},{"duration":0.18181800000000692,"midi":58,"time":123.63624,"velocity":0.3937007874015748},{"duration":0.1818179999999927,"midi":55,"time":123.81805800000001,"velocity":0.3937007874015748},{"duration":0.18181800000000692,"midi":58,"time":124.363512,"velocity":0.3937007874015748},{"duration":0.1818179999999927,"midi":55,"time":124.54533,"velocity":0.3937007874015748},{"duration":0.3636359999999996,"midi":57,"time":124.727148,"velocity":0.3937007874015748},{"duration":0.18181800000000692,"midi":58,"time":125.090784,"velocity":0.3937007874015748},{"duration":0.1818179999999927,"midi":55,"time":125.272602,"velocity":0.3937007874015748},{"duration":0.18181800000000692,"midi":58,"time":125.818056,"velocity":0.3937007874015748},{"duration":0.1818179999999927,"midi":55,"time":125.999874,"velocity":0.3937007874015748},{"duration":0.36363600000001384,"midi":57,"time":126.181692,"velocity":0.3937007874015748},{"duration":0.1818179999999927,"midi":58,"time":126.54532800000001,"velocity":0.3937007874015748},{"duration":0.18181800000000692,"midi":55,"time":126.727146,"velocity":0.3937007874015748},{"duration":0.1818179999999927,"midi":58,"time":127.27260000000001,"velocity":0.3937007874015748},{"duration":0.1818179999999927,"midi":58,"time":127.27260000000001,"velocity":0.3937007874015748},{"duration":0.18181800000000692,"midi":55,"time":127.454418,"velocity":0.3937007874015748},{"duration":0.18181800000000692,"midi":55,"time":127.454418,"velocity":0.3937007874015748},{"duration":0.18181800000000692,"midi":55,"time":127.454418,"velocity":0.3937007874015748},{"duration":0.3636359999999996,"midi":57,"time":127.63623600000001,"velocity":0.3937007874015748},{"duration":0.3636359999999996,"midi":57,"time":127.63623600000001,"velocity":0.3937007874015748},{"duration":0.3636359999999996,"midi":57,"time":127.63623600000001,"velocity":0.3937007874015748},{"duration":0.3636359999999996,"midi":57,"time":127.63623600000001,"velocity":0.3937007874015748},{"duration":0.18181800000002113,"midi":69,"time":139.636224,"velocity":0.3937007874015748},{"duration":0.1818179999999927,"midi":70,"time":139.81804200000002,"velocity":0.3937007874015748},{"duration":0.1818179999999927,"midi":72,"time":139.99986,"velocity":0.3937007874015748},{"duration":0.1818179999999927,"midi":70,"time":140.181678,"velocity":0.3937007874015748},{"duration":0.18181800000002113,"midi":69,"time":140.363496,"velocity":0.3937007874015748},{"duration":0.1818179999999927,"midi":70,"time":140.54531400000002,"velocity":0.3937007874015748},{"duration":0.1818179999999927,"midi":72,"time":140.727132,"velocity":0.3937007874015748},{"duration":0.1818179999999927,"midi":70,"time":140.90895,"velocity":0.3937007874015748},{"duration":0.18181800000002113,"midi":69,"time":141.090768,"velocity":0.3937007874015748},{"duration":0.1818179999999927,"midi":70,"time":141.27258600000002,"velocity":0.3937007874015748},{"duration":0.1818179999999927,"midi":72,"time":141.454404,"velocity":0.3937007874015748},{"duration":0.1818179999999927,"midi":70,"time":141.636222,"velocity":0.3937007874015748},{"duration":0.18181800000002113,"midi":69,"time":141.81804,"velocity":0.3937007874015748},{"duration":0.1818179999999927,"midi":70,"time":141.99985800000002,"velocity":0.3937007874015748},{"duration":0.1818179999999927,"midi":72,"time":142.181676,"velocity":0.3937007874015748},{"duration":0.1818179999999927,"midi":70,"time":142.363494,"velocity":0.3937007874015748},{"duration":0.18181800000002113,"midi":65,"time":142.545312,"velocity":0.3937007874015748},{"duration":0.1818179999999927,"midi":69,"time":142.72713000000002,"velocity":0.3937007874015748},{"duration":0.1818179999999927,"midi":72,"time":142.908948,"velocity":0.3937007874015748},{"duration":0.1818179999999927,"midi":69,"time":143.090766,"velocity":0.3937007874015748},{"duration":0.18181800000002113,"midi":65,"time":143.272584,"velocity":0.3937007874015748},{"duration":0.1818179999999927,"midi":69,"time":143.45440200000002,"velocity":0.3937007874015748},{"duration":0.1818179999999927,"midi":72,"time":143.63622,"velocity":0.3937007874015748},{"duration":0.1818179999999927,"midi":69,"time":143.818038,"velocity":0.3937007874015748},{"duration":0.18181800000002113,"midi":67,"time":143.999856,"velocity":0.3937007874015748},{"duration":0.1818179999999927,"midi":70,"time":144.18167400000002,"velocity":0.3937007874015748},{"duration":0.1818179999999927,"midi":74,"time":144.363492,"velocity":0.3937007874015748},{"duration":0.1818179999999927,"midi":70,"time":144.54531,"velocity":0.3937007874015748},{"duration":0.18181800000002113,"midi":67,"time":144.727128,"velocity":0.3937007874015748},{"duration":0.1818179999999927,"midi":70,"time":144.90894600000001,"velocity":0.3937007874015748},{"duration":0.1818179999999927,"midi":74,"time":145.090764,"velocity":0.3937007874015748},{"duration":0.1818179999999927,"midi":70,"time":145.272582,"velocity":0.3937007874015748},{"duration":0.18181800000002113,"midi":81,"time":145.4544,"velocity":0.3937007874015748},{"duration":0.18181800000002113,"midi":69,"time":145.4544,"velocity":0.3937007874015748},{"duration":0.1818179999999927,"midi":70,"time":145.636218,"velocity":0.3937007874015748},{"duration":0.1818179999999927,"midi":82,"time":145.636218,"velocity":0.3937007874015748},{"duration":0.1818179999999927,"midi":84,"time":145.818036,"velocity":0.3937007874015748},{"duration":0.1818179999999927,"midi":72,"time":145.818036,"velocity":0.3937007874015748},{"duration":0.1818179999999927,"midi":70,"time":145.999854,"velocity":0.3937007874015748},{"duration":0.1818179999999927,"midi":82,"time":145.999854,"velocity":0.3937007874015748},{"duration":0.18181800000002113,"midi":81,"time":146.181672,"velocity":0.3937007874015748},{"duration":0.18181800000002113,"midi":69,"time":146.181672,"velocity":0.3937007874015748},{"duration":0.1818179999999927,"midi":82,"time":146.36349,"velocity":0.3937007874015748},{"duration":0.1818179999999927,"midi":70,"time":146.36349,"velocity":0.3937007874015748},{"duration":0.1818179999999927,"midi":84,"time":146.545308,"velocity":0.3937007874015748},{"duration":0.1818179999999927,"midi":72,"time":146.545308,"velocity":0.3937007874015748},{"duration":0.18181800000002113,"midi":82,"time":146.727126,"velocity":0.3937007874015748},{"duration":0.18181800000002113,"midi":70,"time":146.727126,"velocity":0.3937007874015748},{"duration":0.1818179999999927,"midi":69,"time":146.90894400000002,"velocity":0.3937007874015748},{"duration":0.1818179999999927,"midi":81,"time":146.90894400000002,"velocity":0.3937007874015748},{"duration":0.1818179999999927,"midi":82,"time":147.090762,"velocity":0.3937007874015748},{"duration":0.1818179999999927,"midi":70,"time":147.090762,"velocity":0.3937007874015748},{"duration":0.1818179999999927,"midi":84,"time":147.27258,"velocity":0.3937007874015748},{"duration":0.1818179999999927,"midi":72,"time":147.27258,"velocity":0.3937007874015748},{"duration":0.18181800000002113,"midi":70,"time":147.454398,"velocity":0.3937007874015748},{"duration":0.18181800000002113,"midi":82,"time":147.454398,"velocity":0.3937007874015748},{"duration":0.1818179999999927,"midi":81,"time":147.63621600000002,"velocity":0.3937007874015748},{"duration":0.1818179999999927,"midi":69,"time":147.63621600000002,"velocity":0.3937007874015748},{"duration":0.1818179999999927,"midi":82,"time":147.818034,"velocity":0.3937007874015748},{"duration":0.1818179999999927,"midi":70,"time":147.818034,"velocity":0.3937007874015748},{"duration":0.1818179999999927,"midi":72,"time":147.999852,"velocity":0.3937007874015748},{"duration":0.1818179999999927,"midi":84,"time":147.999852,"velocity":0.3937007874015748},{"duration":0.18181800000002113,"midi":82,"time":148.18167,"velocity":0.3937007874015748},{"duration":0.18181800000002113,"midi":70,"time":148.18167,"velocity":0.3937007874015748},{"duration":0.1818179999999927,"midi":77,"time":148.36348800000002,"velocity":0.3937007874015748},{"duration":0.1818179999999927,"midi":65,"time":148.36348800000002,"velocity":0.3937007874015748},{"duration":0.1818179999999927,"midi":69,"time":148.545306,"velocity":0.3937007874015748},{"duration":0.1818179999999927,"midi":81,"time":148.545306,"velocity":0.3937007874015748},{"duration":0.1818179999999927,"midi":72,"time":148.727124,"velocity":0.3937007874015748},{"duration":0.1818179999999927,"midi":84,"time":148.727124,"velocity":0.3937007874015748},{"duration":0.18181800000002113,"midi":81,"time":148.908942,"velocity":0.3937007874015748},{"duration":0.18181800000002113,"midi":69,"time":148.908942,"velocity":0.3937007874015748},{"duration":0.1818179999999927,"midi":77,"time":149.09076000000002,"velocity":0.3937007874015748},{"duration":0.1818179999999927,"midi":65,"time":149.09076000000002,"velocity":0.3937007874015748},{"duration":0.1818179999999927,"midi":69,"time":149.272578,"velocity":0.3937007874015748},{"duration":0.1818179999999927,"midi":81,"time":149.272578,"velocity":0.3937007874015748},{"duration":0.1818179999999927,"midi":72,"time":149.454396,"velocity":0.3937007874015748},{"duration":0.1818179999999927,"midi":84,"time":149.454396,"velocity":0.3937007874015748},{"duration":0.18181800000002113,"midi":69,"time":149.636214,"velocity":0.3937007874015748},{"duration":0.18181800000002113,"midi":81,"time":149.636214,"velocity":0.3937007874015748},{"duration":0.1818179999999927,"midi":67,"time":149.81803200000002,"velocity":0.3937007874015748},{"duration":0.1818179999999927,"midi":79,"time":149.81803200000002,"velocity":0.3937007874015748},{"duration":0.1818179999999927,"midi":70,"time":149.99985,"velocity":0.3937007874015748},{"duration":0.1818179999999927,"midi":82,"time":149.99985,"velocity":0.3937007874015748},{"duration":0.1818179999999927,"midi":86,"time":150.181668,"velocity":0.3937007874015748},{"duration":0.1818179999999927,"midi":74,"time":150.181668,"velocity":0.3937007874015748},{"duration":0.18181800000002113,"midi":82,"time":150.363486,"velocity":0.3937007874015748},{"duration":0.18181800000002113,"midi":70,"time":150.363486,"velocity":0.3937007874015748},{"duration":0.1818179999999927,"midi":79,"time":150.54530400000002,"velocity":0.3937007874015748},{"duration":0.1818179999999927,"midi":67,"time":150.54530400000002,"velocity":0.3937007874015748},{"duration":0.1818179999999927,"midi":70,"time":150.727122,"velocity":0.3937007874015748},{"duration":0.1818179999999927,"midi":82,"time":150.727122,"velocity":0.3937007874015748},{"duration":0.1818179999999927,"midi":74,"time":150.90894,"velocity":0.3937007874015748},{"duration":0.1818179999999927,"midi":86,"time":150.90894,"velocity":0.3937007874015748},{"duration":0.18181800000002113,"midi":70,"time":151.090758,"velocity":0.3937007874015748},{"duration":0.18181800000002113,"midi":82,"time":151.090758,"velocity":0.3937007874015748},{"duration":0.3636359999999854,"midi":82,"time":151.27257600000002,"velocity":0.3937007874015748},{"duration":0.3636359999999854,"midi":86,"time":151.27257600000002,"velocity":0.3937007874015748},{"duration":0.2727270000000033,"midi":89,"time":151.636212,"velocity":0.3937007874015748},{"duration":0.2727270000000033,"midi":86,"time":151.636212,"velocity":0.3937007874015748},{"duration":0.04545450000000528,"midi":81,"time":151.908939,"velocity":0.3937007874015748},{"duration":0.04545450000000528,"midi":85,"time":151.908939,"velocity":0.3937007874015748},{"duration":0.04545450000000528,"midi":86,"time":151.9543935,"velocity":0.3937007874015748},{"duration":0.04545450000000528,"midi":82,"time":151.9543935,"velocity":0.3937007874015748},{"duration":0.1818179999999927,"midi":81,"time":151.99984800000001,"velocity":0.3937007874015748},{"duration":0.1818179999999927,"midi":84,"time":151.99984800000001,"velocity":0.3937007874015748},{"duration":0.3636359999999854,"midi":82,"time":152.181666,"velocity":0.3937007874015748},{"duration":0.3636359999999854,"midi":79,"time":152.181666,"velocity":0.3937007874015748},{"duration":0.18181800000002113,"midi":79,"time":152.545302,"velocity":0.3937007874015748},{"duration":0.3636359999999854,"midi":82,"time":152.72712,"velocity":0.3937007874015748},{"duration":0.3636359999999854,"midi":86,"time":152.72712,"velocity":0.3937007874015748},{"duration":0.36363600000001384,"midi":89,"time":153.090756,"velocity":0.3937007874015748},{"duration":0.36363600000001384,"midi":86,"time":153.090756,"velocity":0.3937007874015748},{"duration":0.3636359999999854,"midi":86,"time":153.454392,"velocity":0.3937007874015748},{"duration":0.3636359999999854,"midi":82,"time":153.454392,"velocity":0.3937007874015748},{"duration":0.36363600000001384,"midi":86,"time":153.818028,"velocity":0.3937007874015748},{"duration":0.36363600000001384,"midi":89,"time":153.818028,"velocity":0.3937007874015748},{"duration":0.3636359999999854,"midi":84,"time":154.181664,"velocity":0.3937007874015748},{"duration":0.3636359999999854,"midi":81,"time":154.181664,"velocity":0.3937007874015748},{"duration":0.2727270000000033,"midi":81,"time":154.5453,"velocity":0.3937007874015748},{"duration":0.2727270000000033,"midi":84,"time":154.5453,"velocity":0.3937007874015748},{"duration":0.04545450000000528,"midi":85,"time":154.818027,"velocity":0.3937007874015748},{"duration":0.04545450000000528,"midi":81,"time":154.818027,"velocity":0.3937007874015748},{"duration":0.04545450000000528,"midi":82,"time":154.8634815,"velocity":0.3937007874015748},{"duration":0.04545450000000528,"midi":86,"time":154.8634815,"velocity":0.3937007874015748},{"duration":0.1818179999999927,"midi":81,"time":154.908936,"velocity":0.3937007874015748},{"duration":0.1818179999999927,"midi":84,"time":154.908936,"velocity":0.3937007874015748},{"duration":0.36363600000001384,"midi":79,"time":155.090754,"velocity":0.3937007874015748},{"duration":0.1818179999999927,"midi":79,"time":155.45439000000002,"velocity":0.3937007874015748},{"duration":0.3636359999999854,"midi":85,"time":155.636208,"velocity":0.3937007874015748},{"duration":0.3636359999999854,"midi":82,"time":155.636208,"velocity":0.3937007874015748},{"duration":0.36363600000001384,"midi":84,"time":155.999844,"velocity":0.3937007874015748},{"duration":0.36363600000001384,"midi":81,"time":155.999844,"velocity":0.3937007874015748},{"duration":0.3636359999999854,"midi":85,"time":156.36348,"velocity":0.3937007874015748},{"duration":0.3636359999999854,"midi":82,"time":156.36348,"velocity":0.3937007874015748},{"duration":0.18181800000002113,"midi":81,"time":156.727116,"velocity":0.3937007874015748},{"duration":0.18181800000002113,"midi":84,"time":156.727116,"velocity":0.3937007874015748},{"duration":0.1818179999999927,"midi":79,"time":156.90893400000002,"velocity":0.3937007874015748},{"duration":0.1818179999999927,"midi":82,"time":156.90893400000002,"velocity":0.3937007874015748},{"duration":0.3636359999999854,"midi":82,"time":157.090752,"velocity":0.3937007874015748},{"duration":0.3636359999999854,"midi":86,"time":157.090752,"velocity":0.3937007874015748},{"duration":0.2727270000000033,"midi":89,"time":157.454388,"velocity":0.3937007874015748},{"duration":0.2727270000000033,"midi":86,"time":157.454388,"velocity":0.3937007874015748},{"duration":0.04545450000000528,"midi":85,"time":157.727115,"velocity":0.3937007874015748},{"duration":0.04545450000000528,"midi":81,"time":157.727115,"velocity":0.3937007874015748},{"duration":0.04545450000000528,"midi":82,"time":157.7725695,"velocity":0.3937007874015748},{"duration":0.04545450000000528,"midi":86,"time":157.7725695,"velocity":0.3937007874015748},{"duration":0.1818179999999927,"midi":81,"time":157.818024,"velocity":0.3937007874015748},{"duration":0.1818179999999927,"midi":84,"time":157.818024,"velocity":0.3937007874015748},{"duration":0.36363600000001384,"midi":79,"time":157.999842,"velocity":0.3937007874015748},{"duration":0.36363600000001384,"midi":82,"time":157.999842,"velocity":0.3937007874015748},{"duration":0.1818179999999927,"midi":79,"time":158.36347800000001,"velocity":0.3937007874015748},{"duration":0.3636359999999854,"midi":82,"time":158.545296,"velocity":0.3937007874015748},{"duration":0.3636359999999854,"midi":86,"time":158.545296,"velocity":0.3937007874015748},{"duration":0.36363600000001384,"midi":89,"time":158.908932,"velocity":0.3937007874015748},{"duration":0.36363600000001384,"midi":86,"time":158.908932,"velocity":0.3937007874015748},{"duration":0.36363600000001384,"midi":86,"time":159.272568,"velocity":0.3937007874015748},{"duration":0.36363600000001384,"midi":82,"time":159.272568,"velocity":0.3937007874015748},{"duration":0.3636359999999854,"midi":86,"time":159.63620400000002,"velocity":0.3937007874015748},{"duration":0.3636359999999854,"midi":89,"time":159.63620400000002,"velocity":0.3937007874015748},{"duration":0.36363600000001384,"midi":81,"time":159.99984,"velocity":0.3937007874015748},{"duration":0.36363600000001384,"midi":84,"time":159.99984,"velocity":0.3937007874015748},{"duration":0.27272699999997485,"midi":84,"time":160.36347600000002,"velocity":0.3937007874015748},{"duration":0.27272699999997485,"midi":81,"time":160.36347600000002,"velocity":0.3937007874015748},{"duration":0.04545450000000528,"midi":85,"time":160.636203,"velocity":0.3937007874015748},{"duration":0.04545450000000528,"midi":81,"time":160.636203,"velocity":0.3937007874015748},{"duration":0.04545450000000528,"midi":82,"time":160.6816575,"velocity":0.3937007874015748},{"duration":0.04545450000000528,"midi":86,"time":160.6816575,"velocity":0.3937007874015748},{"duration":0.1818179999999927,"midi":81,"time":160.727112,"velocity":0.3937007874015748},{"duration":0.1818179999999927,"midi":84,"time":160.727112,"velocity":0.3937007874015748},{"duration":0.36363600000001384,"midi":82,"time":160.90893,"velocity":0.3937007874015748},{"duration":0.36363600000001384,"midi":79,"time":160.90893,"velocity":0.3937007874015748},{"duration":0.1818179999999927,"midi":79,"time":161.272566,"velocity":0.3937007874015748},{"duration":0.36363600000001384,"midi":85,"time":161.454384,"velocity":0.3937007874015748},{"duration":0.36363600000001384,"midi":82,"time":161.454384,"velocity":0.3937007874015748},{"duration":0.3636359999999854,"midi":81,"time":161.81802000000002,"velocity":0.3937007874015748},{"duration":0.3636359999999854,"midi":84,"time":161.81802000000002,"velocity":0.3937007874015748},{"duration":0.36363600000001384,"midi":85,"time":162.181656,"velocity":0.3937007874015748},{"duration":0.36363600000001384,"midi":82,"time":162.181656,"velocity":0.3937007874015748},{"duration":0.1818179999999927,"midi":81,"time":162.54529200000002,"velocity":0.3937007874015748},{"duration":0.1818179999999927,"midi":84,"time":162.54529200000002,"velocity":0.3937007874015748},{"duration":0.1818179999999927,"midi":82,"time":162.72711,"velocity":0.3937007874015748},{"duration":0.1818179999999927,"midi":79,"time":162.72711,"velocity":0.3937007874015748},{"duration":0.36363600000001384,"midi":86,"time":162.908928,"velocity":0.3937007874015748},{"duration":0.36363600000001384,"midi":82,"time":162.908928,"velocity":0.3937007874015748},{"duration":0.2727270000000033,"midi":89,"time":163.27256400000002,"velocity":0.3937007874015748},{"duration":0.2727270000000033,"midi":86,"time":163.27256400000002,"velocity":0.3937007874015748},{"duration":0.04545449999997686,"midi":81,"time":163.54529100000002,"velocity":0.3937007874015748},{"duration":0.04545449999997686,"midi":85,"time":163.54529100000002,"velocity":0.3937007874015748},{"duration":0.04545450000000528,"midi":86,"time":163.5907455,"velocity":0.3937007874015748},{"duration":0.04545450000000528,"midi":82,"time":163.5907455,"velocity":0.3937007874015748},{"duration":0.1818179999999927,"midi":81,"time":163.6362,"velocity":0.3937007874015748},{"duration":0.1818179999999927,"midi":84,"time":163.6362,"velocity":0.3937007874015748},{"duration":0.36363600000001384,"midi":82,"time":163.818018,"velocity":0.3937007874015748},{"duration":0.36363600000001384,"midi":79,"time":163.818018,"velocity":0.3937007874015748},{"duration":0.1818179999999927,"midi":79,"time":164.181654,"velocity":0.3937007874015748},{"duration":0.36363600000001384,"midi":82,"time":164.363472,"velocity":0.3937007874015748},{"duration":0.36363600000001384,"midi":86,"time":164.363472,"velocity":0.3937007874015748},{"duration":0.3636359999999854,"midi":89,"time":164.72710800000002,"velocity":0.3937007874015748},{"duration":0.3636359999999854,"midi":86,"time":164.72710800000002,"velocity":0.3937007874015748},{"duration":0.36363600000001384,"midi":86,"time":165.090744,"velocity":0.3937007874015748},{"duration":0.36363600000001384,"midi":82,"time":165.090744,"velocity":0.3937007874015748},{"duration":0.3636359999999854,"midi":86,"time":165.45438000000001,"velocity":0.3937007874015748},{"duration":0.3636359999999854,"midi":89,"time":165.45438000000001,"velocity":0.3937007874015748},{"duration":0.36363600000001384,"midi":84,"time":165.818016,"velocity":0.3937007874015748},{"duration":0.36363600000001384,"midi":81,"time":165.818016,"velocity":0.3937007874015748},{"duration":0.2727270000000033,"midi":84,"time":166.181652,"velocity":0.3937007874015748},{"duration":0.2727270000000033,"midi":81,"time":166.181652,"velocity":0.3937007874015748},{"duration":0.04545449999997686,"midi":85,"time":166.45437900000002,"velocity":0.3937007874015748},{"duration":0.04545449999997686,"midi":81,"time":166.45437900000002,"velocity":0.3937007874015748},{"duration":0.04545450000000528,"midi":82,"time":166.4998335,"velocity":0.3937007874015748},{"duration":0.04545450000000528,"midi":86,"time":166.4998335,"velocity":0.3937007874015748},{"duration":0.18181800000002113,"midi":84,"time":166.545288,"velocity":0.3937007874015748},{"duration":0.18181800000002113,"midi":81,"time":166.545288,"velocity":0.3937007874015748},{"duration":0.3636359999999854,"midi":79,"time":166.72710600000002,"velocity":0.3937007874015748},{"duration":0.1818179999999927,"midi":79,"time":167.090742,"velocity":0.3937007874015748},{"duration":0.36363600000001384,"midi":82,"time":167.27256,"velocity":0.3937007874015748},{"duration":0.36363600000001384,"midi":85,"time":167.27256,"velocity":0.3937007874015748},{"duration":0.3636359999999854,"midi":84,"time":167.636196,"velocity":0.3937007874015748},{"duration":0.3636359999999854,"midi":81,"time":167.636196,"velocity":0.3937007874015748},{"duration":0.36363600000001384,"midi":82,"time":167.999832,"velocity":0.3937007874015748},{"duration":0.36363600000001384,"midi":85,"time":167.999832,"velocity":0.3937007874015748},{"duration":0.1818179999999927,"midi":84,"time":168.363468,"velocity":0.3937007874015748},{"duration":0.1818179999999927,"midi":81,"time":168.363468,"velocity":0.3937007874015748},{"duration":0.1818179999999927,"midi":82,"time":168.545286,"velocity":0.3937007874015748},{"duration":0.1818179999999927,"midi":79,"time":168.545286,"velocity":0.3937007874015748},{"duration":0.36363600000001384,"midi":86,"time":168.727104,"velocity":0.3937007874015748},{"duration":0.36363600000001384,"midi":82,"time":168.727104,"velocity":0.3937007874015748},{"duration":0.2727270000000033,"midi":89,"time":169.09074,"velocity":0.3937007874015748},{"duration":0.2727270000000033,"midi":86,"time":169.09074,"velocity":0.3937007874015748},{"duration":0.04545450000000528,"midi":81,"time":169.363467,"velocity":0.3937007874015748},{"duration":0.04545450000000528,"midi":85,"time":169.363467,"velocity":0.3937007874015748},{"duration":0.04545449999997686,"midi":86,"time":169.40892150000002,"velocity":0.3937007874015748},{"duration":0.04545449999997686,"midi":82,"time":169.40892150000002,"velocity":0.3937007874015748},{"duration":0.18181800000002113,"midi":81,"time":169.454376,"velocity":0.3937007874015748},{"duration":0.18181800000002113,"midi":84,"time":169.454376,"velocity":0.3937007874015748},{"duration":0.3636359999999854,"midi":82,"time":169.63619400000002,"velocity":0.3937007874015748},{"duration":0.3636359999999854,"midi":79,"time":169.63619400000002,"velocity":0.3937007874015748},{"duration":0.1818179999999927,"midi":79,"time":169.99983,"velocity":0.3937007874015748},{"duration":0.36363600000001384,"midi":86,"time":170.181648,"velocity":0.3937007874015748},{"duration":0.36363600000001384,"midi":82,"time":170.181648,"velocity":0.3937007874015748},{"duration":0.3636359999999854,"midi":86,"time":170.545284,"velocity":0.3937007874015748},{"duration":0.3636359999999854,"midi":89,"time":170.545284,"velocity":0.3937007874015748},{"duration":0.36363600000001384,"midi":86,"time":170.90892,"velocity":0.3937007874015748},{"duration":0.36363600000001384,"midi":82,"time":170.90892,"velocity":0.3937007874015748},{"duration":0.3636359999999854,"midi":89,"time":171.272556,"velocity":0.3937007874015748},{"duration":0.3636359999999854,"midi":86,"time":171.272556,"velocity":0.3937007874015748},{"duration":0.36363600000001384,"midi":81,"time":171.636192,"velocity":0.3937007874015748},{"duration":0.36363600000001384,"midi":84,"time":171.636192,"velocity":0.3937007874015748},{"duration":0.2727270000000033,"midi":81,"time":171.999828,"velocity":0.3937007874015748},{"duration":0.2727270000000033,"midi":84,"time":171.999828,"velocity":0.3937007874015748},{"duration":0.04545450000000528,"midi":81,"time":172.272555,"velocity":0.3937007874015748},{"duration":0.04545450000000528,"midi":85,"time":172.272555,"velocity":0.3937007874015748},{"duration":0.04545449999997686,"midi":82,"time":172.31800950000002,"velocity":0.3937007874015748},{"duration":0.04545449999997686,"midi":86,"time":172.31800950000002,"velocity":0.3937007874015748},{"duration":0.18181800000002113,"midi":84,"time":172.363464,"velocity":0.3937007874015748},{"duration":0.18181800000002113,"midi":81,"time":172.363464,"velocity":0.3937007874015748},{"duration":0.3636359999999854,"midi":82,"time":172.54528200000001,"velocity":0.3937007874015748},{"duration":0.3636359999999854,"midi":79,"time":172.54528200000001,"velocity":0.3937007874015748},{"duration":0.18181800000002113,"midi":79,"time":172.908918,"velocity":0.3937007874015748},{"duration":0.3636359999999854,"midi":82,"time":173.09073600000002,"velocity":0.3937007874015748},{"duration":0.3636359999999854,"midi":85,"time":173.09073600000002,"velocity":0.3937007874015748},{"duration":0.36363600000001384,"midi":84,"time":173.454372,"velocity":0.3937007874015748},{"duration":0.36363600000001384,"midi":81,"time":173.454372,"velocity":0.3937007874015748},{"duration":0.3636359999999854,"midi":82,"time":173.81800800000002,"velocity":0.3937007874015748},{"duration":0.3636359999999854,"midi":85,"time":173.81800800000002,"velocity":0.3937007874015748},{"duration":0.1818179999999927,"midi":84,"time":174.181644,"velocity":0.3937007874015748},{"duration":0.1818179999999927,"midi":81,"time":174.181644,"velocity":0.3937007874015748},{"duration":0.18181800000002113,"midi":79,"time":174.363462,"velocity":0.3937007874015748},{"duration":0.18181800000002113,"midi":82,"time":174.363462,"velocity":0.3937007874015748},{"duration":0.18181800000002113,"midi":58,"time":221.090688,"velocity":0.3937007874015748},{"duration":0.1818179999999927,"midi":55,"time":221.27250600000002,"velocity":0.3937007874015748},{"duration":0.18181800000002113,"midi":58,"time":221.81796,"velocity":0.3937007874015748},{"duration":0.1818179999999927,"midi":55,"time":221.99977800000002,"velocity":0.3937007874015748},{"duration":0.3636359999999854,"midi":57,"time":222.181596,"velocity":0.3937007874015748},{"duration":0.18181800000002113,"midi":58,"time":222.545232,"velocity":0.3937007874015748},{"duration":0.1818179999999927,"midi":55,"time":222.72705000000002,"velocity":0.3937007874015748},{"duration":0.18181800000002113,"midi":58,"time":223.272504,"velocity":0.3937007874015748},{"duration":0.1818179999999927,"midi":55,"time":223.45432200000002,"velocity":0.3937007874015748},{"duration":0.3636359999999854,"midi":57,"time":223.63614,"velocity":0.3937007874015748},{"duration":0.18181800000002113,"midi":58,"time":223.999776,"velocity":0.3937007874015748},{"duration":0.1818179999999927,"midi":55,"time":224.18159400000002,"velocity":0.3937007874015748},{"duration":0.18181800000002113,"midi":58,"time":224.727048,"velocity":0.3937007874015748},{"duration":0.1818179999999927,"midi":55,"time":224.90886600000002,"velocity":0.3937007874015748},{"duration":0.3636359999999854,"midi":57,"time":225.090684,"velocity":0.3937007874015748},{"duration":0.18181800000002113,"midi":58,"time":225.45432,"velocity":0.3937007874015748},{"duration":0.1818179999999927,"midi":55,"time":225.63613800000002,"velocity":0.3937007874015748},{"duration":0.1818179999999927,"midi":58,"time":226.18159200000002,"velocity":0.3937007874015748},{"duration":0.1818179999999927,"midi":55,"time":226.36341000000002,"velocity":0.3937007874015748},{"duration":0.36363600000001384,"midi":57,"time":226.545228,"velocity":0.3937007874015748},{"duration":0.1818179999999927,"midi":58,"time":226.90886400000002,"velocity":0.3937007874015748},{"duration":0.1818179999999927,"midi":55,"time":227.09068200000002,"velocity":0.3937007874015748},{"duration":0.1818179999999927,"midi":58,"time":227.63613600000002,"velocity":0.3937007874015748},{"duration":0.1818179999999927,"midi":55,"time":227.81795400000001,"velocity":0.3937007874015748},{"duration":0.36363600000001384,"midi":57,"time":227.999772,"velocity":0.3937007874015748},{"duration":0.1818179999999927,"midi":58,"time":228.36340800000002,"velocity":0.3937007874015748},{"duration":0.1818179999999927,"midi":55,"time":228.545226,"velocity":0.3937007874015748},{"duration":0.1818179999999927,"midi":58,"time":229.09068000000002,"velocity":0.3937007874015748},{"duration":0.1818179999999927,"midi":55,"time":229.272498,"velocity":0.3937007874015748},{"duration":0.36363600000001384,"midi":57,"time":229.454316,"velocity":0.3937007874015748},{"duration":0.1818179999999927,"midi":58,"time":229.81795200000002,"velocity":0.3937007874015748},{"duration":0.1818179999999927,"midi":55,"time":229.99977,"velocity":0.3937007874015748},{"duration":0.1818179999999927,"midi":58,"time":230.54522400000002,"velocity":0.3937007874015748},{"duration":0.1818179999999927,"midi":55,"time":230.727042,"velocity":0.3937007874015748},{"duration":0.36363600000001384,"midi":57,"time":230.90886,"velocity":0.3937007874015748},{"duration":0.1818179999999927,"midi":58,"time":231.27249600000002,"velocity":0.3937007874015748},{"duration":0.1818179999999927,"midi":55,"time":231.454314,"velocity":0.3937007874015748},{"duration":0.1818179999999927,"midi":58,"time":231.99976800000002,"velocity":0.3937007874015748},{"duration":0.1818179999999927,"midi":55,"time":232.181586,"velocity":0.3937007874015748},{"duration":0.36363600000001384,"midi":57,"time":232.363404,"velocity":0.3937007874015748},{"duration":0.1818179999999927,"midi":58,"time":232.72704000000002,"velocity":0.3937007874015748},{"duration":0.1818179999999927,"midi":55,"time":232.908858,"velocity":0.3937007874015748},{"duration":0.1818179999999927,"midi":58,"time":233.45431200000002,"velocity":0.3937007874015748},{"duration":0.1818179999999927,"midi":55,"time":233.63613,"velocity":0.3937007874015748},{"duration":0.36363600000001384,"midi":57,"time":233.817948,"velocity":0.3937007874015748},{"duration":0.1818179999999927,"midi":58,"time":234.18158400000002,"velocity":0.3937007874015748},{"duration":0.1818179999999927,"midi":55,"time":234.363402,"velocity":0.3937007874015748},{"duration":0.1818179999999927,"midi":58,"time":234.90885600000001,"velocity":0.3937007874015748},{"duration":0.1818179999999927,"midi":55,"time":235.090674,"velocity":0.3937007874015748},{"duration":0.36363600000001384,"midi":57,"time":235.272492,"velocity":0.3937007874015748},{"duration":0.1818179999999927,"midi":58,"time":235.636128,"velocity":0.3937007874015748},{"duration":0.1818179999999927,"midi":55,"time":235.817946,"velocity":0.3937007874015748},{"duration":0.1818179999999927,"midi":58,"time":236.3634,"velocity":0.3937007874015748},{"duration":0.1818179999999927,"midi":55,"time":236.545218,"velocity":0.3937007874015748},{"duration":0.36363600000001384,"midi":57,"time":236.727036,"velocity":0.3937007874015748},{"duration":0.1818179999999927,"midi":58,"time":237.090672,"velocity":0.3937007874015748},{"duration":0.1818179999999927,"midi":55,"time":237.27249,"velocity":0.3937007874015748},{"duration":0.1818179999999927,"midi":58,"time":237.817944,"velocity":0.3937007874015748},{"duration":0.1818179999999927,"midi":55,"time":237.999762,"velocity":0.3937007874015748},{"duration":0.36363600000001384,"midi":57,"time":238.18158,"velocity":0.3937007874015748},{"duration":0.1818179999999927,"midi":58,"time":238.545216,"velocity":0.3937007874015748},{"duration":0.1818179999999927,"midi":55,"time":238.727034,"velocity":0.3937007874015748},{"duration":0.1818179999999927,"midi":58,"time":239.272488,"velocity":0.3937007874015748},{"duration":0.18181800000002113,"midi":55,"time":239.454306,"velocity":0.3937007874015748},{"duration":0.3636359999999854,"midi":57,"time":239.63612400000002,"velocity":0.3937007874015748},{"duration":0.1818179999999927,"midi":58,"time":239.99976,"velocity":0.3937007874015748},{"duration":0.18181800000002113,"midi":55,"time":240.181578,"velocity":0.3937007874015748},{"duration":0.1818179999999927,"midi":58,"time":240.727032,"velocity":0.3937007874015748},{"duration":0.18181800000002113,"midi":55,"time":240.90885,"velocity":0.3937007874015748},{"duration":0.3636359999999854,"midi":57,"time":241.09066800000002,"velocity":0.3937007874015748},{"duration":0.1818179999999927,"midi":58,"time":241.454304,"velocity":0.3937007874015748},{"duration":0.18181800000002113,"midi":55,"time":241.636122,"velocity":0.3937007874015748},{"duration":0.1818179999999927,"midi":58,"time":242.181576,"velocity":0.3937007874015748},{"duration":0.18181800000002113,"midi":55,"time":242.363394,"velocity":0.3937007874015748},{"duration":0.3636359999999854,"midi":57,"time":242.54521200000002,"velocity":0.3937007874015748},{"duration":0.1818179999999927,"midi":58,"time":242.908848,"velocity":0.3937007874015748},{"duration":0.18181800000002113,"midi":55,"time":243.090666,"velocity":0.3937007874015748},{"duration":0.1818179999999927,"midi":58,"time":243.63612,"velocity":0.3937007874015748},{"duration":0.1818179999999927,"midi":58,"time":243.63612,"velocity":0.3937007874015748},{"duration":0.18181800000002113,"midi":55,"time":243.817938,"velocity":0.3937007874015748},{"duration":0.18181800000002113,"midi":55,"time":243.817938,"velocity":0.3937007874015748},{"duration":0.18181800000002113,"midi":55,"time":243.817938,"velocity":0.3937007874015748},{"duration":0.3636359999999854,"midi":57,"time":243.99975600000002,"velocity":0.3937007874015748},{"duration":0.3636359999999854,"midi":57,"time":243.99975600000002,"velocity":0.3937007874015748},{"duration":0.3636359999999854,"midi":57,"time":243.99975600000002,"velocity":0.3937007874015748},{"duration":0.3636359999999854,"midi":57,"time":243.99975600000002,"velocity":0.3937007874015748},{"duration":0.09090900000001056,"midi":57,"time":267.636096,"velocity":0.3937007874015748},{"duration":0.09090899999995372,"midi":58,"time":267.81791400000003,"velocity":0.3937007874015748},{"duration":0.09090900000001056,"midi":62,"time":267.999732,"velocity":0.3937007874015748},{"duration":0.09090900000001056,"midi":58,"time":268.18155,"velocity":0.3937007874015748},{"duration":0.09090899999995372,"midi":57,"time":268.36336800000004,"velocity":0.3937007874015748},{"duration":0.09090900000001056,"midi":58,"time":268.545186,"velocity":0.3937007874015748},{"duration":0.09090900000001056,"midi":62,"time":268.727004,"velocity":0.3937007874015748},{"duration":0.09090900000001056,"midi":58,"time":268.908822,"velocity":0.3937007874015748},{"duration":0.09090900000001056,"midi":57,"time":269.09064,"velocity":0.3937007874015748},{"duration":0.09090900000001056,"midi":58,"time":269.27245800000003,"velocity":0.3937007874015748},{"duration":0.09090900000001056,"midi":62,"time":269.454276,"velocity":0.3937007874015748},{"duration":0.09090900000001056,"midi":58,"time":269.636094,"velocity":0.3937007874015748},{"duration":0.09090899999995372,"midi":57,"time":269.81791200000004,"velocity":0.3937007874015748},{"duration":0.09090900000001056,"midi":58,"time":269.99973,"velocity":0.3937007874015748},{"duration":0.09090900000001056,"midi":62,"time":270.181548,"velocity":0.3937007874015748},{"duration":0.09090900000001056,"midi":58,"time":270.363366,"velocity":0.3937007874015748},{"duration":0.09090900000001056,"midi":53,"time":270.545184,"velocity":0.3937007874015748},{"duration":0.09090900000001056,"midi":57,"time":270.727002,"velocity":0.3937007874015748},{"duration":0.09090900000001056,"midi":60,"time":270.90882,"velocity":0.3937007874015748},{"duration":0.09090900000001056,"midi":57,"time":271.090638,"velocity":0.3937007874015748},{"duration":0.09090899999995372,"midi":53,"time":271.27245600000003,"velocity":0.3937007874015748},{"duration":0.09090900000001056,"midi":57,"time":271.454274,"velocity":0.3937007874015748},{"duration":0.09090900000001056,"midi":60,"time":271.636092,"velocity":0.3937007874015748},{"duration":0.09090900000001056,"midi":57,"time":271.81791,"velocity":0.3937007874015748},{"duration":0.09090900000001056,"midi":55,"time":271.999728,"velocity":0.3937007874015748},{"duration":0.09090900000001056,"midi":58,"time":272.181546,"velocity":0.3937007874015748},{"duration":0.09090900000001056,"midi":62,"time":272.363364,"velocity":0.3937007874015748},{"duration":0.09090900000001056,"midi":58,"time":272.545182,"velocity":0.3937007874015748},{"duration":0.09090899999995372,"midi":55,"time":272.72700000000003,"velocity":0.3937007874015748},{"duration":0.09090900000001056,"midi":58,"time":272.908818,"velocity":0.3937007874015748},{"duration":0.09090900000001056,"midi":62,"time":273.090636,"velocity":0.3937007874015748},{"duration":0.09090899999995372,"midi":58,"time":273.27245400000004,"velocity":0.3937007874015748},{"duration":0.09090900000001056,"midi":57,"time":273.454272,"velocity":0.3937007874015748},{"duration":0.09090900000001056,"midi":58,"time":273.63609,"velocity":0.3937007874015748},{"duration":0.09090900000001056,"midi":62,"time":273.817908,"velocity":0.3937007874015748},{"duration":0.09090900000001056,"midi":58,"time":273.999726,"velocity":0.3937007874015748},{"duration":0.09090899999995372,"midi":57,"time":274.18154400000003,"velocity":0.3937007874015748},{"duration":0.09090900000001056,"midi":58,"time":274.363362,"velocity":0.3937007874015748},{"duration":0.09090900000001056,"midi":62,"time":274.54518,"velocity":0.3937007874015748},{"duration":0.09090899999995372,"midi":58,"time":274.72699800000004,"velocity":0.3937007874015748},{"duration":0.09090900000001056,"midi":57,"time":274.908816,"velocity":0.3937007874015748},{"duration":0.09090900000001056,"midi":58,"time":275.090634,"velocity":0.3937007874015748},{"duration":0.09090900000001056,"midi":62,"time":275.272452,"velocity":0.3937007874015748},{"duration":0.09090900000001056,"midi":58,"time":275.45427,"velocity":0.3937007874015748},{"duration":0.09090899999995372,"midi":57,"time":275.63608800000003,"velocity":0.3937007874015748},{"duration":0.09090900000001056,"midi":58,"time":275.817906,"velocity":0.3937007874015748},{"duration":0.09090900000001056,"midi":62,"time":275.999724,"velocity":0.3937007874015748},{"duration":0.09090899999995372,"midi":58,"time":276.18154200000004,"velocity":0.3937007874015748},{"duration":0.09090900000001056,"midi":53,"time":276.36336,"velocity":0.3937007874015748},{"duration":0.09090900000001056,"midi":57,"time":276.545178,"velocity":0.3937007874015748},{"duration":0.09090900000001056,"midi":60,"time":276.726996,"velocity":0.3937007874015748},{"duration":0.09090900000001056,"midi":57,"time":276.908814,"velocity":0.3937007874015748},{"duration":0.09090900000001056,"midi":53,"time":277.090632,"velocity":0.3937007874015748},{"duration":0.09090900000001056,"midi":57,"time":277.27245,"velocity":0.3937007874015748},{"duration":0.09090900000001056,"midi":60,"time":277.454268,"velocity":0.3937007874015748},{"duration":0.09090899999995372,"midi":57,"time":277.63608600000003,"velocity":0.3937007874015748},{"duration":0.09090900000001056,"midi":55,"time":277.817904,"velocity":0.3937007874015748},{"duration":0.09090900000001056,"midi":58,"time":277.999722,"velocity":0.3937007874015748},{"duration":0.09090900000001056,"midi":62,"time":278.18154,"velocity":0.3937007874015748},{"duration":0.09090900000001056,"midi":58,"time":278.363358,"velocity":0.3937007874015748},{"duration":0.09090900000001056,"midi":55,"time":278.545176,"velocity":0.3937007874015748},{"duration":0.09090900000001056,"midi":58,"time":278.726994,"velocity":0.3937007874015748},{"duration":0.09090900000001056,"midi":62,"time":278.908812,"velocity":0.3937007874015748},{"duration":0.09090899999995372,"midi":58,"time":279.09063000000003,"velocity":0.3937007874015748},{"duration":0.09090900000001056,"midi":57,"time":279.272448,"velocity":0.3937007874015748},{"duration":0.09090900000001056,"midi":58,"time":279.454266,"velocity":0.3937007874015748},{"duration":0.09090899999995372,"midi":62,"time":279.63608400000004,"velocity":0.3937007874015748},{"duration":0.09090900000001056,"midi":58,"time":279.817902,"velocity":0.3937007874015748},{"duration":0.09090900000001056,"midi":57,"time":279.99972,"velocity":0.3937007874015748},{"duration":0.09090900000001056,"midi":58,"time":280.181538,"velocity":0.3937007874015748},{"duration":0.09090900000001056,"midi":62,"time":280.363356,"velocity":0.3937007874015748},{"duration":0.09090899999995372,"midi":58,"time":280.54517400000003,"velocity":0.3937007874015748},{"duration":0.09090900000001056,"midi":57,"time":280.726992,"velocity":0.3937007874015748},{"duration":0.09090900000001056,"midi":58,"time":280.90881,"velocity":0.3937007874015748},{"duration":0.09090899999995372,"midi":62,"time":281.09062800000004,"velocity":0.3937007874015748},{"duration":0.09090900000001056,"midi":58,"time":281.272446,"velocity":0.3937007874015748},{"duration":0.09090900000001056,"midi":57,"time":281.454264,"velocity":0.3937007874015748},{"duration":0.09090900000001056,"midi":58,"time":281.636082,"velocity":0.3937007874015748},{"duration":0.09090900000001056,"midi":62,"time":281.8179,"velocity":0.3937007874015748},{"duration":0.09090899999995372,"midi":58,"time":281.99971800000003,"velocity":0.3937007874015748},{"duration":0.09090900000001056,"midi":53,"time":282.181536,"velocity":0.3937007874015748},{"duration":0.09090900000001056,"midi":57,"time":282.363354,"velocity":0.3937007874015748},{"duration":0.09090899999995372,"midi":60,"time":282.54517200000004,"velocity":0.3937007874015748},{"duration":0.09090900000001056,"midi":57,"time":282.72699,"velocity":0.3937007874015748},{"duration":0.09090900000001056,"midi":53,"time":282.908808,"velocity":0.3937007874015748},{"duration":0.09090900000001056,"midi":57,"time":283.090626,"velocity":0.3937007874015748},{"duration":0.09090900000001056,"midi":60,"time":283.272444,"velocity":0.3937007874015748},{"duration":0.09090900000001056,"midi":57,"time":283.454262,"velocity":0.3937007874015748},{"duration":0.09090900000001056,"midi":55,"time":283.63608,"velocity":0.3937007874015748},{"duration":0.09090900000001056,"midi":58,"time":283.817898,"velocity":0.3937007874015748},{"duration":0.09090899999995372,"midi":62,"time":283.99971600000003,"velocity":0.3937007874015748},{"duration":0.09090900000001056,"midi":58,"time":284.181534,"velocity":0.3937007874015748},{"duration":0.09090900000001056,"midi":55,"time":284.363352,"velocity":0.3937007874015748},{"duration":0.09090900000001056,"midi":58,"time":284.54517,"velocity":0.3937007874015748},{"duration":0.09090900000001056,"midi":62,"time":284.726988,"velocity":0.3937007874015748},{"duration":0.09090900000001056,"midi":58,"time":284.908806,"velocity":0.3937007874015748},{"duration":0.09090900000001056,"midi":57,"time":285.090624,"velocity":0.3937007874015748},{"duration":0.09090900000001056,"midi":58,"time":285.272442,"velocity":0.3937007874015748},{"duration":0.09090899999995372,"midi":62,"time":285.45426000000003,"velocity":0.3937007874015748},{"duration":0.09090900000001056,"midi":58,"time":285.636078,"velocity":0.3937007874015748},{"duration":0.09090900000001056,"midi":57,"time":285.817896,"velocity":0.3937007874015748},{"duration":0.09090899999995372,"midi":58,"time":285.99971400000004,"velocity":0.3937007874015748},{"duration":0.09090900000001056,"midi":62,"time":286.181532,"velocity":0.3937007874015748},{"duration":0.09090900000001056,"midi":58,"time":286.36335,"velocity":0.3937007874015748},{"duration":0.09090900000001056,"midi":57,"time":286.545168,"velocity":0.3937007874015748},{"duration":0.09090900000001056,"midi":58,"time":286.726986,"velocity":0.3937007874015748},{"duration":0.09090899999995372,"midi":62,"time":286.90880400000003,"velocity":0.3937007874015748},{"duration":0.09090900000001056,"midi":58,"time":287.090622,"velocity":0.3937007874015748},{"duration":0.09090900000001056,"midi":57,"time":287.27244,"velocity":0.3937007874015748},{"duration":0.09090899999995372,"midi":58,"time":287.45425800000004,"velocity":0.3937007874015748},{"duration":0.09090900000001056,"midi":62,"time":287.636076,"velocity":0.3937007874015748},{"duration":0.09090900000001056,"midi":58,"time":287.817894,"velocity":0.3937007874015748},{"duration":0.09090900000001056,"midi":53,"time":287.999712,"velocity":0.3937007874015748},{"duration":0.09090900000001056,"midi":57,"time":288.18153,"velocity":0.3937007874015748},{"duration":0.09090899999995372,"midi":60,"time":288.36334800000003,"velocity":0.3937007874015748},{"duration":0.09090900000001056,"midi":57,"time":288.545166,"velocity":0.3937007874015748},{"duration":0.09090900000001056,"midi":53,"time":288.726984,"velocity":0.3937007874015748},{"duration":0.09090899999995372,"midi":57,"time":288.90880200000004,"velocity":0.3937007874015748},{"duration":0.09090900000001056,"midi":60,"time":289.09062,"velocity":0.3937007874015748},{"duration":0.09090900000001056,"midi":57,"time":289.272438,"velocity":0.3937007874015748},{"duration":0.09090900000001056,"midi":55,"time":289.454256,"velocity":0.3937007874015748},{"duration":0.09090900000001056,"midi":58,"time":289.636074,"velocity":0.3937007874015748},{"duration":0.09090900000001056,"midi":62,"time":289.81789200000003,"velocity":0.3937007874015748},{"duration":0.09090900000001056,"midi":58,"time":289.99971,"velocity":0.3937007874015748},{"duration":0.09090900000001056,"midi":55,"time":290.181528,"velocity":0.3937007874015748},{"duration":0.09090899999995372,"midi":58,"time":290.36334600000004,"velocity":0.3937007874015748},{"duration":0.09090900000001056,"midi":62,"time":290.545164,"velocity":0.3937007874015748},{"duration":0.09090900000001056,"midi":58,"time":290.726982,"velocity":0.3937007874015748},{"duration":0.09090900000001056,"midi":57,"time":290.9088,"velocity":0.3937007874015748},{"duration":0.09090900000001056,"midi":58,"time":291.090618,"velocity":0.3937007874015748},{"duration":0.09090900000001056,"midi":62,"time":291.272436,"velocity":0.3937007874015748},{"duration":0.09090900000001056,"midi":58,"time":291.454254,"velocity":0.3937007874015748},{"duration":0.09090900000001056,"midi":57,"time":291.636072,"velocity":0.3937007874015748},{"duration":0.09090899999995372,"midi":58,"time":291.81789000000003,"velocity":0.3937007874015748},{"duration":0.09090900000001056,"midi":62,"time":291.999708,"velocity":0.3937007874015748},{"duration":0.09090900000001056,"midi":58,"time":292.181526,"velocity":0.3937007874015748},{"duration":0.09090900000001056,"midi":57,"time":292.363344,"velocity":0.3937007874015748},{"duration":0.09090900000001056,"midi":58,"time":292.545162,"velocity":0.3937007874015748},{"duration":0.09090900000001056,"midi":62,"time":292.72698,"velocity":0.3937007874015748},{"duration":0.09090900000001056,"midi":58,"time":292.908798,"velocity":0.3937007874015748},{"duration":0.09090900000001056,"midi":57,"time":293.090616,"velocity":0.3937007874015748},{"duration":0.09090899999995372,"midi":58,"time":293.27243400000003,"velocity":0.3937007874015748},{"duration":0.09090900000001056,"midi":62,"time":293.454252,"velocity":0.3937007874015748},{"duration":0.09090900000001056,"midi":58,"time":293.63607,"velocity":0.3937007874015748},{"duration":0.09090899999995372,"midi":53,"time":293.81788800000004,"velocity":0.3937007874015748},{"duration":0.09090900000001056,"midi":57,"time":293.999706,"velocity":0.3937007874015748},{"duration":0.09090900000001056,"midi":60,"time":294.181524,"velocity":0.3937007874015748},{"duration":0.09090900000001056,"midi":57,"time":294.363342,"velocity":0.3937007874015748},{"duration":0.09090900000001056,"midi":53,"time":294.54516,"velocity":0.3937007874015748},{"duration":0.09090899999995372,"midi":57,"time":294.72697800000003,"velocity":0.3937007874015748},{"duration":0.09090900000001056,"midi":60,"time":294.908796,"velocity":0.3937007874015748},{"duration":0.09090900000001056,"midi":57,"time":295.090614,"velocity":0.3937007874015748},{"duration":0.09090899999995372,"midi":55,"time":295.27243200000004,"velocity":0.3937007874015748},{"duration":0.09090900000001056,"midi":58,"time":295.45425,"velocity":0.3937007874015748},{"duration":0.09090900000001056,"midi":62,"time":295.636068,"velocity":0.3937007874015748},{"duration":0.09090900000001056,"midi":58,"time":295.817886,"velocity":0.3937007874015748},{"duration":0.09090900000001056,"midi":55,"time":295.999704,"velocity":0.3937007874015748},{"duration":0.09090900000001056,"midi":58,"time":296.18152200000003,"velocity":0.3937007874015748},{"duration":0.09090900000001056,"midi":62,"time":296.36334,"velocity":0.3937007874015748},{"duration":0.09090900000001056,"midi":58,"time":296.545158,"velocity":0.3937007874015748},{"duration":0.09090899999995372,"midi":57,"time":296.72697600000004,"velocity":0.3937007874015748},{"duration":0.09090900000001056,"midi":58,"time":296.908794,"velocity":0.3937007874015748},{"duration":0.09090900000001056,"midi":62,"time":297.090612,"velocity":0.3937007874015748},{"duration":0.09090900000001056,"midi":58,"time":297.27243,"velocity":0.3937007874015748},{"duration":0.09090900000001056,"midi":57,"time":297.454248,"velocity":0.3937007874015748},{"duration":0.09090900000001056,"midi":58,"time":297.636066,"velocity":0.3937007874015748},{"duration":0.09090900000001056,"midi":62,"time":297.817884,"velocity":0.3937007874015748},{"duration":0.09090900000001056,"midi":58,"time":297.999702,"velocity":0.3937007874015748},{"duration":0.09090899999995372,"midi":57,"time":298.18152000000003,"velocity":0.3937007874015748},{"duration":0.09090900000001056,"midi":58,"time":298.363338,"velocity":0.3937007874015748},{"duration":0.09090900000001056,"midi":62,"time":298.545156,"velocity":0.3937007874015748},{"duration":0.09090900000001056,"midi":58,"time":298.726974,"velocity":0.3937007874015748},{"duration":0.09090900000001056,"midi":57,"time":298.908792,"velocity":0.3937007874015748},{"duration":0.09090900000001056,"midi":58,"time":299.09061,"velocity":0.3937007874015748},{"duration":0.09090900000001056,"midi":62,"time":299.272428,"velocity":0.3937007874015748},{"duration":0.09090900000001056,"midi":58,"time":299.454246,"velocity":0.3937007874015748},{"duration":0.09090899999995372,"midi":53,"time":299.63606400000003,"velocity":0.3937007874015748},{"duration":0.09090900000001056,"midi":57,"time":299.817882,"velocity":0.3937007874015748},{"duration":0.09090900000001056,"midi":60,"time":299.9997,"velocity":0.3937007874015748},{"duration":0.09090899999995372,"midi":57,"time":300.18151800000004,"velocity":0.3937007874015748},{"duration":0.09090900000001056,"midi":53,"time":300.363336,"velocity":0.3937007874015748},{"duration":0.09090900000001056,"midi":57,"time":300.545154,"velocity":0.3937007874015748},{"duration":0.09090900000001056,"midi":60,"time":300.726972,"velocity":0.3937007874015748},{"duration":0.09090900000001056,"midi":57,"time":300.90879,"velocity":0.3937007874015748},{"duration":0.09090899999995372,"midi":55,"time":301.09060800000003,"velocity":0.3937007874015748},{"duration":0.09090900000001056,"midi":58,"time":301.272426,"velocity":0.3937007874015748},{"duration":0.09090900000001056,"midi":62,"time":301.454244,"velocity":0.3937007874015748},{"duration":0.09090899999995372,"midi":58,"time":301.63606200000004,"velocity":0.3937007874015748},{"duration":0.09090900000001056,"midi":55,"time":301.81788,"velocity":0.3937007874015748},{"duration":0.09090900000001056,"midi":58,"time":301.999698,"velocity":0.3937007874015748},{"duration":0.09090900000001056,"midi":62,"time":302.181516,"velocity":0.3937007874015748},{"duration":0.09090900000001056,"midi":58,"time":302.363334,"velocity":0.3937007874015748},{"duration":0.09090900000001056,"midi":57,"time":302.54515200000003,"velocity":0.3937007874015748},{"duration":0.09090900000001056,"midi":58,"time":302.72697,"velocity":0.3937007874015748},{"duration":0.09090900000001056,"midi":62,"time":302.908788,"velocity":0.3937007874015748},{"duration":0.09090899999995372,"midi":58,"time":303.09060600000004,"velocity":0.3937007874015748},{"duration":0.09090900000001056,"midi":57,"time":303.272424,"velocity":0.3937007874015748},{"duration":0.09090900000001056,"midi":58,"time":303.454242,"velocity":0.3937007874015748},{"duration":0.09090900000001056,"midi":62,"time":303.63606,"velocity":0.3937007874015748},{"duration":0.09090900000001056,"midi":58,"time":303.817878,"velocity":0.3937007874015748},{"duration":0.09090900000001056,"midi":57,"time":303.99969600000003,"velocity":0.3937007874015748},{"duration":0.09090900000001056,"midi":58,"time":304.181514,"velocity":0.3937007874015748},{"duration":0.09090900000001056,"midi":62,"time":304.363332,"velocity":0.3937007874015748},{"duration":0.09090899999995372,"midi":58,"time":304.54515000000004,"velocity":0.3937007874015748},{"duration":0.09090900000001056,"midi":57,"time":304.726968,"velocity":0.3937007874015748},{"duration":0.09090900000001056,"midi":58,"time":304.908786,"velocity":0.3937007874015748},{"duration":0.09090900000001056,"midi":62,"time":305.090604,"velocity":0.3937007874015748},{"duration":0.09090900000001056,"midi":58,"time":305.272422,"velocity":0.3937007874015748},{"duration":0.09090900000001056,"midi":53,"time":305.45424,"velocity":0.3937007874015748},{"duration":0.09090900000001056,"midi":57,"time":305.636058,"velocity":0.3937007874015748},{"duration":0.09090900000001056,"midi":60,"time":305.817876,"velocity":0.3937007874015748},{"duration":0.09090899999995372,"midi":57,"time":305.99969400000003,"velocity":0.3937007874015748},{"duration":0.09090900000001056,"midi":53,"time":306.181512,"velocity":0.3937007874015748},{"duration":0.09090900000001056,"midi":57,"time":306.36333,"velocity":0.3937007874015748},{"duration":0.09090899999995372,"midi":60,"time":306.54514800000004,"velocity":0.3937007874015748},{"duration":0.09090900000001056,"midi":57,"time":306.726966,"velocity":0.3937007874015748},{"duration":0.09090900000001056,"midi":55,"time":306.908784,"velocity":0.3937007874015748},{"duration":0.09090900000001056,"midi":58,"time":307.090602,"velocity":0.3937007874015748},{"duration":0.09090900000001056,"midi":62,"time":307.27242,"velocity":0.3937007874015748},{"duration":0.09090899999995372,"midi":58,"time":307.45423800000003,"velocity":0.3937007874015748},{"duration":0.09090900000001056,"midi":55,"time":307.636056,"velocity":0.3937007874015748},{"duration":0.09090900000001056,"midi":58,"time":307.817874,"velocity":0.3937007874015748},{"duration":0.09090899999995372,"midi":62,"time":307.99969200000004,"velocity":0.3937007874015748},{"duration":0.09090900000001056,"midi":58,"time":308.18151,"velocity":0.3937007874015748},{"duration":0.09090900000001056,"midi":57,"time":308.363328,"velocity":0.3937007874015748},{"duration":0.09090900000001056,"midi":58,"time":308.545146,"velocity":0.3937007874015748},{"duration":0.09090900000001056,"midi":62,"time":308.726964,"velocity":0.3937007874015748},{"duration":0.09090899999995372,"midi":58,"time":308.90878200000003,"velocity":0.3937007874015748},{"duration":0.09090900000001056,"midi":57,"time":309.0906,"velocity":0.3937007874015748},{"duration":0.09090900000001056,"midi":58,"time":309.272418,"velocity":0.3937007874015748},{"duration":0.09090899999995372,"midi":62,"time":309.45423600000004,"velocity":0.3937007874015748},{"duration":0.09090900000001056,"midi":58,"time":309.636054,"velocity":0.3937007874015748},{"duration":0.09090900000001056,"midi":57,"time":309.817872,"velocity":0.3937007874015748},{"duration":0.09090900000001056,"midi":58,"time":309.99969,"velocity":0.3937007874015748},{"duration":0.09090900000001056,"midi":62,"time":310.181508,"velocity":0.3937007874015748},{"duration":0.09090900000001056,"midi":58,"time":310.36332600000003,"velocity":0.3937007874015748},{"duration":0.09090900000001056,"midi":57,"time":310.545144,"velocity":0.3937007874015748},{"duration":0.09090900000001056,"midi":58,"time":310.726962,"velocity":0.3937007874015748},{"duration":0.09090899999995372,"midi":62,"time":310.90878000000004,"velocity":0.3937007874015748},{"duration":0.09090900000001056,"midi":58,"time":311.090598,"velocity":0.3937007874015748},{"duration":0.09090900000001056,"midi":53,"time":311.272416,"velocity":0.3937007874015748},{"duration":0.09090900000001056,"midi":57,"time":311.454234,"velocity":0.3937007874015748},{"duration":0.09090900000001056,"midi":60,"time":311.636052,"velocity":0.3937007874015748},{"duration":0.09090900000001056,"midi":57,"time":311.81787,"velocity":0.3937007874015748},{"duration":0.09090900000001056,"midi":53,"time":311.999688,"velocity":0.3937007874015748},{"duration":0.09090900000001056,"midi":57,"time":312.181506,"velocity":0.3937007874015748},{"duration":0.09090899999995372,"midi":60,"time":312.36332400000003,"velocity":0.3937007874015748},{"duration":0.09090900000001056,"midi":57,"time":312.545142,"velocity":0.3937007874015748}]},{"instrument":{"family":"strings","number":45,"name":"pizzicato strings"},"notes":[{"duration":0.1818179999999998,"midi":57,"time":58.181760000000004,"velocity":0.5669291338582677},{"duration":0.1818179999999998,"midi":58,"time":58.363578000000004,"velocity":0.5669291338582677},{"duration":0.1818179999999998,"midi":62,"time":58.545396000000004,"velocity":0.5669291338582677},{"duration":0.1818179999999998,"midi":58,"time":58.727214000000004,"velocity":0.5669291338582677},{"duration":0.1818179999999998,"midi":57,"time":58.909032,"velocity":0.5669291338582677},{"duration":0.1818179999999998,"midi":58,"time":59.09085,"velocity":0.5669291338582677},{"duration":0.1818179999999998,"midi":62,"time":59.272668,"velocity":0.5669291338582677},{"duration":0.1818179999999998,"midi":58,"time":59.454486,"velocity":0.5669291338582677},{"duration":0.1818179999999998,"midi":57,"time":59.636304,"velocity":0.5669291338582677},{"duration":0.1818179999999998,"midi":58,"time":59.818122,"velocity":0.5669291338582677},{"duration":0.1818179999999998,"midi":62,"time":59.99994,"velocity":0.5669291338582677},{"duration":0.1818179999999998,"midi":58,"time":60.181758,"velocity":0.5669291338582677},{"duration":0.1818179999999998,"midi":57,"time":60.363576,"velocity":0.5669291338582677},{"duration":0.1818179999999998,"midi":58,"time":60.545394,"velocity":0.5669291338582677},{"duration":0.1818179999999998,"midi":62,"time":60.727212,"velocity":0.5669291338582677},{"duration":0.1818179999999998,"midi":58,"time":60.90903,"velocity":0.5669291338582677},{"duration":0.1818179999999998,"midi":53,"time":61.090848,"velocity":0.5669291338582677},{"duration":0.1818179999999998,"midi":57,"time":61.272666,"velocity":0.5669291338582677},{"duration":0.1818179999999998,"midi":60,"time":61.454484,"velocity":0.5669291338582677},{"duration":0.1818179999999998,"midi":57,"time":61.636302,"velocity":0.5669291338582677},{"duration":0.1818179999999998,"midi":53,"time":61.81812,"velocity":0.5669291338582677},{"duration":0.1818179999999998,"midi":57,"time":61.999938,"velocity":0.5669291338582677},{"duration":0.1818179999999998,"midi":60,"time":62.181756,"velocity":0.5669291338582677},{"duration":0.1818179999999998,"midi":57,"time":62.363574,"velocity":0.5669291338582677},{"duration":0.1818179999999998,"midi":55,"time":62.545392,"velocity":0.5669291338582677},{"duration":0.1818179999999998,"midi":58,"time":62.72721,"velocity":0.5669291338582677},{"duration":0.1818179999999998,"midi":62,"time":62.909028,"velocity":0.5669291338582677},{"duration":0.18181800000000692,"midi":58,"time":63.090846,"velocity":0.5669291338582677},{"duration":0.1818179999999998,"midi":55,"time":63.272664000000006,"velocity":0.5669291338582677},{"duration":0.1818179999999998,"midi":58,"time":63.454482000000006,"velocity":0.5669291338582677},{"duration":0.1818179999999998,"midi":62,"time":63.636300000000006,"velocity":0.5669291338582677},{"duration":0.1818179999999998,"midi":58,"time":63.818118000000005,"velocity":0.5669291338582677},{"duration":0.1818179999999927,"midi":57,"time":63.999936000000005,"velocity":0.5669291338582677},{"duration":0.18181800000000692,"midi":58,"time":64.181754,"velocity":0.5669291338582677},{"duration":0.1818179999999927,"midi":62,"time":64.363572,"velocity":0.5669291338582677},{"duration":0.18181800000000692,"midi":58,"time":64.54539,"velocity":0.5669291338582677},{"duration":0.1818179999999927,"midi":57,"time":64.727208,"velocity":0.5669291338582677},{"duration":0.18181800000000692,"midi":58,"time":64.909026,"velocity":0.5669291338582677},{"duration":0.1818179999999927,"midi":62,"time":65.090844,"velocity":0.5669291338582677},{"duration":0.18181800000000692,"midi":58,"time":65.272662,"velocity":0.5669291338582677},{"duration":0.1818179999999927,"midi":57,"time":65.45448,"velocity":0.5669291338582677},{"duration":0.18181800000000692,"midi":58,"time":65.636298,"velocity":0.5669291338582677},{"duration":0.1818179999999927,"midi":62,"time":65.818116,"velocity":0.5669291338582677},{"duration":0.18181800000000692,"midi":58,"time":65.999934,"velocity":0.5669291338582677},{"duration":0.1818179999999927,"midi":57,"time":66.181752,"velocity":0.5669291338582677},{"duration":0.18181800000000692,"midi":58,"time":66.36357,"velocity":0.5669291338582677},{"duration":0.18181800000000692,"midi":62,"time":66.545388,"velocity":0.5669291338582677},{"duration":0.1818179999999927,"midi":58,"time":66.72720600000001,"velocity":0.5669291338582677},{"duration":0.18181800000000692,"midi":53,"time":66.909024,"velocity":0.5669291338582677},{"duration":0.1818179999999927,"midi":57,"time":67.09084200000001,"velocity":0.5669291338582677},{"duration":0.18181800000000692,"midi":60,"time":67.27266,"velocity":0.5669291338582677},{"duration":0.1818179999999927,"midi":57,"time":67.45447800000001,"velocity":0.5669291338582677},{"duration":0.18181800000000692,"midi":53,"time":67.636296,"velocity":0.5669291338582677},{"duration":0.1818179999999927,"midi":57,"time":67.81811400000001,"velocity":0.5669291338582677},{"duration":0.18181800000000692,"midi":60,"time":67.999932,"velocity":0.5669291338582677},{"duration":0.1818179999999927,"midi":57,"time":68.18175000000001,"velocity":0.5669291338582677},{"duration":0.18181800000000692,"midi":55,"time":68.363568,"velocity":0.5669291338582677},{"duration":0.1818179999999927,"midi":58,"time":68.54538600000001,"velocity":0.5669291338582677},{"duration":0.18181800000000692,"midi":62,"time":68.727204,"velocity":0.5669291338582677},{"duration":0.1818179999999927,"midi":58,"time":68.90902200000001,"velocity":0.5669291338582677},{"duration":0.1818179999999927,"midi":67,"time":162.908928,"velocity":0.5669291338582677},{"duration":0.1818179999999927,"midi":67,"time":163.27256400000002,"velocity":0.5669291338582677},{"duration":0.1818179999999927,"midi":67,"time":163.6362,"velocity":0.5669291338582677},{"duration":0.1818179999999927,"midi":67,"time":163.99983600000002,"velocity":0.5669291338582677},{"duration":0.1818179999999927,"midi":64,"time":164.363472,"velocity":0.5669291338582677},{"duration":0.1818179999999927,"midi":64,"time":164.72710800000002,"velocity":0.5669291338582677},{"duration":0.1818179999999927,"midi":64,"time":165.090744,"velocity":0.5669291338582677},{"duration":0.1818179999999927,"midi":64,"time":165.45438000000001,"velocity":0.5669291338582677},{"duration":0.1818179999999927,"midi":65,"time":165.818016,"velocity":0.5669291338582677},{"duration":0.1818179999999927,"midi":65,"time":166.181652,"velocity":0.5669291338582677},{"duration":0.18181800000002113,"midi":65,"time":166.545288,"velocity":0.5669291338582677},{"duration":0.1818179999999927,"midi":65,"time":166.908924,"velocity":0.5669291338582677},{"duration":0.18181800000002113,"midi":67,"time":167.27256,"velocity":0.5669291338582677},{"duration":0.1818179999999927,"midi":67,"time":167.636196,"velocity":0.5669291338582677},{"duration":0.18181800000002113,"midi":67,"time":167.999832,"velocity":0.5669291338582677},{"duration":0.1818179999999927,"midi":67,"time":168.363468,"velocity":0.5669291338582677},{"duration":0.18181800000002113,"midi":67,"time":168.727104,"velocity":0.5669291338582677},{"duration":0.1818179999999927,"midi":67,"time":169.09074,"velocity":0.5669291338582677},{"duration":0.18181800000002113,"midi":67,"time":169.454376,"velocity":0.5669291338582677},{"duration":0.1818179999999927,"midi":67,"time":169.818012,"velocity":0.5669291338582677},{"duration":0.18181800000002113,"midi":64,"time":170.181648,"velocity":0.5669291338582677},{"duration":0.1818179999999927,"midi":64,"time":170.545284,"velocity":0.5669291338582677},{"duration":0.18181800000002113,"midi":64,"time":170.90892,"velocity":0.5669291338582677},{"duration":0.1818179999999927,"midi":64,"time":171.272556,"velocity":0.5669291338582677},{"duration":0.18181800000002113,"midi":65,"time":171.636192,"velocity":0.5669291338582677},{"duration":0.1818179999999927,"midi":65,"time":171.999828,"velocity":0.5669291338582677},{"duration":0.18181800000002113,"midi":65,"time":172.363464,"velocity":0.5669291338582677},{"duration":0.1818179999999927,"midi":65,"time":172.7271,"velocity":0.5669291338582677},{"duration":0.1818179999999927,"midi":67,"time":173.09073600000002,"velocity":0.5669291338582677},{"duration":0.1818179999999927,"midi":67,"time":173.454372,"velocity":0.5669291338582677},{"duration":0.1818179999999927,"midi":67,"time":173.81800800000002,"velocity":0.5669291338582677},{"duration":0.1818179999999927,"midi":67,"time":174.181644,"velocity":0.5669291338582677}]},{"instrument":{"family":"chromatic percussion","number":13,"name":"xylophone"},"notes":[{"duration":0.3636359999999996,"midi":74,"time":116.36352000000001,"velocity":0.7401574803149606},{"duration":0.2727270000000033,"midi":77,"time":116.72715600000001,"velocity":0.7401574803149606},{"duration":0.09090899999999635,"midi":73,"time":116.99988300000001,"velocity":0.7401574803149606},{"duration":0.1818179999999927,"midi":74,"time":117.09079200000001,"velocity":0.7401574803149606},{"duration":0.18181800000000692,"midi":72,"time":117.27261,"velocity":0.7401574803149606},{"duration":0.1818179999999927,"midi":70,"time":117.45442800000001,"velocity":0.7401574803149606},{"duration":0.18181800000000692,"midi":67,"time":117.636246,"velocity":0.7401574803149606},{"duration":0.3636359999999996,"midi":86,"time":122.181696,"velocity":0.7401574803149606},{"duration":0.3636359999999996,"midi":74,"time":122.181696,"velocity":0.7401574803149606},{"duration":0.2727270000000033,"midi":89,"time":122.545332,"velocity":0.7401574803149606},{"duration":0.2727270000000033,"midi":77,"time":122.545332,"velocity":0.7401574803149606},{"duration":0.09090899999999635,"midi":85,"time":122.818059,"velocity":0.7401574803149606},{"duration":0.09090899999999635,"midi":73,"time":122.818059,"velocity":0.7401574803149606},{"duration":0.18181800000000692,"midi":86,"time":122.908968,"velocity":0.7401574803149606},{"duration":0.18181800000000692,"midi":74,"time":122.908968,"velocity":0.7401574803149606},{"duration":0.1818179999999927,"midi":84,"time":123.09078600000001,"velocity":0.7401574803149606},{"duration":0.1818179999999927,"midi":72,"time":123.09078600000001,"velocity":0.7401574803149606},{"duration":0.18181800000000692,"midi":70,"time":123.272604,"velocity":0.7401574803149606},{"duration":0.18181800000000692,"midi":82,"time":123.272604,"velocity":0.7401574803149606},{"duration":0.1818179999999927,"midi":67,"time":123.45442200000001,"velocity":0.7401574803149606},{"duration":0.1818179999999927,"midi":79,"time":123.45442200000001,"velocity":0.7401574803149606},{"duration":0.3636359999999854,"midi":74,"time":232.72704000000002,"velocity":0.7401574803149606},{"duration":0.2727270000000033,"midi":77,"time":233.090676,"velocity":0.7401574803149606},{"duration":0.09090900000001056,"midi":73,"time":233.363403,"velocity":0.7401574803149606},{"duration":0.1818179999999927,"midi":74,"time":233.45431200000002,"velocity":0.7401574803149606},{"duration":0.1818179999999927,"midi":72,"time":233.63613,"velocity":0.7401574803149606},{"duration":0.18181800000002113,"midi":70,"time":233.817948,"velocity":0.7401574803149606},{"duration":0.1818179999999927,"midi":67,"time":233.99976600000002,"velocity":0.7401574803149606},{"duration":0.3636359999999854,"midi":74,"time":238.545216,"velocity":0.7401574803149606},{"duration":0.3636359999999854,"midi":86,"time":238.545216,"velocity":0.7401574803149606},{"duration":0.2727270000000033,"midi":77,"time":238.908852,"velocity":0.7401574803149606},{"duration":0.2727270000000033,"midi":89,"time":238.908852,"velocity":0.7401574803149606},{"duration":0.09090900000001056,"midi":85,"time":239.181579,"velocity":0.7401574803149606},{"duration":0.09090900000001056,"midi":73,"time":239.181579,"velocity":0.7401574803149606},{"duration":0.1818179999999927,"midi":74,"time":239.272488,"velocity":0.7401574803149606},{"duration":0.1818179999999927,"midi":86,"time":239.272488,"velocity":0.7401574803149606},{"duration":0.18181800000002113,"midi":72,"time":239.454306,"velocity":0.7401574803149606},{"duration":0.18181800000002113,"midi":84,"time":239.454306,"velocity":0.7401574803149606},{"duration":0.1818179999999927,"midi":70,"time":239.63612400000002,"velocity":0.7401574803149606},{"duration":0.1818179999999927,"midi":82,"time":239.63612400000002,"velocity":0.7401574803149606},{"duration":0.1818179999999927,"midi":67,"time":239.81794200000002,"velocity":0.7401574803149606},{"duration":0.1818179999999927,"midi":79,"time":239.81794200000002,"velocity":0.7401574803149606}]},{"instrument":{"family":"percussive","number":114,"name":"steel drums"},"notes":[{"duration":0.1818179999999998,"midi":69,"time":58.181760000000004,"velocity":0.3937007874015748},{"duration":0.1818179999999998,"midi":70,"time":58.363578000000004,"velocity":0.3937007874015748},{"duration":0.1818179999999998,"midi":74,"time":58.545396000000004,"velocity":0.3937007874015748},{"duration":0.1818179999999998,"midi":70,"time":58.727214000000004,"velocity":0.3937007874015748},{"duration":0.1818179999999998,"midi":69,"time":58.909032,"velocity":0.3937007874015748},{"duration":0.1818179999999998,"midi":70,"time":59.09085,"velocity":0.3937007874015748},{"duration":0.1818179999999998,"midi":74,"time":59.272668,"velocity":0.3937007874015748},{"duration":0.1818179999999998,"midi":70,"time":59.454486,"velocity":0.3937007874015748},{"duration":0.1818179999999998,"midi":69,"time":59.636304,"velocity":0.3937007874015748},{"duration":0.1818179999999998,"midi":70,"time":59.818122,"velocity":0.3937007874015748},{"duration":0.1818179999999998,"midi":74,"time":59.99994,"velocity":0.3937007874015748},{"duration":0.1818179999999998,"midi":70,"time":60.181758,"velocity":0.3937007874015748},{"duration":0.1818179999999998,"midi":69,"time":60.363576,"velocity":0.3937007874015748},{"duration":0.1818179999999998,"midi":70,"time":60.545394,"velocity":0.3937007874015748},{"duration":0.1818179999999998,"midi":74,"time":60.727212,"velocity":0.3937007874015748},{"duration":0.1818179999999998,"midi":70,"time":60.90903,"velocity":0.3937007874015748},{"duration":0.1818179999999998,"midi":65,"time":61.090848,"velocity":0.3937007874015748},{"duration":0.1818179999999998,"midi":69,"time":61.272666,"velocity":0.3937007874015748},{"duration":0.1818179999999998,"midi":72,"time":61.454484,"velocity":0.3937007874015748},{"duration":0.1818179999999998,"midi":69,"time":61.636302,"velocity":0.3937007874015748},{"duration":0.1818179999999998,"midi":65,"time":61.81812,"velocity":0.3937007874015748},{"duration":0.1818179999999998,"midi":69,"time":61.999938,"velocity":0.3937007874015748},{"duration":0.1818179999999998,"midi":72,"time":62.181756,"velocity":0.3937007874015748},{"duration":0.1818179999999998,"midi":69,"time":62.363574,"velocity":0.3937007874015748},{"duration":0.1818179999999998,"midi":67,"time":62.545392,"velocity":0.3937007874015748},{"duration":0.1818179999999998,"midi":70,"time":62.72721,"velocity":0.3937007874015748},{"duration":0.1818179999999998,"midi":74,"time":62.909028,"velocity":0.3937007874015748},{"duration":0.18181800000000692,"midi":70,"time":63.090846,"velocity":0.3937007874015748},{"duration":0.1818179999999998,"midi":67,"time":63.272664000000006,"velocity":0.3937007874015748},{"duration":0.1818179999999998,"midi":70,"time":63.454482000000006,"velocity":0.3937007874015748},{"duration":0.1818179999999998,"midi":74,"time":63.636300000000006,"velocity":0.3937007874015748},{"duration":0.1818179999999998,"midi":70,"time":63.818118000000005,"velocity":0.3937007874015748},{"duration":0.1818179999999927,"midi":69,"time":63.999936000000005,"velocity":0.3937007874015748},{"duration":0.18181800000000692,"midi":70,"time":64.181754,"velocity":0.3937007874015748},{"duration":0.1818179999999927,"midi":74,"time":64.363572,"velocity":0.3937007874015748},{"duration":0.18181800000000692,"midi":70,"time":64.54539,"velocity":0.3937007874015748},{"duration":0.1818179999999927,"midi":69,"time":64.727208,"velocity":0.3937007874015748},{"duration":0.18181800000000692,"midi":70,"time":64.909026,"velocity":0.3937007874015748},{"duration":0.1818179999999927,"midi":74,"time":65.090844,"velocity":0.3937007874015748},{"duration":0.18181800000000692,"midi":70,"time":65.272662,"velocity":0.3937007874015748},{"duration":0.1818179999999927,"midi":69,"time":65.45448,"velocity":0.3937007874015748},{"duration":0.18181800000000692,"midi":70,"time":65.636298,"velocity":0.3937007874015748},{"duration":0.1818179999999927,"midi":74,"time":65.818116,"velocity":0.3937007874015748},{"duration":0.18181800000000692,"midi":70,"time":65.999934,"velocity":0.3937007874015748},{"duration":0.1818179999999927,"midi":69,"time":66.181752,"velocity":0.3937007874015748},{"duration":0.18181800000000692,"midi":70,"time":66.36357,"velocity":0.3937007874015748},{"duration":0.18181800000000692,"midi":74,"time":66.545388,"velocity":0.3937007874015748},{"duration":0.1818179999999927,"midi":70,"time":66.72720600000001,"velocity":0.3937007874015748},{"duration":0.18181800000000692,"midi":65,"time":66.909024,"velocity":0.3937007874015748},{"duration":0.1818179999999927,"midi":69,"time":67.09084200000001,"velocity":0.3937007874015748},{"duration":0.18181800000000692,"midi":72,"time":67.27266,"velocity":0.3937007874015748},{"duration":0.1818179999999927,"midi":69,"time":67.45447800000001,"velocity":0.3937007874015748},{"duration":0.18181800000000692,"midi":65,"time":67.636296,"velocity":0.3937007874015748},{"duration":0.1818179999999927,"midi":69,"time":67.81811400000001,"velocity":0.3937007874015748},{"duration":0.18181800000000692,"midi":72,"time":67.999932,"velocity":0.3937007874015748},{"duration":0.1818179999999927,"midi":69,"time":68.18175000000001,"velocity":0.3937007874015748},{"duration":0.18181800000000692,"midi":67,"time":68.363568,"velocity":0.3937007874015748},{"duration":0.1818179999999927,"midi":70,"time":68.54538600000001,"velocity":0.3937007874015748},{"duration":0.18181800000000692,"midi":74,"time":68.727204,"velocity":0.3937007874015748},{"duration":0.1818179999999927,"midi":70,"time":68.90902200000001,"velocity":0.3937007874015748},{"duration":0.18181800000000692,"midi":57,"time":69.818112,"velocity":0.3937007874015748},{"duration":0.18181800000000692,"midi":81,"time":69.818112,"velocity":0.3937007874015748},{"duration":0.18181800000000692,"midi":69,"time":69.818112,"velocity":0.3937007874015748},{"duration":0.1818179999999927,"midi":82,"time":69.99993,"velocity":0.3937007874015748},{"duration":0.1818179999999927,"midi":70,"time":69.99993,"velocity":0.3937007874015748},{"duration":0.1818179999999927,"midi":58,"time":69.99993,"velocity":0.3937007874015748},{"duration":0.18181800000000692,"midi":79,"time":70.181748,"velocity":0.3937007874015748},{"duration":0.18181800000000692,"midi":86,"time":70.181748,"velocity":0.3937007874015748},{"duration":0.18181800000000692,"midi":62,"time":70.181748,"velocity":0.3937007874015748},{"duration":0.18181800000000692,"midi":55,"time":70.181748,"velocity":0.3937007874015748},{"duration":0.18181800000000692,"midi":67,"time":70.181748,"velocity":0.3937007874015748},{"duration":0.18181800000000692,"midi":74,"time":70.181748,"velocity":0.3937007874015748},{"duration":0.1818179999999927,"midi":82,"time":70.363566,"velocity":0.3937007874015748},{"duration":0.1818179999999927,"midi":70,"time":70.363566,"velocity":0.3937007874015748},{"duration":0.1818179999999927,"midi":58,"time":70.363566,"velocity":0.3937007874015748},{"duration":0.18181800000000692,"midi":81,"time":70.545384,"velocity":0.3937007874015748},{"duration":0.18181800000000692,"midi":57,"time":70.545384,"velocity":0.3937007874015748},{"duration":0.18181800000000692,"midi":69,"time":70.545384,"velocity":0.3937007874015748},{"duration":0.1818179999999927,"midi":70,"time":70.727202,"velocity":0.3937007874015748},{"duration":0.1818179999999927,"midi":58,"time":70.727202,"velocity":0.3937007874015748},{"duration":0.1818179999999927,"midi":82,"time":70.727202,"velocity":0.3937007874015748},{"duration":0.18181800000000692,"midi":74,"time":70.90902,"velocity":0.3937007874015748},{"duration":0.18181800000000692,"midi":55,"time":70.90902,"velocity":0.3937007874015748},{"duration":0.18181800000000692,"midi":86,"time":70.90902,"velocity":0.3937007874015748},{"duration":0.18181800000000692,"midi":79,"time":70.90902,"velocity":0.3937007874015748},{"duration":0.18181800000000692,"midi":62,"time":70.90902,"velocity":0.3937007874015748},{"duration":0.18181800000000692,"midi":67,"time":70.90902,"velocity":0.3937007874015748},{"duration":0.1818179999999927,"midi":58,"time":71.090838,"velocity":0.3937007874015748},{"duration":0.1818179999999927,"midi":70,"time":71.090838,"velocity":0.3937007874015748},{"duration":0.1818179999999927,"midi":82,"time":71.090838,"velocity":0.3937007874015748},{"duration":0.18181800000000692,"midi":69,"time":71.272656,"velocity":0.3937007874015748},{"duration":0.18181800000000692,"midi":81,"time":71.272656,"velocity":0.3937007874015748},{"duration":0.18181800000000692,"midi":57,"time":71.272656,"velocity":0.3937007874015748},{"duration":0.1818179999999927,"midi":82,"time":71.454474,"velocity":0.3937007874015748},{"duration":0.1818179999999927,"midi":70,"time":71.454474,"velocity":0.3937007874015748},{"duration":0.1818179999999927,"midi":58,"time":71.454474,"velocity":0.3937007874015748},{"duration":0.18181800000000692,"midi":55,"time":71.636292,"velocity":0.3937007874015748},{"duration":0.18181800000000692,"midi":62,"time":71.636292,"velocity":0.3937007874015748},{"duration":0.18181800000000692,"midi":74,"time":71.636292,"velocity":0.3937007874015748},{"duration":0.18181800000000692,"midi":86,"time":71.636292,"velocity":0.3937007874015748},{"duration":0.18181800000000692,"midi":79,"time":71.636292,"velocity":0.3937007874015748},{"duration":0.18181800000000692,"midi":67,"time":71.636292,"velocity":0.3937007874015748},{"duration":0.1818179999999927,"midi":82,"time":71.81811,"velocity":0.3937007874015748},{"duration":0.1818179999999927,"midi":58,"time":71.81811,"velocity":0.3937007874015748},{"duration":0.1818179999999927,"midi":70,"time":71.81811,"velocity":0.3937007874015748},{"duration":0.18181800000000692,"midi":69,"time":71.999928,"velocity":0.3937007874015748},{"duration":0.18181800000000692,"midi":81,"time":71.999928,"velocity":0.3937007874015748},{"duration":0.18181800000000692,"midi":57,"time":71.999928,"velocity":0.3937007874015748},{"duration":0.1818179999999927,"midi":70,"time":72.181746,"velocity":0.3937007874015748},{"duration":0.1818179999999927,"midi":58,"time":72.181746,"velocity":0.3937007874015748},{"duration":0.1818179999999927,"midi":82,"time":72.181746,"velocity":0.3937007874015748},{"duration":0.18181800000000692,"midi":79,"time":72.363564,"velocity":0.3937007874015748},{"duration":0.18181800000000692,"midi":74,"time":72.363564,"velocity":0.3937007874015748},{"duration":0.18181800000000692,"midi":62,"time":72.363564,"velocity":0.3937007874015748},{"duration":0.18181800000000692,"midi":55,"time":72.363564,"velocity":0.3937007874015748},{"duration":0.18181800000000692,"midi":67,"time":72.363564,"velocity":0.3937007874015748},{"duration":0.18181800000000692,"midi":86,"time":72.363564,"velocity":0.3937007874015748},{"duration":0.1818179999999927,"midi":82,"time":72.545382,"velocity":0.3937007874015748},{"duration":0.1818179999999927,"midi":58,"time":72.545382,"velocity":0.3937007874015748},{"duration":0.1818179999999927,"midi":70,"time":72.545382,"velocity":0.3937007874015748},{"duration":0.18181800000000692,"midi":77,"time":72.7272,"velocity":0.3937007874015748},{"duration":0.18181800000000692,"midi":53,"time":72.7272,"velocity":0.3937007874015748},{"duration":0.18181800000000692,"midi":65,"time":72.7272,"velocity":0.3937007874015748},{"duration":0.1818179999999927,"midi":57,"time":72.909018,"velocity":0.3937007874015748},{"duration":0.1818179999999927,"midi":69,"time":72.909018,"velocity":0.3937007874015748},{"duration":0.1818179999999927,"midi":81,"time":72.909018,"velocity":0.3937007874015748},{"duration":0.18181800000000692,"midi":77,"time":73.090836,"velocity":0.3937007874015748},{"duration":0.18181800000000692,"midi":72,"time":73.090836,"velocity":0.3937007874015748},{"duration":0.18181800000000692,"midi":84,"time":73.090836,"velocity":0.3937007874015748},{"duration":0.18181800000000692,"midi":60,"time":73.090836,"velocity":0.3937007874015748},{"duration":0.18181800000000692,"midi":53,"time":73.090836,"velocity":0.3937007874015748},{"duration":0.18181800000000692,"midi":65,"time":73.090836,"velocity":0.3937007874015748},{"duration":0.18181800000000692,"midi":69,"time":73.272654,"velocity":0.3937007874015748},{"duration":0.18181800000000692,"midi":57,"time":73.272654,"velocity":0.3937007874015748},{"duration":0.18181800000000692,"midi":81,"time":73.272654,"velocity":0.3937007874015748},{"duration":0.1818179999999927,"midi":77,"time":73.45447200000001,"velocity":0.3937007874015748},{"duration":0.1818179999999927,"midi":65,"time":73.45447200000001,"velocity":0.3937007874015748},{"duration":0.1818179999999927,"midi":53,"time":73.45447200000001,"velocity":0.3937007874015748},{"duration":0.18181800000000692,"midi":69,"time":73.63629,"velocity":0.3937007874015748},{"duration":0.18181800000000692,"midi":81,"time":73.63629,"velocity":0.3937007874015748},{"duration":0.18181800000000692,"midi":57,"time":73.63629,"velocity":0.3937007874015748},{"duration":0.1818179999999927,"midi":65,"time":73.81810800000001,"velocity":0.3937007874015748},{"duration":0.1818179999999927,"midi":60,"time":73.81810800000001,"velocity":0.3937007874015748},{"duration":0.1818179999999927,"midi":77,"time":73.81810800000001,"velocity":0.3937007874015748},{"duration":0.1818179999999927,"midi":53,"time":73.81810800000001,"velocity":0.3937007874015748},{"duration":0.1818179999999927,"midi":84,"time":73.81810800000001,"velocity":0.3937007874015748},{"duration":0.1818179999999927,"midi":72,"time":73.81810800000001,"velocity":0.3937007874015748},{"duration":0.18181800000000692,"midi":81,"time":73.999926,"velocity":0.3937007874015748},{"duration":0.18181800000000692,"midi":57,"time":73.999926,"velocity":0.3937007874015748},{"duration":0.18181800000000692,"midi":69,"time":73.999926,"velocity":0.3937007874015748},{"duration":0.1818179999999927,"midi":67,"time":74.18174400000001,"velocity":0.3937007874015748},{"duration":0.1818179999999927,"midi":79,"time":74.18174400000001,"velocity":0.3937007874015748},{"duration":0.1818179999999927,"midi":55,"time":74.18174400000001,"velocity":0.3937007874015748},{"duration":0.18181800000000692,"midi":58,"time":74.363562,"velocity":0.3937007874015748},{"duration":0.18181800000000692,"midi":70,"time":74.363562,"velocity":0.3937007874015748},{"duration":0.18181800000000692,"midi":82,"time":74.363562,"velocity":0.3937007874015748},{"duration":0.1818179999999927,"midi":86,"time":74.54538000000001,"velocity":0.3937007874015748},{"duration":0.1818179999999927,"midi":74,"time":74.54538000000001,"velocity":0.3937007874015748},{"duration":0.1818179999999927,"midi":79,"time":74.54538000000001,"velocity":0.3937007874015748},{"duration":0.1818179999999927,"midi":74,"time":74.54538000000001,"velocity":0.3937007874015748},{"duration":0.1818179999999927,"midi":67,"time":74.54538000000001,"velocity":0.3937007874015748},{"duration":0.1818179999999927,"midi":55,"time":74.54538000000001,"velocity":0.3937007874015748},{"duration":0.1818179999999927,"midi":62,"time":74.54538000000001,"velocity":0.3937007874015748},{"duration":0.18181800000000692,"midi":70,"time":74.727198,"velocity":0.3937007874015748},{"duration":0.18181800000000692,"midi":58,"time":74.727198,"velocity":0.3937007874015748},{"duration":0.18181800000000692,"midi":82,"time":74.727198,"velocity":0.3937007874015748},{"duration":0.1818179999999927,"midi":67,"time":74.90901600000001,"velocity":0.3937007874015748},{"duration":0.1818179999999927,"midi":55,"time":74.90901600000001,"velocity":0.3937007874015748},{"duration":0.1818179999999927,"midi":79,"time":74.90901600000001,"velocity":0.3937007874015748},{"duration":0.18181800000000692,"midi":58,"time":75.090834,"velocity":0.3937007874015748},{"duration":0.18181800000000692,"midi":70,"time":75.090834,"velocity":0.3937007874015748},{"duration":0.18181800000000692,"midi":82,"time":75.090834,"velocity":0.3937007874015748},{"duration":0.1818179999999927,"midi":74,"time":75.27265200000001,"velocity":0.3937007874015748},{"duration":0.1818179999999927,"midi":62,"time":75.27265200000001,"velocity":0.3937007874015748},{"duration":0.1818179999999927,"midi":67,"time":75.27265200000001,"velocity":0.3937007874015748},{"duration":0.1818179999999927,"midi":74,"time":75.27265200000001,"velocity":0.3937007874015748},{"duration":0.1818179999999927,"midi":86,"time":75.27265200000001,"velocity":0.3937007874015748},{"duration":0.1818179999999927,"midi":79,"time":75.27265200000001,"velocity":0.3937007874015748},{"duration":0.1818179999999927,"midi":55,"time":75.27265200000001,"velocity":0.3937007874015748},{"duration":0.18181800000000692,"midi":70,"time":75.45447,"velocity":0.3937007874015748},{"duration":0.18181800000000692,"midi":58,"time":75.45447,"velocity":0.3937007874015748},{"duration":0.18181800000000692,"midi":82,"time":75.45447,"velocity":0.3937007874015748},{"duration":0.1818179999999927,"midi":81,"time":75.63628800000001,"velocity":0.3937007874015748},{"duration":0.1818179999999927,"midi":69,"time":75.63628800000001,"velocity":0.3937007874015748},{"duration":0.1818179999999927,"midi":57,"time":75.63628800000001,"velocity":0.3937007874015748},{"duration":0.18181800000000692,"midi":82,"time":75.818106,"velocity":0.3937007874015748},{"duration":0.18181800000000692,"midi":70,"time":75.818106,"velocity":0.3937007874015748},{"duration":0.18181800000000692,"midi":58,"time":75.818106,"velocity":0.3937007874015748},{"duration":0.1818179999999927,"midi":62,"time":75.99992400000001,"velocity":0.3937007874015748},{"duration":0.1818179999999927,"midi":86,"time":75.99992400000001,"velocity":0.3937007874015748},{"duration":0.1818179999999927,"midi":74,"time":75.99992400000001,"velocity":0.3937007874015748},{"duration":0.1818179999999927,"midi":55,"time":75.99992400000001,"velocity":0.3937007874015748},{"duration":0.1818179999999927,"midi":79,"time":75.99992400000001,"velocity":0.3937007874015748},{"duration":0.1818179999999927,"midi":67,"time":75.99992400000001,"velocity":0.3937007874015748},{"duration":0.18181800000000692,"midi":82,"time":76.181742,"velocity":0.3937007874015748},{"duration":0.18181800000000692,"midi":58,"time":76.181742,"velocity":0.3937007874015748},{"duration":0.18181800000000692,"midi":70,"time":76.181742,"velocity":0.3937007874015748},{"duration":0.1818179999999927,"midi":57,"time":76.36356,"velocity":0.3937007874015748},{"duration":0.1818179999999927,"midi":69,"time":76.36356,"velocity":0.3937007874015748},{"duration":0.1818179999999927,"midi":81,"time":76.36356,"velocity":0.3937007874015748},{"duration":0.18181800000000692,"midi":58,"time":76.545378,"velocity":0.3937007874015748},{"duration":0.18181800000000692,"midi":82,"time":76.545378,"velocity":0.3937007874015748},{"duration":0.18181800000000692,"midi":70,"time":76.545378,"velocity":0.3937007874015748},{"duration":0.1818179999999927,"midi":55,"time":76.727196,"velocity":0.3937007874015748},{"duration":0.1818179999999927,"midi":74,"time":76.727196,"velocity":0.3937007874015748},{"duration":0.1818179999999927,"midi":67,"time":76.727196,"velocity":0.3937007874015748},{"duration":0.1818179999999927,"midi":62,"time":76.727196,"velocity":0.3937007874015748},{"duration":0.1818179999999927,"midi":79,"time":76.727196,"velocity":0.3937007874015748},{"duration":0.1818179999999927,"midi":86,"time":76.727196,"velocity":0.3937007874015748},{"duration":0.18181800000000692,"midi":82,"time":76.909014,"velocity":0.3937007874015748},{"duration":0.18181800000000692,"midi":70,"time":76.909014,"velocity":0.3937007874015748},{"duration":0.18181800000000692,"midi":58,"time":76.909014,"velocity":0.3937007874015748},{"duration":0.1818179999999927,"midi":57,"time":77.090832,"velocity":0.3937007874015748},{"duration":0.1818179999999927,"midi":69,"time":77.090832,"velocity":0.3937007874015748},{"duration":0.1818179999999927,"midi":81,"time":77.090832,"velocity":0.3937007874015748},{"duration":0.18181800000000692,"midi":82,"time":77.27265,"velocity":0.3937007874015748},{"duration":0.18181800000000692,"midi":70,"time":77.27265,"velocity":0.3937007874015748},{"duration":0.18181800000000692,"midi":58,"time":77.27265,"velocity":0.3937007874015748},{"duration":0.1818179999999927,"midi":67,"time":77.454468,"velocity":0.3937007874015748},{"duration":0.1818179999999927,"midi":55,"time":77.454468,"velocity":0.3937007874015748},{"duration":0.1818179999999927,"midi":62,"time":77.454468,"velocity":0.3937007874015748},{"duration":0.1818179999999927,"midi":86,"time":77.454468,"velocity":0.3937007874015748},{"duration":0.1818179999999927,"midi":74,"time":77.454468,"velocity":0.3937007874015748},{"duration":0.1818179999999927,"midi":79,"time":77.454468,"velocity":0.3937007874015748},{"duration":0.18181800000000692,"midi":82,"time":77.636286,"velocity":0.3937007874015748},{"duration":0.18181800000000692,"midi":70,"time":77.636286,"velocity":0.3937007874015748},{"duration":0.18181800000000692,"midi":58,"time":77.636286,"velocity":0.3937007874015748},{"duration":0.1818179999999927,"midi":81,"time":77.818104,"velocity":0.3937007874015748},{"duration":0.1818179999999927,"midi":69,"time":77.818104,"velocity":0.3937007874015748},{"duration":0.1818179999999927,"midi":57,"time":77.818104,"velocity":0.3937007874015748},{"duration":0.18181800000000692,"midi":58,"time":77.999922,"velocity":0.3937007874015748},{"duration":0.18181800000000692,"midi":82,"time":77.999922,"velocity":0.3937007874015748},{"duration":0.18181800000000692,"midi":70,"time":77.999922,"velocity":0.3937007874015748},{"duration":0.1818179999999927,"midi":86,"time":78.18174,"velocity":0.3937007874015748},{"duration":0.1818179999999927,"midi":55,"time":78.18174,"velocity":0.3937007874015748},{"duration":0.1818179999999927,"midi":67,"time":78.18174,"velocity":0.3937007874015748},{"duration":0.1818179999999927,"midi":79,"time":78.18174,"velocity":0.3937007874015748},{"duration":0.1818179999999927,"midi":62,"time":78.18174,"velocity":0.3937007874015748},{"duration":0.1818179999999927,"midi":74,"time":78.18174,"velocity":0.3937007874015748},{"duration":0.18181800000000692,"midi":70,"time":78.363558,"velocity":0.3937007874015748},{"duration":0.18181800000000692,"midi":58,"time":78.363558,"velocity":0.3937007874015748},{"duration":0.18181800000000692,"midi":82,"time":78.363558,"velocity":0.3937007874015748},{"duration":0.1818179999999927,"midi":53,"time":78.545376,"velocity":0.3937007874015748},{"duration":0.1818179999999927,"midi":77,"time":78.545376,"velocity":0.3937007874015748},{"duration":0.1818179999999927,"midi":65,"time":78.545376,"velocity":0.3937007874015748},{"duration":0.18181800000000692,"midi":81,"time":78.727194,"velocity":0.3937007874015748},{"duration":0.18181800000000692,"midi":69,"time":78.727194,"velocity":0.3937007874015748},{"duration":0.18181800000000692,"midi":57,"time":78.727194,"velocity":0.3937007874015748},{"duration":0.1818179999999927,"midi":53,"time":78.909012,"velocity":0.3937007874015748},{"duration":0.1818179999999927,"midi":60,"time":78.909012,"velocity":0.3937007874015748},{"duration":0.1818179999999927,"midi":65,"time":78.909012,"velocity":0.3937007874015748},{"duration":0.1818179999999927,"midi":84,"time":78.909012,"velocity":0.3937007874015748},{"duration":0.1818179999999927,"midi":72,"time":78.909012,"velocity":0.3937007874015748},{"duration":0.1818179999999927,"midi":77,"time":78.909012,"velocity":0.3937007874015748},{"duration":0.18181800000000692,"midi":81,"time":79.09083,"velocity":0.3937007874015748},{"duration":0.18181800000000692,"midi":69,"time":79.09083,"velocity":0.3937007874015748},{"duration":0.18181800000000692,"midi":57,"time":79.09083,"velocity":0.3937007874015748},{"duration":0.1818179999999927,"midi":77,"time":79.272648,"velocity":0.3937007874015748},{"duration":0.1818179999999927,"midi":53,"time":79.272648,"velocity":0.3937007874015748},{"duration":0.1818179999999927,"midi":65,"time":79.272648,"velocity":0.3937007874015748},{"duration":0.18181800000000692,"midi":69,"time":79.454466,"velocity":0.3937007874015748},{"duration":0.18181800000000692,"midi":81,"time":79.454466,"velocity":0.3937007874015748},{"duration":0.18181800000000692,"midi":57,"time":79.454466,"velocity":0.3937007874015748},{"duration":0.18181800000000692,"midi":60,"time":79.636284,"velocity":0.3937007874015748},{"duration":0.18181800000000692,"midi":72,"time":79.636284,"velocity":0.3937007874015748},{"duration":0.18181800000000692,"midi":84,"time":79.636284,"velocity":0.3937007874015748},{"duration":0.18181800000000692,"midi":53,"time":79.636284,"velocity":0.3937007874015748},{"duration":0.18181800000000692,"midi":77,"time":79.636284,"velocity":0.3937007874015748},{"duration":0.18181800000000692,"midi":65,"time":79.636284,"velocity":0.3937007874015748},{"duration":0.1818179999999927,"midi":81,"time":79.81810200000001,"velocity":0.3937007874015748},{"duration":0.1818179999999927,"midi":57,"time":79.81810200000001,"velocity":0.3937007874015748},{"duration":0.1818179999999927,"midi":69,"time":79.81810200000001,"velocity":0.3937007874015748},{"duration":0.18181800000000692,"midi":67,"time":79.99992,"velocity":0.3937007874015748},{"duration":0.18181800000000692,"midi":55,"time":79.99992,"velocity":0.3937007874015748},{"duration":0.18181800000000692,"midi":79,"time":79.99992,"velocity":0.3937007874015748},{"duration":0.1818179999999927,"midi":82,"time":80.18173800000001,"velocity":0.3937007874015748},{"duration":0.1818179999999927,"midi":58,"time":80.18173800000001,"velocity":0.3937007874015748},{"duration":0.1818179999999927,"midi":70,"time":80.18173800000001,"velocity":0.3937007874015748},{"duration":0.18181800000000692,"midi":74,"time":80.363556,"velocity":0.3937007874015748},{"duration":0.18181800000000692,"midi":55,"time":80.363556,"velocity":0.3937007874015748},{"duration":0.18181800000000692,"midi":86,"time":80.363556,"velocity":0.3937007874015748},{"duration":0.18181800000000692,"midi":79,"time":80.363556,"velocity":0.3937007874015748},{"duration":0.18181800000000692,"midi":67,"time":80.363556,"velocity":0.3937007874015748},{"duration":0.18181800000000692,"midi":62,"time":80.363556,"velocity":0.3937007874015748},{"duration":0.1818179999999927,"midi":58,"time":80.54537400000001,"velocity":0.3937007874015748},{"duration":0.1818179999999927,"midi":70,"time":80.54537400000001,"velocity":0.3937007874015748},{"duration":0.1818179999999927,"midi":82,"time":80.54537400000001,"velocity":0.3937007874015748},{"duration":0.18181800000000692,"midi":55,"time":80.727192,"velocity":0.3937007874015748},{"duration":0.18181800000000692,"midi":67,"time":80.727192,"velocity":0.3937007874015748},{"duration":0.18181800000000692,"midi":79,"time":80.727192,"velocity":0.3937007874015748},{"duration":0.1818179999999927,"midi":82,"time":80.90901000000001,"velocity":0.3937007874015748},{"duration":0.1818179999999927,"midi":58,"time":80.90901000000001,"velocity":0.3937007874015748},{"duration":0.1818179999999927,"midi":70,"time":80.90901000000001,"velocity":0.3937007874015748},{"duration":0.18181800000000692,"midi":62,"time":81.090828,"velocity":0.3937007874015748},{"duration":0.18181800000000692,"midi":79,"time":81.090828,"velocity":0.3937007874015748},{"duration":0.18181800000000692,"midi":74,"time":81.090828,"velocity":0.3937007874015748},{"duration":0.18181800000000692,"midi":55,"time":81.090828,"velocity":0.3937007874015748},{"duration":0.18181800000000692,"midi":86,"time":81.090828,"velocity":0.3937007874015748},{"duration":0.18181800000000692,"midi":67,"time":81.090828,"velocity":0.3937007874015748},{"duration":0.1818179999999927,"midi":70,"time":81.27264600000001,"velocity":0.3937007874015748},{"duration":0.1818179999999927,"midi":58,"time":81.27264600000001,"velocity":0.3937007874015748},{"duration":0.1818179999999927,"midi":82,"time":81.27264600000001,"velocity":0.3937007874015748},{"duration":0.18181800000000692,"midi":57,"time":81.454464,"velocity":0.3937007874015748},{"duration":0.18181800000000692,"midi":69,"time":81.454464,"velocity":0.3937007874015748},{"duration":0.18181800000000692,"midi":81,"time":81.454464,"velocity":0.3937007874015748},{"duration":0.1818179999999927,"midi":58,"time":81.63628200000001,"velocity":0.3937007874015748},{"duration":0.1818179999999927,"midi":82,"time":81.63628200000001,"velocity":0.3937007874015748},{"duration":0.1818179999999927,"midi":70,"time":81.63628200000001,"velocity":0.3937007874015748},{"duration":0.18181800000000692,"midi":67,"time":81.8181,"velocity":0.3937007874015748},{"duration":0.18181800000000692,"midi":55,"time":81.8181,"velocity":0.3937007874015748},{"duration":0.18181800000000692,"midi":79,"time":81.8181,"velocity":0.3937007874015748},{"duration":0.18181800000000692,"midi":74,"time":81.8181,"velocity":0.3937007874015748},{"duration":0.18181800000000692,"midi":62,"time":81.8181,"velocity":0.3937007874015748},{"duration":0.18181800000000692,"midi":86,"time":81.8181,"velocity":0.3937007874015748},{"duration":0.1818179999999927,"midi":82,"time":81.99991800000001,"velocity":0.3937007874015748},{"duration":0.1818179999999927,"midi":70,"time":81.99991800000001,"velocity":0.3937007874015748},{"duration":0.1818179999999927,"midi":58,"time":81.99991800000001,"velocity":0.3937007874015748},{"duration":0.18181800000000692,"midi":57,"time":82.181736,"velocity":0.3937007874015748},{"duration":0.18181800000000692,"midi":81,"time":82.181736,"velocity":0.3937007874015748},{"duration":0.18181800000000692,"midi":69,"time":82.181736,"velocity":0.3937007874015748},{"duration":0.1818179999999927,"midi":82,"time":82.36355400000001,"velocity":0.3937007874015748},{"duration":0.1818179999999927,"midi":70,"time":82.36355400000001,"velocity":0.3937007874015748},{"duration":0.1818179999999927,"midi":58,"time":82.36355400000001,"velocity":0.3937007874015748},{"duration":0.18181800000000692,"midi":62,"time":82.545372,"velocity":0.3937007874015748},{"duration":0.18181800000000692,"midi":79,"time":82.545372,"velocity":0.3937007874015748},{"duration":0.18181800000000692,"midi":67,"time":82.545372,"velocity":0.3937007874015748},{"duration":0.18181800000000692,"midi":55,"time":82.545372,"velocity":0.3937007874015748},{"duration":0.18181800000000692,"midi":74,"time":82.545372,"velocity":0.3937007874015748},{"duration":0.18181800000000692,"midi":86,"time":82.545372,"velocity":0.3937007874015748},{"duration":0.1818179999999927,"midi":82,"time":82.72719000000001,"velocity":0.3937007874015748},{"duration":0.1818179999999927,"midi":58,"time":82.72719000000001,"velocity":0.3937007874015748},{"duration":0.1818179999999927,"midi":70,"time":82.72719000000001,"velocity":0.3937007874015748},{"duration":0.18181800000000692,"midi":81,"time":82.909008,"velocity":0.3937007874015748},{"duration":0.18181800000000692,"midi":57,"time":82.909008,"velocity":0.3937007874015748},{"duration":0.18181800000000692,"midi":69,"time":82.909008,"velocity":0.3937007874015748},{"duration":0.1818179999999927,"midi":58,"time":83.090826,"velocity":0.3937007874015748},{"duration":0.1818179999999927,"midi":82,"time":83.090826,"velocity":0.3937007874015748},{"duration":0.1818179999999927,"midi":70,"time":83.090826,"velocity":0.3937007874015748},{"duration":0.18181800000000692,"midi":62,"time":83.272644,"velocity":0.3937007874015748},{"duration":0.18181800000000692,"midi":86,"time":83.272644,"velocity":0.3937007874015748},{"duration":0.18181800000000692,"midi":55,"time":83.272644,"velocity":0.3937007874015748},{"duration":0.18181800000000692,"midi":67,"time":83.272644,"velocity":0.3937007874015748},{"duration":0.18181800000000692,"midi":79,"time":83.272644,"velocity":0.3937007874015748},{"duration":0.18181800000000692,"midi":74,"time":83.272644,"velocity":0.3937007874015748},{"duration":0.1818179999999927,"midi":82,"time":83.454462,"velocity":0.3937007874015748},{"duration":0.1818179999999927,"midi":70,"time":83.454462,"velocity":0.3937007874015748},{"duration":0.1818179999999927,"midi":58,"time":83.454462,"velocity":0.3937007874015748},{"duration":0.18181800000000692,"midi":81,"time":83.63628,"velocity":0.3937007874015748},{"duration":0.18181800000000692,"midi":69,"time":83.63628,"velocity":0.3937007874015748},{"duration":0.18181800000000692,"midi":57,"time":83.63628,"velocity":0.3937007874015748},{"duration":0.1818179999999927,"midi":58,"time":83.818098,"velocity":0.3937007874015748},{"duration":0.1818179999999927,"midi":70,"time":83.818098,"velocity":0.3937007874015748},{"duration":0.1818179999999927,"midi":82,"time":83.818098,"velocity":0.3937007874015748},{"duration":0.18181800000000692,"midi":67,"time":83.999916,"velocity":0.3937007874015748},{"duration":0.18181800000000692,"midi":55,"time":83.999916,"velocity":0.3937007874015748},{"duration":0.18181800000000692,"midi":86,"time":83.999916,"velocity":0.3937007874015748},{"duration":0.18181800000000692,"midi":79,"time":83.999916,"velocity":0.3937007874015748},{"duration":0.18181800000000692,"midi":62,"time":83.999916,"velocity":0.3937007874015748},{"duration":0.18181800000000692,"midi":74,"time":83.999916,"velocity":0.3937007874015748},{"duration":0.1818179999999927,"midi":82,"time":84.181734,"velocity":0.3937007874015748},{"duration":0.1818179999999927,"midi":70,"time":84.181734,"velocity":0.3937007874015748},{"duration":0.1818179999999927,"midi":58,"time":84.181734,"velocity":0.3937007874015748},{"duration":0.18181800000000692,"midi":77,"time":84.363552,"velocity":0.3937007874015748},{"duration":0.18181800000000692,"midi":53,"time":84.363552,"velocity":0.3937007874015748},{"duration":0.18181800000000692,"midi":65,"time":84.363552,"velocity":0.3937007874015748},{"duration":0.1818179999999927,"midi":69,"time":84.54537,"velocity":0.3937007874015748},{"duration":0.1818179999999927,"midi":81,"time":84.54537,"velocity":0.3937007874015748},{"duration":0.1818179999999927,"midi":57,"time":84.54537,"velocity":0.3937007874015748},{"duration":0.18181800000000692,"midi":65,"time":84.727188,"velocity":0.3937007874015748},{"duration":0.18181800000000692,"midi":84,"time":84.727188,"velocity":0.3937007874015748},{"duration":0.18181800000000692,"midi":53,"time":84.727188,"velocity":0.3937007874015748},{"duration":0.18181800000000692,"midi":60,"time":84.727188,"velocity":0.3937007874015748},{"duration":0.18181800000000692,"midi":72,"time":84.727188,"velocity":0.3937007874015748},{"duration":0.18181800000000692,"midi":77,"time":84.727188,"velocity":0.3937007874015748},{"duration":0.1818179999999927,"midi":57,"time":84.909006,"velocity":0.3937007874015748},{"duration":0.1818179999999927,"midi":69,"time":84.909006,"velocity":0.3937007874015748},{"duration":0.1818179999999927,"midi":81,"time":84.909006,"velocity":0.3937007874015748},{"duration":0.18181800000000692,"midi":77,"time":85.090824,"velocity":0.3937007874015748},{"duration":0.18181800000000692,"midi":65,"time":85.090824,"velocity":0.3937007874015748},{"duration":0.18181800000000692,"midi":53,"time":85.090824,"velocity":0.3937007874015748},{"duration":0.1818179999999927,"midi":81,"time":85.272642,"velocity":0.3937007874015748},{"duration":0.1818179999999927,"midi":57,"time":85.272642,"velocity":0.3937007874015748},{"duration":0.1818179999999927,"midi":69,"time":85.272642,"velocity":0.3937007874015748},{"duration":0.18181800000000692,"midi":77,"time":85.45446,"velocity":0.3937007874015748},{"duration":0.18181800000000692,"midi":60,"time":85.45446,"velocity":0.3937007874015748},{"duration":0.18181800000000692,"midi":84,"time":85.45446,"velocity":0.3937007874015748},{"duration":0.18181800000000692,"midi":72,"time":85.45446,"velocity":0.3937007874015748},{"duration":0.18181800000000692,"midi":53,"time":85.45446,"velocity":0.3937007874015748},{"duration":0.18181800000000692,"midi":65,"time":85.45446,"velocity":0.3937007874015748},{"duration":0.1818179999999927,"midi":57,"time":85.636278,"velocity":0.3937007874015748},{"duration":0.1818179999999927,"midi":69,"time":85.636278,"velocity":0.3937007874015748},{"duration":0.1818179999999927,"midi":81,"time":85.636278,"velocity":0.3937007874015748},{"duration":0.18181800000000692,"midi":79,"time":85.818096,"velocity":0.3937007874015748},{"duration":0.18181800000000692,"midi":55,"time":85.818096,"velocity":0.3937007874015748},{"duration":0.18181800000000692,"midi":67,"time":85.818096,"velocity":0.3937007874015748},{"duration":0.1818179999999927,"midi":58,"time":85.999914,"velocity":0.3937007874015748},{"duration":0.1818179999999927,"midi":82,"time":85.999914,"velocity":0.3937007874015748},{"duration":0.1818179999999927,"midi":70,"time":85.999914,"velocity":0.3937007874015748},{"duration":0.18181800000000692,"midi":74,"time":86.181732,"velocity":0.3937007874015748},{"duration":0.18181800000000692,"midi":79,"time":86.181732,"velocity":0.3937007874015748},{"duration":0.18181800000000692,"midi":62,"time":86.181732,"velocity":0.3937007874015748},{"duration":0.18181800000000692,"midi":74,"time":86.181732,"velocity":0.3937007874015748},{"duration":0.18181800000000692,"midi":67,"time":86.181732,"velocity":0.3937007874015748},{"duration":0.18181800000000692,"midi":86,"time":86.181732,"velocity":0.3937007874015748},{"duration":0.18181800000000692,"midi":55,"time":86.181732,"velocity":0.3937007874015748},{"duration":0.18181800000000692,"midi":58,"time":86.36355,"velocity":0.3937007874015748},{"duration":0.18181800000000692,"midi":82,"time":86.36355,"velocity":0.3937007874015748},{"duration":0.18181800000000692,"midi":70,"time":86.36355,"velocity":0.3937007874015748},{"duration":0.1818179999999927,"midi":67,"time":86.54536800000001,"velocity":0.3937007874015748},{"duration":0.1818179999999927,"midi":79,"time":86.54536800000001,"velocity":0.3937007874015748},{"duration":0.1818179999999927,"midi":55,"time":86.54536800000001,"velocity":0.3937007874015748},{"duration":0.18181800000000692,"midi":82,"time":86.727186,"velocity":0.3937007874015748},{"duration":0.18181800000000692,"midi":58,"time":86.727186,"velocity":0.3937007874015748},{"duration":0.18181800000000692,"midi":70,"time":86.727186,"velocity":0.3937007874015748},{"duration":0.1818179999999927,"midi":67,"time":86.90900400000001,"velocity":0.3937007874015748},{"duration":0.1818179999999927,"midi":55,"time":86.90900400000001,"velocity":0.3937007874015748},{"duration":0.1818179999999927,"midi":79,"time":86.90900400000001,"velocity":0.3937007874015748},{"duration":0.1818179999999927,"midi":62,"time":86.90900400000001,"velocity":0.3937007874015748},{"duration":0.1818179999999927,"midi":86,"time":86.90900400000001,"velocity":0.3937007874015748},{"duration":0.1818179999999927,"midi":74,"time":86.90900400000001,"velocity":0.3937007874015748},{"duration":0.1818179999999927,"midi":74,"time":86.90900400000001,"velocity":0.3937007874015748},{"duration":0.18181800000000692,"midi":82,"time":87.090822,"velocity":0.3937007874015748},{"duration":0.18181800000000692,"midi":58,"time":87.090822,"velocity":0.3937007874015748},{"duration":0.18181800000000692,"midi":70,"time":87.090822,"velocity":0.3937007874015748},{"duration":0.1818179999999927,"midi":81,"time":87.27264000000001,"velocity":0.3937007874015748},{"duration":0.1818179999999927,"midi":57,"time":87.27264000000001,"velocity":0.3937007874015748},{"duration":0.1818179999999927,"midi":69,"time":87.27264000000001,"velocity":0.3937007874015748},{"duration":0.18181800000000692,"midi":58,"time":87.454458,"velocity":0.3937007874015748},{"duration":0.18181800000000692,"midi":70,"time":87.454458,"velocity":0.3937007874015748},{"duration":0.18181800000000692,"midi":82,"time":87.454458,"velocity":0.3937007874015748},{"duration":0.1818179999999927,"midi":74,"time":87.63627600000001,"velocity":0.3937007874015748},{"duration":0.1818179999999927,"midi":79,"time":87.63627600000001,"velocity":0.3937007874015748},{"duration":0.1818179999999927,"midi":86,"time":87.63627600000001,"velocity":0.3937007874015748},{"duration":0.1818179999999927,"midi":62,"time":87.63627600000001,"velocity":0.3937007874015748},{"duration":0.1818179999999927,"midi":67,"time":87.63627600000001,"velocity":0.3937007874015748},{"duration":0.1818179999999927,"midi":55,"time":87.63627600000001,"velocity":0.3937007874015748},{"duration":0.18181800000000692,"midi":82,"time":87.818094,"velocity":0.3937007874015748},{"duration":0.18181800000000692,"midi":58,"time":87.818094,"velocity":0.3937007874015748},{"duration":0.18181800000000692,"midi":70,"time":87.818094,"velocity":0.3937007874015748},{"duration":0.1818179999999927,"midi":69,"time":87.99991200000001,"velocity":0.3937007874015748},{"duration":0.1818179999999927,"midi":81,"time":87.99991200000001,"velocity":0.3937007874015748},{"duration":0.1818179999999927,"midi":57,"time":87.99991200000001,"velocity":0.3937007874015748},{"duration":0.18181800000000692,"midi":70,"time":88.18173,"velocity":0.3937007874015748},{"duration":0.18181800000000692,"midi":58,"time":88.18173,"velocity":0.3937007874015748},{"duration":0.18181800000000692,"midi":82,"time":88.18173,"velocity":0.3937007874015748},{"duration":0.1818179999999927,"midi":55,"time":88.36354800000001,"velocity":0.3937007874015748},{"duration":0.1818179999999927,"midi":62,"time":88.36354800000001,"velocity":0.3937007874015748},{"duration":0.1818179999999927,"midi":79,"time":88.36354800000001,"velocity":0.3937007874015748},{"duration":0.1818179999999927,"midi":74,"time":88.36354800000001,"velocity":0.3937007874015748},{"duration":0.1818179999999927,"midi":67,"time":88.36354800000001,"velocity":0.3937007874015748},{"duration":0.1818179999999927,"midi":86,"time":88.36354800000001,"velocity":0.3937007874015748},{"duration":0.18181800000000692,"midi":58,"time":88.545366,"velocity":0.3937007874015748},{"duration":0.18181800000000692,"midi":82,"time":88.545366,"velocity":0.3937007874015748},{"duration":0.18181800000000692,"midi":70,"time":88.545366,"velocity":0.3937007874015748},{"duration":0.1818179999999927,"midi":69,"time":88.72718400000001,"velocity":0.3937007874015748},{"duration":0.1818179999999927,"midi":57,"time":88.72718400000001,"velocity":0.3937007874015748},{"duration":0.1818179999999927,"midi":81,"time":88.72718400000001,"velocity":0.3937007874015748},{"duration":0.18181800000000692,"midi":70,"time":88.909002,"velocity":0.3937007874015748},{"duration":0.18181800000000692,"midi":82,"time":88.909002,"velocity":0.3937007874015748},{"duration":0.18181800000000692,"midi":58,"time":88.909002,"velocity":0.3937007874015748},{"duration":0.1818179999999927,"midi":67,"time":89.09082000000001,"velocity":0.3937007874015748},{"duration":0.1818179999999927,"midi":62,"time":89.09082000000001,"velocity":0.3937007874015748},{"duration":0.1818179999999927,"midi":79,"time":89.09082000000001,"velocity":0.3937007874015748},{"duration":0.1818179999999927,"midi":74,"time":89.09082000000001,"velocity":0.3937007874015748},{"duration":0.1818179999999927,"midi":55,"time":89.09082000000001,"velocity":0.3937007874015748},{"duration":0.1818179999999927,"midi":86,"time":89.09082000000001,"velocity":0.3937007874015748},{"duration":0.18181800000000692,"midi":82,"time":89.272638,"velocity":0.3937007874015748},{"duration":0.18181800000000692,"midi":70,"time":89.272638,"velocity":0.3937007874015748},{"duration":0.18181800000000692,"midi":58,"time":89.272638,"velocity":0.3937007874015748},{"duration":0.1818179999999927,"midi":69,"time":89.45445600000001,"velocity":0.3937007874015748},{"duration":0.1818179999999927,"midi":81,"time":89.45445600000001,"velocity":0.3937007874015748},{"duration":0.1818179999999927,"midi":57,"time":89.45445600000001,"velocity":0.3937007874015748},{"duration":0.18181800000000692,"midi":82,"time":89.636274,"velocity":0.3937007874015748},{"duration":0.18181800000000692,"midi":58,"time":89.636274,"velocity":0.3937007874015748},{"duration":0.18181800000000692,"midi":70,"time":89.636274,"velocity":0.3937007874015748},{"duration":0.1818179999999927,"midi":55,"time":89.81809200000001,"velocity":0.3937007874015748},{"duration":0.1818179999999927,"midi":67,"time":89.81809200000001,"velocity":0.3937007874015748},{"duration":0.1818179999999927,"midi":79,"time":89.81809200000001,"velocity":0.3937007874015748},{"duration":0.1818179999999927,"midi":62,"time":89.81809200000001,"velocity":0.3937007874015748},{"duration":0.1818179999999927,"midi":74,"time":89.81809200000001,"velocity":0.3937007874015748},{"duration":0.1818179999999927,"midi":86,"time":89.81809200000001,"velocity":0.3937007874015748},{"duration":0.18181800000000692,"midi":58,"time":89.99991,"velocity":0.3937007874015748},{"duration":0.18181800000000692,"midi":70,"time":89.99991,"velocity":0.3937007874015748},{"duration":0.18181800000000692,"midi":82,"time":89.99991,"velocity":0.3937007874015748},{"duration":0.1818179999999927,"midi":77,"time":90.181728,"velocity":0.3937007874015748},{"duration":0.1818179999999927,"midi":65,"time":90.181728,"velocity":0.3937007874015748},{"duration":0.1818179999999927,"midi":53,"time":90.181728,"velocity":0.3937007874015748},{"duration":0.18181800000000692,"midi":57,"time":90.363546,"velocity":0.3937007874015748},{"duration":0.18181800000000692,"midi":81,"time":90.363546,"velocity":0.3937007874015748},{"duration":0.18181800000000692,"midi":69,"time":90.363546,"velocity":0.3937007874015748},{"duration":0.1818179999999927,"midi":72,"time":90.545364,"velocity":0.3937007874015748},{"duration":0.1818179999999927,"midi":53,"time":90.545364,"velocity":0.3937007874015748},{"duration":0.1818179999999927,"midi":77,"time":90.545364,"velocity":0.3937007874015748},{"duration":0.1818179999999927,"midi":60,"time":90.545364,"velocity":0.3937007874015748},{"duration":0.1818179999999927,"midi":65,"time":90.545364,"velocity":0.3937007874015748},{"duration":0.1818179999999927,"midi":84,"time":90.545364,"velocity":0.3937007874015748},{"duration":0.18181800000000692,"midi":69,"time":90.727182,"velocity":0.3937007874015748},{"duration":0.18181800000000692,"midi":81,"time":90.727182,"velocity":0.3937007874015748},{"duration":0.18181800000000692,"midi":57,"time":90.727182,"velocity":0.3937007874015748},{"duration":0.1818179999999927,"midi":53,"time":90.909,"velocity":0.3937007874015748},{"duration":0.1818179999999927,"midi":65,"time":90.909,"velocity":0.3937007874015748},{"duration":0.1818179999999927,"midi":77,"time":90.909,"velocity":0.3937007874015748},{"duration":0.18181800000000692,"midi":57,"time":91.090818,"velocity":0.3937007874015748},{"duration":0.18181800000000692,"midi":69,"time":91.090818,"velocity":0.3937007874015748},{"duration":0.18181800000000692,"midi":81,"time":91.090818,"velocity":0.3937007874015748},{"duration":0.1818179999999927,"midi":72,"time":91.272636,"velocity":0.3937007874015748},{"duration":0.1818179999999927,"midi":60,"time":91.272636,"velocity":0.3937007874015748},{"duration":0.1818179999999927,"midi":65,"time":91.272636,"velocity":0.3937007874015748},{"duration":0.1818179999999927,"midi":84,"time":91.272636,"velocity":0.3937007874015748},{"duration":0.1818179999999927,"midi":53,"time":91.272636,"velocity":0.3937007874015748},{"duration":0.1818179999999927,"midi":77,"time":91.272636,"velocity":0.3937007874015748},{"duration":0.18181800000000692,"midi":81,"time":91.454454,"velocity":0.3937007874015748},{"duration":0.18181800000000692,"midi":69,"time":91.454454,"velocity":0.3937007874015748},{"duration":0.18181800000000692,"midi":57,"time":91.454454,"velocity":0.3937007874015748},{"duration":0.1818179999999927,"midi":55,"time":91.636272,"velocity":0.3937007874015748},{"duration":0.1818179999999927,"midi":67,"time":91.636272,"velocity":0.3937007874015748},{"duration":0.1818179999999927,"midi":79,"time":91.636272,"velocity":0.3937007874015748},{"duration":0.18181800000000692,"midi":82,"time":91.81809,"velocity":0.3937007874015748},{"duration":0.18181800000000692,"midi":70,"time":91.81809,"velocity":0.3937007874015748},{"duration":0.18181800000000692,"midi":58,"time":91.81809,"velocity":0.3937007874015748},{"duration":0.1818179999999927,"midi":86,"time":91.999908,"velocity":0.3937007874015748},{"duration":0.1818179999999927,"midi":74,"time":91.999908,"velocity":0.3937007874015748},{"duration":0.1818179999999927,"midi":62,"time":91.999908,"velocity":0.3937007874015748},{"duration":0.1818179999999927,"midi":55,"time":91.999908,"velocity":0.3937007874015748},{"duration":0.1818179999999927,"midi":67,"time":91.999908,"velocity":0.3937007874015748},{"duration":0.1818179999999927,"midi":79,"time":91.999908,"velocity":0.3937007874015748},{"duration":0.18181800000000692,"midi":58,"time":92.181726,"velocity":0.3937007874015748},{"duration":0.18181800000000692,"midi":70,"time":92.181726,"velocity":0.3937007874015748},{"duration":0.18181800000000692,"midi":82,"time":92.181726,"velocity":0.3937007874015748},{"duration":0.1818179999999927,"midi":67,"time":92.363544,"velocity":0.3937007874015748},{"duration":0.1818179999999927,"midi":55,"time":92.363544,"velocity":0.3937007874015748},{"duration":0.1818179999999927,"midi":79,"time":92.363544,"velocity":0.3937007874015748},{"duration":0.18181800000000692,"midi":82,"time":92.545362,"velocity":0.3937007874015748},{"duration":0.18181800000000692,"midi":58,"time":92.545362,"velocity":0.3937007874015748},{"duration":0.18181800000000692,"midi":70,"time":92.545362,"velocity":0.3937007874015748},{"duration":0.1818179999999927,"midi":79,"time":92.72718,"velocity":0.3937007874015748},{"duration":0.1818179999999927,"midi":67,"time":92.72718,"velocity":0.3937007874015748},{"duration":0.1818179999999927,"midi":55,"time":92.72718,"velocity":0.3937007874015748},{"duration":0.1818179999999927,"midi":62,"time":92.72718,"velocity":0.3937007874015748},{"duration":0.1818179999999927,"midi":86,"time":92.72718,"velocity":0.3937007874015748},{"duration":0.1818179999999927,"midi":74,"time":92.72718,"velocity":0.3937007874015748},{"duration":0.18181800000000692,"midi":82,"time":92.908998,"velocity":0.3937007874015748},{"duration":0.18181800000000692,"midi":70,"time":92.908998,"velocity":0.3937007874015748},{"duration":0.18181800000000692,"midi":58,"time":92.908998,"velocity":0.3937007874015748},{"duration":0.18181800000000692,"midi":81,"time":93.090816,"velocity":0.3937007874015748},{"duration":0.18181800000000692,"midi":86,"time":93.454452,"velocity":0.3937007874015748},{"duration":0.18181800000000692,"midi":79,"time":93.454452,"velocity":0.3937007874015748},{"duration":0.18181800000000692,"midi":81,"time":93.818088,"velocity":0.3937007874015748},{"duration":0.18181800000000692,"midi":86,"time":94.181724,"velocity":0.3937007874015748},{"duration":0.18181800000000692,"midi":79,"time":94.181724,"velocity":0.3937007874015748},{"duration":0.18181800000000692,"midi":81,"time":94.54536,"velocity":0.3937007874015748},{"duration":0.18181800000000692,"midi":79,"time":94.908996,"velocity":0.3937007874015748},{"duration":0.18181800000000692,"midi":86,"time":94.908996,"velocity":0.3937007874015748},{"duration":0.18181800000000692,"midi":81,"time":95.272632,"velocity":0.3937007874015748},{"duration":0.18181800000000692,"midi":79,"time":95.636268,"velocity":0.3937007874015748},{"duration":0.18181800000000692,"midi":86,"time":95.636268,"velocity":0.3937007874015748},{"duration":0.18181800000000692,"midi":77,"time":95.999904,"velocity":0.3937007874015748},{"duration":0.18181800000000692,"midi":84,"time":96.36354,"velocity":0.3937007874015748},{"duration":0.18181800000000692,"midi":77,"time":96.36354,"velocity":0.3937007874015748},{"duration":0.18181800000000692,"midi":77,"time":96.727176,"velocity":0.3937007874015748},{"duration":0.18181800000000692,"midi":84,"time":97.090812,"velocity":0.3937007874015748},{"duration":0.18181800000000692,"midi":77,"time":97.090812,"velocity":0.3937007874015748},{"duration":0.18181800000000692,"midi":79,"time":97.454448,"velocity":0.3937007874015748},{"duration":0.18181800000000692,"midi":86,"time":97.818084,"velocity":0.3937007874015748},{"duration":0.18181800000000692,"midi":79,"time":97.818084,"velocity":0.3937007874015748},{"duration":0.18181800000000692,"midi":79,"time":98.18172,"velocity":0.3937007874015748},{"duration":0.18181800000000692,"midi":86,"time":98.545356,"velocity":0.3937007874015748},{"duration":0.18181800000000692,"midi":79,"time":98.545356,"velocity":0.3937007874015748},{"duration":0.18181800000000692,"midi":81,"time":98.908992,"velocity":0.3937007874015748},{"duration":0.18181800000000692,"midi":86,"time":99.272628,"velocity":0.3937007874015748},{"duration":0.18181800000000692,"midi":79,"time":99.272628,"velocity":0.3937007874015748},{"duration":0.18181800000000692,"midi":81,"time":99.636264,"velocity":0.3937007874015748},{"duration":0.1818179999999927,"midi":79,"time":99.99990000000001,"velocity":0.3937007874015748},{"duration":0.1818179999999927,"midi":86,"time":99.99990000000001,"velocity":0.3937007874015748},{"duration":0.1818179999999927,"midi":81,"time":100.36353600000001,"velocity":0.3937007874015748},{"duration":0.1818179999999927,"midi":79,"time":100.72717200000001,"velocity":0.3937007874015748},{"duration":0.1818179999999927,"midi":86,"time":100.72717200000001,"velocity":0.3937007874015748},{"duration":0.1818179999999927,"midi":81,"time":101.09080800000001,"velocity":0.3937007874015748},{"duration":0.1818179999999927,"midi":79,"time":101.45444400000001,"velocity":0.3937007874015748},{"duration":0.1818179999999927,"midi":86,"time":101.45444400000001,"velocity":0.3937007874015748},{"duration":0.1818179999999927,"midi":77,"time":101.81808000000001,"velocity":0.3937007874015748},{"duration":0.1818179999999927,"midi":77,"time":102.18171600000001,"velocity":0.3937007874015748},{"duration":0.1818179999999927,"midi":84,"time":102.18171600000001,"velocity":0.3937007874015748},{"duration":0.1818179999999927,"midi":77,"time":102.54535200000001,"velocity":0.3937007874015748},{"duration":0.1818179999999927,"midi":77,"time":102.90898800000001,"velocity":0.3937007874015748},{"duration":0.1818179999999927,"midi":84,"time":102.90898800000001,"velocity":0.3937007874015748},{"duration":0.1818179999999927,"midi":79,"time":103.27262400000001,"velocity":0.3937007874015748},{"duration":0.1818179999999927,"midi":86,"time":103.63626000000001,"velocity":0.3937007874015748},{"duration":0.1818179999999927,"midi":79,"time":103.63626000000001,"velocity":0.3937007874015748},{"duration":0.1818179999999927,"midi":79,"time":103.999896,"velocity":0.3937007874015748},{"duration":0.1818179999999927,"midi":79,"time":104.363532,"velocity":0.3937007874015748},{"duration":0.1818179999999927,"midi":86,"time":104.363532,"velocity":0.3937007874015748},{"duration":0.1818179999999927,"midi":81,"time":162.908928,"velocity":0.3937007874015748},{"duration":0.18181800000002113,"midi":82,"time":163.090746,"velocity":0.3937007874015748},{"duration":0.1818179999999927,"midi":86,"time":163.27256400000002,"velocity":0.3937007874015748},{"duration":0.1818179999999927,"midi":79,"time":163.27256400000002,"velocity":0.3937007874015748},{"duration":0.1818179999999927,"midi":82,"time":163.454382,"velocity":0.3937007874015748},{"duration":0.1818179999999927,"midi":81,"time":163.6362,"velocity":0.3937007874015748},{"duration":0.18181800000002113,"midi":82,"time":163.818018,"velocity":0.3937007874015748},{"duration":0.1818179999999927,"midi":86,"time":163.99983600000002,"velocity":0.3937007874015748},{"duration":0.1818179999999927,"midi":79,"time":163.99983600000002,"velocity":0.3937007874015748},{"duration":0.1818179999999927,"midi":82,"time":164.181654,"velocity":0.3937007874015748},{"duration":0.1818179999999927,"midi":81,"time":164.363472,"velocity":0.3937007874015748},{"duration":0.18181800000002113,"midi":82,"time":164.54529,"velocity":0.3937007874015748},{"duration":0.1818179999999927,"midi":86,"time":164.72710800000002,"velocity":0.3937007874015748},{"duration":0.1818179999999927,"midi":79,"time":164.72710800000002,"velocity":0.3937007874015748},{"duration":0.1818179999999927,"midi":82,"time":164.908926,"velocity":0.3937007874015748},{"duration":0.1818179999999927,"midi":81,"time":165.090744,"velocity":0.3937007874015748},{"duration":0.18181800000002113,"midi":82,"time":165.272562,"velocity":0.3937007874015748},{"duration":0.1818179999999927,"midi":79,"time":165.45438000000001,"velocity":0.3937007874015748},{"duration":0.1818179999999927,"midi":86,"time":165.45438000000001,"velocity":0.3937007874015748},{"duration":0.1818179999999927,"midi":82,"time":165.636198,"velocity":0.3937007874015748},{"duration":0.1818179999999927,"midi":79,"time":165.818016,"velocity":0.3937007874015748},{"duration":0.18181800000002113,"midi":81,"time":165.999834,"velocity":0.3937007874015748},{"duration":0.1818179999999927,"midi":77,"time":166.181652,"velocity":0.3937007874015748},{"duration":0.1818179999999927,"midi":84,"time":166.181652,"velocity":0.3937007874015748},{"duration":0.1818179999999927,"midi":81,"time":166.36347,"velocity":0.3937007874015748},{"duration":0.18181800000002113,"midi":79,"time":166.545288,"velocity":0.3937007874015748},{"duration":0.1818179999999927,"midi":81,"time":166.72710600000002,"velocity":0.3937007874015748},{"duration":0.1818179999999927,"midi":77,"time":166.908924,"velocity":0.3937007874015748},{"duration":0.1818179999999927,"midi":84,"time":166.908924,"velocity":0.3937007874015748},{"duration":0.1818179999999927,"midi":81,"time":167.090742,"velocity":0.3937007874015748},{"duration":0.18181800000002113,"midi":79,"time":167.27256,"velocity":0.3937007874015748},{"duration":0.1818179999999927,"midi":82,"time":167.45437800000002,"velocity":0.3937007874015748},{"duration":0.1818179999999927,"midi":86,"time":167.636196,"velocity":0.3937007874015748},{"duration":0.1818179999999927,"midi":79,"time":167.636196,"velocity":0.3937007874015748},{"duration":0.1818179999999927,"midi":82,"time":167.818014,"velocity":0.3937007874015748},{"duration":0.18181800000002113,"midi":79,"time":167.999832,"velocity":0.3937007874015748},{"duration":0.1818179999999927,"midi":82,"time":168.18165000000002,"velocity":0.3937007874015748},{"duration":0.1818179999999927,"midi":79,"time":168.363468,"velocity":0.3937007874015748},{"duration":0.1818179999999927,"midi":86,"time":168.363468,"velocity":0.3937007874015748},{"duration":0.1818179999999927,"midi":82,"time":168.545286,"velocity":0.3937007874015748},{"duration":0.18181800000002113,"midi":81,"time":168.727104,"velocity":0.3937007874015748},{"duration":0.1818179999999927,"midi":82,"time":168.90892200000002,"velocity":0.3937007874015748},{"duration":0.1818179999999927,"midi":79,"time":169.09074,"velocity":0.3937007874015748},{"duration":0.1818179999999927,"midi":86,"time":169.09074,"velocity":0.3937007874015748},{"duration":0.1818179999999927,"midi":82,"time":169.272558,"velocity":0.3937007874015748},{"duration":0.18181800000002113,"midi":81,"time":169.454376,"velocity":0.3937007874015748},{"duration":0.1818179999999927,"midi":82,"time":169.63619400000002,"velocity":0.3937007874015748},{"duration":0.1818179999999927,"midi":86,"time":169.818012,"velocity":0.3937007874015748},{"duration":0.1818179999999927,"midi":79,"time":169.818012,"velocity":0.3937007874015748},{"duration":0.1818179999999927,"midi":82,"time":169.99983,"velocity":0.3937007874015748},{"duration":0.18181800000002113,"midi":81,"time":170.181648,"velocity":0.3937007874015748},{"duration":0.1818179999999927,"midi":82,"time":170.36346600000002,"velocity":0.3937007874015748},{"duration":0.1818179999999927,"midi":79,"time":170.545284,"velocity":0.3937007874015748},{"duration":0.1818179999999927,"midi":86,"time":170.545284,"velocity":0.3937007874015748},{"duration":0.1818179999999927,"midi":82,"time":170.727102,"velocity":0.3937007874015748},{"duration":0.18181800000002113,"midi":81,"time":170.90892,"velocity":0.3937007874015748},{"duration":0.1818179999999927,"midi":82,"time":171.09073800000002,"velocity":0.3937007874015748},{"duration":0.1818179999999927,"midi":79,"time":171.272556,"velocity":0.3937007874015748},{"duration":0.1818179999999927,"midi":86,"time":171.272556,"velocity":0.3937007874015748},{"duration":0.1818179999999927,"midi":82,"time":171.454374,"velocity":0.3937007874015748},{"duration":0.18181800000002113,"midi":79,"time":171.636192,"velocity":0.3937007874015748},{"duration":0.1818179999999927,"midi":81,"time":171.81801000000002,"velocity":0.3937007874015748},{"duration":0.1818179999999927,"midi":77,"time":171.999828,"velocity":0.3937007874015748},{"duration":0.1818179999999927,"midi":84,"time":171.999828,"velocity":0.3937007874015748},{"duration":0.1818179999999927,"midi":81,"time":172.181646,"velocity":0.3937007874015748},{"duration":0.18181800000002113,"midi":79,"time":172.363464,"velocity":0.3937007874015748},{"duration":0.1818179999999927,"midi":81,"time":172.54528200000001,"velocity":0.3937007874015748},{"duration":0.1818179999999927,"midi":84,"time":172.7271,"velocity":0.3937007874015748},{"duration":0.1818179999999927,"midi":77,"time":172.7271,"velocity":0.3937007874015748},{"duration":0.18181800000002113,"midi":81,"time":172.908918,"velocity":0.3937007874015748},{"duration":0.1818179999999927,"midi":79,"time":173.09073600000002,"velocity":0.3937007874015748},{"duration":0.1818179999999927,"midi":82,"time":173.272554,"velocity":0.3937007874015748},{"duration":0.1818179999999927,"midi":79,"time":173.454372,"velocity":0.3937007874015748},{"duration":0.1818179999999927,"midi":86,"time":173.454372,"velocity":0.3937007874015748},{"duration":0.18181800000002113,"midi":82,"time":173.63619,"velocity":0.3937007874015748},{"duration":0.1818179999999927,"midi":79,"time":173.81800800000002,"velocity":0.3937007874015748},{"duration":0.1818179999999927,"midi":82,"time":173.999826,"velocity":0.3937007874015748},{"duration":0.1818179999999927,"midi":86,"time":174.181644,"velocity":0.3937007874015748},{"duration":0.1818179999999927,"midi":79,"time":174.181644,"velocity":0.3937007874015748},{"duration":0.18181800000002113,"midi":82,"time":174.363462,"velocity":0.3937007874015748},{"duration":0.04545449999997686,"midi":67,"time":174.54528000000002,"velocity":0.3937007874015748},{"duration":0.04545449999997686,"midi":55,"time":174.54528000000002,"velocity":0.3937007874015748},{"duration":0.04545449999997686,"midi":67,"time":174.54528000000002,"velocity":0.3937007874015748},{"duration":0.04545449999997686,"midi":55,"time":174.54528000000002,"velocity":0.3937007874015748},{"duration":0.04545450000000528,"midi":67,"time":174.727098,"velocity":0.3937007874015748},{"duration":0.04545450000000528,"midi":67,"time":174.727098,"velocity":0.3937007874015748},{"duration":0.04545450000000528,"midi":55,"time":174.727098,"velocity":0.3937007874015748},{"duration":0.04545450000000528,"midi":55,"time":174.727098,"velocity":0.3937007874015748},{"duration":0.04545450000000528,"midi":67,"time":174.908916,"velocity":0.3937007874015748},{"duration":0.04545450000000528,"midi":55,"time":174.908916,"velocity":0.3937007874015748},{"duration":0.04545450000000528,"midi":55,"time":174.908916,"velocity":0.3937007874015748},{"duration":0.04545450000000528,"midi":67,"time":174.908916,"velocity":0.3937007874015748},{"duration":0.04545450000000528,"midi":67,"time":174.99982500000002,"velocity":0.3937007874015748},{"duration":0.04545450000000528,"midi":67,"time":174.99982500000002,"velocity":0.3937007874015748},{"duration":0.04545450000000528,"midi":55,"time":174.99982500000002,"velocity":0.3937007874015748},{"duration":0.04545450000000528,"midi":55,"time":174.99982500000002,"velocity":0.3937007874015748},{"duration":0.04545450000000528,"midi":67,"time":175.181643,"velocity":0.3937007874015748},{"duration":0.04545450000000528,"midi":67,"time":175.181643,"velocity":0.3937007874015748},{"duration":0.04545450000000528,"midi":55,"time":175.181643,"velocity":0.3937007874015748},{"duration":0.04545450000000528,"midi":55,"time":175.181643,"velocity":0.3937007874015748},{"duration":0.04545449999997686,"midi":55,"time":175.27255200000002,"velocity":0.3937007874015748},{"duration":0.04545449999997686,"midi":55,"time":175.27255200000002,"velocity":0.3937007874015748},{"duration":0.04545449999997686,"midi":67,"time":175.27255200000002,"velocity":0.3937007874015748},{"duration":0.04545449999997686,"midi":67,"time":175.27255200000002,"velocity":0.3937007874015748},{"duration":0.04545450000000528,"midi":55,"time":175.45437,"velocity":0.3937007874015748},{"duration":0.04545450000000528,"midi":67,"time":175.45437,"velocity":0.3937007874015748},{"duration":0.04545450000000528,"midi":67,"time":175.45437,"velocity":0.3937007874015748},{"duration":0.04545450000000528,"midi":55,"time":175.45437,"velocity":0.3937007874015748},{"duration":0.04545450000000528,"midi":67,"time":175.636188,"velocity":0.3937007874015748},{"duration":0.04545450000000528,"midi":55,"time":175.636188,"velocity":0.3937007874015748},{"duration":0.04545450000000528,"midi":67,"time":175.636188,"velocity":0.3937007874015748},{"duration":0.04545450000000528,"midi":55,"time":175.636188,"velocity":0.3937007874015748},{"duration":0.04545450000000528,"midi":67,"time":175.818006,"velocity":0.3937007874015748},{"duration":0.04545450000000528,"midi":67,"time":175.818006,"velocity":0.3937007874015748},{"duration":0.04545450000000528,"midi":55,"time":175.818006,"velocity":0.3937007874015748},{"duration":0.04545450000000528,"midi":55,"time":175.818006,"velocity":0.3937007874015748},{"duration":0.04545449999997686,"midi":58,"time":175.99982400000002,"velocity":0.3937007874015748},{"duration":0.04545449999997686,"midi":70,"time":175.99982400000002,"velocity":0.3937007874015748},{"duration":0.04545450000000528,"midi":70,"time":176.181642,"velocity":0.3937007874015748},{"duration":0.04545450000000528,"midi":58,"time":176.181642,"velocity":0.3937007874015748},{"duration":0.04545450000000528,"midi":58,"time":176.36346,"velocity":0.3937007874015748},{"duration":0.04545450000000528,"midi":70,"time":176.36346,"velocity":0.3937007874015748},{"duration":0.04545450000000528,"midi":58,"time":176.454369,"velocity":0.3937007874015748},{"duration":0.04545450000000528,"midi":70,"time":176.454369,"velocity":0.3937007874015748},{"duration":0.04545450000000528,"midi":70,"time":176.636187,"velocity":0.3937007874015748},{"duration":0.04545450000000528,"midi":58,"time":176.636187,"velocity":0.3937007874015748},{"duration":0.04545449999997686,"midi":70,"time":176.72709600000002,"velocity":0.3937007874015748},{"duration":0.04545449999997686,"midi":58,"time":176.72709600000002,"velocity":0.3937007874015748},{"duration":0.04545450000000528,"midi":70,"time":176.908914,"velocity":0.3937007874015748},{"duration":0.04545450000000528,"midi":58,"time":176.908914,"velocity":0.3937007874015748},{"duration":0.04545450000000528,"midi":60,"time":177.090732,"velocity":0.3937007874015748},{"duration":0.04545450000000528,"midi":72,"time":177.090732,"velocity":0.3937007874015748},{"duration":0.04545450000000528,"midi":70,"time":177.27255,"velocity":0.3937007874015748},{"duration":0.04545450000000528,"midi":58,"time":177.27255,"velocity":0.3937007874015748},{"duration":0.04545449999997686,"midi":53,"time":177.45436800000002,"velocity":0.3937007874015748},{"duration":0.04545449999997686,"midi":65,"time":177.45436800000002,"velocity":0.3937007874015748},{"duration":0.04545450000000528,"midi":65,"time":177.636186,"velocity":0.3937007874015748},{"duration":0.04545450000000528,"midi":53,"time":177.636186,"velocity":0.3937007874015748},{"duration":0.04545450000000528,"midi":65,"time":177.818004,"velocity":0.3937007874015748},{"duration":0.04545450000000528,"midi":53,"time":177.818004,"velocity":0.3937007874015748},{"duration":0.04545450000000528,"midi":53,"time":177.908913,"velocity":0.3937007874015748},{"duration":0.04545450000000528,"midi":65,"time":177.908913,"velocity":0.3937007874015748},{"duration":0.04545450000000528,"midi":65,"time":178.090731,"velocity":0.3937007874015748},{"duration":0.04545450000000528,"midi":53,"time":178.090731,"velocity":0.3937007874015748},{"duration":0.04545450000000528,"midi":65,"time":178.18164000000002,"velocity":0.3937007874015748},{"duration":0.04545450000000528,"midi":53,"time":178.18164000000002,"velocity":0.3937007874015748},{"duration":0.04545450000000528,"midi":65,"time":178.363458,"velocity":0.3937007874015748},{"duration":0.04545450000000528,"midi":53,"time":178.363458,"velocity":0.3937007874015748},{"duration":0.04545450000000528,"midi":65,"time":178.545276,"velocity":0.3937007874015748},{"duration":0.04545450000000528,"midi":53,"time":178.545276,"velocity":0.3937007874015748},{"duration":0.04545450000000528,"midi":62,"time":178.727094,"velocity":0.3937007874015748},{"duration":0.04545450000000528,"midi":50,"time":178.727094,"velocity":0.3937007874015748},{"duration":0.04545450000000528,"midi":67,"time":178.90891200000002,"velocity":0.3937007874015748},{"duration":0.04545450000000528,"midi":55,"time":178.90891200000002,"velocity":0.3937007874015748},{"duration":0.04545450000000528,"midi":55,"time":179.09073,"velocity":0.3937007874015748},{"duration":0.04545450000000528,"midi":67,"time":179.09073,"velocity":0.3937007874015748},{"duration":0.04545450000000528,"midi":67,"time":179.272548,"velocity":0.3937007874015748},{"duration":0.04545450000000528,"midi":55,"time":179.272548,"velocity":0.3937007874015748},{"duration":0.04545450000000528,"midi":67,"time":179.363457,"velocity":0.3937007874015748},{"duration":0.04545450000000528,"midi":55,"time":179.363457,"velocity":0.3937007874015748},{"duration":0.04545450000000528,"midi":67,"time":179.545275,"velocity":0.3937007874015748},{"duration":0.04545450000000528,"midi":55,"time":179.545275,"velocity":0.3937007874015748},{"duration":0.04545450000000528,"midi":67,"time":179.63618400000001,"velocity":0.3937007874015748},{"duration":0.04545450000000528,"midi":55,"time":179.63618400000001,"velocity":0.3937007874015748},{"duration":0.04545450000000528,"midi":55,"time":179.818002,"velocity":0.3937007874015748},{"duration":0.04545450000000528,"midi":67,"time":179.818002,"velocity":0.3937007874015748},{"duration":0.04545450000000528,"midi":55,"time":179.99982,"velocity":0.3937007874015748},{"duration":0.04545450000000528,"midi":67,"time":179.99982,"velocity":0.3937007874015748},{"duration":0.04545449999997686,"midi":65,"time":180.18163800000002,"velocity":0.3937007874015748},{"duration":0.04545449999997686,"midi":53,"time":180.18163800000002,"velocity":0.3937007874015748},{"duration":0.04545450000000528,"midi":67,"time":180.363456,"velocity":0.3937007874015748},{"duration":0.04545450000000528,"midi":55,"time":180.363456,"velocity":0.3937007874015748},{"duration":0.04545450000000528,"midi":55,"time":180.545274,"velocity":0.3937007874015748},{"duration":0.04545450000000528,"midi":67,"time":180.545274,"velocity":0.3937007874015748},{"duration":0.04545450000000528,"midi":55,"time":180.727092,"velocity":0.3937007874015748},{"duration":0.04545450000000528,"midi":67,"time":180.727092,"velocity":0.3937007874015748},{"duration":0.04545450000000528,"midi":55,"time":180.818001,"velocity":0.3937007874015748},{"duration":0.04545450000000528,"midi":67,"time":180.818001,"velocity":0.3937007874015748},{"duration":0.04545450000000528,"midi":67,"time":180.999819,"velocity":0.3937007874015748},{"duration":0.04545450000000528,"midi":55,"time":180.999819,"velocity":0.3937007874015748},{"duration":0.04545450000000528,"midi":67,"time":181.090728,"velocity":0.3937007874015748},{"duration":0.04545450000000528,"midi":55,"time":181.090728,"velocity":0.3937007874015748},{"duration":0.04545450000000528,"midi":55,"time":181.272546,"velocity":0.3937007874015748},{"duration":0.04545450000000528,"midi":67,"time":181.272546,"velocity":0.3937007874015748},{"duration":0.04545450000000528,"midi":67,"time":181.454364,"velocity":0.3937007874015748},{"duration":0.04545450000000528,"midi":55,"time":181.454364,"velocity":0.3937007874015748},{"duration":0.04545449999997686,"midi":67,"time":181.63618200000002,"velocity":0.3937007874015748},{"duration":0.04545449999997686,"midi":55,"time":181.63618200000002,"velocity":0.3937007874015748},{"duration":0.04545450000000528,"midi":58,"time":181.818,"velocity":0.3937007874015748},{"duration":0.04545450000000528,"midi":70,"time":181.818,"velocity":0.3937007874015748},{"duration":0.04545450000000528,"midi":58,"time":181.999818,"velocity":0.3937007874015748},{"duration":0.04545450000000528,"midi":70,"time":181.999818,"velocity":0.3937007874015748},{"duration":0.04545450000000528,"midi":70,"time":182.181636,"velocity":0.3937007874015748},{"duration":0.04545450000000528,"midi":58,"time":182.181636,"velocity":0.3937007874015748},{"duration":0.04545450000000528,"midi":70,"time":182.272545,"velocity":0.3937007874015748},{"duration":0.04545450000000528,"midi":58,"time":182.272545,"velocity":0.3937007874015748},{"duration":0.04545450000000528,"midi":70,"time":182.454363,"velocity":0.3937007874015748},{"duration":0.04545450000000528,"midi":58,"time":182.454363,"velocity":0.3937007874015748},{"duration":0.04545450000000528,"midi":58,"time":182.545272,"velocity":0.3937007874015748},{"duration":0.04545450000000528,"midi":70,"time":182.545272,"velocity":0.3937007874015748},{"duration":0.04545450000000528,"midi":58,"time":182.72709,"velocity":0.3937007874015748},{"duration":0.04545450000000528,"midi":70,"time":182.72709,"velocity":0.3937007874015748},{"duration":0.04545450000000528,"midi":72,"time":182.908908,"velocity":0.3937007874015748},{"duration":0.04545450000000528,"midi":60,"time":182.908908,"velocity":0.3937007874015748},{"duration":0.04545449999997686,"midi":70,"time":183.09072600000002,"velocity":0.3937007874015748},{"duration":0.04545449999997686,"midi":58,"time":183.09072600000002,"velocity":0.3937007874015748},{"duration":0.04545450000000528,"midi":65,"time":183.272544,"velocity":0.3937007874015748},{"duration":0.04545450000000528,"midi":53,"time":183.272544,"velocity":0.3937007874015748},{"duration":0.04545450000000528,"midi":65,"time":183.454362,"velocity":0.3937007874015748},{"duration":0.04545450000000528,"midi":53,"time":183.454362,"velocity":0.3937007874015748},{"duration":0.04545450000000528,"midi":53,"time":183.63618,"velocity":0.3937007874015748},{"duration":0.04545450000000528,"midi":65,"time":183.63618,"velocity":0.3937007874015748},{"duration":0.04545450000000528,"midi":65,"time":183.727089,"velocity":0.3937007874015748},{"duration":0.04545450000000528,"midi":53,"time":183.727089,"velocity":0.3937007874015748},{"duration":0.04545450000000528,"midi":65,"time":183.908907,"velocity":0.3937007874015748},{"duration":0.04545450000000528,"midi":53,"time":183.908907,"velocity":0.3937007874015748},{"duration":0.04545450000000528,"midi":53,"time":183.999816,"velocity":0.3937007874015748},{"duration":0.04545450000000528,"midi":65,"time":183.999816,"velocity":0.3937007874015748},{"duration":0.04545450000000528,"midi":65,"time":184.181634,"velocity":0.3937007874015748},{"duration":0.04545450000000528,"midi":53,"time":184.181634,"velocity":0.3937007874015748},{"duration":0.04545450000000528,"midi":53,"time":184.363452,"velocity":0.3937007874015748},{"duration":0.04545450000000528,"midi":65,"time":184.363452,"velocity":0.3937007874015748},{"duration":0.04545450000000528,"midi":62,"time":184.54527000000002,"velocity":0.3937007874015748},{"duration":0.04545450000000528,"midi":50,"time":184.54527000000002,"velocity":0.3937007874015748},{"duration":0.09090900000001056,"midi":67,"time":186.181632,"velocity":0.3937007874015748},{"duration":0.09090900000001056,"midi":55,"time":186.181632,"velocity":0.3937007874015748},{"duration":0.09090900000001056,"midi":67,"time":186.36345,"velocity":0.3937007874015748},{"duration":0.09090900000001056,"midi":55,"time":186.36345,"velocity":0.3937007874015748},{"duration":0.09090899999998214,"midi":55,"time":186.54526800000002,"velocity":0.3937007874015748},{"duration":0.09090899999998214,"midi":67,"time":186.54526800000002,"velocity":0.3937007874015748},{"duration":0.09090899999998214,"midi":55,"time":186.727086,"velocity":0.3937007874015748},{"duration":0.09090899999998214,"midi":67,"time":186.727086,"velocity":0.3937007874015748},{"duration":0.09090900000001056,"midi":55,"time":186.908904,"velocity":0.3937007874015748},{"duration":0.09090900000001056,"midi":67,"time":186.908904,"velocity":0.3937007874015748},{"duration":0.09090900000001056,"midi":55,"time":187.090722,"velocity":0.3937007874015748},{"duration":0.09090900000001056,"midi":67,"time":187.090722,"velocity":0.3937007874015748},{"duration":0.09090899999998214,"midi":55,"time":187.27254000000002,"velocity":0.3937007874015748},{"duration":0.09090899999998214,"midi":67,"time":187.27254000000002,"velocity":0.3937007874015748},{"duration":0.09090899999998214,"midi":55,"time":187.454358,"velocity":0.3937007874015748},{"duration":0.09090899999998214,"midi":67,"time":187.454358,"velocity":0.3937007874015748},{"duration":0.09090900000001056,"midi":70,"time":187.636176,"velocity":0.3937007874015748},{"duration":0.09090900000001056,"midi":58,"time":187.636176,"velocity":0.3937007874015748},{"duration":0.09090900000001056,"midi":58,"time":187.817994,"velocity":0.3937007874015748},{"duration":0.09090900000001056,"midi":70,"time":187.817994,"velocity":0.3937007874015748},{"duration":0.09090899999998214,"midi":70,"time":187.99981200000002,"velocity":0.3937007874015748},{"duration":0.09090899999998214,"midi":58,"time":187.99981200000002,"velocity":0.3937007874015748},{"duration":0.09090899999998214,"midi":70,"time":188.18163,"velocity":0.3937007874015748},{"duration":0.09090899999998214,"midi":58,"time":188.18163,"velocity":0.3937007874015748},{"duration":0.09090900000001056,"midi":70,"time":188.363448,"velocity":0.3937007874015748},{"duration":0.09090900000001056,"midi":58,"time":188.363448,"velocity":0.3937007874015748},{"duration":0.09090900000001056,"midi":70,"time":188.545266,"velocity":0.3937007874015748},{"duration":0.09090900000001056,"midi":58,"time":188.545266,"velocity":0.3937007874015748},{"duration":0.09090899999998214,"midi":72,"time":188.72708400000002,"velocity":0.3937007874015748},{"duration":0.09090899999998214,"midi":60,"time":188.72708400000002,"velocity":0.3937007874015748},{"duration":0.09090899999998214,"midi":70,"time":188.908902,"velocity":0.3937007874015748},{"duration":0.09090899999998214,"midi":58,"time":188.908902,"velocity":0.3937007874015748},{"duration":0.09090900000001056,"midi":69,"time":189.09072,"velocity":0.3937007874015748},{"duration":0.09090900000001056,"midi":57,"time":189.09072,"velocity":0.3937007874015748},{"duration":0.09090900000001056,"midi":69,"time":189.272538,"velocity":0.3937007874015748},{"duration":0.09090900000001056,"midi":57,"time":189.272538,"velocity":0.3937007874015748},{"duration":0.09090899999998214,"midi":69,"time":189.45435600000002,"velocity":0.3937007874015748},{"duration":0.09090899999998214,"midi":57,"time":189.45435600000002,"velocity":0.3937007874015748},{"duration":0.09090900000001056,"midi":57,"time":189.636174,"velocity":0.3937007874015748},{"duration":0.09090900000001056,"midi":69,"time":189.636174,"velocity":0.3937007874015748},{"duration":0.09090900000001056,"midi":69,"time":189.817992,"velocity":0.3937007874015748},{"duration":0.09090900000001056,"midi":57,"time":189.817992,"velocity":0.3937007874015748},{"duration":0.09090900000001056,"midi":57,"time":189.99981,"velocity":0.3937007874015748},{"duration":0.09090900000001056,"midi":69,"time":189.99981,"velocity":0.3937007874015748},{"duration":0.09090899999998214,"midi":57,"time":190.18162800000002,"velocity":0.3937007874015748},{"duration":0.09090899999998214,"midi":69,"time":190.18162800000002,"velocity":0.3937007874015748},{"duration":0.09090900000001056,"midi":67,"time":190.363446,"velocity":0.3937007874015748},{"duration":0.09090900000001056,"midi":55,"time":190.363446,"velocity":0.3937007874015748},{"duration":0.09090900000001056,"midi":70,"time":190.545264,"velocity":0.3937007874015748},{"duration":0.09090900000001056,"midi":58,"time":190.545264,"velocity":0.3937007874015748},{"duration":0.09090900000001056,"midi":58,"time":190.727082,"velocity":0.3937007874015748},{"duration":0.09090900000001056,"midi":70,"time":190.727082,"velocity":0.3937007874015748},{"duration":0.09090899999998214,"midi":58,"time":190.90890000000002,"velocity":0.3937007874015748},{"duration":0.09090899999998214,"midi":70,"time":190.90890000000002,"velocity":0.3937007874015748},{"duration":0.09090900000001056,"midi":58,"time":191.090718,"velocity":0.3937007874015748},{"duration":0.09090900000001056,"midi":70,"time":191.090718,"velocity":0.3937007874015748},{"duration":0.09090900000001056,"midi":70,"time":191.272536,"velocity":0.3937007874015748},{"duration":0.09090900000001056,"midi":58,"time":191.272536,"velocity":0.3937007874015748},{"duration":0.09090900000001056,"midi":70,"time":191.454354,"velocity":0.3937007874015748},{"duration":0.09090900000001056,"midi":58,"time":191.454354,"velocity":0.3937007874015748},{"duration":0.09090899999998214,"midi":58,"time":191.63617200000002,"velocity":0.3937007874015748},{"duration":0.09090899999998214,"midi":70,"time":191.63617200000002,"velocity":0.3937007874015748},{"duration":0.09090900000001056,"midi":70,"time":191.81799,"velocity":0.3937007874015748},{"duration":0.09090900000001056,"midi":58,"time":191.81799,"velocity":0.3937007874015748},{"duration":0.09090900000001056,"midi":74,"time":191.999808,"velocity":0.3937007874015748},{"duration":0.09090900000001056,"midi":62,"time":191.999808,"velocity":0.3937007874015748},{"duration":0.09090900000001056,"midi":74,"time":192.181626,"velocity":0.3937007874015748},{"duration":0.09090900000001056,"midi":62,"time":192.181626,"velocity":0.3937007874015748},{"duration":0.09090899999998214,"midi":62,"time":192.36344400000002,"velocity":0.3937007874015748},{"duration":0.09090899999998214,"midi":74,"time":192.36344400000002,"velocity":0.3937007874015748},{"duration":0.09090900000001056,"midi":74,"time":192.545262,"velocity":0.3937007874015748},{"duration":0.09090900000001056,"midi":62,"time":192.545262,"velocity":0.3937007874015748},{"duration":0.09090900000001056,"midi":74,"time":192.72708,"velocity":0.3937007874015748},{"duration":0.09090900000001056,"midi":62,"time":192.72708,"velocity":0.3937007874015748},{"duration":0.09090899999998214,"midi":74,"time":192.90889800000002,"velocity":0.3937007874015748},{"duration":0.09090899999998214,"midi":62,"time":192.90889800000002,"velocity":0.3937007874015748},{"duration":0.09090899999998214,"midi":62,"time":193.09071600000001,"velocity":0.3937007874015748},{"duration":0.09090899999998214,"midi":74,"time":193.09071600000001,"velocity":0.3937007874015748},{"duration":0.09090900000001056,"midi":75,"time":193.272534,"velocity":0.3937007874015748},{"duration":0.09090900000001056,"midi":63,"time":193.272534,"velocity":0.3937007874015748},{"duration":0.09090900000001056,"midi":62,"time":193.454352,"velocity":0.3937007874015748},{"duration":0.09090900000001056,"midi":74,"time":193.454352,"velocity":0.3937007874015748},{"duration":0.09090899999998214,"midi":74,"time":193.63617000000002,"velocity":0.3937007874015748},{"duration":0.09090899999998214,"midi":62,"time":193.63617000000002,"velocity":0.3937007874015748},{"duration":0.09090899999998214,"midi":74,"time":193.817988,"velocity":0.3937007874015748},{"duration":0.09090899999998214,"midi":62,"time":193.817988,"velocity":0.3937007874015748},{"duration":0.09090900000001056,"midi":62,"time":193.999806,"velocity":0.3937007874015748},{"duration":0.09090900000001056,"midi":74,"time":193.999806,"velocity":0.3937007874015748},{"duration":0.09090900000001056,"midi":62,"time":194.181624,"velocity":0.3937007874015748},{"duration":0.09090900000001056,"midi":74,"time":194.181624,"velocity":0.3937007874015748},{"duration":0.09090899999998214,"midi":74,"time":194.36344200000002,"velocity":0.3937007874015748},{"duration":0.09090899999998214,"midi":62,"time":194.36344200000002,"velocity":0.3937007874015748},{"duration":0.09090899999998214,"midi":74,"time":194.54526,"velocity":0.3937007874015748},{"duration":0.09090899999998214,"midi":62,"time":194.54526,"velocity":0.3937007874015748},{"duration":0.09090900000001056,"midi":62,"time":194.727078,"velocity":0.3937007874015748},{"duration":0.09090900000001056,"midi":74,"time":194.727078,"velocity":0.3937007874015748},{"duration":0.09090900000001056,"midi":57,"time":194.908896,"velocity":0.3937007874015748},{"duration":0.09090900000001056,"midi":69,"time":194.908896,"velocity":0.3937007874015748},{"duration":0.09090899999998214,"midi":57,"time":195.09071400000002,"velocity":0.3937007874015748},{"duration":0.09090899999998214,"midi":69,"time":195.09071400000002,"velocity":0.3937007874015748},{"duration":0.09090899999998214,"midi":69,"time":195.272532,"velocity":0.3937007874015748},{"duration":0.09090899999998214,"midi":57,"time":195.272532,"velocity":0.3937007874015748},{"duration":0.09090900000001056,"midi":57,"time":195.45435,"velocity":0.3937007874015748},{"duration":0.09090900000001056,"midi":69,"time":195.45435,"velocity":0.3937007874015748},{"duration":0.09090900000001056,"midi":69,"time":195.636168,"velocity":0.3937007874015748},{"duration":0.09090900000001056,"midi":57,"time":195.636168,"velocity":0.3937007874015748},{"duration":0.09090899999998214,"midi":57,"time":195.81798600000002,"velocity":0.3937007874015748},{"duration":0.09090899999998214,"midi":69,"time":195.81798600000002,"velocity":0.3937007874015748},{"duration":0.09090899999998214,"midi":70,"time":195.999804,"velocity":0.3937007874015748},{"duration":0.09090899999998214,"midi":58,"time":195.999804,"velocity":0.3937007874015748},{"duration":0.09090900000001056,"midi":57,"time":196.181622,"velocity":0.3937007874015748},{"duration":0.09090900000001056,"midi":69,"time":196.181622,"velocity":0.3937007874015748},{"duration":0.09090900000001056,"midi":55,"time":196.36344,"velocity":0.3937007874015748},{"duration":0.09090900000001056,"midi":67,"time":196.36344,"velocity":0.3937007874015748},{"duration":0.09090899999998214,"midi":67,"time":196.54525800000002,"velocity":0.3937007874015748},{"duration":0.09090899999998214,"midi":55,"time":196.54525800000002,"velocity":0.3937007874015748},{"duration":0.09090900000001056,"midi":67,"time":196.727076,"velocity":0.3937007874015748},{"duration":0.09090900000001056,"midi":55,"time":196.727076,"velocity":0.3937007874015748},{"duration":0.09090900000001056,"midi":55,"time":196.908894,"velocity":0.3937007874015748},{"duration":0.09090900000001056,"midi":67,"time":196.908894,"velocity":0.3937007874015748},{"duration":0.09090900000001056,"midi":55,"time":197.090712,"velocity":0.3937007874015748},{"duration":0.09090900000001056,"midi":67,"time":197.090712,"velocity":0.3937007874015748},{"duration":0.09090899999998214,"midi":67,"time":197.27253000000002,"velocity":0.3937007874015748},{"duration":0.09090899999998214,"midi":55,"time":197.27253000000002,"velocity":0.3937007874015748},{"duration":0.09090900000001056,"midi":67,"time":197.454348,"velocity":0.3937007874015748},{"duration":0.09090900000001056,"midi":55,"time":197.454348,"velocity":0.3937007874015748},{"duration":0.09090900000001056,"midi":67,"time":197.636166,"velocity":0.3937007874015748},{"duration":0.09090900000001056,"midi":55,"time":197.636166,"velocity":0.3937007874015748},{"duration":0.09090900000001056,"midi":55,"time":197.817984,"velocity":0.3937007874015748},{"duration":0.09090900000001056,"midi":67,"time":197.817984,"velocity":0.3937007874015748},{"duration":0.09090899999998214,"midi":67,"time":197.99980200000002,"velocity":0.3937007874015748},{"duration":0.09090899999998214,"midi":55,"time":197.99980200000002,"velocity":0.3937007874015748},{"duration":0.09090900000001056,"midi":55,"time":198.18162,"velocity":0.3937007874015748},{"duration":0.09090900000001056,"midi":67,"time":198.18162,"velocity":0.3937007874015748},{"duration":0.09090900000001056,"midi":67,"time":198.363438,"velocity":0.3937007874015748},{"duration":0.09090900000001056,"midi":55,"time":198.363438,"velocity":0.3937007874015748},{"duration":0.09090900000001056,"midi":55,"time":198.545256,"velocity":0.3937007874015748},{"duration":0.09090900000001056,"midi":67,"time":198.545256,"velocity":0.3937007874015748},{"duration":0.09090899999998214,"midi":67,"time":198.72707400000002,"velocity":0.3937007874015748},{"duration":0.09090899999998214,"midi":55,"time":198.72707400000002,"velocity":0.3937007874015748},{"duration":0.09090900000001056,"midi":55,"time":198.908892,"velocity":0.3937007874015748},{"duration":0.09090900000001056,"midi":67,"time":198.908892,"velocity":0.3937007874015748},{"duration":0.09090900000001056,"midi":67,"time":199.09071,"velocity":0.3937007874015748},{"duration":0.09090900000001056,"midi":55,"time":199.09071,"velocity":0.3937007874015748},{"duration":0.09090900000001056,"midi":58,"time":199.272528,"velocity":0.3937007874015748},{"duration":0.09090900000001056,"midi":70,"time":199.272528,"velocity":0.3937007874015748},{"duration":0.09090899999998214,"midi":70,"time":199.45434600000002,"velocity":0.3937007874015748},{"duration":0.09090899999998214,"midi":58,"time":199.45434600000002,"velocity":0.3937007874015748},{"duration":0.09090900000001056,"midi":58,"time":199.636164,"velocity":0.3937007874015748},{"duration":0.09090900000001056,"midi":70,"time":199.636164,"velocity":0.3937007874015748},{"duration":0.09090900000001056,"midi":70,"time":199.817982,"velocity":0.3937007874015748},{"duration":0.09090900000001056,"midi":58,"time":199.817982,"velocity":0.3937007874015748},{"duration":0.09090899999998214,"midi":58,"time":199.99980000000002,"velocity":0.3937007874015748},{"duration":0.09090899999998214,"midi":70,"time":199.99980000000002,"velocity":0.3937007874015748},{"duration":0.09090899999998214,"midi":58,"time":200.18161800000001,"velocity":0.3937007874015748},{"duration":0.09090899999998214,"midi":70,"time":200.18161800000001,"velocity":0.3937007874015748},{"duration":0.09090900000001056,"midi":72,"time":200.363436,"velocity":0.3937007874015748},{"duration":0.09090900000001056,"midi":60,"time":200.363436,"velocity":0.3937007874015748},{"duration":0.09090900000001056,"midi":58,"time":200.545254,"velocity":0.3937007874015748},{"duration":0.09090900000001056,"midi":70,"time":200.545254,"velocity":0.3937007874015748},{"duration":0.09090899999998214,"midi":57,"time":200.72707200000002,"velocity":0.3937007874015748},{"duration":0.09090899999998214,"midi":69,"time":200.72707200000002,"velocity":0.3937007874015748},{"duration":0.09090899999998214,"midi":57,"time":200.90889,"velocity":0.3937007874015748},{"duration":0.09090899999998214,"midi":69,"time":200.90889,"velocity":0.3937007874015748},{"duration":0.09090900000001056,"midi":69,"time":201.090708,"velocity":0.3937007874015748},{"duration":0.09090900000001056,"midi":57,"time":201.090708,"velocity":0.3937007874015748},{"duration":0.09090900000001056,"midi":57,"time":201.272526,"velocity":0.3937007874015748},{"duration":0.09090900000001056,"midi":69,"time":201.272526,"velocity":0.3937007874015748},{"duration":0.09090899999998214,"midi":69,"time":201.45434400000002,"velocity":0.3937007874015748},{"duration":0.09090899999998214,"midi":57,"time":201.45434400000002,"velocity":0.3937007874015748},{"duration":0.09090899999998214,"midi":57,"time":201.636162,"velocity":0.3937007874015748},{"duration":0.09090899999998214,"midi":69,"time":201.636162,"velocity":0.3937007874015748},{"duration":0.09090900000001056,"midi":57,"time":201.81798,"velocity":0.3937007874015748},{"duration":0.09090900000001056,"midi":69,"time":201.81798,"velocity":0.3937007874015748},{"duration":0.09090900000001056,"midi":67,"time":201.999798,"velocity":0.3937007874015748},{"duration":0.09090900000001056,"midi":55,"time":201.999798,"velocity":0.3937007874015748},{"duration":0.09090899999998214,"midi":70,"time":202.18161600000002,"velocity":0.3937007874015748},{"duration":0.09090899999998214,"midi":58,"time":202.18161600000002,"velocity":0.3937007874015748},{"duration":0.09090899999998214,"midi":70,"time":202.363434,"velocity":0.3937007874015748},{"duration":0.09090899999998214,"midi":58,"time":202.363434,"velocity":0.3937007874015748},{"duration":0.09090900000001056,"midi":70,"time":202.545252,"velocity":0.3937007874015748},{"duration":0.09090900000001056,"midi":58,"time":202.545252,"velocity":0.3937007874015748},{"duration":0.09090900000001056,"midi":70,"time":202.72707,"velocity":0.3937007874015748},{"duration":0.09090900000001056,"midi":58,"time":202.72707,"velocity":0.3937007874015748},{"duration":0.09090899999998214,"midi":58,"time":202.90888800000002,"velocity":0.3937007874015748},{"duration":0.09090899999998214,"midi":70,"time":202.90888800000002,"velocity":0.3937007874015748},{"duration":0.09090900000001056,"midi":58,"time":203.090706,"velocity":0.3937007874015748},{"duration":0.09090900000001056,"midi":70,"time":203.090706,"velocity":0.3937007874015748},{"duration":0.09090900000001056,"midi":70,"time":203.272524,"velocity":0.3937007874015748},{"duration":0.09090900000001056,"midi":58,"time":203.272524,"velocity":0.3937007874015748},{"duration":0.09090900000001056,"midi":58,"time":203.454342,"velocity":0.3937007874015748},{"duration":0.09090900000001056,"midi":70,"time":203.454342,"velocity":0.3937007874015748},{"duration":0.09090899999998214,"midi":62,"time":203.63616000000002,"velocity":0.3937007874015748},{"duration":0.09090899999998214,"midi":74,"time":203.63616000000002,"velocity":0.3937007874015748},{"duration":0.09090900000001056,"midi":62,"time":203.817978,"velocity":0.3937007874015748},{"duration":0.09090900000001056,"midi":74,"time":203.817978,"velocity":0.3937007874015748},{"duration":0.09090900000001056,"midi":62,"time":203.999796,"velocity":0.3937007874015748},{"duration":0.09090900000001056,"midi":74,"time":203.999796,"velocity":0.3937007874015748},{"duration":0.09090900000001056,"midi":74,"time":204.181614,"velocity":0.3937007874015748},{"duration":0.09090900000001056,"midi":62,"time":204.181614,"velocity":0.3937007874015748},{"duration":0.09090899999998214,"midi":62,"time":204.36343200000002,"velocity":0.3937007874015748},{"duration":0.09090899999998214,"midi":74,"time":204.36343200000002,"velocity":0.3937007874015748},{"duration":0.09090900000001056,"midi":74,"time":204.54525,"velocity":0.3937007874015748},{"duration":0.09090900000001056,"midi":62,"time":204.54525,"velocity":0.3937007874015748},{"duration":0.09090900000001056,"midi":62,"time":204.727068,"velocity":0.3937007874015748},{"duration":0.09090900000001056,"midi":74,"time":204.727068,"velocity":0.3937007874015748},{"duration":0.09090900000001056,"midi":63,"time":204.908886,"velocity":0.3937007874015748},{"duration":0.09090900000001056,"midi":75,"time":204.908886,"velocity":0.3937007874015748},{"duration":0.09090899999998214,"midi":74,"time":205.09070400000002,"velocity":0.3937007874015748},{"duration":0.09090899999998214,"midi":62,"time":205.09070400000002,"velocity":0.3937007874015748},{"duration":0.09090900000001056,"midi":74,"time":205.272522,"velocity":0.3937007874015748},{"duration":0.09090900000001056,"midi":62,"time":205.272522,"velocity":0.3937007874015748},{"duration":0.09090900000001056,"midi":74,"time":205.45434,"velocity":0.3937007874015748},{"duration":0.09090900000001056,"midi":62,"time":205.45434,"velocity":0.3937007874015748},{"duration":0.09090900000001056,"midi":74,"time":205.636158,"velocity":0.3937007874015748},{"duration":0.09090900000001056,"midi":62,"time":205.636158,"velocity":0.3937007874015748},{"duration":0.09090899999998214,"midi":74,"time":205.81797600000002,"velocity":0.3937007874015748},{"duration":0.09090899999998214,"midi":62,"time":205.81797600000002,"velocity":0.3937007874015748},{"duration":0.09090900000001056,"midi":74,"time":205.999794,"velocity":0.3937007874015748},{"duration":0.09090900000001056,"midi":62,"time":205.999794,"velocity":0.3937007874015748},{"duration":0.09090900000001056,"midi":62,"time":206.181612,"velocity":0.3937007874015748},{"duration":0.09090900000001056,"midi":74,"time":206.181612,"velocity":0.3937007874015748},{"duration":0.09090899999998214,"midi":74,"time":206.36343000000002,"velocity":0.3937007874015748},{"duration":0.09090899999998214,"midi":62,"time":206.36343000000002,"velocity":0.3937007874015748},{"duration":0.09090899999998214,"midi":57,"time":206.54524800000002,"velocity":0.3937007874015748},{"duration":0.09090899999998214,"midi":69,"time":206.54524800000002,"velocity":0.3937007874015748},{"duration":0.09090900000001056,"midi":69,"time":206.727066,"velocity":0.3937007874015748},{"duration":0.09090900000001056,"midi":57,"time":206.727066,"velocity":0.3937007874015748},{"duration":0.09090900000001056,"midi":69,"time":206.908884,"velocity":0.3937007874015748},{"duration":0.09090900000001056,"midi":57,"time":206.908884,"velocity":0.3937007874015748},{"duration":0.09090899999998214,"midi":69,"time":207.09070200000002,"velocity":0.3937007874015748},{"duration":0.09090899999998214,"midi":57,"time":207.09070200000002,"velocity":0.3937007874015748},{"duration":0.09090899999998214,"midi":69,"time":207.27252000000001,"velocity":0.3937007874015748},{"duration":0.09090899999998214,"midi":57,"time":207.27252000000001,"velocity":0.3937007874015748},{"duration":0.09090900000001056,"midi":57,"time":207.454338,"velocity":0.3937007874015748},{"duration":0.09090900000001056,"midi":69,"time":207.454338,"velocity":0.3937007874015748},{"duration":0.09090900000001056,"midi":58,"time":207.636156,"velocity":0.3937007874015748},{"duration":0.09090900000001056,"midi":70,"time":207.636156,"velocity":0.3937007874015748},{"duration":0.09090899999998214,"midi":69,"time":207.81797400000002,"velocity":0.3937007874015748},{"duration":0.09090899999998214,"midi":57,"time":207.81797400000002,"velocity":0.3937007874015748},{"duration":0.09090899999998214,"midi":55,"time":207.999792,"velocity":0.3937007874015748},{"duration":0.09090899999998214,"midi":67,"time":207.999792,"velocity":0.3937007874015748},{"duration":0.09090900000001056,"midi":67,"time":208.18161,"velocity":0.3937007874015748},{"duration":0.09090900000001056,"midi":55,"time":208.18161,"velocity":0.3937007874015748},{"duration":0.09090900000001056,"midi":67,"time":208.363428,"velocity":0.3937007874015748},{"duration":0.09090900000001056,"midi":55,"time":208.363428,"velocity":0.3937007874015748},{"duration":0.09090899999998214,"midi":67,"time":208.54524600000002,"velocity":0.3937007874015748},{"duration":0.09090899999998214,"midi":55,"time":208.54524600000002,"velocity":0.3937007874015748},{"duration":0.09090899999998214,"midi":55,"time":208.727064,"velocity":0.3937007874015748},{"duration":0.09090899999998214,"midi":67,"time":208.727064,"velocity":0.3937007874015748},{"duration":0.09090900000001056,"midi":55,"time":208.908882,"velocity":0.3937007874015748},{"duration":0.09090900000001056,"midi":67,"time":208.908882,"velocity":0.3937007874015748},{"duration":0.09090900000001056,"midi":67,"time":209.0907,"velocity":0.3937007874015748},{"duration":0.09090900000001056,"midi":55,"time":209.0907,"velocity":0.3937007874015748},{"duration":0.09090899999998214,"midi":55,"time":209.27251800000002,"velocity":0.3937007874015748},{"duration":0.09090899999998214,"midi":67,"time":209.27251800000002,"velocity":0.3937007874015748},{"duration":0.18181800000002113,"midi":67,"time":267.636096,"velocity":0.3937007874015748},{"duration":0.09090900000001056,"midi":55,"time":267.636096,"velocity":0.3937007874015748},{"duration":0.09090899999995372,"midi":55,"time":267.81791400000003,"velocity":0.3937007874015748},{"duration":0.09090900000001056,"midi":55,"time":267.999732,"velocity":0.3937007874015748},{"duration":0.09090900000001056,"midi":55,"time":268.18155,"velocity":0.3937007874015748},{"duration":0.18181799999996429,"midi":67,"time":268.36336800000004,"velocity":0.3937007874015748},{"duration":0.09090899999995372,"midi":55,"time":268.36336800000004,"velocity":0.3937007874015748},{"duration":0.09090900000001056,"midi":55,"time":268.545186,"velocity":0.3937007874015748},{"duration":0.09090900000001056,"midi":55,"time":268.727004,"velocity":0.3937007874015748},{"duration":0.09090900000001056,"midi":55,"time":268.908822,"velocity":0.3937007874015748},{"duration":0.09090900000001056,"midi":58,"time":269.09064,"velocity":0.3937007874015748},{"duration":0.18181800000002113,"midi":70,"time":269.09064,"velocity":0.3937007874015748},{"duration":0.09090900000001056,"midi":58,"time":269.27245800000003,"velocity":0.3937007874015748},{"duration":0.09090900000001056,"midi":58,"time":269.454276,"velocity":0.3937007874015748},{"duration":0.09090900000001056,"midi":58,"time":269.636094,"velocity":0.3937007874015748},{"duration":0.09090899999995372,"midi":58,"time":269.81791200000004,"velocity":0.3937007874015748},{"duration":0.18181799999996429,"midi":70,"time":269.81791200000004,"velocity":0.3937007874015748},{"duration":0.09090900000001056,"midi":58,"time":269.99973,"velocity":0.3937007874015748},{"duration":0.09090900000001056,"midi":60,"time":270.181548,"velocity":0.3937007874015748},{"duration":0.09090900000001056,"midi":58,"time":270.363366,"velocity":0.3937007874015748},{"duration":0.09090900000001056,"midi":57,"time":270.545184,"velocity":0.3937007874015748},{"duration":0.18181800000002113,"midi":69,"time":270.545184,"velocity":0.3937007874015748},{"duration":0.09090900000001056,"midi":57,"time":270.727002,"velocity":0.3937007874015748},{"duration":0.09090900000001056,"midi":57,"time":270.90882,"velocity":0.3937007874015748},{"duration":0.09090900000001056,"midi":57,"time":271.090638,"velocity":0.3937007874015748},{"duration":0.18181799999996429,"midi":69,"time":271.27245600000003,"velocity":0.3937007874015748},{"duration":0.09090899999995372,"midi":57,"time":271.27245600000003,"velocity":0.3937007874015748},{"duration":0.09090900000001056,"midi":57,"time":271.454274,"velocity":0.3937007874015748},{"duration":0.09090900000001056,"midi":57,"time":271.636092,"velocity":0.3937007874015748},{"duration":0.09090900000001056,"midi":55,"time":271.81791,"velocity":0.3937007874015748},{"duration":0.18181800000002113,"midi":70,"time":271.999728,"velocity":0.3937007874015748},{"duration":0.09090900000001056,"midi":58,"time":271.999728,"velocity":0.3937007874015748},{"duration":0.09090900000001056,"midi":58,"time":272.181546,"velocity":0.3937007874015748},{"duration":0.09090900000001056,"midi":58,"time":272.363364,"velocity":0.3937007874015748},{"duration":0.09090900000001056,"midi":58,"time":272.545182,"velocity":0.3937007874015748},{"duration":0.18181799999996429,"midi":70,"time":272.72700000000003,"velocity":0.3937007874015748},{"duration":0.09090899999995372,"midi":58,"time":272.72700000000003,"velocity":0.3937007874015748},{"duration":0.09090900000001056,"midi":58,"time":272.908818,"velocity":0.3937007874015748},{"duration":0.09090900000001056,"midi":58,"time":273.090636,"velocity":0.3937007874015748},{"duration":0.09090899999995372,"midi":58,"time":273.27245400000004,"velocity":0.3937007874015748},{"duration":0.09090900000001056,"midi":62,"time":273.454272,"velocity":0.3937007874015748},{"duration":0.18181800000002113,"midi":74,"time":273.454272,"velocity":0.3937007874015748},{"duration":0.09090900000001056,"midi":62,"time":273.63609,"velocity":0.3937007874015748},{"duration":0.09090900000001056,"midi":62,"time":273.817908,"velocity":0.3937007874015748},{"duration":0.09090900000001056,"midi":62,"time":273.999726,"velocity":0.3937007874015748},{"duration":0.18181799999996429,"midi":74,"time":274.18154400000003,"velocity":0.3937007874015748},{"duration":0.09090899999995372,"midi":62,"time":274.18154400000003,"velocity":0.3937007874015748},{"duration":0.09090900000001056,"midi":62,"time":274.363362,"velocity":0.3937007874015748},{"duration":0.09090900000001056,"midi":62,"time":274.54518,"velocity":0.3937007874015748},{"duration":0.09090899999995372,"midi":63,"time":274.72699800000004,"velocity":0.3937007874015748},{"duration":0.18181800000002113,"midi":74,"time":274.908816,"velocity":0.3937007874015748},{"duration":0.09090900000001056,"midi":62,"time":274.908816,"velocity":0.3937007874015748},{"duration":0.09090900000001056,"midi":62,"time":275.090634,"velocity":0.3937007874015748},{"duration":0.09090900000001056,"midi":62,"time":275.272452,"velocity":0.3937007874015748},{"duration":0.09090900000001056,"midi":62,"time":275.45427,"velocity":0.3937007874015748},{"duration":0.09090899999995372,"midi":62,"time":275.63608800000003,"velocity":0.3937007874015748},{"duration":0.18181799999996429,"midi":74,"time":275.63608800000003,"velocity":0.3937007874015748},{"duration":0.09090900000001056,"midi":62,"time":275.817906,"velocity":0.3937007874015748},{"duration":0.09090900000001056,"midi":62,"time":275.999724,"velocity":0.3937007874015748},{"duration":0.09090899999995372,"midi":62,"time":276.18154200000004,"velocity":0.3937007874015748},{"duration":0.18181800000002113,"midi":69,"time":276.36336,"velocity":0.3937007874015748},{"duration":0.09090900000001056,"midi":57,"time":276.36336,"velocity":0.3937007874015748},{"duration":0.09090900000001056,"midi":57,"time":276.545178,"velocity":0.3937007874015748},{"duration":0.09090900000001056,"midi":57,"time":276.726996,"velocity":0.3937007874015748},{"duration":0.09090900000001056,"midi":57,"time":276.908814,"velocity":0.3937007874015748},{"duration":0.09090900000001056,"midi":57,"time":277.090632,"velocity":0.3937007874015748},{"duration":0.18181799999996429,"midi":69,"time":277.090632,"velocity":0.3937007874015748},{"duration":0.09090900000001056,"midi":57,"time":277.27245,"velocity":0.3937007874015748},{"duration":0.09090900000001056,"midi":58,"time":277.454268,"velocity":0.3937007874015748},{"duration":0.09090899999995372,"midi":57,"time":277.63608600000003,"velocity":0.3937007874015748},{"duration":0.09090900000001056,"midi":55,"time":277.817904,"velocity":0.3937007874015748},{"duration":0.18181800000002113,"midi":67,"time":277.817904,"velocity":0.3937007874015748},{"duration":0.09090900000001056,"midi":55,"time":277.999722,"velocity":0.3937007874015748},{"duration":0.09090900000001056,"midi":55,"time":278.18154,"velocity":0.3937007874015748},{"duration":0.09090900000001056,"midi":55,"time":278.363358,"velocity":0.3937007874015748},{"duration":0.09090900000001056,"midi":55,"time":278.545176,"velocity":0.3937007874015748},{"duration":0.18181799999996429,"midi":67,"time":278.545176,"velocity":0.3937007874015748},{"duration":0.09090900000001056,"midi":55,"time":278.726994,"velocity":0.3937007874015748},{"duration":0.09090900000001056,"midi":53,"time":278.908812,"velocity":0.3937007874015748},{"duration":0.09090899999995372,"midi":53,"time":279.09063000000003,"velocity":0.3937007874015748},{"duration":0.09090900000001056,"midi":55,"time":279.272448,"velocity":0.3937007874015748},{"duration":0.18181800000002113,"midi":67,"time":279.272448,"velocity":0.3937007874015748},{"duration":0.09090900000001056,"midi":55,"time":279.454266,"velocity":0.3937007874015748},{"duration":0.09090899999995372,"midi":55,"time":279.63608400000004,"velocity":0.3937007874015748},{"duration":0.09090900000001056,"midi":55,"time":279.817902,"velocity":0.3937007874015748},{"duration":0.09090900000001056,"midi":55,"time":279.99972,"velocity":0.3937007874015748},{"duration":0.18181799999996429,"midi":67,"time":279.99972,"velocity":0.3937007874015748},{"duration":0.09090900000001056,"midi":55,"time":280.181538,"velocity":0.3937007874015748},{"duration":0.09090900000001056,"midi":55,"time":280.363356,"velocity":0.3937007874015748},{"duration":0.09090899999995372,"midi":55,"time":280.54517400000003,"velocity":0.3937007874015748},{"duration":0.18181800000002113,"midi":70,"time":280.726992,"velocity":0.3937007874015748},{"duration":0.09090900000001056,"midi":58,"time":280.726992,"velocity":0.3937007874015748},{"duration":0.09090900000001056,"midi":58,"time":280.90881,"velocity":0.3937007874015748},{"duration":0.09090899999995372,"midi":58,"time":281.09062800000004,"velocity":0.3937007874015748},{"duration":0.09090900000001056,"midi":58,"time":281.272446,"velocity":0.3937007874015748},{"duration":0.18181799999996429,"midi":70,"time":281.454264,"velocity":0.3937007874015748},{"duration":0.09090900000001056,"midi":58,"time":281.454264,"velocity":0.3937007874015748},{"duration":0.09090900000001056,"midi":58,"time":281.636082,"velocity":0.3937007874015748},{"duration":0.09090900000001056,"midi":60,"time":281.8179,"velocity":0.3937007874015748},{"duration":0.09090899999995372,"midi":58,"time":281.99971800000003,"velocity":0.3937007874015748},{"duration":0.09090900000001056,"midi":57,"time":282.181536,"velocity":0.3937007874015748},{"duration":0.18181800000002113,"midi":69,"time":282.181536,"velocity":0.3937007874015748},{"duration":0.09090900000001056,"midi":57,"time":282.363354,"velocity":0.3937007874015748},{"duration":0.09090899999995372,"midi":57,"time":282.54517200000004,"velocity":0.3937007874015748},{"duration":0.09090900000001056,"midi":57,"time":282.72699,"velocity":0.3937007874015748},{"duration":0.18181799999996429,"midi":69,"time":282.908808,"velocity":0.3937007874015748},{"duration":0.09090900000001056,"midi":57,"time":282.908808,"velocity":0.3937007874015748},{"duration":0.09090900000001056,"midi":57,"time":283.090626,"velocity":0.3937007874015748},{"duration":0.09090900000001056,"midi":57,"time":283.272444,"velocity":0.3937007874015748},{"duration":0.09090900000001056,"midi":55,"time":283.454262,"velocity":0.3937007874015748},{"duration":0.09090900000001056,"midi":58,"time":283.63608,"velocity":0.3937007874015748},{"duration":0.18181800000002113,"midi":70,"time":283.63608,"velocity":0.3937007874015748},{"duration":0.09090900000001056,"midi":58,"time":283.817898,"velocity":0.3937007874015748},{"duration":0.09090899999995372,"midi":58,"time":283.99971600000003,"velocity":0.3937007874015748},{"duration":0.09090900000001056,"midi":58,"time":284.181534,"velocity":0.3937007874015748},{"duration":0.09090900000001056,"midi":58,"time":284.363352,"velocity":0.3937007874015748},{"duration":0.18181799999996429,"midi":70,"time":284.363352,"velocity":0.3937007874015748},{"duration":0.09090900000001056,"midi":58,"time":284.54517,"velocity":0.3937007874015748},{"duration":0.09090900000001056,"midi":58,"time":284.726988,"velocity":0.3937007874015748},{"duration":0.09090900000001056,"midi":58,"time":284.908806,"velocity":0.3937007874015748},{"duration":0.09090900000001056,"midi":62,"time":285.090624,"velocity":0.3937007874015748},{"duration":0.18181800000002113,"midi":74,"time":285.090624,"velocity":0.3937007874015748},{"duration":0.09090900000001056,"midi":62,"time":285.272442,"velocity":0.3937007874015748},{"duration":0.09090899999995372,"midi":62,"time":285.45426000000003,"velocity":0.3937007874015748},{"duration":0.09090900000001056,"midi":62,"time":285.636078,"velocity":0.3937007874015748},{"duration":0.18181800000002113,"midi":74,"time":285.817896,"velocity":0.3937007874015748},{"duration":0.09090900000001056,"midi":62,"time":285.817896,"velocity":0.3937007874015748},{"duration":0.09090899999995372,"midi":62,"time":285.99971400000004,"velocity":0.3937007874015748},{"duration":0.09090900000001056,"midi":62,"time":286.181532,"velocity":0.3937007874015748},{"duration":0.09090900000001056,"midi":63,"time":286.36335,"velocity":0.3937007874015748},{"duration":0.18181800000002113,"midi":74,"time":286.545168,"velocity":0.3937007874015748},{"duration":0.09090900000001056,"midi":62,"time":286.545168,"velocity":0.3937007874015748},{"duration":0.09090900000001056,"midi":62,"time":286.726986,"velocity":0.3937007874015748},{"duration":0.09090899999995372,"midi":62,"time":286.90880400000003,"velocity":0.3937007874015748},{"duration":0.09090900000001056,"midi":62,"time":287.090622,"velocity":0.3937007874015748},{"duration":0.09090900000001056,"midi":62,"time":287.27244,"velocity":0.3937007874015748},{"duration":0.18181800000002113,"midi":74,"time":287.27244,"velocity":0.3937007874015748},{"duration":0.09090899999995372,"midi":62,"time":287.45425800000004,"velocity":0.3937007874015748},{"duration":0.09090900000001056,"midi":62,"time":287.636076,"velocity":0.3937007874015748},{"duration":0.09090900000001056,"midi":62,"time":287.817894,"velocity":0.3937007874015748},{"duration":0.18181800000002113,"midi":69,"time":287.999712,"velocity":0.3937007874015748},{"duration":0.09090900000001056,"midi":57,"time":287.999712,"velocity":0.3937007874015748},{"duration":0.09090900000001056,"midi":57,"time":288.18153,"velocity":0.3937007874015748},{"duration":0.09090899999995372,"midi":57,"time":288.36334800000003,"velocity":0.3937007874015748},{"duration":0.09090900000001056,"midi":57,"time":288.545166,"velocity":0.3937007874015748},{"duration":0.18181800000002113,"midi":69,"time":288.726984,"velocity":0.3937007874015748},{"duration":0.09090900000001056,"midi":57,"time":288.726984,"velocity":0.3937007874015748},{"duration":0.09090899999995372,"midi":57,"time":288.90880200000004,"velocity":0.3937007874015748},{"duration":0.09090900000001056,"midi":58,"time":289.09062,"velocity":0.3937007874015748},{"duration":0.09090900000001056,"midi":57,"time":289.272438,"velocity":0.3937007874015748},{"duration":0.09090900000001056,"midi":55,"time":289.454256,"velocity":0.3937007874015748},{"duration":0.18181800000002113,"midi":67,"time":289.454256,"velocity":0.3937007874015748},{"duration":0.09090900000001056,"midi":55,"time":289.636074,"velocity":0.3937007874015748},{"duration":0.09090900000001056,"midi":55,"time":289.81789200000003,"velocity":0.3937007874015748},{"duration":0.09090900000001056,"midi":55,"time":289.99971,"velocity":0.3937007874015748},{"duration":0.18181800000002113,"midi":67,"time":290.181528,"velocity":0.3937007874015748},{"duration":0.09090900000001056,"midi":55,"time":290.181528,"velocity":0.3937007874015748},{"duration":0.09090899999995372,"midi":55,"time":290.36334600000004,"velocity":0.3937007874015748},{"duration":0.09090900000001056,"midi":53,"time":290.545164,"velocity":0.3937007874015748},{"duration":0.09090900000001056,"midi":53,"time":290.726982,"velocity":0.3937007874015748},{"duration":0.18181800000002113,"midi":67,"time":290.9088,"velocity":0.3937007874015748},{"duration":0.18181800000002113,"midi":67,"time":291.636072,"velocity":0.3937007874015748},{"duration":0.18181800000002113,"midi":70,"time":292.363344,"velocity":0.3937007874015748},{"duration":0.18181800000002113,"midi":70,"time":293.090616,"velocity":0.3937007874015748},{"duration":0.18181799999996429,"midi":69,"time":293.81788800000004,"velocity":0.3937007874015748},{"duration":0.18181800000002113,"midi":69,"time":294.54516,"velocity":0.3937007874015748},{"duration":0.18181799999996429,"midi":70,"time":295.27243200000004,"velocity":0.3937007874015748},{"duration":0.18181800000002113,"midi":70,"time":295.999704,"velocity":0.3937007874015748},{"duration":0.18181799999996429,"midi":74,"time":296.72697600000004,"velocity":0.3937007874015748},{"duration":0.18181800000002113,"midi":74,"time":297.454248,"velocity":0.3937007874015748},{"duration":0.18181799999996429,"midi":74,"time":298.18152000000003,"velocity":0.3937007874015748},{"duration":0.18181800000002113,"midi":74,"time":298.908792,"velocity":0.3937007874015748},{"duration":0.18181799999996429,"midi":69,"time":299.63606400000003,"velocity":0.3937007874015748},{"duration":0.18181800000002113,"midi":69,"time":300.363336,"velocity":0.3937007874015748},{"duration":0.18181799999996429,"midi":67,"time":301.09060800000003,"velocity":0.3937007874015748},{"duration":0.18181800000002113,"midi":67,"time":301.81788,"velocity":0.3937007874015748}]},{"instrument":{"family":"piano","number":0,"name":"acoustic grand piano"},"notes":[{"duration":0.181818,"midi":43,"time":0,"velocity":0.2755905511811024},{"duration":0.181818,"midi":50,"time":0.181818,"velocity":0.2755905511811024},{"duration":0.181818,"midi":43,"time":0.181818,"velocity":0.2755905511811024},{"duration":0.18181799999999998,"midi":43,"time":0.363636,"velocity":0.2755905511811024},{"duration":0.18181800000000004,"midi":50,"time":0.545454,"velocity":0.2755905511811024},{"duration":0.18181800000000004,"midi":43,"time":0.545454,"velocity":0.2755905511811024},{"duration":0.18181800000000004,"midi":43,"time":0.727272,"velocity":0.2755905511811024},{"duration":0.18181799999999992,"midi":50,"time":0.9090900000000001,"velocity":0.2755905511811024},{"duration":0.18181799999999992,"midi":43,"time":0.9090900000000001,"velocity":0.2755905511811024},{"duration":0.18181800000000004,"midi":43,"time":1.090908,"velocity":0.2755905511811024},{"duration":0.18181800000000004,"midi":43,"time":1.272726,"velocity":0.2755905511811024},{"duration":0.18181800000000004,"midi":50,"time":1.272726,"velocity":0.2755905511811024},{"duration":0.18181800000000004,"midi":43,"time":1.454544,"velocity":0.2755905511811024},{"duration":0.18181800000000004,"midi":50,"time":1.636362,"velocity":0.2755905511811024},{"duration":0.18181800000000004,"midi":43,"time":1.636362,"velocity":0.2755905511811024},{"duration":0.18181800000000004,"midi":43,"time":1.8181800000000001,"velocity":0.2755905511811024},{"duration":0.1818179999999998,"midi":43,"time":1.9999980000000002,"velocity":0.2755905511811024},{"duration":0.1818179999999998,"midi":50,"time":1.9999980000000002,"velocity":0.2755905511811024},{"duration":0.18181800000000026,"midi":43,"time":2.181816,"velocity":0.2755905511811024},{"duration":0.1818179999999998,"midi":43,"time":2.3636340000000002,"velocity":0.2755905511811024},{"duration":0.1818179999999998,"midi":50,"time":2.3636340000000002,"velocity":0.2755905511811024},{"duration":0.18181800000000026,"midi":43,"time":2.545452,"velocity":0.2755905511811024},{"duration":0.1818179999999998,"midi":50,"time":2.7272700000000003,"velocity":0.2755905511811024},{"duration":0.1818179999999998,"midi":43,"time":2.7272700000000003,"velocity":0.2755905511811024},{"duration":0.1818179999999998,"midi":43,"time":2.909088,"velocity":0.2755905511811024},{"duration":0.18181800000000026,"midi":50,"time":3.090906,"velocity":0.2755905511811024},{"duration":0.18181800000000026,"midi":43,"time":3.090906,"velocity":0.2755905511811024},{"duration":0.1818179999999998,"midi":43,"time":3.272724,"velocity":0.2755905511811024},{"duration":0.18181800000000026,"midi":50,"time":3.454542,"velocity":0.2755905511811024},{"duration":0.18181800000000026,"midi":43,"time":3.454542,"velocity":0.2755905511811024},{"duration":0.1818179999999998,"midi":43,"time":3.6363600000000003,"velocity":0.2755905511811024},{"duration":0.18181800000000026,"midi":50,"time":3.818178,"velocity":0.2755905511811024},{"duration":0.18181800000000026,"midi":43,"time":3.818178,"velocity":0.2755905511811024},{"duration":0.1818179999999998,"midi":43,"time":3.9999960000000003,"velocity":0.2755905511811024},{"duration":0.1818179999999998,"midi":43,"time":4.181814,"velocity":0.2755905511811024},{"duration":0.1818179999999998,"midi":50,"time":4.181814,"velocity":0.2755905511811024},{"duration":0.1818179999999998,"midi":43,"time":4.363632,"velocity":0.2755905511811024},{"duration":0.1818180000000007,"midi":43,"time":4.54545,"velocity":0.2755905511811024},{"duration":0.1818180000000007,"midi":50,"time":4.54545,"velocity":0.2755905511811024},{"duration":0.1818179999999998,"midi":43,"time":4.7272680000000005,"velocity":0.2755905511811024},{"duration":0.1818179999999998,"midi":50,"time":4.909086,"velocity":0.2755905511811024},{"duration":0.1818179999999998,"midi":43,"time":4.909086,"velocity":0.2755905511811024},{"duration":0.1818179999999998,"midi":43,"time":5.090904,"velocity":0.2755905511811024},{"duration":0.1818180000000007,"midi":50,"time":5.272722,"velocity":0.2755905511811024},{"duration":0.1818180000000007,"midi":43,"time":5.272722,"velocity":0.2755905511811024},{"duration":0.1818179999999998,"midi":43,"time":5.454540000000001,"velocity":0.2755905511811024},{"duration":0.1818179999999998,"midi":50,"time":5.636358,"velocity":0.2755905511811024},{"duration":0.1818179999999998,"midi":43,"time":5.636358,"velocity":0.2755905511811024},{"duration":0.1818179999999998,"midi":43,"time":5.818176,"velocity":0.2755905511811024},{"duration":0.1818179999999998,"midi":43,"time":5.999994,"velocity":0.2755905511811024},{"duration":0.1818179999999998,"midi":50,"time":5.999994,"velocity":0.2755905511811024},{"duration":0.1818180000000007,"midi":43,"time":6.181812,"velocity":0.2755905511811024},{"duration":0.1818179999999998,"midi":50,"time":6.363630000000001,"velocity":0.2755905511811024},{"duration":0.1818179999999998,"midi":43,"time":6.363630000000001,"velocity":0.2755905511811024},{"duration":0.1818179999999998,"midi":43,"time":6.545448,"velocity":0.2755905511811024},{"duration":0.1818179999999998,"midi":50,"time":6.727266,"velocity":0.2755905511811024},{"duration":0.1818179999999998,"midi":43,"time":6.727266,"velocity":0.2755905511811024},{"duration":0.1818180000000007,"midi":43,"time":6.909084,"velocity":0.2755905511811024},{"duration":0.1818179999999998,"midi":50,"time":7.090902000000001,"velocity":0.2755905511811024},{"duration":0.1818179999999998,"midi":43,"time":7.090902000000001,"velocity":0.2755905511811024},{"duration":0.1818179999999998,"midi":43,"time":7.2727200000000005,"velocity":0.2755905511811024},{"duration":0.1818179999999998,"midi":50,"time":7.454538,"velocity":0.2755905511811024},{"duration":0.1818179999999998,"midi":43,"time":7.454538,"velocity":0.2755905511811024},{"duration":0.1818179999999998,"midi":43,"time":7.636356,"velocity":0.2755905511811024},{"duration":0.1818180000000007,"midi":43,"time":7.818174,"velocity":0.2755905511811024},{"duration":0.1818180000000007,"midi":50,"time":7.818174,"velocity":0.2755905511811024},{"duration":0.1818179999999998,"midi":43,"time":7.999992000000001,"velocity":0.2755905511811024},{"duration":0.1818179999999998,"midi":50,"time":8.18181,"velocity":0.2755905511811024},{"duration":0.1818179999999998,"midi":43,"time":8.18181,"velocity":0.2755905511811024},{"duration":0.1818179999999998,"midi":43,"time":8.363628,"velocity":0.2755905511811024},{"duration":0.1818179999999998,"midi":43,"time":8.545446,"velocity":0.2755905511811024},{"duration":0.1818179999999998,"midi":50,"time":8.545446,"velocity":0.2755905511811024},{"duration":0.1818179999999998,"midi":43,"time":8.727264,"velocity":0.2755905511811024},{"duration":0.1818179999999998,"midi":50,"time":8.909082,"velocity":0.2755905511811024},{"duration":0.1818179999999998,"midi":43,"time":8.909082,"velocity":0.2755905511811024},{"duration":0.1818180000000016,"midi":43,"time":9.0909,"velocity":0.2755905511811024},{"duration":0.1818179999999998,"midi":43,"time":9.272718000000001,"velocity":0.2755905511811024},{"duration":0.1818179999999998,"midi":50,"time":9.272718000000001,"velocity":0.2755905511811024},{"duration":0.1818179999999998,"midi":43,"time":9.454536000000001,"velocity":0.2755905511811024},{"duration":0.1818179999999998,"midi":50,"time":9.636354,"velocity":0.2755905511811024},{"duration":0.1818179999999998,"midi":43,"time":9.636354,"velocity":0.2755905511811024},{"duration":0.1818179999999998,"midi":43,"time":9.818172,"velocity":0.2755905511811024},{"duration":0.1818179999999998,"midi":43,"time":9.99999,"velocity":0.2755905511811024},{"duration":0.1818179999999998,"midi":50,"time":9.99999,"velocity":0.2755905511811024},{"duration":0.1818179999999998,"midi":43,"time":10.181808,"velocity":0.2755905511811024},{"duration":0.1818179999999998,"midi":43,"time":10.363626,"velocity":0.2755905511811024},{"duration":0.1818179999999998,"midi":50,"time":10.363626,"velocity":0.2755905511811024},{"duration":0.1818179999999998,"midi":43,"time":10.545444,"velocity":0.2755905511811024},{"duration":0.1818180000000016,"midi":43,"time":10.727262,"velocity":0.2755905511811024},{"duration":0.1818180000000016,"midi":50,"time":10.727262,"velocity":0.2755905511811024},{"duration":0.1818179999999998,"midi":43,"time":10.909080000000001,"velocity":0.2755905511811024},{"duration":0.1818179999999998,"midi":50,"time":11.090898000000001,"velocity":0.2755905511811024},{"duration":0.1818179999999998,"midi":43,"time":11.090898000000001,"velocity":0.2755905511811024},{"duration":0.1818179999999998,"midi":31,"time":11.636352,"velocity":0.2755905511811024},{"duration":0.1818179999999998,"midi":31,"time":11.636352,"velocity":0.2755905511811024},{"duration":0.3636359999999996,"midi":31,"time":11.636352,"velocity":0.2755905511811024},{"duration":0.1818179999999998,"midi":43,"time":11.636352,"velocity":0.2755905511811024},{"duration":0.1818179999999998,"midi":43,"time":11.636352,"velocity":0.2755905511811024},{"duration":0.3636359999999996,"midi":31,"time":11.636352,"velocity":0.2755905511811024},{"duration":0.1818179999999998,"midi":55,"time":11.81817,"velocity":0.2755905511811024},{"duration":0.1818179999999998,"midi":55,"time":11.81817,"velocity":0.2755905511811024},{"duration":0.1818179999999998,"midi":43,"time":11.81817,"velocity":0.2755905511811024},{"duration":0.1818179999999998,"midi":43,"time":11.81817,"velocity":0.2755905511811024},{"duration":0.1818179999999998,"midi":31,"time":11.999988,"velocity":0.2755905511811024},{"duration":0.1818179999999998,"midi":31,"time":11.999988,"velocity":0.2755905511811024},{"duration":0.3636359999999996,"midi":31,"time":11.999988,"velocity":0.2755905511811024},{"duration":0.1818179999999998,"midi":43,"time":11.999988,"velocity":0.2755905511811024},{"duration":0.3636359999999996,"midi":31,"time":11.999988,"velocity":0.2755905511811024},{"duration":0.1818179999999998,"midi":43,"time":11.999988,"velocity":0.2755905511811024},{"duration":0.1818179999999998,"midi":55,"time":12.181806,"velocity":0.2755905511811024},{"duration":0.1818179999999998,"midi":55,"time":12.181806,"velocity":0.2755905511811024},{"duration":0.1818179999999998,"midi":43,"time":12.181806,"velocity":0.2755905511811024},{"duration":0.1818179999999998,"midi":43,"time":12.181806,"velocity":0.2755905511811024},{"duration":0.1818180000000016,"midi":31,"time":12.363624,"velocity":0.2755905511811024},{"duration":0.1818180000000016,"midi":43,"time":12.363624,"velocity":0.2755905511811024},{"duration":0.1818180000000016,"midi":31,"time":12.363624,"velocity":0.2755905511811024},{"duration":0.3636360000000014,"midi":31,"time":12.363624,"velocity":0.2755905511811024},{"duration":0.1818180000000016,"midi":43,"time":12.363624,"velocity":0.2755905511811024},{"duration":0.3636360000000014,"midi":31,"time":12.363624,"velocity":0.2755905511811024},{"duration":0.1818179999999998,"midi":55,"time":12.545442000000001,"velocity":0.2755905511811024},{"duration":0.1818179999999998,"midi":55,"time":12.545442000000001,"velocity":0.2755905511811024},{"duration":0.1818179999999998,"midi":43,"time":12.545442000000001,"velocity":0.2755905511811024},{"duration":0.1818179999999998,"midi":43,"time":12.545442000000001,"velocity":0.2755905511811024},{"duration":0.1818179999999998,"midi":31,"time":12.727260000000001,"velocity":0.2755905511811024},{"duration":0.1818179999999998,"midi":43,"time":12.727260000000001,"velocity":0.2755905511811024},{"duration":0.1818179999999998,"midi":31,"time":12.727260000000001,"velocity":0.2755905511811024},{"duration":0.3636359999999996,"midi":31,"time":12.727260000000001,"velocity":0.2755905511811024},{"duration":0.1818179999999998,"midi":43,"time":12.727260000000001,"velocity":0.2755905511811024},{"duration":0.3636359999999996,"midi":31,"time":12.727260000000001,"velocity":0.2755905511811024},{"duration":0.1818179999999998,"midi":55,"time":12.909078000000001,"velocity":0.2755905511811024},{"duration":0.1818179999999998,"midi":43,"time":12.909078000000001,"velocity":0.2755905511811024},{"duration":0.1818179999999998,"midi":43,"time":12.909078000000001,"velocity":0.2755905511811024},{"duration":0.1818179999999998,"midi":55,"time":12.909078000000001,"velocity":0.2755905511811024},{"duration":0.1818179999999998,"midi":28,"time":13.090896,"velocity":0.2755905511811024},{"duration":0.1818179999999998,"midi":28,"time":13.090896,"velocity":0.2755905511811024},{"duration":0.1818179999999998,"midi":40,"time":13.090896,"velocity":0.2755905511811024},{"duration":0.1818179999999998,"midi":28,"time":13.090896,"velocity":0.2755905511811024},{"duration":0.1818179999999998,"midi":28,"time":13.090896,"velocity":0.2755905511811024},{"duration":0.3636359999999996,"midi":28,"time":13.090896,"velocity":0.2755905511811024},{"duration":0.3636359999999996,"midi":28,"time":13.090896,"velocity":0.2755905511811024},{"duration":0.1818179999999998,"midi":40,"time":13.090896,"velocity":0.2755905511811024},{"duration":0.1818179999999998,"midi":40,"time":13.272714,"velocity":0.2755905511811024},{"duration":0.1818179999999998,"midi":40,"time":13.272714,"velocity":0.2755905511811024},{"duration":0.1818179999999998,"midi":52,"time":13.272714,"velocity":0.2755905511811024},{"duration":0.1818179999999998,"midi":52,"time":13.272714,"velocity":0.2755905511811024},{"duration":0.1818179999999998,"midi":28,"time":13.454532,"velocity":0.2755905511811024},{"duration":0.1818179999999998,"midi":28,"time":13.454532,"velocity":0.2755905511811024},{"duration":0.1818179999999998,"midi":40,"time":13.454532,"velocity":0.2755905511811024},{"duration":0.1818179999999998,"midi":40,"time":13.454532,"velocity":0.2755905511811024},{"duration":0.1818179999999998,"midi":28,"time":13.454532,"velocity":0.2755905511811024},{"duration":0.1818179999999998,"midi":28,"time":13.454532,"velocity":0.2755905511811024},{"duration":0.3636359999999996,"midi":28,"time":13.454532,"velocity":0.2755905511811024},{"duration":0.3636359999999996,"midi":28,"time":13.454532,"velocity":0.2755905511811024},{"duration":0.1818179999999998,"midi":52,"time":13.63635,"velocity":0.2755905511811024},{"duration":0.1818179999999998,"midi":40,"time":13.63635,"velocity":0.2755905511811024},{"duration":0.1818179999999998,"midi":40,"time":13.63635,"velocity":0.2755905511811024},{"duration":0.1818179999999998,"midi":52,"time":13.63635,"velocity":0.2755905511811024},{"duration":0.1818179999999998,"midi":28,"time":13.818168,"velocity":0.2755905511811024},{"duration":0.1818179999999998,"midi":28,"time":13.818168,"velocity":0.2755905511811024},{"duration":0.1818179999999998,"midi":28,"time":13.818168,"velocity":0.2755905511811024},{"duration":0.1818179999999998,"midi":28,"time":13.818168,"velocity":0.2755905511811024},{"duration":0.1818179999999998,"midi":40,"time":13.818168,"velocity":0.2755905511811024},{"duration":0.3636360000000014,"midi":28,"time":13.818168,"velocity":0.2755905511811024},{"duration":0.1818179999999998,"midi":40,"time":13.818168,"velocity":0.2755905511811024},{"duration":0.3636360000000014,"midi":28,"time":13.818168,"velocity":0.2755905511811024},{"duration":0.1818180000000016,"midi":52,"time":13.999986,"velocity":0.2755905511811024},{"duration":0.1818180000000016,"midi":40,"time":13.999986,"velocity":0.2755905511811024},{"duration":0.1818180000000016,"midi":52,"time":13.999986,"velocity":0.2755905511811024},{"duration":0.1818180000000016,"midi":40,"time":13.999986,"velocity":0.2755905511811024},{"duration":0.1818179999999998,"midi":28,"time":14.181804000000001,"velocity":0.2755905511811024},{"duration":0.1818179999999998,"midi":28,"time":14.181804000000001,"velocity":0.2755905511811024},{"duration":0.1818179999999998,"midi":28,"time":14.181804000000001,"velocity":0.2755905511811024},{"duration":0.1818179999999998,"midi":28,"time":14.181804000000001,"velocity":0.2755905511811024},{"duration":0.3636359999999996,"midi":28,"time":14.181804000000001,"velocity":0.2755905511811024},{"duration":0.1818179999999998,"midi":40,"time":14.181804000000001,"velocity":0.2755905511811024},{"duration":0.1818179999999998,"midi":40,"time":14.181804000000001,"velocity":0.2755905511811024},{"duration":0.3636359999999996,"midi":28,"time":14.181804000000001,"velocity":0.2755905511811024},{"duration":0.1818179999999998,"midi":52,"time":14.363622000000001,"velocity":0.2755905511811024},{"duration":0.1818179999999998,"midi":40,"time":14.363622000000001,"velocity":0.2755905511811024},{"duration":0.1818179999999998,"midi":52,"time":14.363622000000001,"velocity":0.2755905511811024},{"duration":0.1818179999999998,"midi":40,"time":14.363622000000001,"velocity":0.2755905511811024},{"duration":0.1818179999999998,"midi":29,"time":14.545440000000001,"velocity":0.2755905511811024},{"duration":0.1818179999999998,"midi":29,"time":14.545440000000001,"velocity":0.2755905511811024},{"duration":0.1818179999999998,"midi":29,"time":14.545440000000001,"velocity":0.2755905511811024},{"duration":0.1818179999999998,"midi":41,"time":14.545440000000001,"velocity":0.2755905511811024},{"duration":0.1818179999999998,"midi":29,"time":14.545440000000001,"velocity":0.2755905511811024},{"duration":0.3636359999999996,"midi":29,"time":14.545440000000001,"velocity":0.2755905511811024},{"duration":0.3636359999999996,"midi":29,"time":14.545440000000001,"velocity":0.2755905511811024},{"duration":0.1818179999999998,"midi":41,"time":14.545440000000001,"velocity":0.2755905511811024},{"duration":0.1818179999999998,"midi":53,"time":14.727258,"velocity":0.2755905511811024},{"duration":0.1818179999999998,"midi":41,"time":14.727258,"velocity":0.2755905511811024},{"duration":0.1818179999999998,"midi":53,"time":14.727258,"velocity":0.2755905511811024},{"duration":0.1818179999999998,"midi":41,"time":14.727258,"velocity":0.2755905511811024},{"duration":0.1818179999999998,"midi":41,"time":14.909076,"velocity":0.2755905511811024},{"duration":0.1818179999999998,"midi":29,"time":14.909076,"velocity":0.2755905511811024},{"duration":0.1818179999999998,"midi":29,"time":14.909076,"velocity":0.2755905511811024},{"duration":0.1818179999999998,"midi":29,"time":14.909076,"velocity":0.2755905511811024},{"duration":0.1818179999999998,"midi":41,"time":14.909076,"velocity":0.2755905511811024},{"duration":0.1818179999999998,"midi":29,"time":14.909076,"velocity":0.2755905511811024},{"duration":0.3636359999999996,"midi":29,"time":14.909076,"velocity":0.2755905511811024},{"duration":0.3636359999999996,"midi":29,"time":14.909076,"velocity":0.2755905511811024},{"duration":0.1818179999999998,"midi":41,"time":15.090894,"velocity":0.2755905511811024},{"duration":0.1818179999999998,"midi":53,"time":15.090894,"velocity":0.2755905511811024},{"duration":0.1818179999999998,"midi":53,"time":15.090894,"velocity":0.2755905511811024},{"duration":0.1818179999999998,"midi":41,"time":15.090894,"velocity":0.2755905511811024},{"duration":0.1818179999999998,"midi":29,"time":15.272712,"velocity":0.2755905511811024},{"duration":0.1818179999999998,"midi":41,"time":15.272712,"velocity":0.2755905511811024},{"duration":0.1818179999999998,"midi":29,"time":15.272712,"velocity":0.2755905511811024},{"duration":0.1818179999999998,"midi":29,"time":15.272712,"velocity":0.2755905511811024},{"duration":0.1818179999999998,"midi":29,"time":15.272712,"velocity":0.2755905511811024},{"duration":0.3636359999999996,"midi":29,"time":15.272712,"velocity":0.2755905511811024},{"duration":0.1818179999999998,"midi":41,"time":15.272712,"velocity":0.2755905511811024},{"duration":0.3636359999999996,"midi":29,"time":15.272712,"velocity":0.2755905511811024},{"duration":0.1818179999999998,"midi":53,"time":15.45453,"velocity":0.2755905511811024},{"duration":0.1818179999999998,"midi":41,"time":15.45453,"velocity":0.2755905511811024},{"duration":0.1818179999999998,"midi":41,"time":15.45453,"velocity":0.2755905511811024},{"duration":0.1818179999999998,"midi":53,"time":15.45453,"velocity":0.2755905511811024},{"duration":0.1818180000000016,"midi":29,"time":15.636348,"velocity":0.2755905511811024},{"duration":0.1818180000000016,"midi":41,"time":15.636348,"velocity":0.2755905511811024},{"duration":0.1818180000000016,"midi":29,"time":15.636348,"velocity":0.2755905511811024},{"duration":0.1818180000000016,"midi":29,"time":15.636348,"velocity":0.2755905511811024},{"duration":0.1818180000000016,"midi":41,"time":15.636348,"velocity":0.2755905511811024},{"duration":0.1818180000000016,"midi":29,"time":15.636348,"velocity":0.2755905511811024},{"duration":0.3636360000000014,"midi":29,"time":15.636348,"velocity":0.2755905511811024},{"duration":0.3636360000000014,"midi":29,"time":15.636348,"velocity":0.2755905511811024},{"duration":0.1818179999999998,"midi":41,"time":15.818166000000002,"velocity":0.2755905511811024},{"duration":0.1818179999999998,"midi":41,"time":15.818166000000002,"velocity":0.2755905511811024},{"duration":0.1818179999999998,"midi":53,"time":15.818166000000002,"velocity":0.2755905511811024},{"duration":0.1818179999999998,"midi":53,"time":15.818166000000002,"velocity":0.2755905511811024},{"duration":0.1818179999999998,"midi":31,"time":15.999984000000001,"velocity":0.2755905511811024},{"duration":0.1818179999999998,"midi":43,"time":15.999984000000001,"velocity":0.2755905511811024},{"duration":0.1818179999999998,"midi":31,"time":15.999984000000001,"velocity":0.2755905511811024},{"duration":0.1818179999999998,"midi":31,"time":15.999984000000001,"velocity":0.2755905511811024},{"duration":0.1818179999999998,"midi":43,"time":15.999984000000001,"velocity":0.2755905511811024},{"duration":0.1818179999999998,"midi":31,"time":15.999984000000001,"velocity":0.2755905511811024},{"duration":0.3636359999999996,"midi":31,"time":15.999984000000001,"velocity":0.2755905511811024},{"duration":0.3636359999999996,"midi":31,"time":15.999984000000001,"velocity":0.2755905511811024},{"duration":0.1818179999999998,"midi":43,"time":16.181802,"velocity":0.2755905511811024},{"duration":0.1818179999999998,"midi":43,"time":16.181802,"velocity":0.2755905511811024},{"duration":0.1818179999999998,"midi":55,"time":16.181802,"velocity":0.2755905511811024},{"duration":0.1818179999999998,"midi":55,"time":16.181802,"velocity":0.2755905511811024},{"duration":0.1818179999999998,"midi":43,"time":16.36362,"velocity":0.2755905511811024},{"duration":0.1818179999999998,"midi":31,"time":16.36362,"velocity":0.2755905511811024},{"duration":0.1818179999999998,"midi":43,"time":16.36362,"velocity":0.2755905511811024},{"duration":0.1818179999999998,"midi":31,"time":16.36362,"velocity":0.2755905511811024},{"duration":0.1818179999999998,"midi":31,"time":16.36362,"velocity":0.2755905511811024},{"duration":0.1818179999999998,"midi":31,"time":16.36362,"velocity":0.2755905511811024},{"duration":0.3636359999999996,"midi":31,"time":16.36362,"velocity":0.2755905511811024},{"duration":0.3636359999999996,"midi":31,"time":16.36362,"velocity":0.2755905511811024},{"duration":0.1818179999999998,"midi":55,"time":16.545438,"velocity":0.2755905511811024},{"duration":0.1818179999999998,"midi":55,"time":16.545438,"velocity":0.2755905511811024},{"duration":0.1818179999999998,"midi":43,"time":16.545438,"velocity":0.2755905511811024},{"duration":0.1818179999999998,"midi":43,"time":16.545438,"velocity":0.2755905511811024},{"duration":0.1818179999999998,"midi":43,"time":16.727256,"velocity":0.2755905511811024},{"duration":0.1818179999999998,"midi":31,"time":16.727256,"velocity":0.2755905511811024},{"duration":0.1818179999999998,"midi":31,"time":16.727256,"velocity":0.2755905511811024},{"duration":0.1818179999999998,"midi":31,"time":16.727256,"velocity":0.2755905511811024},{"duration":0.1818179999999998,"midi":31,"time":16.727256,"velocity":0.2755905511811024},{"duration":0.3636359999999996,"midi":31,"time":16.727256,"velocity":0.2755905511811024},{"duration":0.1818179999999998,"midi":43,"time":16.727256,"velocity":0.2755905511811024},{"duration":0.3636359999999996,"midi":31,"time":16.727256,"velocity":0.2755905511811024},{"duration":0.1818179999999998,"midi":55,"time":16.909074,"velocity":0.2755905511811024},{"duration":0.1818179999999998,"midi":43,"time":16.909074,"velocity":0.2755905511811024},{"duration":0.1818179999999998,"midi":55,"time":16.909074,"velocity":0.2755905511811024},{"duration":0.1818179999999998,"midi":43,"time":16.909074,"velocity":0.2755905511811024},{"duration":0.1818179999999998,"midi":31,"time":17.090892,"velocity":0.2755905511811024},{"duration":0.1818179999999998,"midi":31,"time":17.090892,"velocity":0.2755905511811024},{"duration":0.1818179999999998,"midi":43,"time":17.090892,"velocity":0.2755905511811024},{"duration":0.1818179999999998,"midi":31,"time":17.090892,"velocity":0.2755905511811024},{"duration":0.1818179999999998,"midi":31,"time":17.090892,"velocity":0.2755905511811024},{"duration":0.3636359999999996,"midi":31,"time":17.090892,"velocity":0.2755905511811024},{"duration":0.1818179999999998,"midi":43,"time":17.090892,"velocity":0.2755905511811024},{"duration":0.3636359999999996,"midi":31,"time":17.090892,"velocity":0.2755905511811024},{"duration":0.1818179999999998,"midi":43,"time":17.27271,"velocity":0.2755905511811024},{"duration":0.1818179999999998,"midi":55,"time":17.27271,"velocity":0.2755905511811024},{"duration":0.1818179999999998,"midi":55,"time":17.27271,"velocity":0.2755905511811024},{"duration":0.1818179999999998,"midi":43,"time":17.27271,"velocity":0.2755905511811024},{"duration":0.1818179999999998,"midi":31,"time":17.454528,"velocity":0.2755905511811024},{"duration":0.1818179999999998,"midi":43,"time":17.454528,"velocity":0.2755905511811024},{"duration":0.1818179999999998,"midi":31,"time":17.454528,"velocity":0.2755905511811024},{"duration":0.3636359999999996,"midi":31,"time":17.454528,"velocity":0.2755905511811024},{"duration":0.1818179999999998,"midi":43,"time":17.454528,"velocity":0.2755905511811024},{"duration":0.3636359999999996,"midi":31,"time":17.454528,"velocity":0.2755905511811024},{"duration":0.1818179999999998,"midi":55,"time":17.636346,"velocity":0.2755905511811024},{"duration":0.1818179999999998,"midi":43,"time":17.636346,"velocity":0.2755905511811024},{"duration":0.1818179999999998,"midi":43,"time":17.636346,"velocity":0.2755905511811024},{"duration":0.1818179999999998,"midi":55,"time":17.636346,"velocity":0.2755905511811024},{"duration":0.1818179999999998,"midi":31,"time":17.818164,"velocity":0.2755905511811024},{"duration":0.1818179999999998,"midi":31,"time":17.818164,"velocity":0.2755905511811024},{"duration":0.3636359999999996,"midi":31,"time":17.818164,"velocity":0.2755905511811024},{"duration":0.1818179999999998,"midi":43,"time":17.818164,"velocity":0.2755905511811024},{"duration":0.1818179999999998,"midi":43,"time":17.818164,"velocity":0.2755905511811024},{"duration":0.3636359999999996,"midi":31,"time":17.818164,"velocity":0.2755905511811024},{"duration":0.1818179999999998,"midi":43,"time":17.999982,"velocity":0.2755905511811024},{"duration":0.1818179999999998,"midi":55,"time":17.999982,"velocity":0.2755905511811024},{"duration":0.1818179999999998,"midi":43,"time":17.999982,"velocity":0.2755905511811024},{"duration":0.1818179999999998,"midi":55,"time":17.999982,"velocity":0.2755905511811024},{"duration":0.18181800000000337,"midi":31,"time":18.1818,"velocity":0.2755905511811024},{"duration":0.18181800000000337,"midi":31,"time":18.1818,"velocity":0.2755905511811024},{"duration":0.18181800000000337,"midi":43,"time":18.1818,"velocity":0.2755905511811024},{"duration":0.3636360000000032,"midi":31,"time":18.1818,"velocity":0.2755905511811024},{"duration":0.3636360000000032,"midi":31,"time":18.1818,"velocity":0.2755905511811024},{"duration":0.18181800000000337,"midi":43,"time":18.1818,"velocity":0.2755905511811024},{"duration":0.1818179999999998,"midi":43,"time":18.363618000000002,"velocity":0.2755905511811024},{"duration":0.1818179999999998,"midi":43,"time":18.363618000000002,"velocity":0.2755905511811024},{"duration":0.1818179999999998,"midi":55,"time":18.363618000000002,"velocity":0.2755905511811024},{"duration":0.1818179999999998,"midi":55,"time":18.363618000000002,"velocity":0.2755905511811024},{"duration":0.1818179999999998,"midi":43,"time":18.545436000000002,"velocity":0.2755905511811024},{"duration":0.1818179999999998,"midi":31,"time":18.545436000000002,"velocity":0.2755905511811024},{"duration":0.1818179999999998,"midi":31,"time":18.545436000000002,"velocity":0.2755905511811024},{"duration":0.3636359999999996,"midi":31,"time":18.545436000000002,"velocity":0.2755905511811024},{"duration":0.1818179999999998,"midi":43,"time":18.545436000000002,"velocity":0.2755905511811024},{"duration":0.3636359999999996,"midi":31,"time":18.545436000000002,"velocity":0.2755905511811024},{"duration":0.1818179999999998,"midi":55,"time":18.727254000000002,"velocity":0.2755905511811024},{"duration":0.1818179999999998,"midi":55,"time":18.727254000000002,"velocity":0.2755905511811024},{"duration":0.1818179999999998,"midi":43,"time":18.727254000000002,"velocity":0.2755905511811024},{"duration":0.1818179999999998,"midi":43,"time":18.727254000000002,"velocity":0.2755905511811024},{"duration":0.1818179999999998,"midi":28,"time":18.909072000000002,"velocity":0.2755905511811024},{"duration":0.1818179999999998,"midi":28,"time":18.909072000000002,"velocity":0.2755905511811024},{"duration":0.1818179999999998,"midi":28,"time":18.909072000000002,"velocity":0.2755905511811024},{"duration":0.1818179999999998,"midi":28,"time":18.909072000000002,"velocity":0.2755905511811024},{"duration":0.3636359999999996,"midi":28,"time":18.909072000000002,"velocity":0.2755905511811024},{"duration":0.3636359999999996,"midi":28,"time":18.909072000000002,"velocity":0.2755905511811024},{"duration":0.1818179999999998,"midi":40,"time":18.909072000000002,"velocity":0.2755905511811024},{"duration":0.1818179999999998,"midi":40,"time":18.909072000000002,"velocity":0.2755905511811024},{"duration":0.1818179999999998,"midi":52,"time":19.09089,"velocity":0.2755905511811024},{"duration":0.1818179999999998,"midi":40,"time":19.09089,"velocity":0.2755905511811024},{"duration":0.1818179999999998,"midi":40,"time":19.09089,"velocity":0.2755905511811024},{"duration":0.1818179999999998,"midi":52,"time":19.09089,"velocity":0.2755905511811024},{"duration":0.1818179999999998,"midi":28,"time":19.272708,"velocity":0.2755905511811024},{"duration":0.1818179999999998,"midi":28,"time":19.272708,"velocity":0.2755905511811024},{"duration":0.1818179999999998,"midi":28,"time":19.272708,"velocity":0.2755905511811024},{"duration":0.1818179999999998,"midi":40,"time":19.272708,"velocity":0.2755905511811024},{"duration":0.1818179999999998,"midi":28,"time":19.272708,"velocity":0.2755905511811024},{"duration":0.3636359999999996,"midi":28,"time":19.272708,"velocity":0.2755905511811024},{"duration":0.1818179999999998,"midi":40,"time":19.272708,"velocity":0.2755905511811024},{"duration":0.3636359999999996,"midi":28,"time":19.272708,"velocity":0.2755905511811024},{"duration":0.1818179999999998,"midi":52,"time":19.454526,"velocity":0.2755905511811024},{"duration":0.1818179999999998,"midi":40,"time":19.454526,"velocity":0.2755905511811024},{"duration":0.1818179999999998,"midi":52,"time":19.454526,"velocity":0.2755905511811024},{"duration":0.1818179999999998,"midi":40,"time":19.454526,"velocity":0.2755905511811024},{"duration":0.1818179999999998,"midi":28,"time":19.636344,"velocity":0.2755905511811024},{"duration":0.1818179999999998,"midi":28,"time":19.636344,"velocity":0.2755905511811024},{"duration":0.1818179999999998,"midi":40,"time":19.636344,"velocity":0.2755905511811024},{"duration":0.1818179999999998,"midi":28,"time":19.636344,"velocity":0.2755905511811024},{"duration":0.1818179999999998,"midi":28,"time":19.636344,"velocity":0.2755905511811024},{"duration":0.3636359999999996,"midi":28,"time":19.636344,"velocity":0.2755905511811024},{"duration":0.1818179999999998,"midi":40,"time":19.636344,"velocity":0.2755905511811024},{"duration":0.3636359999999996,"midi":28,"time":19.636344,"velocity":0.2755905511811024},{"duration":0.1818179999999998,"midi":40,"time":19.818162,"velocity":0.2755905511811024},{"duration":0.1818179999999998,"midi":40,"time":19.818162,"velocity":0.2755905511811024},{"duration":0.1818179999999998,"midi":52,"time":19.818162,"velocity":0.2755905511811024},{"duration":0.1818179999999998,"midi":52,"time":19.818162,"velocity":0.2755905511811024},{"duration":0.1818179999999998,"midi":28,"time":19.99998,"velocity":0.2755905511811024},{"duration":0.1818179999999998,"midi":40,"time":19.99998,"velocity":0.2755905511811024},{"duration":0.1818179999999998,"midi":28,"time":19.99998,"velocity":0.2755905511811024},{"duration":0.1818179999999998,"midi":28,"time":19.99998,"velocity":0.2755905511811024},{"duration":0.1818179999999998,"midi":28,"time":19.99998,"velocity":0.2755905511811024},{"duration":0.1818179999999998,"midi":40,"time":19.99998,"velocity":0.2755905511811024},{"duration":0.3636359999999996,"midi":28,"time":19.99998,"velocity":0.2755905511811024},{"duration":0.3636359999999996,"midi":28,"time":19.99998,"velocity":0.2755905511811024},{"duration":0.1818179999999998,"midi":52,"time":20.181798,"velocity":0.2755905511811024},{"duration":0.1818179999999998,"midi":52,"time":20.181798,"velocity":0.2755905511811024},{"duration":0.1818179999999998,"midi":40,"time":20.181798,"velocity":0.2755905511811024},{"duration":0.1818179999999998,"midi":40,"time":20.181798,"velocity":0.2755905511811024},{"duration":0.1818179999999998,"midi":29,"time":20.363616,"velocity":0.2755905511811024},{"duration":0.1818179999999998,"midi":29,"time":20.363616,"velocity":0.2755905511811024},{"duration":0.1818179999999998,"midi":29,"time":20.363616,"velocity":0.2755905511811024},{"duration":0.1818179999999998,"midi":29,"time":20.363616,"velocity":0.2755905511811024},{"duration":0.1818179999999998,"midi":41,"time":20.363616,"velocity":0.2755905511811024},{"duration":0.1818179999999998,"midi":41,"time":20.363616,"velocity":0.2755905511811024},{"duration":0.3636359999999996,"midi":29,"time":20.363616,"velocity":0.2755905511811024},{"duration":0.3636359999999996,"midi":29,"time":20.363616,"velocity":0.2755905511811024},{"duration":0.1818179999999998,"midi":41,"time":20.545434,"velocity":0.2755905511811024},{"duration":0.1818179999999998,"midi":53,"time":20.545434,"velocity":0.2755905511811024},{"duration":0.1818179999999998,"midi":41,"time":20.545434,"velocity":0.2755905511811024},{"duration":0.1818179999999998,"midi":53,"time":20.545434,"velocity":0.2755905511811024},{"duration":0.1818179999999998,"midi":29,"time":20.727252,"velocity":0.2755905511811024},{"duration":0.1818179999999998,"midi":41,"time":20.727252,"velocity":0.2755905511811024},{"duration":0.1818179999999998,"midi":29,"time":20.727252,"velocity":0.2755905511811024},{"duration":0.1818179999999998,"midi":29,"time":20.727252,"velocity":0.2755905511811024},{"duration":0.1818179999999998,"midi":41,"time":20.727252,"velocity":0.2755905511811024},{"duration":0.1818179999999998,"midi":29,"time":20.727252,"velocity":0.2755905511811024},{"duration":0.3636359999999996,"midi":29,"time":20.727252,"velocity":0.2755905511811024},{"duration":0.3636359999999996,"midi":29,"time":20.727252,"velocity":0.2755905511811024},{"duration":0.1818179999999998,"midi":53,"time":20.90907,"velocity":0.2755905511811024},{"duration":0.1818179999999998,"midi":41,"time":20.90907,"velocity":0.2755905511811024},{"duration":0.1818179999999998,"midi":41,"time":20.90907,"velocity":0.2755905511811024},{"duration":0.1818179999999998,"midi":53,"time":20.90907,"velocity":0.2755905511811024},{"duration":0.1818179999999998,"midi":29,"time":21.090888,"velocity":0.2755905511811024},{"duration":0.1818179999999998,"midi":29,"time":21.090888,"velocity":0.2755905511811024},{"duration":0.1818179999999998,"midi":41,"time":21.090888,"velocity":0.2755905511811024},{"duration":0.1818179999999998,"midi":29,"time":21.090888,"velocity":0.2755905511811024},{"duration":0.1818179999999998,"midi":29,"time":21.090888,"velocity":0.2755905511811024},{"duration":0.1818179999999998,"midi":41,"time":21.090888,"velocity":0.2755905511811024},{"duration":0.3636359999999996,"midi":29,"time":21.090888,"velocity":0.2755905511811024},{"duration":0.3636359999999996,"midi":29,"time":21.090888,"velocity":0.2755905511811024},{"duration":0.1818179999999998,"midi":53,"time":21.272706,"velocity":0.2755905511811024},{"duration":0.1818179999999998,"midi":41,"time":21.272706,"velocity":0.2755905511811024},{"duration":0.1818179999999998,"midi":41,"time":21.272706,"velocity":0.2755905511811024},{"duration":0.1818179999999998,"midi":53,"time":21.272706,"velocity":0.2755905511811024},{"duration":0.18181800000000337,"midi":29,"time":21.454524,"velocity":0.2755905511811024},{"duration":0.18181800000000337,"midi":29,"time":21.454524,"velocity":0.2755905511811024},{"duration":0.18181800000000337,"midi":29,"time":21.454524,"velocity":0.2755905511811024},{"duration":0.18181800000000337,"midi":41,"time":21.454524,"velocity":0.2755905511811024},{"duration":0.18181800000000337,"midi":29,"time":21.454524,"velocity":0.2755905511811024},{"duration":0.3636360000000032,"midi":29,"time":21.454524,"velocity":0.2755905511811024},{"duration":0.3636360000000032,"midi":29,"time":21.454524,"velocity":0.2755905511811024},{"duration":0.18181800000000337,"midi":41,"time":21.454524,"velocity":0.2755905511811024},{"duration":0.1818179999999998,"midi":53,"time":21.636342000000003,"velocity":0.2755905511811024},{"duration":0.1818179999999998,"midi":41,"time":21.636342000000003,"velocity":0.2755905511811024},{"duration":0.1818179999999998,"midi":53,"time":21.636342000000003,"velocity":0.2755905511811024},{"duration":0.1818179999999998,"midi":41,"time":21.636342000000003,"velocity":0.2755905511811024},{"duration":0.1818179999999998,"midi":31,"time":21.818160000000002,"velocity":0.2755905511811024},{"duration":0.1818179999999998,"midi":31,"time":21.818160000000002,"velocity":0.2755905511811024},{"duration":0.1818179999999998,"midi":43,"time":21.818160000000002,"velocity":0.2755905511811024},{"duration":0.1818179999999998,"midi":43,"time":21.818160000000002,"velocity":0.2755905511811024},{"duration":0.1818179999999998,"midi":31,"time":21.818160000000002,"velocity":0.2755905511811024},{"duration":0.1818179999999998,"midi":31,"time":21.818160000000002,"velocity":0.2755905511811024},{"duration":0.3636359999999996,"midi":31,"time":21.818160000000002,"velocity":0.2755905511811024},{"duration":0.3636359999999996,"midi":31,"time":21.818160000000002,"velocity":0.2755905511811024},{"duration":0.1818179999999998,"midi":43,"time":21.999978000000002,"velocity":0.2755905511811024},{"duration":0.1818179999999998,"midi":43,"time":21.999978000000002,"velocity":0.2755905511811024},{"duration":0.1818179999999998,"midi":55,"time":21.999978000000002,"velocity":0.2755905511811024},{"duration":0.1818179999999998,"midi":55,"time":21.999978000000002,"velocity":0.2755905511811024},{"duration":0.1818179999999998,"midi":43,"time":22.181796000000002,"velocity":0.2755905511811024},{"duration":0.1818179999999998,"midi":31,"time":22.181796000000002,"velocity":0.2755905511811024},{"duration":0.1818179999999998,"midi":31,"time":22.181796000000002,"velocity":0.2755905511811024},{"duration":0.1818179999999998,"midi":31,"time":22.181796000000002,"velocity":0.2755905511811024},{"duration":0.1818179999999998,"midi":43,"time":22.181796000000002,"velocity":0.2755905511811024},{"duration":0.1818179999999998,"midi":31,"time":22.181796000000002,"velocity":0.2755905511811024},{"duration":0.3636359999999996,"midi":31,"time":22.181796000000002,"velocity":0.2755905511811024},{"duration":0.3636359999999996,"midi":31,"time":22.181796000000002,"velocity":0.2755905511811024},{"duration":0.1818179999999998,"midi":55,"time":22.363614000000002,"velocity":0.2755905511811024},{"duration":0.1818179999999998,"midi":43,"time":22.363614000000002,"velocity":0.2755905511811024},{"duration":0.1818179999999998,"midi":55,"time":22.363614000000002,"velocity":0.2755905511811024},{"duration":0.1818179999999998,"midi":43,"time":22.363614000000002,"velocity":0.2755905511811024},{"duration":0.1818179999999998,"midi":31,"time":22.545432,"velocity":0.2755905511811024},{"duration":0.1818179999999998,"midi":31,"time":22.545432,"velocity":0.2755905511811024},{"duration":0.1818179999999998,"midi":31,"time":22.545432,"velocity":0.2755905511811024},{"duration":0.1818179999999998,"midi":31,"time":22.545432,"velocity":0.2755905511811024},{"duration":0.1818179999999998,"midi":43,"time":22.545432,"velocity":0.2755905511811024},{"duration":0.1818179999999998,"midi":43,"time":22.545432,"velocity":0.2755905511811024},{"duration":0.3636359999999996,"midi":31,"time":22.545432,"velocity":0.2755905511811024},{"duration":0.3636359999999996,"midi":31,"time":22.545432,"velocity":0.2755905511811024},{"duration":0.1818179999999998,"midi":43,"time":22.72725,"velocity":0.2755905511811024},{"duration":0.1818179999999998,"midi":43,"time":22.72725,"velocity":0.2755905511811024},{"duration":0.1818179999999998,"midi":55,"time":22.72725,"velocity":0.2755905511811024},{"duration":0.1818179999999998,"midi":55,"time":22.72725,"velocity":0.2755905511811024},{"duration":0.1818179999999998,"midi":31,"time":22.909068,"velocity":0.2755905511811024},{"duration":0.1818179999999998,"midi":31,"time":22.909068,"velocity":0.2755905511811024},{"duration":0.1818179999999998,"midi":43,"time":22.909068,"velocity":0.2755905511811024},{"duration":0.1818179999999998,"midi":31,"time":22.909068,"velocity":0.2755905511811024},{"duration":0.1818179999999998,"midi":31,"time":22.909068,"velocity":0.2755905511811024},{"duration":0.1818179999999998,"midi":43,"time":22.909068,"velocity":0.2755905511811024},{"duration":0.3636359999999996,"midi":31,"time":22.909068,"velocity":0.2755905511811024},{"duration":0.3636359999999996,"midi":31,"time":22.909068,"velocity":0.2755905511811024},{"duration":0.1818179999999998,"midi":55,"time":23.090886,"velocity":0.2755905511811024},{"duration":0.1818179999999998,"midi":43,"time":23.090886,"velocity":0.2755905511811024},{"duration":0.1818179999999998,"midi":43,"time":23.090886,"velocity":0.2755905511811024},{"duration":0.1818179999999998,"midi":55,"time":23.090886,"velocity":0.2755905511811024},{"duration":0.1818179999999998,"midi":43,"time":23.272704,"velocity":0.2755905511811024},{"duration":0.1818179999999998,"midi":43,"time":23.272704,"velocity":0.2755905511811024},{"duration":0.1818179999999998,"midi":43,"time":23.272704,"velocity":0.2755905511811024},{"duration":0.1818179999999998,"midi":43,"time":23.454522,"velocity":0.2755905511811024},{"duration":0.1818179999999998,"midi":55,"time":23.454522,"velocity":0.2755905511811024},{"duration":0.1818179999999998,"midi":55,"time":23.454522,"velocity":0.2755905511811024},{"duration":0.1818179999999998,"midi":55,"time":23.454522,"velocity":0.2755905511811024},{"duration":0.1818179999999998,"midi":43,"time":23.454522,"velocity":0.2755905511811024},{"duration":0.1818179999999998,"midi":43,"time":23.454522,"velocity":0.2755905511811024},{"duration":0.1818179999999998,"midi":43,"time":23.63634,"velocity":0.2755905511811024},{"duration":0.1818179999999998,"midi":43,"time":23.63634,"velocity":0.2755905511811024},{"duration":0.1818179999999998,"midi":43,"time":23.63634,"velocity":0.2755905511811024},{"duration":0.1818179999999998,"midi":55,"time":23.818158,"velocity":0.2755905511811024},{"duration":0.1818179999999998,"midi":43,"time":23.818158,"velocity":0.2755905511811024},{"duration":0.1818179999999998,"midi":55,"time":23.818158,"velocity":0.2755905511811024},{"duration":0.1818179999999998,"midi":43,"time":23.818158,"velocity":0.2755905511811024},{"duration":0.1818179999999998,"midi":55,"time":23.818158,"velocity":0.2755905511811024},{"duration":0.1818179999999998,"midi":43,"time":23.818158,"velocity":0.2755905511811024},{"duration":0.1818179999999998,"midi":43,"time":23.999976,"velocity":0.2755905511811024},{"duration":0.1818179999999998,"midi":43,"time":23.999976,"velocity":0.2755905511811024},{"duration":0.1818179999999998,"midi":43,"time":23.999976,"velocity":0.2755905511811024},{"duration":0.1818179999999998,"midi":55,"time":24.181794,"velocity":0.2755905511811024},{"duration":0.1818179999999998,"midi":55,"time":24.181794,"velocity":0.2755905511811024},{"duration":0.1818179999999998,"midi":55,"time":24.181794,"velocity":0.2755905511811024},{"duration":0.1818179999999998,"midi":43,"time":24.181794,"velocity":0.2755905511811024},{"duration":0.1818179999999998,"midi":43,"time":24.181794,"velocity":0.2755905511811024},{"duration":0.1818179999999998,"midi":43,"time":24.181794,"velocity":0.2755905511811024},{"duration":0.1818179999999998,"midi":43,"time":24.363612,"velocity":0.2755905511811024},{"duration":0.1818179999999998,"midi":43,"time":24.363612,"velocity":0.2755905511811024},{"duration":0.1818179999999998,"midi":43,"time":24.363612,"velocity":0.2755905511811024},{"duration":0.1818179999999998,"midi":43,"time":24.54543,"velocity":0.2755905511811024},{"duration":0.1818179999999998,"midi":43,"time":24.54543,"velocity":0.2755905511811024},{"duration":0.1818179999999998,"midi":43,"time":24.54543,"velocity":0.2755905511811024},{"duration":0.1818179999999998,"midi":55,"time":24.54543,"velocity":0.2755905511811024},{"duration":0.1818179999999998,"midi":55,"time":24.54543,"velocity":0.2755905511811024},{"duration":0.1818179999999998,"midi":55,"time":24.54543,"velocity":0.2755905511811024},{"duration":0.1818179999999998,"midi":40,"time":24.727248,"velocity":0.2755905511811024},{"duration":0.1818179999999998,"midi":40,"time":24.727248,"velocity":0.2755905511811024},{"duration":0.1818179999999998,"midi":40,"time":24.727248,"velocity":0.2755905511811024},{"duration":0.18181800000000337,"midi":52,"time":24.909066,"velocity":0.2755905511811024},{"duration":0.18181800000000337,"midi":52,"time":24.909066,"velocity":0.2755905511811024},{"duration":0.18181800000000337,"midi":40,"time":24.909066,"velocity":0.2755905511811024},{"duration":0.18181800000000337,"midi":40,"time":24.909066,"velocity":0.2755905511811024},{"duration":0.18181800000000337,"midi":40,"time":24.909066,"velocity":0.2755905511811024},{"duration":0.18181800000000337,"midi":52,"time":24.909066,"velocity":0.2755905511811024},{"duration":0.1818179999999998,"midi":40,"time":25.090884000000003,"velocity":0.2755905511811024},{"duration":0.1818179999999998,"midi":40,"time":25.090884000000003,"velocity":0.2755905511811024},{"duration":0.1818179999999998,"midi":40,"time":25.090884000000003,"velocity":0.2755905511811024},{"duration":0.1818179999999998,"midi":40,"time":25.272702000000002,"velocity":0.2755905511811024},{"duration":0.1818179999999998,"midi":40,"time":25.272702000000002,"velocity":0.2755905511811024},{"duration":0.1818179999999998,"midi":52,"time":25.272702000000002,"velocity":0.2755905511811024},{"duration":0.1818179999999998,"midi":52,"time":25.272702000000002,"velocity":0.2755905511811024},{"duration":0.1818179999999998,"midi":40,"time":25.272702000000002,"velocity":0.2755905511811024},{"duration":0.1818179999999998,"midi":52,"time":25.272702000000002,"velocity":0.2755905511811024},{"duration":0.1818179999999998,"midi":40,"time":25.454520000000002,"velocity":0.2755905511811024},{"duration":0.1818179999999998,"midi":40,"time":25.454520000000002,"velocity":0.2755905511811024},{"duration":0.1818179999999998,"midi":40,"time":25.454520000000002,"velocity":0.2755905511811024},{"duration":0.1818179999999998,"midi":40,"time":25.636338000000002,"velocity":0.2755905511811024},{"duration":0.1818179999999998,"midi":40,"time":25.636338000000002,"velocity":0.2755905511811024},{"duration":0.1818179999999998,"midi":52,"time":25.636338000000002,"velocity":0.2755905511811024},{"duration":0.1818179999999998,"midi":40,"time":25.636338000000002,"velocity":0.2755905511811024},{"duration":0.1818179999999998,"midi":52,"time":25.636338000000002,"velocity":0.2755905511811024},{"duration":0.1818179999999998,"midi":52,"time":25.636338000000002,"velocity":0.2755905511811024},{"duration":0.1818179999999998,"midi":40,"time":25.818156000000002,"velocity":0.2755905511811024},{"duration":0.1818179999999998,"midi":40,"time":25.818156000000002,"velocity":0.2755905511811024},{"duration":0.1818179999999998,"midi":40,"time":25.818156000000002,"velocity":0.2755905511811024},{"duration":0.1818179999999998,"midi":52,"time":25.999974,"velocity":0.2755905511811024},{"duration":0.1818179999999998,"midi":40,"time":25.999974,"velocity":0.2755905511811024},{"duration":0.1818179999999998,"midi":52,"time":25.999974,"velocity":0.2755905511811024},{"duration":0.1818179999999998,"midi":52,"time":25.999974,"velocity":0.2755905511811024},{"duration":0.1818179999999998,"midi":40,"time":25.999974,"velocity":0.2755905511811024},{"duration":0.1818179999999998,"midi":40,"time":25.999974,"velocity":0.2755905511811024},{"duration":0.1818179999999998,"midi":41,"time":26.181792,"velocity":0.2755905511811024},{"duration":0.1818179999999998,"midi":41,"time":26.181792,"velocity":0.2755905511811024},{"duration":0.1818179999999998,"midi":41,"time":26.181792,"velocity":0.2755905511811024},{"duration":0.1818179999999998,"midi":53,"time":26.36361,"velocity":0.2755905511811024},{"duration":0.1818179999999998,"midi":53,"time":26.36361,"velocity":0.2755905511811024},{"duration":0.1818179999999998,"midi":41,"time":26.36361,"velocity":0.2755905511811024},{"duration":0.1818179999999998,"midi":41,"time":26.36361,"velocity":0.2755905511811024},{"duration":0.1818179999999998,"midi":53,"time":26.36361,"velocity":0.2755905511811024},{"duration":0.1818179999999998,"midi":41,"time":26.36361,"velocity":0.2755905511811024},{"duration":0.1818179999999998,"midi":41,"time":26.545428,"velocity":0.2755905511811024},{"duration":0.1818179999999998,"midi":41,"time":26.545428,"velocity":0.2755905511811024},{"duration":0.1818179999999998,"midi":41,"time":26.545428,"velocity":0.2755905511811024},{"duration":0.1818179999999998,"midi":41,"time":26.727246,"velocity":0.2755905511811024},{"duration":0.1818179999999998,"midi":53,"time":26.727246,"velocity":0.2755905511811024},{"duration":0.1818179999999998,"midi":53,"time":26.727246,"velocity":0.2755905511811024},{"duration":0.1818179999999998,"midi":53,"time":26.727246,"velocity":0.2755905511811024},{"duration":0.1818179999999998,"midi":41,"time":26.727246,"velocity":0.2755905511811024},{"duration":0.1818179999999998,"midi":41,"time":26.727246,"velocity":0.2755905511811024},{"duration":0.1818179999999998,"midi":41,"time":26.909064,"velocity":0.2755905511811024},{"duration":0.1818179999999998,"midi":41,"time":26.909064,"velocity":0.2755905511811024},{"duration":0.1818179999999998,"midi":41,"time":26.909064,"velocity":0.2755905511811024},{"duration":0.1818179999999998,"midi":53,"time":27.090882,"velocity":0.2755905511811024},{"duration":0.1818179999999998,"midi":41,"time":27.090882,"velocity":0.2755905511811024},{"duration":0.1818179999999998,"midi":41,"time":27.090882,"velocity":0.2755905511811024},{"duration":0.1818179999999998,"midi":41,"time":27.090882,"velocity":0.2755905511811024},{"duration":0.1818179999999998,"midi":53,"time":27.090882,"velocity":0.2755905511811024},{"duration":0.1818179999999998,"midi":53,"time":27.090882,"velocity":0.2755905511811024},{"duration":0.1818179999999998,"midi":41,"time":27.2727,"velocity":0.2755905511811024},{"duration":0.1818179999999998,"midi":41,"time":27.2727,"velocity":0.2755905511811024},{"duration":0.1818179999999998,"midi":41,"time":27.2727,"velocity":0.2755905511811024},{"duration":0.1818179999999998,"midi":41,"time":27.454518,"velocity":0.2755905511811024},{"duration":0.1818179999999998,"midi":53,"time":27.454518,"velocity":0.2755905511811024},{"duration":0.1818179999999998,"midi":53,"time":27.454518,"velocity":0.2755905511811024},{"duration":0.1818179999999998,"midi":41,"time":27.454518,"velocity":0.2755905511811024},{"duration":0.1818179999999998,"midi":41,"time":27.454518,"velocity":0.2755905511811024},{"duration":0.1818179999999998,"midi":53,"time":27.454518,"velocity":0.2755905511811024},{"duration":0.1818179999999998,"midi":43,"time":27.636336,"velocity":0.2755905511811024},{"duration":0.1818179999999998,"midi":43,"time":27.636336,"velocity":0.2755905511811024},{"duration":0.1818179999999998,"midi":43,"time":27.636336,"velocity":0.2755905511811024},{"duration":0.1818179999999998,"midi":55,"time":27.818154,"velocity":0.2755905511811024},{"duration":0.1818179999999998,"midi":43,"time":27.818154,"velocity":0.2755905511811024},{"duration":0.1818179999999998,"midi":55,"time":27.818154,"velocity":0.2755905511811024},{"duration":0.1818179999999998,"midi":43,"time":27.818154,"velocity":0.2755905511811024},{"duration":0.1818179999999998,"midi":43,"time":27.818154,"velocity":0.2755905511811024},{"duration":0.1818179999999998,"midi":55,"time":27.818154,"velocity":0.2755905511811024},{"duration":0.1818179999999998,"midi":43,"time":27.999972,"velocity":0.2755905511811024},{"duration":0.1818179999999998,"midi":43,"time":27.999972,"velocity":0.2755905511811024},{"duration":0.1818179999999998,"midi":43,"time":27.999972,"velocity":0.2755905511811024},{"duration":0.18181800000000337,"midi":55,"time":28.18179,"velocity":0.2755905511811024},{"duration":0.18181800000000337,"midi":43,"time":28.18179,"velocity":0.2755905511811024},{"duration":0.18181800000000337,"midi":55,"time":28.18179,"velocity":0.2755905511811024},{"duration":0.18181800000000337,"midi":55,"time":28.18179,"velocity":0.2755905511811024},{"duration":0.18181800000000337,"midi":43,"time":28.18179,"velocity":0.2755905511811024},{"duration":0.18181800000000337,"midi":43,"time":28.18179,"velocity":0.2755905511811024},{"duration":0.1818179999999998,"midi":43,"time":28.363608000000003,"velocity":0.2755905511811024},{"duration":0.1818179999999998,"midi":43,"time":28.363608000000003,"velocity":0.2755905511811024},{"duration":0.1818179999999998,"midi":43,"time":28.363608000000003,"velocity":0.2755905511811024},{"duration":0.1818179999999998,"midi":43,"time":28.545426000000003,"velocity":0.2755905511811024},{"duration":0.1818179999999998,"midi":55,"time":28.545426000000003,"velocity":0.2755905511811024},{"duration":0.1818179999999998,"midi":43,"time":28.545426000000003,"velocity":0.2755905511811024},{"duration":0.1818179999999998,"midi":43,"time":28.545426000000003,"velocity":0.2755905511811024},{"duration":0.1818179999999998,"midi":55,"time":28.545426000000003,"velocity":0.2755905511811024},{"duration":0.1818179999999998,"midi":55,"time":28.545426000000003,"velocity":0.2755905511811024},{"duration":0.1818179999999998,"midi":43,"time":28.727244000000002,"velocity":0.2755905511811024},{"duration":0.1818179999999998,"midi":43,"time":28.727244000000002,"velocity":0.2755905511811024},{"duration":0.1818179999999998,"midi":43,"time":28.727244000000002,"velocity":0.2755905511811024},{"duration":0.1818179999999998,"midi":55,"time":28.909062000000002,"velocity":0.2755905511811024},{"duration":0.1818179999999998,"midi":43,"time":28.909062000000002,"velocity":0.2755905511811024},{"duration":0.1818179999999998,"midi":43,"time":28.909062000000002,"velocity":0.2755905511811024},{"duration":0.1818179999999998,"midi":55,"time":28.909062000000002,"velocity":0.2755905511811024},{"duration":0.1818179999999998,"midi":55,"time":28.909062000000002,"velocity":0.2755905511811024},{"duration":0.1818179999999998,"midi":43,"time":28.909062000000002,"velocity":0.2755905511811024},{"duration":0.1818179999999998,"midi":43,"time":29.090880000000002,"velocity":0.2755905511811024},{"duration":0.1818179999999998,"midi":43,"time":29.090880000000002,"velocity":0.2755905511811024},{"duration":0.1818179999999998,"midi":43,"time":29.090880000000002,"velocity":0.2755905511811024},{"duration":0.1818179999999998,"midi":55,"time":29.272698000000002,"velocity":0.2755905511811024},{"duration":0.1818179999999998,"midi":55,"time":29.272698000000002,"velocity":0.2755905511811024},{"duration":0.1818179999999998,"midi":55,"time":29.272698000000002,"velocity":0.2755905511811024},{"duration":0.1818179999999998,"midi":43,"time":29.272698000000002,"velocity":0.2755905511811024},{"duration":0.1818179999999998,"midi":43,"time":29.272698000000002,"velocity":0.2755905511811024},{"duration":0.1818179999999998,"midi":43,"time":29.272698000000002,"velocity":0.2755905511811024},{"duration":0.1818179999999998,"midi":43,"time":29.454516,"velocity":0.2755905511811024},{"duration":0.1818179999999998,"midi":43,"time":29.454516,"velocity":0.2755905511811024},{"duration":0.1818179999999998,"midi":43,"time":29.454516,"velocity":0.2755905511811024},{"duration":0.1818179999999998,"midi":43,"time":29.636334,"velocity":0.2755905511811024},{"duration":0.1818179999999998,"midi":55,"time":29.636334,"velocity":0.2755905511811024},{"duration":0.1818179999999998,"midi":43,"time":29.636334,"velocity":0.2755905511811024},{"duration":0.1818179999999998,"midi":55,"time":29.636334,"velocity":0.2755905511811024},{"duration":0.1818179999999998,"midi":43,"time":29.636334,"velocity":0.2755905511811024},{"duration":0.1818179999999998,"midi":55,"time":29.636334,"velocity":0.2755905511811024},{"duration":0.1818179999999998,"midi":43,"time":29.818152,"velocity":0.2755905511811024},{"duration":0.1818179999999998,"midi":43,"time":29.818152,"velocity":0.2755905511811024},{"duration":0.1818179999999998,"midi":43,"time":29.818152,"velocity":0.2755905511811024},{"duration":0.1818179999999998,"midi":43,"time":29.99997,"velocity":0.2755905511811024},{"duration":0.1818179999999998,"midi":43,"time":29.99997,"velocity":0.2755905511811024},{"duration":0.1818179999999998,"midi":55,"time":29.99997,"velocity":0.2755905511811024},{"duration":0.1818179999999998,"midi":55,"time":29.99997,"velocity":0.2755905511811024},{"duration":0.1818179999999998,"midi":43,"time":29.99997,"velocity":0.2755905511811024},{"duration":0.1818179999999998,"midi":55,"time":29.99997,"velocity":0.2755905511811024},{"duration":0.1818179999999998,"midi":43,"time":30.181788,"velocity":0.2755905511811024},{"duration":0.1818179999999998,"midi":43,"time":30.181788,"velocity":0.2755905511811024},{"duration":0.1818179999999998,"midi":43,"time":30.181788,"velocity":0.2755905511811024},{"duration":0.1818179999999998,"midi":55,"time":30.363606,"velocity":0.2755905511811024},{"duration":0.1818179999999998,"midi":43,"time":30.363606,"velocity":0.2755905511811024},{"duration":0.1818179999999998,"midi":43,"time":30.363606,"velocity":0.2755905511811024},{"duration":0.1818179999999998,"midi":55,"time":30.363606,"velocity":0.2755905511811024},{"duration":0.1818179999999998,"midi":43,"time":30.363606,"velocity":0.2755905511811024},{"duration":0.1818179999999998,"midi":55,"time":30.363606,"velocity":0.2755905511811024},{"duration":0.1818179999999998,"midi":40,"time":30.545424,"velocity":0.2755905511811024},{"duration":0.1818179999999998,"midi":40,"time":30.545424,"velocity":0.2755905511811024},{"duration":0.1818179999999998,"midi":40,"time":30.545424,"velocity":0.2755905511811024},{"duration":0.1818179999999998,"midi":52,"time":30.727242,"velocity":0.2755905511811024},{"duration":0.1818179999999998,"midi":40,"time":30.727242,"velocity":0.2755905511811024},{"duration":0.1818179999999998,"midi":52,"time":30.727242,"velocity":0.2755905511811024},{"duration":0.1818179999999998,"midi":52,"time":30.727242,"velocity":0.2755905511811024},{"duration":0.1818179999999998,"midi":40,"time":30.727242,"velocity":0.2755905511811024},{"duration":0.1818179999999998,"midi":40,"time":30.727242,"velocity":0.2755905511811024},{"duration":0.1818179999999998,"midi":40,"time":30.90906,"velocity":0.2755905511811024},{"duration":0.1818179999999998,"midi":40,"time":30.90906,"velocity":0.2755905511811024},{"duration":0.1818179999999998,"midi":40,"time":30.90906,"velocity":0.2755905511811024},{"duration":0.1818179999999998,"midi":52,"time":31.090878,"velocity":0.2755905511811024},{"duration":0.1818179999999998,"midi":40,"time":31.090878,"velocity":0.2755905511811024},{"duration":0.1818179999999998,"midi":52,"time":31.090878,"velocity":0.2755905511811024},{"duration":0.1818179999999998,"midi":40,"time":31.090878,"velocity":0.2755905511811024},{"duration":0.1818179999999998,"midi":40,"time":31.090878,"velocity":0.2755905511811024},{"duration":0.1818179999999998,"midi":52,"time":31.090878,"velocity":0.2755905511811024},{"duration":0.1818179999999998,"midi":40,"time":31.272696,"velocity":0.2755905511811024},{"duration":0.1818179999999998,"midi":40,"time":31.272696,"velocity":0.2755905511811024},{"duration":0.1818179999999998,"midi":40,"time":31.272696,"velocity":0.2755905511811024},{"duration":0.18181800000000337,"midi":40,"time":31.454514,"velocity":0.2755905511811024},{"duration":0.18181800000000337,"midi":52,"time":31.454514,"velocity":0.2755905511811024},{"duration":0.18181800000000337,"midi":40,"time":31.454514,"velocity":0.2755905511811024},{"duration":0.18181800000000337,"midi":52,"time":31.454514,"velocity":0.2755905511811024},{"duration":0.18181800000000337,"midi":40,"time":31.454514,"velocity":0.2755905511811024},{"duration":0.18181800000000337,"midi":52,"time":31.454514,"velocity":0.2755905511811024},{"duration":0.1818179999999998,"midi":40,"time":31.636332000000003,"velocity":0.2755905511811024},{"duration":0.1818179999999998,"midi":40,"time":31.636332000000003,"velocity":0.2755905511811024},{"duration":0.1818179999999998,"midi":40,"time":31.636332000000003,"velocity":0.2755905511811024},{"duration":0.1818179999999998,"midi":52,"time":31.818150000000003,"velocity":0.2755905511811024},{"duration":0.1818179999999998,"midi":40,"time":31.818150000000003,"velocity":0.2755905511811024},{"duration":0.1818179999999998,"midi":52,"time":31.818150000000003,"velocity":0.2755905511811024},{"duration":0.1818179999999998,"midi":52,"time":31.818150000000003,"velocity":0.2755905511811024},{"duration":0.1818179999999998,"midi":40,"time":31.818150000000003,"velocity":0.2755905511811024},{"duration":0.1818179999999998,"midi":40,"time":31.818150000000003,"velocity":0.2755905511811024},{"duration":0.1818179999999998,"midi":41,"time":31.999968000000003,"velocity":0.2755905511811024},{"duration":0.1818179999999998,"midi":41,"time":31.999968000000003,"velocity":0.2755905511811024},{"duration":0.1818179999999998,"midi":41,"time":31.999968000000003,"velocity":0.2755905511811024},{"duration":0.1818179999999998,"midi":53,"time":32.181786,"velocity":0.2755905511811024},{"duration":0.1818179999999998,"midi":41,"time":32.181786,"velocity":0.2755905511811024},{"duration":0.1818179999999998,"midi":41,"time":32.181786,"velocity":0.2755905511811024},{"duration":0.1818179999999998,"midi":53,"time":32.181786,"velocity":0.2755905511811024},{"duration":0.1818179999999998,"midi":41,"time":32.181786,"velocity":0.2755905511811024},{"duration":0.1818179999999998,"midi":53,"time":32.181786,"velocity":0.2755905511811024},{"duration":0.1818179999999998,"midi":41,"time":32.363604,"velocity":0.2755905511811024},{"duration":0.1818179999999998,"midi":41,"time":32.363604,"velocity":0.2755905511811024},{"duration":0.1818179999999998,"midi":41,"time":32.363604,"velocity":0.2755905511811024},{"duration":0.1818179999999998,"midi":53,"time":32.545422,"velocity":0.2755905511811024},{"duration":0.1818179999999998,"midi":41,"time":32.545422,"velocity":0.2755905511811024},{"duration":0.1818179999999998,"midi":41,"time":32.545422,"velocity":0.2755905511811024},{"duration":0.1818179999999998,"midi":53,"time":32.545422,"velocity":0.2755905511811024},{"duration":0.1818179999999998,"midi":41,"time":32.545422,"velocity":0.2755905511811024},{"duration":0.1818179999999998,"midi":53,"time":32.545422,"velocity":0.2755905511811024},{"duration":0.1818179999999998,"midi":41,"time":32.72724,"velocity":0.2755905511811024},{"duration":0.1818179999999998,"midi":41,"time":32.72724,"velocity":0.2755905511811024},{"duration":0.1818179999999998,"midi":41,"time":32.72724,"velocity":0.2755905511811024},{"duration":0.1818179999999998,"midi":41,"time":32.909058,"velocity":0.2755905511811024},{"duration":0.1818179999999998,"midi":53,"time":32.909058,"velocity":0.2755905511811024},{"duration":0.1818179999999998,"midi":53,"time":32.909058,"velocity":0.2755905511811024},{"duration":0.1818179999999998,"midi":41,"time":32.909058,"velocity":0.2755905511811024},{"duration":0.1818179999999998,"midi":53,"time":32.909058,"velocity":0.2755905511811024},{"duration":0.1818179999999998,"midi":41,"time":32.909058,"velocity":0.2755905511811024},{"duration":0.1818179999999998,"midi":41,"time":33.090876,"velocity":0.2755905511811024},{"duration":0.1818179999999998,"midi":41,"time":33.090876,"velocity":0.2755905511811024},{"duration":0.1818179999999998,"midi":41,"time":33.090876,"velocity":0.2755905511811024},{"duration":0.1818179999999998,"midi":41,"time":33.272694,"velocity":0.2755905511811024},{"duration":0.1818179999999998,"midi":53,"time":33.272694,"velocity":0.2755905511811024},{"duration":0.1818179999999998,"midi":41,"time":33.272694,"velocity":0.2755905511811024},{"duration":0.1818179999999998,"midi":53,"time":33.272694,"velocity":0.2755905511811024},{"duration":0.1818179999999998,"midi":53,"time":33.272694,"velocity":0.2755905511811024},{"duration":0.1818179999999998,"midi":41,"time":33.272694,"velocity":0.2755905511811024},{"duration":0.1818179999999998,"midi":43,"time":33.454512,"velocity":0.2755905511811024},{"duration":0.1818179999999998,"midi":43,"time":33.454512,"velocity":0.2755905511811024},{"duration":0.1818179999999998,"midi":43,"time":33.454512,"velocity":0.2755905511811024},{"duration":0.1818179999999998,"midi":55,"time":33.63633,"velocity":0.2755905511811024},{"duration":0.1818179999999998,"midi":43,"time":33.63633,"velocity":0.2755905511811024},{"duration":0.1818179999999998,"midi":55,"time":33.63633,"velocity":0.2755905511811024},{"duration":0.1818179999999998,"midi":43,"time":33.63633,"velocity":0.2755905511811024},{"duration":0.1818179999999998,"midi":43,"time":33.63633,"velocity":0.2755905511811024},{"duration":0.1818179999999998,"midi":55,"time":33.63633,"velocity":0.2755905511811024},{"duration":0.1818179999999998,"midi":43,"time":33.818148,"velocity":0.2755905511811024},{"duration":0.1818179999999998,"midi":43,"time":33.818148,"velocity":0.2755905511811024},{"duration":0.1818179999999998,"midi":43,"time":33.818148,"velocity":0.2755905511811024},{"duration":0.1818179999999998,"midi":43,"time":33.999966,"velocity":0.2755905511811024},{"duration":0.1818179999999998,"midi":55,"time":33.999966,"velocity":0.2755905511811024},{"duration":0.1818179999999998,"midi":43,"time":33.999966,"velocity":0.2755905511811024},{"duration":0.1818179999999998,"midi":55,"time":33.999966,"velocity":0.2755905511811024},{"duration":0.1818179999999998,"midi":43,"time":33.999966,"velocity":0.2755905511811024},{"duration":0.1818179999999998,"midi":55,"time":33.999966,"velocity":0.2755905511811024},{"duration":0.1818179999999998,"midi":31,"time":34.909056,"velocity":0.2755905511811024},{"duration":0.1818179999999998,"midi":31,"time":34.909056,"velocity":0.2755905511811024},{"duration":0.1818179999999998,"midi":43,"time":34.909056,"velocity":0.2755905511811024},{"duration":0.1818179999999998,"midi":43,"time":34.909056,"velocity":0.2755905511811024},{"duration":0.3636359999999996,"midi":31,"time":34.909056,"velocity":0.2755905511811024},{"duration":0.3636359999999996,"midi":31,"time":34.909056,"velocity":0.2755905511811024},{"duration":0.1818179999999998,"midi":43,"time":35.090874,"velocity":0.2755905511811024},{"duration":0.1818179999999998,"midi":55,"time":35.090874,"velocity":0.2755905511811024},{"duration":0.1818179999999998,"midi":55,"time":35.090874,"velocity":0.2755905511811024},{"duration":0.1818179999999998,"midi":43,"time":35.090874,"velocity":0.2755905511811024},{"duration":0.1818179999999998,"midi":31,"time":35.272692,"velocity":0.2755905511811024},{"duration":0.1818179999999998,"midi":31,"time":35.272692,"velocity":0.2755905511811024},{"duration":0.3636359999999996,"midi":31,"time":35.272692,"velocity":0.2755905511811024},{"duration":0.1818179999999998,"midi":43,"time":35.272692,"velocity":0.2755905511811024},{"duration":0.3636359999999996,"midi":31,"time":35.272692,"velocity":0.2755905511811024},{"duration":0.1818179999999998,"midi":43,"time":35.272692,"velocity":0.2755905511811024},{"duration":0.1818179999999998,"midi":43,"time":35.45451,"velocity":0.2755905511811024},{"duration":0.1818179999999998,"midi":43,"time":35.45451,"velocity":0.2755905511811024},{"duration":0.1818179999999998,"midi":55,"time":35.45451,"velocity":0.2755905511811024},{"duration":0.1818179999999998,"midi":55,"time":35.45451,"velocity":0.2755905511811024},{"duration":0.1818179999999998,"midi":43,"time":35.636328,"velocity":0.2755905511811024},{"duration":0.1818179999999998,"midi":31,"time":35.636328,"velocity":0.2755905511811024},{"duration":0.1818179999999998,"midi":31,"time":35.636328,"velocity":0.2755905511811024},{"duration":0.1818179999999998,"midi":43,"time":35.636328,"velocity":0.2755905511811024},{"duration":0.3636359999999996,"midi":31,"time":35.636328,"velocity":0.2755905511811024},{"duration":0.3636359999999996,"midi":31,"time":35.636328,"velocity":0.2755905511811024},{"duration":0.1818179999999998,"midi":55,"time":35.818146,"velocity":0.2755905511811024},{"duration":0.1818179999999998,"midi":43,"time":35.818146,"velocity":0.2755905511811024},{"duration":0.1818179999999998,"midi":55,"time":35.818146,"velocity":0.2755905511811024},{"duration":0.1818179999999998,"midi":43,"time":35.818146,"velocity":0.2755905511811024},{"duration":0.1818179999999998,"midi":31,"time":35.999964,"velocity":0.2755905511811024},{"duration":0.1818179999999998,"midi":31,"time":35.999964,"velocity":0.2755905511811024},{"duration":0.1818179999999998,"midi":43,"time":35.999964,"velocity":0.2755905511811024},{"duration":0.3636359999999996,"midi":31,"time":35.999964,"velocity":0.2755905511811024},{"duration":0.1818179999999998,"midi":43,"time":35.999964,"velocity":0.2755905511811024},{"duration":0.3636359999999996,"midi":31,"time":35.999964,"velocity":0.2755905511811024},{"duration":0.1818179999999998,"midi":55,"time":36.181782,"velocity":0.2755905511811024},{"duration":0.1818179999999998,"midi":43,"time":36.181782,"velocity":0.2755905511811024},{"duration":0.1818179999999998,"midi":55,"time":36.181782,"velocity":0.2755905511811024},{"duration":0.1818179999999998,"midi":43,"time":36.181782,"velocity":0.2755905511811024},{"duration":0.1818179999999998,"midi":40,"time":36.3636,"velocity":0.2755905511811024},{"duration":0.1818179999999998,"midi":28,"time":36.3636,"velocity":0.2755905511811024},{"duration":0.1818179999999998,"midi":28,"time":36.3636,"velocity":0.2755905511811024},{"duration":0.1818179999999998,"midi":28,"time":36.3636,"velocity":0.2755905511811024},{"duration":0.1818179999999998,"midi":40,"time":36.3636,"velocity":0.2755905511811024},{"duration":0.1818179999999998,"midi":28,"time":36.3636,"velocity":0.2755905511811024},{"duration":0.36363600000000673,"midi":28,"time":36.3636,"velocity":0.2755905511811024},{"duration":0.36363600000000673,"midi":28,"time":36.3636,"velocity":0.2755905511811024},{"duration":0.18181800000000692,"midi":52,"time":36.545418,"velocity":0.2755905511811024},{"duration":0.18181800000000692,"midi":40,"time":36.545418,"velocity":0.2755905511811024},{"duration":0.18181800000000692,"midi":52,"time":36.545418,"velocity":0.2755905511811024},{"duration":0.18181800000000692,"midi":40,"time":36.545418,"velocity":0.2755905511811024},{"duration":0.1818179999999998,"midi":28,"time":36.727236000000005,"velocity":0.2755905511811024},{"duration":0.1818179999999998,"midi":28,"time":36.727236000000005,"velocity":0.2755905511811024},{"duration":0.1818179999999998,"midi":40,"time":36.727236000000005,"velocity":0.2755905511811024},{"duration":0.1818179999999998,"midi":28,"time":36.727236000000005,"velocity":0.2755905511811024},{"duration":0.1818179999999998,"midi":28,"time":36.727236000000005,"velocity":0.2755905511811024},{"duration":0.3636359999999996,"midi":28,"time":36.727236000000005,"velocity":0.2755905511811024},{"duration":0.1818179999999998,"midi":40,"time":36.727236000000005,"velocity":0.2755905511811024},{"duration":0.3636359999999996,"midi":28,"time":36.727236000000005,"velocity":0.2755905511811024},{"duration":0.1818179999999998,"midi":52,"time":36.909054000000005,"velocity":0.2755905511811024},{"duration":0.1818179999999998,"midi":40,"time":36.909054000000005,"velocity":0.2755905511811024},{"duration":0.1818179999999998,"midi":52,"time":36.909054000000005,"velocity":0.2755905511811024},{"duration":0.1818179999999998,"midi":40,"time":36.909054000000005,"velocity":0.2755905511811024},{"duration":0.1818179999999998,"midi":28,"time":37.090872000000005,"velocity":0.2755905511811024},{"duration":0.1818179999999998,"midi":28,"time":37.090872000000005,"velocity":0.2755905511811024},{"duration":0.1818179999999998,"midi":40,"time":37.090872000000005,"velocity":0.2755905511811024},{"duration":0.1818179999999998,"midi":40,"time":37.090872000000005,"velocity":0.2755905511811024},{"duration":0.1818179999999998,"midi":28,"time":37.090872000000005,"velocity":0.2755905511811024},{"duration":0.1818179999999998,"midi":28,"time":37.090872000000005,"velocity":0.2755905511811024},{"duration":0.3636359999999996,"midi":28,"time":37.090872000000005,"velocity":0.2755905511811024},{"duration":0.3636359999999996,"midi":28,"time":37.090872000000005,"velocity":0.2755905511811024},{"duration":0.1818179999999998,"midi":40,"time":37.272690000000004,"velocity":0.2755905511811024},{"duration":0.1818179999999998,"midi":40,"time":37.272690000000004,"velocity":0.2755905511811024},{"duration":0.1818179999999998,"midi":52,"time":37.272690000000004,"velocity":0.2755905511811024},{"duration":0.1818179999999998,"midi":52,"time":37.272690000000004,"velocity":0.2755905511811024},{"duration":0.1818179999999998,"midi":40,"time":37.454508000000004,"velocity":0.2755905511811024},{"duration":0.1818179999999998,"midi":28,"time":37.454508000000004,"velocity":0.2755905511811024},{"duration":0.1818179999999998,"midi":28,"time":37.454508000000004,"velocity":0.2755905511811024},{"duration":0.1818179999999998,"midi":28,"time":37.454508000000004,"velocity":0.2755905511811024},{"duration":0.1818179999999998,"midi":40,"time":37.454508000000004,"velocity":0.2755905511811024},{"duration":0.1818179999999998,"midi":28,"time":37.454508000000004,"velocity":0.2755905511811024},{"duration":0.3636359999999996,"midi":28,"time":37.454508000000004,"velocity":0.2755905511811024},{"duration":0.3636359999999996,"midi":28,"time":37.454508000000004,"velocity":0.2755905511811024},{"duration":0.1818179999999998,"midi":40,"time":37.636326000000004,"velocity":0.2755905511811024},{"duration":0.1818179999999998,"midi":52,"time":37.636326000000004,"velocity":0.2755905511811024},{"duration":0.1818179999999998,"midi":40,"time":37.636326000000004,"velocity":0.2755905511811024},{"duration":0.1818179999999998,"midi":52,"time":37.636326000000004,"velocity":0.2755905511811024},{"duration":0.1818179999999998,"midi":41,"time":37.818144000000004,"velocity":0.2755905511811024},{"duration":0.1818179999999998,"midi":29,"time":37.818144000000004,"velocity":0.2755905511811024},{"duration":0.1818179999999998,"midi":29,"time":37.818144000000004,"velocity":0.2755905511811024},{"duration":0.1818179999999998,"midi":29,"time":37.818144000000004,"velocity":0.2755905511811024},{"duration":0.1818179999999998,"midi":41,"time":37.818144000000004,"velocity":0.2755905511811024},{"duration":0.1818179999999998,"midi":29,"time":37.818144000000004,"velocity":0.2755905511811024},{"duration":0.3636359999999996,"midi":29,"time":37.818144000000004,"velocity":0.2755905511811024},{"duration":0.3636359999999996,"midi":29,"time":37.818144000000004,"velocity":0.2755905511811024},{"duration":0.1818179999999998,"midi":41,"time":37.999962000000004,"velocity":0.2755905511811024},{"duration":0.1818179999999998,"midi":53,"time":37.999962000000004,"velocity":0.2755905511811024},{"duration":0.1818179999999998,"midi":41,"time":37.999962000000004,"velocity":0.2755905511811024},{"duration":0.1818179999999998,"midi":53,"time":37.999962000000004,"velocity":0.2755905511811024},{"duration":0.1818179999999998,"midi":29,"time":38.18178,"velocity":0.2755905511811024},{"duration":0.1818179999999998,"midi":29,"time":38.18178,"velocity":0.2755905511811024},{"duration":0.1818179999999998,"midi":29,"time":38.18178,"velocity":0.2755905511811024},{"duration":0.1818179999999998,"midi":41,"time":38.18178,"velocity":0.2755905511811024},{"duration":0.1818179999999998,"midi":29,"time":38.18178,"velocity":0.2755905511811024},{"duration":0.1818179999999998,"midi":41,"time":38.18178,"velocity":0.2755905511811024},{"duration":0.3636359999999996,"midi":29,"time":38.18178,"velocity":0.2755905511811024},{"duration":0.3636359999999996,"midi":29,"time":38.18178,"velocity":0.2755905511811024},{"duration":0.1818179999999998,"midi":53,"time":38.363598,"velocity":0.2755905511811024},{"duration":0.1818179999999998,"midi":53,"time":38.363598,"velocity":0.2755905511811024},{"duration":0.1818179999999998,"midi":41,"time":38.363598,"velocity":0.2755905511811024},{"duration":0.1818179999999998,"midi":41,"time":38.363598,"velocity":0.2755905511811024},{"duration":0.1818179999999998,"midi":41,"time":38.545416,"velocity":0.2755905511811024},{"duration":0.1818179999999998,"midi":29,"time":38.545416,"velocity":0.2755905511811024},{"duration":0.1818179999999998,"midi":29,"time":38.545416,"velocity":0.2755905511811024},{"duration":0.1818179999999998,"midi":29,"time":38.545416,"velocity":0.2755905511811024},{"duration":0.1818179999999998,"midi":29,"time":38.545416,"velocity":0.2755905511811024},{"duration":0.3636359999999996,"midi":29,"time":38.545416,"velocity":0.2755905511811024},{"duration":0.3636359999999996,"midi":29,"time":38.545416,"velocity":0.2755905511811024},{"duration":0.1818179999999998,"midi":41,"time":38.545416,"velocity":0.2755905511811024},{"duration":0.1818179999999998,"midi":41,"time":38.727234,"velocity":0.2755905511811024},{"duration":0.1818179999999998,"midi":53,"time":38.727234,"velocity":0.2755905511811024},{"duration":0.1818179999999998,"midi":53,"time":38.727234,"velocity":0.2755905511811024},{"duration":0.1818179999999998,"midi":41,"time":38.727234,"velocity":0.2755905511811024},{"duration":0.1818179999999998,"midi":29,"time":38.909052,"velocity":0.2755905511811024},{"duration":0.1818179999999998,"midi":29,"time":38.909052,"velocity":0.2755905511811024},{"duration":0.1818179999999998,"midi":41,"time":38.909052,"velocity":0.2755905511811024},{"duration":0.1818179999999998,"midi":29,"time":38.909052,"velocity":0.2755905511811024},{"duration":0.1818179999999998,"midi":41,"time":38.909052,"velocity":0.2755905511811024},{"duration":0.1818179999999998,"midi":29,"time":38.909052,"velocity":0.2755905511811024},{"duration":0.3636359999999996,"midi":29,"time":38.909052,"velocity":0.2755905511811024},{"duration":0.3636359999999996,"midi":29,"time":38.909052,"velocity":0.2755905511811024},{"duration":0.1818179999999998,"midi":41,"time":39.09087,"velocity":0.2755905511811024},{"duration":0.1818179999999998,"midi":53,"time":39.09087,"velocity":0.2755905511811024},{"duration":0.1818179999999998,"midi":53,"time":39.09087,"velocity":0.2755905511811024},{"duration":0.1818179999999998,"midi":41,"time":39.09087,"velocity":0.2755905511811024},{"duration":0.1818179999999998,"midi":43,"time":39.272688,"velocity":0.2755905511811024},{"duration":0.1818179999999998,"midi":31,"time":39.272688,"velocity":0.2755905511811024},{"duration":0.1818179999999998,"midi":31,"time":39.272688,"velocity":0.2755905511811024},{"duration":0.1818179999999998,"midi":31,"time":39.272688,"velocity":0.2755905511811024},{"duration":0.1818179999999998,"midi":31,"time":39.272688,"velocity":0.2755905511811024},{"duration":0.3636359999999996,"midi":31,"time":39.272688,"velocity":0.2755905511811024},{"duration":0.3636359999999996,"midi":31,"time":39.272688,"velocity":0.2755905511811024},{"duration":0.1818179999999998,"midi":43,"time":39.272688,"velocity":0.2755905511811024},{"duration":0.1818179999999998,"midi":55,"time":39.454506,"velocity":0.2755905511811024},{"duration":0.1818179999999998,"midi":43,"time":39.454506,"velocity":0.2755905511811024},{"duration":0.1818179999999998,"midi":55,"time":39.454506,"velocity":0.2755905511811024},{"duration":0.1818179999999998,"midi":43,"time":39.454506,"velocity":0.2755905511811024},{"duration":0.1818179999999998,"midi":31,"time":39.636324,"velocity":0.2755905511811024},{"duration":0.1818179999999998,"midi":31,"time":39.636324,"velocity":0.2755905511811024},{"duration":0.1818179999999998,"midi":31,"time":39.636324,"velocity":0.2755905511811024},{"duration":0.1818179999999998,"midi":31,"time":39.636324,"velocity":0.2755905511811024},{"duration":0.1818179999999998,"midi":43,"time":39.636324,"velocity":0.2755905511811024},{"duration":0.3636359999999996,"midi":31,"time":39.636324,"velocity":0.2755905511811024},{"duration":0.3636359999999996,"midi":31,"time":39.636324,"velocity":0.2755905511811024},{"duration":0.1818179999999998,"midi":43,"time":39.636324,"velocity":0.2755905511811024},{"duration":0.1818179999999998,"midi":55,"time":39.818142,"velocity":0.2755905511811024},{"duration":0.1818179999999998,"midi":43,"time":39.818142,"velocity":0.2755905511811024},{"duration":0.1818179999999998,"midi":43,"time":39.818142,"velocity":0.2755905511811024},{"duration":0.1818179999999998,"midi":55,"time":39.818142,"velocity":0.2755905511811024},{"duration":0.1818179999999998,"midi":31,"time":39.99996,"velocity":0.2755905511811024},{"duration":0.1818179999999998,"midi":31,"time":39.99996,"velocity":0.2755905511811024},{"duration":0.1818179999999998,"midi":43,"time":39.99996,"velocity":0.2755905511811024},{"duration":0.1818179999999998,"midi":31,"time":39.99996,"velocity":0.2755905511811024},{"duration":0.1818179999999998,"midi":31,"time":39.99996,"velocity":0.2755905511811024},{"duration":0.1818179999999998,"midi":43,"time":39.99996,"velocity":0.2755905511811024},{"duration":0.3636359999999996,"midi":31,"time":39.99996,"velocity":0.2755905511811024},{"duration":0.3636359999999996,"midi":31,"time":39.99996,"velocity":0.2755905511811024},{"duration":0.1818179999999998,"midi":43,"time":40.181778,"velocity":0.2755905511811024},{"duration":0.1818179999999998,"midi":55,"time":40.181778,"velocity":0.2755905511811024},{"duration":0.1818179999999998,"midi":43,"time":40.181778,"velocity":0.2755905511811024},{"duration":0.1818179999999998,"midi":55,"time":40.181778,"velocity":0.2755905511811024},{"duration":0.1818179999999998,"midi":31,"time":40.363596,"velocity":0.2755905511811024},{"duration":0.1818179999999998,"midi":43,"time":40.363596,"velocity":0.2755905511811024},{"duration":0.1818179999999998,"midi":31,"time":40.363596,"velocity":0.2755905511811024},{"duration":0.1818179999999998,"midi":31,"time":40.363596,"velocity":0.2755905511811024},{"duration":0.1818179999999998,"midi":31,"time":40.363596,"velocity":0.2755905511811024},{"duration":0.3636359999999996,"midi":31,"time":40.363596,"velocity":0.2755905511811024},{"duration":0.3636359999999996,"midi":31,"time":40.363596,"velocity":0.2755905511811024},{"duration":0.1818179999999998,"midi":43,"time":40.363596,"velocity":0.2755905511811024},{"duration":0.1818179999999998,"midi":43,"time":40.545414,"velocity":0.2755905511811024},{"duration":0.1818179999999998,"midi":55,"time":40.545414,"velocity":0.2755905511811024},{"duration":0.1818179999999998,"midi":55,"time":40.545414,"velocity":0.2755905511811024},{"duration":0.1818179999999998,"midi":43,"time":40.545414,"velocity":0.2755905511811024},{"duration":0.1818179999999998,"midi":31,"time":40.727232,"velocity":0.2755905511811024},{"duration":0.1818179999999998,"midi":43,"time":40.727232,"velocity":0.2755905511811024},{"duration":0.1818179999999998,"midi":31,"time":40.727232,"velocity":0.2755905511811024},{"duration":0.1818179999999998,"midi":43,"time":40.727232,"velocity":0.2755905511811024},{"duration":0.3636359999999996,"midi":31,"time":40.727232,"velocity":0.2755905511811024},{"duration":0.3636359999999996,"midi":31,"time":40.727232,"velocity":0.2755905511811024},{"duration":0.1818179999999998,"midi":43,"time":40.90905,"velocity":0.2755905511811024},{"duration":0.1818179999999998,"midi":55,"time":40.90905,"velocity":0.2755905511811024},{"duration":0.1818179999999998,"midi":55,"time":40.90905,"velocity":0.2755905511811024},{"duration":0.1818179999999998,"midi":43,"time":40.90905,"velocity":0.2755905511811024},{"duration":0.1818179999999998,"midi":31,"time":41.090868,"velocity":0.2755905511811024},{"duration":0.1818179999999998,"midi":43,"time":41.090868,"velocity":0.2755905511811024},{"duration":0.1818179999999998,"midi":31,"time":41.090868,"velocity":0.2755905511811024},{"duration":0.1818179999999998,"midi":43,"time":41.090868,"velocity":0.2755905511811024},{"duration":0.3636359999999996,"midi":31,"time":41.090868,"velocity":0.2755905511811024},{"duration":0.3636359999999996,"midi":31,"time":41.090868,"velocity":0.2755905511811024},{"duration":0.1818179999999998,"midi":43,"time":41.272686,"velocity":0.2755905511811024},{"duration":0.1818179999999998,"midi":55,"time":41.272686,"velocity":0.2755905511811024},{"duration":0.1818179999999998,"midi":55,"time":41.272686,"velocity":0.2755905511811024},{"duration":0.1818179999999998,"midi":43,"time":41.272686,"velocity":0.2755905511811024},{"duration":0.1818179999999998,"midi":31,"time":41.454504,"velocity":0.2755905511811024},{"duration":0.1818179999999998,"midi":31,"time":41.454504,"velocity":0.2755905511811024},{"duration":0.1818179999999998,"midi":43,"time":41.454504,"velocity":0.2755905511811024},{"duration":0.3636359999999996,"midi":31,"time":41.454504,"velocity":0.2755905511811024},{"duration":0.3636359999999996,"midi":31,"time":41.454504,"velocity":0.2755905511811024},{"duration":0.1818179999999998,"midi":43,"time":41.454504,"velocity":0.2755905511811024},{"duration":0.1818179999999998,"midi":43,"time":41.636322,"velocity":0.2755905511811024},{"duration":0.1818179999999998,"midi":55,"time":41.636322,"velocity":0.2755905511811024},{"duration":0.1818179999999998,"midi":43,"time":41.636322,"velocity":0.2755905511811024},{"duration":0.1818179999999998,"midi":55,"time":41.636322,"velocity":0.2755905511811024},{"duration":0.1818179999999998,"midi":31,"time":41.81814,"velocity":0.2755905511811024},{"duration":0.1818179999999998,"midi":31,"time":41.81814,"velocity":0.2755905511811024},{"duration":0.3636359999999996,"midi":31,"time":41.81814,"velocity":0.2755905511811024},{"duration":0.3636359999999996,"midi":31,"time":41.81814,"velocity":0.2755905511811024},{"duration":0.1818179999999998,"midi":43,"time":41.81814,"velocity":0.2755905511811024},{"duration":0.1818179999999998,"midi":43,"time":41.81814,"velocity":0.2755905511811024},{"duration":0.1818179999999998,"midi":55,"time":41.999958,"velocity":0.2755905511811024},{"duration":0.1818179999999998,"midi":43,"time":41.999958,"velocity":0.2755905511811024},{"duration":0.1818179999999998,"midi":43,"time":41.999958,"velocity":0.2755905511811024},{"duration":0.1818179999999998,"midi":55,"time":41.999958,"velocity":0.2755905511811024},{"duration":0.1818179999999998,"midi":28,"time":42.181776,"velocity":0.2755905511811024},{"duration":0.1818179999999998,"midi":28,"time":42.181776,"velocity":0.2755905511811024},{"duration":0.1818179999999998,"midi":28,"time":42.181776,"velocity":0.2755905511811024},{"duration":0.1818179999999998,"midi":40,"time":42.181776,"velocity":0.2755905511811024},{"duration":0.1818179999999998,"midi":28,"time":42.181776,"velocity":0.2755905511811024},{"duration":0.3636359999999996,"midi":28,"time":42.181776,"velocity":0.2755905511811024},{"duration":0.1818179999999998,"midi":40,"time":42.181776,"velocity":0.2755905511811024},{"duration":0.3636359999999996,"midi":28,"time":42.181776,"velocity":0.2755905511811024},{"duration":0.1818179999999998,"midi":52,"time":42.363594,"velocity":0.2755905511811024},{"duration":0.1818179999999998,"midi":40,"time":42.363594,"velocity":0.2755905511811024},{"duration":0.1818179999999998,"midi":40,"time":42.363594,"velocity":0.2755905511811024},{"duration":0.1818179999999998,"midi":52,"time":42.363594,"velocity":0.2755905511811024},{"duration":0.1818179999999998,"midi":28,"time":42.545412,"velocity":0.2755905511811024},{"duration":0.1818179999999998,"midi":40,"time":42.545412,"velocity":0.2755905511811024},{"duration":0.1818179999999998,"midi":28,"time":42.545412,"velocity":0.2755905511811024},{"duration":0.1818179999999998,"midi":40,"time":42.545412,"velocity":0.2755905511811024},{"duration":0.1818179999999998,"midi":28,"time":42.545412,"velocity":0.2755905511811024},{"duration":0.1818179999999998,"midi":28,"time":42.545412,"velocity":0.2755905511811024},{"duration":0.3636359999999996,"midi":28,"time":42.545412,"velocity":0.2755905511811024},{"duration":0.3636359999999996,"midi":28,"time":42.545412,"velocity":0.2755905511811024},{"duration":0.1818179999999998,"midi":40,"time":42.72723,"velocity":0.2755905511811024},{"duration":0.1818179999999998,"midi":52,"time":42.72723,"velocity":0.2755905511811024},{"duration":0.1818179999999998,"midi":52,"time":42.72723,"velocity":0.2755905511811024},{"duration":0.1818179999999998,"midi":40,"time":42.72723,"velocity":0.2755905511811024},{"duration":0.1818179999999998,"midi":40,"time":42.909048,"velocity":0.2755905511811024},{"duration":0.1818179999999998,"midi":28,"time":42.909048,"velocity":0.2755905511811024},{"duration":0.1818179999999998,"midi":28,"time":42.909048,"velocity":0.2755905511811024},{"duration":0.1818179999999998,"midi":28,"time":42.909048,"velocity":0.2755905511811024},{"duration":0.1818179999999998,"midi":28,"time":42.909048,"velocity":0.2755905511811024},{"duration":0.36363600000000673,"midi":28,"time":42.909048,"velocity":0.2755905511811024},{"duration":0.1818179999999998,"midi":40,"time":42.909048,"velocity":0.2755905511811024},{"duration":0.36363600000000673,"midi":28,"time":42.909048,"velocity":0.2755905511811024},{"duration":0.18181800000000692,"midi":40,"time":43.090866,"velocity":0.2755905511811024},{"duration":0.18181800000000692,"midi":52,"time":43.090866,"velocity":0.2755905511811024},{"duration":0.18181800000000692,"midi":40,"time":43.090866,"velocity":0.2755905511811024},{"duration":0.18181800000000692,"midi":52,"time":43.090866,"velocity":0.2755905511811024},{"duration":0.1818179999999998,"midi":40,"time":43.272684000000005,"velocity":0.2755905511811024},{"duration":0.1818179999999998,"midi":28,"time":43.272684000000005,"velocity":0.2755905511811024},{"duration":0.1818179999999998,"midi":28,"time":43.272684000000005,"velocity":0.2755905511811024},{"duration":0.1818179999999998,"midi":28,"time":43.272684000000005,"velocity":0.2755905511811024},{"duration":0.1818179999999998,"midi":28,"time":43.272684000000005,"velocity":0.2755905511811024},{"duration":0.1818179999999998,"midi":40,"time":43.272684000000005,"velocity":0.2755905511811024},{"duration":0.3636359999999996,"midi":28,"time":43.272684000000005,"velocity":0.2755905511811024},{"duration":0.3636359999999996,"midi":28,"time":43.272684000000005,"velocity":0.2755905511811024},{"duration":0.1818179999999998,"midi":52,"time":43.454502000000005,"velocity":0.2755905511811024},{"duration":0.1818179999999998,"midi":40,"time":43.454502000000005,"velocity":0.2755905511811024},{"duration":0.1818179999999998,"midi":52,"time":43.454502000000005,"velocity":0.2755905511811024},{"duration":0.1818179999999998,"midi":40,"time":43.454502000000005,"velocity":0.2755905511811024},{"duration":0.1818179999999998,"midi":29,"time":43.636320000000005,"velocity":0.2755905511811024},{"duration":0.1818179999999998,"midi":41,"time":43.636320000000005,"velocity":0.2755905511811024},{"duration":0.1818179999999998,"midi":29,"time":43.636320000000005,"velocity":0.2755905511811024},{"duration":0.1818179999999998,"midi":29,"time":43.636320000000005,"velocity":0.2755905511811024},{"duration":0.1818179999999998,"midi":41,"time":43.636320000000005,"velocity":0.2755905511811024},{"duration":0.1818179999999998,"midi":29,"time":43.636320000000005,"velocity":0.2755905511811024},{"duration":0.3636359999999996,"midi":29,"time":43.636320000000005,"velocity":0.2755905511811024},{"duration":0.3636359999999996,"midi":29,"time":43.636320000000005,"velocity":0.2755905511811024},{"duration":0.1818179999999998,"midi":53,"time":43.818138000000005,"velocity":0.2755905511811024},{"duration":0.1818179999999998,"midi":41,"time":43.818138000000005,"velocity":0.2755905511811024},{"duration":0.1818179999999998,"midi":41,"time":43.818138000000005,"velocity":0.2755905511811024},{"duration":0.1818179999999998,"midi":53,"time":43.818138000000005,"velocity":0.2755905511811024},{"duration":0.1818179999999998,"midi":29,"time":43.999956000000005,"velocity":0.2755905511811024},{"duration":0.1818179999999998,"midi":29,"time":43.999956000000005,"velocity":0.2755905511811024},{"duration":0.1818179999999998,"midi":41,"time":43.999956000000005,"velocity":0.2755905511811024},{"duration":0.1818179999999998,"midi":29,"time":43.999956000000005,"velocity":0.2755905511811024},{"duration":0.1818179999999998,"midi":41,"time":43.999956000000005,"velocity":0.2755905511811024},{"duration":0.1818179999999998,"midi":29,"time":43.999956000000005,"velocity":0.2755905511811024},{"duration":0.3636359999999996,"midi":29,"time":43.999956000000005,"velocity":0.2755905511811024},{"duration":0.3636359999999996,"midi":29,"time":43.999956000000005,"velocity":0.2755905511811024},{"duration":0.1818179999999998,"midi":41,"time":44.181774000000004,"velocity":0.2755905511811024},{"duration":0.1818179999999998,"midi":53,"time":44.181774000000004,"velocity":0.2755905511811024},{"duration":0.1818179999999998,"midi":41,"time":44.181774000000004,"velocity":0.2755905511811024},{"duration":0.1818179999999998,"midi":53,"time":44.181774000000004,"velocity":0.2755905511811024},{"duration":0.1818179999999998,"midi":29,"time":44.363592000000004,"velocity":0.2755905511811024},{"duration":0.1818179999999998,"midi":29,"time":44.363592000000004,"velocity":0.2755905511811024},{"duration":0.1818179999999998,"midi":29,"time":44.363592000000004,"velocity":0.2755905511811024},{"duration":0.1818179999999998,"midi":29,"time":44.363592000000004,"velocity":0.2755905511811024},{"duration":0.3636359999999996,"midi":29,"time":44.363592000000004,"velocity":0.2755905511811024},{"duration":0.1818179999999998,"midi":41,"time":44.363592000000004,"velocity":0.2755905511811024},{"duration":0.1818179999999998,"midi":41,"time":44.363592000000004,"velocity":0.2755905511811024},{"duration":0.3636359999999996,"midi":29,"time":44.363592000000004,"velocity":0.2755905511811024},{"duration":0.1818179999999998,"midi":53,"time":44.545410000000004,"velocity":0.2755905511811024},{"duration":0.1818179999999998,"midi":41,"time":44.545410000000004,"velocity":0.2755905511811024},{"duration":0.1818179999999998,"midi":53,"time":44.545410000000004,"velocity":0.2755905511811024},{"duration":0.1818179999999998,"midi":41,"time":44.545410000000004,"velocity":0.2755905511811024},{"duration":0.1818179999999998,"midi":29,"time":44.727228000000004,"velocity":0.2755905511811024},{"duration":0.1818179999999998,"midi":29,"time":44.727228000000004,"velocity":0.2755905511811024},{"duration":0.1818179999999998,"midi":29,"time":44.727228000000004,"velocity":0.2755905511811024},{"duration":0.1818179999999998,"midi":29,"time":44.727228000000004,"velocity":0.2755905511811024},{"duration":0.1818179999999998,"midi":41,"time":44.727228000000004,"velocity":0.2755905511811024},{"duration":0.3636359999999996,"midi":29,"time":44.727228000000004,"velocity":0.2755905511811024},{"duration":0.3636359999999996,"midi":29,"time":44.727228000000004,"velocity":0.2755905511811024},{"duration":0.1818179999999998,"midi":41,"time":44.727228000000004,"velocity":0.2755905511811024},{"duration":0.1818179999999998,"midi":53,"time":44.909046000000004,"velocity":0.2755905511811024},{"duration":0.1818179999999998,"midi":41,"time":44.909046000000004,"velocity":0.2755905511811024},{"duration":0.1818179999999998,"midi":53,"time":44.909046000000004,"velocity":0.2755905511811024},{"duration":0.1818179999999998,"midi":41,"time":44.909046000000004,"velocity":0.2755905511811024},{"duration":0.1818179999999998,"midi":31,"time":45.090864,"velocity":0.2755905511811024},{"duration":0.1818179999999998,"midi":31,"time":45.090864,"velocity":0.2755905511811024},{"duration":0.1818179999999998,"midi":31,"time":45.090864,"velocity":0.2755905511811024},{"duration":0.1818179999999998,"midi":43,"time":45.090864,"velocity":0.2755905511811024},{"duration":0.1818179999999998,"midi":43,"time":45.090864,"velocity":0.2755905511811024},{"duration":0.1818179999999998,"midi":31,"time":45.090864,"velocity":0.2755905511811024},{"duration":0.3636359999999996,"midi":31,"time":45.090864,"velocity":0.2755905511811024},{"duration":0.3636359999999996,"midi":31,"time":45.090864,"velocity":0.2755905511811024},{"duration":0.1818179999999998,"midi":43,"time":45.272682,"velocity":0.2755905511811024},{"duration":0.1818179999999998,"midi":43,"time":45.272682,"velocity":0.2755905511811024},{"duration":0.1818179999999998,"midi":55,"time":45.272682,"velocity":0.2755905511811024},{"duration":0.1818179999999998,"midi":55,"time":45.272682,"velocity":0.2755905511811024},{"duration":0.1818179999999998,"midi":31,"time":45.4545,"velocity":0.2755905511811024},{"duration":0.1818179999999998,"midi":43,"time":45.4545,"velocity":0.2755905511811024},{"duration":0.1818179999999998,"midi":31,"time":45.4545,"velocity":0.2755905511811024},{"duration":0.1818179999999998,"midi":43,"time":45.4545,"velocity":0.2755905511811024},{"duration":0.1818179999999998,"midi":31,"time":45.4545,"velocity":0.2755905511811024},{"duration":0.1818179999999998,"midi":31,"time":45.4545,"velocity":0.2755905511811024},{"duration":0.3636359999999996,"midi":31,"time":45.4545,"velocity":0.2755905511811024},{"duration":0.3636359999999996,"midi":31,"time":45.4545,"velocity":0.2755905511811024},{"duration":0.1818179999999998,"midi":43,"time":45.636318,"velocity":0.2755905511811024},{"duration":0.1818179999999998,"midi":43,"time":45.636318,"velocity":0.2755905511811024},{"duration":0.1818179999999998,"midi":55,"time":45.636318,"velocity":0.2755905511811024},{"duration":0.1818179999999998,"midi":55,"time":45.636318,"velocity":0.2755905511811024},{"duration":0.1818179999999998,"midi":31,"time":45.818136,"velocity":0.2755905511811024},{"duration":0.1818179999999998,"midi":31,"time":45.818136,"velocity":0.2755905511811024},{"duration":0.1818179999999998,"midi":43,"time":45.818136,"velocity":0.2755905511811024},{"duration":0.1818179999999998,"midi":31,"time":45.818136,"velocity":0.2755905511811024},{"duration":0.1818179999999998,"midi":31,"time":45.818136,"velocity":0.2755905511811024},{"duration":0.1818179999999998,"midi":43,"time":45.818136,"velocity":0.2755905511811024},{"duration":0.3636359999999996,"midi":31,"time":45.818136,"velocity":0.2755905511811024},{"duration":0.3636359999999996,"midi":31,"time":45.818136,"velocity":0.2755905511811024},{"duration":0.1818179999999998,"midi":43,"time":45.999954,"velocity":0.2755905511811024},{"duration":0.1818179999999998,"midi":55,"time":45.999954,"velocity":0.2755905511811024},{"duration":0.1818179999999998,"midi":43,"time":45.999954,"velocity":0.2755905511811024},{"duration":0.1818179999999998,"midi":55,"time":45.999954,"velocity":0.2755905511811024},{"duration":0.1818179999999998,"midi":31,"time":46.181772,"velocity":0.2755905511811024},{"duration":0.1818179999999998,"midi":31,"time":46.181772,"velocity":0.2755905511811024},{"duration":0.1818179999999998,"midi":31,"time":46.181772,"velocity":0.2755905511811024},{"duration":0.1818179999999998,"midi":43,"time":46.181772,"velocity":0.2755905511811024},{"duration":0.1818179999999998,"midi":31,"time":46.181772,"velocity":0.2755905511811024},{"duration":0.3636359999999996,"midi":31,"time":46.181772,"velocity":0.2755905511811024},{"duration":0.1818179999999998,"midi":43,"time":46.181772,"velocity":0.2755905511811024},{"duration":0.3636359999999996,"midi":31,"time":46.181772,"velocity":0.2755905511811024},{"duration":0.1818179999999998,"midi":43,"time":46.36359,"velocity":0.2755905511811024},{"duration":0.1818179999999998,"midi":43,"time":46.36359,"velocity":0.2755905511811024},{"duration":0.1818179999999998,"midi":55,"time":46.36359,"velocity":0.2755905511811024},{"duration":0.1818179999999998,"midi":55,"time":46.36359,"velocity":0.2755905511811024},{"duration":0.18181800000000692,"midi":43,"time":69.818112,"velocity":0.2755905511811024},{"duration":0.18181800000000692,"midi":43,"time":69.818112,"velocity":0.2755905511811024},{"duration":0.18181800000000692,"midi":55,"time":69.818112,"velocity":0.2755905511811024},{"duration":0.18181800000000692,"midi":55,"time":69.818112,"velocity":0.2755905511811024},{"duration":0.1818179999999927,"midi":43,"time":69.99993,"velocity":0.2755905511811024},{"duration":0.1818179999999927,"midi":55,"time":69.99993,"velocity":0.2755905511811024},{"duration":0.1818179999999927,"midi":43,"time":69.99993,"velocity":0.2755905511811024},{"duration":0.1818179999999927,"midi":55,"time":69.99993,"velocity":0.2755905511811024},{"duration":0.18181800000000692,"midi":58,"time":70.181748,"velocity":0.2755905511811024},{"duration":0.18181800000000692,"midi":58,"time":70.181748,"velocity":0.2755905511811024},{"duration":0.18181800000000692,"midi":46,"time":70.181748,"velocity":0.2755905511811024},{"duration":0.18181800000000692,"midi":46,"time":70.181748,"velocity":0.2755905511811024},{"duration":0.1818179999999927,"midi":43,"time":70.363566,"velocity":0.2755905511811024},{"duration":0.1818179999999927,"midi":55,"time":70.363566,"velocity":0.2755905511811024},{"duration":0.1818179999999927,"midi":43,"time":70.363566,"velocity":0.2755905511811024},{"duration":0.1818179999999927,"midi":55,"time":70.363566,"velocity":0.2755905511811024},{"duration":0.18181800000000692,"midi":55,"time":70.545384,"velocity":0.2755905511811024},{"duration":0.18181800000000692,"midi":43,"time":70.545384,"velocity":0.2755905511811024},{"duration":0.18181800000000692,"midi":55,"time":70.545384,"velocity":0.2755905511811024},{"duration":0.18181800000000692,"midi":43,"time":70.545384,"velocity":0.2755905511811024},{"duration":0.1818179999999927,"midi":43,"time":70.727202,"velocity":0.2755905511811024},{"duration":0.1818179999999927,"midi":55,"time":70.727202,"velocity":0.2755905511811024},{"duration":0.1818179999999927,"midi":55,"time":70.727202,"velocity":0.2755905511811024},{"duration":0.1818179999999927,"midi":43,"time":70.727202,"velocity":0.2755905511811024},{"duration":0.18181800000000692,"midi":58,"time":70.90902,"velocity":0.2755905511811024},{"duration":0.18181800000000692,"midi":46,"time":70.90902,"velocity":0.2755905511811024},{"duration":0.18181800000000692,"midi":46,"time":70.90902,"velocity":0.2755905511811024},{"duration":0.18181800000000692,"midi":58,"time":70.90902,"velocity":0.2755905511811024},{"duration":0.1818179999999927,"midi":43,"time":71.090838,"velocity":0.2755905511811024},{"duration":0.1818179999999927,"midi":43,"time":71.090838,"velocity":0.2755905511811024},{"duration":0.1818179999999927,"midi":55,"time":71.090838,"velocity":0.2755905511811024},{"duration":0.1818179999999927,"midi":55,"time":71.090838,"velocity":0.2755905511811024},{"duration":0.18181800000000692,"midi":55,"time":71.272656,"velocity":0.2755905511811024},{"duration":0.18181800000000692,"midi":55,"time":71.272656,"velocity":0.2755905511811024},{"duration":0.18181800000000692,"midi":43,"time":71.272656,"velocity":0.2755905511811024},{"duration":0.18181800000000692,"midi":43,"time":71.272656,"velocity":0.2755905511811024},{"duration":0.1818179999999927,"midi":55,"time":71.454474,"velocity":0.2755905511811024},{"duration":0.1818179999999927,"midi":43,"time":71.454474,"velocity":0.2755905511811024},{"duration":0.1818179999999927,"midi":55,"time":71.454474,"velocity":0.2755905511811024},{"duration":0.1818179999999927,"midi":43,"time":71.454474,"velocity":0.2755905511811024},{"duration":0.18181800000000692,"midi":58,"time":71.636292,"velocity":0.2755905511811024},{"duration":0.18181800000000692,"midi":46,"time":71.636292,"velocity":0.2755905511811024},{"duration":0.18181800000000692,"midi":46,"time":71.636292,"velocity":0.2755905511811024},{"duration":0.18181800000000692,"midi":58,"time":71.636292,"velocity":0.2755905511811024},{"duration":0.1818179999999927,"midi":55,"time":71.81811,"velocity":0.2755905511811024},{"duration":0.1818179999999927,"midi":55,"time":71.81811,"velocity":0.2755905511811024},{"duration":0.1818179999999927,"midi":43,"time":71.81811,"velocity":0.2755905511811024},{"duration":0.1818179999999927,"midi":43,"time":71.81811,"velocity":0.2755905511811024},{"duration":0.18181800000000692,"midi":55,"time":71.999928,"velocity":0.2755905511811024},{"duration":0.18181800000000692,"midi":43,"time":71.999928,"velocity":0.2755905511811024},{"duration":0.18181800000000692,"midi":43,"time":71.999928,"velocity":0.2755905511811024},{"duration":0.18181800000000692,"midi":55,"time":71.999928,"velocity":0.2755905511811024},{"duration":0.1818179999999927,"midi":43,"time":72.181746,"velocity":0.2755905511811024},{"duration":0.1818179999999927,"midi":55,"time":72.181746,"velocity":0.2755905511811024},{"duration":0.1818179999999927,"midi":55,"time":72.181746,"velocity":0.2755905511811024},{"duration":0.1818179999999927,"midi":43,"time":72.181746,"velocity":0.2755905511811024},{"duration":0.18181800000000692,"midi":58,"time":72.363564,"velocity":0.2755905511811024},{"duration":0.18181800000000692,"midi":46,"time":72.363564,"velocity":0.2755905511811024},{"duration":0.18181800000000692,"midi":58,"time":72.363564,"velocity":0.2755905511811024},{"duration":0.18181800000000692,"midi":46,"time":72.363564,"velocity":0.2755905511811024},{"duration":0.1818179999999927,"midi":43,"time":72.545382,"velocity":0.2755905511811024},{"duration":0.1818179999999927,"midi":43,"time":72.545382,"velocity":0.2755905511811024},{"duration":0.1818179999999927,"midi":55,"time":72.545382,"velocity":0.2755905511811024},{"duration":0.1818179999999927,"midi":55,"time":72.545382,"velocity":0.2755905511811024},{"duration":0.18181800000000692,"midi":53,"time":72.7272,"velocity":0.2755905511811024},{"duration":0.18181800000000692,"midi":53,"time":72.7272,"velocity":0.2755905511811024},{"duration":0.18181800000000692,"midi":41,"time":72.7272,"velocity":0.2755905511811024},{"duration":0.18181800000000692,"midi":41,"time":72.7272,"velocity":0.2755905511811024},{"duration":0.1818179999999927,"midi":41,"time":72.909018,"velocity":0.2755905511811024},{"duration":0.1818179999999927,"midi":41,"time":72.909018,"velocity":0.2755905511811024},{"duration":0.1818179999999927,"midi":53,"time":72.909018,"velocity":0.2755905511811024},{"duration":0.1818179999999927,"midi":53,"time":72.909018,"velocity":0.2755905511811024},{"duration":0.18181800000000692,"midi":45,"time":73.090836,"velocity":0.2755905511811024},{"duration":0.18181800000000692,"midi":57,"time":73.090836,"velocity":0.2755905511811024},{"duration":0.18181800000000692,"midi":57,"time":73.090836,"velocity":0.2755905511811024},{"duration":0.18181800000000692,"midi":45,"time":73.090836,"velocity":0.2755905511811024},{"duration":0.18181800000000692,"midi":41,"time":73.272654,"velocity":0.2755905511811024},{"duration":0.18181800000000692,"midi":53,"time":73.272654,"velocity":0.2755905511811024},{"duration":0.18181800000000692,"midi":41,"time":73.272654,"velocity":0.2755905511811024},{"duration":0.18181800000000692,"midi":53,"time":73.272654,"velocity":0.2755905511811024},{"duration":0.1818179999999927,"midi":53,"time":73.45447200000001,"velocity":0.2755905511811024},{"duration":0.1818179999999927,"midi":53,"time":73.45447200000001,"velocity":0.2755905511811024},{"duration":0.1818179999999927,"midi":41,"time":73.45447200000001,"velocity":0.2755905511811024},{"duration":0.1818179999999927,"midi":41,"time":73.45447200000001,"velocity":0.2755905511811024},{"duration":0.18181800000000692,"midi":53,"time":73.63629,"velocity":0.2755905511811024},{"duration":0.18181800000000692,"midi":41,"time":73.63629,"velocity":0.2755905511811024},{"duration":0.18181800000000692,"midi":41,"time":73.63629,"velocity":0.2755905511811024},{"duration":0.18181800000000692,"midi":53,"time":73.63629,"velocity":0.2755905511811024},{"duration":0.1818179999999927,"midi":45,"time":73.81810800000001,"velocity":0.2755905511811024},{"duration":0.1818179999999927,"midi":57,"time":73.81810800000001,"velocity":0.2755905511811024},{"duration":0.1818179999999927,"midi":57,"time":73.81810800000001,"velocity":0.2755905511811024},{"duration":0.1818179999999927,"midi":45,"time":73.81810800000001,"velocity":0.2755905511811024},{"duration":0.18181800000000692,"midi":53,"time":73.999926,"velocity":0.2755905511811024},{"duration":0.18181800000000692,"midi":41,"time":73.999926,"velocity":0.2755905511811024},{"duration":0.18181800000000692,"midi":41,"time":73.999926,"velocity":0.2755905511811024},{"duration":0.18181800000000692,"midi":53,"time":73.999926,"velocity":0.2755905511811024},{"duration":0.1818179999999927,"midi":53,"time":74.18174400000001,"velocity":0.2755905511811024},{"duration":0.1818179999999927,"midi":41,"time":74.18174400000001,"velocity":0.2755905511811024},{"duration":0.1818179999999927,"midi":41,"time":74.18174400000001,"velocity":0.2755905511811024},{"duration":0.1818179999999927,"midi":53,"time":74.18174400000001,"velocity":0.2755905511811024},{"duration":0.18181800000000692,"midi":53,"time":74.363562,"velocity":0.2755905511811024},{"duration":0.18181800000000692,"midi":41,"time":74.363562,"velocity":0.2755905511811024},{"duration":0.18181800000000692,"midi":53,"time":74.363562,"velocity":0.2755905511811024},{"duration":0.18181800000000692,"midi":41,"time":74.363562,"velocity":0.2755905511811024},{"duration":0.1818179999999927,"midi":45,"time":74.54538000000001,"velocity":0.2755905511811024},{"duration":0.1818179999999927,"midi":57,"time":74.54538000000001,"velocity":0.2755905511811024},{"duration":0.1818179999999927,"midi":57,"time":74.54538000000001,"velocity":0.2755905511811024},{"duration":0.1818179999999927,"midi":45,"time":74.54538000000001,"velocity":0.2755905511811024},{"duration":0.18181800000000692,"midi":53,"time":74.727198,"velocity":0.2755905511811024},{"duration":0.18181800000000692,"midi":41,"time":74.727198,"velocity":0.2755905511811024},{"duration":0.18181800000000692,"midi":41,"time":74.727198,"velocity":0.2755905511811024},{"duration":0.18181800000000692,"midi":53,"time":74.727198,"velocity":0.2755905511811024},{"duration":0.1818179999999927,"midi":41,"time":74.90901600000001,"velocity":0.2755905511811024},{"duration":0.1818179999999927,"midi":53,"time":74.90901600000001,"velocity":0.2755905511811024},{"duration":0.1818179999999927,"midi":53,"time":74.90901600000001,"velocity":0.2755905511811024},{"duration":0.1818179999999927,"midi":41,"time":74.90901600000001,"velocity":0.2755905511811024},{"duration":0.18181800000000692,"midi":53,"time":75.090834,"velocity":0.2755905511811024},{"duration":0.18181800000000692,"midi":41,"time":75.090834,"velocity":0.2755905511811024},{"duration":0.18181800000000692,"midi":53,"time":75.090834,"velocity":0.2755905511811024},{"duration":0.18181800000000692,"midi":41,"time":75.090834,"velocity":0.2755905511811024},{"duration":0.1818179999999927,"midi":57,"time":75.27265200000001,"velocity":0.2755905511811024},{"duration":0.1818179999999927,"midi":45,"time":75.27265200000001,"velocity":0.2755905511811024},{"duration":0.1818179999999927,"midi":57,"time":75.27265200000001,"velocity":0.2755905511811024},{"duration":0.1818179999999927,"midi":45,"time":75.27265200000001,"velocity":0.2755905511811024},{"duration":0.18181800000000692,"midi":53,"time":75.45447,"velocity":0.2755905511811024},{"duration":0.18181800000000692,"midi":53,"time":75.45447,"velocity":0.2755905511811024},{"duration":0.18181800000000692,"midi":41,"time":75.45447,"velocity":0.2755905511811024},{"duration":0.18181800000000692,"midi":41,"time":75.45447,"velocity":0.2755905511811024},{"duration":0.1818179999999927,"midi":43,"time":75.63628800000001,"velocity":0.2755905511811024},{"duration":0.1818179999999927,"midi":43,"time":75.63628800000001,"velocity":0.2755905511811024},{"duration":0.1818179999999927,"midi":55,"time":75.63628800000001,"velocity":0.2755905511811024},{"duration":0.1818179999999927,"midi":55,"time":75.63628800000001,"velocity":0.2755905511811024},{"duration":0.18181800000000692,"midi":55,"time":75.818106,"velocity":0.2755905511811024},{"duration":0.18181800000000692,"midi":43,"time":75.818106,"velocity":0.2755905511811024},{"duration":0.18181800000000692,"midi":55,"time":75.818106,"velocity":0.2755905511811024},{"duration":0.18181800000000692,"midi":43,"time":75.818106,"velocity":0.2755905511811024},{"duration":0.1818179999999927,"midi":46,"time":75.99992400000001,"velocity":0.2755905511811024},{"duration":0.1818179999999927,"midi":46,"time":75.99992400000001,"velocity":0.2755905511811024},{"duration":0.1818179999999927,"midi":58,"time":75.99992400000001,"velocity":0.2755905511811024},{"duration":0.1818179999999927,"midi":58,"time":75.99992400000001,"velocity":0.2755905511811024},{"duration":0.18181800000000692,"midi":43,"time":76.181742,"velocity":0.2755905511811024},{"duration":0.18181800000000692,"midi":55,"time":76.181742,"velocity":0.2755905511811024},{"duration":0.18181800000000692,"midi":43,"time":76.181742,"velocity":0.2755905511811024},{"duration":0.18181800000000692,"midi":55,"time":76.181742,"velocity":0.2755905511811024},{"duration":0.1818179999999927,"midi":55,"time":76.36356,"velocity":0.2755905511811024},{"duration":0.1818179999999927,"midi":43,"time":76.36356,"velocity":0.2755905511811024},{"duration":0.1818179999999927,"midi":43,"time":76.36356,"velocity":0.2755905511811024},{"duration":0.1818179999999927,"midi":55,"time":76.36356,"velocity":0.2755905511811024},{"duration":0.18181800000000692,"midi":43,"time":76.545378,"velocity":0.2755905511811024},{"duration":0.18181800000000692,"midi":43,"time":76.545378,"velocity":0.2755905511811024},{"duration":0.18181800000000692,"midi":55,"time":76.545378,"velocity":0.2755905511811024},{"duration":0.18181800000000692,"midi":55,"time":76.545378,"velocity":0.2755905511811024},{"duration":0.1818179999999927,"midi":58,"time":76.727196,"velocity":0.2755905511811024},{"duration":0.1818179999999927,"midi":58,"time":76.727196,"velocity":0.2755905511811024},{"duration":0.1818179999999927,"midi":46,"time":76.727196,"velocity":0.2755905511811024},{"duration":0.1818179999999927,"midi":46,"time":76.727196,"velocity":0.2755905511811024},{"duration":0.18181800000000692,"midi":55,"time":76.909014,"velocity":0.2755905511811024},{"duration":0.18181800000000692,"midi":43,"time":76.909014,"velocity":0.2755905511811024},{"duration":0.18181800000000692,"midi":55,"time":76.909014,"velocity":0.2755905511811024},{"duration":0.18181800000000692,"midi":43,"time":76.909014,"velocity":0.2755905511811024},{"duration":0.1818179999999927,"midi":55,"time":77.090832,"velocity":0.2755905511811024},{"duration":0.1818179999999927,"midi":43,"time":77.090832,"velocity":0.2755905511811024},{"duration":0.1818179999999927,"midi":43,"time":77.090832,"velocity":0.2755905511811024},{"duration":0.1818179999999927,"midi":55,"time":77.090832,"velocity":0.2755905511811024},{"duration":0.18181800000000692,"midi":43,"time":77.27265,"velocity":0.2755905511811024},{"duration":0.18181800000000692,"midi":55,"time":77.27265,"velocity":0.2755905511811024},{"duration":0.18181800000000692,"midi":43,"time":77.27265,"velocity":0.2755905511811024},{"duration":0.18181800000000692,"midi":55,"time":77.27265,"velocity":0.2755905511811024},{"duration":0.1818179999999927,"midi":46,"time":77.454468,"velocity":0.2755905511811024},{"duration":0.1818179999999927,"midi":58,"time":77.454468,"velocity":0.2755905511811024},{"duration":0.1818179999999927,"midi":46,"time":77.454468,"velocity":0.2755905511811024},{"duration":0.1818179999999927,"midi":58,"time":77.454468,"velocity":0.2755905511811024},{"duration":0.18181800000000692,"midi":43,"time":77.636286,"velocity":0.2755905511811024},{"duration":0.18181800000000692,"midi":55,"time":77.636286,"velocity":0.2755905511811024},{"duration":0.18181800000000692,"midi":55,"time":77.636286,"velocity":0.2755905511811024},{"duration":0.18181800000000692,"midi":43,"time":77.636286,"velocity":0.2755905511811024},{"duration":0.1818179999999927,"midi":55,"time":77.818104,"velocity":0.2755905511811024},{"duration":0.1818179999999927,"midi":43,"time":77.818104,"velocity":0.2755905511811024},{"duration":0.1818179999999927,"midi":55,"time":77.818104,"velocity":0.2755905511811024},{"duration":0.1818179999999927,"midi":43,"time":77.818104,"velocity":0.2755905511811024},{"duration":0.18181800000000692,"midi":55,"time":77.999922,"velocity":0.2755905511811024},{"duration":0.18181800000000692,"midi":43,"time":77.999922,"velocity":0.2755905511811024},{"duration":0.18181800000000692,"midi":43,"time":77.999922,"velocity":0.2755905511811024},{"duration":0.18181800000000692,"midi":55,"time":77.999922,"velocity":0.2755905511811024},{"duration":0.1818179999999927,"midi":58,"time":78.18174,"velocity":0.2755905511811024},{"duration":0.1818179999999927,"midi":46,"time":78.18174,"velocity":0.2755905511811024},{"duration":0.1818179999999927,"midi":46,"time":78.18174,"velocity":0.2755905511811024},{"duration":0.1818179999999927,"midi":58,"time":78.18174,"velocity":0.2755905511811024},{"duration":0.18181800000000692,"midi":55,"time":78.363558,"velocity":0.2755905511811024},{"duration":0.18181800000000692,"midi":43,"time":78.363558,"velocity":0.2755905511811024},{"duration":0.18181800000000692,"midi":55,"time":78.363558,"velocity":0.2755905511811024},{"duration":0.18181800000000692,"midi":43,"time":78.363558,"velocity":0.2755905511811024},{"duration":0.1818179999999927,"midi":53,"time":78.545376,"velocity":0.2755905511811024},{"duration":0.1818179999999927,"midi":41,"time":78.545376,"velocity":0.2755905511811024},{"duration":0.1818179999999927,"midi":53,"time":78.545376,"velocity":0.2755905511811024},{"duration":0.1818179999999927,"midi":41,"time":78.545376,"velocity":0.2755905511811024},{"duration":0.18181800000000692,"midi":53,"time":78.727194,"velocity":0.2755905511811024},{"duration":0.18181800000000692,"midi":41,"time":78.727194,"velocity":0.2755905511811024},{"duration":0.18181800000000692,"midi":41,"time":78.727194,"velocity":0.2755905511811024},{"duration":0.18181800000000692,"midi":53,"time":78.727194,"velocity":0.2755905511811024},{"duration":0.1818179999999927,"midi":57,"time":78.909012,"velocity":0.2755905511811024},{"duration":0.1818179999999927,"midi":57,"time":78.909012,"velocity":0.2755905511811024},{"duration":0.1818179999999927,"midi":45,"time":78.909012,"velocity":0.2755905511811024},{"duration":0.1818179999999927,"midi":45,"time":78.909012,"velocity":0.2755905511811024},{"duration":0.18181800000000692,"midi":41,"time":79.09083,"velocity":0.2755905511811024},{"duration":0.18181800000000692,"midi":53,"time":79.09083,"velocity":0.2755905511811024},{"duration":0.18181800000000692,"midi":53,"time":79.09083,"velocity":0.2755905511811024},{"duration":0.18181800000000692,"midi":41,"time":79.09083,"velocity":0.2755905511811024},{"duration":0.1818179999999927,"midi":53,"time":79.272648,"velocity":0.2755905511811024},{"duration":0.1818179999999927,"midi":53,"time":79.272648,"velocity":0.2755905511811024},{"duration":0.1818179999999927,"midi":41,"time":79.272648,"velocity":0.2755905511811024},{"duration":0.1818179999999927,"midi":41,"time":79.272648,"velocity":0.2755905511811024},{"duration":0.18181800000000692,"midi":41,"time":79.454466,"velocity":0.2755905511811024},{"duration":0.18181800000000692,"midi":53,"time":79.454466,"velocity":0.2755905511811024},{"duration":0.18181800000000692,"midi":53,"time":79.454466,"velocity":0.2755905511811024},{"duration":0.18181800000000692,"midi":41,"time":79.454466,"velocity":0.2755905511811024},{"duration":0.18181800000000692,"midi":45,"time":79.636284,"velocity":0.2755905511811024},{"duration":0.18181800000000692,"midi":45,"time":79.636284,"velocity":0.2755905511811024},{"duration":0.18181800000000692,"midi":57,"time":79.636284,"velocity":0.2755905511811024},{"duration":0.18181800000000692,"midi":57,"time":79.636284,"velocity":0.2755905511811024},{"duration":0.1818179999999927,"midi":41,"time":79.81810200000001,"velocity":0.2755905511811024},{"duration":0.1818179999999927,"midi":53,"time":79.81810200000001,"velocity":0.2755905511811024},{"duration":0.1818179999999927,"midi":53,"time":79.81810200000001,"velocity":0.2755905511811024},{"duration":0.1818179999999927,"midi":41,"time":79.81810200000001,"velocity":0.2755905511811024},{"duration":0.18181800000000692,"midi":41,"time":79.99992,"velocity":0.2755905511811024},{"duration":0.18181800000000692,"midi":53,"time":79.99992,"velocity":0.2755905511811024},{"duration":0.18181800000000692,"midi":41,"time":79.99992,"velocity":0.2755905511811024},{"duration":0.18181800000000692,"midi":53,"time":79.99992,"velocity":0.2755905511811024},{"duration":0.1818179999999927,"midi":53,"time":80.18173800000001,"velocity":0.2755905511811024},{"duration":0.1818179999999927,"midi":41,"time":80.18173800000001,"velocity":0.2755905511811024},{"duration":0.1818179999999927,"midi":41,"time":80.18173800000001,"velocity":0.2755905511811024},{"duration":0.1818179999999927,"midi":53,"time":80.18173800000001,"velocity":0.2755905511811024},{"duration":0.18181800000000692,"midi":45,"time":80.363556,"velocity":0.2755905511811024},{"duration":0.18181800000000692,"midi":45,"time":80.363556,"velocity":0.2755905511811024},{"duration":0.18181800000000692,"midi":57,"time":80.363556,"velocity":0.2755905511811024},{"duration":0.18181800000000692,"midi":57,"time":80.363556,"velocity":0.2755905511811024},{"duration":0.1818179999999927,"midi":53,"time":80.54537400000001,"velocity":0.2755905511811024},{"duration":0.1818179999999927,"midi":41,"time":80.54537400000001,"velocity":0.2755905511811024},{"duration":0.1818179999999927,"midi":53,"time":80.54537400000001,"velocity":0.2755905511811024},{"duration":0.1818179999999927,"midi":41,"time":80.54537400000001,"velocity":0.2755905511811024},{"duration":0.18181800000000692,"midi":53,"time":80.727192,"velocity":0.2755905511811024},{"duration":0.18181800000000692,"midi":53,"time":80.727192,"velocity":0.2755905511811024},{"duration":0.18181800000000692,"midi":41,"time":80.727192,"velocity":0.2755905511811024},{"duration":0.18181800000000692,"midi":41,"time":80.727192,"velocity":0.2755905511811024},{"duration":0.1818179999999927,"midi":53,"time":80.90901000000001,"velocity":0.2755905511811024},{"duration":0.1818179999999927,"midi":53,"time":80.90901000000001,"velocity":0.2755905511811024},{"duration":0.1818179999999927,"midi":41,"time":80.90901000000001,"velocity":0.2755905511811024},{"duration":0.1818179999999927,"midi":41,"time":80.90901000000001,"velocity":0.2755905511811024},{"duration":0.18181800000000692,"midi":57,"time":81.090828,"velocity":0.2755905511811024},{"duration":0.18181800000000692,"midi":45,"time":81.090828,"velocity":0.2755905511811024},{"duration":0.18181800000000692,"midi":57,"time":81.090828,"velocity":0.2755905511811024},{"duration":0.18181800000000692,"midi":45,"time":81.090828,"velocity":0.2755905511811024},{"duration":0.1818179999999927,"midi":41,"time":81.27264600000001,"velocity":0.2755905511811024},{"duration":0.1818179999999927,"midi":41,"time":81.27264600000001,"velocity":0.2755905511811024},{"duration":0.1818179999999927,"midi":53,"time":81.27264600000001,"velocity":0.2755905511811024},{"duration":0.1818179999999927,"midi":53,"time":81.27264600000001,"velocity":0.2755905511811024},{"duration":0.18181800000000692,"midi":55,"time":81.454464,"velocity":0.2755905511811024},{"duration":0.18181800000000692,"midi":43,"time":81.454464,"velocity":0.2755905511811024},{"duration":0.18181800000000692,"midi":55,"time":81.454464,"velocity":0.2755905511811024},{"duration":0.18181800000000692,"midi":43,"time":81.454464,"velocity":0.2755905511811024},{"duration":0.1818179999999927,"midi":55,"time":81.63628200000001,"velocity":0.2755905511811024},{"duration":0.1818179999999927,"midi":55,"time":81.63628200000001,"velocity":0.2755905511811024},{"duration":0.1818179999999927,"midi":43,"time":81.63628200000001,"velocity":0.2755905511811024},{"duration":0.1818179999999927,"midi":43,"time":81.63628200000001,"velocity":0.2755905511811024},{"duration":0.18181800000000692,"midi":46,"time":81.8181,"velocity":0.2755905511811024},{"duration":0.18181800000000692,"midi":58,"time":81.8181,"velocity":0.2755905511811024},{"duration":0.18181800000000692,"midi":46,"time":81.8181,"velocity":0.2755905511811024},{"duration":0.18181800000000692,"midi":58,"time":81.8181,"velocity":0.2755905511811024},{"duration":0.1818179999999927,"midi":43,"time":81.99991800000001,"velocity":0.2755905511811024},{"duration":0.1818179999999927,"midi":55,"time":81.99991800000001,"velocity":0.2755905511811024},{"duration":0.1818179999999927,"midi":55,"time":81.99991800000001,"velocity":0.2755905511811024},{"duration":0.1818179999999927,"midi":43,"time":81.99991800000001,"velocity":0.2755905511811024},{"duration":0.18181800000000692,"midi":43,"time":82.181736,"velocity":0.2755905511811024},{"duration":0.18181800000000692,"midi":55,"time":82.181736,"velocity":0.2755905511811024},{"duration":0.18181800000000692,"midi":43,"time":82.181736,"velocity":0.2755905511811024},{"duration":0.18181800000000692,"midi":55,"time":82.181736,"velocity":0.2755905511811024},{"duration":0.1818179999999927,"midi":55,"time":82.36355400000001,"velocity":0.2755905511811024},{"duration":0.1818179999999927,"midi":43,"time":82.36355400000001,"velocity":0.2755905511811024},{"duration":0.1818179999999927,"midi":55,"time":82.36355400000001,"velocity":0.2755905511811024},{"duration":0.1818179999999927,"midi":43,"time":82.36355400000001,"velocity":0.2755905511811024},{"duration":0.18181800000000692,"midi":46,"time":82.545372,"velocity":0.2755905511811024},{"duration":0.18181800000000692,"midi":58,"time":82.545372,"velocity":0.2755905511811024},{"duration":0.18181800000000692,"midi":58,"time":82.545372,"velocity":0.2755905511811024},{"duration":0.18181800000000692,"midi":46,"time":82.545372,"velocity":0.2755905511811024},{"duration":0.1818179999999927,"midi":43,"time":82.72719000000001,"velocity":0.2755905511811024},{"duration":0.1818179999999927,"midi":55,"time":82.72719000000001,"velocity":0.2755905511811024},{"duration":0.1818179999999927,"midi":55,"time":82.72719000000001,"velocity":0.2755905511811024},{"duration":0.1818179999999927,"midi":43,"time":82.72719000000001,"velocity":0.2755905511811024},{"duration":0.18181800000000692,"midi":43,"time":82.909008,"velocity":0.2755905511811024},{"duration":0.18181800000000692,"midi":55,"time":82.909008,"velocity":0.2755905511811024},{"duration":0.18181800000000692,"midi":55,"time":82.909008,"velocity":0.2755905511811024},{"duration":0.18181800000000692,"midi":43,"time":82.909008,"velocity":0.2755905511811024},{"duration":0.1818179999999927,"midi":55,"time":83.090826,"velocity":0.2755905511811024},{"duration":0.1818179999999927,"midi":55,"time":83.090826,"velocity":0.2755905511811024},{"duration":0.1818179999999927,"midi":43,"time":83.090826,"velocity":0.2755905511811024},{"duration":0.1818179999999927,"midi":43,"time":83.090826,"velocity":0.2755905511811024},{"duration":0.18181800000000692,"midi":58,"time":83.272644,"velocity":0.2755905511811024},{"duration":0.18181800000000692,"midi":46,"time":83.272644,"velocity":0.2755905511811024},{"duration":0.18181800000000692,"midi":46,"time":83.272644,"velocity":0.2755905511811024},{"duration":0.18181800000000692,"midi":58,"time":83.272644,"velocity":0.2755905511811024},{"duration":0.1818179999999927,"midi":55,"time":83.454462,"velocity":0.2755905511811024},{"duration":0.1818179999999927,"midi":43,"time":83.454462,"velocity":0.2755905511811024},{"duration":0.1818179999999927,"midi":55,"time":83.454462,"velocity":0.2755905511811024},{"duration":0.1818179999999927,"midi":43,"time":83.454462,"velocity":0.2755905511811024},{"duration":0.18181800000000692,"midi":55,"time":83.63628,"velocity":0.2755905511811024},{"duration":0.18181800000000692,"midi":55,"time":83.63628,"velocity":0.2755905511811024},{"duration":0.18181800000000692,"midi":43,"time":83.63628,"velocity":0.2755905511811024},{"duration":0.18181800000000692,"midi":43,"time":83.63628,"velocity":0.2755905511811024},{"duration":0.1818179999999927,"midi":55,"time":83.818098,"velocity":0.2755905511811024},{"duration":0.1818179999999927,"midi":43,"time":83.818098,"velocity":0.2755905511811024},{"duration":0.1818179999999927,"midi":55,"time":83.818098,"velocity":0.2755905511811024},{"duration":0.1818179999999927,"midi":43,"time":83.818098,"velocity":0.2755905511811024},{"duration":0.18181800000000692,"midi":58,"time":83.999916,"velocity":0.2755905511811024},{"duration":0.18181800000000692,"midi":58,"time":83.999916,"velocity":0.2755905511811024},{"duration":0.18181800000000692,"midi":46,"time":83.999916,"velocity":0.2755905511811024},{"duration":0.18181800000000692,"midi":46,"time":83.999916,"velocity":0.2755905511811024},{"duration":0.1818179999999927,"midi":43,"time":84.181734,"velocity":0.2755905511811024},{"duration":0.1818179999999927,"midi":55,"time":84.181734,"velocity":0.2755905511811024},{"duration":0.1818179999999927,"midi":55,"time":84.181734,"velocity":0.2755905511811024},{"duration":0.1818179999999927,"midi":43,"time":84.181734,"velocity":0.2755905511811024},{"duration":0.18181800000000692,"midi":41,"time":84.363552,"velocity":0.2755905511811024},{"duration":0.18181800000000692,"midi":53,"time":84.363552,"velocity":0.2755905511811024},{"duration":0.18181800000000692,"midi":53,"time":84.363552,"velocity":0.2755905511811024},{"duration":0.18181800000000692,"midi":41,"time":84.363552,"velocity":0.2755905511811024},{"duration":0.1818179999999927,"midi":41,"time":84.54537,"velocity":0.2755905511811024},{"duration":0.1818179999999927,"midi":41,"time":84.54537,"velocity":0.2755905511811024},{"duration":0.1818179999999927,"midi":53,"time":84.54537,"velocity":0.2755905511811024},{"duration":0.1818179999999927,"midi":53,"time":84.54537,"velocity":0.2755905511811024},{"duration":0.18181800000000692,"midi":57,"time":84.727188,"velocity":0.2755905511811024},{"duration":0.18181800000000692,"midi":57,"time":84.727188,"velocity":0.2755905511811024},{"duration":0.18181800000000692,"midi":45,"time":84.727188,"velocity":0.2755905511811024},{"duration":0.18181800000000692,"midi":45,"time":84.727188,"velocity":0.2755905511811024},{"duration":0.1818179999999927,"midi":41,"time":84.909006,"velocity":0.2755905511811024},{"duration":0.1818179999999927,"midi":53,"time":84.909006,"velocity":0.2755905511811024},{"duration":0.1818179999999927,"midi":41,"time":84.909006,"velocity":0.2755905511811024},{"duration":0.1818179999999927,"midi":53,"time":84.909006,"velocity":0.2755905511811024},{"duration":0.18181800000000692,"midi":53,"time":85.090824,"velocity":0.2755905511811024},{"duration":0.18181800000000692,"midi":41,"time":85.090824,"velocity":0.2755905511811024},{"duration":0.18181800000000692,"midi":41,"time":85.090824,"velocity":0.2755905511811024},{"duration":0.18181800000000692,"midi":53,"time":85.090824,"velocity":0.2755905511811024},{"duration":0.1818179999999927,"midi":53,"time":85.272642,"velocity":0.2755905511811024},{"duration":0.1818179999999927,"midi":41,"time":85.272642,"velocity":0.2755905511811024},{"duration":0.1818179999999927,"midi":41,"time":85.272642,"velocity":0.2755905511811024},{"duration":0.1818179999999927,"midi":53,"time":85.272642,"velocity":0.2755905511811024},{"duration":0.18181800000000692,"midi":57,"time":85.45446,"velocity":0.2755905511811024},{"duration":0.18181800000000692,"midi":45,"time":85.45446,"velocity":0.2755905511811024},{"duration":0.18181800000000692,"midi":57,"time":85.45446,"velocity":0.2755905511811024},{"duration":0.18181800000000692,"midi":45,"time":85.45446,"velocity":0.2755905511811024},{"duration":0.1818179999999927,"midi":53,"time":85.636278,"velocity":0.2755905511811024},{"duration":0.1818179999999927,"midi":41,"time":85.636278,"velocity":0.2755905511811024},{"duration":0.1818179999999927,"midi":41,"time":85.636278,"velocity":0.2755905511811024},{"duration":0.1818179999999927,"midi":53,"time":85.636278,"velocity":0.2755905511811024},{"duration":0.18181800000000692,"midi":41,"time":85.818096,"velocity":0.2755905511811024},{"duration":0.18181800000000692,"midi":53,"time":85.818096,"velocity":0.2755905511811024},{"duration":0.18181800000000692,"midi":41,"time":85.818096,"velocity":0.2755905511811024},{"duration":0.18181800000000692,"midi":53,"time":85.818096,"velocity":0.2755905511811024},{"duration":0.1818179999999927,"midi":41,"time":85.999914,"velocity":0.2755905511811024},{"duration":0.1818179999999927,"midi":53,"time":85.999914,"velocity":0.2755905511811024},{"duration":0.1818179999999927,"midi":41,"time":85.999914,"velocity":0.2755905511811024},{"duration":0.1818179999999927,"midi":53,"time":85.999914,"velocity":0.2755905511811024},{"duration":0.18181800000000692,"midi":45,"time":86.181732,"velocity":0.2755905511811024},{"duration":0.18181800000000692,"midi":45,"time":86.181732,"velocity":0.2755905511811024},{"duration":0.18181800000000692,"midi":57,"time":86.181732,"velocity":0.2755905511811024},{"duration":0.18181800000000692,"midi":57,"time":86.181732,"velocity":0.2755905511811024},{"duration":0.18181800000000692,"midi":41,"time":86.36355,"velocity":0.2755905511811024},{"duration":0.18181800000000692,"midi":41,"time":86.36355,"velocity":0.2755905511811024},{"duration":0.18181800000000692,"midi":53,"time":86.36355,"velocity":0.2755905511811024},{"duration":0.18181800000000692,"midi":53,"time":86.36355,"velocity":0.2755905511811024},{"duration":0.1818179999999927,"midi":53,"time":86.54536800000001,"velocity":0.2755905511811024},{"duration":0.1818179999999927,"midi":53,"time":86.54536800000001,"velocity":0.2755905511811024},{"duration":0.1818179999999927,"midi":41,"time":86.54536800000001,"velocity":0.2755905511811024},{"duration":0.1818179999999927,"midi":41,"time":86.54536800000001,"velocity":0.2755905511811024},{"duration":0.18181800000000692,"midi":41,"time":86.727186,"velocity":0.2755905511811024},{"duration":0.18181800000000692,"midi":53,"time":86.727186,"velocity":0.2755905511811024},{"duration":0.18181800000000692,"midi":53,"time":86.727186,"velocity":0.2755905511811024},{"duration":0.18181800000000692,"midi":41,"time":86.727186,"velocity":0.2755905511811024},{"duration":0.1818179999999927,"midi":45,"time":86.90900400000001,"velocity":0.2755905511811024},{"duration":0.1818179999999927,"midi":57,"time":86.90900400000001,"velocity":0.2755905511811024},{"duration":0.1818179999999927,"midi":57,"time":86.90900400000001,"velocity":0.2755905511811024},{"duration":0.1818179999999927,"midi":45,"time":86.90900400000001,"velocity":0.2755905511811024},{"duration":0.18181800000000692,"midi":41,"time":87.090822,"velocity":0.2755905511811024},{"duration":0.18181800000000692,"midi":53,"time":87.090822,"velocity":0.2755905511811024},{"duration":0.18181800000000692,"midi":53,"time":87.090822,"velocity":0.2755905511811024},{"duration":0.18181800000000692,"midi":41,"time":87.090822,"velocity":0.2755905511811024},{"duration":0.1818179999999927,"midi":43,"time":87.27264000000001,"velocity":0.2755905511811024},{"duration":0.1818179999999927,"midi":55,"time":87.27264000000001,"velocity":0.2755905511811024},{"duration":0.1818179999999927,"midi":43,"time":87.27264000000001,"velocity":0.2755905511811024},{"duration":0.1818179999999927,"midi":55,"time":87.27264000000001,"velocity":0.2755905511811024},{"duration":0.18181800000000692,"midi":43,"time":87.454458,"velocity":0.2755905511811024},{"duration":0.18181800000000692,"midi":55,"time":87.454458,"velocity":0.2755905511811024},{"duration":0.18181800000000692,"midi":43,"time":87.454458,"velocity":0.2755905511811024},{"duration":0.18181800000000692,"midi":55,"time":87.454458,"velocity":0.2755905511811024},{"duration":0.1818179999999927,"midi":58,"time":87.63627600000001,"velocity":0.2755905511811024},{"duration":0.1818179999999927,"midi":58,"time":87.63627600000001,"velocity":0.2755905511811024},{"duration":0.1818179999999927,"midi":46,"time":87.63627600000001,"velocity":0.2755905511811024},{"duration":0.1818179999999927,"midi":46,"time":87.63627600000001,"velocity":0.2755905511811024},{"duration":0.18181800000000692,"midi":43,"time":87.818094,"velocity":0.2755905511811024},{"duration":0.18181800000000692,"midi":43,"time":87.818094,"velocity":0.2755905511811024},{"duration":0.18181800000000692,"midi":55,"time":87.818094,"velocity":0.2755905511811024},{"duration":0.18181800000000692,"midi":55,"time":87.818094,"velocity":0.2755905511811024},{"duration":0.1818179999999927,"midi":43,"time":87.99991200000001,"velocity":0.2755905511811024},{"duration":0.1818179999999927,"midi":43,"time":87.99991200000001,"velocity":0.2755905511811024},{"duration":0.1818179999999927,"midi":55,"time":87.99991200000001,"velocity":0.2755905511811024},{"duration":0.1818179999999927,"midi":55,"time":87.99991200000001,"velocity":0.2755905511811024},{"duration":0.18181800000000692,"midi":55,"time":88.18173,"velocity":0.2755905511811024},{"duration":0.18181800000000692,"midi":43,"time":88.18173,"velocity":0.2755905511811024},{"duration":0.18181800000000692,"midi":55,"time":88.18173,"velocity":0.2755905511811024},{"duration":0.18181800000000692,"midi":43,"time":88.18173,"velocity":0.2755905511811024},{"duration":0.1818179999999927,"midi":58,"time":88.36354800000001,"velocity":0.2755905511811024},{"duration":0.1818179999999927,"midi":58,"time":88.36354800000001,"velocity":0.2755905511811024},{"duration":0.1818179999999927,"midi":46,"time":88.36354800000001,"velocity":0.2755905511811024},{"duration":0.1818179999999927,"midi":46,"time":88.36354800000001,"velocity":0.2755905511811024},{"duration":0.18181800000000692,"midi":55,"time":88.545366,"velocity":0.2755905511811024},{"duration":0.18181800000000692,"midi":55,"time":88.545366,"velocity":0.2755905511811024},{"duration":0.18181800000000692,"midi":43,"time":88.545366,"velocity":0.2755905511811024},{"duration":0.18181800000000692,"midi":43,"time":88.545366,"velocity":0.2755905511811024},{"duration":0.1818179999999927,"midi":43,"time":88.72718400000001,"velocity":0.2755905511811024},{"duration":0.1818179999999927,"midi":55,"time":88.72718400000001,"velocity":0.2755905511811024},{"duration":0.1818179999999927,"midi":43,"time":88.72718400000001,"velocity":0.2755905511811024},{"duration":0.1818179999999927,"midi":55,"time":88.72718400000001,"velocity":0.2755905511811024},{"duration":0.18181800000000692,"midi":43,"time":88.909002,"velocity":0.2755905511811024},{"duration":0.18181800000000692,"midi":55,"time":88.909002,"velocity":0.2755905511811024},{"duration":0.18181800000000692,"midi":43,"time":88.909002,"velocity":0.2755905511811024},{"duration":0.18181800000000692,"midi":55,"time":88.909002,"velocity":0.2755905511811024},{"duration":0.1818179999999927,"midi":58,"time":89.09082000000001,"velocity":0.2755905511811024},{"duration":0.1818179999999927,"midi":46,"time":89.09082000000001,"velocity":0.2755905511811024},{"duration":0.1818179999999927,"midi":58,"time":89.09082000000001,"velocity":0.2755905511811024},{"duration":0.1818179999999927,"midi":46,"time":89.09082000000001,"velocity":0.2755905511811024},{"duration":0.18181800000000692,"midi":55,"time":89.272638,"velocity":0.2755905511811024},{"duration":0.18181800000000692,"midi":43,"time":89.272638,"velocity":0.2755905511811024},{"duration":0.18181800000000692,"midi":43,"time":89.272638,"velocity":0.2755905511811024},{"duration":0.18181800000000692,"midi":55,"time":89.272638,"velocity":0.2755905511811024},{"duration":0.1818179999999927,"midi":43,"time":89.45445600000001,"velocity":0.2755905511811024},{"duration":0.1818179999999927,"midi":43,"time":89.45445600000001,"velocity":0.2755905511811024},{"duration":0.1818179999999927,"midi":55,"time":89.45445600000001,"velocity":0.2755905511811024},{"duration":0.1818179999999927,"midi":55,"time":89.45445600000001,"velocity":0.2755905511811024},{"duration":0.18181800000000692,"midi":43,"time":89.636274,"velocity":0.2755905511811024},{"duration":0.18181800000000692,"midi":55,"time":89.636274,"velocity":0.2755905511811024},{"duration":0.18181800000000692,"midi":43,"time":89.636274,"velocity":0.2755905511811024},{"duration":0.18181800000000692,"midi":55,"time":89.636274,"velocity":0.2755905511811024},{"duration":0.1818179999999927,"midi":58,"time":89.81809200000001,"velocity":0.2755905511811024},{"duration":0.1818179999999927,"midi":58,"time":89.81809200000001,"velocity":0.2755905511811024},{"duration":0.1818179999999927,"midi":46,"time":89.81809200000001,"velocity":0.2755905511811024},{"duration":0.1818179999999927,"midi":46,"time":89.81809200000001,"velocity":0.2755905511811024},{"duration":0.18181800000000692,"midi":55,"time":89.99991,"velocity":0.2755905511811024},{"duration":0.18181800000000692,"midi":43,"time":89.99991,"velocity":0.2755905511811024},{"duration":0.18181800000000692,"midi":55,"time":89.99991,"velocity":0.2755905511811024},{"duration":0.18181800000000692,"midi":43,"time":89.99991,"velocity":0.2755905511811024},{"duration":0.1818179999999927,"midi":41,"time":90.181728,"velocity":0.2755905511811024},{"duration":0.1818179999999927,"midi":53,"time":90.181728,"velocity":0.2755905511811024},{"duration":0.1818179999999927,"midi":41,"time":90.181728,"velocity":0.2755905511811024},{"duration":0.1818179999999927,"midi":53,"time":90.181728,"velocity":0.2755905511811024},{"duration":0.18181800000000692,"midi":41,"time":90.363546,"velocity":0.2755905511811024},{"duration":0.18181800000000692,"midi":41,"time":90.363546,"velocity":0.2755905511811024},{"duration":0.18181800000000692,"midi":53,"time":90.363546,"velocity":0.2755905511811024},{"duration":0.18181800000000692,"midi":53,"time":90.363546,"velocity":0.2755905511811024},{"duration":0.1818179999999927,"midi":57,"time":90.545364,"velocity":0.2755905511811024},{"duration":0.1818179999999927,"midi":45,"time":90.545364,"velocity":0.2755905511811024},{"duration":0.1818179999999927,"midi":45,"time":90.545364,"velocity":0.2755905511811024},{"duration":0.1818179999999927,"midi":57,"time":90.545364,"velocity":0.2755905511811024},{"duration":0.18181800000000692,"midi":41,"time":90.727182,"velocity":0.2755905511811024},{"duration":0.18181800000000692,"midi":41,"time":90.727182,"velocity":0.2755905511811024},{"duration":0.18181800000000692,"midi":53,"time":90.727182,"velocity":0.2755905511811024},{"duration":0.18181800000000692,"midi":53,"time":90.727182,"velocity":0.2755905511811024},{"duration":0.1818179999999927,"midi":53,"time":90.909,"velocity":0.2755905511811024},{"duration":0.1818179999999927,"midi":41,"time":90.909,"velocity":0.2755905511811024},{"duration":0.1818179999999927,"midi":41,"time":90.909,"velocity":0.2755905511811024},{"duration":0.1818179999999927,"midi":53,"time":90.909,"velocity":0.2755905511811024},{"duration":0.18181800000000692,"midi":41,"time":91.090818,"velocity":0.2755905511811024},{"duration":0.18181800000000692,"midi":53,"time":91.090818,"velocity":0.2755905511811024},{"duration":0.18181800000000692,"midi":53,"time":91.090818,"velocity":0.2755905511811024},{"duration":0.18181800000000692,"midi":41,"time":91.090818,"velocity":0.2755905511811024},{"duration":0.1818179999999927,"midi":45,"time":91.272636,"velocity":0.2755905511811024},{"duration":0.1818179999999927,"midi":57,"time":91.272636,"velocity":0.2755905511811024},{"duration":0.1818179999999927,"midi":57,"time":91.272636,"velocity":0.2755905511811024},{"duration":0.1818179999999927,"midi":45,"time":91.272636,"velocity":0.2755905511811024},{"duration":0.18181800000000692,"midi":41,"time":91.454454,"velocity":0.2755905511811024},{"duration":0.18181800000000692,"midi":53,"time":91.454454,"velocity":0.2755905511811024},{"duration":0.18181800000000692,"midi":53,"time":91.454454,"velocity":0.2755905511811024},{"duration":0.18181800000000692,"midi":41,"time":91.454454,"velocity":0.2755905511811024},{"duration":0.1818179999999927,"midi":41,"time":91.636272,"velocity":0.2755905511811024},{"duration":0.1818179999999927,"midi":53,"time":91.636272,"velocity":0.2755905511811024},{"duration":0.1818179999999927,"midi":53,"time":91.636272,"velocity":0.2755905511811024},{"duration":0.1818179999999927,"midi":41,"time":91.636272,"velocity":0.2755905511811024},{"duration":0.18181800000000692,"midi":41,"time":91.81809,"velocity":0.2755905511811024},{"duration":0.18181800000000692,"midi":41,"time":91.81809,"velocity":0.2755905511811024},{"duration":0.18181800000000692,"midi":53,"time":91.81809,"velocity":0.2755905511811024},{"duration":0.18181800000000692,"midi":53,"time":91.81809,"velocity":0.2755905511811024},{"duration":0.1818179999999927,"midi":45,"time":91.999908,"velocity":0.2755905511811024},{"duration":0.1818179999999927,"midi":57,"time":91.999908,"velocity":0.2755905511811024},{"duration":0.1818179999999927,"midi":45,"time":91.999908,"velocity":0.2755905511811024},{"duration":0.1818179999999927,"midi":57,"time":91.999908,"velocity":0.2755905511811024},{"duration":0.18181800000000692,"midi":41,"time":92.181726,"velocity":0.2755905511811024},{"duration":0.18181800000000692,"midi":53,"time":92.181726,"velocity":0.2755905511811024},{"duration":0.18181800000000692,"midi":41,"time":92.181726,"velocity":0.2755905511811024},{"duration":0.18181800000000692,"midi":53,"time":92.181726,"velocity":0.2755905511811024},{"duration":0.1818179999999927,"midi":41,"time":92.363544,"velocity":0.2755905511811024},{"duration":0.1818179999999927,"midi":53,"time":92.363544,"velocity":0.2755905511811024},{"duration":0.1818179999999927,"midi":53,"time":92.363544,"velocity":0.2755905511811024},{"duration":0.1818179999999927,"midi":41,"time":92.363544,"velocity":0.2755905511811024},{"duration":0.18181800000000692,"midi":41,"time":92.545362,"velocity":0.2755905511811024},{"duration":0.18181800000000692,"midi":53,"time":92.545362,"velocity":0.2755905511811024},{"duration":0.18181800000000692,"midi":53,"time":92.545362,"velocity":0.2755905511811024},{"duration":0.18181800000000692,"midi":41,"time":92.545362,"velocity":0.2755905511811024},{"duration":0.1818179999999927,"midi":57,"time":92.72718,"velocity":0.2755905511811024},{"duration":0.1818179999999927,"midi":45,"time":92.72718,"velocity":0.2755905511811024},{"duration":0.1818179999999927,"midi":45,"time":92.72718,"velocity":0.2755905511811024},{"duration":0.1818179999999927,"midi":57,"time":92.72718,"velocity":0.2755905511811024},{"duration":0.18181800000000692,"midi":41,"time":92.908998,"velocity":0.2755905511811024},{"duration":0.18181800000000692,"midi":53,"time":92.908998,"velocity":0.2755905511811024},{"duration":0.18181800000000692,"midi":41,"time":92.908998,"velocity":0.2755905511811024},{"duration":0.18181800000000692,"midi":53,"time":92.908998,"velocity":0.2755905511811024},{"duration":0.18181800000000692,"midi":43,"time":93.090816,"velocity":0.2755905511811024},{"duration":0.18181800000000692,"midi":31,"time":93.090816,"velocity":0.2755905511811024},{"duration":0.1818179999999927,"midi":43,"time":93.27263400000001,"velocity":0.2755905511811024},{"duration":0.1818179999999927,"midi":55,"time":93.27263400000001,"velocity":0.2755905511811024},{"duration":0.18181800000000692,"midi":31,"time":93.454452,"velocity":0.2755905511811024},{"duration":0.18181800000000692,"midi":43,"time":93.454452,"velocity":0.2755905511811024},{"duration":0.1818179999999927,"midi":55,"time":93.63627000000001,"velocity":0.2755905511811024},{"duration":0.1818179999999927,"midi":43,"time":93.63627000000001,"velocity":0.2755905511811024},{"duration":0.18181800000000692,"midi":43,"time":93.818088,"velocity":0.2755905511811024},{"duration":0.18181800000000692,"midi":31,"time":93.818088,"velocity":0.2755905511811024},{"duration":0.1818179999999927,"midi":55,"time":93.99990600000001,"velocity":0.2755905511811024},{"duration":0.1818179999999927,"midi":43,"time":93.99990600000001,"velocity":0.2755905511811024},{"duration":0.18181800000000692,"midi":43,"time":94.181724,"velocity":0.2755905511811024},{"duration":0.18181800000000692,"midi":31,"time":94.181724,"velocity":0.2755905511811024},{"duration":0.1818179999999927,"midi":55,"time":94.36354200000001,"velocity":0.2755905511811024},{"duration":0.1818179999999927,"midi":43,"time":94.36354200000001,"velocity":0.2755905511811024},{"duration":0.18181800000000692,"midi":43,"time":94.54536,"velocity":0.2755905511811024},{"duration":0.18181800000000692,"midi":31,"time":94.54536,"velocity":0.2755905511811024},{"duration":0.1818179999999927,"midi":55,"time":94.72717800000001,"velocity":0.2755905511811024},{"duration":0.1818179999999927,"midi":43,"time":94.72717800000001,"velocity":0.2755905511811024},{"duration":0.18181800000000692,"midi":31,"time":94.908996,"velocity":0.2755905511811024},{"duration":0.18181800000000692,"midi":43,"time":94.908996,"velocity":0.2755905511811024},{"duration":0.1818179999999927,"midi":55,"time":95.09081400000001,"velocity":0.2755905511811024},{"duration":0.1818179999999927,"midi":43,"time":95.09081400000001,"velocity":0.2755905511811024},{"duration":0.18181800000000692,"midi":43,"time":95.272632,"velocity":0.2755905511811024},{"duration":0.18181800000000692,"midi":31,"time":95.272632,"velocity":0.2755905511811024},{"duration":0.1818179999999927,"midi":43,"time":95.45445000000001,"velocity":0.2755905511811024},{"duration":0.1818179999999927,"midi":55,"time":95.45445000000001,"velocity":0.2755905511811024},{"duration":0.18181800000000692,"midi":31,"time":95.636268,"velocity":0.2755905511811024},{"duration":0.18181800000000692,"midi":43,"time":95.636268,"velocity":0.2755905511811024},{"duration":0.1818179999999927,"midi":55,"time":95.81808600000001,"velocity":0.2755905511811024},{"duration":0.1818179999999927,"midi":43,"time":95.81808600000001,"velocity":0.2755905511811024},{"duration":0.18181800000000692,"midi":41,"time":95.999904,"velocity":0.2755905511811024},{"duration":0.18181800000000692,"midi":29,"time":95.999904,"velocity":0.2755905511811024},{"duration":0.1818179999999927,"midi":41,"time":96.18172200000001,"velocity":0.2755905511811024},{"duration":0.1818179999999927,"midi":53,"time":96.18172200000001,"velocity":0.2755905511811024},{"duration":0.18181800000000692,"midi":41,"time":96.36354,"velocity":0.2755905511811024},{"duration":0.18181800000000692,"midi":29,"time":96.36354,"velocity":0.2755905511811024},{"duration":0.1818179999999927,"midi":41,"time":96.54535800000001,"velocity":0.2755905511811024},{"duration":0.1818179999999927,"midi":53,"time":96.54535800000001,"velocity":0.2755905511811024},{"duration":0.18181800000000692,"midi":29,"time":96.727176,"velocity":0.2755905511811024},{"duration":0.18181800000000692,"midi":41,"time":96.727176,"velocity":0.2755905511811024},{"duration":0.1818179999999927,"midi":41,"time":96.908994,"velocity":0.2755905511811024},{"duration":0.1818179999999927,"midi":53,"time":96.908994,"velocity":0.2755905511811024},{"duration":0.18181800000000692,"midi":41,"time":97.090812,"velocity":0.2755905511811024},{"duration":0.18181800000000692,"midi":29,"time":97.090812,"velocity":0.2755905511811024},{"duration":0.1818179999999927,"midi":41,"time":97.27263,"velocity":0.2755905511811024},{"duration":0.1818179999999927,"midi":53,"time":97.27263,"velocity":0.2755905511811024},{"duration":0.18181800000000692,"midi":31,"time":97.454448,"velocity":0.2755905511811024},{"duration":0.18181800000000692,"midi":43,"time":97.454448,"velocity":0.2755905511811024},{"duration":0.1818179999999927,"midi":55,"time":97.636266,"velocity":0.2755905511811024},{"duration":0.1818179999999927,"midi":43,"time":97.636266,"velocity":0.2755905511811024},{"duration":0.18181800000000692,"midi":31,"time":97.818084,"velocity":0.2755905511811024},{"duration":0.18181800000000692,"midi":43,"time":97.818084,"velocity":0.2755905511811024},{"duration":0.1818179999999927,"midi":55,"time":97.999902,"velocity":0.2755905511811024},{"duration":0.1818179999999927,"midi":43,"time":97.999902,"velocity":0.2755905511811024},{"duration":0.18181800000000692,"midi":43,"time":98.18172,"velocity":0.2755905511811024},{"duration":0.18181800000000692,"midi":31,"time":98.18172,"velocity":0.2755905511811024},{"duration":0.1818179999999927,"midi":43,"time":98.363538,"velocity":0.2755905511811024},{"duration":0.1818179999999927,"midi":55,"time":98.363538,"velocity":0.2755905511811024},{"duration":0.18181800000000692,"midi":31,"time":98.545356,"velocity":0.2755905511811024},{"duration":0.18181800000000692,"midi":43,"time":98.545356,"velocity":0.2755905511811024},{"duration":0.1818179999999927,"midi":55,"time":98.727174,"velocity":0.2755905511811024},{"duration":0.1818179999999927,"midi":43,"time":98.727174,"velocity":0.2755905511811024},{"duration":0.18181800000000692,"midi":31,"time":98.908992,"velocity":0.2755905511811024},{"duration":0.18181800000000692,"midi":43,"time":98.908992,"velocity":0.2755905511811024},{"duration":0.1818179999999927,"midi":55,"time":99.09081,"velocity":0.2755905511811024},{"duration":0.1818179999999927,"midi":43,"time":99.09081,"velocity":0.2755905511811024},{"duration":0.18181800000000692,"midi":31,"time":99.272628,"velocity":0.2755905511811024},{"duration":0.18181800000000692,"midi":43,"time":99.272628,"velocity":0.2755905511811024},{"duration":0.1818179999999927,"midi":55,"time":99.454446,"velocity":0.2755905511811024},{"duration":0.1818179999999927,"midi":43,"time":99.454446,"velocity":0.2755905511811024},{"duration":0.18181800000000692,"midi":43,"time":99.636264,"velocity":0.2755905511811024},{"duration":0.18181800000000692,"midi":31,"time":99.636264,"velocity":0.2755905511811024},{"duration":0.18181800000000692,"midi":55,"time":99.818082,"velocity":0.2755905511811024},{"duration":0.18181800000000692,"midi":43,"time":99.818082,"velocity":0.2755905511811024},{"duration":0.1818179999999927,"midi":43,"time":99.99990000000001,"velocity":0.2755905511811024},{"duration":0.1818179999999927,"midi":31,"time":99.99990000000001,"velocity":0.2755905511811024},{"duration":0.18181800000000692,"midi":55,"time":100.181718,"velocity":0.2755905511811024},{"duration":0.18181800000000692,"midi":43,"time":100.181718,"velocity":0.2755905511811024},{"duration":0.1818179999999927,"midi":43,"time":100.36353600000001,"velocity":0.2755905511811024},{"duration":0.1818179999999927,"midi":31,"time":100.36353600000001,"velocity":0.2755905511811024},{"duration":0.18181800000000692,"midi":43,"time":100.545354,"velocity":0.2755905511811024},{"duration":0.18181800000000692,"midi":55,"time":100.545354,"velocity":0.2755905511811024},{"duration":0.1818179999999927,"midi":31,"time":100.72717200000001,"velocity":0.2755905511811024},{"duration":0.1818179999999927,"midi":43,"time":100.72717200000001,"velocity":0.2755905511811024},{"duration":0.18181800000000692,"midi":55,"time":100.90899,"velocity":0.2755905511811024},{"duration":0.18181800000000692,"midi":43,"time":100.90899,"velocity":0.2755905511811024},{"duration":0.1818179999999927,"midi":43,"time":101.09080800000001,"velocity":0.2755905511811024},{"duration":0.1818179999999927,"midi":31,"time":101.09080800000001,"velocity":0.2755905511811024},{"duration":0.18181800000000692,"midi":43,"time":101.272626,"velocity":0.2755905511811024},{"duration":0.18181800000000692,"midi":55,"time":101.272626,"velocity":0.2755905511811024},{"duration":0.1818179999999927,"midi":43,"time":101.45444400000001,"velocity":0.2755905511811024},{"duration":0.1818179999999927,"midi":31,"time":101.45444400000001,"velocity":0.2755905511811024},{"duration":0.18181800000000692,"midi":43,"time":101.636262,"velocity":0.2755905511811024},{"duration":0.18181800000000692,"midi":55,"time":101.636262,"velocity":0.2755905511811024},{"duration":0.1818179999999927,"midi":41,"time":101.81808000000001,"velocity":0.2755905511811024},{"duration":0.1818179999999927,"midi":29,"time":101.81808000000001,"velocity":0.2755905511811024},{"duration":0.18181800000000692,"midi":41,"time":101.999898,"velocity":0.2755905511811024},{"duration":0.18181800000000692,"midi":53,"time":101.999898,"velocity":0.2755905511811024},{"duration":0.1818179999999927,"midi":29,"time":102.18171600000001,"velocity":0.2755905511811024},{"duration":0.1818179999999927,"midi":41,"time":102.18171600000001,"velocity":0.2755905511811024},{"duration":0.18181800000000692,"midi":53,"time":102.363534,"velocity":0.2755905511811024},{"duration":0.18181800000000692,"midi":41,"time":102.363534,"velocity":0.2755905511811024},{"duration":0.1818179999999927,"midi":41,"time":102.54535200000001,"velocity":0.2755905511811024},{"duration":0.1818179999999927,"midi":29,"time":102.54535200000001,"velocity":0.2755905511811024},{"duration":0.18181800000000692,"midi":41,"time":102.72717,"velocity":0.2755905511811024},{"duration":0.18181800000000692,"midi":53,"time":102.72717,"velocity":0.2755905511811024},{"duration":0.1818179999999927,"midi":41,"time":102.90898800000001,"velocity":0.2755905511811024},{"duration":0.1818179999999927,"midi":29,"time":102.90898800000001,"velocity":0.2755905511811024},{"duration":0.18181800000000692,"midi":41,"time":103.090806,"velocity":0.2755905511811024},{"duration":0.18181800000000692,"midi":53,"time":103.090806,"velocity":0.2755905511811024},{"duration":0.1818179999999927,"midi":31,"time":103.27262400000001,"velocity":0.2755905511811024},{"duration":0.1818179999999927,"midi":43,"time":103.27262400000001,"velocity":0.2755905511811024},{"duration":0.18181800000000692,"midi":55,"time":103.454442,"velocity":0.2755905511811024},{"duration":0.18181800000000692,"midi":43,"time":103.454442,"velocity":0.2755905511811024},{"duration":0.1818179999999927,"midi":43,"time":103.63626000000001,"velocity":0.2755905511811024},{"duration":0.1818179999999927,"midi":31,"time":103.63626000000001,"velocity":0.2755905511811024},{"duration":0.18181800000000692,"midi":55,"time":103.818078,"velocity":0.2755905511811024},{"duration":0.18181800000000692,"midi":43,"time":103.818078,"velocity":0.2755905511811024},{"duration":0.1818179999999927,"midi":31,"time":103.999896,"velocity":0.2755905511811024},{"duration":0.1818179999999927,"midi":43,"time":103.999896,"velocity":0.2755905511811024},{"duration":0.18181800000000692,"midi":55,"time":104.181714,"velocity":0.2755905511811024},{"duration":0.18181800000000692,"midi":43,"time":104.181714,"velocity":0.2755905511811024},{"duration":0.1818179999999927,"midi":43,"time":104.363532,"velocity":0.2755905511811024},{"duration":0.1818179999999927,"midi":31,"time":104.363532,"velocity":0.2755905511811024},{"duration":0.18181800000000692,"midi":55,"time":104.54535,"velocity":0.2755905511811024},{"duration":0.18181800000000692,"midi":43,"time":104.54535,"velocity":0.2755905511811024},{"duration":0.1818179999999927,"midi":31,"time":104.727168,"velocity":0.2755905511811024},{"duration":0.18181800000000692,"midi":43,"time":104.908986,"velocity":0.2755905511811024},{"duration":0.1818179999999927,"midi":31,"time":105.090804,"velocity":0.2755905511811024},{"duration":0.18181800000000692,"midi":43,"time":105.272622,"velocity":0.2755905511811024},{"duration":0.1818179999999927,"midi":31,"time":105.45444,"velocity":0.2755905511811024},{"duration":0.18181800000000692,"midi":43,"time":105.636258,"velocity":0.2755905511811024},{"duration":0.1818179999999927,"midi":31,"time":105.818076,"velocity":0.2755905511811024},{"duration":0.18181800000000692,"midi":43,"time":105.999894,"velocity":0.2755905511811024},{"duration":0.1818179999999927,"midi":31,"time":106.181712,"velocity":0.2755905511811024},{"duration":0.18181800000000692,"midi":43,"time":106.36353,"velocity":0.2755905511811024},{"duration":0.18181800000000692,"midi":31,"time":106.545348,"velocity":0.2755905511811024},{"duration":0.1818179999999927,"midi":43,"time":106.72716600000001,"velocity":0.2755905511811024},{"duration":0.18181800000000692,"midi":31,"time":106.908984,"velocity":0.2755905511811024},{"duration":0.1818179999999927,"midi":43,"time":107.09080200000001,"velocity":0.2755905511811024},{"duration":0.18181800000000692,"midi":31,"time":107.27262,"velocity":0.2755905511811024},{"duration":0.1818179999999927,"midi":43,"time":107.45443800000001,"velocity":0.2755905511811024},{"duration":0.18181800000000692,"midi":31,"time":107.636256,"velocity":0.2755905511811024},{"duration":0.1818179999999927,"midi":43,"time":107.81807400000001,"velocity":0.2755905511811024},{"duration":0.18181800000000692,"midi":31,"time":107.999892,"velocity":0.2755905511811024},{"duration":0.1818179999999927,"midi":43,"time":108.18171000000001,"velocity":0.2755905511811024},{"duration":0.18181800000000692,"midi":31,"time":108.363528,"velocity":0.2755905511811024},{"duration":0.1818179999999927,"midi":43,"time":108.54534600000001,"velocity":0.2755905511811024},{"duration":0.18181800000000692,"midi":31,"time":108.727164,"velocity":0.2755905511811024},{"duration":0.1818179999999927,"midi":43,"time":108.90898200000001,"velocity":0.2755905511811024},{"duration":0.18181800000000692,"midi":31,"time":109.0908,"velocity":0.2755905511811024},{"duration":0.1818179999999927,"midi":43,"time":109.27261800000001,"velocity":0.2755905511811024},{"duration":0.18181800000000692,"midi":31,"time":109.454436,"velocity":0.2755905511811024},{"duration":0.1818179999999927,"midi":43,"time":109.63625400000001,"velocity":0.2755905511811024},{"duration":0.18181800000000692,"midi":31,"time":109.818072,"velocity":0.2755905511811024},{"duration":0.1818179999999927,"midi":43,"time":109.99989000000001,"velocity":0.2755905511811024},{"duration":0.18181800000000692,"midi":31,"time":110.181708,"velocity":0.2755905511811024},{"duration":0.1818179999999927,"midi":43,"time":110.36352600000001,"velocity":0.2755905511811024},{"duration":0.18181800000000692,"midi":31,"time":110.545344,"velocity":0.2755905511811024},{"duration":0.1818179999999927,"midi":43,"time":110.727162,"velocity":0.2755905511811024},{"duration":0.18181800000000692,"midi":31,"time":110.90898,"velocity":0.2755905511811024},{"duration":0.1818179999999927,"midi":43,"time":111.090798,"velocity":0.2755905511811024},{"duration":0.18181800000000692,"midi":31,"time":111.272616,"velocity":0.2755905511811024},{"duration":0.1818179999999927,"midi":43,"time":111.454434,"velocity":0.2755905511811024},{"duration":0.18181800000000692,"midi":31,"time":111.636252,"velocity":0.2755905511811024},{"duration":0.1818179999999927,"midi":43,"time":111.81807,"velocity":0.2755905511811024},{"duration":0.18181800000000692,"midi":31,"time":111.999888,"velocity":0.2755905511811024},{"duration":0.1818179999999927,"midi":43,"time":112.181706,"velocity":0.2755905511811024},{"duration":0.18181800000000692,"midi":31,"time":112.363524,"velocity":0.2755905511811024},{"duration":0.1818179999999927,"midi":43,"time":112.545342,"velocity":0.2755905511811024},{"duration":0.18181800000000692,"midi":31,"time":112.72716,"velocity":0.2755905511811024},{"duration":0.18181800000000692,"midi":43,"time":112.908978,"velocity":0.2755905511811024},{"duration":0.1818179999999927,"midi":31,"time":113.09079600000001,"velocity":0.2755905511811024},{"duration":0.18181800000000692,"midi":43,"time":113.272614,"velocity":0.2755905511811024},{"duration":0.1818179999999927,"midi":31,"time":113.45443200000001,"velocity":0.2755905511811024},{"duration":0.18181800000000692,"midi":43,"time":113.63625,"velocity":0.2755905511811024},{"duration":0.1818179999999927,"midi":31,"time":113.81806800000001,"velocity":0.2755905511811024},{"duration":0.18181800000000692,"midi":43,"time":113.999886,"velocity":0.2755905511811024},{"duration":0.1818179999999927,"midi":31,"time":114.18170400000001,"velocity":0.2755905511811024},{"duration":0.18181800000000692,"midi":43,"time":114.363522,"velocity":0.2755905511811024},{"duration":0.1818179999999927,"midi":31,"time":114.54534000000001,"velocity":0.2755905511811024},{"duration":0.18181800000000692,"midi":43,"time":114.727158,"velocity":0.2755905511811024},{"duration":0.1818179999999927,"midi":31,"time":114.90897600000001,"velocity":0.2755905511811024},{"duration":0.18181800000000692,"midi":43,"time":115.090794,"velocity":0.2755905511811024},{"duration":0.1818179999999927,"midi":31,"time":115.27261200000001,"velocity":0.2755905511811024},{"duration":0.18181800000000692,"midi":43,"time":115.45443,"velocity":0.2755905511811024},{"duration":0.1818179999999927,"midi":31,"time":115.63624800000001,"velocity":0.2755905511811024},{"duration":0.18181800000000692,"midi":43,"time":115.818066,"velocity":0.2755905511811024},{"duration":0.1818179999999927,"midi":31,"time":115.99988400000001,"velocity":0.2755905511811024},{"duration":0.18181800000000692,"midi":43,"time":116.181702,"velocity":0.2755905511811024},{"duration":0.1818179999999927,"midi":31,"time":116.36352000000001,"velocity":0.2755905511811024},{"duration":0.18181800000000692,"midi":43,"time":116.545338,"velocity":0.2755905511811024},{"duration":0.1818179999999927,"midi":31,"time":116.72715600000001,"velocity":0.2755905511811024},{"duration":0.18181800000000692,"midi":43,"time":116.908974,"velocity":0.2755905511811024},{"duration":0.1818179999999927,"midi":31,"time":117.09079200000001,"velocity":0.2755905511811024},{"duration":0.18181800000000692,"midi":43,"time":117.27261,"velocity":0.2755905511811024},{"duration":0.1818179999999927,"midi":31,"time":117.45442800000001,"velocity":0.2755905511811024},{"duration":0.18181800000000692,"midi":43,"time":117.636246,"velocity":0.2755905511811024},{"duration":0.1818179999999927,"midi":31,"time":117.818064,"velocity":0.2755905511811024},{"duration":0.18181800000000692,"midi":43,"time":117.999882,"velocity":0.2755905511811024},{"duration":0.1818179999999927,"midi":31,"time":118.1817,"velocity":0.2755905511811024},{"duration":0.18181800000000692,"midi":43,"time":118.363518,"velocity":0.2755905511811024},{"duration":0.1818179999999927,"midi":31,"time":118.545336,"velocity":0.2755905511811024},{"duration":0.18181800000000692,"midi":43,"time":118.727154,"velocity":0.2755905511811024},{"duration":0.1818179999999927,"midi":31,"time":118.908972,"velocity":0.2755905511811024},{"duration":0.18181800000000692,"midi":43,"time":119.09079,"velocity":0.2755905511811024},{"duration":0.1818179999999927,"midi":31,"time":119.272608,"velocity":0.2755905511811024},{"duration":0.18181800000000692,"midi":43,"time":119.454426,"velocity":0.2755905511811024},{"duration":0.18181800000000692,"midi":31,"time":119.636244,"velocity":0.2755905511811024},{"duration":0.1818179999999927,"midi":43,"time":119.81806200000001,"velocity":0.2755905511811024},{"duration":0.18181800000000692,"midi":31,"time":119.99988,"velocity":0.2755905511811024},{"duration":0.1818179999999927,"midi":43,"time":120.18169800000001,"velocity":0.2755905511811024},{"duration":0.18181800000000692,"midi":31,"time":120.363516,"velocity":0.2755905511811024},{"duration":0.1818179999999927,"midi":43,"time":120.54533400000001,"velocity":0.2755905511811024},{"duration":0.18181800000000692,"midi":31,"time":120.727152,"velocity":0.2755905511811024},{"duration":0.1818179999999927,"midi":43,"time":120.90897000000001,"velocity":0.2755905511811024},{"duration":0.18181800000000692,"midi":31,"time":121.090788,"velocity":0.2755905511811024},{"duration":0.1818179999999927,"midi":43,"time":121.27260600000001,"velocity":0.2755905511811024},{"duration":0.18181800000000692,"midi":31,"time":121.454424,"velocity":0.2755905511811024},{"duration":0.1818179999999927,"midi":43,"time":121.63624200000001,"velocity":0.2755905511811024},{"duration":0.18181800000000692,"midi":31,"time":121.81806,"velocity":0.2755905511811024},{"duration":0.1818179999999927,"midi":43,"time":121.99987800000001,"velocity":0.2755905511811024},{"duration":0.18181800000000692,"midi":31,"time":122.181696,"velocity":0.2755905511811024},{"duration":0.1818179999999927,"midi":43,"time":122.36351400000001,"velocity":0.2755905511811024},{"duration":0.18181800000000692,"midi":31,"time":122.545332,"velocity":0.2755905511811024},{"duration":0.1818179999999927,"midi":43,"time":122.72715000000001,"velocity":0.2755905511811024},{"duration":0.18181800000000692,"midi":31,"time":122.908968,"velocity":0.2755905511811024},{"duration":0.1818179999999927,"midi":43,"time":123.09078600000001,"velocity":0.2755905511811024},{"duration":0.18181800000000692,"midi":31,"time":123.272604,"velocity":0.2755905511811024},{"duration":0.1818179999999927,"midi":43,"time":123.45442200000001,"velocity":0.2755905511811024},{"duration":0.18181800000000692,"midi":31,"time":123.63624,"velocity":0.2755905511811024},{"duration":0.1818179999999927,"midi":43,"time":123.81805800000001,"velocity":0.2755905511811024},{"duration":0.18181800000000692,"midi":31,"time":123.999876,"velocity":0.2755905511811024},{"duration":0.1818179999999927,"midi":43,"time":124.18169400000001,"velocity":0.2755905511811024},{"duration":0.18181800000000692,"midi":31,"time":124.363512,"velocity":0.2755905511811024},{"duration":0.1818179999999927,"midi":43,"time":124.54533,"velocity":0.2755905511811024},{"duration":0.18181800000000692,"midi":31,"time":124.727148,"velocity":0.2755905511811024},{"duration":0.1818179999999927,"midi":43,"time":124.908966,"velocity":0.2755905511811024},{"duration":0.18181800000000692,"midi":31,"time":125.090784,"velocity":0.2755905511811024},{"duration":0.1818179999999927,"midi":43,"time":125.272602,"velocity":0.2755905511811024},{"duration":0.18181800000000692,"midi":31,"time":125.45442,"velocity":0.2755905511811024},{"duration":0.1818179999999927,"midi":43,"time":125.636238,"velocity":0.2755905511811024},{"duration":0.18181800000000692,"midi":31,"time":125.818056,"velocity":0.2755905511811024},{"duration":0.1818179999999927,"midi":43,"time":125.999874,"velocity":0.2755905511811024},{"duration":0.18181800000000692,"midi":31,"time":126.181692,"velocity":0.2755905511811024},{"duration":0.18181800000000692,"midi":43,"time":126.36351,"velocity":0.2755905511811024},{"duration":0.1818179999999927,"midi":31,"time":126.54532800000001,"velocity":0.2755905511811024},{"duration":0.18181800000000692,"midi":43,"time":126.727146,"velocity":0.2755905511811024},{"duration":0.1818179999999927,"midi":31,"time":126.90896400000001,"velocity":0.2755905511811024},{"duration":0.18181800000000692,"midi":43,"time":127.090782,"velocity":0.2755905511811024},{"duration":0.1818179999999927,"midi":31,"time":127.27260000000001,"velocity":0.2755905511811024},{"duration":0.18181800000000692,"midi":43,"time":127.454418,"velocity":0.2755905511811024},{"duration":0.18181800000000692,"midi":43,"time":127.454418,"velocity":0.2755905511811024},{"duration":0.18181800000000692,"midi":43,"time":127.454418,"velocity":0.2755905511811024},{"duration":0.1818179999999927,"midi":31,"time":127.63623600000001,"velocity":0.2755905511811024},{"duration":0.18181800000000692,"midi":43,"time":127.818054,"velocity":0.2755905511811024},{"duration":0.1818179999999927,"midi":43,"time":127.99987200000001,"velocity":0.2755905511811024},{"duration":0.1818179999999927,"midi":43,"time":128.18169,"velocity":0.2755905511811024},{"duration":0.1818179999999927,"midi":50,"time":128.18169,"velocity":0.2755905511811024},{"duration":0.18181800000002113,"midi":43,"time":128.363508,"velocity":0.2755905511811024},{"duration":0.1818179999999927,"midi":50,"time":128.54532600000002,"velocity":0.2755905511811024},{"duration":0.1818179999999927,"midi":43,"time":128.54532600000002,"velocity":0.2755905511811024},{"duration":0.1818179999999927,"midi":43,"time":128.727144,"velocity":0.2755905511811024},{"duration":0.1818179999999927,"midi":43,"time":128.908962,"velocity":0.2755905511811024},{"duration":0.1818179999999927,"midi":50,"time":128.908962,"velocity":0.2755905511811024},{"duration":0.18181800000002113,"midi":43,"time":129.09078,"velocity":0.2755905511811024},{"duration":0.1818179999999927,"midi":50,"time":129.27259800000002,"velocity":0.2755905511811024},{"duration":0.1818179999999927,"midi":43,"time":129.27259800000002,"velocity":0.2755905511811024},{"duration":0.1818179999999927,"midi":43,"time":129.454416,"velocity":0.2755905511811024},{"duration":0.1818179999999927,"midi":50,"time":129.636234,"velocity":0.2755905511811024},{"duration":0.1818179999999927,"midi":43,"time":129.636234,"velocity":0.2755905511811024},{"duration":0.18181800000002113,"midi":43,"time":129.818052,"velocity":0.2755905511811024},{"duration":0.1818179999999927,"midi":43,"time":129.99987000000002,"velocity":0.2755905511811024},{"duration":0.1818179999999927,"midi":50,"time":129.99987000000002,"velocity":0.2755905511811024},{"duration":0.1818179999999927,"midi":43,"time":130.181688,"velocity":0.2755905511811024},{"duration":0.1818179999999927,"midi":43,"time":130.363506,"velocity":0.2755905511811024},{"duration":0.1818179999999927,"midi":50,"time":130.363506,"velocity":0.2755905511811024},{"duration":0.18181800000002113,"midi":43,"time":130.545324,"velocity":0.2755905511811024},{"duration":0.1818179999999927,"midi":50,"time":130.72714200000001,"velocity":0.2755905511811024},{"duration":0.1818179999999927,"midi":43,"time":130.72714200000001,"velocity":0.2755905511811024},{"duration":0.1818179999999927,"midi":43,"time":130.90896,"velocity":0.2755905511811024},{"duration":0.1818179999999927,"midi":50,"time":131.090778,"velocity":0.2755905511811024},{"duration":0.1818179999999927,"midi":43,"time":131.090778,"velocity":0.2755905511811024},{"duration":0.18181800000002113,"midi":43,"time":131.272596,"velocity":0.2755905511811024},{"duration":0.1818179999999927,"midi":43,"time":131.454414,"velocity":0.2755905511811024},{"duration":0.1818179999999927,"midi":50,"time":131.454414,"velocity":0.2755905511811024},{"duration":0.1818179999999927,"midi":43,"time":131.636232,"velocity":0.2755905511811024},{"duration":0.1818179999999927,"midi":43,"time":131.81805,"velocity":0.2755905511811024},{"duration":0.1818179999999927,"midi":50,"time":131.81805,"velocity":0.2755905511811024},{"duration":0.18181800000002113,"midi":43,"time":131.999868,"velocity":0.2755905511811024},{"duration":0.1818179999999927,"midi":43,"time":132.181686,"velocity":0.2755905511811024},{"duration":0.1818179999999927,"midi":50,"time":132.181686,"velocity":0.2755905511811024},{"duration":0.1818179999999927,"midi":43,"time":132.363504,"velocity":0.2755905511811024},{"duration":0.1818179999999927,"midi":50,"time":132.545322,"velocity":0.2755905511811024},{"duration":0.1818179999999927,"midi":43,"time":132.545322,"velocity":0.2755905511811024},{"duration":0.18181800000002113,"midi":43,"time":132.72714,"velocity":0.2755905511811024},{"duration":0.1818179999999927,"midi":43,"time":132.908958,"velocity":0.2755905511811024},{"duration":0.1818179999999927,"midi":50,"time":132.908958,"velocity":0.2755905511811024},{"duration":0.1818179999999927,"midi":43,"time":133.090776,"velocity":0.2755905511811024},{"duration":0.18181800000002113,"midi":50,"time":133.272594,"velocity":0.2755905511811024},{"duration":0.18181800000002113,"midi":43,"time":133.272594,"velocity":0.2755905511811024},{"duration":0.1818179999999927,"midi":43,"time":133.45441200000002,"velocity":0.2755905511811024},{"duration":0.1818179999999927,"midi":43,"time":133.63623,"velocity":0.2755905511811024},{"duration":0.1818179999999927,"midi":50,"time":133.63623,"velocity":0.2755905511811024},{"duration":0.1818179999999927,"midi":43,"time":133.818048,"velocity":0.2755905511811024},{"duration":0.18181800000002113,"midi":43,"time":133.999866,"velocity":0.2755905511811024},{"duration":0.18181800000002113,"midi":50,"time":133.999866,"velocity":0.2755905511811024},{"duration":0.1818179999999927,"midi":43,"time":134.18168400000002,"velocity":0.2755905511811024},{"duration":0.1818179999999927,"midi":43,"time":134.363502,"velocity":0.2755905511811024},{"duration":0.1818179999999927,"midi":50,"time":134.363502,"velocity":0.2755905511811024},{"duration":0.1818179999999927,"midi":43,"time":134.54532,"velocity":0.2755905511811024},{"duration":0.18181800000002113,"midi":50,"time":134.727138,"velocity":0.2755905511811024},{"duration":0.18181800000002113,"midi":43,"time":134.727138,"velocity":0.2755905511811024},{"duration":0.1818179999999927,"midi":43,"time":134.90895600000002,"velocity":0.2755905511811024},{"duration":0.1818179999999927,"midi":50,"time":135.090774,"velocity":0.2755905511811024},{"duration":0.1818179999999927,"midi":43,"time":135.090774,"velocity":0.2755905511811024},{"duration":0.1818179999999927,"midi":43,"time":135.272592,"velocity":0.2755905511811024},{"duration":0.18181800000002113,"midi":43,"time":135.45441,"velocity":0.2755905511811024},{"duration":0.18181800000002113,"midi":50,"time":135.45441,"velocity":0.2755905511811024},{"duration":0.1818179999999927,"midi":43,"time":135.63622800000002,"velocity":0.2755905511811024},{"duration":0.1818179999999927,"midi":43,"time":135.818046,"velocity":0.2755905511811024},{"duration":0.1818179999999927,"midi":50,"time":135.818046,"velocity":0.2755905511811024},{"duration":0.1818179999999927,"midi":43,"time":135.999864,"velocity":0.2755905511811024},{"duration":0.18181800000002113,"midi":43,"time":136.181682,"velocity":0.2755905511811024},{"duration":0.18181800000002113,"midi":50,"time":136.181682,"velocity":0.2755905511811024},{"duration":0.1818179999999927,"midi":43,"time":136.36350000000002,"velocity":0.2755905511811024},{"duration":0.1818179999999927,"midi":50,"time":136.545318,"velocity":0.2755905511811024},{"duration":0.1818179999999927,"midi":43,"time":136.545318,"velocity":0.2755905511811024},{"duration":0.1818179999999927,"midi":43,"time":136.727136,"velocity":0.2755905511811024},{"duration":0.18181800000002113,"midi":50,"time":136.908954,"velocity":0.2755905511811024},{"duration":0.18181800000002113,"midi":43,"time":136.908954,"velocity":0.2755905511811024},{"duration":0.1818179999999927,"midi":43,"time":137.09077200000002,"velocity":0.2755905511811024},{"duration":0.1818179999999927,"midi":50,"time":137.27259,"velocity":0.2755905511811024},{"duration":0.1818179999999927,"midi":43,"time":137.27259,"velocity":0.2755905511811024},{"duration":0.1818179999999927,"midi":43,"time":137.454408,"velocity":0.2755905511811024},{"duration":0.18181800000002113,"midi":43,"time":137.636226,"velocity":0.2755905511811024},{"duration":0.18181800000002113,"midi":50,"time":137.636226,"velocity":0.2755905511811024},{"duration":0.1818179999999927,"midi":43,"time":137.81804400000001,"velocity":0.2755905511811024},{"duration":0.1818179999999927,"midi":43,"time":137.999862,"velocity":0.2755905511811024},{"duration":0.1818179999999927,"midi":50,"time":137.999862,"velocity":0.2755905511811024},{"duration":0.1818179999999927,"midi":43,"time":138.18168,"velocity":0.2755905511811024},{"duration":0.18181800000002113,"midi":43,"time":138.363498,"velocity":0.2755905511811024},{"duration":0.18181800000002113,"midi":50,"time":138.363498,"velocity":0.2755905511811024},{"duration":0.1818179999999927,"midi":43,"time":138.545316,"velocity":0.2755905511811024},{"duration":0.1818179999999927,"midi":50,"time":138.727134,"velocity":0.2755905511811024},{"duration":0.1818179999999927,"midi":43,"time":138.727134,"velocity":0.2755905511811024},{"duration":0.1818179999999927,"midi":43,"time":138.908952,"velocity":0.2755905511811024},{"duration":0.18181800000002113,"midi":50,"time":139.09077,"velocity":0.2755905511811024},{"duration":0.18181800000002113,"midi":43,"time":139.09077,"velocity":0.2755905511811024},{"duration":0.1818179999999927,"midi":55,"time":139.81804200000002,"velocity":0.2755905511811024},{"duration":0.1818179999999927,"midi":55,"time":139.81804200000002,"velocity":0.2755905511811024},{"duration":0.1818179999999927,"midi":55,"time":140.181678,"velocity":0.2755905511811024},{"duration":0.1818179999999927,"midi":55,"time":140.181678,"velocity":0.2755905511811024},{"duration":0.1818179999999927,"midi":55,"time":140.54531400000002,"velocity":0.2755905511811024},{"duration":0.1818179999999927,"midi":55,"time":140.54531400000002,"velocity":0.2755905511811024},{"duration":0.1818179999999927,"midi":55,"time":140.90895,"velocity":0.2755905511811024},{"duration":0.1818179999999927,"midi":55,"time":140.90895,"velocity":0.2755905511811024},{"duration":0.1818179999999927,"midi":52,"time":141.27258600000002,"velocity":0.2755905511811024},{"duration":0.1818179999999927,"midi":52,"time":141.27258600000002,"velocity":0.2755905511811024},{"duration":0.1818179999999927,"midi":52,"time":141.636222,"velocity":0.2755905511811024},{"duration":0.1818179999999927,"midi":52,"time":141.636222,"velocity":0.2755905511811024},{"duration":0.1818179999999927,"midi":52,"time":141.99985800000002,"velocity":0.2755905511811024},{"duration":0.1818179999999927,"midi":52,"time":141.99985800000002,"velocity":0.2755905511811024},{"duration":0.1818179999999927,"midi":52,"time":142.363494,"velocity":0.2755905511811024},{"duration":0.1818179999999927,"midi":52,"time":142.363494,"velocity":0.2755905511811024},{"duration":0.1818179999999927,"midi":53,"time":142.72713000000002,"velocity":0.2755905511811024},{"duration":0.1818179999999927,"midi":53,"time":142.72713000000002,"velocity":0.2755905511811024},{"duration":0.1818179999999927,"midi":53,"time":143.090766,"velocity":0.2755905511811024},{"duration":0.1818179999999927,"midi":53,"time":143.090766,"velocity":0.2755905511811024},{"duration":0.1818179999999927,"midi":53,"time":143.45440200000002,"velocity":0.2755905511811024},{"duration":0.1818179999999927,"midi":53,"time":143.45440200000002,"velocity":0.2755905511811024},{"duration":0.1818179999999927,"midi":53,"time":143.818038,"velocity":0.2755905511811024},{"duration":0.1818179999999927,"midi":53,"time":143.818038,"velocity":0.2755905511811024},{"duration":0.1818179999999927,"midi":55,"time":144.18167400000002,"velocity":0.2755905511811024},{"duration":0.1818179999999927,"midi":55,"time":144.18167400000002,"velocity":0.2755905511811024},{"duration":0.1818179999999927,"midi":55,"time":144.54531,"velocity":0.2755905511811024},{"duration":0.1818179999999927,"midi":55,"time":144.54531,"velocity":0.2755905511811024},{"duration":0.1818179999999927,"midi":55,"time":144.90894600000001,"velocity":0.2755905511811024},{"duration":0.1818179999999927,"midi":55,"time":144.90894600000001,"velocity":0.2755905511811024},{"duration":0.1818179999999927,"midi":55,"time":145.272582,"velocity":0.2755905511811024},{"duration":0.1818179999999927,"midi":55,"time":145.272582,"velocity":0.2755905511811024},{"duration":0.1818179999999927,"midi":55,"time":145.636218,"velocity":0.2755905511811024},{"duration":0.1818179999999927,"midi":55,"time":145.636218,"velocity":0.2755905511811024},{"duration":0.1818179999999927,"midi":55,"time":145.999854,"velocity":0.2755905511811024},{"duration":0.1818179999999927,"midi":55,"time":145.999854,"velocity":0.2755905511811024},{"duration":0.1818179999999927,"midi":55,"time":146.36349,"velocity":0.2755905511811024},{"duration":0.1818179999999927,"midi":55,"time":146.36349,"velocity":0.2755905511811024},{"duration":0.18181800000002113,"midi":55,"time":146.727126,"velocity":0.2755905511811024},{"duration":0.18181800000002113,"midi":55,"time":146.727126,"velocity":0.2755905511811024},{"duration":0.1818179999999927,"midi":52,"time":147.090762,"velocity":0.2755905511811024},{"duration":0.1818179999999927,"midi":52,"time":147.090762,"velocity":0.2755905511811024},{"duration":0.18181800000002113,"midi":52,"time":147.454398,"velocity":0.2755905511811024},{"duration":0.18181800000002113,"midi":52,"time":147.454398,"velocity":0.2755905511811024},{"duration":0.1818179999999927,"midi":52,"time":147.818034,"velocity":0.2755905511811024},{"duration":0.1818179999999927,"midi":52,"time":147.818034,"velocity":0.2755905511811024},{"duration":0.18181800000002113,"midi":52,"time":148.18167,"velocity":0.2755905511811024},{"duration":0.18181800000002113,"midi":52,"time":148.18167,"velocity":0.2755905511811024},{"duration":0.1818179999999927,"midi":53,"time":148.545306,"velocity":0.2755905511811024},{"duration":0.1818179999999927,"midi":53,"time":148.545306,"velocity":0.2755905511811024},{"duration":0.18181800000002113,"midi":53,"time":148.908942,"velocity":0.2755905511811024},{"duration":0.18181800000002113,"midi":53,"time":148.908942,"velocity":0.2755905511811024},{"duration":0.1818179999999927,"midi":53,"time":149.272578,"velocity":0.2755905511811024},{"duration":0.1818179999999927,"midi":53,"time":149.272578,"velocity":0.2755905511811024},{"duration":0.18181800000002113,"midi":53,"time":149.636214,"velocity":0.2755905511811024},{"duration":0.18181800000002113,"midi":53,"time":149.636214,"velocity":0.2755905511811024},{"duration":0.1818179999999927,"midi":55,"time":149.99985,"velocity":0.2755905511811024},{"duration":0.1818179999999927,"midi":55,"time":149.99985,"velocity":0.2755905511811024},{"duration":0.18181800000002113,"midi":55,"time":150.363486,"velocity":0.2755905511811024},{"duration":0.18181800000002113,"midi":55,"time":150.363486,"velocity":0.2755905511811024},{"duration":0.1818179999999927,"midi":55,"time":150.727122,"velocity":0.2755905511811024},{"duration":0.1818179999999927,"midi":55,"time":150.727122,"velocity":0.2755905511811024},{"duration":0.18181800000002113,"midi":55,"time":151.090758,"velocity":0.2755905511811024},{"duration":0.18181800000002113,"midi":55,"time":151.090758,"velocity":0.2755905511811024},{"duration":0.1818179999999927,"midi":43,"time":151.27257600000002,"velocity":0.2755905511811024},{"duration":0.1818179999999927,"midi":43,"time":151.27257600000002,"velocity":0.2755905511811024},{"duration":0.1818179999999927,"midi":43,"time":151.27257600000002,"velocity":0.2755905511811024},{"duration":0.1818179999999927,"midi":55,"time":151.454394,"velocity":0.2755905511811024},{"duration":0.1818179999999927,"midi":55,"time":151.454394,"velocity":0.2755905511811024},{"duration":0.1818179999999927,"midi":43,"time":151.454394,"velocity":0.2755905511811024},{"duration":0.1818179999999927,"midi":55,"time":151.454394,"velocity":0.2755905511811024},{"duration":0.1818179999999927,"midi":43,"time":151.454394,"velocity":0.2755905511811024},{"duration":0.1818179999999927,"midi":43,"time":151.454394,"velocity":0.2755905511811024},{"duration":0.1818179999999927,"midi":43,"time":151.636212,"velocity":0.2755905511811024},{"duration":0.1818179999999927,"midi":43,"time":151.636212,"velocity":0.2755905511811024},{"duration":0.1818179999999927,"midi":43,"time":151.636212,"velocity":0.2755905511811024},{"duration":0.18181800000002113,"midi":43,"time":151.81803,"velocity":0.2755905511811024},{"duration":0.18181800000002113,"midi":43,"time":151.81803,"velocity":0.2755905511811024},{"duration":0.18181800000002113,"midi":55,"time":151.81803,"velocity":0.2755905511811024},{"duration":0.18181800000002113,"midi":43,"time":151.81803,"velocity":0.2755905511811024},{"duration":0.18181800000002113,"midi":55,"time":151.81803,"velocity":0.2755905511811024},{"duration":0.18181800000002113,"midi":55,"time":151.81803,"velocity":0.2755905511811024},{"duration":0.1818179999999927,"midi":43,"time":151.99984800000001,"velocity":0.2755905511811024},{"duration":0.1818179999999927,"midi":43,"time":151.99984800000001,"velocity":0.2755905511811024},{"duration":0.1818179999999927,"midi":43,"time":151.99984800000001,"velocity":0.2755905511811024},{"duration":0.1818179999999927,"midi":43,"time":152.181666,"velocity":0.2755905511811024},{"duration":0.1818179999999927,"midi":55,"time":152.181666,"velocity":0.2755905511811024},{"duration":0.1818179999999927,"midi":55,"time":152.181666,"velocity":0.2755905511811024},{"duration":0.1818179999999927,"midi":43,"time":152.181666,"velocity":0.2755905511811024},{"duration":0.1818179999999927,"midi":43,"time":152.181666,"velocity":0.2755905511811024},{"duration":0.1818179999999927,"midi":55,"time":152.181666,"velocity":0.2755905511811024},{"duration":0.1818179999999927,"midi":43,"time":152.363484,"velocity":0.2755905511811024},{"duration":0.1818179999999927,"midi":43,"time":152.363484,"velocity":0.2755905511811024},{"duration":0.1818179999999927,"midi":43,"time":152.363484,"velocity":0.2755905511811024},{"duration":0.18181800000002113,"midi":55,"time":152.545302,"velocity":0.2755905511811024},{"duration":0.18181800000002113,"midi":43,"time":152.545302,"velocity":0.2755905511811024},{"duration":0.18181800000002113,"midi":55,"time":152.545302,"velocity":0.2755905511811024},{"duration":0.18181800000002113,"midi":43,"time":152.545302,"velocity":0.2755905511811024},{"duration":0.18181800000002113,"midi":55,"time":152.545302,"velocity":0.2755905511811024},{"duration":0.18181800000002113,"midi":43,"time":152.545302,"velocity":0.2755905511811024},{"duration":0.1818179999999927,"midi":40,"time":152.72712,"velocity":0.2755905511811024},{"duration":0.1818179999999927,"midi":40,"time":152.72712,"velocity":0.2755905511811024},{"duration":0.1818179999999927,"midi":40,"time":152.72712,"velocity":0.2755905511811024},{"duration":0.1818179999999927,"midi":40,"time":152.908938,"velocity":0.2755905511811024},{"duration":0.1818179999999927,"midi":52,"time":152.908938,"velocity":0.2755905511811024},{"duration":0.1818179999999927,"midi":40,"time":152.908938,"velocity":0.2755905511811024},{"duration":0.1818179999999927,"midi":52,"time":152.908938,"velocity":0.2755905511811024},{"duration":0.1818179999999927,"midi":52,"time":152.908938,"velocity":0.2755905511811024},{"duration":0.1818179999999927,"midi":40,"time":152.908938,"velocity":0.2755905511811024},{"duration":0.18181800000002113,"midi":40,"time":153.090756,"velocity":0.2755905511811024},{"duration":0.18181800000002113,"midi":40,"time":153.090756,"velocity":0.2755905511811024},{"duration":0.18181800000002113,"midi":40,"time":153.090756,"velocity":0.2755905511811024},{"duration":0.1818179999999927,"midi":40,"time":153.27257400000002,"velocity":0.2755905511811024},{"duration":0.1818179999999927,"midi":52,"time":153.27257400000002,"velocity":0.2755905511811024},{"duration":0.1818179999999927,"midi":52,"time":153.27257400000002,"velocity":0.2755905511811024},{"duration":0.1818179999999927,"midi":40,"time":153.27257400000002,"velocity":0.2755905511811024},{"duration":0.1818179999999927,"midi":52,"time":153.27257400000002,"velocity":0.2755905511811024},{"duration":0.1818179999999927,"midi":40,"time":153.27257400000002,"velocity":0.2755905511811024},{"duration":0.1818179999999927,"midi":40,"time":153.454392,"velocity":0.2755905511811024},{"duration":0.1818179999999927,"midi":40,"time":153.454392,"velocity":0.2755905511811024},{"duration":0.1818179999999927,"midi":40,"time":153.454392,"velocity":0.2755905511811024},{"duration":0.1818179999999927,"midi":52,"time":153.63621,"velocity":0.2755905511811024},{"duration":0.1818179999999927,"midi":40,"time":153.63621,"velocity":0.2755905511811024},{"duration":0.1818179999999927,"midi":52,"time":153.63621,"velocity":0.2755905511811024},{"duration":0.1818179999999927,"midi":52,"time":153.63621,"velocity":0.2755905511811024},{"duration":0.1818179999999927,"midi":40,"time":153.63621,"velocity":0.2755905511811024},{"duration":0.1818179999999927,"midi":40,"time":153.63621,"velocity":0.2755905511811024},{"duration":0.18181800000002113,"midi":40,"time":153.818028,"velocity":0.2755905511811024},{"duration":0.18181800000002113,"midi":40,"time":153.818028,"velocity":0.2755905511811024},{"duration":0.18181800000002113,"midi":40,"time":153.818028,"velocity":0.2755905511811024},{"duration":0.1818179999999927,"midi":40,"time":153.99984600000002,"velocity":0.2755905511811024},{"duration":0.1818179999999927,"midi":52,"time":153.99984600000002,"velocity":0.2755905511811024},{"duration":0.1818179999999927,"midi":40,"time":153.99984600000002,"velocity":0.2755905511811024},{"duration":0.1818179999999927,"midi":40,"time":153.99984600000002,"velocity":0.2755905511811024},{"duration":0.1818179999999927,"midi":52,"time":153.99984600000002,"velocity":0.2755905511811024},{"duration":0.1818179999999927,"midi":52,"time":153.99984600000002,"velocity":0.2755905511811024},{"duration":0.1818179999999927,"midi":41,"time":154.181664,"velocity":0.2755905511811024},{"duration":0.1818179999999927,"midi":41,"time":154.181664,"velocity":0.2755905511811024},{"duration":0.1818179999999927,"midi":41,"time":154.181664,"velocity":0.2755905511811024},{"duration":0.1818179999999927,"midi":53,"time":154.363482,"velocity":0.2755905511811024},{"duration":0.1818179999999927,"midi":41,"time":154.363482,"velocity":0.2755905511811024},{"duration":0.1818179999999927,"midi":53,"time":154.363482,"velocity":0.2755905511811024},{"duration":0.1818179999999927,"midi":41,"time":154.363482,"velocity":0.2755905511811024},{"duration":0.1818179999999927,"midi":41,"time":154.363482,"velocity":0.2755905511811024},{"duration":0.1818179999999927,"midi":53,"time":154.363482,"velocity":0.2755905511811024},{"duration":0.18181800000002113,"midi":41,"time":154.5453,"velocity":0.2755905511811024},{"duration":0.18181800000002113,"midi":41,"time":154.5453,"velocity":0.2755905511811024},{"duration":0.18181800000002113,"midi":41,"time":154.5453,"velocity":0.2755905511811024},{"duration":0.1818179999999927,"midi":53,"time":154.72711800000002,"velocity":0.2755905511811024},{"duration":0.1818179999999927,"midi":53,"time":154.72711800000002,"velocity":0.2755905511811024},{"duration":0.1818179999999927,"midi":53,"time":154.72711800000002,"velocity":0.2755905511811024},{"duration":0.1818179999999927,"midi":41,"time":154.72711800000002,"velocity":0.2755905511811024},{"duration":0.1818179999999927,"midi":41,"time":154.72711800000002,"velocity":0.2755905511811024},{"duration":0.1818179999999927,"midi":41,"time":154.72711800000002,"velocity":0.2755905511811024},{"duration":0.1818179999999927,"midi":41,"time":154.908936,"velocity":0.2755905511811024},{"duration":0.1818179999999927,"midi":41,"time":154.908936,"velocity":0.2755905511811024},{"duration":0.1818179999999927,"midi":41,"time":154.908936,"velocity":0.2755905511811024},{"duration":0.1818179999999927,"midi":41,"time":155.090754,"velocity":0.2755905511811024},{"duration":0.1818179999999927,"midi":41,"time":155.090754,"velocity":0.2755905511811024},{"duration":0.1818179999999927,"midi":53,"time":155.090754,"velocity":0.2755905511811024},{"duration":0.1818179999999927,"midi":53,"time":155.090754,"velocity":0.2755905511811024},{"duration":0.1818179999999927,"midi":53,"time":155.090754,"velocity":0.2755905511811024},{"duration":0.1818179999999927,"midi":41,"time":155.090754,"velocity":0.2755905511811024},{"duration":0.18181800000002113,"midi":41,"time":155.272572,"velocity":0.2755905511811024},{"duration":0.18181800000002113,"midi":41,"time":155.272572,"velocity":0.2755905511811024},{"duration":0.18181800000002113,"midi":41,"time":155.272572,"velocity":0.2755905511811024},{"duration":0.1818179999999927,"midi":41,"time":155.45439000000002,"velocity":0.2755905511811024},{"duration":0.1818179999999927,"midi":53,"time":155.45439000000002,"velocity":0.2755905511811024},{"duration":0.1818179999999927,"midi":53,"time":155.45439000000002,"velocity":0.2755905511811024},{"duration":0.1818179999999927,"midi":41,"time":155.45439000000002,"velocity":0.2755905511811024},{"duration":0.1818179999999927,"midi":41,"time":155.45439000000002,"velocity":0.2755905511811024},{"duration":0.1818179999999927,"midi":53,"time":155.45439000000002,"velocity":0.2755905511811024},{"duration":0.1818179999999927,"midi":43,"time":155.636208,"velocity":0.2755905511811024},{"duration":0.1818179999999927,"midi":43,"time":155.636208,"velocity":0.2755905511811024},{"duration":0.1818179999999927,"midi":43,"time":155.636208,"velocity":0.2755905511811024},{"duration":0.1818179999999927,"midi":43,"time":155.818026,"velocity":0.2755905511811024},{"duration":0.1818179999999927,"midi":43,"time":155.818026,"velocity":0.2755905511811024},{"duration":0.1818179999999927,"midi":55,"time":155.818026,"velocity":0.2755905511811024},{"duration":0.1818179999999927,"midi":43,"time":155.818026,"velocity":0.2755905511811024},{"duration":0.1818179999999927,"midi":55,"time":155.818026,"velocity":0.2755905511811024},{"duration":0.1818179999999927,"midi":55,"time":155.818026,"velocity":0.2755905511811024},{"duration":0.18181800000002113,"midi":43,"time":155.999844,"velocity":0.2755905511811024},{"duration":0.18181800000002113,"midi":43,"time":155.999844,"velocity":0.2755905511811024},{"duration":0.18181800000002113,"midi":43,"time":155.999844,"velocity":0.2755905511811024},{"duration":0.1818179999999927,"midi":43,"time":156.18166200000002,"velocity":0.2755905511811024},{"duration":0.1818179999999927,"midi":55,"time":156.18166200000002,"velocity":0.2755905511811024},{"duration":0.1818179999999927,"midi":43,"time":156.18166200000002,"velocity":0.2755905511811024},{"duration":0.1818179999999927,"midi":55,"time":156.18166200000002,"velocity":0.2755905511811024},{"duration":0.1818179999999927,"midi":43,"time":156.18166200000002,"velocity":0.2755905511811024},{"duration":0.1818179999999927,"midi":55,"time":156.18166200000002,"velocity":0.2755905511811024},{"duration":0.1818179999999927,"midi":43,"time":156.36348,"velocity":0.2755905511811024},{"duration":0.1818179999999927,"midi":43,"time":156.36348,"velocity":0.2755905511811024},{"duration":0.1818179999999927,"midi":43,"time":156.36348,"velocity":0.2755905511811024},{"duration":0.1818179999999927,"midi":55,"time":156.545298,"velocity":0.2755905511811024},{"duration":0.1818179999999927,"midi":55,"time":156.545298,"velocity":0.2755905511811024},{"duration":0.1818179999999927,"midi":43,"time":156.545298,"velocity":0.2755905511811024},{"duration":0.1818179999999927,"midi":43,"time":156.545298,"velocity":0.2755905511811024},{"duration":0.1818179999999927,"midi":43,"time":156.545298,"velocity":0.2755905511811024},{"duration":0.1818179999999927,"midi":55,"time":156.545298,"velocity":0.2755905511811024},{"duration":0.18181800000002113,"midi":43,"time":156.727116,"velocity":0.2755905511811024},{"duration":0.18181800000002113,"midi":43,"time":156.727116,"velocity":0.2755905511811024},{"duration":0.18181800000002113,"midi":43,"time":156.727116,"velocity":0.2755905511811024},{"duration":0.1818179999999927,"midi":55,"time":156.90893400000002,"velocity":0.2755905511811024},{"duration":0.1818179999999927,"midi":43,"time":156.90893400000002,"velocity":0.2755905511811024},{"duration":0.1818179999999927,"midi":55,"time":156.90893400000002,"velocity":0.2755905511811024},{"duration":0.1818179999999927,"midi":55,"time":156.90893400000002,"velocity":0.2755905511811024},{"duration":0.1818179999999927,"midi":43,"time":156.90893400000002,"velocity":0.2755905511811024},{"duration":0.1818179999999927,"midi":43,"time":156.90893400000002,"velocity":0.2755905511811024},{"duration":0.1818179999999927,"midi":43,"time":157.090752,"velocity":0.2755905511811024},{"duration":0.1818179999999927,"midi":43,"time":157.090752,"velocity":0.2755905511811024},{"duration":0.1818179999999927,"midi":43,"time":157.090752,"velocity":0.2755905511811024},{"duration":0.1818179999999927,"midi":55,"time":157.27257,"velocity":0.2755905511811024},{"duration":0.1818179999999927,"midi":43,"time":157.27257,"velocity":0.2755905511811024},{"duration":0.1818179999999927,"midi":43,"time":157.27257,"velocity":0.2755905511811024},{"duration":0.1818179999999927,"midi":43,"time":157.27257,"velocity":0.2755905511811024},{"duration":0.1818179999999927,"midi":55,"time":157.27257,"velocity":0.2755905511811024},{"duration":0.1818179999999927,"midi":55,"time":157.27257,"velocity":0.2755905511811024},{"duration":0.18181800000002113,"midi":43,"time":157.454388,"velocity":0.2755905511811024},{"duration":0.18181800000002113,"midi":43,"time":157.454388,"velocity":0.2755905511811024},{"duration":0.18181800000002113,"midi":43,"time":157.454388,"velocity":0.2755905511811024},{"duration":0.1818179999999927,"midi":55,"time":157.63620600000002,"velocity":0.2755905511811024},{"duration":0.1818179999999927,"midi":55,"time":157.63620600000002,"velocity":0.2755905511811024},{"duration":0.1818179999999927,"midi":43,"time":157.63620600000002,"velocity":0.2755905511811024},{"duration":0.1818179999999927,"midi":43,"time":157.63620600000002,"velocity":0.2755905511811024},{"duration":0.1818179999999927,"midi":43,"time":157.63620600000002,"velocity":0.2755905511811024},{"duration":0.1818179999999927,"midi":55,"time":157.63620600000002,"velocity":0.2755905511811024},{"duration":0.1818179999999927,"midi":43,"time":157.818024,"velocity":0.2755905511811024},{"duration":0.1818179999999927,"midi":43,"time":157.818024,"velocity":0.2755905511811024},{"duration":0.1818179999999927,"midi":43,"time":157.818024,"velocity":0.2755905511811024},{"duration":0.1818179999999927,"midi":55,"time":157.999842,"velocity":0.2755905511811024},{"duration":0.1818179999999927,"midi":43,"time":157.999842,"velocity":0.2755905511811024},{"duration":0.1818179999999927,"midi":43,"time":157.999842,"velocity":0.2755905511811024},{"duration":0.1818179999999927,"midi":43,"time":157.999842,"velocity":0.2755905511811024},{"duration":0.1818179999999927,"midi":55,"time":157.999842,"velocity":0.2755905511811024},{"duration":0.1818179999999927,"midi":55,"time":157.999842,"velocity":0.2755905511811024},{"duration":0.18181800000002113,"midi":43,"time":158.18166,"velocity":0.2755905511811024},{"duration":0.18181800000002113,"midi":43,"time":158.18166,"velocity":0.2755905511811024},{"duration":0.18181800000002113,"midi":43,"time":158.18166,"velocity":0.2755905511811024},{"duration":0.1818179999999927,"midi":55,"time":158.36347800000001,"velocity":0.2755905511811024},{"duration":0.1818179999999927,"midi":55,"time":158.36347800000001,"velocity":0.2755905511811024},{"duration":0.1818179999999927,"midi":43,"time":158.36347800000001,"velocity":0.2755905511811024},{"duration":0.1818179999999927,"midi":43,"time":158.36347800000001,"velocity":0.2755905511811024},{"duration":0.1818179999999927,"midi":43,"time":158.36347800000001,"velocity":0.2755905511811024},{"duration":0.1818179999999927,"midi":55,"time":158.36347800000001,"velocity":0.2755905511811024},{"duration":0.1818179999999927,"midi":40,"time":158.545296,"velocity":0.2755905511811024},{"duration":0.1818179999999927,"midi":40,"time":158.545296,"velocity":0.2755905511811024},{"duration":0.1818179999999927,"midi":40,"time":158.545296,"velocity":0.2755905511811024},{"duration":0.1818179999999927,"midi":40,"time":158.727114,"velocity":0.2755905511811024},{"duration":0.1818179999999927,"midi":40,"time":158.727114,"velocity":0.2755905511811024},{"duration":0.1818179999999927,"midi":52,"time":158.727114,"velocity":0.2755905511811024},{"duration":0.1818179999999927,"midi":52,"time":158.727114,"velocity":0.2755905511811024},{"duration":0.1818179999999927,"midi":40,"time":158.727114,"velocity":0.2755905511811024},{"duration":0.1818179999999927,"midi":52,"time":158.727114,"velocity":0.2755905511811024},{"duration":0.18181800000002113,"midi":40,"time":158.908932,"velocity":0.2755905511811024},{"duration":0.18181800000002113,"midi":40,"time":158.908932,"velocity":0.2755905511811024},{"duration":0.18181800000002113,"midi":40,"time":158.908932,"velocity":0.2755905511811024},{"duration":0.1818179999999927,"midi":52,"time":159.09075,"velocity":0.2755905511811024},{"duration":0.1818179999999927,"midi":40,"time":159.09075,"velocity":0.2755905511811024},{"duration":0.1818179999999927,"midi":40,"time":159.09075,"velocity":0.2755905511811024},{"duration":0.1818179999999927,"midi":52,"time":159.09075,"velocity":0.2755905511811024},{"duration":0.1818179999999927,"midi":40,"time":159.09075,"velocity":0.2755905511811024},{"duration":0.1818179999999927,"midi":52,"time":159.09075,"velocity":0.2755905511811024},{"duration":0.1818179999999927,"midi":40,"time":159.272568,"velocity":0.2755905511811024},{"duration":0.1818179999999927,"midi":40,"time":159.272568,"velocity":0.2755905511811024},{"duration":0.1818179999999927,"midi":40,"time":159.272568,"velocity":0.2755905511811024},{"duration":0.18181800000002113,"midi":40,"time":159.454386,"velocity":0.2755905511811024},{"duration":0.18181800000002113,"midi":52,"time":159.454386,"velocity":0.2755905511811024},{"duration":0.18181800000002113,"midi":40,"time":159.454386,"velocity":0.2755905511811024},{"duration":0.18181800000002113,"midi":52,"time":159.454386,"velocity":0.2755905511811024},{"duration":0.18181800000002113,"midi":40,"time":159.454386,"velocity":0.2755905511811024},{"duration":0.18181800000002113,"midi":52,"time":159.454386,"velocity":0.2755905511811024},{"duration":0.1818179999999927,"midi":40,"time":159.63620400000002,"velocity":0.2755905511811024},{"duration":0.1818179999999927,"midi":40,"time":159.63620400000002,"velocity":0.2755905511811024},{"duration":0.1818179999999927,"midi":40,"time":159.63620400000002,"velocity":0.2755905511811024},{"duration":0.1818179999999927,"midi":40,"time":159.818022,"velocity":0.2755905511811024},{"duration":0.1818179999999927,"midi":52,"time":159.818022,"velocity":0.2755905511811024},{"duration":0.1818179999999927,"midi":40,"time":159.818022,"velocity":0.2755905511811024},{"duration":0.1818179999999927,"midi":52,"time":159.818022,"velocity":0.2755905511811024},{"duration":0.1818179999999927,"midi":52,"time":159.818022,"velocity":0.2755905511811024},{"duration":0.1818179999999927,"midi":40,"time":159.818022,"velocity":0.2755905511811024},{"duration":0.1818179999999927,"midi":41,"time":159.99984,"velocity":0.2755905511811024},{"duration":0.1818179999999927,"midi":41,"time":159.99984,"velocity":0.2755905511811024},{"duration":0.1818179999999927,"midi":41,"time":159.99984,"velocity":0.2755905511811024},{"duration":0.18181800000002113,"midi":41,"time":160.181658,"velocity":0.2755905511811024},{"duration":0.18181800000002113,"midi":53,"time":160.181658,"velocity":0.2755905511811024},{"duration":0.18181800000002113,"midi":41,"time":160.181658,"velocity":0.2755905511811024},{"duration":0.18181800000002113,"midi":53,"time":160.181658,"velocity":0.2755905511811024},{"duration":0.18181800000002113,"midi":53,"time":160.181658,"velocity":0.2755905511811024},{"duration":0.18181800000002113,"midi":41,"time":160.181658,"velocity":0.2755905511811024},{"duration":0.1818179999999927,"midi":41,"time":160.36347600000002,"velocity":0.2755905511811024},{"duration":0.1818179999999927,"midi":41,"time":160.36347600000002,"velocity":0.2755905511811024},{"duration":0.1818179999999927,"midi":41,"time":160.36347600000002,"velocity":0.2755905511811024},{"duration":0.1818179999999927,"midi":53,"time":160.545294,"velocity":0.2755905511811024},{"duration":0.1818179999999927,"midi":41,"time":160.545294,"velocity":0.2755905511811024},{"duration":0.1818179999999927,"midi":53,"time":160.545294,"velocity":0.2755905511811024},{"duration":0.1818179999999927,"midi":41,"time":160.545294,"velocity":0.2755905511811024},{"duration":0.1818179999999927,"midi":53,"time":160.545294,"velocity":0.2755905511811024},{"duration":0.1818179999999927,"midi":41,"time":160.545294,"velocity":0.2755905511811024},{"duration":0.1818179999999927,"midi":41,"time":160.727112,"velocity":0.2755905511811024},{"duration":0.1818179999999927,"midi":41,"time":160.727112,"velocity":0.2755905511811024},{"duration":0.1818179999999927,"midi":41,"time":160.727112,"velocity":0.2755905511811024},{"duration":0.18181800000002113,"midi":41,"time":160.90893,"velocity":0.2755905511811024},{"duration":0.18181800000002113,"midi":41,"time":160.90893,"velocity":0.2755905511811024},{"duration":0.18181800000002113,"midi":41,"time":160.90893,"velocity":0.2755905511811024},{"duration":0.18181800000002113,"midi":53,"time":160.90893,"velocity":0.2755905511811024},{"duration":0.18181800000002113,"midi":53,"time":160.90893,"velocity":0.2755905511811024},{"duration":0.18181800000002113,"midi":53,"time":160.90893,"velocity":0.2755905511811024},{"duration":0.1818179999999927,"midi":41,"time":161.09074800000002,"velocity":0.2755905511811024},{"duration":0.1818179999999927,"midi":41,"time":161.09074800000002,"velocity":0.2755905511811024},{"duration":0.1818179999999927,"midi":41,"time":161.09074800000002,"velocity":0.2755905511811024},{"duration":0.1818179999999927,"midi":53,"time":161.272566,"velocity":0.2755905511811024},{"duration":0.1818179999999927,"midi":53,"time":161.272566,"velocity":0.2755905511811024},{"duration":0.1818179999999927,"midi":41,"time":161.272566,"velocity":0.2755905511811024},{"duration":0.1818179999999927,"midi":41,"time":161.272566,"velocity":0.2755905511811024},{"duration":0.1818179999999927,"midi":41,"time":161.272566,"velocity":0.2755905511811024},{"duration":0.1818179999999927,"midi":53,"time":161.272566,"velocity":0.2755905511811024},{"duration":0.1818179999999927,"midi":43,"time":161.454384,"velocity":0.2755905511811024},{"duration":0.1818179999999927,"midi":43,"time":161.454384,"velocity":0.2755905511811024},{"duration":0.1818179999999927,"midi":43,"time":161.454384,"velocity":0.2755905511811024},{"duration":0.18181800000002113,"midi":43,"time":161.636202,"velocity":0.2755905511811024},{"duration":0.18181800000002113,"midi":43,"time":161.636202,"velocity":0.2755905511811024},{"duration":0.18181800000002113,"midi":55,"time":161.636202,"velocity":0.2755905511811024},{"duration":0.18181800000002113,"midi":55,"time":161.636202,"velocity":0.2755905511811024},{"duration":0.18181800000002113,"midi":43,"time":161.636202,"velocity":0.2755905511811024},{"duration":0.18181800000002113,"midi":55,"time":161.636202,"velocity":0.2755905511811024},{"duration":0.1818179999999927,"midi":43,"time":161.81802000000002,"velocity":0.2755905511811024},{"duration":0.1818179999999927,"midi":43,"time":161.81802000000002,"velocity":0.2755905511811024},{"duration":0.1818179999999927,"midi":43,"time":161.81802000000002,"velocity":0.2755905511811024},{"duration":0.1818179999999927,"midi":43,"time":161.999838,"velocity":0.2755905511811024},{"duration":0.1818179999999927,"midi":55,"time":161.999838,"velocity":0.2755905511811024},{"duration":0.1818179999999927,"midi":55,"time":161.999838,"velocity":0.2755905511811024},{"duration":0.1818179999999927,"midi":43,"time":161.999838,"velocity":0.2755905511811024},{"duration":0.1818179999999927,"midi":43,"time":161.999838,"velocity":0.2755905511811024},{"duration":0.1818179999999927,"midi":55,"time":161.999838,"velocity":0.2755905511811024},{"duration":0.1818179999999927,"midi":43,"time":162.181656,"velocity":0.2755905511811024},{"duration":0.1818179999999927,"midi":43,"time":162.181656,"velocity":0.2755905511811024},{"duration":0.1818179999999927,"midi":43,"time":162.181656,"velocity":0.2755905511811024},{"duration":0.18181800000002113,"midi":43,"time":162.363474,"velocity":0.2755905511811024},{"duration":0.18181800000002113,"midi":43,"time":162.363474,"velocity":0.2755905511811024},{"duration":0.18181800000002113,"midi":43,"time":162.363474,"velocity":0.2755905511811024},{"duration":0.18181800000002113,"midi":55,"time":162.363474,"velocity":0.2755905511811024},{"duration":0.18181800000002113,"midi":55,"time":162.363474,"velocity":0.2755905511811024},{"duration":0.18181800000002113,"midi":55,"time":162.363474,"velocity":0.2755905511811024},{"duration":0.1818179999999927,"midi":31,"time":162.908928,"velocity":0.2755905511811024},{"duration":0.1818179999999927,"midi":31,"time":162.908928,"velocity":0.2755905511811024},{"duration":0.1818179999999927,"midi":43,"time":162.908928,"velocity":0.2755905511811024},{"duration":0.1818179999999927,"midi":31,"time":162.908928,"velocity":0.2755905511811024},{"duration":0.1818179999999927,"midi":43,"time":162.908928,"velocity":0.2755905511811024},{"duration":0.1818179999999927,"midi":43,"time":162.908928,"velocity":0.2755905511811024},{"duration":0.18181800000002113,"midi":55,"time":163.090746,"velocity":0.2755905511811024},{"duration":0.18181800000002113,"midi":43,"time":163.090746,"velocity":0.2755905511811024},{"duration":0.18181800000002113,"midi":43,"time":163.090746,"velocity":0.2755905511811024},{"duration":0.18181800000002113,"midi":43,"time":163.090746,"velocity":0.2755905511811024},{"duration":0.18181800000002113,"midi":55,"time":163.090746,"velocity":0.2755905511811024},{"duration":0.18181800000002113,"midi":55,"time":163.090746,"velocity":0.2755905511811024},{"duration":0.1818179999999927,"midi":31,"time":163.27256400000002,"velocity":0.2755905511811024},{"duration":0.1818179999999927,"midi":43,"time":163.27256400000002,"velocity":0.2755905511811024},{"duration":0.1818179999999927,"midi":31,"time":163.27256400000002,"velocity":0.2755905511811024},{"duration":0.1818179999999927,"midi":31,"time":163.27256400000002,"velocity":0.2755905511811024},{"duration":0.1818179999999927,"midi":43,"time":163.27256400000002,"velocity":0.2755905511811024},{"duration":0.1818179999999927,"midi":43,"time":163.27256400000002,"velocity":0.2755905511811024},{"duration":0.1818179999999927,"midi":43,"time":163.454382,"velocity":0.2755905511811024},{"duration":0.1818179999999927,"midi":55,"time":163.454382,"velocity":0.2755905511811024},{"duration":0.1818179999999927,"midi":43,"time":163.454382,"velocity":0.2755905511811024},{"duration":0.1818179999999927,"midi":55,"time":163.454382,"velocity":0.2755905511811024},{"duration":0.1818179999999927,"midi":55,"time":163.454382,"velocity":0.2755905511811024},{"duration":0.1818179999999927,"midi":43,"time":163.454382,"velocity":0.2755905511811024},{"duration":0.1818179999999927,"midi":43,"time":163.6362,"velocity":0.2755905511811024},{"duration":0.1818179999999927,"midi":43,"time":163.6362,"velocity":0.2755905511811024},{"duration":0.1818179999999927,"midi":31,"time":163.6362,"velocity":0.2755905511811024},{"duration":0.1818179999999927,"midi":31,"time":163.6362,"velocity":0.2755905511811024},{"duration":0.1818179999999927,"midi":43,"time":163.6362,"velocity":0.2755905511811024},{"duration":0.1818179999999927,"midi":31,"time":163.6362,"velocity":0.2755905511811024},{"duration":0.18181800000002113,"midi":43,"time":163.818018,"velocity":0.2755905511811024},{"duration":0.18181800000002113,"midi":43,"time":163.818018,"velocity":0.2755905511811024},{"duration":0.18181800000002113,"midi":43,"time":163.818018,"velocity":0.2755905511811024},{"duration":0.18181800000002113,"midi":55,"time":163.818018,"velocity":0.2755905511811024},{"duration":0.18181800000002113,"midi":55,"time":163.818018,"velocity":0.2755905511811024},{"duration":0.18181800000002113,"midi":55,"time":163.818018,"velocity":0.2755905511811024},{"duration":0.1818179999999927,"midi":43,"time":163.99983600000002,"velocity":0.2755905511811024},{"duration":0.1818179999999927,"midi":31,"time":163.99983600000002,"velocity":0.2755905511811024},{"duration":0.1818179999999927,"midi":31,"time":163.99983600000002,"velocity":0.2755905511811024},{"duration":0.1818179999999927,"midi":43,"time":163.99983600000002,"velocity":0.2755905511811024},{"duration":0.1818179999999927,"midi":43,"time":163.99983600000002,"velocity":0.2755905511811024},{"duration":0.1818179999999927,"midi":31,"time":163.99983600000002,"velocity":0.2755905511811024},{"duration":0.1818179999999927,"midi":43,"time":164.181654,"velocity":0.2755905511811024},{"duration":0.1818179999999927,"midi":43,"time":164.181654,"velocity":0.2755905511811024},{"duration":0.1818179999999927,"midi":43,"time":164.181654,"velocity":0.2755905511811024},{"duration":0.1818179999999927,"midi":55,"time":164.181654,"velocity":0.2755905511811024},{"duration":0.1818179999999927,"midi":55,"time":164.181654,"velocity":0.2755905511811024},{"duration":0.1818179999999927,"midi":55,"time":164.181654,"velocity":0.2755905511811024},{"duration":0.1818179999999927,"midi":28,"time":164.363472,"velocity":0.2755905511811024},{"duration":0.1818179999999927,"midi":40,"time":164.363472,"velocity":0.2755905511811024},{"duration":0.1818179999999927,"midi":40,"time":164.363472,"velocity":0.2755905511811024},{"duration":0.1818179999999927,"midi":40,"time":164.363472,"velocity":0.2755905511811024},{"duration":0.1818179999999927,"midi":28,"time":164.363472,"velocity":0.2755905511811024},{"duration":0.1818179999999927,"midi":28,"time":164.363472,"velocity":0.2755905511811024},{"duration":0.18181800000002113,"midi":52,"time":164.54529,"velocity":0.2755905511811024},{"duration":0.18181800000002113,"midi":52,"time":164.54529,"velocity":0.2755905511811024},{"duration":0.18181800000002113,"midi":40,"time":164.54529,"velocity":0.2755905511811024},{"duration":0.18181800000002113,"midi":40,"time":164.54529,"velocity":0.2755905511811024},{"duration":0.18181800000002113,"midi":52,"time":164.54529,"velocity":0.2755905511811024},{"duration":0.18181800000002113,"midi":40,"time":164.54529,"velocity":0.2755905511811024},{"duration":0.1818179999999927,"midi":28,"time":164.72710800000002,"velocity":0.2755905511811024},{"duration":0.1818179999999927,"midi":40,"time":164.72710800000002,"velocity":0.2755905511811024},{"duration":0.1818179999999927,"midi":40,"time":164.72710800000002,"velocity":0.2755905511811024},{"duration":0.1818179999999927,"midi":28,"time":164.72710800000002,"velocity":0.2755905511811024},{"duration":0.1818179999999927,"midi":28,"time":164.72710800000002,"velocity":0.2755905511811024},{"duration":0.1818179999999927,"midi":40,"time":164.72710800000002,"velocity":0.2755905511811024},{"duration":0.1818179999999927,"midi":52,"time":164.908926,"velocity":0.2755905511811024},{"duration":0.1818179999999927,"midi":52,"time":164.908926,"velocity":0.2755905511811024},{"duration":0.1818179999999927,"midi":40,"time":164.908926,"velocity":0.2755905511811024},{"duration":0.1818179999999927,"midi":40,"time":164.908926,"velocity":0.2755905511811024},{"duration":0.1818179999999927,"midi":40,"time":164.908926,"velocity":0.2755905511811024},{"duration":0.1818179999999927,"midi":52,"time":164.908926,"velocity":0.2755905511811024},{"duration":0.1818179999999927,"midi":40,"time":165.090744,"velocity":0.2755905511811024},{"duration":0.1818179999999927,"midi":28,"time":165.090744,"velocity":0.2755905511811024},{"duration":0.1818179999999927,"midi":28,"time":165.090744,"velocity":0.2755905511811024},{"duration":0.1818179999999927,"midi":28,"time":165.090744,"velocity":0.2755905511811024},{"duration":0.1818179999999927,"midi":40,"time":165.090744,"velocity":0.2755905511811024},{"duration":0.1818179999999927,"midi":40,"time":165.090744,"velocity":0.2755905511811024},{"duration":0.18181800000002113,"midi":40,"time":165.272562,"velocity":0.2755905511811024},{"duration":0.18181800000002113,"midi":40,"time":165.272562,"velocity":0.2755905511811024},{"duration":0.18181800000002113,"midi":52,"time":165.272562,"velocity":0.2755905511811024},{"duration":0.18181800000002113,"midi":40,"time":165.272562,"velocity":0.2755905511811024},{"duration":0.18181800000002113,"midi":52,"time":165.272562,"velocity":0.2755905511811024},{"duration":0.18181800000002113,"midi":52,"time":165.272562,"velocity":0.2755905511811024},{"duration":0.1818179999999927,"midi":28,"time":165.45438000000001,"velocity":0.2755905511811024},{"duration":0.1818179999999927,"midi":40,"time":165.45438000000001,"velocity":0.2755905511811024},{"duration":0.1818179999999927,"midi":28,"time":165.45438000000001,"velocity":0.2755905511811024},{"duration":0.1818179999999927,"midi":28,"time":165.45438000000001,"velocity":0.2755905511811024},{"duration":0.1818179999999927,"midi":40,"time":165.45438000000001,"velocity":0.2755905511811024},{"duration":0.1818179999999927,"midi":40,"time":165.45438000000001,"velocity":0.2755905511811024},{"duration":0.1818179999999927,"midi":40,"time":165.636198,"velocity":0.2755905511811024},{"duration":0.1818179999999927,"midi":40,"time":165.636198,"velocity":0.2755905511811024},{"duration":0.1818179999999927,"midi":52,"time":165.636198,"velocity":0.2755905511811024},{"duration":0.1818179999999927,"midi":52,"time":165.636198,"velocity":0.2755905511811024},{"duration":0.1818179999999927,"midi":40,"time":165.636198,"velocity":0.2755905511811024},{"duration":0.1818179999999927,"midi":52,"time":165.636198,"velocity":0.2755905511811024},{"duration":0.1818179999999927,"midi":29,"time":165.818016,"velocity":0.2755905511811024},{"duration":0.1818179999999927,"midi":41,"time":165.818016,"velocity":0.2755905511811024},{"duration":0.1818179999999927,"midi":41,"time":165.818016,"velocity":0.2755905511811024},{"duration":0.1818179999999927,"midi":41,"time":165.818016,"velocity":0.2755905511811024},{"duration":0.1818179999999927,"midi":29,"time":165.818016,"velocity":0.2755905511811024},{"duration":0.1818179999999927,"midi":29,"time":165.818016,"velocity":0.2755905511811024},{"duration":0.18181800000002113,"midi":53,"time":165.999834,"velocity":0.2755905511811024},{"duration":0.18181800000002113,"midi":53,"time":165.999834,"velocity":0.2755905511811024},{"duration":0.18181800000002113,"midi":53,"time":165.999834,"velocity":0.2755905511811024},{"duration":0.18181800000002113,"midi":41,"time":165.999834,"velocity":0.2755905511811024},{"duration":0.18181800000002113,"midi":41,"time":165.999834,"velocity":0.2755905511811024},{"duration":0.18181800000002113,"midi":41,"time":165.999834,"velocity":0.2755905511811024},{"duration":0.1818179999999927,"midi":41,"time":166.181652,"velocity":0.2755905511811024},{"duration":0.1818179999999927,"midi":41,"time":166.181652,"velocity":0.2755905511811024},{"duration":0.1818179999999927,"midi":29,"time":166.181652,"velocity":0.2755905511811024},{"duration":0.1818179999999927,"midi":29,"time":166.181652,"velocity":0.2755905511811024},{"duration":0.1818179999999927,"midi":29,"time":166.181652,"velocity":0.2755905511811024},{"duration":0.1818179999999927,"midi":41,"time":166.181652,"velocity":0.2755905511811024},{"duration":0.1818179999999927,"midi":53,"time":166.36347,"velocity":0.2755905511811024},{"duration":0.1818179999999927,"midi":41,"time":166.36347,"velocity":0.2755905511811024},{"duration":0.1818179999999927,"midi":41,"time":166.36347,"velocity":0.2755905511811024},{"duration":0.1818179999999927,"midi":53,"time":166.36347,"velocity":0.2755905511811024},{"duration":0.1818179999999927,"midi":41,"time":166.36347,"velocity":0.2755905511811024},{"duration":0.1818179999999927,"midi":53,"time":166.36347,"velocity":0.2755905511811024},{"duration":0.18181800000002113,"midi":29,"time":166.545288,"velocity":0.2755905511811024},{"duration":0.18181800000002113,"midi":41,"time":166.545288,"velocity":0.2755905511811024},{"duration":0.18181800000002113,"midi":29,"time":166.545288,"velocity":0.2755905511811024},{"duration":0.18181800000002113,"midi":29,"time":166.545288,"velocity":0.2755905511811024},{"duration":0.18181800000002113,"midi":41,"time":166.545288,"velocity":0.2755905511811024},{"duration":0.18181800000002113,"midi":41,"time":166.545288,"velocity":0.2755905511811024},{"duration":0.1818179999999927,"midi":41,"time":166.72710600000002,"velocity":0.2755905511811024},{"duration":0.1818179999999927,"midi":41,"time":166.72710600000002,"velocity":0.2755905511811024},{"duration":0.1818179999999927,"midi":53,"time":166.72710600000002,"velocity":0.2755905511811024},{"duration":0.1818179999999927,"midi":53,"time":166.72710600000002,"velocity":0.2755905511811024},{"duration":0.1818179999999927,"midi":41,"time":166.72710600000002,"velocity":0.2755905511811024},{"duration":0.1818179999999927,"midi":53,"time":166.72710600000002,"velocity":0.2755905511811024},{"duration":0.1818179999999927,"midi":41,"time":166.908924,"velocity":0.2755905511811024},{"duration":0.1818179999999927,"midi":29,"time":166.908924,"velocity":0.2755905511811024},{"duration":0.1818179999999927,"midi":41,"time":166.908924,"velocity":0.2755905511811024},{"duration":0.1818179999999927,"midi":29,"time":166.908924,"velocity":0.2755905511811024},{"duration":0.1818179999999927,"midi":29,"time":166.908924,"velocity":0.2755905511811024},{"duration":0.1818179999999927,"midi":41,"time":166.908924,"velocity":0.2755905511811024},{"duration":0.1818179999999927,"midi":53,"time":167.090742,"velocity":0.2755905511811024},{"duration":0.1818179999999927,"midi":41,"time":167.090742,"velocity":0.2755905511811024},{"duration":0.1818179999999927,"midi":53,"time":167.090742,"velocity":0.2755905511811024},{"duration":0.1818179999999927,"midi":41,"time":167.090742,"velocity":0.2755905511811024},{"duration":0.1818179999999927,"midi":41,"time":167.090742,"velocity":0.2755905511811024},{"duration":0.1818179999999927,"midi":53,"time":167.090742,"velocity":0.2755905511811024},{"duration":0.18181800000002113,"midi":31,"time":167.27256,"velocity":0.2755905511811024},{"duration":0.18181800000002113,"midi":31,"time":167.27256,"velocity":0.2755905511811024},{"duration":0.18181800000002113,"midi":43,"time":167.27256,"velocity":0.2755905511811024},{"duration":0.18181800000002113,"midi":43,"time":167.27256,"velocity":0.2755905511811024},{"duration":0.18181800000002113,"midi":31,"time":167.27256,"velocity":0.2755905511811024},{"duration":0.18181800000002113,"midi":43,"time":167.27256,"velocity":0.2755905511811024},{"duration":0.1818179999999927,"midi":43,"time":167.45437800000002,"velocity":0.2755905511811024},{"duration":0.1818179999999927,"midi":55,"time":167.45437800000002,"velocity":0.2755905511811024},{"duration":0.1818179999999927,"midi":55,"time":167.45437800000002,"velocity":0.2755905511811024},{"duration":0.1818179999999927,"midi":43,"time":167.45437800000002,"velocity":0.2755905511811024},{"duration":0.1818179999999927,"midi":55,"time":167.45437800000002,"velocity":0.2755905511811024},{"duration":0.1818179999999927,"midi":43,"time":167.45437800000002,"velocity":0.2755905511811024},{"duration":0.1818179999999927,"midi":43,"time":167.636196,"velocity":0.2755905511811024},{"duration":0.1818179999999927,"midi":31,"time":167.636196,"velocity":0.2755905511811024},{"duration":0.1818179999999927,"midi":31,"time":167.636196,"velocity":0.2755905511811024},{"duration":0.1818179999999927,"midi":43,"time":167.636196,"velocity":0.2755905511811024},{"duration":0.1818179999999927,"midi":43,"time":167.636196,"velocity":0.2755905511811024},{"duration":0.1818179999999927,"midi":31,"time":167.636196,"velocity":0.2755905511811024},{"duration":0.1818179999999927,"midi":43,"time":167.818014,"velocity":0.2755905511811024},{"duration":0.1818179999999927,"midi":43,"time":167.818014,"velocity":0.2755905511811024},{"duration":0.1818179999999927,"midi":43,"time":167.818014,"velocity":0.2755905511811024},{"duration":0.1818179999999927,"midi":55,"time":167.818014,"velocity":0.2755905511811024},{"duration":0.1818179999999927,"midi":55,"time":167.818014,"velocity":0.2755905511811024},{"duration":0.1818179999999927,"midi":55,"time":167.818014,"velocity":0.2755905511811024},{"duration":0.18181800000002113,"midi":31,"time":167.999832,"velocity":0.2755905511811024},{"duration":0.18181800000002113,"midi":43,"time":167.999832,"velocity":0.2755905511811024},{"duration":0.18181800000002113,"midi":31,"time":167.999832,"velocity":0.2755905511811024},{"duration":0.18181800000002113,"midi":31,"time":167.999832,"velocity":0.2755905511811024},{"duration":0.18181800000002113,"midi":43,"time":167.999832,"velocity":0.2755905511811024},{"duration":0.18181800000002113,"midi":43,"time":167.999832,"velocity":0.2755905511811024},{"duration":0.1818179999999927,"midi":55,"time":168.18165000000002,"velocity":0.2755905511811024},{"duration":0.1818179999999927,"midi":43,"time":168.18165000000002,"velocity":0.2755905511811024},{"duration":0.1818179999999927,"midi":55,"time":168.18165000000002,"velocity":0.2755905511811024},{"duration":0.1818179999999927,"midi":43,"time":168.18165000000002,"velocity":0.2755905511811024},{"duration":0.1818179999999927,"midi":43,"time":168.18165000000002,"velocity":0.2755905511811024},{"duration":0.1818179999999927,"midi":55,"time":168.18165000000002,"velocity":0.2755905511811024},{"duration":0.1818179999999927,"midi":31,"time":168.363468,"velocity":0.2755905511811024},{"duration":0.1818179999999927,"midi":43,"time":168.363468,"velocity":0.2755905511811024},{"duration":0.1818179999999927,"midi":31,"time":168.363468,"velocity":0.2755905511811024},{"duration":0.1818179999999927,"midi":43,"time":168.363468,"velocity":0.2755905511811024},{"duration":0.1818179999999927,"midi":43,"time":168.363468,"velocity":0.2755905511811024},{"duration":0.1818179999999927,"midi":31,"time":168.363468,"velocity":0.2755905511811024},{"duration":0.1818179999999927,"midi":43,"time":168.545286,"velocity":0.2755905511811024},{"duration":0.1818179999999927,"midi":55,"time":168.545286,"velocity":0.2755905511811024},{"duration":0.1818179999999927,"midi":55,"time":168.545286,"velocity":0.2755905511811024},{"duration":0.1818179999999927,"midi":43,"time":168.545286,"velocity":0.2755905511811024},{"duration":0.1818179999999927,"midi":43,"time":168.545286,"velocity":0.2755905511811024},{"duration":0.1818179999999927,"midi":55,"time":168.545286,"velocity":0.2755905511811024},{"duration":0.18181800000002113,"midi":31,"time":168.727104,"velocity":0.2755905511811024},{"duration":0.18181800000002113,"midi":31,"time":168.727104,"velocity":0.2755905511811024},{"duration":0.18181800000002113,"midi":31,"time":168.727104,"velocity":0.2755905511811024},{"duration":0.18181800000002113,"midi":43,"time":168.727104,"velocity":0.2755905511811024},{"duration":0.18181800000002113,"midi":43,"time":168.727104,"velocity":0.2755905511811024},{"duration":0.18181800000002113,"midi":43,"time":168.727104,"velocity":0.2755905511811024},{"duration":0.1818179999999927,"midi":55,"time":168.90892200000002,"velocity":0.2755905511811024},{"duration":0.1818179999999927,"midi":43,"time":168.90892200000002,"velocity":0.2755905511811024},{"duration":0.1818179999999927,"midi":43,"time":168.90892200000002,"velocity":0.2755905511811024},{"duration":0.1818179999999927,"midi":55,"time":168.90892200000002,"velocity":0.2755905511811024},{"duration":0.1818179999999927,"midi":55,"time":168.90892200000002,"velocity":0.2755905511811024},{"duration":0.1818179999999927,"midi":43,"time":168.90892200000002,"velocity":0.2755905511811024},{"duration":0.1818179999999927,"midi":31,"time":169.09074,"velocity":0.2755905511811024},{"duration":0.1818179999999927,"midi":43,"time":169.09074,"velocity":0.2755905511811024},{"duration":0.1818179999999927,"midi":43,"time":169.09074,"velocity":0.2755905511811024},{"duration":0.1818179999999927,"midi":31,"time":169.09074,"velocity":0.2755905511811024},{"duration":0.1818179999999927,"midi":31,"time":169.09074,"velocity":0.2755905511811024},{"duration":0.1818179999999927,"midi":43,"time":169.09074,"velocity":0.2755905511811024},{"duration":0.1818179999999927,"midi":55,"time":169.272558,"velocity":0.2755905511811024},{"duration":0.1818179999999927,"midi":43,"time":169.272558,"velocity":0.2755905511811024},{"duration":0.1818179999999927,"midi":43,"time":169.272558,"velocity":0.2755905511811024},{"duration":0.1818179999999927,"midi":55,"time":169.272558,"velocity":0.2755905511811024},{"duration":0.1818179999999927,"midi":55,"time":169.272558,"velocity":0.2755905511811024},{"duration":0.1818179999999927,"midi":43,"time":169.272558,"velocity":0.2755905511811024},{"duration":0.18181800000002113,"midi":43,"time":169.454376,"velocity":0.2755905511811024},{"duration":0.18181800000002113,"midi":31,"time":169.454376,"velocity":0.2755905511811024},{"duration":0.18181800000002113,"midi":43,"time":169.454376,"velocity":0.2755905511811024},{"duration":0.18181800000002113,"midi":31,"time":169.454376,"velocity":0.2755905511811024},{"duration":0.18181800000002113,"midi":43,"time":169.454376,"velocity":0.2755905511811024},{"duration":0.18181800000002113,"midi":31,"time":169.454376,"velocity":0.2755905511811024},{"duration":0.1818179999999927,"midi":55,"time":169.63619400000002,"velocity":0.2755905511811024},{"duration":0.1818179999999927,"midi":55,"time":169.63619400000002,"velocity":0.2755905511811024},{"duration":0.1818179999999927,"midi":43,"time":169.63619400000002,"velocity":0.2755905511811024},{"duration":0.1818179999999927,"midi":43,"time":169.63619400000002,"velocity":0.2755905511811024},{"duration":0.1818179999999927,"midi":43,"time":169.63619400000002,"velocity":0.2755905511811024},{"duration":0.1818179999999927,"midi":55,"time":169.63619400000002,"velocity":0.2755905511811024},{"duration":0.1818179999999927,"midi":43,"time":169.818012,"velocity":0.2755905511811024},{"duration":0.1818179999999927,"midi":31,"time":169.818012,"velocity":0.2755905511811024},{"duration":0.1818179999999927,"midi":43,"time":169.818012,"velocity":0.2755905511811024},{"duration":0.1818179999999927,"midi":43,"time":169.818012,"velocity":0.2755905511811024},{"duration":0.1818179999999927,"midi":31,"time":169.818012,"velocity":0.2755905511811024},{"duration":0.1818179999999927,"midi":31,"time":169.818012,"velocity":0.2755905511811024},{"duration":0.1818179999999927,"midi":55,"time":169.99983,"velocity":0.2755905511811024},{"duration":0.1818179999999927,"midi":55,"time":169.99983,"velocity":0.2755905511811024},{"duration":0.1818179999999927,"midi":43,"time":169.99983,"velocity":0.2755905511811024},{"duration":0.1818179999999927,"midi":43,"time":169.99983,"velocity":0.2755905511811024},{"duration":0.1818179999999927,"midi":43,"time":169.99983,"velocity":0.2755905511811024},{"duration":0.1818179999999927,"midi":55,"time":169.99983,"velocity":0.2755905511811024},{"duration":0.18181800000002113,"midi":28,"time":170.181648,"velocity":0.2755905511811024},{"duration":0.18181800000002113,"midi":40,"time":170.181648,"velocity":0.2755905511811024},{"duration":0.18181800000002113,"midi":28,"time":170.181648,"velocity":0.2755905511811024},{"duration":0.18181800000002113,"midi":40,"time":170.181648,"velocity":0.2755905511811024},{"duration":0.18181800000002113,"midi":28,"time":170.181648,"velocity":0.2755905511811024},{"duration":0.18181800000002113,"midi":40,"time":170.181648,"velocity":0.2755905511811024},{"duration":0.18181800000002113,"midi":40,"time":170.181648,"velocity":0.2755905511811024},{"duration":0.18181800000002113,"midi":40,"time":170.181648,"velocity":0.2755905511811024},{"duration":0.18181800000002113,"midi":28,"time":170.181648,"velocity":0.2755905511811024},{"duration":0.18181800000002113,"midi":28,"time":170.181648,"velocity":0.2755905511811024},{"duration":0.18181800000002113,"midi":28,"time":170.181648,"velocity":0.2755905511811024},{"duration":0.18181800000002113,"midi":40,"time":170.181648,"velocity":0.2755905511811024},{"duration":0.1818179999999927,"midi":40,"time":170.36346600000002,"velocity":0.2755905511811024},{"duration":0.1818179999999927,"midi":52,"time":170.36346600000002,"velocity":0.2755905511811024},{"duration":0.1818179999999927,"midi":40,"time":170.36346600000002,"velocity":0.2755905511811024},{"duration":0.1818179999999927,"midi":52,"time":170.36346600000002,"velocity":0.2755905511811024},{"duration":0.1818179999999927,"midi":40,"time":170.36346600000002,"velocity":0.2755905511811024},{"duration":0.1818179999999927,"midi":52,"time":170.36346600000002,"velocity":0.2755905511811024},{"duration":0.1818179999999927,"midi":52,"time":170.36346600000002,"velocity":0.2755905511811024},{"duration":0.1818179999999927,"midi":40,"time":170.36346600000002,"velocity":0.2755905511811024},{"duration":0.1818179999999927,"midi":52,"time":170.36346600000002,"velocity":0.2755905511811024},{"duration":0.1818179999999927,"midi":40,"time":170.36346600000002,"velocity":0.2755905511811024},{"duration":0.1818179999999927,"midi":40,"time":170.36346600000002,"velocity":0.2755905511811024},{"duration":0.1818179999999927,"midi":52,"time":170.36346600000002,"velocity":0.2755905511811024},{"duration":0.1818179999999927,"midi":40,"time":170.545284,"velocity":0.2755905511811024},{"duration":0.1818179999999927,"midi":28,"time":170.545284,"velocity":0.2755905511811024},{"duration":0.1818179999999927,"midi":28,"time":170.545284,"velocity":0.2755905511811024},{"duration":0.1818179999999927,"midi":40,"time":170.545284,"velocity":0.2755905511811024},{"duration":0.1818179999999927,"midi":28,"time":170.545284,"velocity":0.2755905511811024},{"duration":0.1818179999999927,"midi":40,"time":170.545284,"velocity":0.2755905511811024},{"duration":0.1818179999999927,"midi":40,"time":170.545284,"velocity":0.2755905511811024},{"duration":0.1818179999999927,"midi":28,"time":170.545284,"velocity":0.2755905511811024},{"duration":0.1818179999999927,"midi":28,"time":170.545284,"velocity":0.2755905511811024},{"duration":0.1818179999999927,"midi":28,"time":170.545284,"velocity":0.2755905511811024},{"duration":0.1818179999999927,"midi":40,"time":170.545284,"velocity":0.2755905511811024},{"duration":0.1818179999999927,"midi":40,"time":170.545284,"velocity":0.2755905511811024},{"duration":0.1818179999999927,"midi":40,"time":170.727102,"velocity":0.2755905511811024},{"duration":0.1818179999999927,"midi":40,"time":170.727102,"velocity":0.2755905511811024},{"duration":0.1818179999999927,"midi":40,"time":170.727102,"velocity":0.2755905511811024},{"duration":0.1818179999999927,"midi":52,"time":170.727102,"velocity":0.2755905511811024},{"duration":0.1818179999999927,"midi":40,"time":170.727102,"velocity":0.2755905511811024},{"duration":0.1818179999999927,"midi":52,"time":170.727102,"velocity":0.2755905511811024},{"duration":0.1818179999999927,"midi":52,"time":170.727102,"velocity":0.2755905511811024},{"duration":0.1818179999999927,"midi":52,"time":170.727102,"velocity":0.2755905511811024},{"duration":0.1818179999999927,"midi":40,"time":170.727102,"velocity":0.2755905511811024},{"duration":0.1818179999999927,"midi":52,"time":170.727102,"velocity":0.2755905511811024},{"duration":0.1818179999999927,"midi":52,"time":170.727102,"velocity":0.2755905511811024},{"duration":0.1818179999999927,"midi":40,"time":170.727102,"velocity":0.2755905511811024},{"duration":0.18181800000002113,"midi":28,"time":170.90892,"velocity":0.2755905511811024},{"duration":0.18181800000002113,"midi":28,"time":170.90892,"velocity":0.2755905511811024},{"duration":0.18181800000002113,"midi":40,"time":170.90892,"velocity":0.2755905511811024},{"duration":0.18181800000002113,"midi":28,"time":170.90892,"velocity":0.2755905511811024},{"duration":0.18181800000002113,"midi":40,"time":170.90892,"velocity":0.2755905511811024},{"duration":0.18181800000002113,"midi":28,"time":170.90892,"velocity":0.2755905511811024},{"duration":0.18181800000002113,"midi":28,"time":170.90892,"velocity":0.2755905511811024},{"duration":0.18181800000002113,"midi":40,"time":170.90892,"velocity":0.2755905511811024},{"duration":0.18181800000002113,"midi":40,"time":170.90892,"velocity":0.2755905511811024},{"duration":0.18181800000002113,"midi":40,"time":170.90892,"velocity":0.2755905511811024},{"duration":0.18181800000002113,"midi":40,"time":170.90892,"velocity":0.2755905511811024},{"duration":0.18181800000002113,"midi":28,"time":170.90892,"velocity":0.2755905511811024},{"duration":0.1818179999999927,"midi":52,"time":171.09073800000002,"velocity":0.2755905511811024},{"duration":0.1818179999999927,"midi":40,"time":171.09073800000002,"velocity":0.2755905511811024},{"duration":0.1818179999999927,"midi":40,"time":171.09073800000002,"velocity":0.2755905511811024},{"duration":0.1818179999999927,"midi":40,"time":171.09073800000002,"velocity":0.2755905511811024},{"duration":0.1818179999999927,"midi":40,"time":171.09073800000002,"velocity":0.2755905511811024},{"duration":0.1818179999999927,"midi":52,"time":171.09073800000002,"velocity":0.2755905511811024},{"duration":0.1818179999999927,"midi":40,"time":171.09073800000002,"velocity":0.2755905511811024},{"duration":0.1818179999999927,"midi":52,"time":171.09073800000002,"velocity":0.2755905511811024},{"duration":0.1818179999999927,"midi":40,"time":171.09073800000002,"velocity":0.2755905511811024},{"duration":0.1818179999999927,"midi":52,"time":171.09073800000002,"velocity":0.2755905511811024},{"duration":0.1818179999999927,"midi":52,"time":171.09073800000002,"velocity":0.2755905511811024},{"duration":0.1818179999999927,"midi":52,"time":171.09073800000002,"velocity":0.2755905511811024},{"duration":0.1818179999999927,"midi":40,"time":171.272556,"velocity":0.2755905511811024},{"duration":0.1818179999999927,"midi":40,"time":171.272556,"velocity":0.2755905511811024},{"duration":0.1818179999999927,"midi":40,"time":171.272556,"velocity":0.2755905511811024},{"duration":0.1818179999999927,"midi":40,"time":171.272556,"velocity":0.2755905511811024},{"duration":0.1818179999999927,"midi":28,"time":171.272556,"velocity":0.2755905511811024},{"duration":0.1818179999999927,"midi":28,"time":171.272556,"velocity":0.2755905511811024},{"duration":0.1818179999999927,"midi":28,"time":171.272556,"velocity":0.2755905511811024},{"duration":0.1818179999999927,"midi":28,"time":171.272556,"velocity":0.2755905511811024},{"duration":0.1818179999999927,"midi":28,"time":171.272556,"velocity":0.2755905511811024},{"duration":0.1818179999999927,"midi":40,"time":171.272556,"velocity":0.2755905511811024},{"duration":0.1818179999999927,"midi":40,"time":171.272556,"velocity":0.2755905511811024},{"duration":0.1818179999999927,"midi":28,"time":171.272556,"velocity":0.2755905511811024},{"duration":0.1818179999999927,"midi":40,"time":171.454374,"velocity":0.2755905511811024},{"duration":0.1818179999999927,"midi":52,"time":171.454374,"velocity":0.2755905511811024},{"duration":0.1818179999999927,"midi":40,"time":171.454374,"velocity":0.2755905511811024},{"duration":0.1818179999999927,"midi":40,"time":171.454374,"velocity":0.2755905511811024},{"duration":0.1818179999999927,"midi":52,"time":171.454374,"velocity":0.2755905511811024},{"duration":0.1818179999999927,"midi":52,"time":171.454374,"velocity":0.2755905511811024},{"duration":0.1818179999999927,"midi":40,"time":171.454374,"velocity":0.2755905511811024},{"duration":0.1818179999999927,"midi":40,"time":171.454374,"velocity":0.2755905511811024},{"duration":0.1818179999999927,"midi":40,"time":171.454374,"velocity":0.2755905511811024},{"duration":0.1818179999999927,"midi":52,"time":171.454374,"velocity":0.2755905511811024},{"duration":0.1818179999999927,"midi":52,"time":171.454374,"velocity":0.2755905511811024},{"duration":0.1818179999999927,"midi":52,"time":171.454374,"velocity":0.2755905511811024},{"duration":0.18181800000002113,"midi":29,"time":171.636192,"velocity":0.2755905511811024},{"duration":0.18181800000002113,"midi":41,"time":171.636192,"velocity":0.2755905511811024},{"duration":0.18181800000002113,"midi":29,"time":171.636192,"velocity":0.2755905511811024},{"duration":0.18181800000002113,"midi":41,"time":171.636192,"velocity":0.2755905511811024},{"duration":0.18181800000002113,"midi":41,"time":171.636192,"velocity":0.2755905511811024},{"duration":0.18181800000002113,"midi":29,"time":171.636192,"velocity":0.2755905511811024},{"duration":0.18181800000002113,"midi":29,"time":171.636192,"velocity":0.2755905511811024},{"duration":0.18181800000002113,"midi":29,"time":171.636192,"velocity":0.2755905511811024},{"duration":0.18181800000002113,"midi":41,"time":171.636192,"velocity":0.2755905511811024},{"duration":0.18181800000002113,"midi":41,"time":171.636192,"velocity":0.2755905511811024},{"duration":0.18181800000002113,"midi":29,"time":171.636192,"velocity":0.2755905511811024},{"duration":0.18181800000002113,"midi":41,"time":171.636192,"velocity":0.2755905511811024},{"duration":0.1818179999999927,"midi":53,"time":171.81801000000002,"velocity":0.2755905511811024},{"duration":0.1818179999999927,"midi":53,"time":171.81801000000002,"velocity":0.2755905511811024},{"duration":0.1818179999999927,"midi":41,"time":171.81801000000002,"velocity":0.2755905511811024},{"duration":0.1818179999999927,"midi":41,"time":171.81801000000002,"velocity":0.2755905511811024},{"duration":0.1818179999999927,"midi":41,"time":171.81801000000002,"velocity":0.2755905511811024},{"duration":0.1818179999999927,"midi":53,"time":171.81801000000002,"velocity":0.2755905511811024},{"duration":0.1818179999999927,"midi":41,"time":171.81801000000002,"velocity":0.2755905511811024},{"duration":0.1818179999999927,"midi":53,"time":171.81801000000002,"velocity":0.2755905511811024},{"duration":0.1818179999999927,"midi":53,"time":171.81801000000002,"velocity":0.2755905511811024},{"duration":0.1818179999999927,"midi":53,"time":171.81801000000002,"velocity":0.2755905511811024},{"duration":0.1818179999999927,"midi":41,"time":171.81801000000002,"velocity":0.2755905511811024},{"duration":0.1818179999999927,"midi":41,"time":171.81801000000002,"velocity":0.2755905511811024},{"duration":0.1818179999999927,"midi":41,"time":171.999828,"velocity":0.2755905511811024},{"duration":0.1818179999999927,"midi":29,"time":171.999828,"velocity":0.2755905511811024},{"duration":0.1818179999999927,"midi":29,"time":171.999828,"velocity":0.2755905511811024},{"duration":0.1818179999999927,"midi":41,"time":171.999828,"velocity":0.2755905511811024},{"duration":0.1818179999999927,"midi":41,"time":171.999828,"velocity":0.2755905511811024},{"duration":0.1818179999999927,"midi":29,"time":171.999828,"velocity":0.2755905511811024},{"duration":0.1818179999999927,"midi":29,"time":171.999828,"velocity":0.2755905511811024},{"duration":0.1818179999999927,"midi":29,"time":171.999828,"velocity":0.2755905511811024},{"duration":0.1818179999999927,"midi":29,"time":171.999828,"velocity":0.2755905511811024},{"duration":0.1818179999999927,"midi":41,"time":171.999828,"velocity":0.2755905511811024},{"duration":0.1818179999999927,"midi":41,"time":171.999828,"velocity":0.2755905511811024},{"duration":0.1818179999999927,"midi":41,"time":171.999828,"velocity":0.2755905511811024},{"duration":0.1818179999999927,"midi":53,"time":172.181646,"velocity":0.2755905511811024},{"duration":0.1818179999999927,"midi":41,"time":172.181646,"velocity":0.2755905511811024},{"duration":0.1818179999999927,"midi":41,"time":172.181646,"velocity":0.2755905511811024},{"duration":0.1818179999999927,"midi":41,"time":172.181646,"velocity":0.2755905511811024},{"duration":0.1818179999999927,"midi":53,"time":172.181646,"velocity":0.2755905511811024},{"duration":0.1818179999999927,"midi":41,"time":172.181646,"velocity":0.2755905511811024},{"duration":0.1818179999999927,"midi":53,"time":172.181646,"velocity":0.2755905511811024},{"duration":0.1818179999999927,"midi":53,"time":172.181646,"velocity":0.2755905511811024},{"duration":0.1818179999999927,"midi":53,"time":172.181646,"velocity":0.2755905511811024},{"duration":0.1818179999999927,"midi":53,"time":172.181646,"velocity":0.2755905511811024},{"duration":0.1818179999999927,"midi":41,"time":172.181646,"velocity":0.2755905511811024},{"duration":0.1818179999999927,"midi":41,"time":172.181646,"velocity":0.2755905511811024},{"duration":0.18181800000002113,"midi":41,"time":172.363464,"velocity":0.2755905511811024},{"duration":0.18181800000002113,"midi":29,"time":172.363464,"velocity":0.2755905511811024},{"duration":0.18181800000002113,"midi":29,"time":172.363464,"velocity":0.2755905511811024},{"duration":0.18181800000002113,"midi":29,"time":172.363464,"velocity":0.2755905511811024},{"duration":0.18181800000002113,"midi":41,"time":172.363464,"velocity":0.2755905511811024},{"duration":0.18181800000002113,"midi":29,"time":172.363464,"velocity":0.2755905511811024},{"duration":0.18181800000002113,"midi":29,"time":172.363464,"velocity":0.2755905511811024},{"duration":0.18181800000002113,"midi":29,"time":172.363464,"velocity":0.2755905511811024},{"duration":0.18181800000002113,"midi":41,"time":172.363464,"velocity":0.2755905511811024},{"duration":0.18181800000002113,"midi":41,"time":172.363464,"velocity":0.2755905511811024},{"duration":0.18181800000002113,"midi":41,"time":172.363464,"velocity":0.2755905511811024},{"duration":0.18181800000002113,"midi":41,"time":172.363464,"velocity":0.2755905511811024},{"duration":0.1818179999999927,"midi":53,"time":172.54528200000001,"velocity":0.2755905511811024},{"duration":0.1818179999999927,"midi":53,"time":172.54528200000001,"velocity":0.2755905511811024},{"duration":0.1818179999999927,"midi":41,"time":172.54528200000001,"velocity":0.2755905511811024},{"duration":0.1818179999999927,"midi":41,"time":172.54528200000001,"velocity":0.2755905511811024},{"duration":0.1818179999999927,"midi":53,"time":172.54528200000001,"velocity":0.2755905511811024},{"duration":0.1818179999999927,"midi":41,"time":172.54528200000001,"velocity":0.2755905511811024},{"duration":0.1818179999999927,"midi":53,"time":172.54528200000001,"velocity":0.2755905511811024},{"duration":0.1818179999999927,"midi":53,"time":172.54528200000001,"velocity":0.2755905511811024},{"duration":0.1818179999999927,"midi":41,"time":172.54528200000001,"velocity":0.2755905511811024},{"duration":0.1818179999999927,"midi":41,"time":172.54528200000001,"velocity":0.2755905511811024},{"duration":0.1818179999999927,"midi":41,"time":172.54528200000001,"velocity":0.2755905511811024},{"duration":0.1818179999999927,"midi":53,"time":172.54528200000001,"velocity":0.2755905511811024},{"duration":0.1818179999999927,"midi":29,"time":172.7271,"velocity":0.2755905511811024},{"duration":0.1818179999999927,"midi":29,"time":172.7271,"velocity":0.2755905511811024},{"duration":0.1818179999999927,"midi":29,"time":172.7271,"velocity":0.2755905511811024},{"duration":0.1818179999999927,"midi":41,"time":172.7271,"velocity":0.2755905511811024},{"duration":0.1818179999999927,"midi":41,"time":172.7271,"velocity":0.2755905511811024},{"duration":0.1818179999999927,"midi":41,"time":172.7271,"velocity":0.2755905511811024},{"duration":0.1818179999999927,"midi":41,"time":172.7271,"velocity":0.2755905511811024},{"duration":0.1818179999999927,"midi":41,"time":172.7271,"velocity":0.2755905511811024},{"duration":0.1818179999999927,"midi":29,"time":172.7271,"velocity":0.2755905511811024},{"duration":0.1818179999999927,"midi":29,"time":172.7271,"velocity":0.2755905511811024},{"duration":0.1818179999999927,"midi":41,"time":172.7271,"velocity":0.2755905511811024},{"duration":0.1818179999999927,"midi":29,"time":172.7271,"velocity":0.2755905511811024},{"duration":0.18181800000002113,"midi":53,"time":172.908918,"velocity":0.2755905511811024},{"duration":0.18181800000002113,"midi":53,"time":172.908918,"velocity":0.2755905511811024},{"duration":0.18181800000002113,"midi":41,"time":172.908918,"velocity":0.2755905511811024},{"duration":0.18181800000002113,"midi":53,"time":172.908918,"velocity":0.2755905511811024},{"duration":0.18181800000002113,"midi":41,"time":172.908918,"velocity":0.2755905511811024},{"duration":0.18181800000002113,"midi":53,"time":172.908918,"velocity":0.2755905511811024},{"duration":0.18181800000002113,"midi":41,"time":172.908918,"velocity":0.2755905511811024},{"duration":0.18181800000002113,"midi":53,"time":172.908918,"velocity":0.2755905511811024},{"duration":0.18181800000002113,"midi":41,"time":172.908918,"velocity":0.2755905511811024},{"duration":0.18181800000002113,"midi":53,"time":172.908918,"velocity":0.2755905511811024},{"duration":0.18181800000002113,"midi":41,"time":172.908918,"velocity":0.2755905511811024},{"duration":0.18181800000002113,"midi":41,"time":172.908918,"velocity":0.2755905511811024},{"duration":0.1818179999999927,"midi":31,"time":173.09073600000002,"velocity":0.2755905511811024},{"duration":0.1818179999999927,"midi":31,"time":173.09073600000002,"velocity":0.2755905511811024},{"duration":0.1818179999999927,"midi":43,"time":173.09073600000002,"velocity":0.2755905511811024},{"duration":0.1818179999999927,"midi":31,"time":173.09073600000002,"velocity":0.2755905511811024},{"duration":0.1818179999999927,"midi":43,"time":173.09073600000002,"velocity":0.2755905511811024},{"duration":0.1818179999999927,"midi":31,"time":173.09073600000002,"velocity":0.2755905511811024},{"duration":0.1818179999999927,"midi":31,"time":173.09073600000002,"velocity":0.2755905511811024},{"duration":0.1818179999999927,"midi":43,"time":173.09073600000002,"velocity":0.2755905511811024},{"duration":0.1818179999999927,"midi":31,"time":173.09073600000002,"velocity":0.2755905511811024},{"duration":0.1818179999999927,"midi":43,"time":173.09073600000002,"velocity":0.2755905511811024},{"duration":0.1818179999999927,"midi":43,"time":173.09073600000002,"velocity":0.2755905511811024},{"duration":0.1818179999999927,"midi":43,"time":173.09073600000002,"velocity":0.2755905511811024},{"duration":0.1818179999999927,"midi":43,"time":173.272554,"velocity":0.2755905511811024},{"duration":0.1818179999999927,"midi":43,"time":173.272554,"velocity":0.2755905511811024},{"duration":0.1818179999999927,"midi":43,"time":173.272554,"velocity":0.2755905511811024},{"duration":0.1818179999999927,"midi":55,"time":173.272554,"velocity":0.2755905511811024},{"duration":0.1818179999999927,"midi":43,"time":173.272554,"velocity":0.2755905511811024},{"duration":0.1818179999999927,"midi":55,"time":173.272554,"velocity":0.2755905511811024},{"duration":0.1818179999999927,"midi":43,"time":173.272554,"velocity":0.2755905511811024},{"duration":0.1818179999999927,"midi":43,"time":173.272554,"velocity":0.2755905511811024},{"duration":0.1818179999999927,"midi":55,"time":173.272554,"velocity":0.2755905511811024},{"duration":0.1818179999999927,"midi":55,"time":173.272554,"velocity":0.2755905511811024},{"duration":0.1818179999999927,"midi":55,"time":173.272554,"velocity":0.2755905511811024},{"duration":0.1818179999999927,"midi":55,"time":173.272554,"velocity":0.2755905511811024},{"duration":0.1818179999999927,"midi":43,"time":173.454372,"velocity":0.2755905511811024},{"duration":0.1818179999999927,"midi":31,"time":173.454372,"velocity":0.2755905511811024},{"duration":0.1818179999999927,"midi":31,"time":173.454372,"velocity":0.2755905511811024},{"duration":0.1818179999999927,"midi":43,"time":173.454372,"velocity":0.2755905511811024},{"duration":0.1818179999999927,"midi":43,"time":173.454372,"velocity":0.2755905511811024},{"duration":0.1818179999999927,"midi":31,"time":173.454372,"velocity":0.2755905511811024},{"duration":0.1818179999999927,"midi":43,"time":173.454372,"velocity":0.2755905511811024},{"duration":0.1818179999999927,"midi":31,"time":173.454372,"velocity":0.2755905511811024},{"duration":0.1818179999999927,"midi":31,"time":173.454372,"velocity":0.2755905511811024},{"duration":0.1818179999999927,"midi":31,"time":173.454372,"velocity":0.2755905511811024},{"duration":0.1818179999999927,"midi":43,"time":173.454372,"velocity":0.2755905511811024},{"duration":0.1818179999999927,"midi":43,"time":173.454372,"velocity":0.2755905511811024},{"duration":0.18181800000002113,"midi":43,"time":173.63619,"velocity":0.2755905511811024},{"duration":0.18181800000002113,"midi":55,"time":173.63619,"velocity":0.2755905511811024},{"duration":0.18181800000002113,"midi":43,"time":173.63619,"velocity":0.2755905511811024},{"duration":0.18181800000002113,"midi":43,"time":173.63619,"velocity":0.2755905511811024},{"duration":0.18181800000002113,"midi":55,"time":173.63619,"velocity":0.2755905511811024},{"duration":0.18181800000002113,"midi":55,"time":173.63619,"velocity":0.2755905511811024},{"duration":0.18181800000002113,"midi":43,"time":173.63619,"velocity":0.2755905511811024},{"duration":0.18181800000002113,"midi":43,"time":173.63619,"velocity":0.2755905511811024},{"duration":0.18181800000002113,"midi":55,"time":173.63619,"velocity":0.2755905511811024},{"duration":0.18181800000002113,"midi":55,"time":173.63619,"velocity":0.2755905511811024},{"duration":0.18181800000002113,"midi":55,"time":173.63619,"velocity":0.2755905511811024},{"duration":0.18181800000002113,"midi":43,"time":173.63619,"velocity":0.2755905511811024},{"duration":0.1818179999999927,"midi":43,"time":173.81800800000002,"velocity":0.2755905511811024},{"duration":0.1818179999999927,"midi":31,"time":173.81800800000002,"velocity":0.2755905511811024},{"duration":0.1818179999999927,"midi":31,"time":173.81800800000002,"velocity":0.2755905511811024},{"duration":0.1818179999999927,"midi":43,"time":173.81800800000002,"velocity":0.2755905511811024},{"duration":0.1818179999999927,"midi":43,"time":173.81800800000002,"velocity":0.2755905511811024},{"duration":0.1818179999999927,"midi":31,"time":173.81800800000002,"velocity":0.2755905511811024},{"duration":0.1818179999999927,"midi":31,"time":173.81800800000002,"velocity":0.2755905511811024},{"duration":0.1818179999999927,"midi":31,"time":173.81800800000002,"velocity":0.2755905511811024},{"duration":0.1818179999999927,"midi":31,"time":173.81800800000002,"velocity":0.2755905511811024},{"duration":0.1818179999999927,"midi":43,"time":173.81800800000002,"velocity":0.2755905511811024},{"duration":0.1818179999999927,"midi":43,"time":173.81800800000002,"velocity":0.2755905511811024},{"duration":0.1818179999999927,"midi":43,"time":173.81800800000002,"velocity":0.2755905511811024},{"duration":0.1818179999999927,"midi":55,"time":173.999826,"velocity":0.2755905511811024},{"duration":0.1818179999999927,"midi":55,"time":173.999826,"velocity":0.2755905511811024},{"duration":0.1818179999999927,"midi":43,"time":173.999826,"velocity":0.2755905511811024},{"duration":0.1818179999999927,"midi":43,"time":173.999826,"velocity":0.2755905511811024},{"duration":0.1818179999999927,"midi":43,"time":173.999826,"velocity":0.2755905511811024},{"duration":0.1818179999999927,"midi":55,"time":173.999826,"velocity":0.2755905511811024},{"duration":0.1818179999999927,"midi":43,"time":173.999826,"velocity":0.2755905511811024},{"duration":0.1818179999999927,"midi":43,"time":173.999826,"velocity":0.2755905511811024},{"duration":0.1818179999999927,"midi":55,"time":173.999826,"velocity":0.2755905511811024},{"duration":0.1818179999999927,"midi":43,"time":173.999826,"velocity":0.2755905511811024},{"duration":0.1818179999999927,"midi":55,"time":173.999826,"velocity":0.2755905511811024},{"duration":0.1818179999999927,"midi":55,"time":173.999826,"velocity":0.2755905511811024},{"duration":0.1818179999999927,"midi":43,"time":174.181644,"velocity":0.2755905511811024},{"duration":0.1818179999999927,"midi":43,"time":174.181644,"velocity":0.2755905511811024},{"duration":0.1818179999999927,"midi":31,"time":174.181644,"velocity":0.2755905511811024},{"duration":0.1818179999999927,"midi":31,"time":174.181644,"velocity":0.2755905511811024},{"duration":0.1818179999999927,"midi":31,"time":174.181644,"velocity":0.2755905511811024},{"duration":0.1818179999999927,"midi":43,"time":174.181644,"velocity":0.2755905511811024},{"duration":0.1818179999999927,"midi":31,"time":174.181644,"velocity":0.2755905511811024},{"duration":0.1818179999999927,"midi":31,"time":174.181644,"velocity":0.2755905511811024},{"duration":0.1818179999999927,"midi":43,"time":174.181644,"velocity":0.2755905511811024},{"duration":0.1818179999999927,"midi":31,"time":174.181644,"velocity":0.2755905511811024},{"duration":0.1818179999999927,"midi":43,"time":174.181644,"velocity":0.2755905511811024},{"duration":0.1818179999999927,"midi":43,"time":174.181644,"velocity":0.2755905511811024},{"duration":0.18181800000002113,"midi":55,"time":174.363462,"velocity":0.2755905511811024},{"duration":0.18181800000002113,"midi":43,"time":174.363462,"velocity":0.2755905511811024},{"duration":0.18181800000002113,"midi":43,"time":174.363462,"velocity":0.2755905511811024},{"duration":0.18181800000002113,"midi":55,"time":174.363462,"velocity":0.2755905511811024},{"duration":0.18181800000002113,"midi":55,"time":174.363462,"velocity":0.2755905511811024},{"duration":0.18181800000002113,"midi":43,"time":174.363462,"velocity":0.2755905511811024},{"duration":0.18181800000002113,"midi":55,"time":174.363462,"velocity":0.2755905511811024},{"duration":0.18181800000002113,"midi":43,"time":174.363462,"velocity":0.2755905511811024},{"duration":0.18181800000002113,"midi":55,"time":174.363462,"velocity":0.2755905511811024},{"duration":0.18181800000002113,"midi":43,"time":174.363462,"velocity":0.2755905511811024},{"duration":0.18181800000002113,"midi":55,"time":174.363462,"velocity":0.2755905511811024},{"duration":0.18181800000002113,"midi":43,"time":174.363462,"velocity":0.2755905511811024},{"duration":0.18181800000002113,"midi":31,"time":197.817984,"velocity":0.2755905511811024},{"duration":0.18181800000002113,"midi":31,"time":197.817984,"velocity":0.2755905511811024},{"duration":0.18181800000002113,"midi":43,"time":197.817984,"velocity":0.2755905511811024},{"duration":0.18181800000002113,"midi":43,"time":197.817984,"velocity":0.2755905511811024},{"duration":0.18181800000002113,"midi":43,"time":197.817984,"velocity":0.2755905511811024},{"duration":0.18181800000002113,"midi":31,"time":197.817984,"velocity":0.2755905511811024},{"duration":0.1818179999999927,"midi":55,"time":197.99980200000002,"velocity":0.2755905511811024},{"duration":0.1818179999999927,"midi":43,"time":197.99980200000002,"velocity":0.2755905511811024},{"duration":0.1818179999999927,"midi":43,"time":197.99980200000002,"velocity":0.2755905511811024},{"duration":0.1818179999999927,"midi":55,"time":197.99980200000002,"velocity":0.2755905511811024},{"duration":0.1818179999999927,"midi":55,"time":197.99980200000002,"velocity":0.2755905511811024},{"duration":0.1818179999999927,"midi":43,"time":197.99980200000002,"velocity":0.2755905511811024},{"duration":0.1818179999999927,"midi":31,"time":198.18162,"velocity":0.2755905511811024},{"duration":0.1818179999999927,"midi":43,"time":198.18162,"velocity":0.2755905511811024},{"duration":0.1818179999999927,"midi":31,"time":198.18162,"velocity":0.2755905511811024},{"duration":0.1818179999999927,"midi":43,"time":198.18162,"velocity":0.2755905511811024},{"duration":0.1818179999999927,"midi":31,"time":198.18162,"velocity":0.2755905511811024},{"duration":0.1818179999999927,"midi":43,"time":198.18162,"velocity":0.2755905511811024},{"duration":0.1818179999999927,"midi":43,"time":198.363438,"velocity":0.2755905511811024},{"duration":0.1818179999999927,"midi":55,"time":198.363438,"velocity":0.2755905511811024},{"duration":0.1818179999999927,"midi":55,"time":198.363438,"velocity":0.2755905511811024},{"duration":0.1818179999999927,"midi":43,"time":198.363438,"velocity":0.2755905511811024},{"duration":0.1818179999999927,"midi":55,"time":198.363438,"velocity":0.2755905511811024},{"duration":0.1818179999999927,"midi":43,"time":198.363438,"velocity":0.2755905511811024},{"duration":0.18181800000002113,"midi":31,"time":198.545256,"velocity":0.2755905511811024},{"duration":0.18181800000002113,"midi":43,"time":198.545256,"velocity":0.2755905511811024},{"duration":0.18181800000002113,"midi":43,"time":198.545256,"velocity":0.2755905511811024},{"duration":0.18181800000002113,"midi":43,"time":198.545256,"velocity":0.2755905511811024},{"duration":0.18181800000002113,"midi":31,"time":198.545256,"velocity":0.2755905511811024},{"duration":0.18181800000002113,"midi":31,"time":198.545256,"velocity":0.2755905511811024},{"duration":0.1818179999999927,"midi":43,"time":198.72707400000002,"velocity":0.2755905511811024},{"duration":0.1818179999999927,"midi":55,"time":198.72707400000002,"velocity":0.2755905511811024},{"duration":0.1818179999999927,"midi":43,"time":198.72707400000002,"velocity":0.2755905511811024},{"duration":0.1818179999999927,"midi":55,"time":198.72707400000002,"velocity":0.2755905511811024},{"duration":0.1818179999999927,"midi":55,"time":198.72707400000002,"velocity":0.2755905511811024},{"duration":0.1818179999999927,"midi":43,"time":198.72707400000002,"velocity":0.2755905511811024},{"duration":0.1818179999999927,"midi":43,"time":198.908892,"velocity":0.2755905511811024},{"duration":0.1818179999999927,"midi":31,"time":198.908892,"velocity":0.2755905511811024},{"duration":0.1818179999999927,"midi":31,"time":198.908892,"velocity":0.2755905511811024},{"duration":0.1818179999999927,"midi":43,"time":198.908892,"velocity":0.2755905511811024},{"duration":0.1818179999999927,"midi":31,"time":198.908892,"velocity":0.2755905511811024},{"duration":0.1818179999999927,"midi":43,"time":198.908892,"velocity":0.2755905511811024},{"duration":0.1818179999999927,"midi":43,"time":199.09071,"velocity":0.2755905511811024},{"duration":0.1818179999999927,"midi":43,"time":199.09071,"velocity":0.2755905511811024},{"duration":0.1818179999999927,"midi":43,"time":199.09071,"velocity":0.2755905511811024},{"duration":0.1818179999999927,"midi":55,"time":199.09071,"velocity":0.2755905511811024},{"duration":0.1818179999999927,"midi":55,"time":199.09071,"velocity":0.2755905511811024},{"duration":0.1818179999999927,"midi":55,"time":199.09071,"velocity":0.2755905511811024},{"duration":0.18181800000002113,"midi":40,"time":199.272528,"velocity":0.2755905511811024},{"duration":0.18181800000002113,"midi":40,"time":199.272528,"velocity":0.2755905511811024},{"duration":0.18181800000002113,"midi":28,"time":199.272528,"velocity":0.2755905511811024},{"duration":0.18181800000002113,"midi":40,"time":199.272528,"velocity":0.2755905511811024},{"duration":0.18181800000002113,"midi":28,"time":199.272528,"velocity":0.2755905511811024},{"duration":0.18181800000002113,"midi":28,"time":199.272528,"velocity":0.2755905511811024},{"duration":0.1818179999999927,"midi":52,"time":199.45434600000002,"velocity":0.2755905511811024},{"duration":0.1818179999999927,"midi":52,"time":199.45434600000002,"velocity":0.2755905511811024},{"duration":0.1818179999999927,"midi":52,"time":199.45434600000002,"velocity":0.2755905511811024},{"duration":0.1818179999999927,"midi":40,"time":199.45434600000002,"velocity":0.2755905511811024},{"duration":0.1818179999999927,"midi":40,"time":199.45434600000002,"velocity":0.2755905511811024},{"duration":0.1818179999999927,"midi":40,"time":199.45434600000002,"velocity":0.2755905511811024},{"duration":0.1818179999999927,"midi":28,"time":199.636164,"velocity":0.2755905511811024},{"duration":0.1818179999999927,"midi":28,"time":199.636164,"velocity":0.2755905511811024},{"duration":0.1818179999999927,"midi":40,"time":199.636164,"velocity":0.2755905511811024},{"duration":0.1818179999999927,"midi":40,"time":199.636164,"velocity":0.2755905511811024},{"duration":0.1818179999999927,"midi":28,"time":199.636164,"velocity":0.2755905511811024},{"duration":0.1818179999999927,"midi":40,"time":199.636164,"velocity":0.2755905511811024},{"duration":0.18181800000002113,"midi":40,"time":199.817982,"velocity":0.2755905511811024},{"duration":0.18181800000002113,"midi":40,"time":199.817982,"velocity":0.2755905511811024},{"duration":0.18181800000002113,"midi":52,"time":199.817982,"velocity":0.2755905511811024},{"duration":0.18181800000002113,"midi":40,"time":199.817982,"velocity":0.2755905511811024},{"duration":0.18181800000002113,"midi":52,"time":199.817982,"velocity":0.2755905511811024},{"duration":0.18181800000002113,"midi":52,"time":199.817982,"velocity":0.2755905511811024},{"duration":0.1818179999999927,"midi":28,"time":199.99980000000002,"velocity":0.2755905511811024},{"duration":0.1818179999999927,"midi":40,"time":199.99980000000002,"velocity":0.2755905511811024},{"duration":0.1818179999999927,"midi":28,"time":199.99980000000002,"velocity":0.2755905511811024},{"duration":0.1818179999999927,"midi":28,"time":199.99980000000002,"velocity":0.2755905511811024},{"duration":0.1818179999999927,"midi":40,"time":199.99980000000002,"velocity":0.2755905511811024},{"duration":0.1818179999999927,"midi":40,"time":199.99980000000002,"velocity":0.2755905511811024},{"duration":0.1818179999999927,"midi":40,"time":200.18161800000001,"velocity":0.2755905511811024},{"duration":0.1818179999999927,"midi":40,"time":200.18161800000001,"velocity":0.2755905511811024},{"duration":0.1818179999999927,"midi":40,"time":200.18161800000001,"velocity":0.2755905511811024},{"duration":0.1818179999999927,"midi":52,"time":200.18161800000001,"velocity":0.2755905511811024},{"duration":0.1818179999999927,"midi":52,"time":200.18161800000001,"velocity":0.2755905511811024},{"duration":0.1818179999999927,"midi":52,"time":200.18161800000001,"velocity":0.2755905511811024},{"duration":0.1818179999999927,"midi":40,"time":200.363436,"velocity":0.2755905511811024},{"duration":0.1818179999999927,"midi":40,"time":200.363436,"velocity":0.2755905511811024},{"duration":0.1818179999999927,"midi":28,"time":200.363436,"velocity":0.2755905511811024},{"duration":0.1818179999999927,"midi":28,"time":200.363436,"velocity":0.2755905511811024},{"duration":0.1818179999999927,"midi":40,"time":200.363436,"velocity":0.2755905511811024},{"duration":0.1818179999999927,"midi":28,"time":200.363436,"velocity":0.2755905511811024},{"duration":0.18181800000002113,"midi":52,"time":200.545254,"velocity":0.2755905511811024},{"duration":0.18181800000002113,"midi":52,"time":200.545254,"velocity":0.2755905511811024},{"duration":0.18181800000002113,"midi":40,"time":200.545254,"velocity":0.2755905511811024},{"duration":0.18181800000002113,"midi":52,"time":200.545254,"velocity":0.2755905511811024},{"duration":0.18181800000002113,"midi":40,"time":200.545254,"velocity":0.2755905511811024},{"duration":0.18181800000002113,"midi":40,"time":200.545254,"velocity":0.2755905511811024},{"duration":0.1818179999999927,"midi":29,"time":200.72707200000002,"velocity":0.2755905511811024},{"duration":0.1818179999999927,"midi":41,"time":200.72707200000002,"velocity":0.2755905511811024},{"duration":0.1818179999999927,"midi":29,"time":200.72707200000002,"velocity":0.2755905511811024},{"duration":0.1818179999999927,"midi":41,"time":200.72707200000002,"velocity":0.2755905511811024},{"duration":0.1818179999999927,"midi":29,"time":200.72707200000002,"velocity":0.2755905511811024},{"duration":0.1818179999999927,"midi":41,"time":200.72707200000002,"velocity":0.2755905511811024},{"duration":0.1818179999999927,"midi":53,"time":200.90889,"velocity":0.2755905511811024},{"duration":0.1818179999999927,"midi":41,"time":200.90889,"velocity":0.2755905511811024},{"duration":0.1818179999999927,"midi":53,"time":200.90889,"velocity":0.2755905511811024},{"duration":0.1818179999999927,"midi":53,"time":200.90889,"velocity":0.2755905511811024},{"duration":0.1818179999999927,"midi":41,"time":200.90889,"velocity":0.2755905511811024},{"duration":0.1818179999999927,"midi":41,"time":200.90889,"velocity":0.2755905511811024},{"duration":0.1818179999999927,"midi":41,"time":201.090708,"velocity":0.2755905511811024},{"duration":0.1818179999999927,"midi":41,"time":201.090708,"velocity":0.2755905511811024},{"duration":0.1818179999999927,"midi":29,"time":201.090708,"velocity":0.2755905511811024},{"duration":0.1818179999999927,"midi":41,"time":201.090708,"velocity":0.2755905511811024},{"duration":0.1818179999999927,"midi":29,"time":201.090708,"velocity":0.2755905511811024},{"duration":0.1818179999999927,"midi":29,"time":201.090708,"velocity":0.2755905511811024},{"duration":0.18181800000002113,"midi":41,"time":201.272526,"velocity":0.2755905511811024},{"duration":0.18181800000002113,"midi":53,"time":201.272526,"velocity":0.2755905511811024},{"duration":0.18181800000002113,"midi":41,"time":201.272526,"velocity":0.2755905511811024},{"duration":0.18181800000002113,"midi":41,"time":201.272526,"velocity":0.2755905511811024},{"duration":0.18181800000002113,"midi":53,"time":201.272526,"velocity":0.2755905511811024},{"duration":0.18181800000002113,"midi":53,"time":201.272526,"velocity":0.2755905511811024},{"duration":0.1818179999999927,"midi":29,"time":201.45434400000002,"velocity":0.2755905511811024},{"duration":0.1818179999999927,"midi":41,"time":201.45434400000002,"velocity":0.2755905511811024},{"duration":0.1818179999999927,"midi":41,"time":201.45434400000002,"velocity":0.2755905511811024},{"duration":0.1818179999999927,"midi":29,"time":201.45434400000002,"velocity":0.2755905511811024},{"duration":0.1818179999999927,"midi":29,"time":201.45434400000002,"velocity":0.2755905511811024},{"duration":0.1818179999999927,"midi":41,"time":201.45434400000002,"velocity":0.2755905511811024},{"duration":0.1818179999999927,"midi":41,"time":201.636162,"velocity":0.2755905511811024},{"duration":0.1818179999999927,"midi":53,"time":201.636162,"velocity":0.2755905511811024},{"duration":0.1818179999999927,"midi":53,"time":201.636162,"velocity":0.2755905511811024},{"duration":0.1818179999999927,"midi":41,"time":201.636162,"velocity":0.2755905511811024},{"duration":0.1818179999999927,"midi":53,"time":201.636162,"velocity":0.2755905511811024},{"duration":0.1818179999999927,"midi":41,"time":201.636162,"velocity":0.2755905511811024},{"duration":0.1818179999999927,"midi":41,"time":201.81798,"velocity":0.2755905511811024},{"duration":0.1818179999999927,"midi":29,"time":201.81798,"velocity":0.2755905511811024},{"duration":0.1818179999999927,"midi":41,"time":201.81798,"velocity":0.2755905511811024},{"duration":0.1818179999999927,"midi":41,"time":201.81798,"velocity":0.2755905511811024},{"duration":0.1818179999999927,"midi":29,"time":201.81798,"velocity":0.2755905511811024},{"duration":0.1818179999999927,"midi":29,"time":201.81798,"velocity":0.2755905511811024},{"duration":0.18181800000002113,"midi":41,"time":201.999798,"velocity":0.2755905511811024},{"duration":0.18181800000002113,"midi":41,"time":201.999798,"velocity":0.2755905511811024},{"duration":0.18181800000002113,"midi":53,"time":201.999798,"velocity":0.2755905511811024},{"duration":0.18181800000002113,"midi":53,"time":201.999798,"velocity":0.2755905511811024},{"duration":0.18181800000002113,"midi":53,"time":201.999798,"velocity":0.2755905511811024},{"duration":0.18181800000002113,"midi":41,"time":201.999798,"velocity":0.2755905511811024},{"duration":0.1818179999999927,"midi":43,"time":202.18161600000002,"velocity":0.2755905511811024},{"duration":0.1818179999999927,"midi":31,"time":202.18161600000002,"velocity":0.2755905511811024},{"duration":0.1818179999999927,"midi":43,"time":202.18161600000002,"velocity":0.2755905511811024},{"duration":0.1818179999999927,"midi":43,"time":202.18161600000002,"velocity":0.2755905511811024},{"duration":0.1818179999999927,"midi":31,"time":202.18161600000002,"velocity":0.2755905511811024},{"duration":0.1818179999999927,"midi":31,"time":202.18161600000002,"velocity":0.2755905511811024},{"duration":0.1818179999999927,"midi":43,"time":202.363434,"velocity":0.2755905511811024},{"duration":0.1818179999999927,"midi":55,"time":202.363434,"velocity":0.2755905511811024},{"duration":0.1818179999999927,"midi":55,"time":202.363434,"velocity":0.2755905511811024},{"duration":0.1818179999999927,"midi":43,"time":202.363434,"velocity":0.2755905511811024},{"duration":0.1818179999999927,"midi":43,"time":202.363434,"velocity":0.2755905511811024},{"duration":0.1818179999999927,"midi":55,"time":202.363434,"velocity":0.2755905511811024},{"duration":0.1818179999999927,"midi":43,"time":202.545252,"velocity":0.2755905511811024},{"duration":0.1818179999999927,"midi":31,"time":202.545252,"velocity":0.2755905511811024},{"duration":0.1818179999999927,"midi":43,"time":202.545252,"velocity":0.2755905511811024},{"duration":0.1818179999999927,"midi":31,"time":202.545252,"velocity":0.2755905511811024},{"duration":0.1818179999999927,"midi":31,"time":202.545252,"velocity":0.2755905511811024},{"duration":0.1818179999999927,"midi":43,"time":202.545252,"velocity":0.2755905511811024},{"duration":0.18181800000002113,"midi":55,"time":202.72707,"velocity":0.2755905511811024},{"duration":0.18181800000002113,"midi":55,"time":202.72707,"velocity":0.2755905511811024},{"duration":0.18181800000002113,"midi":55,"time":202.72707,"velocity":0.2755905511811024},{"duration":0.18181800000002113,"midi":43,"time":202.72707,"velocity":0.2755905511811024},{"duration":0.18181800000002113,"midi":43,"time":202.72707,"velocity":0.2755905511811024},{"duration":0.18181800000002113,"midi":43,"time":202.72707,"velocity":0.2755905511811024},{"duration":0.1818179999999927,"midi":31,"time":202.90888800000002,"velocity":0.2755905511811024},{"duration":0.1818179999999927,"midi":31,"time":202.90888800000002,"velocity":0.2755905511811024},{"duration":0.1818179999999927,"midi":31,"time":202.90888800000002,"velocity":0.2755905511811024},{"duration":0.1818179999999927,"midi":43,"time":202.90888800000002,"velocity":0.2755905511811024},{"duration":0.1818179999999927,"midi":43,"time":202.90888800000002,"velocity":0.2755905511811024},{"duration":0.1818179999999927,"midi":43,"time":202.90888800000002,"velocity":0.2755905511811024},{"duration":0.1818179999999927,"midi":43,"time":203.090706,"velocity":0.2755905511811024},{"duration":0.1818179999999927,"midi":43,"time":203.090706,"velocity":0.2755905511811024},{"duration":0.1818179999999927,"midi":43,"time":203.090706,"velocity":0.2755905511811024},{"duration":0.1818179999999927,"midi":55,"time":203.090706,"velocity":0.2755905511811024},{"duration":0.1818179999999927,"midi":55,"time":203.090706,"velocity":0.2755905511811024},{"duration":0.1818179999999927,"midi":55,"time":203.090706,"velocity":0.2755905511811024},{"duration":0.1818179999999927,"midi":31,"time":203.272524,"velocity":0.2755905511811024},{"duration":0.1818179999999927,"midi":43,"time":203.272524,"velocity":0.2755905511811024},{"duration":0.1818179999999927,"midi":31,"time":203.272524,"velocity":0.2755905511811024},{"duration":0.1818179999999927,"midi":43,"time":203.272524,"velocity":0.2755905511811024},{"duration":0.1818179999999927,"midi":43,"time":203.272524,"velocity":0.2755905511811024},{"duration":0.1818179999999927,"midi":31,"time":203.272524,"velocity":0.2755905511811024},{"duration":0.18181800000002113,"midi":43,"time":203.454342,"velocity":0.2755905511811024},{"duration":0.18181800000002113,"midi":55,"time":203.454342,"velocity":0.2755905511811024},{"duration":0.18181800000002113,"midi":43,"time":203.454342,"velocity":0.2755905511811024},{"duration":0.18181800000002113,"midi":55,"time":203.454342,"velocity":0.2755905511811024},{"duration":0.18181800000002113,"midi":55,"time":203.454342,"velocity":0.2755905511811024},{"duration":0.18181800000002113,"midi":43,"time":203.454342,"velocity":0.2755905511811024},{"duration":0.1818179999999927,"midi":43,"time":203.63616000000002,"velocity":0.2755905511811024},{"duration":0.1818179999999927,"midi":31,"time":203.63616000000002,"velocity":0.2755905511811024},{"duration":0.1818179999999927,"midi":31,"time":203.63616000000002,"velocity":0.2755905511811024},{"duration":0.1818179999999927,"midi":43,"time":203.63616000000002,"velocity":0.2755905511811024},{"duration":0.1818179999999927,"midi":31,"time":203.63616000000002,"velocity":0.2755905511811024},{"duration":0.1818179999999927,"midi":43,"time":203.63616000000002,"velocity":0.2755905511811024},{"duration":0.1818179999999927,"midi":55,"time":203.817978,"velocity":0.2755905511811024},{"duration":0.1818179999999927,"midi":43,"time":203.817978,"velocity":0.2755905511811024},{"duration":0.1818179999999927,"midi":43,"time":203.817978,"velocity":0.2755905511811024},{"duration":0.1818179999999927,"midi":55,"time":203.817978,"velocity":0.2755905511811024},{"duration":0.1818179999999927,"midi":55,"time":203.817978,"velocity":0.2755905511811024},{"duration":0.1818179999999927,"midi":43,"time":203.817978,"velocity":0.2755905511811024},{"duration":0.1818179999999927,"midi":31,"time":203.999796,"velocity":0.2755905511811024},{"duration":0.1818179999999927,"midi":31,"time":203.999796,"velocity":0.2755905511811024},{"duration":0.1818179999999927,"midi":43,"time":203.999796,"velocity":0.2755905511811024},{"duration":0.1818179999999927,"midi":31,"time":203.999796,"velocity":0.2755905511811024},{"duration":0.1818179999999927,"midi":43,"time":203.999796,"velocity":0.2755905511811024},{"duration":0.1818179999999927,"midi":43,"time":203.999796,"velocity":0.2755905511811024},{"duration":0.18181800000002113,"midi":55,"time":204.181614,"velocity":0.2755905511811024},{"duration":0.18181800000002113,"midi":43,"time":204.181614,"velocity":0.2755905511811024},{"duration":0.18181800000002113,"midi":55,"time":204.181614,"velocity":0.2755905511811024},{"duration":0.18181800000002113,"midi":43,"time":204.181614,"velocity":0.2755905511811024},{"duration":0.18181800000002113,"midi":55,"time":204.181614,"velocity":0.2755905511811024},{"duration":0.18181800000002113,"midi":43,"time":204.181614,"velocity":0.2755905511811024},{"duration":0.1818179999999927,"midi":43,"time":204.36343200000002,"velocity":0.2755905511811024},{"duration":0.1818179999999927,"midi":43,"time":204.36343200000002,"velocity":0.2755905511811024},{"duration":0.1818179999999927,"midi":31,"time":204.36343200000002,"velocity":0.2755905511811024},{"duration":0.1818179999999927,"midi":43,"time":204.36343200000002,"velocity":0.2755905511811024},{"duration":0.1818179999999927,"midi":31,"time":204.36343200000002,"velocity":0.2755905511811024},{"duration":0.1818179999999927,"midi":31,"time":204.36343200000002,"velocity":0.2755905511811024},{"duration":0.1818179999999927,"midi":55,"time":204.54525,"velocity":0.2755905511811024},{"duration":0.1818179999999927,"midi":43,"time":204.54525,"velocity":0.2755905511811024},{"duration":0.1818179999999927,"midi":55,"time":204.54525,"velocity":0.2755905511811024},{"duration":0.1818179999999927,"midi":43,"time":204.54525,"velocity":0.2755905511811024},{"duration":0.1818179999999927,"midi":43,"time":204.54525,"velocity":0.2755905511811024},{"duration":0.1818179999999927,"midi":55,"time":204.54525,"velocity":0.2755905511811024},{"duration":0.1818179999999927,"midi":31,"time":204.727068,"velocity":0.2755905511811024},{"duration":0.1818179999999927,"midi":31,"time":204.727068,"velocity":0.2755905511811024},{"duration":0.1818179999999927,"midi":43,"time":204.727068,"velocity":0.2755905511811024},{"duration":0.1818179999999927,"midi":43,"time":204.727068,"velocity":0.2755905511811024},{"duration":0.1818179999999927,"midi":43,"time":204.727068,"velocity":0.2755905511811024},{"duration":0.1818179999999927,"midi":31,"time":204.727068,"velocity":0.2755905511811024},{"duration":0.18181800000002113,"midi":55,"time":204.908886,"velocity":0.2755905511811024},{"duration":0.18181800000002113,"midi":43,"time":204.908886,"velocity":0.2755905511811024},{"duration":0.18181800000002113,"midi":55,"time":204.908886,"velocity":0.2755905511811024},{"duration":0.18181800000002113,"midi":43,"time":204.908886,"velocity":0.2755905511811024},{"duration":0.18181800000002113,"midi":43,"time":204.908886,"velocity":0.2755905511811024},{"duration":0.18181800000002113,"midi":55,"time":204.908886,"velocity":0.2755905511811024},{"duration":0.1818179999999927,"midi":40,"time":205.09070400000002,"velocity":0.2755905511811024},{"duration":0.1818179999999927,"midi":40,"time":205.09070400000002,"velocity":0.2755905511811024},{"duration":0.1818179999999927,"midi":40,"time":205.09070400000002,"velocity":0.2755905511811024},{"duration":0.1818179999999927,"midi":28,"time":205.09070400000002,"velocity":0.2755905511811024},{"duration":0.1818179999999927,"midi":28,"time":205.09070400000002,"velocity":0.2755905511811024},{"duration":0.1818179999999927,"midi":28,"time":205.09070400000002,"velocity":0.2755905511811024},{"duration":0.1818179999999927,"midi":40,"time":205.272522,"velocity":0.2755905511811024},{"duration":0.1818179999999927,"midi":40,"time":205.272522,"velocity":0.2755905511811024},{"duration":0.1818179999999927,"midi":52,"time":205.272522,"velocity":0.2755905511811024},{"duration":0.1818179999999927,"midi":52,"time":205.272522,"velocity":0.2755905511811024},{"duration":0.1818179999999927,"midi":52,"time":205.272522,"velocity":0.2755905511811024},{"duration":0.1818179999999927,"midi":40,"time":205.272522,"velocity":0.2755905511811024},{"duration":0.1818179999999927,"midi":28,"time":205.45434,"velocity":0.2755905511811024},{"duration":0.1818179999999927,"midi":40,"time":205.45434,"velocity":0.2755905511811024},{"duration":0.1818179999999927,"midi":40,"time":205.45434,"velocity":0.2755905511811024},{"duration":0.1818179999999927,"midi":28,"time":205.45434,"velocity":0.2755905511811024},{"duration":0.1818179999999927,"midi":28,"time":205.45434,"velocity":0.2755905511811024},{"duration":0.1818179999999927,"midi":40,"time":205.45434,"velocity":0.2755905511811024},{"duration":0.18181800000002113,"midi":52,"time":205.636158,"velocity":0.2755905511811024},{"duration":0.18181800000002113,"midi":40,"time":205.636158,"velocity":0.2755905511811024},{"duration":0.18181800000002113,"midi":40,"time":205.636158,"velocity":0.2755905511811024},{"duration":0.18181800000002113,"midi":52,"time":205.636158,"velocity":0.2755905511811024},{"duration":0.18181800000002113,"midi":52,"time":205.636158,"velocity":0.2755905511811024},{"duration":0.18181800000002113,"midi":40,"time":205.636158,"velocity":0.2755905511811024},{"duration":0.1818179999999927,"midi":40,"time":205.81797600000002,"velocity":0.2755905511811024},{"duration":0.1818179999999927,"midi":40,"time":205.81797600000002,"velocity":0.2755905511811024},{"duration":0.1818179999999927,"midi":28,"time":205.81797600000002,"velocity":0.2755905511811024},{"duration":0.1818179999999927,"midi":28,"time":205.81797600000002,"velocity":0.2755905511811024},{"duration":0.1818179999999927,"midi":28,"time":205.81797600000002,"velocity":0.2755905511811024},{"duration":0.1818179999999927,"midi":40,"time":205.81797600000002,"velocity":0.2755905511811024},{"duration":0.1818179999999927,"midi":52,"time":205.999794,"velocity":0.2755905511811024},{"duration":0.1818179999999927,"midi":40,"time":205.999794,"velocity":0.2755905511811024},{"duration":0.1818179999999927,"midi":40,"time":205.999794,"velocity":0.2755905511811024},{"duration":0.1818179999999927,"midi":52,"time":205.999794,"velocity":0.2755905511811024},{"duration":0.1818179999999927,"midi":52,"time":205.999794,"velocity":0.2755905511811024},{"duration":0.1818179999999927,"midi":40,"time":205.999794,"velocity":0.2755905511811024},{"duration":0.18181800000002113,"midi":28,"time":206.181612,"velocity":0.2755905511811024},{"duration":0.18181800000002113,"midi":40,"time":206.181612,"velocity":0.2755905511811024},{"duration":0.18181800000002113,"midi":40,"time":206.181612,"velocity":0.2755905511811024},{"duration":0.18181800000002113,"midi":28,"time":206.181612,"velocity":0.2755905511811024},{"duration":0.18181800000002113,"midi":28,"time":206.181612,"velocity":0.2755905511811024},{"duration":0.18181800000002113,"midi":40,"time":206.181612,"velocity":0.2755905511811024},{"duration":0.1818179999999927,"midi":40,"time":206.36343000000002,"velocity":0.2755905511811024},{"duration":0.1818179999999927,"midi":52,"time":206.36343000000002,"velocity":0.2755905511811024},{"duration":0.1818179999999927,"midi":52,"time":206.36343000000002,"velocity":0.2755905511811024},{"duration":0.1818179999999927,"midi":40,"time":206.36343000000002,"velocity":0.2755905511811024},{"duration":0.1818179999999927,"midi":52,"time":206.36343000000002,"velocity":0.2755905511811024},{"duration":0.1818179999999927,"midi":40,"time":206.36343000000002,"velocity":0.2755905511811024},{"duration":0.1818179999999927,"midi":41,"time":206.54524800000002,"velocity":0.2755905511811024},{"duration":0.1818179999999927,"midi":41,"time":206.54524800000002,"velocity":0.2755905511811024},{"duration":0.1818179999999927,"midi":41,"time":206.54524800000002,"velocity":0.2755905511811024},{"duration":0.1818179999999927,"midi":29,"time":206.54524800000002,"velocity":0.2755905511811024},{"duration":0.1818179999999927,"midi":29,"time":206.54524800000002,"velocity":0.2755905511811024},{"duration":0.1818179999999927,"midi":41,"time":206.54524800000002,"velocity":0.2755905511811024},{"duration":0.1818179999999927,"midi":29,"time":206.54524800000002,"velocity":0.2755905511811024},{"duration":0.1818179999999927,"midi":41,"time":206.54524800000002,"velocity":0.2755905511811024},{"duration":0.1818179999999927,"midi":29,"time":206.54524800000002,"velocity":0.2755905511811024},{"duration":0.1818179999999927,"midi":41,"time":206.54524800000002,"velocity":0.2755905511811024},{"duration":0.1818179999999927,"midi":29,"time":206.54524800000002,"velocity":0.2755905511811024},{"duration":0.1818179999999927,"midi":29,"time":206.54524800000002,"velocity":0.2755905511811024},{"duration":0.1818179999999927,"midi":41,"time":206.727066,"velocity":0.2755905511811024},{"duration":0.1818179999999927,"midi":53,"time":206.727066,"velocity":0.2755905511811024},{"duration":0.1818179999999927,"midi":41,"time":206.727066,"velocity":0.2755905511811024},{"duration":0.1818179999999927,"midi":41,"time":206.727066,"velocity":0.2755905511811024},{"duration":0.1818179999999927,"midi":53,"time":206.727066,"velocity":0.2755905511811024},{"duration":0.1818179999999927,"midi":53,"time":206.727066,"velocity":0.2755905511811024},{"duration":0.1818179999999927,"midi":41,"time":206.727066,"velocity":0.2755905511811024},{"duration":0.1818179999999927,"midi":41,"time":206.727066,"velocity":0.2755905511811024},{"duration":0.1818179999999927,"midi":41,"time":206.727066,"velocity":0.2755905511811024},{"duration":0.1818179999999927,"midi":53,"time":206.727066,"velocity":0.2755905511811024},{"duration":0.1818179999999927,"midi":53,"time":206.727066,"velocity":0.2755905511811024},{"duration":0.1818179999999927,"midi":53,"time":206.727066,"velocity":0.2755905511811024},{"duration":0.18181800000002113,"midi":41,"time":206.908884,"velocity":0.2755905511811024},{"duration":0.18181800000002113,"midi":41,"time":206.908884,"velocity":0.2755905511811024},{"duration":0.18181800000002113,"midi":29,"time":206.908884,"velocity":0.2755905511811024},{"duration":0.18181800000002113,"midi":29,"time":206.908884,"velocity":0.2755905511811024},{"duration":0.18181800000002113,"midi":29,"time":206.908884,"velocity":0.2755905511811024},{"duration":0.18181800000002113,"midi":29,"time":206.908884,"velocity":0.2755905511811024},{"duration":0.18181800000002113,"midi":29,"time":206.908884,"velocity":0.2755905511811024},{"duration":0.18181800000002113,"midi":41,"time":206.908884,"velocity":0.2755905511811024},{"duration":0.18181800000002113,"midi":29,"time":206.908884,"velocity":0.2755905511811024},{"duration":0.18181800000002113,"midi":41,"time":206.908884,"velocity":0.2755905511811024},{"duration":0.18181800000002113,"midi":41,"time":206.908884,"velocity":0.2755905511811024},{"duration":0.18181800000002113,"midi":41,"time":206.908884,"velocity":0.2755905511811024},{"duration":0.1818179999999927,"midi":53,"time":207.09070200000002,"velocity":0.2755905511811024},{"duration":0.1818179999999927,"midi":41,"time":207.09070200000002,"velocity":0.2755905511811024},{"duration":0.1818179999999927,"midi":41,"time":207.09070200000002,"velocity":0.2755905511811024},{"duration":0.1818179999999927,"midi":53,"time":207.09070200000002,"velocity":0.2755905511811024},{"duration":0.1818179999999927,"midi":53,"time":207.09070200000002,"velocity":0.2755905511811024},{"duration":0.1818179999999927,"midi":53,"time":207.09070200000002,"velocity":0.2755905511811024},{"duration":0.1818179999999927,"midi":53,"time":207.09070200000002,"velocity":0.2755905511811024},{"duration":0.1818179999999927,"midi":53,"time":207.09070200000002,"velocity":0.2755905511811024},{"duration":0.1818179999999927,"midi":41,"time":207.09070200000002,"velocity":0.2755905511811024},{"duration":0.1818179999999927,"midi":41,"time":207.09070200000002,"velocity":0.2755905511811024},{"duration":0.1818179999999927,"midi":41,"time":207.09070200000002,"velocity":0.2755905511811024},{"duration":0.1818179999999927,"midi":41,"time":207.09070200000002,"velocity":0.2755905511811024},{"duration":0.1818179999999927,"midi":29,"time":207.27252000000001,"velocity":0.2755905511811024},{"duration":0.1818179999999927,"midi":41,"time":207.27252000000001,"velocity":0.2755905511811024},{"duration":0.1818179999999927,"midi":41,"time":207.27252000000001,"velocity":0.2755905511811024},{"duration":0.1818179999999927,"midi":41,"time":207.27252000000001,"velocity":0.2755905511811024},{"duration":0.1818179999999927,"midi":29,"time":207.27252000000001,"velocity":0.2755905511811024},{"duration":0.1818179999999927,"midi":41,"time":207.27252000000001,"velocity":0.2755905511811024},{"duration":0.1818179999999927,"midi":29,"time":207.27252000000001,"velocity":0.2755905511811024},{"duration":0.1818179999999927,"midi":41,"time":207.27252000000001,"velocity":0.2755905511811024},{"duration":0.1818179999999927,"midi":29,"time":207.27252000000001,"velocity":0.2755905511811024},{"duration":0.1818179999999927,"midi":29,"time":207.27252000000001,"velocity":0.2755905511811024},{"duration":0.1818179999999927,"midi":29,"time":207.27252000000001,"velocity":0.2755905511811024},{"duration":0.1818179999999927,"midi":41,"time":207.27252000000001,"velocity":0.2755905511811024},{"duration":0.1818179999999927,"midi":53,"time":207.454338,"velocity":0.2755905511811024},{"duration":0.1818179999999927,"midi":53,"time":207.454338,"velocity":0.2755905511811024},{"duration":0.1818179999999927,"midi":41,"time":207.454338,"velocity":0.2755905511811024},{"duration":0.1818179999999927,"midi":41,"time":207.454338,"velocity":0.2755905511811024},{"duration":0.1818179999999927,"midi":53,"time":207.454338,"velocity":0.2755905511811024},{"duration":0.1818179999999927,"midi":53,"time":207.454338,"velocity":0.2755905511811024},{"duration":0.1818179999999927,"midi":41,"time":207.454338,"velocity":0.2755905511811024},{"duration":0.1818179999999927,"midi":41,"time":207.454338,"velocity":0.2755905511811024},{"duration":0.1818179999999927,"midi":53,"time":207.454338,"velocity":0.2755905511811024},{"duration":0.1818179999999927,"midi":41,"time":207.454338,"velocity":0.2755905511811024},{"duration":0.1818179999999927,"midi":53,"time":207.454338,"velocity":0.2755905511811024},{"duration":0.1818179999999927,"midi":41,"time":207.454338,"velocity":0.2755905511811024},{"duration":0.18181800000002113,"midi":29,"time":207.636156,"velocity":0.2755905511811024},{"duration":0.18181800000002113,"midi":41,"time":207.636156,"velocity":0.2755905511811024},{"duration":0.18181800000002113,"midi":29,"time":207.636156,"velocity":0.2755905511811024},{"duration":0.18181800000002113,"midi":41,"time":207.636156,"velocity":0.2755905511811024},{"duration":0.18181800000002113,"midi":29,"time":207.636156,"velocity":0.2755905511811024},{"duration":0.18181800000002113,"midi":29,"time":207.636156,"velocity":0.2755905511811024},{"duration":0.18181800000002113,"midi":41,"time":207.636156,"velocity":0.2755905511811024},{"duration":0.18181800000002113,"midi":41,"time":207.636156,"velocity":0.2755905511811024},{"duration":0.18181800000002113,"midi":41,"time":207.636156,"velocity":0.2755905511811024},{"duration":0.18181800000002113,"midi":29,"time":207.636156,"velocity":0.2755905511811024},{"duration":0.18181800000002113,"midi":41,"time":207.636156,"velocity":0.2755905511811024},{"duration":0.18181800000002113,"midi":29,"time":207.636156,"velocity":0.2755905511811024},{"duration":0.1818179999999927,"midi":53,"time":207.81797400000002,"velocity":0.2755905511811024},{"duration":0.1818179999999927,"midi":41,"time":207.81797400000002,"velocity":0.2755905511811024},{"duration":0.1818179999999927,"midi":53,"time":207.81797400000002,"velocity":0.2755905511811024},{"duration":0.1818179999999927,"midi":53,"time":207.81797400000002,"velocity":0.2755905511811024},{"duration":0.1818179999999927,"midi":53,"time":207.81797400000002,"velocity":0.2755905511811024},{"duration":0.1818179999999927,"midi":53,"time":207.81797400000002,"velocity":0.2755905511811024},{"duration":0.1818179999999927,"midi":53,"time":207.81797400000002,"velocity":0.2755905511811024},{"duration":0.1818179999999927,"midi":41,"time":207.81797400000002,"velocity":0.2755905511811024},{"duration":0.1818179999999927,"midi":41,"time":207.81797400000002,"velocity":0.2755905511811024},{"duration":0.1818179999999927,"midi":41,"time":207.81797400000002,"velocity":0.2755905511811024},{"duration":0.1818179999999927,"midi":41,"time":207.81797400000002,"velocity":0.2755905511811024},{"duration":0.1818179999999927,"midi":41,"time":207.81797400000002,"velocity":0.2755905511811024},{"duration":0.1818179999999927,"midi":31,"time":207.999792,"velocity":0.2755905511811024},{"duration":0.1818179999999927,"midi":43,"time":207.999792,"velocity":0.2755905511811024},{"duration":0.1818179999999927,"midi":43,"time":207.999792,"velocity":0.2755905511811024},{"duration":0.1818179999999927,"midi":43,"time":207.999792,"velocity":0.2755905511811024},{"duration":0.1818179999999927,"midi":31,"time":207.999792,"velocity":0.2755905511811024},{"duration":0.1818179999999927,"midi":43,"time":207.999792,"velocity":0.2755905511811024},{"duration":0.1818179999999927,"midi":43,"time":207.999792,"velocity":0.2755905511811024},{"duration":0.1818179999999927,"midi":31,"time":207.999792,"velocity":0.2755905511811024},{"duration":0.1818179999999927,"midi":43,"time":207.999792,"velocity":0.2755905511811024},{"duration":0.1818179999999927,"midi":31,"time":207.999792,"velocity":0.2755905511811024},{"duration":0.1818179999999927,"midi":31,"time":207.999792,"velocity":0.2755905511811024},{"duration":0.1818179999999927,"midi":31,"time":207.999792,"velocity":0.2755905511811024},{"duration":0.1818179999999927,"midi":55,"time":208.18161,"velocity":0.2755905511811024},{"duration":0.1818179999999927,"midi":43,"time":208.18161,"velocity":0.2755905511811024},{"duration":0.1818179999999927,"midi":55,"time":208.18161,"velocity":0.2755905511811024},{"duration":0.1818179999999927,"midi":43,"time":208.18161,"velocity":0.2755905511811024},{"duration":0.1818179999999927,"midi":55,"time":208.18161,"velocity":0.2755905511811024},{"duration":0.1818179999999927,"midi":55,"time":208.18161,"velocity":0.2755905511811024},{"duration":0.1818179999999927,"midi":55,"time":208.18161,"velocity":0.2755905511811024},{"duration":0.1818179999999927,"midi":43,"time":208.18161,"velocity":0.2755905511811024},{"duration":0.1818179999999927,"midi":43,"time":208.18161,"velocity":0.2755905511811024},{"duration":0.1818179999999927,"midi":55,"time":208.18161,"velocity":0.2755905511811024},{"duration":0.1818179999999927,"midi":43,"time":208.18161,"velocity":0.2755905511811024},{"duration":0.1818179999999927,"midi":43,"time":208.18161,"velocity":0.2755905511811024},{"duration":0.18181800000002113,"midi":43,"time":208.363428,"velocity":0.2755905511811024},{"duration":0.18181800000002113,"midi":43,"time":208.363428,"velocity":0.2755905511811024},{"duration":0.18181800000002113,"midi":43,"time":208.363428,"velocity":0.2755905511811024},{"duration":0.18181800000002113,"midi":43,"time":208.363428,"velocity":0.2755905511811024},{"duration":0.18181800000002113,"midi":31,"time":208.363428,"velocity":0.2755905511811024},{"duration":0.18181800000002113,"midi":31,"time":208.363428,"velocity":0.2755905511811024},{"duration":0.18181800000002113,"midi":43,"time":208.363428,"velocity":0.2755905511811024},{"duration":0.18181800000002113,"midi":43,"time":208.363428,"velocity":0.2755905511811024},{"duration":0.18181800000002113,"midi":31,"time":208.363428,"velocity":0.2755905511811024},{"duration":0.18181800000002113,"midi":31,"time":208.363428,"velocity":0.2755905511811024},{"duration":0.18181800000002113,"midi":31,"time":208.363428,"velocity":0.2755905511811024},{"duration":0.18181800000002113,"midi":31,"time":208.363428,"velocity":0.2755905511811024},{"duration":0.1818179999999927,"midi":43,"time":208.54524600000002,"velocity":0.2755905511811024},{"duration":0.1818179999999927,"midi":43,"time":208.54524600000002,"velocity":0.2755905511811024},{"duration":0.1818179999999927,"midi":55,"time":208.54524600000002,"velocity":0.2755905511811024},{"duration":0.1818179999999927,"midi":43,"time":208.54524600000002,"velocity":0.2755905511811024},{"duration":0.1818179999999927,"midi":43,"time":208.54524600000002,"velocity":0.2755905511811024},{"duration":0.1818179999999927,"midi":55,"time":208.54524600000002,"velocity":0.2755905511811024},{"duration":0.1818179999999927,"midi":55,"time":208.54524600000002,"velocity":0.2755905511811024},{"duration":0.1818179999999927,"midi":55,"time":208.54524600000002,"velocity":0.2755905511811024},{"duration":0.1818179999999927,"midi":55,"time":208.54524600000002,"velocity":0.2755905511811024},{"duration":0.1818179999999927,"midi":55,"time":208.54524600000002,"velocity":0.2755905511811024},{"duration":0.1818179999999927,"midi":43,"time":208.54524600000002,"velocity":0.2755905511811024},{"duration":0.1818179999999927,"midi":43,"time":208.54524600000002,"velocity":0.2755905511811024},{"duration":0.1818179999999927,"midi":43,"time":208.727064,"velocity":0.2755905511811024},{"duration":0.1818179999999927,"midi":43,"time":208.727064,"velocity":0.2755905511811024},{"duration":0.1818179999999927,"midi":43,"time":208.727064,"velocity":0.2755905511811024},{"duration":0.1818179999999927,"midi":31,"time":208.727064,"velocity":0.2755905511811024},{"duration":0.1818179999999927,"midi":31,"time":208.727064,"velocity":0.2755905511811024},{"duration":0.1818179999999927,"midi":43,"time":208.727064,"velocity":0.2755905511811024},{"duration":0.1818179999999927,"midi":43,"time":208.727064,"velocity":0.2755905511811024},{"duration":0.1818179999999927,"midi":31,"time":208.727064,"velocity":0.2755905511811024},{"duration":0.1818179999999927,"midi":31,"time":208.727064,"velocity":0.2755905511811024},{"duration":0.1818179999999927,"midi":43,"time":208.727064,"velocity":0.2755905511811024},{"duration":0.1818179999999927,"midi":31,"time":208.727064,"velocity":0.2755905511811024},{"duration":0.1818179999999927,"midi":31,"time":208.727064,"velocity":0.2755905511811024},{"duration":0.1818179999999927,"midi":43,"time":208.908882,"velocity":0.2755905511811024},{"duration":0.1818179999999927,"midi":43,"time":208.908882,"velocity":0.2755905511811024},{"duration":0.1818179999999927,"midi":43,"time":208.908882,"velocity":0.2755905511811024},{"duration":0.1818179999999927,"midi":43,"time":208.908882,"velocity":0.2755905511811024},{"duration":0.1818179999999927,"midi":55,"time":208.908882,"velocity":0.2755905511811024},{"duration":0.1818179999999927,"midi":55,"time":208.908882,"velocity":0.2755905511811024},{"duration":0.1818179999999927,"midi":43,"time":208.908882,"velocity":0.2755905511811024},{"duration":0.1818179999999927,"midi":55,"time":208.908882,"velocity":0.2755905511811024},{"duration":0.1818179999999927,"midi":43,"time":208.908882,"velocity":0.2755905511811024},{"duration":0.1818179999999927,"midi":55,"time":208.908882,"velocity":0.2755905511811024},{"duration":0.1818179999999927,"midi":55,"time":208.908882,"velocity":0.2755905511811024},{"duration":0.1818179999999927,"midi":55,"time":208.908882,"velocity":0.2755905511811024},{"duration":0.18181800000002113,"midi":43,"time":209.0907,"velocity":0.2755905511811024},{"duration":0.18181800000002113,"midi":43,"time":209.0907,"velocity":0.2755905511811024},{"duration":0.18181800000002113,"midi":43,"time":209.0907,"velocity":0.2755905511811024},{"duration":0.18181800000002113,"midi":31,"time":209.0907,"velocity":0.2755905511811024},{"duration":0.18181800000002113,"midi":43,"time":209.0907,"velocity":0.2755905511811024},{"duration":0.18181800000002113,"midi":31,"time":209.0907,"velocity":0.2755905511811024},{"duration":0.18181800000002113,"midi":31,"time":209.0907,"velocity":0.2755905511811024},{"duration":0.18181800000002113,"midi":43,"time":209.0907,"velocity":0.2755905511811024},{"duration":0.18181800000002113,"midi":31,"time":209.0907,"velocity":0.2755905511811024},{"duration":0.18181800000002113,"midi":31,"time":209.0907,"velocity":0.2755905511811024},{"duration":0.18181800000002113,"midi":43,"time":209.0907,"velocity":0.2755905511811024},{"duration":0.18181800000002113,"midi":31,"time":209.0907,"velocity":0.2755905511811024},{"duration":0.1818179999999927,"midi":43,"time":209.27251800000002,"velocity":0.2755905511811024},{"duration":0.1818179999999927,"midi":55,"time":209.27251800000002,"velocity":0.2755905511811024},{"duration":0.1818179999999927,"midi":43,"time":209.27251800000002,"velocity":0.2755905511811024},{"duration":0.1818179999999927,"midi":55,"time":209.27251800000002,"velocity":0.2755905511811024},{"duration":0.1818179999999927,"midi":43,"time":209.27251800000002,"velocity":0.2755905511811024},{"duration":0.1818179999999927,"midi":43,"time":209.27251800000002,"velocity":0.2755905511811024},{"duration":0.1818179999999927,"midi":43,"time":209.27251800000002,"velocity":0.2755905511811024},{"duration":0.1818179999999927,"midi":55,"time":209.27251800000002,"velocity":0.2755905511811024},{"duration":0.1818179999999927,"midi":43,"time":209.27251800000002,"velocity":0.2755905511811024},{"duration":0.1818179999999927,"midi":55,"time":209.27251800000002,"velocity":0.2755905511811024},{"duration":0.1818179999999927,"midi":55,"time":209.27251800000002,"velocity":0.2755905511811024},{"duration":0.1818179999999927,"midi":55,"time":209.27251800000002,"velocity":0.2755905511811024},{"duration":0.1818179999999927,"midi":43,"time":209.454336,"velocity":0.2755905511811024},{"duration":0.1818179999999927,"midi":31,"time":209.454336,"velocity":0.2755905511811024},{"duration":0.1818179999999927,"midi":31,"time":209.454336,"velocity":0.2755905511811024},{"duration":0.1818179999999927,"midi":43,"time":209.454336,"velocity":0.2755905511811024},{"duration":0.1818179999999927,"midi":43,"time":209.454336,"velocity":0.2755905511811024},{"duration":0.1818179999999927,"midi":31,"time":209.454336,"velocity":0.2755905511811024},{"duration":0.1818179999999927,"midi":43,"time":209.636154,"velocity":0.2755905511811024},{"duration":0.1818179999999927,"midi":55,"time":209.636154,"velocity":0.2755905511811024},{"duration":0.1818179999999927,"midi":55,"time":209.636154,"velocity":0.2755905511811024},{"duration":0.1818179999999927,"midi":55,"time":209.636154,"velocity":0.2755905511811024},{"duration":0.1818179999999927,"midi":43,"time":209.636154,"velocity":0.2755905511811024},{"duration":0.1818179999999927,"midi":43,"time":209.636154,"velocity":0.2755905511811024},{"duration":0.18181800000002113,"midi":43,"time":209.817972,"velocity":0.2755905511811024},{"duration":0.18181800000002113,"midi":43,"time":209.817972,"velocity":0.2755905511811024},{"duration":0.18181800000002113,"midi":31,"time":209.817972,"velocity":0.2755905511811024},{"duration":0.18181800000002113,"midi":31,"time":209.817972,"velocity":0.2755905511811024},{"duration":0.18181800000002113,"midi":31,"time":209.817972,"velocity":0.2755905511811024},{"duration":0.18181800000002113,"midi":43,"time":209.817972,"velocity":0.2755905511811024},{"duration":0.1818179999999927,"midi":55,"time":209.99979000000002,"velocity":0.2755905511811024},{"duration":0.1818179999999927,"midi":55,"time":209.99979000000002,"velocity":0.2755905511811024},{"duration":0.1818179999999927,"midi":43,"time":209.99979000000002,"velocity":0.2755905511811024},{"duration":0.1818179999999927,"midi":55,"time":209.99979000000002,"velocity":0.2755905511811024},{"duration":0.1818179999999927,"midi":43,"time":209.99979000000002,"velocity":0.2755905511811024},{"duration":0.1818179999999927,"midi":43,"time":209.99979000000002,"velocity":0.2755905511811024},{"duration":0.1818179999999927,"midi":31,"time":210.181608,"velocity":0.2755905511811024},{"duration":0.1818179999999927,"midi":31,"time":210.181608,"velocity":0.2755905511811024},{"duration":0.1818179999999927,"midi":31,"time":210.181608,"velocity":0.2755905511811024},{"duration":0.1818179999999927,"midi":43,"time":210.181608,"velocity":0.2755905511811024},{"duration":0.1818179999999927,"midi":43,"time":210.181608,"velocity":0.2755905511811024},{"duration":0.1818179999999927,"midi":43,"time":210.181608,"velocity":0.2755905511811024},{"duration":0.1818179999999927,"midi":43,"time":210.363426,"velocity":0.2755905511811024},{"duration":0.1818179999999927,"midi":55,"time":210.363426,"velocity":0.2755905511811024},{"duration":0.1818179999999927,"midi":55,"time":210.363426,"velocity":0.2755905511811024},{"duration":0.1818179999999927,"midi":43,"time":210.363426,"velocity":0.2755905511811024},{"duration":0.1818179999999927,"midi":55,"time":210.363426,"velocity":0.2755905511811024},{"duration":0.1818179999999927,"midi":43,"time":210.363426,"velocity":0.2755905511811024},{"duration":0.18181800000002113,"midi":31,"time":210.545244,"velocity":0.2755905511811024},{"duration":0.18181800000002113,"midi":31,"time":210.545244,"velocity":0.2755905511811024},{"duration":0.18181800000002113,"midi":31,"time":210.545244,"velocity":0.2755905511811024},{"duration":0.18181800000002113,"midi":43,"time":210.545244,"velocity":0.2755905511811024},{"duration":0.18181800000002113,"midi":43,"time":210.545244,"velocity":0.2755905511811024},{"duration":0.18181800000002113,"midi":43,"time":210.545244,"velocity":0.2755905511811024},{"duration":0.1818179999999927,"midi":55,"time":210.72706200000002,"velocity":0.2755905511811024},{"duration":0.1818179999999927,"midi":43,"time":210.72706200000002,"velocity":0.2755905511811024},{"duration":0.1818179999999927,"midi":43,"time":210.72706200000002,"velocity":0.2755905511811024},{"duration":0.1818179999999927,"midi":43,"time":210.72706200000002,"velocity":0.2755905511811024},{"duration":0.1818179999999927,"midi":55,"time":210.72706200000002,"velocity":0.2755905511811024},{"duration":0.1818179999999927,"midi":55,"time":210.72706200000002,"velocity":0.2755905511811024},{"duration":0.1818179999999927,"midi":28,"time":210.90888,"velocity":0.2755905511811024},{"duration":0.1818179999999927,"midi":28,"time":210.90888,"velocity":0.2755905511811024},{"duration":0.1818179999999927,"midi":40,"time":210.90888,"velocity":0.2755905511811024},{"duration":0.1818179999999927,"midi":40,"time":210.90888,"velocity":0.2755905511811024},{"duration":0.1818179999999927,"midi":40,"time":210.90888,"velocity":0.2755905511811024},{"duration":0.1818179999999927,"midi":28,"time":210.90888,"velocity":0.2755905511811024},{"duration":0.1818179999999927,"midi":40,"time":211.090698,"velocity":0.2755905511811024},{"duration":0.1818179999999927,"midi":52,"time":211.090698,"velocity":0.2755905511811024},{"duration":0.1818179999999927,"midi":52,"time":211.090698,"velocity":0.2755905511811024},{"duration":0.1818179999999927,"midi":52,"time":211.090698,"velocity":0.2755905511811024},{"duration":0.1818179999999927,"midi":40,"time":211.090698,"velocity":0.2755905511811024},{"duration":0.1818179999999927,"midi":40,"time":211.090698,"velocity":0.2755905511811024},{"duration":0.18181800000002113,"midi":28,"time":211.272516,"velocity":0.2755905511811024},{"duration":0.18181800000002113,"midi":40,"time":211.272516,"velocity":0.2755905511811024},{"duration":0.18181800000002113,"midi":40,"time":211.272516,"velocity":0.2755905511811024},{"duration":0.18181800000002113,"midi":40,"time":211.272516,"velocity":0.2755905511811024},{"duration":0.18181800000002113,"midi":28,"time":211.272516,"velocity":0.2755905511811024},{"duration":0.18181800000002113,"midi":28,"time":211.272516,"velocity":0.2755905511811024},{"duration":0.1818179999999927,"midi":52,"time":211.45433400000002,"velocity":0.2755905511811024},{"duration":0.1818179999999927,"midi":40,"time":211.45433400000002,"velocity":0.2755905511811024},{"duration":0.1818179999999927,"midi":52,"time":211.45433400000002,"velocity":0.2755905511811024},{"duration":0.1818179999999927,"midi":40,"time":211.45433400000002,"velocity":0.2755905511811024},{"duration":0.1818179999999927,"midi":52,"time":211.45433400000002,"velocity":0.2755905511811024},{"duration":0.1818179999999927,"midi":40,"time":211.45433400000002,"velocity":0.2755905511811024},{"duration":0.1818179999999927,"midi":40,"time":211.636152,"velocity":0.2755905511811024},{"duration":0.1818179999999927,"midi":40,"time":211.636152,"velocity":0.2755905511811024},{"duration":0.1818179999999927,"midi":28,"time":211.636152,"velocity":0.2755905511811024},{"duration":0.1818179999999927,"midi":28,"time":211.636152,"velocity":0.2755905511811024},{"duration":0.1818179999999927,"midi":40,"time":211.636152,"velocity":0.2755905511811024},{"duration":0.1818179999999927,"midi":28,"time":211.636152,"velocity":0.2755905511811024},{"duration":0.1818179999999927,"midi":52,"time":211.81797,"velocity":0.2755905511811024},{"duration":0.1818179999999927,"midi":52,"time":211.81797,"velocity":0.2755905511811024},{"duration":0.1818179999999927,"midi":40,"time":211.81797,"velocity":0.2755905511811024},{"duration":0.1818179999999927,"midi":40,"time":211.81797,"velocity":0.2755905511811024},{"duration":0.1818179999999927,"midi":52,"time":211.81797,"velocity":0.2755905511811024},{"duration":0.1818179999999927,"midi":40,"time":211.81797,"velocity":0.2755905511811024},{"duration":0.18181800000002113,"midi":28,"time":211.999788,"velocity":0.2755905511811024},{"duration":0.18181800000002113,"midi":28,"time":211.999788,"velocity":0.2755905511811024},{"duration":0.18181800000002113,"midi":40,"time":211.999788,"velocity":0.2755905511811024},{"duration":0.18181800000002113,"midi":40,"time":211.999788,"velocity":0.2755905511811024},{"duration":0.18181800000002113,"midi":28,"time":211.999788,"velocity":0.2755905511811024},{"duration":0.18181800000002113,"midi":40,"time":211.999788,"velocity":0.2755905511811024},{"duration":0.1818179999999927,"midi":52,"time":212.18160600000002,"velocity":0.2755905511811024},{"duration":0.1818179999999927,"midi":40,"time":212.18160600000002,"velocity":0.2755905511811024},{"duration":0.1818179999999927,"midi":52,"time":212.18160600000002,"velocity":0.2755905511811024},{"duration":0.1818179999999927,"midi":52,"time":212.18160600000002,"velocity":0.2755905511811024},{"duration":0.1818179999999927,"midi":40,"time":212.18160600000002,"velocity":0.2755905511811024},{"duration":0.1818179999999927,"midi":40,"time":212.18160600000002,"velocity":0.2755905511811024},{"duration":0.1818179999999927,"midi":29,"time":212.363424,"velocity":0.2755905511811024},{"duration":0.1818179999999927,"midi":29,"time":212.363424,"velocity":0.2755905511811024},{"duration":0.1818179999999927,"midi":41,"time":212.363424,"velocity":0.2755905511811024},{"duration":0.1818179999999927,"midi":41,"time":212.363424,"velocity":0.2755905511811024},{"duration":0.1818179999999927,"midi":41,"time":212.363424,"velocity":0.2755905511811024},{"duration":0.1818179999999927,"midi":29,"time":212.363424,"velocity":0.2755905511811024},{"duration":0.1818179999999927,"midi":41,"time":212.545242,"velocity":0.2755905511811024},{"duration":0.1818179999999927,"midi":41,"time":212.545242,"velocity":0.2755905511811024},{"duration":0.1818179999999927,"midi":53,"time":212.545242,"velocity":0.2755905511811024},{"duration":0.1818179999999927,"midi":53,"time":212.545242,"velocity":0.2755905511811024},{"duration":0.1818179999999927,"midi":53,"time":212.545242,"velocity":0.2755905511811024},{"duration":0.1818179999999927,"midi":41,"time":212.545242,"velocity":0.2755905511811024},{"duration":0.18181800000002113,"midi":41,"time":212.72706,"velocity":0.2755905511811024},{"duration":0.18181800000002113,"midi":29,"time":212.72706,"velocity":0.2755905511811024},{"duration":0.18181800000002113,"midi":41,"time":212.72706,"velocity":0.2755905511811024},{"duration":0.18181800000002113,"midi":29,"time":212.72706,"velocity":0.2755905511811024},{"duration":0.18181800000002113,"midi":29,"time":212.72706,"velocity":0.2755905511811024},{"duration":0.18181800000002113,"midi":41,"time":212.72706,"velocity":0.2755905511811024},{"duration":0.1818179999999927,"midi":53,"time":212.90887800000002,"velocity":0.2755905511811024},{"duration":0.1818179999999927,"midi":41,"time":212.90887800000002,"velocity":0.2755905511811024},{"duration":0.1818179999999927,"midi":53,"time":212.90887800000002,"velocity":0.2755905511811024},{"duration":0.1818179999999927,"midi":53,"time":212.90887800000002,"velocity":0.2755905511811024},{"duration":0.1818179999999927,"midi":53,"time":212.90887800000002,"velocity":0.2755905511811024},{"duration":0.1818179999999927,"midi":41,"time":212.90887800000002,"velocity":0.2755905511811024},{"duration":0.1818179999999927,"midi":41,"time":212.90887800000002,"velocity":0.2755905511811024},{"duration":0.1818179999999927,"midi":41,"time":213.090696,"velocity":0.2755905511811024},{"duration":0.1818179999999927,"midi":41,"time":213.090696,"velocity":0.2755905511811024},{"duration":0.1818179999999927,"midi":29,"time":213.090696,"velocity":0.2755905511811024},{"duration":0.1818179999999927,"midi":41,"time":213.090696,"velocity":0.2755905511811024},{"duration":0.1818179999999927,"midi":29,"time":213.090696,"velocity":0.2755905511811024},{"duration":0.1818179999999927,"midi":29,"time":213.090696,"velocity":0.2755905511811024},{"duration":0.18181800000002113,"midi":53,"time":213.272514,"velocity":0.2755905511811024},{"duration":0.18181800000002113,"midi":53,"time":213.272514,"velocity":0.2755905511811024},{"duration":0.18181800000002113,"midi":41,"time":213.272514,"velocity":0.2755905511811024},{"duration":0.18181800000002113,"midi":41,"time":213.272514,"velocity":0.2755905511811024},{"duration":0.18181800000002113,"midi":41,"time":213.272514,"velocity":0.2755905511811024},{"duration":0.18181800000002113,"midi":53,"time":213.272514,"velocity":0.2755905511811024},{"duration":0.1818179999999927,"midi":41,"time":213.45433200000002,"velocity":0.2755905511811024},{"duration":0.1818179999999927,"midi":29,"time":213.45433200000002,"velocity":0.2755905511811024},{"duration":0.1818179999999927,"midi":29,"time":213.45433200000002,"velocity":0.2755905511811024},{"duration":0.1818179999999927,"midi":41,"time":213.45433200000002,"velocity":0.2755905511811024},{"duration":0.1818179999999927,"midi":29,"time":213.45433200000002,"velocity":0.2755905511811024},{"duration":0.1818179999999927,"midi":41,"time":213.45433200000002,"velocity":0.2755905511811024},{"duration":0.1818179999999927,"midi":41,"time":213.63615000000001,"velocity":0.2755905511811024},{"duration":0.1818179999999927,"midi":53,"time":213.63615000000001,"velocity":0.2755905511811024},{"duration":0.1818179999999927,"midi":41,"time":213.63615000000001,"velocity":0.2755905511811024},{"duration":0.1818179999999927,"midi":53,"time":213.63615000000001,"velocity":0.2755905511811024},{"duration":0.1818179999999927,"midi":41,"time":213.63615000000001,"velocity":0.2755905511811024},{"duration":0.1818179999999927,"midi":53,"time":213.63615000000001,"velocity":0.2755905511811024},{"duration":0.1818179999999927,"midi":31,"time":213.817968,"velocity":0.2755905511811024},{"duration":0.1818179999999927,"midi":31,"time":213.817968,"velocity":0.2755905511811024},{"duration":0.1818179999999927,"midi":43,"time":213.817968,"velocity":0.2755905511811024},{"duration":0.1818179999999927,"midi":43,"time":213.817968,"velocity":0.2755905511811024},{"duration":0.1818179999999927,"midi":31,"time":213.817968,"velocity":0.2755905511811024},{"duration":0.1818179999999927,"midi":43,"time":213.817968,"velocity":0.2755905511811024},{"duration":0.18181800000002113,"midi":55,"time":213.999786,"velocity":0.2755905511811024},{"duration":0.18181800000002113,"midi":55,"time":213.999786,"velocity":0.2755905511811024},{"duration":0.18181800000002113,"midi":43,"time":213.999786,"velocity":0.2755905511811024},{"duration":0.18181800000002113,"midi":55,"time":213.999786,"velocity":0.2755905511811024},{"duration":0.18181800000002113,"midi":43,"time":213.999786,"velocity":0.2755905511811024},{"duration":0.18181800000002113,"midi":43,"time":213.999786,"velocity":0.2755905511811024},{"duration":0.1818179999999927,"midi":31,"time":214.18160400000002,"velocity":0.2755905511811024},{"duration":0.1818179999999927,"midi":31,"time":214.18160400000002,"velocity":0.2755905511811024},{"duration":0.1818179999999927,"midi":43,"time":214.18160400000002,"velocity":0.2755905511811024},{"duration":0.1818179999999927,"midi":43,"time":214.18160400000002,"velocity":0.2755905511811024},{"duration":0.1818179999999927,"midi":31,"time":214.18160400000002,"velocity":0.2755905511811024},{"duration":0.1818179999999927,"midi":43,"time":214.18160400000002,"velocity":0.2755905511811024},{"duration":0.1818179999999927,"midi":55,"time":214.363422,"velocity":0.2755905511811024},{"duration":0.1818179999999927,"midi":55,"time":214.363422,"velocity":0.2755905511811024},{"duration":0.1818179999999927,"midi":43,"time":214.363422,"velocity":0.2755905511811024},{"duration":0.1818179999999927,"midi":43,"time":214.363422,"velocity":0.2755905511811024},{"duration":0.1818179999999927,"midi":55,"time":214.363422,"velocity":0.2755905511811024},{"duration":0.1818179999999927,"midi":43,"time":214.363422,"velocity":0.2755905511811024},{"duration":0.1818179999999927,"midi":43,"time":214.54524,"velocity":0.2755905511811024},{"duration":0.1818179999999927,"midi":43,"time":214.54524,"velocity":0.2755905511811024},{"duration":0.1818179999999927,"midi":31,"time":214.54524,"velocity":0.2755905511811024},{"duration":0.1818179999999927,"midi":31,"time":214.54524,"velocity":0.2755905511811024},{"duration":0.1818179999999927,"midi":43,"time":214.54524,"velocity":0.2755905511811024},{"duration":0.1818179999999927,"midi":31,"time":214.54524,"velocity":0.2755905511811024},{"duration":0.1818179999999927,"midi":43,"time":214.54524,"velocity":0.2755905511811024},{"duration":0.18181800000002113,"midi":55,"time":214.727058,"velocity":0.2755905511811024},{"duration":0.18181800000002113,"midi":55,"time":214.727058,"velocity":0.2755905511811024},{"duration":0.18181800000002113,"midi":43,"time":214.727058,"velocity":0.2755905511811024},{"duration":0.18181800000002113,"midi":55,"time":214.727058,"velocity":0.2755905511811024},{"duration":0.18181800000002113,"midi":43,"time":214.727058,"velocity":0.2755905511811024},{"duration":0.18181800000002113,"midi":43,"time":214.727058,"velocity":0.2755905511811024},{"duration":0.1818179999999927,"midi":43,"time":214.90887600000002,"velocity":0.2755905511811024},{"duration":0.1818179999999927,"midi":43,"time":214.90887600000002,"velocity":0.2755905511811024},{"duration":0.1818179999999927,"midi":31,"time":214.90887600000002,"velocity":0.2755905511811024},{"duration":0.1818179999999927,"midi":43,"time":214.90887600000002,"velocity":0.2755905511811024},{"duration":0.1818179999999927,"midi":31,"time":214.90887600000002,"velocity":0.2755905511811024},{"duration":0.1818179999999927,"midi":31,"time":214.90887600000002,"velocity":0.2755905511811024},{"duration":0.1818179999999927,"midi":55,"time":215.090694,"velocity":0.2755905511811024},{"duration":0.1818179999999927,"midi":43,"time":215.090694,"velocity":0.2755905511811024},{"duration":0.1818179999999927,"midi":55,"time":215.090694,"velocity":0.2755905511811024},{"duration":0.1818179999999927,"midi":43,"time":215.090694,"velocity":0.2755905511811024},{"duration":0.1818179999999927,"midi":43,"time":215.090694,"velocity":0.2755905511811024},{"duration":0.1818179999999927,"midi":55,"time":215.090694,"velocity":0.2755905511811024},{"duration":0.1818179999999927,"midi":43,"time":215.272512,"velocity":0.2755905511811024},{"duration":0.1818179999999927,"midi":31,"time":215.272512,"velocity":0.2755905511811024},{"duration":0.1818179999999927,"midi":31,"time":215.272512,"velocity":0.2755905511811024},{"duration":0.1818179999999927,"midi":43,"time":215.272512,"velocity":0.2755905511811024},{"duration":0.1818179999999927,"midi":43,"time":215.272512,"velocity":0.2755905511811024},{"duration":0.18181800000002113,"midi":43,"time":215.45433,"velocity":0.2755905511811024},{"duration":0.18181800000002113,"midi":43,"time":215.45433,"velocity":0.2755905511811024},{"duration":0.18181800000002113,"midi":55,"time":215.45433,"velocity":0.2755905511811024},{"duration":0.18181800000002113,"midi":55,"time":215.45433,"velocity":0.2755905511811024},{"duration":0.18181800000002113,"midi":43,"time":215.45433,"velocity":0.2755905511811024},{"duration":0.1818179999999927,"midi":31,"time":215.63614800000002,"velocity":0.2755905511811024},{"duration":0.1818179999999927,"midi":31,"time":215.63614800000002,"velocity":0.2755905511811024},{"duration":0.1818179999999927,"midi":43,"time":215.63614800000002,"velocity":0.2755905511811024},{"duration":0.1818179999999927,"midi":43,"time":215.63614800000002,"velocity":0.2755905511811024},{"duration":0.1818179999999927,"midi":43,"time":215.63614800000002,"velocity":0.2755905511811024},{"duration":0.1818179999999927,"midi":55,"time":215.817966,"velocity":0.2755905511811024},{"duration":0.1818179999999927,"midi":55,"time":215.817966,"velocity":0.2755905511811024},{"duration":0.1818179999999927,"midi":43,"time":215.817966,"velocity":0.2755905511811024},{"duration":0.1818179999999927,"midi":43,"time":215.817966,"velocity":0.2755905511811024},{"duration":0.1818179999999927,"midi":43,"time":215.817966,"velocity":0.2755905511811024},{"duration":0.1818179999999927,"midi":43,"time":215.999784,"velocity":0.2755905511811024},{"duration":0.1818179999999927,"midi":31,"time":215.999784,"velocity":0.2755905511811024},{"duration":0.1818179999999927,"midi":31,"time":215.999784,"velocity":0.2755905511811024},{"duration":0.1818179999999927,"midi":43,"time":215.999784,"velocity":0.2755905511811024},{"duration":0.1818179999999927,"midi":43,"time":215.999784,"velocity":0.2755905511811024},{"duration":0.18181800000002113,"midi":55,"time":216.181602,"velocity":0.2755905511811024},{"duration":0.18181800000002113,"midi":43,"time":216.181602,"velocity":0.2755905511811024},{"duration":0.18181800000002113,"midi":55,"time":216.181602,"velocity":0.2755905511811024},{"duration":0.18181800000002113,"midi":43,"time":216.181602,"velocity":0.2755905511811024},{"duration":0.18181800000002113,"midi":43,"time":216.181602,"velocity":0.2755905511811024},{"duration":0.1818179999999927,"midi":43,"time":216.36342000000002,"velocity":0.2755905511811024},{"duration":0.1818179999999927,"midi":31,"time":216.36342000000002,"velocity":0.2755905511811024},{"duration":0.1818179999999927,"midi":31,"time":216.36342000000002,"velocity":0.2755905511811024},{"duration":0.1818179999999927,"midi":43,"time":216.36342000000002,"velocity":0.2755905511811024},{"duration":0.1818179999999927,"midi":43,"time":216.36342000000002,"velocity":0.2755905511811024},{"duration":0.1818179999999927,"midi":43,"time":216.545238,"velocity":0.2755905511811024},{"duration":0.1818179999999927,"midi":55,"time":216.545238,"velocity":0.2755905511811024},{"duration":0.1818179999999927,"midi":43,"time":216.545238,"velocity":0.2755905511811024},{"duration":0.1818179999999927,"midi":55,"time":216.545238,"velocity":0.2755905511811024},{"duration":0.1818179999999927,"midi":43,"time":216.545238,"velocity":0.2755905511811024},{"duration":0.1818179999999927,"midi":28,"time":216.727056,"velocity":0.2755905511811024},{"duration":0.1818179999999927,"midi":28,"time":216.727056,"velocity":0.2755905511811024},{"duration":0.1818179999999927,"midi":40,"time":216.727056,"velocity":0.2755905511811024},{"duration":0.1818179999999927,"midi":40,"time":216.727056,"velocity":0.2755905511811024},{"duration":0.1818179999999927,"midi":40,"time":216.727056,"velocity":0.2755905511811024},{"duration":0.1818179999999927,"midi":28,"time":216.727056,"velocity":0.2755905511811024},{"duration":0.18181800000002113,"midi":40,"time":216.908874,"velocity":0.2755905511811024},{"duration":0.18181800000002113,"midi":52,"time":216.908874,"velocity":0.2755905511811024},{"duration":0.18181800000002113,"midi":52,"time":216.908874,"velocity":0.2755905511811024},{"duration":0.18181800000002113,"midi":40,"time":216.908874,"velocity":0.2755905511811024},{"duration":0.18181800000002113,"midi":40,"time":216.908874,"velocity":0.2755905511811024},{"duration":0.18181800000002113,"midi":52,"time":216.908874,"velocity":0.2755905511811024},{"duration":0.1818179999999927,"midi":28,"time":217.09069200000002,"velocity":0.2755905511811024},{"duration":0.1818179999999927,"midi":40,"time":217.09069200000002,"velocity":0.2755905511811024},{"duration":0.1818179999999927,"midi":28,"time":217.09069200000002,"velocity":0.2755905511811024},{"duration":0.1818179999999927,"midi":40,"time":217.09069200000002,"velocity":0.2755905511811024},{"duration":0.1818179999999927,"midi":40,"time":217.09069200000002,"velocity":0.2755905511811024},{"duration":0.1818179999999927,"midi":28,"time":217.09069200000002,"velocity":0.2755905511811024},{"duration":0.1818179999999927,"midi":40,"time":217.27251,"velocity":0.2755905511811024},{"duration":0.1818179999999927,"midi":40,"time":217.27251,"velocity":0.2755905511811024},{"duration":0.1818179999999927,"midi":52,"time":217.27251,"velocity":0.2755905511811024},{"duration":0.1818179999999927,"midi":52,"time":217.27251,"velocity":0.2755905511811024},{"duration":0.1818179999999927,"midi":40,"time":217.27251,"velocity":0.2755905511811024},{"duration":0.1818179999999927,"midi":52,"time":217.27251,"velocity":0.2755905511811024},{"duration":0.1818179999999927,"midi":40,"time":217.454328,"velocity":0.2755905511811024},{"duration":0.1818179999999927,"midi":40,"time":217.454328,"velocity":0.2755905511811024},{"duration":0.1818179999999927,"midi":28,"time":217.454328,"velocity":0.2755905511811024},{"duration":0.1818179999999927,"midi":28,"time":217.454328,"velocity":0.2755905511811024},{"duration":0.1818179999999927,"midi":40,"time":217.454328,"velocity":0.2755905511811024},{"duration":0.1818179999999927,"midi":28,"time":217.454328,"velocity":0.2755905511811024},{"duration":0.18181800000002113,"midi":40,"time":217.636146,"velocity":0.2755905511811024},{"duration":0.18181800000002113,"midi":52,"time":217.636146,"velocity":0.2755905511811024},{"duration":0.18181800000002113,"midi":40,"time":217.636146,"velocity":0.2755905511811024},{"duration":0.18181800000002113,"midi":40,"time":217.636146,"velocity":0.2755905511811024},{"duration":0.18181800000002113,"midi":52,"time":217.636146,"velocity":0.2755905511811024},{"duration":0.18181800000002113,"midi":52,"time":217.636146,"velocity":0.2755905511811024},{"duration":0.1818179999999927,"midi":40,"time":217.81796400000002,"velocity":0.2755905511811024},{"duration":0.1818179999999927,"midi":40,"time":217.81796400000002,"velocity":0.2755905511811024},{"duration":0.1818179999999927,"midi":40,"time":217.81796400000002,"velocity":0.2755905511811024},{"duration":0.1818179999999927,"midi":28,"time":217.81796400000002,"velocity":0.2755905511811024},{"duration":0.1818179999999927,"midi":28,"time":217.81796400000002,"velocity":0.2755905511811024},{"duration":0.1818179999999927,"midi":28,"time":217.81796400000002,"velocity":0.2755905511811024},{"duration":0.1818179999999927,"midi":40,"time":217.999782,"velocity":0.2755905511811024},{"duration":0.1818179999999927,"midi":40,"time":217.999782,"velocity":0.2755905511811024},{"duration":0.1818179999999927,"midi":40,"time":217.999782,"velocity":0.2755905511811024},{"duration":0.1818179999999927,"midi":52,"time":217.999782,"velocity":0.2755905511811024},{"duration":0.1818179999999927,"midi":52,"time":217.999782,"velocity":0.2755905511811024},{"duration":0.1818179999999927,"midi":52,"time":217.999782,"velocity":0.2755905511811024},{"duration":0.1818179999999927,"midi":41,"time":218.1816,"velocity":0.2755905511811024},{"duration":0.1818179999999927,"midi":41,"time":218.1816,"velocity":0.2755905511811024},{"duration":0.1818179999999927,"midi":29,"time":218.1816,"velocity":0.2755905511811024},{"duration":0.1818179999999927,"midi":29,"time":218.1816,"velocity":0.2755905511811024},{"duration":0.18181800000002113,"midi":53,"time":218.363418,"velocity":0.2755905511811024},{"duration":0.18181800000002113,"midi":41,"time":218.363418,"velocity":0.2755905511811024},{"duration":0.18181800000002113,"midi":53,"time":218.363418,"velocity":0.2755905511811024},{"duration":0.18181800000002113,"midi":41,"time":218.363418,"velocity":0.2755905511811024},{"duration":0.18181800000002113,"midi":41,"time":218.363418,"velocity":0.2755905511811024},{"duration":0.1818179999999927,"midi":41,"time":218.54523600000002,"velocity":0.2755905511811024},{"duration":0.1818179999999927,"midi":29,"time":218.54523600000002,"velocity":0.2755905511811024},{"duration":0.1818179999999927,"midi":41,"time":218.54523600000002,"velocity":0.2755905511811024},{"duration":0.1818179999999927,"midi":29,"time":218.54523600000002,"velocity":0.2755905511811024},{"duration":0.1818179999999927,"midi":41,"time":218.727054,"velocity":0.2755905511811024},{"duration":0.1818179999999927,"midi":41,"time":218.727054,"velocity":0.2755905511811024},{"duration":0.1818179999999927,"midi":53,"time":218.727054,"velocity":0.2755905511811024},{"duration":0.1818179999999927,"midi":53,"time":218.727054,"velocity":0.2755905511811024},{"duration":0.1818179999999927,"midi":29,"time":218.908872,"velocity":0.2755905511811024},{"duration":0.1818179999999927,"midi":29,"time":218.908872,"velocity":0.2755905511811024},{"duration":0.1818179999999927,"midi":41,"time":218.908872,"velocity":0.2755905511811024},{"duration":0.1818179999999927,"midi":41,"time":218.908872,"velocity":0.2755905511811024},{"duration":0.18181800000002113,"midi":53,"time":219.09069,"velocity":0.2755905511811024},{"duration":0.18181800000002113,"midi":53,"time":219.09069,"velocity":0.2755905511811024},{"duration":0.18181800000002113,"midi":41,"time":219.09069,"velocity":0.2755905511811024},{"duration":0.18181800000002113,"midi":41,"time":219.09069,"velocity":0.2755905511811024},{"duration":0.1818179999999927,"midi":41,"time":219.27250800000002,"velocity":0.2755905511811024},{"duration":0.1818179999999927,"midi":41,"time":219.27250800000002,"velocity":0.2755905511811024},{"duration":0.1818179999999927,"midi":29,"time":219.27250800000002,"velocity":0.2755905511811024},{"duration":0.1818179999999927,"midi":29,"time":219.27250800000002,"velocity":0.2755905511811024},{"duration":0.1818179999999927,"midi":41,"time":219.454326,"velocity":0.2755905511811024},{"duration":0.1818179999999927,"midi":41,"time":219.454326,"velocity":0.2755905511811024},{"duration":0.1818179999999927,"midi":53,"time":219.454326,"velocity":0.2755905511811024},{"duration":0.1818179999999927,"midi":53,"time":219.454326,"velocity":0.2755905511811024},{"duration":0.18181800000002113,"midi":31,"time":219.636144,"velocity":0.2755905511811024},{"duration":0.18181800000002113,"midi":31,"time":219.636144,"velocity":0.2755905511811024},{"duration":0.18181800000002113,"midi":43,"time":219.636144,"velocity":0.2755905511811024},{"duration":0.18181800000002113,"midi":43,"time":219.636144,"velocity":0.2755905511811024},{"duration":0.1818179999999927,"midi":43,"time":219.81796200000002,"velocity":0.2755905511811024},{"duration":0.1818179999999927,"midi":55,"time":219.81796200000002,"velocity":0.2755905511811024},{"duration":0.1818179999999927,"midi":55,"time":219.81796200000002,"velocity":0.2755905511811024},{"duration":0.1818179999999927,"midi":43,"time":219.81796200000002,"velocity":0.2755905511811024},{"duration":0.1818179999999927,"midi":43,"time":219.99978000000002,"velocity":0.2755905511811024},{"duration":0.1818179999999927,"midi":31,"time":219.99978000000002,"velocity":0.2755905511811024},{"duration":0.1818179999999927,"midi":43,"time":219.99978000000002,"velocity":0.2755905511811024},{"duration":0.1818179999999927,"midi":31,"time":219.99978000000002,"velocity":0.2755905511811024},{"duration":0.1818179999999927,"midi":55,"time":220.181598,"velocity":0.2755905511811024},{"duration":0.1818179999999927,"midi":43,"time":220.181598,"velocity":0.2755905511811024},{"duration":0.1818179999999927,"midi":43,"time":220.181598,"velocity":0.2755905511811024},{"duration":0.1818179999999927,"midi":43,"time":220.181598,"velocity":0.2755905511811024},{"duration":0.1818179999999927,"midi":55,"time":220.181598,"velocity":0.2755905511811024},{"duration":0.18181800000002113,"midi":43,"time":220.363416,"velocity":0.2755905511811024},{"duration":0.18181800000002113,"midi":31,"time":220.363416,"velocity":0.2755905511811024},{"duration":0.18181800000002113,"midi":31,"time":220.363416,"velocity":0.2755905511811024},{"duration":0.18181800000002113,"midi":43,"time":220.363416,"velocity":0.2755905511811024},{"duration":0.1818179999999927,"midi":43,"time":220.54523400000002,"velocity":0.2755905511811024},{"duration":0.1818179999999927,"midi":55,"time":220.54523400000002,"velocity":0.2755905511811024},{"duration":0.1818179999999927,"midi":55,"time":220.54523400000002,"velocity":0.2755905511811024},{"duration":0.1818179999999927,"midi":43,"time":220.54523400000002,"velocity":0.2755905511811024},{"duration":0.1818179999999927,"midi":43,"time":220.72705200000001,"velocity":0.2755905511811024},{"duration":0.1818179999999927,"midi":31,"time":220.72705200000001,"velocity":0.2755905511811024},{"duration":0.1818179999999927,"midi":31,"time":220.72705200000001,"velocity":0.2755905511811024},{"duration":0.1818179999999927,"midi":43,"time":220.72705200000001,"velocity":0.2755905511811024},{"duration":0.1818179999999927,"midi":55,"time":220.90887,"velocity":0.2755905511811024},{"duration":0.1818179999999927,"midi":55,"time":220.90887,"velocity":0.2755905511811024},{"duration":0.1818179999999927,"midi":43,"time":220.90887,"velocity":0.2755905511811024},{"duration":0.1818179999999927,"midi":43,"time":220.90887,"velocity":0.2755905511811024},{"duration":0.18181800000002113,"midi":31,"time":221.090688,"velocity":0.2755905511811024},{"duration":0.1818179999999927,"midi":43,"time":221.27250600000002,"velocity":0.2755905511811024},{"duration":0.1818179999999927,"midi":31,"time":221.454324,"velocity":0.2755905511811024},{"duration":0.1818179999999927,"midi":43,"time":221.636142,"velocity":0.2755905511811024},{"duration":0.18181800000002113,"midi":31,"time":221.81796,"velocity":0.2755905511811024},{"duration":0.1818179999999927,"midi":43,"time":221.99977800000002,"velocity":0.2755905511811024},{"duration":0.1818179999999927,"midi":31,"time":222.181596,"velocity":0.2755905511811024},{"duration":0.1818179999999927,"midi":43,"time":222.363414,"velocity":0.2755905511811024},{"duration":0.18181800000002113,"midi":31,"time":222.545232,"velocity":0.2755905511811024},{"duration":0.1818179999999927,"midi":43,"time":222.72705000000002,"velocity":0.2755905511811024},{"duration":0.1818179999999927,"midi":31,"time":222.908868,"velocity":0.2755905511811024},{"duration":0.1818179999999927,"midi":43,"time":223.090686,"velocity":0.2755905511811024},{"duration":0.18181800000002113,"midi":31,"time":223.272504,"velocity":0.2755905511811024},{"duration":0.1818179999999927,"midi":43,"time":223.45432200000002,"velocity":0.2755905511811024},{"duration":0.1818179999999927,"midi":31,"time":223.63614,"velocity":0.2755905511811024},{"duration":0.1818179999999927,"midi":43,"time":223.817958,"velocity":0.2755905511811024},{"duration":0.18181800000002113,"midi":31,"time":223.999776,"velocity":0.2755905511811024},{"duration":0.1818179999999927,"midi":43,"time":224.18159400000002,"velocity":0.2755905511811024},{"duration":0.1818179999999927,"midi":31,"time":224.363412,"velocity":0.2755905511811024},{"duration":0.1818179999999927,"midi":43,"time":224.54523,"velocity":0.2755905511811024},{"duration":0.18181800000002113,"midi":31,"time":224.727048,"velocity":0.2755905511811024},{"duration":0.1818179999999927,"midi":43,"time":224.90886600000002,"velocity":0.2755905511811024},{"duration":0.1818179999999927,"midi":31,"time":225.090684,"velocity":0.2755905511811024},{"duration":0.1818179999999927,"midi":43,"time":225.272502,"velocity":0.2755905511811024},{"duration":0.18181800000002113,"midi":31,"time":225.45432,"velocity":0.2755905511811024},{"duration":0.1818179999999927,"midi":43,"time":225.63613800000002,"velocity":0.2755905511811024},{"duration":0.1818179999999927,"midi":31,"time":225.817956,"velocity":0.2755905511811024},{"duration":0.18181800000002113,"midi":43,"time":225.999774,"velocity":0.2755905511811024},{"duration":0.1818179999999927,"midi":31,"time":226.18159200000002,"velocity":0.2755905511811024},{"duration":0.1818179999999927,"midi":43,"time":226.36341000000002,"velocity":0.2755905511811024},{"duration":0.1818179999999927,"midi":31,"time":226.545228,"velocity":0.2755905511811024},{"duration":0.18181800000002113,"midi":43,"time":226.727046,"velocity":0.2755905511811024},{"duration":0.1818179999999927,"midi":31,"time":226.90886400000002,"velocity":0.2755905511811024},{"duration":0.1818179999999927,"midi":43,"time":227.09068200000002,"velocity":0.2755905511811024},{"duration":0.1818179999999927,"midi":31,"time":227.2725,"velocity":0.2755905511811024},{"duration":0.18181800000002113,"midi":43,"time":227.454318,"velocity":0.2755905511811024},{"duration":0.1818179999999927,"midi":31,"time":227.63613600000002,"velocity":0.2755905511811024},{"duration":0.1818179999999927,"midi":43,"time":227.81795400000001,"velocity":0.2755905511811024},{"duration":0.1818179999999927,"midi":31,"time":227.999772,"velocity":0.2755905511811024},{"duration":0.18181800000002113,"midi":43,"time":228.18159,"velocity":0.2755905511811024},{"duration":0.1818179999999927,"midi":31,"time":228.36340800000002,"velocity":0.2755905511811024},{"duration":0.1818179999999927,"midi":43,"time":228.545226,"velocity":0.2755905511811024},{"duration":0.1818179999999927,"midi":31,"time":228.727044,"velocity":0.2755905511811024},{"duration":0.18181800000002113,"midi":43,"time":228.908862,"velocity":0.2755905511811024},{"duration":0.1818179999999927,"midi":31,"time":229.09068000000002,"velocity":0.2755905511811024},{"duration":0.1818179999999927,"midi":43,"time":229.272498,"velocity":0.2755905511811024},{"duration":0.1818179999999927,"midi":31,"time":229.454316,"velocity":0.2755905511811024},{"duration":0.18181800000002113,"midi":43,"time":229.636134,"velocity":0.2755905511811024},{"duration":0.1818179999999927,"midi":31,"time":229.81795200000002,"velocity":0.2755905511811024},{"duration":0.1818179999999927,"midi":43,"time":229.99977,"velocity":0.2755905511811024},{"duration":0.1818179999999927,"midi":31,"time":230.181588,"velocity":0.2755905511811024},{"duration":0.18181800000002113,"midi":43,"time":230.363406,"velocity":0.2755905511811024},{"duration":0.1818179999999927,"midi":31,"time":230.54522400000002,"velocity":0.2755905511811024},{"duration":0.1818179999999927,"midi":43,"time":230.727042,"velocity":0.2755905511811024},{"duration":0.1818179999999927,"midi":31,"time":230.90886,"velocity":0.2755905511811024},{"duration":0.18181800000002113,"midi":43,"time":231.090678,"velocity":0.2755905511811024},{"duration":0.1818179999999927,"midi":31,"time":231.27249600000002,"velocity":0.2755905511811024},{"duration":0.1818179999999927,"midi":43,"time":231.454314,"velocity":0.2755905511811024},{"duration":0.1818179999999927,"midi":31,"time":231.636132,"velocity":0.2755905511811024},{"duration":0.18181800000002113,"midi":43,"time":231.81795,"velocity":0.2755905511811024},{"duration":0.1818179999999927,"midi":31,"time":231.99976800000002,"velocity":0.2755905511811024},{"duration":0.1818179999999927,"midi":43,"time":232.181586,"velocity":0.2755905511811024},{"duration":0.1818179999999927,"midi":31,"time":232.363404,"velocity":0.2755905511811024},{"duration":0.18181800000002113,"midi":43,"time":232.545222,"velocity":0.2755905511811024},{"duration":0.1818179999999927,"midi":31,"time":232.72704000000002,"velocity":0.2755905511811024},{"duration":0.1818179999999927,"midi":43,"time":232.908858,"velocity":0.2755905511811024},{"duration":0.18181800000002113,"midi":31,"time":233.090676,"velocity":0.2755905511811024},{"duration":0.1818179999999927,"midi":43,"time":233.27249400000002,"velocity":0.2755905511811024},{"duration":0.1818179999999927,"midi":31,"time":233.45431200000002,"velocity":0.2755905511811024},{"duration":0.1818179999999927,"midi":43,"time":233.63613,"velocity":0.2755905511811024},{"duration":0.18181800000002113,"midi":31,"time":233.817948,"velocity":0.2755905511811024},{"duration":0.1818179999999927,"midi":43,"time":233.99976600000002,"velocity":0.2755905511811024},{"duration":0.1818179999999927,"midi":31,"time":234.18158400000002,"velocity":0.2755905511811024},{"duration":0.1818179999999927,"midi":43,"time":234.363402,"velocity":0.2755905511811024},{"duration":0.18181800000002113,"midi":31,"time":234.54522,"velocity":0.2755905511811024},{"duration":0.1818179999999927,"midi":43,"time":234.72703800000002,"velocity":0.2755905511811024},{"duration":0.1818179999999927,"midi":31,"time":234.90885600000001,"velocity":0.2755905511811024},{"duration":0.1818179999999927,"midi":43,"time":235.090674,"velocity":0.2755905511811024},{"duration":0.18181800000002113,"midi":31,"time":235.272492,"velocity":0.2755905511811024},{"duration":0.1818179999999927,"midi":43,"time":235.45431000000002,"velocity":0.2755905511811024},{"duration":0.1818179999999927,"midi":31,"time":235.636128,"velocity":0.2755905511811024},{"duration":0.1818179999999927,"midi":43,"time":235.817946,"velocity":0.2755905511811024},{"duration":0.18181800000002113,"midi":31,"time":235.999764,"velocity":0.2755905511811024},{"duration":0.1818179999999927,"midi":43,"time":236.18158200000002,"velocity":0.2755905511811024},{"duration":0.1818179999999927,"midi":31,"time":236.3634,"velocity":0.2755905511811024},{"duration":0.1818179999999927,"midi":43,"time":236.545218,"velocity":0.2755905511811024},{"duration":0.18181800000002113,"midi":31,"time":236.727036,"velocity":0.2755905511811024},{"duration":0.1818179999999927,"midi":43,"time":236.90885400000002,"velocity":0.2755905511811024},{"duration":0.1818179999999927,"midi":31,"time":237.090672,"velocity":0.2755905511811024},{"duration":0.1818179999999927,"midi":43,"time":237.27249,"velocity":0.2755905511811024},{"duration":0.18181800000002113,"midi":31,"time":237.454308,"velocity":0.2755905511811024},{"duration":0.1818179999999927,"midi":43,"time":237.63612600000002,"velocity":0.2755905511811024},{"duration":0.1818179999999927,"midi":31,"time":237.817944,"velocity":0.2755905511811024},{"duration":0.1818179999999927,"midi":43,"time":237.999762,"velocity":0.2755905511811024},{"duration":0.18181800000002113,"midi":31,"time":238.18158,"velocity":0.2755905511811024},{"duration":0.1818179999999927,"midi":43,"time":238.36339800000002,"velocity":0.2755905511811024},{"duration":0.1818179999999927,"midi":31,"time":238.545216,"velocity":0.2755905511811024},{"duration":0.1818179999999927,"midi":43,"time":238.727034,"velocity":0.2755905511811024},{"duration":0.18181800000002113,"midi":31,"time":238.908852,"velocity":0.2755905511811024},{"duration":0.1818179999999927,"midi":43,"time":239.09067000000002,"velocity":0.2755905511811024},{"duration":0.1818179999999927,"midi":31,"time":239.272488,"velocity":0.2755905511811024},{"duration":0.18181800000002113,"midi":43,"time":239.454306,"velocity":0.2755905511811024},{"duration":0.1818179999999927,"midi":31,"time":239.63612400000002,"velocity":0.2755905511811024},{"duration":0.1818179999999927,"midi":43,"time":239.81794200000002,"velocity":0.2755905511811024},{"duration":0.1818179999999927,"midi":31,"time":239.99976,"velocity":0.2755905511811024},{"duration":0.18181800000002113,"midi":43,"time":240.181578,"velocity":0.2755905511811024},{"duration":0.1818179999999927,"midi":31,"time":240.36339600000002,"velocity":0.2755905511811024},{"duration":0.1818179999999927,"midi":43,"time":240.54521400000002,"velocity":0.2755905511811024},{"duration":0.1818179999999927,"midi":31,"time":240.727032,"velocity":0.2755905511811024},{"duration":0.18181800000002113,"midi":43,"time":240.90885,"velocity":0.2755905511811024},{"duration":0.1818179999999927,"midi":31,"time":241.09066800000002,"velocity":0.2755905511811024},{"duration":0.1818179999999927,"midi":43,"time":241.27248600000001,"velocity":0.2755905511811024},{"duration":0.1818179999999927,"midi":31,"time":241.454304,"velocity":0.2755905511811024},{"duration":0.18181800000002113,"midi":43,"time":241.636122,"velocity":0.2755905511811024},{"duration":0.1818179999999927,"midi":31,"time":241.81794000000002,"velocity":0.2755905511811024},{"duration":0.1818179999999927,"midi":43,"time":241.999758,"velocity":0.2755905511811024},{"duration":0.1818179999999927,"midi":31,"time":242.181576,"velocity":0.2755905511811024},{"duration":0.18181800000002113,"midi":43,"time":242.363394,"velocity":0.2755905511811024},{"duration":0.1818179999999927,"midi":31,"time":242.54521200000002,"velocity":0.2755905511811024},{"duration":0.1818179999999927,"midi":43,"time":242.72703,"velocity":0.2755905511811024},{"duration":0.1818179999999927,"midi":31,"time":242.908848,"velocity":0.2755905511811024},{"duration":0.18181800000002113,"midi":43,"time":243.090666,"velocity":0.2755905511811024},{"duration":0.1818179999999927,"midi":31,"time":243.27248400000002,"velocity":0.2755905511811024},{"duration":0.1818179999999927,"midi":43,"time":243.454302,"velocity":0.2755905511811024},{"duration":0.1818179999999927,"midi":31,"time":243.63612,"velocity":0.2755905511811024},{"duration":0.18181800000002113,"midi":43,"time":243.817938,"velocity":0.2755905511811024},{"duration":0.18181800000002113,"midi":43,"time":243.817938,"velocity":0.2755905511811024},{"duration":0.18181800000002113,"midi":43,"time":243.817938,"velocity":0.2755905511811024},{"duration":0.1818179999999927,"midi":31,"time":243.99975600000002,"velocity":0.2755905511811024},{"duration":0.1818179999999927,"midi":43,"time":244.181574,"velocity":0.2755905511811024},{"duration":0.18181800000002113,"midi":43,"time":267.636096,"velocity":0.2755905511811024},{"duration":0.18181800000002113,"midi":31,"time":267.636096,"velocity":0.2755905511811024},{"duration":0.18181800000002113,"midi":43,"time":267.636096,"velocity":0.2755905511811024},{"duration":0.18181800000002113,"midi":31,"time":267.636096,"velocity":0.2755905511811024},{"duration":0.18181799999996429,"midi":50,"time":267.81791400000003,"velocity":0.2755905511811024},{"duration":0.18181799999996429,"midi":50,"time":267.81791400000003,"velocity":0.2755905511811024},{"duration":0.18181799999996429,"midi":43,"time":267.81791400000003,"velocity":0.2755905511811024},{"duration":0.18181799999996429,"midi":43,"time":267.81791400000003,"velocity":0.2755905511811024},{"duration":0.18181800000002113,"midi":43,"time":267.999732,"velocity":0.2755905511811024},{"duration":0.18181800000002113,"midi":43,"time":267.999732,"velocity":0.2755905511811024},{"duration":0.18181800000002113,"midi":31,"time":267.999732,"velocity":0.2755905511811024},{"duration":0.18181800000002113,"midi":31,"time":267.999732,"velocity":0.2755905511811024},{"duration":0.18181800000002113,"midi":50,"time":268.18155,"velocity":0.2755905511811024},{"duration":0.18181800000002113,"midi":43,"time":268.18155,"velocity":0.2755905511811024},{"duration":0.18181800000002113,"midi":50,"time":268.18155,"velocity":0.2755905511811024},{"duration":0.18181800000002113,"midi":43,"time":268.18155,"velocity":0.2755905511811024},{"duration":0.18181799999996429,"midi":43,"time":268.36336800000004,"velocity":0.2755905511811024},{"duration":0.18181799999996429,"midi":31,"time":268.36336800000004,"velocity":0.2755905511811024},{"duration":0.18181799999996429,"midi":43,"time":268.36336800000004,"velocity":0.2755905511811024},{"duration":0.18181799999996429,"midi":31,"time":268.36336800000004,"velocity":0.2755905511811024},{"duration":0.18181800000002113,"midi":43,"time":268.545186,"velocity":0.2755905511811024},{"duration":0.18181800000002113,"midi":50,"time":268.545186,"velocity":0.2755905511811024},{"duration":0.18181800000002113,"midi":50,"time":268.545186,"velocity":0.2755905511811024},{"duration":0.18181800000002113,"midi":43,"time":268.545186,"velocity":0.2755905511811024},{"duration":0.18181799999996429,"midi":31,"time":268.727004,"velocity":0.2755905511811024},{"duration":0.18181799999996429,"midi":43,"time":268.727004,"velocity":0.2755905511811024},{"duration":0.18181799999996429,"midi":31,"time":268.727004,"velocity":0.2755905511811024},{"duration":0.18181799999996429,"midi":43,"time":268.727004,"velocity":0.2755905511811024},{"duration":0.18181800000002113,"midi":50,"time":268.908822,"velocity":0.2755905511811024},{"duration":0.18181800000002113,"midi":50,"time":268.908822,"velocity":0.2755905511811024},{"duration":0.18181800000002113,"midi":43,"time":268.908822,"velocity":0.2755905511811024},{"duration":0.18181800000002113,"midi":43,"time":268.908822,"velocity":0.2755905511811024},{"duration":0.18181800000002113,"midi":40,"time":269.09064,"velocity":0.2755905511811024},{"duration":0.18181800000002113,"midi":28,"time":269.09064,"velocity":0.2755905511811024},{"duration":0.18181800000002113,"midi":28,"time":269.09064,"velocity":0.2755905511811024},{"duration":0.18181800000002113,"midi":40,"time":269.09064,"velocity":0.2755905511811024},{"duration":0.18181799999996429,"midi":46,"time":269.27245800000003,"velocity":0.2755905511811024},{"duration":0.18181799999996429,"midi":40,"time":269.27245800000003,"velocity":0.2755905511811024},{"duration":0.18181799999996429,"midi":40,"time":269.27245800000003,"velocity":0.2755905511811024},{"duration":0.18181799999996429,"midi":46,"time":269.27245800000003,"velocity":0.2755905511811024},{"duration":0.18181800000002113,"midi":40,"time":269.454276,"velocity":0.2755905511811024},{"duration":0.18181800000002113,"midi":28,"time":269.454276,"velocity":0.2755905511811024},{"duration":0.18181800000002113,"midi":28,"time":269.454276,"velocity":0.2755905511811024},{"duration":0.18181800000002113,"midi":40,"time":269.454276,"velocity":0.2755905511811024},{"duration":0.18181800000002113,"midi":40,"time":269.636094,"velocity":0.2755905511811024},{"duration":0.18181800000002113,"midi":46,"time":269.636094,"velocity":0.2755905511811024},{"duration":0.18181800000002113,"midi":40,"time":269.636094,"velocity":0.2755905511811024},{"duration":0.18181800000002113,"midi":46,"time":269.636094,"velocity":0.2755905511811024},{"duration":0.18181799999996429,"midi":28,"time":269.81791200000004,"velocity":0.2755905511811024},{"duration":0.18181799999996429,"midi":28,"time":269.81791200000004,"velocity":0.2755905511811024},{"duration":0.18181799999996429,"midi":40,"time":269.81791200000004,"velocity":0.2755905511811024},{"duration":0.18181799999996429,"midi":40,"time":269.81791200000004,"velocity":0.2755905511811024},{"duration":0.18181800000002113,"midi":40,"time":269.99973,"velocity":0.2755905511811024},{"duration":0.18181800000002113,"midi":46,"time":269.99973,"velocity":0.2755905511811024},{"duration":0.18181800000002113,"midi":40,"time":269.99973,"velocity":0.2755905511811024},{"duration":0.18181800000002113,"midi":46,"time":269.99973,"velocity":0.2755905511811024},{"duration":0.18181799999996429,"midi":40,"time":270.181548,"velocity":0.2755905511811024},{"duration":0.18181799999996429,"midi":28,"time":270.181548,"velocity":0.2755905511811024},{"duration":0.18181799999996429,"midi":28,"time":270.181548,"velocity":0.2755905511811024},{"duration":0.18181799999996429,"midi":40,"time":270.181548,"velocity":0.2755905511811024},{"duration":0.18181800000002113,"midi":46,"time":270.363366,"velocity":0.2755905511811024},{"duration":0.18181800000002113,"midi":40,"time":270.363366,"velocity":0.2755905511811024},{"duration":0.18181800000002113,"midi":46,"time":270.363366,"velocity":0.2755905511811024},{"duration":0.18181800000002113,"midi":40,"time":270.363366,"velocity":0.2755905511811024},{"duration":0.18181800000002113,"midi":41,"time":270.545184,"velocity":0.2755905511811024},{"duration":0.18181800000002113,"midi":29,"time":270.545184,"velocity":0.2755905511811024},{"duration":0.18181800000002113,"midi":29,"time":270.545184,"velocity":0.2755905511811024},{"duration":0.18181800000002113,"midi":41,"time":270.545184,"velocity":0.2755905511811024},{"duration":0.18181799999996429,"midi":48,"time":270.727002,"velocity":0.2755905511811024},{"duration":0.18181799999996429,"midi":41,"time":270.727002,"velocity":0.2755905511811024},{"duration":0.18181799999996429,"midi":48,"time":270.727002,"velocity":0.2755905511811024},{"duration":0.18181799999996429,"midi":41,"time":270.727002,"velocity":0.2755905511811024},{"duration":0.18181800000002113,"midi":41,"time":270.90882,"velocity":0.2755905511811024},{"duration":0.18181800000002113,"midi":29,"time":270.90882,"velocity":0.2755905511811024},{"duration":0.18181800000002113,"midi":29,"time":270.90882,"velocity":0.2755905511811024},{"duration":0.18181800000002113,"midi":41,"time":270.90882,"velocity":0.2755905511811024},{"duration":0.18181800000002113,"midi":48,"time":271.090638,"velocity":0.2755905511811024},{"duration":0.18181800000002113,"midi":48,"time":271.090638,"velocity":0.2755905511811024},{"duration":0.18181800000002113,"midi":41,"time":271.090638,"velocity":0.2755905511811024},{"duration":0.18181800000002113,"midi":41,"time":271.090638,"velocity":0.2755905511811024},{"duration":0.18181799999996429,"midi":29,"time":271.27245600000003,"velocity":0.2755905511811024},{"duration":0.18181799999996429,"midi":41,"time":271.27245600000003,"velocity":0.2755905511811024},{"duration":0.18181799999996429,"midi":41,"time":271.27245600000003,"velocity":0.2755905511811024},{"duration":0.18181799999996429,"midi":29,"time":271.27245600000003,"velocity":0.2755905511811024},{"duration":0.18181800000002113,"midi":48,"time":271.454274,"velocity":0.2755905511811024},{"duration":0.18181800000002113,"midi":48,"time":271.454274,"velocity":0.2755905511811024},{"duration":0.18181800000002113,"midi":41,"time":271.454274,"velocity":0.2755905511811024},{"duration":0.18181800000002113,"midi":41,"time":271.454274,"velocity":0.2755905511811024},{"duration":0.18181799999996429,"midi":29,"time":271.636092,"velocity":0.2755905511811024},{"duration":0.18181799999996429,"midi":41,"time":271.636092,"velocity":0.2755905511811024},{"duration":0.18181799999996429,"midi":29,"time":271.636092,"velocity":0.2755905511811024},{"duration":0.18181799999996429,"midi":41,"time":271.636092,"velocity":0.2755905511811024},{"duration":0.18181800000002113,"midi":41,"time":271.81791,"velocity":0.2755905511811024},{"duration":0.18181800000002113,"midi":48,"time":271.81791,"velocity":0.2755905511811024},{"duration":0.18181800000002113,"midi":41,"time":271.81791,"velocity":0.2755905511811024},{"duration":0.18181800000002113,"midi":48,"time":271.81791,"velocity":0.2755905511811024},{"duration":0.18181800000002113,"midi":43,"time":271.999728,"velocity":0.2755905511811024},{"duration":0.18181800000002113,"midi":31,"time":271.999728,"velocity":0.2755905511811024},{"duration":0.18181800000002113,"midi":31,"time":271.999728,"velocity":0.2755905511811024},{"duration":0.18181800000002113,"midi":43,"time":271.999728,"velocity":0.2755905511811024},{"duration":0.18181799999996429,"midi":50,"time":272.181546,"velocity":0.2755905511811024},{"duration":0.18181799999996429,"midi":43,"time":272.181546,"velocity":0.2755905511811024},{"duration":0.18181799999996429,"midi":43,"time":272.181546,"velocity":0.2755905511811024},{"duration":0.18181799999996429,"midi":50,"time":272.181546,"velocity":0.2755905511811024},{"duration":0.18181800000002113,"midi":43,"time":272.363364,"velocity":0.2755905511811024},{"duration":0.18181800000002113,"midi":43,"time":272.363364,"velocity":0.2755905511811024},{"duration":0.18181800000002113,"midi":31,"time":272.363364,"velocity":0.2755905511811024},{"duration":0.18181800000002113,"midi":31,"time":272.363364,"velocity":0.2755905511811024},{"duration":0.18181800000002113,"midi":50,"time":272.545182,"velocity":0.2755905511811024},{"duration":0.18181800000002113,"midi":50,"time":272.545182,"velocity":0.2755905511811024},{"duration":0.18181800000002113,"midi":43,"time":272.545182,"velocity":0.2755905511811024},{"duration":0.18181800000002113,"midi":43,"time":272.545182,"velocity":0.2755905511811024},{"duration":0.18181799999996429,"midi":43,"time":272.72700000000003,"velocity":0.2755905511811024},{"duration":0.18181799999996429,"midi":31,"time":272.72700000000003,"velocity":0.2755905511811024},{"duration":0.18181799999996429,"midi":43,"time":272.72700000000003,"velocity":0.2755905511811024},{"duration":0.18181799999996429,"midi":31,"time":272.72700000000003,"velocity":0.2755905511811024},{"duration":0.18181800000002113,"midi":43,"time":272.908818,"velocity":0.2755905511811024},{"duration":0.18181800000002113,"midi":50,"time":272.908818,"velocity":0.2755905511811024},{"duration":0.18181800000002113,"midi":50,"time":272.908818,"velocity":0.2755905511811024},{"duration":0.18181800000002113,"midi":43,"time":272.908818,"velocity":0.2755905511811024},{"duration":0.18181800000002113,"midi":31,"time":273.090636,"velocity":0.2755905511811024},{"duration":0.18181800000002113,"midi":43,"time":273.090636,"velocity":0.2755905511811024},{"duration":0.18181800000002113,"midi":31,"time":273.090636,"velocity":0.2755905511811024},{"duration":0.18181800000002113,"midi":43,"time":273.090636,"velocity":0.2755905511811024},{"duration":0.18181799999996429,"midi":43,"time":273.27245400000004,"velocity":0.2755905511811024},{"duration":0.18181799999996429,"midi":43,"time":273.27245400000004,"velocity":0.2755905511811024},{"duration":0.18181799999996429,"midi":50,"time":273.27245400000004,"velocity":0.2755905511811024},{"duration":0.18181799999996429,"midi":50,"time":273.27245400000004,"velocity":0.2755905511811024},{"duration":0.18181800000002113,"midi":31,"time":273.454272,"velocity":0.2755905511811024},{"duration":0.18181800000002113,"midi":43,"time":273.454272,"velocity":0.2755905511811024},{"duration":0.18181800000002113,"midi":43,"time":273.454272,"velocity":0.2755905511811024},{"duration":0.18181800000002113,"midi":31,"time":273.454272,"velocity":0.2755905511811024},{"duration":0.18181799999996429,"midi":43,"time":273.63609,"velocity":0.2755905511811024},{"duration":0.18181799999996429,"midi":50,"time":273.63609,"velocity":0.2755905511811024},{"duration":0.18181799999996429,"midi":43,"time":273.63609,"velocity":0.2755905511811024},{"duration":0.18181799999996429,"midi":50,"time":273.63609,"velocity":0.2755905511811024},{"duration":0.18181800000002113,"midi":31,"time":273.817908,"velocity":0.2755905511811024},{"duration":0.18181800000002113,"midi":31,"time":273.817908,"velocity":0.2755905511811024},{"duration":0.18181800000002113,"midi":43,"time":273.817908,"velocity":0.2755905511811024},{"duration":0.18181800000002113,"midi":43,"time":273.817908,"velocity":0.2755905511811024},{"duration":0.18181800000002113,"midi":50,"time":273.999726,"velocity":0.2755905511811024},{"duration":0.18181800000002113,"midi":50,"time":273.999726,"velocity":0.2755905511811024},{"duration":0.18181800000002113,"midi":43,"time":273.999726,"velocity":0.2755905511811024},{"duration":0.18181800000002113,"midi":43,"time":273.999726,"velocity":0.2755905511811024},{"duration":0.18181799999996429,"midi":43,"time":274.18154400000003,"velocity":0.2755905511811024},{"duration":0.18181799999996429,"midi":31,"time":274.18154400000003,"velocity":0.2755905511811024},{"duration":0.18181799999996429,"midi":43,"time":274.18154400000003,"velocity":0.2755905511811024},{"duration":0.18181799999996429,"midi":31,"time":274.18154400000003,"velocity":0.2755905511811024},{"duration":0.18181800000002113,"midi":43,"time":274.363362,"velocity":0.2755905511811024},{"duration":0.18181800000002113,"midi":50,"time":274.363362,"velocity":0.2755905511811024},{"duration":0.18181800000002113,"midi":43,"time":274.363362,"velocity":0.2755905511811024},{"duration":0.18181800000002113,"midi":50,"time":274.363362,"velocity":0.2755905511811024},{"duration":0.18181800000002113,"midi":31,"time":274.54518,"velocity":0.2755905511811024},{"duration":0.18181800000002113,"midi":31,"time":274.54518,"velocity":0.2755905511811024},{"duration":0.18181800000002113,"midi":43,"time":274.54518,"velocity":0.2755905511811024},{"duration":0.18181800000002113,"midi":43,"time":274.54518,"velocity":0.2755905511811024},{"duration":0.18181799999996429,"midi":50,"time":274.72699800000004,"velocity":0.2755905511811024},{"duration":0.18181799999996429,"midi":50,"time":274.72699800000004,"velocity":0.2755905511811024},{"duration":0.18181799999996429,"midi":43,"time":274.72699800000004,"velocity":0.2755905511811024},{"duration":0.18181799999996429,"midi":43,"time":274.72699800000004,"velocity":0.2755905511811024},{"duration":0.18181800000002113,"midi":40,"time":274.908816,"velocity":0.2755905511811024},{"duration":0.18181800000002113,"midi":40,"time":274.908816,"velocity":0.2755905511811024},{"duration":0.18181800000002113,"midi":28,"time":274.908816,"velocity":0.2755905511811024},{"duration":0.18181800000002113,"midi":28,"time":274.908816,"velocity":0.2755905511811024},{"duration":0.18181799999996429,"midi":46,"time":275.090634,"velocity":0.2755905511811024},{"duration":0.18181799999996429,"midi":40,"time":275.090634,"velocity":0.2755905511811024},{"duration":0.18181799999996429,"midi":46,"time":275.090634,"velocity":0.2755905511811024},{"duration":0.18181799999996429,"midi":40,"time":275.090634,"velocity":0.2755905511811024},{"duration":0.18181800000002113,"midi":40,"time":275.272452,"velocity":0.2755905511811024},{"duration":0.18181800000002113,"midi":28,"time":275.272452,"velocity":0.2755905511811024},{"duration":0.18181800000002113,"midi":28,"time":275.272452,"velocity":0.2755905511811024},{"duration":0.18181800000002113,"midi":40,"time":275.272452,"velocity":0.2755905511811024},{"duration":0.18181800000002113,"midi":46,"time":275.45427,"velocity":0.2755905511811024},{"duration":0.18181800000002113,"midi":40,"time":275.45427,"velocity":0.2755905511811024},{"duration":0.18181800000002113,"midi":46,"time":275.45427,"velocity":0.2755905511811024},{"duration":0.18181800000002113,"midi":40,"time":275.45427,"velocity":0.2755905511811024},{"duration":0.18181799999996429,"midi":28,"time":275.63608800000003,"velocity":0.2755905511811024},{"duration":0.18181799999996429,"midi":40,"time":275.63608800000003,"velocity":0.2755905511811024},{"duration":0.18181799999996429,"midi":40,"time":275.63608800000003,"velocity":0.2755905511811024},{"duration":0.18181799999996429,"midi":28,"time":275.63608800000003,"velocity":0.2755905511811024},{"duration":0.18181800000002113,"midi":46,"time":275.817906,"velocity":0.2755905511811024},{"duration":0.18181800000002113,"midi":46,"time":275.817906,"velocity":0.2755905511811024},{"duration":0.18181800000002113,"midi":40,"time":275.817906,"velocity":0.2755905511811024},{"duration":0.18181800000002113,"midi":40,"time":275.817906,"velocity":0.2755905511811024},{"duration":0.18181800000002113,"midi":40,"time":275.999724,"velocity":0.2755905511811024},{"duration":0.18181800000002113,"midi":28,"time":275.999724,"velocity":0.2755905511811024},{"duration":0.18181800000002113,"midi":28,"time":275.999724,"velocity":0.2755905511811024},{"duration":0.18181800000002113,"midi":40,"time":275.999724,"velocity":0.2755905511811024},{"duration":0.18181799999996429,"midi":40,"time":276.18154200000004,"velocity":0.2755905511811024},{"duration":0.18181799999996429,"midi":46,"time":276.18154200000004,"velocity":0.2755905511811024},{"duration":0.18181799999996429,"midi":46,"time":276.18154200000004,"velocity":0.2755905511811024},{"duration":0.18181799999996429,"midi":40,"time":276.18154200000004,"velocity":0.2755905511811024},{"duration":0.18181800000002113,"midi":29,"time":276.36336,"velocity":0.2755905511811024},{"duration":0.18181800000002113,"midi":29,"time":276.36336,"velocity":0.2755905511811024},{"duration":0.18181800000002113,"midi":41,"time":276.36336,"velocity":0.2755905511811024},{"duration":0.18181800000002113,"midi":41,"time":276.36336,"velocity":0.2755905511811024},{"duration":0.18181799999996429,"midi":48,"time":276.545178,"velocity":0.2755905511811024},{"duration":0.18181799999996429,"midi":41,"time":276.545178,"velocity":0.2755905511811024},{"duration":0.18181799999996429,"midi":41,"time":276.545178,"velocity":0.2755905511811024},{"duration":0.18181799999996429,"midi":48,"time":276.545178,"velocity":0.2755905511811024},{"duration":0.18181800000002113,"midi":41,"time":276.726996,"velocity":0.2755905511811024},{"duration":0.18181800000002113,"midi":29,"time":276.726996,"velocity":0.2755905511811024},{"duration":0.18181800000002113,"midi":41,"time":276.726996,"velocity":0.2755905511811024},{"duration":0.18181800000002113,"midi":29,"time":276.726996,"velocity":0.2755905511811024},{"duration":0.18181800000002113,"midi":48,"time":276.908814,"velocity":0.2755905511811024},{"duration":0.18181800000002113,"midi":48,"time":276.908814,"velocity":0.2755905511811024},{"duration":0.18181800000002113,"midi":41,"time":276.908814,"velocity":0.2755905511811024},{"duration":0.18181800000002113,"midi":41,"time":276.908814,"velocity":0.2755905511811024},{"duration":0.18181799999996429,"midi":41,"time":277.090632,"velocity":0.2755905511811024},{"duration":0.18181799999996429,"midi":29,"time":277.090632,"velocity":0.2755905511811024},{"duration":0.18181799999996429,"midi":29,"time":277.090632,"velocity":0.2755905511811024},{"duration":0.18181799999996429,"midi":41,"time":277.090632,"velocity":0.2755905511811024},{"duration":0.18181800000002113,"midi":48,"time":277.27245,"velocity":0.2755905511811024},{"duration":0.18181800000002113,"midi":41,"time":277.27245,"velocity":0.2755905511811024},{"duration":0.18181800000002113,"midi":41,"time":277.27245,"velocity":0.2755905511811024},{"duration":0.18181800000002113,"midi":48,"time":277.27245,"velocity":0.2755905511811024},{"duration":0.18181800000002113,"midi":29,"time":277.454268,"velocity":0.2755905511811024},{"duration":0.18181800000002113,"midi":29,"time":277.454268,"velocity":0.2755905511811024},{"duration":0.18181800000002113,"midi":41,"time":277.454268,"velocity":0.2755905511811024},{"duration":0.18181800000002113,"midi":41,"time":277.454268,"velocity":0.2755905511811024},{"duration":0.18181799999996429,"midi":48,"time":277.63608600000003,"velocity":0.2755905511811024},{"duration":0.18181799999996429,"midi":48,"time":277.63608600000003,"velocity":0.2755905511811024},{"duration":0.18181799999996429,"midi":41,"time":277.63608600000003,"velocity":0.2755905511811024},{"duration":0.18181799999996429,"midi":41,"time":277.63608600000003,"velocity":0.2755905511811024},{"duration":0.18181800000002113,"midi":31,"time":277.817904,"velocity":0.2755905511811024},{"duration":0.18181800000002113,"midi":43,"time":277.817904,"velocity":0.2755905511811024},{"duration":0.18181800000002113,"midi":43,"time":277.817904,"velocity":0.2755905511811024},{"duration":0.18181800000002113,"midi":31,"time":277.817904,"velocity":0.2755905511811024},{"duration":0.18181799999996429,"midi":50,"time":277.999722,"velocity":0.2755905511811024},{"duration":0.18181799999996429,"midi":43,"time":277.999722,"velocity":0.2755905511811024},{"duration":0.18181799999996429,"midi":50,"time":277.999722,"velocity":0.2755905511811024},{"duration":0.18181799999996429,"midi":43,"time":277.999722,"velocity":0.2755905511811024},{"duration":0.18181800000002113,"midi":43,"time":278.18154,"velocity":0.2755905511811024},{"duration":0.18181800000002113,"midi":31,"time":278.18154,"velocity":0.2755905511811024},{"duration":0.18181800000002113,"midi":43,"time":278.18154,"velocity":0.2755905511811024},{"duration":0.18181800000002113,"midi":31,"time":278.18154,"velocity":0.2755905511811024},{"duration":0.18181800000002113,"midi":50,"time":278.363358,"velocity":0.2755905511811024},{"duration":0.18181800000002113,"midi":43,"time":278.363358,"velocity":0.2755905511811024},{"duration":0.18181800000002113,"midi":43,"time":278.363358,"velocity":0.2755905511811024},{"duration":0.18181800000002113,"midi":50,"time":278.363358,"velocity":0.2755905511811024},{"duration":0.18181799999996429,"midi":31,"time":278.545176,"velocity":0.2755905511811024},{"duration":0.18181799999996429,"midi":43,"time":278.545176,"velocity":0.2755905511811024},{"duration":0.18181799999996429,"midi":31,"time":278.545176,"velocity":0.2755905511811024},{"duration":0.18181799999996429,"midi":43,"time":278.545176,"velocity":0.2755905511811024},{"duration":0.18181800000002113,"midi":50,"time":278.726994,"velocity":0.2755905511811024},{"duration":0.18181800000002113,"midi":50,"time":278.726994,"velocity":0.2755905511811024},{"duration":0.18181800000002113,"midi":43,"time":278.726994,"velocity":0.2755905511811024},{"duration":0.18181800000002113,"midi":43,"time":278.726994,"velocity":0.2755905511811024},{"duration":0.18181800000002113,"midi":43,"time":278.908812,"velocity":0.2755905511811024},{"duration":0.18181800000002113,"midi":31,"time":278.908812,"velocity":0.2755905511811024},{"duration":0.18181800000002113,"midi":31,"time":278.908812,"velocity":0.2755905511811024},{"duration":0.18181800000002113,"midi":43,"time":278.908812,"velocity":0.2755905511811024},{"duration":0.18181799999996429,"midi":43,"time":279.09063000000003,"velocity":0.2755905511811024},{"duration":0.18181799999996429,"midi":50,"time":279.09063000000003,"velocity":0.2755905511811024},{"duration":0.18181799999996429,"midi":50,"time":279.09063000000003,"velocity":0.2755905511811024},{"duration":0.18181799999996429,"midi":43,"time":279.09063000000003,"velocity":0.2755905511811024},{"duration":0.18181800000002113,"midi":31,"time":279.272448,"velocity":0.2755905511811024},{"duration":0.18181800000002113,"midi":43,"time":279.272448,"velocity":0.2755905511811024},{"duration":0.18181800000002113,"midi":43,"time":279.272448,"velocity":0.2755905511811024},{"duration":0.18181800000002113,"midi":31,"time":279.272448,"velocity":0.2755905511811024},{"duration":0.18181800000002113,"midi":50,"time":279.454266,"velocity":0.2755905511811024},{"duration":0.18181800000002113,"midi":43,"time":279.454266,"velocity":0.2755905511811024},{"duration":0.18181800000002113,"midi":43,"time":279.454266,"velocity":0.2755905511811024},{"duration":0.18181800000002113,"midi":50,"time":279.454266,"velocity":0.2755905511811024},{"duration":0.18181799999996429,"midi":43,"time":279.63608400000004,"velocity":0.2755905511811024},{"duration":0.18181799999996429,"midi":31,"time":279.63608400000004,"velocity":0.2755905511811024},{"duration":0.18181799999996429,"midi":31,"time":279.63608400000004,"velocity":0.2755905511811024},{"duration":0.18181799999996429,"midi":43,"time":279.63608400000004,"velocity":0.2755905511811024},{"duration":0.18181800000002113,"midi":50,"time":279.817902,"velocity":0.2755905511811024},{"duration":0.18181800000002113,"midi":50,"time":279.817902,"velocity":0.2755905511811024},{"duration":0.18181800000002113,"midi":43,"time":279.817902,"velocity":0.2755905511811024},{"duration":0.18181800000002113,"midi":43,"time":279.817902,"velocity":0.2755905511811024},{"duration":0.18181799999996429,"midi":43,"time":279.99972,"velocity":0.2755905511811024},{"duration":0.18181799999996429,"midi":31,"time":279.99972,"velocity":0.2755905511811024},{"duration":0.18181799999996429,"midi":43,"time":279.99972,"velocity":0.2755905511811024},{"duration":0.18181799999996429,"midi":31,"time":279.99972,"velocity":0.2755905511811024},{"duration":0.18181800000002113,"midi":43,"time":280.181538,"velocity":0.2755905511811024},{"duration":0.18181800000002113,"midi":50,"time":280.181538,"velocity":0.2755905511811024},{"duration":0.18181800000002113,"midi":50,"time":280.181538,"velocity":0.2755905511811024},{"duration":0.18181800000002113,"midi":43,"time":280.181538,"velocity":0.2755905511811024},{"duration":0.18181800000002113,"midi":43,"time":280.363356,"velocity":0.2755905511811024},{"duration":0.18181800000002113,"midi":43,"time":280.363356,"velocity":0.2755905511811024},{"duration":0.18181800000002113,"midi":31,"time":280.363356,"velocity":0.2755905511811024},{"duration":0.18181800000002113,"midi":31,"time":280.363356,"velocity":0.2755905511811024},{"duration":0.18181799999996429,"midi":50,"time":280.54517400000003,"velocity":0.2755905511811024},{"duration":0.18181799999996429,"midi":43,"time":280.54517400000003,"velocity":0.2755905511811024},{"duration":0.18181799999996429,"midi":50,"time":280.54517400000003,"velocity":0.2755905511811024},{"duration":0.18181799999996429,"midi":43,"time":280.54517400000003,"velocity":0.2755905511811024},{"duration":0.18181800000002113,"midi":40,"time":280.726992,"velocity":0.2755905511811024},{"duration":0.18181800000002113,"midi":28,"time":280.726992,"velocity":0.2755905511811024},{"duration":0.18181800000002113,"midi":28,"time":280.726992,"velocity":0.2755905511811024},{"duration":0.18181800000002113,"midi":40,"time":280.726992,"velocity":0.2755905511811024},{"duration":0.18181800000002113,"midi":46,"time":280.90881,"velocity":0.2755905511811024},{"duration":0.18181800000002113,"midi":40,"time":280.90881,"velocity":0.2755905511811024},{"duration":0.18181800000002113,"midi":40,"time":280.90881,"velocity":0.2755905511811024},{"duration":0.18181800000002113,"midi":46,"time":280.90881,"velocity":0.2755905511811024},{"duration":0.18181799999996429,"midi":28,"time":281.09062800000004,"velocity":0.2755905511811024},{"duration":0.18181799999996429,"midi":40,"time":281.09062800000004,"velocity":0.2755905511811024},{"duration":0.18181799999996429,"midi":28,"time":281.09062800000004,"velocity":0.2755905511811024},{"duration":0.18181799999996429,"midi":40,"time":281.09062800000004,"velocity":0.2755905511811024},{"duration":0.18181800000002113,"midi":40,"time":281.272446,"velocity":0.2755905511811024},{"duration":0.18181800000002113,"midi":46,"time":281.272446,"velocity":0.2755905511811024},{"duration":0.18181800000002113,"midi":46,"time":281.272446,"velocity":0.2755905511811024},{"duration":0.18181800000002113,"midi":40,"time":281.272446,"velocity":0.2755905511811024},{"duration":0.18181799999996429,"midi":40,"time":281.454264,"velocity":0.2755905511811024},{"duration":0.18181799999996429,"midi":28,"time":281.454264,"velocity":0.2755905511811024},{"duration":0.18181799999996429,"midi":40,"time":281.454264,"velocity":0.2755905511811024},{"duration":0.18181799999996429,"midi":28,"time":281.454264,"velocity":0.2755905511811024},{"duration":0.18181800000002113,"midi":40,"time":281.636082,"velocity":0.2755905511811024},{"duration":0.18181800000002113,"midi":46,"time":281.636082,"velocity":0.2755905511811024},{"duration":0.18181800000002113,"midi":46,"time":281.636082,"velocity":0.2755905511811024},{"duration":0.18181800000002113,"midi":40,"time":281.636082,"velocity":0.2755905511811024},{"duration":0.18181800000002113,"midi":40,"time":281.8179,"velocity":0.2755905511811024},{"duration":0.18181800000002113,"midi":28,"time":281.8179,"velocity":0.2755905511811024},{"duration":0.18181800000002113,"midi":28,"time":281.8179,"velocity":0.2755905511811024},{"duration":0.18181800000002113,"midi":40,"time":281.8179,"velocity":0.2755905511811024},{"duration":0.18181799999996429,"midi":46,"time":281.99971800000003,"velocity":0.2755905511811024},{"duration":0.18181799999996429,"midi":40,"time":281.99971800000003,"velocity":0.2755905511811024},{"duration":0.18181799999996429,"midi":40,"time":281.99971800000003,"velocity":0.2755905511811024},{"duration":0.18181799999996429,"midi":46,"time":281.99971800000003,"velocity":0.2755905511811024},{"duration":0.18181800000002113,"midi":29,"time":282.181536,"velocity":0.2755905511811024},{"duration":0.18181800000002113,"midi":41,"time":282.181536,"velocity":0.2755905511811024},{"duration":0.18181800000002113,"midi":41,"time":282.181536,"velocity":0.2755905511811024},{"duration":0.18181800000002113,"midi":29,"time":282.181536,"velocity":0.2755905511811024},{"duration":0.18181800000002113,"midi":48,"time":282.363354,"velocity":0.2755905511811024},{"duration":0.18181800000002113,"midi":41,"time":282.363354,"velocity":0.2755905511811024},{"duration":0.18181800000002113,"midi":41,"time":282.363354,"velocity":0.2755905511811024},{"duration":0.18181800000002113,"midi":48,"time":282.363354,"velocity":0.2755905511811024},{"duration":0.18181799999996429,"midi":29,"time":282.54517200000004,"velocity":0.2755905511811024},{"duration":0.18181799999996429,"midi":41,"time":282.54517200000004,"velocity":0.2755905511811024},{"duration":0.18181799999996429,"midi":29,"time":282.54517200000004,"velocity":0.2755905511811024},{"duration":0.18181799999996429,"midi":41,"time":282.54517200000004,"velocity":0.2755905511811024},{"duration":0.18181800000002113,"midi":41,"time":282.72699,"velocity":0.2755905511811024},{"duration":0.18181800000002113,"midi":48,"time":282.72699,"velocity":0.2755905511811024},{"duration":0.18181800000002113,"midi":41,"time":282.72699,"velocity":0.2755905511811024},{"duration":0.18181800000002113,"midi":48,"time":282.72699,"velocity":0.2755905511811024},{"duration":0.18181799999996429,"midi":41,"time":282.908808,"velocity":0.2755905511811024},{"duration":0.18181799999996429,"midi":29,"time":282.908808,"velocity":0.2755905511811024},{"duration":0.18181799999996429,"midi":29,"time":282.908808,"velocity":0.2755905511811024},{"duration":0.18181799999996429,"midi":41,"time":282.908808,"velocity":0.2755905511811024},{"duration":0.18181800000002113,"midi":48,"time":283.090626,"velocity":0.2755905511811024},{"duration":0.18181800000002113,"midi":48,"time":283.090626,"velocity":0.2755905511811024},{"duration":0.18181800000002113,"midi":41,"time":283.090626,"velocity":0.2755905511811024},{"duration":0.18181800000002113,"midi":41,"time":283.090626,"velocity":0.2755905511811024},{"duration":0.18181800000002113,"midi":41,"time":283.272444,"velocity":0.2755905511811024},{"duration":0.18181800000002113,"midi":41,"time":283.272444,"velocity":0.2755905511811024},{"duration":0.18181800000002113,"midi":29,"time":283.272444,"velocity":0.2755905511811024},{"duration":0.18181800000002113,"midi":29,"time":283.272444,"velocity":0.2755905511811024},{"duration":0.18181799999996429,"midi":41,"time":283.454262,"velocity":0.2755905511811024},{"duration":0.18181799999996429,"midi":41,"time":283.454262,"velocity":0.2755905511811024},{"duration":0.18181799999996429,"midi":48,"time":283.454262,"velocity":0.2755905511811024},{"duration":0.18181799999996429,"midi":48,"time":283.454262,"velocity":0.2755905511811024},{"duration":0.18181800000002113,"midi":31,"time":283.63608,"velocity":0.2755905511811024},{"duration":0.18181800000002113,"midi":43,"time":283.63608,"velocity":0.2755905511811024},{"duration":0.18181800000002113,"midi":31,"time":283.63608,"velocity":0.2755905511811024},{"duration":0.18181800000002113,"midi":43,"time":283.63608,"velocity":0.2755905511811024},{"duration":0.18181800000002113,"midi":43,"time":283.817898,"velocity":0.2755905511811024},{"duration":0.18181800000002113,"midi":50,"time":283.817898,"velocity":0.2755905511811024},{"duration":0.18181800000002113,"midi":43,"time":283.817898,"velocity":0.2755905511811024},{"duration":0.18181800000002113,"midi":50,"time":283.817898,"velocity":0.2755905511811024},{"duration":0.18181799999996429,"midi":31,"time":283.99971600000003,"velocity":0.2755905511811024},{"duration":0.18181799999996429,"midi":31,"time":283.99971600000003,"velocity":0.2755905511811024},{"duration":0.18181799999996429,"midi":43,"time":283.99971600000003,"velocity":0.2755905511811024},{"duration":0.18181799999996429,"midi":43,"time":283.99971600000003,"velocity":0.2755905511811024},{"duration":0.18181800000002113,"midi":43,"time":284.181534,"velocity":0.2755905511811024},{"duration":0.18181800000002113,"midi":50,"time":284.181534,"velocity":0.2755905511811024},{"duration":0.18181800000002113,"midi":50,"time":284.181534,"velocity":0.2755905511811024},{"duration":0.18181800000002113,"midi":43,"time":284.181534,"velocity":0.2755905511811024},{"duration":0.18181799999996429,"midi":43,"time":284.363352,"velocity":0.2755905511811024},{"duration":0.18181799999996429,"midi":31,"time":284.363352,"velocity":0.2755905511811024},{"duration":0.18181799999996429,"midi":31,"time":284.363352,"velocity":0.2755905511811024},{"duration":0.18181799999996429,"midi":43,"time":284.363352,"velocity":0.2755905511811024},{"duration":0.18181800000002113,"midi":43,"time":284.54517,"velocity":0.2755905511811024},{"duration":0.18181800000002113,"midi":43,"time":284.54517,"velocity":0.2755905511811024},{"duration":0.18181800000002113,"midi":50,"time":284.54517,"velocity":0.2755905511811024},{"duration":0.18181800000002113,"midi":50,"time":284.54517,"velocity":0.2755905511811024},{"duration":0.18181800000002113,"midi":31,"time":284.726988,"velocity":0.2755905511811024},{"duration":0.18181800000002113,"midi":43,"time":284.726988,"velocity":0.2755905511811024},{"duration":0.18181800000002113,"midi":43,"time":284.726988,"velocity":0.2755905511811024},{"duration":0.18181800000002113,"midi":31,"time":284.726988,"velocity":0.2755905511811024},{"duration":0.18181799999996429,"midi":43,"time":284.908806,"velocity":0.2755905511811024},{"duration":0.18181799999996429,"midi":50,"time":284.908806,"velocity":0.2755905511811024},{"duration":0.18181799999996429,"midi":50,"time":284.908806,"velocity":0.2755905511811024},{"duration":0.18181799999996429,"midi":43,"time":284.908806,"velocity":0.2755905511811024},{"duration":0.18181800000002113,"midi":31,"time":285.090624,"velocity":0.2755905511811024},{"duration":0.18181800000002113,"midi":43,"time":285.090624,"velocity":0.2755905511811024},{"duration":0.18181800000002113,"midi":31,"time":285.090624,"velocity":0.2755905511811024},{"duration":0.18181800000002113,"midi":43,"time":285.090624,"velocity":0.2755905511811024},{"duration":0.18181800000002113,"midi":43,"time":285.272442,"velocity":0.2755905511811024},{"duration":0.18181800000002113,"midi":43,"time":285.272442,"velocity":0.2755905511811024},{"duration":0.18181800000002113,"midi":50,"time":285.272442,"velocity":0.2755905511811024},{"duration":0.18181800000002113,"midi":50,"time":285.272442,"velocity":0.2755905511811024},{"duration":0.18181799999996429,"midi":31,"time":285.45426000000003,"velocity":0.2755905511811024},{"duration":0.18181799999996429,"midi":43,"time":285.45426000000003,"velocity":0.2755905511811024},{"duration":0.18181799999996429,"midi":43,"time":285.45426000000003,"velocity":0.2755905511811024},{"duration":0.18181799999996429,"midi":31,"time":285.45426000000003,"velocity":0.2755905511811024},{"duration":0.18181800000002113,"midi":43,"time":285.636078,"velocity":0.2755905511811024},{"duration":0.18181800000002113,"midi":43,"time":285.636078,"velocity":0.2755905511811024},{"duration":0.18181800000002113,"midi":50,"time":285.636078,"velocity":0.2755905511811024},{"duration":0.18181800000002113,"midi":50,"time":285.636078,"velocity":0.2755905511811024},{"duration":0.18181800000002113,"midi":43,"time":285.817896,"velocity":0.2755905511811024},{"duration":0.18181800000002113,"midi":43,"time":285.817896,"velocity":0.2755905511811024},{"duration":0.18181800000002113,"midi":31,"time":285.817896,"velocity":0.2755905511811024},{"duration":0.18181800000002113,"midi":31,"time":285.817896,"velocity":0.2755905511811024},{"duration":0.18181799999996429,"midi":50,"time":285.99971400000004,"velocity":0.2755905511811024},{"duration":0.18181799999996429,"midi":50,"time":285.99971400000004,"velocity":0.2755905511811024},{"duration":0.18181799999996429,"midi":43,"time":285.99971400000004,"velocity":0.2755905511811024},{"duration":0.18181799999996429,"midi":43,"time":285.99971400000004,"velocity":0.2755905511811024},{"duration":0.18181800000002113,"midi":31,"time":286.181532,"velocity":0.2755905511811024},{"duration":0.18181800000002113,"midi":43,"time":286.181532,"velocity":0.2755905511811024},{"duration":0.18181800000002113,"midi":31,"time":286.181532,"velocity":0.2755905511811024},{"duration":0.18181800000002113,"midi":43,"time":286.181532,"velocity":0.2755905511811024},{"duration":0.18181799999996429,"midi":50,"time":286.36335,"velocity":0.2755905511811024},{"duration":0.18181799999996429,"midi":43,"time":286.36335,"velocity":0.2755905511811024},{"duration":0.18181799999996429,"midi":43,"time":286.36335,"velocity":0.2755905511811024},{"duration":0.18181799999996429,"midi":50,"time":286.36335,"velocity":0.2755905511811024},{"duration":0.18181800000002113,"midi":40,"time":286.545168,"velocity":0.2755905511811024},{"duration":0.18181800000002113,"midi":40,"time":286.545168,"velocity":0.2755905511811024},{"duration":0.18181800000002113,"midi":28,"time":286.545168,"velocity":0.2755905511811024},{"duration":0.18181800000002113,"midi":28,"time":286.545168,"velocity":0.2755905511811024},{"duration":0.18181800000002113,"midi":40,"time":286.726986,"velocity":0.2755905511811024},{"duration":0.18181800000002113,"midi":46,"time":286.726986,"velocity":0.2755905511811024},{"duration":0.18181800000002113,"midi":40,"time":286.726986,"velocity":0.2755905511811024},{"duration":0.18181800000002113,"midi":46,"time":286.726986,"velocity":0.2755905511811024},{"duration":0.18181799999996429,"midi":40,"time":286.90880400000003,"velocity":0.2755905511811024},{"duration":0.18181799999996429,"midi":28,"time":286.90880400000003,"velocity":0.2755905511811024},{"duration":0.18181799999996429,"midi":40,"time":286.90880400000003,"velocity":0.2755905511811024},{"duration":0.18181799999996429,"midi":28,"time":286.90880400000003,"velocity":0.2755905511811024},{"duration":0.18181800000002113,"midi":46,"time":287.090622,"velocity":0.2755905511811024},{"duration":0.18181800000002113,"midi":46,"time":287.090622,"velocity":0.2755905511811024},{"duration":0.18181800000002113,"midi":40,"time":287.090622,"velocity":0.2755905511811024},{"duration":0.18181800000002113,"midi":40,"time":287.090622,"velocity":0.2755905511811024},{"duration":0.18181800000002113,"midi":40,"time":287.27244,"velocity":0.2755905511811024},{"duration":0.18181800000002113,"midi":40,"time":287.27244,"velocity":0.2755905511811024},{"duration":0.18181800000002113,"midi":28,"time":287.27244,"velocity":0.2755905511811024},{"duration":0.18181800000002113,"midi":28,"time":287.27244,"velocity":0.2755905511811024},{"duration":0.18181799999996429,"midi":46,"time":287.45425800000004,"velocity":0.2755905511811024},{"duration":0.18181799999996429,"midi":46,"time":287.45425800000004,"velocity":0.2755905511811024},{"duration":0.18181799999996429,"midi":40,"time":287.45425800000004,"velocity":0.2755905511811024},{"duration":0.18181799999996429,"midi":40,"time":287.45425800000004,"velocity":0.2755905511811024},{"duration":0.18181800000002113,"midi":40,"time":287.636076,"velocity":0.2755905511811024},{"duration":0.18181800000002113,"midi":40,"time":287.636076,"velocity":0.2755905511811024},{"duration":0.18181800000002113,"midi":28,"time":287.636076,"velocity":0.2755905511811024},{"duration":0.18181800000002113,"midi":28,"time":287.636076,"velocity":0.2755905511811024},{"duration":0.18181799999996429,"midi":40,"time":287.817894,"velocity":0.2755905511811024},{"duration":0.18181799999996429,"midi":40,"time":287.817894,"velocity":0.2755905511811024},{"duration":0.18181799999996429,"midi":46,"time":287.817894,"velocity":0.2755905511811024},{"duration":0.18181799999996429,"midi":46,"time":287.817894,"velocity":0.2755905511811024},{"duration":0.18181800000002113,"midi":29,"time":287.999712,"velocity":0.2755905511811024},{"duration":0.18181800000002113,"midi":29,"time":287.999712,"velocity":0.2755905511811024},{"duration":0.18181800000002113,"midi":41,"time":287.999712,"velocity":0.2755905511811024},{"duration":0.18181800000002113,"midi":41,"time":287.999712,"velocity":0.2755905511811024},{"duration":0.18181800000002113,"midi":41,"time":288.18153,"velocity":0.2755905511811024},{"duration":0.18181800000002113,"midi":48,"time":288.18153,"velocity":0.2755905511811024},{"duration":0.18181800000002113,"midi":41,"time":288.18153,"velocity":0.2755905511811024},{"duration":0.18181800000002113,"midi":48,"time":288.18153,"velocity":0.2755905511811024},{"duration":0.18181799999996429,"midi":29,"time":288.36334800000003,"velocity":0.2755905511811024},{"duration":0.18181799999996429,"midi":29,"time":288.36334800000003,"velocity":0.2755905511811024},{"duration":0.18181799999996429,"midi":41,"time":288.36334800000003,"velocity":0.2755905511811024},{"duration":0.18181799999996429,"midi":41,"time":288.36334800000003,"velocity":0.2755905511811024},{"duration":0.18181800000002113,"midi":41,"time":288.545166,"velocity":0.2755905511811024},{"duration":0.18181800000002113,"midi":48,"time":288.545166,"velocity":0.2755905511811024},{"duration":0.18181800000002113,"midi":48,"time":288.545166,"velocity":0.2755905511811024},{"duration":0.18181800000002113,"midi":41,"time":288.545166,"velocity":0.2755905511811024},{"duration":0.18181800000002113,"midi":41,"time":288.726984,"velocity":0.2755905511811024},{"duration":0.18181800000002113,"midi":41,"time":288.726984,"velocity":0.2755905511811024},{"duration":0.18181800000002113,"midi":29,"time":288.726984,"velocity":0.2755905511811024},{"duration":0.18181800000002113,"midi":29,"time":288.726984,"velocity":0.2755905511811024},{"duration":0.18181799999996429,"midi":48,"time":288.90880200000004,"velocity":0.2755905511811024},{"duration":0.18181799999996429,"midi":41,"time":288.90880200000004,"velocity":0.2755905511811024},{"duration":0.18181799999996429,"midi":48,"time":288.90880200000004,"velocity":0.2755905511811024},{"duration":0.18181799999996429,"midi":41,"time":288.90880200000004,"velocity":0.2755905511811024},{"duration":0.18181800000002113,"midi":41,"time":289.09062,"velocity":0.2755905511811024},{"duration":0.18181800000002113,"midi":29,"time":289.09062,"velocity":0.2755905511811024},{"duration":0.18181800000002113,"midi":29,"time":289.09062,"velocity":0.2755905511811024},{"duration":0.18181800000002113,"midi":41,"time":289.09062,"velocity":0.2755905511811024},{"duration":0.18181799999996429,"midi":48,"time":289.272438,"velocity":0.2755905511811024},{"duration":0.18181799999996429,"midi":48,"time":289.272438,"velocity":0.2755905511811024},{"duration":0.18181799999996429,"midi":41,"time":289.272438,"velocity":0.2755905511811024},{"duration":0.18181799999996429,"midi":41,"time":289.272438,"velocity":0.2755905511811024},{"duration":0.18181800000002113,"midi":31,"time":289.454256,"velocity":0.2755905511811024},{"duration":0.18181800000002113,"midi":43,"time":289.454256,"velocity":0.2755905511811024},{"duration":0.18181800000002113,"midi":31,"time":289.454256,"velocity":0.2755905511811024},{"duration":0.18181800000002113,"midi":43,"time":289.454256,"velocity":0.2755905511811024},{"duration":0.18181800000002113,"midi":43,"time":289.636074,"velocity":0.2755905511811024},{"duration":0.18181800000002113,"midi":50,"time":289.636074,"velocity":0.2755905511811024},{"duration":0.18181800000002113,"midi":50,"time":289.636074,"velocity":0.2755905511811024},{"duration":0.18181800000002113,"midi":43,"time":289.636074,"velocity":0.2755905511811024},{"duration":0.18181799999996429,"midi":43,"time":289.81789200000003,"velocity":0.2755905511811024},{"duration":0.18181799999996429,"midi":31,"time":289.81789200000003,"velocity":0.2755905511811024},{"duration":0.18181799999996429,"midi":31,"time":289.81789200000003,"velocity":0.2755905511811024},{"duration":0.18181799999996429,"midi":43,"time":289.81789200000003,"velocity":0.2755905511811024},{"duration":0.18181800000002113,"midi":43,"time":289.99971,"velocity":0.2755905511811024},{"duration":0.18181800000002113,"midi":50,"time":289.99971,"velocity":0.2755905511811024},{"duration":0.18181800000002113,"midi":43,"time":289.99971,"velocity":0.2755905511811024},{"duration":0.18181800000002113,"midi":50,"time":289.99971,"velocity":0.2755905511811024},{"duration":0.18181800000002113,"midi":43,"time":290.181528,"velocity":0.2755905511811024},{"duration":0.18181800000002113,"midi":43,"time":290.181528,"velocity":0.2755905511811024},{"duration":0.18181800000002113,"midi":31,"time":290.181528,"velocity":0.2755905511811024},{"duration":0.18181800000002113,"midi":31,"time":290.181528,"velocity":0.2755905511811024},{"duration":0.18181799999996429,"midi":43,"time":290.36334600000004,"velocity":0.2755905511811024},{"duration":0.18181799999996429,"midi":50,"time":290.36334600000004,"velocity":0.2755905511811024},{"duration":0.18181799999996429,"midi":50,"time":290.36334600000004,"velocity":0.2755905511811024},{"duration":0.18181799999996429,"midi":43,"time":290.36334600000004,"velocity":0.2755905511811024},{"duration":0.18181800000002113,"midi":43,"time":290.545164,"velocity":0.2755905511811024},{"duration":0.18181800000002113,"midi":43,"time":290.545164,"velocity":0.2755905511811024},{"duration":0.18181800000002113,"midi":31,"time":290.545164,"velocity":0.2755905511811024},{"duration":0.18181800000002113,"midi":31,"time":290.545164,"velocity":0.2755905511811024},{"duration":0.18181799999996429,"midi":43,"time":290.726982,"velocity":0.2755905511811024},{"duration":0.18181799999996429,"midi":43,"time":290.726982,"velocity":0.2755905511811024},{"duration":0.18181799999996429,"midi":50,"time":290.726982,"velocity":0.2755905511811024},{"duration":0.18181799999996429,"midi":50,"time":290.726982,"velocity":0.2755905511811024},{"duration":0.18181800000002113,"midi":31,"time":290.9088,"velocity":0.2755905511811024},{"duration":0.18181800000002113,"midi":43,"time":290.9088,"velocity":0.2755905511811024},{"duration":0.18181800000002113,"midi":43,"time":290.9088,"velocity":0.2755905511811024},{"duration":0.18181800000002113,"midi":31,"time":290.9088,"velocity":0.2755905511811024},{"duration":0.18181800000002113,"midi":43,"time":291.090618,"velocity":0.2755905511811024},{"duration":0.18181800000002113,"midi":50,"time":291.090618,"velocity":0.2755905511811024},{"duration":0.18181800000002113,"midi":50,"time":291.090618,"velocity":0.2755905511811024},{"duration":0.18181800000002113,"midi":43,"time":291.090618,"velocity":0.2755905511811024},{"duration":0.18181799999996429,"midi":43,"time":291.272436,"velocity":0.2755905511811024},{"duration":0.18181799999996429,"midi":43,"time":291.272436,"velocity":0.2755905511811024},{"duration":0.18181799999996429,"midi":31,"time":291.272436,"velocity":0.2755905511811024},{"duration":0.18181799999996429,"midi":31,"time":291.272436,"velocity":0.2755905511811024},{"duration":0.18181800000002113,"midi":43,"time":291.454254,"velocity":0.2755905511811024},{"duration":0.18181800000002113,"midi":50,"time":291.454254,"velocity":0.2755905511811024},{"duration":0.18181800000002113,"midi":43,"time":291.454254,"velocity":0.2755905511811024},{"duration":0.18181800000002113,"midi":50,"time":291.454254,"velocity":0.2755905511811024},{"duration":0.18181800000002113,"midi":31,"time":291.636072,"velocity":0.2755905511811024},{"duration":0.18181800000002113,"midi":31,"time":291.636072,"velocity":0.2755905511811024},{"duration":0.18181800000002113,"midi":43,"time":291.636072,"velocity":0.2755905511811024},{"duration":0.18181800000002113,"midi":43,"time":291.636072,"velocity":0.2755905511811024},{"duration":0.18181799999996429,"midi":43,"time":291.81789000000003,"velocity":0.2755905511811024},{"duration":0.18181799999996429,"midi":43,"time":291.81789000000003,"velocity":0.2755905511811024},{"duration":0.18181799999996429,"midi":50,"time":291.81789000000003,"velocity":0.2755905511811024},{"duration":0.18181799999996429,"midi":50,"time":291.81789000000003,"velocity":0.2755905511811024},{"duration":0.18181800000002113,"midi":43,"time":291.999708,"velocity":0.2755905511811024},{"duration":0.18181800000002113,"midi":43,"time":291.999708,"velocity":0.2755905511811024},{"duration":0.18181800000002113,"midi":31,"time":291.999708,"velocity":0.2755905511811024},{"duration":0.18181800000002113,"midi":31,"time":291.999708,"velocity":0.2755905511811024},{"duration":0.18181799999996429,"midi":50,"time":292.181526,"velocity":0.2755905511811024},{"duration":0.18181799999996429,"midi":43,"time":292.181526,"velocity":0.2755905511811024},{"duration":0.18181799999996429,"midi":50,"time":292.181526,"velocity":0.2755905511811024},{"duration":0.18181799999996429,"midi":43,"time":292.181526,"velocity":0.2755905511811024},{"duration":0.18181800000002113,"midi":40,"time":292.363344,"velocity":0.2755905511811024},{"duration":0.18181800000002113,"midi":40,"time":292.363344,"velocity":0.2755905511811024},{"duration":0.18181800000002113,"midi":28,"time":292.363344,"velocity":0.2755905511811024},{"duration":0.18181800000002113,"midi":28,"time":292.363344,"velocity":0.2755905511811024},{"duration":0.18181800000002113,"midi":46,"time":292.545162,"velocity":0.2755905511811024},{"duration":0.18181800000002113,"midi":40,"time":292.545162,"velocity":0.2755905511811024},{"duration":0.18181800000002113,"midi":46,"time":292.545162,"velocity":0.2755905511811024},{"duration":0.18181800000002113,"midi":40,"time":292.545162,"velocity":0.2755905511811024},{"duration":0.18181799999996429,"midi":28,"time":292.72698,"velocity":0.2755905511811024},{"duration":0.18181799999996429,"midi":28,"time":292.72698,"velocity":0.2755905511811024},{"duration":0.18181799999996429,"midi":40,"time":292.72698,"velocity":0.2755905511811024},{"duration":0.18181799999996429,"midi":40,"time":292.72698,"velocity":0.2755905511811024},{"duration":0.18181800000002113,"midi":40,"time":292.908798,"velocity":0.2755905511811024},{"duration":0.18181800000002113,"midi":40,"time":292.908798,"velocity":0.2755905511811024},{"duration":0.18181800000002113,"midi":46,"time":292.908798,"velocity":0.2755905511811024},{"duration":0.18181800000002113,"midi":46,"time":292.908798,"velocity":0.2755905511811024},{"duration":0.18181800000002113,"midi":40,"time":293.090616,"velocity":0.2755905511811024},{"duration":0.18181800000002113,"midi":28,"time":293.090616,"velocity":0.2755905511811024},{"duration":0.18181800000002113,"midi":40,"time":293.090616,"velocity":0.2755905511811024},{"duration":0.18181800000002113,"midi":28,"time":293.090616,"velocity":0.2755905511811024},{"duration":0.18181799999996429,"midi":46,"time":293.27243400000003,"velocity":0.2755905511811024},{"duration":0.18181799999996429,"midi":46,"time":293.27243400000003,"velocity":0.2755905511811024},{"duration":0.18181799999996429,"midi":40,"time":293.27243400000003,"velocity":0.2755905511811024},{"duration":0.18181799999996429,"midi":40,"time":293.27243400000003,"velocity":0.2755905511811024},{"duration":0.18181800000002113,"midi":28,"time":293.454252,"velocity":0.2755905511811024},{"duration":0.18181800000002113,"midi":40,"time":293.454252,"velocity":0.2755905511811024},{"duration":0.18181800000002113,"midi":28,"time":293.454252,"velocity":0.2755905511811024},{"duration":0.18181800000002113,"midi":40,"time":293.454252,"velocity":0.2755905511811024},{"duration":0.18181800000002113,"midi":46,"time":293.63607,"velocity":0.2755905511811024},{"duration":0.18181800000002113,"midi":46,"time":293.63607,"velocity":0.2755905511811024},{"duration":0.18181800000002113,"midi":40,"time":293.63607,"velocity":0.2755905511811024},{"duration":0.18181800000002113,"midi":40,"time":293.63607,"velocity":0.2755905511811024},{"duration":0.18181799999996429,"midi":41,"time":293.81788800000004,"velocity":0.2755905511811024},{"duration":0.18181799999996429,"midi":41,"time":293.81788800000004,"velocity":0.2755905511811024},{"duration":0.18181799999996429,"midi":29,"time":293.81788800000004,"velocity":0.2755905511811024},{"duration":0.18181799999996429,"midi":29,"time":293.81788800000004,"velocity":0.2755905511811024},{"duration":0.18181800000002113,"midi":48,"time":293.999706,"velocity":0.2755905511811024},{"duration":0.18181800000002113,"midi":48,"time":293.999706,"velocity":0.2755905511811024},{"duration":0.18181800000002113,"midi":41,"time":293.999706,"velocity":0.2755905511811024},{"duration":0.18181800000002113,"midi":41,"time":293.999706,"velocity":0.2755905511811024},{"duration":0.18181799999996429,"midi":41,"time":294.181524,"velocity":0.2755905511811024},{"duration":0.18181799999996429,"midi":29,"time":294.181524,"velocity":0.2755905511811024},{"duration":0.18181799999996429,"midi":41,"time":294.181524,"velocity":0.2755905511811024},{"duration":0.18181799999996429,"midi":29,"time":294.181524,"velocity":0.2755905511811024},{"duration":0.18181800000002113,"midi":48,"time":294.363342,"velocity":0.2755905511811024},{"duration":0.18181800000002113,"midi":41,"time":294.363342,"velocity":0.2755905511811024},{"duration":0.18181800000002113,"midi":48,"time":294.363342,"velocity":0.2755905511811024},{"duration":0.18181800000002113,"midi":41,"time":294.363342,"velocity":0.2755905511811024},{"duration":0.18181800000002113,"midi":29,"time":294.54516,"velocity":0.2755905511811024},{"duration":0.18181800000002113,"midi":41,"time":294.54516,"velocity":0.2755905511811024},{"duration":0.18181800000002113,"midi":29,"time":294.54516,"velocity":0.2755905511811024},{"duration":0.18181800000002113,"midi":41,"time":294.54516,"velocity":0.2755905511811024},{"duration":0.18181799999996429,"midi":41,"time":294.72697800000003,"velocity":0.2755905511811024},{"duration":0.18181799999996429,"midi":41,"time":294.72697800000003,"velocity":0.2755905511811024},{"duration":0.18181799999996429,"midi":48,"time":294.72697800000003,"velocity":0.2755905511811024},{"duration":0.18181799999996429,"midi":48,"time":294.72697800000003,"velocity":0.2755905511811024},{"duration":0.18181800000002113,"midi":29,"time":294.908796,"velocity":0.2755905511811024},{"duration":0.18181800000002113,"midi":41,"time":294.908796,"velocity":0.2755905511811024},{"duration":0.18181800000002113,"midi":41,"time":294.908796,"velocity":0.2755905511811024},{"duration":0.18181800000002113,"midi":29,"time":294.908796,"velocity":0.2755905511811024},{"duration":0.18181800000002113,"midi":41,"time":295.090614,"velocity":0.2755905511811024},{"duration":0.18181800000002113,"midi":48,"time":295.090614,"velocity":0.2755905511811024},{"duration":0.18181800000002113,"midi":41,"time":295.090614,"velocity":0.2755905511811024},{"duration":0.18181800000002113,"midi":48,"time":295.090614,"velocity":0.2755905511811024},{"duration":0.18181799999996429,"midi":31,"time":295.27243200000004,"velocity":0.2755905511811024},{"duration":0.18181799999996429,"midi":31,"time":295.27243200000004,"velocity":0.2755905511811024},{"duration":0.18181799999996429,"midi":43,"time":295.27243200000004,"velocity":0.2755905511811024},{"duration":0.18181799999996429,"midi":43,"time":295.27243200000004,"velocity":0.2755905511811024},{"duration":0.18181800000002113,"midi":50,"time":295.45425,"velocity":0.2755905511811024},{"duration":0.18181800000002113,"midi":50,"time":295.45425,"velocity":0.2755905511811024},{"duration":0.18181800000002113,"midi":43,"time":295.45425,"velocity":0.2755905511811024},{"duration":0.18181800000002113,"midi":43,"time":295.45425,"velocity":0.2755905511811024},{"duration":0.18181799999996429,"midi":43,"time":295.636068,"velocity":0.2755905511811024},{"duration":0.18181799999996429,"midi":43,"time":295.636068,"velocity":0.2755905511811024},{"duration":0.18181799999996429,"midi":31,"time":295.636068,"velocity":0.2755905511811024},{"duration":0.18181799999996429,"midi":31,"time":295.636068,"velocity":0.2755905511811024},{"duration":0.18181800000002113,"midi":50,"time":295.817886,"velocity":0.2755905511811024},{"duration":0.18181800000002113,"midi":43,"time":295.817886,"velocity":0.2755905511811024},{"duration":0.18181800000002113,"midi":50,"time":295.817886,"velocity":0.2755905511811024},{"duration":0.18181800000002113,"midi":43,"time":295.817886,"velocity":0.2755905511811024},{"duration":0.18181800000002113,"midi":43,"time":295.999704,"velocity":0.2755905511811024},{"duration":0.18181800000002113,"midi":43,"time":295.999704,"velocity":0.2755905511811024},{"duration":0.18181800000002113,"midi":31,"time":295.999704,"velocity":0.2755905511811024},{"duration":0.18181800000002113,"midi":31,"time":295.999704,"velocity":0.2755905511811024},{"duration":0.18181799999996429,"midi":43,"time":296.18152200000003,"velocity":0.2755905511811024},{"duration":0.18181799999996429,"midi":43,"time":296.18152200000003,"velocity":0.2755905511811024},{"duration":0.18181799999996429,"midi":50,"time":296.18152200000003,"velocity":0.2755905511811024},{"duration":0.18181799999996429,"midi":50,"time":296.18152200000003,"velocity":0.2755905511811024},{"duration":0.18181800000002113,"midi":31,"time":296.36334,"velocity":0.2755905511811024},{"duration":0.18181800000002113,"midi":43,"time":296.36334,"velocity":0.2755905511811024},{"duration":0.18181800000002113,"midi":43,"time":296.36334,"velocity":0.2755905511811024},{"duration":0.18181800000002113,"midi":31,"time":296.36334,"velocity":0.2755905511811024},{"duration":0.18181800000002113,"midi":43,"time":296.545158,"velocity":0.2755905511811024},{"duration":0.18181800000002113,"midi":50,"time":296.545158,"velocity":0.2755905511811024},{"duration":0.18181800000002113,"midi":50,"time":296.545158,"velocity":0.2755905511811024},{"duration":0.18181800000002113,"midi":43,"time":296.545158,"velocity":0.2755905511811024},{"duration":0.18181799999996429,"midi":31,"time":296.72697600000004,"velocity":0.2755905511811024},{"duration":0.18181799999996429,"midi":43,"time":296.72697600000004,"velocity":0.2755905511811024},{"duration":0.18181799999996429,"midi":31,"time":296.72697600000004,"velocity":0.2755905511811024},{"duration":0.18181799999996429,"midi":43,"time":296.72697600000004,"velocity":0.2755905511811024},{"duration":0.18181800000002113,"midi":43,"time":296.908794,"velocity":0.2755905511811024},{"duration":0.18181800000002113,"midi":50,"time":296.908794,"velocity":0.2755905511811024},{"duration":0.18181800000002113,"midi":50,"time":296.908794,"velocity":0.2755905511811024},{"duration":0.18181800000002113,"midi":43,"time":296.908794,"velocity":0.2755905511811024},{"duration":0.18181799999996429,"midi":31,"time":297.090612,"velocity":0.2755905511811024},{"duration":0.18181799999996429,"midi":43,"time":297.090612,"velocity":0.2755905511811024},{"duration":0.18181799999996429,"midi":43,"time":297.090612,"velocity":0.2755905511811024},{"duration":0.18181799999996429,"midi":31,"time":297.090612,"velocity":0.2755905511811024},{"duration":0.18181800000002113,"midi":50,"time":297.27243,"velocity":0.2755905511811024},{"duration":0.18181800000002113,"midi":43,"time":297.27243,"velocity":0.2755905511811024},{"duration":0.18181800000002113,"midi":50,"time":297.27243,"velocity":0.2755905511811024},{"duration":0.18181800000002113,"midi":43,"time":297.27243,"velocity":0.2755905511811024},{"duration":0.18181800000002113,"midi":43,"time":297.454248,"velocity":0.2755905511811024},{"duration":0.18181800000002113,"midi":31,"time":297.454248,"velocity":0.2755905511811024},{"duration":0.18181800000002113,"midi":31,"time":297.454248,"velocity":0.2755905511811024},{"duration":0.18181800000002113,"midi":43,"time":297.454248,"velocity":0.2755905511811024},{"duration":0.18181799999996429,"midi":43,"time":297.636066,"velocity":0.2755905511811024},{"duration":0.18181799999996429,"midi":50,"time":297.636066,"velocity":0.2755905511811024},{"duration":0.18181799999996429,"midi":50,"time":297.636066,"velocity":0.2755905511811024},{"duration":0.18181799999996429,"midi":43,"time":297.636066,"velocity":0.2755905511811024},{"duration":0.18181800000002113,"midi":43,"time":297.817884,"velocity":0.2755905511811024},{"duration":0.18181800000002113,"midi":43,"time":297.817884,"velocity":0.2755905511811024},{"duration":0.18181800000002113,"midi":31,"time":297.817884,"velocity":0.2755905511811024},{"duration":0.18181800000002113,"midi":31,"time":297.817884,"velocity":0.2755905511811024},{"duration":0.18181800000002113,"midi":50,"time":297.999702,"velocity":0.2755905511811024},{"duration":0.18181800000002113,"midi":50,"time":297.999702,"velocity":0.2755905511811024},{"duration":0.18181800000002113,"midi":43,"time":297.999702,"velocity":0.2755905511811024},{"duration":0.18181800000002113,"midi":43,"time":297.999702,"velocity":0.2755905511811024},{"duration":0.18181799999996429,"midi":28,"time":298.18152000000003,"velocity":0.2755905511811024},{"duration":0.18181799999996429,"midi":40,"time":298.18152000000003,"velocity":0.2755905511811024},{"duration":0.18181799999996429,"midi":40,"time":298.18152000000003,"velocity":0.2755905511811024},{"duration":0.18181799999996429,"midi":28,"time":298.18152000000003,"velocity":0.2755905511811024},{"duration":0.18181800000002113,"midi":40,"time":298.363338,"velocity":0.2755905511811024},{"duration":0.18181800000002113,"midi":40,"time":298.363338,"velocity":0.2755905511811024},{"duration":0.18181800000002113,"midi":46,"time":298.363338,"velocity":0.2755905511811024},{"duration":0.18181800000002113,"midi":46,"time":298.363338,"velocity":0.2755905511811024},{"duration":0.18181799999996429,"midi":28,"time":298.545156,"velocity":0.2755905511811024},{"duration":0.18181799999996429,"midi":28,"time":298.545156,"velocity":0.2755905511811024},{"duration":0.18181799999996429,"midi":40,"time":298.545156,"velocity":0.2755905511811024},{"duration":0.18181799999996429,"midi":40,"time":298.545156,"velocity":0.2755905511811024},{"duration":0.18181800000002113,"midi":46,"time":298.726974,"velocity":0.2755905511811024},{"duration":0.18181800000002113,"midi":40,"time":298.726974,"velocity":0.2755905511811024},{"duration":0.18181800000002113,"midi":40,"time":298.726974,"velocity":0.2755905511811024},{"duration":0.18181800000002113,"midi":46,"time":298.726974,"velocity":0.2755905511811024},{"duration":0.18181800000002113,"midi":28,"time":298.908792,"velocity":0.2755905511811024},{"duration":0.18181800000002113,"midi":40,"time":298.908792,"velocity":0.2755905511811024},{"duration":0.18181800000002113,"midi":40,"time":298.908792,"velocity":0.2755905511811024},{"duration":0.18181800000002113,"midi":28,"time":298.908792,"velocity":0.2755905511811024},{"duration":0.18181799999996429,"midi":40,"time":299.09061,"velocity":0.2755905511811024},{"duration":0.18181799999996429,"midi":46,"time":299.09061,"velocity":0.2755905511811024},{"duration":0.18181799999996429,"midi":46,"time":299.09061,"velocity":0.2755905511811024},{"duration":0.18181799999996429,"midi":40,"time":299.09061,"velocity":0.2755905511811024},{"duration":0.18181800000002113,"midi":28,"time":299.272428,"velocity":0.2755905511811024},{"duration":0.18181800000002113,"midi":28,"time":299.272428,"velocity":0.2755905511811024},{"duration":0.18181800000002113,"midi":40,"time":299.272428,"velocity":0.2755905511811024},{"duration":0.18181800000002113,"midi":40,"time":299.272428,"velocity":0.2755905511811024},{"duration":0.18181800000002113,"midi":40,"time":299.454246,"velocity":0.2755905511811024},{"duration":0.18181800000002113,"midi":46,"time":299.454246,"velocity":0.2755905511811024},{"duration":0.18181800000002113,"midi":40,"time":299.454246,"velocity":0.2755905511811024},{"duration":0.18181800000002113,"midi":46,"time":299.454246,"velocity":0.2755905511811024},{"duration":0.18181799999996429,"midi":41,"time":299.63606400000003,"velocity":0.2755905511811024},{"duration":0.18181799999996429,"midi":29,"time":299.63606400000003,"velocity":0.2755905511811024},{"duration":0.18181799999996429,"midi":41,"time":299.63606400000003,"velocity":0.2755905511811024},{"duration":0.18181799999996429,"midi":29,"time":299.63606400000003,"velocity":0.2755905511811024},{"duration":0.18181800000002113,"midi":48,"time":299.817882,"velocity":0.2755905511811024},{"duration":0.18181800000002113,"midi":48,"time":299.817882,"velocity":0.2755905511811024},{"duration":0.18181800000002113,"midi":41,"time":299.817882,"velocity":0.2755905511811024},{"duration":0.18181800000002113,"midi":41,"time":299.817882,"velocity":0.2755905511811024},{"duration":0.18181800000002113,"midi":41,"time":299.9997,"velocity":0.2755905511811024},{"duration":0.18181800000002113,"midi":29,"time":299.9997,"velocity":0.2755905511811024},{"duration":0.18181800000002113,"midi":41,"time":299.9997,"velocity":0.2755905511811024},{"duration":0.18181800000002113,"midi":29,"time":299.9997,"velocity":0.2755905511811024},{"duration":0.18181799999996429,"midi":41,"time":300.18151800000004,"velocity":0.2755905511811024},{"duration":0.18181799999996429,"midi":41,"time":300.18151800000004,"velocity":0.2755905511811024},{"duration":0.18181799999996429,"midi":48,"time":300.18151800000004,"velocity":0.2755905511811024},{"duration":0.18181799999996429,"midi":48,"time":300.18151800000004,"velocity":0.2755905511811024},{"duration":0.18181800000002113,"midi":29,"time":300.363336,"velocity":0.2755905511811024},{"duration":0.18181800000002113,"midi":41,"time":300.363336,"velocity":0.2755905511811024},{"duration":0.18181800000002113,"midi":29,"time":300.363336,"velocity":0.2755905511811024},{"duration":0.18181800000002113,"midi":41,"time":300.363336,"velocity":0.2755905511811024},{"duration":0.18181799999996429,"midi":48,"time":300.545154,"velocity":0.2755905511811024},{"duration":0.18181799999996429,"midi":41,"time":300.545154,"velocity":0.2755905511811024},{"duration":0.18181799999996429,"midi":48,"time":300.545154,"velocity":0.2755905511811024},{"duration":0.18181799999996429,"midi":41,"time":300.545154,"velocity":0.2755905511811024},{"duration":0.18181800000002113,"midi":29,"time":300.726972,"velocity":0.2755905511811024},{"duration":0.18181800000002113,"midi":29,"time":300.726972,"velocity":0.2755905511811024},{"duration":0.18181800000002113,"midi":41,"time":300.726972,"velocity":0.2755905511811024},{"duration":0.18181800000002113,"midi":41,"time":300.726972,"velocity":0.2755905511811024},{"duration":0.18181800000002113,"midi":41,"time":300.90879,"velocity":0.2755905511811024},{"duration":0.18181800000002113,"midi":48,"time":300.90879,"velocity":0.2755905511811024},{"duration":0.18181800000002113,"midi":41,"time":300.90879,"velocity":0.2755905511811024},{"duration":0.18181800000002113,"midi":48,"time":300.90879,"velocity":0.2755905511811024},{"duration":0.18181799999996429,"midi":31,"time":301.09060800000003,"velocity":0.2755905511811024},{"duration":0.18181799999996429,"midi":43,"time":301.09060800000003,"velocity":0.2755905511811024},{"duration":0.18181799999996429,"midi":31,"time":301.09060800000003,"velocity":0.2755905511811024},{"duration":0.18181799999996429,"midi":43,"time":301.09060800000003,"velocity":0.2755905511811024},{"duration":0.18181800000002113,"midi":50,"time":301.272426,"velocity":0.2755905511811024},{"duration":0.18181800000002113,"midi":43,"time":301.272426,"velocity":0.2755905511811024},{"duration":0.18181800000002113,"midi":43,"time":301.272426,"velocity":0.2755905511811024},{"duration":0.18181800000002113,"midi":50,"time":301.272426,"velocity":0.2755905511811024},{"duration":0.18181800000002113,"midi":43,"time":301.454244,"velocity":0.2755905511811024},{"duration":0.18181800000002113,"midi":31,"time":301.454244,"velocity":0.2755905511811024},{"duration":0.18181800000002113,"midi":43,"time":301.454244,"velocity":0.2755905511811024},{"duration":0.18181800000002113,"midi":31,"time":301.454244,"velocity":0.2755905511811024},{"duration":0.18181799999996429,"midi":50,"time":301.63606200000004,"velocity":0.2755905511811024},{"duration":0.18181799999996429,"midi":50,"time":301.63606200000004,"velocity":0.2755905511811024},{"duration":0.18181799999996429,"midi":43,"time":301.63606200000004,"velocity":0.2755905511811024},{"duration":0.18181799999996429,"midi":43,"time":301.63606200000004,"velocity":0.2755905511811024},{"duration":0.18181800000002113,"midi":31,"time":301.81788,"velocity":0.2755905511811024},{"duration":0.18181800000002113,"midi":31,"time":301.81788,"velocity":0.2755905511811024},{"duration":0.18181800000002113,"midi":43,"time":301.81788,"velocity":0.2755905511811024},{"duration":0.18181800000002113,"midi":43,"time":301.81788,"velocity":0.2755905511811024},{"duration":0.18181799999996429,"midi":43,"time":301.999698,"velocity":0.2755905511811024},{"duration":0.18181799999996429,"midi":43,"time":301.999698,"velocity":0.2755905511811024},{"duration":0.18181799999996429,"midi":50,"time":301.999698,"velocity":0.2755905511811024},{"duration":0.18181799999996429,"midi":50,"time":301.999698,"velocity":0.2755905511811024},{"duration":0.18181800000002113,"midi":31,"time":302.181516,"velocity":0.2755905511811024},{"duration":0.18181800000002113,"midi":43,"time":302.181516,"velocity":0.2755905511811024},{"duration":0.18181800000002113,"midi":43,"time":302.181516,"velocity":0.2755905511811024},{"duration":0.18181800000002113,"midi":31,"time":302.181516,"velocity":0.2755905511811024},{"duration":0.18181800000002113,"midi":50,"time":302.363334,"velocity":0.2755905511811024},{"duration":0.18181800000002113,"midi":43,"time":302.363334,"velocity":0.2755905511811024},{"duration":0.18181800000002113,"midi":50,"time":302.363334,"velocity":0.2755905511811024},{"duration":0.18181800000002113,"midi":43,"time":302.363334,"velocity":0.2755905511811024},{"duration":0.18181799999996429,"midi":31,"time":302.54515200000003,"velocity":0.2755905511811024},{"duration":0.18181799999996429,"midi":43,"time":302.54515200000003,"velocity":0.2755905511811024},{"duration":0.18181799999996429,"midi":43,"time":302.54515200000003,"velocity":0.2755905511811024},{"duration":0.18181799999996429,"midi":31,"time":302.54515200000003,"velocity":0.2755905511811024},{"duration":0.18181800000002113,"midi":50,"time":302.72697,"velocity":0.2755905511811024},{"duration":0.18181800000002113,"midi":43,"time":302.72697,"velocity":0.2755905511811024},{"duration":0.18181800000002113,"midi":50,"time":302.72697,"velocity":0.2755905511811024},{"duration":0.18181800000002113,"midi":43,"time":302.72697,"velocity":0.2755905511811024},{"duration":0.18181800000002113,"midi":43,"time":302.908788,"velocity":0.2755905511811024},{"duration":0.18181800000002113,"midi":43,"time":302.908788,"velocity":0.2755905511811024},{"duration":0.18181800000002113,"midi":31,"time":302.908788,"velocity":0.2755905511811024},{"duration":0.18181800000002113,"midi":31,"time":302.908788,"velocity":0.2755905511811024},{"duration":0.18181799999996429,"midi":43,"time":303.09060600000004,"velocity":0.2755905511811024},{"duration":0.18181799999996429,"midi":50,"time":303.09060600000004,"velocity":0.2755905511811024},{"duration":0.18181799999996429,"midi":50,"time":303.09060600000004,"velocity":0.2755905511811024},{"duration":0.18181799999996429,"midi":43,"time":303.09060600000004,"velocity":0.2755905511811024},{"duration":0.18181800000002113,"midi":43,"time":303.272424,"velocity":0.2755905511811024},{"duration":0.18181800000002113,"midi":43,"time":303.272424,"velocity":0.2755905511811024},{"duration":0.18181800000002113,"midi":31,"time":303.272424,"velocity":0.2755905511811024},{"duration":0.18181800000002113,"midi":31,"time":303.272424,"velocity":0.2755905511811024},{"duration":0.18181799999996429,"midi":50,"time":303.454242,"velocity":0.2755905511811024},{"duration":0.18181799999996429,"midi":43,"time":303.454242,"velocity":0.2755905511811024},{"duration":0.18181799999996429,"midi":50,"time":303.454242,"velocity":0.2755905511811024},{"duration":0.18181799999996429,"midi":43,"time":303.454242,"velocity":0.2755905511811024},{"duration":0.18181800000002113,"midi":31,"time":303.63606,"velocity":0.2755905511811024},{"duration":0.18181800000002113,"midi":43,"time":303.63606,"velocity":0.2755905511811024},{"duration":0.18181800000002113,"midi":31,"time":303.63606,"velocity":0.2755905511811024},{"duration":0.18181800000002113,"midi":43,"time":303.63606,"velocity":0.2755905511811024},{"duration":0.18181800000002113,"midi":50,"time":303.817878,"velocity":0.2755905511811024},{"duration":0.18181800000002113,"midi":43,"time":303.817878,"velocity":0.2755905511811024},{"duration":0.18181800000002113,"midi":50,"time":303.817878,"velocity":0.2755905511811024},{"duration":0.18181800000002113,"midi":43,"time":303.817878,"velocity":0.2755905511811024},{"duration":0.18181799999996429,"midi":28,"time":303.99969600000003,"velocity":0.2755905511811024},{"duration":0.18181799999996429,"midi":40,"time":303.99969600000003,"velocity":0.2755905511811024},{"duration":0.18181799999996429,"midi":28,"time":303.99969600000003,"velocity":0.2755905511811024},{"duration":0.18181799999996429,"midi":40,"time":303.99969600000003,"velocity":0.2755905511811024},{"duration":0.18181800000002113,"midi":40,"time":304.181514,"velocity":0.2755905511811024},{"duration":0.18181800000002113,"midi":46,"time":304.181514,"velocity":0.2755905511811024},{"duration":0.18181800000002113,"midi":40,"time":304.181514,"velocity":0.2755905511811024},{"duration":0.18181800000002113,"midi":46,"time":304.181514,"velocity":0.2755905511811024},{"duration":0.18181800000002113,"midi":40,"time":304.363332,"velocity":0.2755905511811024},{"duration":0.18181800000002113,"midi":28,"time":304.363332,"velocity":0.2755905511811024},{"duration":0.18181800000002113,"midi":28,"time":304.363332,"velocity":0.2755905511811024},{"duration":0.18181800000002113,"midi":40,"time":304.363332,"velocity":0.2755905511811024},{"duration":0.18181799999996429,"midi":40,"time":304.54515000000004,"velocity":0.2755905511811024},{"duration":0.18181799999996429,"midi":46,"time":304.54515000000004,"velocity":0.2755905511811024},{"duration":0.18181799999996429,"midi":40,"time":304.54515000000004,"velocity":0.2755905511811024},{"duration":0.18181799999996429,"midi":46,"time":304.54515000000004,"velocity":0.2755905511811024},{"duration":0.18181800000002113,"midi":40,"time":304.726968,"velocity":0.2755905511811024},{"duration":0.18181800000002113,"midi":28,"time":304.726968,"velocity":0.2755905511811024},{"duration":0.18181800000002113,"midi":40,"time":304.726968,"velocity":0.2755905511811024},{"duration":0.18181800000002113,"midi":28,"time":304.726968,"velocity":0.2755905511811024},{"duration":0.18181799999996429,"midi":46,"time":304.908786,"velocity":0.2755905511811024},{"duration":0.18181799999996429,"midi":40,"time":304.908786,"velocity":0.2755905511811024},{"duration":0.18181799999996429,"midi":40,"time":304.908786,"velocity":0.2755905511811024},{"duration":0.18181799999996429,"midi":46,"time":304.908786,"velocity":0.2755905511811024},{"duration":0.18181800000002113,"midi":28,"time":305.090604,"velocity":0.2755905511811024},{"duration":0.18181800000002113,"midi":40,"time":305.090604,"velocity":0.2755905511811024},{"duration":0.18181800000002113,"midi":40,"time":305.090604,"velocity":0.2755905511811024},{"duration":0.18181800000002113,"midi":28,"time":305.090604,"velocity":0.2755905511811024},{"duration":0.18181800000002113,"midi":46,"time":305.272422,"velocity":0.2755905511811024},{"duration":0.18181800000002113,"midi":40,"time":305.272422,"velocity":0.2755905511811024},{"duration":0.18181800000002113,"midi":46,"time":305.272422,"velocity":0.2755905511811024},{"duration":0.18181800000002113,"midi":40,"time":305.272422,"velocity":0.2755905511811024},{"duration":0.18181799999996429,"midi":41,"time":305.45424,"velocity":0.2755905511811024},{"duration":0.18181799999996429,"midi":29,"time":305.45424,"velocity":0.2755905511811024},{"duration":0.18181799999996429,"midi":29,"time":305.45424,"velocity":0.2755905511811024},{"duration":0.18181799999996429,"midi":41,"time":305.45424,"velocity":0.2755905511811024},{"duration":0.18181800000002113,"midi":48,"time":305.636058,"velocity":0.2755905511811024},{"duration":0.18181800000002113,"midi":41,"time":305.636058,"velocity":0.2755905511811024},{"duration":0.18181800000002113,"midi":48,"time":305.636058,"velocity":0.2755905511811024},{"duration":0.18181800000002113,"midi":41,"time":305.636058,"velocity":0.2755905511811024},{"duration":0.18181800000002113,"midi":29,"time":305.817876,"velocity":0.2755905511811024},{"duration":0.18181800000002113,"midi":41,"time":305.817876,"velocity":0.2755905511811024},{"duration":0.18181800000002113,"midi":41,"time":305.817876,"velocity":0.2755905511811024},{"duration":0.18181800000002113,"midi":29,"time":305.817876,"velocity":0.2755905511811024},{"duration":0.18181799999996429,"midi":41,"time":305.99969400000003,"velocity":0.2755905511811024},{"duration":0.18181799999996429,"midi":48,"time":305.99969400000003,"velocity":0.2755905511811024},{"duration":0.18181799999996429,"midi":41,"time":305.99969400000003,"velocity":0.2755905511811024},{"duration":0.18181799999996429,"midi":48,"time":305.99969400000003,"velocity":0.2755905511811024},{"duration":0.18181800000002113,"midi":29,"time":306.181512,"velocity":0.2755905511811024},{"duration":0.18181800000002113,"midi":29,"time":306.181512,"velocity":0.2755905511811024},{"duration":0.18181800000002113,"midi":41,"time":306.181512,"velocity":0.2755905511811024},{"duration":0.18181800000002113,"midi":41,"time":306.181512,"velocity":0.2755905511811024},{"duration":0.18181800000002113,"midi":48,"time":306.36333,"velocity":0.2755905511811024},{"duration":0.18181800000002113,"midi":41,"time":306.36333,"velocity":0.2755905511811024},{"duration":0.18181800000002113,"midi":48,"time":306.36333,"velocity":0.2755905511811024},{"duration":0.18181800000002113,"midi":41,"time":306.36333,"velocity":0.2755905511811024},{"duration":0.18181799999996429,"midi":29,"time":306.54514800000004,"velocity":0.2755905511811024},{"duration":0.18181799999996429,"midi":41,"time":306.54514800000004,"velocity":0.2755905511811024},{"duration":0.18181799999996429,"midi":41,"time":306.54514800000004,"velocity":0.2755905511811024},{"duration":0.18181799999996429,"midi":29,"time":306.54514800000004,"velocity":0.2755905511811024},{"duration":0.18181800000002113,"midi":48,"time":306.726966,"velocity":0.2755905511811024},{"duration":0.18181800000002113,"midi":48,"time":306.726966,"velocity":0.2755905511811024},{"duration":0.18181800000002113,"midi":41,"time":306.726966,"velocity":0.2755905511811024},{"duration":0.18181800000002113,"midi":41,"time":306.726966,"velocity":0.2755905511811024},{"duration":0.18181799999996429,"midi":31,"time":306.908784,"velocity":0.2755905511811024},{"duration":0.18181799999996429,"midi":31,"time":306.908784,"velocity":0.2755905511811024},{"duration":0.18181799999996429,"midi":43,"time":306.908784,"velocity":0.2755905511811024},{"duration":0.18181799999996429,"midi":43,"time":306.908784,"velocity":0.2755905511811024},{"duration":0.18181800000002113,"midi":50,"time":307.090602,"velocity":0.2755905511811024},{"duration":0.18181800000002113,"midi":43,"time":307.090602,"velocity":0.2755905511811024},{"duration":0.18181800000002113,"midi":50,"time":307.090602,"velocity":0.2755905511811024},{"duration":0.18181800000002113,"midi":43,"time":307.090602,"velocity":0.2755905511811024},{"duration":0.18181800000002113,"midi":31,"time":307.27242,"velocity":0.2755905511811024},{"duration":0.18181800000002113,"midi":31,"time":307.27242,"velocity":0.2755905511811024},{"duration":0.18181800000002113,"midi":43,"time":307.27242,"velocity":0.2755905511811024},{"duration":0.18181800000002113,"midi":43,"time":307.27242,"velocity":0.2755905511811024},{"duration":0.18181799999996429,"midi":43,"time":307.45423800000003,"velocity":0.2755905511811024},{"duration":0.18181799999996429,"midi":50,"time":307.45423800000003,"velocity":0.2755905511811024},{"duration":0.18181799999996429,"midi":43,"time":307.45423800000003,"velocity":0.2755905511811024},{"duration":0.18181799999996429,"midi":50,"time":307.45423800000003,"velocity":0.2755905511811024},{"duration":0.18181800000002113,"midi":43,"time":307.636056,"velocity":0.2755905511811024},{"duration":0.18181800000002113,"midi":31,"time":307.636056,"velocity":0.2755905511811024},{"duration":0.18181800000002113,"midi":43,"time":307.636056,"velocity":0.2755905511811024},{"duration":0.18181800000002113,"midi":31,"time":307.636056,"velocity":0.2755905511811024},{"duration":0.18181800000002113,"midi":50,"time":307.817874,"velocity":0.2755905511811024},{"duration":0.18181800000002113,"midi":43,"time":307.817874,"velocity":0.2755905511811024},{"duration":0.18181800000002113,"midi":43,"time":307.817874,"velocity":0.2755905511811024},{"duration":0.18181800000002113,"midi":50,"time":307.817874,"velocity":0.2755905511811024},{"duration":0.18181799999996429,"midi":31,"time":307.99969200000004,"velocity":0.2755905511811024},{"duration":0.18181799999996429,"midi":43,"time":307.99969200000004,"velocity":0.2755905511811024},{"duration":0.18181799999996429,"midi":31,"time":307.99969200000004,"velocity":0.2755905511811024},{"duration":0.18181799999996429,"midi":43,"time":307.99969200000004,"velocity":0.2755905511811024},{"duration":0.18181800000002113,"midi":43,"time":308.18151,"velocity":0.2755905511811024},{"duration":0.18181800000002113,"midi":50,"time":308.18151,"velocity":0.2755905511811024},{"duration":0.18181800000002113,"midi":50,"time":308.18151,"velocity":0.2755905511811024},{"duration":0.18181800000002113,"midi":43,"time":308.18151,"velocity":0.2755905511811024},{"duration":0.18181799999996429,"midi":31,"time":308.363328,"velocity":0.2755905511811024},{"duration":0.18181799999996429,"midi":43,"time":308.363328,"velocity":0.2755905511811024},{"duration":0.18181799999996429,"midi":31,"time":308.363328,"velocity":0.2755905511811024},{"duration":0.18181799999996429,"midi":43,"time":308.363328,"velocity":0.2755905511811024},{"duration":0.18181800000002113,"midi":43,"time":308.545146,"velocity":0.2755905511811024},{"duration":0.18181800000002113,"midi":50,"time":308.545146,"velocity":0.2755905511811024},{"duration":0.18181800000002113,"midi":43,"time":308.545146,"velocity":0.2755905511811024},{"duration":0.18181800000002113,"midi":50,"time":308.545146,"velocity":0.2755905511811024},{"duration":0.18181800000002113,"midi":43,"time":308.726964,"velocity":0.2755905511811024},{"duration":0.18181800000002113,"midi":31,"time":308.726964,"velocity":0.2755905511811024},{"duration":0.18181800000002113,"midi":31,"time":308.726964,"velocity":0.2755905511811024},{"duration":0.18181800000002113,"midi":43,"time":308.726964,"velocity":0.2755905511811024},{"duration":0.18181799999996429,"midi":50,"time":308.90878200000003,"velocity":0.2755905511811024},{"duration":0.18181799999996429,"midi":50,"time":308.90878200000003,"velocity":0.2755905511811024},{"duration":0.18181799999996429,"midi":43,"time":308.90878200000003,"velocity":0.2755905511811024},{"duration":0.18181799999996429,"midi":43,"time":308.90878200000003,"velocity":0.2755905511811024},{"duration":0.18181800000002113,"midi":31,"time":309.0906,"velocity":0.2755905511811024},{"duration":0.18181800000002113,"midi":31,"time":309.0906,"velocity":0.2755905511811024},{"duration":0.18181800000002113,"midi":43,"time":309.0906,"velocity":0.2755905511811024},{"duration":0.18181800000002113,"midi":43,"time":309.0906,"velocity":0.2755905511811024},{"duration":0.18181800000002113,"midi":50,"time":309.272418,"velocity":0.2755905511811024},{"duration":0.18181800000002113,"midi":50,"time":309.272418,"velocity":0.2755905511811024},{"duration":0.18181800000002113,"midi":43,"time":309.272418,"velocity":0.2755905511811024},{"duration":0.18181800000002113,"midi":43,"time":309.272418,"velocity":0.2755905511811024},{"duration":0.18181799999996429,"midi":43,"time":309.45423600000004,"velocity":0.2755905511811024},{"duration":0.18181799999996429,"midi":31,"time":309.45423600000004,"velocity":0.2755905511811024},{"duration":0.18181799999996429,"midi":43,"time":309.45423600000004,"velocity":0.2755905511811024},{"duration":0.18181799999996429,"midi":31,"time":309.45423600000004,"velocity":0.2755905511811024},{"duration":0.18181800000002113,"midi":43,"time":309.636054,"velocity":0.2755905511811024},{"duration":0.18181800000002113,"midi":43,"time":309.636054,"velocity":0.2755905511811024},{"duration":0.18181800000002113,"midi":50,"time":309.636054,"velocity":0.2755905511811024},{"duration":0.18181800000002113,"midi":50,"time":309.636054,"velocity":0.2755905511811024},{"duration":0.18181799999996429,"midi":28,"time":309.817872,"velocity":0.2755905511811024},{"duration":0.18181799999996429,"midi":28,"time":309.817872,"velocity":0.2755905511811024},{"duration":0.18181799999996429,"midi":40,"time":309.817872,"velocity":0.2755905511811024},{"duration":0.18181799999996429,"midi":40,"time":309.817872,"velocity":0.2755905511811024},{"duration":0.18181800000002113,"midi":46,"time":309.99969,"velocity":0.2755905511811024},{"duration":0.18181800000002113,"midi":40,"time":309.99969,"velocity":0.2755905511811024},{"duration":0.18181800000002113,"midi":46,"time":309.99969,"velocity":0.2755905511811024},{"duration":0.18181800000002113,"midi":40,"time":309.99969,"velocity":0.2755905511811024},{"duration":0.18181800000002113,"midi":28,"time":310.181508,"velocity":0.2755905511811024},{"duration":0.18181800000002113,"midi":40,"time":310.181508,"velocity":0.2755905511811024},{"duration":0.18181800000002113,"midi":40,"time":310.181508,"velocity":0.2755905511811024},{"duration":0.18181800000002113,"midi":28,"time":310.181508,"velocity":0.2755905511811024},{"duration":0.18181799999996429,"midi":40,"time":310.36332600000003,"velocity":0.2755905511811024},{"duration":0.18181799999996429,"midi":46,"time":310.36332600000003,"velocity":0.2755905511811024},{"duration":0.18181799999996429,"midi":46,"time":310.36332600000003,"velocity":0.2755905511811024},{"duration":0.18181799999996429,"midi":40,"time":310.36332600000003,"velocity":0.2755905511811024},{"duration":0.18181800000002113,"midi":28,"time":310.545144,"velocity":0.2755905511811024},{"duration":0.18181800000002113,"midi":40,"time":310.545144,"velocity":0.2755905511811024},{"duration":0.18181800000002113,"midi":40,"time":310.545144,"velocity":0.2755905511811024},{"duration":0.18181800000002113,"midi":28,"time":310.545144,"velocity":0.2755905511811024},{"duration":0.18181800000002113,"midi":46,"time":310.726962,"velocity":0.2755905511811024},{"duration":0.18181800000002113,"midi":40,"time":310.726962,"velocity":0.2755905511811024},{"duration":0.18181800000002113,"midi":46,"time":310.726962,"velocity":0.2755905511811024},{"duration":0.18181800000002113,"midi":40,"time":310.726962,"velocity":0.2755905511811024},{"duration":0.18181799999996429,"midi":28,"time":310.90878000000004,"velocity":0.2755905511811024},{"duration":0.18181799999996429,"midi":40,"time":310.90878000000004,"velocity":0.2755905511811024},{"duration":0.18181799999996429,"midi":40,"time":310.90878000000004,"velocity":0.2755905511811024},{"duration":0.18181799999996429,"midi":28,"time":310.90878000000004,"velocity":0.2755905511811024},{"duration":0.18181800000002113,"midi":46,"time":311.090598,"velocity":0.2755905511811024},{"duration":0.18181800000002113,"midi":40,"time":311.090598,"velocity":0.2755905511811024},{"duration":0.18181800000002113,"midi":40,"time":311.090598,"velocity":0.2755905511811024},{"duration":0.18181800000002113,"midi":46,"time":311.090598,"velocity":0.2755905511811024},{"duration":0.18181799999996429,"midi":29,"time":311.272416,"velocity":0.2755905511811024},{"duration":0.18181799999996429,"midi":41,"time":311.272416,"velocity":0.2755905511811024},{"duration":0.18181799999996429,"midi":41,"time":311.272416,"velocity":0.2755905511811024},{"duration":0.18181799999996429,"midi":29,"time":311.272416,"velocity":0.2755905511811024},{"duration":0.18181800000002113,"midi":48,"time":311.454234,"velocity":0.2755905511811024},{"duration":0.18181800000002113,"midi":41,"time":311.454234,"velocity":0.2755905511811024},{"duration":0.18181800000002113,"midi":48,"time":311.454234,"velocity":0.2755905511811024},{"duration":0.18181800000002113,"midi":41,"time":311.454234,"velocity":0.2755905511811024},{"duration":0.18181800000002113,"midi":29,"time":311.636052,"velocity":0.2755905511811024},{"duration":0.18181800000002113,"midi":29,"time":311.636052,"velocity":0.2755905511811024},{"duration":0.18181800000002113,"midi":41,"time":311.636052,"velocity":0.2755905511811024},{"duration":0.18181800000002113,"midi":41,"time":311.636052,"velocity":0.2755905511811024},{"duration":0.18181799999996429,"midi":48,"time":311.81787,"velocity":0.2755905511811024},{"duration":0.18181799999996429,"midi":41,"time":311.81787,"velocity":0.2755905511811024},{"duration":0.18181799999996429,"midi":48,"time":311.81787,"velocity":0.2755905511811024},{"duration":0.18181799999996429,"midi":41,"time":311.81787,"velocity":0.2755905511811024},{"duration":0.18181800000002113,"midi":29,"time":311.999688,"velocity":0.2755905511811024},{"duration":0.18181800000002113,"midi":41,"time":311.999688,"velocity":0.2755905511811024},{"duration":0.18181800000002113,"midi":41,"time":311.999688,"velocity":0.2755905511811024},{"duration":0.18181800000002113,"midi":29,"time":311.999688,"velocity":0.2755905511811024},{"duration":0.18181800000002113,"midi":41,"time":312.181506,"velocity":0.2755905511811024},{"duration":0.18181800000002113,"midi":41,"time":312.181506,"velocity":0.2755905511811024},{"duration":0.18181800000002113,"midi":48,"time":312.181506,"velocity":0.2755905511811024},{"duration":0.18181800000002113,"midi":48,"time":312.181506,"velocity":0.2755905511811024},{"duration":0.18181799999996429,"midi":29,"time":312.36332400000003,"velocity":0.2755905511811024},{"duration":0.18181799999996429,"midi":41,"time":312.36332400000003,"velocity":0.2755905511811024},{"duration":0.18181799999996429,"midi":29,"time":312.36332400000003,"velocity":0.2755905511811024},{"duration":0.18181799999996429,"midi":41,"time":312.36332400000003,"velocity":0.2755905511811024},{"duration":0.18181800000002113,"midi":48,"time":312.545142,"velocity":0.2755905511811024},{"duration":0.18181800000002113,"midi":41,"time":312.545142,"velocity":0.2755905511811024},{"duration":0.18181800000002113,"midi":48,"time":312.545142,"velocity":0.2755905511811024},{"duration":0.18181800000002113,"midi":41,"time":312.545142,"velocity":0.2755905511811024},{"duration":0.18181800000002113,"midi":31,"time":312.72696,"velocity":0.2755905511811024},{"duration":0.18181800000002113,"midi":31,"time":312.72696,"velocity":0.2755905511811024},{"duration":0.18181800000002113,"midi":43,"time":312.72696,"velocity":0.2755905511811024},{"duration":0.18181800000002113,"midi":43,"time":312.72696,"velocity":0.2755905511811024},{"duration":0.18181799999996429,"midi":50,"time":312.90877800000004,"velocity":0.2755905511811024},{"duration":0.18181799999996429,"midi":43,"time":312.90877800000004,"velocity":0.2755905511811024},{"duration":0.18181799999996429,"midi":43,"time":312.90877800000004,"velocity":0.2755905511811024},{"duration":0.18181799999996429,"midi":50,"time":312.90877800000004,"velocity":0.2755905511811024},{"duration":0.18181800000002113,"midi":43,"time":313.090596,"velocity":0.2755905511811024},{"duration":0.18181800000002113,"midi":43,"time":313.090596,"velocity":0.2755905511811024},{"duration":0.18181800000002113,"midi":31,"time":313.090596,"velocity":0.2755905511811024},{"duration":0.18181800000002113,"midi":31,"time":313.090596,"velocity":0.2755905511811024},{"duration":0.18181799999996429,"midi":43,"time":313.272414,"velocity":0.2755905511811024},{"duration":0.18181799999996429,"midi":50,"time":313.272414,"velocity":0.2755905511811024},{"duration":0.18181799999996429,"midi":43,"time":313.272414,"velocity":0.2755905511811024},{"duration":0.18181799999996429,"midi":50,"time":313.272414,"velocity":0.2755905511811024},{"duration":0.18181800000002113,"midi":43,"time":313.454232,"velocity":0.2755905511811024},{"duration":0.18181800000002113,"midi":31,"time":313.454232,"velocity":0.2755905511811024},{"duration":0.18181800000002113,"midi":43,"time":313.454232,"velocity":0.2755905511811024},{"duration":0.18181800000002113,"midi":31,"time":313.454232,"velocity":0.2755905511811024},{"duration":0.18181800000002113,"midi":50,"time":313.63605,"velocity":0.2755905511811024},{"duration":0.18181800000002113,"midi":50,"time":313.63605,"velocity":0.2755905511811024},{"duration":0.18181800000002113,"midi":43,"time":313.63605,"velocity":0.2755905511811024},{"duration":0.18181800000002113,"midi":43,"time":313.63605,"velocity":0.2755905511811024},{"duration":0.18181799999996429,"midi":43,"time":313.81786800000003,"velocity":0.2755905511811024},{"duration":0.18181799999996429,"midi":43,"time":313.81786800000003,"velocity":0.2755905511811024},{"duration":0.18181799999996429,"midi":31,"time":313.81786800000003,"velocity":0.2755905511811024},{"duration":0.18181799999996429,"midi":31,"time":313.81786800000003,"velocity":0.2755905511811024},{"duration":0.18181800000002113,"midi":50,"time":313.999686,"velocity":0.2755905511811024},{"duration":0.18181800000002113,"midi":43,"time":313.999686,"velocity":0.2755905511811024},{"duration":0.18181800000002113,"midi":43,"time":313.999686,"velocity":0.2755905511811024},{"duration":0.18181800000002113,"midi":50,"time":313.999686,"velocity":0.2755905511811024},{"duration":0.18181800000002113,"midi":31,"time":314.181504,"velocity":0.2755905511811024},{"duration":0.18181800000002113,"midi":43,"time":314.181504,"velocity":0.2755905511811024},{"duration":0.18181800000002113,"midi":31,"time":314.181504,"velocity":0.2755905511811024},{"duration":0.18181800000002113,"midi":43,"time":314.181504,"velocity":0.2755905511811024}]},{"instrument":{"family":"piano","number":0,"name":"acoustic grand piano"},"notes":[{"duration":0.18181800000000692,"midi":82,"time":122.181696,"velocity":0.3937007874015748},{"duration":0.1818179999999927,"midi":79,"time":122.36351400000001,"velocity":0.3937007874015748},{"duration":0.18181800000000692,"midi":82,"time":122.908968,"velocity":0.3937007874015748},{"duration":0.1818179999999927,"midi":79,"time":123.09078600000001,"velocity":0.3937007874015748},{"duration":0.3636359999999996,"midi":81,"time":123.272604,"velocity":0.3937007874015748},{"duration":0.18181800000000692,"midi":82,"time":123.63624,"velocity":0.3937007874015748},{"duration":0.1818179999999927,"midi":79,"time":123.81805800000001,"velocity":0.3937007874015748},{"duration":0.18181800000000692,"midi":82,"time":124.363512,"velocity":0.3937007874015748},{"duration":0.1818179999999927,"midi":79,"time":124.54533,"velocity":0.3937007874015748},{"duration":0.3636359999999996,"midi":81,"time":124.727148,"velocity":0.3937007874015748},{"duration":0.18181800000000692,"midi":82,"time":125.090784,"velocity":0.3937007874015748},{"duration":0.1818179999999927,"midi":79,"time":125.272602,"velocity":0.3937007874015748},{"duration":0.18181800000000692,"midi":82,"time":125.818056,"velocity":0.3937007874015748},{"duration":0.1818179999999927,"midi":79,"time":125.999874,"velocity":0.3937007874015748},{"duration":0.36363600000001384,"midi":81,"time":126.181692,"velocity":0.3937007874015748},{"duration":0.1818179999999927,"midi":82,"time":126.54532800000001,"velocity":0.3937007874015748},{"duration":0.18181800000000692,"midi":79,"time":126.727146,"velocity":0.3937007874015748},{"duration":0.1818179999999927,"midi":82,"time":127.27260000000001,"velocity":0.3937007874015748},{"duration":0.1818179999999927,"midi":82,"time":127.27260000000001,"velocity":0.3937007874015748},{"duration":0.18181800000000692,"midi":79,"time":127.454418,"velocity":0.3937007874015748},{"duration":0.18181800000000692,"midi":79,"time":127.454418,"velocity":0.3937007874015748},{"duration":0.18181800000000692,"midi":79,"time":127.454418,"velocity":0.3937007874015748},{"duration":0.1818179999999927,"midi":81,"time":127.63623600000001,"velocity":0.3937007874015748},{"duration":0.1818179999999927,"midi":81,"time":127.63623600000001,"velocity":0.3937007874015748},{"duration":0.1818179999999927,"midi":81,"time":127.63623600000001,"velocity":0.3937007874015748},{"duration":0.3636359999999996,"midi":81,"time":127.63623600000001,"velocity":0.3937007874015748},{"duration":0.1818179999999927,"midi":86,"time":151.27257600000002,"velocity":0.3937007874015748},{"duration":0.1818179999999927,"midi":82,"time":151.27257600000002,"velocity":0.3937007874015748},{"duration":0.1818179999999927,"midi":89,"time":151.636212,"velocity":0.3937007874015748},{"duration":0.1818179999999927,"midi":86,"time":151.636212,"velocity":0.3937007874015748},{"duration":0.02272725000000264,"midi":81,"time":151.908939,"velocity":0.3937007874015748},{"duration":0.02272725000000264,"midi":85,"time":151.908939,"velocity":0.3937007874015748},{"duration":0.02272725000000264,"midi":86,"time":151.9543935,"velocity":0.3937007874015748},{"duration":0.02272725000000264,"midi":82,"time":151.9543935,"velocity":0.3937007874015748},{"duration":0.09090899999998214,"midi":84,"time":151.99984800000001,"velocity":0.3937007874015748},{"duration":0.09090899999998214,"midi":81,"time":151.99984800000001,"velocity":0.3937007874015748},{"duration":0.1818179999999927,"midi":79,"time":152.181666,"velocity":0.3937007874015748},{"duration":0.1818179999999927,"midi":82,"time":152.181666,"velocity":0.3937007874015748},{"duration":0.09090900000001056,"midi":79,"time":152.545302,"velocity":0.3937007874015748},{"duration":0.1818179999999927,"midi":86,"time":152.72712,"velocity":0.3937007874015748},{"duration":0.1818179999999927,"midi":82,"time":152.72712,"velocity":0.3937007874015748},{"duration":0.18181800000002113,"midi":89,"time":153.090756,"velocity":0.3937007874015748},{"duration":0.18181800000002113,"midi":86,"time":153.090756,"velocity":0.3937007874015748},{"duration":0.1818179999999927,"midi":86,"time":153.454392,"velocity":0.3937007874015748},{"duration":0.1818179999999927,"midi":82,"time":153.454392,"velocity":0.3937007874015748},{"duration":0.18181800000002113,"midi":89,"time":153.818028,"velocity":0.3937007874015748},{"duration":0.18181800000002113,"midi":86,"time":153.818028,"velocity":0.3937007874015748},{"duration":0.1818179999999927,"midi":81,"time":154.181664,"velocity":0.3937007874015748},{"duration":0.1818179999999927,"midi":84,"time":154.181664,"velocity":0.3937007874015748},{"duration":0.18181800000002113,"midi":81,"time":154.5453,"velocity":0.3937007874015748},{"duration":0.02272725000000264,"midi":81,"time":154.818027,"velocity":0.3937007874015748},{"duration":0.02272725000000264,"midi":85,"time":154.818027,"velocity":0.3937007874015748},{"duration":0.02272725000000264,"midi":86,"time":154.8634815,"velocity":0.3937007874015748},{"duration":0.02272725000000264,"midi":82,"time":154.8634815,"velocity":0.3937007874015748},{"duration":0.09090899999998214,"midi":84,"time":154.908936,"velocity":0.3937007874015748},{"duration":0.09090899999998214,"midi":81,"time":154.908936,"velocity":0.3937007874015748},{"duration":0.09090900000001056,"midi":79,"time":155.090754,"velocity":0.3937007874015748},{"duration":0.09090900000001056,"midi":82,"time":155.090754,"velocity":0.3937007874015748},{"duration":0.09090900000001056,"midi":79,"time":155.272572,"velocity":0.3937007874015748},{"duration":0.09090899999998214,"midi":79,"time":155.45439000000002,"velocity":0.3937007874015748},{"duration":0.1818179999999927,"midi":82,"time":155.636208,"velocity":0.3937007874015748},{"duration":0.1818179999999927,"midi":85,"time":155.636208,"velocity":0.3937007874015748},{"duration":0.18181800000002113,"midi":84,"time":155.999844,"velocity":0.3937007874015748},{"duration":0.18181800000002113,"midi":81,"time":155.999844,"velocity":0.3937007874015748},{"duration":0.1818179999999927,"midi":85,"time":156.36348,"velocity":0.3937007874015748},{"duration":0.1818179999999927,"midi":82,"time":156.36348,"velocity":0.3937007874015748},{"duration":0.09090900000001056,"midi":81,"time":156.727116,"velocity":0.3937007874015748},{"duration":0.09090900000001056,"midi":84,"time":156.727116,"velocity":0.3937007874015748},{"duration":0.09090899999998214,"midi":79,"time":156.90893400000002,"velocity":0.3937007874015748},{"duration":0.09090899999998214,"midi":82,"time":156.90893400000002,"velocity":0.3937007874015748},{"duration":0.1818179999999927,"midi":86,"time":157.090752,"velocity":0.3937007874015748},{"duration":0.1818179999999927,"midi":82,"time":157.090752,"velocity":0.3937007874015748},{"duration":0.18181800000002113,"midi":89,"time":157.454388,"velocity":0.3937007874015748},{"duration":0.18181800000002113,"midi":86,"time":157.454388,"velocity":0.3937007874015748},{"duration":0.02272725000000264,"midi":81,"time":157.727115,"velocity":0.3937007874015748},{"duration":0.02272725000000264,"midi":85,"time":157.727115,"velocity":0.3937007874015748},{"duration":0.02272725000000264,"midi":86,"time":157.7725695,"velocity":0.3937007874015748},{"duration":0.02272725000000264,"midi":82,"time":157.7725695,"velocity":0.3937007874015748},{"duration":0.09090900000001056,"midi":81,"time":157.818024,"velocity":0.3937007874015748},{"duration":0.09090900000001056,"midi":84,"time":157.818024,"velocity":0.3937007874015748},{"duration":0.1818179999999927,"midi":79,"time":157.999842,"velocity":0.3937007874015748},{"duration":0.1818179999999927,"midi":82,"time":157.999842,"velocity":0.3937007874015748},{"duration":0.09090899999998214,"midi":79,"time":158.36347800000001,"velocity":0.3937007874015748},{"duration":0.1818179999999927,"midi":82,"time":158.545296,"velocity":0.3937007874015748},{"duration":0.1818179999999927,"midi":86,"time":158.545296,"velocity":0.3937007874015748},{"duration":0.18181800000002113,"midi":86,"time":158.908932,"velocity":0.3937007874015748},{"duration":0.18181800000002113,"midi":89,"time":158.908932,"velocity":0.3937007874015748},{"duration":0.1818179999999927,"midi":82,"time":159.272568,"velocity":0.3937007874015748},{"duration":0.1818179999999927,"midi":86,"time":159.272568,"velocity":0.3937007874015748},{"duration":0.1818179999999927,"midi":89,"time":159.63620400000002,"velocity":0.3937007874015748},{"duration":0.1818179999999927,"midi":86,"time":159.63620400000002,"velocity":0.3937007874015748},{"duration":0.1818179999999927,"midi":84,"time":159.99984,"velocity":0.3937007874015748},{"duration":0.1818179999999927,"midi":81,"time":159.99984,"velocity":0.3937007874015748},{"duration":0.1818179999999927,"midi":81,"time":160.36347600000002,"velocity":0.3937007874015748},{"duration":0.1818179999999927,"midi":84,"time":160.36347600000002,"velocity":0.3937007874015748},{"duration":0.02272725000000264,"midi":81,"time":160.636203,"velocity":0.3937007874015748},{"duration":0.02272725000000264,"midi":85,"time":160.636203,"velocity":0.3937007874015748},{"duration":0.02272725000000264,"midi":86,"time":160.6816575,"velocity":0.3937007874015748},{"duration":0.02272725000000264,"midi":82,"time":160.6816575,"velocity":0.3937007874015748},{"duration":0.09090900000001056,"midi":84,"time":160.727112,"velocity":0.3937007874015748},{"duration":0.09090900000001056,"midi":81,"time":160.727112,"velocity":0.3937007874015748},{"duration":0.09090900000001056,"midi":79,"time":160.90893,"velocity":0.3937007874015748},{"duration":0.09090900000001056,"midi":82,"time":160.90893,"velocity":0.3937007874015748},{"duration":0.09090899999998214,"midi":82,"time":161.09074800000002,"velocity":0.3937007874015748},{"duration":0.09090899999998214,"midi":79,"time":161.09074800000002,"velocity":0.3937007874015748},{"duration":0.09090899999998214,"midi":79,"time":161.272566,"velocity":0.3937007874015748},{"duration":0.1818179999999927,"midi":85,"time":161.454384,"velocity":0.3937007874015748},{"duration":0.1818179999999927,"midi":82,"time":161.454384,"velocity":0.3937007874015748},{"duration":0.1818179999999927,"midi":84,"time":161.81802000000002,"velocity":0.3937007874015748},{"duration":0.1818179999999927,"midi":81,"time":161.81802000000002,"velocity":0.3937007874015748},{"duration":0.1818179999999927,"midi":82,"time":162.181656,"velocity":0.3937007874015748},{"duration":0.1818179999999927,"midi":85,"time":162.181656,"velocity":0.3937007874015748},{"duration":0.09090899999998214,"midi":81,"time":162.54529200000002,"velocity":0.3937007874015748},{"duration":0.09090899999998214,"midi":84,"time":162.54529200000002,"velocity":0.3937007874015748},{"duration":0.09090899999998214,"midi":79,"time":162.72711,"velocity":0.3937007874015748},{"duration":0.09090899999998214,"midi":82,"time":162.72711,"velocity":0.3937007874015748},{"duration":0.1818179999999927,"midi":82,"time":162.908928,"velocity":0.3937007874015748},{"duration":0.1818179999999927,"midi":86,"time":162.908928,"velocity":0.3937007874015748},{"duration":0.1818179999999927,"midi":89,"time":163.27256400000002,"velocity":0.3937007874015748},{"duration":0.1818179999999927,"midi":86,"time":163.27256400000002,"velocity":0.3937007874015748},{"duration":0.02272724999997422,"midi":81,"time":163.54529100000002,"velocity":0.3937007874015748},{"duration":0.02272724999997422,"midi":85,"time":163.54529100000002,"velocity":0.3937007874015748},{"duration":0.02272725000000264,"midi":82,"time":163.5907455,"velocity":0.3937007874015748},{"duration":0.02272725000000264,"midi":86,"time":163.5907455,"velocity":0.3937007874015748},{"duration":0.09090900000001056,"midi":81,"time":163.6362,"velocity":0.3937007874015748},{"duration":0.09090900000001056,"midi":84,"time":163.6362,"velocity":0.3937007874015748},{"duration":0.18181800000002113,"midi":82,"time":163.818018,"velocity":0.3937007874015748},{"duration":0.18181800000002113,"midi":79,"time":163.818018,"velocity":0.3937007874015748},{"duration":0.09090900000001056,"midi":79,"time":164.181654,"velocity":0.3937007874015748},{"duration":0.1818179999999927,"midi":82,"time":164.363472,"velocity":0.3937007874015748},{"duration":0.1818179999999927,"midi":86,"time":164.363472,"velocity":0.3937007874015748},{"duration":0.1818179999999927,"midi":89,"time":164.72710800000002,"velocity":0.3937007874015748},{"duration":0.1818179999999927,"midi":86,"time":164.72710800000002,"velocity":0.3937007874015748},{"duration":0.1818179999999927,"midi":86,"time":165.090744,"velocity":0.3937007874015748},{"duration":0.1818179999999927,"midi":82,"time":165.090744,"velocity":0.3937007874015748},{"duration":0.1818179999999927,"midi":86,"time":165.45438000000001,"velocity":0.3937007874015748},{"duration":0.1818179999999927,"midi":89,"time":165.45438000000001,"velocity":0.3937007874015748},{"duration":0.1818179999999927,"midi":81,"time":165.818016,"velocity":0.3937007874015748},{"duration":0.1818179999999927,"midi":84,"time":165.818016,"velocity":0.3937007874015748},{"duration":0.1818179999999927,"midi":81,"time":166.181652,"velocity":0.3937007874015748},{"duration":0.02272725000000264,"midi":85,"time":166.45437900000002,"velocity":0.3937007874015748},{"duration":0.02272725000000264,"midi":81,"time":166.45437900000002,"velocity":0.3937007874015748},{"duration":0.02272725000000264,"midi":82,"time":166.4998335,"velocity":0.3937007874015748},{"duration":0.02272725000000264,"midi":86,"time":166.4998335,"velocity":0.3937007874015748},{"duration":0.09090900000001056,"midi":81,"time":166.545288,"velocity":0.3937007874015748},{"duration":0.09090900000001056,"midi":84,"time":166.545288,"velocity":0.3937007874015748},{"duration":0.09090899999998214,"midi":79,"time":166.72710600000002,"velocity":0.3937007874015748},{"duration":0.09090899999998214,"midi":82,"time":166.72710600000002,"velocity":0.3937007874015748},{"duration":0.09090899999998214,"midi":79,"time":166.908924,"velocity":0.3937007874015748},{"duration":0.09090900000001056,"midi":79,"time":167.090742,"velocity":0.3937007874015748},{"duration":0.18181800000002113,"midi":82,"time":167.27256,"velocity":0.3937007874015748},{"duration":0.18181800000002113,"midi":85,"time":167.27256,"velocity":0.3937007874015748},{"duration":0.1818179999999927,"midi":84,"time":167.636196,"velocity":0.3937007874015748},{"duration":0.1818179999999927,"midi":81,"time":167.636196,"velocity":0.3937007874015748},{"duration":0.18181800000002113,"midi":82,"time":167.999832,"velocity":0.3937007874015748},{"duration":0.18181800000002113,"midi":85,"time":167.999832,"velocity":0.3937007874015748},{"duration":0.09090899999998214,"midi":81,"time":168.363468,"velocity":0.3937007874015748},{"duration":0.09090899999998214,"midi":84,"time":168.363468,"velocity":0.3937007874015748},{"duration":0.09090900000001056,"midi":82,"time":168.545286,"velocity":0.3937007874015748},{"duration":0.09090900000001056,"midi":79,"time":168.545286,"velocity":0.3937007874015748},{"duration":0.18181800000002113,"midi":82,"time":168.727104,"velocity":0.3937007874015748},{"duration":0.18181800000002113,"midi":86,"time":168.727104,"velocity":0.3937007874015748},{"duration":0.1818179999999927,"midi":89,"time":169.09074,"velocity":0.3937007874015748},{"duration":0.1818179999999927,"midi":86,"time":169.09074,"velocity":0.3937007874015748},{"duration":0.02272725000000264,"midi":85,"time":169.363467,"velocity":0.3937007874015748},{"duration":0.02272725000000264,"midi":81,"time":169.363467,"velocity":0.3937007874015748},{"duration":0.02272724999997422,"midi":86,"time":169.40892150000002,"velocity":0.3937007874015748},{"duration":0.02272724999997422,"midi":82,"time":169.40892150000002,"velocity":0.3937007874015748},{"duration":0.09090900000001056,"midi":81,"time":169.454376,"velocity":0.3937007874015748},{"duration":0.09090900000001056,"midi":84,"time":169.454376,"velocity":0.3937007874015748},{"duration":0.1818179999999927,"midi":79,"time":169.63619400000002,"velocity":0.3937007874015748},{"duration":0.1818179999999927,"midi":82,"time":169.63619400000002,"velocity":0.3937007874015748},{"duration":0.09090900000001056,"midi":79,"time":169.99983,"velocity":0.3937007874015748},{"duration":0.18181800000002113,"midi":86,"time":170.181648,"velocity":0.3937007874015748},{"duration":0.18181800000002113,"midi":82,"time":170.181648,"velocity":0.3937007874015748},{"duration":0.1818179999999927,"midi":89,"time":170.545284,"velocity":0.3937007874015748},{"duration":0.1818179999999927,"midi":86,"time":170.545284,"velocity":0.3937007874015748},{"duration":0.18181800000002113,"midi":86,"time":170.90892,"velocity":0.3937007874015748},{"duration":0.18181800000002113,"midi":82,"time":170.90892,"velocity":0.3937007874015748},{"duration":0.1818179999999927,"midi":89,"time":171.272556,"velocity":0.3937007874015748},{"duration":0.1818179999999927,"midi":86,"time":171.272556,"velocity":0.3937007874015748},{"duration":0.18181800000002113,"midi":81,"time":171.636192,"velocity":0.3937007874015748},{"duration":0.18181800000002113,"midi":84,"time":171.636192,"velocity":0.3937007874015748},{"duration":0.1818179999999927,"midi":84,"time":171.999828,"velocity":0.3937007874015748},{"duration":0.1818179999999927,"midi":81,"time":171.999828,"velocity":0.3937007874015748},{"duration":0.02272725000000264,"midi":81,"time":172.272555,"velocity":0.3937007874015748},{"duration":0.02272725000000264,"midi":85,"time":172.272555,"velocity":0.3937007874015748},{"duration":0.02272725000000264,"midi":86,"time":172.31800950000002,"velocity":0.3937007874015748},{"duration":0.02272725000000264,"midi":82,"time":172.31800950000002,"velocity":0.3937007874015748},{"duration":0.09090900000001056,"midi":81,"time":172.363464,"velocity":0.3937007874015748},{"duration":0.09090900000001056,"midi":84,"time":172.363464,"velocity":0.3937007874015748},{"duration":0.09090899999998214,"midi":82,"time":172.54528200000001,"velocity":0.3937007874015748},{"duration":0.09090899999998214,"midi":79,"time":172.54528200000001,"velocity":0.3937007874015748},{"duration":0.09090900000001056,"midi":79,"time":172.7271,"velocity":0.3937007874015748},{"duration":0.09090900000001056,"midi":82,"time":172.7271,"velocity":0.3937007874015748},{"duration":0.09090900000001056,"midi":79,"time":172.908918,"velocity":0.3937007874015748},{"duration":0.1818179999999927,"midi":82,"time":173.09073600000002,"velocity":0.3937007874015748},{"duration":0.1818179999999927,"midi":85,"time":173.09073600000002,"velocity":0.3937007874015748},{"duration":0.1818179999999927,"midi":84,"time":173.454372,"velocity":0.3937007874015748},{"duration":0.1818179999999927,"midi":81,"time":173.454372,"velocity":0.3937007874015748},{"duration":0.1818179999999927,"midi":82,"time":173.81800800000002,"velocity":0.3937007874015748},{"duration":0.1818179999999927,"midi":85,"time":173.81800800000002,"velocity":0.3937007874015748},{"duration":0.09090900000001056,"midi":81,"time":174.181644,"velocity":0.3937007874015748},{"duration":0.09090900000001056,"midi":84,"time":174.181644,"velocity":0.3937007874015748},{"duration":0.09090900000001056,"midi":79,"time":174.363462,"velocity":0.3937007874015748},{"duration":0.09090900000001056,"midi":82,"time":174.363462,"velocity":0.3937007874015748},{"duration":0.1818179999999927,"midi":82,"time":238.545216,"velocity":0.3937007874015748},{"duration":0.1818179999999927,"midi":79,"time":238.727034,"velocity":0.3937007874015748},{"duration":0.1818179999999927,"midi":82,"time":239.272488,"velocity":0.3937007874015748},{"duration":0.18181800000002113,"midi":79,"time":239.454306,"velocity":0.3937007874015748},{"duration":0.3636359999999854,"midi":81,"time":239.63612400000002,"velocity":0.3937007874015748},{"duration":0.1818179999999927,"midi":82,"time":239.99976,"velocity":0.3937007874015748},{"duration":0.18181800000002113,"midi":79,"time":240.181578,"velocity":0.3937007874015748},{"duration":0.1818179999999927,"midi":82,"time":240.727032,"velocity":0.3937007874015748},{"duration":0.18181800000002113,"midi":79,"time":240.90885,"velocity":0.3937007874015748},{"duration":0.3636359999999854,"midi":81,"time":241.09066800000002,"velocity":0.3937007874015748},{"duration":0.1818179999999927,"midi":82,"time":241.454304,"velocity":0.3937007874015748},{"duration":0.18181800000002113,"midi":79,"time":241.636122,"velocity":0.3937007874015748},{"duration":0.1818179999999927,"midi":82,"time":242.181576,"velocity":0.3937007874015748},{"duration":0.18181800000002113,"midi":79,"time":242.363394,"velocity":0.3937007874015748},{"duration":0.3636359999999854,"midi":81,"time":242.54521200000002,"velocity":0.3937007874015748},{"duration":0.1818179999999927,"midi":82,"time":242.908848,"velocity":0.3937007874015748},{"duration":0.18181800000002113,"midi":79,"time":243.090666,"velocity":0.3937007874015748},{"duration":0.1818179999999927,"midi":82,"time":243.63612,"velocity":0.3937007874015748},{"duration":0.1818179999999927,"midi":82,"time":243.63612,"velocity":0.3937007874015748},{"duration":0.18181800000002113,"midi":79,"time":243.817938,"velocity":0.3937007874015748},{"duration":0.18181800000002113,"midi":79,"time":243.817938,"velocity":0.3937007874015748},{"duration":0.18181800000002113,"midi":79,"time":243.817938,"velocity":0.3937007874015748},{"duration":0.1818179999999927,"midi":81,"time":243.99975600000002,"velocity":0.3937007874015748},{"duration":0.1818179999999927,"midi":81,"time":243.99975600000002,"velocity":0.3937007874015748},{"duration":0.1818179999999927,"midi":81,"time":243.99975600000002,"velocity":0.3937007874015748},{"duration":0.3636359999999854,"midi":81,"time":243.99975600000002,"velocity":0.3937007874015748}]},{"instrument":{"family":"piano","number":0,"name":"acoustic grand piano"},"notes":[{"duration":0.0909089999999999,"midi":31,"time":11.636352,"velocity":0.15748031496062992},{"duration":0.0909089999999999,"midi":43,"time":11.636352,"velocity":0.15748031496062992},{"duration":0.0909089999999999,"midi":43,"time":11.636352,"velocity":0.15748031496062992},{"duration":0.0909089999999999,"midi":31,"time":11.636352,"velocity":0.15748031496062992},{"duration":0.0909089999999999,"midi":55,"time":11.81817,"velocity":0.15748031496062992},{"duration":0.0909089999999999,"midi":43,"time":11.81817,"velocity":0.15748031496062992},{"duration":0.0909089999999999,"midi":55,"time":11.81817,"velocity":0.15748031496062992},{"duration":0.0909089999999999,"midi":43,"time":11.81817,"velocity":0.15748031496062992},{"duration":0.0909089999999999,"midi":43,"time":11.999988,"velocity":0.15748031496062992},{"duration":0.0909089999999999,"midi":31,"time":11.999988,"velocity":0.15748031496062992},{"duration":0.0909089999999999,"midi":43,"time":11.999988,"velocity":0.15748031496062992},{"duration":0.0909089999999999,"midi":31,"time":11.999988,"velocity":0.15748031496062992},{"duration":0.0909089999999999,"midi":43,"time":12.181806,"velocity":0.15748031496062992},{"duration":0.0909089999999999,"midi":55,"time":12.181806,"velocity":0.15748031496062992},{"duration":0.0909089999999999,"midi":55,"time":12.181806,"velocity":0.15748031496062992},{"duration":0.0909089999999999,"midi":43,"time":12.181806,"velocity":0.15748031496062992},{"duration":0.0909089999999999,"midi":31,"time":12.363624,"velocity":0.15748031496062992},{"duration":0.0909089999999999,"midi":31,"time":12.363624,"velocity":0.15748031496062992},{"duration":0.0909089999999999,"midi":43,"time":12.363624,"velocity":0.15748031496062992},{"duration":0.0909089999999999,"midi":43,"time":12.363624,"velocity":0.15748031496062992},{"duration":0.0909089999999999,"midi":55,"time":12.545442000000001,"velocity":0.15748031496062992},{"duration":0.0909089999999999,"midi":43,"time":12.545442000000001,"velocity":0.15748031496062992},{"duration":0.0909089999999999,"midi":55,"time":12.545442000000001,"velocity":0.15748031496062992},{"duration":0.0909089999999999,"midi":43,"time":12.545442000000001,"velocity":0.15748031496062992},{"duration":0.0909089999999999,"midi":43,"time":12.727260000000001,"velocity":0.15748031496062992},{"duration":0.0909089999999999,"midi":31,"time":12.727260000000001,"velocity":0.15748031496062992},{"duration":0.0909089999999999,"midi":43,"time":12.727260000000001,"velocity":0.15748031496062992},{"duration":0.0909089999999999,"midi":31,"time":12.727260000000001,"velocity":0.15748031496062992},{"duration":0.0909089999999999,"midi":55,"time":12.909078000000001,"velocity":0.15748031496062992},{"duration":0.0909089999999999,"midi":43,"time":12.909078000000001,"velocity":0.15748031496062992},{"duration":0.0909089999999999,"midi":55,"time":12.909078000000001,"velocity":0.15748031496062992},{"duration":0.0909089999999999,"midi":43,"time":12.909078000000001,"velocity":0.15748031496062992},{"duration":0.0909089999999999,"midi":28,"time":13.090896,"velocity":0.15748031496062992},{"duration":0.0909089999999999,"midi":28,"time":13.090896,"velocity":0.15748031496062992},{"duration":0.0909089999999999,"midi":40,"time":13.090896,"velocity":0.15748031496062992},{"duration":0.0909089999999999,"midi":40,"time":13.090896,"velocity":0.15748031496062992},{"duration":0.0909089999999999,"midi":40,"time":13.272714,"velocity":0.15748031496062992},{"duration":0.0909089999999999,"midi":52,"time":13.272714,"velocity":0.15748031496062992},{"duration":0.0909089999999999,"midi":52,"time":13.272714,"velocity":0.15748031496062992},{"duration":0.0909089999999999,"midi":40,"time":13.272714,"velocity":0.15748031496062992},{"duration":0.0909089999999999,"midi":28,"time":13.454532,"velocity":0.15748031496062992},{"duration":0.0909089999999999,"midi":40,"time":13.454532,"velocity":0.15748031496062992},{"duration":0.0909089999999999,"midi":40,"time":13.454532,"velocity":0.15748031496062992},{"duration":0.0909089999999999,"midi":28,"time":13.454532,"velocity":0.15748031496062992},{"duration":0.0909089999999999,"midi":52,"time":13.63635,"velocity":0.15748031496062992},{"duration":0.0909089999999999,"midi":52,"time":13.63635,"velocity":0.15748031496062992},{"duration":0.0909089999999999,"midi":40,"time":13.63635,"velocity":0.15748031496062992},{"duration":0.0909089999999999,"midi":40,"time":13.63635,"velocity":0.15748031496062992},{"duration":0.0909089999999999,"midi":40,"time":13.818168,"velocity":0.15748031496062992},{"duration":0.0909089999999999,"midi":28,"time":13.818168,"velocity":0.15748031496062992},{"duration":0.0909089999999999,"midi":40,"time":13.818168,"velocity":0.15748031496062992},{"duration":0.0909089999999999,"midi":28,"time":13.818168,"velocity":0.15748031496062992},{"duration":0.0909089999999999,"midi":40,"time":13.999986,"velocity":0.15748031496062992},{"duration":0.0909089999999999,"midi":40,"time":13.999986,"velocity":0.15748031496062992},{"duration":0.0909089999999999,"midi":52,"time":13.999986,"velocity":0.15748031496062992},{"duration":0.0909089999999999,"midi":52,"time":13.999986,"velocity":0.15748031496062992},{"duration":0.0909089999999999,"midi":40,"time":14.181804000000001,"velocity":0.15748031496062992},{"duration":0.0909089999999999,"midi":28,"time":14.181804000000001,"velocity":0.15748031496062992},{"duration":0.0909089999999999,"midi":40,"time":14.181804000000001,"velocity":0.15748031496062992},{"duration":0.0909089999999999,"midi":28,"time":14.181804000000001,"velocity":0.15748031496062992},{"duration":0.0909089999999999,"midi":40,"time":14.363622000000001,"velocity":0.15748031496062992},{"duration":0.0909089999999999,"midi":52,"time":14.363622000000001,"velocity":0.15748031496062992},{"duration":0.0909089999999999,"midi":52,"time":14.363622000000001,"velocity":0.15748031496062992},{"duration":0.0909089999999999,"midi":40,"time":14.363622000000001,"velocity":0.15748031496062992},{"duration":0.0909089999999999,"midi":29,"time":14.545440000000001,"velocity":0.15748031496062992},{"duration":0.0909089999999999,"midi":41,"time":14.545440000000001,"velocity":0.15748031496062992},{"duration":0.0909089999999999,"midi":41,"time":14.545440000000001,"velocity":0.15748031496062992},{"duration":0.0909089999999999,"midi":29,"time":14.545440000000001,"velocity":0.15748031496062992},{"duration":0.0909089999999999,"midi":41,"time":14.727258,"velocity":0.15748031496062992},{"duration":0.0909089999999999,"midi":53,"time":14.727258,"velocity":0.15748031496062992},{"duration":0.0909089999999999,"midi":41,"time":14.727258,"velocity":0.15748031496062992},{"duration":0.0909089999999999,"midi":53,"time":14.727258,"velocity":0.15748031496062992},{"duration":0.0909089999999999,"midi":41,"time":14.909076,"velocity":0.15748031496062992},{"duration":0.0909089999999999,"midi":29,"time":14.909076,"velocity":0.15748031496062992},{"duration":0.0909089999999999,"midi":41,"time":14.909076,"velocity":0.15748031496062992},{"duration":0.0909089999999999,"midi":29,"time":14.909076,"velocity":0.15748031496062992},{"duration":0.0909089999999999,"midi":41,"time":15.090894,"velocity":0.15748031496062992},{"duration":0.0909089999999999,"midi":53,"time":15.090894,"velocity":0.15748031496062992},{"duration":0.0909089999999999,"midi":53,"time":15.090894,"velocity":0.15748031496062992},{"duration":0.0909089999999999,"midi":41,"time":15.090894,"velocity":0.15748031496062992},{"duration":0.0909089999999999,"midi":29,"time":15.272712,"velocity":0.15748031496062992},{"duration":0.0909089999999999,"midi":29,"time":15.272712,"velocity":0.15748031496062992},{"duration":0.0909089999999999,"midi":41,"time":15.272712,"velocity":0.15748031496062992},{"duration":0.0909089999999999,"midi":41,"time":15.272712,"velocity":0.15748031496062992},{"duration":0.0909089999999999,"midi":41,"time":15.45453,"velocity":0.15748031496062992},{"duration":0.0909089999999999,"midi":53,"time":15.45453,"velocity":0.15748031496062992},{"duration":0.0909089999999999,"midi":53,"time":15.45453,"velocity":0.15748031496062992},{"duration":0.0909089999999999,"midi":41,"time":15.45453,"velocity":0.15748031496062992},{"duration":0.0909089999999999,"midi":29,"time":15.636348,"velocity":0.15748031496062992},{"duration":0.0909089999999999,"midi":41,"time":15.636348,"velocity":0.15748031496062992},{"duration":0.0909089999999999,"midi":29,"time":15.636348,"velocity":0.15748031496062992},{"duration":0.0909089999999999,"midi":41,"time":15.636348,"velocity":0.15748031496062992},{"duration":0.0909089999999999,"midi":41,"time":15.818166000000002,"velocity":0.15748031496062992},{"duration":0.0909089999999999,"midi":53,"time":15.818166000000002,"velocity":0.15748031496062992},{"duration":0.0909089999999999,"midi":53,"time":15.818166000000002,"velocity":0.15748031496062992},{"duration":0.0909089999999999,"midi":41,"time":15.818166000000002,"velocity":0.15748031496062992},{"duration":0.0909089999999999,"midi":31,"time":15.999984000000001,"velocity":0.15748031496062992},{"duration":0.0909089999999999,"midi":31,"time":15.999984000000001,"velocity":0.15748031496062992},{"duration":0.0909089999999999,"midi":43,"time":15.999984000000001,"velocity":0.15748031496062992},{"duration":0.0909089999999999,"midi":43,"time":15.999984000000001,"velocity":0.15748031496062992},{"duration":0.0909089999999999,"midi":43,"time":16.181802,"velocity":0.15748031496062992},{"duration":0.0909089999999999,"midi":43,"time":16.181802,"velocity":0.15748031496062992},{"duration":0.0909089999999999,"midi":55,"time":16.181802,"velocity":0.15748031496062992},{"duration":0.0909089999999999,"midi":55,"time":16.181802,"velocity":0.15748031496062992},{"duration":0.0909089999999999,"midi":43,"time":16.36362,"velocity":0.15748031496062992},{"duration":0.0909089999999999,"midi":31,"time":16.36362,"velocity":0.15748031496062992},{"duration":0.0909089999999999,"midi":43,"time":16.36362,"velocity":0.15748031496062992},{"duration":0.0909089999999999,"midi":31,"time":16.36362,"velocity":0.15748031496062992},{"duration":0.0909089999999999,"midi":55,"time":16.545438,"velocity":0.15748031496062992},{"duration":0.0909089999999999,"midi":43,"time":16.545438,"velocity":0.15748031496062992},{"duration":0.0909089999999999,"midi":55,"time":16.545438,"velocity":0.15748031496062992},{"duration":0.0909089999999999,"midi":43,"time":16.545438,"velocity":0.15748031496062992},{"duration":0.0909089999999999,"midi":31,"time":16.727256,"velocity":0.15748031496062992},{"duration":0.0909089999999999,"midi":31,"time":16.727256,"velocity":0.15748031496062992},{"duration":0.0909089999999999,"midi":43,"time":16.727256,"velocity":0.15748031496062992},{"duration":0.0909089999999999,"midi":43,"time":16.727256,"velocity":0.15748031496062992},{"duration":0.0909089999999999,"midi":55,"time":16.909074,"velocity":0.15748031496062992},{"duration":0.0909089999999999,"midi":43,"time":16.909074,"velocity":0.15748031496062992},{"duration":0.0909089999999999,"midi":55,"time":16.909074,"velocity":0.15748031496062992},{"duration":0.0909089999999999,"midi":43,"time":16.909074,"velocity":0.15748031496062992},{"duration":0.0909089999999999,"midi":31,"time":17.090892,"velocity":0.15748031496062992},{"duration":0.0909089999999999,"midi":31,"time":17.090892,"velocity":0.15748031496062992},{"duration":0.0909089999999999,"midi":43,"time":17.090892,"velocity":0.15748031496062992},{"duration":0.0909089999999999,"midi":43,"time":17.090892,"velocity":0.15748031496062992},{"duration":0.0909089999999999,"midi":43,"time":17.27271,"velocity":0.15748031496062992},{"duration":0.0909089999999999,"midi":55,"time":17.27271,"velocity":0.15748031496062992},{"duration":0.0909089999999999,"midi":55,"time":17.27271,"velocity":0.15748031496062992},{"duration":0.0909089999999999,"midi":43,"time":17.27271,"velocity":0.15748031496062992},{"duration":0.0909089999999999,"midi":31,"time":17.454528,"velocity":0.15748031496062992},{"duration":0.0909089999999999,"midi":31,"time":17.454528,"velocity":0.15748031496062992},{"duration":0.0909089999999999,"midi":43,"time":17.454528,"velocity":0.15748031496062992},{"duration":0.0909089999999999,"midi":43,"time":17.454528,"velocity":0.15748031496062992},{"duration":0.0909089999999999,"midi":43,"time":17.636346,"velocity":0.15748031496062992},{"duration":0.0909089999999999,"midi":43,"time":17.636346,"velocity":0.15748031496062992},{"duration":0.0909089999999999,"midi":55,"time":17.636346,"velocity":0.15748031496062992},{"duration":0.0909089999999999,"midi":55,"time":17.636346,"velocity":0.15748031496062992},{"duration":0.0909089999999999,"midi":31,"time":17.818164,"velocity":0.15748031496062992},{"duration":0.0909089999999999,"midi":43,"time":17.818164,"velocity":0.15748031496062992},{"duration":0.0909089999999999,"midi":31,"time":17.818164,"velocity":0.15748031496062992},{"duration":0.0909089999999999,"midi":43,"time":17.818164,"velocity":0.15748031496062992},{"duration":0.0909089999999999,"midi":55,"time":17.999982,"velocity":0.15748031496062992},{"duration":0.0909089999999999,"midi":43,"time":17.999982,"velocity":0.15748031496062992},{"duration":0.0909089999999999,"midi":55,"time":17.999982,"velocity":0.15748031496062992},{"duration":0.0909089999999999,"midi":43,"time":17.999982,"velocity":0.15748031496062992},{"duration":0.0909089999999999,"midi":43,"time":18.1818,"velocity":0.15748031496062992},{"duration":0.0909089999999999,"midi":31,"time":18.1818,"velocity":0.15748031496062992},{"duration":0.0909089999999999,"midi":43,"time":18.1818,"velocity":0.15748031496062992},{"duration":0.0909089999999999,"midi":31,"time":18.1818,"velocity":0.15748031496062992},{"duration":0.0909089999999999,"midi":55,"time":18.363618000000002,"velocity":0.15748031496062992},{"duration":0.0909089999999999,"midi":43,"time":18.363618000000002,"velocity":0.15748031496062992},{"duration":0.0909089999999999,"midi":43,"time":18.363618000000002,"velocity":0.15748031496062992},{"duration":0.0909089999999999,"midi":55,"time":18.363618000000002,"velocity":0.15748031496062992},{"duration":0.0909089999999999,"midi":31,"time":18.545436000000002,"velocity":0.15748031496062992},{"duration":0.0909089999999999,"midi":43,"time":18.545436000000002,"velocity":0.15748031496062992},{"duration":0.0909089999999999,"midi":43,"time":18.545436000000002,"velocity":0.15748031496062992},{"duration":0.0909089999999999,"midi":31,"time":18.545436000000002,"velocity":0.15748031496062992},{"duration":0.0909089999999999,"midi":43,"time":18.727254000000002,"velocity":0.15748031496062992},{"duration":0.0909089999999999,"midi":43,"time":18.727254000000002,"velocity":0.15748031496062992},{"duration":0.0909089999999999,"midi":55,"time":18.727254000000002,"velocity":0.15748031496062992},{"duration":0.0909089999999999,"midi":55,"time":18.727254000000002,"velocity":0.15748031496062992},{"duration":0.0909089999999999,"midi":40,"time":18.909072000000002,"velocity":0.15748031496062992},{"duration":0.0909089999999999,"midi":28,"time":18.909072000000002,"velocity":0.15748031496062992},{"duration":0.0909089999999999,"midi":28,"time":18.909072000000002,"velocity":0.15748031496062992},{"duration":0.0909089999999999,"midi":40,"time":18.909072000000002,"velocity":0.15748031496062992},{"duration":0.0909089999999999,"midi":52,"time":19.09089,"velocity":0.15748031496062992},{"duration":0.0909089999999999,"midi":52,"time":19.09089,"velocity":0.15748031496062992},{"duration":0.0909089999999999,"midi":40,"time":19.09089,"velocity":0.15748031496062992},{"duration":0.0909089999999999,"midi":40,"time":19.09089,"velocity":0.15748031496062992},{"duration":0.0909089999999999,"midi":40,"time":19.272708,"velocity":0.15748031496062992},{"duration":0.0909089999999999,"midi":40,"time":19.272708,"velocity":0.15748031496062992},{"duration":0.0909089999999999,"midi":28,"time":19.272708,"velocity":0.15748031496062992},{"duration":0.0909089999999999,"midi":28,"time":19.272708,"velocity":0.15748031496062992},{"duration":0.0909089999999999,"midi":52,"time":19.454526,"velocity":0.15748031496062992},{"duration":0.0909089999999999,"midi":40,"time":19.454526,"velocity":0.15748031496062992},{"duration":0.0909089999999999,"midi":52,"time":19.454526,"velocity":0.15748031496062992},{"duration":0.0909089999999999,"midi":40,"time":19.454526,"velocity":0.15748031496062992},{"duration":0.0909089999999999,"midi":28,"time":19.636344,"velocity":0.15748031496062992},{"duration":0.0909089999999999,"midi":28,"time":19.636344,"velocity":0.15748031496062992},{"duration":0.0909089999999999,"midi":40,"time":19.636344,"velocity":0.15748031496062992},{"duration":0.0909089999999999,"midi":40,"time":19.636344,"velocity":0.15748031496062992},{"duration":0.0909089999999999,"midi":52,"time":19.818162,"velocity":0.15748031496062992},{"duration":0.0909089999999999,"midi":40,"time":19.818162,"velocity":0.15748031496062992},{"duration":0.0909089999999999,"midi":52,"time":19.818162,"velocity":0.15748031496062992},{"duration":0.0909089999999999,"midi":40,"time":19.818162,"velocity":0.15748031496062992},{"duration":0.0909089999999999,"midi":40,"time":19.99998,"velocity":0.15748031496062992},{"duration":0.0909089999999999,"midi":28,"time":19.99998,"velocity":0.15748031496062992},{"duration":0.0909089999999999,"midi":40,"time":19.99998,"velocity":0.15748031496062992},{"duration":0.0909089999999999,"midi":28,"time":19.99998,"velocity":0.15748031496062992},{"duration":0.0909089999999999,"midi":40,"time":20.181798,"velocity":0.15748031496062992},{"duration":0.0909089999999999,"midi":52,"time":20.181798,"velocity":0.15748031496062992},{"duration":0.0909089999999999,"midi":40,"time":20.181798,"velocity":0.15748031496062992},{"duration":0.0909089999999999,"midi":52,"time":20.181798,"velocity":0.15748031496062992},{"duration":0.0909089999999999,"midi":41,"time":20.363616,"velocity":0.15748031496062992},{"duration":0.0909089999999999,"midi":29,"time":20.363616,"velocity":0.15748031496062992},{"duration":0.0909089999999999,"midi":41,"time":20.363616,"velocity":0.15748031496062992},{"duration":0.0909089999999999,"midi":29,"time":20.363616,"velocity":0.15748031496062992},{"duration":0.0909089999999999,"midi":41,"time":20.545434,"velocity":0.15748031496062992},{"duration":0.0909089999999999,"midi":53,"time":20.545434,"velocity":0.15748031496062992},{"duration":0.0909089999999999,"midi":53,"time":20.545434,"velocity":0.15748031496062992},{"duration":0.0909089999999999,"midi":41,"time":20.545434,"velocity":0.15748031496062992},{"duration":0.0909089999999999,"midi":29,"time":20.727252,"velocity":0.15748031496062992},{"duration":0.0909089999999999,"midi":29,"time":20.727252,"velocity":0.15748031496062992},{"duration":0.0909089999999999,"midi":41,"time":20.727252,"velocity":0.15748031496062992},{"duration":0.0909089999999999,"midi":41,"time":20.727252,"velocity":0.15748031496062992},{"duration":0.0909089999999999,"midi":41,"time":20.90907,"velocity":0.15748031496062992},{"duration":0.0909089999999999,"midi":53,"time":20.90907,"velocity":0.15748031496062992},{"duration":0.0909089999999999,"midi":41,"time":20.90907,"velocity":0.15748031496062992},{"duration":0.0909089999999999,"midi":53,"time":20.90907,"velocity":0.15748031496062992},{"duration":0.0909089999999999,"midi":41,"time":21.090888,"velocity":0.15748031496062992},{"duration":0.0909089999999999,"midi":29,"time":21.090888,"velocity":0.15748031496062992},{"duration":0.0909089999999999,"midi":41,"time":21.090888,"velocity":0.15748031496062992},{"duration":0.0909089999999999,"midi":29,"time":21.090888,"velocity":0.15748031496062992},{"duration":0.0909089999999999,"midi":41,"time":21.272706,"velocity":0.15748031496062992},{"duration":0.0909089999999999,"midi":53,"time":21.272706,"velocity":0.15748031496062992},{"duration":0.0909089999999999,"midi":53,"time":21.272706,"velocity":0.15748031496062992},{"duration":0.0909089999999999,"midi":41,"time":21.272706,"velocity":0.15748031496062992},{"duration":0.0909089999999999,"midi":41,"time":21.454524,"velocity":0.15748031496062992},{"duration":0.0909089999999999,"midi":29,"time":21.454524,"velocity":0.15748031496062992},{"duration":0.0909089999999999,"midi":29,"time":21.454524,"velocity":0.15748031496062992},{"duration":0.0909089999999999,"midi":41,"time":21.454524,"velocity":0.15748031496062992},{"duration":0.0909089999999999,"midi":41,"time":21.636342000000003,"velocity":0.15748031496062992},{"duration":0.0909089999999999,"midi":53,"time":21.636342000000003,"velocity":0.15748031496062992},{"duration":0.0909089999999999,"midi":53,"time":21.636342000000003,"velocity":0.15748031496062992},{"duration":0.0909089999999999,"midi":41,"time":21.636342000000003,"velocity":0.15748031496062992},{"duration":0.0909089999999999,"midi":31,"time":21.818160000000002,"velocity":0.15748031496062992},{"duration":0.0909089999999999,"midi":43,"time":21.818160000000002,"velocity":0.15748031496062992},{"duration":0.0909089999999999,"midi":31,"time":21.818160000000002,"velocity":0.15748031496062992},{"duration":0.0909089999999999,"midi":43,"time":21.818160000000002,"velocity":0.15748031496062992},{"duration":0.0909089999999999,"midi":55,"time":21.999978000000002,"velocity":0.15748031496062992},{"duration":0.0909089999999999,"midi":43,"time":21.999978000000002,"velocity":0.15748031496062992},{"duration":0.0909089999999999,"midi":55,"time":21.999978000000002,"velocity":0.15748031496062992},{"duration":0.0909089999999999,"midi":43,"time":21.999978000000002,"velocity":0.15748031496062992},{"duration":0.0909089999999999,"midi":31,"time":22.181796000000002,"velocity":0.15748031496062992},{"duration":0.0909089999999999,"midi":31,"time":22.181796000000002,"velocity":0.15748031496062992},{"duration":0.0909089999999999,"midi":43,"time":22.181796000000002,"velocity":0.15748031496062992},{"duration":0.0909089999999999,"midi":43,"time":22.181796000000002,"velocity":0.15748031496062992},{"duration":0.0909089999999999,"midi":43,"time":22.363614000000002,"velocity":0.15748031496062992},{"duration":0.0909089999999999,"midi":55,"time":22.363614000000002,"velocity":0.15748031496062992},{"duration":0.0909089999999999,"midi":55,"time":22.363614000000002,"velocity":0.15748031496062992},{"duration":0.0909089999999999,"midi":43,"time":22.363614000000002,"velocity":0.15748031496062992},{"duration":0.0909089999999999,"midi":43,"time":22.545432,"velocity":0.15748031496062992},{"duration":0.0909089999999999,"midi":43,"time":22.545432,"velocity":0.15748031496062992},{"duration":0.0909089999999999,"midi":31,"time":22.545432,"velocity":0.15748031496062992},{"duration":0.0909089999999999,"midi":31,"time":22.545432,"velocity":0.15748031496062992},{"duration":0.0909089999999999,"midi":43,"time":22.72725,"velocity":0.15748031496062992},{"duration":0.0909089999999999,"midi":55,"time":22.72725,"velocity":0.15748031496062992},{"duration":0.0909089999999999,"midi":43,"time":22.72725,"velocity":0.15748031496062992},{"duration":0.0909089999999999,"midi":55,"time":22.72725,"velocity":0.15748031496062992},{"duration":0.0909089999999999,"midi":43,"time":22.909068,"velocity":0.15748031496062992},{"duration":0.0909089999999999,"midi":43,"time":22.909068,"velocity":0.15748031496062992},{"duration":0.0909089999999999,"midi":31,"time":22.909068,"velocity":0.15748031496062992},{"duration":0.0909089999999999,"midi":31,"time":22.909068,"velocity":0.15748031496062992},{"duration":0.0909089999999999,"midi":55,"time":23.090886,"velocity":0.15748031496062992},{"duration":0.0909089999999999,"midi":55,"time":23.090886,"velocity":0.15748031496062992},{"duration":0.0909089999999999,"midi":43,"time":23.090886,"velocity":0.15748031496062992},{"duration":0.0909089999999999,"midi":43,"time":23.090886,"velocity":0.15748031496062992},{"duration":0.09090899999998214,"midi":55,"time":139.81804200000002,"velocity":0.15748031496062992},{"duration":0.09090899999998214,"midi":55,"time":139.81804200000002,"velocity":0.15748031496062992},{"duration":0.09090900000001056,"midi":55,"time":140.181678,"velocity":0.15748031496062992},{"duration":0.09090900000001056,"midi":55,"time":140.181678,"velocity":0.15748031496062992},{"duration":0.09090899999998214,"midi":55,"time":140.54531400000002,"velocity":0.15748031496062992},{"duration":0.09090899999998214,"midi":55,"time":140.54531400000002,"velocity":0.15748031496062992},{"duration":0.09090900000001056,"midi":55,"time":140.90895,"velocity":0.15748031496062992},{"duration":0.09090900000001056,"midi":55,"time":140.90895,"velocity":0.15748031496062992},{"duration":0.09090899999998214,"midi":52,"time":141.27258600000002,"velocity":0.15748031496062992},{"duration":0.09090899999998214,"midi":52,"time":141.27258600000002,"velocity":0.15748031496062992},{"duration":0.09090900000001056,"midi":52,"time":141.636222,"velocity":0.15748031496062992},{"duration":0.09090900000001056,"midi":52,"time":141.636222,"velocity":0.15748031496062992},{"duration":0.09090899999998214,"midi":52,"time":141.99985800000002,"velocity":0.15748031496062992},{"duration":0.09090899999998214,"midi":52,"time":141.99985800000002,"velocity":0.15748031496062992},{"duration":0.09090900000001056,"midi":52,"time":142.363494,"velocity":0.15748031496062992},{"duration":0.09090900000001056,"midi":52,"time":142.363494,"velocity":0.15748031496062992},{"duration":0.09090899999998214,"midi":53,"time":142.72713000000002,"velocity":0.15748031496062992},{"duration":0.09090899999998214,"midi":53,"time":142.72713000000002,"velocity":0.15748031496062992},{"duration":0.09090900000001056,"midi":53,"time":143.090766,"velocity":0.15748031496062992},{"duration":0.09090900000001056,"midi":53,"time":143.090766,"velocity":0.15748031496062992},{"duration":0.09090899999998214,"midi":53,"time":143.45440200000002,"velocity":0.15748031496062992},{"duration":0.09090899999998214,"midi":53,"time":143.45440200000002,"velocity":0.15748031496062992},{"duration":0.09090900000001056,"midi":53,"time":143.818038,"velocity":0.15748031496062992},{"duration":0.09090900000001056,"midi":53,"time":143.818038,"velocity":0.15748031496062992},{"duration":0.09090899999998214,"midi":55,"time":144.18167400000002,"velocity":0.15748031496062992},{"duration":0.09090899999998214,"midi":55,"time":144.18167400000002,"velocity":0.15748031496062992},{"duration":0.09090900000001056,"midi":55,"time":144.54531,"velocity":0.15748031496062992},{"duration":0.09090900000001056,"midi":55,"time":144.54531,"velocity":0.15748031496062992},{"duration":0.09090899999998214,"midi":55,"time":144.90894600000001,"velocity":0.15748031496062992},{"duration":0.09090899999998214,"midi":55,"time":144.90894600000001,"velocity":0.15748031496062992},{"duration":0.09090900000001056,"midi":55,"time":145.272582,"velocity":0.15748031496062992},{"duration":0.09090900000001056,"midi":55,"time":145.272582,"velocity":0.15748031496062992},{"duration":0.09090899999998214,"midi":55,"time":145.636218,"velocity":0.15748031496062992},{"duration":0.09090899999998214,"midi":55,"time":145.636218,"velocity":0.15748031496062992},{"duration":0.09090900000001056,"midi":55,"time":145.999854,"velocity":0.15748031496062992},{"duration":0.09090900000001056,"midi":55,"time":145.999854,"velocity":0.15748031496062992},{"duration":0.09090899999998214,"midi":55,"time":146.36349,"velocity":0.15748031496062992},{"duration":0.09090899999998214,"midi":55,"time":146.36349,"velocity":0.15748031496062992},{"duration":0.09090900000001056,"midi":55,"time":146.727126,"velocity":0.15748031496062992},{"duration":0.09090900000001056,"midi":55,"time":146.727126,"velocity":0.15748031496062992},{"duration":0.09090899999998214,"midi":52,"time":147.090762,"velocity":0.15748031496062992},{"duration":0.09090899999998214,"midi":52,"time":147.090762,"velocity":0.15748031496062992},{"duration":0.09090900000001056,"midi":52,"time":147.454398,"velocity":0.15748031496062992},{"duration":0.09090900000001056,"midi":52,"time":147.454398,"velocity":0.15748031496062992},{"duration":0.09090899999998214,"midi":52,"time":147.818034,"velocity":0.15748031496062992},{"duration":0.09090899999998214,"midi":52,"time":147.818034,"velocity":0.15748031496062992},{"duration":0.09090900000001056,"midi":52,"time":148.18167,"velocity":0.15748031496062992},{"duration":0.09090900000001056,"midi":52,"time":148.18167,"velocity":0.15748031496062992},{"duration":0.09090899999998214,"midi":53,"time":148.545306,"velocity":0.15748031496062992},{"duration":0.09090899999998214,"midi":53,"time":148.545306,"velocity":0.15748031496062992},{"duration":0.09090900000001056,"midi":53,"time":148.908942,"velocity":0.15748031496062992},{"duration":0.09090900000001056,"midi":53,"time":148.908942,"velocity":0.15748031496062992},{"duration":0.09090899999998214,"midi":53,"time":149.272578,"velocity":0.15748031496062992},{"duration":0.09090899999998214,"midi":53,"time":149.272578,"velocity":0.15748031496062992},{"duration":0.09090900000001056,"midi":53,"time":149.636214,"velocity":0.15748031496062992},{"duration":0.09090900000001056,"midi":53,"time":149.636214,"velocity":0.15748031496062992},{"duration":0.09090900000001056,"midi":55,"time":149.99985,"velocity":0.15748031496062992},{"duration":0.09090900000001056,"midi":55,"time":149.99985,"velocity":0.15748031496062992},{"duration":0.09090900000001056,"midi":55,"time":150.363486,"velocity":0.15748031496062992},{"duration":0.09090900000001056,"midi":55,"time":150.363486,"velocity":0.15748031496062992},{"duration":0.09090900000001056,"midi":55,"time":150.727122,"velocity":0.15748031496062992},{"duration":0.09090900000001056,"midi":55,"time":150.727122,"velocity":0.15748031496062992},{"duration":0.09090900000001056,"midi":55,"time":151.090758,"velocity":0.15748031496062992},{"duration":0.09090900000001056,"midi":55,"time":151.090758,"velocity":0.15748031496062992}]},{"instrument":{"family":"drums","number":0,"name":"standard kit"},"notes":[{"duration":0.09090900000000346,"midi":52,"time":35.636328,"velocity":0.3858267716535433},{"duration":0.09090900000000346,"midi":52,"time":35.636328,"velocity":0.3858267716535433},{"duration":0.09090899999999635,"midi":52,"time":37.090872000000005,"velocity":0.3858267716535433},{"duration":0.09090899999999635,"midi":52,"time":37.090872000000005,"velocity":0.3858267716535433},{"duration":0.09090899999999635,"midi":55,"time":38.545416,"velocity":0.3858267716535433},{"duration":0.09090899999999635,"midi":55,"time":38.545416,"velocity":0.3858267716535433},{"duration":0.09090900000000346,"midi":55,"time":39.99996,"velocity":0.3858267716535433},{"duration":0.09090900000000346,"midi":55,"time":39.99996,"velocity":0.3858267716535433},{"duration":0.09090900000000346,"midi":52,"time":41.454504,"velocity":0.3858267716535433},{"duration":0.09090900000000346,"midi":52,"time":41.454504,"velocity":0.3858267716535433},{"duration":0.09090900000000346,"midi":52,"time":42.909048,"velocity":0.3858267716535433},{"duration":0.09090900000000346,"midi":52,"time":42.909048,"velocity":0.3858267716535433},{"duration":0.09090899999999635,"midi":55,"time":44.363592000000004,"velocity":0.3858267716535433},{"duration":0.09090899999999635,"midi":55,"time":44.363592000000004,"velocity":0.3858267716535433},{"duration":0.09090899999999635,"midi":55,"time":45.818136,"velocity":0.3858267716535433},{"duration":0.09090899999999635,"midi":55,"time":45.818136,"velocity":0.3858267716535433},{"duration":0.1818179999999998,"midi":41,"time":58.181760000000004,"velocity":0.3858267716535433},{"duration":0.1818179999999998,"midi":36,"time":58.181760000000004,"velocity":0.3858267716535433},{"duration":0.1818179999999998,"midi":35,"time":58.181760000000004,"velocity":0.3858267716535433},{"duration":0.1818179999999998,"midi":40,"time":58.545396000000004,"velocity":0.3858267716535433},{"duration":0.1818179999999998,"midi":37,"time":58.545396000000004,"velocity":0.3858267716535433},{"duration":0.1818179999999998,"midi":36,"time":58.909032,"velocity":0.3858267716535433},{"duration":0.1818179999999998,"midi":35,"time":58.909032,"velocity":0.3858267716535433},{"duration":0.1818179999999998,"midi":41,"time":58.909032,"velocity":0.3858267716535433},{"duration":0.1818179999999998,"midi":40,"time":59.272668,"velocity":0.3858267716535433},{"duration":0.1818179999999998,"midi":37,"time":59.272668,"velocity":0.3858267716535433},{"duration":0.1818179999999998,"midi":41,"time":59.636304,"velocity":0.3858267716535433},{"duration":0.1818179999999998,"midi":36,"time":59.636304,"velocity":0.3858267716535433},{"duration":0.1818179999999998,"midi":35,"time":59.636304,"velocity":0.3858267716535433},{"duration":0.1818179999999998,"midi":37,"time":59.99994,"velocity":0.3858267716535433},{"duration":0.1818179999999998,"midi":40,"time":59.99994,"velocity":0.3858267716535433},{"duration":0.1818179999999998,"midi":35,"time":60.363576,"velocity":0.3858267716535433},{"duration":0.1818179999999998,"midi":41,"time":60.363576,"velocity":0.3858267716535433},{"duration":0.1818179999999998,"midi":36,"time":60.363576,"velocity":0.3858267716535433},{"duration":0.1818179999999998,"midi":37,"time":60.727212,"velocity":0.3858267716535433},{"duration":0.1818179999999998,"midi":40,"time":60.727212,"velocity":0.3858267716535433},{"duration":0.1818179999999998,"midi":41,"time":61.090848,"velocity":0.3858267716535433},{"duration":0.1818179999999998,"midi":36,"time":61.090848,"velocity":0.3858267716535433},{"duration":0.1818179999999998,"midi":35,"time":61.090848,"velocity":0.3858267716535433},{"duration":0.1818179999999998,"midi":37,"time":61.454484,"velocity":0.3858267716535433},{"duration":0.1818179999999998,"midi":40,"time":61.454484,"velocity":0.3858267716535433},{"duration":0.1818179999999998,"midi":35,"time":61.81812,"velocity":0.3858267716535433},{"duration":0.1818179999999998,"midi":36,"time":61.81812,"velocity":0.3858267716535433},{"duration":0.1818179999999998,"midi":41,"time":61.81812,"velocity":0.3858267716535433},{"duration":0.1818179999999998,"midi":37,"time":62.181756,"velocity":0.3858267716535433},{"duration":0.1818179999999998,"midi":40,"time":62.181756,"velocity":0.3858267716535433},{"duration":0.1818179999999998,"midi":35,"time":62.545392,"velocity":0.3858267716535433},{"duration":0.1818179999999998,"midi":41,"time":62.545392,"velocity":0.3858267716535433},{"duration":0.1818179999999998,"midi":36,"time":62.545392,"velocity":0.3858267716535433},{"duration":0.1818179999999998,"midi":37,"time":62.909028,"velocity":0.3858267716535433},{"duration":0.1818179999999998,"midi":40,"time":62.909028,"velocity":0.3858267716535433},{"duration":0.1818179999999998,"midi":35,"time":63.272664000000006,"velocity":0.3858267716535433},{"duration":0.1818179999999998,"midi":36,"time":63.272664000000006,"velocity":0.3858267716535433},{"duration":0.1818179999999998,"midi":41,"time":63.272664000000006,"velocity":0.3858267716535433},{"duration":0.1818179999999998,"midi":37,"time":63.636300000000006,"velocity":0.3858267716535433},{"duration":0.1818179999999998,"midi":40,"time":63.636300000000006,"velocity":0.3858267716535433},{"duration":0.1818179999999927,"midi":36,"time":63.999936000000005,"velocity":0.3858267716535433},{"duration":0.1818179999999927,"midi":35,"time":63.999936000000005,"velocity":0.3858267716535433},{"duration":0.1818179999999927,"midi":41,"time":63.999936000000005,"velocity":0.3858267716535433},{"duration":0.1818179999999927,"midi":37,"time":64.363572,"velocity":0.3858267716535433},{"duration":0.1818179999999927,"midi":40,"time":64.363572,"velocity":0.3858267716535433},{"duration":0.1818179999999927,"midi":36,"time":64.727208,"velocity":0.3858267716535433},{"duration":0.1818179999999927,"midi":35,"time":64.727208,"velocity":0.3858267716535433},{"duration":0.1818179999999927,"midi":41,"time":64.727208,"velocity":0.3858267716535433},{"duration":0.1818179999999927,"midi":37,"time":65.090844,"velocity":0.3858267716535433},{"duration":0.1818179999999927,"midi":40,"time":65.090844,"velocity":0.3858267716535433},{"duration":0.1818179999999927,"midi":35,"time":65.45448,"velocity":0.3858267716535433},{"duration":0.1818179999999927,"midi":36,"time":65.45448,"velocity":0.3858267716535433},{"duration":0.1818179999999927,"midi":41,"time":65.45448,"velocity":0.3858267716535433},{"duration":0.1818179999999927,"midi":40,"time":65.818116,"velocity":0.3858267716535433},{"duration":0.1818179999999927,"midi":37,"time":65.818116,"velocity":0.3858267716535433},{"duration":0.1818179999999927,"midi":36,"time":66.181752,"velocity":0.3858267716535433},{"duration":0.1818179999999927,"midi":41,"time":66.181752,"velocity":0.3858267716535433},{"duration":0.1818179999999927,"midi":35,"time":66.181752,"velocity":0.3858267716535433},{"duration":0.18181800000000692,"midi":37,"time":66.545388,"velocity":0.3858267716535433},{"duration":0.18181800000000692,"midi":40,"time":66.545388,"velocity":0.3858267716535433},{"duration":0.18181800000000692,"midi":35,"time":66.909024,"velocity":0.3858267716535433},{"duration":0.18181800000000692,"midi":36,"time":66.909024,"velocity":0.3858267716535433},{"duration":0.18181800000000692,"midi":41,"time":66.909024,"velocity":0.3858267716535433},{"duration":0.18181800000000692,"midi":37,"time":67.27266,"velocity":0.3858267716535433},{"duration":0.18181800000000692,"midi":40,"time":67.27266,"velocity":0.3858267716535433},{"duration":0.18181800000000692,"midi":41,"time":67.636296,"velocity":0.3858267716535433},{"duration":0.18181800000000692,"midi":36,"time":67.636296,"velocity":0.3858267716535433},{"duration":0.18181800000000692,"midi":35,"time":67.636296,"velocity":0.3858267716535433},{"duration":0.18181800000000692,"midi":40,"time":67.999932,"velocity":0.3858267716535433},{"duration":0.18181800000000692,"midi":37,"time":67.999932,"velocity":0.3858267716535433},{"duration":0.18181800000000692,"midi":36,"time":68.363568,"velocity":0.3858267716535433},{"duration":0.18181800000000692,"midi":35,"time":68.363568,"velocity":0.3858267716535433},{"duration":0.18181800000000692,"midi":41,"time":68.363568,"velocity":0.3858267716535433},{"duration":0.18181800000000692,"midi":37,"time":68.727204,"velocity":0.3858267716535433},{"duration":0.18181800000000692,"midi":40,"time":68.727204,"velocity":0.3858267716535433},{"duration":0.18181800000000692,"midi":41,"time":69.818112,"velocity":0.3858267716535433},{"duration":0.18181800000000692,"midi":36,"time":69.818112,"velocity":0.3858267716535433},{"duration":0.18181800000000692,"midi":35,"time":69.818112,"velocity":0.3858267716535433},{"duration":0.18181800000000692,"midi":39,"time":70.181748,"velocity":0.3858267716535433},{"duration":0.18181800000000692,"midi":40,"time":70.181748,"velocity":0.3858267716535433},{"duration":0.18181800000000692,"midi":37,"time":70.181748,"velocity":0.3858267716535433},{"duration":0.18181800000000692,"midi":36,"time":70.545384,"velocity":0.3858267716535433},{"duration":0.18181800000000692,"midi":35,"time":70.545384,"velocity":0.3858267716535433},{"duration":0.18181800000000692,"midi":41,"time":70.545384,"velocity":0.3858267716535433},{"duration":0.18181800000000692,"midi":39,"time":70.90902,"velocity":0.3858267716535433},{"duration":0.18181800000000692,"midi":37,"time":70.90902,"velocity":0.3858267716535433},{"duration":0.18181800000000692,"midi":40,"time":70.90902,"velocity":0.3858267716535433},{"duration":0.18181800000000692,"midi":41,"time":71.272656,"velocity":0.3858267716535433},{"duration":0.18181800000000692,"midi":36,"time":71.272656,"velocity":0.3858267716535433},{"duration":0.18181800000000692,"midi":35,"time":71.272656,"velocity":0.3858267716535433},{"duration":0.18181800000000692,"midi":37,"time":71.636292,"velocity":0.3858267716535433},{"duration":0.18181800000000692,"midi":39,"time":71.636292,"velocity":0.3858267716535433},{"duration":0.18181800000000692,"midi":40,"time":71.636292,"velocity":0.3858267716535433},{"duration":0.18181800000000692,"midi":36,"time":71.999928,"velocity":0.3858267716535433},{"duration":0.18181800000000692,"midi":41,"time":71.999928,"velocity":0.3858267716535433},{"duration":0.18181800000000692,"midi":35,"time":71.999928,"velocity":0.3858267716535433},{"duration":0.18181800000000692,"midi":37,"time":72.363564,"velocity":0.3858267716535433},{"duration":0.18181800000000692,"midi":40,"time":72.363564,"velocity":0.3858267716535433},{"duration":0.18181800000000692,"midi":39,"time":72.363564,"velocity":0.3858267716535433},{"duration":0.18181800000000692,"midi":41,"time":72.7272,"velocity":0.3858267716535433},{"duration":0.18181800000000692,"midi":35,"time":72.7272,"velocity":0.3858267716535433},{"duration":0.18181800000000692,"midi":36,"time":72.7272,"velocity":0.3858267716535433},{"duration":0.18181800000000692,"midi":40,"time":73.090836,"velocity":0.3858267716535433},{"duration":0.18181800000000692,"midi":39,"time":73.090836,"velocity":0.3858267716535433},{"duration":0.18181800000000692,"midi":37,"time":73.090836,"velocity":0.3858267716535433},{"duration":0.1818179999999927,"midi":41,"time":73.45447200000001,"velocity":0.3858267716535433},{"duration":0.1818179999999927,"midi":36,"time":73.45447200000001,"velocity":0.3858267716535433},{"duration":0.1818179999999927,"midi":35,"time":73.45447200000001,"velocity":0.3858267716535433},{"duration":0.1818179999999927,"midi":40,"time":73.81810800000001,"velocity":0.3858267716535433},{"duration":0.1818179999999927,"midi":37,"time":73.81810800000001,"velocity":0.3858267716535433},{"duration":0.1818179999999927,"midi":39,"time":73.81810800000001,"velocity":0.3858267716535433},{"duration":0.1818179999999927,"midi":35,"time":74.18174400000001,"velocity":0.3858267716535433},{"duration":0.1818179999999927,"midi":36,"time":74.18174400000001,"velocity":0.3858267716535433},{"duration":0.1818179999999927,"midi":41,"time":74.18174400000001,"velocity":0.3858267716535433},{"duration":0.1818179999999927,"midi":40,"time":74.54538000000001,"velocity":0.3858267716535433},{"duration":0.1818179999999927,"midi":39,"time":74.54538000000001,"velocity":0.3858267716535433},{"duration":0.1818179999999927,"midi":37,"time":74.54538000000001,"velocity":0.3858267716535433},{"duration":0.1818179999999927,"midi":35,"time":74.90901600000001,"velocity":0.3858267716535433},{"duration":0.1818179999999927,"midi":36,"time":74.90901600000001,"velocity":0.3858267716535433},{"duration":0.1818179999999927,"midi":41,"time":74.90901600000001,"velocity":0.3858267716535433},{"duration":0.1818179999999927,"midi":40,"time":75.27265200000001,"velocity":0.3858267716535433},{"duration":0.1818179999999927,"midi":39,"time":75.27265200000001,"velocity":0.3858267716535433},{"duration":0.1818179999999927,"midi":37,"time":75.27265200000001,"velocity":0.3858267716535433},{"duration":0.1818179999999927,"midi":36,"time":75.63628800000001,"velocity":0.3858267716535433},{"duration":0.1818179999999927,"midi":35,"time":75.63628800000001,"velocity":0.3858267716535433},{"duration":0.1818179999999927,"midi":41,"time":75.63628800000001,"velocity":0.3858267716535433},{"duration":0.1818179999999927,"midi":40,"time":75.99992400000001,"velocity":0.3858267716535433},{"duration":0.1818179999999927,"midi":37,"time":75.99992400000001,"velocity":0.3858267716535433},{"duration":0.1818179999999927,"midi":39,"time":75.99992400000001,"velocity":0.3858267716535433},{"duration":0.1818179999999927,"midi":41,"time":76.36356,"velocity":0.3858267716535433},{"duration":0.1818179999999927,"midi":36,"time":76.36356,"velocity":0.3858267716535433},{"duration":0.1818179999999927,"midi":35,"time":76.36356,"velocity":0.3858267716535433},{"duration":0.1818179999999927,"midi":40,"time":76.727196,"velocity":0.3858267716535433},{"duration":0.1818179999999927,"midi":37,"time":76.727196,"velocity":0.3858267716535433},{"duration":0.1818179999999927,"midi":39,"time":76.727196,"velocity":0.3858267716535433},{"duration":0.1818179999999927,"midi":35,"time":77.090832,"velocity":0.3858267716535433},{"duration":0.1818179999999927,"midi":36,"time":77.090832,"velocity":0.3858267716535433},{"duration":0.1818179999999927,"midi":41,"time":77.090832,"velocity":0.3858267716535433},{"duration":0.1818179999999927,"midi":39,"time":77.454468,"velocity":0.3858267716535433},{"duration":0.1818179999999927,"midi":40,"time":77.454468,"velocity":0.3858267716535433},{"duration":0.1818179999999927,"midi":37,"time":77.454468,"velocity":0.3858267716535433},{"duration":0.1818179999999927,"midi":36,"time":77.818104,"velocity":0.3858267716535433},{"duration":0.1818179999999927,"midi":35,"time":77.818104,"velocity":0.3858267716535433},{"duration":0.1818179999999927,"midi":41,"time":77.818104,"velocity":0.3858267716535433},{"duration":0.1818179999999927,"midi":37,"time":78.18174,"velocity":0.3858267716535433},{"duration":0.1818179999999927,"midi":39,"time":78.18174,"velocity":0.3858267716535433},{"duration":0.1818179999999927,"midi":40,"time":78.18174,"velocity":0.3858267716535433},{"duration":0.1818179999999927,"midi":36,"time":78.545376,"velocity":0.3858267716535433},{"duration":0.1818179999999927,"midi":35,"time":78.545376,"velocity":0.3858267716535433},{"duration":0.1818179999999927,"midi":41,"time":78.545376,"velocity":0.3858267716535433},{"duration":0.1818179999999927,"midi":40,"time":78.909012,"velocity":0.3858267716535433},{"duration":0.1818179999999927,"midi":39,"time":78.909012,"velocity":0.3858267716535433},{"duration":0.1818179999999927,"midi":37,"time":78.909012,"velocity":0.3858267716535433},{"duration":0.1818179999999927,"midi":36,"time":79.272648,"velocity":0.3858267716535433},{"duration":0.1818179999999927,"midi":35,"time":79.272648,"velocity":0.3858267716535433},{"duration":0.1818179999999927,"midi":41,"time":79.272648,"velocity":0.3858267716535433},{"duration":0.18181800000000692,"midi":39,"time":79.636284,"velocity":0.3858267716535433},{"duration":0.18181800000000692,"midi":37,"time":79.636284,"velocity":0.3858267716535433},{"duration":0.18181800000000692,"midi":40,"time":79.636284,"velocity":0.3858267716535433},{"duration":0.18181800000000692,"midi":35,"time":79.99992,"velocity":0.3858267716535433},{"duration":0.18181800000000692,"midi":36,"time":79.99992,"velocity":0.3858267716535433},{"duration":0.18181800000000692,"midi":41,"time":79.99992,"velocity":0.3858267716535433},{"duration":0.18181800000000692,"midi":40,"time":80.363556,"velocity":0.3858267716535433},{"duration":0.18181800000000692,"midi":37,"time":80.363556,"velocity":0.3858267716535433},{"duration":0.18181800000000692,"midi":39,"time":80.363556,"velocity":0.3858267716535433},{"duration":0.18181800000000692,"midi":35,"time":80.727192,"velocity":0.3858267716535433},{"duration":0.18181800000000692,"midi":36,"time":80.727192,"velocity":0.3858267716535433},{"duration":0.18181800000000692,"midi":41,"time":80.727192,"velocity":0.3858267716535433},{"duration":0.18181800000000692,"midi":37,"time":81.090828,"velocity":0.3858267716535433},{"duration":0.18181800000000692,"midi":39,"time":81.090828,"velocity":0.3858267716535433},{"duration":0.18181800000000692,"midi":40,"time":81.090828,"velocity":0.3858267716535433},{"duration":0.18181800000000692,"midi":35,"time":81.454464,"velocity":0.3858267716535433},{"duration":0.18181800000000692,"midi":36,"time":81.454464,"velocity":0.3858267716535433},{"duration":0.18181800000000692,"midi":41,"time":81.454464,"velocity":0.3858267716535433},{"duration":0.18181800000000692,"midi":39,"time":81.8181,"velocity":0.3858267716535433},{"duration":0.18181800000000692,"midi":37,"time":81.8181,"velocity":0.3858267716535433},{"duration":0.18181800000000692,"midi":40,"time":81.8181,"velocity":0.3858267716535433},{"duration":0.18181800000000692,"midi":35,"time":82.181736,"velocity":0.3858267716535433},{"duration":0.18181800000000692,"midi":41,"time":82.181736,"velocity":0.3858267716535433},{"duration":0.18181800000000692,"midi":36,"time":82.181736,"velocity":0.3858267716535433},{"duration":0.18181800000000692,"midi":37,"time":82.545372,"velocity":0.3858267716535433},{"duration":0.18181800000000692,"midi":39,"time":82.545372,"velocity":0.3858267716535433},{"duration":0.18181800000000692,"midi":40,"time":82.545372,"velocity":0.3858267716535433},{"duration":0.18181800000000692,"midi":41,"time":82.909008,"velocity":0.3858267716535433},{"duration":0.18181800000000692,"midi":35,"time":82.909008,"velocity":0.3858267716535433},{"duration":0.18181800000000692,"midi":36,"time":82.909008,"velocity":0.3858267716535433},{"duration":0.18181800000000692,"midi":39,"time":83.272644,"velocity":0.3858267716535433},{"duration":0.18181800000000692,"midi":40,"time":83.272644,"velocity":0.3858267716535433},{"duration":0.18181800000000692,"midi":37,"time":83.272644,"velocity":0.3858267716535433},{"duration":0.18181800000000692,"midi":41,"time":83.63628,"velocity":0.3858267716535433},{"duration":0.18181800000000692,"midi":36,"time":83.63628,"velocity":0.3858267716535433},{"duration":0.18181800000000692,"midi":35,"time":83.63628,"velocity":0.3858267716535433},{"duration":0.18181800000000692,"midi":39,"time":83.999916,"velocity":0.3858267716535433},{"duration":0.18181800000000692,"midi":40,"time":83.999916,"velocity":0.3858267716535433},{"duration":0.18181800000000692,"midi":37,"time":83.999916,"velocity":0.3858267716535433},{"duration":0.18181800000000692,"midi":41,"time":84.363552,"velocity":0.3858267716535433},{"duration":0.18181800000000692,"midi":35,"time":84.363552,"velocity":0.3858267716535433},{"duration":0.18181800000000692,"midi":36,"time":84.363552,"velocity":0.3858267716535433},{"duration":0.18181800000000692,"midi":37,"time":84.727188,"velocity":0.3858267716535433},{"duration":0.18181800000000692,"midi":40,"time":84.727188,"velocity":0.3858267716535433},{"duration":0.18181800000000692,"midi":39,"time":84.727188,"velocity":0.3858267716535433},{"duration":0.18181800000000692,"midi":35,"time":85.090824,"velocity":0.3858267716535433},{"duration":0.18181800000000692,"midi":36,"time":85.090824,"velocity":0.3858267716535433},{"duration":0.18181800000000692,"midi":41,"time":85.090824,"velocity":0.3858267716535433},{"duration":0.18181800000000692,"midi":40,"time":85.45446,"velocity":0.3858267716535433},{"duration":0.18181800000000692,"midi":37,"time":85.45446,"velocity":0.3858267716535433},{"duration":0.18181800000000692,"midi":39,"time":85.45446,"velocity":0.3858267716535433},{"duration":0.18181800000000692,"midi":41,"time":85.818096,"velocity":0.3858267716535433},{"duration":0.18181800000000692,"midi":35,"time":85.818096,"velocity":0.3858267716535433},{"duration":0.18181800000000692,"midi":36,"time":85.818096,"velocity":0.3858267716535433},{"duration":0.18181800000000692,"midi":40,"time":86.181732,"velocity":0.3858267716535433},{"duration":0.18181800000000692,"midi":39,"time":86.181732,"velocity":0.3858267716535433},{"duration":0.18181800000000692,"midi":37,"time":86.181732,"velocity":0.3858267716535433},{"duration":0.1818179999999927,"midi":36,"time":86.54536800000001,"velocity":0.3858267716535433},{"duration":0.1818179999999927,"midi":35,"time":86.54536800000001,"velocity":0.3858267716535433},{"duration":0.1818179999999927,"midi":41,"time":86.54536800000001,"velocity":0.3858267716535433},{"duration":0.1818179999999927,"midi":40,"time":86.90900400000001,"velocity":0.3858267716535433},{"duration":0.1818179999999927,"midi":37,"time":86.90900400000001,"velocity":0.3858267716535433},{"duration":0.1818179999999927,"midi":39,"time":86.90900400000001,"velocity":0.3858267716535433},{"duration":0.1818179999999927,"midi":41,"time":87.27264000000001,"velocity":0.3858267716535433},{"duration":0.1818179999999927,"midi":36,"time":87.27264000000001,"velocity":0.3858267716535433},{"duration":0.1818179999999927,"midi":35,"time":87.27264000000001,"velocity":0.3858267716535433},{"duration":0.1818179999999927,"midi":39,"time":87.63627600000001,"velocity":0.3858267716535433},{"duration":0.1818179999999927,"midi":37,"time":87.63627600000001,"velocity":0.3858267716535433},{"duration":0.1818179999999927,"midi":40,"time":87.63627600000001,"velocity":0.3858267716535433},{"duration":0.1818179999999927,"midi":35,"time":87.99991200000001,"velocity":0.3858267716535433},{"duration":0.1818179999999927,"midi":41,"time":87.99991200000001,"velocity":0.3858267716535433},{"duration":0.1818179999999927,"midi":36,"time":87.99991200000001,"velocity":0.3858267716535433},{"duration":0.1818179999999927,"midi":39,"time":88.36354800000001,"velocity":0.3858267716535433},{"duration":0.1818179999999927,"midi":40,"time":88.36354800000001,"velocity":0.3858267716535433},{"duration":0.1818179999999927,"midi":37,"time":88.36354800000001,"velocity":0.3858267716535433},{"duration":0.1818179999999927,"midi":41,"time":88.72718400000001,"velocity":0.3858267716535433},{"duration":0.1818179999999927,"midi":35,"time":88.72718400000001,"velocity":0.3858267716535433},{"duration":0.1818179999999927,"midi":36,"time":88.72718400000001,"velocity":0.3858267716535433},{"duration":0.1818179999999927,"midi":39,"time":89.09082000000001,"velocity":0.3858267716535433},{"duration":0.1818179999999927,"midi":37,"time":89.09082000000001,"velocity":0.3858267716535433},{"duration":0.1818179999999927,"midi":40,"time":89.09082000000001,"velocity":0.3858267716535433},{"duration":0.1818179999999927,"midi":41,"time":89.45445600000001,"velocity":0.3858267716535433},{"duration":0.1818179999999927,"midi":35,"time":89.45445600000001,"velocity":0.3858267716535433},{"duration":0.1818179999999927,"midi":36,"time":89.45445600000001,"velocity":0.3858267716535433},{"duration":0.1818179999999927,"midi":40,"time":89.81809200000001,"velocity":0.3858267716535433},{"duration":0.1818179999999927,"midi":37,"time":89.81809200000001,"velocity":0.3858267716535433},{"duration":0.1818179999999927,"midi":39,"time":89.81809200000001,"velocity":0.3858267716535433},{"duration":0.1818179999999927,"midi":41,"time":90.181728,"velocity":0.3858267716535433},{"duration":0.1818179999999927,"midi":36,"time":90.181728,"velocity":0.3858267716535433},{"duration":0.1818179999999927,"midi":35,"time":90.181728,"velocity":0.3858267716535433},{"duration":0.1818179999999927,"midi":37,"time":90.545364,"velocity":0.3858267716535433},{"duration":0.1818179999999927,"midi":39,"time":90.545364,"velocity":0.3858267716535433},{"duration":0.1818179999999927,"midi":40,"time":90.545364,"velocity":0.3858267716535433},{"duration":0.1818179999999927,"midi":41,"time":90.909,"velocity":0.3858267716535433},{"duration":0.1818179999999927,"midi":36,"time":90.909,"velocity":0.3858267716535433},{"duration":0.1818179999999927,"midi":35,"time":90.909,"velocity":0.3858267716535433},{"duration":0.1818179999999927,"midi":39,"time":91.272636,"velocity":0.3858267716535433},{"duration":0.1818179999999927,"midi":40,"time":91.272636,"velocity":0.3858267716535433},{"duration":0.1818179999999927,"midi":37,"time":91.272636,"velocity":0.3858267716535433},{"duration":0.1818179999999927,"midi":41,"time":91.636272,"velocity":0.3858267716535433},{"duration":0.1818179999999927,"midi":35,"time":91.636272,"velocity":0.3858267716535433},{"duration":0.1818179999999927,"midi":36,"time":91.636272,"velocity":0.3858267716535433},{"duration":0.1818179999999927,"midi":37,"time":91.999908,"velocity":0.3858267716535433},{"duration":0.1818179999999927,"midi":40,"time":91.999908,"velocity":0.3858267716535433},{"duration":0.1818179999999927,"midi":39,"time":91.999908,"velocity":0.3858267716535433},{"duration":0.1818179999999927,"midi":36,"time":92.363544,"velocity":0.3858267716535433},{"duration":0.1818179999999927,"midi":41,"time":92.363544,"velocity":0.3858267716535433},{"duration":0.1818179999999927,"midi":35,"time":92.363544,"velocity":0.3858267716535433},{"duration":0.1818179999999927,"midi":40,"time":92.72718,"velocity":0.3858267716535433},{"duration":0.1818179999999927,"midi":37,"time":92.72718,"velocity":0.3858267716535433},{"duration":0.1818179999999927,"midi":39,"time":92.72718,"velocity":0.3858267716535433},{"duration":0.18181800000000692,"midi":29,"time":93.090816,"velocity":0.3858267716535433},{"duration":0.18181800000000692,"midi":41,"time":93.090816,"velocity":0.3858267716535433},{"duration":0.18181800000000692,"midi":35,"time":93.090816,"velocity":0.3858267716535433},{"duration":0.18181800000000692,"midi":36,"time":93.090816,"velocity":0.3858267716535433},{"duration":0.18181800000000692,"midi":41,"time":93.454452,"velocity":0.3858267716535433},{"duration":0.18181800000000692,"midi":35,"time":93.454452,"velocity":0.3858267716535433},{"duration":0.18181800000000692,"midi":30,"time":93.454452,"velocity":0.3858267716535433},{"duration":0.18181800000000692,"midi":36,"time":93.454452,"velocity":0.3858267716535433},{"duration":0.18181800000000692,"midi":36,"time":93.818088,"velocity":0.3858267716535433},{"duration":0.18181800000000692,"midi":29,"time":93.818088,"velocity":0.3858267716535433},{"duration":0.18181800000000692,"midi":35,"time":93.818088,"velocity":0.3858267716535433},{"duration":0.18181800000000692,"midi":41,"time":93.818088,"velocity":0.3858267716535433},{"duration":0.18181800000000692,"midi":36,"time":94.181724,"velocity":0.3858267716535433},{"duration":0.18181800000000692,"midi":41,"time":94.181724,"velocity":0.3858267716535433},{"duration":0.18181800000000692,"midi":35,"time":94.181724,"velocity":0.3858267716535433},{"duration":0.18181800000000692,"midi":30,"time":94.181724,"velocity":0.3858267716535433},{"duration":0.18181800000000692,"midi":36,"time":94.54536,"velocity":0.3858267716535433},{"duration":0.18181800000000692,"midi":35,"time":94.54536,"velocity":0.3858267716535433},{"duration":0.18181800000000692,"midi":29,"time":94.54536,"velocity":0.3858267716535433},{"duration":0.18181800000000692,"midi":41,"time":94.54536,"velocity":0.3858267716535433},{"duration":0.18181800000000692,"midi":35,"time":94.908996,"velocity":0.3858267716535433},{"duration":0.18181800000000692,"midi":41,"time":94.908996,"velocity":0.3858267716535433},{"duration":0.18181800000000692,"midi":30,"time":94.908996,"velocity":0.3858267716535433},{"duration":0.18181800000000692,"midi":36,"time":94.908996,"velocity":0.3858267716535433},{"duration":0.18181800000000692,"midi":36,"time":95.272632,"velocity":0.3858267716535433},{"duration":0.18181800000000692,"midi":41,"time":95.272632,"velocity":0.3858267716535433},{"duration":0.18181800000000692,"midi":29,"time":95.272632,"velocity":0.3858267716535433},{"duration":0.18181800000000692,"midi":35,"time":95.272632,"velocity":0.3858267716535433},{"duration":0.18181800000000692,"midi":36,"time":95.636268,"velocity":0.3858267716535433},{"duration":0.18181800000000692,"midi":30,"time":95.636268,"velocity":0.3858267716535433},{"duration":0.18181800000000692,"midi":35,"time":95.636268,"velocity":0.3858267716535433},{"duration":0.18181800000000692,"midi":41,"time":95.636268,"velocity":0.3858267716535433},{"duration":0.18181800000000692,"midi":36,"time":95.999904,"velocity":0.3858267716535433},{"duration":0.18181800000000692,"midi":29,"time":95.999904,"velocity":0.3858267716535433},{"duration":0.18181800000000692,"midi":35,"time":95.999904,"velocity":0.3858267716535433},{"duration":0.18181800000000692,"midi":41,"time":95.999904,"velocity":0.3858267716535433},{"duration":0.18181800000000692,"midi":35,"time":96.36354,"velocity":0.3858267716535433},{"duration":0.18181800000000692,"midi":36,"time":96.36354,"velocity":0.3858267716535433},{"duration":0.18181800000000692,"midi":41,"time":96.36354,"velocity":0.3858267716535433},{"duration":0.18181800000000692,"midi":30,"time":96.36354,"velocity":0.3858267716535433},{"duration":0.18181800000000692,"midi":36,"time":96.727176,"velocity":0.3858267716535433},{"duration":0.18181800000000692,"midi":29,"time":96.727176,"velocity":0.3858267716535433},{"duration":0.18181800000000692,"midi":41,"time":96.727176,"velocity":0.3858267716535433},{"duration":0.18181800000000692,"midi":35,"time":96.727176,"velocity":0.3858267716535433},{"duration":0.18181800000000692,"midi":35,"time":97.090812,"velocity":0.3858267716535433},{"duration":0.18181800000000692,"midi":36,"time":97.090812,"velocity":0.3858267716535433},{"duration":0.18181800000000692,"midi":41,"time":97.090812,"velocity":0.3858267716535433},{"duration":0.18181800000000692,"midi":30,"time":97.090812,"velocity":0.3858267716535433},{"duration":0.18181800000000692,"midi":29,"time":97.454448,"velocity":0.3858267716535433},{"duration":0.18181800000000692,"midi":35,"time":97.454448,"velocity":0.3858267716535433},{"duration":0.18181800000000692,"midi":36,"time":97.454448,"velocity":0.3858267716535433},{"duration":0.18181800000000692,"midi":41,"time":97.454448,"velocity":0.3858267716535433},{"duration":0.18181800000000692,"midi":41,"time":97.818084,"velocity":0.3858267716535433},{"duration":0.18181800000000692,"midi":30,"time":97.818084,"velocity":0.3858267716535433},{"duration":0.18181800000000692,"midi":35,"time":97.818084,"velocity":0.3858267716535433},{"duration":0.18181800000000692,"midi":36,"time":97.818084,"velocity":0.3858267716535433},{"duration":0.18181800000000692,"midi":35,"time":98.18172,"velocity":0.3858267716535433},{"duration":0.18181800000000692,"midi":41,"time":98.18172,"velocity":0.3858267716535433},{"duration":0.18181800000000692,"midi":36,"time":98.18172,"velocity":0.3858267716535433},{"duration":0.18181800000000692,"midi":29,"time":98.18172,"velocity":0.3858267716535433},{"duration":0.18181800000000692,"midi":41,"time":98.545356,"velocity":0.3858267716535433},{"duration":0.18181800000000692,"midi":30,"time":98.545356,"velocity":0.3858267716535433},{"duration":0.18181800000000692,"midi":35,"time":98.545356,"velocity":0.3858267716535433},{"duration":0.18181800000000692,"midi":36,"time":98.545356,"velocity":0.3858267716535433},{"duration":0.18181800000000692,"midi":29,"time":98.908992,"velocity":0.3858267716535433},{"duration":0.18181800000000692,"midi":35,"time":98.908992,"velocity":0.3858267716535433},{"duration":0.18181800000000692,"midi":36,"time":98.908992,"velocity":0.3858267716535433},{"duration":0.18181800000000692,"midi":41,"time":98.908992,"velocity":0.3858267716535433},{"duration":0.18181800000000692,"midi":36,"time":99.272628,"velocity":0.3858267716535433},{"duration":0.18181800000000692,"midi":35,"time":99.272628,"velocity":0.3858267716535433},{"duration":0.18181800000000692,"midi":30,"time":99.272628,"velocity":0.3858267716535433},{"duration":0.18181800000000692,"midi":41,"time":99.272628,"velocity":0.3858267716535433},{"duration":0.18181800000000692,"midi":36,"time":99.636264,"velocity":0.3858267716535433},{"duration":0.18181800000000692,"midi":29,"time":99.636264,"velocity":0.3858267716535433},{"duration":0.18181800000000692,"midi":35,"time":99.636264,"velocity":0.3858267716535433},{"duration":0.18181800000000692,"midi":41,"time":99.636264,"velocity":0.3858267716535433},{"duration":0.1818179999999927,"midi":30,"time":99.99990000000001,"velocity":0.3858267716535433},{"duration":0.1818179999999927,"midi":36,"time":99.99990000000001,"velocity":0.3858267716535433},{"duration":0.1818179999999927,"midi":35,"time":99.99990000000001,"velocity":0.3858267716535433},{"duration":0.1818179999999927,"midi":41,"time":99.99990000000001,"velocity":0.3858267716535433},{"duration":0.1818179999999927,"midi":41,"time":100.36353600000001,"velocity":0.3858267716535433},{"duration":0.1818179999999927,"midi":36,"time":100.36353600000001,"velocity":0.3858267716535433},{"duration":0.1818179999999927,"midi":29,"time":100.36353600000001,"velocity":0.3858267716535433},{"duration":0.1818179999999927,"midi":35,"time":100.36353600000001,"velocity":0.3858267716535433},{"duration":0.1818179999999927,"midi":30,"time":100.72717200000001,"velocity":0.3858267716535433},{"duration":0.1818179999999927,"midi":41,"time":100.72717200000001,"velocity":0.3858267716535433},{"duration":0.1818179999999927,"midi":36,"time":100.72717200000001,"velocity":0.3858267716535433},{"duration":0.1818179999999927,"midi":35,"time":100.72717200000001,"velocity":0.3858267716535433},{"duration":0.1818179999999927,"midi":29,"time":101.09080800000001,"velocity":0.3858267716535433},{"duration":0.1818179999999927,"midi":41,"time":101.09080800000001,"velocity":0.3858267716535433},{"duration":0.1818179999999927,"midi":36,"time":101.09080800000001,"velocity":0.3858267716535433},{"duration":0.1818179999999927,"midi":35,"time":101.09080800000001,"velocity":0.3858267716535433},{"duration":0.1818179999999927,"midi":35,"time":101.45444400000001,"velocity":0.3858267716535433},{"duration":0.1818179999999927,"midi":41,"time":101.45444400000001,"velocity":0.3858267716535433},{"duration":0.1818179999999927,"midi":30,"time":101.45444400000001,"velocity":0.3858267716535433},{"duration":0.1818179999999927,"midi":36,"time":101.45444400000001,"velocity":0.3858267716535433},{"duration":0.1818179999999927,"midi":41,"time":101.81808000000001,"velocity":0.3858267716535433},{"duration":0.1818179999999927,"midi":36,"time":101.81808000000001,"velocity":0.3858267716535433},{"duration":0.1818179999999927,"midi":29,"time":101.81808000000001,"velocity":0.3858267716535433},{"duration":0.1818179999999927,"midi":35,"time":101.81808000000001,"velocity":0.3858267716535433},{"duration":0.1818179999999927,"midi":36,"time":102.18171600000001,"velocity":0.3858267716535433},{"duration":0.1818179999999927,"midi":35,"time":102.18171600000001,"velocity":0.3858267716535433},{"duration":0.1818179999999927,"midi":41,"time":102.18171600000001,"velocity":0.3858267716535433},{"duration":0.1818179999999927,"midi":30,"time":102.18171600000001,"velocity":0.3858267716535433},{"duration":0.1818179999999927,"midi":35,"time":102.54535200000001,"velocity":0.3858267716535433},{"duration":0.1818179999999927,"midi":41,"time":102.54535200000001,"velocity":0.3858267716535433},{"duration":0.1818179999999927,"midi":29,"time":102.54535200000001,"velocity":0.3858267716535433},{"duration":0.1818179999999927,"midi":36,"time":102.54535200000001,"velocity":0.3858267716535433},{"duration":0.1818179999999927,"midi":36,"time":102.90898800000001,"velocity":0.3858267716535433},{"duration":0.1818179999999927,"midi":35,"time":102.90898800000001,"velocity":0.3858267716535433},{"duration":0.1818179999999927,"midi":30,"time":102.90898800000001,"velocity":0.3858267716535433},{"duration":0.1818179999999927,"midi":41,"time":102.90898800000001,"velocity":0.3858267716535433},{"duration":0.1818179999999927,"midi":41,"time":103.27262400000001,"velocity":0.3858267716535433},{"duration":0.1818179999999927,"midi":36,"time":103.27262400000001,"velocity":0.3858267716535433},{"duration":0.1818179999999927,"midi":29,"time":103.27262400000001,"velocity":0.3858267716535433},{"duration":0.1818179999999927,"midi":35,"time":103.27262400000001,"velocity":0.3858267716535433},{"duration":0.1818179999999927,"midi":36,"time":103.63626000000001,"velocity":0.3858267716535433},{"duration":0.1818179999999927,"midi":35,"time":103.63626000000001,"velocity":0.3858267716535433},{"duration":0.1818179999999927,"midi":30,"time":103.63626000000001,"velocity":0.3858267716535433},{"duration":0.1818179999999927,"midi":41,"time":103.63626000000001,"velocity":0.3858267716535433},{"duration":0.1818179999999927,"midi":29,"time":103.999896,"velocity":0.3858267716535433},{"duration":0.1818179999999927,"midi":41,"time":103.999896,"velocity":0.3858267716535433},{"duration":0.1818179999999927,"midi":35,"time":103.999896,"velocity":0.3858267716535433},{"duration":0.1818179999999927,"midi":36,"time":103.999896,"velocity":0.3858267716535433},{"duration":0.09090899999999635,"midi":39,"time":104.363532,"velocity":0.3858267716535433},{"duration":0.09090899999999635,"midi":34,"time":104.363532,"velocity":0.3858267716535433},{"duration":0.09090899999999635,"midi":31,"time":104.363532,"velocity":0.3858267716535433},{"duration":0.1818179999999927,"midi":30,"time":104.363532,"velocity":0.3858267716535433},{"duration":0.09090899999999635,"midi":33,"time":104.363532,"velocity":0.3858267716535433},{"duration":0.09090899999999635,"midi":27,"time":104.363532,"velocity":0.3858267716535433},{"duration":0.09090899999999635,"midi":37,"time":104.363532,"velocity":0.3858267716535433},{"duration":0.09090899999999635,"midi":28,"time":104.363532,"velocity":0.3858267716535433},{"duration":0.09090899999999635,"midi":31,"time":104.727168,"velocity":0.3858267716535433},{"duration":0.09090900000001056,"midi":37,"time":104.908986,"velocity":0.3858267716535433},{"duration":0.09090899999999635,"midi":27,"time":105.090804,"velocity":0.3858267716535433},{"duration":0.09090900000001056,"midi":31,"time":105.272622,"velocity":0.3858267716535433},{"duration":0.09090899999999635,"midi":31,"time":105.45444,"velocity":0.3858267716535433},{"duration":0.09090900000001056,"midi":37,"time":105.636258,"velocity":0.3858267716535433},{"duration":0.09090899999999635,"midi":27,"time":105.818076,"velocity":0.3858267716535433},{"duration":0.09090900000001056,"midi":31,"time":105.999894,"velocity":0.3858267716535433},{"duration":0.09090899999999635,"midi":31,"time":106.181712,"velocity":0.3858267716535433},{"duration":0.09090900000001056,"midi":37,"time":106.36353,"velocity":0.3858267716535433},{"duration":0.09090899999999635,"midi":27,"time":106.545348,"velocity":0.3858267716535433},{"duration":0.09090899999999635,"midi":31,"time":106.72716600000001,"velocity":0.3858267716535433},{"duration":0.09090899999999635,"midi":31,"time":106.908984,"velocity":0.3858267716535433},{"duration":0.09090899999999635,"midi":37,"time":107.09080200000001,"velocity":0.3858267716535433},{"duration":0.09090899999999635,"midi":27,"time":107.27262,"velocity":0.3858267716535433},{"duration":0.09090899999999635,"midi":31,"time":107.45443800000001,"velocity":0.3858267716535433},{"duration":0.09090899999999635,"midi":31,"time":107.636256,"velocity":0.3858267716535433},{"duration":0.09090899999999635,"midi":37,"time":107.81807400000001,"velocity":0.3858267716535433},{"duration":0.09090899999999635,"midi":27,"time":107.999892,"velocity":0.3858267716535433},{"duration":0.09090899999999635,"midi":31,"time":108.18171000000001,"velocity":0.3858267716535433},{"duration":0.09090899999999635,"midi":31,"time":108.363528,"velocity":0.3858267716535433},{"duration":0.09090899999999635,"midi":37,"time":108.54534600000001,"velocity":0.3858267716535433},{"duration":0.09090899999999635,"midi":27,"time":108.727164,"velocity":0.3858267716535433},{"duration":0.09090899999999635,"midi":31,"time":108.90898200000001,"velocity":0.3858267716535433},{"duration":0.09090899999999635,"midi":31,"time":109.0908,"velocity":0.3858267716535433},{"duration":0.09090899999999635,"midi":37,"time":109.27261800000001,"velocity":0.3858267716535433},{"duration":0.09090899999999635,"midi":27,"time":109.454436,"velocity":0.3858267716535433},{"duration":0.09090899999999635,"midi":31,"time":109.63625400000001,"velocity":0.3858267716535433},{"duration":0.09090900000001056,"midi":31,"time":109.818072,"velocity":0.3858267716535433},{"duration":0.09090899999999635,"midi":37,"time":109.99989000000001,"velocity":0.3858267716535433},{"duration":0.09090900000001056,"midi":27,"time":110.181708,"velocity":0.3858267716535433},{"duration":0.09090899999999635,"midi":31,"time":110.36352600000001,"velocity":0.3858267716535433},{"duration":0.09090900000001056,"midi":31,"time":110.545344,"velocity":0.3858267716535433},{"duration":0.09090900000001056,"midi":39,"time":110.545344,"velocity":0.3858267716535433},{"duration":0.09090899999999635,"midi":37,"time":110.727162,"velocity":0.3858267716535433},{"duration":0.09090900000001056,"midi":39,"time":110.90898,"velocity":0.3858267716535433},{"duration":0.09090900000001056,"midi":27,"time":110.90898,"velocity":0.3858267716535433},{"duration":0.09090899999999635,"midi":31,"time":111.090798,"velocity":0.3858267716535433},{"duration":0.09090900000001056,"midi":39,"time":111.272616,"velocity":0.3858267716535433},{"duration":0.09090900000001056,"midi":31,"time":111.272616,"velocity":0.3858267716535433},{"duration":0.09090899999999635,"midi":37,"time":111.454434,"velocity":0.3858267716535433},{"duration":0.09090900000001056,"midi":39,"time":111.636252,"velocity":0.3858267716535433},{"duration":0.09090900000001056,"midi":27,"time":111.636252,"velocity":0.3858267716535433},{"duration":0.09090899999999635,"midi":31,"time":111.81807,"velocity":0.3858267716535433},{"duration":0.09090900000001056,"midi":31,"time":111.999888,"velocity":0.3858267716535433},{"duration":0.09090900000001056,"midi":39,"time":111.999888,"velocity":0.3858267716535433},{"duration":0.09090899999999635,"midi":37,"time":112.181706,"velocity":0.3858267716535433},{"duration":0.09090900000001056,"midi":39,"time":112.363524,"velocity":0.3858267716535433},{"duration":0.09090900000001056,"midi":27,"time":112.363524,"velocity":0.3858267716535433},{"duration":0.09090899999999635,"midi":31,"time":112.545342,"velocity":0.3858267716535433},{"duration":0.09090900000001056,"midi":39,"time":112.72716,"velocity":0.3858267716535433},{"duration":0.09090900000001056,"midi":31,"time":112.72716,"velocity":0.3858267716535433},{"duration":0.09090899999999635,"midi":37,"time":112.908978,"velocity":0.3858267716535433},{"duration":0.09090899999999635,"midi":39,"time":113.09079600000001,"velocity":0.3858267716535433},{"duration":0.09090899999999635,"midi":27,"time":113.09079600000001,"velocity":0.3858267716535433},{"duration":0.09090899999999635,"midi":31,"time":113.272614,"velocity":0.3858267716535433},{"duration":0.09090899999999635,"midi":39,"time":113.45443200000001,"velocity":0.3858267716535433},{"duration":0.09090899999999635,"midi":31,"time":113.45443200000001,"velocity":0.3858267716535433},{"duration":0.09090899999999635,"midi":37,"time":113.63625,"velocity":0.3858267716535433},{"duration":0.09090899999999635,"midi":39,"time":113.81806800000001,"velocity":0.3858267716535433},{"duration":0.09090899999999635,"midi":27,"time":113.81806800000001,"velocity":0.3858267716535433},{"duration":0.09090899999999635,"midi":31,"time":113.999886,"velocity":0.3858267716535433},{"duration":0.09090899999999635,"midi":31,"time":114.18170400000001,"velocity":0.3858267716535433},{"duration":0.09090899999999635,"midi":39,"time":114.18170400000001,"velocity":0.3858267716535433},{"duration":0.09090899999999635,"midi":37,"time":114.363522,"velocity":0.3858267716535433},{"duration":0.09090899999999635,"midi":27,"time":114.54534000000001,"velocity":0.3858267716535433},{"duration":0.09090899999999635,"midi":39,"time":114.54534000000001,"velocity":0.3858267716535433},{"duration":0.09090899999999635,"midi":31,"time":114.727158,"velocity":0.3858267716535433},{"duration":0.09090899999999635,"midi":39,"time":114.90897600000001,"velocity":0.3858267716535433},{"duration":0.09090899999999635,"midi":31,"time":114.90897600000001,"velocity":0.3858267716535433},{"duration":0.09090899999999635,"midi":37,"time":115.090794,"velocity":0.3858267716535433},{"duration":0.09090899999999635,"midi":27,"time":115.27261200000001,"velocity":0.3858267716535433},{"duration":0.09090899999999635,"midi":39,"time":115.27261200000001,"velocity":0.3858267716535433},{"duration":0.09090899999999635,"midi":31,"time":115.45443,"velocity":0.3858267716535433},{"duration":0.09090899999999635,"midi":31,"time":115.63624800000001,"velocity":0.3858267716535433},{"duration":0.09090899999999635,"midi":39,"time":115.63624800000001,"velocity":0.3858267716535433},{"duration":0.09090899999999635,"midi":37,"time":115.818066,"velocity":0.3858267716535433},{"duration":0.09090899999999635,"midi":27,"time":115.99988400000001,"velocity":0.3858267716535433},{"duration":0.09090899999999635,"midi":39,"time":115.99988400000001,"velocity":0.3858267716535433},{"duration":0.09090899999999635,"midi":31,"time":116.181702,"velocity":0.3858267716535433},{"duration":0.09090899999999635,"midi":31,"time":116.36352000000001,"velocity":0.3858267716535433},{"duration":0.09090899999999635,"midi":39,"time":116.36352000000001,"velocity":0.3858267716535433},{"duration":0.09090900000001056,"midi":37,"time":116.545338,"velocity":0.3858267716535433},{"duration":0.09090899999999635,"midi":27,"time":116.72715600000001,"velocity":0.3858267716535433},{"duration":0.09090899999999635,"midi":39,"time":116.72715600000001,"velocity":0.3858267716535433},{"duration":0.09090900000001056,"midi":31,"time":116.908974,"velocity":0.3858267716535433},{"duration":0.09090899999999635,"midi":39,"time":117.09079200000001,"velocity":0.3858267716535433},{"duration":0.09090899999999635,"midi":31,"time":117.09079200000001,"velocity":0.3858267716535433},{"duration":0.09090900000001056,"midi":37,"time":117.27261,"velocity":0.3858267716535433},{"duration":0.09090899999999635,"midi":27,"time":117.45442800000001,"velocity":0.3858267716535433},{"duration":0.09090899999999635,"midi":39,"time":117.45442800000001,"velocity":0.3858267716535433},{"duration":0.09090900000001056,"midi":31,"time":117.636246,"velocity":0.3858267716535433},{"duration":0.09090899999999635,"midi":39,"time":117.818064,"velocity":0.3858267716535433},{"duration":0.09090899999999635,"midi":31,"time":117.818064,"velocity":0.3858267716535433},{"duration":0.09090900000001056,"midi":37,"time":117.999882,"velocity":0.3858267716535433},{"duration":0.09090899999999635,"midi":39,"time":118.1817,"velocity":0.3858267716535433},{"duration":0.09090899999999635,"midi":27,"time":118.1817,"velocity":0.3858267716535433},{"duration":0.09090900000001056,"midi":31,"time":118.363518,"velocity":0.3858267716535433},{"duration":0.09090899999999635,"midi":31,"time":118.545336,"velocity":0.3858267716535433},{"duration":0.09090899999999635,"midi":39,"time":118.545336,"velocity":0.3858267716535433},{"duration":0.09090900000001056,"midi":37,"time":118.727154,"velocity":0.3858267716535433},{"duration":0.09090899999999635,"midi":27,"time":118.908972,"velocity":0.3858267716535433},{"duration":0.09090899999999635,"midi":39,"time":118.908972,"velocity":0.3858267716535433},{"duration":0.09090900000001056,"midi":31,"time":119.09079,"velocity":0.3858267716535433},{"duration":0.09090899999999635,"midi":31,"time":119.272608,"velocity":0.3858267716535433},{"duration":0.09090899999999635,"midi":39,"time":119.272608,"velocity":0.3858267716535433},{"duration":0.09090900000001056,"midi":37,"time":119.454426,"velocity":0.3858267716535433},{"duration":0.09090899999999635,"midi":27,"time":119.636244,"velocity":0.3858267716535433},{"duration":0.09090899999999635,"midi":39,"time":119.636244,"velocity":0.3858267716535433},{"duration":0.09090899999999635,"midi":31,"time":119.81806200000001,"velocity":0.3858267716535433},{"duration":0.09090899999999635,"midi":31,"time":119.99988,"velocity":0.3858267716535433},{"duration":0.09090899999999635,"midi":39,"time":119.99988,"velocity":0.3858267716535433},{"duration":0.09090899999999635,"midi":37,"time":120.18169800000001,"velocity":0.3858267716535433},{"duration":0.09090899999999635,"midi":39,"time":120.363516,"velocity":0.3858267716535433},{"duration":0.09090899999999635,"midi":27,"time":120.363516,"velocity":0.3858267716535433},{"duration":0.09090899999999635,"midi":31,"time":120.54533400000001,"velocity":0.3858267716535433},{"duration":0.09090899999999635,"midi":31,"time":120.727152,"velocity":0.3858267716535433},{"duration":0.09090899999999635,"midi":39,"time":120.727152,"velocity":0.3858267716535433},{"duration":0.09090899999999635,"midi":37,"time":120.90897000000001,"velocity":0.3858267716535433},{"duration":0.09090899999999635,"midi":39,"time":121.090788,"velocity":0.3858267716535433},{"duration":0.09090899999999635,"midi":27,"time":121.090788,"velocity":0.3858267716535433},{"duration":0.09090899999999635,"midi":31,"time":121.27260600000001,"velocity":0.3858267716535433},{"duration":0.09090899999999635,"midi":39,"time":121.454424,"velocity":0.3858267716535433},{"duration":0.09090899999999635,"midi":31,"time":121.454424,"velocity":0.3858267716535433},{"duration":0.09090899999999635,"midi":37,"time":121.63624200000001,"velocity":0.3858267716535433},{"duration":0.09090899999999635,"midi":39,"time":121.81806,"velocity":0.3858267716535433},{"duration":0.09090899999999635,"midi":27,"time":121.81806,"velocity":0.3858267716535433},{"duration":0.09090899999999635,"midi":31,"time":121.99987800000001,"velocity":0.3858267716535433},{"duration":0.09090899999999635,"midi":39,"time":122.181696,"velocity":0.3858267716535433},{"duration":0.09090899999999635,"midi":31,"time":122.181696,"velocity":0.3858267716535433},{"duration":0.09090899999999635,"midi":37,"time":122.36351400000001,"velocity":0.3858267716535433},{"duration":0.09090899999999635,"midi":39,"time":122.545332,"velocity":0.3858267716535433},{"duration":0.09090899999999635,"midi":27,"time":122.545332,"velocity":0.3858267716535433},{"duration":0.09090899999999635,"midi":31,"time":122.72715000000001,"velocity":0.3858267716535433},{"duration":0.09090899999999635,"midi":31,"time":122.908968,"velocity":0.3858267716535433},{"duration":0.09090899999999635,"midi":39,"time":122.908968,"velocity":0.3858267716535433},{"duration":0.09090899999999635,"midi":37,"time":123.09078600000001,"velocity":0.3858267716535433},{"duration":0.09090900000001056,"midi":39,"time":123.272604,"velocity":0.3858267716535433},{"duration":0.09090900000001056,"midi":27,"time":123.272604,"velocity":0.3858267716535433},{"duration":0.09090899999999635,"midi":31,"time":123.45442200000001,"velocity":0.3858267716535433},{"duration":0.09090900000001056,"midi":31,"time":123.63624,"velocity":0.3858267716535433},{"duration":0.09090900000001056,"midi":39,"time":123.63624,"velocity":0.3858267716535433},{"duration":0.09090899999999635,"midi":37,"time":123.81805800000001,"velocity":0.3858267716535433},{"duration":0.09090900000001056,"midi":39,"time":123.999876,"velocity":0.3858267716535433},{"duration":0.09090900000001056,"midi":27,"time":123.999876,"velocity":0.3858267716535433},{"duration":0.09090899999999635,"midi":31,"time":124.18169400000001,"velocity":0.3858267716535433},{"duration":0.09090900000001056,"midi":39,"time":124.363512,"velocity":0.3858267716535433},{"duration":0.09090900000001056,"midi":31,"time":124.363512,"velocity":0.3858267716535433},{"duration":0.09090899999999635,"midi":37,"time":124.54533,"velocity":0.3858267716535433},{"duration":0.09090900000001056,"midi":27,"time":124.727148,"velocity":0.3858267716535433},{"duration":0.09090900000001056,"midi":39,"time":124.727148,"velocity":0.3858267716535433},{"duration":0.09090899999999635,"midi":31,"time":124.908966,"velocity":0.3858267716535433},{"duration":0.09090900000001056,"midi":39,"time":125.090784,"velocity":0.3858267716535433},{"duration":0.09090900000001056,"midi":31,"time":125.090784,"velocity":0.3858267716535433},{"duration":0.09090899999999635,"midi":37,"time":125.272602,"velocity":0.3858267716535433},{"duration":0.09090900000001056,"midi":39,"time":125.45442,"velocity":0.3858267716535433},{"duration":0.09090900000001056,"midi":27,"time":125.45442,"velocity":0.3858267716535433},{"duration":0.09090899999999635,"midi":31,"time":125.636238,"velocity":0.3858267716535433},{"duration":0.09090900000001056,"midi":31,"time":125.818056,"velocity":0.3858267716535433},{"duration":0.09090900000001056,"midi":39,"time":125.818056,"velocity":0.3858267716535433},{"duration":0.09090899999999635,"midi":37,"time":125.999874,"velocity":0.3858267716535433},{"duration":0.09090900000001056,"midi":39,"time":126.181692,"velocity":0.3858267716535433},{"duration":0.09090900000001056,"midi":27,"time":126.181692,"velocity":0.3858267716535433},{"duration":0.09090899999999635,"midi":31,"time":126.36351,"velocity":0.3858267716535433},{"duration":0.09090899999999635,"midi":31,"time":126.54532800000001,"velocity":0.3858267716535433},{"duration":0.09090899999999635,"midi":39,"time":126.54532800000001,"velocity":0.3858267716535433},{"duration":0.09090899999999635,"midi":37,"time":126.727146,"velocity":0.3858267716535433},{"duration":0.09090899999999635,"midi":39,"time":126.90896400000001,"velocity":0.3858267716535433},{"duration":0.09090899999999635,"midi":27,"time":126.90896400000001,"velocity":0.3858267716535433},{"duration":0.09090899999999635,"midi":31,"time":127.090782,"velocity":0.3858267716535433},{"duration":0.09090899999999635,"midi":39,"time":127.27260000000001,"velocity":0.3858267716535433},{"duration":0.09090899999999635,"midi":31,"time":127.27260000000001,"velocity":0.3858267716535433},{"duration":0.09090899999999635,"midi":37,"time":127.454418,"velocity":0.3858267716535433},{"duration":0.09090899999999635,"midi":39,"time":127.63623600000001,"velocity":0.3858267716535433},{"duration":0.09090899999999635,"midi":27,"time":127.63623600000001,"velocity":0.3858267716535433},{"duration":0.09090899999999635,"midi":31,"time":127.818054,"velocity":0.3858267716535433},{"duration":0.04545450000000528,"midi":31,"time":140.727132,"velocity":0.3858267716535433},{"duration":0.04545450000000528,"midi":31,"time":140.8634955,"velocity":0.3858267716535433},{"duration":0.04545450000000528,"midi":31,"time":140.9544045,"velocity":0.3858267716535433},{"duration":0.04545450000000528,"midi":31,"time":142.181676,"velocity":0.3858267716535433},{"duration":0.04545450000000528,"midi":31,"time":142.3180395,"velocity":0.3858267716535433},{"duration":0.04545450000000528,"midi":31,"time":142.4089485,"velocity":0.3858267716535433},{"duration":0.04545450000000528,"midi":31,"time":143.63622,"velocity":0.3858267716535433},{"duration":0.04545450000000528,"midi":31,"time":143.7725835,"velocity":0.3858267716535433},{"duration":0.04545450000000528,"midi":31,"time":143.8634925,"velocity":0.3858267716535433},{"duration":0.04545450000000528,"midi":31,"time":145.090764,"velocity":0.3858267716535433},{"duration":0.04545450000000528,"midi":31,"time":145.2271275,"velocity":0.3858267716535433},{"duration":0.04545450000000528,"midi":31,"time":145.3180365,"velocity":0.3858267716535433},{"duration":0.04545450000000528,"midi":31,"time":146.545308,"velocity":0.3858267716535433},{"duration":0.04545450000000528,"midi":31,"time":146.6816715,"velocity":0.3858267716535433},{"duration":0.04545450000000528,"midi":31,"time":146.7725805,"velocity":0.3858267716535433},{"duration":0.04545450000000528,"midi":31,"time":147.999852,"velocity":0.3858267716535433},{"duration":0.04545449999997686,"midi":31,"time":148.13621550000002,"velocity":0.3858267716535433},{"duration":0.04545450000000528,"midi":31,"time":148.2271245,"velocity":0.3858267716535433},{"duration":0.04545450000000528,"midi":31,"time":149.454396,"velocity":0.3858267716535433},{"duration":0.04545449999997686,"midi":31,"time":149.59075950000002,"velocity":0.3858267716535433},{"duration":0.04545450000000528,"midi":31,"time":149.6816685,"velocity":0.3858267716535433},{"duration":0.04545449999997686,"midi":39,"time":149.81803200000002,"velocity":0.3858267716535433},{"duration":0.04545450000000528,"midi":39,"time":150.181668,"velocity":0.3858267716535433},{"duration":0.04545449999997686,"midi":39,"time":150.54530400000002,"velocity":0.3858267716535433},{"duration":0.04545450000000528,"midi":39,"time":150.90894,"velocity":0.3858267716535433},{"duration":0.04545450000000528,"midi":31,"time":150.90894,"velocity":0.3858267716535433},{"duration":0.04545449999997686,"midi":31,"time":151.04530350000002,"velocity":0.3858267716535433},{"duration":0.04545450000000528,"midi":31,"time":151.1362125,"velocity":0.3858267716535433},{"duration":0.09090900000001056,"midi":31,"time":162.908928,"velocity":0.3858267716535433},{"duration":0.09090900000001056,"midi":37,"time":163.090746,"velocity":0.3858267716535433},{"duration":0.09090899999998214,"midi":27,"time":163.27256400000002,"velocity":0.3858267716535433},{"duration":0.09090900000001056,"midi":31,"time":163.454382,"velocity":0.3858267716535433},{"duration":0.09090900000001056,"midi":31,"time":163.6362,"velocity":0.3858267716535433},{"duration":0.09090900000001056,"midi":37,"time":163.818018,"velocity":0.3858267716535433},{"duration":0.09090899999998214,"midi":27,"time":163.99983600000002,"velocity":0.3858267716535433},{"duration":0.09090900000001056,"midi":31,"time":164.181654,"velocity":0.3858267716535433},{"duration":0.09090900000001056,"midi":31,"time":164.363472,"velocity":0.3858267716535433},{"duration":0.09090900000001056,"midi":37,"time":164.54529,"velocity":0.3858267716535433},{"duration":0.09090899999998214,"midi":27,"time":164.72710800000002,"velocity":0.3858267716535433},{"duration":0.09090900000001056,"midi":31,"time":164.908926,"velocity":0.3858267716535433},{"duration":0.09090900000001056,"midi":31,"time":165.090744,"velocity":0.3858267716535433},{"duration":0.09090900000001056,"midi":37,"time":165.272562,"velocity":0.3858267716535433},{"duration":0.09090899999998214,"midi":27,"time":165.45438000000001,"velocity":0.3858267716535433},{"duration":0.09090900000001056,"midi":31,"time":165.636198,"velocity":0.3858267716535433},{"duration":0.09090900000001056,"midi":31,"time":165.818016,"velocity":0.3858267716535433},{"duration":0.09090900000001056,"midi":37,"time":165.999834,"velocity":0.3858267716535433},{"duration":0.09090899999998214,"midi":27,"time":166.181652,"velocity":0.3858267716535433},{"duration":0.09090900000001056,"midi":31,"time":166.36347,"velocity":0.3858267716535433},{"duration":0.09090900000001056,"midi":31,"time":166.545288,"velocity":0.3858267716535433},{"duration":0.09090899999998214,"midi":37,"time":166.72710600000002,"velocity":0.3858267716535433},{"duration":0.09090899999998214,"midi":27,"time":166.908924,"velocity":0.3858267716535433},{"duration":0.09090900000001056,"midi":31,"time":167.090742,"velocity":0.3858267716535433},{"duration":0.09090900000001056,"midi":31,"time":167.27256,"velocity":0.3858267716535433},{"duration":0.09090899999998214,"midi":37,"time":167.45437800000002,"velocity":0.3858267716535433},{"duration":0.09090899999998214,"midi":27,"time":167.636196,"velocity":0.3858267716535433},{"duration":0.09090900000001056,"midi":31,"time":167.818014,"velocity":0.3858267716535433},{"duration":0.09090900000001056,"midi":31,"time":167.999832,"velocity":0.3858267716535433},{"duration":0.09090899999998214,"midi":37,"time":168.18165000000002,"velocity":0.3858267716535433},{"duration":0.09090899999998214,"midi":27,"time":168.363468,"velocity":0.3858267716535433},{"duration":0.09090900000001056,"midi":31,"time":168.545286,"velocity":0.3858267716535433},{"duration":0.09090900000001056,"midi":31,"time":168.727104,"velocity":0.3858267716535433},{"duration":0.09090899999998214,"midi":37,"time":168.90892200000002,"velocity":0.3858267716535433},{"duration":0.09090899999998214,"midi":27,"time":169.09074,"velocity":0.3858267716535433},{"duration":0.09090900000001056,"midi":31,"time":169.272558,"velocity":0.3858267716535433},{"duration":0.09090900000001056,"midi":31,"time":169.454376,"velocity":0.3858267716535433},{"duration":0.09090899999998214,"midi":37,"time":169.63619400000002,"velocity":0.3858267716535433},{"duration":0.09090900000001056,"midi":27,"time":169.818012,"velocity":0.3858267716535433},{"duration":0.09090900000001056,"midi":31,"time":169.99983,"velocity":0.3858267716535433},{"duration":0.09090900000001056,"midi":31,"time":170.181648,"velocity":0.3858267716535433},{"duration":0.09090899999998214,"midi":37,"time":170.36346600000002,"velocity":0.3858267716535433},{"duration":0.09090900000001056,"midi":27,"time":170.545284,"velocity":0.3858267716535433},{"duration":0.09090900000001056,"midi":31,"time":170.727102,"velocity":0.3858267716535433},{"duration":0.09090900000001056,"midi":31,"time":170.90892,"velocity":0.3858267716535433},{"duration":0.09090899999998214,"midi":37,"time":171.09073800000002,"velocity":0.3858267716535433},{"duration":0.09090900000001056,"midi":27,"time":171.272556,"velocity":0.3858267716535433},{"duration":0.09090900000001056,"midi":31,"time":171.454374,"velocity":0.3858267716535433},{"duration":0.09090900000001056,"midi":31,"time":171.636192,"velocity":0.3858267716535433},{"duration":0.09090899999998214,"midi":37,"time":171.81801000000002,"velocity":0.3858267716535433},{"duration":0.09090900000001056,"midi":27,"time":171.999828,"velocity":0.3858267716535433},{"duration":0.09090900000001056,"midi":31,"time":172.181646,"velocity":0.3858267716535433},{"duration":0.09090900000001056,"midi":31,"time":172.363464,"velocity":0.3858267716535433},{"duration":0.09090899999998214,"midi":37,"time":172.54528200000001,"velocity":0.3858267716535433},{"duration":0.09090900000001056,"midi":27,"time":172.7271,"velocity":0.3858267716535433},{"duration":0.09090900000001056,"midi":31,"time":172.908918,"velocity":0.3858267716535433},{"duration":0.09090899999998214,"midi":31,"time":173.09073600000002,"velocity":0.3858267716535433},{"duration":0.09090899999998214,"midi":37,"time":173.272554,"velocity":0.3858267716535433},{"duration":0.09090900000001056,"midi":27,"time":173.454372,"velocity":0.3858267716535433},{"duration":0.09090900000001056,"midi":31,"time":173.63619,"velocity":0.3858267716535433},{"duration":0.09090899999998214,"midi":31,"time":173.81800800000002,"velocity":0.3858267716535433},{"duration":0.09090899999998214,"midi":37,"time":173.999826,"velocity":0.3858267716535433},{"duration":0.09090900000001056,"midi":27,"time":174.181644,"velocity":0.3858267716535433},{"duration":0.09090900000001056,"midi":31,"time":174.363462,"velocity":0.3858267716535433},{"duration":0.1818179999999927,"midi":31,"time":174.54528000000002,"velocity":0.3858267716535433},{"duration":0.1818179999999927,"midi":31,"time":174.908916,"velocity":0.3858267716535433},{"duration":0.1818179999999927,"midi":31,"time":175.27255200000002,"velocity":0.3858267716535433},{"duration":0.1818179999999927,"midi":31,"time":175.636188,"velocity":0.3858267716535433},{"duration":0.1818179999999927,"midi":31,"time":175.99982400000002,"velocity":0.3858267716535433},{"duration":0.1818179999999927,"midi":31,"time":176.36346,"velocity":0.3858267716535433},{"duration":0.1818179999999927,"midi":31,"time":176.72709600000002,"velocity":0.3858267716535433},{"duration":0.1818179999999927,"midi":31,"time":177.090732,"velocity":0.3858267716535433},{"duration":0.1818179999999927,"midi":31,"time":177.45436800000002,"velocity":0.3858267716535433},{"duration":0.1818179999999927,"midi":31,"time":177.818004,"velocity":0.3858267716535433},{"duration":0.1818179999999927,"midi":31,"time":178.18164000000002,"velocity":0.3858267716535433},{"duration":0.1818179999999927,"midi":31,"time":178.545276,"velocity":0.3858267716535433},{"duration":0.1818179999999927,"midi":31,"time":178.90891200000002,"velocity":0.3858267716535433},{"duration":0.1818179999999927,"midi":31,"time":179.272548,"velocity":0.3858267716535433},{"duration":0.1818179999999927,"midi":31,"time":179.63618400000001,"velocity":0.3858267716535433},{"duration":0.18181800000002113,"midi":31,"time":179.99982,"velocity":0.3858267716535433},{"duration":0.1818179999999927,"midi":31,"time":180.363456,"velocity":0.3858267716535433},{"duration":0.1818179999999927,"midi":39,"time":180.363456,"velocity":0.3858267716535433},{"duration":0.18181800000002113,"midi":31,"time":180.727092,"velocity":0.3858267716535433},{"duration":0.18181800000002113,"midi":39,"time":180.727092,"velocity":0.3858267716535433},{"duration":0.1818179999999927,"midi":31,"time":181.090728,"velocity":0.3858267716535433},{"duration":0.1818179999999927,"midi":39,"time":181.090728,"velocity":0.3858267716535433},{"duration":0.18181800000002113,"midi":39,"time":181.454364,"velocity":0.3858267716535433},{"duration":0.18181800000002113,"midi":31,"time":181.454364,"velocity":0.3858267716535433},{"duration":0.1818179999999927,"midi":31,"time":181.818,"velocity":0.3858267716535433},{"duration":0.1818179999999927,"midi":39,"time":181.818,"velocity":0.3858267716535433},{"duration":0.18181800000002113,"midi":31,"time":182.181636,"velocity":0.3858267716535433},{"duration":0.18181800000002113,"midi":39,"time":182.181636,"velocity":0.3858267716535433},{"duration":0.1818179999999927,"midi":39,"time":182.545272,"velocity":0.3858267716535433},{"duration":0.1818179999999927,"midi":31,"time":182.545272,"velocity":0.3858267716535433},{"duration":0.18181800000002113,"midi":39,"time":182.908908,"velocity":0.3858267716535433},{"duration":0.18181800000002113,"midi":31,"time":182.908908,"velocity":0.3858267716535433},{"duration":0.1818179999999927,"midi":31,"time":183.272544,"velocity":0.3858267716535433},{"duration":0.1818179999999927,"midi":39,"time":183.272544,"velocity":0.3858267716535433},{"duration":0.18181800000002113,"midi":39,"time":183.63618,"velocity":0.3858267716535433},{"duration":0.18181800000002113,"midi":31,"time":183.63618,"velocity":0.3858267716535433},{"duration":0.1818179999999927,"midi":39,"time":183.999816,"velocity":0.3858267716535433},{"duration":0.1818179999999927,"midi":31,"time":183.999816,"velocity":0.3858267716535433},{"duration":0.18181800000002113,"midi":39,"time":184.363452,"velocity":0.3858267716535433},{"duration":0.18181800000002113,"midi":31,"time":184.363452,"velocity":0.3858267716535433},{"duration":0.1818179999999927,"midi":39,"time":186.181632,"velocity":0.3858267716535433},{"duration":0.1818179999999927,"midi":31,"time":186.181632,"velocity":0.3858267716535433},{"duration":0.1818179999999927,"midi":39,"time":186.54526800000002,"velocity":0.3858267716535433},{"duration":0.1818179999999927,"midi":31,"time":186.908904,"velocity":0.3858267716535433},{"duration":0.1818179999999927,"midi":39,"time":186.908904,"velocity":0.3858267716535433},{"duration":0.1818179999999927,"midi":39,"time":187.27254000000002,"velocity":0.3858267716535433},{"duration":0.1818179999999927,"midi":39,"time":187.636176,"velocity":0.3858267716535433},{"duration":0.1818179999999927,"midi":31,"time":187.636176,"velocity":0.3858267716535433},{"duration":0.1818179999999927,"midi":39,"time":187.99981200000002,"velocity":0.3858267716535433},{"duration":0.1818179999999927,"midi":31,"time":188.363448,"velocity":0.3858267716535433},{"duration":0.1818179999999927,"midi":39,"time":188.363448,"velocity":0.3858267716535433},{"duration":0.1818179999999927,"midi":39,"time":188.72708400000002,"velocity":0.3858267716535433},{"duration":0.1818179999999927,"midi":31,"time":189.09072,"velocity":0.3858267716535433},{"duration":0.1818179999999927,"midi":39,"time":189.09072,"velocity":0.3858267716535433},{"duration":0.1818179999999927,"midi":39,"time":189.45435600000002,"velocity":0.3858267716535433},{"duration":0.1818179999999927,"midi":31,"time":189.817992,"velocity":0.3858267716535433},{"duration":0.1818179999999927,"midi":39,"time":189.817992,"velocity":0.3858267716535433},{"duration":0.1818179999999927,"midi":39,"time":190.18162800000002,"velocity":0.3858267716535433},{"duration":0.1818179999999927,"midi":31,"time":190.545264,"velocity":0.3858267716535433},{"duration":0.1818179999999927,"midi":39,"time":190.545264,"velocity":0.3858267716535433},{"duration":0.1818179999999927,"midi":39,"time":190.90890000000002,"velocity":0.3858267716535433},{"duration":0.1818179999999927,"midi":39,"time":191.272536,"velocity":0.3858267716535433},{"duration":0.1818179999999927,"midi":31,"time":191.272536,"velocity":0.3858267716535433},{"duration":0.1818179999999927,"midi":39,"time":191.63617200000002,"velocity":0.3858267716535433},{"duration":0.1818179999999927,"midi":31,"time":191.999808,"velocity":0.3858267716535433},{"duration":0.1818179999999927,"midi":39,"time":191.999808,"velocity":0.3858267716535433},{"duration":0.04545450000000528,"midi":37,"time":192.181626,"velocity":0.3858267716535433},{"duration":0.04545450000000528,"midi":27,"time":192.36344400000002,"velocity":0.3858267716535433},{"duration":0.1818179999999927,"midi":39,"time":192.36344400000002,"velocity":0.3858267716535433},{"duration":0.04545450000000528,"midi":31,"time":192.545262,"velocity":0.3858267716535433},{"duration":0.18181800000002113,"midi":31,"time":192.72708,"velocity":0.3858267716535433},{"duration":0.18181800000002113,"midi":39,"time":192.72708,"velocity":0.3858267716535433},{"duration":0.04545449999997686,"midi":37,"time":192.90889800000002,"velocity":0.3858267716535433},{"duration":0.04545450000000528,"midi":27,"time":193.09071600000001,"velocity":0.3858267716535433},{"duration":0.1818179999999927,"midi":39,"time":193.09071600000001,"velocity":0.3858267716535433},{"duration":0.04545450000000528,"midi":31,"time":193.272534,"velocity":0.3858267716535433},{"duration":0.18181800000002113,"midi":31,"time":193.454352,"velocity":0.3858267716535433},{"duration":0.18181800000002113,"midi":39,"time":193.454352,"velocity":0.3858267716535433},{"duration":0.04545449999997686,"midi":37,"time":193.63617000000002,"velocity":0.3858267716535433},{"duration":0.1818179999999927,"midi":39,"time":193.817988,"velocity":0.3858267716535433},{"duration":0.04545450000000528,"midi":27,"time":193.817988,"velocity":0.3858267716535433},{"duration":0.04545450000000528,"midi":31,"time":193.999806,"velocity":0.3858267716535433},{"duration":0.18181800000002113,"midi":31,"time":194.181624,"velocity":0.3858267716535433},{"duration":0.18181800000002113,"midi":39,"time":194.181624,"velocity":0.3858267716535433},{"duration":0.04545449999997686,"midi":37,"time":194.36344200000002,"velocity":0.3858267716535433},{"duration":0.04545450000000528,"midi":27,"time":194.54526,"velocity":0.3858267716535433},{"duration":0.1818179999999927,"midi":39,"time":194.54526,"velocity":0.3858267716535433},{"duration":0.04545450000000528,"midi":31,"time":194.727078,"velocity":0.3858267716535433},{"duration":0.18181800000002113,"midi":31,"time":194.908896,"velocity":0.3858267716535433},{"duration":0.18181800000002113,"midi":39,"time":194.908896,"velocity":0.3858267716535433},{"duration":0.04545449999997686,"midi":37,"time":195.09071400000002,"velocity":0.3858267716535433},{"duration":0.1818179999999927,"midi":39,"time":195.272532,"velocity":0.3858267716535433},{"duration":0.04545450000000528,"midi":27,"time":195.272532,"velocity":0.3858267716535433},{"duration":0.04545450000000528,"midi":31,"time":195.45435,"velocity":0.3858267716535433},{"duration":0.18181800000002113,"midi":31,"time":195.636168,"velocity":0.3858267716535433},{"duration":0.18181800000002113,"midi":39,"time":195.636168,"velocity":0.3858267716535433},{"duration":0.04545449999997686,"midi":37,"time":195.81798600000002,"velocity":0.3858267716535433},{"duration":0.1818179999999927,"midi":39,"time":195.999804,"velocity":0.3858267716535433},{"duration":0.04545450000000528,"midi":27,"time":195.999804,"velocity":0.3858267716535433},{"duration":0.04545450000000528,"midi":31,"time":196.181622,"velocity":0.3858267716535433},{"duration":0.18181800000002113,"midi":31,"time":196.36344,"velocity":0.3858267716535433},{"duration":0.18181800000002113,"midi":39,"time":196.36344,"velocity":0.3858267716535433},{"duration":0.04545449999997686,"midi":37,"time":196.54525800000002,"velocity":0.3858267716535433},{"duration":0.1818179999999927,"midi":39,"time":196.727076,"velocity":0.3858267716535433},{"duration":0.04545450000000528,"midi":27,"time":196.727076,"velocity":0.3858267716535433},{"duration":0.04545450000000528,"midi":31,"time":196.908894,"velocity":0.3858267716535433},{"duration":0.18181800000002113,"midi":31,"time":197.090712,"velocity":0.3858267716535433},{"duration":0.18181800000002113,"midi":39,"time":197.090712,"velocity":0.3858267716535433},{"duration":0.04545449999997686,"midi":37,"time":197.27253000000002,"velocity":0.3858267716535433},{"duration":0.04545450000000528,"midi":27,"time":197.454348,"velocity":0.3858267716535433},{"duration":0.1818179999999927,"midi":39,"time":197.454348,"velocity":0.3858267716535433},{"duration":0.04545450000000528,"midi":31,"time":197.636166,"velocity":0.3858267716535433},{"duration":0.18181800000002113,"midi":31,"time":197.817984,"velocity":0.3858267716535433},{"duration":0.18181800000002113,"midi":39,"time":197.817984,"velocity":0.3858267716535433},{"duration":0.04545450000000528,"midi":37,"time":197.99980200000002,"velocity":0.3858267716535433},{"duration":0.1818179999999927,"midi":39,"time":198.18162,"velocity":0.3858267716535433},{"duration":0.04545450000000528,"midi":27,"time":198.18162,"velocity":0.3858267716535433},{"duration":0.04545450000000528,"midi":31,"time":198.363438,"velocity":0.3858267716535433},{"duration":0.18181800000002113,"midi":39,"time":198.545256,"velocity":0.3858267716535433},{"duration":0.18181800000002113,"midi":31,"time":198.545256,"velocity":0.3858267716535433},{"duration":0.04545450000000528,"midi":37,"time":198.72707400000002,"velocity":0.3858267716535433},{"duration":0.1818179999999927,"midi":39,"time":198.908892,"velocity":0.3858267716535433},{"duration":0.04545450000000528,"midi":27,"time":198.908892,"velocity":0.3858267716535433},{"duration":0.04545450000000528,"midi":31,"time":199.09071,"velocity":0.3858267716535433},{"duration":0.18181800000002113,"midi":31,"time":199.272528,"velocity":0.3858267716535433},{"duration":0.18181800000002113,"midi":39,"time":199.272528,"velocity":0.3858267716535433},{"duration":0.04545450000000528,"midi":37,"time":199.45434600000002,"velocity":0.3858267716535433},{"duration":0.04545450000000528,"midi":27,"time":199.636164,"velocity":0.3858267716535433},{"duration":0.1818179999999927,"midi":39,"time":199.636164,"velocity":0.3858267716535433},{"duration":0.04545450000000528,"midi":31,"time":199.817982,"velocity":0.3858267716535433},{"duration":0.1818179999999927,"midi":39,"time":199.99980000000002,"velocity":0.3858267716535433},{"duration":0.1818179999999927,"midi":31,"time":199.99980000000002,"velocity":0.3858267716535433},{"duration":0.04545450000000528,"midi":37,"time":200.18161800000001,"velocity":0.3858267716535433},{"duration":0.04545450000000528,"midi":27,"time":200.363436,"velocity":0.3858267716535433},{"duration":0.1818179999999927,"midi":39,"time":200.363436,"velocity":0.3858267716535433},{"duration":0.04545450000000528,"midi":31,"time":200.545254,"velocity":0.3858267716535433},{"duration":0.1818179999999927,"midi":31,"time":200.72707200000002,"velocity":0.3858267716535433},{"duration":0.1818179999999927,"midi":39,"time":200.72707200000002,"velocity":0.3858267716535433},{"duration":0.04545450000000528,"midi":37,"time":200.90889,"velocity":0.3858267716535433},{"duration":0.1818179999999927,"midi":39,"time":201.090708,"velocity":0.3858267716535433},{"duration":0.04545450000000528,"midi":27,"time":201.090708,"velocity":0.3858267716535433},{"duration":0.04545450000000528,"midi":31,"time":201.272526,"velocity":0.3858267716535433},{"duration":0.1818179999999927,"midi":39,"time":201.45434400000002,"velocity":0.3858267716535433},{"duration":0.1818179999999927,"midi":31,"time":201.45434400000002,"velocity":0.3858267716535433},{"duration":0.04545450000000528,"midi":37,"time":201.636162,"velocity":0.3858267716535433},{"duration":0.04545450000000528,"midi":27,"time":201.81798,"velocity":0.3858267716535433},{"duration":0.1818179999999927,"midi":39,"time":201.81798,"velocity":0.3858267716535433},{"duration":0.04545450000000528,"midi":31,"time":201.999798,"velocity":0.3858267716535433},{"duration":0.1818179999999927,"midi":39,"time":202.18161600000002,"velocity":0.3858267716535433},{"duration":0.1818179999999927,"midi":31,"time":202.18161600000002,"velocity":0.3858267716535433},{"duration":0.04545450000000528,"midi":37,"time":202.363434,"velocity":0.3858267716535433},{"duration":0.04545450000000528,"midi":27,"time":202.545252,"velocity":0.3858267716535433},{"duration":0.1818179999999927,"midi":39,"time":202.545252,"velocity":0.3858267716535433},{"duration":0.04545450000000528,"midi":31,"time":202.72707,"velocity":0.3858267716535433},{"duration":0.1818179999999927,"midi":39,"time":202.90888800000002,"velocity":0.3858267716535433},{"duration":0.1818179999999927,"midi":31,"time":202.90888800000002,"velocity":0.3858267716535433},{"duration":0.04545450000000528,"midi":37,"time":203.090706,"velocity":0.3858267716535433},{"duration":0.1818179999999927,"midi":39,"time":203.272524,"velocity":0.3858267716535433},{"duration":0.04545450000000528,"midi":27,"time":203.272524,"velocity":0.3858267716535433},{"duration":0.04545450000000528,"midi":31,"time":203.454342,"velocity":0.3858267716535433},{"duration":0.1818179999999927,"midi":39,"time":203.63616000000002,"velocity":0.3858267716535433},{"duration":0.1818179999999927,"midi":31,"time":203.63616000000002,"velocity":0.3858267716535433},{"duration":0.04545450000000528,"midi":37,"time":203.817978,"velocity":0.3858267716535433},{"duration":0.1818179999999927,"midi":39,"time":203.999796,"velocity":0.3858267716535433},{"duration":0.04545450000000528,"midi":27,"time":203.999796,"velocity":0.3858267716535433},{"duration":0.04545450000000528,"midi":31,"time":204.181614,"velocity":0.3858267716535433},{"duration":0.1818179999999927,"midi":31,"time":204.36343200000002,"velocity":0.3858267716535433},{"duration":0.1818179999999927,"midi":39,"time":204.36343200000002,"velocity":0.3858267716535433},{"duration":0.04545450000000528,"midi":37,"time":204.54525,"velocity":0.3858267716535433},{"duration":0.04545450000000528,"midi":27,"time":204.727068,"velocity":0.3858267716535433},{"duration":0.1818179999999927,"midi":39,"time":204.727068,"velocity":0.3858267716535433},{"duration":0.04545450000000528,"midi":31,"time":204.908886,"velocity":0.3858267716535433},{"duration":0.1818179999999927,"midi":39,"time":205.09070400000002,"velocity":0.3858267716535433},{"duration":0.1818179999999927,"midi":31,"time":205.09070400000002,"velocity":0.3858267716535433},{"duration":0.04545450000000528,"midi":37,"time":205.272522,"velocity":0.3858267716535433},{"duration":0.04545450000000528,"midi":27,"time":205.45434,"velocity":0.3858267716535433},{"duration":0.1818179999999927,"midi":39,"time":205.45434,"velocity":0.3858267716535433},{"duration":0.04545450000000528,"midi":31,"time":205.636158,"velocity":0.3858267716535433},{"duration":0.1818179999999927,"midi":31,"time":205.81797600000002,"velocity":0.3858267716535433},{"duration":0.1818179999999927,"midi":39,"time":205.81797600000002,"velocity":0.3858267716535433},{"duration":0.04545450000000528,"midi":37,"time":205.999794,"velocity":0.3858267716535433},{"duration":0.18181800000002113,"midi":39,"time":206.181612,"velocity":0.3858267716535433},{"duration":0.04545450000000528,"midi":27,"time":206.181612,"velocity":0.3858267716535433},{"duration":0.04545449999997686,"midi":31,"time":206.36343000000002,"velocity":0.3858267716535433},{"duration":0.1818179999999927,"midi":31,"time":206.54524800000002,"velocity":0.3858267716535433},{"duration":0.1818179999999927,"midi":39,"time":206.54524800000002,"velocity":0.3858267716535433},{"duration":0.04545450000000528,"midi":37,"time":206.727066,"velocity":0.3858267716535433},{"duration":0.04545450000000528,"midi":27,"time":206.908884,"velocity":0.3858267716535433},{"duration":0.18181800000002113,"midi":39,"time":206.908884,"velocity":0.3858267716535433},{"duration":0.04545449999997686,"midi":31,"time":207.09070200000002,"velocity":0.3858267716535433},{"duration":0.1818179999999927,"midi":39,"time":207.27252000000001,"velocity":0.3858267716535433},{"duration":0.1818179999999927,"midi":31,"time":207.27252000000001,"velocity":0.3858267716535433},{"duration":0.04545450000000528,"midi":37,"time":207.454338,"velocity":0.3858267716535433},{"duration":0.04545450000000528,"midi":27,"time":207.636156,"velocity":0.3858267716535433},{"duration":0.18181800000002113,"midi":39,"time":207.636156,"velocity":0.3858267716535433},{"duration":0.04545449999997686,"midi":31,"time":207.81797400000002,"velocity":0.3858267716535433},{"duration":0.1818179999999927,"midi":39,"time":207.999792,"velocity":0.3858267716535433},{"duration":0.1818179999999927,"midi":31,"time":207.999792,"velocity":0.3858267716535433},{"duration":0.04545450000000528,"midi":37,"time":208.18161,"velocity":0.3858267716535433},{"duration":0.18181800000002113,"midi":39,"time":208.363428,"velocity":0.3858267716535433},{"duration":0.04545450000000528,"midi":27,"time":208.363428,"velocity":0.3858267716535433},{"duration":0.04545449999997686,"midi":31,"time":208.54524600000002,"velocity":0.3858267716535433},{"duration":0.1818179999999927,"midi":39,"time":208.727064,"velocity":0.3858267716535433},{"duration":0.1818179999999927,"midi":31,"time":208.727064,"velocity":0.3858267716535433},{"duration":0.04545450000000528,"midi":37,"time":208.908882,"velocity":0.3858267716535433},{"duration":0.18181800000002113,"midi":39,"time":209.0907,"velocity":0.3858267716535433},{"duration":0.04545450000000528,"midi":27,"time":209.0907,"velocity":0.3858267716535433},{"duration":0.04545449999997686,"midi":31,"time":209.27251800000002,"velocity":0.3858267716535433},{"duration":0.09090900000001056,"midi":31,"time":221.090688,"velocity":0.3858267716535433},{"duration":0.09090899999998214,"midi":37,"time":221.27250600000002,"velocity":0.3858267716535433},{"duration":0.09090899999998214,"midi":27,"time":221.454324,"velocity":0.3858267716535433},{"duration":0.09090900000001056,"midi":31,"time":221.636142,"velocity":0.3858267716535433},{"duration":0.09090900000001056,"midi":31,"time":221.81796,"velocity":0.3858267716535433},{"duration":0.09090899999998214,"midi":37,"time":221.99977800000002,"velocity":0.3858267716535433},{"duration":0.09090899999998214,"midi":27,"time":222.181596,"velocity":0.3858267716535433},{"duration":0.09090900000001056,"midi":31,"time":222.363414,"velocity":0.3858267716535433},{"duration":0.09090900000001056,"midi":31,"time":222.545232,"velocity":0.3858267716535433},{"duration":0.09090899999998214,"midi":37,"time":222.72705000000002,"velocity":0.3858267716535433},{"duration":0.09090900000001056,"midi":27,"time":222.908868,"velocity":0.3858267716535433},{"duration":0.09090900000001056,"midi":31,"time":223.090686,"velocity":0.3858267716535433},{"duration":0.09090900000001056,"midi":31,"time":223.272504,"velocity":0.3858267716535433},{"duration":0.09090899999998214,"midi":37,"time":223.45432200000002,"velocity":0.3858267716535433},{"duration":0.09090900000001056,"midi":27,"time":223.63614,"velocity":0.3858267716535433},{"duration":0.09090900000001056,"midi":31,"time":223.817958,"velocity":0.3858267716535433},{"duration":0.09090900000001056,"midi":31,"time":223.999776,"velocity":0.3858267716535433},{"duration":0.09090899999998214,"midi":37,"time":224.18159400000002,"velocity":0.3858267716535433},{"duration":0.09090900000001056,"midi":27,"time":224.363412,"velocity":0.3858267716535433},{"duration":0.09090900000001056,"midi":31,"time":224.54523,"velocity":0.3858267716535433},{"duration":0.09090900000001056,"midi":31,"time":224.727048,"velocity":0.3858267716535433},{"duration":0.09090899999998214,"midi":37,"time":224.90886600000002,"velocity":0.3858267716535433},{"duration":0.09090900000001056,"midi":27,"time":225.090684,"velocity":0.3858267716535433},{"duration":0.09090900000001056,"midi":31,"time":225.272502,"velocity":0.3858267716535433},{"duration":0.09090900000001056,"midi":31,"time":225.45432,"velocity":0.3858267716535433},{"duration":0.09090899999998214,"midi":37,"time":225.63613800000002,"velocity":0.3858267716535433},{"duration":0.09090900000001056,"midi":27,"time":225.817956,"velocity":0.3858267716535433},{"duration":0.09090900000001056,"midi":31,"time":225.999774,"velocity":0.3858267716535433},{"duration":0.09090899999998214,"midi":31,"time":226.18159200000002,"velocity":0.3858267716535433},{"duration":0.09090899999998214,"midi":37,"time":226.36341000000002,"velocity":0.3858267716535433},{"duration":0.09090900000001056,"midi":27,"time":226.545228,"velocity":0.3858267716535433},{"duration":0.09090900000001056,"midi":31,"time":226.727046,"velocity":0.3858267716535433},{"duration":0.09090899999998214,"midi":31,"time":226.90886400000002,"velocity":0.3858267716535433},{"duration":0.09090899999998214,"midi":39,"time":226.90886400000002,"velocity":0.3858267716535433},{"duration":0.09090899999998214,"midi":37,"time":227.09068200000002,"velocity":0.3858267716535433},{"duration":0.09090900000001056,"midi":27,"time":227.2725,"velocity":0.3858267716535433},{"duration":0.09090900000001056,"midi":39,"time":227.2725,"velocity":0.3858267716535433},{"duration":0.09090900000001056,"midi":31,"time":227.454318,"velocity":0.3858267716535433},{"duration":0.09090899999998214,"midi":39,"time":227.63613600000002,"velocity":0.3858267716535433},{"duration":0.09090899999998214,"midi":31,"time":227.63613600000002,"velocity":0.3858267716535433},{"duration":0.09090899999998214,"midi":37,"time":227.81795400000001,"velocity":0.3858267716535433},{"duration":0.09090900000001056,"midi":39,"time":227.999772,"velocity":0.3858267716535433},{"duration":0.09090900000001056,"midi":27,"time":227.999772,"velocity":0.3858267716535433},{"duration":0.09090900000001056,"midi":31,"time":228.18159,"velocity":0.3858267716535433},{"duration":0.09090899999998214,"midi":39,"time":228.36340800000002,"velocity":0.3858267716535433},{"duration":0.09090899999998214,"midi":31,"time":228.36340800000002,"velocity":0.3858267716535433},{"duration":0.09090899999998214,"midi":37,"time":228.545226,"velocity":0.3858267716535433},{"duration":0.09090900000001056,"midi":39,"time":228.727044,"velocity":0.3858267716535433},{"duration":0.09090900000001056,"midi":27,"time":228.727044,"velocity":0.3858267716535433},{"duration":0.09090900000001056,"midi":31,"time":228.908862,"velocity":0.3858267716535433},{"duration":0.09090899999998214,"midi":31,"time":229.09068000000002,"velocity":0.3858267716535433},{"duration":0.09090899999998214,"midi":39,"time":229.09068000000002,"velocity":0.3858267716535433},{"duration":0.09090899999998214,"midi":37,"time":229.272498,"velocity":0.3858267716535433},{"duration":0.09090900000001056,"midi":39,"time":229.454316,"velocity":0.3858267716535433},{"duration":0.09090900000001056,"midi":27,"time":229.454316,"velocity":0.3858267716535433},{"duration":0.09090900000001056,"midi":31,"time":229.636134,"velocity":0.3858267716535433},{"duration":0.09090899999998214,"midi":39,"time":229.81795200000002,"velocity":0.3858267716535433},{"duration":0.09090899999998214,"midi":31,"time":229.81795200000002,"velocity":0.3858267716535433},{"duration":0.09090900000001056,"midi":37,"time":229.99977,"velocity":0.3858267716535433},{"duration":0.09090900000001056,"midi":39,"time":230.181588,"velocity":0.3858267716535433},{"duration":0.09090900000001056,"midi":27,"time":230.181588,"velocity":0.3858267716535433},{"duration":0.09090900000001056,"midi":31,"time":230.363406,"velocity":0.3858267716535433},{"duration":0.09090899999998214,"midi":31,"time":230.54522400000002,"velocity":0.3858267716535433},{"duration":0.09090899999998214,"midi":39,"time":230.54522400000002,"velocity":0.3858267716535433},{"duration":0.09090900000001056,"midi":37,"time":230.727042,"velocity":0.3858267716535433},{"duration":0.09090900000001056,"midi":39,"time":230.90886,"velocity":0.3858267716535433},{"duration":0.09090900000001056,"midi":27,"time":230.90886,"velocity":0.3858267716535433},{"duration":0.09090900000001056,"midi":31,"time":231.090678,"velocity":0.3858267716535433},{"duration":0.09090899999998214,"midi":31,"time":231.27249600000002,"velocity":0.3858267716535433},{"duration":0.09090899999998214,"midi":39,"time":231.27249600000002,"velocity":0.3858267716535433},{"duration":0.09090900000001056,"midi":37,"time":231.454314,"velocity":0.3858267716535433},{"duration":0.09090900000001056,"midi":39,"time":231.636132,"velocity":0.3858267716535433},{"duration":0.09090900000001056,"midi":27,"time":231.636132,"velocity":0.3858267716535433},{"duration":0.09090900000001056,"midi":31,"time":231.81795,"velocity":0.3858267716535433},{"duration":0.09090899999998214,"midi":31,"time":231.99976800000002,"velocity":0.3858267716535433},{"duration":0.09090899999998214,"midi":39,"time":231.99976800000002,"velocity":0.3858267716535433},{"duration":0.09090900000001056,"midi":37,"time":232.181586,"velocity":0.3858267716535433},{"duration":0.09090900000001056,"midi":27,"time":232.363404,"velocity":0.3858267716535433},{"duration":0.09090900000001056,"midi":39,"time":232.363404,"velocity":0.3858267716535433},{"duration":0.09090900000001056,"midi":31,"time":232.545222,"velocity":0.3858267716535433},{"duration":0.09090899999998214,"midi":39,"time":232.72704000000002,"velocity":0.3858267716535433},{"duration":0.09090899999998214,"midi":31,"time":232.72704000000002,"velocity":0.3858267716535433},{"duration":0.09090900000001056,"midi":37,"time":232.908858,"velocity":0.3858267716535433},{"duration":0.09090900000001056,"midi":39,"time":233.090676,"velocity":0.3858267716535433},{"duration":0.09090900000001056,"midi":27,"time":233.090676,"velocity":0.3858267716535433},{"duration":0.09090899999998214,"midi":31,"time":233.27249400000002,"velocity":0.3858267716535433},{"duration":0.09090899999998214,"midi":31,"time":233.45431200000002,"velocity":0.3858267716535433},{"duration":0.09090899999998214,"midi":39,"time":233.45431200000002,"velocity":0.3858267716535433},{"duration":0.09090900000001056,"midi":37,"time":233.63613,"velocity":0.3858267716535433},{"duration":0.09090900000001056,"midi":39,"time":233.817948,"velocity":0.3858267716535433},{"duration":0.09090900000001056,"midi":27,"time":233.817948,"velocity":0.3858267716535433},{"duration":0.09090899999998214,"midi":31,"time":233.99976600000002,"velocity":0.3858267716535433},{"duration":0.09090899999998214,"midi":39,"time":234.18158400000002,"velocity":0.3858267716535433},{"duration":0.09090899999998214,"midi":31,"time":234.18158400000002,"velocity":0.3858267716535433},{"duration":0.09090900000001056,"midi":37,"time":234.363402,"velocity":0.3858267716535433},{"duration":0.09090900000001056,"midi":27,"time":234.54522,"velocity":0.3858267716535433},{"duration":0.09090900000001056,"midi":39,"time":234.54522,"velocity":0.3858267716535433},{"duration":0.09090899999998214,"midi":31,"time":234.72703800000002,"velocity":0.3858267716535433},{"duration":0.09090899999998214,"midi":39,"time":234.90885600000001,"velocity":0.3858267716535433},{"duration":0.09090899999998214,"midi":31,"time":234.90885600000001,"velocity":0.3858267716535433},{"duration":0.09090900000001056,"midi":37,"time":235.090674,"velocity":0.3858267716535433},{"duration":0.09090900000001056,"midi":27,"time":235.272492,"velocity":0.3858267716535433},{"duration":0.09090900000001056,"midi":39,"time":235.272492,"velocity":0.3858267716535433},{"duration":0.09090899999998214,"midi":31,"time":235.45431000000002,"velocity":0.3858267716535433},{"duration":0.09090899999998214,"midi":39,"time":235.636128,"velocity":0.3858267716535433},{"duration":0.09090899999998214,"midi":31,"time":235.636128,"velocity":0.3858267716535433},{"duration":0.09090900000001056,"midi":37,"time":235.817946,"velocity":0.3858267716535433},{"duration":0.09090900000001056,"midi":27,"time":235.999764,"velocity":0.3858267716535433},{"duration":0.09090900000001056,"midi":39,"time":235.999764,"velocity":0.3858267716535433},{"duration":0.09090899999998214,"midi":31,"time":236.18158200000002,"velocity":0.3858267716535433},{"duration":0.09090900000001056,"midi":31,"time":236.3634,"velocity":0.3858267716535433},{"duration":0.09090900000001056,"midi":39,"time":236.3634,"velocity":0.3858267716535433},{"duration":0.09090900000001056,"midi":37,"time":236.545218,"velocity":0.3858267716535433},{"duration":0.09090900000001056,"midi":39,"time":236.727036,"velocity":0.3858267716535433},{"duration":0.09090900000001056,"midi":27,"time":236.727036,"velocity":0.3858267716535433},{"duration":0.09090899999998214,"midi":31,"time":236.90885400000002,"velocity":0.3858267716535433},{"duration":0.09090900000001056,"midi":31,"time":237.090672,"velocity":0.3858267716535433},{"duration":0.09090900000001056,"midi":39,"time":237.090672,"velocity":0.3858267716535433},{"duration":0.09090900000001056,"midi":37,"time":237.27249,"velocity":0.3858267716535433},{"duration":0.09090900000001056,"midi":27,"time":237.454308,"velocity":0.3858267716535433},{"duration":0.09090900000001056,"midi":39,"time":237.454308,"velocity":0.3858267716535433},{"duration":0.09090899999998214,"midi":31,"time":237.63612600000002,"velocity":0.3858267716535433},{"duration":0.09090900000001056,"midi":31,"time":237.817944,"velocity":0.3858267716535433},{"duration":0.09090900000001056,"midi":39,"time":237.817944,"velocity":0.3858267716535433},{"duration":0.09090900000001056,"midi":37,"time":237.999762,"velocity":0.3858267716535433},{"duration":0.09090900000001056,"midi":27,"time":238.18158,"velocity":0.3858267716535433},{"duration":0.09090900000001056,"midi":39,"time":238.18158,"velocity":0.3858267716535433},{"duration":0.09090899999998214,"midi":31,"time":238.36339800000002,"velocity":0.3858267716535433},{"duration":0.09090900000001056,"midi":39,"time":238.545216,"velocity":0.3858267716535433},{"duration":0.09090900000001056,"midi":31,"time":238.545216,"velocity":0.3858267716535433},{"duration":0.09090900000001056,"midi":37,"time":238.727034,"velocity":0.3858267716535433},{"duration":0.09090900000001056,"midi":39,"time":238.908852,"velocity":0.3858267716535433},{"duration":0.09090900000001056,"midi":27,"time":238.908852,"velocity":0.3858267716535433},{"duration":0.09090899999998214,"midi":31,"time":239.09067000000002,"velocity":0.3858267716535433},{"duration":0.09090900000001056,"midi":31,"time":239.272488,"velocity":0.3858267716535433},{"duration":0.09090900000001056,"midi":39,"time":239.272488,"velocity":0.3858267716535433},{"duration":0.09090900000001056,"midi":37,"time":239.454306,"velocity":0.3858267716535433},{"duration":0.09090899999998214,"midi":39,"time":239.63612400000002,"velocity":0.3858267716535433},{"duration":0.09090899999998214,"midi":27,"time":239.63612400000002,"velocity":0.3858267716535433},{"duration":0.09090899999998214,"midi":31,"time":239.81794200000002,"velocity":0.3858267716535433},{"duration":0.09090900000001056,"midi":39,"time":239.99976,"velocity":0.3858267716535433},{"duration":0.09090900000001056,"midi":31,"time":239.99976,"velocity":0.3858267716535433},{"duration":0.09090900000001056,"midi":37,"time":240.181578,"velocity":0.3858267716535433},{"duration":0.09090899999998214,"midi":39,"time":240.36339600000002,"velocity":0.3858267716535433},{"duration":0.09090899999998214,"midi":27,"time":240.36339600000002,"velocity":0.3858267716535433},{"duration":0.09090899999998214,"midi":31,"time":240.54521400000002,"velocity":0.3858267716535433},{"duration":0.09090900000001056,"midi":39,"time":240.727032,"velocity":0.3858267716535433},{"duration":0.09090900000001056,"midi":31,"time":240.727032,"velocity":0.3858267716535433},{"duration":0.09090900000001056,"midi":37,"time":240.90885,"velocity":0.3858267716535433},{"duration":0.09090899999998214,"midi":27,"time":241.09066800000002,"velocity":0.3858267716535433},{"duration":0.09090899999998214,"midi":39,"time":241.09066800000002,"velocity":0.3858267716535433},{"duration":0.09090899999998214,"midi":31,"time":241.27248600000001,"velocity":0.3858267716535433},{"duration":0.09090900000001056,"midi":39,"time":241.454304,"velocity":0.3858267716535433},{"duration":0.09090900000001056,"midi":31,"time":241.454304,"velocity":0.3858267716535433},{"duration":0.09090900000001056,"midi":37,"time":241.636122,"velocity":0.3858267716535433},{"duration":0.09090899999998214,"midi":39,"time":241.81794000000002,"velocity":0.3858267716535433},{"duration":0.09090899999998214,"midi":27,"time":241.81794000000002,"velocity":0.3858267716535433},{"duration":0.09090899999998214,"midi":31,"time":241.999758,"velocity":0.3858267716535433},{"duration":0.09090900000001056,"midi":39,"time":242.181576,"velocity":0.3858267716535433},{"duration":0.09090900000001056,"midi":31,"time":242.181576,"velocity":0.3858267716535433},{"duration":0.09090900000001056,"midi":37,"time":242.363394,"velocity":0.3858267716535433},{"duration":0.09090899999998214,"midi":39,"time":242.54521200000002,"velocity":0.3858267716535433},{"duration":0.09090899999998214,"midi":27,"time":242.54521200000002,"velocity":0.3858267716535433},{"duration":0.09090900000001056,"midi":31,"time":242.72703,"velocity":0.3858267716535433},{"duration":0.09090900000001056,"midi":31,"time":242.908848,"velocity":0.3858267716535433},{"duration":0.09090900000001056,"midi":39,"time":242.908848,"velocity":0.3858267716535433},{"duration":0.09090900000001056,"midi":37,"time":243.090666,"velocity":0.3858267716535433},{"duration":0.09090899999998214,"midi":39,"time":243.27248400000002,"velocity":0.3858267716535433},{"duration":0.09090899999998214,"midi":27,"time":243.27248400000002,"velocity":0.3858267716535433},{"duration":0.09090900000001056,"midi":31,"time":243.454302,"velocity":0.3858267716535433},{"duration":0.09090900000001056,"midi":31,"time":243.63612,"velocity":0.3858267716535433},{"duration":0.09090900000001056,"midi":39,"time":243.63612,"velocity":0.3858267716535433},{"duration":0.09090900000001056,"midi":37,"time":243.817938,"velocity":0.3858267716535433},{"duration":0.09090899999998214,"midi":27,"time":243.99975600000002,"velocity":0.3858267716535433},{"duration":0.09090899999998214,"midi":39,"time":243.99975600000002,"velocity":0.3858267716535433},{"duration":0.09090900000001056,"midi":31,"time":244.181574,"velocity":0.3858267716535433},{"duration":0.09090900000001056,"midi":35,"time":255.99974400000002,"velocity":0.3858267716535433},{"duration":0.09090900000001056,"midi":35,"time":256.36338,"velocity":0.3858267716535433},{"duration":0.09090900000001056,"midi":35,"time":256.727016,"velocity":0.3858267716535433},{"duration":0.09090899999995372,"midi":35,"time":257.09065200000003,"velocity":0.3858267716535433},{"duration":0.09090900000001056,"midi":35,"time":257.454288,"velocity":0.3858267716535433},{"duration":0.09090900000001056,"midi":35,"time":257.817924,"velocity":0.3858267716535433},{"duration":0.09090900000001056,"midi":35,"time":258.18156,"velocity":0.3858267716535433},{"duration":0.09090899999995372,"midi":35,"time":258.54519600000003,"velocity":0.3858267716535433},{"duration":0.09090900000001056,"midi":35,"time":258.908832,"velocity":0.3858267716535433},{"duration":0.09090900000001056,"midi":35,"time":259.272468,"velocity":0.3858267716535433},{"duration":0.09090900000001056,"midi":35,"time":259.636104,"velocity":0.3858267716535433},{"duration":0.09090899999995372,"midi":35,"time":259.99974000000003,"velocity":0.3858267716535433},{"duration":0.09090900000001056,"midi":35,"time":260.363376,"velocity":0.3858267716535433},{"duration":0.09090900000001056,"midi":35,"time":260.727012,"velocity":0.3858267716535433},{"duration":0.09090900000001056,"midi":35,"time":261.090648,"velocity":0.3858267716535433},{"duration":0.09090899999995372,"midi":35,"time":261.45428400000003,"velocity":0.3858267716535433},{"duration":0.09090900000001056,"midi":35,"time":261.81792,"velocity":0.3858267716535433},{"duration":0.09090900000001056,"midi":35,"time":262.181556,"velocity":0.3858267716535433},{"duration":0.09090900000001056,"midi":35,"time":262.545192,"velocity":0.3858267716535433},{"duration":0.09090900000001056,"midi":35,"time":262.908828,"velocity":0.3858267716535433},{"duration":0.09090900000001056,"midi":35,"time":263.272464,"velocity":0.3858267716535433},{"duration":0.09090900000001056,"midi":35,"time":263.6361,"velocity":0.3858267716535433},{"duration":0.09090900000001056,"midi":35,"time":263.999736,"velocity":0.3858267716535433},{"duration":0.09090900000001056,"midi":35,"time":264.363372,"velocity":0.3858267716535433},{"duration":0.09090900000001056,"midi":35,"time":264.727008,"velocity":0.3858267716535433},{"duration":0.09090900000001056,"midi":35,"time":265.090644,"velocity":0.3858267716535433},{"duration":0.09090900000001056,"midi":35,"time":265.45428,"velocity":0.3858267716535433},{"duration":0.09090900000001056,"midi":35,"time":265.817916,"velocity":0.3858267716535433},{"duration":0.09090900000001056,"midi":35,"time":266.181552,"velocity":0.3858267716535433},{"duration":0.09090900000001056,"midi":35,"time":266.545188,"velocity":0.3858267716535433},{"duration":0.09090899999995372,"midi":35,"time":266.90882400000004,"velocity":0.3858267716535433},{"duration":0.18181800000002113,"midi":36,"time":267.636096,"velocity":0.3858267716535433},{"duration":0.18181800000002113,"midi":35,"time":267.636096,"velocity":0.3858267716535433},{"duration":0.18181800000002113,"midi":39,"time":267.999732,"velocity":0.3858267716535433},{"duration":0.18181800000002113,"midi":40,"time":267.999732,"velocity":0.3858267716535433},{"duration":0.18181800000002113,"midi":37,"time":267.999732,"velocity":0.3858267716535433},{"duration":0.18181799999996429,"midi":35,"time":268.36336800000004,"velocity":0.3858267716535433},{"duration":0.18181799999996429,"midi":36,"time":268.36336800000004,"velocity":0.3858267716535433},{"duration":0.18181799999996429,"midi":37,"time":268.727004,"velocity":0.3858267716535433},{"duration":0.18181799999996429,"midi":39,"time":268.727004,"velocity":0.3858267716535433},{"duration":0.18181799999996429,"midi":40,"time":268.727004,"velocity":0.3858267716535433},{"duration":0.18181800000002113,"midi":35,"time":269.09064,"velocity":0.3858267716535433},{"duration":0.18181800000002113,"midi":36,"time":269.09064,"velocity":0.3858267716535433},{"duration":0.18181800000002113,"midi":37,"time":269.454276,"velocity":0.3858267716535433},{"duration":0.18181800000002113,"midi":39,"time":269.454276,"velocity":0.3858267716535433},{"duration":0.18181800000002113,"midi":40,"time":269.454276,"velocity":0.3858267716535433},{"duration":0.18181799999996429,"midi":35,"time":269.81791200000004,"velocity":0.3858267716535433},{"duration":0.18181799999996429,"midi":36,"time":269.81791200000004,"velocity":0.3858267716535433},{"duration":0.18181799999996429,"midi":37,"time":270.181548,"velocity":0.3858267716535433},{"duration":0.18181799999996429,"midi":39,"time":270.181548,"velocity":0.3858267716535433},{"duration":0.18181799999996429,"midi":40,"time":270.181548,"velocity":0.3858267716535433},{"duration":0.18181800000002113,"midi":35,"time":270.545184,"velocity":0.3858267716535433},{"duration":0.18181800000002113,"midi":36,"time":270.545184,"velocity":0.3858267716535433},{"duration":0.18181800000002113,"midi":37,"time":270.90882,"velocity":0.3858267716535433},{"duration":0.18181800000002113,"midi":40,"time":270.90882,"velocity":0.3858267716535433},{"duration":0.18181800000002113,"midi":39,"time":270.90882,"velocity":0.3858267716535433},{"duration":0.18181799999996429,"midi":35,"time":271.27245600000003,"velocity":0.3858267716535433},{"duration":0.18181799999996429,"midi":36,"time":271.27245600000003,"velocity":0.3858267716535433},{"duration":0.18181799999996429,"midi":37,"time":271.636092,"velocity":0.3858267716535433},{"duration":0.18181799999996429,"midi":39,"time":271.636092,"velocity":0.3858267716535433},{"duration":0.18181799999996429,"midi":40,"time":271.636092,"velocity":0.3858267716535433},{"duration":0.18181800000002113,"midi":35,"time":271.999728,"velocity":0.3858267716535433},{"duration":0.18181800000002113,"midi":36,"time":271.999728,"velocity":0.3858267716535433},{"duration":0.18181800000002113,"midi":37,"time":272.363364,"velocity":0.3858267716535433},{"duration":0.18181800000002113,"midi":39,"time":272.363364,"velocity":0.3858267716535433},{"duration":0.18181800000002113,"midi":40,"time":272.363364,"velocity":0.3858267716535433},{"duration":0.18181799999996429,"midi":36,"time":272.72700000000003,"velocity":0.3858267716535433},{"duration":0.18181799999996429,"midi":35,"time":272.72700000000003,"velocity":0.3858267716535433},{"duration":0.18181800000002113,"midi":37,"time":273.090636,"velocity":0.3858267716535433},{"duration":0.18181800000002113,"midi":40,"time":273.090636,"velocity":0.3858267716535433},{"duration":0.18181800000002113,"midi":39,"time":273.090636,"velocity":0.3858267716535433},{"duration":0.18181800000002113,"midi":35,"time":273.454272,"velocity":0.3858267716535433},{"duration":0.18181800000002113,"midi":36,"time":273.454272,"velocity":0.3858267716535433},{"duration":0.18181800000002113,"midi":37,"time":273.817908,"velocity":0.3858267716535433},{"duration":0.18181800000002113,"midi":39,"time":273.817908,"velocity":0.3858267716535433},{"duration":0.18181800000002113,"midi":40,"time":273.817908,"velocity":0.3858267716535433},{"duration":0.18181799999996429,"midi":35,"time":274.18154400000003,"velocity":0.3858267716535433},{"duration":0.18181799999996429,"midi":36,"time":274.18154400000003,"velocity":0.3858267716535433},{"duration":0.18181800000002113,"midi":37,"time":274.54518,"velocity":0.3858267716535433},{"duration":0.18181800000002113,"midi":39,"time":274.54518,"velocity":0.3858267716535433},{"duration":0.18181800000002113,"midi":40,"time":274.54518,"velocity":0.3858267716535433},{"duration":0.18181800000002113,"midi":36,"time":274.908816,"velocity":0.3858267716535433},{"duration":0.18181800000002113,"midi":35,"time":274.908816,"velocity":0.3858267716535433},{"duration":0.18181800000002113,"midi":37,"time":275.272452,"velocity":0.3858267716535433},{"duration":0.18181800000002113,"midi":39,"time":275.272452,"velocity":0.3858267716535433},{"duration":0.18181800000002113,"midi":40,"time":275.272452,"velocity":0.3858267716535433},{"duration":0.18181799999996429,"midi":35,"time":275.63608800000003,"velocity":0.3858267716535433},{"duration":0.18181799999996429,"midi":36,"time":275.63608800000003,"velocity":0.3858267716535433},{"duration":0.18181800000002113,"midi":37,"time":275.999724,"velocity":0.3858267716535433},{"duration":0.18181800000002113,"midi":39,"time":275.999724,"velocity":0.3858267716535433},{"duration":0.18181800000002113,"midi":40,"time":275.999724,"velocity":0.3858267716535433},{"duration":0.18181800000002113,"midi":35,"time":276.36336,"velocity":0.3858267716535433},{"duration":0.18181800000002113,"midi":36,"time":276.36336,"velocity":0.3858267716535433},{"duration":0.18181800000002113,"midi":39,"time":276.726996,"velocity":0.3858267716535433},{"duration":0.18181800000002113,"midi":37,"time":276.726996,"velocity":0.3858267716535433},{"duration":0.18181800000002113,"midi":40,"time":276.726996,"velocity":0.3858267716535433},{"duration":0.18181799999996429,"midi":36,"time":277.090632,"velocity":0.3858267716535433},{"duration":0.18181799999996429,"midi":35,"time":277.090632,"velocity":0.3858267716535433},{"duration":0.18181800000002113,"midi":40,"time":277.454268,"velocity":0.3858267716535433},{"duration":0.18181800000002113,"midi":37,"time":277.454268,"velocity":0.3858267716535433},{"duration":0.18181800000002113,"midi":39,"time":277.454268,"velocity":0.3858267716535433},{"duration":0.18181800000002113,"midi":36,"time":277.817904,"velocity":0.3858267716535433},{"duration":0.18181800000002113,"midi":35,"time":277.817904,"velocity":0.3858267716535433},{"duration":0.18181800000002113,"midi":37,"time":278.18154,"velocity":0.3858267716535433},{"duration":0.18181800000002113,"midi":40,"time":278.18154,"velocity":0.3858267716535433},{"duration":0.18181800000002113,"midi":39,"time":278.18154,"velocity":0.3858267716535433},{"duration":0.18181799999996429,"midi":36,"time":278.545176,"velocity":0.3858267716535433},{"duration":0.18181799999996429,"midi":35,"time":278.545176,"velocity":0.3858267716535433},{"duration":0.18181800000002113,"midi":37,"time":278.908812,"velocity":0.3858267716535433},{"duration":0.18181800000002113,"midi":40,"time":278.908812,"velocity":0.3858267716535433},{"duration":0.18181800000002113,"midi":39,"time":278.908812,"velocity":0.3858267716535433},{"duration":0.18181800000002113,"midi":36,"time":279.272448,"velocity":0.3858267716535433},{"duration":0.18181800000002113,"midi":35,"time":279.272448,"velocity":0.3858267716535433},{"duration":0.18181799999996429,"midi":40,"time":279.63608400000004,"velocity":0.3858267716535433},{"duration":0.18181799999996429,"midi":39,"time":279.63608400000004,"velocity":0.3858267716535433},{"duration":0.18181799999996429,"midi":37,"time":279.63608400000004,"velocity":0.3858267716535433},{"duration":0.18181799999996429,"midi":36,"time":279.99972,"velocity":0.3858267716535433},{"duration":0.18181799999996429,"midi":35,"time":279.99972,"velocity":0.3858267716535433},{"duration":0.18181800000002113,"midi":39,"time":280.363356,"velocity":0.3858267716535433},{"duration":0.18181800000002113,"midi":40,"time":280.363356,"velocity":0.3858267716535433},{"duration":0.18181800000002113,"midi":37,"time":280.363356,"velocity":0.3858267716535433},{"duration":0.18181800000002113,"midi":36,"time":280.726992,"velocity":0.3858267716535433},{"duration":0.18181800000002113,"midi":35,"time":280.726992,"velocity":0.3858267716535433},{"duration":0.18181799999996429,"midi":39,"time":281.09062800000004,"velocity":0.3858267716535433},{"duration":0.18181799999996429,"midi":40,"time":281.09062800000004,"velocity":0.3858267716535433},{"duration":0.18181799999996429,"midi":37,"time":281.09062800000004,"velocity":0.3858267716535433},{"duration":0.18181799999996429,"midi":36,"time":281.454264,"velocity":0.3858267716535433},{"duration":0.18181799999996429,"midi":35,"time":281.454264,"velocity":0.3858267716535433},{"duration":0.18181800000002113,"midi":39,"time":281.8179,"velocity":0.3858267716535433},{"duration":0.18181800000002113,"midi":40,"time":281.8179,"velocity":0.3858267716535433},{"duration":0.18181800000002113,"midi":37,"time":281.8179,"velocity":0.3858267716535433},{"duration":0.18181800000002113,"midi":35,"time":282.181536,"velocity":0.3858267716535433},{"duration":0.18181800000002113,"midi":36,"time":282.181536,"velocity":0.3858267716535433},{"duration":0.18181799999996429,"midi":40,"time":282.54517200000004,"velocity":0.3858267716535433},{"duration":0.18181799999996429,"midi":39,"time":282.54517200000004,"velocity":0.3858267716535433},{"duration":0.18181799999996429,"midi":37,"time":282.54517200000004,"velocity":0.3858267716535433},{"duration":0.18181799999996429,"midi":35,"time":282.908808,"velocity":0.3858267716535433},{"duration":0.18181799999996429,"midi":36,"time":282.908808,"velocity":0.3858267716535433},{"duration":0.18181800000002113,"midi":40,"time":283.272444,"velocity":0.3858267716535433},{"duration":0.18181800000002113,"midi":37,"time":283.272444,"velocity":0.3858267716535433},{"duration":0.18181800000002113,"midi":39,"time":283.272444,"velocity":0.3858267716535433},{"duration":0.18181800000002113,"midi":36,"time":283.63608,"velocity":0.3858267716535433},{"duration":0.18181800000002113,"midi":35,"time":283.63608,"velocity":0.3858267716535433},{"duration":0.18181799999996429,"midi":39,"time":283.99971600000003,"velocity":0.3858267716535433},{"duration":0.18181799999996429,"midi":37,"time":283.99971600000003,"velocity":0.3858267716535433},{"duration":0.18181799999996429,"midi":40,"time":283.99971600000003,"velocity":0.3858267716535433},{"duration":0.18181799999996429,"midi":36,"time":284.363352,"velocity":0.3858267716535433},{"duration":0.18181799999996429,"midi":35,"time":284.363352,"velocity":0.3858267716535433},{"duration":0.18181800000002113,"midi":37,"time":284.726988,"velocity":0.3858267716535433},{"duration":0.18181800000002113,"midi":40,"time":284.726988,"velocity":0.3858267716535433},{"duration":0.18181800000002113,"midi":39,"time":284.726988,"velocity":0.3858267716535433},{"duration":0.18181800000002113,"midi":35,"time":285.090624,"velocity":0.3858267716535433},{"duration":0.18181800000002113,"midi":36,"time":285.090624,"velocity":0.3858267716535433},{"duration":0.18181799999996429,"midi":37,"time":285.45426000000003,"velocity":0.3858267716535433},{"duration":0.18181799999996429,"midi":39,"time":285.45426000000003,"velocity":0.3858267716535433},{"duration":0.18181799999996429,"midi":40,"time":285.45426000000003,"velocity":0.3858267716535433},{"duration":0.18181800000002113,"midi":36,"time":285.817896,"velocity":0.3858267716535433},{"duration":0.18181800000002113,"midi":35,"time":285.817896,"velocity":0.3858267716535433},{"duration":0.18181800000002113,"midi":37,"time":286.181532,"velocity":0.3858267716535433},{"duration":0.18181800000002113,"midi":40,"time":286.181532,"velocity":0.3858267716535433},{"duration":0.18181800000002113,"midi":39,"time":286.181532,"velocity":0.3858267716535433},{"duration":0.18181800000002113,"midi":35,"time":286.545168,"velocity":0.3858267716535433},{"duration":0.18181800000002113,"midi":36,"time":286.545168,"velocity":0.3858267716535433},{"duration":0.18181799999996429,"midi":39,"time":286.90880400000003,"velocity":0.3858267716535433},{"duration":0.18181799999996429,"midi":40,"time":286.90880400000003,"velocity":0.3858267716535433},{"duration":0.18181799999996429,"midi":37,"time":286.90880400000003,"velocity":0.3858267716535433},{"duration":0.18181800000002113,"midi":35,"time":287.27244,"velocity":0.3858267716535433},{"duration":0.18181800000002113,"midi":36,"time":287.27244,"velocity":0.3858267716535433},{"duration":0.18181800000002113,"midi":37,"time":287.636076,"velocity":0.3858267716535433},{"duration":0.18181800000002113,"midi":39,"time":287.636076,"velocity":0.3858267716535433},{"duration":0.18181800000002113,"midi":40,"time":287.636076,"velocity":0.3858267716535433},{"duration":0.18181800000002113,"midi":36,"time":287.999712,"velocity":0.3858267716535433},{"duration":0.18181800000002113,"midi":35,"time":287.999712,"velocity":0.3858267716535433},{"duration":0.18181799999996429,"midi":37,"time":288.36334800000003,"velocity":0.3858267716535433},{"duration":0.18181799999996429,"midi":40,"time":288.36334800000003,"velocity":0.3858267716535433},{"duration":0.18181799999996429,"midi":39,"time":288.36334800000003,"velocity":0.3858267716535433},{"duration":0.18181800000002113,"midi":35,"time":288.726984,"velocity":0.3858267716535433},{"duration":0.18181800000002113,"midi":36,"time":288.726984,"velocity":0.3858267716535433},{"duration":0.18181800000002113,"midi":37,"time":289.09062,"velocity":0.3858267716535433},{"duration":0.18181800000002113,"midi":40,"time":289.09062,"velocity":0.3858267716535433},{"duration":0.18181800000002113,"midi":39,"time":289.09062,"velocity":0.3858267716535433},{"duration":0.18181800000002113,"midi":36,"time":289.454256,"velocity":0.3858267716535433},{"duration":0.18181800000002113,"midi":35,"time":289.454256,"velocity":0.3858267716535433},{"duration":0.18181799999996429,"midi":39,"time":289.81789200000003,"velocity":0.3858267716535433},{"duration":0.18181799999996429,"midi":40,"time":289.81789200000003,"velocity":0.3858267716535433},{"duration":0.18181799999996429,"midi":37,"time":289.81789200000003,"velocity":0.3858267716535433},{"duration":0.18181800000002113,"midi":35,"time":290.181528,"velocity":0.3858267716535433},{"duration":0.18181800000002113,"midi":36,"time":290.181528,"velocity":0.3858267716535433},{"duration":0.18181800000002113,"midi":39,"time":290.545164,"velocity":0.3858267716535433},{"duration":0.18181800000002113,"midi":37,"time":290.545164,"velocity":0.3858267716535433},{"duration":0.18181800000002113,"midi":40,"time":290.545164,"velocity":0.3858267716535433},{"duration":0.18181800000002113,"midi":35,"time":290.9088,"velocity":0.3858267716535433},{"duration":0.18181800000002113,"midi":36,"time":290.9088,"velocity":0.3858267716535433},{"duration":0.18181799999996429,"midi":39,"time":291.272436,"velocity":0.3858267716535433},{"duration":0.18181799999996429,"midi":40,"time":291.272436,"velocity":0.3858267716535433},{"duration":0.18181799999996429,"midi":37,"time":291.272436,"velocity":0.3858267716535433},{"duration":0.18181800000002113,"midi":35,"time":291.636072,"velocity":0.3858267716535433},{"duration":0.18181800000002113,"midi":36,"time":291.636072,"velocity":0.3858267716535433},{"duration":0.18181800000002113,"midi":40,"time":291.999708,"velocity":0.3858267716535433},{"duration":0.18181800000002113,"midi":37,"time":291.999708,"velocity":0.3858267716535433},{"duration":0.18181800000002113,"midi":39,"time":291.999708,"velocity":0.3858267716535433},{"duration":0.18181800000002113,"midi":35,"time":292.363344,"velocity":0.3858267716535433},{"duration":0.18181800000002113,"midi":36,"time":292.363344,"velocity":0.3858267716535433},{"duration":0.18181799999996429,"midi":40,"time":292.72698,"velocity":0.3858267716535433},{"duration":0.18181799999996429,"midi":37,"time":292.72698,"velocity":0.3858267716535433},{"duration":0.18181799999996429,"midi":39,"time":292.72698,"velocity":0.3858267716535433},{"duration":0.18181800000002113,"midi":36,"time":293.090616,"velocity":0.3858267716535433},{"duration":0.18181800000002113,"midi":35,"time":293.090616,"velocity":0.3858267716535433},{"duration":0.18181800000002113,"midi":37,"time":293.454252,"velocity":0.3858267716535433},{"duration":0.18181800000002113,"midi":40,"time":293.454252,"velocity":0.3858267716535433},{"duration":0.18181800000002113,"midi":39,"time":293.454252,"velocity":0.3858267716535433},{"duration":0.18181799999996429,"midi":36,"time":293.81788800000004,"velocity":0.3858267716535433},{"duration":0.18181799999996429,"midi":35,"time":293.81788800000004,"velocity":0.3858267716535433},{"duration":0.18181799999996429,"midi":39,"time":294.181524,"velocity":0.3858267716535433},{"duration":0.18181799999996429,"midi":40,"time":294.181524,"velocity":0.3858267716535433},{"duration":0.18181799999996429,"midi":37,"time":294.181524,"velocity":0.3858267716535433},{"duration":0.18181800000002113,"midi":35,"time":294.54516,"velocity":0.3858267716535433},{"duration":0.18181800000002113,"midi":36,"time":294.54516,"velocity":0.3858267716535433},{"duration":0.18181800000002113,"midi":39,"time":294.908796,"velocity":0.3858267716535433},{"duration":0.18181800000002113,"midi":37,"time":294.908796,"velocity":0.3858267716535433},{"duration":0.18181800000002113,"midi":40,"time":294.908796,"velocity":0.3858267716535433},{"duration":0.18181799999996429,"midi":35,"time":295.27243200000004,"velocity":0.3858267716535433},{"duration":0.18181799999996429,"midi":36,"time":295.27243200000004,"velocity":0.3858267716535433},{"duration":0.18181799999996429,"midi":39,"time":295.636068,"velocity":0.3858267716535433},{"duration":0.18181799999996429,"midi":40,"time":295.636068,"velocity":0.3858267716535433},{"duration":0.18181799999996429,"midi":37,"time":295.636068,"velocity":0.3858267716535433},{"duration":0.18181800000002113,"midi":35,"time":295.999704,"velocity":0.3858267716535433},{"duration":0.18181800000002113,"midi":36,"time":295.999704,"velocity":0.3858267716535433},{"duration":0.18181800000002113,"midi":39,"time":296.36334,"velocity":0.3858267716535433},{"duration":0.18181800000002113,"midi":40,"time":296.36334,"velocity":0.3858267716535433},{"duration":0.18181800000002113,"midi":37,"time":296.36334,"velocity":0.3858267716535433},{"duration":0.18181799999996429,"midi":36,"time":296.72697600000004,"velocity":0.3858267716535433},{"duration":0.18181799999996429,"midi":35,"time":296.72697600000004,"velocity":0.3858267716535433},{"duration":0.18181799999996429,"midi":40,"time":297.090612,"velocity":0.3858267716535433},{"duration":0.18181799999996429,"midi":37,"time":297.090612,"velocity":0.3858267716535433},{"duration":0.18181799999996429,"midi":39,"time":297.090612,"velocity":0.3858267716535433},{"duration":0.18181800000002113,"midi":36,"time":297.454248,"velocity":0.3858267716535433},{"duration":0.18181800000002113,"midi":35,"time":297.454248,"velocity":0.3858267716535433},{"duration":0.18181800000002113,"midi":40,"time":297.817884,"velocity":0.3858267716535433},{"duration":0.18181800000002113,"midi":39,"time":297.817884,"velocity":0.3858267716535433},{"duration":0.18181800000002113,"midi":37,"time":297.817884,"velocity":0.3858267716535433},{"duration":0.18181799999996429,"midi":35,"time":298.18152000000003,"velocity":0.3858267716535433},{"duration":0.18181799999996429,"midi":36,"time":298.18152000000003,"velocity":0.3858267716535433},{"duration":0.18181799999996429,"midi":40,"time":298.545156,"velocity":0.3858267716535433},{"duration":0.18181799999996429,"midi":39,"time":298.545156,"velocity":0.3858267716535433},{"duration":0.18181799999996429,"midi":37,"time":298.545156,"velocity":0.3858267716535433},{"duration":0.18181800000002113,"midi":35,"time":298.908792,"velocity":0.3858267716535433},{"duration":0.18181800000002113,"midi":36,"time":298.908792,"velocity":0.3858267716535433},{"duration":0.18181800000002113,"midi":39,"time":299.272428,"velocity":0.3858267716535433},{"duration":0.18181800000002113,"midi":37,"time":299.272428,"velocity":0.3858267716535433},{"duration":0.18181800000002113,"midi":40,"time":299.272428,"velocity":0.3858267716535433},{"duration":0.18181799999996429,"midi":36,"time":299.63606400000003,"velocity":0.3858267716535433},{"duration":0.18181799999996429,"midi":35,"time":299.63606400000003,"velocity":0.3858267716535433},{"duration":0.18181800000002113,"midi":37,"time":299.9997,"velocity":0.3858267716535433},{"duration":0.18181800000002113,"midi":39,"time":299.9997,"velocity":0.3858267716535433},{"duration":0.18181800000002113,"midi":40,"time":299.9997,"velocity":0.3858267716535433},{"duration":0.18181800000002113,"midi":35,"time":300.363336,"velocity":0.3858267716535433},{"duration":0.18181800000002113,"midi":36,"time":300.363336,"velocity":0.3858267716535433},{"duration":0.18181800000002113,"midi":37,"time":300.726972,"velocity":0.3858267716535433},{"duration":0.18181800000002113,"midi":40,"time":300.726972,"velocity":0.3858267716535433},{"duration":0.18181800000002113,"midi":39,"time":300.726972,"velocity":0.3858267716535433},{"duration":0.18181799999996429,"midi":35,"time":301.09060800000003,"velocity":0.3858267716535433},{"duration":0.18181799999996429,"midi":36,"time":301.09060800000003,"velocity":0.3858267716535433},{"duration":0.18181800000002113,"midi":37,"time":301.454244,"velocity":0.3858267716535433},{"duration":0.18181800000002113,"midi":40,"time":301.454244,"velocity":0.3858267716535433},{"duration":0.18181800000002113,"midi":39,"time":301.454244,"velocity":0.3858267716535433},{"duration":0.18181800000002113,"midi":35,"time":301.81788,"velocity":0.3858267716535433},{"duration":0.18181800000002113,"midi":36,"time":301.81788,"velocity":0.3858267716535433},{"duration":0.18181800000002113,"midi":37,"time":302.181516,"velocity":0.3858267716535433},{"duration":0.18181800000002113,"midi":40,"time":302.181516,"velocity":0.3858267716535433},{"duration":0.18181800000002113,"midi":39,"time":302.181516,"velocity":0.3858267716535433}]},{"instrument":{"family":"piano","number":0,"name":"acoustic grand piano"},"notes":[{"duration":0.09090899999999635,"midi":69,"time":93.090816,"velocity":0.3937007874015748},{"duration":0.09090899999999635,"midi":70,"time":93.27263400000001,"velocity":0.3937007874015748},{"duration":0.09090899999999635,"midi":74,"time":93.454452,"velocity":0.3937007874015748},{"duration":0.09090899999999635,"midi":70,"time":93.63627000000001,"velocity":0.3937007874015748},{"duration":0.09090899999999635,"midi":69,"time":93.818088,"velocity":0.3937007874015748},{"duration":0.09090899999999635,"midi":70,"time":93.99990600000001,"velocity":0.3937007874015748},{"duration":0.09090899999999635,"midi":74,"time":94.181724,"velocity":0.3937007874015748},{"duration":0.09090899999999635,"midi":70,"time":94.36354200000001,"velocity":0.3937007874015748},{"duration":0.09090899999999635,"midi":69,"time":94.54536,"velocity":0.3937007874015748},{"duration":0.09090899999999635,"midi":70,"time":94.72717800000001,"velocity":0.3937007874015748},{"duration":0.09090899999999635,"midi":74,"time":94.908996,"velocity":0.3937007874015748},{"duration":0.09090899999999635,"midi":70,"time":95.09081400000001,"velocity":0.3937007874015748},{"duration":0.09090899999999635,"midi":69,"time":95.272632,"velocity":0.3937007874015748},{"duration":0.09090899999999635,"midi":70,"time":95.45445000000001,"velocity":0.3937007874015748},{"duration":0.09090899999999635,"midi":74,"time":95.636268,"velocity":0.3937007874015748},{"duration":0.09090899999999635,"midi":70,"time":95.81808600000001,"velocity":0.3937007874015748},{"duration":0.09090899999999635,"midi":65,"time":95.999904,"velocity":0.3937007874015748},{"duration":0.09090899999999635,"midi":69,"time":96.18172200000001,"velocity":0.3937007874015748},{"duration":0.09090900000001056,"midi":72,"time":96.36354,"velocity":0.3937007874015748},{"duration":0.09090899999999635,"midi":69,"time":96.54535800000001,"velocity":0.3937007874015748},{"duration":0.09090900000001056,"midi":65,"time":96.727176,"velocity":0.3937007874015748},{"duration":0.09090899999999635,"midi":69,"time":96.908994,"velocity":0.3937007874015748},{"duration":0.09090900000001056,"midi":72,"time":97.090812,"velocity":0.3937007874015748},{"duration":0.09090899999999635,"midi":69,"time":97.27263,"velocity":0.3937007874015748},{"duration":0.09090900000001056,"midi":67,"time":97.454448,"velocity":0.3937007874015748},{"duration":0.09090899999999635,"midi":70,"time":97.636266,"velocity":0.3937007874015748},{"duration":0.09090900000001056,"midi":74,"time":97.818084,"velocity":0.3937007874015748},{"duration":0.09090899999999635,"midi":70,"time":97.999902,"velocity":0.3937007874015748},{"duration":0.09090900000001056,"midi":67,"time":98.18172,"velocity":0.3937007874015748},{"duration":0.09090899999999635,"midi":70,"time":98.363538,"velocity":0.3937007874015748},{"duration":0.09090900000001056,"midi":74,"time":98.545356,"velocity":0.3937007874015748},{"duration":0.09090899999999635,"midi":70,"time":98.727174,"velocity":0.3937007874015748},{"duration":0.09090900000001056,"midi":69,"time":98.908992,"velocity":0.3937007874015748},{"duration":0.09090899999999635,"midi":70,"time":99.09081,"velocity":0.3937007874015748},{"duration":0.09090900000001056,"midi":74,"time":99.272628,"velocity":0.3937007874015748},{"duration":0.09090899999999635,"midi":70,"time":99.454446,"velocity":0.3937007874015748},{"duration":0.09090900000001056,"midi":69,"time":99.636264,"velocity":0.3937007874015748},{"duration":0.09090899999999635,"midi":70,"time":99.818082,"velocity":0.3937007874015748},{"duration":0.09090899999999635,"midi":74,"time":99.99990000000001,"velocity":0.3937007874015748},{"duration":0.09090899999999635,"midi":70,"time":100.181718,"velocity":0.3937007874015748},{"duration":0.09090899999999635,"midi":69,"time":100.36353600000001,"velocity":0.3937007874015748},{"duration":0.09090899999999635,"midi":70,"time":100.545354,"velocity":0.3937007874015748},{"duration":0.09090899999999635,"midi":74,"time":100.72717200000001,"velocity":0.3937007874015748},{"duration":0.09090899999999635,"midi":70,"time":100.90899,"velocity":0.3937007874015748},{"duration":0.09090899999999635,"midi":69,"time":101.09080800000001,"velocity":0.3937007874015748},{"duration":0.09090899999999635,"midi":70,"time":101.272626,"velocity":0.3937007874015748},{"duration":0.09090899999999635,"midi":74,"time":101.45444400000001,"velocity":0.3937007874015748},{"duration":0.09090899999999635,"midi":70,"time":101.636262,"velocity":0.3937007874015748},{"duration":0.09090899999999635,"midi":65,"time":101.81808000000001,"velocity":0.3937007874015748},{"duration":0.09090899999999635,"midi":69,"time":101.999898,"velocity":0.3937007874015748},{"duration":0.09090899999999635,"midi":72,"time":102.18171600000001,"velocity":0.3937007874015748},{"duration":0.09090899999999635,"midi":69,"time":102.363534,"velocity":0.3937007874015748},{"duration":0.09090899999999635,"midi":65,"time":102.54535200000001,"velocity":0.3937007874015748},{"duration":0.09090899999999635,"midi":69,"time":102.72717,"velocity":0.3937007874015748},{"duration":0.09090899999999635,"midi":72,"time":102.90898800000001,"velocity":0.3937007874015748},{"duration":0.09090900000001056,"midi":69,"time":103.090806,"velocity":0.3937007874015748},{"duration":0.09090899999999635,"midi":67,"time":103.27262400000001,"velocity":0.3937007874015748},{"duration":0.09090900000001056,"midi":70,"time":103.454442,"velocity":0.3937007874015748},{"duration":0.09090899999999635,"midi":74,"time":103.63626000000001,"velocity":0.3937007874015748},{"duration":0.09090900000001056,"midi":70,"time":103.818078,"velocity":0.3937007874015748},{"duration":0.09090899999999635,"midi":67,"time":103.999896,"velocity":0.3937007874015748},{"duration":0.09090900000001056,"midi":70,"time":104.181714,"velocity":0.3937007874015748},{"duration":0.09090899999999635,"midi":74,"time":104.363532,"velocity":0.3937007874015748},{"duration":0.09090900000001056,"midi":70,"time":104.54535,"velocity":0.3937007874015748},{"duration":0.09090899999999635,"midi":74,"time":104.727168,"velocity":0.3937007874015748},{"duration":0.09090900000001056,"midi":74,"time":221.090688,"velocity":0.3937007874015748}]},{"instrument":{"family":"drums","number":0,"name":"standard kit"},"notes":[{"duration":0.04545449999999995,"midi":0,"time":11.636352,"velocity":0.3937007874015748},{"duration":0.04545449999999995,"midi":0,"time":11.999988,"velocity":0.3937007874015748},{"duration":0.04545449999999995,"midi":0,"time":12.363624,"velocity":0.3937007874015748},{"duration":0.04545449999999995,"midi":0,"time":12.727260000000001,"velocity":0.3937007874015748},{"duration":0.04545449999999995,"midi":0,"time":13.090896,"velocity":0.3937007874015748},{"duration":0.04545449999999995,"midi":0,"time":13.454532,"velocity":0.3937007874015748},{"duration":0.04545449999999995,"midi":0,"time":13.818168,"velocity":0.3937007874015748},{"duration":0.04545449999999995,"midi":0,"time":14.181804000000001,"velocity":0.3937007874015748},{"duration":0.04545449999999995,"midi":0,"time":14.545440000000001,"velocity":0.3937007874015748},{"duration":0.04545449999999995,"midi":0,"time":14.909076,"velocity":0.3937007874015748},{"duration":0.04545449999999995,"midi":0,"time":15.272712,"velocity":0.3937007874015748},{"duration":0.04545449999999995,"midi":0,"time":15.636348,"velocity":0.3937007874015748},{"duration":0.04545449999999818,"midi":0,"time":15.999984000000001,"velocity":0.3937007874015748},{"duration":0.04545449999999818,"midi":0,"time":16.36362,"velocity":0.3937007874015748},{"duration":0.04545450000000173,"midi":0,"time":16.727256,"velocity":0.3937007874015748},{"duration":0.04545450000000173,"midi":0,"time":17.090892,"velocity":0.3937007874015748},{"duration":0.04545450000000173,"midi":0,"time":17.454528,"velocity":0.3937007874015748},{"duration":0.04545450000000173,"midi":0,"time":17.818164,"velocity":0.3937007874015748},{"duration":0.04545450000000173,"midi":0,"time":18.1818,"velocity":0.3937007874015748},{"duration":0.04545449999999818,"midi":0,"time":18.545436000000002,"velocity":0.3937007874015748},{"duration":0.04545449999999818,"midi":0,"time":18.909072000000002,"velocity":0.3937007874015748},{"duration":0.04545449999999818,"midi":0,"time":19.272708,"velocity":0.3937007874015748},{"duration":0.04545449999999818,"midi":0,"time":19.636344,"velocity":0.3937007874015748},{"duration":0.04545450000000173,"midi":0,"time":19.99998,"velocity":0.3937007874015748},{"duration":0.04545450000000173,"midi":0,"time":20.363616,"velocity":0.3937007874015748},{"duration":0.04545450000000173,"midi":0,"time":20.727252,"velocity":0.3937007874015748},{"duration":0.04545450000000173,"midi":0,"time":21.090888,"velocity":0.3937007874015748},{"duration":0.04545450000000173,"midi":0,"time":21.454524,"velocity":0.3937007874015748},{"duration":0.04545449999999818,"midi":0,"time":21.818160000000002,"velocity":0.3937007874015748},{"duration":0.04545449999999818,"midi":0,"time":22.181796000000002,"velocity":0.3937007874015748},{"duration":0.04545449999999818,"midi":0,"time":22.545432,"velocity":0.3937007874015748},{"duration":0.04545449999999818,"midi":0,"time":22.909068,"velocity":0.3937007874015748},{"duration":0.04545450000000528,"midi":0,"time":34.909056,"velocity":0.3937007874015748},{"duration":0.09090900000000346,"midi":0,"time":34.909056,"velocity":0.3937007874015748},{"duration":0.04545450000000528,"midi":0,"time":35.272692,"velocity":0.3937007874015748},{"duration":0.04545450000000528,"midi":0,"time":35.636328,"velocity":0.3937007874015748},{"duration":0.04545450000000528,"midi":0,"time":35.999964,"velocity":0.3937007874015748},{"duration":0.04545450000000528,"midi":0,"time":36.3636,"velocity":0.3937007874015748},{"duration":0.09090900000000346,"midi":0,"time":36.3636,"velocity":0.3937007874015748},{"duration":0.04545449999999818,"midi":0,"time":36.727236000000005,"velocity":0.3937007874015748},{"duration":0.04545449999999818,"midi":0,"time":37.090872000000005,"velocity":0.3937007874015748},{"duration":0.04545449999999818,"midi":0,"time":37.454508000000004,"velocity":0.3937007874015748},{"duration":0.04545449999999818,"midi":0,"time":37.818144000000004,"velocity":0.3937007874015748},{"duration":0.09090899999999635,"midi":0,"time":37.818144000000004,"velocity":0.3937007874015748},{"duration":0.04545449999999818,"midi":0,"time":38.18178,"velocity":0.3937007874015748},{"duration":0.04545449999999818,"midi":0,"time":38.545416,"velocity":0.3937007874015748},{"duration":0.04545449999999818,"midi":0,"time":38.909052,"velocity":0.3937007874015748},{"duration":0.04545449999999818,"midi":0,"time":39.272688,"velocity":0.3937007874015748},{"duration":0.09090899999999635,"midi":0,"time":39.272688,"velocity":0.3937007874015748},{"duration":0.04545449999999818,"midi":0,"time":39.636324,"velocity":0.3937007874015748},{"duration":0.04545449999999818,"midi":0,"time":39.99996,"velocity":0.3937007874015748},{"duration":0.04545449999999818,"midi":0,"time":40.363596,"velocity":0.3937007874015748},{"duration":0.04545449999999818,"midi":0,"time":40.727232,"velocity":0.3937007874015748},{"duration":0.09090900000000346,"midi":0,"time":40.727232,"velocity":0.3937007874015748},{"duration":0.04545449999999818,"midi":0,"time":41.090868,"velocity":0.3937007874015748},{"duration":0.04545449999999818,"midi":0,"time":41.454504,"velocity":0.3937007874015748},{"duration":0.04545450000000528,"midi":0,"time":41.81814,"velocity":0.3937007874015748},{"duration":0.04545450000000528,"midi":0,"time":42.181776,"velocity":0.3937007874015748},{"duration":0.09090900000000346,"midi":0,"time":42.181776,"velocity":0.3937007874015748},{"duration":0.04545450000000528,"midi":0,"time":42.545412,"velocity":0.3937007874015748},{"duration":0.04545450000000528,"midi":0,"time":42.909048,"velocity":0.3937007874015748},{"duration":0.04545449999999818,"midi":0,"time":43.272684000000005,"velocity":0.3937007874015748},{"duration":0.04545449999999818,"midi":0,"time":43.636320000000005,"velocity":0.3937007874015748},{"duration":0.09090899999999635,"midi":0,"time":43.636320000000005,"velocity":0.3937007874015748},{"duration":0.04545449999999818,"midi":0,"time":43.999956000000005,"velocity":0.3937007874015748},{"duration":0.04545449999999818,"midi":0,"time":44.363592000000004,"velocity":0.3937007874015748},{"duration":0.04545449999999818,"midi":0,"time":44.727228000000004,"velocity":0.3937007874015748},{"duration":0.04545449999999818,"midi":0,"time":45.090864,"velocity":0.3937007874015748},{"duration":0.09090899999999635,"midi":0,"time":45.090864,"velocity":0.3937007874015748},{"duration":0.04545449999999818,"midi":0,"time":45.4545,"velocity":0.3937007874015748},{"duration":0.04545449999999818,"midi":0,"time":45.818136,"velocity":0.3937007874015748},{"duration":0.04545449999999818,"midi":0,"time":46.181772,"velocity":0.3937007874015748},{"duration":0.18181800000000692,"midi":0,"time":69.818112,"velocity":0.3937007874015748},{"duration":0.18181800000000692,"midi":0,"time":70.545384,"velocity":0.3937007874015748},{"duration":0.18181800000000692,"midi":0,"time":71.272656,"velocity":0.3937007874015748},{"duration":0.18181800000000692,"midi":0,"time":71.999928,"velocity":0.3937007874015748},{"duration":0.18181800000000692,"midi":0,"time":72.7272,"velocity":0.3937007874015748},{"duration":0.1818179999999927,"midi":0,"time":73.45447200000001,"velocity":0.3937007874015748},{"duration":0.1818179999999927,"midi":0,"time":74.18174400000001,"velocity":0.3937007874015748},{"duration":0.1818179999999927,"midi":0,"time":74.90901600000001,"velocity":0.3937007874015748},{"duration":0.1818179999999927,"midi":0,"time":75.63628800000001,"velocity":0.3937007874015748},{"duration":0.1818179999999927,"midi":0,"time":76.36356,"velocity":0.3937007874015748},{"duration":0.1818179999999927,"midi":0,"time":77.090832,"velocity":0.3937007874015748},{"duration":0.1818179999999927,"midi":0,"time":77.818104,"velocity":0.3937007874015748},{"duration":0.1818179999999927,"midi":0,"time":78.545376,"velocity":0.3937007874015748},{"duration":0.1818179999999927,"midi":0,"time":79.272648,"velocity":0.3937007874015748},{"duration":0.18181800000000692,"midi":0,"time":79.99992,"velocity":0.3937007874015748},{"duration":0.18181800000000692,"midi":0,"time":80.727192,"velocity":0.3937007874015748},{"duration":0.18181800000000692,"midi":0,"time":81.454464,"velocity":0.3937007874015748},{"duration":0.18181800000000692,"midi":0,"time":82.181736,"velocity":0.3937007874015748},{"duration":0.18181800000000692,"midi":0,"time":82.909008,"velocity":0.3937007874015748},{"duration":0.18181800000000692,"midi":0,"time":83.63628,"velocity":0.3937007874015748},{"duration":0.18181800000000692,"midi":0,"time":84.363552,"velocity":0.3937007874015748},{"duration":0.18181800000000692,"midi":0,"time":85.090824,"velocity":0.3937007874015748},{"duration":0.18181800000000692,"midi":0,"time":85.818096,"velocity":0.3937007874015748},{"duration":0.1818179999999927,"midi":0,"time":86.54536800000001,"velocity":0.3937007874015748},{"duration":0.1818179999999927,"midi":0,"time":87.27264000000001,"velocity":0.3937007874015748},{"duration":0.1818179999999927,"midi":0,"time":87.99991200000001,"velocity":0.3937007874015748},{"duration":0.1818179999999927,"midi":0,"time":88.72718400000001,"velocity":0.3937007874015748},{"duration":0.1818179999999927,"midi":0,"time":89.45445600000001,"velocity":0.3937007874015748},{"duration":0.1818179999999927,"midi":0,"time":90.181728,"velocity":0.3937007874015748},{"duration":0.1818179999999927,"midi":0,"time":90.909,"velocity":0.3937007874015748},{"duration":0.1818179999999927,"midi":0,"time":91.636272,"velocity":0.3937007874015748},{"duration":0.1818179999999927,"midi":0,"time":92.363544,"velocity":0.3937007874015748},{"duration":0.18181800000000692,"midi":0,"time":93.090816,"velocity":0.3937007874015748},{"duration":0.18181800000000692,"midi":0,"time":93.454452,"velocity":0.3937007874015748},{"duration":0.18181800000000692,"midi":0,"time":93.818088,"velocity":0.3937007874015748},{"duration":0.18181800000000692,"midi":0,"time":94.181724,"velocity":0.3937007874015748},{"duration":0.18181800000000692,"midi":0,"time":94.54536,"velocity":0.3937007874015748},{"duration":0.18181800000000692,"midi":0,"time":94.908996,"velocity":0.3937007874015748},{"duration":0.18181800000000692,"midi":0,"time":95.272632,"velocity":0.3937007874015748},{"duration":0.18181800000000692,"midi":0,"time":95.636268,"velocity":0.3937007874015748},{"duration":0.18181800000000692,"midi":0,"time":95.999904,"velocity":0.3937007874015748},{"duration":0.18181800000000692,"midi":0,"time":96.36354,"velocity":0.3937007874015748},{"duration":0.18181800000000692,"midi":0,"time":96.727176,"velocity":0.3937007874015748},{"duration":0.18181800000000692,"midi":0,"time":97.090812,"velocity":0.3937007874015748},{"duration":0.18181800000000692,"midi":0,"time":97.454448,"velocity":0.3937007874015748},{"duration":0.18181800000000692,"midi":0,"time":97.818084,"velocity":0.3937007874015748},{"duration":0.18181800000000692,"midi":0,"time":98.18172,"velocity":0.3937007874015748},{"duration":0.18181800000000692,"midi":0,"time":98.545356,"velocity":0.3937007874015748},{"duration":0.18181800000000692,"midi":0,"time":98.908992,"velocity":0.3937007874015748},{"duration":0.18181800000000692,"midi":0,"time":99.272628,"velocity":0.3937007874015748},{"duration":0.18181800000000692,"midi":0,"time":99.636264,"velocity":0.3937007874015748},{"duration":0.1818179999999927,"midi":0,"time":99.99990000000001,"velocity":0.3937007874015748},{"duration":0.1818179999999927,"midi":0,"time":100.36353600000001,"velocity":0.3937007874015748},{"duration":0.1818179999999927,"midi":0,"time":100.72717200000001,"velocity":0.3937007874015748},{"duration":0.1818179999999927,"midi":0,"time":101.09080800000001,"velocity":0.3937007874015748},{"duration":0.1818179999999927,"midi":0,"time":101.45444400000001,"velocity":0.3937007874015748},{"duration":0.1818179999999927,"midi":0,"time":101.81808000000001,"velocity":0.3937007874015748},{"duration":0.1818179999999927,"midi":0,"time":102.18171600000001,"velocity":0.3937007874015748},{"duration":0.1818179999999927,"midi":0,"time":102.54535200000001,"velocity":0.3937007874015748},{"duration":0.1818179999999927,"midi":0,"time":102.90898800000001,"velocity":0.3937007874015748},{"duration":0.1818179999999927,"midi":0,"time":103.27262400000001,"velocity":0.3937007874015748},{"duration":0.1818179999999927,"midi":0,"time":103.63626000000001,"velocity":0.3937007874015748},{"duration":0.1818179999999927,"midi":0,"time":103.999896,"velocity":0.3937007874015748},{"duration":0.04545450000000528,"midi":0,"time":162.908928,"velocity":0.3937007874015748},{"duration":0.09090900000001056,"midi":0,"time":162.908928,"velocity":0.3937007874015748},{"duration":0.04545449999997686,"midi":0,"time":163.27256400000002,"velocity":0.3937007874015748},{"duration":0.04545450000000528,"midi":0,"time":163.6362,"velocity":0.3937007874015748},{"duration":0.04545449999997686,"midi":0,"time":163.99983600000002,"velocity":0.3937007874015748},{"duration":0.04545450000000528,"midi":0,"time":164.363472,"velocity":0.3937007874015748},{"duration":0.09090900000001056,"midi":0,"time":164.363472,"velocity":0.3937007874015748},{"duration":0.04545450000000528,"midi":0,"time":164.72710800000002,"velocity":0.3937007874015748},{"duration":0.04545450000000528,"midi":0,"time":165.090744,"velocity":0.3937007874015748},{"duration":0.04545450000000528,"midi":0,"time":165.45438000000001,"velocity":0.3937007874015748},{"duration":0.04545450000000528,"midi":0,"time":165.818016,"velocity":0.3937007874015748},{"duration":0.09090900000001056,"midi":0,"time":165.818016,"velocity":0.3937007874015748},{"duration":0.04545450000000528,"midi":0,"time":166.181652,"velocity":0.3937007874015748},{"duration":0.04545450000000528,"midi":0,"time":166.545288,"velocity":0.3937007874015748},{"duration":0.04545450000000528,"midi":0,"time":166.908924,"velocity":0.3937007874015748},{"duration":0.04545450000000528,"midi":0,"time":167.27256,"velocity":0.3937007874015748},{"duration":0.09090900000001056,"midi":0,"time":167.27256,"velocity":0.3937007874015748},{"duration":0.04545450000000528,"midi":0,"time":167.636196,"velocity":0.3937007874015748},{"duration":0.04545450000000528,"midi":0,"time":167.999832,"velocity":0.3937007874015748},{"duration":0.04545450000000528,"midi":0,"time":168.363468,"velocity":0.3937007874015748},{"duration":0.04545450000000528,"midi":0,"time":168.727104,"velocity":0.3937007874015748},{"duration":0.09090900000001056,"midi":0,"time":168.727104,"velocity":0.3937007874015748},{"duration":0.04545450000000528,"midi":0,"time":169.09074,"velocity":0.3937007874015748},{"duration":0.04545450000000528,"midi":0,"time":169.454376,"velocity":0.3937007874015748},{"duration":0.04545450000000528,"midi":0,"time":169.818012,"velocity":0.3937007874015748},{"duration":0.04545450000000528,"midi":0,"time":170.181648,"velocity":0.3937007874015748},{"duration":0.09090900000001056,"midi":0,"time":170.181648,"velocity":0.3937007874015748},{"duration":0.04545450000000528,"midi":0,"time":170.545284,"velocity":0.3937007874015748},{"duration":0.04545450000000528,"midi":0,"time":170.90892,"velocity":0.3937007874015748},{"duration":0.04545450000000528,"midi":0,"time":171.272556,"velocity":0.3937007874015748},{"duration":0.04545450000000528,"midi":0,"time":171.636192,"velocity":0.3937007874015748},{"duration":0.09090900000001056,"midi":0,"time":171.636192,"velocity":0.3937007874015748},{"duration":0.04545450000000528,"midi":0,"time":171.999828,"velocity":0.3937007874015748},{"duration":0.04545450000000528,"midi":0,"time":172.363464,"velocity":0.3937007874015748},{"duration":0.04545450000000528,"midi":0,"time":172.7271,"velocity":0.3937007874015748},{"duration":0.04545449999997686,"midi":0,"time":173.09073600000002,"velocity":0.3937007874015748},{"duration":0.09090899999998214,"midi":0,"time":173.09073600000002,"velocity":0.3937007874015748},{"duration":0.04545450000000528,"midi":0,"time":173.454372,"velocity":0.3937007874015748},{"duration":0.04545449999997686,"midi":0,"time":173.81800800000002,"velocity":0.3937007874015748},{"duration":0.04545450000000528,"midi":0,"time":174.181644,"velocity":0.3937007874015748},{"duration":0.1818179999999927,"midi":0,"time":186.54526800000002,"velocity":0.3937007874015748},{"duration":0.1818179999999927,"midi":0,"time":187.27254000000002,"velocity":0.3937007874015748},{"duration":0.1818179999999927,"midi":0,"time":187.99981200000002,"velocity":0.3937007874015748},{"duration":0.1818179999999927,"midi":0,"time":188.72708400000002,"velocity":0.3937007874015748},{"duration":0.1818179999999927,"midi":0,"time":189.45435600000002,"velocity":0.3937007874015748},{"duration":0.1818179999999927,"midi":0,"time":190.18162800000002,"velocity":0.3937007874015748},{"duration":0.1818179999999927,"midi":0,"time":190.90890000000002,"velocity":0.3937007874015748},{"duration":0.1818179999999927,"midi":0,"time":191.63617200000002,"velocity":0.3937007874015748},{"duration":0.1818179999999927,"midi":0,"time":192.36344400000002,"velocity":0.3937007874015748},{"duration":0.1818179999999927,"midi":0,"time":193.09071600000001,"velocity":0.3937007874015748},{"duration":0.1818179999999927,"midi":0,"time":193.817988,"velocity":0.3937007874015748},{"duration":0.1818179999999927,"midi":0,"time":194.54526,"velocity":0.3937007874015748},{"duration":0.1818179999999927,"midi":0,"time":195.272532,"velocity":0.3937007874015748},{"duration":0.1818179999999927,"midi":0,"time":195.999804,"velocity":0.3937007874015748},{"duration":0.1818179999999927,"midi":0,"time":196.727076,"velocity":0.3937007874015748},{"duration":0.1818179999999927,"midi":0,"time":197.454348,"velocity":0.3937007874015748},{"duration":0.1818179999999927,"midi":0,"time":198.18162,"velocity":0.3937007874015748},{"duration":0.1818179999999927,"midi":0,"time":198.908892,"velocity":0.3937007874015748},{"duration":0.1818179999999927,"midi":0,"time":199.636164,"velocity":0.3937007874015748},{"duration":0.1818179999999927,"midi":0,"time":200.363436,"velocity":0.3937007874015748},{"duration":0.1818179999999927,"midi":0,"time":201.090708,"velocity":0.3937007874015748},{"duration":0.1818179999999927,"midi":0,"time":201.81798,"velocity":0.3937007874015748},{"duration":0.1818179999999927,"midi":0,"time":202.545252,"velocity":0.3937007874015748},{"duration":0.1818179999999927,"midi":0,"time":203.272524,"velocity":0.3937007874015748},{"duration":0.1818179999999927,"midi":0,"time":203.999796,"velocity":0.3937007874015748},{"duration":0.1818179999999927,"midi":0,"time":204.727068,"velocity":0.3937007874015748},{"duration":0.1818179999999927,"midi":0,"time":205.45434,"velocity":0.3937007874015748},{"duration":0.18181800000002113,"midi":0,"time":206.181612,"velocity":0.3937007874015748},{"duration":0.18181800000002113,"midi":0,"time":206.908884,"velocity":0.3937007874015748},{"duration":0.18181800000002113,"midi":0,"time":207.636156,"velocity":0.3937007874015748},{"duration":0.18181800000002113,"midi":0,"time":208.363428,"velocity":0.3937007874015748},{"duration":0.18181800000002113,"midi":0,"time":209.0907,"velocity":0.3937007874015748},{"duration":0.1818179999999927,"midi":0,"time":209.454336,"velocity":0.3937007874015748},{"duration":0.18181800000002113,"midi":0,"time":209.817972,"velocity":0.3937007874015748},{"duration":0.1818179999999927,"midi":0,"time":210.181608,"velocity":0.3937007874015748},{"duration":0.18181800000002113,"midi":0,"time":210.545244,"velocity":0.3937007874015748},{"duration":0.1818179999999927,"midi":0,"time":210.90888,"velocity":0.3937007874015748},{"duration":0.18181800000002113,"midi":0,"time":211.272516,"velocity":0.3937007874015748},{"duration":0.1818179999999927,"midi":0,"time":211.636152,"velocity":0.3937007874015748},{"duration":0.18181800000002113,"midi":0,"time":211.999788,"velocity":0.3937007874015748},{"duration":0.1818179999999927,"midi":0,"time":212.363424,"velocity":0.3937007874015748},{"duration":0.18181800000002113,"midi":0,"time":212.72706,"velocity":0.3937007874015748},{"duration":0.1818179999999927,"midi":0,"time":213.090696,"velocity":0.3937007874015748},{"duration":0.1818179999999927,"midi":0,"time":213.45433200000002,"velocity":0.3937007874015748},{"duration":0.1818179999999927,"midi":0,"time":213.817968,"velocity":0.3937007874015748},{"duration":0.1818179999999927,"midi":0,"time":214.18160400000002,"velocity":0.3937007874015748},{"duration":0.1818179999999927,"midi":0,"time":214.54524,"velocity":0.3937007874015748},{"duration":0.1818179999999927,"midi":0,"time":214.90887600000002,"velocity":0.3937007874015748},{"duration":0.1818179999999927,"midi":0,"time":215.272512,"velocity":0.3937007874015748},{"duration":0.1818179999999927,"midi":0,"time":215.63614800000002,"velocity":0.3937007874015748},{"duration":0.1818179999999927,"midi":0,"time":215.999784,"velocity":0.3937007874015748},{"duration":0.1818179999999927,"midi":0,"time":216.36342000000002,"velocity":0.3937007874015748},{"duration":0.1818179999999927,"midi":0,"time":216.727056,"velocity":0.3937007874015748},{"duration":0.1818179999999927,"midi":0,"time":217.09069200000002,"velocity":0.3937007874015748},{"duration":0.1818179999999927,"midi":0,"time":217.454328,"velocity":0.3937007874015748},{"duration":0.1818179999999927,"midi":0,"time":217.81796400000002,"velocity":0.3937007874015748},{"duration":0.1818179999999927,"midi":0,"time":218.1816,"velocity":0.3937007874015748},{"duration":0.1818179999999927,"midi":0,"time":218.54523600000002,"velocity":0.3937007874015748},{"duration":0.1818179999999927,"midi":0,"time":218.908872,"velocity":0.3937007874015748},{"duration":0.1818179999999927,"midi":0,"time":219.27250800000002,"velocity":0.3937007874015748},{"duration":0.18181800000002113,"midi":0,"time":219.636144,"velocity":0.3937007874015748},{"duration":0.1818179999999927,"midi":0,"time":219.99978000000002,"velocity":0.3937007874015748},{"duration":0.18181800000002113,"midi":0,"time":220.363416,"velocity":0.3937007874015748},{"duration":0.1818179999999927,"midi":0,"time":220.72705200000001,"velocity":0.3937007874015748},{"duration":0.18181800000002113,"midi":0,"time":267.636096,"velocity":0.3937007874015748},{"duration":0.18181800000002113,"midi":0,"time":267.636096,"velocity":0.3937007874015748},{"duration":0.18181800000002113,"midi":0,"time":267.999732,"velocity":0.3937007874015748},{"duration":0.18181799999996429,"midi":0,"time":268.36336800000004,"velocity":0.3937007874015748},{"duration":0.18181799999996429,"midi":0,"time":268.727004,"velocity":0.3937007874015748},{"duration":0.18181800000002113,"midi":0,"time":269.09064,"velocity":0.3937007874015748},{"duration":0.18181800000002113,"midi":0,"time":269.09064,"velocity":0.3937007874015748},{"duration":0.18181800000002113,"midi":0,"time":269.454276,"velocity":0.3937007874015748},{"duration":0.18181799999996429,"midi":0,"time":269.81791200000004,"velocity":0.3937007874015748},{"duration":0.18181799999996429,"midi":0,"time":270.181548,"velocity":0.3937007874015748},{"duration":0.18181800000002113,"midi":0,"time":270.545184,"velocity":0.3937007874015748},{"duration":0.18181800000002113,"midi":0,"time":270.545184,"velocity":0.3937007874015748},{"duration":0.18181800000002113,"midi":0,"time":270.90882,"velocity":0.3937007874015748},{"duration":0.18181799999996429,"midi":0,"time":271.27245600000003,"velocity":0.3937007874015748},{"duration":0.18181799999996429,"midi":0,"time":271.636092,"velocity":0.3937007874015748},{"duration":0.18181800000002113,"midi":0,"time":271.999728,"velocity":0.3937007874015748},{"duration":0.18181800000002113,"midi":0,"time":271.999728,"velocity":0.3937007874015748},{"duration":0.18181800000002113,"midi":0,"time":272.363364,"velocity":0.3937007874015748},{"duration":0.18181799999996429,"midi":0,"time":272.72700000000003,"velocity":0.3937007874015748},{"duration":0.18181800000002113,"midi":0,"time":273.090636,"velocity":0.3937007874015748},{"duration":0.18181800000002113,"midi":0,"time":273.454272,"velocity":0.3937007874015748},{"duration":0.18181800000002113,"midi":0,"time":273.454272,"velocity":0.3937007874015748},{"duration":0.18181800000002113,"midi":0,"time":273.817908,"velocity":0.3937007874015748},{"duration":0.18181799999996429,"midi":0,"time":274.18154400000003,"velocity":0.3937007874015748},{"duration":0.18181800000002113,"midi":0,"time":274.54518,"velocity":0.3937007874015748},{"duration":0.18181800000002113,"midi":0,"time":274.908816,"velocity":0.3937007874015748},{"duration":0.18181800000002113,"midi":0,"time":274.908816,"velocity":0.3937007874015748},{"duration":0.18181800000002113,"midi":0,"time":275.272452,"velocity":0.3937007874015748},{"duration":0.18181799999996429,"midi":0,"time":275.63608800000003,"velocity":0.3937007874015748},{"duration":0.18181800000002113,"midi":0,"time":275.999724,"velocity":0.3937007874015748},{"duration":0.18181800000002113,"midi":0,"time":276.36336,"velocity":0.3937007874015748},{"duration":0.18181800000002113,"midi":0,"time":276.36336,"velocity":0.3937007874015748},{"duration":0.18181800000002113,"midi":0,"time":276.726996,"velocity":0.3937007874015748},{"duration":0.18181799999996429,"midi":0,"time":277.090632,"velocity":0.3937007874015748},{"duration":0.18181800000002113,"midi":0,"time":277.454268,"velocity":0.3937007874015748},{"duration":0.18181800000002113,"midi":0,"time":277.817904,"velocity":0.3937007874015748},{"duration":0.18181800000002113,"midi":0,"time":277.817904,"velocity":0.3937007874015748},{"duration":0.18181800000002113,"midi":0,"time":278.18154,"velocity":0.3937007874015748},{"duration":0.18181799999996429,"midi":0,"time":278.545176,"velocity":0.3937007874015748},{"duration":0.18181800000002113,"midi":0,"time":278.908812,"velocity":0.3937007874015748},{"duration":0.18181800000002113,"midi":0,"time":279.272448,"velocity":0.3937007874015748},{"duration":0.18181800000002113,"midi":0,"time":279.272448,"velocity":0.3937007874015748},{"duration":0.18181799999996429,"midi":0,"time":279.63608400000004,"velocity":0.3937007874015748},{"duration":0.18181799999996429,"midi":0,"time":279.99972,"velocity":0.3937007874015748},{"duration":0.18181800000002113,"midi":0,"time":280.363356,"velocity":0.3937007874015748},{"duration":0.18181800000002113,"midi":0,"time":280.726992,"velocity":0.3937007874015748},{"duration":0.18181800000002113,"midi":0,"time":280.726992,"velocity":0.3937007874015748},{"duration":0.18181799999996429,"midi":0,"time":281.09062800000004,"velocity":0.3937007874015748},{"duration":0.18181799999996429,"midi":0,"time":281.454264,"velocity":0.3937007874015748},{"duration":0.18181800000002113,"midi":0,"time":281.8179,"velocity":0.3937007874015748},{"duration":0.18181800000002113,"midi":0,"time":282.181536,"velocity":0.3937007874015748},{"duration":0.18181800000002113,"midi":0,"time":282.181536,"velocity":0.3937007874015748},{"duration":0.18181799999996429,"midi":0,"time":282.54517200000004,"velocity":0.3937007874015748},{"duration":0.18181799999996429,"midi":0,"time":282.908808,"velocity":0.3937007874015748},{"duration":0.18181800000002113,"midi":0,"time":283.272444,"velocity":0.3937007874015748},{"duration":0.18181800000002113,"midi":0,"time":283.63608,"velocity":0.3937007874015748},{"duration":0.18181800000002113,"midi":0,"time":283.63608,"velocity":0.3937007874015748},{"duration":0.18181799999996429,"midi":0,"time":283.99971600000003,"velocity":0.3937007874015748},{"duration":0.18181799999996429,"midi":0,"time":284.363352,"velocity":0.3937007874015748},{"duration":0.18181800000002113,"midi":0,"time":284.726988,"velocity":0.3937007874015748},{"duration":0.18181800000002113,"midi":0,"time":285.090624,"velocity":0.3937007874015748},{"duration":0.18181800000002113,"midi":0,"time":285.090624,"velocity":0.3937007874015748},{"duration":0.18181799999996429,"midi":0,"time":285.45426000000003,"velocity":0.3937007874015748},{"duration":0.18181800000002113,"midi":0,"time":285.817896,"velocity":0.3937007874015748},{"duration":0.18181800000002113,"midi":0,"time":286.181532,"velocity":0.3937007874015748},{"duration":0.18181800000002113,"midi":0,"time":286.545168,"velocity":0.3937007874015748},{"duration":0.18181800000002113,"midi":0,"time":286.545168,"velocity":0.3937007874015748},{"duration":0.18181799999996429,"midi":0,"time":286.90880400000003,"velocity":0.3937007874015748},{"duration":0.18181800000002113,"midi":0,"time":287.27244,"velocity":0.3937007874015748},{"duration":0.18181800000002113,"midi":0,"time":287.636076,"velocity":0.3937007874015748},{"duration":0.18181800000002113,"midi":0,"time":287.999712,"velocity":0.3937007874015748},{"duration":0.18181800000002113,"midi":0,"time":287.999712,"velocity":0.3937007874015748},{"duration":0.18181799999996429,"midi":0,"time":288.36334800000003,"velocity":0.3937007874015748},{"duration":0.18181800000002113,"midi":0,"time":288.726984,"velocity":0.3937007874015748},{"duration":0.18181800000002113,"midi":0,"time":289.09062,"velocity":0.3937007874015748},{"duration":0.18181800000002113,"midi":0,"time":289.454256,"velocity":0.3937007874015748},{"duration":0.18181800000002113,"midi":0,"time":289.454256,"velocity":0.3937007874015748},{"duration":0.18181799999996429,"midi":0,"time":289.81789200000003,"velocity":0.3937007874015748},{"duration":0.18181800000002113,"midi":0,"time":290.181528,"velocity":0.3937007874015748},{"duration":0.18181800000002113,"midi":0,"time":290.545164,"velocity":0.3937007874015748},{"duration":0.18181800000002113,"midi":0,"time":290.9088,"velocity":0.3937007874015748},{"duration":0.18181800000002113,"midi":0,"time":290.9088,"velocity":0.3937007874015748},{"duration":0.18181799999996429,"midi":0,"time":291.272436,"velocity":0.3937007874015748},{"duration":0.18181800000002113,"midi":0,"time":291.636072,"velocity":0.3937007874015748},{"duration":0.18181800000002113,"midi":0,"time":291.999708,"velocity":0.3937007874015748},{"duration":0.18181800000002113,"midi":0,"time":292.363344,"velocity":0.3937007874015748},{"duration":0.18181800000002113,"midi":0,"time":292.363344,"velocity":0.3937007874015748},{"duration":0.18181799999996429,"midi":0,"time":292.72698,"velocity":0.3937007874015748},{"duration":0.18181800000002113,"midi":0,"time":293.090616,"velocity":0.3937007874015748},{"duration":0.18181800000002113,"midi":0,"time":293.454252,"velocity":0.3937007874015748},{"duration":0.18181799999996429,"midi":0,"time":293.81788800000004,"velocity":0.3937007874015748},{"duration":0.18181799999996429,"midi":0,"time":293.81788800000004,"velocity":0.3937007874015748},{"duration":0.18181799999996429,"midi":0,"time":294.181524,"velocity":0.3937007874015748},{"duration":0.18181800000002113,"midi":0,"time":294.54516,"velocity":0.3937007874015748},{"duration":0.18181800000002113,"midi":0,"time":294.908796,"velocity":0.3937007874015748},{"duration":0.18181799999996429,"midi":0,"time":295.27243200000004,"velocity":0.3937007874015748},{"duration":0.18181799999996429,"midi":0,"time":295.27243200000004,"velocity":0.3937007874015748},{"duration":0.18181799999996429,"midi":0,"time":295.636068,"velocity":0.3937007874015748},{"duration":0.18181800000002113,"midi":0,"time":295.999704,"velocity":0.3937007874015748},{"duration":0.18181800000002113,"midi":0,"time":296.36334,"velocity":0.3937007874015748},{"duration":0.18181799999996429,"midi":0,"time":296.72697600000004,"velocity":0.3937007874015748},{"duration":0.18181799999996429,"midi":0,"time":296.72697600000004,"velocity":0.3937007874015748},{"duration":0.18181799999996429,"midi":0,"time":297.090612,"velocity":0.3937007874015748},{"duration":0.18181800000002113,"midi":0,"time":297.454248,"velocity":0.3937007874015748},{"duration":0.18181800000002113,"midi":0,"time":297.817884,"velocity":0.3937007874015748},{"duration":0.18181799999996429,"midi":0,"time":298.18152000000003,"velocity":0.3937007874015748},{"duration":0.18181799999996429,"midi":0,"time":298.18152000000003,"velocity":0.3937007874015748},{"duration":0.18181799999996429,"midi":0,"time":298.545156,"velocity":0.3937007874015748},{"duration":0.18181800000002113,"midi":0,"time":298.908792,"velocity":0.3937007874015748},{"duration":0.18181800000002113,"midi":0,"time":299.272428,"velocity":0.3937007874015748},{"duration":0.18181799999996429,"midi":0,"time":299.63606400000003,"velocity":0.3937007874015748},{"duration":0.18181799999996429,"midi":0,"time":299.63606400000003,"velocity":0.3937007874015748},{"duration":0.18181800000002113,"midi":0,"time":299.9997,"velocity":0.3937007874015748},{"duration":0.18181800000002113,"midi":0,"time":300.363336,"velocity":0.3937007874015748},{"duration":0.18181800000002113,"midi":0,"time":300.726972,"velocity":0.3937007874015748},{"duration":0.18181799999996429,"midi":0,"time":301.09060800000003,"velocity":0.3937007874015748},{"duration":0.18181799999996429,"midi":0,"time":301.09060800000003,"velocity":0.3937007874015748},{"duration":0.18181800000002113,"midi":0,"time":301.454244,"velocity":0.3937007874015748},{"duration":0.18181800000002113,"midi":0,"time":301.81788,"velocity":0.3937007874015748},{"duration":0.18181800000002113,"midi":0,"time":302.181516,"velocity":0.3937007874015748},{"duration":0.18181799999996429,"midi":0,"time":302.54515200000003,"velocity":0.3937007874015748},{"duration":0.18181799999996429,"midi":0,"time":302.54515200000003,"velocity":0.3937007874015748},{"duration":0.18181800000002113,"midi":0,"time":302.908788,"velocity":0.3937007874015748},{"duration":0.18181800000002113,"midi":0,"time":303.272424,"velocity":0.3937007874015748},{"duration":0.18181800000002113,"midi":0,"time":303.63606,"velocity":0.3937007874015748},{"duration":0.18181799999996429,"midi":0,"time":303.99969600000003,"velocity":0.3937007874015748},{"duration":0.18181799999996429,"midi":0,"time":303.99969600000003,"velocity":0.3937007874015748},{"duration":0.18181800000002113,"midi":0,"time":304.363332,"velocity":0.3937007874015748},{"duration":0.18181800000002113,"midi":0,"time":304.726968,"velocity":0.3937007874015748},{"duration":0.18181800000002113,"midi":0,"time":305.090604,"velocity":0.3937007874015748},{"duration":0.18181799999996429,"midi":0,"time":305.45424,"velocity":0.3937007874015748},{"duration":0.18181799999996429,"midi":0,"time":305.45424,"velocity":0.3937007874015748},{"duration":0.18181800000002113,"midi":0,"time":305.817876,"velocity":0.3937007874015748},{"duration":0.18181800000002113,"midi":0,"time":306.181512,"velocity":0.3937007874015748},{"duration":0.18181799999996429,"midi":0,"time":306.54514800000004,"velocity":0.3937007874015748},{"duration":0.18181799999996429,"midi":0,"time":306.908784,"velocity":0.3937007874015748},{"duration":0.18181799999996429,"midi":0,"time":306.908784,"velocity":0.3937007874015748},{"duration":0.18181800000002113,"midi":0,"time":307.27242,"velocity":0.3937007874015748},{"duration":0.18181800000002113,"midi":0,"time":307.636056,"velocity":0.3937007874015748},{"duration":0.18181799999996429,"midi":0,"time":307.99969200000004,"velocity":0.3937007874015748},{"duration":0.18181799999996429,"midi":0,"time":308.363328,"velocity":0.3937007874015748},{"duration":0.18181799999996429,"midi":0,"time":308.363328,"velocity":0.3937007874015748},{"duration":0.18181800000002113,"midi":0,"time":308.726964,"velocity":0.3937007874015748},{"duration":0.18181800000002113,"midi":0,"time":309.0906,"velocity":0.3937007874015748},{"duration":0.18181799999996429,"midi":0,"time":309.45423600000004,"velocity":0.3937007874015748},{"duration":0.18181799999996429,"midi":0,"time":309.817872,"velocity":0.3937007874015748},{"duration":0.18181799999996429,"midi":0,"time":309.817872,"velocity":0.3937007874015748},{"duration":0.18181800000002113,"midi":0,"time":310.181508,"velocity":0.3937007874015748},{"duration":0.18181800000002113,"midi":0,"time":310.545144,"velocity":0.3937007874015748},{"duration":0.18181799999996429,"midi":0,"time":310.90878000000004,"velocity":0.3937007874015748},{"duration":0.18181799999996429,"midi":0,"time":311.272416,"velocity":0.3937007874015748},{"duration":0.18181799999996429,"midi":0,"time":311.272416,"velocity":0.3937007874015748},{"duration":0.18181800000002113,"midi":0,"time":311.636052,"velocity":0.3937007874015748},{"duration":0.18181800000002113,"midi":0,"time":311.999688,"velocity":0.3937007874015748},{"duration":0.18181799999996429,"midi":0,"time":312.36332400000003,"velocity":0.3937007874015748},{"duration":0.18181800000002113,"midi":0,"time":312.72696,"velocity":0.3937007874015748},{"duration":0.18181800000002113,"midi":0,"time":312.72696,"velocity":0.3937007874015748},{"duration":0.18181800000002113,"midi":0,"time":313.090596,"velocity":0.3937007874015748},{"duration":0.18181800000002113,"midi":0,"time":313.454232,"velocity":0.3937007874015748},{"duration":0.18181799999996429,"midi":0,"time":313.81786800000003,"velocity":0.3937007874015748},{"duration":0.18181800000002113,"midi":0,"time":314.181504,"velocity":0.3937007874015748}]},{"instrument":{"family":"drums","number":255},"notes":[{"duration":0.181818,"midi":59,"time":0.181818,"velocity":0.3937007874015748},{"duration":0.18181800000000004,"midi":59,"time":0.545454,"velocity":0.3937007874015748},{"duration":0.18181799999999992,"midi":59,"time":0.9090900000000001,"velocity":0.3937007874015748},{"duration":0.18181800000000004,"midi":59,"time":1.272726,"velocity":0.3937007874015748},{"duration":0.18181800000000004,"midi":59,"time":1.636362,"velocity":0.3937007874015748},{"duration":0.1818179999999998,"midi":59,"time":1.9999980000000002,"velocity":0.3937007874015748},{"duration":0.1818179999999998,"midi":59,"time":2.3636340000000002,"velocity":0.3937007874015748},{"duration":0.1818179999999998,"midi":59,"time":2.7272700000000003,"velocity":0.3937007874015748},{"duration":0.18181800000000026,"midi":59,"time":3.090906,"velocity":0.3937007874015748},{"duration":0.18181800000000026,"midi":59,"time":3.454542,"velocity":0.3937007874015748},{"duration":0.18181800000000026,"midi":59,"time":3.818178,"velocity":0.3937007874015748},{"duration":0.1818179999999998,"midi":59,"time":4.181814,"velocity":0.3937007874015748},{"duration":0.1818180000000007,"midi":59,"time":4.54545,"velocity":0.3937007874015748},{"duration":0.1818179999999998,"midi":59,"time":4.909086,"velocity":0.3937007874015748},{"duration":0.1818180000000007,"midi":59,"time":5.272722,"velocity":0.3937007874015748},{"duration":0.1818179999999998,"midi":59,"time":5.636358,"velocity":0.3937007874015748},{"duration":0.1818179999999998,"midi":59,"time":5.999994,"velocity":0.3937007874015748},{"duration":0.1818179999999998,"midi":59,"time":6.363630000000001,"velocity":0.3937007874015748},{"duration":0.1818179999999998,"midi":59,"time":6.727266,"velocity":0.3937007874015748},{"duration":0.1818179999999998,"midi":59,"time":7.090902000000001,"velocity":0.3937007874015748},{"duration":0.1818179999999998,"midi":59,"time":7.454538,"velocity":0.3937007874015748},{"duration":0.1818180000000007,"midi":59,"time":7.818174,"velocity":0.3937007874015748},{"duration":0.1818179999999998,"midi":59,"time":8.18181,"velocity":0.3937007874015748},{"duration":0.1818179999999998,"midi":59,"time":8.545446,"velocity":0.3937007874015748},{"duration":0.1818179999999998,"midi":59,"time":8.909082,"velocity":0.3937007874015748},{"duration":0.1818179999999998,"midi":59,"time":9.272718000000001,"velocity":0.3937007874015748},{"duration":0.1818179999999998,"midi":59,"time":9.636354,"velocity":0.3937007874015748},{"duration":0.1818179999999998,"midi":59,"time":9.99999,"velocity":0.3937007874015748},{"duration":0.1818179999999998,"midi":59,"time":10.363626,"velocity":0.3937007874015748},{"duration":0.1818180000000016,"midi":59,"time":10.727262,"velocity":0.3937007874015748},{"duration":0.1818179999999998,"midi":59,"time":11.090898000000001,"velocity":0.3937007874015748},{"duration":0.04545449999999995,"midi":59,"time":11.81817,"velocity":0.3937007874015748},{"duration":0.04545449999999995,"midi":59,"time":12.181806,"velocity":0.3937007874015748},{"duration":0.04545449999999995,"midi":59,"time":12.545442000000001,"velocity":0.3937007874015748},{"duration":0.04545449999999995,"midi":59,"time":12.909078000000001,"velocity":0.3937007874015748},{"duration":0.04545449999999995,"midi":59,"time":13.272714,"velocity":0.3937007874015748},{"duration":0.04545449999999995,"midi":59,"time":13.63635,"velocity":0.3937007874015748},{"duration":0.04545449999999995,"midi":59,"time":13.999986,"velocity":0.3937007874015748},{"duration":0.04545449999999995,"midi":59,"time":14.363622000000001,"velocity":0.3937007874015748},{"duration":0.04545449999999995,"midi":59,"time":14.727258,"velocity":0.3937007874015748},{"duration":0.04545449999999995,"midi":59,"time":15.090894,"velocity":0.3937007874015748},{"duration":0.04545449999999995,"midi":59,"time":15.45453,"velocity":0.3937007874015748},{"duration":0.04545449999999995,"midi":59,"time":15.818166000000002,"velocity":0.3937007874015748},{"duration":0.04545449999999818,"midi":59,"time":16.181802,"velocity":0.3937007874015748},{"duration":0.04545449999999818,"midi":59,"time":16.545438,"velocity":0.3937007874015748},{"duration":0.04545450000000173,"midi":59,"time":16.909074,"velocity":0.3937007874015748},{"duration":0.04545450000000173,"midi":59,"time":17.27271,"velocity":0.3937007874015748},{"duration":0.04545450000000173,"midi":59,"time":17.636346,"velocity":0.3937007874015748},{"duration":0.04545450000000173,"midi":59,"time":17.999982,"velocity":0.3937007874015748},{"duration":0.04545449999999818,"midi":59,"time":18.363618000000002,"velocity":0.3937007874015748},{"duration":0.04545449999999818,"midi":59,"time":18.727254000000002,"velocity":0.3937007874015748},{"duration":0.04545449999999818,"midi":59,"time":19.09089,"velocity":0.3937007874015748},{"duration":0.04545449999999818,"midi":59,"time":19.454526,"velocity":0.3937007874015748},{"duration":0.04545449999999818,"midi":59,"time":19.818162,"velocity":0.3937007874015748},{"duration":0.04545450000000173,"midi":59,"time":20.181798,"velocity":0.3937007874015748},{"duration":0.04545450000000173,"midi":59,"time":20.545434,"velocity":0.3937007874015748},{"duration":0.04545450000000173,"midi":59,"time":20.90907,"velocity":0.3937007874015748},{"duration":0.04545450000000173,"midi":59,"time":21.272706,"velocity":0.3937007874015748},{"duration":0.04545449999999818,"midi":59,"time":21.636342000000003,"velocity":0.3937007874015748},{"duration":0.04545449999999818,"midi":59,"time":21.999978000000002,"velocity":0.3937007874015748},{"duration":0.04545449999999818,"midi":59,"time":22.363614000000002,"velocity":0.3937007874015748},{"duration":0.04545449999999818,"midi":59,"time":22.72725,"velocity":0.3937007874015748},{"duration":0.04545449999999818,"midi":59,"time":23.090886,"velocity":0.3937007874015748},{"duration":0.04545450000000528,"midi":59,"time":35.090874,"velocity":0.3937007874015748},{"duration":0.04545450000000528,"midi":59,"time":35.45451,"velocity":0.3937007874015748},{"duration":0.04545450000000528,"midi":59,"time":35.818146,"velocity":0.3937007874015748},{"duration":0.04545450000000528,"midi":59,"time":36.181782,"velocity":0.3937007874015748},{"duration":0.04545450000000528,"midi":59,"time":36.545418,"velocity":0.3937007874015748},{"duration":0.04545449999999818,"midi":59,"time":36.909054000000005,"velocity":0.3937007874015748},{"duration":0.04545449999999818,"midi":59,"time":37.272690000000004,"velocity":0.3937007874015748},{"duration":0.04545449999999818,"midi":59,"time":37.636326000000004,"velocity":0.3937007874015748},{"duration":0.04545449999999818,"midi":59,"time":37.999962000000004,"velocity":0.3937007874015748},{"duration":0.04545449999999818,"midi":59,"time":38.363598,"velocity":0.3937007874015748},{"duration":0.04545449999999818,"midi":59,"time":38.727234,"velocity":0.3937007874015748},{"duration":0.04545449999999818,"midi":59,"time":39.09087,"velocity":0.3937007874015748},{"duration":0.04545449999999818,"midi":59,"time":39.454506,"velocity":0.3937007874015748},{"duration":0.04545449999999818,"midi":59,"time":39.818142,"velocity":0.3937007874015748},{"duration":0.04545449999999818,"midi":59,"time":40.181778,"velocity":0.3937007874015748},{"duration":0.04545449999999818,"midi":59,"time":40.545414,"velocity":0.3937007874015748},{"duration":0.04545449999999818,"midi":59,"time":40.90905,"velocity":0.3937007874015748},{"duration":0.04545449999999818,"midi":59,"time":41.272686,"velocity":0.3937007874015748},{"duration":0.04545450000000528,"midi":59,"time":41.636322,"velocity":0.3937007874015748},{"duration":0.04545450000000528,"midi":59,"time":41.999958,"velocity":0.3937007874015748},{"duration":0.04545450000000528,"midi":59,"time":42.363594,"velocity":0.3937007874015748},{"duration":0.04545450000000528,"midi":59,"time":42.72723,"velocity":0.3937007874015748},{"duration":0.04545450000000528,"midi":59,"time":43.090866,"velocity":0.3937007874015748},{"duration":0.04545449999999818,"midi":59,"time":43.454502000000005,"velocity":0.3937007874015748},{"duration":0.04545449999999818,"midi":59,"time":43.818138000000005,"velocity":0.3937007874015748},{"duration":0.04545449999999818,"midi":59,"time":44.181774000000004,"velocity":0.3937007874015748},{"duration":0.04545449999999818,"midi":59,"time":44.545410000000004,"velocity":0.3937007874015748},{"duration":0.04545449999999818,"midi":59,"time":44.909046000000004,"velocity":0.3937007874015748},{"duration":0.04545449999999818,"midi":59,"time":45.272682,"velocity":0.3937007874015748},{"duration":0.04545449999999818,"midi":59,"time":45.636318,"velocity":0.3937007874015748},{"duration":0.04545449999999818,"midi":59,"time":45.999954,"velocity":0.3937007874015748},{"duration":0.04545449999999818,"midi":59,"time":46.36359,"velocity":0.3937007874015748},{"duration":0.1818179999999927,"midi":59,"time":128.18169,"velocity":0.3937007874015748},{"duration":0.1818179999999927,"midi":59,"time":128.54532600000002,"velocity":0.3937007874015748},{"duration":0.1818179999999927,"midi":59,"time":128.908962,"velocity":0.3937007874015748},{"duration":0.1818179999999927,"midi":59,"time":129.27259800000002,"velocity":0.3937007874015748},{"duration":0.1818179999999927,"midi":59,"time":129.636234,"velocity":0.3937007874015748},{"duration":0.1818179999999927,"midi":59,"time":129.99987000000002,"velocity":0.3937007874015748},{"duration":0.1818179999999927,"midi":59,"time":130.363506,"velocity":0.3937007874015748},{"duration":0.1818179999999927,"midi":59,"time":130.72714200000001,"velocity":0.3937007874015748},{"duration":0.1818179999999927,"midi":59,"time":131.090778,"velocity":0.3937007874015748},{"duration":0.1818179999999927,"midi":59,"time":131.454414,"velocity":0.3937007874015748},{"duration":0.1818179999999927,"midi":59,"time":131.81805,"velocity":0.3937007874015748},{"duration":0.1818179999999927,"midi":59,"time":132.181686,"velocity":0.3937007874015748},{"duration":0.1818179999999927,"midi":59,"time":132.545322,"velocity":0.3937007874015748},{"duration":0.1818179999999927,"midi":59,"time":132.908958,"velocity":0.3937007874015748},{"duration":0.18181800000002113,"midi":59,"time":133.272594,"velocity":0.3937007874015748},{"duration":0.1818179999999927,"midi":59,"time":133.63623,"velocity":0.3937007874015748},{"duration":0.18181800000002113,"midi":59,"time":133.999866,"velocity":0.3937007874015748},{"duration":0.1818179999999927,"midi":59,"time":134.363502,"velocity":0.3937007874015748},{"duration":0.18181800000002113,"midi":59,"time":134.727138,"velocity":0.3937007874015748},{"duration":0.1818179999999927,"midi":59,"time":135.090774,"velocity":0.3937007874015748},{"duration":0.18181800000002113,"midi":59,"time":135.45441,"velocity":0.3937007874015748},{"duration":0.1818179999999927,"midi":59,"time":135.818046,"velocity":0.3937007874015748},{"duration":0.18181800000002113,"midi":59,"time":136.181682,"velocity":0.3937007874015748},{"duration":0.1818179999999927,"midi":59,"time":136.545318,"velocity":0.3937007874015748},{"duration":0.18181800000002113,"midi":59,"time":136.908954,"velocity":0.3937007874015748},{"duration":0.1818179999999927,"midi":59,"time":137.27259,"velocity":0.3937007874015748},{"duration":0.18181800000002113,"midi":59,"time":137.636226,"velocity":0.3937007874015748},{"duration":0.1818179999999927,"midi":59,"time":137.999862,"velocity":0.3937007874015748},{"duration":0.18181800000002113,"midi":59,"time":138.363498,"velocity":0.3937007874015748},{"duration":0.1818179999999927,"midi":59,"time":138.727134,"velocity":0.3937007874015748},{"duration":0.18181800000002113,"midi":59,"time":139.09077,"velocity":0.3937007874015748},{"duration":0.04545450000000528,"midi":59,"time":163.090746,"velocity":0.3937007874015748},{"duration":0.04545450000000528,"midi":59,"time":163.454382,"velocity":0.3937007874015748},{"duration":0.04545450000000528,"midi":59,"time":163.818018,"velocity":0.3937007874015748},{"duration":0.04545450000000528,"midi":59,"time":164.181654,"velocity":0.3937007874015748},{"duration":0.04545450000000528,"midi":59,"time":164.54529,"velocity":0.3937007874015748},{"duration":0.04545450000000528,"midi":59,"time":164.908926,"velocity":0.3937007874015748},{"duration":0.04545450000000528,"midi":59,"time":165.272562,"velocity":0.3937007874015748},{"duration":0.04545450000000528,"midi":59,"time":165.636198,"velocity":0.3937007874015748},{"duration":0.04545450000000528,"midi":59,"time":165.999834,"velocity":0.3937007874015748},{"duration":0.04545450000000528,"midi":59,"time":166.36347,"velocity":0.3937007874015748},{"duration":0.04545449999997686,"midi":59,"time":166.72710600000002,"velocity":0.3937007874015748},{"duration":0.04545450000000528,"midi":59,"time":167.090742,"velocity":0.3937007874015748},{"duration":0.04545449999997686,"midi":59,"time":167.45437800000002,"velocity":0.3937007874015748},{"duration":0.04545450000000528,"midi":59,"time":167.818014,"velocity":0.3937007874015748},{"duration":0.04545449999997686,"midi":59,"time":168.18165000000002,"velocity":0.3937007874015748},{"duration":0.04545450000000528,"midi":59,"time":168.545286,"velocity":0.3937007874015748},{"duration":0.04545449999997686,"midi":59,"time":168.90892200000002,"velocity":0.3937007874015748},{"duration":0.04545450000000528,"midi":59,"time":169.272558,"velocity":0.3937007874015748},{"duration":0.04545449999997686,"midi":59,"time":169.63619400000002,"velocity":0.3937007874015748},{"duration":0.04545450000000528,"midi":59,"time":169.99983,"velocity":0.3937007874015748},{"duration":0.04545449999997686,"midi":59,"time":170.36346600000002,"velocity":0.3937007874015748},{"duration":0.04545450000000528,"midi":59,"time":170.727102,"velocity":0.3937007874015748},{"duration":0.04545449999997686,"midi":59,"time":171.09073800000002,"velocity":0.3937007874015748},{"duration":0.04545450000000528,"midi":59,"time":171.454374,"velocity":0.3937007874015748},{"duration":0.04545450000000528,"midi":59,"time":171.81801000000002,"velocity":0.3937007874015748},{"duration":0.04545450000000528,"midi":59,"time":172.181646,"velocity":0.3937007874015748},{"duration":0.04545450000000528,"midi":59,"time":172.54528200000001,"velocity":0.3937007874015748},{"duration":0.04545450000000528,"midi":59,"time":172.908918,"velocity":0.3937007874015748},{"duration":0.04545450000000528,"midi":59,"time":173.272554,"velocity":0.3937007874015748},{"duration":0.04545450000000528,"midi":59,"time":173.63619,"velocity":0.3937007874015748},{"duration":0.04545450000000528,"midi":59,"time":173.999826,"velocity":0.3937007874015748},{"duration":0.04545450000000528,"midi":59,"time":174.363462,"velocity":0.3937007874015748},{"duration":0.1818179999999927,"midi":59,"time":184.908906,"velocity":0.3937007874015748},{"duration":0.1818179999999927,"midi":59,"time":185.27254200000002,"velocity":0.3937007874015748},{"duration":0.1818179999999927,"midi":59,"time":185.636178,"velocity":0.3937007874015748},{"duration":0.1818179999999927,"midi":59,"time":185.99981400000001,"velocity":0.3937007874015748}]}]}
