{"tracks":[{"instrument":{"family":"piano","number":0,"name":"acoustic grand piano"},"notes":[{"duration":0.13043475,"midi":41,"time":0,"velocity":0.7874015748031497},{"duration":0.13043475,"midi":41,"time":0,"velocity":0.7874015748031497},{"duration":0.13043475,"midi":48,"time":0.13043475,"velocity":0.7874015748031497},{"duration":0.13043475,"midi":48,"time":0.13043475,"velocity":0.7874015748031497},{"duration":0.13043475,"midi":46,"time":0.2608695,"velocity":0.7874015748031497},{"duration":0.13043475,"midi":46,"time":0.2608695,"velocity":0.7874015748031497},{"duration":0.13043475,"midi":48,"time":0.39130424999999996,"velocity":0.7874015748031497},{"duration":0.13043475,"midi":48,"time":0.39130424999999996,"velocity":0.7874015748031497},{"duration":0.13043475000000004,"midi":41,"time":0.521739,"velocity":0.7874015748031497},{"duration":0.13043475000000004,"midi":41,"time":0.521739,"velocity":0.7874015748031497},{"duration":0.13043474999999993,"midi":48,"time":0.65217375,"velocity":0.7874015748031497},{"duration":0.13043474999999993,"midi":48,"time":0.65217375,"velocity":0.7874015748031497},{"duration":0.13043474999999993,"midi":46,"time":0.7826084999999999,"velocity":0.7874015748031497},{"duration":0.13043474999999993,"midi":46,"time":0.7826084999999999,"velocity":0.7874015748031497},{"duration":0.13043475000000004,"midi":48,"time":0.9130432499999999,"velocity":0.7874015748031497},{"duration":0.13043475000000004,"midi":48,"time":0.9130432499999999,"velocity":0.7874015748031497},{"duration":0.13043475000000004,"midi":37,"time":1.043478,"velocity":0.7874015748031497},{"duration":0.13043475000000004,"midi":37,"time":1.043478,"velocity":0.7874015748031497},{"duration":0.13043475000000004,"midi":47,"time":1.17391275,"velocity":0.7874015748031497},{"duration":0.13043475000000004,"midi":47,"time":1.17391275,"velocity":0.7874015748031497},{"duration":0.13043474999999982,"midi":46,"time":1.3043475,"velocity":0.7874015748031497},{"duration":0.13043474999999982,"midi":46,"time":1.3043475,"velocity":0.7874015748031497},{"duration":0.13043475000000004,"midi":47,"time":1.4347822499999998,"velocity":0.7874015748031497},{"duration":0.13043475000000004,"midi":47,"time":1.4347822499999998,"velocity":0.7874015748031497},{"duration":0.13043475000000004,"midi":36,"time":1.5652169999999999,"velocity":0.7874015748031497},{"duration":0.13043475000000004,"midi":36,"time":1.5652169999999999,"velocity":0.7874015748031497},{"duration":0.13043474999999982,"midi":48,"time":1.69565175,"velocity":0.7874015748031497},{"duration":0.13043474999999982,"midi":48,"time":1.69565175,"velocity":0.7874015748031497},{"duration":0.13043475000000004,"midi":43,"time":1.8260864999999997,"velocity":0.7874015748031497},{"duration":0.13043475000000004,"midi":43,"time":1.8260864999999997,"velocity":0.7874015748031497},{"duration":0.13043475000000004,"midi":46,"time":1.9565212499999998,"velocity":0.7874015748031497},{"duration":0.13043475000000004,"midi":46,"time":1.9565212499999998,"velocity":0.7874015748031497},{"duration":0.13043475000000004,"midi":41,"time":2.086956,"velocity":0.7874015748031497},{"duration":0.13043475000000004,"midi":41,"time":2.086956,"velocity":0.7874015748031497},{"duration":0.13043475000000004,"midi":48,"time":2.21739075,"velocity":0.7874015748031497},{"duration":0.13043475000000004,"midi":48,"time":2.21739075,"velocity":0.7874015748031497},{"duration":0.13043475000000004,"midi":46,"time":2.3478255,"velocity":0.7874015748031497},{"duration":0.13043475000000004,"midi":46,"time":2.3478255,"velocity":0.7874015748031497},{"duration":0.13043475000000004,"midi":48,"time":2.47826025,"velocity":0.7874015748031497},{"duration":0.13043475000000004,"midi":48,"time":2.47826025,"velocity":0.7874015748031497},{"duration":0.1304347499999996,"midi":43,"time":2.608695,"velocity":0.7874015748031497},{"duration":0.1304347499999996,"midi":43,"time":2.608695,"velocity":0.7874015748031497},{"duration":0.13043475000000004,"midi":48,"time":2.7391297499999996,"velocity":0.7874015748031497},{"duration":0.13043475000000004,"midi":48,"time":2.7391297499999996,"velocity":0.7874015748031497},{"duration":0.13043475000000004,"midi":46,"time":2.8695644999999996,"velocity":0.7874015748031497},{"duration":0.13043475000000004,"midi":46,"time":2.8695644999999996,"velocity":0.7874015748031497},{"duration":0.13043475000000004,"midi":48,"time":2.9999992499999997,"velocity":0.7874015748031497},{"duration":0.13043475000000004,"midi":48,"time":2.9999992499999997,"velocity":0.7874015748031497},{"duration":0.13043475000000004,"midi":44,"time":3.1304339999999997,"velocity":0.7874015748031497},{"duration":0.13043475000000004,"midi":44,"time":3.1304339999999997,"velocity":0.7874015748031497},{"duration":0.13043475000000004,"midi":48,"time":3.2608687499999998,"velocity":0.7874015748031497},{"duration":0.13043475000000004,"midi":48,"time":3.2608687499999998,"velocity":0.7874015748031497},{"duration":0.13043475000000004,"midi":46,"time":3.3913035,"velocity":0.7874015748031497},{"duration":0.13043475000000004,"midi":46,"time":3.3913035,"velocity":0.7874015748031497},{"duration":0.1304347499999996,"midi":48,"time":3.52173825,"velocity":0.7874015748031497},{"duration":0.1304347499999996,"midi":48,"time":3.52173825,"velocity":0.7874015748031497},{"duration":0.13043475000000004,"midi":46,"time":3.6521729999999994,"velocity":0.7874015748031497},{"duration":0.13043475000000004,"midi":46,"time":3.6521729999999994,"velocity":0.7874015748031497},{"duration":0.13043475000000004,"midi":49,"time":3.7826077499999995,"velocity":0.7874015748031497},{"duration":0.13043475000000004,"midi":49,"time":3.7826077499999995,"velocity":0.7874015748031497},{"duration":0.13043475000000004,"midi":48,"time":3.9130424999999995,"velocity":0.7874015748031497},{"duration":0.13043475000000004,"midi":48,"time":3.9130424999999995,"velocity":0.7874015748031497},{"duration":0.13043475000000004,"midi":49,"time":4.04347725,"velocity":0.7874015748031497},{"duration":0.13043475000000004,"midi":49,"time":4.04347725,"velocity":0.7874015748031497},{"duration":0.13043475000000004,"midi":37,"time":4.173912,"velocity":0.7874015748031497},{"duration":0.13043475000000004,"midi":37,"time":4.173912,"velocity":0.7874015748031497},{"duration":0.13043475000000004,"midi":44,"time":4.30434675,"velocity":0.7874015748031497},{"duration":0.13043475000000004,"midi":44,"time":4.30434675,"velocity":0.7874015748031497},{"duration":0.13043475000000004,"midi":43,"time":4.4347815,"velocity":0.7874015748031497},{"duration":0.13043475000000004,"midi":43,"time":4.4347815,"velocity":0.7874015748031497},{"duration":0.13043475000000004,"midi":44,"time":4.56521625,"velocity":0.7874015748031497},{"duration":0.13043475000000004,"midi":44,"time":4.56521625,"velocity":0.7874015748031497},{"duration":0.13043475000000004,"midi":37,"time":4.695651,"velocity":0.7874015748031497},{"duration":0.13043475000000004,"midi":37,"time":4.695651,"velocity":0.7874015748031497},{"duration":0.13043475000000004,"midi":46,"time":4.82608575,"velocity":0.7874015748031497},{"duration":0.13043475000000004,"midi":46,"time":4.82608575,"velocity":0.7874015748031497},{"duration":0.13043475000000004,"midi":44,"time":4.9565205,"velocity":0.7874015748031497},{"duration":0.13043475000000004,"midi":44,"time":4.9565205,"velocity":0.7874015748031497},{"duration":0.13043475000000004,"midi":46,"time":5.08695525,"velocity":0.7874015748031497},{"duration":0.13043475000000004,"midi":46,"time":5.08695525,"velocity":0.7874015748031497},{"duration":0.13043474999999916,"midi":37,"time":5.21739,"velocity":0.7874015748031497},{"duration":0.13043474999999916,"midi":37,"time":5.21739,"velocity":0.7874015748031497},{"duration":0.13043475000000004,"midi":48,"time":5.347824749999999,"velocity":0.7874015748031497},{"duration":0.13043475000000004,"midi":48,"time":5.347824749999999,"velocity":0.7874015748031497},{"duration":0.13043475000000004,"midi":46,"time":5.478259499999999,"velocity":0.7874015748031497},{"duration":0.13043475000000004,"midi":46,"time":5.478259499999999,"velocity":0.7874015748031497},{"duration":0.13043475000000004,"midi":48,"time":5.608694249999999,"velocity":0.7874015748031497},{"duration":0.13043475000000004,"midi":48,"time":5.608694249999999,"velocity":0.7874015748031497},{"duration":0.13043475000000004,"midi":37,"time":5.739128999999999,"velocity":0.7874015748031497},{"duration":0.13043475000000004,"midi":37,"time":5.739128999999999,"velocity":0.7874015748031497},{"duration":0.13043475000000004,"midi":49,"time":5.869563749999999,"velocity":0.7874015748031497},{"duration":0.13043475000000004,"midi":49,"time":5.869563749999999,"velocity":0.7874015748031497},{"duration":0.13043475000000004,"midi":48,"time":5.999998499999999,"velocity":0.7874015748031497},{"duration":0.13043475000000004,"midi":48,"time":5.999998499999999,"velocity":0.7874015748031497},{"duration":0.13043475000000004,"midi":49,"time":6.130433249999999,"velocity":0.7874015748031497},{"duration":0.13043475000000004,"midi":49,"time":6.130433249999999,"velocity":0.7874015748031497},{"duration":0.2608695000000001,"midi":36,"time":6.260867999999999,"velocity":0.7874015748031497},{"duration":0.2608695000000001,"midi":36,"time":6.260867999999999,"velocity":0.7874015748031497},{"duration":0.2608694999999992,"midi":36,"time":7.0434765,"velocity":0.7874015748031497},{"duration":0.2608694999999992,"midi":36,"time":7.0434765,"velocity":0.7874015748031497},{"duration":1.0434780000000003,"midi":36,"time":7.304345999999999,"velocity":0.7874015748031497},{"duration":1.0434780000000003,"midi":36,"time":7.304345999999999,"velocity":0.7874015748031497},{"duration":0.13043475000000004,"midi":48,"time":7.956519749999999,"velocity":0.7874015748031497},{"duration":0.13043475000000004,"midi":48,"time":7.956519749999999,"velocity":0.7874015748031497},{"duration":0.13043475000000093,"midi":50,"time":8.0869545,"velocity":0.7874015748031497},{"duration":0.13043475000000093,"midi":50,"time":8.0869545,"velocity":0.7874015748031497},{"duration":0.13043474999999916,"midi":52,"time":8.21738925,"velocity":0.7874015748031497},{"duration":0.13043474999999916,"midi":52,"time":8.21738925,"velocity":0.7874015748031497},{"duration":0.2608695000000001,"midi":53,"time":8.347824,"velocity":0.7874015748031497},{"duration":0.2608695000000001,"midi":48,"time":8.347824,"velocity":0.7874015748031497},{"duration":0.2608695000000001,"midi":48,"time":8.347824,"velocity":0.7874015748031497},{"duration":0.2608695000000001,"midi":53,"time":8.347824,"velocity":0.7874015748031497},{"duration":0.2608695000000001,"midi":48,"time":8.6086935,"velocity":0.7874015748031497},{"duration":0.2608695000000001,"midi":44,"time":8.6086935,"velocity":0.7874015748031497},{"duration":0.2608695000000001,"midi":44,"time":8.6086935,"velocity":0.7874015748031497},{"duration":0.2608695000000001,"midi":48,"time":8.6086935,"velocity":0.7874015748031497},{"duration":0.2608695000000001,"midi":44,"time":8.869563,"velocity":0.7874015748031497},{"duration":0.2608695000000001,"midi":41,"time":8.869563,"velocity":0.7874015748031497},{"duration":0.2608695000000001,"midi":44,"time":8.869563,"velocity":0.7874015748031497},{"duration":0.2608695000000001,"midi":41,"time":8.869563,"velocity":0.7874015748031497},{"duration":0.2608695000000001,"midi":41,"time":9.1304325,"velocity":0.7874015748031497},{"duration":0.2608695000000001,"midi":41,"time":9.1304325,"velocity":0.7874015748031497},{"duration":0.2608695000000001,"midi":36,"time":9.1304325,"velocity":0.7874015748031497},{"duration":0.2608695000000001,"midi":36,"time":9.1304325,"velocity":0.7874015748031497},{"duration":0.13043475000000093,"midi":47,"time":9.521736749999999,"velocity":0.7874015748031497},{"duration":0.13043475000000093,"midi":47,"time":9.521736749999999,"velocity":0.7874015748031497},{"duration":0.13043475000000093,"midi":44,"time":9.521736749999999,"velocity":0.7874015748031497},{"duration":0.13043475000000093,"midi":44,"time":9.521736749999999,"velocity":0.7874015748031497},{"duration":0.2608695000000001,"midi":46,"time":9.6521715,"velocity":0.7874015748031497},{"duration":0.2608695000000001,"midi":46,"time":9.6521715,"velocity":0.7874015748031497},{"duration":0.2608695000000001,"midi":41,"time":9.6521715,"velocity":0.7874015748031497},{"duration":0.2608695000000001,"midi":41,"time":9.6521715,"velocity":0.7874015748031497},{"duration":0.13043474999999916,"midi":43,"time":9.913041,"velocity":0.7874015748031497},{"duration":0.13043474999999916,"midi":46,"time":9.913041,"velocity":0.7874015748031497},{"duration":0.13043474999999916,"midi":46,"time":9.913041,"velocity":0.7874015748031497},{"duration":0.13043474999999916,"midi":43,"time":9.913041,"velocity":0.7874015748031497},{"duration":0.13043475000000093,"midi":44,"time":10.043475749999999,"velocity":0.7874015748031497},{"duration":0.13043475000000093,"midi":40,"time":10.043475749999999,"velocity":0.7874015748031497},{"duration":0.13043475000000093,"midi":44,"time":10.043475749999999,"velocity":0.7874015748031497},{"duration":0.13043475000000093,"midi":40,"time":10.043475749999999,"velocity":0.7874015748031497},{"duration":0.13043474999999916,"midi":34,"time":10.1739105,"velocity":0.7874015748031497},{"duration":0.13043474999999916,"midi":34,"time":10.1739105,"velocity":0.7874015748031497},{"duration":0.13043474999999916,"midi":39,"time":10.1739105,"velocity":0.7874015748031497},{"duration":0.13043474999999916,"midi":39,"time":10.1739105,"velocity":0.7874015748031497},{"duration":0.13043475000000093,"midi":40,"time":10.304345249999999,"velocity":0.7874015748031497},{"duration":0.13043475000000093,"midi":37,"time":10.304345249999999,"velocity":0.7874015748031497},{"duration":0.13043475000000093,"midi":40,"time":10.304345249999999,"velocity":0.7874015748031497},{"duration":0.13043475000000093,"midi":37,"time":10.304345249999999,"velocity":0.7874015748031497},{"duration":0.13043474999999916,"midi":44,"time":10.565214749999999,"velocity":0.7874015748031497},{"duration":0.13043474999999916,"midi":44,"time":10.565214749999999,"velocity":0.7874015748031497},{"duration":0.13043474999999916,"midi":48,"time":10.565214749999999,"velocity":0.7874015748031497},{"duration":0.13043474999999916,"midi":48,"time":10.565214749999999,"velocity":0.7874015748031497},{"duration":0.13043475000000093,"midi":41,"time":10.695649499999998,"velocity":0.7874015748031497},{"duration":0.13043475000000093,"midi":46,"time":10.695649499999998,"velocity":0.7874015748031497},{"duration":0.13043475000000093,"midi":41,"time":10.695649499999998,"velocity":0.7874015748031497},{"duration":0.13043475000000093,"midi":46,"time":10.695649499999998,"velocity":0.7874015748031497},{"duration":0.13043474999999916,"midi":39,"time":10.82608425,"velocity":0.7874015748031497},{"duration":0.13043474999999916,"midi":44,"time":10.82608425,"velocity":0.7874015748031497},{"duration":0.13043474999999916,"midi":44,"time":10.82608425,"velocity":0.7874015748031497},{"duration":0.13043474999999916,"midi":39,"time":10.82608425,"velocity":0.7874015748031497},{"duration":0.13043475000000093,"midi":43,"time":10.956518999999998,"velocity":0.7874015748031497},{"duration":0.13043475000000093,"midi":43,"time":10.956518999999998,"velocity":0.7874015748031497},{"duration":0.13043475000000093,"midi":46,"time":10.956518999999998,"velocity":0.7874015748031497},{"duration":0.13043475000000093,"midi":46,"time":10.956518999999998,"velocity":0.7874015748031497},{"duration":0.13043474999999916,"midi":48,"time":11.08695375,"velocity":0.7874015748031497},{"duration":0.13043474999999916,"midi":44,"time":11.08695375,"velocity":0.7874015748031497},{"duration":0.13043474999999916,"midi":44,"time":11.08695375,"velocity":0.7874015748031497},{"duration":0.13043474999999916,"midi":48,"time":11.08695375,"velocity":0.7874015748031497},{"duration":0.13043475000000093,"midi":39,"time":11.217388499999998,"velocity":0.7874015748031497},{"duration":0.13043475000000093,"midi":31,"time":11.217388499999998,"velocity":0.7874015748031497},{"duration":0.13043475000000093,"midi":31,"time":11.217388499999998,"velocity":0.7874015748031497},{"duration":0.13043475000000093,"midi":39,"time":11.217388499999998,"velocity":0.7874015748031497},{"duration":0.13043474999999916,"midi":32,"time":11.34782325,"velocity":0.7874015748031497},{"duration":0.13043474999999916,"midi":41,"time":11.34782325,"velocity":0.7874015748031497},{"duration":0.13043474999999916,"midi":32,"time":11.34782325,"velocity":0.7874015748031497},{"duration":0.13043474999999916,"midi":41,"time":11.34782325,"velocity":0.7874015748031497},{"duration":0.13043475000000093,"midi":36,"time":11.478257999999999,"velocity":0.7874015748031497},{"duration":0.13043475000000093,"midi":44,"time":11.478257999999999,"velocity":0.7874015748031497},{"duration":0.13043475000000093,"midi":36,"time":11.478257999999999,"velocity":0.7874015748031497},{"duration":0.13043475000000093,"midi":44,"time":11.478257999999999,"velocity":0.7874015748031497},{"duration":0.13043474999999916,"midi":41,"time":11.60869275,"velocity":0.7874015748031497},{"duration":0.13043474999999916,"midi":32,"time":11.60869275,"velocity":0.7874015748031497},{"duration":0.13043474999999916,"midi":32,"time":11.60869275,"velocity":0.7874015748031497},{"duration":0.13043474999999916,"midi":41,"time":11.60869275,"velocity":0.7874015748031497},{"duration":0.13043475000000093,"midi":31,"time":11.739127499999999,"velocity":0.7874015748031497},{"duration":0.13043475000000093,"midi":39,"time":11.739127499999999,"velocity":0.7874015748031497},{"duration":0.13043475000000093,"midi":39,"time":11.739127499999999,"velocity":0.7874015748031497},{"duration":0.13043475000000093,"midi":31,"time":11.739127499999999,"velocity":0.7874015748031497},{"duration":0.2608695000000001,"midi":44,"time":11.86956225,"velocity":0.7874015748031497},{"duration":0.2608695000000001,"midi":44,"time":11.86956225,"velocity":0.7874015748031497},{"duration":0.2608695000000001,"midi":53,"time":11.86956225,"velocity":0.7874015748031497},{"duration":0.2608695000000001,"midi":53,"time":11.86956225,"velocity":0.7874015748031497},{"duration":0.13043474999999916,"midi":51,"time":12.13043175,"velocity":0.7874015748031497},{"duration":0.13043474999999916,"midi":51,"time":12.13043175,"velocity":0.7874015748031497},{"duration":0.06521737499999958,"midi":48,"time":12.260866499999999,"velocity":0.7874015748031497},{"duration":0.06521737499999958,"midi":48,"time":12.260866499999999,"velocity":0.7874015748031497},{"duration":0.13043475000000093,"midi":46,"time":12.326083874999998,"velocity":0.7874015748031497},{"duration":0.13043475000000093,"midi":46,"time":12.326083874999998,"velocity":0.7874015748031497},{"duration":0.13043474999999916,"midi":44,"time":12.39130125,"velocity":0.7874015748031497},{"duration":0.13043474999999916,"midi":44,"time":12.39130125,"velocity":0.7874015748031497},{"duration":0.5217390000000002,"midi":41,"time":12.521735999999999,"velocity":0.7874015748031497},{"duration":0.5217390000000002,"midi":41,"time":12.521735999999999,"velocity":0.7874015748031497},{"duration":0.13043474999999916,"midi":34,"time":12.782605499999999,"velocity":0.7874015748031497},{"duration":0.13043474999999916,"midi":34,"time":12.782605499999999,"velocity":0.7874015748031497},{"duration":0.5217390000000002,"midi":43,"time":13.043474999999999,"velocity":0.7874015748031497},{"duration":0.5217390000000002,"midi":43,"time":13.043474999999999,"velocity":0.7874015748031497},{"duration":0.13043474999999916,"midi":34,"time":13.3043445,"velocity":0.7874015748031497},{"duration":0.13043474999999916,"midi":34,"time":13.3043445,"velocity":0.7874015748031497},{"duration":0.5217390000000002,"midi":44,"time":13.565214,"velocity":0.7874015748031497},{"duration":0.5217390000000002,"midi":44,"time":13.565214,"velocity":0.7874015748031497},{"duration":0.13043474999999916,"midi":34,"time":13.8260835,"velocity":0.7874015748031497},{"duration":0.13043474999999916,"midi":34,"time":13.8260835,"velocity":0.7874015748031497},{"duration":0.5217389999999984,"midi":46,"time":14.086953,"velocity":0.7874015748031497},{"duration":0.5217389999999984,"midi":46,"time":14.086953,"velocity":0.7874015748031497},{"duration":0.13043474999999916,"midi":32,"time":14.3478225,"velocity":0.7874015748031497},{"duration":0.13043474999999916,"midi":32,"time":14.3478225,"velocity":0.7874015748031497},{"duration":0.2608695000000001,"midi":36,"time":14.608691999999998,"velocity":0.7874015748031497},{"duration":0.2608695000000001,"midi":36,"time":14.608691999999998,"velocity":0.7874015748031497},{"duration":0.2608695000000001,"midi":36,"time":15.391300499999998,"velocity":0.7874015748031497},{"duration":0.2608695000000001,"midi":36,"time":15.391300499999998,"velocity":0.7874015748031497},{"duration":1.0434780000000003,"midi":36,"time":15.652169999999998,"velocity":0.7874015748031497},{"duration":1.0434780000000003,"midi":36,"time":15.652169999999998,"velocity":0.7874015748031497},{"duration":0.1304347500000027,"midi":48,"time":16.304343749999997,"velocity":0.7874015748031497},{"duration":0.1304347500000027,"midi":48,"time":16.304343749999997,"velocity":0.7874015748031497},{"duration":0.13043474999999916,"midi":50,"time":16.4347785,"velocity":0.7874015748031497},{"duration":0.13043474999999916,"midi":50,"time":16.4347785,"velocity":0.7874015748031497},{"duration":0.13043474999999916,"midi":52,"time":16.56521325,"velocity":0.7874015748031497},{"duration":0.13043474999999916,"midi":52,"time":16.56521325,"velocity":0.7874015748031497},{"duration":0.13043474999999916,"midi":41,"time":16.695648,"velocity":0.7874015748031497},{"duration":0.13043474999999916,"midi":41,"time":16.695648,"velocity":0.7874015748031497},{"duration":0.13043474999999916,"midi":48,"time":16.826082749999998,"velocity":0.7874015748031497},{"duration":0.13043474999999916,"midi":48,"time":16.826082749999998,"velocity":0.7874015748031497},{"duration":0.1304347500000027,"midi":46,"time":16.956517499999997,"velocity":0.7874015748031497},{"duration":0.1304347500000027,"midi":46,"time":16.956517499999997,"velocity":0.7874015748031497},{"duration":0.13043474999999916,"midi":48,"time":17.08695225,"velocity":0.7874015748031497},{"duration":0.13043474999999916,"midi":48,"time":17.08695225,"velocity":0.7874015748031497},{"duration":0.13043474999999916,"midi":41,"time":17.217387,"velocity":0.7874015748031497},{"duration":0.13043474999999916,"midi":41,"time":17.217387,"velocity":0.7874015748031497},{"duration":0.13043474999999916,"midi":48,"time":17.347821749999998,"velocity":0.7874015748031497},{"duration":0.13043474999999916,"midi":48,"time":17.347821749999998,"velocity":0.7874015748031497},{"duration":0.1304347500000027,"midi":46,"time":17.478256499999997,"velocity":0.7874015748031497},{"duration":0.1304347500000027,"midi":46,"time":17.478256499999997,"velocity":0.7874015748031497},{"duration":0.13043474999999916,"midi":48,"time":17.60869125,"velocity":0.7874015748031497},{"duration":0.13043474999999916,"midi":48,"time":17.60869125,"velocity":0.7874015748031497},{"duration":0.13043474999999916,"midi":37,"time":17.739126,"velocity":0.7874015748031497},{"duration":0.13043474999999916,"midi":37,"time":17.739126,"velocity":0.7874015748031497},{"duration":0.13043474999999916,"midi":47,"time":17.869560749999998,"velocity":0.7874015748031497},{"duration":0.13043474999999916,"midi":47,"time":17.869560749999998,"velocity":0.7874015748031497},{"duration":0.1304347500000027,"midi":46,"time":17.999995499999997,"velocity":0.7874015748031497},{"duration":0.1304347500000027,"midi":46,"time":17.999995499999997,"velocity":0.7874015748031497},{"duration":0.13043474999999916,"midi":47,"time":18.13043025,"velocity":0.7874015748031497},{"duration":0.13043474999999916,"midi":47,"time":18.13043025,"velocity":0.7874015748031497},{"duration":0.13043474999999916,"midi":36,"time":18.260865,"velocity":0.7874015748031497},{"duration":0.13043474999999916,"midi":36,"time":18.260865,"velocity":0.7874015748031497},{"duration":0.13043474999999916,"midi":48,"time":18.391299749999998,"velocity":0.7874015748031497},{"duration":0.13043474999999916,"midi":48,"time":18.391299749999998,"velocity":0.7874015748031497},{"duration":0.1304347500000027,"midi":43,"time":18.521734499999997,"velocity":0.7874015748031497},{"duration":0.1304347500000027,"midi":43,"time":18.521734499999997,"velocity":0.7874015748031497},{"duration":0.13043474999999916,"midi":46,"time":18.65216925,"velocity":0.7874015748031497},{"duration":0.13043474999999916,"midi":46,"time":18.65216925,"velocity":0.7874015748031497},{"duration":0.13043474999999916,"midi":41,"time":18.782604,"velocity":0.7874015748031497},{"duration":0.13043474999999916,"midi":41,"time":18.782604,"velocity":0.7874015748031497},{"duration":0.13043474999999916,"midi":48,"time":18.91303875,"velocity":0.7874015748031497},{"duration":0.13043474999999916,"midi":48,"time":18.91303875,"velocity":0.7874015748031497},{"duration":0.13043474999999916,"midi":46,"time":19.043473499999998,"velocity":0.7874015748031497},{"duration":0.13043474999999916,"midi":46,"time":19.043473499999998,"velocity":0.7874015748031497},{"duration":0.1304347500000027,"midi":48,"time":19.173908249999997,"velocity":0.7874015748031497},{"duration":0.1304347500000027,"midi":48,"time":19.173908249999997,"velocity":0.7874015748031497},{"duration":0.13043474999999916,"midi":43,"time":19.304343,"velocity":0.7874015748031497},{"duration":0.13043474999999916,"midi":43,"time":19.304343,"velocity":0.7874015748031497},{"duration":0.13043474999999916,"midi":48,"time":19.43477775,"velocity":0.7874015748031497},{"duration":0.13043474999999916,"midi":48,"time":19.43477775,"velocity":0.7874015748031497},{"duration":0.13043474999999916,"midi":46,"time":19.565212499999998,"velocity":0.7874015748031497},{"duration":0.13043474999999916,"midi":46,"time":19.565212499999998,"velocity":0.7874015748031497},{"duration":0.1304347500000027,"midi":48,"time":19.695647249999997,"velocity":0.7874015748031497},{"duration":0.1304347500000027,"midi":48,"time":19.695647249999997,"velocity":0.7874015748031497},{"duration":0.13043474999999916,"midi":44,"time":19.826082,"velocity":0.7874015748031497},{"duration":0.13043474999999916,"midi":44,"time":19.826082,"velocity":0.7874015748031497},{"duration":0.13043474999999916,"midi":48,"time":19.95651675,"velocity":0.7874015748031497},{"duration":0.13043474999999916,"midi":48,"time":19.95651675,"velocity":0.7874015748031497},{"duration":0.13043474999999916,"midi":46,"time":20.086951499999998,"velocity":0.7874015748031497},{"duration":0.13043474999999916,"midi":46,"time":20.086951499999998,"velocity":0.7874015748031497},{"duration":0.1304347500000027,"midi":48,"time":20.217386249999997,"velocity":0.7874015748031497},{"duration":0.1304347500000027,"midi":48,"time":20.217386249999997,"velocity":0.7874015748031497},{"duration":0.13043474999999916,"midi":46,"time":20.347821,"velocity":0.7874015748031497},{"duration":0.13043474999999916,"midi":46,"time":20.347821,"velocity":0.7874015748031497},{"duration":0.13043474999999916,"midi":49,"time":20.47825575,"velocity":0.7874015748031497},{"duration":0.13043474999999916,"midi":49,"time":20.47825575,"velocity":0.7874015748031497},{"duration":0.13043474999999916,"midi":48,"time":20.608690499999998,"velocity":0.7874015748031497},{"duration":0.13043474999999916,"midi":48,"time":20.608690499999998,"velocity":0.7874015748031497},{"duration":0.1304347500000027,"midi":49,"time":20.739125249999997,"velocity":0.7874015748031497},{"duration":0.1304347500000027,"midi":49,"time":20.739125249999997,"velocity":0.7874015748031497},{"duration":0.13043474999999916,"midi":37,"time":20.86956,"velocity":0.7874015748031497},{"duration":0.13043474999999916,"midi":37,"time":20.86956,"velocity":0.7874015748031497},{"duration":0.13043474999999916,"midi":44,"time":20.99999475,"velocity":0.7874015748031497},{"duration":0.13043474999999916,"midi":44,"time":20.99999475,"velocity":0.7874015748031497},{"duration":0.13043474999999916,"midi":43,"time":21.130429499999998,"velocity":0.7874015748031497},{"duration":0.13043474999999916,"midi":43,"time":21.130429499999998,"velocity":0.7874015748031497},{"duration":0.13043474999999916,"midi":44,"time":21.260864249999997,"velocity":0.7874015748031497},{"duration":0.13043474999999916,"midi":44,"time":21.260864249999997,"velocity":0.7874015748031497},{"duration":0.1304347500000027,"midi":37,"time":21.391298999999997,"velocity":0.7874015748031497},{"duration":0.1304347500000027,"midi":37,"time":21.391298999999997,"velocity":0.7874015748031497},{"duration":0.13043474999999916,"midi":46,"time":21.52173375,"velocity":0.7874015748031497},{"duration":0.13043474999999916,"midi":46,"time":21.52173375,"velocity":0.7874015748031497},{"duration":0.13043474999999916,"midi":44,"time":21.6521685,"velocity":0.7874015748031497},{"duration":0.13043474999999916,"midi":44,"time":21.6521685,"velocity":0.7874015748031497},{"duration":0.13043474999999916,"midi":46,"time":21.782603249999998,"velocity":0.7874015748031497},{"duration":0.13043474999999916,"midi":46,"time":21.782603249999998,"velocity":0.7874015748031497},{"duration":0.1304347500000027,"midi":37,"time":21.913037999999997,"velocity":0.7874015748031497},{"duration":0.1304347500000027,"midi":37,"time":21.913037999999997,"velocity":0.7874015748031497},{"duration":0.13043474999999916,"midi":48,"time":22.04347275,"velocity":0.7874015748031497},{"duration":0.13043474999999916,"midi":48,"time":22.04347275,"velocity":0.7874015748031497},{"duration":0.13043474999999916,"midi":46,"time":22.1739075,"velocity":0.7874015748031497},{"duration":0.13043474999999916,"midi":46,"time":22.1739075,"velocity":0.7874015748031497},{"duration":0.13043474999999916,"midi":48,"time":22.304342249999998,"velocity":0.7874015748031497},{"duration":0.13043474999999916,"midi":48,"time":22.304342249999998,"velocity":0.7874015748031497},{"duration":0.1304347500000027,"midi":37,"time":22.434776999999997,"velocity":0.7874015748031497},{"duration":0.1304347500000027,"midi":37,"time":22.434776999999997,"velocity":0.7874015748031497},{"duration":0.13043474999999916,"midi":49,"time":22.56521175,"velocity":0.7874015748031497},{"duration":0.13043474999999916,"midi":49,"time":22.56521175,"velocity":0.7874015748031497},{"duration":0.13043474999999916,"midi":48,"time":22.6956465,"velocity":0.7874015748031497},{"duration":0.13043474999999916,"midi":48,"time":22.6956465,"velocity":0.7874015748031497},{"duration":0.13043474999999916,"midi":49,"time":22.826081249999998,"velocity":0.7874015748031497},{"duration":0.13043474999999916,"midi":49,"time":22.826081249999998,"velocity":0.7874015748031497},{"duration":0.26086950000000186,"midi":36,"time":22.956515999999997,"velocity":0.7874015748031497},{"duration":0.26086950000000186,"midi":36,"time":22.956515999999997,"velocity":0.7874015748031497},{"duration":0.2608694999999983,"midi":36,"time":23.7391245,"velocity":0.7874015748031497},{"duration":0.2608694999999983,"midi":36,"time":23.7391245,"velocity":0.7874015748031497},{"duration":1.0434780000000003,"midi":36,"time":23.999993999999997,"velocity":0.7874015748031497},{"duration":1.0434780000000003,"midi":36,"time":23.999993999999997,"velocity":0.7874015748031497},{"duration":0.1304347500000027,"midi":48,"time":24.652167749999997,"velocity":0.7874015748031497},{"duration":0.1304347500000027,"midi":48,"time":24.652167749999997,"velocity":0.7874015748031497},{"duration":0.13043474999999916,"midi":50,"time":24.7826025,"velocity":0.7874015748031497},{"duration":0.13043474999999916,"midi":50,"time":24.7826025,"velocity":0.7874015748031497},{"duration":0.13043474999999916,"midi":52,"time":24.91303725,"velocity":0.7874015748031497},{"duration":0.13043474999999916,"midi":52,"time":24.91303725,"velocity":0.7874015748031497},{"duration":0.2608694999999983,"midi":53,"time":25.043471999999998,"velocity":0.7874015748031497},{"duration":0.2608694999999983,"midi":48,"time":25.043471999999998,"velocity":0.7874015748031497},{"duration":0.2608694999999983,"midi":48,"time":25.043471999999998,"velocity":0.7874015748031497},{"duration":0.2608694999999983,"midi":53,"time":25.043471999999998,"velocity":0.7874015748031497},{"duration":0.26086950000000186,"midi":44,"time":25.304341499999996,"velocity":0.7874015748031497},{"duration":0.26086950000000186,"midi":48,"time":25.304341499999996,"velocity":0.7874015748031497},{"duration":0.26086950000000186,"midi":48,"time":25.304341499999996,"velocity":0.7874015748031497},{"duration":0.26086950000000186,"midi":44,"time":25.304341499999996,"velocity":0.7874015748031497},{"duration":0.2608694999999983,"midi":44,"time":25.565210999999998,"velocity":0.7874015748031497},{"duration":0.2608694999999983,"midi":41,"time":25.565210999999998,"velocity":0.7874015748031497},{"duration":0.2608694999999983,"midi":44,"time":25.565210999999998,"velocity":0.7874015748031497},{"duration":0.2608694999999983,"midi":41,"time":25.565210999999998,"velocity":0.7874015748031497},{"duration":0.26086950000000186,"midi":36,"time":25.826080499999996,"velocity":0.7874015748031497},{"duration":0.26086950000000186,"midi":41,"time":25.826080499999996,"velocity":0.7874015748031497},{"duration":0.26086950000000186,"midi":36,"time":25.826080499999996,"velocity":0.7874015748031497},{"duration":0.26086950000000186,"midi":41,"time":25.826080499999996,"velocity":0.7874015748031497},{"duration":0.13043474999999916,"midi":47,"time":26.217384749999997,"velocity":0.7874015748031497},{"duration":0.13043474999999916,"midi":47,"time":26.217384749999997,"velocity":0.7874015748031497},{"duration":0.13043474999999916,"midi":44,"time":26.217384749999997,"velocity":0.7874015748031497},{"duration":0.13043474999999916,"midi":44,"time":26.217384749999997,"velocity":0.7874015748031497},{"duration":0.26086950000000186,"midi":41,"time":26.347819499999996,"velocity":0.7874015748031497},{"duration":0.26086950000000186,"midi":41,"time":26.347819499999996,"velocity":0.7874015748031497},{"duration":0.26086950000000186,"midi":46,"time":26.347819499999996,"velocity":0.7874015748031497},{"duration":0.26086950000000186,"midi":46,"time":26.347819499999996,"velocity":0.7874015748031497},{"duration":0.13043474999999916,"midi":43,"time":26.608689,"velocity":0.7874015748031497},{"duration":0.13043474999999916,"midi":46,"time":26.608689,"velocity":0.7874015748031497},{"duration":0.13043474999999916,"midi":46,"time":26.608689,"velocity":0.7874015748031497},{"duration":0.13043474999999916,"midi":43,"time":26.608689,"velocity":0.7874015748031497},{"duration":0.13043474999999916,"midi":40,"time":26.739123749999997,"velocity":0.7874015748031497},{"duration":0.13043474999999916,"midi":44,"time":26.739123749999997,"velocity":0.7874015748031497},{"duration":0.13043474999999916,"midi":44,"time":26.739123749999997,"velocity":0.7874015748031497},{"duration":0.13043474999999916,"midi":40,"time":26.739123749999997,"velocity":0.7874015748031497},{"duration":0.1304347500000027,"midi":39,"time":26.869558499999997,"velocity":0.7874015748031497},{"duration":0.1304347500000027,"midi":39,"time":26.869558499999997,"velocity":0.7874015748031497},{"duration":0.1304347500000027,"midi":34,"time":26.869558499999997,"velocity":0.7874015748031497},{"duration":0.1304347500000027,"midi":34,"time":26.869558499999997,"velocity":0.7874015748031497},{"duration":0.13043474999999916,"midi":40,"time":26.99999325,"velocity":0.7874015748031497},{"duration":0.13043474999999916,"midi":37,"time":26.99999325,"velocity":0.7874015748031497},{"duration":0.13043474999999916,"midi":37,"time":26.99999325,"velocity":0.7874015748031497},{"duration":0.13043474999999916,"midi":40,"time":26.99999325,"velocity":0.7874015748031497},{"duration":0.13043474999999916,"midi":48,"time":27.260862749999998,"velocity":0.7874015748031497},{"duration":0.13043474999999916,"midi":44,"time":27.260862749999998,"velocity":0.7874015748031497},{"duration":0.13043474999999916,"midi":44,"time":27.260862749999998,"velocity":0.7874015748031497},{"duration":0.13043474999999916,"midi":48,"time":27.260862749999998,"velocity":0.7874015748031497},{"duration":0.13043474999999916,"midi":46,"time":27.391297499999997,"velocity":0.7874015748031497},{"duration":0.13043474999999916,"midi":41,"time":27.391297499999997,"velocity":0.7874015748031497},{"duration":0.13043474999999916,"midi":41,"time":27.391297499999997,"velocity":0.7874015748031497},{"duration":0.13043474999999916,"midi":46,"time":27.391297499999997,"velocity":0.7874015748031497},{"duration":0.1304347500000027,"midi":39,"time":27.521732249999996,"velocity":0.7874015748031497},{"duration":0.1304347500000027,"midi":44,"time":27.521732249999996,"velocity":0.7874015748031497},{"duration":0.1304347500000027,"midi":39,"time":27.521732249999996,"velocity":0.7874015748031497},{"duration":0.1304347500000027,"midi":44,"time":27.521732249999996,"velocity":0.7874015748031497},{"duration":0.13043474999999916,"midi":46,"time":27.652167,"velocity":0.7874015748031497},{"duration":0.13043474999999916,"midi":43,"time":27.652167,"velocity":0.7874015748031497},{"duration":0.13043474999999916,"midi":43,"time":27.652167,"velocity":0.7874015748031497},{"duration":0.13043474999999916,"midi":46,"time":27.652167,"velocity":0.7874015748031497},{"duration":0.13043474999999916,"midi":44,"time":27.782601749999998,"velocity":0.7874015748031497},{"duration":0.13043474999999916,"midi":48,"time":27.782601749999998,"velocity":0.7874015748031497},{"duration":0.13043474999999916,"midi":44,"time":27.782601749999998,"velocity":0.7874015748031497},{"duration":0.13043474999999916,"midi":48,"time":27.782601749999998,"velocity":0.7874015748031497},{"duration":0.13043474999999916,"midi":31,"time":27.913036499999997,"velocity":0.7874015748031497},{"duration":0.13043474999999916,"midi":39,"time":27.913036499999997,"velocity":0.7874015748031497},{"duration":0.13043474999999916,"midi":39,"time":27.913036499999997,"velocity":0.7874015748031497},{"duration":0.13043474999999916,"midi":31,"time":27.913036499999997,"velocity":0.7874015748031497},{"duration":0.1304347500000027,"midi":41,"time":28.043471249999996,"velocity":0.7874015748031497},{"duration":0.1304347500000027,"midi":32,"time":28.043471249999996,"velocity":0.7874015748031497},{"duration":0.1304347500000027,"midi":32,"time":28.043471249999996,"velocity":0.7874015748031497},{"duration":0.1304347500000027,"midi":41,"time":28.043471249999996,"velocity":0.7874015748031497},{"duration":0.13043474999999916,"midi":44,"time":28.173906,"velocity":0.7874015748031497},{"duration":0.13043474999999916,"midi":36,"time":28.173906,"velocity":0.7874015748031497},{"duration":0.13043474999999916,"midi":44,"time":28.173906,"velocity":0.7874015748031497},{"duration":0.13043474999999916,"midi":36,"time":28.173906,"velocity":0.7874015748031497},{"duration":0.13043474999999916,"midi":32,"time":28.304340749999998,"velocity":0.7874015748031497},{"duration":0.13043474999999916,"midi":41,"time":28.304340749999998,"velocity":0.7874015748031497},{"duration":0.13043474999999916,"midi":32,"time":28.304340749999998,"velocity":0.7874015748031497},{"duration":0.13043474999999916,"midi":41,"time":28.304340749999998,"velocity":0.7874015748031497},{"duration":0.13043474999999916,"midi":39,"time":28.434775499999997,"velocity":0.7874015748031497},{"duration":0.13043474999999916,"midi":31,"time":28.434775499999997,"velocity":0.7874015748031497},{"duration":0.13043474999999916,"midi":31,"time":28.434775499999997,"velocity":0.7874015748031497},{"duration":0.13043474999999916,"midi":39,"time":28.434775499999997,"velocity":0.7874015748031497},{"duration":0.26086950000000186,"midi":53,"time":28.565210249999996,"velocity":0.7874015748031497},{"duration":0.26086950000000186,"midi":44,"time":28.565210249999996,"velocity":0.7874015748031497},{"duration":0.26086950000000186,"midi":44,"time":28.565210249999996,"velocity":0.7874015748031497},{"duration":0.26086950000000186,"midi":53,"time":28.565210249999996,"velocity":0.7874015748031497},{"duration":0.13043474999999916,"midi":51,"time":28.826079749999998,"velocity":0.7874015748031497},{"duration":0.13043474999999916,"midi":51,"time":28.826079749999998,"velocity":0.7874015748031497},{"duration":0.06521737499999958,"midi":48,"time":28.956514499999997,"velocity":0.7874015748031497},{"duration":0.06521737499999958,"midi":48,"time":28.956514499999997,"velocity":0.7874015748031497},{"duration":0.13043474999999916,"midi":46,"time":29.021731874999997,"velocity":0.7874015748031497},{"duration":0.13043474999999916,"midi":46,"time":29.021731874999997,"velocity":0.7874015748031497},{"duration":0.13043474999999916,"midi":44,"time":29.086949249999996,"velocity":0.7874015748031497},{"duration":0.13043474999999916,"midi":44,"time":29.086949249999996,"velocity":0.7874015748031497},{"duration":0.5217390000000002,"midi":41,"time":29.217383999999996,"velocity":0.7874015748031497},{"duration":0.5217390000000002,"midi":41,"time":29.217383999999996,"velocity":0.7874015748031497},{"duration":0.13043474999999916,"midi":34,"time":29.478253499999997,"velocity":0.7874015748031497},{"duration":0.13043474999999916,"midi":34,"time":29.478253499999997,"velocity":0.7874015748031497},{"duration":0.5217390000000002,"midi":43,"time":29.739122999999996,"velocity":0.7874015748031497},{"duration":0.5217390000000002,"midi":43,"time":29.739122999999996,"velocity":0.7874015748031497},{"duration":0.13043474999999916,"midi":34,"time":29.999992499999998,"velocity":0.7874015748031497},{"duration":0.13043474999999916,"midi":34,"time":29.999992499999998,"velocity":0.7874015748031497},{"duration":0.5217390000000002,"midi":44,"time":30.260861999999996,"velocity":0.7874015748031497},{"duration":0.5217390000000002,"midi":44,"time":30.260861999999996,"velocity":0.7874015748031497},{"duration":0.13043474999999916,"midi":34,"time":30.521731499999998,"velocity":0.7874015748031497},{"duration":0.13043474999999916,"midi":34,"time":30.521731499999998,"velocity":0.7874015748031497},{"duration":0.5217390000000002,"midi":46,"time":30.782600999999996,"velocity":0.7874015748031497},{"duration":0.5217390000000002,"midi":46,"time":30.782600999999996,"velocity":0.7874015748031497},{"duration":0.13043474999999916,"midi":32,"time":31.043470499999998,"velocity":0.7874015748031497},{"duration":0.13043474999999916,"midi":32,"time":31.043470499999998,"velocity":0.7874015748031497},{"duration":0.26086950000000186,"midi":48,"time":31.304339999999996,"velocity":0.7874015748031497},{"duration":0.26086950000000186,"midi":48,"time":31.304339999999996,"velocity":0.7874015748031497},{"duration":0.2608694999999983,"midi":41,"time":31.565209499999998,"velocity":0.7874015748031497},{"duration":0.2608694999999983,"midi":41,"time":31.565209499999998,"velocity":0.7874015748031497},{"duration":0.26086950000000186,"midi":53,"time":31.826078999999996,"velocity":0.7874015748031497},{"duration":0.26086950000000186,"midi":53,"time":31.826078999999996,"velocity":0.7874015748031497},{"duration":0.2608694999999983,"midi":41,"time":32.0869485,"velocity":0.7874015748031497},{"duration":0.2608694999999983,"midi":41,"time":32.0869485,"velocity":0.7874015748031497},{"duration":0.2608694999999983,"midi":52,"time":32.347818,"velocity":0.7874015748031497},{"duration":0.2608694999999983,"midi":52,"time":32.347818,"velocity":0.7874015748031497},{"duration":0.2608695000000054,"midi":49,"time":32.608687499999995,"velocity":0.7874015748031497},{"duration":0.2608695000000054,"midi":49,"time":32.608687499999995,"velocity":0.7874015748031497},{"duration":0.2608694999999983,"midi":48,"time":32.869557,"velocity":0.7874015748031497},{"duration":0.2608694999999983,"midi":48,"time":32.869557,"velocity":0.7874015748031497},{"duration":0.13043474999999916,"midi":51,"time":33.1304265,"velocity":0.7874015748031497},{"duration":0.13043474999999916,"midi":51,"time":33.1304265,"velocity":0.7874015748031497},{"duration":0.13043474999999916,"midi":52,"time":33.26086125,"velocity":0.7874015748031497},{"duration":0.13043474999999916,"midi":52,"time":33.26086125,"velocity":0.7874015748031497},{"duration":0.13043474999999916,"midi":53,"time":33.391296,"velocity":0.7874015748031497},{"duration":0.13043474999999916,"midi":41,"time":33.391296,"velocity":0.7874015748031497},{"duration":0.13043474999999916,"midi":53,"time":33.391296,"velocity":0.7874015748031497},{"duration":0.13043474999999916,"midi":41,"time":33.391296,"velocity":0.7874015748031497},{"duration":0.13043474999999916,"midi":48,"time":33.521730749999996,"velocity":0.7874015748031497},{"duration":0.13043474999999916,"midi":48,"time":33.521730749999996,"velocity":0.7874015748031497},{"duration":0.13043474999999916,"midi":49,"time":33.652165499999995,"velocity":0.7874015748031497},{"duration":0.13043474999999916,"midi":49,"time":33.652165499999995,"velocity":0.7874015748031497},{"duration":0.13043474999999916,"midi":48,"time":33.782600249999994,"velocity":0.7874015748031497},{"duration":0.13043474999999916,"midi":48,"time":33.782600249999994,"velocity":0.7874015748031497},{"duration":0.13043475000000626,"midi":41,"time":33.913034999999994,"velocity":0.7874015748031497},{"duration":0.13043475000000626,"midi":41,"time":33.913034999999994,"velocity":0.7874015748031497},{"duration":0.13043474999999916,"midi":48,"time":34.04346975,"velocity":0.7874015748031497},{"duration":0.13043474999999916,"midi":48,"time":34.04346975,"velocity":0.7874015748031497},{"duration":0.13043474999999916,"midi":53,"time":34.1739045,"velocity":0.7874015748031497},{"duration":0.13043474999999916,"midi":53,"time":34.1739045,"velocity":0.7874015748031497},{"duration":0.13043474999999916,"midi":48,"time":34.30433925,"velocity":0.7874015748031497},{"duration":0.13043474999999916,"midi":48,"time":34.30433925,"velocity":0.7874015748031497},{"duration":0.13043474999999916,"midi":46,"time":34.434774,"velocity":0.7874015748031497},{"duration":0.13043474999999916,"midi":46,"time":34.434774,"velocity":0.7874015748031497},{"duration":0.13043474999999916,"midi":53,"time":34.56520875,"velocity":0.7874015748031497},{"duration":0.13043474999999916,"midi":53,"time":34.56520875,"velocity":0.7874015748031497},{"duration":0.13043474999999916,"midi":56,"time":34.695643499999996,"velocity":0.7874015748031497},{"duration":0.13043474999999916,"midi":56,"time":34.695643499999996,"velocity":0.7874015748031497},{"duration":0.13043474999999916,"midi":53,"time":34.826078249999995,"velocity":0.7874015748031497},{"duration":0.13043474999999916,"midi":53,"time":34.826078249999995,"velocity":0.7874015748031497},{"duration":0.13043475000000626,"midi":46,"time":34.956512999999994,"velocity":0.7874015748031497},{"duration":0.13043475000000626,"midi":46,"time":34.956512999999994,"velocity":0.7874015748031497},{"duration":0.13043474999999916,"midi":53,"time":35.08694775,"velocity":0.7874015748031497},{"duration":0.13043474999999916,"midi":53,"time":35.08694775,"velocity":0.7874015748031497},{"duration":0.13043474999999916,"midi":55,"time":35.2173825,"velocity":0.7874015748031497},{"duration":0.13043474999999916,"midi":55,"time":35.2173825,"velocity":0.7874015748031497},{"duration":0.13043474999999916,"midi":53,"time":35.34781725,"velocity":0.7874015748031497},{"duration":0.13043474999999916,"midi":53,"time":35.34781725,"velocity":0.7874015748031497},{"duration":0.13043474999999916,"midi":49,"time":35.478252,"velocity":0.7874015748031497},{"duration":0.13043474999999916,"midi":49,"time":35.478252,"velocity":0.7874015748031497},{"duration":0.13043474999999916,"midi":53,"time":35.60868675,"velocity":0.7874015748031497},{"duration":0.13043474999999916,"midi":53,"time":35.60868675,"velocity":0.7874015748031497},{"duration":0.13043474999999916,"midi":56,"time":35.739121499999996,"velocity":0.7874015748031497},{"duration":0.13043474999999916,"midi":56,"time":35.739121499999996,"velocity":0.7874015748031497},{"duration":0.13043474999999916,"midi":53,"time":35.869556249999995,"velocity":0.7874015748031497},{"duration":0.13043474999999916,"midi":53,"time":35.869556249999995,"velocity":0.7874015748031497},{"duration":0.13043474999999916,"midi":49,"time":35.999990999999994,"velocity":0.7874015748031497},{"duration":0.13043474999999916,"midi":49,"time":35.999990999999994,"velocity":0.7874015748031497},{"duration":0.13043475000000626,"midi":53,"time":36.13042574999999,"velocity":0.7874015748031497},{"duration":0.13043475000000626,"midi":53,"time":36.13042574999999,"velocity":0.7874015748031497},{"duration":0.13043474999999916,"midi":55,"time":36.2608605,"velocity":0.7874015748031497},{"duration":0.13043474999999916,"midi":55,"time":36.2608605,"velocity":0.7874015748031497},{"duration":0.13043474999999916,"midi":53,"time":36.39129525,"velocity":0.7874015748031497},{"duration":0.13043474999999916,"midi":53,"time":36.39129525,"velocity":0.7874015748031497},{"duration":0.13043474999999916,"midi":48,"time":36.52173,"velocity":0.7874015748031497},{"duration":0.13043474999999916,"midi":48,"time":36.52173,"velocity":0.7874015748031497},{"duration":0.13043474999999916,"midi":53,"time":36.65216475,"velocity":0.7874015748031497},{"duration":0.13043474999999916,"midi":53,"time":36.65216475,"velocity":0.7874015748031497},{"duration":0.13043474999999916,"midi":56,"time":36.782599499999996,"velocity":0.7874015748031497},{"duration":0.13043474999999916,"midi":56,"time":36.782599499999996,"velocity":0.7874015748031497},{"duration":0.13043474999999916,"midi":53,"time":36.913034249999995,"velocity":0.7874015748031497},{"duration":0.13043474999999916,"midi":53,"time":36.913034249999995,"velocity":0.7874015748031497},{"duration":0.13043474999999916,"midi":48,"time":37.043468999999995,"velocity":0.7874015748031497},{"duration":0.13043474999999916,"midi":48,"time":37.043468999999995,"velocity":0.7874015748031497},{"duration":0.13043475000000626,"midi":52,"time":37.173903749999994,"velocity":0.7874015748031497},{"duration":0.13043475000000626,"midi":52,"time":37.173903749999994,"velocity":0.7874015748031497},{"duration":0.13043474999999916,"midi":55,"time":37.3043385,"velocity":0.7874015748031497},{"duration":0.13043474999999916,"midi":55,"time":37.3043385,"velocity":0.7874015748031497},{"duration":0.13043474999999916,"midi":52,"time":37.43477325,"velocity":0.7874015748031497},{"duration":0.13043474999999916,"midi":52,"time":37.43477325,"velocity":0.7874015748031497},{"duration":0.13043474999999916,"midi":41,"time":37.565208,"velocity":0.7874015748031497},{"duration":0.13043474999999916,"midi":41,"time":37.565208,"velocity":0.7874015748031497},{"duration":0.13043474999999916,"midi":48,"time":37.69564275,"velocity":0.7874015748031497},{"duration":0.13043474999999916,"midi":48,"time":37.69564275,"velocity":0.7874015748031497},{"duration":0.13043474999999916,"midi":49,"time":37.8260775,"velocity":0.7874015748031497},{"duration":0.13043474999999916,"midi":49,"time":37.8260775,"velocity":0.7874015748031497},{"duration":0.13043474999999916,"midi":48,"time":37.956512249999996,"velocity":0.7874015748031497},{"duration":0.13043474999999916,"midi":48,"time":37.956512249999996,"velocity":0.7874015748031497},{"duration":0.13043474999999916,"midi":41,"time":38.086946999999995,"velocity":0.7874015748031497},{"duration":0.13043474999999916,"midi":41,"time":38.086946999999995,"velocity":0.7874015748031497},{"duration":0.13043474999999916,"midi":48,"time":38.217381749999994,"velocity":0.7874015748031497},{"duration":0.13043474999999916,"midi":48,"time":38.217381749999994,"velocity":0.7874015748031497},{"duration":0.13043475000000626,"midi":53,"time":38.34781649999999,"velocity":0.7874015748031497},{"duration":0.13043475000000626,"midi":53,"time":38.34781649999999,"velocity":0.7874015748031497},{"duration":0.13043474999999916,"midi":48,"time":38.47825125,"velocity":0.7874015748031497},{"duration":0.13043474999999916,"midi":48,"time":38.47825125,"velocity":0.7874015748031497},{"duration":0.13043474999999916,"midi":46,"time":38.608686,"velocity":0.7874015748031497},{"duration":0.13043474999999916,"midi":46,"time":38.608686,"velocity":0.7874015748031497},{"duration":0.13043474999999916,"midi":53,"time":38.73912075,"velocity":0.7874015748031497},{"duration":0.13043474999999916,"midi":53,"time":38.73912075,"velocity":0.7874015748031497},{"duration":0.13043474999999916,"midi":56,"time":38.8695555,"velocity":0.7874015748031497},{"duration":0.13043474999999916,"midi":56,"time":38.8695555,"velocity":0.7874015748031497},{"duration":0.13043474999999916,"midi":53,"time":38.999990249999996,"velocity":0.7874015748031497},{"duration":0.13043474999999916,"midi":53,"time":38.999990249999996,"velocity":0.7874015748031497},{"duration":0.13043474999999916,"midi":46,"time":39.130424999999995,"velocity":0.7874015748031497},{"duration":0.13043474999999916,"midi":46,"time":39.130424999999995,"velocity":0.7874015748031497},{"duration":0.13043474999999916,"midi":53,"time":39.260859749999995,"velocity":0.7874015748031497},{"duration":0.13043474999999916,"midi":53,"time":39.260859749999995,"velocity":0.7874015748031497},{"duration":0.13043475000000626,"midi":55,"time":39.391294499999994,"velocity":0.7874015748031497},{"duration":0.13043475000000626,"midi":55,"time":39.391294499999994,"velocity":0.7874015748031497},{"duration":0.13043474999999916,"midi":53,"time":39.52172925,"velocity":0.7874015748031497},{"duration":0.13043474999999916,"midi":53,"time":39.52172925,"velocity":0.7874015748031497},{"duration":0.13043474999999916,"midi":49,"time":39.652164,"velocity":0.7874015748031497},{"duration":0.13043474999999916,"midi":49,"time":39.652164,"velocity":0.7874015748031497},{"duration":0.13043474999999916,"midi":53,"time":39.78259875,"velocity":0.7874015748031497},{"duration":0.13043474999999916,"midi":53,"time":39.78259875,"velocity":0.7874015748031497},{"duration":0.13043474999999916,"midi":56,"time":39.9130335,"velocity":0.7874015748031497},{"duration":0.13043474999999916,"midi":56,"time":39.9130335,"velocity":0.7874015748031497},{"duration":0.13043474999999916,"midi":53,"time":40.04346825,"velocity":0.7874015748031497},{"duration":0.13043474999999916,"midi":53,"time":40.04346825,"velocity":0.7874015748031497},{"duration":0.13043474999999916,"midi":49,"time":40.173902999999996,"velocity":0.7874015748031497},{"duration":0.13043474999999916,"midi":49,"time":40.173902999999996,"velocity":0.7874015748031497},{"duration":0.13043474999999916,"midi":53,"time":40.304337749999995,"velocity":0.7874015748031497},{"duration":0.13043474999999916,"midi":53,"time":40.304337749999995,"velocity":0.7874015748031497},{"duration":0.13043474999999916,"midi":55,"time":40.434772499999994,"velocity":0.7874015748031497},{"duration":0.13043474999999916,"midi":55,"time":40.434772499999994,"velocity":0.7874015748031497},{"duration":0.13043475000000626,"midi":53,"time":40.56520724999999,"velocity":0.7874015748031497},{"duration":0.13043475000000626,"midi":53,"time":40.56520724999999,"velocity":0.7874015748031497},{"duration":0.13043474999999916,"midi":48,"time":40.695642,"velocity":0.7874015748031497},{"duration":0.13043474999999916,"midi":48,"time":40.695642,"velocity":0.7874015748031497},{"duration":0.13043474999999916,"midi":53,"time":40.82607675,"velocity":0.7874015748031497},{"duration":0.13043474999999916,"midi":53,"time":40.82607675,"velocity":0.7874015748031497},{"duration":0.13043474999999916,"midi":56,"time":40.9565115,"velocity":0.7874015748031497},{"duration":0.13043474999999916,"midi":56,"time":40.9565115,"velocity":0.7874015748031497},{"duration":0.13043474999999916,"midi":53,"time":41.08694625,"velocity":0.7874015748031497},{"duration":0.13043474999999916,"midi":53,"time":41.08694625,"velocity":0.7874015748031497},{"duration":0.13043474999999916,"midi":48,"time":41.217380999999996,"velocity":0.7874015748031497},{"duration":0.13043474999999916,"midi":48,"time":41.217380999999996,"velocity":0.7874015748031497},{"duration":0.13043474999999916,"midi":52,"time":41.347815749999995,"velocity":0.7874015748031497},{"duration":0.13043474999999916,"midi":52,"time":41.347815749999995,"velocity":0.7874015748031497},{"duration":0.13043474999999916,"midi":55,"time":41.478250499999994,"velocity":0.7874015748031497},{"duration":0.13043474999999916,"midi":55,"time":41.478250499999994,"velocity":0.7874015748031497},{"duration":0.13043475000000626,"midi":52,"time":41.60868524999999,"velocity":0.7874015748031497},{"duration":0.13043475000000626,"midi":52,"time":41.60868524999999,"velocity":0.7874015748031497},{"duration":0.13043474999999916,"midi":41,"time":41.73912,"velocity":0.7874015748031497},{"duration":0.13043474999999916,"midi":41,"time":41.73912,"velocity":0.7874015748031497},{"duration":0.13043474999999916,"midi":48,"time":41.86955475,"velocity":0.7874015748031497},{"duration":0.13043474999999916,"midi":48,"time":41.86955475,"velocity":0.7874015748031497},{"duration":0.13043474999999916,"midi":49,"time":41.9999895,"velocity":0.7874015748031497},{"duration":0.13043474999999916,"midi":49,"time":41.9999895,"velocity":0.7874015748031497},{"duration":0.13043474999999916,"midi":48,"time":42.13042425,"velocity":0.7874015748031497},{"duration":0.13043474999999916,"midi":48,"time":42.13042425,"velocity":0.7874015748031497},{"duration":0.13043474999999916,"midi":41,"time":42.260858999999996,"velocity":0.7874015748031497},{"duration":0.13043474999999916,"midi":41,"time":42.260858999999996,"velocity":0.7874015748031497},{"duration":0.13043474999999916,"midi":48,"time":42.391293749999996,"velocity":0.7874015748031497},{"duration":0.13043474999999916,"midi":48,"time":42.391293749999996,"velocity":0.7874015748031497},{"duration":0.13043474999999916,"midi":53,"time":42.521728499999995,"velocity":0.7874015748031497},{"duration":0.13043474999999916,"midi":53,"time":42.521728499999995,"velocity":0.7874015748031497},{"duration":0.13043474999999916,"midi":48,"time":42.652163249999994,"velocity":0.7874015748031497},{"duration":0.13043474999999916,"midi":48,"time":42.652163249999994,"velocity":0.7874015748031497},{"duration":0.13043475000000626,"midi":46,"time":42.78259799999999,"velocity":0.7874015748031497},{"duration":0.13043475000000626,"midi":46,"time":42.78259799999999,"velocity":0.7874015748031497},{"duration":0.13043474999999916,"midi":53,"time":42.91303275,"velocity":0.7874015748031497},{"duration":0.13043474999999916,"midi":53,"time":42.91303275,"velocity":0.7874015748031497},{"duration":0.13043474999999916,"midi":56,"time":43.0434675,"velocity":0.7874015748031497},{"duration":0.13043474999999916,"midi":56,"time":43.0434675,"velocity":0.7874015748031497},{"duration":0.13043474999999916,"midi":53,"time":43.17390225,"velocity":0.7874015748031497},{"duration":0.13043474999999916,"midi":53,"time":43.17390225,"velocity":0.7874015748031497},{"duration":0.13043474999999916,"midi":46,"time":43.304337,"velocity":0.7874015748031497},{"duration":0.13043474999999916,"midi":46,"time":43.304337,"velocity":0.7874015748031497},{"duration":0.13043474999999916,"midi":53,"time":43.434771749999996,"velocity":0.7874015748031497},{"duration":0.13043474999999916,"midi":53,"time":43.434771749999996,"velocity":0.7874015748031497},{"duration":0.13043474999999916,"midi":55,"time":43.565206499999995,"velocity":0.7874015748031497},{"duration":0.13043474999999916,"midi":55,"time":43.565206499999995,"velocity":0.7874015748031497},{"duration":0.13043474999999916,"midi":53,"time":43.695641249999994,"velocity":0.7874015748031497},{"duration":0.13043474999999916,"midi":53,"time":43.695641249999994,"velocity":0.7874015748031497},{"duration":0.13043474999999916,"midi":49,"time":43.82607599999999,"velocity":0.7874015748031497},{"duration":0.13043474999999916,"midi":49,"time":43.82607599999999,"velocity":0.7874015748031497},{"duration":0.13043475000000626,"midi":53,"time":43.95651074999999,"velocity":0.7874015748031497},{"duration":0.13043475000000626,"midi":53,"time":43.95651074999999,"velocity":0.7874015748031497},{"duration":0.13043474999999916,"midi":56,"time":44.0869455,"velocity":0.7874015748031497},{"duration":0.13043474999999916,"midi":56,"time":44.0869455,"velocity":0.7874015748031497},{"duration":0.13043474999999916,"midi":53,"time":44.21738025,"velocity":0.7874015748031497},{"duration":0.13043474999999916,"midi":53,"time":44.21738025,"velocity":0.7874015748031497},{"duration":0.13043474999999916,"midi":49,"time":44.347815,"velocity":0.7874015748031497},{"duration":0.13043474999999916,"midi":49,"time":44.347815,"velocity":0.7874015748031497},{"duration":0.13043474999999916,"midi":53,"time":44.478249749999996,"velocity":0.7874015748031497},{"duration":0.13043474999999916,"midi":53,"time":44.478249749999996,"velocity":0.7874015748031497},{"duration":0.13043474999999916,"midi":55,"time":44.608684499999995,"velocity":0.7874015748031497},{"duration":0.13043474999999916,"midi":55,"time":44.608684499999995,"velocity":0.7874015748031497},{"duration":0.13043474999999916,"midi":53,"time":44.739119249999995,"velocity":0.7874015748031497},{"duration":0.13043474999999916,"midi":53,"time":44.739119249999995,"velocity":0.7874015748031497},{"duration":0.13043474999999916,"midi":48,"time":44.869553999999994,"velocity":0.7874015748031497},{"duration":0.13043474999999916,"midi":48,"time":44.869553999999994,"velocity":0.7874015748031497},{"duration":0.13043475000000626,"midi":53,"time":44.99998874999999,"velocity":0.7874015748031497},{"duration":0.13043475000000626,"midi":53,"time":44.99998874999999,"velocity":0.7874015748031497},{"duration":0.13043474999999916,"midi":56,"time":45.1304235,"velocity":0.7874015748031497},{"duration":0.13043474999999916,"midi":56,"time":45.1304235,"velocity":0.7874015748031497},{"duration":0.13043474999999916,"midi":53,"time":45.26085825,"velocity":0.7874015748031497},{"duration":0.13043474999999916,"midi":53,"time":45.26085825,"velocity":0.7874015748031497},{"duration":0.13043474999999916,"midi":48,"time":45.391293,"velocity":0.7874015748031497},{"duration":0.13043474999999916,"midi":48,"time":45.391293,"velocity":0.7874015748031497},{"duration":0.13043474999999916,"midi":52,"time":45.52172775,"velocity":0.7874015748031497},{"duration":0.13043474999999916,"midi":52,"time":45.52172775,"velocity":0.7874015748031497},{"duration":0.13043474999999916,"midi":55,"time":45.652162499999996,"velocity":0.7874015748031497},{"duration":0.13043474999999916,"midi":55,"time":45.652162499999996,"velocity":0.7874015748031497},{"duration":0.13043474999999916,"midi":52,"time":45.782597249999995,"velocity":0.7874015748031497},{"duration":0.13043474999999916,"midi":52,"time":45.782597249999995,"velocity":0.7874015748031497},{"duration":0.13043474999999916,"midi":41,"time":45.913031999999994,"velocity":0.7874015748031497},{"duration":0.13043474999999916,"midi":41,"time":45.913031999999994,"velocity":0.7874015748031497},{"duration":0.13043474999999916,"midi":48,"time":46.04346674999999,"velocity":0.7874015748031497},{"duration":0.13043474999999916,"midi":48,"time":46.04346674999999,"velocity":0.7874015748031497},{"duration":0.13043475000000626,"midi":49,"time":46.17390149999999,"velocity":0.7874015748031497},{"duration":0.13043475000000626,"midi":49,"time":46.17390149999999,"velocity":0.7874015748031497},{"duration":0.13043474999999916,"midi":48,"time":46.30433625,"velocity":0.7874015748031497},{"duration":0.13043474999999916,"midi":48,"time":46.30433625,"velocity":0.7874015748031497},{"duration":0.13043474999999916,"midi":41,"time":46.434771,"velocity":0.7874015748031497},{"duration":0.13043474999999916,"midi":41,"time":46.434771,"velocity":0.7874015748031497},{"duration":0.13043474999999916,"midi":48,"time":46.56520575,"velocity":0.7874015748031497},{"duration":0.13043474999999916,"midi":48,"time":46.56520575,"velocity":0.7874015748031497},{"duration":0.13043474999999916,"midi":53,"time":46.695640499999996,"velocity":0.7874015748031497},{"duration":0.13043474999999916,"midi":53,"time":46.695640499999996,"velocity":0.7874015748031497},{"duration":0.13043474999999916,"midi":48,"time":46.826075249999995,"velocity":0.7874015748031497},{"duration":0.13043474999999916,"midi":48,"time":46.826075249999995,"velocity":0.7874015748031497},{"duration":0.13043474999999916,"midi":46,"time":46.956509999999994,"velocity":0.7874015748031497},{"duration":0.13043474999999916,"midi":46,"time":46.956509999999994,"velocity":0.7874015748031497},{"duration":0.13043474999999916,"midi":53,"time":47.086944749999994,"velocity":0.7874015748031497},{"duration":0.13043474999999916,"midi":53,"time":47.086944749999994,"velocity":0.7874015748031497},{"duration":0.13043475000000626,"midi":56,"time":47.21737949999999,"velocity":0.7874015748031497},{"duration":0.13043475000000626,"midi":56,"time":47.21737949999999,"velocity":0.7874015748031497},{"duration":0.13043474999999916,"midi":53,"time":47.34781425,"velocity":0.7874015748031497},{"duration":0.13043474999999916,"midi":53,"time":47.34781425,"velocity":0.7874015748031497},{"duration":0.13043474999999916,"midi":46,"time":47.478249,"velocity":0.7874015748031497},{"duration":0.13043474999999916,"midi":46,"time":47.478249,"velocity":0.7874015748031497},{"duration":0.13043474999999916,"midi":53,"time":47.60868375,"velocity":0.7874015748031497},{"duration":0.13043474999999916,"midi":53,"time":47.60868375,"velocity":0.7874015748031497},{"duration":0.13043474999999916,"midi":49,"time":47.7391185,"velocity":0.7874015748031497},{"duration":0.13043474999999916,"midi":49,"time":47.7391185,"velocity":0.7874015748031497},{"duration":0.13043474999999916,"midi":54,"time":47.869553249999996,"velocity":0.7874015748031497},{"duration":0.13043474999999916,"midi":54,"time":47.869553249999996,"velocity":0.7874015748031497},{"duration":0.13043474999999916,"midi":49,"time":47.999987999999995,"velocity":0.7874015748031497},{"duration":0.13043474999999916,"midi":49,"time":47.999987999999995,"velocity":0.7874015748031497},{"duration":0.13043474999999916,"midi":53,"time":48.130422749999994,"velocity":0.7874015748031497},{"duration":0.13043474999999916,"midi":53,"time":48.130422749999994,"velocity":0.7874015748031497},{"duration":0.13043474999999916,"midi":56,"time":48.26085749999999,"velocity":0.7874015748031497},{"duration":0.13043474999999916,"midi":56,"time":48.26085749999999,"velocity":0.7874015748031497},{"duration":0.13043475000000626,"midi":53,"time":48.39129224999999,"velocity":0.7874015748031497},{"duration":0.13043475000000626,"midi":53,"time":48.39129224999999,"velocity":0.7874015748031497},{"duration":0.13043474999999916,"midi":48,"time":48.521727,"velocity":0.7874015748031497},{"duration":0.13043474999999916,"midi":48,"time":48.521727,"velocity":0.7874015748031497},{"duration":0.13043474999999916,"midi":52,"time":48.65216175,"velocity":0.7874015748031497},{"duration":0.13043474999999916,"midi":52,"time":48.65216175,"velocity":0.7874015748031497},{"duration":0.13043474999999916,"midi":55,"time":48.7825965,"velocity":0.7874015748031497},{"duration":0.13043474999999916,"midi":55,"time":48.7825965,"velocity":0.7874015748031497},{"duration":0.13043474999999916,"midi":52,"time":48.913031249999996,"velocity":0.7874015748031497},{"duration":0.13043474999999916,"midi":52,"time":48.913031249999996,"velocity":0.7874015748031497},{"duration":0.13043474999999916,"midi":49,"time":49.043465999999995,"velocity":0.7874015748031497},{"duration":0.13043474999999916,"midi":49,"time":49.043465999999995,"velocity":0.7874015748031497},{"duration":0.13043474999999916,"midi":56,"time":49.173900749999994,"velocity":0.7874015748031497},{"duration":0.13043474999999916,"midi":56,"time":49.173900749999994,"velocity":0.7874015748031497},{"duration":0.13043474999999916,"midi":48,"time":49.30433549999999,"velocity":0.7874015748031497},{"duration":0.13043474999999916,"midi":48,"time":49.30433549999999,"velocity":0.7874015748031497},{"duration":0.13043475000000626,"midi":55,"time":49.43477024999999,"velocity":0.7874015748031497},{"duration":0.13043475000000626,"midi":55,"time":49.43477024999999,"velocity":0.7874015748031497},{"duration":0.2608694999999983,"midi":53,"time":49.565205,"velocity":0.7874015748031497},{"duration":0.2608694999999983,"midi":53,"time":49.565205,"velocity":0.7874015748031497},{"duration":0.2608694999999983,"midi":41,"time":49.8260745,"velocity":0.7874015748031497},{"duration":0.2608694999999983,"midi":41,"time":49.8260745,"velocity":0.7874015748031497},{"duration":0.13043475000000626,"midi":41,"time":58.43476799999999,"velocity":0.7874015748031497},{"duration":0.13043475000000626,"midi":41,"time":58.43476799999999,"velocity":0.7874015748031497},{"duration":0.13043474999999916,"midi":48,"time":58.56520275,"velocity":0.7874015748031497},{"duration":0.13043474999999916,"midi":48,"time":58.56520275,"velocity":0.7874015748031497},{"duration":0.13043474999999916,"midi":49,"time":58.6956375,"velocity":0.7874015748031497},{"duration":0.13043474999999916,"midi":49,"time":58.6956375,"velocity":0.7874015748031497},{"duration":0.13043474999999916,"midi":48,"time":58.826072249999996,"velocity":0.7874015748031497},{"duration":0.13043474999999916,"midi":48,"time":58.826072249999996,"velocity":0.7874015748031497},{"duration":0.13043474999999916,"midi":41,"time":58.956506999999995,"velocity":0.7874015748031497},{"duration":0.13043474999999916,"midi":41,"time":58.956506999999995,"velocity":0.7874015748031497},{"duration":0.13043474999999916,"midi":48,"time":59.086941749999994,"velocity":0.7874015748031497},{"duration":0.13043474999999916,"midi":48,"time":59.086941749999994,"velocity":0.7874015748031497},{"duration":0.13043474999999916,"midi":53,"time":59.21737649999999,"velocity":0.7874015748031497},{"duration":0.13043474999999916,"midi":53,"time":59.21737649999999,"velocity":0.7874015748031497},{"duration":0.13043474999999916,"midi":48,"time":59.34781124999999,"velocity":0.7874015748031497},{"duration":0.13043474999999916,"midi":48,"time":59.34781124999999,"velocity":0.7874015748031497},{"duration":0.13043475000000626,"midi":46,"time":59.47824599999999,"velocity":0.7874015748031497},{"duration":0.13043475000000626,"midi":46,"time":59.47824599999999,"velocity":0.7874015748031497},{"duration":0.13043474999999916,"midi":53,"time":59.60868075,"velocity":0.7874015748031497},{"duration":0.13043474999999916,"midi":53,"time":59.60868075,"velocity":0.7874015748031497},{"duration":0.13043474999999916,"midi":56,"time":59.7391155,"velocity":0.7874015748031497},{"duration":0.13043474999999916,"midi":56,"time":59.7391155,"velocity":0.7874015748031497},{"duration":0.13043474999999916,"midi":53,"time":59.869550249999996,"velocity":0.7874015748031497},{"duration":0.13043474999999916,"midi":53,"time":59.869550249999996,"velocity":0.7874015748031497},{"duration":0.13043474999999916,"midi":46,"time":59.999984999999995,"velocity":0.7874015748031497},{"duration":0.13043474999999916,"midi":46,"time":59.999984999999995,"velocity":0.7874015748031497},{"duration":0.13043474999999916,"midi":53,"time":60.130419749999994,"velocity":0.7874015748031497},{"duration":0.13043474999999916,"midi":53,"time":60.130419749999994,"velocity":0.7874015748031497},{"duration":0.13043474999999916,"midi":55,"time":60.26085449999999,"velocity":0.7874015748031497},{"duration":0.13043474999999916,"midi":55,"time":60.26085449999999,"velocity":0.7874015748031497},{"duration":0.13043474999999916,"midi":53,"time":60.39128924999999,"velocity":0.7874015748031497},{"duration":0.13043474999999916,"midi":53,"time":60.39128924999999,"velocity":0.7874015748031497},{"duration":0.13043474999999916,"midi":49,"time":60.52172399999999,"velocity":0.7874015748031497},{"duration":0.13043474999999916,"midi":49,"time":60.52172399999999,"velocity":0.7874015748031497},{"duration":0.13043475000000626,"midi":53,"time":60.65215874999999,"velocity":0.7874015748031497},{"duration":0.13043475000000626,"midi":53,"time":60.65215874999999,"velocity":0.7874015748031497},{"duration":0.13043474999999916,"midi":56,"time":60.7825935,"velocity":0.7874015748031497},{"duration":0.13043474999999916,"midi":56,"time":60.7825935,"velocity":0.7874015748031497},{"duration":0.13043474999999916,"midi":53,"time":60.913028249999996,"velocity":0.7874015748031497},{"duration":0.13043474999999916,"midi":53,"time":60.913028249999996,"velocity":0.7874015748031497},{"duration":0.13043474999999916,"midi":49,"time":61.043462999999996,"velocity":0.7874015748031497},{"duration":0.13043474999999916,"midi":49,"time":61.043462999999996,"velocity":0.7874015748031497},{"duration":0.13043474999999916,"midi":53,"time":61.173897749999995,"velocity":0.7874015748031497},{"duration":0.13043474999999916,"midi":53,"time":61.173897749999995,"velocity":0.7874015748031497},{"duration":0.13043474999999916,"midi":55,"time":61.304332499999994,"velocity":0.7874015748031497},{"duration":0.13043474999999916,"midi":55,"time":61.304332499999994,"velocity":0.7874015748031497},{"duration":0.13043474999999916,"midi":53,"time":61.43476724999999,"velocity":0.7874015748031497},{"duration":0.13043474999999916,"midi":53,"time":61.43476724999999,"velocity":0.7874015748031497},{"duration":0.13043474999999916,"midi":48,"time":61.56520199999999,"velocity":0.7874015748031497},{"duration":0.13043474999999916,"midi":48,"time":61.56520199999999,"velocity":0.7874015748031497},{"duration":0.13043475000000626,"midi":53,"time":61.69563674999999,"velocity":0.7874015748031497},{"duration":0.13043475000000626,"midi":53,"time":61.69563674999999,"velocity":0.7874015748031497},{"duration":0.13043474999999916,"midi":56,"time":61.8260715,"velocity":0.7874015748031497},{"duration":0.13043474999999916,"midi":56,"time":61.8260715,"velocity":0.7874015748031497},{"duration":0.13043474999999916,"midi":53,"time":61.95650625,"velocity":0.7874015748031497},{"duration":0.13043474999999916,"midi":53,"time":61.95650625,"velocity":0.7874015748031497},{"duration":0.13043474999999916,"midi":48,"time":62.086940999999996,"velocity":0.7874015748031497},{"duration":0.13043474999999916,"midi":48,"time":62.086940999999996,"velocity":0.7874015748031497},{"duration":0.13043474999999916,"midi":52,"time":62.217375749999995,"velocity":0.7874015748031497},{"duration":0.13043474999999916,"midi":52,"time":62.217375749999995,"velocity":0.7874015748031497},{"duration":0.13043474999999916,"midi":55,"time":62.347810499999994,"velocity":0.7874015748031497},{"duration":0.13043474999999916,"midi":55,"time":62.347810499999994,"velocity":0.7874015748031497},{"duration":0.13043474999999916,"midi":52,"time":62.47824524999999,"velocity":0.7874015748031497},{"duration":0.13043474999999916,"midi":52,"time":62.47824524999999,"velocity":0.7874015748031497},{"duration":0.13043474999999916,"midi":41,"time":62.60867999999999,"velocity":0.7874015748031497},{"duration":0.13043474999999916,"midi":41,"time":62.60867999999999,"velocity":0.7874015748031497},{"duration":0.13043474999999916,"midi":48,"time":62.73911474999999,"velocity":0.7874015748031497},{"duration":0.13043474999999916,"midi":48,"time":62.73911474999999,"velocity":0.7874015748031497},{"duration":0.13043475000000626,"midi":49,"time":62.86954949999999,"velocity":0.7874015748031497},{"duration":0.13043475000000626,"midi":49,"time":62.86954949999999,"velocity":0.7874015748031497},{"duration":0.13043474999999916,"midi":48,"time":62.99998425,"velocity":0.7874015748031497},{"duration":0.13043474999999916,"midi":48,"time":62.99998425,"velocity":0.7874015748031497},{"duration":0.13043474999999916,"midi":41,"time":63.130418999999996,"velocity":0.7874015748031497},{"duration":0.13043474999999916,"midi":41,"time":63.130418999999996,"velocity":0.7874015748031497},{"duration":0.13043474999999916,"midi":48,"time":63.260853749999995,"velocity":0.7874015748031497},{"duration":0.13043474999999916,"midi":48,"time":63.260853749999995,"velocity":0.7874015748031497},{"duration":0.13043474999999916,"midi":53,"time":63.391288499999995,"velocity":0.7874015748031497},{"duration":0.13043474999999916,"midi":53,"time":63.391288499999995,"velocity":0.7874015748031497},{"duration":0.13043474999999916,"midi":48,"time":63.521723249999994,"velocity":0.7874015748031497},{"duration":0.13043474999999916,"midi":48,"time":63.521723249999994,"velocity":0.7874015748031497},{"duration":0.13043474999999916,"midi":46,"time":63.65215799999999,"velocity":0.7874015748031497},{"duration":0.13043474999999916,"midi":46,"time":63.65215799999999,"velocity":0.7874015748031497},{"duration":0.13043474999999916,"midi":53,"time":63.78259274999999,"velocity":0.7874015748031497},{"duration":0.13043474999999916,"midi":53,"time":63.78259274999999,"velocity":0.7874015748031497},{"duration":0.13043474999999916,"midi":56,"time":63.91302749999999,"velocity":0.7874015748031497},{"duration":0.13043474999999916,"midi":56,"time":63.91302749999999,"velocity":0.7874015748031497},{"duration":0.13043475000000626,"midi":53,"time":64.04346224999999,"velocity":0.7874015748031497},{"duration":0.13043475000000626,"midi":53,"time":64.04346224999999,"velocity":0.7874015748031497},{"duration":0.13043474999999205,"midi":46,"time":64.173897,"velocity":0.7874015748031497},{"duration":0.13043474999999205,"midi":46,"time":64.173897,"velocity":0.7874015748031497},{"duration":0.13043475000000626,"midi":53,"time":64.30433174999999,"velocity":0.7874015748031497},{"duration":0.13043475000000626,"midi":53,"time":64.30433174999999,"velocity":0.7874015748031497},{"duration":0.13043475000000626,"midi":49,"time":64.4347665,"velocity":0.7874015748031497},{"duration":0.13043475000000626,"midi":49,"time":64.4347665,"velocity":0.7874015748031497},{"duration":0.13043474999999205,"midi":54,"time":64.56520125,"velocity":0.7874015748031497},{"duration":0.13043474999999205,"midi":54,"time":64.56520125,"velocity":0.7874015748031497},{"duration":0.13043475000000626,"midi":49,"time":64.695636,"velocity":0.7874015748031497},{"duration":0.13043475000000626,"midi":49,"time":64.695636,"velocity":0.7874015748031497},{"duration":0.13043474999999205,"midi":53,"time":64.82607075,"velocity":0.7874015748031497},{"duration":0.13043474999999205,"midi":53,"time":64.82607075,"velocity":0.7874015748031497},{"duration":0.13043475000000626,"midi":56,"time":64.95650549999999,"velocity":0.7874015748031497},{"duration":0.13043475000000626,"midi":56,"time":64.95650549999999,"velocity":0.7874015748031497},{"duration":0.13043474999999205,"midi":53,"time":65.08694025,"velocity":0.7874015748031497},{"duration":0.13043474999999205,"midi":53,"time":65.08694025,"velocity":0.7874015748031497},{"duration":0.13043475000000626,"midi":48,"time":65.21737499999999,"velocity":0.7874015748031497},{"duration":0.13043475000000626,"midi":48,"time":65.21737499999999,"velocity":0.7874015748031497},{"duration":0.13043474999999205,"midi":52,"time":65.34780975,"velocity":0.7874015748031497},{"duration":0.13043474999999205,"midi":52,"time":65.34780975,"velocity":0.7874015748031497},{"duration":0.13043475000000626,"midi":55,"time":65.47824449999999,"velocity":0.7874015748031497},{"duration":0.13043475000000626,"midi":55,"time":65.47824449999999,"velocity":0.7874015748031497},{"duration":0.13043475000000626,"midi":52,"time":65.60867925,"velocity":0.7874015748031497},{"duration":0.13043475000000626,"midi":52,"time":65.60867925,"velocity":0.7874015748031497},{"duration":0.13043474999999205,"midi":49,"time":65.739114,"velocity":0.7874015748031497},{"duration":0.13043474999999205,"midi":49,"time":65.739114,"velocity":0.7874015748031497},{"duration":0.13043475000000626,"midi":56,"time":65.86954874999999,"velocity":0.7874015748031497},{"duration":0.13043475000000626,"midi":56,"time":65.86954874999999,"velocity":0.7874015748031497},{"duration":0.13043474999999205,"midi":48,"time":65.9999835,"velocity":0.7874015748031497},{"duration":0.13043474999999205,"midi":48,"time":65.9999835,"velocity":0.7874015748031497},{"duration":0.13043475000000626,"midi":55,"time":66.13041824999999,"velocity":0.7874015748031497},{"duration":0.13043475000000626,"midi":55,"time":66.13041824999999,"velocity":0.7874015748031497},{"duration":0.2608694999999983,"midi":53,"time":66.260853,"velocity":0.7874015748031497},{"duration":0.2608694999999983,"midi":53,"time":66.260853,"velocity":0.7874015748031497},{"duration":0.13043475000000626,"midi":48,"time":98.08693199999999,"velocity":0.7874015748031497},{"duration":0.13043475000000626,"midi":48,"time":98.08693199999999,"velocity":0.7874015748031497},{"duration":0.13043474999999205,"midi":48,"time":98.21736675,"velocity":0.7874015748031497},{"duration":0.13043474999999205,"midi":48,"time":98.21736675,"velocity":0.7874015748031497},{"duration":0.13043475000000626,"midi":60,"time":98.34780149999999,"velocity":0.7874015748031497},{"duration":0.13043475000000626,"midi":60,"time":98.34780149999999,"velocity":0.7874015748031497},{"duration":0.13043474999999205,"midi":48,"time":98.47823625,"velocity":0.7874015748031497},{"duration":0.13043474999999205,"midi":48,"time":98.47823625,"velocity":0.7874015748031497},{"duration":0.13043475000000626,"midi":48,"time":98.60867099999999,"velocity":0.7874015748031497},{"duration":0.13043475000000626,"midi":48,"time":98.60867099999999,"velocity":0.7874015748031497},{"duration":0.13043474999999205,"midi":48,"time":98.73910575,"velocity":0.7874015748031497},{"duration":0.13043474999999205,"midi":48,"time":98.73910575,"velocity":0.7874015748031497},{"duration":0.13043475000000626,"midi":60,"time":98.86954049999999,"velocity":0.7874015748031497},{"duration":0.13043475000000626,"midi":60,"time":98.86954049999999,"velocity":0.7874015748031497},{"duration":0.13043475000000626,"midi":48,"time":98.99997524999999,"velocity":0.7874015748031497},{"duration":0.13043475000000626,"midi":48,"time":98.99997524999999,"velocity":0.7874015748031497}]},{"instrument":{"family":"guitar","number":24,"name":"acoustic guitar (nylon)"},"notes":[{"duration":0.2608695,"midi":77,"time":0,"velocity":0.5590551181102362},{"duration":0.2608695,"midi":72,"time":0,"velocity":0.5590551181102362},{"duration":0.2608695,"midi":72,"time":0,"velocity":0.5590551181102362},{"duration":0.2608695,"midi":77,"time":0,"velocity":0.5590551181102362},{"duration":0.2608695,"midi":72,"time":0.2608695,"velocity":0.5590551181102362},{"duration":0.2608695,"midi":72,"time":0.2608695,"velocity":0.5590551181102362},{"duration":0.2608695,"midi":68,"time":0.2608695,"velocity":0.5590551181102362},{"duration":0.2608695,"midi":68,"time":0.2608695,"velocity":0.5590551181102362},{"duration":0.2608695,"midi":68,"time":0.521739,"velocity":0.5590551181102362},{"duration":0.2608695,"midi":65,"time":0.521739,"velocity":0.5590551181102362},{"duration":0.2608695,"midi":68,"time":0.521739,"velocity":0.5590551181102362},{"duration":0.2608695,"midi":65,"time":0.521739,"velocity":0.5590551181102362},{"duration":0.2608695,"midi":60,"time":0.7826084999999999,"velocity":0.5590551181102362},{"duration":0.2608695,"midi":65,"time":0.7826084999999999,"velocity":0.5590551181102362},{"duration":0.2608695,"midi":65,"time":0.7826084999999999,"velocity":0.5590551181102362},{"duration":0.2608695,"midi":60,"time":0.7826084999999999,"velocity":0.5590551181102362},{"duration":0.13043475000000004,"midi":68,"time":1.17391275,"velocity":0.5590551181102362},{"duration":0.13043475000000004,"midi":72,"time":1.17391275,"velocity":0.5590551181102362},{"duration":0.13043475000000004,"midi":72,"time":1.17391275,"velocity":0.5590551181102362},{"duration":0.13043475000000004,"midi":68,"time":1.17391275,"velocity":0.5590551181102362},{"duration":0.26086949999999987,"midi":65,"time":1.3043475,"velocity":0.5590551181102362},{"duration":0.26086949999999987,"midi":70,"time":1.3043475,"velocity":0.5590551181102362},{"duration":0.26086949999999987,"midi":65,"time":1.3043475,"velocity":0.5590551181102362},{"duration":0.26086949999999987,"midi":70,"time":1.3043475,"velocity":0.5590551181102362},{"duration":0.13043475000000004,"midi":70,"time":1.5652169999999999,"velocity":0.5590551181102362},{"duration":0.13043475000000004,"midi":67,"time":1.5652169999999999,"velocity":0.5590551181102362},{"duration":0.13043475000000004,"midi":70,"time":1.5652169999999999,"velocity":0.5590551181102362},{"duration":0.13043475000000004,"midi":67,"time":1.5652169999999999,"velocity":0.5590551181102362},{"duration":0.13043474999999982,"midi":63,"time":1.69565175,"velocity":0.5590551181102362},{"duration":0.13043474999999982,"midi":63,"time":1.69565175,"velocity":0.5590551181102362},{"duration":0.13043474999999982,"midi":68,"time":1.69565175,"velocity":0.5590551181102362},{"duration":0.13043474999999982,"midi":68,"time":1.69565175,"velocity":0.5590551181102362},{"duration":0.13043475000000004,"midi":58,"time":1.8260864999999997,"velocity":0.5590551181102362},{"duration":0.13043475000000004,"midi":58,"time":1.8260864999999997,"velocity":0.5590551181102362},{"duration":0.13043475000000004,"midi":63,"time":1.8260864999999997,"velocity":0.5590551181102362},{"duration":0.13043475000000004,"midi":63,"time":1.8260864999999997,"velocity":0.5590551181102362},{"duration":0.13043475000000004,"midi":65,"time":1.9565212499999998,"velocity":0.5590551181102362},{"duration":0.13043475000000004,"midi":61,"time":1.9565212499999998,"velocity":0.5590551181102362},{"duration":0.13043475000000004,"midi":61,"time":1.9565212499999998,"velocity":0.5590551181102362},{"duration":0.13043475000000004,"midi":65,"time":1.9565212499999998,"velocity":0.5590551181102362},{"duration":0.13043475000000004,"midi":70,"time":1.9565212499999998,"velocity":0.5590551181102362},{"duration":0.13043475000000004,"midi":70,"time":1.9565212499999998,"velocity":0.5590551181102362},{"duration":0.13043475000000004,"midi":72,"time":2.21739075,"velocity":0.5590551181102362},{"duration":0.13043475000000004,"midi":72,"time":2.21739075,"velocity":0.5590551181102362},{"duration":0.13043475000000004,"midi":68,"time":2.21739075,"velocity":0.5590551181102362},{"duration":0.13043475000000004,"midi":68,"time":2.21739075,"velocity":0.5590551181102362},{"duration":0.13043475000000004,"midi":65,"time":2.3478255,"velocity":0.5590551181102362},{"duration":0.13043475000000004,"midi":70,"time":2.3478255,"velocity":0.5590551181102362},{"duration":0.13043475000000004,"midi":70,"time":2.3478255,"velocity":0.5590551181102362},{"duration":0.13043475000000004,"midi":65,"time":2.3478255,"velocity":0.5590551181102362},{"duration":0.13043475000000004,"midi":68,"time":2.47826025,"velocity":0.5590551181102362},{"duration":0.13043475000000004,"midi":68,"time":2.47826025,"velocity":0.5590551181102362},{"duration":0.13043475000000004,"midi":63,"time":2.47826025,"velocity":0.5590551181102362},{"duration":0.13043475000000004,"midi":63,"time":2.47826025,"velocity":0.5590551181102362},{"duration":0.1304347499999996,"midi":70,"time":2.608695,"velocity":0.5590551181102362},{"duration":0.1304347499999996,"midi":70,"time":2.608695,"velocity":0.5590551181102362},{"duration":0.1304347499999996,"midi":67,"time":2.608695,"velocity":0.5590551181102362},{"duration":0.1304347499999996,"midi":67,"time":2.608695,"velocity":0.5590551181102362},{"duration":0.13043475000000004,"midi":72,"time":2.7391297499999996,"velocity":0.5590551181102362},{"duration":0.13043475000000004,"midi":68,"time":2.7391297499999996,"velocity":0.5590551181102362},{"duration":0.13043475000000004,"midi":72,"time":2.7391297499999996,"velocity":0.5590551181102362},{"duration":0.13043475000000004,"midi":68,"time":2.7391297499999996,"velocity":0.5590551181102362},{"duration":0.13043475000000004,"midi":63,"time":2.8695644999999996,"velocity":0.5590551181102362},{"duration":0.13043475000000004,"midi":55,"time":2.8695644999999996,"velocity":0.5590551181102362},{"duration":0.13043475000000004,"midi":55,"time":2.8695644999999996,"velocity":0.5590551181102362},{"duration":0.13043475000000004,"midi":63,"time":2.8695644999999996,"velocity":0.5590551181102362},{"duration":0.13043475000000004,"midi":56,"time":2.9999992499999997,"velocity":0.5590551181102362},{"duration":0.13043475000000004,"midi":56,"time":2.9999992499999997,"velocity":0.5590551181102362},{"duration":0.13043475000000004,"midi":65,"time":2.9999992499999997,"velocity":0.5590551181102362},{"duration":0.13043475000000004,"midi":65,"time":2.9999992499999997,"velocity":0.5590551181102362},{"duration":0.13043475000000004,"midi":60,"time":3.1304339999999997,"velocity":0.5590551181102362},{"duration":0.13043475000000004,"midi":68,"time":3.1304339999999997,"velocity":0.5590551181102362},{"duration":0.13043475000000004,"midi":68,"time":3.1304339999999997,"velocity":0.5590551181102362},{"duration":0.13043475000000004,"midi":60,"time":3.1304339999999997,"velocity":0.5590551181102362},{"duration":0.13043475000000004,"midi":56,"time":3.2608687499999998,"velocity":0.5590551181102362},{"duration":0.13043475000000004,"midi":65,"time":3.2608687499999998,"velocity":0.5590551181102362},{"duration":0.13043475000000004,"midi":65,"time":3.2608687499999998,"velocity":0.5590551181102362},{"duration":0.13043475000000004,"midi":56,"time":3.2608687499999998,"velocity":0.5590551181102362},{"duration":0.13043475000000004,"midi":63,"time":3.3913035,"velocity":0.5590551181102362},{"duration":0.13043475000000004,"midi":55,"time":3.3913035,"velocity":0.5590551181102362},{"duration":0.13043475000000004,"midi":63,"time":3.3913035,"velocity":0.5590551181102362},{"duration":0.13043475000000004,"midi":55,"time":3.3913035,"velocity":0.5590551181102362},{"duration":0.26086949999999964,"midi":68,"time":3.52173825,"velocity":0.5590551181102362},{"duration":0.26086949999999964,"midi":68,"time":3.52173825,"velocity":0.5590551181102362},{"duration":0.26086949999999964,"midi":77,"time":3.52173825,"velocity":0.5590551181102362},{"duration":0.26086949999999964,"midi":77,"time":3.52173825,"velocity":0.5590551181102362},{"duration":0.13043475000000004,"midi":75,"time":3.7826077499999995,"velocity":0.5590551181102362},{"duration":0.13043475000000004,"midi":75,"time":3.7826077499999995,"velocity":0.5590551181102362},{"duration":0.13043475000000004,"midi":72,"time":3.9130424999999995,"velocity":0.5590551181102362},{"duration":0.13043475000000004,"midi":72,"time":3.9130424999999995,"velocity":0.5590551181102362},{"duration":0.1304347500000005,"midi":70,"time":3.9782598749999996,"velocity":0.5590551181102362},{"duration":0.1304347500000005,"midi":70,"time":3.9782598749999996,"velocity":0.5590551181102362},{"duration":0.13043475000000004,"midi":68,"time":4.04347725,"velocity":0.5590551181102362},{"duration":0.13043475000000004,"midi":68,"time":4.04347725,"velocity":0.5590551181102362},{"duration":0.5217390000000002,"midi":65,"time":4.173912,"velocity":0.5590551181102362},{"duration":0.5217390000000002,"midi":65,"time":4.173912,"velocity":0.5590551181102362},{"duration":0.13043475000000004,"midi":58,"time":4.4347815,"velocity":0.5590551181102362},{"duration":0.13043475000000004,"midi":58,"time":4.4347815,"velocity":0.5590551181102362},{"duration":0.5217390000000002,"midi":67,"time":4.695651,"velocity":0.5590551181102362},{"duration":0.5217390000000002,"midi":67,"time":4.695651,"velocity":0.5590551181102362},{"duration":0.13043475000000004,"midi":58,"time":4.9565205,"velocity":0.5590551181102362},{"duration":0.13043475000000004,"midi":58,"time":4.9565205,"velocity":0.5590551181102362},{"duration":0.5217389999999993,"midi":68,"time":5.21739,"velocity":0.5590551181102362},{"duration":0.5217389999999993,"midi":68,"time":5.21739,"velocity":0.5590551181102362},{"duration":0.13043475000000004,"midi":58,"time":5.478259499999999,"velocity":0.5590551181102362},{"duration":0.13043475000000004,"midi":58,"time":5.478259499999999,"velocity":0.5590551181102362},{"duration":0.5217390000000002,"midi":70,"time":5.739128999999999,"velocity":0.5590551181102362},{"duration":0.5217390000000002,"midi":70,"time":5.739128999999999,"velocity":0.5590551181102362},{"duration":0.13043475000000004,"midi":56,"time":5.999998499999999,"velocity":0.5590551181102362},{"duration":0.13043475000000004,"midi":56,"time":5.999998499999999,"velocity":0.5590551181102362},{"duration":0.2608695000000001,"midi":68,"time":6.260867999999999,"velocity":0.5590551181102362},{"duration":0.2608695000000001,"midi":72,"time":6.260867999999999,"velocity":0.5590551181102362},{"duration":0.2608695000000001,"midi":68,"time":6.260867999999999,"velocity":0.5590551181102362},{"duration":0.2608695000000001,"midi":72,"time":6.260867999999999,"velocity":0.5590551181102362},{"duration":0.2608695000000001,"midi":70,"time":6.5217374999999995,"velocity":0.5590551181102362},{"duration":0.2608695000000001,"midi":61,"time":6.5217374999999995,"velocity":0.5590551181102362},{"duration":0.2608695000000001,"midi":61,"time":6.5217374999999995,"velocity":0.5590551181102362},{"duration":0.2608695000000001,"midi":70,"time":6.5217374999999995,"velocity":0.5590551181102362},{"duration":0.2608695000000001,"midi":72,"time":6.782607,"velocity":0.5590551181102362},{"duration":0.2608695000000001,"midi":77,"time":6.782607,"velocity":0.5590551181102362},{"duration":0.2608695000000001,"midi":72,"time":6.782607,"velocity":0.5590551181102362},{"duration":0.2608695000000001,"midi":77,"time":6.782607,"velocity":0.5590551181102362},{"duration":0.2608694999999992,"midi":72,"time":7.0434765,"velocity":0.5590551181102362},{"duration":0.2608694999999992,"midi":65,"time":7.0434765,"velocity":0.5590551181102362},{"duration":0.2608694999999992,"midi":72,"time":7.0434765,"velocity":0.5590551181102362},{"duration":0.2608694999999992,"midi":65,"time":7.0434765,"velocity":0.5590551181102362},{"duration":0.2608695000000001,"midi":76,"time":7.304345999999999,"velocity":0.5590551181102362},{"duration":0.2608695000000001,"midi":76,"time":7.304345999999999,"velocity":0.5590551181102362},{"duration":0.2608695000000001,"midi":70,"time":7.304345999999999,"velocity":0.5590551181102362},{"duration":0.2608695000000001,"midi":70,"time":7.304345999999999,"velocity":0.5590551181102362},{"duration":0.2608695000000001,"midi":72,"time":7.565215499999999,"velocity":0.5590551181102362},{"duration":0.2608695000000001,"midi":68,"time":7.565215499999999,"velocity":0.5590551181102362},{"duration":0.2608695000000001,"midi":72,"time":7.565215499999999,"velocity":0.5590551181102362},{"duration":0.2608695000000001,"midi":68,"time":7.565215499999999,"velocity":0.5590551181102362},{"duration":0.5217390000000002,"midi":67,"time":7.826084999999999,"velocity":0.5590551181102362},{"duration":0.5217390000000002,"midi":70,"time":7.826084999999999,"velocity":0.5590551181102362},{"duration":0.5217390000000002,"midi":70,"time":7.826084999999999,"velocity":0.5590551181102362},{"duration":0.5217390000000002,"midi":67,"time":7.826084999999999,"velocity":0.5590551181102362},{"duration":0.13043474999999916,"midi":77,"time":8.347824,"velocity":0.5590551181102362},{"duration":0.13043474999999916,"midi":77,"time":8.347824,"velocity":0.5590551181102362},{"duration":0.13043475000000093,"midi":84,"time":8.478258749999998,"velocity":0.5590551181102362},{"duration":0.13043475000000093,"midi":84,"time":8.478258749999998,"velocity":0.5590551181102362},{"duration":0.13043474999999916,"midi":82,"time":8.6086935,"velocity":0.5590551181102362},{"duration":0.13043474999999916,"midi":82,"time":8.6086935,"velocity":0.5590551181102362},{"duration":0.13043475000000093,"midi":84,"time":8.739128249999998,"velocity":0.5590551181102362},{"duration":0.13043475000000093,"midi":84,"time":8.739128249999998,"velocity":0.5590551181102362},{"duration":0.13043474999999916,"midi":77,"time":8.869563,"velocity":0.5590551181102362},{"duration":0.13043474999999916,"midi":77,"time":8.869563,"velocity":0.5590551181102362},{"duration":0.13043475000000093,"midi":84,"time":8.999997749999999,"velocity":0.5590551181102362},{"duration":0.13043475000000093,"midi":84,"time":8.999997749999999,"velocity":0.5590551181102362},{"duration":0.13043474999999916,"midi":82,"time":9.1304325,"velocity":0.5590551181102362},{"duration":0.13043474999999916,"midi":82,"time":9.1304325,"velocity":0.5590551181102362},{"duration":0.13043475000000093,"midi":84,"time":9.260867249999999,"velocity":0.5590551181102362},{"duration":0.13043475000000093,"midi":84,"time":9.260867249999999,"velocity":0.5590551181102362},{"duration":0.13043474999999916,"midi":73,"time":9.391302,"velocity":0.5590551181102362},{"duration":0.13043474999999916,"midi":73,"time":9.391302,"velocity":0.5590551181102362},{"duration":0.13043475000000093,"midi":82,"time":9.521736749999999,"velocity":0.5590551181102362},{"duration":0.13043475000000093,"midi":82,"time":9.521736749999999,"velocity":0.5590551181102362},{"duration":0.13043474999999916,"midi":84,"time":9.6521715,"velocity":0.5590551181102362},{"duration":0.13043474999999916,"midi":84,"time":9.6521715,"velocity":0.5590551181102362},{"duration":0.13043475000000093,"midi":82,"time":9.782606249999999,"velocity":0.5590551181102362},{"duration":0.13043475000000093,"midi":82,"time":9.782606249999999,"velocity":0.5590551181102362},{"duration":0.13043474999999916,"midi":72,"time":9.913041,"velocity":0.5590551181102362},{"duration":0.13043474999999916,"midi":72,"time":9.913041,"velocity":0.5590551181102362},{"duration":0.13043475000000093,"midi":84,"time":10.043475749999999,"velocity":0.5590551181102362},{"duration":0.13043475000000093,"midi":84,"time":10.043475749999999,"velocity":0.5590551181102362},{"duration":0.13043474999999916,"midi":79,"time":10.1739105,"velocity":0.5590551181102362},{"duration":0.13043474999999916,"midi":79,"time":10.1739105,"velocity":0.5590551181102362},{"duration":0.13043475000000093,"midi":82,"time":10.304345249999999,"velocity":0.5590551181102362},{"duration":0.13043475000000093,"midi":82,"time":10.304345249999999,"velocity":0.5590551181102362},{"duration":0.13043474999999916,"midi":77,"time":10.43478,"velocity":0.5590551181102362},{"duration":0.13043474999999916,"midi":77,"time":10.43478,"velocity":0.5590551181102362},{"duration":0.13043474999999916,"midi":84,"time":10.565214749999999,"velocity":0.5590551181102362},{"duration":0.13043474999999916,"midi":84,"time":10.565214749999999,"velocity":0.5590551181102362},{"duration":0.13043475000000093,"midi":82,"time":10.695649499999998,"velocity":0.5590551181102362},{"duration":0.13043475000000093,"midi":82,"time":10.695649499999998,"velocity":0.5590551181102362},{"duration":0.13043474999999916,"midi":84,"time":10.82608425,"velocity":0.5590551181102362},{"duration":0.13043474999999916,"midi":84,"time":10.82608425,"velocity":0.5590551181102362},{"duration":0.13043475000000093,"midi":79,"time":10.956518999999998,"velocity":0.5590551181102362},{"duration":0.13043475000000093,"midi":79,"time":10.956518999999998,"velocity":0.5590551181102362},{"duration":0.13043474999999916,"midi":84,"time":11.08695375,"velocity":0.5590551181102362},{"duration":0.13043474999999916,"midi":84,"time":11.08695375,"velocity":0.5590551181102362},{"duration":0.13043475000000093,"midi":82,"time":11.217388499999998,"velocity":0.5590551181102362},{"duration":0.13043475000000093,"midi":82,"time":11.217388499999998,"velocity":0.5590551181102362},{"duration":0.13043474999999916,"midi":84,"time":11.34782325,"velocity":0.5590551181102362},{"duration":0.13043474999999916,"midi":84,"time":11.34782325,"velocity":0.5590551181102362},{"duration":0.13043475000000093,"midi":80,"time":11.478257999999999,"velocity":0.5590551181102362},{"duration":0.13043475000000093,"midi":80,"time":11.478257999999999,"velocity":0.5590551181102362},{"duration":0.13043474999999916,"midi":84,"time":11.60869275,"velocity":0.5590551181102362},{"duration":0.13043474999999916,"midi":84,"time":11.60869275,"velocity":0.5590551181102362},{"duration":0.13043475000000093,"midi":82,"time":11.739127499999999,"velocity":0.5590551181102362},{"duration":0.13043475000000093,"midi":82,"time":11.739127499999999,"velocity":0.5590551181102362},{"duration":0.13043474999999916,"midi":84,"time":11.86956225,"velocity":0.5590551181102362},{"duration":0.13043474999999916,"midi":84,"time":11.86956225,"velocity":0.5590551181102362},{"duration":0.13043475000000093,"midi":82,"time":11.999996999999999,"velocity":0.5590551181102362},{"duration":0.13043475000000093,"midi":82,"time":11.999996999999999,"velocity":0.5590551181102362},{"duration":0.13043474999999916,"midi":85,"time":12.13043175,"velocity":0.5590551181102362},{"duration":0.13043474999999916,"midi":85,"time":12.13043175,"velocity":0.5590551181102362},{"duration":0.13043475000000093,"midi":84,"time":12.260866499999999,"velocity":0.5590551181102362},{"duration":0.13043475000000093,"midi":84,"time":12.260866499999999,"velocity":0.5590551181102362},{"duration":0.13043474999999916,"midi":82,"time":12.39130125,"velocity":0.5590551181102362},{"duration":0.13043474999999916,"midi":82,"time":12.39130125,"velocity":0.5590551181102362},{"duration":0.13043474999999916,"midi":73,"time":12.521735999999999,"velocity":0.5590551181102362},{"duration":0.13043474999999916,"midi":73,"time":12.521735999999999,"velocity":0.5590551181102362},{"duration":0.13043475000000093,"midi":80,"time":12.652170749999998,"velocity":0.5590551181102362},{"duration":0.13043475000000093,"midi":80,"time":12.652170749999998,"velocity":0.5590551181102362},{"duration":0.13043474999999916,"midi":79,"time":12.782605499999999,"velocity":0.5590551181102362},{"duration":0.13043474999999916,"midi":79,"time":12.782605499999999,"velocity":0.5590551181102362},{"duration":0.13043475000000093,"midi":80,"time":12.913040249999998,"velocity":0.5590551181102362},{"duration":0.13043475000000093,"midi":80,"time":12.913040249999998,"velocity":0.5590551181102362},{"duration":0.13043474999999916,"midi":73,"time":13.043474999999999,"velocity":0.5590551181102362},{"duration":0.13043474999999916,"midi":73,"time":13.043474999999999,"velocity":0.5590551181102362},{"duration":0.13043475000000093,"midi":82,"time":13.173909749999998,"velocity":0.5590551181102362},{"duration":0.13043475000000093,"midi":82,"time":13.173909749999998,"velocity":0.5590551181102362},{"duration":0.13043474999999916,"midi":80,"time":13.3043445,"velocity":0.5590551181102362},{"duration":0.13043474999999916,"midi":80,"time":13.3043445,"velocity":0.5590551181102362},{"duration":0.13043475000000093,"midi":82,"time":13.434779249999998,"velocity":0.5590551181102362},{"duration":0.13043475000000093,"midi":82,"time":13.434779249999998,"velocity":0.5590551181102362},{"duration":0.13043474999999916,"midi":73,"time":13.565214,"velocity":0.5590551181102362},{"duration":0.13043474999999916,"midi":73,"time":13.565214,"velocity":0.5590551181102362},{"duration":0.13043475000000093,"midi":84,"time":13.695648749999998,"velocity":0.5590551181102362},{"duration":0.13043475000000093,"midi":84,"time":13.695648749999998,"velocity":0.5590551181102362},{"duration":0.13043474999999916,"midi":82,"time":13.8260835,"velocity":0.5590551181102362},{"duration":0.13043474999999916,"midi":82,"time":13.8260835,"velocity":0.5590551181102362},{"duration":0.13043475000000093,"midi":84,"time":13.956518249999998,"velocity":0.5590551181102362},{"duration":0.13043475000000093,"midi":84,"time":13.956518249999998,"velocity":0.5590551181102362},{"duration":0.13043474999999916,"midi":73,"time":14.086953,"velocity":0.5590551181102362},{"duration":0.13043474999999916,"midi":73,"time":14.086953,"velocity":0.5590551181102362},{"duration":0.13043475000000093,"midi":85,"time":14.217387749999999,"velocity":0.5590551181102362},{"duration":0.13043475000000093,"midi":85,"time":14.217387749999999,"velocity":0.5590551181102362},{"duration":0.13043474999999916,"midi":84,"time":14.3478225,"velocity":0.5590551181102362},{"duration":0.13043474999999916,"midi":84,"time":14.3478225,"velocity":0.5590551181102362},{"duration":0.13043474999999916,"midi":87,"time":14.478257249999999,"velocity":0.5590551181102362},{"duration":0.13043474999999916,"midi":87,"time":14.478257249999999,"velocity":0.5590551181102362},{"duration":0.2608695000000001,"midi":68,"time":14.608691999999998,"velocity":0.5590551181102362},{"duration":0.2608695000000001,"midi":72,"time":14.608691999999998,"velocity":0.5590551181102362},{"duration":0.2608695000000001,"midi":68,"time":14.608691999999998,"velocity":0.5590551181102362},{"duration":0.2608695000000001,"midi":72,"time":14.608691999999998,"velocity":0.5590551181102362},{"duration":0.13043475000000093,"midi":63,"time":14.869561499999998,"velocity":0.5590551181102362},{"duration":0.13043475000000093,"midi":63,"time":14.869561499999998,"velocity":0.5590551181102362},{"duration":0.13043475000000093,"midi":70,"time":14.869561499999998,"velocity":0.5590551181102362},{"duration":0.13043475000000093,"midi":70,"time":14.869561499999998,"velocity":0.5590551181102362},{"duration":0.13043474999999916,"midi":61,"time":14.999996249999999,"velocity":0.5590551181102362},{"duration":0.13043474999999916,"midi":68,"time":14.999996249999999,"velocity":0.5590551181102362},{"duration":0.13043474999999916,"midi":61,"time":14.999996249999999,"velocity":0.5590551181102362},{"duration":0.13043474999999916,"midi":68,"time":14.999996249999999,"velocity":0.5590551181102362},{"duration":0.2608695000000001,"midi":72,"time":15.130430999999998,"velocity":0.5590551181102362},{"duration":0.2608695000000001,"midi":77,"time":15.130430999999998,"velocity":0.5590551181102362},{"duration":0.2608695000000001,"midi":77,"time":15.130430999999998,"velocity":0.5590551181102362},{"duration":0.2608695000000001,"midi":72,"time":15.130430999999998,"velocity":0.5590551181102362},{"duration":0.2608695000000001,"midi":72,"time":15.391300499999998,"velocity":0.5590551181102362},{"duration":0.2608695000000001,"midi":72,"time":15.391300499999998,"velocity":0.5590551181102362},{"duration":0.2608695000000001,"midi":65,"time":15.391300499999998,"velocity":0.5590551181102362},{"duration":0.2608695000000001,"midi":65,"time":15.391300499999998,"velocity":0.5590551181102362},{"duration":0.2608695000000001,"midi":76,"time":15.652169999999998,"velocity":0.5590551181102362},{"duration":0.2608695000000001,"midi":76,"time":15.652169999999998,"velocity":0.5590551181102362},{"duration":0.2608695000000001,"midi":70,"time":15.652169999999998,"velocity":0.5590551181102362},{"duration":0.2608695000000001,"midi":70,"time":15.652169999999998,"velocity":0.5590551181102362},{"duration":0.2608695000000001,"midi":73,"time":15.913039499999998,"velocity":0.5590551181102362},{"duration":0.2608695000000001,"midi":73,"time":15.913039499999998,"velocity":0.5590551181102362},{"duration":0.2608695000000001,"midi":68,"time":15.913039499999998,"velocity":0.5590551181102362},{"duration":0.2608695000000001,"midi":68,"time":15.913039499999998,"velocity":0.5590551181102362},{"duration":0.5217390000000002,"midi":67,"time":16.173909,"velocity":0.5590551181102362},{"duration":0.5217390000000002,"midi":72,"time":16.173909,"velocity":0.5590551181102362},{"duration":0.5217390000000002,"midi":72,"time":16.173909,"velocity":0.5590551181102362},{"duration":0.5217390000000002,"midi":67,"time":16.173909,"velocity":0.5590551181102362},{"duration":0.2608694999999983,"midi":72,"time":16.695648,"velocity":0.5590551181102362},{"duration":0.2608694999999983,"midi":77,"time":16.695648,"velocity":0.5590551181102362},{"duration":0.2608694999999983,"midi":72,"time":16.695648,"velocity":0.5590551181102362},{"duration":0.2608694999999983,"midi":77,"time":16.695648,"velocity":0.5590551181102362},{"duration":0.26086950000000186,"midi":68,"time":16.956517499999997,"velocity":0.5590551181102362},{"duration":0.26086950000000186,"midi":72,"time":16.956517499999997,"velocity":0.5590551181102362},{"duration":0.26086950000000186,"midi":72,"time":16.956517499999997,"velocity":0.5590551181102362},{"duration":0.26086950000000186,"midi":68,"time":16.956517499999997,"velocity":0.5590551181102362},{"duration":0.2608694999999983,"midi":68,"time":17.217387,"velocity":0.5590551181102362},{"duration":0.2608694999999983,"midi":65,"time":17.217387,"velocity":0.5590551181102362},{"duration":0.2608694999999983,"midi":68,"time":17.217387,"velocity":0.5590551181102362},{"duration":0.2608694999999983,"midi":65,"time":17.217387,"velocity":0.5590551181102362},{"duration":0.26086950000000186,"midi":65,"time":17.478256499999997,"velocity":0.5590551181102362},{"duration":0.26086950000000186,"midi":60,"time":17.478256499999997,"velocity":0.5590551181102362},{"duration":0.26086950000000186,"midi":60,"time":17.478256499999997,"velocity":0.5590551181102362},{"duration":0.26086950000000186,"midi":65,"time":17.478256499999997,"velocity":0.5590551181102362},{"duration":0.13043474999999916,"midi":68,"time":17.869560749999998,"velocity":0.5590551181102362},{"duration":0.13043474999999916,"midi":68,"time":17.869560749999998,"velocity":0.5590551181102362},{"duration":0.13043474999999916,"midi":72,"time":17.869560749999998,"velocity":0.5590551181102362},{"duration":0.13043474999999916,"midi":72,"time":17.869560749999998,"velocity":0.5590551181102362},{"duration":0.26086950000000186,"midi":70,"time":17.999995499999997,"velocity":0.5590551181102362},{"duration":0.26086950000000186,"midi":65,"time":17.999995499999997,"velocity":0.5590551181102362},{"duration":0.26086950000000186,"midi":65,"time":17.999995499999997,"velocity":0.5590551181102362},{"duration":0.26086950000000186,"midi":70,"time":17.999995499999997,"velocity":0.5590551181102362},{"duration":0.13043474999999916,"midi":70,"time":18.260865,"velocity":0.5590551181102362},{"duration":0.13043474999999916,"midi":70,"time":18.260865,"velocity":0.5590551181102362},{"duration":0.13043474999999916,"midi":67,"time":18.260865,"velocity":0.5590551181102362},{"duration":0.13043474999999916,"midi":67,"time":18.260865,"velocity":0.5590551181102362},{"duration":0.13043474999999916,"midi":68,"time":18.391299749999998,"velocity":0.5590551181102362},{"duration":0.13043474999999916,"midi":63,"time":18.391299749999998,"velocity":0.5590551181102362},{"duration":0.13043474999999916,"midi":68,"time":18.391299749999998,"velocity":0.5590551181102362},{"duration":0.13043474999999916,"midi":63,"time":18.391299749999998,"velocity":0.5590551181102362},{"duration":0.1304347500000027,"midi":63,"time":18.521734499999997,"velocity":0.5590551181102362},{"duration":0.1304347500000027,"midi":58,"time":18.521734499999997,"velocity":0.5590551181102362},{"duration":0.1304347500000027,"midi":58,"time":18.521734499999997,"velocity":0.5590551181102362},{"duration":0.1304347500000027,"midi":63,"time":18.521734499999997,"velocity":0.5590551181102362},{"duration":0.13043474999999916,"midi":61,"time":18.65216925,"velocity":0.5590551181102362},{"duration":0.13043474999999916,"midi":65,"time":18.65216925,"velocity":0.5590551181102362},{"duration":0.13043474999999916,"midi":65,"time":18.65216925,"velocity":0.5590551181102362},{"duration":0.13043474999999916,"midi":61,"time":18.65216925,"velocity":0.5590551181102362},{"duration":0.13043474999999916,"midi":68,"time":18.91303875,"velocity":0.5590551181102362},{"duration":0.13043474999999916,"midi":72,"time":18.91303875,"velocity":0.5590551181102362},{"duration":0.13043474999999916,"midi":68,"time":18.91303875,"velocity":0.5590551181102362},{"duration":0.13043474999999916,"midi":72,"time":18.91303875,"velocity":0.5590551181102362},{"duration":0.13043474999999916,"midi":65,"time":19.043473499999998,"velocity":0.5590551181102362},{"duration":0.13043474999999916,"midi":70,"time":19.043473499999998,"velocity":0.5590551181102362},{"duration":0.13043474999999916,"midi":65,"time":19.043473499999998,"velocity":0.5590551181102362},{"duration":0.13043474999999916,"midi":70,"time":19.043473499999998,"velocity":0.5590551181102362},{"duration":0.1304347500000027,"midi":68,"time":19.173908249999997,"velocity":0.5590551181102362},{"duration":0.1304347500000027,"midi":63,"time":19.173908249999997,"velocity":0.5590551181102362},{"duration":0.1304347500000027,"midi":68,"time":19.173908249999997,"velocity":0.5590551181102362},{"duration":0.1304347500000027,"midi":63,"time":19.173908249999997,"velocity":0.5590551181102362},{"duration":0.13043474999999916,"midi":67,"time":19.304343,"velocity":0.5590551181102362},{"duration":0.13043474999999916,"midi":70,"time":19.304343,"velocity":0.5590551181102362},{"duration":0.13043474999999916,"midi":67,"time":19.304343,"velocity":0.5590551181102362},{"duration":0.13043474999999916,"midi":70,"time":19.304343,"velocity":0.5590551181102362},{"duration":0.13043474999999916,"midi":72,"time":19.43477775,"velocity":0.5590551181102362},{"duration":0.13043474999999916,"midi":68,"time":19.43477775,"velocity":0.5590551181102362},{"duration":0.13043474999999916,"midi":72,"time":19.43477775,"velocity":0.5590551181102362},{"duration":0.13043474999999916,"midi":68,"time":19.43477775,"velocity":0.5590551181102362},{"duration":0.13043474999999916,"midi":63,"time":19.565212499999998,"velocity":0.5590551181102362},{"duration":0.13043474999999916,"midi":55,"time":19.565212499999998,"velocity":0.5590551181102362},{"duration":0.13043474999999916,"midi":55,"time":19.565212499999998,"velocity":0.5590551181102362},{"duration":0.13043474999999916,"midi":63,"time":19.565212499999998,"velocity":0.5590551181102362},{"duration":0.1304347500000027,"midi":65,"time":19.695647249999997,"velocity":0.5590551181102362},{"duration":0.1304347500000027,"midi":56,"time":19.695647249999997,"velocity":0.5590551181102362},{"duration":0.1304347500000027,"midi":56,"time":19.695647249999997,"velocity":0.5590551181102362},{"duration":0.1304347500000027,"midi":65,"time":19.695647249999997,"velocity":0.5590551181102362},{"duration":0.13043474999999916,"midi":60,"time":19.826082,"velocity":0.5590551181102362},{"duration":0.13043474999999916,"midi":68,"time":19.826082,"velocity":0.5590551181102362},{"duration":0.13043474999999916,"midi":68,"time":19.826082,"velocity":0.5590551181102362},{"duration":0.13043474999999916,"midi":60,"time":19.826082,"velocity":0.5590551181102362},{"duration":0.13043474999999916,"midi":56,"time":19.95651675,"velocity":0.5590551181102362},{"duration":0.13043474999999916,"midi":56,"time":19.95651675,"velocity":0.5590551181102362},{"duration":0.13043474999999916,"midi":65,"time":19.95651675,"velocity":0.5590551181102362},{"duration":0.13043474999999916,"midi":65,"time":19.95651675,"velocity":0.5590551181102362},{"duration":0.13043474999999916,"midi":55,"time":20.086951499999998,"velocity":0.5590551181102362},{"duration":0.13043474999999916,"midi":63,"time":20.086951499999998,"velocity":0.5590551181102362},{"duration":0.13043474999999916,"midi":55,"time":20.086951499999998,"velocity":0.5590551181102362},{"duration":0.13043474999999916,"midi":63,"time":20.086951499999998,"velocity":0.5590551181102362},{"duration":0.26086950000000186,"midi":68,"time":20.217386249999997,"velocity":0.5590551181102362},{"duration":0.26086950000000186,"midi":68,"time":20.217386249999997,"velocity":0.5590551181102362},{"duration":0.26086950000000186,"midi":77,"time":20.217386249999997,"velocity":0.5590551181102362},{"duration":0.26086950000000186,"midi":77,"time":20.217386249999997,"velocity":0.5590551181102362},{"duration":0.13043474999999916,"midi":75,"time":20.47825575,"velocity":0.5590551181102362},{"duration":0.13043474999999916,"midi":75,"time":20.47825575,"velocity":0.5590551181102362},{"duration":0.13043474999999916,"midi":72,"time":20.608690499999998,"velocity":0.5590551181102362},{"duration":0.13043474999999916,"midi":72,"time":20.608690499999998,"velocity":0.5590551181102362},{"duration":0.13043474999999916,"midi":70,"time":20.673907874999998,"velocity":0.5590551181102362},{"duration":0.13043474999999916,"midi":70,"time":20.673907874999998,"velocity":0.5590551181102362},{"duration":0.1304347500000027,"midi":68,"time":20.739125249999997,"velocity":0.5590551181102362},{"duration":0.1304347500000027,"midi":68,"time":20.739125249999997,"velocity":0.5590551181102362},{"duration":0.5217389999999966,"midi":65,"time":20.86956,"velocity":0.5590551181102362},{"duration":0.5217389999999966,"midi":65,"time":20.86956,"velocity":0.5590551181102362},{"duration":0.13043474999999916,"midi":58,"time":21.130429499999998,"velocity":0.5590551181102362},{"duration":0.13043474999999916,"midi":58,"time":21.130429499999998,"velocity":0.5590551181102362},{"duration":0.5217390000000002,"midi":67,"time":21.391298999999997,"velocity":0.5590551181102362},{"duration":0.5217390000000002,"midi":67,"time":21.391298999999997,"velocity":0.5590551181102362},{"duration":0.13043474999999916,"midi":58,"time":21.6521685,"velocity":0.5590551181102362},{"duration":0.13043474999999916,"midi":58,"time":21.6521685,"velocity":0.5590551181102362},{"duration":0.5217390000000002,"midi":68,"time":21.913037999999997,"velocity":0.5590551181102362},{"duration":0.5217390000000002,"midi":68,"time":21.913037999999997,"velocity":0.5590551181102362},{"duration":0.13043474999999916,"midi":58,"time":22.1739075,"velocity":0.5590551181102362},{"duration":0.13043474999999916,"midi":58,"time":22.1739075,"velocity":0.5590551181102362},{"duration":0.5217390000000002,"midi":70,"time":22.434776999999997,"velocity":0.5590551181102362},{"duration":0.5217390000000002,"midi":70,"time":22.434776999999997,"velocity":0.5590551181102362},{"duration":0.13043474999999916,"midi":56,"time":22.6956465,"velocity":0.5590551181102362},{"duration":0.13043474999999916,"midi":56,"time":22.6956465,"velocity":0.5590551181102362},{"duration":0.26086950000000186,"midi":68,"time":22.956515999999997,"velocity":0.5590551181102362},{"duration":0.26086950000000186,"midi":68,"time":22.956515999999997,"velocity":0.5590551181102362},{"duration":0.26086950000000186,"midi":72,"time":22.956515999999997,"velocity":0.5590551181102362},{"duration":0.26086950000000186,"midi":72,"time":22.956515999999997,"velocity":0.5590551181102362},{"duration":0.2608694999999983,"midi":61,"time":23.2173855,"velocity":0.5590551181102362},{"duration":0.2608694999999983,"midi":70,"time":23.2173855,"velocity":0.5590551181102362},{"duration":0.2608694999999983,"midi":61,"time":23.2173855,"velocity":0.5590551181102362},{"duration":0.2608694999999983,"midi":70,"time":23.2173855,"velocity":0.5590551181102362},{"duration":0.26086950000000186,"midi":72,"time":23.478254999999997,"velocity":0.5590551181102362},{"duration":0.26086950000000186,"midi":77,"time":23.478254999999997,"velocity":0.5590551181102362},{"duration":0.26086950000000186,"midi":77,"time":23.478254999999997,"velocity":0.5590551181102362},{"duration":0.26086950000000186,"midi":72,"time":23.478254999999997,"velocity":0.5590551181102362},{"duration":0.2608694999999983,"midi":65,"time":23.7391245,"velocity":0.5590551181102362},{"duration":0.2608694999999983,"midi":72,"time":23.7391245,"velocity":0.5590551181102362},{"duration":0.2608694999999983,"midi":65,"time":23.7391245,"velocity":0.5590551181102362},{"duration":0.2608694999999983,"midi":72,"time":23.7391245,"velocity":0.5590551181102362},{"duration":0.26086950000000186,"midi":70,"time":23.999993999999997,"velocity":0.5590551181102362},{"duration":0.26086950000000186,"midi":76,"time":23.999993999999997,"velocity":0.5590551181102362},{"duration":0.26086950000000186,"midi":70,"time":23.999993999999997,"velocity":0.5590551181102362},{"duration":0.26086950000000186,"midi":76,"time":23.999993999999997,"velocity":0.5590551181102362},{"duration":0.2608694999999983,"midi":68,"time":24.2608635,"velocity":0.5590551181102362},{"duration":0.2608694999999983,"midi":72,"time":24.2608635,"velocity":0.5590551181102362},{"duration":0.2608694999999983,"midi":68,"time":24.2608635,"velocity":0.5590551181102362},{"duration":0.2608694999999983,"midi":72,"time":24.2608635,"velocity":0.5590551181102362},{"duration":0.5217390000000002,"midi":67,"time":24.521732999999998,"velocity":0.5590551181102362},{"duration":0.5217390000000002,"midi":67,"time":24.521732999999998,"velocity":0.5590551181102362},{"duration":0.5217390000000002,"midi":70,"time":24.521732999999998,"velocity":0.5590551181102362},{"duration":0.5217390000000002,"midi":70,"time":24.521732999999998,"velocity":0.5590551181102362},{"duration":0.13043474999999916,"midi":77,"time":25.043471999999998,"velocity":0.5590551181102362},{"duration":0.13043474999999916,"midi":77,"time":25.043471999999998,"velocity":0.5590551181102362},{"duration":0.13043474999999916,"midi":84,"time":25.173906749999997,"velocity":0.5590551181102362},{"duration":0.13043474999999916,"midi":84,"time":25.173906749999997,"velocity":0.5590551181102362},{"duration":0.1304347500000027,"midi":82,"time":25.304341499999996,"velocity":0.5590551181102362},{"duration":0.1304347500000027,"midi":82,"time":25.304341499999996,"velocity":0.5590551181102362},{"duration":0.13043474999999916,"midi":84,"time":25.43477625,"velocity":0.5590551181102362},{"duration":0.13043474999999916,"midi":84,"time":25.43477625,"velocity":0.5590551181102362},{"duration":0.13043474999999916,"midi":77,"time":25.565210999999998,"velocity":0.5590551181102362},{"duration":0.13043474999999916,"midi":77,"time":25.565210999999998,"velocity":0.5590551181102362},{"duration":0.13043474999999916,"midi":84,"time":25.695645749999997,"velocity":0.5590551181102362},{"duration":0.13043474999999916,"midi":84,"time":25.695645749999997,"velocity":0.5590551181102362},{"duration":0.1304347500000027,"midi":82,"time":25.826080499999996,"velocity":0.5590551181102362},{"duration":0.1304347500000027,"midi":82,"time":25.826080499999996,"velocity":0.5590551181102362},{"duration":0.13043474999999916,"midi":84,"time":25.95651525,"velocity":0.5590551181102362},{"duration":0.13043474999999916,"midi":84,"time":25.95651525,"velocity":0.5590551181102362},{"duration":0.13043474999999916,"midi":73,"time":26.086949999999998,"velocity":0.5590551181102362},{"duration":0.13043474999999916,"midi":73,"time":26.086949999999998,"velocity":0.5590551181102362},{"duration":0.13043474999999916,"midi":82,"time":26.217384749999997,"velocity":0.5590551181102362},{"duration":0.13043474999999916,"midi":82,"time":26.217384749999997,"velocity":0.5590551181102362},{"duration":0.1304347500000027,"midi":84,"time":26.347819499999996,"velocity":0.5590551181102362},{"duration":0.1304347500000027,"midi":84,"time":26.347819499999996,"velocity":0.5590551181102362},{"duration":0.13043474999999916,"midi":82,"time":26.47825425,"velocity":0.5590551181102362},{"duration":0.13043474999999916,"midi":82,"time":26.47825425,"velocity":0.5590551181102362},{"duration":0.13043474999999916,"midi":72,"time":26.608689,"velocity":0.5590551181102362},{"duration":0.13043474999999916,"midi":72,"time":26.608689,"velocity":0.5590551181102362},{"duration":0.13043474999999916,"midi":84,"time":26.739123749999997,"velocity":0.5590551181102362},{"duration":0.13043474999999916,"midi":84,"time":26.739123749999997,"velocity":0.5590551181102362},{"duration":0.1304347500000027,"midi":79,"time":26.869558499999997,"velocity":0.5590551181102362},{"duration":0.1304347500000027,"midi":79,"time":26.869558499999997,"velocity":0.5590551181102362},{"duration":0.13043474999999916,"midi":82,"time":26.99999325,"velocity":0.5590551181102362},{"duration":0.13043474999999916,"midi":82,"time":26.99999325,"velocity":0.5590551181102362},{"duration":0.13043474999999916,"midi":77,"time":27.130428,"velocity":0.5590551181102362},{"duration":0.13043474999999916,"midi":77,"time":27.130428,"velocity":0.5590551181102362},{"duration":0.13043474999999916,"midi":84,"time":27.260862749999998,"velocity":0.5590551181102362},{"duration":0.13043474999999916,"midi":84,"time":27.260862749999998,"velocity":0.5590551181102362},{"duration":0.13043474999999916,"midi":82,"time":27.391297499999997,"velocity":0.5590551181102362},{"duration":0.13043474999999916,"midi":82,"time":27.391297499999997,"velocity":0.5590551181102362},{"duration":0.1304347500000027,"midi":84,"time":27.521732249999996,"velocity":0.5590551181102362},{"duration":0.1304347500000027,"midi":84,"time":27.521732249999996,"velocity":0.5590551181102362},{"duration":0.13043474999999916,"midi":79,"time":27.652167,"velocity":0.5590551181102362},{"duration":0.13043474999999916,"midi":79,"time":27.652167,"velocity":0.5590551181102362},{"duration":0.13043474999999916,"midi":84,"time":27.782601749999998,"velocity":0.5590551181102362},{"duration":0.13043474999999916,"midi":84,"time":27.782601749999998,"velocity":0.5590551181102362},{"duration":0.13043474999999916,"midi":82,"time":27.913036499999997,"velocity":0.5590551181102362},{"duration":0.13043474999999916,"midi":82,"time":27.913036499999997,"velocity":0.5590551181102362},{"duration":0.1304347500000027,"midi":84,"time":28.043471249999996,"velocity":0.5590551181102362},{"duration":0.1304347500000027,"midi":84,"time":28.043471249999996,"velocity":0.5590551181102362},{"duration":0.13043474999999916,"midi":80,"time":28.173906,"velocity":0.5590551181102362},{"duration":0.13043474999999916,"midi":80,"time":28.173906,"velocity":0.5590551181102362},{"duration":0.13043474999999916,"midi":84,"time":28.304340749999998,"velocity":0.5590551181102362},{"duration":0.13043474999999916,"midi":84,"time":28.304340749999998,"velocity":0.5590551181102362},{"duration":0.13043474999999916,"midi":82,"time":28.434775499999997,"velocity":0.5590551181102362},{"duration":0.13043474999999916,"midi":82,"time":28.434775499999997,"velocity":0.5590551181102362},{"duration":0.1304347500000027,"midi":84,"time":28.565210249999996,"velocity":0.5590551181102362},{"duration":0.1304347500000027,"midi":84,"time":28.565210249999996,"velocity":0.5590551181102362},{"duration":0.13043474999999916,"midi":82,"time":28.695645,"velocity":0.5590551181102362},{"duration":0.13043474999999916,"midi":82,"time":28.695645,"velocity":0.5590551181102362},{"duration":0.13043474999999916,"midi":85,"time":28.826079749999998,"velocity":0.5590551181102362},{"duration":0.13043474999999916,"midi":85,"time":28.826079749999998,"velocity":0.5590551181102362},{"duration":0.13043474999999916,"midi":84,"time":28.956514499999997,"velocity":0.5590551181102362},{"duration":0.13043474999999916,"midi":84,"time":28.956514499999997,"velocity":0.5590551181102362},{"duration":0.13043474999999916,"midi":82,"time":29.086949249999996,"velocity":0.5590551181102362},{"duration":0.13043474999999916,"midi":82,"time":29.086949249999996,"velocity":0.5590551181102362},{"duration":0.1304347500000027,"midi":73,"time":29.217383999999996,"velocity":0.5590551181102362},{"duration":0.1304347500000027,"midi":73,"time":29.217383999999996,"velocity":0.5590551181102362},{"duration":0.13043474999999916,"midi":80,"time":29.34781875,"velocity":0.5590551181102362},{"duration":0.13043474999999916,"midi":80,"time":29.34781875,"velocity":0.5590551181102362},{"duration":0.13043474999999916,"midi":79,"time":29.478253499999997,"velocity":0.5590551181102362},{"duration":0.13043474999999916,"midi":79,"time":29.478253499999997,"velocity":0.5590551181102362},{"duration":0.13043474999999916,"midi":80,"time":29.608688249999997,"velocity":0.5590551181102362},{"duration":0.13043474999999916,"midi":80,"time":29.608688249999997,"velocity":0.5590551181102362},{"duration":0.1304347500000027,"midi":73,"time":29.739122999999996,"velocity":0.5590551181102362},{"duration":0.1304347500000027,"midi":73,"time":29.739122999999996,"velocity":0.5590551181102362},{"duration":0.13043474999999916,"midi":82,"time":29.86955775,"velocity":0.5590551181102362},{"duration":0.13043474999999916,"midi":82,"time":29.86955775,"velocity":0.5590551181102362},{"duration":0.13043474999999916,"midi":80,"time":29.999992499999998,"velocity":0.5590551181102362},{"duration":0.13043474999999916,"midi":80,"time":29.999992499999998,"velocity":0.5590551181102362},{"duration":0.13043474999999916,"midi":82,"time":30.130427249999997,"velocity":0.5590551181102362},{"duration":0.13043474999999916,"midi":82,"time":30.130427249999997,"velocity":0.5590551181102362},{"duration":0.1304347500000027,"midi":73,"time":30.260861999999996,"velocity":0.5590551181102362},{"duration":0.1304347500000027,"midi":73,"time":30.260861999999996,"velocity":0.5590551181102362},{"duration":0.13043474999999916,"midi":84,"time":30.39129675,"velocity":0.5590551181102362},{"duration":0.13043474999999916,"midi":84,"time":30.39129675,"velocity":0.5590551181102362},{"duration":0.13043474999999916,"midi":82,"time":30.521731499999998,"velocity":0.5590551181102362},{"duration":0.13043474999999916,"midi":82,"time":30.521731499999998,"velocity":0.5590551181102362},{"duration":0.13043474999999916,"midi":84,"time":30.652166249999997,"velocity":0.5590551181102362},{"duration":0.13043474999999916,"midi":84,"time":30.652166249999997,"velocity":0.5590551181102362},{"duration":0.1304347500000027,"midi":73,"time":30.782600999999996,"velocity":0.5590551181102362},{"duration":0.1304347500000027,"midi":73,"time":30.782600999999996,"velocity":0.5590551181102362},{"duration":0.13043474999999916,"midi":85,"time":30.91303575,"velocity":0.5590551181102362},{"duration":0.13043474999999916,"midi":85,"time":30.91303575,"velocity":0.5590551181102362},{"duration":0.13043474999999916,"midi":84,"time":31.043470499999998,"velocity":0.5590551181102362},{"duration":0.13043474999999916,"midi":84,"time":31.043470499999998,"velocity":0.5590551181102362},{"duration":0.13043474999999916,"midi":87,"time":31.173905249999997,"velocity":0.5590551181102362},{"duration":0.13043474999999916,"midi":87,"time":31.173905249999997,"velocity":0.5590551181102362},{"duration":0.26086950000000186,"midi":72,"time":31.304339999999996,"velocity":0.5590551181102362},{"duration":0.26086950000000186,"midi":68,"time":31.304339999999996,"velocity":0.5590551181102362},{"duration":0.26086950000000186,"midi":68,"time":31.304339999999996,"velocity":0.5590551181102362},{"duration":0.26086950000000186,"midi":72,"time":31.304339999999996,"velocity":0.5590551181102362},{"duration":0.13043474999999916,"midi":70,"time":31.565209499999998,"velocity":0.5590551181102362},{"duration":0.13043474999999916,"midi":63,"time":31.565209499999998,"velocity":0.5590551181102362},{"duration":0.13043474999999916,"midi":70,"time":31.565209499999998,"velocity":0.5590551181102362},{"duration":0.13043474999999916,"midi":63,"time":31.565209499999998,"velocity":0.5590551181102362},{"duration":0.13043474999999916,"midi":68,"time":31.695644249999997,"velocity":0.5590551181102362},{"duration":0.13043474999999916,"midi":61,"time":31.695644249999997,"velocity":0.5590551181102362},{"duration":0.13043474999999916,"midi":61,"time":31.695644249999997,"velocity":0.5590551181102362},{"duration":0.13043474999999916,"midi":68,"time":31.695644249999997,"velocity":0.5590551181102362},{"duration":0.26086950000000186,"midi":77,"time":31.826078999999996,"velocity":0.5590551181102362},{"duration":0.26086950000000186,"midi":77,"time":31.826078999999996,"velocity":0.5590551181102362},{"duration":0.26086950000000186,"midi":72,"time":31.826078999999996,"velocity":0.5590551181102362},{"duration":0.26086950000000186,"midi":72,"time":31.826078999999996,"velocity":0.5590551181102362},{"duration":0.2608694999999983,"midi":65,"time":32.0869485,"velocity":0.5590551181102362},{"duration":0.2608694999999983,"midi":60,"time":32.0869485,"velocity":0.5590551181102362},{"duration":0.2608694999999983,"midi":65,"time":32.0869485,"velocity":0.5590551181102362},{"duration":0.2608694999999983,"midi":72,"time":32.0869485,"velocity":0.5590551181102362},{"duration":0.2608694999999983,"midi":72,"time":32.0869485,"velocity":0.5590551181102362},{"duration":0.2608694999999983,"midi":60,"time":32.0869485,"velocity":0.5590551181102362},{"duration":0.2608694999999983,"midi":76,"time":32.347818,"velocity":0.5590551181102362},{"duration":0.2608694999999983,"midi":70,"time":32.347818,"velocity":0.5590551181102362},{"duration":0.2608694999999983,"midi":76,"time":32.347818,"velocity":0.5590551181102362},{"duration":0.2608694999999983,"midi":70,"time":32.347818,"velocity":0.5590551181102362},{"duration":0.2608695000000054,"midi":68,"time":32.608687499999995,"velocity":0.5590551181102362},{"duration":0.2608695000000054,"midi":73,"time":32.608687499999995,"velocity":0.5590551181102362},{"duration":0.2608695000000054,"midi":68,"time":32.608687499999995,"velocity":0.5590551181102362},{"duration":0.2608695000000054,"midi":73,"time":32.608687499999995,"velocity":0.5590551181102362},{"duration":0.5217389999999966,"midi":67,"time":32.869557,"velocity":0.5590551181102362},{"duration":0.39130424999999747,"midi":72,"time":32.869557,"velocity":0.5590551181102362},{"duration":0.5217389999999966,"midi":67,"time":32.869557,"velocity":0.5590551181102362},{"duration":0.39130424999999747,"midi":72,"time":32.869557,"velocity":0.5590551181102362},{"duration":0.13043474999999916,"midi":73,"time":32.99999175,"velocity":0.5590551181102362},{"duration":0.13043474999999916,"midi":73,"time":32.99999175,"velocity":0.5590551181102362},{"duration":0.13043474999999916,"midi":85,"time":32.99999175,"velocity":0.5590551181102362},{"duration":0.13043474999999916,"midi":85,"time":32.99999175,"velocity":0.5590551181102362},{"duration":0.2608694999999983,"midi":72,"time":33.1304265,"velocity":0.5590551181102362},{"duration":0.13043474999999916,"midi":84,"time":33.1304265,"velocity":0.5590551181102362},{"duration":0.13043474999999916,"midi":84,"time":33.1304265,"velocity":0.5590551181102362},{"duration":0.2608694999999983,"midi":72,"time":33.1304265,"velocity":0.5590551181102362},{"duration":0.13043474999999916,"midi":73,"time":33.26086125,"velocity":0.5590551181102362},{"duration":0.13043474999999916,"midi":85,"time":33.26086125,"velocity":0.5590551181102362},{"duration":0.13043474999999916,"midi":85,"time":33.26086125,"velocity":0.5590551181102362},{"duration":0.13043474999999916,"midi":73,"time":33.26086125,"velocity":0.5590551181102362},{"duration":0.2608694999999983,"midi":72,"time":33.391296,"velocity":0.5590551181102362},{"duration":0.2608694999999983,"midi":84,"time":33.391296,"velocity":0.5590551181102362},{"duration":0.2608694999999983,"midi":72,"time":33.391296,"velocity":0.5590551181102362},{"duration":0.2608694999999983,"midi":84,"time":33.391296,"velocity":0.5590551181102362},{"duration":0.2608694999999983,"midi":68,"time":33.652165499999995,"velocity":0.5590551181102362},{"duration":0.2608694999999983,"midi":68,"time":33.652165499999995,"velocity":0.5590551181102362},{"duration":0.2608694999999983,"midi":80,"time":33.652165499999995,"velocity":0.5590551181102362},{"duration":0.2608694999999983,"midi":80,"time":33.652165499999995,"velocity":0.5590551181102362},{"duration":0.2608695000000054,"midi":65,"time":33.913034999999994,"velocity":0.5590551181102362},{"duration":0.2608695000000054,"midi":65,"time":33.913034999999994,"velocity":0.5590551181102362},{"duration":0.2608695000000054,"midi":77,"time":33.913034999999994,"velocity":0.5590551181102362},{"duration":0.2608695000000054,"midi":77,"time":33.913034999999994,"velocity":0.5590551181102362},{"duration":0.2608694999999983,"midi":60,"time":34.1739045,"velocity":0.5590551181102362},{"duration":0.2608694999999983,"midi":60,"time":34.1739045,"velocity":0.5590551181102362},{"duration":0.2608694999999983,"midi":72,"time":34.1739045,"velocity":0.5590551181102362},{"duration":0.2608694999999983,"midi":72,"time":34.1739045,"velocity":0.5590551181102362},{"duration":0.2608694999999983,"midi":80,"time":34.434774,"velocity":0.5590551181102362},{"duration":0.2608694999999983,"midi":80,"time":34.434774,"velocity":0.5590551181102362},{"duration":0.2608694999999983,"midi":68,"time":34.434774,"velocity":0.5590551181102362},{"duration":0.2608694999999983,"midi":68,"time":34.434774,"velocity":0.5590551181102362},{"duration":0.13043474999999916,"midi":77,"time":34.695643499999996,"velocity":0.5590551181102362},{"duration":0.13043474999999916,"midi":77,"time":34.695643499999996,"velocity":0.5590551181102362},{"duration":0.13043474999999916,"midi":65,"time":34.695643499999996,"velocity":0.5590551181102362},{"duration":0.13043474999999916,"midi":65,"time":34.695643499999996,"velocity":0.5590551181102362},{"duration":0.6521737500000029,"midi":67,"time":34.826078249999995,"velocity":0.5590551181102362},{"duration":0.6521737500000029,"midi":79,"time":34.826078249999995,"velocity":0.5590551181102362},{"duration":0.6521737500000029,"midi":79,"time":34.826078249999995,"velocity":0.5590551181102362},{"duration":0.6521737500000029,"midi":67,"time":34.826078249999995,"velocity":0.5590551181102362},{"duration":0.2608694999999983,"midi":68,"time":35.478252,"velocity":0.5590551181102362},{"duration":0.2608694999999983,"midi":80,"time":35.478252,"velocity":0.5590551181102362},{"duration":0.2608694999999983,"midi":80,"time":35.478252,"velocity":0.5590551181102362},{"duration":0.2608694999999983,"midi":68,"time":35.478252,"velocity":0.5590551181102362},{"duration":0.13043474999999916,"midi":65,"time":35.739121499999996,"velocity":0.5590551181102362},{"duration":0.13043474999999916,"midi":77,"time":35.739121499999996,"velocity":0.5590551181102362},{"duration":0.13043474999999916,"midi":65,"time":35.739121499999996,"velocity":0.5590551181102362},{"duration":0.13043474999999916,"midi":77,"time":35.739121499999996,"velocity":0.5590551181102362},{"duration":0.6521737500000029,"midi":67,"time":35.869556249999995,"velocity":0.5590551181102362},{"duration":0.6521737500000029,"midi":79,"time":35.869556249999995,"velocity":0.5590551181102362},{"duration":0.6521737500000029,"midi":79,"time":35.869556249999995,"velocity":0.5590551181102362},{"duration":0.6521737500000029,"midi":67,"time":35.869556249999995,"velocity":0.5590551181102362},{"duration":0.2608694999999983,"midi":80,"time":36.52173,"velocity":0.5590551181102362},{"duration":0.2608694999999983,"midi":80,"time":36.52173,"velocity":0.5590551181102362},{"duration":0.2608694999999983,"midi":68,"time":36.52173,"velocity":0.5590551181102362},{"duration":0.2608694999999983,"midi":68,"time":36.52173,"velocity":0.5590551181102362},{"duration":0.13043474999999916,"midi":77,"time":36.782599499999996,"velocity":0.5590551181102362},{"duration":0.13043474999999916,"midi":65,"time":36.782599499999996,"velocity":0.5590551181102362},{"duration":0.13043474999999916,"midi":65,"time":36.782599499999996,"velocity":0.5590551181102362},{"duration":0.13043474999999916,"midi":77,"time":36.782599499999996,"velocity":0.5590551181102362},{"duration":0.2608694999999983,"midi":67,"time":36.913034249999995,"velocity":0.5590551181102362},{"duration":0.2608694999999983,"midi":79,"time":36.913034249999995,"velocity":0.5590551181102362},{"duration":0.2608694999999983,"midi":79,"time":36.913034249999995,"velocity":0.5590551181102362},{"duration":0.2608694999999983,"midi":67,"time":36.913034249999995,"velocity":0.5590551181102362},{"duration":0.13043475000000626,"midi":85,"time":37.173903749999994,"velocity":0.5590551181102362},{"duration":0.13043475000000626,"midi":73,"time":37.173903749999994,"velocity":0.5590551181102362},{"duration":0.13043475000000626,"midi":85,"time":37.173903749999994,"velocity":0.5590551181102362},{"duration":0.13043475000000626,"midi":73,"time":37.173903749999994,"velocity":0.5590551181102362},{"duration":0.13043474999999916,"midi":84,"time":37.3043385,"velocity":0.5590551181102362},{"duration":0.13043474999999916,"midi":84,"time":37.3043385,"velocity":0.5590551181102362},{"duration":0.13043474999999916,"midi":72,"time":37.3043385,"velocity":0.5590551181102362},{"duration":0.13043474999999916,"midi":72,"time":37.3043385,"velocity":0.5590551181102362},{"duration":0.13043474999999916,"midi":73,"time":37.43477325,"velocity":0.5590551181102362},{"duration":0.13043474999999916,"midi":85,"time":37.43477325,"velocity":0.5590551181102362},{"duration":0.13043474999999916,"midi":73,"time":37.43477325,"velocity":0.5590551181102362},{"duration":0.13043474999999916,"midi":85,"time":37.43477325,"velocity":0.5590551181102362},{"duration":0.2608694999999983,"midi":72,"time":37.565208,"velocity":0.5590551181102362},{"duration":0.2608694999999983,"midi":84,"time":37.565208,"velocity":0.5590551181102362},{"duration":0.2608694999999983,"midi":72,"time":37.565208,"velocity":0.5590551181102362},{"duration":0.2608694999999983,"midi":84,"time":37.565208,"velocity":0.5590551181102362},{"duration":0.2608694999999983,"midi":68,"time":37.8260775,"velocity":0.5590551181102362},{"duration":0.2608694999999983,"midi":80,"time":37.8260775,"velocity":0.5590551181102362},{"duration":0.2608694999999983,"midi":68,"time":37.8260775,"velocity":0.5590551181102362},{"duration":0.2608694999999983,"midi":80,"time":37.8260775,"velocity":0.5590551181102362},{"duration":0.2608694999999983,"midi":77,"time":38.086946999999995,"velocity":0.5590551181102362},{"duration":0.2608694999999983,"midi":65,"time":38.086946999999995,"velocity":0.5590551181102362},{"duration":0.2608694999999983,"midi":65,"time":38.086946999999995,"velocity":0.5590551181102362},{"duration":0.2608694999999983,"midi":77,"time":38.086946999999995,"velocity":0.5590551181102362},{"duration":0.2608695000000054,"midi":72,"time":38.34781649999999,"velocity":0.5590551181102362},{"duration":0.2608695000000054,"midi":72,"time":38.34781649999999,"velocity":0.5590551181102362},{"duration":0.2608695000000054,"midi":60,"time":38.34781649999999,"velocity":0.5590551181102362},{"duration":0.2608695000000054,"midi":60,"time":38.34781649999999,"velocity":0.5590551181102362},{"duration":0.2608694999999983,"midi":80,"time":38.608686,"velocity":0.5590551181102362},{"duration":0.2608694999999983,"midi":68,"time":38.608686,"velocity":0.5590551181102362},{"duration":0.2608694999999983,"midi":80,"time":38.608686,"velocity":0.5590551181102362},{"duration":0.2608694999999983,"midi":68,"time":38.608686,"velocity":0.5590551181102362},{"duration":0.13043474999999916,"midi":70,"time":38.8695555,"velocity":0.5590551181102362},{"duration":0.13043474999999916,"midi":82,"time":38.8695555,"velocity":0.5590551181102362},{"duration":0.13043474999999916,"midi":82,"time":38.8695555,"velocity":0.5590551181102362},{"duration":0.13043474999999916,"midi":70,"time":38.8695555,"velocity":0.5590551181102362},{"duration":0.6521737500000029,"midi":79,"time":38.999990249999996,"velocity":0.5590551181102362},{"duration":0.6521737500000029,"midi":67,"time":38.999990249999996,"velocity":0.5590551181102362},{"duration":0.6521737500000029,"midi":79,"time":38.999990249999996,"velocity":0.5590551181102362},{"duration":0.6521737500000029,"midi":67,"time":38.999990249999996,"velocity":0.5590551181102362},{"duration":0.2608694999999983,"midi":68,"time":39.652164,"velocity":0.5590551181102362},{"duration":0.2608694999999983,"midi":80,"time":39.652164,"velocity":0.5590551181102362},{"duration":0.2608694999999983,"midi":68,"time":39.652164,"velocity":0.5590551181102362},{"duration":0.2608694999999983,"midi":80,"time":39.652164,"velocity":0.5590551181102362},{"duration":0.13043474999999916,"midi":82,"time":39.9130335,"velocity":0.5590551181102362},{"duration":0.13043474999999916,"midi":70,"time":39.9130335,"velocity":0.5590551181102362},{"duration":0.13043474999999916,"midi":82,"time":39.9130335,"velocity":0.5590551181102362},{"duration":0.13043474999999916,"midi":70,"time":39.9130335,"velocity":0.5590551181102362},{"duration":0.6521737500000029,"midi":79,"time":40.04346825,"velocity":0.5590551181102362},{"duration":0.6521737500000029,"midi":67,"time":40.04346825,"velocity":0.5590551181102362},{"duration":0.6521737500000029,"midi":67,"time":40.04346825,"velocity":0.5590551181102362},{"duration":0.6521737500000029,"midi":79,"time":40.04346825,"velocity":0.5590551181102362},{"duration":0.2608694999999983,"midi":68,"time":40.695642,"velocity":0.5590551181102362},{"duration":0.2608694999999983,"midi":80,"time":40.695642,"velocity":0.5590551181102362},{"duration":0.2608694999999983,"midi":80,"time":40.695642,"velocity":0.5590551181102362},{"duration":0.2608694999999983,"midi":68,"time":40.695642,"velocity":0.5590551181102362},{"duration":0.13043474999999916,"midi":82,"time":40.9565115,"velocity":0.5590551181102362},{"duration":0.13043474999999916,"midi":70,"time":40.9565115,"velocity":0.5590551181102362},{"duration":0.13043474999999916,"midi":82,"time":40.9565115,"velocity":0.5590551181102362},{"duration":0.13043474999999916,"midi":70,"time":40.9565115,"velocity":0.5590551181102362},{"duration":0.2608694999999983,"midi":84,"time":41.08694625,"velocity":0.5590551181102362},{"duration":0.2608694999999983,"midi":84,"time":41.08694625,"velocity":0.5590551181102362},{"duration":0.2608694999999983,"midi":72,"time":41.08694625,"velocity":0.5590551181102362},{"duration":0.2608694999999983,"midi":72,"time":41.08694625,"velocity":0.5590551181102362},{"duration":0.13043474999999916,"midi":85,"time":41.347815749999995,"velocity":0.5590551181102362},{"duration":0.13043474999999916,"midi":85,"time":41.347815749999995,"velocity":0.5590551181102362},{"duration":0.13043474999999916,"midi":73,"time":41.347815749999995,"velocity":0.5590551181102362},{"duration":0.13043474999999916,"midi":73,"time":41.347815749999995,"velocity":0.5590551181102362},{"duration":0.13043474999999916,"midi":84,"time":41.478250499999994,"velocity":0.5590551181102362},{"duration":0.13043474999999916,"midi":84,"time":41.478250499999994,"velocity":0.5590551181102362},{"duration":0.13043474999999916,"midi":72,"time":41.478250499999994,"velocity":0.5590551181102362},{"duration":0.13043474999999916,"midi":72,"time":41.478250499999994,"velocity":0.5590551181102362},{"duration":0.13043475000000626,"midi":85,"time":41.60868524999999,"velocity":0.5590551181102362},{"duration":0.13043475000000626,"midi":73,"time":41.60868524999999,"velocity":0.5590551181102362},{"duration":0.13043475000000626,"midi":73,"time":41.60868524999999,"velocity":0.5590551181102362},{"duration":0.13043475000000626,"midi":85,"time":41.60868524999999,"velocity":0.5590551181102362},{"duration":0.2608694999999983,"midi":84,"time":41.73912,"velocity":0.5590551181102362},{"duration":0.2608694999999983,"midi":84,"time":41.73912,"velocity":0.5590551181102362},{"duration":0.2608694999999983,"midi":72,"time":41.73912,"velocity":0.5590551181102362},{"duration":0.2608694999999983,"midi":80,"time":41.73912,"velocity":0.5590551181102362},{"duration":0.2608694999999983,"midi":80,"time":41.73912,"velocity":0.5590551181102362},{"duration":0.2608694999999983,"midi":72,"time":41.73912,"velocity":0.5590551181102362},{"duration":0.2608694999999983,"midi":68,"time":41.9999895,"velocity":0.5590551181102362},{"duration":0.2608694999999983,"midi":80,"time":41.9999895,"velocity":0.5590551181102362},{"duration":0.2608694999999983,"midi":68,"time":41.9999895,"velocity":0.5590551181102362},{"duration":0.2608694999999983,"midi":77,"time":41.9999895,"velocity":0.5590551181102362},{"duration":0.2608694999999983,"midi":80,"time":41.9999895,"velocity":0.5590551181102362},{"duration":0.2608694999999983,"midi":77,"time":41.9999895,"velocity":0.5590551181102362},{"duration":0.2608694999999983,"midi":65,"time":42.260858999999996,"velocity":0.5590551181102362},{"duration":0.2608694999999983,"midi":65,"time":42.260858999999996,"velocity":0.5590551181102362},{"duration":0.2608694999999983,"midi":72,"time":42.260858999999996,"velocity":0.5590551181102362},{"duration":0.2608694999999983,"midi":72,"time":42.260858999999996,"velocity":0.5590551181102362},{"duration":0.2608694999999983,"midi":77,"time":42.260858999999996,"velocity":0.5590551181102362},{"duration":0.2608694999999983,"midi":77,"time":42.260858999999996,"velocity":0.5590551181102362},{"duration":0.2608694999999983,"midi":72,"time":42.521728499999995,"velocity":0.5590551181102362},{"duration":0.2608694999999983,"midi":60,"time":42.521728499999995,"velocity":0.5590551181102362},{"duration":0.2608694999999983,"midi":68,"time":42.521728499999995,"velocity":0.5590551181102362},{"duration":0.2608694999999983,"midi":72,"time":42.521728499999995,"velocity":0.5590551181102362},{"duration":0.2608694999999983,"midi":60,"time":42.521728499999995,"velocity":0.5590551181102362},{"duration":0.2608694999999983,"midi":68,"time":42.521728499999995,"velocity":0.5590551181102362},{"duration":0.2608695000000054,"midi":80,"time":42.78259799999999,"velocity":0.5590551181102362},{"duration":0.2608695000000054,"midi":68,"time":42.78259799999999,"velocity":0.5590551181102362},{"duration":0.2608695000000054,"midi":68,"time":42.78259799999999,"velocity":0.5590551181102362},{"duration":0.2608695000000054,"midi":80,"time":42.78259799999999,"velocity":0.5590551181102362},{"duration":0.2608695000000054,"midi":77,"time":42.78259799999999,"velocity":0.5590551181102362},{"duration":0.2608695000000054,"midi":77,"time":42.78259799999999,"velocity":0.5590551181102362},{"duration":0.13043474999999916,"midi":65,"time":43.0434675,"velocity":0.5590551181102362},{"duration":0.13043474999999916,"midi":65,"time":43.0434675,"velocity":0.5590551181102362},{"duration":0.13043474999999916,"midi":72,"time":43.0434675,"velocity":0.5590551181102362},{"duration":0.13043474999999916,"midi":72,"time":43.0434675,"velocity":0.5590551181102362},{"duration":0.13043474999999916,"midi":77,"time":43.0434675,"velocity":0.5590551181102362},{"duration":0.13043474999999916,"midi":77,"time":43.0434675,"velocity":0.5590551181102362},{"duration":0.6521737499999958,"midi":73,"time":43.17390225,"velocity":0.5590551181102362},{"duration":0.6521737499999958,"midi":79,"time":43.17390225,"velocity":0.5590551181102362},{"duration":0.6521737499999958,"midi":73,"time":43.17390225,"velocity":0.5590551181102362},{"duration":0.6521737499999958,"midi":79,"time":43.17390225,"velocity":0.5590551181102362},{"duration":0.6521737499999958,"midi":67,"time":43.17390225,"velocity":0.5590551181102362},{"duration":0.6521737499999958,"midi":67,"time":43.17390225,"velocity":0.5590551181102362},{"duration":0.2608695000000054,"midi":80,"time":43.82607599999999,"velocity":0.5590551181102362},{"duration":0.2608695000000054,"midi":77,"time":43.82607599999999,"velocity":0.5590551181102362},{"duration":0.2608695000000054,"midi":68,"time":43.82607599999999,"velocity":0.5590551181102362},{"duration":0.2608695000000054,"midi":80,"time":43.82607599999999,"velocity":0.5590551181102362},{"duration":0.2608695000000054,"midi":77,"time":43.82607599999999,"velocity":0.5590551181102362},{"duration":0.2608695000000054,"midi":68,"time":43.82607599999999,"velocity":0.5590551181102362},{"duration":0.13043474999999916,"midi":65,"time":44.0869455,"velocity":0.5590551181102362},{"duration":0.13043474999999916,"midi":72,"time":44.0869455,"velocity":0.5590551181102362},{"duration":0.13043474999999916,"midi":72,"time":44.0869455,"velocity":0.5590551181102362},{"duration":0.13043474999999916,"midi":65,"time":44.0869455,"velocity":0.5590551181102362},{"duration":0.13043474999999916,"midi":77,"time":44.0869455,"velocity":0.5590551181102362},{"duration":0.13043474999999916,"midi":77,"time":44.0869455,"velocity":0.5590551181102362},{"duration":0.6521737499999958,"midi":67,"time":44.21738025,"velocity":0.5590551181102362},{"duration":0.6521737499999958,"midi":67,"time":44.21738025,"velocity":0.5590551181102362},{"duration":0.6521737499999958,"midi":79,"time":44.21738025,"velocity":0.5590551181102362},{"duration":0.6521737499999958,"midi":79,"time":44.21738025,"velocity":0.5590551181102362},{"duration":0.6521737499999958,"midi":73,"time":44.21738025,"velocity":0.5590551181102362},{"duration":0.6521737499999958,"midi":73,"time":44.21738025,"velocity":0.5590551181102362},{"duration":0.2608695000000054,"midi":77,"time":44.869553999999994,"velocity":0.5590551181102362},{"duration":0.2608695000000054,"midi":68,"time":44.869553999999994,"velocity":0.5590551181102362},{"duration":0.2608695000000054,"midi":68,"time":44.869553999999994,"velocity":0.5590551181102362},{"duration":0.2608695000000054,"midi":80,"time":44.869553999999994,"velocity":0.5590551181102362},{"duration":0.2608695000000054,"midi":77,"time":44.869553999999994,"velocity":0.5590551181102362},{"duration":0.2608695000000054,"midi":80,"time":44.869553999999994,"velocity":0.5590551181102362},{"duration":0.13043474999999916,"midi":72,"time":45.1304235,"velocity":0.5590551181102362},{"duration":0.13043474999999916,"midi":77,"time":45.1304235,"velocity":0.5590551181102362},{"duration":0.13043474999999916,"midi":72,"time":45.1304235,"velocity":0.5590551181102362},{"duration":0.13043474999999916,"midi":77,"time":45.1304235,"velocity":0.5590551181102362},{"duration":0.13043474999999916,"midi":65,"time":45.1304235,"velocity":0.5590551181102362},{"duration":0.13043474999999916,"midi":65,"time":45.1304235,"velocity":0.5590551181102362},{"duration":0.2608694999999983,"midi":79,"time":45.26085825,"velocity":0.5590551181102362},{"duration":0.2608694999999983,"midi":73,"time":45.26085825,"velocity":0.5590551181102362},{"duration":0.2608694999999983,"midi":79,"time":45.26085825,"velocity":0.5590551181102362},{"duration":0.2608694999999983,"midi":73,"time":45.26085825,"velocity":0.5590551181102362},{"duration":0.2608694999999983,"midi":67,"time":45.26085825,"velocity":0.5590551181102362},{"duration":0.2608694999999983,"midi":67,"time":45.26085825,"velocity":0.5590551181102362},{"duration":0.13043474999999916,"midi":73,"time":45.52172775,"velocity":0.5590551181102362},{"duration":0.13043474999999916,"midi":85,"time":45.52172775,"velocity":0.5590551181102362},{"duration":0.13043474999999916,"midi":73,"time":45.52172775,"velocity":0.5590551181102362},{"duration":0.13043474999999916,"midi":85,"time":45.52172775,"velocity":0.5590551181102362},{"duration":0.13043474999999916,"midi":72,"time":45.652162499999996,"velocity":0.5590551181102362},{"duration":0.13043474999999916,"midi":84,"time":45.652162499999996,"velocity":0.5590551181102362},{"duration":0.13043474999999916,"midi":72,"time":45.652162499999996,"velocity":0.5590551181102362},{"duration":0.13043474999999916,"midi":84,"time":45.652162499999996,"velocity":0.5590551181102362},{"duration":0.13043474999999916,"midi":85,"time":45.782597249999995,"velocity":0.5590551181102362},{"duration":0.13043474999999916,"midi":73,"time":45.782597249999995,"velocity":0.5590551181102362},{"duration":0.13043474999999916,"midi":85,"time":45.782597249999995,"velocity":0.5590551181102362},{"duration":0.13043474999999916,"midi":73,"time":45.782597249999995,"velocity":0.5590551181102362},{"duration":0.2608694999999983,"midi":84,"time":45.913031999999994,"velocity":0.5590551181102362},{"duration":0.2608694999999983,"midi":72,"time":45.913031999999994,"velocity":0.5590551181102362},{"duration":0.2608694999999983,"midi":84,"time":45.913031999999994,"velocity":0.5590551181102362},{"duration":0.2608694999999983,"midi":72,"time":45.913031999999994,"velocity":0.5590551181102362},{"duration":0.2608695000000054,"midi":77,"time":46.17390149999999,"velocity":0.5590551181102362},{"duration":0.2608695000000054,"midi":89,"time":46.17390149999999,"velocity":0.5590551181102362},{"duration":0.2608695000000054,"midi":89,"time":46.17390149999999,"velocity":0.5590551181102362},{"duration":0.2608695000000054,"midi":77,"time":46.17390149999999,"velocity":0.5590551181102362},{"duration":0.2608694999999983,"midi":82,"time":46.434771,"velocity":0.5590551181102362},{"duration":0.2608694999999983,"midi":82,"time":46.434771,"velocity":0.5590551181102362},{"duration":0.2608694999999983,"midi":70,"time":46.434771,"velocity":0.5590551181102362},{"duration":0.2608694999999983,"midi":70,"time":46.434771,"velocity":0.5590551181102362},{"duration":0.2608694999999983,"midi":68,"time":46.695640499999996,"velocity":0.5590551181102362},{"duration":0.2608694999999983,"midi":68,"time":46.695640499999996,"velocity":0.5590551181102362},{"duration":0.2608694999999983,"midi":80,"time":46.695640499999996,"velocity":0.5590551181102362},{"duration":0.2608694999999983,"midi":80,"time":46.695640499999996,"velocity":0.5590551181102362},{"duration":0.13043474999999916,"midi":82,"time":46.956509999999994,"velocity":0.5590551181102362},{"duration":0.13043474999999916,"midi":70,"time":46.956509999999994,"velocity":0.5590551181102362},{"duration":0.13043474999999916,"midi":82,"time":46.956509999999994,"velocity":0.5590551181102362},{"duration":0.13043474999999916,"midi":70,"time":46.956509999999994,"velocity":0.5590551181102362},{"duration":0.2608695000000054,"midi":68,"time":47.086944749999994,"velocity":0.5590551181102362},{"duration":0.2608695000000054,"midi":80,"time":47.086944749999994,"velocity":0.5590551181102362},{"duration":0.2608695000000054,"midi":68,"time":47.086944749999994,"velocity":0.5590551181102362},{"duration":0.2608695000000054,"midi":80,"time":47.086944749999994,"velocity":0.5590551181102362},{"duration":0.39130424999999747,"midi":70,"time":47.34781425,"velocity":0.5590551181102362},{"duration":0.39130424999999747,"midi":82,"time":47.34781425,"velocity":0.5590551181102362},{"duration":0.39130424999999747,"midi":82,"time":47.34781425,"velocity":0.5590551181102362},{"duration":0.39130424999999747,"midi":70,"time":47.34781425,"velocity":0.5590551181102362},{"duration":0.13043474999999916,"midi":80,"time":47.7391185,"velocity":0.5590551181102362},{"duration":0.13043474999999916,"midi":68,"time":47.7391185,"velocity":0.5590551181102362},{"duration":0.13043474999999916,"midi":80,"time":47.7391185,"velocity":0.5590551181102362},{"duration":0.13043474999999916,"midi":68,"time":47.7391185,"velocity":0.5590551181102362},{"duration":0.13043474999999916,"midi":70,"time":47.869553249999996,"velocity":0.5590551181102362},{"duration":0.13043474999999916,"midi":82,"time":47.869553249999996,"velocity":0.5590551181102362},{"duration":0.13043474999999916,"midi":82,"time":47.869553249999996,"velocity":0.5590551181102362},{"duration":0.13043474999999916,"midi":70,"time":47.869553249999996,"velocity":0.5590551181102362},{"duration":0.13043474999999916,"midi":71,"time":47.999987999999995,"velocity":0.5590551181102362},{"duration":0.13043474999999916,"midi":83,"time":47.999987999999995,"velocity":0.5590551181102362},{"duration":0.13043474999999916,"midi":71,"time":47.999987999999995,"velocity":0.5590551181102362},{"duration":0.13043474999999916,"midi":83,"time":47.999987999999995,"velocity":0.5590551181102362},{"duration":0.13043474999999916,"midi":70,"time":48.130422749999994,"velocity":0.5590551181102362},{"duration":0.13043474999999916,"midi":70,"time":48.130422749999994,"velocity":0.5590551181102362},{"duration":0.13043474999999916,"midi":82,"time":48.130422749999994,"velocity":0.5590551181102362},{"duration":0.13043474999999916,"midi":82,"time":48.130422749999994,"velocity":0.5590551181102362},{"duration":0.2608695000000054,"midi":68,"time":48.26085749999999,"velocity":0.5590551181102362},{"duration":0.2608695000000054,"midi":80,"time":48.26085749999999,"velocity":0.5590551181102362},{"duration":0.2608695000000054,"midi":68,"time":48.26085749999999,"velocity":0.5590551181102362},{"duration":0.2608695000000054,"midi":80,"time":48.26085749999999,"velocity":0.5590551181102362},{"duration":0.2608694999999983,"midi":76,"time":48.521727,"velocity":0.5590551181102362},{"duration":0.2608694999999983,"midi":64,"time":48.521727,"velocity":0.5590551181102362},{"duration":0.2608694999999983,"midi":64,"time":48.521727,"velocity":0.5590551181102362},{"duration":0.2608694999999983,"midi":76,"time":48.521727,"velocity":0.5590551181102362},{"duration":0.2608694999999983,"midi":58,"time":48.7825965,"velocity":0.5590551181102362},{"duration":0.2608694999999983,"midi":58,"time":48.7825965,"velocity":0.5590551181102362},{"duration":0.2608694999999983,"midi":70,"time":48.7825965,"velocity":0.5590551181102362},{"duration":0.2608694999999983,"midi":70,"time":48.7825965,"velocity":0.5590551181102362},{"duration":0.2608694999999983,"midi":60,"time":49.043465999999995,"velocity":0.5590551181102362},{"duration":0.2608694999999983,"midi":60,"time":49.043465999999995,"velocity":0.5590551181102362},{"duration":0.2608694999999983,"midi":72,"time":49.043465999999995,"velocity":0.5590551181102362},{"duration":0.2608694999999983,"midi":72,"time":49.043465999999995,"velocity":0.5590551181102362},{"duration":0.13043474999999916,"midi":73,"time":49.30433549999999,"velocity":0.5590551181102362},{"duration":0.13043474999999916,"midi":73,"time":49.30433549999999,"velocity":0.5590551181102362},{"duration":0.13043474999999916,"midi":61,"time":49.30433549999999,"velocity":0.5590551181102362},{"duration":0.13043474999999916,"midi":61,"time":49.30433549999999,"velocity":0.5590551181102362},{"duration":0.13043475000000626,"midi":63,"time":49.43477024999999,"velocity":0.5590551181102362},{"duration":0.13043475000000626,"midi":63,"time":49.43477024999999,"velocity":0.5590551181102362},{"duration":0.13043475000000626,"midi":75,"time":49.43477024999999,"velocity":0.5590551181102362},{"duration":0.13043475000000626,"midi":75,"time":49.43477024999999,"velocity":0.5590551181102362},{"duration":0.5217389999999966,"midi":65,"time":49.565205,"velocity":0.5590551181102362},{"duration":0.5217389999999966,"midi":77,"time":49.565205,"velocity":0.5590551181102362},{"duration":0.5217389999999966,"midi":65,"time":49.565205,"velocity":0.5590551181102362},{"duration":0.5217389999999966,"midi":77,"time":49.565205,"velocity":0.5590551181102362},{"duration":0.2608694999999983,"midi":84,"time":50.086943999999995,"velocity":0.5590551181102362},{"duration":0.13043474999999916,"midi":41,"time":50.086943999999995,"velocity":0.5590551181102362},{"duration":0.2608694999999983,"midi":84,"time":50.086943999999995,"velocity":0.5590551181102362},{"duration":0.13043474999999916,"midi":41,"time":50.086943999999995,"velocity":0.5590551181102362},{"duration":0.13043474999999916,"midi":48,"time":50.217378749999995,"velocity":0.5590551181102362},{"duration":0.13043474999999916,"midi":48,"time":50.217378749999995,"velocity":0.5590551181102362},{"duration":0.2608694999999983,"midi":80,"time":50.347813499999994,"velocity":0.5590551181102362},{"duration":0.13043474999999916,"midi":49,"time":50.347813499999994,"velocity":0.5590551181102362},{"duration":0.13043474999999916,"midi":49,"time":50.347813499999994,"velocity":0.5590551181102362},{"duration":0.2608694999999983,"midi":80,"time":50.347813499999994,"velocity":0.5590551181102362},{"duration":0.13043474999999916,"midi":48,"time":50.47824824999999,"velocity":0.5590551181102362},{"duration":0.13043474999999916,"midi":48,"time":50.47824824999999,"velocity":0.5590551181102362},{"duration":0.13043475000000626,"midi":77,"time":50.60868299999999,"velocity":0.5590551181102362},{"duration":0.13043475000000626,"midi":41,"time":50.60868299999999,"velocity":0.5590551181102362},{"duration":0.13043475000000626,"midi":41,"time":50.60868299999999,"velocity":0.5590551181102362},{"duration":0.13043475000000626,"midi":77,"time":50.60868299999999,"velocity":0.5590551181102362},{"duration":0.13043474999999916,"midi":48,"time":50.73911775,"velocity":0.5590551181102362},{"duration":0.13043474999999916,"midi":80,"time":50.73911775,"velocity":0.5590551181102362},{"duration":0.13043474999999916,"midi":48,"time":50.73911775,"velocity":0.5590551181102362},{"duration":0.13043474999999916,"midi":80,"time":50.73911775,"velocity":0.5590551181102362},{"duration":0.13043474999999916,"midi":72,"time":50.8695525,"velocity":0.5590551181102362},{"duration":0.13043474999999916,"midi":53,"time":50.8695525,"velocity":0.5590551181102362},{"duration":0.13043474999999916,"midi":72,"time":50.8695525,"velocity":0.5590551181102362},{"duration":0.13043474999999916,"midi":53,"time":50.8695525,"velocity":0.5590551181102362},{"duration":0.13043474999999916,"midi":48,"time":50.99998725,"velocity":0.5590551181102362},{"duration":0.13043474999999916,"midi":77,"time":50.99998725,"velocity":0.5590551181102362},{"duration":0.13043474999999916,"midi":77,"time":50.99998725,"velocity":0.5590551181102362},{"duration":0.13043474999999916,"midi":48,"time":50.99998725,"velocity":0.5590551181102362},{"duration":0.2608694999999983,"midi":80,"time":51.130421999999996,"velocity":0.5590551181102362},{"duration":0.13043474999999916,"midi":46,"time":51.130421999999996,"velocity":0.5590551181102362},{"duration":0.13043474999999916,"midi":46,"time":51.130421999999996,"velocity":0.5590551181102362},{"duration":0.2608694999999983,"midi":80,"time":51.130421999999996,"velocity":0.5590551181102362},{"duration":0.13043474999999916,"midi":53,"time":51.260856749999995,"velocity":0.5590551181102362},{"duration":0.13043474999999916,"midi":53,"time":51.260856749999995,"velocity":0.5590551181102362},{"duration":0.2608694999999983,"midi":77,"time":51.391291499999994,"velocity":0.5590551181102362},{"duration":0.13043474999999916,"midi":56,"time":51.391291499999994,"velocity":0.5590551181102362},{"duration":0.13043474999999916,"midi":56,"time":51.391291499999994,"velocity":0.5590551181102362},{"duration":0.2608694999999983,"midi":77,"time":51.391291499999994,"velocity":0.5590551181102362},{"duration":0.13043474999999916,"midi":53,"time":51.52172624999999,"velocity":0.5590551181102362},{"duration":0.13043474999999916,"midi":53,"time":51.52172624999999,"velocity":0.5590551181102362},{"duration":0.2608695000000054,"midi":46,"time":51.65216099999999,"velocity":0.5590551181102362},{"duration":0.13043475000000626,"midi":73,"time":51.65216099999999,"velocity":0.5590551181102362},{"duration":0.2608695000000054,"midi":46,"time":51.65216099999999,"velocity":0.5590551181102362},{"duration":0.13043475000000626,"midi":73,"time":51.65216099999999,"velocity":0.5590551181102362},{"duration":0.13043474999999916,"midi":53,"time":51.78259575,"velocity":0.5590551181102362},{"duration":0.13043474999999916,"midi":77,"time":51.78259575,"velocity":0.5590551181102362},{"duration":0.13043474999999916,"midi":53,"time":51.78259575,"velocity":0.5590551181102362},{"duration":0.13043474999999916,"midi":77,"time":51.78259575,"velocity":0.5590551181102362},{"duration":0.13043474999999916,"midi":55,"time":51.9130305,"velocity":0.5590551181102362},{"duration":0.13043474999999916,"midi":68,"time":51.9130305,"velocity":0.5590551181102362},{"duration":0.13043474999999916,"midi":55,"time":51.9130305,"velocity":0.5590551181102362},{"duration":0.2608694999999983,"midi":48,"time":51.9130305,"velocity":0.5590551181102362},{"duration":0.2608694999999983,"midi":48,"time":51.9130305,"velocity":0.5590551181102362},{"duration":0.13043474999999916,"midi":68,"time":51.9130305,"velocity":0.5590551181102362},{"duration":0.13043474999999916,"midi":73,"time":52.04346525,"velocity":0.5590551181102362},{"duration":0.13043474999999916,"midi":53,"time":52.04346525,"velocity":0.5590551181102362},{"duration":0.13043474999999916,"midi":73,"time":52.04346525,"velocity":0.5590551181102362},{"duration":0.13043474999999916,"midi":53,"time":52.04346525,"velocity":0.5590551181102362},{"duration":0.13043474999999916,"midi":73,"time":52.173899999999996,"velocity":0.5590551181102362},{"duration":0.13043474999999916,"midi":49,"time":52.173899999999996,"velocity":0.5590551181102362},{"duration":0.13043474999999916,"midi":49,"time":52.173899999999996,"velocity":0.5590551181102362},{"duration":0.13043474999999916,"midi":73,"time":52.173899999999996,"velocity":0.5590551181102362},{"duration":0.13043474999999916,"midi":53,"time":52.304334749999995,"velocity":0.5590551181102362},{"duration":0.13043474999999916,"midi":53,"time":52.304334749999995,"velocity":0.5590551181102362},{"duration":0.13043474999999916,"midi":68,"time":52.304334749999995,"velocity":0.5590551181102362},{"duration":0.13043474999999916,"midi":68,"time":52.304334749999995,"velocity":0.5590551181102362},{"duration":0.13043474999999916,"midi":80,"time":52.434769499999994,"velocity":0.5590551181102362},{"duration":0.13043474999999916,"midi":61,"time":52.434769499999994,"velocity":0.5590551181102362},{"duration":0.13043474999999916,"midi":80,"time":52.434769499999994,"velocity":0.5590551181102362},{"duration":0.13043474999999916,"midi":61,"time":52.434769499999994,"velocity":0.5590551181102362},{"duration":0.13043474999999916,"midi":56,"time":52.565204249999994,"velocity":0.5590551181102362},{"duration":0.13043474999999916,"midi":73,"time":52.565204249999994,"velocity":0.5590551181102362},{"duration":0.13043474999999916,"midi":73,"time":52.565204249999994,"velocity":0.5590551181102362},{"duration":0.13043474999999916,"midi":56,"time":52.565204249999994,"velocity":0.5590551181102362},{"duration":0.13043474999999916,"midi":79,"time":52.69563899999999,"velocity":0.5590551181102362},{"duration":0.13043474999999916,"midi":49,"time":52.69563899999999,"velocity":0.5590551181102362},{"duration":0.13043474999999916,"midi":49,"time":52.69563899999999,"velocity":0.5590551181102362},{"duration":0.13043474999999916,"midi":79,"time":52.69563899999999,"velocity":0.5590551181102362},{"duration":0.13043475000000626,"midi":80,"time":52.82607374999999,"velocity":0.5590551181102362},{"duration":0.13043475000000626,"midi":51,"time":52.82607374999999,"velocity":0.5590551181102362},{"duration":0.13043475000000626,"midi":80,"time":52.82607374999999,"velocity":0.5590551181102362},{"duration":0.13043475000000626,"midi":51,"time":52.82607374999999,"velocity":0.5590551181102362},{"duration":0.13043474999999916,"midi":52,"time":52.891291124999995,"velocity":0.5590551181102362},{"duration":0.13043474999999916,"midi":52,"time":52.891291124999995,"velocity":0.5590551181102362},{"duration":0.13043474999999916,"midi":77,"time":52.9565085,"velocity":0.5590551181102362},{"duration":0.2608694999999983,"midi":53,"time":52.9565085,"velocity":0.5590551181102362},{"duration":0.2608694999999983,"midi":53,"time":52.9565085,"velocity":0.5590551181102362},{"duration":0.13043474999999916,"midi":77,"time":52.9565085,"velocity":0.5590551181102362},{"duration":0.13043474999999916,"midi":79,"time":53.08694325,"velocity":0.5590551181102362},{"duration":0.13043474999999916,"midi":79,"time":53.08694325,"velocity":0.5590551181102362},{"duration":0.13043474999999916,"midi":52,"time":53.217378,"velocity":0.5590551181102362},{"duration":0.13043474999999916,"midi":52,"time":53.217378,"velocity":0.5590551181102362},{"duration":0.2608694999999983,"midi":76,"time":53.217378,"velocity":0.5590551181102362},{"duration":0.2608694999999983,"midi":76,"time":53.217378,"velocity":0.5590551181102362},{"duration":0.13043474999999916,"midi":53,"time":53.347812749999996,"velocity":0.5590551181102362},{"duration":0.13043474999999916,"midi":53,"time":53.347812749999996,"velocity":0.5590551181102362},{"duration":0.13043474999999916,"midi":48,"time":53.478247499999995,"velocity":0.5590551181102362},{"duration":0.13043474999999916,"midi":48,"time":53.478247499999995,"velocity":0.5590551181102362},{"duration":0.13043474999999916,"midi":77,"time":53.478247499999995,"velocity":0.5590551181102362},{"duration":0.13043474999999916,"midi":77,"time":53.478247499999995,"velocity":0.5590551181102362},{"duration":0.13043474999999916,"midi":43,"time":53.608682249999994,"velocity":0.5590551181102362},{"duration":0.13043474999999916,"midi":76,"time":53.608682249999994,"velocity":0.5590551181102362},{"duration":0.13043474999999916,"midi":43,"time":53.608682249999994,"velocity":0.5590551181102362},{"duration":0.13043474999999916,"midi":76,"time":53.608682249999994,"velocity":0.5590551181102362},{"duration":0.13043474999999916,"midi":79,"time":53.73911699999999,"velocity":0.5590551181102362},{"duration":0.2608695000000054,"midi":48,"time":53.73911699999999,"velocity":0.5590551181102362},{"duration":0.13043474999999916,"midi":79,"time":53.73911699999999,"velocity":0.5590551181102362},{"duration":0.2608695000000054,"midi":48,"time":53.73911699999999,"velocity":0.5590551181102362},{"duration":0.13043475000000626,"midi":77,"time":53.86955174999999,"velocity":0.5590551181102362},{"duration":0.13043475000000626,"midi":77,"time":53.86955174999999,"velocity":0.5590551181102362},{"duration":0.2608694999999983,"midi":52,"time":53.9999865,"velocity":0.5590551181102362},{"duration":0.2608694999999983,"midi":52,"time":53.9999865,"velocity":0.5590551181102362},{"duration":0.13043474999999916,"midi":76,"time":53.9999865,"velocity":0.5590551181102362},{"duration":0.13043474999999916,"midi":76,"time":53.9999865,"velocity":0.5590551181102362},{"duration":0.13043474999999916,"midi":79,"time":54.13042125,"velocity":0.5590551181102362},{"duration":0.13043474999999916,"midi":79,"time":54.13042125,"velocity":0.5590551181102362},{"duration":0.13043474999999916,"midi":41,"time":54.260856,"velocity":0.5590551181102362},{"duration":0.13043474999999916,"midi":77,"time":54.260856,"velocity":0.5590551181102362},{"duration":0.13043474999999916,"midi":77,"time":54.260856,"velocity":0.5590551181102362},{"duration":0.13043474999999916,"midi":41,"time":54.260856,"velocity":0.5590551181102362},{"duration":0.13043474999999916,"midi":72,"time":54.391290749999996,"velocity":0.5590551181102362},{"duration":0.13043474999999916,"midi":48,"time":54.391290749999996,"velocity":0.5590551181102362},{"duration":0.13043474999999916,"midi":72,"time":54.391290749999996,"velocity":0.5590551181102362},{"duration":0.13043474999999916,"midi":48,"time":54.391290749999996,"velocity":0.5590551181102362},{"duration":0.13043474999999916,"midi":72,"time":54.4238994375,"velocity":0.5590551181102362},{"duration":0.13043474999999916,"midi":72,"time":54.4238994375,"velocity":0.5590551181102362},{"duration":0.13043474999999916,"midi":49,"time":54.521725499999995,"velocity":0.5590551181102362},{"duration":0.13043474999999916,"midi":77,"time":54.521725499999995,"velocity":0.5590551181102362},{"duration":0.13043474999999916,"midi":49,"time":54.521725499999995,"velocity":0.5590551181102362},{"duration":0.13043474999999916,"midi":77,"time":54.521725499999995,"velocity":0.5590551181102362},{"duration":0.13043474999999916,"midi":77,"time":54.5543341875,"velocity":0.5590551181102362},{"duration":0.13043474999999916,"midi":77,"time":54.5543341875,"velocity":0.5590551181102362},{"duration":0.13043474999999916,"midi":79,"time":54.652160249999994,"velocity":0.5590551181102362},{"duration":0.13043474999999916,"midi":48,"time":54.652160249999994,"velocity":0.5590551181102362},{"duration":0.13043474999999916,"midi":79,"time":54.652160249999994,"velocity":0.5590551181102362},{"duration":0.13043474999999916,"midi":48,"time":54.652160249999994,"velocity":0.5590551181102362},{"duration":0.13043474999999916,"midi":79,"time":54.684768937499996,"velocity":0.5590551181102362},{"duration":0.13043474999999916,"midi":79,"time":54.684768937499996,"velocity":0.5590551181102362},{"duration":0.13043474999999916,"midi":41,"time":54.78259499999999,"velocity":0.5590551181102362},{"duration":0.13043474999999916,"midi":80,"time":54.78259499999999,"velocity":0.5590551181102362},{"duration":0.13043474999999916,"midi":80,"time":54.78259499999999,"velocity":0.5590551181102362},{"duration":0.13043474999999916,"midi":41,"time":54.78259499999999,"velocity":0.5590551181102362},{"duration":0.13043474999999916,"midi":80,"time":54.815203687499995,"velocity":0.5590551181102362},{"duration":0.13043474999999916,"midi":80,"time":54.815203687499995,"velocity":0.5590551181102362},{"duration":0.13043474999999916,"midi":48,"time":54.91302974999999,"velocity":0.5590551181102362},{"duration":0.13043474999999916,"midi":77,"time":54.91302974999999,"velocity":0.5590551181102362},{"duration":0.13043474999999916,"midi":48,"time":54.91302974999999,"velocity":0.5590551181102362},{"duration":0.13043474999999916,"midi":77,"time":54.91302974999999,"velocity":0.5590551181102362},{"duration":0.13043474999999916,"midi":77,"time":54.945638437499994,"velocity":0.5590551181102362},{"duration":0.13043474999999916,"midi":77,"time":54.945638437499994,"velocity":0.5590551181102362},{"duration":0.13043475000000626,"midi":53,"time":55.04346449999999,"velocity":0.5590551181102362},{"duration":0.13043475000000626,"midi":80,"time":55.04346449999999,"velocity":0.5590551181102362},{"duration":0.13043475000000626,"midi":53,"time":55.04346449999999,"velocity":0.5590551181102362},{"duration":0.13043475000000626,"midi":80,"time":55.04346449999999,"velocity":0.5590551181102362},{"duration":0.13043474999999916,"midi":80,"time":55.07607318749999,"velocity":0.5590551181102362},{"duration":0.13043474999999916,"midi":80,"time":55.07607318749999,"velocity":0.5590551181102362},{"duration":0.13043474999999916,"midi":82,"time":55.17389925,"velocity":0.5590551181102362},{"duration":0.13043474999999916,"midi":48,"time":55.17389925,"velocity":0.5590551181102362},{"duration":0.13043474999999916,"midi":82,"time":55.17389925,"velocity":0.5590551181102362},{"duration":0.13043474999999916,"midi":48,"time":55.17389925,"velocity":0.5590551181102362},{"duration":0.13043474999999916,"midi":82,"time":55.20650793749999,"velocity":0.5590551181102362},{"duration":0.13043474999999916,"midi":82,"time":55.20650793749999,"velocity":0.5590551181102362},{"duration":0.13043474999999916,"midi":46,"time":55.304334,"velocity":0.5590551181102362},{"duration":0.13043474999999916,"midi":84,"time":55.304334,"velocity":0.5590551181102362},{"duration":0.13043474999999916,"midi":84,"time":55.304334,"velocity":0.5590551181102362},{"duration":0.13043474999999916,"midi":46,"time":55.304334,"velocity":0.5590551181102362},{"duration":0.13043475000000626,"midi":84,"time":55.33694268749999,"velocity":0.5590551181102362},{"duration":0.13043475000000626,"midi":84,"time":55.33694268749999,"velocity":0.5590551181102362},{"duration":0.13043474999999916,"midi":53,"time":55.434768749999996,"velocity":0.5590551181102362},{"duration":0.13043474999999916,"midi":82,"time":55.434768749999996,"velocity":0.5590551181102362},{"duration":0.13043474999999916,"midi":53,"time":55.434768749999996,"velocity":0.5590551181102362},{"duration":0.13043474999999916,"midi":82,"time":55.434768749999996,"velocity":0.5590551181102362},{"duration":0.13043474999999916,"midi":82,"time":55.4673774375,"velocity":0.5590551181102362},{"duration":0.13043474999999916,"midi":82,"time":55.4673774375,"velocity":0.5590551181102362},{"duration":0.13043474999999916,"midi":80,"time":55.565203499999996,"velocity":0.5590551181102362},{"duration":0.13043474999999916,"midi":56,"time":55.565203499999996,"velocity":0.5590551181102362},{"duration":0.13043474999999916,"midi":80,"time":55.565203499999996,"velocity":0.5590551181102362},{"duration":0.13043474999999916,"midi":56,"time":55.565203499999996,"velocity":0.5590551181102362},{"duration":0.13043474999999916,"midi":80,"time":55.5978121875,"velocity":0.5590551181102362},{"duration":0.13043474999999916,"midi":80,"time":55.5978121875,"velocity":0.5590551181102362},{"duration":0.13043474999999916,"midi":58,"time":55.695638249999995,"velocity":0.5590551181102362},{"duration":0.13043474999999916,"midi":58,"time":55.695638249999995,"velocity":0.5590551181102362},{"duration":0.13043474999999916,"midi":79,"time":55.695638249999995,"velocity":0.5590551181102362},{"duration":0.13043474999999916,"midi":79,"time":55.695638249999995,"velocity":0.5590551181102362},{"duration":0.13043474999999916,"midi":79,"time":55.728246937499996,"velocity":0.5590551181102362},{"duration":0.13043474999999916,"midi":79,"time":55.728246937499996,"velocity":0.5590551181102362},{"duration":0.13043474999999916,"midi":46,"time":55.826072999999994,"velocity":0.5590551181102362},{"duration":0.13043474999999916,"midi":80,"time":55.826072999999994,"velocity":0.5590551181102362},{"duration":0.13043474999999916,"midi":46,"time":55.826072999999994,"velocity":0.5590551181102362},{"duration":0.13043474999999916,"midi":80,"time":55.826072999999994,"velocity":0.5590551181102362},{"duration":0.13043474999999916,"midi":80,"time":55.858681687499995,"velocity":0.5590551181102362},{"duration":0.13043474999999916,"midi":80,"time":55.858681687499995,"velocity":0.5590551181102362},{"duration":0.13043474999999916,"midi":56,"time":55.95650774999999,"velocity":0.5590551181102362},{"duration":0.13043474999999916,"midi":79,"time":55.95650774999999,"velocity":0.5590551181102362},{"duration":0.13043474999999916,"midi":56,"time":55.95650774999999,"velocity":0.5590551181102362},{"duration":0.13043474999999916,"midi":79,"time":55.95650774999999,"velocity":0.5590551181102362},{"duration":0.13043474999999916,"midi":79,"time":55.989116437499995,"velocity":0.5590551181102362},{"duration":0.13043474999999916,"midi":79,"time":55.989116437499995,"velocity":0.5590551181102362},{"duration":0.13043475000000626,"midi":55,"time":56.08694249999999,"velocity":0.5590551181102362},{"duration":0.13043475000000626,"midi":77,"time":56.08694249999999,"velocity":0.5590551181102362},{"duration":0.13043475000000626,"midi":55,"time":56.08694249999999,"velocity":0.5590551181102362},{"duration":0.13043475000000626,"midi":77,"time":56.08694249999999,"velocity":0.5590551181102362},{"duration":0.13043474999999916,"midi":77,"time":56.119551187499994,"velocity":0.5590551181102362},{"duration":0.13043474999999916,"midi":77,"time":56.119551187499994,"velocity":0.5590551181102362},{"duration":0.13043474999999916,"midi":53,"time":56.21737725,"velocity":0.5590551181102362},{"duration":0.13043474999999916,"midi":79,"time":56.21737725,"velocity":0.5590551181102362},{"duration":0.13043474999999916,"midi":79,"time":56.21737725,"velocity":0.5590551181102362},{"duration":0.13043474999999916,"midi":53,"time":56.21737725,"velocity":0.5590551181102362},{"duration":0.13043474999999916,"midi":79,"time":56.24998593749999,"velocity":0.5590551181102362},{"duration":0.13043474999999916,"midi":79,"time":56.24998593749999,"velocity":0.5590551181102362},{"duration":0.2608694999999983,"midi":77,"time":56.347812,"velocity":0.5590551181102362},{"duration":0.13043474999999916,"midi":49,"time":56.347812,"velocity":0.5590551181102362},{"duration":0.2608694999999983,"midi":77,"time":56.347812,"velocity":0.5590551181102362},{"duration":0.13043474999999916,"midi":49,"time":56.347812,"velocity":0.5590551181102362},{"duration":0.13043474999999916,"midi":53,"time":56.47824675,"velocity":0.5590551181102362},{"duration":0.13043474999999916,"midi":53,"time":56.47824675,"velocity":0.5590551181102362},{"duration":0.13043474999999916,"midi":56,"time":56.608681499999996,"velocity":0.5590551181102362},{"duration":0.2608694999999983,"midi":87,"time":56.608681499999996,"velocity":0.5590551181102362},{"duration":0.2608694999999983,"midi":87,"time":56.608681499999996,"velocity":0.5590551181102362},{"duration":0.13043474999999916,"midi":56,"time":56.608681499999996,"velocity":0.5590551181102362},{"duration":0.13043474999999916,"midi":53,"time":56.739116249999995,"velocity":0.5590551181102362},{"duration":0.13043474999999916,"midi":53,"time":56.739116249999995,"velocity":0.5590551181102362},{"duration":0.13043474999999916,"midi":49,"time":56.869550999999994,"velocity":0.5590551181102362},{"duration":0.13043474999999916,"midi":49,"time":56.869550999999994,"velocity":0.5590551181102362},{"duration":0.13043474999999916,"midi":85,"time":56.869550999999994,"velocity":0.5590551181102362},{"duration":0.13043474999999916,"midi":85,"time":56.869550999999994,"velocity":0.5590551181102362},{"duration":0.13043474999999916,"midi":53,"time":56.99998574999999,"velocity":0.5590551181102362},{"duration":0.13043474999999916,"midi":87,"time":56.99998574999999,"velocity":0.5590551181102362},{"duration":0.13043474999999916,"midi":87,"time":56.99998574999999,"velocity":0.5590551181102362},{"duration":0.13043474999999916,"midi":53,"time":56.99998574999999,"velocity":0.5590551181102362},{"duration":0.13043474999999916,"midi":84,"time":57.13042049999999,"velocity":0.5590551181102362},{"duration":0.13043474999999916,"midi":84,"time":57.13042049999999,"velocity":0.5590551181102362},{"duration":0.13043474999999916,"midi":56,"time":57.13042049999999,"velocity":0.5590551181102362},{"duration":0.13043474999999916,"midi":56,"time":57.13042049999999,"velocity":0.5590551181102362},{"duration":0.13043475000000626,"midi":87,"time":57.26085524999999,"velocity":0.5590551181102362},{"duration":0.13043475000000626,"midi":87,"time":57.26085524999999,"velocity":0.5590551181102362},{"duration":0.13043475000000626,"midi":53,"time":57.26085524999999,"velocity":0.5590551181102362},{"duration":0.13043475000000626,"midi":53,"time":57.26085524999999,"velocity":0.5590551181102362},{"duration":0.13043474999999916,"midi":82,"time":57.39129,"velocity":0.5590551181102362},{"duration":0.13043474999999916,"midi":48,"time":57.39129,"velocity":0.5590551181102362},{"duration":0.13043474999999916,"midi":48,"time":57.39129,"velocity":0.5590551181102362},{"duration":0.13043474999999916,"midi":82,"time":57.39129,"velocity":0.5590551181102362},{"duration":0.13043474999999916,"midi":53,"time":57.52172475,"velocity":0.5590551181102362},{"duration":0.13043474999999916,"midi":84,"time":57.52172475,"velocity":0.5590551181102362},{"duration":0.13043474999999916,"midi":53,"time":57.52172475,"velocity":0.5590551181102362},{"duration":0.13043474999999916,"midi":84,"time":57.52172475,"velocity":0.5590551181102362},{"duration":0.13043474999999916,"midi":44,"time":57.652159499999996,"velocity":0.5590551181102362},{"duration":0.13043474999999916,"midi":80,"time":57.652159499999996,"velocity":0.5590551181102362},{"duration":0.13043474999999916,"midi":44,"time":57.652159499999996,"velocity":0.5590551181102362},{"duration":0.13043474999999916,"midi":80,"time":57.652159499999996,"velocity":0.5590551181102362},{"duration":0.13043474999999916,"midi":46,"time":57.782594249999995,"velocity":0.5590551181102362},{"duration":0.13043474999999916,"midi":46,"time":57.782594249999995,"velocity":0.5590551181102362},{"duration":0.13043474999999916,"midi":82,"time":57.782594249999995,"velocity":0.5590551181102362},{"duration":0.13043474999999916,"midi":82,"time":57.782594249999995,"velocity":0.5590551181102362},{"duration":0.13043474999999916,"midi":48,"time":57.913028999999995,"velocity":0.5590551181102362},{"duration":0.13043474999999916,"midi":48,"time":57.913028999999995,"velocity":0.5590551181102362},{"duration":0.5217389999999966,"midi":84,"time":57.913028999999995,"velocity":0.5590551181102362},{"duration":0.5217389999999966,"midi":84,"time":57.913028999999995,"velocity":0.5590551181102362},{"duration":0.13043474999999916,"midi":52,"time":58.043463749999994,"velocity":0.5590551181102362},{"duration":0.13043474999999916,"midi":52,"time":58.043463749999994,"velocity":0.5590551181102362},{"duration":0.13043474999999916,"midi":40,"time":58.17389849999999,"velocity":0.5590551181102362},{"duration":0.13043474999999916,"midi":40,"time":58.17389849999999,"velocity":0.5590551181102362},{"duration":0.13043474999999916,"midi":52,"time":58.30433324999999,"velocity":0.5590551181102362},{"duration":0.13043474999999916,"midi":52,"time":58.30433324999999,"velocity":0.5590551181102362},{"duration":0.2608695000000054,"midi":72,"time":58.43476799999999,"velocity":0.5590551181102362},{"duration":0.2608695000000054,"midi":84,"time":58.43476799999999,"velocity":0.5590551181102362},{"duration":0.2608695000000054,"midi":72,"time":58.43476799999999,"velocity":0.5590551181102362},{"duration":0.2608695000000054,"midi":84,"time":58.43476799999999,"velocity":0.5590551181102362},{"duration":0.2608695000000054,"midi":80,"time":58.43476799999999,"velocity":0.5590551181102362},{"duration":0.2608695000000054,"midi":80,"time":58.43476799999999,"velocity":0.5590551181102362},{"duration":0.2608694999999983,"midi":80,"time":58.6956375,"velocity":0.5590551181102362},{"duration":0.2608694999999983,"midi":80,"time":58.6956375,"velocity":0.5590551181102362},{"duration":0.2608694999999983,"midi":68,"time":58.6956375,"velocity":0.5590551181102362},{"duration":0.2608694999999983,"midi":77,"time":58.6956375,"velocity":0.5590551181102362},{"duration":0.2608694999999983,"midi":77,"time":58.6956375,"velocity":0.5590551181102362},{"duration":0.2608694999999983,"midi":68,"time":58.6956375,"velocity":0.5590551181102362},{"duration":0.2608694999999983,"midi":72,"time":58.956506999999995,"velocity":0.5590551181102362},{"duration":0.2608694999999983,"midi":65,"time":58.956506999999995,"velocity":0.5590551181102362},{"duration":0.2608694999999983,"midi":77,"time":58.956506999999995,"velocity":0.5590551181102362},{"duration":0.2608694999999983,"midi":77,"time":58.956506999999995,"velocity":0.5590551181102362},{"duration":0.2608694999999983,"midi":72,"time":58.956506999999995,"velocity":0.5590551181102362},{"duration":0.2608694999999983,"midi":65,"time":58.956506999999995,"velocity":0.5590551181102362},{"duration":0.2608694999999983,"midi":60,"time":59.21737649999999,"velocity":0.5590551181102362},{"duration":0.2608694999999983,"midi":72,"time":59.21737649999999,"velocity":0.5590551181102362},{"duration":0.2608694999999983,"midi":68,"time":59.21737649999999,"velocity":0.5590551181102362},{"duration":0.2608694999999983,"midi":68,"time":59.21737649999999,"velocity":0.5590551181102362},{"duration":0.2608694999999983,"midi":72,"time":59.21737649999999,"velocity":0.5590551181102362},{"duration":0.2608694999999983,"midi":60,"time":59.21737649999999,"velocity":0.5590551181102362},{"duration":0.2608695000000054,"midi":68,"time":59.47824599999999,"velocity":0.5590551181102362},{"duration":0.2608695000000054,"midi":77,"time":59.47824599999999,"velocity":0.5590551181102362},{"duration":0.2608695000000054,"midi":68,"time":59.47824599999999,"velocity":0.5590551181102362},{"duration":0.2608695000000054,"midi":77,"time":59.47824599999999,"velocity":0.5590551181102362},{"duration":0.2608695000000054,"midi":80,"time":59.47824599999999,"velocity":0.5590551181102362},{"duration":0.2608695000000054,"midi":80,"time":59.47824599999999,"velocity":0.5590551181102362},{"duration":0.13043474999999916,"midi":65,"time":59.7391155,"velocity":0.5590551181102362},{"duration":0.13043474999999916,"midi":72,"time":59.7391155,"velocity":0.5590551181102362},{"duration":0.13043474999999916,"midi":77,"time":59.7391155,"velocity":0.5590551181102362},{"duration":0.13043474999999916,"midi":65,"time":59.7391155,"velocity":0.5590551181102362},{"duration":0.13043474999999916,"midi":77,"time":59.7391155,"velocity":0.5590551181102362},{"duration":0.13043474999999916,"midi":72,"time":59.7391155,"velocity":0.5590551181102362},{"duration":0.6521737499999958,"midi":73,"time":59.869550249999996,"velocity":0.5590551181102362},{"duration":0.6521737499999958,"midi":67,"time":59.869550249999996,"velocity":0.5590551181102362},{"duration":0.6521737499999958,"midi":79,"time":59.869550249999996,"velocity":0.5590551181102362},{"duration":0.6521737499999958,"midi":67,"time":59.869550249999996,"velocity":0.5590551181102362},{"duration":0.6521737499999958,"midi":73,"time":59.869550249999996,"velocity":0.5590551181102362},{"duration":0.6521737499999958,"midi":79,"time":59.869550249999996,"velocity":0.5590551181102362},{"duration":0.2608695000000054,"midi":68,"time":60.52172399999999,"velocity":0.5590551181102362},{"duration":0.2608695000000054,"midi":80,"time":60.52172399999999,"velocity":0.5590551181102362},{"duration":0.2608695000000054,"midi":77,"time":60.52172399999999,"velocity":0.5590551181102362},{"duration":0.2608695000000054,"midi":80,"time":60.52172399999999,"velocity":0.5590551181102362},{"duration":0.2608695000000054,"midi":68,"time":60.52172399999999,"velocity":0.5590551181102362},{"duration":0.2608695000000054,"midi":77,"time":60.52172399999999,"velocity":0.5590551181102362},{"duration":0.13043474999999916,"midi":72,"time":60.7825935,"velocity":0.5590551181102362},{"duration":0.13043474999999916,"midi":65,"time":60.7825935,"velocity":0.5590551181102362},{"duration":0.13043474999999916,"midi":65,"time":60.7825935,"velocity":0.5590551181102362},{"duration":0.13043474999999916,"midi":72,"time":60.7825935,"velocity":0.5590551181102362},{"duration":0.13043474999999916,"midi":77,"time":60.7825935,"velocity":0.5590551181102362},{"duration":0.13043474999999916,"midi":77,"time":60.7825935,"velocity":0.5590551181102362},{"duration":0.6521737499999958,"midi":73,"time":60.913028249999996,"velocity":0.5590551181102362},{"duration":0.6521737499999958,"midi":67,"time":60.913028249999996,"velocity":0.5590551181102362},{"duration":0.6521737499999958,"midi":67,"time":60.913028249999996,"velocity":0.5590551181102362},{"duration":0.6521737499999958,"midi":79,"time":60.913028249999996,"velocity":0.5590551181102362},{"duration":0.6521737499999958,"midi":73,"time":60.913028249999996,"velocity":0.5590551181102362},{"duration":0.6521737499999958,"midi":79,"time":60.913028249999996,"velocity":0.5590551181102362},{"duration":0.2608695000000054,"midi":68,"time":61.56520199999999,"velocity":0.5590551181102362},{"duration":0.2608695000000054,"midi":77,"time":61.56520199999999,"velocity":0.5590551181102362},{"duration":0.2608695000000054,"midi":77,"time":61.56520199999999,"velocity":0.5590551181102362},{"duration":0.2608695000000054,"midi":80,"time":61.56520199999999,"velocity":0.5590551181102362},{"duration":0.2608695000000054,"midi":68,"time":61.56520199999999,"velocity":0.5590551181102362},{"duration":0.2608695000000054,"midi":80,"time":61.56520199999999,"velocity":0.5590551181102362},{"duration":0.13043474999999916,"midi":72,"time":61.8260715,"velocity":0.5590551181102362},{"duration":0.13043474999999916,"midi":72,"time":61.8260715,"velocity":0.5590551181102362},{"duration":0.13043474999999916,"midi":77,"time":61.8260715,"velocity":0.5590551181102362},{"duration":0.13043474999999916,"midi":65,"time":61.8260715,"velocity":0.5590551181102362},{"duration":0.13043474999999916,"midi":77,"time":61.8260715,"velocity":0.5590551181102362},{"duration":0.13043474999999916,"midi":65,"time":61.8260715,"velocity":0.5590551181102362},{"duration":0.2608694999999983,"midi":73,"time":61.95650625,"velocity":0.5590551181102362},{"duration":0.2608694999999983,"midi":67,"time":61.95650625,"velocity":0.5590551181102362},{"duration":0.2608694999999983,"midi":73,"time":61.95650625,"velocity":0.5590551181102362},{"duration":0.2608694999999983,"midi":79,"time":61.95650625,"velocity":0.5590551181102362},{"duration":0.2608694999999983,"midi":79,"time":61.95650625,"velocity":0.5590551181102362},{"duration":0.2608694999999983,"midi":67,"time":61.95650625,"velocity":0.5590551181102362},{"duration":0.13043474999999916,"midi":73,"time":62.217375749999995,"velocity":0.5590551181102362},{"duration":0.13043474999999916,"midi":85,"time":62.217375749999995,"velocity":0.5590551181102362},{"duration":0.13043474999999916,"midi":85,"time":62.217375749999995,"velocity":0.5590551181102362},{"duration":0.13043474999999916,"midi":73,"time":62.217375749999995,"velocity":0.5590551181102362},{"duration":0.13043474999999916,"midi":84,"time":62.347810499999994,"velocity":0.5590551181102362},{"duration":0.13043474999999916,"midi":72,"time":62.347810499999994,"velocity":0.5590551181102362},{"duration":0.13043474999999916,"midi":72,"time":62.347810499999994,"velocity":0.5590551181102362},{"duration":0.13043474999999916,"midi":84,"time":62.347810499999994,"velocity":0.5590551181102362},{"duration":0.13043474999999916,"midi":73,"time":62.47824524999999,"velocity":0.5590551181102362},{"duration":0.13043474999999916,"midi":85,"time":62.47824524999999,"velocity":0.5590551181102362},{"duration":0.13043474999999916,"midi":85,"time":62.47824524999999,"velocity":0.5590551181102362},{"duration":0.13043474999999916,"midi":73,"time":62.47824524999999,"velocity":0.5590551181102362},{"duration":0.2608694999999983,"midi":72,"time":62.60867999999999,"velocity":0.5590551181102362},{"duration":0.2608694999999983,"midi":84,"time":62.60867999999999,"velocity":0.5590551181102362},{"duration":0.2608694999999983,"midi":72,"time":62.60867999999999,"velocity":0.5590551181102362},{"duration":0.2608694999999983,"midi":84,"time":62.60867999999999,"velocity":0.5590551181102362},{"duration":0.2608695000000054,"midi":89,"time":62.86954949999999,"velocity":0.5590551181102362},{"duration":0.2608695000000054,"midi":77,"time":62.86954949999999,"velocity":0.5590551181102362},{"duration":0.2608695000000054,"midi":89,"time":62.86954949999999,"velocity":0.5590551181102362},{"duration":0.2608695000000054,"midi":77,"time":62.86954949999999,"velocity":0.5590551181102362},{"duration":0.2608694999999983,"midi":70,"time":63.130418999999996,"velocity":0.5590551181102362},{"duration":0.2608694999999983,"midi":70,"time":63.130418999999996,"velocity":0.5590551181102362},{"duration":0.2608694999999983,"midi":82,"time":63.130418999999996,"velocity":0.5590551181102362},{"duration":0.2608694999999983,"midi":82,"time":63.130418999999996,"velocity":0.5590551181102362},{"duration":0.2608694999999983,"midi":80,"time":63.391288499999995,"velocity":0.5590551181102362},{"duration":0.2608694999999983,"midi":80,"time":63.391288499999995,"velocity":0.5590551181102362},{"duration":0.2608694999999983,"midi":68,"time":63.391288499999995,"velocity":0.5590551181102362},{"duration":0.2608694999999983,"midi":68,"time":63.391288499999995,"velocity":0.5590551181102362},{"duration":0.13043474999999916,"midi":70,"time":63.65215799999999,"velocity":0.5590551181102362},{"duration":0.13043474999999916,"midi":70,"time":63.65215799999999,"velocity":0.5590551181102362},{"duration":0.13043474999999916,"midi":82,"time":63.65215799999999,"velocity":0.5590551181102362},{"duration":0.13043474999999916,"midi":82,"time":63.65215799999999,"velocity":0.5590551181102362},{"duration":0.2608694999999983,"midi":80,"time":63.78259274999999,"velocity":0.5590551181102362},{"duration":0.2608694999999983,"midi":80,"time":63.78259274999999,"velocity":0.5590551181102362},{"duration":0.2608694999999983,"midi":68,"time":63.78259274999999,"velocity":0.5590551181102362},{"duration":0.2608694999999983,"midi":68,"time":63.78259274999999,"velocity":0.5590551181102362},{"duration":0.39130425000000457,"midi":70,"time":64.04346224999999,"velocity":0.5590551181102362},{"duration":0.39130425000000457,"midi":82,"time":64.04346224999999,"velocity":0.5590551181102362},{"duration":0.39130425000000457,"midi":70,"time":64.04346224999999,"velocity":0.5590551181102362},{"duration":0.39130425000000457,"midi":82,"time":64.04346224999999,"velocity":0.5590551181102362},{"duration":0.13043475000000626,"midi":80,"time":64.4347665,"velocity":0.5590551181102362},{"duration":0.13043475000000626,"midi":68,"time":64.4347665,"velocity":0.5590551181102362},{"duration":0.13043475000000626,"midi":68,"time":64.4347665,"velocity":0.5590551181102362},{"duration":0.13043475000000626,"midi":80,"time":64.4347665,"velocity":0.5590551181102362},{"duration":0.13043474999999205,"midi":82,"time":64.56520125,"velocity":0.5590551181102362},{"duration":0.13043474999999205,"midi":82,"time":64.56520125,"velocity":0.5590551181102362},{"duration":0.13043474999999205,"midi":70,"time":64.56520125,"velocity":0.5590551181102362},{"duration":0.13043474999999205,"midi":70,"time":64.56520125,"velocity":0.5590551181102362},{"duration":0.13043475000000626,"midi":71,"time":64.695636,"velocity":0.5590551181102362},{"duration":0.13043475000000626,"midi":71,"time":64.695636,"velocity":0.5590551181102362},{"duration":0.13043475000000626,"midi":83,"time":64.695636,"velocity":0.5590551181102362},{"duration":0.13043475000000626,"midi":83,"time":64.695636,"velocity":0.5590551181102362},{"duration":0.13043474999999205,"midi":70,"time":64.82607075,"velocity":0.5590551181102362},{"duration":0.13043474999999205,"midi":82,"time":64.82607075,"velocity":0.5590551181102362},{"duration":0.13043474999999205,"midi":70,"time":64.82607075,"velocity":0.5590551181102362},{"duration":0.13043474999999205,"midi":82,"time":64.82607075,"velocity":0.5590551181102362},{"duration":0.2608694999999983,"midi":80,"time":64.95650549999999,"velocity":0.5590551181102362},{"duration":0.2608694999999983,"midi":68,"time":64.95650549999999,"velocity":0.5590551181102362},{"duration":0.2608694999999983,"midi":68,"time":64.95650549999999,"velocity":0.5590551181102362},{"duration":0.2608694999999983,"midi":80,"time":64.95650549999999,"velocity":0.5590551181102362},{"duration":0.2608694999999983,"midi":64,"time":65.21737499999999,"velocity":0.5590551181102362},{"duration":0.2608694999999983,"midi":64,"time":65.21737499999999,"velocity":0.5590551181102362},{"duration":0.2608694999999983,"midi":76,"time":65.21737499999999,"velocity":0.5590551181102362},{"duration":0.2608694999999983,"midi":76,"time":65.21737499999999,"velocity":0.5590551181102362},{"duration":0.2608695000000125,"midi":72,"time":65.47824449999999,"velocity":0.5590551181102362},{"duration":0.2608695000000125,"midi":60,"time":65.47824449999999,"velocity":0.5590551181102362},{"duration":0.2608695000000125,"midi":60,"time":65.47824449999999,"velocity":0.5590551181102362},{"duration":0.2608695000000125,"midi":72,"time":65.47824449999999,"velocity":0.5590551181102362},{"duration":0.2608694999999983,"midi":61,"time":65.739114,"velocity":0.5590551181102362},{"duration":0.2608694999999983,"midi":73,"time":65.739114,"velocity":0.5590551181102362},{"duration":0.2608694999999983,"midi":61,"time":65.739114,"velocity":0.5590551181102362},{"duration":0.2608694999999983,"midi":73,"time":65.739114,"velocity":0.5590551181102362},{"duration":0.2608694999999983,"midi":64,"time":65.9999835,"velocity":0.5590551181102362},{"duration":0.2608694999999983,"midi":76,"time":65.9999835,"velocity":0.5590551181102362},{"duration":0.2608694999999983,"midi":76,"time":65.9999835,"velocity":0.5590551181102362},{"duration":0.2608694999999983,"midi":64,"time":65.9999835,"velocity":0.5590551181102362},{"duration":0.5217389999999966,"midi":65,"time":66.260853,"velocity":0.5590551181102362},{"duration":0.5217389999999966,"midi":65,"time":66.260853,"velocity":0.5590551181102362},{"duration":0.5217389999999966,"midi":77,"time":66.260853,"velocity":0.5590551181102362},{"duration":0.5217389999999966,"midi":77,"time":66.260853,"velocity":0.5590551181102362},{"duration":0.13043475000000626,"midi":61,"time":66.782592,"velocity":0.5590551181102362},{"duration":0.13043475000000626,"midi":61,"time":66.782592,"velocity":0.5590551181102362},{"duration":0.13043474999999205,"midi":68,"time":66.91302675,"velocity":0.5590551181102362},{"duration":0.13043474999999205,"midi":68,"time":66.91302675,"velocity":0.5590551181102362},{"duration":0.13043475000000626,"midi":70,"time":67.04346149999999,"velocity":0.5590551181102362},{"duration":0.13043475000000626,"midi":94,"time":67.04346149999999,"velocity":0.5590551181102362},{"duration":0.13043475000000626,"midi":94,"time":67.04346149999999,"velocity":0.5590551181102362},{"duration":0.13043475000000626,"midi":70,"time":67.04346149999999,"velocity":0.5590551181102362},{"duration":0.13043475000000626,"midi":94,"time":67.04346149999999,"velocity":0.5590551181102362},{"duration":0.13043475000000626,"midi":94,"time":67.04346149999999,"velocity":0.5590551181102362},{"duration":0.13043474999999205,"midi":92,"time":67.17389625,"velocity":0.5590551181102362},{"duration":0.13043474999999205,"midi":92,"time":67.17389625,"velocity":0.5590551181102362},{"duration":0.13043474999999205,"midi":68,"time":67.17389625,"velocity":0.5590551181102362},{"duration":0.13043474999999205,"midi":92,"time":67.17389625,"velocity":0.5590551181102362},{"duration":0.13043474999999205,"midi":92,"time":67.17389625,"velocity":0.5590551181102362},{"duration":0.13043474999999205,"midi":68,"time":67.17389625,"velocity":0.5590551181102362},{"duration":0.13043475000000626,"midi":61,"time":67.30433099999999,"velocity":0.5590551181102362},{"duration":0.13043475000000626,"midi":61,"time":67.30433099999999,"velocity":0.5590551181102362},{"duration":0.13043474999999205,"midi":94,"time":67.43476575,"velocity":0.5590551181102362},{"duration":0.13043474999999205,"midi":94,"time":67.43476575,"velocity":0.5590551181102362},{"duration":0.13043474999999205,"midi":94,"time":67.43476575,"velocity":0.5590551181102362},{"duration":0.13043474999999205,"midi":68,"time":67.43476575,"velocity":0.5590551181102362},{"duration":0.13043474999999205,"midi":68,"time":67.43476575,"velocity":0.5590551181102362},{"duration":0.13043474999999205,"midi":94,"time":67.43476575,"velocity":0.5590551181102362},{"duration":0.13043475000000626,"midi":92,"time":67.56520049999999,"velocity":0.5590551181102362},{"duration":0.13043475000000626,"midi":92,"time":67.56520049999999,"velocity":0.5590551181102362},{"duration":0.13043475000000626,"midi":92,"time":67.56520049999999,"velocity":0.5590551181102362},{"duration":0.13043475000000626,"midi":70,"time":67.56520049999999,"velocity":0.5590551181102362},{"duration":0.13043475000000626,"midi":92,"time":67.56520049999999,"velocity":0.5590551181102362},{"duration":0.13043475000000626,"midi":70,"time":67.56520049999999,"velocity":0.5590551181102362},{"duration":0.13043474999999205,"midi":68,"time":67.69563525,"velocity":0.5590551181102362},{"duration":0.13043474999999205,"midi":68,"time":67.69563525,"velocity":0.5590551181102362},{"duration":0.13043475000000626,"midi":61,"time":67.82606999999999,"velocity":0.5590551181102362},{"duration":0.13043475000000626,"midi":61,"time":67.82606999999999,"velocity":0.5590551181102362},{"duration":0.13043475000000626,"midi":68,"time":67.95650475,"velocity":0.5590551181102362},{"duration":0.13043475000000626,"midi":68,"time":67.95650475,"velocity":0.5590551181102362},{"duration":0.13043474999999205,"midi":94,"time":68.0869395,"velocity":0.5590551181102362},{"duration":0.13043474999999205,"midi":94,"time":68.0869395,"velocity":0.5590551181102362},{"duration":0.13043474999999205,"midi":94,"time":68.0869395,"velocity":0.5590551181102362},{"duration":0.13043474999999205,"midi":94,"time":68.0869395,"velocity":0.5590551181102362},{"duration":0.13043474999999205,"midi":70,"time":68.0869395,"velocity":0.5590551181102362},{"duration":0.13043474999999205,"midi":70,"time":68.0869395,"velocity":0.5590551181102362},{"duration":0.13043475000000626,"midi":92,"time":68.21737424999999,"velocity":0.5590551181102362},{"duration":0.13043475000000626,"midi":68,"time":68.21737424999999,"velocity":0.5590551181102362},{"duration":0.13043475000000626,"midi":92,"time":68.21737424999999,"velocity":0.5590551181102362},{"duration":0.13043475000000626,"midi":68,"time":68.21737424999999,"velocity":0.5590551181102362},{"duration":0.13043475000000626,"midi":92,"time":68.21737424999999,"velocity":0.5590551181102362},{"duration":0.13043475000000626,"midi":92,"time":68.21737424999999,"velocity":0.5590551181102362},{"duration":0.13043474999999205,"midi":61,"time":68.347809,"velocity":0.5590551181102362},{"duration":0.13043474999999205,"midi":61,"time":68.347809,"velocity":0.5590551181102362},{"duration":0.13043475000000626,"midi":68,"time":68.47824374999999,"velocity":0.5590551181102362},{"duration":0.13043475000000626,"midi":94,"time":68.47824374999999,"velocity":0.5590551181102362},{"duration":0.13043475000000626,"midi":94,"time":68.47824374999999,"velocity":0.5590551181102362},{"duration":0.13043475000000626,"midi":94,"time":68.47824374999999,"velocity":0.5590551181102362},{"duration":0.13043475000000626,"midi":68,"time":68.47824374999999,"velocity":0.5590551181102362},{"duration":0.13043475000000626,"midi":94,"time":68.47824374999999,"velocity":0.5590551181102362},{"duration":0.13043474999999205,"midi":70,"time":68.6086785,"velocity":0.5590551181102362},{"duration":0.13043474999999205,"midi":92,"time":68.6086785,"velocity":0.5590551181102362},{"duration":0.13043474999999205,"midi":92,"time":68.6086785,"velocity":0.5590551181102362},{"duration":0.13043474999999205,"midi":92,"time":68.6086785,"velocity":0.5590551181102362},{"duration":0.13043474999999205,"midi":70,"time":68.6086785,"velocity":0.5590551181102362},{"duration":0.13043474999999205,"midi":92,"time":68.6086785,"velocity":0.5590551181102362},{"duration":0.13043475000000626,"midi":68,"time":68.73911324999999,"velocity":0.5590551181102362},{"duration":0.13043475000000626,"midi":68,"time":68.73911324999999,"velocity":0.5590551181102362},{"duration":0.13043474999999205,"midi":92,"time":68.869548,"velocity":0.5590551181102362},{"duration":0.13043474999999205,"midi":65,"time":68.869548,"velocity":0.5590551181102362},{"duration":0.13043474999999205,"midi":65,"time":68.869548,"velocity":0.5590551181102362},{"duration":0.13043474999999205,"midi":92,"time":68.869548,"velocity":0.5590551181102362},{"duration":0.13043474999999205,"midi":92,"time":68.869548,"velocity":0.5590551181102362},{"duration":0.13043474999999205,"midi":92,"time":68.869548,"velocity":0.5590551181102362},{"duration":0.13043475000000626,"midi":94,"time":68.99998274999999,"velocity":0.5590551181102362},{"duration":0.13043475000000626,"midi":72,"time":68.99998274999999,"velocity":0.5590551181102362},{"duration":0.13043475000000626,"midi":94,"time":68.99998274999999,"velocity":0.5590551181102362},{"duration":0.13043475000000626,"midi":72,"time":68.99998274999999,"velocity":0.5590551181102362},{"duration":0.13043475000000626,"midi":94,"time":68.99998274999999,"velocity":0.5590551181102362},{"duration":0.13043475000000626,"midi":94,"time":68.99998274999999,"velocity":0.5590551181102362},{"duration":0.13043475000000626,"midi":92,"time":69.06520012499999,"velocity":0.5590551181102362},{"duration":0.13043475000000626,"midi":92,"time":69.06520012499999,"velocity":0.5590551181102362},{"duration":0.13043475000000626,"midi":92,"time":69.06520012499999,"velocity":0.5590551181102362},{"duration":0.13043475000000626,"midi":92,"time":69.06520012499999,"velocity":0.5590551181102362},{"duration":0.22826081249999675,"midi":89,"time":69.1304175,"velocity":0.5590551181102362},{"duration":0.13043475000000626,"midi":73,"time":69.1304175,"velocity":0.5590551181102362},{"duration":0.22826081249999675,"midi":89,"time":69.1304175,"velocity":0.5590551181102362},{"duration":0.13043475000000626,"midi":73,"time":69.1304175,"velocity":0.5590551181102362},{"duration":0.22826081249999675,"midi":89,"time":69.1304175,"velocity":0.5590551181102362},{"duration":0.22826081249999675,"midi":89,"time":69.1304175,"velocity":0.5590551181102362},{"duration":0.13043474999999205,"midi":72,"time":69.26085225,"velocity":0.5590551181102362},{"duration":0.13043474999999205,"midi":72,"time":69.26085225,"velocity":0.5590551181102362},{"duration":0.2608694999999983,"midi":89,"time":69.39128699999999,"velocity":0.5590551181102362},{"duration":0.13043475000000626,"midi":65,"time":69.39128699999999,"velocity":0.5590551181102362},{"duration":0.2608694999999983,"midi":89,"time":69.39128699999999,"velocity":0.5590551181102362},{"duration":0.2608694999999983,"midi":89,"time":69.39128699999999,"velocity":0.5590551181102362},{"duration":0.13043475000000626,"midi":65,"time":69.39128699999999,"velocity":0.5590551181102362},{"duration":0.2608694999999983,"midi":89,"time":69.39128699999999,"velocity":0.5590551181102362},{"duration":0.13043474999999205,"midi":72,"time":69.52172175,"velocity":0.5590551181102362},{"duration":0.13043474999999205,"midi":72,"time":69.52172175,"velocity":0.5590551181102362},{"duration":0.13043475000000626,"midi":73,"time":69.65215649999999,"velocity":0.5590551181102362},{"duration":0.13043475000000626,"midi":88,"time":69.65215649999999,"velocity":0.5590551181102362},{"duration":0.13043475000000626,"midi":73,"time":69.65215649999999,"velocity":0.5590551181102362},{"duration":0.13043475000000626,"midi":88,"time":69.65215649999999,"velocity":0.5590551181102362},{"duration":0.13043475000000626,"midi":88,"time":69.65215649999999,"velocity":0.5590551181102362},{"duration":0.13043475000000626,"midi":88,"time":69.65215649999999,"velocity":0.5590551181102362},{"duration":0.13043474999999205,"midi":89,"time":69.78259125,"velocity":0.5590551181102362},{"duration":0.13043474999999205,"midi":72,"time":69.78259125,"velocity":0.5590551181102362},{"duration":0.13043474999999205,"midi":89,"time":69.78259125,"velocity":0.5590551181102362},{"duration":0.13043474999999205,"midi":72,"time":69.78259125,"velocity":0.5590551181102362},{"duration":0.13043474999999205,"midi":89,"time":69.78259125,"velocity":0.5590551181102362},{"duration":0.13043474999999205,"midi":89,"time":69.78259125,"velocity":0.5590551181102362},{"duration":0.13043475000000626,"midi":65,"time":69.91302599999999,"velocity":0.5590551181102362},{"duration":0.13043475000000626,"midi":65,"time":69.91302599999999,"velocity":0.5590551181102362},{"duration":0.13043475000000626,"midi":72,"time":70.04346075,"velocity":0.5590551181102362},{"duration":0.13043475000000626,"midi":72,"time":70.04346075,"velocity":0.5590551181102362},{"duration":0.13043474999999205,"midi":73,"time":70.1738955,"velocity":0.5590551181102362},{"duration":0.13043474999999205,"midi":73,"time":70.1738955,"velocity":0.5590551181102362},{"duration":0.13043475000000626,"midi":72,"time":70.30433024999999,"velocity":0.5590551181102362},{"duration":0.13043475000000626,"midi":72,"time":70.30433024999999,"velocity":0.5590551181102362},{"duration":0.13043474999999205,"midi":65,"time":70.434765,"velocity":0.5590551181102362},{"duration":0.13043474999999205,"midi":65,"time":70.434765,"velocity":0.5590551181102362},{"duration":0.13043475000000626,"midi":72,"time":70.56519974999999,"velocity":0.5590551181102362},{"duration":0.13043475000000626,"midi":72,"time":70.56519974999999,"velocity":0.5590551181102362},{"duration":0.13043474999999205,"midi":73,"time":70.6956345,"velocity":0.5590551181102362},{"duration":0.13043474999999205,"midi":73,"time":70.6956345,"velocity":0.5590551181102362},{"duration":0.13043475000000626,"midi":72,"time":70.82606924999999,"velocity":0.5590551181102362},{"duration":0.13043475000000626,"midi":72,"time":70.82606924999999,"velocity":0.5590551181102362},{"duration":0.13043474999999205,"midi":61,"time":70.956504,"velocity":0.5590551181102362},{"duration":0.13043474999999205,"midi":61,"time":70.956504,"velocity":0.5590551181102362},{"duration":0.13043475000000626,"midi":68,"time":71.08693874999999,"velocity":0.5590551181102362},{"duration":0.13043475000000626,"midi":68,"time":71.08693874999999,"velocity":0.5590551181102362},{"duration":0.13043475000000626,"midi":94,"time":71.2173735,"velocity":0.5590551181102362},{"duration":0.13043475000000626,"midi":94,"time":71.2173735,"velocity":0.5590551181102362},{"duration":0.13043475000000626,"midi":70,"time":71.2173735,"velocity":0.5590551181102362},{"duration":0.13043475000000626,"midi":70,"time":71.2173735,"velocity":0.5590551181102362},{"duration":0.13043475000000626,"midi":94,"time":71.2173735,"velocity":0.5590551181102362},{"duration":0.13043475000000626,"midi":94,"time":71.2173735,"velocity":0.5590551181102362},{"duration":0.13043474999999205,"midi":68,"time":71.34780825,"velocity":0.5590551181102362},{"duration":0.13043474999999205,"midi":92,"time":71.34780825,"velocity":0.5590551181102362},{"duration":0.13043474999999205,"midi":92,"time":71.34780825,"velocity":0.5590551181102362},{"duration":0.13043474999999205,"midi":92,"time":71.34780825,"velocity":0.5590551181102362},{"duration":0.13043474999999205,"midi":92,"time":71.34780825,"velocity":0.5590551181102362},{"duration":0.13043474999999205,"midi":68,"time":71.34780825,"velocity":0.5590551181102362},{"duration":0.13043475000000626,"midi":61,"time":71.47824299999999,"velocity":0.5590551181102362},{"duration":0.13043475000000626,"midi":61,"time":71.47824299999999,"velocity":0.5590551181102362},{"duration":0.13043474999999205,"midi":94,"time":71.60867775,"velocity":0.5590551181102362},{"duration":0.13043474999999205,"midi":68,"time":71.60867775,"velocity":0.5590551181102362},{"duration":0.13043474999999205,"midi":94,"time":71.60867775,"velocity":0.5590551181102362},{"duration":0.13043474999999205,"midi":68,"time":71.60867775,"velocity":0.5590551181102362},{"duration":0.13043474999999205,"midi":94,"time":71.60867775,"velocity":0.5590551181102362},{"duration":0.13043474999999205,"midi":94,"time":71.60867775,"velocity":0.5590551181102362},{"duration":0.13043475000000626,"midi":70,"time":71.73911249999999,"velocity":0.5590551181102362},{"duration":0.13043475000000626,"midi":70,"time":71.73911249999999,"velocity":0.5590551181102362},{"duration":0.13043475000000626,"midi":92,"time":71.73911249999999,"velocity":0.5590551181102362},{"duration":0.13043475000000626,"midi":92,"time":71.73911249999999,"velocity":0.5590551181102362},{"duration":0.13043475000000626,"midi":92,"time":71.73911249999999,"velocity":0.5590551181102362},{"duration":0.13043475000000626,"midi":92,"time":71.73911249999999,"velocity":0.5590551181102362},{"duration":0.13043474999999205,"midi":68,"time":71.86954725,"velocity":0.5590551181102362},{"duration":0.13043474999999205,"midi":68,"time":71.86954725,"velocity":0.5590551181102362},{"duration":0.13043475000000626,"midi":61,"time":71.99998199999999,"velocity":0.5590551181102362},{"duration":0.13043475000000626,"midi":61,"time":71.99998199999999,"velocity":0.5590551181102362},{"duration":0.13043474999999205,"midi":68,"time":72.13041675,"velocity":0.5590551181102362},{"duration":0.13043474999999205,"midi":68,"time":72.13041675,"velocity":0.5590551181102362},{"duration":0.13043475000000626,"midi":94,"time":72.26085149999999,"velocity":0.5590551181102362},{"duration":0.13043475000000626,"midi":94,"time":72.26085149999999,"velocity":0.5590551181102362},{"duration":0.13043475000000626,"midi":70,"time":72.26085149999999,"velocity":0.5590551181102362},{"duration":0.13043475000000626,"midi":94,"time":72.26085149999999,"velocity":0.5590551181102362},{"duration":0.13043475000000626,"midi":70,"time":72.26085149999999,"velocity":0.5590551181102362},{"duration":0.13043475000000626,"midi":94,"time":72.26085149999999,"velocity":0.5590551181102362},{"duration":0.13043475000000626,"midi":92,"time":72.39128625,"velocity":0.5590551181102362},{"duration":0.13043475000000626,"midi":92,"time":72.39128625,"velocity":0.5590551181102362},{"duration":0.13043475000000626,"midi":92,"time":72.39128625,"velocity":0.5590551181102362},{"duration":0.13043475000000626,"midi":68,"time":72.39128625,"velocity":0.5590551181102362},{"duration":0.13043475000000626,"midi":92,"time":72.39128625,"velocity":0.5590551181102362},{"duration":0.13043475000000626,"midi":68,"time":72.39128625,"velocity":0.5590551181102362},{"duration":0.13043474999999205,"midi":61,"time":72.521721,"velocity":0.5590551181102362},{"duration":0.13043474999999205,"midi":61,"time":72.521721,"velocity":0.5590551181102362},{"duration":0.13043475000000626,"midi":94,"time":72.65215574999999,"velocity":0.5590551181102362},{"duration":0.13043475000000626,"midi":94,"time":72.65215574999999,"velocity":0.5590551181102362},{"duration":0.13043475000000626,"midi":94,"time":72.65215574999999,"velocity":0.5590551181102362},{"duration":0.13043475000000626,"midi":68,"time":72.65215574999999,"velocity":0.5590551181102362},{"duration":0.13043475000000626,"midi":68,"time":72.65215574999999,"velocity":0.5590551181102362},{"duration":0.13043475000000626,"midi":94,"time":72.65215574999999,"velocity":0.5590551181102362},{"duration":0.13043474999999205,"midi":92,"time":72.7825905,"velocity":0.5590551181102362},{"duration":0.13043474999999205,"midi":92,"time":72.7825905,"velocity":0.5590551181102362},{"duration":0.13043474999999205,"midi":70,"time":72.7825905,"velocity":0.5590551181102362},{"duration":0.13043474999999205,"midi":70,"time":72.7825905,"velocity":0.5590551181102362},{"duration":0.13043474999999205,"midi":92,"time":72.7825905,"velocity":0.5590551181102362},{"duration":0.13043474999999205,"midi":92,"time":72.7825905,"velocity":0.5590551181102362},{"duration":0.13043475000000626,"midi":68,"time":72.91302524999999,"velocity":0.5590551181102362},{"duration":0.13043475000000626,"midi":68,"time":72.91302524999999,"velocity":0.5590551181102362},{"duration":0.2608694999999983,"midi":92,"time":73.04346,"velocity":0.5590551181102362},{"duration":0.2608694999999983,"midi":92,"time":73.04346,"velocity":0.5590551181102362},{"duration":0.13043474999999205,"midi":58,"time":73.04346,"velocity":0.5590551181102362},{"duration":0.2608694999999983,"midi":92,"time":73.04346,"velocity":0.5590551181102362},{"duration":0.13043474999999205,"midi":58,"time":73.04346,"velocity":0.5590551181102362},{"duration":0.2608694999999983,"midi":92,"time":73.04346,"velocity":0.5590551181102362},{"duration":0.13043475000000626,"midi":65,"time":73.17389474999999,"velocity":0.5590551181102362},{"duration":0.13043475000000626,"midi":65,"time":73.17389474999999,"velocity":0.5590551181102362},{"duration":0.2608694999999983,"midi":94,"time":73.3043295,"velocity":0.5590551181102362},{"duration":0.13043474999999205,"midi":66,"time":73.3043295,"velocity":0.5590551181102362},{"duration":0.2608694999999983,"midi":94,"time":73.3043295,"velocity":0.5590551181102362},{"duration":0.2608694999999983,"midi":94,"time":73.3043295,"velocity":0.5590551181102362},{"duration":0.13043474999999205,"midi":66,"time":73.3043295,"velocity":0.5590551181102362},{"duration":0.2608694999999983,"midi":94,"time":73.3043295,"velocity":0.5590551181102362},{"duration":0.13043475000000626,"midi":65,"time":73.43476424999999,"velocity":0.5590551181102362},{"duration":0.13043475000000626,"midi":65,"time":73.43476424999999,"velocity":0.5590551181102362},{"duration":0.13043475000000626,"midi":95,"time":73.56519899999999,"velocity":0.5590551181102362},{"duration":0.13043475000000626,"midi":58,"time":73.56519899999999,"velocity":0.5590551181102362},{"duration":0.13043475000000626,"midi":95,"time":73.56519899999999,"velocity":0.5590551181102362},{"duration":0.13043475000000626,"midi":95,"time":73.56519899999999,"velocity":0.5590551181102362},{"duration":0.13043475000000626,"midi":58,"time":73.56519899999999,"velocity":0.5590551181102362},{"duration":0.13043475000000626,"midi":95,"time":73.56519899999999,"velocity":0.5590551181102362},{"duration":0.2608694999999983,"midi":94,"time":73.69563375,"velocity":0.5590551181102362},{"duration":0.2608694999999983,"midi":94,"time":73.69563375,"velocity":0.5590551181102362},{"duration":0.2608694999999983,"midi":94,"time":73.69563375,"velocity":0.5590551181102362},{"duration":0.2608694999999983,"midi":94,"time":73.69563375,"velocity":0.5590551181102362},{"duration":0.13043474999999205,"midi":65,"time":73.69563375,"velocity":0.5590551181102362},{"duration":0.13043474999999205,"midi":65,"time":73.69563375,"velocity":0.5590551181102362},{"duration":0.13043475000000626,"midi":66,"time":73.82606849999999,"velocity":0.5590551181102362},{"duration":0.13043475000000626,"midi":66,"time":73.82606849999999,"velocity":0.5590551181102362},{"duration":0.13043474999999205,"midi":92,"time":73.95650325,"velocity":0.5590551181102362},{"duration":0.13043474999999205,"midi":92,"time":73.95650325,"velocity":0.5590551181102362},{"duration":0.13043474999999205,"midi":92,"time":73.95650325,"velocity":0.5590551181102362},{"duration":0.13043474999999205,"midi":65,"time":73.95650325,"velocity":0.5590551181102362},{"duration":0.13043474999999205,"midi":92,"time":73.95650325,"velocity":0.5590551181102362},{"duration":0.13043474999999205,"midi":65,"time":73.95650325,"velocity":0.5590551181102362},{"duration":0.5217390000000108,"midi":89,"time":74.08693799999999,"velocity":0.5590551181102362},{"duration":0.13043475000000626,"midi":58,"time":74.08693799999999,"velocity":0.5590551181102362},{"duration":0.13043475000000626,"midi":58,"time":74.08693799999999,"velocity":0.5590551181102362},{"duration":0.5217390000000108,"midi":89,"time":74.08693799999999,"velocity":0.5590551181102362},{"duration":0.5217390000000108,"midi":89,"time":74.08693799999999,"velocity":0.5590551181102362},{"duration":0.5217390000000108,"midi":89,"time":74.08693799999999,"velocity":0.5590551181102362},{"duration":0.13043474999999205,"midi":65,"time":74.21737275,"velocity":0.5590551181102362},{"duration":0.13043474999999205,"midi":65,"time":74.21737275,"velocity":0.5590551181102362},{"duration":0.13043475000000626,"midi":66,"time":74.34780749999999,"velocity":0.5590551181102362},{"duration":0.13043475000000626,"midi":66,"time":74.34780749999999,"velocity":0.5590551181102362},{"duration":0.13043475000000626,"midi":65,"time":74.47824225,"velocity":0.5590551181102362},{"duration":0.13043475000000626,"midi":65,"time":74.47824225,"velocity":0.5590551181102362},{"duration":0.13043474999999205,"midi":56,"time":74.608677,"velocity":0.5590551181102362},{"duration":0.13043474999999205,"midi":56,"time":74.608677,"velocity":0.5590551181102362},{"duration":0.13043475000000626,"midi":65,"time":74.73911174999999,"velocity":0.5590551181102362},{"duration":0.13043475000000626,"midi":65,"time":74.73911174999999,"velocity":0.5590551181102362},{"duration":0.13043474999999205,"midi":66,"time":74.8695465,"velocity":0.5590551181102362},{"duration":0.13043474999999205,"midi":66,"time":74.8695465,"velocity":0.5590551181102362},{"duration":0.13043475000000626,"midi":65,"time":74.99998124999999,"velocity":0.5590551181102362},{"duration":0.13043475000000626,"midi":65,"time":74.99998124999999,"velocity":0.5590551181102362},{"duration":1.5652169999999899,"midi":65,"time":75.130416,"velocity":0.5590551181102362},{"duration":1.5652169999999899,"midi":65,"time":75.130416,"velocity":0.5590551181102362},{"duration":1.5652169999999899,"midi":65,"time":75.130416,"velocity":0.5590551181102362},{"duration":0.13043474999999205,"midi":61,"time":75.130416,"velocity":0.5590551181102362},{"duration":1.5652169999999899,"midi":65,"time":75.130416,"velocity":0.5590551181102362},{"duration":0.13043474999999205,"midi":61,"time":75.130416,"velocity":0.5590551181102362},{"duration":0.13043475000000626,"midi":68,"time":75.26085074999999,"velocity":0.5590551181102362},{"duration":0.13043475000000626,"midi":68,"time":75.26085074999999,"velocity":0.5590551181102362},{"duration":0.13043474999999205,"midi":94,"time":75.3912855,"velocity":0.5590551181102362},{"duration":0.13043474999999205,"midi":94,"time":75.3912855,"velocity":0.5590551181102362},{"duration":0.13043474999999205,"midi":70,"time":75.3912855,"velocity":0.5590551181102362},{"duration":0.13043474999999205,"midi":70,"time":75.3912855,"velocity":0.5590551181102362},{"duration":0.13043474999999205,"midi":94,"time":75.3912855,"velocity":0.5590551181102362},{"duration":0.13043474999999205,"midi":94,"time":75.3912855,"velocity":0.5590551181102362},{"duration":0.13043475000000626,"midi":92,"time":75.52172024999999,"velocity":0.5590551181102362},{"duration":0.13043475000000626,"midi":68,"time":75.52172024999999,"velocity":0.5590551181102362},{"duration":0.13043475000000626,"midi":92,"time":75.52172024999999,"velocity":0.5590551181102362},{"duration":0.13043475000000626,"midi":92,"time":75.52172024999999,"velocity":0.5590551181102362},{"duration":0.13043475000000626,"midi":68,"time":75.52172024999999,"velocity":0.5590551181102362},{"duration":0.13043475000000626,"midi":92,"time":75.52172024999999,"velocity":0.5590551181102362},{"duration":0.13043475000000626,"midi":61,"time":75.652155,"velocity":0.5590551181102362},{"duration":0.13043475000000626,"midi":61,"time":75.652155,"velocity":0.5590551181102362},{"duration":0.13043474999999205,"midi":94,"time":75.78258975,"velocity":0.5590551181102362},{"duration":0.13043474999999205,"midi":68,"time":75.78258975,"velocity":0.5590551181102362},{"duration":0.13043474999999205,"midi":68,"time":75.78258975,"velocity":0.5590551181102362},{"duration":0.13043474999999205,"midi":94,"time":75.78258975,"velocity":0.5590551181102362},{"duration":0.13043474999999205,"midi":94,"time":75.78258975,"velocity":0.5590551181102362},{"duration":0.13043474999999205,"midi":94,"time":75.78258975,"velocity":0.5590551181102362},{"duration":0.13043475000000626,"midi":92,"time":75.91302449999999,"velocity":0.5590551181102362},{"duration":0.13043475000000626,"midi":70,"time":75.91302449999999,"velocity":0.5590551181102362},{"duration":0.13043475000000626,"midi":92,"time":75.91302449999999,"velocity":0.5590551181102362},{"duration":0.13043475000000626,"midi":92,"time":75.91302449999999,"velocity":0.5590551181102362},{"duration":0.13043475000000626,"midi":92,"time":75.91302449999999,"velocity":0.5590551181102362},{"duration":0.13043475000000626,"midi":70,"time":75.91302449999999,"velocity":0.5590551181102362},{"duration":0.13043474999999205,"midi":68,"time":76.04345925,"velocity":0.5590551181102362},{"duration":0.13043474999999205,"midi":68,"time":76.04345925,"velocity":0.5590551181102362},{"duration":0.13043475000000626,"midi":61,"time":76.17389399999999,"velocity":0.5590551181102362},{"duration":0.13043475000000626,"midi":61,"time":76.17389399999999,"velocity":0.5590551181102362},{"duration":0.13043474999999205,"midi":68,"time":76.30432875,"velocity":0.5590551181102362},{"duration":0.13043474999999205,"midi":68,"time":76.30432875,"velocity":0.5590551181102362},{"duration":0.13043475000000626,"midi":94,"time":76.43476349999999,"velocity":0.5590551181102362},{"duration":0.13043475000000626,"midi":94,"time":76.43476349999999,"velocity":0.5590551181102362},{"duration":0.13043475000000626,"midi":70,"time":76.43476349999999,"velocity":0.5590551181102362},{"duration":0.13043475000000626,"midi":70,"time":76.43476349999999,"velocity":0.5590551181102362},{"duration":0.13043475000000626,"midi":94,"time":76.43476349999999,"velocity":0.5590551181102362},{"duration":0.13043475000000626,"midi":94,"time":76.43476349999999,"velocity":0.5590551181102362},{"duration":0.13043474999999205,"midi":92,"time":76.56519825,"velocity":0.5590551181102362},{"duration":0.13043474999999205,"midi":92,"time":76.56519825,"velocity":0.5590551181102362},{"duration":0.13043474999999205,"midi":92,"time":76.56519825,"velocity":0.5590551181102362},{"duration":0.13043474999999205,"midi":68,"time":76.56519825,"velocity":0.5590551181102362},{"duration":0.13043474999999205,"midi":92,"time":76.56519825,"velocity":0.5590551181102362},{"duration":0.13043474999999205,"midi":68,"time":76.56519825,"velocity":0.5590551181102362},{"duration":0.13043475000000626,"midi":61,"time":76.69563299999999,"velocity":0.5590551181102362},{"duration":0.13043475000000626,"midi":64,"time":76.69563299999999,"velocity":0.5590551181102362},{"duration":0.13043475000000626,"midi":64,"time":76.69563299999999,"velocity":0.5590551181102362},{"duration":0.13043475000000626,"midi":64,"time":76.69563299999999,"velocity":0.5590551181102362},{"duration":0.13043475000000626,"midi":61,"time":76.69563299999999,"velocity":0.5590551181102362},{"duration":0.13043475000000626,"midi":64,"time":76.69563299999999,"velocity":0.5590551181102362},{"duration":0.13043475000000626,"midi":94,"time":76.82606774999999,"velocity":0.5590551181102362},{"duration":0.13043475000000626,"midi":68,"time":76.82606774999999,"velocity":0.5590551181102362},{"duration":0.13043475000000626,"midi":68,"time":76.82606774999999,"velocity":0.5590551181102362},{"duration":0.13043475000000626,"midi":94,"time":76.82606774999999,"velocity":0.5590551181102362},{"duration":0.13043475000000626,"midi":94,"time":76.82606774999999,"velocity":0.5590551181102362},{"duration":0.13043475000000626,"midi":63,"time":76.82606774999999,"velocity":0.5590551181102362},{"duration":0.13043475000000626,"midi":63,"time":76.82606774999999,"velocity":0.5590551181102362},{"duration":0.13043475000000626,"midi":63,"time":76.82606774999999,"velocity":0.5590551181102362},{"duration":0.13043475000000626,"midi":94,"time":76.82606774999999,"velocity":0.5590551181102362},{"duration":0.13043475000000626,"midi":63,"time":76.82606774999999,"velocity":0.5590551181102362},{"duration":0.13043474999999205,"midi":70,"time":76.9565025,"velocity":0.5590551181102362},{"duration":0.13043474999999205,"midi":62,"time":76.9565025,"velocity":0.5590551181102362},{"duration":0.13043474999999205,"midi":92,"time":76.9565025,"velocity":0.5590551181102362},{"duration":0.13043474999999205,"midi":62,"time":76.9565025,"velocity":0.5590551181102362},{"duration":0.13043474999999205,"midi":92,"time":76.9565025,"velocity":0.5590551181102362},{"duration":0.13043474999999205,"midi":92,"time":76.9565025,"velocity":0.5590551181102362},{"duration":0.13043474999999205,"midi":70,"time":76.9565025,"velocity":0.5590551181102362},{"duration":0.13043474999999205,"midi":92,"time":76.9565025,"velocity":0.5590551181102362},{"duration":0.13043474999999205,"midi":62,"time":76.9565025,"velocity":0.5590551181102362},{"duration":0.13043474999999205,"midi":62,"time":76.9565025,"velocity":0.5590551181102362},{"duration":0.13043475000000626,"midi":68,"time":77.08693724999999,"velocity":0.5590551181102362},{"duration":0.13043475000000626,"midi":61,"time":77.08693724999999,"velocity":0.5590551181102362},{"duration":0.13043475000000626,"midi":61,"time":77.08693724999999,"velocity":0.5590551181102362},{"duration":0.13043475000000626,"midi":61,"time":77.08693724999999,"velocity":0.5590551181102362},{"duration":0.13043475000000626,"midi":61,"time":77.08693724999999,"velocity":0.5590551181102362},{"duration":0.13043475000000626,"midi":68,"time":77.08693724999999,"velocity":0.5590551181102362},{"duration":0.13043474999999205,"midi":92,"time":77.217372,"velocity":0.5590551181102362},{"duration":0.13043474999999205,"midi":65,"time":77.217372,"velocity":0.5590551181102362},{"duration":1.5652169999999899,"midi":60,"time":77.217372,"velocity":0.5590551181102362},{"duration":0.13043474999999205,"midi":92,"time":77.217372,"velocity":0.5590551181102362},{"duration":1.5652169999999899,"midi":60,"time":77.217372,"velocity":0.5590551181102362},{"duration":0.13043474999999205,"midi":92,"time":77.217372,"velocity":0.5590551181102362},{"duration":0.13043474999999205,"midi":65,"time":77.217372,"velocity":0.5590551181102362},{"duration":1.5652169999999899,"midi":60,"time":77.217372,"velocity":0.5590551181102362},{"duration":0.13043474999999205,"midi":92,"time":77.217372,"velocity":0.5590551181102362},{"duration":1.5652169999999899,"midi":60,"time":77.217372,"velocity":0.5590551181102362},{"duration":0.13043475000000626,"midi":72,"time":77.34780674999999,"velocity":0.5590551181102362},{"duration":0.13043475000000626,"midi":94,"time":77.34780674999999,"velocity":0.5590551181102362},{"duration":0.13043475000000626,"midi":94,"time":77.34780674999999,"velocity":0.5590551181102362},{"duration":0.13043475000000626,"midi":94,"time":77.34780674999999,"velocity":0.5590551181102362},{"duration":0.13043475000000626,"midi":72,"time":77.34780674999999,"velocity":0.5590551181102362},{"duration":0.13043475000000626,"midi":94,"time":77.34780674999999,"velocity":0.5590551181102362},{"duration":0.13043475000000626,"midi":92,"time":77.41302412499999,"velocity":0.5590551181102362},{"duration":0.13043475000000626,"midi":92,"time":77.41302412499999,"velocity":0.5590551181102362},{"duration":0.13043475000000626,"midi":92,"time":77.41302412499999,"velocity":0.5590551181102362},{"duration":0.13043475000000626,"midi":92,"time":77.41302412499999,"velocity":0.5590551181102362},{"duration":0.13043474999999205,"midi":73,"time":77.4782415,"velocity":0.5590551181102362},{"duration":0.22826081249999675,"midi":89,"time":77.4782415,"velocity":0.5590551181102362},{"duration":0.22826081249999675,"midi":89,"time":77.4782415,"velocity":0.5590551181102362},{"duration":0.13043474999999205,"midi":73,"time":77.4782415,"velocity":0.5590551181102362},{"duration":0.22826081249999675,"midi":89,"time":77.4782415,"velocity":0.5590551181102362},{"duration":0.22826081249999675,"midi":89,"time":77.4782415,"velocity":0.5590551181102362},{"duration":0.13043475000000626,"midi":72,"time":77.60867624999999,"velocity":0.5590551181102362},{"duration":0.13043475000000626,"midi":72,"time":77.60867624999999,"velocity":0.5590551181102362},{"duration":0.2608694999999983,"midi":89,"time":77.739111,"velocity":0.5590551181102362},{"duration":0.2608694999999983,"midi":89,"time":77.739111,"velocity":0.5590551181102362},{"duration":0.2608694999999983,"midi":89,"time":77.739111,"velocity":0.5590551181102362},{"duration":0.13043474999999205,"midi":65,"time":77.739111,"velocity":0.5590551181102362},{"duration":0.2608694999999983,"midi":89,"time":77.739111,"velocity":0.5590551181102362},{"duration":0.13043474999999205,"midi":65,"time":77.739111,"velocity":0.5590551181102362},{"duration":0.13043475000000626,"midi":72,"time":77.86954574999999,"velocity":0.5590551181102362},{"duration":0.13043475000000626,"midi":72,"time":77.86954574999999,"velocity":0.5590551181102362},{"duration":0.13043475000000626,"midi":88,"time":77.99998049999999,"velocity":0.5590551181102362},{"duration":0.13043475000000626,"midi":73,"time":77.99998049999999,"velocity":0.5590551181102362},{"duration":0.13043475000000626,"midi":73,"time":77.99998049999999,"velocity":0.5590551181102362},{"duration":0.13043475000000626,"midi":88,"time":77.99998049999999,"velocity":0.5590551181102362},{"duration":0.13043475000000626,"midi":88,"time":77.99998049999999,"velocity":0.5590551181102362},{"duration":0.13043475000000626,"midi":88,"time":77.99998049999999,"velocity":0.5590551181102362},{"duration":0.13043474999999205,"midi":72,"time":78.13041525,"velocity":0.5590551181102362},{"duration":0.13043474999999205,"midi":89,"time":78.13041525,"velocity":0.5590551181102362},{"duration":0.13043474999999205,"midi":89,"time":78.13041525,"velocity":0.5590551181102362},{"duration":0.13043474999999205,"midi":89,"time":78.13041525,"velocity":0.5590551181102362},{"duration":0.13043474999999205,"midi":72,"time":78.13041525,"velocity":0.5590551181102362},{"duration":0.13043474999999205,"midi":89,"time":78.13041525,"velocity":0.5590551181102362},{"duration":0.13043475000000626,"midi":65,"time":78.26084999999999,"velocity":0.5590551181102362},{"duration":0.13043475000000626,"midi":65,"time":78.26084999999999,"velocity":0.5590551181102362},{"duration":0.13043474999999205,"midi":72,"time":78.39128475,"velocity":0.5590551181102362},{"duration":0.13043474999999205,"midi":72,"time":78.39128475,"velocity":0.5590551181102362},{"duration":0.13043475000000626,"midi":73,"time":78.52171949999999,"velocity":0.5590551181102362},{"duration":0.13043475000000626,"midi":73,"time":78.52171949999999,"velocity":0.5590551181102362},{"duration":0.13043474999999205,"midi":72,"time":78.65215425,"velocity":0.5590551181102362},{"duration":0.13043474999999205,"midi":72,"time":78.65215425,"velocity":0.5590551181102362},{"duration":0.13043475000000626,"midi":65,"time":78.78258899999999,"velocity":0.5590551181102362},{"duration":0.13043475000000626,"midi":61,"time":78.78258899999999,"velocity":0.5590551181102362},{"duration":0.13043475000000626,"midi":61,"time":78.78258899999999,"velocity":0.5590551181102362},{"duration":0.13043475000000626,"midi":61,"time":78.78258899999999,"velocity":0.5590551181102362},{"duration":0.13043475000000626,"midi":61,"time":78.78258899999999,"velocity":0.5590551181102362},{"duration":0.13043475000000626,"midi":65,"time":78.78258899999999,"velocity":0.5590551181102362},{"duration":0.13043475000000626,"midi":72,"time":78.91302375,"velocity":0.5590551181102362},{"duration":0.13043475000000626,"midi":62,"time":78.91302375,"velocity":0.5590551181102362},{"duration":0.13043475000000626,"midi":72,"time":78.91302375,"velocity":0.5590551181102362},{"duration":0.13043475000000626,"midi":62,"time":78.91302375,"velocity":0.5590551181102362},{"duration":0.13043475000000626,"midi":62,"time":78.91302375,"velocity":0.5590551181102362},{"duration":0.13043475000000626,"midi":62,"time":78.91302375,"velocity":0.5590551181102362},{"duration":0.13043474999999205,"midi":63,"time":79.0434585,"velocity":0.5590551181102362},{"duration":0.13043474999999205,"midi":73,"time":79.0434585,"velocity":0.5590551181102362},{"duration":0.13043474999999205,"midi":63,"time":79.0434585,"velocity":0.5590551181102362},{"duration":0.13043474999999205,"midi":63,"time":79.0434585,"velocity":0.5590551181102362},{"duration":0.13043474999999205,"midi":73,"time":79.0434585,"velocity":0.5590551181102362},{"duration":0.13043474999999205,"midi":63,"time":79.0434585,"velocity":0.5590551181102362},{"duration":0.13043475000000626,"midi":64,"time":79.17389324999999,"velocity":0.5590551181102362},{"duration":0.13043475000000626,"midi":72,"time":79.17389324999999,"velocity":0.5590551181102362},{"duration":0.13043475000000626,"midi":72,"time":79.17389324999999,"velocity":0.5590551181102362},{"duration":0.13043475000000626,"midi":64,"time":79.17389324999999,"velocity":0.5590551181102362},{"duration":0.13043475000000626,"midi":64,"time":79.17389324999999,"velocity":0.5590551181102362},{"duration":0.13043475000000626,"midi":64,"time":79.17389324999999,"velocity":0.5590551181102362},{"duration":1.5652169999999899,"midi":65,"time":79.304328,"velocity":0.5590551181102362},{"duration":0.13043474999999205,"midi":61,"time":79.304328,"velocity":0.5590551181102362},{"duration":1.5652169999999899,"midi":65,"time":79.304328,"velocity":0.5590551181102362},{"duration":0.13043474999999205,"midi":61,"time":79.304328,"velocity":0.5590551181102362},{"duration":1.5652169999999899,"midi":65,"time":79.304328,"velocity":0.5590551181102362},{"duration":1.5652169999999899,"midi":65,"time":79.304328,"velocity":0.5590551181102362},{"duration":0.13043475000000626,"midi":68,"time":79.43476274999999,"velocity":0.5590551181102362},{"duration":0.13043475000000626,"midi":68,"time":79.43476274999999,"velocity":0.5590551181102362},{"duration":0.13043474999999205,"midi":70,"time":79.5651975,"velocity":0.5590551181102362},{"duration":0.13043474999999205,"midi":94,"time":79.5651975,"velocity":0.5590551181102362},{"duration":0.13043474999999205,"midi":70,"time":79.5651975,"velocity":0.5590551181102362},{"duration":0.13043474999999205,"midi":94,"time":79.5651975,"velocity":0.5590551181102362},{"duration":0.13043474999999205,"midi":94,"time":79.5651975,"velocity":0.5590551181102362},{"duration":0.13043474999999205,"midi":94,"time":79.5651975,"velocity":0.5590551181102362},{"duration":0.13043475000000626,"midi":92,"time":79.69563224999999,"velocity":0.5590551181102362},{"duration":0.13043475000000626,"midi":92,"time":79.69563224999999,"velocity":0.5590551181102362},{"duration":0.13043475000000626,"midi":68,"time":79.69563224999999,"velocity":0.5590551181102362},{"duration":0.13043475000000626,"midi":92,"time":79.69563224999999,"velocity":0.5590551181102362},{"duration":0.13043475000000626,"midi":92,"time":79.69563224999999,"velocity":0.5590551181102362},{"duration":0.13043475000000626,"midi":68,"time":79.69563224999999,"velocity":0.5590551181102362},{"duration":0.13043474999999205,"midi":61,"time":79.826067,"velocity":0.5590551181102362},{"duration":0.13043474999999205,"midi":61,"time":79.826067,"velocity":0.5590551181102362},{"duration":0.13043475000000626,"midi":94,"time":79.95650174999999,"velocity":0.5590551181102362},{"duration":0.13043475000000626,"midi":68,"time":79.95650174999999,"velocity":0.5590551181102362},{"duration":0.13043475000000626,"midi":94,"time":79.95650174999999,"velocity":0.5590551181102362},{"duration":0.13043475000000626,"midi":94,"time":79.95650174999999,"velocity":0.5590551181102362},{"duration":0.13043475000000626,"midi":94,"time":79.95650174999999,"velocity":0.5590551181102362},{"duration":0.13043475000000626,"midi":68,"time":79.95650174999999,"velocity":0.5590551181102362},{"duration":0.13043475000000626,"midi":70,"time":80.0869365,"velocity":0.5590551181102362},{"duration":0.13043475000000626,"midi":92,"time":80.0869365,"velocity":0.5590551181102362},{"duration":0.13043475000000626,"midi":70,"time":80.0869365,"velocity":0.5590551181102362},{"duration":0.13043475000000626,"midi":92,"time":80.0869365,"velocity":0.5590551181102362},{"duration":0.13043475000000626,"midi":92,"time":80.0869365,"velocity":0.5590551181102362},{"duration":0.13043475000000626,"midi":92,"time":80.0869365,"velocity":0.5590551181102362},{"duration":0.13043474999999205,"midi":68,"time":80.21737125,"velocity":0.5590551181102362},{"duration":0.13043474999999205,"midi":68,"time":80.21737125,"velocity":0.5590551181102362},{"duration":0.13043475000000626,"midi":61,"time":80.34780599999999,"velocity":0.5590551181102362},{"duration":0.13043475000000626,"midi":61,"time":80.34780599999999,"velocity":0.5590551181102362},{"duration":0.13043474999999205,"midi":68,"time":80.47824075,"velocity":0.5590551181102362},{"duration":0.13043474999999205,"midi":68,"time":80.47824075,"velocity":0.5590551181102362},{"duration":0.13043475000000626,"midi":94,"time":80.60867549999999,"velocity":0.5590551181102362},{"duration":0.13043475000000626,"midi":94,"time":80.60867549999999,"velocity":0.5590551181102362},{"duration":0.13043475000000626,"midi":70,"time":80.60867549999999,"velocity":0.5590551181102362},{"duration":0.13043475000000626,"midi":70,"time":80.60867549999999,"velocity":0.5590551181102362},{"duration":0.13043475000000626,"midi":94,"time":80.60867549999999,"velocity":0.5590551181102362},{"duration":0.13043475000000626,"midi":94,"time":80.60867549999999,"velocity":0.5590551181102362},{"duration":0.13043474999999205,"midi":92,"time":80.73911025,"velocity":0.5590551181102362},{"duration":0.13043474999999205,"midi":92,"time":80.73911025,"velocity":0.5590551181102362},{"duration":0.13043474999999205,"midi":68,"time":80.73911025,"velocity":0.5590551181102362},{"duration":0.13043474999999205,"midi":92,"time":80.73911025,"velocity":0.5590551181102362},{"duration":0.13043474999999205,"midi":68,"time":80.73911025,"velocity":0.5590551181102362},{"duration":0.13043474999999205,"midi":92,"time":80.73911025,"velocity":0.5590551181102362},{"duration":0.2608694999999983,"midi":68,"time":80.86954499999999,"velocity":0.5590551181102362},{"duration":0.13043475000000626,"midi":61,"time":80.86954499999999,"velocity":0.5590551181102362},{"duration":0.2608694999999983,"midi":68,"time":80.86954499999999,"velocity":0.5590551181102362},{"duration":0.5217390000000108,"midi":68,"time":80.86954499999999,"velocity":0.5590551181102362},{"duration":0.5217390000000108,"midi":68,"time":80.86954499999999,"velocity":0.5590551181102362},{"duration":0.13043475000000626,"midi":61,"time":80.86954499999999,"velocity":0.5590551181102362},{"duration":0.13043474999999205,"midi":94,"time":80.99997975,"velocity":0.5590551181102362},{"duration":0.39130425000000457,"midi":68,"time":80.99997975,"velocity":0.5590551181102362},{"duration":0.13043474999999205,"midi":94,"time":80.99997975,"velocity":0.5590551181102362},{"duration":0.39130425000000457,"midi":68,"time":80.99997975,"velocity":0.5590551181102362},{"duration":0.13043474999999205,"midi":94,"time":80.99997975,"velocity":0.5590551181102362},{"duration":0.13043474999999205,"midi":94,"time":80.99997975,"velocity":0.5590551181102362},{"duration":0.13043475000000626,"midi":92,"time":81.13041449999999,"velocity":0.5590551181102362},{"duration":0.13043475000000626,"midi":92,"time":81.13041449999999,"velocity":0.5590551181102362},{"duration":0.13043475000000626,"midi":70,"time":81.13041449999999,"velocity":0.5590551181102362},{"duration":0.13043475000000626,"midi":70,"time":81.13041449999999,"velocity":0.5590551181102362},{"duration":0.13043475000000626,"midi":92,"time":81.13041449999999,"velocity":0.5590551181102362},{"duration":0.13043475000000626,"midi":92,"time":81.13041449999999,"velocity":0.5590551181102362},{"duration":0.13043475000000626,"midi":68,"time":81.26084924999999,"velocity":0.5590551181102362},{"duration":0.13043475000000626,"midi":68,"time":81.26084924999999,"velocity":0.5590551181102362},{"duration":2.0869560000000007,"midi":67,"time":81.391284,"velocity":0.5590551181102362},{"duration":2.0869560000000007,"midi":67,"time":81.391284,"velocity":0.5590551181102362},{"duration":0.13043474999999205,"midi":65,"time":81.391284,"velocity":0.5590551181102362},{"duration":0.2608694999999983,"midi":92,"time":81.391284,"velocity":0.5590551181102362},{"duration":2.0869560000000007,"midi":67,"time":81.391284,"velocity":0.5590551181102362},{"duration":0.2608694999999983,"midi":92,"time":81.391284,"velocity":0.5590551181102362},{"duration":0.2608694999999983,"midi":92,"time":81.391284,"velocity":0.5590551181102362},{"duration":0.13043474999999205,"midi":65,"time":81.391284,"velocity":0.5590551181102362},{"duration":0.2608694999999983,"midi":92,"time":81.391284,"velocity":0.5590551181102362},{"duration":2.0869560000000007,"midi":67,"time":81.391284,"velocity":0.5590551181102362},{"duration":0.13043475000000626,"midi":72,"time":81.52171874999999,"velocity":0.5590551181102362},{"duration":0.13043475000000626,"midi":72,"time":81.52171874999999,"velocity":0.5590551181102362},{"duration":0.13043474999999205,"midi":73,"time":81.6521535,"velocity":0.5590551181102362},{"duration":0.2608694999999983,"midi":94,"time":81.6521535,"velocity":0.5590551181102362},{"duration":0.13043474999999205,"midi":73,"time":81.6521535,"velocity":0.5590551181102362},{"duration":0.2608694999999983,"midi":94,"time":81.6521535,"velocity":0.5590551181102362},{"duration":0.2608694999999983,"midi":94,"time":81.6521535,"velocity":0.5590551181102362},{"duration":0.2608694999999983,"midi":94,"time":81.6521535,"velocity":0.5590551181102362},{"duration":0.13043475000000626,"midi":72,"time":81.78258824999999,"velocity":0.5590551181102362},{"duration":0.13043475000000626,"midi":72,"time":81.78258824999999,"velocity":0.5590551181102362},{"duration":0.13043474999999205,"midi":95,"time":81.913023,"velocity":0.5590551181102362},{"duration":0.13043474999999205,"midi":65,"time":81.913023,"velocity":0.5590551181102362},{"duration":0.13043474999999205,"midi":95,"time":81.913023,"velocity":0.5590551181102362},{"duration":0.13043474999999205,"midi":95,"time":81.913023,"velocity":0.5590551181102362},{"duration":0.13043474999999205,"midi":65,"time":81.913023,"velocity":0.5590551181102362},{"duration":0.13043474999999205,"midi":95,"time":81.913023,"velocity":0.5590551181102362},{"duration":0.13043475000000626,"midi":72,"time":82.04345774999999,"velocity":0.5590551181102362},{"duration":0.13043475000000626,"midi":72,"time":82.04345774999999,"velocity":0.5590551181102362},{"duration":0.2608694999999983,"midi":94,"time":82.04345774999999,"velocity":0.5590551181102362},{"duration":0.2608694999999983,"midi":94,"time":82.04345774999999,"velocity":0.5590551181102362},{"duration":0.2608694999999983,"midi":94,"time":82.04345774999999,"velocity":0.5590551181102362},{"duration":0.2608694999999983,"midi":94,"time":82.04345774999999,"velocity":0.5590551181102362},{"duration":0.13043474999999205,"midi":73,"time":82.1738925,"velocity":0.5590551181102362},{"duration":0.13043474999999205,"midi":73,"time":82.1738925,"velocity":0.5590551181102362},{"duration":0.13043475000000626,"midi":92,"time":82.30432724999999,"velocity":0.5590551181102362},{"duration":0.13043475000000626,"midi":92,"time":82.30432724999999,"velocity":0.5590551181102362},{"duration":0.13043475000000626,"midi":92,"time":82.30432724999999,"velocity":0.5590551181102362},{"duration":0.13043475000000626,"midi":92,"time":82.30432724999999,"velocity":0.5590551181102362},{"duration":0.13043475000000626,"midi":72,"time":82.30432724999999,"velocity":0.5590551181102362},{"duration":0.13043475000000626,"midi":72,"time":82.30432724999999,"velocity":0.5590551181102362},{"duration":0.5217389999999966,"midi":89,"time":82.43476199999999,"velocity":0.5590551181102362},{"duration":0.5217389999999966,"midi":89,"time":82.43476199999999,"velocity":0.5590551181102362},{"duration":0.13043475000000626,"midi":65,"time":82.43476199999999,"velocity":0.5590551181102362},{"duration":0.13043475000000626,"midi":65,"time":82.43476199999999,"velocity":0.5590551181102362},{"duration":0.5217389999999966,"midi":89,"time":82.43476199999999,"velocity":0.5590551181102362},{"duration":0.5217389999999966,"midi":89,"time":82.43476199999999,"velocity":0.5590551181102362},{"duration":0.13043474999999205,"midi":72,"time":82.56519675,"velocity":0.5590551181102362},{"duration":0.13043474999999205,"midi":72,"time":82.56519675,"velocity":0.5590551181102362},{"duration":0.13043475000000626,"midi":73,"time":82.69563149999999,"velocity":0.5590551181102362},{"duration":0.13043475000000626,"midi":73,"time":82.69563149999999,"velocity":0.5590551181102362},{"duration":0.13043474999999205,"midi":72,"time":82.82606625,"velocity":0.5590551181102362},{"duration":0.13043474999999205,"midi":72,"time":82.82606625,"velocity":0.5590551181102362},{"duration":0.13043475000000626,"midi":65,"time":82.95650099999999,"velocity":0.5590551181102362},{"duration":0.13043475000000626,"midi":65,"time":82.95650099999999,"velocity":0.5590551181102362},{"duration":0.13043474999999205,"midi":72,"time":83.08693575,"velocity":0.5590551181102362},{"duration":0.13043474999999205,"midi":72,"time":83.08693575,"velocity":0.5590551181102362},{"duration":0.13043475000000626,"midi":73,"time":83.21737049999999,"velocity":0.5590551181102362},{"duration":0.13043475000000626,"midi":73,"time":83.21737049999999,"velocity":0.5590551181102362},{"duration":0.13043475000000626,"midi":72,"time":83.34780525,"velocity":0.5590551181102362},{"duration":0.13043475000000626,"midi":72,"time":83.34780525,"velocity":0.5590551181102362},{"duration":1.5652169999999899,"midi":53,"time":83.47824,"velocity":0.5590551181102362},{"duration":1.5652169999999899,"midi":53,"time":83.47824,"velocity":0.5590551181102362},{"duration":1.5652169999999899,"midi":53,"time":83.47824,"velocity":0.5590551181102362},{"duration":0.13043474999999205,"midi":49,"time":83.47824,"velocity":0.5590551181102362},{"duration":1.5652169999999899,"midi":53,"time":83.47824,"velocity":0.5590551181102362},{"duration":0.13043474999999205,"midi":49,"time":83.47824,"velocity":0.5590551181102362},{"duration":0.13043475000000626,"midi":56,"time":83.60867474999999,"velocity":0.5590551181102362},{"duration":0.13043475000000626,"midi":56,"time":83.60867474999999,"velocity":0.5590551181102362},{"duration":0.13043474999999205,"midi":82,"time":83.7391095,"velocity":0.5590551181102362},{"duration":0.13043474999999205,"midi":82,"time":83.7391095,"velocity":0.5590551181102362},{"duration":0.13043474999999205,"midi":58,"time":83.7391095,"velocity":0.5590551181102362},{"duration":0.13043474999999205,"midi":82,"time":83.7391095,"velocity":0.5590551181102362},{"duration":0.13043474999999205,"midi":58,"time":83.7391095,"velocity":0.5590551181102362},{"duration":0.13043474999999205,"midi":82,"time":83.7391095,"velocity":0.5590551181102362},{"duration":0.13043475000000626,"midi":80,"time":83.86954424999999,"velocity":0.5590551181102362},{"duration":0.13043475000000626,"midi":80,"time":83.86954424999999,"velocity":0.5590551181102362},{"duration":0.13043475000000626,"midi":80,"time":83.86954424999999,"velocity":0.5590551181102362},{"duration":0.13043475000000626,"midi":80,"time":83.86954424999999,"velocity":0.5590551181102362},{"duration":0.13043475000000626,"midi":56,"time":83.86954424999999,"velocity":0.5590551181102362},{"duration":0.13043475000000626,"midi":56,"time":83.86954424999999,"velocity":0.5590551181102362},{"duration":0.13043474999999205,"midi":49,"time":83.999979,"velocity":0.5590551181102362},{"duration":0.13043474999999205,"midi":49,"time":83.999979,"velocity":0.5590551181102362},{"duration":0.13043475000000626,"midi":56,"time":84.13041374999999,"velocity":0.5590551181102362},{"duration":0.13043475000000626,"midi":82,"time":84.13041374999999,"velocity":0.5590551181102362},{"duration":0.13043475000000626,"midi":56,"time":84.13041374999999,"velocity":0.5590551181102362},{"duration":0.13043475000000626,"midi":82,"time":84.13041374999999,"velocity":0.5590551181102362},{"duration":0.13043475000000626,"midi":82,"time":84.13041374999999,"velocity":0.5590551181102362},{"duration":0.13043475000000626,"midi":82,"time":84.13041374999999,"velocity":0.5590551181102362},{"duration":0.13043474999999205,"midi":58,"time":84.2608485,"velocity":0.5590551181102362},{"duration":0.13043474999999205,"midi":80,"time":84.2608485,"velocity":0.5590551181102362},{"duration":0.13043474999999205,"midi":80,"time":84.2608485,"velocity":0.5590551181102362},{"duration":0.13043474999999205,"midi":80,"time":84.2608485,"velocity":0.5590551181102362},{"duration":0.13043474999999205,"midi":80,"time":84.2608485,"velocity":0.5590551181102362},{"duration":0.13043474999999205,"midi":58,"time":84.2608485,"velocity":0.5590551181102362},{"duration":0.13043475000000626,"midi":56,"time":84.39128324999999,"velocity":0.5590551181102362},{"duration":0.13043475000000626,"midi":56,"time":84.39128324999999,"velocity":0.5590551181102362},{"duration":0.13043475000000626,"midi":49,"time":84.52171799999999,"velocity":0.5590551181102362},{"duration":0.13043475000000626,"midi":49,"time":84.52171799999999,"velocity":0.5590551181102362},{"duration":0.13043474999999205,"midi":56,"time":84.65215275,"velocity":0.5590551181102362},{"duration":0.13043474999999205,"midi":56,"time":84.65215275,"velocity":0.5590551181102362},{"duration":0.13043475000000626,"midi":82,"time":84.78258749999999,"velocity":0.5590551181102362},{"duration":0.13043475000000626,"midi":82,"time":84.78258749999999,"velocity":0.5590551181102362},{"duration":0.13043475000000626,"midi":58,"time":84.78258749999999,"velocity":0.5590551181102362},{"duration":0.13043475000000626,"midi":58,"time":84.78258749999999,"velocity":0.5590551181102362},{"duration":0.13043475000000626,"midi":82,"time":84.78258749999999,"velocity":0.5590551181102362},{"duration":0.13043475000000626,"midi":82,"time":84.78258749999999,"velocity":0.5590551181102362},{"duration":0.13043474999999205,"midi":56,"time":84.91302225,"velocity":0.5590551181102362},{"duration":0.13043474999999205,"midi":80,"time":84.91302225,"velocity":0.5590551181102362},{"duration":0.13043474999999205,"midi":56,"time":84.91302225,"velocity":0.5590551181102362},{"duration":0.13043474999999205,"midi":80,"time":84.91302225,"velocity":0.5590551181102362},{"duration":0.13043474999999205,"midi":80,"time":84.91302225,"velocity":0.5590551181102362},{"duration":0.13043474999999205,"midi":80,"time":84.91302225,"velocity":0.5590551181102362},{"duration":0.13043475000000626,"midi":49,"time":85.04345699999999,"velocity":0.5590551181102362},{"duration":0.13043475000000626,"midi":49,"time":85.04345699999999,"velocity":0.5590551181102362},{"duration":0.13043475000000626,"midi":52,"time":85.04345699999999,"velocity":0.5590551181102362},{"duration":0.13043475000000626,"midi":52,"time":85.04345699999999,"velocity":0.5590551181102362},{"duration":0.13043475000000626,"midi":52,"time":85.04345699999999,"velocity":0.5590551181102362},{"duration":0.13043475000000626,"midi":52,"time":85.04345699999999,"velocity":0.5590551181102362},{"duration":0.13043474999999205,"midi":56,"time":85.17389175,"velocity":0.5590551181102362},{"duration":0.13043474999999205,"midi":56,"time":85.17389175,"velocity":0.5590551181102362},{"duration":0.13043474999999205,"midi":82,"time":85.17389175,"velocity":0.5590551181102362},{"duration":0.13043474999999205,"midi":82,"time":85.17389175,"velocity":0.5590551181102362},{"duration":0.13043474999999205,"midi":82,"time":85.17389175,"velocity":0.5590551181102362},{"duration":0.13043474999999205,"midi":82,"time":85.17389175,"velocity":0.5590551181102362},{"duration":0.13043474999999205,"midi":51,"time":85.17389175,"velocity":0.5590551181102362},{"duration":0.13043474999999205,"midi":51,"time":85.17389175,"velocity":0.5590551181102362},{"duration":0.13043474999999205,"midi":51,"time":85.17389175,"velocity":0.5590551181102362},{"duration":0.13043474999999205,"midi":51,"time":85.17389175,"velocity":0.5590551181102362},{"duration":0.13043475000000626,"midi":80,"time":85.30432649999999,"velocity":0.5590551181102362},{"duration":0.13043475000000626,"midi":80,"time":85.30432649999999,"velocity":0.5590551181102362},{"duration":0.13043475000000626,"midi":58,"time":85.30432649999999,"velocity":0.5590551181102362},{"duration":0.13043475000000626,"midi":50,"time":85.30432649999999,"velocity":0.5590551181102362},{"duration":0.13043475000000626,"midi":50,"time":85.30432649999999,"velocity":0.5590551181102362},{"duration":0.13043475000000626,"midi":80,"time":85.30432649999999,"velocity":0.5590551181102362},{"duration":0.13043475000000626,"midi":50,"time":85.30432649999999,"velocity":0.5590551181102362},{"duration":0.13043475000000626,"midi":58,"time":85.30432649999999,"velocity":0.5590551181102362},{"duration":0.13043475000000626,"midi":80,"time":85.30432649999999,"velocity":0.5590551181102362},{"duration":0.13043475000000626,"midi":50,"time":85.30432649999999,"velocity":0.5590551181102362},{"duration":0.13043474999999205,"midi":49,"time":85.43476125,"velocity":0.5590551181102362},{"duration":0.13043474999999205,"midi":49,"time":85.43476125,"velocity":0.5590551181102362},{"duration":0.13043474999999205,"midi":49,"time":85.43476125,"velocity":0.5590551181102362},{"duration":0.13043474999999205,"midi":56,"time":85.43476125,"velocity":0.5590551181102362},{"duration":0.13043474999999205,"midi":49,"time":85.43476125,"velocity":0.5590551181102362},{"duration":0.13043474999999205,"midi":56,"time":85.43476125,"velocity":0.5590551181102362},{"duration":0.13043475000000626,"midi":53,"time":85.56519599999999,"velocity":0.5590551181102362},{"duration":0.13043475000000626,"midi":80,"time":85.56519599999999,"velocity":0.5590551181102362},{"duration":0.13043475000000626,"midi":80,"time":85.56519599999999,"velocity":0.5590551181102362},{"duration":1.565217000000004,"midi":48,"time":85.56519599999999,"velocity":0.5590551181102362},{"duration":0.13043475000000626,"midi":80,"time":85.56519599999999,"velocity":0.5590551181102362},{"duration":0.13043475000000626,"midi":80,"time":85.56519599999999,"velocity":0.5590551181102362},{"duration":1.565217000000004,"midi":48,"time":85.56519599999999,"velocity":0.5590551181102362},{"duration":0.13043475000000626,"midi":53,"time":85.56519599999999,"velocity":0.5590551181102362},{"duration":1.565217000000004,"midi":48,"time":85.56519599999999,"velocity":0.5590551181102362},{"duration":1.565217000000004,"midi":48,"time":85.56519599999999,"velocity":0.5590551181102362},{"duration":0.13043475000000626,"midi":82,"time":85.69563074999999,"velocity":0.5590551181102362},{"duration":0.13043475000000626,"midi":60,"time":85.69563074999999,"velocity":0.5590551181102362},{"duration":0.13043475000000626,"midi":60,"time":85.69563074999999,"velocity":0.5590551181102362},{"duration":0.13043475000000626,"midi":82,"time":85.69563074999999,"velocity":0.5590551181102362},{"duration":0.13043475000000626,"midi":82,"time":85.69563074999999,"velocity":0.5590551181102362},{"duration":0.13043475000000626,"midi":82,"time":85.69563074999999,"velocity":0.5590551181102362},{"duration":0.13043474999999205,"midi":80,"time":85.760848125,"velocity":0.5590551181102362},{"duration":0.13043474999999205,"midi":80,"time":85.760848125,"velocity":0.5590551181102362},{"duration":0.13043474999999205,"midi":80,"time":85.760848125,"velocity":0.5590551181102362},{"duration":0.13043474999999205,"midi":80,"time":85.760848125,"velocity":0.5590551181102362},{"duration":0.22826081249999675,"midi":77,"time":85.8260655,"velocity":0.5590551181102362},{"duration":0.13043474999999205,"midi":61,"time":85.8260655,"velocity":0.5590551181102362},{"duration":0.13043474999999205,"midi":61,"time":85.8260655,"velocity":0.5590551181102362},{"duration":0.22826081249999675,"midi":77,"time":85.8260655,"velocity":0.5590551181102362},{"duration":0.22826081249999675,"midi":77,"time":85.8260655,"velocity":0.5590551181102362},{"duration":0.22826081249999675,"midi":77,"time":85.8260655,"velocity":0.5590551181102362},{"duration":0.13043475000000626,"midi":60,"time":85.95650024999999,"velocity":0.5590551181102362},{"duration":0.13043475000000626,"midi":60,"time":85.95650024999999,"velocity":0.5590551181102362},{"duration":0.2608694999999983,"midi":77,"time":86.086935,"velocity":0.5590551181102362},{"duration":0.2608694999999983,"midi":77,"time":86.086935,"velocity":0.5590551181102362},{"duration":0.13043474999999205,"midi":53,"time":86.086935,"velocity":0.5590551181102362},{"duration":0.2608694999999983,"midi":77,"time":86.086935,"velocity":0.5590551181102362},{"duration":0.2608694999999983,"midi":77,"time":86.086935,"velocity":0.5590551181102362},{"duration":0.13043474999999205,"midi":53,"time":86.086935,"velocity":0.5590551181102362},{"duration":0.13043475000000626,"midi":60,"time":86.21736974999999,"velocity":0.5590551181102362},{"duration":0.13043475000000626,"midi":60,"time":86.21736974999999,"velocity":0.5590551181102362},{"duration":0.13043474999999205,"midi":76,"time":86.3478045,"velocity":0.5590551181102362},{"duration":0.13043474999999205,"midi":76,"time":86.3478045,"velocity":0.5590551181102362},{"duration":0.13043474999999205,"midi":61,"time":86.3478045,"velocity":0.5590551181102362},{"duration":0.13043474999999205,"midi":61,"time":86.3478045,"velocity":0.5590551181102362},{"duration":0.13043474999999205,"midi":76,"time":86.3478045,"velocity":0.5590551181102362},{"duration":0.13043474999999205,"midi":76,"time":86.3478045,"velocity":0.5590551181102362},{"duration":0.13043475000000626,"midi":77,"time":86.47823924999999,"velocity":0.5590551181102362},{"duration":0.13043475000000626,"midi":77,"time":86.47823924999999,"velocity":0.5590551181102362},{"duration":0.13043475000000626,"midi":77,"time":86.47823924999999,"velocity":0.5590551181102362},{"duration":0.13043475000000626,"midi":77,"time":86.47823924999999,"velocity":0.5590551181102362},{"duration":0.13043475000000626,"midi":60,"time":86.47823924999999,"velocity":0.5590551181102362},{"duration":0.13043475000000626,"midi":60,"time":86.47823924999999,"velocity":0.5590551181102362},{"duration":0.13043474999999205,"midi":53,"time":86.608674,"velocity":0.5590551181102362},{"duration":0.13043474999999205,"midi":53,"time":86.608674,"velocity":0.5590551181102362},{"duration":0.13043475000000626,"midi":60,"time":86.73910874999999,"velocity":0.5590551181102362},{"duration":0.13043475000000626,"midi":60,"time":86.73910874999999,"velocity":0.5590551181102362},{"duration":0.13043475000000626,"midi":61,"time":86.86954349999999,"velocity":0.5590551181102362},{"duration":0.13043475000000626,"midi":61,"time":86.86954349999999,"velocity":0.5590551181102362},{"duration":0.13043474999999205,"midi":60,"time":86.99997825,"velocity":0.5590551181102362},{"duration":0.13043474999999205,"midi":60,"time":86.99997825,"velocity":0.5590551181102362},{"duration":0.13043475000000626,"midi":49,"time":87.13041299999999,"velocity":0.5590551181102362},{"duration":0.13043475000000626,"midi":49,"time":87.13041299999999,"velocity":0.5590551181102362},{"duration":0.13043475000000626,"midi":53,"time":87.13041299999999,"velocity":0.5590551181102362},{"duration":0.13043475000000626,"midi":49,"time":87.13041299999999,"velocity":0.5590551181102362},{"duration":0.13043475000000626,"midi":53,"time":87.13041299999999,"velocity":0.5590551181102362},{"duration":0.13043475000000626,"midi":49,"time":87.13041299999999,"velocity":0.5590551181102362},{"duration":0.13043474999999205,"midi":50,"time":87.26084775,"velocity":0.5590551181102362},{"duration":0.13043474999999205,"midi":60,"time":87.26084775,"velocity":0.5590551181102362},{"duration":0.13043474999999205,"midi":50,"time":87.26084775,"velocity":0.5590551181102362},{"duration":0.13043474999999205,"midi":50,"time":87.26084775,"velocity":0.5590551181102362},{"duration":0.13043474999999205,"midi":60,"time":87.26084775,"velocity":0.5590551181102362},{"duration":0.13043474999999205,"midi":50,"time":87.26084775,"velocity":0.5590551181102362},{"duration":0.13043475000000626,"midi":61,"time":87.39128249999999,"velocity":0.5590551181102362},{"duration":0.13043475000000626,"midi":61,"time":87.39128249999999,"velocity":0.5590551181102362},{"duration":0.13043475000000626,"midi":51,"time":87.39128249999999,"velocity":0.5590551181102362},{"duration":0.13043475000000626,"midi":51,"time":87.39128249999999,"velocity":0.5590551181102362},{"duration":0.13043475000000626,"midi":51,"time":87.39128249999999,"velocity":0.5590551181102362},{"duration":0.13043475000000626,"midi":51,"time":87.39128249999999,"velocity":0.5590551181102362},{"duration":0.13043474999999205,"midi":60,"time":87.52171725,"velocity":0.5590551181102362},{"duration":0.13043474999999205,"midi":52,"time":87.52171725,"velocity":0.5590551181102362},{"duration":0.13043474999999205,"midi":60,"time":87.52171725,"velocity":0.5590551181102362},{"duration":0.13043474999999205,"midi":52,"time":87.52171725,"velocity":0.5590551181102362},{"duration":0.13043474999999205,"midi":52,"time":87.52171725,"velocity":0.5590551181102362},{"duration":0.13043474999999205,"midi":52,"time":87.52171725,"velocity":0.5590551181102362},{"duration":1.565217000000004,"midi":53,"time":87.65215199999999,"velocity":0.5590551181102362},{"duration":0.13043475000000626,"midi":49,"time":87.65215199999999,"velocity":0.5590551181102362},{"duration":1.565217000000004,"midi":53,"time":87.65215199999999,"velocity":0.5590551181102362},{"duration":1.565217000000004,"midi":53,"time":87.65215199999999,"velocity":0.5590551181102362},{"duration":0.13043475000000626,"midi":49,"time":87.65215199999999,"velocity":0.5590551181102362},{"duration":1.565217000000004,"midi":53,"time":87.65215199999999,"velocity":0.5590551181102362},{"duration":0.13043474999999205,"midi":56,"time":87.78258675,"velocity":0.5590551181102362},{"duration":0.13043474999999205,"midi":56,"time":87.78258675,"velocity":0.5590551181102362},{"duration":0.13043475000000626,"midi":58,"time":87.91302149999999,"velocity":0.5590551181102362},{"duration":0.13043475000000626,"midi":82,"time":87.91302149999999,"velocity":0.5590551181102362},{"duration":0.13043475000000626,"midi":58,"time":87.91302149999999,"velocity":0.5590551181102362},{"duration":0.13043475000000626,"midi":82,"time":87.91302149999999,"velocity":0.5590551181102362},{"duration":0.13043475000000626,"midi":82,"time":87.91302149999999,"velocity":0.5590551181102362},{"duration":0.13043475000000626,"midi":82,"time":87.91302149999999,"velocity":0.5590551181102362},{"duration":0.13043475000000626,"midi":80,"time":88.04345624999999,"velocity":0.5590551181102362},{"duration":0.13043475000000626,"midi":56,"time":88.04345624999999,"velocity":0.5590551181102362},{"duration":0.13043475000000626,"midi":80,"time":88.04345624999999,"velocity":0.5590551181102362},{"duration":0.13043475000000626,"midi":80,"time":88.04345624999999,"velocity":0.5590551181102362},{"duration":0.13043475000000626,"midi":80,"time":88.04345624999999,"velocity":0.5590551181102362},{"duration":0.13043475000000626,"midi":56,"time":88.04345624999999,"velocity":0.5590551181102362},{"duration":0.13043474999999205,"midi":49,"time":88.173891,"velocity":0.5590551181102362},{"duration":0.13043474999999205,"midi":49,"time":88.173891,"velocity":0.5590551181102362},{"duration":0.13043475000000626,"midi":56,"time":88.30432574999999,"velocity":0.5590551181102362},{"duration":0.13043475000000626,"midi":82,"time":88.30432574999999,"velocity":0.5590551181102362},{"duration":0.13043475000000626,"midi":82,"time":88.30432574999999,"velocity":0.5590551181102362},{"duration":0.13043475000000626,"midi":82,"time":88.30432574999999,"velocity":0.5590551181102362},{"duration":0.13043475000000626,"midi":82,"time":88.30432574999999,"velocity":0.5590551181102362},{"duration":0.13043475000000626,"midi":56,"time":88.30432574999999,"velocity":0.5590551181102362},{"duration":0.13043474999999205,"midi":80,"time":88.4347605,"velocity":0.5590551181102362},{"duration":0.13043474999999205,"midi":80,"time":88.4347605,"velocity":0.5590551181102362},{"duration":0.13043474999999205,"midi":80,"time":88.4347605,"velocity":0.5590551181102362},{"duration":0.13043474999999205,"midi":80,"time":88.4347605,"velocity":0.5590551181102362},{"duration":0.13043474999999205,"midi":58,"time":88.4347605,"velocity":0.5590551181102362},{"duration":0.13043474999999205,"midi":58,"time":88.4347605,"velocity":0.5590551181102362},{"duration":0.13043475000000626,"midi":56,"time":88.56519524999999,"velocity":0.5590551181102362},{"duration":0.13043475000000626,"midi":56,"time":88.56519524999999,"velocity":0.5590551181102362},{"duration":0.13043474999999205,"midi":49,"time":88.69563,"velocity":0.5590551181102362},{"duration":0.13043474999999205,"midi":49,"time":88.69563,"velocity":0.5590551181102362},{"duration":0.13043475000000626,"midi":56,"time":88.82606474999999,"velocity":0.5590551181102362},{"duration":0.13043475000000626,"midi":56,"time":88.82606474999999,"velocity":0.5590551181102362},{"duration":0.13043475000000626,"midi":58,"time":88.95649949999999,"velocity":0.5590551181102362},{"duration":0.13043475000000626,"midi":58,"time":88.95649949999999,"velocity":0.5590551181102362},{"duration":0.13043475000000626,"midi":82,"time":88.95649949999999,"velocity":0.5590551181102362},{"duration":0.13043475000000626,"midi":82,"time":88.95649949999999,"velocity":0.5590551181102362},{"duration":0.13043475000000626,"midi":82,"time":88.95649949999999,"velocity":0.5590551181102362},{"duration":0.13043475000000626,"midi":82,"time":88.95649949999999,"velocity":0.5590551181102362},{"duration":0.13043474999999205,"midi":56,"time":89.08693425,"velocity":0.5590551181102362},{"duration":0.13043474999999205,"midi":80,"time":89.08693425,"velocity":0.5590551181102362},{"duration":0.13043474999999205,"midi":80,"time":89.08693425,"velocity":0.5590551181102362},{"duration":0.13043474999999205,"midi":80,"time":89.08693425,"velocity":0.5590551181102362},{"duration":0.13043474999999205,"midi":56,"time":89.08693425,"velocity":0.5590551181102362},{"duration":0.13043474999999205,"midi":80,"time":89.08693425,"velocity":0.5590551181102362},{"duration":0.13043475000000626,"midi":49,"time":89.21736899999999,"velocity":0.5590551181102362},{"duration":0.2608694999999983,"midi":56,"time":89.21736899999999,"velocity":0.5590551181102362},{"duration":0.2608694999999983,"midi":56,"time":89.21736899999999,"velocity":0.5590551181102362},{"duration":0.13043475000000626,"midi":49,"time":89.21736899999999,"velocity":0.5590551181102362},{"duration":0.5217389999999966,"midi":56,"time":89.21736899999999,"velocity":0.5590551181102362},{"duration":0.5217389999999966,"midi":56,"time":89.21736899999999,"velocity":0.5590551181102362},{"duration":0.13043474999999205,"midi":82,"time":89.34780375,"velocity":0.5590551181102362},{"duration":0.39130424999999036,"midi":56,"time":89.34780375,"velocity":0.5590551181102362},{"duration":0.39130424999999036,"midi":56,"time":89.34780375,"velocity":0.5590551181102362},{"duration":0.13043474999999205,"midi":82,"time":89.34780375,"velocity":0.5590551181102362},{"duration":0.13043474999999205,"midi":82,"time":89.34780375,"velocity":0.5590551181102362},{"duration":0.13043474999999205,"midi":82,"time":89.34780375,"velocity":0.5590551181102362},{"duration":0.13043475000000626,"midi":58,"time":89.47823849999999,"velocity":0.5590551181102362},{"duration":0.13043475000000626,"midi":80,"time":89.47823849999999,"velocity":0.5590551181102362},{"duration":0.13043475000000626,"midi":80,"time":89.47823849999999,"velocity":0.5590551181102362},{"duration":0.13043475000000626,"midi":80,"time":89.47823849999999,"velocity":0.5590551181102362},{"duration":0.13043475000000626,"midi":58,"time":89.47823849999999,"velocity":0.5590551181102362},{"duration":0.13043475000000626,"midi":80,"time":89.47823849999999,"velocity":0.5590551181102362},{"duration":0.13043474999999205,"midi":56,"time":89.60867325,"velocity":0.5590551181102362},{"duration":0.13043474999999205,"midi":56,"time":89.60867325,"velocity":0.5590551181102362},{"duration":0.2608694999999983,"midi":80,"time":89.73910799999999,"velocity":0.5590551181102362},{"duration":2.0869560000000007,"midi":55,"time":89.73910799999999,"velocity":0.5590551181102362},{"duration":0.13043475000000626,"midi":53,"time":89.73910799999999,"velocity":0.5590551181102362},{"duration":0.2608694999999983,"midi":80,"time":89.73910799999999,"velocity":0.5590551181102362},{"duration":2.0869560000000007,"midi":55,"time":89.73910799999999,"velocity":0.5590551181102362},{"duration":2.0869560000000007,"midi":55,"time":89.73910799999999,"velocity":0.5590551181102362},{"duration":0.2608694999999983,"midi":80,"time":89.73910799999999,"velocity":0.5590551181102362},{"duration":0.13043475000000626,"midi":53,"time":89.73910799999999,"velocity":0.5590551181102362},{"duration":0.2608694999999983,"midi":80,"time":89.73910799999999,"velocity":0.5590551181102362},{"duration":2.0869560000000007,"midi":55,"time":89.73910799999999,"velocity":0.5590551181102362},{"duration":0.13043474999999205,"midi":60,"time":89.86954275,"velocity":0.5590551181102362},{"duration":0.13043474999999205,"midi":60,"time":89.86954275,"velocity":0.5590551181102362},{"duration":0.2608695000000125,"midi":82,"time":89.99997749999999,"velocity":0.5590551181102362},{"duration":0.13043475000000626,"midi":61,"time":89.99997749999999,"velocity":0.5590551181102362},{"duration":0.13043475000000626,"midi":61,"time":89.99997749999999,"velocity":0.5590551181102362},{"duration":0.2608695000000125,"midi":82,"time":89.99997749999999,"velocity":0.5590551181102362},{"duration":0.2608695000000125,"midi":82,"time":89.99997749999999,"velocity":0.5590551181102362},{"duration":0.2608695000000125,"midi":82,"time":89.99997749999999,"velocity":0.5590551181102362},{"duration":0.13043475000000626,"midi":60,"time":90.13041224999999,"velocity":0.5590551181102362},{"duration":0.13043475000000626,"midi":60,"time":90.13041224999999,"velocity":0.5590551181102362},{"duration":0.13043474999999205,"midi":53,"time":90.260847,"velocity":0.5590551181102362},{"duration":0.13043474999999205,"midi":53,"time":90.260847,"velocity":0.5590551181102362},{"duration":0.13043474999999205,"midi":83,"time":90.260847,"velocity":0.5590551181102362},{"duration":0.13043474999999205,"midi":83,"time":90.260847,"velocity":0.5590551181102362},{"duration":0.13043474999999205,"midi":83,"time":90.260847,"velocity":0.5590551181102362},{"duration":0.13043474999999205,"midi":83,"time":90.260847,"velocity":0.5590551181102362},{"duration":0.2608694999999983,"midi":82,"time":90.39128174999999,"velocity":0.5590551181102362},{"duration":0.2608694999999983,"midi":82,"time":90.39128174999999,"velocity":0.5590551181102362},{"duration":0.13043475000000626,"midi":60,"time":90.39128174999999,"velocity":0.5590551181102362},{"duration":0.2608694999999983,"midi":82,"time":90.39128174999999,"velocity":0.5590551181102362},{"duration":0.13043475000000626,"midi":60,"time":90.39128174999999,"velocity":0.5590551181102362},{"duration":0.2608694999999983,"midi":82,"time":90.39128174999999,"velocity":0.5590551181102362},{"duration":0.13043474999999205,"midi":61,"time":90.5217165,"velocity":0.5590551181102362},{"duration":0.13043474999999205,"midi":61,"time":90.5217165,"velocity":0.5590551181102362},{"duration":0.13043475000000626,"midi":80,"time":90.65215124999999,"velocity":0.5590551181102362},{"duration":0.13043475000000626,"midi":80,"time":90.65215124999999,"velocity":0.5590551181102362},{"duration":0.13043475000000626,"midi":60,"time":90.65215124999999,"velocity":0.5590551181102362},{"duration":0.13043475000000626,"midi":80,"time":90.65215124999999,"velocity":0.5590551181102362},{"duration":0.13043475000000626,"midi":60,"time":90.65215124999999,"velocity":0.5590551181102362},{"duration":0.13043475000000626,"midi":80,"time":90.65215124999999,"velocity":0.5590551181102362},{"duration":0.13043474999999205,"midi":53,"time":90.782586,"velocity":0.5590551181102362},{"duration":0.5217389999999966,"midi":77,"time":90.782586,"velocity":0.5590551181102362},{"duration":0.5217389999999966,"midi":77,"time":90.782586,"velocity":0.5590551181102362},{"duration":0.5217389999999966,"midi":77,"time":90.782586,"velocity":0.5590551181102362},{"duration":0.5217389999999966,"midi":77,"time":90.782586,"velocity":0.5590551181102362},{"duration":0.13043474999999205,"midi":53,"time":90.782586,"velocity":0.5590551181102362},{"duration":0.13043475000000626,"midi":60,"time":90.91302074999999,"velocity":0.5590551181102362},{"duration":0.13043475000000626,"midi":60,"time":90.91302074999999,"velocity":0.5590551181102362},{"duration":0.13043474999999205,"midi":61,"time":91.0434555,"velocity":0.5590551181102362},{"duration":0.13043474999999205,"midi":61,"time":91.0434555,"velocity":0.5590551181102362},{"duration":0.13043475000000626,"midi":60,"time":91.17389024999999,"velocity":0.5590551181102362},{"duration":0.13043475000000626,"midi":60,"time":91.17389024999999,"velocity":0.5590551181102362},{"duration":0.13043475000000626,"midi":53,"time":91.30432499999999,"velocity":0.5590551181102362},{"duration":0.13043475000000626,"midi":53,"time":91.30432499999999,"velocity":0.5590551181102362},{"duration":0.13043474999999205,"midi":60,"time":91.43475975,"velocity":0.5590551181102362},{"duration":0.13043474999999205,"midi":60,"time":91.43475975,"velocity":0.5590551181102362},{"duration":0.13043475000000626,"midi":61,"time":91.56519449999999,"velocity":0.5590551181102362},{"duration":0.13043475000000626,"midi":61,"time":91.56519449999999,"velocity":0.5590551181102362},{"duration":0.13043474999999205,"midi":60,"time":91.69562925,"velocity":0.5590551181102362},{"duration":0.13043474999999205,"midi":60,"time":91.69562925,"velocity":0.5590551181102362},{"duration":1.565217000000004,"midi":53,"time":91.82606399999999,"velocity":0.5590551181102362},{"duration":1.565217000000004,"midi":53,"time":91.82606399999999,"velocity":0.5590551181102362},{"duration":1.565217000000004,"midi":53,"time":91.82606399999999,"velocity":0.5590551181102362},{"duration":1.565217000000004,"midi":53,"time":91.82606399999999,"velocity":0.5590551181102362},{"duration":0.13043475000000626,"midi":49,"time":91.82606399999999,"velocity":0.5590551181102362},{"duration":0.13043475000000626,"midi":49,"time":91.82606399999999,"velocity":0.5590551181102362},{"duration":0.13043474999999205,"midi":56,"time":91.95649875,"velocity":0.5590551181102362},{"duration":0.13043474999999205,"midi":56,"time":91.95649875,"velocity":0.5590551181102362},{"duration":0.13043475000000626,"midi":82,"time":92.08693349999999,"velocity":0.5590551181102362},{"duration":0.13043475000000626,"midi":82,"time":92.08693349999999,"velocity":0.5590551181102362},{"duration":0.13043475000000626,"midi":82,"time":92.08693349999999,"velocity":0.5590551181102362},{"duration":0.13043475000000626,"midi":82,"time":92.08693349999999,"velocity":0.5590551181102362},{"duration":0.13043475000000626,"midi":58,"time":92.08693349999999,"velocity":0.5590551181102362},{"duration":0.13043475000000626,"midi":58,"time":92.08693349999999,"velocity":0.5590551181102362},{"duration":0.13043474999999205,"midi":80,"time":92.21736824999999,"velocity":0.5590551181102362},{"duration":0.13043474999999205,"midi":80,"time":92.21736824999999,"velocity":0.5590551181102362},{"duration":0.13043474999999205,"midi":56,"time":92.21736824999999,"velocity":0.5590551181102362},{"duration":0.13043474999999205,"midi":56,"time":92.21736824999999,"velocity":0.5590551181102362},{"duration":0.13043474999999205,"midi":80,"time":92.21736824999999,"velocity":0.5590551181102362},{"duration":0.13043474999999205,"midi":80,"time":92.21736824999999,"velocity":0.5590551181102362},{"duration":0.13043475000000626,"midi":49,"time":92.34780299999998,"velocity":0.5590551181102362},{"duration":0.13043475000000626,"midi":49,"time":92.34780299999998,"velocity":0.5590551181102362},{"duration":0.13043475000000626,"midi":82,"time":92.47823774999999,"velocity":0.5590551181102362},{"duration":0.13043475000000626,"midi":82,"time":92.47823774999999,"velocity":0.5590551181102362},{"duration":0.13043475000000626,"midi":82,"time":92.47823774999999,"velocity":0.5590551181102362},{"duration":0.13043475000000626,"midi":56,"time":92.47823774999999,"velocity":0.5590551181102362},{"duration":0.13043475000000626,"midi":82,"time":92.47823774999999,"velocity":0.5590551181102362},{"duration":0.13043475000000626,"midi":56,"time":92.47823774999999,"velocity":0.5590551181102362},{"duration":0.13043474999999205,"midi":80,"time":92.6086725,"velocity":0.5590551181102362},{"duration":0.13043474999999205,"midi":80,"time":92.6086725,"velocity":0.5590551181102362},{"duration":0.13043474999999205,"midi":58,"time":92.6086725,"velocity":0.5590551181102362},{"duration":0.13043474999999205,"midi":58,"time":92.6086725,"velocity":0.5590551181102362},{"duration":0.13043474999999205,"midi":80,"time":92.6086725,"velocity":0.5590551181102362},{"duration":0.13043474999999205,"midi":80,"time":92.6086725,"velocity":0.5590551181102362},{"duration":0.13043475000000626,"midi":56,"time":92.73910724999999,"velocity":0.5590551181102362},{"duration":0.13043475000000626,"midi":56,"time":92.73910724999999,"velocity":0.5590551181102362},{"duration":0.13043474999999205,"midi":49,"time":92.869542,"velocity":0.5590551181102362},{"duration":0.13043474999999205,"midi":49,"time":92.869542,"velocity":0.5590551181102362},{"duration":0.13043475000000626,"midi":56,"time":92.99997674999999,"velocity":0.5590551181102362},{"duration":0.13043475000000626,"midi":56,"time":92.99997674999999,"velocity":0.5590551181102362},{"duration":0.13043474999999205,"midi":58,"time":93.1304115,"velocity":0.5590551181102362},{"duration":0.13043474999999205,"midi":82,"time":93.1304115,"velocity":0.5590551181102362},{"duration":0.13043474999999205,"midi":58,"time":93.1304115,"velocity":0.5590551181102362},{"duration":0.13043474999999205,"midi":82,"time":93.1304115,"velocity":0.5590551181102362},{"duration":0.13043474999999205,"midi":82,"time":93.1304115,"velocity":0.5590551181102362},{"duration":0.13043474999999205,"midi":82,"time":93.1304115,"velocity":0.5590551181102362},{"duration":0.13043475000000626,"midi":80,"time":93.26084624999999,"velocity":0.5590551181102362},{"duration":0.13043475000000626,"midi":80,"time":93.26084624999999,"velocity":0.5590551181102362},{"duration":0.13043475000000626,"midi":56,"time":93.26084624999999,"velocity":0.5590551181102362},{"duration":0.13043475000000626,"midi":80,"time":93.26084624999999,"velocity":0.5590551181102362},{"duration":0.13043475000000626,"midi":80,"time":93.26084624999999,"velocity":0.5590551181102362},{"duration":0.13043475000000626,"midi":56,"time":93.26084624999999,"velocity":0.5590551181102362},{"duration":0.13043475000000626,"midi":52,"time":93.39128099999999,"velocity":0.5590551181102362},{"duration":0.13043475000000626,"midi":52,"time":93.39128099999999,"velocity":0.5590551181102362},{"duration":0.13043475000000626,"midi":49,"time":93.39128099999999,"velocity":0.5590551181102362},{"duration":0.13043475000000626,"midi":52,"time":93.39128099999999,"velocity":0.5590551181102362},{"duration":0.13043475000000626,"midi":49,"time":93.39128099999999,"velocity":0.5590551181102362},{"duration":0.13043475000000626,"midi":52,"time":93.39128099999999,"velocity":0.5590551181102362},{"duration":0.13043474999999205,"midi":82,"time":93.52171575,"velocity":0.5590551181102362},{"duration":0.13043474999999205,"midi":82,"time":93.52171575,"velocity":0.5590551181102362},{"duration":0.13043474999999205,"midi":56,"time":93.52171575,"velocity":0.5590551181102362},{"duration":0.13043474999999205,"midi":82,"time":93.52171575,"velocity":0.5590551181102362},{"duration":0.13043474999999205,"midi":51,"time":93.52171575,"velocity":0.5590551181102362},{"duration":0.13043474999999205,"midi":56,"time":93.52171575,"velocity":0.5590551181102362},{"duration":0.13043474999999205,"midi":51,"time":93.52171575,"velocity":0.5590551181102362},{"duration":0.13043474999999205,"midi":51,"time":93.52171575,"velocity":0.5590551181102362},{"duration":0.13043474999999205,"midi":82,"time":93.52171575,"velocity":0.5590551181102362},{"duration":0.13043474999999205,"midi":51,"time":93.52171575,"velocity":0.5590551181102362},{"duration":0.13043475000000626,"midi":58,"time":93.65215049999999,"velocity":0.5590551181102362},{"duration":0.13043475000000626,"midi":58,"time":93.65215049999999,"velocity":0.5590551181102362},{"duration":0.13043475000000626,"midi":80,"time":93.65215049999999,"velocity":0.5590551181102362},{"duration":0.13043475000000626,"midi":80,"time":93.65215049999999,"velocity":0.5590551181102362},{"duration":0.13043475000000626,"midi":50,"time":93.65215049999999,"velocity":0.5590551181102362},{"duration":0.13043475000000626,"midi":50,"time":93.65215049999999,"velocity":0.5590551181102362},{"duration":0.13043475000000626,"midi":50,"time":93.65215049999999,"velocity":0.5590551181102362},{"duration":0.13043475000000626,"midi":80,"time":93.65215049999999,"velocity":0.5590551181102362},{"duration":0.13043475000000626,"midi":50,"time":93.65215049999999,"velocity":0.5590551181102362},{"duration":0.13043475000000626,"midi":80,"time":93.65215049999999,"velocity":0.5590551181102362},{"duration":0.13043474999999205,"midi":49,"time":93.78258525,"velocity":0.5590551181102362},{"duration":0.13043474999999205,"midi":49,"time":93.78258525,"velocity":0.5590551181102362},{"duration":0.13043474999999205,"midi":49,"time":93.78258525,"velocity":0.5590551181102362},{"duration":0.13043474999999205,"midi":49,"time":93.78258525,"velocity":0.5590551181102362},{"duration":0.13043474999999205,"midi":56,"time":93.78258525,"velocity":0.5590551181102362},{"duration":0.13043474999999205,"midi":56,"time":93.78258525,"velocity":0.5590551181102362},{"duration":0.13043475000000626,"midi":53,"time":93.91301999999999,"velocity":0.5590551181102362},{"duration":0.13043475000000626,"midi":80,"time":93.91301999999999,"velocity":0.5590551181102362},{"duration":1.565217000000004,"midi":48,"time":93.91301999999999,"velocity":0.5590551181102362},{"duration":0.13043475000000626,"midi":80,"time":93.91301999999999,"velocity":0.5590551181102362},{"duration":1.565217000000004,"midi":48,"time":93.91301999999999,"velocity":0.5590551181102362},{"duration":0.13043475000000626,"midi":80,"time":93.91301999999999,"velocity":0.5590551181102362},{"duration":0.13043475000000626,"midi":80,"time":93.91301999999999,"velocity":0.5590551181102362},{"duration":0.13043475000000626,"midi":53,"time":93.91301999999999,"velocity":0.5590551181102362},{"duration":1.565217000000004,"midi":48,"time":93.91301999999999,"velocity":0.5590551181102362},{"duration":1.565217000000004,"midi":48,"time":93.91301999999999,"velocity":0.5590551181102362},{"duration":0.13043474999999205,"midi":82,"time":94.04345475,"velocity":0.5590551181102362},{"duration":0.13043474999999205,"midi":82,"time":94.04345475,"velocity":0.5590551181102362},{"duration":0.13043474999999205,"midi":60,"time":94.04345475,"velocity":0.5590551181102362},{"duration":0.13043474999999205,"midi":82,"time":94.04345475,"velocity":0.5590551181102362},{"duration":0.13043474999999205,"midi":60,"time":94.04345475,"velocity":0.5590551181102362},{"duration":0.13043474999999205,"midi":82,"time":94.04345475,"velocity":0.5590551181102362},{"duration":0.13043474999999205,"midi":80,"time":94.108672125,"velocity":0.5590551181102362},{"duration":0.13043474999999205,"midi":80,"time":94.108672125,"velocity":0.5590551181102362},{"duration":0.13043474999999205,"midi":80,"time":94.108672125,"velocity":0.5590551181102362},{"duration":0.13043474999999205,"midi":80,"time":94.108672125,"velocity":0.5590551181102362},{"duration":0.22826081250001096,"midi":77,"time":94.17388949999999,"velocity":0.5590551181102362},{"duration":0.22826081250001096,"midi":77,"time":94.17388949999999,"velocity":0.5590551181102362},{"duration":0.13043475000000626,"midi":61,"time":94.17388949999999,"velocity":0.5590551181102362},{"duration":0.22826081250001096,"midi":77,"time":94.17388949999999,"velocity":0.5590551181102362},{"duration":0.13043475000000626,"midi":61,"time":94.17388949999999,"velocity":0.5590551181102362},{"duration":0.22826081250001096,"midi":77,"time":94.17388949999999,"velocity":0.5590551181102362},{"duration":0.13043474999999205,"midi":60,"time":94.30432425,"velocity":0.5590551181102362},{"duration":0.13043474999999205,"midi":60,"time":94.30432425,"velocity":0.5590551181102362},{"duration":0.13043475000000626,"midi":53,"time":94.43475899999999,"velocity":0.5590551181102362},{"duration":0.2608695000000125,"midi":77,"time":94.43475899999999,"velocity":0.5590551181102362},{"duration":0.2608695000000125,"midi":77,"time":94.43475899999999,"velocity":0.5590551181102362},{"duration":0.2608695000000125,"midi":77,"time":94.43475899999999,"velocity":0.5590551181102362},{"duration":0.13043475000000626,"midi":53,"time":94.43475899999999,"velocity":0.5590551181102362},{"duration":0.2608695000000125,"midi":77,"time":94.43475899999999,"velocity":0.5590551181102362},{"duration":0.13043475000000626,"midi":60,"time":94.56519374999999,"velocity":0.5590551181102362},{"duration":0.13043475000000626,"midi":60,"time":94.56519374999999,"velocity":0.5590551181102362},{"duration":0.13043474999999205,"midi":61,"time":94.6956285,"velocity":0.5590551181102362},{"duration":0.13043474999999205,"midi":61,"time":94.6956285,"velocity":0.5590551181102362},{"duration":0.13043474999999205,"midi":76,"time":94.6956285,"velocity":0.5590551181102362},{"duration":0.13043474999999205,"midi":76,"time":94.6956285,"velocity":0.5590551181102362},{"duration":0.13043474999999205,"midi":76,"time":94.6956285,"velocity":0.5590551181102362},{"duration":0.13043474999999205,"midi":76,"time":94.6956285,"velocity":0.5590551181102362},{"duration":0.13043475000000626,"midi":77,"time":94.82606324999999,"velocity":0.5590551181102362},{"duration":0.13043475000000626,"midi":77,"time":94.82606324999999,"velocity":0.5590551181102362},{"duration":0.13043475000000626,"midi":77,"time":94.82606324999999,"velocity":0.5590551181102362},{"duration":0.13043475000000626,"midi":60,"time":94.82606324999999,"velocity":0.5590551181102362},{"duration":0.13043475000000626,"midi":77,"time":94.82606324999999,"velocity":0.5590551181102362},{"duration":0.13043475000000626,"midi":60,"time":94.82606324999999,"velocity":0.5590551181102362},{"duration":0.13043474999999205,"midi":53,"time":94.956498,"velocity":0.5590551181102362},{"duration":0.13043474999999205,"midi":53,"time":94.956498,"velocity":0.5590551181102362},{"duration":0.13043475000000626,"midi":60,"time":95.08693274999999,"velocity":0.5590551181102362},{"duration":0.13043475000000626,"midi":60,"time":95.08693274999999,"velocity":0.5590551181102362},{"duration":0.13043474999999205,"midi":61,"time":95.2173675,"velocity":0.5590551181102362},{"duration":0.13043474999999205,"midi":61,"time":95.2173675,"velocity":0.5590551181102362},{"duration":0.13043475000000626,"midi":60,"time":95.34780224999999,"velocity":0.5590551181102362},{"duration":0.13043475000000626,"midi":60,"time":95.34780224999999,"velocity":0.5590551181102362},{"duration":0.13043474999999205,"midi":49,"time":95.478237,"velocity":0.5590551181102362},{"duration":0.13043474999999205,"midi":49,"time":95.478237,"velocity":0.5590551181102362},{"duration":0.13043474999999205,"midi":53,"time":95.478237,"velocity":0.5590551181102362},{"duration":0.13043474999999205,"midi":53,"time":95.478237,"velocity":0.5590551181102362},{"duration":0.13043474999999205,"midi":49,"time":95.478237,"velocity":0.5590551181102362},{"duration":0.13043474999999205,"midi":49,"time":95.478237,"velocity":0.5590551181102362},{"duration":0.13043475000000626,"midi":50,"time":95.60867174999998,"velocity":0.5590551181102362},{"duration":0.13043475000000626,"midi":60,"time":95.60867174999998,"velocity":0.5590551181102362},{"duration":0.13043475000000626,"midi":50,"time":95.60867174999998,"velocity":0.5590551181102362},{"duration":0.13043475000000626,"midi":60,"time":95.60867174999998,"velocity":0.5590551181102362},{"duration":0.13043475000000626,"midi":50,"time":95.60867174999998,"velocity":0.5590551181102362},{"duration":0.13043475000000626,"midi":50,"time":95.60867174999998,"velocity":0.5590551181102362},{"duration":0.13043475000000626,"midi":51,"time":95.73910649999999,"velocity":0.5590551181102362},{"duration":0.13043475000000626,"midi":51,"time":95.73910649999999,"velocity":0.5590551181102362},{"duration":0.13043475000000626,"midi":51,"time":95.73910649999999,"velocity":0.5590551181102362},{"duration":0.13043475000000626,"midi":51,"time":95.73910649999999,"velocity":0.5590551181102362},{"duration":0.13043475000000626,"midi":61,"time":95.73910649999999,"velocity":0.5590551181102362},{"duration":0.13043475000000626,"midi":61,"time":95.73910649999999,"velocity":0.5590551181102362},{"duration":0.13043474999999205,"midi":60,"time":95.86954125,"velocity":0.5590551181102362},{"duration":0.13043474999999205,"midi":60,"time":95.86954125,"velocity":0.5590551181102362},{"duration":0.13043474999999205,"midi":52,"time":95.86954125,"velocity":0.5590551181102362},{"duration":0.13043474999999205,"midi":52,"time":95.86954125,"velocity":0.5590551181102362},{"duration":0.13043474999999205,"midi":52,"time":95.86954125,"velocity":0.5590551181102362},{"duration":0.13043474999999205,"midi":52,"time":95.86954125,"velocity":0.5590551181102362},{"duration":1.565217000000004,"midi":53,"time":95.99997599999999,"velocity":0.5590551181102362},{"duration":0.13043475000000626,"midi":49,"time":95.99997599999999,"velocity":0.5590551181102362},{"duration":1.565217000000004,"midi":53,"time":95.99997599999999,"velocity":0.5590551181102362},{"duration":0.13043475000000626,"midi":49,"time":95.99997599999999,"velocity":0.5590551181102362},{"duration":1.565217000000004,"midi":53,"time":95.99997599999999,"velocity":0.5590551181102362},{"duration":1.565217000000004,"midi":53,"time":95.99997599999999,"velocity":0.5590551181102362},{"duration":0.13043474999999205,"midi":56,"time":96.13041075,"velocity":0.5590551181102362},{"duration":0.13043474999999205,"midi":56,"time":96.13041075,"velocity":0.5590551181102362},{"duration":0.13043475000000626,"midi":82,"time":96.26084549999999,"velocity":0.5590551181102362},{"duration":0.13043475000000626,"midi":82,"time":96.26084549999999,"velocity":0.5590551181102362},{"duration":0.13043475000000626,"midi":58,"time":96.26084549999999,"velocity":0.5590551181102362},{"duration":0.13043475000000626,"midi":82,"time":96.26084549999999,"velocity":0.5590551181102362},{"duration":0.13043475000000626,"midi":82,"time":96.26084549999999,"velocity":0.5590551181102362},{"duration":0.13043475000000626,"midi":58,"time":96.26084549999999,"velocity":0.5590551181102362},{"duration":0.13043474999999205,"midi":80,"time":96.39128025,"velocity":0.5590551181102362},{"duration":0.13043474999999205,"midi":80,"time":96.39128025,"velocity":0.5590551181102362},{"duration":0.13043474999999205,"midi":56,"time":96.39128025,"velocity":0.5590551181102362},{"duration":0.13043474999999205,"midi":56,"time":96.39128025,"velocity":0.5590551181102362},{"duration":0.13043474999999205,"midi":80,"time":96.39128025,"velocity":0.5590551181102362},{"duration":0.13043474999999205,"midi":80,"time":96.39128025,"velocity":0.5590551181102362},{"duration":0.13043475000000626,"midi":49,"time":96.52171499999999,"velocity":0.5590551181102362},{"duration":0.13043475000000626,"midi":49,"time":96.52171499999999,"velocity":0.5590551181102362},{"duration":0.13043474999999205,"midi":82,"time":96.65214974999999,"velocity":0.5590551181102362},{"duration":0.13043474999999205,"midi":56,"time":96.65214974999999,"velocity":0.5590551181102362},{"duration":0.13043474999999205,"midi":56,"time":96.65214974999999,"velocity":0.5590551181102362},{"duration":0.13043474999999205,"midi":82,"time":96.65214974999999,"velocity":0.5590551181102362},{"duration":0.13043474999999205,"midi":82,"time":96.65214974999999,"velocity":0.5590551181102362},{"duration":0.13043474999999205,"midi":82,"time":96.65214974999999,"velocity":0.5590551181102362},{"duration":0.13043475000000626,"midi":58,"time":96.78258449999998,"velocity":0.5590551181102362},{"duration":0.13043475000000626,"midi":80,"time":96.78258449999998,"velocity":0.5590551181102362},{"duration":0.13043475000000626,"midi":80,"time":96.78258449999998,"velocity":0.5590551181102362},{"duration":0.13043475000000626,"midi":80,"time":96.78258449999998,"velocity":0.5590551181102362},{"duration":0.13043475000000626,"midi":80,"time":96.78258449999998,"velocity":0.5590551181102362},{"duration":0.13043475000000626,"midi":58,"time":96.78258449999998,"velocity":0.5590551181102362},{"duration":0.13043475000000626,"midi":56,"time":96.91301924999999,"velocity":0.5590551181102362},{"duration":0.13043475000000626,"midi":56,"time":96.91301924999999,"velocity":0.5590551181102362},{"duration":0.13043474999999205,"midi":49,"time":97.043454,"velocity":0.5590551181102362},{"duration":0.13043474999999205,"midi":49,"time":97.043454,"velocity":0.5590551181102362},{"duration":0.13043475000000626,"midi":56,"time":97.17388874999999,"velocity":0.5590551181102362},{"duration":0.13043475000000626,"midi":56,"time":97.17388874999999,"velocity":0.5590551181102362},{"duration":0.13043474999999205,"midi":58,"time":97.3043235,"velocity":0.5590551181102362},{"duration":0.13043474999999205,"midi":82,"time":97.3043235,"velocity":0.5590551181102362},{"duration":0.13043474999999205,"midi":82,"time":97.3043235,"velocity":0.5590551181102362},{"duration":0.13043474999999205,"midi":58,"time":97.3043235,"velocity":0.5590551181102362},{"duration":0.13043474999999205,"midi":82,"time":97.3043235,"velocity":0.5590551181102362},{"duration":0.13043474999999205,"midi":82,"time":97.3043235,"velocity":0.5590551181102362},{"duration":0.13043475000000626,"midi":80,"time":97.43475824999999,"velocity":0.5590551181102362},{"duration":0.13043475000000626,"midi":80,"time":97.43475824999999,"velocity":0.5590551181102362},{"duration":0.13043475000000626,"midi":80,"time":97.43475824999999,"velocity":0.5590551181102362},{"duration":0.13043475000000626,"midi":56,"time":97.43475824999999,"velocity":0.5590551181102362},{"duration":0.13043475000000626,"midi":56,"time":97.43475824999999,"velocity":0.5590551181102362},{"duration":0.13043475000000626,"midi":80,"time":97.43475824999999,"velocity":0.5590551181102362},{"duration":0.2608694999999983,"midi":56,"time":97.565193,"velocity":0.5590551181102362},{"duration":0.2608694999999983,"midi":56,"time":97.565193,"velocity":0.5590551181102362},{"duration":0.5217389999999966,"midi":56,"time":97.565193,"velocity":0.5590551181102362},{"duration":0.13043474999999205,"midi":49,"time":97.565193,"velocity":0.5590551181102362},{"duration":0.13043474999999205,"midi":49,"time":97.565193,"velocity":0.5590551181102362},{"duration":0.5217389999999966,"midi":56,"time":97.565193,"velocity":0.5590551181102362},{"duration":0.13043475000000626,"midi":82,"time":97.69562774999999,"velocity":0.5590551181102362},{"duration":0.39130425000000457,"midi":56,"time":97.69562774999999,"velocity":0.5590551181102362},{"duration":0.39130425000000457,"midi":56,"time":97.69562774999999,"velocity":0.5590551181102362},{"duration":0.13043475000000626,"midi":82,"time":97.69562774999999,"velocity":0.5590551181102362},{"duration":0.13043475000000626,"midi":82,"time":97.69562774999999,"velocity":0.5590551181102362},{"duration":0.13043475000000626,"midi":82,"time":97.69562774999999,"velocity":0.5590551181102362},{"duration":0.13043475000000626,"midi":80,"time":97.82606249999999,"velocity":0.5590551181102362},{"duration":0.13043475000000626,"midi":80,"time":97.82606249999999,"velocity":0.5590551181102362},{"duration":0.13043475000000626,"midi":80,"time":97.82606249999999,"velocity":0.5590551181102362},{"duration":0.13043475000000626,"midi":80,"time":97.82606249999999,"velocity":0.5590551181102362},{"duration":0.13043475000000626,"midi":58,"time":97.82606249999999,"velocity":0.5590551181102362},{"duration":0.13043475000000626,"midi":58,"time":97.82606249999999,"velocity":0.5590551181102362},{"duration":0.13043474999999205,"midi":56,"time":97.95649725,"velocity":0.5590551181102362},{"duration":0.13043474999999205,"midi":56,"time":97.95649725,"velocity":0.5590551181102362},{"duration":0.2608694999999983,"midi":67,"time":98.08693199999999,"velocity":0.5590551181102362},{"duration":0.2608694999999983,"midi":72,"time":98.08693199999999,"velocity":0.5590551181102362},{"duration":0.2608694999999983,"midi":67,"time":98.08693199999999,"velocity":0.5590551181102362},{"duration":0.2608694999999983,"midi":72,"time":98.08693199999999,"velocity":0.5590551181102362},{"duration":0.2608694999999983,"midi":72,"time":98.08693199999999,"velocity":0.5590551181102362},{"duration":0.2608694999999983,"midi":72,"time":98.08693199999999,"velocity":0.5590551181102362},{"duration":0.2608694999999983,"midi":67,"time":98.08693199999999,"velocity":0.5590551181102362},{"duration":0.2608694999999983,"midi":67,"time":98.08693199999999,"velocity":0.5590551181102362},{"duration":0.2608694999999983,"midi":67,"time":98.34780149999999,"velocity":0.5590551181102362},{"duration":0.2608694999999983,"midi":72,"time":98.34780149999999,"velocity":0.5590551181102362},{"duration":0.2608694999999983,"midi":72,"time":98.34780149999999,"velocity":0.5590551181102362},{"duration":0.2608694999999983,"midi":72,"time":98.34780149999999,"velocity":0.5590551181102362},{"duration":0.2608694999999983,"midi":67,"time":98.34780149999999,"velocity":0.5590551181102362},{"duration":0.2608694999999983,"midi":72,"time":98.34780149999999,"velocity":0.5590551181102362},{"duration":0.2608694999999983,"midi":67,"time":98.34780149999999,"velocity":0.5590551181102362},{"duration":0.2608694999999983,"midi":67,"time":98.34780149999999,"velocity":0.5590551181102362},{"duration":0.13043475000000626,"midi":72,"time":98.60867099999999,"velocity":0.5590551181102362},{"duration":0.13043475000000626,"midi":76,"time":98.60867099999999,"velocity":0.5590551181102362},{"duration":0.13043475000000626,"midi":72,"time":98.60867099999999,"velocity":0.5590551181102362},{"duration":0.13043475000000626,"midi":76,"time":98.60867099999999,"velocity":0.5590551181102362},{"duration":0.13043475000000626,"midi":72,"time":98.60867099999999,"velocity":0.5590551181102362},{"duration":0.13043475000000626,"midi":72,"time":98.60867099999999,"velocity":0.5590551181102362},{"duration":0.13043475000000626,"midi":76,"time":98.60867099999999,"velocity":0.5590551181102362},{"duration":0.13043475000000626,"midi":76,"time":98.60867099999999,"velocity":0.5590551181102362},{"duration":0.2608694999999983,"midi":67,"time":98.73910575,"velocity":0.5590551181102362},{"duration":0.2608694999999983,"midi":67,"time":98.73910575,"velocity":0.5590551181102362},{"duration":0.2608694999999983,"midi":72,"time":98.73910575,"velocity":0.5590551181102362},{"duration":0.2608694999999983,"midi":67,"time":98.73910575,"velocity":0.5590551181102362},{"duration":0.2608694999999983,"midi":72,"time":98.73910575,"velocity":0.5590551181102362},{"duration":0.2608694999999983,"midi":72,"time":98.73910575,"velocity":0.5590551181102362},{"duration":0.2608694999999983,"midi":67,"time":98.73910575,"velocity":0.5590551181102362},{"duration":0.2608694999999983,"midi":72,"time":98.73910575,"velocity":0.5590551181102362},{"duration":0.13043475000000626,"midi":65,"time":98.99997524999999,"velocity":0.5590551181102362},{"duration":0.13043475000000626,"midi":70,"time":98.99997524999999,"velocity":0.5590551181102362},{"duration":0.13043475000000626,"midi":65,"time":98.99997524999999,"velocity":0.5590551181102362},{"duration":0.13043475000000626,"midi":65,"time":98.99997524999999,"velocity":0.5590551181102362},{"duration":0.13043475000000626,"midi":70,"time":98.99997524999999,"velocity":0.5590551181102362},{"duration":0.13043475000000626,"midi":70,"time":98.99997524999999,"velocity":0.5590551181102362},{"duration":0.13043475000000626,"midi":65,"time":98.99997524999999,"velocity":0.5590551181102362},{"duration":0.13043475000000626,"midi":70,"time":98.99997524999999,"velocity":0.5590551181102362},{"duration":0.13043474999999205,"midi":72,"time":99.13041,"velocity":0.5590551181102362},{"duration":0.13043474999999205,"midi":67,"time":99.13041,"velocity":0.5590551181102362},{"duration":0.13043474999999205,"midi":67,"time":99.13041,"velocity":0.5590551181102362},{"duration":0.13043474999999205,"midi":67,"time":99.13041,"velocity":0.5590551181102362},{"duration":0.13043474999999205,"midi":72,"time":99.13041,"velocity":0.5590551181102362},{"duration":0.13043474999999205,"midi":67,"time":99.13041,"velocity":0.5590551181102362},{"duration":0.13043474999999205,"midi":72,"time":99.13041,"velocity":0.5590551181102362},{"duration":0.13043474999999205,"midi":72,"time":99.13041,"velocity":0.5590551181102362},{"duration":0.13043475000000626,"midi":72,"time":99.26084474999999,"velocity":0.5590551181102362},{"duration":0.13043475000000626,"midi":72,"time":99.26084474999999,"velocity":0.5590551181102362},{"duration":0.13043474999999205,"midi":67,"time":99.32606212499999,"velocity":0.5590551181102362},{"duration":0.13043474999999205,"midi":67,"time":99.32606212499999,"velocity":0.5590551181102362},{"duration":0.13043474999999205,"midi":72,"time":99.3912795,"velocity":0.5590551181102362},{"duration":0.13043474999999205,"midi":72,"time":99.3912795,"velocity":0.5590551181102362},{"duration":0.13043475000000626,"midi":67,"time":99.45649687499998,"velocity":0.5590551181102362},{"duration":0.13043475000000626,"midi":67,"time":99.45649687499998,"velocity":0.5590551181102362},{"duration":0.13043475000000626,"midi":72,"time":99.52171424999999,"velocity":0.5590551181102362},{"duration":0.13043475000000626,"midi":72,"time":99.52171424999999,"velocity":0.5590551181102362},{"duration":0.13043475000000626,"midi":67,"time":99.58693162499999,"velocity":0.5590551181102362},{"duration":0.13043475000000626,"midi":67,"time":99.58693162499999,"velocity":0.5590551181102362},{"duration":0.13043474999999205,"midi":72,"time":99.652149,"velocity":0.5590551181102362},{"duration":0.13043474999999205,"midi":72,"time":99.652149,"velocity":0.5590551181102362},{"duration":0.13043474999999205,"midi":67,"time":99.717366375,"velocity":0.5590551181102362},{"duration":0.13043474999999205,"midi":67,"time":99.717366375,"velocity":0.5590551181102362},{"duration":0.13043475000000626,"midi":72,"time":99.78258374999999,"velocity":0.5590551181102362},{"duration":0.13043475000000626,"midi":72,"time":99.78258374999999,"velocity":0.5590551181102362},{"duration":0.13043475000000626,"midi":67,"time":99.84780112499999,"velocity":0.5590551181102362},{"duration":0.13043475000000626,"midi":67,"time":99.84780112499999,"velocity":0.5590551181102362}]},{"instrument":{"family":"guitar","number":29,"name":"overdriven guitar"},"notes":[{"duration":0.13043475,"midi":41,"time":0,"velocity":0.7874015748031497},{"duration":0.13043475,"midi":48,"time":0.13043475,"velocity":0.7874015748031497},{"duration":0.13043475,"midi":46,"time":0.2608695,"velocity":0.7874015748031497},{"duration":0.13043475,"midi":48,"time":0.39130424999999996,"velocity":0.7874015748031497},{"duration":0.13043475000000004,"midi":41,"time":0.521739,"velocity":0.7874015748031497},{"duration":0.13043474999999993,"midi":48,"time":0.65217375,"velocity":0.7874015748031497},{"duration":0.13043474999999993,"midi":46,"time":0.7826084999999999,"velocity":0.7874015748031497},{"duration":0.13043475000000004,"midi":48,"time":0.9130432499999999,"velocity":0.7874015748031497},{"duration":0.13043475000000004,"midi":37,"time":1.043478,"velocity":0.7874015748031497},{"duration":0.13043475000000004,"midi":47,"time":1.17391275,"velocity":0.7874015748031497},{"duration":0.13043474999999982,"midi":46,"time":1.3043475,"velocity":0.7874015748031497},{"duration":0.13043475000000004,"midi":47,"time":1.4347822499999998,"velocity":0.7874015748031497},{"duration":0.13043475000000004,"midi":36,"time":1.5652169999999999,"velocity":0.7874015748031497},{"duration":0.13043474999999982,"midi":48,"time":1.69565175,"velocity":0.7874015748031497},{"duration":0.13043475000000004,"midi":43,"time":1.8260864999999997,"velocity":0.7874015748031497},{"duration":0.13043475000000004,"midi":46,"time":1.9565212499999998,"velocity":0.7874015748031497},{"duration":0.13043475000000004,"midi":41,"time":2.086956,"velocity":0.7874015748031497},{"duration":0.13043475000000004,"midi":48,"time":2.21739075,"velocity":0.7874015748031497},{"duration":0.13043475000000004,"midi":46,"time":2.3478255,"velocity":0.7874015748031497},{"duration":0.13043475000000004,"midi":48,"time":2.47826025,"velocity":0.7874015748031497},{"duration":0.1304347499999996,"midi":43,"time":2.608695,"velocity":0.7874015748031497},{"duration":0.13043475000000004,"midi":48,"time":2.7391297499999996,"velocity":0.7874015748031497},{"duration":0.13043475000000004,"midi":46,"time":2.8695644999999996,"velocity":0.7874015748031497},{"duration":0.13043475000000004,"midi":48,"time":2.9999992499999997,"velocity":0.7874015748031497},{"duration":0.13043475000000004,"midi":44,"time":3.1304339999999997,"velocity":0.7874015748031497},{"duration":0.13043475000000004,"midi":48,"time":3.2608687499999998,"velocity":0.7874015748031497},{"duration":0.13043475000000004,"midi":46,"time":3.3913035,"velocity":0.7874015748031497},{"duration":0.1304347499999996,"midi":48,"time":3.52173825,"velocity":0.7874015748031497},{"duration":0.13043475000000004,"midi":46,"time":3.6521729999999994,"velocity":0.7874015748031497},{"duration":0.13043475000000004,"midi":49,"time":3.7826077499999995,"velocity":0.7874015748031497},{"duration":0.13043475000000004,"midi":48,"time":3.9130424999999995,"velocity":0.7874015748031497},{"duration":0.13043475000000004,"midi":49,"time":4.04347725,"velocity":0.7874015748031497},{"duration":0.13043475000000004,"midi":37,"time":4.173912,"velocity":0.7874015748031497},{"duration":0.13043475000000004,"midi":44,"time":4.30434675,"velocity":0.7874015748031497},{"duration":0.13043475000000004,"midi":43,"time":4.4347815,"velocity":0.7874015748031497},{"duration":0.13043475000000004,"midi":44,"time":4.56521625,"velocity":0.7874015748031497},{"duration":0.13043475000000004,"midi":37,"time":4.695651,"velocity":0.7874015748031497},{"duration":0.13043475000000004,"midi":46,"time":4.82608575,"velocity":0.7874015748031497},{"duration":0.13043475000000004,"midi":44,"time":4.9565205,"velocity":0.7874015748031497},{"duration":0.13043475000000004,"midi":46,"time":5.08695525,"velocity":0.7874015748031497},{"duration":0.13043474999999916,"midi":37,"time":5.21739,"velocity":0.7874015748031497},{"duration":0.13043475000000004,"midi":48,"time":5.347824749999999,"velocity":0.7874015748031497},{"duration":0.13043475000000004,"midi":46,"time":5.478259499999999,"velocity":0.7874015748031497},{"duration":0.13043475000000004,"midi":48,"time":5.608694249999999,"velocity":0.7874015748031497},{"duration":0.13043475000000004,"midi":37,"time":5.739128999999999,"velocity":0.7874015748031497},{"duration":0.13043475000000004,"midi":49,"time":5.869563749999999,"velocity":0.7874015748031497},{"duration":0.13043475000000004,"midi":48,"time":5.999998499999999,"velocity":0.7874015748031497},{"duration":0.13043475000000004,"midi":49,"time":6.130433249999999,"velocity":0.7874015748031497},{"duration":0.2608695000000001,"midi":36,"time":6.260867999999999,"velocity":0.7874015748031497},{"duration":0.2608694999999992,"midi":36,"time":7.0434765,"velocity":0.7874015748031497},{"duration":1.0434780000000003,"midi":36,"time":7.304345999999999,"velocity":0.7874015748031497},{"duration":0.13043475000000004,"midi":48,"time":7.956519749999999,"velocity":0.7874015748031497},{"duration":0.13043475000000093,"midi":50,"time":8.0869545,"velocity":0.7874015748031497},{"duration":0.13043474999999916,"midi":52,"time":8.21738925,"velocity":0.7874015748031497},{"duration":0.2608695000000001,"midi":53,"time":8.347824,"velocity":0.7874015748031497},{"duration":0.2608695000000001,"midi":48,"time":8.347824,"velocity":0.7874015748031497},{"duration":0.2608695000000001,"midi":48,"time":8.6086935,"velocity":0.7874015748031497},{"duration":0.2608695000000001,"midi":44,"time":8.6086935,"velocity":0.7874015748031497},{"duration":0.2608695000000001,"midi":44,"time":8.869563,"velocity":0.7874015748031497},{"duration":0.2608695000000001,"midi":41,"time":8.869563,"velocity":0.7874015748031497},{"duration":0.2608695000000001,"midi":36,"time":9.1304325,"velocity":0.7874015748031497},{"duration":0.2608695000000001,"midi":41,"time":9.1304325,"velocity":0.7874015748031497},{"duration":0.13043475000000093,"midi":44,"time":9.521736749999999,"velocity":0.7874015748031497},{"duration":0.13043475000000093,"midi":47,"time":9.521736749999999,"velocity":0.7874015748031497},{"duration":0.2608695000000001,"midi":46,"time":9.6521715,"velocity":0.7874015748031497},{"duration":0.2608695000000001,"midi":41,"time":9.6521715,"velocity":0.7874015748031497},{"duration":0.13043474999999916,"midi":43,"time":9.913041,"velocity":0.7874015748031497},{"duration":0.13043474999999916,"midi":46,"time":9.913041,"velocity":0.7874015748031497},{"duration":0.13043475000000093,"midi":44,"time":10.043475749999999,"velocity":0.7874015748031497},{"duration":0.13043475000000093,"midi":40,"time":10.043475749999999,"velocity":0.7874015748031497},{"duration":0.13043474999999916,"midi":39,"time":10.1739105,"velocity":0.7874015748031497},{"duration":0.13043474999999916,"midi":34,"time":10.1739105,"velocity":0.7874015748031497},{"duration":0.13043475000000093,"midi":37,"time":10.304345249999999,"velocity":0.7874015748031497},{"duration":0.13043475000000093,"midi":40,"time":10.304345249999999,"velocity":0.7874015748031497},{"duration":0.13043474999999916,"midi":44,"time":10.565214749999999,"velocity":0.7874015748031497},{"duration":0.13043474999999916,"midi":48,"time":10.565214749999999,"velocity":0.7874015748031497},{"duration":0.13043475000000093,"midi":41,"time":10.695649499999998,"velocity":0.7874015748031497},{"duration":0.13043475000000093,"midi":46,"time":10.695649499999998,"velocity":0.7874015748031497},{"duration":0.13043474999999916,"midi":39,"time":10.82608425,"velocity":0.7874015748031497},{"duration":0.13043474999999916,"midi":44,"time":10.82608425,"velocity":0.7874015748031497},{"duration":0.13043475000000093,"midi":46,"time":10.956518999999998,"velocity":0.7874015748031497},{"duration":0.13043475000000093,"midi":43,"time":10.956518999999998,"velocity":0.7874015748031497},{"duration":0.13043474999999916,"midi":48,"time":11.08695375,"velocity":0.7874015748031497},{"duration":0.13043474999999916,"midi":44,"time":11.08695375,"velocity":0.7874015748031497},{"duration":0.13043475000000093,"midi":31,"time":11.217388499999998,"velocity":0.7874015748031497},{"duration":0.13043475000000093,"midi":39,"time":11.217388499999998,"velocity":0.7874015748031497},{"duration":0.13043474999999916,"midi":41,"time":11.34782325,"velocity":0.7874015748031497},{"duration":0.13043474999999916,"midi":32,"time":11.34782325,"velocity":0.7874015748031497},{"duration":0.13043475000000093,"midi":44,"time":11.478257999999999,"velocity":0.7874015748031497},{"duration":0.13043475000000093,"midi":36,"time":11.478257999999999,"velocity":0.7874015748031497},{"duration":0.13043474999999916,"midi":41,"time":11.60869275,"velocity":0.7874015748031497},{"duration":0.13043474999999916,"midi":32,"time":11.60869275,"velocity":0.7874015748031497},{"duration":0.13043475000000093,"midi":39,"time":11.739127499999999,"velocity":0.7874015748031497},{"duration":0.13043475000000093,"midi":31,"time":11.739127499999999,"velocity":0.7874015748031497},{"duration":0.2608695000000001,"midi":53,"time":11.86956225,"velocity":0.7874015748031497},{"duration":0.2608695000000001,"midi":44,"time":11.86956225,"velocity":0.7874015748031497},{"duration":0.13043474999999916,"midi":51,"time":12.13043175,"velocity":0.7874015748031497},{"duration":0.06521737499999958,"midi":48,"time":12.260866499999999,"velocity":0.7874015748031497},{"duration":0.13043475000000093,"midi":46,"time":12.326083874999998,"velocity":0.7874015748031497},{"duration":0.13043474999999916,"midi":44,"time":12.39130125,"velocity":0.7874015748031497},{"duration":0.5217390000000002,"midi":41,"time":12.521735999999999,"velocity":0.7874015748031497},{"duration":0.13043474999999916,"midi":34,"time":12.782605499999999,"velocity":0.7874015748031497},{"duration":0.5217390000000002,"midi":43,"time":13.043474999999999,"velocity":0.7874015748031497},{"duration":0.13043474999999916,"midi":34,"time":13.3043445,"velocity":0.7874015748031497},{"duration":0.5217390000000002,"midi":44,"time":13.565214,"velocity":0.7874015748031497},{"duration":0.13043474999999916,"midi":34,"time":13.8260835,"velocity":0.7874015748031497},{"duration":0.5217389999999984,"midi":46,"time":14.086953,"velocity":0.7874015748031497},{"duration":0.13043474999999916,"midi":32,"time":14.3478225,"velocity":0.7874015748031497},{"duration":0.2608695000000001,"midi":36,"time":14.608691999999998,"velocity":0.7874015748031497},{"duration":0.2608695000000001,"midi":36,"time":15.391300499999998,"velocity":0.7874015748031497},{"duration":1.0434780000000003,"midi":36,"time":15.652169999999998,"velocity":0.7874015748031497},{"duration":0.1304347500000027,"midi":48,"time":16.304343749999997,"velocity":0.7874015748031497},{"duration":0.13043474999999916,"midi":50,"time":16.4347785,"velocity":0.7874015748031497},{"duration":0.13043474999999916,"midi":52,"time":16.56521325,"velocity":0.7874015748031497},{"duration":0.13043474999999916,"midi":41,"time":16.695648,"velocity":0.7874015748031497},{"duration":0.13043474999999916,"midi":48,"time":16.826082749999998,"velocity":0.7874015748031497},{"duration":0.1304347500000027,"midi":46,"time":16.956517499999997,"velocity":0.7874015748031497},{"duration":0.13043474999999916,"midi":48,"time":17.08695225,"velocity":0.7874015748031497},{"duration":0.13043474999999916,"midi":41,"time":17.217387,"velocity":0.7874015748031497},{"duration":0.13043474999999916,"midi":48,"time":17.347821749999998,"velocity":0.7874015748031497},{"duration":0.1304347500000027,"midi":46,"time":17.478256499999997,"velocity":0.7874015748031497},{"duration":0.13043474999999916,"midi":48,"time":17.60869125,"velocity":0.7874015748031497},{"duration":0.13043474999999916,"midi":37,"time":17.739126,"velocity":0.7874015748031497},{"duration":0.13043474999999916,"midi":47,"time":17.869560749999998,"velocity":0.7874015748031497},{"duration":0.1304347500000027,"midi":46,"time":17.999995499999997,"velocity":0.7874015748031497},{"duration":0.13043474999999916,"midi":47,"time":18.13043025,"velocity":0.7874015748031497},{"duration":0.13043474999999916,"midi":36,"time":18.260865,"velocity":0.7874015748031497},{"duration":0.13043474999999916,"midi":48,"time":18.391299749999998,"velocity":0.7874015748031497},{"duration":0.1304347500000027,"midi":43,"time":18.521734499999997,"velocity":0.7874015748031497},{"duration":0.13043474999999916,"midi":46,"time":18.65216925,"velocity":0.7874015748031497},{"duration":0.13043474999999916,"midi":41,"time":18.782604,"velocity":0.7874015748031497},{"duration":0.13043474999999916,"midi":48,"time":18.91303875,"velocity":0.7874015748031497},{"duration":0.13043474999999916,"midi":46,"time":19.043473499999998,"velocity":0.7874015748031497},{"duration":0.1304347500000027,"midi":48,"time":19.173908249999997,"velocity":0.7874015748031497},{"duration":0.13043474999999916,"midi":43,"time":19.304343,"velocity":0.7874015748031497},{"duration":0.13043474999999916,"midi":48,"time":19.43477775,"velocity":0.7874015748031497},{"duration":0.13043474999999916,"midi":46,"time":19.565212499999998,"velocity":0.7874015748031497},{"duration":0.1304347500000027,"midi":48,"time":19.695647249999997,"velocity":0.7874015748031497},{"duration":0.13043474999999916,"midi":44,"time":19.826082,"velocity":0.7874015748031497},{"duration":0.13043474999999916,"midi":48,"time":19.95651675,"velocity":0.7874015748031497},{"duration":0.13043474999999916,"midi":46,"time":20.086951499999998,"velocity":0.7874015748031497},{"duration":0.1304347500000027,"midi":48,"time":20.217386249999997,"velocity":0.7874015748031497},{"duration":0.13043474999999916,"midi":46,"time":20.347821,"velocity":0.7874015748031497},{"duration":0.13043474999999916,"midi":49,"time":20.47825575,"velocity":0.7874015748031497},{"duration":0.13043474999999916,"midi":48,"time":20.608690499999998,"velocity":0.7874015748031497},{"duration":0.1304347500000027,"midi":49,"time":20.739125249999997,"velocity":0.7874015748031497},{"duration":0.13043474999999916,"midi":37,"time":20.86956,"velocity":0.7874015748031497},{"duration":0.13043474999999916,"midi":44,"time":20.99999475,"velocity":0.7874015748031497},{"duration":0.13043474999999916,"midi":43,"time":21.130429499999998,"velocity":0.7874015748031497},{"duration":0.13043474999999916,"midi":44,"time":21.260864249999997,"velocity":0.7874015748031497},{"duration":0.1304347500000027,"midi":37,"time":21.391298999999997,"velocity":0.7874015748031497},{"duration":0.13043474999999916,"midi":46,"time":21.52173375,"velocity":0.7874015748031497},{"duration":0.13043474999999916,"midi":44,"time":21.6521685,"velocity":0.7874015748031497},{"duration":0.13043474999999916,"midi":46,"time":21.782603249999998,"velocity":0.7874015748031497},{"duration":0.1304347500000027,"midi":37,"time":21.913037999999997,"velocity":0.7874015748031497},{"duration":0.13043474999999916,"midi":48,"time":22.04347275,"velocity":0.7874015748031497},{"duration":0.13043474999999916,"midi":46,"time":22.1739075,"velocity":0.7874015748031497},{"duration":0.13043474999999916,"midi":48,"time":22.304342249999998,"velocity":0.7874015748031497},{"duration":0.1304347500000027,"midi":37,"time":22.434776999999997,"velocity":0.7874015748031497},{"duration":0.13043474999999916,"midi":49,"time":22.56521175,"velocity":0.7874015748031497},{"duration":0.13043474999999916,"midi":48,"time":22.6956465,"velocity":0.7874015748031497},{"duration":0.13043474999999916,"midi":49,"time":22.826081249999998,"velocity":0.7874015748031497},{"duration":0.26086950000000186,"midi":36,"time":22.956515999999997,"velocity":0.7874015748031497},{"duration":0.2608694999999983,"midi":36,"time":23.7391245,"velocity":0.7874015748031497},{"duration":1.0434780000000003,"midi":36,"time":23.999993999999997,"velocity":0.7874015748031497},{"duration":0.1304347500000027,"midi":48,"time":24.652167749999997,"velocity":0.7874015748031497},{"duration":0.13043474999999916,"midi":50,"time":24.7826025,"velocity":0.7874015748031497},{"duration":0.13043474999999916,"midi":52,"time":24.91303725,"velocity":0.7874015748031497},{"duration":0.2608694999999983,"midi":48,"time":25.043471999999998,"velocity":0.7874015748031497},{"duration":0.2608694999999983,"midi":53,"time":25.043471999999998,"velocity":0.7874015748031497},{"duration":0.26086950000000186,"midi":48,"time":25.304341499999996,"velocity":0.7874015748031497},{"duration":0.26086950000000186,"midi":44,"time":25.304341499999996,"velocity":0.7874015748031497},{"duration":0.2608694999999983,"midi":41,"time":25.565210999999998,"velocity":0.7874015748031497},{"duration":0.2608694999999983,"midi":44,"time":25.565210999999998,"velocity":0.7874015748031497},{"duration":0.26086950000000186,"midi":36,"time":25.826080499999996,"velocity":0.7874015748031497},{"duration":0.26086950000000186,"midi":41,"time":25.826080499999996,"velocity":0.7874015748031497},{"duration":0.13043474999999916,"midi":44,"time":26.217384749999997,"velocity":0.7874015748031497},{"duration":0.13043474999999916,"midi":47,"time":26.217384749999997,"velocity":0.7874015748031497},{"duration":0.26086950000000186,"midi":41,"time":26.347819499999996,"velocity":0.7874015748031497},{"duration":0.26086950000000186,"midi":46,"time":26.347819499999996,"velocity":0.7874015748031497},{"duration":0.13043474999999916,"midi":43,"time":26.608689,"velocity":0.7874015748031497},{"duration":0.13043474999999916,"midi":46,"time":26.608689,"velocity":0.7874015748031497},{"duration":0.13043474999999916,"midi":40,"time":26.739123749999997,"velocity":0.7874015748031497},{"duration":0.13043474999999916,"midi":44,"time":26.739123749999997,"velocity":0.7874015748031497},{"duration":0.1304347500000027,"midi":39,"time":26.869558499999997,"velocity":0.7874015748031497},{"duration":0.1304347500000027,"midi":34,"time":26.869558499999997,"velocity":0.7874015748031497},{"duration":0.13043474999999916,"midi":40,"time":26.99999325,"velocity":0.7874015748031497},{"duration":0.13043474999999916,"midi":37,"time":26.99999325,"velocity":0.7874015748031497},{"duration":0.13043474999999916,"midi":48,"time":27.260862749999998,"velocity":0.7874015748031497},{"duration":0.13043474999999916,"midi":44,"time":27.260862749999998,"velocity":0.7874015748031497},{"duration":0.13043474999999916,"midi":46,"time":27.391297499999997,"velocity":0.7874015748031497},{"duration":0.13043474999999916,"midi":41,"time":27.391297499999997,"velocity":0.7874015748031497},{"duration":0.1304347500000027,"midi":39,"time":27.521732249999996,"velocity":0.7874015748031497},{"duration":0.1304347500000027,"midi":44,"time":27.521732249999996,"velocity":0.7874015748031497},{"duration":0.13043474999999916,"midi":43,"time":27.652167,"velocity":0.7874015748031497},{"duration":0.13043474999999916,"midi":46,"time":27.652167,"velocity":0.7874015748031497},{"duration":0.13043474999999916,"midi":48,"time":27.782601749999998,"velocity":0.7874015748031497},{"duration":0.13043474999999916,"midi":44,"time":27.782601749999998,"velocity":0.7874015748031497},{"duration":0.13043474999999916,"midi":39,"time":27.913036499999997,"velocity":0.7874015748031497},{"duration":0.13043474999999916,"midi":31,"time":27.913036499999997,"velocity":0.7874015748031497},{"duration":0.1304347500000027,"midi":32,"time":28.043471249999996,"velocity":0.7874015748031497},{"duration":0.1304347500000027,"midi":41,"time":28.043471249999996,"velocity":0.7874015748031497},{"duration":0.13043474999999916,"midi":36,"time":28.173906,"velocity":0.7874015748031497},{"duration":0.13043474999999916,"midi":44,"time":28.173906,"velocity":0.7874015748031497},{"duration":0.13043474999999916,"midi":32,"time":28.304340749999998,"velocity":0.7874015748031497},{"duration":0.13043474999999916,"midi":41,"time":28.304340749999998,"velocity":0.7874015748031497},{"duration":0.13043474999999916,"midi":31,"time":28.434775499999997,"velocity":0.7874015748031497},{"duration":0.13043474999999916,"midi":39,"time":28.434775499999997,"velocity":0.7874015748031497},{"duration":0.26086950000000186,"midi":53,"time":28.565210249999996,"velocity":0.7874015748031497},{"duration":0.26086950000000186,"midi":44,"time":28.565210249999996,"velocity":0.7874015748031497},{"duration":0.13043474999999916,"midi":51,"time":28.826079749999998,"velocity":0.7874015748031497},{"duration":0.06521737499999958,"midi":48,"time":28.956514499999997,"velocity":0.7874015748031497},{"duration":0.13043474999999916,"midi":46,"time":29.021731874999997,"velocity":0.7874015748031497},{"duration":0.13043474999999916,"midi":44,"time":29.086949249999996,"velocity":0.7874015748031497},{"duration":0.5217390000000002,"midi":41,"time":29.217383999999996,"velocity":0.7874015748031497},{"duration":0.13043474999999916,"midi":34,"time":29.478253499999997,"velocity":0.7874015748031497},{"duration":0.5217390000000002,"midi":43,"time":29.739122999999996,"velocity":0.7874015748031497},{"duration":0.13043474999999916,"midi":34,"time":29.999992499999998,"velocity":0.7874015748031497},{"duration":0.5217390000000002,"midi":44,"time":30.260861999999996,"velocity":0.7874015748031497},{"duration":0.13043474999999916,"midi":34,"time":30.521731499999998,"velocity":0.7874015748031497},{"duration":0.5217390000000002,"midi":46,"time":30.782600999999996,"velocity":0.7874015748031497},{"duration":0.13043474999999916,"midi":32,"time":31.043470499999998,"velocity":0.7874015748031497},{"duration":0.26086950000000186,"midi":48,"time":31.304339999999996,"velocity":0.7874015748031497},{"duration":0.2608694999999983,"midi":41,"time":31.565209499999998,"velocity":0.7874015748031497},{"duration":0.26086950000000186,"midi":53,"time":31.826078999999996,"velocity":0.7874015748031497},{"duration":0.2608694999999983,"midi":41,"time":32.0869485,"velocity":0.7874015748031497},{"duration":0.2608694999999983,"midi":52,"time":32.347818,"velocity":0.7874015748031497},{"duration":0.2608695000000054,"midi":49,"time":32.608687499999995,"velocity":0.7874015748031497},{"duration":0.2608694999999983,"midi":48,"time":32.869557,"velocity":0.7874015748031497},{"duration":0.13043474999999916,"midi":51,"time":33.1304265,"velocity":0.7874015748031497},{"duration":0.13043474999999916,"midi":52,"time":33.26086125,"velocity":0.7874015748031497},{"duration":0.13043474999999916,"midi":41,"time":33.391296,"velocity":0.7874015748031497},{"duration":0.13043474999999916,"midi":53,"time":33.391296,"velocity":0.7874015748031497},{"duration":0.13043474999999916,"midi":48,"time":33.521730749999996,"velocity":0.7874015748031497},{"duration":0.13043474999999916,"midi":49,"time":33.652165499999995,"velocity":0.7874015748031497},{"duration":0.13043474999999916,"midi":48,"time":33.782600249999994,"velocity":0.7874015748031497},{"duration":0.13043475000000626,"midi":41,"time":33.913034999999994,"velocity":0.7874015748031497},{"duration":0.13043474999999916,"midi":48,"time":34.04346975,"velocity":0.7874015748031497},{"duration":0.13043474999999916,"midi":53,"time":34.1739045,"velocity":0.7874015748031497},{"duration":0.13043474999999916,"midi":48,"time":34.30433925,"velocity":0.7874015748031497},{"duration":0.13043474999999916,"midi":46,"time":34.434774,"velocity":0.7874015748031497},{"duration":0.13043474999999916,"midi":53,"time":34.56520875,"velocity":0.7874015748031497},{"duration":0.13043474999999916,"midi":56,"time":34.695643499999996,"velocity":0.7874015748031497},{"duration":0.13043474999999916,"midi":53,"time":34.826078249999995,"velocity":0.7874015748031497},{"duration":0.13043475000000626,"midi":46,"time":34.956512999999994,"velocity":0.7874015748031497},{"duration":0.13043474999999916,"midi":53,"time":35.08694775,"velocity":0.7874015748031497},{"duration":0.13043474999999916,"midi":55,"time":35.2173825,"velocity":0.7874015748031497},{"duration":0.13043474999999916,"midi":53,"time":35.34781725,"velocity":0.7874015748031497},{"duration":0.13043474999999916,"midi":49,"time":35.478252,"velocity":0.7874015748031497},{"duration":0.13043474999999916,"midi":53,"time":35.60868675,"velocity":0.7874015748031497},{"duration":0.13043474999999916,"midi":56,"time":35.739121499999996,"velocity":0.7874015748031497},{"duration":0.13043474999999916,"midi":53,"time":35.869556249999995,"velocity":0.7874015748031497},{"duration":0.13043474999999916,"midi":49,"time":35.999990999999994,"velocity":0.7874015748031497},{"duration":0.13043475000000626,"midi":53,"time":36.13042574999999,"velocity":0.7874015748031497},{"duration":0.13043474999999916,"midi":55,"time":36.2608605,"velocity":0.7874015748031497},{"duration":0.13043474999999916,"midi":53,"time":36.39129525,"velocity":0.7874015748031497},{"duration":0.13043474999999916,"midi":48,"time":36.52173,"velocity":0.7874015748031497},{"duration":0.13043474999999916,"midi":53,"time":36.65216475,"velocity":0.7874015748031497},{"duration":0.13043474999999916,"midi":56,"time":36.782599499999996,"velocity":0.7874015748031497},{"duration":0.13043474999999916,"midi":53,"time":36.913034249999995,"velocity":0.7874015748031497},{"duration":0.13043474999999916,"midi":48,"time":37.043468999999995,"velocity":0.7874015748031497},{"duration":0.13043475000000626,"midi":52,"time":37.173903749999994,"velocity":0.7874015748031497},{"duration":0.13043474999999916,"midi":55,"time":37.3043385,"velocity":0.7874015748031497},{"duration":0.13043474999999916,"midi":52,"time":37.43477325,"velocity":0.7874015748031497},{"duration":0.13043474999999916,"midi":41,"time":37.565208,"velocity":0.7874015748031497},{"duration":0.13043474999999916,"midi":48,"time":37.69564275,"velocity":0.7874015748031497},{"duration":0.13043474999999916,"midi":49,"time":37.8260775,"velocity":0.7874015748031497},{"duration":0.13043474999999916,"midi":48,"time":37.956512249999996,"velocity":0.7874015748031497},{"duration":0.13043474999999916,"midi":41,"time":38.086946999999995,"velocity":0.7874015748031497},{"duration":0.13043474999999916,"midi":48,"time":38.217381749999994,"velocity":0.7874015748031497},{"duration":0.13043475000000626,"midi":53,"time":38.34781649999999,"velocity":0.7874015748031497},{"duration":0.13043474999999916,"midi":48,"time":38.47825125,"velocity":0.7874015748031497},{"duration":0.13043474999999916,"midi":46,"time":38.608686,"velocity":0.7874015748031497},{"duration":0.13043474999999916,"midi":53,"time":38.73912075,"velocity":0.7874015748031497},{"duration":0.13043474999999916,"midi":56,"time":38.8695555,"velocity":0.7874015748031497},{"duration":0.13043474999999916,"midi":53,"time":38.999990249999996,"velocity":0.7874015748031497},{"duration":0.13043474999999916,"midi":46,"time":39.130424999999995,"velocity":0.7874015748031497},{"duration":0.13043474999999916,"midi":53,"time":39.260859749999995,"velocity":0.7874015748031497},{"duration":0.13043475000000626,"midi":55,"time":39.391294499999994,"velocity":0.7874015748031497},{"duration":0.13043474999999916,"midi":53,"time":39.52172925,"velocity":0.7874015748031497},{"duration":0.13043474999999916,"midi":49,"time":39.652164,"velocity":0.7874015748031497},{"duration":0.13043474999999916,"midi":53,"time":39.78259875,"velocity":0.7874015748031497},{"duration":0.13043474999999916,"midi":56,"time":39.9130335,"velocity":0.7874015748031497},{"duration":0.13043474999999916,"midi":53,"time":40.04346825,"velocity":0.7874015748031497},{"duration":0.13043474999999916,"midi":49,"time":40.173902999999996,"velocity":0.7874015748031497},{"duration":0.13043474999999916,"midi":53,"time":40.304337749999995,"velocity":0.7874015748031497},{"duration":0.13043474999999916,"midi":55,"time":40.434772499999994,"velocity":0.7874015748031497},{"duration":0.13043475000000626,"midi":53,"time":40.56520724999999,"velocity":0.7874015748031497},{"duration":0.13043474999999916,"midi":48,"time":40.695642,"velocity":0.7874015748031497},{"duration":0.13043474999999916,"midi":53,"time":40.82607675,"velocity":0.7874015748031497},{"duration":0.13043474999999916,"midi":56,"time":40.9565115,"velocity":0.7874015748031497},{"duration":0.13043474999999916,"midi":53,"time":41.08694625,"velocity":0.7874015748031497},{"duration":0.13043474999999916,"midi":48,"time":41.217380999999996,"velocity":0.7874015748031497},{"duration":0.13043474999999916,"midi":52,"time":41.347815749999995,"velocity":0.7874015748031497},{"duration":0.13043474999999916,"midi":55,"time":41.478250499999994,"velocity":0.7874015748031497},{"duration":0.13043475000000626,"midi":52,"time":41.60868524999999,"velocity":0.7874015748031497},{"duration":0.13043474999999916,"midi":41,"time":41.73912,"velocity":0.7874015748031497},{"duration":0.13043474999999916,"midi":48,"time":41.86955475,"velocity":0.7874015748031497},{"duration":0.13043474999999916,"midi":49,"time":41.9999895,"velocity":0.7874015748031497},{"duration":0.13043474999999916,"midi":48,"time":42.13042425,"velocity":0.7874015748031497},{"duration":0.13043474999999916,"midi":41,"time":42.260858999999996,"velocity":0.7874015748031497},{"duration":0.13043474999999916,"midi":48,"time":42.391293749999996,"velocity":0.7874015748031497},{"duration":0.13043474999999916,"midi":53,"time":42.521728499999995,"velocity":0.7874015748031497},{"duration":0.13043474999999916,"midi":48,"time":42.652163249999994,"velocity":0.7874015748031497},{"duration":0.13043475000000626,"midi":46,"time":42.78259799999999,"velocity":0.7874015748031497},{"duration":0.13043474999999916,"midi":53,"time":42.91303275,"velocity":0.7874015748031497},{"duration":0.13043474999999916,"midi":56,"time":43.0434675,"velocity":0.7874015748031497},{"duration":0.13043474999999916,"midi":53,"time":43.17390225,"velocity":0.7874015748031497},{"duration":0.13043474999999916,"midi":46,"time":43.304337,"velocity":0.7874015748031497},{"duration":0.13043474999999916,"midi":53,"time":43.434771749999996,"velocity":0.7874015748031497},{"duration":0.13043474999999916,"midi":55,"time":43.565206499999995,"velocity":0.7874015748031497},{"duration":0.13043474999999916,"midi":53,"time":43.695641249999994,"velocity":0.7874015748031497},{"duration":0.13043474999999916,"midi":49,"time":43.82607599999999,"velocity":0.7874015748031497},{"duration":0.13043475000000626,"midi":53,"time":43.95651074999999,"velocity":0.7874015748031497},{"duration":0.13043474999999916,"midi":56,"time":44.0869455,"velocity":0.7874015748031497},{"duration":0.13043474999999916,"midi":53,"time":44.21738025,"velocity":0.7874015748031497},{"duration":0.13043474999999916,"midi":49,"time":44.347815,"velocity":0.7874015748031497},{"duration":0.13043474999999916,"midi":53,"time":44.478249749999996,"velocity":0.7874015748031497},{"duration":0.13043474999999916,"midi":55,"time":44.608684499999995,"velocity":0.7874015748031497},{"duration":0.13043474999999916,"midi":53,"time":44.739119249999995,"velocity":0.7874015748031497},{"duration":0.13043474999999916,"midi":48,"time":44.869553999999994,"velocity":0.7874015748031497},{"duration":0.13043475000000626,"midi":53,"time":44.99998874999999,"velocity":0.7874015748031497},{"duration":0.13043474999999916,"midi":56,"time":45.1304235,"velocity":0.7874015748031497},{"duration":0.13043474999999916,"midi":53,"time":45.26085825,"velocity":0.7874015748031497},{"duration":0.13043474999999916,"midi":48,"time":45.391293,"velocity":0.7874015748031497},{"duration":0.13043474999999916,"midi":52,"time":45.52172775,"velocity":0.7874015748031497},{"duration":0.13043474999999916,"midi":55,"time":45.652162499999996,"velocity":0.7874015748031497},{"duration":0.13043474999999916,"midi":52,"time":45.782597249999995,"velocity":0.7874015748031497},{"duration":0.13043474999999916,"midi":41,"time":45.913031999999994,"velocity":0.7874015748031497},{"duration":0.13043474999999916,"midi":48,"time":46.04346674999999,"velocity":0.7874015748031497},{"duration":0.13043475000000626,"midi":49,"time":46.17390149999999,"velocity":0.7874015748031497},{"duration":0.13043474999999916,"midi":48,"time":46.30433625,"velocity":0.7874015748031497},{"duration":0.13043474999999916,"midi":41,"time":46.434771,"velocity":0.7874015748031497},{"duration":0.13043474999999916,"midi":48,"time":46.56520575,"velocity":0.7874015748031497},{"duration":0.13043474999999916,"midi":53,"time":46.695640499999996,"velocity":0.7874015748031497},{"duration":0.13043474999999916,"midi":48,"time":46.826075249999995,"velocity":0.7874015748031497},{"duration":0.13043474999999916,"midi":46,"time":46.956509999999994,"velocity":0.7874015748031497},{"duration":0.13043474999999916,"midi":53,"time":47.086944749999994,"velocity":0.7874015748031497},{"duration":0.13043475000000626,"midi":56,"time":47.21737949999999,"velocity":0.7874015748031497},{"duration":0.13043474999999916,"midi":53,"time":47.34781425,"velocity":0.7874015748031497},{"duration":0.13043474999999916,"midi":46,"time":47.478249,"velocity":0.7874015748031497},{"duration":0.13043474999999916,"midi":53,"time":47.60868375,"velocity":0.7874015748031497},{"duration":0.13043474999999916,"midi":49,"time":47.7391185,"velocity":0.7874015748031497},{"duration":0.13043474999999916,"midi":54,"time":47.869553249999996,"velocity":0.7874015748031497},{"duration":0.13043474999999916,"midi":49,"time":47.999987999999995,"velocity":0.7874015748031497},{"duration":0.13043474999999916,"midi":53,"time":48.130422749999994,"velocity":0.7874015748031497},{"duration":0.13043474999999916,"midi":56,"time":48.26085749999999,"velocity":0.7874015748031497},{"duration":0.13043475000000626,"midi":53,"time":48.39129224999999,"velocity":0.7874015748031497},{"duration":0.13043474999999916,"midi":48,"time":48.521727,"velocity":0.7874015748031497},{"duration":0.13043474999999916,"midi":52,"time":48.65216175,"velocity":0.7874015748031497},{"duration":0.13043474999999916,"midi":55,"time":48.7825965,"velocity":0.7874015748031497},{"duration":0.13043474999999916,"midi":52,"time":48.913031249999996,"velocity":0.7874015748031497},{"duration":0.13043474999999916,"midi":49,"time":49.043465999999995,"velocity":0.7874015748031497},{"duration":0.13043474999999916,"midi":56,"time":49.173900749999994,"velocity":0.7874015748031497},{"duration":0.13043474999999916,"midi":48,"time":49.30433549999999,"velocity":0.7874015748031497},{"duration":0.13043475000000626,"midi":55,"time":49.43477024999999,"velocity":0.7874015748031497},{"duration":0.2608694999999983,"midi":53,"time":49.565205,"velocity":0.7874015748031497},{"duration":0.2608694999999983,"midi":41,"time":49.8260745,"velocity":0.7874015748031497},{"duration":0.13043475000000626,"midi":41,"time":58.43476799999999,"velocity":0.7874015748031497},{"duration":0.13043474999999916,"midi":48,"time":58.56520275,"velocity":0.7874015748031497},{"duration":0.13043474999999916,"midi":49,"time":58.6956375,"velocity":0.7874015748031497},{"duration":0.13043474999999916,"midi":48,"time":58.826072249999996,"velocity":0.7874015748031497},{"duration":0.13043474999999916,"midi":41,"time":58.956506999999995,"velocity":0.7874015748031497},{"duration":0.13043474999999916,"midi":48,"time":59.086941749999994,"velocity":0.7874015748031497},{"duration":0.13043474999999916,"midi":53,"time":59.21737649999999,"velocity":0.7874015748031497},{"duration":0.13043474999999916,"midi":48,"time":59.34781124999999,"velocity":0.7874015748031497},{"duration":0.13043475000000626,"midi":46,"time":59.47824599999999,"velocity":0.7874015748031497},{"duration":0.13043474999999916,"midi":53,"time":59.60868075,"velocity":0.7874015748031497},{"duration":0.13043474999999916,"midi":56,"time":59.7391155,"velocity":0.7874015748031497},{"duration":0.13043474999999916,"midi":53,"time":59.869550249999996,"velocity":0.7874015748031497},{"duration":0.13043474999999916,"midi":46,"time":59.999984999999995,"velocity":0.7874015748031497},{"duration":0.13043474999999916,"midi":53,"time":60.130419749999994,"velocity":0.7874015748031497},{"duration":0.13043474999999916,"midi":55,"time":60.26085449999999,"velocity":0.7874015748031497},{"duration":0.13043474999999916,"midi":53,"time":60.39128924999999,"velocity":0.7874015748031497},{"duration":0.13043474999999916,"midi":49,"time":60.52172399999999,"velocity":0.7874015748031497},{"duration":0.13043475000000626,"midi":53,"time":60.65215874999999,"velocity":0.7874015748031497},{"duration":0.13043474999999916,"midi":56,"time":60.7825935,"velocity":0.7874015748031497},{"duration":0.13043474999999916,"midi":53,"time":60.913028249999996,"velocity":0.7874015748031497},{"duration":0.13043474999999916,"midi":49,"time":61.043462999999996,"velocity":0.7874015748031497},{"duration":0.13043474999999916,"midi":53,"time":61.173897749999995,"velocity":0.7874015748031497},{"duration":0.13043474999999916,"midi":55,"time":61.304332499999994,"velocity":0.7874015748031497},{"duration":0.13043474999999916,"midi":53,"time":61.43476724999999,"velocity":0.7874015748031497},{"duration":0.13043474999999916,"midi":48,"time":61.56520199999999,"velocity":0.7874015748031497},{"duration":0.13043475000000626,"midi":53,"time":61.69563674999999,"velocity":0.7874015748031497},{"duration":0.13043474999999916,"midi":56,"time":61.8260715,"velocity":0.7874015748031497},{"duration":0.13043474999999916,"midi":53,"time":61.95650625,"velocity":0.7874015748031497},{"duration":0.13043474999999916,"midi":48,"time":62.086940999999996,"velocity":0.7874015748031497},{"duration":0.13043474999999916,"midi":52,"time":62.217375749999995,"velocity":0.7874015748031497},{"duration":0.13043474999999916,"midi":55,"time":62.347810499999994,"velocity":0.7874015748031497},{"duration":0.13043474999999916,"midi":52,"time":62.47824524999999,"velocity":0.7874015748031497},{"duration":0.13043474999999916,"midi":41,"time":62.60867999999999,"velocity":0.7874015748031497},{"duration":0.13043474999999916,"midi":48,"time":62.73911474999999,"velocity":0.7874015748031497},{"duration":0.13043475000000626,"midi":49,"time":62.86954949999999,"velocity":0.7874015748031497},{"duration":0.13043474999999916,"midi":48,"time":62.99998425,"velocity":0.7874015748031497},{"duration":0.13043474999999916,"midi":41,"time":63.130418999999996,"velocity":0.7874015748031497},{"duration":0.13043474999999916,"midi":48,"time":63.260853749999995,"velocity":0.7874015748031497},{"duration":0.13043474999999916,"midi":53,"time":63.391288499999995,"velocity":0.7874015748031497},{"duration":0.13043474999999916,"midi":48,"time":63.521723249999994,"velocity":0.7874015748031497},{"duration":0.13043474999999916,"midi":46,"time":63.65215799999999,"velocity":0.7874015748031497},{"duration":0.13043474999999916,"midi":53,"time":63.78259274999999,"velocity":0.7874015748031497},{"duration":0.13043474999999916,"midi":56,"time":63.91302749999999,"velocity":0.7874015748031497},{"duration":0.13043475000000626,"midi":53,"time":64.04346224999999,"velocity":0.7874015748031497},{"duration":0.13043474999999205,"midi":46,"time":64.173897,"velocity":0.7874015748031497},{"duration":0.13043475000000626,"midi":53,"time":64.30433174999999,"velocity":0.7874015748031497},{"duration":0.13043475000000626,"midi":49,"time":64.4347665,"velocity":0.7874015748031497},{"duration":0.13043474999999205,"midi":54,"time":64.56520125,"velocity":0.7874015748031497},{"duration":0.13043475000000626,"midi":49,"time":64.695636,"velocity":0.7874015748031497},{"duration":0.13043474999999205,"midi":53,"time":64.82607075,"velocity":0.7874015748031497},{"duration":0.13043475000000626,"midi":56,"time":64.95650549999999,"velocity":0.7874015748031497},{"duration":0.13043474999999205,"midi":53,"time":65.08694025,"velocity":0.7874015748031497},{"duration":0.13043475000000626,"midi":48,"time":65.21737499999999,"velocity":0.7874015748031497},{"duration":0.13043474999999205,"midi":52,"time":65.34780975,"velocity":0.7874015748031497},{"duration":0.13043475000000626,"midi":55,"time":65.47824449999999,"velocity":0.7874015748031497},{"duration":0.13043475000000626,"midi":52,"time":65.60867925,"velocity":0.7874015748031497},{"duration":0.13043474999999205,"midi":49,"time":65.739114,"velocity":0.7874015748031497},{"duration":0.13043475000000626,"midi":56,"time":65.86954874999999,"velocity":0.7874015748031497},{"duration":0.13043474999999205,"midi":48,"time":65.9999835,"velocity":0.7874015748031497},{"duration":0.13043475000000626,"midi":55,"time":66.13041824999999,"velocity":0.7874015748031497},{"duration":0.2608694999999983,"midi":53,"time":66.260853,"velocity":0.7874015748031497},{"duration":0.13043475000000626,"midi":48,"time":98.08693199999999,"velocity":0.7874015748031497},{"duration":0.13043474999999205,"midi":48,"time":98.21736675,"velocity":0.7874015748031497},{"duration":0.13043475000000626,"midi":60,"time":98.34780149999999,"velocity":0.7874015748031497},{"duration":0.13043474999999205,"midi":48,"time":98.47823625,"velocity":0.7874015748031497},{"duration":0.13043475000000626,"midi":48,"time":98.60867099999999,"velocity":0.7874015748031497},{"duration":0.13043474999999205,"midi":48,"time":98.73910575,"velocity":0.7874015748031497},{"duration":0.13043475000000626,"midi":60,"time":98.86954049999999,"velocity":0.7874015748031497},{"duration":0.13043475000000626,"midi":48,"time":98.99997524999999,"velocity":0.7874015748031497}]},{"instrument":{"family":"synth lead","number":87,"name":"lead 8 (bass + lead)"},"notes":[{"duration":0.13043475,"midi":53,"time":0,"velocity":0.7874015748031497},{"duration":0.13043475,"midi":53,"time":0,"velocity":0.7874015748031497},{"duration":0.13043475,"midi":60,"time":0.13043475,"velocity":0.7874015748031497},{"duration":0.13043475,"midi":60,"time":0.13043475,"velocity":0.7874015748031497},{"duration":0.13043475,"midi":58,"time":0.2608695,"velocity":0.7874015748031497},{"duration":0.13043475,"midi":58,"time":0.2608695,"velocity":0.7874015748031497},{"duration":0.13043475,"midi":60,"time":0.39130424999999996,"velocity":0.7874015748031497},{"duration":0.13043475,"midi":60,"time":0.39130424999999996,"velocity":0.7874015748031497},{"duration":0.13043475000000004,"midi":53,"time":0.521739,"velocity":0.7874015748031497},{"duration":0.13043475000000004,"midi":53,"time":0.521739,"velocity":0.7874015748031497},{"duration":0.13043474999999993,"midi":60,"time":0.65217375,"velocity":0.7874015748031497},{"duration":0.13043474999999993,"midi":60,"time":0.65217375,"velocity":0.7874015748031497},{"duration":0.13043474999999993,"midi":58,"time":0.7826084999999999,"velocity":0.7874015748031497},{"duration":0.13043474999999993,"midi":58,"time":0.7826084999999999,"velocity":0.7874015748031497},{"duration":0.13043475000000004,"midi":60,"time":0.9130432499999999,"velocity":0.7874015748031497},{"duration":0.13043475000000004,"midi":60,"time":0.9130432499999999,"velocity":0.7874015748031497},{"duration":0.13043475000000004,"midi":49,"time":1.043478,"velocity":0.7874015748031497},{"duration":0.13043475000000004,"midi":49,"time":1.043478,"velocity":0.7874015748031497},{"duration":0.13043475000000004,"midi":59,"time":1.17391275,"velocity":0.7874015748031497},{"duration":0.13043475000000004,"midi":59,"time":1.17391275,"velocity":0.7874015748031497},{"duration":0.13043474999999982,"midi":58,"time":1.3043475,"velocity":0.7874015748031497},{"duration":0.13043474999999982,"midi":58,"time":1.3043475,"velocity":0.7874015748031497},{"duration":0.13043475000000004,"midi":59,"time":1.4347822499999998,"velocity":0.7874015748031497},{"duration":0.13043475000000004,"midi":59,"time":1.4347822499999998,"velocity":0.7874015748031497},{"duration":0.13043475000000004,"midi":48,"time":1.5652169999999999,"velocity":0.7874015748031497},{"duration":0.13043475000000004,"midi":48,"time":1.5652169999999999,"velocity":0.7874015748031497},{"duration":0.13043474999999982,"midi":60,"time":1.69565175,"velocity":0.7874015748031497},{"duration":0.13043474999999982,"midi":60,"time":1.69565175,"velocity":0.7874015748031497},{"duration":0.13043475000000004,"midi":55,"time":1.8260864999999997,"velocity":0.7874015748031497},{"duration":0.13043475000000004,"midi":55,"time":1.8260864999999997,"velocity":0.7874015748031497},{"duration":0.13043475000000004,"midi":58,"time":1.9565212499999998,"velocity":0.7874015748031497},{"duration":0.13043475000000004,"midi":58,"time":1.9565212499999998,"velocity":0.7874015748031497},{"duration":0.13043475000000004,"midi":53,"time":2.086956,"velocity":0.7874015748031497},{"duration":0.13043475000000004,"midi":53,"time":2.086956,"velocity":0.7874015748031497},{"duration":0.13043475000000004,"midi":60,"time":2.21739075,"velocity":0.7874015748031497},{"duration":0.13043475000000004,"midi":60,"time":2.21739075,"velocity":0.7874015748031497},{"duration":0.13043475000000004,"midi":58,"time":2.3478255,"velocity":0.7874015748031497},{"duration":0.13043475000000004,"midi":58,"time":2.3478255,"velocity":0.7874015748031497},{"duration":0.13043475000000004,"midi":60,"time":2.47826025,"velocity":0.7874015748031497},{"duration":0.13043475000000004,"midi":60,"time":2.47826025,"velocity":0.7874015748031497},{"duration":0.1304347499999996,"midi":55,"time":2.608695,"velocity":0.7874015748031497},{"duration":0.1304347499999996,"midi":55,"time":2.608695,"velocity":0.7874015748031497},{"duration":0.13043475000000004,"midi":60,"time":2.7391297499999996,"velocity":0.7874015748031497},{"duration":0.13043475000000004,"midi":60,"time":2.7391297499999996,"velocity":0.7874015748031497},{"duration":0.13043475000000004,"midi":58,"time":2.8695644999999996,"velocity":0.7874015748031497},{"duration":0.13043475000000004,"midi":58,"time":2.8695644999999996,"velocity":0.7874015748031497},{"duration":0.13043475000000004,"midi":60,"time":2.9999992499999997,"velocity":0.7874015748031497},{"duration":0.13043475000000004,"midi":60,"time":2.9999992499999997,"velocity":0.7874015748031497},{"duration":0.13043475000000004,"midi":56,"time":3.1304339999999997,"velocity":0.7874015748031497},{"duration":0.13043475000000004,"midi":56,"time":3.1304339999999997,"velocity":0.7874015748031497},{"duration":0.13043475000000004,"midi":60,"time":3.2608687499999998,"velocity":0.7874015748031497},{"duration":0.13043475000000004,"midi":60,"time":3.2608687499999998,"velocity":0.7874015748031497},{"duration":0.13043475000000004,"midi":58,"time":3.3913035,"velocity":0.7874015748031497},{"duration":0.13043475000000004,"midi":58,"time":3.3913035,"velocity":0.7874015748031497},{"duration":0.1304347499999996,"midi":60,"time":3.52173825,"velocity":0.7874015748031497},{"duration":0.1304347499999996,"midi":60,"time":3.52173825,"velocity":0.7874015748031497},{"duration":0.13043475000000004,"midi":58,"time":3.6521729999999994,"velocity":0.7874015748031497},{"duration":0.13043475000000004,"midi":58,"time":3.6521729999999994,"velocity":0.7874015748031497},{"duration":0.13043475000000004,"midi":61,"time":3.7826077499999995,"velocity":0.7874015748031497},{"duration":0.13043475000000004,"midi":61,"time":3.7826077499999995,"velocity":0.7874015748031497},{"duration":0.13043475000000004,"midi":60,"time":3.9130424999999995,"velocity":0.7874015748031497},{"duration":0.13043475000000004,"midi":60,"time":3.9130424999999995,"velocity":0.7874015748031497},{"duration":0.13043475000000004,"midi":61,"time":4.04347725,"velocity":0.7874015748031497},{"duration":0.13043475000000004,"midi":61,"time":4.04347725,"velocity":0.7874015748031497},{"duration":0.13043475000000004,"midi":49,"time":4.173912,"velocity":0.7874015748031497},{"duration":0.13043475000000004,"midi":49,"time":4.173912,"velocity":0.7874015748031497},{"duration":0.13043475000000004,"midi":56,"time":4.30434675,"velocity":0.7874015748031497},{"duration":0.13043475000000004,"midi":56,"time":4.30434675,"velocity":0.7874015748031497},{"duration":0.13043475000000004,"midi":55,"time":4.4347815,"velocity":0.7874015748031497},{"duration":0.13043475000000004,"midi":55,"time":4.4347815,"velocity":0.7874015748031497},{"duration":0.13043475000000004,"midi":56,"time":4.56521625,"velocity":0.7874015748031497},{"duration":0.13043475000000004,"midi":56,"time":4.56521625,"velocity":0.7874015748031497},{"duration":0.13043475000000004,"midi":49,"time":4.695651,"velocity":0.7874015748031497},{"duration":0.13043475000000004,"midi":49,"time":4.695651,"velocity":0.7874015748031497},{"duration":0.13043475000000004,"midi":58,"time":4.82608575,"velocity":0.7874015748031497},{"duration":0.13043475000000004,"midi":58,"time":4.82608575,"velocity":0.7874015748031497},{"duration":0.13043475000000004,"midi":56,"time":4.9565205,"velocity":0.7874015748031497},{"duration":0.13043475000000004,"midi":56,"time":4.9565205,"velocity":0.7874015748031497},{"duration":0.13043475000000004,"midi":58,"time":5.08695525,"velocity":0.7874015748031497},{"duration":0.13043475000000004,"midi":58,"time":5.08695525,"velocity":0.7874015748031497},{"duration":0.13043474999999916,"midi":49,"time":5.21739,"velocity":0.7874015748031497},{"duration":0.13043474999999916,"midi":49,"time":5.21739,"velocity":0.7874015748031497},{"duration":0.13043475000000004,"midi":60,"time":5.347824749999999,"velocity":0.7874015748031497},{"duration":0.13043475000000004,"midi":60,"time":5.347824749999999,"velocity":0.7874015748031497},{"duration":0.13043475000000004,"midi":58,"time":5.478259499999999,"velocity":0.7874015748031497},{"duration":0.13043475000000004,"midi":58,"time":5.478259499999999,"velocity":0.7874015748031497},{"duration":0.13043475000000004,"midi":60,"time":5.608694249999999,"velocity":0.7874015748031497},{"duration":0.13043475000000004,"midi":60,"time":5.608694249999999,"velocity":0.7874015748031497},{"duration":0.13043475000000004,"midi":49,"time":5.739128999999999,"velocity":0.7874015748031497},{"duration":0.13043475000000004,"midi":49,"time":5.739128999999999,"velocity":0.7874015748031497},{"duration":0.13043475000000004,"midi":61,"time":5.869563749999999,"velocity":0.7874015748031497},{"duration":0.13043475000000004,"midi":61,"time":5.869563749999999,"velocity":0.7874015748031497},{"duration":0.13043475000000004,"midi":60,"time":5.999998499999999,"velocity":0.7874015748031497},{"duration":0.13043475000000004,"midi":60,"time":5.999998499999999,"velocity":0.7874015748031497},{"duration":0.13043475000000004,"midi":61,"time":6.130433249999999,"velocity":0.7874015748031497},{"duration":0.13043475000000004,"midi":61,"time":6.130433249999999,"velocity":0.7874015748031497},{"duration":0.2608695000000001,"midi":48,"time":6.260867999999999,"velocity":0.7874015748031497},{"duration":0.2608695000000001,"midi":48,"time":6.260867999999999,"velocity":0.7874015748031497},{"duration":0.2608694999999992,"midi":48,"time":7.0434765,"velocity":0.7874015748031497},{"duration":0.2608694999999992,"midi":48,"time":7.0434765,"velocity":0.7874015748031497},{"duration":1.0434780000000003,"midi":48,"time":7.304345999999999,"velocity":0.7874015748031497},{"duration":1.0434780000000003,"midi":48,"time":7.304345999999999,"velocity":0.7874015748031497},{"duration":0.13043475000000004,"midi":60,"time":7.956519749999999,"velocity":0.7874015748031497},{"duration":0.13043475000000004,"midi":60,"time":7.956519749999999,"velocity":0.7874015748031497},{"duration":0.13043475000000093,"midi":62,"time":8.0869545,"velocity":0.7874015748031497},{"duration":0.13043475000000093,"midi":62,"time":8.0869545,"velocity":0.7874015748031497},{"duration":0.13043474999999916,"midi":64,"time":8.21738925,"velocity":0.7874015748031497},{"duration":0.13043474999999916,"midi":64,"time":8.21738925,"velocity":0.7874015748031497},{"duration":0.2608695000000001,"midi":65,"time":8.347824,"velocity":0.7874015748031497},{"duration":0.2608695000000001,"midi":60,"time":8.347824,"velocity":0.7874015748031497},{"duration":0.2608695000000001,"midi":60,"time":8.347824,"velocity":0.7874015748031497},{"duration":0.2608695000000001,"midi":65,"time":8.347824,"velocity":0.7874015748031497},{"duration":0.2608695000000001,"midi":60,"time":8.6086935,"velocity":0.7874015748031497},{"duration":0.2608695000000001,"midi":56,"time":8.6086935,"velocity":0.7874015748031497},{"duration":0.2608695000000001,"midi":56,"time":8.6086935,"velocity":0.7874015748031497},{"duration":0.2608695000000001,"midi":60,"time":8.6086935,"velocity":0.7874015748031497},{"duration":0.2608695000000001,"midi":56,"time":8.869563,"velocity":0.7874015748031497},{"duration":0.2608695000000001,"midi":53,"time":8.869563,"velocity":0.7874015748031497},{"duration":0.2608695000000001,"midi":56,"time":8.869563,"velocity":0.7874015748031497},{"duration":0.2608695000000001,"midi":53,"time":8.869563,"velocity":0.7874015748031497},{"duration":0.2608695000000001,"midi":53,"time":9.1304325,"velocity":0.7874015748031497},{"duration":0.2608695000000001,"midi":53,"time":9.1304325,"velocity":0.7874015748031497},{"duration":0.2608695000000001,"midi":48,"time":9.1304325,"velocity":0.7874015748031497},{"duration":0.2608695000000001,"midi":48,"time":9.1304325,"velocity":0.7874015748031497},{"duration":0.13043475000000093,"midi":59,"time":9.521736749999999,"velocity":0.7874015748031497},{"duration":0.13043475000000093,"midi":59,"time":9.521736749999999,"velocity":0.7874015748031497},{"duration":0.13043475000000093,"midi":56,"time":9.521736749999999,"velocity":0.7874015748031497},{"duration":0.13043475000000093,"midi":56,"time":9.521736749999999,"velocity":0.7874015748031497},{"duration":0.2608695000000001,"midi":58,"time":9.6521715,"velocity":0.7874015748031497},{"duration":0.2608695000000001,"midi":58,"time":9.6521715,"velocity":0.7874015748031497},{"duration":0.2608695000000001,"midi":53,"time":9.6521715,"velocity":0.7874015748031497},{"duration":0.2608695000000001,"midi":53,"time":9.6521715,"velocity":0.7874015748031497},{"duration":0.13043474999999916,"midi":55,"time":9.913041,"velocity":0.7874015748031497},{"duration":0.13043474999999916,"midi":58,"time":9.913041,"velocity":0.7874015748031497},{"duration":0.13043474999999916,"midi":58,"time":9.913041,"velocity":0.7874015748031497},{"duration":0.13043474999999916,"midi":55,"time":9.913041,"velocity":0.7874015748031497},{"duration":0.13043475000000093,"midi":56,"time":10.043475749999999,"velocity":0.7874015748031497},{"duration":0.13043475000000093,"midi":52,"time":10.043475749999999,"velocity":0.7874015748031497},{"duration":0.13043475000000093,"midi":56,"time":10.043475749999999,"velocity":0.7874015748031497},{"duration":0.13043475000000093,"midi":52,"time":10.043475749999999,"velocity":0.7874015748031497},{"duration":0.13043474999999916,"midi":46,"time":10.1739105,"velocity":0.7874015748031497},{"duration":0.13043474999999916,"midi":46,"time":10.1739105,"velocity":0.7874015748031497},{"duration":0.13043474999999916,"midi":51,"time":10.1739105,"velocity":0.7874015748031497},{"duration":0.13043474999999916,"midi":51,"time":10.1739105,"velocity":0.7874015748031497},{"duration":0.13043475000000093,"midi":52,"time":10.304345249999999,"velocity":0.7874015748031497},{"duration":0.13043475000000093,"midi":49,"time":10.304345249999999,"velocity":0.7874015748031497},{"duration":0.13043475000000093,"midi":52,"time":10.304345249999999,"velocity":0.7874015748031497},{"duration":0.13043475000000093,"midi":49,"time":10.304345249999999,"velocity":0.7874015748031497},{"duration":0.13043474999999916,"midi":56,"time":10.565214749999999,"velocity":0.7874015748031497},{"duration":0.13043474999999916,"midi":56,"time":10.565214749999999,"velocity":0.7874015748031497},{"duration":0.13043474999999916,"midi":60,"time":10.565214749999999,"velocity":0.7874015748031497},{"duration":0.13043474999999916,"midi":60,"time":10.565214749999999,"velocity":0.7874015748031497},{"duration":0.13043475000000093,"midi":53,"time":10.695649499999998,"velocity":0.7874015748031497},{"duration":0.13043475000000093,"midi":58,"time":10.695649499999998,"velocity":0.7874015748031497},{"duration":0.13043475000000093,"midi":53,"time":10.695649499999998,"velocity":0.7874015748031497},{"duration":0.13043475000000093,"midi":58,"time":10.695649499999998,"velocity":0.7874015748031497},{"duration":0.13043474999999916,"midi":51,"time":10.82608425,"velocity":0.7874015748031497},{"duration":0.13043474999999916,"midi":56,"time":10.82608425,"velocity":0.7874015748031497},{"duration":0.13043474999999916,"midi":56,"time":10.82608425,"velocity":0.7874015748031497},{"duration":0.13043474999999916,"midi":51,"time":10.82608425,"velocity":0.7874015748031497},{"duration":0.13043475000000093,"midi":55,"time":10.956518999999998,"velocity":0.7874015748031497},{"duration":0.13043475000000093,"midi":55,"time":10.956518999999998,"velocity":0.7874015748031497},{"duration":0.13043475000000093,"midi":58,"time":10.956518999999998,"velocity":0.7874015748031497},{"duration":0.13043475000000093,"midi":58,"time":10.956518999999998,"velocity":0.7874015748031497},{"duration":0.13043474999999916,"midi":60,"time":11.08695375,"velocity":0.7874015748031497},{"duration":0.13043474999999916,"midi":56,"time":11.08695375,"velocity":0.7874015748031497},{"duration":0.13043474999999916,"midi":56,"time":11.08695375,"velocity":0.7874015748031497},{"duration":0.13043474999999916,"midi":60,"time":11.08695375,"velocity":0.7874015748031497},{"duration":0.13043475000000093,"midi":51,"time":11.217388499999998,"velocity":0.7874015748031497},{"duration":0.13043475000000093,"midi":43,"time":11.217388499999998,"velocity":0.7874015748031497},{"duration":0.13043475000000093,"midi":43,"time":11.217388499999998,"velocity":0.7874015748031497},{"duration":0.13043475000000093,"midi":51,"time":11.217388499999998,"velocity":0.7874015748031497},{"duration":0.13043474999999916,"midi":44,"time":11.34782325,"velocity":0.7874015748031497},{"duration":0.13043474999999916,"midi":53,"time":11.34782325,"velocity":0.7874015748031497},{"duration":0.13043474999999916,"midi":44,"time":11.34782325,"velocity":0.7874015748031497},{"duration":0.13043474999999916,"midi":53,"time":11.34782325,"velocity":0.7874015748031497},{"duration":0.13043475000000093,"midi":48,"time":11.478257999999999,"velocity":0.7874015748031497},{"duration":0.13043475000000093,"midi":56,"time":11.478257999999999,"velocity":0.7874015748031497},{"duration":0.13043475000000093,"midi":48,"time":11.478257999999999,"velocity":0.7874015748031497},{"duration":0.13043475000000093,"midi":56,"time":11.478257999999999,"velocity":0.7874015748031497},{"duration":0.13043474999999916,"midi":53,"time":11.60869275,"velocity":0.7874015748031497},{"duration":0.13043474999999916,"midi":44,"time":11.60869275,"velocity":0.7874015748031497},{"duration":0.13043474999999916,"midi":44,"time":11.60869275,"velocity":0.7874015748031497},{"duration":0.13043474999999916,"midi":53,"time":11.60869275,"velocity":0.7874015748031497},{"duration":0.13043475000000093,"midi":43,"time":11.739127499999999,"velocity":0.7874015748031497},{"duration":0.13043475000000093,"midi":51,"time":11.739127499999999,"velocity":0.7874015748031497},{"duration":0.13043475000000093,"midi":51,"time":11.739127499999999,"velocity":0.7874015748031497},{"duration":0.13043475000000093,"midi":43,"time":11.739127499999999,"velocity":0.7874015748031497},{"duration":0.2608695000000001,"midi":56,"time":11.86956225,"velocity":0.7874015748031497},{"duration":0.2608695000000001,"midi":56,"time":11.86956225,"velocity":0.7874015748031497},{"duration":0.2608695000000001,"midi":65,"time":11.86956225,"velocity":0.7874015748031497},{"duration":0.2608695000000001,"midi":65,"time":11.86956225,"velocity":0.7874015748031497},{"duration":0.13043474999999916,"midi":63,"time":12.13043175,"velocity":0.7874015748031497},{"duration":0.13043474999999916,"midi":63,"time":12.13043175,"velocity":0.7874015748031497},{"duration":0.06521737499999958,"midi":60,"time":12.260866499999999,"velocity":0.7874015748031497},{"duration":0.06521737499999958,"midi":60,"time":12.260866499999999,"velocity":0.7874015748031497},{"duration":0.13043475000000093,"midi":58,"time":12.326083874999998,"velocity":0.7874015748031497},{"duration":0.13043475000000093,"midi":58,"time":12.326083874999998,"velocity":0.7874015748031497},{"duration":0.13043474999999916,"midi":56,"time":12.39130125,"velocity":0.7874015748031497},{"duration":0.13043474999999916,"midi":56,"time":12.39130125,"velocity":0.7874015748031497},{"duration":0.5217390000000002,"midi":53,"time":12.521735999999999,"velocity":0.7874015748031497},{"duration":0.5217390000000002,"midi":53,"time":12.521735999999999,"velocity":0.7874015748031497},{"duration":0.13043474999999916,"midi":46,"time":12.782605499999999,"velocity":0.7874015748031497},{"duration":0.13043474999999916,"midi":46,"time":12.782605499999999,"velocity":0.7874015748031497},{"duration":0.5217390000000002,"midi":55,"time":13.043474999999999,"velocity":0.7874015748031497},{"duration":0.5217390000000002,"midi":55,"time":13.043474999999999,"velocity":0.7874015748031497},{"duration":0.13043474999999916,"midi":46,"time":13.3043445,"velocity":0.7874015748031497},{"duration":0.13043474999999916,"midi":46,"time":13.3043445,"velocity":0.7874015748031497},{"duration":0.5217390000000002,"midi":56,"time":13.565214,"velocity":0.7874015748031497},{"duration":0.5217390000000002,"midi":56,"time":13.565214,"velocity":0.7874015748031497},{"duration":0.13043474999999916,"midi":46,"time":13.8260835,"velocity":0.7874015748031497},{"duration":0.13043474999999916,"midi":46,"time":13.8260835,"velocity":0.7874015748031497},{"duration":0.5217389999999984,"midi":58,"time":14.086953,"velocity":0.7874015748031497},{"duration":0.5217389999999984,"midi":58,"time":14.086953,"velocity":0.7874015748031497},{"duration":0.13043474999999916,"midi":44,"time":14.3478225,"velocity":0.7874015748031497},{"duration":0.13043474999999916,"midi":44,"time":14.3478225,"velocity":0.7874015748031497},{"duration":0.2608695000000001,"midi":48,"time":14.608691999999998,"velocity":0.7874015748031497},{"duration":0.2608695000000001,"midi":48,"time":14.608691999999998,"velocity":0.7874015748031497},{"duration":0.2608695000000001,"midi":48,"time":15.391300499999998,"velocity":0.7874015748031497},{"duration":0.2608695000000001,"midi":48,"time":15.391300499999998,"velocity":0.7874015748031497},{"duration":1.0434780000000003,"midi":48,"time":15.652169999999998,"velocity":0.7874015748031497},{"duration":1.0434780000000003,"midi":48,"time":15.652169999999998,"velocity":0.7874015748031497},{"duration":0.1304347500000027,"midi":60,"time":16.304343749999997,"velocity":0.7874015748031497},{"duration":0.1304347500000027,"midi":60,"time":16.304343749999997,"velocity":0.7874015748031497},{"duration":0.13043474999999916,"midi":62,"time":16.4347785,"velocity":0.7874015748031497},{"duration":0.13043474999999916,"midi":62,"time":16.4347785,"velocity":0.7874015748031497},{"duration":0.13043474999999916,"midi":64,"time":16.56521325,"velocity":0.7874015748031497},{"duration":0.13043474999999916,"midi":64,"time":16.56521325,"velocity":0.7874015748031497},{"duration":0.13043474999999916,"midi":53,"time":16.695648,"velocity":0.7874015748031497},{"duration":0.13043474999999916,"midi":53,"time":16.695648,"velocity":0.7874015748031497},{"duration":0.13043474999999916,"midi":60,"time":16.826082749999998,"velocity":0.7874015748031497},{"duration":0.13043474999999916,"midi":60,"time":16.826082749999998,"velocity":0.7874015748031497},{"duration":0.1304347500000027,"midi":58,"time":16.956517499999997,"velocity":0.7874015748031497},{"duration":0.1304347500000027,"midi":58,"time":16.956517499999997,"velocity":0.7874015748031497},{"duration":0.13043474999999916,"midi":60,"time":17.08695225,"velocity":0.7874015748031497},{"duration":0.13043474999999916,"midi":60,"time":17.08695225,"velocity":0.7874015748031497},{"duration":0.13043474999999916,"midi":53,"time":17.217387,"velocity":0.7874015748031497},{"duration":0.13043474999999916,"midi":53,"time":17.217387,"velocity":0.7874015748031497},{"duration":0.13043474999999916,"midi":60,"time":17.347821749999998,"velocity":0.7874015748031497},{"duration":0.13043474999999916,"midi":60,"time":17.347821749999998,"velocity":0.7874015748031497},{"duration":0.1304347500000027,"midi":58,"time":17.478256499999997,"velocity":0.7874015748031497},{"duration":0.1304347500000027,"midi":58,"time":17.478256499999997,"velocity":0.7874015748031497},{"duration":0.13043474999999916,"midi":60,"time":17.60869125,"velocity":0.7874015748031497},{"duration":0.13043474999999916,"midi":60,"time":17.60869125,"velocity":0.7874015748031497},{"duration":0.13043474999999916,"midi":49,"time":17.739126,"velocity":0.7874015748031497},{"duration":0.13043474999999916,"midi":49,"time":17.739126,"velocity":0.7874015748031497},{"duration":0.13043474999999916,"midi":59,"time":17.869560749999998,"velocity":0.7874015748031497},{"duration":0.13043474999999916,"midi":59,"time":17.869560749999998,"velocity":0.7874015748031497},{"duration":0.1304347500000027,"midi":58,"time":17.999995499999997,"velocity":0.7874015748031497},{"duration":0.1304347500000027,"midi":58,"time":17.999995499999997,"velocity":0.7874015748031497},{"duration":0.13043474999999916,"midi":59,"time":18.13043025,"velocity":0.7874015748031497},{"duration":0.13043474999999916,"midi":59,"time":18.13043025,"velocity":0.7874015748031497},{"duration":0.13043474999999916,"midi":48,"time":18.260865,"velocity":0.7874015748031497},{"duration":0.13043474999999916,"midi":48,"time":18.260865,"velocity":0.7874015748031497},{"duration":0.13043474999999916,"midi":60,"time":18.391299749999998,"velocity":0.7874015748031497},{"duration":0.13043474999999916,"midi":60,"time":18.391299749999998,"velocity":0.7874015748031497},{"duration":0.1304347500000027,"midi":55,"time":18.521734499999997,"velocity":0.7874015748031497},{"duration":0.1304347500000027,"midi":55,"time":18.521734499999997,"velocity":0.7874015748031497},{"duration":0.13043474999999916,"midi":58,"time":18.65216925,"velocity":0.7874015748031497},{"duration":0.13043474999999916,"midi":58,"time":18.65216925,"velocity":0.7874015748031497},{"duration":0.13043474999999916,"midi":53,"time":18.782604,"velocity":0.7874015748031497},{"duration":0.13043474999999916,"midi":53,"time":18.782604,"velocity":0.7874015748031497},{"duration":0.13043474999999916,"midi":60,"time":18.91303875,"velocity":0.7874015748031497},{"duration":0.13043474999999916,"midi":60,"time":18.91303875,"velocity":0.7874015748031497},{"duration":0.13043474999999916,"midi":58,"time":19.043473499999998,"velocity":0.7874015748031497},{"duration":0.13043474999999916,"midi":58,"time":19.043473499999998,"velocity":0.7874015748031497},{"duration":0.1304347500000027,"midi":60,"time":19.173908249999997,"velocity":0.7874015748031497},{"duration":0.1304347500000027,"midi":60,"time":19.173908249999997,"velocity":0.7874015748031497},{"duration":0.13043474999999916,"midi":55,"time":19.304343,"velocity":0.7874015748031497},{"duration":0.13043474999999916,"midi":55,"time":19.304343,"velocity":0.7874015748031497},{"duration":0.13043474999999916,"midi":60,"time":19.43477775,"velocity":0.7874015748031497},{"duration":0.13043474999999916,"midi":60,"time":19.43477775,"velocity":0.7874015748031497},{"duration":0.13043474999999916,"midi":58,"time":19.565212499999998,"velocity":0.7874015748031497},{"duration":0.13043474999999916,"midi":58,"time":19.565212499999998,"velocity":0.7874015748031497},{"duration":0.1304347500000027,"midi":60,"time":19.695647249999997,"velocity":0.7874015748031497},{"duration":0.1304347500000027,"midi":60,"time":19.695647249999997,"velocity":0.7874015748031497},{"duration":0.13043474999999916,"midi":56,"time":19.826082,"velocity":0.7874015748031497},{"duration":0.13043474999999916,"midi":56,"time":19.826082,"velocity":0.7874015748031497},{"duration":0.13043474999999916,"midi":60,"time":19.95651675,"velocity":0.7874015748031497},{"duration":0.13043474999999916,"midi":60,"time":19.95651675,"velocity":0.7874015748031497},{"duration":0.13043474999999916,"midi":58,"time":20.086951499999998,"velocity":0.7874015748031497},{"duration":0.13043474999999916,"midi":58,"time":20.086951499999998,"velocity":0.7874015748031497},{"duration":0.1304347500000027,"midi":60,"time":20.217386249999997,"velocity":0.7874015748031497},{"duration":0.1304347500000027,"midi":60,"time":20.217386249999997,"velocity":0.7874015748031497},{"duration":0.13043474999999916,"midi":58,"time":20.347821,"velocity":0.7874015748031497},{"duration":0.13043474999999916,"midi":58,"time":20.347821,"velocity":0.7874015748031497},{"duration":0.13043474999999916,"midi":61,"time":20.47825575,"velocity":0.7874015748031497},{"duration":0.13043474999999916,"midi":61,"time":20.47825575,"velocity":0.7874015748031497},{"duration":0.13043474999999916,"midi":60,"time":20.608690499999998,"velocity":0.7874015748031497},{"duration":0.13043474999999916,"midi":60,"time":20.608690499999998,"velocity":0.7874015748031497},{"duration":0.1304347500000027,"midi":61,"time":20.739125249999997,"velocity":0.7874015748031497},{"duration":0.1304347500000027,"midi":61,"time":20.739125249999997,"velocity":0.7874015748031497},{"duration":0.13043474999999916,"midi":49,"time":20.86956,"velocity":0.7874015748031497},{"duration":0.13043474999999916,"midi":49,"time":20.86956,"velocity":0.7874015748031497},{"duration":0.13043474999999916,"midi":56,"time":20.99999475,"velocity":0.7874015748031497},{"duration":0.13043474999999916,"midi":56,"time":20.99999475,"velocity":0.7874015748031497},{"duration":0.13043474999999916,"midi":55,"time":21.130429499999998,"velocity":0.7874015748031497},{"duration":0.13043474999999916,"midi":55,"time":21.130429499999998,"velocity":0.7874015748031497},{"duration":0.13043474999999916,"midi":56,"time":21.260864249999997,"velocity":0.7874015748031497},{"duration":0.13043474999999916,"midi":56,"time":21.260864249999997,"velocity":0.7874015748031497},{"duration":0.1304347500000027,"midi":49,"time":21.391298999999997,"velocity":0.7874015748031497},{"duration":0.1304347500000027,"midi":49,"time":21.391298999999997,"velocity":0.7874015748031497},{"duration":0.13043474999999916,"midi":58,"time":21.52173375,"velocity":0.7874015748031497},{"duration":0.13043474999999916,"midi":58,"time":21.52173375,"velocity":0.7874015748031497},{"duration":0.13043474999999916,"midi":56,"time":21.6521685,"velocity":0.7874015748031497},{"duration":0.13043474999999916,"midi":56,"time":21.6521685,"velocity":0.7874015748031497},{"duration":0.13043474999999916,"midi":58,"time":21.782603249999998,"velocity":0.7874015748031497},{"duration":0.13043474999999916,"midi":58,"time":21.782603249999998,"velocity":0.7874015748031497},{"duration":0.1304347500000027,"midi":49,"time":21.913037999999997,"velocity":0.7874015748031497},{"duration":0.1304347500000027,"midi":49,"time":21.913037999999997,"velocity":0.7874015748031497},{"duration":0.13043474999999916,"midi":60,"time":22.04347275,"velocity":0.7874015748031497},{"duration":0.13043474999999916,"midi":60,"time":22.04347275,"velocity":0.7874015748031497},{"duration":0.13043474999999916,"midi":58,"time":22.1739075,"velocity":0.7874015748031497},{"duration":0.13043474999999916,"midi":58,"time":22.1739075,"velocity":0.7874015748031497},{"duration":0.13043474999999916,"midi":60,"time":22.304342249999998,"velocity":0.7874015748031497},{"duration":0.13043474999999916,"midi":60,"time":22.304342249999998,"velocity":0.7874015748031497},{"duration":0.1304347500000027,"midi":49,"time":22.434776999999997,"velocity":0.7874015748031497},{"duration":0.1304347500000027,"midi":49,"time":22.434776999999997,"velocity":0.7874015748031497},{"duration":0.13043474999999916,"midi":61,"time":22.56521175,"velocity":0.7874015748031497},{"duration":0.13043474999999916,"midi":61,"time":22.56521175,"velocity":0.7874015748031497},{"duration":0.13043474999999916,"midi":60,"time":22.6956465,"velocity":0.7874015748031497},{"duration":0.13043474999999916,"midi":60,"time":22.6956465,"velocity":0.7874015748031497},{"duration":0.13043474999999916,"midi":61,"time":22.826081249999998,"velocity":0.7874015748031497},{"duration":0.13043474999999916,"midi":61,"time":22.826081249999998,"velocity":0.7874015748031497},{"duration":0.26086950000000186,"midi":48,"time":22.956515999999997,"velocity":0.7874015748031497},{"duration":0.26086950000000186,"midi":48,"time":22.956515999999997,"velocity":0.7874015748031497},{"duration":0.2608694999999983,"midi":48,"time":23.7391245,"velocity":0.7874015748031497},{"duration":0.2608694999999983,"midi":48,"time":23.7391245,"velocity":0.7874015748031497},{"duration":1.0434780000000003,"midi":48,"time":23.999993999999997,"velocity":0.7874015748031497},{"duration":1.0434780000000003,"midi":48,"time":23.999993999999997,"velocity":0.7874015748031497},{"duration":0.1304347500000027,"midi":60,"time":24.652167749999997,"velocity":0.7874015748031497},{"duration":0.1304347500000027,"midi":60,"time":24.652167749999997,"velocity":0.7874015748031497},{"duration":0.13043474999999916,"midi":62,"time":24.7826025,"velocity":0.7874015748031497},{"duration":0.13043474999999916,"midi":62,"time":24.7826025,"velocity":0.7874015748031497},{"duration":0.13043474999999916,"midi":64,"time":24.91303725,"velocity":0.7874015748031497},{"duration":0.13043474999999916,"midi":64,"time":24.91303725,"velocity":0.7874015748031497},{"duration":0.2608694999999983,"midi":65,"time":25.043471999999998,"velocity":0.7874015748031497},{"duration":0.2608694999999983,"midi":60,"time":25.043471999999998,"velocity":0.7874015748031497},{"duration":0.2608694999999983,"midi":60,"time":25.043471999999998,"velocity":0.7874015748031497},{"duration":0.2608694999999983,"midi":65,"time":25.043471999999998,"velocity":0.7874015748031497},{"duration":0.26086950000000186,"midi":56,"time":25.304341499999996,"velocity":0.7874015748031497},{"duration":0.26086950000000186,"midi":60,"time":25.304341499999996,"velocity":0.7874015748031497},{"duration":0.26086950000000186,"midi":60,"time":25.304341499999996,"velocity":0.7874015748031497},{"duration":0.26086950000000186,"midi":56,"time":25.304341499999996,"velocity":0.7874015748031497},{"duration":0.2608694999999983,"midi":56,"time":25.565210999999998,"velocity":0.7874015748031497},{"duration":0.2608694999999983,"midi":53,"time":25.565210999999998,"velocity":0.7874015748031497},{"duration":0.2608694999999983,"midi":56,"time":25.565210999999998,"velocity":0.7874015748031497},{"duration":0.2608694999999983,"midi":53,"time":25.565210999999998,"velocity":0.7874015748031497},{"duration":0.26086950000000186,"midi":48,"time":25.826080499999996,"velocity":0.7874015748031497},{"duration":0.26086950000000186,"midi":53,"time":25.826080499999996,"velocity":0.7874015748031497},{"duration":0.26086950000000186,"midi":48,"time":25.826080499999996,"velocity":0.7874015748031497},{"duration":0.26086950000000186,"midi":53,"time":25.826080499999996,"velocity":0.7874015748031497},{"duration":0.13043474999999916,"midi":59,"time":26.217384749999997,"velocity":0.7874015748031497},{"duration":0.13043474999999916,"midi":59,"time":26.217384749999997,"velocity":0.7874015748031497},{"duration":0.13043474999999916,"midi":56,"time":26.217384749999997,"velocity":0.7874015748031497},{"duration":0.13043474999999916,"midi":56,"time":26.217384749999997,"velocity":0.7874015748031497},{"duration":0.26086950000000186,"midi":53,"time":26.347819499999996,"velocity":0.7874015748031497},{"duration":0.26086950000000186,"midi":53,"time":26.347819499999996,"velocity":0.7874015748031497},{"duration":0.26086950000000186,"midi":58,"time":26.347819499999996,"velocity":0.7874015748031497},{"duration":0.26086950000000186,"midi":58,"time":26.347819499999996,"velocity":0.7874015748031497},{"duration":0.13043474999999916,"midi":55,"time":26.608689,"velocity":0.7874015748031497},{"duration":0.13043474999999916,"midi":58,"time":26.608689,"velocity":0.7874015748031497},{"duration":0.13043474999999916,"midi":58,"time":26.608689,"velocity":0.7874015748031497},{"duration":0.13043474999999916,"midi":55,"time":26.608689,"velocity":0.7874015748031497},{"duration":0.13043474999999916,"midi":52,"time":26.739123749999997,"velocity":0.7874015748031497},{"duration":0.13043474999999916,"midi":56,"time":26.739123749999997,"velocity":0.7874015748031497},{"duration":0.13043474999999916,"midi":56,"time":26.739123749999997,"velocity":0.7874015748031497},{"duration":0.13043474999999916,"midi":52,"time":26.739123749999997,"velocity":0.7874015748031497},{"duration":0.1304347500000027,"midi":51,"time":26.869558499999997,"velocity":0.7874015748031497},{"duration":0.1304347500000027,"midi":51,"time":26.869558499999997,"velocity":0.7874015748031497},{"duration":0.1304347500000027,"midi":46,"time":26.869558499999997,"velocity":0.7874015748031497},{"duration":0.1304347500000027,"midi":46,"time":26.869558499999997,"velocity":0.7874015748031497},{"duration":0.13043474999999916,"midi":52,"time":26.99999325,"velocity":0.7874015748031497},{"duration":0.13043474999999916,"midi":49,"time":26.99999325,"velocity":0.7874015748031497},{"duration":0.13043474999999916,"midi":49,"time":26.99999325,"velocity":0.7874015748031497},{"duration":0.13043474999999916,"midi":52,"time":26.99999325,"velocity":0.7874015748031497},{"duration":0.13043474999999916,"midi":60,"time":27.260862749999998,"velocity":0.7874015748031497},{"duration":0.13043474999999916,"midi":56,"time":27.260862749999998,"velocity":0.7874015748031497},{"duration":0.13043474999999916,"midi":56,"time":27.260862749999998,"velocity":0.7874015748031497},{"duration":0.13043474999999916,"midi":60,"time":27.260862749999998,"velocity":0.7874015748031497},{"duration":0.13043474999999916,"midi":58,"time":27.391297499999997,"velocity":0.7874015748031497},{"duration":0.13043474999999916,"midi":53,"time":27.391297499999997,"velocity":0.7874015748031497},{"duration":0.13043474999999916,"midi":53,"time":27.391297499999997,"velocity":0.7874015748031497},{"duration":0.13043474999999916,"midi":58,"time":27.391297499999997,"velocity":0.7874015748031497},{"duration":0.1304347500000027,"midi":51,"time":27.521732249999996,"velocity":0.7874015748031497},{"duration":0.1304347500000027,"midi":56,"time":27.521732249999996,"velocity":0.7874015748031497},{"duration":0.1304347500000027,"midi":51,"time":27.521732249999996,"velocity":0.7874015748031497},{"duration":0.1304347500000027,"midi":56,"time":27.521732249999996,"velocity":0.7874015748031497},{"duration":0.13043474999999916,"midi":58,"time":27.652167,"velocity":0.7874015748031497},{"duration":0.13043474999999916,"midi":55,"time":27.652167,"velocity":0.7874015748031497},{"duration":0.13043474999999916,"midi":55,"time":27.652167,"velocity":0.7874015748031497},{"duration":0.13043474999999916,"midi":58,"time":27.652167,"velocity":0.7874015748031497},{"duration":0.13043474999999916,"midi":56,"time":27.782601749999998,"velocity":0.7874015748031497},{"duration":0.13043474999999916,"midi":60,"time":27.782601749999998,"velocity":0.7874015748031497},{"duration":0.13043474999999916,"midi":56,"time":27.782601749999998,"velocity":0.7874015748031497},{"duration":0.13043474999999916,"midi":60,"time":27.782601749999998,"velocity":0.7874015748031497},{"duration":0.13043474999999916,"midi":43,"time":27.913036499999997,"velocity":0.7874015748031497},{"duration":0.13043474999999916,"midi":51,"time":27.913036499999997,"velocity":0.7874015748031497},{"duration":0.13043474999999916,"midi":51,"time":27.913036499999997,"velocity":0.7874015748031497},{"duration":0.13043474999999916,"midi":43,"time":27.913036499999997,"velocity":0.7874015748031497},{"duration":0.1304347500000027,"midi":53,"time":28.043471249999996,"velocity":0.7874015748031497},{"duration":0.1304347500000027,"midi":44,"time":28.043471249999996,"velocity":0.7874015748031497},{"duration":0.1304347500000027,"midi":44,"time":28.043471249999996,"velocity":0.7874015748031497},{"duration":0.1304347500000027,"midi":53,"time":28.043471249999996,"velocity":0.7874015748031497},{"duration":0.13043474999999916,"midi":56,"time":28.173906,"velocity":0.7874015748031497},{"duration":0.13043474999999916,"midi":48,"time":28.173906,"velocity":0.7874015748031497},{"duration":0.13043474999999916,"midi":56,"time":28.173906,"velocity":0.7874015748031497},{"duration":0.13043474999999916,"midi":48,"time":28.173906,"velocity":0.7874015748031497},{"duration":0.13043474999999916,"midi":44,"time":28.304340749999998,"velocity":0.7874015748031497},{"duration":0.13043474999999916,"midi":53,"time":28.304340749999998,"velocity":0.7874015748031497},{"duration":0.13043474999999916,"midi":44,"time":28.304340749999998,"velocity":0.7874015748031497},{"duration":0.13043474999999916,"midi":53,"time":28.304340749999998,"velocity":0.7874015748031497},{"duration":0.13043474999999916,"midi":51,"time":28.434775499999997,"velocity":0.7874015748031497},{"duration":0.13043474999999916,"midi":43,"time":28.434775499999997,"velocity":0.7874015748031497},{"duration":0.13043474999999916,"midi":43,"time":28.434775499999997,"velocity":0.7874015748031497},{"duration":0.13043474999999916,"midi":51,"time":28.434775499999997,"velocity":0.7874015748031497},{"duration":0.26086950000000186,"midi":65,"time":28.565210249999996,"velocity":0.7874015748031497},{"duration":0.26086950000000186,"midi":56,"time":28.565210249999996,"velocity":0.7874015748031497},{"duration":0.26086950000000186,"midi":56,"time":28.565210249999996,"velocity":0.7874015748031497},{"duration":0.26086950000000186,"midi":65,"time":28.565210249999996,"velocity":0.7874015748031497},{"duration":0.13043474999999916,"midi":63,"time":28.826079749999998,"velocity":0.7874015748031497},{"duration":0.13043474999999916,"midi":63,"time":28.826079749999998,"velocity":0.7874015748031497},{"duration":0.06521737499999958,"midi":60,"time":28.956514499999997,"velocity":0.7874015748031497},{"duration":0.06521737499999958,"midi":60,"time":28.956514499999997,"velocity":0.7874015748031497},{"duration":0.13043474999999916,"midi":58,"time":29.021731874999997,"velocity":0.7874015748031497},{"duration":0.13043474999999916,"midi":58,"time":29.021731874999997,"velocity":0.7874015748031497},{"duration":0.13043474999999916,"midi":56,"time":29.086949249999996,"velocity":0.7874015748031497},{"duration":0.13043474999999916,"midi":56,"time":29.086949249999996,"velocity":0.7874015748031497},{"duration":0.5217390000000002,"midi":53,"time":29.217383999999996,"velocity":0.7874015748031497},{"duration":0.5217390000000002,"midi":53,"time":29.217383999999996,"velocity":0.7874015748031497},{"duration":0.13043474999999916,"midi":46,"time":29.478253499999997,"velocity":0.7874015748031497},{"duration":0.13043474999999916,"midi":46,"time":29.478253499999997,"velocity":0.7874015748031497},{"duration":0.5217390000000002,"midi":55,"time":29.739122999999996,"velocity":0.7874015748031497},{"duration":0.5217390000000002,"midi":55,"time":29.739122999999996,"velocity":0.7874015748031497},{"duration":0.13043474999999916,"midi":46,"time":29.999992499999998,"velocity":0.7874015748031497},{"duration":0.13043474999999916,"midi":46,"time":29.999992499999998,"velocity":0.7874015748031497},{"duration":0.5217390000000002,"midi":56,"time":30.260861999999996,"velocity":0.7874015748031497},{"duration":0.5217390000000002,"midi":56,"time":30.260861999999996,"velocity":0.7874015748031497},{"duration":0.13043474999999916,"midi":46,"time":30.521731499999998,"velocity":0.7874015748031497},{"duration":0.13043474999999916,"midi":46,"time":30.521731499999998,"velocity":0.7874015748031497},{"duration":0.5217390000000002,"midi":58,"time":30.782600999999996,"velocity":0.7874015748031497},{"duration":0.5217390000000002,"midi":58,"time":30.782600999999996,"velocity":0.7874015748031497},{"duration":0.13043474999999916,"midi":44,"time":31.043470499999998,"velocity":0.7874015748031497},{"duration":0.13043474999999916,"midi":44,"time":31.043470499999998,"velocity":0.7874015748031497},{"duration":0.26086950000000186,"midi":60,"time":31.304339999999996,"velocity":0.7874015748031497},{"duration":0.26086950000000186,"midi":60,"time":31.304339999999996,"velocity":0.7874015748031497},{"duration":0.2608694999999983,"midi":53,"time":31.565209499999998,"velocity":0.7874015748031497},{"duration":0.2608694999999983,"midi":53,"time":31.565209499999998,"velocity":0.7874015748031497},{"duration":0.26086950000000186,"midi":65,"time":31.826078999999996,"velocity":0.7874015748031497},{"duration":0.26086950000000186,"midi":65,"time":31.826078999999996,"velocity":0.7874015748031497},{"duration":0.2608694999999983,"midi":53,"time":32.0869485,"velocity":0.7874015748031497},{"duration":0.2608694999999983,"midi":53,"time":32.0869485,"velocity":0.7874015748031497},{"duration":0.2608694999999983,"midi":64,"time":32.347818,"velocity":0.7874015748031497},{"duration":0.2608694999999983,"midi":64,"time":32.347818,"velocity":0.7874015748031497},{"duration":0.2608695000000054,"midi":61,"time":32.608687499999995,"velocity":0.7874015748031497},{"duration":0.2608695000000054,"midi":61,"time":32.608687499999995,"velocity":0.7874015748031497},{"duration":0.2608694999999983,"midi":60,"time":32.869557,"velocity":0.7874015748031497},{"duration":0.2608694999999983,"midi":60,"time":32.869557,"velocity":0.7874015748031497},{"duration":0.13043474999999916,"midi":63,"time":33.1304265,"velocity":0.7874015748031497},{"duration":0.13043474999999916,"midi":63,"time":33.1304265,"velocity":0.7874015748031497},{"duration":0.13043474999999916,"midi":64,"time":33.26086125,"velocity":0.7874015748031497},{"duration":0.13043474999999916,"midi":64,"time":33.26086125,"velocity":0.7874015748031497},{"duration":0.13043474999999916,"midi":65,"time":33.391296,"velocity":0.7874015748031497},{"duration":0.13043474999999916,"midi":53,"time":33.391296,"velocity":0.7874015748031497},{"duration":0.13043474999999916,"midi":65,"time":33.391296,"velocity":0.7874015748031497},{"duration":0.13043474999999916,"midi":53,"time":33.391296,"velocity":0.7874015748031497},{"duration":0.13043474999999916,"midi":60,"time":33.521730749999996,"velocity":0.7874015748031497},{"duration":0.13043474999999916,"midi":60,"time":33.521730749999996,"velocity":0.7874015748031497},{"duration":0.13043474999999916,"midi":61,"time":33.652165499999995,"velocity":0.7874015748031497},{"duration":0.13043474999999916,"midi":61,"time":33.652165499999995,"velocity":0.7874015748031497},{"duration":0.13043474999999916,"midi":60,"time":33.782600249999994,"velocity":0.7874015748031497},{"duration":0.13043474999999916,"midi":60,"time":33.782600249999994,"velocity":0.7874015748031497},{"duration":0.13043475000000626,"midi":53,"time":33.913034999999994,"velocity":0.7874015748031497},{"duration":0.13043475000000626,"midi":53,"time":33.913034999999994,"velocity":0.7874015748031497},{"duration":0.13043474999999916,"midi":60,"time":34.04346975,"velocity":0.7874015748031497},{"duration":0.13043474999999916,"midi":60,"time":34.04346975,"velocity":0.7874015748031497},{"duration":0.13043474999999916,"midi":65,"time":34.1739045,"velocity":0.7874015748031497},{"duration":0.13043474999999916,"midi":65,"time":34.1739045,"velocity":0.7874015748031497},{"duration":0.13043474999999916,"midi":60,"time":34.30433925,"velocity":0.7874015748031497},{"duration":0.13043474999999916,"midi":60,"time":34.30433925,"velocity":0.7874015748031497},{"duration":0.13043474999999916,"midi":58,"time":34.434774,"velocity":0.7874015748031497},{"duration":0.13043474999999916,"midi":58,"time":34.434774,"velocity":0.7874015748031497},{"duration":0.13043474999999916,"midi":65,"time":34.56520875,"velocity":0.7874015748031497},{"duration":0.13043474999999916,"midi":65,"time":34.56520875,"velocity":0.7874015748031497},{"duration":0.13043474999999916,"midi":68,"time":34.695643499999996,"velocity":0.7874015748031497},{"duration":0.13043474999999916,"midi":68,"time":34.695643499999996,"velocity":0.7874015748031497},{"duration":0.13043474999999916,"midi":65,"time":34.826078249999995,"velocity":0.7874015748031497},{"duration":0.13043474999999916,"midi":65,"time":34.826078249999995,"velocity":0.7874015748031497},{"duration":0.13043475000000626,"midi":58,"time":34.956512999999994,"velocity":0.7874015748031497},{"duration":0.13043475000000626,"midi":58,"time":34.956512999999994,"velocity":0.7874015748031497},{"duration":0.13043474999999916,"midi":65,"time":35.08694775,"velocity":0.7874015748031497},{"duration":0.13043474999999916,"midi":65,"time":35.08694775,"velocity":0.7874015748031497},{"duration":0.13043474999999916,"midi":67,"time":35.2173825,"velocity":0.7874015748031497},{"duration":0.13043474999999916,"midi":67,"time":35.2173825,"velocity":0.7874015748031497},{"duration":0.13043474999999916,"midi":65,"time":35.34781725,"velocity":0.7874015748031497},{"duration":0.13043474999999916,"midi":65,"time":35.34781725,"velocity":0.7874015748031497},{"duration":0.13043474999999916,"midi":61,"time":35.478252,"velocity":0.7874015748031497},{"duration":0.13043474999999916,"midi":61,"time":35.478252,"velocity":0.7874015748031497},{"duration":0.13043474999999916,"midi":65,"time":35.60868675,"velocity":0.7874015748031497},{"duration":0.13043474999999916,"midi":65,"time":35.60868675,"velocity":0.7874015748031497},{"duration":0.13043474999999916,"midi":68,"time":35.739121499999996,"velocity":0.7874015748031497},{"duration":0.13043474999999916,"midi":68,"time":35.739121499999996,"velocity":0.7874015748031497},{"duration":0.13043474999999916,"midi":65,"time":35.869556249999995,"velocity":0.7874015748031497},{"duration":0.13043474999999916,"midi":65,"time":35.869556249999995,"velocity":0.7874015748031497},{"duration":0.13043474999999916,"midi":61,"time":35.999990999999994,"velocity":0.7874015748031497},{"duration":0.13043474999999916,"midi":61,"time":35.999990999999994,"velocity":0.7874015748031497},{"duration":0.13043475000000626,"midi":65,"time":36.13042574999999,"velocity":0.7874015748031497},{"duration":0.13043475000000626,"midi":65,"time":36.13042574999999,"velocity":0.7874015748031497},{"duration":0.13043474999999916,"midi":67,"time":36.2608605,"velocity":0.7874015748031497},{"duration":0.13043474999999916,"midi":67,"time":36.2608605,"velocity":0.7874015748031497},{"duration":0.13043474999999916,"midi":65,"time":36.39129525,"velocity":0.7874015748031497},{"duration":0.13043474999999916,"midi":65,"time":36.39129525,"velocity":0.7874015748031497},{"duration":0.13043474999999916,"midi":60,"time":36.52173,"velocity":0.7874015748031497},{"duration":0.13043474999999916,"midi":60,"time":36.52173,"velocity":0.7874015748031497},{"duration":0.13043474999999916,"midi":65,"time":36.65216475,"velocity":0.7874015748031497},{"duration":0.13043474999999916,"midi":65,"time":36.65216475,"velocity":0.7874015748031497},{"duration":0.13043474999999916,"midi":68,"time":36.782599499999996,"velocity":0.7874015748031497},{"duration":0.13043474999999916,"midi":68,"time":36.782599499999996,"velocity":0.7874015748031497},{"duration":0.13043474999999916,"midi":65,"time":36.913034249999995,"velocity":0.7874015748031497},{"duration":0.13043474999999916,"midi":65,"time":36.913034249999995,"velocity":0.7874015748031497},{"duration":0.13043474999999916,"midi":60,"time":37.043468999999995,"velocity":0.7874015748031497},{"duration":0.13043474999999916,"midi":60,"time":37.043468999999995,"velocity":0.7874015748031497},{"duration":0.13043475000000626,"midi":64,"time":37.173903749999994,"velocity":0.7874015748031497},{"duration":0.13043475000000626,"midi":64,"time":37.173903749999994,"velocity":0.7874015748031497},{"duration":0.13043474999999916,"midi":67,"time":37.3043385,"velocity":0.7874015748031497},{"duration":0.13043474999999916,"midi":67,"time":37.3043385,"velocity":0.7874015748031497},{"duration":0.13043474999999916,"midi":64,"time":37.43477325,"velocity":0.7874015748031497},{"duration":0.13043474999999916,"midi":64,"time":37.43477325,"velocity":0.7874015748031497},{"duration":0.13043474999999916,"midi":53,"time":37.565208,"velocity":0.7874015748031497},{"duration":0.13043474999999916,"midi":53,"time":37.565208,"velocity":0.7874015748031497},{"duration":0.13043474999999916,"midi":60,"time":37.69564275,"velocity":0.7874015748031497},{"duration":0.13043474999999916,"midi":60,"time":37.69564275,"velocity":0.7874015748031497},{"duration":0.13043474999999916,"midi":61,"time":37.8260775,"velocity":0.7874015748031497},{"duration":0.13043474999999916,"midi":61,"time":37.8260775,"velocity":0.7874015748031497},{"duration":0.13043474999999916,"midi":60,"time":37.956512249999996,"velocity":0.7874015748031497},{"duration":0.13043474999999916,"midi":60,"time":37.956512249999996,"velocity":0.7874015748031497},{"duration":0.13043474999999916,"midi":53,"time":38.086946999999995,"velocity":0.7874015748031497},{"duration":0.13043474999999916,"midi":53,"time":38.086946999999995,"velocity":0.7874015748031497},{"duration":0.13043474999999916,"midi":60,"time":38.217381749999994,"velocity":0.7874015748031497},{"duration":0.13043474999999916,"midi":60,"time":38.217381749999994,"velocity":0.7874015748031497},{"duration":0.13043475000000626,"midi":65,"time":38.34781649999999,"velocity":0.7874015748031497},{"duration":0.13043475000000626,"midi":65,"time":38.34781649999999,"velocity":0.7874015748031497},{"duration":0.13043474999999916,"midi":60,"time":38.47825125,"velocity":0.7874015748031497},{"duration":0.13043474999999916,"midi":60,"time":38.47825125,"velocity":0.7874015748031497},{"duration":0.13043474999999916,"midi":58,"time":38.608686,"velocity":0.7874015748031497},{"duration":0.13043474999999916,"midi":58,"time":38.608686,"velocity":0.7874015748031497},{"duration":0.13043474999999916,"midi":65,"time":38.73912075,"velocity":0.7874015748031497},{"duration":0.13043474999999916,"midi":65,"time":38.73912075,"velocity":0.7874015748031497},{"duration":0.13043474999999916,"midi":68,"time":38.8695555,"velocity":0.7874015748031497},{"duration":0.13043474999999916,"midi":68,"time":38.8695555,"velocity":0.7874015748031497},{"duration":0.13043474999999916,"midi":65,"time":38.999990249999996,"velocity":0.7874015748031497},{"duration":0.13043474999999916,"midi":65,"time":38.999990249999996,"velocity":0.7874015748031497},{"duration":0.13043474999999916,"midi":58,"time":39.130424999999995,"velocity":0.7874015748031497},{"duration":0.13043474999999916,"midi":58,"time":39.130424999999995,"velocity":0.7874015748031497},{"duration":0.13043474999999916,"midi":65,"time":39.260859749999995,"velocity":0.7874015748031497},{"duration":0.13043474999999916,"midi":65,"time":39.260859749999995,"velocity":0.7874015748031497},{"duration":0.13043475000000626,"midi":67,"time":39.391294499999994,"velocity":0.7874015748031497},{"duration":0.13043475000000626,"midi":67,"time":39.391294499999994,"velocity":0.7874015748031497},{"duration":0.13043474999999916,"midi":65,"time":39.52172925,"velocity":0.7874015748031497},{"duration":0.13043474999999916,"midi":65,"time":39.52172925,"velocity":0.7874015748031497},{"duration":0.13043474999999916,"midi":61,"time":39.652164,"velocity":0.7874015748031497},{"duration":0.13043474999999916,"midi":61,"time":39.652164,"velocity":0.7874015748031497},{"duration":0.13043474999999916,"midi":65,"time":39.78259875,"velocity":0.7874015748031497},{"duration":0.13043474999999916,"midi":65,"time":39.78259875,"velocity":0.7874015748031497},{"duration":0.13043474999999916,"midi":68,"time":39.9130335,"velocity":0.7874015748031497},{"duration":0.13043474999999916,"midi":68,"time":39.9130335,"velocity":0.7874015748031497},{"duration":0.13043474999999916,"midi":65,"time":40.04346825,"velocity":0.7874015748031497},{"duration":0.13043474999999916,"midi":65,"time":40.04346825,"velocity":0.7874015748031497},{"duration":0.13043474999999916,"midi":61,"time":40.173902999999996,"velocity":0.7874015748031497},{"duration":0.13043474999999916,"midi":61,"time":40.173902999999996,"velocity":0.7874015748031497},{"duration":0.13043474999999916,"midi":65,"time":40.304337749999995,"velocity":0.7874015748031497},{"duration":0.13043474999999916,"midi":65,"time":40.304337749999995,"velocity":0.7874015748031497},{"duration":0.13043474999999916,"midi":67,"time":40.434772499999994,"velocity":0.7874015748031497},{"duration":0.13043474999999916,"midi":67,"time":40.434772499999994,"velocity":0.7874015748031497},{"duration":0.13043475000000626,"midi":65,"time":40.56520724999999,"velocity":0.7874015748031497},{"duration":0.13043475000000626,"midi":65,"time":40.56520724999999,"velocity":0.7874015748031497},{"duration":0.13043474999999916,"midi":60,"time":40.695642,"velocity":0.7874015748031497},{"duration":0.13043474999999916,"midi":60,"time":40.695642,"velocity":0.7874015748031497},{"duration":0.13043474999999916,"midi":65,"time":40.82607675,"velocity":0.7874015748031497},{"duration":0.13043474999999916,"midi":65,"time":40.82607675,"velocity":0.7874015748031497},{"duration":0.13043474999999916,"midi":68,"time":40.9565115,"velocity":0.7874015748031497},{"duration":0.13043474999999916,"midi":68,"time":40.9565115,"velocity":0.7874015748031497},{"duration":0.13043474999999916,"midi":65,"time":41.08694625,"velocity":0.7874015748031497},{"duration":0.13043474999999916,"midi":65,"time":41.08694625,"velocity":0.7874015748031497},{"duration":0.13043474999999916,"midi":60,"time":41.217380999999996,"velocity":0.7874015748031497},{"duration":0.13043474999999916,"midi":60,"time":41.217380999999996,"velocity":0.7874015748031497},{"duration":0.13043474999999916,"midi":64,"time":41.347815749999995,"velocity":0.7874015748031497},{"duration":0.13043474999999916,"midi":64,"time":41.347815749999995,"velocity":0.7874015748031497},{"duration":0.13043474999999916,"midi":67,"time":41.478250499999994,"velocity":0.7874015748031497},{"duration":0.13043474999999916,"midi":67,"time":41.478250499999994,"velocity":0.7874015748031497},{"duration":0.13043475000000626,"midi":64,"time":41.60868524999999,"velocity":0.7874015748031497},{"duration":0.13043475000000626,"midi":64,"time":41.60868524999999,"velocity":0.7874015748031497},{"duration":0.13043474999999916,"midi":53,"time":41.73912,"velocity":0.7874015748031497},{"duration":0.13043474999999916,"midi":53,"time":41.73912,"velocity":0.7874015748031497},{"duration":0.13043474999999916,"midi":60,"time":41.86955475,"velocity":0.7874015748031497},{"duration":0.13043474999999916,"midi":60,"time":41.86955475,"velocity":0.7874015748031497},{"duration":0.13043474999999916,"midi":61,"time":41.9999895,"velocity":0.7874015748031497},{"duration":0.13043474999999916,"midi":61,"time":41.9999895,"velocity":0.7874015748031497},{"duration":0.13043474999999916,"midi":60,"time":42.13042425,"velocity":0.7874015748031497},{"duration":0.13043474999999916,"midi":60,"time":42.13042425,"velocity":0.7874015748031497},{"duration":0.13043474999999916,"midi":53,"time":42.260858999999996,"velocity":0.7874015748031497},{"duration":0.13043474999999916,"midi":53,"time":42.260858999999996,"velocity":0.7874015748031497},{"duration":0.13043474999999916,"midi":60,"time":42.391293749999996,"velocity":0.7874015748031497},{"duration":0.13043474999999916,"midi":60,"time":42.391293749999996,"velocity":0.7874015748031497},{"duration":0.13043474999999916,"midi":65,"time":42.521728499999995,"velocity":0.7874015748031497},{"duration":0.13043474999999916,"midi":65,"time":42.521728499999995,"velocity":0.7874015748031497},{"duration":0.13043474999999916,"midi":60,"time":42.652163249999994,"velocity":0.7874015748031497},{"duration":0.13043474999999916,"midi":60,"time":42.652163249999994,"velocity":0.7874015748031497},{"duration":0.13043475000000626,"midi":58,"time":42.78259799999999,"velocity":0.7874015748031497},{"duration":0.13043475000000626,"midi":58,"time":42.78259799999999,"velocity":0.7874015748031497},{"duration":0.13043474999999916,"midi":65,"time":42.91303275,"velocity":0.7874015748031497},{"duration":0.13043474999999916,"midi":65,"time":42.91303275,"velocity":0.7874015748031497},{"duration":0.13043474999999916,"midi":68,"time":43.0434675,"velocity":0.7874015748031497},{"duration":0.13043474999999916,"midi":68,"time":43.0434675,"velocity":0.7874015748031497},{"duration":0.13043474999999916,"midi":65,"time":43.17390225,"velocity":0.7874015748031497},{"duration":0.13043474999999916,"midi":65,"time":43.17390225,"velocity":0.7874015748031497},{"duration":0.13043474999999916,"midi":58,"time":43.304337,"velocity":0.7874015748031497},{"duration":0.13043474999999916,"midi":58,"time":43.304337,"velocity":0.7874015748031497},{"duration":0.13043474999999916,"midi":65,"time":43.434771749999996,"velocity":0.7874015748031497},{"duration":0.13043474999999916,"midi":65,"time":43.434771749999996,"velocity":0.7874015748031497},{"duration":0.13043474999999916,"midi":67,"time":43.565206499999995,"velocity":0.7874015748031497},{"duration":0.13043474999999916,"midi":67,"time":43.565206499999995,"velocity":0.7874015748031497},{"duration":0.13043474999999916,"midi":65,"time":43.695641249999994,"velocity":0.7874015748031497},{"duration":0.13043474999999916,"midi":65,"time":43.695641249999994,"velocity":0.7874015748031497},{"duration":0.13043474999999916,"midi":61,"time":43.82607599999999,"velocity":0.7874015748031497},{"duration":0.13043474999999916,"midi":61,"time":43.82607599999999,"velocity":0.7874015748031497},{"duration":0.13043475000000626,"midi":65,"time":43.95651074999999,"velocity":0.7874015748031497},{"duration":0.13043475000000626,"midi":65,"time":43.95651074999999,"velocity":0.7874015748031497},{"duration":0.13043474999999916,"midi":68,"time":44.0869455,"velocity":0.7874015748031497},{"duration":0.13043474999999916,"midi":68,"time":44.0869455,"velocity":0.7874015748031497},{"duration":0.13043474999999916,"midi":65,"time":44.21738025,"velocity":0.7874015748031497},{"duration":0.13043474999999916,"midi":65,"time":44.21738025,"velocity":0.7874015748031497},{"duration":0.13043474999999916,"midi":61,"time":44.347815,"velocity":0.7874015748031497},{"duration":0.13043474999999916,"midi":61,"time":44.347815,"velocity":0.7874015748031497},{"duration":0.13043474999999916,"midi":65,"time":44.478249749999996,"velocity":0.7874015748031497},{"duration":0.13043474999999916,"midi":65,"time":44.478249749999996,"velocity":0.7874015748031497},{"duration":0.13043474999999916,"midi":67,"time":44.608684499999995,"velocity":0.7874015748031497},{"duration":0.13043474999999916,"midi":67,"time":44.608684499999995,"velocity":0.7874015748031497},{"duration":0.13043474999999916,"midi":65,"time":44.739119249999995,"velocity":0.7874015748031497},{"duration":0.13043474999999916,"midi":65,"time":44.739119249999995,"velocity":0.7874015748031497},{"duration":0.13043474999999916,"midi":60,"time":44.869553999999994,"velocity":0.7874015748031497},{"duration":0.13043474999999916,"midi":60,"time":44.869553999999994,"velocity":0.7874015748031497},{"duration":0.13043475000000626,"midi":65,"time":44.99998874999999,"velocity":0.7874015748031497},{"duration":0.13043475000000626,"midi":65,"time":44.99998874999999,"velocity":0.7874015748031497},{"duration":0.13043474999999916,"midi":68,"time":45.1304235,"velocity":0.7874015748031497},{"duration":0.13043474999999916,"midi":68,"time":45.1304235,"velocity":0.7874015748031497},{"duration":0.13043474999999916,"midi":65,"time":45.26085825,"velocity":0.7874015748031497},{"duration":0.13043474999999916,"midi":65,"time":45.26085825,"velocity":0.7874015748031497},{"duration":0.13043474999999916,"midi":60,"time":45.391293,"velocity":0.7874015748031497},{"duration":0.13043474999999916,"midi":60,"time":45.391293,"velocity":0.7874015748031497},{"duration":0.13043474999999916,"midi":64,"time":45.52172775,"velocity":0.7874015748031497},{"duration":0.13043474999999916,"midi":64,"time":45.52172775,"velocity":0.7874015748031497},{"duration":0.13043474999999916,"midi":67,"time":45.652162499999996,"velocity":0.7874015748031497},{"duration":0.13043474999999916,"midi":67,"time":45.652162499999996,"velocity":0.7874015748031497},{"duration":0.13043474999999916,"midi":64,"time":45.782597249999995,"velocity":0.7874015748031497},{"duration":0.13043474999999916,"midi":64,"time":45.782597249999995,"velocity":0.7874015748031497},{"duration":0.13043474999999916,"midi":53,"time":45.913031999999994,"velocity":0.7874015748031497},{"duration":0.13043474999999916,"midi":53,"time":45.913031999999994,"velocity":0.7874015748031497},{"duration":0.13043474999999916,"midi":60,"time":46.04346674999999,"velocity":0.7874015748031497},{"duration":0.13043474999999916,"midi":60,"time":46.04346674999999,"velocity":0.7874015748031497},{"duration":0.13043475000000626,"midi":61,"time":46.17390149999999,"velocity":0.7874015748031497},{"duration":0.13043475000000626,"midi":61,"time":46.17390149999999,"velocity":0.7874015748031497},{"duration":0.13043474999999916,"midi":60,"time":46.30433625,"velocity":0.7874015748031497},{"duration":0.13043474999999916,"midi":60,"time":46.30433625,"velocity":0.7874015748031497},{"duration":0.13043474999999916,"midi":53,"time":46.434771,"velocity":0.7874015748031497},{"duration":0.13043474999999916,"midi":53,"time":46.434771,"velocity":0.7874015748031497},{"duration":0.13043474999999916,"midi":60,"time":46.56520575,"velocity":0.7874015748031497},{"duration":0.13043474999999916,"midi":60,"time":46.56520575,"velocity":0.7874015748031497},{"duration":0.13043474999999916,"midi":65,"time":46.695640499999996,"velocity":0.7874015748031497},{"duration":0.13043474999999916,"midi":65,"time":46.695640499999996,"velocity":0.7874015748031497},{"duration":0.13043474999999916,"midi":60,"time":46.826075249999995,"velocity":0.7874015748031497},{"duration":0.13043474999999916,"midi":60,"time":46.826075249999995,"velocity":0.7874015748031497},{"duration":0.13043474999999916,"midi":58,"time":46.956509999999994,"velocity":0.7874015748031497},{"duration":0.13043474999999916,"midi":58,"time":46.956509999999994,"velocity":0.7874015748031497},{"duration":0.13043474999999916,"midi":65,"time":47.086944749999994,"velocity":0.7874015748031497},{"duration":0.13043474999999916,"midi":65,"time":47.086944749999994,"velocity":0.7874015748031497},{"duration":0.13043475000000626,"midi":68,"time":47.21737949999999,"velocity":0.7874015748031497},{"duration":0.13043475000000626,"midi":68,"time":47.21737949999999,"velocity":0.7874015748031497},{"duration":0.13043474999999916,"midi":65,"time":47.34781425,"velocity":0.7874015748031497},{"duration":0.13043474999999916,"midi":65,"time":47.34781425,"velocity":0.7874015748031497},{"duration":0.13043474999999916,"midi":58,"time":47.478249,"velocity":0.7874015748031497},{"duration":0.13043474999999916,"midi":58,"time":47.478249,"velocity":0.7874015748031497},{"duration":0.13043474999999916,"midi":65,"time":47.60868375,"velocity":0.7874015748031497},{"duration":0.13043474999999916,"midi":65,"time":47.60868375,"velocity":0.7874015748031497},{"duration":0.13043474999999916,"midi":61,"time":47.7391185,"velocity":0.7874015748031497},{"duration":0.13043474999999916,"midi":61,"time":47.7391185,"velocity":0.7874015748031497},{"duration":0.13043474999999916,"midi":66,"time":47.869553249999996,"velocity":0.7874015748031497},{"duration":0.13043474999999916,"midi":66,"time":47.869553249999996,"velocity":0.7874015748031497},{"duration":0.13043474999999916,"midi":61,"time":47.999987999999995,"velocity":0.7874015748031497},{"duration":0.13043474999999916,"midi":61,"time":47.999987999999995,"velocity":0.7874015748031497},{"duration":0.13043474999999916,"midi":65,"time":48.130422749999994,"velocity":0.7874015748031497},{"duration":0.13043474999999916,"midi":65,"time":48.130422749999994,"velocity":0.7874015748031497},{"duration":0.13043474999999916,"midi":68,"time":48.26085749999999,"velocity":0.7874015748031497},{"duration":0.13043474999999916,"midi":68,"time":48.26085749999999,"velocity":0.7874015748031497},{"duration":0.13043475000000626,"midi":65,"time":48.39129224999999,"velocity":0.7874015748031497},{"duration":0.13043475000000626,"midi":65,"time":48.39129224999999,"velocity":0.7874015748031497},{"duration":0.13043474999999916,"midi":60,"time":48.521727,"velocity":0.7874015748031497},{"duration":0.13043474999999916,"midi":60,"time":48.521727,"velocity":0.7874015748031497},{"duration":0.13043474999999916,"midi":64,"time":48.65216175,"velocity":0.7874015748031497},{"duration":0.13043474999999916,"midi":64,"time":48.65216175,"velocity":0.7874015748031497},{"duration":0.13043474999999916,"midi":67,"time":48.7825965,"velocity":0.7874015748031497},{"duration":0.13043474999999916,"midi":67,"time":48.7825965,"velocity":0.7874015748031497},{"duration":0.13043474999999916,"midi":64,"time":48.913031249999996,"velocity":0.7874015748031497},{"duration":0.13043474999999916,"midi":64,"time":48.913031249999996,"velocity":0.7874015748031497},{"duration":0.13043474999999916,"midi":61,"time":49.043465999999995,"velocity":0.7874015748031497},{"duration":0.13043474999999916,"midi":61,"time":49.043465999999995,"velocity":0.7874015748031497},{"duration":0.13043474999999916,"midi":68,"time":49.173900749999994,"velocity":0.7874015748031497},{"duration":0.13043474999999916,"midi":68,"time":49.173900749999994,"velocity":0.7874015748031497},{"duration":0.13043474999999916,"midi":60,"time":49.30433549999999,"velocity":0.7874015748031497},{"duration":0.13043474999999916,"midi":60,"time":49.30433549999999,"velocity":0.7874015748031497},{"duration":0.13043475000000626,"midi":67,"time":49.43477024999999,"velocity":0.7874015748031497},{"duration":0.13043475000000626,"midi":67,"time":49.43477024999999,"velocity":0.7874015748031497},{"duration":0.2608694999999983,"midi":65,"time":49.565205,"velocity":0.7874015748031497},{"duration":0.2608694999999983,"midi":65,"time":49.565205,"velocity":0.7874015748031497},{"duration":0.2608694999999983,"midi":53,"time":49.8260745,"velocity":0.7874015748031497},{"duration":0.2608694999999983,"midi":53,"time":49.8260745,"velocity":0.7874015748031497},{"duration":0.13043475000000626,"midi":53,"time":58.43476799999999,"velocity":0.7874015748031497},{"duration":0.13043475000000626,"midi":53,"time":58.43476799999999,"velocity":0.7874015748031497},{"duration":0.13043474999999916,"midi":60,"time":58.56520275,"velocity":0.7874015748031497},{"duration":0.13043474999999916,"midi":60,"time":58.56520275,"velocity":0.7874015748031497},{"duration":0.13043474999999916,"midi":61,"time":58.6956375,"velocity":0.7874015748031497},{"duration":0.13043474999999916,"midi":61,"time":58.6956375,"velocity":0.7874015748031497},{"duration":0.13043474999999916,"midi":60,"time":58.826072249999996,"velocity":0.7874015748031497},{"duration":0.13043474999999916,"midi":60,"time":58.826072249999996,"velocity":0.7874015748031497},{"duration":0.13043474999999916,"midi":53,"time":58.956506999999995,"velocity":0.7874015748031497},{"duration":0.13043474999999916,"midi":53,"time":58.956506999999995,"velocity":0.7874015748031497},{"duration":0.13043474999999916,"midi":60,"time":59.086941749999994,"velocity":0.7874015748031497},{"duration":0.13043474999999916,"midi":60,"time":59.086941749999994,"velocity":0.7874015748031497},{"duration":0.13043474999999916,"midi":65,"time":59.21737649999999,"velocity":0.7874015748031497},{"duration":0.13043474999999916,"midi":65,"time":59.21737649999999,"velocity":0.7874015748031497},{"duration":0.13043474999999916,"midi":60,"time":59.34781124999999,"velocity":0.7874015748031497},{"duration":0.13043474999999916,"midi":60,"time":59.34781124999999,"velocity":0.7874015748031497},{"duration":0.13043475000000626,"midi":58,"time":59.47824599999999,"velocity":0.7874015748031497},{"duration":0.13043475000000626,"midi":58,"time":59.47824599999999,"velocity":0.7874015748031497},{"duration":0.13043474999999916,"midi":65,"time":59.60868075,"velocity":0.7874015748031497},{"duration":0.13043474999999916,"midi":65,"time":59.60868075,"velocity":0.7874015748031497},{"duration":0.13043474999999916,"midi":68,"time":59.7391155,"velocity":0.7874015748031497},{"duration":0.13043474999999916,"midi":68,"time":59.7391155,"velocity":0.7874015748031497},{"duration":0.13043474999999916,"midi":65,"time":59.869550249999996,"velocity":0.7874015748031497},{"duration":0.13043474999999916,"midi":65,"time":59.869550249999996,"velocity":0.7874015748031497},{"duration":0.13043474999999916,"midi":58,"time":59.999984999999995,"velocity":0.7874015748031497},{"duration":0.13043474999999916,"midi":58,"time":59.999984999999995,"velocity":0.7874015748031497},{"duration":0.13043474999999916,"midi":65,"time":60.130419749999994,"velocity":0.7874015748031497},{"duration":0.13043474999999916,"midi":65,"time":60.130419749999994,"velocity":0.7874015748031497},{"duration":0.13043474999999916,"midi":67,"time":60.26085449999999,"velocity":0.7874015748031497},{"duration":0.13043474999999916,"midi":67,"time":60.26085449999999,"velocity":0.7874015748031497},{"duration":0.13043474999999916,"midi":65,"time":60.39128924999999,"velocity":0.7874015748031497},{"duration":0.13043474999999916,"midi":65,"time":60.39128924999999,"velocity":0.7874015748031497},{"duration":0.13043474999999916,"midi":61,"time":60.52172399999999,"velocity":0.7874015748031497},{"duration":0.13043474999999916,"midi":61,"time":60.52172399999999,"velocity":0.7874015748031497},{"duration":0.13043475000000626,"midi":65,"time":60.65215874999999,"velocity":0.7874015748031497},{"duration":0.13043475000000626,"midi":65,"time":60.65215874999999,"velocity":0.7874015748031497},{"duration":0.13043474999999916,"midi":68,"time":60.7825935,"velocity":0.7874015748031497},{"duration":0.13043474999999916,"midi":68,"time":60.7825935,"velocity":0.7874015748031497},{"duration":0.13043474999999916,"midi":65,"time":60.913028249999996,"velocity":0.7874015748031497},{"duration":0.13043474999999916,"midi":65,"time":60.913028249999996,"velocity":0.7874015748031497},{"duration":0.13043474999999916,"midi":61,"time":61.043462999999996,"velocity":0.7874015748031497},{"duration":0.13043474999999916,"midi":61,"time":61.043462999999996,"velocity":0.7874015748031497},{"duration":0.13043474999999916,"midi":65,"time":61.173897749999995,"velocity":0.7874015748031497},{"duration":0.13043474999999916,"midi":65,"time":61.173897749999995,"velocity":0.7874015748031497},{"duration":0.13043474999999916,"midi":67,"time":61.304332499999994,"velocity":0.7874015748031497},{"duration":0.13043474999999916,"midi":67,"time":61.304332499999994,"velocity":0.7874015748031497},{"duration":0.13043474999999916,"midi":65,"time":61.43476724999999,"velocity":0.7874015748031497},{"duration":0.13043474999999916,"midi":65,"time":61.43476724999999,"velocity":0.7874015748031497},{"duration":0.13043474999999916,"midi":60,"time":61.56520199999999,"velocity":0.7874015748031497},{"duration":0.13043474999999916,"midi":60,"time":61.56520199999999,"velocity":0.7874015748031497},{"duration":0.13043475000000626,"midi":65,"time":61.69563674999999,"velocity":0.7874015748031497},{"duration":0.13043475000000626,"midi":65,"time":61.69563674999999,"velocity":0.7874015748031497},{"duration":0.13043474999999916,"midi":68,"time":61.8260715,"velocity":0.7874015748031497},{"duration":0.13043474999999916,"midi":68,"time":61.8260715,"velocity":0.7874015748031497},{"duration":0.13043474999999916,"midi":65,"time":61.95650625,"velocity":0.7874015748031497},{"duration":0.13043474999999916,"midi":65,"time":61.95650625,"velocity":0.7874015748031497},{"duration":0.13043474999999916,"midi":60,"time":62.086940999999996,"velocity":0.7874015748031497},{"duration":0.13043474999999916,"midi":60,"time":62.086940999999996,"velocity":0.7874015748031497},{"duration":0.13043474999999916,"midi":64,"time":62.217375749999995,"velocity":0.7874015748031497},{"duration":0.13043474999999916,"midi":64,"time":62.217375749999995,"velocity":0.7874015748031497},{"duration":0.13043474999999916,"midi":67,"time":62.347810499999994,"velocity":0.7874015748031497},{"duration":0.13043474999999916,"midi":67,"time":62.347810499999994,"velocity":0.7874015748031497},{"duration":0.13043474999999916,"midi":64,"time":62.47824524999999,"velocity":0.7874015748031497},{"duration":0.13043474999999916,"midi":64,"time":62.47824524999999,"velocity":0.7874015748031497},{"duration":0.13043474999999916,"midi":53,"time":62.60867999999999,"velocity":0.7874015748031497},{"duration":0.13043474999999916,"midi":53,"time":62.60867999999999,"velocity":0.7874015748031497},{"duration":0.13043474999999916,"midi":60,"time":62.73911474999999,"velocity":0.7874015748031497},{"duration":0.13043474999999916,"midi":60,"time":62.73911474999999,"velocity":0.7874015748031497},{"duration":0.13043475000000626,"midi":61,"time":62.86954949999999,"velocity":0.7874015748031497},{"duration":0.13043475000000626,"midi":61,"time":62.86954949999999,"velocity":0.7874015748031497},{"duration":0.13043474999999916,"midi":60,"time":62.99998425,"velocity":0.7874015748031497},{"duration":0.13043474999999916,"midi":60,"time":62.99998425,"velocity":0.7874015748031497},{"duration":0.13043474999999916,"midi":53,"time":63.130418999999996,"velocity":0.7874015748031497},{"duration":0.13043474999999916,"midi":53,"time":63.130418999999996,"velocity":0.7874015748031497},{"duration":0.13043474999999916,"midi":60,"time":63.260853749999995,"velocity":0.7874015748031497},{"duration":0.13043474999999916,"midi":60,"time":63.260853749999995,"velocity":0.7874015748031497},{"duration":0.13043474999999916,"midi":65,"time":63.391288499999995,"velocity":0.7874015748031497},{"duration":0.13043474999999916,"midi":65,"time":63.391288499999995,"velocity":0.7874015748031497},{"duration":0.13043474999999916,"midi":60,"time":63.521723249999994,"velocity":0.7874015748031497},{"duration":0.13043474999999916,"midi":60,"time":63.521723249999994,"velocity":0.7874015748031497},{"duration":0.13043474999999916,"midi":58,"time":63.65215799999999,"velocity":0.7874015748031497},{"duration":0.13043474999999916,"midi":58,"time":63.65215799999999,"velocity":0.7874015748031497},{"duration":0.13043474999999916,"midi":65,"time":63.78259274999999,"velocity":0.7874015748031497},{"duration":0.13043474999999916,"midi":65,"time":63.78259274999999,"velocity":0.7874015748031497},{"duration":0.13043474999999916,"midi":68,"time":63.91302749999999,"velocity":0.7874015748031497},{"duration":0.13043474999999916,"midi":68,"time":63.91302749999999,"velocity":0.7874015748031497},{"duration":0.13043475000000626,"midi":65,"time":64.04346224999999,"velocity":0.7874015748031497},{"duration":0.13043475000000626,"midi":65,"time":64.04346224999999,"velocity":0.7874015748031497},{"duration":0.13043474999999205,"midi":58,"time":64.173897,"velocity":0.7874015748031497},{"duration":0.13043474999999205,"midi":58,"time":64.173897,"velocity":0.7874015748031497},{"duration":0.13043475000000626,"midi":65,"time":64.30433174999999,"velocity":0.7874015748031497},{"duration":0.13043475000000626,"midi":65,"time":64.30433174999999,"velocity":0.7874015748031497},{"duration":0.13043475000000626,"midi":61,"time":64.4347665,"velocity":0.7874015748031497},{"duration":0.13043475000000626,"midi":61,"time":64.4347665,"velocity":0.7874015748031497},{"duration":0.13043474999999205,"midi":66,"time":64.56520125,"velocity":0.7874015748031497},{"duration":0.13043474999999205,"midi":66,"time":64.56520125,"velocity":0.7874015748031497},{"duration":0.13043475000000626,"midi":61,"time":64.695636,"velocity":0.7874015748031497},{"duration":0.13043475000000626,"midi":61,"time":64.695636,"velocity":0.7874015748031497},{"duration":0.13043474999999205,"midi":65,"time":64.82607075,"velocity":0.7874015748031497},{"duration":0.13043474999999205,"midi":65,"time":64.82607075,"velocity":0.7874015748031497},{"duration":0.13043475000000626,"midi":68,"time":64.95650549999999,"velocity":0.7874015748031497},{"duration":0.13043475000000626,"midi":68,"time":64.95650549999999,"velocity":0.7874015748031497},{"duration":0.13043474999999205,"midi":65,"time":65.08694025,"velocity":0.7874015748031497},{"duration":0.13043474999999205,"midi":65,"time":65.08694025,"velocity":0.7874015748031497},{"duration":0.13043475000000626,"midi":60,"time":65.21737499999999,"velocity":0.7874015748031497},{"duration":0.13043475000000626,"midi":60,"time":65.21737499999999,"velocity":0.7874015748031497},{"duration":0.13043474999999205,"midi":64,"time":65.34780975,"velocity":0.7874015748031497},{"duration":0.13043474999999205,"midi":64,"time":65.34780975,"velocity":0.7874015748031497},{"duration":0.13043475000000626,"midi":67,"time":65.47824449999999,"velocity":0.7874015748031497},{"duration":0.13043475000000626,"midi":67,"time":65.47824449999999,"velocity":0.7874015748031497},{"duration":0.13043475000000626,"midi":64,"time":65.60867925,"velocity":0.7874015748031497},{"duration":0.13043475000000626,"midi":64,"time":65.60867925,"velocity":0.7874015748031497},{"duration":0.13043474999999205,"midi":61,"time":65.739114,"velocity":0.7874015748031497},{"duration":0.13043474999999205,"midi":61,"time":65.739114,"velocity":0.7874015748031497},{"duration":0.13043475000000626,"midi":68,"time":65.86954874999999,"velocity":0.7874015748031497},{"duration":0.13043475000000626,"midi":68,"time":65.86954874999999,"velocity":0.7874015748031497},{"duration":0.13043474999999205,"midi":60,"time":65.9999835,"velocity":0.7874015748031497},{"duration":0.13043474999999205,"midi":60,"time":65.9999835,"velocity":0.7874015748031497},{"duration":0.13043475000000626,"midi":67,"time":66.13041824999999,"velocity":0.7874015748031497},{"duration":0.13043475000000626,"midi":67,"time":66.13041824999999,"velocity":0.7874015748031497},{"duration":0.2608694999999983,"midi":65,"time":66.260853,"velocity":0.7874015748031497},{"duration":0.2608694999999983,"midi":65,"time":66.260853,"velocity":0.7874015748031497},{"duration":0.13043475000000626,"midi":60,"time":98.08693199999999,"velocity":0.7874015748031497},{"duration":0.13043475000000626,"midi":60,"time":98.08693199999999,"velocity":0.7874015748031497},{"duration":0.13043474999999205,"midi":60,"time":98.21736675,"velocity":0.7874015748031497},{"duration":0.13043474999999205,"midi":60,"time":98.21736675,"velocity":0.7874015748031497},{"duration":0.13043475000000626,"midi":72,"time":98.34780149999999,"velocity":0.7874015748031497},{"duration":0.13043475000000626,"midi":72,"time":98.34780149999999,"velocity":0.7874015748031497},{"duration":0.13043474999999205,"midi":60,"time":98.47823625,"velocity":0.7874015748031497},{"duration":0.13043474999999205,"midi":60,"time":98.47823625,"velocity":0.7874015748031497},{"duration":0.13043475000000626,"midi":60,"time":98.60867099999999,"velocity":0.7874015748031497},{"duration":0.13043475000000626,"midi":60,"time":98.60867099999999,"velocity":0.7874015748031497},{"duration":0.13043474999999205,"midi":60,"time":98.73910575,"velocity":0.7874015748031497},{"duration":0.13043474999999205,"midi":60,"time":98.73910575,"velocity":0.7874015748031497},{"duration":0.13043475000000626,"midi":72,"time":98.86954049999999,"velocity":0.7874015748031497},{"duration":0.13043475000000626,"midi":72,"time":98.86954049999999,"velocity":0.7874015748031497},{"duration":0.13043475000000626,"midi":60,"time":98.99997524999999,"velocity":0.7874015748031497},{"duration":0.13043475000000626,"midi":60,"time":98.99997524999999,"velocity":0.7874015748031497}]},{"instrument":{"family":"piano","number":0,"name":"acoustic grand piano"},"notes":[{"duration":0.2608695,"midi":77,"time":0,"velocity":0.3937007874015748},{"duration":0.2608695,"midi":72,"time":0,"velocity":0.3937007874015748},{"duration":0.2608695,"midi":72,"time":0,"velocity":0.3937007874015748},{"duration":0.2608695,"midi":77,"time":0,"velocity":0.3937007874015748},{"duration":0.2608695,"midi":72,"time":0.2608695,"velocity":0.3937007874015748},{"duration":0.2608695,"midi":72,"time":0.2608695,"velocity":0.3937007874015748},{"duration":0.2608695,"midi":68,"time":0.2608695,"velocity":0.3937007874015748},{"duration":0.2608695,"midi":68,"time":0.2608695,"velocity":0.3937007874015748},{"duration":0.2608695,"midi":68,"time":0.521739,"velocity":0.3937007874015748},{"duration":0.2608695,"midi":65,"time":0.521739,"velocity":0.3937007874015748},{"duration":0.2608695,"midi":68,"time":0.521739,"velocity":0.3937007874015748},{"duration":0.2608695,"midi":65,"time":0.521739,"velocity":0.3937007874015748},{"duration":0.2608695,"midi":60,"time":0.7826084999999999,"velocity":0.3937007874015748},{"duration":0.2608695,"midi":65,"time":0.7826084999999999,"velocity":0.3937007874015748},{"duration":0.2608695,"midi":65,"time":0.7826084999999999,"velocity":0.3937007874015748},{"duration":0.2608695,"midi":60,"time":0.7826084999999999,"velocity":0.3937007874015748},{"duration":0.13043475000000004,"midi":68,"time":1.17391275,"velocity":0.3937007874015748},{"duration":0.13043475000000004,"midi":72,"time":1.17391275,"velocity":0.3937007874015748},{"duration":0.13043475000000004,"midi":72,"time":1.17391275,"velocity":0.3937007874015748},{"duration":0.13043475000000004,"midi":68,"time":1.17391275,"velocity":0.3937007874015748},{"duration":0.26086949999999987,"midi":65,"time":1.3043475,"velocity":0.3937007874015748},{"duration":0.26086949999999987,"midi":70,"time":1.3043475,"velocity":0.3937007874015748},{"duration":0.26086949999999987,"midi":65,"time":1.3043475,"velocity":0.3937007874015748},{"duration":0.26086949999999987,"midi":70,"time":1.3043475,"velocity":0.3937007874015748},{"duration":0.13043475000000004,"midi":70,"time":1.5652169999999999,"velocity":0.3937007874015748},{"duration":0.13043475000000004,"midi":67,"time":1.5652169999999999,"velocity":0.3937007874015748},{"duration":0.13043475000000004,"midi":70,"time":1.5652169999999999,"velocity":0.3937007874015748},{"duration":0.13043475000000004,"midi":67,"time":1.5652169999999999,"velocity":0.3937007874015748},{"duration":0.13043474999999982,"midi":63,"time":1.69565175,"velocity":0.3937007874015748},{"duration":0.13043474999999982,"midi":63,"time":1.69565175,"velocity":0.3937007874015748},{"duration":0.13043474999999982,"midi":68,"time":1.69565175,"velocity":0.3937007874015748},{"duration":0.13043474999999982,"midi":68,"time":1.69565175,"velocity":0.3937007874015748},{"duration":0.13043475000000004,"midi":58,"time":1.8260864999999997,"velocity":0.3937007874015748},{"duration":0.13043475000000004,"midi":58,"time":1.8260864999999997,"velocity":0.3937007874015748},{"duration":0.13043475000000004,"midi":63,"time":1.8260864999999997,"velocity":0.3937007874015748},{"duration":0.13043475000000004,"midi":63,"time":1.8260864999999997,"velocity":0.3937007874015748},{"duration":0.13043475000000004,"midi":65,"time":1.9565212499999998,"velocity":0.3937007874015748},{"duration":0.13043475000000004,"midi":61,"time":1.9565212499999998,"velocity":0.3937007874015748},{"duration":0.13043475000000004,"midi":61,"time":1.9565212499999998,"velocity":0.3937007874015748},{"duration":0.13043475000000004,"midi":65,"time":1.9565212499999998,"velocity":0.3937007874015748},{"duration":0.13043475000000004,"midi":70,"time":1.9565212499999998,"velocity":0.3937007874015748},{"duration":0.13043475000000004,"midi":70,"time":1.9565212499999998,"velocity":0.3937007874015748},{"duration":0.13043475000000004,"midi":72,"time":2.21739075,"velocity":0.3937007874015748},{"duration":0.13043475000000004,"midi":72,"time":2.21739075,"velocity":0.3937007874015748},{"duration":0.13043475000000004,"midi":68,"time":2.21739075,"velocity":0.3937007874015748},{"duration":0.13043475000000004,"midi":68,"time":2.21739075,"velocity":0.3937007874015748},{"duration":0.13043475000000004,"midi":65,"time":2.3478255,"velocity":0.3937007874015748},{"duration":0.13043475000000004,"midi":70,"time":2.3478255,"velocity":0.3937007874015748},{"duration":0.13043475000000004,"midi":70,"time":2.3478255,"velocity":0.3937007874015748},{"duration":0.13043475000000004,"midi":65,"time":2.3478255,"velocity":0.3937007874015748},{"duration":0.13043475000000004,"midi":68,"time":2.47826025,"velocity":0.3937007874015748},{"duration":0.13043475000000004,"midi":68,"time":2.47826025,"velocity":0.3937007874015748},{"duration":0.13043475000000004,"midi":63,"time":2.47826025,"velocity":0.3937007874015748},{"duration":0.13043475000000004,"midi":63,"time":2.47826025,"velocity":0.3937007874015748},{"duration":0.1304347499999996,"midi":70,"time":2.608695,"velocity":0.3937007874015748},{"duration":0.1304347499999996,"midi":70,"time":2.608695,"velocity":0.3937007874015748},{"duration":0.1304347499999996,"midi":67,"time":2.608695,"velocity":0.3937007874015748},{"duration":0.1304347499999996,"midi":67,"time":2.608695,"velocity":0.3937007874015748},{"duration":0.13043475000000004,"midi":72,"time":2.7391297499999996,"velocity":0.3937007874015748},{"duration":0.13043475000000004,"midi":68,"time":2.7391297499999996,"velocity":0.3937007874015748},{"duration":0.13043475000000004,"midi":72,"time":2.7391297499999996,"velocity":0.3937007874015748},{"duration":0.13043475000000004,"midi":68,"time":2.7391297499999996,"velocity":0.3937007874015748},{"duration":0.13043475000000004,"midi":63,"time":2.8695644999999996,"velocity":0.3937007874015748},{"duration":0.13043475000000004,"midi":55,"time":2.8695644999999996,"velocity":0.3937007874015748},{"duration":0.13043475000000004,"midi":55,"time":2.8695644999999996,"velocity":0.3937007874015748},{"duration":0.13043475000000004,"midi":63,"time":2.8695644999999996,"velocity":0.3937007874015748},{"duration":0.13043475000000004,"midi":56,"time":2.9999992499999997,"velocity":0.3937007874015748},{"duration":0.13043475000000004,"midi":56,"time":2.9999992499999997,"velocity":0.3937007874015748},{"duration":0.13043475000000004,"midi":65,"time":2.9999992499999997,"velocity":0.3937007874015748},{"duration":0.13043475000000004,"midi":65,"time":2.9999992499999997,"velocity":0.3937007874015748},{"duration":0.13043475000000004,"midi":60,"time":3.1304339999999997,"velocity":0.3937007874015748},{"duration":0.13043475000000004,"midi":68,"time":3.1304339999999997,"velocity":0.3937007874015748},{"duration":0.13043475000000004,"midi":68,"time":3.1304339999999997,"velocity":0.3937007874015748},{"duration":0.13043475000000004,"midi":60,"time":3.1304339999999997,"velocity":0.3937007874015748},{"duration":0.13043475000000004,"midi":56,"time":3.2608687499999998,"velocity":0.3937007874015748},{"duration":0.13043475000000004,"midi":65,"time":3.2608687499999998,"velocity":0.3937007874015748},{"duration":0.13043475000000004,"midi":65,"time":3.2608687499999998,"velocity":0.3937007874015748},{"duration":0.13043475000000004,"midi":56,"time":3.2608687499999998,"velocity":0.3937007874015748},{"duration":0.13043475000000004,"midi":63,"time":3.3913035,"velocity":0.3937007874015748},{"duration":0.13043475000000004,"midi":55,"time":3.3913035,"velocity":0.3937007874015748},{"duration":0.13043475000000004,"midi":63,"time":3.3913035,"velocity":0.3937007874015748},{"duration":0.13043475000000004,"midi":55,"time":3.3913035,"velocity":0.3937007874015748},{"duration":0.26086949999999964,"midi":68,"time":3.52173825,"velocity":0.3937007874015748},{"duration":0.26086949999999964,"midi":68,"time":3.52173825,"velocity":0.3937007874015748},{"duration":0.26086949999999964,"midi":77,"time":3.52173825,"velocity":0.3937007874015748},{"duration":0.26086949999999964,"midi":77,"time":3.52173825,"velocity":0.3937007874015748},{"duration":0.13043475000000004,"midi":75,"time":3.7826077499999995,"velocity":0.3937007874015748},{"duration":0.13043475000000004,"midi":75,"time":3.7826077499999995,"velocity":0.3937007874015748},{"duration":0.06521737500000002,"midi":72,"time":3.9130424999999995,"velocity":0.3937007874015748},{"duration":0.06521737500000002,"midi":72,"time":3.9130424999999995,"velocity":0.3937007874015748},{"duration":0.1304347500000005,"midi":70,"time":3.9782598749999996,"velocity":0.3937007874015748},{"duration":0.1304347500000005,"midi":70,"time":3.9782598749999996,"velocity":0.3937007874015748},{"duration":0.13043475000000004,"midi":68,"time":4.04347725,"velocity":0.3937007874015748},{"duration":0.13043475000000004,"midi":68,"time":4.04347725,"velocity":0.3937007874015748},{"duration":0.5217390000000002,"midi":65,"time":4.173912,"velocity":0.3937007874015748},{"duration":0.5217390000000002,"midi":65,"time":4.173912,"velocity":0.3937007874015748},{"duration":0.13043475000000004,"midi":58,"time":4.4347815,"velocity":0.3937007874015748},{"duration":0.13043475000000004,"midi":58,"time":4.4347815,"velocity":0.3937007874015748},{"duration":0.5217390000000002,"midi":67,"time":4.695651,"velocity":0.3937007874015748},{"duration":0.5217390000000002,"midi":67,"time":4.695651,"velocity":0.3937007874015748},{"duration":0.13043475000000004,"midi":58,"time":4.9565205,"velocity":0.3937007874015748},{"duration":0.13043475000000004,"midi":58,"time":4.9565205,"velocity":0.3937007874015748},{"duration":0.5217389999999993,"midi":68,"time":5.21739,"velocity":0.3937007874015748},{"duration":0.5217389999999993,"midi":68,"time":5.21739,"velocity":0.3937007874015748},{"duration":0.13043475000000004,"midi":58,"time":5.478259499999999,"velocity":0.3937007874015748},{"duration":0.13043475000000004,"midi":58,"time":5.478259499999999,"velocity":0.3937007874015748},{"duration":0.5217390000000002,"midi":70,"time":5.739128999999999,"velocity":0.3937007874015748},{"duration":0.5217390000000002,"midi":70,"time":5.739128999999999,"velocity":0.3937007874015748},{"duration":0.13043475000000004,"midi":56,"time":5.999998499999999,"velocity":0.3937007874015748},{"duration":0.13043475000000004,"midi":56,"time":5.999998499999999,"velocity":0.3937007874015748},{"duration":0.2608695000000001,"midi":68,"time":6.260867999999999,"velocity":0.3937007874015748},{"duration":0.2608695000000001,"midi":72,"time":6.260867999999999,"velocity":0.3937007874015748},{"duration":0.2608695000000001,"midi":68,"time":6.260867999999999,"velocity":0.3937007874015748},{"duration":0.2608695000000001,"midi":72,"time":6.260867999999999,"velocity":0.3937007874015748},{"duration":0.2608695000000001,"midi":70,"time":6.5217374999999995,"velocity":0.3937007874015748},{"duration":0.2608695000000001,"midi":61,"time":6.5217374999999995,"velocity":0.3937007874015748},{"duration":0.2608695000000001,"midi":61,"time":6.5217374999999995,"velocity":0.3937007874015748},{"duration":0.2608695000000001,"midi":70,"time":6.5217374999999995,"velocity":0.3937007874015748},{"duration":0.2608695000000001,"midi":72,"time":6.782607,"velocity":0.3937007874015748},{"duration":0.2608695000000001,"midi":77,"time":6.782607,"velocity":0.3937007874015748},{"duration":0.2608695000000001,"midi":72,"time":6.782607,"velocity":0.3937007874015748},{"duration":0.2608695000000001,"midi":77,"time":6.782607,"velocity":0.3937007874015748},{"duration":0.2608694999999992,"midi":72,"time":7.0434765,"velocity":0.3937007874015748},{"duration":0.2608694999999992,"midi":65,"time":7.0434765,"velocity":0.3937007874015748},{"duration":0.2608694999999992,"midi":72,"time":7.0434765,"velocity":0.3937007874015748},{"duration":0.2608694999999992,"midi":65,"time":7.0434765,"velocity":0.3937007874015748},{"duration":0.2608695000000001,"midi":76,"time":7.304345999999999,"velocity":0.3937007874015748},{"duration":0.2608695000000001,"midi":76,"time":7.304345999999999,"velocity":0.3937007874015748},{"duration":0.2608695000000001,"midi":70,"time":7.304345999999999,"velocity":0.3937007874015748},{"duration":0.2608695000000001,"midi":70,"time":7.304345999999999,"velocity":0.3937007874015748},{"duration":0.2608695000000001,"midi":72,"time":7.565215499999999,"velocity":0.3937007874015748},{"duration":0.2608695000000001,"midi":68,"time":7.565215499999999,"velocity":0.3937007874015748},{"duration":0.2608695000000001,"midi":72,"time":7.565215499999999,"velocity":0.3937007874015748},{"duration":0.2608695000000001,"midi":68,"time":7.565215499999999,"velocity":0.3937007874015748},{"duration":0.5217390000000002,"midi":67,"time":7.826084999999999,"velocity":0.3937007874015748},{"duration":0.5217390000000002,"midi":70,"time":7.826084999999999,"velocity":0.3937007874015748},{"duration":0.5217390000000002,"midi":70,"time":7.826084999999999,"velocity":0.3937007874015748},{"duration":0.5217390000000002,"midi":67,"time":7.826084999999999,"velocity":0.3937007874015748},{"duration":0.13043474999999916,"midi":77,"time":8.347824,"velocity":0.3937007874015748},{"duration":0.13043474999999916,"midi":77,"time":8.347824,"velocity":0.3937007874015748},{"duration":0.13043475000000093,"midi":84,"time":8.478258749999998,"velocity":0.3937007874015748},{"duration":0.13043475000000093,"midi":84,"time":8.478258749999998,"velocity":0.3937007874015748},{"duration":0.13043474999999916,"midi":82,"time":8.6086935,"velocity":0.3937007874015748},{"duration":0.13043474999999916,"midi":82,"time":8.6086935,"velocity":0.3937007874015748},{"duration":0.13043475000000093,"midi":84,"time":8.739128249999998,"velocity":0.3937007874015748},{"duration":0.13043475000000093,"midi":84,"time":8.739128249999998,"velocity":0.3937007874015748},{"duration":0.13043474999999916,"midi":77,"time":8.869563,"velocity":0.3937007874015748},{"duration":0.13043474999999916,"midi":77,"time":8.869563,"velocity":0.3937007874015748},{"duration":0.13043475000000093,"midi":84,"time":8.999997749999999,"velocity":0.3937007874015748},{"duration":0.13043475000000093,"midi":84,"time":8.999997749999999,"velocity":0.3937007874015748},{"duration":0.13043474999999916,"midi":82,"time":9.1304325,"velocity":0.3937007874015748},{"duration":0.13043474999999916,"midi":82,"time":9.1304325,"velocity":0.3937007874015748},{"duration":0.13043475000000093,"midi":84,"time":9.260867249999999,"velocity":0.3937007874015748},{"duration":0.13043475000000093,"midi":84,"time":9.260867249999999,"velocity":0.3937007874015748},{"duration":0.13043474999999916,"midi":73,"time":9.391302,"velocity":0.3937007874015748},{"duration":0.13043474999999916,"midi":73,"time":9.391302,"velocity":0.3937007874015748},{"duration":0.13043475000000093,"midi":82,"time":9.521736749999999,"velocity":0.3937007874015748},{"duration":0.13043475000000093,"midi":82,"time":9.521736749999999,"velocity":0.3937007874015748},{"duration":0.13043474999999916,"midi":84,"time":9.6521715,"velocity":0.3937007874015748},{"duration":0.13043474999999916,"midi":84,"time":9.6521715,"velocity":0.3937007874015748},{"duration":0.13043475000000093,"midi":82,"time":9.782606249999999,"velocity":0.3937007874015748},{"duration":0.13043475000000093,"midi":82,"time":9.782606249999999,"velocity":0.3937007874015748},{"duration":0.13043474999999916,"midi":72,"time":9.913041,"velocity":0.3937007874015748},{"duration":0.13043474999999916,"midi":72,"time":9.913041,"velocity":0.3937007874015748},{"duration":0.13043475000000093,"midi":84,"time":10.043475749999999,"velocity":0.3937007874015748},{"duration":0.13043475000000093,"midi":84,"time":10.043475749999999,"velocity":0.3937007874015748},{"duration":0.13043474999999916,"midi":79,"time":10.1739105,"velocity":0.3937007874015748},{"duration":0.13043474999999916,"midi":79,"time":10.1739105,"velocity":0.3937007874015748},{"duration":0.13043475000000093,"midi":82,"time":10.304345249999999,"velocity":0.3937007874015748},{"duration":0.13043475000000093,"midi":82,"time":10.304345249999999,"velocity":0.3937007874015748},{"duration":0.13043474999999916,"midi":77,"time":10.43478,"velocity":0.3937007874015748},{"duration":0.13043474999999916,"midi":77,"time":10.43478,"velocity":0.3937007874015748},{"duration":0.13043474999999916,"midi":84,"time":10.565214749999999,"velocity":0.3937007874015748},{"duration":0.13043474999999916,"midi":84,"time":10.565214749999999,"velocity":0.3937007874015748},{"duration":0.13043475000000093,"midi":82,"time":10.695649499999998,"velocity":0.3937007874015748},{"duration":0.13043475000000093,"midi":82,"time":10.695649499999998,"velocity":0.3937007874015748},{"duration":0.13043474999999916,"midi":84,"time":10.82608425,"velocity":0.3937007874015748},{"duration":0.13043474999999916,"midi":84,"time":10.82608425,"velocity":0.3937007874015748},{"duration":0.13043475000000093,"midi":79,"time":10.956518999999998,"velocity":0.3937007874015748},{"duration":0.13043475000000093,"midi":79,"time":10.956518999999998,"velocity":0.3937007874015748},{"duration":0.13043474999999916,"midi":84,"time":11.08695375,"velocity":0.3937007874015748},{"duration":0.13043474999999916,"midi":84,"time":11.08695375,"velocity":0.3937007874015748},{"duration":0.13043475000000093,"midi":82,"time":11.217388499999998,"velocity":0.3937007874015748},{"duration":0.13043475000000093,"midi":82,"time":11.217388499999998,"velocity":0.3937007874015748},{"duration":0.13043474999999916,"midi":84,"time":11.34782325,"velocity":0.3937007874015748},{"duration":0.13043474999999916,"midi":84,"time":11.34782325,"velocity":0.3937007874015748},{"duration":0.13043475000000093,"midi":80,"time":11.478257999999999,"velocity":0.3937007874015748},{"duration":0.13043475000000093,"midi":80,"time":11.478257999999999,"velocity":0.3937007874015748},{"duration":0.13043474999999916,"midi":84,"time":11.60869275,"velocity":0.3937007874015748},{"duration":0.13043474999999916,"midi":84,"time":11.60869275,"velocity":0.3937007874015748},{"duration":0.13043475000000093,"midi":82,"time":11.739127499999999,"velocity":0.3937007874015748},{"duration":0.13043475000000093,"midi":82,"time":11.739127499999999,"velocity":0.3937007874015748},{"duration":0.13043474999999916,"midi":84,"time":11.86956225,"velocity":0.3937007874015748},{"duration":0.13043474999999916,"midi":84,"time":11.86956225,"velocity":0.3937007874015748},{"duration":0.13043475000000093,"midi":82,"time":11.999996999999999,"velocity":0.3937007874015748},{"duration":0.13043475000000093,"midi":82,"time":11.999996999999999,"velocity":0.3937007874015748},{"duration":0.13043474999999916,"midi":85,"time":12.13043175,"velocity":0.3937007874015748},{"duration":0.13043474999999916,"midi":85,"time":12.13043175,"velocity":0.3937007874015748},{"duration":0.13043475000000093,"midi":84,"time":12.260866499999999,"velocity":0.3937007874015748},{"duration":0.13043475000000093,"midi":84,"time":12.260866499999999,"velocity":0.3937007874015748},{"duration":0.13043474999999916,"midi":82,"time":12.39130125,"velocity":0.3937007874015748},{"duration":0.13043474999999916,"midi":82,"time":12.39130125,"velocity":0.3937007874015748},{"duration":0.13043474999999916,"midi":73,"time":12.521735999999999,"velocity":0.3937007874015748},{"duration":0.13043474999999916,"midi":73,"time":12.521735999999999,"velocity":0.3937007874015748},{"duration":0.13043475000000093,"midi":80,"time":12.652170749999998,"velocity":0.3937007874015748},{"duration":0.13043475000000093,"midi":80,"time":12.652170749999998,"velocity":0.3937007874015748},{"duration":0.13043474999999916,"midi":79,"time":12.782605499999999,"velocity":0.3937007874015748},{"duration":0.13043474999999916,"midi":79,"time":12.782605499999999,"velocity":0.3937007874015748},{"duration":0.13043475000000093,"midi":80,"time":12.913040249999998,"velocity":0.3937007874015748},{"duration":0.13043475000000093,"midi":80,"time":12.913040249999998,"velocity":0.3937007874015748},{"duration":0.13043474999999916,"midi":73,"time":13.043474999999999,"velocity":0.3937007874015748},{"duration":0.13043474999999916,"midi":73,"time":13.043474999999999,"velocity":0.3937007874015748},{"duration":0.13043475000000093,"midi":82,"time":13.173909749999998,"velocity":0.3937007874015748},{"duration":0.13043475000000093,"midi":82,"time":13.173909749999998,"velocity":0.3937007874015748},{"duration":0.13043474999999916,"midi":80,"time":13.3043445,"velocity":0.3937007874015748},{"duration":0.13043474999999916,"midi":80,"time":13.3043445,"velocity":0.3937007874015748},{"duration":0.13043475000000093,"midi":82,"time":13.434779249999998,"velocity":0.3937007874015748},{"duration":0.13043475000000093,"midi":82,"time":13.434779249999998,"velocity":0.3937007874015748},{"duration":0.13043474999999916,"midi":73,"time":13.565214,"velocity":0.3937007874015748},{"duration":0.13043474999999916,"midi":73,"time":13.565214,"velocity":0.3937007874015748},{"duration":0.13043475000000093,"midi":84,"time":13.695648749999998,"velocity":0.3937007874015748},{"duration":0.13043475000000093,"midi":84,"time":13.695648749999998,"velocity":0.3937007874015748},{"duration":0.13043474999999916,"midi":82,"time":13.8260835,"velocity":0.3937007874015748},{"duration":0.13043474999999916,"midi":82,"time":13.8260835,"velocity":0.3937007874015748},{"duration":0.13043475000000093,"midi":84,"time":13.956518249999998,"velocity":0.3937007874015748},{"duration":0.13043475000000093,"midi":84,"time":13.956518249999998,"velocity":0.3937007874015748},{"duration":0.13043474999999916,"midi":73,"time":14.086953,"velocity":0.3937007874015748},{"duration":0.13043474999999916,"midi":73,"time":14.086953,"velocity":0.3937007874015748},{"duration":0.13043475000000093,"midi":85,"time":14.217387749999999,"velocity":0.3937007874015748},{"duration":0.13043475000000093,"midi":85,"time":14.217387749999999,"velocity":0.3937007874015748},{"duration":0.13043474999999916,"midi":84,"time":14.3478225,"velocity":0.3937007874015748},{"duration":0.13043474999999916,"midi":84,"time":14.3478225,"velocity":0.3937007874015748},{"duration":0.13043474999999916,"midi":87,"time":14.478257249999999,"velocity":0.3937007874015748},{"duration":0.13043474999999916,"midi":87,"time":14.478257249999999,"velocity":0.3937007874015748},{"duration":0.2608695000000001,"midi":68,"time":14.608691999999998,"velocity":0.3937007874015748},{"duration":0.2608695000000001,"midi":72,"time":14.608691999999998,"velocity":0.3937007874015748},{"duration":0.2608695000000001,"midi":68,"time":14.608691999999998,"velocity":0.3937007874015748},{"duration":0.2608695000000001,"midi":72,"time":14.608691999999998,"velocity":0.3937007874015748},{"duration":0.13043475000000093,"midi":63,"time":14.869561499999998,"velocity":0.3937007874015748},{"duration":0.13043475000000093,"midi":63,"time":14.869561499999998,"velocity":0.3937007874015748},{"duration":0.13043475000000093,"midi":70,"time":14.869561499999998,"velocity":0.3937007874015748},{"duration":0.13043475000000093,"midi":70,"time":14.869561499999998,"velocity":0.3937007874015748},{"duration":0.13043474999999916,"midi":61,"time":14.999996249999999,"velocity":0.3937007874015748},{"duration":0.13043474999999916,"midi":68,"time":14.999996249999999,"velocity":0.3937007874015748},{"duration":0.13043474999999916,"midi":61,"time":14.999996249999999,"velocity":0.3937007874015748},{"duration":0.13043474999999916,"midi":68,"time":14.999996249999999,"velocity":0.3937007874015748},{"duration":0.2608695000000001,"midi":72,"time":15.130430999999998,"velocity":0.3937007874015748},{"duration":0.2608695000000001,"midi":77,"time":15.130430999999998,"velocity":0.3937007874015748},{"duration":0.2608695000000001,"midi":77,"time":15.130430999999998,"velocity":0.3937007874015748},{"duration":0.2608695000000001,"midi":72,"time":15.130430999999998,"velocity":0.3937007874015748},{"duration":0.2608695000000001,"midi":72,"time":15.391300499999998,"velocity":0.3937007874015748},{"duration":0.2608695000000001,"midi":72,"time":15.391300499999998,"velocity":0.3937007874015748},{"duration":0.2608695000000001,"midi":65,"time":15.391300499999998,"velocity":0.3937007874015748},{"duration":0.2608695000000001,"midi":65,"time":15.391300499999998,"velocity":0.3937007874015748},{"duration":0.2608695000000001,"midi":76,"time":15.652169999999998,"velocity":0.3937007874015748},{"duration":0.2608695000000001,"midi":76,"time":15.652169999999998,"velocity":0.3937007874015748},{"duration":0.2608695000000001,"midi":70,"time":15.652169999999998,"velocity":0.3937007874015748},{"duration":0.2608695000000001,"midi":70,"time":15.652169999999998,"velocity":0.3937007874015748},{"duration":0.2608695000000001,"midi":73,"time":15.913039499999998,"velocity":0.3937007874015748},{"duration":0.2608695000000001,"midi":73,"time":15.913039499999998,"velocity":0.3937007874015748},{"duration":0.2608695000000001,"midi":68,"time":15.913039499999998,"velocity":0.3937007874015748},{"duration":0.2608695000000001,"midi":68,"time":15.913039499999998,"velocity":0.3937007874015748},{"duration":0.5217390000000002,"midi":67,"time":16.173909,"velocity":0.3937007874015748},{"duration":0.5217390000000002,"midi":72,"time":16.173909,"velocity":0.3937007874015748},{"duration":0.5217390000000002,"midi":72,"time":16.173909,"velocity":0.3937007874015748},{"duration":0.5217390000000002,"midi":67,"time":16.173909,"velocity":0.3937007874015748},{"duration":0.2608694999999983,"midi":72,"time":16.695648,"velocity":0.3937007874015748},{"duration":0.2608694999999983,"midi":77,"time":16.695648,"velocity":0.3937007874015748},{"duration":0.2608694999999983,"midi":72,"time":16.695648,"velocity":0.3937007874015748},{"duration":0.2608694999999983,"midi":77,"time":16.695648,"velocity":0.3937007874015748},{"duration":0.26086950000000186,"midi":68,"time":16.956517499999997,"velocity":0.3937007874015748},{"duration":0.26086950000000186,"midi":72,"time":16.956517499999997,"velocity":0.3937007874015748},{"duration":0.26086950000000186,"midi":72,"time":16.956517499999997,"velocity":0.3937007874015748},{"duration":0.26086950000000186,"midi":68,"time":16.956517499999997,"velocity":0.3937007874015748},{"duration":0.2608694999999983,"midi":68,"time":17.217387,"velocity":0.3937007874015748},{"duration":0.2608694999999983,"midi":65,"time":17.217387,"velocity":0.3937007874015748},{"duration":0.2608694999999983,"midi":68,"time":17.217387,"velocity":0.3937007874015748},{"duration":0.2608694999999983,"midi":65,"time":17.217387,"velocity":0.3937007874015748},{"duration":0.26086950000000186,"midi":65,"time":17.478256499999997,"velocity":0.3937007874015748},{"duration":0.26086950000000186,"midi":60,"time":17.478256499999997,"velocity":0.3937007874015748},{"duration":0.26086950000000186,"midi":60,"time":17.478256499999997,"velocity":0.3937007874015748},{"duration":0.26086950000000186,"midi":65,"time":17.478256499999997,"velocity":0.3937007874015748},{"duration":0.13043474999999916,"midi":68,"time":17.869560749999998,"velocity":0.3937007874015748},{"duration":0.13043474999999916,"midi":68,"time":17.869560749999998,"velocity":0.3937007874015748},{"duration":0.13043474999999916,"midi":72,"time":17.869560749999998,"velocity":0.3937007874015748},{"duration":0.13043474999999916,"midi":72,"time":17.869560749999998,"velocity":0.3937007874015748},{"duration":0.26086950000000186,"midi":70,"time":17.999995499999997,"velocity":0.3937007874015748},{"duration":0.26086950000000186,"midi":65,"time":17.999995499999997,"velocity":0.3937007874015748},{"duration":0.26086950000000186,"midi":65,"time":17.999995499999997,"velocity":0.3937007874015748},{"duration":0.26086950000000186,"midi":70,"time":17.999995499999997,"velocity":0.3937007874015748},{"duration":0.13043474999999916,"midi":70,"time":18.260865,"velocity":0.3937007874015748},{"duration":0.13043474999999916,"midi":70,"time":18.260865,"velocity":0.3937007874015748},{"duration":0.13043474999999916,"midi":67,"time":18.260865,"velocity":0.3937007874015748},{"duration":0.13043474999999916,"midi":67,"time":18.260865,"velocity":0.3937007874015748},{"duration":0.13043474999999916,"midi":68,"time":18.391299749999998,"velocity":0.3937007874015748},{"duration":0.13043474999999916,"midi":63,"time":18.391299749999998,"velocity":0.3937007874015748},{"duration":0.13043474999999916,"midi":68,"time":18.391299749999998,"velocity":0.3937007874015748},{"duration":0.13043474999999916,"midi":63,"time":18.391299749999998,"velocity":0.3937007874015748},{"duration":0.1304347500000027,"midi":63,"time":18.521734499999997,"velocity":0.3937007874015748},{"duration":0.1304347500000027,"midi":58,"time":18.521734499999997,"velocity":0.3937007874015748},{"duration":0.1304347500000027,"midi":58,"time":18.521734499999997,"velocity":0.3937007874015748},{"duration":0.1304347500000027,"midi":63,"time":18.521734499999997,"velocity":0.3937007874015748},{"duration":0.13043474999999916,"midi":61,"time":18.65216925,"velocity":0.3937007874015748},{"duration":0.13043474999999916,"midi":65,"time":18.65216925,"velocity":0.3937007874015748},{"duration":0.13043474999999916,"midi":65,"time":18.65216925,"velocity":0.3937007874015748},{"duration":0.13043474999999916,"midi":61,"time":18.65216925,"velocity":0.3937007874015748},{"duration":0.13043474999999916,"midi":68,"time":18.91303875,"velocity":0.3937007874015748},{"duration":0.13043474999999916,"midi":72,"time":18.91303875,"velocity":0.3937007874015748},{"duration":0.13043474999999916,"midi":68,"time":18.91303875,"velocity":0.3937007874015748},{"duration":0.13043474999999916,"midi":72,"time":18.91303875,"velocity":0.3937007874015748},{"duration":0.13043474999999916,"midi":65,"time":19.043473499999998,"velocity":0.3937007874015748},{"duration":0.13043474999999916,"midi":70,"time":19.043473499999998,"velocity":0.3937007874015748},{"duration":0.13043474999999916,"midi":65,"time":19.043473499999998,"velocity":0.3937007874015748},{"duration":0.13043474999999916,"midi":70,"time":19.043473499999998,"velocity":0.3937007874015748},{"duration":0.1304347500000027,"midi":68,"time":19.173908249999997,"velocity":0.3937007874015748},{"duration":0.1304347500000027,"midi":63,"time":19.173908249999997,"velocity":0.3937007874015748},{"duration":0.1304347500000027,"midi":68,"time":19.173908249999997,"velocity":0.3937007874015748},{"duration":0.1304347500000027,"midi":63,"time":19.173908249999997,"velocity":0.3937007874015748},{"duration":0.13043474999999916,"midi":67,"time":19.304343,"velocity":0.3937007874015748},{"duration":0.13043474999999916,"midi":70,"time":19.304343,"velocity":0.3937007874015748},{"duration":0.13043474999999916,"midi":67,"time":19.304343,"velocity":0.3937007874015748},{"duration":0.13043474999999916,"midi":70,"time":19.304343,"velocity":0.3937007874015748},{"duration":0.13043474999999916,"midi":72,"time":19.43477775,"velocity":0.3937007874015748},{"duration":0.13043474999999916,"midi":68,"time":19.43477775,"velocity":0.3937007874015748},{"duration":0.13043474999999916,"midi":72,"time":19.43477775,"velocity":0.3937007874015748},{"duration":0.13043474999999916,"midi":68,"time":19.43477775,"velocity":0.3937007874015748},{"duration":0.13043474999999916,"midi":63,"time":19.565212499999998,"velocity":0.3937007874015748},{"duration":0.13043474999999916,"midi":55,"time":19.565212499999998,"velocity":0.3937007874015748},{"duration":0.13043474999999916,"midi":55,"time":19.565212499999998,"velocity":0.3937007874015748},{"duration":0.13043474999999916,"midi":63,"time":19.565212499999998,"velocity":0.3937007874015748},{"duration":0.1304347500000027,"midi":65,"time":19.695647249999997,"velocity":0.3937007874015748},{"duration":0.1304347500000027,"midi":56,"time":19.695647249999997,"velocity":0.3937007874015748},{"duration":0.1304347500000027,"midi":56,"time":19.695647249999997,"velocity":0.3937007874015748},{"duration":0.1304347500000027,"midi":65,"time":19.695647249999997,"velocity":0.3937007874015748},{"duration":0.13043474999999916,"midi":60,"time":19.826082,"velocity":0.3937007874015748},{"duration":0.13043474999999916,"midi":68,"time":19.826082,"velocity":0.3937007874015748},{"duration":0.13043474999999916,"midi":68,"time":19.826082,"velocity":0.3937007874015748},{"duration":0.13043474999999916,"midi":60,"time":19.826082,"velocity":0.3937007874015748},{"duration":0.13043474999999916,"midi":56,"time":19.95651675,"velocity":0.3937007874015748},{"duration":0.13043474999999916,"midi":56,"time":19.95651675,"velocity":0.3937007874015748},{"duration":0.13043474999999916,"midi":65,"time":19.95651675,"velocity":0.3937007874015748},{"duration":0.13043474999999916,"midi":65,"time":19.95651675,"velocity":0.3937007874015748},{"duration":0.13043474999999916,"midi":55,"time":20.086951499999998,"velocity":0.3937007874015748},{"duration":0.13043474999999916,"midi":63,"time":20.086951499999998,"velocity":0.3937007874015748},{"duration":0.13043474999999916,"midi":55,"time":20.086951499999998,"velocity":0.3937007874015748},{"duration":0.13043474999999916,"midi":63,"time":20.086951499999998,"velocity":0.3937007874015748},{"duration":0.26086950000000186,"midi":68,"time":20.217386249999997,"velocity":0.3937007874015748},{"duration":0.26086950000000186,"midi":68,"time":20.217386249999997,"velocity":0.3937007874015748},{"duration":0.26086950000000186,"midi":77,"time":20.217386249999997,"velocity":0.3937007874015748},{"duration":0.26086950000000186,"midi":77,"time":20.217386249999997,"velocity":0.3937007874015748},{"duration":0.13043474999999916,"midi":75,"time":20.47825575,"velocity":0.3937007874015748},{"duration":0.13043474999999916,"midi":75,"time":20.47825575,"velocity":0.3937007874015748},{"duration":0.06521737499999958,"midi":72,"time":20.608690499999998,"velocity":0.3937007874015748},{"duration":0.06521737499999958,"midi":72,"time":20.608690499999998,"velocity":0.3937007874015748},{"duration":0.13043474999999916,"midi":70,"time":20.673907874999998,"velocity":0.3937007874015748},{"duration":0.13043474999999916,"midi":70,"time":20.673907874999998,"velocity":0.3937007874015748},{"duration":0.1304347500000027,"midi":68,"time":20.739125249999997,"velocity":0.3937007874015748},{"duration":0.1304347500000027,"midi":68,"time":20.739125249999997,"velocity":0.3937007874015748},{"duration":0.5217389999999966,"midi":65,"time":20.86956,"velocity":0.3937007874015748},{"duration":0.5217389999999966,"midi":65,"time":20.86956,"velocity":0.3937007874015748},{"duration":0.13043474999999916,"midi":58,"time":21.130429499999998,"velocity":0.3937007874015748},{"duration":0.13043474999999916,"midi":58,"time":21.130429499999998,"velocity":0.3937007874015748},{"duration":0.5217390000000002,"midi":67,"time":21.391298999999997,"velocity":0.3937007874015748},{"duration":0.5217390000000002,"midi":67,"time":21.391298999999997,"velocity":0.3937007874015748},{"duration":0.13043474999999916,"midi":58,"time":21.6521685,"velocity":0.3937007874015748},{"duration":0.13043474999999916,"midi":58,"time":21.6521685,"velocity":0.3937007874015748},{"duration":0.5217390000000002,"midi":68,"time":21.913037999999997,"velocity":0.3937007874015748},{"duration":0.5217390000000002,"midi":68,"time":21.913037999999997,"velocity":0.3937007874015748},{"duration":0.13043474999999916,"midi":58,"time":22.1739075,"velocity":0.3937007874015748},{"duration":0.13043474999999916,"midi":58,"time":22.1739075,"velocity":0.3937007874015748},{"duration":0.5217390000000002,"midi":70,"time":22.434776999999997,"velocity":0.3937007874015748},{"duration":0.5217390000000002,"midi":70,"time":22.434776999999997,"velocity":0.3937007874015748},{"duration":0.13043474999999916,"midi":56,"time":22.6956465,"velocity":0.3937007874015748},{"duration":0.13043474999999916,"midi":56,"time":22.6956465,"velocity":0.3937007874015748},{"duration":0.26086950000000186,"midi":68,"time":22.956515999999997,"velocity":0.3937007874015748},{"duration":0.26086950000000186,"midi":68,"time":22.956515999999997,"velocity":0.3937007874015748},{"duration":0.26086950000000186,"midi":72,"time":22.956515999999997,"velocity":0.3937007874015748},{"duration":0.26086950000000186,"midi":72,"time":22.956515999999997,"velocity":0.3937007874015748},{"duration":0.2608694999999983,"midi":61,"time":23.2173855,"velocity":0.3937007874015748},{"duration":0.2608694999999983,"midi":70,"time":23.2173855,"velocity":0.3937007874015748},{"duration":0.2608694999999983,"midi":61,"time":23.2173855,"velocity":0.3937007874015748},{"duration":0.2608694999999983,"midi":70,"time":23.2173855,"velocity":0.3937007874015748},{"duration":0.26086950000000186,"midi":72,"time":23.478254999999997,"velocity":0.3937007874015748},{"duration":0.26086950000000186,"midi":77,"time":23.478254999999997,"velocity":0.3937007874015748},{"duration":0.26086950000000186,"midi":77,"time":23.478254999999997,"velocity":0.3937007874015748},{"duration":0.26086950000000186,"midi":72,"time":23.478254999999997,"velocity":0.3937007874015748},{"duration":0.2608694999999983,"midi":65,"time":23.7391245,"velocity":0.3937007874015748},{"duration":0.2608694999999983,"midi":72,"time":23.7391245,"velocity":0.3937007874015748},{"duration":0.2608694999999983,"midi":65,"time":23.7391245,"velocity":0.3937007874015748},{"duration":0.2608694999999983,"midi":72,"time":23.7391245,"velocity":0.3937007874015748},{"duration":0.26086950000000186,"midi":70,"time":23.999993999999997,"velocity":0.3937007874015748},{"duration":0.26086950000000186,"midi":76,"time":23.999993999999997,"velocity":0.3937007874015748},{"duration":0.26086950000000186,"midi":70,"time":23.999993999999997,"velocity":0.3937007874015748},{"duration":0.26086950000000186,"midi":76,"time":23.999993999999997,"velocity":0.3937007874015748},{"duration":0.2608694999999983,"midi":68,"time":24.2608635,"velocity":0.3937007874015748},{"duration":0.2608694999999983,"midi":72,"time":24.2608635,"velocity":0.3937007874015748},{"duration":0.2608694999999983,"midi":68,"time":24.2608635,"velocity":0.3937007874015748},{"duration":0.2608694999999983,"midi":72,"time":24.2608635,"velocity":0.3937007874015748},{"duration":0.5217390000000002,"midi":67,"time":24.521732999999998,"velocity":0.3937007874015748},{"duration":0.5217390000000002,"midi":67,"time":24.521732999999998,"velocity":0.3937007874015748},{"duration":0.5217390000000002,"midi":70,"time":24.521732999999998,"velocity":0.3937007874015748},{"duration":0.5217390000000002,"midi":70,"time":24.521732999999998,"velocity":0.3937007874015748},{"duration":0.13043474999999916,"midi":77,"time":25.043471999999998,"velocity":0.3937007874015748},{"duration":0.13043474999999916,"midi":77,"time":25.043471999999998,"velocity":0.3937007874015748},{"duration":0.13043474999999916,"midi":84,"time":25.173906749999997,"velocity":0.3937007874015748},{"duration":0.13043474999999916,"midi":84,"time":25.173906749999997,"velocity":0.3937007874015748},{"duration":0.1304347500000027,"midi":82,"time":25.304341499999996,"velocity":0.3937007874015748},{"duration":0.1304347500000027,"midi":82,"time":25.304341499999996,"velocity":0.3937007874015748},{"duration":0.13043474999999916,"midi":84,"time":25.43477625,"velocity":0.3937007874015748},{"duration":0.13043474999999916,"midi":84,"time":25.43477625,"velocity":0.3937007874015748},{"duration":0.13043474999999916,"midi":77,"time":25.565210999999998,"velocity":0.3937007874015748},{"duration":0.13043474999999916,"midi":77,"time":25.565210999999998,"velocity":0.3937007874015748},{"duration":0.13043474999999916,"midi":84,"time":25.695645749999997,"velocity":0.3937007874015748},{"duration":0.13043474999999916,"midi":84,"time":25.695645749999997,"velocity":0.3937007874015748},{"duration":0.1304347500000027,"midi":82,"time":25.826080499999996,"velocity":0.3937007874015748},{"duration":0.1304347500000027,"midi":82,"time":25.826080499999996,"velocity":0.3937007874015748},{"duration":0.13043474999999916,"midi":84,"time":25.95651525,"velocity":0.3937007874015748},{"duration":0.13043474999999916,"midi":84,"time":25.95651525,"velocity":0.3937007874015748},{"duration":0.13043474999999916,"midi":73,"time":26.086949999999998,"velocity":0.3937007874015748},{"duration":0.13043474999999916,"midi":73,"time":26.086949999999998,"velocity":0.3937007874015748},{"duration":0.13043474999999916,"midi":82,"time":26.217384749999997,"velocity":0.3937007874015748},{"duration":0.13043474999999916,"midi":82,"time":26.217384749999997,"velocity":0.3937007874015748},{"duration":0.1304347500000027,"midi":84,"time":26.347819499999996,"velocity":0.3937007874015748},{"duration":0.1304347500000027,"midi":84,"time":26.347819499999996,"velocity":0.3937007874015748},{"duration":0.13043474999999916,"midi":82,"time":26.47825425,"velocity":0.3937007874015748},{"duration":0.13043474999999916,"midi":82,"time":26.47825425,"velocity":0.3937007874015748},{"duration":0.13043474999999916,"midi":72,"time":26.608689,"velocity":0.3937007874015748},{"duration":0.13043474999999916,"midi":72,"time":26.608689,"velocity":0.3937007874015748},{"duration":0.13043474999999916,"midi":84,"time":26.739123749999997,"velocity":0.3937007874015748},{"duration":0.13043474999999916,"midi":84,"time":26.739123749999997,"velocity":0.3937007874015748},{"duration":0.1304347500000027,"midi":79,"time":26.869558499999997,"velocity":0.3937007874015748},{"duration":0.1304347500000027,"midi":79,"time":26.869558499999997,"velocity":0.3937007874015748},{"duration":0.13043474999999916,"midi":82,"time":26.99999325,"velocity":0.3937007874015748},{"duration":0.13043474999999916,"midi":82,"time":26.99999325,"velocity":0.3937007874015748},{"duration":0.13043474999999916,"midi":77,"time":27.130428,"velocity":0.3937007874015748},{"duration":0.13043474999999916,"midi":77,"time":27.130428,"velocity":0.3937007874015748},{"duration":0.13043474999999916,"midi":84,"time":27.260862749999998,"velocity":0.3937007874015748},{"duration":0.13043474999999916,"midi":84,"time":27.260862749999998,"velocity":0.3937007874015748},{"duration":0.13043474999999916,"midi":82,"time":27.391297499999997,"velocity":0.3937007874015748},{"duration":0.13043474999999916,"midi":82,"time":27.391297499999997,"velocity":0.3937007874015748},{"duration":0.1304347500000027,"midi":84,"time":27.521732249999996,"velocity":0.3937007874015748},{"duration":0.1304347500000027,"midi":84,"time":27.521732249999996,"velocity":0.3937007874015748},{"duration":0.13043474999999916,"midi":79,"time":27.652167,"velocity":0.3937007874015748},{"duration":0.13043474999999916,"midi":79,"time":27.652167,"velocity":0.3937007874015748},{"duration":0.13043474999999916,"midi":84,"time":27.782601749999998,"velocity":0.3937007874015748},{"duration":0.13043474999999916,"midi":84,"time":27.782601749999998,"velocity":0.3937007874015748},{"duration":0.13043474999999916,"midi":82,"time":27.913036499999997,"velocity":0.3937007874015748},{"duration":0.13043474999999916,"midi":82,"time":27.913036499999997,"velocity":0.3937007874015748},{"duration":0.1304347500000027,"midi":84,"time":28.043471249999996,"velocity":0.3937007874015748},{"duration":0.1304347500000027,"midi":84,"time":28.043471249999996,"velocity":0.3937007874015748},{"duration":0.13043474999999916,"midi":80,"time":28.173906,"velocity":0.3937007874015748},{"duration":0.13043474999999916,"midi":80,"time":28.173906,"velocity":0.3937007874015748},{"duration":0.13043474999999916,"midi":84,"time":28.304340749999998,"velocity":0.3937007874015748},{"duration":0.13043474999999916,"midi":84,"time":28.304340749999998,"velocity":0.3937007874015748},{"duration":0.13043474999999916,"midi":82,"time":28.434775499999997,"velocity":0.3937007874015748},{"duration":0.13043474999999916,"midi":82,"time":28.434775499999997,"velocity":0.3937007874015748},{"duration":0.1304347500000027,"midi":84,"time":28.565210249999996,"velocity":0.3937007874015748},{"duration":0.1304347500000027,"midi":84,"time":28.565210249999996,"velocity":0.3937007874015748},{"duration":0.13043474999999916,"midi":82,"time":28.695645,"velocity":0.3937007874015748},{"duration":0.13043474999999916,"midi":82,"time":28.695645,"velocity":0.3937007874015748},{"duration":0.13043474999999916,"midi":85,"time":28.826079749999998,"velocity":0.3937007874015748},{"duration":0.13043474999999916,"midi":85,"time":28.826079749999998,"velocity":0.3937007874015748},{"duration":0.13043474999999916,"midi":84,"time":28.956514499999997,"velocity":0.3937007874015748},{"duration":0.13043474999999916,"midi":84,"time":28.956514499999997,"velocity":0.3937007874015748},{"duration":0.13043474999999916,"midi":82,"time":29.086949249999996,"velocity":0.3937007874015748},{"duration":0.13043474999999916,"midi":82,"time":29.086949249999996,"velocity":0.3937007874015748},{"duration":0.1304347500000027,"midi":73,"time":29.217383999999996,"velocity":0.3937007874015748},{"duration":0.1304347500000027,"midi":73,"time":29.217383999999996,"velocity":0.3937007874015748},{"duration":0.13043474999999916,"midi":80,"time":29.34781875,"velocity":0.3937007874015748},{"duration":0.13043474999999916,"midi":80,"time":29.34781875,"velocity":0.3937007874015748},{"duration":0.13043474999999916,"midi":79,"time":29.478253499999997,"velocity":0.3937007874015748},{"duration":0.13043474999999916,"midi":79,"time":29.478253499999997,"velocity":0.3937007874015748},{"duration":0.13043474999999916,"midi":80,"time":29.608688249999997,"velocity":0.3937007874015748},{"duration":0.13043474999999916,"midi":80,"time":29.608688249999997,"velocity":0.3937007874015748},{"duration":0.1304347500000027,"midi":73,"time":29.739122999999996,"velocity":0.3937007874015748},{"duration":0.1304347500000027,"midi":73,"time":29.739122999999996,"velocity":0.3937007874015748},{"duration":0.13043474999999916,"midi":82,"time":29.86955775,"velocity":0.3937007874015748},{"duration":0.13043474999999916,"midi":82,"time":29.86955775,"velocity":0.3937007874015748},{"duration":0.13043474999999916,"midi":80,"time":29.999992499999998,"velocity":0.3937007874015748},{"duration":0.13043474999999916,"midi":80,"time":29.999992499999998,"velocity":0.3937007874015748},{"duration":0.13043474999999916,"midi":82,"time":30.130427249999997,"velocity":0.3937007874015748},{"duration":0.13043474999999916,"midi":82,"time":30.130427249999997,"velocity":0.3937007874015748},{"duration":0.1304347500000027,"midi":73,"time":30.260861999999996,"velocity":0.3937007874015748},{"duration":0.1304347500000027,"midi":73,"time":30.260861999999996,"velocity":0.3937007874015748},{"duration":0.13043474999999916,"midi":84,"time":30.39129675,"velocity":0.3937007874015748},{"duration":0.13043474999999916,"midi":84,"time":30.39129675,"velocity":0.3937007874015748},{"duration":0.13043474999999916,"midi":82,"time":30.521731499999998,"velocity":0.3937007874015748},{"duration":0.13043474999999916,"midi":82,"time":30.521731499999998,"velocity":0.3937007874015748},{"duration":0.13043474999999916,"midi":84,"time":30.652166249999997,"velocity":0.3937007874015748},{"duration":0.13043474999999916,"midi":84,"time":30.652166249999997,"velocity":0.3937007874015748},{"duration":0.1304347500000027,"midi":73,"time":30.782600999999996,"velocity":0.3937007874015748},{"duration":0.1304347500000027,"midi":73,"time":30.782600999999996,"velocity":0.3937007874015748},{"duration":0.13043474999999916,"midi":85,"time":30.91303575,"velocity":0.3937007874015748},{"duration":0.13043474999999916,"midi":85,"time":30.91303575,"velocity":0.3937007874015748},{"duration":0.13043474999999916,"midi":84,"time":31.043470499999998,"velocity":0.3937007874015748},{"duration":0.13043474999999916,"midi":84,"time":31.043470499999998,"velocity":0.3937007874015748},{"duration":0.13043474999999916,"midi":87,"time":31.173905249999997,"velocity":0.3937007874015748},{"duration":0.13043474999999916,"midi":87,"time":31.173905249999997,"velocity":0.3937007874015748},{"duration":0.26086950000000186,"midi":72,"time":31.304339999999996,"velocity":0.3937007874015748},{"duration":0.26086950000000186,"midi":68,"time":31.304339999999996,"velocity":0.3937007874015748},{"duration":0.26086950000000186,"midi":68,"time":31.304339999999996,"velocity":0.3937007874015748},{"duration":0.26086950000000186,"midi":72,"time":31.304339999999996,"velocity":0.3937007874015748},{"duration":0.13043474999999916,"midi":70,"time":31.565209499999998,"velocity":0.3937007874015748},{"duration":0.13043474999999916,"midi":63,"time":31.565209499999998,"velocity":0.3937007874015748},{"duration":0.13043474999999916,"midi":70,"time":31.565209499999998,"velocity":0.3937007874015748},{"duration":0.13043474999999916,"midi":63,"time":31.565209499999998,"velocity":0.3937007874015748},{"duration":0.13043474999999916,"midi":68,"time":31.695644249999997,"velocity":0.3937007874015748},{"duration":0.13043474999999916,"midi":61,"time":31.695644249999997,"velocity":0.3937007874015748},{"duration":0.13043474999999916,"midi":61,"time":31.695644249999997,"velocity":0.3937007874015748},{"duration":0.13043474999999916,"midi":68,"time":31.695644249999997,"velocity":0.3937007874015748},{"duration":0.26086950000000186,"midi":77,"time":31.826078999999996,"velocity":0.3937007874015748},{"duration":0.26086950000000186,"midi":77,"time":31.826078999999996,"velocity":0.3937007874015748},{"duration":0.26086950000000186,"midi":72,"time":31.826078999999996,"velocity":0.3937007874015748},{"duration":0.26086950000000186,"midi":72,"time":31.826078999999996,"velocity":0.3937007874015748},{"duration":0.2608694999999983,"midi":65,"time":32.0869485,"velocity":0.3937007874015748},{"duration":0.2608694999999983,"midi":60,"time":32.0869485,"velocity":0.3937007874015748},{"duration":0.2608694999999983,"midi":65,"time":32.0869485,"velocity":0.3937007874015748},{"duration":0.2608694999999983,"midi":72,"time":32.0869485,"velocity":0.3937007874015748},{"duration":0.2608694999999983,"midi":72,"time":32.0869485,"velocity":0.3937007874015748},{"duration":0.2608694999999983,"midi":60,"time":32.0869485,"velocity":0.3937007874015748},{"duration":0.2608694999999983,"midi":76,"time":32.347818,"velocity":0.3937007874015748},{"duration":0.2608694999999983,"midi":70,"time":32.347818,"velocity":0.3937007874015748},{"duration":0.2608694999999983,"midi":76,"time":32.347818,"velocity":0.3937007874015748},{"duration":0.2608694999999983,"midi":70,"time":32.347818,"velocity":0.3937007874015748},{"duration":0.2608695000000054,"midi":68,"time":32.608687499999995,"velocity":0.3937007874015748},{"duration":0.2608695000000054,"midi":73,"time":32.608687499999995,"velocity":0.3937007874015748},{"duration":0.2608695000000054,"midi":68,"time":32.608687499999995,"velocity":0.3937007874015748},{"duration":0.2608695000000054,"midi":73,"time":32.608687499999995,"velocity":0.3937007874015748},{"duration":0.5217389999999966,"midi":67,"time":32.869557,"velocity":0.3937007874015748},{"duration":0.39130424999999747,"midi":72,"time":32.869557,"velocity":0.3937007874015748},{"duration":0.5217389999999966,"midi":67,"time":32.869557,"velocity":0.3937007874015748},{"duration":0.39130424999999747,"midi":72,"time":32.869557,"velocity":0.3937007874015748},{"duration":0.13043474999999916,"midi":73,"time":32.99999175,"velocity":0.3937007874015748},{"duration":0.13043474999999916,"midi":73,"time":32.99999175,"velocity":0.3937007874015748},{"duration":0.13043474999999916,"midi":85,"time":32.99999175,"velocity":0.3937007874015748},{"duration":0.13043474999999916,"midi":85,"time":32.99999175,"velocity":0.3937007874015748},{"duration":0.2608694999999983,"midi":72,"time":33.1304265,"velocity":0.3937007874015748},{"duration":0.13043474999999916,"midi":84,"time":33.1304265,"velocity":0.3937007874015748},{"duration":0.13043474999999916,"midi":84,"time":33.1304265,"velocity":0.3937007874015748},{"duration":0.2608694999999983,"midi":72,"time":33.1304265,"velocity":0.3937007874015748},{"duration":0.13043474999999916,"midi":73,"time":33.26086125,"velocity":0.3937007874015748},{"duration":0.13043474999999916,"midi":85,"time":33.26086125,"velocity":0.3937007874015748},{"duration":0.13043474999999916,"midi":85,"time":33.26086125,"velocity":0.3937007874015748},{"duration":0.13043474999999916,"midi":73,"time":33.26086125,"velocity":0.3937007874015748},{"duration":0.2608694999999983,"midi":72,"time":33.391296,"velocity":0.3937007874015748},{"duration":0.2608694999999983,"midi":84,"time":33.391296,"velocity":0.3937007874015748},{"duration":0.2608694999999983,"midi":72,"time":33.391296,"velocity":0.3937007874015748},{"duration":0.2608694999999983,"midi":84,"time":33.391296,"velocity":0.3937007874015748},{"duration":0.2608694999999983,"midi":68,"time":33.652165499999995,"velocity":0.3937007874015748},{"duration":0.2608694999999983,"midi":68,"time":33.652165499999995,"velocity":0.3937007874015748},{"duration":0.2608694999999983,"midi":80,"time":33.652165499999995,"velocity":0.3937007874015748},{"duration":0.2608694999999983,"midi":80,"time":33.652165499999995,"velocity":0.3937007874015748},{"duration":0.2608695000000054,"midi":65,"time":33.913034999999994,"velocity":0.3937007874015748},{"duration":0.2608695000000054,"midi":65,"time":33.913034999999994,"velocity":0.3937007874015748},{"duration":0.2608695000000054,"midi":77,"time":33.913034999999994,"velocity":0.3937007874015748},{"duration":0.2608695000000054,"midi":77,"time":33.913034999999994,"velocity":0.3937007874015748},{"duration":0.2608694999999983,"midi":60,"time":34.1739045,"velocity":0.3937007874015748},{"duration":0.2608694999999983,"midi":60,"time":34.1739045,"velocity":0.3937007874015748},{"duration":0.2608694999999983,"midi":72,"time":34.1739045,"velocity":0.3937007874015748},{"duration":0.2608694999999983,"midi":72,"time":34.1739045,"velocity":0.3937007874015748},{"duration":0.2608694999999983,"midi":80,"time":34.434774,"velocity":0.3937007874015748},{"duration":0.2608694999999983,"midi":80,"time":34.434774,"velocity":0.3937007874015748},{"duration":0.2608694999999983,"midi":68,"time":34.434774,"velocity":0.3937007874015748},{"duration":0.2608694999999983,"midi":68,"time":34.434774,"velocity":0.3937007874015748},{"duration":0.13043474999999916,"midi":77,"time":34.695643499999996,"velocity":0.3937007874015748},{"duration":0.13043474999999916,"midi":77,"time":34.695643499999996,"velocity":0.3937007874015748},{"duration":0.13043474999999916,"midi":65,"time":34.695643499999996,"velocity":0.3937007874015748},{"duration":0.13043474999999916,"midi":65,"time":34.695643499999996,"velocity":0.3937007874015748},{"duration":0.6521737500000029,"midi":67,"time":34.826078249999995,"velocity":0.3937007874015748},{"duration":0.6521737500000029,"midi":79,"time":34.826078249999995,"velocity":0.3937007874015748},{"duration":0.6521737500000029,"midi":79,"time":34.826078249999995,"velocity":0.3937007874015748},{"duration":0.6521737500000029,"midi":67,"time":34.826078249999995,"velocity":0.3937007874015748},{"duration":0.2608694999999983,"midi":68,"time":35.478252,"velocity":0.3937007874015748},{"duration":0.2608694999999983,"midi":80,"time":35.478252,"velocity":0.3937007874015748},{"duration":0.2608694999999983,"midi":80,"time":35.478252,"velocity":0.3937007874015748},{"duration":0.2608694999999983,"midi":68,"time":35.478252,"velocity":0.3937007874015748},{"duration":0.13043474999999916,"midi":65,"time":35.739121499999996,"velocity":0.3937007874015748},{"duration":0.13043474999999916,"midi":77,"time":35.739121499999996,"velocity":0.3937007874015748},{"duration":0.13043474999999916,"midi":65,"time":35.739121499999996,"velocity":0.3937007874015748},{"duration":0.13043474999999916,"midi":77,"time":35.739121499999996,"velocity":0.3937007874015748},{"duration":0.6521737500000029,"midi":67,"time":35.869556249999995,"velocity":0.3937007874015748},{"duration":0.6521737500000029,"midi":79,"time":35.869556249999995,"velocity":0.3937007874015748},{"duration":0.6521737500000029,"midi":79,"time":35.869556249999995,"velocity":0.3937007874015748},{"duration":0.6521737500000029,"midi":67,"time":35.869556249999995,"velocity":0.3937007874015748},{"duration":0.2608694999999983,"midi":80,"time":36.52173,"velocity":0.3937007874015748},{"duration":0.2608694999999983,"midi":80,"time":36.52173,"velocity":0.3937007874015748},{"duration":0.2608694999999983,"midi":68,"time":36.52173,"velocity":0.3937007874015748},{"duration":0.2608694999999983,"midi":68,"time":36.52173,"velocity":0.3937007874015748},{"duration":0.13043474999999916,"midi":77,"time":36.782599499999996,"velocity":0.3937007874015748},{"duration":0.13043474999999916,"midi":65,"time":36.782599499999996,"velocity":0.3937007874015748},{"duration":0.13043474999999916,"midi":65,"time":36.782599499999996,"velocity":0.3937007874015748},{"duration":0.13043474999999916,"midi":77,"time":36.782599499999996,"velocity":0.3937007874015748},{"duration":0.2608694999999983,"midi":67,"time":36.913034249999995,"velocity":0.3937007874015748},{"duration":0.2608694999999983,"midi":79,"time":36.913034249999995,"velocity":0.3937007874015748},{"duration":0.2608694999999983,"midi":79,"time":36.913034249999995,"velocity":0.3937007874015748},{"duration":0.2608694999999983,"midi":67,"time":36.913034249999995,"velocity":0.3937007874015748},{"duration":0.13043475000000626,"midi":85,"time":37.173903749999994,"velocity":0.3937007874015748},{"duration":0.13043475000000626,"midi":73,"time":37.173903749999994,"velocity":0.3937007874015748},{"duration":0.13043475000000626,"midi":85,"time":37.173903749999994,"velocity":0.3937007874015748},{"duration":0.13043475000000626,"midi":73,"time":37.173903749999994,"velocity":0.3937007874015748},{"duration":0.13043474999999916,"midi":84,"time":37.3043385,"velocity":0.3937007874015748},{"duration":0.13043474999999916,"midi":84,"time":37.3043385,"velocity":0.3937007874015748},{"duration":0.13043474999999916,"midi":72,"time":37.3043385,"velocity":0.3937007874015748},{"duration":0.13043474999999916,"midi":72,"time":37.3043385,"velocity":0.3937007874015748},{"duration":0.13043474999999916,"midi":73,"time":37.43477325,"velocity":0.3937007874015748},{"duration":0.13043474999999916,"midi":85,"time":37.43477325,"velocity":0.3937007874015748},{"duration":0.13043474999999916,"midi":73,"time":37.43477325,"velocity":0.3937007874015748},{"duration":0.13043474999999916,"midi":85,"time":37.43477325,"velocity":0.3937007874015748},{"duration":0.2608694999999983,"midi":72,"time":37.565208,"velocity":0.3937007874015748},{"duration":0.2608694999999983,"midi":84,"time":37.565208,"velocity":0.3937007874015748},{"duration":0.2608694999999983,"midi":72,"time":37.565208,"velocity":0.3937007874015748},{"duration":0.2608694999999983,"midi":84,"time":37.565208,"velocity":0.3937007874015748},{"duration":0.2608694999999983,"midi":68,"time":37.8260775,"velocity":0.3937007874015748},{"duration":0.2608694999999983,"midi":80,"time":37.8260775,"velocity":0.3937007874015748},{"duration":0.2608694999999983,"midi":68,"time":37.8260775,"velocity":0.3937007874015748},{"duration":0.2608694999999983,"midi":80,"time":37.8260775,"velocity":0.3937007874015748},{"duration":0.2608694999999983,"midi":77,"time":38.086946999999995,"velocity":0.3937007874015748},{"duration":0.2608694999999983,"midi":65,"time":38.086946999999995,"velocity":0.3937007874015748},{"duration":0.2608694999999983,"midi":65,"time":38.086946999999995,"velocity":0.3937007874015748},{"duration":0.2608694999999983,"midi":77,"time":38.086946999999995,"velocity":0.3937007874015748},{"duration":0.2608695000000054,"midi":72,"time":38.34781649999999,"velocity":0.3937007874015748},{"duration":0.2608695000000054,"midi":72,"time":38.34781649999999,"velocity":0.3937007874015748},{"duration":0.2608695000000054,"midi":60,"time":38.34781649999999,"velocity":0.3937007874015748},{"duration":0.2608695000000054,"midi":60,"time":38.34781649999999,"velocity":0.3937007874015748},{"duration":0.2608694999999983,"midi":80,"time":38.608686,"velocity":0.3937007874015748},{"duration":0.2608694999999983,"midi":68,"time":38.608686,"velocity":0.3937007874015748},{"duration":0.2608694999999983,"midi":80,"time":38.608686,"velocity":0.3937007874015748},{"duration":0.2608694999999983,"midi":68,"time":38.608686,"velocity":0.3937007874015748},{"duration":0.13043474999999916,"midi":70,"time":38.8695555,"velocity":0.3937007874015748},{"duration":0.13043474999999916,"midi":82,"time":38.8695555,"velocity":0.3937007874015748},{"duration":0.13043474999999916,"midi":82,"time":38.8695555,"velocity":0.3937007874015748},{"duration":0.13043474999999916,"midi":70,"time":38.8695555,"velocity":0.3937007874015748},{"duration":0.6521737500000029,"midi":79,"time":38.999990249999996,"velocity":0.3937007874015748},{"duration":0.6521737500000029,"midi":67,"time":38.999990249999996,"velocity":0.3937007874015748},{"duration":0.6521737500000029,"midi":79,"time":38.999990249999996,"velocity":0.3937007874015748},{"duration":0.6521737500000029,"midi":67,"time":38.999990249999996,"velocity":0.3937007874015748},{"duration":0.2608694999999983,"midi":68,"time":39.652164,"velocity":0.3937007874015748},{"duration":0.2608694999999983,"midi":80,"time":39.652164,"velocity":0.3937007874015748},{"duration":0.2608694999999983,"midi":68,"time":39.652164,"velocity":0.3937007874015748},{"duration":0.2608694999999983,"midi":80,"time":39.652164,"velocity":0.3937007874015748},{"duration":0.13043474999999916,"midi":82,"time":39.9130335,"velocity":0.3937007874015748},{"duration":0.13043474999999916,"midi":70,"time":39.9130335,"velocity":0.3937007874015748},{"duration":0.13043474999999916,"midi":82,"time":39.9130335,"velocity":0.3937007874015748},{"duration":0.13043474999999916,"midi":70,"time":39.9130335,"velocity":0.3937007874015748},{"duration":0.6521737500000029,"midi":79,"time":40.04346825,"velocity":0.3937007874015748},{"duration":0.6521737500000029,"midi":67,"time":40.04346825,"velocity":0.3937007874015748},{"duration":0.6521737500000029,"midi":67,"time":40.04346825,"velocity":0.3937007874015748},{"duration":0.6521737500000029,"midi":79,"time":40.04346825,"velocity":0.3937007874015748},{"duration":0.2608694999999983,"midi":68,"time":40.695642,"velocity":0.3937007874015748},{"duration":0.2608694999999983,"midi":80,"time":40.695642,"velocity":0.3937007874015748},{"duration":0.2608694999999983,"midi":80,"time":40.695642,"velocity":0.3937007874015748},{"duration":0.2608694999999983,"midi":68,"time":40.695642,"velocity":0.3937007874015748},{"duration":0.13043474999999916,"midi":82,"time":40.9565115,"velocity":0.3937007874015748},{"duration":0.13043474999999916,"midi":70,"time":40.9565115,"velocity":0.3937007874015748},{"duration":0.13043474999999916,"midi":82,"time":40.9565115,"velocity":0.3937007874015748},{"duration":0.13043474999999916,"midi":70,"time":40.9565115,"velocity":0.3937007874015748},{"duration":0.2608694999999983,"midi":84,"time":41.08694625,"velocity":0.3937007874015748},{"duration":0.2608694999999983,"midi":84,"time":41.08694625,"velocity":0.3937007874015748},{"duration":0.2608694999999983,"midi":72,"time":41.08694625,"velocity":0.3937007874015748},{"duration":0.2608694999999983,"midi":72,"time":41.08694625,"velocity":0.3937007874015748},{"duration":0.13043474999999916,"midi":85,"time":41.347815749999995,"velocity":0.3937007874015748},{"duration":0.13043474999999916,"midi":85,"time":41.347815749999995,"velocity":0.3937007874015748},{"duration":0.13043474999999916,"midi":73,"time":41.347815749999995,"velocity":0.3937007874015748},{"duration":0.13043474999999916,"midi":73,"time":41.347815749999995,"velocity":0.3937007874015748},{"duration":0.13043474999999916,"midi":84,"time":41.478250499999994,"velocity":0.3937007874015748},{"duration":0.13043474999999916,"midi":84,"time":41.478250499999994,"velocity":0.3937007874015748},{"duration":0.13043474999999916,"midi":72,"time":41.478250499999994,"velocity":0.3937007874015748},{"duration":0.13043474999999916,"midi":72,"time":41.478250499999994,"velocity":0.3937007874015748},{"duration":0.13043475000000626,"midi":85,"time":41.60868524999999,"velocity":0.3937007874015748},{"duration":0.13043475000000626,"midi":73,"time":41.60868524999999,"velocity":0.3937007874015748},{"duration":0.13043475000000626,"midi":73,"time":41.60868524999999,"velocity":0.3937007874015748},{"duration":0.13043475000000626,"midi":85,"time":41.60868524999999,"velocity":0.3937007874015748},{"duration":0.2608694999999983,"midi":84,"time":41.73912,"velocity":0.3937007874015748},{"duration":0.2608694999999983,"midi":84,"time":41.73912,"velocity":0.3937007874015748},{"duration":0.2608694999999983,"midi":72,"time":41.73912,"velocity":0.3937007874015748},{"duration":0.2608694999999983,"midi":80,"time":41.73912,"velocity":0.3937007874015748},{"duration":0.2608694999999983,"midi":80,"time":41.73912,"velocity":0.3937007874015748},{"duration":0.2608694999999983,"midi":72,"time":41.73912,"velocity":0.3937007874015748},{"duration":0.2608694999999983,"midi":68,"time":41.9999895,"velocity":0.3937007874015748},{"duration":0.2608694999999983,"midi":80,"time":41.9999895,"velocity":0.3937007874015748},{"duration":0.2608694999999983,"midi":68,"time":41.9999895,"velocity":0.3937007874015748},{"duration":0.2608694999999983,"midi":77,"time":41.9999895,"velocity":0.3937007874015748},{"duration":0.2608694999999983,"midi":80,"time":41.9999895,"velocity":0.3937007874015748},{"duration":0.2608694999999983,"midi":77,"time":41.9999895,"velocity":0.3937007874015748},{"duration":0.2608694999999983,"midi":65,"time":42.260858999999996,"velocity":0.3937007874015748},{"duration":0.2608694999999983,"midi":65,"time":42.260858999999996,"velocity":0.3937007874015748},{"duration":0.2608694999999983,"midi":72,"time":42.260858999999996,"velocity":0.3937007874015748},{"duration":0.2608694999999983,"midi":72,"time":42.260858999999996,"velocity":0.3937007874015748},{"duration":0.2608694999999983,"midi":77,"time":42.260858999999996,"velocity":0.3937007874015748},{"duration":0.2608694999999983,"midi":77,"time":42.260858999999996,"velocity":0.3937007874015748},{"duration":0.2608694999999983,"midi":72,"time":42.521728499999995,"velocity":0.3937007874015748},{"duration":0.2608694999999983,"midi":60,"time":42.521728499999995,"velocity":0.3937007874015748},{"duration":0.2608694999999983,"midi":68,"time":42.521728499999995,"velocity":0.3937007874015748},{"duration":0.2608694999999983,"midi":72,"time":42.521728499999995,"velocity":0.3937007874015748},{"duration":0.2608694999999983,"midi":60,"time":42.521728499999995,"velocity":0.3937007874015748},{"duration":0.2608694999999983,"midi":68,"time":42.521728499999995,"velocity":0.3937007874015748},{"duration":0.2608695000000054,"midi":80,"time":42.78259799999999,"velocity":0.3937007874015748},{"duration":0.2608695000000054,"midi":68,"time":42.78259799999999,"velocity":0.3937007874015748},{"duration":0.2608695000000054,"midi":68,"time":42.78259799999999,"velocity":0.3937007874015748},{"duration":0.2608695000000054,"midi":80,"time":42.78259799999999,"velocity":0.3937007874015748},{"duration":0.2608695000000054,"midi":77,"time":42.78259799999999,"velocity":0.3937007874015748},{"duration":0.2608695000000054,"midi":77,"time":42.78259799999999,"velocity":0.3937007874015748},{"duration":0.13043474999999916,"midi":65,"time":43.0434675,"velocity":0.3937007874015748},{"duration":0.13043474999999916,"midi":65,"time":43.0434675,"velocity":0.3937007874015748},{"duration":0.13043474999999916,"midi":72,"time":43.0434675,"velocity":0.3937007874015748},{"duration":0.13043474999999916,"midi":72,"time":43.0434675,"velocity":0.3937007874015748},{"duration":0.13043474999999916,"midi":77,"time":43.0434675,"velocity":0.3937007874015748},{"duration":0.13043474999999916,"midi":77,"time":43.0434675,"velocity":0.3937007874015748},{"duration":0.6521737499999958,"midi":73,"time":43.17390225,"velocity":0.3937007874015748},{"duration":0.6521737499999958,"midi":79,"time":43.17390225,"velocity":0.3937007874015748},{"duration":0.6521737499999958,"midi":73,"time":43.17390225,"velocity":0.3937007874015748},{"duration":0.6521737499999958,"midi":79,"time":43.17390225,"velocity":0.3937007874015748},{"duration":0.6521737499999958,"midi":67,"time":43.17390225,"velocity":0.3937007874015748},{"duration":0.6521737499999958,"midi":67,"time":43.17390225,"velocity":0.3937007874015748},{"duration":0.2608695000000054,"midi":80,"time":43.82607599999999,"velocity":0.3937007874015748},{"duration":0.2608695000000054,"midi":77,"time":43.82607599999999,"velocity":0.3937007874015748},{"duration":0.2608695000000054,"midi":68,"time":43.82607599999999,"velocity":0.3937007874015748},{"duration":0.2608695000000054,"midi":80,"time":43.82607599999999,"velocity":0.3937007874015748},{"duration":0.2608695000000054,"midi":77,"time":43.82607599999999,"velocity":0.3937007874015748},{"duration":0.2608695000000054,"midi":68,"time":43.82607599999999,"velocity":0.3937007874015748},{"duration":0.13043474999999916,"midi":65,"time":44.0869455,"velocity":0.3937007874015748},{"duration":0.13043474999999916,"midi":72,"time":44.0869455,"velocity":0.3937007874015748},{"duration":0.13043474999999916,"midi":72,"time":44.0869455,"velocity":0.3937007874015748},{"duration":0.13043474999999916,"midi":65,"time":44.0869455,"velocity":0.3937007874015748},{"duration":0.13043474999999916,"midi":77,"time":44.0869455,"velocity":0.3937007874015748},{"duration":0.13043474999999916,"midi":77,"time":44.0869455,"velocity":0.3937007874015748},{"duration":0.6521737499999958,"midi":67,"time":44.21738025,"velocity":0.3937007874015748},{"duration":0.6521737499999958,"midi":67,"time":44.21738025,"velocity":0.3937007874015748},{"duration":0.6521737499999958,"midi":79,"time":44.21738025,"velocity":0.3937007874015748},{"duration":0.6521737499999958,"midi":79,"time":44.21738025,"velocity":0.3937007874015748},{"duration":0.6521737499999958,"midi":73,"time":44.21738025,"velocity":0.3937007874015748},{"duration":0.6521737499999958,"midi":73,"time":44.21738025,"velocity":0.3937007874015748},{"duration":0.2608695000000054,"midi":77,"time":44.869553999999994,"velocity":0.3937007874015748},{"duration":0.2608695000000054,"midi":68,"time":44.869553999999994,"velocity":0.3937007874015748},{"duration":0.2608695000000054,"midi":68,"time":44.869553999999994,"velocity":0.3937007874015748},{"duration":0.2608695000000054,"midi":80,"time":44.869553999999994,"velocity":0.3937007874015748},{"duration":0.2608695000000054,"midi":77,"time":44.869553999999994,"velocity":0.3937007874015748},{"duration":0.2608695000000054,"midi":80,"time":44.869553999999994,"velocity":0.3937007874015748},{"duration":0.13043474999999916,"midi":72,"time":45.1304235,"velocity":0.3937007874015748},{"duration":0.13043474999999916,"midi":77,"time":45.1304235,"velocity":0.3937007874015748},{"duration":0.13043474999999916,"midi":72,"time":45.1304235,"velocity":0.3937007874015748},{"duration":0.13043474999999916,"midi":77,"time":45.1304235,"velocity":0.3937007874015748},{"duration":0.13043474999999916,"midi":65,"time":45.1304235,"velocity":0.3937007874015748},{"duration":0.13043474999999916,"midi":65,"time":45.1304235,"velocity":0.3937007874015748},{"duration":0.2608694999999983,"midi":79,"time":45.26085825,"velocity":0.3937007874015748},{"duration":0.2608694999999983,"midi":73,"time":45.26085825,"velocity":0.3937007874015748},{"duration":0.2608694999999983,"midi":79,"time":45.26085825,"velocity":0.3937007874015748},{"duration":0.2608694999999983,"midi":73,"time":45.26085825,"velocity":0.3937007874015748},{"duration":0.2608694999999983,"midi":67,"time":45.26085825,"velocity":0.3937007874015748},{"duration":0.2608694999999983,"midi":67,"time":45.26085825,"velocity":0.3937007874015748},{"duration":0.13043474999999916,"midi":73,"time":45.52172775,"velocity":0.3937007874015748},{"duration":0.13043474999999916,"midi":85,"time":45.52172775,"velocity":0.3937007874015748},{"duration":0.13043474999999916,"midi":73,"time":45.52172775,"velocity":0.3937007874015748},{"duration":0.13043474999999916,"midi":85,"time":45.52172775,"velocity":0.3937007874015748},{"duration":0.13043474999999916,"midi":72,"time":45.652162499999996,"velocity":0.3937007874015748},{"duration":0.13043474999999916,"midi":84,"time":45.652162499999996,"velocity":0.3937007874015748},{"duration":0.13043474999999916,"midi":72,"time":45.652162499999996,"velocity":0.3937007874015748},{"duration":0.13043474999999916,"midi":84,"time":45.652162499999996,"velocity":0.3937007874015748},{"duration":0.13043474999999916,"midi":85,"time":45.782597249999995,"velocity":0.3937007874015748},{"duration":0.13043474999999916,"midi":73,"time":45.782597249999995,"velocity":0.3937007874015748},{"duration":0.13043474999999916,"midi":85,"time":45.782597249999995,"velocity":0.3937007874015748},{"duration":0.13043474999999916,"midi":73,"time":45.782597249999995,"velocity":0.3937007874015748},{"duration":0.2608694999999983,"midi":84,"time":45.913031999999994,"velocity":0.3937007874015748},{"duration":0.2608694999999983,"midi":72,"time":45.913031999999994,"velocity":0.3937007874015748},{"duration":0.2608694999999983,"midi":84,"time":45.913031999999994,"velocity":0.3937007874015748},{"duration":0.2608694999999983,"midi":72,"time":45.913031999999994,"velocity":0.3937007874015748},{"duration":0.2608695000000054,"midi":77,"time":46.17390149999999,"velocity":0.3937007874015748},{"duration":0.2608695000000054,"midi":89,"time":46.17390149999999,"velocity":0.3937007874015748},{"duration":0.2608695000000054,"midi":89,"time":46.17390149999999,"velocity":0.3937007874015748},{"duration":0.2608695000000054,"midi":77,"time":46.17390149999999,"velocity":0.3937007874015748},{"duration":0.2608694999999983,"midi":82,"time":46.434771,"velocity":0.3937007874015748},{"duration":0.2608694999999983,"midi":82,"time":46.434771,"velocity":0.3937007874015748},{"duration":0.2608694999999983,"midi":70,"time":46.434771,"velocity":0.3937007874015748},{"duration":0.2608694999999983,"midi":70,"time":46.434771,"velocity":0.3937007874015748},{"duration":0.2608694999999983,"midi":68,"time":46.695640499999996,"velocity":0.3937007874015748},{"duration":0.2608694999999983,"midi":68,"time":46.695640499999996,"velocity":0.3937007874015748},{"duration":0.2608694999999983,"midi":80,"time":46.695640499999996,"velocity":0.3937007874015748},{"duration":0.2608694999999983,"midi":80,"time":46.695640499999996,"velocity":0.3937007874015748},{"duration":0.13043474999999916,"midi":82,"time":46.956509999999994,"velocity":0.3937007874015748},{"duration":0.13043474999999916,"midi":70,"time":46.956509999999994,"velocity":0.3937007874015748},{"duration":0.13043474999999916,"midi":82,"time":46.956509999999994,"velocity":0.3937007874015748},{"duration":0.13043474999999916,"midi":70,"time":46.956509999999994,"velocity":0.3937007874015748},{"duration":0.2608695000000054,"midi":68,"time":47.086944749999994,"velocity":0.3937007874015748},{"duration":0.2608695000000054,"midi":80,"time":47.086944749999994,"velocity":0.3937007874015748},{"duration":0.2608695000000054,"midi":68,"time":47.086944749999994,"velocity":0.3937007874015748},{"duration":0.2608695000000054,"midi":80,"time":47.086944749999994,"velocity":0.3937007874015748},{"duration":0.39130424999999747,"midi":70,"time":47.34781425,"velocity":0.3937007874015748},{"duration":0.39130424999999747,"midi":82,"time":47.34781425,"velocity":0.3937007874015748},{"duration":0.39130424999999747,"midi":82,"time":47.34781425,"velocity":0.3937007874015748},{"duration":0.39130424999999747,"midi":70,"time":47.34781425,"velocity":0.3937007874015748},{"duration":0.13043474999999916,"midi":80,"time":47.7391185,"velocity":0.3937007874015748},{"duration":0.13043474999999916,"midi":68,"time":47.7391185,"velocity":0.3937007874015748},{"duration":0.13043474999999916,"midi":80,"time":47.7391185,"velocity":0.3937007874015748},{"duration":0.13043474999999916,"midi":68,"time":47.7391185,"velocity":0.3937007874015748},{"duration":0.13043474999999916,"midi":70,"time":47.869553249999996,"velocity":0.3937007874015748},{"duration":0.13043474999999916,"midi":82,"time":47.869553249999996,"velocity":0.3937007874015748},{"duration":0.13043474999999916,"midi":82,"time":47.869553249999996,"velocity":0.3937007874015748},{"duration":0.13043474999999916,"midi":70,"time":47.869553249999996,"velocity":0.3937007874015748},{"duration":0.13043474999999916,"midi":71,"time":47.999987999999995,"velocity":0.3937007874015748},{"duration":0.13043474999999916,"midi":83,"time":47.999987999999995,"velocity":0.3937007874015748},{"duration":0.13043474999999916,"midi":71,"time":47.999987999999995,"velocity":0.3937007874015748},{"duration":0.13043474999999916,"midi":83,"time":47.999987999999995,"velocity":0.3937007874015748},{"duration":0.13043474999999916,"midi":70,"time":48.130422749999994,"velocity":0.3937007874015748},{"duration":0.13043474999999916,"midi":70,"time":48.130422749999994,"velocity":0.3937007874015748},{"duration":0.13043474999999916,"midi":82,"time":48.130422749999994,"velocity":0.3937007874015748},{"duration":0.13043474999999916,"midi":82,"time":48.130422749999994,"velocity":0.3937007874015748},{"duration":0.2608695000000054,"midi":68,"time":48.26085749999999,"velocity":0.3937007874015748},{"duration":0.2608695000000054,"midi":80,"time":48.26085749999999,"velocity":0.3937007874015748},{"duration":0.2608695000000054,"midi":68,"time":48.26085749999999,"velocity":0.3937007874015748},{"duration":0.2608695000000054,"midi":80,"time":48.26085749999999,"velocity":0.3937007874015748},{"duration":0.2608694999999983,"midi":76,"time":48.521727,"velocity":0.3937007874015748},{"duration":0.2608694999999983,"midi":64,"time":48.521727,"velocity":0.3937007874015748},{"duration":0.2608694999999983,"midi":64,"time":48.521727,"velocity":0.3937007874015748},{"duration":0.2608694999999983,"midi":76,"time":48.521727,"velocity":0.3937007874015748},{"duration":0.2608694999999983,"midi":58,"time":48.7825965,"velocity":0.3937007874015748},{"duration":0.2608694999999983,"midi":58,"time":48.7825965,"velocity":0.3937007874015748},{"duration":0.2608694999999983,"midi":70,"time":48.7825965,"velocity":0.3937007874015748},{"duration":0.2608694999999983,"midi":70,"time":48.7825965,"velocity":0.3937007874015748},{"duration":0.2608694999999983,"midi":60,"time":49.043465999999995,"velocity":0.3937007874015748},{"duration":0.2608694999999983,"midi":60,"time":49.043465999999995,"velocity":0.3937007874015748},{"duration":0.2608694999999983,"midi":72,"time":49.043465999999995,"velocity":0.3937007874015748},{"duration":0.2608694999999983,"midi":72,"time":49.043465999999995,"velocity":0.3937007874015748},{"duration":0.13043474999999916,"midi":73,"time":49.30433549999999,"velocity":0.3937007874015748},{"duration":0.13043474999999916,"midi":73,"time":49.30433549999999,"velocity":0.3937007874015748},{"duration":0.13043474999999916,"midi":61,"time":49.30433549999999,"velocity":0.3937007874015748},{"duration":0.13043474999999916,"midi":61,"time":49.30433549999999,"velocity":0.3937007874015748},{"duration":0.13043475000000626,"midi":63,"time":49.43477024999999,"velocity":0.3937007874015748},{"duration":0.13043475000000626,"midi":63,"time":49.43477024999999,"velocity":0.3937007874015748},{"duration":0.13043475000000626,"midi":75,"time":49.43477024999999,"velocity":0.3937007874015748},{"duration":0.13043475000000626,"midi":75,"time":49.43477024999999,"velocity":0.3937007874015748},{"duration":0.5217389999999966,"midi":65,"time":49.565205,"velocity":0.3937007874015748},{"duration":0.5217389999999966,"midi":77,"time":49.565205,"velocity":0.3937007874015748},{"duration":0.5217389999999966,"midi":65,"time":49.565205,"velocity":0.3937007874015748},{"duration":0.5217389999999966,"midi":77,"time":49.565205,"velocity":0.3937007874015748},{"duration":0.2608694999999983,"midi":84,"time":50.086943999999995,"velocity":0.3937007874015748},{"duration":0.13043474999999916,"midi":41,"time":50.086943999999995,"velocity":0.3937007874015748},{"duration":0.2608694999999983,"midi":84,"time":50.086943999999995,"velocity":0.3937007874015748},{"duration":0.13043474999999916,"midi":41,"time":50.086943999999995,"velocity":0.3937007874015748},{"duration":0.13043474999999916,"midi":48,"time":50.217378749999995,"velocity":0.3937007874015748},{"duration":0.13043474999999916,"midi":48,"time":50.217378749999995,"velocity":0.3937007874015748},{"duration":0.2608694999999983,"midi":80,"time":50.347813499999994,"velocity":0.3937007874015748},{"duration":0.13043474999999916,"midi":49,"time":50.347813499999994,"velocity":0.3937007874015748},{"duration":0.13043474999999916,"midi":49,"time":50.347813499999994,"velocity":0.3937007874015748},{"duration":0.2608694999999983,"midi":80,"time":50.347813499999994,"velocity":0.3937007874015748},{"duration":0.13043474999999916,"midi":48,"time":50.47824824999999,"velocity":0.3937007874015748},{"duration":0.13043474999999916,"midi":48,"time":50.47824824999999,"velocity":0.3937007874015748},{"duration":0.13043475000000626,"midi":77,"time":50.60868299999999,"velocity":0.3937007874015748},{"duration":0.13043475000000626,"midi":41,"time":50.60868299999999,"velocity":0.3937007874015748},{"duration":0.13043475000000626,"midi":41,"time":50.60868299999999,"velocity":0.3937007874015748},{"duration":0.13043475000000626,"midi":77,"time":50.60868299999999,"velocity":0.3937007874015748},{"duration":0.13043474999999916,"midi":48,"time":50.73911775,"velocity":0.3937007874015748},{"duration":0.13043474999999916,"midi":80,"time":50.73911775,"velocity":0.3937007874015748},{"duration":0.13043474999999916,"midi":48,"time":50.73911775,"velocity":0.3937007874015748},{"duration":0.13043474999999916,"midi":80,"time":50.73911775,"velocity":0.3937007874015748},{"duration":0.13043474999999916,"midi":72,"time":50.8695525,"velocity":0.3937007874015748},{"duration":0.13043474999999916,"midi":53,"time":50.8695525,"velocity":0.3937007874015748},{"duration":0.13043474999999916,"midi":72,"time":50.8695525,"velocity":0.3937007874015748},{"duration":0.13043474999999916,"midi":53,"time":50.8695525,"velocity":0.3937007874015748},{"duration":0.13043474999999916,"midi":48,"time":50.99998725,"velocity":0.3937007874015748},{"duration":0.13043474999999916,"midi":77,"time":50.99998725,"velocity":0.3937007874015748},{"duration":0.13043474999999916,"midi":77,"time":50.99998725,"velocity":0.3937007874015748},{"duration":0.13043474999999916,"midi":48,"time":50.99998725,"velocity":0.3937007874015748},{"duration":0.2608694999999983,"midi":80,"time":51.130421999999996,"velocity":0.3937007874015748},{"duration":0.13043474999999916,"midi":46,"time":51.130421999999996,"velocity":0.3937007874015748},{"duration":0.13043474999999916,"midi":46,"time":51.130421999999996,"velocity":0.3937007874015748},{"duration":0.2608694999999983,"midi":80,"time":51.130421999999996,"velocity":0.3937007874015748},{"duration":0.13043474999999916,"midi":53,"time":51.260856749999995,"velocity":0.3937007874015748},{"duration":0.13043474999999916,"midi":53,"time":51.260856749999995,"velocity":0.3937007874015748},{"duration":0.2608694999999983,"midi":77,"time":51.391291499999994,"velocity":0.3937007874015748},{"duration":0.13043474999999916,"midi":56,"time":51.391291499999994,"velocity":0.3937007874015748},{"duration":0.13043474999999916,"midi":56,"time":51.391291499999994,"velocity":0.3937007874015748},{"duration":0.2608694999999983,"midi":77,"time":51.391291499999994,"velocity":0.3937007874015748},{"duration":0.13043474999999916,"midi":53,"time":51.52172624999999,"velocity":0.3937007874015748},{"duration":0.13043474999999916,"midi":53,"time":51.52172624999999,"velocity":0.3937007874015748},{"duration":0.2608695000000054,"midi":46,"time":51.65216099999999,"velocity":0.3937007874015748},{"duration":0.13043475000000626,"midi":73,"time":51.65216099999999,"velocity":0.3937007874015748},{"duration":0.2608695000000054,"midi":46,"time":51.65216099999999,"velocity":0.3937007874015748},{"duration":0.13043475000000626,"midi":73,"time":51.65216099999999,"velocity":0.3937007874015748},{"duration":0.13043474999999916,"midi":53,"time":51.78259575,"velocity":0.3937007874015748},{"duration":0.13043474999999916,"midi":77,"time":51.78259575,"velocity":0.3937007874015748},{"duration":0.13043474999999916,"midi":53,"time":51.78259575,"velocity":0.3937007874015748},{"duration":0.13043474999999916,"midi":77,"time":51.78259575,"velocity":0.3937007874015748},{"duration":0.13043474999999916,"midi":55,"time":51.9130305,"velocity":0.3937007874015748},{"duration":0.13043474999999916,"midi":68,"time":51.9130305,"velocity":0.3937007874015748},{"duration":0.13043474999999916,"midi":55,"time":51.9130305,"velocity":0.3937007874015748},{"duration":0.2608694999999983,"midi":48,"time":51.9130305,"velocity":0.3937007874015748},{"duration":0.2608694999999983,"midi":48,"time":51.9130305,"velocity":0.3937007874015748},{"duration":0.13043474999999916,"midi":68,"time":51.9130305,"velocity":0.3937007874015748},{"duration":0.13043474999999916,"midi":73,"time":52.04346525,"velocity":0.3937007874015748},{"duration":0.13043474999999916,"midi":53,"time":52.04346525,"velocity":0.3937007874015748},{"duration":0.13043474999999916,"midi":73,"time":52.04346525,"velocity":0.3937007874015748},{"duration":0.13043474999999916,"midi":53,"time":52.04346525,"velocity":0.3937007874015748},{"duration":0.13043474999999916,"midi":73,"time":52.173899999999996,"velocity":0.3937007874015748},{"duration":0.13043474999999916,"midi":49,"time":52.173899999999996,"velocity":0.3937007874015748},{"duration":0.13043474999999916,"midi":49,"time":52.173899999999996,"velocity":0.3937007874015748},{"duration":0.13043474999999916,"midi":73,"time":52.173899999999996,"velocity":0.3937007874015748},{"duration":0.13043474999999916,"midi":53,"time":52.304334749999995,"velocity":0.3937007874015748},{"duration":0.13043474999999916,"midi":53,"time":52.304334749999995,"velocity":0.3937007874015748},{"duration":0.13043474999999916,"midi":68,"time":52.304334749999995,"velocity":0.3937007874015748},{"duration":0.13043474999999916,"midi":68,"time":52.304334749999995,"velocity":0.3937007874015748},{"duration":0.13043474999999916,"midi":80,"time":52.434769499999994,"velocity":0.3937007874015748},{"duration":0.13043474999999916,"midi":61,"time":52.434769499999994,"velocity":0.3937007874015748},{"duration":0.13043474999999916,"midi":80,"time":52.434769499999994,"velocity":0.3937007874015748},{"duration":0.13043474999999916,"midi":61,"time":52.434769499999994,"velocity":0.3937007874015748},{"duration":0.13043474999999916,"midi":56,"time":52.565204249999994,"velocity":0.3937007874015748},{"duration":0.13043474999999916,"midi":73,"time":52.565204249999994,"velocity":0.3937007874015748},{"duration":0.13043474999999916,"midi":73,"time":52.565204249999994,"velocity":0.3937007874015748},{"duration":0.13043474999999916,"midi":56,"time":52.565204249999994,"velocity":0.3937007874015748},{"duration":0.13043474999999916,"midi":79,"time":52.69563899999999,"velocity":0.3937007874015748},{"duration":0.13043474999999916,"midi":49,"time":52.69563899999999,"velocity":0.3937007874015748},{"duration":0.13043474999999916,"midi":49,"time":52.69563899999999,"velocity":0.3937007874015748},{"duration":0.13043474999999916,"midi":79,"time":52.69563899999999,"velocity":0.3937007874015748},{"duration":0.06521737500000313,"midi":51,"time":52.82607374999999,"velocity":0.3937007874015748},{"duration":0.13043475000000626,"midi":80,"time":52.82607374999999,"velocity":0.3937007874015748},{"duration":0.06521737500000313,"midi":51,"time":52.82607374999999,"velocity":0.3937007874015748},{"duration":0.13043475000000626,"midi":80,"time":52.82607374999999,"velocity":0.3937007874015748},{"duration":0.06521737500000313,"midi":52,"time":52.891291124999995,"velocity":0.3937007874015748},{"duration":0.06521737500000313,"midi":52,"time":52.891291124999995,"velocity":0.3937007874015748},{"duration":0.2608694999999983,"midi":53,"time":52.9565085,"velocity":0.3937007874015748},{"duration":0.2608694999999983,"midi":53,"time":52.9565085,"velocity":0.3937007874015748},{"duration":0.13043474999999916,"midi":77,"time":52.9565085,"velocity":0.3937007874015748},{"duration":0.13043474999999916,"midi":77,"time":52.9565085,"velocity":0.3937007874015748},{"duration":0.13043474999999916,"midi":79,"time":53.08694325,"velocity":0.3937007874015748},{"duration":0.13043474999999916,"midi":79,"time":53.08694325,"velocity":0.3937007874015748},{"duration":0.13043474999999916,"midi":52,"time":53.217378,"velocity":0.3937007874015748},{"duration":0.13043474999999916,"midi":52,"time":53.217378,"velocity":0.3937007874015748},{"duration":0.2608694999999983,"midi":76,"time":53.217378,"velocity":0.3937007874015748},{"duration":0.2608694999999983,"midi":76,"time":53.217378,"velocity":0.3937007874015748},{"duration":0.13043474999999916,"midi":53,"time":53.347812749999996,"velocity":0.3937007874015748},{"duration":0.13043474999999916,"midi":53,"time":53.347812749999996,"velocity":0.3937007874015748},{"duration":0.13043474999999916,"midi":48,"time":53.478247499999995,"velocity":0.3937007874015748},{"duration":0.13043474999999916,"midi":48,"time":53.478247499999995,"velocity":0.3937007874015748},{"duration":0.13043474999999916,"midi":77,"time":53.478247499999995,"velocity":0.3937007874015748},{"duration":0.13043474999999916,"midi":77,"time":53.478247499999995,"velocity":0.3937007874015748},{"duration":0.13043474999999916,"midi":76,"time":53.608682249999994,"velocity":0.3937007874015748},{"duration":0.13043474999999916,"midi":43,"time":53.608682249999994,"velocity":0.3937007874015748},{"duration":0.13043474999999916,"midi":43,"time":53.608682249999994,"velocity":0.3937007874015748},{"duration":0.13043474999999916,"midi":76,"time":53.608682249999994,"velocity":0.3937007874015748},{"duration":0.13043474999999916,"midi":79,"time":53.73911699999999,"velocity":0.3937007874015748},{"duration":0.2608695000000054,"midi":48,"time":53.73911699999999,"velocity":0.3937007874015748},{"duration":0.2608695000000054,"midi":48,"time":53.73911699999999,"velocity":0.3937007874015748},{"duration":0.13043474999999916,"midi":79,"time":53.73911699999999,"velocity":0.3937007874015748},{"duration":0.13043475000000626,"midi":77,"time":53.86955174999999,"velocity":0.3937007874015748},{"duration":0.13043475000000626,"midi":77,"time":53.86955174999999,"velocity":0.3937007874015748},{"duration":0.2608694999999983,"midi":52,"time":53.9999865,"velocity":0.3937007874015748},{"duration":0.2608694999999983,"midi":52,"time":53.9999865,"velocity":0.3937007874015748},{"duration":0.13043474999999916,"midi":76,"time":53.9999865,"velocity":0.3937007874015748},{"duration":0.13043474999999916,"midi":76,"time":53.9999865,"velocity":0.3937007874015748},{"duration":0.13043474999999916,"midi":79,"time":54.13042125,"velocity":0.3937007874015748},{"duration":0.13043474999999916,"midi":79,"time":54.13042125,"velocity":0.3937007874015748},{"duration":0.13043474999999916,"midi":41,"time":54.260856,"velocity":0.3937007874015748},{"duration":0.13043474999999916,"midi":77,"time":54.260856,"velocity":0.3937007874015748},{"duration":0.13043474999999916,"midi":77,"time":54.260856,"velocity":0.3937007874015748},{"duration":0.13043474999999916,"midi":41,"time":54.260856,"velocity":0.3937007874015748},{"duration":0.13043474999999916,"midi":72,"time":54.391290749999996,"velocity":0.3937007874015748},{"duration":0.13043474999999916,"midi":48,"time":54.391290749999996,"velocity":0.3937007874015748},{"duration":0.13043474999999916,"midi":72,"time":54.391290749999996,"velocity":0.3937007874015748},{"duration":0.13043474999999916,"midi":48,"time":54.391290749999996,"velocity":0.3937007874015748},{"duration":0.13043474999999916,"midi":72,"time":54.4238994375,"velocity":0.3937007874015748},{"duration":0.13043474999999916,"midi":72,"time":54.4238994375,"velocity":0.3937007874015748},{"duration":0.13043474999999916,"midi":49,"time":54.521725499999995,"velocity":0.3937007874015748},{"duration":0.13043474999999916,"midi":77,"time":54.521725499999995,"velocity":0.3937007874015748},{"duration":0.13043474999999916,"midi":49,"time":54.521725499999995,"velocity":0.3937007874015748},{"duration":0.13043474999999916,"midi":77,"time":54.521725499999995,"velocity":0.3937007874015748},{"duration":0.13043474999999916,"midi":77,"time":54.5543341875,"velocity":0.3937007874015748},{"duration":0.13043474999999916,"midi":77,"time":54.5543341875,"velocity":0.3937007874015748},{"duration":0.13043474999999916,"midi":79,"time":54.652160249999994,"velocity":0.3937007874015748},{"duration":0.13043474999999916,"midi":48,"time":54.652160249999994,"velocity":0.3937007874015748},{"duration":0.13043474999999916,"midi":79,"time":54.652160249999994,"velocity":0.3937007874015748},{"duration":0.13043474999999916,"midi":48,"time":54.652160249999994,"velocity":0.3937007874015748},{"duration":0.13043474999999916,"midi":79,"time":54.684768937499996,"velocity":0.3937007874015748},{"duration":0.13043474999999916,"midi":79,"time":54.684768937499996,"velocity":0.3937007874015748},{"duration":0.13043474999999916,"midi":41,"time":54.78259499999999,"velocity":0.3937007874015748},{"duration":0.13043474999999916,"midi":80,"time":54.78259499999999,"velocity":0.3937007874015748},{"duration":0.13043474999999916,"midi":80,"time":54.78259499999999,"velocity":0.3937007874015748},{"duration":0.13043474999999916,"midi":41,"time":54.78259499999999,"velocity":0.3937007874015748},{"duration":0.13043474999999916,"midi":80,"time":54.815203687499995,"velocity":0.3937007874015748},{"duration":0.13043474999999916,"midi":80,"time":54.815203687499995,"velocity":0.3937007874015748},{"duration":0.13043474999999916,"midi":48,"time":54.91302974999999,"velocity":0.3937007874015748},{"duration":0.13043474999999916,"midi":77,"time":54.91302974999999,"velocity":0.3937007874015748},{"duration":0.13043474999999916,"midi":48,"time":54.91302974999999,"velocity":0.3937007874015748},{"duration":0.13043474999999916,"midi":77,"time":54.91302974999999,"velocity":0.3937007874015748},{"duration":0.13043474999999916,"midi":77,"time":54.945638437499994,"velocity":0.3937007874015748},{"duration":0.13043474999999916,"midi":77,"time":54.945638437499994,"velocity":0.3937007874015748},{"duration":0.13043475000000626,"midi":53,"time":55.04346449999999,"velocity":0.3937007874015748},{"duration":0.13043475000000626,"midi":80,"time":55.04346449999999,"velocity":0.3937007874015748},{"duration":0.13043475000000626,"midi":53,"time":55.04346449999999,"velocity":0.3937007874015748},{"duration":0.13043475000000626,"midi":80,"time":55.04346449999999,"velocity":0.3937007874015748},{"duration":0.13043474999999916,"midi":80,"time":55.07607318749999,"velocity":0.3937007874015748},{"duration":0.13043474999999916,"midi":80,"time":55.07607318749999,"velocity":0.3937007874015748},{"duration":0.13043474999999916,"midi":82,"time":55.17389925,"velocity":0.3937007874015748},{"duration":0.13043474999999916,"midi":48,"time":55.17389925,"velocity":0.3937007874015748},{"duration":0.13043474999999916,"midi":82,"time":55.17389925,"velocity":0.3937007874015748},{"duration":0.13043474999999916,"midi":48,"time":55.17389925,"velocity":0.3937007874015748},{"duration":0.13043474999999916,"midi":82,"time":55.20650793749999,"velocity":0.3937007874015748},{"duration":0.13043474999999916,"midi":82,"time":55.20650793749999,"velocity":0.3937007874015748},{"duration":0.13043474999999916,"midi":46,"time":55.304334,"velocity":0.3937007874015748},{"duration":0.13043474999999916,"midi":84,"time":55.304334,"velocity":0.3937007874015748},{"duration":0.13043474999999916,"midi":84,"time":55.304334,"velocity":0.3937007874015748},{"duration":0.13043474999999916,"midi":46,"time":55.304334,"velocity":0.3937007874015748},{"duration":0.13043475000000626,"midi":84,"time":55.33694268749999,"velocity":0.3937007874015748},{"duration":0.13043475000000626,"midi":84,"time":55.33694268749999,"velocity":0.3937007874015748},{"duration":0.13043474999999916,"midi":53,"time":55.434768749999996,"velocity":0.3937007874015748},{"duration":0.13043474999999916,"midi":82,"time":55.434768749999996,"velocity":0.3937007874015748},{"duration":0.13043474999999916,"midi":53,"time":55.434768749999996,"velocity":0.3937007874015748},{"duration":0.13043474999999916,"midi":82,"time":55.434768749999996,"velocity":0.3937007874015748},{"duration":0.13043474999999916,"midi":82,"time":55.4673774375,"velocity":0.3937007874015748},{"duration":0.13043474999999916,"midi":82,"time":55.4673774375,"velocity":0.3937007874015748},{"duration":0.13043474999999916,"midi":80,"time":55.565203499999996,"velocity":0.3937007874015748},{"duration":0.13043474999999916,"midi":56,"time":55.565203499999996,"velocity":0.3937007874015748},{"duration":0.13043474999999916,"midi":80,"time":55.565203499999996,"velocity":0.3937007874015748},{"duration":0.13043474999999916,"midi":56,"time":55.565203499999996,"velocity":0.3937007874015748},{"duration":0.13043474999999916,"midi":80,"time":55.5978121875,"velocity":0.3937007874015748},{"duration":0.13043474999999916,"midi":80,"time":55.5978121875,"velocity":0.3937007874015748},{"duration":0.13043474999999916,"midi":58,"time":55.695638249999995,"velocity":0.3937007874015748},{"duration":0.13043474999999916,"midi":58,"time":55.695638249999995,"velocity":0.3937007874015748},{"duration":0.13043474999999916,"midi":79,"time":55.695638249999995,"velocity":0.3937007874015748},{"duration":0.13043474999999916,"midi":79,"time":55.695638249999995,"velocity":0.3937007874015748},{"duration":0.13043474999999916,"midi":79,"time":55.728246937499996,"velocity":0.3937007874015748},{"duration":0.13043474999999916,"midi":79,"time":55.728246937499996,"velocity":0.3937007874015748},{"duration":0.13043474999999916,"midi":46,"time":55.826072999999994,"velocity":0.3937007874015748},{"duration":0.13043474999999916,"midi":80,"time":55.826072999999994,"velocity":0.3937007874015748},{"duration":0.13043474999999916,"midi":46,"time":55.826072999999994,"velocity":0.3937007874015748},{"duration":0.13043474999999916,"midi":80,"time":55.826072999999994,"velocity":0.3937007874015748},{"duration":0.13043474999999916,"midi":80,"time":55.858681687499995,"velocity":0.3937007874015748},{"duration":0.13043474999999916,"midi":80,"time":55.858681687499995,"velocity":0.3937007874015748},{"duration":0.13043474999999916,"midi":56,"time":55.95650774999999,"velocity":0.3937007874015748},{"duration":0.13043474999999916,"midi":79,"time":55.95650774999999,"velocity":0.3937007874015748},{"duration":0.13043474999999916,"midi":56,"time":55.95650774999999,"velocity":0.3937007874015748},{"duration":0.13043474999999916,"midi":79,"time":55.95650774999999,"velocity":0.3937007874015748},{"duration":0.13043474999999916,"midi":79,"time":55.989116437499995,"velocity":0.3937007874015748},{"duration":0.13043474999999916,"midi":79,"time":55.989116437499995,"velocity":0.3937007874015748},{"duration":0.13043475000000626,"midi":55,"time":56.08694249999999,"velocity":0.3937007874015748},{"duration":0.13043475000000626,"midi":77,"time":56.08694249999999,"velocity":0.3937007874015748},{"duration":0.13043475000000626,"midi":55,"time":56.08694249999999,"velocity":0.3937007874015748},{"duration":0.13043475000000626,"midi":77,"time":56.08694249999999,"velocity":0.3937007874015748},{"duration":0.13043474999999916,"midi":77,"time":56.119551187499994,"velocity":0.3937007874015748},{"duration":0.13043474999999916,"midi":77,"time":56.119551187499994,"velocity":0.3937007874015748},{"duration":0.13043474999999916,"midi":53,"time":56.21737725,"velocity":0.3937007874015748},{"duration":0.13043474999999916,"midi":79,"time":56.21737725,"velocity":0.3937007874015748},{"duration":0.13043474999999916,"midi":79,"time":56.21737725,"velocity":0.3937007874015748},{"duration":0.13043474999999916,"midi":53,"time":56.21737725,"velocity":0.3937007874015748},{"duration":0.13043474999999916,"midi":79,"time":56.24998593749999,"velocity":0.3937007874015748},{"duration":0.13043474999999916,"midi":79,"time":56.24998593749999,"velocity":0.3937007874015748},{"duration":0.2608694999999983,"midi":77,"time":56.347812,"velocity":0.3937007874015748},{"duration":0.13043474999999916,"midi":49,"time":56.347812,"velocity":0.3937007874015748},{"duration":0.2608694999999983,"midi":77,"time":56.347812,"velocity":0.3937007874015748},{"duration":0.13043474999999916,"midi":49,"time":56.347812,"velocity":0.3937007874015748},{"duration":0.13043474999999916,"midi":53,"time":56.47824675,"velocity":0.3937007874015748},{"duration":0.13043474999999916,"midi":53,"time":56.47824675,"velocity":0.3937007874015748},{"duration":0.13043474999999916,"midi":56,"time":56.608681499999996,"velocity":0.3937007874015748},{"duration":0.2608694999999983,"midi":87,"time":56.608681499999996,"velocity":0.3937007874015748},{"duration":0.2608694999999983,"midi":87,"time":56.608681499999996,"velocity":0.3937007874015748},{"duration":0.13043474999999916,"midi":56,"time":56.608681499999996,"velocity":0.3937007874015748},{"duration":0.13043474999999916,"midi":53,"time":56.739116249999995,"velocity":0.3937007874015748},{"duration":0.13043474999999916,"midi":53,"time":56.739116249999995,"velocity":0.3937007874015748},{"duration":0.13043474999999916,"midi":49,"time":56.869550999999994,"velocity":0.3937007874015748},{"duration":0.13043474999999916,"midi":49,"time":56.869550999999994,"velocity":0.3937007874015748},{"duration":0.13043474999999916,"midi":85,"time":56.869550999999994,"velocity":0.3937007874015748},{"duration":0.13043474999999916,"midi":85,"time":56.869550999999994,"velocity":0.3937007874015748},{"duration":0.13043474999999916,"midi":53,"time":56.99998574999999,"velocity":0.3937007874015748},{"duration":0.13043474999999916,"midi":87,"time":56.99998574999999,"velocity":0.3937007874015748},{"duration":0.13043474999999916,"midi":87,"time":56.99998574999999,"velocity":0.3937007874015748},{"duration":0.13043474999999916,"midi":53,"time":56.99998574999999,"velocity":0.3937007874015748},{"duration":0.13043474999999916,"midi":84,"time":57.13042049999999,"velocity":0.3937007874015748},{"duration":0.13043474999999916,"midi":84,"time":57.13042049999999,"velocity":0.3937007874015748},{"duration":0.13043474999999916,"midi":56,"time":57.13042049999999,"velocity":0.3937007874015748},{"duration":0.13043474999999916,"midi":56,"time":57.13042049999999,"velocity":0.3937007874015748},{"duration":0.13043475000000626,"midi":87,"time":57.26085524999999,"velocity":0.3937007874015748},{"duration":0.13043475000000626,"midi":87,"time":57.26085524999999,"velocity":0.3937007874015748},{"duration":0.13043475000000626,"midi":53,"time":57.26085524999999,"velocity":0.3937007874015748},{"duration":0.13043475000000626,"midi":53,"time":57.26085524999999,"velocity":0.3937007874015748},{"duration":0.13043474999999916,"midi":82,"time":57.39129,"velocity":0.3937007874015748},{"duration":0.13043474999999916,"midi":48,"time":57.39129,"velocity":0.3937007874015748},{"duration":0.13043474999999916,"midi":48,"time":57.39129,"velocity":0.3937007874015748},{"duration":0.13043474999999916,"midi":82,"time":57.39129,"velocity":0.3937007874015748},{"duration":0.13043474999999916,"midi":53,"time":57.52172475,"velocity":0.3937007874015748},{"duration":0.13043474999999916,"midi":84,"time":57.52172475,"velocity":0.3937007874015748},{"duration":0.13043474999999916,"midi":53,"time":57.52172475,"velocity":0.3937007874015748},{"duration":0.13043474999999916,"midi":84,"time":57.52172475,"velocity":0.3937007874015748},{"duration":0.13043474999999916,"midi":44,"time":57.652159499999996,"velocity":0.3937007874015748},{"duration":0.13043474999999916,"midi":80,"time":57.652159499999996,"velocity":0.3937007874015748},{"duration":0.13043474999999916,"midi":44,"time":57.652159499999996,"velocity":0.3937007874015748},{"duration":0.13043474999999916,"midi":80,"time":57.652159499999996,"velocity":0.3937007874015748},{"duration":0.13043474999999916,"midi":46,"time":57.782594249999995,"velocity":0.3937007874015748},{"duration":0.13043474999999916,"midi":46,"time":57.782594249999995,"velocity":0.3937007874015748},{"duration":0.13043474999999916,"midi":82,"time":57.782594249999995,"velocity":0.3937007874015748},{"duration":0.13043474999999916,"midi":82,"time":57.782594249999995,"velocity":0.3937007874015748},{"duration":0.13043474999999916,"midi":48,"time":57.913028999999995,"velocity":0.3937007874015748},{"duration":0.13043474999999916,"midi":48,"time":57.913028999999995,"velocity":0.3937007874015748},{"duration":0.5217389999999966,"midi":84,"time":57.913028999999995,"velocity":0.3937007874015748},{"duration":0.5217389999999966,"midi":84,"time":57.913028999999995,"velocity":0.3937007874015748},{"duration":0.13043474999999916,"midi":52,"time":58.043463749999994,"velocity":0.3937007874015748},{"duration":0.13043474999999916,"midi":52,"time":58.043463749999994,"velocity":0.3937007874015748},{"duration":0.13043474999999916,"midi":40,"time":58.17389849999999,"velocity":0.3937007874015748},{"duration":0.13043474999999916,"midi":40,"time":58.17389849999999,"velocity":0.3937007874015748},{"duration":0.13043474999999916,"midi":52,"time":58.30433324999999,"velocity":0.3937007874015748},{"duration":0.13043474999999916,"midi":52,"time":58.30433324999999,"velocity":0.3937007874015748},{"duration":0.2608695000000054,"midi":72,"time":58.43476799999999,"velocity":0.3937007874015748},{"duration":0.2608695000000054,"midi":84,"time":58.43476799999999,"velocity":0.3937007874015748},{"duration":0.2608695000000054,"midi":72,"time":58.43476799999999,"velocity":0.3937007874015748},{"duration":0.2608695000000054,"midi":84,"time":58.43476799999999,"velocity":0.3937007874015748},{"duration":0.2608695000000054,"midi":80,"time":58.43476799999999,"velocity":0.3937007874015748},{"duration":0.2608695000000054,"midi":80,"time":58.43476799999999,"velocity":0.3937007874015748},{"duration":0.2608694999999983,"midi":80,"time":58.6956375,"velocity":0.3937007874015748},{"duration":0.2608694999999983,"midi":80,"time":58.6956375,"velocity":0.3937007874015748},{"duration":0.2608694999999983,"midi":68,"time":58.6956375,"velocity":0.3937007874015748},{"duration":0.2608694999999983,"midi":77,"time":58.6956375,"velocity":0.3937007874015748},{"duration":0.2608694999999983,"midi":77,"time":58.6956375,"velocity":0.3937007874015748},{"duration":0.2608694999999983,"midi":68,"time":58.6956375,"velocity":0.3937007874015748},{"duration":0.2608694999999983,"midi":72,"time":58.956506999999995,"velocity":0.3937007874015748},{"duration":0.2608694999999983,"midi":65,"time":58.956506999999995,"velocity":0.3937007874015748},{"duration":0.2608694999999983,"midi":77,"time":58.956506999999995,"velocity":0.3937007874015748},{"duration":0.2608694999999983,"midi":77,"time":58.956506999999995,"velocity":0.3937007874015748},{"duration":0.2608694999999983,"midi":72,"time":58.956506999999995,"velocity":0.3937007874015748},{"duration":0.2608694999999983,"midi":65,"time":58.956506999999995,"velocity":0.3937007874015748},{"duration":0.2608694999999983,"midi":60,"time":59.21737649999999,"velocity":0.3937007874015748},{"duration":0.2608694999999983,"midi":72,"time":59.21737649999999,"velocity":0.3937007874015748},{"duration":0.2608694999999983,"midi":68,"time":59.21737649999999,"velocity":0.3937007874015748},{"duration":0.2608694999999983,"midi":68,"time":59.21737649999999,"velocity":0.3937007874015748},{"duration":0.2608694999999983,"midi":72,"time":59.21737649999999,"velocity":0.3937007874015748},{"duration":0.2608694999999983,"midi":60,"time":59.21737649999999,"velocity":0.3937007874015748},{"duration":0.2608695000000054,"midi":68,"time":59.47824599999999,"velocity":0.3937007874015748},{"duration":0.2608695000000054,"midi":77,"time":59.47824599999999,"velocity":0.3937007874015748},{"duration":0.2608695000000054,"midi":68,"time":59.47824599999999,"velocity":0.3937007874015748},{"duration":0.2608695000000054,"midi":77,"time":59.47824599999999,"velocity":0.3937007874015748},{"duration":0.2608695000000054,"midi":80,"time":59.47824599999999,"velocity":0.3937007874015748},{"duration":0.2608695000000054,"midi":80,"time":59.47824599999999,"velocity":0.3937007874015748},{"duration":0.13043474999999916,"midi":65,"time":59.7391155,"velocity":0.3937007874015748},{"duration":0.13043474999999916,"midi":72,"time":59.7391155,"velocity":0.3937007874015748},{"duration":0.13043474999999916,"midi":77,"time":59.7391155,"velocity":0.3937007874015748},{"duration":0.13043474999999916,"midi":65,"time":59.7391155,"velocity":0.3937007874015748},{"duration":0.13043474999999916,"midi":77,"time":59.7391155,"velocity":0.3937007874015748},{"duration":0.13043474999999916,"midi":72,"time":59.7391155,"velocity":0.3937007874015748},{"duration":0.6521737499999958,"midi":73,"time":59.869550249999996,"velocity":0.3937007874015748},{"duration":0.6521737499999958,"midi":67,"time":59.869550249999996,"velocity":0.3937007874015748},{"duration":0.6521737499999958,"midi":79,"time":59.869550249999996,"velocity":0.3937007874015748},{"duration":0.6521737499999958,"midi":67,"time":59.869550249999996,"velocity":0.3937007874015748},{"duration":0.6521737499999958,"midi":73,"time":59.869550249999996,"velocity":0.3937007874015748},{"duration":0.6521737499999958,"midi":79,"time":59.869550249999996,"velocity":0.3937007874015748},{"duration":0.2608695000000054,"midi":68,"time":60.52172399999999,"velocity":0.3937007874015748},{"duration":0.2608695000000054,"midi":80,"time":60.52172399999999,"velocity":0.3937007874015748},{"duration":0.2608695000000054,"midi":77,"time":60.52172399999999,"velocity":0.3937007874015748},{"duration":0.2608695000000054,"midi":80,"time":60.52172399999999,"velocity":0.3937007874015748},{"duration":0.2608695000000054,"midi":68,"time":60.52172399999999,"velocity":0.3937007874015748},{"duration":0.2608695000000054,"midi":77,"time":60.52172399999999,"velocity":0.3937007874015748},{"duration":0.13043474999999916,"midi":72,"time":60.7825935,"velocity":0.3937007874015748},{"duration":0.13043474999999916,"midi":65,"time":60.7825935,"velocity":0.3937007874015748},{"duration":0.13043474999999916,"midi":65,"time":60.7825935,"velocity":0.3937007874015748},{"duration":0.13043474999999916,"midi":72,"time":60.7825935,"velocity":0.3937007874015748},{"duration":0.13043474999999916,"midi":77,"time":60.7825935,"velocity":0.3937007874015748},{"duration":0.13043474999999916,"midi":77,"time":60.7825935,"velocity":0.3937007874015748},{"duration":0.6521737499999958,"midi":73,"time":60.913028249999996,"velocity":0.3937007874015748},{"duration":0.6521737499999958,"midi":67,"time":60.913028249999996,"velocity":0.3937007874015748},{"duration":0.6521737499999958,"midi":67,"time":60.913028249999996,"velocity":0.3937007874015748},{"duration":0.6521737499999958,"midi":79,"time":60.913028249999996,"velocity":0.3937007874015748},{"duration":0.6521737499999958,"midi":73,"time":60.913028249999996,"velocity":0.3937007874015748},{"duration":0.6521737499999958,"midi":79,"time":60.913028249999996,"velocity":0.3937007874015748},{"duration":0.2608695000000054,"midi":68,"time":61.56520199999999,"velocity":0.3937007874015748},{"duration":0.2608695000000054,"midi":77,"time":61.56520199999999,"velocity":0.3937007874015748},{"duration":0.2608695000000054,"midi":77,"time":61.56520199999999,"velocity":0.3937007874015748},{"duration":0.2608695000000054,"midi":80,"time":61.56520199999999,"velocity":0.3937007874015748},{"duration":0.2608695000000054,"midi":68,"time":61.56520199999999,"velocity":0.3937007874015748},{"duration":0.2608695000000054,"midi":80,"time":61.56520199999999,"velocity":0.3937007874015748},{"duration":0.13043474999999916,"midi":72,"time":61.8260715,"velocity":0.3937007874015748},{"duration":0.13043474999999916,"midi":72,"time":61.8260715,"velocity":0.3937007874015748},{"duration":0.13043474999999916,"midi":77,"time":61.8260715,"velocity":0.3937007874015748},{"duration":0.13043474999999916,"midi":65,"time":61.8260715,"velocity":0.3937007874015748},{"duration":0.13043474999999916,"midi":77,"time":61.8260715,"velocity":0.3937007874015748},{"duration":0.13043474999999916,"midi":65,"time":61.8260715,"velocity":0.3937007874015748},{"duration":0.2608694999999983,"midi":73,"time":61.95650625,"velocity":0.3937007874015748},{"duration":0.2608694999999983,"midi":67,"time":61.95650625,"velocity":0.3937007874015748},{"duration":0.2608694999999983,"midi":73,"time":61.95650625,"velocity":0.3937007874015748},{"duration":0.2608694999999983,"midi":79,"time":61.95650625,"velocity":0.3937007874015748},{"duration":0.2608694999999983,"midi":79,"time":61.95650625,"velocity":0.3937007874015748},{"duration":0.2608694999999983,"midi":67,"time":61.95650625,"velocity":0.3937007874015748},{"duration":0.13043474999999916,"midi":73,"time":62.217375749999995,"velocity":0.3937007874015748},{"duration":0.13043474999999916,"midi":85,"time":62.217375749999995,"velocity":0.3937007874015748},{"duration":0.13043474999999916,"midi":85,"time":62.217375749999995,"velocity":0.3937007874015748},{"duration":0.13043474999999916,"midi":73,"time":62.217375749999995,"velocity":0.3937007874015748},{"duration":0.13043474999999916,"midi":84,"time":62.347810499999994,"velocity":0.3937007874015748},{"duration":0.13043474999999916,"midi":72,"time":62.347810499999994,"velocity":0.3937007874015748},{"duration":0.13043474999999916,"midi":72,"time":62.347810499999994,"velocity":0.3937007874015748},{"duration":0.13043474999999916,"midi":84,"time":62.347810499999994,"velocity":0.3937007874015748},{"duration":0.13043474999999916,"midi":73,"time":62.47824524999999,"velocity":0.3937007874015748},{"duration":0.13043474999999916,"midi":85,"time":62.47824524999999,"velocity":0.3937007874015748},{"duration":0.13043474999999916,"midi":85,"time":62.47824524999999,"velocity":0.3937007874015748},{"duration":0.13043474999999916,"midi":73,"time":62.47824524999999,"velocity":0.3937007874015748},{"duration":0.2608694999999983,"midi":72,"time":62.60867999999999,"velocity":0.3937007874015748},{"duration":0.2608694999999983,"midi":84,"time":62.60867999999999,"velocity":0.3937007874015748},{"duration":0.2608694999999983,"midi":72,"time":62.60867999999999,"velocity":0.3937007874015748},{"duration":0.2608694999999983,"midi":84,"time":62.60867999999999,"velocity":0.3937007874015748},{"duration":0.2608695000000054,"midi":89,"time":62.86954949999999,"velocity":0.3937007874015748},{"duration":0.2608695000000054,"midi":77,"time":62.86954949999999,"velocity":0.3937007874015748},{"duration":0.2608695000000054,"midi":89,"time":62.86954949999999,"velocity":0.3937007874015748},{"duration":0.2608695000000054,"midi":77,"time":62.86954949999999,"velocity":0.3937007874015748},{"duration":0.2608694999999983,"midi":70,"time":63.130418999999996,"velocity":0.3937007874015748},{"duration":0.2608694999999983,"midi":70,"time":63.130418999999996,"velocity":0.3937007874015748},{"duration":0.2608694999999983,"midi":82,"time":63.130418999999996,"velocity":0.3937007874015748},{"duration":0.2608694999999983,"midi":82,"time":63.130418999999996,"velocity":0.3937007874015748},{"duration":0.2608694999999983,"midi":80,"time":63.391288499999995,"velocity":0.3937007874015748},{"duration":0.2608694999999983,"midi":80,"time":63.391288499999995,"velocity":0.3937007874015748},{"duration":0.2608694999999983,"midi":68,"time":63.391288499999995,"velocity":0.3937007874015748},{"duration":0.2608694999999983,"midi":68,"time":63.391288499999995,"velocity":0.3937007874015748},{"duration":0.13043474999999916,"midi":70,"time":63.65215799999999,"velocity":0.3937007874015748},{"duration":0.13043474999999916,"midi":70,"time":63.65215799999999,"velocity":0.3937007874015748},{"duration":0.13043474999999916,"midi":82,"time":63.65215799999999,"velocity":0.3937007874015748},{"duration":0.13043474999999916,"midi":82,"time":63.65215799999999,"velocity":0.3937007874015748},{"duration":0.2608694999999983,"midi":80,"time":63.78259274999999,"velocity":0.3937007874015748},{"duration":0.2608694999999983,"midi":80,"time":63.78259274999999,"velocity":0.3937007874015748},{"duration":0.2608694999999983,"midi":68,"time":63.78259274999999,"velocity":0.3937007874015748},{"duration":0.2608694999999983,"midi":68,"time":63.78259274999999,"velocity":0.3937007874015748},{"duration":0.39130425000000457,"midi":70,"time":64.04346224999999,"velocity":0.3937007874015748},{"duration":0.39130425000000457,"midi":82,"time":64.04346224999999,"velocity":0.3937007874015748},{"duration":0.39130425000000457,"midi":70,"time":64.04346224999999,"velocity":0.3937007874015748},{"duration":0.39130425000000457,"midi":82,"time":64.04346224999999,"velocity":0.3937007874015748},{"duration":0.13043475000000626,"midi":80,"time":64.4347665,"velocity":0.3937007874015748},{"duration":0.13043475000000626,"midi":68,"time":64.4347665,"velocity":0.3937007874015748},{"duration":0.13043475000000626,"midi":68,"time":64.4347665,"velocity":0.3937007874015748},{"duration":0.13043475000000626,"midi":80,"time":64.4347665,"velocity":0.3937007874015748},{"duration":0.13043474999999205,"midi":82,"time":64.56520125,"velocity":0.3937007874015748},{"duration":0.13043474999999205,"midi":82,"time":64.56520125,"velocity":0.3937007874015748},{"duration":0.13043474999999205,"midi":70,"time":64.56520125,"velocity":0.3937007874015748},{"duration":0.13043474999999205,"midi":70,"time":64.56520125,"velocity":0.3937007874015748},{"duration":0.13043475000000626,"midi":71,"time":64.695636,"velocity":0.3937007874015748},{"duration":0.13043475000000626,"midi":71,"time":64.695636,"velocity":0.3937007874015748},{"duration":0.13043475000000626,"midi":83,"time":64.695636,"velocity":0.3937007874015748},{"duration":0.13043475000000626,"midi":83,"time":64.695636,"velocity":0.3937007874015748},{"duration":0.13043474999999205,"midi":70,"time":64.82607075,"velocity":0.3937007874015748},{"duration":0.13043474999999205,"midi":82,"time":64.82607075,"velocity":0.3937007874015748},{"duration":0.13043474999999205,"midi":70,"time":64.82607075,"velocity":0.3937007874015748},{"duration":0.13043474999999205,"midi":82,"time":64.82607075,"velocity":0.3937007874015748},{"duration":0.2608694999999983,"midi":80,"time":64.95650549999999,"velocity":0.3937007874015748},{"duration":0.2608694999999983,"midi":68,"time":64.95650549999999,"velocity":0.3937007874015748},{"duration":0.2608694999999983,"midi":68,"time":64.95650549999999,"velocity":0.3937007874015748},{"duration":0.2608694999999983,"midi":80,"time":64.95650549999999,"velocity":0.3937007874015748},{"duration":0.2608694999999983,"midi":64,"time":65.21737499999999,"velocity":0.3937007874015748},{"duration":0.2608694999999983,"midi":64,"time":65.21737499999999,"velocity":0.3937007874015748},{"duration":0.2608694999999983,"midi":76,"time":65.21737499999999,"velocity":0.3937007874015748},{"duration":0.2608694999999983,"midi":76,"time":65.21737499999999,"velocity":0.3937007874015748},{"duration":0.2608695000000125,"midi":72,"time":65.47824449999999,"velocity":0.3937007874015748},{"duration":0.2608695000000125,"midi":60,"time":65.47824449999999,"velocity":0.3937007874015748},{"duration":0.2608695000000125,"midi":60,"time":65.47824449999999,"velocity":0.3937007874015748},{"duration":0.2608695000000125,"midi":72,"time":65.47824449999999,"velocity":0.3937007874015748},{"duration":0.2608694999999983,"midi":61,"time":65.739114,"velocity":0.3937007874015748},{"duration":0.2608694999999983,"midi":73,"time":65.739114,"velocity":0.3937007874015748},{"duration":0.2608694999999983,"midi":61,"time":65.739114,"velocity":0.3937007874015748},{"duration":0.2608694999999983,"midi":73,"time":65.739114,"velocity":0.3937007874015748},{"duration":0.2608694999999983,"midi":64,"time":65.9999835,"velocity":0.3937007874015748},{"duration":0.2608694999999983,"midi":76,"time":65.9999835,"velocity":0.3937007874015748},{"duration":0.2608694999999983,"midi":76,"time":65.9999835,"velocity":0.3937007874015748},{"duration":0.2608694999999983,"midi":64,"time":65.9999835,"velocity":0.3937007874015748},{"duration":0.5217389999999966,"midi":65,"time":66.260853,"velocity":0.3937007874015748},{"duration":0.5217389999999966,"midi":65,"time":66.260853,"velocity":0.3937007874015748},{"duration":0.5217389999999966,"midi":77,"time":66.260853,"velocity":0.3937007874015748},{"duration":0.5217389999999966,"midi":77,"time":66.260853,"velocity":0.3937007874015748},{"duration":0.13043475000000626,"midi":61,"time":66.782592,"velocity":0.3937007874015748},{"duration":0.13043475000000626,"midi":61,"time":66.782592,"velocity":0.3937007874015748},{"duration":0.13043474999999205,"midi":68,"time":66.91302675,"velocity":0.3937007874015748},{"duration":0.13043474999999205,"midi":68,"time":66.91302675,"velocity":0.3937007874015748},{"duration":0.13043475000000626,"midi":70,"time":67.04346149999999,"velocity":0.3937007874015748},{"duration":0.13043475000000626,"midi":94,"time":67.04346149999999,"velocity":0.3937007874015748},{"duration":0.13043475000000626,"midi":94,"time":67.04346149999999,"velocity":0.3937007874015748},{"duration":0.13043475000000626,"midi":70,"time":67.04346149999999,"velocity":0.3937007874015748},{"duration":0.13043475000000626,"midi":94,"time":67.04346149999999,"velocity":0.3937007874015748},{"duration":0.13043475000000626,"midi":94,"time":67.04346149999999,"velocity":0.3937007874015748},{"duration":0.13043474999999205,"midi":92,"time":67.17389625,"velocity":0.3937007874015748},{"duration":0.13043474999999205,"midi":92,"time":67.17389625,"velocity":0.3937007874015748},{"duration":0.13043474999999205,"midi":68,"time":67.17389625,"velocity":0.3937007874015748},{"duration":0.13043474999999205,"midi":92,"time":67.17389625,"velocity":0.3937007874015748},{"duration":0.13043474999999205,"midi":92,"time":67.17389625,"velocity":0.3937007874015748},{"duration":0.13043474999999205,"midi":68,"time":67.17389625,"velocity":0.3937007874015748},{"duration":0.13043475000000626,"midi":61,"time":67.30433099999999,"velocity":0.3937007874015748},{"duration":0.13043475000000626,"midi":61,"time":67.30433099999999,"velocity":0.3937007874015748},{"duration":0.13043474999999205,"midi":94,"time":67.43476575,"velocity":0.3937007874015748},{"duration":0.13043474999999205,"midi":94,"time":67.43476575,"velocity":0.3937007874015748},{"duration":0.13043474999999205,"midi":94,"time":67.43476575,"velocity":0.3937007874015748},{"duration":0.13043474999999205,"midi":68,"time":67.43476575,"velocity":0.3937007874015748},{"duration":0.13043474999999205,"midi":68,"time":67.43476575,"velocity":0.3937007874015748},{"duration":0.13043474999999205,"midi":94,"time":67.43476575,"velocity":0.3937007874015748},{"duration":0.13043475000000626,"midi":92,"time":67.56520049999999,"velocity":0.3937007874015748},{"duration":0.13043475000000626,"midi":92,"time":67.56520049999999,"velocity":0.3937007874015748},{"duration":0.13043475000000626,"midi":92,"time":67.56520049999999,"velocity":0.3937007874015748},{"duration":0.13043475000000626,"midi":70,"time":67.56520049999999,"velocity":0.3937007874015748},{"duration":0.13043475000000626,"midi":92,"time":67.56520049999999,"velocity":0.3937007874015748},{"duration":0.13043475000000626,"midi":70,"time":67.56520049999999,"velocity":0.3937007874015748},{"duration":0.13043474999999205,"midi":68,"time":67.69563525,"velocity":0.3937007874015748},{"duration":0.13043474999999205,"midi":68,"time":67.69563525,"velocity":0.3937007874015748},{"duration":0.13043475000000626,"midi":61,"time":67.82606999999999,"velocity":0.3937007874015748},{"duration":0.13043475000000626,"midi":61,"time":67.82606999999999,"velocity":0.3937007874015748},{"duration":0.13043475000000626,"midi":68,"time":67.95650475,"velocity":0.3937007874015748},{"duration":0.13043475000000626,"midi":68,"time":67.95650475,"velocity":0.3937007874015748},{"duration":0.13043474999999205,"midi":94,"time":68.0869395,"velocity":0.3937007874015748},{"duration":0.13043474999999205,"midi":94,"time":68.0869395,"velocity":0.3937007874015748},{"duration":0.13043474999999205,"midi":94,"time":68.0869395,"velocity":0.3937007874015748},{"duration":0.13043474999999205,"midi":94,"time":68.0869395,"velocity":0.3937007874015748},{"duration":0.13043474999999205,"midi":70,"time":68.0869395,"velocity":0.3937007874015748},{"duration":0.13043474999999205,"midi":70,"time":68.0869395,"velocity":0.3937007874015748},{"duration":0.13043475000000626,"midi":92,"time":68.21737424999999,"velocity":0.3937007874015748},{"duration":0.13043475000000626,"midi":68,"time":68.21737424999999,"velocity":0.3937007874015748},{"duration":0.13043475000000626,"midi":92,"time":68.21737424999999,"velocity":0.3937007874015748},{"duration":0.13043475000000626,"midi":68,"time":68.21737424999999,"velocity":0.3937007874015748},{"duration":0.13043475000000626,"midi":92,"time":68.21737424999999,"velocity":0.3937007874015748},{"duration":0.13043475000000626,"midi":92,"time":68.21737424999999,"velocity":0.3937007874015748},{"duration":0.13043474999999205,"midi":61,"time":68.347809,"velocity":0.3937007874015748},{"duration":0.13043474999999205,"midi":61,"time":68.347809,"velocity":0.3937007874015748},{"duration":0.13043475000000626,"midi":68,"time":68.47824374999999,"velocity":0.3937007874015748},{"duration":0.13043475000000626,"midi":94,"time":68.47824374999999,"velocity":0.3937007874015748},{"duration":0.13043475000000626,"midi":94,"time":68.47824374999999,"velocity":0.3937007874015748},{"duration":0.13043475000000626,"midi":94,"time":68.47824374999999,"velocity":0.3937007874015748},{"duration":0.13043475000000626,"midi":68,"time":68.47824374999999,"velocity":0.3937007874015748},{"duration":0.13043475000000626,"midi":94,"time":68.47824374999999,"velocity":0.3937007874015748},{"duration":0.13043474999999205,"midi":70,"time":68.6086785,"velocity":0.3937007874015748},{"duration":0.13043474999999205,"midi":92,"time":68.6086785,"velocity":0.3937007874015748},{"duration":0.13043474999999205,"midi":92,"time":68.6086785,"velocity":0.3937007874015748},{"duration":0.13043474999999205,"midi":92,"time":68.6086785,"velocity":0.3937007874015748},{"duration":0.13043474999999205,"midi":70,"time":68.6086785,"velocity":0.3937007874015748},{"duration":0.13043474999999205,"midi":92,"time":68.6086785,"velocity":0.3937007874015748},{"duration":0.13043475000000626,"midi":68,"time":68.73911324999999,"velocity":0.3937007874015748},{"duration":0.13043475000000626,"midi":68,"time":68.73911324999999,"velocity":0.3937007874015748},{"duration":0.13043474999999205,"midi":92,"time":68.869548,"velocity":0.3937007874015748},{"duration":0.13043474999999205,"midi":65,"time":68.869548,"velocity":0.3937007874015748},{"duration":0.13043474999999205,"midi":65,"time":68.869548,"velocity":0.3937007874015748},{"duration":0.13043474999999205,"midi":92,"time":68.869548,"velocity":0.3937007874015748},{"duration":0.13043474999999205,"midi":92,"time":68.869548,"velocity":0.3937007874015748},{"duration":0.13043474999999205,"midi":92,"time":68.869548,"velocity":0.3937007874015748},{"duration":0.05842389843749629,"midi":94,"time":68.99998274999999,"velocity":0.3937007874015748},{"duration":0.05842389843749629,"midi":94,"time":68.99998274999999,"velocity":0.3937007874015748},{"duration":0.13043475000000626,"midi":72,"time":68.99998274999999,"velocity":0.3937007874015748},{"duration":0.13043475000000626,"midi":72,"time":68.99998274999999,"velocity":0.3937007874015748},{"duration":0.05842389843749629,"midi":94,"time":68.99998274999999,"velocity":0.3937007874015748},{"duration":0.05842389843749629,"midi":94,"time":68.99998274999999,"velocity":0.3937007874015748},{"duration":0.05842389843749629,"midi":92,"time":69.06520012499999,"velocity":0.3937007874015748},{"duration":0.05842389843749629,"midi":92,"time":69.06520012499999,"velocity":0.3937007874015748},{"duration":0.05842389843749629,"midi":92,"time":69.06520012499999,"velocity":0.3937007874015748},{"duration":0.05842389843749629,"midi":92,"time":69.06520012499999,"velocity":0.3937007874015748},{"duration":0.13043475000000626,"midi":73,"time":69.1304175,"velocity":0.3937007874015748},{"duration":0.22826081249999675,"midi":89,"time":69.1304175,"velocity":0.3937007874015748},{"duration":0.22826081249999675,"midi":89,"time":69.1304175,"velocity":0.3937007874015748},{"duration":0.13043475000000626,"midi":73,"time":69.1304175,"velocity":0.3937007874015748},{"duration":0.22826081249999675,"midi":89,"time":69.1304175,"velocity":0.3937007874015748},{"duration":0.22826081249999675,"midi":89,"time":69.1304175,"velocity":0.3937007874015748},{"duration":0.13043474999999205,"midi":72,"time":69.26085225,"velocity":0.3937007874015748},{"duration":0.13043474999999205,"midi":72,"time":69.26085225,"velocity":0.3937007874015748},{"duration":0.2608694999999983,"midi":89,"time":69.39128699999999,"velocity":0.3937007874015748},{"duration":0.13043475000000626,"midi":65,"time":69.39128699999999,"velocity":0.3937007874015748},{"duration":0.2608694999999983,"midi":89,"time":69.39128699999999,"velocity":0.3937007874015748},{"duration":0.2608694999999983,"midi":89,"time":69.39128699999999,"velocity":0.3937007874015748},{"duration":0.13043475000000626,"midi":65,"time":69.39128699999999,"velocity":0.3937007874015748},{"duration":0.2608694999999983,"midi":89,"time":69.39128699999999,"velocity":0.3937007874015748},{"duration":0.13043474999999205,"midi":72,"time":69.52172175,"velocity":0.3937007874015748},{"duration":0.13043474999999205,"midi":72,"time":69.52172175,"velocity":0.3937007874015748},{"duration":0.13043475000000626,"midi":73,"time":69.65215649999999,"velocity":0.3937007874015748},{"duration":0.13043475000000626,"midi":88,"time":69.65215649999999,"velocity":0.3937007874015748},{"duration":0.13043475000000626,"midi":73,"time":69.65215649999999,"velocity":0.3937007874015748},{"duration":0.13043475000000626,"midi":88,"time":69.65215649999999,"velocity":0.3937007874015748},{"duration":0.13043475000000626,"midi":88,"time":69.65215649999999,"velocity":0.3937007874015748},{"duration":0.13043475000000626,"midi":88,"time":69.65215649999999,"velocity":0.3937007874015748},{"duration":0.13043474999999205,"midi":89,"time":69.78259125,"velocity":0.3937007874015748},{"duration":0.13043474999999205,"midi":72,"time":69.78259125,"velocity":0.3937007874015748},{"duration":0.13043474999999205,"midi":89,"time":69.78259125,"velocity":0.3937007874015748},{"duration":0.13043474999999205,"midi":72,"time":69.78259125,"velocity":0.3937007874015748},{"duration":0.13043474999999205,"midi":89,"time":69.78259125,"velocity":0.3937007874015748},{"duration":0.13043474999999205,"midi":89,"time":69.78259125,"velocity":0.3937007874015748},{"duration":0.13043475000000626,"midi":65,"time":69.91302599999999,"velocity":0.3937007874015748},{"duration":0.13043475000000626,"midi":65,"time":69.91302599999999,"velocity":0.3937007874015748},{"duration":0.13043475000000626,"midi":72,"time":70.04346075,"velocity":0.3937007874015748},{"duration":0.13043475000000626,"midi":72,"time":70.04346075,"velocity":0.3937007874015748},{"duration":0.13043474999999205,"midi":73,"time":70.1738955,"velocity":0.3937007874015748},{"duration":0.13043474999999205,"midi":73,"time":70.1738955,"velocity":0.3937007874015748},{"duration":0.13043475000000626,"midi":72,"time":70.30433024999999,"velocity":0.3937007874015748},{"duration":0.13043475000000626,"midi":72,"time":70.30433024999999,"velocity":0.3937007874015748},{"duration":0.13043474999999205,"midi":65,"time":70.434765,"velocity":0.3937007874015748},{"duration":0.13043474999999205,"midi":65,"time":70.434765,"velocity":0.3937007874015748},{"duration":0.13043475000000626,"midi":72,"time":70.56519974999999,"velocity":0.3937007874015748},{"duration":0.13043475000000626,"midi":72,"time":70.56519974999999,"velocity":0.3937007874015748},{"duration":0.13043474999999205,"midi":73,"time":70.6956345,"velocity":0.3937007874015748},{"duration":0.13043474999999205,"midi":73,"time":70.6956345,"velocity":0.3937007874015748},{"duration":0.13043475000000626,"midi":72,"time":70.82606924999999,"velocity":0.3937007874015748},{"duration":0.13043475000000626,"midi":72,"time":70.82606924999999,"velocity":0.3937007874015748},{"duration":0.13043474999999205,"midi":61,"time":70.956504,"velocity":0.3937007874015748},{"duration":0.13043474999999205,"midi":61,"time":70.956504,"velocity":0.3937007874015748},{"duration":0.13043475000000626,"midi":68,"time":71.08693874999999,"velocity":0.3937007874015748},{"duration":0.13043475000000626,"midi":68,"time":71.08693874999999,"velocity":0.3937007874015748},{"duration":0.13043475000000626,"midi":94,"time":71.2173735,"velocity":0.3937007874015748},{"duration":0.13043475000000626,"midi":94,"time":71.2173735,"velocity":0.3937007874015748},{"duration":0.13043475000000626,"midi":70,"time":71.2173735,"velocity":0.3937007874015748},{"duration":0.13043475000000626,"midi":70,"time":71.2173735,"velocity":0.3937007874015748},{"duration":0.13043475000000626,"midi":94,"time":71.2173735,"velocity":0.3937007874015748},{"duration":0.13043475000000626,"midi":94,"time":71.2173735,"velocity":0.3937007874015748},{"duration":0.13043474999999205,"midi":68,"time":71.34780825,"velocity":0.3937007874015748},{"duration":0.13043474999999205,"midi":92,"time":71.34780825,"velocity":0.3937007874015748},{"duration":0.13043474999999205,"midi":92,"time":71.34780825,"velocity":0.3937007874015748},{"duration":0.13043474999999205,"midi":92,"time":71.34780825,"velocity":0.3937007874015748},{"duration":0.13043474999999205,"midi":92,"time":71.34780825,"velocity":0.3937007874015748},{"duration":0.13043474999999205,"midi":68,"time":71.34780825,"velocity":0.3937007874015748},{"duration":0.13043475000000626,"midi":61,"time":71.47824299999999,"velocity":0.3937007874015748},{"duration":0.13043475000000626,"midi":61,"time":71.47824299999999,"velocity":0.3937007874015748},{"duration":0.13043474999999205,"midi":94,"time":71.60867775,"velocity":0.3937007874015748},{"duration":0.13043474999999205,"midi":68,"time":71.60867775,"velocity":0.3937007874015748},{"duration":0.13043474999999205,"midi":94,"time":71.60867775,"velocity":0.3937007874015748},{"duration":0.13043474999999205,"midi":68,"time":71.60867775,"velocity":0.3937007874015748},{"duration":0.13043474999999205,"midi":94,"time":71.60867775,"velocity":0.3937007874015748},{"duration":0.13043474999999205,"midi":94,"time":71.60867775,"velocity":0.3937007874015748},{"duration":0.13043475000000626,"midi":70,"time":71.73911249999999,"velocity":0.3937007874015748},{"duration":0.13043475000000626,"midi":70,"time":71.73911249999999,"velocity":0.3937007874015748},{"duration":0.13043475000000626,"midi":92,"time":71.73911249999999,"velocity":0.3937007874015748},{"duration":0.13043475000000626,"midi":92,"time":71.73911249999999,"velocity":0.3937007874015748},{"duration":0.13043475000000626,"midi":92,"time":71.73911249999999,"velocity":0.3937007874015748},{"duration":0.13043475000000626,"midi":92,"time":71.73911249999999,"velocity":0.3937007874015748},{"duration":0.13043474999999205,"midi":68,"time":71.86954725,"velocity":0.3937007874015748},{"duration":0.13043474999999205,"midi":68,"time":71.86954725,"velocity":0.3937007874015748},{"duration":0.13043475000000626,"midi":61,"time":71.99998199999999,"velocity":0.3937007874015748},{"duration":0.13043475000000626,"midi":61,"time":71.99998199999999,"velocity":0.3937007874015748},{"duration":0.13043474999999205,"midi":68,"time":72.13041675,"velocity":0.3937007874015748},{"duration":0.13043474999999205,"midi":68,"time":72.13041675,"velocity":0.3937007874015748},{"duration":0.13043475000000626,"midi":94,"time":72.26085149999999,"velocity":0.3937007874015748},{"duration":0.13043475000000626,"midi":94,"time":72.26085149999999,"velocity":0.3937007874015748},{"duration":0.13043475000000626,"midi":70,"time":72.26085149999999,"velocity":0.3937007874015748},{"duration":0.13043475000000626,"midi":94,"time":72.26085149999999,"velocity":0.3937007874015748},{"duration":0.13043475000000626,"midi":70,"time":72.26085149999999,"velocity":0.3937007874015748},{"duration":0.13043475000000626,"midi":94,"time":72.26085149999999,"velocity":0.3937007874015748},{"duration":0.13043475000000626,"midi":92,"time":72.39128625,"velocity":0.3937007874015748},{"duration":0.13043475000000626,"midi":92,"time":72.39128625,"velocity":0.3937007874015748},{"duration":0.13043475000000626,"midi":92,"time":72.39128625,"velocity":0.3937007874015748},{"duration":0.13043475000000626,"midi":68,"time":72.39128625,"velocity":0.3937007874015748},{"duration":0.13043475000000626,"midi":92,"time":72.39128625,"velocity":0.3937007874015748},{"duration":0.13043475000000626,"midi":68,"time":72.39128625,"velocity":0.3937007874015748},{"duration":0.13043474999999205,"midi":61,"time":72.521721,"velocity":0.3937007874015748},{"duration":0.13043474999999205,"midi":61,"time":72.521721,"velocity":0.3937007874015748},{"duration":0.13043475000000626,"midi":94,"time":72.65215574999999,"velocity":0.3937007874015748},{"duration":0.13043475000000626,"midi":94,"time":72.65215574999999,"velocity":0.3937007874015748},{"duration":0.13043475000000626,"midi":94,"time":72.65215574999999,"velocity":0.3937007874015748},{"duration":0.13043475000000626,"midi":68,"time":72.65215574999999,"velocity":0.3937007874015748},{"duration":0.13043475000000626,"midi":68,"time":72.65215574999999,"velocity":0.3937007874015748},{"duration":0.13043475000000626,"midi":94,"time":72.65215574999999,"velocity":0.3937007874015748},{"duration":0.13043474999999205,"midi":92,"time":72.7825905,"velocity":0.3937007874015748},{"duration":0.13043474999999205,"midi":92,"time":72.7825905,"velocity":0.3937007874015748},{"duration":0.13043474999999205,"midi":70,"time":72.7825905,"velocity":0.3937007874015748},{"duration":0.13043474999999205,"midi":70,"time":72.7825905,"velocity":0.3937007874015748},{"duration":0.13043474999999205,"midi":92,"time":72.7825905,"velocity":0.3937007874015748},{"duration":0.13043474999999205,"midi":92,"time":72.7825905,"velocity":0.3937007874015748},{"duration":0.13043475000000626,"midi":68,"time":72.91302524999999,"velocity":0.3937007874015748},{"duration":0.13043475000000626,"midi":68,"time":72.91302524999999,"velocity":0.3937007874015748},{"duration":0.2608694999999983,"midi":92,"time":73.04346,"velocity":0.3937007874015748},{"duration":0.2608694999999983,"midi":92,"time":73.04346,"velocity":0.3937007874015748},{"duration":0.13043474999999205,"midi":58,"time":73.04346,"velocity":0.3937007874015748},{"duration":0.2608694999999983,"midi":92,"time":73.04346,"velocity":0.3937007874015748},{"duration":0.13043474999999205,"midi":58,"time":73.04346,"velocity":0.3937007874015748},{"duration":0.2608694999999983,"midi":92,"time":73.04346,"velocity":0.3937007874015748},{"duration":0.13043475000000626,"midi":65,"time":73.17389474999999,"velocity":0.3937007874015748},{"duration":0.13043475000000626,"midi":65,"time":73.17389474999999,"velocity":0.3937007874015748},{"duration":0.2608694999999983,"midi":94,"time":73.3043295,"velocity":0.3937007874015748},{"duration":0.13043474999999205,"midi":66,"time":73.3043295,"velocity":0.3937007874015748},{"duration":0.2608694999999983,"midi":94,"time":73.3043295,"velocity":0.3937007874015748},{"duration":0.2608694999999983,"midi":94,"time":73.3043295,"velocity":0.3937007874015748},{"duration":0.13043474999999205,"midi":66,"time":73.3043295,"velocity":0.3937007874015748},{"duration":0.2608694999999983,"midi":94,"time":73.3043295,"velocity":0.3937007874015748},{"duration":0.13043475000000626,"midi":65,"time":73.43476424999999,"velocity":0.3937007874015748},{"duration":0.13043475000000626,"midi":65,"time":73.43476424999999,"velocity":0.3937007874015748},{"duration":0.13043475000000626,"midi":95,"time":73.56519899999999,"velocity":0.3937007874015748},{"duration":0.13043475000000626,"midi":58,"time":73.56519899999999,"velocity":0.3937007874015748},{"duration":0.13043475000000626,"midi":95,"time":73.56519899999999,"velocity":0.3937007874015748},{"duration":0.13043475000000626,"midi":95,"time":73.56519899999999,"velocity":0.3937007874015748},{"duration":0.13043475000000626,"midi":58,"time":73.56519899999999,"velocity":0.3937007874015748},{"duration":0.13043475000000626,"midi":95,"time":73.56519899999999,"velocity":0.3937007874015748},{"duration":0.2608694999999983,"midi":94,"time":73.69563375,"velocity":0.3937007874015748},{"duration":0.2608694999999983,"midi":94,"time":73.69563375,"velocity":0.3937007874015748},{"duration":0.2608694999999983,"midi":94,"time":73.69563375,"velocity":0.3937007874015748},{"duration":0.2608694999999983,"midi":94,"time":73.69563375,"velocity":0.3937007874015748},{"duration":0.13043474999999205,"midi":65,"time":73.69563375,"velocity":0.3937007874015748},{"duration":0.13043474999999205,"midi":65,"time":73.69563375,"velocity":0.3937007874015748},{"duration":0.13043475000000626,"midi":66,"time":73.82606849999999,"velocity":0.3937007874015748},{"duration":0.13043475000000626,"midi":66,"time":73.82606849999999,"velocity":0.3937007874015748},{"duration":0.13043474999999205,"midi":92,"time":73.95650325,"velocity":0.3937007874015748},{"duration":0.13043474999999205,"midi":92,"time":73.95650325,"velocity":0.3937007874015748},{"duration":0.13043474999999205,"midi":92,"time":73.95650325,"velocity":0.3937007874015748},{"duration":0.13043474999999205,"midi":65,"time":73.95650325,"velocity":0.3937007874015748},{"duration":0.13043474999999205,"midi":92,"time":73.95650325,"velocity":0.3937007874015748},{"duration":0.13043474999999205,"midi":65,"time":73.95650325,"velocity":0.3937007874015748},{"duration":0.5217390000000108,"midi":89,"time":74.08693799999999,"velocity":0.3937007874015748},{"duration":0.13043475000000626,"midi":58,"time":74.08693799999999,"velocity":0.3937007874015748},{"duration":0.13043475000000626,"midi":58,"time":74.08693799999999,"velocity":0.3937007874015748},{"duration":0.5217390000000108,"midi":89,"time":74.08693799999999,"velocity":0.3937007874015748},{"duration":0.5217390000000108,"midi":89,"time":74.08693799999999,"velocity":0.3937007874015748},{"duration":0.5217390000000108,"midi":89,"time":74.08693799999999,"velocity":0.3937007874015748},{"duration":0.13043474999999205,"midi":65,"time":74.21737275,"velocity":0.3937007874015748},{"duration":0.13043474999999205,"midi":65,"time":74.21737275,"velocity":0.3937007874015748},{"duration":0.13043475000000626,"midi":66,"time":74.34780749999999,"velocity":0.3937007874015748},{"duration":0.13043475000000626,"midi":66,"time":74.34780749999999,"velocity":0.3937007874015748},{"duration":0.13043475000000626,"midi":65,"time":74.47824225,"velocity":0.3937007874015748},{"duration":0.13043475000000626,"midi":65,"time":74.47824225,"velocity":0.3937007874015748},{"duration":0.13043474999999205,"midi":56,"time":74.608677,"velocity":0.3937007874015748},{"duration":0.13043474999999205,"midi":56,"time":74.608677,"velocity":0.3937007874015748},{"duration":0.13043475000000626,"midi":65,"time":74.73911174999999,"velocity":0.3937007874015748},{"duration":0.13043475000000626,"midi":65,"time":74.73911174999999,"velocity":0.3937007874015748},{"duration":0.13043474999999205,"midi":66,"time":74.8695465,"velocity":0.3937007874015748},{"duration":0.13043474999999205,"midi":66,"time":74.8695465,"velocity":0.3937007874015748},{"duration":0.13043475000000626,"midi":65,"time":74.99998124999999,"velocity":0.3937007874015748},{"duration":0.13043475000000626,"midi":65,"time":74.99998124999999,"velocity":0.3937007874015748},{"duration":1.5652169999999899,"midi":65,"time":75.130416,"velocity":0.3937007874015748},{"duration":1.5652169999999899,"midi":65,"time":75.130416,"velocity":0.3937007874015748},{"duration":1.5652169999999899,"midi":65,"time":75.130416,"velocity":0.3937007874015748},{"duration":0.13043474999999205,"midi":61,"time":75.130416,"velocity":0.3937007874015748},{"duration":1.5652169999999899,"midi":65,"time":75.130416,"velocity":0.3937007874015748},{"duration":0.13043474999999205,"midi":61,"time":75.130416,"velocity":0.3937007874015748},{"duration":0.13043475000000626,"midi":68,"time":75.26085074999999,"velocity":0.3937007874015748},{"duration":0.13043475000000626,"midi":68,"time":75.26085074999999,"velocity":0.3937007874015748},{"duration":0.13043474999999205,"midi":94,"time":75.3912855,"velocity":0.3937007874015748},{"duration":0.13043474999999205,"midi":94,"time":75.3912855,"velocity":0.3937007874015748},{"duration":0.13043474999999205,"midi":70,"time":75.3912855,"velocity":0.3937007874015748},{"duration":0.13043474999999205,"midi":70,"time":75.3912855,"velocity":0.3937007874015748},{"duration":0.13043474999999205,"midi":94,"time":75.3912855,"velocity":0.3937007874015748},{"duration":0.13043474999999205,"midi":94,"time":75.3912855,"velocity":0.3937007874015748},{"duration":0.13043475000000626,"midi":92,"time":75.52172024999999,"velocity":0.3937007874015748},{"duration":0.13043475000000626,"midi":68,"time":75.52172024999999,"velocity":0.3937007874015748},{"duration":0.13043475000000626,"midi":92,"time":75.52172024999999,"velocity":0.3937007874015748},{"duration":0.13043475000000626,"midi":92,"time":75.52172024999999,"velocity":0.3937007874015748},{"duration":0.13043475000000626,"midi":68,"time":75.52172024999999,"velocity":0.3937007874015748},{"duration":0.13043475000000626,"midi":92,"time":75.52172024999999,"velocity":0.3937007874015748},{"duration":0.13043475000000626,"midi":61,"time":75.652155,"velocity":0.3937007874015748},{"duration":0.13043475000000626,"midi":61,"time":75.652155,"velocity":0.3937007874015748},{"duration":0.13043474999999205,"midi":94,"time":75.78258975,"velocity":0.3937007874015748},{"duration":0.13043474999999205,"midi":68,"time":75.78258975,"velocity":0.3937007874015748},{"duration":0.13043474999999205,"midi":68,"time":75.78258975,"velocity":0.3937007874015748},{"duration":0.13043474999999205,"midi":94,"time":75.78258975,"velocity":0.3937007874015748},{"duration":0.13043474999999205,"midi":94,"time":75.78258975,"velocity":0.3937007874015748},{"duration":0.13043474999999205,"midi":94,"time":75.78258975,"velocity":0.3937007874015748},{"duration":0.13043475000000626,"midi":92,"time":75.91302449999999,"velocity":0.3937007874015748},{"duration":0.13043475000000626,"midi":70,"time":75.91302449999999,"velocity":0.3937007874015748},{"duration":0.13043475000000626,"midi":92,"time":75.91302449999999,"velocity":0.3937007874015748},{"duration":0.13043475000000626,"midi":92,"time":75.91302449999999,"velocity":0.3937007874015748},{"duration":0.13043475000000626,"midi":92,"time":75.91302449999999,"velocity":0.3937007874015748},{"duration":0.13043475000000626,"midi":70,"time":75.91302449999999,"velocity":0.3937007874015748},{"duration":0.13043474999999205,"midi":68,"time":76.04345925,"velocity":0.3937007874015748},{"duration":0.13043474999999205,"midi":68,"time":76.04345925,"velocity":0.3937007874015748},{"duration":0.13043475000000626,"midi":61,"time":76.17389399999999,"velocity":0.3937007874015748},{"duration":0.13043475000000626,"midi":61,"time":76.17389399999999,"velocity":0.3937007874015748},{"duration":0.13043474999999205,"midi":68,"time":76.30432875,"velocity":0.3937007874015748},{"duration":0.13043474999999205,"midi":68,"time":76.30432875,"velocity":0.3937007874015748},{"duration":0.13043475000000626,"midi":94,"time":76.43476349999999,"velocity":0.3937007874015748},{"duration":0.13043475000000626,"midi":94,"time":76.43476349999999,"velocity":0.3937007874015748},{"duration":0.13043475000000626,"midi":70,"time":76.43476349999999,"velocity":0.3937007874015748},{"duration":0.13043475000000626,"midi":70,"time":76.43476349999999,"velocity":0.3937007874015748},{"duration":0.13043475000000626,"midi":94,"time":76.43476349999999,"velocity":0.3937007874015748},{"duration":0.13043475000000626,"midi":94,"time":76.43476349999999,"velocity":0.3937007874015748},{"duration":0.13043474999999205,"midi":92,"time":76.56519825,"velocity":0.3937007874015748},{"duration":0.13043474999999205,"midi":92,"time":76.56519825,"velocity":0.3937007874015748},{"duration":0.13043474999999205,"midi":92,"time":76.56519825,"velocity":0.3937007874015748},{"duration":0.13043474999999205,"midi":68,"time":76.56519825,"velocity":0.3937007874015748},{"duration":0.13043474999999205,"midi":92,"time":76.56519825,"velocity":0.3937007874015748},{"duration":0.13043474999999205,"midi":68,"time":76.56519825,"velocity":0.3937007874015748},{"duration":0.13043475000000626,"midi":61,"time":76.69563299999999,"velocity":0.3937007874015748},{"duration":0.13043475000000626,"midi":64,"time":76.69563299999999,"velocity":0.3937007874015748},{"duration":0.13043475000000626,"midi":64,"time":76.69563299999999,"velocity":0.3937007874015748},{"duration":0.13043475000000626,"midi":64,"time":76.69563299999999,"velocity":0.3937007874015748},{"duration":0.13043475000000626,"midi":61,"time":76.69563299999999,"velocity":0.3937007874015748},{"duration":0.13043475000000626,"midi":64,"time":76.69563299999999,"velocity":0.3937007874015748},{"duration":0.13043475000000626,"midi":94,"time":76.82606774999999,"velocity":0.3937007874015748},{"duration":0.13043475000000626,"midi":68,"time":76.82606774999999,"velocity":0.3937007874015748},{"duration":0.13043475000000626,"midi":68,"time":76.82606774999999,"velocity":0.3937007874015748},{"duration":0.13043475000000626,"midi":94,"time":76.82606774999999,"velocity":0.3937007874015748},{"duration":0.13043475000000626,"midi":94,"time":76.82606774999999,"velocity":0.3937007874015748},{"duration":0.13043475000000626,"midi":63,"time":76.82606774999999,"velocity":0.3937007874015748},{"duration":0.13043475000000626,"midi":63,"time":76.82606774999999,"velocity":0.3937007874015748},{"duration":0.13043475000000626,"midi":63,"time":76.82606774999999,"velocity":0.3937007874015748},{"duration":0.13043475000000626,"midi":94,"time":76.82606774999999,"velocity":0.3937007874015748},{"duration":0.13043475000000626,"midi":63,"time":76.82606774999999,"velocity":0.3937007874015748},{"duration":0.13043474999999205,"midi":70,"time":76.9565025,"velocity":0.3937007874015748},{"duration":0.13043474999999205,"midi":62,"time":76.9565025,"velocity":0.3937007874015748},{"duration":0.13043474999999205,"midi":92,"time":76.9565025,"velocity":0.3937007874015748},{"duration":0.13043474999999205,"midi":62,"time":76.9565025,"velocity":0.3937007874015748},{"duration":0.13043474999999205,"midi":92,"time":76.9565025,"velocity":0.3937007874015748},{"duration":0.13043474999999205,"midi":92,"time":76.9565025,"velocity":0.3937007874015748},{"duration":0.13043474999999205,"midi":70,"time":76.9565025,"velocity":0.3937007874015748},{"duration":0.13043474999999205,"midi":92,"time":76.9565025,"velocity":0.3937007874015748},{"duration":0.13043474999999205,"midi":62,"time":76.9565025,"velocity":0.3937007874015748},{"duration":0.13043474999999205,"midi":62,"time":76.9565025,"velocity":0.3937007874015748},{"duration":0.13043475000000626,"midi":68,"time":77.08693724999999,"velocity":0.3937007874015748},{"duration":0.13043475000000626,"midi":61,"time":77.08693724999999,"velocity":0.3937007874015748},{"duration":0.13043475000000626,"midi":61,"time":77.08693724999999,"velocity":0.3937007874015748},{"duration":0.13043475000000626,"midi":61,"time":77.08693724999999,"velocity":0.3937007874015748},{"duration":0.13043475000000626,"midi":61,"time":77.08693724999999,"velocity":0.3937007874015748},{"duration":0.13043475000000626,"midi":68,"time":77.08693724999999,"velocity":0.3937007874015748},{"duration":0.13043474999999205,"midi":92,"time":77.217372,"velocity":0.3937007874015748},{"duration":0.13043474999999205,"midi":65,"time":77.217372,"velocity":0.3937007874015748},{"duration":1.5652169999999899,"midi":60,"time":77.217372,"velocity":0.3937007874015748},{"duration":0.13043474999999205,"midi":92,"time":77.217372,"velocity":0.3937007874015748},{"duration":1.5652169999999899,"midi":60,"time":77.217372,"velocity":0.3937007874015748},{"duration":0.13043474999999205,"midi":92,"time":77.217372,"velocity":0.3937007874015748},{"duration":0.13043474999999205,"midi":65,"time":77.217372,"velocity":0.3937007874015748},{"duration":1.5652169999999899,"midi":60,"time":77.217372,"velocity":0.3937007874015748},{"duration":0.13043474999999205,"midi":92,"time":77.217372,"velocity":0.3937007874015748},{"duration":1.5652169999999899,"midi":60,"time":77.217372,"velocity":0.3937007874015748},{"duration":0.13043475000000626,"midi":72,"time":77.34780674999999,"velocity":0.3937007874015748},{"duration":0.05842389843749629,"midi":94,"time":77.34780674999999,"velocity":0.3937007874015748},{"duration":0.05842389843749629,"midi":94,"time":77.34780674999999,"velocity":0.3937007874015748},{"duration":0.13043475000000626,"midi":72,"time":77.34780674999999,"velocity":0.3937007874015748},{"duration":0.05842389843749629,"midi":94,"time":77.34780674999999,"velocity":0.3937007874015748},{"duration":0.05842389843749629,"midi":94,"time":77.34780674999999,"velocity":0.3937007874015748},{"duration":0.05842389843749629,"midi":92,"time":77.41302412499999,"velocity":0.3937007874015748},{"duration":0.05842389843749629,"midi":92,"time":77.41302412499999,"velocity":0.3937007874015748},{"duration":0.05842389843749629,"midi":92,"time":77.41302412499999,"velocity":0.3937007874015748},{"duration":0.05842389843749629,"midi":92,"time":77.41302412499999,"velocity":0.3937007874015748},{"duration":0.13043474999999205,"midi":73,"time":77.4782415,"velocity":0.3937007874015748},{"duration":0.22826081249999675,"midi":89,"time":77.4782415,"velocity":0.3937007874015748},{"duration":0.22826081249999675,"midi":89,"time":77.4782415,"velocity":0.3937007874015748},{"duration":0.22826081249999675,"midi":89,"time":77.4782415,"velocity":0.3937007874015748},{"duration":0.22826081249999675,"midi":89,"time":77.4782415,"velocity":0.3937007874015748},{"duration":0.13043474999999205,"midi":73,"time":77.4782415,"velocity":0.3937007874015748},{"duration":0.13043475000000626,"midi":72,"time":77.60867624999999,"velocity":0.3937007874015748},{"duration":0.13043475000000626,"midi":72,"time":77.60867624999999,"velocity":0.3937007874015748},{"duration":0.2608694999999983,"midi":89,"time":77.739111,"velocity":0.3937007874015748},{"duration":0.2608694999999983,"midi":89,"time":77.739111,"velocity":0.3937007874015748},{"duration":0.2608694999999983,"midi":89,"time":77.739111,"velocity":0.3937007874015748},{"duration":0.13043474999999205,"midi":65,"time":77.739111,"velocity":0.3937007874015748},{"duration":0.2608694999999983,"midi":89,"time":77.739111,"velocity":0.3937007874015748},{"duration":0.13043474999999205,"midi":65,"time":77.739111,"velocity":0.3937007874015748},{"duration":0.13043475000000626,"midi":72,"time":77.86954574999999,"velocity":0.3937007874015748},{"duration":0.13043475000000626,"midi":72,"time":77.86954574999999,"velocity":0.3937007874015748},{"duration":0.13043475000000626,"midi":88,"time":77.99998049999999,"velocity":0.3937007874015748},{"duration":0.13043475000000626,"midi":73,"time":77.99998049999999,"velocity":0.3937007874015748},{"duration":0.13043475000000626,"midi":73,"time":77.99998049999999,"velocity":0.3937007874015748},{"duration":0.13043475000000626,"midi":88,"time":77.99998049999999,"velocity":0.3937007874015748},{"duration":0.13043475000000626,"midi":88,"time":77.99998049999999,"velocity":0.3937007874015748},{"duration":0.13043475000000626,"midi":88,"time":77.99998049999999,"velocity":0.3937007874015748},{"duration":0.13043474999999205,"midi":72,"time":78.13041525,"velocity":0.3937007874015748},{"duration":0.13043474999999205,"midi":89,"time":78.13041525,"velocity":0.3937007874015748},{"duration":0.13043474999999205,"midi":89,"time":78.13041525,"velocity":0.3937007874015748},{"duration":0.13043474999999205,"midi":89,"time":78.13041525,"velocity":0.3937007874015748},{"duration":0.13043474999999205,"midi":72,"time":78.13041525,"velocity":0.3937007874015748},{"duration":0.13043474999999205,"midi":89,"time":78.13041525,"velocity":0.3937007874015748},{"duration":0.13043475000000626,"midi":65,"time":78.26084999999999,"velocity":0.3937007874015748},{"duration":0.13043475000000626,"midi":65,"time":78.26084999999999,"velocity":0.3937007874015748},{"duration":0.13043474999999205,"midi":72,"time":78.39128475,"velocity":0.3937007874015748},{"duration":0.13043474999999205,"midi":72,"time":78.39128475,"velocity":0.3937007874015748},{"duration":0.13043475000000626,"midi":73,"time":78.52171949999999,"velocity":0.3937007874015748},{"duration":0.13043475000000626,"midi":73,"time":78.52171949999999,"velocity":0.3937007874015748},{"duration":0.13043474999999205,"midi":72,"time":78.65215425,"velocity":0.3937007874015748},{"duration":0.13043474999999205,"midi":72,"time":78.65215425,"velocity":0.3937007874015748},{"duration":0.13043475000000626,"midi":65,"time":78.78258899999999,"velocity":0.3937007874015748},{"duration":0.13043475000000626,"midi":61,"time":78.78258899999999,"velocity":0.3937007874015748},{"duration":0.13043475000000626,"midi":61,"time":78.78258899999999,"velocity":0.3937007874015748},{"duration":0.13043475000000626,"midi":61,"time":78.78258899999999,"velocity":0.3937007874015748},{"duration":0.13043475000000626,"midi":61,"time":78.78258899999999,"velocity":0.3937007874015748},{"duration":0.13043475000000626,"midi":65,"time":78.78258899999999,"velocity":0.3937007874015748},{"duration":0.13043475000000626,"midi":72,"time":78.91302375,"velocity":0.3937007874015748},{"duration":0.13043475000000626,"midi":62,"time":78.91302375,"velocity":0.3937007874015748},{"duration":0.13043475000000626,"midi":72,"time":78.91302375,"velocity":0.3937007874015748},{"duration":0.13043475000000626,"midi":62,"time":78.91302375,"velocity":0.3937007874015748},{"duration":0.13043475000000626,"midi":62,"time":78.91302375,"velocity":0.3937007874015748},{"duration":0.13043475000000626,"midi":62,"time":78.91302375,"velocity":0.3937007874015748},{"duration":0.13043474999999205,"midi":63,"time":79.0434585,"velocity":0.3937007874015748},{"duration":0.13043474999999205,"midi":73,"time":79.0434585,"velocity":0.3937007874015748},{"duration":0.13043474999999205,"midi":63,"time":79.0434585,"velocity":0.3937007874015748},{"duration":0.13043474999999205,"midi":63,"time":79.0434585,"velocity":0.3937007874015748},{"duration":0.13043474999999205,"midi":73,"time":79.0434585,"velocity":0.3937007874015748},{"duration":0.13043474999999205,"midi":63,"time":79.0434585,"velocity":0.3937007874015748},{"duration":0.13043475000000626,"midi":64,"time":79.17389324999999,"velocity":0.3937007874015748},{"duration":0.13043475000000626,"midi":72,"time":79.17389324999999,"velocity":0.3937007874015748},{"duration":0.13043475000000626,"midi":72,"time":79.17389324999999,"velocity":0.3937007874015748},{"duration":0.13043475000000626,"midi":64,"time":79.17389324999999,"velocity":0.3937007874015748},{"duration":0.13043475000000626,"midi":64,"time":79.17389324999999,"velocity":0.3937007874015748},{"duration":0.13043475000000626,"midi":64,"time":79.17389324999999,"velocity":0.3937007874015748},{"duration":1.5652169999999899,"midi":65,"time":79.304328,"velocity":0.3937007874015748},{"duration":0.13043474999999205,"midi":61,"time":79.304328,"velocity":0.3937007874015748},{"duration":1.5652169999999899,"midi":65,"time":79.304328,"velocity":0.3937007874015748},{"duration":0.13043474999999205,"midi":61,"time":79.304328,"velocity":0.3937007874015748},{"duration":1.5652169999999899,"midi":65,"time":79.304328,"velocity":0.3937007874015748},{"duration":1.5652169999999899,"midi":65,"time":79.304328,"velocity":0.3937007874015748},{"duration":0.13043475000000626,"midi":68,"time":79.43476274999999,"velocity":0.3937007874015748},{"duration":0.13043475000000626,"midi":68,"time":79.43476274999999,"velocity":0.3937007874015748},{"duration":0.13043474999999205,"midi":70,"time":79.5651975,"velocity":0.3937007874015748},{"duration":0.13043474999999205,"midi":94,"time":79.5651975,"velocity":0.3937007874015748},{"duration":0.13043474999999205,"midi":70,"time":79.5651975,"velocity":0.3937007874015748},{"duration":0.13043474999999205,"midi":94,"time":79.5651975,"velocity":0.3937007874015748},{"duration":0.13043474999999205,"midi":94,"time":79.5651975,"velocity":0.3937007874015748},{"duration":0.13043474999999205,"midi":94,"time":79.5651975,"velocity":0.3937007874015748},{"duration":0.13043475000000626,"midi":92,"time":79.69563224999999,"velocity":0.3937007874015748},{"duration":0.13043475000000626,"midi":92,"time":79.69563224999999,"velocity":0.3937007874015748},{"duration":0.13043475000000626,"midi":68,"time":79.69563224999999,"velocity":0.3937007874015748},{"duration":0.13043475000000626,"midi":92,"time":79.69563224999999,"velocity":0.3937007874015748},{"duration":0.13043475000000626,"midi":92,"time":79.69563224999999,"velocity":0.3937007874015748},{"duration":0.13043475000000626,"midi":68,"time":79.69563224999999,"velocity":0.3937007874015748},{"duration":0.13043474999999205,"midi":61,"time":79.826067,"velocity":0.3937007874015748},{"duration":0.13043474999999205,"midi":61,"time":79.826067,"velocity":0.3937007874015748},{"duration":0.13043475000000626,"midi":94,"time":79.95650174999999,"velocity":0.3937007874015748},{"duration":0.13043475000000626,"midi":68,"time":79.95650174999999,"velocity":0.3937007874015748},{"duration":0.13043475000000626,"midi":94,"time":79.95650174999999,"velocity":0.3937007874015748},{"duration":0.13043475000000626,"midi":94,"time":79.95650174999999,"velocity":0.3937007874015748},{"duration":0.13043475000000626,"midi":94,"time":79.95650174999999,"velocity":0.3937007874015748},{"duration":0.13043475000000626,"midi":68,"time":79.95650174999999,"velocity":0.3937007874015748},{"duration":0.13043475000000626,"midi":70,"time":80.0869365,"velocity":0.3937007874015748},{"duration":0.13043475000000626,"midi":92,"time":80.0869365,"velocity":0.3937007874015748},{"duration":0.13043475000000626,"midi":70,"time":80.0869365,"velocity":0.3937007874015748},{"duration":0.13043475000000626,"midi":92,"time":80.0869365,"velocity":0.3937007874015748},{"duration":0.13043475000000626,"midi":92,"time":80.0869365,"velocity":0.3937007874015748},{"duration":0.13043475000000626,"midi":92,"time":80.0869365,"velocity":0.3937007874015748},{"duration":0.13043474999999205,"midi":68,"time":80.21737125,"velocity":0.3937007874015748},{"duration":0.13043474999999205,"midi":68,"time":80.21737125,"velocity":0.3937007874015748},{"duration":0.13043475000000626,"midi":61,"time":80.34780599999999,"velocity":0.3937007874015748},{"duration":0.13043475000000626,"midi":61,"time":80.34780599999999,"velocity":0.3937007874015748},{"duration":0.13043474999999205,"midi":68,"time":80.47824075,"velocity":0.3937007874015748},{"duration":0.13043474999999205,"midi":68,"time":80.47824075,"velocity":0.3937007874015748},{"duration":0.13043475000000626,"midi":94,"time":80.60867549999999,"velocity":0.3937007874015748},{"duration":0.13043475000000626,"midi":94,"time":80.60867549999999,"velocity":0.3937007874015748},{"duration":0.13043475000000626,"midi":70,"time":80.60867549999999,"velocity":0.3937007874015748},{"duration":0.13043475000000626,"midi":70,"time":80.60867549999999,"velocity":0.3937007874015748},{"duration":0.13043475000000626,"midi":94,"time":80.60867549999999,"velocity":0.3937007874015748},{"duration":0.13043475000000626,"midi":94,"time":80.60867549999999,"velocity":0.3937007874015748},{"duration":0.13043474999999205,"midi":92,"time":80.73911025,"velocity":0.3937007874015748},{"duration":0.13043474999999205,"midi":92,"time":80.73911025,"velocity":0.3937007874015748},{"duration":0.13043474999999205,"midi":68,"time":80.73911025,"velocity":0.3937007874015748},{"duration":0.13043474999999205,"midi":92,"time":80.73911025,"velocity":0.3937007874015748},{"duration":0.13043474999999205,"midi":68,"time":80.73911025,"velocity":0.3937007874015748},{"duration":0.13043474999999205,"midi":92,"time":80.73911025,"velocity":0.3937007874015748},{"duration":0.2608694999999983,"midi":68,"time":80.86954499999999,"velocity":0.3937007874015748},{"duration":0.13043475000000626,"midi":61,"time":80.86954499999999,"velocity":0.3937007874015748},{"duration":0.2608694999999983,"midi":68,"time":80.86954499999999,"velocity":0.3937007874015748},{"duration":0.5217390000000108,"midi":68,"time":80.86954499999999,"velocity":0.3937007874015748},{"duration":0.5217390000000108,"midi":68,"time":80.86954499999999,"velocity":0.3937007874015748},{"duration":0.13043475000000626,"midi":61,"time":80.86954499999999,"velocity":0.3937007874015748},{"duration":0.13043474999999205,"midi":94,"time":80.99997975,"velocity":0.3937007874015748},{"duration":0.39130425000000457,"midi":68,"time":80.99997975,"velocity":0.3937007874015748},{"duration":0.13043474999999205,"midi":94,"time":80.99997975,"velocity":0.3937007874015748},{"duration":0.39130425000000457,"midi":68,"time":80.99997975,"velocity":0.3937007874015748},{"duration":0.13043474999999205,"midi":94,"time":80.99997975,"velocity":0.3937007874015748},{"duration":0.13043474999999205,"midi":94,"time":80.99997975,"velocity":0.3937007874015748},{"duration":0.13043475000000626,"midi":92,"time":81.13041449999999,"velocity":0.3937007874015748},{"duration":0.13043475000000626,"midi":92,"time":81.13041449999999,"velocity":0.3937007874015748},{"duration":0.13043475000000626,"midi":70,"time":81.13041449999999,"velocity":0.3937007874015748},{"duration":0.13043475000000626,"midi":70,"time":81.13041449999999,"velocity":0.3937007874015748},{"duration":0.13043475000000626,"midi":92,"time":81.13041449999999,"velocity":0.3937007874015748},{"duration":0.13043475000000626,"midi":92,"time":81.13041449999999,"velocity":0.3937007874015748},{"duration":0.13043475000000626,"midi":68,"time":81.26084924999999,"velocity":0.3937007874015748},{"duration":0.13043475000000626,"midi":68,"time":81.26084924999999,"velocity":0.3937007874015748},{"duration":2.0869560000000007,"midi":67,"time":81.391284,"velocity":0.3937007874015748},{"duration":2.0869560000000007,"midi":67,"time":81.391284,"velocity":0.3937007874015748},{"duration":0.13043474999999205,"midi":65,"time":81.391284,"velocity":0.3937007874015748},{"duration":0.2608694999999983,"midi":92,"time":81.391284,"velocity":0.3937007874015748},{"duration":2.0869560000000007,"midi":67,"time":81.391284,"velocity":0.3937007874015748},{"duration":0.2608694999999983,"midi":92,"time":81.391284,"velocity":0.3937007874015748},{"duration":0.2608694999999983,"midi":92,"time":81.391284,"velocity":0.3937007874015748},{"duration":0.13043474999999205,"midi":65,"time":81.391284,"velocity":0.3937007874015748},{"duration":0.2608694999999983,"midi":92,"time":81.391284,"velocity":0.3937007874015748},{"duration":2.0869560000000007,"midi":67,"time":81.391284,"velocity":0.3937007874015748},{"duration":0.13043475000000626,"midi":72,"time":81.52171874999999,"velocity":0.3937007874015748},{"duration":0.13043475000000626,"midi":72,"time":81.52171874999999,"velocity":0.3937007874015748},{"duration":0.13043474999999205,"midi":73,"time":81.6521535,"velocity":0.3937007874015748},{"duration":0.2608694999999983,"midi":94,"time":81.6521535,"velocity":0.3937007874015748},{"duration":0.13043474999999205,"midi":73,"time":81.6521535,"velocity":0.3937007874015748},{"duration":0.2608694999999983,"midi":94,"time":81.6521535,"velocity":0.3937007874015748},{"duration":0.2608694999999983,"midi":94,"time":81.6521535,"velocity":0.3937007874015748},{"duration":0.2608694999999983,"midi":94,"time":81.6521535,"velocity":0.3937007874015748},{"duration":0.13043475000000626,"midi":72,"time":81.78258824999999,"velocity":0.3937007874015748},{"duration":0.13043475000000626,"midi":72,"time":81.78258824999999,"velocity":0.3937007874015748},{"duration":0.13043474999999205,"midi":95,"time":81.913023,"velocity":0.3937007874015748},{"duration":0.13043474999999205,"midi":65,"time":81.913023,"velocity":0.3937007874015748},{"duration":0.13043474999999205,"midi":95,"time":81.913023,"velocity":0.3937007874015748},{"duration":0.13043474999999205,"midi":95,"time":81.913023,"velocity":0.3937007874015748},{"duration":0.13043474999999205,"midi":65,"time":81.913023,"velocity":0.3937007874015748},{"duration":0.13043474999999205,"midi":95,"time":81.913023,"velocity":0.3937007874015748},{"duration":0.13043475000000626,"midi":72,"time":82.04345774999999,"velocity":0.3937007874015748},{"duration":0.13043475000000626,"midi":72,"time":82.04345774999999,"velocity":0.3937007874015748},{"duration":0.2608694999999983,"midi":94,"time":82.04345774999999,"velocity":0.3937007874015748},{"duration":0.2608694999999983,"midi":94,"time":82.04345774999999,"velocity":0.3937007874015748},{"duration":0.2608694999999983,"midi":94,"time":82.04345774999999,"velocity":0.3937007874015748},{"duration":0.2608694999999983,"midi":94,"time":82.04345774999999,"velocity":0.3937007874015748},{"duration":0.13043474999999205,"midi":73,"time":82.1738925,"velocity":0.3937007874015748},{"duration":0.13043474999999205,"midi":73,"time":82.1738925,"velocity":0.3937007874015748},{"duration":0.13043475000000626,"midi":92,"time":82.30432724999999,"velocity":0.3937007874015748},{"duration":0.13043475000000626,"midi":92,"time":82.30432724999999,"velocity":0.3937007874015748},{"duration":0.13043475000000626,"midi":92,"time":82.30432724999999,"velocity":0.3937007874015748},{"duration":0.13043475000000626,"midi":92,"time":82.30432724999999,"velocity":0.3937007874015748},{"duration":0.13043475000000626,"midi":72,"time":82.30432724999999,"velocity":0.3937007874015748},{"duration":0.13043475000000626,"midi":72,"time":82.30432724999999,"velocity":0.3937007874015748},{"duration":0.5217389999999966,"midi":89,"time":82.43476199999999,"velocity":0.3937007874015748},{"duration":0.5217389999999966,"midi":89,"time":82.43476199999999,"velocity":0.3937007874015748},{"duration":0.13043475000000626,"midi":65,"time":82.43476199999999,"velocity":0.3937007874015748},{"duration":0.13043475000000626,"midi":65,"time":82.43476199999999,"velocity":0.3937007874015748},{"duration":0.5217389999999966,"midi":89,"time":82.43476199999999,"velocity":0.3937007874015748},{"duration":0.5217389999999966,"midi":89,"time":82.43476199999999,"velocity":0.3937007874015748},{"duration":0.13043474999999205,"midi":72,"time":82.56519675,"velocity":0.3937007874015748},{"duration":0.13043474999999205,"midi":72,"time":82.56519675,"velocity":0.3937007874015748},{"duration":0.13043475000000626,"midi":73,"time":82.69563149999999,"velocity":0.3937007874015748},{"duration":0.13043475000000626,"midi":73,"time":82.69563149999999,"velocity":0.3937007874015748},{"duration":0.13043474999999205,"midi":72,"time":82.82606625,"velocity":0.3937007874015748},{"duration":0.13043474999999205,"midi":72,"time":82.82606625,"velocity":0.3937007874015748},{"duration":0.13043475000000626,"midi":65,"time":82.95650099999999,"velocity":0.3937007874015748},{"duration":0.13043475000000626,"midi":65,"time":82.95650099999999,"velocity":0.3937007874015748},{"duration":0.13043474999999205,"midi":72,"time":83.08693575,"velocity":0.3937007874015748},{"duration":0.13043474999999205,"midi":72,"time":83.08693575,"velocity":0.3937007874015748},{"duration":0.13043475000000626,"midi":73,"time":83.21737049999999,"velocity":0.3937007874015748},{"duration":0.13043475000000626,"midi":73,"time":83.21737049999999,"velocity":0.3937007874015748},{"duration":0.13043475000000626,"midi":72,"time":83.34780525,"velocity":0.3937007874015748},{"duration":0.13043475000000626,"midi":72,"time":83.34780525,"velocity":0.3937007874015748},{"duration":1.5652169999999899,"midi":53,"time":83.47824,"velocity":0.3937007874015748},{"duration":1.5652169999999899,"midi":53,"time":83.47824,"velocity":0.3937007874015748},{"duration":1.5652169999999899,"midi":53,"time":83.47824,"velocity":0.3937007874015748},{"duration":0.13043474999999205,"midi":49,"time":83.47824,"velocity":0.3937007874015748},{"duration":1.5652169999999899,"midi":53,"time":83.47824,"velocity":0.3937007874015748},{"duration":0.13043474999999205,"midi":49,"time":83.47824,"velocity":0.3937007874015748},{"duration":0.13043475000000626,"midi":56,"time":83.60867474999999,"velocity":0.3937007874015748},{"duration":0.13043475000000626,"midi":56,"time":83.60867474999999,"velocity":0.3937007874015748},{"duration":0.13043474999999205,"midi":82,"time":83.7391095,"velocity":0.3937007874015748},{"duration":0.13043474999999205,"midi":82,"time":83.7391095,"velocity":0.3937007874015748},{"duration":0.13043474999999205,"midi":58,"time":83.7391095,"velocity":0.3937007874015748},{"duration":0.13043474999999205,"midi":82,"time":83.7391095,"velocity":0.3937007874015748},{"duration":0.13043474999999205,"midi":58,"time":83.7391095,"velocity":0.3937007874015748},{"duration":0.13043474999999205,"midi":82,"time":83.7391095,"velocity":0.3937007874015748},{"duration":0.13043475000000626,"midi":80,"time":83.86954424999999,"velocity":0.3937007874015748},{"duration":0.13043475000000626,"midi":80,"time":83.86954424999999,"velocity":0.3937007874015748},{"duration":0.13043475000000626,"midi":80,"time":83.86954424999999,"velocity":0.3937007874015748},{"duration":0.13043475000000626,"midi":80,"time":83.86954424999999,"velocity":0.3937007874015748},{"duration":0.13043475000000626,"midi":56,"time":83.86954424999999,"velocity":0.3937007874015748},{"duration":0.13043475000000626,"midi":56,"time":83.86954424999999,"velocity":0.3937007874015748},{"duration":0.13043474999999205,"midi":49,"time":83.999979,"velocity":0.3937007874015748},{"duration":0.13043474999999205,"midi":49,"time":83.999979,"velocity":0.3937007874015748},{"duration":0.13043475000000626,"midi":56,"time":84.13041374999999,"velocity":0.3937007874015748},{"duration":0.13043475000000626,"midi":82,"time":84.13041374999999,"velocity":0.3937007874015748},{"duration":0.13043475000000626,"midi":56,"time":84.13041374999999,"velocity":0.3937007874015748},{"duration":0.13043475000000626,"midi":82,"time":84.13041374999999,"velocity":0.3937007874015748},{"duration":0.13043475000000626,"midi":82,"time":84.13041374999999,"velocity":0.3937007874015748},{"duration":0.13043475000000626,"midi":82,"time":84.13041374999999,"velocity":0.3937007874015748},{"duration":0.13043474999999205,"midi":58,"time":84.2608485,"velocity":0.3937007874015748},{"duration":0.13043474999999205,"midi":80,"time":84.2608485,"velocity":0.3937007874015748},{"duration":0.13043474999999205,"midi":80,"time":84.2608485,"velocity":0.3937007874015748},{"duration":0.13043474999999205,"midi":80,"time":84.2608485,"velocity":0.3937007874015748},{"duration":0.13043474999999205,"midi":80,"time":84.2608485,"velocity":0.3937007874015748},{"duration":0.13043474999999205,"midi":58,"time":84.2608485,"velocity":0.3937007874015748},{"duration":0.13043475000000626,"midi":56,"time":84.39128324999999,"velocity":0.3937007874015748},{"duration":0.13043475000000626,"midi":56,"time":84.39128324999999,"velocity":0.3937007874015748},{"duration":0.13043475000000626,"midi":49,"time":84.52171799999999,"velocity":0.3937007874015748},{"duration":0.13043475000000626,"midi":49,"time":84.52171799999999,"velocity":0.3937007874015748},{"duration":0.13043474999999205,"midi":56,"time":84.65215275,"velocity":0.3937007874015748},{"duration":0.13043474999999205,"midi":56,"time":84.65215275,"velocity":0.3937007874015748},{"duration":0.13043475000000626,"midi":82,"time":84.78258749999999,"velocity":0.3937007874015748},{"duration":0.13043475000000626,"midi":82,"time":84.78258749999999,"velocity":0.3937007874015748},{"duration":0.13043475000000626,"midi":58,"time":84.78258749999999,"velocity":0.3937007874015748},{"duration":0.13043475000000626,"midi":58,"time":84.78258749999999,"velocity":0.3937007874015748},{"duration":0.13043475000000626,"midi":82,"time":84.78258749999999,"velocity":0.3937007874015748},{"duration":0.13043475000000626,"midi":82,"time":84.78258749999999,"velocity":0.3937007874015748},{"duration":0.13043474999999205,"midi":56,"time":84.91302225,"velocity":0.3937007874015748},{"duration":0.13043474999999205,"midi":80,"time":84.91302225,"velocity":0.3937007874015748},{"duration":0.13043474999999205,"midi":56,"time":84.91302225,"velocity":0.3937007874015748},{"duration":0.13043474999999205,"midi":80,"time":84.91302225,"velocity":0.3937007874015748},{"duration":0.13043474999999205,"midi":80,"time":84.91302225,"velocity":0.3937007874015748},{"duration":0.13043474999999205,"midi":80,"time":84.91302225,"velocity":0.3937007874015748},{"duration":0.13043475000000626,"midi":49,"time":85.04345699999999,"velocity":0.3937007874015748},{"duration":0.13043475000000626,"midi":49,"time":85.04345699999999,"velocity":0.3937007874015748},{"duration":0.13043475000000626,"midi":52,"time":85.04345699999999,"velocity":0.3937007874015748},{"duration":0.13043475000000626,"midi":52,"time":85.04345699999999,"velocity":0.3937007874015748},{"duration":0.13043475000000626,"midi":52,"time":85.04345699999999,"velocity":0.3937007874015748},{"duration":0.13043475000000626,"midi":52,"time":85.04345699999999,"velocity":0.3937007874015748},{"duration":0.13043474999999205,"midi":56,"time":85.17389175,"velocity":0.3937007874015748},{"duration":0.13043474999999205,"midi":56,"time":85.17389175,"velocity":0.3937007874015748},{"duration":0.13043474999999205,"midi":82,"time":85.17389175,"velocity":0.3937007874015748},{"duration":0.13043474999999205,"midi":82,"time":85.17389175,"velocity":0.3937007874015748},{"duration":0.13043474999999205,"midi":82,"time":85.17389175,"velocity":0.3937007874015748},{"duration":0.13043474999999205,"midi":82,"time":85.17389175,"velocity":0.3937007874015748},{"duration":0.13043474999999205,"midi":51,"time":85.17389175,"velocity":0.3937007874015748},{"duration":0.13043474999999205,"midi":51,"time":85.17389175,"velocity":0.3937007874015748},{"duration":0.13043474999999205,"midi":51,"time":85.17389175,"velocity":0.3937007874015748},{"duration":0.13043474999999205,"midi":51,"time":85.17389175,"velocity":0.3937007874015748},{"duration":0.13043475000000626,"midi":80,"time":85.30432649999999,"velocity":0.3937007874015748},{"duration":0.13043475000000626,"midi":80,"time":85.30432649999999,"velocity":0.3937007874015748},{"duration":0.13043475000000626,"midi":58,"time":85.30432649999999,"velocity":0.3937007874015748},{"duration":0.13043475000000626,"midi":50,"time":85.30432649999999,"velocity":0.3937007874015748},{"duration":0.13043475000000626,"midi":50,"time":85.30432649999999,"velocity":0.3937007874015748},{"duration":0.13043475000000626,"midi":80,"time":85.30432649999999,"velocity":0.3937007874015748},{"duration":0.13043475000000626,"midi":50,"time":85.30432649999999,"velocity":0.3937007874015748},{"duration":0.13043475000000626,"midi":58,"time":85.30432649999999,"velocity":0.3937007874015748},{"duration":0.13043475000000626,"midi":80,"time":85.30432649999999,"velocity":0.3937007874015748},{"duration":0.13043475000000626,"midi":50,"time":85.30432649999999,"velocity":0.3937007874015748},{"duration":0.13043474999999205,"midi":49,"time":85.43476125,"velocity":0.3937007874015748},{"duration":0.13043474999999205,"midi":49,"time":85.43476125,"velocity":0.3937007874015748},{"duration":0.13043474999999205,"midi":49,"time":85.43476125,"velocity":0.3937007874015748},{"duration":0.13043474999999205,"midi":56,"time":85.43476125,"velocity":0.3937007874015748},{"duration":0.13043474999999205,"midi":49,"time":85.43476125,"velocity":0.3937007874015748},{"duration":0.13043474999999205,"midi":56,"time":85.43476125,"velocity":0.3937007874015748},{"duration":0.13043475000000626,"midi":53,"time":85.56519599999999,"velocity":0.3937007874015748},{"duration":0.13043475000000626,"midi":80,"time":85.56519599999999,"velocity":0.3937007874015748},{"duration":0.13043475000000626,"midi":80,"time":85.56519599999999,"velocity":0.3937007874015748},{"duration":1.565217000000004,"midi":48,"time":85.56519599999999,"velocity":0.3937007874015748},{"duration":0.13043475000000626,"midi":80,"time":85.56519599999999,"velocity":0.3937007874015748},{"duration":0.13043475000000626,"midi":80,"time":85.56519599999999,"velocity":0.3937007874015748},{"duration":0.13043475000000626,"midi":53,"time":85.56519599999999,"velocity":0.3937007874015748},{"duration":1.565217000000004,"midi":48,"time":85.56519599999999,"velocity":0.3937007874015748},{"duration":1.565217000000004,"midi":48,"time":85.56519599999999,"velocity":0.3937007874015748},{"duration":1.565217000000004,"midi":48,"time":85.56519599999999,"velocity":0.3937007874015748},{"duration":0.05842389843749629,"midi":82,"time":85.69563074999999,"velocity":0.3937007874015748},{"duration":0.13043475000000626,"midi":60,"time":85.69563074999999,"velocity":0.3937007874015748},{"duration":0.05842389843749629,"midi":82,"time":85.69563074999999,"velocity":0.3937007874015748},{"duration":0.05842389843749629,"midi":82,"time":85.69563074999999,"velocity":0.3937007874015748},{"duration":0.13043475000000626,"midi":60,"time":85.69563074999999,"velocity":0.3937007874015748},{"duration":0.05842389843749629,"midi":82,"time":85.69563074999999,"velocity":0.3937007874015748},{"duration":0.05842389843749629,"midi":80,"time":85.760848125,"velocity":0.3937007874015748},{"duration":0.05842389843749629,"midi":80,"time":85.760848125,"velocity":0.3937007874015748},{"duration":0.05842389843749629,"midi":80,"time":85.760848125,"velocity":0.3937007874015748},{"duration":0.05842389843749629,"midi":80,"time":85.760848125,"velocity":0.3937007874015748},{"duration":0.13043474999999205,"midi":61,"time":85.8260655,"velocity":0.3937007874015748},{"duration":0.22826081249999675,"midi":77,"time":85.8260655,"velocity":0.3937007874015748},{"duration":0.13043474999999205,"midi":61,"time":85.8260655,"velocity":0.3937007874015748},{"duration":0.22826081249999675,"midi":77,"time":85.8260655,"velocity":0.3937007874015748},{"duration":0.22826081249999675,"midi":77,"time":85.8260655,"velocity":0.3937007874015748},{"duration":0.22826081249999675,"midi":77,"time":85.8260655,"velocity":0.3937007874015748},{"duration":0.13043475000000626,"midi":60,"time":85.95650024999999,"velocity":0.3937007874015748},{"duration":0.13043475000000626,"midi":60,"time":85.95650024999999,"velocity":0.3937007874015748},{"duration":0.2608694999999983,"midi":77,"time":86.086935,"velocity":0.3937007874015748},{"duration":0.2608694999999983,"midi":77,"time":86.086935,"velocity":0.3937007874015748},{"duration":0.13043474999999205,"midi":53,"time":86.086935,"velocity":0.3937007874015748},{"duration":0.2608694999999983,"midi":77,"time":86.086935,"velocity":0.3937007874015748},{"duration":0.2608694999999983,"midi":77,"time":86.086935,"velocity":0.3937007874015748},{"duration":0.13043474999999205,"midi":53,"time":86.086935,"velocity":0.3937007874015748},{"duration":0.13043475000000626,"midi":60,"time":86.21736974999999,"velocity":0.3937007874015748},{"duration":0.13043475000000626,"midi":60,"time":86.21736974999999,"velocity":0.3937007874015748},{"duration":0.13043474999999205,"midi":76,"time":86.3478045,"velocity":0.3937007874015748},{"duration":0.13043474999999205,"midi":76,"time":86.3478045,"velocity":0.3937007874015748},{"duration":0.13043474999999205,"midi":61,"time":86.3478045,"velocity":0.3937007874015748},{"duration":0.13043474999999205,"midi":61,"time":86.3478045,"velocity":0.3937007874015748},{"duration":0.13043474999999205,"midi":76,"time":86.3478045,"velocity":0.3937007874015748},{"duration":0.13043474999999205,"midi":76,"time":86.3478045,"velocity":0.3937007874015748},{"duration":0.13043475000000626,"midi":77,"time":86.47823924999999,"velocity":0.3937007874015748},{"duration":0.13043475000000626,"midi":77,"time":86.47823924999999,"velocity":0.3937007874015748},{"duration":0.13043475000000626,"midi":77,"time":86.47823924999999,"velocity":0.3937007874015748},{"duration":0.13043475000000626,"midi":77,"time":86.47823924999999,"velocity":0.3937007874015748},{"duration":0.13043475000000626,"midi":60,"time":86.47823924999999,"velocity":0.3937007874015748},{"duration":0.13043475000000626,"midi":60,"time":86.47823924999999,"velocity":0.3937007874015748},{"duration":0.13043474999999205,"midi":53,"time":86.608674,"velocity":0.3937007874015748},{"duration":0.13043474999999205,"midi":53,"time":86.608674,"velocity":0.3937007874015748},{"duration":0.13043475000000626,"midi":60,"time":86.73910874999999,"velocity":0.3937007874015748},{"duration":0.13043475000000626,"midi":60,"time":86.73910874999999,"velocity":0.3937007874015748},{"duration":0.13043475000000626,"midi":61,"time":86.86954349999999,"velocity":0.3937007874015748},{"duration":0.13043475000000626,"midi":61,"time":86.86954349999999,"velocity":0.3937007874015748},{"duration":0.13043474999999205,"midi":60,"time":86.99997825,"velocity":0.3937007874015748},{"duration":0.13043474999999205,"midi":60,"time":86.99997825,"velocity":0.3937007874015748},{"duration":0.13043475000000626,"midi":49,"time":87.13041299999999,"velocity":0.3937007874015748},{"duration":0.13043475000000626,"midi":49,"time":87.13041299999999,"velocity":0.3937007874015748},{"duration":0.13043475000000626,"midi":53,"time":87.13041299999999,"velocity":0.3937007874015748},{"duration":0.13043475000000626,"midi":49,"time":87.13041299999999,"velocity":0.3937007874015748},{"duration":0.13043475000000626,"midi":53,"time":87.13041299999999,"velocity":0.3937007874015748},{"duration":0.13043475000000626,"midi":49,"time":87.13041299999999,"velocity":0.3937007874015748},{"duration":0.13043474999999205,"midi":50,"time":87.26084775,"velocity":0.3937007874015748},{"duration":0.13043474999999205,"midi":60,"time":87.26084775,"velocity":0.3937007874015748},{"duration":0.13043474999999205,"midi":50,"time":87.26084775,"velocity":0.3937007874015748},{"duration":0.13043474999999205,"midi":50,"time":87.26084775,"velocity":0.3937007874015748},{"duration":0.13043474999999205,"midi":60,"time":87.26084775,"velocity":0.3937007874015748},{"duration":0.13043474999999205,"midi":50,"time":87.26084775,"velocity":0.3937007874015748},{"duration":0.13043475000000626,"midi":61,"time":87.39128249999999,"velocity":0.3937007874015748},{"duration":0.13043475000000626,"midi":61,"time":87.39128249999999,"velocity":0.3937007874015748},{"duration":0.13043475000000626,"midi":51,"time":87.39128249999999,"velocity":0.3937007874015748},{"duration":0.13043475000000626,"midi":51,"time":87.39128249999999,"velocity":0.3937007874015748},{"duration":0.13043475000000626,"midi":51,"time":87.39128249999999,"velocity":0.3937007874015748},{"duration":0.13043475000000626,"midi":51,"time":87.39128249999999,"velocity":0.3937007874015748},{"duration":0.13043474999999205,"midi":60,"time":87.52171725,"velocity":0.3937007874015748},{"duration":0.13043474999999205,"midi":52,"time":87.52171725,"velocity":0.3937007874015748},{"duration":0.13043474999999205,"midi":60,"time":87.52171725,"velocity":0.3937007874015748},{"duration":0.13043474999999205,"midi":52,"time":87.52171725,"velocity":0.3937007874015748},{"duration":0.13043474999999205,"midi":52,"time":87.52171725,"velocity":0.3937007874015748},{"duration":0.13043474999999205,"midi":52,"time":87.52171725,"velocity":0.3937007874015748},{"duration":1.565217000000004,"midi":53,"time":87.65215199999999,"velocity":0.3937007874015748},{"duration":0.13043475000000626,"midi":49,"time":87.65215199999999,"velocity":0.3937007874015748},{"duration":1.565217000000004,"midi":53,"time":87.65215199999999,"velocity":0.3937007874015748},{"duration":1.565217000000004,"midi":53,"time":87.65215199999999,"velocity":0.3937007874015748},{"duration":0.13043475000000626,"midi":49,"time":87.65215199999999,"velocity":0.3937007874015748},{"duration":1.565217000000004,"midi":53,"time":87.65215199999999,"velocity":0.3937007874015748},{"duration":0.13043474999999205,"midi":56,"time":87.78258675,"velocity":0.3937007874015748},{"duration":0.13043474999999205,"midi":56,"time":87.78258675,"velocity":0.3937007874015748},{"duration":0.13043475000000626,"midi":58,"time":87.91302149999999,"velocity":0.3937007874015748},{"duration":0.13043475000000626,"midi":82,"time":87.91302149999999,"velocity":0.3937007874015748},{"duration":0.13043475000000626,"midi":58,"time":87.91302149999999,"velocity":0.3937007874015748},{"duration":0.13043475000000626,"midi":82,"time":87.91302149999999,"velocity":0.3937007874015748},{"duration":0.13043475000000626,"midi":82,"time":87.91302149999999,"velocity":0.3937007874015748},{"duration":0.13043475000000626,"midi":82,"time":87.91302149999999,"velocity":0.3937007874015748},{"duration":0.13043475000000626,"midi":80,"time":88.04345624999999,"velocity":0.3937007874015748},{"duration":0.13043475000000626,"midi":56,"time":88.04345624999999,"velocity":0.3937007874015748},{"duration":0.13043475000000626,"midi":80,"time":88.04345624999999,"velocity":0.3937007874015748},{"duration":0.13043475000000626,"midi":80,"time":88.04345624999999,"velocity":0.3937007874015748},{"duration":0.13043475000000626,"midi":80,"time":88.04345624999999,"velocity":0.3937007874015748},{"duration":0.13043475000000626,"midi":56,"time":88.04345624999999,"velocity":0.3937007874015748},{"duration":0.13043474999999205,"midi":49,"time":88.173891,"velocity":0.3937007874015748},{"duration":0.13043474999999205,"midi":49,"time":88.173891,"velocity":0.3937007874015748},{"duration":0.13043475000000626,"midi":56,"time":88.30432574999999,"velocity":0.3937007874015748},{"duration":0.13043475000000626,"midi":82,"time":88.30432574999999,"velocity":0.3937007874015748},{"duration":0.13043475000000626,"midi":82,"time":88.30432574999999,"velocity":0.3937007874015748},{"duration":0.13043475000000626,"midi":82,"time":88.30432574999999,"velocity":0.3937007874015748},{"duration":0.13043475000000626,"midi":82,"time":88.30432574999999,"velocity":0.3937007874015748},{"duration":0.13043475000000626,"midi":56,"time":88.30432574999999,"velocity":0.3937007874015748},{"duration":0.13043474999999205,"midi":80,"time":88.4347605,"velocity":0.3937007874015748},{"duration":0.13043474999999205,"midi":80,"time":88.4347605,"velocity":0.3937007874015748},{"duration":0.13043474999999205,"midi":80,"time":88.4347605,"velocity":0.3937007874015748},{"duration":0.13043474999999205,"midi":80,"time":88.4347605,"velocity":0.3937007874015748},{"duration":0.13043474999999205,"midi":58,"time":88.4347605,"velocity":0.3937007874015748},{"duration":0.13043474999999205,"midi":58,"time":88.4347605,"velocity":0.3937007874015748},{"duration":0.13043475000000626,"midi":56,"time":88.56519524999999,"velocity":0.3937007874015748},{"duration":0.13043475000000626,"midi":56,"time":88.56519524999999,"velocity":0.3937007874015748},{"duration":0.13043474999999205,"midi":49,"time":88.69563,"velocity":0.3937007874015748},{"duration":0.13043474999999205,"midi":49,"time":88.69563,"velocity":0.3937007874015748},{"duration":0.13043475000000626,"midi":56,"time":88.82606474999999,"velocity":0.3937007874015748},{"duration":0.13043475000000626,"midi":56,"time":88.82606474999999,"velocity":0.3937007874015748},{"duration":0.13043475000000626,"midi":58,"time":88.95649949999999,"velocity":0.3937007874015748},{"duration":0.13043475000000626,"midi":58,"time":88.95649949999999,"velocity":0.3937007874015748},{"duration":0.13043475000000626,"midi":82,"time":88.95649949999999,"velocity":0.3937007874015748},{"duration":0.13043475000000626,"midi":82,"time":88.95649949999999,"velocity":0.3937007874015748},{"duration":0.13043475000000626,"midi":82,"time":88.95649949999999,"velocity":0.3937007874015748},{"duration":0.13043475000000626,"midi":82,"time":88.95649949999999,"velocity":0.3937007874015748},{"duration":0.13043474999999205,"midi":56,"time":89.08693425,"velocity":0.3937007874015748},{"duration":0.13043474999999205,"midi":80,"time":89.08693425,"velocity":0.3937007874015748},{"duration":0.13043474999999205,"midi":80,"time":89.08693425,"velocity":0.3937007874015748},{"duration":0.13043474999999205,"midi":80,"time":89.08693425,"velocity":0.3937007874015748},{"duration":0.13043474999999205,"midi":56,"time":89.08693425,"velocity":0.3937007874015748},{"duration":0.13043474999999205,"midi":80,"time":89.08693425,"velocity":0.3937007874015748},{"duration":0.13043475000000626,"midi":49,"time":89.21736899999999,"velocity":0.3937007874015748},{"duration":0.2608694999999983,"midi":56,"time":89.21736899999999,"velocity":0.3937007874015748},{"duration":0.2608694999999983,"midi":56,"time":89.21736899999999,"velocity":0.3937007874015748},{"duration":0.13043475000000626,"midi":49,"time":89.21736899999999,"velocity":0.3937007874015748},{"duration":0.5217389999999966,"midi":56,"time":89.21736899999999,"velocity":0.3937007874015748},{"duration":0.5217389999999966,"midi":56,"time":89.21736899999999,"velocity":0.3937007874015748},{"duration":0.13043474999999205,"midi":82,"time":89.34780375,"velocity":0.3937007874015748},{"duration":0.39130424999999036,"midi":56,"time":89.34780375,"velocity":0.3937007874015748},{"duration":0.39130424999999036,"midi":56,"time":89.34780375,"velocity":0.3937007874015748},{"duration":0.13043474999999205,"midi":82,"time":89.34780375,"velocity":0.3937007874015748},{"duration":0.13043474999999205,"midi":82,"time":89.34780375,"velocity":0.3937007874015748},{"duration":0.13043474999999205,"midi":82,"time":89.34780375,"velocity":0.3937007874015748},{"duration":0.13043475000000626,"midi":58,"time":89.47823849999999,"velocity":0.3937007874015748},{"duration":0.13043475000000626,"midi":80,"time":89.47823849999999,"velocity":0.3937007874015748},{"duration":0.13043475000000626,"midi":80,"time":89.47823849999999,"velocity":0.3937007874015748},{"duration":0.13043475000000626,"midi":80,"time":89.47823849999999,"velocity":0.3937007874015748},{"duration":0.13043475000000626,"midi":58,"time":89.47823849999999,"velocity":0.3937007874015748},{"duration":0.13043475000000626,"midi":80,"time":89.47823849999999,"velocity":0.3937007874015748},{"duration":0.13043474999999205,"midi":56,"time":89.60867325,"velocity":0.3937007874015748},{"duration":0.13043474999999205,"midi":56,"time":89.60867325,"velocity":0.3937007874015748},{"duration":0.2608694999999983,"midi":80,"time":89.73910799999999,"velocity":0.3937007874015748},{"duration":2.0869560000000007,"midi":55,"time":89.73910799999999,"velocity":0.3937007874015748},{"duration":0.13043475000000626,"midi":53,"time":89.73910799999999,"velocity":0.3937007874015748},{"duration":0.2608694999999983,"midi":80,"time":89.73910799999999,"velocity":0.3937007874015748},{"duration":2.0869560000000007,"midi":55,"time":89.73910799999999,"velocity":0.3937007874015748},{"duration":2.0869560000000007,"midi":55,"time":89.73910799999999,"velocity":0.3937007874015748},{"duration":0.2608694999999983,"midi":80,"time":89.73910799999999,"velocity":0.3937007874015748},{"duration":0.13043475000000626,"midi":53,"time":89.73910799999999,"velocity":0.3937007874015748},{"duration":0.2608694999999983,"midi":80,"time":89.73910799999999,"velocity":0.3937007874015748},{"duration":2.0869560000000007,"midi":55,"time":89.73910799999999,"velocity":0.3937007874015748},{"duration":0.13043474999999205,"midi":60,"time":89.86954275,"velocity":0.3937007874015748},{"duration":0.13043474999999205,"midi":60,"time":89.86954275,"velocity":0.3937007874015748},{"duration":0.2608695000000125,"midi":82,"time":89.99997749999999,"velocity":0.3937007874015748},{"duration":0.13043475000000626,"midi":61,"time":89.99997749999999,"velocity":0.3937007874015748},{"duration":0.13043475000000626,"midi":61,"time":89.99997749999999,"velocity":0.3937007874015748},{"duration":0.2608695000000125,"midi":82,"time":89.99997749999999,"velocity":0.3937007874015748},{"duration":0.2608695000000125,"midi":82,"time":89.99997749999999,"velocity":0.3937007874015748},{"duration":0.2608695000000125,"midi":82,"time":89.99997749999999,"velocity":0.3937007874015748},{"duration":0.13043475000000626,"midi":60,"time":90.13041224999999,"velocity":0.3937007874015748},{"duration":0.13043475000000626,"midi":60,"time":90.13041224999999,"velocity":0.3937007874015748},{"duration":0.13043474999999205,"midi":53,"time":90.260847,"velocity":0.3937007874015748},{"duration":0.13043474999999205,"midi":53,"time":90.260847,"velocity":0.3937007874015748},{"duration":0.13043474999999205,"midi":83,"time":90.260847,"velocity":0.3937007874015748},{"duration":0.13043474999999205,"midi":83,"time":90.260847,"velocity":0.3937007874015748},{"duration":0.13043474999999205,"midi":83,"time":90.260847,"velocity":0.3937007874015748},{"duration":0.13043474999999205,"midi":83,"time":90.260847,"velocity":0.3937007874015748},{"duration":0.2608694999999983,"midi":82,"time":90.39128174999999,"velocity":0.3937007874015748},{"duration":0.2608694999999983,"midi":82,"time":90.39128174999999,"velocity":0.3937007874015748},{"duration":0.13043475000000626,"midi":60,"time":90.39128174999999,"velocity":0.3937007874015748},{"duration":0.2608694999999983,"midi":82,"time":90.39128174999999,"velocity":0.3937007874015748},{"duration":0.13043475000000626,"midi":60,"time":90.39128174999999,"velocity":0.3937007874015748},{"duration":0.2608694999999983,"midi":82,"time":90.39128174999999,"velocity":0.3937007874015748},{"duration":0.13043474999999205,"midi":61,"time":90.5217165,"velocity":0.3937007874015748},{"duration":0.13043474999999205,"midi":61,"time":90.5217165,"velocity":0.3937007874015748},{"duration":0.13043475000000626,"midi":80,"time":90.65215124999999,"velocity":0.3937007874015748},{"duration":0.13043475000000626,"midi":80,"time":90.65215124999999,"velocity":0.3937007874015748},{"duration":0.13043475000000626,"midi":60,"time":90.65215124999999,"velocity":0.3937007874015748},{"duration":0.13043475000000626,"midi":80,"time":90.65215124999999,"velocity":0.3937007874015748},{"duration":0.13043475000000626,"midi":60,"time":90.65215124999999,"velocity":0.3937007874015748},{"duration":0.13043475000000626,"midi":80,"time":90.65215124999999,"velocity":0.3937007874015748},{"duration":0.13043474999999205,"midi":53,"time":90.782586,"velocity":0.3937007874015748},{"duration":0.5217389999999966,"midi":77,"time":90.782586,"velocity":0.3937007874015748},{"duration":0.5217389999999966,"midi":77,"time":90.782586,"velocity":0.3937007874015748},{"duration":0.5217389999999966,"midi":77,"time":90.782586,"velocity":0.3937007874015748},{"duration":0.5217389999999966,"midi":77,"time":90.782586,"velocity":0.3937007874015748},{"duration":0.13043474999999205,"midi":53,"time":90.782586,"velocity":0.3937007874015748},{"duration":0.13043475000000626,"midi":60,"time":90.91302074999999,"velocity":0.3937007874015748},{"duration":0.13043475000000626,"midi":60,"time":90.91302074999999,"velocity":0.3937007874015748},{"duration":0.13043474999999205,"midi":61,"time":91.0434555,"velocity":0.3937007874015748},{"duration":0.13043474999999205,"midi":61,"time":91.0434555,"velocity":0.3937007874015748},{"duration":0.13043475000000626,"midi":60,"time":91.17389024999999,"velocity":0.3937007874015748},{"duration":0.13043475000000626,"midi":60,"time":91.17389024999999,"velocity":0.3937007874015748},{"duration":0.13043475000000626,"midi":53,"time":91.30432499999999,"velocity":0.3937007874015748},{"duration":0.13043475000000626,"midi":53,"time":91.30432499999999,"velocity":0.3937007874015748},{"duration":0.13043474999999205,"midi":60,"time":91.43475975,"velocity":0.3937007874015748},{"duration":0.13043474999999205,"midi":60,"time":91.43475975,"velocity":0.3937007874015748},{"duration":0.13043475000000626,"midi":61,"time":91.56519449999999,"velocity":0.3937007874015748},{"duration":0.13043475000000626,"midi":61,"time":91.56519449999999,"velocity":0.3937007874015748},{"duration":0.13043474999999205,"midi":60,"time":91.69562925,"velocity":0.3937007874015748},{"duration":0.13043474999999205,"midi":60,"time":91.69562925,"velocity":0.3937007874015748},{"duration":1.565217000000004,"midi":53,"time":91.82606399999999,"velocity":0.3937007874015748},{"duration":1.565217000000004,"midi":53,"time":91.82606399999999,"velocity":0.3937007874015748},{"duration":1.565217000000004,"midi":53,"time":91.82606399999999,"velocity":0.3937007874015748},{"duration":1.565217000000004,"midi":53,"time":91.82606399999999,"velocity":0.3937007874015748},{"duration":0.13043475000000626,"midi":49,"time":91.82606399999999,"velocity":0.3937007874015748},{"duration":0.13043475000000626,"midi":49,"time":91.82606399999999,"velocity":0.3937007874015748},{"duration":0.13043474999999205,"midi":56,"time":91.95649875,"velocity":0.3937007874015748},{"duration":0.13043474999999205,"midi":56,"time":91.95649875,"velocity":0.3937007874015748},{"duration":0.13043475000000626,"midi":82,"time":92.08693349999999,"velocity":0.3937007874015748},{"duration":0.13043475000000626,"midi":82,"time":92.08693349999999,"velocity":0.3937007874015748},{"duration":0.13043475000000626,"midi":82,"time":92.08693349999999,"velocity":0.3937007874015748},{"duration":0.13043475000000626,"midi":82,"time":92.08693349999999,"velocity":0.3937007874015748},{"duration":0.13043475000000626,"midi":58,"time":92.08693349999999,"velocity":0.3937007874015748},{"duration":0.13043475000000626,"midi":58,"time":92.08693349999999,"velocity":0.3937007874015748},{"duration":0.13043474999999205,"midi":80,"time":92.21736824999999,"velocity":0.3937007874015748},{"duration":0.13043474999999205,"midi":80,"time":92.21736824999999,"velocity":0.3937007874015748},{"duration":0.13043474999999205,"midi":56,"time":92.21736824999999,"velocity":0.3937007874015748},{"duration":0.13043474999999205,"midi":56,"time":92.21736824999999,"velocity":0.3937007874015748},{"duration":0.13043474999999205,"midi":80,"time":92.21736824999999,"velocity":0.3937007874015748},{"duration":0.13043474999999205,"midi":80,"time":92.21736824999999,"velocity":0.3937007874015748},{"duration":0.13043475000000626,"midi":49,"time":92.34780299999998,"velocity":0.3937007874015748},{"duration":0.13043475000000626,"midi":49,"time":92.34780299999998,"velocity":0.3937007874015748},{"duration":0.13043475000000626,"midi":82,"time":92.47823774999999,"velocity":0.3937007874015748},{"duration":0.13043475000000626,"midi":82,"time":92.47823774999999,"velocity":0.3937007874015748},{"duration":0.13043475000000626,"midi":82,"time":92.47823774999999,"velocity":0.3937007874015748},{"duration":0.13043475000000626,"midi":56,"time":92.47823774999999,"velocity":0.3937007874015748},{"duration":0.13043475000000626,"midi":82,"time":92.47823774999999,"velocity":0.3937007874015748},{"duration":0.13043475000000626,"midi":56,"time":92.47823774999999,"velocity":0.3937007874015748},{"duration":0.13043474999999205,"midi":80,"time":92.6086725,"velocity":0.3937007874015748},{"duration":0.13043474999999205,"midi":80,"time":92.6086725,"velocity":0.3937007874015748},{"duration":0.13043474999999205,"midi":58,"time":92.6086725,"velocity":0.3937007874015748},{"duration":0.13043474999999205,"midi":58,"time":92.6086725,"velocity":0.3937007874015748},{"duration":0.13043474999999205,"midi":80,"time":92.6086725,"velocity":0.3937007874015748},{"duration":0.13043474999999205,"midi":80,"time":92.6086725,"velocity":0.3937007874015748},{"duration":0.13043475000000626,"midi":56,"time":92.73910724999999,"velocity":0.3937007874015748},{"duration":0.13043475000000626,"midi":56,"time":92.73910724999999,"velocity":0.3937007874015748},{"duration":0.13043474999999205,"midi":49,"time":92.869542,"velocity":0.3937007874015748},{"duration":0.13043474999999205,"midi":49,"time":92.869542,"velocity":0.3937007874015748},{"duration":0.13043475000000626,"midi":56,"time":92.99997674999999,"velocity":0.3937007874015748},{"duration":0.13043475000000626,"midi":56,"time":92.99997674999999,"velocity":0.3937007874015748},{"duration":0.13043474999999205,"midi":58,"time":93.1304115,"velocity":0.3937007874015748},{"duration":0.13043474999999205,"midi":82,"time":93.1304115,"velocity":0.3937007874015748},{"duration":0.13043474999999205,"midi":58,"time":93.1304115,"velocity":0.3937007874015748},{"duration":0.13043474999999205,"midi":82,"time":93.1304115,"velocity":0.3937007874015748},{"duration":0.13043474999999205,"midi":82,"time":93.1304115,"velocity":0.3937007874015748},{"duration":0.13043474999999205,"midi":82,"time":93.1304115,"velocity":0.3937007874015748},{"duration":0.13043475000000626,"midi":80,"time":93.26084624999999,"velocity":0.3937007874015748},{"duration":0.13043475000000626,"midi":80,"time":93.26084624999999,"velocity":0.3937007874015748},{"duration":0.13043475000000626,"midi":56,"time":93.26084624999999,"velocity":0.3937007874015748},{"duration":0.13043475000000626,"midi":80,"time":93.26084624999999,"velocity":0.3937007874015748},{"duration":0.13043475000000626,"midi":80,"time":93.26084624999999,"velocity":0.3937007874015748},{"duration":0.13043475000000626,"midi":56,"time":93.26084624999999,"velocity":0.3937007874015748},{"duration":0.13043475000000626,"midi":52,"time":93.39128099999999,"velocity":0.3937007874015748},{"duration":0.13043475000000626,"midi":52,"time":93.39128099999999,"velocity":0.3937007874015748},{"duration":0.13043475000000626,"midi":49,"time":93.39128099999999,"velocity":0.3937007874015748},{"duration":0.13043475000000626,"midi":52,"time":93.39128099999999,"velocity":0.3937007874015748},{"duration":0.13043475000000626,"midi":49,"time":93.39128099999999,"velocity":0.3937007874015748},{"duration":0.13043475000000626,"midi":52,"time":93.39128099999999,"velocity":0.3937007874015748},{"duration":0.13043474999999205,"midi":82,"time":93.52171575,"velocity":0.3937007874015748},{"duration":0.13043474999999205,"midi":82,"time":93.52171575,"velocity":0.3937007874015748},{"duration":0.13043474999999205,"midi":56,"time":93.52171575,"velocity":0.3937007874015748},{"duration":0.13043474999999205,"midi":82,"time":93.52171575,"velocity":0.3937007874015748},{"duration":0.13043474999999205,"midi":51,"time":93.52171575,"velocity":0.3937007874015748},{"duration":0.13043474999999205,"midi":56,"time":93.52171575,"velocity":0.3937007874015748},{"duration":0.13043474999999205,"midi":51,"time":93.52171575,"velocity":0.3937007874015748},{"duration":0.13043474999999205,"midi":51,"time":93.52171575,"velocity":0.3937007874015748},{"duration":0.13043474999999205,"midi":82,"time":93.52171575,"velocity":0.3937007874015748},{"duration":0.13043474999999205,"midi":51,"time":93.52171575,"velocity":0.3937007874015748},{"duration":0.13043475000000626,"midi":58,"time":93.65215049999999,"velocity":0.3937007874015748},{"duration":0.13043475000000626,"midi":58,"time":93.65215049999999,"velocity":0.3937007874015748},{"duration":0.13043475000000626,"midi":80,"time":93.65215049999999,"velocity":0.3937007874015748},{"duration":0.13043475000000626,"midi":80,"time":93.65215049999999,"velocity":0.3937007874015748},{"duration":0.13043475000000626,"midi":50,"time":93.65215049999999,"velocity":0.3937007874015748},{"duration":0.13043475000000626,"midi":50,"time":93.65215049999999,"velocity":0.3937007874015748},{"duration":0.13043475000000626,"midi":50,"time":93.65215049999999,"velocity":0.3937007874015748},{"duration":0.13043475000000626,"midi":80,"time":93.65215049999999,"velocity":0.3937007874015748},{"duration":0.13043475000000626,"midi":50,"time":93.65215049999999,"velocity":0.3937007874015748},{"duration":0.13043475000000626,"midi":80,"time":93.65215049999999,"velocity":0.3937007874015748},{"duration":0.13043474999999205,"midi":49,"time":93.78258525,"velocity":0.3937007874015748},{"duration":0.13043474999999205,"midi":49,"time":93.78258525,"velocity":0.3937007874015748},{"duration":0.13043474999999205,"midi":49,"time":93.78258525,"velocity":0.3937007874015748},{"duration":0.13043474999999205,"midi":49,"time":93.78258525,"velocity":0.3937007874015748},{"duration":0.13043474999999205,"midi":56,"time":93.78258525,"velocity":0.3937007874015748},{"duration":0.13043474999999205,"midi":56,"time":93.78258525,"velocity":0.3937007874015748},{"duration":1.565217000000004,"midi":48,"time":93.91301999999999,"velocity":0.3937007874015748},{"duration":0.13043475000000626,"midi":80,"time":93.91301999999999,"velocity":0.3937007874015748},{"duration":1.565217000000004,"midi":48,"time":93.91301999999999,"velocity":0.3937007874015748},{"duration":0.13043475000000626,"midi":80,"time":93.91301999999999,"velocity":0.3937007874015748},{"duration":0.13043475000000626,"midi":80,"time":93.91301999999999,"velocity":0.3937007874015748},{"duration":0.13043475000000626,"midi":53,"time":93.91301999999999,"velocity":0.3937007874015748},{"duration":1.565217000000004,"midi":48,"time":93.91301999999999,"velocity":0.3937007874015748},{"duration":0.13043475000000626,"midi":80,"time":93.91301999999999,"velocity":0.3937007874015748},{"duration":0.13043475000000626,"midi":53,"time":93.91301999999999,"velocity":0.3937007874015748},{"duration":1.565217000000004,"midi":48,"time":93.91301999999999,"velocity":0.3937007874015748},{"duration":0.05842389843749629,"midi":82,"time":94.04345475,"velocity":0.3937007874015748},{"duration":0.05842389843749629,"midi":82,"time":94.04345475,"velocity":0.3937007874015748},{"duration":0.13043474999999205,"midi":60,"time":94.04345475,"velocity":0.3937007874015748},{"duration":0.05842389843749629,"midi":82,"time":94.04345475,"velocity":0.3937007874015748},{"duration":0.13043474999999205,"midi":60,"time":94.04345475,"velocity":0.3937007874015748},{"duration":0.05842389843749629,"midi":82,"time":94.04345475,"velocity":0.3937007874015748},{"duration":0.05842389843748208,"midi":80,"time":94.108672125,"velocity":0.3937007874015748},{"duration":0.05842389843748208,"midi":80,"time":94.108672125,"velocity":0.3937007874015748},{"duration":0.05842389843748208,"midi":80,"time":94.108672125,"velocity":0.3937007874015748},{"duration":0.05842389843748208,"midi":80,"time":94.108672125,"velocity":0.3937007874015748},{"duration":0.22826081250001096,"midi":77,"time":94.17388949999999,"velocity":0.3937007874015748},{"duration":0.13043475000000626,"midi":61,"time":94.17388949999999,"velocity":0.3937007874015748},{"duration":0.13043475000000626,"midi":61,"time":94.17388949999999,"velocity":0.3937007874015748},{"duration":0.22826081250001096,"midi":77,"time":94.17388949999999,"velocity":0.3937007874015748},{"duration":0.22826081250001096,"midi":77,"time":94.17388949999999,"velocity":0.3937007874015748},{"duration":0.22826081250001096,"midi":77,"time":94.17388949999999,"velocity":0.3937007874015748},{"duration":0.13043474999999205,"midi":60,"time":94.30432425,"velocity":0.3937007874015748},{"duration":0.13043474999999205,"midi":60,"time":94.30432425,"velocity":0.3937007874015748},{"duration":0.13043475000000626,"midi":53,"time":94.43475899999999,"velocity":0.3937007874015748},{"duration":0.2608695000000125,"midi":77,"time":94.43475899999999,"velocity":0.3937007874015748},{"duration":0.2608695000000125,"midi":77,"time":94.43475899999999,"velocity":0.3937007874015748},{"duration":0.2608695000000125,"midi":77,"time":94.43475899999999,"velocity":0.3937007874015748},{"duration":0.13043475000000626,"midi":53,"time":94.43475899999999,"velocity":0.3937007874015748},{"duration":0.2608695000000125,"midi":77,"time":94.43475899999999,"velocity":0.3937007874015748},{"duration":0.13043475000000626,"midi":60,"time":94.56519374999999,"velocity":0.3937007874015748},{"duration":0.13043475000000626,"midi":60,"time":94.56519374999999,"velocity":0.3937007874015748},{"duration":0.13043474999999205,"midi":61,"time":94.6956285,"velocity":0.3937007874015748},{"duration":0.13043474999999205,"midi":61,"time":94.6956285,"velocity":0.3937007874015748},{"duration":0.13043474999999205,"midi":76,"time":94.6956285,"velocity":0.3937007874015748},{"duration":0.13043474999999205,"midi":76,"time":94.6956285,"velocity":0.3937007874015748},{"duration":0.13043474999999205,"midi":76,"time":94.6956285,"velocity":0.3937007874015748},{"duration":0.13043474999999205,"midi":76,"time":94.6956285,"velocity":0.3937007874015748},{"duration":0.13043475000000626,"midi":77,"time":94.82606324999999,"velocity":0.3937007874015748},{"duration":0.13043475000000626,"midi":77,"time":94.82606324999999,"velocity":0.3937007874015748},{"duration":0.13043475000000626,"midi":77,"time":94.82606324999999,"velocity":0.3937007874015748},{"duration":0.13043475000000626,"midi":60,"time":94.82606324999999,"velocity":0.3937007874015748},{"duration":0.13043475000000626,"midi":77,"time":94.82606324999999,"velocity":0.3937007874015748},{"duration":0.13043475000000626,"midi":60,"time":94.82606324999999,"velocity":0.3937007874015748},{"duration":0.13043474999999205,"midi":53,"time":94.956498,"velocity":0.3937007874015748},{"duration":0.13043474999999205,"midi":53,"time":94.956498,"velocity":0.3937007874015748},{"duration":0.13043475000000626,"midi":60,"time":95.08693274999999,"velocity":0.3937007874015748},{"duration":0.13043475000000626,"midi":60,"time":95.08693274999999,"velocity":0.3937007874015748},{"duration":0.13043474999999205,"midi":61,"time":95.2173675,"velocity":0.3937007874015748},{"duration":0.13043474999999205,"midi":61,"time":95.2173675,"velocity":0.3937007874015748},{"duration":0.13043475000000626,"midi":60,"time":95.34780224999999,"velocity":0.3937007874015748},{"duration":0.13043475000000626,"midi":60,"time":95.34780224999999,"velocity":0.3937007874015748},{"duration":0.13043474999999205,"midi":49,"time":95.478237,"velocity":0.3937007874015748},{"duration":0.13043474999999205,"midi":49,"time":95.478237,"velocity":0.3937007874015748},{"duration":0.13043474999999205,"midi":53,"time":95.478237,"velocity":0.3937007874015748},{"duration":0.13043474999999205,"midi":53,"time":95.478237,"velocity":0.3937007874015748},{"duration":0.13043474999999205,"midi":49,"time":95.478237,"velocity":0.3937007874015748},{"duration":0.13043474999999205,"midi":49,"time":95.478237,"velocity":0.3937007874015748},{"duration":0.13043475000000626,"midi":50,"time":95.60867174999998,"velocity":0.3937007874015748},{"duration":0.13043475000000626,"midi":60,"time":95.60867174999998,"velocity":0.3937007874015748},{"duration":0.13043475000000626,"midi":50,"time":95.60867174999998,"velocity":0.3937007874015748},{"duration":0.13043475000000626,"midi":60,"time":95.60867174999998,"velocity":0.3937007874015748},{"duration":0.13043475000000626,"midi":50,"time":95.60867174999998,"velocity":0.3937007874015748},{"duration":0.13043475000000626,"midi":50,"time":95.60867174999998,"velocity":0.3937007874015748},{"duration":0.13043475000000626,"midi":51,"time":95.73910649999999,"velocity":0.3937007874015748},{"duration":0.13043475000000626,"midi":51,"time":95.73910649999999,"velocity":0.3937007874015748},{"duration":0.13043475000000626,"midi":51,"time":95.73910649999999,"velocity":0.3937007874015748},{"duration":0.13043475000000626,"midi":51,"time":95.73910649999999,"velocity":0.3937007874015748},{"duration":0.13043475000000626,"midi":61,"time":95.73910649999999,"velocity":0.3937007874015748},{"duration":0.13043475000000626,"midi":61,"time":95.73910649999999,"velocity":0.3937007874015748},{"duration":0.13043474999999205,"midi":60,"time":95.86954125,"velocity":0.3937007874015748},{"duration":0.13043474999999205,"midi":60,"time":95.86954125,"velocity":0.3937007874015748},{"duration":0.13043474999999205,"midi":52,"time":95.86954125,"velocity":0.3937007874015748},{"duration":0.13043474999999205,"midi":52,"time":95.86954125,"velocity":0.3937007874015748},{"duration":0.13043474999999205,"midi":52,"time":95.86954125,"velocity":0.3937007874015748},{"duration":0.13043474999999205,"midi":52,"time":95.86954125,"velocity":0.3937007874015748},{"duration":1.565217000000004,"midi":53,"time":95.99997599999999,"velocity":0.3937007874015748},{"duration":0.13043475000000626,"midi":49,"time":95.99997599999999,"velocity":0.3937007874015748},{"duration":1.565217000000004,"midi":53,"time":95.99997599999999,"velocity":0.3937007874015748},{"duration":0.13043475000000626,"midi":49,"time":95.99997599999999,"velocity":0.3937007874015748},{"duration":1.565217000000004,"midi":53,"time":95.99997599999999,"velocity":0.3937007874015748},{"duration":1.565217000000004,"midi":53,"time":95.99997599999999,"velocity":0.3937007874015748},{"duration":0.13043474999999205,"midi":56,"time":96.13041075,"velocity":0.3937007874015748},{"duration":0.13043474999999205,"midi":56,"time":96.13041075,"velocity":0.3937007874015748},{"duration":0.13043475000000626,"midi":82,"time":96.26084549999999,"velocity":0.3937007874015748},{"duration":0.13043475000000626,"midi":82,"time":96.26084549999999,"velocity":0.3937007874015748},{"duration":0.13043475000000626,"midi":58,"time":96.26084549999999,"velocity":0.3937007874015748},{"duration":0.13043475000000626,"midi":82,"time":96.26084549999999,"velocity":0.3937007874015748},{"duration":0.13043475000000626,"midi":82,"time":96.26084549999999,"velocity":0.3937007874015748},{"duration":0.13043475000000626,"midi":58,"time":96.26084549999999,"velocity":0.3937007874015748},{"duration":0.13043474999999205,"midi":80,"time":96.39128025,"velocity":0.3937007874015748},{"duration":0.13043474999999205,"midi":80,"time":96.39128025,"velocity":0.3937007874015748},{"duration":0.13043474999999205,"midi":56,"time":96.39128025,"velocity":0.3937007874015748},{"duration":0.13043474999999205,"midi":56,"time":96.39128025,"velocity":0.3937007874015748},{"duration":0.13043474999999205,"midi":80,"time":96.39128025,"velocity":0.3937007874015748},{"duration":0.13043474999999205,"midi":80,"time":96.39128025,"velocity":0.3937007874015748},{"duration":0.13043475000000626,"midi":49,"time":96.52171499999999,"velocity":0.3937007874015748},{"duration":0.13043475000000626,"midi":49,"time":96.52171499999999,"velocity":0.3937007874015748},{"duration":0.13043474999999205,"midi":82,"time":96.65214974999999,"velocity":0.3937007874015748},{"duration":0.13043474999999205,"midi":56,"time":96.65214974999999,"velocity":0.3937007874015748},{"duration":0.13043474999999205,"midi":56,"time":96.65214974999999,"velocity":0.3937007874015748},{"duration":0.13043474999999205,"midi":82,"time":96.65214974999999,"velocity":0.3937007874015748},{"duration":0.13043474999999205,"midi":82,"time":96.65214974999999,"velocity":0.3937007874015748},{"duration":0.13043474999999205,"midi":82,"time":96.65214974999999,"velocity":0.3937007874015748},{"duration":0.13043475000000626,"midi":58,"time":96.78258449999998,"velocity":0.3937007874015748},{"duration":0.13043475000000626,"midi":80,"time":96.78258449999998,"velocity":0.3937007874015748},{"duration":0.13043475000000626,"midi":80,"time":96.78258449999998,"velocity":0.3937007874015748},{"duration":0.13043475000000626,"midi":80,"time":96.78258449999998,"velocity":0.3937007874015748},{"duration":0.13043475000000626,"midi":80,"time":96.78258449999998,"velocity":0.3937007874015748},{"duration":0.13043475000000626,"midi":58,"time":96.78258449999998,"velocity":0.3937007874015748},{"duration":0.13043475000000626,"midi":56,"time":96.91301924999999,"velocity":0.3937007874015748},{"duration":0.13043475000000626,"midi":56,"time":96.91301924999999,"velocity":0.3937007874015748},{"duration":0.13043474999999205,"midi":49,"time":97.043454,"velocity":0.3937007874015748},{"duration":0.13043474999999205,"midi":49,"time":97.043454,"velocity":0.3937007874015748},{"duration":0.13043475000000626,"midi":56,"time":97.17388874999999,"velocity":0.3937007874015748},{"duration":0.13043475000000626,"midi":56,"time":97.17388874999999,"velocity":0.3937007874015748},{"duration":0.13043474999999205,"midi":58,"time":97.3043235,"velocity":0.3937007874015748},{"duration":0.13043474999999205,"midi":82,"time":97.3043235,"velocity":0.3937007874015748},{"duration":0.13043474999999205,"midi":82,"time":97.3043235,"velocity":0.3937007874015748},{"duration":0.13043474999999205,"midi":58,"time":97.3043235,"velocity":0.3937007874015748},{"duration":0.13043474999999205,"midi":82,"time":97.3043235,"velocity":0.3937007874015748},{"duration":0.13043474999999205,"midi":82,"time":97.3043235,"velocity":0.3937007874015748},{"duration":0.13043475000000626,"midi":80,"time":97.43475824999999,"velocity":0.3937007874015748},{"duration":0.13043475000000626,"midi":80,"time":97.43475824999999,"velocity":0.3937007874015748},{"duration":0.13043475000000626,"midi":80,"time":97.43475824999999,"velocity":0.3937007874015748},{"duration":0.13043475000000626,"midi":56,"time":97.43475824999999,"velocity":0.3937007874015748},{"duration":0.13043475000000626,"midi":56,"time":97.43475824999999,"velocity":0.3937007874015748},{"duration":0.13043475000000626,"midi":80,"time":97.43475824999999,"velocity":0.3937007874015748},{"duration":0.2608694999999983,"midi":56,"time":97.565193,"velocity":0.3937007874015748},{"duration":0.2608694999999983,"midi":56,"time":97.565193,"velocity":0.3937007874015748},{"duration":0.5217389999999966,"midi":56,"time":97.565193,"velocity":0.3937007874015748},{"duration":0.13043474999999205,"midi":49,"time":97.565193,"velocity":0.3937007874015748},{"duration":0.13043474999999205,"midi":49,"time":97.565193,"velocity":0.3937007874015748},{"duration":0.5217389999999966,"midi":56,"time":97.565193,"velocity":0.3937007874015748},{"duration":0.13043475000000626,"midi":82,"time":97.69562774999999,"velocity":0.3937007874015748},{"duration":0.39130425000000457,"midi":56,"time":97.69562774999999,"velocity":0.3937007874015748},{"duration":0.39130425000000457,"midi":56,"time":97.69562774999999,"velocity":0.3937007874015748},{"duration":0.13043475000000626,"midi":82,"time":97.69562774999999,"velocity":0.3937007874015748},{"duration":0.13043475000000626,"midi":82,"time":97.69562774999999,"velocity":0.3937007874015748},{"duration":0.13043475000000626,"midi":82,"time":97.69562774999999,"velocity":0.3937007874015748},{"duration":0.13043475000000626,"midi":80,"time":97.82606249999999,"velocity":0.3937007874015748},{"duration":0.13043475000000626,"midi":80,"time":97.82606249999999,"velocity":0.3937007874015748},{"duration":0.13043475000000626,"midi":80,"time":97.82606249999999,"velocity":0.3937007874015748},{"duration":0.13043475000000626,"midi":80,"time":97.82606249999999,"velocity":0.3937007874015748},{"duration":0.13043475000000626,"midi":58,"time":97.82606249999999,"velocity":0.3937007874015748},{"duration":0.13043475000000626,"midi":58,"time":97.82606249999999,"velocity":0.3937007874015748},{"duration":0.13043474999999205,"midi":56,"time":97.95649725,"velocity":0.3937007874015748},{"duration":0.13043474999999205,"midi":56,"time":97.95649725,"velocity":0.3937007874015748},{"duration":0.2608694999999983,"midi":67,"time":98.08693199999999,"velocity":0.3937007874015748},{"duration":0.2608694999999983,"midi":72,"time":98.08693199999999,"velocity":0.3937007874015748},{"duration":0.2608694999999983,"midi":67,"time":98.08693199999999,"velocity":0.3937007874015748},{"duration":0.2608694999999983,"midi":72,"time":98.08693199999999,"velocity":0.3937007874015748},{"duration":0.2608694999999983,"midi":72,"time":98.08693199999999,"velocity":0.3937007874015748},{"duration":0.2608694999999983,"midi":72,"time":98.08693199999999,"velocity":0.3937007874015748},{"duration":0.2608694999999983,"midi":67,"time":98.08693199999999,"velocity":0.3937007874015748},{"duration":0.2608694999999983,"midi":67,"time":98.08693199999999,"velocity":0.3937007874015748},{"duration":0.2608694999999983,"midi":67,"time":98.34780149999999,"velocity":0.3937007874015748},{"duration":0.2608694999999983,"midi":72,"time":98.34780149999999,"velocity":0.3937007874015748},{"duration":0.2608694999999983,"midi":72,"time":98.34780149999999,"velocity":0.3937007874015748},{"duration":0.2608694999999983,"midi":72,"time":98.34780149999999,"velocity":0.3937007874015748},{"duration":0.2608694999999983,"midi":67,"time":98.34780149999999,"velocity":0.3937007874015748},{"duration":0.2608694999999983,"midi":72,"time":98.34780149999999,"velocity":0.3937007874015748},{"duration":0.2608694999999983,"midi":67,"time":98.34780149999999,"velocity":0.3937007874015748},{"duration":0.2608694999999983,"midi":67,"time":98.34780149999999,"velocity":0.3937007874015748},{"duration":0.13043475000000626,"midi":72,"time":98.60867099999999,"velocity":0.3937007874015748},{"duration":0.13043475000000626,"midi":76,"time":98.60867099999999,"velocity":0.3937007874015748},{"duration":0.13043475000000626,"midi":72,"time":98.60867099999999,"velocity":0.3937007874015748},{"duration":0.13043475000000626,"midi":76,"time":98.60867099999999,"velocity":0.3937007874015748},{"duration":0.13043475000000626,"midi":72,"time":98.60867099999999,"velocity":0.3937007874015748},{"duration":0.13043475000000626,"midi":72,"time":98.60867099999999,"velocity":0.3937007874015748},{"duration":0.13043475000000626,"midi":76,"time":98.60867099999999,"velocity":0.3937007874015748},{"duration":0.13043475000000626,"midi":76,"time":98.60867099999999,"velocity":0.3937007874015748},{"duration":0.2608694999999983,"midi":67,"time":98.73910575,"velocity":0.3937007874015748},{"duration":0.2608694999999983,"midi":67,"time":98.73910575,"velocity":0.3937007874015748},{"duration":0.2608694999999983,"midi":72,"time":98.73910575,"velocity":0.3937007874015748},{"duration":0.2608694999999983,"midi":67,"time":98.73910575,"velocity":0.3937007874015748},{"duration":0.2608694999999983,"midi":72,"time":98.73910575,"velocity":0.3937007874015748},{"duration":0.2608694999999983,"midi":72,"time":98.73910575,"velocity":0.3937007874015748},{"duration":0.2608694999999983,"midi":67,"time":98.73910575,"velocity":0.3937007874015748},{"duration":0.2608694999999983,"midi":72,"time":98.73910575,"velocity":0.3937007874015748},{"duration":0.13043475000000626,"midi":65,"time":98.99997524999999,"velocity":0.3937007874015748},{"duration":0.13043475000000626,"midi":70,"time":98.99997524999999,"velocity":0.3937007874015748},{"duration":0.13043475000000626,"midi":65,"time":98.99997524999999,"velocity":0.3937007874015748},{"duration":0.13043475000000626,"midi":65,"time":98.99997524999999,"velocity":0.3937007874015748},{"duration":0.13043475000000626,"midi":70,"time":98.99997524999999,"velocity":0.3937007874015748},{"duration":0.13043475000000626,"midi":70,"time":98.99997524999999,"velocity":0.3937007874015748},{"duration":0.13043475000000626,"midi":65,"time":98.99997524999999,"velocity":0.3937007874015748},{"duration":0.13043475000000626,"midi":70,"time":98.99997524999999,"velocity":0.3937007874015748},{"duration":0.13043474999999205,"midi":72,"time":99.13041,"velocity":0.3937007874015748},{"duration":0.13043474999999205,"midi":67,"time":99.13041,"velocity":0.3937007874015748},{"duration":0.13043474999999205,"midi":72,"time":99.13041,"velocity":0.3937007874015748},{"duration":0.13043474999999205,"midi":67,"time":99.13041,"velocity":0.3937007874015748},{"duration":0.13043474999999205,"midi":72,"time":99.13041,"velocity":0.3937007874015748},{"duration":0.13043474999999205,"midi":72,"time":99.13041,"velocity":0.3937007874015748},{"duration":0.13043474999999205,"midi":67,"time":99.13041,"velocity":0.3937007874015748},{"duration":0.13043474999999205,"midi":67,"time":99.13041,"velocity":0.3937007874015748},{"duration":0.06521737500000313,"midi":72,"time":99.26084474999999,"velocity":0.3937007874015748},{"duration":0.06521737500000313,"midi":72,"time":99.26084474999999,"velocity":0.3937007874015748},{"duration":0.06521737500000313,"midi":67,"time":99.32606212499999,"velocity":0.3937007874015748},{"duration":0.06521737500000313,"midi":67,"time":99.32606212499999,"velocity":0.3937007874015748},{"duration":0.06521737499998892,"midi":72,"time":99.3912795,"velocity":0.3937007874015748},{"duration":0.06521737499998892,"midi":72,"time":99.3912795,"velocity":0.3937007874015748},{"duration":0.06521737500000313,"midi":67,"time":99.45649687499998,"velocity":0.3937007874015748},{"duration":0.06521737500000313,"midi":67,"time":99.45649687499998,"velocity":0.3937007874015748},{"duration":0.06521737500000313,"midi":72,"time":99.52171424999999,"velocity":0.3937007874015748},{"duration":0.06521737500000313,"midi":72,"time":99.52171424999999,"velocity":0.3937007874015748},{"duration":0.06521737500000313,"midi":67,"time":99.58693162499999,"velocity":0.3937007874015748},{"duration":0.06521737500000313,"midi":67,"time":99.58693162499999,"velocity":0.3937007874015748},{"duration":0.06521737500000313,"midi":72,"time":99.652149,"velocity":0.3937007874015748},{"duration":0.06521737500000313,"midi":72,"time":99.652149,"velocity":0.3937007874015748},{"duration":0.06521737499998892,"midi":67,"time":99.717366375,"velocity":0.3937007874015748},{"duration":0.06521737499998892,"midi":67,"time":99.717366375,"velocity":0.3937007874015748},{"duration":0.06521737500000313,"midi":72,"time":99.78258374999999,"velocity":0.3937007874015748},{"duration":0.06521737500000313,"midi":72,"time":99.78258374999999,"velocity":0.3937007874015748},{"duration":0.06521737500000313,"midi":67,"time":99.84780112499999,"velocity":0.3937007874015748},{"duration":0.06521737500000313,"midi":67,"time":99.84780112499999,"velocity":0.3937007874015748}]},{"instrument":{"family":"chromatic percussion","number":13,"name":"xylophone"},"notes":[{"duration":0.13043474999999205,"midi":82,"time":83.7391095,"velocity":0.4015748031496063},{"duration":0.13043474999999205,"midi":82,"time":83.7391095,"velocity":0.4015748031496063},{"duration":0.13043475000000626,"midi":80,"time":83.86954424999999,"velocity":0.4015748031496063},{"duration":0.13043475000000626,"midi":80,"time":83.86954424999999,"velocity":0.4015748031496063},{"duration":0.13043475000000626,"midi":82,"time":84.13041374999999,"velocity":0.4015748031496063},{"duration":0.13043475000000626,"midi":82,"time":84.13041374999999,"velocity":0.4015748031496063},{"duration":0.13043474999999205,"midi":80,"time":84.2608485,"velocity":0.4015748031496063},{"duration":0.13043474999999205,"midi":80,"time":84.2608485,"velocity":0.4015748031496063},{"duration":0.13043475000000626,"midi":82,"time":84.78258749999999,"velocity":0.4015748031496063},{"duration":0.13043475000000626,"midi":82,"time":84.78258749999999,"velocity":0.4015748031496063},{"duration":0.13043474999999205,"midi":80,"time":84.91302225,"velocity":0.4015748031496063},{"duration":0.13043474999999205,"midi":80,"time":84.91302225,"velocity":0.4015748031496063},{"duration":0.13043474999999205,"midi":82,"time":85.17389175,"velocity":0.4015748031496063},{"duration":0.13043474999999205,"midi":82,"time":85.17389175,"velocity":0.4015748031496063},{"duration":0.13043475000000626,"midi":80,"time":85.30432649999999,"velocity":0.4015748031496063},{"duration":0.13043475000000626,"midi":80,"time":85.30432649999999,"velocity":0.4015748031496063},{"duration":0.13043475000000626,"midi":80,"time":85.56519599999999,"velocity":0.4015748031496063},{"duration":0.13043475000000626,"midi":80,"time":85.56519599999999,"velocity":0.4015748031496063},{"duration":0.05842389843749629,"midi":82,"time":85.69563074999999,"velocity":0.4015748031496063},{"duration":0.05842389843749629,"midi":82,"time":85.69563074999999,"velocity":0.4015748031496063},{"duration":0.05842389843749629,"midi":80,"time":85.760848125,"velocity":0.4015748031496063},{"duration":0.05842389843749629,"midi":80,"time":85.760848125,"velocity":0.4015748031496063},{"duration":0.22826081249999675,"midi":77,"time":85.8260655,"velocity":0.4015748031496063},{"duration":0.22826081249999675,"midi":77,"time":85.8260655,"velocity":0.4015748031496063},{"duration":0.2608694999999983,"midi":77,"time":86.086935,"velocity":0.4015748031496063},{"duration":0.2608694999999983,"midi":77,"time":86.086935,"velocity":0.4015748031496063},{"duration":0.13043474999999205,"midi":76,"time":86.3478045,"velocity":0.4015748031496063},{"duration":0.13043474999999205,"midi":76,"time":86.3478045,"velocity":0.4015748031496063},{"duration":0.13043475000000626,"midi":77,"time":86.47823924999999,"velocity":0.4015748031496063},{"duration":0.13043475000000626,"midi":77,"time":86.47823924999999,"velocity":0.4015748031496063},{"duration":0.13043475000000626,"midi":82,"time":87.91302149999999,"velocity":0.4015748031496063},{"duration":0.13043475000000626,"midi":82,"time":87.91302149999999,"velocity":0.4015748031496063},{"duration":0.13043475000000626,"midi":80,"time":88.04345624999999,"velocity":0.4015748031496063},{"duration":0.13043475000000626,"midi":80,"time":88.04345624999999,"velocity":0.4015748031496063},{"duration":0.13043475000000626,"midi":82,"time":88.30432574999999,"velocity":0.4015748031496063},{"duration":0.13043475000000626,"midi":82,"time":88.30432574999999,"velocity":0.4015748031496063},{"duration":0.13043474999999205,"midi":80,"time":88.4347605,"velocity":0.4015748031496063},{"duration":0.13043474999999205,"midi":80,"time":88.4347605,"velocity":0.4015748031496063},{"duration":0.13043475000000626,"midi":82,"time":88.95649949999999,"velocity":0.4015748031496063},{"duration":0.13043475000000626,"midi":82,"time":88.95649949999999,"velocity":0.4015748031496063},{"duration":0.13043474999999205,"midi":80,"time":89.08693425,"velocity":0.4015748031496063},{"duration":0.13043474999999205,"midi":80,"time":89.08693425,"velocity":0.4015748031496063},{"duration":0.13043474999999205,"midi":82,"time":89.34780375,"velocity":0.4015748031496063},{"duration":0.13043474999999205,"midi":82,"time":89.34780375,"velocity":0.4015748031496063},{"duration":0.13043475000000626,"midi":80,"time":89.47823849999999,"velocity":0.4015748031496063},{"duration":0.13043475000000626,"midi":80,"time":89.47823849999999,"velocity":0.4015748031496063},{"duration":0.2608694999999983,"midi":80,"time":89.73910799999999,"velocity":0.4015748031496063},{"duration":0.2608694999999983,"midi":80,"time":89.73910799999999,"velocity":0.4015748031496063},{"duration":0.2608695000000125,"midi":82,"time":89.99997749999999,"velocity":0.4015748031496063},{"duration":0.2608695000000125,"midi":82,"time":89.99997749999999,"velocity":0.4015748031496063},{"duration":0.13043474999999205,"midi":83,"time":90.260847,"velocity":0.4015748031496063},{"duration":0.13043474999999205,"midi":83,"time":90.260847,"velocity":0.4015748031496063},{"duration":0.2608694999999983,"midi":82,"time":90.39128174999999,"velocity":0.4015748031496063},{"duration":0.2608694999999983,"midi":82,"time":90.39128174999999,"velocity":0.4015748031496063},{"duration":0.13043475000000626,"midi":80,"time":90.65215124999999,"velocity":0.4015748031496063},{"duration":0.13043475000000626,"midi":80,"time":90.65215124999999,"velocity":0.4015748031496063},{"duration":0.5217389999999966,"midi":77,"time":90.782586,"velocity":0.4015748031496063},{"duration":0.5217389999999966,"midi":77,"time":90.782586,"velocity":0.4015748031496063},{"duration":0.13043475000000626,"midi":82,"time":92.08693349999999,"velocity":0.4015748031496063},{"duration":0.13043475000000626,"midi":82,"time":92.08693349999999,"velocity":0.4015748031496063},{"duration":0.13043474999999205,"midi":80,"time":92.21736824999999,"velocity":0.4015748031496063},{"duration":0.13043474999999205,"midi":80,"time":92.21736824999999,"velocity":0.4015748031496063},{"duration":0.13043475000000626,"midi":82,"time":92.47823774999999,"velocity":0.4015748031496063},{"duration":0.13043475000000626,"midi":82,"time":92.47823774999999,"velocity":0.4015748031496063},{"duration":0.13043474999999205,"midi":80,"time":92.6086725,"velocity":0.4015748031496063},{"duration":0.13043474999999205,"midi":80,"time":92.6086725,"velocity":0.4015748031496063},{"duration":0.13043474999999205,"midi":82,"time":93.1304115,"velocity":0.4015748031496063},{"duration":0.13043474999999205,"midi":82,"time":93.1304115,"velocity":0.4015748031496063},{"duration":0.13043475000000626,"midi":80,"time":93.26084624999999,"velocity":0.4015748031496063},{"duration":0.13043475000000626,"midi":80,"time":93.26084624999999,"velocity":0.4015748031496063},{"duration":0.13043474999999205,"midi":82,"time":93.52171575,"velocity":0.4015748031496063},{"duration":0.13043474999999205,"midi":82,"time":93.52171575,"velocity":0.4015748031496063},{"duration":0.13043475000000626,"midi":80,"time":93.65215049999999,"velocity":0.4015748031496063},{"duration":0.13043475000000626,"midi":80,"time":93.65215049999999,"velocity":0.4015748031496063},{"duration":0.13043475000000626,"midi":80,"time":93.91301999999999,"velocity":0.4015748031496063},{"duration":0.13043475000000626,"midi":80,"time":93.91301999999999,"velocity":0.4015748031496063},{"duration":0.05842389843749629,"midi":82,"time":94.04345475,"velocity":0.4015748031496063},{"duration":0.05842389843749629,"midi":82,"time":94.04345475,"velocity":0.4015748031496063},{"duration":0.05842389843748208,"midi":80,"time":94.108672125,"velocity":0.4015748031496063},{"duration":0.05842389843748208,"midi":80,"time":94.108672125,"velocity":0.4015748031496063},{"duration":0.22826081250001096,"midi":77,"time":94.17388949999999,"velocity":0.4015748031496063},{"duration":0.22826081250001096,"midi":77,"time":94.17388949999999,"velocity":0.4015748031496063},{"duration":0.2608695000000125,"midi":77,"time":94.43475899999999,"velocity":0.4015748031496063},{"duration":0.2608695000000125,"midi":77,"time":94.43475899999999,"velocity":0.4015748031496063},{"duration":0.13043474999999205,"midi":76,"time":94.6956285,"velocity":0.4015748031496063},{"duration":0.13043474999999205,"midi":76,"time":94.6956285,"velocity":0.4015748031496063},{"duration":0.13043475000000626,"midi":77,"time":94.82606324999999,"velocity":0.4015748031496063},{"duration":0.13043475000000626,"midi":77,"time":94.82606324999999,"velocity":0.4015748031496063},{"duration":0.13043475000000626,"midi":82,"time":96.26084549999999,"velocity":0.4015748031496063},{"duration":0.13043475000000626,"midi":82,"time":96.26084549999999,"velocity":0.4015748031496063},{"duration":0.13043474999999205,"midi":80,"time":96.39128025,"velocity":0.4015748031496063},{"duration":0.13043474999999205,"midi":80,"time":96.39128025,"velocity":0.4015748031496063},{"duration":0.13043474999999205,"midi":82,"time":96.65214974999999,"velocity":0.4015748031496063},{"duration":0.13043474999999205,"midi":82,"time":96.65214974999999,"velocity":0.4015748031496063},{"duration":0.13043475000000626,"midi":80,"time":96.78258449999998,"velocity":0.4015748031496063},{"duration":0.13043475000000626,"midi":80,"time":96.78258449999998,"velocity":0.4015748031496063},{"duration":0.13043474999999205,"midi":82,"time":97.3043235,"velocity":0.4015748031496063},{"duration":0.13043474999999205,"midi":82,"time":97.3043235,"velocity":0.4015748031496063},{"duration":0.13043475000000626,"midi":80,"time":97.43475824999999,"velocity":0.4015748031496063},{"duration":0.13043475000000626,"midi":80,"time":97.43475824999999,"velocity":0.4015748031496063},{"duration":0.13043475000000626,"midi":82,"time":97.69562774999999,"velocity":0.4015748031496063},{"duration":0.13043475000000626,"midi":82,"time":97.69562774999999,"velocity":0.4015748031496063},{"duration":0.13043475000000626,"midi":80,"time":97.82606249999999,"velocity":0.4015748031496063},{"duration":0.13043475000000626,"midi":80,"time":97.82606249999999,"velocity":0.4015748031496063},{"duration":0.2608694999999983,"midi":72,"time":98.08693199999999,"velocity":0.4015748031496063},{"duration":0.2608694999999983,"midi":67,"time":98.08693199999999,"velocity":0.4015748031496063},{"duration":0.2608694999999983,"midi":72,"time":98.08693199999999,"velocity":0.4015748031496063},{"duration":0.2608694999999983,"midi":67,"time":98.08693199999999,"velocity":0.4015748031496063},{"duration":0.2608694999999983,"midi":72,"time":98.34780149999999,"velocity":0.4015748031496063},{"duration":0.2608694999999983,"midi":72,"time":98.34780149999999,"velocity":0.4015748031496063},{"duration":0.2608694999999983,"midi":67,"time":98.34780149999999,"velocity":0.4015748031496063},{"duration":0.2608694999999983,"midi":67,"time":98.34780149999999,"velocity":0.4015748031496063},{"duration":0.13043475000000626,"midi":72,"time":98.60867099999999,"velocity":0.4015748031496063},{"duration":0.13043475000000626,"midi":76,"time":98.60867099999999,"velocity":0.4015748031496063},{"duration":0.13043475000000626,"midi":72,"time":98.60867099999999,"velocity":0.4015748031496063},{"duration":0.13043475000000626,"midi":76,"time":98.60867099999999,"velocity":0.4015748031496063},{"duration":0.2608694999999983,"midi":67,"time":98.73910575,"velocity":0.4015748031496063},{"duration":0.2608694999999983,"midi":72,"time":98.73910575,"velocity":0.4015748031496063},{"duration":0.2608694999999983,"midi":72,"time":98.73910575,"velocity":0.4015748031496063},{"duration":0.2608694999999983,"midi":67,"time":98.73910575,"velocity":0.4015748031496063},{"duration":0.13043475000000626,"midi":70,"time":98.99997524999999,"velocity":0.4015748031496063},{"duration":0.13043475000000626,"midi":65,"time":98.99997524999999,"velocity":0.4015748031496063},{"duration":0.13043475000000626,"midi":65,"time":98.99997524999999,"velocity":0.4015748031496063},{"duration":0.13043475000000626,"midi":70,"time":98.99997524999999,"velocity":0.4015748031496063},{"duration":0.13043474999999205,"midi":72,"time":99.13041,"velocity":0.4015748031496063},{"duration":0.13043474999999205,"midi":67,"time":99.13041,"velocity":0.4015748031496063},{"duration":0.13043474999999205,"midi":67,"time":99.13041,"velocity":0.4015748031496063},{"duration":0.13043474999999205,"midi":72,"time":99.13041,"velocity":0.4015748031496063},{"duration":0.06521737500000313,"midi":72,"time":99.26084474999999,"velocity":0.4015748031496063},{"duration":0.06521737500000313,"midi":67,"time":99.32606212499999,"velocity":0.4015748031496063},{"duration":0.06521737499998892,"midi":72,"time":99.3912795,"velocity":0.4015748031496063},{"duration":0.06521737500000313,"midi":67,"time":99.45649687499998,"velocity":0.4015748031496063},{"duration":0.06521737500000313,"midi":72,"time":99.52171424999999,"velocity":0.4015748031496063},{"duration":0.06521737500000313,"midi":67,"time":99.58693162499999,"velocity":0.4015748031496063},{"duration":0.06521737500000313,"midi":72,"time":99.652149,"velocity":0.4015748031496063},{"duration":0.06521737499998892,"midi":67,"time":99.717366375,"velocity":0.4015748031496063},{"duration":0.06521737500000313,"midi":72,"time":99.78258374999999,"velocity":0.4015748031496063},{"duration":0.06521737500000313,"midi":67,"time":99.84780112499999,"velocity":0.4015748031496063}]},{"instrument":{"family":"piano","number":3,"name":"honky-tonk piano"},"notes":[{"duration":0.13043474999999916,"midi":77,"time":8.347824,"velocity":0.44881889763779526},{"duration":0.13043475000000093,"midi":84,"time":8.478258749999998,"velocity":0.44881889763779526},{"duration":0.13043474999999916,"midi":82,"time":8.6086935,"velocity":0.44881889763779526},{"duration":0.13043475000000093,"midi":84,"time":8.739128249999998,"velocity":0.44881889763779526},{"duration":0.13043474999999916,"midi":77,"time":8.869563,"velocity":0.44881889763779526},{"duration":0.13043475000000093,"midi":84,"time":8.999997749999999,"velocity":0.44881889763779526},{"duration":0.13043474999999916,"midi":82,"time":9.1304325,"velocity":0.44881889763779526},{"duration":0.13043475000000093,"midi":84,"time":9.260867249999999,"velocity":0.44881889763779526},{"duration":0.13043474999999916,"midi":73,"time":9.391302,"velocity":0.44881889763779526},{"duration":0.13043475000000093,"midi":82,"time":9.521736749999999,"velocity":0.44881889763779526},{"duration":0.13043474999999916,"midi":84,"time":9.6521715,"velocity":0.44881889763779526},{"duration":0.13043475000000093,"midi":82,"time":9.782606249999999,"velocity":0.44881889763779526},{"duration":0.13043474999999916,"midi":72,"time":9.913041,"velocity":0.44881889763779526},{"duration":0.13043475000000093,"midi":84,"time":10.043475749999999,"velocity":0.44881889763779526},{"duration":0.13043474999999916,"midi":79,"time":10.1739105,"velocity":0.44881889763779526},{"duration":0.13043475000000093,"midi":82,"time":10.304345249999999,"velocity":0.44881889763779526},{"duration":0.13043474999999916,"midi":77,"time":10.43478,"velocity":0.44881889763779526},{"duration":0.13043474999999916,"midi":84,"time":10.565214749999999,"velocity":0.44881889763779526},{"duration":0.13043475000000093,"midi":82,"time":10.695649499999998,"velocity":0.44881889763779526},{"duration":0.13043474999999916,"midi":84,"time":10.82608425,"velocity":0.44881889763779526},{"duration":0.13043475000000093,"midi":79,"time":10.956518999999998,"velocity":0.44881889763779526},{"duration":0.13043474999999916,"midi":84,"time":11.08695375,"velocity":0.44881889763779526},{"duration":0.13043475000000093,"midi":82,"time":11.217388499999998,"velocity":0.44881889763779526},{"duration":0.13043474999999916,"midi":84,"time":11.34782325,"velocity":0.44881889763779526},{"duration":0.13043475000000093,"midi":80,"time":11.478257999999999,"velocity":0.44881889763779526},{"duration":0.13043474999999916,"midi":84,"time":11.60869275,"velocity":0.44881889763779526},{"duration":0.13043475000000093,"midi":82,"time":11.739127499999999,"velocity":0.44881889763779526},{"duration":0.13043474999999916,"midi":84,"time":11.86956225,"velocity":0.44881889763779526},{"duration":0.13043475000000093,"midi":82,"time":11.999996999999999,"velocity":0.44881889763779526},{"duration":0.13043474999999916,"midi":85,"time":12.13043175,"velocity":0.44881889763779526},{"duration":0.13043475000000093,"midi":84,"time":12.260866499999999,"velocity":0.44881889763779526},{"duration":0.13043474999999916,"midi":82,"time":12.39130125,"velocity":0.44881889763779526},{"duration":0.13043474999999916,"midi":73,"time":12.521735999999999,"velocity":0.44881889763779526},{"duration":0.13043475000000093,"midi":80,"time":12.652170749999998,"velocity":0.44881889763779526},{"duration":0.13043474999999916,"midi":79,"time":12.782605499999999,"velocity":0.44881889763779526},{"duration":0.13043475000000093,"midi":80,"time":12.913040249999998,"velocity":0.44881889763779526},{"duration":0.13043474999999916,"midi":73,"time":13.043474999999999,"velocity":0.44881889763779526},{"duration":0.13043475000000093,"midi":82,"time":13.173909749999998,"velocity":0.44881889763779526},{"duration":0.13043474999999916,"midi":80,"time":13.3043445,"velocity":0.44881889763779526},{"duration":0.13043475000000093,"midi":82,"time":13.434779249999998,"velocity":0.44881889763779526},{"duration":0.13043474999999916,"midi":73,"time":13.565214,"velocity":0.44881889763779526},{"duration":0.13043475000000093,"midi":84,"time":13.695648749999998,"velocity":0.44881889763779526},{"duration":0.13043474999999916,"midi":82,"time":13.8260835,"velocity":0.44881889763779526},{"duration":0.13043475000000093,"midi":84,"time":13.956518249999998,"velocity":0.44881889763779526},{"duration":0.13043474999999916,"midi":73,"time":14.086953,"velocity":0.44881889763779526},{"duration":0.13043475000000093,"midi":85,"time":14.217387749999999,"velocity":0.44881889763779526},{"duration":0.13043474999999916,"midi":84,"time":14.3478225,"velocity":0.44881889763779526},{"duration":0.13043474999999916,"midi":87,"time":14.478257249999999,"velocity":0.44881889763779526},{"duration":0.2608695000000001,"midi":68,"time":14.608691999999998,"velocity":0.44881889763779526},{"duration":0.2608695000000001,"midi":72,"time":14.608691999999998,"velocity":0.44881889763779526},{"duration":0.13043475000000093,"midi":70,"time":14.869561499999998,"velocity":0.44881889763779526},{"duration":0.13043475000000093,"midi":63,"time":14.869561499999998,"velocity":0.44881889763779526},{"duration":0.13043474999999916,"midi":68,"time":14.999996249999999,"velocity":0.44881889763779526},{"duration":0.13043474999999916,"midi":61,"time":14.999996249999999,"velocity":0.44881889763779526},{"duration":0.2608695000000001,"midi":72,"time":15.130430999999998,"velocity":0.44881889763779526},{"duration":0.2608695000000001,"midi":77,"time":15.130430999999998,"velocity":0.44881889763779526},{"duration":0.2608695000000001,"midi":65,"time":15.391300499999998,"velocity":0.44881889763779526},{"duration":0.2608695000000001,"midi":72,"time":15.391300499999998,"velocity":0.44881889763779526},{"duration":0.2608695000000001,"midi":70,"time":15.652169999999998,"velocity":0.44881889763779526},{"duration":0.2608695000000001,"midi":76,"time":15.652169999999998,"velocity":0.44881889763779526},{"duration":0.2608695000000001,"midi":68,"time":15.913039499999998,"velocity":0.44881889763779526},{"duration":0.2608695000000001,"midi":73,"time":15.913039499999998,"velocity":0.44881889763779526},{"duration":0.5217390000000002,"midi":72,"time":16.173909,"velocity":0.44881889763779526},{"duration":0.5217390000000002,"midi":67,"time":16.173909,"velocity":0.44881889763779526},{"duration":0.2608694999999983,"midi":77,"time":16.695648,"velocity":0.44881889763779526},{"duration":0.2608694999999983,"midi":72,"time":16.695648,"velocity":0.44881889763779526},{"duration":0.26086950000000186,"midi":68,"time":16.956517499999997,"velocity":0.44881889763779526},{"duration":0.26086950000000186,"midi":72,"time":16.956517499999997,"velocity":0.44881889763779526},{"duration":0.2608694999999983,"midi":68,"time":17.217387,"velocity":0.44881889763779526},{"duration":0.2608694999999983,"midi":65,"time":17.217387,"velocity":0.44881889763779526},{"duration":0.26086950000000186,"midi":65,"time":17.478256499999997,"velocity":0.44881889763779526},{"duration":0.26086950000000186,"midi":60,"time":17.478256499999997,"velocity":0.44881889763779526},{"duration":0.13043474999999916,"midi":72,"time":17.869560749999998,"velocity":0.44881889763779526},{"duration":0.13043474999999916,"midi":68,"time":17.869560749999998,"velocity":0.44881889763779526},{"duration":0.26086950000000186,"midi":65,"time":17.999995499999997,"velocity":0.44881889763779526},{"duration":0.26086950000000186,"midi":70,"time":17.999995499999997,"velocity":0.44881889763779526},{"duration":0.13043474999999916,"midi":70,"time":18.260865,"velocity":0.44881889763779526},{"duration":0.13043474999999916,"midi":67,"time":18.260865,"velocity":0.44881889763779526},{"duration":0.13043474999999916,"midi":68,"time":18.391299749999998,"velocity":0.44881889763779526},{"duration":0.13043474999999916,"midi":63,"time":18.391299749999998,"velocity":0.44881889763779526},{"duration":0.1304347500000027,"midi":58,"time":18.521734499999997,"velocity":0.44881889763779526},{"duration":0.1304347500000027,"midi":63,"time":18.521734499999997,"velocity":0.44881889763779526},{"duration":0.13043474999999916,"midi":65,"time":18.65216925,"velocity":0.44881889763779526},{"duration":0.13043474999999916,"midi":61,"time":18.65216925,"velocity":0.44881889763779526},{"duration":0.13043474999999916,"midi":68,"time":18.91303875,"velocity":0.44881889763779526},{"duration":0.13043474999999916,"midi":72,"time":18.91303875,"velocity":0.44881889763779526},{"duration":0.13043474999999916,"midi":70,"time":19.043473499999998,"velocity":0.44881889763779526},{"duration":0.13043474999999916,"midi":65,"time":19.043473499999998,"velocity":0.44881889763779526},{"duration":0.1304347500000027,"midi":63,"time":19.173908249999997,"velocity":0.44881889763779526},{"duration":0.1304347500000027,"midi":68,"time":19.173908249999997,"velocity":0.44881889763779526},{"duration":0.13043474999999916,"midi":70,"time":19.304343,"velocity":0.44881889763779526},{"duration":0.13043474999999916,"midi":67,"time":19.304343,"velocity":0.44881889763779526},{"duration":0.13043474999999916,"midi":68,"time":19.43477775,"velocity":0.44881889763779526},{"duration":0.13043474999999916,"midi":72,"time":19.43477775,"velocity":0.44881889763779526},{"duration":0.13043474999999916,"midi":63,"time":19.565212499999998,"velocity":0.44881889763779526},{"duration":0.13043474999999916,"midi":55,"time":19.565212499999998,"velocity":0.44881889763779526},{"duration":0.1304347500000027,"midi":65,"time":19.695647249999997,"velocity":0.44881889763779526},{"duration":0.1304347500000027,"midi":56,"time":19.695647249999997,"velocity":0.44881889763779526},{"duration":0.13043474999999916,"midi":60,"time":19.826082,"velocity":0.44881889763779526},{"duration":0.13043474999999916,"midi":68,"time":19.826082,"velocity":0.44881889763779526},{"duration":0.13043474999999916,"midi":56,"time":19.95651675,"velocity":0.44881889763779526},{"duration":0.13043474999999916,"midi":65,"time":19.95651675,"velocity":0.44881889763779526},{"duration":0.13043474999999916,"midi":55,"time":20.086951499999998,"velocity":0.44881889763779526},{"duration":0.13043474999999916,"midi":63,"time":20.086951499999998,"velocity":0.44881889763779526},{"duration":0.26086950000000186,"midi":68,"time":20.217386249999997,"velocity":0.44881889763779526},{"duration":0.26086950000000186,"midi":77,"time":20.217386249999997,"velocity":0.44881889763779526},{"duration":0.13043474999999916,"midi":75,"time":20.47825575,"velocity":0.44881889763779526},{"duration":0.06521737499999958,"midi":72,"time":20.608690499999998,"velocity":0.44881889763779526},{"duration":0.13043474999999916,"midi":70,"time":20.673907874999998,"velocity":0.44881889763779526},{"duration":0.1304347500000027,"midi":68,"time":20.739125249999997,"velocity":0.44881889763779526},{"duration":0.5217389999999966,"midi":65,"time":20.86956,"velocity":0.44881889763779526},{"duration":0.13043474999999916,"midi":58,"time":21.130429499999998,"velocity":0.44881889763779526},{"duration":0.5217390000000002,"midi":67,"time":21.391298999999997,"velocity":0.44881889763779526},{"duration":0.13043474999999916,"midi":58,"time":21.6521685,"velocity":0.44881889763779526},{"duration":0.5217390000000002,"midi":68,"time":21.913037999999997,"velocity":0.44881889763779526},{"duration":0.13043474999999916,"midi":58,"time":22.1739075,"velocity":0.44881889763779526},{"duration":0.5217390000000002,"midi":70,"time":22.434776999999997,"velocity":0.44881889763779526},{"duration":0.13043474999999916,"midi":56,"time":22.6956465,"velocity":0.44881889763779526},{"duration":0.26086950000000186,"midi":72,"time":22.956515999999997,"velocity":0.44881889763779526},{"duration":0.26086950000000186,"midi":68,"time":22.956515999999997,"velocity":0.44881889763779526},{"duration":0.2608694999999983,"midi":61,"time":23.2173855,"velocity":0.44881889763779526},{"duration":0.2608694999999983,"midi":70,"time":23.2173855,"velocity":0.44881889763779526},{"duration":0.26086950000000186,"midi":72,"time":23.478254999999997,"velocity":0.44881889763779526},{"duration":0.26086950000000186,"midi":77,"time":23.478254999999997,"velocity":0.44881889763779526},{"duration":0.2608694999999983,"midi":65,"time":23.7391245,"velocity":0.44881889763779526},{"duration":0.2608694999999983,"midi":72,"time":23.7391245,"velocity":0.44881889763779526},{"duration":0.26086950000000186,"midi":76,"time":23.999993999999997,"velocity":0.44881889763779526},{"duration":0.26086950000000186,"midi":70,"time":23.999993999999997,"velocity":0.44881889763779526},{"duration":0.2608694999999983,"midi":68,"time":24.2608635,"velocity":0.44881889763779526},{"duration":0.2608694999999983,"midi":72,"time":24.2608635,"velocity":0.44881889763779526},{"duration":0.5217390000000002,"midi":70,"time":24.521732999999998,"velocity":0.44881889763779526},{"duration":0.5217390000000002,"midi":67,"time":24.521732999999998,"velocity":0.44881889763779526},{"duration":0.13043474999999916,"midi":77,"time":25.043471999999998,"velocity":0.44881889763779526},{"duration":0.13043474999999916,"midi":84,"time":25.173906749999997,"velocity":0.44881889763779526},{"duration":0.1304347500000027,"midi":82,"time":25.304341499999996,"velocity":0.44881889763779526},{"duration":0.13043474999999916,"midi":84,"time":25.43477625,"velocity":0.44881889763779526},{"duration":0.13043474999999916,"midi":77,"time":25.565210999999998,"velocity":0.44881889763779526},{"duration":0.13043474999999916,"midi":84,"time":25.695645749999997,"velocity":0.44881889763779526},{"duration":0.1304347500000027,"midi":82,"time":25.826080499999996,"velocity":0.44881889763779526},{"duration":0.13043474999999916,"midi":84,"time":25.95651525,"velocity":0.44881889763779526},{"duration":0.13043474999999916,"midi":73,"time":26.086949999999998,"velocity":0.44881889763779526},{"duration":0.13043474999999916,"midi":82,"time":26.217384749999997,"velocity":0.44881889763779526},{"duration":0.1304347500000027,"midi":84,"time":26.347819499999996,"velocity":0.44881889763779526},{"duration":0.13043474999999916,"midi":82,"time":26.47825425,"velocity":0.44881889763779526},{"duration":0.13043474999999916,"midi":72,"time":26.608689,"velocity":0.44881889763779526},{"duration":0.13043474999999916,"midi":84,"time":26.739123749999997,"velocity":0.44881889763779526},{"duration":0.1304347500000027,"midi":79,"time":26.869558499999997,"velocity":0.44881889763779526},{"duration":0.13043474999999916,"midi":82,"time":26.99999325,"velocity":0.44881889763779526},{"duration":0.13043474999999916,"midi":77,"time":27.130428,"velocity":0.44881889763779526},{"duration":0.13043474999999916,"midi":84,"time":27.260862749999998,"velocity":0.44881889763779526},{"duration":0.13043474999999916,"midi":82,"time":27.391297499999997,"velocity":0.44881889763779526},{"duration":0.1304347500000027,"midi":84,"time":27.521732249999996,"velocity":0.44881889763779526},{"duration":0.13043474999999916,"midi":79,"time":27.652167,"velocity":0.44881889763779526},{"duration":0.13043474999999916,"midi":84,"time":27.782601749999998,"velocity":0.44881889763779526},{"duration":0.13043474999999916,"midi":82,"time":27.913036499999997,"velocity":0.44881889763779526},{"duration":0.1304347500000027,"midi":84,"time":28.043471249999996,"velocity":0.44881889763779526},{"duration":0.13043474999999916,"midi":80,"time":28.173906,"velocity":0.44881889763779526},{"duration":0.13043474999999916,"midi":84,"time":28.304340749999998,"velocity":0.44881889763779526},{"duration":0.13043474999999916,"midi":82,"time":28.434775499999997,"velocity":0.44881889763779526},{"duration":0.1304347500000027,"midi":84,"time":28.565210249999996,"velocity":0.44881889763779526},{"duration":0.13043474999999916,"midi":82,"time":28.695645,"velocity":0.44881889763779526},{"duration":0.13043474999999916,"midi":85,"time":28.826079749999998,"velocity":0.44881889763779526},{"duration":0.13043474999999916,"midi":84,"time":28.956514499999997,"velocity":0.44881889763779526},{"duration":0.13043474999999916,"midi":82,"time":29.086949249999996,"velocity":0.44881889763779526},{"duration":0.1304347500000027,"midi":73,"time":29.217383999999996,"velocity":0.44881889763779526},{"duration":0.13043474999999916,"midi":80,"time":29.34781875,"velocity":0.44881889763779526},{"duration":0.13043474999999916,"midi":79,"time":29.478253499999997,"velocity":0.44881889763779526},{"duration":0.13043474999999916,"midi":80,"time":29.608688249999997,"velocity":0.44881889763779526},{"duration":0.1304347500000027,"midi":73,"time":29.739122999999996,"velocity":0.44881889763779526},{"duration":0.13043474999999916,"midi":82,"time":29.86955775,"velocity":0.44881889763779526},{"duration":0.13043474999999916,"midi":80,"time":29.999992499999998,"velocity":0.44881889763779526},{"duration":0.13043474999999916,"midi":82,"time":30.130427249999997,"velocity":0.44881889763779526},{"duration":0.1304347500000027,"midi":73,"time":30.260861999999996,"velocity":0.44881889763779526},{"duration":0.13043474999999916,"midi":84,"time":30.39129675,"velocity":0.44881889763779526},{"duration":0.13043474999999916,"midi":82,"time":30.521731499999998,"velocity":0.44881889763779526},{"duration":0.13043474999999916,"midi":84,"time":30.652166249999997,"velocity":0.44881889763779526},{"duration":0.1304347500000027,"midi":73,"time":30.782600999999996,"velocity":0.44881889763779526},{"duration":0.13043474999999916,"midi":85,"time":30.91303575,"velocity":0.44881889763779526},{"duration":0.13043474999999916,"midi":84,"time":31.043470499999998,"velocity":0.44881889763779526},{"duration":0.13043474999999916,"midi":87,"time":31.173905249999997,"velocity":0.44881889763779526},{"duration":0.26086950000000186,"midi":72,"time":31.304339999999996,"velocity":0.44881889763779526},{"duration":0.26086950000000186,"midi":68,"time":31.304339999999996,"velocity":0.44881889763779526},{"duration":0.13043474999999916,"midi":70,"time":31.565209499999998,"velocity":0.44881889763779526},{"duration":0.13043474999999916,"midi":63,"time":31.565209499999998,"velocity":0.44881889763779526},{"duration":0.13043474999999916,"midi":68,"time":31.695644249999997,"velocity":0.44881889763779526},{"duration":0.13043474999999916,"midi":61,"time":31.695644249999997,"velocity":0.44881889763779526},{"duration":0.26086950000000186,"midi":77,"time":31.826078999999996,"velocity":0.44881889763779526},{"duration":0.26086950000000186,"midi":72,"time":31.826078999999996,"velocity":0.44881889763779526},{"duration":0.2608694999999983,"midi":72,"time":32.0869485,"velocity":0.44881889763779526},{"duration":0.2608694999999983,"midi":65,"time":32.0869485,"velocity":0.44881889763779526},{"duration":0.2608694999999983,"midi":60,"time":32.0869485,"velocity":0.44881889763779526},{"duration":0.2608694999999983,"midi":70,"time":32.347818,"velocity":0.44881889763779526},{"duration":0.2608694999999983,"midi":76,"time":32.347818,"velocity":0.44881889763779526},{"duration":0.2608695000000054,"midi":68,"time":32.608687499999995,"velocity":0.44881889763779526},{"duration":0.2608695000000054,"midi":73,"time":32.608687499999995,"velocity":0.44881889763779526},{"duration":0.39130424999999747,"midi":72,"time":32.869557,"velocity":0.44881889763779526},{"duration":0.5217389999999966,"midi":67,"time":32.869557,"velocity":0.44881889763779526},{"duration":0.13043474999999916,"midi":85,"time":32.99999175,"velocity":0.44881889763779526},{"duration":0.13043474999999916,"midi":73,"time":32.99999175,"velocity":0.44881889763779526},{"duration":0.2608694999999983,"midi":72,"time":33.1304265,"velocity":0.44881889763779526},{"duration":0.13043474999999916,"midi":84,"time":33.1304265,"velocity":0.44881889763779526},{"duration":0.13043474999999916,"midi":85,"time":33.26086125,"velocity":0.44881889763779526},{"duration":0.13043474999999916,"midi":73,"time":33.26086125,"velocity":0.44881889763779526},{"duration":0.2608694999999983,"midi":84,"time":33.391296,"velocity":0.44881889763779526},{"duration":0.2608694999999983,"midi":72,"time":33.391296,"velocity":0.44881889763779526},{"duration":0.2608694999999983,"midi":68,"time":33.652165499999995,"velocity":0.44881889763779526},{"duration":0.2608694999999983,"midi":80,"time":33.652165499999995,"velocity":0.44881889763779526},{"duration":0.2608695000000054,"midi":65,"time":33.913034999999994,"velocity":0.44881889763779526},{"duration":0.2608695000000054,"midi":77,"time":33.913034999999994,"velocity":0.44881889763779526},{"duration":0.2608694999999983,"midi":72,"time":34.1739045,"velocity":0.44881889763779526},{"duration":0.2608694999999983,"midi":60,"time":34.1739045,"velocity":0.44881889763779526},{"duration":0.2608694999999983,"midi":80,"time":34.434774,"velocity":0.44881889763779526},{"duration":0.2608694999999983,"midi":68,"time":34.434774,"velocity":0.44881889763779526},{"duration":0.13043474999999916,"midi":65,"time":34.695643499999996,"velocity":0.44881889763779526},{"duration":0.13043474999999916,"midi":77,"time":34.695643499999996,"velocity":0.44881889763779526},{"duration":0.6521737500000029,"midi":79,"time":34.826078249999995,"velocity":0.44881889763779526},{"duration":0.6521737500000029,"midi":67,"time":34.826078249999995,"velocity":0.44881889763779526},{"duration":0.2608694999999983,"midi":80,"time":35.478252,"velocity":0.44881889763779526},{"duration":0.2608694999999983,"midi":68,"time":35.478252,"velocity":0.44881889763779526},{"duration":0.13043474999999916,"midi":65,"time":35.739121499999996,"velocity":0.44881889763779526},{"duration":0.13043474999999916,"midi":77,"time":35.739121499999996,"velocity":0.44881889763779526},{"duration":0.6521737500000029,"midi":79,"time":35.869556249999995,"velocity":0.44881889763779526},{"duration":0.6521737500000029,"midi":67,"time":35.869556249999995,"velocity":0.44881889763779526},{"duration":0.2608694999999983,"midi":80,"time":36.52173,"velocity":0.44881889763779526},{"duration":0.2608694999999983,"midi":68,"time":36.52173,"velocity":0.44881889763779526},{"duration":0.13043474999999916,"midi":77,"time":36.782599499999996,"velocity":0.44881889763779526},{"duration":0.13043474999999916,"midi":65,"time":36.782599499999996,"velocity":0.44881889763779526},{"duration":0.2608694999999983,"midi":79,"time":36.913034249999995,"velocity":0.44881889763779526},{"duration":0.2608694999999983,"midi":67,"time":36.913034249999995,"velocity":0.44881889763779526},{"duration":0.13043475000000626,"midi":85,"time":37.173903749999994,"velocity":0.44881889763779526},{"duration":0.13043475000000626,"midi":73,"time":37.173903749999994,"velocity":0.44881889763779526},{"duration":0.13043474999999916,"midi":72,"time":37.3043385,"velocity":0.44881889763779526},{"duration":0.13043474999999916,"midi":84,"time":37.3043385,"velocity":0.44881889763779526},{"duration":0.13043474999999916,"midi":73,"time":37.43477325,"velocity":0.44881889763779526},{"duration":0.13043474999999916,"midi":85,"time":37.43477325,"velocity":0.44881889763779526},{"duration":0.2608694999999983,"midi":84,"time":37.565208,"velocity":0.44881889763779526},{"duration":0.2608694999999983,"midi":72,"time":37.565208,"velocity":0.44881889763779526},{"duration":0.2608694999999983,"midi":68,"time":37.8260775,"velocity":0.44881889763779526},{"duration":0.2608694999999983,"midi":80,"time":37.8260775,"velocity":0.44881889763779526},{"duration":0.2608694999999983,"midi":65,"time":38.086946999999995,"velocity":0.44881889763779526},{"duration":0.2608694999999983,"midi":77,"time":38.086946999999995,"velocity":0.44881889763779526},{"duration":0.2608695000000054,"midi":60,"time":38.34781649999999,"velocity":0.44881889763779526},{"duration":0.2608695000000054,"midi":72,"time":38.34781649999999,"velocity":0.44881889763779526},{"duration":0.2608694999999983,"midi":68,"time":38.608686,"velocity":0.44881889763779526},{"duration":0.2608694999999983,"midi":80,"time":38.608686,"velocity":0.44881889763779526},{"duration":0.13043474999999916,"midi":70,"time":38.8695555,"velocity":0.44881889763779526},{"duration":0.13043474999999916,"midi":82,"time":38.8695555,"velocity":0.44881889763779526},{"duration":0.6521737500000029,"midi":79,"time":38.999990249999996,"velocity":0.44881889763779526},{"duration":0.6521737500000029,"midi":67,"time":38.999990249999996,"velocity":0.44881889763779526},{"duration":0.2608694999999983,"midi":80,"time":39.652164,"velocity":0.44881889763779526},{"duration":0.2608694999999983,"midi":68,"time":39.652164,"velocity":0.44881889763779526},{"duration":0.13043474999999916,"midi":82,"time":39.9130335,"velocity":0.44881889763779526},{"duration":0.13043474999999916,"midi":70,"time":39.9130335,"velocity":0.44881889763779526},{"duration":0.6521737500000029,"midi":67,"time":40.04346825,"velocity":0.44881889763779526},{"duration":0.6521737500000029,"midi":79,"time":40.04346825,"velocity":0.44881889763779526},{"duration":0.2608694999999983,"midi":68,"time":40.695642,"velocity":0.44881889763779526},{"duration":0.2608694999999983,"midi":80,"time":40.695642,"velocity":0.44881889763779526},{"duration":0.13043474999999916,"midi":82,"time":40.9565115,"velocity":0.44881889763779526},{"duration":0.13043474999999916,"midi":70,"time":40.9565115,"velocity":0.44881889763779526},{"duration":0.2608694999999983,"midi":72,"time":41.08694625,"velocity":0.44881889763779526},{"duration":0.2608694999999983,"midi":84,"time":41.08694625,"velocity":0.44881889763779526},{"duration":0.13043474999999916,"midi":85,"time":41.347815749999995,"velocity":0.44881889763779526},{"duration":0.13043474999999916,"midi":73,"time":41.347815749999995,"velocity":0.44881889763779526},{"duration":0.13043474999999916,"midi":84,"time":41.478250499999994,"velocity":0.44881889763779526},{"duration":0.13043474999999916,"midi":72,"time":41.478250499999994,"velocity":0.44881889763779526},{"duration":0.13043475000000626,"midi":85,"time":41.60868524999999,"velocity":0.44881889763779526},{"duration":0.13043475000000626,"midi":73,"time":41.60868524999999,"velocity":0.44881889763779526},{"duration":0.2608694999999983,"midi":80,"time":41.73912,"velocity":0.44881889763779526},{"duration":0.2608694999999983,"midi":84,"time":41.73912,"velocity":0.44881889763779526},{"duration":0.2608694999999983,"midi":72,"time":41.73912,"velocity":0.44881889763779526},{"duration":0.2608694999999983,"midi":77,"time":41.9999895,"velocity":0.44881889763779526},{"duration":0.2608694999999983,"midi":80,"time":41.9999895,"velocity":0.44881889763779526},{"duration":0.2608694999999983,"midi":68,"time":41.9999895,"velocity":0.44881889763779526},{"duration":0.2608694999999983,"midi":65,"time":42.260858999999996,"velocity":0.44881889763779526},{"duration":0.2608694999999983,"midi":77,"time":42.260858999999996,"velocity":0.44881889763779526},{"duration":0.2608694999999983,"midi":72,"time":42.260858999999996,"velocity":0.44881889763779526},{"duration":0.2608694999999983,"midi":60,"time":42.521728499999995,"velocity":0.44881889763779526},{"duration":0.2608694999999983,"midi":72,"time":42.521728499999995,"velocity":0.44881889763779526},{"duration":0.2608694999999983,"midi":68,"time":42.521728499999995,"velocity":0.44881889763779526},{"duration":0.2608695000000054,"midi":68,"time":42.78259799999999,"velocity":0.44881889763779526},{"duration":0.2608695000000054,"midi":80,"time":42.78259799999999,"velocity":0.44881889763779526},{"duration":0.2608695000000054,"midi":77,"time":42.78259799999999,"velocity":0.44881889763779526},{"duration":0.13043474999999916,"midi":72,"time":43.0434675,"velocity":0.44881889763779526},{"duration":0.13043474999999916,"midi":65,"time":43.0434675,"velocity":0.44881889763779526},{"duration":0.13043474999999916,"midi":77,"time":43.0434675,"velocity":0.44881889763779526},{"duration":0.6521737499999958,"midi":73,"time":43.17390225,"velocity":0.44881889763779526},{"duration":0.6521737499999958,"midi":79,"time":43.17390225,"velocity":0.44881889763779526},{"duration":0.6521737499999958,"midi":67,"time":43.17390225,"velocity":0.44881889763779526},{"duration":0.2608695000000054,"midi":77,"time":43.82607599999999,"velocity":0.44881889763779526},{"duration":0.2608695000000054,"midi":80,"time":43.82607599999999,"velocity":0.44881889763779526},{"duration":0.2608695000000054,"midi":68,"time":43.82607599999999,"velocity":0.44881889763779526},{"duration":0.13043474999999916,"midi":72,"time":44.0869455,"velocity":0.44881889763779526},{"duration":0.13043474999999916,"midi":65,"time":44.0869455,"velocity":0.44881889763779526},{"duration":0.13043474999999916,"midi":77,"time":44.0869455,"velocity":0.44881889763779526},{"duration":0.6521737499999958,"midi":67,"time":44.21738025,"velocity":0.44881889763779526},{"duration":0.6521737499999958,"midi":73,"time":44.21738025,"velocity":0.44881889763779526},{"duration":0.6521737499999958,"midi":79,"time":44.21738025,"velocity":0.44881889763779526},{"duration":0.2608695000000054,"midi":68,"time":44.869553999999994,"velocity":0.44881889763779526},{"duration":0.2608695000000054,"midi":77,"time":44.869553999999994,"velocity":0.44881889763779526},{"duration":0.2608695000000054,"midi":80,"time":44.869553999999994,"velocity":0.44881889763779526},{"duration":0.13043474999999916,"midi":65,"time":45.1304235,"velocity":0.44881889763779526},{"duration":0.13043474999999916,"midi":72,"time":45.1304235,"velocity":0.44881889763779526},{"duration":0.13043474999999916,"midi":77,"time":45.1304235,"velocity":0.44881889763779526},{"duration":0.2608694999999983,"midi":67,"time":45.26085825,"velocity":0.44881889763779526},{"duration":0.2608694999999983,"midi":73,"time":45.26085825,"velocity":0.44881889763779526},{"duration":0.2608694999999983,"midi":79,"time":45.26085825,"velocity":0.44881889763779526},{"duration":0.13043474999999916,"midi":73,"time":45.52172775,"velocity":0.44881889763779526},{"duration":0.13043474999999916,"midi":85,"time":45.52172775,"velocity":0.44881889763779526},{"duration":0.13043474999999916,"midi":72,"time":45.652162499999996,"velocity":0.44881889763779526},{"duration":0.13043474999999916,"midi":84,"time":45.652162499999996,"velocity":0.44881889763779526},{"duration":0.13043474999999916,"midi":73,"time":45.782597249999995,"velocity":0.44881889763779526},{"duration":0.13043474999999916,"midi":85,"time":45.782597249999995,"velocity":0.44881889763779526},{"duration":0.2608694999999983,"midi":72,"time":45.913031999999994,"velocity":0.44881889763779526},{"duration":0.2608694999999983,"midi":84,"time":45.913031999999994,"velocity":0.44881889763779526},{"duration":0.2608695000000054,"midi":77,"time":46.17390149999999,"velocity":0.44881889763779526},{"duration":0.2608695000000054,"midi":89,"time":46.17390149999999,"velocity":0.44881889763779526},{"duration":0.2608694999999983,"midi":70,"time":46.434771,"velocity":0.44881889763779526},{"duration":0.2608694999999983,"midi":82,"time":46.434771,"velocity":0.44881889763779526},{"duration":0.2608694999999983,"midi":80,"time":46.695640499999996,"velocity":0.44881889763779526},{"duration":0.2608694999999983,"midi":68,"time":46.695640499999996,"velocity":0.44881889763779526},{"duration":0.13043474999999916,"midi":70,"time":46.956509999999994,"velocity":0.44881889763779526},{"duration":0.13043474999999916,"midi":82,"time":46.956509999999994,"velocity":0.44881889763779526},{"duration":0.2608695000000054,"midi":80,"time":47.086944749999994,"velocity":0.44881889763779526},{"duration":0.2608695000000054,"midi":68,"time":47.086944749999994,"velocity":0.44881889763779526},{"duration":0.39130424999999747,"midi":70,"time":47.34781425,"velocity":0.44881889763779526},{"duration":0.39130424999999747,"midi":82,"time":47.34781425,"velocity":0.44881889763779526},{"duration":0.13043474999999916,"midi":80,"time":47.7391185,"velocity":0.44881889763779526},{"duration":0.13043474999999916,"midi":68,"time":47.7391185,"velocity":0.44881889763779526},{"duration":0.13043474999999916,"midi":82,"time":47.869553249999996,"velocity":0.44881889763779526},{"duration":0.13043474999999916,"midi":70,"time":47.869553249999996,"velocity":0.44881889763779526},{"duration":0.13043474999999916,"midi":83,"time":47.999987999999995,"velocity":0.44881889763779526},{"duration":0.13043474999999916,"midi":71,"time":47.999987999999995,"velocity":0.44881889763779526},{"duration":0.13043474999999916,"midi":70,"time":48.130422749999994,"velocity":0.44881889763779526},{"duration":0.13043474999999916,"midi":82,"time":48.130422749999994,"velocity":0.44881889763779526},{"duration":0.2608695000000054,"midi":68,"time":48.26085749999999,"velocity":0.44881889763779526},{"duration":0.2608695000000054,"midi":80,"time":48.26085749999999,"velocity":0.44881889763779526},{"duration":0.2608694999999983,"midi":76,"time":48.521727,"velocity":0.44881889763779526},{"duration":0.2608694999999983,"midi":64,"time":48.521727,"velocity":0.44881889763779526},{"duration":0.2608694999999983,"midi":58,"time":48.7825965,"velocity":0.44881889763779526},{"duration":0.2608694999999983,"midi":70,"time":48.7825965,"velocity":0.44881889763779526},{"duration":0.2608694999999983,"midi":72,"time":49.043465999999995,"velocity":0.44881889763779526},{"duration":0.2608694999999983,"midi":60,"time":49.043465999999995,"velocity":0.44881889763779526},{"duration":0.13043474999999916,"midi":61,"time":49.30433549999999,"velocity":0.44881889763779526},{"duration":0.13043474999999916,"midi":73,"time":49.30433549999999,"velocity":0.44881889763779526},{"duration":0.13043475000000626,"midi":63,"time":49.43477024999999,"velocity":0.44881889763779526},{"duration":0.13043475000000626,"midi":75,"time":49.43477024999999,"velocity":0.44881889763779526},{"duration":0.5217389999999966,"midi":77,"time":49.565205,"velocity":0.44881889763779526},{"duration":0.5217389999999966,"midi":65,"time":49.565205,"velocity":0.44881889763779526},{"duration":0.2608694999999983,"midi":84,"time":50.086943999999995,"velocity":0.44881889763779526},{"duration":0.13043474999999916,"midi":41,"time":50.086943999999995,"velocity":0.44881889763779526},{"duration":0.13043474999999916,"midi":48,"time":50.217378749999995,"velocity":0.44881889763779526},{"duration":0.2608694999999983,"midi":80,"time":50.347813499999994,"velocity":0.44881889763779526},{"duration":0.13043474999999916,"midi":49,"time":50.347813499999994,"velocity":0.44881889763779526},{"duration":0.13043474999999916,"midi":48,"time":50.47824824999999,"velocity":0.44881889763779526},{"duration":0.13043475000000626,"midi":77,"time":50.60868299999999,"velocity":0.44881889763779526},{"duration":0.13043475000000626,"midi":41,"time":50.60868299999999,"velocity":0.44881889763779526},{"duration":0.13043474999999916,"midi":48,"time":50.73911775,"velocity":0.44881889763779526},{"duration":0.13043474999999916,"midi":80,"time":50.73911775,"velocity":0.44881889763779526},{"duration":0.13043474999999916,"midi":72,"time":50.8695525,"velocity":0.44881889763779526},{"duration":0.13043474999999916,"midi":53,"time":50.8695525,"velocity":0.44881889763779526},{"duration":0.13043474999999916,"midi":77,"time":50.99998725,"velocity":0.44881889763779526},{"duration":0.13043474999999916,"midi":48,"time":50.99998725,"velocity":0.44881889763779526},{"duration":0.2608694999999983,"midi":80,"time":51.130421999999996,"velocity":0.44881889763779526},{"duration":0.13043474999999916,"midi":46,"time":51.130421999999996,"velocity":0.44881889763779526},{"duration":0.13043474999999916,"midi":53,"time":51.260856749999995,"velocity":0.44881889763779526},{"duration":0.2608694999999983,"midi":77,"time":51.391291499999994,"velocity":0.44881889763779526},{"duration":0.13043474999999916,"midi":56,"time":51.391291499999994,"velocity":0.44881889763779526},{"duration":0.13043474999999916,"midi":53,"time":51.52172624999999,"velocity":0.44881889763779526},{"duration":0.2608695000000054,"midi":46,"time":51.65216099999999,"velocity":0.44881889763779526},{"duration":0.13043475000000626,"midi":73,"time":51.65216099999999,"velocity":0.44881889763779526},{"duration":0.13043474999999916,"midi":77,"time":51.78259575,"velocity":0.44881889763779526},{"duration":0.13043474999999916,"midi":53,"time":51.78259575,"velocity":0.44881889763779526},{"duration":0.13043474999999916,"midi":55,"time":51.9130305,"velocity":0.44881889763779526},{"duration":0.2608694999999983,"midi":48,"time":51.9130305,"velocity":0.44881889763779526},{"duration":0.13043474999999916,"midi":68,"time":51.9130305,"velocity":0.44881889763779526},{"duration":0.13043474999999916,"midi":53,"time":52.04346525,"velocity":0.44881889763779526},{"duration":0.13043474999999916,"midi":73,"time":52.04346525,"velocity":0.44881889763779526},{"duration":0.13043474999999916,"midi":49,"time":52.173899999999996,"velocity":0.44881889763779526},{"duration":0.13043474999999916,"midi":73,"time":52.173899999999996,"velocity":0.44881889763779526},{"duration":0.13043474999999916,"midi":68,"time":52.304334749999995,"velocity":0.44881889763779526},{"duration":0.13043474999999916,"midi":53,"time":52.304334749999995,"velocity":0.44881889763779526},{"duration":0.13043474999999916,"midi":61,"time":52.434769499999994,"velocity":0.44881889763779526},{"duration":0.13043474999999916,"midi":80,"time":52.434769499999994,"velocity":0.44881889763779526},{"duration":0.13043474999999916,"midi":73,"time":52.565204249999994,"velocity":0.44881889763779526},{"duration":0.13043474999999916,"midi":56,"time":52.565204249999994,"velocity":0.44881889763779526},{"duration":0.13043474999999916,"midi":79,"time":52.69563899999999,"velocity":0.44881889763779526},{"duration":0.13043474999999916,"midi":49,"time":52.69563899999999,"velocity":0.44881889763779526},{"duration":0.13043475000000626,"midi":80,"time":52.82607374999999,"velocity":0.44881889763779526},{"duration":0.06521737500000313,"midi":51,"time":52.82607374999999,"velocity":0.44881889763779526},{"duration":0.06521737500000313,"midi":52,"time":52.891291124999995,"velocity":0.44881889763779526},{"duration":0.13043474999999916,"midi":77,"time":52.9565085,"velocity":0.44881889763779526},{"duration":0.2608694999999983,"midi":53,"time":52.9565085,"velocity":0.44881889763779526},{"duration":0.13043474999999916,"midi":79,"time":53.08694325,"velocity":0.44881889763779526},{"duration":0.13043474999999916,"midi":52,"time":53.217378,"velocity":0.44881889763779526},{"duration":0.2608694999999983,"midi":76,"time":53.217378,"velocity":0.44881889763779526},{"duration":0.13043474999999916,"midi":53,"time":53.347812749999996,"velocity":0.44881889763779526},{"duration":0.13043474999999916,"midi":77,"time":53.478247499999995,"velocity":0.44881889763779526},{"duration":0.13043474999999916,"midi":48,"time":53.478247499999995,"velocity":0.44881889763779526},{"duration":0.13043474999999916,"midi":76,"time":53.608682249999994,"velocity":0.44881889763779526},{"duration":0.13043474999999916,"midi":43,"time":53.608682249999994,"velocity":0.44881889763779526},{"duration":0.13043474999999916,"midi":79,"time":53.73911699999999,"velocity":0.44881889763779526},{"duration":0.2608695000000054,"midi":48,"time":53.73911699999999,"velocity":0.44881889763779526},{"duration":0.13043475000000626,"midi":77,"time":53.86955174999999,"velocity":0.44881889763779526},{"duration":0.13043474999999916,"midi":76,"time":53.9999865,"velocity":0.44881889763779526},{"duration":0.2608694999999983,"midi":52,"time":53.9999865,"velocity":0.44881889763779526},{"duration":0.13043474999999916,"midi":79,"time":54.13042125,"velocity":0.44881889763779526},{"duration":0.13043474999999916,"midi":41,"time":54.260856,"velocity":0.44881889763779526},{"duration":0.13043474999999916,"midi":77,"time":54.260856,"velocity":0.44881889763779526},{"duration":0.13043474999999916,"midi":48,"time":54.391290749999996,"velocity":0.44881889763779526},{"duration":0.13043474999999916,"midi":72,"time":54.391290749999996,"velocity":0.44881889763779526},{"duration":0.13043474999999916,"midi":72,"time":54.4238994375,"velocity":0.44881889763779526},{"duration":0.13043474999999916,"midi":49,"time":54.521725499999995,"velocity":0.44881889763779526},{"duration":0.13043474999999916,"midi":77,"time":54.521725499999995,"velocity":0.44881889763779526},{"duration":0.13043474999999916,"midi":77,"time":54.5543341875,"velocity":0.44881889763779526},{"duration":0.13043474999999916,"midi":79,"time":54.652160249999994,"velocity":0.44881889763779526},{"duration":0.13043474999999916,"midi":48,"time":54.652160249999994,"velocity":0.44881889763779526},{"duration":0.13043474999999916,"midi":79,"time":54.684768937499996,"velocity":0.44881889763779526},{"duration":0.13043474999999916,"midi":80,"time":54.78259499999999,"velocity":0.44881889763779526},{"duration":0.13043474999999916,"midi":41,"time":54.78259499999999,"velocity":0.44881889763779526},{"duration":0.13043474999999916,"midi":80,"time":54.815203687499995,"velocity":0.44881889763779526},{"duration":0.13043474999999916,"midi":77,"time":54.91302974999999,"velocity":0.44881889763779526},{"duration":0.13043474999999916,"midi":48,"time":54.91302974999999,"velocity":0.44881889763779526},{"duration":0.13043474999999916,"midi":77,"time":54.945638437499994,"velocity":0.44881889763779526},{"duration":0.13043475000000626,"midi":80,"time":55.04346449999999,"velocity":0.44881889763779526},{"duration":0.13043475000000626,"midi":53,"time":55.04346449999999,"velocity":0.44881889763779526},{"duration":0.13043474999999916,"midi":80,"time":55.07607318749999,"velocity":0.44881889763779526},{"duration":0.13043474999999916,"midi":48,"time":55.17389925,"velocity":0.44881889763779526},{"duration":0.13043474999999916,"midi":82,"time":55.17389925,"velocity":0.44881889763779526},{"duration":0.13043474999999916,"midi":82,"time":55.20650793749999,"velocity":0.44881889763779526},{"duration":0.13043474999999916,"midi":84,"time":55.304334,"velocity":0.44881889763779526},{"duration":0.13043474999999916,"midi":46,"time":55.304334,"velocity":0.44881889763779526},{"duration":0.13043475000000626,"midi":84,"time":55.33694268749999,"velocity":0.44881889763779526},{"duration":0.13043474999999916,"midi":82,"time":55.434768749999996,"velocity":0.44881889763779526},{"duration":0.13043474999999916,"midi":53,"time":55.434768749999996,"velocity":0.44881889763779526},{"duration":0.13043474999999916,"midi":82,"time":55.4673774375,"velocity":0.44881889763779526},{"duration":0.13043474999999916,"midi":80,"time":55.565203499999996,"velocity":0.44881889763779526},{"duration":0.13043474999999916,"midi":56,"time":55.565203499999996,"velocity":0.44881889763779526},{"duration":0.13043474999999916,"midi":80,"time":55.5978121875,"velocity":0.44881889763779526},{"duration":0.13043474999999916,"midi":58,"time":55.695638249999995,"velocity":0.44881889763779526},{"duration":0.13043474999999916,"midi":79,"time":55.695638249999995,"velocity":0.44881889763779526},{"duration":0.13043474999999916,"midi":79,"time":55.728246937499996,"velocity":0.44881889763779526},{"duration":0.13043474999999916,"midi":80,"time":55.826072999999994,"velocity":0.44881889763779526},{"duration":0.13043474999999916,"midi":46,"time":55.826072999999994,"velocity":0.44881889763779526},{"duration":0.13043474999999916,"midi":80,"time":55.858681687499995,"velocity":0.44881889763779526},{"duration":0.13043474999999916,"midi":79,"time":55.95650774999999,"velocity":0.44881889763779526},{"duration":0.13043474999999916,"midi":56,"time":55.95650774999999,"velocity":0.44881889763779526},{"duration":0.13043474999999916,"midi":79,"time":55.989116437499995,"velocity":0.44881889763779526},{"duration":0.13043475000000626,"midi":55,"time":56.08694249999999,"velocity":0.44881889763779526},{"duration":0.13043475000000626,"midi":77,"time":56.08694249999999,"velocity":0.44881889763779526},{"duration":0.13043474999999916,"midi":77,"time":56.119551187499994,"velocity":0.44881889763779526},{"duration":0.13043474999999916,"midi":79,"time":56.21737725,"velocity":0.44881889763779526},{"duration":0.13043474999999916,"midi":53,"time":56.21737725,"velocity":0.44881889763779526},{"duration":0.13043474999999916,"midi":79,"time":56.24998593749999,"velocity":0.44881889763779526},{"duration":0.2608694999999983,"midi":77,"time":56.347812,"velocity":0.44881889763779526},{"duration":0.13043474999999916,"midi":49,"time":56.347812,"velocity":0.44881889763779526},{"duration":0.13043474999999916,"midi":53,"time":56.47824675,"velocity":0.44881889763779526},{"duration":0.2608694999999983,"midi":87,"time":56.608681499999996,"velocity":0.44881889763779526},{"duration":0.13043474999999916,"midi":56,"time":56.608681499999996,"velocity":0.44881889763779526},{"duration":0.13043474999999916,"midi":53,"time":56.739116249999995,"velocity":0.44881889763779526},{"duration":0.13043474999999916,"midi":85,"time":56.869550999999994,"velocity":0.44881889763779526},{"duration":0.13043474999999916,"midi":49,"time":56.869550999999994,"velocity":0.44881889763779526},{"duration":0.13043474999999916,"midi":53,"time":56.99998574999999,"velocity":0.44881889763779526},{"duration":0.13043474999999916,"midi":87,"time":56.99998574999999,"velocity":0.44881889763779526},{"duration":0.13043474999999916,"midi":56,"time":57.13042049999999,"velocity":0.44881889763779526},{"duration":0.13043474999999916,"midi":84,"time":57.13042049999999,"velocity":0.44881889763779526},{"duration":0.13043475000000626,"midi":87,"time":57.26085524999999,"velocity":0.44881889763779526},{"duration":0.13043475000000626,"midi":53,"time":57.26085524999999,"velocity":0.44881889763779526},{"duration":0.13043474999999916,"midi":48,"time":57.39129,"velocity":0.44881889763779526},{"duration":0.13043474999999916,"midi":82,"time":57.39129,"velocity":0.44881889763779526},{"duration":0.13043474999999916,"midi":84,"time":57.52172475,"velocity":0.44881889763779526},{"duration":0.13043474999999916,"midi":53,"time":57.52172475,"velocity":0.44881889763779526},{"duration":0.13043474999999916,"midi":80,"time":57.652159499999996,"velocity":0.44881889763779526},{"duration":0.13043474999999916,"midi":44,"time":57.652159499999996,"velocity":0.44881889763779526},{"duration":0.13043474999999916,"midi":82,"time":57.782594249999995,"velocity":0.44881889763779526},{"duration":0.13043474999999916,"midi":46,"time":57.782594249999995,"velocity":0.44881889763779526},{"duration":0.5217389999999966,"midi":84,"time":57.913028999999995,"velocity":0.44881889763779526},{"duration":0.13043474999999916,"midi":48,"time":57.913028999999995,"velocity":0.44881889763779526},{"duration":0.13043474999999916,"midi":52,"time":58.043463749999994,"velocity":0.44881889763779526},{"duration":0.13043474999999916,"midi":40,"time":58.17389849999999,"velocity":0.44881889763779526},{"duration":0.13043474999999916,"midi":52,"time":58.30433324999999,"velocity":0.44881889763779526},{"duration":0.2608695000000054,"midi":80,"time":58.43476799999999,"velocity":0.44881889763779526},{"duration":0.2608695000000054,"midi":84,"time":58.43476799999999,"velocity":0.44881889763779526},{"duration":0.2608695000000054,"midi":72,"time":58.43476799999999,"velocity":0.44881889763779526},{"duration":0.2608694999999983,"midi":77,"time":58.6956375,"velocity":0.44881889763779526},{"duration":0.2608694999999983,"midi":80,"time":58.6956375,"velocity":0.44881889763779526},{"duration":0.2608694999999983,"midi":68,"time":58.6956375,"velocity":0.44881889763779526},{"duration":0.2608694999999983,"midi":77,"time":58.956506999999995,"velocity":0.44881889763779526},{"duration":0.2608694999999983,"midi":72,"time":58.956506999999995,"velocity":0.44881889763779526},{"duration":0.2608694999999983,"midi":65,"time":58.956506999999995,"velocity":0.44881889763779526},{"duration":0.2608694999999983,"midi":72,"time":59.21737649999999,"velocity":0.44881889763779526},{"duration":0.2608694999999983,"midi":60,"time":59.21737649999999,"velocity":0.44881889763779526},{"duration":0.2608694999999983,"midi":68,"time":59.21737649999999,"velocity":0.44881889763779526},{"duration":0.2608695000000054,"midi":80,"time":59.47824599999999,"velocity":0.44881889763779526},{"duration":0.2608695000000054,"midi":68,"time":59.47824599999999,"velocity":0.44881889763779526},{"duration":0.2608695000000054,"midi":77,"time":59.47824599999999,"velocity":0.44881889763779526},{"duration":0.13043474999999916,"midi":65,"time":59.7391155,"velocity":0.44881889763779526},{"duration":0.13043474999999916,"midi":72,"time":59.7391155,"velocity":0.44881889763779526},{"duration":0.13043474999999916,"midi":77,"time":59.7391155,"velocity":0.44881889763779526},{"duration":0.6521737499999958,"midi":67,"time":59.869550249999996,"velocity":0.44881889763779526},{"duration":0.6521737499999958,"midi":79,"time":59.869550249999996,"velocity":0.44881889763779526},{"duration":0.6521737499999958,"midi":73,"time":59.869550249999996,"velocity":0.44881889763779526},{"duration":0.2608695000000054,"midi":68,"time":60.52172399999999,"velocity":0.44881889763779526},{"duration":0.2608695000000054,"midi":77,"time":60.52172399999999,"velocity":0.44881889763779526},{"duration":0.2608695000000054,"midi":80,"time":60.52172399999999,"velocity":0.44881889763779526},{"duration":0.13043474999999916,"midi":72,"time":60.7825935,"velocity":0.44881889763779526},{"duration":0.13043474999999916,"midi":77,"time":60.7825935,"velocity":0.44881889763779526},{"duration":0.13043474999999916,"midi":65,"time":60.7825935,"velocity":0.44881889763779526},{"duration":0.6521737499999958,"midi":73,"time":60.913028249999996,"velocity":0.44881889763779526},{"duration":0.6521737499999958,"midi":79,"time":60.913028249999996,"velocity":0.44881889763779526},{"duration":0.6521737499999958,"midi":67,"time":60.913028249999996,"velocity":0.44881889763779526},{"duration":0.2608695000000054,"midi":80,"time":61.56520199999999,"velocity":0.44881889763779526},{"duration":0.2608695000000054,"midi":77,"time":61.56520199999999,"velocity":0.44881889763779526},{"duration":0.2608695000000054,"midi":68,"time":61.56520199999999,"velocity":0.44881889763779526},{"duration":0.13043474999999916,"midi":72,"time":61.8260715,"velocity":0.44881889763779526},{"duration":0.13043474999999916,"midi":65,"time":61.8260715,"velocity":0.44881889763779526},{"duration":0.13043474999999916,"midi":77,"time":61.8260715,"velocity":0.44881889763779526},{"duration":0.2608694999999983,"midi":67,"time":61.95650625,"velocity":0.44881889763779526},{"duration":0.2608694999999983,"midi":79,"time":61.95650625,"velocity":0.44881889763779526},{"duration":0.2608694999999983,"midi":73,"time":61.95650625,"velocity":0.44881889763779526},{"duration":0.13043474999999916,"midi":73,"time":62.217375749999995,"velocity":0.44881889763779526},{"duration":0.13043474999999916,"midi":85,"time":62.217375749999995,"velocity":0.44881889763779526},{"duration":0.13043474999999916,"midi":84,"time":62.347810499999994,"velocity":0.44881889763779526},{"duration":0.13043474999999916,"midi":72,"time":62.347810499999994,"velocity":0.44881889763779526},{"duration":0.13043474999999916,"midi":73,"time":62.47824524999999,"velocity":0.44881889763779526},{"duration":0.13043474999999916,"midi":85,"time":62.47824524999999,"velocity":0.44881889763779526},{"duration":0.2608694999999983,"midi":72,"time":62.60867999999999,"velocity":0.44881889763779526},{"duration":0.2608694999999983,"midi":84,"time":62.60867999999999,"velocity":0.44881889763779526},{"duration":0.2608695000000054,"midi":77,"time":62.86954949999999,"velocity":0.44881889763779526},{"duration":0.2608695000000054,"midi":89,"time":62.86954949999999,"velocity":0.44881889763779526},{"duration":0.2608694999999983,"midi":70,"time":63.130418999999996,"velocity":0.44881889763779526},{"duration":0.2608694999999983,"midi":82,"time":63.130418999999996,"velocity":0.44881889763779526},{"duration":0.2608694999999983,"midi":80,"time":63.391288499999995,"velocity":0.44881889763779526},{"duration":0.2608694999999983,"midi":68,"time":63.391288499999995,"velocity":0.44881889763779526},{"duration":0.13043474999999916,"midi":82,"time":63.65215799999999,"velocity":0.44881889763779526},{"duration":0.13043474999999916,"midi":70,"time":63.65215799999999,"velocity":0.44881889763779526},{"duration":0.2608694999999983,"midi":80,"time":63.78259274999999,"velocity":0.44881889763779526},{"duration":0.2608694999999983,"midi":68,"time":63.78259274999999,"velocity":0.44881889763779526},{"duration":0.39130425000000457,"midi":70,"time":64.04346224999999,"velocity":0.44881889763779526},{"duration":0.39130425000000457,"midi":82,"time":64.04346224999999,"velocity":0.44881889763779526},{"duration":0.13043475000000626,"midi":80,"time":64.4347665,"velocity":0.44881889763779526},{"duration":0.13043475000000626,"midi":68,"time":64.4347665,"velocity":0.44881889763779526},{"duration":0.13043474999999205,"midi":82,"time":64.56520125,"velocity":0.44881889763779526},{"duration":0.13043474999999205,"midi":70,"time":64.56520125,"velocity":0.44881889763779526},{"duration":0.13043475000000626,"midi":83,"time":64.695636,"velocity":0.44881889763779526},{"duration":0.13043475000000626,"midi":71,"time":64.695636,"velocity":0.44881889763779526},{"duration":0.13043474999999205,"midi":70,"time":64.82607075,"velocity":0.44881889763779526},{"duration":0.13043474999999205,"midi":82,"time":64.82607075,"velocity":0.44881889763779526},{"duration":0.2608694999999983,"midi":68,"time":64.95650549999999,"velocity":0.44881889763779526},{"duration":0.2608694999999983,"midi":80,"time":64.95650549999999,"velocity":0.44881889763779526},{"duration":0.2608694999999983,"midi":76,"time":65.21737499999999,"velocity":0.44881889763779526},{"duration":0.2608694999999983,"midi":64,"time":65.21737499999999,"velocity":0.44881889763779526},{"duration":0.2608695000000125,"midi":60,"time":65.47824449999999,"velocity":0.44881889763779526},{"duration":0.2608695000000125,"midi":72,"time":65.47824449999999,"velocity":0.44881889763779526},{"duration":0.2608694999999983,"midi":73,"time":65.739114,"velocity":0.44881889763779526},{"duration":0.2608694999999983,"midi":61,"time":65.739114,"velocity":0.44881889763779526},{"duration":0.2608694999999983,"midi":76,"time":65.9999835,"velocity":0.44881889763779526},{"duration":0.2608694999999983,"midi":64,"time":65.9999835,"velocity":0.44881889763779526},{"duration":0.5217389999999966,"midi":65,"time":66.260853,"velocity":0.44881889763779526},{"duration":0.5217389999999966,"midi":77,"time":66.260853,"velocity":0.44881889763779526},{"duration":0.13043475000000626,"midi":61,"time":66.782592,"velocity":0.44881889763779526},{"duration":0.13043474999999205,"midi":68,"time":66.91302675,"velocity":0.44881889763779526},{"duration":0.13043475000000626,"midi":94,"time":67.04346149999999,"velocity":0.44881889763779526},{"duration":0.13043475000000626,"midi":70,"time":67.04346149999999,"velocity":0.44881889763779526},{"duration":0.13043475000000626,"midi":94,"time":67.04346149999999,"velocity":0.44881889763779526},{"duration":0.13043474999999205,"midi":92,"time":67.17389625,"velocity":0.44881889763779526},{"duration":0.13043474999999205,"midi":92,"time":67.17389625,"velocity":0.44881889763779526},{"duration":0.13043474999999205,"midi":68,"time":67.17389625,"velocity":0.44881889763779526},{"duration":0.13043475000000626,"midi":61,"time":67.30433099999999,"velocity":0.44881889763779526},{"duration":0.13043474999999205,"midi":68,"time":67.43476575,"velocity":0.44881889763779526},{"duration":0.13043474999999205,"midi":94,"time":67.43476575,"velocity":0.44881889763779526},{"duration":0.13043474999999205,"midi":94,"time":67.43476575,"velocity":0.44881889763779526},{"duration":0.13043475000000626,"midi":70,"time":67.56520049999999,"velocity":0.44881889763779526},{"duration":0.13043475000000626,"midi":92,"time":67.56520049999999,"velocity":0.44881889763779526},{"duration":0.13043475000000626,"midi":92,"time":67.56520049999999,"velocity":0.44881889763779526},{"duration":0.13043474999999205,"midi":68,"time":67.69563525,"velocity":0.44881889763779526},{"duration":0.13043475000000626,"midi":61,"time":67.82606999999999,"velocity":0.44881889763779526},{"duration":0.13043475000000626,"midi":68,"time":67.95650475,"velocity":0.44881889763779526},{"duration":0.13043474999999205,"midi":94,"time":68.0869395,"velocity":0.44881889763779526},{"duration":0.13043474999999205,"midi":94,"time":68.0869395,"velocity":0.44881889763779526},{"duration":0.13043474999999205,"midi":70,"time":68.0869395,"velocity":0.44881889763779526},{"duration":0.13043475000000626,"midi":68,"time":68.21737424999999,"velocity":0.44881889763779526},{"duration":0.13043475000000626,"midi":92,"time":68.21737424999999,"velocity":0.44881889763779526},{"duration":0.13043475000000626,"midi":92,"time":68.21737424999999,"velocity":0.44881889763779526},{"duration":0.13043474999999205,"midi":61,"time":68.347809,"velocity":0.44881889763779526},{"duration":0.13043475000000626,"midi":94,"time":68.47824374999999,"velocity":0.44881889763779526},{"duration":0.13043475000000626,"midi":94,"time":68.47824374999999,"velocity":0.44881889763779526},{"duration":0.13043475000000626,"midi":68,"time":68.47824374999999,"velocity":0.44881889763779526},{"duration":0.13043474999999205,"midi":92,"time":68.6086785,"velocity":0.44881889763779526},{"duration":0.13043474999999205,"midi":70,"time":68.6086785,"velocity":0.44881889763779526},{"duration":0.13043474999999205,"midi":92,"time":68.6086785,"velocity":0.44881889763779526},{"duration":0.13043475000000626,"midi":68,"time":68.73911324999999,"velocity":0.44881889763779526},{"duration":0.13043474999999205,"midi":65,"time":68.869548,"velocity":0.44881889763779526},{"duration":0.13043474999999205,"midi":92,"time":68.869548,"velocity":0.44881889763779526},{"duration":0.13043474999999205,"midi":92,"time":68.869548,"velocity":0.44881889763779526},{"duration":0.05842389843749629,"midi":94,"time":68.99998274999999,"velocity":0.44881889763779526},{"duration":0.13043475000000626,"midi":72,"time":68.99998274999999,"velocity":0.44881889763779526},{"duration":0.05842389843749629,"midi":94,"time":68.99998274999999,"velocity":0.44881889763779526},{"duration":0.05842389843749629,"midi":92,"time":69.06520012499999,"velocity":0.44881889763779526},{"duration":0.05842389843749629,"midi":92,"time":69.06520012499999,"velocity":0.44881889763779526},{"duration":0.13043475000000626,"midi":73,"time":69.1304175,"velocity":0.44881889763779526},{"duration":0.22826081249999675,"midi":89,"time":69.1304175,"velocity":0.44881889763779526},{"duration":0.22826081249999675,"midi":89,"time":69.1304175,"velocity":0.44881889763779526},{"duration":0.13043474999999205,"midi":72,"time":69.26085225,"velocity":0.44881889763779526},{"duration":0.2608694999999983,"midi":89,"time":69.39128699999999,"velocity":0.44881889763779526},{"duration":0.13043475000000626,"midi":65,"time":69.39128699999999,"velocity":0.44881889763779526},{"duration":0.2608694999999983,"midi":89,"time":69.39128699999999,"velocity":0.44881889763779526},{"duration":0.13043474999999205,"midi":72,"time":69.52172175,"velocity":0.44881889763779526},{"duration":0.13043475000000626,"midi":88,"time":69.65215649999999,"velocity":0.44881889763779526},{"duration":0.13043475000000626,"midi":88,"time":69.65215649999999,"velocity":0.44881889763779526},{"duration":0.13043475000000626,"midi":73,"time":69.65215649999999,"velocity":0.44881889763779526},{"duration":0.13043474999999205,"midi":89,"time":69.78259125,"velocity":0.44881889763779526},{"duration":0.13043474999999205,"midi":89,"time":69.78259125,"velocity":0.44881889763779526},{"duration":0.13043474999999205,"midi":72,"time":69.78259125,"velocity":0.44881889763779526},{"duration":0.13043475000000626,"midi":65,"time":69.91302599999999,"velocity":0.44881889763779526},{"duration":0.13043475000000626,"midi":72,"time":70.04346075,"velocity":0.44881889763779526},{"duration":0.13043474999999205,"midi":73,"time":70.1738955,"velocity":0.44881889763779526},{"duration":0.13043475000000626,"midi":72,"time":70.30433024999999,"velocity":0.44881889763779526},{"duration":0.13043474999999205,"midi":65,"time":70.434765,"velocity":0.44881889763779526},{"duration":0.13043475000000626,"midi":72,"time":70.56519974999999,"velocity":0.44881889763779526},{"duration":0.13043474999999205,"midi":73,"time":70.6956345,"velocity":0.44881889763779526},{"duration":0.13043475000000626,"midi":72,"time":70.82606924999999,"velocity":0.44881889763779526},{"duration":0.13043474999999205,"midi":61,"time":70.956504,"velocity":0.44881889763779526},{"duration":0.13043475000000626,"midi":68,"time":71.08693874999999,"velocity":0.44881889763779526},{"duration":0.13043475000000626,"midi":70,"time":71.2173735,"velocity":0.44881889763779526},{"duration":0.13043475000000626,"midi":94,"time":71.2173735,"velocity":0.44881889763779526},{"duration":0.13043475000000626,"midi":94,"time":71.2173735,"velocity":0.44881889763779526},{"duration":0.13043474999999205,"midi":92,"time":71.34780825,"velocity":0.44881889763779526},{"duration":0.13043474999999205,"midi":92,"time":71.34780825,"velocity":0.44881889763779526},{"duration":0.13043474999999205,"midi":68,"time":71.34780825,"velocity":0.44881889763779526},{"duration":0.13043475000000626,"midi":61,"time":71.47824299999999,"velocity":0.44881889763779526},{"duration":0.13043474999999205,"midi":94,"time":71.60867775,"velocity":0.44881889763779526},{"duration":0.13043474999999205,"midi":68,"time":71.60867775,"velocity":0.44881889763779526},{"duration":0.13043474999999205,"midi":94,"time":71.60867775,"velocity":0.44881889763779526},{"duration":0.13043475000000626,"midi":92,"time":71.73911249999999,"velocity":0.44881889763779526},{"duration":0.13043475000000626,"midi":92,"time":71.73911249999999,"velocity":0.44881889763779526},{"duration":0.13043475000000626,"midi":70,"time":71.73911249999999,"velocity":0.44881889763779526},{"duration":0.13043474999999205,"midi":68,"time":71.86954725,"velocity":0.44881889763779526},{"duration":0.13043475000000626,"midi":61,"time":71.99998199999999,"velocity":0.44881889763779526},{"duration":0.13043474999999205,"midi":68,"time":72.13041675,"velocity":0.44881889763779526},{"duration":0.13043475000000626,"midi":70,"time":72.26085149999999,"velocity":0.44881889763779526},{"duration":0.13043475000000626,"midi":94,"time":72.26085149999999,"velocity":0.44881889763779526},{"duration":0.13043475000000626,"midi":94,"time":72.26085149999999,"velocity":0.44881889763779526},{"duration":0.13043475000000626,"midi":68,"time":72.39128625,"velocity":0.44881889763779526},{"duration":0.13043475000000626,"midi":92,"time":72.39128625,"velocity":0.44881889763779526},{"duration":0.13043475000000626,"midi":92,"time":72.39128625,"velocity":0.44881889763779526},{"duration":0.13043474999999205,"midi":61,"time":72.521721,"velocity":0.44881889763779526},{"duration":0.13043475000000626,"midi":94,"time":72.65215574999999,"velocity":0.44881889763779526},{"duration":0.13043475000000626,"midi":68,"time":72.65215574999999,"velocity":0.44881889763779526},{"duration":0.13043475000000626,"midi":94,"time":72.65215574999999,"velocity":0.44881889763779526},{"duration":0.13043474999999205,"midi":92,"time":72.7825905,"velocity":0.44881889763779526},{"duration":0.13043474999999205,"midi":92,"time":72.7825905,"velocity":0.44881889763779526},{"duration":0.13043474999999205,"midi":70,"time":72.7825905,"velocity":0.44881889763779526},{"duration":0.13043475000000626,"midi":68,"time":72.91302524999999,"velocity":0.44881889763779526},{"duration":0.2608694999999983,"midi":92,"time":73.04346,"velocity":0.44881889763779526},{"duration":0.13043474999999205,"midi":58,"time":73.04346,"velocity":0.44881889763779526},{"duration":0.2608694999999983,"midi":92,"time":73.04346,"velocity":0.44881889763779526},{"duration":0.13043475000000626,"midi":65,"time":73.17389474999999,"velocity":0.44881889763779526},{"duration":0.13043474999999205,"midi":66,"time":73.3043295,"velocity":0.44881889763779526},{"duration":0.2608694999999983,"midi":94,"time":73.3043295,"velocity":0.44881889763779526},{"duration":0.2608694999999983,"midi":94,"time":73.3043295,"velocity":0.44881889763779526},{"duration":0.13043475000000626,"midi":65,"time":73.43476424999999,"velocity":0.44881889763779526},{"duration":0.13043475000000626,"midi":95,"time":73.56519899999999,"velocity":0.44881889763779526},{"duration":0.13043475000000626,"midi":58,"time":73.56519899999999,"velocity":0.44881889763779526},{"duration":0.13043475000000626,"midi":95,"time":73.56519899999999,"velocity":0.44881889763779526},{"duration":0.2608694999999983,"midi":94,"time":73.69563375,"velocity":0.44881889763779526},{"duration":0.13043474999999205,"midi":65,"time":73.69563375,"velocity":0.44881889763779526},{"duration":0.2608694999999983,"midi":94,"time":73.69563375,"velocity":0.44881889763779526},{"duration":0.13043475000000626,"midi":66,"time":73.82606849999999,"velocity":0.44881889763779526},{"duration":0.13043474999999205,"midi":92,"time":73.95650325,"velocity":0.44881889763779526},{"duration":0.13043474999999205,"midi":92,"time":73.95650325,"velocity":0.44881889763779526},{"duration":0.13043474999999205,"midi":65,"time":73.95650325,"velocity":0.44881889763779526},{"duration":0.5217390000000108,"midi":89,"time":74.08693799999999,"velocity":0.44881889763779526},{"duration":0.5217390000000108,"midi":89,"time":74.08693799999999,"velocity":0.44881889763779526},{"duration":0.13043475000000626,"midi":58,"time":74.08693799999999,"velocity":0.44881889763779526},{"duration":0.13043474999999205,"midi":65,"time":74.21737275,"velocity":0.44881889763779526},{"duration":0.13043475000000626,"midi":66,"time":74.34780749999999,"velocity":0.44881889763779526},{"duration":0.13043475000000626,"midi":65,"time":74.47824225,"velocity":0.44881889763779526},{"duration":0.13043474999999205,"midi":56,"time":74.608677,"velocity":0.44881889763779526},{"duration":0.13043475000000626,"midi":65,"time":74.73911174999999,"velocity":0.44881889763779526},{"duration":0.13043474999999205,"midi":66,"time":74.8695465,"velocity":0.44881889763779526},{"duration":0.13043475000000626,"midi":65,"time":74.99998124999999,"velocity":0.44881889763779526},{"duration":1.5652169999999899,"midi":65,"time":75.130416,"velocity":0.44881889763779526},{"duration":1.5652169999999899,"midi":65,"time":75.130416,"velocity":0.44881889763779526},{"duration":0.13043474999999205,"midi":61,"time":75.130416,"velocity":0.44881889763779526},{"duration":0.13043475000000626,"midi":68,"time":75.26085074999999,"velocity":0.44881889763779526},{"duration":0.13043474999999205,"midi":70,"time":75.3912855,"velocity":0.44881889763779526},{"duration":0.13043474999999205,"midi":94,"time":75.3912855,"velocity":0.44881889763779526},{"duration":0.13043474999999205,"midi":94,"time":75.3912855,"velocity":0.44881889763779526},{"duration":0.13043475000000626,"midi":68,"time":75.52172024999999,"velocity":0.44881889763779526},{"duration":0.13043475000000626,"midi":92,"time":75.52172024999999,"velocity":0.44881889763779526},{"duration":0.13043475000000626,"midi":92,"time":75.52172024999999,"velocity":0.44881889763779526},{"duration":0.13043475000000626,"midi":61,"time":75.652155,"velocity":0.44881889763779526},{"duration":0.13043474999999205,"midi":94,"time":75.78258975,"velocity":0.44881889763779526},{"duration":0.13043474999999205,"midi":68,"time":75.78258975,"velocity":0.44881889763779526},{"duration":0.13043474999999205,"midi":94,"time":75.78258975,"velocity":0.44881889763779526},{"duration":0.13043475000000626,"midi":92,"time":75.91302449999999,"velocity":0.44881889763779526},{"duration":0.13043475000000626,"midi":92,"time":75.91302449999999,"velocity":0.44881889763779526},{"duration":0.13043475000000626,"midi":70,"time":75.91302449999999,"velocity":0.44881889763779526},{"duration":0.13043474999999205,"midi":68,"time":76.04345925,"velocity":0.44881889763779526},{"duration":0.13043475000000626,"midi":61,"time":76.17389399999999,"velocity":0.44881889763779526},{"duration":0.13043474999999205,"midi":68,"time":76.30432875,"velocity":0.44881889763779526},{"duration":0.13043475000000626,"midi":94,"time":76.43476349999999,"velocity":0.44881889763779526},{"duration":0.13043475000000626,"midi":70,"time":76.43476349999999,"velocity":0.44881889763779526},{"duration":0.13043475000000626,"midi":94,"time":76.43476349999999,"velocity":0.44881889763779526},{"duration":0.13043474999999205,"midi":92,"time":76.56519825,"velocity":0.44881889763779526},{"duration":0.13043474999999205,"midi":92,"time":76.56519825,"velocity":0.44881889763779526},{"duration":0.13043474999999205,"midi":68,"time":76.56519825,"velocity":0.44881889763779526},{"duration":0.13043475000000626,"midi":61,"time":76.69563299999999,"velocity":0.44881889763779526},{"duration":0.13043475000000626,"midi":64,"time":76.69563299999999,"velocity":0.44881889763779526},{"duration":0.13043475000000626,"midi":64,"time":76.69563299999999,"velocity":0.44881889763779526},{"duration":0.13043475000000626,"midi":94,"time":76.82606774999999,"velocity":0.44881889763779526},{"duration":0.13043475000000626,"midi":94,"time":76.82606774999999,"velocity":0.44881889763779526},{"duration":0.13043475000000626,"midi":63,"time":76.82606774999999,"velocity":0.44881889763779526},{"duration":0.13043475000000626,"midi":63,"time":76.82606774999999,"velocity":0.44881889763779526},{"duration":0.13043475000000626,"midi":68,"time":76.82606774999999,"velocity":0.44881889763779526},{"duration":0.13043474999999205,"midi":92,"time":76.9565025,"velocity":0.44881889763779526},{"duration":0.13043474999999205,"midi":70,"time":76.9565025,"velocity":0.44881889763779526},{"duration":0.13043474999999205,"midi":92,"time":76.9565025,"velocity":0.44881889763779526},{"duration":0.13043474999999205,"midi":62,"time":76.9565025,"velocity":0.44881889763779526},{"duration":0.13043474999999205,"midi":62,"time":76.9565025,"velocity":0.44881889763779526},{"duration":0.13043475000000626,"midi":68,"time":77.08693724999999,"velocity":0.44881889763779526},{"duration":0.13043475000000626,"midi":61,"time":77.08693724999999,"velocity":0.44881889763779526},{"duration":0.13043475000000626,"midi":61,"time":77.08693724999999,"velocity":0.44881889763779526},{"duration":1.5652169999999899,"midi":60,"time":77.217372,"velocity":0.44881889763779526},{"duration":0.13043474999999205,"midi":92,"time":77.217372,"velocity":0.44881889763779526},{"duration":1.5652169999999899,"midi":60,"time":77.217372,"velocity":0.44881889763779526},{"duration":0.13043474999999205,"midi":65,"time":77.217372,"velocity":0.44881889763779526},{"duration":0.13043474999999205,"midi":92,"time":77.217372,"velocity":0.44881889763779526},{"duration":0.13043475000000626,"midi":72,"time":77.34780674999999,"velocity":0.44881889763779526},{"duration":0.05842389843749629,"midi":94,"time":77.34780674999999,"velocity":0.44881889763779526},{"duration":0.05842389843749629,"midi":94,"time":77.34780674999999,"velocity":0.44881889763779526},{"duration":0.05842389843749629,"midi":92,"time":77.41302412499999,"velocity":0.44881889763779526},{"duration":0.05842389843749629,"midi":92,"time":77.41302412499999,"velocity":0.44881889763779526},{"duration":0.22826081249999675,"midi":89,"time":77.4782415,"velocity":0.44881889763779526},{"duration":0.13043474999999205,"midi":73,"time":77.4782415,"velocity":0.44881889763779526},{"duration":0.22826081249999675,"midi":89,"time":77.4782415,"velocity":0.44881889763779526},{"duration":0.13043475000000626,"midi":72,"time":77.60867624999999,"velocity":0.44881889763779526},{"duration":0.2608694999999983,"midi":89,"time":77.739111,"velocity":0.44881889763779526},{"duration":0.13043474999999205,"midi":65,"time":77.739111,"velocity":0.44881889763779526},{"duration":0.2608694999999983,"midi":89,"time":77.739111,"velocity":0.44881889763779526},{"duration":0.13043475000000626,"midi":72,"time":77.86954574999999,"velocity":0.44881889763779526},{"duration":0.13043475000000626,"midi":73,"time":77.99998049999999,"velocity":0.44881889763779526},{"duration":0.13043475000000626,"midi":88,"time":77.99998049999999,"velocity":0.44881889763779526},{"duration":0.13043475000000626,"midi":88,"time":77.99998049999999,"velocity":0.44881889763779526},{"duration":0.13043474999999205,"midi":72,"time":78.13041525,"velocity":0.44881889763779526},{"duration":0.13043474999999205,"midi":89,"time":78.13041525,"velocity":0.44881889763779526},{"duration":0.13043474999999205,"midi":89,"time":78.13041525,"velocity":0.44881889763779526},{"duration":0.13043475000000626,"midi":65,"time":78.26084999999999,"velocity":0.44881889763779526},{"duration":0.13043474999999205,"midi":72,"time":78.39128475,"velocity":0.44881889763779526},{"duration":0.13043475000000626,"midi":73,"time":78.52171949999999,"velocity":0.44881889763779526},{"duration":0.13043474999999205,"midi":72,"time":78.65215425,"velocity":0.44881889763779526},{"duration":0.13043475000000626,"midi":61,"time":78.78258899999999,"velocity":0.44881889763779526},{"duration":0.13043475000000626,"midi":61,"time":78.78258899999999,"velocity":0.44881889763779526},{"duration":0.13043475000000626,"midi":65,"time":78.78258899999999,"velocity":0.44881889763779526},{"duration":0.13043475000000626,"midi":62,"time":78.91302375,"velocity":0.44881889763779526},{"duration":0.13043475000000626,"midi":62,"time":78.91302375,"velocity":0.44881889763779526},{"duration":0.13043475000000626,"midi":72,"time":78.91302375,"velocity":0.44881889763779526},{"duration":0.13043474999999205,"midi":63,"time":79.0434585,"velocity":0.44881889763779526},{"duration":0.13043474999999205,"midi":63,"time":79.0434585,"velocity":0.44881889763779526},{"duration":0.13043474999999205,"midi":73,"time":79.0434585,"velocity":0.44881889763779526},{"duration":0.13043475000000626,"midi":64,"time":79.17389324999999,"velocity":0.44881889763779526},{"duration":0.13043475000000626,"midi":64,"time":79.17389324999999,"velocity":0.44881889763779526},{"duration":0.13043475000000626,"midi":72,"time":79.17389324999999,"velocity":0.44881889763779526},{"duration":1.5652169999999899,"midi":65,"time":79.304328,"velocity":0.44881889763779526},{"duration":1.5652169999999899,"midi":65,"time":79.304328,"velocity":0.44881889763779526},{"duration":0.13043474999999205,"midi":61,"time":79.304328,"velocity":0.44881889763779526},{"duration":0.13043475000000626,"midi":68,"time":79.43476274999999,"velocity":0.44881889763779526},{"duration":0.13043474999999205,"midi":94,"time":79.5651975,"velocity":0.44881889763779526},{"duration":0.13043474999999205,"midi":94,"time":79.5651975,"velocity":0.44881889763779526},{"duration":0.13043474999999205,"midi":70,"time":79.5651975,"velocity":0.44881889763779526},{"duration":0.13043475000000626,"midi":92,"time":79.69563224999999,"velocity":0.44881889763779526},{"duration":0.13043475000000626,"midi":92,"time":79.69563224999999,"velocity":0.44881889763779526},{"duration":0.13043475000000626,"midi":68,"time":79.69563224999999,"velocity":0.44881889763779526},{"duration":0.13043474999999205,"midi":61,"time":79.826067,"velocity":0.44881889763779526},{"duration":0.13043475000000626,"midi":94,"time":79.95650174999999,"velocity":0.44881889763779526},{"duration":0.13043475000000626,"midi":94,"time":79.95650174999999,"velocity":0.44881889763779526},{"duration":0.13043475000000626,"midi":68,"time":79.95650174999999,"velocity":0.44881889763779526},{"duration":0.13043475000000626,"midi":70,"time":80.0869365,"velocity":0.44881889763779526},{"duration":0.13043475000000626,"midi":92,"time":80.0869365,"velocity":0.44881889763779526},{"duration":0.13043475000000626,"midi":92,"time":80.0869365,"velocity":0.44881889763779526},{"duration":0.13043474999999205,"midi":68,"time":80.21737125,"velocity":0.44881889763779526},{"duration":0.13043475000000626,"midi":61,"time":80.34780599999999,"velocity":0.44881889763779526},{"duration":0.13043474999999205,"midi":68,"time":80.47824075,"velocity":0.44881889763779526},{"duration":0.13043475000000626,"midi":70,"time":80.60867549999999,"velocity":0.44881889763779526},{"duration":0.13043475000000626,"midi":94,"time":80.60867549999999,"velocity":0.44881889763779526},{"duration":0.13043475000000626,"midi":94,"time":80.60867549999999,"velocity":0.44881889763779526},{"duration":0.13043474999999205,"midi":92,"time":80.73911025,"velocity":0.44881889763779526},{"duration":0.13043474999999205,"midi":68,"time":80.73911025,"velocity":0.44881889763779526},{"duration":0.13043474999999205,"midi":92,"time":80.73911025,"velocity":0.44881889763779526},{"duration":0.2608694999999983,"midi":68,"time":80.86954499999999,"velocity":0.44881889763779526},{"duration":0.5217390000000108,"midi":68,"time":80.86954499999999,"velocity":0.44881889763779526},{"duration":0.13043475000000626,"midi":61,"time":80.86954499999999,"velocity":0.44881889763779526},{"duration":0.39130425000000457,"midi":68,"time":80.99997975,"velocity":0.44881889763779526},{"duration":0.13043474999999205,"midi":94,"time":80.99997975,"velocity":0.44881889763779526},{"duration":0.13043474999999205,"midi":94,"time":80.99997975,"velocity":0.44881889763779526},{"duration":0.13043475000000626,"midi":92,"time":81.13041449999999,"velocity":0.44881889763779526},{"duration":0.13043475000000626,"midi":70,"time":81.13041449999999,"velocity":0.44881889763779526},{"duration":0.13043475000000626,"midi":92,"time":81.13041449999999,"velocity":0.44881889763779526},{"duration":0.13043475000000626,"midi":68,"time":81.26084924999999,"velocity":0.44881889763779526},{"duration":0.13043474999999205,"midi":65,"time":81.391284,"velocity":0.44881889763779526},{"duration":2.0869560000000007,"midi":67,"time":81.391284,"velocity":0.44881889763779526},{"duration":2.0869560000000007,"midi":67,"time":81.391284,"velocity":0.44881889763779526},{"duration":0.2608694999999983,"midi":92,"time":81.391284,"velocity":0.44881889763779526},{"duration":0.2608694999999983,"midi":92,"time":81.391284,"velocity":0.44881889763779526},{"duration":0.13043475000000626,"midi":72,"time":81.52171874999999,"velocity":0.44881889763779526},{"duration":0.2608694999999983,"midi":94,"time":81.6521535,"velocity":0.44881889763779526},{"duration":0.2608694999999983,"midi":94,"time":81.6521535,"velocity":0.44881889763779526},{"duration":0.13043474999999205,"midi":73,"time":81.6521535,"velocity":0.44881889763779526},{"duration":0.13043475000000626,"midi":72,"time":81.78258824999999,"velocity":0.44881889763779526},{"duration":0.13043474999999205,"midi":65,"time":81.913023,"velocity":0.44881889763779526},{"duration":0.13043474999999205,"midi":95,"time":81.913023,"velocity":0.44881889763779526},{"duration":0.13043474999999205,"midi":95,"time":81.913023,"velocity":0.44881889763779526},{"duration":0.2608694999999983,"midi":94,"time":82.04345774999999,"velocity":0.44881889763779526},{"duration":0.13043475000000626,"midi":72,"time":82.04345774999999,"velocity":0.44881889763779526},{"duration":0.2608694999999983,"midi":94,"time":82.04345774999999,"velocity":0.44881889763779526},{"duration":0.13043474999999205,"midi":73,"time":82.1738925,"velocity":0.44881889763779526},{"duration":0.13043475000000626,"midi":92,"time":82.30432724999999,"velocity":0.44881889763779526},{"duration":0.13043475000000626,"midi":92,"time":82.30432724999999,"velocity":0.44881889763779526},{"duration":0.13043475000000626,"midi":72,"time":82.30432724999999,"velocity":0.44881889763779526},{"duration":0.5217389999999966,"midi":89,"time":82.43476199999999,"velocity":0.44881889763779526},{"duration":0.5217389999999966,"midi":89,"time":82.43476199999999,"velocity":0.44881889763779526},{"duration":0.13043475000000626,"midi":65,"time":82.43476199999999,"velocity":0.44881889763779526},{"duration":0.13043474999999205,"midi":72,"time":82.56519675,"velocity":0.44881889763779526},{"duration":0.13043475000000626,"midi":73,"time":82.69563149999999,"velocity":0.44881889763779526},{"duration":0.13043474999999205,"midi":72,"time":82.82606625,"velocity":0.44881889763779526},{"duration":0.13043475000000626,"midi":65,"time":82.95650099999999,"velocity":0.44881889763779526},{"duration":0.13043474999999205,"midi":72,"time":83.08693575,"velocity":0.44881889763779526},{"duration":0.13043475000000626,"midi":73,"time":83.21737049999999,"velocity":0.44881889763779526},{"duration":0.13043475000000626,"midi":72,"time":83.34780525,"velocity":0.44881889763779526},{"duration":1.5652169999999899,"midi":53,"time":83.47824,"velocity":0.44881889763779526},{"duration":0.13043474999999205,"midi":49,"time":83.47824,"velocity":0.44881889763779526},{"duration":1.5652169999999899,"midi":53,"time":83.47824,"velocity":0.44881889763779526},{"duration":0.13043475000000626,"midi":56,"time":83.60867474999999,"velocity":0.44881889763779526},{"duration":0.13043474999999205,"midi":82,"time":83.7391095,"velocity":0.44881889763779526},{"duration":0.13043474999999205,"midi":58,"time":83.7391095,"velocity":0.44881889763779526},{"duration":0.13043474999999205,"midi":82,"time":83.7391095,"velocity":0.44881889763779526},{"duration":0.13043475000000626,"midi":80,"time":83.86954424999999,"velocity":0.44881889763779526},{"duration":0.13043475000000626,"midi":80,"time":83.86954424999999,"velocity":0.44881889763779526},{"duration":0.13043475000000626,"midi":56,"time":83.86954424999999,"velocity":0.44881889763779526},{"duration":0.13043474999999205,"midi":49,"time":83.999979,"velocity":0.44881889763779526},{"duration":0.13043475000000626,"midi":82,"time":84.13041374999999,"velocity":0.44881889763779526},{"duration":0.13043475000000626,"midi":82,"time":84.13041374999999,"velocity":0.44881889763779526},{"duration":0.13043475000000626,"midi":56,"time":84.13041374999999,"velocity":0.44881889763779526},{"duration":0.13043474999999205,"midi":80,"time":84.2608485,"velocity":0.44881889763779526},{"duration":0.13043474999999205,"midi":80,"time":84.2608485,"velocity":0.44881889763779526},{"duration":0.13043474999999205,"midi":58,"time":84.2608485,"velocity":0.44881889763779526},{"duration":0.13043475000000626,"midi":56,"time":84.39128324999999,"velocity":0.44881889763779526},{"duration":0.13043475000000626,"midi":49,"time":84.52171799999999,"velocity":0.44881889763779526},{"duration":0.13043474999999205,"midi":56,"time":84.65215275,"velocity":0.44881889763779526},{"duration":0.13043475000000626,"midi":82,"time":84.78258749999999,"velocity":0.44881889763779526},{"duration":0.13043475000000626,"midi":82,"time":84.78258749999999,"velocity":0.44881889763779526},{"duration":0.13043475000000626,"midi":58,"time":84.78258749999999,"velocity":0.44881889763779526},{"duration":0.13043474999999205,"midi":56,"time":84.91302225,"velocity":0.44881889763779526},{"duration":0.13043474999999205,"midi":80,"time":84.91302225,"velocity":0.44881889763779526},{"duration":0.13043474999999205,"midi":80,"time":84.91302225,"velocity":0.44881889763779526},{"duration":0.13043475000000626,"midi":52,"time":85.04345699999999,"velocity":0.44881889763779526},{"duration":0.13043475000000626,"midi":49,"time":85.04345699999999,"velocity":0.44881889763779526},{"duration":0.13043475000000626,"midi":52,"time":85.04345699999999,"velocity":0.44881889763779526},{"duration":0.13043474999999205,"midi":51,"time":85.17389175,"velocity":0.44881889763779526},{"duration":0.13043474999999205,"midi":82,"time":85.17389175,"velocity":0.44881889763779526},{"duration":0.13043474999999205,"midi":82,"time":85.17389175,"velocity":0.44881889763779526},{"duration":0.13043474999999205,"midi":56,"time":85.17389175,"velocity":0.44881889763779526},{"duration":0.13043474999999205,"midi":51,"time":85.17389175,"velocity":0.44881889763779526},{"duration":0.13043475000000626,"midi":58,"time":85.30432649999999,"velocity":0.44881889763779526},{"duration":0.13043475000000626,"midi":50,"time":85.30432649999999,"velocity":0.44881889763779526},{"duration":0.13043475000000626,"midi":80,"time":85.30432649999999,"velocity":0.44881889763779526},{"duration":0.13043475000000626,"midi":50,"time":85.30432649999999,"velocity":0.44881889763779526},{"duration":0.13043475000000626,"midi":80,"time":85.30432649999999,"velocity":0.44881889763779526},{"duration":0.13043474999999205,"midi":49,"time":85.43476125,"velocity":0.44881889763779526},{"duration":0.13043474999999205,"midi":49,"time":85.43476125,"velocity":0.44881889763779526},{"duration":0.13043474999999205,"midi":56,"time":85.43476125,"velocity":0.44881889763779526},{"duration":0.13043475000000626,"midi":53,"time":85.56519599999999,"velocity":0.44881889763779526},{"duration":1.565217000000004,"midi":48,"time":85.56519599999999,"velocity":0.44881889763779526},{"duration":0.13043475000000626,"midi":80,"time":85.56519599999999,"velocity":0.44881889763779526},{"duration":1.565217000000004,"midi":48,"time":85.56519599999999,"velocity":0.44881889763779526},{"duration":0.13043475000000626,"midi":80,"time":85.56519599999999,"velocity":0.44881889763779526},{"duration":0.13043475000000626,"midi":60,"time":85.69563074999999,"velocity":0.44881889763779526},{"duration":0.05842389843749629,"midi":82,"time":85.69563074999999,"velocity":0.44881889763779526},{"duration":0.05842389843749629,"midi":82,"time":85.69563074999999,"velocity":0.44881889763779526},{"duration":0.05842389843749629,"midi":80,"time":85.760848125,"velocity":0.44881889763779526},{"duration":0.05842389843749629,"midi":80,"time":85.760848125,"velocity":0.44881889763779526},{"duration":0.13043474999999205,"midi":61,"time":85.8260655,"velocity":0.44881889763779526},{"duration":0.22826081249999675,"midi":77,"time":85.8260655,"velocity":0.44881889763779526},{"duration":0.22826081249999675,"midi":77,"time":85.8260655,"velocity":0.44881889763779526},{"duration":0.13043475000000626,"midi":60,"time":85.95650024999999,"velocity":0.44881889763779526},{"duration":0.2608694999999983,"midi":77,"time":86.086935,"velocity":0.44881889763779526},{"duration":0.13043474999999205,"midi":53,"time":86.086935,"velocity":0.44881889763779526},{"duration":0.2608694999999983,"midi":77,"time":86.086935,"velocity":0.44881889763779526},{"duration":0.13043475000000626,"midi":60,"time":86.21736974999999,"velocity":0.44881889763779526},{"duration":0.13043474999999205,"midi":76,"time":86.3478045,"velocity":0.44881889763779526},{"duration":0.13043474999999205,"midi":76,"time":86.3478045,"velocity":0.44881889763779526},{"duration":0.13043474999999205,"midi":61,"time":86.3478045,"velocity":0.44881889763779526},{"duration":0.13043475000000626,"midi":77,"time":86.47823924999999,"velocity":0.44881889763779526},{"duration":0.13043475000000626,"midi":60,"time":86.47823924999999,"velocity":0.44881889763779526},{"duration":0.13043475000000626,"midi":77,"time":86.47823924999999,"velocity":0.44881889763779526},{"duration":0.13043474999999205,"midi":53,"time":86.608674,"velocity":0.44881889763779526},{"duration":0.13043475000000626,"midi":60,"time":86.73910874999999,"velocity":0.44881889763779526},{"duration":0.13043475000000626,"midi":61,"time":86.86954349999999,"velocity":0.44881889763779526},{"duration":0.13043474999999205,"midi":60,"time":86.99997825,"velocity":0.44881889763779526},{"duration":0.13043475000000626,"midi":53,"time":87.13041299999999,"velocity":0.44881889763779526},{"duration":0.13043475000000626,"midi":49,"time":87.13041299999999,"velocity":0.44881889763779526},{"duration":0.13043475000000626,"midi":49,"time":87.13041299999999,"velocity":0.44881889763779526},{"duration":0.13043474999999205,"midi":50,"time":87.26084775,"velocity":0.44881889763779526},{"duration":0.13043474999999205,"midi":60,"time":87.26084775,"velocity":0.44881889763779526},{"duration":0.13043474999999205,"midi":50,"time":87.26084775,"velocity":0.44881889763779526},{"duration":0.13043475000000626,"midi":51,"time":87.39128249999999,"velocity":0.44881889763779526},{"duration":0.13043475000000626,"midi":61,"time":87.39128249999999,"velocity":0.44881889763779526},{"duration":0.13043475000000626,"midi":51,"time":87.39128249999999,"velocity":0.44881889763779526},{"duration":0.13043474999999205,"midi":60,"time":87.52171725,"velocity":0.44881889763779526},{"duration":0.13043474999999205,"midi":52,"time":87.52171725,"velocity":0.44881889763779526},{"duration":0.13043474999999205,"midi":52,"time":87.52171725,"velocity":0.44881889763779526},{"duration":1.565217000000004,"midi":53,"time":87.65215199999999,"velocity":0.44881889763779526},{"duration":0.13043475000000626,"midi":49,"time":87.65215199999999,"velocity":0.44881889763779526},{"duration":1.565217000000004,"midi":53,"time":87.65215199999999,"velocity":0.44881889763779526},{"duration":0.13043474999999205,"midi":56,"time":87.78258675,"velocity":0.44881889763779526},{"duration":0.13043475000000626,"midi":82,"time":87.91302149999999,"velocity":0.44881889763779526},{"duration":0.13043475000000626,"midi":82,"time":87.91302149999999,"velocity":0.44881889763779526},{"duration":0.13043475000000626,"midi":58,"time":87.91302149999999,"velocity":0.44881889763779526},{"duration":0.13043475000000626,"midi":56,"time":88.04345624999999,"velocity":0.44881889763779526},{"duration":0.13043475000000626,"midi":80,"time":88.04345624999999,"velocity":0.44881889763779526},{"duration":0.13043475000000626,"midi":80,"time":88.04345624999999,"velocity":0.44881889763779526},{"duration":0.13043474999999205,"midi":49,"time":88.173891,"velocity":0.44881889763779526},{"duration":0.13043475000000626,"midi":56,"time":88.30432574999999,"velocity":0.44881889763779526},{"duration":0.13043475000000626,"midi":82,"time":88.30432574999999,"velocity":0.44881889763779526},{"duration":0.13043475000000626,"midi":82,"time":88.30432574999999,"velocity":0.44881889763779526},{"duration":0.13043474999999205,"midi":80,"time":88.4347605,"velocity":0.44881889763779526},{"duration":0.13043474999999205,"midi":58,"time":88.4347605,"velocity":0.44881889763779526},{"duration":0.13043474999999205,"midi":80,"time":88.4347605,"velocity":0.44881889763779526},{"duration":0.13043475000000626,"midi":56,"time":88.56519524999999,"velocity":0.44881889763779526},{"duration":0.13043474999999205,"midi":49,"time":88.69563,"velocity":0.44881889763779526},{"duration":0.13043475000000626,"midi":56,"time":88.82606474999999,"velocity":0.44881889763779526},{"duration":0.13043475000000626,"midi":82,"time":88.95649949999999,"velocity":0.44881889763779526},{"duration":0.13043475000000626,"midi":82,"time":88.95649949999999,"velocity":0.44881889763779526},{"duration":0.13043475000000626,"midi":58,"time":88.95649949999999,"velocity":0.44881889763779526},{"duration":0.13043474999999205,"midi":56,"time":89.08693425,"velocity":0.44881889763779526},{"duration":0.13043474999999205,"midi":80,"time":89.08693425,"velocity":0.44881889763779526},{"duration":0.13043474999999205,"midi":80,"time":89.08693425,"velocity":0.44881889763779526},{"duration":0.2608694999999983,"midi":56,"time":89.21736899999999,"velocity":0.44881889763779526},{"duration":0.13043475000000626,"midi":49,"time":89.21736899999999,"velocity":0.44881889763779526},{"duration":0.5217389999999966,"midi":56,"time":89.21736899999999,"velocity":0.44881889763779526},{"duration":0.39130424999999036,"midi":56,"time":89.34780375,"velocity":0.44881889763779526},{"duration":0.13043474999999205,"midi":82,"time":89.34780375,"velocity":0.44881889763779526},{"duration":0.13043474999999205,"midi":82,"time":89.34780375,"velocity":0.44881889763779526},{"duration":0.13043475000000626,"midi":80,"time":89.47823849999999,"velocity":0.44881889763779526},{"duration":0.13043475000000626,"midi":80,"time":89.47823849999999,"velocity":0.44881889763779526},{"duration":0.13043475000000626,"midi":58,"time":89.47823849999999,"velocity":0.44881889763779526},{"duration":0.13043474999999205,"midi":56,"time":89.60867325,"velocity":0.44881889763779526},{"duration":0.13043475000000626,"midi":53,"time":89.73910799999999,"velocity":0.44881889763779526},{"duration":0.2608694999999983,"midi":80,"time":89.73910799999999,"velocity":0.44881889763779526},{"duration":0.2608694999999983,"midi":80,"time":89.73910799999999,"velocity":0.44881889763779526},{"duration":2.0869560000000007,"midi":55,"time":89.73910799999999,"velocity":0.44881889763779526},{"duration":2.0869560000000007,"midi":55,"time":89.73910799999999,"velocity":0.44881889763779526},{"duration":0.13043474999999205,"midi":60,"time":89.86954275,"velocity":0.44881889763779526},{"duration":0.2608695000000125,"midi":82,"time":89.99997749999999,"velocity":0.44881889763779526},{"duration":0.13043475000000626,"midi":61,"time":89.99997749999999,"velocity":0.44881889763779526},{"duration":0.2608695000000125,"midi":82,"time":89.99997749999999,"velocity":0.44881889763779526},{"duration":0.13043475000000626,"midi":60,"time":90.13041224999999,"velocity":0.44881889763779526},{"duration":0.13043474999999205,"midi":53,"time":90.260847,"velocity":0.44881889763779526},{"duration":0.13043474999999205,"midi":83,"time":90.260847,"velocity":0.44881889763779526},{"duration":0.13043474999999205,"midi":83,"time":90.260847,"velocity":0.44881889763779526},{"duration":0.2608694999999983,"midi":82,"time":90.39128174999999,"velocity":0.44881889763779526},{"duration":0.2608694999999983,"midi":82,"time":90.39128174999999,"velocity":0.44881889763779526},{"duration":0.13043475000000626,"midi":60,"time":90.39128174999999,"velocity":0.44881889763779526},{"duration":0.13043474999999205,"midi":61,"time":90.5217165,"velocity":0.44881889763779526},{"duration":0.13043475000000626,"midi":80,"time":90.65215124999999,"velocity":0.44881889763779526},{"duration":0.13043475000000626,"midi":80,"time":90.65215124999999,"velocity":0.44881889763779526},{"duration":0.13043475000000626,"midi":60,"time":90.65215124999999,"velocity":0.44881889763779526},{"duration":0.5217389999999966,"midi":77,"time":90.782586,"velocity":0.44881889763779526},{"duration":0.5217389999999966,"midi":77,"time":90.782586,"velocity":0.44881889763779526},{"duration":0.13043474999999205,"midi":53,"time":90.782586,"velocity":0.44881889763779526},{"duration":0.13043475000000626,"midi":60,"time":90.91302074999999,"velocity":0.44881889763779526},{"duration":0.13043474999999205,"midi":61,"time":91.0434555,"velocity":0.44881889763779526},{"duration":0.13043475000000626,"midi":60,"time":91.17389024999999,"velocity":0.44881889763779526},{"duration":0.13043475000000626,"midi":53,"time":91.30432499999999,"velocity":0.44881889763779526},{"duration":0.13043474999999205,"midi":60,"time":91.43475975,"velocity":0.44881889763779526},{"duration":0.13043475000000626,"midi":61,"time":91.56519449999999,"velocity":0.44881889763779526},{"duration":0.13043474999999205,"midi":60,"time":91.69562925,"velocity":0.44881889763779526},{"duration":1.565217000000004,"midi":53,"time":91.82606399999999,"velocity":0.44881889763779526},{"duration":0.13043475000000626,"midi":49,"time":91.82606399999999,"velocity":0.44881889763779526},{"duration":1.565217000000004,"midi":53,"time":91.82606399999999,"velocity":0.44881889763779526},{"duration":0.13043474999999205,"midi":56,"time":91.95649875,"velocity":0.44881889763779526},{"duration":0.13043475000000626,"midi":58,"time":92.08693349999999,"velocity":0.44881889763779526},{"duration":0.13043475000000626,"midi":82,"time":92.08693349999999,"velocity":0.44881889763779526},{"duration":0.13043475000000626,"midi":82,"time":92.08693349999999,"velocity":0.44881889763779526},{"duration":0.13043474999999205,"midi":56,"time":92.21736824999999,"velocity":0.44881889763779526},{"duration":0.13043474999999205,"midi":80,"time":92.21736824999999,"velocity":0.44881889763779526},{"duration":0.13043474999999205,"midi":80,"time":92.21736824999999,"velocity":0.44881889763779526},{"duration":0.13043475000000626,"midi":49,"time":92.34780299999998,"velocity":0.44881889763779526},{"duration":0.13043475000000626,"midi":56,"time":92.47823774999999,"velocity":0.44881889763779526},{"duration":0.13043475000000626,"midi":82,"time":92.47823774999999,"velocity":0.44881889763779526},{"duration":0.13043475000000626,"midi":82,"time":92.47823774999999,"velocity":0.44881889763779526},{"duration":0.13043474999999205,"midi":58,"time":92.6086725,"velocity":0.44881889763779526},{"duration":0.13043474999999205,"midi":80,"time":92.6086725,"velocity":0.44881889763779526},{"duration":0.13043474999999205,"midi":80,"time":92.6086725,"velocity":0.44881889763779526},{"duration":0.13043475000000626,"midi":56,"time":92.73910724999999,"velocity":0.44881889763779526},{"duration":0.13043474999999205,"midi":49,"time":92.869542,"velocity":0.44881889763779526},{"duration":0.13043475000000626,"midi":56,"time":92.99997674999999,"velocity":0.44881889763779526},{"duration":0.13043474999999205,"midi":82,"time":93.1304115,"velocity":0.44881889763779526},{"duration":0.13043474999999205,"midi":82,"time":93.1304115,"velocity":0.44881889763779526},{"duration":0.13043474999999205,"midi":58,"time":93.1304115,"velocity":0.44881889763779526},{"duration":0.13043475000000626,"midi":80,"time":93.26084624999999,"velocity":0.44881889763779526},{"duration":0.13043475000000626,"midi":56,"time":93.26084624999999,"velocity":0.44881889763779526},{"duration":0.13043475000000626,"midi":80,"time":93.26084624999999,"velocity":0.44881889763779526},{"duration":0.13043475000000626,"midi":49,"time":93.39128099999999,"velocity":0.44881889763779526},{"duration":0.13043475000000626,"midi":52,"time":93.39128099999999,"velocity":0.44881889763779526},{"duration":0.13043475000000626,"midi":52,"time":93.39128099999999,"velocity":0.44881889763779526},{"duration":0.13043474999999205,"midi":82,"time":93.52171575,"velocity":0.44881889763779526},{"duration":0.13043474999999205,"midi":56,"time":93.52171575,"velocity":0.44881889763779526},{"duration":0.13043474999999205,"midi":82,"time":93.52171575,"velocity":0.44881889763779526},{"duration":0.13043474999999205,"midi":51,"time":93.52171575,"velocity":0.44881889763779526},{"duration":0.13043474999999205,"midi":51,"time":93.52171575,"velocity":0.44881889763779526},{"duration":0.13043475000000626,"midi":50,"time":93.65215049999999,"velocity":0.44881889763779526},{"duration":0.13043475000000626,"midi":58,"time":93.65215049999999,"velocity":0.44881889763779526},{"duration":0.13043475000000626,"midi":80,"time":93.65215049999999,"velocity":0.44881889763779526},{"duration":0.13043475000000626,"midi":80,"time":93.65215049999999,"velocity":0.44881889763779526},{"duration":0.13043475000000626,"midi":50,"time":93.65215049999999,"velocity":0.44881889763779526},{"duration":0.13043474999999205,"midi":56,"time":93.78258525,"velocity":0.44881889763779526},{"duration":0.13043474999999205,"midi":49,"time":93.78258525,"velocity":0.44881889763779526},{"duration":0.13043474999999205,"midi":49,"time":93.78258525,"velocity":0.44881889763779526},{"duration":1.565217000000004,"midi":48,"time":93.91301999999999,"velocity":0.44881889763779526},{"duration":0.13043475000000626,"midi":80,"time":93.91301999999999,"velocity":0.44881889763779526},{"duration":0.13043475000000626,"midi":80,"time":93.91301999999999,"velocity":0.44881889763779526},{"duration":1.565217000000004,"midi":48,"time":93.91301999999999,"velocity":0.44881889763779526},{"duration":0.13043475000000626,"midi":53,"time":93.91301999999999,"velocity":0.44881889763779526},{"duration":0.05842389843749629,"midi":82,"time":94.04345475,"velocity":0.44881889763779526},{"duration":0.13043474999999205,"midi":60,"time":94.04345475,"velocity":0.44881889763779526},{"duration":0.05842389843749629,"midi":82,"time":94.04345475,"velocity":0.44881889763779526},{"duration":0.05842389843748208,"midi":80,"time":94.108672125,"velocity":0.44881889763779526},{"duration":0.05842389843748208,"midi":80,"time":94.108672125,"velocity":0.44881889763779526},{"duration":0.22826081250001096,"midi":77,"time":94.17388949999999,"velocity":0.44881889763779526},{"duration":0.22826081250001096,"midi":77,"time":94.17388949999999,"velocity":0.44881889763779526},{"duration":0.13043475000000626,"midi":61,"time":94.17388949999999,"velocity":0.44881889763779526},{"duration":0.13043474999999205,"midi":60,"time":94.30432425,"velocity":0.44881889763779526},{"duration":0.2608695000000125,"midi":77,"time":94.43475899999999,"velocity":0.44881889763779526},{"duration":0.13043475000000626,"midi":53,"time":94.43475899999999,"velocity":0.44881889763779526},{"duration":0.2608695000000125,"midi":77,"time":94.43475899999999,"velocity":0.44881889763779526},{"duration":0.13043475000000626,"midi":60,"time":94.56519374999999,"velocity":0.44881889763779526},{"duration":0.13043474999999205,"midi":61,"time":94.6956285,"velocity":0.44881889763779526},{"duration":0.13043474999999205,"midi":76,"time":94.6956285,"velocity":0.44881889763779526},{"duration":0.13043474999999205,"midi":76,"time":94.6956285,"velocity":0.44881889763779526},{"duration":0.13043475000000626,"midi":60,"time":94.82606324999999,"velocity":0.44881889763779526},{"duration":0.13043475000000626,"midi":77,"time":94.82606324999999,"velocity":0.44881889763779526},{"duration":0.13043475000000626,"midi":77,"time":94.82606324999999,"velocity":0.44881889763779526},{"duration":0.13043474999999205,"midi":53,"time":94.956498,"velocity":0.44881889763779526},{"duration":0.13043475000000626,"midi":60,"time":95.08693274999999,"velocity":0.44881889763779526},{"duration":0.13043474999999205,"midi":61,"time":95.2173675,"velocity":0.44881889763779526},{"duration":0.13043475000000626,"midi":60,"time":95.34780224999999,"velocity":0.44881889763779526},{"duration":0.13043474999999205,"midi":49,"time":95.478237,"velocity":0.44881889763779526},{"duration":0.13043474999999205,"midi":49,"time":95.478237,"velocity":0.44881889763779526},{"duration":0.13043474999999205,"midi":53,"time":95.478237,"velocity":0.44881889763779526},{"duration":0.13043475000000626,"midi":60,"time":95.60867174999998,"velocity":0.44881889763779526},{"duration":0.13043475000000626,"midi":50,"time":95.60867174999998,"velocity":0.44881889763779526},{"duration":0.13043475000000626,"midi":50,"time":95.60867174999998,"velocity":0.44881889763779526},{"duration":0.13043475000000626,"midi":61,"time":95.73910649999999,"velocity":0.44881889763779526},{"duration":0.13043475000000626,"midi":51,"time":95.73910649999999,"velocity":0.44881889763779526},{"duration":0.13043475000000626,"midi":51,"time":95.73910649999999,"velocity":0.44881889763779526},{"duration":0.13043474999999205,"midi":52,"time":95.86954125,"velocity":0.44881889763779526},{"duration":0.13043474999999205,"midi":60,"time":95.86954125,"velocity":0.44881889763779526},{"duration":0.13043474999999205,"midi":52,"time":95.86954125,"velocity":0.44881889763779526},{"duration":1.565217000000004,"midi":53,"time":95.99997599999999,"velocity":0.44881889763779526},{"duration":0.13043475000000626,"midi":49,"time":95.99997599999999,"velocity":0.44881889763779526},{"duration":1.565217000000004,"midi":53,"time":95.99997599999999,"velocity":0.44881889763779526},{"duration":0.13043474999999205,"midi":56,"time":96.13041075,"velocity":0.44881889763779526},{"duration":0.13043475000000626,"midi":82,"time":96.26084549999999,"velocity":0.44881889763779526},{"duration":0.13043475000000626,"midi":82,"time":96.26084549999999,"velocity":0.44881889763779526},{"duration":0.13043475000000626,"midi":58,"time":96.26084549999999,"velocity":0.44881889763779526},{"duration":0.13043474999999205,"midi":56,"time":96.39128025,"velocity":0.44881889763779526},{"duration":0.13043474999999205,"midi":80,"time":96.39128025,"velocity":0.44881889763779526},{"duration":0.13043474999999205,"midi":80,"time":96.39128025,"velocity":0.44881889763779526},{"duration":0.13043475000000626,"midi":49,"time":96.52171499999999,"velocity":0.44881889763779526},{"duration":0.13043474999999205,"midi":82,"time":96.65214974999999,"velocity":0.44881889763779526},{"duration":0.13043474999999205,"midi":82,"time":96.65214974999999,"velocity":0.44881889763779526},{"duration":0.13043474999999205,"midi":56,"time":96.65214974999999,"velocity":0.44881889763779526},{"duration":0.13043475000000626,"midi":80,"time":96.78258449999998,"velocity":0.44881889763779526},{"duration":0.13043475000000626,"midi":80,"time":96.78258449999998,"velocity":0.44881889763779526},{"duration":0.13043475000000626,"midi":58,"time":96.78258449999998,"velocity":0.44881889763779526},{"duration":0.13043475000000626,"midi":56,"time":96.91301924999999,"velocity":0.44881889763779526},{"duration":0.13043474999999205,"midi":49,"time":97.043454,"velocity":0.44881889763779526},{"duration":0.13043475000000626,"midi":56,"time":97.17388874999999,"velocity":0.44881889763779526},{"duration":0.13043474999999205,"midi":82,"time":97.3043235,"velocity":0.44881889763779526},{"duration":0.13043474999999205,"midi":58,"time":97.3043235,"velocity":0.44881889763779526},{"duration":0.13043474999999205,"midi":82,"time":97.3043235,"velocity":0.44881889763779526},{"duration":0.13043475000000626,"midi":56,"time":97.43475824999999,"velocity":0.44881889763779526},{"duration":0.13043475000000626,"midi":80,"time":97.43475824999999,"velocity":0.44881889763779526},{"duration":0.13043475000000626,"midi":80,"time":97.43475824999999,"velocity":0.44881889763779526},{"duration":0.13043474999999205,"midi":49,"time":97.565193,"velocity":0.44881889763779526},{"duration":0.2608694999999983,"midi":56,"time":97.565193,"velocity":0.44881889763779526},{"duration":0.5217389999999966,"midi":56,"time":97.565193,"velocity":0.44881889763779526},{"duration":0.39130425000000457,"midi":56,"time":97.69562774999999,"velocity":0.44881889763779526},{"duration":0.13043475000000626,"midi":82,"time":97.69562774999999,"velocity":0.44881889763779526},{"duration":0.13043475000000626,"midi":82,"time":97.69562774999999,"velocity":0.44881889763779526},{"duration":0.13043475000000626,"midi":58,"time":97.82606249999999,"velocity":0.44881889763779526},{"duration":0.13043475000000626,"midi":80,"time":97.82606249999999,"velocity":0.44881889763779526},{"duration":0.13043475000000626,"midi":80,"time":97.82606249999999,"velocity":0.44881889763779526},{"duration":0.13043474999999205,"midi":56,"time":97.95649725,"velocity":0.44881889763779526},{"duration":0.2608694999999983,"midi":72,"time":98.08693199999999,"velocity":0.44881889763779526},{"duration":0.2608694999999983,"midi":67,"time":98.08693199999999,"velocity":0.44881889763779526},{"duration":0.2608694999999983,"midi":72,"time":98.08693199999999,"velocity":0.44881889763779526},{"duration":0.2608694999999983,"midi":67,"time":98.08693199999999,"velocity":0.44881889763779526},{"duration":0.2608694999999983,"midi":72,"time":98.34780149999999,"velocity":0.44881889763779526},{"duration":0.2608694999999983,"midi":67,"time":98.34780149999999,"velocity":0.44881889763779526},{"duration":0.2608694999999983,"midi":72,"time":98.34780149999999,"velocity":0.44881889763779526},{"duration":0.2608694999999983,"midi":67,"time":98.34780149999999,"velocity":0.44881889763779526},{"duration":0.13043475000000626,"midi":76,"time":98.60867099999999,"velocity":0.44881889763779526},{"duration":0.13043475000000626,"midi":76,"time":98.60867099999999,"velocity":0.44881889763779526},{"duration":0.13043475000000626,"midi":72,"time":98.60867099999999,"velocity":0.44881889763779526},{"duration":0.13043475000000626,"midi":72,"time":98.60867099999999,"velocity":0.44881889763779526},{"duration":0.2608694999999983,"midi":72,"time":98.73910575,"velocity":0.44881889763779526},{"duration":0.2608694999999983,"midi":67,"time":98.73910575,"velocity":0.44881889763779526},{"duration":0.2608694999999983,"midi":67,"time":98.73910575,"velocity":0.44881889763779526},{"duration":0.2608694999999983,"midi":72,"time":98.73910575,"velocity":0.44881889763779526},{"duration":0.13043475000000626,"midi":70,"time":98.99997524999999,"velocity":0.44881889763779526},{"duration":0.13043475000000626,"midi":65,"time":98.99997524999999,"velocity":0.44881889763779526},{"duration":0.13043475000000626,"midi":70,"time":98.99997524999999,"velocity":0.44881889763779526},{"duration":0.13043475000000626,"midi":65,"time":98.99997524999999,"velocity":0.44881889763779526},{"duration":0.13043474999999205,"midi":72,"time":99.13041,"velocity":0.44881889763779526},{"duration":0.13043474999999205,"midi":67,"time":99.13041,"velocity":0.44881889763779526},{"duration":0.13043474999999205,"midi":67,"time":99.13041,"velocity":0.44881889763779526},{"duration":0.13043474999999205,"midi":72,"time":99.13041,"velocity":0.44881889763779526},{"duration":0.06521737500000313,"midi":72,"time":99.26084474999999,"velocity":0.44881889763779526},{"duration":0.06521737500000313,"midi":67,"time":99.32606212499999,"velocity":0.44881889763779526},{"duration":0.06521737499998892,"midi":72,"time":99.3912795,"velocity":0.44881889763779526},{"duration":0.06521737500000313,"midi":67,"time":99.45649687499998,"velocity":0.44881889763779526},{"duration":0.06521737500000313,"midi":72,"time":99.52171424999999,"velocity":0.44881889763779526},{"duration":0.06521737500000313,"midi":67,"time":99.58693162499999,"velocity":0.44881889763779526},{"duration":0.06521737500000313,"midi":72,"time":99.652149,"velocity":0.44881889763779526},{"duration":0.06521737499998892,"midi":67,"time":99.717366375,"velocity":0.44881889763779526},{"duration":0.06521737500000313,"midi":72,"time":99.78258374999999,"velocity":0.44881889763779526},{"duration":0.06521737500000313,"midi":67,"time":99.84780112499999,"velocity":0.44881889763779526}]},{"instrument":{"family":"chromatic percussion","number":11,"name":"vibraphone"},"notes":[{"duration":0.13043474999999916,"midi":77,"time":8.347824,"velocity":0.31496062992125984},{"duration":0.13043475000000093,"midi":84,"time":8.478258749999998,"velocity":0.31496062992125984},{"duration":0.13043474999999916,"midi":82,"time":8.6086935,"velocity":0.31496062992125984},{"duration":0.13043475000000093,"midi":84,"time":8.739128249999998,"velocity":0.31496062992125984},{"duration":0.13043474999999916,"midi":77,"time":8.869563,"velocity":0.31496062992125984},{"duration":0.13043475000000093,"midi":84,"time":8.999997749999999,"velocity":0.31496062992125984},{"duration":0.13043474999999916,"midi":82,"time":9.1304325,"velocity":0.31496062992125984},{"duration":0.13043475000000093,"midi":84,"time":9.260867249999999,"velocity":0.31496062992125984},{"duration":0.13043474999999916,"midi":73,"time":9.391302,"velocity":0.31496062992125984},{"duration":0.13043475000000093,"midi":82,"time":9.521736749999999,"velocity":0.31496062992125984},{"duration":0.13043474999999916,"midi":84,"time":9.6521715,"velocity":0.31496062992125984},{"duration":0.13043475000000093,"midi":82,"time":9.782606249999999,"velocity":0.31496062992125984},{"duration":0.13043474999999916,"midi":72,"time":9.913041,"velocity":0.31496062992125984},{"duration":0.13043475000000093,"midi":84,"time":10.043475749999999,"velocity":0.31496062992125984},{"duration":0.13043474999999916,"midi":79,"time":10.1739105,"velocity":0.31496062992125984},{"duration":0.13043475000000093,"midi":82,"time":10.304345249999999,"velocity":0.31496062992125984},{"duration":0.13043474999999916,"midi":77,"time":10.43478,"velocity":0.31496062992125984},{"duration":0.13043474999999916,"midi":84,"time":10.565214749999999,"velocity":0.31496062992125984},{"duration":0.13043475000000093,"midi":82,"time":10.695649499999998,"velocity":0.31496062992125984},{"duration":0.13043474999999916,"midi":84,"time":10.82608425,"velocity":0.31496062992125984},{"duration":0.13043475000000093,"midi":79,"time":10.956518999999998,"velocity":0.31496062992125984},{"duration":0.13043474999999916,"midi":84,"time":11.08695375,"velocity":0.31496062992125984},{"duration":0.13043475000000093,"midi":82,"time":11.217388499999998,"velocity":0.31496062992125984},{"duration":0.13043474999999916,"midi":84,"time":11.34782325,"velocity":0.31496062992125984},{"duration":0.13043475000000093,"midi":80,"time":11.478257999999999,"velocity":0.31496062992125984},{"duration":0.13043474999999916,"midi":84,"time":11.60869275,"velocity":0.31496062992125984},{"duration":0.13043475000000093,"midi":82,"time":11.739127499999999,"velocity":0.31496062992125984},{"duration":0.13043474999999916,"midi":84,"time":11.86956225,"velocity":0.31496062992125984},{"duration":0.13043475000000093,"midi":82,"time":11.999996999999999,"velocity":0.31496062992125984},{"duration":0.13043474999999916,"midi":85,"time":12.13043175,"velocity":0.31496062992125984},{"duration":0.13043475000000093,"midi":84,"time":12.260866499999999,"velocity":0.31496062992125984},{"duration":0.13043474999999916,"midi":82,"time":12.39130125,"velocity":0.31496062992125984},{"duration":0.13043474999999916,"midi":73,"time":12.521735999999999,"velocity":0.31496062992125984},{"duration":0.13043475000000093,"midi":80,"time":12.652170749999998,"velocity":0.31496062992125984},{"duration":0.13043474999999916,"midi":79,"time":12.782605499999999,"velocity":0.31496062992125984},{"duration":0.13043475000000093,"midi":80,"time":12.913040249999998,"velocity":0.31496062992125984},{"duration":0.13043474999999916,"midi":73,"time":13.043474999999999,"velocity":0.31496062992125984},{"duration":0.13043475000000093,"midi":82,"time":13.173909749999998,"velocity":0.31496062992125984},{"duration":0.13043474999999916,"midi":80,"time":13.3043445,"velocity":0.31496062992125984},{"duration":0.13043475000000093,"midi":82,"time":13.434779249999998,"velocity":0.31496062992125984},{"duration":0.13043474999999916,"midi":73,"time":13.565214,"velocity":0.31496062992125984},{"duration":0.13043475000000093,"midi":84,"time":13.695648749999998,"velocity":0.31496062992125984},{"duration":0.13043474999999916,"midi":82,"time":13.8260835,"velocity":0.31496062992125984},{"duration":0.13043475000000093,"midi":84,"time":13.956518249999998,"velocity":0.31496062992125984},{"duration":0.13043474999999916,"midi":73,"time":14.086953,"velocity":0.31496062992125984},{"duration":0.13043475000000093,"midi":85,"time":14.217387749999999,"velocity":0.31496062992125984},{"duration":0.13043474999999916,"midi":84,"time":14.3478225,"velocity":0.31496062992125984},{"duration":0.13043474999999916,"midi":87,"time":14.478257249999999,"velocity":0.31496062992125984},{"duration":0.2608695000000001,"midi":72,"time":14.608691999999998,"velocity":0.31496062992125984},{"duration":0.2608695000000001,"midi":68,"time":14.608691999999998,"velocity":0.31496062992125984},{"duration":0.13043475000000093,"midi":63,"time":14.869561499999998,"velocity":0.31496062992125984},{"duration":0.13043475000000093,"midi":70,"time":14.869561499999998,"velocity":0.31496062992125984},{"duration":0.13043474999999916,"midi":61,"time":14.999996249999999,"velocity":0.31496062992125984},{"duration":0.13043474999999916,"midi":68,"time":14.999996249999999,"velocity":0.31496062992125984},{"duration":0.2608695000000001,"midi":77,"time":15.130430999999998,"velocity":0.31496062992125984},{"duration":0.2608695000000001,"midi":72,"time":15.130430999999998,"velocity":0.31496062992125984},{"duration":0.2608695000000001,"midi":72,"time":15.391300499999998,"velocity":0.31496062992125984},{"duration":0.2608695000000001,"midi":65,"time":15.391300499999998,"velocity":0.31496062992125984},{"duration":0.2608695000000001,"midi":76,"time":15.652169999999998,"velocity":0.31496062992125984},{"duration":0.2608695000000001,"midi":70,"time":15.652169999999998,"velocity":0.31496062992125984},{"duration":0.2608695000000001,"midi":68,"time":15.913039499999998,"velocity":0.31496062992125984},{"duration":0.2608695000000001,"midi":73,"time":15.913039499999998,"velocity":0.31496062992125984},{"duration":0.5217390000000002,"midi":72,"time":16.173909,"velocity":0.31496062992125984},{"duration":0.5217390000000002,"midi":67,"time":16.173909,"velocity":0.31496062992125984},{"duration":0.2608694999999983,"midi":77,"time":16.695648,"velocity":0.31496062992125984},{"duration":0.2608694999999983,"midi":72,"time":16.695648,"velocity":0.31496062992125984},{"duration":0.26086950000000186,"midi":68,"time":16.956517499999997,"velocity":0.31496062992125984},{"duration":0.26086950000000186,"midi":72,"time":16.956517499999997,"velocity":0.31496062992125984},{"duration":0.2608694999999983,"midi":68,"time":17.217387,"velocity":0.31496062992125984},{"duration":0.2608694999999983,"midi":65,"time":17.217387,"velocity":0.31496062992125984},{"duration":0.26086950000000186,"midi":60,"time":17.478256499999997,"velocity":0.31496062992125984},{"duration":0.26086950000000186,"midi":65,"time":17.478256499999997,"velocity":0.31496062992125984},{"duration":0.13043474999999916,"midi":68,"time":17.869560749999998,"velocity":0.31496062992125984},{"duration":0.13043474999999916,"midi":72,"time":17.869560749999998,"velocity":0.31496062992125984},{"duration":0.26086950000000186,"midi":65,"time":17.999995499999997,"velocity":0.31496062992125984},{"duration":0.26086950000000186,"midi":70,"time":17.999995499999997,"velocity":0.31496062992125984},{"duration":0.13043474999999916,"midi":70,"time":18.260865,"velocity":0.31496062992125984},{"duration":0.13043474999999916,"midi":67,"time":18.260865,"velocity":0.31496062992125984},{"duration":0.13043474999999916,"midi":68,"time":18.391299749999998,"velocity":0.31496062992125984},{"duration":0.13043474999999916,"midi":63,"time":18.391299749999998,"velocity":0.31496062992125984},{"duration":0.1304347500000027,"midi":58,"time":18.521734499999997,"velocity":0.31496062992125984},{"duration":0.1304347500000027,"midi":63,"time":18.521734499999997,"velocity":0.31496062992125984},{"duration":0.13043474999999916,"midi":61,"time":18.65216925,"velocity":0.31496062992125984},{"duration":0.13043474999999916,"midi":65,"time":18.65216925,"velocity":0.31496062992125984},{"duration":0.13043474999999916,"midi":68,"time":18.91303875,"velocity":0.31496062992125984},{"duration":0.13043474999999916,"midi":72,"time":18.91303875,"velocity":0.31496062992125984},{"duration":0.13043474999999916,"midi":70,"time":19.043473499999998,"velocity":0.31496062992125984},{"duration":0.13043474999999916,"midi":65,"time":19.043473499999998,"velocity":0.31496062992125984},{"duration":0.1304347500000027,"midi":63,"time":19.173908249999997,"velocity":0.31496062992125984},{"duration":0.1304347500000027,"midi":68,"time":19.173908249999997,"velocity":0.31496062992125984},{"duration":0.13043474999999916,"midi":67,"time":19.304343,"velocity":0.31496062992125984},{"duration":0.13043474999999916,"midi":70,"time":19.304343,"velocity":0.31496062992125984},{"duration":0.13043474999999916,"midi":72,"time":19.43477775,"velocity":0.31496062992125984},{"duration":0.13043474999999916,"midi":68,"time":19.43477775,"velocity":0.31496062992125984},{"duration":0.13043474999999916,"midi":55,"time":19.565212499999998,"velocity":0.31496062992125984},{"duration":0.13043474999999916,"midi":63,"time":19.565212499999998,"velocity":0.31496062992125984},{"duration":0.1304347500000027,"midi":65,"time":19.695647249999997,"velocity":0.31496062992125984},{"duration":0.1304347500000027,"midi":56,"time":19.695647249999997,"velocity":0.31496062992125984},{"duration":0.13043474999999916,"midi":68,"time":19.826082,"velocity":0.31496062992125984},{"duration":0.13043474999999916,"midi":60,"time":19.826082,"velocity":0.31496062992125984},{"duration":0.13043474999999916,"midi":56,"time":19.95651675,"velocity":0.31496062992125984},{"duration":0.13043474999999916,"midi":65,"time":19.95651675,"velocity":0.31496062992125984},{"duration":0.13043474999999916,"midi":63,"time":20.086951499999998,"velocity":0.31496062992125984},{"duration":0.13043474999999916,"midi":55,"time":20.086951499999998,"velocity":0.31496062992125984},{"duration":0.26086950000000186,"midi":68,"time":20.217386249999997,"velocity":0.31496062992125984},{"duration":0.26086950000000186,"midi":77,"time":20.217386249999997,"velocity":0.31496062992125984},{"duration":0.13043474999999916,"midi":75,"time":20.47825575,"velocity":0.31496062992125984},{"duration":0.06521737499999958,"midi":72,"time":20.608690499999998,"velocity":0.31496062992125984},{"duration":0.13043474999999916,"midi":70,"time":20.673907874999998,"velocity":0.31496062992125984},{"duration":0.1304347500000027,"midi":68,"time":20.739125249999997,"velocity":0.31496062992125984},{"duration":0.5217389999999966,"midi":65,"time":20.86956,"velocity":0.31496062992125984},{"duration":0.13043474999999916,"midi":58,"time":21.130429499999998,"velocity":0.31496062992125984},{"duration":0.5217390000000002,"midi":67,"time":21.391298999999997,"velocity":0.31496062992125984},{"duration":0.13043474999999916,"midi":58,"time":21.6521685,"velocity":0.31496062992125984},{"duration":0.5217390000000002,"midi":68,"time":21.913037999999997,"velocity":0.31496062992125984},{"duration":0.13043474999999916,"midi":58,"time":22.1739075,"velocity":0.31496062992125984},{"duration":0.5217390000000002,"midi":70,"time":22.434776999999997,"velocity":0.31496062992125984},{"duration":0.13043474999999916,"midi":56,"time":22.6956465,"velocity":0.31496062992125984},{"duration":0.26086950000000186,"midi":72,"time":22.956515999999997,"velocity":0.31496062992125984},{"duration":0.26086950000000186,"midi":68,"time":22.956515999999997,"velocity":0.31496062992125984},{"duration":0.2608694999999983,"midi":61,"time":23.2173855,"velocity":0.31496062992125984},{"duration":0.2608694999999983,"midi":70,"time":23.2173855,"velocity":0.31496062992125984},{"duration":0.26086950000000186,"midi":77,"time":23.478254999999997,"velocity":0.31496062992125984},{"duration":0.26086950000000186,"midi":72,"time":23.478254999999997,"velocity":0.31496062992125984},{"duration":0.2608694999999983,"midi":65,"time":23.7391245,"velocity":0.31496062992125984},{"duration":0.2608694999999983,"midi":72,"time":23.7391245,"velocity":0.31496062992125984},{"duration":0.26086950000000186,"midi":76,"time":23.999993999999997,"velocity":0.31496062992125984},{"duration":0.26086950000000186,"midi":70,"time":23.999993999999997,"velocity":0.31496062992125984},{"duration":0.2608694999999983,"midi":68,"time":24.2608635,"velocity":0.31496062992125984},{"duration":0.2608694999999983,"midi":72,"time":24.2608635,"velocity":0.31496062992125984},{"duration":0.5217390000000002,"midi":67,"time":24.521732999999998,"velocity":0.31496062992125984},{"duration":0.5217390000000002,"midi":70,"time":24.521732999999998,"velocity":0.31496062992125984},{"duration":0.13043474999999916,"midi":77,"time":25.043471999999998,"velocity":0.31496062992125984},{"duration":0.13043474999999916,"midi":84,"time":25.173906749999997,"velocity":0.31496062992125984},{"duration":0.1304347500000027,"midi":82,"time":25.304341499999996,"velocity":0.31496062992125984},{"duration":0.13043474999999916,"midi":84,"time":25.43477625,"velocity":0.31496062992125984},{"duration":0.13043474999999916,"midi":77,"time":25.565210999999998,"velocity":0.31496062992125984},{"duration":0.13043474999999916,"midi":84,"time":25.695645749999997,"velocity":0.31496062992125984},{"duration":0.1304347500000027,"midi":82,"time":25.826080499999996,"velocity":0.31496062992125984},{"duration":0.13043474999999916,"midi":84,"time":25.95651525,"velocity":0.31496062992125984},{"duration":0.13043474999999916,"midi":73,"time":26.086949999999998,"velocity":0.31496062992125984},{"duration":0.13043474999999916,"midi":82,"time":26.217384749999997,"velocity":0.31496062992125984},{"duration":0.1304347500000027,"midi":84,"time":26.347819499999996,"velocity":0.31496062992125984},{"duration":0.13043474999999916,"midi":82,"time":26.47825425,"velocity":0.31496062992125984},{"duration":0.13043474999999916,"midi":72,"time":26.608689,"velocity":0.31496062992125984},{"duration":0.13043474999999916,"midi":84,"time":26.739123749999997,"velocity":0.31496062992125984},{"duration":0.1304347500000027,"midi":79,"time":26.869558499999997,"velocity":0.31496062992125984},{"duration":0.13043474999999916,"midi":82,"time":26.99999325,"velocity":0.31496062992125984},{"duration":0.13043474999999916,"midi":77,"time":27.130428,"velocity":0.31496062992125984},{"duration":0.13043474999999916,"midi":84,"time":27.260862749999998,"velocity":0.31496062992125984},{"duration":0.13043474999999916,"midi":82,"time":27.391297499999997,"velocity":0.31496062992125984},{"duration":0.1304347500000027,"midi":84,"time":27.521732249999996,"velocity":0.31496062992125984},{"duration":0.13043474999999916,"midi":79,"time":27.652167,"velocity":0.31496062992125984},{"duration":0.13043474999999916,"midi":84,"time":27.782601749999998,"velocity":0.31496062992125984},{"duration":0.13043474999999916,"midi":82,"time":27.913036499999997,"velocity":0.31496062992125984},{"duration":0.1304347500000027,"midi":84,"time":28.043471249999996,"velocity":0.31496062992125984},{"duration":0.13043474999999916,"midi":80,"time":28.173906,"velocity":0.31496062992125984},{"duration":0.13043474999999916,"midi":84,"time":28.304340749999998,"velocity":0.31496062992125984},{"duration":0.13043474999999916,"midi":82,"time":28.434775499999997,"velocity":0.31496062992125984},{"duration":0.1304347500000027,"midi":84,"time":28.565210249999996,"velocity":0.31496062992125984},{"duration":0.13043474999999916,"midi":82,"time":28.695645,"velocity":0.31496062992125984},{"duration":0.13043474999999916,"midi":85,"time":28.826079749999998,"velocity":0.31496062992125984},{"duration":0.13043474999999916,"midi":84,"time":28.956514499999997,"velocity":0.31496062992125984},{"duration":0.13043474999999916,"midi":82,"time":29.086949249999996,"velocity":0.31496062992125984},{"duration":0.1304347500000027,"midi":73,"time":29.217383999999996,"velocity":0.31496062992125984},{"duration":0.13043474999999916,"midi":80,"time":29.34781875,"velocity":0.31496062992125984},{"duration":0.13043474999999916,"midi":79,"time":29.478253499999997,"velocity":0.31496062992125984},{"duration":0.13043474999999916,"midi":80,"time":29.608688249999997,"velocity":0.31496062992125984},{"duration":0.1304347500000027,"midi":73,"time":29.739122999999996,"velocity":0.31496062992125984},{"duration":0.13043474999999916,"midi":82,"time":29.86955775,"velocity":0.31496062992125984},{"duration":0.13043474999999916,"midi":80,"time":29.999992499999998,"velocity":0.31496062992125984},{"duration":0.13043474999999916,"midi":82,"time":30.130427249999997,"velocity":0.31496062992125984},{"duration":0.1304347500000027,"midi":73,"time":30.260861999999996,"velocity":0.31496062992125984},{"duration":0.13043474999999916,"midi":84,"time":30.39129675,"velocity":0.31496062992125984},{"duration":0.13043474999999916,"midi":82,"time":30.521731499999998,"velocity":0.31496062992125984},{"duration":0.13043474999999916,"midi":84,"time":30.652166249999997,"velocity":0.31496062992125984},{"duration":0.1304347500000027,"midi":73,"time":30.782600999999996,"velocity":0.31496062992125984},{"duration":0.13043474999999916,"midi":85,"time":30.91303575,"velocity":0.31496062992125984},{"duration":0.13043474999999916,"midi":84,"time":31.043470499999998,"velocity":0.31496062992125984},{"duration":0.13043474999999916,"midi":87,"time":31.173905249999997,"velocity":0.31496062992125984},{"duration":0.26086950000000186,"midi":68,"time":31.304339999999996,"velocity":0.31496062992125984},{"duration":0.26086950000000186,"midi":72,"time":31.304339999999996,"velocity":0.31496062992125984},{"duration":0.13043474999999916,"midi":63,"time":31.565209499999998,"velocity":0.31496062992125984},{"duration":0.13043474999999916,"midi":70,"time":31.565209499999998,"velocity":0.31496062992125984},{"duration":0.13043474999999916,"midi":68,"time":31.695644249999997,"velocity":0.31496062992125984},{"duration":0.13043474999999916,"midi":61,"time":31.695644249999997,"velocity":0.31496062992125984},{"duration":0.26086950000000186,"midi":77,"time":31.826078999999996,"velocity":0.31496062992125984},{"duration":0.26086950000000186,"midi":72,"time":31.826078999999996,"velocity":0.31496062992125984},{"duration":0.2608694999999983,"midi":72,"time":32.0869485,"velocity":0.31496062992125984},{"duration":0.2608694999999983,"midi":65,"time":32.0869485,"velocity":0.31496062992125984},{"duration":0.2608694999999983,"midi":60,"time":32.0869485,"velocity":0.31496062992125984},{"duration":0.2608694999999983,"midi":76,"time":32.347818,"velocity":0.31496062992125984},{"duration":0.2608694999999983,"midi":70,"time":32.347818,"velocity":0.31496062992125984},{"duration":0.2608695000000054,"midi":68,"time":32.608687499999995,"velocity":0.31496062992125984},{"duration":0.2608695000000054,"midi":73,"time":32.608687499999995,"velocity":0.31496062992125984},{"duration":0.39130424999999747,"midi":72,"time":32.869557,"velocity":0.31496062992125984},{"duration":0.5217389999999966,"midi":67,"time":32.869557,"velocity":0.31496062992125984},{"duration":0.13043474999999916,"midi":73,"time":32.99999175,"velocity":0.31496062992125984},{"duration":0.13043474999999916,"midi":85,"time":32.99999175,"velocity":0.31496062992125984},{"duration":0.2608694999999983,"midi":72,"time":33.1304265,"velocity":0.31496062992125984},{"duration":0.13043474999999916,"midi":84,"time":33.1304265,"velocity":0.31496062992125984},{"duration":0.13043474999999916,"midi":85,"time":33.26086125,"velocity":0.31496062992125984},{"duration":0.13043474999999916,"midi":73,"time":33.26086125,"velocity":0.31496062992125984},{"duration":0.2608694999999983,"midi":72,"time":33.391296,"velocity":0.31496062992125984},{"duration":0.2608694999999983,"midi":84,"time":33.391296,"velocity":0.31496062992125984},{"duration":0.2608694999999983,"midi":80,"time":33.652165499999995,"velocity":0.31496062992125984},{"duration":0.2608694999999983,"midi":68,"time":33.652165499999995,"velocity":0.31496062992125984},{"duration":0.2608695000000054,"midi":77,"time":33.913034999999994,"velocity":0.31496062992125984},{"duration":0.2608695000000054,"midi":65,"time":33.913034999999994,"velocity":0.31496062992125984},{"duration":0.2608694999999983,"midi":60,"time":34.1739045,"velocity":0.31496062992125984},{"duration":0.2608694999999983,"midi":72,"time":34.1739045,"velocity":0.31496062992125984},{"duration":0.2608694999999983,"midi":68,"time":34.434774,"velocity":0.31496062992125984},{"duration":0.2608694999999983,"midi":80,"time":34.434774,"velocity":0.31496062992125984},{"duration":0.13043474999999916,"midi":65,"time":34.695643499999996,"velocity":0.31496062992125984},{"duration":0.13043474999999916,"midi":77,"time":34.695643499999996,"velocity":0.31496062992125984},{"duration":0.6521737500000029,"midi":79,"time":34.826078249999995,"velocity":0.31496062992125984},{"duration":0.6521737500000029,"midi":67,"time":34.826078249999995,"velocity":0.31496062992125984},{"duration":0.2608694999999983,"midi":80,"time":35.478252,"velocity":0.31496062992125984},{"duration":0.2608694999999983,"midi":68,"time":35.478252,"velocity":0.31496062992125984},{"duration":0.13043474999999916,"midi":77,"time":35.739121499999996,"velocity":0.31496062992125984},{"duration":0.13043474999999916,"midi":65,"time":35.739121499999996,"velocity":0.31496062992125984},{"duration":0.6521737500000029,"midi":79,"time":35.869556249999995,"velocity":0.31496062992125984},{"duration":0.6521737500000029,"midi":67,"time":35.869556249999995,"velocity":0.31496062992125984},{"duration":0.2608694999999983,"midi":80,"time":36.52173,"velocity":0.31496062992125984},{"duration":0.2608694999999983,"midi":68,"time":36.52173,"velocity":0.31496062992125984},{"duration":0.13043474999999916,"midi":77,"time":36.782599499999996,"velocity":0.31496062992125984},{"duration":0.13043474999999916,"midi":65,"time":36.782599499999996,"velocity":0.31496062992125984},{"duration":0.2608694999999983,"midi":79,"time":36.913034249999995,"velocity":0.31496062992125984},{"duration":0.2608694999999983,"midi":67,"time":36.913034249999995,"velocity":0.31496062992125984},{"duration":0.13043475000000626,"midi":85,"time":37.173903749999994,"velocity":0.31496062992125984},{"duration":0.13043475000000626,"midi":73,"time":37.173903749999994,"velocity":0.31496062992125984},{"duration":0.13043474999999916,"midi":84,"time":37.3043385,"velocity":0.31496062992125984},{"duration":0.13043474999999916,"midi":72,"time":37.3043385,"velocity":0.31496062992125984},{"duration":0.13043474999999916,"midi":73,"time":37.43477325,"velocity":0.31496062992125984},{"duration":0.13043474999999916,"midi":85,"time":37.43477325,"velocity":0.31496062992125984},{"duration":0.2608694999999983,"midi":72,"time":37.565208,"velocity":0.31496062992125984},{"duration":0.2608694999999983,"midi":84,"time":37.565208,"velocity":0.31496062992125984},{"duration":0.2608694999999983,"midi":68,"time":37.8260775,"velocity":0.31496062992125984},{"duration":0.2608694999999983,"midi":80,"time":37.8260775,"velocity":0.31496062992125984},{"duration":0.2608694999999983,"midi":77,"time":38.086946999999995,"velocity":0.31496062992125984},{"duration":0.2608694999999983,"midi":65,"time":38.086946999999995,"velocity":0.31496062992125984},{"duration":0.2608695000000054,"midi":72,"time":38.34781649999999,"velocity":0.31496062992125984},{"duration":0.2608695000000054,"midi":60,"time":38.34781649999999,"velocity":0.31496062992125984},{"duration":0.2608694999999983,"midi":68,"time":38.608686,"velocity":0.31496062992125984},{"duration":0.2608694999999983,"midi":80,"time":38.608686,"velocity":0.31496062992125984},{"duration":0.13043474999999916,"midi":82,"time":38.8695555,"velocity":0.31496062992125984},{"duration":0.13043474999999916,"midi":70,"time":38.8695555,"velocity":0.31496062992125984},{"duration":0.6521737500000029,"midi":79,"time":38.999990249999996,"velocity":0.31496062992125984},{"duration":0.6521737500000029,"midi":67,"time":38.999990249999996,"velocity":0.31496062992125984},{"duration":0.2608694999999983,"midi":68,"time":39.652164,"velocity":0.31496062992125984},{"duration":0.2608694999999983,"midi":80,"time":39.652164,"velocity":0.31496062992125984},{"duration":0.13043474999999916,"midi":70,"time":39.9130335,"velocity":0.31496062992125984},{"duration":0.13043474999999916,"midi":82,"time":39.9130335,"velocity":0.31496062992125984},{"duration":0.6521737500000029,"midi":79,"time":40.04346825,"velocity":0.31496062992125984},{"duration":0.6521737500000029,"midi":67,"time":40.04346825,"velocity":0.31496062992125984},{"duration":0.2608694999999983,"midi":80,"time":40.695642,"velocity":0.31496062992125984},{"duration":0.2608694999999983,"midi":68,"time":40.695642,"velocity":0.31496062992125984},{"duration":0.13043474999999916,"midi":70,"time":40.9565115,"velocity":0.31496062992125984},{"duration":0.13043474999999916,"midi":82,"time":40.9565115,"velocity":0.31496062992125984},{"duration":0.2608694999999983,"midi":84,"time":41.08694625,"velocity":0.31496062992125984},{"duration":0.2608694999999983,"midi":72,"time":41.08694625,"velocity":0.31496062992125984},{"duration":0.13043474999999916,"midi":73,"time":41.347815749999995,"velocity":0.31496062992125984},{"duration":0.13043474999999916,"midi":85,"time":41.347815749999995,"velocity":0.31496062992125984},{"duration":0.13043474999999916,"midi":84,"time":41.478250499999994,"velocity":0.31496062992125984},{"duration":0.13043474999999916,"midi":72,"time":41.478250499999994,"velocity":0.31496062992125984},{"duration":0.13043475000000626,"midi":85,"time":41.60868524999999,"velocity":0.31496062992125984},{"duration":0.13043475000000626,"midi":73,"time":41.60868524999999,"velocity":0.31496062992125984},{"duration":0.2608694999999983,"midi":80,"time":41.73912,"velocity":0.31496062992125984},{"duration":0.2608694999999983,"midi":72,"time":41.73912,"velocity":0.31496062992125984},{"duration":0.2608694999999983,"midi":84,"time":41.73912,"velocity":0.31496062992125984},{"duration":0.2608694999999983,"midi":80,"time":41.9999895,"velocity":0.31496062992125984},{"duration":0.2608694999999983,"midi":77,"time":41.9999895,"velocity":0.31496062992125984},{"duration":0.2608694999999983,"midi":68,"time":41.9999895,"velocity":0.31496062992125984},{"duration":0.2608694999999983,"midi":77,"time":42.260858999999996,"velocity":0.31496062992125984},{"duration":0.2608694999999983,"midi":65,"time":42.260858999999996,"velocity":0.31496062992125984},{"duration":0.2608694999999983,"midi":72,"time":42.260858999999996,"velocity":0.31496062992125984},{"duration":0.2608694999999983,"midi":68,"time":42.521728499999995,"velocity":0.31496062992125984},{"duration":0.2608694999999983,"midi":72,"time":42.521728499999995,"velocity":0.31496062992125984},{"duration":0.2608694999999983,"midi":60,"time":42.521728499999995,"velocity":0.31496062992125984},{"duration":0.2608695000000054,"midi":80,"time":42.78259799999999,"velocity":0.31496062992125984},{"duration":0.2608695000000054,"midi":68,"time":42.78259799999999,"velocity":0.31496062992125984},{"duration":0.2608695000000054,"midi":77,"time":42.78259799999999,"velocity":0.31496062992125984},{"duration":0.13043474999999916,"midi":72,"time":43.0434675,"velocity":0.31496062992125984},{"duration":0.13043474999999916,"midi":65,"time":43.0434675,"velocity":0.31496062992125984},{"duration":0.13043474999999916,"midi":77,"time":43.0434675,"velocity":0.31496062992125984},{"duration":0.6521737499999958,"midi":73,"time":43.17390225,"velocity":0.31496062992125984},{"duration":0.6521737499999958,"midi":79,"time":43.17390225,"velocity":0.31496062992125984},{"duration":0.6521737499999958,"midi":67,"time":43.17390225,"velocity":0.31496062992125984},{"duration":0.2608695000000054,"midi":77,"time":43.82607599999999,"velocity":0.31496062992125984},{"duration":0.2608695000000054,"midi":80,"time":43.82607599999999,"velocity":0.31496062992125984},{"duration":0.2608695000000054,"midi":68,"time":43.82607599999999,"velocity":0.31496062992125984},{"duration":0.13043474999999916,"midi":72,"time":44.0869455,"velocity":0.31496062992125984},{"duration":0.13043474999999916,"midi":77,"time":44.0869455,"velocity":0.31496062992125984},{"duration":0.13043474999999916,"midi":65,"time":44.0869455,"velocity":0.31496062992125984},{"duration":0.6521737499999958,"midi":73,"time":44.21738025,"velocity":0.31496062992125984},{"duration":0.6521737499999958,"midi":79,"time":44.21738025,"velocity":0.31496062992125984},{"duration":0.6521737499999958,"midi":67,"time":44.21738025,"velocity":0.31496062992125984},{"duration":0.2608695000000054,"midi":68,"time":44.869553999999994,"velocity":0.31496062992125984},{"duration":0.2608695000000054,"midi":77,"time":44.869553999999994,"velocity":0.31496062992125984},{"duration":0.2608695000000054,"midi":80,"time":44.869553999999994,"velocity":0.31496062992125984},{"duration":0.13043474999999916,"midi":77,"time":45.1304235,"velocity":0.31496062992125984},{"duration":0.13043474999999916,"midi":65,"time":45.1304235,"velocity":0.31496062992125984},{"duration":0.13043474999999916,"midi":72,"time":45.1304235,"velocity":0.31496062992125984},{"duration":0.2608694999999983,"midi":73,"time":45.26085825,"velocity":0.31496062992125984},{"duration":0.2608694999999983,"midi":67,"time":45.26085825,"velocity":0.31496062992125984},{"duration":0.2608694999999983,"midi":79,"time":45.26085825,"velocity":0.31496062992125984},{"duration":0.13043474999999916,"midi":73,"time":45.52172775,"velocity":0.31496062992125984},{"duration":0.13043474999999916,"midi":85,"time":45.52172775,"velocity":0.31496062992125984},{"duration":0.13043474999999916,"midi":72,"time":45.652162499999996,"velocity":0.31496062992125984},{"duration":0.13043474999999916,"midi":84,"time":45.652162499999996,"velocity":0.31496062992125984},{"duration":0.13043474999999916,"midi":85,"time":45.782597249999995,"velocity":0.31496062992125984},{"duration":0.13043474999999916,"midi":73,"time":45.782597249999995,"velocity":0.31496062992125984},{"duration":0.2608694999999983,"midi":84,"time":45.913031999999994,"velocity":0.31496062992125984},{"duration":0.2608694999999983,"midi":72,"time":45.913031999999994,"velocity":0.31496062992125984},{"duration":0.2608695000000054,"midi":89,"time":46.17390149999999,"velocity":0.31496062992125984},{"duration":0.2608695000000054,"midi":77,"time":46.17390149999999,"velocity":0.31496062992125984},{"duration":0.2608694999999983,"midi":70,"time":46.434771,"velocity":0.31496062992125984},{"duration":0.2608694999999983,"midi":82,"time":46.434771,"velocity":0.31496062992125984},{"duration":0.2608694999999983,"midi":80,"time":46.695640499999996,"velocity":0.31496062992125984},{"duration":0.2608694999999983,"midi":68,"time":46.695640499999996,"velocity":0.31496062992125984},{"duration":0.13043474999999916,"midi":70,"time":46.956509999999994,"velocity":0.31496062992125984},{"duration":0.13043474999999916,"midi":82,"time":46.956509999999994,"velocity":0.31496062992125984},{"duration":0.2608695000000054,"midi":80,"time":47.086944749999994,"velocity":0.31496062992125984},{"duration":0.2608695000000054,"midi":68,"time":47.086944749999994,"velocity":0.31496062992125984},{"duration":0.39130424999999747,"midi":70,"time":47.34781425,"velocity":0.31496062992125984},{"duration":0.39130424999999747,"midi":82,"time":47.34781425,"velocity":0.31496062992125984},{"duration":0.13043474999999916,"midi":80,"time":47.7391185,"velocity":0.31496062992125984},{"duration":0.13043474999999916,"midi":68,"time":47.7391185,"velocity":0.31496062992125984},{"duration":0.13043474999999916,"midi":70,"time":47.869553249999996,"velocity":0.31496062992125984},{"duration":0.13043474999999916,"midi":82,"time":47.869553249999996,"velocity":0.31496062992125984},{"duration":0.13043474999999916,"midi":71,"time":47.999987999999995,"velocity":0.31496062992125984},{"duration":0.13043474999999916,"midi":83,"time":47.999987999999995,"velocity":0.31496062992125984},{"duration":0.13043474999999916,"midi":70,"time":48.130422749999994,"velocity":0.31496062992125984},{"duration":0.13043474999999916,"midi":82,"time":48.130422749999994,"velocity":0.31496062992125984},{"duration":0.2608695000000054,"midi":80,"time":48.26085749999999,"velocity":0.31496062992125984},{"duration":0.2608695000000054,"midi":68,"time":48.26085749999999,"velocity":0.31496062992125984},{"duration":0.2608694999999983,"midi":76,"time":48.521727,"velocity":0.31496062992125984},{"duration":0.2608694999999983,"midi":64,"time":48.521727,"velocity":0.31496062992125984},{"duration":0.2608694999999983,"midi":70,"time":48.7825965,"velocity":0.31496062992125984},{"duration":0.2608694999999983,"midi":58,"time":48.7825965,"velocity":0.31496062992125984},{"duration":0.2608694999999983,"midi":60,"time":49.043465999999995,"velocity":0.31496062992125984},{"duration":0.2608694999999983,"midi":72,"time":49.043465999999995,"velocity":0.31496062992125984},{"duration":0.13043474999999916,"midi":61,"time":49.30433549999999,"velocity":0.31496062992125984},{"duration":0.13043474999999916,"midi":73,"time":49.30433549999999,"velocity":0.31496062992125984},{"duration":0.13043475000000626,"midi":75,"time":49.43477024999999,"velocity":0.31496062992125984},{"duration":0.13043475000000626,"midi":63,"time":49.43477024999999,"velocity":0.31496062992125984},{"duration":0.5217389999999966,"midi":77,"time":49.565205,"velocity":0.31496062992125984},{"duration":0.5217389999999966,"midi":65,"time":49.565205,"velocity":0.31496062992125984},{"duration":0.13043474999999916,"midi":41,"time":50.086943999999995,"velocity":0.31496062992125984},{"duration":0.2608694999999983,"midi":84,"time":50.086943999999995,"velocity":0.31496062992125984},{"duration":0.13043474999999916,"midi":48,"time":50.217378749999995,"velocity":0.31496062992125984},{"duration":0.2608694999999983,"midi":80,"time":50.347813499999994,"velocity":0.31496062992125984},{"duration":0.13043474999999916,"midi":49,"time":50.347813499999994,"velocity":0.31496062992125984},{"duration":0.13043474999999916,"midi":48,"time":50.47824824999999,"velocity":0.31496062992125984},{"duration":0.13043475000000626,"midi":41,"time":50.60868299999999,"velocity":0.31496062992125984},{"duration":0.13043475000000626,"midi":77,"time":50.60868299999999,"velocity":0.31496062992125984},{"duration":0.13043474999999916,"midi":80,"time":50.73911775,"velocity":0.31496062992125984},{"duration":0.13043474999999916,"midi":48,"time":50.73911775,"velocity":0.31496062992125984},{"duration":0.13043474999999916,"midi":53,"time":50.8695525,"velocity":0.31496062992125984},{"duration":0.13043474999999916,"midi":72,"time":50.8695525,"velocity":0.31496062992125984},{"duration":0.13043474999999916,"midi":48,"time":50.99998725,"velocity":0.31496062992125984},{"duration":0.13043474999999916,"midi":77,"time":50.99998725,"velocity":0.31496062992125984},{"duration":0.13043474999999916,"midi":46,"time":51.130421999999996,"velocity":0.31496062992125984},{"duration":0.2608694999999983,"midi":80,"time":51.130421999999996,"velocity":0.31496062992125984},{"duration":0.13043474999999916,"midi":53,"time":51.260856749999995,"velocity":0.31496062992125984},{"duration":0.13043474999999916,"midi":56,"time":51.391291499999994,"velocity":0.31496062992125984},{"duration":0.2608694999999983,"midi":77,"time":51.391291499999994,"velocity":0.31496062992125984},{"duration":0.13043474999999916,"midi":53,"time":51.52172624999999,"velocity":0.31496062992125984},{"duration":0.13043475000000626,"midi":73,"time":51.65216099999999,"velocity":0.31496062992125984},{"duration":0.2608695000000054,"midi":46,"time":51.65216099999999,"velocity":0.31496062992125984},{"duration":0.13043474999999916,"midi":77,"time":51.78259575,"velocity":0.31496062992125984},{"duration":0.13043474999999916,"midi":53,"time":51.78259575,"velocity":0.31496062992125984},{"duration":0.13043474999999916,"midi":68,"time":51.9130305,"velocity":0.31496062992125984},{"duration":0.2608694999999983,"midi":48,"time":51.9130305,"velocity":0.31496062992125984},{"duration":0.13043474999999916,"midi":55,"time":51.9130305,"velocity":0.31496062992125984},{"duration":0.13043474999999916,"midi":73,"time":52.04346525,"velocity":0.31496062992125984},{"duration":0.13043474999999916,"midi":53,"time":52.04346525,"velocity":0.31496062992125984},{"duration":0.13043474999999916,"midi":49,"time":52.173899999999996,"velocity":0.31496062992125984},{"duration":0.13043474999999916,"midi":73,"time":52.173899999999996,"velocity":0.31496062992125984},{"duration":0.13043474999999916,"midi":68,"time":52.304334749999995,"velocity":0.31496062992125984},{"duration":0.13043474999999916,"midi":53,"time":52.304334749999995,"velocity":0.31496062992125984},{"duration":0.13043474999999916,"midi":61,"time":52.434769499999994,"velocity":0.31496062992125984},{"duration":0.13043474999999916,"midi":80,"time":52.434769499999994,"velocity":0.31496062992125984},{"duration":0.13043474999999916,"midi":56,"time":52.565204249999994,"velocity":0.31496062992125984},{"duration":0.13043474999999916,"midi":73,"time":52.565204249999994,"velocity":0.31496062992125984},{"duration":0.13043474999999916,"midi":49,"time":52.69563899999999,"velocity":0.31496062992125984},{"duration":0.13043474999999916,"midi":79,"time":52.69563899999999,"velocity":0.31496062992125984},{"duration":0.13043475000000626,"midi":80,"time":52.82607374999999,"velocity":0.31496062992125984},{"duration":0.06521737500000313,"midi":51,"time":52.82607374999999,"velocity":0.31496062992125984},{"duration":0.06521737500000313,"midi":52,"time":52.891291124999995,"velocity":0.31496062992125984},{"duration":0.13043474999999916,"midi":77,"time":52.9565085,"velocity":0.31496062992125984},{"duration":0.2608694999999983,"midi":53,"time":52.9565085,"velocity":0.31496062992125984},{"duration":0.13043474999999916,"midi":79,"time":53.08694325,"velocity":0.31496062992125984},{"duration":0.13043474999999916,"midi":52,"time":53.217378,"velocity":0.31496062992125984},{"duration":0.2608694999999983,"midi":76,"time":53.217378,"velocity":0.31496062992125984},{"duration":0.13043474999999916,"midi":53,"time":53.347812749999996,"velocity":0.31496062992125984},{"duration":0.13043474999999916,"midi":77,"time":53.478247499999995,"velocity":0.31496062992125984},{"duration":0.13043474999999916,"midi":48,"time":53.478247499999995,"velocity":0.31496062992125984},{"duration":0.13043474999999916,"midi":76,"time":53.608682249999994,"velocity":0.31496062992125984},{"duration":0.13043474999999916,"midi":43,"time":53.608682249999994,"velocity":0.31496062992125984},{"duration":0.2608695000000054,"midi":48,"time":53.73911699999999,"velocity":0.31496062992125984},{"duration":0.13043474999999916,"midi":79,"time":53.73911699999999,"velocity":0.31496062992125984},{"duration":0.13043475000000626,"midi":77,"time":53.86955174999999,"velocity":0.31496062992125984},{"duration":0.13043474999999916,"midi":76,"time":53.9999865,"velocity":0.31496062992125984},{"duration":0.2608694999999983,"midi":52,"time":53.9999865,"velocity":0.31496062992125984},{"duration":0.13043474999999916,"midi":79,"time":54.13042125,"velocity":0.31496062992125984},{"duration":0.13043474999999916,"midi":77,"time":54.260856,"velocity":0.31496062992125984},{"duration":0.13043474999999916,"midi":41,"time":54.260856,"velocity":0.31496062992125984},{"duration":0.13043474999999916,"midi":48,"time":54.391290749999996,"velocity":0.31496062992125984},{"duration":0.13043474999999916,"midi":72,"time":54.391290749999996,"velocity":0.31496062992125984},{"duration":0.13043474999999916,"midi":72,"time":54.4238994375,"velocity":0.31496062992125984},{"duration":0.13043474999999916,"midi":77,"time":54.521725499999995,"velocity":0.31496062992125984},{"duration":0.13043474999999916,"midi":49,"time":54.521725499999995,"velocity":0.31496062992125984},{"duration":0.13043474999999916,"midi":77,"time":54.5543341875,"velocity":0.31496062992125984},{"duration":0.13043474999999916,"midi":79,"time":54.652160249999994,"velocity":0.31496062992125984},{"duration":0.13043474999999916,"midi":48,"time":54.652160249999994,"velocity":0.31496062992125984},{"duration":0.13043474999999916,"midi":79,"time":54.684768937499996,"velocity":0.31496062992125984},{"duration":0.13043474999999916,"midi":80,"time":54.78259499999999,"velocity":0.31496062992125984},{"duration":0.13043474999999916,"midi":41,"time":54.78259499999999,"velocity":0.31496062992125984},{"duration":0.13043474999999916,"midi":80,"time":54.815203687499995,"velocity":0.31496062992125984},{"duration":0.13043474999999916,"midi":48,"time":54.91302974999999,"velocity":0.31496062992125984},{"duration":0.13043474999999916,"midi":77,"time":54.91302974999999,"velocity":0.31496062992125984},{"duration":0.13043474999999916,"midi":77,"time":54.945638437499994,"velocity":0.31496062992125984},{"duration":0.13043475000000626,"midi":53,"time":55.04346449999999,"velocity":0.31496062992125984},{"duration":0.13043475000000626,"midi":80,"time":55.04346449999999,"velocity":0.31496062992125984},{"duration":0.13043474999999916,"midi":80,"time":55.07607318749999,"velocity":0.31496062992125984},{"duration":0.13043474999999916,"midi":82,"time":55.17389925,"velocity":0.31496062992125984},{"duration":0.13043474999999916,"midi":48,"time":55.17389925,"velocity":0.31496062992125984},{"duration":0.13043474999999916,"midi":82,"time":55.20650793749999,"velocity":0.31496062992125984},{"duration":0.13043474999999916,"midi":84,"time":55.304334,"velocity":0.31496062992125984},{"duration":0.13043474999999916,"midi":46,"time":55.304334,"velocity":0.31496062992125984},{"duration":0.13043475000000626,"midi":84,"time":55.33694268749999,"velocity":0.31496062992125984},{"duration":0.13043474999999916,"midi":53,"time":55.434768749999996,"velocity":0.31496062992125984},{"duration":0.13043474999999916,"midi":82,"time":55.434768749999996,"velocity":0.31496062992125984},{"duration":0.13043474999999916,"midi":82,"time":55.4673774375,"velocity":0.31496062992125984},{"duration":0.13043474999999916,"midi":56,"time":55.565203499999996,"velocity":0.31496062992125984},{"duration":0.13043474999999916,"midi":80,"time":55.565203499999996,"velocity":0.31496062992125984},{"duration":0.13043474999999916,"midi":80,"time":55.5978121875,"velocity":0.31496062992125984},{"duration":0.13043474999999916,"midi":79,"time":55.695638249999995,"velocity":0.31496062992125984},{"duration":0.13043474999999916,"midi":58,"time":55.695638249999995,"velocity":0.31496062992125984},{"duration":0.13043474999999916,"midi":79,"time":55.728246937499996,"velocity":0.31496062992125984},{"duration":0.13043474999999916,"midi":80,"time":55.826072999999994,"velocity":0.31496062992125984},{"duration":0.13043474999999916,"midi":46,"time":55.826072999999994,"velocity":0.31496062992125984},{"duration":0.13043474999999916,"midi":80,"time":55.858681687499995,"velocity":0.31496062992125984},{"duration":0.13043474999999916,"midi":56,"time":55.95650774999999,"velocity":0.31496062992125984},{"duration":0.13043474999999916,"midi":79,"time":55.95650774999999,"velocity":0.31496062992125984},{"duration":0.13043474999999916,"midi":79,"time":55.989116437499995,"velocity":0.31496062992125984},{"duration":0.13043475000000626,"midi":77,"time":56.08694249999999,"velocity":0.31496062992125984},{"duration":0.13043475000000626,"midi":55,"time":56.08694249999999,"velocity":0.31496062992125984},{"duration":0.13043474999999916,"midi":77,"time":56.119551187499994,"velocity":0.31496062992125984},{"duration":0.13043474999999916,"midi":53,"time":56.21737725,"velocity":0.31496062992125984},{"duration":0.13043474999999916,"midi":79,"time":56.21737725,"velocity":0.31496062992125984},{"duration":0.13043474999999916,"midi":79,"time":56.24998593749999,"velocity":0.31496062992125984},{"duration":0.13043474999999916,"midi":49,"time":56.347812,"velocity":0.31496062992125984},{"duration":0.2608694999999983,"midi":77,"time":56.347812,"velocity":0.31496062992125984},{"duration":0.13043474999999916,"midi":53,"time":56.47824675,"velocity":0.31496062992125984},{"duration":0.2608694999999983,"midi":87,"time":56.608681499999996,"velocity":0.31496062992125984},{"duration":0.13043474999999916,"midi":56,"time":56.608681499999996,"velocity":0.31496062992125984},{"duration":0.13043474999999916,"midi":53,"time":56.739116249999995,"velocity":0.31496062992125984},{"duration":0.13043474999999916,"midi":85,"time":56.869550999999994,"velocity":0.31496062992125984},{"duration":0.13043474999999916,"midi":49,"time":56.869550999999994,"velocity":0.31496062992125984},{"duration":0.13043474999999916,"midi":87,"time":56.99998574999999,"velocity":0.31496062992125984},{"duration":0.13043474999999916,"midi":53,"time":56.99998574999999,"velocity":0.31496062992125984},{"duration":0.13043474999999916,"midi":84,"time":57.13042049999999,"velocity":0.31496062992125984},{"duration":0.13043474999999916,"midi":56,"time":57.13042049999999,"velocity":0.31496062992125984},{"duration":0.13043475000000626,"midi":53,"time":57.26085524999999,"velocity":0.31496062992125984},{"duration":0.13043475000000626,"midi":87,"time":57.26085524999999,"velocity":0.31496062992125984},{"duration":0.13043474999999916,"midi":82,"time":57.39129,"velocity":0.31496062992125984},{"duration":0.13043474999999916,"midi":48,"time":57.39129,"velocity":0.31496062992125984},{"duration":0.13043474999999916,"midi":84,"time":57.52172475,"velocity":0.31496062992125984},{"duration":0.13043474999999916,"midi":53,"time":57.52172475,"velocity":0.31496062992125984},{"duration":0.13043474999999916,"midi":44,"time":57.652159499999996,"velocity":0.31496062992125984},{"duration":0.13043474999999916,"midi":80,"time":57.652159499999996,"velocity":0.31496062992125984},{"duration":0.13043474999999916,"midi":46,"time":57.782594249999995,"velocity":0.31496062992125984},{"duration":0.13043474999999916,"midi":82,"time":57.782594249999995,"velocity":0.31496062992125984},{"duration":0.13043474999999916,"midi":48,"time":57.913028999999995,"velocity":0.31496062992125984},{"duration":0.5217389999999966,"midi":84,"time":57.913028999999995,"velocity":0.31496062992125984},{"duration":0.13043474999999916,"midi":52,"time":58.043463749999994,"velocity":0.31496062992125984},{"duration":0.13043474999999916,"midi":40,"time":58.17389849999999,"velocity":0.31496062992125984},{"duration":0.13043474999999916,"midi":52,"time":58.30433324999999,"velocity":0.31496062992125984},{"duration":0.2608695000000054,"midi":72,"time":58.43476799999999,"velocity":0.31496062992125984},{"duration":0.2608695000000054,"midi":84,"time":58.43476799999999,"velocity":0.31496062992125984},{"duration":0.2608695000000054,"midi":80,"time":58.43476799999999,"velocity":0.31496062992125984},{"duration":0.2608694999999983,"midi":80,"time":58.6956375,"velocity":0.31496062992125984},{"duration":0.2608694999999983,"midi":77,"time":58.6956375,"velocity":0.31496062992125984},{"duration":0.2608694999999983,"midi":68,"time":58.6956375,"velocity":0.31496062992125984},{"duration":0.2608694999999983,"midi":65,"time":58.956506999999995,"velocity":0.31496062992125984},{"duration":0.2608694999999983,"midi":77,"time":58.956506999999995,"velocity":0.31496062992125984},{"duration":0.2608694999999983,"midi":72,"time":58.956506999999995,"velocity":0.31496062992125984},{"duration":0.2608694999999983,"midi":72,"time":59.21737649999999,"velocity":0.31496062992125984},{"duration":0.2608694999999983,"midi":68,"time":59.21737649999999,"velocity":0.31496062992125984},{"duration":0.2608694999999983,"midi":60,"time":59.21737649999999,"velocity":0.31496062992125984},{"duration":0.2608695000000054,"midi":77,"time":59.47824599999999,"velocity":0.31496062992125984},{"duration":0.2608695000000054,"midi":80,"time":59.47824599999999,"velocity":0.31496062992125984},{"duration":0.2608695000000054,"midi":68,"time":59.47824599999999,"velocity":0.31496062992125984},{"duration":0.13043474999999916,"midi":77,"time":59.7391155,"velocity":0.31496062992125984},{"duration":0.13043474999999916,"midi":72,"time":59.7391155,"velocity":0.31496062992125984},{"duration":0.13043474999999916,"midi":65,"time":59.7391155,"velocity":0.31496062992125984},{"duration":0.6521737499999958,"midi":79,"time":59.869550249999996,"velocity":0.31496062992125984},{"duration":0.6521737499999958,"midi":67,"time":59.869550249999996,"velocity":0.31496062992125984},{"duration":0.6521737499999958,"midi":73,"time":59.869550249999996,"velocity":0.31496062992125984},{"duration":0.2608695000000054,"midi":77,"time":60.52172399999999,"velocity":0.31496062992125984},{"duration":0.2608695000000054,"midi":68,"time":60.52172399999999,"velocity":0.31496062992125984},{"duration":0.2608695000000054,"midi":80,"time":60.52172399999999,"velocity":0.31496062992125984},{"duration":0.13043474999999916,"midi":77,"time":60.7825935,"velocity":0.31496062992125984},{"duration":0.13043474999999916,"midi":65,"time":60.7825935,"velocity":0.31496062992125984},{"duration":0.13043474999999916,"midi":72,"time":60.7825935,"velocity":0.31496062992125984},{"duration":0.6521737499999958,"midi":79,"time":60.913028249999996,"velocity":0.31496062992125984},{"duration":0.6521737499999958,"midi":67,"time":60.913028249999996,"velocity":0.31496062992125984},{"duration":0.6521737499999958,"midi":73,"time":60.913028249999996,"velocity":0.31496062992125984},{"duration":0.2608695000000054,"midi":80,"time":61.56520199999999,"velocity":0.31496062992125984},{"duration":0.2608695000000054,"midi":68,"time":61.56520199999999,"velocity":0.31496062992125984},{"duration":0.2608695000000054,"midi":77,"time":61.56520199999999,"velocity":0.31496062992125984},{"duration":0.13043474999999916,"midi":65,"time":61.8260715,"velocity":0.31496062992125984},{"duration":0.13043474999999916,"midi":72,"time":61.8260715,"velocity":0.31496062992125984},{"duration":0.13043474999999916,"midi":77,"time":61.8260715,"velocity":0.31496062992125984},{"duration":0.2608694999999983,"midi":79,"time":61.95650625,"velocity":0.31496062992125984},{"duration":0.2608694999999983,"midi":73,"time":61.95650625,"velocity":0.31496062992125984},{"duration":0.2608694999999983,"midi":67,"time":61.95650625,"velocity":0.31496062992125984},{"duration":0.13043474999999916,"midi":73,"time":62.217375749999995,"velocity":0.31496062992125984},{"duration":0.13043474999999916,"midi":85,"time":62.217375749999995,"velocity":0.31496062992125984},{"duration":0.13043474999999916,"midi":72,"time":62.347810499999994,"velocity":0.31496062992125984},{"duration":0.13043474999999916,"midi":84,"time":62.347810499999994,"velocity":0.31496062992125984},{"duration":0.13043474999999916,"midi":73,"time":62.47824524999999,"velocity":0.31496062992125984},{"duration":0.13043474999999916,"midi":85,"time":62.47824524999999,"velocity":0.31496062992125984},{"duration":0.2608694999999983,"midi":84,"time":62.60867999999999,"velocity":0.31496062992125984},{"duration":0.2608694999999983,"midi":72,"time":62.60867999999999,"velocity":0.31496062992125984},{"duration":0.2608695000000054,"midi":77,"time":62.86954949999999,"velocity":0.31496062992125984},{"duration":0.2608695000000054,"midi":89,"time":62.86954949999999,"velocity":0.31496062992125984},{"duration":0.2608694999999983,"midi":82,"time":63.130418999999996,"velocity":0.31496062992125984},{"duration":0.2608694999999983,"midi":70,"time":63.130418999999996,"velocity":0.31496062992125984},{"duration":0.2608694999999983,"midi":80,"time":63.391288499999995,"velocity":0.31496062992125984},{"duration":0.2608694999999983,"midi":68,"time":63.391288499999995,"velocity":0.31496062992125984},{"duration":0.13043474999999916,"midi":82,"time":63.65215799999999,"velocity":0.31496062992125984},{"duration":0.13043474999999916,"midi":70,"time":63.65215799999999,"velocity":0.31496062992125984},{"duration":0.2608694999999983,"midi":68,"time":63.78259274999999,"velocity":0.31496062992125984},{"duration":0.2608694999999983,"midi":80,"time":63.78259274999999,"velocity":0.31496062992125984},{"duration":0.39130425000000457,"midi":70,"time":64.04346224999999,"velocity":0.31496062992125984},{"duration":0.39130425000000457,"midi":82,"time":64.04346224999999,"velocity":0.31496062992125984},{"duration":0.13043475000000626,"midi":80,"time":64.4347665,"velocity":0.31496062992125984},{"duration":0.13043475000000626,"midi":68,"time":64.4347665,"velocity":0.31496062992125984},{"duration":0.13043474999999205,"midi":82,"time":64.56520125,"velocity":0.31496062992125984},{"duration":0.13043474999999205,"midi":70,"time":64.56520125,"velocity":0.31496062992125984},{"duration":0.13043475000000626,"midi":71,"time":64.695636,"velocity":0.31496062992125984},{"duration":0.13043475000000626,"midi":83,"time":64.695636,"velocity":0.31496062992125984},{"duration":0.13043474999999205,"midi":82,"time":64.82607075,"velocity":0.31496062992125984},{"duration":0.13043474999999205,"midi":70,"time":64.82607075,"velocity":0.31496062992125984},{"duration":0.2608694999999983,"midi":80,"time":64.95650549999999,"velocity":0.31496062992125984},{"duration":0.2608694999999983,"midi":68,"time":64.95650549999999,"velocity":0.31496062992125984},{"duration":0.2608694999999983,"midi":64,"time":65.21737499999999,"velocity":0.31496062992125984},{"duration":0.2608694999999983,"midi":76,"time":65.21737499999999,"velocity":0.31496062992125984},{"duration":0.2608695000000125,"midi":60,"time":65.47824449999999,"velocity":0.31496062992125984},{"duration":0.2608695000000125,"midi":72,"time":65.47824449999999,"velocity":0.31496062992125984},{"duration":0.2608694999999983,"midi":61,"time":65.739114,"velocity":0.31496062992125984},{"duration":0.2608694999999983,"midi":73,"time":65.739114,"velocity":0.31496062992125984},{"duration":0.2608694999999983,"midi":64,"time":65.9999835,"velocity":0.31496062992125984},{"duration":0.2608694999999983,"midi":76,"time":65.9999835,"velocity":0.31496062992125984},{"duration":0.5217389999999966,"midi":77,"time":66.260853,"velocity":0.31496062992125984},{"duration":0.5217389999999966,"midi":65,"time":66.260853,"velocity":0.31496062992125984},{"duration":0.13043475000000626,"midi":61,"time":66.782592,"velocity":0.31496062992125984},{"duration":0.13043474999999205,"midi":68,"time":66.91302675,"velocity":0.31496062992125984},{"duration":0.13043475000000626,"midi":70,"time":67.04346149999999,"velocity":0.31496062992125984},{"duration":0.13043474999999205,"midi":68,"time":67.17389625,"velocity":0.31496062992125984},{"duration":0.13043475000000626,"midi":61,"time":67.30433099999999,"velocity":0.31496062992125984},{"duration":0.13043474999999205,"midi":68,"time":67.43476575,"velocity":0.31496062992125984},{"duration":0.13043475000000626,"midi":70,"time":67.56520049999999,"velocity":0.31496062992125984},{"duration":0.13043474999999205,"midi":68,"time":67.69563525,"velocity":0.31496062992125984},{"duration":0.13043475000000626,"midi":61,"time":67.82606999999999,"velocity":0.31496062992125984},{"duration":0.13043475000000626,"midi":68,"time":67.95650475,"velocity":0.31496062992125984},{"duration":0.13043474999999205,"midi":70,"time":68.0869395,"velocity":0.31496062992125984},{"duration":0.13043475000000626,"midi":68,"time":68.21737424999999,"velocity":0.31496062992125984},{"duration":0.13043474999999205,"midi":61,"time":68.347809,"velocity":0.31496062992125984},{"duration":0.13043475000000626,"midi":68,"time":68.47824374999999,"velocity":0.31496062992125984},{"duration":0.13043474999999205,"midi":70,"time":68.6086785,"velocity":0.31496062992125984},{"duration":0.13043475000000626,"midi":68,"time":68.73911324999999,"velocity":0.31496062992125984},{"duration":0.13043474999999205,"midi":65,"time":68.869548,"velocity":0.31496062992125984},{"duration":0.13043475000000626,"midi":72,"time":68.99998274999999,"velocity":0.31496062992125984},{"duration":0.13043475000000626,"midi":73,"time":69.1304175,"velocity":0.31496062992125984},{"duration":0.13043474999999205,"midi":72,"time":69.26085225,"velocity":0.31496062992125984},{"duration":0.13043475000000626,"midi":65,"time":69.39128699999999,"velocity":0.31496062992125984},{"duration":0.13043474999999205,"midi":72,"time":69.52172175,"velocity":0.31496062992125984},{"duration":0.13043475000000626,"midi":73,"time":69.65215649999999,"velocity":0.31496062992125984},{"duration":0.13043474999999205,"midi":72,"time":69.78259125,"velocity":0.31496062992125984},{"duration":0.13043475000000626,"midi":65,"time":69.91302599999999,"velocity":0.31496062992125984},{"duration":0.13043475000000626,"midi":72,"time":70.04346075,"velocity":0.31496062992125984},{"duration":0.13043474999999205,"midi":73,"time":70.1738955,"velocity":0.31496062992125984},{"duration":0.13043475000000626,"midi":72,"time":70.30433024999999,"velocity":0.31496062992125984},{"duration":0.13043474999999205,"midi":65,"time":70.434765,"velocity":0.31496062992125984},{"duration":0.13043475000000626,"midi":72,"time":70.56519974999999,"velocity":0.31496062992125984},{"duration":0.13043474999999205,"midi":73,"time":70.6956345,"velocity":0.31496062992125984},{"duration":0.13043475000000626,"midi":72,"time":70.82606924999999,"velocity":0.31496062992125984},{"duration":0.13043474999999205,"midi":61,"time":70.956504,"velocity":0.31496062992125984},{"duration":0.13043475000000626,"midi":68,"time":71.08693874999999,"velocity":0.31496062992125984},{"duration":0.13043475000000626,"midi":70,"time":71.2173735,"velocity":0.31496062992125984},{"duration":0.13043474999999205,"midi":68,"time":71.34780825,"velocity":0.31496062992125984},{"duration":0.13043475000000626,"midi":61,"time":71.47824299999999,"velocity":0.31496062992125984},{"duration":0.13043474999999205,"midi":68,"time":71.60867775,"velocity":0.31496062992125984},{"duration":0.13043475000000626,"midi":70,"time":71.73911249999999,"velocity":0.31496062992125984},{"duration":0.13043474999999205,"midi":68,"time":71.86954725,"velocity":0.31496062992125984},{"duration":0.13043475000000626,"midi":61,"time":71.99998199999999,"velocity":0.31496062992125984},{"duration":0.13043474999999205,"midi":68,"time":72.13041675,"velocity":0.31496062992125984},{"duration":0.13043475000000626,"midi":70,"time":72.26085149999999,"velocity":0.31496062992125984},{"duration":0.13043475000000626,"midi":68,"time":72.39128625,"velocity":0.31496062992125984},{"duration":0.13043474999999205,"midi":61,"time":72.521721,"velocity":0.31496062992125984},{"duration":0.13043475000000626,"midi":68,"time":72.65215574999999,"velocity":0.31496062992125984},{"duration":0.13043474999999205,"midi":70,"time":72.7825905,"velocity":0.31496062992125984},{"duration":0.13043475000000626,"midi":68,"time":72.91302524999999,"velocity":0.31496062992125984},{"duration":0.13043474999999205,"midi":65,"time":73.04346,"velocity":0.31496062992125984},{"duration":0.13043475000000626,"midi":72,"time":73.17389474999999,"velocity":0.31496062992125984},{"duration":0.13043474999999205,"midi":73,"time":73.3043295,"velocity":0.31496062992125984},{"duration":0.13043475000000626,"midi":72,"time":73.43476424999999,"velocity":0.31496062992125984},{"duration":0.13043475000000626,"midi":65,"time":73.56519899999999,"velocity":0.31496062992125984},{"duration":0.13043474999999205,"midi":72,"time":73.69563375,"velocity":0.31496062992125984},{"duration":0.13043475000000626,"midi":73,"time":73.82606849999999,"velocity":0.31496062992125984},{"duration":0.13043474999999205,"midi":72,"time":73.95650325,"velocity":0.31496062992125984},{"duration":0.13043475000000626,"midi":65,"time":74.08693799999999,"velocity":0.31496062992125984},{"duration":0.13043474999999205,"midi":72,"time":74.21737275,"velocity":0.31496062992125984},{"duration":0.13043475000000626,"midi":73,"time":74.34780749999999,"velocity":0.31496062992125984},{"duration":0.13043475000000626,"midi":72,"time":74.47824225,"velocity":0.31496062992125984},{"duration":0.13043474999999205,"midi":65,"time":74.608677,"velocity":0.31496062992125984},{"duration":0.13043475000000626,"midi":72,"time":74.73911174999999,"velocity":0.31496062992125984},{"duration":0.13043474999999205,"midi":73,"time":74.8695465,"velocity":0.31496062992125984},{"duration":0.13043475000000626,"midi":72,"time":74.99998124999999,"velocity":0.31496062992125984},{"duration":1.5652169999999899,"midi":65,"time":75.130416,"velocity":0.31496062992125984},{"duration":1.5652169999999899,"midi":65,"time":75.130416,"velocity":0.31496062992125984},{"duration":0.13043474999999205,"midi":61,"time":75.130416,"velocity":0.31496062992125984},{"duration":0.13043475000000626,"midi":68,"time":75.26085074999999,"velocity":0.31496062992125984},{"duration":0.13043474999999205,"midi":70,"time":75.3912855,"velocity":0.31496062992125984},{"duration":0.13043475000000626,"midi":68,"time":75.52172024999999,"velocity":0.31496062992125984},{"duration":0.13043475000000626,"midi":61,"time":75.652155,"velocity":0.31496062992125984},{"duration":0.13043474999999205,"midi":68,"time":75.78258975,"velocity":0.31496062992125984},{"duration":0.13043475000000626,"midi":70,"time":75.91302449999999,"velocity":0.31496062992125984},{"duration":0.13043474999999205,"midi":68,"time":76.04345925,"velocity":0.31496062992125984},{"duration":0.13043475000000626,"midi":61,"time":76.17389399999999,"velocity":0.31496062992125984},{"duration":0.13043474999999205,"midi":68,"time":76.30432875,"velocity":0.31496062992125984},{"duration":0.13043475000000626,"midi":70,"time":76.43476349999999,"velocity":0.31496062992125984},{"duration":0.13043474999999205,"midi":68,"time":76.56519825,"velocity":0.31496062992125984},{"duration":0.13043475000000626,"midi":64,"time":76.69563299999999,"velocity":0.31496062992125984},{"duration":0.13043475000000626,"midi":61,"time":76.69563299999999,"velocity":0.31496062992125984},{"duration":0.13043475000000626,"midi":64,"time":76.69563299999999,"velocity":0.31496062992125984},{"duration":0.13043475000000626,"midi":63,"time":76.82606774999999,"velocity":0.31496062992125984},{"duration":0.13043475000000626,"midi":68,"time":76.82606774999999,"velocity":0.31496062992125984},{"duration":0.13043475000000626,"midi":63,"time":76.82606774999999,"velocity":0.31496062992125984},{"duration":0.13043474999999205,"midi":62,"time":76.9565025,"velocity":0.31496062992125984},{"duration":0.13043474999999205,"midi":62,"time":76.9565025,"velocity":0.31496062992125984},{"duration":0.13043474999999205,"midi":70,"time":76.9565025,"velocity":0.31496062992125984},{"duration":0.13043475000000626,"midi":61,"time":77.08693724999999,"velocity":0.31496062992125984},{"duration":0.13043475000000626,"midi":61,"time":77.08693724999999,"velocity":0.31496062992125984},{"duration":0.13043475000000626,"midi":68,"time":77.08693724999999,"velocity":0.31496062992125984},{"duration":1.5652169999999899,"midi":60,"time":77.217372,"velocity":0.31496062992125984},{"duration":0.13043474999999205,"midi":65,"time":77.217372,"velocity":0.31496062992125984},{"duration":1.5652169999999899,"midi":60,"time":77.217372,"velocity":0.31496062992125984},{"duration":0.13043475000000626,"midi":72,"time":77.34780674999999,"velocity":0.31496062992125984},{"duration":0.13043474999999205,"midi":73,"time":77.4782415,"velocity":0.31496062992125984},{"duration":0.13043475000000626,"midi":72,"time":77.60867624999999,"velocity":0.31496062992125984},{"duration":0.13043474999999205,"midi":65,"time":77.739111,"velocity":0.31496062992125984},{"duration":0.13043475000000626,"midi":72,"time":77.86954574999999,"velocity":0.31496062992125984},{"duration":0.13043475000000626,"midi":73,"time":77.99998049999999,"velocity":0.31496062992125984},{"duration":0.13043474999999205,"midi":72,"time":78.13041525,"velocity":0.31496062992125984},{"duration":0.13043475000000626,"midi":65,"time":78.26084999999999,"velocity":0.31496062992125984},{"duration":0.13043474999999205,"midi":72,"time":78.39128475,"velocity":0.31496062992125984},{"duration":0.13043475000000626,"midi":73,"time":78.52171949999999,"velocity":0.31496062992125984},{"duration":0.13043474999999205,"midi":72,"time":78.65215425,"velocity":0.31496062992125984},{"duration":0.13043475000000626,"midi":61,"time":78.78258899999999,"velocity":0.31496062992125984},{"duration":0.13043475000000626,"midi":61,"time":78.78258899999999,"velocity":0.31496062992125984},{"duration":0.13043475000000626,"midi":65,"time":78.78258899999999,"velocity":0.31496062992125984},{"duration":0.13043475000000626,"midi":62,"time":78.91302375,"velocity":0.31496062992125984},{"duration":0.13043475000000626,"midi":72,"time":78.91302375,"velocity":0.31496062992125984},{"duration":0.13043475000000626,"midi":62,"time":78.91302375,"velocity":0.31496062992125984},{"duration":0.13043474999999205,"midi":73,"time":79.0434585,"velocity":0.31496062992125984},{"duration":0.13043474999999205,"midi":63,"time":79.0434585,"velocity":0.31496062992125984},{"duration":0.13043474999999205,"midi":63,"time":79.0434585,"velocity":0.31496062992125984},{"duration":0.13043475000000626,"midi":72,"time":79.17389324999999,"velocity":0.31496062992125984},{"duration":0.13043475000000626,"midi":64,"time":79.17389324999999,"velocity":0.31496062992125984},{"duration":0.13043475000000626,"midi":64,"time":79.17389324999999,"velocity":0.31496062992125984},{"duration":1.5652169999999899,"midi":65,"time":79.304328,"velocity":0.31496062992125984},{"duration":1.5652169999999899,"midi":65,"time":79.304328,"velocity":0.31496062992125984},{"duration":0.13043474999999205,"midi":61,"time":79.304328,"velocity":0.31496062992125984},{"duration":0.13043475000000626,"midi":68,"time":79.43476274999999,"velocity":0.31496062992125984},{"duration":0.13043474999999205,"midi":70,"time":79.5651975,"velocity":0.31496062992125984},{"duration":0.13043475000000626,"midi":68,"time":79.69563224999999,"velocity":0.31496062992125984},{"duration":0.13043474999999205,"midi":61,"time":79.826067,"velocity":0.31496062992125984},{"duration":0.13043475000000626,"midi":68,"time":79.95650174999999,"velocity":0.31496062992125984},{"duration":0.13043475000000626,"midi":70,"time":80.0869365,"velocity":0.31496062992125984},{"duration":0.13043474999999205,"midi":68,"time":80.21737125,"velocity":0.31496062992125984},{"duration":0.13043475000000626,"midi":61,"time":80.34780599999999,"velocity":0.31496062992125984},{"duration":0.13043474999999205,"midi":68,"time":80.47824075,"velocity":0.31496062992125984},{"duration":0.13043475000000626,"midi":70,"time":80.60867549999999,"velocity":0.31496062992125984},{"duration":0.13043474999999205,"midi":68,"time":80.73911025,"velocity":0.31496062992125984},{"duration":0.2608694999999983,"midi":68,"time":80.86954499999999,"velocity":0.31496062992125984},{"duration":0.5217390000000108,"midi":68,"time":80.86954499999999,"velocity":0.31496062992125984},{"duration":0.13043475000000626,"midi":61,"time":80.86954499999999,"velocity":0.31496062992125984},{"duration":0.39130425000000457,"midi":68,"time":80.99997975,"velocity":0.31496062992125984},{"duration":0.13043475000000626,"midi":70,"time":81.13041449999999,"velocity":0.31496062992125984},{"duration":0.13043475000000626,"midi":68,"time":81.26084924999999,"velocity":0.31496062992125984},{"duration":0.13043474999999205,"midi":65,"time":81.391284,"velocity":0.31496062992125984},{"duration":2.0869560000000007,"midi":67,"time":81.391284,"velocity":0.31496062992125984},{"duration":2.0869560000000007,"midi":67,"time":81.391284,"velocity":0.31496062992125984},{"duration":0.13043475000000626,"midi":72,"time":81.52171874999999,"velocity":0.31496062992125984},{"duration":0.13043474999999205,"midi":73,"time":81.6521535,"velocity":0.31496062992125984},{"duration":0.13043475000000626,"midi":72,"time":81.78258824999999,"velocity":0.31496062992125984},{"duration":0.13043474999999205,"midi":65,"time":81.913023,"velocity":0.31496062992125984},{"duration":0.13043475000000626,"midi":72,"time":82.04345774999999,"velocity":0.31496062992125984},{"duration":0.13043474999999205,"midi":73,"time":82.1738925,"velocity":0.31496062992125984},{"duration":0.13043475000000626,"midi":72,"time":82.30432724999999,"velocity":0.31496062992125984},{"duration":0.13043475000000626,"midi":65,"time":82.43476199999999,"velocity":0.31496062992125984},{"duration":0.13043474999999205,"midi":72,"time":82.56519675,"velocity":0.31496062992125984},{"duration":0.13043475000000626,"midi":73,"time":82.69563149999999,"velocity":0.31496062992125984},{"duration":0.13043474999999205,"midi":72,"time":82.82606625,"velocity":0.31496062992125984},{"duration":0.13043475000000626,"midi":65,"time":82.95650099999999,"velocity":0.31496062992125984},{"duration":0.13043474999999205,"midi":72,"time":83.08693575,"velocity":0.31496062992125984},{"duration":0.13043475000000626,"midi":73,"time":83.21737049999999,"velocity":0.31496062992125984},{"duration":0.13043475000000626,"midi":72,"time":83.34780525,"velocity":0.31496062992125984},{"duration":1.5652169999999899,"midi":53,"time":83.47824,"velocity":0.31496062992125984},{"duration":1.5652169999999899,"midi":53,"time":83.47824,"velocity":0.31496062992125984},{"duration":0.13043474999999205,"midi":49,"time":83.47824,"velocity":0.31496062992125984},{"duration":0.13043475000000626,"midi":56,"time":83.60867474999999,"velocity":0.31496062992125984},{"duration":0.13043474999999205,"midi":58,"time":83.7391095,"velocity":0.31496062992125984},{"duration":0.13043475000000626,"midi":56,"time":83.86954424999999,"velocity":0.31496062992125984},{"duration":0.13043474999999205,"midi":49,"time":83.999979,"velocity":0.31496062992125984},{"duration":0.13043475000000626,"midi":56,"time":84.13041374999999,"velocity":0.31496062992125984},{"duration":0.13043474999999205,"midi":58,"time":84.2608485,"velocity":0.31496062992125984},{"duration":0.13043475000000626,"midi":56,"time":84.39128324999999,"velocity":0.31496062992125984},{"duration":0.13043475000000626,"midi":49,"time":84.52171799999999,"velocity":0.31496062992125984},{"duration":0.13043474999999205,"midi":56,"time":84.65215275,"velocity":0.31496062992125984},{"duration":0.13043475000000626,"midi":58,"time":84.78258749999999,"velocity":0.31496062992125984},{"duration":0.13043474999999205,"midi":56,"time":84.91302225,"velocity":0.31496062992125984},{"duration":0.13043475000000626,"midi":49,"time":85.04345699999999,"velocity":0.31496062992125984},{"duration":0.13043475000000626,"midi":52,"time":85.04345699999999,"velocity":0.31496062992125984},{"duration":0.13043475000000626,"midi":52,"time":85.04345699999999,"velocity":0.31496062992125984},{"duration":0.13043474999999205,"midi":51,"time":85.17389175,"velocity":0.31496062992125984},{"duration":0.13043474999999205,"midi":56,"time":85.17389175,"velocity":0.31496062992125984},{"duration":0.13043474999999205,"midi":51,"time":85.17389175,"velocity":0.31496062992125984},{"duration":0.13043475000000626,"midi":50,"time":85.30432649999999,"velocity":0.31496062992125984},{"duration":0.13043475000000626,"midi":58,"time":85.30432649999999,"velocity":0.31496062992125984},{"duration":0.13043475000000626,"midi":50,"time":85.30432649999999,"velocity":0.31496062992125984},{"duration":0.13043474999999205,"midi":56,"time":85.43476125,"velocity":0.31496062992125984},{"duration":0.13043474999999205,"midi":49,"time":85.43476125,"velocity":0.31496062992125984},{"duration":0.13043474999999205,"midi":49,"time":85.43476125,"velocity":0.31496062992125984},{"duration":0.13043475000000626,"midi":53,"time":85.56519599999999,"velocity":0.31496062992125984},{"duration":1.565217000000004,"midi":48,"time":85.56519599999999,"velocity":0.31496062992125984},{"duration":1.565217000000004,"midi":48,"time":85.56519599999999,"velocity":0.31496062992125984},{"duration":0.13043475000000626,"midi":60,"time":85.69563074999999,"velocity":0.31496062992125984},{"duration":0.13043474999999205,"midi":61,"time":85.8260655,"velocity":0.31496062992125984},{"duration":0.13043475000000626,"midi":60,"time":85.95650024999999,"velocity":0.31496062992125984},{"duration":0.13043474999999205,"midi":53,"time":86.086935,"velocity":0.31496062992125984},{"duration":0.13043475000000626,"midi":60,"time":86.21736974999999,"velocity":0.31496062992125984},{"duration":0.13043474999999205,"midi":61,"time":86.3478045,"velocity":0.31496062992125984},{"duration":0.13043475000000626,"midi":60,"time":86.47823924999999,"velocity":0.31496062992125984},{"duration":0.13043474999999205,"midi":53,"time":86.608674,"velocity":0.31496062992125984},{"duration":0.13043475000000626,"midi":60,"time":86.73910874999999,"velocity":0.31496062992125984},{"duration":0.13043475000000626,"midi":61,"time":86.86954349999999,"velocity":0.31496062992125984},{"duration":0.13043474999999205,"midi":60,"time":86.99997825,"velocity":0.31496062992125984},{"duration":0.13043475000000626,"midi":53,"time":87.13041299999999,"velocity":0.31496062992125984},{"duration":0.13043475000000626,"midi":49,"time":87.13041299999999,"velocity":0.31496062992125984},{"duration":0.13043475000000626,"midi":49,"time":87.13041299999999,"velocity":0.31496062992125984},{"duration":0.13043474999999205,"midi":60,"time":87.26084775,"velocity":0.31496062992125984},{"duration":0.13043474999999205,"midi":50,"time":87.26084775,"velocity":0.31496062992125984},{"duration":0.13043474999999205,"midi":50,"time":87.26084775,"velocity":0.31496062992125984},{"duration":0.13043475000000626,"midi":51,"time":87.39128249999999,"velocity":0.31496062992125984},{"duration":0.13043475000000626,"midi":61,"time":87.39128249999999,"velocity":0.31496062992125984},{"duration":0.13043475000000626,"midi":51,"time":87.39128249999999,"velocity":0.31496062992125984},{"duration":0.13043474999999205,"midi":60,"time":87.52171725,"velocity":0.31496062992125984},{"duration":0.13043474999999205,"midi":52,"time":87.52171725,"velocity":0.31496062992125984},{"duration":0.13043474999999205,"midi":52,"time":87.52171725,"velocity":0.31496062992125984},{"duration":1.565217000000004,"midi":53,"time":87.65215199999999,"velocity":0.31496062992125984},{"duration":1.565217000000004,"midi":53,"time":87.65215199999999,"velocity":0.31496062992125984},{"duration":0.13043475000000626,"midi":49,"time":87.65215199999999,"velocity":0.31496062992125984},{"duration":0.13043474999999205,"midi":56,"time":87.78258675,"velocity":0.31496062992125984},{"duration":0.13043475000000626,"midi":58,"time":87.91302149999999,"velocity":0.31496062992125984},{"duration":0.13043475000000626,"midi":56,"time":88.04345624999999,"velocity":0.31496062992125984},{"duration":0.13043474999999205,"midi":49,"time":88.173891,"velocity":0.31496062992125984},{"duration":0.13043475000000626,"midi":56,"time":88.30432574999999,"velocity":0.31496062992125984},{"duration":0.13043474999999205,"midi":58,"time":88.4347605,"velocity":0.31496062992125984},{"duration":0.13043475000000626,"midi":56,"time":88.56519524999999,"velocity":0.31496062992125984},{"duration":0.13043474999999205,"midi":49,"time":88.69563,"velocity":0.31496062992125984},{"duration":0.13043475000000626,"midi":56,"time":88.82606474999999,"velocity":0.31496062992125984},{"duration":0.13043475000000626,"midi":58,"time":88.95649949999999,"velocity":0.31496062992125984},{"duration":0.13043474999999205,"midi":56,"time":89.08693425,"velocity":0.31496062992125984},{"duration":0.2608694999999983,"midi":56,"time":89.21736899999999,"velocity":0.31496062992125984},{"duration":0.13043475000000626,"midi":49,"time":89.21736899999999,"velocity":0.31496062992125984},{"duration":0.5217389999999966,"midi":56,"time":89.21736899999999,"velocity":0.31496062992125984},{"duration":0.39130424999999036,"midi":56,"time":89.34780375,"velocity":0.31496062992125984},{"duration":0.13043475000000626,"midi":58,"time":89.47823849999999,"velocity":0.31496062992125984},{"duration":0.13043474999999205,"midi":56,"time":89.60867325,"velocity":0.31496062992125984},{"duration":2.0869560000000007,"midi":55,"time":89.73910799999999,"velocity":0.31496062992125984},{"duration":2.0869560000000007,"midi":55,"time":89.73910799999999,"velocity":0.31496062992125984},{"duration":0.13043475000000626,"midi":53,"time":89.73910799999999,"velocity":0.31496062992125984},{"duration":0.13043474999999205,"midi":60,"time":89.86954275,"velocity":0.31496062992125984},{"duration":0.13043475000000626,"midi":61,"time":89.99997749999999,"velocity":0.31496062992125984},{"duration":0.13043475000000626,"midi":60,"time":90.13041224999999,"velocity":0.31496062992125984},{"duration":0.13043474999999205,"midi":53,"time":90.260847,"velocity":0.31496062992125984},{"duration":0.13043475000000626,"midi":60,"time":90.39128174999999,"velocity":0.31496062992125984},{"duration":0.13043474999999205,"midi":61,"time":90.5217165,"velocity":0.31496062992125984},{"duration":0.13043475000000626,"midi":60,"time":90.65215124999999,"velocity":0.31496062992125984},{"duration":0.13043474999999205,"midi":53,"time":90.782586,"velocity":0.31496062992125984},{"duration":0.13043475000000626,"midi":60,"time":90.91302074999999,"velocity":0.31496062992125984},{"duration":0.13043474999999205,"midi":61,"time":91.0434555,"velocity":0.31496062992125984},{"duration":0.13043475000000626,"midi":60,"time":91.17389024999999,"velocity":0.31496062992125984},{"duration":0.13043475000000626,"midi":53,"time":91.30432499999999,"velocity":0.31496062992125984},{"duration":0.13043474999999205,"midi":60,"time":91.43475975,"velocity":0.31496062992125984},{"duration":0.13043475000000626,"midi":61,"time":91.56519449999999,"velocity":0.31496062992125984},{"duration":0.13043474999999205,"midi":60,"time":91.69562925,"velocity":0.31496062992125984},{"duration":0.13043475000000626,"midi":49,"time":91.82606399999999,"velocity":0.31496062992125984},{"duration":1.565217000000004,"midi":53,"time":91.82606399999999,"velocity":0.31496062992125984},{"duration":1.565217000000004,"midi":53,"time":91.82606399999999,"velocity":0.31496062992125984},{"duration":0.13043474999999205,"midi":56,"time":91.95649875,"velocity":0.31496062992125984},{"duration":0.13043475000000626,"midi":58,"time":92.08693349999999,"velocity":0.31496062992125984},{"duration":0.13043474999999205,"midi":56,"time":92.21736824999999,"velocity":0.31496062992125984},{"duration":0.13043475000000626,"midi":49,"time":92.34780299999998,"velocity":0.31496062992125984},{"duration":0.13043475000000626,"midi":56,"time":92.47823774999999,"velocity":0.31496062992125984},{"duration":0.13043474999999205,"midi":58,"time":92.6086725,"velocity":0.31496062992125984},{"duration":0.13043475000000626,"midi":56,"time":92.73910724999999,"velocity":0.31496062992125984},{"duration":0.13043474999999205,"midi":49,"time":92.869542,"velocity":0.31496062992125984},{"duration":0.13043475000000626,"midi":56,"time":92.99997674999999,"velocity":0.31496062992125984},{"duration":0.13043474999999205,"midi":58,"time":93.1304115,"velocity":0.31496062992125984},{"duration":0.13043475000000626,"midi":56,"time":93.26084624999999,"velocity":0.31496062992125984},{"duration":0.13043475000000626,"midi":52,"time":93.39128099999999,"velocity":0.31496062992125984},{"duration":0.13043475000000626,"midi":49,"time":93.39128099999999,"velocity":0.31496062992125984},{"duration":0.13043475000000626,"midi":52,"time":93.39128099999999,"velocity":0.31496062992125984},{"duration":0.13043474999999205,"midi":51,"time":93.52171575,"velocity":0.31496062992125984},{"duration":0.13043474999999205,"midi":56,"time":93.52171575,"velocity":0.31496062992125984},{"duration":0.13043474999999205,"midi":51,"time":93.52171575,"velocity":0.31496062992125984},{"duration":0.13043475000000626,"midi":50,"time":93.65215049999999,"velocity":0.31496062992125984},{"duration":0.13043475000000626,"midi":58,"time":93.65215049999999,"velocity":0.31496062992125984},{"duration":0.13043475000000626,"midi":50,"time":93.65215049999999,"velocity":0.31496062992125984},{"duration":0.13043474999999205,"midi":49,"time":93.78258525,"velocity":0.31496062992125984},{"duration":0.13043474999999205,"midi":49,"time":93.78258525,"velocity":0.31496062992125984},{"duration":0.13043474999999205,"midi":56,"time":93.78258525,"velocity":0.31496062992125984},{"duration":0.13043475000000626,"midi":53,"time":93.91301999999999,"velocity":0.31496062992125984},{"duration":1.565217000000004,"midi":48,"time":93.91301999999999,"velocity":0.31496062992125984},{"duration":1.565217000000004,"midi":48,"time":93.91301999999999,"velocity":0.31496062992125984},{"duration":0.13043474999999205,"midi":60,"time":94.04345475,"velocity":0.31496062992125984},{"duration":0.13043475000000626,"midi":61,"time":94.17388949999999,"velocity":0.31496062992125984},{"duration":0.13043474999999205,"midi":60,"time":94.30432425,"velocity":0.31496062992125984},{"duration":0.13043475000000626,"midi":53,"time":94.43475899999999,"velocity":0.31496062992125984},{"duration":0.13043475000000626,"midi":60,"time":94.56519374999999,"velocity":0.31496062992125984},{"duration":0.13043474999999205,"midi":61,"time":94.6956285,"velocity":0.31496062992125984},{"duration":0.13043475000000626,"midi":60,"time":94.82606324999999,"velocity":0.31496062992125984},{"duration":0.13043474999999205,"midi":53,"time":94.956498,"velocity":0.31496062992125984},{"duration":0.13043475000000626,"midi":60,"time":95.08693274999999,"velocity":0.31496062992125984},{"duration":0.13043474999999205,"midi":61,"time":95.2173675,"velocity":0.31496062992125984},{"duration":0.13043475000000626,"midi":60,"time":95.34780224999999,"velocity":0.31496062992125984},{"duration":0.13043474999999205,"midi":53,"time":95.478237,"velocity":0.31496062992125984},{"duration":0.13043474999999205,"midi":49,"time":95.478237,"velocity":0.31496062992125984},{"duration":0.13043474999999205,"midi":49,"time":95.478237,"velocity":0.31496062992125984},{"duration":0.13043475000000626,"midi":60,"time":95.60867174999998,"velocity":0.31496062992125984},{"duration":0.13043475000000626,"midi":50,"time":95.60867174999998,"velocity":0.31496062992125984},{"duration":0.13043475000000626,"midi":50,"time":95.60867174999998,"velocity":0.31496062992125984},{"duration":0.13043475000000626,"midi":51,"time":95.73910649999999,"velocity":0.31496062992125984},{"duration":0.13043475000000626,"midi":51,"time":95.73910649999999,"velocity":0.31496062992125984},{"duration":0.13043475000000626,"midi":61,"time":95.73910649999999,"velocity":0.31496062992125984},{"duration":0.13043474999999205,"midi":60,"time":95.86954125,"velocity":0.31496062992125984},{"duration":0.13043474999999205,"midi":52,"time":95.86954125,"velocity":0.31496062992125984},{"duration":0.13043474999999205,"midi":52,"time":95.86954125,"velocity":0.31496062992125984},{"duration":0.13043475000000626,"midi":49,"time":95.99997599999999,"velocity":0.31496062992125984},{"duration":1.565217000000004,"midi":53,"time":95.99997599999999,"velocity":0.31496062992125984},{"duration":1.565217000000004,"midi":53,"time":95.99997599999999,"velocity":0.31496062992125984},{"duration":0.13043474999999205,"midi":56,"time":96.13041075,"velocity":0.31496062992125984},{"duration":0.13043475000000626,"midi":58,"time":96.26084549999999,"velocity":0.31496062992125984},{"duration":0.13043474999999205,"midi":56,"time":96.39128025,"velocity":0.31496062992125984},{"duration":0.13043475000000626,"midi":49,"time":96.52171499999999,"velocity":0.31496062992125984},{"duration":0.13043474999999205,"midi":56,"time":96.65214974999999,"velocity":0.31496062992125984},{"duration":0.13043475000000626,"midi":58,"time":96.78258449999998,"velocity":0.31496062992125984},{"duration":0.13043475000000626,"midi":56,"time":96.91301924999999,"velocity":0.31496062992125984},{"duration":0.13043474999999205,"midi":49,"time":97.043454,"velocity":0.31496062992125984},{"duration":0.13043475000000626,"midi":56,"time":97.17388874999999,"velocity":0.31496062992125984},{"duration":0.13043474999999205,"midi":58,"time":97.3043235,"velocity":0.31496062992125984},{"duration":0.13043475000000626,"midi":56,"time":97.43475824999999,"velocity":0.31496062992125984},{"duration":0.2608694999999983,"midi":56,"time":97.565193,"velocity":0.31496062992125984},{"duration":0.13043474999999205,"midi":49,"time":97.565193,"velocity":0.31496062992125984},{"duration":0.5217389999999966,"midi":56,"time":97.565193,"velocity":0.31496062992125984},{"duration":0.39130425000000457,"midi":56,"time":97.69562774999999,"velocity":0.31496062992125984},{"duration":0.13043475000000626,"midi":58,"time":97.82606249999999,"velocity":0.31496062992125984},{"duration":0.13043474999999205,"midi":56,"time":97.95649725,"velocity":0.31496062992125984},{"duration":0.2608694999999983,"midi":72,"time":98.08693199999999,"velocity":0.31496062992125984},{"duration":0.2608694999999983,"midi":72,"time":98.08693199999999,"velocity":0.31496062992125984},{"duration":0.2608694999999983,"midi":67,"time":98.08693199999999,"velocity":0.31496062992125984},{"duration":0.2608694999999983,"midi":67,"time":98.08693199999999,"velocity":0.31496062992125984},{"duration":0.2608694999999983,"midi":72,"time":98.34780149999999,"velocity":0.31496062992125984},{"duration":0.2608694999999983,"midi":67,"time":98.34780149999999,"velocity":0.31496062992125984},{"duration":0.2608694999999983,"midi":72,"time":98.34780149999999,"velocity":0.31496062992125984},{"duration":0.2608694999999983,"midi":67,"time":98.34780149999999,"velocity":0.31496062992125984},{"duration":0.13043475000000626,"midi":76,"time":98.60867099999999,"velocity":0.31496062992125984},{"duration":0.13043475000000626,"midi":72,"time":98.60867099999999,"velocity":0.31496062992125984},{"duration":0.13043475000000626,"midi":76,"time":98.60867099999999,"velocity":0.31496062992125984},{"duration":0.13043475000000626,"midi":72,"time":98.60867099999999,"velocity":0.31496062992125984},{"duration":0.2608694999999983,"midi":67,"time":98.73910575,"velocity":0.31496062992125984},{"duration":0.2608694999999983,"midi":72,"time":98.73910575,"velocity":0.31496062992125984},{"duration":0.2608694999999983,"midi":67,"time":98.73910575,"velocity":0.31496062992125984},{"duration":0.2608694999999983,"midi":72,"time":98.73910575,"velocity":0.31496062992125984},{"duration":0.13043475000000626,"midi":70,"time":98.99997524999999,"velocity":0.31496062992125984},{"duration":0.13043475000000626,"midi":70,"time":98.99997524999999,"velocity":0.31496062992125984},{"duration":0.13043475000000626,"midi":65,"time":98.99997524999999,"velocity":0.31496062992125984},{"duration":0.13043475000000626,"midi":65,"time":98.99997524999999,"velocity":0.31496062992125984},{"duration":0.13043474999999205,"midi":72,"time":99.13041,"velocity":0.31496062992125984},{"duration":0.13043474999999205,"midi":67,"time":99.13041,"velocity":0.31496062992125984},{"duration":0.13043474999999205,"midi":72,"time":99.13041,"velocity":0.31496062992125984},{"duration":0.13043474999999205,"midi":67,"time":99.13041,"velocity":0.31496062992125984},{"duration":0.06521737500000313,"midi":72,"time":99.26084474999999,"velocity":0.31496062992125984},{"duration":0.06521737500000313,"midi":67,"time":99.32606212499999,"velocity":0.31496062992125984},{"duration":0.06521737499998892,"midi":72,"time":99.3912795,"velocity":0.31496062992125984},{"duration":0.06521737500000313,"midi":67,"time":99.45649687499998,"velocity":0.31496062992125984},{"duration":0.06521737500000313,"midi":72,"time":99.52171424999999,"velocity":0.31496062992125984},{"duration":0.06521737500000313,"midi":67,"time":99.58693162499999,"velocity":0.31496062992125984},{"duration":0.06521737500000313,"midi":72,"time":99.652149,"velocity":0.31496062992125984},{"duration":0.06521737499998892,"midi":67,"time":99.717366375,"velocity":0.31496062992125984},{"duration":0.06521737500000313,"midi":72,"time":99.78258374999999,"velocity":0.31496062992125984},{"duration":0.06521737500000313,"midi":67,"time":99.84780112499999,"velocity":0.31496062992125984}]},{"instrument":{"family":"drums","number":255},"notes":[{"duration":0.13043475,"midi":41,"time":0,"velocity":0.3937007874015748},{"duration":0.13043475,"midi":42,"time":0,"velocity":0.3937007874015748},{"duration":0.13043475000000004,"midi":35,"time":0.521739,"velocity":0.3937007874015748},{"duration":0.13043475000000004,"midi":41,"time":1.043478,"velocity":0.3937007874015748},{"duration":0.13043475000000004,"midi":42,"time":1.043478,"velocity":0.3937007874015748},{"duration":0.13043475000000004,"midi":35,"time":1.5652169999999999,"velocity":0.3937007874015748},{"duration":0.13043475000000004,"midi":42,"time":2.086956,"velocity":0.3937007874015748},{"duration":0.13043475000000004,"midi":41,"time":2.086956,"velocity":0.3937007874015748},{"duration":0.1304347499999996,"midi":35,"time":2.608695,"velocity":0.3937007874015748},{"duration":0.13043475000000004,"midi":42,"time":3.1304339999999997,"velocity":0.3937007874015748},{"duration":0.13043475000000004,"midi":41,"time":3.1304339999999997,"velocity":0.3937007874015748},{"duration":0.13043475000000004,"midi":35,"time":3.6521729999999994,"velocity":0.3937007874015748},{"duration":0.13043475000000004,"midi":42,"time":4.173912,"velocity":0.3937007874015748},{"duration":0.13043475000000004,"midi":41,"time":4.173912,"velocity":0.3937007874015748},{"duration":0.13043475000000004,"midi":35,"time":4.695651,"velocity":0.3937007874015748},{"duration":0.13043474999999916,"midi":42,"time":5.21739,"velocity":0.3937007874015748},{"duration":0.13043474999999916,"midi":41,"time":5.21739,"velocity":0.3937007874015748},{"duration":0.13043475000000004,"midi":35,"time":5.739128999999999,"velocity":0.3937007874015748},{"duration":0.13043475000000004,"midi":41,"time":6.260867999999999,"velocity":0.3937007874015748},{"duration":0.13043475000000004,"midi":42,"time":6.260867999999999,"velocity":0.3937007874015748},{"duration":0.13043475000000004,"midi":42,"time":6.782607,"velocity":0.3937007874015748},{"duration":0.13043475000000004,"midi":41,"time":6.782607,"velocity":0.3937007874015748},{"duration":0.13043475000000004,"midi":35,"time":6.782607,"velocity":0.3937007874015748},{"duration":0.13043475000000004,"midi":41,"time":7.304345999999999,"velocity":0.3937007874015748},{"duration":0.13043475000000004,"midi":42,"time":7.304345999999999,"velocity":0.3937007874015748},{"duration":0.13043475000000004,"midi":42,"time":7.565215499999999,"velocity":0.3937007874015748},{"duration":0.13043475000000004,"midi":41,"time":7.565215499999999,"velocity":0.3937007874015748},{"duration":0.13043475000000004,"midi":42,"time":7.826084999999999,"velocity":0.3937007874015748},{"duration":0.13043475000000004,"midi":41,"time":7.826084999999999,"velocity":0.3937007874015748},{"duration":0.13043475000000004,"midi":35,"time":7.826084999999999,"velocity":0.3937007874015748},{"duration":0.13043475000000093,"midi":42,"time":8.0869545,"velocity":0.3937007874015748},{"duration":0.13043475000000093,"midi":41,"time":8.0869545,"velocity":0.3937007874015748},{"duration":0.13043474999999916,"midi":42,"time":8.347824,"velocity":0.3937007874015748},{"duration":0.13043474999999916,"midi":41,"time":8.347824,"velocity":0.3937007874015748},{"duration":0.13043474999999916,"midi":57,"time":8.347824,"velocity":0.3937007874015748},{"duration":0.13043474999999916,"midi":35,"time":8.869563,"velocity":0.3937007874015748},{"duration":0.13043474999999916,"midi":41,"time":9.391302,"velocity":0.3937007874015748},{"duration":0.13043474999999916,"midi":42,"time":9.391302,"velocity":0.3937007874015748},{"duration":0.13043474999999916,"midi":35,"time":9.913041,"velocity":0.3937007874015748},{"duration":0.13043474999999916,"midi":42,"time":10.43478,"velocity":0.3937007874015748},{"duration":0.13043474999999916,"midi":41,"time":10.43478,"velocity":0.3937007874015748},{"duration":0.13043475000000093,"midi":35,"time":10.956518999999998,"velocity":0.3937007874015748},{"duration":0.13043475000000093,"midi":42,"time":11.478257999999999,"velocity":0.3937007874015748},{"duration":0.13043475000000093,"midi":41,"time":11.478257999999999,"velocity":0.3937007874015748},{"duration":0.13043475000000093,"midi":35,"time":11.999996999999999,"velocity":0.3937007874015748},{"duration":0.13043474999999916,"midi":41,"time":12.521735999999999,"velocity":0.3937007874015748},{"duration":0.13043474999999916,"midi":42,"time":12.521735999999999,"velocity":0.3937007874015748},{"duration":0.13043474999999916,"midi":35,"time":13.043474999999999,"velocity":0.3937007874015748},{"duration":0.13043474999999916,"midi":42,"time":13.565214,"velocity":0.3937007874015748},{"duration":0.13043474999999916,"midi":41,"time":13.565214,"velocity":0.3937007874015748},{"duration":0.13043474999999916,"midi":35,"time":14.086953,"velocity":0.3937007874015748},{"duration":0.13043475000000093,"midi":41,"time":14.608691999999998,"velocity":0.3937007874015748},{"duration":0.13043475000000093,"midi":42,"time":14.608691999999998,"velocity":0.3937007874015748},{"duration":0.13043475000000093,"midi":41,"time":15.130430999999998,"velocity":0.3937007874015748},{"duration":0.13043475000000093,"midi":42,"time":15.130430999999998,"velocity":0.3937007874015748},{"duration":0.13043475000000093,"midi":35,"time":15.130430999999998,"velocity":0.3937007874015748},{"duration":0.13043475000000093,"midi":41,"time":15.652169999999998,"velocity":0.3937007874015748},{"duration":0.13043475000000093,"midi":42,"time":15.652169999999998,"velocity":0.3937007874015748},{"duration":0.13043475000000093,"midi":42,"time":15.913039499999998,"velocity":0.3937007874015748},{"duration":0.13043475000000093,"midi":41,"time":15.913039499999998,"velocity":0.3937007874015748},{"duration":0.13043474999999916,"midi":41,"time":16.173909,"velocity":0.3937007874015748},{"duration":0.13043474999999916,"midi":35,"time":16.173909,"velocity":0.3937007874015748},{"duration":0.13043474999999916,"midi":42,"time":16.173909,"velocity":0.3937007874015748},{"duration":0.13043474999999916,"midi":42,"time":16.4347785,"velocity":0.3937007874015748},{"duration":0.13043474999999916,"midi":41,"time":16.4347785,"velocity":0.3937007874015748},{"duration":0.13043474999999916,"midi":41,"time":16.695648,"velocity":0.3937007874015748},{"duration":0.13043474999999916,"midi":42,"time":16.695648,"velocity":0.3937007874015748},{"duration":0.13043474999999916,"midi":57,"time":16.695648,"velocity":0.3937007874015748},{"duration":0.13043474999999916,"midi":35,"time":17.217387,"velocity":0.3937007874015748},{"duration":0.13043474999999916,"midi":41,"time":17.739126,"velocity":0.3937007874015748},{"duration":0.13043474999999916,"midi":42,"time":17.739126,"velocity":0.3937007874015748},{"duration":0.13043474999999916,"midi":35,"time":18.260865,"velocity":0.3937007874015748},{"duration":0.13043474999999916,"midi":41,"time":18.782604,"velocity":0.3937007874015748},{"duration":0.13043474999999916,"midi":42,"time":18.782604,"velocity":0.3937007874015748},{"duration":0.13043474999999916,"midi":35,"time":19.304343,"velocity":0.3937007874015748},{"duration":0.13043474999999916,"midi":42,"time":19.826082,"velocity":0.3937007874015748},{"duration":0.13043474999999916,"midi":41,"time":19.826082,"velocity":0.3937007874015748},{"duration":0.13043474999999916,"midi":35,"time":20.347821,"velocity":0.3937007874015748},{"duration":0.13043474999999916,"midi":42,"time":20.86956,"velocity":0.3937007874015748},{"duration":0.13043474999999916,"midi":41,"time":20.86956,"velocity":0.3937007874015748},{"duration":0.1304347500000027,"midi":35,"time":21.391298999999997,"velocity":0.3937007874015748},{"duration":0.1304347500000027,"midi":42,"time":21.913037999999997,"velocity":0.3937007874015748},{"duration":0.1304347500000027,"midi":41,"time":21.913037999999997,"velocity":0.3937007874015748},{"duration":0.1304347500000027,"midi":35,"time":22.434776999999997,"velocity":0.3937007874015748},{"duration":0.13043474999999916,"midi":42,"time":22.956515999999997,"velocity":0.3937007874015748},{"duration":0.13043474999999916,"midi":41,"time":22.956515999999997,"velocity":0.3937007874015748},{"duration":0.13043474999999916,"midi":35,"time":23.478254999999997,"velocity":0.3937007874015748},{"duration":0.13043474999999916,"midi":42,"time":23.478254999999997,"velocity":0.3937007874015748},{"duration":0.13043474999999916,"midi":41,"time":23.478254999999997,"velocity":0.3937007874015748},{"duration":0.13043474999999916,"midi":41,"time":23.999993999999997,"velocity":0.3937007874015748},{"duration":0.13043474999999916,"midi":42,"time":23.999993999999997,"velocity":0.3937007874015748},{"duration":0.13043474999999916,"midi":42,"time":24.2608635,"velocity":0.3937007874015748},{"duration":0.13043474999999916,"midi":41,"time":24.2608635,"velocity":0.3937007874015748},{"duration":0.13043474999999916,"midi":42,"time":24.521732999999998,"velocity":0.3937007874015748},{"duration":0.13043474999999916,"midi":41,"time":24.521732999999998,"velocity":0.3937007874015748},{"duration":0.13043474999999916,"midi":35,"time":24.521732999999998,"velocity":0.3937007874015748},{"duration":0.13043474999999916,"midi":42,"time":24.7826025,"velocity":0.3937007874015748},{"duration":0.13043474999999916,"midi":41,"time":24.7826025,"velocity":0.3937007874015748},{"duration":0.13043474999999916,"midi":57,"time":25.043471999999998,"velocity":0.3937007874015748},{"duration":0.13043474999999916,"midi":42,"time":25.043471999999998,"velocity":0.3937007874015748},{"duration":0.13043474999999916,"midi":41,"time":25.043471999999998,"velocity":0.3937007874015748},{"duration":0.13043474999999916,"midi":35,"time":25.565210999999998,"velocity":0.3937007874015748},{"duration":0.13043474999999916,"midi":41,"time":26.086949999999998,"velocity":0.3937007874015748},{"duration":0.13043474999999916,"midi":42,"time":26.086949999999998,"velocity":0.3937007874015748},{"duration":0.13043474999999916,"midi":35,"time":26.608689,"velocity":0.3937007874015748},{"duration":0.13043474999999916,"midi":42,"time":27.130428,"velocity":0.3937007874015748},{"duration":0.13043474999999916,"midi":41,"time":27.130428,"velocity":0.3937007874015748},{"duration":0.13043474999999916,"midi":35,"time":27.652167,"velocity":0.3937007874015748},{"duration":0.13043474999999916,"midi":41,"time":28.173906,"velocity":0.3937007874015748},{"duration":0.13043474999999916,"midi":42,"time":28.173906,"velocity":0.3937007874015748},{"duration":0.13043474999999916,"midi":35,"time":28.695645,"velocity":0.3937007874015748},{"duration":0.1304347500000027,"midi":42,"time":29.217383999999996,"velocity":0.3937007874015748},{"duration":0.1304347500000027,"midi":41,"time":29.217383999999996,"velocity":0.3937007874015748},{"duration":0.1304347500000027,"midi":35,"time":29.739122999999996,"velocity":0.3937007874015748},{"duration":0.1304347500000027,"midi":42,"time":30.260861999999996,"velocity":0.3937007874015748},{"duration":0.1304347500000027,"midi":41,"time":30.260861999999996,"velocity":0.3937007874015748},{"duration":0.1304347500000027,"midi":35,"time":30.782600999999996,"velocity":0.3937007874015748},{"duration":0.13043474999999916,"midi":41,"time":31.304339999999996,"velocity":0.3937007874015748},{"duration":0.13043474999999916,"midi":42,"time":31.304339999999996,"velocity":0.3937007874015748},{"duration":0.13043474999999916,"midi":41,"time":31.826078999999996,"velocity":0.3937007874015748},{"duration":0.13043474999999916,"midi":42,"time":31.826078999999996,"velocity":0.3937007874015748},{"duration":0.13043474999999916,"midi":35,"time":31.826078999999996,"velocity":0.3937007874015748},{"duration":0.13043474999999916,"midi":42,"time":32.347818,"velocity":0.3937007874015748},{"duration":0.13043474999999916,"midi":41,"time":32.347818,"velocity":0.3937007874015748},{"duration":0.13043474999999916,"midi":41,"time":32.608687499999995,"velocity":0.3937007874015748},{"duration":0.13043474999999916,"midi":42,"time":32.608687499999995,"velocity":0.3937007874015748},{"duration":0.13043474999999916,"midi":35,"time":32.869557,"velocity":0.3937007874015748},{"duration":0.13043474999999916,"midi":42,"time":32.869557,"velocity":0.3937007874015748},{"duration":0.13043474999999916,"midi":41,"time":32.869557,"velocity":0.3937007874015748},{"duration":0.13043474999999916,"midi":42,"time":33.1304265,"velocity":0.3937007874015748},{"duration":0.13043474999999916,"midi":41,"time":33.1304265,"velocity":0.3937007874015748},{"duration":0.13043474999999916,"midi":41,"time":33.391296,"velocity":0.3937007874015748},{"duration":0.13043474999999916,"midi":42,"time":33.391296,"velocity":0.3937007874015748},{"duration":0.13043474999999916,"midi":57,"time":33.391296,"velocity":0.3937007874015748},{"duration":0.13043475000000626,"midi":35,"time":33.913034999999994,"velocity":0.3937007874015748},{"duration":0.13043474999999916,"midi":41,"time":34.434774,"velocity":0.3937007874015748},{"duration":0.13043474999999916,"midi":42,"time":34.434774,"velocity":0.3937007874015748},{"duration":0.13043475000000626,"midi":35,"time":34.956512999999994,"velocity":0.3937007874015748},{"duration":0.13043474999999916,"midi":41,"time":35.478252,"velocity":0.3937007874015748},{"duration":0.13043474999999916,"midi":42,"time":35.478252,"velocity":0.3937007874015748},{"duration":0.13043474999999916,"midi":35,"time":35.999990999999994,"velocity":0.3937007874015748},{"duration":0.13043474999999916,"midi":41,"time":36.52173,"velocity":0.3937007874015748},{"duration":0.13043474999999916,"midi":42,"time":36.52173,"velocity":0.3937007874015748},{"duration":0.13043474999999916,"midi":35,"time":37.043468999999995,"velocity":0.3937007874015748},{"duration":0.13043474999999916,"midi":41,"time":37.565208,"velocity":0.3937007874015748},{"duration":0.13043474999999916,"midi":57,"time":37.565208,"velocity":0.3937007874015748},{"duration":0.13043474999999916,"midi":42,"time":37.565208,"velocity":0.3937007874015748},{"duration":0.13043474999999916,"midi":35,"time":38.086946999999995,"velocity":0.3937007874015748},{"duration":0.13043474999999916,"midi":41,"time":38.608686,"velocity":0.3937007874015748},{"duration":0.13043474999999916,"midi":42,"time":38.608686,"velocity":0.3937007874015748},{"duration":0.13043474999999916,"midi":35,"time":39.130424999999995,"velocity":0.3937007874015748},{"duration":0.13043474999999916,"midi":41,"time":39.652164,"velocity":0.3937007874015748},{"duration":0.13043474999999916,"midi":42,"time":39.652164,"velocity":0.3937007874015748},{"duration":0.13043474999999916,"midi":35,"time":40.173902999999996,"velocity":0.3937007874015748},{"duration":0.13043474999999916,"midi":42,"time":40.695642,"velocity":0.3937007874015748},{"duration":0.13043474999999916,"midi":41,"time":40.695642,"velocity":0.3937007874015748},{"duration":0.13043474999999916,"midi":35,"time":41.217380999999996,"velocity":0.3937007874015748},{"duration":0.13043474999999916,"midi":57,"time":41.73912,"velocity":0.3937007874015748},{"duration":0.13043474999999916,"midi":41,"time":41.73912,"velocity":0.3937007874015748},{"duration":0.13043474999999916,"midi":42,"time":41.73912,"velocity":0.3937007874015748},{"duration":0.13043474999999916,"midi":35,"time":42.260858999999996,"velocity":0.3937007874015748},{"duration":0.13043475000000626,"midi":41,"time":42.78259799999999,"velocity":0.3937007874015748},{"duration":0.13043475000000626,"midi":42,"time":42.78259799999999,"velocity":0.3937007874015748},{"duration":0.13043474999999916,"midi":35,"time":43.304337,"velocity":0.3937007874015748},{"duration":0.13043474999999916,"midi":42,"time":43.82607599999999,"velocity":0.3937007874015748},{"duration":0.13043474999999916,"midi":41,"time":43.82607599999999,"velocity":0.3937007874015748},{"duration":0.13043474999999916,"midi":35,"time":44.347815,"velocity":0.3937007874015748},{"duration":0.13043474999999916,"midi":41,"time":44.869553999999994,"velocity":0.3937007874015748},{"duration":0.13043474999999916,"midi":42,"time":44.869553999999994,"velocity":0.3937007874015748},{"duration":0.13043474999999916,"midi":35,"time":45.391293,"velocity":0.3937007874015748},{"duration":0.13043474999999916,"midi":41,"time":45.913031999999994,"velocity":0.3937007874015748},{"duration":0.13043474999999916,"midi":42,"time":45.913031999999994,"velocity":0.3937007874015748},{"duration":0.13043474999999916,"midi":57,"time":45.913031999999994,"velocity":0.3937007874015748},{"duration":0.13043474999999916,"midi":35,"time":46.434771,"velocity":0.3937007874015748},{"duration":0.13043474999999916,"midi":41,"time":46.956509999999994,"velocity":0.3937007874015748},{"duration":0.13043474999999916,"midi":42,"time":46.956509999999994,"velocity":0.3937007874015748},{"duration":0.13043474999999916,"midi":35,"time":47.478249,"velocity":0.3937007874015748},{"duration":0.13043474999999916,"midi":41,"time":47.999987999999995,"velocity":0.3937007874015748},{"duration":0.13043474999999916,"midi":42,"time":47.999987999999995,"velocity":0.3937007874015748},{"duration":0.13043474999999916,"midi":35,"time":48.521727,"velocity":0.3937007874015748},{"duration":0.13043474999999916,"midi":41,"time":48.521727,"velocity":0.3937007874015748},{"duration":0.13043474999999916,"midi":42,"time":48.521727,"velocity":0.3937007874015748},{"duration":0.13043474999999916,"midi":41,"time":49.043465999999995,"velocity":0.3937007874015748},{"duration":0.13043474999999916,"midi":42,"time":49.043465999999995,"velocity":0.3937007874015748},{"duration":0.13043474999999916,"midi":41,"time":49.30433549999999,"velocity":0.3937007874015748},{"duration":0.13043474999999916,"midi":42,"time":49.30433549999999,"velocity":0.3937007874015748},{"duration":0.13043474999999916,"midi":42,"time":49.565205,"velocity":0.3937007874015748},{"duration":0.13043474999999916,"midi":35,"time":49.565205,"velocity":0.3937007874015748},{"duration":0.13043474999999916,"midi":41,"time":49.565205,"velocity":0.3937007874015748},{"duration":0.13043474999999916,"midi":41,"time":49.8260745,"velocity":0.3937007874015748},{"duration":0.13043474999999916,"midi":42,"time":49.8260745,"velocity":0.3937007874015748},{"duration":0.13043474999999916,"midi":42,"time":50.086943999999995,"velocity":0.3937007874015748},{"duration":0.13043474999999916,"midi":41,"time":50.086943999999995,"velocity":0.3937007874015748},{"duration":0.13043474999999916,"midi":57,"time":50.086943999999995,"velocity":0.3937007874015748},{"duration":0.13043475000000626,"midi":35,"time":50.60868299999999,"velocity":0.3937007874015748},{"duration":0.13043474999999916,"midi":41,"time":51.130421999999996,"velocity":0.3937007874015748},{"duration":0.13043474999999916,"midi":42,"time":51.130421999999996,"velocity":0.3937007874015748},{"duration":0.13043475000000626,"midi":35,"time":51.65216099999999,"velocity":0.3937007874015748},{"duration":0.13043474999999916,"midi":41,"time":52.173899999999996,"velocity":0.3937007874015748},{"duration":0.13043474999999916,"midi":42,"time":52.173899999999996,"velocity":0.3937007874015748},{"duration":0.13043474999999916,"midi":35,"time":52.69563899999999,"velocity":0.3937007874015748},{"duration":0.13043474999999916,"midi":41,"time":53.217378,"velocity":0.3937007874015748},{"duration":0.13043474999999916,"midi":42,"time":53.217378,"velocity":0.3937007874015748},{"duration":0.13043474999999916,"midi":35,"time":53.73911699999999,"velocity":0.3937007874015748},{"duration":0.13043474999999916,"midi":41,"time":54.260856,"velocity":0.3937007874015748},{"duration":0.13043474999999916,"midi":42,"time":54.260856,"velocity":0.3937007874015748},{"duration":0.13043474999999916,"midi":35,"time":54.78259499999999,"velocity":0.3937007874015748},{"duration":0.13043474999999916,"midi":42,"time":55.304334,"velocity":0.3937007874015748},{"duration":0.13043474999999916,"midi":41,"time":55.304334,"velocity":0.3937007874015748},{"duration":0.13043474999999916,"midi":35,"time":55.826072999999994,"velocity":0.3937007874015748},{"duration":0.13043474999999916,"midi":41,"time":56.347812,"velocity":0.3937007874015748},{"duration":0.13043474999999916,"midi":42,"time":56.347812,"velocity":0.3937007874015748},{"duration":0.13043474999999916,"midi":35,"time":56.869550999999994,"velocity":0.3937007874015748},{"duration":0.13043474999999916,"midi":42,"time":56.869550999999994,"velocity":0.3937007874015748},{"duration":0.13043474999999916,"midi":41,"time":56.869550999999994,"velocity":0.3937007874015748},{"duration":0.13043474999999916,"midi":42,"time":57.39129,"velocity":0.3937007874015748},{"duration":0.13043474999999916,"midi":41,"time":57.39129,"velocity":0.3937007874015748},{"duration":0.13043474999999916,"midi":42,"time":57.652159499999996,"velocity":0.3937007874015748},{"duration":0.13043474999999916,"midi":41,"time":57.652159499999996,"velocity":0.3937007874015748},{"duration":0.13043474999999916,"midi":41,"time":57.913028999999995,"velocity":0.3937007874015748},{"duration":0.13043474999999916,"midi":42,"time":57.913028999999995,"velocity":0.3937007874015748},{"duration":0.13043474999999916,"midi":35,"time":57.913028999999995,"velocity":0.3937007874015748},{"duration":0.13043474999999916,"midi":42,"time":58.17389849999999,"velocity":0.3937007874015748},{"duration":0.13043474999999916,"midi":41,"time":58.17389849999999,"velocity":0.3937007874015748},{"duration":0.13043475000000626,"midi":42,"time":58.43476799999999,"velocity":0.3937007874015748},{"duration":0.13043475000000626,"midi":41,"time":58.43476799999999,"velocity":0.3937007874015748},{"duration":0.13043475000000626,"midi":57,"time":58.43476799999999,"velocity":0.3937007874015748},{"duration":0.13043474999999916,"midi":35,"time":58.956506999999995,"velocity":0.3937007874015748},{"duration":0.13043475000000626,"midi":42,"time":59.47824599999999,"velocity":0.3937007874015748},{"duration":0.13043475000000626,"midi":41,"time":59.47824599999999,"velocity":0.3937007874015748},{"duration":0.13043474999999916,"midi":35,"time":59.999984999999995,"velocity":0.3937007874015748},{"duration":0.13043474999999916,"midi":41,"time":60.52172399999999,"velocity":0.3937007874015748},{"duration":0.13043474999999916,"midi":42,"time":60.52172399999999,"velocity":0.3937007874015748},{"duration":0.13043474999999916,"midi":35,"time":61.043462999999996,"velocity":0.3937007874015748},{"duration":0.13043474999999916,"midi":41,"time":61.56520199999999,"velocity":0.3937007874015748},{"duration":0.13043474999999916,"midi":42,"time":61.56520199999999,"velocity":0.3937007874015748},{"duration":0.13043474999999916,"midi":35,"time":62.086940999999996,"velocity":0.3937007874015748},{"duration":0.13043474999999916,"midi":41,"time":62.60867999999999,"velocity":0.3937007874015748},{"duration":0.13043474999999916,"midi":42,"time":62.60867999999999,"velocity":0.3937007874015748},{"duration":0.13043474999999916,"midi":35,"time":63.130418999999996,"velocity":0.3937007874015748},{"duration":0.13043474999999916,"midi":42,"time":63.65215799999999,"velocity":0.3937007874015748},{"duration":0.13043474999999916,"midi":41,"time":63.65215799999999,"velocity":0.3937007874015748},{"duration":0.13043474999999205,"midi":35,"time":64.173897,"velocity":0.3937007874015748},{"duration":0.13043475000000626,"midi":42,"time":64.695636,"velocity":0.3937007874015748},{"duration":0.13043475000000626,"midi":41,"time":64.695636,"velocity":0.3937007874015748},{"duration":0.13043475000000626,"midi":42,"time":65.21737499999999,"velocity":0.3937007874015748},{"duration":0.13043475000000626,"midi":41,"time":65.21737499999999,"velocity":0.3937007874015748},{"duration":0.13043475000000626,"midi":35,"time":65.21737499999999,"velocity":0.3937007874015748},{"duration":0.13043474999999205,"midi":42,"time":65.739114,"velocity":0.3937007874015748},{"duration":0.13043474999999205,"midi":41,"time":65.739114,"velocity":0.3937007874015748},{"duration":0.13043474999999205,"midi":42,"time":65.9999835,"velocity":0.3937007874015748},{"duration":0.13043474999999205,"midi":41,"time":65.9999835,"velocity":0.3937007874015748},{"duration":0.13043474999999205,"midi":42,"time":66.260853,"velocity":0.3937007874015748},{"duration":0.13043474999999205,"midi":41,"time":66.260853,"velocity":0.3937007874015748},{"duration":0.13043474999999205,"midi":35,"time":66.260853,"velocity":0.3937007874015748},{"duration":0.13043474999999205,"midi":42,"time":66.5217225,"velocity":0.3937007874015748},{"duration":0.13043474999999205,"midi":41,"time":66.5217225,"velocity":0.3937007874015748},{"duration":0.13043474999999205,"midi":41,"time":83.47824,"velocity":0.3937007874015748},{"duration":0.13043474999999205,"midi":42,"time":83.47824,"velocity":0.3937007874015748},{"duration":0.13043474999999205,"midi":49,"time":83.47824,"velocity":0.3937007874015748},{"duration":0.13043474999999205,"midi":38,"time":83.999979,"velocity":0.3937007874015748},{"duration":0.13043475000000626,"midi":42,"time":84.52171799999999,"velocity":0.3937007874015748},{"duration":0.13043475000000626,"midi":41,"time":84.52171799999999,"velocity":0.3937007874015748},{"duration":0.13043475000000626,"midi":38,"time":85.04345699999999,"velocity":0.3937007874015748},{"duration":0.13043475000000626,"midi":41,"time":85.56519599999999,"velocity":0.3937007874015748},{"duration":0.13043475000000626,"midi":42,"time":85.56519599999999,"velocity":0.3937007874015748},{"duration":0.13043474999999205,"midi":38,"time":86.086935,"velocity":0.3937007874015748},{"duration":0.13043474999999205,"midi":42,"time":86.608674,"velocity":0.3937007874015748},{"duration":0.13043474999999205,"midi":41,"time":86.608674,"velocity":0.3937007874015748},{"duration":0.13043475000000626,"midi":38,"time":87.13041299999999,"velocity":0.3937007874015748},{"duration":0.13043475000000626,"midi":42,"time":87.65215199999999,"velocity":0.3937007874015748},{"duration":0.13043475000000626,"midi":41,"time":87.65215199999999,"velocity":0.3937007874015748},{"duration":0.13043475000000626,"midi":49,"time":87.65215199999999,"velocity":0.3937007874015748},{"duration":0.13043474999999205,"midi":38,"time":88.173891,"velocity":0.3937007874015748},{"duration":0.13043474999999205,"midi":42,"time":88.69563,"velocity":0.3937007874015748},{"duration":0.13043474999999205,"midi":41,"time":88.69563,"velocity":0.3937007874015748},{"duration":0.13043475000000626,"midi":38,"time":89.21736899999999,"velocity":0.3937007874015748},{"duration":0.13043475000000626,"midi":41,"time":89.73910799999999,"velocity":0.3937007874015748},{"duration":0.13043475000000626,"midi":42,"time":89.73910799999999,"velocity":0.3937007874015748},{"duration":0.13043474999999205,"midi":38,"time":90.260847,"velocity":0.3937007874015748},{"duration":0.13043474999999205,"midi":42,"time":90.782586,"velocity":0.3937007874015748},{"duration":0.13043474999999205,"midi":41,"time":90.782586,"velocity":0.3937007874015748},{"duration":0.13043475000000626,"midi":38,"time":91.30432499999999,"velocity":0.3937007874015748},{"duration":0.13043475000000626,"midi":41,"time":91.82606399999999,"velocity":0.3937007874015748},{"duration":0.13043475000000626,"midi":49,"time":91.82606399999999,"velocity":0.3937007874015748},{"duration":0.13043475000000626,"midi":42,"time":91.82606399999999,"velocity":0.3937007874015748},{"duration":0.13043475000000626,"midi":38,"time":92.34780299999998,"velocity":0.3937007874015748},{"duration":0.13043474999999205,"midi":42,"time":92.869542,"velocity":0.3937007874015748},{"duration":0.13043474999999205,"midi":41,"time":92.869542,"velocity":0.3937007874015748},{"duration":0.13043475000000626,"midi":38,"time":93.39128099999999,"velocity":0.3937007874015748},{"duration":0.13043475000000626,"midi":41,"time":93.91301999999999,"velocity":0.3937007874015748},{"duration":0.13043475000000626,"midi":42,"time":93.91301999999999,"velocity":0.3937007874015748},{"duration":0.13043475000000626,"midi":38,"time":94.43475899999999,"velocity":0.3937007874015748},{"duration":0.13043474999999205,"midi":42,"time":94.956498,"velocity":0.3937007874015748},{"duration":0.13043474999999205,"midi":41,"time":94.956498,"velocity":0.3937007874015748},{"duration":0.13043474999999205,"midi":38,"time":95.478237,"velocity":0.3937007874015748},{"duration":0.13043475000000626,"midi":42,"time":95.99997599999999,"velocity":0.3937007874015748},{"duration":0.13043475000000626,"midi":41,"time":95.99997599999999,"velocity":0.3937007874015748},{"duration":0.13043475000000626,"midi":49,"time":95.99997599999999,"velocity":0.3937007874015748},{"duration":0.13043475000000626,"midi":38,"time":96.52171499999999,"velocity":0.3937007874015748},{"duration":0.13043474999999205,"midi":42,"time":97.043454,"velocity":0.3937007874015748},{"duration":0.13043474999999205,"midi":41,"time":97.043454,"velocity":0.3937007874015748},{"duration":0.13043474999999205,"midi":38,"time":97.565193,"velocity":0.3937007874015748},{"duration":0.13043475000000626,"midi":41,"time":98.08693199999999,"velocity":0.3937007874015748},{"duration":0.13043475000000626,"midi":42,"time":98.08693199999999,"velocity":0.3937007874015748},{"duration":0.13043475000000626,"midi":38,"time":98.60867099999999,"velocity":0.3937007874015748},{"duration":0.13043474999999205,"midi":41,"time":99.13041,"velocity":0.3937007874015748},{"duration":0.13043474999999205,"midi":42,"time":99.13041,"velocity":0.3937007874015748},{"duration":0.13043474999999205,"midi":57,"time":99.652149,"velocity":0.3937007874015748},{"duration":0.13043474999999205,"midi":53,"time":99.652149,"velocity":0.3937007874015748},{"duration":0.13043474999999205,"midi":57,"time":99.652149,"velocity":0.3937007874015748},{"duration":0.13043474999999205,"midi":41,"time":99.652149,"velocity":0.3937007874015748},{"duration":0.13043474999999205,"midi":57,"time":99.652149,"velocity":0.3937007874015748},{"duration":0.13043474999999205,"midi":42,"time":99.652149,"velocity":0.3937007874015748},{"duration":0.13043474999999205,"midi":54,"time":99.652149,"velocity":0.3937007874015748},{"duration":0.13043474999999205,"midi":55,"time":99.652149,"velocity":0.3937007874015748},{"duration":0.13043474999999205,"midi":41,"time":99.652149,"velocity":0.3937007874015748},{"duration":0.13043474999999205,"midi":56,"time":99.652149,"velocity":0.3937007874015748},{"duration":0.13043474999999205,"midi":38,"time":99.652149,"velocity":0.3937007874015748},{"duration":0.13043474999999205,"midi":49,"time":99.652149,"velocity":0.3937007874015748}]}]}
