{"tracks":[{"instrument":{"family":"drums","number":0,"name":"standard kit"},"notes":[{"duration":0.10714274999999951,"midi":40,"time":13.874986125000001,"velocity":0.4094488188976378},{"duration":0.10714274999999951,"midi":40,"time":14.303557125000001,"velocity":0.4094488188976378},{"duration":0.10714274999999951,"midi":40,"time":14.732128125000001,"velocity":0.4094488188976378},{"duration":0.10714275000000129,"midi":40,"time":15.160699125,"velocity":0.4094488188976378},{"duration":0.10714275000000129,"midi":40,"time":15.589270125,"velocity":0.4094488188976378},{"duration":0.10714275000000129,"midi":40,"time":16.017841125,"velocity":0.4094488188976378},{"duration":0.10714274999999773,"midi":40,"time":16.446412125000002,"velocity":0.4094488188976378},{"duration":0.10714275000000129,"midi":40,"time":16.874983125,"velocity":0.4094488188976378},{"duration":0.10714275000000129,"midi":40,"time":17.303554125,"velocity":0.4094488188976378},{"duration":0.10714274999999773,"midi":40,"time":17.732125125000003,"velocity":0.4094488188976378},{"duration":0.10714275000000129,"midi":40,"time":18.160696125,"velocity":0.4094488188976378},{"duration":0.10714275000000129,"midi":40,"time":18.374981625,"velocity":0.4094488188976378},{"duration":0.10714274999999773,"midi":40,"time":18.589267125000003,"velocity":0.4094488188976378},{"duration":0.10714275000000129,"midi":40,"time":18.696409875,"velocity":0.4094488188976378},{"duration":0.10714275000000129,"midi":40,"time":19.017838125,"velocity":0.4094488188976378},{"duration":0.10714274999999773,"midi":40,"time":19.446409125000002,"velocity":0.4094488188976378},{"duration":0.10714275000000129,"midi":40,"time":19.874980125,"velocity":0.4094488188976378},{"duration":0.10714274999999773,"midi":40,"time":20.089265625000003,"velocity":0.4094488188976378},{"duration":0.10714275000000129,"midi":40,"time":20.196408375,"velocity":0.4094488188976378},{"duration":0.05357137500000064,"midi":40,"time":20.303551125000002,"velocity":0.4094488188976378},{"duration":0.05357137500000064,"midi":40,"time":20.357122500000003,"velocity":0.29133858267716534},{"duration":0.10714274999999773,"midi":40,"time":20.410693875000003,"velocity":0.4094488188976378},{"duration":0.10714275000000129,"midi":40,"time":20.732122125,"velocity":0.4094488188976378},{"duration":0.10714275000000129,"midi":40,"time":21.160693125,"velocity":0.4094488188976378},{"duration":0.10714274999999773,"midi":40,"time":21.589264125000003,"velocity":0.4094488188976378},{"duration":0.10714275000000129,"midi":40,"time":22.017835125,"velocity":0.4094488188976378},{"duration":0.10714274999999773,"midi":40,"time":22.446406125000003,"velocity":0.4094488188976378},{"duration":0.10714275000000129,"midi":40,"time":22.874977125,"velocity":0.4094488188976378},{"duration":0.10714274999999773,"midi":40,"time":23.303548125000002,"velocity":0.4094488188976378},{"duration":0.10714275000000129,"midi":40,"time":23.732119125,"velocity":0.4094488188976378},{"duration":0.10714275000000129,"midi":40,"time":24.160690125000002,"velocity":0.4094488188976378},{"duration":0.10714274999999773,"midi":40,"time":24.589261125000004,"velocity":0.4094488188976378},{"duration":0.10714275000000129,"midi":40,"time":25.017832125,"velocity":0.4094488188976378},{"duration":0.10714275000000129,"midi":40,"time":25.232117625,"velocity":0.4094488188976378},{"duration":0.10714274999999773,"midi":40,"time":25.446403125000003,"velocity":0.4094488188976378},{"duration":0.10714275000000129,"midi":40,"time":25.553545875,"velocity":0.4094488188976378},{"duration":0.10714275000000129,"midi":40,"time":25.874974125,"velocity":0.4094488188976378},{"duration":0.10714274999999773,"midi":40,"time":26.303545125000003,"velocity":0.4094488188976378},{"duration":0.10714275000000129,"midi":40,"time":26.732116125,"velocity":0.4094488188976378},{"duration":0.10714274999999773,"midi":40,"time":26.946401625000004,"velocity":0.4094488188976378},{"duration":0.10714275000000129,"midi":40,"time":27.053544375,"velocity":0.4094488188976378},{"duration":0.05357137500000064,"midi":40,"time":27.160687125000003,"velocity":0.4094488188976378},{"duration":0.05357137500000064,"midi":40,"time":27.214258500000003,"velocity":0.29133858267716534},{"duration":0.10714274999999773,"midi":40,"time":27.267829875000004,"velocity":0.4094488188976378},{"duration":0.10714275000000129,"midi":40,"time":27.589258125,"velocity":0.4094488188976378},{"duration":0.10714275000000129,"midi":40,"time":28.017829125000002,"velocity":0.4094488188976378},{"duration":0.10714274999999773,"midi":40,"time":28.446400125000004,"velocity":0.4094488188976378},{"duration":0.10714275000000129,"midi":40,"time":28.874971125000002,"velocity":0.4094488188976378},{"duration":0.10714274999999773,"midi":40,"time":29.303542125000003,"velocity":0.4094488188976378},{"duration":0.10714275000000129,"midi":40,"time":29.732113125,"velocity":0.4094488188976378},{"duration":0.10714274999999773,"midi":40,"time":30.160684125000003,"velocity":0.4094488188976378},{"duration":0.10714275000000129,"midi":40,"time":30.589255125,"velocity":0.4094488188976378},{"duration":0.10714275000000129,"midi":40,"time":31.017826125000003,"velocity":0.4094488188976378},{"duration":0.10714274999999773,"midi":40,"time":31.446397125000004,"velocity":0.4094488188976378},{"duration":0.10714275000000129,"midi":40,"time":31.874968125000002,"velocity":0.4094488188976378},{"duration":0.10714275000000129,"midi":40,"time":32.089253625000005,"velocity":0.4094488188976378},{"duration":0.10714275000000129,"midi":40,"time":32.303539125,"velocity":0.4094488188976378},{"duration":0.10714275000000129,"midi":40,"time":32.410681875,"velocity":0.4094488188976378},{"duration":0.10714274999999418,"midi":40,"time":32.732110125000005,"velocity":0.4094488188976378},{"duration":0.10714275000000129,"midi":40,"time":33.160681125,"velocity":0.4094488188976378},{"duration":0.10714275000000129,"midi":40,"time":33.589252125,"velocity":0.4094488188976378},{"duration":0.10714275000000129,"midi":40,"time":33.803537625000004,"velocity":0.4094488188976378},{"duration":0.10714274999999418,"midi":40,"time":33.910680375000005,"velocity":0.4094488188976378},{"duration":0.053571375000004195,"midi":40,"time":34.017823125,"velocity":0.4094488188976378},{"duration":0.05357137499999709,"midi":40,"time":34.071394500000004,"velocity":0.29133858267716534},{"duration":0.10714275000000129,"midi":40,"time":34.124965875,"velocity":0.4094488188976378},{"duration":0.10714275000000129,"midi":40,"time":34.446394125000005,"velocity":0.4094488188976378},{"duration":0.10714275000000129,"midi":40,"time":34.874965125,"velocity":0.4094488188976378},{"duration":0.10714275000000129,"midi":40,"time":35.303536125,"velocity":0.4094488188976378},{"duration":0.10714274999999418,"midi":40,"time":35.732107125000006,"velocity":0.4094488188976378},{"duration":0.10714275000000129,"midi":40,"time":36.160678125000004,"velocity":0.4094488188976378},{"duration":0.10714275000000129,"midi":40,"time":36.589249125,"velocity":0.4094488188976378},{"duration":0.10714275000000129,"midi":40,"time":37.017820125,"velocity":0.4094488188976378},{"duration":0.10714275000000129,"midi":40,"time":37.446391125000005,"velocity":0.4094488188976378},{"duration":0.10714275000000129,"midi":40,"time":37.874962125,"velocity":0.4094488188976378},{"duration":0.10714275000000129,"midi":40,"time":38.303533125,"velocity":0.4094488188976378},{"duration":0.10714274999999418,"midi":40,"time":38.732104125000006,"velocity":0.4094488188976378},{"duration":0.10714275000000129,"midi":40,"time":38.946389625,"velocity":0.4094488188976378},{"duration":0.10714275000000129,"midi":40,"time":39.160675125000004,"velocity":0.4094488188976378},{"duration":0.10714274999999418,"midi":40,"time":39.267817875000006,"velocity":0.4094488188976378},{"duration":0.10714275000000129,"midi":40,"time":39.589246125,"velocity":0.4094488188976378},{"duration":0.10714275000000129,"midi":40,"time":40.017817125,"velocity":0.4094488188976378},{"duration":0.10714274999999418,"midi":40,"time":40.446388125000006,"velocity":0.4094488188976378},{"duration":0.10714275000000129,"midi":40,"time":40.660673625,"velocity":0.4094488188976378},{"duration":0.10714275000000129,"midi":40,"time":40.767816375,"velocity":0.4094488188976378},{"duration":0.05357137499999709,"midi":40,"time":40.874959125000004,"velocity":0.4094488188976378},{"duration":0.053571375000004195,"midi":40,"time":40.9285305,"velocity":0.29133858267716534},{"duration":0.10714275000000129,"midi":40,"time":40.982101875000005,"velocity":0.4094488188976378},{"duration":0.10714275000000129,"midi":40,"time":41.303530125,"velocity":0.4094488188976378},{"duration":0.10714274999999418,"midi":40,"time":41.73210112500001,"velocity":0.4094488188976378},{"duration":0.10714275000000129,"midi":40,"time":42.160672125000005,"velocity":0.4094488188976378},{"duration":0.10714275000000129,"midi":40,"time":42.589243125,"velocity":0.4094488188976378},{"duration":0.10714275000000129,"midi":40,"time":43.017814125,"velocity":0.4094488188976378},{"duration":0.10714274999999418,"midi":40,"time":43.446385125000006,"velocity":0.4094488188976378},{"duration":0.10714275000000129,"midi":40,"time":43.874956125000004,"velocity":0.4094488188976378},{"duration":0.10714275000000129,"midi":40,"time":44.303527125,"velocity":0.4094488188976378},{"duration":0.10714275000000129,"midi":40,"time":44.732098125,"velocity":0.4094488188976378},{"duration":0.10714275000000129,"midi":40,"time":45.160669125000005,"velocity":0.4094488188976378},{"duration":0.10714275000000129,"midi":40,"time":45.589240125,"velocity":0.4094488188976378},{"duration":0.10714275000000129,"midi":40,"time":45.803525625000006,"velocity":0.4094488188976378},{"duration":0.10714275000000129,"midi":40,"time":46.017811125,"velocity":0.4094488188976378},{"duration":0.10714275000000129,"midi":40,"time":46.124953875,"velocity":0.4094488188976378},{"duration":0.10714274999999418,"midi":40,"time":46.44638212500001,"velocity":0.4094488188976378},{"duration":0.10714275000000129,"midi":40,"time":46.874953125000005,"velocity":0.4094488188976378},{"duration":0.10714275000000129,"midi":40,"time":47.303524125,"velocity":0.4094488188976378},{"duration":0.10714275000000129,"midi":40,"time":47.517809625000005,"velocity":0.4094488188976378},{"duration":0.10714274999999418,"midi":40,"time":47.62495237500001,"velocity":0.4094488188976378},{"duration":0.053571375000004195,"midi":40,"time":47.732095125,"velocity":0.4094488188976378},{"duration":0.05357137499999709,"midi":40,"time":47.785666500000005,"velocity":0.29133858267716534},{"duration":0.10714275000000129,"midi":40,"time":47.839237875,"velocity":0.4094488188976378},{"duration":0.10714275000000129,"midi":40,"time":48.160666125000006,"velocity":0.4094488188976378},{"duration":0.10714275000000129,"midi":40,"time":48.589237125000004,"velocity":0.4094488188976378},{"duration":0.10714275000000129,"midi":40,"time":49.017808125,"velocity":0.4094488188976378},{"duration":0.10714274999999418,"midi":40,"time":49.44637912500001,"velocity":0.4094488188976378},{"duration":0.10714275000000129,"midi":40,"time":49.874950125000005,"velocity":0.4094488188976378},{"duration":0.10714275000000129,"midi":40,"time":50.303521125,"velocity":0.4094488188976378},{"duration":0.10714275000000129,"midi":40,"time":50.732092125,"velocity":0.4094488188976378},{"duration":0.10714275000000129,"midi":40,"time":51.160663125000006,"velocity":0.4094488188976378},{"duration":0.10714275000000129,"midi":40,"time":51.589234125000004,"velocity":0.4094488188976378},{"duration":0.10714275000000129,"midi":40,"time":52.017805125,"velocity":0.4094488188976378},{"duration":0.10714274999999418,"midi":40,"time":52.44637612500001,"velocity":0.4094488188976378},{"duration":0.10714275000000129,"midi":40,"time":52.660661625,"velocity":0.4094488188976378},{"duration":0.10714275000000129,"midi":40,"time":52.874947125000006,"velocity":0.4094488188976378},{"duration":0.10714274999999418,"midi":40,"time":52.98208987500001,"velocity":0.4094488188976378},{"duration":0.10714275000000129,"midi":40,"time":53.303518125000004,"velocity":0.4094488188976378},{"duration":0.10714275000000129,"midi":40,"time":53.732089125,"velocity":0.4094488188976378},{"duration":0.10714274999999418,"midi":40,"time":54.16066012500001,"velocity":0.4094488188976378},{"duration":0.10714275000000129,"midi":40,"time":54.374945625,"velocity":0.4094488188976378},{"duration":0.10714275000000129,"midi":40,"time":54.482088375000004,"velocity":0.4094488188976378},{"duration":0.05357137499999709,"midi":40,"time":54.589231125000005,"velocity":0.4094488188976378},{"duration":0.053571375000004195,"midi":40,"time":54.6428025,"velocity":0.29133858267716534},{"duration":0.10714275000000129,"midi":40,"time":54.696373875000006,"velocity":0.4094488188976378},{"duration":0.10714275000000129,"midi":40,"time":55.017802125,"velocity":0.4094488188976378},{"duration":0.10714274999999418,"midi":40,"time":55.44637312500001,"velocity":0.4094488188976378},{"duration":0.10714275000000129,"midi":40,"time":55.874944125000006,"velocity":0.4094488188976378},{"duration":0.10714275000000129,"midi":40,"time":56.303515125000004,"velocity":0.4094488188976378},{"duration":0.10714275000000129,"midi":40,"time":56.732086125,"velocity":0.4094488188976378},{"duration":0.10714274999999418,"midi":40,"time":57.16065712500001,"velocity":0.4094488188976378},{"duration":0.10714275000000129,"midi":40,"time":57.589228125000005,"velocity":0.4094488188976378},{"duration":0.10714275000000129,"midi":40,"time":58.017799125,"velocity":0.4094488188976378},{"duration":0.10714275000000129,"midi":40,"time":58.446370125,"velocity":0.4094488188976378},{"duration":0.10714275000000129,"midi":40,"time":58.87494112500001,"velocity":0.4094488188976378},{"duration":0.10714275000000129,"midi":40,"time":59.303512125000005,"velocity":0.4094488188976378},{"duration":0.10714275000000129,"midi":40,"time":59.51779762500001,"velocity":0.4094488188976378},{"duration":0.10714275000000129,"midi":40,"time":59.732083125,"velocity":0.4094488188976378},{"duration":0.10714275000000129,"midi":40,"time":59.839225875000004,"velocity":0.4094488188976378},{"duration":0.10714274999999418,"midi":40,"time":60.16065412500001,"velocity":0.4094488188976378},{"duration":0.10714275000000129,"midi":40,"time":60.589225125000006,"velocity":0.4094488188976378},{"duration":0.10714275000000129,"midi":40,"time":61.017796125000004,"velocity":0.4094488188976378},{"duration":0.10714275000000129,"midi":40,"time":61.232081625000006,"velocity":0.4094488188976378},{"duration":0.10714274999999418,"midi":40,"time":61.33922437500001,"velocity":0.4094488188976378},{"duration":0.053571375000004195,"midi":40,"time":61.446367125,"velocity":0.4094488188976378},{"duration":0.05357137499999709,"midi":40,"time":61.499938500000006,"velocity":0.29133858267716534},{"duration":0.10714275000000129,"midi":40,"time":61.553509875,"velocity":0.4094488188976378},{"duration":0.10714275000000129,"midi":40,"time":61.87493812500001,"velocity":0.4094488188976378},{"duration":0.10714275000000129,"midi":40,"time":62.303509125000005,"velocity":0.4094488188976378},{"duration":0.10714275000000129,"midi":40,"time":62.732080125,"velocity":0.4094488188976378},{"duration":0.10714274999999418,"midi":40,"time":63.16065112500001,"velocity":0.4094488188976378},{"duration":0.10714275000000129,"midi":40,"time":63.589222125000006,"velocity":0.4094488188976378},{"duration":0.10714274999999418,"midi":40,"time":64.01779312500001,"velocity":0.4094488188976378},{"duration":0.10714275000000839,"midi":40,"time":64.446364125,"velocity":0.4094488188976378},{"duration":0.10714274999999418,"midi":40,"time":64.87493512500001,"velocity":0.4094488188976378},{"duration":0.10714275000000839,"midi":40,"time":65.303506125,"velocity":0.4094488188976378},{"duration":0.10714275000000839,"midi":40,"time":65.732077125,"velocity":0.4094488188976378},{"duration":0.10714274999999418,"midi":40,"time":66.16064812500001,"velocity":0.4094488188976378},{"duration":0.10714274999999418,"midi":40,"time":66.37493362500001,"velocity":0.4094488188976378},{"duration":0.10714275000000839,"midi":40,"time":66.589219125,"velocity":0.4094488188976378},{"duration":0.10714274999999418,"midi":40,"time":66.69636187500001,"velocity":0.4094488188976378},{"duration":0.10714274999999418,"midi":40,"time":67.017790125,"velocity":0.4094488188976378},{"duration":0.10714274999999418,"midi":40,"time":67.44636112500001,"velocity":0.4094488188976378},{"duration":0.10714275000000839,"midi":40,"time":67.874932125,"velocity":0.4094488188976378},{"duration":0.10714275000000839,"midi":40,"time":68.089217625,"velocity":0.4094488188976378},{"duration":0.10714274999999418,"midi":40,"time":68.19636037500001,"velocity":0.4094488188976378},{"duration":0.053571375000004195,"midi":40,"time":68.303503125,"velocity":0.4094488188976378},{"duration":0.053571374999989985,"midi":40,"time":68.35707450000001,"velocity":0.29133858267716534},{"duration":0.10714275000000839,"midi":40,"time":68.410645875,"velocity":0.4094488188976378},{"duration":0.10714274999999418,"midi":40,"time":68.73207412500001,"velocity":0.4094488188976378},{"duration":0.10714275000000839,"midi":40,"time":69.160645125,"velocity":0.4094488188976378},{"duration":0.10714274999999418,"midi":40,"time":69.58921612500001,"velocity":0.4094488188976378},{"duration":0.10714274999999418,"midi":40,"time":70.01778712500001,"velocity":0.4094488188976378},{"duration":0.10714275000000839,"midi":40,"time":70.446358125,"velocity":0.4094488188976378},{"duration":0.10714274999999418,"midi":40,"time":70.87492912500001,"velocity":0.4094488188976378},{"duration":0.10714275000000839,"midi":40,"time":71.303500125,"velocity":0.4094488188976378},{"duration":0.10714275000000839,"midi":40,"time":71.732071125,"velocity":0.4094488188976378},{"duration":0.10714274999999418,"midi":40,"time":72.16064212500001,"velocity":0.4094488188976378},{"duration":0.10714275000000839,"midi":40,"time":72.589213125,"velocity":0.4094488188976378},{"duration":0.10714274999999418,"midi":40,"time":73.017784125,"velocity":0.4094488188976378},{"duration":0.10714274999999418,"midi":40,"time":73.23206962500001,"velocity":0.4094488188976378},{"duration":0.10714274999999418,"midi":40,"time":73.44635512500001,"velocity":0.4094488188976378},{"duration":0.10714274999999418,"midi":40,"time":73.553497875,"velocity":0.4094488188976378},{"duration":0.10714275000000839,"midi":40,"time":73.874926125,"velocity":0.4094488188976378},{"duration":0.10714274999999418,"midi":40,"time":74.303497125,"velocity":0.4094488188976378},{"duration":0.10714274999999418,"midi":40,"time":74.73206812500001,"velocity":0.4094488188976378},{"duration":0.10714275000000839,"midi":40,"time":74.946353625,"velocity":0.4094488188976378},{"duration":0.10714274999999418,"midi":40,"time":75.05349637500001,"velocity":0.4094488188976378},{"duration":0.053571375000004195,"midi":40,"time":75.160639125,"velocity":0.4094488188976378},{"duration":0.053571375000004195,"midi":40,"time":75.21421050000001,"velocity":0.29133858267716534},{"duration":0.10714274999999418,"midi":40,"time":75.26778187500001,"velocity":0.4094488188976378},{"duration":0.10714274999999418,"midi":40,"time":75.58921012500001,"velocity":0.4094488188976378},{"duration":0.10714274999999418,"midi":40,"time":76.01778112500001,"velocity":0.4094488188976378},{"duration":0.10714275000000839,"midi":40,"time":76.446352125,"velocity":0.4094488188976378},{"duration":0.10714274999999418,"midi":40,"time":76.87492312500001,"velocity":0.4094488188976378},{"duration":0.10714275000000839,"midi":40,"time":77.303494125,"velocity":0.4094488188976378},{"duration":0.10714274999999418,"midi":40,"time":77.732065125,"velocity":0.4094488188976378},{"duration":0.10714274999999418,"midi":40,"time":78.16063612500001,"velocity":0.4094488188976378},{"duration":0.10714275000000839,"midi":40,"time":78.589207125,"velocity":0.4094488188976378},{"duration":0.10714274999999418,"midi":40,"time":79.017778125,"velocity":0.4094488188976378},{"duration":0.10714274999999418,"midi":40,"time":79.44634912500001,"velocity":0.4094488188976378},{"duration":0.10714275000000839,"midi":40,"time":79.874920125,"velocity":0.4094488188976378},{"duration":0.10714275000000839,"midi":40,"time":80.089205625,"velocity":0.4094488188976378},{"duration":0.10714274999999418,"midi":40,"time":80.30349112500001,"velocity":0.4094488188976378},{"duration":0.10714275000000839,"midi":40,"time":80.410633875,"velocity":0.4094488188976378},{"duration":0.10714274999999418,"midi":40,"time":80.73206212500001,"velocity":0.4094488188976378},{"duration":0.10714275000000839,"midi":40,"time":81.160633125,"velocity":0.4094488188976378},{"duration":0.10714274999999418,"midi":40,"time":81.58920412500001,"velocity":0.4094488188976378},{"duration":0.10714274999999418,"midi":40,"time":81.80348962500001,"velocity":0.4094488188976378},{"duration":0.10714274999999418,"midi":40,"time":81.910632375,"velocity":0.4094488188976378},{"duration":0.053571375000004195,"midi":40,"time":82.017775125,"velocity":0.4094488188976378},{"duration":0.053571375000004195,"midi":40,"time":82.0713465,"velocity":0.29133858267716534},{"duration":0.10714274999999418,"midi":40,"time":82.12491787500001,"velocity":0.4094488188976378},{"duration":0.10714275000000839,"midi":40,"time":82.446346125,"velocity":0.4094488188976378},{"duration":0.10714274999999418,"midi":40,"time":82.87491712500001,"velocity":0.4094488188976378},{"duration":0.10714275000000839,"midi":40,"time":83.303488125,"velocity":0.4094488188976378},{"duration":0.10714274999999418,"midi":40,"time":83.732059125,"velocity":0.4094488188976378},{"duration":0.10714274999999418,"midi":40,"time":84.16063012500001,"velocity":0.4094488188976378},{"duration":0.10714275000000839,"midi":40,"time":84.589201125,"velocity":0.4094488188976378},{"duration":0.10714274999999418,"midi":40,"time":85.01777212500001,"velocity":0.4094488188976378},{"duration":0.10714274999999418,"midi":40,"time":85.44634312500001,"velocity":0.4094488188976378},{"duration":0.10714275000000839,"midi":40,"time":85.874914125,"velocity":0.4094488188976378},{"duration":0.10714274999999418,"midi":40,"time":86.30348512500001,"velocity":0.4094488188976378},{"duration":0.10714274999999418,"midi":40,"time":86.73205612500001,"velocity":0.4094488188976378},{"duration":0.10714275000000839,"midi":40,"time":86.946341625,"velocity":0.4094488188976378},{"duration":0.10714275000000839,"midi":40,"time":87.160627125,"velocity":0.4094488188976378},{"duration":0.10714274999999418,"midi":40,"time":87.26776987500001,"velocity":0.4094488188976378},{"duration":0.10714274999999418,"midi":40,"time":87.58919812500001,"velocity":0.4094488188976378},{"duration":0.10714275000000839,"midi":40,"time":88.017769125,"velocity":0.4094488188976378},{"duration":0.10714274999999418,"midi":40,"time":88.446340125,"velocity":0.4094488188976378},{"duration":0.10714274999999418,"midi":40,"time":88.66062562500001,"velocity":0.4094488188976378},{"duration":0.10714275000000839,"midi":40,"time":88.767768375,"velocity":0.4094488188976378},{"duration":0.053571374999989985,"midi":40,"time":88.87491112500001,"velocity":0.4094488188976378},{"duration":0.053571375000004195,"midi":40,"time":88.9284825,"velocity":0.29133858267716534},{"duration":0.10714275000000839,"midi":40,"time":88.982053875,"velocity":0.4094488188976378},{"duration":0.10714275000000839,"midi":40,"time":89.303482125,"velocity":0.4094488188976378},{"duration":0.10714274999999418,"midi":40,"time":89.73205312500001,"velocity":0.4094488188976378},{"duration":0.10714274999999418,"midi":40,"time":90.16062412500001,"velocity":0.4094488188976378},{"duration":0.10714275000000839,"midi":40,"time":90.589195125,"velocity":0.4094488188976378},{"duration":0.10714274999999418,"midi":40,"time":91.01776612500001,"velocity":0.4094488188976378},{"duration":0.10714274999999418,"midi":40,"time":91.44633712500001,"velocity":0.4094488188976378},{"duration":0.10714275000000839,"midi":40,"time":91.874908125,"velocity":0.4094488188976378},{"duration":0.10714274999999418,"midi":40,"time":92.30347912500001,"velocity":0.4094488188976378},{"duration":0.10714275000000839,"midi":40,"time":92.732050125,"velocity":0.4094488188976378},{"duration":0.10714275000000839,"midi":40,"time":93.160621125,"velocity":0.4094488188976378},{"duration":0.10714274999999418,"midi":40,"time":93.58919212500001,"velocity":0.4094488188976378},{"duration":0.10714274999999418,"midi":40,"time":93.80347762500001,"velocity":0.4094488188976378},{"duration":0.10714275000000839,"midi":40,"time":94.017763125,"velocity":0.4094488188976378},{"duration":0.10714274999999418,"midi":40,"time":94.12490587500001,"velocity":0.4094488188976378},{"duration":0.10714274999999418,"midi":40,"time":94.446334125,"velocity":0.4094488188976378},{"duration":0.10714274999999418,"midi":40,"time":94.87490512500001,"velocity":0.4094488188976378},{"duration":0.10714275000000839,"midi":40,"time":95.303476125,"velocity":0.4094488188976378},{"duration":0.10714275000000839,"midi":40,"time":95.517761625,"velocity":0.4094488188976378},{"duration":0.10714274999999418,"midi":40,"time":95.62490437500001,"velocity":0.4094488188976378},{"duration":0.053571375000004195,"midi":40,"time":95.73204712500001,"velocity":0.4094488188976378},{"duration":0.053571374999989985,"midi":40,"time":95.78561850000001,"velocity":0.29133858267716534},{"duration":0.10714275000000839,"midi":40,"time":95.839189875,"velocity":0.4094488188976378},{"duration":0.10714274999999418,"midi":40,"time":96.16061812500001,"velocity":0.4094488188976378},{"duration":0.10714275000000839,"midi":40,"time":96.589189125,"velocity":0.4094488188976378},{"duration":0.10714274999999418,"midi":40,"time":97.01776012500001,"velocity":0.4094488188976378},{"duration":0.10714274999999418,"midi":40,"time":97.44633112500001,"velocity":0.4094488188976378},{"duration":0.10714275000000839,"midi":40,"time":97.874902125,"velocity":0.4094488188976378},{"duration":0.10714274999999418,"midi":40,"time":98.30347312500001,"velocity":0.4094488188976378},{"duration":0.10714275000000839,"midi":40,"time":98.732044125,"velocity":0.4094488188976378},{"duration":0.10714275000000839,"midi":40,"time":99.160615125,"velocity":0.4094488188976378},{"duration":0.10714274999999418,"midi":40,"time":99.58918612500001,"velocity":0.4094488188976378},{"duration":0.10714275000000839,"midi":40,"time":100.017757125,"velocity":0.4094488188976378},{"duration":0.10714274999999418,"midi":40,"time":100.44632812500001,"velocity":0.4094488188976378},{"duration":0.10714274999999418,"midi":40,"time":100.66061362500001,"velocity":0.4094488188976378},{"duration":0.10714274999999418,"midi":40,"time":100.87489912500001,"velocity":0.4094488188976378},{"duration":0.10714274999999418,"midi":40,"time":100.98204187500001,"velocity":0.4094488188976378},{"duration":0.10714275000000839,"midi":40,"time":101.303470125,"velocity":0.4094488188976378},{"duration":0.10714274999999418,"midi":40,"time":101.73204112500001,"velocity":0.4094488188976378},{"duration":0.10714274999999418,"midi":40,"time":102.16061212500001,"velocity":0.4094488188976378},{"duration":0.10714275000000839,"midi":40,"time":102.374897625,"velocity":0.4094488188976378},{"duration":0.10714274999999418,"midi":40,"time":102.48204037500001,"velocity":0.4094488188976378},{"duration":0.053571375000004195,"midi":40,"time":102.589183125,"velocity":0.4094488188976378},{"duration":0.053571375000004195,"midi":40,"time":102.64275450000001,"velocity":0.29133858267716534},{"duration":0.10714274999999418,"midi":40,"time":102.69632587500001,"velocity":0.4094488188976378},{"duration":0.10714274999999418,"midi":40,"time":103.01775412500001,"velocity":0.4094488188976378},{"duration":0.10714274999999418,"midi":40,"time":103.44632512500002,"velocity":0.4094488188976378},{"duration":0.10714275000000839,"midi":40,"time":103.874896125,"velocity":0.4094488188976378},{"duration":0.10714274999999418,"midi":40,"time":104.30346712500001,"velocity":0.4094488188976378},{"duration":0.10714275000000839,"midi":40,"time":104.732038125,"velocity":0.4094488188976378},{"duration":0.10714274999999418,"midi":40,"time":105.16060912500001,"velocity":0.4094488188976378},{"duration":0.10714274999999418,"midi":40,"time":105.58918012500001,"velocity":0.4094488188976378},{"duration":0.10714275000000839,"midi":40,"time":106.017751125,"velocity":0.4094488188976378},{"duration":0.10714274999999418,"midi":40,"time":106.44632212500001,"velocity":0.4094488188976378},{"duration":0.10714274999999418,"midi":40,"time":106.87489312500001,"velocity":0.4094488188976378},{"duration":0.10714275000000839,"midi":40,"time":107.303464125,"velocity":0.4094488188976378},{"duration":0.10714275000000839,"midi":40,"time":107.51774962500001,"velocity":0.4094488188976378},{"duration":0.10714274999999418,"midi":40,"time":107.73203512500001,"velocity":0.4094488188976378},{"duration":0.10714275000000839,"midi":40,"time":107.839177875,"velocity":0.4094488188976378},{"duration":0.10714275000000839,"midi":40,"time":109.87489012500001,"velocity":0.4094488188976378},{"duration":0.10714274999999418,"midi":40,"time":110.30346112500001,"velocity":0.4094488188976378},{"duration":0.10714275000000839,"midi":40,"time":110.732032125,"velocity":0.4094488188976378},{"duration":0.10714274999999418,"midi":40,"time":111.16060312500001,"velocity":0.4094488188976378},{"duration":0.10714274999999418,"midi":40,"time":111.58917412500001,"velocity":0.4094488188976378},{"duration":0.10714275000000839,"midi":40,"time":112.017745125,"velocity":0.4094488188976378},{"duration":0.10714274999999418,"midi":40,"time":112.44631612500001,"velocity":0.4094488188976378},{"duration":0.10714274999999418,"midi":40,"time":112.87488712500001,"velocity":0.4094488188976378},{"duration":0.10714275000000839,"midi":40,"time":113.303458125,"velocity":0.4094488188976378},{"duration":0.10714274999999418,"midi":40,"time":113.73202912500001,"velocity":0.4094488188976378},{"duration":0.10714274999999418,"midi":40,"time":114.16060012500002,"velocity":0.4094488188976378},{"duration":0.10714275000000839,"midi":40,"time":114.374885625,"velocity":0.4094488188976378},{"duration":0.10714275000000839,"midi":40,"time":114.58917112500001,"velocity":0.4094488188976378},{"duration":0.10714274999999418,"midi":40,"time":114.69631387500002,"velocity":0.4094488188976378},{"duration":0.10714274999999418,"midi":40,"time":115.01774212500001,"velocity":0.4094488188976378},{"duration":0.10714275000000839,"midi":40,"time":115.446313125,"velocity":0.4094488188976378},{"duration":0.10714274999999418,"midi":40,"time":115.87488412500001,"velocity":0.4094488188976378},{"duration":0.10714274999999418,"midi":40,"time":116.08916962500001,"velocity":0.4094488188976378},{"duration":0.10714275000000839,"midi":40,"time":116.196312375,"velocity":0.4094488188976378},{"duration":0.053571374999989985,"midi":40,"time":116.30345512500001,"velocity":0.4094488188976378},{"duration":0.053571375000004195,"midi":40,"time":116.3570265,"velocity":0.29133858267716534},{"duration":0.10714275000000839,"midi":40,"time":116.41059787500001,"velocity":0.4094488188976378},{"duration":0.10714275000000839,"midi":40,"time":116.732026125,"velocity":0.4094488188976378},{"duration":0.10714274999999418,"midi":40,"time":117.16059712500001,"velocity":0.4094488188976378},{"duration":0.10714274999999418,"midi":40,"time":117.58916812500001,"velocity":0.4094488188976378},{"duration":0.10714275000000839,"midi":40,"time":118.017739125,"velocity":0.4094488188976378},{"duration":0.10714274999999418,"midi":40,"time":118.44631012500001,"velocity":0.4094488188976378},{"duration":0.10714274999999418,"midi":40,"time":118.87488112500002,"velocity":0.4094488188976378},{"duration":0.10714275000000839,"midi":40,"time":119.303452125,"velocity":0.4094488188976378},{"duration":0.10714274999999418,"midi":40,"time":119.73202312500001,"velocity":0.4094488188976378},{"duration":0.10714275000000839,"midi":40,"time":120.160594125,"velocity":0.4094488188976378},{"duration":0.10714275000000839,"midi":40,"time":120.58916512500001,"velocity":0.4094488188976378},{"duration":0.10714274999999418,"midi":40,"time":121.01773612500001,"velocity":0.4094488188976378},{"duration":0.10714274999999418,"midi":40,"time":121.23202162500002,"velocity":0.4094488188976378},{"duration":0.10714275000000839,"midi":40,"time":121.446307125,"velocity":0.4094488188976378},{"duration":0.10714274999999418,"midi":40,"time":121.55344987500001,"velocity":0.4094488188976378},{"duration":0.10714274999999418,"midi":40,"time":121.87487812500001,"velocity":0.4094488188976378},{"duration":0.10714274999999418,"midi":40,"time":122.30344912500001,"velocity":0.4094488188976378},{"duration":0.10714275000000839,"midi":40,"time":122.732020125,"velocity":0.4094488188976378},{"duration":0.10714275000000839,"midi":40,"time":122.94630562500001,"velocity":0.4094488188976378},{"duration":0.10714274999999418,"midi":40,"time":123.05344837500002,"velocity":0.4094488188976378},{"duration":0.053571375000004195,"midi":40,"time":123.16059112500001,"velocity":0.4094488188976378},{"duration":0.053571374999989985,"midi":40,"time":123.21416250000001,"velocity":0.29133858267716534},{"duration":0.10714275000000839,"midi":40,"time":123.267733875,"velocity":0.4094488188976378},{"duration":0.10714274999999418,"midi":40,"time":123.58916212500002,"velocity":0.4094488188976378},{"duration":0.10714275000000839,"midi":40,"time":124.017733125,"velocity":0.4094488188976378},{"duration":0.10714274999999418,"midi":40,"time":124.44630412500001,"velocity":0.4094488188976378},{"duration":0.10714274999999418,"midi":40,"time":124.87487512500002,"velocity":0.4094488188976378},{"duration":0.10714275000000839,"midi":40,"time":125.30344612500001,"velocity":0.4094488188976378},{"duration":0.10714274999999418,"midi":40,"time":125.73201712500001,"velocity":0.4094488188976378},{"duration":0.10714275000000839,"midi":40,"time":126.160588125,"velocity":0.4094488188976378},{"duration":0.10714275000000839,"midi":40,"time":126.58915912500001,"velocity":0.4094488188976378},{"duration":0.10714274999999418,"midi":40,"time":127.01773012500001,"velocity":0.4094488188976378},{"duration":0.10714275000000839,"midi":40,"time":127.446301125,"velocity":0.4094488188976378},{"duration":0.10714274999999418,"midi":40,"time":127.87487212500001,"velocity":0.4094488188976378},{"duration":0.10714275000000839,"midi":40,"time":128.089157625,"velocity":0.4094488188976378},{"duration":0.10714275000000839,"midi":40,"time":128.303443125,"velocity":0.4094488188976378},{"duration":0.10714275000000839,"midi":40,"time":128.410585875,"velocity":0.4094488188976378},{"duration":0.10714275000000839,"midi":40,"time":128.732014125,"velocity":0.4094488188976378},{"duration":0.10714275000000839,"midi":40,"time":129.160585125,"velocity":0.4094488188976378},{"duration":0.10714274999997997,"midi":40,"time":129.58915612500002,"velocity":0.4094488188976378},{"duration":0.10714275000000839,"midi":40,"time":129.803441625,"velocity":0.4094488188976378},{"duration":0.10714275000000839,"midi":40,"time":129.910584375,"velocity":0.4094488188976378},{"duration":0.053571374999989985,"midi":40,"time":130.01772712500002,"velocity":0.4094488188976378},{"duration":0.053571374999989985,"midi":40,"time":130.0712985,"velocity":0.29133858267716534},{"duration":0.10714275000000839,"midi":40,"time":130.124869875,"velocity":0.4094488188976378},{"duration":0.10714275000000839,"midi":40,"time":130.446298125,"velocity":0.4094488188976378},{"duration":0.10714275000000839,"midi":40,"time":130.874869125,"velocity":0.4094488188976378},{"duration":0.10714275000000839,"midi":40,"time":131.303440125,"velocity":0.4094488188976378},{"duration":0.10714275000000839,"midi":40,"time":131.732011125,"velocity":0.4094488188976378},{"duration":0.10714274999997997,"midi":40,"time":132.16058212500002,"velocity":0.4094488188976378},{"duration":0.10714274999997997,"midi":40,"time":132.58915312500002,"velocity":0.4094488188976378},{"duration":0.10714275000000839,"midi":40,"time":133.017724125,"velocity":0.4094488188976378},{"duration":0.10714275000000839,"midi":40,"time":133.446295125,"velocity":0.4094488188976378},{"duration":0.10714275000000839,"midi":40,"time":133.874866125,"velocity":0.4094488188976378},{"duration":0.10714275000000839,"midi":40,"time":134.30343712500002,"velocity":0.4094488188976378},{"duration":0.10714274999997997,"midi":40,"time":134.73200812500002,"velocity":0.4094488188976378},{"duration":0.10714275000000839,"midi":40,"time":134.946293625,"velocity":0.4094488188976378},{"duration":0.10714275000000839,"midi":40,"time":135.160579125,"velocity":0.4094488188976378},{"duration":0.10714275000000839,"midi":40,"time":135.267721875,"velocity":0.4094488188976378},{"duration":0.10714275000000839,"midi":40,"time":135.37486462500001,"velocity":0.4094488188976378},{"duration":0.10714275000000839,"midi":40,"time":135.589150125,"velocity":0.4094488188976378},{"duration":0.10714274999997997,"midi":40,"time":135.80343562500002,"velocity":0.4094488188976378},{"duration":0.10714275000000839,"midi":40,"time":136.017721125,"velocity":0.4094488188976378},{"duration":0.10714274999997997,"midi":40,"time":136.23200662500003,"velocity":0.4094488188976378},{"duration":0.10714275000000839,"midi":40,"time":136.446292125,"velocity":0.4094488188976378},{"duration":0.10714275000000839,"midi":40,"time":136.660577625,"velocity":0.4094488188976378},{"duration":0.10714274999997997,"midi":40,"time":136.87486312500002,"velocity":0.4094488188976378}]},{"instrument":{"family":"brass","number":60,"name":"french horn"},"notes":[{"duration":0.10714275000000129,"midi":58,"time":27.589258125,"velocity":0.3937007874015748},{"duration":0.10714275000000129,"midi":58,"time":27.589258125,"velocity":0.3937007874015748},{"duration":0.10714275000000129,"midi":58,"time":27.589258125,"velocity":0.3937007874015748},{"duration":0.10714275000000129,"midi":58,"time":27.910686375,"velocity":0.3937007874015748},{"duration":0.10714275000000129,"midi":58,"time":27.910686375,"velocity":0.3937007874015748},{"duration":0.10714275000000129,"midi":58,"time":27.910686375,"velocity":0.3937007874015748},{"duration":0.10714275000000129,"midi":58,"time":28.232114625,"velocity":0.3937007874015748},{"duration":0.10714275000000129,"midi":58,"time":28.232114625,"velocity":0.3937007874015748},{"duration":0.10714275000000129,"midi":58,"time":28.232114625,"velocity":0.3937007874015748},{"duration":0.10714275000000129,"midi":61,"time":28.553542875,"velocity":0.3937007874015748},{"duration":0.10714275000000129,"midi":61,"time":28.553542875,"velocity":0.3937007874015748},{"duration":0.10714275000000129,"midi":61,"time":28.553542875,"velocity":0.3937007874015748},{"duration":0.10714275000000129,"midi":63,"time":28.874971125000002,"velocity":0.3937007874015748},{"duration":0.10714275000000129,"midi":63,"time":28.874971125000002,"velocity":0.3937007874015748},{"duration":0.10714275000000129,"midi":63,"time":28.874971125000002,"velocity":0.3937007874015748},{"duration":0.10714274999999773,"midi":58,"time":29.303542125000003,"velocity":0.3937007874015748},{"duration":0.10714274999999773,"midi":58,"time":29.303542125000003,"velocity":0.3937007874015748},{"duration":0.10714274999999773,"midi":58,"time":29.303542125000003,"velocity":0.3937007874015748},{"duration":0.10714274999999773,"midi":58,"time":29.624970375000004,"velocity":0.3937007874015748},{"duration":0.10714274999999773,"midi":58,"time":29.624970375000004,"velocity":0.3937007874015748},{"duration":0.10714274999999773,"midi":58,"time":29.624970375000004,"velocity":0.3937007874015748},{"duration":0.10714274999999773,"midi":64,"time":29.946398625000004,"velocity":0.3937007874015748},{"duration":0.10714274999999773,"midi":64,"time":29.946398625000004,"velocity":0.3937007874015748},{"duration":0.10714274999999773,"midi":64,"time":29.946398625000004,"velocity":0.3937007874015748},{"duration":0.10714275000000129,"midi":61,"time":30.267826875,"velocity":0.3937007874015748},{"duration":0.10714275000000129,"midi":61,"time":30.267826875,"velocity":0.3937007874015748},{"duration":0.10714275000000129,"midi":61,"time":30.267826875,"velocity":0.3937007874015748},{"duration":0.10714275000000129,"midi":63,"time":30.589255125,"velocity":0.3937007874015748},{"duration":0.10714275000000129,"midi":63,"time":30.589255125,"velocity":0.3937007874015748},{"duration":0.10714275000000129,"midi":63,"time":30.589255125,"velocity":0.3937007874015748},{"duration":0.10714275000000129,"midi":58,"time":31.017826125000003,"velocity":0.3937007874015748},{"duration":0.10714275000000129,"midi":58,"time":31.017826125000003,"velocity":0.3937007874015748},{"duration":0.10714275000000129,"midi":58,"time":31.017826125000003,"velocity":0.3937007874015748},{"duration":0.10714275000000129,"midi":58,"time":31.339254375000003,"velocity":0.3937007874015748},{"duration":0.10714275000000129,"midi":58,"time":31.339254375000003,"velocity":0.3937007874015748},{"duration":0.10714275000000129,"midi":58,"time":31.339254375000003,"velocity":0.3937007874015748},{"duration":0.10714274999999773,"midi":58,"time":31.660682625000003,"velocity":0.3937007874015748},{"duration":0.10714274999999773,"midi":58,"time":31.660682625000003,"velocity":0.3937007874015748},{"duration":0.10714274999999773,"midi":58,"time":31.660682625000003,"velocity":0.3937007874015748},{"duration":0.10714275000000129,"midi":61,"time":31.982110875000004,"velocity":0.3937007874015748},{"duration":0.10714275000000129,"midi":61,"time":31.982110875000004,"velocity":0.3937007874015748},{"duration":0.10714275000000129,"midi":61,"time":31.982110875000004,"velocity":0.3937007874015748},{"duration":0.10714275000000129,"midi":63,"time":32.303539125,"velocity":0.3937007874015748},{"duration":0.10714275000000129,"midi":63,"time":32.303539125,"velocity":0.3937007874015748},{"duration":0.10714275000000129,"midi":63,"time":32.303539125,"velocity":0.3937007874015748},{"duration":0.10714274999999418,"midi":58,"time":32.732110125000005,"velocity":0.3937007874015748},{"duration":0.10714274999999418,"midi":58,"time":32.732110125000005,"velocity":0.3937007874015748},{"duration":0.10714274999999418,"midi":58,"time":32.732110125000005,"velocity":0.3937007874015748},{"duration":0.10714275000000129,"midi":58,"time":33.053538375,"velocity":0.3937007874015748},{"duration":0.10714275000000129,"midi":58,"time":33.053538375,"velocity":0.3937007874015748},{"duration":0.10714275000000129,"midi":58,"time":33.053538375,"velocity":0.3937007874015748},{"duration":0.10714274999999418,"midi":56,"time":33.374966625000006,"velocity":0.3937007874015748},{"duration":0.10714274999999418,"midi":56,"time":33.374966625000006,"velocity":0.3937007874015748},{"duration":0.10714274999999418,"midi":56,"time":33.374966625000006,"velocity":0.3937007874015748},{"duration":0.10714275000000129,"midi":57,"time":33.696394875,"velocity":0.3937007874015748},{"duration":0.10714275000000129,"midi":57,"time":33.696394875,"velocity":0.3937007874015748},{"duration":0.10714275000000129,"midi":57,"time":33.696394875,"velocity":0.3937007874015748},{"duration":0.10714275000000129,"midi":58,"time":34.017823125,"velocity":0.3937007874015748},{"duration":0.10714275000000129,"midi":58,"time":34.017823125,"velocity":0.3937007874015748},{"duration":0.10714275000000129,"midi":58,"time":34.017823125,"velocity":0.3937007874015748},{"duration":0.10714275000000129,"midi":46,"time":34.446394125000005,"velocity":0.3937007874015748},{"duration":0.10714275000000129,"midi":58,"time":34.446394125000005,"velocity":0.3937007874015748},{"duration":0.10714275000000129,"midi":58,"time":34.446394125000005,"velocity":0.3937007874015748},{"duration":0.10714275000000129,"midi":46,"time":34.446394125000005,"velocity":0.3937007874015748},{"duration":0.10714275000000129,"midi":46,"time":34.446394125000005,"velocity":0.3937007874015748},{"duration":0.10714275000000129,"midi":58,"time":34.446394125000005,"velocity":0.3937007874015748},{"duration":0.10714275000000129,"midi":46,"time":34.767822375,"velocity":0.3937007874015748},{"duration":0.10714275000000129,"midi":58,"time":34.767822375,"velocity":0.3937007874015748},{"duration":0.10714275000000129,"midi":46,"time":34.767822375,"velocity":0.3937007874015748},{"duration":0.10714275000000129,"midi":58,"time":34.767822375,"velocity":0.3937007874015748},{"duration":0.10714275000000129,"midi":46,"time":34.767822375,"velocity":0.3937007874015748},{"duration":0.10714275000000129,"midi":58,"time":34.767822375,"velocity":0.3937007874015748},{"duration":0.10714274999999418,"midi":58,"time":35.089250625000005,"velocity":0.3937007874015748},{"duration":0.10714274999999418,"midi":58,"time":35.089250625000005,"velocity":0.3937007874015748},{"duration":0.10714274999999418,"midi":46,"time":35.089250625000005,"velocity":0.3937007874015748},{"duration":0.10714274999999418,"midi":58,"time":35.089250625000005,"velocity":0.3937007874015748},{"duration":0.10714274999999418,"midi":46,"time":35.089250625000005,"velocity":0.3937007874015748},{"duration":0.10714274999999418,"midi":46,"time":35.089250625000005,"velocity":0.3937007874015748},{"duration":0.10714275000000129,"midi":49,"time":35.410678875,"velocity":0.3937007874015748},{"duration":0.10714275000000129,"midi":61,"time":35.410678875,"velocity":0.3937007874015748},{"duration":0.10714275000000129,"midi":49,"time":35.410678875,"velocity":0.3937007874015748},{"duration":0.10714275000000129,"midi":61,"time":35.410678875,"velocity":0.3937007874015748},{"duration":0.10714275000000129,"midi":61,"time":35.410678875,"velocity":0.3937007874015748},{"duration":0.10714275000000129,"midi":49,"time":35.410678875,"velocity":0.3937007874015748},{"duration":0.10714274999999418,"midi":63,"time":35.732107125000006,"velocity":0.3937007874015748},{"duration":0.10714274999999418,"midi":51,"time":35.732107125000006,"velocity":0.3937007874015748},{"duration":0.10714274999999418,"midi":63,"time":35.732107125000006,"velocity":0.3937007874015748},{"duration":0.10714274999999418,"midi":63,"time":35.732107125000006,"velocity":0.3937007874015748},{"duration":0.10714274999999418,"midi":51,"time":35.732107125000006,"velocity":0.3937007874015748},{"duration":0.10714274999999418,"midi":51,"time":35.732107125000006,"velocity":0.3937007874015748},{"duration":0.10714275000000129,"midi":46,"time":36.160678125000004,"velocity":0.3937007874015748},{"duration":0.10714275000000129,"midi":58,"time":36.160678125000004,"velocity":0.3937007874015748},{"duration":0.10714275000000129,"midi":46,"time":36.160678125000004,"velocity":0.3937007874015748},{"duration":0.10714275000000129,"midi":46,"time":36.160678125000004,"velocity":0.3937007874015748},{"duration":0.10714275000000129,"midi":58,"time":36.160678125000004,"velocity":0.3937007874015748},{"duration":0.10714275000000129,"midi":58,"time":36.160678125000004,"velocity":0.3937007874015748},{"duration":0.10714275000000129,"midi":46,"time":36.482106375,"velocity":0.3937007874015748},{"duration":0.10714275000000129,"midi":58,"time":36.482106375,"velocity":0.3937007874015748},{"duration":0.10714275000000129,"midi":46,"time":36.482106375,"velocity":0.3937007874015748},{"duration":0.10714275000000129,"midi":46,"time":36.482106375,"velocity":0.3937007874015748},{"duration":0.10714275000000129,"midi":58,"time":36.482106375,"velocity":0.3937007874015748},{"duration":0.10714275000000129,"midi":58,"time":36.482106375,"velocity":0.3937007874015748},{"duration":0.10714275000000129,"midi":52,"time":36.803534625000005,"velocity":0.3937007874015748},{"duration":0.10714275000000129,"midi":64,"time":36.803534625000005,"velocity":0.3937007874015748},{"duration":0.10714275000000129,"midi":64,"time":36.803534625000005,"velocity":0.3937007874015748},{"duration":0.10714275000000129,"midi":64,"time":36.803534625000005,"velocity":0.3937007874015748},{"duration":0.10714275000000129,"midi":52,"time":36.803534625000005,"velocity":0.3937007874015748},{"duration":0.10714275000000129,"midi":52,"time":36.803534625000005,"velocity":0.3937007874015748},{"duration":0.10714275000000129,"midi":49,"time":37.124962875,"velocity":0.3937007874015748},{"duration":0.10714275000000129,"midi":49,"time":37.124962875,"velocity":0.3937007874015748},{"duration":0.10714275000000129,"midi":61,"time":37.124962875,"velocity":0.3937007874015748},{"duration":0.10714275000000129,"midi":61,"time":37.124962875,"velocity":0.3937007874015748},{"duration":0.10714275000000129,"midi":61,"time":37.124962875,"velocity":0.3937007874015748},{"duration":0.10714275000000129,"midi":49,"time":37.124962875,"velocity":0.3937007874015748},{"duration":0.10714275000000129,"midi":63,"time":37.446391125000005,"velocity":0.3937007874015748},{"duration":0.10714275000000129,"midi":63,"time":37.446391125000005,"velocity":0.3937007874015748},{"duration":0.10714275000000129,"midi":51,"time":37.446391125000005,"velocity":0.3937007874015748},{"duration":0.10714275000000129,"midi":63,"time":37.446391125000005,"velocity":0.3937007874015748},{"duration":0.10714275000000129,"midi":51,"time":37.446391125000005,"velocity":0.3937007874015748},{"duration":0.10714275000000129,"midi":51,"time":37.446391125000005,"velocity":0.3937007874015748},{"duration":0.10714275000000129,"midi":46,"time":37.874962125,"velocity":0.3937007874015748},{"duration":0.10714275000000129,"midi":46,"time":37.874962125,"velocity":0.3937007874015748},{"duration":0.10714275000000129,"midi":58,"time":37.874962125,"velocity":0.3937007874015748},{"duration":0.10714275000000129,"midi":58,"time":37.874962125,"velocity":0.3937007874015748},{"duration":0.10714275000000129,"midi":58,"time":37.874962125,"velocity":0.3937007874015748},{"duration":0.10714275000000129,"midi":46,"time":37.874962125,"velocity":0.3937007874015748},{"duration":0.10714275000000129,"midi":58,"time":38.196390375,"velocity":0.3937007874015748},{"duration":0.10714275000000129,"midi":58,"time":38.196390375,"velocity":0.3937007874015748},{"duration":0.10714275000000129,"midi":46,"time":38.196390375,"velocity":0.3937007874015748},{"duration":0.10714275000000129,"midi":58,"time":38.196390375,"velocity":0.3937007874015748},{"duration":0.10714275000000129,"midi":46,"time":38.196390375,"velocity":0.3937007874015748},{"duration":0.10714275000000129,"midi":46,"time":38.196390375,"velocity":0.3937007874015748},{"duration":0.10714275000000129,"midi":46,"time":38.517818625000004,"velocity":0.3937007874015748},{"duration":0.10714275000000129,"midi":46,"time":38.517818625000004,"velocity":0.3937007874015748},{"duration":0.10714275000000129,"midi":58,"time":38.517818625000004,"velocity":0.3937007874015748},{"duration":0.10714275000000129,"midi":58,"time":38.517818625000004,"velocity":0.3937007874015748},{"duration":0.10714275000000129,"midi":58,"time":38.517818625000004,"velocity":0.3937007874015748},{"duration":0.10714275000000129,"midi":46,"time":38.517818625000004,"velocity":0.3937007874015748},{"duration":0.10714275000000129,"midi":61,"time":38.839246875,"velocity":0.3937007874015748},{"duration":0.10714275000000129,"midi":49,"time":38.839246875,"velocity":0.3937007874015748},{"duration":0.10714275000000129,"midi":61,"time":38.839246875,"velocity":0.3937007874015748},{"duration":0.10714275000000129,"midi":61,"time":38.839246875,"velocity":0.3937007874015748},{"duration":0.10714275000000129,"midi":49,"time":38.839246875,"velocity":0.3937007874015748},{"duration":0.10714275000000129,"midi":49,"time":38.839246875,"velocity":0.3937007874015748},{"duration":0.10714275000000129,"midi":63,"time":39.160675125000004,"velocity":0.3937007874015748},{"duration":0.10714275000000129,"midi":63,"time":39.160675125000004,"velocity":0.3937007874015748},{"duration":0.10714275000000129,"midi":51,"time":39.160675125000004,"velocity":0.3937007874015748},{"duration":0.10714275000000129,"midi":63,"time":39.160675125000004,"velocity":0.3937007874015748},{"duration":0.10714275000000129,"midi":51,"time":39.160675125000004,"velocity":0.3937007874015748},{"duration":0.10714275000000129,"midi":51,"time":39.160675125000004,"velocity":0.3937007874015748},{"duration":0.10714275000000129,"midi":58,"time":39.589246125,"velocity":0.3937007874015748},{"duration":0.10714275000000129,"midi":46,"time":39.589246125,"velocity":0.3937007874015748},{"duration":0.10714275000000129,"midi":46,"time":39.589246125,"velocity":0.3937007874015748},{"duration":0.10714275000000129,"midi":46,"time":39.589246125,"velocity":0.3937007874015748},{"duration":0.10714275000000129,"midi":58,"time":39.589246125,"velocity":0.3937007874015748},{"duration":0.10714275000000129,"midi":58,"time":39.589246125,"velocity":0.3937007874015748},{"duration":0.10714274999999418,"midi":46,"time":39.910674375000006,"velocity":0.3937007874015748},{"duration":0.10714274999999418,"midi":46,"time":39.910674375000006,"velocity":0.3937007874015748},{"duration":0.10714274999999418,"midi":46,"time":39.910674375000006,"velocity":0.3937007874015748},{"duration":0.10714274999999418,"midi":58,"time":39.910674375000006,"velocity":0.3937007874015748},{"duration":0.10714274999999418,"midi":58,"time":39.910674375000006,"velocity":0.3937007874015748},{"duration":0.10714274999999418,"midi":58,"time":39.910674375000006,"velocity":0.3937007874015748},{"duration":0.10714275000000129,"midi":44,"time":40.232102625,"velocity":0.3937007874015748},{"duration":0.10714275000000129,"midi":44,"time":40.232102625,"velocity":0.3937007874015748},{"duration":0.10714275000000129,"midi":44,"time":40.232102625,"velocity":0.3937007874015748},{"duration":0.10714275000000129,"midi":56,"time":40.232102625,"velocity":0.3937007874015748},{"duration":0.10714275000000129,"midi":56,"time":40.232102625,"velocity":0.3937007874015748},{"duration":0.10714275000000129,"midi":56,"time":40.232102625,"velocity":0.3937007874015748},{"duration":0.10714275000000129,"midi":45,"time":40.553530875,"velocity":0.3937007874015748},{"duration":0.10714275000000129,"midi":57,"time":40.553530875,"velocity":0.3937007874015748},{"duration":0.10714275000000129,"midi":45,"time":40.553530875,"velocity":0.3937007874015748},{"duration":0.10714275000000129,"midi":45,"time":40.553530875,"velocity":0.3937007874015748},{"duration":0.10714275000000129,"midi":57,"time":40.553530875,"velocity":0.3937007874015748},{"duration":0.10714275000000129,"midi":57,"time":40.553530875,"velocity":0.3937007874015748},{"duration":0.10714275000000129,"midi":58,"time":40.874959125000004,"velocity":0.3937007874015748},{"duration":0.10714275000000129,"midi":46,"time":40.874959125000004,"velocity":0.3937007874015748},{"duration":0.10714275000000129,"midi":46,"time":40.874959125000004,"velocity":0.3937007874015748},{"duration":0.10714275000000129,"midi":58,"time":40.874959125000004,"velocity":0.3937007874015748},{"duration":0.10714275000000129,"midi":46,"time":40.874959125000004,"velocity":0.3937007874015748},{"duration":0.10714275000000129,"midi":58,"time":40.874959125000004,"velocity":0.3937007874015748},{"duration":0.10714275000000129,"midi":49,"time":44.517812625000005,"velocity":0.3937007874015748},{"duration":0.10714275000000129,"midi":49,"time":44.517812625000005,"velocity":0.3937007874015748},{"duration":0.10714275000000129,"midi":49,"time":44.517812625000005,"velocity":0.3937007874015748},{"duration":0.10714275000000129,"midi":46,"time":44.839240875,"velocity":0.3937007874015748},{"duration":0.10714275000000129,"midi":46,"time":44.839240875,"velocity":0.3937007874015748},{"duration":0.10714275000000129,"midi":46,"time":44.839240875,"velocity":0.3937007874015748},{"duration":0.10714275000000129,"midi":49,"time":45.374954625,"velocity":0.3937007874015748},{"duration":0.10714275000000129,"midi":49,"time":45.374954625,"velocity":0.3937007874015748},{"duration":0.10714275000000129,"midi":49,"time":45.374954625,"velocity":0.3937007874015748},{"duration":0.10714275000000129,"midi":46,"time":45.696382875000005,"velocity":0.3937007874015748},{"duration":0.10714275000000129,"midi":46,"time":45.696382875000005,"velocity":0.3937007874015748},{"duration":0.10714275000000129,"midi":46,"time":45.696382875000005,"velocity":0.3937007874015748},{"duration":0.10714275000000129,"midi":49,"time":46.232096625000004,"velocity":0.3937007874015748},{"duration":0.10714275000000129,"midi":49,"time":46.232096625000004,"velocity":0.3937007874015748},{"duration":0.10714275000000129,"midi":49,"time":46.232096625000004,"velocity":0.3937007874015748},{"duration":0.10714275000000129,"midi":46,"time":46.553524875,"velocity":0.3937007874015748},{"duration":0.10714275000000129,"midi":46,"time":46.553524875,"velocity":0.3937007874015748},{"duration":0.10714275000000129,"midi":46,"time":46.553524875,"velocity":0.3937007874015748},{"duration":0.10714275000000129,"midi":44,"time":46.874953125000005,"velocity":0.3937007874015748},{"duration":0.10714275000000129,"midi":44,"time":46.874953125000005,"velocity":0.3937007874015748},{"duration":0.10714275000000129,"midi":44,"time":46.874953125000005,"velocity":0.3937007874015748},{"duration":0.10714274999999418,"midi":49,"time":47.08923862500001,"velocity":0.3937007874015748},{"duration":0.10714274999999418,"midi":49,"time":47.08923862500001,"velocity":0.3937007874015748},{"duration":0.10714274999999418,"midi":49,"time":47.08923862500001,"velocity":0.3937007874015748},{"duration":0.10714275000000129,"midi":51,"time":47.517809625000005,"velocity":0.3937007874015748},{"duration":0.10714275000000129,"midi":51,"time":47.517809625000005,"velocity":0.3937007874015748},{"duration":0.10714275000000129,"midi":51,"time":47.517809625000005,"velocity":0.3937007874015748},{"duration":0.10714275000000129,"midi":49,"time":51.374948625,"velocity":0.3937007874015748},{"duration":0.10714275000000129,"midi":49,"time":51.374948625,"velocity":0.3937007874015748},{"duration":0.10714275000000129,"midi":49,"time":51.374948625,"velocity":0.3937007874015748},{"duration":0.10714275000000129,"midi":46,"time":51.696376875000006,"velocity":0.3937007874015748},{"duration":0.10714275000000129,"midi":46,"time":51.696376875000006,"velocity":0.3937007874015748},{"duration":0.10714275000000129,"midi":46,"time":51.696376875000006,"velocity":0.3937007874015748},{"duration":0.10714275000000129,"midi":49,"time":52.232090625000005,"velocity":0.3937007874015748},{"duration":0.10714275000000129,"midi":49,"time":52.232090625000005,"velocity":0.3937007874015748},{"duration":0.10714275000000129,"midi":49,"time":52.232090625000005,"velocity":0.3937007874015748},{"duration":0.10714275000000129,"midi":46,"time":52.553518875,"velocity":0.3937007874015748},{"duration":0.10714275000000129,"midi":46,"time":52.553518875,"velocity":0.3937007874015748},{"duration":0.10714275000000129,"midi":46,"time":52.553518875,"velocity":0.3937007874015748},{"duration":0.10714275000000129,"midi":49,"time":53.089232625,"velocity":0.3937007874015748},{"duration":0.10714275000000129,"midi":49,"time":53.089232625,"velocity":0.3937007874015748},{"duration":0.10714275000000129,"midi":49,"time":53.089232625,"velocity":0.3937007874015748},{"duration":0.10714275000000129,"midi":46,"time":53.410660875000005,"velocity":0.3937007874015748},{"duration":0.10714275000000129,"midi":46,"time":53.410660875000005,"velocity":0.3937007874015748},{"duration":0.10714275000000129,"midi":46,"time":53.410660875000005,"velocity":0.3937007874015748},{"duration":0.10714275000000129,"midi":44,"time":53.732089125,"velocity":0.3937007874015748},{"duration":0.10714275000000129,"midi":44,"time":53.732089125,"velocity":0.3937007874015748},{"duration":0.10714275000000129,"midi":44,"time":53.732089125,"velocity":0.3937007874015748},{"duration":0.10714275000000129,"midi":49,"time":53.946374625000004,"velocity":0.3937007874015748},{"duration":0.10714275000000129,"midi":49,"time":53.946374625000004,"velocity":0.3937007874015748},{"duration":0.10714275000000129,"midi":49,"time":53.946374625000004,"velocity":0.3937007874015748},{"duration":0.10714275000000129,"midi":51,"time":54.374945625,"velocity":0.3937007874015748},{"duration":0.10714275000000129,"midi":51,"time":54.374945625,"velocity":0.3937007874015748},{"duration":0.10714275000000129,"midi":51,"time":54.374945625,"velocity":0.3937007874015748},{"duration":0.10714274999999418,"midi":68,"time":54.80351662500001,"velocity":0.3937007874015748},{"duration":0.10714274999999418,"midi":68,"time":54.80351662500001,"velocity":0.3937007874015748},{"duration":0.10714274999999418,"midi":68,"time":54.80351662500001,"velocity":0.3937007874015748},{"duration":0.10714275000000129,"midi":70,"time":55.124944875000004,"velocity":0.3937007874015748},{"duration":0.10714275000000129,"midi":70,"time":55.124944875000004,"velocity":0.3937007874015748},{"duration":0.10714275000000129,"midi":70,"time":55.124944875000004,"velocity":0.3937007874015748},{"duration":0.10714274999999418,"midi":63,"time":55.44637312500001,"velocity":0.3937007874015748},{"duration":0.10714274999999418,"midi":63,"time":55.44637312500001,"velocity":0.3937007874015748},{"duration":0.10714274999999418,"midi":63,"time":55.44637312500001,"velocity":0.3937007874015748},{"duration":0.10714275000000129,"midi":65,"time":55.767801375000005,"velocity":0.3937007874015748},{"duration":0.10714275000000129,"midi":65,"time":55.767801375000005,"velocity":0.3937007874015748},{"duration":0.10714275000000129,"midi":65,"time":55.767801375000005,"velocity":0.3937007874015748},{"duration":0.10714275000000129,"midi":61,"time":56.089229625,"velocity":0.3937007874015748},{"duration":0.10714275000000129,"midi":61,"time":56.089229625,"velocity":0.3937007874015748},{"duration":0.10714275000000129,"midi":61,"time":56.089229625,"velocity":0.3937007874015748},{"duration":0.10714275000000129,"midi":58,"time":56.303515125000004,"velocity":0.3937007874015748},{"duration":0.10714275000000129,"midi":58,"time":56.303515125000004,"velocity":0.3937007874015748},{"duration":0.10714275000000129,"midi":58,"time":56.303515125000004,"velocity":0.3937007874015748},{"duration":0.10714275000000129,"midi":68,"time":56.51780062500001,"velocity":0.3937007874015748},{"duration":0.10714275000000129,"midi":68,"time":56.51780062500001,"velocity":0.3937007874015748},{"duration":0.10714275000000129,"midi":68,"time":56.51780062500001,"velocity":0.3937007874015748},{"duration":0.10714275000000129,"midi":70,"time":56.839228875,"velocity":0.3937007874015748},{"duration":0.10714275000000129,"midi":70,"time":56.839228875,"velocity":0.3937007874015748},{"duration":0.10714275000000129,"midi":70,"time":56.839228875,"velocity":0.3937007874015748},{"duration":0.10714274999999418,"midi":63,"time":57.16065712500001,"velocity":0.3937007874015748},{"duration":0.10714274999999418,"midi":63,"time":57.16065712500001,"velocity":0.3937007874015748},{"duration":0.10714274999999418,"midi":63,"time":57.16065712500001,"velocity":0.3937007874015748},{"duration":0.10714275000000129,"midi":65,"time":57.482085375000004,"velocity":0.3937007874015748},{"duration":0.10714275000000129,"midi":65,"time":57.482085375000004,"velocity":0.3937007874015748},{"duration":0.10714275000000129,"midi":65,"time":57.482085375000004,"velocity":0.3937007874015748},{"duration":0.10714274999999418,"midi":61,"time":57.80351362500001,"velocity":0.3937007874015748},{"duration":0.10714274999999418,"midi":61,"time":57.80351362500001,"velocity":0.3937007874015748},{"duration":0.10714274999999418,"midi":61,"time":57.80351362500001,"velocity":0.3937007874015748},{"duration":0.10714275000000129,"midi":58,"time":58.017799125,"velocity":0.3937007874015748},{"duration":0.10714275000000129,"midi":58,"time":58.017799125,"velocity":0.3937007874015748},{"duration":0.10714275000000129,"midi":58,"time":58.017799125,"velocity":0.3937007874015748},{"duration":0.10714275000000129,"midi":68,"time":58.232084625000006,"velocity":0.3937007874015748},{"duration":0.10714275000000129,"midi":68,"time":58.232084625000006,"velocity":0.3937007874015748},{"duration":0.10714275000000129,"midi":68,"time":58.232084625000006,"velocity":0.3937007874015748},{"duration":0.10714275000000129,"midi":70,"time":58.553512875,"velocity":0.3937007874015748},{"duration":0.10714275000000129,"midi":70,"time":58.553512875,"velocity":0.3937007874015748},{"duration":0.10714275000000129,"midi":70,"time":58.553512875,"velocity":0.3937007874015748},{"duration":0.10714275000000129,"midi":63,"time":58.87494112500001,"velocity":0.3937007874015748},{"duration":0.10714275000000129,"midi":63,"time":58.87494112500001,"velocity":0.3937007874015748},{"duration":0.10714275000000129,"midi":63,"time":58.87494112500001,"velocity":0.3937007874015748},{"duration":0.10714275000000129,"midi":65,"time":59.196369375,"velocity":0.3937007874015748},{"duration":0.10714275000000129,"midi":65,"time":59.196369375,"velocity":0.3937007874015748},{"duration":0.10714275000000129,"midi":65,"time":59.196369375,"velocity":0.3937007874015748},{"duration":0.10714275000000129,"midi":61,"time":59.51779762500001,"velocity":0.3937007874015748},{"duration":0.10714275000000129,"midi":61,"time":59.51779762500001,"velocity":0.3937007874015748},{"duration":0.10714275000000129,"midi":61,"time":59.51779762500001,"velocity":0.3937007874015748},{"duration":0.10714275000000129,"midi":58,"time":59.732083125,"velocity":0.3937007874015748},{"duration":0.10714275000000129,"midi":58,"time":59.732083125,"velocity":0.3937007874015748},{"duration":0.10714275000000129,"midi":58,"time":59.732083125,"velocity":0.3937007874015748},{"duration":0.10714275000000129,"midi":68,"time":59.946368625000005,"velocity":0.3937007874015748},{"duration":0.10714275000000129,"midi":68,"time":59.946368625000005,"velocity":0.3937007874015748},{"duration":0.10714275000000129,"midi":68,"time":59.946368625000005,"velocity":0.3937007874015748},{"duration":0.10714275000000129,"midi":70,"time":60.267796875,"velocity":0.3937007874015748},{"duration":0.10714275000000129,"midi":70,"time":60.267796875,"velocity":0.3937007874015748},{"duration":0.10714275000000129,"midi":70,"time":60.267796875,"velocity":0.3937007874015748},{"duration":0.10714275000000129,"midi":73,"time":60.589225125000006,"velocity":0.3937007874015748},{"duration":0.10714275000000129,"midi":73,"time":60.589225125000006,"velocity":0.3937007874015748},{"duration":0.10714275000000129,"midi":73,"time":60.589225125000006,"velocity":0.3937007874015748},{"duration":0.10714275000000129,"midi":72,"time":60.910653375,"velocity":0.3937007874015748},{"duration":0.10714275000000129,"midi":72,"time":60.910653375,"velocity":0.3937007874015748},{"duration":0.10714275000000129,"midi":72,"time":60.910653375,"velocity":0.3937007874015748},{"duration":0.10714275000000129,"midi":68,"time":61.232081625000006,"velocity":0.3937007874015748},{"duration":0.10714275000000129,"midi":68,"time":61.232081625000006,"velocity":0.3937007874015748},{"duration":0.10714275000000129,"midi":68,"time":61.232081625000006,"velocity":0.3937007874015748},{"duration":0.10714275000000129,"midi":65,"time":61.446367125,"velocity":0.3937007874015748},{"duration":0.10714275000000129,"midi":65,"time":61.446367125,"velocity":0.3937007874015748},{"duration":0.10714275000000129,"midi":65,"time":61.446367125,"velocity":0.3937007874015748},{"duration":0.10714275000000129,"midi":68,"time":61.660652625000004,"velocity":0.3937007874015748},{"duration":0.10714275000000129,"midi":68,"time":61.660652625000004,"velocity":0.3937007874015748},{"duration":0.10714275000000129,"midi":68,"time":61.660652625000004,"velocity":0.3937007874015748},{"duration":0.10714274999999418,"midi":70,"time":61.98208087500001,"velocity":0.3937007874015748},{"duration":0.10714274999999418,"midi":70,"time":61.98208087500001,"velocity":0.3937007874015748},{"duration":0.10714274999999418,"midi":70,"time":61.98208087500001,"velocity":0.3937007874015748},{"duration":0.10714275000000129,"midi":63,"time":62.303509125000005,"velocity":0.3937007874015748},{"duration":0.10714275000000129,"midi":63,"time":62.303509125000005,"velocity":0.3937007874015748},{"duration":0.10714275000000129,"midi":63,"time":62.303509125000005,"velocity":0.3937007874015748},{"duration":0.10714275000000129,"midi":65,"time":62.624937375,"velocity":0.3937007874015748},{"duration":0.10714275000000129,"midi":65,"time":62.624937375,"velocity":0.3937007874015748},{"duration":0.10714275000000129,"midi":65,"time":62.624937375,"velocity":0.3937007874015748},{"duration":0.10714275000000129,"midi":61,"time":62.946365625000006,"velocity":0.3937007874015748},{"duration":0.10714275000000129,"midi":61,"time":62.946365625000006,"velocity":0.3937007874015748},{"duration":0.10714275000000129,"midi":61,"time":62.946365625000006,"velocity":0.3937007874015748},{"duration":0.10714274999999418,"midi":58,"time":63.16065112500001,"velocity":0.3937007874015748},{"duration":0.10714274999999418,"midi":58,"time":63.16065112500001,"velocity":0.3937007874015748},{"duration":0.10714274999999418,"midi":58,"time":63.16065112500001,"velocity":0.3937007874015748},{"duration":0.10714275000000129,"midi":68,"time":63.374936625000004,"velocity":0.3937007874015748},{"duration":0.10714275000000129,"midi":68,"time":63.374936625000004,"velocity":0.3937007874015748},{"duration":0.10714275000000129,"midi":68,"time":63.374936625000004,"velocity":0.3937007874015748},{"duration":0.10714274999999418,"midi":70,"time":63.69636487500001,"velocity":0.3937007874015748},{"duration":0.10714274999999418,"midi":70,"time":63.69636487500001,"velocity":0.3937007874015748},{"duration":0.10714274999999418,"midi":70,"time":63.69636487500001,"velocity":0.3937007874015748},{"duration":0.10714274999999418,"midi":63,"time":64.01779312500001,"velocity":0.3937007874015748},{"duration":0.10714274999999418,"midi":63,"time":64.01779312500001,"velocity":0.3937007874015748},{"duration":0.10714274999999418,"midi":63,"time":64.01779312500001,"velocity":0.3937007874015748},{"duration":0.10714274999999418,"midi":65,"time":64.33922137500001,"velocity":0.3937007874015748},{"duration":0.10714274999999418,"midi":65,"time":64.33922137500001,"velocity":0.3937007874015748},{"duration":0.10714274999999418,"midi":65,"time":64.33922137500001,"velocity":0.3937007874015748},{"duration":0.10714274999999418,"midi":61,"time":64.660649625,"velocity":0.3937007874015748},{"duration":0.10714274999999418,"midi":61,"time":64.660649625,"velocity":0.3937007874015748},{"duration":0.10714274999999418,"midi":61,"time":64.660649625,"velocity":0.3937007874015748},{"duration":0.10714274999999418,"midi":58,"time":64.87493512500001,"velocity":0.3937007874015748},{"duration":0.10714274999999418,"midi":58,"time":64.87493512500001,"velocity":0.3937007874015748},{"duration":0.10714274999999418,"midi":58,"time":64.87493512500001,"velocity":0.3937007874015748},{"duration":0.10714274999999418,"midi":68,"time":65.08922062500001,"velocity":0.3937007874015748},{"duration":0.10714274999999418,"midi":68,"time":65.08922062500001,"velocity":0.3937007874015748},{"duration":0.10714274999999418,"midi":68,"time":65.08922062500001,"velocity":0.3937007874015748},{"duration":0.10714274999999418,"midi":70,"time":65.410648875,"velocity":0.3937007874015748},{"duration":0.10714274999999418,"midi":70,"time":65.410648875,"velocity":0.3937007874015748},{"duration":0.10714274999999418,"midi":70,"time":65.410648875,"velocity":0.3937007874015748},{"duration":0.10714275000000839,"midi":63,"time":65.732077125,"velocity":0.3937007874015748},{"duration":0.10714275000000839,"midi":63,"time":65.732077125,"velocity":0.3937007874015748},{"duration":0.10714275000000839,"midi":63,"time":65.732077125,"velocity":0.3937007874015748},{"duration":0.10714275000000839,"midi":65,"time":66.053505375,"velocity":0.3937007874015748},{"duration":0.10714275000000839,"midi":65,"time":66.053505375,"velocity":0.3937007874015748},{"duration":0.10714275000000839,"midi":65,"time":66.053505375,"velocity":0.3937007874015748},{"duration":0.10714274999999418,"midi":61,"time":66.37493362500001,"velocity":0.3937007874015748},{"duration":0.10714274999999418,"midi":61,"time":66.37493362500001,"velocity":0.3937007874015748},{"duration":0.10714274999999418,"midi":61,"time":66.37493362500001,"velocity":0.3937007874015748},{"duration":0.10714275000000839,"midi":58,"time":66.589219125,"velocity":0.3937007874015748},{"duration":0.10714275000000839,"midi":58,"time":66.589219125,"velocity":0.3937007874015748},{"duration":0.10714275000000839,"midi":58,"time":66.589219125,"velocity":0.3937007874015748},{"duration":0.10714275000000839,"midi":68,"time":66.803504625,"velocity":0.3937007874015748},{"duration":0.10714275000000839,"midi":68,"time":66.803504625,"velocity":0.3937007874015748},{"duration":0.10714275000000839,"midi":68,"time":66.803504625,"velocity":0.3937007874015748},{"duration":0.10714275000000839,"midi":70,"time":67.124932875,"velocity":0.3937007874015748},{"duration":0.10714275000000839,"midi":70,"time":67.124932875,"velocity":0.3937007874015748},{"duration":0.10714275000000839,"midi":70,"time":67.124932875,"velocity":0.3937007874015748},{"duration":0.10714274999999418,"midi":73,"time":67.44636112500001,"velocity":0.3937007874015748},{"duration":0.10714274999999418,"midi":73,"time":67.44636112500001,"velocity":0.3937007874015748},{"duration":0.10714274999999418,"midi":73,"time":67.44636112500001,"velocity":0.3937007874015748},{"duration":0.10714274999999418,"midi":72,"time":67.767789375,"velocity":0.3937007874015748},{"duration":0.10714274999999418,"midi":72,"time":67.767789375,"velocity":0.3937007874015748},{"duration":0.10714274999999418,"midi":72,"time":67.767789375,"velocity":0.3937007874015748},{"duration":0.10714275000000839,"midi":68,"time":68.089217625,"velocity":0.3937007874015748},{"duration":0.10714275000000839,"midi":68,"time":68.089217625,"velocity":0.3937007874015748},{"duration":0.10714275000000839,"midi":68,"time":68.089217625,"velocity":0.3937007874015748},{"duration":0.10714274999999418,"midi":65,"time":68.303503125,"velocity":0.3937007874015748},{"duration":0.10714274999999418,"midi":65,"time":68.303503125,"velocity":0.3937007874015748},{"duration":0.10714274999999418,"midi":65,"time":68.303503125,"velocity":0.3937007874015748},{"duration":0.10714274999999418,"midi":68,"time":68.51778862500001,"velocity":0.3937007874015748},{"duration":0.10714274999999418,"midi":68,"time":68.51778862500001,"velocity":0.3937007874015748},{"duration":0.10714274999999418,"midi":68,"time":68.51778862500001,"velocity":0.3937007874015748},{"duration":0.10714274999999418,"midi":70,"time":68.839216875,"velocity":0.3937007874015748},{"duration":0.10714274999999418,"midi":70,"time":68.839216875,"velocity":0.3937007874015748},{"duration":0.10714274999999418,"midi":70,"time":68.839216875,"velocity":0.3937007874015748},{"duration":0.10714275000000839,"midi":63,"time":69.160645125,"velocity":0.3937007874015748},{"duration":0.10714275000000839,"midi":63,"time":69.160645125,"velocity":0.3937007874015748},{"duration":0.10714275000000839,"midi":63,"time":69.160645125,"velocity":0.3937007874015748},{"duration":0.10714275000000839,"midi":65,"time":69.482073375,"velocity":0.3937007874015748},{"duration":0.10714275000000839,"midi":65,"time":69.482073375,"velocity":0.3937007874015748},{"duration":0.10714275000000839,"midi":65,"time":69.482073375,"velocity":0.3937007874015748},{"duration":0.10714274999999418,"midi":61,"time":69.80350162500001,"velocity":0.3937007874015748},{"duration":0.10714274999999418,"midi":61,"time":69.80350162500001,"velocity":0.3937007874015748},{"duration":0.10714274999999418,"midi":61,"time":69.80350162500001,"velocity":0.3937007874015748},{"duration":0.10714274999999418,"midi":58,"time":70.01778712500001,"velocity":0.3937007874015748},{"duration":0.10714274999999418,"midi":58,"time":70.01778712500001,"velocity":0.3937007874015748},{"duration":0.10714274999999418,"midi":58,"time":70.01778712500001,"velocity":0.3937007874015748},{"duration":0.10714275000000839,"midi":68,"time":70.232072625,"velocity":0.3937007874015748},{"duration":0.10714275000000839,"midi":68,"time":70.232072625,"velocity":0.3937007874015748},{"duration":0.10714275000000839,"midi":68,"time":70.232072625,"velocity":0.3937007874015748},{"duration":0.10714274999999418,"midi":70,"time":70.55350087500001,"velocity":0.3937007874015748},{"duration":0.10714274999999418,"midi":70,"time":70.55350087500001,"velocity":0.3937007874015748},{"duration":0.10714274999999418,"midi":70,"time":70.55350087500001,"velocity":0.3937007874015748},{"duration":0.10714274999999418,"midi":63,"time":70.87492912500001,"velocity":0.3937007874015748},{"duration":0.10714274999999418,"midi":63,"time":70.87492912500001,"velocity":0.3937007874015748},{"duration":0.10714274999999418,"midi":63,"time":70.87492912500001,"velocity":0.3937007874015748},{"duration":0.10714274999999418,"midi":65,"time":71.196357375,"velocity":0.3937007874015748},{"duration":0.10714274999999418,"midi":65,"time":71.196357375,"velocity":0.3937007874015748},{"duration":0.10714274999999418,"midi":65,"time":71.196357375,"velocity":0.3937007874015748},{"duration":0.10714275000000839,"midi":61,"time":71.517785625,"velocity":0.3937007874015748},{"duration":0.10714275000000839,"midi":61,"time":71.517785625,"velocity":0.3937007874015748},{"duration":0.10714275000000839,"midi":61,"time":71.517785625,"velocity":0.3937007874015748},{"duration":0.10714275000000839,"midi":58,"time":71.732071125,"velocity":0.3937007874015748},{"duration":0.10714275000000839,"midi":58,"time":71.732071125,"velocity":0.3937007874015748},{"duration":0.10714275000000839,"midi":58,"time":71.732071125,"velocity":0.3937007874015748},{"duration":0.10714274999999418,"midi":68,"time":71.946356625,"velocity":0.3937007874015748},{"duration":0.10714274999999418,"midi":68,"time":71.946356625,"velocity":0.3937007874015748},{"duration":0.10714274999999418,"midi":68,"time":71.946356625,"velocity":0.3937007874015748},{"duration":0.10714275000000839,"midi":70,"time":72.267784875,"velocity":0.3937007874015748},{"duration":0.10714275000000839,"midi":70,"time":72.267784875,"velocity":0.3937007874015748},{"duration":0.10714275000000839,"midi":70,"time":72.267784875,"velocity":0.3937007874015748},{"duration":0.10714275000000839,"midi":63,"time":72.589213125,"velocity":0.3937007874015748},{"duration":0.10714275000000839,"midi":63,"time":72.589213125,"velocity":0.3937007874015748},{"duration":0.10714275000000839,"midi":63,"time":72.589213125,"velocity":0.3937007874015748},{"duration":0.10714274999999418,"midi":65,"time":72.91064137500001,"velocity":0.3937007874015748},{"duration":0.10714274999999418,"midi":65,"time":72.91064137500001,"velocity":0.3937007874015748},{"duration":0.10714274999999418,"midi":65,"time":72.91064137500001,"velocity":0.3937007874015748},{"duration":0.10714274999999418,"midi":61,"time":73.23206962500001,"velocity":0.3937007874015748},{"duration":0.10714274999999418,"midi":61,"time":73.23206962500001,"velocity":0.3937007874015748},{"duration":0.10714274999999418,"midi":61,"time":73.23206962500001,"velocity":0.3937007874015748},{"duration":0.10714274999999418,"midi":58,"time":73.44635512500001,"velocity":0.3937007874015748},{"duration":0.10714274999999418,"midi":58,"time":73.44635512500001,"velocity":0.3937007874015748},{"duration":0.10714274999999418,"midi":58,"time":73.44635512500001,"velocity":0.3937007874015748},{"duration":0.10714275000000839,"midi":68,"time":73.660640625,"velocity":0.3937007874015748},{"duration":0.10714275000000839,"midi":68,"time":73.660640625,"velocity":0.3937007874015748},{"duration":0.10714275000000839,"midi":68,"time":73.660640625,"velocity":0.3937007874015748},{"duration":0.10714274999999418,"midi":70,"time":73.98206887500001,"velocity":0.3937007874015748},{"duration":0.10714274999999418,"midi":70,"time":73.98206887500001,"velocity":0.3937007874015748},{"duration":0.10714274999999418,"midi":70,"time":73.98206887500001,"velocity":0.3937007874015748},{"duration":0.10714274999999418,"midi":73,"time":74.303497125,"velocity":0.3937007874015748},{"duration":0.10714274999999418,"midi":73,"time":74.303497125,"velocity":0.3937007874015748},{"duration":0.10714274999999418,"midi":73,"time":74.303497125,"velocity":0.3937007874015748},{"duration":0.10714275000000839,"midi":72,"time":74.624925375,"velocity":0.3937007874015748},{"duration":0.10714275000000839,"midi":72,"time":74.624925375,"velocity":0.3937007874015748},{"duration":0.10714275000000839,"midi":72,"time":74.624925375,"velocity":0.3937007874015748},{"duration":0.10714275000000839,"midi":68,"time":74.946353625,"velocity":0.3937007874015748},{"duration":0.10714275000000839,"midi":68,"time":74.946353625,"velocity":0.3937007874015748},{"duration":0.10714275000000839,"midi":68,"time":74.946353625,"velocity":0.3937007874015748},{"duration":0.10714275000000839,"midi":65,"time":75.160639125,"velocity":0.3937007874015748},{"duration":0.10714275000000839,"midi":65,"time":75.160639125,"velocity":0.3937007874015748},{"duration":0.10714275000000839,"midi":65,"time":75.160639125,"velocity":0.3937007874015748},{"duration":0.10714274999999418,"midi":68,"time":75.374924625,"velocity":0.3937007874015748},{"duration":0.10714274999999418,"midi":68,"time":75.374924625,"velocity":0.3937007874015748},{"duration":0.10714274999999418,"midi":68,"time":75.374924625,"velocity":0.3937007874015748},{"duration":0.10714275000000839,"midi":70,"time":75.696352875,"velocity":0.3937007874015748},{"duration":0.10714275000000839,"midi":70,"time":75.696352875,"velocity":0.3937007874015748},{"duration":0.10714275000000839,"midi":70,"time":75.696352875,"velocity":0.3937007874015748},{"duration":0.10714274999999418,"midi":63,"time":76.01778112500001,"velocity":0.3937007874015748},{"duration":0.10714274999999418,"midi":63,"time":76.01778112500001,"velocity":0.3937007874015748},{"duration":0.10714274999999418,"midi":63,"time":76.01778112500001,"velocity":0.3937007874015748},{"duration":0.10714274999999418,"midi":65,"time":76.33920937500001,"velocity":0.3937007874015748},{"duration":0.10714274999999418,"midi":65,"time":76.33920937500001,"velocity":0.3937007874015748},{"duration":0.10714274999999418,"midi":65,"time":76.33920937500001,"velocity":0.3937007874015748},{"duration":0.10714274999999418,"midi":61,"time":76.660637625,"velocity":0.3937007874015748},{"duration":0.10714274999999418,"midi":61,"time":76.660637625,"velocity":0.3937007874015748},{"duration":0.10714274999999418,"midi":61,"time":76.660637625,"velocity":0.3937007874015748},{"duration":0.10714274999999418,"midi":58,"time":76.87492312500001,"velocity":0.3937007874015748},{"duration":0.10714274999999418,"midi":58,"time":76.87492312500001,"velocity":0.3937007874015748},{"duration":0.10714274999999418,"midi":58,"time":76.87492312500001,"velocity":0.3937007874015748},{"duration":0.10714274999999418,"midi":68,"time":77.08920862500001,"velocity":0.3937007874015748},{"duration":0.10714274999999418,"midi":68,"time":77.08920862500001,"velocity":0.3937007874015748},{"duration":0.10714274999999418,"midi":68,"time":77.08920862500001,"velocity":0.3937007874015748},{"duration":0.10714274999999418,"midi":70,"time":77.41063687500001,"velocity":0.3937007874015748},{"duration":0.10714274999999418,"midi":70,"time":77.41063687500001,"velocity":0.3937007874015748},{"duration":0.10714274999999418,"midi":70,"time":77.41063687500001,"velocity":0.3937007874015748},{"duration":0.10714274999999418,"midi":63,"time":77.732065125,"velocity":0.3937007874015748},{"duration":0.10714274999999418,"midi":63,"time":77.732065125,"velocity":0.3937007874015748},{"duration":0.10714274999999418,"midi":63,"time":77.732065125,"velocity":0.3937007874015748},{"duration":0.10714275000000839,"midi":65,"time":78.053493375,"velocity":0.3937007874015748},{"duration":0.10714275000000839,"midi":65,"time":78.053493375,"velocity":0.3937007874015748},{"duration":0.10714275000000839,"midi":65,"time":78.053493375,"velocity":0.3937007874015748},{"duration":0.10714274999999418,"midi":61,"time":78.37492162500001,"velocity":0.3937007874015748},{"duration":0.10714274999999418,"midi":61,"time":78.37492162500001,"velocity":0.3937007874015748},{"duration":0.10714274999999418,"midi":61,"time":78.37492162500001,"velocity":0.3937007874015748},{"duration":0.10714275000000839,"midi":58,"time":78.589207125,"velocity":0.3937007874015748},{"duration":0.10714275000000839,"midi":58,"time":78.589207125,"velocity":0.3937007874015748},{"duration":0.10714275000000839,"midi":58,"time":78.589207125,"velocity":0.3937007874015748},{"duration":0.10714275000000839,"midi":68,"time":78.803492625,"velocity":0.3937007874015748},{"duration":0.10714275000000839,"midi":68,"time":78.803492625,"velocity":0.3937007874015748},{"duration":0.10714275000000839,"midi":68,"time":78.803492625,"velocity":0.3937007874015748},{"duration":0.10714275000000839,"midi":70,"time":79.124920875,"velocity":0.3937007874015748},{"duration":0.10714275000000839,"midi":70,"time":79.124920875,"velocity":0.3937007874015748},{"duration":0.10714275000000839,"midi":70,"time":79.124920875,"velocity":0.3937007874015748},{"duration":0.10714274999999418,"midi":63,"time":79.44634912500001,"velocity":0.3937007874015748},{"duration":0.10714274999999418,"midi":63,"time":79.44634912500001,"velocity":0.3937007874015748},{"duration":0.10714274999999418,"midi":63,"time":79.44634912500001,"velocity":0.3937007874015748},{"duration":0.10714274999999418,"midi":65,"time":79.76777737500001,"velocity":0.3937007874015748},{"duration":0.10714274999999418,"midi":65,"time":79.76777737500001,"velocity":0.3937007874015748},{"duration":0.10714274999999418,"midi":65,"time":79.76777737500001,"velocity":0.3937007874015748},{"duration":0.10714275000000839,"midi":61,"time":80.089205625,"velocity":0.3937007874015748},{"duration":0.10714275000000839,"midi":61,"time":80.089205625,"velocity":0.3937007874015748},{"duration":0.10714275000000839,"midi":61,"time":80.089205625,"velocity":0.3937007874015748},{"duration":0.10714274999999418,"midi":58,"time":80.30349112500001,"velocity":0.3937007874015748},{"duration":0.10714274999999418,"midi":58,"time":80.30349112500001,"velocity":0.3937007874015748},{"duration":0.10714274999999418,"midi":58,"time":80.30349112500001,"velocity":0.3937007874015748},{"duration":0.10714274999999418,"midi":68,"time":80.51777662500001,"velocity":0.3937007874015748},{"duration":0.10714274999999418,"midi":68,"time":80.51777662500001,"velocity":0.3937007874015748},{"duration":0.10714274999999418,"midi":68,"time":80.51777662500001,"velocity":0.3937007874015748},{"duration":0.10714274999999418,"midi":70,"time":80.83920487500001,"velocity":0.3937007874015748},{"duration":0.10714274999999418,"midi":70,"time":80.83920487500001,"velocity":0.3937007874015748},{"duration":0.10714274999999418,"midi":70,"time":80.83920487500001,"velocity":0.3937007874015748},{"duration":0.10714275000000839,"midi":73,"time":81.160633125,"velocity":0.3937007874015748},{"duration":0.10714275000000839,"midi":73,"time":81.160633125,"velocity":0.3937007874015748},{"duration":0.10714275000000839,"midi":73,"time":81.160633125,"velocity":0.3937007874015748},{"duration":0.10714275000000839,"midi":72,"time":81.482061375,"velocity":0.3937007874015748},{"duration":0.10714275000000839,"midi":72,"time":81.482061375,"velocity":0.3937007874015748},{"duration":0.10714275000000839,"midi":72,"time":81.482061375,"velocity":0.3937007874015748},{"duration":0.10714274999999418,"midi":68,"time":81.80348962500001,"velocity":0.3937007874015748},{"duration":0.10714274999999418,"midi":68,"time":81.80348962500001,"velocity":0.3937007874015748},{"duration":0.10714274999999418,"midi":68,"time":81.80348962500001,"velocity":0.3937007874015748},{"duration":0.10714275000000839,"midi":65,"time":82.017775125,"velocity":0.3937007874015748},{"duration":0.10714275000000839,"midi":65,"time":82.017775125,"velocity":0.3937007874015748},{"duration":0.10714275000000839,"midi":65,"time":82.017775125,"velocity":0.3937007874015748},{"duration":0.10714275000000839,"midi":34,"time":107.999892,"velocity":0.3937007874015748},{"duration":0.10714275000000839,"midi":58,"time":107.999892,"velocity":0.3937007874015748},{"duration":0.10714275000000839,"midi":37,"time":108.2141775,"velocity":0.3937007874015748},{"duration":0.10714275000000839,"midi":41,"time":108.2141775,"velocity":0.3937007874015748},{"duration":0.10714275000000839,"midi":61,"time":108.2141775,"velocity":0.3937007874015748},{"duration":0.10714274999999418,"midi":65,"time":108.42846300000001,"velocity":0.3937007874015748},{"duration":0.10714274999999418,"midi":29,"time":108.42846300000001,"velocity":0.3937007874015748},{"duration":0.10714274999999418,"midi":37,"time":108.64274850000001,"velocity":0.3937007874015748},{"duration":0.10714274999999418,"midi":67,"time":108.64274850000001,"velocity":0.3937007874015748},{"duration":0.10714274999999418,"midi":41,"time":108.64274850000001,"velocity":0.3937007874015748},{"duration":0.053571375000004195,"midi":68,"time":108.80346262500001,"velocity":0.3937007874015748},{"duration":0.21428550000000257,"midi":69,"time":108.85703400000001,"velocity":0.3937007874015748},{"duration":0.10714274999999418,"midi":33,"time":108.85703400000001,"velocity":0.3937007874015748},{"duration":0.10714274999999418,"midi":41,"time":109.07131950000002,"velocity":0.3937007874015748},{"duration":0.10714274999999418,"midi":36,"time":109.07131950000002,"velocity":0.3937007874015748},{"duration":0.053571375000004195,"midi":68,"time":109.124890875,"velocity":0.3937007874015748},{"duration":0.10714274999999418,"midi":67,"time":109.17846225000001,"velocity":0.3937007874015748},{"duration":0.10714275000000839,"midi":29,"time":109.285605,"velocity":0.3937007874015748},{"duration":0.10714275000000839,"midi":41,"time":109.4998905,"velocity":0.3937007874015748},{"duration":0.10714275000000839,"midi":65,"time":109.4998905,"velocity":0.3937007874015748},{"duration":0.10714275000000839,"midi":36,"time":109.4998905,"velocity":0.3937007874015748},{"duration":0.10714275000000839,"midi":58,"time":109.87489012500001,"velocity":0.3937007874015748},{"duration":0.10714275000000839,"midi":58,"time":109.87489012500001,"velocity":0.3937007874015748},{"duration":0.10714275000000839,"midi":58,"time":109.87489012500001,"velocity":0.3937007874015748},{"duration":0.10714275000000839,"midi":58,"time":110.196318375,"velocity":0.3937007874015748},{"duration":0.10714275000000839,"midi":58,"time":110.196318375,"velocity":0.3937007874015748},{"duration":0.10714275000000839,"midi":58,"time":110.196318375,"velocity":0.3937007874015748},{"duration":0.10714274999999418,"midi":58,"time":110.51774662500002,"velocity":0.3937007874015748},{"duration":0.10714274999999418,"midi":58,"time":110.51774662500002,"velocity":0.3937007874015748},{"duration":0.10714274999999418,"midi":58,"time":110.51774662500002,"velocity":0.3937007874015748},{"duration":0.10714274999999418,"midi":61,"time":110.83917487500001,"velocity":0.3937007874015748},{"duration":0.10714274999999418,"midi":61,"time":110.83917487500001,"velocity":0.3937007874015748},{"duration":0.10714274999999418,"midi":61,"time":110.83917487500001,"velocity":0.3937007874015748},{"duration":0.10714274999999418,"midi":63,"time":111.16060312500001,"velocity":0.3937007874015748},{"duration":0.10714274999999418,"midi":63,"time":111.16060312500001,"velocity":0.3937007874015748},{"duration":0.10714274999999418,"midi":63,"time":111.16060312500001,"velocity":0.3937007874015748},{"duration":0.10714274999999418,"midi":58,"time":111.58917412500001,"velocity":0.3937007874015748},{"duration":0.10714274999999418,"midi":58,"time":111.58917412500001,"velocity":0.3937007874015748},{"duration":0.10714274999999418,"midi":58,"time":111.58917412500001,"velocity":0.3937007874015748},{"duration":0.10714274999999418,"midi":58,"time":111.91060237500001,"velocity":0.3937007874015748},{"duration":0.10714274999999418,"midi":58,"time":111.91060237500001,"velocity":0.3937007874015748},{"duration":0.10714274999999418,"midi":58,"time":111.91060237500001,"velocity":0.3937007874015748},{"duration":0.10714275000000839,"midi":64,"time":112.23203062500001,"velocity":0.3937007874015748},{"duration":0.10714275000000839,"midi":64,"time":112.23203062500001,"velocity":0.3937007874015748},{"duration":0.10714275000000839,"midi":64,"time":112.23203062500001,"velocity":0.3937007874015748},{"duration":0.10714275000000839,"midi":61,"time":112.553458875,"velocity":0.3937007874015748},{"duration":0.10714275000000839,"midi":61,"time":112.553458875,"velocity":0.3937007874015748},{"duration":0.10714275000000839,"midi":61,"time":112.553458875,"velocity":0.3937007874015748},{"duration":0.10714274999999418,"midi":63,"time":112.87488712500001,"velocity":0.3937007874015748},{"duration":0.10714274999999418,"midi":63,"time":112.87488712500001,"velocity":0.3937007874015748},{"duration":0.10714274999999418,"midi":63,"time":112.87488712500001,"velocity":0.3937007874015748},{"duration":0.10714275000000839,"midi":58,"time":113.303458125,"velocity":0.3937007874015748},{"duration":0.10714275000000839,"midi":58,"time":113.303458125,"velocity":0.3937007874015748},{"duration":0.10714275000000839,"midi":58,"time":113.303458125,"velocity":0.3937007874015748},{"duration":0.10714275000000839,"midi":58,"time":113.624886375,"velocity":0.3937007874015748},{"duration":0.10714275000000839,"midi":58,"time":113.624886375,"velocity":0.3937007874015748},{"duration":0.10714275000000839,"midi":58,"time":113.624886375,"velocity":0.3937007874015748},{"duration":0.10714274999999418,"midi":58,"time":113.94631462500001,"velocity":0.3937007874015748},{"duration":0.10714274999999418,"midi":58,"time":113.94631462500001,"velocity":0.3937007874015748},{"duration":0.10714274999999418,"midi":58,"time":113.94631462500001,"velocity":0.3937007874015748},{"duration":0.10714274999999418,"midi":61,"time":114.26774287500001,"velocity":0.3937007874015748},{"duration":0.10714274999999418,"midi":61,"time":114.26774287500001,"velocity":0.3937007874015748},{"duration":0.10714274999999418,"midi":61,"time":114.26774287500001,"velocity":0.3937007874015748},{"duration":0.10714275000000839,"midi":63,"time":114.58917112500001,"velocity":0.3937007874015748},{"duration":0.10714275000000839,"midi":63,"time":114.58917112500001,"velocity":0.3937007874015748},{"duration":0.10714275000000839,"midi":63,"time":114.58917112500001,"velocity":0.3937007874015748},{"duration":0.10714274999999418,"midi":58,"time":115.01774212500001,"velocity":0.3937007874015748},{"duration":0.10714274999999418,"midi":58,"time":115.01774212500001,"velocity":0.3937007874015748},{"duration":0.10714274999999418,"midi":58,"time":115.01774212500001,"velocity":0.3937007874015748},{"duration":0.10714274999999418,"midi":58,"time":115.33917037500001,"velocity":0.3937007874015748},{"duration":0.10714274999999418,"midi":58,"time":115.33917037500001,"velocity":0.3937007874015748},{"duration":0.10714274999999418,"midi":58,"time":115.33917037500001,"velocity":0.3937007874015748},{"duration":0.10714275000000839,"midi":56,"time":115.660598625,"velocity":0.3937007874015748},{"duration":0.10714275000000839,"midi":56,"time":115.660598625,"velocity":0.3937007874015748},{"duration":0.10714275000000839,"midi":56,"time":115.660598625,"velocity":0.3937007874015748},{"duration":0.10714275000000839,"midi":57,"time":115.982026875,"velocity":0.3937007874015748},{"duration":0.10714275000000839,"midi":57,"time":115.982026875,"velocity":0.3937007874015748},{"duration":0.10714275000000839,"midi":57,"time":115.982026875,"velocity":0.3937007874015748},{"duration":0.10714274999999418,"midi":58,"time":116.30345512500001,"velocity":0.3937007874015748},{"duration":0.10714274999999418,"midi":58,"time":116.30345512500001,"velocity":0.3937007874015748},{"duration":0.10714274999999418,"midi":58,"time":116.30345512500001,"velocity":0.3937007874015748},{"duration":0.10714275000000839,"midi":46,"time":116.732026125,"velocity":0.3937007874015748},{"duration":0.10714275000000839,"midi":58,"time":116.732026125,"velocity":0.3937007874015748},{"duration":0.10714275000000839,"midi":58,"time":116.732026125,"velocity":0.3937007874015748},{"duration":0.10714275000000839,"midi":46,"time":116.732026125,"velocity":0.3937007874015748},{"duration":0.10714275000000839,"midi":58,"time":116.732026125,"velocity":0.3937007874015748},{"duration":0.10714275000000839,"midi":46,"time":116.732026125,"velocity":0.3937007874015748},{"duration":0.10714274999999418,"midi":58,"time":117.05345437500002,"velocity":0.3937007874015748},{"duration":0.10714274999999418,"midi":46,"time":117.05345437500002,"velocity":0.3937007874015748},{"duration":0.10714274999999418,"midi":46,"time":117.05345437500002,"velocity":0.3937007874015748},{"duration":0.10714274999999418,"midi":58,"time":117.05345437500002,"velocity":0.3937007874015748},{"duration":0.10714274999999418,"midi":46,"time":117.05345437500002,"velocity":0.3937007874015748},{"duration":0.10714274999999418,"midi":58,"time":117.05345437500002,"velocity":0.3937007874015748},{"duration":0.10714274999999418,"midi":46,"time":117.37488262500001,"velocity":0.3937007874015748},{"duration":0.10714274999999418,"midi":58,"time":117.37488262500001,"velocity":0.3937007874015748},{"duration":0.10714274999999418,"midi":46,"time":117.37488262500001,"velocity":0.3937007874015748},{"duration":0.10714274999999418,"midi":58,"time":117.37488262500001,"velocity":0.3937007874015748},{"duration":0.10714274999999418,"midi":58,"time":117.37488262500001,"velocity":0.3937007874015748},{"duration":0.10714274999999418,"midi":46,"time":117.37488262500001,"velocity":0.3937007874015748},{"duration":0.10714274999999418,"midi":49,"time":117.69631087500001,"velocity":0.3937007874015748},{"duration":0.10714274999999418,"midi":49,"time":117.69631087500001,"velocity":0.3937007874015748},{"duration":0.10714274999999418,"midi":49,"time":117.69631087500001,"velocity":0.3937007874015748},{"duration":0.10714274999999418,"midi":61,"time":117.69631087500001,"velocity":0.3937007874015748},{"duration":0.10714274999999418,"midi":61,"time":117.69631087500001,"velocity":0.3937007874015748},{"duration":0.10714274999999418,"midi":61,"time":117.69631087500001,"velocity":0.3937007874015748},{"duration":0.10714275000000839,"midi":51,"time":118.017739125,"velocity":0.3937007874015748},{"duration":0.10714275000000839,"midi":51,"time":118.017739125,"velocity":0.3937007874015748},{"duration":0.10714275000000839,"midi":63,"time":118.017739125,"velocity":0.3937007874015748},{"duration":0.10714275000000839,"midi":51,"time":118.017739125,"velocity":0.3937007874015748},{"duration":0.10714275000000839,"midi":63,"time":118.017739125,"velocity":0.3937007874015748},{"duration":0.10714275000000839,"midi":63,"time":118.017739125,"velocity":0.3937007874015748},{"duration":0.10714274999999418,"midi":46,"time":118.44631012500001,"velocity":0.3937007874015748},{"duration":0.10714274999999418,"midi":58,"time":118.44631012500001,"velocity":0.3937007874015748},{"duration":0.10714274999999418,"midi":58,"time":118.44631012500001,"velocity":0.3937007874015748},{"duration":0.10714274999999418,"midi":46,"time":118.44631012500001,"velocity":0.3937007874015748},{"duration":0.10714274999999418,"midi":58,"time":118.44631012500001,"velocity":0.3937007874015748},{"duration":0.10714274999999418,"midi":46,"time":118.44631012500001,"velocity":0.3937007874015748},{"duration":0.10714275000000839,"midi":46,"time":118.76773837500001,"velocity":0.3937007874015748},{"duration":0.10714275000000839,"midi":58,"time":118.76773837500001,"velocity":0.3937007874015748},{"duration":0.10714275000000839,"midi":58,"time":118.76773837500001,"velocity":0.3937007874015748},{"duration":0.10714275000000839,"midi":58,"time":118.76773837500001,"velocity":0.3937007874015748},{"duration":0.10714275000000839,"midi":46,"time":118.76773837500001,"velocity":0.3937007874015748},{"duration":0.10714275000000839,"midi":46,"time":118.76773837500001,"velocity":0.3937007874015748},{"duration":0.10714275000000839,"midi":52,"time":119.089166625,"velocity":0.3937007874015748},{"duration":0.10714275000000839,"midi":64,"time":119.089166625,"velocity":0.3937007874015748},{"duration":0.10714275000000839,"midi":52,"time":119.089166625,"velocity":0.3937007874015748},{"duration":0.10714275000000839,"midi":64,"time":119.089166625,"velocity":0.3937007874015748},{"duration":0.10714275000000839,"midi":64,"time":119.089166625,"velocity":0.3937007874015748},{"duration":0.10714275000000839,"midi":52,"time":119.089166625,"velocity":0.3937007874015748},{"duration":0.10714274999999418,"midi":49,"time":119.41059487500002,"velocity":0.3937007874015748},{"duration":0.10714274999999418,"midi":49,"time":119.41059487500002,"velocity":0.3937007874015748},{"duration":0.10714274999999418,"midi":49,"time":119.41059487500002,"velocity":0.3937007874015748},{"duration":0.10714274999999418,"midi":61,"time":119.41059487500002,"velocity":0.3937007874015748},{"duration":0.10714274999999418,"midi":61,"time":119.41059487500002,"velocity":0.3937007874015748},{"duration":0.10714274999999418,"midi":61,"time":119.41059487500002,"velocity":0.3937007874015748},{"duration":0.10714274999999418,"midi":63,"time":119.73202312500001,"velocity":0.3937007874015748},{"duration":0.10714274999999418,"midi":63,"time":119.73202312500001,"velocity":0.3937007874015748},{"duration":0.10714274999999418,"midi":51,"time":119.73202312500001,"velocity":0.3937007874015748},{"duration":0.10714274999999418,"midi":51,"time":119.73202312500001,"velocity":0.3937007874015748},{"duration":0.10714274999999418,"midi":51,"time":119.73202312500001,"velocity":0.3937007874015748},{"duration":0.10714274999999418,"midi":63,"time":119.73202312500001,"velocity":0.3937007874015748},{"duration":0.10714275000000839,"midi":46,"time":120.160594125,"velocity":0.3937007874015748},{"duration":0.10714275000000839,"midi":58,"time":120.160594125,"velocity":0.3937007874015748},{"duration":0.10714275000000839,"midi":46,"time":120.160594125,"velocity":0.3937007874015748},{"duration":0.10714275000000839,"midi":46,"time":120.160594125,"velocity":0.3937007874015748},{"duration":0.10714275000000839,"midi":58,"time":120.160594125,"velocity":0.3937007874015748},{"duration":0.10714275000000839,"midi":58,"time":120.160594125,"velocity":0.3937007874015748},{"duration":0.10714274999999418,"midi":58,"time":120.48202237500001,"velocity":0.3937007874015748},{"duration":0.10714274999999418,"midi":58,"time":120.48202237500001,"velocity":0.3937007874015748},{"duration":0.10714274999999418,"midi":46,"time":120.48202237500001,"velocity":0.3937007874015748},{"duration":0.10714274999999418,"midi":58,"time":120.48202237500001,"velocity":0.3937007874015748},{"duration":0.10714274999999418,"midi":46,"time":120.48202237500001,"velocity":0.3937007874015748},{"duration":0.10714274999999418,"midi":46,"time":120.48202237500001,"velocity":0.3937007874015748},{"duration":0.10714274999999418,"midi":58,"time":120.80345062500001,"velocity":0.3937007874015748},{"duration":0.10714274999999418,"midi":58,"time":120.80345062500001,"velocity":0.3937007874015748},{"duration":0.10714274999999418,"midi":46,"time":120.80345062500001,"velocity":0.3937007874015748},{"duration":0.10714274999999418,"midi":58,"time":120.80345062500001,"velocity":0.3937007874015748},{"duration":0.10714274999999418,"midi":46,"time":120.80345062500001,"velocity":0.3937007874015748},{"duration":0.10714274999999418,"midi":46,"time":120.80345062500001,"velocity":0.3937007874015748},{"duration":0.10714275000000839,"midi":49,"time":121.12487887500001,"velocity":0.3937007874015748},{"duration":0.10714275000000839,"midi":61,"time":121.12487887500001,"velocity":0.3937007874015748},{"duration":0.10714275000000839,"midi":61,"time":121.12487887500001,"velocity":0.3937007874015748},{"duration":0.10714275000000839,"midi":61,"time":121.12487887500001,"velocity":0.3937007874015748},{"duration":0.10714275000000839,"midi":49,"time":121.12487887500001,"velocity":0.3937007874015748},{"duration":0.10714275000000839,"midi":49,"time":121.12487887500001,"velocity":0.3937007874015748},{"duration":0.10714275000000839,"midi":51,"time":121.446307125,"velocity":0.3937007874015748},{"duration":0.10714275000000839,"midi":51,"time":121.446307125,"velocity":0.3937007874015748},{"duration":0.10714275000000839,"midi":51,"time":121.446307125,"velocity":0.3937007874015748},{"duration":0.10714275000000839,"midi":63,"time":121.446307125,"velocity":0.3937007874015748},{"duration":0.10714275000000839,"midi":63,"time":121.446307125,"velocity":0.3937007874015748},{"duration":0.10714275000000839,"midi":63,"time":121.446307125,"velocity":0.3937007874015748},{"duration":0.10714274999999418,"midi":58,"time":121.87487812500001,"velocity":0.3937007874015748},{"duration":0.10714274999999418,"midi":46,"time":121.87487812500001,"velocity":0.3937007874015748},{"duration":0.10714274999999418,"midi":58,"time":121.87487812500001,"velocity":0.3937007874015748},{"duration":0.10714274999999418,"midi":46,"time":121.87487812500001,"velocity":0.3937007874015748},{"duration":0.10714274999999418,"midi":58,"time":121.87487812500001,"velocity":0.3937007874015748},{"duration":0.10714274999999418,"midi":46,"time":121.87487812500001,"velocity":0.3937007874015748},{"duration":0.10714275000000839,"midi":46,"time":122.196306375,"velocity":0.3937007874015748},{"duration":0.10714275000000839,"midi":46,"time":122.196306375,"velocity":0.3937007874015748},{"duration":0.10714275000000839,"midi":58,"time":122.196306375,"velocity":0.3937007874015748},{"duration":0.10714275000000839,"midi":46,"time":122.196306375,"velocity":0.3937007874015748},{"duration":0.10714275000000839,"midi":58,"time":122.196306375,"velocity":0.3937007874015748},{"duration":0.10714275000000839,"midi":58,"time":122.196306375,"velocity":0.3937007874015748},{"duration":0.10714274999999418,"midi":44,"time":122.51773462500002,"velocity":0.3937007874015748},{"duration":0.10714274999999418,"midi":56,"time":122.51773462500002,"velocity":0.3937007874015748},{"duration":0.10714274999999418,"midi":56,"time":122.51773462500002,"velocity":0.3937007874015748},{"duration":0.10714274999999418,"midi":56,"time":122.51773462500002,"velocity":0.3937007874015748},{"duration":0.10714274999999418,"midi":44,"time":122.51773462500002,"velocity":0.3937007874015748},{"duration":0.10714274999999418,"midi":44,"time":122.51773462500002,"velocity":0.3937007874015748},{"duration":0.10714274999999418,"midi":57,"time":122.83916287500001,"velocity":0.3937007874015748},{"duration":0.10714274999999418,"midi":57,"time":122.83916287500001,"velocity":0.3937007874015748},{"duration":0.10714274999999418,"midi":45,"time":122.83916287500001,"velocity":0.3937007874015748},{"duration":0.10714274999999418,"midi":57,"time":122.83916287500001,"velocity":0.3937007874015748},{"duration":0.10714274999999418,"midi":45,"time":122.83916287500001,"velocity":0.3937007874015748},{"duration":0.10714274999999418,"midi":45,"time":122.83916287500001,"velocity":0.3937007874015748},{"duration":0.10714274999999418,"midi":46,"time":123.16059112500001,"velocity":0.3937007874015748},{"duration":0.10714274999999418,"midi":58,"time":123.16059112500001,"velocity":0.3937007874015748},{"duration":0.10714274999999418,"midi":58,"time":123.16059112500001,"velocity":0.3937007874015748},{"duration":0.10714274999999418,"midi":46,"time":123.16059112500001,"velocity":0.3937007874015748},{"duration":0.10714274999999418,"midi":58,"time":123.16059112500001,"velocity":0.3937007874015748},{"duration":0.10714274999999418,"midi":46,"time":123.16059112500001,"velocity":0.3937007874015748},{"duration":0.10714275000000839,"midi":58,"time":137.14272,"velocity":0.3937007874015748},{"duration":0.10714275000000839,"midi":34,"time":137.14272,"velocity":0.3937007874015748},{"duration":0.10714275000000839,"midi":37,"time":137.3570055,"velocity":0.3937007874015748},{"duration":0.10714275000000839,"midi":41,"time":137.3570055,"velocity":0.3937007874015748},{"duration":0.10714275000000839,"midi":61,"time":137.3570055,"velocity":0.3937007874015748},{"duration":0.10714275000000839,"midi":65,"time":137.571291,"velocity":0.3937007874015748},{"duration":0.10714275000000839,"midi":29,"time":137.571291,"velocity":0.3937007874015748},{"duration":0.10714274999997997,"midi":41,"time":137.78557650000002,"velocity":0.3937007874015748},{"duration":0.10714274999997997,"midi":37,"time":137.78557650000002,"velocity":0.3937007874015748},{"duration":0.10714274999997997,"midi":67,"time":137.78557650000002,"velocity":0.3937007874015748},{"duration":0.053571374999989985,"midi":68,"time":137.94629062500002,"velocity":0.3937007874015748},{"duration":0.21428550000001678,"midi":69,"time":137.999862,"velocity":0.3937007874015748},{"duration":0.10714275000000839,"midi":33,"time":137.999862,"velocity":0.3937007874015748},{"duration":0.10714274999997997,"midi":41,"time":138.21414750000002,"velocity":0.3937007874015748},{"duration":0.10714274999997997,"midi":36,"time":138.21414750000002,"velocity":0.3937007874015748},{"duration":0.053571374999989985,"midi":68,"time":138.267718875,"velocity":0.3937007874015748},{"duration":0.10714275000000839,"midi":67,"time":138.32129025,"velocity":0.3937007874015748},{"duration":0.10714275000000839,"midi":29,"time":138.428433,"velocity":0.3937007874015748},{"duration":0.10714275000000839,"midi":65,"time":138.6427185,"velocity":0.3937007874015748},{"duration":0.10714275000000839,"midi":36,"time":138.6427185,"velocity":0.3937007874015748},{"duration":0.10714275000000839,"midi":41,"time":138.6427185,"velocity":0.3937007874015748},{"duration":0.10714274999997997,"midi":34,"time":138.85700400000002,"velocity":0.3937007874015748},{"duration":0.10714274999997997,"midi":58,"time":138.85700400000002,"velocity":0.3937007874015748},{"duration":0.053571374999989985,"midi":58,"time":139.01771812500002,"velocity":0.3937007874015748},{"duration":0.10714275000000839,"midi":37,"time":139.0712895,"velocity":0.3937007874015748},{"duration":0.10714275000000839,"midi":61,"time":139.0712895,"velocity":0.3937007874015748},{"duration":0.10714275000000839,"midi":41,"time":139.0712895,"velocity":0.3937007874015748},{"duration":0.10714274999997997,"midi":65,"time":139.28557500000002,"velocity":0.3937007874015748},{"duration":0.10714274999997997,"midi":29,"time":139.28557500000002,"velocity":0.3937007874015748},{"duration":0.10714275000000839,"midi":37,"time":139.4998605,"velocity":0.3937007874015748},{"duration":0.10714275000000839,"midi":67,"time":139.4998605,"velocity":0.3937007874015748},{"duration":0.10714275000000839,"midi":41,"time":139.4998605,"velocity":0.3937007874015748},{"duration":0.053571374999989985,"midi":68,"time":139.660574625,"velocity":0.3937007874015748},{"duration":0.10714275000000839,"midi":33,"time":139.714146,"velocity":0.3937007874015748},{"duration":0.21428550000001678,"midi":69,"time":139.714146,"velocity":0.3937007874015748},{"duration":0.10714275000000839,"midi":36,"time":139.92843150000002,"velocity":0.3937007874015748},{"duration":0.10714275000000839,"midi":41,"time":139.92843150000002,"velocity":0.3937007874015748},{"duration":0.053571375000018406,"midi":68,"time":139.982002875,"velocity":0.3937007874015748},{"duration":0.10714274999997997,"midi":67,"time":140.03557425000002,"velocity":0.3937007874015748},{"duration":0.10714275000000839,"midi":29,"time":140.142717,"velocity":0.3937007874015748},{"duration":0.10714274999997997,"midi":69,"time":140.35700250000002,"velocity":0.3937007874015748},{"duration":0.10714274999997997,"midi":37,"time":140.35700250000002,"velocity":0.3937007874015748},{"duration":0.10714274999997997,"midi":33,"time":140.35700250000002,"velocity":0.3937007874015748}]},{"instrument":{"family":"brass","number":57,"name":"trombone"},"notes":[{"duration":0.10714274999999951,"midi":70,"time":13.714272000000001,"velocity":0.15748031496062992},{"duration":0.10714275000000129,"midi":65,"time":13.82141475,"velocity":0.15748031496062992},{"duration":0.10714274999999951,"midi":68,"time":13.928557500000002,"velocity":0.15748031496062992},{"duration":0.10714274999999951,"midi":70,"time":14.035700250000001,"velocity":0.15748031496062992},{"duration":0.10714275000000129,"midi":65,"time":14.24998575,"velocity":0.15748031496062992},{"duration":0.10714274999999951,"midi":68,"time":14.357128500000002,"velocity":0.15748031496062992},{"duration":0.10714274999999951,"midi":63,"time":14.464271250000001,"velocity":0.15748031496062992},{"duration":0.10714275000000129,"midi":70,"time":14.571414,"velocity":0.15748031496062992},{"duration":0.10714274999999951,"midi":65,"time":14.678556750000002,"velocity":0.15748031496062992},{"duration":0.10714274999999951,"midi":68,"time":14.785699500000002,"velocity":0.15748031496062992},{"duration":0.10714274999999951,"midi":70,"time":14.892842250000001,"velocity":0.15748031496062992},{"duration":0.10714274999999951,"midi":65,"time":15.107127750000002,"velocity":0.15748031496062992},{"duration":0.10714274999999951,"midi":68,"time":15.214270500000001,"velocity":0.15748031496062992},{"duration":0.10714274999999951,"midi":63,"time":15.32141325,"velocity":0.15748031496062992},{"duration":0.10714275000000129,"midi":70,"time":15.428556,"velocity":0.15748031496062992},{"duration":0.10714274999999951,"midi":65,"time":15.535698750000002,"velocity":0.15748031496062992},{"duration":0.10714274999999951,"midi":68,"time":15.642841500000001,"velocity":0.15748031496062992},{"duration":0.10714275000000129,"midi":70,"time":15.74998425,"velocity":0.15748031496062992},{"duration":0.10714274999999951,"midi":65,"time":15.964269750000001,"velocity":0.15748031496062992},{"duration":0.10714275000000129,"midi":68,"time":16.0714125,"velocity":0.15748031496062992},{"duration":0.10714274999999773,"midi":63,"time":16.178555250000002,"velocity":0.15748031496062992},{"duration":0.10714275000000129,"midi":70,"time":16.285698,"velocity":0.15748031496062992},{"duration":0.10714275000000129,"midi":65,"time":16.39284075,"velocity":0.15748031496062992},{"duration":0.10714274999999773,"midi":68,"time":16.499983500000003,"velocity":0.15748031496062992},{"duration":0.10714275000000129,"midi":77,"time":16.60712625,"velocity":0.15748031496062992},{"duration":0.10714274999999773,"midi":75,"time":16.821411750000003,"velocity":0.15748031496062992},{"duration":0.10714275000000129,"midi":73,"time":16.9285545,"velocity":0.15748031496062992},{"duration":0.10714274999999773,"midi":68,"time":17.035697250000002,"velocity":0.15748031496062992},{"duration":0.10714275000000129,"midi":70,"time":17.14284,"velocity":0.15748031496062992},{"duration":0.10714275000000129,"midi":65,"time":17.24998275,"velocity":0.15748031496062992},{"duration":0.10714274999999773,"midi":68,"time":17.357125500000002,"velocity":0.15748031496062992},{"duration":0.10714275000000129,"midi":70,"time":17.46426825,"velocity":0.15748031496062992},{"duration":0.10714274999999773,"midi":65,"time":17.678553750000003,"velocity":0.15748031496062992},{"duration":0.10714275000000129,"midi":68,"time":17.7856965,"velocity":0.15748031496062992},{"duration":0.10714275000000129,"midi":63,"time":17.89283925,"velocity":0.15748031496062992},{"duration":0.10714274999999773,"midi":70,"time":17.999982000000003,"velocity":0.15748031496062992},{"duration":0.10714275000000129,"midi":65,"time":18.10712475,"velocity":0.15748031496062992},{"duration":0.10714275000000129,"midi":68,"time":18.214267500000002,"velocity":0.15748031496062992},{"duration":0.10714274999999773,"midi":70,"time":18.321410250000003,"velocity":0.15748031496062992},{"duration":0.10714274999999773,"midi":65,"time":18.535695750000002,"velocity":0.15748031496062992},{"duration":0.10714275000000129,"midi":68,"time":18.6428385,"velocity":0.15748031496062992},{"duration":0.10714275000000129,"midi":63,"time":18.74998125,"velocity":0.15748031496062992},{"duration":0.10714274999999773,"midi":70,"time":18.857124000000002,"velocity":0.15748031496062992},{"duration":0.10714275000000129,"midi":65,"time":18.96426675,"velocity":0.15748031496062992},{"duration":0.10714275000000129,"midi":68,"time":19.0714095,"velocity":0.15748031496062992},{"duration":0.10714274999999773,"midi":70,"time":19.178552250000003,"velocity":0.15748031496062992},{"duration":0.10714275000000129,"midi":65,"time":19.39283775,"velocity":0.15748031496062992},{"duration":0.10714274999999773,"midi":68,"time":19.499980500000003,"velocity":0.15748031496062992},{"duration":0.10714275000000129,"midi":63,"time":19.60712325,"velocity":0.15748031496062992},{"duration":0.10714275000000129,"midi":70,"time":19.714266000000002,"velocity":0.15748031496062992},{"duration":0.10714274999999773,"midi":65,"time":19.821408750000003,"velocity":0.15748031496062992},{"duration":0.10714275000000129,"midi":68,"time":19.9285515,"velocity":0.15748031496062992},{"duration":0.10714274999999773,"midi":77,"time":20.035694250000002,"velocity":0.15748031496062992},{"duration":0.10714275000000129,"midi":75,"time":20.24997975,"velocity":0.15748031496062992},{"duration":0.10714274999999773,"midi":73,"time":20.357122500000003,"velocity":0.15748031496062992},{"duration":0.10714275000000129,"midi":68,"time":20.46426525,"velocity":0.15748031496062992},{"duration":0.10714275000000129,"midi":70,"time":20.571408,"velocity":0.15748031496062992},{"duration":0.21428549999999902,"midi":70,"time":20.571408,"velocity":0.15748031496062992},{"duration":0.10714274999999773,"midi":65,"time":20.678550750000003,"velocity":0.15748031496062992},{"duration":0.10714275000000129,"midi":68,"time":20.7856935,"velocity":0.15748031496062992},{"duration":0.10714275000000129,"midi":77,"time":20.7856935,"velocity":0.15748031496062992},{"duration":0.10714275000000129,"midi":70,"time":20.892836250000002,"velocity":0.15748031496062992},{"duration":0.10714275000000129,"midi":77,"time":21.10712175,"velocity":0.15748031496062992},{"duration":0.10714275000000129,"midi":65,"time":21.10712175,"velocity":0.15748031496062992},{"duration":0.10714274999999773,"midi":68,"time":21.214264500000002,"velocity":0.15748031496062992},{"duration":0.10714275000000129,"midi":63,"time":21.32140725,"velocity":0.15748031496062992},{"duration":0.10714275000000129,"midi":70,"time":21.42855,"velocity":0.15748031496062992},{"duration":0.05357137500000064,"midi":77,"time":21.42855,"velocity":0.15748031496062992},{"duration":0.05357137500000064,"midi":80,"time":21.482121375000002,"velocity":0.15748031496062992},{"duration":0.10714274999999773,"midi":65,"time":21.535692750000003,"velocity":0.15748031496062992},{"duration":0.05357137500000064,"midi":76,"time":21.535692750000003,"velocity":0.15748031496062992},{"duration":0.05357137499999709,"midi":73,"time":21.589264125000003,"velocity":0.15748031496062992},{"duration":0.10714275000000129,"midi":68,"time":21.6428355,"velocity":0.15748031496062992},{"duration":0.10714275000000129,"midi":70,"time":21.6428355,"velocity":0.15748031496062992},{"duration":0.10714275000000129,"midi":70,"time":21.74997825,"velocity":0.15748031496062992},{"duration":0.10714275000000129,"midi":73,"time":21.74997825,"velocity":0.15748031496062992},{"duration":0.21428549999999902,"midi":80,"time":21.857121000000003,"velocity":0.15748031496062992},{"duration":0.10714275000000129,"midi":65,"time":21.96426375,"velocity":0.15748031496062992},{"duration":0.10714275000000129,"midi":68,"time":22.071406500000002,"velocity":0.15748031496062992},{"duration":0.10714274999999773,"midi":63,"time":22.178549250000003,"velocity":0.15748031496062992},{"duration":0.10714275000000129,"midi":70,"time":22.285692,"velocity":0.15748031496062992},{"duration":0.21428550000000257,"midi":70,"time":22.285692,"velocity":0.15748031496062992},{"duration":0.10714275000000129,"midi":65,"time":22.392834750000002,"velocity":0.15748031496062992},{"duration":0.10714274999999773,"midi":77,"time":22.499977500000004,"velocity":0.15748031496062992},{"duration":0.10714274999999773,"midi":68,"time":22.499977500000004,"velocity":0.15748031496062992},{"duration":0.10714275000000129,"midi":70,"time":22.60712025,"velocity":0.15748031496062992},{"duration":0.10714275000000129,"midi":65,"time":22.82140575,"velocity":0.15748031496062992},{"duration":0.10714275000000129,"midi":77,"time":22.82140575,"velocity":0.15748031496062992},{"duration":0.10714275000000129,"midi":68,"time":22.9285485,"velocity":0.15748031496062992},{"duration":0.10714274999999773,"midi":63,"time":23.035691250000003,"velocity":0.15748031496062992},{"duration":0.026785687499998545,"midi":75,"time":23.089262625000003,"velocity":0.15748031496062992},{"duration":0.026785687499998545,"midi":76,"time":23.116048312500002,"velocity":0.15748031496062992},{"duration":0.05357137500000064,"midi":77,"time":23.142834,"velocity":0.15748031496062992},{"duration":0.10714275000000129,"midi":70,"time":23.142834,"velocity":0.15748031496062992},{"duration":0.10714275000000129,"midi":65,"time":23.249976750000002,"velocity":0.15748031496062992},{"duration":0.05357137500000064,"midi":76,"time":23.249976750000002,"velocity":0.15748031496062992},{"duration":0.05357137500000064,"midi":73,"time":23.303548125000002,"velocity":0.15748031496062992},{"duration":0.10714274999999773,"midi":68,"time":23.357119500000003,"velocity":0.15748031496062992},{"duration":0.10714274999999773,"midi":70,"time":23.357119500000003,"velocity":0.15748031496062992},{"duration":0.10714275000000129,"midi":77,"time":23.46426225,"velocity":0.15748031496062992},{"duration":0.10714275000000129,"midi":73,"time":23.46426225,"velocity":0.15748031496062992},{"duration":0.21428549999999902,"midi":75,"time":23.571405000000002,"velocity":0.15748031496062992},{"duration":0.10714274999999773,"midi":75,"time":23.678547750000003,"velocity":0.15748031496062992},{"duration":0.10714275000000129,"midi":73,"time":23.7856905,"velocity":0.15748031496062992},{"duration":0.10714275000000129,"midi":68,"time":23.892833250000002,"velocity":0.15748031496062992},{"duration":0.10714274999999773,"midi":70,"time":23.999976000000004,"velocity":0.15748031496062992},{"duration":0.21428549999999902,"midi":70,"time":23.999976000000004,"velocity":0.15748031496062992},{"duration":0.10714275000000129,"midi":65,"time":24.10711875,"velocity":0.15748031496062992},{"duration":0.10714274999999773,"midi":77,"time":24.214261500000003,"velocity":0.15748031496062992},{"duration":0.10714274999999773,"midi":68,"time":24.214261500000003,"velocity":0.15748031496062992},{"duration":0.10714275000000129,"midi":70,"time":24.32140425,"velocity":0.15748031496062992},{"duration":0.10714274999999773,"midi":77,"time":24.535689750000003,"velocity":0.15748031496062992},{"duration":0.10714274999999773,"midi":65,"time":24.535689750000003,"velocity":0.15748031496062992},{"duration":0.10714275000000129,"midi":68,"time":24.6428325,"velocity":0.15748031496062992},{"duration":0.10714275000000129,"midi":63,"time":24.749975250000002,"velocity":0.15748031496062992},{"duration":0.05357137499999709,"midi":77,"time":24.857118000000003,"velocity":0.15748031496062992},{"duration":0.10714274999999773,"midi":70,"time":24.857118000000003,"velocity":0.15748031496062992},{"duration":0.05357137500000064,"midi":80,"time":24.910689375,"velocity":0.15748031496062992},{"duration":0.05357137500000064,"midi":76,"time":24.96426075,"velocity":0.15748031496062992},{"duration":0.10714275000000129,"midi":65,"time":24.96426075,"velocity":0.15748031496062992},{"duration":0.05357137500000064,"midi":73,"time":25.017832125,"velocity":0.15748031496062992},{"duration":0.10714275000000129,"midi":68,"time":25.071403500000002,"velocity":0.15748031496062992},{"duration":0.10714275000000129,"midi":70,"time":25.071403500000002,"velocity":0.15748031496062992},{"duration":0.10714274999999773,"midi":70,"time":25.178546250000004,"velocity":0.15748031496062992},{"duration":0.10714274999999773,"midi":73,"time":25.178546250000004,"velocity":0.15748031496062992},{"duration":0.21428549999999902,"midi":80,"time":25.285689,"velocity":0.15748031496062992},{"duration":0.10714274999999773,"midi":65,"time":25.392831750000003,"velocity":0.15748031496062992},{"duration":0.10714275000000129,"midi":68,"time":25.4999745,"velocity":0.15748031496062992},{"duration":0.10714275000000129,"midi":63,"time":25.60711725,"velocity":0.15748031496062992},{"duration":0.10714274999999773,"midi":70,"time":25.714260000000003,"velocity":0.15748031496062992},{"duration":0.21428549999999902,"midi":70,"time":25.714260000000003,"velocity":0.15748031496062992},{"duration":0.10714275000000129,"midi":65,"time":25.82140275,"velocity":0.15748031496062992},{"duration":0.10714275000000129,"midi":68,"time":25.928545500000002,"velocity":0.15748031496062992},{"duration":0.10714275000000129,"midi":77,"time":25.928545500000002,"velocity":0.15748031496062992},{"duration":0.10714274999999773,"midi":70,"time":26.035688250000003,"velocity":0.15748031496062992},{"duration":0.10714275000000129,"midi":65,"time":26.249973750000002,"velocity":0.15748031496062992},{"duration":0.10714275000000129,"midi":77,"time":26.249973750000002,"velocity":0.15748031496062992},{"duration":0.10714274999999773,"midi":68,"time":26.357116500000004,"velocity":0.15748031496062992},{"duration":0.10714275000000129,"midi":63,"time":26.46425925,"velocity":0.15748031496062992},{"duration":0.10714275000000129,"midi":70,"time":26.571402000000003,"velocity":0.15748031496062992},{"duration":0.05357137500000064,"midi":82,"time":26.571402000000003,"velocity":0.15748031496062992},{"duration":0.05357137500000064,"midi":82,"time":26.624973375000003,"velocity":0.09448818897637795},{"duration":0.05357137499999709,"midi":82,"time":26.678544750000004,"velocity":0.15748031496062992},{"duration":0.10714274999999773,"midi":65,"time":26.678544750000004,"velocity":0.15748031496062992},{"duration":0.05357137500000064,"midi":82,"time":26.732116125,"velocity":0.09448818897637795},{"duration":0.05357137500000064,"midi":82,"time":26.7856875,"velocity":0.15748031496062992},{"duration":0.10714275000000129,"midi":68,"time":26.7856875,"velocity":0.15748031496062992},{"duration":0.05357137500000064,"midi":82,"time":26.839258875000002,"velocity":0.09448818897637795},{"duration":0.10714274999999773,"midi":77,"time":26.892830250000003,"velocity":0.15748031496062992},{"duration":0.05357137500000064,"midi":82,"time":26.892830250000003,"velocity":0.15748031496062992},{"duration":0.05357137499999709,"midi":82,"time":26.946401625000004,"velocity":0.09448818897637795},{"duration":0.05357137500000064,"midi":78,"time":26.999973,"velocity":0.15748031496062992},{"duration":0.05357137500000064,"midi":78,"time":27.053544375,"velocity":0.09448818897637795},{"duration":0.05357137500000064,"midi":78,"time":27.107115750000002,"velocity":0.15748031496062992},{"duration":0.10714275000000129,"midi":75,"time":27.107115750000002,"velocity":0.15748031496062992},{"duration":0.05357137500000064,"midi":78,"time":27.160687125000003,"velocity":0.09448818897637795},{"duration":0.10714274999999773,"midi":73,"time":27.214258500000003,"velocity":0.15748031496062992},{"duration":0.05357137500000064,"midi":78,"time":27.214258500000003,"velocity":0.15748031496062992},{"duration":0.05357137499999709,"midi":78,"time":27.267829875000004,"velocity":0.09448818897637795},{"duration":0.10714275000000129,"midi":68,"time":27.32140125,"velocity":0.15748031496062992},{"duration":0.05357137500000064,"midi":78,"time":27.32140125,"velocity":0.15748031496062992},{"duration":0.05357137500000064,"midi":78,"time":27.374972625,"velocity":0.09448818897637795},{"duration":0.10714275000000129,"midi":70,"time":27.428544000000002,"velocity":0.15748031496062992},{"duration":0.10714274999999773,"midi":65,"time":27.535686750000004,"velocity":0.15748031496062992},{"duration":0.10714275000000129,"midi":68,"time":27.6428295,"velocity":0.15748031496062992},{"duration":0.10714275000000129,"midi":70,"time":27.749972250000003,"velocity":0.15748031496062992},{"duration":0.10714275000000129,"midi":65,"time":27.96425775,"velocity":0.15748031496062992},{"duration":0.10714274999999773,"midi":68,"time":28.071400500000003,"velocity":0.15748031496062992},{"duration":0.10714275000000129,"midi":63,"time":28.17854325,"velocity":0.15748031496062992},{"duration":0.10714275000000129,"midi":70,"time":28.285686000000002,"velocity":0.15748031496062992},{"duration":0.10714274999999773,"midi":65,"time":28.392828750000003,"velocity":0.15748031496062992},{"duration":0.10714275000000129,"midi":68,"time":28.4999715,"velocity":0.15748031496062992},{"duration":0.10714275000000129,"midi":70,"time":28.607114250000002,"velocity":0.15748031496062992},{"duration":0.10714275000000129,"midi":65,"time":28.82139975,"velocity":0.15748031496062992},{"duration":0.10714275000000129,"midi":68,"time":28.928542500000002,"velocity":0.15748031496062992},{"duration":0.10714274999999773,"midi":63,"time":29.035685250000004,"velocity":0.15748031496062992},{"duration":0.10714275000000129,"midi":70,"time":29.142828,"velocity":0.15748031496062992},{"duration":0.10714275000000129,"midi":65,"time":29.249970750000003,"velocity":0.15748031496062992},{"duration":0.10714274999999773,"midi":68,"time":29.357113500000004,"velocity":0.15748031496062992},{"duration":0.10714275000000129,"midi":70,"time":29.464256250000002,"velocity":0.15748031496062992},{"duration":0.10714275000000129,"midi":65,"time":29.67854175,"velocity":0.15748031496062992},{"duration":0.10714275000000129,"midi":68,"time":29.785684500000002,"velocity":0.15748031496062992},{"duration":0.10714274999999773,"midi":63,"time":29.892827250000003,"velocity":0.15748031496062992},{"duration":0.10714275000000129,"midi":70,"time":29.99997,"velocity":0.15748031496062992},{"duration":0.10714275000000129,"midi":65,"time":30.107112750000002,"velocity":0.15748031496062992},{"duration":0.10714274999999773,"midi":68,"time":30.214255500000004,"velocity":0.15748031496062992},{"duration":0.10714275000000129,"midi":77,"time":30.32139825,"velocity":0.15748031496062992},{"duration":0.10714274999999773,"midi":75,"time":30.535683750000004,"velocity":0.15748031496062992},{"duration":0.10714275000000129,"midi":73,"time":30.6428265,"velocity":0.15748031496062992},{"duration":0.10714274999999773,"midi":68,"time":30.749969250000003,"velocity":0.15748031496062992},{"duration":0.10714275000000129,"midi":70,"time":30.857112,"velocity":0.15748031496062992},{"duration":0.10714275000000129,"midi":65,"time":30.964254750000002,"velocity":0.15748031496062992},{"duration":0.10714274999999773,"midi":68,"time":31.071397500000003,"velocity":0.15748031496062992},{"duration":0.10714275000000129,"midi":70,"time":31.17854025,"velocity":0.15748031496062992},{"duration":0.10714274999999773,"midi":65,"time":31.392825750000004,"velocity":0.15748031496062992},{"duration":0.10714275000000129,"midi":68,"time":31.4999685,"velocity":0.15748031496062992},{"duration":0.10714275000000129,"midi":63,"time":31.607111250000003,"velocity":0.15748031496062992},{"duration":0.10714274999999773,"midi":70,"time":31.714254000000004,"velocity":0.15748031496062992},{"duration":0.10714275000000129,"midi":65,"time":31.82139675,"velocity":0.15748031496062992},{"duration":0.10714274999999773,"midi":68,"time":31.928539500000003,"velocity":0.15748031496062992},{"duration":0.10714275000000129,"midi":70,"time":32.03568225,"velocity":0.15748031496062992},{"duration":0.10714275000000129,"midi":65,"time":32.24996775,"velocity":0.15748031496062992},{"duration":0.10714275000000129,"midi":68,"time":32.357110500000005,"velocity":0.15748031496062992},{"duration":0.10714274999999418,"midi":63,"time":32.464253250000006,"velocity":0.15748031496062992},{"duration":0.10714275000000129,"midi":70,"time":32.571396,"velocity":0.15748031496062992},{"duration":0.10714275000000129,"midi":65,"time":32.67853875,"velocity":0.15748031496062992},{"duration":0.10714275000000129,"midi":68,"time":32.7856815,"velocity":0.15748031496062992},{"duration":0.10714275000000129,"midi":70,"time":32.892824250000004,"velocity":0.15748031496062992},{"duration":0.10714275000000129,"midi":65,"time":33.10710975,"velocity":0.15748031496062992},{"duration":0.10714275000000129,"midi":68,"time":33.2142525,"velocity":0.15748031496062992},{"duration":0.10714275000000129,"midi":63,"time":33.32139525,"velocity":0.15748031496062992},{"duration":0.10714275000000129,"midi":70,"time":33.428538,"velocity":0.15748031496062992},{"duration":0.10714275000000129,"midi":65,"time":33.535680750000004,"velocity":0.15748031496062992},{"duration":0.10714274999999418,"midi":68,"time":33.642823500000006,"velocity":0.15748031496062992},{"duration":0.10714275000000129,"midi":77,"time":33.74996625,"velocity":0.15748031496062992},{"duration":0.10714275000000129,"midi":75,"time":33.96425175,"velocity":0.15748031496062992},{"duration":0.10714275000000129,"midi":73,"time":34.071394500000004,"velocity":0.15748031496062992},{"duration":0.10714274999999418,"midi":68,"time":34.178537250000005,"velocity":0.15748031496062992},{"duration":0.10714275000000129,"midi":70,"time":34.28568,"velocity":0.15748031496062992},{"duration":0.10714275000000129,"midi":65,"time":34.39282275,"velocity":0.15748031496062992},{"duration":0.10714275000000129,"midi":68,"time":34.4999655,"velocity":0.15748031496062992},{"duration":0.10714275000000129,"midi":70,"time":34.60710825,"velocity":0.15748031496062992},{"duration":0.10714274999999418,"midi":65,"time":34.821393750000006,"velocity":0.15748031496062992},{"duration":0.10714275000000129,"midi":68,"time":34.9285365,"velocity":0.15748031496062992},{"duration":0.10714275000000129,"midi":63,"time":35.03567925,"velocity":0.15748031496062992},{"duration":0.10714275000000129,"midi":70,"time":35.142822,"velocity":0.15748031496062992},{"duration":0.10714275000000129,"midi":65,"time":35.249964750000004,"velocity":0.15748031496062992},{"duration":0.10714275000000129,"midi":68,"time":35.357107500000005,"velocity":0.15748031496062992},{"duration":0.10714274999999418,"midi":70,"time":35.464250250000006,"velocity":0.15748031496062992},{"duration":0.10714275000000129,"midi":65,"time":35.67853575,"velocity":0.15748031496062992},{"duration":0.10714275000000129,"midi":68,"time":35.7856785,"velocity":0.15748031496062992},{"duration":0.10714275000000129,"midi":63,"time":35.892821250000004,"velocity":0.15748031496062992},{"duration":0.10714274999999418,"midi":70,"time":35.999964000000006,"velocity":0.15748031496062992},{"duration":0.10714275000000129,"midi":65,"time":36.10710675,"velocity":0.15748031496062992},{"duration":0.10714275000000129,"midi":68,"time":36.2142495,"velocity":0.15748031496062992},{"duration":0.10714275000000129,"midi":70,"time":36.32139225,"velocity":0.15748031496062992},{"duration":0.10714275000000129,"midi":65,"time":36.535677750000005,"velocity":0.15748031496062992},{"duration":0.10714274999999418,"midi":68,"time":36.642820500000006,"velocity":0.15748031496062992},{"duration":0.10714275000000129,"midi":63,"time":36.74996325,"velocity":0.15748031496062992},{"duration":0.10714275000000129,"midi":70,"time":36.857106,"velocity":0.15748031496062992},{"duration":0.10714275000000129,"midi":65,"time":36.96424875,"velocity":0.15748031496062992},{"duration":0.10714275000000129,"midi":68,"time":37.071391500000004,"velocity":0.15748031496062992},{"duration":0.10714274999999418,"midi":77,"time":37.178534250000006,"velocity":0.15748031496062992},{"duration":0.10714275000000129,"midi":75,"time":37.39281975,"velocity":0.15748031496062992},{"duration":0.10714275000000129,"midi":73,"time":37.4999625,"velocity":0.15748031496062992},{"duration":0.10714275000000129,"midi":68,"time":37.607105250000004,"velocity":0.15748031496062992},{"duration":0.10714275000000129,"midi":70,"time":37.714248000000005,"velocity":0.15748031496062992},{"duration":0.10714274999999418,"midi":65,"time":37.821390750000006,"velocity":0.15748031496062992},{"duration":0.10714275000000129,"midi":68,"time":37.9285335,"velocity":0.15748031496062992},{"duration":0.10714275000000129,"midi":70,"time":38.03567625,"velocity":0.15748031496062992},{"duration":0.10714275000000129,"midi":65,"time":38.249961750000004,"velocity":0.15748031496062992},{"duration":0.10714274999999418,"midi":68,"time":38.357104500000005,"velocity":0.15748031496062992},{"duration":0.10714275000000129,"midi":63,"time":38.46424725,"velocity":0.15748031496062992},{"duration":0.10714275000000129,"midi":70,"time":38.57139,"velocity":0.15748031496062992},{"duration":0.10714275000000129,"midi":65,"time":38.67853275,"velocity":0.15748031496062992},{"duration":0.10714275000000129,"midi":68,"time":38.7856755,"velocity":0.15748031496062992},{"duration":0.10714275000000129,"midi":70,"time":38.892818250000005,"velocity":0.15748031496062992},{"duration":0.10714275000000129,"midi":65,"time":39.10710375,"velocity":0.15748031496062992},{"duration":0.10714275000000129,"midi":68,"time":39.2142465,"velocity":0.15748031496062992},{"duration":0.10714275000000129,"midi":63,"time":39.32138925,"velocity":0.15748031496062992},{"duration":0.10714275000000129,"midi":70,"time":39.428532000000004,"velocity":0.15748031496062992},{"duration":0.10714275000000129,"midi":65,"time":39.535674750000005,"velocity":0.15748031496062992},{"duration":0.10714274999999418,"midi":68,"time":39.64281750000001,"velocity":0.15748031496062992},{"duration":0.10714275000000129,"midi":70,"time":39.74996025,"velocity":0.15748031496062992},{"duration":0.10714275000000129,"midi":65,"time":39.96424575,"velocity":0.15748031496062992},{"duration":0.10714275000000129,"midi":68,"time":40.071388500000005,"velocity":0.15748031496062992},{"duration":0.10714274999999418,"midi":63,"time":40.178531250000006,"velocity":0.15748031496062992},{"duration":0.10714275000000129,"midi":70,"time":40.285674,"velocity":0.15748031496062992},{"duration":0.10714275000000129,"midi":65,"time":40.39281675,"velocity":0.15748031496062992},{"duration":0.10714275000000129,"midi":68,"time":40.4999595,"velocity":0.15748031496062992},{"duration":0.10714275000000129,"midi":77,"time":40.607102250000004,"velocity":0.15748031496062992},{"duration":0.10714274999999418,"midi":75,"time":40.82138775000001,"velocity":0.15748031496062992},{"duration":0.10714275000000129,"midi":73,"time":40.9285305,"velocity":0.15748031496062992},{"duration":0.10714275000000129,"midi":68,"time":41.03567325,"velocity":0.15748031496062992},{"duration":0.10714275000000129,"midi":70,"time":41.142816,"velocity":0.15748031496062992},{"duration":0.10714274999999418,"midi":65,"time":41.357101500000006,"velocity":0.15748031496062992},{"duration":0.10714275000000129,"midi":70,"time":41.46424425,"velocity":0.15748031496062992},{"duration":0.10714275000000129,"midi":65,"time":41.67852975,"velocity":0.15748031496062992},{"duration":0.10714275000000129,"midi":68,"time":41.785672500000004,"velocity":0.15748031496062992},{"duration":0.10714275000000129,"midi":63,"time":41.892815250000005,"velocity":0.15748031496062992},{"duration":0.10714274999999418,"midi":73,"time":41.99995800000001,"velocity":0.15748031496062992},{"duration":0.10714275000000129,"midi":68,"time":42.2142435,"velocity":0.15748031496062992},{"duration":0.10714275000000129,"midi":73,"time":42.32138625,"velocity":0.15748031496062992},{"duration":0.10714274999999418,"midi":68,"time":42.535671750000006,"velocity":0.15748031496062992},{"duration":0.10714275000000129,"midi":73,"time":42.6428145,"velocity":0.15748031496062992},{"duration":0.10714275000000129,"midi":75,"time":42.74995725,"velocity":0.15748031496062992},{"duration":0.10714275000000129,"midi":72,"time":42.8571,"velocity":0.15748031496062992},{"duration":0.10714275000000129,"midi":67,"time":43.071385500000005,"velocity":0.15748031496062992},{"duration":0.10714274999999418,"midi":72,"time":43.17852825000001,"velocity":0.15748031496062992},{"duration":0.10714275000000129,"midi":65,"time":43.39281375,"velocity":0.15748031496062992},{"duration":0.10714275000000129,"midi":68,"time":43.4999565,"velocity":0.15748031496062992},{"duration":0.10714275000000129,"midi":73,"time":43.607099250000005,"velocity":0.15748031496062992},{"duration":0.10714275000000129,"midi":76,"time":43.714242000000006,"velocity":0.15748031496062992},{"duration":0.10714275000000129,"midi":72,"time":43.9285275,"velocity":0.15748031496062992},{"duration":0.10714275000000129,"midi":76,"time":44.03567025,"velocity":0.15748031496062992},{"duration":0.10714275000000129,"midi":75,"time":44.249955750000005,"velocity":0.15748031496062992},{"duration":0.10714274999999418,"midi":73,"time":44.357098500000006,"velocity":0.15748031496062992},{"duration":0.10714275000000129,"midi":68,"time":44.46424125,"velocity":0.15748031496062992},{"duration":0.10714275000000129,"midi":70,"time":44.571384,"velocity":0.15748031496062992},{"duration":0.10714275000000129,"midi":65,"time":44.67852675,"velocity":0.15748031496062992},{"duration":0.10714275000000129,"midi":68,"time":44.785669500000004,"velocity":0.15748031496062992},{"duration":0.10714275000000129,"midi":70,"time":44.892812250000006,"velocity":0.15748031496062992},{"duration":0.10714275000000129,"midi":65,"time":45.10709775,"velocity":0.15748031496062992},{"duration":0.10714275000000129,"midi":68,"time":45.2142405,"velocity":0.15748031496062992},{"duration":0.10714275000000129,"midi":63,"time":45.321383250000004,"velocity":0.15748031496062992},{"duration":0.10714275000000129,"midi":70,"time":45.428526000000005,"velocity":0.15748031496062992},{"duration":0.10714274999999418,"midi":65,"time":45.535668750000006,"velocity":0.15748031496062992},{"duration":0.10714275000000129,"midi":68,"time":45.6428115,"velocity":0.15748031496062992},{"duration":0.10714275000000129,"midi":70,"time":45.74995425,"velocity":0.15748031496062992},{"duration":0.10714275000000129,"midi":65,"time":45.964239750000004,"velocity":0.15748031496062992},{"duration":0.10714275000000129,"midi":68,"time":46.071382500000006,"velocity":0.15748031496062992},{"duration":0.10714274999999418,"midi":63,"time":46.17852525000001,"velocity":0.15748031496062992},{"duration":0.10714275000000129,"midi":70,"time":46.285668,"velocity":0.15748031496062992},{"duration":0.10714275000000129,"midi":65,"time":46.39281075,"velocity":0.15748031496062992},{"duration":0.10714275000000129,"midi":68,"time":46.499953500000004,"velocity":0.15748031496062992},{"duration":0.10714275000000129,"midi":70,"time":46.607096250000005,"velocity":0.15748031496062992},{"duration":0.10714275000000129,"midi":65,"time":46.82138175,"velocity":0.15748031496062992},{"duration":0.10714275000000129,"midi":68,"time":46.9285245,"velocity":0.15748031496062992},{"duration":0.10714275000000129,"midi":63,"time":47.03566725,"velocity":0.15748031496062992},{"duration":0.10714275000000129,"midi":70,"time":47.142810000000004,"velocity":0.15748031496062992},{"duration":0.10714275000000129,"midi":65,"time":47.249952750000006,"velocity":0.15748031496062992},{"duration":0.10714274999999418,"midi":68,"time":47.35709550000001,"velocity":0.15748031496062992},{"duration":0.10714275000000129,"midi":77,"time":47.46423825,"velocity":0.15748031496062992},{"duration":0.10714275000000129,"midi":75,"time":47.678523750000004,"velocity":0.15748031496062992},{"duration":0.10714275000000129,"midi":73,"time":47.785666500000005,"velocity":0.15748031496062992},{"duration":0.10714275000000129,"midi":68,"time":47.892809250000006,"velocity":0.15748031496062992},{"duration":0.10714274999999418,"midi":70,"time":47.99995200000001,"velocity":0.15748031496062992},{"duration":0.10714275000000129,"midi":65,"time":48.2142375,"velocity":0.15748031496062992},{"duration":0.10714275000000129,"midi":70,"time":48.321380250000004,"velocity":0.15748031496062992},{"duration":0.10714274999999418,"midi":65,"time":48.53566575000001,"velocity":0.15748031496062992},{"duration":0.10714275000000129,"midi":68,"time":48.6428085,"velocity":0.15748031496062992},{"duration":0.10714275000000129,"midi":63,"time":48.74995125,"velocity":0.15748031496062992},{"duration":0.10714275000000129,"midi":73,"time":48.857094000000004,"velocity":0.15748031496062992},{"duration":0.10714275000000129,"midi":68,"time":49.071379500000006,"velocity":0.15748031496062992},{"duration":0.10714274999999418,"midi":73,"time":49.17852225000001,"velocity":0.15748031496062992},{"duration":0.10714275000000129,"midi":68,"time":49.39280775,"velocity":0.15748031496062992},{"duration":0.10714275000000129,"midi":73,"time":49.499950500000004,"velocity":0.15748031496062992},{"duration":0.10714275000000129,"midi":75,"time":49.607093250000005,"velocity":0.15748031496062992},{"duration":0.10714274999999418,"midi":72,"time":49.71423600000001,"velocity":0.15748031496062992},{"duration":0.10714275000000129,"midi":67,"time":49.9285215,"velocity":0.15748031496062992},{"duration":0.10714275000000129,"midi":72,"time":50.03566425,"velocity":0.15748031496062992},{"duration":0.10714275000000129,"midi":65,"time":50.249949750000006,"velocity":0.15748031496062992},{"duration":0.10714274999999418,"midi":68,"time":50.35709250000001,"velocity":0.15748031496062992},{"duration":0.10714275000000129,"midi":73,"time":50.46423525,"velocity":0.15748031496062992},{"duration":0.10714275000000129,"midi":76,"time":50.571378,"velocity":0.15748031496062992},{"duration":0.10714275000000129,"midi":72,"time":50.785663500000005,"velocity":0.15748031496062992},{"duration":0.10714274999999418,"midi":76,"time":50.89280625000001,"velocity":0.15748031496062992},{"duration":0.10714275000000129,"midi":75,"time":51.10709175,"velocity":0.15748031496062992},{"duration":0.10714275000000129,"midi":73,"time":51.2142345,"velocity":0.15748031496062992},{"duration":0.10714275000000129,"midi":68,"time":51.321377250000005,"velocity":0.15748031496062992},{"duration":0.10714275000000129,"midi":70,"time":51.428520000000006,"velocity":0.15748031496062992},{"duration":0.10714274999999418,"midi":65,"time":51.53566275000001,"velocity":0.15748031496062992},{"duration":0.10714275000000129,"midi":68,"time":51.6428055,"velocity":0.15748031496062992},{"duration":0.10714275000000129,"midi":70,"time":51.74994825,"velocity":0.15748031496062992},{"duration":0.10714275000000129,"midi":65,"time":51.964233750000005,"velocity":0.15748031496062992},{"duration":0.10714274999999418,"midi":68,"time":52.07137650000001,"velocity":0.15748031496062992},{"duration":0.10714275000000129,"midi":63,"time":52.17851925,"velocity":0.15748031496062992},{"duration":0.10714275000000129,"midi":70,"time":52.285662,"velocity":0.15748031496062992},{"duration":0.10714275000000129,"midi":65,"time":52.39280475,"velocity":0.15748031496062992},{"duration":0.10714275000000129,"midi":68,"time":52.499947500000005,"velocity":0.15748031496062992},{"duration":0.10714275000000129,"midi":70,"time":52.607090250000006,"velocity":0.15748031496062992},{"duration":0.10714275000000129,"midi":65,"time":52.82137575,"velocity":0.15748031496062992},{"duration":0.10714275000000129,"midi":68,"time":52.9285185,"velocity":0.15748031496062992},{"duration":0.10714275000000129,"midi":63,"time":53.035661250000004,"velocity":0.15748031496062992},{"duration":0.10714275000000129,"midi":70,"time":53.142804000000005,"velocity":0.15748031496062992},{"duration":0.10714275000000129,"midi":65,"time":53.24994675000001,"velocity":0.15748031496062992},{"duration":0.10714274999999418,"midi":68,"time":53.35708950000001,"velocity":0.15748031496062992},{"duration":0.10714275000000129,"midi":70,"time":53.46423225,"velocity":0.15748031496062992},{"duration":0.10714275000000129,"midi":65,"time":53.678517750000005,"velocity":0.15748031496062992},{"duration":0.10714275000000129,"midi":68,"time":53.785660500000006,"velocity":0.15748031496062992},{"duration":0.10714274999999418,"midi":63,"time":53.89280325000001,"velocity":0.15748031496062992},{"duration":0.10714275000000129,"midi":70,"time":53.999946,"velocity":0.15748031496062992},{"duration":0.10714275000000129,"midi":65,"time":54.10708875,"velocity":0.15748031496062992},{"duration":0.10714275000000129,"midi":68,"time":54.214231500000004,"velocity":0.15748031496062992},{"duration":0.10714275000000129,"midi":77,"time":54.321374250000005,"velocity":0.15748031496062992},{"duration":0.10714274999999418,"midi":75,"time":54.53565975000001,"velocity":0.15748031496062992},{"duration":0.10714275000000129,"midi":73,"time":54.6428025,"velocity":0.15748031496062992},{"duration":0.10714275000000129,"midi":68,"time":54.74994525,"velocity":0.15748031496062992},{"duration":0.10714275000000129,"midi":70,"time":54.857088000000005,"velocity":0.15748031496062992},{"duration":0.10714275000000129,"midi":65,"time":54.964230750000006,"velocity":0.15748031496062992},{"duration":0.10714274999999418,"midi":68,"time":55.07137350000001,"velocity":0.15748031496062992},{"duration":0.10714275000000129,"midi":70,"time":55.17851625,"velocity":0.15748031496062992},{"duration":0.10714275000000129,"midi":65,"time":55.392801750000004,"velocity":0.15748031496062992},{"duration":0.10714275000000129,"midi":68,"time":55.499944500000005,"velocity":0.15748031496062992},{"duration":0.10714275000000129,"midi":63,"time":55.607087250000006,"velocity":0.15748031496062992},{"duration":0.10714274999999418,"midi":70,"time":55.71423000000001,"velocity":0.15748031496062992},{"duration":0.10714275000000129,"midi":65,"time":55.82137275,"velocity":0.15748031496062992},{"duration":0.10714275000000129,"midi":68,"time":55.9285155,"velocity":0.15748031496062992},{"duration":0.10714275000000129,"midi":70,"time":56.035658250000004,"velocity":0.15748031496062992},{"duration":0.10714274999999418,"midi":65,"time":56.24994375000001,"velocity":0.15748031496062992},{"duration":0.10714275000000129,"midi":68,"time":56.3570865,"velocity":0.15748031496062992},{"duration":0.10714275000000129,"midi":63,"time":56.46422925,"velocity":0.15748031496062992},{"duration":0.10714275000000129,"midi":70,"time":56.571372000000004,"velocity":0.15748031496062992},{"duration":0.10714275000000129,"midi":65,"time":56.678514750000005,"velocity":0.15748031496062992},{"duration":0.10714275000000129,"midi":68,"time":56.785657500000006,"velocity":0.15748031496062992},{"duration":0.10714274999999418,"midi":70,"time":56.89280025000001,"velocity":0.15748031496062992},{"duration":0.10714275000000129,"midi":65,"time":57.10708575,"velocity":0.15748031496062992},{"duration":0.10714275000000129,"midi":68,"time":57.214228500000004,"velocity":0.15748031496062992},{"duration":0.10714275000000129,"midi":63,"time":57.321371250000006,"velocity":0.15748031496062992},{"duration":0.10714275000000129,"midi":70,"time":57.42851400000001,"velocity":0.15748031496062992},{"duration":0.10714274999999418,"midi":65,"time":57.53565675000001,"velocity":0.15748031496062992},{"duration":0.10714275000000129,"midi":68,"time":57.6427995,"velocity":0.15748031496062992},{"duration":0.10714275000000129,"midi":77,"time":57.749942250000004,"velocity":0.15748031496062992},{"duration":0.10714275000000129,"midi":75,"time":57.964227750000006,"velocity":0.15748031496062992},{"duration":0.10714274999999418,"midi":73,"time":58.07137050000001,"velocity":0.15748031496062992},{"duration":0.10714275000000129,"midi":68,"time":58.17851325,"velocity":0.15748031496062992},{"duration":0.10714275000000129,"midi":70,"time":58.285656,"velocity":0.15748031496062992},{"duration":0.10714275000000129,"midi":65,"time":58.392798750000004,"velocity":0.15748031496062992},{"duration":0.10714275000000129,"midi":68,"time":58.499941500000006,"velocity":0.15748031496062992},{"duration":0.10714275000000129,"midi":70,"time":58.60708425000001,"velocity":0.15748031496062992},{"duration":0.10714275000000129,"midi":65,"time":58.82136975,"velocity":0.15748031496062992},{"duration":0.10714275000000129,"midi":68,"time":58.928512500000004,"velocity":0.15748031496062992},{"duration":0.10714275000000129,"midi":63,"time":59.035655250000005,"velocity":0.15748031496062992},{"duration":0.10714275000000129,"midi":70,"time":59.142798000000006,"velocity":0.15748031496062992},{"duration":0.10714274999999418,"midi":65,"time":59.24994075000001,"velocity":0.15748031496062992},{"duration":0.10714275000000129,"midi":68,"time":59.3570835,"velocity":0.15748031496062992},{"duration":0.10714275000000129,"midi":70,"time":59.46422625,"velocity":0.15748031496062992},{"duration":0.10714275000000129,"midi":65,"time":59.678511750000006,"velocity":0.15748031496062992},{"duration":0.10714275000000129,"midi":68,"time":59.78565450000001,"velocity":0.15748031496062992},{"duration":0.10714274999999418,"midi":63,"time":59.89279725000001,"velocity":0.15748031496062992},{"duration":0.10714275000000129,"midi":70,"time":59.99994,"velocity":0.15748031496062992},{"duration":0.10714275000000129,"midi":65,"time":60.107082750000004,"velocity":0.15748031496062992},{"duration":0.10714275000000129,"midi":68,"time":60.214225500000005,"velocity":0.15748031496062992},{"duration":0.10714275000000129,"midi":70,"time":60.321368250000006,"velocity":0.15748031496062992},{"duration":0.10714275000000129,"midi":65,"time":60.53565375,"velocity":0.15748031496062992},{"duration":0.10714275000000129,"midi":68,"time":60.6427965,"velocity":0.15748031496062992},{"duration":0.10714275000000129,"midi":63,"time":60.749939250000004,"velocity":0.15748031496062992},{"duration":0.10714275000000129,"midi":70,"time":60.857082000000005,"velocity":0.15748031496062992},{"duration":0.10714275000000129,"midi":65,"time":60.96422475000001,"velocity":0.15748031496062992},{"duration":0.10714274999999418,"midi":68,"time":61.07136750000001,"velocity":0.15748031496062992},{"duration":0.10714275000000129,"midi":77,"time":61.17851025,"velocity":0.15748031496062992},{"duration":0.10714275000000129,"midi":75,"time":61.392795750000005,"velocity":0.15748031496062992},{"duration":0.10714275000000129,"midi":73,"time":61.499938500000006,"velocity":0.15748031496062992},{"duration":0.10714274999999418,"midi":68,"time":61.60708125000001,"velocity":0.15748031496062992},{"duration":0.10714275000000129,"midi":70,"time":61.714224,"velocity":0.15748031496062992},{"duration":0.10714275000000129,"midi":65,"time":61.82136675,"velocity":0.15748031496062992},{"duration":0.10714275000000129,"midi":68,"time":61.928509500000004,"velocity":0.15748031496062992},{"duration":0.10714275000000129,"midi":70,"time":62.035652250000005,"velocity":0.15748031496062992},{"duration":0.10714274999999418,"midi":65,"time":62.24993775000001,"velocity":0.15748031496062992},{"duration":0.10714275000000129,"midi":68,"time":62.3570805,"velocity":0.15748031496062992},{"duration":0.10714275000000129,"midi":63,"time":62.46422325,"velocity":0.15748031496062992},{"duration":0.10714275000000129,"midi":70,"time":62.571366000000005,"velocity":0.15748031496062992},{"duration":0.10714275000000129,"midi":65,"time":62.678508750000006,"velocity":0.15748031496062992},{"duration":0.10714275000000129,"midi":68,"time":62.78565150000001,"velocity":0.15748031496062992},{"duration":0.10714274999999418,"midi":70,"time":62.89279425000001,"velocity":0.15748031496062992},{"duration":0.10714275000000129,"midi":65,"time":63.107079750000004,"velocity":0.15748031496062992},{"duration":0.10714275000000129,"midi":68,"time":63.214222500000005,"velocity":0.15748031496062992},{"duration":0.10714275000000129,"midi":63,"time":63.32136525000001,"velocity":0.15748031496062992},{"duration":0.10714274999999418,"midi":70,"time":63.42850800000001,"velocity":0.15748031496062992},{"duration":0.10714275000000129,"midi":65,"time":63.53565075,"velocity":0.15748031496062992},{"duration":0.10714275000000129,"midi":68,"time":63.6427935,"velocity":0.15748031496062992},{"duration":0.10714275000000129,"midi":70,"time":63.749936250000005,"velocity":0.15748031496062992},{"duration":0.10714274999999418,"midi":65,"time":63.96422175000001,"velocity":0.15748031496062992},{"duration":0.10714275000000839,"midi":68,"time":64.0713645,"velocity":0.15748031496062992},{"duration":0.10714274999999418,"midi":63,"time":64.17850725000001,"velocity":0.15748031496062992},{"duration":0.10714275000000839,"midi":70,"time":64.28565,"velocity":0.15748031496062992},{"duration":0.10714274999999418,"midi":65,"time":64.39279275000001,"velocity":0.15748031496062992},{"duration":0.10714274999999418,"midi":68,"time":64.4999355,"velocity":0.15748031496062992},{"duration":0.10714275000000839,"midi":77,"time":64.60707825,"velocity":0.15748031496062992},{"duration":0.10714275000000839,"midi":75,"time":64.82136375,"velocity":0.15748031496062992},{"duration":0.10714274999999418,"midi":73,"time":64.92850650000001,"velocity":0.15748031496062992},{"duration":0.10714274999999418,"midi":68,"time":65.03564925,"velocity":0.15748031496062992},{"duration":0.10714275000000839,"midi":70,"time":65.142792,"velocity":0.15748031496062992},{"duration":0.10714274999999418,"midi":65,"time":65.24993475000001,"velocity":0.15748031496062992},{"duration":0.10714275000000839,"midi":68,"time":65.3570775,"velocity":0.15748031496062992},{"duration":0.10714274999999418,"midi":70,"time":65.46422025000001,"velocity":0.15748031496062992},{"duration":0.10714275000000839,"midi":65,"time":65.67850575,"velocity":0.15748031496062992},{"duration":0.10714274999999418,"midi":68,"time":65.78564850000001,"velocity":0.15748031496062992},{"duration":0.10714275000000839,"midi":63,"time":65.89279125,"velocity":0.15748031496062992},{"duration":0.10714274999999418,"midi":70,"time":65.99993400000001,"velocity":0.15748031496062992},{"duration":0.10714274999999418,"midi":65,"time":66.10707675,"velocity":0.15748031496062992},{"duration":0.10714275000000839,"midi":68,"time":66.2142195,"velocity":0.15748031496062992},{"duration":0.10714274999999418,"midi":70,"time":66.32136225,"velocity":0.15748031496062992},{"duration":0.10714274999999418,"midi":65,"time":66.53564775000001,"velocity":0.15748031496062992},{"duration":0.10714275000000839,"midi":68,"time":66.6427905,"velocity":0.15748031496062992},{"duration":0.10714274999999418,"midi":63,"time":66.74993325000001,"velocity":0.15748031496062992},{"duration":0.10714274999999418,"midi":70,"time":66.857076,"velocity":0.15748031496062992},{"duration":0.10714275000000839,"midi":65,"time":66.96421875,"velocity":0.15748031496062992},{"duration":0.10714274999999418,"midi":68,"time":67.07136150000001,"velocity":0.15748031496062992},{"duration":0.10714275000000839,"midi":70,"time":67.17850425,"velocity":0.15748031496062992},{"duration":0.10714274999999418,"midi":65,"time":67.39278975,"velocity":0.15748031496062992},{"duration":0.10714275000000839,"midi":68,"time":67.4999325,"velocity":0.15748031496062992},{"duration":0.10714274999999418,"midi":63,"time":67.60707525000001,"velocity":0.15748031496062992},{"duration":0.10714275000000839,"midi":70,"time":67.714218,"velocity":0.15748031496062992},{"duration":0.10714274999999418,"midi":65,"time":67.82136075000001,"velocity":0.15748031496062992},{"duration":0.10714274999999418,"midi":68,"time":67.9285035,"velocity":0.15748031496062992},{"duration":0.10714275000000839,"midi":77,"time":68.03564625,"velocity":0.15748031496062992},{"duration":0.10714275000000839,"midi":75,"time":68.24993175,"velocity":0.15748031496062992},{"duration":0.10714274999999418,"midi":73,"time":68.35707450000001,"velocity":0.15748031496062992},{"duration":0.10714274999999418,"midi":68,"time":68.46421725,"velocity":0.15748031496062992},{"duration":0.10714275000000839,"midi":70,"time":68.57136,"velocity":0.15748031496062992},{"duration":0.10714274999999418,"midi":65,"time":68.67850275,"velocity":0.15748031496062992},{"duration":0.10714275000000839,"midi":68,"time":68.7856455,"velocity":0.15748031496062992},{"duration":0.10714274999999418,"midi":70,"time":68.89278825000001,"velocity":0.15748031496062992},{"duration":0.10714274999999418,"midi":65,"time":69.10707375000001,"velocity":0.15748031496062992},{"duration":0.10714274999999418,"midi":68,"time":69.2142165,"velocity":0.15748031496062992},{"duration":0.10714275000000839,"midi":63,"time":69.32135925,"velocity":0.15748031496062992},{"duration":0.10714274999999418,"midi":70,"time":69.42850200000001,"velocity":0.15748031496062992},{"duration":0.10714275000000839,"midi":65,"time":69.53564475,"velocity":0.15748031496062992},{"duration":0.10714274999999418,"midi":68,"time":69.64278750000001,"velocity":0.15748031496062992},{"duration":0.10714274999999418,"midi":70,"time":69.74993025,"velocity":0.15748031496062992},{"duration":0.10714274999999418,"midi":65,"time":69.96421575000001,"velocity":0.15748031496062992},{"duration":0.10714275000000839,"midi":68,"time":70.0713585,"velocity":0.15748031496062992},{"duration":0.10714274999999418,"midi":63,"time":70.17850125000001,"velocity":0.15748031496062992},{"duration":0.10714274999999418,"midi":70,"time":70.285644,"velocity":0.15748031496062992},{"duration":0.10714275000000839,"midi":65,"time":70.39278675,"velocity":0.15748031496062992},{"duration":0.10714274999999418,"midi":68,"time":70.49992950000001,"velocity":0.15748031496062992},{"duration":0.10714275000000839,"midi":70,"time":70.60707225,"velocity":0.15748031496062992},{"duration":0.10714275000000839,"midi":65,"time":70.82135775,"velocity":0.15748031496062992},{"duration":0.10714274999999418,"midi":68,"time":70.92850050000001,"velocity":0.15748031496062992},{"duration":0.10714274999999418,"midi":63,"time":71.03564325,"velocity":0.15748031496062992},{"duration":0.10714275000000839,"midi":70,"time":71.142786,"velocity":0.15748031496062992},{"duration":0.10714274999999418,"midi":65,"time":71.24992875000001,"velocity":0.15748031496062992},{"duration":0.10714275000000839,"midi":68,"time":71.3570715,"velocity":0.15748031496062992},{"duration":0.10714274999999418,"midi":77,"time":71.46421425000001,"velocity":0.15748031496062992},{"duration":0.10714275000000839,"midi":75,"time":71.67849975,"velocity":0.15748031496062992},{"duration":0.10714274999999418,"midi":73,"time":71.78564250000001,"velocity":0.15748031496062992},{"duration":0.10714275000000839,"midi":68,"time":71.89278525,"velocity":0.15748031496062992},{"duration":0.10714274999999418,"midi":70,"time":71.99992800000001,"velocity":0.15748031496062992},{"duration":0.10714274999999418,"midi":65,"time":72.10707075,"velocity":0.15748031496062992},{"duration":0.10714275000000839,"midi":68,"time":72.2142135,"velocity":0.15748031496062992},{"duration":0.10714274999999418,"midi":70,"time":72.32135625000001,"velocity":0.15748031496062992},{"duration":0.10714274999999418,"midi":65,"time":72.53564175000001,"velocity":0.15748031496062992},{"duration":0.10714274999999418,"midi":68,"time":72.6427845,"velocity":0.15748031496062992},{"duration":0.10714275000000839,"midi":63,"time":72.74992725,"velocity":0.15748031496062992},{"duration":0.10714274999999418,"midi":70,"time":72.85707000000001,"velocity":0.15748031496062992},{"duration":0.10714275000000839,"midi":65,"time":72.96421275,"velocity":0.15748031496062992},{"duration":0.10714274999999418,"midi":68,"time":73.07135550000001,"velocity":0.15748031496062992},{"duration":0.10714275000000839,"midi":70,"time":73.17849825,"velocity":0.15748031496062992},{"duration":0.10714274999999418,"midi":65,"time":73.39278375,"velocity":0.15748031496062992},{"duration":0.10714275000000839,"midi":68,"time":73.4999265,"velocity":0.15748031496062992},{"duration":0.10714274999999418,"midi":63,"time":73.60706925000001,"velocity":0.15748031496062992},{"duration":0.10714275000000839,"midi":70,"time":73.714212,"velocity":0.15748031496062992},{"duration":0.10714274999999418,"midi":65,"time":73.82135475000001,"velocity":0.15748031496062992},{"duration":0.10714274999999418,"midi":68,"time":73.9284975,"velocity":0.15748031496062992},{"duration":0.10714275000000839,"midi":70,"time":74.03564025,"velocity":0.15748031496062992},{"duration":0.10714275000000839,"midi":65,"time":74.24992575,"velocity":0.15748031496062992},{"duration":0.10714274999999418,"midi":68,"time":74.35706850000001,"velocity":0.15748031496062992},{"duration":0.10714274999999418,"midi":63,"time":74.46421125,"velocity":0.15748031496062992},{"duration":0.10714275000000839,"midi":70,"time":74.571354,"velocity":0.15748031496062992},{"duration":0.10714274999999418,"midi":65,"time":74.67849675000001,"velocity":0.15748031496062992},{"duration":0.10714275000000839,"midi":68,"time":74.7856395,"velocity":0.15748031496062992},{"duration":0.10714274999999418,"midi":77,"time":74.89278225000001,"velocity":0.15748031496062992},{"duration":0.10714274999999418,"midi":75,"time":75.10706775000001,"velocity":0.15748031496062992},{"duration":0.10714274999999418,"midi":73,"time":75.21421050000001,"velocity":0.15748031496062992},{"duration":0.10714275000000839,"midi":68,"time":75.32135325,"velocity":0.15748031496062992},{"duration":0.10714274999999418,"midi":70,"time":75.42849600000001,"velocity":0.15748031496062992},{"duration":0.10714275000000839,"midi":65,"time":75.53563875,"velocity":0.15748031496062992},{"duration":0.10714274999999418,"midi":68,"time":75.64278150000001,"velocity":0.15748031496062992},{"duration":0.10714274999999418,"midi":70,"time":75.74992425,"velocity":0.15748031496062992},{"duration":0.10714274999999418,"midi":65,"time":75.96420975000001,"velocity":0.15748031496062992},{"duration":0.10714275000000839,"midi":68,"time":76.0713525,"velocity":0.15748031496062992},{"duration":0.10714274999999418,"midi":63,"time":76.17849525000001,"velocity":0.15748031496062992},{"duration":0.10714274999999418,"midi":70,"time":76.285638,"velocity":0.15748031496062992},{"duration":0.10714275000000839,"midi":65,"time":76.39278075,"velocity":0.15748031496062992},{"duration":0.10714274999999418,"midi":68,"time":76.49992350000001,"velocity":0.15748031496062992},{"duration":0.10714275000000839,"midi":70,"time":76.60706625,"velocity":0.15748031496062992},{"duration":0.10714274999999418,"midi":65,"time":76.82135175,"velocity":0.15748031496062992},{"duration":0.10714275000000839,"midi":68,"time":76.9284945,"velocity":0.15748031496062992},{"duration":0.10714274999999418,"midi":63,"time":77.03563725000001,"velocity":0.15748031496062992},{"duration":0.10714275000000839,"midi":70,"time":77.14278,"velocity":0.15748031496062992},{"duration":0.10714274999999418,"midi":65,"time":77.24992275000001,"velocity":0.15748031496062992},{"duration":0.10714275000000839,"midi":68,"time":77.3570655,"velocity":0.15748031496062992},{"duration":0.10714274999999418,"midi":70,"time":77.46420825000001,"velocity":0.15748031496062992},{"duration":0.10714275000000839,"midi":65,"time":77.67849375,"velocity":0.15748031496062992},{"duration":0.10714274999999418,"midi":68,"time":77.78563650000001,"velocity":0.15748031496062992},{"duration":0.10714275000000839,"midi":63,"time":77.89277925,"velocity":0.15748031496062992},{"duration":0.10714274999999418,"midi":70,"time":77.99992200000001,"velocity":0.15748031496062992},{"duration":0.10714274999999418,"midi":65,"time":78.10706475,"velocity":0.15748031496062992},{"duration":0.10714275000000839,"midi":68,"time":78.2142075,"velocity":0.15748031496062992},{"duration":0.10714274999999418,"midi":77,"time":78.32135025000001,"velocity":0.15748031496062992},{"duration":0.10714274999999418,"midi":75,"time":78.53563575000001,"velocity":0.15748031496062992},{"duration":0.10714274999999418,"midi":73,"time":78.6427785,"velocity":0.15748031496062992},{"duration":0.10714275000000839,"midi":68,"time":78.74992125,"velocity":0.15748031496062992},{"duration":0.10714274999999418,"midi":70,"time":78.85706400000001,"velocity":0.15748031496062992},{"duration":0.10714275000000839,"midi":65,"time":78.96420675,"velocity":0.15748031496062992},{"duration":0.10714274999999418,"midi":68,"time":79.07134950000001,"velocity":0.15748031496062992},{"duration":0.10714275000000839,"midi":70,"time":79.17849225,"velocity":0.15748031496062992},{"duration":0.10714274999999418,"midi":65,"time":79.39277775000001,"velocity":0.15748031496062992},{"duration":0.10714275000000839,"midi":68,"time":79.4999205,"velocity":0.15748031496062992},{"duration":0.10714274999999418,"midi":63,"time":79.60706325000001,"velocity":0.15748031496062992},{"duration":0.10714275000000839,"midi":70,"time":79.714206,"velocity":0.15748031496062992},{"duration":0.10714274999999418,"midi":65,"time":79.82134875000001,"velocity":0.15748031496062992},{"duration":0.10714274999999418,"midi":68,"time":79.9284915,"velocity":0.15748031496062992},{"duration":0.10714275000000839,"midi":70,"time":80.03563425,"velocity":0.15748031496062992},{"duration":0.10714275000000839,"midi":65,"time":80.24991975,"velocity":0.15748031496062992},{"duration":0.10714274999999418,"midi":68,"time":80.35706250000001,"velocity":0.15748031496062992},{"duration":0.10714274999999418,"midi":63,"time":80.46420525,"velocity":0.15748031496062992},{"duration":0.10714275000000839,"midi":70,"time":80.571348,"velocity":0.15748031496062992},{"duration":0.10714274999999418,"midi":65,"time":80.67849075000001,"velocity":0.15748031496062992},{"duration":0.10714275000000839,"midi":68,"time":80.7856335,"velocity":0.15748031496062992},{"duration":0.10714274999999418,"midi":70,"time":80.89277625000001,"velocity":0.15748031496062992},{"duration":0.10714275000000839,"midi":65,"time":81.10706175,"velocity":0.15748031496062992},{"duration":0.10714274999999418,"midi":68,"time":81.21420450000001,"velocity":0.15748031496062992},{"duration":0.10714275000000839,"midi":63,"time":81.32134725,"velocity":0.15748031496062992},{"duration":0.10714274999999418,"midi":70,"time":81.42849000000001,"velocity":0.15748031496062992},{"duration":0.10714275000000839,"midi":65,"time":81.53563275,"velocity":0.15748031496062992},{"duration":0.10714274999999418,"midi":68,"time":81.64277550000001,"velocity":0.15748031496062992},{"duration":0.10714274999999418,"midi":77,"time":81.74991825000001,"velocity":0.15748031496062992},{"duration":0.10714274999999418,"midi":75,"time":81.96420375000001,"velocity":0.15748031496062992},{"duration":0.10714275000000839,"midi":73,"time":82.0713465,"velocity":0.15748031496062992},{"duration":0.10714274999999418,"midi":68,"time":82.17848925000001,"velocity":0.15748031496062992},{"duration":0.10714274999999418,"midi":70,"time":82.285632,"velocity":0.15748031496062992},{"duration":0.10714275000000839,"midi":65,"time":82.39277475,"velocity":0.15748031496062992},{"duration":0.10714274999999418,"midi":68,"time":82.49991750000001,"velocity":0.15748031496062992},{"duration":0.10714275000000839,"midi":70,"time":82.60706025,"velocity":0.15748031496062992},{"duration":0.10714274999999418,"midi":65,"time":82.82134575,"velocity":0.15748031496062992},{"duration":0.10714275000000839,"midi":68,"time":82.9284885,"velocity":0.15748031496062992},{"duration":0.10714274999999418,"midi":63,"time":83.03563125000001,"velocity":0.15748031496062992},{"duration":0.10714275000000839,"midi":70,"time":83.142774,"velocity":0.15748031496062992},{"duration":0.10714274999999418,"midi":65,"time":83.24991675000001,"velocity":0.15748031496062992},{"duration":0.10714275000000839,"midi":68,"time":83.3570595,"velocity":0.15748031496062992},{"duration":0.10714274999999418,"midi":70,"time":83.46420225000001,"velocity":0.15748031496062992},{"duration":0.10714275000000839,"midi":65,"time":83.67848775,"velocity":0.15748031496062992},{"duration":0.10714274999999418,"midi":68,"time":83.78563050000001,"velocity":0.15748031496062992},{"duration":0.10714275000000839,"midi":63,"time":83.89277325,"velocity":0.15748031496062992},{"duration":0.10714274999999418,"midi":70,"time":83.99991600000001,"velocity":0.15748031496062992},{"duration":0.10714274999999418,"midi":65,"time":84.10705875000001,"velocity":0.15748031496062992},{"duration":0.10714275000000839,"midi":68,"time":84.2142015,"velocity":0.15748031496062992},{"duration":0.10714274999999418,"midi":70,"time":84.32134425000001,"velocity":0.15748031496062992},{"duration":0.10714274999999418,"midi":65,"time":84.53562975000001,"velocity":0.15748031496062992},{"duration":0.10714274999999418,"midi":68,"time":84.6427725,"velocity":0.15748031496062992},{"duration":0.10714275000000839,"midi":63,"time":84.74991525,"velocity":0.15748031496062992},{"duration":0.10714274999999418,"midi":70,"time":84.85705800000001,"velocity":0.15748031496062992},{"duration":0.10714275000000839,"midi":65,"time":84.96420075,"velocity":0.15748031496062992},{"duration":0.10714274999999418,"midi":68,"time":85.07134350000001,"velocity":0.15748031496062992},{"duration":0.10714274999999418,"midi":77,"time":85.17848625,"velocity":0.15748031496062992},{"duration":0.10714274999999418,"midi":75,"time":85.39277175000001,"velocity":0.15748031496062992},{"duration":0.10714275000000839,"midi":73,"time":85.4999145,"velocity":0.15748031496062992},{"duration":0.10714274999999418,"midi":68,"time":85.60705725000001,"velocity":0.15748031496062992},{"duration":0.10714275000000839,"midi":70,"time":85.7142,"velocity":0.15748031496062992},{"duration":0.10714274999999418,"midi":65,"time":85.82134275000001,"velocity":0.15748031496062992},{"duration":0.10714274999999418,"midi":68,"time":85.92848550000001,"velocity":0.15748031496062992},{"duration":0.10714275000000839,"midi":70,"time":86.03562825,"velocity":0.15748031496062992},{"duration":0.10714275000000839,"midi":65,"time":86.24991375,"velocity":0.15748031496062992},{"duration":0.10714274999999418,"midi":68,"time":86.35705650000001,"velocity":0.15748031496062992},{"duration":0.10714274999999418,"midi":63,"time":86.46419925000001,"velocity":0.15748031496062992},{"duration":0.10714275000000839,"midi":70,"time":86.571342,"velocity":0.15748031496062992},{"duration":0.10714274999999418,"midi":65,"time":86.67848475000001,"velocity":0.15748031496062992},{"duration":0.10714275000000839,"midi":68,"time":86.7856275,"velocity":0.15748031496062992},{"duration":0.10714274999999418,"midi":70,"time":86.89277025000001,"velocity":0.15748031496062992},{"duration":0.10714275000000839,"midi":65,"time":87.10705575,"velocity":0.15748031496062992},{"duration":0.10714274999999418,"midi":68,"time":87.21419850000001,"velocity":0.15748031496062992},{"duration":0.10714275000000839,"midi":63,"time":87.32134125,"velocity":0.15748031496062992},{"duration":0.10714274999999418,"midi":70,"time":87.42848400000001,"velocity":0.15748031496062992},{"duration":0.10714275000000839,"midi":65,"time":87.53562675,"velocity":0.15748031496062992},{"duration":0.10714274999999418,"midi":68,"time":87.64276950000001,"velocity":0.15748031496062992},{"duration":0.10714274999999418,"midi":70,"time":87.74991225000001,"velocity":0.15748031496062992},{"duration":0.10714274999999418,"midi":65,"time":87.96419775000001,"velocity":0.15748031496062992},{"duration":0.10714275000000839,"midi":68,"time":88.0713405,"velocity":0.15748031496062992},{"duration":0.10714274999999418,"midi":63,"time":88.17848325000001,"velocity":0.15748031496062992},{"duration":0.10714274999999418,"midi":70,"time":88.28562600000001,"velocity":0.15748031496062992},{"duration":0.10714275000000839,"midi":65,"time":88.39276875,"velocity":0.15748031496062992},{"duration":0.10714274999999418,"midi":68,"time":88.49991150000001,"velocity":0.15748031496062992},{"duration":0.10714275000000839,"midi":77,"time":88.60705425,"velocity":0.15748031496062992},{"duration":0.10714274999999418,"midi":75,"time":88.82133975,"velocity":0.15748031496062992},{"duration":0.10714275000000839,"midi":73,"time":88.9284825,"velocity":0.15748031496062992},{"duration":0.10714274999999418,"midi":68,"time":89.03562525000001,"velocity":0.15748031496062992},{"duration":0.10714275000000839,"midi":70,"time":89.142768,"velocity":0.15748031496062992},{"duration":0.10714274999999418,"midi":65,"time":89.24991075000001,"velocity":0.15748031496062992},{"duration":0.10714274999999418,"midi":68,"time":89.3570535,"velocity":0.15748031496062992},{"duration":0.10714275000000839,"midi":70,"time":89.46419625,"velocity":0.15748031496062992},{"duration":0.10714275000000839,"midi":65,"time":89.67848175,"velocity":0.15748031496062992},{"duration":0.10714274999999418,"midi":68,"time":89.78562450000001,"velocity":0.15748031496062992},{"duration":0.10714275000000839,"midi":63,"time":89.89276725,"velocity":0.15748031496062992},{"duration":0.10714274999999418,"midi":70,"time":89.99991000000001,"velocity":0.15748031496062992},{"duration":0.10714274999999418,"midi":65,"time":90.10705275000001,"velocity":0.15748031496062992},{"duration":0.10714275000000839,"midi":68,"time":90.2141955,"velocity":0.15748031496062992},{"duration":0.10714274999999418,"midi":70,"time":90.32133825000001,"velocity":0.15748031496062992},{"duration":0.10714274999999418,"midi":65,"time":90.53562375000001,"velocity":0.15748031496062992},{"duration":0.10714274999999418,"midi":68,"time":90.64276650000001,"velocity":0.15748031496062992},{"duration":0.10714275000000839,"midi":63,"time":90.74990925,"velocity":0.15748031496062992},{"duration":0.10714274999999418,"midi":70,"time":90.85705200000001,"velocity":0.15748031496062992},{"duration":0.10714275000000839,"midi":65,"time":90.96419475,"velocity":0.15748031496062992},{"duration":0.10714274999999418,"midi":68,"time":91.07133750000001,"velocity":0.15748031496062992},{"duration":0.10714274999999418,"midi":70,"time":91.17848025,"velocity":0.15748031496062992},{"duration":0.10714274999999418,"midi":65,"time":91.39276575000001,"velocity":0.15748031496062992},{"duration":0.10714275000000839,"midi":68,"time":91.4999085,"velocity":0.15748031496062992},{"duration":0.10714274999999418,"midi":63,"time":91.60705125000001,"velocity":0.15748031496062992},{"duration":0.10714275000000839,"midi":70,"time":91.714194,"velocity":0.15748031496062992},{"duration":0.10714274999999418,"midi":65,"time":91.82133675000001,"velocity":0.15748031496062992},{"duration":0.10714274999999418,"midi":68,"time":91.92847950000001,"velocity":0.15748031496062992},{"duration":0.10714275000000839,"midi":77,"time":92.03562225,"velocity":0.15748031496062992},{"duration":0.10714275000000839,"midi":75,"time":92.24990775,"velocity":0.15748031496062992},{"duration":0.10714274999999418,"midi":73,"time":92.35705050000001,"velocity":0.15748031496062992},{"duration":0.10714274999999418,"midi":68,"time":92.46419325000001,"velocity":0.15748031496062992},{"duration":0.10714275000000839,"midi":70,"time":92.571336,"velocity":0.15748031496062992},{"duration":0.10714274999999418,"midi":65,"time":92.67847875000001,"velocity":0.15748031496062992},{"duration":0.10714275000000839,"midi":68,"time":92.7856215,"velocity":0.15748031496062992},{"duration":0.10714274999999418,"midi":70,"time":92.89276425000001,"velocity":0.15748031496062992},{"duration":0.10714275000000839,"midi":65,"time":93.10704975,"velocity":0.15748031496062992},{"duration":0.10714274999999418,"midi":68,"time":93.21419250000001,"velocity":0.15748031496062992},{"duration":0.10714275000000839,"midi":63,"time":93.32133525,"velocity":0.15748031496062992},{"duration":0.10714274999999418,"midi":70,"time":93.42847800000001,"velocity":0.15748031496062992},{"duration":0.10714274999999418,"midi":65,"time":93.53562075,"velocity":0.15748031496062992},{"duration":0.10714275000000839,"midi":68,"time":93.6427635,"velocity":0.15748031496062992},{"duration":0.10714274999999418,"midi":70,"time":93.74990625000001,"velocity":0.15748031496062992},{"duration":0.10714274999999418,"midi":65,"time":93.96419175000001,"velocity":0.15748031496062992},{"duration":0.10714275000000839,"midi":68,"time":94.0713345,"velocity":0.15748031496062992},{"duration":0.10714274999999418,"midi":63,"time":94.17847725000001,"velocity":0.15748031496062992},{"duration":0.10714274999999418,"midi":70,"time":94.28562000000001,"velocity":0.15748031496062992},{"duration":0.10714275000000839,"midi":65,"time":94.39276275,"velocity":0.15748031496062992},{"duration":0.10714274999999418,"midi":68,"time":94.49990550000001,"velocity":0.15748031496062992},{"duration":0.10714275000000839,"midi":70,"time":94.60704825,"velocity":0.15748031496062992},{"duration":0.10714274999999418,"midi":65,"time":94.82133375000001,"velocity":0.15748031496062992},{"duration":0.10714275000000839,"midi":68,"time":94.9284765,"velocity":0.15748031496062992},{"duration":0.10714274999999418,"midi":63,"time":95.03561925000001,"velocity":0.15748031496062992},{"duration":0.10714275000000839,"midi":70,"time":95.142762,"velocity":0.15748031496062992},{"duration":0.10714274999999418,"midi":65,"time":95.24990475000001,"velocity":0.15748031496062992},{"duration":0.10714274999999418,"midi":68,"time":95.35704750000001,"velocity":0.15748031496062992},{"duration":0.10714275000000839,"midi":77,"time":95.46419025,"velocity":0.15748031496062992},{"duration":0.10714275000000839,"midi":75,"time":95.67847575,"velocity":0.15748031496062992},{"duration":0.10714274999999418,"midi":73,"time":95.78561850000001,"velocity":0.15748031496062992},{"duration":0.10714275000000839,"midi":68,"time":95.89276125,"velocity":0.15748031496062992},{"duration":0.10714274999999418,"midi":64,"time":95.99990400000002,"velocity":0.15748031496062992},{"duration":0.10714274999999418,"midi":70,"time":95.99990400000002,"velocity":0.15748031496062992},{"duration":0.10714274999999418,"midi":65,"time":96.10704675000001,"velocity":0.15748031496062992},{"duration":0.10714275000000839,"midi":68,"time":96.2141895,"velocity":0.15748031496062992},{"duration":0.10714274999999418,"midi":70,"time":96.32133225000001,"velocity":0.15748031496062992},{"duration":0.10714275000000839,"midi":63,"time":96.428475,"velocity":0.15748031496062992},{"duration":0.10714274999999418,"midi":65,"time":96.53561775000001,"velocity":0.15748031496062992},{"duration":0.10714274999999418,"midi":68,"time":96.64276050000001,"velocity":0.15748031496062992},{"duration":0.10714275000000839,"midi":63,"time":96.74990325,"velocity":0.15748031496062992},{"duration":0.10714274999999418,"midi":61,"time":96.85704600000001,"velocity":0.15748031496062992},{"duration":0.10714274999999418,"midi":70,"time":96.85704600000001,"velocity":0.15748031496062992},{"duration":0.10714275000000839,"midi":63,"time":96.96418875,"velocity":0.15748031496062992},{"duration":0.10714275000000839,"midi":65,"time":96.96418875,"velocity":0.15748031496062992},{"duration":0.10714274999999418,"midi":68,"time":97.07133150000001,"velocity":0.15748031496062992},{"duration":0.10714274999999418,"midi":70,"time":97.17847425000001,"velocity":0.15748031496062992},{"duration":0.10714274999999418,"midi":58,"time":97.17847425000001,"velocity":0.15748031496062992},{"duration":0.10714274999999418,"midi":65,"time":97.39275975000001,"velocity":0.15748031496062992},{"duration":0.10714274999999418,"midi":56,"time":97.39275975000001,"velocity":0.15748031496062992},{"duration":0.10714275000000839,"midi":68,"time":97.4999025,"velocity":0.15748031496062992},{"duration":0.10714275000000839,"midi":57,"time":97.4999025,"velocity":0.15748031496062992},{"duration":0.10714274999999418,"midi":58,"time":97.60704525000001,"velocity":0.15748031496062992},{"duration":0.10714274999999418,"midi":63,"time":97.60704525000001,"velocity":0.15748031496062992},{"duration":0.10714274999999418,"midi":70,"time":97.71418800000001,"velocity":0.15748031496062992},{"duration":0.10714274999999418,"midi":64,"time":97.71418800000001,"velocity":0.15748031496062992},{"duration":0.10714275000000839,"midi":65,"time":97.82133075,"velocity":0.15748031496062992},{"duration":0.10714274999999418,"midi":68,"time":97.92847350000001,"velocity":0.15748031496062992},{"duration":0.10714275000000839,"midi":70,"time":98.03561625,"velocity":0.15748031496062992},{"duration":0.10714274999999418,"midi":63,"time":98.14275900000001,"velocity":0.15748031496062992},{"duration":0.10714275000000839,"midi":65,"time":98.24990175,"velocity":0.15748031496062992},{"duration":0.10714274999999418,"midi":68,"time":98.35704450000001,"velocity":0.15748031496062992},{"duration":0.10714274999999418,"midi":63,"time":98.46418725000001,"velocity":0.15748031496062992},{"duration":0.10714275000000839,"midi":70,"time":98.57133,"velocity":0.15748031496062992},{"duration":0.10714275000000839,"midi":61,"time":98.57133,"velocity":0.15748031496062992},{"duration":0.10714274999999418,"midi":63,"time":98.67847275000001,"velocity":0.15748031496062992},{"duration":0.10714274999999418,"midi":65,"time":98.67847275000001,"velocity":0.15748031496062992},{"duration":0.10714275000000839,"midi":68,"time":98.7856155,"velocity":0.15748031496062992},{"duration":0.10714274999999418,"midi":68,"time":98.89275825000001,"velocity":0.15748031496062992},{"duration":0.10714274999999418,"midi":77,"time":98.89275825000001,"velocity":0.15748031496062992},{"duration":0.10714275000000839,"midi":75,"time":99.10704375,"velocity":0.15748031496062992},{"duration":0.10714275000000839,"midi":68,"time":99.10704375,"velocity":0.15748031496062992},{"duration":0.10714274999999418,"midi":73,"time":99.21418650000001,"velocity":0.15748031496062992},{"duration":0.10714274999999418,"midi":68,"time":99.21418650000001,"velocity":0.15748031496062992},{"duration":0.10714275000000839,"midi":68,"time":99.32132925,"velocity":0.15748031496062992},{"duration":0.10714275000000839,"midi":68,"time":99.32132925,"velocity":0.15748031496062992},{"duration":0.10714274999999418,"midi":64,"time":99.42847200000001,"velocity":0.15748031496062992},{"duration":0.10714274999999418,"midi":70,"time":99.42847200000001,"velocity":0.15748031496062992},{"duration":0.10714274999999418,"midi":65,"time":99.53561475000001,"velocity":0.15748031496062992},{"duration":0.10714275000000839,"midi":68,"time":99.6427575,"velocity":0.15748031496062992},{"duration":0.10714274999999418,"midi":70,"time":99.74990025000001,"velocity":0.15748031496062992},{"duration":0.10714275000000839,"midi":63,"time":99.857043,"velocity":0.15748031496062992},{"duration":0.10714274999999418,"midi":65,"time":99.96418575000001,"velocity":0.15748031496062992},{"duration":0.10714274999999418,"midi":68,"time":100.0713285,"velocity":0.15748031496062992},{"duration":0.10714275000000839,"midi":63,"time":100.17847125,"velocity":0.15748031496062992},{"duration":0.10714274999999418,"midi":61,"time":100.28561400000001,"velocity":0.15748031496062992},{"duration":0.10714274999999418,"midi":70,"time":100.28561400000001,"velocity":0.15748031496062992},{"duration":0.10714275000000839,"midi":65,"time":100.39275675,"velocity":0.15748031496062992},{"duration":0.10714275000000839,"midi":63,"time":100.39275675,"velocity":0.15748031496062992},{"duration":0.10714274999999418,"midi":68,"time":100.49989950000001,"velocity":0.15748031496062992},{"duration":0.10714275000000839,"midi":70,"time":100.60704225,"velocity":0.15748031496062992},{"duration":0.10714275000000839,"midi":58,"time":100.60704225,"velocity":0.15748031496062992},{"duration":0.10714274999999418,"midi":65,"time":100.82132775000001,"velocity":0.15748031496062992},{"duration":0.10714274999999418,"midi":56,"time":100.82132775000001,"velocity":0.15748031496062992},{"duration":0.10714275000000839,"midi":57,"time":100.9284705,"velocity":0.15748031496062992},{"duration":0.10714275000000839,"midi":68,"time":100.9284705,"velocity":0.15748031496062992},{"duration":0.10714274999999418,"midi":58,"time":101.03561325000001,"velocity":0.15748031496062992},{"duration":0.10714274999999418,"midi":63,"time":101.03561325000001,"velocity":0.15748031496062992},{"duration":0.10714275000000839,"midi":70,"time":101.142756,"velocity":0.15748031496062992},{"duration":0.07142849999999612,"midi":64,"time":101.142756,"velocity":0.15748031496062992},{"duration":0.10714274999999418,"midi":65,"time":101.24989875000001,"velocity":0.15748031496062992},{"duration":0.07142849999999612,"midi":64,"time":101.28561300000001,"velocity":0.09448818897637795},{"duration":0.07142849999999612,"midi":68,"time":101.35704150000001,"velocity":0.15748031496062992},{"duration":0.10714274999999418,"midi":68,"time":101.35704150000001,"velocity":0.15748031496062992},{"duration":0.10714275000000839,"midi":70,"time":101.46418425,"velocity":0.15748031496062992},{"duration":0.07142849999999612,"midi":68,"time":101.49989850000001,"velocity":0.09448818897637795},{"duration":0.07142849999999612,"midi":63,"time":101.57132700000001,"velocity":0.15748031496062992},{"duration":0.10714275000000839,"midi":65,"time":101.67846975,"velocity":0.15748031496062992},{"duration":0.07142849999999612,"midi":63,"time":101.71418400000002,"velocity":0.09448818897637795},{"duration":0.07142849999999612,"midi":67,"time":101.78561250000001,"velocity":0.15748031496062992},{"duration":0.10714274999999418,"midi":68,"time":101.78561250000001,"velocity":0.15748031496062992},{"duration":0.07142849999999612,"midi":64,"time":101.78561250000001,"velocity":0.15748031496062992},{"duration":0.10714274999999418,"midi":63,"time":101.89275525000001,"velocity":0.15748031496062992},{"duration":0.07142849999999612,"midi":64,"time":101.9284695,"velocity":0.09448818897637795},{"duration":0.07142849999999612,"midi":67,"time":101.9284695,"velocity":0.09448818897637795},{"duration":0.10714275000000839,"midi":70,"time":101.999898,"velocity":0.15748031496062992},{"duration":0.07142849999999612,"midi":62,"time":101.999898,"velocity":0.15748031496062992},{"duration":0.10714274999999418,"midi":65,"time":102.10704075000001,"velocity":0.15748031496062992},{"duration":0.07142849999999612,"midi":62,"time":102.14275500000001,"velocity":0.09448818897637795},{"duration":0.07142849999999612,"midi":66,"time":102.2141835,"velocity":0.15748031496062992},{"duration":0.10714275000000839,"midi":68,"time":102.2141835,"velocity":0.15748031496062992},{"duration":0.10714274999999418,"midi":77,"time":102.32132625000001,"velocity":0.15748031496062992},{"duration":0.07142849999999612,"midi":66,"time":102.35704050000001,"velocity":0.09448818897637795},{"duration":0.07142849999999612,"midi":60,"time":102.428469,"velocity":0.15748031496062992},{"duration":0.10714274999999418,"midi":75,"time":102.53561175000002,"velocity":0.15748031496062992},{"duration":0.07142849999999612,"midi":60,"time":102.57132600000001,"velocity":0.09448818897637795},{"duration":0.07142849999999612,"midi":63,"time":102.64275450000001,"velocity":0.15748031496062992},{"duration":0.10714274999999418,"midi":73,"time":102.64275450000001,"velocity":0.15748031496062992},{"duration":0.10714275000000839,"midi":68,"time":102.74989725,"velocity":0.15748031496062992},{"duration":0.07142849999999612,"midi":63,"time":102.78561150000002,"velocity":0.09448818897637795},{"duration":0.10714274999999418,"midi":70,"time":102.85704000000001,"velocity":0.15748031496062992},{"duration":0.10714274999999418,"midi":64,"time":102.85704000000001,"velocity":0.15748031496062992},{"duration":0.10714275000000839,"midi":65,"time":102.96418275,"velocity":0.15748031496062992},{"duration":0.10714274999999418,"midi":68,"time":103.07132550000001,"velocity":0.15748031496062992},{"duration":0.10714274999999418,"midi":70,"time":103.17846825000001,"velocity":0.15748031496062992},{"duration":0.10714275000000839,"midi":63,"time":103.285611,"velocity":0.15748031496062992},{"duration":0.10714274999999418,"midi":65,"time":103.39275375000001,"velocity":0.15748031496062992},{"duration":0.10714275000000839,"midi":68,"time":103.4998965,"velocity":0.15748031496062992},{"duration":0.10714274999999418,"midi":63,"time":103.60703925000001,"velocity":0.15748031496062992},{"duration":0.10714274999999418,"midi":70,"time":103.71418200000001,"velocity":0.15748031496062992},{"duration":0.10714274999999418,"midi":61,"time":103.71418200000001,"velocity":0.15748031496062992},{"duration":0.10714275000000839,"midi":63,"time":103.82132475,"velocity":0.15748031496062992},{"duration":0.10714275000000839,"midi":65,"time":103.82132475,"velocity":0.15748031496062992},{"duration":0.10714274999999418,"midi":68,"time":103.92846750000001,"velocity":0.15748031496062992},{"duration":0.10714275000000839,"midi":70,"time":104.03561025,"velocity":0.15748031496062992},{"duration":0.10714275000000839,"midi":58,"time":104.03561025,"velocity":0.15748031496062992},{"duration":0.10714274999999418,"midi":56,"time":104.24989575000001,"velocity":0.15748031496062992},{"duration":0.10714274999999418,"midi":65,"time":104.24989575000001,"velocity":0.15748031496062992},{"duration":0.10714275000000839,"midi":68,"time":104.3570385,"velocity":0.15748031496062992},{"duration":0.10714275000000839,"midi":57,"time":104.3570385,"velocity":0.15748031496062992},{"duration":0.10714274999999418,"midi":58,"time":104.46418125000001,"velocity":0.15748031496062992},{"duration":0.10714274999999418,"midi":63,"time":104.46418125000001,"velocity":0.15748031496062992},{"duration":0.10714275000000839,"midi":70,"time":104.571324,"velocity":0.15748031496062992},{"duration":0.10714275000000839,"midi":64,"time":104.571324,"velocity":0.15748031496062992},{"duration":0.10714274999999418,"midi":65,"time":104.67846675000001,"velocity":0.15748031496062992},{"duration":0.10714275000000839,"midi":68,"time":104.7856095,"velocity":0.15748031496062992},{"duration":0.10714274999999418,"midi":70,"time":104.89275225000002,"velocity":0.15748031496062992},{"duration":0.10714274999999418,"midi":63,"time":104.99989500000001,"velocity":0.15748031496062992},{"duration":0.10714275000000839,"midi":65,"time":105.10703775,"velocity":0.15748031496062992},{"duration":0.10714274999999418,"midi":68,"time":105.21418050000001,"velocity":0.15748031496062992},{"duration":0.10714275000000839,"midi":63,"time":105.32132325,"velocity":0.15748031496062992},{"duration":0.10714274999999418,"midi":61,"time":105.42846600000001,"velocity":0.15748031496062992},{"duration":0.10714274999999418,"midi":70,"time":105.42846600000001,"velocity":0.15748031496062992},{"duration":0.10714274999999418,"midi":63,"time":105.53560875000001,"velocity":0.15748031496062992},{"duration":0.10714274999999418,"midi":65,"time":105.53560875000001,"velocity":0.15748031496062992},{"duration":0.10714275000000839,"midi":68,"time":105.6427515,"velocity":0.15748031496062992},{"duration":0.10714274999999418,"midi":68,"time":105.74989425000001,"velocity":0.15748031496062992},{"duration":0.10714274999999418,"midi":77,"time":105.74989425000001,"velocity":0.15748031496062992},{"duration":0.10714274999999418,"midi":75,"time":105.96417975000001,"velocity":0.15748031496062992},{"duration":0.10714274999999418,"midi":68,"time":105.96417975000001,"velocity":0.15748031496062992},{"duration":0.10714274999999418,"midi":73,"time":106.07132250000001,"velocity":0.15748031496062992},{"duration":0.10714274999999418,"midi":68,"time":106.07132250000001,"velocity":0.15748031496062992},{"duration":0.10714275000000839,"midi":68,"time":106.17846525,"velocity":0.15748031496062992},{"duration":0.10714275000000839,"midi":68,"time":106.17846525,"velocity":0.15748031496062992},{"duration":0.10714274999999418,"midi":70,"time":106.28560800000001,"velocity":0.15748031496062992},{"duration":0.10714274999999418,"midi":64,"time":106.28560800000001,"velocity":0.15748031496062992},{"duration":0.10714275000000839,"midi":65,"time":106.39275075,"velocity":0.15748031496062992},{"duration":0.10714274999999418,"midi":68,"time":106.49989350000001,"velocity":0.15748031496062992},{"duration":0.10714275000000839,"midi":70,"time":106.60703625000001,"velocity":0.15748031496062992},{"duration":0.10714274999999418,"midi":63,"time":106.71417900000002,"velocity":0.15748031496062992},{"duration":0.10714274999999418,"midi":65,"time":106.82132175000001,"velocity":0.15748031496062992},{"duration":0.10714275000000839,"midi":68,"time":106.9284645,"velocity":0.15748031496062992},{"duration":0.10714274999999418,"midi":63,"time":107.03560725000001,"velocity":0.15748031496062992},{"duration":0.10714275000000839,"midi":70,"time":107.14275,"velocity":0.15748031496062992},{"duration":0.10714275000000839,"midi":61,"time":107.14275,"velocity":0.15748031496062992},{"duration":0.10714274999999418,"midi":63,"time":107.24989275000001,"velocity":0.15748031496062992},{"duration":0.10714274999999418,"midi":65,"time":107.24989275000001,"velocity":0.15748031496062992},{"duration":0.10714274999999418,"midi":68,"time":107.35703550000001,"velocity":0.15748031496062992},{"duration":0.10714275000000839,"midi":58,"time":107.46417825,"velocity":0.15748031496062992},{"duration":0.10714275000000839,"midi":70,"time":107.46417825,"velocity":0.15748031496062992},{"duration":0.10714275000000839,"midi":56,"time":107.67846375,"velocity":0.15748031496062992},{"duration":0.10714275000000839,"midi":65,"time":107.67846375,"velocity":0.15748031496062992},{"duration":0.10714274999999418,"midi":57,"time":107.78560650000001,"velocity":0.15748031496062992},{"duration":0.10714274999999418,"midi":68,"time":107.78560650000001,"velocity":0.15748031496062992},{"duration":0.10714274999999418,"midi":63,"time":107.89274925000001,"velocity":0.15748031496062992},{"duration":0.10714274999999418,"midi":58,"time":107.89274925000001,"velocity":0.15748031496062992},{"duration":0.10714274999999418,"midi":70,"time":109.71417600000001,"velocity":0.15748031496062992},{"duration":0.10714275000000839,"midi":65,"time":109.82131875,"velocity":0.15748031496062992},{"duration":0.10714274999999418,"midi":68,"time":109.92846150000001,"velocity":0.15748031496062992},{"duration":0.10714275000000839,"midi":70,"time":110.03560425,"velocity":0.15748031496062992},{"duration":0.10714274999999418,"midi":65,"time":110.24988975000001,"velocity":0.15748031496062992},{"duration":0.10714275000000839,"midi":68,"time":110.3570325,"velocity":0.15748031496062992},{"duration":0.10714274999999418,"midi":63,"time":110.46417525000001,"velocity":0.15748031496062992},{"duration":0.10714275000000839,"midi":70,"time":110.571318,"velocity":0.15748031496062992},{"duration":0.10714274999999418,"midi":65,"time":110.67846075000001,"velocity":0.15748031496062992},{"duration":0.10714275000000839,"midi":68,"time":110.78560350000001,"velocity":0.15748031496062992},{"duration":0.10714274999999418,"midi":70,"time":110.89274625000002,"velocity":0.15748031496062992},{"duration":0.10714275000000839,"midi":65,"time":111.10703175,"velocity":0.15748031496062992},{"duration":0.10714274999999418,"midi":68,"time":111.21417450000001,"velocity":0.15748031496062992},{"duration":0.10714275000000839,"midi":63,"time":111.32131725,"velocity":0.15748031496062992},{"duration":0.10714274999999418,"midi":70,"time":111.42846000000002,"velocity":0.15748031496062992},{"duration":0.10714274999999418,"midi":65,"time":111.53560275000001,"velocity":0.15748031496062992},{"duration":0.10714275000000839,"midi":68,"time":111.6427455,"velocity":0.15748031496062992},{"duration":0.10714274999999418,"midi":70,"time":111.74988825000001,"velocity":0.15748031496062992},{"duration":0.10714274999999418,"midi":65,"time":111.96417375000001,"velocity":0.15748031496062992},{"duration":0.10714274999999418,"midi":68,"time":112.07131650000001,"velocity":0.15748031496062992},{"duration":0.10714275000000839,"midi":63,"time":112.17845925,"velocity":0.15748031496062992},{"duration":0.10714274999999418,"midi":70,"time":112.28560200000001,"velocity":0.15748031496062992},{"duration":0.10714275000000839,"midi":65,"time":112.39274475,"velocity":0.15748031496062992},{"duration":0.10714274999999418,"midi":68,"time":112.49988750000001,"velocity":0.15748031496062992},{"duration":0.10714274999999418,"midi":77,"time":112.60703025000001,"velocity":0.15748031496062992},{"duration":0.10714274999999418,"midi":75,"time":112.82131575000001,"velocity":0.15748031496062992},{"duration":0.10714275000000839,"midi":73,"time":112.9284585,"velocity":0.15748031496062992},{"duration":0.10714274999999418,"midi":68,"time":113.03560125000001,"velocity":0.15748031496062992},{"duration":0.10714275000000839,"midi":70,"time":113.14274400000001,"velocity":0.15748031496062992},{"duration":0.10714274999999418,"midi":65,"time":113.24988675000002,"velocity":0.15748031496062992},{"duration":0.10714274999999418,"midi":68,"time":113.35702950000001,"velocity":0.15748031496062992},{"duration":0.10714275000000839,"midi":70,"time":113.46417225,"velocity":0.15748031496062992},{"duration":0.10714275000000839,"midi":65,"time":113.67845775,"velocity":0.15748031496062992},{"duration":0.10714274999999418,"midi":68,"time":113.78560050000002,"velocity":0.15748031496062992},{"duration":0.10714274999999418,"midi":63,"time":113.89274325000001,"velocity":0.15748031496062992},{"duration":0.10714275000000839,"midi":70,"time":113.999886,"velocity":0.15748031496062992},{"duration":0.10714274999999418,"midi":65,"time":114.10702875000001,"velocity":0.15748031496062992},{"duration":0.10714275000000839,"midi":68,"time":114.2141715,"velocity":0.15748031496062992},{"duration":0.10714274999999418,"midi":70,"time":114.32131425000001,"velocity":0.15748031496062992},{"duration":0.10714275000000839,"midi":65,"time":114.53559975,"velocity":0.15748031496062992},{"duration":0.10714274999999418,"midi":68,"time":114.64274250000001,"velocity":0.15748031496062992},{"duration":0.10714275000000839,"midi":63,"time":114.74988525,"velocity":0.15748031496062992},{"duration":0.10714274999999418,"midi":70,"time":114.85702800000001,"velocity":0.15748031496062992},{"duration":0.10714275000000839,"midi":65,"time":114.96417075000001,"velocity":0.15748031496062992},{"duration":0.10714274999999418,"midi":68,"time":115.07131350000002,"velocity":0.15748031496062992},{"duration":0.10714274999999418,"midi":70,"time":115.17845625000001,"velocity":0.15748031496062992},{"duration":0.10714274999999418,"midi":65,"time":115.39274175000001,"velocity":0.15748031496062992},{"duration":0.10714275000000839,"midi":68,"time":115.49988450000001,"velocity":0.15748031496062992},{"duration":0.10714274999999418,"midi":63,"time":115.60702725000002,"velocity":0.15748031496062992},{"duration":0.10714274999999418,"midi":70,"time":115.71417000000001,"velocity":0.15748031496062992},{"duration":0.10714275000000839,"midi":65,"time":115.82131275,"velocity":0.15748031496062992},{"duration":0.10714274999999418,"midi":68,"time":115.92845550000001,"velocity":0.15748031496062992},{"duration":0.10714275000000839,"midi":77,"time":116.03559825,"velocity":0.15748031496062992},{"duration":0.10714274999999418,"midi":75,"time":116.24988375000001,"velocity":0.15748031496062992},{"duration":0.10714275000000839,"midi":73,"time":116.3570265,"velocity":0.15748031496062992},{"duration":0.10714274999999418,"midi":68,"time":116.46416925000001,"velocity":0.15748031496062992},{"duration":0.10714275000000839,"midi":70,"time":116.571312,"velocity":0.15748031496062992},{"duration":0.10714274999999418,"midi":65,"time":116.67845475000001,"velocity":0.15748031496062992},{"duration":0.10714274999999418,"midi":68,"time":116.78559750000001,"velocity":0.15748031496062992},{"duration":0.10714275000000839,"midi":70,"time":116.89274025,"velocity":0.15748031496062992},{"duration":0.10714275000000839,"midi":65,"time":117.10702575,"velocity":0.15748031496062992},{"duration":0.10714274999999418,"midi":68,"time":117.21416850000001,"velocity":0.15748031496062992},{"duration":0.10714275000000839,"midi":63,"time":117.32131125000001,"velocity":0.15748031496062992},{"duration":0.10714274999999418,"midi":70,"time":117.42845400000002,"velocity":0.15748031496062992},{"duration":0.10714274999999418,"midi":65,"time":117.53559675000001,"velocity":0.15748031496062992},{"duration":0.10714275000000839,"midi":68,"time":117.6427395,"velocity":0.15748031496062992},{"duration":0.10714274999999418,"midi":70,"time":117.74988225000001,"velocity":0.15748031496062992},{"duration":0.10714274999999418,"midi":65,"time":117.96416775000002,"velocity":0.15748031496062992},{"duration":0.10714274999999418,"midi":68,"time":118.07131050000001,"velocity":0.15748031496062992},{"duration":0.10714275000000839,"midi":63,"time":118.17845325,"velocity":0.15748031496062992},{"duration":0.10714274999999418,"midi":70,"time":118.28559600000001,"velocity":0.15748031496062992},{"duration":0.10714275000000839,"midi":65,"time":118.39273875,"velocity":0.15748031496062992},{"duration":0.10714274999999418,"midi":68,"time":118.49988150000001,"velocity":0.15748031496062992},{"duration":0.10714274999999418,"midi":70,"time":118.60702425000001,"velocity":0.15748031496062992},{"duration":0.10714274999999418,"midi":65,"time":118.82130975000001,"velocity":0.15748031496062992},{"duration":0.10714275000000839,"midi":68,"time":118.9284525,"velocity":0.15748031496062992},{"duration":0.10714274999999418,"midi":63,"time":119.03559525000001,"velocity":0.15748031496062992},{"duration":0.10714275000000839,"midi":70,"time":119.14273800000001,"velocity":0.15748031496062992},{"duration":0.10714274999999418,"midi":65,"time":119.24988075000002,"velocity":0.15748031496062992},{"duration":0.10714274999999418,"midi":68,"time":119.35702350000001,"velocity":0.15748031496062992},{"duration":0.10714275000000839,"midi":77,"time":119.46416625,"velocity":0.15748031496062992},{"duration":0.10714275000000839,"midi":75,"time":119.67845175000001,"velocity":0.15748031496062992},{"duration":0.10714274999999418,"midi":73,"time":119.78559450000002,"velocity":0.15748031496062992},{"duration":0.10714274999999418,"midi":68,"time":119.89273725000001,"velocity":0.15748031496062992},{"duration":0.10714275000000839,"midi":70,"time":119.99988,"velocity":0.15748031496062992},{"duration":0.10714274999999418,"midi":65,"time":120.10702275000001,"velocity":0.15748031496062992},{"duration":0.10714275000000839,"midi":68,"time":120.21416550000001,"velocity":0.15748031496062992},{"duration":0.10714274999999418,"midi":70,"time":120.32130825000002,"velocity":0.15748031496062992},{"duration":0.10714275000000839,"midi":65,"time":120.53559375,"velocity":0.15748031496062992},{"duration":0.10714274999999418,"midi":68,"time":120.64273650000001,"velocity":0.15748031496062992},{"duration":0.10714275000000839,"midi":63,"time":120.74987925,"velocity":0.15748031496062992},{"duration":0.10714274999999418,"midi":70,"time":120.85702200000001,"velocity":0.15748031496062992},{"duration":0.10714274999999418,"midi":65,"time":120.96416475000001,"velocity":0.15748031496062992},{"duration":0.10714275000000839,"midi":68,"time":121.0713075,"velocity":0.15748031496062992},{"duration":0.10714274999999418,"midi":70,"time":121.17845025000001,"velocity":0.15748031496062992},{"duration":0.10714274999999418,"midi":65,"time":121.39273575000001,"velocity":0.15748031496062992},{"duration":0.10714275000000839,"midi":68,"time":121.49987850000001,"velocity":0.15748031496062992},{"duration":0.10714274999999418,"midi":63,"time":121.60702125000002,"velocity":0.15748031496062992},{"duration":0.10714274999999418,"midi":70,"time":121.71416400000001,"velocity":0.15748031496062992},{"duration":0.10714275000000839,"midi":65,"time":121.82130675,"velocity":0.15748031496062992},{"duration":0.10714274999999418,"midi":68,"time":121.92844950000001,"velocity":0.15748031496062992},{"duration":0.10714275000000839,"midi":70,"time":122.03559225000001,"velocity":0.15748031496062992},{"duration":0.10714274999999418,"midi":65,"time":122.24987775000001,"velocity":0.15748031496062992},{"duration":0.10714275000000839,"midi":68,"time":122.3570205,"velocity":0.15748031496062992},{"duration":0.10714274999999418,"midi":63,"time":122.46416325000001,"velocity":0.15748031496062992},{"duration":0.10714275000000839,"midi":70,"time":122.571306,"velocity":0.15748031496062992},{"duration":0.10714274999999418,"midi":65,"time":122.67844875000002,"velocity":0.15748031496062992},{"duration":0.10714274999999418,"midi":68,"time":122.78559150000001,"velocity":0.15748031496062992},{"duration":0.10714275000000839,"midi":77,"time":122.89273425,"velocity":0.15748031496062992},{"duration":0.10714275000000839,"midi":75,"time":123.10701975,"velocity":0.15748031496062992},{"duration":0.10714274999999418,"midi":73,"time":123.21416250000001,"velocity":0.15748031496062992},{"duration":0.10714274999999418,"midi":68,"time":123.32130525000001,"velocity":0.15748031496062992},{"duration":0.21428550000000257,"midi":87,"time":123.428448,"velocity":0.031496062992125984},{"duration":0.21428550000000257,"midi":75,"time":123.428448,"velocity":0.15748031496062992},{"duration":0.10714274999999418,"midi":87,"time":123.74987625000001,"velocity":0.06299212598425197},{"duration":0.10714274999999418,"midi":75,"time":123.74987625000001,"velocity":0.15748031496062992},{"duration":0.10714274999999418,"midi":75,"time":123.96416175000002,"velocity":0.15748031496062992},{"duration":0.10714274999999418,"midi":78,"time":124.07130450000001,"velocity":0.15748031496062992},{"duration":0.10714275000000839,"midi":80,"time":124.17844725,"velocity":0.15748031496062992},{"duration":0.21428550000000257,"midi":75,"time":124.28559000000001,"velocity":0.15748031496062992},{"duration":0.21428550000000257,"midi":87,"time":124.28559000000001,"velocity":0.031496062992125984},{"duration":0.10714274999999418,"midi":75,"time":124.60701825000001,"velocity":0.15748031496062992},{"duration":0.10714274999999418,"midi":87,"time":124.60701825000001,"velocity":0.06299212598425197},{"duration":0.10714274999999418,"midi":75,"time":124.82130375000001,"velocity":0.15748031496062992},{"duration":0.10714275000000839,"midi":78,"time":124.9284465,"velocity":0.15748031496062992},{"duration":0.10714274999999418,"midi":80,"time":125.03558925000002,"velocity":0.15748031496062992},{"duration":0.21428550000000257,"midi":87,"time":125.14273200000001,"velocity":0.031496062992125984},{"duration":0.21428550000000257,"midi":75,"time":125.14273200000001,"velocity":0.15748031496062992},{"duration":0.10714275000000839,"midi":87,"time":125.46416025,"velocity":0.06299212598425197},{"duration":0.10714275000000839,"midi":75,"time":125.46416025,"velocity":0.15748031496062992},{"duration":0.10714275000000839,"midi":75,"time":125.67844575000001,"velocity":0.15748031496062992},{"duration":0.10714274999999418,"midi":78,"time":125.78558850000002,"velocity":0.15748031496062992},{"duration":0.10714274999999418,"midi":80,"time":125.89273125000001,"velocity":0.15748031496062992},{"duration":0.21428550000000257,"midi":75,"time":125.999874,"velocity":0.15748031496062992},{"duration":0.21428550000000257,"midi":87,"time":125.999874,"velocity":0.031496062992125984},{"duration":0.10714274999999418,"midi":87,"time":126.32130225000002,"velocity":0.06299212598425197},{"duration":0.10714274999999418,"midi":75,"time":126.32130225000002,"velocity":0.15748031496062992},{"duration":0.10714275000000839,"midi":75,"time":126.53558775,"velocity":0.15748031496062992},{"duration":0.10714275000000839,"midi":87,"time":126.53558775,"velocity":0.031496062992125984},{"duration":0.10714274999999418,"midi":82,"time":126.64273050000001,"velocity":0.031496062992125984},{"duration":0.10714274999999418,"midi":70,"time":126.64273050000001,"velocity":0.15748031496062992},{"duration":0.10714275000000839,"midi":66,"time":126.74987325000001,"velocity":0.15748031496062992},{"duration":0.10714275000000839,"midi":78,"time":126.74987325000001,"velocity":0.031496062992125984},{"duration":0.21428549999998836,"midi":87,"time":126.85701600000002,"velocity":0.031496062992125984},{"duration":0.21428549999998836,"midi":75,"time":126.85701600000002,"velocity":0.15748031496062992},{"duration":0.10714274999999418,"midi":75,"time":127.17844425000001,"velocity":0.15748031496062992},{"duration":0.10714274999999418,"midi":87,"time":127.17844425000001,"velocity":0.06299212598425197},{"duration":0.10714274999999418,"midi":75,"time":127.39272975000002,"velocity":0.15748031496062992},{"duration":0.10714274999999418,"midi":78,"time":127.49987250000001,"velocity":0.15748031496062992},{"duration":0.10714275000000839,"midi":80,"time":127.60701525,"velocity":0.15748031496062992},{"duration":0.21428550000000257,"midi":87,"time":127.71415800000001,"velocity":0.031496062992125984},{"duration":0.21428550000000257,"midi":75,"time":127.71415800000001,"velocity":0.15748031496062992},{"duration":0.10714274999997997,"midi":87,"time":128.03558625000002,"velocity":0.06299212598425197},{"duration":0.10714274999997997,"midi":75,"time":128.03558625000002,"velocity":0.15748031496062992},{"duration":0.10714275000000839,"midi":75,"time":128.24987175,"velocity":0.15748031496062992},{"duration":0.10714274999997997,"midi":78,"time":128.35701450000002,"velocity":0.15748031496062992},{"duration":0.10714275000000839,"midi":80,"time":128.46415725,"velocity":0.15748031496062992},{"duration":0.21428550000001678,"midi":75,"time":128.5713,"velocity":0.15748031496062992},{"duration":0.21428550000001678,"midi":87,"time":128.5713,"velocity":0.031496062992125984},{"duration":0.10714275000000839,"midi":87,"time":128.89272825,"velocity":0.06299212598425197},{"duration":0.10714275000000839,"midi":75,"time":128.89272825,"velocity":0.15748031496062992},{"duration":0.10714274999997997,"midi":75,"time":129.10701375000002,"velocity":0.15748031496062992},{"duration":0.10714275000000839,"midi":78,"time":129.2141565,"velocity":0.15748031496062992},{"duration":0.10714275000000839,"midi":80,"time":129.32129925,"velocity":0.15748031496062992},{"duration":0.10714274999997997,"midi":70,"time":129.42844200000002,"velocity":0.15748031496062992},{"duration":0.10714274999997997,"midi":82,"time":129.42844200000002,"velocity":0.031496062992125984},{"duration":0.10714275000000839,"midi":80,"time":129.53558475,"velocity":0.031496062992125984},{"duration":0.10714275000000839,"midi":68,"time":129.53558475,"velocity":0.15748031496062992},{"duration":0.10714275000000839,"midi":73,"time":129.6427275,"velocity":0.15748031496062992},{"duration":0.10714275000000839,"midi":85,"time":129.6427275,"velocity":0.031496062992125984},{"duration":0.10714275000000839,"midi":87,"time":129.74987025000001,"velocity":0.06299212598425197},{"duration":0.10714275000000839,"midi":75,"time":129.74987025000001,"velocity":0.15748031496062992},{"duration":0.10714275000000839,"midi":75,"time":129.96415575,"velocity":0.15748031496062992},{"duration":0.10714275000000839,"midi":87,"time":129.96415575,"velocity":0.031496062992125984},{"duration":0.10714275000000839,"midi":70,"time":130.0712985,"velocity":0.15748031496062992},{"duration":0.10714275000000839,"midi":82,"time":130.0712985,"velocity":0.031496062992125984},{"duration":0.10714274999997997,"midi":78,"time":130.17844125000002,"velocity":0.031496062992125984},{"duration":0.10714274999997997,"midi":66,"time":130.17844125000002,"velocity":0.15748031496062992},{"duration":0.21428550000001678,"midi":75,"time":130.285584,"velocity":0.15748031496062992},{"duration":0.21428550000001678,"midi":87,"time":130.285584,"velocity":0.031496062992125984},{"duration":0.10714275000000839,"midi":87,"time":130.60701225,"velocity":0.06299212598425197},{"duration":0.10714275000000839,"midi":75,"time":130.60701225,"velocity":0.15748031496062992},{"duration":0.10714275000000839,"midi":75,"time":130.82129775,"velocity":0.15748031496062992},{"duration":0.10714274999997997,"midi":78,"time":130.92844050000002,"velocity":0.15748031496062992},{"duration":0.10714275000000839,"midi":80,"time":131.03558325,"velocity":0.15748031496062992},{"duration":0.21428549999998836,"midi":87,"time":131.142726,"velocity":0.031496062992125984},{"duration":0.21428549999998836,"midi":75,"time":131.142726,"velocity":0.15748031496062992},{"duration":0.10714275000000839,"midi":87,"time":131.46415425,"velocity":0.06299212598425197},{"duration":0.10714275000000839,"midi":75,"time":131.46415425,"velocity":0.15748031496062992},{"duration":0.10714274999997997,"midi":75,"time":131.67843975000002,"velocity":0.15748031496062992},{"duration":0.10714275000000839,"midi":78,"time":131.7855825,"velocity":0.15748031496062992},{"duration":0.10714275000000839,"midi":80,"time":131.89272525,"velocity":0.15748031496062992},{"duration":0.21428549999998836,"midi":75,"time":131.99986800000002,"velocity":0.15748031496062992},{"duration":0.21428549999998836,"midi":87,"time":131.99986800000002,"velocity":0.031496062992125984},{"duration":0.10714274999997997,"midi":75,"time":132.32129625000002,"velocity":0.15748031496062992},{"duration":0.10714274999997997,"midi":87,"time":132.32129625000002,"velocity":0.06299212598425197},{"duration":0.10714275000000839,"midi":75,"time":132.53558175,"velocity":0.15748031496062992},{"duration":0.10714275000000839,"midi":78,"time":132.6427245,"velocity":0.15748031496062992},{"duration":0.10714274999997997,"midi":80,"time":132.74986725000002,"velocity":0.15748031496062992},{"duration":0.21428550000001678,"midi":87,"time":132.85701,"velocity":0.031496062992125984},{"duration":0.21428550000001678,"midi":75,"time":132.85701,"velocity":0.15748031496062992},{"duration":0.10714275000000839,"midi":87,"time":133.17843825,"velocity":0.06299212598425197},{"duration":0.10714275000000839,"midi":75,"time":133.17843825,"velocity":0.15748031496062992},{"duration":0.10714275000000839,"midi":87,"time":133.39272375000002,"velocity":0.031496062992125984},{"duration":0.10714275000000839,"midi":75,"time":133.39272375000002,"velocity":0.15748031496062992},{"duration":0.10714274999997997,"midi":70,"time":133.49986650000002,"velocity":0.15748031496062992},{"duration":0.10714274999997997,"midi":82,"time":133.49986650000002,"velocity":0.031496062992125984},{"duration":0.10714275000000839,"midi":66,"time":133.60700925,"velocity":0.15748031496062992},{"duration":0.10714275000000839,"midi":78,"time":133.60700925,"velocity":0.031496062992125984},{"duration":0.21428549999998836,"midi":87,"time":133.714152,"velocity":0.031496062992125984},{"duration":0.21428549999998836,"midi":75,"time":133.714152,"velocity":0.15748031496062992},{"duration":0.10714275000000839,"midi":75,"time":134.03558025,"velocity":0.15748031496062992},{"duration":0.10714275000000839,"midi":87,"time":134.03558025,"velocity":0.06299212598425197},{"duration":0.10714275000000839,"midi":75,"time":134.24986575,"velocity":0.15748031496062992},{"duration":0.10714275000000839,"midi":78,"time":134.3570085,"velocity":0.15748031496062992},{"duration":0.10714275000000839,"midi":80,"time":134.46415125000001,"velocity":0.15748031496062992},{"duration":0.21428549999998836,"midi":87,"time":134.57129400000002,"velocity":0.031496062992125984},{"duration":0.21428549999998836,"midi":75,"time":134.57129400000002,"velocity":0.15748031496062992},{"duration":0.10714274999997997,"midi":87,"time":134.89272225000002,"velocity":0.06299212598425197},{"duration":0.10714274999997997,"midi":75,"time":134.89272225000002,"velocity":0.15748031496062992},{"duration":0.10714275000000839,"midi":75,"time":135.10700775,"velocity":0.15748031496062992},{"duration":0.10714275000000839,"midi":78,"time":135.21415050000002,"velocity":0.15748031496062992},{"duration":0.10714274999997997,"midi":80,"time":135.32129325000002,"velocity":0.15748031496062992},{"duration":0.21428550000001678,"midi":75,"time":135.428436,"velocity":0.15748031496062992},{"duration":0.21428550000001678,"midi":87,"time":135.428436,"velocity":0.031496062992125984},{"duration":0.10714275000000839,"midi":75,"time":135.74986425,"velocity":0.15748031496062992},{"duration":0.10714275000000839,"midi":87,"time":135.74986425,"velocity":0.06299212598425197},{"duration":0.10714274999997997,"midi":75,"time":135.96414975000002,"velocity":0.15748031496062992},{"duration":0.10714275000000839,"midi":78,"time":136.0712925,"velocity":0.15748031496062992},{"duration":0.10714275000000839,"midi":80,"time":136.17843525,"velocity":0.15748031496062992},{"duration":0.10714275000000839,"midi":70,"time":136.28557800000002,"velocity":0.15748031496062992},{"duration":0.10714275000000839,"midi":82,"time":136.28557800000002,"velocity":0.031496062992125984},{"duration":0.10714274999997997,"midi":68,"time":136.39272075000002,"velocity":0.15748031496062992},{"duration":0.10714274999997997,"midi":80,"time":136.39272075000002,"velocity":0.031496062992125984},{"duration":0.10714275000000839,"midi":85,"time":136.4998635,"velocity":0.031496062992125984},{"duration":0.10714275000000839,"midi":73,"time":136.4998635,"velocity":0.15748031496062992},{"duration":0.10714275000000839,"midi":87,"time":136.60700625,"velocity":0.06299212598425197},{"duration":0.10714275000000839,"midi":75,"time":136.60700625,"velocity":0.15748031496062992},{"duration":0.10714275000000839,"midi":75,"time":136.82129175,"velocity":0.15748031496062992},{"duration":0.10714275000000839,"midi":87,"time":136.82129175,"velocity":0.031496062992125984},{"duration":0.10714275000000839,"midi":82,"time":136.9284345,"velocity":0.031496062992125984},{"duration":0.10714275000000839,"midi":70,"time":136.9284345,"velocity":0.15748031496062992},{"duration":0.10714274999997997,"midi":66,"time":137.03557725000002,"velocity":0.15748031496062992},{"duration":0.10714274999997997,"midi":78,"time":137.03557725000002,"velocity":0.031496062992125984}]},{"instrument":{"family":"strings","number":40,"name":"violin"},"notes":[{"duration":0.05357137500000064,"midi":58,"time":27.589258125,"velocity":0.6299212598425197},{"duration":0.05357137500000064,"midi":58,"time":27.910686375,"velocity":0.6299212598425197},{"duration":0.05357137500000064,"midi":58,"time":28.232114625,"velocity":0.6299212598425197},{"duration":0.05357137500000064,"midi":61,"time":28.553542875,"velocity":0.6299212598425197},{"duration":0.05357137500000064,"midi":63,"time":28.874971125000002,"velocity":0.6299212598425197},{"duration":0.05357137500000064,"midi":58,"time":29.303542125000003,"velocity":0.6299212598425197},{"duration":0.05357137499999709,"midi":58,"time":29.624970375000004,"velocity":0.6299212598425197},{"duration":0.05357137499999709,"midi":64,"time":29.946398625000004,"velocity":0.6299212598425197},{"duration":0.05357137500000064,"midi":61,"time":30.267826875,"velocity":0.6299212598425197},{"duration":0.05357137500000064,"midi":63,"time":30.589255125,"velocity":0.6299212598425197},{"duration":0.05357137500000064,"midi":58,"time":31.017826125000003,"velocity":0.6299212598425197},{"duration":0.05357137500000064,"midi":58,"time":31.339254375000003,"velocity":0.6299212598425197},{"duration":0.05357137500000064,"midi":58,"time":31.660682625000003,"velocity":0.6299212598425197},{"duration":0.05357137499999709,"midi":61,"time":31.982110875000004,"velocity":0.6299212598425197},{"duration":0.053571375000004195,"midi":63,"time":32.303539125,"velocity":0.6299212598425197},{"duration":0.05357137499999709,"midi":58,"time":32.732110125000005,"velocity":0.6299212598425197},{"duration":0.05357137499999709,"midi":58,"time":33.053538375,"velocity":0.6299212598425197},{"duration":0.053571375000004195,"midi":56,"time":33.2142525,"velocity":0.6299212598425197},{"duration":0.05357137499999709,"midi":57,"time":33.696394875,"velocity":0.6299212598425197},{"duration":0.053571375000004195,"midi":58,"time":34.017823125,"velocity":0.6299212598425197},{"duration":0.05357137499999709,"midi":58,"time":34.446394125000005,"velocity":0.6299212598425197},{"duration":0.053571375000004195,"midi":58,"time":34.767822375,"velocity":0.6299212598425197},{"duration":0.05357137499999709,"midi":58,"time":35.089250625000005,"velocity":0.6299212598425197},{"duration":0.053571375000004195,"midi":61,"time":35.410678875,"velocity":0.6299212598425197},{"duration":0.05357137499999709,"midi":63,"time":35.732107125000006,"velocity":0.6299212598425197},{"duration":0.05357137499999709,"midi":58,"time":36.160678125000004,"velocity":0.6299212598425197},{"duration":0.053571375000004195,"midi":58,"time":36.482106375,"velocity":0.6299212598425197},{"duration":0.05357137499999709,"midi":64,"time":36.803534625000005,"velocity":0.6299212598425197},{"duration":0.053571375000004195,"midi":61,"time":37.124962875,"velocity":0.6299212598425197},{"duration":0.053571375000004195,"midi":63,"time":37.39281975,"velocity":0.6299212598425197},{"duration":0.05357137499999709,"midi":58,"time":37.874962125,"velocity":0.6299212598425197},{"duration":0.053571375000004195,"midi":58,"time":38.196390375,"velocity":0.6299212598425197},{"duration":0.05357137499999709,"midi":58,"time":38.517818625000004,"velocity":0.6299212598425197},{"duration":0.053571375000004195,"midi":61,"time":38.839246875,"velocity":0.6299212598425197},{"duration":0.05357137499999709,"midi":63,"time":39.160675125000004,"velocity":0.6299212598425197},{"duration":0.053571375000004195,"midi":58,"time":39.589246125,"velocity":0.6299212598425197},{"duration":0.05357137499999709,"midi":58,"time":39.910674375000006,"velocity":0.6299212598425197},{"duration":0.05357137499999709,"midi":56,"time":40.178531250000006,"velocity":0.6299212598425197},{"duration":0.053571375000004195,"midi":57,"time":40.553530875,"velocity":0.6299212598425197},{"duration":0.05357137499999709,"midi":58,"time":40.874959125000004,"velocity":0.6299212598425197},{"duration":0.05357137499999709,"midi":68,"time":54.80351662500001,"velocity":0.6299212598425197},{"duration":0.05357137499999709,"midi":70,"time":55.124944875000004,"velocity":0.6299212598425197},{"duration":0.05357137499999709,"midi":63,"time":55.44637312500001,"velocity":0.6299212598425197},{"duration":0.05357137499999709,"midi":65,"time":55.767801375000005,"velocity":0.6299212598425197},{"duration":0.053571375000004195,"midi":61,"time":56.089229625,"velocity":0.6299212598425197},{"duration":0.05357137499999709,"midi":58,"time":56.303515125000004,"velocity":0.6299212598425197},{"duration":0.05357137499999709,"midi":68,"time":56.51780062500001,"velocity":0.6299212598425197},{"duration":0.053571375000004195,"midi":70,"time":56.839228875,"velocity":0.6299212598425197},{"duration":0.05357137499999709,"midi":63,"time":57.16065712500001,"velocity":0.6299212598425197},{"duration":0.053571375000004195,"midi":65,"time":57.482085375000004,"velocity":0.6299212598425197},{"duration":0.05357137499999709,"midi":61,"time":57.80351362500001,"velocity":0.6299212598425197},{"duration":0.053571375000004195,"midi":58,"time":58.017799125,"velocity":0.6299212598425197},{"duration":0.05357137499999709,"midi":68,"time":58.232084625000006,"velocity":0.6299212598425197},{"duration":0.053571375000004195,"midi":70,"time":58.553512875,"velocity":0.6299212598425197},{"duration":0.05357137499999709,"midi":63,"time":58.87494112500001,"velocity":0.6299212598425197},{"duration":0.053571375000004195,"midi":65,"time":59.196369375,"velocity":0.6299212598425197},{"duration":0.05357137499999709,"midi":61,"time":59.51779762500001,"velocity":0.6299212598425197},{"duration":0.053571375000004195,"midi":58,"time":59.732083125,"velocity":0.6299212598425197},{"duration":0.05357137499999709,"midi":68,"time":59.946368625000005,"velocity":0.6299212598425197},{"duration":0.053571375000004195,"midi":70,"time":60.267796875,"velocity":0.6299212598425197},{"duration":0.05357137499999709,"midi":73,"time":60.589225125000006,"velocity":0.6299212598425197},{"duration":0.053571375000004195,"midi":72,"time":60.910653375,"velocity":0.6299212598425197},{"duration":0.05357137499999709,"midi":68,"time":61.232081625000006,"velocity":0.6299212598425197},{"duration":0.053571375000004195,"midi":65,"time":61.446367125,"velocity":0.6299212598425197},{"duration":0.05357137499999709,"midi":68,"time":61.660652625000004,"velocity":0.6299212598425197},{"duration":0.05357137499999709,"midi":70,"time":61.98208087500001,"velocity":0.6299212598425197},{"duration":0.05357137499999709,"midi":63,"time":62.303509125000005,"velocity":0.6299212598425197},{"duration":0.053571375000004195,"midi":65,"time":62.624937375,"velocity":0.6299212598425197},{"duration":0.05357137499999709,"midi":61,"time":62.946365625000006,"velocity":0.6299212598425197},{"duration":0.05357137499999709,"midi":58,"time":63.16065112500001,"velocity":0.6299212598425197},{"duration":0.053571375000004195,"midi":68,"time":63.374936625000004,"velocity":0.6299212598425197},{"duration":0.05357137499999709,"midi":70,"time":63.69636487500001,"velocity":0.6299212598425197},{"duration":0.053571375000004195,"midi":65,"time":64.33922137500001,"velocity":0.6299212598425197},{"duration":0.053571375000004195,"midi":61,"time":64.660649625,"velocity":0.6299212598425197},{"duration":0.053571375000004195,"midi":58,"time":64.87493512500001,"velocity":0.6299212598425197},{"duration":0.053571374999989985,"midi":68,"time":65.08922062500001,"velocity":0.6299212598425197},{"duration":0.053571375000004195,"midi":70,"time":65.410648875,"velocity":0.6299212598425197},{"duration":0.053571375000004195,"midi":63,"time":65.732077125,"velocity":0.6299212598425197},{"duration":0.053571375000004195,"midi":65,"time":66.053505375,"velocity":0.6299212598425197},{"duration":0.053571374999989985,"midi":61,"time":66.37493362500001,"velocity":0.6299212598425197},{"duration":0.053571375000004195,"midi":58,"time":66.589219125,"velocity":0.6299212598425197},{"duration":0.053571375000004195,"midi":68,"time":66.803504625,"velocity":0.6299212598425197},{"duration":0.053571375000004195,"midi":70,"time":67.124932875,"velocity":0.6299212598425197},{"duration":0.053571374999989985,"midi":73,"time":67.44636112500001,"velocity":0.6299212598425197},{"duration":0.053571375000004195,"midi":72,"time":67.767789375,"velocity":0.6299212598425197},{"duration":0.053571375000004195,"midi":68,"time":68.089217625,"velocity":0.6299212598425197},{"duration":0.053571375000004195,"midi":65,"time":68.303503125,"velocity":0.6299212598425197},{"duration":0.053571374999989985,"midi":68,"time":68.51778862500001,"velocity":0.6299212598425197},{"duration":0.053571375000004195,"midi":70,"time":68.839216875,"velocity":0.6299212598425197},{"duration":0.053571375000004195,"midi":63,"time":69.160645125,"velocity":0.6299212598425197},{"duration":0.053571375000004195,"midi":65,"time":69.482073375,"velocity":0.6299212598425197},{"duration":0.053571374999989985,"midi":61,"time":69.80350162500001,"velocity":0.6299212598425197},{"duration":0.053571374999989985,"midi":58,"time":70.01778712500001,"velocity":0.6299212598425197},{"duration":0.053571375000004195,"midi":68,"time":70.232072625,"velocity":0.6299212598425197},{"duration":0.053571374999989985,"midi":70,"time":70.55350087500001,"velocity":0.6299212598425197},{"duration":0.053571375000004195,"midi":63,"time":70.87492912500001,"velocity":0.6299212598425197},{"duration":0.053571375000004195,"midi":65,"time":71.196357375,"velocity":0.6299212598425197},{"duration":0.053571375000004195,"midi":61,"time":71.517785625,"velocity":0.6299212598425197},{"duration":0.053571375000004195,"midi":68,"time":71.946356625,"velocity":0.6299212598425197},{"duration":0.053571375000004195,"midi":70,"time":72.267784875,"velocity":0.6299212598425197},{"duration":0.053571375000004195,"midi":63,"time":72.589213125,"velocity":0.6299212598425197},{"duration":0.053571374999989985,"midi":65,"time":72.91064137500001,"velocity":0.6299212598425197},{"duration":0.053571375000004195,"midi":61,"time":73.23206962500001,"velocity":0.6299212598425197},{"duration":0.053571374999989985,"midi":58,"time":73.44635512500001,"velocity":0.6299212598425197},{"duration":0.053571375000004195,"midi":68,"time":73.660640625,"velocity":0.6299212598425197},{"duration":0.053571374999989985,"midi":70,"time":73.98206887500001,"velocity":0.6299212598425197},{"duration":0.053571375000004195,"midi":73,"time":74.303497125,"velocity":0.6299212598425197},{"duration":0.053571375000004195,"midi":72,"time":74.624925375,"velocity":0.6299212598425197},{"duration":0.053571375000004195,"midi":68,"time":74.946353625,"velocity":0.6299212598425197},{"duration":0.053571375000004195,"midi":65,"time":75.160639125,"velocity":0.6299212598425197},{"duration":0.053571375000004195,"midi":68,"time":75.374924625,"velocity":0.6299212598425197},{"duration":0.053571375000004195,"midi":70,"time":75.696352875,"velocity":0.6299212598425197},{"duration":0.053571374999989985,"midi":63,"time":76.01778112500001,"velocity":0.6299212598425197},{"duration":0.053571374999989985,"midi":65,"time":76.33920937500001,"velocity":0.6299212598425197},{"duration":0.053571375000004195,"midi":61,"time":76.660637625,"velocity":0.6299212598425197},{"duration":0.053571374999989985,"midi":58,"time":76.87492312500001,"velocity":0.6299212598425197},{"duration":0.053571374999989985,"midi":68,"time":77.08920862500001,"velocity":0.6299212598425197},{"duration":0.053571375000004195,"midi":70,"time":77.41063687500001,"velocity":0.6299212598425197},{"duration":0.053571375000004195,"midi":63,"time":77.732065125,"velocity":0.6299212598425197},{"duration":0.053571375000004195,"midi":65,"time":78.053493375,"velocity":0.6299212598425197},{"duration":0.053571374999989985,"midi":61,"time":78.37492162500001,"velocity":0.6299212598425197},{"duration":0.053571375000004195,"midi":58,"time":78.589207125,"velocity":0.6299212598425197},{"duration":0.053571375000004195,"midi":68,"time":78.803492625,"velocity":0.6299212598425197},{"duration":0.053571375000004195,"midi":70,"time":79.124920875,"velocity":0.6299212598425197},{"duration":0.053571374999989985,"midi":63,"time":79.44634912500001,"velocity":0.6299212598425197},{"duration":0.053571375000004195,"midi":65,"time":79.76777737500001,"velocity":0.6299212598425197},{"duration":0.053571375000004195,"midi":61,"time":80.089205625,"velocity":0.6299212598425197},{"duration":0.053571375000004195,"midi":58,"time":80.30349112500001,"velocity":0.6299212598425197},{"duration":0.053571374999989985,"midi":68,"time":80.51777662500001,"velocity":0.6299212598425197},{"duration":0.053571375000004195,"midi":70,"time":80.83920487500001,"velocity":0.6299212598425197},{"duration":0.053571375000004195,"midi":73,"time":81.160633125,"velocity":0.6299212598425197},{"duration":0.053571375000004195,"midi":72,"time":81.482061375,"velocity":0.6299212598425197},{"duration":0.053571374999989985,"midi":68,"time":81.80348962500001,"velocity":0.6299212598425197},{"duration":0.053571375000004195,"midi":65,"time":82.017775125,"velocity":0.6299212598425197},{"duration":0.053571375000018406,"midi":70,"time":137.14272,"velocity":0.6299212598425197},{"duration":0.10714275000000839,"midi":73,"time":137.3570055,"velocity":0.6299212598425197},{"duration":0.10714275000000839,"midi":77,"time":137.571291,"velocity":0.6299212598425197},{"duration":0.10714274999997997,"midi":79,"time":137.78557650000002,"velocity":0.6299212598425197},{"duration":0.053571374999989985,"midi":80,"time":137.94629062500002,"velocity":0.6299212598425197},{"duration":0.21428550000001678,"midi":81,"time":137.999862,"velocity":0.6299212598425197},{"duration":0.053571374999989985,"midi":80,"time":138.267718875,"velocity":0.6299212598425197},{"duration":0.10714275000000839,"midi":79,"time":138.32129025,"velocity":0.6299212598425197},{"duration":0.10714275000000839,"midi":77,"time":138.6427185,"velocity":0.6299212598425197},{"duration":0.10714274999997997,"midi":70,"time":138.85700400000002,"velocity":0.6299212598425197},{"duration":0.053571374999989985,"midi":70,"time":139.01771812500002,"velocity":0.6299212598425197},{"duration":0.10714275000000839,"midi":73,"time":139.0712895,"velocity":0.6299212598425197},{"duration":0.10714274999997997,"midi":77,"time":139.28557500000002,"velocity":0.6299212598425197},{"duration":0.10714275000000839,"midi":79,"time":139.4998605,"velocity":0.6299212598425197},{"duration":0.053571374999989985,"midi":80,"time":139.660574625,"velocity":0.6299212598425197},{"duration":0.21428550000001678,"midi":81,"time":139.714146,"velocity":0.6299212598425197},{"duration":0.053571375000018406,"midi":80,"time":139.982002875,"velocity":0.6299212598425197},{"duration":0.10714274999997997,"midi":79,"time":140.03557425000002,"velocity":0.6299212598425197},{"duration":0.10714274999997997,"midi":81,"time":140.35700250000002,"velocity":0.6299212598425197}]},{"instrument":{"family":"chromatic percussion","number":13,"name":"xylophone"},"notes":[{"duration":0.10714275000000001,"midi":70,"time":0.21428550000000002,"velocity":0.3937007874015748},{"duration":0.10714275000000006,"midi":70,"time":0.53571375,"velocity":0.3937007874015748},{"duration":0.10714274999999995,"midi":70,"time":0.8571420000000001,"velocity":0.3937007874015748},{"duration":0.10714274999999995,"midi":73,"time":1.1785702500000002,"velocity":0.3937007874015748},{"duration":0.10714274999999995,"midi":75,"time":1.4999985000000002,"velocity":0.3937007874015748},{"duration":0.10714274999999995,"midi":70,"time":1.9285695,"velocity":0.3937007874015748},{"duration":0.10714274999999995,"midi":70,"time":2.2499977500000004,"velocity":0.3937007874015748},{"duration":0.10714274999999995,"midi":76,"time":2.571426,"velocity":0.3937007874015748},{"duration":0.1071427500000004,"midi":73,"time":2.89285425,"velocity":0.3937007874015748},{"duration":0.10714274999999995,"midi":75,"time":3.2142825000000004,"velocity":0.3937007874015748},{"duration":0.10714274999999995,"midi":70,"time":3.6428535,"velocity":0.3937007874015748},{"duration":0.10714274999999951,"midi":70,"time":3.9642817500000005,"velocity":0.3937007874015748},{"duration":0.1071427500000004,"midi":70,"time":4.28571,"velocity":0.3937007874015748},{"duration":0.1071427500000004,"midi":73,"time":4.60713825,"velocity":0.3937007874015748},{"duration":0.10714274999999951,"midi":75,"time":4.9285665000000005,"velocity":0.3937007874015748},{"duration":0.1071427500000004,"midi":70,"time":5.3571375,"velocity":0.3937007874015748},{"duration":0.10714274999999951,"midi":70,"time":5.678565750000001,"velocity":0.3937007874015748},{"duration":0.10714274999999951,"midi":68,"time":5.999994000000001,"velocity":0.3937007874015748},{"duration":0.1071427500000004,"midi":69,"time":6.32142225,"velocity":0.3937007874015748},{"duration":0.10714274999999951,"midi":70,"time":6.642850500000001,"velocity":0.3937007874015748},{"duration":0.1071427500000004,"midi":70,"time":7.0714215000000005,"velocity":0.3937007874015748},{"duration":0.1071427500000004,"midi":65,"time":7.0714215000000005,"velocity":0.07874015748031496},{"duration":0.1071427500000004,"midi":58,"time":7.0714215000000005,"velocity":0.3937007874015748},{"duration":0.10714274999999951,"midi":65,"time":7.392849750000001,"velocity":0.07874015748031496},{"duration":0.10714274999999951,"midi":70,"time":7.392849750000001,"velocity":0.3937007874015748},{"duration":0.10714274999999951,"midi":58,"time":7.392849750000001,"velocity":0.3937007874015748},{"duration":0.1071427500000004,"midi":65,"time":7.714278,"velocity":0.07874015748031496},{"duration":0.1071427500000004,"midi":58,"time":7.714278,"velocity":0.3937007874015748},{"duration":0.1071427500000004,"midi":70,"time":7.714278,"velocity":0.3937007874015748},{"duration":0.10714274999999951,"midi":73,"time":8.03570625,"velocity":0.3937007874015748},{"duration":0.10714274999999951,"midi":61,"time":8.03570625,"velocity":0.3937007874015748},{"duration":0.10714274999999951,"midi":68,"time":8.03570625,"velocity":0.07874015748031496},{"duration":0.10714274999999951,"midi":70,"time":8.3571345,"velocity":0.07874015748031496},{"duration":0.10714274999999951,"midi":63,"time":8.3571345,"velocity":0.3937007874015748},{"duration":0.10714274999999951,"midi":75,"time":8.3571345,"velocity":0.3937007874015748},{"duration":0.10714274999999951,"midi":58,"time":8.7857055,"velocity":0.3937007874015748},{"duration":0.10714274999999951,"midi":65,"time":8.7857055,"velocity":0.07874015748031496},{"duration":0.10714274999999951,"midi":70,"time":8.7857055,"velocity":0.3937007874015748},{"duration":0.10714274999999951,"midi":70,"time":9.107133750000001,"velocity":0.3937007874015748},{"duration":0.10714274999999951,"midi":65,"time":9.107133750000001,"velocity":0.07874015748031496},{"duration":0.10714274999999951,"midi":58,"time":9.107133750000001,"velocity":0.3937007874015748},{"duration":0.10714274999999951,"midi":64,"time":9.428562000000001,"velocity":0.3937007874015748},{"duration":0.10714274999999951,"midi":76,"time":9.428562000000001,"velocity":0.3937007874015748},{"duration":0.10714274999999951,"midi":71,"time":9.428562000000001,"velocity":0.07874015748031496},{"duration":0.10714274999999951,"midi":68,"time":9.749990250000002,"velocity":0.07874015748031496},{"duration":0.10714274999999951,"midi":61,"time":9.749990250000002,"velocity":0.3937007874015748},{"duration":0.10714274999999951,"midi":73,"time":9.749990250000002,"velocity":0.3937007874015748},{"duration":0.10714275000000129,"midi":70,"time":10.0714185,"velocity":0.07874015748031496},{"duration":0.10714275000000129,"midi":63,"time":10.0714185,"velocity":0.3937007874015748},{"duration":0.10714275000000129,"midi":75,"time":10.0714185,"velocity":0.3937007874015748},{"duration":0.10714274999999951,"midi":65,"time":10.499989500000002,"velocity":0.07874015748031496},{"duration":0.10714274999999951,"midi":58,"time":10.499989500000002,"velocity":0.3937007874015748},{"duration":0.10714274999999951,"midi":70,"time":10.499989500000002,"velocity":0.3937007874015748},{"duration":0.10714275000000129,"midi":58,"time":10.82141775,"velocity":0.3937007874015748},{"duration":0.10714275000000129,"midi":70,"time":10.82141775,"velocity":0.3937007874015748},{"duration":0.10714275000000129,"midi":65,"time":10.82141775,"velocity":0.07874015748031496},{"duration":0.10714275000000129,"midi":58,"time":11.142846,"velocity":0.3937007874015748},{"duration":0.10714275000000129,"midi":70,"time":11.142846,"velocity":0.3937007874015748},{"duration":0.10714275000000129,"midi":65,"time":11.142846,"velocity":0.07874015748031496},{"duration":0.10714274999999951,"midi":68,"time":11.46427425,"velocity":0.07874015748031496},{"duration":0.10714274999999951,"midi":61,"time":11.46427425,"velocity":0.3937007874015748},{"duration":0.10714274999999951,"midi":73,"time":11.46427425,"velocity":0.3937007874015748},{"duration":0.10714274999999951,"midi":75,"time":11.785702500000001,"velocity":0.3937007874015748},{"duration":0.10714274999999951,"midi":63,"time":11.785702500000001,"velocity":0.3937007874015748},{"duration":0.10714274999999951,"midi":70,"time":11.785702500000001,"velocity":0.07874015748031496},{"duration":0.10714274999999951,"midi":58,"time":12.214273500000001,"velocity":0.3937007874015748},{"duration":0.10714274999999951,"midi":65,"time":12.214273500000001,"velocity":0.07874015748031496},{"duration":0.10714274999999951,"midi":70,"time":12.214273500000001,"velocity":0.3937007874015748},{"duration":0.10714274999999951,"midi":58,"time":12.535701750000001,"velocity":0.3937007874015748},{"duration":0.10714274999999951,"midi":70,"time":12.535701750000001,"velocity":0.3937007874015748},{"duration":0.10714274999999951,"midi":65,"time":12.535701750000001,"velocity":0.07874015748031496},{"duration":0.10714274999999951,"midi":56,"time":12.857130000000002,"velocity":0.3937007874015748},{"duration":0.10714274999999951,"midi":63,"time":12.857130000000002,"velocity":0.07874015748031496},{"duration":0.10714274999999951,"midi":68,"time":12.857130000000002,"velocity":0.3937007874015748},{"duration":0.10714274999999951,"midi":57,"time":13.178558250000002,"velocity":0.3937007874015748},{"duration":0.10714274999999951,"midi":64,"time":13.178558250000002,"velocity":0.07874015748031496},{"duration":0.10714274999999951,"midi":69,"time":13.178558250000002,"velocity":0.3937007874015748},{"duration":0.10714275000000129,"midi":70,"time":13.4999865,"velocity":0.3937007874015748},{"duration":0.10714275000000129,"midi":58,"time":13.4999865,"velocity":0.3937007874015748},{"duration":0.10714275000000129,"midi":65,"time":13.4999865,"velocity":0.07874015748031496},{"duration":0.05357137500000064,"midi":94,"time":19.714266000000002,"velocity":0.3937007874015748},{"duration":0.05357137500000064,"midi":94,"time":19.767837375000003,"velocity":0.3937007874015748},{"duration":0.05357137499999709,"midi":94,"time":19.821408750000003,"velocity":0.3937007874015748},{"duration":0.05357137500000064,"midi":94,"time":19.874980125,"velocity":0.3937007874015748},{"duration":0.05357137500000064,"midi":94,"time":19.9285515,"velocity":0.3937007874015748},{"duration":0.05357137500000064,"midi":94,"time":19.982122875,"velocity":0.3937007874015748},{"duration":0.05357137500000064,"midi":94,"time":20.035694250000002,"velocity":0.3937007874015748},{"duration":0.05357137499999709,"midi":94,"time":20.089265625000003,"velocity":0.3937007874015748},{"duration":0.05357137500000064,"midi":90,"time":20.142837,"velocity":0.3937007874015748},{"duration":0.05357137500000064,"midi":90,"time":20.196408375,"velocity":0.3937007874015748},{"duration":0.05357137500000064,"midi":90,"time":20.24997975,"velocity":0.3937007874015748},{"duration":0.05357137500000064,"midi":90,"time":20.303551125000002,"velocity":0.3937007874015748},{"duration":0.05357137500000064,"midi":90,"time":20.357122500000003,"velocity":0.3937007874015748},{"duration":0.05357137499999709,"midi":90,"time":20.410693875000003,"velocity":0.3937007874015748},{"duration":0.05357137500000064,"midi":90,"time":20.46426525,"velocity":0.3937007874015748},{"duration":0.05357137500000064,"midi":90,"time":20.517836625,"velocity":0.3937007874015748},{"duration":0.10714275000000129,"midi":65,"time":34.4999655,"velocity":0.07874015748031496},{"duration":0.10714275000000129,"midi":70,"time":34.4999655,"velocity":0.3937007874015748},{"duration":0.10714275000000129,"midi":58,"time":34.4999655,"velocity":0.3937007874015748},{"duration":0.10714274999999418,"midi":58,"time":34.821393750000006,"velocity":0.3937007874015748},{"duration":0.10714274999999418,"midi":70,"time":34.821393750000006,"velocity":0.3937007874015748},{"duration":0.10714274999999418,"midi":65,"time":34.821393750000006,"velocity":0.07874015748031496},{"duration":0.10714275000000129,"midi":65,"time":35.142822,"velocity":0.07874015748031496},{"duration":0.10714275000000129,"midi":70,"time":35.142822,"velocity":0.3937007874015748},{"duration":0.10714275000000129,"midi":58,"time":35.142822,"velocity":0.3937007874015748},{"duration":0.10714274999999418,"midi":73,"time":35.464250250000006,"velocity":0.3937007874015748},{"duration":0.10714274999999418,"midi":61,"time":35.464250250000006,"velocity":0.3937007874015748},{"duration":0.10714274999999418,"midi":68,"time":35.464250250000006,"velocity":0.07874015748031496},{"duration":0.10714275000000129,"midi":63,"time":35.7856785,"velocity":0.3937007874015748},{"duration":0.10714275000000129,"midi":70,"time":35.7856785,"velocity":0.07874015748031496},{"duration":0.10714275000000129,"midi":75,"time":35.7856785,"velocity":0.3937007874015748},{"duration":0.10714275000000129,"midi":58,"time":36.2142495,"velocity":0.3937007874015748},{"duration":0.10714275000000129,"midi":65,"time":36.2142495,"velocity":0.07874015748031496},{"duration":0.10714275000000129,"midi":70,"time":36.2142495,"velocity":0.3937007874015748},{"duration":0.10714275000000129,"midi":58,"time":36.535677750000005,"velocity":0.3937007874015748},{"duration":0.10714275000000129,"midi":70,"time":36.535677750000005,"velocity":0.3937007874015748},{"duration":0.10714275000000129,"midi":65,"time":36.535677750000005,"velocity":0.07874015748031496},{"duration":0.10714275000000129,"midi":71,"time":36.857106,"velocity":0.07874015748031496},{"duration":0.10714275000000129,"midi":76,"time":36.857106,"velocity":0.3937007874015748},{"duration":0.10714275000000129,"midi":64,"time":36.857106,"velocity":0.3937007874015748},{"duration":0.10714274999999418,"midi":61,"time":37.178534250000006,"velocity":0.3937007874015748},{"duration":0.10714274999999418,"midi":73,"time":37.178534250000006,"velocity":0.3937007874015748},{"duration":0.10714274999999418,"midi":68,"time":37.178534250000006,"velocity":0.07874015748031496},{"duration":0.10714275000000129,"midi":70,"time":37.4999625,"velocity":0.07874015748031496},{"duration":0.10714275000000129,"midi":75,"time":37.4999625,"velocity":0.3937007874015748},{"duration":0.10714275000000129,"midi":63,"time":37.4999625,"velocity":0.3937007874015748},{"duration":0.10714275000000129,"midi":65,"time":37.9285335,"velocity":0.07874015748031496},{"duration":0.10714275000000129,"midi":58,"time":37.9285335,"velocity":0.3937007874015748},{"duration":0.10714275000000129,"midi":70,"time":37.9285335,"velocity":0.3937007874015748},{"duration":0.10714275000000129,"midi":58,"time":38.249961750000004,"velocity":0.3937007874015748},{"duration":0.10714275000000129,"midi":70,"time":38.249961750000004,"velocity":0.3937007874015748},{"duration":0.10714275000000129,"midi":65,"time":38.249961750000004,"velocity":0.07874015748031496},{"duration":0.10714275000000129,"midi":65,"time":38.57139,"velocity":0.07874015748031496},{"duration":0.10714275000000129,"midi":70,"time":38.57139,"velocity":0.3937007874015748},{"duration":0.10714275000000129,"midi":58,"time":38.57139,"velocity":0.3937007874015748},{"duration":0.10714275000000129,"midi":61,"time":38.892818250000005,"velocity":0.3937007874015748},{"duration":0.10714275000000129,"midi":68,"time":38.892818250000005,"velocity":0.07874015748031496},{"duration":0.10714275000000129,"midi":73,"time":38.892818250000005,"velocity":0.3937007874015748},{"duration":0.10714275000000129,"midi":75,"time":39.2142465,"velocity":0.3937007874015748},{"duration":0.10714275000000129,"midi":63,"time":39.2142465,"velocity":0.3937007874015748},{"duration":0.10714275000000129,"midi":70,"time":39.2142465,"velocity":0.07874015748031496},{"duration":0.10714274999999418,"midi":58,"time":39.64281750000001,"velocity":0.3937007874015748},{"duration":0.10714274999999418,"midi":70,"time":39.64281750000001,"velocity":0.3937007874015748},{"duration":0.10714274999999418,"midi":65,"time":39.64281750000001,"velocity":0.07874015748031496},{"duration":0.10714275000000129,"midi":70,"time":39.96424575,"velocity":0.3937007874015748},{"duration":0.10714275000000129,"midi":65,"time":39.96424575,"velocity":0.07874015748031496},{"duration":0.10714275000000129,"midi":58,"time":39.96424575,"velocity":0.3937007874015748},{"duration":0.10714275000000129,"midi":56,"time":40.285674,"velocity":0.3937007874015748},{"duration":0.10714275000000129,"midi":68,"time":40.285674,"velocity":0.3937007874015748},{"duration":0.10714275000000129,"midi":63,"time":40.285674,"velocity":0.07874015748031496},{"duration":0.10714275000000129,"midi":69,"time":40.607102250000004,"velocity":0.3937007874015748},{"duration":0.10714275000000129,"midi":64,"time":40.607102250000004,"velocity":0.07874015748031496},{"duration":0.10714275000000129,"midi":57,"time":40.607102250000004,"velocity":0.3937007874015748},{"duration":0.10714275000000129,"midi":70,"time":40.9285305,"velocity":0.3937007874015748},{"duration":0.10714275000000129,"midi":65,"time":40.9285305,"velocity":0.07874015748031496},{"duration":0.10714275000000129,"midi":58,"time":40.9285305,"velocity":0.3937007874015748},{"duration":0.10714275000000129,"midi":68,"time":54.857088000000005,"velocity":0.3937007874015748},{"duration":0.10714275000000129,"midi":70,"time":55.17851625,"velocity":0.3937007874015748},{"duration":0.10714275000000129,"midi":63,"time":55.499944500000005,"velocity":0.3937007874015748},{"duration":0.10714275000000129,"midi":65,"time":55.82137275,"velocity":0.3937007874015748},{"duration":0.10714275000000129,"midi":61,"time":56.142801000000006,"velocity":0.3937007874015748},{"duration":0.10714275000000129,"midi":58,"time":56.3570865,"velocity":0.3937007874015748},{"duration":0.10714275000000129,"midi":68,"time":56.571372000000004,"velocity":0.3937007874015748},{"duration":0.10714274999999418,"midi":70,"time":56.89280025000001,"velocity":0.3937007874015748},{"duration":0.10714275000000129,"midi":63,"time":57.214228500000004,"velocity":0.3937007874015748},{"duration":0.10714274999999418,"midi":65,"time":57.53565675000001,"velocity":0.3937007874015748},{"duration":0.10714275000000129,"midi":61,"time":57.857085000000005,"velocity":0.3937007874015748},{"duration":0.10714274999999418,"midi":58,"time":58.07137050000001,"velocity":0.3937007874015748},{"duration":0.10714275000000129,"midi":68,"time":58.285656,"velocity":0.3937007874015748},{"duration":0.10714275000000129,"midi":70,"time":58.60708425000001,"velocity":0.3937007874015748},{"duration":0.10714275000000129,"midi":63,"time":58.928512500000004,"velocity":0.3937007874015748},{"duration":0.10714274999999418,"midi":65,"time":59.24994075000001,"velocity":0.3937007874015748},{"duration":0.10714275000000129,"midi":61,"time":59.571369000000004,"velocity":0.3937007874015748},{"duration":0.10714275000000129,"midi":58,"time":59.78565450000001,"velocity":0.3937007874015748},{"duration":0.10714275000000129,"midi":68,"time":59.99994,"velocity":0.3937007874015748},{"duration":0.10714275000000129,"midi":70,"time":60.321368250000006,"velocity":0.3937007874015748},{"duration":0.10714275000000129,"midi":73,"time":60.6427965,"velocity":0.3937007874015748},{"duration":0.10714275000000129,"midi":72,"time":60.96422475000001,"velocity":0.3937007874015748},{"duration":0.10714275000000129,"midi":68,"time":61.285653,"velocity":0.3937007874015748},{"duration":0.10714275000000129,"midi":65,"time":61.499938500000006,"velocity":0.3937007874015748},{"duration":0.10714275000000129,"midi":68,"time":61.714224,"velocity":0.3937007874015748},{"duration":0.10714275000000129,"midi":70,"time":62.035652250000005,"velocity":0.3937007874015748},{"duration":0.10714275000000129,"midi":63,"time":62.3570805,"velocity":0.3937007874015748},{"duration":0.10714275000000129,"midi":65,"time":62.678508750000006,"velocity":0.3937007874015748},{"duration":0.10714275000000129,"midi":61,"time":62.999937,"velocity":0.3937007874015748},{"duration":0.10714275000000129,"midi":58,"time":63.214222500000005,"velocity":0.3937007874015748},{"duration":0.10714274999999418,"midi":68,"time":63.42850800000001,"velocity":0.3937007874015748},{"duration":0.10714275000000129,"midi":70,"time":63.749936250000005,"velocity":0.3937007874015748},{"duration":0.10714275000000839,"midi":63,"time":64.0713645,"velocity":0.3937007874015748},{"duration":0.10714274999999418,"midi":65,"time":64.39279275000001,"velocity":0.3937007874015748},{"duration":0.10714274999999418,"midi":61,"time":64.71422100000001,"velocity":0.3937007874015748},{"duration":0.10714274999999418,"midi":58,"time":64.92850650000001,"velocity":0.3937007874015748},{"duration":0.10714275000000839,"midi":68,"time":65.142792,"velocity":0.3937007874015748},{"duration":0.10714274999999418,"midi":70,"time":65.46422025000001,"velocity":0.3937007874015748},{"duration":0.10714274999999418,"midi":63,"time":65.78564850000001,"velocity":0.3937007874015748},{"duration":0.10714274999999418,"midi":65,"time":66.10707675,"velocity":0.3937007874015748},{"duration":0.10714275000000839,"midi":61,"time":66.428505,"velocity":0.3937007874015748},{"duration":0.10714275000000839,"midi":58,"time":66.6427905,"velocity":0.3937007874015748},{"duration":0.10714274999999418,"midi":68,"time":66.857076,"velocity":0.3937007874015748},{"duration":0.10714275000000839,"midi":70,"time":67.17850425,"velocity":0.3937007874015748},{"duration":0.10714275000000839,"midi":73,"time":67.4999325,"velocity":0.3937007874015748},{"duration":0.10714274999999418,"midi":72,"time":67.82136075000001,"velocity":0.3937007874015748},{"duration":0.10714274999999418,"midi":68,"time":68.14278900000001,"velocity":0.3937007874015748},{"duration":0.10714274999999418,"midi":65,"time":68.35707450000001,"velocity":0.3937007874015748},{"duration":0.10714275000000839,"midi":68,"time":68.57136,"velocity":0.3937007874015748},{"duration":0.10714274999999418,"midi":70,"time":68.89278825000001,"velocity":0.3937007874015748},{"duration":0.10714274999999418,"midi":63,"time":69.2142165,"velocity":0.3937007874015748},{"duration":0.10714275000000839,"midi":65,"time":69.53564475,"velocity":0.3937007874015748},{"duration":0.10714275000000839,"midi":61,"time":69.857073,"velocity":0.3937007874015748},{"duration":0.10714275000000839,"midi":58,"time":70.0713585,"velocity":0.3937007874015748},{"duration":0.10714274999999418,"midi":68,"time":70.285644,"velocity":0.3937007874015748},{"duration":0.10714275000000839,"midi":70,"time":70.60707225,"velocity":0.3937007874015748},{"duration":0.10714274999999418,"midi":63,"time":70.92850050000001,"velocity":0.3937007874015748},{"duration":0.10714274999999418,"midi":65,"time":71.24992875000001,"velocity":0.3937007874015748},{"duration":0.10714274999999418,"midi":61,"time":71.571357,"velocity":0.3937007874015748},{"duration":0.10714274999999418,"midi":58,"time":71.78564250000001,"velocity":0.3937007874015748},{"duration":0.10714274999999418,"midi":68,"time":71.99992800000001,"velocity":0.3937007874015748},{"duration":0.10714274999999418,"midi":70,"time":72.32135625000001,"velocity":0.3937007874015748},{"duration":0.10714274999999418,"midi":63,"time":72.6427845,"velocity":0.3937007874015748},{"duration":0.10714275000000839,"midi":65,"time":72.96421275,"velocity":0.3937007874015748},{"duration":0.10714274999999418,"midi":61,"time":73.28564100000001,"velocity":0.3937007874015748},{"duration":0.10714275000000839,"midi":58,"time":73.4999265,"velocity":0.3937007874015748},{"duration":0.10714275000000839,"midi":68,"time":73.714212,"velocity":0.3937007874015748},{"duration":0.10714275000000839,"midi":70,"time":74.03564025,"velocity":0.3937007874015748},{"duration":0.10714274999999418,"midi":73,"time":74.35706850000001,"velocity":0.3937007874015748},{"duration":0.10714274999999418,"midi":72,"time":74.67849675000001,"velocity":0.3937007874015748},{"duration":0.10714275000000839,"midi":68,"time":74.999925,"velocity":0.3937007874015748},{"duration":0.10714274999999418,"midi":65,"time":75.21421050000001,"velocity":0.3937007874015748},{"duration":0.10714274999999418,"midi":68,"time":75.42849600000001,"velocity":0.3937007874015748},{"duration":0.10714274999999418,"midi":70,"time":75.74992425,"velocity":0.3937007874015748},{"duration":0.10714275000000839,"midi":63,"time":76.0713525,"velocity":0.3937007874015748},{"duration":0.10714275000000839,"midi":65,"time":76.39278075,"velocity":0.3937007874015748},{"duration":0.10714274999999418,"midi":61,"time":76.71420900000001,"velocity":0.3937007874015748},{"duration":0.10714275000000839,"midi":58,"time":76.9284945,"velocity":0.3937007874015748},{"duration":0.10714275000000839,"midi":68,"time":77.14278,"velocity":0.3937007874015748},{"duration":0.10714274999999418,"midi":70,"time":77.46420825000001,"velocity":0.3937007874015748},{"duration":0.10714274999999418,"midi":63,"time":77.78563650000001,"velocity":0.3937007874015748},{"duration":0.10714274999999418,"midi":65,"time":78.10706475,"velocity":0.3937007874015748},{"duration":0.10714275000000839,"midi":61,"time":78.428493,"velocity":0.3937007874015748},{"duration":0.10714274999999418,"midi":58,"time":78.6427785,"velocity":0.3937007874015748},{"duration":0.10714274999999418,"midi":68,"time":78.85706400000001,"velocity":0.3937007874015748},{"duration":0.10714275000000839,"midi":70,"time":79.17849225,"velocity":0.3937007874015748},{"duration":0.10714275000000839,"midi":63,"time":79.4999205,"velocity":0.3937007874015748},{"duration":0.10714274999999418,"midi":65,"time":79.82134875000001,"velocity":0.3937007874015748},{"duration":0.10714274999999418,"midi":61,"time":80.14277700000001,"velocity":0.3937007874015748},{"duration":0.10714274999999418,"midi":58,"time":80.35706250000001,"velocity":0.3937007874015748},{"duration":0.10714275000000839,"midi":68,"time":80.571348,"velocity":0.3937007874015748},{"duration":0.10714274999999418,"midi":70,"time":80.89277625000001,"velocity":0.3937007874015748},{"duration":0.10714274999999418,"midi":73,"time":81.21420450000001,"velocity":0.3937007874015748},{"duration":0.10714275000000839,"midi":72,"time":81.53563275,"velocity":0.3937007874015748},{"duration":0.10714275000000839,"midi":68,"time":81.857061,"velocity":0.3937007874015748},{"duration":0.10714275000000839,"midi":65,"time":82.0713465,"velocity":0.3937007874015748},{"duration":0.10714275000000839,"midi":70,"time":89.142768,"velocity":0.6692913385826772},{"duration":0.10714274999999418,"midi":77,"time":89.3570535,"velocity":0.15748031496062992},{"duration":0.10714275000000839,"midi":77,"time":89.67848175,"velocity":0.15748031496062992},{"duration":0.10714274999999418,"midi":77,"time":89.99991000000001,"velocity":0.1968503937007874},{"duration":0.10714274999999418,"midi":76,"time":90.10705275000001,"velocity":0.1968503937007874},{"duration":0.10714275000000839,"midi":70,"time":90.2141955,"velocity":0.1968503937007874},{"duration":0.10714274999999418,"midi":73,"time":90.32133825000001,"velocity":0.1968503937007874},{"duration":0.10714275000000839,"midi":80,"time":90.428481,"velocity":0.3937007874015748},{"duration":0.10714274999999418,"midi":70,"time":90.85705200000001,"velocity":0.6692913385826772},{"duration":0.10714274999999418,"midi":77,"time":91.07133750000001,"velocity":0.15748031496062992},{"duration":0.10714274999999418,"midi":77,"time":91.39276575000001,"velocity":0.15748031496062992},{"duration":0.10714275000000839,"midi":77,"time":91.714194,"velocity":0.1968503937007874},{"duration":0.10714274999999418,"midi":76,"time":91.82133675000001,"velocity":0.1968503937007874},{"duration":0.10714274999999418,"midi":70,"time":91.92847950000001,"velocity":0.1968503937007874},{"duration":0.10714275000000839,"midi":73,"time":92.03562225,"velocity":0.1968503937007874},{"duration":0.10714274999999418,"midi":75,"time":92.14276500000001,"velocity":0.3937007874015748},{"duration":0.10714275000000839,"midi":70,"time":92.571336,"velocity":0.6692913385826772},{"duration":0.10714275000000839,"midi":77,"time":92.7856215,"velocity":0.15748031496062992},{"duration":0.10714275000000839,"midi":77,"time":93.10704975,"velocity":0.15748031496062992},{"duration":0.10714274999999418,"midi":77,"time":93.42847800000001,"velocity":0.1968503937007874},{"duration":0.10714274999999418,"midi":76,"time":93.53562075,"velocity":0.1968503937007874},{"duration":0.10714275000000839,"midi":70,"time":93.6427635,"velocity":0.1968503937007874},{"duration":0.10714274999999418,"midi":73,"time":93.74990625000001,"velocity":0.1968503937007874},{"duration":0.10714275000000839,"midi":80,"time":93.857049,"velocity":0.3937007874015748},{"duration":0.10714274999999418,"midi":70,"time":94.28562000000001,"velocity":0.6692913385826772},{"duration":0.10714274999999418,"midi":77,"time":94.49990550000001,"velocity":0.15748031496062992},{"duration":0.10714274999999418,"midi":77,"time":94.82133375000001,"velocity":0.15748031496062992},{"duration":0.10714275000000839,"midi":82,"time":95.142762,"velocity":0.5433070866141733},{"duration":0.10714274999999418,"midi":82,"time":95.24990475000001,"velocity":0.1968503937007874},{"duration":0.10714274999999418,"midi":82,"time":95.35704750000001,"velocity":0.1968503937007874},{"duration":0.10714275000000839,"midi":82,"time":95.46419025,"velocity":0.1968503937007874},{"duration":0.10714274999999418,"midi":78,"time":95.57133300000001,"velocity":0.5433070866141733},{"duration":0.10714275000000839,"midi":78,"time":95.67847575,"velocity":0.1968503937007874},{"duration":0.10714274999999418,"midi":78,"time":95.78561850000001,"velocity":0.1968503937007874},{"duration":0.10714275000000839,"midi":78,"time":95.89276125,"velocity":0.1968503937007874},{"duration":0.10714274999999418,"midi":65,"time":116.78559750000001,"velocity":0.07874015748031496},{"duration":0.10714274999999418,"midi":70,"time":116.78559750000001,"velocity":0.3937007874015748},{"duration":0.10714274999999418,"midi":58,"time":116.78559750000001,"velocity":0.3937007874015748},{"duration":0.10714275000000839,"midi":65,"time":117.10702575,"velocity":0.07874015748031496},{"duration":0.10714275000000839,"midi":70,"time":117.10702575,"velocity":0.3937007874015748},{"duration":0.10714275000000839,"midi":58,"time":117.10702575,"velocity":0.3937007874015748},{"duration":0.10714274999999418,"midi":65,"time":117.42845400000002,"velocity":0.07874015748031496},{"duration":0.10714274999999418,"midi":58,"time":117.42845400000002,"velocity":0.3937007874015748},{"duration":0.10714274999999418,"midi":70,"time":117.42845400000002,"velocity":0.3937007874015748},{"duration":0.10714274999999418,"midi":73,"time":117.74988225000001,"velocity":0.3937007874015748},{"duration":0.10714274999999418,"midi":68,"time":117.74988225000001,"velocity":0.07874015748031496},{"duration":0.10714274999999418,"midi":61,"time":117.74988225000001,"velocity":0.3937007874015748},{"duration":0.10714274999999418,"midi":70,"time":118.07131050000001,"velocity":0.07874015748031496},{"duration":0.10714274999999418,"midi":75,"time":118.07131050000001,"velocity":0.3937007874015748},{"duration":0.10714274999999418,"midi":63,"time":118.07131050000001,"velocity":0.3937007874015748},{"duration":0.10714274999999418,"midi":58,"time":118.49988150000001,"velocity":0.3937007874015748},{"duration":0.10714274999999418,"midi":70,"time":118.49988150000001,"velocity":0.3937007874015748},{"duration":0.10714274999999418,"midi":65,"time":118.49988150000001,"velocity":0.07874015748031496},{"duration":0.10714274999999418,"midi":65,"time":118.82130975000001,"velocity":0.07874015748031496},{"duration":0.10714274999999418,"midi":70,"time":118.82130975000001,"velocity":0.3937007874015748},{"duration":0.10714274999999418,"midi":58,"time":118.82130975000001,"velocity":0.3937007874015748},{"duration":0.10714275000000839,"midi":64,"time":119.14273800000001,"velocity":0.3937007874015748},{"duration":0.10714275000000839,"midi":71,"time":119.14273800000001,"velocity":0.07874015748031496},{"duration":0.10714275000000839,"midi":76,"time":119.14273800000001,"velocity":0.3937007874015748},{"duration":0.10714275000000839,"midi":73,"time":119.46416625,"velocity":0.3937007874015748},{"duration":0.10714275000000839,"midi":61,"time":119.46416625,"velocity":0.3937007874015748},{"duration":0.10714275000000839,"midi":68,"time":119.46416625,"velocity":0.07874015748031496},{"duration":0.10714274999999418,"midi":70,"time":119.78559450000002,"velocity":0.07874015748031496},{"duration":0.10714274999999418,"midi":75,"time":119.78559450000002,"velocity":0.3937007874015748},{"duration":0.10714274999999418,"midi":63,"time":119.78559450000002,"velocity":0.3937007874015748},{"duration":0.10714275000000839,"midi":70,"time":120.21416550000001,"velocity":0.3937007874015748},{"duration":0.10714275000000839,"midi":65,"time":120.21416550000001,"velocity":0.07874015748031496},{"duration":0.10714275000000839,"midi":58,"time":120.21416550000001,"velocity":0.3937007874015748},{"duration":0.10714275000000839,"midi":70,"time":120.53559375,"velocity":0.3937007874015748},{"duration":0.10714275000000839,"midi":58,"time":120.53559375,"velocity":0.3937007874015748},{"duration":0.10714275000000839,"midi":65,"time":120.53559375,"velocity":0.07874015748031496},{"duration":0.10714274999999418,"midi":65,"time":120.85702200000001,"velocity":0.07874015748031496},{"duration":0.10714274999999418,"midi":70,"time":120.85702200000001,"velocity":0.3937007874015748},{"duration":0.10714274999999418,"midi":58,"time":120.85702200000001,"velocity":0.3937007874015748},{"duration":0.10714274999999418,"midi":68,"time":121.17845025000001,"velocity":0.07874015748031496},{"duration":0.10714274999999418,"midi":61,"time":121.17845025000001,"velocity":0.3937007874015748},{"duration":0.10714274999999418,"midi":73,"time":121.17845025000001,"velocity":0.3937007874015748},{"duration":0.10714275000000839,"midi":75,"time":121.49987850000001,"velocity":0.3937007874015748},{"duration":0.10714275000000839,"midi":63,"time":121.49987850000001,"velocity":0.3937007874015748},{"duration":0.10714275000000839,"midi":70,"time":121.49987850000001,"velocity":0.07874015748031496},{"duration":0.10714274999999418,"midi":58,"time":121.92844950000001,"velocity":0.3937007874015748},{"duration":0.10714274999999418,"midi":70,"time":121.92844950000001,"velocity":0.3937007874015748},{"duration":0.10714274999999418,"midi":65,"time":121.92844950000001,"velocity":0.07874015748031496},{"duration":0.10714274999999418,"midi":58,"time":122.24987775000001,"velocity":0.3937007874015748},{"duration":0.10714274999999418,"midi":70,"time":122.24987775000001,"velocity":0.3937007874015748},{"duration":0.10714274999999418,"midi":65,"time":122.24987775000001,"velocity":0.07874015748031496},{"duration":0.10714275000000839,"midi":56,"time":122.571306,"velocity":0.3937007874015748},{"duration":0.10714275000000839,"midi":63,"time":122.571306,"velocity":0.07874015748031496},{"duration":0.10714275000000839,"midi":68,"time":122.571306,"velocity":0.3937007874015748},{"duration":0.10714275000000839,"midi":69,"time":122.89273425,"velocity":0.3937007874015748},{"duration":0.10714275000000839,"midi":64,"time":122.89273425,"velocity":0.07874015748031496},{"duration":0.10714275000000839,"midi":57,"time":122.89273425,"velocity":0.3937007874015748},{"duration":0.10714274999999418,"midi":58,"time":123.21416250000001,"velocity":0.3937007874015748},{"duration":0.10714274999999418,"midi":65,"time":123.21416250000001,"velocity":0.07874015748031496},{"duration":0.10714274999999418,"midi":70,"time":123.21416250000001,"velocity":0.3937007874015748}]},{"instrument":{"family":"strings","number":45,"name":"pizzicato strings"},"notes":[{"duration":1.7142840000000001,"midi":46,"time":0,"velocity":0.11811023622047244},{"duration":1.7142840000000001,"midi":65,"time":0,"velocity":0.3937007874015748},{"duration":1.7142840000000001,"midi":61,"time":0,"velocity":0.3937007874015748},{"duration":1.7142840000000001,"midi":58,"time":0,"velocity":0.3937007874015748},{"duration":1.7142840000000001,"midi":64,"time":1.7142840000000001,"velocity":0.3937007874015748},{"duration":1.7142840000000001,"midi":61,"time":1.7142840000000001,"velocity":0.3937007874015748},{"duration":1.7142840000000001,"midi":46,"time":1.7142840000000001,"velocity":0.11811023622047244},{"duration":1.7142840000000001,"midi":57,"time":1.7142840000000001,"velocity":0.3937007874015748},{"duration":1.7142840000000001,"midi":65,"time":3.4285680000000003,"velocity":0.3937007874015748},{"duration":1.7142840000000001,"midi":58,"time":3.4285680000000003,"velocity":0.3937007874015748},{"duration":1.7142840000000001,"midi":61,"time":3.4285680000000003,"velocity":0.3937007874015748},{"duration":1.7142840000000001,"midi":46,"time":3.4285680000000003,"velocity":0.11811023622047244},{"duration":1.7142840000000001,"midi":64,"time":5.142852,"velocity":0.3937007874015748},{"duration":1.7142840000000001,"midi":68,"time":5.142852,"velocity":0.3937007874015748},{"duration":1.7142840000000001,"midi":61,"time":5.142852,"velocity":0.3937007874015748},{"duration":1.7142840000000001,"midi":46,"time":5.142852,"velocity":0.11811023622047244},{"duration":1.7142839999999993,"midi":46,"time":6.857136000000001,"velocity":0.11811023622047244},{"duration":1.7142839999999993,"midi":58,"time":6.857136000000001,"velocity":0.3937007874015748},{"duration":1.7142839999999993,"midi":61,"time":6.857136000000001,"velocity":0.3937007874015748},{"duration":1.7142839999999993,"midi":65,"time":6.857136000000001,"velocity":0.3937007874015748},{"duration":1.714284000000001,"midi":64,"time":8.57142,"velocity":0.3937007874015748},{"duration":1.714284000000001,"midi":46,"time":8.57142,"velocity":0.11811023622047244},{"duration":1.714284000000001,"midi":57,"time":8.57142,"velocity":0.3937007874015748},{"duration":1.714284000000001,"midi":61,"time":8.57142,"velocity":0.3937007874015748},{"duration":1.714284000000001,"midi":65,"time":10.285704,"velocity":0.3937007874015748},{"duration":1.714284000000001,"midi":58,"time":10.285704,"velocity":0.3937007874015748},{"duration":1.714284000000001,"midi":46,"time":10.285704,"velocity":0.11811023622047244},{"duration":1.714284000000001,"midi":61,"time":10.285704,"velocity":0.3937007874015748},{"duration":1.7142839999999993,"midi":68,"time":11.999988000000002,"velocity":0.3937007874015748},{"duration":1.7142839999999993,"midi":46,"time":11.999988000000002,"velocity":0.11811023622047244},{"duration":1.7142839999999993,"midi":64,"time":11.999988000000002,"velocity":0.3937007874015748},{"duration":1.7142839999999993,"midi":61,"time":11.999988000000002,"velocity":0.3937007874015748},{"duration":1.7142839999999993,"midi":58,"time":27.428544000000002,"velocity":0.3937007874015748},{"duration":1.7142839999999993,"midi":46,"time":27.428544000000002,"velocity":0.11811023622047244},{"duration":1.7142839999999993,"midi":61,"time":27.428544000000002,"velocity":0.3937007874015748},{"duration":1.7142839999999993,"midi":65,"time":27.428544000000002,"velocity":0.3937007874015748},{"duration":1.7142839999999993,"midi":61,"time":29.142828,"velocity":0.3937007874015748},{"duration":1.7142839999999993,"midi":64,"time":29.142828,"velocity":0.3937007874015748},{"duration":1.7142839999999993,"midi":57,"time":29.142828,"velocity":0.3937007874015748},{"duration":1.7142839999999993,"midi":46,"time":29.142828,"velocity":0.11811023622047244},{"duration":1.7142839999999993,"midi":61,"time":30.857112,"velocity":0.3937007874015748},{"duration":1.7142839999999993,"midi":46,"time":30.857112,"velocity":0.11811023622047244},{"duration":1.7142839999999993,"midi":58,"time":30.857112,"velocity":0.3937007874015748},{"duration":1.7142839999999993,"midi":65,"time":30.857112,"velocity":0.3937007874015748},{"duration":1.7142839999999993,"midi":46,"time":32.571396,"velocity":0.11811023622047244},{"duration":1.7142839999999993,"midi":61,"time":32.571396,"velocity":0.3937007874015748},{"duration":1.7142839999999993,"midi":64,"time":32.571396,"velocity":0.3937007874015748},{"duration":1.7142839999999993,"midi":68,"time":32.571396,"velocity":0.3937007874015748},{"duration":1.7142840000000064,"midi":65,"time":34.28568,"velocity":0.3937007874015748},{"duration":1.7142840000000064,"midi":61,"time":34.28568,"velocity":0.3937007874015748},{"duration":1.7142840000000064,"midi":46,"time":34.28568,"velocity":0.11811023622047244},{"duration":1.7142840000000064,"midi":58,"time":34.28568,"velocity":0.3937007874015748},{"duration":1.7142839999999993,"midi":46,"time":35.999964000000006,"velocity":0.11811023622047244},{"duration":1.7142839999999993,"midi":61,"time":35.999964000000006,"velocity":0.3937007874015748},{"duration":1.7142839999999993,"midi":64,"time":35.999964000000006,"velocity":0.3937007874015748},{"duration":1.7142839999999993,"midi":57,"time":35.999964000000006,"velocity":0.3937007874015748},{"duration":1.7142839999999993,"midi":58,"time":37.714248000000005,"velocity":0.3937007874015748},{"duration":1.7142839999999993,"midi":61,"time":37.714248000000005,"velocity":0.3937007874015748},{"duration":1.7142839999999993,"midi":46,"time":37.714248000000005,"velocity":0.11811023622047244},{"duration":1.7142839999999993,"midi":65,"time":37.714248000000005,"velocity":0.3937007874015748},{"duration":1.7142839999999993,"midi":46,"time":39.428532000000004,"velocity":0.11811023622047244},{"duration":1.7142839999999993,"midi":68,"time":39.428532000000004,"velocity":0.3937007874015748},{"duration":1.7142839999999993,"midi":64,"time":39.428532000000004,"velocity":0.3937007874015748},{"duration":1.7142839999999993,"midi":61,"time":39.428532000000004,"velocity":0.3937007874015748},{"duration":0.10714275000000839,"midi":46,"time":107.999892,"velocity":0.3937007874015748},{"duration":0.10714275000000839,"midi":70,"time":107.999892,"velocity":0.3937007874015748},{"duration":0.10714275000000839,"midi":73,"time":108.2141775,"velocity":0.3937007874015748},{"duration":0.10714275000000839,"midi":49,"time":108.2141775,"velocity":0.3937007874015748},{"duration":0.10714275000000839,"midi":53,"time":108.2141775,"velocity":0.3937007874015748},{"duration":0.10714274999999418,"midi":77,"time":108.42846300000001,"velocity":0.3937007874015748},{"duration":0.10714274999999418,"midi":41,"time":108.42846300000001,"velocity":0.3937007874015748},{"duration":0.10714274999999418,"midi":79,"time":108.64274850000001,"velocity":0.3937007874015748},{"duration":0.10714274999999418,"midi":49,"time":108.64274850000001,"velocity":0.3937007874015748},{"duration":0.10714274999999418,"midi":53,"time":108.64274850000001,"velocity":0.3937007874015748},{"duration":0.053571375000004195,"midi":80,"time":108.80346262500001,"velocity":0.3937007874015748},{"duration":0.10714274999999418,"midi":45,"time":108.85703400000001,"velocity":0.3937007874015748},{"duration":0.21428550000000257,"midi":81,"time":108.85703400000001,"velocity":0.3937007874015748},{"duration":0.10714274999999418,"midi":53,"time":109.07131950000002,"velocity":0.3937007874015748},{"duration":0.10714274999999418,"midi":48,"time":109.07131950000002,"velocity":0.3937007874015748},{"duration":0.053571375000004195,"midi":80,"time":109.124890875,"velocity":0.3937007874015748},{"duration":0.10714274999999418,"midi":79,"time":109.17846225000001,"velocity":0.3937007874015748},{"duration":0.10714275000000839,"midi":41,"time":109.285605,"velocity":0.3937007874015748},{"duration":0.10714275000000839,"midi":77,"time":109.4998905,"velocity":0.3937007874015748},{"duration":0.10714275000000839,"midi":48,"time":109.4998905,"velocity":0.3937007874015748},{"duration":0.10714275000000839,"midi":53,"time":109.4998905,"velocity":0.3937007874015748},{"duration":1.7142840000000064,"midi":58,"time":109.71417600000001,"velocity":0.3937007874015748},{"duration":1.7142840000000064,"midi":65,"time":109.71417600000001,"velocity":0.3937007874015748},{"duration":1.7142840000000064,"midi":61,"time":109.71417600000001,"velocity":0.3937007874015748},{"duration":1.7142840000000064,"midi":46,"time":109.71417600000001,"velocity":0.11811023622047244},{"duration":1.7142839999999921,"midi":64,"time":111.42846000000002,"velocity":0.3937007874015748},{"duration":1.7142839999999921,"midi":61,"time":111.42846000000002,"velocity":0.3937007874015748},{"duration":1.7142839999999921,"midi":57,"time":111.42846000000002,"velocity":0.3937007874015748},{"duration":1.7142839999999921,"midi":46,"time":111.42846000000002,"velocity":0.11811023622047244},{"duration":1.7142840000000064,"midi":46,"time":113.14274400000001,"velocity":0.11811023622047244},{"duration":1.7142840000000064,"midi":58,"time":113.14274400000001,"velocity":0.3937007874015748},{"duration":1.7142840000000064,"midi":65,"time":113.14274400000001,"velocity":0.3937007874015748},{"duration":1.7142840000000064,"midi":61,"time":113.14274400000001,"velocity":0.3937007874015748},{"duration":1.7142839999999921,"midi":46,"time":114.85702800000001,"velocity":0.11811023622047244},{"duration":1.7142839999999921,"midi":61,"time":114.85702800000001,"velocity":0.3937007874015748},{"duration":1.7142839999999921,"midi":68,"time":114.85702800000001,"velocity":0.3937007874015748},{"duration":1.7142839999999921,"midi":64,"time":114.85702800000001,"velocity":0.3937007874015748},{"duration":1.7142840000000064,"midi":46,"time":116.571312,"velocity":0.11811023622047244},{"duration":1.7142840000000064,"midi":61,"time":116.571312,"velocity":0.3937007874015748},{"duration":1.7142840000000064,"midi":58,"time":116.571312,"velocity":0.3937007874015748},{"duration":1.7142840000000064,"midi":65,"time":116.571312,"velocity":0.3937007874015748},{"duration":1.7142839999999921,"midi":64,"time":118.28559600000001,"velocity":0.3937007874015748},{"duration":1.7142839999999921,"midi":46,"time":118.28559600000001,"velocity":0.11811023622047244},{"duration":1.7142839999999921,"midi":57,"time":118.28559600000001,"velocity":0.3937007874015748},{"duration":1.7142839999999921,"midi":61,"time":118.28559600000001,"velocity":0.3937007874015748},{"duration":1.7142840000000064,"midi":65,"time":119.99988,"velocity":0.3937007874015748},{"duration":1.7142840000000064,"midi":58,"time":119.99988,"velocity":0.3937007874015748},{"duration":1.7142840000000064,"midi":46,"time":119.99988,"velocity":0.11811023622047244},{"duration":1.7142840000000064,"midi":61,"time":119.99988,"velocity":0.3937007874015748},{"duration":1.6874983124999972,"midi":64,"time":121.71416400000001,"velocity":0.3937007874015748},{"duration":1.6874983124999972,"midi":46,"time":121.71416400000001,"velocity":0.11811023622047244},{"duration":1.6874983124999972,"midi":61,"time":121.71416400000001,"velocity":0.3937007874015748},{"duration":1.6874983124999972,"midi":68,"time":121.71416400000001,"velocity":0.3937007874015748},{"duration":0.18749981250000758,"midi":51,"time":123.428448,"velocity":0.6299212598425197},{"duration":0.18749981249999337,"midi":51,"time":123.74987625000001,"velocity":0.6299212598425197},{"duration":0.18749981249999337,"midi":51,"time":124.07130450000001,"velocity":0.6299212598425197},{"duration":0.18749981249999337,"midi":51,"time":124.28559000000001,"velocity":0.6299212598425197},{"duration":0.18749981249999337,"midi":51,"time":124.60701825000001,"velocity":0.6299212598425197},{"duration":0.18749981250000758,"midi":51,"time":124.9284465,"velocity":0.6299212598425197},{"duration":0.21428550000000257,"midi":51,"time":125.14273200000001,"velocity":0.6299212598425197},{"duration":0.18749981250000758,"midi":51,"time":125.46416025,"velocity":0.6299212598425197},{"duration":0.18749981249999337,"midi":51,"time":125.78558850000002,"velocity":0.6299212598425197},{"duration":0.18749981250000758,"midi":45,"time":125.999874,"velocity":0.6299212598425197},{"duration":0.18749981249999337,"midi":42,"time":126.32130225000002,"velocity":0.6299212598425197},{"duration":0.18749981249999337,"midi":44,"time":126.64273050000001,"velocity":0.6299212598425197},{"duration":0.18749981249999337,"midi":51,"time":126.85701600000002,"velocity":0.6299212598425197},{"duration":0.18749981249999337,"midi":51,"time":127.17844425000001,"velocity":0.6299212598425197},{"duration":0.18749981250000758,"midi":51,"time":127.49987250000001,"velocity":0.6299212598425197},{"duration":0.18749981249999337,"midi":51,"time":127.71415800000001,"velocity":0.6299212598425197},{"duration":0.18749981249999337,"midi":51,"time":128.03558625000002,"velocity":0.6299212598425197},{"duration":0.18749981249999337,"midi":51,"time":128.35701450000002,"velocity":0.6299212598425197},{"duration":0.18749981249999337,"midi":51,"time":128.5713,"velocity":0.6299212598425197},{"duration":0.18749981249999337,"midi":51,"time":128.89272825,"velocity":0.6299212598425197},{"duration":0.1874998125000218,"midi":51,"time":129.2141565,"velocity":0.6299212598425197},{"duration":0.18749981249999337,"midi":45,"time":129.42844200000002,"velocity":0.6299212598425197},{"duration":0.18749981249999337,"midi":42,"time":129.74987025000001,"velocity":0.6299212598425197},{"duration":0.18749981249999337,"midi":44,"time":130.0712985,"velocity":0.6299212598425197},{"duration":0.1874998125000218,"midi":51,"time":130.285584,"velocity":0.6299212598425197},{"duration":0.1874998125000218,"midi":51,"time":130.60701225,"velocity":0.6299212598425197},{"duration":0.18749981249999337,"midi":51,"time":130.92844050000002,"velocity":0.6299212598425197},{"duration":0.18749981249999337,"midi":51,"time":131.142726,"velocity":0.6299212598425197},{"duration":0.18749981249999337,"midi":51,"time":131.46415425,"velocity":0.6299212598425197},{"duration":0.18749981249999337,"midi":51,"time":131.7855825,"velocity":0.6299212598425197},{"duration":0.18749981249999337,"midi":51,"time":131.99986800000002,"velocity":0.6299212598425197},{"duration":0.18749981249999337,"midi":51,"time":132.32129625000002,"velocity":0.6299212598425197},{"duration":0.18749981249999337,"midi":51,"time":132.6427245,"velocity":0.6299212598425197},{"duration":0.1874998125000218,"midi":45,"time":132.85701,"velocity":0.6299212598425197},{"duration":0.1874998125000218,"midi":42,"time":133.17843825,"velocity":0.6299212598425197},{"duration":0.18749981249999337,"midi":44,"time":133.49986650000002,"velocity":0.6299212598425197},{"duration":0.18749981249999337,"midi":51,"time":133.714152,"velocity":0.6299212598425197},{"duration":0.18749981249999337,"midi":51,"time":134.03558025,"velocity":0.6299212598425197},{"duration":0.18749981249999337,"midi":51,"time":134.3570085,"velocity":0.6299212598425197},{"duration":0.18749981249999337,"midi":51,"time":134.57129400000002,"velocity":0.6299212598425197},{"duration":0.18749981249999337,"midi":51,"time":134.89272225000002,"velocity":0.6299212598425197},{"duration":0.18749981249999337,"midi":51,"time":135.21415050000002,"velocity":0.6299212598425197},{"duration":0.18749981249999337,"midi":51,"time":135.428436,"velocity":0.6299212598425197},{"duration":0.18749981249999337,"midi":51,"time":135.64272150000002,"velocity":0.6299212598425197},{"duration":0.18749981249999337,"midi":51,"time":135.857007,"velocity":0.6299212598425197},{"duration":0.1874998125000218,"midi":51,"time":136.0712925,"velocity":0.6299212598425197},{"duration":0.18749981249999337,"midi":51,"time":136.28557800000002,"velocity":0.6299212598425197},{"duration":0.1874998125000218,"midi":51,"time":136.4998635,"velocity":0.6299212598425197},{"duration":0.18749981249999337,"midi":51,"time":136.71414900000002,"velocity":0.6299212598425197},{"duration":0.18749981249999337,"midi":51,"time":136.9284345,"velocity":0.6299212598425197},{"duration":0.10714275000000839,"midi":70,"time":137.14272,"velocity":0.3937007874015748},{"duration":0.10714275000000839,"midi":46,"time":137.14272,"velocity":0.3937007874015748},{"duration":0.10714275000000839,"midi":73,"time":137.3570055,"velocity":0.3937007874015748},{"duration":0.10714275000000839,"midi":49,"time":137.3570055,"velocity":0.3937007874015748},{"duration":0.10714275000000839,"midi":53,"time":137.3570055,"velocity":0.3937007874015748},{"duration":0.10714275000000839,"midi":41,"time":137.571291,"velocity":0.3937007874015748},{"duration":0.10714275000000839,"midi":77,"time":137.571291,"velocity":0.3937007874015748},{"duration":0.10714274999997997,"midi":49,"time":137.78557650000002,"velocity":0.3937007874015748},{"duration":0.10714274999997997,"midi":79,"time":137.78557650000002,"velocity":0.3937007874015748},{"duration":0.10714274999997997,"midi":53,"time":137.78557650000002,"velocity":0.3937007874015748},{"duration":0.053571374999989985,"midi":80,"time":137.94629062500002,"velocity":0.3937007874015748},{"duration":0.21428550000001678,"midi":81,"time":137.999862,"velocity":0.3937007874015748},{"duration":0.10714275000000839,"midi":45,"time":137.999862,"velocity":0.3937007874015748},{"duration":0.10714274999997997,"midi":53,"time":138.21414750000002,"velocity":0.3937007874015748},{"duration":0.10714274999997997,"midi":48,"time":138.21414750000002,"velocity":0.3937007874015748},{"duration":0.053571374999989985,"midi":80,"time":138.267718875,"velocity":0.3937007874015748},{"duration":0.10714275000000839,"midi":79,"time":138.32129025,"velocity":0.3937007874015748},{"duration":0.10714275000000839,"midi":41,"time":138.428433,"velocity":0.3937007874015748},{"duration":0.10714275000000839,"midi":77,"time":138.6427185,"velocity":0.3937007874015748},{"duration":0.10714275000000839,"midi":48,"time":138.6427185,"velocity":0.3937007874015748},{"duration":0.10714275000000839,"midi":53,"time":138.6427185,"velocity":0.3937007874015748},{"duration":0.10714274999997997,"midi":46,"time":138.85700400000002,"velocity":0.3937007874015748},{"duration":0.10714274999997997,"midi":70,"time":138.85700400000002,"velocity":0.3937007874015748},{"duration":0.053571374999989985,"midi":70,"time":139.01771812500002,"velocity":0.3937007874015748},{"duration":0.10714275000000839,"midi":73,"time":139.0712895,"velocity":0.3937007874015748},{"duration":0.10714275000000839,"midi":49,"time":139.0712895,"velocity":0.3937007874015748},{"duration":0.10714275000000839,"midi":53,"time":139.0712895,"velocity":0.3937007874015748},{"duration":0.10714274999997997,"midi":41,"time":139.28557500000002,"velocity":0.3937007874015748},{"duration":0.10714274999997997,"midi":77,"time":139.28557500000002,"velocity":0.3937007874015748},{"duration":0.10714275000000839,"midi":79,"time":139.4998605,"velocity":0.3937007874015748},{"duration":0.10714275000000839,"midi":49,"time":139.4998605,"velocity":0.3937007874015748},{"duration":0.10714275000000839,"midi":53,"time":139.4998605,"velocity":0.3937007874015748},{"duration":0.053571374999989985,"midi":80,"time":139.660574625,"velocity":0.3937007874015748},{"duration":0.21428550000001678,"midi":81,"time":139.714146,"velocity":0.3937007874015748},{"duration":0.10714275000000839,"midi":45,"time":139.714146,"velocity":0.3937007874015748},{"duration":0.10714275000000839,"midi":53,"time":139.92843150000002,"velocity":0.3937007874015748},{"duration":0.10714275000000839,"midi":48,"time":139.92843150000002,"velocity":0.3937007874015748},{"duration":0.053571375000018406,"midi":80,"time":139.982002875,"velocity":0.3937007874015748},{"duration":0.10714274999997997,"midi":79,"time":140.03557425000002,"velocity":0.3937007874015748},{"duration":0.10714275000000839,"midi":41,"time":140.142717,"velocity":0.3937007874015748},{"duration":0.10714274999997997,"midi":81,"time":140.35700250000002,"velocity":0.3937007874015748},{"duration":0.10714274999997997,"midi":49,"time":140.35700250000002,"velocity":0.3937007874015748},{"duration":0.10714274999997997,"midi":45,"time":140.35700250000002,"velocity":0.3937007874015748}]},{"instrument":{"family":"pipe","number":73,"name":"flute"},"notes":[{"duration":1.7946410624999984,"midi":73,"time":54.857088000000005,"velocity":0.7874015748031497},{"duration":1.7946410624999984,"midi":61,"time":54.857088000000005,"velocity":0.7874015748031497},{"duration":1.7946410624999984,"midi":68,"time":54.857088000000005,"velocity":0.7874015748031497},{"duration":0.18749981250000047,"midi":73,"time":56.785657500000006,"velocity":0.7874015748031497},{"duration":0.18749981250000047,"midi":68,"time":56.785657500000006,"velocity":0.7874015748031497},{"duration":0.18749981250000047,"midi":61,"time":56.785657500000006,"velocity":0.7874015748031497},{"duration":0.18749981250000047,"midi":72,"time":56.999943,"velocity":0.7874015748031497},{"duration":0.18749981250000047,"midi":67,"time":56.999943,"velocity":0.7874015748031497},{"duration":0.18749981250000047,"midi":60,"time":56.999943,"velocity":0.7874015748031497},{"duration":0.18749981250000047,"midi":73,"time":57.214228500000004,"velocity":0.7874015748031497},{"duration":0.18749981250000047,"midi":61,"time":57.214228500000004,"velocity":0.7874015748031497},{"duration":0.18749981250000047,"midi":68,"time":57.214228500000004,"velocity":0.7874015748031497},{"duration":0.40178531249999594,"midi":80,"time":57.42851400000001,"velocity":0.7874015748031497},{"duration":0.40178531249999594,"midi":68,"time":57.42851400000001,"velocity":0.7874015748031497},{"duration":0.40178531249999594,"midi":75,"time":57.42851400000001,"velocity":0.7874015748031497},{"duration":0.18749981250000047,"midi":72,"time":57.857085000000005,"velocity":0.7874015748031497},{"duration":0.18749981250000047,"midi":60,"time":57.857085000000005,"velocity":0.7874015748031497},{"duration":0.18749981250000047,"midi":67,"time":57.857085000000005,"velocity":0.7874015748031497},{"duration":1.4732128124999946,"midi":61,"time":58.07137050000001,"velocity":0.7874015748031497},{"duration":1.4732128124999946,"midi":68,"time":58.07137050000001,"velocity":0.7874015748031497},{"duration":1.4732128124999946,"midi":73,"time":58.07137050000001,"velocity":0.7874015748031497},{"duration":0.18749981250000047,"midi":73,"time":60.214225500000005,"velocity":0.7874015748031497},{"duration":0.18749981250000047,"midi":61,"time":60.214225500000005,"velocity":0.7874015748031497},{"duration":0.18749981250000047,"midi":68,"time":60.214225500000005,"velocity":0.7874015748031497},{"duration":0.18749981250000047,"midi":60,"time":60.42851100000001,"velocity":0.7874015748031497},{"duration":0.18749981250000047,"midi":72,"time":60.42851100000001,"velocity":0.7874015748031497},{"duration":0.18749981250000047,"midi":67,"time":60.42851100000001,"velocity":0.7874015748031497},{"duration":0.18749981250000047,"midi":70,"time":60.6427965,"velocity":0.7874015748031497},{"duration":0.18749981250000047,"midi":58,"time":60.6427965,"velocity":0.7874015748031497},{"duration":0.18749981250000047,"midi":65,"time":60.6427965,"velocity":0.7874015748031497},{"duration":0.40178531250000304,"midi":68,"time":60.857082000000005,"velocity":0.7874015748031497},{"duration":0.40178531250000304,"midi":63,"time":60.857082000000005,"velocity":0.7874015748031497},{"duration":0.40178531250000304,"midi":56,"time":60.857082000000005,"velocity":0.7874015748031497},{"duration":0.40178531250000304,"midi":72,"time":61.285653,"velocity":0.7874015748031497},{"duration":0.40178531250000304,"midi":67,"time":61.285653,"velocity":0.7874015748031497},{"duration":0.40178531250000304,"midi":60,"time":61.285653,"velocity":0.7874015748031497},{"duration":0.18749981250000047,"midi":73,"time":61.714224,"velocity":0.7874015748031497},{"duration":0.18749981250000047,"midi":61,"time":61.714224,"velocity":0.7874015748031497},{"duration":0.18749981250000047,"midi":68,"time":61.714224,"velocity":0.7874015748031497},{"duration":0.18749981250000047,"midi":60,"time":61.928509500000004,"velocity":0.7874015748031497},{"duration":0.18749981250000047,"midi":72,"time":61.928509500000004,"velocity":0.7874015748031497},{"duration":0.18749981250000047,"midi":67,"time":61.928509500000004,"velocity":0.7874015748031497},{"duration":0.18749981250000047,"midi":61,"time":62.14279500000001,"velocity":0.7874015748031497},{"duration":0.18749981250000047,"midi":73,"time":62.14279500000001,"velocity":0.7874015748031497},{"duration":0.18749981250000047,"midi":68,"time":62.14279500000001,"velocity":0.7874015748031497},{"duration":0.5089280625000043,"midi":68,"time":62.3570805,"velocity":0.7874015748031497},{"duration":0.5089280625000043,"midi":75,"time":62.3570805,"velocity":0.7874015748031497},{"duration":0.5089280625000043,"midi":80,"time":62.3570805,"velocity":0.7874015748031497},{"duration":0.18749981250000047,"midi":75,"time":62.999937,"velocity":0.7874015748031497},{"duration":0.18749981250000047,"midi":68,"time":62.999937,"velocity":0.7874015748031497},{"duration":0.18749981250000047,"midi":80,"time":62.999937,"velocity":0.7874015748031497},{"duration":0.18749981250000047,"midi":70,"time":63.214222500000005,"velocity":0.7874015748031497},{"duration":0.18749981250000047,"midi":82,"time":63.214222500000005,"velocity":0.7874015748031497},{"duration":0.18749981250000047,"midi":77,"time":63.214222500000005,"velocity":0.7874015748031497},{"duration":0.40178531249999594,"midi":68,"time":63.42850800000001,"velocity":0.7874015748031497},{"duration":0.40178531249999594,"midi":75,"time":63.42850800000001,"velocity":0.7874015748031497},{"duration":0.40178531249999594,"midi":80,"time":63.42850800000001,"velocity":0.7874015748031497},{"duration":0.40178531250000304,"midi":73,"time":63.857079000000006,"velocity":0.7874015748031497},{"duration":0.40178531250000304,"midi":66,"time":63.857079000000006,"velocity":0.7874015748031497},{"duration":0.40178531250000304,"midi":78,"time":63.857079000000006,"velocity":0.7874015748031497},{"duration":0.29464256250000176,"midi":65,"time":64.28565,"velocity":0.7874015748031497},{"duration":0.29464256250000176,"midi":72,"time":64.28565,"velocity":0.7874015748031497},{"duration":0.29464256250000176,"midi":77,"time":64.28565,"velocity":0.7874015748031497},{"duration":0.29464256250000176,"midi":68,"time":64.60707825,"velocity":0.7874015748031497},{"duration":0.29464256250000176,"midi":61,"time":64.60707825,"velocity":0.7874015748031497},{"duration":0.29464256250000176,"midi":73,"time":64.60707825,"velocity":0.7874015748031497},{"duration":1.4732128124999946,"midi":75,"time":64.92850650000001,"velocity":0.7874015748031497},{"duration":1.4732128124999946,"midi":63,"time":64.92850650000001,"velocity":0.7874015748031497},{"duration":1.4732128124999946,"midi":70,"time":64.92850650000001,"velocity":0.7874015748031497},{"duration":0.40178531250001015,"midi":77,"time":66.428505,"velocity":0.7874015748031497},{"duration":0.40178531250001015,"midi":72,"time":66.428505,"velocity":0.7874015748031497},{"duration":0.40178531250001015,"midi":65,"time":66.428505,"velocity":0.7874015748031497},{"duration":0.8303563125000011,"midi":63,"time":66.857076,"velocity":0.7874015748031497},{"duration":0.8303563125000011,"midi":75,"time":66.857076,"velocity":0.7874015748031497},{"duration":0.8303563125000011,"midi":70,"time":66.857076,"velocity":0.7874015748031497},{"duration":0.7232135625000069,"midi":73,"time":67.714218,"velocity":0.7874015748031497},{"duration":0.7232135625000069,"midi":68,"time":67.714218,"velocity":0.7874015748031497},{"duration":0.7232135625000069,"midi":61,"time":67.714218,"velocity":0.7874015748031497},{"duration":1.7946410625000055,"midi":73,"time":68.57136,"velocity":0.7874015748031497},{"duration":1.7946410625000055,"midi":61,"time":68.57136,"velocity":0.7874015748031497},{"duration":1.7946410625000055,"midi":68,"time":68.57136,"velocity":0.7874015748031497},{"duration":0.18749981249999337,"midi":61,"time":70.49992950000001,"velocity":0.7874015748031497},{"duration":0.18749981249999337,"midi":73,"time":70.49992950000001,"velocity":0.7874015748031497},{"duration":0.18749981249999337,"midi":68,"time":70.49992950000001,"velocity":0.7874015748031497},{"duration":0.18749981249999337,"midi":67,"time":70.71421500000001,"velocity":0.7874015748031497},{"duration":0.18749981249999337,"midi":60,"time":70.71421500000001,"velocity":0.7874015748031497},{"duration":0.18749981249999337,"midi":72,"time":70.71421500000001,"velocity":0.7874015748031497},{"duration":0.18749981249999337,"midi":61,"time":70.92850050000001,"velocity":0.7874015748031497},{"duration":0.18749981249999337,"midi":68,"time":70.92850050000001,"velocity":0.7874015748031497},{"duration":0.18749981249999337,"midi":73,"time":70.92850050000001,"velocity":0.7874015748031497},{"duration":0.40178531250001015,"midi":75,"time":71.142786,"velocity":0.7874015748031497},{"duration":0.40178531250001015,"midi":68,"time":71.142786,"velocity":0.7874015748031497},{"duration":0.40178531250001015,"midi":80,"time":71.142786,"velocity":0.7874015748031497},{"duration":0.18749981249999337,"midi":67,"time":71.571357,"velocity":0.7874015748031497},{"duration":0.18749981249999337,"midi":72,"time":71.571357,"velocity":0.7874015748031497},{"duration":0.18749981249999337,"midi":60,"time":71.571357,"velocity":0.7874015748031497},{"duration":1.4732128124999946,"midi":68,"time":71.78564250000001,"velocity":0.7874015748031497},{"duration":1.4732128124999946,"midi":61,"time":71.78564250000001,"velocity":0.7874015748031497},{"duration":1.4732128124999946,"midi":73,"time":71.78564250000001,"velocity":0.7874015748031497},{"duration":0.18749981249999337,"midi":73,"time":73.9284975,"velocity":0.7874015748031497},{"duration":0.18749981249999337,"midi":68,"time":73.9284975,"velocity":0.7874015748031497},{"duration":0.18749981249999337,"midi":61,"time":73.9284975,"velocity":0.7874015748031497},{"duration":0.18749981249999337,"midi":72,"time":74.14278300000001,"velocity":0.7874015748031497},{"duration":0.18749981249999337,"midi":60,"time":74.14278300000001,"velocity":0.7874015748031497},{"duration":0.18749981249999337,"midi":67,"time":74.14278300000001,"velocity":0.7874015748031497},{"duration":0.18749981249999337,"midi":58,"time":74.35706850000001,"velocity":0.7874015748031497},{"duration":0.18749981249999337,"midi":65,"time":74.35706850000001,"velocity":0.7874015748031497},{"duration":0.18749981249999337,"midi":70,"time":74.35706850000001,"velocity":0.7874015748031497},{"duration":0.40178531250001015,"midi":63,"time":74.571354,"velocity":0.7874015748031497},{"duration":0.40178531250001015,"midi":68,"time":74.571354,"velocity":0.7874015748031497},{"duration":0.40178531250001015,"midi":56,"time":74.571354,"velocity":0.7874015748031497},{"duration":0.40178531249999594,"midi":60,"time":74.999925,"velocity":0.7874015748031497},{"duration":0.40178531249999594,"midi":67,"time":74.999925,"velocity":0.7874015748031497},{"duration":0.40178531249999594,"midi":72,"time":74.999925,"velocity":0.7874015748031497},{"duration":0.18749981249999337,"midi":73,"time":75.42849600000001,"velocity":0.7874015748031497},{"duration":0.18749981249999337,"midi":68,"time":75.42849600000001,"velocity":0.7874015748031497},{"duration":0.18749981249999337,"midi":61,"time":75.42849600000001,"velocity":0.7874015748031497},{"duration":0.18749981249999337,"midi":60,"time":75.64278150000001,"velocity":0.7874015748031497},{"duration":0.18749981249999337,"midi":72,"time":75.64278150000001,"velocity":0.7874015748031497},{"duration":0.18749981249999337,"midi":67,"time":75.64278150000001,"velocity":0.7874015748031497},{"duration":0.18749981250000758,"midi":68,"time":75.857067,"velocity":0.7874015748031497},{"duration":0.18749981250000758,"midi":61,"time":75.857067,"velocity":0.7874015748031497},{"duration":0.18749981250000758,"midi":73,"time":75.857067,"velocity":0.7874015748031497},{"duration":0.5089280625000043,"midi":80,"time":76.0713525,"velocity":0.7874015748031497},{"duration":0.5089280625000043,"midi":68,"time":76.0713525,"velocity":0.7874015748031497},{"duration":0.5089280625000043,"midi":75,"time":76.0713525,"velocity":0.7874015748031497},{"duration":0.18749981249999337,"midi":68,"time":76.71420900000001,"velocity":0.7874015748031497},{"duration":0.18749981249999337,"midi":75,"time":76.71420900000001,"velocity":0.7874015748031497},{"duration":0.18749981249999337,"midi":80,"time":76.71420900000001,"velocity":0.7874015748031497},{"duration":0.18749981250000758,"midi":77,"time":76.9284945,"velocity":0.7874015748031497},{"duration":0.18749981250000758,"midi":70,"time":76.9284945,"velocity":0.7874015748031497},{"duration":0.18749981250000758,"midi":82,"time":76.9284945,"velocity":0.7874015748031497},{"duration":0.40178531250001015,"midi":68,"time":77.14278,"velocity":0.7874015748031497},{"duration":0.40178531250001015,"midi":80,"time":77.14278,"velocity":0.7874015748031497},{"duration":0.40178531250001015,"midi":75,"time":77.14278,"velocity":0.7874015748031497},{"duration":0.40178531249999594,"midi":66,"time":77.571351,"velocity":0.7874015748031497},{"duration":0.40178531249999594,"midi":73,"time":77.571351,"velocity":0.7874015748031497},{"duration":0.40178531249999594,"midi":78,"time":77.571351,"velocity":0.7874015748031497},{"duration":0.29464256249998755,"midi":77,"time":77.99992200000001,"velocity":0.7874015748031497},{"duration":0.29464256249998755,"midi":65,"time":77.99992200000001,"velocity":0.7874015748031497},{"duration":0.29464256249998755,"midi":72,"time":77.99992200000001,"velocity":0.7874015748031497},{"duration":0.29464256250000176,"midi":73,"time":78.32135025000001,"velocity":0.7874015748031497},{"duration":0.29464256250000176,"midi":68,"time":78.32135025000001,"velocity":0.7874015748031497},{"duration":0.29464256250000176,"midi":61,"time":78.32135025000001,"velocity":0.7874015748031497},{"duration":1.4732128124999946,"midi":75,"time":78.6427785,"velocity":0.7874015748031497},{"duration":1.4732128124999946,"midi":63,"time":78.6427785,"velocity":0.7874015748031497},{"duration":1.4732128124999946,"midi":70,"time":78.6427785,"velocity":0.7874015748031497},{"duration":0.40178531249999594,"midi":77,"time":80.14277700000001,"velocity":0.7874015748031497},{"duration":0.40178531249999594,"midi":72,"time":80.14277700000001,"velocity":0.7874015748031497},{"duration":0.40178531249999594,"midi":65,"time":80.14277700000001,"velocity":0.7874015748031497},{"duration":0.8303563125000011,"midi":70,"time":80.571348,"velocity":0.7874015748031497},{"duration":0.8303563125000011,"midi":75,"time":80.571348,"velocity":0.7874015748031497},{"duration":0.8303563125000011,"midi":63,"time":80.571348,"velocity":0.7874015748031497},{"duration":0.7232135624999927,"midi":73,"time":81.42849000000001,"velocity":0.7874015748031497},{"duration":0.7232135624999927,"midi":61,"time":81.42849000000001,"velocity":0.7874015748031497},{"duration":0.7232135624999927,"midi":68,"time":81.42849000000001,"velocity":0.7874015748031497},{"duration":0.10714275000000839,"midi":63,"time":123.6427335,"velocity":0.7874015748031497},{"duration":0.10714275000000839,"midi":51,"time":123.6427335,"velocity":0.7874015748031497},{"duration":0.21428550000000257,"midi":51,"time":123.74987625000001,"velocity":0.7874015748031497},{"duration":0.21428550000000257,"midi":63,"time":123.74987625000001,"velocity":0.7874015748031497},{"duration":0.21428549999998836,"midi":63,"time":123.96416175000002,"velocity":0.7874015748031497},{"duration":0.21428549999998836,"midi":51,"time":123.96416175000002,"velocity":0.7874015748031497},{"duration":0.32142824999999675,"midi":51,"time":124.28559000000001,"velocity":0.7874015748031497},{"duration":0.32142824999999675,"midi":63,"time":124.28559000000001,"velocity":0.7874015748031497},{"duration":0.32142824999999675,"midi":66,"time":124.60701825000001,"velocity":0.7874015748031497},{"duration":0.32142824999999675,"midi":54,"time":124.60701825000001,"velocity":0.7874015748031497},{"duration":0.21428550000000257,"midi":56,"time":124.9284465,"velocity":0.7874015748031497},{"duration":0.21428550000000257,"midi":68,"time":124.9284465,"velocity":0.7874015748031497},{"duration":0.10714274999999418,"midi":51,"time":125.35701750000001,"velocity":0.7874015748031497},{"duration":0.10714274999999418,"midi":63,"time":125.35701750000001,"velocity":0.7874015748031497},{"duration":0.21428550000000257,"midi":51,"time":125.46416025,"velocity":0.7874015748031497},{"duration":0.21428550000000257,"midi":63,"time":125.46416025,"velocity":0.7874015748031497},{"duration":0.21428550000000257,"midi":63,"time":125.67844575000001,"velocity":0.7874015748031497},{"duration":0.21428550000000257,"midi":51,"time":125.67844575000001,"velocity":0.7874015748031497},{"duration":0.32142825000001096,"midi":57,"time":125.999874,"velocity":0.7874015748031497},{"duration":0.32142825000001096,"midi":69,"time":125.999874,"velocity":0.7874015748031497},{"duration":0.32142824999999675,"midi":54,"time":126.32130225000002,"velocity":0.7874015748031497},{"duration":0.32142824999999675,"midi":66,"time":126.32130225000002,"velocity":0.7874015748031497},{"duration":0.21428550000000257,"midi":56,"time":126.64273050000001,"velocity":0.7874015748031497},{"duration":0.21428550000000257,"midi":68,"time":126.64273050000001,"velocity":0.7874015748031497},{"duration":0.10714275000000839,"midi":51,"time":127.0713015,"velocity":0.7874015748031497},{"duration":0.10714275000000839,"midi":63,"time":127.0713015,"velocity":0.7874015748031497},{"duration":0.21428550000000257,"midi":63,"time":127.17844425000001,"velocity":0.7874015748031497},{"duration":0.21428550000000257,"midi":51,"time":127.17844425000001,"velocity":0.7874015748031497},{"duration":0.21428549999998836,"midi":51,"time":127.39272975000002,"velocity":0.7874015748031497},{"duration":0.21428549999998836,"midi":63,"time":127.39272975000002,"velocity":0.7874015748031497},{"duration":0.32142825000001096,"midi":51,"time":127.71415800000001,"velocity":0.7874015748031497},{"duration":0.32142825000001096,"midi":63,"time":127.71415800000001,"velocity":0.7874015748031497},{"duration":0.32142824999999675,"midi":66,"time":128.03558625000002,"velocity":0.7874015748031497},{"duration":0.32142824999999675,"midi":54,"time":128.03558625000002,"velocity":0.7874015748031497},{"duration":0.21428549999998836,"midi":68,"time":128.35701450000002,"velocity":0.7874015748031497},{"duration":0.21428549999998836,"midi":56,"time":128.35701450000002,"velocity":0.7874015748031497},{"duration":0.21428550000001678,"midi":59,"time":128.5713,"velocity":0.7874015748031497},{"duration":0.21428550000001678,"midi":71,"time":128.5713,"velocity":0.7874015748031497},{"duration":0.21428550000001678,"midi":66,"time":128.89272825,"velocity":0.7874015748031497},{"duration":0.21428550000001678,"midi":54,"time":128.89272825,"velocity":0.7874015748031497},{"duration":0.21428550000001678,"midi":73,"time":129.2141565,"velocity":0.7874015748031497},{"duration":0.21428550000001678,"midi":61,"time":129.2141565,"velocity":0.7874015748031497},{"duration":0.10714274999997997,"midi":66,"time":129.42844200000002,"velocity":0.7874015748031497},{"duration":0.10714274999997997,"midi":54,"time":129.42844200000002,"velocity":0.7874015748031497},{"duration":0.026785687499994992,"midi":66,"time":129.6427275,"velocity":0.7874015748031497},{"duration":0.026785687499994992,"midi":54,"time":129.6427275,"velocity":0.7874015748031497},{"duration":0.026785687500023414,"midi":66,"time":129.696298875,"velocity":0.7874015748031497},{"duration":0.026785687500023414,"midi":54,"time":129.696298875,"velocity":0.7874015748031497},{"duration":0.026785687499994992,"midi":66,"time":129.74987025000001,"velocity":0.7874015748031497},{"duration":0.026785687499994992,"midi":54,"time":129.74987025000001,"velocity":0.7874015748031497},{"duration":0.026785687499994992,"midi":54,"time":129.803441625,"velocity":0.7874015748031497},{"duration":0.026785687499994992,"midi":66,"time":129.803441625,"velocity":0.7874015748031497},{"duration":0.10714274999997997,"midi":53,"time":129.85701300000002,"velocity":0.7874015748031497},{"duration":0.10714274999997997,"midi":65,"time":129.85701300000002,"velocity":0.7874015748031497},{"duration":0.10714275000000839,"midi":61,"time":130.0712985,"velocity":0.7874015748031497},{"duration":0.10714275000000839,"midi":49,"time":130.0712985,"velocity":0.7874015748031497},{"duration":0.10714274999997997,"midi":63,"time":130.49986950000002,"velocity":0.7874015748031497},{"duration":0.10714274999997997,"midi":51,"time":130.49986950000002,"velocity":0.7874015748031497},{"duration":0.21428550000001678,"midi":63,"time":130.60701225,"velocity":0.7874015748031497},{"duration":0.21428550000001678,"midi":51,"time":130.60701225,"velocity":0.7874015748031497},{"duration":0.21428549999998836,"midi":63,"time":130.82129775,"velocity":0.7874015748031497},{"duration":0.21428549999998836,"midi":51,"time":130.82129775,"velocity":0.7874015748031497},{"duration":0.32142824999999675,"midi":63,"time":131.142726,"velocity":0.7874015748031497},{"duration":0.32142824999999675,"midi":51,"time":131.142726,"velocity":0.7874015748031497},{"duration":0.32142824999999675,"midi":66,"time":131.46415425,"velocity":0.7874015748031497},{"duration":0.32142824999999675,"midi":54,"time":131.46415425,"velocity":0.7874015748031497},{"duration":0.21428550000001678,"midi":56,"time":131.7855825,"velocity":0.7874015748031497},{"duration":0.21428550000001678,"midi":68,"time":131.7855825,"velocity":0.7874015748031497},{"duration":0.10714275000000839,"midi":63,"time":132.2141535,"velocity":0.7874015748031497},{"duration":0.10714275000000839,"midi":51,"time":132.2141535,"velocity":0.7874015748031497},{"duration":0.21428549999998836,"midi":63,"time":132.32129625000002,"velocity":0.7874015748031497},{"duration":0.21428549999998836,"midi":51,"time":132.32129625000002,"velocity":0.7874015748031497},{"duration":0.21428550000001678,"midi":51,"time":132.53558175,"velocity":0.7874015748031497},{"duration":0.21428550000001678,"midi":63,"time":132.53558175,"velocity":0.7874015748031497},{"duration":0.32142824999999675,"midi":57,"time":132.85701,"velocity":0.7874015748031497},{"duration":0.32142824999999675,"midi":69,"time":132.85701,"velocity":0.7874015748031497},{"duration":0.3214282500000252,"midi":54,"time":133.17843825,"velocity":0.7874015748031497},{"duration":0.3214282500000252,"midi":66,"time":133.17843825,"velocity":0.7874015748031497},{"duration":0.21428549999998836,"midi":56,"time":133.49986650000002,"velocity":0.7874015748031497},{"duration":0.21428549999998836,"midi":68,"time":133.49986650000002,"velocity":0.7874015748031497},{"duration":0.10714275000000839,"midi":63,"time":133.9284375,"velocity":0.7874015748031497},{"duration":0.10714275000000839,"midi":51,"time":133.9284375,"velocity":0.7874015748031497},{"duration":0.21428549999998836,"midi":63,"time":134.03558025,"velocity":0.7874015748031497},{"duration":0.21428549999998836,"midi":51,"time":134.03558025,"velocity":0.7874015748031497},{"duration":0.21428550000001678,"midi":63,"time":134.24986575,"velocity":0.7874015748031497},{"duration":0.21428550000001678,"midi":51,"time":134.24986575,"velocity":0.7874015748031497},{"duration":0.32142824999999675,"midi":63,"time":134.57129400000002,"velocity":0.7874015748031497},{"duration":0.32142824999999675,"midi":51,"time":134.57129400000002,"velocity":0.7874015748031497},{"duration":0.32142824999999675,"midi":54,"time":134.89272225000002,"velocity":0.7874015748031497},{"duration":0.32142824999999675,"midi":66,"time":134.89272225000002,"velocity":0.7874015748031497},{"duration":0.21428549999998836,"midi":56,"time":135.21415050000002,"velocity":0.7874015748031497},{"duration":0.21428549999998836,"midi":68,"time":135.21415050000002,"velocity":0.7874015748031497},{"duration":0.21428550000001678,"midi":69,"time":135.428436,"velocity":0.7874015748031497},{"duration":0.21428550000001678,"midi":57,"time":135.428436,"velocity":0.7874015748031497},{"duration":0.21428549999998836,"midi":69,"time":135.64272150000002,"velocity":0.7874015748031497},{"duration":0.21428549999998836,"midi":57,"time":135.64272150000002,"velocity":0.7874015748031497},{"duration":0.21428549999998836,"midi":69,"time":135.857007,"velocity":0.7874015748031497},{"duration":0.21428549999998836,"midi":57,"time":135.857007,"velocity":0.7874015748031497},{"duration":0.21428550000001678,"midi":57,"time":136.0712925,"velocity":0.7874015748031497},{"duration":0.21428550000001678,"midi":69,"time":136.0712925,"velocity":0.7874015748031497},{"duration":0.21428549999998836,"midi":57,"time":136.28557800000002,"velocity":0.7874015748031497},{"duration":0.21428549999998836,"midi":69,"time":136.28557800000002,"velocity":0.7874015748031497},{"duration":0.21428550000001678,"midi":57,"time":136.4998635,"velocity":0.7874015748031497},{"duration":0.21428550000001678,"midi":69,"time":136.4998635,"velocity":0.7874015748031497},{"duration":0.21428549999998836,"midi":69,"time":136.71414900000002,"velocity":0.7874015748031497},{"duration":0.21428549999998836,"midi":57,"time":136.71414900000002,"velocity":0.7874015748031497},{"duration":0.21428549999998836,"midi":69,"time":136.9284345,"velocity":0.7874015748031497},{"duration":0.21428549999998836,"midi":57,"time":136.9284345,"velocity":0.7874015748031497}]},{"instrument":{"family":"reed","number":64,"name":"soprano sax"},"notes":[{"duration":0.10714275000000001,"midi":46,"time":0,"velocity":0.3937007874015748},{"duration":0.10714275000000018,"midi":46,"time":1.0714275,"velocity":0.3937007874015748},{"duration":0.10714274999999995,"midi":46,"time":1.7142840000000001,"velocity":0.3937007874015748},{"duration":0.10714274999999995,"midi":46,"time":2.7857115,"velocity":0.3937007874015748},{"duration":0.10714274999999995,"midi":46,"time":3.4285680000000003,"velocity":0.3937007874015748},{"duration":0.10714274999999951,"midi":46,"time":4.499995500000001,"velocity":0.3937007874015748},{"duration":0.1071427500000004,"midi":46,"time":5.142852,"velocity":0.3937007874015748},{"duration":0.10714274999999951,"midi":46,"time":6.214279500000001,"velocity":0.3937007874015748},{"duration":0.1071427500000004,"midi":46,"time":6.857136000000001,"velocity":0.3937007874015748},{"duration":0.10714274999999951,"midi":46,"time":7.928563500000001,"velocity":0.3937007874015748},{"duration":0.10714275000000129,"midi":46,"time":8.57142,"velocity":0.3937007874015748},{"duration":0.10714275000000129,"midi":46,"time":9.6428475,"velocity":0.3937007874015748},{"duration":0.10714274999999951,"midi":46,"time":10.285704,"velocity":0.3937007874015748},{"duration":0.10714274999999951,"midi":46,"time":11.357131500000001,"velocity":0.3937007874015748},{"duration":0.10714274999999951,"midi":46,"time":11.999988000000002,"velocity":0.3937007874015748},{"duration":0.10714275000000129,"midi":46,"time":13.0714155,"velocity":0.3937007874015748},{"duration":0.10714274999999951,"midi":58,"time":13.714272000000001,"velocity":0.3937007874015748},{"duration":0.10714274999999951,"midi":65,"time":13.928557500000002,"velocity":0.3937007874015748},{"duration":0.10714275000000129,"midi":65,"time":14.24998575,"velocity":0.3937007874015748},{"duration":0.05357137500000064,"midi":65,"time":14.571414,"velocity":0.3937007874015748},{"duration":0.05357137500000064,"midi":68,"time":14.624985375000001,"velocity":0.3937007874015748},{"duration":0.053571374999998866,"midi":64,"time":14.678556750000002,"velocity":0.3937007874015748},{"duration":0.05357137500000064,"midi":61,"time":14.732128125000001,"velocity":0.3937007874015748},{"duration":0.10714274999999951,"midi":58,"time":14.785699500000002,"velocity":0.3937007874015748},{"duration":0.10714274999999951,"midi":61,"time":14.892842250000001,"velocity":0.3937007874015748},{"duration":0.10714275000000129,"midi":68,"time":14.999985,"velocity":0.3937007874015748},{"duration":0.10714275000000129,"midi":58,"time":15.428556,"velocity":0.3937007874015748},{"duration":0.10714274999999951,"midi":65,"time":15.642841500000001,"velocity":0.3937007874015748},{"duration":0.10714274999999951,"midi":65,"time":15.964269750000001,"velocity":0.3937007874015748},{"duration":0.026785687499998545,"midi":63,"time":16.232126625000003,"velocity":0.3937007874015748},{"duration":0.026785687499998545,"midi":64,"time":16.2589123125,"velocity":0.3937007874015748},{"duration":0.05357137500000064,"midi":65,"time":16.285698,"velocity":0.3937007874015748},{"duration":0.05357137500000064,"midi":64,"time":16.39284075,"velocity":0.3937007874015748},{"duration":0.05357137500000064,"midi":61,"time":16.446412125000002,"velocity":0.3937007874015748},{"duration":0.10714274999999773,"midi":58,"time":16.499983500000003,"velocity":0.3937007874015748},{"duration":0.10714275000000129,"midi":61,"time":16.60712625,"velocity":0.3937007874015748},{"duration":0.10714275000000129,"midi":63,"time":16.714269,"velocity":0.3937007874015748},{"duration":0.10714275000000129,"midi":58,"time":17.14284,"velocity":0.3937007874015748},{"duration":0.10714274999999773,"midi":65,"time":17.357125500000002,"velocity":0.3937007874015748},{"duration":0.10714274999999773,"midi":65,"time":17.678553750000003,"velocity":0.3937007874015748},{"duration":0.05357137499999709,"midi":65,"time":17.999982000000003,"velocity":0.3937007874015748},{"duration":0.05357137500000064,"midi":68,"time":18.053553375,"velocity":0.3937007874015748},{"duration":0.05357137500000064,"midi":64,"time":18.10712475,"velocity":0.3937007874015748},{"duration":0.05357137500000064,"midi":61,"time":18.160696125,"velocity":0.3937007874015748},{"duration":0.10714275000000129,"midi":58,"time":18.214267500000002,"velocity":0.3937007874015748},{"duration":0.10714274999999773,"midi":61,"time":18.321410250000003,"velocity":0.3937007874015748},{"duration":0.10714275000000129,"midi":68,"time":18.428553,"velocity":0.3937007874015748},{"duration":0.10714274999999773,"midi":58,"time":18.857124000000002,"velocity":0.3937007874015748},{"duration":0.10714275000000129,"midi":65,"time":19.0714095,"velocity":0.3937007874015748},{"duration":0.10714275000000129,"midi":65,"time":19.39283775,"velocity":0.3937007874015748},{"duration":0.05357137500000064,"midi":70,"time":19.714266000000002,"velocity":0.3937007874015748},{"duration":0.05357137500000064,"midi":70,"time":19.714266000000002,"velocity":0.1968503937007874},{"duration":0.05357137500000064,"midi":70,"time":19.767837375000003,"velocity":0.23622047244094488},{"duration":0.05357137500000064,"midi":70,"time":19.767837375000003,"velocity":0.03937007874015748},{"duration":0.05357137499999709,"midi":70,"time":19.821408750000003,"velocity":0.1968503937007874},{"duration":0.05357137499999709,"midi":70,"time":19.821408750000003,"velocity":0.3937007874015748},{"duration":0.05357137500000064,"midi":70,"time":19.874980125,"velocity":0.03937007874015748},{"duration":0.05357137500000064,"midi":70,"time":19.874980125,"velocity":0.23622047244094488},{"duration":0.05357137500000064,"midi":70,"time":19.9285515,"velocity":0.3937007874015748},{"duration":0.05357137500000064,"midi":70,"time":19.9285515,"velocity":0.1968503937007874},{"duration":0.05357137500000064,"midi":70,"time":19.982122875,"velocity":0.03937007874015748},{"duration":0.05357137500000064,"midi":70,"time":19.982122875,"velocity":0.23622047244094488},{"duration":0.05357137500000064,"midi":70,"time":20.035694250000002,"velocity":0.3937007874015748},{"duration":0.05357137500000064,"midi":70,"time":20.035694250000002,"velocity":0.1968503937007874},{"duration":0.05357137499999709,"midi":70,"time":20.089265625000003,"velocity":0.23622047244094488},{"duration":0.05357137499999709,"midi":70,"time":20.089265625000003,"velocity":0.03937007874015748},{"duration":0.05357137500000064,"midi":66,"time":20.142837,"velocity":0.3937007874015748},{"duration":0.05357137500000064,"midi":66,"time":20.142837,"velocity":0.1968503937007874},{"duration":0.05357137500000064,"midi":66,"time":20.196408375,"velocity":0.23622047244094488},{"duration":0.05357137500000064,"midi":66,"time":20.196408375,"velocity":0.03937007874015748},{"duration":0.05357137500000064,"midi":66,"time":20.24997975,"velocity":0.3937007874015748},{"duration":0.05357137500000064,"midi":66,"time":20.24997975,"velocity":0.1968503937007874},{"duration":0.05357137500000064,"midi":66,"time":20.303551125000002,"velocity":0.23622047244094488},{"duration":0.05357137500000064,"midi":66,"time":20.303551125000002,"velocity":0.03937007874015748},{"duration":0.05357137500000064,"midi":66,"time":20.357122500000003,"velocity":0.1968503937007874},{"duration":0.05357137500000064,"midi":66,"time":20.357122500000003,"velocity":0.3937007874015748},{"duration":0.05357137499999709,"midi":66,"time":20.410693875000003,"velocity":0.23622047244094488},{"duration":0.05357137499999709,"midi":66,"time":20.410693875000003,"velocity":0.03937007874015748},{"duration":0.05357137500000064,"midi":66,"time":20.46426525,"velocity":0.1968503937007874},{"duration":0.05357137500000064,"midi":66,"time":20.46426525,"velocity":0.3937007874015748},{"duration":0.05357137500000064,"midi":66,"time":20.517836625,"velocity":0.23622047244094488},{"duration":0.05357137500000064,"midi":66,"time":20.517836625,"velocity":0.03937007874015748},{"duration":0.21428549999999902,"midi":58,"time":20.571408,"velocity":0.3937007874015748},{"duration":0.10714275000000129,"midi":65,"time":20.7856935,"velocity":0.3937007874015748},{"duration":0.10714275000000129,"midi":65,"time":21.10712175,"velocity":0.3937007874015748},{"duration":0.05357137500000064,"midi":65,"time":21.42855,"velocity":0.3937007874015748},{"duration":0.05357137500000064,"midi":68,"time":21.482121375000002,"velocity":0.3937007874015748},{"duration":0.05357137500000064,"midi":64,"time":21.535692750000003,"velocity":0.3937007874015748},{"duration":0.05357137499999709,"midi":61,"time":21.589264125000003,"velocity":0.3937007874015748},{"duration":0.10714275000000129,"midi":58,"time":21.6428355,"velocity":0.3937007874015748},{"duration":0.10714275000000129,"midi":61,"time":21.74997825,"velocity":0.3937007874015748},{"duration":0.21428549999999902,"midi":68,"time":21.857121000000003,"velocity":0.3937007874015748},{"duration":0.21428550000000257,"midi":58,"time":22.285692,"velocity":0.3937007874015748},{"duration":0.10714274999999773,"midi":65,"time":22.499977500000004,"velocity":0.3937007874015748},{"duration":0.10714275000000129,"midi":65,"time":22.82140575,"velocity":0.3937007874015748},{"duration":0.026785687499998545,"midi":63,"time":23.089262625000003,"velocity":0.3937007874015748},{"duration":0.026785687499998545,"midi":64,"time":23.116048312500002,"velocity":0.3937007874015748},{"duration":0.05357137500000064,"midi":65,"time":23.142834,"velocity":0.3937007874015748},{"duration":0.05357137500000064,"midi":64,"time":23.249976750000002,"velocity":0.3937007874015748},{"duration":0.05357137500000064,"midi":61,"time":23.303548125000002,"velocity":0.3937007874015748},{"duration":0.10714274999999773,"midi":58,"time":23.357119500000003,"velocity":0.3937007874015748},{"duration":0.10714275000000129,"midi":61,"time":23.46426225,"velocity":0.3937007874015748},{"duration":0.21428549999999902,"midi":63,"time":23.571405000000002,"velocity":0.3937007874015748},{"duration":0.21428549999999902,"midi":58,"time":23.999976000000004,"velocity":0.3937007874015748},{"duration":0.10714274999999773,"midi":65,"time":24.214261500000003,"velocity":0.3937007874015748},{"duration":0.10714274999999773,"midi":65,"time":24.535689750000003,"velocity":0.3937007874015748},{"duration":0.05357137499999709,"midi":65,"time":24.857118000000003,"velocity":0.3937007874015748},{"duration":0.05357137500000064,"midi":68,"time":24.910689375,"velocity":0.3937007874015748},{"duration":0.05357137500000064,"midi":64,"time":24.96426075,"velocity":0.3937007874015748},{"duration":0.05357137500000064,"midi":61,"time":25.017832125,"velocity":0.3937007874015748},{"duration":0.10714275000000129,"midi":58,"time":25.071403500000002,"velocity":0.3937007874015748},{"duration":0.10714274999999773,"midi":61,"time":25.178546250000004,"velocity":0.3937007874015748},{"duration":0.21428549999999902,"midi":68,"time":25.285689,"velocity":0.3937007874015748},{"duration":0.21428549999999902,"midi":58,"time":25.714260000000003,"velocity":0.3937007874015748},{"duration":0.10714275000000129,"midi":65,"time":25.928545500000002,"velocity":0.3937007874015748},{"duration":0.10714275000000129,"midi":65,"time":26.249973750000002,"velocity":0.3937007874015748},{"duration":0.05357137500000064,"midi":70,"time":26.571402000000003,"velocity":0.3937007874015748},{"duration":0.05357137500000064,"midi":70,"time":26.624973375000003,"velocity":0.23622047244094488},{"duration":0.05357137499999709,"midi":70,"time":26.678544750000004,"velocity":0.3937007874015748},{"duration":0.05357137500000064,"midi":70,"time":26.732116125,"velocity":0.23622047244094488},{"duration":0.05357137500000064,"midi":70,"time":26.7856875,"velocity":0.3937007874015748},{"duration":0.05357137500000064,"midi":70,"time":26.839258875000002,"velocity":0.23622047244094488},{"duration":0.05357137500000064,"midi":70,"time":26.892830250000003,"velocity":0.3937007874015748},{"duration":0.05357137499999709,"midi":70,"time":26.946401625000004,"velocity":0.23622047244094488},{"duration":0.05357137500000064,"midi":66,"time":26.999973,"velocity":0.3937007874015748},{"duration":0.05357137500000064,"midi":66,"time":27.053544375,"velocity":0.23622047244094488},{"duration":0.05357137500000064,"midi":66,"time":27.107115750000002,"velocity":0.3937007874015748},{"duration":0.05357137500000064,"midi":66,"time":27.160687125000003,"velocity":0.23622047244094488},{"duration":0.05357137500000064,"midi":66,"time":27.214258500000003,"velocity":0.3937007874015748},{"duration":0.05357137499999709,"midi":66,"time":27.267829875000004,"velocity":0.23622047244094488},{"duration":0.05357137500000064,"midi":66,"time":27.32140125,"velocity":0.3937007874015748},{"duration":0.05357137500000064,"midi":66,"time":27.374972625,"velocity":0.23622047244094488},{"duration":0.10714275000000129,"midi":46,"time":27.428544000000002,"velocity":0.3937007874015748},{"duration":0.10714275000000129,"midi":46,"time":28.4999715,"velocity":0.3937007874015748},{"duration":0.10714275000000129,"midi":46,"time":29.142828,"velocity":0.3937007874015748},{"duration":0.10714274999999773,"midi":46,"time":30.214255500000004,"velocity":0.3937007874015748},{"duration":0.10714275000000129,"midi":46,"time":30.857112,"velocity":0.3937007874015748},{"duration":0.10714274999999773,"midi":46,"time":31.928539500000003,"velocity":0.3937007874015748},{"duration":0.10714275000000129,"midi":46,"time":32.571396,"velocity":0.3937007874015748},{"duration":0.10714274999999418,"midi":46,"time":33.642823500000006,"velocity":0.3937007874015748},{"duration":0.10714275000000129,"midi":46,"time":34.28568,"velocity":0.3937007874015748},{"duration":0.10714275000000129,"midi":46,"time":35.357107500000005,"velocity":0.3937007874015748},{"duration":0.10714274999999418,"midi":46,"time":35.999964000000006,"velocity":0.3937007874015748},{"duration":0.10714275000000129,"midi":46,"time":37.071391500000004,"velocity":0.3937007874015748},{"duration":0.10714275000000129,"midi":46,"time":37.714248000000005,"velocity":0.3937007874015748},{"duration":0.10714275000000129,"midi":46,"time":38.7856755,"velocity":0.3937007874015748},{"duration":0.10714275000000129,"midi":46,"time":39.428532000000004,"velocity":0.3937007874015748},{"duration":0.10714275000000129,"midi":46,"time":40.4999595,"velocity":0.3937007874015748},{"duration":0.10714275000000129,"midi":58,"time":41.142816,"velocity":0.3937007874015748},{"duration":0.10714274999999418,"midi":65,"time":41.357101500000006,"velocity":0.3937007874015748},{"duration":0.10714275000000129,"midi":65,"time":41.67852975,"velocity":0.3937007874015748},{"duration":0.10714274999999418,"midi":61,"time":41.99995800000001,"velocity":0.3937007874015748},{"duration":0.10714275000000129,"midi":68,"time":42.2142435,"velocity":0.3937007874015748},{"duration":0.10714274999999418,"midi":68,"time":42.535671750000006,"velocity":0.3937007874015748},{"duration":0.10714275000000129,"midi":60,"time":42.8571,"velocity":0.3937007874015748},{"duration":0.10714275000000129,"midi":67,"time":43.071385500000005,"velocity":0.3937007874015748},{"duration":0.10714275000000129,"midi":67,"time":43.39281375,"velocity":0.3937007874015748},{"duration":0.10714275000000129,"midi":64,"time":43.714242000000006,"velocity":0.3937007874015748},{"duration":0.10714275000000129,"midi":71,"time":43.9285275,"velocity":0.3937007874015748},{"duration":0.10714275000000129,"midi":71,"time":44.249955750000005,"velocity":0.3937007874015748},{"duration":0.10714274999999418,"midi":58,"time":47.99995200000001,"velocity":0.3937007874015748},{"duration":0.10714275000000129,"midi":65,"time":48.2142375,"velocity":0.3937007874015748},{"duration":0.10714274999999418,"midi":65,"time":48.53566575000001,"velocity":0.3937007874015748},{"duration":0.10714275000000129,"midi":61,"time":48.857094000000004,"velocity":0.3937007874015748},{"duration":0.10714275000000129,"midi":68,"time":49.071379500000006,"velocity":0.3937007874015748},{"duration":0.10714275000000129,"midi":68,"time":49.39280775,"velocity":0.3937007874015748},{"duration":0.10714274999999418,"midi":60,"time":49.71423600000001,"velocity":0.3937007874015748},{"duration":0.10714275000000129,"midi":67,"time":49.9285215,"velocity":0.3937007874015748},{"duration":0.10714275000000129,"midi":67,"time":50.249949750000006,"velocity":0.3937007874015748},{"duration":0.10714275000000129,"midi":64,"time":50.571378,"velocity":0.3937007874015748},{"duration":0.10714275000000129,"midi":71,"time":50.785663500000005,"velocity":0.3937007874015748},{"duration":0.10714275000000129,"midi":71,"time":51.10709175,"velocity":0.3937007874015748},{"duration":0.10714274999999418,"midi":58,"time":82.285632,"velocity":0.3937007874015748},{"duration":0.10714274999999418,"midi":65,"time":82.49991750000001,"velocity":0.3937007874015748},{"duration":0.10714274999999418,"midi":65,"time":82.82134575,"velocity":0.3937007874015748},{"duration":0.053571375000004195,"midi":65,"time":83.142774,"velocity":0.3937007874015748},{"duration":0.053571375000004195,"midi":68,"time":83.196345375,"velocity":0.15748031496062992},{"duration":0.053571374999989985,"midi":64,"time":83.24991675000001,"velocity":0.3937007874015748},{"duration":0.053571375000004195,"midi":61,"time":83.303488125,"velocity":0.15748031496062992},{"duration":0.10714275000000839,"midi":58,"time":83.3570595,"velocity":0.3937007874015748},{"duration":0.10714274999999418,"midi":61,"time":83.46420225000001,"velocity":0.3937007874015748},{"duration":0.10714274999999418,"midi":68,"time":83.57134500000001,"velocity":0.3937007874015748},{"duration":0.10714274999999418,"midi":58,"time":83.99991600000001,"velocity":0.3937007874015748},{"duration":0.10714275000000839,"midi":65,"time":84.2142015,"velocity":0.3937007874015748},{"duration":0.10714274999999418,"midi":65,"time":84.53562975000001,"velocity":0.3937007874015748},{"duration":0.013392843750011707,"midi":63,"time":84.8302723125,"velocity":0.15748031496062992},{"duration":0.013392843749997496,"midi":64,"time":84.84366515625001,"velocity":0.15748031496062992},{"duration":0.053571375000004195,"midi":65,"time":84.85705800000001,"velocity":0.3937007874015748},{"duration":0.053571374999989985,"midi":68,"time":84.91062937500001,"velocity":0.15748031496062992},{"duration":0.053571375000004195,"midi":64,"time":84.96420075,"velocity":0.3937007874015748},{"duration":0.053571375000004195,"midi":61,"time":85.01777212500001,"velocity":0.15748031496062992},{"duration":0.10714274999999418,"midi":58,"time":85.07134350000001,"velocity":0.3937007874015748},{"duration":0.10714274999999418,"midi":61,"time":85.17848625,"velocity":0.3937007874015748},{"duration":0.10714275000000839,"midi":63,"time":85.285629,"velocity":0.3937007874015748},{"duration":0.10714275000000839,"midi":58,"time":85.7142,"velocity":0.3937007874015748},{"duration":0.10714274999999418,"midi":65,"time":85.92848550000001,"velocity":0.3937007874015748},{"duration":0.10714275000000839,"midi":65,"time":86.24991375,"velocity":0.3937007874015748},{"duration":0.053571375000004195,"midi":65,"time":86.571342,"velocity":0.3937007874015748},{"duration":0.053571375000004195,"midi":68,"time":86.624913375,"velocity":0.15748031496062992},{"duration":0.053571375000004195,"midi":64,"time":86.67848475000001,"velocity":0.3937007874015748},{"duration":0.053571374999989985,"midi":61,"time":86.73205612500001,"velocity":0.15748031496062992},{"duration":0.10714275000000839,"midi":58,"time":86.7856275,"velocity":0.3937007874015748},{"duration":0.10714274999999418,"midi":61,"time":86.89277025000001,"velocity":0.3937007874015748},{"duration":0.10714274999999418,"midi":68,"time":86.999913,"velocity":0.3937007874015748},{"duration":0.10714274999999418,"midi":70,"time":87.42848400000001,"velocity":0.3937007874015748},{"duration":0.10714274999999418,"midi":72,"time":87.64276950000001,"velocity":0.3937007874015748},{"duration":0.10714274999999418,"midi":66,"time":87.74991225000001,"velocity":0.3937007874015748},{"duration":0.10714274999999418,"midi":72,"time":87.96419775000001,"velocity":0.3937007874015748},{"duration":0.10714275000000839,"midi":63,"time":88.0713405,"velocity":0.3937007874015748},{"duration":0.10714274999999418,"midi":68,"time":88.28562600000001,"velocity":0.3937007874015748},{"duration":0.10714274999999418,"midi":72,"time":88.49991150000001,"velocity":0.3937007874015748},{"duration":0.10714275000000839,"midi":64,"time":88.60705425,"velocity":0.3937007874015748},{"duration":0.053571374999989985,"midi":66,"time":88.71419700000001,"velocity":0.3937007874015748},{"duration":0.053571375000004195,"midi":64,"time":88.767768375,"velocity":0.3937007874015748},{"duration":0.053571375000004195,"midi":62,"time":88.82133975,"velocity":0.3937007874015748},{"duration":0.053571374999989985,"midi":60,"time":88.87491112500001,"velocity":0.3937007874015748},{"duration":0.10714275000000839,"midi":58,"time":88.9284825,"velocity":0.3937007874015748},{"duration":0.10714274999999418,"midi":56,"time":89.03562525000001,"velocity":0.3937007874015748},{"duration":0.10714275000000839,"midi":58,"time":89.142768,"velocity":0.3937007874015748},{"duration":0.10714274999999418,"midi":65,"time":89.3570535,"velocity":0.3937007874015748},{"duration":0.10714275000000839,"midi":65,"time":89.67848175,"velocity":0.3937007874015748},{"duration":0.053571374999989985,"midi":65,"time":89.99991000000001,"velocity":0.3937007874015748},{"duration":0.053571375000004195,"midi":68,"time":90.053481375,"velocity":0.15748031496062992},{"duration":0.053571375000004195,"midi":64,"time":90.10705275000001,"velocity":0.3937007874015748},{"duration":0.053571374999989985,"midi":61,"time":90.16062412500001,"velocity":0.15748031496062992},{"duration":0.10714275000000839,"midi":58,"time":90.2141955,"velocity":0.3937007874015748},{"duration":0.10714274999999418,"midi":61,"time":90.32133825000001,"velocity":0.3937007874015748},{"duration":0.10714275000000839,"midi":68,"time":90.428481,"velocity":0.3937007874015748},{"duration":0.10714274999999418,"midi":70,"time":90.85705200000001,"velocity":0.3937007874015748},{"duration":0.10714274999999418,"midi":73,"time":91.07133750000001,"velocity":0.3937007874015748},{"duration":0.10714275000000839,"midi":69,"time":91.285623,"velocity":0.3937007874015748},{"duration":0.10714274999999418,"midi":65,"time":91.39276575000001,"velocity":0.3937007874015748},{"duration":0.10714275000000839,"midi":72,"time":91.4999085,"velocity":0.3937007874015748},{"duration":0.10714275000000839,"midi":68,"time":91.714194,"velocity":0.3937007874015748},{"duration":0.10714274999999418,"midi":64,"time":91.82133675000001,"velocity":0.3937007874015748},{"duration":0.10714274999999418,"midi":71,"time":91.92847950000001,"velocity":0.3937007874015748},{"duration":0.10714274999999418,"midi":65,"time":92.14276500000001,"velocity":0.3937007874015748},{"duration":0.10714274999999418,"midi":68,"time":92.35705050000001,"velocity":0.3937007874015748},{"duration":0.10714275000000839,"midi":70,"time":92.571336,"velocity":0.3937007874015748},{"duration":0.10714275000000839,"midi":77,"time":92.7856215,"velocity":0.3937007874015748},{"duration":0.10714274999999418,"midi":77,"time":92.99990700000001,"velocity":0.3937007874015748},{"duration":0.10714275000000839,"midi":76,"time":93.10704975,"velocity":0.3937007874015748},{"duration":0.10714275000000839,"midi":75,"time":93.32133525,"velocity":0.3937007874015748},{"duration":0.10714274999999418,"midi":73,"time":93.42847800000001,"velocity":0.3937007874015748},{"duration":0.10714275000000839,"midi":68,"time":93.6427635,"velocity":0.3937007874015748},{"duration":0.10714274999999418,"midi":80,"time":93.74990625000001,"velocity":0.3937007874015748},{"duration":0.10714274999999418,"midi":65,"time":93.96419175000001,"velocity":0.3937007874015748},{"duration":0.10714275000000839,"midi":73,"time":94.0713345,"velocity":0.3937007874015748},{"duration":0.10714274999999418,"midi":70,"time":94.28562000000001,"velocity":0.3937007874015748},{"duration":0.10714274999999418,"midi":72,"time":94.49990550000001,"velocity":0.3937007874015748},{"duration":0.10714275000000839,"midi":66,"time":94.60704825,"velocity":0.3937007874015748},{"duration":0.10714274999999418,"midi":72,"time":94.82133375000001,"velocity":0.3937007874015748},{"duration":0.10714275000000839,"midi":63,"time":94.9284765,"velocity":0.3937007874015748},{"duration":0.10714275000000839,"midi":68,"time":95.142762,"velocity":0.3937007874015748},{"duration":0.10714274999999418,"midi":72,"time":95.35704750000001,"velocity":0.3937007874015748},{"duration":0.10714275000000839,"midi":64,"time":95.46419025,"velocity":0.3937007874015748},{"duration":0.053571375000004195,"midi":66,"time":95.57133300000001,"velocity":0.3937007874015748},{"duration":0.053571374999989985,"midi":64,"time":95.62490437500001,"velocity":0.3937007874015748},{"duration":0.053571375000004195,"midi":62,"time":95.67847575,"velocity":0.3937007874015748},{"duration":0.053571375000004195,"midi":60,"time":95.73204712500001,"velocity":0.3937007874015748},{"duration":0.10714274999999418,"midi":58,"time":95.78561850000001,"velocity":0.3937007874015748},{"duration":0.10714275000000839,"midi":56,"time":95.89276125,"velocity":0.3937007874015748},{"duration":0.10714274999999418,"midi":61,"time":95.99990400000002,"velocity":0.3937007874015748},{"duration":0.10714274999999418,"midi":64,"time":95.99990400000002,"velocity":0.3937007874015748},{"duration":0.10714275000000839,"midi":60,"time":96.428475,"velocity":0.3937007874015748},{"duration":0.10714275000000839,"midi":63,"time":96.428475,"velocity":0.3937007874015748},{"duration":0.10714274999999418,"midi":61,"time":96.85704600000001,"velocity":0.3937007874015748},{"duration":0.10714274999999418,"midi":58,"time":96.85704600000001,"velocity":0.3937007874015748},{"duration":0.10714275000000839,"midi":63,"time":96.96418875,"velocity":0.3937007874015748},{"duration":0.10714275000000839,"midi":60,"time":96.96418875,"velocity":0.3937007874015748},{"duration":0.10714274999999418,"midi":58,"time":97.17847425000001,"velocity":0.3937007874015748},{"duration":0.10714274999999418,"midi":53,"time":97.17847425000001,"velocity":0.3937007874015748},{"duration":0.10714274999999418,"midi":56,"time":97.39275975000001,"velocity":0.3937007874015748},{"duration":0.10714274999999418,"midi":53,"time":97.39275975000001,"velocity":0.3937007874015748},{"duration":0.10714275000000839,"midi":57,"time":97.4999025,"velocity":0.3937007874015748},{"duration":0.10714275000000839,"midi":54,"time":97.4999025,"velocity":0.3937007874015748},{"duration":0.10714274999999418,"midi":58,"time":97.60704525000001,"velocity":0.3937007874015748},{"duration":0.10714274999999418,"midi":55,"time":97.60704525000001,"velocity":0.3937007874015748},{"duration":0.10714274999999418,"midi":61,"time":97.71418800000001,"velocity":0.3937007874015748},{"duration":0.10714274999999418,"midi":64,"time":97.71418800000001,"velocity":0.3937007874015748},{"duration":0.10714274999999418,"midi":63,"time":98.14275900000001,"velocity":0.3937007874015748},{"duration":0.10714274999999418,"midi":60,"time":98.14275900000001,"velocity":0.3937007874015748},{"duration":0.10714275000000839,"midi":58,"time":98.57133,"velocity":0.3937007874015748},{"duration":0.10714275000000839,"midi":61,"time":98.57133,"velocity":0.3937007874015748},{"duration":0.10714274999999418,"midi":63,"time":98.67847275000001,"velocity":0.3937007874015748},{"duration":0.10714274999999418,"midi":60,"time":98.67847275000001,"velocity":0.3937007874015748},{"duration":0.10714274999999418,"midi":64,"time":98.89275825000001,"velocity":0.3937007874015748},{"duration":0.10714274999999418,"midi":68,"time":98.89275825000001,"velocity":0.3937007874015748},{"duration":0.10714275000000839,"midi":64,"time":99.10704375,"velocity":0.3937007874015748},{"duration":0.10714275000000839,"midi":68,"time":99.10704375,"velocity":0.3937007874015748},{"duration":0.10714274999999418,"midi":64,"time":99.21418650000001,"velocity":0.3937007874015748},{"duration":0.10714274999999418,"midi":68,"time":99.21418650000001,"velocity":0.3937007874015748},{"duration":0.10714275000000839,"midi":64,"time":99.32132925,"velocity":0.3937007874015748},{"duration":0.10714275000000839,"midi":68,"time":99.32132925,"velocity":0.3937007874015748},{"duration":0.10714274999999418,"midi":64,"time":99.42847200000001,"velocity":0.3937007874015748},{"duration":0.10714274999999418,"midi":61,"time":99.42847200000001,"velocity":0.3937007874015748},{"duration":0.10714275000000839,"midi":60,"time":99.857043,"velocity":0.3937007874015748},{"duration":0.10714275000000839,"midi":63,"time":99.857043,"velocity":0.3937007874015748},{"duration":0.10714274999999418,"midi":61,"time":100.28561400000001,"velocity":0.3937007874015748},{"duration":0.10714274999999418,"midi":58,"time":100.28561400000001,"velocity":0.3937007874015748},{"duration":0.10714275000000839,"midi":63,"time":100.39275675,"velocity":0.3937007874015748},{"duration":0.10714275000000839,"midi":60,"time":100.39275675,"velocity":0.3937007874015748},{"duration":0.10714275000000839,"midi":58,"time":100.60704225,"velocity":0.3937007874015748},{"duration":0.10714275000000839,"midi":53,"time":100.60704225,"velocity":0.3937007874015748},{"duration":0.10714274999999418,"midi":53,"time":100.82132775000001,"velocity":0.3937007874015748},{"duration":0.10714274999999418,"midi":56,"time":100.82132775000001,"velocity":0.3937007874015748},{"duration":0.10714275000000839,"midi":57,"time":100.9284705,"velocity":0.3937007874015748},{"duration":0.10714275000000839,"midi":54,"time":100.9284705,"velocity":0.3937007874015748},{"duration":0.10714274999999418,"midi":58,"time":101.03561325000001,"velocity":0.3937007874015748},{"duration":0.10714274999999418,"midi":55,"time":101.03561325000001,"velocity":0.3937007874015748},{"duration":0.07142849999999612,"midi":61,"time":101.142756,"velocity":0.3937007874015748},{"duration":0.07142849999999612,"midi":64,"time":101.142756,"velocity":0.3937007874015748},{"duration":0.07142849999999612,"midi":64,"time":101.28561300000001,"velocity":0.23622047244094488},{"duration":0.07142849999999612,"midi":61,"time":101.28561300000001,"velocity":0.23622047244094488},{"duration":0.07142849999999612,"midi":65,"time":101.35704150000001,"velocity":0.3937007874015748},{"duration":0.07142849999999612,"midi":68,"time":101.35704150000001,"velocity":0.3937007874015748},{"duration":0.07142849999999612,"midi":65,"time":101.49989850000001,"velocity":0.23622047244094488},{"duration":0.07142849999999612,"midi":68,"time":101.49989850000001,"velocity":0.23622047244094488},{"duration":0.07142849999999612,"midi":60,"time":101.57132700000001,"velocity":0.3937007874015748},{"duration":0.07142849999999612,"midi":63,"time":101.57132700000001,"velocity":0.3937007874015748},{"duration":0.07142849999999612,"midi":63,"time":101.71418400000002,"velocity":0.23622047244094488},{"duration":0.07142849999999612,"midi":60,"time":101.71418400000002,"velocity":0.23622047244094488},{"duration":0.07142849999999612,"midi":64,"time":101.78561250000001,"velocity":0.3937007874015748},{"duration":0.07142849999999612,"midi":67,"time":101.78561250000001,"velocity":0.3937007874015748},{"duration":0.07142849999999612,"midi":64,"time":101.9284695,"velocity":0.23622047244094488},{"duration":0.07142849999999612,"midi":67,"time":101.9284695,"velocity":0.23622047244094488},{"duration":0.07142849999999612,"midi":59,"time":101.999898,"velocity":0.3937007874015748},{"duration":0.07142849999999612,"midi":62,"time":101.999898,"velocity":0.3937007874015748},{"duration":0.07142849999999612,"midi":59,"time":102.14275500000001,"velocity":0.23622047244094488},{"duration":0.07142849999999612,"midi":62,"time":102.14275500000001,"velocity":0.23622047244094488},{"duration":0.07142849999999612,"midi":63,"time":102.2141835,"velocity":0.3937007874015748},{"duration":0.07142849999999612,"midi":66,"time":102.2141835,"velocity":0.3937007874015748},{"duration":0.07142849999999612,"midi":66,"time":102.35704050000001,"velocity":0.23622047244094488},{"duration":0.07142849999999612,"midi":63,"time":102.35704050000001,"velocity":0.23622047244094488},{"duration":0.07142849999999612,"midi":57,"time":102.428469,"velocity":0.3937007874015748},{"duration":0.07142849999999612,"midi":60,"time":102.428469,"velocity":0.3937007874015748},{"duration":0.07142849999999612,"midi":60,"time":102.57132600000001,"velocity":0.23622047244094488},{"duration":0.07142849999999612,"midi":57,"time":102.57132600000001,"velocity":0.23622047244094488},{"duration":0.07142849999999612,"midi":60,"time":102.64275450000001,"velocity":0.3937007874015748},{"duration":0.07142849999999612,"midi":63,"time":102.64275450000001,"velocity":0.3937007874015748},{"duration":0.07142849999999612,"midi":63,"time":102.78561150000002,"velocity":0.23622047244094488},{"duration":0.07142849999999612,"midi":60,"time":102.78561150000002,"velocity":0.23622047244094488},{"duration":0.10714274999999418,"midi":61,"time":102.85704000000001,"velocity":0.3937007874015748},{"duration":0.10714274999999418,"midi":64,"time":102.85704000000001,"velocity":0.3937007874015748},{"duration":0.10714275000000839,"midi":60,"time":103.285611,"velocity":0.3937007874015748},{"duration":0.10714275000000839,"midi":63,"time":103.285611,"velocity":0.3937007874015748},{"duration":0.10714274999999418,"midi":58,"time":103.71418200000001,"velocity":0.3937007874015748},{"duration":0.10714274999999418,"midi":61,"time":103.71418200000001,"velocity":0.3937007874015748},{"duration":0.10714275000000839,"midi":60,"time":103.82132475,"velocity":0.3937007874015748},{"duration":0.10714275000000839,"midi":63,"time":103.82132475,"velocity":0.3937007874015748},{"duration":0.10714275000000839,"midi":58,"time":104.03561025,"velocity":0.3937007874015748},{"duration":0.10714275000000839,"midi":53,"time":104.03561025,"velocity":0.3937007874015748},{"duration":0.10714274999999418,"midi":56,"time":104.24989575000001,"velocity":0.3937007874015748},{"duration":0.10714274999999418,"midi":53,"time":104.24989575000001,"velocity":0.3937007874015748},{"duration":0.10714275000000839,"midi":54,"time":104.3570385,"velocity":0.3937007874015748},{"duration":0.10714275000000839,"midi":57,"time":104.3570385,"velocity":0.3937007874015748},{"duration":0.10714274999999418,"midi":55,"time":104.46418125000001,"velocity":0.3937007874015748},{"duration":0.10714274999999418,"midi":58,"time":104.46418125000001,"velocity":0.3937007874015748},{"duration":0.10714275000000839,"midi":61,"time":104.571324,"velocity":0.3937007874015748},{"duration":0.10714275000000839,"midi":64,"time":104.571324,"velocity":0.3937007874015748},{"duration":0.10714274999999418,"midi":63,"time":104.99989500000001,"velocity":0.3937007874015748},{"duration":0.10714274999999418,"midi":60,"time":104.99989500000001,"velocity":0.3937007874015748},{"duration":0.10714274999999418,"midi":58,"time":105.42846600000001,"velocity":0.3937007874015748},{"duration":0.10714274999999418,"midi":61,"time":105.42846600000001,"velocity":0.3937007874015748},{"duration":0.10714274999999418,"midi":63,"time":105.53560875000001,"velocity":0.3937007874015748},{"duration":0.10714274999999418,"midi":60,"time":105.53560875000001,"velocity":0.3937007874015748},{"duration":0.10714274999999418,"midi":64,"time":105.74989425000001,"velocity":0.3937007874015748},{"duration":0.10714274999999418,"midi":68,"time":105.74989425000001,"velocity":0.3937007874015748},{"duration":0.10714274999999418,"midi":68,"time":105.96417975000001,"velocity":0.3937007874015748},{"duration":0.10714274999999418,"midi":64,"time":105.96417975000001,"velocity":0.3937007874015748},{"duration":0.10714274999999418,"midi":64,"time":106.07132250000001,"velocity":0.3937007874015748},{"duration":0.10714274999999418,"midi":68,"time":106.07132250000001,"velocity":0.3937007874015748},{"duration":0.10714275000000839,"midi":64,"time":106.17846525,"velocity":0.3937007874015748},{"duration":0.10714275000000839,"midi":68,"time":106.17846525,"velocity":0.3937007874015748},{"duration":0.10714274999999418,"midi":61,"time":106.28560800000001,"velocity":0.3937007874015748},{"duration":0.10714274999999418,"midi":64,"time":106.28560800000001,"velocity":0.3937007874015748},{"duration":0.10714274999999418,"midi":63,"time":106.71417900000002,"velocity":0.3937007874015748},{"duration":0.10714274999999418,"midi":60,"time":106.71417900000002,"velocity":0.3937007874015748},{"duration":0.10714275000000839,"midi":61,"time":107.14275,"velocity":0.3937007874015748},{"duration":0.10714275000000839,"midi":58,"time":107.14275,"velocity":0.3937007874015748},{"duration":0.10714274999999418,"midi":60,"time":107.24989275000001,"velocity":0.3937007874015748},{"duration":0.10714274999999418,"midi":63,"time":107.24989275000001,"velocity":0.3937007874015748},{"duration":0.10714275000000839,"midi":58,"time":107.46417825,"velocity":0.3937007874015748},{"duration":0.10714275000000839,"midi":53,"time":107.46417825,"velocity":0.3937007874015748},{"duration":0.10714275000000839,"midi":53,"time":107.67846375,"velocity":0.3937007874015748},{"duration":0.10714275000000839,"midi":56,"time":107.67846375,"velocity":0.3937007874015748},{"duration":0.10714274999999418,"midi":57,"time":107.78560650000001,"velocity":0.3937007874015748},{"duration":0.10714274999999418,"midi":54,"time":107.78560650000001,"velocity":0.3937007874015748},{"duration":0.10714274999999418,"midi":55,"time":107.89274925000001,"velocity":0.3937007874015748},{"duration":0.10714274999999418,"midi":58,"time":107.89274925000001,"velocity":0.3937007874015748},{"duration":0.10714274999999418,"midi":46,"time":109.71417600000001,"velocity":0.3937007874015748},{"duration":0.10714275000000839,"midi":46,"time":110.78560350000001,"velocity":0.3937007874015748},{"duration":0.10714274999999418,"midi":46,"time":111.42846000000002,"velocity":0.3937007874015748},{"duration":0.10714274999999418,"midi":46,"time":112.49988750000001,"velocity":0.3937007874015748},{"duration":0.10714275000000839,"midi":46,"time":113.14274400000001,"velocity":0.3937007874015748},{"duration":0.10714275000000839,"midi":46,"time":114.2141715,"velocity":0.3937007874015748},{"duration":0.10714274999999418,"midi":46,"time":114.85702800000001,"velocity":0.3937007874015748},{"duration":0.10714274999999418,"midi":46,"time":115.92845550000001,"velocity":0.3937007874015748},{"duration":0.10714275000000839,"midi":46,"time":116.571312,"velocity":0.3937007874015748},{"duration":0.10714275000000839,"midi":46,"time":117.6427395,"velocity":0.3937007874015748},{"duration":0.10714274999999418,"midi":46,"time":118.28559600000001,"velocity":0.3937007874015748},{"duration":0.10714274999999418,"midi":46,"time":119.35702350000001,"velocity":0.3937007874015748},{"duration":0.10714275000000839,"midi":46,"time":119.99988,"velocity":0.3937007874015748},{"duration":0.10714275000000839,"midi":46,"time":121.0713075,"velocity":0.3937007874015748},{"duration":0.10714274999999418,"midi":46,"time":121.71416400000001,"velocity":0.3937007874015748},{"duration":0.10714274999999418,"midi":46,"time":122.78559150000001,"velocity":0.3937007874015748}]},{"instrument":{"family":"organ","number":19,"name":"church organ"},"notes":[{"duration":0.6428565,"midi":46,"time":0,"velocity":0.3937007874015748},{"duration":0.4285709999999999,"midi":46,"time":0.6428565,"velocity":0.23622047244094488},{"duration":0.6428565000000002,"midi":46,"time":1.0714275,"velocity":0.3937007874015748},{"duration":0.6428565000000002,"midi":46,"time":1.7142840000000001,"velocity":0.3937007874015748},{"duration":0.4285709999999998,"midi":46,"time":2.3571405000000003,"velocity":0.23622047244094488},{"duration":0.6428565000000002,"midi":46,"time":2.7857115,"velocity":0.3937007874015748},{"duration":0.6428564999999997,"midi":46,"time":3.4285680000000003,"velocity":0.3937007874015748},{"duration":0.4285710000000007,"midi":46,"time":4.0714245,"velocity":0.23622047244094488},{"duration":0.6428564999999997,"midi":46,"time":4.499995500000001,"velocity":0.3937007874015748},{"duration":0.6428564999999997,"midi":46,"time":5.142852,"velocity":0.3937007874015748},{"duration":0.4285710000000007,"midi":46,"time":5.7857085,"velocity":0.23622047244094488},{"duration":0.6428564999999997,"midi":46,"time":6.214279500000001,"velocity":0.3937007874015748},{"duration":0.6428564999999997,"midi":46,"time":6.857136000000001,"velocity":0.3937007874015748},{"duration":0.4285710000000007,"midi":46,"time":7.4999925,"velocity":0.23622047244094488},{"duration":0.6428564999999988,"midi":46,"time":7.928563500000001,"velocity":0.3937007874015748},{"duration":0.6428565000000006,"midi":46,"time":8.57142,"velocity":0.3937007874015748},{"duration":0.4285709999999998,"midi":46,"time":9.2142765,"velocity":0.23622047244094488},{"duration":0.6428565000000006,"midi":46,"time":9.6428475,"velocity":0.3937007874015748},{"duration":0.6428565000000006,"midi":46,"time":10.285704,"velocity":0.3937007874015748},{"duration":0.4285709999999998,"midi":46,"time":10.928560500000001,"velocity":0.23622047244094488},{"duration":0.6428565000000006,"midi":46,"time":11.357131500000001,"velocity":0.3937007874015748},{"duration":0.6428564999999988,"midi":46,"time":11.999988000000002,"velocity":0.3937007874015748},{"duration":0.4285709999999998,"midi":46,"time":12.6428445,"velocity":0.23622047244094488},{"duration":0.6428565000000006,"midi":46,"time":13.0714155,"velocity":0.3937007874015748},{"duration":0.10714274999999951,"midi":46,"time":13.714272000000001,"velocity":0.3937007874015748},{"duration":0.10714275000000129,"midi":41,"time":13.82141475,"velocity":0.3937007874015748},{"duration":0.10714274999999951,"midi":44,"time":13.928557500000002,"velocity":0.3937007874015748},{"duration":0.10714274999999951,"midi":46,"time":14.035700250000001,"velocity":0.3937007874015748},{"duration":0.10714275000000129,"midi":41,"time":14.24998575,"velocity":0.3937007874015748},{"duration":0.10714274999999951,"midi":44,"time":14.357128500000002,"velocity":0.3937007874015748},{"duration":0.10714274999999951,"midi":39,"time":14.464271250000001,"velocity":0.3937007874015748},{"duration":0.10714275000000129,"midi":46,"time":14.571414,"velocity":0.3937007874015748},{"duration":0.10714274999999951,"midi":41,"time":14.678556750000002,"velocity":0.3937007874015748},{"duration":0.10714274999999951,"midi":44,"time":14.785699500000002,"velocity":0.3937007874015748},{"duration":0.10714274999999951,"midi":46,"time":14.892842250000001,"velocity":0.3937007874015748},{"duration":0.10714274999999951,"midi":41,"time":15.107127750000002,"velocity":0.3937007874015748},{"duration":0.10714274999999951,"midi":44,"time":15.214270500000001,"velocity":0.3937007874015748},{"duration":0.10714274999999951,"midi":39,"time":15.32141325,"velocity":0.3937007874015748},{"duration":0.10714275000000129,"midi":46,"time":15.428556,"velocity":0.3937007874015748},{"duration":0.10714274999999951,"midi":41,"time":15.535698750000002,"velocity":0.3937007874015748},{"duration":0.10714274999999951,"midi":44,"time":15.642841500000001,"velocity":0.3937007874015748},{"duration":0.10714275000000129,"midi":46,"time":15.74998425,"velocity":0.3937007874015748},{"duration":0.10714274999999951,"midi":41,"time":15.964269750000001,"velocity":0.3937007874015748},{"duration":0.10714275000000129,"midi":44,"time":16.0714125,"velocity":0.3937007874015748},{"duration":0.10714274999999773,"midi":39,"time":16.178555250000002,"velocity":0.3937007874015748},{"duration":0.10714275000000129,"midi":46,"time":16.285698,"velocity":0.3937007874015748},{"duration":0.10714275000000129,"midi":41,"time":16.39284075,"velocity":0.3937007874015748},{"duration":0.10714274999999773,"midi":44,"time":16.499983500000003,"velocity":0.3937007874015748},{"duration":0.10714275000000129,"midi":53,"time":16.60712625,"velocity":0.3937007874015748},{"duration":0.10714274999999773,"midi":51,"time":16.821411750000003,"velocity":0.3937007874015748},{"duration":0.10714275000000129,"midi":49,"time":16.9285545,"velocity":0.3937007874015748},{"duration":0.10714274999999773,"midi":44,"time":17.035697250000002,"velocity":0.3937007874015748},{"duration":0.10714275000000129,"midi":46,"time":17.14284,"velocity":0.3937007874015748},{"duration":0.10714275000000129,"midi":41,"time":17.24998275,"velocity":0.3937007874015748},{"duration":0.10714274999999773,"midi":44,"time":17.357125500000002,"velocity":0.3937007874015748},{"duration":0.10714275000000129,"midi":46,"time":17.46426825,"velocity":0.3937007874015748},{"duration":0.10714274999999773,"midi":41,"time":17.678553750000003,"velocity":0.3937007874015748},{"duration":0.10714275000000129,"midi":44,"time":17.7856965,"velocity":0.3937007874015748},{"duration":0.10714275000000129,"midi":39,"time":17.89283925,"velocity":0.3937007874015748},{"duration":0.10714274999999773,"midi":46,"time":17.999982000000003,"velocity":0.3937007874015748},{"duration":0.10714275000000129,"midi":41,"time":18.10712475,"velocity":0.3937007874015748},{"duration":0.10714275000000129,"midi":44,"time":18.214267500000002,"velocity":0.3937007874015748},{"duration":0.10714274999999773,"midi":46,"time":18.321410250000003,"velocity":0.3937007874015748},{"duration":0.10714274999999773,"midi":41,"time":18.535695750000002,"velocity":0.3937007874015748},{"duration":0.10714275000000129,"midi":44,"time":18.6428385,"velocity":0.3937007874015748},{"duration":0.10714275000000129,"midi":39,"time":18.74998125,"velocity":0.3937007874015748},{"duration":0.10714274999999773,"midi":46,"time":18.857124000000002,"velocity":0.3937007874015748},{"duration":0.10714275000000129,"midi":41,"time":18.96426675,"velocity":0.3937007874015748},{"duration":0.10714275000000129,"midi":44,"time":19.0714095,"velocity":0.3937007874015748},{"duration":0.10714274999999773,"midi":46,"time":19.178552250000003,"velocity":0.3937007874015748},{"duration":0.10714275000000129,"midi":41,"time":19.39283775,"velocity":0.3937007874015748},{"duration":0.10714274999999773,"midi":44,"time":19.499980500000003,"velocity":0.3937007874015748},{"duration":0.10714275000000129,"midi":39,"time":19.60712325,"velocity":0.3937007874015748},{"duration":0.10714275000000129,"midi":46,"time":19.714266000000002,"velocity":0.3937007874015748},{"duration":0.10714274999999773,"midi":41,"time":19.821408750000003,"velocity":0.3937007874015748},{"duration":0.10714275000000129,"midi":44,"time":19.9285515,"velocity":0.3937007874015748},{"duration":0.10714274999999773,"midi":53,"time":20.035694250000002,"velocity":0.3937007874015748},{"duration":0.10714275000000129,"midi":51,"time":20.24997975,"velocity":0.3937007874015748},{"duration":0.10714274999999773,"midi":49,"time":20.357122500000003,"velocity":0.3937007874015748},{"duration":0.10714275000000129,"midi":44,"time":20.46426525,"velocity":0.3937007874015748},{"duration":0.10714275000000129,"midi":46,"time":20.571408,"velocity":0.3937007874015748},{"duration":0.10714274999999773,"midi":41,"time":20.678550750000003,"velocity":0.3937007874015748},{"duration":0.10714275000000129,"midi":44,"time":20.7856935,"velocity":0.3937007874015748},{"duration":0.10714275000000129,"midi":46,"time":20.892836250000002,"velocity":0.3937007874015748},{"duration":0.10714275000000129,"midi":41,"time":21.10712175,"velocity":0.3937007874015748},{"duration":0.10714274999999773,"midi":44,"time":21.214264500000002,"velocity":0.3937007874015748},{"duration":0.10714275000000129,"midi":39,"time":21.32140725,"velocity":0.3937007874015748},{"duration":0.10714275000000129,"midi":46,"time":21.42855,"velocity":0.3937007874015748},{"duration":0.10714274999999773,"midi":41,"time":21.535692750000003,"velocity":0.3937007874015748},{"duration":0.10714275000000129,"midi":44,"time":21.6428355,"velocity":0.3937007874015748},{"duration":0.10714275000000129,"midi":46,"time":21.74997825,"velocity":0.3937007874015748},{"duration":0.10714275000000129,"midi":41,"time":21.96426375,"velocity":0.3937007874015748},{"duration":0.10714275000000129,"midi":44,"time":22.071406500000002,"velocity":0.3937007874015748},{"duration":0.10714274999999773,"midi":39,"time":22.178549250000003,"velocity":0.3937007874015748},{"duration":0.10714275000000129,"midi":46,"time":22.285692,"velocity":0.3937007874015748},{"duration":0.10714275000000129,"midi":41,"time":22.392834750000002,"velocity":0.3937007874015748},{"duration":0.10714274999999773,"midi":44,"time":22.499977500000004,"velocity":0.3937007874015748},{"duration":0.10714275000000129,"midi":46,"time":22.60712025,"velocity":0.3937007874015748},{"duration":0.10714275000000129,"midi":41,"time":22.82140575,"velocity":0.3937007874015748},{"duration":0.10714275000000129,"midi":44,"time":22.9285485,"velocity":0.3937007874015748},{"duration":0.10714274999999773,"midi":39,"time":23.035691250000003,"velocity":0.3937007874015748},{"duration":0.10714275000000129,"midi":46,"time":23.142834,"velocity":0.3937007874015748},{"duration":0.10714275000000129,"midi":41,"time":23.249976750000002,"velocity":0.3937007874015748},{"duration":0.10714274999999773,"midi":44,"time":23.357119500000003,"velocity":0.3937007874015748},{"duration":0.10714275000000129,"midi":53,"time":23.46426225,"velocity":0.3937007874015748},{"duration":0.10714274999999773,"midi":51,"time":23.678547750000003,"velocity":0.3937007874015748},{"duration":0.10714275000000129,"midi":49,"time":23.7856905,"velocity":0.3937007874015748},{"duration":0.10714275000000129,"midi":44,"time":23.892833250000002,"velocity":0.3937007874015748},{"duration":0.10714274999999773,"midi":46,"time":23.999976000000004,"velocity":0.3937007874015748},{"duration":0.10714275000000129,"midi":41,"time":24.10711875,"velocity":0.3937007874015748},{"duration":0.10714274999999773,"midi":44,"time":24.214261500000003,"velocity":0.3937007874015748},{"duration":0.10714275000000129,"midi":46,"time":24.32140425,"velocity":0.3937007874015748},{"duration":0.10714274999999773,"midi":41,"time":24.535689750000003,"velocity":0.3937007874015748},{"duration":0.10714275000000129,"midi":44,"time":24.6428325,"velocity":0.3937007874015748},{"duration":0.10714275000000129,"midi":39,"time":24.749975250000002,"velocity":0.3937007874015748},{"duration":0.10714274999999773,"midi":46,"time":24.857118000000003,"velocity":0.3937007874015748},{"duration":0.10714275000000129,"midi":41,"time":24.96426075,"velocity":0.3937007874015748},{"duration":0.10714275000000129,"midi":44,"time":25.071403500000002,"velocity":0.3937007874015748},{"duration":0.10714274999999773,"midi":46,"time":25.178546250000004,"velocity":0.3937007874015748},{"duration":0.10714274999999773,"midi":41,"time":25.392831750000003,"velocity":0.3937007874015748},{"duration":0.10714275000000129,"midi":44,"time":25.4999745,"velocity":0.3937007874015748},{"duration":0.10714275000000129,"midi":39,"time":25.60711725,"velocity":0.3937007874015748},{"duration":0.10714274999999773,"midi":46,"time":25.714260000000003,"velocity":0.3937007874015748},{"duration":0.10714275000000129,"midi":41,"time":25.82140275,"velocity":0.3937007874015748},{"duration":0.10714275000000129,"midi":44,"time":25.928545500000002,"velocity":0.3937007874015748},{"duration":0.10714274999999773,"midi":46,"time":26.035688250000003,"velocity":0.3937007874015748},{"duration":0.10714275000000129,"midi":41,"time":26.249973750000002,"velocity":0.3937007874015748},{"duration":0.10714274999999773,"midi":44,"time":26.357116500000004,"velocity":0.3937007874015748},{"duration":0.10714275000000129,"midi":39,"time":26.46425925,"velocity":0.3937007874015748},{"duration":0.10714275000000129,"midi":46,"time":26.571402000000003,"velocity":0.3937007874015748},{"duration":0.10714274999999773,"midi":41,"time":26.678544750000004,"velocity":0.3937007874015748},{"duration":0.10714275000000129,"midi":44,"time":26.7856875,"velocity":0.3937007874015748},{"duration":0.10714274999999773,"midi":53,"time":26.892830250000003,"velocity":0.3937007874015748},{"duration":0.10714275000000129,"midi":51,"time":27.107115750000002,"velocity":0.3937007874015748},{"duration":0.10714274999999773,"midi":49,"time":27.214258500000003,"velocity":0.3937007874015748},{"duration":0.10714275000000129,"midi":44,"time":27.32140125,"velocity":0.3937007874015748},{"duration":0.10714275000000129,"midi":46,"time":27.428544000000002,"velocity":0.3937007874015748},{"duration":0.10714274999999773,"midi":41,"time":27.535686750000004,"velocity":0.3937007874015748},{"duration":0.10714275000000129,"midi":44,"time":27.6428295,"velocity":0.3937007874015748},{"duration":0.10714275000000129,"midi":46,"time":27.749972250000003,"velocity":0.3937007874015748},{"duration":0.10714275000000129,"midi":41,"time":27.96425775,"velocity":0.3937007874015748},{"duration":0.10714274999999773,"midi":44,"time":28.071400500000003,"velocity":0.3937007874015748},{"duration":0.10714275000000129,"midi":39,"time":28.17854325,"velocity":0.3937007874015748},{"duration":0.10714275000000129,"midi":46,"time":28.285686000000002,"velocity":0.3937007874015748},{"duration":0.10714274999999773,"midi":41,"time":28.392828750000003,"velocity":0.3937007874015748},{"duration":0.10714275000000129,"midi":44,"time":28.4999715,"velocity":0.3937007874015748},{"duration":0.10714275000000129,"midi":46,"time":28.607114250000002,"velocity":0.3937007874015748},{"duration":0.10714275000000129,"midi":41,"time":28.82139975,"velocity":0.3937007874015748},{"duration":0.10714275000000129,"midi":44,"time":28.928542500000002,"velocity":0.3937007874015748},{"duration":0.10714274999999773,"midi":39,"time":29.035685250000004,"velocity":0.3937007874015748},{"duration":0.10714275000000129,"midi":46,"time":29.142828,"velocity":0.3937007874015748},{"duration":0.10714275000000129,"midi":41,"time":29.249970750000003,"velocity":0.3937007874015748},{"duration":0.10714274999999773,"midi":44,"time":29.357113500000004,"velocity":0.3937007874015748},{"duration":0.10714275000000129,"midi":46,"time":29.464256250000002,"velocity":0.3937007874015748},{"duration":0.10714275000000129,"midi":41,"time":29.67854175,"velocity":0.3937007874015748},{"duration":0.10714275000000129,"midi":44,"time":29.785684500000002,"velocity":0.3937007874015748},{"duration":0.10714274999999773,"midi":39,"time":29.892827250000003,"velocity":0.3937007874015748},{"duration":0.10714275000000129,"midi":46,"time":29.99997,"velocity":0.3937007874015748},{"duration":0.10714275000000129,"midi":41,"time":30.107112750000002,"velocity":0.3937007874015748},{"duration":0.10714274999999773,"midi":44,"time":30.214255500000004,"velocity":0.3937007874015748},{"duration":0.10714275000000129,"midi":53,"time":30.32139825,"velocity":0.3937007874015748},{"duration":0.10714274999999773,"midi":51,"time":30.535683750000004,"velocity":0.3937007874015748},{"duration":0.10714275000000129,"midi":49,"time":30.6428265,"velocity":0.3937007874015748},{"duration":0.10714274999999773,"midi":44,"time":30.749969250000003,"velocity":0.3937007874015748},{"duration":0.10714275000000129,"midi":46,"time":30.857112,"velocity":0.3937007874015748},{"duration":0.10714275000000129,"midi":41,"time":30.964254750000002,"velocity":0.3937007874015748},{"duration":0.10714274999999773,"midi":44,"time":31.071397500000003,"velocity":0.3937007874015748},{"duration":0.10714275000000129,"midi":46,"time":31.17854025,"velocity":0.3937007874015748},{"duration":0.10714274999999773,"midi":41,"time":31.392825750000004,"velocity":0.3937007874015748},{"duration":0.10714275000000129,"midi":44,"time":31.4999685,"velocity":0.3937007874015748},{"duration":0.10714275000000129,"midi":39,"time":31.607111250000003,"velocity":0.3937007874015748},{"duration":0.10714274999999773,"midi":46,"time":31.714254000000004,"velocity":0.3937007874015748},{"duration":0.10714275000000129,"midi":41,"time":31.82139675,"velocity":0.3937007874015748},{"duration":0.10714274999999773,"midi":44,"time":31.928539500000003,"velocity":0.3937007874015748},{"duration":0.10714275000000129,"midi":46,"time":32.03568225,"velocity":0.3937007874015748},{"duration":0.10714275000000129,"midi":41,"time":32.24996775,"velocity":0.3937007874015748},{"duration":0.10714275000000129,"midi":44,"time":32.357110500000005,"velocity":0.3937007874015748},{"duration":0.10714274999999418,"midi":39,"time":32.464253250000006,"velocity":0.3937007874015748},{"duration":0.10714275000000129,"midi":46,"time":32.571396,"velocity":0.3937007874015748},{"duration":0.10714275000000129,"midi":41,"time":32.67853875,"velocity":0.3937007874015748},{"duration":0.10714275000000129,"midi":44,"time":32.7856815,"velocity":0.3937007874015748},{"duration":0.10714275000000129,"midi":46,"time":32.892824250000004,"velocity":0.3937007874015748},{"duration":0.10714275000000129,"midi":41,"time":33.10710975,"velocity":0.3937007874015748},{"duration":0.10714275000000129,"midi":44,"time":33.2142525,"velocity":0.3937007874015748},{"duration":0.10714275000000129,"midi":39,"time":33.32139525,"velocity":0.3937007874015748},{"duration":0.10714275000000129,"midi":46,"time":33.428538,"velocity":0.3937007874015748},{"duration":0.10714275000000129,"midi":41,"time":33.535680750000004,"velocity":0.3937007874015748},{"duration":0.10714274999999418,"midi":44,"time":33.642823500000006,"velocity":0.3937007874015748},{"duration":0.10714275000000129,"midi":53,"time":33.74996625,"velocity":0.3937007874015748},{"duration":0.10714275000000129,"midi":51,"time":33.96425175,"velocity":0.3937007874015748},{"duration":0.10714275000000129,"midi":49,"time":34.071394500000004,"velocity":0.3937007874015748},{"duration":0.10714274999999418,"midi":44,"time":34.178537250000005,"velocity":0.3937007874015748},{"duration":0.10714275000000129,"midi":46,"time":34.28568,"velocity":0.3937007874015748},{"duration":0.10714275000000129,"midi":41,"time":34.39282275,"velocity":0.3937007874015748},{"duration":0.10714275000000129,"midi":44,"time":34.4999655,"velocity":0.3937007874015748},{"duration":0.10714275000000129,"midi":46,"time":34.60710825,"velocity":0.3937007874015748},{"duration":0.10714274999999418,"midi":41,"time":34.821393750000006,"velocity":0.3937007874015748},{"duration":0.10714275000000129,"midi":44,"time":34.9285365,"velocity":0.3937007874015748},{"duration":0.10714275000000129,"midi":39,"time":35.03567925,"velocity":0.3937007874015748},{"duration":0.10714275000000129,"midi":46,"time":35.142822,"velocity":0.3937007874015748},{"duration":0.10714275000000129,"midi":41,"time":35.249964750000004,"velocity":0.3937007874015748},{"duration":0.10714275000000129,"midi":44,"time":35.357107500000005,"velocity":0.3937007874015748},{"duration":0.10714274999999418,"midi":46,"time":35.464250250000006,"velocity":0.3937007874015748},{"duration":0.10714275000000129,"midi":41,"time":35.67853575,"velocity":0.3937007874015748},{"duration":0.10714275000000129,"midi":44,"time":35.7856785,"velocity":0.3937007874015748},{"duration":0.10714275000000129,"midi":39,"time":35.892821250000004,"velocity":0.3937007874015748},{"duration":0.10714274999999418,"midi":46,"time":35.999964000000006,"velocity":0.3937007874015748},{"duration":0.10714275000000129,"midi":41,"time":36.10710675,"velocity":0.3937007874015748},{"duration":0.10714275000000129,"midi":44,"time":36.2142495,"velocity":0.3937007874015748},{"duration":0.10714275000000129,"midi":46,"time":36.32139225,"velocity":0.3937007874015748},{"duration":0.10714275000000129,"midi":41,"time":36.535677750000005,"velocity":0.3937007874015748},{"duration":0.10714274999999418,"midi":44,"time":36.642820500000006,"velocity":0.3937007874015748},{"duration":0.10714275000000129,"midi":39,"time":36.74996325,"velocity":0.3937007874015748},{"duration":0.10714275000000129,"midi":46,"time":36.857106,"velocity":0.3937007874015748},{"duration":0.10714275000000129,"midi":41,"time":36.96424875,"velocity":0.3937007874015748},{"duration":0.10714275000000129,"midi":44,"time":37.071391500000004,"velocity":0.3937007874015748},{"duration":0.10714274999999418,"midi":53,"time":37.178534250000006,"velocity":0.3937007874015748},{"duration":0.10714275000000129,"midi":51,"time":37.39281975,"velocity":0.3937007874015748},{"duration":0.10714275000000129,"midi":49,"time":37.4999625,"velocity":0.3937007874015748},{"duration":0.10714275000000129,"midi":44,"time":37.607105250000004,"velocity":0.3937007874015748},{"duration":0.10714275000000129,"midi":46,"time":37.714248000000005,"velocity":0.3937007874015748},{"duration":0.10714274999999418,"midi":41,"time":37.821390750000006,"velocity":0.3937007874015748},{"duration":0.10714275000000129,"midi":44,"time":37.9285335,"velocity":0.3937007874015748},{"duration":0.10714275000000129,"midi":46,"time":38.03567625,"velocity":0.3937007874015748},{"duration":0.10714275000000129,"midi":41,"time":38.249961750000004,"velocity":0.3937007874015748},{"duration":0.10714274999999418,"midi":44,"time":38.357104500000005,"velocity":0.3937007874015748},{"duration":0.10714275000000129,"midi":39,"time":38.46424725,"velocity":0.3937007874015748},{"duration":0.10714275000000129,"midi":46,"time":38.57139,"velocity":0.3937007874015748},{"duration":0.10714275000000129,"midi":41,"time":38.67853275,"velocity":0.3937007874015748},{"duration":0.10714275000000129,"midi":44,"time":38.7856755,"velocity":0.3937007874015748},{"duration":0.10714275000000129,"midi":46,"time":38.892818250000005,"velocity":0.3937007874015748},{"duration":0.10714275000000129,"midi":41,"time":39.10710375,"velocity":0.3937007874015748},{"duration":0.10714275000000129,"midi":44,"time":39.2142465,"velocity":0.3937007874015748},{"duration":0.10714275000000129,"midi":39,"time":39.32138925,"velocity":0.3937007874015748},{"duration":0.10714275000000129,"midi":46,"time":39.428532000000004,"velocity":0.3937007874015748},{"duration":0.10714275000000129,"midi":41,"time":39.535674750000005,"velocity":0.3937007874015748},{"duration":0.10714274999999418,"midi":44,"time":39.64281750000001,"velocity":0.3937007874015748},{"duration":0.10714275000000129,"midi":46,"time":39.74996025,"velocity":0.3937007874015748},{"duration":0.10714275000000129,"midi":41,"time":39.96424575,"velocity":0.3937007874015748},{"duration":0.10714275000000129,"midi":44,"time":40.071388500000005,"velocity":0.3937007874015748},{"duration":0.10714274999999418,"midi":39,"time":40.178531250000006,"velocity":0.3937007874015748},{"duration":0.10714275000000129,"midi":46,"time":40.285674,"velocity":0.3937007874015748},{"duration":0.10714275000000129,"midi":41,"time":40.39281675,"velocity":0.3937007874015748},{"duration":0.10714275000000129,"midi":44,"time":40.4999595,"velocity":0.3937007874015748},{"duration":0.10714275000000129,"midi":53,"time":40.607102250000004,"velocity":0.3937007874015748},{"duration":0.10714274999999418,"midi":51,"time":40.82138775000001,"velocity":0.3937007874015748},{"duration":0.10714275000000129,"midi":49,"time":40.9285305,"velocity":0.3937007874015748},{"duration":0.10714275000000129,"midi":44,"time":41.03567325,"velocity":0.3937007874015748},{"duration":0.10714275000000129,"midi":46,"time":41.142816,"velocity":0.3937007874015748},{"duration":0.10714274999999418,"midi":41,"time":41.357101500000006,"velocity":0.3937007874015748},{"duration":0.10714275000000129,"midi":46,"time":41.46424425,"velocity":0.3937007874015748},{"duration":0.10714275000000129,"midi":41,"time":41.67852975,"velocity":0.3937007874015748},{"duration":0.10714275000000129,"midi":44,"time":41.785672500000004,"velocity":0.3937007874015748},{"duration":0.10714275000000129,"midi":39,"time":41.892815250000005,"velocity":0.3937007874015748},{"duration":0.10714274999999418,"midi":49,"time":41.99995800000001,"velocity":0.3937007874015748},{"duration":0.10714275000000129,"midi":44,"time":42.2142435,"velocity":0.3937007874015748},{"duration":0.10714275000000129,"midi":49,"time":42.32138625,"velocity":0.3937007874015748},{"duration":0.10714274999999418,"midi":44,"time":42.535671750000006,"velocity":0.3937007874015748},{"duration":0.10714275000000129,"midi":49,"time":42.6428145,"velocity":0.3937007874015748},{"duration":0.10714275000000129,"midi":51,"time":42.74995725,"velocity":0.3937007874015748},{"duration":0.10714275000000129,"midi":48,"time":42.8571,"velocity":0.3937007874015748},{"duration":0.10714275000000129,"midi":43,"time":43.071385500000005,"velocity":0.3937007874015748},{"duration":0.10714274999999418,"midi":48,"time":43.17852825000001,"velocity":0.3937007874015748},{"duration":0.10714275000000129,"midi":41,"time":43.39281375,"velocity":0.3937007874015748},{"duration":0.10714275000000129,"midi":44,"time":43.4999565,"velocity":0.3937007874015748},{"duration":0.10714275000000129,"midi":49,"time":43.607099250000005,"velocity":0.3937007874015748},{"duration":0.10714275000000129,"midi":52,"time":43.714242000000006,"velocity":0.3937007874015748},{"duration":0.10714275000000129,"midi":48,"time":43.9285275,"velocity":0.3937007874015748},{"duration":0.10714275000000129,"midi":52,"time":44.03567025,"velocity":0.3937007874015748},{"duration":0.10714275000000129,"midi":51,"time":44.249955750000005,"velocity":0.3937007874015748},{"duration":0.10714274999999418,"midi":49,"time":44.357098500000006,"velocity":0.3937007874015748},{"duration":0.10714275000000129,"midi":44,"time":44.46424125,"velocity":0.3937007874015748},{"duration":0.10714275000000129,"midi":46,"time":44.571384,"velocity":0.3937007874015748},{"duration":0.10714275000000129,"midi":41,"time":44.67852675,"velocity":0.3937007874015748},{"duration":0.10714275000000129,"midi":44,"time":44.785669500000004,"velocity":0.3937007874015748},{"duration":0.10714275000000129,"midi":46,"time":44.892812250000006,"velocity":0.3937007874015748},{"duration":0.10714275000000129,"midi":41,"time":45.10709775,"velocity":0.3937007874015748},{"duration":0.10714275000000129,"midi":44,"time":45.2142405,"velocity":0.3937007874015748},{"duration":0.10714275000000129,"midi":39,"time":45.321383250000004,"velocity":0.3937007874015748},{"duration":0.10714275000000129,"midi":46,"time":45.428526000000005,"velocity":0.3937007874015748},{"duration":0.10714274999999418,"midi":41,"time":45.535668750000006,"velocity":0.3937007874015748},{"duration":0.10714275000000129,"midi":44,"time":45.6428115,"velocity":0.3937007874015748},{"duration":0.10714275000000129,"midi":46,"time":45.74995425,"velocity":0.3937007874015748},{"duration":0.10714275000000129,"midi":41,"time":45.964239750000004,"velocity":0.3937007874015748},{"duration":0.10714275000000129,"midi":44,"time":46.071382500000006,"velocity":0.3937007874015748},{"duration":0.10714274999999418,"midi":39,"time":46.17852525000001,"velocity":0.3937007874015748},{"duration":0.10714275000000129,"midi":46,"time":46.285668,"velocity":0.3937007874015748},{"duration":0.10714275000000129,"midi":41,"time":46.39281075,"velocity":0.3937007874015748},{"duration":0.10714275000000129,"midi":44,"time":46.499953500000004,"velocity":0.3937007874015748},{"duration":0.10714275000000129,"midi":46,"time":46.607096250000005,"velocity":0.3937007874015748},{"duration":0.10714275000000129,"midi":41,"time":46.82138175,"velocity":0.3937007874015748},{"duration":0.10714275000000129,"midi":44,"time":46.9285245,"velocity":0.3937007874015748},{"duration":0.10714275000000129,"midi":39,"time":47.03566725,"velocity":0.3937007874015748},{"duration":0.10714275000000129,"midi":46,"time":47.142810000000004,"velocity":0.3937007874015748},{"duration":0.10714275000000129,"midi":41,"time":47.249952750000006,"velocity":0.3937007874015748},{"duration":0.10714274999999418,"midi":44,"time":47.35709550000001,"velocity":0.3937007874015748},{"duration":0.10714275000000129,"midi":53,"time":47.46423825,"velocity":0.3937007874015748},{"duration":0.10714275000000129,"midi":51,"time":47.678523750000004,"velocity":0.3937007874015748},{"duration":0.10714275000000129,"midi":49,"time":47.785666500000005,"velocity":0.3937007874015748},{"duration":0.10714275000000129,"midi":44,"time":47.892809250000006,"velocity":0.3937007874015748},{"duration":0.10714274999999418,"midi":46,"time":47.99995200000001,"velocity":0.3937007874015748},{"duration":0.10714275000000129,"midi":41,"time":48.2142375,"velocity":0.3937007874015748},{"duration":0.10714275000000129,"midi":46,"time":48.321380250000004,"velocity":0.3937007874015748},{"duration":0.10714274999999418,"midi":41,"time":48.53566575000001,"velocity":0.3937007874015748},{"duration":0.10714275000000129,"midi":44,"time":48.6428085,"velocity":0.3937007874015748},{"duration":0.10714275000000129,"midi":39,"time":48.74995125,"velocity":0.3937007874015748},{"duration":0.10714275000000129,"midi":49,"time":48.857094000000004,"velocity":0.3937007874015748},{"duration":0.10714275000000129,"midi":44,"time":49.071379500000006,"velocity":0.3937007874015748},{"duration":0.10714274999999418,"midi":49,"time":49.17852225000001,"velocity":0.3937007874015748},{"duration":0.10714275000000129,"midi":44,"time":49.39280775,"velocity":0.3937007874015748},{"duration":0.10714275000000129,"midi":49,"time":49.499950500000004,"velocity":0.3937007874015748},{"duration":0.10714275000000129,"midi":51,"time":49.607093250000005,"velocity":0.3937007874015748},{"duration":0.10714274999999418,"midi":48,"time":49.71423600000001,"velocity":0.3937007874015748},{"duration":0.10714275000000129,"midi":43,"time":49.9285215,"velocity":0.3937007874015748},{"duration":0.10714275000000129,"midi":48,"time":50.03566425,"velocity":0.3937007874015748},{"duration":0.10714275000000129,"midi":41,"time":50.249949750000006,"velocity":0.3937007874015748},{"duration":0.10714274999999418,"midi":44,"time":50.35709250000001,"velocity":0.3937007874015748},{"duration":0.10714275000000129,"midi":49,"time":50.46423525,"velocity":0.3937007874015748},{"duration":0.10714275000000129,"midi":52,"time":50.571378,"velocity":0.3937007874015748},{"duration":0.10714275000000129,"midi":48,"time":50.785663500000005,"velocity":0.3937007874015748},{"duration":0.10714274999999418,"midi":52,"time":50.89280625000001,"velocity":0.3937007874015748},{"duration":0.10714275000000129,"midi":51,"time":51.10709175,"velocity":0.3937007874015748},{"duration":0.10714275000000129,"midi":49,"time":51.2142345,"velocity":0.3937007874015748},{"duration":0.10714275000000129,"midi":44,"time":51.321377250000005,"velocity":0.3937007874015748},{"duration":0.10714275000000129,"midi":46,"time":51.428520000000006,"velocity":0.3937007874015748},{"duration":0.10714274999999418,"midi":41,"time":51.53566275000001,"velocity":0.3937007874015748},{"duration":0.10714275000000129,"midi":44,"time":51.6428055,"velocity":0.3937007874015748},{"duration":0.10714275000000129,"midi":46,"time":51.74994825,"velocity":0.3937007874015748},{"duration":0.10714275000000129,"midi":41,"time":51.964233750000005,"velocity":0.3937007874015748},{"duration":0.10714274999999418,"midi":44,"time":52.07137650000001,"velocity":0.3937007874015748},{"duration":0.10714275000000129,"midi":39,"time":52.17851925,"velocity":0.3937007874015748},{"duration":0.10714275000000129,"midi":46,"time":52.285662,"velocity":0.3937007874015748},{"duration":0.10714275000000129,"midi":41,"time":52.39280475,"velocity":0.3937007874015748},{"duration":0.10714275000000129,"midi":44,"time":52.499947500000005,"velocity":0.3937007874015748},{"duration":0.10714275000000129,"midi":46,"time":52.607090250000006,"velocity":0.3937007874015748},{"duration":0.10714275000000129,"midi":41,"time":52.82137575,"velocity":0.3937007874015748},{"duration":0.10714275000000129,"midi":44,"time":52.9285185,"velocity":0.3937007874015748},{"duration":0.10714275000000129,"midi":39,"time":53.035661250000004,"velocity":0.3937007874015748},{"duration":0.10714275000000129,"midi":46,"time":53.142804000000005,"velocity":0.3937007874015748},{"duration":0.10714275000000129,"midi":41,"time":53.24994675000001,"velocity":0.3937007874015748},{"duration":0.10714274999999418,"midi":44,"time":53.35708950000001,"velocity":0.3937007874015748},{"duration":0.10714275000000129,"midi":46,"time":53.46423225,"velocity":0.3937007874015748},{"duration":0.10714275000000129,"midi":41,"time":53.678517750000005,"velocity":0.3937007874015748},{"duration":0.10714275000000129,"midi":44,"time":53.785660500000006,"velocity":0.3937007874015748},{"duration":0.10714274999999418,"midi":39,"time":53.89280325000001,"velocity":0.3937007874015748},{"duration":0.10714275000000129,"midi":46,"time":53.999946,"velocity":0.3937007874015748},{"duration":0.10714275000000129,"midi":41,"time":54.10708875,"velocity":0.3937007874015748},{"duration":0.10714275000000129,"midi":44,"time":54.214231500000004,"velocity":0.3937007874015748},{"duration":0.10714275000000129,"midi":53,"time":54.321374250000005,"velocity":0.3937007874015748},{"duration":0.10714274999999418,"midi":51,"time":54.53565975000001,"velocity":0.3937007874015748},{"duration":0.10714275000000129,"midi":49,"time":54.6428025,"velocity":0.3937007874015748},{"duration":0.10714275000000129,"midi":44,"time":54.74994525,"velocity":0.3937007874015748},{"duration":0.10714275000000129,"midi":46,"time":54.857088000000005,"velocity":0.3937007874015748},{"duration":0.10714275000000129,"midi":41,"time":54.964230750000006,"velocity":0.3937007874015748},{"duration":0.10714274999999418,"midi":44,"time":55.07137350000001,"velocity":0.3937007874015748},{"duration":0.10714275000000129,"midi":46,"time":55.17851625,"velocity":0.3937007874015748},{"duration":0.10714275000000129,"midi":41,"time":55.392801750000004,"velocity":0.3937007874015748},{"duration":0.10714275000000129,"midi":44,"time":55.499944500000005,"velocity":0.3937007874015748},{"duration":0.10714275000000129,"midi":39,"time":55.607087250000006,"velocity":0.3937007874015748},{"duration":0.10714274999999418,"midi":46,"time":55.71423000000001,"velocity":0.3937007874015748},{"duration":0.10714275000000129,"midi":41,"time":55.82137275,"velocity":0.3937007874015748},{"duration":0.10714275000000129,"midi":44,"time":55.9285155,"velocity":0.3937007874015748},{"duration":0.10714275000000129,"midi":46,"time":56.035658250000004,"velocity":0.3937007874015748},{"duration":0.10714274999999418,"midi":41,"time":56.24994375000001,"velocity":0.3937007874015748},{"duration":0.10714275000000129,"midi":44,"time":56.3570865,"velocity":0.3937007874015748},{"duration":0.10714275000000129,"midi":39,"time":56.46422925,"velocity":0.3937007874015748},{"duration":0.10714275000000129,"midi":46,"time":56.571372000000004,"velocity":0.3937007874015748},{"duration":0.10714275000000129,"midi":41,"time":56.678514750000005,"velocity":0.3937007874015748},{"duration":0.10714275000000129,"midi":44,"time":56.785657500000006,"velocity":0.3937007874015748},{"duration":0.10714274999999418,"midi":46,"time":56.89280025000001,"velocity":0.3937007874015748},{"duration":0.10714275000000129,"midi":41,"time":57.10708575,"velocity":0.3937007874015748},{"duration":0.10714275000000129,"midi":44,"time":57.214228500000004,"velocity":0.3937007874015748},{"duration":0.10714275000000129,"midi":39,"time":57.321371250000006,"velocity":0.3937007874015748},{"duration":0.10714275000000129,"midi":46,"time":57.42851400000001,"velocity":0.3937007874015748},{"duration":0.10714274999999418,"midi":41,"time":57.53565675000001,"velocity":0.3937007874015748},{"duration":0.10714275000000129,"midi":44,"time":57.6427995,"velocity":0.3937007874015748},{"duration":0.10714275000000129,"midi":53,"time":57.749942250000004,"velocity":0.3937007874015748},{"duration":0.10714275000000129,"midi":51,"time":57.964227750000006,"velocity":0.3937007874015748},{"duration":0.10714274999999418,"midi":49,"time":58.07137050000001,"velocity":0.3937007874015748},{"duration":0.10714275000000129,"midi":44,"time":58.17851325,"velocity":0.3937007874015748},{"duration":0.10714275000000129,"midi":46,"time":58.285656,"velocity":0.3937007874015748},{"duration":0.10714275000000129,"midi":41,"time":58.392798750000004,"velocity":0.3937007874015748},{"duration":0.10714275000000129,"midi":44,"time":58.499941500000006,"velocity":0.3937007874015748},{"duration":0.10714275000000129,"midi":46,"time":58.60708425000001,"velocity":0.3937007874015748},{"duration":0.10714275000000129,"midi":41,"time":58.82136975,"velocity":0.3937007874015748},{"duration":0.10714275000000129,"midi":44,"time":58.928512500000004,"velocity":0.3937007874015748},{"duration":0.10714275000000129,"midi":39,"time":59.035655250000005,"velocity":0.3937007874015748},{"duration":0.10714275000000129,"midi":46,"time":59.142798000000006,"velocity":0.3937007874015748},{"duration":0.10714274999999418,"midi":41,"time":59.24994075000001,"velocity":0.3937007874015748},{"duration":0.10714275000000129,"midi":44,"time":59.3570835,"velocity":0.3937007874015748},{"duration":0.10714275000000129,"midi":46,"time":59.46422625,"velocity":0.3937007874015748},{"duration":0.10714275000000129,"midi":41,"time":59.678511750000006,"velocity":0.3937007874015748},{"duration":0.10714275000000129,"midi":44,"time":59.78565450000001,"velocity":0.3937007874015748},{"duration":0.10714274999999418,"midi":39,"time":59.89279725000001,"velocity":0.3937007874015748},{"duration":0.10714275000000129,"midi":46,"time":59.99994,"velocity":0.3937007874015748},{"duration":0.10714275000000129,"midi":41,"time":60.107082750000004,"velocity":0.3937007874015748},{"duration":0.10714275000000129,"midi":44,"time":60.214225500000005,"velocity":0.3937007874015748},{"duration":0.10714275000000129,"midi":46,"time":60.321368250000006,"velocity":0.3937007874015748},{"duration":0.10714275000000129,"midi":41,"time":60.53565375,"velocity":0.3937007874015748},{"duration":0.10714275000000129,"midi":44,"time":60.6427965,"velocity":0.3937007874015748},{"duration":0.10714275000000129,"midi":39,"time":60.749939250000004,"velocity":0.3937007874015748},{"duration":0.10714275000000129,"midi":46,"time":60.857082000000005,"velocity":0.3937007874015748},{"duration":0.10714275000000129,"midi":41,"time":60.96422475000001,"velocity":0.3937007874015748},{"duration":0.10714274999999418,"midi":44,"time":61.07136750000001,"velocity":0.3937007874015748},{"duration":0.10714275000000129,"midi":53,"time":61.17851025,"velocity":0.3937007874015748},{"duration":0.10714275000000129,"midi":51,"time":61.392795750000005,"velocity":0.3937007874015748},{"duration":0.10714275000000129,"midi":49,"time":61.499938500000006,"velocity":0.3937007874015748},{"duration":0.10714274999999418,"midi":44,"time":61.60708125000001,"velocity":0.3937007874015748},{"duration":0.10714275000000129,"midi":46,"time":61.714224,"velocity":0.3937007874015748},{"duration":0.10714275000000129,"midi":41,"time":61.82136675,"velocity":0.3937007874015748},{"duration":0.10714275000000129,"midi":44,"time":61.928509500000004,"velocity":0.3937007874015748},{"duration":0.10714275000000129,"midi":46,"time":62.035652250000005,"velocity":0.3937007874015748},{"duration":0.10714274999999418,"midi":41,"time":62.24993775000001,"velocity":0.3937007874015748},{"duration":0.10714275000000129,"midi":44,"time":62.3570805,"velocity":0.3937007874015748},{"duration":0.10714275000000129,"midi":39,"time":62.46422325,"velocity":0.3937007874015748},{"duration":0.10714275000000129,"midi":46,"time":62.571366000000005,"velocity":0.3937007874015748},{"duration":0.10714275000000129,"midi":41,"time":62.678508750000006,"velocity":0.3937007874015748},{"duration":0.10714275000000129,"midi":44,"time":62.78565150000001,"velocity":0.3937007874015748},{"duration":0.10714274999999418,"midi":46,"time":62.89279425000001,"velocity":0.3937007874015748},{"duration":0.10714275000000129,"midi":41,"time":63.107079750000004,"velocity":0.3937007874015748},{"duration":0.10714275000000129,"midi":44,"time":63.214222500000005,"velocity":0.3937007874015748},{"duration":0.10714275000000129,"midi":39,"time":63.32136525000001,"velocity":0.3937007874015748},{"duration":0.10714274999999418,"midi":46,"time":63.42850800000001,"velocity":0.3937007874015748},{"duration":0.10714275000000129,"midi":41,"time":63.53565075,"velocity":0.3937007874015748},{"duration":0.10714275000000129,"midi":44,"time":63.6427935,"velocity":0.3937007874015748},{"duration":0.10714275000000129,"midi":46,"time":63.749936250000005,"velocity":0.3937007874015748},{"duration":0.10714274999999418,"midi":41,"time":63.96422175000001,"velocity":0.3937007874015748},{"duration":0.10714275000000839,"midi":44,"time":64.0713645,"velocity":0.3937007874015748},{"duration":0.10714274999999418,"midi":39,"time":64.17850725000001,"velocity":0.3937007874015748},{"duration":0.10714275000000839,"midi":46,"time":64.28565,"velocity":0.3937007874015748},{"duration":0.10714274999999418,"midi":41,"time":64.39279275000001,"velocity":0.3937007874015748},{"duration":0.10714274999999418,"midi":44,"time":64.4999355,"velocity":0.3937007874015748},{"duration":0.10714275000000839,"midi":53,"time":64.60707825,"velocity":0.3937007874015748},{"duration":0.10714275000000839,"midi":51,"time":64.82136375,"velocity":0.3937007874015748},{"duration":0.10714274999999418,"midi":49,"time":64.92850650000001,"velocity":0.3937007874015748},{"duration":0.10714274999999418,"midi":44,"time":65.03564925,"velocity":0.3937007874015748},{"duration":0.10714275000000839,"midi":46,"time":65.142792,"velocity":0.3937007874015748},{"duration":0.10714274999999418,"midi":41,"time":65.24993475000001,"velocity":0.3937007874015748},{"duration":0.10714275000000839,"midi":44,"time":65.3570775,"velocity":0.3937007874015748},{"duration":0.10714274999999418,"midi":46,"time":65.46422025000001,"velocity":0.3937007874015748},{"duration":0.10714275000000839,"midi":41,"time":65.67850575,"velocity":0.3937007874015748},{"duration":0.10714274999999418,"midi":44,"time":65.78564850000001,"velocity":0.3937007874015748},{"duration":0.10714275000000839,"midi":39,"time":65.89279125,"velocity":0.3937007874015748},{"duration":0.10714274999999418,"midi":46,"time":65.99993400000001,"velocity":0.3937007874015748},{"duration":0.10714274999999418,"midi":41,"time":66.10707675,"velocity":0.3937007874015748},{"duration":0.10714275000000839,"midi":44,"time":66.2142195,"velocity":0.3937007874015748},{"duration":0.10714274999999418,"midi":46,"time":66.32136225,"velocity":0.3937007874015748},{"duration":0.10714274999999418,"midi":41,"time":66.53564775000001,"velocity":0.3937007874015748},{"duration":0.10714275000000839,"midi":44,"time":66.6427905,"velocity":0.3937007874015748},{"duration":0.10714274999999418,"midi":39,"time":66.74993325000001,"velocity":0.3937007874015748},{"duration":0.10714274999999418,"midi":46,"time":66.857076,"velocity":0.3937007874015748},{"duration":0.10714275000000839,"midi":41,"time":66.96421875,"velocity":0.3937007874015748},{"duration":0.10714274999999418,"midi":44,"time":67.07136150000001,"velocity":0.3937007874015748},{"duration":0.10714275000000839,"midi":46,"time":67.17850425,"velocity":0.3937007874015748},{"duration":0.10714274999999418,"midi":41,"time":67.39278975,"velocity":0.3937007874015748},{"duration":0.10714275000000839,"midi":44,"time":67.4999325,"velocity":0.3937007874015748},{"duration":0.10714274999999418,"midi":39,"time":67.60707525000001,"velocity":0.3937007874015748},{"duration":0.10714275000000839,"midi":46,"time":67.714218,"velocity":0.3937007874015748},{"duration":0.10714274999999418,"midi":41,"time":67.82136075000001,"velocity":0.3937007874015748},{"duration":0.10714274999999418,"midi":44,"time":67.9285035,"velocity":0.3937007874015748},{"duration":0.10714275000000839,"midi":53,"time":68.03564625,"velocity":0.3937007874015748},{"duration":0.10714275000000839,"midi":51,"time":68.24993175,"velocity":0.3937007874015748},{"duration":0.10714274999999418,"midi":49,"time":68.35707450000001,"velocity":0.3937007874015748},{"duration":0.10714274999999418,"midi":44,"time":68.46421725,"velocity":0.3937007874015748},{"duration":0.053571375000004195,"midi":58,"time":68.57136,"velocity":0.3937007874015748},{"duration":0.10714275000000839,"midi":46,"time":68.57136,"velocity":0.3937007874015748},{"duration":0.053571375000004195,"midi":58,"time":68.624931375,"velocity":0.3937007874015748},{"duration":0.053571375000004195,"midi":58,"time":68.67850275,"velocity":0.3937007874015748},{"duration":0.10714274999999418,"midi":41,"time":68.67850275,"velocity":0.3937007874015748},{"duration":0.053571374999989985,"midi":58,"time":68.73207412500001,"velocity":0.3937007874015748},{"duration":0.10714275000000839,"midi":44,"time":68.7856455,"velocity":0.3937007874015748},{"duration":0.053571375000004195,"midi":58,"time":68.7856455,"velocity":0.3937007874015748},{"duration":0.053571375000004195,"midi":58,"time":68.839216875,"velocity":0.3937007874015748},{"duration":0.053571374999989985,"midi":58,"time":68.89278825000001,"velocity":0.3937007874015748},{"duration":0.10714274999999418,"midi":46,"time":68.89278825000001,"velocity":0.3937007874015748},{"duration":0.053571375000004195,"midi":58,"time":68.946359625,"velocity":0.3937007874015748},{"duration":0.053571375000004195,"midi":58,"time":68.999931,"velocity":0.3937007874015748},{"duration":0.053571375000004195,"midi":58,"time":69.05350237500001,"velocity":0.3937007874015748},{"duration":0.053571374999989985,"midi":58,"time":69.10707375000001,"velocity":0.3937007874015748},{"duration":0.10714274999999418,"midi":41,"time":69.10707375000001,"velocity":0.3937007874015748},{"duration":0.053571375000004195,"midi":58,"time":69.160645125,"velocity":0.3937007874015748},{"duration":0.053571375000004195,"midi":58,"time":69.2142165,"velocity":0.3937007874015748},{"duration":0.10714274999999418,"midi":44,"time":69.2142165,"velocity":0.3937007874015748},{"duration":0.053571374999989985,"midi":58,"time":69.26778787500001,"velocity":0.3937007874015748},{"duration":0.053571375000004195,"midi":58,"time":69.32135925,"velocity":0.3937007874015748},{"duration":0.10714275000000839,"midi":39,"time":69.32135925,"velocity":0.3937007874015748},{"duration":0.053571375000004195,"midi":58,"time":69.374930625,"velocity":0.3937007874015748},{"duration":0.10714274999999418,"midi":46,"time":69.42850200000001,"velocity":0.3937007874015748},{"duration":0.053571374999989985,"midi":58,"time":69.42850200000001,"velocity":0.3937007874015748},{"duration":0.053571375000004195,"midi":58,"time":69.482073375,"velocity":0.3937007874015748},{"duration":0.10714275000000839,"midi":41,"time":69.53564475,"velocity":0.3937007874015748},{"duration":0.053571375000004195,"midi":58,"time":69.53564475,"velocity":0.3937007874015748},{"duration":0.053571375000004195,"midi":58,"time":69.58921612500001,"velocity":0.3937007874015748},{"duration":0.053571374999989985,"midi":58,"time":69.64278750000001,"velocity":0.3937007874015748},{"duration":0.10714274999999418,"midi":44,"time":69.64278750000001,"velocity":0.3937007874015748},{"duration":0.053571375000004195,"midi":58,"time":69.696358875,"velocity":0.3937007874015748},{"duration":0.053571375000004195,"midi":58,"time":69.74993025,"velocity":0.3937007874015748},{"duration":0.10714274999999418,"midi":46,"time":69.74993025,"velocity":0.3937007874015748},{"duration":0.053571374999989985,"midi":58,"time":69.80350162500001,"velocity":0.3937007874015748},{"duration":0.053571375000004195,"midi":58,"time":69.857073,"velocity":0.3937007874015748},{"duration":0.053571375000004195,"midi":58,"time":69.910644375,"velocity":0.3937007874015748},{"duration":0.10714274999999418,"midi":41,"time":69.96421575000001,"velocity":0.3937007874015748},{"duration":0.053571375000004195,"midi":58,"time":69.96421575000001,"velocity":0.3937007874015748},{"duration":0.053571374999989985,"midi":58,"time":70.01778712500001,"velocity":0.3937007874015748},{"duration":0.053571375000004195,"midi":58,"time":70.0713585,"velocity":0.3937007874015748},{"duration":0.10714275000000839,"midi":44,"time":70.0713585,"velocity":0.3937007874015748},{"duration":0.053571375000004195,"midi":58,"time":70.124929875,"velocity":0.3937007874015748},{"duration":0.10714274999999418,"midi":39,"time":70.17850125000001,"velocity":0.3937007874015748},{"duration":0.053571374999989985,"midi":58,"time":70.17850125000001,"velocity":0.3937007874015748},{"duration":0.053571375000004195,"midi":58,"time":70.232072625,"velocity":0.3937007874015748},{"duration":0.053571375000004195,"midi":58,"time":70.285644,"velocity":0.3937007874015748},{"duration":0.10714274999999418,"midi":46,"time":70.285644,"velocity":0.3937007874015748},{"duration":0.053571374999989985,"midi":58,"time":70.33921537500001,"velocity":0.3937007874015748},{"duration":0.10714275000000839,"midi":41,"time":70.39278675,"velocity":0.3937007874015748},{"duration":0.053571375000004195,"midi":58,"time":70.49992950000001,"velocity":0.3937007874015748},{"duration":0.10714274999999418,"midi":44,"time":70.49992950000001,"velocity":0.3937007874015748},{"duration":0.053571374999989985,"midi":58,"time":70.55350087500001,"velocity":0.3937007874015748},{"duration":0.10714275000000839,"midi":46,"time":70.60707225,"velocity":0.3937007874015748},{"duration":0.053571375000004195,"midi":58,"time":70.60707225,"velocity":0.3937007874015748},{"duration":0.053571375000004195,"midi":58,"time":70.660643625,"velocity":0.3937007874015748},{"duration":0.053571374999989985,"midi":56,"time":70.71421500000001,"velocity":0.3937007874015748},{"duration":0.053571375000004195,"midi":56,"time":70.767786375,"velocity":0.3937007874015748},{"duration":0.10714275000000839,"midi":41,"time":70.82135775,"velocity":0.3937007874015748},{"duration":0.053571375000004195,"midi":56,"time":70.82135775,"velocity":0.3937007874015748},{"duration":0.053571375000004195,"midi":56,"time":70.87492912500001,"velocity":0.3937007874015748},{"duration":0.053571374999989985,"midi":58,"time":70.92850050000001,"velocity":0.3937007874015748},{"duration":0.10714274999999418,"midi":44,"time":70.92850050000001,"velocity":0.3937007874015748},{"duration":0.053571375000004195,"midi":58,"time":70.982071875,"velocity":0.3937007874015748},{"duration":0.053571375000004195,"midi":58,"time":71.03564325,"velocity":0.3937007874015748},{"duration":0.10714274999999418,"midi":39,"time":71.03564325,"velocity":0.3937007874015748},{"duration":0.053571374999989985,"midi":58,"time":71.08921462500001,"velocity":0.3937007874015748},{"duration":0.10714275000000839,"midi":46,"time":71.142786,"velocity":0.3937007874015748},{"duration":0.053571375000004195,"midi":65,"time":71.142786,"velocity":0.3937007874015748},{"duration":0.053571375000004195,"midi":65,"time":71.196357375,"velocity":0.3937007874015748},{"duration":0.053571374999989985,"midi":65,"time":71.24992875000001,"velocity":0.3937007874015748},{"duration":0.10714274999999418,"midi":41,"time":71.24992875000001,"velocity":0.3937007874015748},{"duration":0.053571375000004195,"midi":65,"time":71.303500125,"velocity":0.3937007874015748},{"duration":0.053571375000004195,"midi":65,"time":71.3570715,"velocity":0.3937007874015748},{"duration":0.10714275000000839,"midi":44,"time":71.3570715,"velocity":0.3937007874015748},{"duration":0.053571375000004195,"midi":65,"time":71.41064287500001,"velocity":0.3937007874015748},{"duration":0.10714274999999418,"midi":53,"time":71.46421425000001,"velocity":0.3937007874015748},{"duration":0.053571374999989985,"midi":65,"time":71.46421425000001,"velocity":0.3937007874015748},{"duration":0.053571375000004195,"midi":65,"time":71.517785625,"velocity":0.3937007874015748},{"duration":0.053571375000004195,"midi":56,"time":71.571357,"velocity":0.3937007874015748},{"duration":0.053571374999989985,"midi":56,"time":71.62492837500001,"velocity":0.3937007874015748},{"duration":0.10714275000000839,"midi":51,"time":71.67849975,"velocity":0.3937007874015748},{"duration":0.053571375000004195,"midi":56,"time":71.67849975,"velocity":0.3937007874015748},{"duration":0.053571375000004195,"midi":56,"time":71.732071125,"velocity":0.3937007874015748},{"duration":0.10714274999999418,"midi":49,"time":71.78564250000001,"velocity":0.3937007874015748},{"duration":0.053571375000004195,"midi":58,"time":71.78564250000001,"velocity":0.3937007874015748},{"duration":0.053571374999989985,"midi":58,"time":71.83921387500001,"velocity":0.3937007874015748},{"duration":0.10714275000000839,"midi":44,"time":71.89278525,"velocity":0.3937007874015748},{"duration":0.053571375000004195,"midi":58,"time":71.89278525,"velocity":0.3937007874015748},{"duration":0.053571375000004195,"midi":58,"time":71.946356625,"velocity":0.3937007874015748},{"duration":0.10714274999999418,"midi":46,"time":71.99992800000001,"velocity":0.3937007874015748},{"duration":0.053571374999989985,"midi":58,"time":71.99992800000001,"velocity":0.3937007874015748},{"duration":0.053571375000004195,"midi":58,"time":72.053499375,"velocity":0.3937007874015748},{"duration":0.053571375000004195,"midi":58,"time":72.10707075,"velocity":0.3937007874015748},{"duration":0.10714274999999418,"midi":41,"time":72.10707075,"velocity":0.3937007874015748},{"duration":0.053571374999989985,"midi":58,"time":72.16064212500001,"velocity":0.3937007874015748},{"duration":0.10714275000000839,"midi":44,"time":72.2142135,"velocity":0.3937007874015748},{"duration":0.053571375000004195,"midi":58,"time":72.2142135,"velocity":0.3937007874015748},{"duration":0.053571375000004195,"midi":58,"time":72.267784875,"velocity":0.3937007874015748},{"duration":0.10714274999999418,"midi":46,"time":72.32135625000001,"velocity":0.3937007874015748},{"duration":0.053571375000004195,"midi":58,"time":72.32135625000001,"velocity":0.3937007874015748},{"duration":0.053571374999989985,"midi":58,"time":72.37492762500001,"velocity":0.3937007874015748},{"duration":0.053571375000004195,"midi":58,"time":72.428499,"velocity":0.3937007874015748},{"duration":0.053571375000004195,"midi":58,"time":72.482070375,"velocity":0.3937007874015748},{"duration":0.053571374999989985,"midi":58,"time":72.53564175000001,"velocity":0.3937007874015748},{"duration":0.10714274999999418,"midi":41,"time":72.53564175000001,"velocity":0.3937007874015748},{"duration":0.053571375000004195,"midi":58,"time":72.589213125,"velocity":0.3937007874015748},{"duration":0.10714274999999418,"midi":44,"time":72.6427845,"velocity":0.3937007874015748},{"duration":0.053571375000004195,"midi":58,"time":72.6427845,"velocity":0.3937007874015748},{"duration":0.053571374999989985,"midi":58,"time":72.69635587500001,"velocity":0.3937007874015748},{"duration":0.053571375000004195,"midi":58,"time":72.74992725,"velocity":0.3937007874015748},{"duration":0.10714275000000839,"midi":39,"time":72.74992725,"velocity":0.3937007874015748},{"duration":0.053571375000004195,"midi":58,"time":72.803498625,"velocity":0.3937007874015748},{"duration":0.053571375000004195,"midi":58,"time":72.85707000000001,"velocity":0.3937007874015748},{"duration":0.10714274999999418,"midi":46,"time":72.85707000000001,"velocity":0.3937007874015748},{"duration":0.053571374999989985,"midi":58,"time":72.91064137500001,"velocity":0.3937007874015748},{"duration":0.053571375000004195,"midi":58,"time":72.96421275,"velocity":0.3937007874015748},{"duration":0.10714275000000839,"midi":41,"time":72.96421275,"velocity":0.3937007874015748},{"duration":0.053571375000004195,"midi":58,"time":73.017784125,"velocity":0.3937007874015748},{"duration":0.10714274999999418,"midi":44,"time":73.07135550000001,"velocity":0.3937007874015748},{"duration":0.053571374999989985,"midi":58,"time":73.07135550000001,"velocity":0.3937007874015748},{"duration":0.053571375000004195,"midi":58,"time":73.124926875,"velocity":0.3937007874015748},{"duration":0.10714275000000839,"midi":46,"time":73.17849825,"velocity":0.3937007874015748},{"duration":0.053571375000004195,"midi":58,"time":73.17849825,"velocity":0.3937007874015748},{"duration":0.053571375000004195,"midi":58,"time":73.23206962500001,"velocity":0.3937007874015748},{"duration":0.10714274999999418,"midi":41,"time":73.39278375,"velocity":0.3937007874015748},{"duration":0.10714275000000839,"midi":44,"time":73.4999265,"velocity":0.3937007874015748},{"duration":0.10714274999999418,"midi":39,"time":73.60706925000001,"velocity":0.3937007874015748},{"duration":0.10714275000000839,"midi":46,"time":73.714212,"velocity":0.3937007874015748},{"duration":0.10714274999999418,"midi":41,"time":73.82135475000001,"velocity":0.3937007874015748},{"duration":0.10714274999999418,"midi":44,"time":73.9284975,"velocity":0.3937007874015748},{"duration":0.053571375000004195,"midi":58,"time":73.9284975,"velocity":0.3937007874015748},{"duration":0.053571374999989985,"midi":58,"time":73.98206887500001,"velocity":0.3937007874015748},{"duration":0.10714275000000839,"midi":46,"time":74.03564025,"velocity":0.3937007874015748},{"duration":0.053571375000004195,"midi":58,"time":74.03564025,"velocity":0.3937007874015748},{"duration":0.053571375000004195,"midi":58,"time":74.089211625,"velocity":0.3937007874015748},{"duration":0.053571375000004195,"midi":56,"time":74.14278300000001,"velocity":0.3937007874015748},{"duration":0.053571374999989985,"midi":56,"time":74.19635437500001,"velocity":0.3937007874015748},{"duration":0.053571375000004195,"midi":56,"time":74.24992575,"velocity":0.3937007874015748},{"duration":0.10714275000000839,"midi":41,"time":74.24992575,"velocity":0.3937007874015748},{"duration":0.053571375000004195,"midi":56,"time":74.303497125,"velocity":0.3937007874015748},{"duration":0.053571374999989985,"midi":54,"time":74.35706850000001,"velocity":0.3937007874015748},{"duration":0.10714274999999418,"midi":44,"time":74.35706850000001,"velocity":0.3937007874015748},{"duration":0.053571375000004195,"midi":54,"time":74.410639875,"velocity":0.3937007874015748},{"duration":0.053571375000004195,"midi":54,"time":74.46421125,"velocity":0.3937007874015748},{"duration":0.10714274999999418,"midi":39,"time":74.46421125,"velocity":0.3937007874015748},{"duration":0.053571374999989985,"midi":54,"time":74.51778262500001,"velocity":0.3937007874015748},{"duration":0.10714275000000839,"midi":46,"time":74.571354,"velocity":0.3937007874015748},{"duration":0.053571375000004195,"midi":53,"time":74.571354,"velocity":0.3937007874015748},{"duration":0.053571375000004195,"midi":53,"time":74.624925375,"velocity":0.3937007874015748},{"duration":0.10714274999999418,"midi":41,"time":74.67849675000001,"velocity":0.3937007874015748},{"duration":0.053571375000004195,"midi":53,"time":74.67849675000001,"velocity":0.3937007874015748},{"duration":0.053571374999989985,"midi":53,"time":74.73206812500001,"velocity":0.3937007874015748},{"duration":0.10714275000000839,"midi":44,"time":74.7856395,"velocity":0.3937007874015748},{"duration":0.053571375000004195,"midi":53,"time":74.7856395,"velocity":0.3937007874015748},{"duration":0.053571375000004195,"midi":53,"time":74.839210875,"velocity":0.3937007874015748},{"duration":0.053571374999989985,"midi":53,"time":74.89278225000001,"velocity":0.3937007874015748},{"duration":0.10714274999999418,"midi":53,"time":74.89278225000001,"velocity":0.3937007874015748},{"duration":0.053571375000004195,"midi":53,"time":74.946353625,"velocity":0.3937007874015748},{"duration":0.053571375000004195,"midi":56,"time":74.999925,"velocity":0.3937007874015748},{"duration":0.053571375000004195,"midi":56,"time":75.05349637500001,"velocity":0.3937007874015748},{"duration":0.053571374999989985,"midi":56,"time":75.10706775000001,"velocity":0.3937007874015748},{"duration":0.10714274999999418,"midi":51,"time":75.10706775000001,"velocity":0.3937007874015748},{"duration":0.053571375000004195,"midi":56,"time":75.160639125,"velocity":0.3937007874015748},{"duration":0.10714274999999418,"midi":49,"time":75.21421050000001,"velocity":0.3937007874015748},{"duration":0.053571375000004195,"midi":56,"time":75.21421050000001,"velocity":0.3937007874015748},{"duration":0.053571374999989985,"midi":56,"time":75.26778187500001,"velocity":0.3937007874015748},{"duration":0.053571375000004195,"midi":56,"time":75.32135325,"velocity":0.3937007874015748},{"duration":0.10714275000000839,"midi":44,"time":75.32135325,"velocity":0.3937007874015748},{"duration":0.053571375000004195,"midi":56,"time":75.374924625,"velocity":0.3937007874015748},{"duration":0.053571374999989985,"midi":58,"time":75.42849600000001,"velocity":0.3937007874015748},{"duration":0.10714274999999418,"midi":46,"time":75.42849600000001,"velocity":0.3937007874015748},{"duration":0.053571375000004195,"midi":58,"time":75.482067375,"velocity":0.3937007874015748},{"duration":0.053571375000004195,"midi":58,"time":75.53563875,"velocity":0.3937007874015748},{"duration":0.10714275000000839,"midi":41,"time":75.53563875,"velocity":0.3937007874015748},{"duration":0.053571375000004195,"midi":58,"time":75.58921012500001,"velocity":0.3937007874015748},{"duration":0.10714274999999418,"midi":44,"time":75.64278150000001,"velocity":0.3937007874015748},{"duration":0.053571374999989985,"midi":56,"time":75.64278150000001,"velocity":0.3937007874015748},{"duration":0.053571375000004195,"midi":56,"time":75.696352875,"velocity":0.3937007874015748},{"duration":0.10714274999999418,"midi":46,"time":75.74992425,"velocity":0.3937007874015748},{"duration":0.053571375000004195,"midi":56,"time":75.74992425,"velocity":0.3937007874015748},{"duration":0.053571374999989985,"midi":56,"time":75.80349562500001,"velocity":0.3937007874015748},{"duration":0.053571375000004195,"midi":58,"time":75.857067,"velocity":0.3937007874015748},{"duration":0.053571375000004195,"midi":58,"time":75.910638375,"velocity":0.3937007874015748},{"duration":0.10714274999999418,"midi":41,"time":75.96420975000001,"velocity":0.3937007874015748},{"duration":0.053571375000004195,"midi":58,"time":75.96420975000001,"velocity":0.3937007874015748},{"duration":0.053571374999989985,"midi":58,"time":76.01778112500001,"velocity":0.3937007874015748},{"duration":0.10714275000000839,"midi":44,"time":76.0713525,"velocity":0.3937007874015748},{"duration":0.053571375000004195,"midi":65,"time":76.0713525,"velocity":0.3937007874015748},{"duration":0.053571375000004195,"midi":65,"time":76.12492387500001,"velocity":0.3937007874015748},{"duration":0.053571374999989985,"midi":65,"time":76.17849525000001,"velocity":0.3937007874015748},{"duration":0.10714274999999418,"midi":39,"time":76.17849525000001,"velocity":0.3937007874015748},{"duration":0.053571375000004195,"midi":65,"time":76.232066625,"velocity":0.3937007874015748},{"duration":0.10714274999999418,"midi":46,"time":76.285638,"velocity":0.3937007874015748},{"duration":0.053571375000004195,"midi":65,"time":76.285638,"velocity":0.3937007874015748},{"duration":0.053571374999989985,"midi":65,"time":76.33920937500001,"velocity":0.3937007874015748},{"duration":0.053571375000004195,"midi":65,"time":76.39278075,"velocity":0.3937007874015748},{"duration":0.10714275000000839,"midi":41,"time":76.39278075,"velocity":0.3937007874015748},{"duration":0.053571375000004195,"midi":65,"time":76.39278075,"velocity":0.3937007874015748},{"duration":0.053571375000004195,"midi":65,"time":76.446352125,"velocity":0.3937007874015748},{"duration":0.053571375000004195,"midi":65,"time":76.446352125,"velocity":0.3937007874015748},{"duration":0.10714274999999418,"midi":44,"time":76.49992350000001,"velocity":0.3937007874015748},{"duration":0.053571375000004195,"midi":65,"time":76.49992350000001,"velocity":0.3937007874015748},{"duration":0.053571374999989985,"midi":65,"time":76.55349487500001,"velocity":0.3937007874015748},{"duration":0.10714275000000839,"midi":46,"time":76.60706625,"velocity":0.3937007874015748},{"duration":0.053571374999989985,"midi":65,"time":76.71420900000001,"velocity":0.3937007874015748},{"duration":0.053571375000004195,"midi":65,"time":76.767780375,"velocity":0.3937007874015748},{"duration":0.053571375000004195,"midi":65,"time":76.82135175,"velocity":0.3937007874015748},{"duration":0.10714274999999418,"midi":41,"time":76.82135175,"velocity":0.3937007874015748},{"duration":0.053571374999989985,"midi":65,"time":76.87492312500001,"velocity":0.3937007874015748},{"duration":0.10714275000000839,"midi":44,"time":76.9284945,"velocity":0.3937007874015748},{"duration":0.053571375000004195,"midi":66,"time":76.9284945,"velocity":0.3937007874015748},{"duration":0.053571375000004195,"midi":66,"time":76.982065875,"velocity":0.3937007874015748},{"duration":0.053571375000004195,"midi":66,"time":77.03563725000001,"velocity":0.3937007874015748},{"duration":0.10714274999999418,"midi":39,"time":77.03563725000001,"velocity":0.3937007874015748},{"duration":0.053571374999989985,"midi":66,"time":77.08920862500001,"velocity":0.3937007874015748},{"duration":0.10714275000000839,"midi":46,"time":77.14278,"velocity":0.3937007874015748},{"duration":0.053571375000004195,"midi":65,"time":77.14278,"velocity":0.3937007874015748},{"duration":0.053571375000004195,"midi":65,"time":77.196351375,"velocity":0.3937007874015748},{"duration":0.053571374999989985,"midi":65,"time":77.24992275000001,"velocity":0.3937007874015748},{"duration":0.10714274999999418,"midi":41,"time":77.24992275000001,"velocity":0.3937007874015748},{"duration":0.053571375000004195,"midi":65,"time":77.303494125,"velocity":0.3937007874015748},{"duration":0.053571375000004195,"midi":65,"time":77.3570655,"velocity":0.3937007874015748},{"duration":0.10714275000000839,"midi":44,"time":77.3570655,"velocity":0.3937007874015748},{"duration":0.053571375000004195,"midi":65,"time":77.41063687500001,"velocity":0.3937007874015748},{"duration":0.10714274999999418,"midi":46,"time":77.46420825000001,"velocity":0.3937007874015748},{"duration":0.053571374999989985,"midi":65,"time":77.46420825000001,"velocity":0.3937007874015748},{"duration":0.053571375000004195,"midi":65,"time":77.517779625,"velocity":0.3937007874015748},{"duration":0.053571375000004195,"midi":63,"time":77.571351,"velocity":0.3937007874015748},{"duration":0.053571374999989985,"midi":63,"time":77.62492237500001,"velocity":0.3937007874015748},{"duration":0.10714275000000839,"midi":41,"time":77.67849375,"velocity":0.3937007874015748},{"duration":0.053571375000004195,"midi":63,"time":77.67849375,"velocity":0.3937007874015748},{"duration":0.053571375000004195,"midi":63,"time":77.732065125,"velocity":0.3937007874015748},{"duration":0.053571374999989985,"midi":63,"time":77.78563650000001,"velocity":0.3937007874015748},{"duration":0.053571374999989985,"midi":63,"time":77.78563650000001,"velocity":0.3937007874015748},{"duration":0.10714274999999418,"midi":44,"time":77.78563650000001,"velocity":0.3937007874015748},{"duration":0.053571375000004195,"midi":63,"time":77.839207875,"velocity":0.3937007874015748},{"duration":0.053571375000004195,"midi":63,"time":77.839207875,"velocity":0.3937007874015748},{"duration":0.10714275000000839,"midi":39,"time":77.89277925,"velocity":0.3937007874015748},{"duration":0.053571375000004195,"midi":63,"time":77.89277925,"velocity":0.3937007874015748},{"duration":0.053571375000004195,"midi":63,"time":77.94635062500001,"velocity":0.3937007874015748},{"duration":0.053571374999989985,"midi":61,"time":77.99992200000001,"velocity":0.3937007874015748},{"duration":0.10714274999999418,"midi":46,"time":77.99992200000001,"velocity":0.3937007874015748},{"duration":0.053571375000004195,"midi":61,"time":78.053493375,"velocity":0.3937007874015748},{"duration":0.053571375000004195,"midi":61,"time":78.10706475,"velocity":0.3937007874015748},{"duration":0.10714274999999418,"midi":41,"time":78.10706475,"velocity":0.3937007874015748},{"duration":0.053571374999989985,"midi":61,"time":78.16063612500001,"velocity":0.3937007874015748},{"duration":0.053571375000004195,"midi":61,"time":78.2142075,"velocity":0.3937007874015748},{"duration":0.10714275000000839,"midi":44,"time":78.2142075,"velocity":0.3937007874015748},{"duration":0.053571375000004195,"midi":61,"time":78.267778875,"velocity":0.3937007874015748},{"duration":0.053571375000004195,"midi":58,"time":78.32135025000001,"velocity":0.3937007874015748},{"duration":0.10714274999999418,"midi":53,"time":78.32135025000001,"velocity":0.3937007874015748},{"duration":0.053571374999989985,"midi":58,"time":78.37492162500001,"velocity":0.3937007874015748},{"duration":0.053571375000004195,"midi":58,"time":78.428493,"velocity":0.3937007874015748},{"duration":0.053571375000004195,"midi":58,"time":78.48206437500001,"velocity":0.3937007874015748},{"duration":0.053571374999989985,"midi":58,"time":78.53563575000001,"velocity":0.3937007874015748},{"duration":0.10714274999999418,"midi":51,"time":78.53563575000001,"velocity":0.3937007874015748},{"duration":0.053571375000004195,"midi":58,"time":78.589207125,"velocity":0.3937007874015748},{"duration":0.10714274999999418,"midi":49,"time":78.6427785,"velocity":0.3937007874015748},{"duration":0.053571375000004195,"midi":60,"time":78.6427785,"velocity":0.3937007874015748},{"duration":0.053571374999989985,"midi":60,"time":78.69634987500001,"velocity":0.3937007874015748},{"duration":0.053571375000004195,"midi":60,"time":78.74992125,"velocity":0.3937007874015748},{"duration":0.10714275000000839,"midi":44,"time":78.74992125,"velocity":0.3937007874015748},{"duration":0.053571375000004195,"midi":60,"time":78.803492625,"velocity":0.3937007874015748},{"duration":0.053571375000004195,"midi":60,"time":78.85706400000001,"velocity":0.3937007874015748},{"duration":0.10714274999999418,"midi":46,"time":78.85706400000001,"velocity":0.3937007874015748},{"duration":0.053571374999989985,"midi":60,"time":78.91063537500001,"velocity":0.3937007874015748},{"duration":0.053571375000004195,"midi":60,"time":78.96420675,"velocity":0.3937007874015748},{"duration":0.10714275000000839,"midi":41,"time":78.96420675,"velocity":0.3937007874015748},{"duration":0.053571375000004195,"midi":60,"time":79.017778125,"velocity":0.3937007874015748},{"duration":0.053571374999989985,"midi":60,"time":79.07134950000001,"velocity":0.3937007874015748},{"duration":0.10714274999999418,"midi":44,"time":79.07134950000001,"velocity":0.3937007874015748},{"duration":0.053571375000004195,"midi":60,"time":79.124920875,"velocity":0.3937007874015748},{"duration":0.053571375000004195,"midi":60,"time":79.17849225,"velocity":0.3937007874015748},{"duration":0.10714275000000839,"midi":46,"time":79.17849225,"velocity":0.3937007874015748},{"duration":0.053571375000004195,"midi":60,"time":79.23206362500001,"velocity":0.3937007874015748},{"duration":0.053571374999989985,"midi":60,"time":79.28563500000001,"velocity":0.3937007874015748},{"duration":0.053571375000004195,"midi":60,"time":79.339206375,"velocity":0.3937007874015748},{"duration":0.053571375000004195,"midi":60,"time":79.39277775000001,"velocity":0.3937007874015748},{"duration":0.10714274999999418,"midi":41,"time":79.39277775000001,"velocity":0.3937007874015748},{"duration":0.053571374999989985,"midi":60,"time":79.44634912500001,"velocity":0.3937007874015748},{"duration":0.053571375000004195,"midi":60,"time":79.4999205,"velocity":0.3937007874015748},{"duration":0.10714275000000839,"midi":44,"time":79.4999205,"velocity":0.3937007874015748},{"duration":0.053571375000004195,"midi":60,"time":79.553491875,"velocity":0.3937007874015748},{"duration":0.10714274999999418,"midi":39,"time":79.60706325000001,"velocity":0.3937007874015748},{"duration":0.053571374999989985,"midi":60,"time":79.60706325000001,"velocity":0.3937007874015748},{"duration":0.053571375000004195,"midi":60,"time":79.660634625,"velocity":0.3937007874015748},{"duration":0.10714275000000839,"midi":46,"time":79.714206,"velocity":0.3937007874015748},{"duration":0.053571375000004195,"midi":60,"time":79.714206,"velocity":0.3937007874015748},{"duration":0.053571375000004195,"midi":60,"time":79.76777737500001,"velocity":0.3937007874015748},{"duration":0.10714274999999418,"midi":41,"time":79.82134875000001,"velocity":0.3937007874015748},{"duration":0.053571374999989985,"midi":60,"time":79.82134875000001,"velocity":0.3937007874015748},{"duration":0.053571375000004195,"midi":60,"time":79.874920125,"velocity":0.3937007874015748},{"duration":0.053571375000004195,"midi":60,"time":79.9284915,"velocity":0.3937007874015748},{"duration":0.10714274999999418,"midi":44,"time":79.9284915,"velocity":0.3937007874015748},{"duration":0.053571374999989985,"midi":60,"time":79.98206287500001,"velocity":0.3937007874015748},{"duration":0.053571375000004195,"midi":60,"time":80.03563425,"velocity":0.3937007874015748},{"duration":0.10714275000000839,"midi":46,"time":80.03563425,"velocity":0.3937007874015748},{"duration":0.053571375000004195,"midi":60,"time":80.089205625,"velocity":0.3937007874015748},{"duration":0.053571375000004195,"midi":61,"time":80.14277700000001,"velocity":0.3937007874015748},{"duration":0.053571374999989985,"midi":61,"time":80.19634837500001,"velocity":0.3937007874015748},{"duration":0.053571375000004195,"midi":61,"time":80.24991975,"velocity":0.3937007874015748},{"duration":0.10714275000000839,"midi":41,"time":80.24991975,"velocity":0.3937007874015748},{"duration":0.053571375000004195,"midi":61,"time":80.30349112500001,"velocity":0.3937007874015748},{"duration":0.10714274999999418,"midi":44,"time":80.35706250000001,"velocity":0.3937007874015748},{"duration":0.053571374999989985,"midi":61,"time":80.35706250000001,"velocity":0.3937007874015748},{"duration":0.053571375000004195,"midi":61,"time":80.410633875,"velocity":0.3937007874015748},{"duration":0.10714274999999418,"midi":39,"time":80.46420525,"velocity":0.3937007874015748},{"duration":0.053571375000004195,"midi":61,"time":80.46420525,"velocity":0.3937007874015748},{"duration":0.053571374999989985,"midi":61,"time":80.51777662500001,"velocity":0.3937007874015748},{"duration":0.053571375000004195,"midi":60,"time":80.571348,"velocity":0.3937007874015748},{"duration":0.10714275000000839,"midi":46,"time":80.571348,"velocity":0.3937007874015748},{"duration":0.053571375000004195,"midi":60,"time":80.624919375,"velocity":0.3937007874015748},{"duration":0.10714274999999418,"midi":41,"time":80.67849075000001,"velocity":0.3937007874015748},{"duration":0.053571375000004195,"midi":60,"time":80.67849075000001,"velocity":0.3937007874015748},{"duration":0.053571374999989985,"midi":60,"time":80.73206212500001,"velocity":0.3937007874015748},{"duration":0.10714275000000839,"midi":44,"time":80.7856335,"velocity":0.3937007874015748},{"duration":0.053571375000004195,"midi":60,"time":80.7856335,"velocity":0.3937007874015748},{"duration":0.053571375000004195,"midi":60,"time":80.83920487500001,"velocity":0.3937007874015748},{"duration":0.10714274999999418,"midi":46,"time":80.89277625000001,"velocity":0.3937007874015748},{"duration":0.053571374999989985,"midi":60,"time":80.89277625000001,"velocity":0.3937007874015748},{"duration":0.053571375000004195,"midi":60,"time":80.946347625,"velocity":0.3937007874015748},{"duration":0.053571375000004195,"midi":60,"time":80.999919,"velocity":0.3937007874015748},{"duration":0.053571374999989985,"midi":60,"time":81.05349037500001,"velocity":0.3937007874015748},{"duration":0.10714275000000839,"midi":41,"time":81.10706175,"velocity":0.3937007874015748},{"duration":0.053571375000004195,"midi":60,"time":81.10706175,"velocity":0.3937007874015748},{"duration":0.053571375000004195,"midi":60,"time":81.160633125,"velocity":0.3937007874015748},{"duration":0.053571375000004195,"midi":60,"time":81.21420450000001,"velocity":0.3937007874015748},{"duration":0.10714274999999418,"midi":44,"time":81.21420450000001,"velocity":0.3937007874015748},{"duration":0.053571374999989985,"midi":60,"time":81.26777587500001,"velocity":0.3937007874015748},{"duration":0.10714275000000839,"midi":39,"time":81.32134725,"velocity":0.3937007874015748},{"duration":0.053571375000004195,"midi":60,"time":81.32134725,"velocity":0.3937007874015748},{"duration":0.053571375000004195,"midi":60,"time":81.374918625,"velocity":0.3937007874015748},{"duration":0.053571374999989985,"midi":58,"time":81.42849000000001,"velocity":0.3937007874015748},{"duration":0.10714274999999418,"midi":46,"time":81.42849000000001,"velocity":0.3937007874015748},{"duration":0.053571375000004195,"midi":58,"time":81.482061375,"velocity":0.3937007874015748},{"duration":0.053571375000004195,"midi":58,"time":81.53563275,"velocity":0.3937007874015748},{"duration":0.10714275000000839,"midi":41,"time":81.53563275,"velocity":0.3937007874015748},{"duration":0.053571375000004195,"midi":58,"time":81.58920412500001,"velocity":0.3937007874015748},{"duration":0.10714274999999418,"midi":44,"time":81.64277550000001,"velocity":0.3937007874015748},{"duration":0.053571374999989985,"midi":58,"time":81.64277550000001,"velocity":0.3937007874015748},{"duration":0.053571375000004195,"midi":58,"time":81.696346875,"velocity":0.3937007874015748},{"duration":0.10714274999999418,"midi":53,"time":81.74991825000001,"velocity":0.3937007874015748},{"duration":0.053571375000004195,"midi":58,"time":81.74991825000001,"velocity":0.3937007874015748},{"duration":0.053571374999989985,"midi":58,"time":81.80348962500001,"velocity":0.3937007874015748},{"duration":0.053571375000004195,"midi":58,"time":81.857061,"velocity":0.3937007874015748},{"duration":0.053571375000004195,"midi":58,"time":81.910632375,"velocity":0.3937007874015748},{"duration":0.10714274999999418,"midi":51,"time":81.96420375000001,"velocity":0.3937007874015748},{"duration":0.053571374999989985,"midi":58,"time":81.96420375000001,"velocity":0.3937007874015748},{"duration":0.053571375000004195,"midi":58,"time":82.017775125,"velocity":0.3937007874015748},{"duration":0.10714275000000839,"midi":49,"time":82.0713465,"velocity":0.3937007874015748},{"duration":0.053571375000004195,"midi":58,"time":82.0713465,"velocity":0.3937007874015748},{"duration":0.053571375000004195,"midi":58,"time":82.12491787500001,"velocity":0.3937007874015748},{"duration":0.10714274999999418,"midi":44,"time":82.17848925000001,"velocity":0.3937007874015748},{"duration":0.10714274999999418,"midi":46,"time":82.285632,"velocity":0.3937007874015748},{"duration":0.10714275000000839,"midi":41,"time":82.39277475,"velocity":0.3937007874015748},{"duration":0.10714274999999418,"midi":44,"time":82.49991750000001,"velocity":0.3937007874015748},{"duration":0.10714275000000839,"midi":46,"time":82.60706025,"velocity":0.3937007874015748},{"duration":0.10714274999999418,"midi":41,"time":82.82134575,"velocity":0.3937007874015748},{"duration":0.10714275000000839,"midi":44,"time":82.9284885,"velocity":0.3937007874015748},{"duration":0.10714274999999418,"midi":39,"time":83.03563125000001,"velocity":0.3937007874015748},{"duration":0.10714275000000839,"midi":46,"time":83.142774,"velocity":0.3937007874015748},{"duration":0.10714274999999418,"midi":41,"time":83.24991675000001,"velocity":0.3937007874015748},{"duration":0.10714275000000839,"midi":44,"time":83.3570595,"velocity":0.3937007874015748},{"duration":0.10714274999999418,"midi":46,"time":83.46420225000001,"velocity":0.3937007874015748},{"duration":0.10714275000000839,"midi":41,"time":83.67848775,"velocity":0.3937007874015748},{"duration":0.10714274999999418,"midi":44,"time":83.78563050000001,"velocity":0.3937007874015748},{"duration":0.10714275000000839,"midi":39,"time":83.89277325,"velocity":0.3937007874015748},{"duration":0.10714274999999418,"midi":46,"time":83.99991600000001,"velocity":0.3937007874015748},{"duration":0.10714274999999418,"midi":41,"time":84.10705875000001,"velocity":0.3937007874015748},{"duration":0.10714275000000839,"midi":44,"time":84.2142015,"velocity":0.3937007874015748},{"duration":0.10714274999999418,"midi":46,"time":84.32134425000001,"velocity":0.3937007874015748},{"duration":0.10714274999999418,"midi":41,"time":84.53562975000001,"velocity":0.3937007874015748},{"duration":0.10714274999999418,"midi":44,"time":84.6427725,"velocity":0.3937007874015748},{"duration":0.10714275000000839,"midi":39,"time":84.74991525,"velocity":0.3937007874015748},{"duration":0.10714274999999418,"midi":46,"time":84.85705800000001,"velocity":0.3937007874015748},{"duration":0.10714275000000839,"midi":41,"time":84.96420075,"velocity":0.3937007874015748},{"duration":0.10714274999999418,"midi":44,"time":85.07134350000001,"velocity":0.3937007874015748},{"duration":0.10714274999999418,"midi":53,"time":85.17848625,"velocity":0.3937007874015748},{"duration":0.10714274999999418,"midi":51,"time":85.39277175000001,"velocity":0.3937007874015748},{"duration":0.10714275000000839,"midi":49,"time":85.4999145,"velocity":0.3937007874015748},{"duration":0.10714274999999418,"midi":44,"time":85.60705725000001,"velocity":0.3937007874015748},{"duration":0.10714275000000839,"midi":46,"time":85.7142,"velocity":0.3937007874015748},{"duration":0.10714274999999418,"midi":41,"time":85.82134275000001,"velocity":0.3937007874015748},{"duration":0.10714274999999418,"midi":44,"time":85.92848550000001,"velocity":0.3937007874015748},{"duration":0.10714275000000839,"midi":46,"time":86.03562825,"velocity":0.3937007874015748},{"duration":0.10714275000000839,"midi":41,"time":86.24991375,"velocity":0.3937007874015748},{"duration":0.10714274999999418,"midi":44,"time":86.35705650000001,"velocity":0.3937007874015748},{"duration":0.10714274999999418,"midi":39,"time":86.46419925000001,"velocity":0.3937007874015748},{"duration":0.10714275000000839,"midi":46,"time":86.571342,"velocity":0.3937007874015748},{"duration":0.10714274999999418,"midi":41,"time":86.67848475000001,"velocity":0.3937007874015748},{"duration":0.10714275000000839,"midi":44,"time":86.7856275,"velocity":0.3937007874015748},{"duration":0.10714274999999418,"midi":46,"time":86.89277025000001,"velocity":0.3937007874015748},{"duration":0.10714275000000839,"midi":41,"time":87.10705575,"velocity":0.3937007874015748},{"duration":0.10714274999999418,"midi":44,"time":87.21419850000001,"velocity":0.3937007874015748},{"duration":0.10714275000000839,"midi":39,"time":87.32134125,"velocity":0.3937007874015748},{"duration":0.10714274999999418,"midi":46,"time":87.42848400000001,"velocity":0.3937007874015748},{"duration":0.10714275000000839,"midi":41,"time":87.53562675,"velocity":0.3937007874015748},{"duration":0.10714274999999418,"midi":44,"time":87.64276950000001,"velocity":0.3937007874015748},{"duration":0.10714274999999418,"midi":46,"time":87.74991225000001,"velocity":0.3937007874015748},{"duration":0.10714274999999418,"midi":41,"time":87.96419775000001,"velocity":0.3937007874015748},{"duration":0.10714275000000839,"midi":44,"time":88.0713405,"velocity":0.3937007874015748},{"duration":0.10714274999999418,"midi":39,"time":88.17848325000001,"velocity":0.3937007874015748},{"duration":0.10714274999999418,"midi":46,"time":88.28562600000001,"velocity":0.3937007874015748},{"duration":0.10714275000000839,"midi":41,"time":88.39276875,"velocity":0.3937007874015748},{"duration":0.10714274999999418,"midi":44,"time":88.49991150000001,"velocity":0.3937007874015748},{"duration":0.10714275000000839,"midi":53,"time":88.60705425,"velocity":0.3937007874015748},{"duration":0.10714274999999418,"midi":51,"time":88.82133975,"velocity":0.3937007874015748},{"duration":0.10714275000000839,"midi":49,"time":88.9284825,"velocity":0.3937007874015748},{"duration":0.10714274999999418,"midi":44,"time":89.03562525000001,"velocity":0.3937007874015748},{"duration":0.10714275000000839,"midi":46,"time":89.142768,"velocity":0.3937007874015748},{"duration":0.10714274999999418,"midi":41,"time":89.24991075000001,"velocity":0.3937007874015748},{"duration":0.10714274999999418,"midi":44,"time":89.3570535,"velocity":0.3937007874015748},{"duration":0.10714275000000839,"midi":46,"time":89.46419625,"velocity":0.3937007874015748},{"duration":0.10714275000000839,"midi":41,"time":89.67848175,"velocity":0.3937007874015748},{"duration":0.10714274999999418,"midi":44,"time":89.78562450000001,"velocity":0.3937007874015748},{"duration":0.10714275000000839,"midi":39,"time":89.89276725,"velocity":0.3937007874015748},{"duration":0.10714274999999418,"midi":46,"time":89.99991000000001,"velocity":0.3937007874015748},{"duration":0.10714274999999418,"midi":41,"time":90.10705275000001,"velocity":0.3937007874015748},{"duration":0.10714275000000839,"midi":44,"time":90.2141955,"velocity":0.3937007874015748},{"duration":0.10714274999999418,"midi":46,"time":90.32133825000001,"velocity":0.3937007874015748},{"duration":0.10714274999999418,"midi":41,"time":90.53562375000001,"velocity":0.3937007874015748},{"duration":0.10714274999999418,"midi":44,"time":90.64276650000001,"velocity":0.3937007874015748},{"duration":0.10714275000000839,"midi":39,"time":90.74990925,"velocity":0.3937007874015748},{"duration":0.10714274999999418,"midi":46,"time":90.85705200000001,"velocity":0.3937007874015748},{"duration":0.10714275000000839,"midi":41,"time":90.96419475,"velocity":0.3937007874015748},{"duration":0.10714274999999418,"midi":44,"time":91.07133750000001,"velocity":0.3937007874015748},{"duration":0.10714274999999418,"midi":46,"time":91.17848025,"velocity":0.3937007874015748},{"duration":0.10714274999999418,"midi":41,"time":91.39276575000001,"velocity":0.3937007874015748},{"duration":0.10714275000000839,"midi":44,"time":91.4999085,"velocity":0.3937007874015748},{"duration":0.10714274999999418,"midi":39,"time":91.60705125000001,"velocity":0.3937007874015748},{"duration":0.10714275000000839,"midi":46,"time":91.714194,"velocity":0.3937007874015748},{"duration":0.10714274999999418,"midi":41,"time":91.82133675000001,"velocity":0.3937007874015748},{"duration":0.10714274999999418,"midi":44,"time":91.92847950000001,"velocity":0.3937007874015748},{"duration":0.10714275000000839,"midi":53,"time":92.03562225,"velocity":0.3937007874015748},{"duration":0.10714275000000839,"midi":51,"time":92.24990775,"velocity":0.3937007874015748},{"duration":0.10714274999999418,"midi":49,"time":92.35705050000001,"velocity":0.3937007874015748},{"duration":0.10714274999999418,"midi":44,"time":92.46419325000001,"velocity":0.3937007874015748},{"duration":0.10714275000000839,"midi":46,"time":92.571336,"velocity":0.3937007874015748},{"duration":0.10714274999999418,"midi":41,"time":92.67847875000001,"velocity":0.3937007874015748},{"duration":0.10714275000000839,"midi":44,"time":92.7856215,"velocity":0.3937007874015748},{"duration":0.10714274999999418,"midi":46,"time":92.89276425000001,"velocity":0.3937007874015748},{"duration":0.10714275000000839,"midi":41,"time":93.10704975,"velocity":0.3937007874015748},{"duration":0.10714274999999418,"midi":44,"time":93.21419250000001,"velocity":0.3937007874015748},{"duration":0.10714275000000839,"midi":39,"time":93.32133525,"velocity":0.3937007874015748},{"duration":0.10714274999999418,"midi":46,"time":93.42847800000001,"velocity":0.3937007874015748},{"duration":0.10714274999999418,"midi":41,"time":93.53562075,"velocity":0.3937007874015748},{"duration":0.10714275000000839,"midi":44,"time":93.6427635,"velocity":0.3937007874015748},{"duration":0.10714274999999418,"midi":46,"time":93.74990625000001,"velocity":0.3937007874015748},{"duration":0.10714274999999418,"midi":41,"time":93.96419175000001,"velocity":0.3937007874015748},{"duration":0.10714275000000839,"midi":44,"time":94.0713345,"velocity":0.3937007874015748},{"duration":0.10714274999999418,"midi":39,"time":94.17847725000001,"velocity":0.3937007874015748},{"duration":0.10714274999999418,"midi":46,"time":94.28562000000001,"velocity":0.3937007874015748},{"duration":0.10714275000000839,"midi":41,"time":94.39276275,"velocity":0.3937007874015748},{"duration":0.10714274999999418,"midi":44,"time":94.49990550000001,"velocity":0.3937007874015748},{"duration":0.10714275000000839,"midi":46,"time":94.60704825,"velocity":0.3937007874015748},{"duration":0.10714274999999418,"midi":41,"time":94.82133375000001,"velocity":0.3937007874015748},{"duration":0.10714275000000839,"midi":44,"time":94.9284765,"velocity":0.3937007874015748},{"duration":0.10714274999999418,"midi":39,"time":95.03561925000001,"velocity":0.3937007874015748},{"duration":0.10714275000000839,"midi":46,"time":95.142762,"velocity":0.3937007874015748},{"duration":0.10714274999999418,"midi":41,"time":95.24990475000001,"velocity":0.3937007874015748},{"duration":0.10714274999999418,"midi":44,"time":95.35704750000001,"velocity":0.3937007874015748},{"duration":0.10714275000000839,"midi":53,"time":95.46419025,"velocity":0.3937007874015748},{"duration":0.10714275000000839,"midi":51,"time":95.67847575,"velocity":0.3937007874015748},{"duration":0.10714274999999418,"midi":49,"time":95.78561850000001,"velocity":0.3937007874015748},{"duration":0.10714275000000839,"midi":44,"time":95.89276125,"velocity":0.3937007874015748},{"duration":0.10714274999999418,"midi":46,"time":95.99990400000002,"velocity":0.3937007874015748},{"duration":0.10714274999999418,"midi":41,"time":96.10704675000001,"velocity":0.3937007874015748},{"duration":0.10714275000000839,"midi":44,"time":96.2141895,"velocity":0.3937007874015748},{"duration":0.10714274999999418,"midi":46,"time":96.32133225000001,"velocity":0.3937007874015748},{"duration":0.10714274999999418,"midi":41,"time":96.53561775000001,"velocity":0.3937007874015748},{"duration":0.10714274999999418,"midi":44,"time":96.64276050000001,"velocity":0.3937007874015748},{"duration":0.10714275000000839,"midi":39,"time":96.74990325,"velocity":0.3937007874015748},{"duration":0.10714274999999418,"midi":46,"time":96.85704600000001,"velocity":0.3937007874015748},{"duration":0.10714275000000839,"midi":41,"time":96.96418875,"velocity":0.3937007874015748},{"duration":0.10714274999999418,"midi":44,"time":97.07133150000001,"velocity":0.3937007874015748},{"duration":0.10714274999999418,"midi":46,"time":97.17847425000001,"velocity":0.3937007874015748},{"duration":0.10714274999999418,"midi":41,"time":97.39275975000001,"velocity":0.3937007874015748},{"duration":0.10714275000000839,"midi":44,"time":97.4999025,"velocity":0.3937007874015748},{"duration":0.10714274999999418,"midi":39,"time":97.60704525000001,"velocity":0.3937007874015748},{"duration":0.10714274999999418,"midi":46,"time":97.71418800000001,"velocity":0.3937007874015748},{"duration":0.10714275000000839,"midi":41,"time":97.82133075,"velocity":0.3937007874015748},{"duration":0.10714274999999418,"midi":44,"time":97.92847350000001,"velocity":0.3937007874015748},{"duration":0.10714275000000839,"midi":46,"time":98.03561625,"velocity":0.3937007874015748},{"duration":0.10714275000000839,"midi":41,"time":98.24990175,"velocity":0.3937007874015748},{"duration":0.10714274999999418,"midi":44,"time":98.35704450000001,"velocity":0.3937007874015748},{"duration":0.10714274999999418,"midi":39,"time":98.46418725000001,"velocity":0.3937007874015748},{"duration":0.10714275000000839,"midi":46,"time":98.57133,"velocity":0.3937007874015748},{"duration":0.10714274999999418,"midi":41,"time":98.67847275000001,"velocity":0.3937007874015748},{"duration":0.10714275000000839,"midi":44,"time":98.7856155,"velocity":0.3937007874015748},{"duration":0.10714274999999418,"midi":53,"time":98.89275825000001,"velocity":0.3937007874015748},{"duration":0.10714275000000839,"midi":51,"time":99.10704375,"velocity":0.3937007874015748},{"duration":0.10714274999999418,"midi":49,"time":99.21418650000001,"velocity":0.3937007874015748},{"duration":0.10714275000000839,"midi":44,"time":99.32132925,"velocity":0.3937007874015748},{"duration":0.10714274999999418,"midi":46,"time":99.42847200000001,"velocity":0.3937007874015748},{"duration":0.10714274999999418,"midi":41,"time":99.53561475000001,"velocity":0.3937007874015748},{"duration":0.10714275000000839,"midi":44,"time":99.6427575,"velocity":0.3937007874015748},{"duration":0.10714274999999418,"midi":46,"time":99.74990025000001,"velocity":0.3937007874015748},{"duration":0.10714274999999418,"midi":41,"time":99.96418575000001,"velocity":0.3937007874015748},{"duration":0.10714274999999418,"midi":44,"time":100.0713285,"velocity":0.3937007874015748},{"duration":0.10714275000000839,"midi":39,"time":100.17847125,"velocity":0.3937007874015748},{"duration":0.10714274999999418,"midi":46,"time":100.28561400000001,"velocity":0.3937007874015748},{"duration":0.10714275000000839,"midi":41,"time":100.39275675,"velocity":0.3937007874015748},{"duration":0.10714274999999418,"midi":44,"time":100.49989950000001,"velocity":0.3937007874015748},{"duration":0.10714275000000839,"midi":46,"time":100.60704225,"velocity":0.3937007874015748},{"duration":0.10714274999999418,"midi":41,"time":100.82132775000001,"velocity":0.3937007874015748},{"duration":0.10714275000000839,"midi":44,"time":100.9284705,"velocity":0.3937007874015748},{"duration":0.10714274999999418,"midi":39,"time":101.03561325000001,"velocity":0.3937007874015748},{"duration":0.10714275000000839,"midi":46,"time":101.142756,"velocity":0.3937007874015748},{"duration":0.10714274999999418,"midi":41,"time":101.24989875000001,"velocity":0.3937007874015748},{"duration":0.10714274999999418,"midi":44,"time":101.35704150000001,"velocity":0.3937007874015748},{"duration":0.10714275000000839,"midi":46,"time":101.46418425,"velocity":0.3937007874015748},{"duration":0.10714275000000839,"midi":41,"time":101.67846975,"velocity":0.3937007874015748},{"duration":0.10714274999999418,"midi":44,"time":101.78561250000001,"velocity":0.3937007874015748},{"duration":0.10714274999999418,"midi":39,"time":101.89275525000001,"velocity":0.3937007874015748},{"duration":0.10714275000000839,"midi":46,"time":101.999898,"velocity":0.3937007874015748},{"duration":0.10714274999999418,"midi":41,"time":102.10704075000001,"velocity":0.3937007874015748},{"duration":0.10714275000000839,"midi":44,"time":102.2141835,"velocity":0.3937007874015748},{"duration":0.10714274999999418,"midi":53,"time":102.32132625000001,"velocity":0.3937007874015748},{"duration":0.10714274999999418,"midi":51,"time":102.53561175000002,"velocity":0.3937007874015748},{"duration":0.10714274999999418,"midi":49,"time":102.64275450000001,"velocity":0.3937007874015748},{"duration":0.10714275000000839,"midi":44,"time":102.74989725,"velocity":0.3937007874015748},{"duration":0.10714274999999418,"midi":46,"time":102.85704000000001,"velocity":0.3937007874015748},{"duration":0.10714275000000839,"midi":41,"time":102.96418275,"velocity":0.3937007874015748},{"duration":0.10714274999999418,"midi":44,"time":103.07132550000001,"velocity":0.3937007874015748},{"duration":0.10714274999999418,"midi":46,"time":103.17846825000001,"velocity":0.3937007874015748},{"duration":0.10714274999999418,"midi":41,"time":103.39275375000001,"velocity":0.3937007874015748},{"duration":0.10714275000000839,"midi":44,"time":103.4998965,"velocity":0.3937007874015748},{"duration":0.10714274999999418,"midi":39,"time":103.60703925000001,"velocity":0.3937007874015748},{"duration":0.10714274999999418,"midi":46,"time":103.71418200000001,"velocity":0.3937007874015748},{"duration":0.10714275000000839,"midi":41,"time":103.82132475,"velocity":0.3937007874015748},{"duration":0.10714274999999418,"midi":44,"time":103.92846750000001,"velocity":0.3937007874015748},{"duration":0.10714275000000839,"midi":46,"time":104.03561025,"velocity":0.3937007874015748},{"duration":0.10714274999999418,"midi":41,"time":104.24989575000001,"velocity":0.3937007874015748},{"duration":0.10714275000000839,"midi":44,"time":104.3570385,"velocity":0.3937007874015748},{"duration":0.10714274999999418,"midi":39,"time":104.46418125000001,"velocity":0.3937007874015748},{"duration":0.10714275000000839,"midi":46,"time":104.571324,"velocity":0.3937007874015748},{"duration":0.10714274999999418,"midi":41,"time":104.67846675000001,"velocity":0.3937007874015748},{"duration":0.10714275000000839,"midi":44,"time":104.7856095,"velocity":0.3937007874015748},{"duration":0.10714274999999418,"midi":46,"time":104.89275225000002,"velocity":0.3937007874015748},{"duration":0.10714275000000839,"midi":41,"time":105.10703775,"velocity":0.3937007874015748},{"duration":0.10714274999999418,"midi":44,"time":105.21418050000001,"velocity":0.3937007874015748},{"duration":0.10714275000000839,"midi":39,"time":105.32132325,"velocity":0.3937007874015748},{"duration":0.10714274999999418,"midi":46,"time":105.42846600000001,"velocity":0.3937007874015748},{"duration":0.10714274999999418,"midi":41,"time":105.53560875000001,"velocity":0.3937007874015748},{"duration":0.10714275000000839,"midi":44,"time":105.6427515,"velocity":0.3937007874015748},{"duration":0.10714274999999418,"midi":53,"time":105.74989425000001,"velocity":0.3937007874015748},{"duration":0.10714274999999418,"midi":51,"time":105.96417975000001,"velocity":0.3937007874015748},{"duration":0.10714274999999418,"midi":49,"time":106.07132250000001,"velocity":0.3937007874015748},{"duration":0.10714275000000839,"midi":44,"time":106.17846525,"velocity":0.3937007874015748},{"duration":0.10714274999999418,"midi":46,"time":106.28560800000001,"velocity":0.3937007874015748},{"duration":0.10714275000000839,"midi":41,"time":106.39275075,"velocity":0.3937007874015748},{"duration":0.10714274999999418,"midi":44,"time":106.49989350000001,"velocity":0.3937007874015748},{"duration":0.10714275000000839,"midi":46,"time":106.60703625000001,"velocity":0.3937007874015748},{"duration":0.10714274999999418,"midi":41,"time":106.82132175000001,"velocity":0.3937007874015748},{"duration":0.10714275000000839,"midi":44,"time":106.9284645,"velocity":0.3937007874015748},{"duration":0.10714274999999418,"midi":39,"time":107.03560725000001,"velocity":0.3937007874015748},{"duration":0.10714275000000839,"midi":46,"time":107.14275,"velocity":0.3937007874015748},{"duration":0.10714274999999418,"midi":41,"time":107.24989275000001,"velocity":0.3937007874015748},{"duration":0.10714274999999418,"midi":44,"time":107.35703550000001,"velocity":0.3937007874015748},{"duration":0.10714275000000839,"midi":46,"time":107.46417825,"velocity":0.3937007874015748},{"duration":0.10714275000000839,"midi":41,"time":107.67846375,"velocity":0.3937007874015748},{"duration":0.10714274999999418,"midi":44,"time":107.78560650000001,"velocity":0.3937007874015748},{"duration":0.10714274999999418,"midi":39,"time":107.89274925000001,"velocity":0.3937007874015748},{"duration":0.10714274999999418,"midi":46,"time":109.71417600000001,"velocity":0.3937007874015748},{"duration":0.10714275000000839,"midi":41,"time":109.82131875,"velocity":0.3937007874015748},{"duration":0.10714274999999418,"midi":44,"time":109.92846150000001,"velocity":0.3937007874015748},{"duration":0.10714275000000839,"midi":46,"time":110.03560425,"velocity":0.3937007874015748},{"duration":0.10714274999999418,"midi":41,"time":110.24988975000001,"velocity":0.3937007874015748},{"duration":0.10714275000000839,"midi":44,"time":110.3570325,"velocity":0.3937007874015748},{"duration":0.10714274999999418,"midi":39,"time":110.46417525000001,"velocity":0.3937007874015748},{"duration":0.10714275000000839,"midi":46,"time":110.571318,"velocity":0.3937007874015748},{"duration":0.10714274999999418,"midi":41,"time":110.67846075000001,"velocity":0.3937007874015748},{"duration":0.10714275000000839,"midi":44,"time":110.78560350000001,"velocity":0.3937007874015748},{"duration":0.10714274999999418,"midi":46,"time":110.89274625000002,"velocity":0.3937007874015748},{"duration":0.10714275000000839,"midi":41,"time":111.10703175,"velocity":0.3937007874015748},{"duration":0.10714274999999418,"midi":44,"time":111.21417450000001,"velocity":0.3937007874015748},{"duration":0.10714275000000839,"midi":39,"time":111.32131725,"velocity":0.3937007874015748},{"duration":0.10714274999999418,"midi":46,"time":111.42846000000002,"velocity":0.3937007874015748},{"duration":0.10714274999999418,"midi":41,"time":111.53560275000001,"velocity":0.3937007874015748},{"duration":0.10714275000000839,"midi":44,"time":111.6427455,"velocity":0.3937007874015748},{"duration":0.10714274999999418,"midi":46,"time":111.74988825000001,"velocity":0.3937007874015748},{"duration":0.10714274999999418,"midi":41,"time":111.96417375000001,"velocity":0.3937007874015748},{"duration":0.10714274999999418,"midi":44,"time":112.07131650000001,"velocity":0.3937007874015748},{"duration":0.10714275000000839,"midi":39,"time":112.17845925,"velocity":0.3937007874015748},{"duration":0.10714274999999418,"midi":46,"time":112.28560200000001,"velocity":0.3937007874015748},{"duration":0.10714275000000839,"midi":41,"time":112.39274475,"velocity":0.3937007874015748},{"duration":0.10714274999999418,"midi":44,"time":112.49988750000001,"velocity":0.3937007874015748},{"duration":0.10714274999999418,"midi":53,"time":112.60703025000001,"velocity":0.3937007874015748},{"duration":0.10714274999999418,"midi":51,"time":112.82131575000001,"velocity":0.3937007874015748},{"duration":0.10714275000000839,"midi":49,"time":112.9284585,"velocity":0.3937007874015748},{"duration":0.10714274999999418,"midi":44,"time":113.03560125000001,"velocity":0.3937007874015748},{"duration":0.10714275000000839,"midi":46,"time":113.14274400000001,"velocity":0.3937007874015748},{"duration":0.10714274999999418,"midi":41,"time":113.24988675000002,"velocity":0.3937007874015748},{"duration":0.10714274999999418,"midi":44,"time":113.35702950000001,"velocity":0.3937007874015748},{"duration":0.10714275000000839,"midi":46,"time":113.46417225,"velocity":0.3937007874015748},{"duration":0.10714275000000839,"midi":41,"time":113.67845775,"velocity":0.3937007874015748},{"duration":0.10714274999999418,"midi":44,"time":113.78560050000002,"velocity":0.3937007874015748},{"duration":0.10714274999999418,"midi":39,"time":113.89274325000001,"velocity":0.3937007874015748},{"duration":0.10714275000000839,"midi":46,"time":113.999886,"velocity":0.3937007874015748},{"duration":0.10714274999999418,"midi":41,"time":114.10702875000001,"velocity":0.3937007874015748},{"duration":0.10714275000000839,"midi":44,"time":114.2141715,"velocity":0.3937007874015748},{"duration":0.10714274999999418,"midi":46,"time":114.32131425000001,"velocity":0.3937007874015748},{"duration":0.10714275000000839,"midi":41,"time":114.53559975,"velocity":0.3937007874015748},{"duration":0.10714274999999418,"midi":44,"time":114.64274250000001,"velocity":0.3937007874015748},{"duration":0.10714275000000839,"midi":39,"time":114.74988525,"velocity":0.3937007874015748},{"duration":0.10714274999999418,"midi":46,"time":114.85702800000001,"velocity":0.3937007874015748},{"duration":0.10714275000000839,"midi":41,"time":114.96417075000001,"velocity":0.3937007874015748},{"duration":0.10714274999999418,"midi":44,"time":115.07131350000002,"velocity":0.3937007874015748},{"duration":0.10714274999999418,"midi":46,"time":115.17845625000001,"velocity":0.3937007874015748},{"duration":0.10714274999999418,"midi":41,"time":115.39274175000001,"velocity":0.3937007874015748},{"duration":0.10714275000000839,"midi":44,"time":115.49988450000001,"velocity":0.3937007874015748},{"duration":0.10714274999999418,"midi":39,"time":115.60702725000002,"velocity":0.3937007874015748},{"duration":0.10714274999999418,"midi":46,"time":115.71417000000001,"velocity":0.3937007874015748},{"duration":0.10714275000000839,"midi":41,"time":115.82131275,"velocity":0.3937007874015748},{"duration":0.10714274999999418,"midi":44,"time":115.92845550000001,"velocity":0.3937007874015748},{"duration":0.10714275000000839,"midi":53,"time":116.03559825,"velocity":0.3937007874015748},{"duration":0.10714274999999418,"midi":51,"time":116.24988375000001,"velocity":0.3937007874015748},{"duration":0.10714275000000839,"midi":49,"time":116.3570265,"velocity":0.3937007874015748},{"duration":0.10714274999999418,"midi":44,"time":116.46416925000001,"velocity":0.3937007874015748},{"duration":0.10714275000000839,"midi":46,"time":116.571312,"velocity":0.3937007874015748},{"duration":0.10714274999999418,"midi":41,"time":116.67845475000001,"velocity":0.3937007874015748},{"duration":0.10714274999999418,"midi":44,"time":116.78559750000001,"velocity":0.3937007874015748},{"duration":0.10714275000000839,"midi":46,"time":116.89274025,"velocity":0.3937007874015748},{"duration":0.10714275000000839,"midi":41,"time":117.10702575,"velocity":0.3937007874015748},{"duration":0.10714274999999418,"midi":44,"time":117.21416850000001,"velocity":0.3937007874015748},{"duration":0.10714275000000839,"midi":39,"time":117.32131125000001,"velocity":0.3937007874015748},{"duration":0.10714274999999418,"midi":46,"time":117.42845400000002,"velocity":0.3937007874015748},{"duration":0.10714274999999418,"midi":41,"time":117.53559675000001,"velocity":0.3937007874015748},{"duration":0.10714275000000839,"midi":44,"time":117.6427395,"velocity":0.3937007874015748},{"duration":0.10714274999999418,"midi":46,"time":117.74988225000001,"velocity":0.3937007874015748},{"duration":0.10714274999999418,"midi":41,"time":117.96416775000002,"velocity":0.3937007874015748},{"duration":0.10714274999999418,"midi":44,"time":118.07131050000001,"velocity":0.3937007874015748},{"duration":0.10714275000000839,"midi":39,"time":118.17845325,"velocity":0.3937007874015748},{"duration":0.10714274999999418,"midi":46,"time":118.28559600000001,"velocity":0.3937007874015748},{"duration":0.10714275000000839,"midi":41,"time":118.39273875,"velocity":0.3937007874015748},{"duration":0.10714274999999418,"midi":44,"time":118.49988150000001,"velocity":0.3937007874015748},{"duration":0.10714274999999418,"midi":46,"time":118.60702425000001,"velocity":0.3937007874015748},{"duration":0.10714274999999418,"midi":41,"time":118.82130975000001,"velocity":0.3937007874015748},{"duration":0.10714275000000839,"midi":44,"time":118.9284525,"velocity":0.3937007874015748},{"duration":0.10714274999999418,"midi":39,"time":119.03559525000001,"velocity":0.3937007874015748},{"duration":0.10714275000000839,"midi":46,"time":119.14273800000001,"velocity":0.3937007874015748},{"duration":0.10714274999999418,"midi":41,"time":119.24988075000002,"velocity":0.3937007874015748},{"duration":0.10714274999999418,"midi":44,"time":119.35702350000001,"velocity":0.3937007874015748},{"duration":0.10714275000000839,"midi":53,"time":119.46416625,"velocity":0.3937007874015748},{"duration":0.10714275000000839,"midi":51,"time":119.67845175000001,"velocity":0.3937007874015748},{"duration":0.10714274999999418,"midi":49,"time":119.78559450000002,"velocity":0.3937007874015748},{"duration":0.10714274999999418,"midi":44,"time":119.89273725000001,"velocity":0.3937007874015748},{"duration":0.10714275000000839,"midi":46,"time":119.99988,"velocity":0.3937007874015748},{"duration":0.10714274999999418,"midi":41,"time":120.10702275000001,"velocity":0.3937007874015748},{"duration":0.10714275000000839,"midi":44,"time":120.21416550000001,"velocity":0.3937007874015748},{"duration":0.10714274999999418,"midi":46,"time":120.32130825000002,"velocity":0.3937007874015748},{"duration":0.10714275000000839,"midi":41,"time":120.53559375,"velocity":0.3937007874015748},{"duration":0.10714274999999418,"midi":44,"time":120.64273650000001,"velocity":0.3937007874015748},{"duration":0.10714275000000839,"midi":39,"time":120.74987925,"velocity":0.3937007874015748},{"duration":0.10714274999999418,"midi":46,"time":120.85702200000001,"velocity":0.3937007874015748},{"duration":0.10714274999999418,"midi":41,"time":120.96416475000001,"velocity":0.3937007874015748},{"duration":0.10714275000000839,"midi":44,"time":121.0713075,"velocity":0.3937007874015748},{"duration":0.10714274999999418,"midi":46,"time":121.17845025000001,"velocity":0.3937007874015748},{"duration":0.10714274999999418,"midi":41,"time":121.39273575000001,"velocity":0.3937007874015748},{"duration":0.10714275000000839,"midi":44,"time":121.49987850000001,"velocity":0.3937007874015748},{"duration":0.10714274999999418,"midi":39,"time":121.60702125000002,"velocity":0.3937007874015748},{"duration":0.10714274999999418,"midi":46,"time":121.71416400000001,"velocity":0.3937007874015748},{"duration":0.10714275000000839,"midi":41,"time":121.82130675,"velocity":0.3937007874015748},{"duration":0.10714274999999418,"midi":44,"time":121.92844950000001,"velocity":0.3937007874015748},{"duration":0.10714275000000839,"midi":46,"time":122.03559225000001,"velocity":0.3937007874015748},{"duration":0.10714274999999418,"midi":41,"time":122.24987775000001,"velocity":0.3937007874015748},{"duration":0.10714275000000839,"midi":44,"time":122.3570205,"velocity":0.3937007874015748},{"duration":0.10714274999999418,"midi":39,"time":122.46416325000001,"velocity":0.3937007874015748},{"duration":0.10714275000000839,"midi":46,"time":122.571306,"velocity":0.3937007874015748},{"duration":0.10714274999999418,"midi":41,"time":122.67844875000002,"velocity":0.3937007874015748},{"duration":0.10714274999999418,"midi":44,"time":122.78559150000001,"velocity":0.3937007874015748},{"duration":0.10714275000000839,"midi":53,"time":122.89273425,"velocity":0.3937007874015748},{"duration":0.10714275000000839,"midi":51,"time":123.10701975,"velocity":0.3937007874015748},{"duration":0.10714274999999418,"midi":49,"time":123.21416250000001,"velocity":0.3937007874015748},{"duration":0.10714274999999418,"midi":44,"time":123.32130525000001,"velocity":0.3937007874015748},{"duration":0.21428550000000257,"midi":51,"time":123.428448,"velocity":0.3937007874015748},{"duration":0.21428550000000257,"midi":63,"time":123.428448,"velocity":0.07874015748031496},{"duration":0.10714274999999418,"midi":63,"time":123.74987625000001,"velocity":0.15748031496062992},{"duration":0.10714274999999418,"midi":51,"time":123.74987625000001,"velocity":0.3937007874015748},{"duration":0.10714274999999418,"midi":51,"time":123.96416175000002,"velocity":0.3937007874015748},{"duration":0.10714274999999418,"midi":54,"time":124.07130450000001,"velocity":0.3937007874015748},{"duration":0.10714275000000839,"midi":56,"time":124.17844725,"velocity":0.3937007874015748},{"duration":0.21428550000000257,"midi":51,"time":124.28559000000001,"velocity":0.3937007874015748},{"duration":0.21428550000000257,"midi":63,"time":124.28559000000001,"velocity":0.07874015748031496},{"duration":0.10714274999999418,"midi":63,"time":124.60701825000001,"velocity":0.15748031496062992},{"duration":0.10714274999999418,"midi":51,"time":124.60701825000001,"velocity":0.3937007874015748},{"duration":0.10714274999999418,"midi":51,"time":124.82130375000001,"velocity":0.3937007874015748},{"duration":0.10714275000000839,"midi":54,"time":124.9284465,"velocity":0.3937007874015748},{"duration":0.10714274999999418,"midi":56,"time":125.03558925000002,"velocity":0.3937007874015748},{"duration":0.21428550000000257,"midi":63,"time":125.14273200000001,"velocity":0.07874015748031496},{"duration":0.21428550000000257,"midi":51,"time":125.14273200000001,"velocity":0.3937007874015748},{"duration":0.10714275000000839,"midi":51,"time":125.46416025,"velocity":0.3937007874015748},{"duration":0.10714275000000839,"midi":63,"time":125.46416025,"velocity":0.15748031496062992},{"duration":0.10714275000000839,"midi":51,"time":125.67844575000001,"velocity":0.3937007874015748},{"duration":0.10714274999999418,"midi":54,"time":125.78558850000002,"velocity":0.3937007874015748},{"duration":0.10714274999999418,"midi":56,"time":125.89273125000001,"velocity":0.3937007874015748},{"duration":0.21428550000000257,"midi":51,"time":125.999874,"velocity":0.3937007874015748},{"duration":0.21428550000000257,"midi":63,"time":125.999874,"velocity":0.07874015748031496},{"duration":0.10714274999999418,"midi":51,"time":126.32130225000002,"velocity":0.3937007874015748},{"duration":0.10714274999999418,"midi":63,"time":126.32130225000002,"velocity":0.15748031496062992},{"duration":0.10714275000000839,"midi":51,"time":126.53558775,"velocity":0.3937007874015748},{"duration":0.10714275000000839,"midi":63,"time":126.53558775,"velocity":0.07874015748031496},{"duration":0.10714274999999418,"midi":58,"time":126.64273050000001,"velocity":0.07874015748031496},{"duration":0.10714274999999418,"midi":46,"time":126.64273050000001,"velocity":0.3937007874015748},{"duration":0.10714275000000839,"midi":42,"time":126.74987325000001,"velocity":0.3937007874015748},{"duration":0.10714275000000839,"midi":54,"time":126.74987325000001,"velocity":0.07874015748031496},{"duration":0.21428549999998836,"midi":63,"time":126.85701600000002,"velocity":0.07874015748031496},{"duration":0.21428549999998836,"midi":51,"time":126.85701600000002,"velocity":0.3937007874015748},{"duration":0.10714274999999418,"midi":51,"time":127.17844425000001,"velocity":0.3937007874015748},{"duration":0.10714274999999418,"midi":63,"time":127.17844425000001,"velocity":0.15748031496062992},{"duration":0.10714274999999418,"midi":51,"time":127.39272975000002,"velocity":0.3937007874015748},{"duration":0.10714274999999418,"midi":54,"time":127.49987250000001,"velocity":0.3937007874015748},{"duration":0.10714275000000839,"midi":56,"time":127.60701525,"velocity":0.3937007874015748},{"duration":0.21428550000000257,"midi":51,"time":127.71415800000001,"velocity":0.3937007874015748},{"duration":0.21428550000000257,"midi":63,"time":127.71415800000001,"velocity":0.07874015748031496},{"duration":0.10714274999997997,"midi":63,"time":128.03558625000002,"velocity":0.15748031496062992},{"duration":0.10714274999997997,"midi":51,"time":128.03558625000002,"velocity":0.3937007874015748},{"duration":0.10714275000000839,"midi":51,"time":128.24987175,"velocity":0.3937007874015748},{"duration":0.10714274999997997,"midi":54,"time":128.35701450000002,"velocity":0.3937007874015748},{"duration":0.10714275000000839,"midi":56,"time":128.46415725,"velocity":0.3937007874015748},{"duration":0.21428550000001678,"midi":63,"time":128.5713,"velocity":0.07874015748031496},{"duration":0.21428550000001678,"midi":51,"time":128.5713,"velocity":0.3937007874015748},{"duration":0.10714275000000839,"midi":63,"time":128.89272825,"velocity":0.15748031496062992},{"duration":0.10714275000000839,"midi":51,"time":128.89272825,"velocity":0.3937007874015748},{"duration":0.10714274999997997,"midi":51,"time":129.10701375000002,"velocity":0.3937007874015748},{"duration":0.10714275000000839,"midi":54,"time":129.2141565,"velocity":0.3937007874015748},{"duration":0.10714275000000839,"midi":56,"time":129.32129925,"velocity":0.3937007874015748},{"duration":0.10714274999997997,"midi":58,"time":129.42844200000002,"velocity":0.07874015748031496},{"duration":0.10714274999997997,"midi":46,"time":129.42844200000002,"velocity":0.3937007874015748},{"duration":0.10714275000000839,"midi":56,"time":129.53558475,"velocity":0.07874015748031496},{"duration":0.10714275000000839,"midi":44,"time":129.53558475,"velocity":0.3937007874015748},{"duration":0.10714275000000839,"midi":61,"time":129.6427275,"velocity":0.07874015748031496},{"duration":0.10714275000000839,"midi":49,"time":129.6427275,"velocity":0.3937007874015748},{"duration":0.10714275000000839,"midi":63,"time":129.74987025000001,"velocity":0.15748031496062992},{"duration":0.10714275000000839,"midi":51,"time":129.74987025000001,"velocity":0.3937007874015748},{"duration":0.10714275000000839,"midi":51,"time":129.96415575,"velocity":0.3937007874015748},{"duration":0.10714275000000839,"midi":63,"time":129.96415575,"velocity":0.07874015748031496},{"duration":0.10714275000000839,"midi":46,"time":130.0712985,"velocity":0.3937007874015748},{"duration":0.10714275000000839,"midi":58,"time":130.0712985,"velocity":0.07874015748031496},{"duration":0.10714274999997997,"midi":54,"time":130.17844125000002,"velocity":0.07874015748031496},{"duration":0.10714274999997997,"midi":42,"time":130.17844125000002,"velocity":0.3937007874015748},{"duration":0.21428550000001678,"midi":63,"time":130.285584,"velocity":0.07874015748031496},{"duration":0.21428550000001678,"midi":51,"time":130.285584,"velocity":0.3937007874015748},{"duration":0.10714275000000839,"midi":63,"time":130.60701225,"velocity":0.15748031496062992},{"duration":0.10714275000000839,"midi":51,"time":130.60701225,"velocity":0.3937007874015748},{"duration":0.10714275000000839,"midi":51,"time":130.82129775,"velocity":0.3937007874015748},{"duration":0.10714274999997997,"midi":54,"time":130.92844050000002,"velocity":0.3937007874015748},{"duration":0.10714275000000839,"midi":56,"time":131.03558325,"velocity":0.3937007874015748},{"duration":0.21428549999998836,"midi":51,"time":131.142726,"velocity":0.3937007874015748},{"duration":0.21428549999998836,"midi":63,"time":131.142726,"velocity":0.07874015748031496},{"duration":0.10714275000000839,"midi":63,"time":131.46415425,"velocity":0.15748031496062992},{"duration":0.10714275000000839,"midi":51,"time":131.46415425,"velocity":0.3937007874015748},{"duration":0.10714274999997997,"midi":51,"time":131.67843975000002,"velocity":0.3937007874015748},{"duration":0.10714275000000839,"midi":54,"time":131.7855825,"velocity":0.3937007874015748},{"duration":0.10714275000000839,"midi":56,"time":131.89272525,"velocity":0.3937007874015748},{"duration":0.21428549999998836,"midi":63,"time":131.99986800000002,"velocity":0.07874015748031496},{"duration":0.21428549999998836,"midi":51,"time":131.99986800000002,"velocity":0.3937007874015748},{"duration":0.10714274999997997,"midi":63,"time":132.32129625000002,"velocity":0.15748031496062992},{"duration":0.10714274999997997,"midi":51,"time":132.32129625000002,"velocity":0.3937007874015748},{"duration":0.10714275000000839,"midi":51,"time":132.53558175,"velocity":0.3937007874015748},{"duration":0.10714275000000839,"midi":54,"time":132.6427245,"velocity":0.3937007874015748},{"duration":0.10714274999997997,"midi":56,"time":132.74986725000002,"velocity":0.3937007874015748},{"duration":0.21428550000001678,"midi":63,"time":132.85701,"velocity":0.07874015748031496},{"duration":0.21428550000001678,"midi":51,"time":132.85701,"velocity":0.3937007874015748},{"duration":0.10714275000000839,"midi":51,"time":133.17843825,"velocity":0.3937007874015748},{"duration":0.10714275000000839,"midi":63,"time":133.17843825,"velocity":0.15748031496062992},{"duration":0.10714275000000839,"midi":51,"time":133.39272375000002,"velocity":0.3937007874015748},{"duration":0.10714275000000839,"midi":63,"time":133.39272375000002,"velocity":0.07874015748031496},{"duration":0.10714274999997997,"midi":46,"time":133.49986650000002,"velocity":0.3937007874015748},{"duration":0.10714274999997997,"midi":58,"time":133.49986650000002,"velocity":0.07874015748031496},{"duration":0.10714275000000839,"midi":42,"time":133.60700925,"velocity":0.3937007874015748},{"duration":0.10714275000000839,"midi":54,"time":133.60700925,"velocity":0.07874015748031496},{"duration":0.21428549999998836,"midi":51,"time":133.714152,"velocity":0.3937007874015748},{"duration":0.21428549999998836,"midi":63,"time":133.714152,"velocity":0.07874015748031496},{"duration":0.10714275000000839,"midi":63,"time":134.03558025,"velocity":0.15748031496062992},{"duration":0.10714275000000839,"midi":51,"time":134.03558025,"velocity":0.3937007874015748},{"duration":0.10714275000000839,"midi":51,"time":134.24986575,"velocity":0.3937007874015748},{"duration":0.10714275000000839,"midi":54,"time":134.3570085,"velocity":0.3937007874015748},{"duration":0.10714275000000839,"midi":56,"time":134.46415125000001,"velocity":0.3937007874015748},{"duration":0.21428549999998836,"midi":63,"time":134.57129400000002,"velocity":0.07874015748031496},{"duration":0.21428549999998836,"midi":51,"time":134.57129400000002,"velocity":0.3937007874015748},{"duration":0.10714274999997997,"midi":63,"time":134.89272225000002,"velocity":0.15748031496062992},{"duration":0.10714274999997997,"midi":51,"time":134.89272225000002,"velocity":0.3937007874015748},{"duration":0.10714275000000839,"midi":51,"time":135.10700775,"velocity":0.3937007874015748},{"duration":0.10714275000000839,"midi":54,"time":135.21415050000002,"velocity":0.3937007874015748},{"duration":0.10714274999997997,"midi":56,"time":135.32129325000002,"velocity":0.3937007874015748},{"duration":0.21428550000001678,"midi":63,"time":135.428436,"velocity":0.07874015748031496},{"duration":0.21428550000001678,"midi":51,"time":135.428436,"velocity":0.3937007874015748},{"duration":0.10714275000000839,"midi":63,"time":135.74986425,"velocity":0.15748031496062992},{"duration":0.10714275000000839,"midi":51,"time":135.74986425,"velocity":0.3937007874015748},{"duration":0.10714274999997997,"midi":51,"time":135.96414975000002,"velocity":0.3937007874015748},{"duration":0.10714275000000839,"midi":54,"time":136.0712925,"velocity":0.3937007874015748},{"duration":0.10714275000000839,"midi":56,"time":136.17843525,"velocity":0.3937007874015748},{"duration":0.10714275000000839,"midi":46,"time":136.28557800000002,"velocity":0.3937007874015748},{"duration":0.10714275000000839,"midi":58,"time":136.28557800000002,"velocity":0.07874015748031496},{"duration":0.10714274999997997,"midi":44,"time":136.39272075000002,"velocity":0.3937007874015748},{"duration":0.10714274999997997,"midi":56,"time":136.39272075000002,"velocity":0.07874015748031496},{"duration":0.10714275000000839,"midi":61,"time":136.4998635,"velocity":0.07874015748031496},{"duration":0.10714275000000839,"midi":49,"time":136.4998635,"velocity":0.3937007874015748},{"duration":0.10714275000000839,"midi":63,"time":136.60700625,"velocity":0.15748031496062992},{"duration":0.10714275000000839,"midi":51,"time":136.60700625,"velocity":0.3937007874015748},{"duration":0.10714275000000839,"midi":63,"time":136.82129175,"velocity":0.07874015748031496},{"duration":0.10714275000000839,"midi":51,"time":136.82129175,"velocity":0.3937007874015748},{"duration":0.10714275000000839,"midi":46,"time":136.9284345,"velocity":0.3937007874015748},{"duration":0.10714275000000839,"midi":58,"time":136.9284345,"velocity":0.07874015748031496},{"duration":0.10714274999997997,"midi":42,"time":137.03557725000002,"velocity":0.3937007874015748},{"duration":0.10714274999997997,"midi":54,"time":137.03557725000002,"velocity":0.07874015748031496}]},{"instrument":{"family":"drums","number":0,"name":"standard kit"},"notes":[{"duration":0.10714274999999951,"midi":36,"time":13.714272000000001,"velocity":0.3937007874015748},{"duration":0.10714274999999951,"midi":42,"time":13.714272000000001,"velocity":0.5196850393700787},{"duration":0.10714274999999951,"midi":40,"time":13.928557500000002,"velocity":0.3937007874015748},{"duration":0.10714274999999951,"midi":42,"time":13.928557500000002,"velocity":0.23622047244094488},{"duration":0.10714274999999951,"midi":36,"time":14.035700250000001,"velocity":0.3937007874015748},{"duration":0.10714274999999951,"midi":42,"time":14.035700250000001,"velocity":0.23622047244094488},{"duration":0.10714274999999951,"midi":42,"time":14.142843000000001,"velocity":0.5196850393700787},{"duration":0.10714274999999951,"midi":40,"time":14.357128500000002,"velocity":0.3937007874015748},{"duration":0.10714274999999951,"midi":42,"time":14.357128500000002,"velocity":0.23622047244094488},{"duration":0.10714274999999951,"midi":42,"time":14.464271250000001,"velocity":0.23622047244094488},{"duration":0.10714275000000129,"midi":36,"time":14.571414,"velocity":0.3937007874015748},{"duration":0.10714274999999951,"midi":42,"time":14.678556750000002,"velocity":0.23622047244094488},{"duration":0.10714274999999951,"midi":42,"time":14.785699500000002,"velocity":0.23622047244094488},{"duration":0.10714274999999951,"midi":40,"time":14.785699500000002,"velocity":0.3937007874015748},{"duration":0.10714274999999951,"midi":42,"time":14.892842250000001,"velocity":0.23622047244094488},{"duration":0.10714274999999951,"midi":36,"time":14.892842250000001,"velocity":0.3937007874015748},{"duration":0.10714275000000129,"midi":42,"time":14.999985,"velocity":0.5196850393700787},{"duration":0.10714274999999951,"midi":40,"time":15.214270500000001,"velocity":0.3937007874015748},{"duration":0.10714274999999951,"midi":42,"time":15.214270500000001,"velocity":0.23622047244094488},{"duration":0.10714274999999951,"midi":42,"time":15.32141325,"velocity":0.23622047244094488},{"duration":0.10714275000000129,"midi":36,"time":15.428556,"velocity":0.3937007874015748},{"duration":0.10714275000000129,"midi":42,"time":15.428556,"velocity":0.5196850393700787},{"duration":0.10714274999999951,"midi":40,"time":15.642841500000001,"velocity":0.3937007874015748},{"duration":0.10714274999999951,"midi":42,"time":15.642841500000001,"velocity":0.23622047244094488},{"duration":0.10714275000000129,"midi":42,"time":15.74998425,"velocity":0.23622047244094488},{"duration":0.10714275000000129,"midi":36,"time":15.74998425,"velocity":0.3937007874015748},{"duration":0.10714274999999951,"midi":42,"time":15.857127000000002,"velocity":0.5196850393700787},{"duration":0.10714275000000129,"midi":42,"time":16.0714125,"velocity":0.23622047244094488},{"duration":0.10714275000000129,"midi":40,"time":16.0714125,"velocity":0.3937007874015748},{"duration":0.10714274999999773,"midi":42,"time":16.178555250000002,"velocity":0.23622047244094488},{"duration":0.10714275000000129,"midi":36,"time":16.285698,"velocity":0.3937007874015748},{"duration":0.10714275000000129,"midi":42,"time":16.39284075,"velocity":0.23622047244094488},{"duration":0.10714274999999773,"midi":40,"time":16.499983500000003,"velocity":0.3937007874015748},{"duration":0.10714274999999773,"midi":42,"time":16.499983500000003,"velocity":0.23622047244094488},{"duration":0.10714275000000129,"midi":36,"time":16.60712625,"velocity":0.3937007874015748},{"duration":0.10714275000000129,"midi":42,"time":16.60712625,"velocity":0.23622047244094488},{"duration":0.10714275000000129,"midi":42,"time":16.714269,"velocity":0.5196850393700787},{"duration":0.10714275000000129,"midi":40,"time":16.9285545,"velocity":0.3937007874015748},{"duration":0.10714275000000129,"midi":42,"time":16.9285545,"velocity":0.23622047244094488},{"duration":0.10714274999999773,"midi":42,"time":17.035697250000002,"velocity":0.23622047244094488},{"duration":0.10714275000000129,"midi":42,"time":17.14284,"velocity":0.5196850393700787},{"duration":0.10714275000000129,"midi":36,"time":17.14284,"velocity":0.3937007874015748},{"duration":0.10714274999999773,"midi":40,"time":17.357125500000002,"velocity":0.3937007874015748},{"duration":0.10714274999999773,"midi":42,"time":17.357125500000002,"velocity":0.23622047244094488},{"duration":0.10714275000000129,"midi":42,"time":17.46426825,"velocity":0.23622047244094488},{"duration":0.10714275000000129,"midi":36,"time":17.46426825,"velocity":0.3937007874015748},{"duration":0.10714275000000129,"midi":42,"time":17.571411,"velocity":0.5196850393700787},{"duration":0.10714275000000129,"midi":42,"time":17.7856965,"velocity":0.23622047244094488},{"duration":0.10714275000000129,"midi":40,"time":17.7856965,"velocity":0.3937007874015748},{"duration":0.10714275000000129,"midi":42,"time":17.89283925,"velocity":0.23622047244094488},{"duration":0.10714274999999773,"midi":36,"time":17.999982000000003,"velocity":0.3937007874015748},{"duration":0.10714275000000129,"midi":42,"time":18.10712475,"velocity":0.23622047244094488},{"duration":0.10714275000000129,"midi":40,"time":18.214267500000002,"velocity":0.3937007874015748},{"duration":0.10714275000000129,"midi":42,"time":18.214267500000002,"velocity":0.23622047244094488},{"duration":0.10714274999999773,"midi":36,"time":18.321410250000003,"velocity":0.3937007874015748},{"duration":0.10714274999999773,"midi":42,"time":18.321410250000003,"velocity":0.23622047244094488},{"duration":0.10714275000000129,"midi":40,"time":18.428553,"velocity":0.3937007874015748},{"duration":0.10714275000000129,"midi":42,"time":18.428553,"velocity":0.5196850393700787},{"duration":0.10714275000000129,"midi":40,"time":18.6428385,"velocity":0.3937007874015748},{"duration":0.10714275000000129,"midi":42,"time":18.6428385,"velocity":0.23622047244094488},{"duration":0.10714275000000129,"midi":42,"time":18.74998125,"velocity":0.23622047244094488},{"duration":0.10714275000000129,"midi":40,"time":18.74998125,"velocity":0.3937007874015748},{"duration":0.10714274999999773,"midi":42,"time":18.857124000000002,"velocity":0.5196850393700787},{"duration":0.10714274999999773,"midi":36,"time":18.857124000000002,"velocity":0.3937007874015748},{"duration":0.10714275000000129,"midi":42,"time":19.0714095,"velocity":0.23622047244094488},{"duration":0.10714275000000129,"midi":40,"time":19.0714095,"velocity":0.3937007874015748},{"duration":0.10714274999999773,"midi":36,"time":19.178552250000003,"velocity":0.3937007874015748},{"duration":0.10714274999999773,"midi":42,"time":19.178552250000003,"velocity":0.23622047244094488},{"duration":0.10714275000000129,"midi":42,"time":19.285695,"velocity":0.5196850393700787},{"duration":0.10714274999999773,"midi":40,"time":19.499980500000003,"velocity":0.3937007874015748},{"duration":0.10714274999999773,"midi":42,"time":19.499980500000003,"velocity":0.23622047244094488},{"duration":0.10714275000000129,"midi":42,"time":19.60712325,"velocity":0.23622047244094488},{"duration":0.10714275000000129,"midi":36,"time":19.714266000000002,"velocity":0.3937007874015748},{"duration":0.10714274999999773,"midi":42,"time":19.821408750000003,"velocity":0.23622047244094488},{"duration":0.10714275000000129,"midi":40,"time":19.9285515,"velocity":0.3937007874015748},{"duration":0.10714275000000129,"midi":42,"time":19.9285515,"velocity":0.23622047244094488},{"duration":0.10714274999999773,"midi":42,"time":20.035694250000002,"velocity":0.23622047244094488},{"duration":0.10714274999999773,"midi":36,"time":20.035694250000002,"velocity":0.3937007874015748},{"duration":0.10714275000000129,"midi":40,"time":20.142837,"velocity":0.3937007874015748},{"duration":0.10714275000000129,"midi":42,"time":20.142837,"velocity":0.5196850393700787},{"duration":0.10714275000000129,"midi":40,"time":20.24997975,"velocity":0.3937007874015748},{"duration":0.05357137500000064,"midi":40,"time":20.357122500000003,"velocity":0.3937007874015748},{"duration":0.10714274999999773,"midi":42,"time":20.357122500000003,"velocity":0.23622047244094488},{"duration":0.05357137499999709,"midi":40,"time":20.410693875000003,"velocity":0.2755905511811024},{"duration":0.10714275000000129,"midi":40,"time":20.46426525,"velocity":0.3937007874015748},{"duration":0.10714275000000129,"midi":42,"time":20.46426525,"velocity":0.23622047244094488},{"duration":0.10714275000000129,"midi":42,"time":20.571408,"velocity":0.5196850393700787},{"duration":0.10714275000000129,"midi":36,"time":20.571408,"velocity":0.3937007874015748},{"duration":0.10714275000000129,"midi":42,"time":20.7856935,"velocity":0.23622047244094488},{"duration":0.10714275000000129,"midi":40,"time":20.7856935,"velocity":0.3937007874015748},{"duration":0.10714275000000129,"midi":42,"time":20.892836250000002,"velocity":0.23622047244094488},{"duration":0.10714275000000129,"midi":36,"time":20.892836250000002,"velocity":0.3937007874015748},{"duration":0.10714274999999773,"midi":42,"time":20.999979000000003,"velocity":0.5196850393700787},{"duration":0.10714274999999773,"midi":42,"time":21.214264500000002,"velocity":0.23622047244094488},{"duration":0.10714274999999773,"midi":40,"time":21.214264500000002,"velocity":0.3937007874015748},{"duration":0.10714275000000129,"midi":42,"time":21.32140725,"velocity":0.23622047244094488},{"duration":0.10714275000000129,"midi":36,"time":21.42855,"velocity":0.3937007874015748},{"duration":0.10714274999999773,"midi":42,"time":21.535692750000003,"velocity":0.23622047244094488},{"duration":0.10714275000000129,"midi":42,"time":21.6428355,"velocity":0.23622047244094488},{"duration":0.10714275000000129,"midi":40,"time":21.6428355,"velocity":0.3937007874015748},{"duration":0.10714275000000129,"midi":42,"time":21.74997825,"velocity":0.23622047244094488},{"duration":0.10714275000000129,"midi":36,"time":21.74997825,"velocity":0.3937007874015748},{"duration":0.10714274999999773,"midi":42,"time":21.857121000000003,"velocity":0.5196850393700787},{"duration":0.10714275000000129,"midi":40,"time":22.071406500000002,"velocity":0.3937007874015748},{"duration":0.10714275000000129,"midi":42,"time":22.071406500000002,"velocity":0.23622047244094488},{"duration":0.10714274999999773,"midi":42,"time":22.178549250000003,"velocity":0.23622047244094488},{"duration":0.10714275000000129,"midi":42,"time":22.285692,"velocity":0.5196850393700787},{"duration":0.10714275000000129,"midi":36,"time":22.285692,"velocity":0.3937007874015748},{"duration":0.10714274999999773,"midi":42,"time":22.499977500000004,"velocity":0.23622047244094488},{"duration":0.10714274999999773,"midi":40,"time":22.499977500000004,"velocity":0.3937007874015748},{"duration":0.10714275000000129,"midi":36,"time":22.60712025,"velocity":0.3937007874015748},{"duration":0.10714275000000129,"midi":42,"time":22.60712025,"velocity":0.23622047244094488},{"duration":0.10714274999999773,"midi":42,"time":22.714263000000003,"velocity":0.5196850393700787},{"duration":0.10714275000000129,"midi":40,"time":22.9285485,"velocity":0.3937007874015748},{"duration":0.10714275000000129,"midi":42,"time":22.9285485,"velocity":0.23622047244094488},{"duration":0.10714274999999773,"midi":42,"time":23.035691250000003,"velocity":0.23622047244094488},{"duration":0.10714275000000129,"midi":36,"time":23.142834,"velocity":0.3937007874015748},{"duration":0.10714275000000129,"midi":42,"time":23.249976750000002,"velocity":0.23622047244094488},{"duration":0.10714274999999773,"midi":40,"time":23.357119500000003,"velocity":0.3937007874015748},{"duration":0.10714274999999773,"midi":42,"time":23.357119500000003,"velocity":0.23622047244094488},{"duration":0.10714275000000129,"midi":36,"time":23.46426225,"velocity":0.3937007874015748},{"duration":0.10714275000000129,"midi":42,"time":23.46426225,"velocity":0.23622047244094488},{"duration":0.10714275000000129,"midi":42,"time":23.571405000000002,"velocity":0.5196850393700787},{"duration":0.10714275000000129,"midi":42,"time":23.7856905,"velocity":0.23622047244094488},{"duration":0.10714275000000129,"midi":40,"time":23.7856905,"velocity":0.3937007874015748},{"duration":0.10714275000000129,"midi":42,"time":23.892833250000002,"velocity":0.23622047244094488},{"duration":0.10714274999999773,"midi":42,"time":23.999976000000004,"velocity":0.5196850393700787},{"duration":0.10714274999999773,"midi":36,"time":23.999976000000004,"velocity":0.3937007874015748},{"duration":0.10714274999999773,"midi":40,"time":24.214261500000003,"velocity":0.3937007874015748},{"duration":0.10714274999999773,"midi":42,"time":24.214261500000003,"velocity":0.23622047244094488},{"duration":0.10714275000000129,"midi":36,"time":24.32140425,"velocity":0.3937007874015748},{"duration":0.10714275000000129,"midi":42,"time":24.32140425,"velocity":0.23622047244094488},{"duration":0.10714275000000129,"midi":42,"time":24.428547000000002,"velocity":0.5196850393700787},{"duration":0.10714275000000129,"midi":42,"time":24.6428325,"velocity":0.23622047244094488},{"duration":0.10714275000000129,"midi":40,"time":24.6428325,"velocity":0.3937007874015748},{"duration":0.10714275000000129,"midi":42,"time":24.749975250000002,"velocity":0.23622047244094488},{"duration":0.10714274999999773,"midi":36,"time":24.857118000000003,"velocity":0.3937007874015748},{"duration":0.10714275000000129,"midi":42,"time":24.96426075,"velocity":0.23622047244094488},{"duration":0.10714275000000129,"midi":42,"time":25.071403500000002,"velocity":0.23622047244094488},{"duration":0.10714275000000129,"midi":40,"time":25.071403500000002,"velocity":0.3937007874015748},{"duration":0.10714274999999773,"midi":42,"time":25.178546250000004,"velocity":0.23622047244094488},{"duration":0.10714274999999773,"midi":36,"time":25.178546250000004,"velocity":0.3937007874015748},{"duration":0.10714275000000129,"midi":40,"time":25.285689,"velocity":0.3937007874015748},{"duration":0.10714275000000129,"midi":42,"time":25.285689,"velocity":0.5196850393700787},{"duration":0.10714275000000129,"midi":40,"time":25.4999745,"velocity":0.3937007874015748},{"duration":0.10714275000000129,"midi":42,"time":25.4999745,"velocity":0.23622047244094488},{"duration":0.10714275000000129,"midi":40,"time":25.60711725,"velocity":0.3937007874015748},{"duration":0.10714275000000129,"midi":42,"time":25.60711725,"velocity":0.23622047244094488},{"duration":0.10714274999999773,"midi":36,"time":25.714260000000003,"velocity":0.3937007874015748},{"duration":0.10714274999999773,"midi":42,"time":25.714260000000003,"velocity":0.5196850393700787},{"duration":0.10714275000000129,"midi":40,"time":25.928545500000002,"velocity":0.3937007874015748},{"duration":0.10714275000000129,"midi":42,"time":25.928545500000002,"velocity":0.23622047244094488},{"duration":0.10714274999999773,"midi":42,"time":26.035688250000003,"velocity":0.23622047244094488},{"duration":0.10714274999999773,"midi":36,"time":26.035688250000003,"velocity":0.3937007874015748},{"duration":0.10714275000000129,"midi":42,"time":26.142831,"velocity":0.5196850393700787},{"duration":0.10714274999999773,"midi":40,"time":26.357116500000004,"velocity":0.3937007874015748},{"duration":0.10714274999999773,"midi":42,"time":26.357116500000004,"velocity":0.23622047244094488},{"duration":0.10714275000000129,"midi":42,"time":26.46425925,"velocity":0.23622047244094488},{"duration":0.10714275000000129,"midi":36,"time":26.571402000000003,"velocity":0.3937007874015748},{"duration":0.10714274999999773,"midi":42,"time":26.678544750000004,"velocity":0.23622047244094488},{"duration":0.10714275000000129,"midi":40,"time":26.7856875,"velocity":0.3937007874015748},{"duration":0.10714275000000129,"midi":42,"time":26.7856875,"velocity":0.23622047244094488},{"duration":0.10714274999999773,"midi":36,"time":26.892830250000003,"velocity":0.3937007874015748},{"duration":0.10714274999999773,"midi":42,"time":26.892830250000003,"velocity":0.23622047244094488},{"duration":0.10714275000000129,"midi":40,"time":26.999973,"velocity":0.3937007874015748},{"duration":0.10714275000000129,"midi":42,"time":26.999973,"velocity":0.5196850393700787},{"duration":0.10714275000000129,"midi":40,"time":27.107115750000002,"velocity":0.3937007874015748},{"duration":0.10714274999999773,"midi":42,"time":27.214258500000003,"velocity":0.23622047244094488},{"duration":0.05357137500000064,"midi":40,"time":27.214258500000003,"velocity":0.3937007874015748},{"duration":0.05357137499999709,"midi":40,"time":27.267829875000004,"velocity":0.2755905511811024},{"duration":0.10714275000000129,"midi":42,"time":27.32140125,"velocity":0.23622047244094488},{"duration":0.10714275000000129,"midi":40,"time":27.32140125,"velocity":0.3937007874015748},{"duration":0.10714275000000129,"midi":36,"time":27.428544000000002,"velocity":0.3937007874015748},{"duration":0.10714275000000129,"midi":42,"time":27.428544000000002,"velocity":0.5196850393700787},{"duration":0.10714275000000129,"midi":42,"time":27.6428295,"velocity":0.23622047244094488},{"duration":0.10714275000000129,"midi":40,"time":27.6428295,"velocity":0.3937007874015748},{"duration":0.10714275000000129,"midi":42,"time":27.749972250000003,"velocity":0.23622047244094488},{"duration":0.10714275000000129,"midi":36,"time":27.749972250000003,"velocity":0.3937007874015748},{"duration":0.10714274999999773,"midi":42,"time":27.857115000000004,"velocity":0.5196850393700787},{"duration":0.10714274999999773,"midi":42,"time":28.071400500000003,"velocity":0.23622047244094488},{"duration":0.10714274999999773,"midi":40,"time":28.071400500000003,"velocity":0.3937007874015748},{"duration":0.10714275000000129,"midi":42,"time":28.17854325,"velocity":0.23622047244094488},{"duration":0.10714275000000129,"midi":36,"time":28.285686000000002,"velocity":0.3937007874015748},{"duration":0.10714274999999773,"midi":42,"time":28.392828750000003,"velocity":0.23622047244094488},{"duration":0.10714275000000129,"midi":42,"time":28.4999715,"velocity":0.23622047244094488},{"duration":0.10714275000000129,"midi":40,"time":28.4999715,"velocity":0.3937007874015748},{"duration":0.10714275000000129,"midi":36,"time":28.607114250000002,"velocity":0.3937007874015748},{"duration":0.10714275000000129,"midi":42,"time":28.607114250000002,"velocity":0.23622047244094488},{"duration":0.10714274999999773,"midi":42,"time":28.714257000000003,"velocity":0.5196850393700787},{"duration":0.10714275000000129,"midi":42,"time":28.928542500000002,"velocity":0.23622047244094488},{"duration":0.10714275000000129,"midi":40,"time":28.928542500000002,"velocity":0.3937007874015748},{"duration":0.10714274999999773,"midi":42,"time":29.035685250000004,"velocity":0.23622047244094488},{"duration":0.10714275000000129,"midi":36,"time":29.142828,"velocity":0.3937007874015748},{"duration":0.10714275000000129,"midi":42,"time":29.142828,"velocity":0.5196850393700787},{"duration":0.10714274999999773,"midi":42,"time":29.357113500000004,"velocity":0.23622047244094488},{"duration":0.10714274999999773,"midi":40,"time":29.357113500000004,"velocity":0.3937007874015748},{"duration":0.10714275000000129,"midi":42,"time":29.464256250000002,"velocity":0.23622047244094488},{"duration":0.10714275000000129,"midi":36,"time":29.464256250000002,"velocity":0.3937007874015748},{"duration":0.10714274999999773,"midi":42,"time":29.571399000000003,"velocity":0.5196850393700787},{"duration":0.10714275000000129,"midi":40,"time":29.785684500000002,"velocity":0.3937007874015748},{"duration":0.10714275000000129,"midi":42,"time":29.785684500000002,"velocity":0.23622047244094488},{"duration":0.10714274999999773,"midi":42,"time":29.892827250000003,"velocity":0.23622047244094488},{"duration":0.10714275000000129,"midi":36,"time":29.99997,"velocity":0.3937007874015748},{"duration":0.10714275000000129,"midi":42,"time":30.107112750000002,"velocity":0.23622047244094488},{"duration":0.10714274999999773,"midi":40,"time":30.214255500000004,"velocity":0.3937007874015748},{"duration":0.10714274999999773,"midi":42,"time":30.214255500000004,"velocity":0.23622047244094488},{"duration":0.10714275000000129,"midi":42,"time":30.32139825,"velocity":0.23622047244094488},{"duration":0.10714275000000129,"midi":36,"time":30.32139825,"velocity":0.3937007874015748},{"duration":0.10714275000000129,"midi":42,"time":30.428541000000003,"velocity":0.5196850393700787},{"duration":0.10714275000000129,"midi":40,"time":30.6428265,"velocity":0.3937007874015748},{"duration":0.10714275000000129,"midi":42,"time":30.6428265,"velocity":0.23622047244094488},{"duration":0.10714274999999773,"midi":42,"time":30.749969250000003,"velocity":0.23622047244094488},{"duration":0.10714275000000129,"midi":36,"time":30.857112,"velocity":0.3937007874015748},{"duration":0.10714275000000129,"midi":42,"time":30.857112,"velocity":0.5196850393700787},{"duration":0.10714274999999773,"midi":42,"time":31.071397500000003,"velocity":0.23622047244094488},{"duration":0.10714274999999773,"midi":40,"time":31.071397500000003,"velocity":0.3937007874015748},{"duration":0.10714275000000129,"midi":42,"time":31.17854025,"velocity":0.23622047244094488},{"duration":0.10714275000000129,"midi":36,"time":31.17854025,"velocity":0.3937007874015748},{"duration":0.10714275000000129,"midi":42,"time":31.285683000000002,"velocity":0.5196850393700787},{"duration":0.10714275000000129,"midi":42,"time":31.4999685,"velocity":0.23622047244094488},{"duration":0.10714275000000129,"midi":40,"time":31.4999685,"velocity":0.3937007874015748},{"duration":0.10714275000000129,"midi":42,"time":31.607111250000003,"velocity":0.23622047244094488},{"duration":0.10714274999999773,"midi":36,"time":31.714254000000004,"velocity":0.3937007874015748},{"duration":0.10714275000000129,"midi":42,"time":31.82139675,"velocity":0.23622047244094488},{"duration":0.10714274999999773,"midi":42,"time":31.928539500000003,"velocity":0.23622047244094488},{"duration":0.10714274999999773,"midi":40,"time":31.928539500000003,"velocity":0.3937007874015748},{"duration":0.10714275000000129,"midi":36,"time":32.03568225,"velocity":0.3937007874015748},{"duration":0.10714275000000129,"midi":42,"time":32.03568225,"velocity":0.23622047244094488},{"duration":0.10714275000000129,"midi":40,"time":32.142825,"velocity":0.3937007874015748},{"duration":0.10714275000000129,"midi":42,"time":32.142825,"velocity":0.5196850393700787},{"duration":0.10714275000000129,"midi":40,"time":32.357110500000005,"velocity":0.3937007874015748},{"duration":0.10714275000000129,"midi":42,"time":32.357110500000005,"velocity":0.23622047244094488},{"duration":0.10714274999999418,"midi":42,"time":32.464253250000006,"velocity":0.23622047244094488},{"duration":0.10714274999999418,"midi":40,"time":32.464253250000006,"velocity":0.3937007874015748},{"duration":0.10714275000000129,"midi":36,"time":32.571396,"velocity":0.3937007874015748},{"duration":0.10714275000000129,"midi":42,"time":32.571396,"velocity":0.5196850393700787},{"duration":0.10714275000000129,"midi":40,"time":32.7856815,"velocity":0.3937007874015748},{"duration":0.10714275000000129,"midi":42,"time":32.7856815,"velocity":0.23622047244094488},{"duration":0.10714275000000129,"midi":42,"time":32.892824250000004,"velocity":0.23622047244094488},{"duration":0.10714275000000129,"midi":36,"time":32.892824250000004,"velocity":0.3937007874015748},{"duration":0.10714274999999418,"midi":42,"time":32.999967000000005,"velocity":0.5196850393700787},{"duration":0.10714275000000129,"midi":40,"time":33.2142525,"velocity":0.3937007874015748},{"duration":0.10714275000000129,"midi":42,"time":33.2142525,"velocity":0.23622047244094488},{"duration":0.10714275000000129,"midi":42,"time":33.32139525,"velocity":0.23622047244094488},{"duration":0.10714275000000129,"midi":36,"time":33.428538,"velocity":0.3937007874015748},{"duration":0.10714275000000129,"midi":42,"time":33.535680750000004,"velocity":0.23622047244094488},{"duration":0.10714274999999418,"midi":40,"time":33.642823500000006,"velocity":0.3937007874015748},{"duration":0.10714274999999418,"midi":42,"time":33.642823500000006,"velocity":0.23622047244094488},{"duration":0.10714275000000129,"midi":42,"time":33.74996625,"velocity":0.23622047244094488},{"duration":0.10714275000000129,"midi":36,"time":33.74996625,"velocity":0.3937007874015748},{"duration":0.10714275000000129,"midi":40,"time":33.857109,"velocity":0.3937007874015748},{"duration":0.10714275000000129,"midi":42,"time":33.857109,"velocity":0.5196850393700787},{"duration":0.10714275000000129,"midi":40,"time":33.96425175,"velocity":0.3937007874015748},{"duration":0.10714275000000129,"midi":42,"time":34.071394500000004,"velocity":0.23622047244094488},{"duration":0.05357137499999709,"midi":40,"time":34.071394500000004,"velocity":0.3937007874015748},{"duration":0.053571375000004195,"midi":40,"time":34.124965875,"velocity":0.2755905511811024},{"duration":0.10714274999999418,"midi":40,"time":34.178537250000005,"velocity":0.3937007874015748},{"duration":0.10714274999999418,"midi":42,"time":34.178537250000005,"velocity":0.23622047244094488},{"duration":0.10714275000000129,"midi":42,"time":34.28568,"velocity":0.5196850393700787},{"duration":0.10714275000000129,"midi":36,"time":34.28568,"velocity":0.3937007874015748},{"duration":0.10714275000000129,"midi":40,"time":34.4999655,"velocity":0.3937007874015748},{"duration":0.10714275000000129,"midi":42,"time":34.4999655,"velocity":0.23622047244094488},{"duration":0.10714275000000129,"midi":42,"time":34.60710825,"velocity":0.23622047244094488},{"duration":0.10714275000000129,"midi":36,"time":34.60710825,"velocity":0.3937007874015748},{"duration":0.10714275000000129,"midi":42,"time":34.714251000000004,"velocity":0.5196850393700787},{"duration":0.10714275000000129,"midi":42,"time":34.9285365,"velocity":0.23622047244094488},{"duration":0.10714275000000129,"midi":40,"time":34.9285365,"velocity":0.3937007874015748},{"duration":0.10714275000000129,"midi":42,"time":35.03567925,"velocity":0.23622047244094488},{"duration":0.10714275000000129,"midi":36,"time":35.142822,"velocity":0.3937007874015748},{"duration":0.10714275000000129,"midi":42,"time":35.249964750000004,"velocity":0.23622047244094488},{"duration":0.10714275000000129,"midi":40,"time":35.357107500000005,"velocity":0.3937007874015748},{"duration":0.10714275000000129,"midi":42,"time":35.357107500000005,"velocity":0.23622047244094488},{"duration":0.10714274999999418,"midi":36,"time":35.464250250000006,"velocity":0.3937007874015748},{"duration":0.10714274999999418,"midi":42,"time":35.464250250000006,"velocity":0.23622047244094488},{"duration":0.10714275000000129,"midi":42,"time":35.571393,"velocity":0.5196850393700787},{"duration":0.10714275000000129,"midi":40,"time":35.7856785,"velocity":0.3937007874015748},{"duration":0.10714275000000129,"midi":42,"time":35.7856785,"velocity":0.23622047244094488},{"duration":0.10714275000000129,"midi":42,"time":35.892821250000004,"velocity":0.23622047244094488},{"duration":0.10714274999999418,"midi":36,"time":35.999964000000006,"velocity":0.3937007874015748},{"duration":0.10714274999999418,"midi":42,"time":35.999964000000006,"velocity":0.5196850393700787},{"duration":0.10714275000000129,"midi":42,"time":36.2142495,"velocity":0.23622047244094488},{"duration":0.10714275000000129,"midi":40,"time":36.2142495,"velocity":0.3937007874015748},{"duration":0.10714275000000129,"midi":36,"time":36.32139225,"velocity":0.3937007874015748},{"duration":0.10714275000000129,"midi":42,"time":36.32139225,"velocity":0.23622047244094488},{"duration":0.10714275000000129,"midi":42,"time":36.428535000000004,"velocity":0.5196850393700787},{"duration":0.10714274999999418,"midi":42,"time":36.642820500000006,"velocity":0.23622047244094488},{"duration":0.10714274999999418,"midi":40,"time":36.642820500000006,"velocity":0.3937007874015748},{"duration":0.10714275000000129,"midi":42,"time":36.74996325,"velocity":0.23622047244094488},{"duration":0.10714275000000129,"midi":36,"time":36.857106,"velocity":0.3937007874015748},{"duration":0.10714275000000129,"midi":42,"time":36.96424875,"velocity":0.23622047244094488},{"duration":0.10714275000000129,"midi":42,"time":37.071391500000004,"velocity":0.23622047244094488},{"duration":0.10714275000000129,"midi":40,"time":37.071391500000004,"velocity":0.3937007874015748},{"duration":0.10714274999999418,"midi":42,"time":37.178534250000006,"velocity":0.23622047244094488},{"duration":0.10714274999999418,"midi":36,"time":37.178534250000006,"velocity":0.3937007874015748},{"duration":0.10714275000000129,"midi":42,"time":37.285677,"velocity":0.5196850393700787},{"duration":0.10714275000000129,"midi":42,"time":37.4999625,"velocity":0.23622047244094488},{"duration":0.10714275000000129,"midi":40,"time":37.4999625,"velocity":0.3937007874015748},{"duration":0.10714275000000129,"midi":42,"time":37.607105250000004,"velocity":0.23622047244094488},{"duration":0.10714275000000129,"midi":36,"time":37.714248000000005,"velocity":0.3937007874015748},{"duration":0.10714275000000129,"midi":42,"time":37.714248000000005,"velocity":0.5196850393700787},{"duration":0.10714275000000129,"midi":42,"time":37.9285335,"velocity":0.23622047244094488},{"duration":0.10714275000000129,"midi":40,"time":37.9285335,"velocity":0.3937007874015748},{"duration":0.10714275000000129,"midi":42,"time":38.03567625,"velocity":0.23622047244094488},{"duration":0.10714275000000129,"midi":36,"time":38.03567625,"velocity":0.3937007874015748},{"duration":0.10714275000000129,"midi":42,"time":38.142819,"velocity":0.5196850393700787},{"duration":0.10714274999999418,"midi":42,"time":38.357104500000005,"velocity":0.23622047244094488},{"duration":0.10714274999999418,"midi":40,"time":38.357104500000005,"velocity":0.3937007874015748},{"duration":0.10714275000000129,"midi":42,"time":38.46424725,"velocity":0.23622047244094488},{"duration":0.10714275000000129,"midi":36,"time":38.57139,"velocity":0.3937007874015748},{"duration":0.10714275000000129,"midi":42,"time":38.67853275,"velocity":0.23622047244094488},{"duration":0.10714275000000129,"midi":40,"time":38.7856755,"velocity":0.3937007874015748},{"duration":0.10714275000000129,"midi":42,"time":38.7856755,"velocity":0.23622047244094488},{"duration":0.10714275000000129,"midi":42,"time":38.892818250000005,"velocity":0.23622047244094488},{"duration":0.10714275000000129,"midi":36,"time":38.892818250000005,"velocity":0.3937007874015748},{"duration":0.10714274999999418,"midi":42,"time":38.999961000000006,"velocity":0.5196850393700787},{"duration":0.10714274999999418,"midi":40,"time":38.999961000000006,"velocity":0.3937007874015748},{"duration":0.10714275000000129,"midi":42,"time":39.2142465,"velocity":0.23622047244094488},{"duration":0.10714275000000129,"midi":40,"time":39.2142465,"velocity":0.3937007874015748},{"duration":0.10714275000000129,"midi":40,"time":39.32138925,"velocity":0.3937007874015748},{"duration":0.10714275000000129,"midi":42,"time":39.32138925,"velocity":0.23622047244094488},{"duration":0.10714275000000129,"midi":42,"time":39.428532000000004,"velocity":0.5196850393700787},{"duration":0.10714275000000129,"midi":36,"time":39.428532000000004,"velocity":0.3937007874015748},{"duration":0.10714274999999418,"midi":42,"time":39.64281750000001,"velocity":0.23622047244094488},{"duration":0.10714274999999418,"midi":40,"time":39.64281750000001,"velocity":0.3937007874015748},{"duration":0.10714275000000129,"midi":36,"time":39.74996025,"velocity":0.3937007874015748},{"duration":0.10714275000000129,"midi":42,"time":39.74996025,"velocity":0.23622047244094488},{"duration":0.10714275000000129,"midi":42,"time":39.857103,"velocity":0.5196850393700787},{"duration":0.10714275000000129,"midi":40,"time":40.071388500000005,"velocity":0.3937007874015748},{"duration":0.10714275000000129,"midi":42,"time":40.071388500000005,"velocity":0.23622047244094488},{"duration":0.10714274999999418,"midi":42,"time":40.178531250000006,"velocity":0.23622047244094488},{"duration":0.10714275000000129,"midi":36,"time":40.285674,"velocity":0.3937007874015748},{"duration":0.10714275000000129,"midi":42,"time":40.39281675,"velocity":0.23622047244094488},{"duration":0.10714275000000129,"midi":40,"time":40.4999595,"velocity":0.3937007874015748},{"duration":0.10714275000000129,"midi":42,"time":40.4999595,"velocity":0.23622047244094488},{"duration":0.10714275000000129,"midi":36,"time":40.607102250000004,"velocity":0.3937007874015748},{"duration":0.10714275000000129,"midi":42,"time":40.607102250000004,"velocity":0.23622047244094488},{"duration":0.10714275000000129,"midi":42,"time":40.714245000000005,"velocity":0.5196850393700787},{"duration":0.10714275000000129,"midi":40,"time":40.714245000000005,"velocity":0.3937007874015748},{"duration":0.10714274999999418,"midi":40,"time":40.82138775000001,"velocity":0.3937007874015748},{"duration":0.053571375000004195,"midi":40,"time":40.9285305,"velocity":0.3937007874015748},{"duration":0.10714275000000129,"midi":42,"time":40.9285305,"velocity":0.23622047244094488},{"duration":0.05357137499999709,"midi":40,"time":40.982101875000005,"velocity":0.2755905511811024},{"duration":0.10714275000000129,"midi":42,"time":41.03567325,"velocity":0.23622047244094488},{"duration":0.10714275000000129,"midi":40,"time":41.03567325,"velocity":0.3937007874015748},{"duration":0.10714275000000129,"midi":36,"time":41.142816,"velocity":0.3937007874015748},{"duration":0.10714275000000129,"midi":42,"time":41.142816,"velocity":0.5196850393700787},{"duration":0.10714274999999418,"midi":40,"time":41.357101500000006,"velocity":0.3937007874015748},{"duration":0.10714274999999418,"midi":42,"time":41.357101500000006,"velocity":0.23622047244094488},{"duration":0.10714275000000129,"midi":42,"time":41.46424425,"velocity":0.23622047244094488},{"duration":0.10714275000000129,"midi":36,"time":41.46424425,"velocity":0.3937007874015748},{"duration":0.10714275000000129,"midi":42,"time":41.571387,"velocity":0.5196850393700787},{"duration":0.10714275000000129,"midi":42,"time":41.785672500000004,"velocity":0.23622047244094488},{"duration":0.10714275000000129,"midi":40,"time":41.785672500000004,"velocity":0.3937007874015748},{"duration":0.10714275000000129,"midi":42,"time":41.892815250000005,"velocity":0.23622047244094488},{"duration":0.10714274999999418,"midi":36,"time":41.99995800000001,"velocity":0.3937007874015748},{"duration":0.10714275000000129,"midi":42,"time":42.10710075,"velocity":0.23622047244094488},{"duration":0.10714275000000129,"midi":40,"time":42.2142435,"velocity":0.3937007874015748},{"duration":0.10714275000000129,"midi":42,"time":42.2142435,"velocity":0.23622047244094488},{"duration":0.10714275000000129,"midi":36,"time":42.32138625,"velocity":0.3937007874015748},{"duration":0.10714275000000129,"midi":42,"time":42.32138625,"velocity":0.23622047244094488},{"duration":0.10714275000000129,"midi":42,"time":42.428529000000005,"velocity":0.5196850393700787},{"duration":0.10714275000000129,"midi":42,"time":42.6428145,"velocity":0.23622047244094488},{"duration":0.10714275000000129,"midi":40,"time":42.6428145,"velocity":0.3937007874015748},{"duration":0.10714275000000129,"midi":42,"time":42.74995725,"velocity":0.23622047244094488},{"duration":0.10714275000000129,"midi":36,"time":42.8571,"velocity":0.3937007874015748},{"duration":0.10714275000000129,"midi":42,"time":42.8571,"velocity":0.5196850393700787},{"duration":0.10714275000000129,"midi":42,"time":43.071385500000005,"velocity":0.23622047244094488},{"duration":0.10714275000000129,"midi":40,"time":43.071385500000005,"velocity":0.3937007874015748},{"duration":0.10714274999999418,"midi":42,"time":43.17852825000001,"velocity":0.23622047244094488},{"duration":0.10714274999999418,"midi":36,"time":43.17852825000001,"velocity":0.3937007874015748},{"duration":0.10714275000000129,"midi":42,"time":43.285671,"velocity":0.5196850393700787},{"duration":0.10714275000000129,"midi":42,"time":43.4999565,"velocity":0.23622047244094488},{"duration":0.10714275000000129,"midi":40,"time":43.4999565,"velocity":0.3937007874015748},{"duration":0.10714275000000129,"midi":42,"time":43.607099250000005,"velocity":0.23622047244094488},{"duration":0.10714275000000129,"midi":36,"time":43.714242000000006,"velocity":0.3937007874015748},{"duration":0.10714274999999418,"midi":42,"time":43.82138475000001,"velocity":0.23622047244094488},{"duration":0.10714275000000129,"midi":42,"time":43.9285275,"velocity":0.23622047244094488},{"duration":0.10714275000000129,"midi":40,"time":43.9285275,"velocity":0.3937007874015748},{"duration":0.10714275000000129,"midi":36,"time":44.03567025,"velocity":0.3937007874015748},{"duration":0.10714275000000129,"midi":42,"time":44.03567025,"velocity":0.23622047244094488},{"duration":0.10714275000000129,"midi":42,"time":44.142813000000004,"velocity":0.5196850393700787},{"duration":0.10714274999999418,"midi":40,"time":44.357098500000006,"velocity":0.3937007874015748},{"duration":0.10714274999999418,"midi":42,"time":44.357098500000006,"velocity":0.23622047244094488},{"duration":0.10714275000000129,"midi":42,"time":44.46424125,"velocity":0.23622047244094488},{"duration":0.10714275000000129,"midi":36,"time":44.571384,"velocity":0.3937007874015748},{"duration":0.10714275000000129,"midi":42,"time":44.571384,"velocity":0.5196850393700787},{"duration":0.10714275000000129,"midi":42,"time":44.785669500000004,"velocity":0.23622047244094488},{"duration":0.10714275000000129,"midi":40,"time":44.785669500000004,"velocity":0.3937007874015748},{"duration":0.10714275000000129,"midi":42,"time":44.892812250000006,"velocity":0.23622047244094488},{"duration":0.10714275000000129,"midi":36,"time":44.892812250000006,"velocity":0.3937007874015748},{"duration":0.10714274999999418,"midi":42,"time":44.99995500000001,"velocity":0.5196850393700787},{"duration":0.10714275000000129,"midi":40,"time":45.2142405,"velocity":0.3937007874015748},{"duration":0.10714275000000129,"midi":42,"time":45.2142405,"velocity":0.23622047244094488},{"duration":0.10714275000000129,"midi":42,"time":45.321383250000004,"velocity":0.23622047244094488},{"duration":0.10714275000000129,"midi":36,"time":45.428526000000005,"velocity":0.3937007874015748},{"duration":0.10714274999999418,"midi":42,"time":45.535668750000006,"velocity":0.23622047244094488},{"duration":0.10714275000000129,"midi":40,"time":45.6428115,"velocity":0.3937007874015748},{"duration":0.10714275000000129,"midi":42,"time":45.6428115,"velocity":0.23622047244094488},{"duration":0.10714275000000129,"midi":42,"time":45.74995425,"velocity":0.23622047244094488},{"duration":0.10714275000000129,"midi":36,"time":45.74995425,"velocity":0.3937007874015748},{"duration":0.10714275000000129,"midi":42,"time":45.857097,"velocity":0.5196850393700787},{"duration":0.10714275000000129,"midi":40,"time":45.857097,"velocity":0.3937007874015748},{"duration":0.10714275000000129,"midi":42,"time":46.071382500000006,"velocity":0.23622047244094488},{"duration":0.10714275000000129,"midi":40,"time":46.071382500000006,"velocity":0.3937007874015748},{"duration":0.10714274999999418,"midi":40,"time":46.17852525000001,"velocity":0.3937007874015748},{"duration":0.10714274999999418,"midi":42,"time":46.17852525000001,"velocity":0.23622047244094488},{"duration":0.10714275000000129,"midi":42,"time":46.285668,"velocity":0.5196850393700787},{"duration":0.10714275000000129,"midi":36,"time":46.285668,"velocity":0.3937007874015748},{"duration":0.10714275000000129,"midi":40,"time":46.499953500000004,"velocity":0.3937007874015748},{"duration":0.10714275000000129,"midi":42,"time":46.499953500000004,"velocity":0.23622047244094488},{"duration":0.10714275000000129,"midi":42,"time":46.607096250000005,"velocity":0.23622047244094488},{"duration":0.10714275000000129,"midi":36,"time":46.607096250000005,"velocity":0.3937007874015748},{"duration":0.10714274999999418,"midi":42,"time":46.714239000000006,"velocity":0.5196850393700787},{"duration":0.10714275000000129,"midi":42,"time":46.9285245,"velocity":0.23622047244094488},{"duration":0.10714275000000129,"midi":40,"time":46.9285245,"velocity":0.3937007874015748},{"duration":0.10714275000000129,"midi":42,"time":47.03566725,"velocity":0.23622047244094488},{"duration":0.10714275000000129,"midi":36,"time":47.142810000000004,"velocity":0.3937007874015748},{"duration":0.10714275000000129,"midi":42,"time":47.249952750000006,"velocity":0.23622047244094488},{"duration":0.10714274999999418,"midi":40,"time":47.35709550000001,"velocity":0.3937007874015748},{"duration":0.10714274999999418,"midi":42,"time":47.35709550000001,"velocity":0.23622047244094488},{"duration":0.10714275000000129,"midi":42,"time":47.46423825,"velocity":0.23622047244094488},{"duration":0.10714275000000129,"midi":36,"time":47.46423825,"velocity":0.3937007874015748},{"duration":0.10714275000000129,"midi":40,"time":47.571381,"velocity":0.3937007874015748},{"duration":0.10714275000000129,"midi":42,"time":47.571381,"velocity":0.5196850393700787},{"duration":0.10714275000000129,"midi":40,"time":47.678523750000004,"velocity":0.3937007874015748},{"duration":0.05357137499999709,"midi":40,"time":47.785666500000005,"velocity":0.3937007874015748},{"duration":0.10714275000000129,"midi":42,"time":47.785666500000005,"velocity":0.23622047244094488},{"duration":0.053571375000004195,"midi":40,"time":47.839237875,"velocity":0.2755905511811024},{"duration":0.10714275000000129,"midi":42,"time":47.892809250000006,"velocity":0.23622047244094488},{"duration":0.10714275000000129,"midi":40,"time":47.892809250000006,"velocity":0.3937007874015748},{"duration":0.10714274999999418,"midi":42,"time":47.99995200000001,"velocity":0.5196850393700787},{"duration":0.10714274999999418,"midi":36,"time":47.99995200000001,"velocity":0.3937007874015748},{"duration":0.10714275000000129,"midi":42,"time":48.2142375,"velocity":0.23622047244094488},{"duration":0.10714275000000129,"midi":40,"time":48.2142375,"velocity":0.3937007874015748},{"duration":0.10714275000000129,"midi":36,"time":48.321380250000004,"velocity":0.3937007874015748},{"duration":0.10714275000000129,"midi":42,"time":48.321380250000004,"velocity":0.23622047244094488},{"duration":0.10714275000000129,"midi":42,"time":48.428523000000006,"velocity":0.5196850393700787},{"duration":0.10714275000000129,"midi":42,"time":48.6428085,"velocity":0.23622047244094488},{"duration":0.10714275000000129,"midi":40,"time":48.6428085,"velocity":0.3937007874015748},{"duration":0.10714275000000129,"midi":42,"time":48.74995125,"velocity":0.23622047244094488},{"duration":0.10714275000000129,"midi":36,"time":48.857094000000004,"velocity":0.3937007874015748},{"duration":0.10714275000000129,"midi":42,"time":48.964236750000005,"velocity":0.23622047244094488},{"duration":0.10714275000000129,"midi":40,"time":49.071379500000006,"velocity":0.3937007874015748},{"duration":0.10714275000000129,"midi":42,"time":49.071379500000006,"velocity":0.23622047244094488},{"duration":0.10714274999999418,"midi":36,"time":49.17852225000001,"velocity":0.3937007874015748},{"duration":0.10714274999999418,"midi":42,"time":49.17852225000001,"velocity":0.23622047244094488},{"duration":0.10714275000000129,"midi":42,"time":49.285665,"velocity":0.5196850393700787},{"duration":0.10714275000000129,"midi":42,"time":49.499950500000004,"velocity":0.23622047244094488},{"duration":0.10714275000000129,"midi":40,"time":49.499950500000004,"velocity":0.3937007874015748},{"duration":0.10714275000000129,"midi":42,"time":49.607093250000005,"velocity":0.23622047244094488},{"duration":0.10714274999999418,"midi":42,"time":49.71423600000001,"velocity":0.5196850393700787},{"duration":0.10714274999999418,"midi":36,"time":49.71423600000001,"velocity":0.3937007874015748},{"duration":0.10714275000000129,"midi":42,"time":49.9285215,"velocity":0.23622047244094488},{"duration":0.10714275000000129,"midi":40,"time":49.9285215,"velocity":0.3937007874015748},{"duration":0.10714275000000129,"midi":36,"time":50.03566425,"velocity":0.3937007874015748},{"duration":0.10714275000000129,"midi":42,"time":50.03566425,"velocity":0.23622047244094488},{"duration":0.10714275000000129,"midi":42,"time":50.142807000000005,"velocity":0.5196850393700787},{"duration":0.10714274999999418,"midi":42,"time":50.35709250000001,"velocity":0.23622047244094488},{"duration":0.10714274999999418,"midi":40,"time":50.35709250000001,"velocity":0.3937007874015748},{"duration":0.10714275000000129,"midi":42,"time":50.46423525,"velocity":0.23622047244094488},{"duration":0.10714275000000129,"midi":36,"time":50.571378,"velocity":0.3937007874015748},{"duration":0.10714275000000129,"midi":42,"time":50.678520750000004,"velocity":0.23622047244094488},{"duration":0.10714275000000129,"midi":40,"time":50.785663500000005,"velocity":0.3937007874015748},{"duration":0.10714275000000129,"midi":42,"time":50.785663500000005,"velocity":0.23622047244094488},{"duration":0.10714274999999418,"midi":42,"time":50.89280625000001,"velocity":0.23622047244094488},{"duration":0.10714274999999418,"midi":36,"time":50.89280625000001,"velocity":0.3937007874015748},{"duration":0.10714275000000129,"midi":42,"time":50.999949,"velocity":0.5196850393700787},{"duration":0.10714275000000129,"midi":42,"time":51.2142345,"velocity":0.23622047244094488},{"duration":0.10714275000000129,"midi":40,"time":51.2142345,"velocity":0.3937007874015748},{"duration":0.10714275000000129,"midi":42,"time":51.321377250000005,"velocity":0.23622047244094488},{"duration":0.10714275000000129,"midi":36,"time":51.428520000000006,"velocity":0.3937007874015748},{"duration":0.10714275000000129,"midi":42,"time":51.428520000000006,"velocity":0.5196850393700787},{"duration":0.10714275000000129,"midi":42,"time":51.6428055,"velocity":0.23622047244094488},{"duration":0.10714275000000129,"midi":40,"time":51.6428055,"velocity":0.3937007874015748},{"duration":0.10714275000000129,"midi":42,"time":51.74994825,"velocity":0.23622047244094488},{"duration":0.10714275000000129,"midi":36,"time":51.74994825,"velocity":0.3937007874015748},{"duration":0.10714275000000129,"midi":42,"time":51.857091000000004,"velocity":0.5196850393700787},{"duration":0.10714274999999418,"midi":40,"time":52.07137650000001,"velocity":0.3937007874015748},{"duration":0.10714274999999418,"midi":42,"time":52.07137650000001,"velocity":0.23622047244094488},{"duration":0.10714275000000129,"midi":42,"time":52.17851925,"velocity":0.23622047244094488},{"duration":0.10714275000000129,"midi":36,"time":52.285662,"velocity":0.3937007874015748},{"duration":0.10714275000000129,"midi":42,"time":52.39280475,"velocity":0.23622047244094488},{"duration":0.10714275000000129,"midi":40,"time":52.499947500000005,"velocity":0.3937007874015748},{"duration":0.10714275000000129,"midi":42,"time":52.499947500000005,"velocity":0.23622047244094488},{"duration":0.10714275000000129,"midi":42,"time":52.607090250000006,"velocity":0.23622047244094488},{"duration":0.10714275000000129,"midi":36,"time":52.607090250000006,"velocity":0.3937007874015748},{"duration":0.10714274999999418,"midi":40,"time":52.71423300000001,"velocity":0.3937007874015748},{"duration":0.10714274999999418,"midi":42,"time":52.71423300000001,"velocity":0.5196850393700787},{"duration":0.10714275000000129,"midi":42,"time":52.9285185,"velocity":0.23622047244094488},{"duration":0.10714275000000129,"midi":40,"time":52.9285185,"velocity":0.3937007874015748},{"duration":0.10714275000000129,"midi":42,"time":53.035661250000004,"velocity":0.23622047244094488},{"duration":0.10714275000000129,"midi":40,"time":53.035661250000004,"velocity":0.3937007874015748},{"duration":0.10714275000000129,"midi":42,"time":53.142804000000005,"velocity":0.5196850393700787},{"duration":0.10714275000000129,"midi":36,"time":53.142804000000005,"velocity":0.3937007874015748},{"duration":0.10714274999999418,"midi":40,"time":53.35708950000001,"velocity":0.3937007874015748},{"duration":0.10714274999999418,"midi":42,"time":53.35708950000001,"velocity":0.23622047244094488},{"duration":0.10714275000000129,"midi":36,"time":53.46423225,"velocity":0.3937007874015748},{"duration":0.10714275000000129,"midi":42,"time":53.46423225,"velocity":0.23622047244094488},{"duration":0.10714275000000129,"midi":42,"time":53.571375,"velocity":0.5196850393700787},{"duration":0.10714275000000129,"midi":42,"time":53.785660500000006,"velocity":0.23622047244094488},{"duration":0.10714275000000129,"midi":40,"time":53.785660500000006,"velocity":0.3937007874015748},{"duration":0.10714274999999418,"midi":42,"time":53.89280325000001,"velocity":0.23622047244094488},{"duration":0.10714275000000129,"midi":36,"time":53.999946,"velocity":0.3937007874015748},{"duration":0.10714275000000129,"midi":42,"time":54.10708875,"velocity":0.23622047244094488},{"duration":0.10714275000000129,"midi":42,"time":54.214231500000004,"velocity":0.23622047244094488},{"duration":0.10714275000000129,"midi":40,"time":54.214231500000004,"velocity":0.3937007874015748},{"duration":0.10714275000000129,"midi":36,"time":54.321374250000005,"velocity":0.3937007874015748},{"duration":0.10714275000000129,"midi":42,"time":54.321374250000005,"velocity":0.23622047244094488},{"duration":0.10714275000000129,"midi":40,"time":54.42851700000001,"velocity":0.3937007874015748},{"duration":0.10714275000000129,"midi":42,"time":54.42851700000001,"velocity":0.5196850393700787},{"duration":0.10714274999999418,"midi":40,"time":54.53565975000001,"velocity":0.3937007874015748},{"duration":0.10714275000000129,"midi":42,"time":54.6428025,"velocity":0.23622047244094488},{"duration":0.053571375000004195,"midi":40,"time":54.6428025,"velocity":0.3937007874015748},{"duration":0.05357137499999709,"midi":40,"time":54.696373875000006,"velocity":0.2755905511811024},{"duration":0.10714275000000129,"midi":42,"time":54.74994525,"velocity":0.23622047244094488},{"duration":0.10714275000000129,"midi":40,"time":54.74994525,"velocity":0.3937007874015748},{"duration":0.10714275000000129,"midi":42,"time":54.857088000000005,"velocity":0.5196850393700787},{"duration":0.10714275000000129,"midi":36,"time":54.857088000000005,"velocity":0.3937007874015748},{"duration":0.10714274999999418,"midi":40,"time":55.07137350000001,"velocity":0.3937007874015748},{"duration":0.10714274999999418,"midi":42,"time":55.07137350000001,"velocity":0.23622047244094488},{"duration":0.10714275000000129,"midi":36,"time":55.17851625,"velocity":0.3937007874015748},{"duration":0.10714275000000129,"midi":42,"time":55.17851625,"velocity":0.23622047244094488},{"duration":0.10714275000000129,"midi":42,"time":55.285659,"velocity":0.5196850393700787},{"duration":0.10714275000000129,"midi":42,"time":55.499944500000005,"velocity":0.23622047244094488},{"duration":0.10714275000000129,"midi":40,"time":55.499944500000005,"velocity":0.3937007874015748},{"duration":0.10714275000000129,"midi":42,"time":55.607087250000006,"velocity":0.23622047244094488},{"duration":0.10714274999999418,"midi":36,"time":55.71423000000001,"velocity":0.3937007874015748},{"duration":0.10714275000000129,"midi":42,"time":55.82137275,"velocity":0.23622047244094488},{"duration":0.10714275000000129,"midi":40,"time":55.9285155,"velocity":0.3937007874015748},{"duration":0.10714275000000129,"midi":42,"time":55.9285155,"velocity":0.23622047244094488},{"duration":0.10714275000000129,"midi":36,"time":56.035658250000004,"velocity":0.3937007874015748},{"duration":0.10714275000000129,"midi":42,"time":56.035658250000004,"velocity":0.23622047244094488},{"duration":0.10714275000000129,"midi":42,"time":56.142801000000006,"velocity":0.5196850393700787},{"duration":0.10714275000000129,"midi":42,"time":56.3570865,"velocity":0.23622047244094488},{"duration":0.10714275000000129,"midi":40,"time":56.3570865,"velocity":0.3937007874015748},{"duration":0.10714275000000129,"midi":42,"time":56.46422925,"velocity":0.23622047244094488},{"duration":0.10714275000000129,"midi":42,"time":56.571372000000004,"velocity":0.5196850393700787},{"duration":0.10714275000000129,"midi":36,"time":56.571372000000004,"velocity":0.3937007874015748},{"duration":0.10714275000000129,"midi":42,"time":56.785657500000006,"velocity":0.23622047244094488},{"duration":0.10714275000000129,"midi":40,"time":56.785657500000006,"velocity":0.3937007874015748},{"duration":0.10714274999999418,"midi":36,"time":56.89280025000001,"velocity":0.3937007874015748},{"duration":0.10714274999999418,"midi":42,"time":56.89280025000001,"velocity":0.23622047244094488},{"duration":0.10714275000000129,"midi":42,"time":56.999943,"velocity":0.5196850393700787},{"duration":0.10714275000000129,"midi":42,"time":57.214228500000004,"velocity":0.23622047244094488},{"duration":0.10714275000000129,"midi":40,"time":57.214228500000004,"velocity":0.3937007874015748},{"duration":0.10714275000000129,"midi":42,"time":57.321371250000006,"velocity":0.23622047244094488},{"duration":0.10714275000000129,"midi":36,"time":57.42851400000001,"velocity":0.3937007874015748},{"duration":0.10714274999999418,"midi":42,"time":57.53565675000001,"velocity":0.23622047244094488},{"duration":0.10714275000000129,"midi":40,"time":57.6427995,"velocity":0.3937007874015748},{"duration":0.10714275000000129,"midi":42,"time":57.6427995,"velocity":0.23622047244094488},{"duration":0.10714275000000129,"midi":42,"time":57.749942250000004,"velocity":0.23622047244094488},{"duration":0.10714275000000129,"midi":36,"time":57.749942250000004,"velocity":0.3937007874015748},{"duration":0.10714275000000129,"midi":42,"time":57.857085000000005,"velocity":0.5196850393700787},{"duration":0.10714274999999418,"midi":42,"time":58.07137050000001,"velocity":0.23622047244094488},{"duration":0.10714274999999418,"midi":40,"time":58.07137050000001,"velocity":0.3937007874015748},{"duration":0.10714275000000129,"midi":42,"time":58.17851325,"velocity":0.23622047244094488},{"duration":0.10714275000000129,"midi":42,"time":58.285656,"velocity":0.5196850393700787},{"duration":0.10714275000000129,"midi":36,"time":58.285656,"velocity":0.3937007874015748},{"duration":0.10714275000000129,"midi":42,"time":58.499941500000006,"velocity":0.23622047244094488},{"duration":0.10714275000000129,"midi":40,"time":58.499941500000006,"velocity":0.3937007874015748},{"duration":0.10714275000000129,"midi":36,"time":58.60708425000001,"velocity":0.3937007874015748},{"duration":0.10714275000000129,"midi":42,"time":58.60708425000001,"velocity":0.23622047244094488},{"duration":0.10714274999999418,"midi":42,"time":58.71422700000001,"velocity":0.5196850393700787},{"duration":0.10714275000000129,"midi":40,"time":58.928512500000004,"velocity":0.3937007874015748},{"duration":0.10714275000000129,"midi":42,"time":58.928512500000004,"velocity":0.23622047244094488},{"duration":0.10714275000000129,"midi":42,"time":59.035655250000005,"velocity":0.23622047244094488},{"duration":0.10714275000000129,"midi":36,"time":59.142798000000006,"velocity":0.3937007874015748},{"duration":0.10714274999999418,"midi":42,"time":59.24994075000001,"velocity":0.23622047244094488},{"duration":0.10714275000000129,"midi":40,"time":59.3570835,"velocity":0.3937007874015748},{"duration":0.10714275000000129,"midi":42,"time":59.3570835,"velocity":0.23622047244094488},{"duration":0.10714275000000129,"midi":42,"time":59.46422625,"velocity":0.23622047244094488},{"duration":0.10714275000000129,"midi":36,"time":59.46422625,"velocity":0.3937007874015748},{"duration":0.10714275000000129,"midi":40,"time":59.571369000000004,"velocity":0.3937007874015748},{"duration":0.10714275000000129,"midi":42,"time":59.571369000000004,"velocity":0.5196850393700787},{"duration":0.10714275000000129,"midi":42,"time":59.78565450000001,"velocity":0.23622047244094488},{"duration":0.10714275000000129,"midi":40,"time":59.78565450000001,"velocity":0.3937007874015748},{"duration":0.10714274999999418,"midi":40,"time":59.89279725000001,"velocity":0.3937007874015748},{"duration":0.10714274999999418,"midi":42,"time":59.89279725000001,"velocity":0.23622047244094488},{"duration":0.10714275000000129,"midi":42,"time":59.99994,"velocity":0.5196850393700787},{"duration":0.10714275000000129,"midi":36,"time":59.99994,"velocity":0.3937007874015748},{"duration":0.10714275000000129,"midi":42,"time":60.214225500000005,"velocity":0.23622047244094488},{"duration":0.10714275000000129,"midi":40,"time":60.214225500000005,"velocity":0.3937007874015748},{"duration":0.10714275000000129,"midi":42,"time":60.321368250000006,"velocity":0.23622047244094488},{"duration":0.10714275000000129,"midi":36,"time":60.321368250000006,"velocity":0.3937007874015748},{"duration":0.10714274999999418,"midi":42,"time":60.42851100000001,"velocity":0.5196850393700787},{"duration":0.10714275000000129,"midi":40,"time":60.6427965,"velocity":0.3937007874015748},{"duration":0.10714275000000129,"midi":42,"time":60.6427965,"velocity":0.23622047244094488},{"duration":0.10714275000000129,"midi":42,"time":60.749939250000004,"velocity":0.23622047244094488},{"duration":0.10714275000000129,"midi":36,"time":60.857082000000005,"velocity":0.3937007874015748},{"duration":0.10714275000000129,"midi":42,"time":60.96422475000001,"velocity":0.23622047244094488},{"duration":0.10714274999999418,"midi":40,"time":61.07136750000001,"velocity":0.3937007874015748},{"duration":0.10714274999999418,"midi":42,"time":61.07136750000001,"velocity":0.23622047244094488},{"duration":0.10714275000000129,"midi":42,"time":61.17851025,"velocity":0.23622047244094488},{"duration":0.10714275000000129,"midi":36,"time":61.17851025,"velocity":0.3937007874015748},{"duration":0.10714275000000129,"midi":42,"time":61.285653,"velocity":0.5196850393700787},{"duration":0.10714275000000129,"midi":40,"time":61.285653,"velocity":0.3937007874015748},{"duration":0.10714275000000129,"midi":40,"time":61.392795750000005,"velocity":0.3937007874015748},{"duration":0.10714275000000129,"midi":42,"time":61.499938500000006,"velocity":0.23622047244094488},{"duration":0.05357137499999709,"midi":40,"time":61.499938500000006,"velocity":0.3937007874015748},{"duration":0.053571375000004195,"midi":40,"time":61.553509875,"velocity":0.2755905511811024},{"duration":0.10714274999999418,"midi":42,"time":61.60708125000001,"velocity":0.23622047244094488},{"duration":0.10714274999999418,"midi":40,"time":61.60708125000001,"velocity":0.3937007874015748},{"duration":0.10714275000000129,"midi":42,"time":61.714224,"velocity":0.5196850393700787},{"duration":0.10714275000000129,"midi":36,"time":61.714224,"velocity":0.3937007874015748},{"duration":0.10714275000000129,"midi":42,"time":61.928509500000004,"velocity":0.23622047244094488},{"duration":0.10714275000000129,"midi":40,"time":61.928509500000004,"velocity":0.3937007874015748},{"duration":0.10714275000000129,"midi":42,"time":62.035652250000005,"velocity":0.23622047244094488},{"duration":0.10714275000000129,"midi":36,"time":62.035652250000005,"velocity":0.3937007874015748},{"duration":0.10714275000000129,"midi":42,"time":62.14279500000001,"velocity":0.5196850393700787},{"duration":0.10714275000000129,"midi":42,"time":62.3570805,"velocity":0.23622047244094488},{"duration":0.10714275000000129,"midi":40,"time":62.3570805,"velocity":0.3937007874015748},{"duration":0.10714275000000129,"midi":42,"time":62.46422325,"velocity":0.23622047244094488},{"duration":0.10714275000000129,"midi":36,"time":62.571366000000005,"velocity":0.3937007874015748},{"duration":0.10714275000000129,"midi":42,"time":62.678508750000006,"velocity":0.23622047244094488},{"duration":0.10714275000000129,"midi":40,"time":62.78565150000001,"velocity":0.3937007874015748},{"duration":0.10714275000000129,"midi":42,"time":62.78565150000001,"velocity":0.23622047244094488},{"duration":0.10714274999999418,"midi":42,"time":62.89279425000001,"velocity":0.23622047244094488},{"duration":0.10714274999999418,"midi":36,"time":62.89279425000001,"velocity":0.3937007874015748},{"duration":0.10714275000000129,"midi":42,"time":62.999937,"velocity":0.5196850393700787},{"duration":0.10714275000000129,"midi":42,"time":63.214222500000005,"velocity":0.23622047244094488},{"duration":0.10714275000000129,"midi":40,"time":63.214222500000005,"velocity":0.3937007874015748},{"duration":0.10714275000000129,"midi":42,"time":63.32136525000001,"velocity":0.23622047244094488},{"duration":0.10714274999999418,"midi":42,"time":63.42850800000001,"velocity":0.5196850393700787},{"duration":0.10714274999999418,"midi":36,"time":63.42850800000001,"velocity":0.3937007874015748},{"duration":0.10714275000000129,"midi":42,"time":63.6427935,"velocity":0.23622047244094488},{"duration":0.10714275000000129,"midi":40,"time":63.6427935,"velocity":0.3937007874015748},{"duration":0.10714275000000129,"midi":36,"time":63.749936250000005,"velocity":0.3937007874015748},{"duration":0.10714275000000129,"midi":42,"time":63.749936250000005,"velocity":0.23622047244094488},{"duration":0.10714275000000129,"midi":42,"time":63.857079000000006,"velocity":0.5196850393700787},{"duration":0.10714275000000839,"midi":40,"time":64.0713645,"velocity":0.3937007874015748},{"duration":0.10714275000000839,"midi":42,"time":64.0713645,"velocity":0.23622047244094488},{"duration":0.10714274999999418,"midi":42,"time":64.17850725000001,"velocity":0.23622047244094488},{"duration":0.10714275000000839,"midi":36,"time":64.28565,"velocity":0.3937007874015748},{"duration":0.10714274999999418,"midi":42,"time":64.39279275000001,"velocity":0.23622047244094488},{"duration":0.10714274999999418,"midi":42,"time":64.4999355,"velocity":0.23622047244094488},{"duration":0.10714274999999418,"midi":40,"time":64.4999355,"velocity":0.3937007874015748},{"duration":0.10714275000000839,"midi":42,"time":64.60707825,"velocity":0.23622047244094488},{"duration":0.10714275000000839,"midi":36,"time":64.60707825,"velocity":0.3937007874015748},{"duration":0.10714274999999418,"midi":42,"time":64.71422100000001,"velocity":0.5196850393700787},{"duration":0.10714274999999418,"midi":40,"time":64.92850650000001,"velocity":0.3937007874015748},{"duration":0.10714274999999418,"midi":42,"time":64.92850650000001,"velocity":0.23622047244094488},{"duration":0.10714274999999418,"midi":42,"time":65.03564925,"velocity":0.23622047244094488},{"duration":0.10714275000000839,"midi":42,"time":65.142792,"velocity":0.5196850393700787},{"duration":0.10714275000000839,"midi":36,"time":65.142792,"velocity":0.3937007874015748},{"duration":0.10714275000000839,"midi":42,"time":65.3570775,"velocity":0.23622047244094488},{"duration":0.10714275000000839,"midi":40,"time":65.3570775,"velocity":0.3937007874015748},{"duration":0.10714274999999418,"midi":36,"time":65.46422025000001,"velocity":0.3937007874015748},{"duration":0.10714274999999418,"midi":42,"time":65.46422025000001,"velocity":0.23622047244094488},{"duration":0.10714274999999418,"midi":42,"time":65.571363,"velocity":0.5196850393700787},{"duration":0.10714274999999418,"midi":40,"time":65.78564850000001,"velocity":0.3937007874015748},{"duration":0.10714274999999418,"midi":42,"time":65.78564850000001,"velocity":0.23622047244094488},{"duration":0.10714275000000839,"midi":42,"time":65.89279125,"velocity":0.23622047244094488},{"duration":0.10714274999999418,"midi":36,"time":65.99993400000001,"velocity":0.3937007874015748},{"duration":0.10714274999999418,"midi":42,"time":66.10707675,"velocity":0.23622047244094488},{"duration":0.10714275000000839,"midi":42,"time":66.2142195,"velocity":0.23622047244094488},{"duration":0.10714275000000839,"midi":40,"time":66.2142195,"velocity":0.3937007874015748},{"duration":0.10714274999999418,"midi":42,"time":66.32136225,"velocity":0.23622047244094488},{"duration":0.10714274999999418,"midi":36,"time":66.32136225,"velocity":0.3937007874015748},{"duration":0.10714275000000839,"midi":40,"time":66.428505,"velocity":0.3937007874015748},{"duration":0.10714275000000839,"midi":42,"time":66.428505,"velocity":0.5196850393700787},{"duration":0.10714275000000839,"midi":40,"time":66.6427905,"velocity":0.3937007874015748},{"duration":0.10714275000000839,"midi":42,"time":66.6427905,"velocity":0.23622047244094488},{"duration":0.10714274999999418,"midi":40,"time":66.74993325000001,"velocity":0.3937007874015748},{"duration":0.10714274999999418,"midi":42,"time":66.74993325000001,"velocity":0.23622047244094488},{"duration":0.10714274999999418,"midi":42,"time":66.857076,"velocity":0.5196850393700787},{"duration":0.10714274999999418,"midi":36,"time":66.857076,"velocity":0.3937007874015748},{"duration":0.10714274999999418,"midi":42,"time":67.07136150000001,"velocity":0.23622047244094488},{"duration":0.10714274999999418,"midi":40,"time":67.07136150000001,"velocity":0.3937007874015748},{"duration":0.10714275000000839,"midi":36,"time":67.17850425,"velocity":0.3937007874015748},{"duration":0.10714275000000839,"midi":42,"time":67.17850425,"velocity":0.23622047244094488},{"duration":0.10714274999999418,"midi":42,"time":67.28564700000001,"velocity":0.5196850393700787},{"duration":0.10714275000000839,"midi":42,"time":67.4999325,"velocity":0.23622047244094488},{"duration":0.10714275000000839,"midi":40,"time":67.4999325,"velocity":0.3937007874015748},{"duration":0.10714274999999418,"midi":42,"time":67.60707525000001,"velocity":0.23622047244094488},{"duration":0.10714275000000839,"midi":36,"time":67.714218,"velocity":0.3937007874015748},{"duration":0.10714274999999418,"midi":42,"time":67.82136075000001,"velocity":0.23622047244094488},{"duration":0.10714274999999418,"midi":42,"time":67.9285035,"velocity":0.23622047244094488},{"duration":0.10714274999999418,"midi":40,"time":67.9285035,"velocity":0.3937007874015748},{"duration":0.10714275000000839,"midi":36,"time":68.03564625,"velocity":0.3937007874015748},{"duration":0.10714275000000839,"midi":42,"time":68.03564625,"velocity":0.23622047244094488},{"duration":0.10714274999999418,"midi":42,"time":68.14278900000001,"velocity":0.5196850393700787},{"duration":0.10714274999999418,"midi":40,"time":68.14278900000001,"velocity":0.3937007874015748},{"duration":0.10714275000000839,"midi":40,"time":68.24993175,"velocity":0.3937007874015748},{"duration":0.053571374999989985,"midi":40,"time":68.35707450000001,"velocity":0.3937007874015748},{"duration":0.10714274999999418,"midi":42,"time":68.35707450000001,"velocity":0.23622047244094488},{"duration":0.053571375000004195,"midi":40,"time":68.410645875,"velocity":0.2755905511811024},{"duration":0.10714274999999418,"midi":42,"time":68.46421725,"velocity":0.23622047244094488},{"duration":0.10714274999999418,"midi":40,"time":68.46421725,"velocity":0.3937007874015748},{"duration":0.10714275000000839,"midi":42,"time":68.57136,"velocity":0.5196850393700787},{"duration":0.10714275000000839,"midi":36,"time":68.57136,"velocity":0.3937007874015748},{"duration":0.10714275000000839,"midi":40,"time":68.7856455,"velocity":0.3937007874015748},{"duration":0.10714275000000839,"midi":42,"time":68.7856455,"velocity":0.23622047244094488},{"duration":0.10714274999999418,"midi":36,"time":68.89278825000001,"velocity":0.3937007874015748},{"duration":0.10714274999999418,"midi":42,"time":68.89278825000001,"velocity":0.23622047244094488},{"duration":0.10714275000000839,"midi":42,"time":68.999931,"velocity":0.5196850393700787},{"duration":0.10714274999999418,"midi":40,"time":69.2142165,"velocity":0.3937007874015748},{"duration":0.10714274999999418,"midi":42,"time":69.2142165,"velocity":0.23622047244094488},{"duration":0.10714275000000839,"midi":42,"time":69.32135925,"velocity":0.23622047244094488},{"duration":0.10714274999999418,"midi":36,"time":69.42850200000001,"velocity":0.3937007874015748},{"duration":0.10714275000000839,"midi":42,"time":69.53564475,"velocity":0.23622047244094488},{"duration":0.10714274999999418,"midi":40,"time":69.64278750000001,"velocity":0.3937007874015748},{"duration":0.10714274999999418,"midi":42,"time":69.64278750000001,"velocity":0.23622047244094488},{"duration":0.10714274999999418,"midi":36,"time":69.74993025,"velocity":0.3937007874015748},{"duration":0.10714274999999418,"midi":42,"time":69.74993025,"velocity":0.23622047244094488},{"duration":0.10714275000000839,"midi":42,"time":69.857073,"velocity":0.5196850393700787},{"duration":0.10714275000000839,"midi":42,"time":70.0713585,"velocity":0.23622047244094488},{"duration":0.10714275000000839,"midi":40,"time":70.0713585,"velocity":0.3937007874015748},{"duration":0.10714274999999418,"midi":42,"time":70.17850125000001,"velocity":0.23622047244094488},{"duration":0.10714274999999418,"midi":36,"time":70.285644,"velocity":0.3937007874015748},{"duration":0.10714274999999418,"midi":42,"time":70.285644,"velocity":0.5196850393700787},{"duration":0.10714274999999418,"midi":42,"time":70.49992950000001,"velocity":0.23622047244094488},{"duration":0.10714274999999418,"midi":40,"time":70.49992950000001,"velocity":0.3937007874015748},{"duration":0.10714275000000839,"midi":42,"time":70.60707225,"velocity":0.23622047244094488},{"duration":0.10714275000000839,"midi":36,"time":70.60707225,"velocity":0.3937007874015748},{"duration":0.10714274999999418,"midi":42,"time":70.71421500000001,"velocity":0.5196850393700787},{"duration":0.10714274999999418,"midi":42,"time":70.92850050000001,"velocity":0.23622047244094488},{"duration":0.10714274999999418,"midi":40,"time":70.92850050000001,"velocity":0.3937007874015748},{"duration":0.10714274999999418,"midi":42,"time":71.03564325,"velocity":0.23622047244094488},{"duration":0.10714275000000839,"midi":36,"time":71.142786,"velocity":0.3937007874015748},{"duration":0.10714274999999418,"midi":42,"time":71.24992875000001,"velocity":0.23622047244094488},{"duration":0.10714275000000839,"midi":42,"time":71.3570715,"velocity":0.23622047244094488},{"duration":0.10714275000000839,"midi":40,"time":71.3570715,"velocity":0.3937007874015748},{"duration":0.10714274999999418,"midi":42,"time":71.46421425000001,"velocity":0.23622047244094488},{"duration":0.10714274999999418,"midi":36,"time":71.46421425000001,"velocity":0.3937007874015748},{"duration":0.10714274999999418,"midi":42,"time":71.571357,"velocity":0.5196850393700787},{"duration":0.10714274999999418,"midi":42,"time":71.78564250000001,"velocity":0.23622047244094488},{"duration":0.10714274999999418,"midi":40,"time":71.78564250000001,"velocity":0.3937007874015748},{"duration":0.10714275000000839,"midi":42,"time":71.89278525,"velocity":0.23622047244094488},{"duration":0.10714274999999418,"midi":42,"time":71.99992800000001,"velocity":0.5196850393700787},{"duration":0.10714274999999418,"midi":36,"time":71.99992800000001,"velocity":0.3937007874015748},{"duration":0.10714275000000839,"midi":40,"time":72.2142135,"velocity":0.3937007874015748},{"duration":0.10714275000000839,"midi":42,"time":72.2142135,"velocity":0.23622047244094488},{"duration":0.10714274999999418,"midi":36,"time":72.32135625000001,"velocity":0.3937007874015748},{"duration":0.10714274999999418,"midi":42,"time":72.32135625000001,"velocity":0.23622047244094488},{"duration":0.10714275000000839,"midi":42,"time":72.428499,"velocity":0.5196850393700787},{"duration":0.10714274999999418,"midi":40,"time":72.6427845,"velocity":0.3937007874015748},{"duration":0.10714274999999418,"midi":42,"time":72.6427845,"velocity":0.23622047244094488},{"duration":0.10714275000000839,"midi":42,"time":72.74992725,"velocity":0.23622047244094488},{"duration":0.10714274999999418,"midi":36,"time":72.85707000000001,"velocity":0.3937007874015748},{"duration":0.10714275000000839,"midi":42,"time":72.96421275,"velocity":0.23622047244094488},{"duration":0.10714274999999418,"midi":40,"time":73.07135550000001,"velocity":0.3937007874015748},{"duration":0.10714274999999418,"midi":42,"time":73.07135550000001,"velocity":0.23622047244094488},{"duration":0.10714275000000839,"midi":36,"time":73.17849825,"velocity":0.3937007874015748},{"duration":0.10714275000000839,"midi":42,"time":73.17849825,"velocity":0.23622047244094488},{"duration":0.10714274999999418,"midi":40,"time":73.28564100000001,"velocity":0.3937007874015748},{"duration":0.10714274999999418,"midi":42,"time":73.28564100000001,"velocity":0.5196850393700787},{"duration":0.10714275000000839,"midi":42,"time":73.4999265,"velocity":0.23622047244094488},{"duration":0.10714275000000839,"midi":40,"time":73.4999265,"velocity":0.3937007874015748},{"duration":0.10714274999999418,"midi":40,"time":73.60706925000001,"velocity":0.3937007874015748},{"duration":0.10714274999999418,"midi":42,"time":73.60706925000001,"velocity":0.23622047244094488},{"duration":0.10714275000000839,"midi":36,"time":73.714212,"velocity":0.3937007874015748},{"duration":0.10714275000000839,"midi":42,"time":73.714212,"velocity":0.5196850393700787},{"duration":0.10714274999999418,"midi":42,"time":73.9284975,"velocity":0.23622047244094488},{"duration":0.10714274999999418,"midi":40,"time":73.9284975,"velocity":0.3937007874015748},{"duration":0.10714275000000839,"midi":36,"time":74.03564025,"velocity":0.3937007874015748},{"duration":0.10714275000000839,"midi":42,"time":74.03564025,"velocity":0.23622047244094488},{"duration":0.10714274999999418,"midi":42,"time":74.14278300000001,"velocity":0.5196850393700787},{"duration":0.10714274999999418,"midi":40,"time":74.35706850000001,"velocity":0.3937007874015748},{"duration":0.10714274999999418,"midi":42,"time":74.35706850000001,"velocity":0.23622047244094488},{"duration":0.10714274999999418,"midi":42,"time":74.46421125,"velocity":0.23622047244094488},{"duration":0.10714275000000839,"midi":36,"time":74.571354,"velocity":0.3937007874015748},{"duration":0.10714274999999418,"midi":42,"time":74.67849675000001,"velocity":0.23622047244094488},{"duration":0.10714275000000839,"midi":40,"time":74.7856395,"velocity":0.3937007874015748},{"duration":0.10714275000000839,"midi":42,"time":74.7856395,"velocity":0.23622047244094488},{"duration":0.10714274999999418,"midi":42,"time":74.89278225000001,"velocity":0.23622047244094488},{"duration":0.10714274999999418,"midi":36,"time":74.89278225000001,"velocity":0.3937007874015748},{"duration":0.10714275000000839,"midi":40,"time":74.999925,"velocity":0.3937007874015748},{"duration":0.10714275000000839,"midi":42,"time":74.999925,"velocity":0.5196850393700787},{"duration":0.10714274999999418,"midi":40,"time":75.10706775000001,"velocity":0.3937007874015748},{"duration":0.053571375000004195,"midi":40,"time":75.21421050000001,"velocity":0.3937007874015748},{"duration":0.10714274999999418,"midi":42,"time":75.21421050000001,"velocity":0.23622047244094488},{"duration":0.053571374999989985,"midi":40,"time":75.26778187500001,"velocity":0.2755905511811024},{"duration":0.10714275000000839,"midi":42,"time":75.32135325,"velocity":0.23622047244094488},{"duration":0.10714275000000839,"midi":40,"time":75.32135325,"velocity":0.3937007874015748},{"duration":0.10714274999999418,"midi":42,"time":75.42849600000001,"velocity":0.5196850393700787},{"duration":0.10714274999999418,"midi":36,"time":75.42849600000001,"velocity":0.3937007874015748},{"duration":0.10714274999999418,"midi":42,"time":75.64278150000001,"velocity":0.23622047244094488},{"duration":0.10714274999999418,"midi":40,"time":75.64278150000001,"velocity":0.3937007874015748},{"duration":0.10714274999999418,"midi":42,"time":75.74992425,"velocity":0.23622047244094488},{"duration":0.10714274999999418,"midi":36,"time":75.74992425,"velocity":0.3937007874015748},{"duration":0.10714275000000839,"midi":42,"time":75.857067,"velocity":0.5196850393700787},{"duration":0.10714275000000839,"midi":42,"time":76.0713525,"velocity":0.23622047244094488},{"duration":0.10714275000000839,"midi":40,"time":76.0713525,"velocity":0.3937007874015748},{"duration":0.10714274999999418,"midi":42,"time":76.17849525000001,"velocity":0.23622047244094488},{"duration":0.10714274999999418,"midi":36,"time":76.285638,"velocity":0.3937007874015748},{"duration":0.10714275000000839,"midi":42,"time":76.39278075,"velocity":0.23622047244094488},{"duration":0.10714274999999418,"midi":40,"time":76.49992350000001,"velocity":0.3937007874015748},{"duration":0.10714274999999418,"midi":42,"time":76.49992350000001,"velocity":0.23622047244094488},{"duration":0.10714275000000839,"midi":36,"time":76.60706625,"velocity":0.3937007874015748},{"duration":0.10714275000000839,"midi":42,"time":76.60706625,"velocity":0.23622047244094488},{"duration":0.10714274999999418,"midi":42,"time":76.71420900000001,"velocity":0.5196850393700787},{"duration":0.10714275000000839,"midi":42,"time":76.9284945,"velocity":0.23622047244094488},{"duration":0.10714275000000839,"midi":40,"time":76.9284945,"velocity":0.3937007874015748},{"duration":0.10714274999999418,"midi":42,"time":77.03563725000001,"velocity":0.23622047244094488},{"duration":0.10714275000000839,"midi":36,"time":77.14278,"velocity":0.3937007874015748},{"duration":0.10714275000000839,"midi":42,"time":77.14278,"velocity":0.5196850393700787},{"duration":0.10714275000000839,"midi":42,"time":77.3570655,"velocity":0.23622047244094488},{"duration":0.10714275000000839,"midi":40,"time":77.3570655,"velocity":0.3937007874015748},{"duration":0.10714274999999418,"midi":42,"time":77.46420825000001,"velocity":0.23622047244094488},{"duration":0.10714274999999418,"midi":36,"time":77.46420825000001,"velocity":0.3937007874015748},{"duration":0.10714274999999418,"midi":42,"time":77.571351,"velocity":0.5196850393700787},{"duration":0.10714274999999418,"midi":42,"time":77.78563650000001,"velocity":0.23622047244094488},{"duration":0.10714274999999418,"midi":40,"time":77.78563650000001,"velocity":0.3937007874015748},{"duration":0.10714275000000839,"midi":42,"time":77.89277925,"velocity":0.23622047244094488},{"duration":0.10714274999999418,"midi":36,"time":77.99992200000001,"velocity":0.3937007874015748},{"duration":0.10714274999999418,"midi":42,"time":78.10706475,"velocity":0.23622047244094488},{"duration":0.10714275000000839,"midi":42,"time":78.2142075,"velocity":0.23622047244094488},{"duration":0.10714275000000839,"midi":40,"time":78.2142075,"velocity":0.3937007874015748},{"duration":0.10714274999999418,"midi":42,"time":78.32135025000001,"velocity":0.23622047244094488},{"duration":0.10714274999999418,"midi":36,"time":78.32135025000001,"velocity":0.3937007874015748},{"duration":0.10714275000000839,"midi":42,"time":78.428493,"velocity":0.5196850393700787},{"duration":0.10714274999999418,"midi":42,"time":78.6427785,"velocity":0.23622047244094488},{"duration":0.10714274999999418,"midi":40,"time":78.6427785,"velocity":0.3937007874015748},{"duration":0.10714275000000839,"midi":42,"time":78.74992125,"velocity":0.23622047244094488},{"duration":0.10714274999999418,"midi":36,"time":78.85706400000001,"velocity":0.3937007874015748},{"duration":0.10714274999999418,"midi":42,"time":78.85706400000001,"velocity":0.5196850393700787},{"duration":0.10714274999999418,"midi":40,"time":79.07134950000001,"velocity":0.3937007874015748},{"duration":0.10714274999999418,"midi":42,"time":79.07134950000001,"velocity":0.23622047244094488},{"duration":0.10714275000000839,"midi":36,"time":79.17849225,"velocity":0.3937007874015748},{"duration":0.10714275000000839,"midi":42,"time":79.17849225,"velocity":0.23622047244094488},{"duration":0.10714274999999418,"midi":42,"time":79.28563500000001,"velocity":0.5196850393700787},{"duration":0.10714275000000839,"midi":42,"time":79.4999205,"velocity":0.23622047244094488},{"duration":0.10714275000000839,"midi":40,"time":79.4999205,"velocity":0.3937007874015748},{"duration":0.10714274999999418,"midi":42,"time":79.60706325000001,"velocity":0.23622047244094488},{"duration":0.10714275000000839,"midi":36,"time":79.714206,"velocity":0.3937007874015748},{"duration":0.10714274999999418,"midi":42,"time":79.82134875000001,"velocity":0.23622047244094488},{"duration":0.10714274999999418,"midi":40,"time":79.9284915,"velocity":0.3937007874015748},{"duration":0.10714274999999418,"midi":42,"time":79.9284915,"velocity":0.23622047244094488},{"duration":0.10714275000000839,"midi":36,"time":80.03563425,"velocity":0.3937007874015748},{"duration":0.10714275000000839,"midi":42,"time":80.03563425,"velocity":0.23622047244094488},{"duration":0.10714274999999418,"midi":42,"time":80.14277700000001,"velocity":0.5196850393700787},{"duration":0.10714274999999418,"midi":40,"time":80.14277700000001,"velocity":0.3937007874015748},{"duration":0.10714274999999418,"midi":42,"time":80.35706250000001,"velocity":0.23622047244094488},{"duration":0.10714274999999418,"midi":40,"time":80.35706250000001,"velocity":0.3937007874015748},{"duration":0.10714274999999418,"midi":42,"time":80.46420525,"velocity":0.23622047244094488},{"duration":0.10714274999999418,"midi":40,"time":80.46420525,"velocity":0.3937007874015748},{"duration":0.10714275000000839,"midi":36,"time":80.571348,"velocity":0.3937007874015748},{"duration":0.10714275000000839,"midi":42,"time":80.571348,"velocity":0.5196850393700787},{"duration":0.10714275000000839,"midi":42,"time":80.7856335,"velocity":0.23622047244094488},{"duration":0.10714275000000839,"midi":40,"time":80.7856335,"velocity":0.3937007874015748},{"duration":0.10714274999999418,"midi":42,"time":80.89277625000001,"velocity":0.23622047244094488},{"duration":0.10714274999999418,"midi":36,"time":80.89277625000001,"velocity":0.3937007874015748},{"duration":0.10714274999999418,"midi":42,"time":80.999919,"velocity":0.5196850393700787},{"duration":0.10714274999999418,"midi":40,"time":81.21420450000001,"velocity":0.3937007874015748},{"duration":0.10714274999999418,"midi":42,"time":81.21420450000001,"velocity":0.23622047244094488},{"duration":0.10714275000000839,"midi":42,"time":81.32134725,"velocity":0.23622047244094488},{"duration":0.10714274999999418,"midi":36,"time":81.42849000000001,"velocity":0.3937007874015748},{"duration":0.10714275000000839,"midi":42,"time":81.53563275,"velocity":0.23622047244094488},{"duration":0.10714274999999418,"midi":40,"time":81.64277550000001,"velocity":0.3937007874015748},{"duration":0.10714274999999418,"midi":42,"time":81.64277550000001,"velocity":0.23622047244094488},{"duration":0.10714274999999418,"midi":36,"time":81.74991825000001,"velocity":0.3937007874015748},{"duration":0.10714274999999418,"midi":42,"time":81.74991825000001,"velocity":0.23622047244094488},{"duration":0.10714275000000839,"midi":42,"time":81.857061,"velocity":0.5196850393700787},{"duration":0.10714275000000839,"midi":40,"time":81.857061,"velocity":0.3937007874015748},{"duration":0.10714274999999418,"midi":40,"time":81.96420375000001,"velocity":0.3937007874015748},{"duration":0.10714275000000839,"midi":42,"time":82.0713465,"velocity":0.23622047244094488},{"duration":0.053571375000004195,"midi":40,"time":82.0713465,"velocity":0.3937007874015748},{"duration":0.053571375000004195,"midi":40,"time":82.12491787500001,"velocity":0.2755905511811024},{"duration":0.10714274999999418,"midi":42,"time":82.17848925000001,"velocity":0.23622047244094488},{"duration":0.10714274999999418,"midi":40,"time":82.17848925000001,"velocity":0.3937007874015748},{"duration":0.10714274999999418,"midi":36,"time":82.285632,"velocity":0.3937007874015748},{"duration":0.10714274999999418,"midi":42,"time":82.285632,"velocity":0.5196850393700787},{"duration":0.10714274999999418,"midi":42,"time":82.49991750000001,"velocity":0.23622047244094488},{"duration":0.10714274999999418,"midi":40,"time":82.49991750000001,"velocity":0.3937007874015748},{"duration":0.10714275000000839,"midi":42,"time":82.60706025,"velocity":0.23622047244094488},{"duration":0.10714275000000839,"midi":36,"time":82.60706025,"velocity":0.3937007874015748},{"duration":0.10714274999999418,"midi":42,"time":82.71420300000001,"velocity":0.5196850393700787},{"duration":0.10714275000000839,"midi":42,"time":82.9284885,"velocity":0.23622047244094488},{"duration":0.10714275000000839,"midi":40,"time":82.9284885,"velocity":0.3937007874015748},{"duration":0.10714274999999418,"midi":42,"time":83.03563125000001,"velocity":0.23622047244094488},{"duration":0.10714275000000839,"midi":36,"time":83.142774,"velocity":0.3937007874015748},{"duration":0.10714274999999418,"midi":42,"time":83.24991675000001,"velocity":0.23622047244094488},{"duration":0.10714275000000839,"midi":40,"time":83.3570595,"velocity":0.3937007874015748},{"duration":0.10714275000000839,"midi":42,"time":83.3570595,"velocity":0.23622047244094488},{"duration":0.10714274999999418,"midi":36,"time":83.46420225000001,"velocity":0.3937007874015748},{"duration":0.10714274999999418,"midi":42,"time":83.46420225000001,"velocity":0.23622047244094488},{"duration":0.10714274999999418,"midi":42,"time":83.57134500000001,"velocity":0.5196850393700787},{"duration":0.10714274999999418,"midi":40,"time":83.78563050000001,"velocity":0.3937007874015748},{"duration":0.10714274999999418,"midi":42,"time":83.78563050000001,"velocity":0.23622047244094488},{"duration":0.10714275000000839,"midi":42,"time":83.89277325,"velocity":0.23622047244094488},{"duration":0.10714274999999418,"midi":42,"time":83.99991600000001,"velocity":0.5196850393700787},{"duration":0.10714274999999418,"midi":36,"time":83.99991600000001,"velocity":0.3937007874015748},{"duration":0.10714275000000839,"midi":42,"time":84.2142015,"velocity":0.23622047244094488},{"duration":0.10714275000000839,"midi":40,"time":84.2142015,"velocity":0.3937007874015748},{"duration":0.10714274999999418,"midi":42,"time":84.32134425000001,"velocity":0.23622047244094488},{"duration":0.10714274999999418,"midi":36,"time":84.32134425000001,"velocity":0.3937007874015748},{"duration":0.10714275000000839,"midi":42,"time":84.428487,"velocity":0.5196850393700787},{"duration":0.10714274999999418,"midi":40,"time":84.6427725,"velocity":0.3937007874015748},{"duration":0.10714274999999418,"midi":42,"time":84.6427725,"velocity":0.23622047244094488},{"duration":0.10714275000000839,"midi":42,"time":84.74991525,"velocity":0.23622047244094488},{"duration":0.10714274999999418,"midi":36,"time":84.85705800000001,"velocity":0.3937007874015748},{"duration":0.10714275000000839,"midi":42,"time":84.96420075,"velocity":0.23622047244094488},{"duration":0.10714274999999418,"midi":42,"time":85.07134350000001,"velocity":0.23622047244094488},{"duration":0.10714274999999418,"midi":40,"time":85.07134350000001,"velocity":0.3937007874015748},{"duration":0.10714274999999418,"midi":42,"time":85.17848625,"velocity":0.23622047244094488},{"duration":0.10714274999999418,"midi":36,"time":85.17848625,"velocity":0.3937007874015748},{"duration":0.10714275000000839,"midi":42,"time":85.285629,"velocity":0.5196850393700787},{"duration":0.10714275000000839,"midi":40,"time":85.4999145,"velocity":0.3937007874015748},{"duration":0.10714275000000839,"midi":42,"time":85.4999145,"velocity":0.23622047244094488},{"duration":0.10714274999999418,"midi":42,"time":85.60705725000001,"velocity":0.23622047244094488},{"duration":0.10714275000000839,"midi":36,"time":85.7142,"velocity":0.3937007874015748},{"duration":0.10714275000000839,"midi":42,"time":85.7142,"velocity":0.5196850393700787},{"duration":0.10714274999999418,"midi":40,"time":85.92848550000001,"velocity":0.3937007874015748},{"duration":0.10714274999999418,"midi":42,"time":85.92848550000001,"velocity":0.23622047244094488},{"duration":0.10714275000000839,"midi":36,"time":86.03562825,"velocity":0.3937007874015748},{"duration":0.10714275000000839,"midi":42,"time":86.03562825,"velocity":0.23622047244094488},{"duration":0.10714274999999418,"midi":42,"time":86.14277100000001,"velocity":0.5196850393700787},{"duration":0.10714274999999418,"midi":40,"time":86.35705650000001,"velocity":0.3937007874015748},{"duration":0.10714274999999418,"midi":42,"time":86.35705650000001,"velocity":0.23622047244094488},{"duration":0.10714274999999418,"midi":42,"time":86.46419925000001,"velocity":0.23622047244094488},{"duration":0.10714275000000839,"midi":36,"time":86.571342,"velocity":0.3937007874015748},{"duration":0.10714274999999418,"midi":42,"time":86.67848475000001,"velocity":0.23622047244094488},{"duration":0.10714275000000839,"midi":40,"time":86.7856275,"velocity":0.3937007874015748},{"duration":0.10714275000000839,"midi":42,"time":86.7856275,"velocity":0.23622047244094488},{"duration":0.10714274999999418,"midi":42,"time":86.89277025000001,"velocity":0.23622047244094488},{"duration":0.10714274999999418,"midi":36,"time":86.89277025000001,"velocity":0.3937007874015748},{"duration":0.10714274999999418,"midi":40,"time":86.999913,"velocity":0.3937007874015748},{"duration":0.10714274999999418,"midi":42,"time":86.999913,"velocity":0.5196850393700787},{"duration":0.10714274999999418,"midi":42,"time":87.21419850000001,"velocity":0.23622047244094488},{"duration":0.10714274999999418,"midi":40,"time":87.21419850000001,"velocity":0.3937007874015748},{"duration":0.10714275000000839,"midi":42,"time":87.32134125,"velocity":0.23622047244094488},{"duration":0.10714275000000839,"midi":40,"time":87.32134125,"velocity":0.3937007874015748},{"duration":0.10714274999999418,"midi":36,"time":87.42848400000001,"velocity":0.3937007874015748},{"duration":0.10714274999999418,"midi":42,"time":87.42848400000001,"velocity":0.5196850393700787},{"duration":0.10714274999999418,"midi":42,"time":87.64276950000001,"velocity":0.23622047244094488},{"duration":0.10714274999999418,"midi":40,"time":87.64276950000001,"velocity":0.3937007874015748},{"duration":0.10714274999999418,"midi":36,"time":87.74991225000001,"velocity":0.3937007874015748},{"duration":0.10714274999999418,"midi":42,"time":87.74991225000001,"velocity":0.23622047244094488},{"duration":0.10714275000000839,"midi":42,"time":87.857055,"velocity":0.5196850393700787},{"duration":0.10714275000000839,"midi":42,"time":88.0713405,"velocity":0.23622047244094488},{"duration":0.10714275000000839,"midi":40,"time":88.0713405,"velocity":0.3937007874015748},{"duration":0.10714274999999418,"midi":42,"time":88.17848325000001,"velocity":0.23622047244094488},{"duration":0.10714274999999418,"midi":36,"time":88.28562600000001,"velocity":0.3937007874015748},{"duration":0.10714275000000839,"midi":42,"time":88.39276875,"velocity":0.23622047244094488},{"duration":0.10714274999999418,"midi":40,"time":88.49991150000001,"velocity":0.3937007874015748},{"duration":0.10714274999999418,"midi":42,"time":88.49991150000001,"velocity":0.23622047244094488},{"duration":0.10714275000000839,"midi":42,"time":88.60705425,"velocity":0.23622047244094488},{"duration":0.10714275000000839,"midi":36,"time":88.60705425,"velocity":0.3937007874015748},{"duration":0.10714274999999418,"midi":40,"time":88.71419700000001,"velocity":0.3937007874015748},{"duration":0.10714274999999418,"midi":42,"time":88.71419700000001,"velocity":0.5196850393700787},{"duration":0.10714274999999418,"midi":40,"time":88.82133975,"velocity":0.3937007874015748},{"duration":0.10714275000000839,"midi":42,"time":88.9284825,"velocity":0.23622047244094488},{"duration":0.053571375000004195,"midi":40,"time":88.9284825,"velocity":0.3937007874015748},{"duration":0.053571375000004195,"midi":40,"time":88.982053875,"velocity":0.2755905511811024},{"duration":0.10714274999999418,"midi":42,"time":89.03562525000001,"velocity":0.23622047244094488},{"duration":0.10714274999999418,"midi":40,"time":89.03562525000001,"velocity":0.3937007874015748},{"duration":0.10714275000000839,"midi":36,"time":89.142768,"velocity":0.3937007874015748},{"duration":0.10714275000000839,"midi":42,"time":89.142768,"velocity":0.5196850393700787},{"duration":0.10714274999999418,"midi":42,"time":89.3570535,"velocity":0.23622047244094488},{"duration":0.10714274999999418,"midi":40,"time":89.3570535,"velocity":0.3937007874015748},{"duration":0.10714275000000839,"midi":42,"time":89.46419625,"velocity":0.23622047244094488},{"duration":0.10714275000000839,"midi":36,"time":89.46419625,"velocity":0.3937007874015748},{"duration":0.10714274999999418,"midi":42,"time":89.57133900000001,"velocity":0.5196850393700787},{"duration":0.10714274999999418,"midi":42,"time":89.78562450000001,"velocity":0.23622047244094488},{"duration":0.10714274999999418,"midi":40,"time":89.78562450000001,"velocity":0.3937007874015748},{"duration":0.10714275000000839,"midi":42,"time":89.89276725,"velocity":0.23622047244094488},{"duration":0.10714274999999418,"midi":36,"time":89.99991000000001,"velocity":0.3937007874015748},{"duration":0.10714274999999418,"midi":42,"time":90.10705275000001,"velocity":0.23622047244094488},{"duration":0.10714275000000839,"midi":42,"time":90.2141955,"velocity":0.23622047244094488},{"duration":0.10714275000000839,"midi":40,"time":90.2141955,"velocity":0.3937007874015748},{"duration":0.10714274999999418,"midi":42,"time":90.32133825000001,"velocity":0.23622047244094488},{"duration":0.10714274999999418,"midi":36,"time":90.32133825000001,"velocity":0.3937007874015748},{"duration":0.10714275000000839,"midi":42,"time":90.428481,"velocity":0.5196850393700787},{"duration":0.10714274999999418,"midi":42,"time":90.64276650000001,"velocity":0.23622047244094488},{"duration":0.10714274999999418,"midi":40,"time":90.64276650000001,"velocity":0.3937007874015748},{"duration":0.10714275000000839,"midi":42,"time":90.74990925,"velocity":0.23622047244094488},{"duration":0.10714274999999418,"midi":42,"time":90.85705200000001,"velocity":0.5196850393700787},{"duration":0.10714274999999418,"midi":36,"time":90.85705200000001,"velocity":0.3937007874015748},{"duration":0.10714274999999418,"midi":40,"time":91.07133750000001,"velocity":0.3937007874015748},{"duration":0.10714274999999418,"midi":42,"time":91.07133750000001,"velocity":0.23622047244094488},{"duration":0.10714274999999418,"midi":42,"time":91.17848025,"velocity":0.23622047244094488},{"duration":0.10714274999999418,"midi":36,"time":91.17848025,"velocity":0.3937007874015748},{"duration":0.10714275000000839,"midi":42,"time":91.285623,"velocity":0.5196850393700787},{"duration":0.10714275000000839,"midi":42,"time":91.4999085,"velocity":0.23622047244094488},{"duration":0.10714275000000839,"midi":40,"time":91.4999085,"velocity":0.3937007874015748},{"duration":0.10714274999999418,"midi":42,"time":91.60705125000001,"velocity":0.23622047244094488},{"duration":0.10714275000000839,"midi":36,"time":91.714194,"velocity":0.3937007874015748},{"duration":0.10714274999999418,"midi":42,"time":91.82133675000001,"velocity":0.23622047244094488},{"duration":0.10714274999999418,"midi":40,"time":91.92847950000001,"velocity":0.3937007874015748},{"duration":0.10714274999999418,"midi":42,"time":91.92847950000001,"velocity":0.23622047244094488},{"duration":0.10714275000000839,"midi":42,"time":92.03562225,"velocity":0.23622047244094488},{"duration":0.10714275000000839,"midi":36,"time":92.03562225,"velocity":0.3937007874015748},{"duration":0.10714274999999418,"midi":42,"time":92.14276500000001,"velocity":0.5196850393700787},{"duration":0.10714274999999418,"midi":40,"time":92.35705050000001,"velocity":0.3937007874015748},{"duration":0.10714274999999418,"midi":42,"time":92.35705050000001,"velocity":0.23622047244094488},{"duration":0.10714274999999418,"midi":42,"time":92.46419325000001,"velocity":0.23622047244094488},{"duration":0.10714275000000839,"midi":42,"time":92.571336,"velocity":0.5196850393700787},{"duration":0.10714275000000839,"midi":36,"time":92.571336,"velocity":0.3937007874015748},{"duration":0.10714275000000839,"midi":40,"time":92.7856215,"velocity":0.3937007874015748},{"duration":0.10714275000000839,"midi":42,"time":92.7856215,"velocity":0.23622047244094488},{"duration":0.10714274999999418,"midi":36,"time":92.89276425000001,"velocity":0.3937007874015748},{"duration":0.10714274999999418,"midi":42,"time":92.89276425000001,"velocity":0.23622047244094488},{"duration":0.10714274999999418,"midi":42,"time":92.99990700000001,"velocity":0.5196850393700787},{"duration":0.10714274999999418,"midi":42,"time":93.21419250000001,"velocity":0.23622047244094488},{"duration":0.10714274999999418,"midi":40,"time":93.21419250000001,"velocity":0.3937007874015748},{"duration":0.10714275000000839,"midi":42,"time":93.32133525,"velocity":0.23622047244094488},{"duration":0.10714274999999418,"midi":36,"time":93.42847800000001,"velocity":0.3937007874015748},{"duration":0.10714274999999418,"midi":42,"time":93.53562075,"velocity":0.23622047244094488},{"duration":0.10714275000000839,"midi":40,"time":93.6427635,"velocity":0.3937007874015748},{"duration":0.10714275000000839,"midi":42,"time":93.6427635,"velocity":0.23622047244094488},{"duration":0.10714274999999418,"midi":36,"time":93.74990625000001,"velocity":0.3937007874015748},{"duration":0.10714274999999418,"midi":42,"time":93.74990625000001,"velocity":0.23622047244094488},{"duration":0.10714275000000839,"midi":40,"time":93.857049,"velocity":0.3937007874015748},{"duration":0.10714275000000839,"midi":42,"time":93.857049,"velocity":0.5196850393700787},{"duration":0.10714275000000839,"midi":40,"time":94.0713345,"velocity":0.3937007874015748},{"duration":0.10714275000000839,"midi":42,"time":94.0713345,"velocity":0.23622047244094488},{"duration":0.10714274999999418,"midi":42,"time":94.17847725000001,"velocity":0.23622047244094488},{"duration":0.10714274999999418,"midi":40,"time":94.17847725000001,"velocity":0.3937007874015748},{"duration":0.10714274999999418,"midi":36,"time":94.28562000000001,"velocity":0.3937007874015748},{"duration":0.10714274999999418,"midi":42,"time":94.28562000000001,"velocity":0.5196850393700787},{"duration":0.10714274999999418,"midi":42,"time":94.49990550000001,"velocity":0.23622047244094488},{"duration":0.10714274999999418,"midi":40,"time":94.49990550000001,"velocity":0.3937007874015748},{"duration":0.10714275000000839,"midi":36,"time":94.60704825,"velocity":0.3937007874015748},{"duration":0.10714275000000839,"midi":42,"time":94.60704825,"velocity":0.23622047244094488},{"duration":0.10714274999999418,"midi":42,"time":94.71419100000001,"velocity":0.5196850393700787},{"duration":0.10714275000000839,"midi":40,"time":94.9284765,"velocity":0.3937007874015748},{"duration":0.10714275000000839,"midi":42,"time":94.9284765,"velocity":0.23622047244094488},{"duration":0.10714274999999418,"midi":42,"time":95.03561925000001,"velocity":0.23622047244094488},{"duration":0.10714275000000839,"midi":36,"time":95.142762,"velocity":0.3937007874015748},{"duration":0.10714274999999418,"midi":42,"time":95.24990475000001,"velocity":0.23622047244094488},{"duration":0.10714274999999418,"midi":40,"time":95.35704750000001,"velocity":0.3937007874015748},{"duration":0.10714274999999418,"midi":42,"time":95.35704750000001,"velocity":0.23622047244094488},{"duration":0.10714275000000839,"midi":36,"time":95.46419025,"velocity":0.3937007874015748},{"duration":0.10714275000000839,"midi":42,"time":95.46419025,"velocity":0.23622047244094488},{"duration":0.10714274999999418,"midi":40,"time":95.57133300000001,"velocity":0.3937007874015748},{"duration":0.10714274999999418,"midi":42,"time":95.57133300000001,"velocity":0.5196850393700787},{"duration":0.10714275000000839,"midi":40,"time":95.67847575,"velocity":0.3937007874015748},{"duration":0.053571374999989985,"midi":40,"time":95.78561850000001,"velocity":0.3937007874015748},{"duration":0.10714274999999418,"midi":42,"time":95.78561850000001,"velocity":0.23622047244094488},{"duration":0.053571375000004195,"midi":40,"time":95.839189875,"velocity":0.2755905511811024},{"duration":0.10714275000000839,"midi":42,"time":95.89276125,"velocity":0.23622047244094488},{"duration":0.10714275000000839,"midi":40,"time":95.89276125,"velocity":0.3937007874015748},{"duration":0.10714274999999418,"midi":42,"time":95.99990400000002,"velocity":0.5196850393700787},{"duration":0.10714274999999418,"midi":36,"time":95.99990400000002,"velocity":0.3937007874015748},{"duration":0.10714275000000839,"midi":42,"time":96.2141895,"velocity":0.23622047244094488},{"duration":0.10714275000000839,"midi":40,"time":96.2141895,"velocity":0.3937007874015748},{"duration":0.10714274999999418,"midi":42,"time":96.32133225000001,"velocity":0.23622047244094488},{"duration":0.10714274999999418,"midi":36,"time":96.32133225000001,"velocity":0.3937007874015748},{"duration":0.10714275000000839,"midi":42,"time":96.428475,"velocity":0.5196850393700787},{"duration":0.10714274999999418,"midi":42,"time":96.64276050000001,"velocity":0.23622047244094488},{"duration":0.10714274999999418,"midi":40,"time":96.64276050000001,"velocity":0.3937007874015748},{"duration":0.10714275000000839,"midi":42,"time":96.74990325,"velocity":0.23622047244094488},{"duration":0.10714274999999418,"midi":36,"time":96.85704600000001,"velocity":0.3937007874015748},{"duration":0.10714275000000839,"midi":42,"time":96.96418875,"velocity":0.23622047244094488},{"duration":0.10714274999999418,"midi":42,"time":97.07133150000001,"velocity":0.23622047244094488},{"duration":0.10714274999999418,"midi":40,"time":97.07133150000001,"velocity":0.3937007874015748},{"duration":0.10714274999999418,"midi":36,"time":97.17847425000001,"velocity":0.3937007874015748},{"duration":0.10714274999999418,"midi":42,"time":97.17847425000001,"velocity":0.23622047244094488},{"duration":0.10714275000000839,"midi":42,"time":97.285617,"velocity":0.5196850393700787},{"duration":0.10714275000000839,"midi":40,"time":97.4999025,"velocity":0.3937007874015748},{"duration":0.10714275000000839,"midi":42,"time":97.4999025,"velocity":0.23622047244094488},{"duration":0.10714274999999418,"midi":42,"time":97.60704525000001,"velocity":0.23622047244094488},{"duration":0.10714274999999418,"midi":42,"time":97.71418800000001,"velocity":0.5196850393700787},{"duration":0.10714274999999418,"midi":36,"time":97.71418800000001,"velocity":0.3937007874015748},{"duration":0.10714274999999418,"midi":42,"time":97.92847350000001,"velocity":0.23622047244094488},{"duration":0.10714274999999418,"midi":40,"time":97.92847350000001,"velocity":0.3937007874015748},{"duration":0.10714275000000839,"midi":42,"time":98.03561625,"velocity":0.23622047244094488},{"duration":0.10714275000000839,"midi":36,"time":98.03561625,"velocity":0.3937007874015748},{"duration":0.10714274999999418,"midi":42,"time":98.14275900000001,"velocity":0.5196850393700787},{"duration":0.10714274999999418,"midi":42,"time":98.35704450000001,"velocity":0.23622047244094488},{"duration":0.10714274999999418,"midi":40,"time":98.35704450000001,"velocity":0.3937007874015748},{"duration":0.10714274999999418,"midi":42,"time":98.46418725000001,"velocity":0.23622047244094488},{"duration":0.10714275000000839,"midi":36,"time":98.57133,"velocity":0.3937007874015748},{"duration":0.10714274999999418,"midi":42,"time":98.67847275000001,"velocity":0.23622047244094488},{"duration":0.10714275000000839,"midi":40,"time":98.7856155,"velocity":0.3937007874015748},{"duration":0.10714275000000839,"midi":42,"time":98.7856155,"velocity":0.23622047244094488},{"duration":0.10714274999999418,"midi":36,"time":98.89275825000001,"velocity":0.3937007874015748},{"duration":0.10714274999999418,"midi":42,"time":98.89275825000001,"velocity":0.23622047244094488},{"duration":0.10714274999999418,"midi":42,"time":98.99990100000001,"velocity":0.5196850393700787},{"duration":0.10714274999999418,"midi":42,"time":99.21418650000001,"velocity":0.23622047244094488},{"duration":0.10714274999999418,"midi":40,"time":99.21418650000001,"velocity":0.3937007874015748},{"duration":0.10714275000000839,"midi":42,"time":99.32132925,"velocity":0.23622047244094488},{"duration":0.10714274999999418,"midi":42,"time":99.42847200000001,"velocity":0.5196850393700787},{"duration":0.10714274999999418,"midi":36,"time":99.42847200000001,"velocity":0.3937007874015748},{"duration":0.10714275000000839,"midi":40,"time":99.6427575,"velocity":0.3937007874015748},{"duration":0.10714275000000839,"midi":42,"time":99.6427575,"velocity":0.23622047244094488},{"duration":0.10714274999999418,"midi":42,"time":99.74990025000001,"velocity":0.23622047244094488},{"duration":0.10714274999999418,"midi":36,"time":99.74990025000001,"velocity":0.3937007874015748},{"duration":0.10714275000000839,"midi":42,"time":99.857043,"velocity":0.5196850393700787},{"duration":0.10714274999999418,"midi":42,"time":100.0713285,"velocity":0.23622047244094488},{"duration":0.10714274999999418,"midi":40,"time":100.0713285,"velocity":0.3937007874015748},{"duration":0.10714275000000839,"midi":42,"time":100.17847125,"velocity":0.23622047244094488},{"duration":0.10714274999999418,"midi":36,"time":100.28561400000001,"velocity":0.3937007874015748},{"duration":0.10714275000000839,"midi":42,"time":100.39275675,"velocity":0.23622047244094488},{"duration":0.10714274999999418,"midi":42,"time":100.49989950000001,"velocity":0.23622047244094488},{"duration":0.10714274999999418,"midi":40,"time":100.49989950000001,"velocity":0.3937007874015748},{"duration":0.10714275000000839,"midi":42,"time":100.60704225,"velocity":0.23622047244094488},{"duration":0.10714275000000839,"midi":36,"time":100.60704225,"velocity":0.3937007874015748},{"duration":0.10714274999999418,"midi":42,"time":100.71418500000001,"velocity":0.5196850393700787},{"duration":0.10714274999999418,"midi":40,"time":100.71418500000001,"velocity":0.3937007874015748},{"duration":0.10714275000000839,"midi":40,"time":100.9284705,"velocity":0.3937007874015748},{"duration":0.10714275000000839,"midi":42,"time":100.9284705,"velocity":0.23622047244094488},{"duration":0.10714274999999418,"midi":42,"time":101.03561325000001,"velocity":0.23622047244094488},{"duration":0.10714274999999418,"midi":40,"time":101.03561325000001,"velocity":0.3937007874015748},{"duration":0.10714275000000839,"midi":36,"time":101.142756,"velocity":0.3937007874015748},{"duration":0.10714275000000839,"midi":42,"time":101.142756,"velocity":0.5196850393700787},{"duration":0.10714274999999418,"midi":42,"time":101.35704150000001,"velocity":0.23622047244094488},{"duration":0.10714274999999418,"midi":40,"time":101.35704150000001,"velocity":0.3937007874015748},{"duration":0.10714275000000839,"midi":36,"time":101.46418425,"velocity":0.3937007874015748},{"duration":0.10714275000000839,"midi":42,"time":101.46418425,"velocity":0.23622047244094488},{"duration":0.10714274999999418,"midi":42,"time":101.57132700000001,"velocity":0.5196850393700787},{"duration":0.10714274999999418,"midi":42,"time":101.78561250000001,"velocity":0.23622047244094488},{"duration":0.10714274999999418,"midi":40,"time":101.78561250000001,"velocity":0.3937007874015748},{"duration":0.10714274999999418,"midi":42,"time":101.89275525000001,"velocity":0.23622047244094488},{"duration":0.10714275000000839,"midi":36,"time":101.999898,"velocity":0.3937007874015748},{"duration":0.10714274999999418,"midi":42,"time":102.10704075000001,"velocity":0.23622047244094488},{"duration":0.10714275000000839,"midi":40,"time":102.2141835,"velocity":0.3937007874015748},{"duration":0.10714275000000839,"midi":42,"time":102.2141835,"velocity":0.23622047244094488},{"duration":0.10714274999999418,"midi":42,"time":102.32132625000001,"velocity":0.23622047244094488},{"duration":0.10714274999999418,"midi":36,"time":102.32132625000001,"velocity":0.3937007874015748},{"duration":0.10714275000000839,"midi":40,"time":102.428469,"velocity":0.3937007874015748},{"duration":0.10714275000000839,"midi":42,"time":102.428469,"velocity":0.5196850393700787},{"duration":0.10714274999999418,"midi":40,"time":102.53561175000002,"velocity":0.3937007874015748},{"duration":0.053571375000004195,"midi":40,"time":102.64275450000001,"velocity":0.3937007874015748},{"duration":0.10714274999999418,"midi":42,"time":102.64275450000001,"velocity":0.23622047244094488},{"duration":0.053571374999989985,"midi":40,"time":102.69632587500001,"velocity":0.2755905511811024},{"duration":0.10714275000000839,"midi":40,"time":102.74989725,"velocity":0.3937007874015748},{"duration":0.10714275000000839,"midi":42,"time":102.74989725,"velocity":0.23622047244094488},{"duration":0.10714274999999418,"midi":42,"time":102.85704000000001,"velocity":0.5196850393700787},{"duration":0.10714274999999418,"midi":36,"time":102.85704000000001,"velocity":0.3937007874015748},{"duration":0.10714274999999418,"midi":42,"time":103.07132550000001,"velocity":0.23622047244094488},{"duration":0.10714274999999418,"midi":40,"time":103.07132550000001,"velocity":0.3937007874015748},{"duration":0.10714274999999418,"midi":36,"time":103.17846825000001,"velocity":0.3937007874015748},{"duration":0.10714274999999418,"midi":42,"time":103.17846825000001,"velocity":0.23622047244094488},{"duration":0.10714275000000839,"midi":42,"time":103.285611,"velocity":0.5196850393700787},{"duration":0.10714275000000839,"midi":42,"time":103.4998965,"velocity":0.23622047244094488},{"duration":0.10714275000000839,"midi":40,"time":103.4998965,"velocity":0.3937007874015748},{"duration":0.10714274999999418,"midi":42,"time":103.60703925000001,"velocity":0.23622047244094488},{"duration":0.10714274999999418,"midi":36,"time":103.71418200000001,"velocity":0.3937007874015748},{"duration":0.10714275000000839,"midi":42,"time":103.82132475,"velocity":0.23622047244094488},{"duration":0.10714274999999418,"midi":42,"time":103.92846750000001,"velocity":0.23622047244094488},{"duration":0.10714274999999418,"midi":40,"time":103.92846750000001,"velocity":0.3937007874015748},{"duration":0.10714275000000839,"midi":42,"time":104.03561025,"velocity":0.23622047244094488},{"duration":0.10714275000000839,"midi":36,"time":104.03561025,"velocity":0.3937007874015748},{"duration":0.10714274999999418,"midi":42,"time":104.14275300000001,"velocity":0.5196850393700787},{"duration":0.10714275000000839,"midi":42,"time":104.3570385,"velocity":0.23622047244094488},{"duration":0.10714275000000839,"midi":40,"time":104.3570385,"velocity":0.3937007874015748},{"duration":0.10714274999999418,"midi":42,"time":104.46418125000001,"velocity":0.23622047244094488},{"duration":0.10714275000000839,"midi":42,"time":104.571324,"velocity":0.5196850393700787},{"duration":0.10714275000000839,"midi":36,"time":104.571324,"velocity":0.3937007874015748},{"duration":0.10714275000000839,"midi":40,"time":104.7856095,"velocity":0.3937007874015748},{"duration":0.10714275000000839,"midi":42,"time":104.7856095,"velocity":0.23622047244094488},{"duration":0.10714274999999418,"midi":42,"time":104.89275225000002,"velocity":0.23622047244094488},{"duration":0.10714274999999418,"midi":36,"time":104.89275225000002,"velocity":0.3937007874015748},{"duration":0.10714274999999418,"midi":42,"time":104.99989500000001,"velocity":0.5196850393700787},{"duration":0.10714274999999418,"midi":42,"time":105.21418050000001,"velocity":0.23622047244094488},{"duration":0.10714274999999418,"midi":40,"time":105.21418050000001,"velocity":0.3937007874015748},{"duration":0.10714275000000839,"midi":42,"time":105.32132325,"velocity":0.23622047244094488},{"duration":0.10714274999999418,"midi":36,"time":105.42846600000001,"velocity":0.3937007874015748},{"duration":0.10714274999999418,"midi":42,"time":105.53560875000001,"velocity":0.23622047244094488},{"duration":0.10714275000000839,"midi":42,"time":105.6427515,"velocity":0.23622047244094488},{"duration":0.10714275000000839,"midi":40,"time":105.6427515,"velocity":0.3937007874015748},{"duration":0.10714274999999418,"midi":36,"time":105.74989425000001,"velocity":0.3937007874015748},{"duration":0.10714274999999418,"midi":42,"time":105.74989425000001,"velocity":0.23622047244094488},{"duration":0.10714275000000839,"midi":42,"time":105.857037,"velocity":0.5196850393700787},{"duration":0.10714274999999418,"midi":42,"time":106.07132250000001,"velocity":0.23622047244094488},{"duration":0.10714274999999418,"midi":40,"time":106.07132250000001,"velocity":0.3937007874015748},{"duration":0.10714275000000839,"midi":42,"time":106.17846525,"velocity":0.23622047244094488},{"duration":0.10714274999999418,"midi":36,"time":106.28560800000001,"velocity":0.3937007874015748},{"duration":0.10714274999999418,"midi":42,"time":106.28560800000001,"velocity":0.5196850393700787},{"duration":0.10714274999999418,"midi":40,"time":106.49989350000001,"velocity":0.3937007874015748},{"duration":0.10714274999999418,"midi":42,"time":106.49989350000001,"velocity":0.23622047244094488},{"duration":0.10714275000000839,"midi":42,"time":106.60703625000001,"velocity":0.23622047244094488},{"duration":0.10714275000000839,"midi":36,"time":106.60703625000001,"velocity":0.3937007874015748},{"duration":0.10714274999999418,"midi":42,"time":106.71417900000002,"velocity":0.5196850393700787},{"duration":0.10714275000000839,"midi":42,"time":106.9284645,"velocity":0.23622047244094488},{"duration":0.10714275000000839,"midi":40,"time":106.9284645,"velocity":0.3937007874015748},{"duration":0.10714274999999418,"midi":42,"time":107.03560725000001,"velocity":0.23622047244094488},{"duration":0.10714275000000839,"midi":36,"time":107.14275,"velocity":0.3937007874015748},{"duration":0.10714274999999418,"midi":42,"time":107.24989275000001,"velocity":0.23622047244094488},{"duration":0.10714274999999418,"midi":40,"time":107.35703550000001,"velocity":0.3937007874015748},{"duration":0.10714274999999418,"midi":42,"time":107.35703550000001,"velocity":0.23622047244094488},{"duration":0.10714275000000839,"midi":42,"time":107.46417825,"velocity":0.23622047244094488},{"duration":0.10714275000000839,"midi":36,"time":107.46417825,"velocity":0.3937007874015748},{"duration":0.10714274999999418,"midi":42,"time":107.57132100000001,"velocity":0.5196850393700787},{"duration":0.10714274999999418,"midi":40,"time":107.57132100000001,"velocity":0.3937007874015748},{"duration":0.10714274999999418,"midi":40,"time":107.78560650000001,"velocity":0.3937007874015748},{"duration":0.10714274999999418,"midi":42,"time":107.78560650000001,"velocity":0.23622047244094488},{"duration":0.10714274999999418,"midi":40,"time":107.89274925000001,"velocity":0.3937007874015748},{"duration":0.10714274999999418,"midi":42,"time":107.89274925000001,"velocity":0.23622047244094488},{"duration":0.10714274999999418,"midi":42,"time":109.71417600000001,"velocity":0.5196850393700787},{"duration":0.10714274999999418,"midi":36,"time":109.71417600000001,"velocity":0.3937007874015748},{"duration":0.10714274999999418,"midi":40,"time":109.92846150000001,"velocity":0.3937007874015748},{"duration":0.10714274999999418,"midi":42,"time":109.92846150000001,"velocity":0.23622047244094488},{"duration":0.10714275000000839,"midi":36,"time":110.03560425,"velocity":0.3937007874015748},{"duration":0.10714275000000839,"midi":42,"time":110.03560425,"velocity":0.23622047244094488},{"duration":0.10714274999999418,"midi":42,"time":110.14274700000001,"velocity":0.5196850393700787},{"duration":0.10714275000000839,"midi":42,"time":110.3570325,"velocity":0.23622047244094488},{"duration":0.10714275000000839,"midi":40,"time":110.3570325,"velocity":0.3937007874015748},{"duration":0.10714274999999418,"midi":42,"time":110.46417525000001,"velocity":0.23622047244094488},{"duration":0.10714275000000839,"midi":36,"time":110.571318,"velocity":0.3937007874015748},{"duration":0.10714274999999418,"midi":42,"time":110.67846075000001,"velocity":0.23622047244094488},{"duration":0.10714275000000839,"midi":40,"time":110.78560350000001,"velocity":0.3937007874015748},{"duration":0.10714275000000839,"midi":42,"time":110.78560350000001,"velocity":0.23622047244094488},{"duration":0.10714274999999418,"midi":42,"time":110.89274625000002,"velocity":0.23622047244094488},{"duration":0.10714274999999418,"midi":36,"time":110.89274625000002,"velocity":0.3937007874015748},{"duration":0.10714274999999418,"midi":42,"time":110.99988900000001,"velocity":0.5196850393700787},{"duration":0.10714274999999418,"midi":42,"time":111.21417450000001,"velocity":0.23622047244094488},{"duration":0.10714274999999418,"midi":40,"time":111.21417450000001,"velocity":0.3937007874015748},{"duration":0.10714275000000839,"midi":42,"time":111.32131725,"velocity":0.23622047244094488},{"duration":0.10714274999999418,"midi":36,"time":111.42846000000002,"velocity":0.3937007874015748},{"duration":0.10714274999999418,"midi":42,"time":111.42846000000002,"velocity":0.5196850393700787},{"duration":0.10714275000000839,"midi":42,"time":111.6427455,"velocity":0.23622047244094488},{"duration":0.10714275000000839,"midi":40,"time":111.6427455,"velocity":0.3937007874015748},{"duration":0.10714274999999418,"midi":42,"time":111.74988825000001,"velocity":0.23622047244094488},{"duration":0.10714274999999418,"midi":36,"time":111.74988825000001,"velocity":0.3937007874015748},{"duration":0.10714275000000839,"midi":42,"time":111.857031,"velocity":0.5196850393700787},{"duration":0.10714274999999418,"midi":42,"time":112.07131650000001,"velocity":0.23622047244094488},{"duration":0.10714274999999418,"midi":40,"time":112.07131650000001,"velocity":0.3937007874015748},{"duration":0.10714275000000839,"midi":42,"time":112.17845925,"velocity":0.23622047244094488},{"duration":0.10714274999999418,"midi":36,"time":112.28560200000001,"velocity":0.3937007874015748},{"duration":0.10714275000000839,"midi":42,"time":112.39274475,"velocity":0.23622047244094488},{"duration":0.10714274999999418,"midi":40,"time":112.49988750000001,"velocity":0.3937007874015748},{"duration":0.10714274999999418,"midi":42,"time":112.49988750000001,"velocity":0.23622047244094488},{"duration":0.10714274999999418,"midi":36,"time":112.60703025000001,"velocity":0.3937007874015748},{"duration":0.10714274999999418,"midi":42,"time":112.60703025000001,"velocity":0.23622047244094488},{"duration":0.10714275000000839,"midi":42,"time":112.714173,"velocity":0.5196850393700787},{"duration":0.10714275000000839,"midi":40,"time":112.9284585,"velocity":0.3937007874015748},{"duration":0.10714275000000839,"midi":42,"time":112.9284585,"velocity":0.23622047244094488},{"duration":0.10714274999999418,"midi":42,"time":113.03560125000001,"velocity":0.23622047244094488},{"duration":0.10714275000000839,"midi":42,"time":113.14274400000001,"velocity":0.5196850393700787},{"duration":0.10714275000000839,"midi":36,"time":113.14274400000001,"velocity":0.3937007874015748},{"duration":0.10714274999999418,"midi":42,"time":113.35702950000001,"velocity":0.23622047244094488},{"duration":0.10714274999999418,"midi":40,"time":113.35702950000001,"velocity":0.3937007874015748},{"duration":0.10714275000000839,"midi":42,"time":113.46417225,"velocity":0.23622047244094488},{"duration":0.10714275000000839,"midi":36,"time":113.46417225,"velocity":0.3937007874015748},{"duration":0.10714274999999418,"midi":42,"time":113.57131500000001,"velocity":0.5196850393700787},{"duration":0.10714274999999418,"midi":42,"time":113.78560050000002,"velocity":0.23622047244094488},{"duration":0.10714274999999418,"midi":40,"time":113.78560050000002,"velocity":0.3937007874015748},{"duration":0.10714274999999418,"midi":42,"time":113.89274325000001,"velocity":0.23622047244094488},{"duration":0.10714275000000839,"midi":36,"time":113.999886,"velocity":0.3937007874015748},{"duration":0.10714274999999418,"midi":42,"time":114.10702875000001,"velocity":0.23622047244094488},{"duration":0.10714275000000839,"midi":40,"time":114.2141715,"velocity":0.3937007874015748},{"duration":0.10714275000000839,"midi":42,"time":114.2141715,"velocity":0.23622047244094488},{"duration":0.10714274999999418,"midi":42,"time":114.32131425000001,"velocity":0.23622047244094488},{"duration":0.10714274999999418,"midi":36,"time":114.32131425000001,"velocity":0.3937007874015748},{"duration":0.10714274999999418,"midi":42,"time":114.42845700000001,"velocity":0.5196850393700787},{"duration":0.10714274999999418,"midi":40,"time":114.42845700000001,"velocity":0.3937007874015748},{"duration":0.10714274999999418,"midi":42,"time":114.64274250000001,"velocity":0.23622047244094488},{"duration":0.10714274999999418,"midi":40,"time":114.64274250000001,"velocity":0.3937007874015748},{"duration":0.10714275000000839,"midi":40,"time":114.74988525,"velocity":0.3937007874015748},{"duration":0.10714275000000839,"midi":42,"time":114.74988525,"velocity":0.23622047244094488},{"duration":0.10714274999999418,"midi":36,"time":114.85702800000001,"velocity":0.3937007874015748},{"duration":0.10714274999999418,"midi":42,"time":114.85702800000001,"velocity":0.5196850393700787},{"duration":0.10714274999999418,"midi":40,"time":115.07131350000002,"velocity":0.3937007874015748},{"duration":0.10714274999999418,"midi":42,"time":115.07131350000002,"velocity":0.23622047244094488},{"duration":0.10714274999999418,"midi":42,"time":115.17845625000001,"velocity":0.23622047244094488},{"duration":0.10714274999999418,"midi":36,"time":115.17845625000001,"velocity":0.3937007874015748},{"duration":0.10714275000000839,"midi":42,"time":115.285599,"velocity":0.5196850393700787},{"duration":0.10714275000000839,"midi":40,"time":115.49988450000001,"velocity":0.3937007874015748},{"duration":0.10714275000000839,"midi":42,"time":115.49988450000001,"velocity":0.23622047244094488},{"duration":0.10714274999999418,"midi":42,"time":115.60702725000002,"velocity":0.23622047244094488},{"duration":0.10714274999999418,"midi":36,"time":115.71417000000001,"velocity":0.3937007874015748},{"duration":0.10714275000000839,"midi":42,"time":115.82131275,"velocity":0.23622047244094488},{"duration":0.10714274999999418,"midi":40,"time":115.92845550000001,"velocity":0.3937007874015748},{"duration":0.10714274999999418,"midi":42,"time":115.92845550000001,"velocity":0.23622047244094488},{"duration":0.10714275000000839,"midi":42,"time":116.03559825,"velocity":0.23622047244094488},{"duration":0.10714275000000839,"midi":36,"time":116.03559825,"velocity":0.3937007874015748},{"duration":0.10714274999999418,"midi":40,"time":116.14274100000002,"velocity":0.3937007874015748},{"duration":0.10714274999999418,"midi":42,"time":116.14274100000002,"velocity":0.5196850393700787},{"duration":0.10714274999999418,"midi":40,"time":116.24988375000001,"velocity":0.3937007874015748},{"duration":0.10714275000000839,"midi":42,"time":116.3570265,"velocity":0.23622047244094488},{"duration":0.053571375000004195,"midi":40,"time":116.3570265,"velocity":0.3937007874015748},{"duration":0.053571375000004195,"midi":40,"time":116.41059787500001,"velocity":0.2755905511811024},{"duration":0.10714274999999418,"midi":40,"time":116.46416925000001,"velocity":0.3937007874015748},{"duration":0.10714274999999418,"midi":42,"time":116.46416925000001,"velocity":0.23622047244094488},{"duration":0.10714275000000839,"midi":36,"time":116.571312,"velocity":0.3937007874015748},{"duration":0.10714275000000839,"midi":42,"time":116.571312,"velocity":0.5196850393700787},{"duration":0.10714274999999418,"midi":40,"time":116.78559750000001,"velocity":0.3937007874015748},{"duration":0.10714274999999418,"midi":42,"time":116.78559750000001,"velocity":0.23622047244094488},{"duration":0.10714275000000839,"midi":42,"time":116.89274025,"velocity":0.23622047244094488},{"duration":0.10714275000000839,"midi":36,"time":116.89274025,"velocity":0.3937007874015748},{"duration":0.10714274999999418,"midi":42,"time":116.99988300000001,"velocity":0.5196850393700787},{"duration":0.10714274999999418,"midi":40,"time":117.21416850000001,"velocity":0.3937007874015748},{"duration":0.10714274999999418,"midi":42,"time":117.21416850000001,"velocity":0.23622047244094488},{"duration":0.10714275000000839,"midi":42,"time":117.32131125000001,"velocity":0.23622047244094488},{"duration":0.10714274999999418,"midi":36,"time":117.42845400000002,"velocity":0.3937007874015748},{"duration":0.10714274999999418,"midi":42,"time":117.53559675000001,"velocity":0.23622047244094488},{"duration":0.10714275000000839,"midi":42,"time":117.6427395,"velocity":0.23622047244094488},{"duration":0.10714275000000839,"midi":40,"time":117.6427395,"velocity":0.3937007874015748},{"duration":0.10714274999999418,"midi":42,"time":117.74988225000001,"velocity":0.23622047244094488},{"duration":0.10714274999999418,"midi":36,"time":117.74988225000001,"velocity":0.3937007874015748},{"duration":0.10714275000000839,"midi":42,"time":117.85702500000001,"velocity":0.5196850393700787},{"duration":0.10714274999999418,"midi":42,"time":118.07131050000001,"velocity":0.23622047244094488},{"duration":0.10714274999999418,"midi":40,"time":118.07131050000001,"velocity":0.3937007874015748},{"duration":0.10714275000000839,"midi":42,"time":118.17845325,"velocity":0.23622047244094488},{"duration":0.10714274999999418,"midi":42,"time":118.28559600000001,"velocity":0.5196850393700787},{"duration":0.10714274999999418,"midi":36,"time":118.28559600000001,"velocity":0.3937007874015748},{"duration":0.10714274999999418,"midi":40,"time":118.49988150000001,"velocity":0.3937007874015748},{"duration":0.10714274999999418,"midi":42,"time":118.49988150000001,"velocity":0.23622047244094488},{"duration":0.10714274999999418,"midi":36,"time":118.60702425000001,"velocity":0.3937007874015748},{"duration":0.10714274999999418,"midi":42,"time":118.60702425000001,"velocity":0.23622047244094488},{"duration":0.10714275000000839,"midi":42,"time":118.714167,"velocity":0.5196850393700787},{"duration":0.10714275000000839,"midi":40,"time":118.9284525,"velocity":0.3937007874015748},{"duration":0.10714275000000839,"midi":42,"time":118.9284525,"velocity":0.23622047244094488},{"duration":0.10714274999999418,"midi":42,"time":119.03559525000001,"velocity":0.23622047244094488},{"duration":0.10714275000000839,"midi":36,"time":119.14273800000001,"velocity":0.3937007874015748},{"duration":0.10714274999999418,"midi":42,"time":119.24988075000002,"velocity":0.23622047244094488},{"duration":0.10714274999999418,"midi":40,"time":119.35702350000001,"velocity":0.3937007874015748},{"duration":0.10714274999999418,"midi":42,"time":119.35702350000001,"velocity":0.23622047244094488},{"duration":0.10714275000000839,"midi":36,"time":119.46416625,"velocity":0.3937007874015748},{"duration":0.10714275000000839,"midi":42,"time":119.46416625,"velocity":0.23622047244094488},{"duration":0.10714274999999418,"midi":42,"time":119.57130900000001,"velocity":0.5196850393700787},{"duration":0.10714274999999418,"midi":40,"time":119.78559450000002,"velocity":0.3937007874015748},{"duration":0.10714274999999418,"midi":42,"time":119.78559450000002,"velocity":0.23622047244094488},{"duration":0.10714274999999418,"midi":42,"time":119.89273725000001,"velocity":0.23622047244094488},{"duration":0.10714275000000839,"midi":42,"time":119.99988,"velocity":0.5196850393700787},{"duration":0.10714275000000839,"midi":36,"time":119.99988,"velocity":0.3937007874015748},{"duration":0.10714275000000839,"midi":42,"time":120.21416550000001,"velocity":0.23622047244094488},{"duration":0.10714275000000839,"midi":40,"time":120.21416550000001,"velocity":0.3937007874015748},{"duration":0.10714274999999418,"midi":36,"time":120.32130825000002,"velocity":0.3937007874015748},{"duration":0.10714274999999418,"midi":42,"time":120.32130825000002,"velocity":0.23622047244094488},{"duration":0.10714274999999418,"midi":42,"time":120.42845100000001,"velocity":0.5196850393700787},{"duration":0.10714274999999418,"midi":42,"time":120.64273650000001,"velocity":0.23622047244094488},{"duration":0.10714274999999418,"midi":40,"time":120.64273650000001,"velocity":0.3937007874015748},{"duration":0.10714275000000839,"midi":42,"time":120.74987925,"velocity":0.23622047244094488},{"duration":0.10714274999999418,"midi":36,"time":120.85702200000001,"velocity":0.3937007874015748},{"duration":0.10714274999999418,"midi":42,"time":120.96416475000001,"velocity":0.23622047244094488},{"duration":0.10714275000000839,"midi":42,"time":121.0713075,"velocity":0.23622047244094488},{"duration":0.10714275000000839,"midi":40,"time":121.0713075,"velocity":0.3937007874015748},{"duration":0.10714274999999418,"midi":36,"time":121.17845025000001,"velocity":0.3937007874015748},{"duration":0.10714274999999418,"midi":42,"time":121.17845025000001,"velocity":0.23622047244094488},{"duration":0.10714275000000839,"midi":40,"time":121.285593,"velocity":0.3937007874015748},{"duration":0.10714275000000839,"midi":42,"time":121.285593,"velocity":0.5196850393700787},{"duration":0.10714275000000839,"midi":42,"time":121.49987850000001,"velocity":0.23622047244094488},{"duration":0.10714275000000839,"midi":40,"time":121.49987850000001,"velocity":0.3937007874015748},{"duration":0.10714274999999418,"midi":40,"time":121.60702125000002,"velocity":0.3937007874015748},{"duration":0.10714274999999418,"midi":42,"time":121.60702125000002,"velocity":0.23622047244094488},{"duration":0.10714274999999418,"midi":36,"time":121.71416400000001,"velocity":0.3937007874015748},{"duration":0.10714274999999418,"midi":42,"time":121.71416400000001,"velocity":0.5196850393700787},{"duration":0.10714274999999418,"midi":42,"time":121.92844950000001,"velocity":0.23622047244094488},{"duration":0.10714274999999418,"midi":40,"time":121.92844950000001,"velocity":0.3937007874015748},{"duration":0.10714275000000839,"midi":36,"time":122.03559225000001,"velocity":0.3937007874015748},{"duration":0.10714275000000839,"midi":42,"time":122.03559225000001,"velocity":0.23622047244094488},{"duration":0.10714274999999418,"midi":42,"time":122.14273500000002,"velocity":0.5196850393700787},{"duration":0.10714275000000839,"midi":40,"time":122.3570205,"velocity":0.3937007874015748},{"duration":0.10714275000000839,"midi":42,"time":122.3570205,"velocity":0.23622047244094488},{"duration":0.10714274999999418,"midi":42,"time":122.46416325000001,"velocity":0.23622047244094488},{"duration":0.10714275000000839,"midi":36,"time":122.571306,"velocity":0.3937007874015748},{"duration":0.10714274999999418,"midi":42,"time":122.67844875000002,"velocity":0.23622047244094488},{"duration":0.10714274999999418,"midi":40,"time":122.78559150000001,"velocity":0.3937007874015748},{"duration":0.10714274999999418,"midi":42,"time":122.78559150000001,"velocity":0.23622047244094488},{"duration":0.10714275000000839,"midi":42,"time":122.89273425,"velocity":0.23622047244094488},{"duration":0.10714275000000839,"midi":36,"time":122.89273425,"velocity":0.3937007874015748},{"duration":0.10714274999999418,"midi":40,"time":122.99987700000001,"velocity":0.3937007874015748},{"duration":0.10714274999999418,"midi":42,"time":122.99987700000001,"velocity":0.5196850393700787},{"duration":0.10714275000000839,"midi":40,"time":123.10701975,"velocity":0.3937007874015748},{"duration":0.053571374999989985,"midi":40,"time":123.21416250000001,"velocity":0.3937007874015748},{"duration":0.10714274999999418,"midi":42,"time":123.21416250000001,"velocity":0.23622047244094488},{"duration":0.053571375000004195,"midi":40,"time":123.267733875,"velocity":0.2755905511811024},{"duration":0.10714274999999418,"midi":42,"time":123.32130525000001,"velocity":0.23622047244094488},{"duration":0.10714274999999418,"midi":40,"time":123.32130525000001,"velocity":0.3937007874015748},{"duration":0.10714275000000839,"midi":36,"time":123.428448,"velocity":0.3937007874015748},{"duration":0.10714275000000839,"midi":42,"time":123.428448,"velocity":0.5196850393700787},{"duration":0.10714275000000839,"midi":40,"time":123.6427335,"velocity":0.3937007874015748},{"duration":0.10714275000000839,"midi":42,"time":123.6427335,"velocity":0.23622047244094488},{"duration":0.10714274999999418,"midi":36,"time":123.74987625000001,"velocity":0.3937007874015748},{"duration":0.10714274999999418,"midi":42,"time":123.74987625000001,"velocity":0.23622047244094488},{"duration":0.10714275000000839,"midi":42,"time":123.85701900000001,"velocity":0.5196850393700787},{"duration":0.10714274999999418,"midi":42,"time":124.07130450000001,"velocity":0.23622047244094488},{"duration":0.10714274999999418,"midi":40,"time":124.07130450000001,"velocity":0.3937007874015748},{"duration":0.10714275000000839,"midi":42,"time":124.17844725,"velocity":0.23622047244094488},{"duration":0.10714274999999418,"midi":36,"time":124.28559000000001,"velocity":0.3937007874015748},{"duration":0.10714275000000839,"midi":42,"time":124.39273275000001,"velocity":0.23622047244094488},{"duration":0.10714274999999418,"midi":42,"time":124.49987550000002,"velocity":0.23622047244094488},{"duration":0.10714274999999418,"midi":40,"time":124.49987550000002,"velocity":0.3937007874015748},{"duration":0.10714274999999418,"midi":36,"time":124.60701825000001,"velocity":0.3937007874015748},{"duration":0.10714274999999418,"midi":42,"time":124.60701825000001,"velocity":0.23622047244094488},{"duration":0.10714275000000839,"midi":42,"time":124.714161,"velocity":0.5196850393700787},{"duration":0.10714275000000839,"midi":40,"time":124.9284465,"velocity":0.3937007874015748},{"duration":0.10714275000000839,"midi":42,"time":124.9284465,"velocity":0.23622047244094488},{"duration":0.10714274999999418,"midi":42,"time":125.03558925000002,"velocity":0.23622047244094488},{"duration":0.10714274999999418,"midi":42,"time":125.14273200000001,"velocity":0.5196850393700787},{"duration":0.10714274999999418,"midi":36,"time":125.14273200000001,"velocity":0.3937007874015748},{"duration":0.10714274999999418,"midi":40,"time":125.35701750000001,"velocity":0.3937007874015748},{"duration":0.10714274999999418,"midi":42,"time":125.35701750000001,"velocity":0.23622047244094488},{"duration":0.10714275000000839,"midi":36,"time":125.46416025,"velocity":0.3937007874015748},{"duration":0.10714275000000839,"midi":42,"time":125.46416025,"velocity":0.23622047244094488},{"duration":0.10714274999999418,"midi":42,"time":125.57130300000001,"velocity":0.5196850393700787},{"duration":0.10714274999999418,"midi":40,"time":125.78558850000002,"velocity":0.3937007874015748},{"duration":0.10714274999999418,"midi":42,"time":125.78558850000002,"velocity":0.23622047244094488},{"duration":0.10714274999999418,"midi":42,"time":125.89273125000001,"velocity":0.23622047244094488},{"duration":0.10714275000000839,"midi":36,"time":125.999874,"velocity":0.3937007874015748},{"duration":0.10714274999999418,"midi":42,"time":126.10701675000001,"velocity":0.23622047244094488},{"duration":0.10714275000000839,"midi":42,"time":126.21415950000001,"velocity":0.23622047244094488},{"duration":0.10714275000000839,"midi":40,"time":126.21415950000001,"velocity":0.3937007874015748},{"duration":0.10714274999999418,"midi":42,"time":126.32130225000002,"velocity":0.23622047244094488},{"duration":0.10714274999999418,"midi":36,"time":126.32130225000002,"velocity":0.3937007874015748},{"duration":0.10714274999999418,"midi":42,"time":126.42844500000001,"velocity":0.5196850393700787},{"duration":0.10714274999999418,"midi":42,"time":126.64273050000001,"velocity":0.23622047244094488},{"duration":0.10714274999999418,"midi":40,"time":126.64273050000001,"velocity":0.3937007874015748},{"duration":0.10714275000000839,"midi":42,"time":126.74987325000001,"velocity":0.23622047244094488},{"duration":0.10714274999999418,"midi":36,"time":126.85701600000002,"velocity":0.3937007874015748},{"duration":0.10714274999999418,"midi":42,"time":126.85701600000002,"velocity":0.5196850393700787},{"duration":0.10714275000000839,"midi":42,"time":127.0713015,"velocity":0.23622047244094488},{"duration":0.10714275000000839,"midi":40,"time":127.0713015,"velocity":0.3937007874015748},{"duration":0.10714274999999418,"midi":42,"time":127.17844425000001,"velocity":0.23622047244094488},{"duration":0.10714274999999418,"midi":36,"time":127.17844425000001,"velocity":0.3937007874015748},{"duration":0.10714275000000839,"midi":42,"time":127.285587,"velocity":0.5196850393700787},{"duration":0.10714274999999418,"midi":40,"time":127.49987250000001,"velocity":0.3937007874015748},{"duration":0.10714274999999418,"midi":42,"time":127.49987250000001,"velocity":0.23622047244094488},{"duration":0.10714275000000839,"midi":42,"time":127.60701525,"velocity":0.23622047244094488},{"duration":0.10714274999999418,"midi":36,"time":127.71415800000001,"velocity":0.3937007874015748},{"duration":0.10714275000000839,"midi":42,"time":127.82130075,"velocity":0.23622047244094488},{"duration":0.10714275000000839,"midi":40,"time":127.92844350000001,"velocity":0.3937007874015748},{"duration":0.10714275000000839,"midi":42,"time":127.92844350000001,"velocity":0.23622047244094488},{"duration":0.10714274999997997,"midi":42,"time":128.03558625000002,"velocity":0.23622047244094488},{"duration":0.10714274999997997,"midi":36,"time":128.03558625000002,"velocity":0.3937007874015748},{"duration":0.10714275000000839,"midi":42,"time":128.142729,"velocity":0.5196850393700787},{"duration":0.10714275000000839,"midi":40,"time":128.142729,"velocity":0.3937007874015748},{"duration":0.10714274999997997,"midi":40,"time":128.35701450000002,"velocity":0.3937007874015748},{"duration":0.10714274999997997,"midi":42,"time":128.35701450000002,"velocity":0.23622047244094488},{"duration":0.10714275000000839,"midi":42,"time":128.46415725,"velocity":0.23622047244094488},{"duration":0.10714275000000839,"midi":40,"time":128.46415725,"velocity":0.3937007874015748},{"duration":0.10714275000000839,"midi":42,"time":128.5713,"velocity":0.5196850393700787},{"duration":0.10714275000000839,"midi":36,"time":128.5713,"velocity":0.3937007874015748},{"duration":0.10714274999997997,"midi":42,"time":128.78558550000002,"velocity":0.23622047244094488},{"duration":0.10714274999997997,"midi":40,"time":128.78558550000002,"velocity":0.3937007874015748},{"duration":0.10714275000000839,"midi":42,"time":128.89272825,"velocity":0.23622047244094488},{"duration":0.10714275000000839,"midi":36,"time":128.89272825,"velocity":0.3937007874015748},{"duration":0.10714275000000839,"midi":42,"time":128.999871,"velocity":0.5196850393700787},{"duration":0.10714275000000839,"midi":42,"time":129.2141565,"velocity":0.23622047244094488},{"duration":0.10714275000000839,"midi":40,"time":129.2141565,"velocity":0.3937007874015748},{"duration":0.10714275000000839,"midi":42,"time":129.32129925,"velocity":0.23622047244094488},{"duration":0.10714274999997997,"midi":36,"time":129.42844200000002,"velocity":0.3937007874015748},{"duration":0.10714275000000839,"midi":42,"time":129.53558475,"velocity":0.23622047244094488},{"duration":0.10714275000000839,"midi":42,"time":129.6427275,"velocity":0.23622047244094488},{"duration":0.10714275000000839,"midi":40,"time":129.6427275,"velocity":0.3937007874015748},{"duration":0.10714275000000839,"midi":36,"time":129.74987025000001,"velocity":0.3937007874015748},{"duration":0.10714275000000839,"midi":42,"time":129.74987025000001,"velocity":0.23622047244094488},{"duration":0.10714274999997997,"midi":42,"time":129.85701300000002,"velocity":0.5196850393700787},{"duration":0.10714274999997997,"midi":40,"time":129.85701300000002,"velocity":0.3937007874015748},{"duration":0.10714275000000839,"midi":40,"time":129.96415575,"velocity":0.3937007874015748},{"duration":0.053571374999989985,"midi":40,"time":130.0712985,"velocity":0.3937007874015748},{"duration":0.10714275000000839,"midi":42,"time":130.0712985,"velocity":0.23622047244094488},{"duration":0.053571375000018406,"midi":40,"time":130.124869875,"velocity":0.2755905511811024},{"duration":0.10714274999997997,"midi":42,"time":130.17844125000002,"velocity":0.23622047244094488},{"duration":0.10714274999997997,"midi":40,"time":130.17844125000002,"velocity":0.3937007874015748},{"duration":0.10714275000000839,"midi":42,"time":130.285584,"velocity":0.5196850393700787},{"duration":0.10714275000000839,"midi":36,"time":130.285584,"velocity":0.3937007874015748},{"duration":0.10714274999997997,"midi":40,"time":130.49986950000002,"velocity":0.3937007874015748},{"duration":0.10714274999997997,"midi":42,"time":130.49986950000002,"velocity":0.23622047244094488},{"duration":0.10714275000000839,"midi":36,"time":130.60701225,"velocity":0.3937007874015748},{"duration":0.10714275000000839,"midi":42,"time":130.60701225,"velocity":0.23622047244094488},{"duration":0.10714275000000839,"midi":42,"time":130.714155,"velocity":0.5196850393700787},{"duration":0.10714274999997997,"midi":42,"time":130.92844050000002,"velocity":0.23622047244094488},{"duration":0.10714274999997997,"midi":40,"time":130.92844050000002,"velocity":0.3937007874015748},{"duration":0.10714275000000839,"midi":42,"time":131.03558325,"velocity":0.23622047244094488},{"duration":0.10714275000000839,"midi":36,"time":131.142726,"velocity":0.3937007874015748},{"duration":0.10714274999997997,"midi":42,"time":131.24986875000002,"velocity":0.23622047244094488},{"duration":0.10714275000000839,"midi":42,"time":131.3570115,"velocity":0.23622047244094488},{"duration":0.10714275000000839,"midi":40,"time":131.3570115,"velocity":0.3937007874015748},{"duration":0.10714275000000839,"midi":36,"time":131.46415425,"velocity":0.3937007874015748},{"duration":0.10714275000000839,"midi":42,"time":131.46415425,"velocity":0.23622047244094488},{"duration":0.10714275000000839,"midi":42,"time":131.57129700000002,"velocity":0.5196850393700787},{"duration":0.10714275000000839,"midi":40,"time":131.7855825,"velocity":0.3937007874015748},{"duration":0.10714275000000839,"midi":42,"time":131.7855825,"velocity":0.23622047244094488},{"duration":0.10714275000000839,"midi":42,"time":131.89272525,"velocity":0.23622047244094488},{"duration":0.10714274999997997,"midi":36,"time":131.99986800000002,"velocity":0.3937007874015748},{"duration":0.10714274999997997,"midi":42,"time":131.99986800000002,"velocity":0.5196850393700787},{"duration":0.10714275000000839,"midi":40,"time":132.2141535,"velocity":0.3937007874015748},{"duration":0.10714275000000839,"midi":42,"time":132.2141535,"velocity":0.23622047244094488},{"duration":0.10714274999997997,"midi":36,"time":132.32129625000002,"velocity":0.3937007874015748},{"duration":0.10714274999997997,"midi":42,"time":132.32129625000002,"velocity":0.23622047244094488},{"duration":0.10714275000000839,"midi":42,"time":132.428439,"velocity":0.5196850393700787},{"duration":0.10714275000000839,"midi":42,"time":132.6427245,"velocity":0.23622047244094488},{"duration":0.10714275000000839,"midi":40,"time":132.6427245,"velocity":0.3937007874015748},{"duration":0.10714274999997997,"midi":42,"time":132.74986725000002,"velocity":0.23622047244094488},{"duration":0.10714275000000839,"midi":36,"time":132.85701,"velocity":0.3937007874015748},{"duration":0.10714275000000839,"midi":42,"time":132.96415275,"velocity":0.23622047244094488},{"duration":0.10714274999997997,"midi":40,"time":133.07129550000002,"velocity":0.3937007874015748},{"duration":0.10714274999997997,"midi":42,"time":133.07129550000002,"velocity":0.23622047244094488},{"duration":0.10714275000000839,"midi":36,"time":133.17843825,"velocity":0.3937007874015748},{"duration":0.10714275000000839,"midi":42,"time":133.17843825,"velocity":0.23622047244094488},{"duration":0.10714275000000839,"midi":42,"time":133.285581,"velocity":0.5196850393700787},{"duration":0.10714274999997997,"midi":42,"time":133.49986650000002,"velocity":0.23622047244094488},{"duration":0.10714274999997997,"midi":40,"time":133.49986650000002,"velocity":0.3937007874015748},{"duration":0.10714275000000839,"midi":42,"time":133.60700925,"velocity":0.23622047244094488},{"duration":0.10714275000000839,"midi":42,"time":133.714152,"velocity":0.5196850393700787},{"duration":0.10714275000000839,"midi":36,"time":133.714152,"velocity":0.3937007874015748},{"duration":0.10714275000000839,"midi":42,"time":133.9284375,"velocity":0.23622047244094488},{"duration":0.10714275000000839,"midi":40,"time":133.9284375,"velocity":0.3937007874015748},{"duration":0.10714275000000839,"midi":36,"time":134.03558025,"velocity":0.3937007874015748},{"duration":0.10714275000000839,"midi":42,"time":134.03558025,"velocity":0.23622047244094488},{"duration":0.10714274999997997,"midi":42,"time":134.14272300000002,"velocity":0.5196850393700787},{"duration":0.10714275000000839,"midi":42,"time":134.3570085,"velocity":0.23622047244094488},{"duration":0.10714275000000839,"midi":40,"time":134.3570085,"velocity":0.3937007874015748},{"duration":0.10714275000000839,"midi":42,"time":134.46415125000001,"velocity":0.23622047244094488},{"duration":0.10714274999997997,"midi":36,"time":134.57129400000002,"velocity":0.3937007874015748},{"duration":0.10714275000000839,"midi":42,"time":134.67843675,"velocity":0.23622047244094488},{"duration":0.10714275000000839,"midi":40,"time":134.7855795,"velocity":0.3937007874015748},{"duration":0.10714275000000839,"midi":42,"time":134.7855795,"velocity":0.23622047244094488},{"duration":0.10714274999997997,"midi":42,"time":134.89272225000002,"velocity":0.23622047244094488},{"duration":0.10714274999997997,"midi":36,"time":134.89272225000002,"velocity":0.3937007874015748},{"duration":0.10714275000000839,"midi":42,"time":134.999865,"velocity":0.5196850393700787},{"duration":0.10714275000000839,"midi":40,"time":134.999865,"velocity":0.3937007874015748},{"duration":0.10714275000000839,"midi":42,"time":135.21415050000002,"velocity":0.23622047244094488},{"duration":0.10714275000000839,"midi":40,"time":135.21415050000002,"velocity":0.3937007874015748},{"duration":0.10714274999997997,"midi":42,"time":135.32129325000002,"velocity":0.23622047244094488},{"duration":0.10714274999997997,"midi":40,"time":135.32129325000002,"velocity":0.3937007874015748},{"duration":0.10714275000000839,"midi":42,"time":135.428436,"velocity":0.3937007874015748},{"duration":0.10714275000000839,"midi":36,"time":135.428436,"velocity":0.3937007874015748},{"duration":0.10714275000000839,"midi":40,"time":135.428436,"velocity":0.3937007874015748},{"duration":0.10714274999997997,"midi":40,"time":135.64272150000002,"velocity":0.3937007874015748},{"duration":0.10714274999997997,"midi":42,"time":135.64272150000002,"velocity":0.3937007874015748},{"duration":0.10714275000000839,"midi":36,"time":135.74986425,"velocity":0.3937007874015748},{"duration":0.10714275000000839,"midi":40,"time":135.857007,"velocity":0.3937007874015748},{"duration":0.10714275000000839,"midi":42,"time":135.857007,"velocity":0.3937007874015748},{"duration":0.10714275000000839,"midi":40,"time":136.0712925,"velocity":0.3937007874015748},{"duration":0.10714275000000839,"midi":42,"time":136.0712925,"velocity":0.3937007874015748},{"duration":0.10714275000000839,"midi":36,"time":136.28557800000002,"velocity":0.3937007874015748},{"duration":0.10714275000000839,"midi":42,"time":136.28557800000002,"velocity":0.3937007874015748},{"duration":0.10714275000000839,"midi":40,"time":136.28557800000002,"velocity":0.3937007874015748},{"duration":0.10714275000000839,"midi":40,"time":136.4998635,"velocity":0.3937007874015748},{"duration":0.10714275000000839,"midi":42,"time":136.4998635,"velocity":0.3937007874015748},{"duration":0.10714275000000839,"midi":36,"time":136.60700625,"velocity":0.3937007874015748},{"duration":0.10714274999997997,"midi":40,"time":136.71414900000002,"velocity":0.3937007874015748},{"duration":0.10714274999997997,"midi":42,"time":136.71414900000002,"velocity":0.3937007874015748},{"duration":0.10714275000000839,"midi":42,"time":136.9284345,"velocity":0.3937007874015748},{"duration":0.10714275000000839,"midi":40,"time":136.9284345,"velocity":0.3937007874015748}]},{"instrument":{"family":"chromatic percussion","number":11,"name":"vibraphone"},"notes":[{"duration":1.7142840000000001,"midi":77,"time":0,"velocity":0.3937007874015748},{"duration":1.7142840000000001,"midi":34,"time":0,"velocity":0.3937007874015748},{"duration":1.7142840000000001,"midi":37,"time":0,"velocity":0.3937007874015748},{"duration":1.7142840000000001,"midi":41,"time":0,"velocity":0.3937007874015748},{"duration":1.7142840000000001,"midi":73,"time":0,"velocity":0.3937007874015748},{"duration":1.7142840000000001,"midi":70,"time":0,"velocity":0.3937007874015748},{"duration":1.7142840000000001,"midi":69,"time":1.7142840000000001,"velocity":0.3937007874015748},{"duration":1.7142840000000001,"midi":73,"time":1.7142840000000001,"velocity":0.3937007874015748},{"duration":1.7142840000000001,"midi":40,"time":1.7142840000000001,"velocity":0.3937007874015748},{"duration":1.7142840000000001,"midi":37,"time":1.7142840000000001,"velocity":0.3937007874015748},{"duration":1.7142840000000001,"midi":33,"time":1.7142840000000001,"velocity":0.3937007874015748},{"duration":1.7142840000000001,"midi":76,"time":1.7142840000000001,"velocity":0.3937007874015748},{"duration":1.7142840000000001,"midi":77,"time":3.4285680000000003,"velocity":0.3937007874015748},{"duration":1.7142840000000001,"midi":34,"time":3.4285680000000003,"velocity":0.3937007874015748},{"duration":1.7142840000000001,"midi":37,"time":3.4285680000000003,"velocity":0.3937007874015748},{"duration":1.7142840000000001,"midi":41,"time":3.4285680000000003,"velocity":0.3937007874015748},{"duration":1.7142840000000001,"midi":70,"time":3.4285680000000003,"velocity":0.3937007874015748},{"duration":1.7142840000000001,"midi":73,"time":3.4285680000000003,"velocity":0.3937007874015748},{"duration":1.7142840000000001,"midi":40,"time":5.142852,"velocity":0.3937007874015748},{"duration":1.7142840000000001,"midi":76,"time":5.142852,"velocity":0.3937007874015748},{"duration":1.7142840000000001,"midi":80,"time":5.142852,"velocity":0.3937007874015748},{"duration":1.7142840000000001,"midi":37,"time":5.142852,"velocity":0.3937007874015748},{"duration":1.7142840000000001,"midi":73,"time":5.142852,"velocity":0.3937007874015748},{"duration":1.7142840000000001,"midi":44,"time":5.142852,"velocity":0.3937007874015748},{"duration":1.7142839999999993,"midi":37,"time":6.857136000000001,"velocity":0.3937007874015748},{"duration":1.7142839999999993,"midi":41,"time":6.857136000000001,"velocity":0.3937007874015748},{"duration":1.7142839999999993,"midi":70,"time":6.857136000000001,"velocity":0.3937007874015748},{"duration":1.7142839999999993,"midi":73,"time":6.857136000000001,"velocity":0.3937007874015748},{"duration":1.7142839999999993,"midi":34,"time":6.857136000000001,"velocity":0.3937007874015748},{"duration":1.7142839999999993,"midi":77,"time":6.857136000000001,"velocity":0.3937007874015748},{"duration":1.714284000000001,"midi":37,"time":8.57142,"velocity":0.3937007874015748},{"duration":1.714284000000001,"midi":73,"time":8.57142,"velocity":0.3937007874015748},{"duration":1.714284000000001,"midi":76,"time":8.57142,"velocity":0.3937007874015748},{"duration":1.714284000000001,"midi":33,"time":8.57142,"velocity":0.3937007874015748},{"duration":1.714284000000001,"midi":69,"time":8.57142,"velocity":0.3937007874015748},{"duration":1.714284000000001,"midi":40,"time":8.57142,"velocity":0.3937007874015748},{"duration":1.714284000000001,"midi":37,"time":10.285704,"velocity":0.3937007874015748},{"duration":1.714284000000001,"midi":73,"time":10.285704,"velocity":0.3937007874015748},{"duration":1.714284000000001,"midi":34,"time":10.285704,"velocity":0.3937007874015748},{"duration":1.714284000000001,"midi":77,"time":10.285704,"velocity":0.3937007874015748},{"duration":1.714284000000001,"midi":70,"time":10.285704,"velocity":0.3937007874015748},{"duration":1.714284000000001,"midi":41,"time":10.285704,"velocity":0.3937007874015748},{"duration":1.7142839999999993,"midi":76,"time":11.999988000000002,"velocity":0.3937007874015748},{"duration":1.7142839999999993,"midi":44,"time":11.999988000000002,"velocity":0.3937007874015748},{"duration":1.7142839999999993,"midi":37,"time":11.999988000000002,"velocity":0.3937007874015748},{"duration":1.7142839999999993,"midi":80,"time":11.999988000000002,"velocity":0.3937007874015748},{"duration":1.7142839999999993,"midi":40,"time":11.999988000000002,"velocity":0.3937007874015748},{"duration":1.7142839999999993,"midi":73,"time":11.999988000000002,"velocity":0.3937007874015748},{"duration":0.05357137500000064,"midi":94,"time":19.714266000000002,"velocity":0.3937007874015748},{"duration":0.05357137500000064,"midi":94,"time":19.767837375000003,"velocity":0.3937007874015748},{"duration":0.05357137499999709,"midi":94,"time":19.821408750000003,"velocity":0.3937007874015748},{"duration":0.05357137500000064,"midi":94,"time":19.874980125,"velocity":0.3937007874015748},{"duration":0.05357137500000064,"midi":94,"time":19.9285515,"velocity":0.3937007874015748},{"duration":0.05357137500000064,"midi":94,"time":19.982122875,"velocity":0.3937007874015748},{"duration":0.05357137500000064,"midi":94,"time":20.035694250000002,"velocity":0.3937007874015748},{"duration":0.05357137499999709,"midi":94,"time":20.089265625000003,"velocity":0.3937007874015748},{"duration":0.05357137500000064,"midi":90,"time":20.142837,"velocity":0.3937007874015748},{"duration":0.05357137500000064,"midi":90,"time":20.196408375,"velocity":0.3937007874015748},{"duration":0.05357137500000064,"midi":90,"time":20.24997975,"velocity":0.3937007874015748},{"duration":0.05357137500000064,"midi":90,"time":20.303551125000002,"velocity":0.3937007874015748},{"duration":0.05357137500000064,"midi":90,"time":20.357122500000003,"velocity":0.3937007874015748},{"duration":0.05357137499999709,"midi":90,"time":20.410693875000003,"velocity":0.3937007874015748},{"duration":0.05357137500000064,"midi":90,"time":20.46426525,"velocity":0.3937007874015748},{"duration":0.05357137500000064,"midi":90,"time":20.517836625,"velocity":0.3937007874015748},{"duration":1.7142839999999993,"midi":41,"time":27.428544000000002,"velocity":0.3937007874015748},{"duration":1.7142839999999993,"midi":37,"time":27.428544000000002,"velocity":0.3937007874015748},{"duration":1.7142839999999993,"midi":70,"time":27.428544000000002,"velocity":0.3937007874015748},{"duration":1.7142839999999993,"midi":73,"time":27.428544000000002,"velocity":0.3937007874015748},{"duration":1.7142839999999993,"midi":34,"time":27.428544000000002,"velocity":0.3937007874015748},{"duration":1.7142839999999993,"midi":77,"time":27.428544000000002,"velocity":0.3937007874015748},{"duration":1.7142839999999993,"midi":37,"time":29.142828,"velocity":0.3937007874015748},{"duration":1.7142839999999993,"midi":73,"time":29.142828,"velocity":0.3937007874015748},{"duration":1.7142839999999993,"midi":40,"time":29.142828,"velocity":0.3937007874015748},{"duration":1.7142839999999993,"midi":76,"time":29.142828,"velocity":0.3937007874015748},{"duration":1.7142839999999993,"midi":69,"time":29.142828,"velocity":0.3937007874015748},{"duration":1.7142839999999993,"midi":33,"time":29.142828,"velocity":0.3937007874015748},{"duration":1.7142839999999993,"midi":70,"time":30.857112,"velocity":0.3937007874015748},{"duration":1.7142839999999993,"midi":41,"time":30.857112,"velocity":0.3937007874015748},{"duration":1.7142839999999993,"midi":73,"time":30.857112,"velocity":0.3937007874015748},{"duration":1.7142839999999993,"midi":77,"time":30.857112,"velocity":0.3937007874015748},{"duration":1.7142839999999993,"midi":34,"time":30.857112,"velocity":0.3937007874015748},{"duration":1.7142839999999993,"midi":37,"time":30.857112,"velocity":0.3937007874015748},{"duration":1.7142839999999993,"midi":44,"time":32.571396,"velocity":0.3937007874015748},{"duration":1.7142839999999993,"midi":80,"time":32.571396,"velocity":0.3937007874015748},{"duration":1.7142839999999993,"midi":73,"time":32.571396,"velocity":0.3937007874015748},{"duration":1.7142839999999993,"midi":40,"time":32.571396,"velocity":0.3937007874015748},{"duration":1.7142839999999993,"midi":37,"time":32.571396,"velocity":0.3937007874015748},{"duration":1.7142839999999993,"midi":76,"time":32.571396,"velocity":0.3937007874015748},{"duration":1.7142840000000064,"midi":37,"time":34.28568,"velocity":0.3937007874015748},{"duration":1.7142840000000064,"midi":73,"time":34.28568,"velocity":0.3937007874015748},{"duration":1.7142840000000064,"midi":41,"time":34.28568,"velocity":0.3937007874015748},{"duration":1.7142840000000064,"midi":77,"time":34.28568,"velocity":0.3937007874015748},{"duration":1.7142840000000064,"midi":34,"time":34.28568,"velocity":0.3937007874015748},{"duration":1.7142840000000064,"midi":70,"time":34.28568,"velocity":0.3937007874015748},{"duration":1.7142839999999993,"midi":37,"time":35.999964000000006,"velocity":0.3937007874015748},{"duration":1.7142839999999993,"midi":73,"time":35.999964000000006,"velocity":0.3937007874015748},{"duration":1.7142839999999993,"midi":40,"time":35.999964000000006,"velocity":0.3937007874015748},{"duration":1.7142839999999993,"midi":69,"time":35.999964000000006,"velocity":0.3937007874015748},{"duration":1.7142839999999993,"midi":33,"time":35.999964000000006,"velocity":0.3937007874015748},{"duration":1.7142839999999993,"midi":76,"time":35.999964000000006,"velocity":0.3937007874015748},{"duration":1.7142839999999993,"midi":70,"time":37.714248000000005,"velocity":0.3937007874015748},{"duration":1.7142839999999993,"midi":77,"time":37.714248000000005,"velocity":0.3937007874015748},{"duration":1.7142839999999993,"midi":34,"time":37.714248000000005,"velocity":0.3937007874015748},{"duration":1.7142839999999993,"midi":73,"time":37.714248000000005,"velocity":0.3937007874015748},{"duration":1.7142839999999993,"midi":37,"time":37.714248000000005,"velocity":0.3937007874015748},{"duration":1.7142839999999993,"midi":41,"time":37.714248000000005,"velocity":0.3937007874015748},{"duration":1.7142839999999993,"midi":40,"time":39.428532000000004,"velocity":0.3937007874015748},{"duration":1.7142839999999993,"midi":76,"time":39.428532000000004,"velocity":0.3937007874015748},{"duration":1.7142839999999993,"midi":37,"time":39.428532000000004,"velocity":0.3937007874015748},{"duration":1.7142839999999993,"midi":73,"time":39.428532000000004,"velocity":0.3937007874015748},{"duration":1.7142839999999993,"midi":80,"time":39.428532000000004,"velocity":0.3937007874015748},{"duration":1.7142839999999993,"midi":44,"time":39.428532000000004,"velocity":0.3937007874015748},{"duration":1.7142839999999993,"midi":42,"time":54.857088000000005,"velocity":0.3937007874015748},{"duration":0.10714275000000129,"midi":68,"time":54.857088000000005,"velocity":0.3937007874015748},{"duration":1.7142839999999993,"midi":54,"time":54.857088000000005,"velocity":0.3937007874015748},{"duration":0.10714274999999418,"midi":70,"time":55.07137350000001,"velocity":0.3937007874015748},{"duration":0.10714275000000129,"midi":63,"time":55.285659,"velocity":0.3937007874015748},{"duration":0.10714275000000129,"midi":65,"time":55.499944500000005,"velocity":0.3937007874015748},{"duration":0.10714274999999418,"midi":61,"time":55.71423000000001,"velocity":0.3937007874015748},{"duration":0.10714275000000129,"midi":58,"time":55.9285155,"velocity":0.3937007874015748},{"duration":0.10714275000000129,"midi":61,"time":56.142801000000006,"velocity":0.3937007874015748},{"duration":0.10714275000000129,"midi":63,"time":56.3570865,"velocity":0.3937007874015748},{"duration":1.7142839999999993,"midi":54,"time":56.571372000000004,"velocity":0.3937007874015748},{"duration":0.10714275000000129,"midi":68,"time":56.571372000000004,"velocity":0.3937007874015748},{"duration":1.7142839999999993,"midi":42,"time":56.571372000000004,"velocity":0.3937007874015748},{"duration":0.10714275000000129,"midi":70,"time":56.785657500000006,"velocity":0.3937007874015748},{"duration":0.10714275000000129,"midi":63,"time":56.999943,"velocity":0.3937007874015748},{"duration":0.10714275000000129,"midi":65,"time":57.214228500000004,"velocity":0.3937007874015748},{"duration":0.10714275000000129,"midi":61,"time":57.42851400000001,"velocity":0.3937007874015748},{"duration":0.10714275000000129,"midi":58,"time":57.6427995,"velocity":0.3937007874015748},{"duration":0.10714275000000129,"midi":61,"time":57.857085000000005,"velocity":0.3937007874015748},{"duration":0.10714274999999418,"midi":63,"time":58.07137050000001,"velocity":0.3937007874015748},{"duration":0.10714275000000129,"midi":68,"time":58.285656,"velocity":0.3937007874015748},{"duration":1.7142839999999993,"midi":39,"time":58.285656,"velocity":0.3937007874015748},{"duration":1.7142839999999993,"midi":56,"time":58.285656,"velocity":0.3937007874015748},{"duration":1.7142839999999993,"midi":44,"time":58.285656,"velocity":0.3937007874015748},{"duration":1.7142839999999993,"midi":51,"time":58.285656,"velocity":0.3937007874015748},{"duration":0.10714275000000129,"midi":70,"time":58.499941500000006,"velocity":0.3937007874015748},{"duration":0.10714274999999418,"midi":63,"time":58.71422700000001,"velocity":0.3937007874015748},{"duration":0.10714275000000129,"midi":65,"time":58.928512500000004,"velocity":0.3937007874015748},{"duration":0.10714275000000129,"midi":61,"time":59.142798000000006,"velocity":0.3937007874015748},{"duration":0.10714275000000129,"midi":58,"time":59.3570835,"velocity":0.3937007874015748},{"duration":0.10714275000000129,"midi":61,"time":59.571369000000004,"velocity":0.3937007874015748},{"duration":0.10714275000000129,"midi":63,"time":59.78565450000001,"velocity":0.3937007874015748},{"duration":1.7142839999999993,"midi":43,"time":59.99994,"velocity":0.3937007874015748},{"duration":1.7142839999999993,"midi":49,"time":59.99994,"velocity":0.3937007874015748},{"duration":0.10714275000000129,"midi":68,"time":59.99994,"velocity":0.3937007874015748},{"duration":1.7142839999999993,"midi":55,"time":59.99994,"velocity":0.3937007874015748},{"duration":1.7142839999999993,"midi":37,"time":59.99994,"velocity":0.3937007874015748},{"duration":0.10714275000000129,"midi":70,"time":60.214225500000005,"velocity":0.3937007874015748},{"duration":0.10714274999999418,"midi":63,"time":60.42851100000001,"velocity":0.3937007874015748},{"duration":0.10714275000000129,"midi":65,"time":60.6427965,"velocity":0.3937007874015748},{"duration":0.10714275000000129,"midi":61,"time":60.857082000000005,"velocity":0.3937007874015748},{"duration":0.10714274999999418,"midi":58,"time":61.07136750000001,"velocity":0.3937007874015748},{"duration":0.10714275000000129,"midi":61,"time":61.285653,"velocity":0.3937007874015748},{"duration":0.10714275000000129,"midi":63,"time":61.499938500000006,"velocity":0.3937007874015748},{"duration":0.10714275000000129,"midi":68,"time":61.714224,"velocity":0.3937007874015748},{"duration":1.7142840000000064,"midi":42,"time":61.714224,"velocity":0.3937007874015748},{"duration":1.7142840000000064,"midi":54,"time":61.714224,"velocity":0.3937007874015748},{"duration":0.10714275000000129,"midi":70,"time":61.928509500000004,"velocity":0.3937007874015748},{"duration":0.10714275000000129,"midi":63,"time":62.14279500000001,"velocity":0.3937007874015748},{"duration":0.10714275000000129,"midi":65,"time":62.3570805,"velocity":0.3937007874015748},{"duration":0.10714275000000129,"midi":61,"time":62.571366000000005,"velocity":0.3937007874015748},{"duration":0.10714275000000129,"midi":58,"time":62.78565150000001,"velocity":0.3937007874015748},{"duration":0.10714275000000129,"midi":61,"time":62.999937,"velocity":0.3937007874015748},{"duration":0.10714275000000129,"midi":63,"time":63.214222500000005,"velocity":0.3937007874015748},{"duration":1.7142839999999921,"midi":42,"time":63.42850800000001,"velocity":0.3937007874015748},{"duration":1.7142839999999921,"midi":54,"time":63.42850800000001,"velocity":0.3937007874015748},{"duration":0.10714274999999418,"midi":68,"time":63.42850800000001,"velocity":0.3937007874015748},{"duration":0.10714275000000129,"midi":70,"time":63.6427935,"velocity":0.3937007874015748},{"duration":0.10714275000000129,"midi":63,"time":63.857079000000006,"velocity":0.3937007874015748},{"duration":0.10714275000000839,"midi":65,"time":64.0713645,"velocity":0.3937007874015748},{"duration":0.10714275000000839,"midi":61,"time":64.28565,"velocity":0.3937007874015748},{"duration":0.10714274999999418,"midi":58,"time":64.4999355,"velocity":0.3937007874015748},{"duration":0.10714274999999418,"midi":61,"time":64.71422100000001,"velocity":0.3937007874015748},{"duration":0.10714274999999418,"midi":63,"time":64.92850650000001,"velocity":0.3937007874015748},{"duration":1.7142840000000064,"midi":56,"time":65.142792,"velocity":0.3937007874015748},{"duration":1.7142840000000064,"midi":51,"time":65.142792,"velocity":0.3937007874015748},{"duration":1.7142840000000064,"midi":39,"time":65.142792,"velocity":0.3937007874015748},{"duration":1.7142840000000064,"midi":44,"time":65.142792,"velocity":0.3937007874015748},{"duration":0.10714275000000839,"midi":68,"time":65.142792,"velocity":0.3937007874015748},{"duration":0.10714275000000839,"midi":70,"time":65.3570775,"velocity":0.3937007874015748},{"duration":0.10714274999999418,"midi":63,"time":65.571363,"velocity":0.3937007874015748},{"duration":0.10714274999999418,"midi":65,"time":65.78564850000001,"velocity":0.3937007874015748},{"duration":0.10714274999999418,"midi":61,"time":65.99993400000001,"velocity":0.3937007874015748},{"duration":0.10714275000000839,"midi":58,"time":66.2142195,"velocity":0.3937007874015748},{"duration":0.10714275000000839,"midi":61,"time":66.428505,"velocity":0.3937007874015748},{"duration":0.10714275000000839,"midi":63,"time":66.6427905,"velocity":0.3937007874015748},{"duration":1.7142839999999921,"midi":55,"time":66.857076,"velocity":0.3937007874015748},{"duration":1.7142839999999921,"midi":37,"time":66.857076,"velocity":0.3937007874015748},{"duration":1.7142839999999921,"midi":49,"time":66.857076,"velocity":0.3937007874015748},{"duration":1.7142839999999921,"midi":43,"time":66.857076,"velocity":0.3937007874015748},{"duration":0.10714274999999418,"midi":68,"time":66.857076,"velocity":0.3937007874015748},{"duration":0.10714274999999418,"midi":70,"time":67.07136150000001,"velocity":0.3937007874015748},{"duration":0.10714274999999418,"midi":63,"time":67.28564700000001,"velocity":0.3937007874015748},{"duration":0.10714275000000839,"midi":65,"time":67.4999325,"velocity":0.3937007874015748},{"duration":0.10714275000000839,"midi":61,"time":67.714218,"velocity":0.3937007874015748},{"duration":0.10714274999999418,"midi":58,"time":67.9285035,"velocity":0.3937007874015748},{"duration":0.10714274999999418,"midi":61,"time":68.14278900000001,"velocity":0.3937007874015748},{"duration":0.10714274999999418,"midi":63,"time":68.35707450000001,"velocity":0.3937007874015748},{"duration":1.7142840000000064,"midi":42,"time":68.57136,"velocity":0.3937007874015748},{"duration":1.7142840000000064,"midi":54,"time":68.57136,"velocity":0.3937007874015748},{"duration":0.10714275000000839,"midi":68,"time":68.57136,"velocity":0.3937007874015748},{"duration":0.10714275000000839,"midi":70,"time":68.7856455,"velocity":0.3937007874015748},{"duration":0.10714275000000839,"midi":63,"time":68.999931,"velocity":0.3937007874015748},{"duration":0.10714274999999418,"midi":65,"time":69.2142165,"velocity":0.3937007874015748},{"duration":0.10714274999999418,"midi":61,"time":69.42850200000001,"velocity":0.3937007874015748},{"duration":0.10714274999999418,"midi":58,"time":69.64278750000001,"velocity":0.3937007874015748},{"duration":0.10714275000000839,"midi":61,"time":69.857073,"velocity":0.3937007874015748},{"duration":0.10714275000000839,"midi":63,"time":70.0713585,"velocity":0.3937007874015748},{"duration":1.7142840000000064,"midi":54,"time":70.285644,"velocity":0.3937007874015748},{"duration":1.7142840000000064,"midi":42,"time":70.285644,"velocity":0.3937007874015748},{"duration":0.10714274999999418,"midi":68,"time":70.285644,"velocity":0.3937007874015748},{"duration":0.10714274999999418,"midi":70,"time":70.49992950000001,"velocity":0.3937007874015748},{"duration":0.10714274999999418,"midi":63,"time":70.71421500000001,"velocity":0.3937007874015748},{"duration":0.10714274999999418,"midi":65,"time":70.92850050000001,"velocity":0.3937007874015748},{"duration":0.10714275000000839,"midi":61,"time":71.142786,"velocity":0.3937007874015748},{"duration":0.10714275000000839,"midi":58,"time":71.3570715,"velocity":0.3937007874015748},{"duration":0.10714274999999418,"midi":61,"time":71.571357,"velocity":0.3937007874015748},{"duration":0.10714274999999418,"midi":63,"time":71.78564250000001,"velocity":0.3937007874015748},{"duration":0.10714274999999418,"midi":68,"time":71.99992800000001,"velocity":0.3937007874015748},{"duration":1.7142839999999921,"midi":44,"time":71.99992800000001,"velocity":0.3937007874015748},{"duration":1.7142839999999921,"midi":51,"time":71.99992800000001,"velocity":0.3937007874015748},{"duration":1.7142839999999921,"midi":56,"time":71.99992800000001,"velocity":0.3937007874015748},{"duration":1.7142839999999921,"midi":39,"time":71.99992800000001,"velocity":0.3937007874015748},{"duration":0.10714275000000839,"midi":70,"time":72.2142135,"velocity":0.3937007874015748},{"duration":0.10714275000000839,"midi":63,"time":72.428499,"velocity":0.3937007874015748},{"duration":0.10714274999999418,"midi":65,"time":72.6427845,"velocity":0.3937007874015748},{"duration":0.10714274999999418,"midi":61,"time":72.85707000000001,"velocity":0.3937007874015748},{"duration":0.10714274999999418,"midi":58,"time":73.07135550000001,"velocity":0.3937007874015748},{"duration":0.10714274999999418,"midi":61,"time":73.28564100000001,"velocity":0.3937007874015748},{"duration":0.10714275000000839,"midi":63,"time":73.4999265,"velocity":0.3937007874015748},{"duration":1.7142840000000064,"midi":37,"time":73.714212,"velocity":0.3937007874015748},{"duration":1.7142840000000064,"midi":49,"time":73.714212,"velocity":0.3937007874015748},{"duration":1.7142840000000064,"midi":43,"time":73.714212,"velocity":0.3937007874015748},{"duration":0.10714275000000839,"midi":68,"time":73.714212,"velocity":0.3937007874015748},{"duration":1.7142840000000064,"midi":55,"time":73.714212,"velocity":0.3937007874015748},{"duration":0.10714274999999418,"midi":70,"time":73.9284975,"velocity":0.3937007874015748},{"duration":0.10714274999999418,"midi":63,"time":74.14278300000001,"velocity":0.3937007874015748},{"duration":0.10714274999999418,"midi":65,"time":74.35706850000001,"velocity":0.3937007874015748},{"duration":0.10714275000000839,"midi":61,"time":74.571354,"velocity":0.3937007874015748},{"duration":0.10714275000000839,"midi":58,"time":74.7856395,"velocity":0.3937007874015748},{"duration":0.10714275000000839,"midi":61,"time":74.999925,"velocity":0.3937007874015748},{"duration":0.10714274999999418,"midi":63,"time":75.21421050000001,"velocity":0.3937007874015748},{"duration":0.10714274999999418,"midi":68,"time":75.42849600000001,"velocity":0.3937007874015748},{"duration":1.7142839999999921,"midi":42,"time":75.42849600000001,"velocity":0.3937007874015748},{"duration":1.7142839999999921,"midi":54,"time":75.42849600000001,"velocity":0.3937007874015748},{"duration":0.10714274999999418,"midi":70,"time":75.64278150000001,"velocity":0.3937007874015748},{"duration":0.10714275000000839,"midi":63,"time":75.857067,"velocity":0.3937007874015748},{"duration":0.10714275000000839,"midi":65,"time":76.0713525,"velocity":0.3937007874015748},{"duration":0.10714274999999418,"midi":61,"time":76.285638,"velocity":0.3937007874015748},{"duration":0.10714274999999418,"midi":58,"time":76.49992350000001,"velocity":0.3937007874015748},{"duration":0.10714274999999418,"midi":61,"time":76.71420900000001,"velocity":0.3937007874015748},{"duration":0.10714275000000839,"midi":63,"time":76.9284945,"velocity":0.3937007874015748},{"duration":0.10714275000000839,"midi":68,"time":77.14278,"velocity":0.3937007874015748},{"duration":1.7142840000000064,"midi":42,"time":77.14278,"velocity":0.3937007874015748},{"duration":1.7142840000000064,"midi":54,"time":77.14278,"velocity":0.3937007874015748},{"duration":0.10714275000000839,"midi":70,"time":77.3570655,"velocity":0.3937007874015748},{"duration":0.10714274999999418,"midi":63,"time":77.571351,"velocity":0.3937007874015748},{"duration":0.10714274999999418,"midi":65,"time":77.78563650000001,"velocity":0.3937007874015748},{"duration":0.10714274999999418,"midi":61,"time":77.99992200000001,"velocity":0.3937007874015748},{"duration":0.10714275000000839,"midi":58,"time":78.2142075,"velocity":0.3937007874015748},{"duration":0.10714275000000839,"midi":61,"time":78.428493,"velocity":0.3937007874015748},{"duration":0.10714274999999418,"midi":63,"time":78.6427785,"velocity":0.3937007874015748},{"duration":0.10714274999999418,"midi":68,"time":78.85706400000001,"velocity":0.3937007874015748},{"duration":1.7142839999999921,"midi":56,"time":78.85706400000001,"velocity":0.3937007874015748},{"duration":1.7142839999999921,"midi":51,"time":78.85706400000001,"velocity":0.3937007874015748},{"duration":1.7142839999999921,"midi":44,"time":78.85706400000001,"velocity":0.3937007874015748},{"duration":1.7142839999999921,"midi":39,"time":78.85706400000001,"velocity":0.3937007874015748},{"duration":0.10714274999999418,"midi":70,"time":79.07134950000001,"velocity":0.3937007874015748},{"duration":0.10714274999999418,"midi":63,"time":79.28563500000001,"velocity":0.3937007874015748},{"duration":0.10714275000000839,"midi":65,"time":79.4999205,"velocity":0.3937007874015748},{"duration":0.10714275000000839,"midi":61,"time":79.714206,"velocity":0.3937007874015748},{"duration":0.10714274999999418,"midi":58,"time":79.9284915,"velocity":0.3937007874015748},{"duration":0.10714274999999418,"midi":61,"time":80.14277700000001,"velocity":0.3937007874015748},{"duration":0.10714274999999418,"midi":63,"time":80.35706250000001,"velocity":0.3937007874015748},{"duration":1.7142840000000064,"midi":43,"time":80.571348,"velocity":0.3937007874015748},{"duration":1.7142840000000064,"midi":55,"time":80.571348,"velocity":0.3937007874015748},{"duration":0.10714275000000839,"midi":68,"time":80.571348,"velocity":0.3937007874015748},{"duration":1.7142840000000064,"midi":37,"time":80.571348,"velocity":0.3937007874015748},{"duration":1.7142840000000064,"midi":49,"time":80.571348,"velocity":0.3937007874015748},{"duration":0.10714275000000839,"midi":70,"time":80.7856335,"velocity":0.3937007874015748},{"duration":0.10714274999999418,"midi":63,"time":80.999919,"velocity":0.3937007874015748},{"duration":0.10714274999999418,"midi":65,"time":81.21420450000001,"velocity":0.3937007874015748},{"duration":0.10714274999999418,"midi":61,"time":81.42849000000001,"velocity":0.3937007874015748},{"duration":0.10714274999999418,"midi":58,"time":81.64277550000001,"velocity":0.3937007874015748},{"duration":0.10714275000000839,"midi":61,"time":81.857061,"velocity":0.3937007874015748},{"duration":0.10714275000000839,"midi":63,"time":82.0713465,"velocity":0.3937007874015748},{"duration":1.7142840000000064,"midi":37,"time":109.71417600000001,"velocity":0.3937007874015748},{"duration":1.7142840000000064,"midi":70,"time":109.71417600000001,"velocity":0.3937007874015748},{"duration":1.7142840000000064,"midi":73,"time":109.71417600000001,"velocity":0.3937007874015748},{"duration":1.7142840000000064,"midi":34,"time":109.71417600000001,"velocity":0.3937007874015748},{"duration":1.7142840000000064,"midi":77,"time":109.71417600000001,"velocity":0.3937007874015748},{"duration":1.7142840000000064,"midi":41,"time":109.71417600000001,"velocity":0.3937007874015748},{"duration":1.7142839999999921,"midi":33,"time":111.42846000000002,"velocity":0.3937007874015748},{"duration":1.7142839999999921,"midi":76,"time":111.42846000000002,"velocity":0.3937007874015748},{"duration":1.7142839999999921,"midi":37,"time":111.42846000000002,"velocity":0.3937007874015748},{"duration":1.7142839999999921,"midi":73,"time":111.42846000000002,"velocity":0.3937007874015748},{"duration":1.7142839999999921,"midi":40,"time":111.42846000000002,"velocity":0.3937007874015748},{"duration":1.7142839999999921,"midi":69,"time":111.42846000000002,"velocity":0.3937007874015748},{"duration":1.7142840000000064,"midi":73,"time":113.14274400000001,"velocity":0.3937007874015748},{"duration":1.7142840000000064,"midi":41,"time":113.14274400000001,"velocity":0.3937007874015748},{"duration":1.7142840000000064,"midi":34,"time":113.14274400000001,"velocity":0.3937007874015748},{"duration":1.7142840000000064,"midi":77,"time":113.14274400000001,"velocity":0.3937007874015748},{"duration":1.7142840000000064,"midi":37,"time":113.14274400000001,"velocity":0.3937007874015748},{"duration":1.7142840000000064,"midi":70,"time":113.14274400000001,"velocity":0.3937007874015748},{"duration":1.7142839999999921,"midi":73,"time":114.85702800000001,"velocity":0.3937007874015748},{"duration":1.7142839999999921,"midi":80,"time":114.85702800000001,"velocity":0.3937007874015748},{"duration":1.7142839999999921,"midi":76,"time":114.85702800000001,"velocity":0.3937007874015748},{"duration":1.7142839999999921,"midi":37,"time":114.85702800000001,"velocity":0.3937007874015748},{"duration":1.7142839999999921,"midi":40,"time":114.85702800000001,"velocity":0.3937007874015748},{"duration":1.7142839999999921,"midi":44,"time":114.85702800000001,"velocity":0.3937007874015748},{"duration":1.7142840000000064,"midi":41,"time":116.571312,"velocity":0.3937007874015748},{"duration":1.7142840000000064,"midi":37,"time":116.571312,"velocity":0.3937007874015748},{"duration":1.7142840000000064,"midi":34,"time":116.571312,"velocity":0.3937007874015748},{"duration":1.7142840000000064,"midi":73,"time":116.571312,"velocity":0.3937007874015748},{"duration":1.7142840000000064,"midi":70,"time":116.571312,"velocity":0.3937007874015748},{"duration":1.7142840000000064,"midi":77,"time":116.571312,"velocity":0.3937007874015748},{"duration":1.7142839999999921,"midi":40,"time":118.28559600000001,"velocity":0.3937007874015748},{"duration":1.7142839999999921,"midi":73,"time":118.28559600000001,"velocity":0.3937007874015748},{"duration":1.7142839999999921,"midi":37,"time":118.28559600000001,"velocity":0.3937007874015748},{"duration":1.7142839999999921,"midi":76,"time":118.28559600000001,"velocity":0.3937007874015748},{"duration":1.7142839999999921,"midi":33,"time":118.28559600000001,"velocity":0.3937007874015748},{"duration":1.7142839999999921,"midi":69,"time":118.28559600000001,"velocity":0.3937007874015748},{"duration":1.7142840000000064,"midi":77,"time":119.99988,"velocity":0.3937007874015748},{"duration":1.7142840000000064,"midi":34,"time":119.99988,"velocity":0.3937007874015748},{"duration":1.7142840000000064,"midi":41,"time":119.99988,"velocity":0.3937007874015748},{"duration":1.7142840000000064,"midi":73,"time":119.99988,"velocity":0.3937007874015748},{"duration":1.7142840000000064,"midi":70,"time":119.99988,"velocity":0.3937007874015748},{"duration":1.7142840000000064,"midi":37,"time":119.99988,"velocity":0.3937007874015748},{"duration":1.7142839999999921,"midi":37,"time":121.71416400000001,"velocity":0.3937007874015748},{"duration":1.7142839999999921,"midi":40,"time":121.71416400000001,"velocity":0.3937007874015748},{"duration":1.7142839999999921,"midi":44,"time":121.71416400000001,"velocity":0.3937007874015748},{"duration":1.7142839999999921,"midi":80,"time":121.71416400000001,"velocity":0.3937007874015748},{"duration":1.7142839999999921,"midi":76,"time":121.71416400000001,"velocity":0.3937007874015748},{"duration":1.7142839999999921,"midi":73,"time":121.71416400000001,"velocity":0.3937007874015748}]},{"instrument":{"family":"drums","number":0,"name":"standard kit"},"notes":[{"duration":0.026785687499998545,"midi":0,"time":19.714266000000002,"velocity":0.12598425196850394},{"duration":0.026785687499998545,"midi":0,"time":19.714266000000002,"velocity":0.12598425196850394},{"duration":0.026785687500002098,"midi":0,"time":19.7410516875,"velocity":0.12598425196850394},{"duration":0.026785687500002098,"midi":0,"time":19.7410516875,"velocity":0.12598425196850394},{"duration":0.026785687499998545,"midi":0,"time":19.767837375000003,"velocity":0.12598425196850394},{"duration":0.026785687499998545,"midi":0,"time":19.767837375000003,"velocity":0.12598425196850394},{"duration":0.026785687500002098,"midi":0,"time":19.7946230625,"velocity":0.12598425196850394},{"duration":0.026785687500002098,"midi":0,"time":19.7946230625,"velocity":0.12598425196850394},{"duration":0.026785687499998545,"midi":0,"time":19.821408750000003,"velocity":0.12598425196850394},{"duration":0.026785687499998545,"midi":0,"time":19.821408750000003,"velocity":0.12598425196850394},{"duration":0.026785687499998545,"midi":0,"time":19.848194437500002,"velocity":0.12598425196850394},{"duration":0.026785687499998545,"midi":0,"time":19.848194437500002,"velocity":0.12598425196850394},{"duration":0.026785687500002098,"midi":0,"time":19.874980125,"velocity":0.12598425196850394},{"duration":0.026785687500002098,"midi":0,"time":19.874980125,"velocity":0.12598425196850394},{"duration":0.026785687499998545,"midi":0,"time":19.901765812500003,"velocity":0.12598425196850394},{"duration":0.026785687499998545,"midi":0,"time":19.901765812500003,"velocity":0.12598425196850394},{"duration":0.026785687500002098,"midi":0,"time":19.9285515,"velocity":0.12598425196850394},{"duration":0.026785687500002098,"midi":0,"time":19.9285515,"velocity":0.12598425196850394},{"duration":0.026785687499998545,"midi":0,"time":19.955337187500003,"velocity":0.12598425196850394},{"duration":0.026785687499998545,"midi":0,"time":19.955337187500003,"velocity":0.12598425196850394},{"duration":0.026785687499998545,"midi":0,"time":19.982122875,"velocity":0.12598425196850394},{"duration":0.026785687499998545,"midi":0,"time":19.982122875,"velocity":0.12598425196850394},{"duration":0.026785687500002098,"midi":0,"time":20.0089085625,"velocity":0.12598425196850394},{"duration":0.026785687500002098,"midi":0,"time":20.0089085625,"velocity":0.12598425196850394},{"duration":0.026785687500002098,"midi":0,"time":20.142837,"velocity":0.12598425196850394},{"duration":0.026785687500002098,"midi":0,"time":20.142837,"velocity":0.12598425196850394},{"duration":0.026785687499998545,"midi":0,"time":20.169622687500002,"velocity":0.12598425196850394},{"duration":0.026785687499998545,"midi":0,"time":20.169622687500002,"velocity":0.12598425196850394},{"duration":0.026785687500002098,"midi":0,"time":20.196408375,"velocity":0.12598425196850394},{"duration":0.026785687500002098,"midi":0,"time":20.196408375,"velocity":0.12598425196850394},{"duration":0.026785687499998545,"midi":0,"time":20.223194062500003,"velocity":0.12598425196850394},{"duration":0.026785687499998545,"midi":0,"time":20.223194062500003,"velocity":0.12598425196850394},{"duration":0.026785687499998545,"midi":0,"time":20.24997975,"velocity":0.12598425196850394},{"duration":0.026785687499998545,"midi":0,"time":20.24997975,"velocity":0.12598425196850394},{"duration":0.026785687500002098,"midi":0,"time":20.2767654375,"velocity":0.12598425196850394},{"duration":0.026785687500002098,"midi":0,"time":20.2767654375,"velocity":0.12598425196850394},{"duration":0.026785687499998545,"midi":0,"time":20.303551125000002,"velocity":0.12598425196850394},{"duration":0.026785687499998545,"midi":0,"time":20.303551125000002,"velocity":0.12598425196850394},{"duration":0.026785687500002098,"midi":0,"time":20.3303368125,"velocity":0.12598425196850394},{"duration":0.026785687500002098,"midi":0,"time":20.3303368125,"velocity":0.12598425196850394},{"duration":0.026785687499998545,"midi":0,"time":20.357122500000003,"velocity":0.12598425196850394},{"duration":0.026785687499998545,"midi":0,"time":20.357122500000003,"velocity":0.12598425196850394},{"duration":0.026785687500002098,"midi":0,"time":20.3839081875,"velocity":0.12598425196850394},{"duration":0.026785687500002098,"midi":0,"time":20.3839081875,"velocity":0.12598425196850394},{"duration":0.026785687499998545,"midi":0,"time":20.410693875000003,"velocity":0.12598425196850394},{"duration":0.026785687499998545,"midi":0,"time":20.410693875000003,"velocity":0.12598425196850394},{"duration":0.026785687499998545,"midi":0,"time":20.437479562500002,"velocity":0.12598425196850394},{"duration":0.026785687499998545,"midi":0,"time":20.437479562500002,"velocity":0.12598425196850394},{"duration":0.026785687499998545,"midi":0,"time":26.571402000000003,"velocity":0.12598425196850394},{"duration":0.026785687499998545,"midi":0,"time":26.571402000000003,"velocity":0.12598425196850394},{"duration":0.026785687500002098,"midi":0,"time":26.5981876875,"velocity":0.12598425196850394},{"duration":0.026785687500002098,"midi":0,"time":26.5981876875,"velocity":0.12598425196850394},{"duration":0.026785687499998545,"midi":0,"time":26.624973375000003,"velocity":0.12598425196850394},{"duration":0.026785687499998545,"midi":0,"time":26.624973375000003,"velocity":0.12598425196850394},{"duration":0.026785687500002098,"midi":0,"time":26.651759062500002,"velocity":0.12598425196850394},{"duration":0.026785687500002098,"midi":0,"time":26.651759062500002,"velocity":0.12598425196850394},{"duration":0.026785687499998545,"midi":0,"time":26.678544750000004,"velocity":0.12598425196850394},{"duration":0.026785687499998545,"midi":0,"time":26.678544750000004,"velocity":0.12598425196850394},{"duration":0.026785687499998545,"midi":0,"time":26.705330437500002,"velocity":0.12598425196850394},{"duration":0.026785687499998545,"midi":0,"time":26.705330437500002,"velocity":0.12598425196850394},{"duration":0.026785687500002098,"midi":0,"time":26.732116125,"velocity":0.12598425196850394},{"duration":0.026785687500002098,"midi":0,"time":26.732116125,"velocity":0.12598425196850394},{"duration":0.026785687499998545,"midi":0,"time":26.758901812500003,"velocity":0.12598425196850394},{"duration":0.026785687499998545,"midi":0,"time":26.758901812500003,"velocity":0.12598425196850394},{"duration":0.026785687500002098,"midi":0,"time":26.7856875,"velocity":0.12598425196850394},{"duration":0.026785687500002098,"midi":0,"time":26.7856875,"velocity":0.12598425196850394},{"duration":0.026785687499998545,"midi":0,"time":26.812473187500004,"velocity":0.12598425196850394},{"duration":0.026785687499998545,"midi":0,"time":26.812473187500004,"velocity":0.12598425196850394},{"duration":0.026785687499998545,"midi":0,"time":26.839258875000002,"velocity":0.12598425196850394},{"duration":0.026785687499998545,"midi":0,"time":26.839258875000002,"velocity":0.12598425196850394},{"duration":0.026785687500002098,"midi":0,"time":26.8660445625,"velocity":0.12598425196850394},{"duration":0.026785687500002098,"midi":0,"time":26.8660445625,"velocity":0.12598425196850394},{"duration":0.026785687500002098,"midi":0,"time":26.999973,"velocity":0.12598425196850394},{"duration":0.026785687500002098,"midi":0,"time":26.999973,"velocity":0.12598425196850394},{"duration":0.026785687499998545,"midi":0,"time":27.026758687500003,"velocity":0.12598425196850394},{"duration":0.026785687499998545,"midi":0,"time":27.026758687500003,"velocity":0.12598425196850394},{"duration":0.026785687500002098,"midi":0,"time":27.053544375,"velocity":0.12598425196850394},{"duration":0.026785687500002098,"midi":0,"time":27.053544375,"velocity":0.12598425196850394},{"duration":0.026785687499998545,"midi":0,"time":27.080330062500003,"velocity":0.12598425196850394},{"duration":0.026785687499998545,"midi":0,"time":27.080330062500003,"velocity":0.12598425196850394},{"duration":0.026785687499998545,"midi":0,"time":27.107115750000002,"velocity":0.12598425196850394},{"duration":0.026785687499998545,"midi":0,"time":27.107115750000002,"velocity":0.12598425196850394},{"duration":0.026785687500002098,"midi":0,"time":27.1339014375,"velocity":0.12598425196850394},{"duration":0.026785687500002098,"midi":0,"time":27.1339014375,"velocity":0.12598425196850394},{"duration":0.026785687499998545,"midi":0,"time":27.160687125000003,"velocity":0.12598425196850394},{"duration":0.026785687499998545,"midi":0,"time":27.160687125000003,"velocity":0.12598425196850394},{"duration":0.026785687500002098,"midi":0,"time":27.1874728125,"velocity":0.12598425196850394},{"duration":0.026785687500002098,"midi":0,"time":27.1874728125,"velocity":0.12598425196850394},{"duration":0.026785687499998545,"midi":0,"time":27.214258500000003,"velocity":0.12598425196850394},{"duration":0.026785687499998545,"midi":0,"time":27.214258500000003,"velocity":0.12598425196850394},{"duration":0.026785687500002098,"midi":0,"time":27.241044187500002,"velocity":0.12598425196850394},{"duration":0.026785687500002098,"midi":0,"time":27.241044187500002,"velocity":0.12598425196850394},{"duration":0.026785687499998545,"midi":0,"time":27.267829875000004,"velocity":0.12598425196850394},{"duration":0.026785687499998545,"midi":0,"time":27.267829875000004,"velocity":0.12598425196850394},{"duration":0.026785687499998545,"midi":0,"time":27.294615562500002,"velocity":0.12598425196850394},{"duration":0.026785687499998545,"midi":0,"time":27.294615562500002,"velocity":0.12598425196850394},{"duration":0.026785687500002098,"midi":0,"time":33.428538,"velocity":0.12598425196850394},{"duration":0.026785687500002098,"midi":0,"time":33.428538,"velocity":0.12598425196850394},{"duration":0.026785687499994992,"midi":0,"time":33.455323687500005,"velocity":0.12598425196850394},{"duration":0.026785687499994992,"midi":0,"time":33.455323687500005,"velocity":0.12598425196850394},{"duration":0.026785687500002098,"midi":0,"time":33.482109375,"velocity":0.12598425196850394},{"duration":0.026785687500002098,"midi":0,"time":33.482109375,"velocity":0.12598425196850394},{"duration":0.026785687500002098,"midi":0,"time":33.5088950625,"velocity":0.12598425196850394},{"duration":0.026785687500002098,"midi":0,"time":33.5088950625,"velocity":0.12598425196850394},{"duration":0.026785687499994992,"midi":0,"time":33.535680750000004,"velocity":0.12598425196850394},{"duration":0.026785687499994992,"midi":0,"time":33.535680750000004,"velocity":0.12598425196850394},{"duration":0.026785687500002098,"midi":0,"time":33.5624664375,"velocity":0.12598425196850394},{"duration":0.026785687500002098,"midi":0,"time":33.5624664375,"velocity":0.12598425196850394},{"duration":0.026785687500002098,"midi":0,"time":33.589252125,"velocity":0.12598425196850394},{"duration":0.026785687500002098,"midi":0,"time":33.589252125,"velocity":0.12598425196850394},{"duration":0.026785687500002098,"midi":0,"time":33.616037812500004,"velocity":0.12598425196850394},{"duration":0.026785687500002098,"midi":0,"time":33.616037812500004,"velocity":0.12598425196850394},{"duration":0.026785687499994992,"midi":0,"time":33.642823500000006,"velocity":0.12598425196850394},{"duration":0.026785687499994992,"midi":0,"time":33.642823500000006,"velocity":0.12598425196850394},{"duration":0.026785687500002098,"midi":0,"time":33.6696091875,"velocity":0.12598425196850394},{"duration":0.026785687500002098,"midi":0,"time":33.6696091875,"velocity":0.12598425196850394},{"duration":0.026785687500002098,"midi":0,"time":33.696394875,"velocity":0.12598425196850394},{"duration":0.026785687500002098,"midi":0,"time":33.696394875,"velocity":0.12598425196850394},{"duration":0.026785687499994992,"midi":0,"time":33.723180562500005,"velocity":0.12598425196850394},{"duration":0.026785687499994992,"midi":0,"time":33.723180562500005,"velocity":0.12598425196850394},{"duration":0.026785687500002098,"midi":0,"time":33.857109,"velocity":0.12598425196850394},{"duration":0.026785687500002098,"midi":0,"time":33.857109,"velocity":0.12598425196850394},{"duration":0.026785687500002098,"midi":0,"time":33.8838946875,"velocity":0.12598425196850394},{"duration":0.026785687500002098,"midi":0,"time":33.8838946875,"velocity":0.12598425196850394},{"duration":0.026785687499994992,"midi":0,"time":33.910680375000005,"velocity":0.12598425196850394},{"duration":0.026785687499994992,"midi":0,"time":33.910680375000005,"velocity":0.12598425196850394},{"duration":0.026785687500002098,"midi":0,"time":33.9374660625,"velocity":0.12598425196850394},{"duration":0.026785687500002098,"midi":0,"time":33.9374660625,"velocity":0.12598425196850394},{"duration":0.026785687500002098,"midi":0,"time":33.96425175,"velocity":0.12598425196850394},{"duration":0.026785687500002098,"midi":0,"time":33.96425175,"velocity":0.12598425196850394},{"duration":0.026785687499994992,"midi":0,"time":33.991037437500005,"velocity":0.12598425196850394},{"duration":0.026785687499994992,"midi":0,"time":33.991037437500005,"velocity":0.12598425196850394},{"duration":0.026785687500002098,"midi":0,"time":34.017823125,"velocity":0.12598425196850394},{"duration":0.026785687500002098,"midi":0,"time":34.017823125,"velocity":0.12598425196850394},{"duration":0.026785687500002098,"midi":0,"time":34.0446088125,"velocity":0.12598425196850394},{"duration":0.026785687500002098,"midi":0,"time":34.0446088125,"velocity":0.12598425196850394},{"duration":0.026785687500002098,"midi":0,"time":34.071394500000004,"velocity":0.12598425196850394},{"duration":0.026785687500002098,"midi":0,"time":34.071394500000004,"velocity":0.12598425196850394},{"duration":0.026785687499994992,"midi":0,"time":34.098180187500006,"velocity":0.12598425196850394},{"duration":0.026785687499994992,"midi":0,"time":34.098180187500006,"velocity":0.12598425196850394},{"duration":0.026785687500002098,"midi":0,"time":34.124965875,"velocity":0.12598425196850394},{"duration":0.026785687500002098,"midi":0,"time":34.124965875,"velocity":0.12598425196850394},{"duration":0.026785687500002098,"midi":0,"time":34.1517515625,"velocity":0.12598425196850394},{"duration":0.026785687500002098,"midi":0,"time":34.1517515625,"velocity":0.12598425196850394},{"duration":0.026785687500002098,"midi":0,"time":40.285674,"velocity":0.12598425196850394},{"duration":0.026785687500002098,"midi":0,"time":40.285674,"velocity":0.12598425196850394},{"duration":0.026785687500002098,"midi":0,"time":40.3124596875,"velocity":0.12598425196850394},{"duration":0.026785687500002098,"midi":0,"time":40.3124596875,"velocity":0.12598425196850394},{"duration":0.026785687500002098,"midi":0,"time":40.339245375000004,"velocity":0.12598425196850394},{"duration":0.026785687500002098,"midi":0,"time":40.339245375000004,"velocity":0.12598425196850394},{"duration":0.026785687499994992,"midi":0,"time":40.36603106250001,"velocity":0.12598425196850394},{"duration":0.026785687499994992,"midi":0,"time":40.36603106250001,"velocity":0.12598425196850394},{"duration":0.026785687500002098,"midi":0,"time":40.39281675,"velocity":0.12598425196850394},{"duration":0.026785687500002098,"midi":0,"time":40.39281675,"velocity":0.12598425196850394},{"duration":0.026785687500002098,"midi":0,"time":40.419602437500004,"velocity":0.12598425196850394},{"duration":0.026785687500002098,"midi":0,"time":40.419602437500004,"velocity":0.12598425196850394},{"duration":0.026785687499994992,"midi":0,"time":40.446388125000006,"velocity":0.12598425196850394},{"duration":0.026785687499994992,"midi":0,"time":40.446388125000006,"velocity":0.12598425196850394},{"duration":0.026785687500002098,"midi":0,"time":40.4731738125,"velocity":0.12598425196850394},{"duration":0.026785687500002098,"midi":0,"time":40.4731738125,"velocity":0.12598425196850394},{"duration":0.026785687500002098,"midi":0,"time":40.4999595,"velocity":0.12598425196850394},{"duration":0.026785687500002098,"midi":0,"time":40.4999595,"velocity":0.12598425196850394},{"duration":0.026785687499994992,"midi":0,"time":40.526745187500005,"velocity":0.12598425196850394},{"duration":0.026785687499994992,"midi":0,"time":40.526745187500005,"velocity":0.12598425196850394},{"duration":0.026785687500002098,"midi":0,"time":40.553530875,"velocity":0.12598425196850394},{"duration":0.026785687500002098,"midi":0,"time":40.553530875,"velocity":0.12598425196850394},{"duration":0.026785687500002098,"midi":0,"time":40.5803165625,"velocity":0.12598425196850394},{"duration":0.026785687500002098,"midi":0,"time":40.5803165625,"velocity":0.12598425196850394},{"duration":0.026785687499994992,"midi":0,"time":40.714245000000005,"velocity":0.12598425196850394},{"duration":0.026785687499994992,"midi":0,"time":40.714245000000005,"velocity":0.12598425196850394},{"duration":0.026785687500002098,"midi":0,"time":40.7410306875,"velocity":0.12598425196850394},{"duration":0.026785687500002098,"midi":0,"time":40.7410306875,"velocity":0.12598425196850394},{"duration":0.026785687500002098,"midi":0,"time":40.767816375,"velocity":0.12598425196850394},{"duration":0.026785687500002098,"midi":0,"time":40.767816375,"velocity":0.12598425196850394},{"duration":0.026785687500002098,"midi":0,"time":40.794602062500005,"velocity":0.12598425196850394},{"duration":0.026785687500002098,"midi":0,"time":40.794602062500005,"velocity":0.12598425196850394},{"duration":0.026785687499994992,"midi":0,"time":40.82138775000001,"velocity":0.12598425196850394},{"duration":0.026785687499994992,"midi":0,"time":40.82138775000001,"velocity":0.12598425196850394},{"duration":0.026785687500002098,"midi":0,"time":40.8481734375,"velocity":0.12598425196850394},{"duration":0.026785687500002098,"midi":0,"time":40.8481734375,"velocity":0.12598425196850394},{"duration":0.026785687500002098,"midi":0,"time":40.874959125000004,"velocity":0.12598425196850394},{"duration":0.026785687500002098,"midi":0,"time":40.874959125000004,"velocity":0.12598425196850394},{"duration":0.026785687499994992,"midi":0,"time":40.901744812500006,"velocity":0.12598425196850394},{"duration":0.026785687499994992,"midi":0,"time":40.901744812500006,"velocity":0.12598425196850394},{"duration":0.026785687500002098,"midi":0,"time":40.9285305,"velocity":0.12598425196850394},{"duration":0.026785687500002098,"midi":0,"time":40.9285305,"velocity":0.12598425196850394},{"duration":0.026785687500002098,"midi":0,"time":40.9553161875,"velocity":0.12598425196850394},{"duration":0.026785687500002098,"midi":0,"time":40.9553161875,"velocity":0.12598425196850394},{"duration":0.026785687499994992,"midi":0,"time":40.982101875000005,"velocity":0.12598425196850394},{"duration":0.026785687499994992,"midi":0,"time":40.982101875000005,"velocity":0.12598425196850394},{"duration":0.026785687500002098,"midi":0,"time":41.0088875625,"velocity":0.12598425196850394},{"duration":0.026785687500002098,"midi":0,"time":41.0088875625,"velocity":0.12598425196850394},{"duration":0.026785687500002098,"midi":0,"time":47.142810000000004,"velocity":0.12598425196850394},{"duration":0.026785687500002098,"midi":0,"time":47.142810000000004,"velocity":0.12598425196850394},{"duration":0.026785687499994992,"midi":0,"time":47.169595687500006,"velocity":0.12598425196850394},{"duration":0.026785687499994992,"midi":0,"time":47.169595687500006,"velocity":0.12598425196850394},{"duration":0.026785687500002098,"midi":0,"time":47.196381375,"velocity":0.12598425196850394},{"duration":0.026785687500002098,"midi":0,"time":47.196381375,"velocity":0.12598425196850394},{"duration":0.026785687500002098,"midi":0,"time":47.2231670625,"velocity":0.12598425196850394},{"duration":0.026785687500002098,"midi":0,"time":47.2231670625,"velocity":0.12598425196850394},{"duration":0.026785687499994992,"midi":0,"time":47.249952750000006,"velocity":0.12598425196850394},{"duration":0.026785687499994992,"midi":0,"time":47.249952750000006,"velocity":0.12598425196850394},{"duration":0.026785687500002098,"midi":0,"time":47.2767384375,"velocity":0.12598425196850394},{"duration":0.026785687500002098,"midi":0,"time":47.2767384375,"velocity":0.12598425196850394},{"duration":0.026785687500002098,"midi":0,"time":47.303524125,"velocity":0.12598425196850394},{"duration":0.026785687500002098,"midi":0,"time":47.303524125,"velocity":0.12598425196850394},{"duration":0.026785687500002098,"midi":0,"time":47.330309812500005,"velocity":0.12598425196850394},{"duration":0.026785687500002098,"midi":0,"time":47.330309812500005,"velocity":0.12598425196850394},{"duration":0.026785687499994992,"midi":0,"time":47.35709550000001,"velocity":0.12598425196850394},{"duration":0.026785687499994992,"midi":0,"time":47.35709550000001,"velocity":0.12598425196850394},{"duration":0.026785687500002098,"midi":0,"time":47.3838811875,"velocity":0.12598425196850394},{"duration":0.026785687500002098,"midi":0,"time":47.3838811875,"velocity":0.12598425196850394},{"duration":0.026785687500002098,"midi":0,"time":47.410666875000004,"velocity":0.12598425196850394},{"duration":0.026785687500002098,"midi":0,"time":47.410666875000004,"velocity":0.12598425196850394},{"duration":0.026785687499994992,"midi":0,"time":47.437452562500006,"velocity":0.12598425196850394},{"duration":0.026785687499994992,"midi":0,"time":47.437452562500006,"velocity":0.12598425196850394},{"duration":0.026785687500002098,"midi":0,"time":47.571381,"velocity":0.12598425196850394},{"duration":0.026785687500002098,"midi":0,"time":47.571381,"velocity":0.12598425196850394},{"duration":0.026785687500002098,"midi":0,"time":47.598166687500004,"velocity":0.12598425196850394},{"duration":0.026785687500002098,"midi":0,"time":47.598166687500004,"velocity":0.12598425196850394},{"duration":0.026785687499994992,"midi":0,"time":47.62495237500001,"velocity":0.12598425196850394},{"duration":0.026785687499994992,"midi":0,"time":47.62495237500001,"velocity":0.12598425196850394},{"duration":0.026785687500002098,"midi":0,"time":47.6517380625,"velocity":0.12598425196850394},{"duration":0.026785687500002098,"midi":0,"time":47.6517380625,"velocity":0.12598425196850394},{"duration":0.026785687500002098,"midi":0,"time":47.678523750000004,"velocity":0.12598425196850394},{"duration":0.026785687500002098,"midi":0,"time":47.678523750000004,"velocity":0.12598425196850394},{"duration":0.026785687499994992,"midi":0,"time":47.705309437500006,"velocity":0.12598425196850394},{"duration":0.026785687499994992,"midi":0,"time":47.705309437500006,"velocity":0.12598425196850394},{"duration":0.026785687500002098,"midi":0,"time":47.732095125,"velocity":0.12598425196850394},{"duration":0.026785687500002098,"midi":0,"time":47.732095125,"velocity":0.12598425196850394},{"duration":0.026785687500002098,"midi":0,"time":47.7588808125,"velocity":0.12598425196850394},{"duration":0.026785687500002098,"midi":0,"time":47.7588808125,"velocity":0.12598425196850394},{"duration":0.026785687500002098,"midi":0,"time":47.785666500000005,"velocity":0.12598425196850394},{"duration":0.026785687500002098,"midi":0,"time":47.785666500000005,"velocity":0.12598425196850394},{"duration":0.026785687499994992,"midi":0,"time":47.81245218750001,"velocity":0.12598425196850394},{"duration":0.026785687499994992,"midi":0,"time":47.81245218750001,"velocity":0.12598425196850394},{"duration":0.026785687500002098,"midi":0,"time":47.839237875,"velocity":0.12598425196850394},{"duration":0.026785687500002098,"midi":0,"time":47.839237875,"velocity":0.12598425196850394},{"duration":0.026785687500002098,"midi":0,"time":47.866023562500004,"velocity":0.12598425196850394},{"duration":0.026785687500002098,"midi":0,"time":47.866023562500004,"velocity":0.12598425196850394},{"duration":0.026785687500002098,"midi":0,"time":53.999946,"velocity":0.12598425196850394},{"duration":0.026785687500002098,"midi":0,"time":53.999946,"velocity":0.12598425196850394},{"duration":0.026785687500002098,"midi":0,"time":54.0267316875,"velocity":0.12598425196850394},{"duration":0.026785687500002098,"midi":0,"time":54.0267316875,"velocity":0.12598425196850394},{"duration":0.026785687500002098,"midi":0,"time":54.053517375000006,"velocity":0.12598425196850394},{"duration":0.026785687500002098,"midi":0,"time":54.053517375000006,"velocity":0.12598425196850394},{"duration":0.026785687499994992,"midi":0,"time":54.08030306250001,"velocity":0.12598425196850394},{"duration":0.026785687499994992,"midi":0,"time":54.08030306250001,"velocity":0.12598425196850394},{"duration":0.026785687500002098,"midi":0,"time":54.10708875,"velocity":0.12598425196850394},{"duration":0.026785687500002098,"midi":0,"time":54.10708875,"velocity":0.12598425196850394},{"duration":0.026785687500002098,"midi":0,"time":54.133874437500005,"velocity":0.12598425196850394},{"duration":0.026785687500002098,"midi":0,"time":54.133874437500005,"velocity":0.12598425196850394},{"duration":0.026785687499994992,"midi":0,"time":54.16066012500001,"velocity":0.12598425196850394},{"duration":0.026785687499994992,"midi":0,"time":54.16066012500001,"velocity":0.12598425196850394},{"duration":0.026785687500002098,"midi":0,"time":54.1874458125,"velocity":0.12598425196850394},{"duration":0.026785687500002098,"midi":0,"time":54.1874458125,"velocity":0.12598425196850394},{"duration":0.026785687500002098,"midi":0,"time":54.214231500000004,"velocity":0.12598425196850394},{"duration":0.026785687500002098,"midi":0,"time":54.214231500000004,"velocity":0.12598425196850394},{"duration":0.026785687499994992,"midi":0,"time":54.241017187500006,"velocity":0.12598425196850394},{"duration":0.026785687499994992,"midi":0,"time":54.241017187500006,"velocity":0.12598425196850394},{"duration":0.026785687500002098,"midi":0,"time":54.267802875,"velocity":0.12598425196850394},{"duration":0.026785687500002098,"midi":0,"time":54.267802875,"velocity":0.12598425196850394},{"duration":0.026785687500002098,"midi":0,"time":54.2945885625,"velocity":0.12598425196850394},{"duration":0.026785687500002098,"midi":0,"time":54.2945885625,"velocity":0.12598425196850394},{"duration":0.026785687499994992,"midi":0,"time":54.42851700000001,"velocity":0.12598425196850394},{"duration":0.026785687499994992,"midi":0,"time":54.42851700000001,"velocity":0.12598425196850394},{"duration":0.026785687500002098,"midi":0,"time":54.4553026875,"velocity":0.12598425196850394},{"duration":0.026785687500002098,"midi":0,"time":54.4553026875,"velocity":0.12598425196850394},{"duration":0.026785687500002098,"midi":0,"time":54.482088375000004,"velocity":0.12598425196850394},{"duration":0.026785687500002098,"midi":0,"time":54.482088375000004,"velocity":0.12598425196850394},{"duration":0.026785687500002098,"midi":0,"time":54.508874062500006,"velocity":0.12598425196850394},{"duration":0.026785687500002098,"midi":0,"time":54.508874062500006,"velocity":0.12598425196850394},{"duration":0.026785687499994992,"midi":0,"time":54.53565975000001,"velocity":0.12598425196850394},{"duration":0.026785687499994992,"midi":0,"time":54.53565975000001,"velocity":0.12598425196850394},{"duration":0.026785687500002098,"midi":0,"time":54.5624454375,"velocity":0.12598425196850394},{"duration":0.026785687500002098,"midi":0,"time":54.5624454375,"velocity":0.12598425196850394},{"duration":0.026785687500002098,"midi":0,"time":54.589231125000005,"velocity":0.12598425196850394},{"duration":0.026785687500002098,"midi":0,"time":54.589231125000005,"velocity":0.12598425196850394},{"duration":0.026785687499994992,"midi":0,"time":54.61601681250001,"velocity":0.12598425196850394},{"duration":0.026785687499994992,"midi":0,"time":54.61601681250001,"velocity":0.12598425196850394},{"duration":0.026785687500002098,"midi":0,"time":54.6428025,"velocity":0.12598425196850394},{"duration":0.026785687500002098,"midi":0,"time":54.6428025,"velocity":0.12598425196850394},{"duration":0.026785687500002098,"midi":0,"time":54.669588187500004,"velocity":0.12598425196850394},{"duration":0.026785687500002098,"midi":0,"time":54.669588187500004,"velocity":0.12598425196850394},{"duration":0.026785687499994992,"midi":0,"time":54.696373875000006,"velocity":0.12598425196850394},{"duration":0.026785687499994992,"midi":0,"time":54.696373875000006,"velocity":0.12598425196850394},{"duration":0.026785687500002098,"midi":0,"time":54.7231595625,"velocity":0.12598425196850394},{"duration":0.026785687500002098,"midi":0,"time":54.7231595625,"velocity":0.12598425196850394},{"duration":0.026785687500002098,"midi":0,"time":60.857082000000005,"velocity":0.12598425196850394},{"duration":0.026785687500002098,"midi":0,"time":60.857082000000005,"velocity":0.12598425196850394},{"duration":0.026785687499994992,"midi":0,"time":60.88386768750001,"velocity":0.12598425196850394},{"duration":0.026785687499994992,"midi":0,"time":60.88386768750001,"velocity":0.12598425196850394},{"duration":0.026785687500002098,"midi":0,"time":60.910653375,"velocity":0.12598425196850394},{"duration":0.026785687500002098,"midi":0,"time":60.910653375,"velocity":0.12598425196850394},{"duration":0.026785687500002098,"midi":0,"time":60.937439062500005,"velocity":0.12598425196850394},{"duration":0.026785687500002098,"midi":0,"time":60.937439062500005,"velocity":0.12598425196850394},{"duration":0.026785687499994992,"midi":0,"time":60.96422475000001,"velocity":0.12598425196850394},{"duration":0.026785687499994992,"midi":0,"time":60.96422475000001,"velocity":0.12598425196850394},{"duration":0.026785687500002098,"midi":0,"time":60.9910104375,"velocity":0.12598425196850394},{"duration":0.026785687500002098,"midi":0,"time":60.9910104375,"velocity":0.12598425196850394},{"duration":0.026785687500002098,"midi":0,"time":61.017796125000004,"velocity":0.12598425196850394},{"duration":0.026785687500002098,"midi":0,"time":61.017796125000004,"velocity":0.12598425196850394},{"duration":0.026785687500002098,"midi":0,"time":61.044581812500006,"velocity":0.12598425196850394},{"duration":0.026785687500002098,"midi":0,"time":61.044581812500006,"velocity":0.12598425196850394},{"duration":0.026785687499994992,"midi":0,"time":61.07136750000001,"velocity":0.12598425196850394},{"duration":0.026785687499994992,"midi":0,"time":61.07136750000001,"velocity":0.12598425196850394},{"duration":0.026785687500002098,"midi":0,"time":61.0981531875,"velocity":0.12598425196850394},{"duration":0.026785687500002098,"midi":0,"time":61.0981531875,"velocity":0.12598425196850394},{"duration":0.026785687500002098,"midi":0,"time":61.124938875000005,"velocity":0.12598425196850394},{"duration":0.026785687500002098,"midi":0,"time":61.124938875000005,"velocity":0.12598425196850394},{"duration":0.026785687499994992,"midi":0,"time":61.15172456250001,"velocity":0.12598425196850394},{"duration":0.026785687499994992,"midi":0,"time":61.15172456250001,"velocity":0.12598425196850394},{"duration":0.026785687500002098,"midi":0,"time":61.285653,"velocity":0.12598425196850394},{"duration":0.026785687500002098,"midi":0,"time":61.285653,"velocity":0.12598425196850394},{"duration":0.026785687500002098,"midi":0,"time":61.312438687500006,"velocity":0.12598425196850394},{"duration":0.026785687500002098,"midi":0,"time":61.312438687500006,"velocity":0.12598425196850394},{"duration":0.026785687499994992,"midi":0,"time":61.33922437500001,"velocity":0.12598425196850394},{"duration":0.026785687499994992,"midi":0,"time":61.33922437500001,"velocity":0.12598425196850394},{"duration":0.026785687500002098,"midi":0,"time":61.3660100625,"velocity":0.12598425196850394},{"duration":0.026785687500002098,"midi":0,"time":61.3660100625,"velocity":0.12598425196850394},{"duration":0.026785687500002098,"midi":0,"time":61.392795750000005,"velocity":0.12598425196850394},{"duration":0.026785687500002098,"midi":0,"time":61.392795750000005,"velocity":0.12598425196850394},{"duration":0.026785687499994992,"midi":0,"time":61.41958143750001,"velocity":0.12598425196850394},{"duration":0.026785687499994992,"midi":0,"time":61.41958143750001,"velocity":0.12598425196850394},{"duration":0.026785687500002098,"midi":0,"time":61.446367125,"velocity":0.12598425196850394},{"duration":0.026785687500002098,"midi":0,"time":61.446367125,"velocity":0.12598425196850394},{"duration":0.026785687500002098,"midi":0,"time":61.473152812500004,"velocity":0.12598425196850394},{"duration":0.026785687500002098,"midi":0,"time":61.473152812500004,"velocity":0.12598425196850394},{"duration":0.026785687500002098,"midi":0,"time":61.499938500000006,"velocity":0.12598425196850394},{"duration":0.026785687500002098,"midi":0,"time":61.499938500000006,"velocity":0.12598425196850394},{"duration":0.026785687499994992,"midi":0,"time":61.52672418750001,"velocity":0.12598425196850394},{"duration":0.026785687499994992,"midi":0,"time":61.52672418750001,"velocity":0.12598425196850394},{"duration":0.026785687500002098,"midi":0,"time":61.553509875,"velocity":0.12598425196850394},{"duration":0.026785687500002098,"midi":0,"time":61.553509875,"velocity":0.12598425196850394},{"duration":0.026785687500002098,"midi":0,"time":61.580295562500005,"velocity":0.12598425196850394},{"duration":0.026785687500002098,"midi":0,"time":61.580295562500005,"velocity":0.12598425196850394},{"duration":0.026785687500009203,"midi":0,"time":67.714218,"velocity":0.12598425196850394},{"duration":0.026785687500009203,"midi":0,"time":67.714218,"velocity":0.12598425196850394},{"duration":0.026785687499994992,"midi":0,"time":67.74100368750001,"velocity":0.12598425196850394},{"duration":0.026785687499994992,"midi":0,"time":67.74100368750001,"velocity":0.12598425196850394},{"duration":0.026785687499994992,"midi":0,"time":67.767789375,"velocity":0.12598425196850394},{"duration":0.026785687499994992,"midi":0,"time":67.767789375,"velocity":0.12598425196850394},{"duration":0.026785687500009203,"midi":0,"time":67.7945750625,"velocity":0.12598425196850394},{"duration":0.026785687500009203,"midi":0,"time":67.7945750625,"velocity":0.12598425196850394},{"duration":0.026785687499994992,"midi":0,"time":67.82136075000001,"velocity":0.12598425196850394},{"duration":0.026785687499994992,"midi":0,"time":67.82136075000001,"velocity":0.12598425196850394},{"duration":0.026785687499994992,"midi":0,"time":67.8481464375,"velocity":0.12598425196850394},{"duration":0.026785687499994992,"midi":0,"time":67.8481464375,"velocity":0.12598425196850394},{"duration":0.026785687500009203,"midi":0,"time":67.874932125,"velocity":0.12598425196850394},{"duration":0.026785687500009203,"midi":0,"time":67.874932125,"velocity":0.12598425196850394},{"duration":0.026785687499994992,"midi":0,"time":67.90171781250001,"velocity":0.12598425196850394},{"duration":0.026785687499994992,"midi":0,"time":67.90171781250001,"velocity":0.12598425196850394},{"duration":0.026785687499994992,"midi":0,"time":67.9285035,"velocity":0.12598425196850394},{"duration":0.026785687499994992,"midi":0,"time":67.9285035,"velocity":0.12598425196850394},{"duration":0.026785687500009203,"midi":0,"time":67.9552891875,"velocity":0.12598425196850394},{"duration":0.026785687500009203,"midi":0,"time":67.9552891875,"velocity":0.12598425196850394},{"duration":0.026785687499994992,"midi":0,"time":67.98207487500001,"velocity":0.12598425196850394},{"duration":0.026785687499994992,"midi":0,"time":67.98207487500001,"velocity":0.12598425196850394},{"duration":0.026785687499994992,"midi":0,"time":68.0088605625,"velocity":0.12598425196850394},{"duration":0.026785687499994992,"midi":0,"time":68.0088605625,"velocity":0.12598425196850394},{"duration":0.026785687499994992,"midi":0,"time":68.14278900000001,"velocity":0.12598425196850394},{"duration":0.026785687499994992,"midi":0,"time":68.14278900000001,"velocity":0.12598425196850394},{"duration":0.026785687500009203,"midi":0,"time":68.1695746875,"velocity":0.12598425196850394},{"duration":0.026785687500009203,"midi":0,"time":68.1695746875,"velocity":0.12598425196850394},{"duration":0.026785687499994992,"midi":0,"time":68.19636037500001,"velocity":0.12598425196850394},{"duration":0.026785687499994992,"midi":0,"time":68.19636037500001,"velocity":0.12598425196850394},{"duration":0.026785687499994992,"midi":0,"time":68.2231460625,"velocity":0.12598425196850394},{"duration":0.026785687499994992,"midi":0,"time":68.2231460625,"velocity":0.12598425196850394},{"duration":0.026785687500009203,"midi":0,"time":68.24993175,"velocity":0.12598425196850394},{"duration":0.026785687500009203,"midi":0,"time":68.24993175,"velocity":0.12598425196850394},{"duration":0.026785687499994992,"midi":0,"time":68.27671743750001,"velocity":0.12598425196850394},{"duration":0.026785687499994992,"midi":0,"time":68.27671743750001,"velocity":0.12598425196850394},{"duration":0.026785687499994992,"midi":0,"time":68.303503125,"velocity":0.12598425196850394},{"duration":0.026785687499994992,"midi":0,"time":68.303503125,"velocity":0.12598425196850394},{"duration":0.026785687500009203,"midi":0,"time":68.3302888125,"velocity":0.12598425196850394},{"duration":0.026785687500009203,"midi":0,"time":68.3302888125,"velocity":0.12598425196850394},{"duration":0.026785687499994992,"midi":0,"time":68.35707450000001,"velocity":0.12598425196850394},{"duration":0.026785687499994992,"midi":0,"time":68.35707450000001,"velocity":0.12598425196850394},{"duration":0.026785687499994992,"midi":0,"time":68.3838601875,"velocity":0.12598425196850394},{"duration":0.026785687499994992,"midi":0,"time":68.3838601875,"velocity":0.12598425196850394},{"duration":0.026785687500009203,"midi":0,"time":68.410645875,"velocity":0.12598425196850394},{"duration":0.026785687500009203,"midi":0,"time":68.410645875,"velocity":0.12598425196850394},{"duration":0.026785687499994992,"midi":0,"time":68.43743156250001,"velocity":0.12598425196850394},{"duration":0.026785687499994992,"midi":0,"time":68.43743156250001,"velocity":0.12598425196850394},{"duration":0.026785687500009203,"midi":0,"time":74.571354,"velocity":0.12598425196850394},{"duration":0.026785687500009203,"midi":0,"time":74.571354,"velocity":0.12598425196850394},{"duration":0.026785687499994992,"midi":0,"time":74.59813968750001,"velocity":0.12598425196850394},{"duration":0.026785687499994992,"midi":0,"time":74.59813968750001,"velocity":0.12598425196850394},{"duration":0.026785687500009203,"midi":0,"time":74.624925375,"velocity":0.12598425196850394},{"duration":0.026785687500009203,"midi":0,"time":74.624925375,"velocity":0.12598425196850394},{"duration":0.026785687499994992,"midi":0,"time":74.65171106250001,"velocity":0.12598425196850394},{"duration":0.026785687499994992,"midi":0,"time":74.65171106250001,"velocity":0.12598425196850394},{"duration":0.026785687499994992,"midi":0,"time":74.67849675000001,"velocity":0.12598425196850394},{"duration":0.026785687499994992,"midi":0,"time":74.67849675000001,"velocity":0.12598425196850394},{"duration":0.026785687500009203,"midi":0,"time":74.7052824375,"velocity":0.12598425196850394},{"duration":0.026785687500009203,"midi":0,"time":74.7052824375,"velocity":0.12598425196850394},{"duration":0.026785687499994992,"midi":0,"time":74.73206812500001,"velocity":0.12598425196850394},{"duration":0.026785687499994992,"midi":0,"time":74.73206812500001,"velocity":0.12598425196850394},{"duration":0.026785687499994992,"midi":0,"time":74.7588538125,"velocity":0.12598425196850394},{"duration":0.026785687499994992,"midi":0,"time":74.7588538125,"velocity":0.12598425196850394},{"duration":0.026785687500009203,"midi":0,"time":74.7856395,"velocity":0.12598425196850394},{"duration":0.026785687500009203,"midi":0,"time":74.7856395,"velocity":0.12598425196850394},{"duration":0.026785687499994992,"midi":0,"time":74.81242518750001,"velocity":0.12598425196850394},{"duration":0.026785687499994992,"midi":0,"time":74.81242518750001,"velocity":0.12598425196850394},{"duration":0.026785687499994992,"midi":0,"time":74.839210875,"velocity":0.12598425196850394},{"duration":0.026785687499994992,"midi":0,"time":74.839210875,"velocity":0.12598425196850394},{"duration":0.026785687500009203,"midi":0,"time":74.8659965625,"velocity":0.12598425196850394},{"duration":0.026785687500009203,"midi":0,"time":74.8659965625,"velocity":0.12598425196850394},{"duration":0.026785687499994992,"midi":0,"time":74.999925,"velocity":0.12598425196850394},{"duration":0.026785687499994992,"midi":0,"time":74.999925,"velocity":0.12598425196850394},{"duration":0.026785687500009203,"midi":0,"time":75.0267106875,"velocity":0.12598425196850394},{"duration":0.026785687500009203,"midi":0,"time":75.0267106875,"velocity":0.12598425196850394},{"duration":0.026785687499994992,"midi":0,"time":75.05349637500001,"velocity":0.12598425196850394},{"duration":0.026785687499994992,"midi":0,"time":75.05349637500001,"velocity":0.12598425196850394},{"duration":0.026785687500009203,"midi":0,"time":75.0802820625,"velocity":0.12598425196850394},{"duration":0.026785687500009203,"midi":0,"time":75.0802820625,"velocity":0.12598425196850394},{"duration":0.026785687499994992,"midi":0,"time":75.10706775000001,"velocity":0.12598425196850394},{"duration":0.026785687499994992,"midi":0,"time":75.10706775000001,"velocity":0.12598425196850394},{"duration":0.026785687499994992,"midi":0,"time":75.13385343750001,"velocity":0.12598425196850394},{"duration":0.026785687499994992,"midi":0,"time":75.13385343750001,"velocity":0.12598425196850394},{"duration":0.026785687500009203,"midi":0,"time":75.160639125,"velocity":0.12598425196850394},{"duration":0.026785687500009203,"midi":0,"time":75.160639125,"velocity":0.12598425196850394},{"duration":0.026785687499994992,"midi":0,"time":75.18742481250001,"velocity":0.12598425196850394},{"duration":0.026785687499994992,"midi":0,"time":75.18742481250001,"velocity":0.12598425196850394},{"duration":0.026785687499994992,"midi":0,"time":75.21421050000001,"velocity":0.12598425196850394},{"duration":0.026785687499994992,"midi":0,"time":75.21421050000001,"velocity":0.12598425196850394},{"duration":0.026785687500009203,"midi":0,"time":75.2409961875,"velocity":0.12598425196850394},{"duration":0.026785687500009203,"midi":0,"time":75.2409961875,"velocity":0.12598425196850394},{"duration":0.026785687499994992,"midi":0,"time":75.26778187500001,"velocity":0.12598425196850394},{"duration":0.026785687499994992,"midi":0,"time":75.26778187500001,"velocity":0.12598425196850394},{"duration":0.026785687499994992,"midi":0,"time":75.2945675625,"velocity":0.12598425196850394},{"duration":0.026785687499994992,"midi":0,"time":75.2945675625,"velocity":0.12598425196850394},{"duration":0.026785687499994992,"midi":0,"time":81.42849000000001,"velocity":0.12598425196850394},{"duration":0.026785687499994992,"midi":0,"time":81.42849000000001,"velocity":0.12598425196850394},{"duration":0.026785687499994992,"midi":0,"time":81.4552756875,"velocity":0.12598425196850394},{"duration":0.026785687499994992,"midi":0,"time":81.4552756875,"velocity":0.12598425196850394},{"duration":0.026785687500009203,"midi":0,"time":81.482061375,"velocity":0.12598425196850394},{"duration":0.026785687500009203,"midi":0,"time":81.482061375,"velocity":0.12598425196850394},{"duration":0.026785687499994992,"midi":0,"time":81.50884706250001,"velocity":0.12598425196850394},{"duration":0.026785687499994992,"midi":0,"time":81.50884706250001,"velocity":0.12598425196850394},{"duration":0.026785687499994992,"midi":0,"time":81.53563275,"velocity":0.12598425196850394},{"duration":0.026785687499994992,"midi":0,"time":81.53563275,"velocity":0.12598425196850394},{"duration":0.026785687500009203,"midi":0,"time":81.5624184375,"velocity":0.12598425196850394},{"duration":0.026785687500009203,"midi":0,"time":81.5624184375,"velocity":0.12598425196850394},{"duration":0.026785687499994992,"midi":0,"time":81.58920412500001,"velocity":0.12598425196850394},{"duration":0.026785687499994992,"midi":0,"time":81.58920412500001,"velocity":0.12598425196850394},{"duration":0.026785687500009203,"midi":0,"time":81.6159898125,"velocity":0.12598425196850394},{"duration":0.026785687500009203,"midi":0,"time":81.6159898125,"velocity":0.12598425196850394},{"duration":0.026785687499994992,"midi":0,"time":81.64277550000001,"velocity":0.12598425196850394},{"duration":0.026785687499994992,"midi":0,"time":81.64277550000001,"velocity":0.12598425196850394},{"duration":0.026785687499994992,"midi":0,"time":81.66956118750001,"velocity":0.12598425196850394},{"duration":0.026785687499994992,"midi":0,"time":81.66956118750001,"velocity":0.12598425196850394},{"duration":0.026785687500009203,"midi":0,"time":81.696346875,"velocity":0.12598425196850394},{"duration":0.026785687500009203,"midi":0,"time":81.696346875,"velocity":0.12598425196850394},{"duration":0.026785687499994992,"midi":0,"time":81.72313256250001,"velocity":0.12598425196850394},{"duration":0.026785687499994992,"midi":0,"time":81.72313256250001,"velocity":0.12598425196850394},{"duration":0.026785687500009203,"midi":0,"time":81.857061,"velocity":0.12598425196850394},{"duration":0.026785687500009203,"midi":0,"time":81.857061,"velocity":0.12598425196850394},{"duration":0.026785687499994992,"midi":0,"time":81.88384668750001,"velocity":0.12598425196850394},{"duration":0.026785687499994992,"midi":0,"time":81.88384668750001,"velocity":0.12598425196850394},{"duration":0.026785687499994992,"midi":0,"time":81.910632375,"velocity":0.12598425196850394},{"duration":0.026785687499994992,"midi":0,"time":81.910632375,"velocity":0.12598425196850394},{"duration":0.026785687500009203,"midi":0,"time":81.9374180625,"velocity":0.12598425196850394},{"duration":0.026785687500009203,"midi":0,"time":81.9374180625,"velocity":0.12598425196850394},{"duration":0.026785687499994992,"midi":0,"time":81.96420375000001,"velocity":0.12598425196850394},{"duration":0.026785687499994992,"midi":0,"time":81.96420375000001,"velocity":0.12598425196850394},{"duration":0.026785687499994992,"midi":0,"time":81.9909894375,"velocity":0.12598425196850394},{"duration":0.026785687499994992,"midi":0,"time":81.9909894375,"velocity":0.12598425196850394},{"duration":0.026785687500009203,"midi":0,"time":82.017775125,"velocity":0.12598425196850394},{"duration":0.026785687500009203,"midi":0,"time":82.017775125,"velocity":0.12598425196850394},{"duration":0.026785687499994992,"midi":0,"time":82.04456081250001,"velocity":0.12598425196850394},{"duration":0.026785687499994992,"midi":0,"time":82.04456081250001,"velocity":0.12598425196850394},{"duration":0.026785687500009203,"midi":0,"time":82.0713465,"velocity":0.12598425196850394},{"duration":0.026785687500009203,"midi":0,"time":82.0713465,"velocity":0.12598425196850394},{"duration":0.026785687499994992,"midi":0,"time":82.09813218750001,"velocity":0.12598425196850394},{"duration":0.026785687499994992,"midi":0,"time":82.09813218750001,"velocity":0.12598425196850394},{"duration":0.026785687499994992,"midi":0,"time":82.12491787500001,"velocity":0.12598425196850394},{"duration":0.026785687499994992,"midi":0,"time":82.12491787500001,"velocity":0.12598425196850394},{"duration":0.026785687500009203,"midi":0,"time":82.1517035625,"velocity":0.12598425196850394},{"duration":0.026785687500009203,"midi":0,"time":82.1517035625,"velocity":0.12598425196850394},{"duration":0.026785687499994992,"midi":0,"time":88.28562600000001,"velocity":0.12598425196850394},{"duration":0.026785687499994992,"midi":0,"time":88.28562600000001,"velocity":0.12598425196850394},{"duration":0.026785687500009203,"midi":0,"time":88.3124116875,"velocity":0.12598425196850394},{"duration":0.026785687500009203,"midi":0,"time":88.3124116875,"velocity":0.12598425196850394},{"duration":0.026785687499994992,"midi":0,"time":88.33919737500001,"velocity":0.12598425196850394},{"duration":0.026785687499994992,"midi":0,"time":88.33919737500001,"velocity":0.12598425196850394},{"duration":0.026785687499994992,"midi":0,"time":88.3659830625,"velocity":0.12598425196850394},{"duration":0.026785687499994992,"midi":0,"time":88.3659830625,"velocity":0.12598425196850394},{"duration":0.026785687500009203,"midi":0,"time":88.39276875,"velocity":0.12598425196850394},{"duration":0.026785687500009203,"midi":0,"time":88.39276875,"velocity":0.12598425196850394},{"duration":0.026785687499994992,"midi":0,"time":88.41955443750001,"velocity":0.12598425196850394},{"duration":0.026785687499994992,"midi":0,"time":88.41955443750001,"velocity":0.12598425196850394},{"duration":0.026785687499994992,"midi":0,"time":88.446340125,"velocity":0.12598425196850394},{"duration":0.026785687499994992,"midi":0,"time":88.446340125,"velocity":0.12598425196850394},{"duration":0.026785687500009203,"midi":0,"time":88.4731258125,"velocity":0.12598425196850394},{"duration":0.026785687500009203,"midi":0,"time":88.4731258125,"velocity":0.12598425196850394},{"duration":0.026785687499994992,"midi":0,"time":88.49991150000001,"velocity":0.12598425196850394},{"duration":0.026785687499994992,"midi":0,"time":88.49991150000001,"velocity":0.12598425196850394},{"duration":0.026785687499994992,"midi":0,"time":88.5266971875,"velocity":0.12598425196850394},{"duration":0.026785687499994992,"midi":0,"time":88.5266971875,"velocity":0.12598425196850394},{"duration":0.026785687500009203,"midi":0,"time":88.553482875,"velocity":0.12598425196850394},{"duration":0.026785687500009203,"midi":0,"time":88.553482875,"velocity":0.12598425196850394},{"duration":0.026785687499994992,"midi":0,"time":88.58026856250001,"velocity":0.12598425196850394},{"duration":0.026785687499994992,"midi":0,"time":88.58026856250001,"velocity":0.12598425196850394},{"duration":0.026785687499994992,"midi":0,"time":88.71419700000001,"velocity":0.12598425196850394},{"duration":0.026785687499994992,"midi":0,"time":88.71419700000001,"velocity":0.12598425196850394},{"duration":0.026785687499994992,"midi":0,"time":88.74098268750001,"velocity":0.12598425196850394},{"duration":0.026785687499994992,"midi":0,"time":88.74098268750001,"velocity":0.12598425196850394},{"duration":0.026785687500009203,"midi":0,"time":88.767768375,"velocity":0.12598425196850394},{"duration":0.026785687500009203,"midi":0,"time":88.767768375,"velocity":0.12598425196850394},{"duration":0.026785687499994992,"midi":0,"time":88.79455406250001,"velocity":0.12598425196850394},{"duration":0.026785687499994992,"midi":0,"time":88.79455406250001,"velocity":0.12598425196850394},{"duration":0.026785687499994992,"midi":0,"time":88.82133975,"velocity":0.12598425196850394},{"duration":0.026785687499994992,"midi":0,"time":88.82133975,"velocity":0.12598425196850394},{"duration":0.026785687500009203,"midi":0,"time":88.8481254375,"velocity":0.12598425196850394},{"duration":0.026785687500009203,"midi":0,"time":88.8481254375,"velocity":0.12598425196850394},{"duration":0.026785687499994992,"midi":0,"time":88.87491112500001,"velocity":0.12598425196850394},{"duration":0.026785687499994992,"midi":0,"time":88.87491112500001,"velocity":0.12598425196850394},{"duration":0.026785687499994992,"midi":0,"time":88.9016968125,"velocity":0.12598425196850394},{"duration":0.026785687499994992,"midi":0,"time":88.9016968125,"velocity":0.12598425196850394},{"duration":0.026785687500009203,"midi":0,"time":88.9284825,"velocity":0.12598425196850394},{"duration":0.026785687500009203,"midi":0,"time":88.9284825,"velocity":0.12598425196850394},{"duration":0.026785687499994992,"midi":0,"time":88.95526818750001,"velocity":0.12598425196850394},{"duration":0.026785687499994992,"midi":0,"time":88.95526818750001,"velocity":0.12598425196850394},{"duration":0.026785687499994992,"midi":0,"time":88.982053875,"velocity":0.12598425196850394},{"duration":0.026785687499994992,"midi":0,"time":88.982053875,"velocity":0.12598425196850394},{"duration":0.026785687500009203,"midi":0,"time":89.0088395625,"velocity":0.12598425196850394},{"duration":0.026785687500009203,"midi":0,"time":89.0088395625,"velocity":0.12598425196850394},{"duration":0.026785687500009203,"midi":0,"time":95.142762,"velocity":0.12598425196850394},{"duration":0.026785687500009203,"midi":0,"time":95.142762,"velocity":0.12598425196850394},{"duration":0.026785687499994992,"midi":0,"time":95.16954768750001,"velocity":0.12598425196850394},{"duration":0.026785687499994992,"midi":0,"time":95.16954768750001,"velocity":0.12598425196850394},{"duration":0.026785687499994992,"midi":0,"time":95.19633337500001,"velocity":0.12598425196850394},{"duration":0.026785687499994992,"midi":0,"time":95.19633337500001,"velocity":0.12598425196850394},{"duration":0.026785687500009203,"midi":0,"time":95.2231190625,"velocity":0.12598425196850394},{"duration":0.026785687500009203,"midi":0,"time":95.2231190625,"velocity":0.12598425196850394},{"duration":0.026785687499994992,"midi":0,"time":95.24990475000001,"velocity":0.12598425196850394},{"duration":0.026785687499994992,"midi":0,"time":95.24990475000001,"velocity":0.12598425196850394},{"duration":0.026785687499994992,"midi":0,"time":95.27669043750001,"velocity":0.12598425196850394},{"duration":0.026785687499994992,"midi":0,"time":95.27669043750001,"velocity":0.12598425196850394},{"duration":0.026785687500009203,"midi":0,"time":95.303476125,"velocity":0.12598425196850394},{"duration":0.026785687500009203,"midi":0,"time":95.303476125,"velocity":0.12598425196850394},{"duration":0.026785687499994992,"midi":0,"time":95.33026181250001,"velocity":0.12598425196850394},{"duration":0.026785687499994992,"midi":0,"time":95.33026181250001,"velocity":0.12598425196850394},{"duration":0.026785687499994992,"midi":0,"time":95.35704750000001,"velocity":0.12598425196850394},{"duration":0.026785687499994992,"midi":0,"time":95.35704750000001,"velocity":0.12598425196850394},{"duration":0.026785687500009203,"midi":0,"time":95.3838331875,"velocity":0.12598425196850394},{"duration":0.026785687500009203,"midi":0,"time":95.3838331875,"velocity":0.12598425196850394},{"duration":0.026785687499994992,"midi":0,"time":95.41061887500001,"velocity":0.12598425196850394},{"duration":0.026785687499994992,"midi":0,"time":95.41061887500001,"velocity":0.12598425196850394},{"duration":0.026785687499994992,"midi":0,"time":95.4374045625,"velocity":0.12598425196850394},{"duration":0.026785687499994992,"midi":0,"time":95.4374045625,"velocity":0.12598425196850394},{"duration":0.026785687499994992,"midi":0,"time":95.57133300000001,"velocity":0.12598425196850394},{"duration":0.026785687499994992,"midi":0,"time":95.57133300000001,"velocity":0.12598425196850394},{"duration":0.026785687500009203,"midi":0,"time":95.5981186875,"velocity":0.12598425196850394},{"duration":0.026785687500009203,"midi":0,"time":95.5981186875,"velocity":0.12598425196850394},{"duration":0.026785687499994992,"midi":0,"time":95.62490437500001,"velocity":0.12598425196850394},{"duration":0.026785687499994992,"midi":0,"time":95.62490437500001,"velocity":0.12598425196850394},{"duration":0.026785687499994992,"midi":0,"time":95.65169006250001,"velocity":0.12598425196850394},{"duration":0.026785687499994992,"midi":0,"time":95.65169006250001,"velocity":0.12598425196850394},{"duration":0.026785687500009203,"midi":0,"time":95.67847575,"velocity":0.12598425196850394},{"duration":0.026785687500009203,"midi":0,"time":95.67847575,"velocity":0.12598425196850394},{"duration":0.026785687499994992,"midi":0,"time":95.70526143750001,"velocity":0.12598425196850394},{"duration":0.026785687499994992,"midi":0,"time":95.70526143750001,"velocity":0.12598425196850394},{"duration":0.026785687499994992,"midi":0,"time":95.73204712500001,"velocity":0.12598425196850394},{"duration":0.026785687499994992,"midi":0,"time":95.73204712500001,"velocity":0.12598425196850394},{"duration":0.026785687500009203,"midi":0,"time":95.7588328125,"velocity":0.12598425196850394},{"duration":0.026785687500009203,"midi":0,"time":95.7588328125,"velocity":0.12598425196850394},{"duration":0.026785687499994992,"midi":0,"time":95.78561850000001,"velocity":0.12598425196850394},{"duration":0.026785687499994992,"midi":0,"time":95.78561850000001,"velocity":0.12598425196850394},{"duration":0.026785687499994992,"midi":0,"time":95.81240418750001,"velocity":0.12598425196850394},{"duration":0.026785687499994992,"midi":0,"time":95.81240418750001,"velocity":0.12598425196850394},{"duration":0.026785687500009203,"midi":0,"time":95.839189875,"velocity":0.12598425196850394},{"duration":0.026785687500009203,"midi":0,"time":95.839189875,"velocity":0.12598425196850394},{"duration":0.026785687499994992,"midi":0,"time":95.86597556250001,"velocity":0.12598425196850394},{"duration":0.026785687499994992,"midi":0,"time":95.86597556250001,"velocity":0.12598425196850394},{"duration":0.026785687500009203,"midi":0,"time":101.999898,"velocity":0.12598425196850394},{"duration":0.026785687500009203,"midi":0,"time":101.999898,"velocity":0.12598425196850394},{"duration":0.026785687499994992,"midi":0,"time":102.02668368750001,"velocity":0.12598425196850394},{"duration":0.026785687499994992,"midi":0,"time":102.02668368750001,"velocity":0.12598425196850394},{"duration":0.026785687500009203,"midi":0,"time":102.053469375,"velocity":0.12598425196850394},{"duration":0.026785687500009203,"midi":0,"time":102.053469375,"velocity":0.12598425196850394},{"duration":0.026785687499994992,"midi":0,"time":102.08025506250002,"velocity":0.12598425196850394},{"duration":0.026785687499994992,"midi":0,"time":102.08025506250002,"velocity":0.12598425196850394},{"duration":0.026785687499994992,"midi":0,"time":102.10704075000001,"velocity":0.12598425196850394},{"duration":0.026785687499994992,"midi":0,"time":102.10704075000001,"velocity":0.12598425196850394},{"duration":0.026785687500009203,"midi":0,"time":102.1338264375,"velocity":0.12598425196850394},{"duration":0.026785687500009203,"midi":0,"time":102.1338264375,"velocity":0.12598425196850394},{"duration":0.026785687499994992,"midi":0,"time":102.16061212500001,"velocity":0.12598425196850394},{"duration":0.026785687499994992,"midi":0,"time":102.16061212500001,"velocity":0.12598425196850394},{"duration":0.026785687499994992,"midi":0,"time":102.18739781250001,"velocity":0.12598425196850394},{"duration":0.026785687499994992,"midi":0,"time":102.18739781250001,"velocity":0.12598425196850394},{"duration":0.026785687500009203,"midi":0,"time":102.2141835,"velocity":0.12598425196850394},{"duration":0.026785687500009203,"midi":0,"time":102.2141835,"velocity":0.12598425196850394},{"duration":0.026785687499994992,"midi":0,"time":102.24096918750001,"velocity":0.12598425196850394},{"duration":0.026785687499994992,"midi":0,"time":102.24096918750001,"velocity":0.12598425196850394},{"duration":0.026785687499994992,"midi":0,"time":102.26775487500001,"velocity":0.12598425196850394},{"duration":0.026785687499994992,"midi":0,"time":102.26775487500001,"velocity":0.12598425196850394},{"duration":0.026785687500009203,"midi":0,"time":102.2945405625,"velocity":0.12598425196850394},{"duration":0.026785687500009203,"midi":0,"time":102.2945405625,"velocity":0.12598425196850394},{"duration":0.026785687499994992,"midi":0,"time":102.428469,"velocity":0.12598425196850394},{"duration":0.026785687499994992,"midi":0,"time":102.428469,"velocity":0.12598425196850394},{"duration":0.026785687500009203,"midi":0,"time":102.4552546875,"velocity":0.12598425196850394},{"duration":0.026785687500009203,"midi":0,"time":102.4552546875,"velocity":0.12598425196850394},{"duration":0.026785687499994992,"midi":0,"time":102.48204037500001,"velocity":0.12598425196850394},{"duration":0.026785687499994992,"midi":0,"time":102.48204037500001,"velocity":0.12598425196850394},{"duration":0.026785687500009203,"midi":0,"time":102.5088260625,"velocity":0.12598425196850394},{"duration":0.026785687500009203,"midi":0,"time":102.5088260625,"velocity":0.12598425196850394},{"duration":0.026785687499994992,"midi":0,"time":102.53561175000002,"velocity":0.12598425196850394},{"duration":0.026785687499994992,"midi":0,"time":102.53561175000002,"velocity":0.12598425196850394},{"duration":0.026785687499994992,"midi":0,"time":102.56239743750001,"velocity":0.12598425196850394},{"duration":0.026785687499994992,"midi":0,"time":102.56239743750001,"velocity":0.12598425196850394},{"duration":0.026785687500009203,"midi":0,"time":102.589183125,"velocity":0.12598425196850394},{"duration":0.026785687500009203,"midi":0,"time":102.589183125,"velocity":0.12598425196850394},{"duration":0.026785687499994992,"midi":0,"time":102.61596881250001,"velocity":0.12598425196850394},{"duration":0.026785687499994992,"midi":0,"time":102.61596881250001,"velocity":0.12598425196850394},{"duration":0.026785687499994992,"midi":0,"time":102.64275450000001,"velocity":0.12598425196850394},{"duration":0.026785687499994992,"midi":0,"time":102.64275450000001,"velocity":0.12598425196850394},{"duration":0.026785687500009203,"midi":0,"time":102.6695401875,"velocity":0.12598425196850394},{"duration":0.026785687500009203,"midi":0,"time":102.6695401875,"velocity":0.12598425196850394},{"duration":0.026785687499994992,"midi":0,"time":102.69632587500001,"velocity":0.12598425196850394},{"duration":0.026785687499994992,"midi":0,"time":102.69632587500001,"velocity":0.12598425196850394},{"duration":0.026785687499994992,"midi":0,"time":102.72311156250001,"velocity":0.12598425196850394},{"duration":0.026785687499994992,"midi":0,"time":102.72311156250001,"velocity":0.12598425196850394},{"duration":0.026785687499994992,"midi":0,"time":115.71417000000001,"velocity":0.12598425196850394},{"duration":0.026785687499994992,"midi":0,"time":115.71417000000001,"velocity":0.12598425196850394},{"duration":0.026785687500009203,"midi":0,"time":115.7409556875,"velocity":0.12598425196850394},{"duration":0.026785687500009203,"midi":0,"time":115.7409556875,"velocity":0.12598425196850394},{"duration":0.026785687499994992,"midi":0,"time":115.76774137500001,"velocity":0.12598425196850394},{"duration":0.026785687499994992,"midi":0,"time":115.76774137500001,"velocity":0.12598425196850394},{"duration":0.026785687499994992,"midi":0,"time":115.79452706250001,"velocity":0.12598425196850394},{"duration":0.026785687499994992,"midi":0,"time":115.79452706250001,"velocity":0.12598425196850394},{"duration":0.026785687500009203,"midi":0,"time":115.82131275,"velocity":0.12598425196850394},{"duration":0.026785687500009203,"midi":0,"time":115.82131275,"velocity":0.12598425196850394},{"duration":0.026785687499994992,"midi":0,"time":115.84809843750001,"velocity":0.12598425196850394},{"duration":0.026785687499994992,"midi":0,"time":115.84809843750001,"velocity":0.12598425196850394},{"duration":0.026785687499994992,"midi":0,"time":115.87488412500001,"velocity":0.12598425196850394},{"duration":0.026785687499994992,"midi":0,"time":115.87488412500001,"velocity":0.12598425196850394},{"duration":0.026785687500009203,"midi":0,"time":115.9016698125,"velocity":0.12598425196850394},{"duration":0.026785687500009203,"midi":0,"time":115.9016698125,"velocity":0.12598425196850394},{"duration":0.026785687499994992,"midi":0,"time":115.92845550000001,"velocity":0.12598425196850394},{"duration":0.026785687499994992,"midi":0,"time":115.92845550000001,"velocity":0.12598425196850394},{"duration":0.026785687499994992,"midi":0,"time":115.95524118750001,"velocity":0.12598425196850394},{"duration":0.026785687499994992,"midi":0,"time":115.95524118750001,"velocity":0.12598425196850394},{"duration":0.026785687500009203,"midi":0,"time":115.982026875,"velocity":0.12598425196850394},{"duration":0.026785687500009203,"midi":0,"time":115.982026875,"velocity":0.12598425196850394},{"duration":0.026785687499994992,"midi":0,"time":116.00881256250001,"velocity":0.12598425196850394},{"duration":0.026785687499994992,"midi":0,"time":116.00881256250001,"velocity":0.12598425196850394},{"duration":0.026785687499994992,"midi":0,"time":116.14274100000002,"velocity":0.12598425196850394},{"duration":0.026785687499994992,"midi":0,"time":116.14274100000002,"velocity":0.12598425196850394},{"duration":0.026785687499994992,"midi":0,"time":116.16952668750001,"velocity":0.12598425196850394},{"duration":0.026785687499994992,"midi":0,"time":116.16952668750001,"velocity":0.12598425196850394},{"duration":0.026785687500009203,"midi":0,"time":116.196312375,"velocity":0.12598425196850394},{"duration":0.026785687500009203,"midi":0,"time":116.196312375,"velocity":0.12598425196850394},{"duration":0.026785687499994992,"midi":0,"time":116.22309806250001,"velocity":0.12598425196850394},{"duration":0.026785687499994992,"midi":0,"time":116.22309806250001,"velocity":0.12598425196850394},{"duration":0.026785687499994992,"midi":0,"time":116.24988375000001,"velocity":0.12598425196850394},{"duration":0.026785687499994992,"midi":0,"time":116.24988375000001,"velocity":0.12598425196850394},{"duration":0.026785687500009203,"midi":0,"time":116.2766694375,"velocity":0.12598425196850394},{"duration":0.026785687500009203,"midi":0,"time":116.2766694375,"velocity":0.12598425196850394},{"duration":0.026785687499994992,"midi":0,"time":116.30345512500001,"velocity":0.12598425196850394},{"duration":0.026785687499994992,"midi":0,"time":116.30345512500001,"velocity":0.12598425196850394},{"duration":0.026785687499994992,"midi":0,"time":116.33024081250001,"velocity":0.12598425196850394},{"duration":0.026785687499994992,"midi":0,"time":116.33024081250001,"velocity":0.12598425196850394},{"duration":0.026785687500009203,"midi":0,"time":116.3570265,"velocity":0.12598425196850394},{"duration":0.026785687500009203,"midi":0,"time":116.3570265,"velocity":0.12598425196850394},{"duration":0.026785687499994992,"midi":0,"time":116.38381218750001,"velocity":0.12598425196850394},{"duration":0.026785687499994992,"midi":0,"time":116.38381218750001,"velocity":0.12598425196850394},{"duration":0.026785687499994992,"midi":0,"time":116.41059787500001,"velocity":0.12598425196850394},{"duration":0.026785687499994992,"midi":0,"time":116.41059787500001,"velocity":0.12598425196850394},{"duration":0.026785687500009203,"midi":0,"time":116.4373835625,"velocity":0.12598425196850394},{"duration":0.026785687500009203,"midi":0,"time":116.4373835625,"velocity":0.12598425196850394},{"duration":0.026785687500009203,"midi":0,"time":122.571306,"velocity":0.12598425196850394},{"duration":0.026785687500009203,"midi":0,"time":122.571306,"velocity":0.12598425196850394},{"duration":0.026785687499994992,"midi":0,"time":122.59809168750002,"velocity":0.12598425196850394},{"duration":0.026785687499994992,"midi":0,"time":122.59809168750002,"velocity":0.12598425196850394},{"duration":0.026785687499994992,"midi":0,"time":122.62487737500001,"velocity":0.12598425196850394},{"duration":0.026785687499994992,"midi":0,"time":122.62487737500001,"velocity":0.12598425196850394},{"duration":0.026785687500009203,"midi":0,"time":122.6516630625,"velocity":0.12598425196850394},{"duration":0.026785687500009203,"midi":0,"time":122.6516630625,"velocity":0.12598425196850394},{"duration":0.026785687499994992,"midi":0,"time":122.67844875000002,"velocity":0.12598425196850394},{"duration":0.026785687499994992,"midi":0,"time":122.67844875000002,"velocity":0.12598425196850394},{"duration":0.026785687499994992,"midi":0,"time":122.70523443750001,"velocity":0.12598425196850394},{"duration":0.026785687499994992,"midi":0,"time":122.70523443750001,"velocity":0.12598425196850394},{"duration":0.026785687500009203,"midi":0,"time":122.732020125,"velocity":0.12598425196850394},{"duration":0.026785687500009203,"midi":0,"time":122.732020125,"velocity":0.12598425196850394},{"duration":0.026785687499994992,"midi":0,"time":122.75880581250001,"velocity":0.12598425196850394},{"duration":0.026785687499994992,"midi":0,"time":122.75880581250001,"velocity":0.12598425196850394},{"duration":0.026785687499994992,"midi":0,"time":122.78559150000001,"velocity":0.12598425196850394},{"duration":0.026785687499994992,"midi":0,"time":122.78559150000001,"velocity":0.12598425196850394},{"duration":0.026785687500009203,"midi":0,"time":122.8123771875,"velocity":0.12598425196850394},{"duration":0.026785687500009203,"midi":0,"time":122.8123771875,"velocity":0.12598425196850394},{"duration":0.026785687499994992,"midi":0,"time":122.83916287500001,"velocity":0.12598425196850394},{"duration":0.026785687499994992,"midi":0,"time":122.83916287500001,"velocity":0.12598425196850394},{"duration":0.026785687499994992,"midi":0,"time":122.86594856250001,"velocity":0.12598425196850394},{"duration":0.026785687499994992,"midi":0,"time":122.86594856250001,"velocity":0.12598425196850394},{"duration":0.026785687499994992,"midi":0,"time":122.99987700000001,"velocity":0.12598425196850394},{"duration":0.026785687499994992,"midi":0,"time":122.99987700000001,"velocity":0.12598425196850394},{"duration":0.026785687500009203,"midi":0,"time":123.02666268750001,"velocity":0.12598425196850394},{"duration":0.026785687500009203,"midi":0,"time":123.02666268750001,"velocity":0.12598425196850394},{"duration":0.026785687499994992,"midi":0,"time":123.05344837500002,"velocity":0.12598425196850394},{"duration":0.026785687499994992,"midi":0,"time":123.05344837500002,"velocity":0.12598425196850394},{"duration":0.026785687499994992,"midi":0,"time":123.08023406250001,"velocity":0.12598425196850394},{"duration":0.026785687499994992,"midi":0,"time":123.08023406250001,"velocity":0.12598425196850394},{"duration":0.026785687500009203,"midi":0,"time":123.10701975,"velocity":0.12598425196850394},{"duration":0.026785687500009203,"midi":0,"time":123.10701975,"velocity":0.12598425196850394},{"duration":0.026785687499994992,"midi":0,"time":123.13380543750002,"velocity":0.12598425196850394},{"duration":0.026785687499994992,"midi":0,"time":123.13380543750002,"velocity":0.12598425196850394},{"duration":0.026785687499994992,"midi":0,"time":123.16059112500001,"velocity":0.12598425196850394},{"duration":0.026785687499994992,"midi":0,"time":123.16059112500001,"velocity":0.12598425196850394},{"duration":0.026785687500009203,"midi":0,"time":123.1873768125,"velocity":0.12598425196850394},{"duration":0.026785687500009203,"midi":0,"time":123.1873768125,"velocity":0.12598425196850394},{"duration":0.026785687499994992,"midi":0,"time":123.21416250000001,"velocity":0.12598425196850394},{"duration":0.026785687499994992,"midi":0,"time":123.21416250000001,"velocity":0.12598425196850394},{"duration":0.026785687499994992,"midi":0,"time":123.24094818750001,"velocity":0.12598425196850394},{"duration":0.026785687499994992,"midi":0,"time":123.24094818750001,"velocity":0.12598425196850394},{"duration":0.026785687500009203,"midi":0,"time":123.267733875,"velocity":0.12598425196850394},{"duration":0.026785687500009203,"midi":0,"time":123.267733875,"velocity":0.12598425196850394},{"duration":0.026785687499994992,"midi":0,"time":123.29451956250001,"velocity":0.12598425196850394},{"duration":0.026785687499994992,"midi":0,"time":123.29451956250001,"velocity":0.12598425196850394},{"duration":0.026785687499994992,"midi":0,"time":129.42844200000002,"velocity":0.12598425196850394},{"duration":0.026785687499994992,"midi":0,"time":129.42844200000002,"velocity":0.12598425196850394},{"duration":0.026785687499994992,"midi":0,"time":129.4552276875,"velocity":0.12598425196850394},{"duration":0.026785687499994992,"midi":0,"time":129.4552276875,"velocity":0.12598425196850394},{"duration":0.026785687499994992,"midi":0,"time":129.482013375,"velocity":0.12598425196850394},{"duration":0.026785687499994992,"midi":0,"time":129.482013375,"velocity":0.12598425196850394},{"duration":0.026785687499994992,"midi":0,"time":129.5087990625,"velocity":0.12598425196850394},{"duration":0.026785687499994992,"midi":0,"time":129.5087990625,"velocity":0.12598425196850394},{"duration":0.026785687500023414,"midi":0,"time":129.53558475,"velocity":0.12598425196850394},{"duration":0.026785687500023414,"midi":0,"time":129.53558475,"velocity":0.12598425196850394},{"duration":0.026785687499994992,"midi":0,"time":129.56237043750002,"velocity":0.12598425196850394},{"duration":0.026785687499994992,"midi":0,"time":129.56237043750002,"velocity":0.12598425196850394},{"duration":0.026785687499994992,"midi":0,"time":129.58915612500002,"velocity":0.12598425196850394},{"duration":0.026785687499994992,"midi":0,"time":129.58915612500002,"velocity":0.12598425196850394},{"duration":0.026785687499994992,"midi":0,"time":129.6159418125,"velocity":0.12598425196850394},{"duration":0.026785687499994992,"midi":0,"time":129.6159418125,"velocity":0.12598425196850394},{"duration":0.026785687499994992,"midi":0,"time":129.6427275,"velocity":0.12598425196850394},{"duration":0.026785687499994992,"midi":0,"time":129.6427275,"velocity":0.12598425196850394},{"duration":0.026785687499994992,"midi":0,"time":129.6695131875,"velocity":0.12598425196850394},{"duration":0.026785687499994992,"midi":0,"time":129.6695131875,"velocity":0.12598425196850394},{"duration":0.026785687500023414,"midi":0,"time":129.696298875,"velocity":0.12598425196850394},{"duration":0.026785687500023414,"midi":0,"time":129.696298875,"velocity":0.12598425196850394},{"duration":0.026785687499994992,"midi":0,"time":129.72308456250002,"velocity":0.12598425196850394},{"duration":0.026785687499994992,"midi":0,"time":129.72308456250002,"velocity":0.12598425196850394},{"duration":0.026785687499994992,"midi":0,"time":129.85701300000002,"velocity":0.12598425196850394},{"duration":0.026785687499994992,"midi":0,"time":129.85701300000002,"velocity":0.12598425196850394},{"duration":0.026785687499994992,"midi":0,"time":129.88379868750002,"velocity":0.12598425196850394},{"duration":0.026785687499994992,"midi":0,"time":129.88379868750002,"velocity":0.12598425196850394},{"duration":0.026785687499994992,"midi":0,"time":129.910584375,"velocity":0.12598425196850394},{"duration":0.026785687499994992,"midi":0,"time":129.910584375,"velocity":0.12598425196850394},{"duration":0.026785687499994992,"midi":0,"time":129.9373700625,"velocity":0.12598425196850394},{"duration":0.026785687499994992,"midi":0,"time":129.9373700625,"velocity":0.12598425196850394},{"duration":0.026785687499994992,"midi":0,"time":129.96415575,"velocity":0.12598425196850394},{"duration":0.026785687499994992,"midi":0,"time":129.96415575,"velocity":0.12598425196850394},{"duration":0.026785687500023414,"midi":0,"time":129.9909414375,"velocity":0.12598425196850394},{"duration":0.026785687500023414,"midi":0,"time":129.9909414375,"velocity":0.12598425196850394},{"duration":0.026785687499994992,"midi":0,"time":130.01772712500002,"velocity":0.12598425196850394},{"duration":0.026785687499994992,"midi":0,"time":130.01772712500002,"velocity":0.12598425196850394},{"duration":0.026785687499994992,"midi":0,"time":130.04451281250002,"velocity":0.12598425196850394},{"duration":0.026785687499994992,"midi":0,"time":130.04451281250002,"velocity":0.12598425196850394},{"duration":0.026785687499994992,"midi":0,"time":130.0712985,"velocity":0.12598425196850394},{"duration":0.026785687499994992,"midi":0,"time":130.0712985,"velocity":0.12598425196850394},{"duration":0.026785687499994992,"midi":0,"time":130.0980841875,"velocity":0.12598425196850394},{"duration":0.026785687499994992,"midi":0,"time":130.0980841875,"velocity":0.12598425196850394},{"duration":0.026785687499994992,"midi":0,"time":130.124869875,"velocity":0.12598425196850394},{"duration":0.026785687499994992,"midi":0,"time":130.124869875,"velocity":0.12598425196850394},{"duration":0.026785687500023414,"midi":0,"time":130.1516555625,"velocity":0.12598425196850394},{"duration":0.026785687500023414,"midi":0,"time":130.1516555625,"velocity":0.12598425196850394},{"duration":0.026785687499994992,"midi":0,"time":136.28557800000002,"velocity":0.12598425196850394},{"duration":0.026785687499994992,"midi":0,"time":136.28557800000002,"velocity":0.12598425196850394},{"duration":0.026785687499994992,"midi":0,"time":136.3123636875,"velocity":0.12598425196850394},{"duration":0.026785687499994992,"midi":0,"time":136.3123636875,"velocity":0.12598425196850394},{"duration":0.026785687499994992,"midi":0,"time":136.339149375,"velocity":0.12598425196850394},{"duration":0.026785687499994992,"midi":0,"time":136.339149375,"velocity":0.12598425196850394},{"duration":0.026785687500023414,"midi":0,"time":136.3659350625,"velocity":0.12598425196850394},{"duration":0.026785687500023414,"midi":0,"time":136.3659350625,"velocity":0.12598425196850394},{"duration":0.026785687499994992,"midi":0,"time":136.39272075000002,"velocity":0.12598425196850394},{"duration":0.026785687499994992,"midi":0,"time":136.39272075000002,"velocity":0.12598425196850394},{"duration":0.026785687499994992,"midi":0,"time":136.41950643750002,"velocity":0.12598425196850394},{"duration":0.026785687499994992,"midi":0,"time":136.41950643750002,"velocity":0.12598425196850394},{"duration":0.026785687499994992,"midi":0,"time":136.446292125,"velocity":0.12598425196850394},{"duration":0.026785687499994992,"midi":0,"time":136.446292125,"velocity":0.12598425196850394},{"duration":0.026785687499994992,"midi":0,"time":136.4730778125,"velocity":0.12598425196850394},{"duration":0.026785687499994992,"midi":0,"time":136.4730778125,"velocity":0.12598425196850394},{"duration":0.026785687499994992,"midi":0,"time":136.4998635,"velocity":0.12598425196850394},{"duration":0.026785687499994992,"midi":0,"time":136.4998635,"velocity":0.12598425196850394},{"duration":0.026785687500023414,"midi":0,"time":136.5266491875,"velocity":0.12598425196850394},{"duration":0.026785687500023414,"midi":0,"time":136.5266491875,"velocity":0.12598425196850394},{"duration":0.026785687499994992,"midi":0,"time":136.55343487500002,"velocity":0.12598425196850394},{"duration":0.026785687499994992,"midi":0,"time":136.55343487500002,"velocity":0.12598425196850394},{"duration":0.026785687499994992,"midi":0,"time":136.58022056250002,"velocity":0.12598425196850394},{"duration":0.026785687499994992,"midi":0,"time":136.58022056250002,"velocity":0.12598425196850394},{"duration":0.026785687499994992,"midi":0,"time":136.71414900000002,"velocity":0.12598425196850394},{"duration":0.026785687499994992,"midi":0,"time":136.71414900000002,"velocity":0.12598425196850394},{"duration":0.026785687499994992,"midi":0,"time":136.74093468750002,"velocity":0.12598425196850394},{"duration":0.026785687499994992,"midi":0,"time":136.74093468750002,"velocity":0.12598425196850394},{"duration":0.026785687499994992,"midi":0,"time":136.767720375,"velocity":0.12598425196850394},{"duration":0.026785687499994992,"midi":0,"time":136.767720375,"velocity":0.12598425196850394},{"duration":0.026785687499994992,"midi":0,"time":136.7945060625,"velocity":0.12598425196850394},{"duration":0.026785687499994992,"midi":0,"time":136.7945060625,"velocity":0.12598425196850394},{"duration":0.026785687500023414,"midi":0,"time":136.82129175,"velocity":0.12598425196850394},{"duration":0.026785687500023414,"midi":0,"time":136.82129175,"velocity":0.12598425196850394},{"duration":0.026785687499994992,"midi":0,"time":136.84807743750002,"velocity":0.12598425196850394},{"duration":0.026785687499994992,"midi":0,"time":136.84807743750002,"velocity":0.12598425196850394},{"duration":0.026785687499994992,"midi":0,"time":136.87486312500002,"velocity":0.12598425196850394},{"duration":0.026785687499994992,"midi":0,"time":136.87486312500002,"velocity":0.12598425196850394},{"duration":0.026785687499994992,"midi":0,"time":136.9016488125,"velocity":0.12598425196850394},{"duration":0.026785687499994992,"midi":0,"time":136.9016488125,"velocity":0.12598425196850394},{"duration":0.026785687499994992,"midi":0,"time":136.9284345,"velocity":0.12598425196850394},{"duration":0.026785687499994992,"midi":0,"time":136.9284345,"velocity":0.12598425196850394},{"duration":0.026785687499994992,"midi":0,"time":136.9552201875,"velocity":0.12598425196850394},{"duration":0.026785687499994992,"midi":0,"time":136.9552201875,"velocity":0.12598425196850394},{"duration":0.026785687500023414,"midi":0,"time":136.982005875,"velocity":0.12598425196850394},{"duration":0.026785687500023414,"midi":0,"time":136.982005875,"velocity":0.12598425196850394},{"duration":0.026785687499994992,"midi":0,"time":137.00879156250002,"velocity":0.12598425196850394},{"duration":0.026785687499994992,"midi":0,"time":137.00879156250002,"velocity":0.12598425196850394}]},{"instrument":{"family":"drums","number":255},"notes":[{"duration":0.10714275000000001,"midi":49,"time":0,"velocity":0.4409448818897638},{"duration":0.10714275000000001,"midi":35,"time":0,"velocity":0.1732283464566929},{"duration":0.1071427500000004,"midi":35,"time":6.857136000000001,"velocity":0.1732283464566929},{"duration":0.1071427500000004,"midi":49,"time":6.857136000000001,"velocity":0.4409448818897638},{"duration":0.10714274999999951,"midi":46,"time":12.428559000000002,"velocity":0.25984251968503935},{"duration":0.10714274999999951,"midi":57,"time":12.428559000000002,"velocity":0.25984251968503935},{"duration":0.10714274999999951,"midi":52,"time":12.428559000000002,"velocity":0.25984251968503935},{"duration":0.10714274999999951,"midi":46,"time":12.535701750000001,"velocity":0.25984251968503935},{"duration":0.10714274999999951,"midi":57,"time":12.535701750000001,"velocity":0.25984251968503935},{"duration":0.10714274999999951,"midi":52,"time":12.535701750000001,"velocity":0.25984251968503935},{"duration":0.10714274999999951,"midi":52,"time":12.6428445,"velocity":0.25984251968503935},{"duration":0.10714274999999951,"midi":57,"time":12.6428445,"velocity":0.25984251968503935},{"duration":0.10714274999999951,"midi":46,"time":12.6428445,"velocity":0.25984251968503935},{"duration":0.10714275000000129,"midi":57,"time":12.74998725,"velocity":0.25984251968503935},{"duration":0.10714275000000129,"midi":52,"time":12.74998725,"velocity":0.25984251968503935},{"duration":0.10714275000000129,"midi":46,"time":12.74998725,"velocity":0.25984251968503935},{"duration":0.10714274999999951,"midi":52,"time":12.857130000000002,"velocity":0.6614173228346457},{"duration":0.10714274999999951,"midi":46,"time":12.857130000000002,"velocity":0.6614173228346457},{"duration":0.10714274999999951,"midi":57,"time":12.857130000000002,"velocity":0.6614173228346457},{"duration":0.10714274999999951,"midi":46,"time":12.964272750000001,"velocity":0.6614173228346457},{"duration":0.10714274999999951,"midi":52,"time":12.964272750000001,"velocity":0.6614173228346457},{"duration":0.10714274999999951,"midi":57,"time":12.964272750000001,"velocity":0.6614173228346457},{"duration":0.10714275000000129,"midi":57,"time":13.0714155,"velocity":0.6614173228346457},{"duration":0.10714275000000129,"midi":52,"time":13.0714155,"velocity":0.6614173228346457},{"duration":0.10714275000000129,"midi":46,"time":13.0714155,"velocity":0.6614173228346457},{"duration":0.10714274999999951,"midi":46,"time":13.178558250000002,"velocity":0.6614173228346457},{"duration":0.10714274999999951,"midi":52,"time":13.178558250000002,"velocity":0.6614173228346457},{"duration":0.10714274999999951,"midi":57,"time":13.178558250000002,"velocity":0.6614173228346457},{"duration":0.10714274999999951,"midi":47,"time":13.714272000000001,"velocity":0.1732283464566929},{"duration":0.10714274999999951,"midi":57,"time":13.714272000000001,"velocity":0.4409448818897638},{"duration":0.10714275000000129,"midi":47,"time":27.428544000000002,"velocity":0.1732283464566929},{"duration":0.10714275000000129,"midi":57,"time":27.428544000000002,"velocity":0.4409448818897638},{"duration":0.10714275000000129,"midi":57,"time":44.571384,"velocity":0.25984251968503935},{"duration":0.10714275000000129,"midi":57,"time":45.428526000000005,"velocity":0.25984251968503935},{"duration":0.10714275000000129,"midi":57,"time":46.285668,"velocity":0.25984251968503935},{"duration":0.10714275000000129,"midi":57,"time":51.428520000000006,"velocity":0.25984251968503935},{"duration":0.10714275000000129,"midi":57,"time":52.285662,"velocity":0.25984251968503935},{"duration":0.10714275000000129,"midi":57,"time":53.142804000000005,"velocity":0.25984251968503935},{"duration":0.10714274999999418,"midi":57,"time":82.285632,"velocity":0.4409448818897638},{"duration":0.10714274999999418,"midi":47,"time":82.285632,"velocity":0.1732283464566929},{"duration":0.10714274999999418,"midi":47,"time":109.71417600000001,"velocity":0.1732283464566929},{"duration":0.10714274999999418,"midi":57,"time":109.71417600000001,"velocity":0.4409448818897638}]},{"instrument":{"family":"piano","number":0,"name":"acoustic grand piano"},"notes":[{"duration":1.7142839999999993,"midi":73,"time":54.857088000000005,"velocity":0.29133858267716534},{"duration":1.7142839999999993,"midi":70,"time":54.857088000000005,"velocity":0.29133858267716534},{"duration":1.7142839999999993,"midi":70,"time":56.571372000000004,"velocity":0.29133858267716534},{"duration":1.7142839999999993,"midi":73,"time":56.571372000000004,"velocity":0.29133858267716534},{"duration":1.7142839999999993,"midi":72,"time":58.285656,"velocity":0.29133858267716534},{"duration":1.7142839999999993,"midi":75,"time":58.285656,"velocity":0.29133858267716534},{"duration":1.7142839999999993,"midi":73,"time":59.99994,"velocity":0.29133858267716534},{"duration":1.7142839999999993,"midi":70,"time":59.99994,"velocity":0.29133858267716534},{"duration":1.7142840000000064,"midi":70,"time":61.714224,"velocity":0.29133858267716534},{"duration":1.7142840000000064,"midi":73,"time":61.714224,"velocity":0.29133858267716534},{"duration":1.7142839999999921,"midi":70,"time":63.42850800000001,"velocity":0.29133858267716534},{"duration":1.7142839999999921,"midi":73,"time":63.42850800000001,"velocity":0.29133858267716534},{"duration":1.7142840000000064,"midi":72,"time":65.142792,"velocity":0.29133858267716534},{"duration":1.7142840000000064,"midi":75,"time":65.142792,"velocity":0.29133858267716534},{"duration":1.7142839999999921,"midi":73,"time":66.857076,"velocity":0.29133858267716534},{"duration":1.7142839999999921,"midi":70,"time":66.857076,"velocity":0.29133858267716534},{"duration":1.7142840000000064,"midi":70,"time":68.57136,"velocity":0.29133858267716534},{"duration":1.7142840000000064,"midi":73,"time":68.57136,"velocity":0.29133858267716534},{"duration":1.7142840000000064,"midi":73,"time":70.285644,"velocity":0.29133858267716534},{"duration":1.7142840000000064,"midi":70,"time":70.285644,"velocity":0.29133858267716534},{"duration":1.7142839999999921,"midi":72,"time":71.99992800000001,"velocity":0.29133858267716534},{"duration":1.7142839999999921,"midi":75,"time":71.99992800000001,"velocity":0.29133858267716534},{"duration":1.7142840000000064,"midi":70,"time":73.714212,"velocity":0.29133858267716534},{"duration":1.7142840000000064,"midi":73,"time":73.714212,"velocity":0.29133858267716534},{"duration":1.7142839999999921,"midi":73,"time":75.42849600000001,"velocity":0.29133858267716534},{"duration":1.7142839999999921,"midi":70,"time":75.42849600000001,"velocity":0.29133858267716534},{"duration":1.7142840000000064,"midi":70,"time":77.14278,"velocity":0.29133858267716534},{"duration":1.7142840000000064,"midi":73,"time":77.14278,"velocity":0.29133858267716534},{"duration":1.7142839999999921,"midi":75,"time":78.85706400000001,"velocity":0.29133858267716534},{"duration":1.7142839999999921,"midi":72,"time":78.85706400000001,"velocity":0.29133858267716534},{"duration":1.7142840000000064,"midi":73,"time":80.571348,"velocity":0.29133858267716534},{"duration":1.7142840000000064,"midi":70,"time":80.571348,"velocity":0.29133858267716534},{"duration":0.21428550000000257,"midi":82,"time":123.428448,"velocity":0.29133858267716534},{"duration":0.21428550000000257,"midi":75,"time":123.428448,"velocity":0.29133858267716534},{"duration":0.10714275000000839,"midi":75,"time":123.6427335,"velocity":0.1732283464566929},{"duration":0.10714275000000839,"midi":82,"time":123.6427335,"velocity":0.1732283464566929},{"duration":0.21428550000000257,"midi":82,"time":123.74987625000001,"velocity":0.29133858267716534},{"duration":0.21428550000000257,"midi":75,"time":123.74987625000001,"velocity":0.29133858267716534},{"duration":0.10714274999999418,"midi":82,"time":123.96416175000002,"velocity":0.1732283464566929},{"duration":0.10714274999999418,"midi":75,"time":123.96416175000002,"velocity":0.1732283464566929},{"duration":0.21428550000000257,"midi":75,"time":124.07130450000001,"velocity":0.29133858267716534},{"duration":0.21428550000000257,"midi":82,"time":124.07130450000001,"velocity":0.29133858267716534},{"duration":0.10714274999999418,"midi":82,"time":124.28559000000001,"velocity":0.29133858267716534},{"duration":0.10714274999999418,"midi":75,"time":124.28559000000001,"velocity":0.29133858267716534},{"duration":0.21428550000000257,"midi":75,"time":124.39273275000001,"velocity":0.1732283464566929},{"duration":0.21428550000000257,"midi":82,"time":124.39273275000001,"velocity":0.1732283464566929},{"duration":0.10714274999999418,"midi":82,"time":124.60701825000001,"velocity":0.29133858267716534},{"duration":0.10714274999999418,"midi":75,"time":124.60701825000001,"velocity":0.29133858267716534},{"duration":0.21428550000000257,"midi":82,"time":124.714161,"velocity":0.1732283464566929},{"duration":0.21428550000000257,"midi":75,"time":124.714161,"velocity":0.1732283464566929},{"duration":0.21428550000000257,"midi":82,"time":124.9284465,"velocity":0.29133858267716534},{"duration":0.21428550000000257,"midi":75,"time":124.9284465,"velocity":0.29133858267716534},{"duration":0.21428550000000257,"midi":75,"time":125.14273200000001,"velocity":0.29133858267716534},{"duration":0.21428550000000257,"midi":82,"time":125.14273200000001,"velocity":0.29133858267716534},{"duration":0.10714274999999418,"midi":82,"time":125.35701750000001,"velocity":0.1732283464566929},{"duration":0.10714274999999418,"midi":75,"time":125.35701750000001,"velocity":0.1732283464566929},{"duration":0.21428550000000257,"midi":75,"time":125.46416025,"velocity":0.29133858267716534},{"duration":0.21428550000000257,"midi":82,"time":125.46416025,"velocity":0.29133858267716534},{"duration":0.10714275000000839,"midi":75,"time":125.67844575000001,"velocity":0.1732283464566929},{"duration":0.10714275000000839,"midi":82,"time":125.67844575000001,"velocity":0.1732283464566929},{"duration":0.21428549999998836,"midi":75,"time":125.78558850000002,"velocity":0.29133858267716534},{"duration":0.21428549999998836,"midi":82,"time":125.78558850000002,"velocity":0.29133858267716534},{"duration":0.32142825000001096,"midi":84,"time":125.999874,"velocity":0.29133858267716534},{"duration":0.32142825000001096,"midi":77,"time":125.999874,"velocity":0.29133858267716534},{"duration":0.32142824999999675,"midi":80,"time":126.32130225000002,"velocity":0.29133858267716534},{"duration":0.32142824999999675,"midi":73,"time":126.32130225000002,"velocity":0.29133858267716534},{"duration":0.21428550000000257,"midi":81,"time":126.64273050000001,"velocity":0.29133858267716534},{"duration":0.21428550000000257,"midi":74,"time":126.64273050000001,"velocity":0.29133858267716534},{"duration":0.21428549999998836,"midi":75,"time":126.85701600000002,"velocity":0.29133858267716534},{"duration":0.21428549999998836,"midi":82,"time":126.85701600000002,"velocity":0.29133858267716534},{"duration":0.10714275000000839,"midi":75,"time":127.0713015,"velocity":0.1732283464566929},{"duration":0.10714275000000839,"midi":82,"time":127.0713015,"velocity":0.1732283464566929},{"duration":0.21428550000000257,"midi":82,"time":127.17844425000001,"velocity":0.29133858267716534},{"duration":0.21428550000000257,"midi":75,"time":127.17844425000001,"velocity":0.29133858267716534},{"duration":0.10714274999999418,"midi":82,"time":127.39272975000002,"velocity":0.1732283464566929},{"duration":0.10714274999999418,"midi":75,"time":127.39272975000002,"velocity":0.1732283464566929},{"duration":0.21428550000000257,"midi":82,"time":127.49987250000001,"velocity":0.29133858267716534},{"duration":0.21428550000000257,"midi":75,"time":127.49987250000001,"velocity":0.29133858267716534},{"duration":0.10714274999999418,"midi":75,"time":127.71415800000001,"velocity":0.29133858267716534},{"duration":0.10714274999999418,"midi":82,"time":127.71415800000001,"velocity":0.29133858267716534},{"duration":0.21428550000001678,"midi":82,"time":127.82130075,"velocity":0.1732283464566929},{"duration":0.21428550000001678,"midi":75,"time":127.82130075,"velocity":0.1732283464566929},{"duration":0.10714274999997997,"midi":82,"time":128.03558625000002,"velocity":0.29133858267716534},{"duration":0.10714274999997997,"midi":75,"time":128.03558625000002,"velocity":0.29133858267716534},{"duration":0.21428550000001678,"midi":75,"time":128.142729,"velocity":0.1732283464566929},{"duration":0.21428550000001678,"midi":82,"time":128.142729,"velocity":0.1732283464566929},{"duration":0.21428549999998836,"midi":82,"time":128.35701450000002,"velocity":0.29133858267716534},{"duration":0.21428549999998836,"midi":75,"time":128.35701450000002,"velocity":0.29133858267716534},{"duration":0.21428550000001678,"midi":75,"time":128.5713,"velocity":0.29133858267716534},{"duration":0.21428550000001678,"midi":81,"time":128.5713,"velocity":0.29133858267716534},{"duration":0.10714274999997997,"midi":75,"time":128.78558550000002,"velocity":0.1732283464566929},{"duration":0.10714274999997997,"midi":81,"time":128.78558550000002,"velocity":0.1732283464566929},{"duration":0.21428550000001678,"midi":81,"time":128.89272825,"velocity":0.29133858267716534},{"duration":0.21428550000001678,"midi":75,"time":128.89272825,"velocity":0.29133858267716534},{"duration":0.10714274999997997,"midi":75,"time":129.10701375000002,"velocity":0.1732283464566929},{"duration":0.10714274999997997,"midi":81,"time":129.10701375000002,"velocity":0.1732283464566929},{"duration":0.42857100000000514,"midi":81,"time":129.2141565,"velocity":0.29133858267716534},{"duration":0.42857100000000514,"midi":75,"time":129.2141565,"velocity":0.29133858267716534},{"duration":0.21428550000001678,"midi":78,"time":129.6427275,"velocity":0.29133858267716534},{"duration":0.21428550000001678,"midi":85,"time":129.6427275,"velocity":0.29133858267716534},{"duration":0.21428549999998836,"midi":77,"time":129.85701300000002,"velocity":0.29133858267716534},{"duration":0.21428549999998836,"midi":84,"time":129.85701300000002,"velocity":0.29133858267716534},{"duration":0.21428549999998836,"midi":82,"time":130.0712985,"velocity":0.29133858267716534},{"duration":0.21428549999998836,"midi":75,"time":130.0712985,"velocity":0.29133858267716534},{"duration":0.21428550000001678,"midi":82,"time":130.285584,"velocity":0.29133858267716534},{"duration":0.21428550000001678,"midi":75,"time":130.285584,"velocity":0.29133858267716534},{"duration":0.10714274999997997,"midi":75,"time":130.49986950000002,"velocity":0.1732283464566929},{"duration":0.10714274999997997,"midi":82,"time":130.49986950000002,"velocity":0.1732283464566929},{"duration":0.21428550000001678,"midi":75,"time":130.60701225,"velocity":0.29133858267716534},{"duration":0.21428550000001678,"midi":82,"time":130.60701225,"velocity":0.29133858267716534},{"duration":0.10714275000000839,"midi":75,"time":130.82129775,"velocity":0.1732283464566929},{"duration":0.10714275000000839,"midi":82,"time":130.82129775,"velocity":0.1732283464566929},{"duration":0.21428549999998836,"midi":75,"time":130.92844050000002,"velocity":0.29133858267716534},{"duration":0.21428549999998836,"midi":82,"time":130.92844050000002,"velocity":0.29133858267716534},{"duration":0.10714275000000839,"midi":82,"time":131.142726,"velocity":0.29133858267716534},{"duration":0.10714275000000839,"midi":75,"time":131.142726,"velocity":0.29133858267716534},{"duration":0.21428549999998836,"midi":82,"time":131.24986875000002,"velocity":0.1732283464566929},{"duration":0.21428549999998836,"midi":75,"time":131.24986875000002,"velocity":0.1732283464566929},{"duration":0.10714275000000839,"midi":75,"time":131.46415425,"velocity":0.29133858267716534},{"duration":0.10714275000000839,"midi":82,"time":131.46415425,"velocity":0.29133858267716534},{"duration":0.21428549999998836,"midi":75,"time":131.57129700000002,"velocity":0.1732283464566929},{"duration":0.21428549999998836,"midi":82,"time":131.57129700000002,"velocity":0.1732283464566929},{"duration":0.21428550000001678,"midi":82,"time":131.7855825,"velocity":0.29133858267716534},{"duration":0.21428550000001678,"midi":75,"time":131.7855825,"velocity":0.29133858267716534},{"duration":0.21428549999998836,"midi":82,"time":131.99986800000002,"velocity":0.29133858267716534},{"duration":0.21428549999998836,"midi":75,"time":131.99986800000002,"velocity":0.29133858267716534},{"duration":0.10714275000000839,"midi":75,"time":132.2141535,"velocity":0.1732283464566929},{"duration":0.10714275000000839,"midi":82,"time":132.2141535,"velocity":0.1732283464566929},{"duration":0.21428549999998836,"midi":75,"time":132.32129625000002,"velocity":0.29133858267716534},{"duration":0.21428549999998836,"midi":82,"time":132.32129625000002,"velocity":0.29133858267716534},{"duration":0.10714275000000839,"midi":82,"time":132.53558175,"velocity":0.1732283464566929},{"duration":0.10714275000000839,"midi":75,"time":132.53558175,"velocity":0.1732283464566929},{"duration":0.21428549999998836,"midi":75,"time":132.6427245,"velocity":0.29133858267716534},{"duration":0.21428549999998836,"midi":82,"time":132.6427245,"velocity":0.29133858267716534},{"duration":0.21428550000001678,"midi":84,"time":132.85701,"velocity":0.29133858267716534},{"duration":0.21428550000001678,"midi":77,"time":132.85701,"velocity":0.29133858267716534},{"duration":0.21428550000001678,"midi":73,"time":133.17843825,"velocity":0.29133858267716534},{"duration":0.21428550000001678,"midi":80,"time":133.17843825,"velocity":0.29133858267716534},{"duration":0.21428549999998836,"midi":81,"time":133.49986650000002,"velocity":0.29133858267716534},{"duration":0.21428549999998836,"midi":74,"time":133.49986650000002,"velocity":0.29133858267716534},{"duration":0.21428549999998836,"midi":75,"time":133.714152,"velocity":0.29133858267716534},{"duration":0.21428549999998836,"midi":82,"time":133.714152,"velocity":0.29133858267716534},{"duration":0.10714275000000839,"midi":82,"time":133.9284375,"velocity":0.1732283464566929},{"duration":0.10714275000000839,"midi":75,"time":133.9284375,"velocity":0.1732283464566929},{"duration":0.21428549999998836,"midi":75,"time":134.03558025,"velocity":0.29133858267716534},{"duration":0.21428549999998836,"midi":82,"time":134.03558025,"velocity":0.29133858267716534},{"duration":0.10714275000000839,"midi":82,"time":134.24986575,"velocity":0.1732283464566929},{"duration":0.10714275000000839,"midi":75,"time":134.24986575,"velocity":0.1732283464566929},{"duration":0.21428550000001678,"midi":82,"time":134.3570085,"velocity":0.29133858267716534},{"duration":0.21428550000001678,"midi":75,"time":134.3570085,"velocity":0.29133858267716534},{"duration":0.10714274999997997,"midi":75,"time":134.57129400000002,"velocity":0.29133858267716534},{"duration":0.10714274999997997,"midi":82,"time":134.57129400000002,"velocity":0.29133858267716534},{"duration":0.21428550000001678,"midi":82,"time":134.67843675,"velocity":0.1732283464566929},{"duration":0.21428550000001678,"midi":75,"time":134.67843675,"velocity":0.1732283464566929},{"duration":0.10714274999997997,"midi":75,"time":134.89272225000002,"velocity":0.29133858267716534},{"duration":0.10714274999997997,"midi":82,"time":134.89272225000002,"velocity":0.29133858267716534},{"duration":0.21428550000001678,"midi":75,"time":134.999865,"velocity":0.1732283464566929},{"duration":0.21428550000001678,"midi":82,"time":134.999865,"velocity":0.1732283464566929},{"duration":0.21428549999998836,"midi":75,"time":135.21415050000002,"velocity":0.29133858267716534},{"duration":0.21428549999998836,"midi":82,"time":135.21415050000002,"velocity":0.29133858267716534},{"duration":0.21428550000001678,"midi":75,"time":135.428436,"velocity":0.29133858267716534},{"duration":0.21428550000001678,"midi":82,"time":135.428436,"velocity":0.29133858267716534},{"duration":0.21428549999998836,"midi":75,"time":135.64272150000002,"velocity":0.29133858267716534},{"duration":0.21428549999998836,"midi":82,"time":135.64272150000002,"velocity":0.29133858267716534},{"duration":0.21428549999998836,"midi":82,"time":135.857007,"velocity":0.29133858267716534},{"duration":0.21428549999998836,"midi":75,"time":135.857007,"velocity":0.29133858267716534},{"duration":0.21428550000001678,"midi":75,"time":136.0712925,"velocity":0.29133858267716534},{"duration":0.21428550000001678,"midi":82,"time":136.0712925,"velocity":0.29133858267716534},{"duration":0.21428549999998836,"midi":75,"time":136.28557800000002,"velocity":0.29133858267716534},{"duration":0.21428549999998836,"midi":82,"time":136.28557800000002,"velocity":0.29133858267716534},{"duration":0.21428550000001678,"midi":82,"time":136.4998635,"velocity":0.29133858267716534},{"duration":0.21428550000001678,"midi":75,"time":136.4998635,"velocity":0.29133858267716534},{"duration":0.21428549999998836,"midi":75,"time":136.71414900000002,"velocity":0.29133858267716534},{"duration":0.21428549999998836,"midi":82,"time":136.71414900000002,"velocity":0.29133858267716534},{"duration":0.21428549999998836,"midi":75,"time":136.9284345,"velocity":0.29133858267716534},{"duration":0.21428549999998836,"midi":82,"time":136.9284345,"velocity":0.29133858267716534}]},{"instrument":{"family":"strings","number":42,"name":"cello"},"notes":[{"duration":0.10714274999999951,"midi":46,"time":13.714272000000001,"velocity":0.3937007874015748},{"duration":0.10714274999999951,"midi":46,"time":14.035700250000001,"velocity":0.3937007874015748},{"duration":0.10714274999999951,"midi":44,"time":14.357128500000002,"velocity":0.3937007874015748},{"duration":0.10714275000000129,"midi":46,"time":14.571414,"velocity":0.3937007874015748},{"duration":0.10714274999999951,"midi":46,"time":14.892842250000001,"velocity":0.3937007874015748},{"duration":0.10714274999999951,"midi":44,"time":15.214270500000001,"velocity":0.3937007874015748},{"duration":0.10714275000000129,"midi":46,"time":15.428556,"velocity":0.3937007874015748},{"duration":0.10714275000000129,"midi":46,"time":15.74998425,"velocity":0.3937007874015748},{"duration":0.10714275000000129,"midi":44,"time":16.0714125,"velocity":0.3937007874015748},{"duration":0.10714275000000129,"midi":49,"time":16.285698,"velocity":0.3937007874015748},{"duration":0.10714274999999773,"midi":46,"time":16.499983500000003,"velocity":0.3937007874015748},{"duration":0.10714275000000129,"midi":49,"time":16.60712625,"velocity":0.3937007874015748},{"duration":0.10714275000000129,"midi":51,"time":16.714269,"velocity":0.3937007874015748},{"duration":0.10714275000000129,"midi":44,"time":16.9285545,"velocity":0.3937007874015748},{"duration":0.10714274999999773,"midi":49,"time":17.035697250000002,"velocity":0.3937007874015748},{"duration":0.10714275000000129,"midi":46,"time":17.14284,"velocity":0.3937007874015748},{"duration":0.10714275000000129,"midi":46,"time":17.46426825,"velocity":0.3937007874015748},{"duration":0.10714275000000129,"midi":44,"time":17.7856965,"velocity":0.3937007874015748},{"duration":0.10714274999999773,"midi":46,"time":17.999982000000003,"velocity":0.3937007874015748},{"duration":0.10714274999999773,"midi":46,"time":18.321410250000003,"velocity":0.3937007874015748},{"duration":0.10714275000000129,"midi":44,"time":18.6428385,"velocity":0.3937007874015748},{"duration":0.10714274999999773,"midi":46,"time":18.857124000000002,"velocity":0.3937007874015748},{"duration":0.10714274999999773,"midi":46,"time":19.178552250000003,"velocity":0.3937007874015748},{"duration":0.10714274999999773,"midi":44,"time":19.499980500000003,"velocity":0.3937007874015748},{"duration":0.10714275000000129,"midi":52,"time":19.714266000000002,"velocity":0.3937007874015748},{"duration":0.10714275000000129,"midi":51,"time":20.142837,"velocity":0.3937007874015748},{"duration":0.10714275000000129,"midi":46,"time":20.571408,"velocity":0.3937007874015748},{"duration":0.10714275000000129,"midi":46,"time":20.892836250000002,"velocity":0.3937007874015748},{"duration":0.10714274999999773,"midi":44,"time":21.214264500000002,"velocity":0.3937007874015748},{"duration":0.10714275000000129,"midi":46,"time":21.42855,"velocity":0.3937007874015748},{"duration":0.10714275000000129,"midi":46,"time":21.74997825,"velocity":0.3937007874015748},{"duration":0.10714275000000129,"midi":44,"time":22.071406500000002,"velocity":0.3937007874015748},{"duration":0.10714275000000129,"midi":46,"time":22.285692,"velocity":0.3937007874015748},{"duration":0.10714275000000129,"midi":46,"time":22.60712025,"velocity":0.3937007874015748},{"duration":0.10714275000000129,"midi":44,"time":22.9285485,"velocity":0.3937007874015748},{"duration":0.10714275000000129,"midi":49,"time":23.142834,"velocity":0.3937007874015748},{"duration":0.10714274999999773,"midi":46,"time":23.357119500000003,"velocity":0.3937007874015748},{"duration":0.10714275000000129,"midi":49,"time":23.46426225,"velocity":0.3937007874015748},{"duration":0.10714275000000129,"midi":51,"time":23.571405000000002,"velocity":0.3937007874015748},{"duration":0.10714275000000129,"midi":44,"time":23.7856905,"velocity":0.3937007874015748},{"duration":0.10714275000000129,"midi":49,"time":23.892833250000002,"velocity":0.3937007874015748},{"duration":0.10714274999999773,"midi":46,"time":23.999976000000004,"velocity":0.3937007874015748},{"duration":0.10714275000000129,"midi":46,"time":24.32140425,"velocity":0.3937007874015748},{"duration":0.10714275000000129,"midi":44,"time":24.6428325,"velocity":0.3937007874015748},{"duration":0.10714274999999773,"midi":46,"time":24.857118000000003,"velocity":0.3937007874015748},{"duration":0.10714274999999773,"midi":46,"time":25.178546250000004,"velocity":0.3937007874015748},{"duration":0.10714275000000129,"midi":44,"time":25.4999745,"velocity":0.3937007874015748},{"duration":0.10714274999999773,"midi":46,"time":25.714260000000003,"velocity":0.3937007874015748},{"duration":0.10714274999999773,"midi":46,"time":26.035688250000003,"velocity":0.3937007874015748},{"duration":0.10714274999999773,"midi":44,"time":26.357116500000004,"velocity":0.3937007874015748},{"duration":0.10714275000000129,"midi":52,"time":26.571402000000003,"velocity":0.3937007874015748},{"duration":0.10714275000000129,"midi":51,"time":26.999973,"velocity":0.3937007874015748},{"duration":0.10714275000000129,"midi":46,"time":27.428544000000002,"velocity":0.3937007874015748},{"duration":0.10714275000000129,"midi":46,"time":27.749972250000003,"velocity":0.3937007874015748},{"duration":0.10714274999999773,"midi":44,"time":28.071400500000003,"velocity":0.3937007874015748},{"duration":0.10714275000000129,"midi":46,"time":28.285686000000002,"velocity":0.3937007874015748},{"duration":0.10714275000000129,"midi":46,"time":28.607114250000002,"velocity":0.3937007874015748},{"duration":0.10714275000000129,"midi":44,"time":28.928542500000002,"velocity":0.3937007874015748},{"duration":0.10714275000000129,"midi":46,"time":29.142828,"velocity":0.3937007874015748},{"duration":0.10714275000000129,"midi":46,"time":29.464256250000002,"velocity":0.3937007874015748},{"duration":0.10714275000000129,"midi":44,"time":29.785684500000002,"velocity":0.3937007874015748},{"duration":0.10714275000000129,"midi":49,"time":29.99997,"velocity":0.3937007874015748},{"duration":0.10714274999999773,"midi":46,"time":30.214255500000004,"velocity":0.3937007874015748},{"duration":0.10714275000000129,"midi":49,"time":30.32139825,"velocity":0.3937007874015748},{"duration":0.10714275000000129,"midi":51,"time":30.428541000000003,"velocity":0.3937007874015748},{"duration":0.10714275000000129,"midi":44,"time":30.6428265,"velocity":0.3937007874015748},{"duration":0.10714274999999773,"midi":49,"time":30.749969250000003,"velocity":0.3937007874015748},{"duration":0.10714275000000129,"midi":46,"time":30.857112,"velocity":0.3937007874015748},{"duration":0.10714275000000129,"midi":46,"time":31.17854025,"velocity":0.3937007874015748},{"duration":0.10714275000000129,"midi":44,"time":31.4999685,"velocity":0.3937007874015748},{"duration":0.10714274999999773,"midi":46,"time":31.714254000000004,"velocity":0.3937007874015748},{"duration":0.10714275000000129,"midi":46,"time":32.03568225,"velocity":0.3937007874015748},{"duration":0.10714275000000129,"midi":44,"time":32.357110500000005,"velocity":0.3937007874015748},{"duration":0.10714275000000129,"midi":46,"time":32.571396,"velocity":0.3937007874015748},{"duration":0.10714275000000129,"midi":46,"time":32.892824250000004,"velocity":0.3937007874015748},{"duration":0.10714275000000129,"midi":44,"time":33.2142525,"velocity":0.3937007874015748},{"duration":0.10714275000000129,"midi":52,"time":33.428538,"velocity":0.3937007874015748},{"duration":0.10714275000000129,"midi":51,"time":33.857109,"velocity":0.3937007874015748},{"duration":0.10714275000000129,"midi":46,"time":34.28568,"velocity":0.3937007874015748},{"duration":0.10714275000000129,"midi":46,"time":34.60710825,"velocity":0.3937007874015748},{"duration":0.10714275000000129,"midi":44,"time":34.9285365,"velocity":0.3937007874015748},{"duration":0.10714275000000129,"midi":46,"time":35.142822,"velocity":0.3937007874015748},{"duration":0.10714274999999418,"midi":46,"time":35.464250250000006,"velocity":0.3937007874015748},{"duration":0.10714275000000129,"midi":44,"time":35.7856785,"velocity":0.3937007874015748},{"duration":0.10714274999999418,"midi":46,"time":35.999964000000006,"velocity":0.3937007874015748},{"duration":0.10714275000000129,"midi":46,"time":36.32139225,"velocity":0.3937007874015748},{"duration":0.10714274999999418,"midi":44,"time":36.642820500000006,"velocity":0.3937007874015748},{"duration":0.10714275000000129,"midi":49,"time":36.857106,"velocity":0.3937007874015748},{"duration":0.10714275000000129,"midi":46,"time":37.071391500000004,"velocity":0.3937007874015748},{"duration":0.10714274999999418,"midi":49,"time":37.178534250000006,"velocity":0.3937007874015748},{"duration":0.10714275000000129,"midi":51,"time":37.285677,"velocity":0.3937007874015748},{"duration":0.10714275000000129,"midi":44,"time":37.4999625,"velocity":0.3937007874015748},{"duration":0.10714275000000129,"midi":49,"time":37.607105250000004,"velocity":0.3937007874015748},{"duration":0.10714275000000129,"midi":46,"time":37.714248000000005,"velocity":0.3937007874015748},{"duration":0.10714275000000129,"midi":46,"time":38.03567625,"velocity":0.3937007874015748},{"duration":0.10714274999999418,"midi":44,"time":38.357104500000005,"velocity":0.3937007874015748},{"duration":0.10714275000000129,"midi":46,"time":38.57139,"velocity":0.3937007874015748},{"duration":0.10714275000000129,"midi":46,"time":38.892818250000005,"velocity":0.3937007874015748},{"duration":0.10714275000000129,"midi":44,"time":39.2142465,"velocity":0.3937007874015748},{"duration":0.10714275000000129,"midi":46,"time":39.428532000000004,"velocity":0.3937007874015748},{"duration":0.10714275000000129,"midi":46,"time":39.74996025,"velocity":0.3937007874015748},{"duration":0.10714275000000129,"midi":44,"time":40.071388500000005,"velocity":0.3937007874015748},{"duration":0.10714275000000129,"midi":52,"time":40.285674,"velocity":0.3937007874015748},{"duration":0.10714275000000129,"midi":51,"time":40.714245000000005,"velocity":0.3937007874015748},{"duration":0.10714275000000129,"midi":46,"time":41.142816,"velocity":0.3937007874015748},{"duration":0.10714275000000129,"midi":46,"time":41.46424425,"velocity":0.3937007874015748},{"duration":0.10714275000000129,"midi":44,"time":41.785672500000004,"velocity":0.3937007874015748},{"duration":0.10714274999999418,"midi":49,"time":41.99995800000001,"velocity":0.3937007874015748},{"duration":0.10714275000000129,"midi":49,"time":42.32138625,"velocity":0.3937007874015748},{"duration":0.10714275000000129,"midi":44,"time":42.6428145,"velocity":0.3937007874015748},{"duration":0.10714275000000129,"midi":48,"time":42.8571,"velocity":0.3937007874015748},{"duration":0.10714274999999418,"midi":48,"time":43.17852825000001,"velocity":0.3937007874015748},{"duration":0.10714275000000129,"midi":41,"time":43.4999565,"velocity":0.3937007874015748},{"duration":0.10714275000000129,"midi":52,"time":43.714242000000006,"velocity":0.3937007874015748},{"duration":0.10714275000000129,"midi":52,"time":44.03567025,"velocity":0.3937007874015748},{"duration":0.10714274999999418,"midi":51,"time":44.357098500000006,"velocity":0.3937007874015748},{"duration":0.10714275000000129,"midi":49,"time":44.571384,"velocity":0.3937007874015748},{"duration":0.10714275000000129,"midi":46,"time":44.892812250000006,"velocity":0.3937007874015748},{"duration":0.10714275000000129,"midi":49,"time":45.428526000000005,"velocity":0.3937007874015748},{"duration":0.10714275000000129,"midi":46,"time":45.74995425,"velocity":0.3937007874015748},{"duration":0.10714275000000129,"midi":49,"time":46.285668,"velocity":0.3937007874015748},{"duration":0.10714275000000129,"midi":46,"time":46.607096250000005,"velocity":0.3937007874015748},{"duration":0.10714275000000129,"midi":41,"time":46.9285245,"velocity":0.3937007874015748},{"duration":0.10714275000000129,"midi":49,"time":47.142810000000004,"velocity":0.3937007874015748},{"duration":0.10714275000000129,"midi":51,"time":47.571381,"velocity":0.3937007874015748},{"duration":0.10714274999999418,"midi":46,"time":47.99995200000001,"velocity":0.3937007874015748},{"duration":0.10714275000000129,"midi":46,"time":48.321380250000004,"velocity":0.3937007874015748},{"duration":0.10714275000000129,"midi":44,"time":48.6428085,"velocity":0.3937007874015748},{"duration":0.10714275000000129,"midi":49,"time":48.857094000000004,"velocity":0.3937007874015748},{"duration":0.10714274999999418,"midi":49,"time":49.17852225000001,"velocity":0.3937007874015748},{"duration":0.10714275000000129,"midi":44,"time":49.499950500000004,"velocity":0.3937007874015748},{"duration":0.10714274999999418,"midi":48,"time":49.71423600000001,"velocity":0.3937007874015748},{"duration":0.10714275000000129,"midi":48,"time":50.03566425,"velocity":0.3937007874015748},{"duration":0.10714274999999418,"midi":41,"time":50.35709250000001,"velocity":0.3937007874015748},{"duration":0.10714275000000129,"midi":52,"time":50.571378,"velocity":0.3937007874015748},{"duration":0.10714274999999418,"midi":52,"time":50.89280625000001,"velocity":0.3937007874015748},{"duration":0.10714275000000129,"midi":51,"time":51.2142345,"velocity":0.3937007874015748},{"duration":0.10714275000000129,"midi":49,"time":51.428520000000006,"velocity":0.3937007874015748},{"duration":0.10714275000000129,"midi":46,"time":51.74994825,"velocity":0.3937007874015748},{"duration":0.10714275000000129,"midi":49,"time":52.285662,"velocity":0.3937007874015748},{"duration":0.10714275000000129,"midi":46,"time":52.607090250000006,"velocity":0.3937007874015748},{"duration":0.10714275000000129,"midi":49,"time":53.142804000000005,"velocity":0.3937007874015748},{"duration":0.10714275000000129,"midi":46,"time":53.46423225,"velocity":0.3937007874015748},{"duration":0.10714275000000129,"midi":41,"time":53.785660500000006,"velocity":0.3937007874015748},{"duration":0.10714275000000129,"midi":49,"time":53.999946,"velocity":0.3937007874015748},{"duration":0.10714275000000129,"midi":51,"time":54.42851700000001,"velocity":0.3937007874015748},{"duration":0.10714275000000129,"midi":46,"time":54.857088000000005,"velocity":0.3937007874015748},{"duration":0.10714275000000129,"midi":46,"time":55.17851625,"velocity":0.3937007874015748},{"duration":0.10714275000000129,"midi":44,"time":55.499944500000005,"velocity":0.3937007874015748},{"duration":0.10714274999999418,"midi":46,"time":55.71423000000001,"velocity":0.3937007874015748},{"duration":0.10714275000000129,"midi":46,"time":56.035658250000004,"velocity":0.3937007874015748},{"duration":0.10714275000000129,"midi":44,"time":56.3570865,"velocity":0.3937007874015748},{"duration":0.10714275000000129,"midi":46,"time":56.571372000000004,"velocity":0.3937007874015748},{"duration":0.10714274999999418,"midi":46,"time":56.89280025000001,"velocity":0.3937007874015748},{"duration":0.10714275000000129,"midi":44,"time":57.214228500000004,"velocity":0.3937007874015748},{"duration":0.10714275000000129,"midi":49,"time":57.42851400000001,"velocity":0.3937007874015748},{"duration":0.10714275000000129,"midi":46,"time":57.6427995,"velocity":0.3937007874015748},{"duration":0.10714275000000129,"midi":49,"time":57.749942250000004,"velocity":0.3937007874015748},{"duration":0.10714275000000129,"midi":51,"time":57.857085000000005,"velocity":0.3937007874015748},{"duration":0.10714274999999418,"midi":44,"time":58.07137050000001,"velocity":0.3937007874015748},{"duration":0.10714275000000129,"midi":49,"time":58.17851325,"velocity":0.3937007874015748},{"duration":0.10714275000000129,"midi":46,"time":58.285656,"velocity":0.3937007874015748},{"duration":0.10714275000000129,"midi":46,"time":58.60708425000001,"velocity":0.3937007874015748},{"duration":0.10714275000000129,"midi":44,"time":58.928512500000004,"velocity":0.3937007874015748},{"duration":0.10714275000000129,"midi":46,"time":59.142798000000006,"velocity":0.3937007874015748},{"duration":0.10714275000000129,"midi":46,"time":59.46422625,"velocity":0.3937007874015748},{"duration":0.10714275000000129,"midi":44,"time":59.78565450000001,"velocity":0.3937007874015748},{"duration":0.10714275000000129,"midi":46,"time":59.99994,"velocity":0.3937007874015748},{"duration":0.10714275000000129,"midi":46,"time":60.321368250000006,"velocity":0.3937007874015748},{"duration":0.10714275000000129,"midi":44,"time":60.6427965,"velocity":0.3937007874015748},{"duration":0.10714275000000129,"midi":52,"time":60.857082000000005,"velocity":0.3937007874015748},{"duration":0.10714275000000129,"midi":51,"time":61.285653,"velocity":0.3937007874015748},{"duration":0.10714275000000129,"midi":46,"time":61.714224,"velocity":0.3937007874015748},{"duration":0.10714275000000129,"midi":46,"time":62.035652250000005,"velocity":0.3937007874015748},{"duration":0.10714275000000129,"midi":44,"time":62.3570805,"velocity":0.3937007874015748},{"duration":0.10714275000000129,"midi":46,"time":62.571366000000005,"velocity":0.3937007874015748},{"duration":0.10714274999999418,"midi":46,"time":62.89279425000001,"velocity":0.3937007874015748},{"duration":0.10714275000000129,"midi":44,"time":63.214222500000005,"velocity":0.3937007874015748},{"duration":0.10714274999999418,"midi":46,"time":63.42850800000001,"velocity":0.3937007874015748},{"duration":0.10714275000000129,"midi":46,"time":63.749936250000005,"velocity":0.3937007874015748},{"duration":0.10714275000000839,"midi":44,"time":64.0713645,"velocity":0.3937007874015748},{"duration":0.10714275000000839,"midi":49,"time":64.28565,"velocity":0.3937007874015748},{"duration":0.10714274999999418,"midi":46,"time":64.4999355,"velocity":0.3937007874015748},{"duration":0.10714275000000839,"midi":49,"time":64.60707825,"velocity":0.3937007874015748},{"duration":0.10714274999999418,"midi":51,"time":64.71422100000001,"velocity":0.3937007874015748},{"duration":0.10714274999999418,"midi":44,"time":64.92850650000001,"velocity":0.3937007874015748},{"duration":0.10714274999999418,"midi":49,"time":65.03564925,"velocity":0.3937007874015748},{"duration":0.10714275000000839,"midi":46,"time":65.142792,"velocity":0.3937007874015748},{"duration":0.10714274999999418,"midi":46,"time":65.46422025000001,"velocity":0.3937007874015748},{"duration":0.10714274999999418,"midi":44,"time":65.78564850000001,"velocity":0.3937007874015748},{"duration":0.10714274999999418,"midi":46,"time":65.99993400000001,"velocity":0.3937007874015748},{"duration":0.10714274999999418,"midi":46,"time":66.32136225,"velocity":0.3937007874015748},{"duration":0.10714275000000839,"midi":44,"time":66.6427905,"velocity":0.3937007874015748},{"duration":0.10714274999999418,"midi":46,"time":66.857076,"velocity":0.3937007874015748},{"duration":0.10714275000000839,"midi":46,"time":67.17850425,"velocity":0.3937007874015748},{"duration":0.10714275000000839,"midi":44,"time":67.4999325,"velocity":0.3937007874015748},{"duration":0.10714275000000839,"midi":52,"time":67.714218,"velocity":0.3937007874015748},{"duration":0.10714274999999418,"midi":51,"time":68.14278900000001,"velocity":0.3937007874015748},{"duration":0.10714275000000839,"midi":46,"time":68.57136,"velocity":0.3937007874015748},{"duration":0.10714274999999418,"midi":46,"time":68.89278825000001,"velocity":0.3937007874015748},{"duration":0.10714274999999418,"midi":44,"time":69.2142165,"velocity":0.3937007874015748},{"duration":0.10714274999999418,"midi":46,"time":69.42850200000001,"velocity":0.3937007874015748},{"duration":0.10714274999999418,"midi":46,"time":69.74993025,"velocity":0.3937007874015748},{"duration":0.10714275000000839,"midi":44,"time":70.0713585,"velocity":0.3937007874015748},{"duration":0.10714274999999418,"midi":46,"time":70.285644,"velocity":0.3937007874015748},{"duration":0.10714275000000839,"midi":46,"time":70.60707225,"velocity":0.3937007874015748},{"duration":0.10714274999999418,"midi":44,"time":70.92850050000001,"velocity":0.3937007874015748},{"duration":0.10714275000000839,"midi":49,"time":71.142786,"velocity":0.3937007874015748},{"duration":0.10714275000000839,"midi":46,"time":71.3570715,"velocity":0.3937007874015748},{"duration":0.10714274999999418,"midi":49,"time":71.46421425000001,"velocity":0.3937007874015748},{"duration":0.10714274999999418,"midi":51,"time":71.571357,"velocity":0.3937007874015748},{"duration":0.10714274999999418,"midi":44,"time":71.78564250000001,"velocity":0.3937007874015748},{"duration":0.10714275000000839,"midi":49,"time":71.89278525,"velocity":0.3937007874015748},{"duration":0.10714274999999418,"midi":46,"time":71.99992800000001,"velocity":0.3937007874015748},{"duration":0.10714274999999418,"midi":46,"time":72.32135625000001,"velocity":0.3937007874015748},{"duration":0.10714274999999418,"midi":44,"time":72.6427845,"velocity":0.3937007874015748},{"duration":0.10714274999999418,"midi":46,"time":72.85707000000001,"velocity":0.3937007874015748},{"duration":0.10714275000000839,"midi":46,"time":73.17849825,"velocity":0.3937007874015748},{"duration":0.10714275000000839,"midi":44,"time":73.4999265,"velocity":0.3937007874015748},{"duration":0.10714275000000839,"midi":46,"time":73.714212,"velocity":0.3937007874015748},{"duration":0.10714275000000839,"midi":46,"time":74.03564025,"velocity":0.3937007874015748},{"duration":0.10714274999999418,"midi":44,"time":74.35706850000001,"velocity":0.3937007874015748},{"duration":0.10714275000000839,"midi":52,"time":74.571354,"velocity":0.3937007874015748},{"duration":0.10714275000000839,"midi":51,"time":74.999925,"velocity":0.3937007874015748},{"duration":0.10714274999999418,"midi":46,"time":75.42849600000001,"velocity":0.3937007874015748},{"duration":0.10714274999999418,"midi":46,"time":75.74992425,"velocity":0.3937007874015748},{"duration":0.10714275000000839,"midi":44,"time":76.0713525,"velocity":0.3937007874015748},{"duration":0.10714274999999418,"midi":46,"time":76.285638,"velocity":0.3937007874015748},{"duration":0.10714275000000839,"midi":46,"time":76.60706625,"velocity":0.3937007874015748},{"duration":0.10714275000000839,"midi":44,"time":76.9284945,"velocity":0.3937007874015748},{"duration":0.10714275000000839,"midi":46,"time":77.14278,"velocity":0.3937007874015748},{"duration":0.10714274999999418,"midi":46,"time":77.46420825000001,"velocity":0.3937007874015748},{"duration":0.10714274999999418,"midi":44,"time":77.78563650000001,"velocity":0.3937007874015748},{"duration":0.10714274999999418,"midi":49,"time":77.99992200000001,"velocity":0.3937007874015748},{"duration":0.10714275000000839,"midi":46,"time":78.2142075,"velocity":0.3937007874015748},{"duration":0.10714274999999418,"midi":49,"time":78.32135025000001,"velocity":0.3937007874015748},{"duration":0.10714275000000839,"midi":51,"time":78.428493,"velocity":0.3937007874015748},{"duration":0.10714274999999418,"midi":44,"time":78.6427785,"velocity":0.3937007874015748},{"duration":0.10714275000000839,"midi":49,"time":78.74992125,"velocity":0.3937007874015748},{"duration":0.10714274999999418,"midi":46,"time":78.85706400000001,"velocity":0.3937007874015748},{"duration":0.10714275000000839,"midi":46,"time":79.17849225,"velocity":0.3937007874015748},{"duration":0.10714275000000839,"midi":44,"time":79.4999205,"velocity":0.3937007874015748},{"duration":0.10714275000000839,"midi":46,"time":79.714206,"velocity":0.3937007874015748},{"duration":0.10714275000000839,"midi":46,"time":80.03563425,"velocity":0.3937007874015748},{"duration":0.10714274999999418,"midi":44,"time":80.35706250000001,"velocity":0.3937007874015748},{"duration":0.10714275000000839,"midi":46,"time":80.571348,"velocity":0.3937007874015748},{"duration":0.10714274999999418,"midi":46,"time":80.89277625000001,"velocity":0.3937007874015748},{"duration":0.10714274999999418,"midi":44,"time":81.21420450000001,"velocity":0.3937007874015748},{"duration":0.10714274999999418,"midi":52,"time":81.42849000000001,"velocity":0.3937007874015748},{"duration":0.10714275000000839,"midi":51,"time":81.857061,"velocity":0.3937007874015748},{"duration":0.10714274999999418,"midi":46,"time":82.285632,"velocity":0.3937007874015748},{"duration":0.10714275000000839,"midi":46,"time":82.60706025,"velocity":0.3937007874015748},{"duration":0.10714275000000839,"midi":44,"time":82.9284885,"velocity":0.3937007874015748},{"duration":0.10714275000000839,"midi":46,"time":83.142774,"velocity":0.3937007874015748},{"duration":0.10714274999999418,"midi":46,"time":83.46420225000001,"velocity":0.3937007874015748},{"duration":0.10714274999999418,"midi":44,"time":83.78563050000001,"velocity":0.3937007874015748},{"duration":0.10714274999999418,"midi":46,"time":83.99991600000001,"velocity":0.3937007874015748},{"duration":0.10714274999999418,"midi":46,"time":84.32134425000001,"velocity":0.3937007874015748},{"duration":0.10714274999999418,"midi":44,"time":84.6427725,"velocity":0.3937007874015748},{"duration":0.10714274999999418,"midi":49,"time":84.85705800000001,"velocity":0.3937007874015748},{"duration":0.10714274999999418,"midi":46,"time":85.07134350000001,"velocity":0.3937007874015748},{"duration":0.10714274999999418,"midi":49,"time":85.17848625,"velocity":0.3937007874015748},{"duration":0.10714275000000839,"midi":51,"time":85.285629,"velocity":0.3937007874015748},{"duration":0.10714275000000839,"midi":44,"time":85.4999145,"velocity":0.3937007874015748},{"duration":0.10714274999999418,"midi":49,"time":85.60705725000001,"velocity":0.3937007874015748},{"duration":0.10714275000000839,"midi":46,"time":85.7142,"velocity":0.3937007874015748},{"duration":0.10714275000000839,"midi":46,"time":86.03562825,"velocity":0.3937007874015748},{"duration":0.10714274999999418,"midi":44,"time":86.35705650000001,"velocity":0.3937007874015748},{"duration":0.10714275000000839,"midi":46,"time":86.571342,"velocity":0.3937007874015748},{"duration":0.10714274999999418,"midi":46,"time":86.89277025000001,"velocity":0.3937007874015748},{"duration":0.10714274999999418,"midi":44,"time":87.21419850000001,"velocity":0.3937007874015748},{"duration":0.10714274999999418,"midi":46,"time":87.42848400000001,"velocity":0.3937007874015748},{"duration":0.10714274999999418,"midi":46,"time":87.74991225000001,"velocity":0.3937007874015748},{"duration":0.10714275000000839,"midi":44,"time":88.0713405,"velocity":0.3937007874015748},{"duration":0.10714274999999418,"midi":52,"time":88.28562600000001,"velocity":0.3937007874015748},{"duration":0.10714274999999418,"midi":51,"time":88.71419700000001,"velocity":0.3937007874015748},{"duration":0.10714275000000839,"midi":46,"time":89.142768,"velocity":0.3937007874015748},{"duration":0.10714275000000839,"midi":46,"time":89.46419625,"velocity":0.3937007874015748},{"duration":0.10714274999999418,"midi":44,"time":89.78562450000001,"velocity":0.3937007874015748},{"duration":0.10714274999999418,"midi":46,"time":89.99991000000001,"velocity":0.3937007874015748},{"duration":0.10714274999999418,"midi":46,"time":90.32133825000001,"velocity":0.3937007874015748},{"duration":0.10714274999999418,"midi":44,"time":90.64276650000001,"velocity":0.3937007874015748},{"duration":0.10714274999999418,"midi":46,"time":90.85705200000001,"velocity":0.3937007874015748},{"duration":0.10714274999999418,"midi":46,"time":91.17848025,"velocity":0.3937007874015748},{"duration":0.10714275000000839,"midi":44,"time":91.4999085,"velocity":0.3937007874015748},{"duration":0.10714275000000839,"midi":49,"time":91.714194,"velocity":0.3937007874015748},{"duration":0.10714274999999418,"midi":46,"time":91.92847950000001,"velocity":0.3937007874015748},{"duration":0.10714275000000839,"midi":49,"time":92.03562225,"velocity":0.3937007874015748},{"duration":0.10714274999999418,"midi":51,"time":92.14276500000001,"velocity":0.3937007874015748},{"duration":0.10714274999999418,"midi":44,"time":92.35705050000001,"velocity":0.3937007874015748},{"duration":0.10714274999999418,"midi":49,"time":92.46419325000001,"velocity":0.3937007874015748},{"duration":0.10714275000000839,"midi":46,"time":92.571336,"velocity":0.3937007874015748},{"duration":0.10714274999999418,"midi":46,"time":92.89276425000001,"velocity":0.3937007874015748},{"duration":0.10714274999999418,"midi":44,"time":93.21419250000001,"velocity":0.3937007874015748},{"duration":0.10714274999999418,"midi":46,"time":93.42847800000001,"velocity":0.3937007874015748},{"duration":0.10714274999999418,"midi":46,"time":93.74990625000001,"velocity":0.3937007874015748},{"duration":0.10714275000000839,"midi":44,"time":94.0713345,"velocity":0.3937007874015748},{"duration":0.10714274999999418,"midi":46,"time":94.28562000000001,"velocity":0.3937007874015748},{"duration":0.10714275000000839,"midi":46,"time":94.60704825,"velocity":0.3937007874015748},{"duration":0.10714275000000839,"midi":44,"time":94.9284765,"velocity":0.3937007874015748},{"duration":0.10714275000000839,"midi":52,"time":95.142762,"velocity":0.3937007874015748},{"duration":0.10714274999999418,"midi":51,"time":95.57133300000001,"velocity":0.3937007874015748},{"duration":0.10714274999999418,"midi":46,"time":95.99990400000002,"velocity":0.3937007874015748},{"duration":0.10714274999999418,"midi":46,"time":96.32133225000001,"velocity":0.3937007874015748},{"duration":0.10714274999999418,"midi":44,"time":96.64276050000001,"velocity":0.3937007874015748},{"duration":0.10714274999999418,"midi":46,"time":96.85704600000001,"velocity":0.3937007874015748},{"duration":0.10714274999999418,"midi":46,"time":97.17847425000001,"velocity":0.3937007874015748},{"duration":0.10714275000000839,"midi":44,"time":97.4999025,"velocity":0.3937007874015748},{"duration":0.10714274999999418,"midi":46,"time":97.71418800000001,"velocity":0.3937007874015748},{"duration":0.10714275000000839,"midi":46,"time":98.03561625,"velocity":0.3937007874015748},{"duration":0.10714274999999418,"midi":44,"time":98.35704450000001,"velocity":0.3937007874015748},{"duration":0.10714275000000839,"midi":49,"time":98.57133,"velocity":0.3937007874015748},{"duration":0.10714275000000839,"midi":46,"time":98.7856155,"velocity":0.3937007874015748},{"duration":0.10714274999999418,"midi":49,"time":98.89275825000001,"velocity":0.3937007874015748},{"duration":0.10714274999999418,"midi":51,"time":98.99990100000001,"velocity":0.3937007874015748},{"duration":0.10714274999999418,"midi":44,"time":99.21418650000001,"velocity":0.3937007874015748},{"duration":0.10714275000000839,"midi":49,"time":99.32132925,"velocity":0.3937007874015748},{"duration":0.10714274999999418,"midi":46,"time":99.42847200000001,"velocity":0.3937007874015748},{"duration":0.10714274999999418,"midi":46,"time":99.74990025000001,"velocity":0.3937007874015748},{"duration":0.10714274999999418,"midi":44,"time":100.0713285,"velocity":0.3937007874015748},{"duration":0.10714274999999418,"midi":46,"time":100.28561400000001,"velocity":0.3937007874015748},{"duration":0.10714275000000839,"midi":46,"time":100.60704225,"velocity":0.3937007874015748},{"duration":0.10714275000000839,"midi":44,"time":100.9284705,"velocity":0.3937007874015748},{"duration":0.10714275000000839,"midi":46,"time":101.142756,"velocity":0.3937007874015748},{"duration":0.10714275000000839,"midi":46,"time":101.46418425,"velocity":0.3937007874015748},{"duration":0.10714274999999418,"midi":44,"time":101.78561250000001,"velocity":0.3937007874015748},{"duration":0.10714275000000839,"midi":52,"time":101.999898,"velocity":0.3937007874015748},{"duration":0.10714275000000839,"midi":51,"time":102.428469,"velocity":0.3937007874015748},{"duration":0.10714274999999418,"midi":46,"time":102.85704000000001,"velocity":0.3937007874015748},{"duration":0.10714274999999418,"midi":46,"time":103.17846825000001,"velocity":0.3937007874015748},{"duration":0.10714275000000839,"midi":44,"time":103.4998965,"velocity":0.3937007874015748},{"duration":0.10714274999999418,"midi":46,"time":103.71418200000001,"velocity":0.3937007874015748},{"duration":0.10714275000000839,"midi":46,"time":104.03561025,"velocity":0.3937007874015748},{"duration":0.10714275000000839,"midi":44,"time":104.3570385,"velocity":0.3937007874015748},{"duration":0.10714275000000839,"midi":46,"time":104.571324,"velocity":0.3937007874015748},{"duration":0.10714274999999418,"midi":46,"time":104.89275225000002,"velocity":0.3937007874015748},{"duration":0.10714274999999418,"midi":44,"time":105.21418050000001,"velocity":0.3937007874015748},{"duration":0.10714274999999418,"midi":49,"time":105.42846600000001,"velocity":0.3937007874015748},{"duration":0.10714275000000839,"midi":46,"time":105.6427515,"velocity":0.3937007874015748},{"duration":0.10714274999999418,"midi":49,"time":105.74989425000001,"velocity":0.3937007874015748},{"duration":0.10714275000000839,"midi":51,"time":105.857037,"velocity":0.3937007874015748},{"duration":0.10714274999999418,"midi":44,"time":106.07132250000001,"velocity":0.3937007874015748},{"duration":0.10714275000000839,"midi":49,"time":106.17846525,"velocity":0.3937007874015748},{"duration":0.10714274999999418,"midi":46,"time":106.28560800000001,"velocity":0.3937007874015748},{"duration":0.10714275000000839,"midi":46,"time":106.60703625000001,"velocity":0.3937007874015748},{"duration":0.10714275000000839,"midi":44,"time":106.9284645,"velocity":0.3937007874015748},{"duration":0.10714275000000839,"midi":46,"time":107.14275,"velocity":0.3937007874015748},{"duration":0.10714275000000839,"midi":46,"time":107.46417825,"velocity":0.3937007874015748},{"duration":0.10714274999999418,"midi":44,"time":107.78560650000001,"velocity":0.3937007874015748},{"duration":0.10714274999999418,"midi":46,"time":109.71417600000001,"velocity":0.3937007874015748},{"duration":0.10714275000000839,"midi":46,"time":110.03560425,"velocity":0.3937007874015748},{"duration":0.10714275000000839,"midi":44,"time":110.3570325,"velocity":0.3937007874015748},{"duration":0.10714275000000839,"midi":46,"time":110.571318,"velocity":0.3937007874015748},{"duration":0.10714274999999418,"midi":46,"time":110.89274625000002,"velocity":0.3937007874015748},{"duration":0.10714274999999418,"midi":44,"time":111.21417450000001,"velocity":0.3937007874015748},{"duration":0.10714274999999418,"midi":46,"time":111.42846000000002,"velocity":0.3937007874015748},{"duration":0.10714274999999418,"midi":46,"time":111.74988825000001,"velocity":0.3937007874015748},{"duration":0.10714274999999418,"midi":44,"time":112.07131650000001,"velocity":0.3937007874015748},{"duration":0.10714274999999418,"midi":49,"time":112.28560200000001,"velocity":0.3937007874015748},{"duration":0.10714274999999418,"midi":46,"time":112.49988750000001,"velocity":0.3937007874015748},{"duration":0.10714274999999418,"midi":49,"time":112.60703025000001,"velocity":0.3937007874015748},{"duration":0.10714275000000839,"midi":51,"time":112.714173,"velocity":0.3937007874015748},{"duration":0.10714275000000839,"midi":44,"time":112.9284585,"velocity":0.3937007874015748},{"duration":0.10714274999999418,"midi":49,"time":113.03560125000001,"velocity":0.3937007874015748},{"duration":0.10714275000000839,"midi":46,"time":113.14274400000001,"velocity":0.3937007874015748},{"duration":0.10714275000000839,"midi":46,"time":113.46417225,"velocity":0.3937007874015748},{"duration":0.10714274999999418,"midi":44,"time":113.78560050000002,"velocity":0.3937007874015748},{"duration":0.10714275000000839,"midi":46,"time":113.999886,"velocity":0.3937007874015748},{"duration":0.10714274999999418,"midi":46,"time":114.32131425000001,"velocity":0.3937007874015748},{"duration":0.10714274999999418,"midi":44,"time":114.64274250000001,"velocity":0.3937007874015748},{"duration":0.10714274999999418,"midi":46,"time":114.85702800000001,"velocity":0.3937007874015748},{"duration":0.10714274999999418,"midi":46,"time":115.17845625000001,"velocity":0.3937007874015748},{"duration":0.10714275000000839,"midi":44,"time":115.49988450000001,"velocity":0.3937007874015748},{"duration":0.10714274999999418,"midi":52,"time":115.71417000000001,"velocity":0.3937007874015748},{"duration":0.10714274999999418,"midi":51,"time":116.14274100000002,"velocity":0.3937007874015748},{"duration":0.10714275000000839,"midi":46,"time":116.571312,"velocity":0.3937007874015748},{"duration":0.10714275000000839,"midi":46,"time":116.89274025,"velocity":0.3937007874015748},{"duration":0.10714274999999418,"midi":44,"time":117.21416850000001,"velocity":0.3937007874015748},{"duration":0.10714274999999418,"midi":46,"time":117.42845400000002,"velocity":0.3937007874015748},{"duration":0.10714274999999418,"midi":46,"time":117.74988225000001,"velocity":0.3937007874015748},{"duration":0.10714274999999418,"midi":44,"time":118.07131050000001,"velocity":0.3937007874015748},{"duration":0.10714274999999418,"midi":46,"time":118.28559600000001,"velocity":0.3937007874015748},{"duration":0.10714274999999418,"midi":46,"time":118.60702425000001,"velocity":0.3937007874015748},{"duration":0.10714275000000839,"midi":44,"time":118.9284525,"velocity":0.3937007874015748},{"duration":0.10714275000000839,"midi":49,"time":119.14273800000001,"velocity":0.3937007874015748},{"duration":0.10714274999999418,"midi":46,"time":119.35702350000001,"velocity":0.3937007874015748},{"duration":0.10714275000000839,"midi":49,"time":119.46416625,"velocity":0.3937007874015748},{"duration":0.10714274999999418,"midi":51,"time":119.57130900000001,"velocity":0.3937007874015748},{"duration":0.10714274999999418,"midi":44,"time":119.78559450000002,"velocity":0.3937007874015748},{"duration":0.10714274999999418,"midi":49,"time":119.89273725000001,"velocity":0.3937007874015748},{"duration":0.10714275000000839,"midi":46,"time":119.99988,"velocity":0.3937007874015748},{"duration":0.10714274999999418,"midi":46,"time":120.32130825000002,"velocity":0.3937007874015748},{"duration":0.10714274999999418,"midi":44,"time":120.64273650000001,"velocity":0.3937007874015748},{"duration":0.10714274999999418,"midi":46,"time":120.85702200000001,"velocity":0.3937007874015748},{"duration":0.10714274999999418,"midi":46,"time":121.17845025000001,"velocity":0.3937007874015748},{"duration":0.10714275000000839,"midi":44,"time":121.49987850000001,"velocity":0.3937007874015748},{"duration":0.10714274999999418,"midi":46,"time":121.71416400000001,"velocity":0.3937007874015748},{"duration":0.10714275000000839,"midi":46,"time":122.03559225000001,"velocity":0.3937007874015748},{"duration":0.10714275000000839,"midi":44,"time":122.3570205,"velocity":0.3937007874015748},{"duration":0.10714275000000839,"midi":52,"time":122.571306,"velocity":0.3937007874015748},{"duration":0.10714274999999418,"midi":51,"time":122.99987700000001,"velocity":0.3937007874015748},{"duration":0.10714275000000839,"midi":51,"time":123.428448,"velocity":0.3937007874015748},{"duration":0.10714274999999418,"midi":51,"time":123.74987625000001,"velocity":0.3937007874015748},{"duration":0.10714274999999418,"midi":51,"time":124.07130450000001,"velocity":0.3937007874015748},{"duration":0.10714274999999418,"midi":51,"time":124.28559000000001,"velocity":0.3937007874015748},{"duration":0.10714274999999418,"midi":46,"time":124.60701825000001,"velocity":0.3937007874015748},{"duration":0.10714275000000839,"midi":49,"time":124.9284465,"velocity":0.3937007874015748},{"duration":0.10714274999999418,"midi":51,"time":125.14273200000001,"velocity":0.3937007874015748},{"duration":0.10714275000000839,"midi":51,"time":125.46416025,"velocity":0.3937007874015748},{"duration":0.10714274999999418,"midi":51,"time":125.78558850000002,"velocity":0.3937007874015748},{"duration":0.10714275000000839,"midi":44,"time":125.999874,"velocity":0.3937007874015748},{"duration":0.10714274999999418,"midi":42,"time":126.32130225000002,"velocity":0.3937007874015748},{"duration":0.10714274999999418,"midi":46,"time":126.64273050000001,"velocity":0.3937007874015748},{"duration":0.10714274999999418,"midi":51,"time":126.85701600000002,"velocity":0.3937007874015748},{"duration":0.10714274999999418,"midi":51,"time":127.17844425000001,"velocity":0.3937007874015748},{"duration":0.10714274999999418,"midi":51,"time":127.49987250000001,"velocity":0.3937007874015748},{"duration":0.10714274999999418,"midi":51,"time":127.71415800000001,"velocity":0.3937007874015748},{"duration":0.10714274999997997,"midi":46,"time":128.03558625000002,"velocity":0.3937007874015748},{"duration":0.10714274999997997,"midi":49,"time":128.35701450000002,"velocity":0.3937007874015748},{"duration":0.10714275000000839,"midi":51,"time":128.5713,"velocity":0.3937007874015748},{"duration":0.10714275000000839,"midi":51,"time":128.89272825,"velocity":0.3937007874015748},{"duration":0.10714275000000839,"midi":51,"time":129.2141565,"velocity":0.3937007874015748},{"duration":0.10714275000000839,"midi":51,"time":129.6427275,"velocity":0.3937007874015748},{"duration":0.10714274999997997,"midi":51,"time":129.85701300000002,"velocity":0.3937007874015748},{"duration":0.10714275000000839,"midi":51,"time":130.0712985,"velocity":0.3937007874015748},{"duration":0.10714275000000839,"midi":51,"time":130.285584,"velocity":0.3937007874015748},{"duration":0.10714275000000839,"midi":51,"time":130.60701225,"velocity":0.3937007874015748},{"duration":0.10714274999997997,"midi":51,"time":130.92844050000002,"velocity":0.3937007874015748},{"duration":0.10714275000000839,"midi":51,"time":131.142726,"velocity":0.3937007874015748},{"duration":0.10714275000000839,"midi":46,"time":131.46415425,"velocity":0.3937007874015748},{"duration":0.10714275000000839,"midi":49,"time":131.7855825,"velocity":0.3937007874015748},{"duration":0.10714274999997997,"midi":51,"time":131.99986800000002,"velocity":0.3937007874015748},{"duration":0.10714274999997997,"midi":51,"time":132.32129625000002,"velocity":0.3937007874015748},{"duration":0.10714275000000839,"midi":51,"time":132.6427245,"velocity":0.3937007874015748},{"duration":0.10714275000000839,"midi":44,"time":132.85701,"velocity":0.3937007874015748},{"duration":0.10714275000000839,"midi":42,"time":133.17843825,"velocity":0.3937007874015748},{"duration":0.10714274999997997,"midi":46,"time":133.49986650000002,"velocity":0.3937007874015748},{"duration":0.10714275000000839,"midi":51,"time":133.714152,"velocity":0.3937007874015748},{"duration":0.10714275000000839,"midi":51,"time":134.03558025,"velocity":0.3937007874015748},{"duration":0.10714275000000839,"midi":51,"time":134.3570085,"velocity":0.3937007874015748},{"duration":0.10714274999997997,"midi":51,"time":134.57129400000002,"velocity":0.3937007874015748},{"duration":0.10714274999997997,"midi":46,"time":134.89272225000002,"velocity":0.3937007874015748},{"duration":0.10714275000000839,"midi":49,"time":135.21415050000002,"velocity":0.3937007874015748},{"duration":0.10714275000000839,"midi":51,"time":135.428436,"velocity":0.3937007874015748},{"duration":0.10714274999997997,"midi":52,"time":135.64272150000002,"velocity":0.3937007874015748},{"duration":0.10714275000000839,"midi":52,"time":135.857007,"velocity":0.3937007874015748},{"duration":0.10714275000000839,"midi":53,"time":136.0712925,"velocity":0.3937007874015748},{"duration":0.10714275000000839,"midi":53,"time":136.28557800000002,"velocity":0.3937007874015748},{"duration":0.10714275000000839,"midi":54,"time":136.4998635,"velocity":0.3937007874015748},{"duration":0.10714274999997997,"midi":54,"time":136.71414900000002,"velocity":0.3937007874015748},{"duration":0.10714275000000839,"midi":55,"time":136.9284345,"velocity":0.3937007874015748}]}]}
