{"tracks":[{"instrument":{"family":"piano","number":0,"name":"acoustic grand piano"},"notes":[{"duration":0.1041665,"midi":57,"time":0,"velocity":0.3937007874015748},{"duration":0.1041665,"midi":69,"time":0.1041665,"velocity":0.5039370078740157},{"duration":0.1041665,"midi":68,"time":0.208333,"velocity":0.5039370078740157},{"duration":0.1041665,"midi":57,"time":0.208333,"velocity":0.3937007874015748},{"duration":0.1041665,"midi":69,"time":0.3124995,"velocity":0.5039370078740157},{"duration":0.10416650000000005,"midi":72,"time":0.416666,"velocity":0.5039370078740157},{"duration":0.10416650000000005,"midi":57,"time":0.416666,"velocity":0.3937007874015748},{"duration":0.10416649999999994,"midi":69,"time":0.5208325,"velocity":0.5039370078740157},{"duration":0.10416649999999994,"midi":57,"time":0.624999,"velocity":0.3937007874015748},{"duration":0.10416649999999994,"midi":68,"time":0.624999,"velocity":0.5039370078740157},{"duration":0.10416650000000005,"midi":69,"time":0.7291654999999999,"velocity":0.5039370078740157},{"duration":0.10416650000000005,"midi":57,"time":0.833332,"velocity":0.3937007874015748},{"duration":0.833332,"midi":76,"time":0.833332,"velocity":0.5039370078740157},{"duration":0.10416649999999983,"midi":57,"time":1.041665,"velocity":0.3937007874015748},{"duration":0.10416650000000005,"midi":57,"time":1.249998,"velocity":0.3937007874015748},{"duration":0.10416650000000005,"midi":59,"time":1.4583309999999998,"velocity":0.3937007874015748},{"duration":0.10416650000000005,"midi":60,"time":1.666664,"velocity":0.3937007874015748},{"duration":0.10416650000000005,"midi":74,"time":1.7708305,"velocity":0.5039370078740157},{"duration":0.10416649999999983,"midi":60,"time":1.874997,"velocity":0.3937007874015748},{"duration":0.10416649999999983,"midi":72,"time":1.874997,"velocity":0.5039370078740157},{"duration":0.10416650000000027,"midi":71,"time":1.9791634999999999,"velocity":0.5039370078740157},{"duration":0.10416649999999983,"midi":72,"time":2.08333,"velocity":0.5039370078740157},{"duration":0.10416649999999983,"midi":60,"time":2.08333,"velocity":0.3937007874015748},{"duration":0.10416649999999983,"midi":74,"time":2.1874965,"velocity":0.5039370078740157},{"duration":0.10416650000000027,"midi":79,"time":2.291663,"velocity":0.5039370078740157},{"duration":0.10416650000000027,"midi":60,"time":2.291663,"velocity":0.3937007874015748},{"duration":0.10416649999999983,"midi":77,"time":2.3958295,"velocity":0.5039370078740157},{"duration":0.10416649999999983,"midi":60,"time":2.499996,"velocity":0.3937007874015748},{"duration":0.833332,"midi":76,"time":2.499996,"velocity":0.5039370078740157},{"duration":0.10416649999999983,"midi":60,"time":2.708329,"velocity":0.3937007874015748},{"duration":0.10416650000000027,"midi":60,"time":2.9166619999999996,"velocity":0.3937007874015748},{"duration":0.10416650000000027,"midi":60,"time":3.1249949999999997,"velocity":0.3937007874015748},{"duration":0.10416649999999983,"midi":53,"time":3.333328,"velocity":0.3937007874015748},{"duration":0.10416650000000027,"midi":74,"time":3.4374944999999997,"velocity":0.5039370078740157},{"duration":0.10416649999999983,"midi":53,"time":3.541661,"velocity":0.3937007874015748},{"duration":0.10416649999999983,"midi":72,"time":3.541661,"velocity":0.5039370078740157},{"duration":0.10416650000000027,"midi":71,"time":3.6458274999999998,"velocity":0.5039370078740157},{"duration":0.10416649999999983,"midi":72,"time":3.749994,"velocity":0.5039370078740157},{"duration":0.10416649999999983,"midi":53,"time":3.749994,"velocity":0.3937007874015748},{"duration":0.10416649999999983,"midi":74,"time":3.8541605,"velocity":0.5039370078740157},{"duration":0.10416649999999983,"midi":79,"time":3.9583269999999997,"velocity":0.5039370078740157},{"duration":0.10416649999999983,"midi":53,"time":3.9583269999999997,"velocity":0.3937007874015748},{"duration":0.10416650000000072,"midi":77,"time":4.0624934999999995,"velocity":0.5039370078740157},{"duration":0.10416649999999983,"midi":53,"time":4.16666,"velocity":0.3937007874015748},{"duration":0.4166659999999993,"midi":76,"time":4.16666,"velocity":0.5039370078740157},{"duration":0.10416649999999983,"midi":53,"time":4.374993,"velocity":0.3937007874015748},{"duration":0.10416649999999983,"midi":53,"time":4.583326,"velocity":0.3937007874015748},{"duration":0.4166660000000002,"midi":74,"time":4.583326,"velocity":0.5039370078740157},{"duration":0.10416649999999983,"midi":53,"time":4.791659,"velocity":0.3937007874015748},{"duration":0.10416649999999983,"midi":62,"time":4.999992,"velocity":0.3937007874015748},{"duration":0.10416649999999983,"midi":69,"time":4.999992,"velocity":0.3937007874015748},{"duration":0.6249989999999999,"midi":76,"time":4.999992,"velocity":0.5039370078740157},{"duration":0.10416650000000072,"midi":62,"time":5.208324999999999,"velocity":0.3937007874015748},{"duration":0.10416650000000072,"midi":69,"time":5.208324999999999,"velocity":0.3937007874015748},{"duration":0.10416649999999983,"midi":69,"time":5.416658,"velocity":0.3937007874015748},{"duration":0.10416649999999983,"midi":62,"time":5.416658,"velocity":0.3937007874015748},{"duration":0.10416649999999983,"midi":62,"time":5.624991,"velocity":0.3937007874015748},{"duration":0.10416649999999983,"midi":74,"time":5.624991,"velocity":0.5039370078740157},{"duration":0.10416649999999983,"midi":69,"time":5.624991,"velocity":0.3937007874015748},{"duration":0.10416649999999983,"midi":72,"time":5.7291574999999995,"velocity":0.5039370078740157},{"duration":0.10416650000000072,"midi":62,"time":5.833323999999999,"velocity":0.3937007874015748},{"duration":0.10416650000000072,"midi":68,"time":5.833323999999999,"velocity":0.3937007874015748},{"duration":0.4166660000000002,"midi":71,"time":5.833323999999999,"velocity":0.5039370078740157},{"duration":0.10416649999999983,"midi":62,"time":6.041657,"velocity":0.3937007874015748},{"duration":0.10416649999999983,"midi":68,"time":6.041657,"velocity":0.3937007874015748},{"duration":0.10416649999999983,"midi":62,"time":6.2499899999999995,"velocity":0.3937007874015748},{"duration":0.4166660000000002,"midi":74,"time":6.2499899999999995,"velocity":0.5039370078740157},{"duration":0.10416649999999983,"midi":68,"time":6.2499899999999995,"velocity":0.3937007874015748},{"duration":0.10416649999999983,"midi":68,"time":6.458323,"velocity":0.3937007874015748},{"duration":0.10416649999999983,"midi":62,"time":6.458323,"velocity":0.3937007874015748},{"duration":0.10416649999999983,"midi":57,"time":6.666656,"velocity":0.3937007874015748},{"duration":0.20833299999999966,"midi":76,"time":6.666656,"velocity":0.5039370078740157},{"duration":0.10416649999999983,"midi":60,"time":6.666656,"velocity":0.3937007874015748},{"duration":0.10416649999999983,"midi":64,"time":6.666656,"velocity":0.3937007874015748},{"duration":0.10416650000000072,"midi":57,"time":6.874988999999999,"velocity":0.3937007874015748},{"duration":0.10416650000000072,"midi":74,"time":6.874988999999999,"velocity":0.5039370078740157},{"duration":0.10416650000000072,"midi":60,"time":6.874988999999999,"velocity":0.3937007874015748},{"duration":0.10416650000000072,"midi":64,"time":6.874988999999999,"velocity":0.3937007874015748},{"duration":0.5208325,"midi":76,"time":6.9791555,"velocity":0.5039370078740157},{"duration":0.10416649999999983,"midi":64,"time":7.083322,"velocity":0.3937007874015748},{"duration":0.10416649999999983,"midi":60,"time":7.083322,"velocity":0.3937007874015748},{"duration":0.10416649999999983,"midi":57,"time":7.083322,"velocity":0.3937007874015748},{"duration":0.10416649999999983,"midi":60,"time":7.2916549999999996,"velocity":0.3937007874015748},{"duration":0.10416649999999983,"midi":64,"time":7.2916549999999996,"velocity":0.3937007874015748},{"duration":0.10416649999999983,"midi":57,"time":7.2916549999999996,"velocity":0.3937007874015748},{"duration":0.10416649999999983,"midi":64,"time":7.499988,"velocity":0.3937007874015748},{"duration":0.20833299999999966,"midi":74,"time":7.499988,"velocity":0.5039370078740157},{"duration":0.10416649999999983,"midi":55,"time":7.499988,"velocity":0.3937007874015748},{"duration":0.10416649999999983,"midi":59,"time":7.499988,"velocity":0.3937007874015748},{"duration":0.10416649999999983,"midi":64,"time":7.708321,"velocity":0.3937007874015748},{"duration":0.10416649999999983,"midi":55,"time":7.708321,"velocity":0.3937007874015748},{"duration":0.10416649999999983,"midi":59,"time":7.708321,"velocity":0.3937007874015748},{"duration":0.10416649999999983,"midi":72,"time":7.708321,"velocity":0.5039370078740157},{"duration":0.20833299999999966,"midi":74,"time":7.8124875,"velocity":0.5039370078740157},{"duration":0.10416649999999983,"midi":64,"time":7.916653999999999,"velocity":0.3937007874015748},{"duration":0.10416649999999983,"midi":59,"time":7.916653999999999,"velocity":0.3937007874015748},{"duration":0.10416649999999983,"midi":55,"time":7.916653999999999,"velocity":0.3937007874015748},{"duration":0.10416649999999983,"midi":67,"time":8.0208205,"velocity":0.5039370078740157},{"duration":0.10416649999999983,"midi":55,"time":8.124986999999999,"velocity":0.3937007874015748},{"duration":0.10416649999999983,"midi":64,"time":8.124986999999999,"velocity":0.3937007874015748},{"duration":0.10416649999999983,"midi":59,"time":8.124986999999999,"velocity":0.3937007874015748},{"duration":0.10416649999999983,"midi":69,"time":8.124986999999999,"velocity":0.5039370078740157},{"duration":0.1041665000000016,"midi":71,"time":8.229153499999999,"velocity":0.5039370078740157},{"duration":0.10416649999999983,"midi":64,"time":8.33332,"velocity":0.3937007874015748},{"duration":0.10416649999999983,"midi":57,"time":8.33332,"velocity":0.3937007874015748},{"duration":0.10416649999999983,"midi":53,"time":8.33332,"velocity":0.3937007874015748},{"duration":0.20833299999999966,"midi":72,"time":8.33332,"velocity":0.5039370078740157},{"duration":0.10416649999999983,"midi":64,"time":8.541653,"velocity":0.3937007874015748},{"duration":0.10416649999999983,"midi":53,"time":8.541653,"velocity":0.3937007874015748},{"duration":0.10416649999999983,"midi":57,"time":8.541653,"velocity":0.3937007874015748},{"duration":0.10416649999999983,"midi":71,"time":8.541653,"velocity":0.5039370078740157},{"duration":0.3124994999999995,"midi":72,"time":8.6458195,"velocity":0.5039370078740157},{"duration":0.10416649999999983,"midi":53,"time":8.749986,"velocity":0.3937007874015748},{"duration":0.10416649999999983,"midi":64,"time":8.749986,"velocity":0.3937007874015748},{"duration":0.10416649999999983,"midi":57,"time":8.749986,"velocity":0.3937007874015748},{"duration":0.10416649999999983,"midi":64,"time":8.958319,"velocity":0.3937007874015748},{"duration":0.10416649999999983,"midi":53,"time":8.958319,"velocity":0.3937007874015748},{"duration":0.20833299999999966,"midi":69,"time":8.958319,"velocity":0.5039370078740157},{"duration":0.10416649999999983,"midi":57,"time":8.958319,"velocity":0.3937007874015748},{"duration":0.10416649999999983,"midi":59,"time":9.166652,"velocity":0.3937007874015748},{"duration":0.10416649999999983,"midi":57,"time":9.166652,"velocity":0.3937007874015748},{"duration":0.20833299999999966,"midi":71,"time":9.166652,"velocity":0.5039370078740157},{"duration":0.10416649999999983,"midi":64,"time":9.166652,"velocity":0.3937007874015748},{"duration":0.1041665000000016,"midi":59,"time":9.374984999999999,"velocity":0.3937007874015748},{"duration":0.1041665000000016,"midi":64,"time":9.374984999999999,"velocity":0.3937007874015748},{"duration":0.1041665000000016,"midi":69,"time":9.374984999999999,"velocity":0.5039370078740157},{"duration":0.1041665000000016,"midi":57,"time":9.374984999999999,"velocity":0.3937007874015748},{"duration":0.3124994999999995,"midi":68,"time":9.4791515,"velocity":0.5039370078740157},{"duration":0.10416649999999983,"midi":56,"time":9.583318,"velocity":0.3937007874015748},{"duration":0.10416649999999983,"midi":64,"time":9.583318,"velocity":0.3937007874015748},{"duration":0.10416649999999983,"midi":59,"time":9.583318,"velocity":0.3937007874015748},{"duration":0.20833299999999966,"midi":71,"time":9.791651,"velocity":0.5039370078740157},{"duration":0.10416649999999983,"midi":56,"time":9.791651,"velocity":0.3937007874015748},{"duration":0.10416649999999983,"midi":59,"time":9.791651,"velocity":0.3937007874015748},{"duration":0.10416649999999983,"midi":64,"time":9.791651,"velocity":0.3937007874015748},{"duration":0.3124994999999995,"midi":72,"time":9.999984,"velocity":0.5039370078740157},{"duration":0.6249990000000007,"midi":62,"time":9.999984,"velocity":0.3937007874015748},{"duration":0.6249990000000007,"midi":57,"time":9.999984,"velocity":0.3937007874015748},{"duration":0.6249990000000007,"midi":53,"time":9.999984,"velocity":0.3937007874015748},{"duration":0.31249950000000126,"midi":71,"time":10.312483499999999,"velocity":0.5039370078740157},{"duration":1.0416649999999983,"midi":69,"time":10.624983,"velocity":0.5039370078740157},{"duration":1.0416649999999983,"midi":53,"time":10.624983,"velocity":0.3937007874015748},{"duration":1.0416649999999983,"midi":57,"time":10.624983,"velocity":0.3937007874015748},{"duration":1.0416649999999983,"midi":50,"time":10.624983,"velocity":0.3937007874015748},{"duration":0.8333320000000004,"midi":57,"time":11.666647999999999,"velocity":0.3937007874015748},{"duration":0.8333320000000004,"midi":69,"time":11.666647999999999,"velocity":0.5039370078740157},{"duration":0.8333320000000004,"midi":62,"time":11.666647999999999,"velocity":0.3937007874015748},{"duration":0.8333320000000004,"midi":59,"time":11.666647999999999,"velocity":0.3937007874015748},{"duration":0.4166660000000011,"midi":56,"time":12.499979999999999,"velocity":0.3937007874015748},{"duration":0.4166660000000011,"midi":59,"time":12.499979999999999,"velocity":0.3937007874015748},{"duration":0.8333320000000004,"midi":68,"time":12.499979999999999,"velocity":0.5039370078740157},{"duration":0.4166659999999993,"midi":52,"time":12.916646,"velocity":0.3937007874015748},{"duration":0.10416649999999983,"midi":45,"time":13.333312,"velocity":0.5039370078740157},{"duration":0.10416649999999983,"midi":52,"time":13.4374785,"velocity":0.3937007874015748},{"duration":0.10416649999999983,"midi":69,"time":13.4374785,"velocity":0.5039370078740157},{"duration":0.10416649999999983,"midi":68,"time":13.541644999999999,"velocity":0.5039370078740157},{"duration":0.10416649999999983,"midi":48,"time":13.541644999999999,"velocity":0.3937007874015748},{"duration":0.10416649999999983,"midi":69,"time":13.645811499999999,"velocity":0.5039370078740157},{"duration":0.10416649999999983,"midi":52,"time":13.645811499999999,"velocity":0.3937007874015748},{"duration":0.10416649999999983,"midi":45,"time":13.749977999999999,"velocity":0.5039370078740157},{"duration":0.10416649999999983,"midi":72,"time":13.749977999999999,"velocity":0.5039370078740157},{"duration":0.1041665000000016,"midi":69,"time":13.854144499999999,"velocity":0.5039370078740157},{"duration":0.1041665000000016,"midi":52,"time":13.854144499999999,"velocity":0.3937007874015748},{"duration":0.10416649999999983,"midi":48,"time":13.958311,"velocity":0.3937007874015748},{"duration":0.10416649999999983,"midi":68,"time":13.958311,"velocity":0.5039370078740157},{"duration":0.10416649999999983,"midi":52,"time":14.0624775,"velocity":0.3937007874015748},{"duration":0.10416649999999983,"midi":69,"time":14.0624775,"velocity":0.5039370078740157},{"duration":0.10416649999999983,"midi":45,"time":14.166644,"velocity":0.5039370078740157},{"duration":0.8333320000000004,"midi":76,"time":14.166644,"velocity":0.5039370078740157},{"duration":0.10416649999999983,"midi":52,"time":14.2708105,"velocity":0.3937007874015748},{"duration":0.10416649999999983,"midi":48,"time":14.374977,"velocity":0.3937007874015748},{"duration":0.10416649999999983,"midi":52,"time":14.4791435,"velocity":0.3937007874015748},{"duration":0.10416649999999983,"midi":45,"time":14.583309999999999,"velocity":0.5039370078740157},{"duration":0.10416649999999983,"midi":52,"time":14.687476499999999,"velocity":0.3937007874015748},{"duration":0.10416649999999983,"midi":48,"time":14.791642999999999,"velocity":0.3937007874015748},{"duration":0.1041665000000016,"midi":52,"time":14.895809499999999,"velocity":0.3937007874015748},{"duration":0.10416649999999983,"midi":45,"time":14.999976,"velocity":0.5039370078740157},{"duration":0.10416649999999983,"midi":74,"time":15.1041425,"velocity":0.5039370078740157},{"duration":0.10416649999999983,"midi":51,"time":15.1041425,"velocity":0.3937007874015748},{"duration":0.10416649999999983,"midi":72,"time":15.208309,"velocity":0.5039370078740157},{"duration":0.10416649999999983,"midi":48,"time":15.208309,"velocity":0.3937007874015748},{"duration":0.10416649999999983,"midi":51,"time":15.3124755,"velocity":0.3937007874015748},{"duration":0.10416649999999983,"midi":71,"time":15.3124755,"velocity":0.5039370078740157},{"duration":0.10416649999999983,"midi":72,"time":15.416642,"velocity":0.5039370078740157},{"duration":0.10416649999999983,"midi":45,"time":15.416642,"velocity":0.5039370078740157},{"duration":0.10416649999999983,"midi":51,"time":15.5208085,"velocity":0.3937007874015748},{"duration":0.10416649999999983,"midi":74,"time":15.5208085,"velocity":0.5039370078740157},{"duration":0.10416649999999983,"midi":79,"time":15.624975,"velocity":0.5039370078740157},{"duration":0.10416649999999983,"midi":48,"time":15.624975,"velocity":0.3937007874015748},{"duration":0.10416649999999983,"midi":77,"time":15.729141499999999,"velocity":0.5039370078740157},{"duration":0.10416649999999983,"midi":51,"time":15.729141499999999,"velocity":0.3937007874015748},{"duration":0.10416649999999983,"midi":45,"time":15.833307999999999,"velocity":0.5039370078740157},{"duration":0.8333320000000022,"midi":76,"time":15.833307999999999,"velocity":0.5039370078740157},{"duration":0.10416649999999983,"midi":51,"time":15.937474499999999,"velocity":0.3937007874015748},{"duration":0.1041665000000016,"midi":48,"time":16.041641,"velocity":0.3937007874015748},{"duration":0.10416649999999805,"midi":51,"time":16.1458075,"velocity":0.3937007874015748},{"duration":0.1041665000000016,"midi":45,"time":16.249973999999998,"velocity":0.5039370078740157},{"duration":0.10416649999999805,"midi":51,"time":16.3541405,"velocity":0.3937007874015748},{"duration":0.1041665000000016,"midi":48,"time":16.458306999999998,"velocity":0.3937007874015748},{"duration":0.1041665000000016,"midi":51,"time":16.5624735,"velocity":0.3937007874015748},{"duration":0.10416649999999805,"midi":38,"time":16.66664,"velocity":0.5039370078740157},{"duration":0.1041665000000016,"midi":74,"time":16.7708065,"velocity":0.5039370078740157},{"duration":0.1041665000000016,"midi":45,"time":16.7708065,"velocity":0.3937007874015748},{"duration":0.10416649999999805,"midi":41,"time":16.874973,"velocity":0.3937007874015748},{"duration":0.10416649999999805,"midi":72,"time":16.874973,"velocity":0.5039370078740157},{"duration":0.1041665000000016,"midi":71,"time":16.9791395,"velocity":0.5039370078740157},{"duration":0.1041665000000016,"midi":45,"time":16.9791395,"velocity":0.3937007874015748},{"duration":0.10416649999999805,"midi":38,"time":17.083306,"velocity":0.5039370078740157},{"duration":0.10416649999999805,"midi":72,"time":17.083306,"velocity":0.5039370078740157},{"duration":0.1041665000000016,"midi":45,"time":17.1874725,"velocity":0.3937007874015748},{"duration":0.1041665000000016,"midi":74,"time":17.1874725,"velocity":0.5039370078740157},{"duration":0.10416649999999805,"midi":41,"time":17.291639,"velocity":0.3937007874015748},{"duration":0.10416649999999805,"midi":79,"time":17.291639,"velocity":0.5039370078740157},{"duration":0.1041665000000016,"midi":77,"time":17.395805499999998,"velocity":0.5039370078740157},{"duration":0.1041665000000016,"midi":45,"time":17.395805499999998,"velocity":0.3937007874015748},{"duration":0.10416649999999805,"midi":38,"time":17.499972,"velocity":0.5039370078740157},{"duration":0.4166659999999993,"midi":76,"time":17.499972,"velocity":0.5039370078740157},{"duration":0.1041665000000016,"midi":45,"time":17.604138499999998,"velocity":0.3937007874015748},{"duration":0.1041665000000016,"midi":41,"time":17.708305,"velocity":0.3937007874015748},{"duration":0.10416649999999805,"midi":45,"time":17.8124715,"velocity":0.3937007874015748},{"duration":0.1041665000000016,"midi":38,"time":17.916638,"velocity":0.5039370078740157},{"duration":0.4166659999999993,"midi":74,"time":17.916638,"velocity":0.5039370078740157},{"duration":0.10416649999999805,"midi":45,"time":18.0208045,"velocity":0.3937007874015748},{"duration":0.1041665000000016,"midi":41,"time":18.124971,"velocity":0.3937007874015748},{"duration":0.10416649999999805,"midi":45,"time":18.2291375,"velocity":0.3937007874015748},{"duration":0.1041665000000016,"midi":47,"time":18.333304,"velocity":0.5039370078740157},{"duration":0.31249950000000126,"midi":76,"time":18.333304,"velocity":0.5039370078740157},{"duration":0.10416649999999805,"midi":52,"time":18.4374705,"velocity":0.3937007874015748},{"duration":0.1041665000000016,"midi":50,"time":18.541636999999998,"velocity":0.3937007874015748},{"duration":0.31249950000000126,"midi":74,"time":18.6458035,"velocity":0.5039370078740157},{"duration":0.10416649999999805,"midi":52,"time":18.6458035,"velocity":0.3937007874015748},{"duration":0.1041665000000016,"midi":47,"time":18.749969999999998,"velocity":0.5039370078740157},{"duration":0.1041665000000016,"midi":52,"time":18.8541365,"velocity":0.3937007874015748},{"duration":0.20833299999999966,"midi":72,"time":18.958303,"velocity":0.5039370078740157},{"duration":0.10416649999999805,"midi":50,"time":18.958303,"velocity":0.3937007874015748},{"duration":0.1041665000000016,"midi":52,"time":19.0624695,"velocity":0.3937007874015748},{"duration":0.4166659999999993,"midi":71,"time":19.166636,"velocity":0.5039370078740157},{"duration":0.10416649999999805,"midi":44,"time":19.166636,"velocity":0.5039370078740157},{"duration":0.1041665000000016,"midi":52,"time":19.2708025,"velocity":0.3937007874015748},{"duration":0.10416649999999805,"midi":50,"time":19.374969,"velocity":0.3937007874015748},{"duration":0.1041665000000016,"midi":52,"time":19.479135499999998,"velocity":0.3937007874015748},{"duration":0.4166659999999993,"midi":74,"time":19.583302,"velocity":0.5039370078740157},{"duration":0.10416649999999805,"midi":44,"time":19.583302,"velocity":0.5039370078740157},{"duration":0.1041665000000016,"midi":52,"time":19.687468499999998,"velocity":0.3937007874015748},{"duration":0.10416649999999805,"midi":50,"time":19.791635,"velocity":0.3937007874015748},{"duration":0.1041665000000016,"midi":52,"time":19.895801499999997,"velocity":0.3937007874015748},{"duration":0.20833299999999966,"midi":76,"time":19.999968,"velocity":0.5039370078740157},{"duration":0.1041665000000016,"midi":45,"time":19.999968,"velocity":0.5039370078740157},{"duration":0.10416649999999805,"midi":52,"time":20.1041345,"velocity":0.3937007874015748},{"duration":0.1041665000000016,"midi":74,"time":20.208301,"velocity":0.5039370078740157},{"duration":0.1041665000000016,"midi":48,"time":20.208301,"velocity":0.3937007874015748},{"duration":1.0416649999999983,"midi":76,"time":20.3124675,"velocity":0.5039370078740157},{"duration":0.10416649999999805,"midi":52,"time":20.3124675,"velocity":0.3937007874015748},{"duration":0.1041665000000016,"midi":45,"time":20.416634,"velocity":0.5039370078740157},{"duration":0.10416649999999805,"midi":52,"time":20.5208005,"velocity":0.3937007874015748},{"duration":0.1041665000000016,"midi":48,"time":20.624966999999998,"velocity":0.3937007874015748},{"duration":0.10416649999999805,"midi":52,"time":20.7291335,"velocity":0.3937007874015748},{"duration":0.1041665000000016,"midi":45,"time":20.833299999999998,"velocity":0.5039370078740157},{"duration":0.10416649999999805,"midi":52,"time":20.9374665,"velocity":0.3937007874015748},{"duration":0.1041665000000016,"midi":48,"time":21.041632999999997,"velocity":0.3937007874015748},{"duration":0.1041665000000016,"midi":52,"time":21.1457995,"velocity":0.3937007874015748},{"duration":0.10416649999999805,"midi":45,"time":21.249966,"velocity":0.5039370078740157},{"duration":0.1041665000000016,"midi":67,"time":21.3541325,"velocity":0.5039370078740157},{"duration":0.1041665000000016,"midi":52,"time":21.3541325,"velocity":0.3937007874015748},{"duration":0.10416649999999805,"midi":48,"time":21.458299,"velocity":0.3937007874015748},{"duration":0.10416649999999805,"midi":72,"time":21.458299,"velocity":0.5039370078740157},{"duration":0.1041665000000016,"midi":74,"time":21.5624655,"velocity":0.5039370078740157},{"duration":0.1041665000000016,"midi":52,"time":21.5624655,"velocity":0.3937007874015748},{"duration":0.10416649999999805,"midi":43,"time":21.666632,"velocity":0.5039370078740157},{"duration":0.20833299999999966,"midi":76,"time":21.666632,"velocity":0.5039370078740157},{"duration":0.1041665000000016,"midi":52,"time":21.770798499999998,"velocity":0.3937007874015748},{"duration":0.10416649999999805,"midi":74,"time":21.874965,"velocity":0.5039370078740157},{"duration":0.10416649999999805,"midi":50,"time":21.874965,"velocity":0.3937007874015748},{"duration":0.20833299999999966,"midi":76,"time":21.979131499999998,"velocity":0.5039370078740157},{"duration":0.1041665000000016,"midi":52,"time":21.979131499999998,"velocity":0.3937007874015748},{"duration":0.10416649999999805,"midi":48,"time":22.083298,"velocity":0.5039370078740157},{"duration":0.1041665000000016,"midi":52,"time":22.187464499999997,"velocity":0.3937007874015748},{"duration":0.1041665000000016,"midi":50,"time":22.291631,"velocity":0.3937007874015748},{"duration":0.1041665000000016,"midi":74,"time":22.291631,"velocity":0.5039370078740157},{"duration":0.10416649999999805,"midi":52,"time":22.3957975,"velocity":0.3937007874015748},{"duration":0.1041665000000016,"midi":43,"time":22.499964,"velocity":0.5039370078740157},{"duration":0.4166659999999993,"midi":72,"time":22.499964,"velocity":0.5039370078740157},{"duration":0.10416649999999805,"midi":52,"time":22.6041305,"velocity":0.3937007874015748},{"duration":0.1041665000000016,"midi":50,"time":22.708296999999998,"velocity":0.3937007874015748},{"duration":0.10416649999999805,"midi":52,"time":22.8124635,"velocity":0.3937007874015748},{"duration":0.1041665000000016,"midi":48,"time":22.916629999999998,"velocity":0.5039370078740157},{"duration":0.4166659999999993,"midi":71,"time":22.916629999999998,"velocity":0.5039370078740157},{"duration":0.10416649999999805,"midi":52,"time":23.0207965,"velocity":0.3937007874015748},{"duration":0.1041665000000016,"midi":50,"time":23.124962999999997,"velocity":0.3937007874015748},{"duration":0.10416649999999805,"midi":52,"time":23.2291295,"velocity":0.3937007874015748},{"duration":0.1041665000000016,"midi":41,"time":23.333295999999997,"velocity":0.5039370078740157},{"duration":0.31249950000000126,"midi":72,"time":23.333295999999997,"velocity":0.5039370078740157},{"duration":0.1041665000000016,"midi":50,"time":23.4374625,"velocity":0.3937007874015748},{"duration":0.10416649999999805,"midi":45,"time":23.541629,"velocity":0.3937007874015748},{"duration":0.1041665000000016,"midi":50,"time":23.6457955,"velocity":0.3937007874015748},{"duration":0.1041665000000016,"midi":71,"time":23.6457955,"velocity":0.5039370078740157},{"duration":0.10416649999999805,"midi":45,"time":23.749962,"velocity":0.5039370078740157},{"duration":0.1041665000000016,"midi":50,"time":23.854128499999998,"velocity":0.3937007874015748},{"duration":0.624998999999999,"midi":69,"time":23.958295,"velocity":0.5039370078740157},{"duration":0.10416649999999805,"midi":45,"time":23.958295,"velocity":0.3937007874015748},{"duration":0.1041665000000016,"midi":50,"time":24.062461499999998,"velocity":0.3937007874015748},{"duration":0.10416649999999805,"midi":41,"time":24.166628,"velocity":0.5039370078740157},{"duration":0.1041665000000016,"midi":50,"time":24.270794499999997,"velocity":0.3937007874015748},{"duration":0.1041665000000016,"midi":45,"time":24.374961,"velocity":0.3937007874015748},{"duration":0.10416649999999805,"midi":50,"time":24.4791275,"velocity":0.3937007874015748},{"duration":0.20833299999999966,"midi":72,"time":24.583294,"velocity":0.5039370078740157},{"duration":0.1041665000000016,"midi":45,"time":24.583294,"velocity":0.5039370078740157},{"duration":0.10416649999999805,"midi":50,"time":24.6874605,"velocity":0.3937007874015748},{"duration":0.1041665000000016,"midi":45,"time":24.791627,"velocity":0.3937007874015748},{"duration":0.20833299999999966,"midi":77,"time":24.791627,"velocity":0.5039370078740157},{"duration":0.10416649999999805,"midi":50,"time":24.8957935,"velocity":0.3937007874015748},{"duration":0.1041665000000016,"midi":41,"time":24.999959999999998,"velocity":0.5039370078740157},{"duration":0.6249990000000025,"midi":77,"time":24.999959999999998,"velocity":0.5039370078740157},{"duration":0.10416649999999805,"midi":50,"time":25.1041265,"velocity":0.3937007874015748},{"duration":0.1041665000000016,"midi":47,"time":25.208292999999998,"velocity":0.3937007874015748},{"duration":0.10416649999999805,"midi":50,"time":25.3124595,"velocity":0.3937007874015748},{"duration":0.1041665000000016,"midi":41,"time":25.416625999999997,"velocity":0.5039370078740157},{"duration":0.1041665000000016,"midi":50,"time":25.5207925,"velocity":0.3937007874015748},{"duration":0.10416649999999805,"midi":47,"time":25.624959,"velocity":0.3937007874015748},{"duration":0.10416649999999805,"midi":76,"time":25.624959,"velocity":0.5039370078740157},{"duration":0.1041665000000016,"midi":50,"time":25.7291255,"velocity":0.3937007874015748},{"duration":0.1041665000000016,"midi":75,"time":25.7291255,"velocity":0.5039370078740157},{"duration":0.10416649999999805,"midi":44,"time":25.833292,"velocity":0.5039370078740157},{"duration":0.624998999999999,"midi":76,"time":25.833292,"velocity":0.5039370078740157},{"duration":0.1041665000000016,"midi":52,"time":25.937458499999998,"velocity":0.3937007874015748},{"duration":0.10416649999999805,"midi":47,"time":26.041625,"velocity":0.3937007874015748},{"duration":0.1041665000000016,"midi":52,"time":26.145791499999998,"velocity":0.3937007874015748},{"duration":0.10416649999999805,"midi":44,"time":26.249958,"velocity":0.5039370078740157},{"duration":0.1041665000000016,"midi":52,"time":26.354124499999998,"velocity":0.3937007874015748},{"duration":0.10416649999999805,"midi":47,"time":26.458291,"velocity":0.3937007874015748},{"duration":0.1041665000000016,"midi":52,"time":26.562457499999997,"velocity":0.3937007874015748},{"duration":0.05208325000000258,"midi":79,"time":26.562457499999997,"velocity":0.5039370078740157},{"duration":0.052083249999999026,"midi":80,"time":26.61454075,"velocity":0.5039370078740157},{"duration":0.1041665000000016,"midi":33,"time":26.666624,"velocity":0.3937007874015748},{"duration":0.31249950000000126,"midi":81,"time":26.666624,"velocity":0.5039370078740157},{"duration":0.31249950000000126,"midi":72,"time":26.666624,"velocity":0.5039370078740157},{"duration":0.1041665000000016,"midi":33,"time":26.874957,"velocity":0.3937007874015748},{"duration":0.10416649999999805,"midi":69,"time":26.9791235,"velocity":0.5039370078740157},{"duration":0.10416649999999805,"midi":76,"time":26.9791235,"velocity":0.5039370078740157},{"duration":0.1041665000000016,"midi":33,"time":27.083289999999998,"velocity":0.3937007874015748},{"duration":0.31249950000000126,"midi":69,"time":27.291622999999998,"velocity":0.5039370078740157},{"duration":0.1041665000000016,"midi":33,"time":27.291622999999998,"velocity":0.3937007874015748},{"duration":0.31249950000000126,"midi":76,"time":27.291622999999998,"velocity":0.5039370078740157},{"duration":0.1041665000000016,"midi":33,"time":27.499955999999997,"velocity":0.3937007874015748},{"duration":0.10416649999999805,"midi":79,"time":27.6041225,"velocity":0.5039370078740157},{"duration":0.1041665000000016,"midi":76,"time":27.708288999999997,"velocity":0.5039370078740157},{"duration":0.1041665000000016,"midi":33,"time":27.708288999999997,"velocity":0.3937007874015748},{"duration":0.1041665000000016,"midi":74,"time":27.8124555,"velocity":0.5039370078740157},{"duration":0.10416649999999805,"midi":45,"time":27.916622,"velocity":0.3937007874015748},{"duration":0.10416649999999805,"midi":79,"time":27.916622,"velocity":0.5039370078740157},{"duration":0.1041665000000016,"midi":76,"time":28.0207885,"velocity":0.5039370078740157},{"duration":0.1041665000000016,"midi":35,"time":28.0207885,"velocity":0.3937007874015748},{"duration":0.1041665000000016,"midi":69,"time":28.0207885,"velocity":0.5039370078740157},{"duration":0.10416649999999805,"midi":67,"time":28.124955,"velocity":0.5039370078740157},{"duration":0.10416649999999805,"midi":47,"time":28.124955,"velocity":0.3937007874015748},{"duration":0.10416649999999805,"midi":74,"time":28.124955,"velocity":0.5039370078740157},{"duration":0.1041665000000016,"midi":64,"time":28.229121499999998,"velocity":0.5039370078740157},{"duration":0.1041665000000016,"midi":72,"time":28.229121499999998,"velocity":0.5039370078740157},{"duration":0.1041665000000016,"midi":35,"time":28.229121499999998,"velocity":0.3937007874015748},{"duration":0.10416649999999805,"midi":36,"time":28.333288,"velocity":0.3937007874015748},{"duration":0.3124994999999977,"midi":72,"time":28.333288,"velocity":0.5039370078740157},{"duration":0.3124994999999977,"midi":81,"time":28.333288,"velocity":0.5039370078740157},{"duration":0.10416649999999805,"midi":36,"time":28.541621,"velocity":0.3937007874015748},{"duration":0.1041665000000016,"midi":76,"time":28.645787499999997,"velocity":0.5039370078740157},{"duration":0.1041665000000016,"midi":69,"time":28.645787499999997,"velocity":0.5039370078740157},{"duration":0.10416649999999805,"midi":36,"time":28.749954,"velocity":0.3937007874015748},{"duration":0.31249950000000126,"midi":69,"time":28.958287,"velocity":0.5039370078740157},{"duration":0.1041665000000016,"midi":36,"time":28.958287,"velocity":0.3937007874015748},{"duration":0.31249950000000126,"midi":76,"time":28.958287,"velocity":0.5039370078740157},{"duration":0.1041665000000016,"midi":36,"time":29.166619999999998,"velocity":0.3937007874015748},{"duration":0.10416649999999805,"midi":79,"time":29.2707865,"velocity":0.5039370078740157},{"duration":0.1041665000000016,"midi":36,"time":29.374952999999998,"velocity":0.3937007874015748},{"duration":0.1041665000000016,"midi":76,"time":29.374952999999998,"velocity":0.5039370078740157},{"duration":0.10416649999999805,"midi":74,"time":29.4791195,"velocity":0.5039370078740157},{"duration":0.1041665000000016,"midi":79,"time":29.583285999999998,"velocity":0.5039370078740157},{"duration":0.20833299999999966,"midi":33,"time":29.583285999999998,"velocity":0.3937007874015748},{"duration":0.10416649999999805,"midi":76,"time":29.6874525,"velocity":0.5039370078740157},{"duration":0.1041665000000016,"midi":36,"time":29.791618999999997,"velocity":0.3937007874015748},{"duration":0.1041665000000016,"midi":33,"time":29.8957855,"velocity":0.3937007874015748},{"duration":0.3124994999999977,"midi":75,"time":29.999952,"velocity":0.5039370078740157},{"duration":0.10416649999999805,"midi":35,"time":29.999952,"velocity":0.3937007874015748},{"duration":0.3124994999999977,"midi":66,"time":29.999952,"velocity":0.5039370078740157},{"duration":0.10416649999999805,"midi":35,"time":30.208285,"velocity":0.3937007874015748},{"duration":0.1041665000000016,"midi":76,"time":30.312451499999998,"velocity":0.5039370078740157},{"duration":0.1041665000000016,"midi":71,"time":30.312451499999998,"velocity":0.5039370078740157},{"duration":0.10416649999999805,"midi":35,"time":30.416618,"velocity":0.3937007874015748},{"duration":0.4166659999999993,"midi":81,"time":30.624951,"velocity":0.5039370078740157},{"duration":0.4166659999999993,"midi":86,"time":30.624951,"velocity":0.5039370078740157},{"duration":0.10416649999999805,"midi":35,"time":30.624951,"velocity":0.3937007874015748},{"duration":0.20833299999999966,"midi":35,"time":30.833284,"velocity":0.3937007874015748},{"duration":0.20833299999999966,"midi":78,"time":31.041617,"velocity":0.5039370078740157},{"duration":0.1041665000000016,"midi":39,"time":31.041617,"velocity":0.3937007874015748},{"duration":0.20833299999999966,"midi":84,"time":31.041617,"velocity":0.5039370078740157},{"duration":0.10416649999999805,"midi":47,"time":31.1457835,"velocity":0.3937007874015748},{"duration":0.20833299999999966,"midi":83,"time":31.24995,"velocity":0.5039370078740157},{"duration":0.1041665000000016,"midi":54,"time":31.24995,"velocity":0.3937007874015748},{"duration":0.20833299999999966,"midi":74,"time":31.24995,"velocity":0.5039370078740157},{"duration":0.10416649999999805,"midi":51,"time":31.3541165,"velocity":0.3937007874015748},{"duration":0.20833299999999966,"midi":81,"time":31.458282999999998,"velocity":0.5039370078740157},{"duration":0.20833299999999966,"midi":72,"time":31.458282999999998,"velocity":0.5039370078740157},{"duration":0.1041665000000016,"midi":47,"time":31.458282999999998,"velocity":0.3937007874015748},{"duration":0.10416649999999805,"midi":42,"time":31.5624495,"velocity":0.3937007874015748},{"duration":0.1041665000000016,"midi":41,"time":31.666615999999998,"velocity":0.5039370078740157},{"duration":0.31249950000000126,"midi":81,"time":31.666615999999998,"velocity":0.5039370078740157},{"duration":0.31249950000000126,"midi":72,"time":31.666615999999998,"velocity":0.5039370078740157},{"duration":0.10416649999999805,"midi":50,"time":31.7707825,"velocity":0.3937007874015748},{"duration":0.1041665000000016,"midi":45,"time":31.874948999999997,"velocity":0.3937007874015748},{"duration":0.31249950000000126,"midi":74,"time":31.9791155,"velocity":0.5039370078740157},{"duration":0.10416649999999805,"midi":50,"time":31.9791155,"velocity":0.3937007874015748},{"duration":0.31249950000000126,"midi":83,"time":31.9791155,"velocity":0.5039370078740157},{"duration":0.10416649999999805,"midi":41,"time":32.083282,"velocity":0.5039370078740157},{"duration":0.10416650000000516,"midi":50,"time":32.187448499999995,"velocity":0.3937007874015748},{"duration":0.4166659999999993,"midi":80,"time":32.291615,"velocity":0.5039370078740157},{"duration":0.10416649999999805,"midi":44,"time":32.291615,"velocity":0.3937007874015748},{"duration":0.4166659999999993,"midi":71,"time":32.291615,"velocity":0.5039370078740157},{"duration":0.10416649999999805,"midi":52,"time":32.3957815,"velocity":0.3937007874015748},{"duration":0.10416650000000516,"midi":44,"time":32.499947999999996,"velocity":0.5039370078740157},{"duration":0.10416649999999805,"midi":52,"time":32.6041145,"velocity":0.3937007874015748},{"duration":0.10416649999999805,"midi":47,"time":32.708281,"velocity":0.3937007874015748},{"duration":0.2083329999999961,"midi":72,"time":32.708281,"velocity":0.5039370078740157},{"duration":0.2083329999999961,"midi":81,"time":32.708281,"velocity":0.5039370078740157},{"duration":0.10416649999999805,"midi":52,"time":32.8124475,"velocity":0.3937007874015748},{"duration":0.10416650000000516,"midi":44,"time":32.916613999999996,"velocity":0.5039370078740157},{"duration":0.2083330000000032,"midi":83,"time":32.916613999999996,"velocity":0.5039370078740157},{"duration":0.2083330000000032,"midi":74,"time":32.916613999999996,"velocity":0.5039370078740157},{"duration":0.10416649999999805,"midi":52,"time":33.0207805,"velocity":0.3937007874015748},{"duration":0.2083330000000032,"midi":81,"time":33.124947,"velocity":0.5039370078740157},{"duration":0.10416649999999805,"midi":47,"time":33.124947,"velocity":0.3937007874015748},{"duration":0.2083330000000032,"midi":72,"time":33.124947,"velocity":0.5039370078740157},{"duration":0.10416650000000516,"midi":52,"time":33.2291135,"velocity":0.3937007874015748},{"duration":0.31249949999999416,"midi":76,"time":33.33328,"velocity":0.5039370078740157},{"duration":0.31249949999999416,"midi":84,"time":33.33328,"velocity":0.5039370078740157},{"duration":0.10416649999999805,"midi":45,"time":33.33328,"velocity":0.5039370078740157},{"duration":0.10416649999999805,"midi":52,"time":33.4374465,"velocity":0.3937007874015748},{"duration":0.10416649999999805,"midi":48,"time":33.541613,"velocity":0.3937007874015748},{"duration":0.10416650000000516,"midi":52,"time":33.645779499999996,"velocity":0.3937007874015748},{"duration":0.10416650000000516,"midi":83,"time":33.645779499999996,"velocity":0.5039370078740157},{"duration":0.10416650000000516,"midi":74,"time":33.645779499999996,"velocity":0.5039370078740157},{"duration":0.10416649999999805,"midi":45,"time":33.749946,"velocity":0.5039370078740157},{"duration":0.10416649999999805,"midi":52,"time":33.8541125,"velocity":0.3937007874015748},{"duration":0.10416649999999805,"midi":48,"time":33.958279,"velocity":0.3937007874015748},{"duration":0.2083330000000032,"midi":72,"time":33.958279,"velocity":0.5039370078740157},{"duration":0.2083330000000032,"midi":76,"time":33.958279,"velocity":0.5039370078740157},{"duration":0.10416650000000516,"midi":52,"time":34.062445499999995,"velocity":0.3937007874015748},{"duration":0.10416649999999805,"midi":43,"time":34.166612,"velocity":0.5039370078740157},{"duration":0.31249950000000126,"midi":74,"time":34.166612,"velocity":0.5039370078740157},{"duration":0.31249950000000126,"midi":71,"time":34.166612,"velocity":0.5039370078740157},{"duration":0.10416649999999805,"midi":52,"time":34.2707785,"velocity":0.3937007874015748},{"duration":0.10416650000000516,"midi":48,"time":34.374945,"velocity":0.3937007874015748},{"duration":0.10416649999999805,"midi":72,"time":34.4791115,"velocity":0.5039370078740157},{"duration":0.10416649999999805,"midi":52,"time":34.4791115,"velocity":0.3937007874015748},{"duration":0.10416649999999805,"midi":69,"time":34.4791115,"velocity":0.5039370078740157},{"duration":0.10416649999999805,"midi":43,"time":34.583278,"velocity":0.5039370078740157},{"duration":0.10416649999999805,"midi":52,"time":34.6874445,"velocity":0.3937007874015748},{"duration":0.10416650000000516,"midi":48,"time":34.791610999999996,"velocity":0.3937007874015748},{"duration":0.2083330000000032,"midi":71,"time":34.791610999999996,"velocity":0.5039370078740157},{"duration":0.2083330000000032,"midi":74,"time":34.791610999999996,"velocity":0.5039370078740157},{"duration":0.10416649999999805,"midi":52,"time":34.8957775,"velocity":0.3937007874015748},{"duration":0.31249950000000126,"midi":76,"time":34.999944,"velocity":0.5039370078740157},{"duration":0.10416649999999805,"midi":41,"time":34.999944,"velocity":0.5039370078740157},{"duration":0.10416649999999805,"midi":52,"time":35.1041105,"velocity":0.3937007874015748},{"duration":0.10416650000000516,"midi":48,"time":35.208276999999995,"velocity":0.3937007874015748},{"duration":0.10416649999999805,"midi":52,"time":35.3124435,"velocity":0.3937007874015748},{"duration":0.10416649999999805,"midi":74,"time":35.3124435,"velocity":0.5039370078740157},{"duration":0.10416649999999805,"midi":45,"time":35.41661,"velocity":0.5039370078740157},{"duration":0.10416650000000516,"midi":52,"time":35.5207765,"velocity":0.3937007874015748},{"duration":0.10416649999999805,"midi":48,"time":35.624943,"velocity":0.3937007874015748},{"duration":0.2083329999999961,"midi":72,"time":35.624943,"velocity":0.5039370078740157},{"duration":0.10416649999999805,"midi":52,"time":35.7291095,"velocity":0.3937007874015748},{"duration":0.31249950000000126,"midi":71,"time":35.833276,"velocity":0.5039370078740157},{"duration":0.31249950000000126,"midi":62,"time":35.833276,"velocity":0.5039370078740157},{"duration":0.10416649999999805,"midi":44,"time":35.833276,"velocity":0.5039370078740157},{"duration":0.10416650000000516,"midi":50,"time":35.937442499999996,"velocity":0.3937007874015748},{"duration":0.10416649999999805,"midi":47,"time":36.041609,"velocity":0.3937007874015748},{"duration":0.10416649999999805,"midi":50,"time":36.1457755,"velocity":0.3937007874015748},{"duration":0.10416649999999805,"midi":67,"time":36.1457755,"velocity":0.5039370078740157},{"duration":0.10416649999999805,"midi":72,"time":36.1457755,"velocity":0.5039370078740157},{"duration":0.10416649999999805,"midi":47,"time":36.249942,"velocity":0.5039370078740157},{"duration":0.10416650000000516,"midi":50,"time":36.354108499999995,"velocity":0.3937007874015748},{"duration":0.10416649999999805,"midi":47,"time":36.458275,"velocity":0.3937007874015748},{"duration":0.2083329999999961,"midi":74,"time":36.458275,"velocity":0.5039370078740157},{"duration":0.2083329999999961,"midi":65,"time":36.458275,"velocity":0.5039370078740157},{"duration":0.10416649999999805,"midi":50,"time":36.5624415,"velocity":0.3937007874015748},{"duration":0.31249950000000126,"midi":72,"time":36.666608,"velocity":0.5039370078740157},{"duration":0.10416650000000516,"midi":38,"time":36.666608,"velocity":0.5039370078740157},{"duration":0.31249950000000126,"midi":64,"time":36.666608,"velocity":0.5039370078740157},{"duration":0.10416649999999805,"midi":45,"time":36.7707745,"velocity":0.3937007874015748},{"duration":0.10416649999999805,"midi":41,"time":36.874941,"velocity":0.3937007874015748},{"duration":0.10416649999999805,"midi":62,"time":36.9791075,"velocity":0.5039370078740157},{"duration":0.10416649999999805,"midi":71,"time":36.9791075,"velocity":0.5039370078740157},{"duration":0.10416649999999805,"midi":45,"time":36.9791075,"velocity":0.3937007874015748},{"duration":0.10416650000000516,"midi":38,"time":37.083273999999996,"velocity":0.5039370078740157},{"duration":0.10416649999999805,"midi":45,"time":37.1874405,"velocity":0.3937007874015748},{"duration":0.6249990000000025,"midi":60,"time":37.291607,"velocity":0.5039370078740157},{"duration":0.10416649999999805,"midi":41,"time":37.291607,"velocity":0.3937007874015748},{"duration":0.6249990000000025,"midi":69,"time":37.291607,"velocity":0.5039370078740157},{"duration":0.10416649999999805,"midi":45,"time":37.3957735,"velocity":0.3937007874015748},{"duration":0.10416650000000516,"midi":38,"time":37.499939999999995,"velocity":0.5039370078740157},{"duration":0.10416649999999805,"midi":45,"time":37.6041065,"velocity":0.3937007874015748},{"duration":0.10416649999999805,"midi":41,"time":37.708273,"velocity":0.3937007874015748},{"duration":0.10416650000000516,"midi":45,"time":37.812439499999996,"velocity":0.3937007874015748},{"duration":0.4166659999999993,"midi":71,"time":37.916606,"velocity":0.5039370078740157},{"duration":0.4166659999999993,"midi":62,"time":37.916606,"velocity":0.5039370078740157},{"duration":0.10416649999999805,"midi":38,"time":37.916606,"velocity":0.5039370078740157},{"duration":0.10416649999999805,"midi":45,"time":38.0207725,"velocity":0.3937007874015748},{"duration":0.10416649999999805,"midi":41,"time":38.124939,"velocity":0.3937007874015748},{"duration":0.10416650000000516,"midi":45,"time":38.229105499999996,"velocity":0.3937007874015748},{"duration":0.8333319999999986,"midi":60,"time":38.333272,"velocity":0.5039370078740157},{"duration":0.8333319999999986,"midi":69,"time":38.333272,"velocity":0.5039370078740157},{"duration":0.10416649999999805,"midi":38,"time":38.333272,"velocity":0.5039370078740157},{"duration":0.10416649999999805,"midi":45,"time":38.4374385,"velocity":0.3937007874015748},{"duration":0.10416649999999805,"midi":40,"time":38.541605,"velocity":0.3937007874015748},{"duration":0.10416650000000516,"midi":45,"time":38.645771499999995,"velocity":0.3937007874015748},{"duration":0.10416649999999805,"midi":38,"time":38.749938,"velocity":0.5039370078740157},{"duration":0.10416649999999805,"midi":45,"time":38.8541045,"velocity":0.3937007874015748},{"duration":0.10416650000000516,"midi":40,"time":38.958270999999996,"velocity":0.3937007874015748},{"duration":0.10416649999999805,"midi":45,"time":39.0624375,"velocity":0.3937007874015748},{"duration":0.8333319999999986,"midi":59,"time":39.166604,"velocity":0.5039370078740157},{"duration":0.8333319999999986,"midi":68,"time":39.166604,"velocity":0.5039370078740157},{"duration":0.10416649999999805,"midi":38,"time":39.166604,"velocity":0.5039370078740157},{"duration":0.10416649999999805,"midi":44,"time":39.2707705,"velocity":0.3937007874015748},{"duration":0.10416650000000516,"midi":40,"time":39.374936999999996,"velocity":0.3937007874015748},{"duration":0.10416649999999805,"midi":44,"time":39.4791035,"velocity":0.3937007874015748},{"duration":0.10416649999999805,"midi":38,"time":39.58327,"velocity":0.5039370078740157},{"duration":0.10416649999999805,"midi":44,"time":39.6874365,"velocity":0.3937007874015748},{"duration":0.10416650000000516,"midi":40,"time":39.791602999999995,"velocity":0.3937007874015748},{"duration":0.10416649999999805,"midi":44,"time":39.8957695,"velocity":0.3937007874015748},{"duration":0.10416649999999805,"midi":50,"time":39.999936,"velocity":0.5039370078740157},{"duration":0.31249950000000126,"midi":65,"time":39.999936,"velocity":0.5039370078740157},{"duration":0.10416650000000516,"midi":57,"time":40.104102499999996,"velocity":0.3937007874015748},{"duration":0.10416649999999805,"midi":53,"time":40.208269,"velocity":0.3937007874015748},{"duration":0.10416649999999805,"midi":57,"time":40.3124355,"velocity":0.3937007874015748},{"duration":0.03472216666666128,"midi":72,"time":40.3124355,"velocity":0.5039370078740157},{"duration":0.03472216666667549,"midi":74,"time":40.34715766666666,"velocity":0.5039370078740157},{"duration":0.03472216666666128,"midi":75,"time":40.381879833333336,"velocity":0.5039370078740157},{"duration":0.10416649999999805,"midi":50,"time":40.416602,"velocity":0.5039370078740157},{"duration":0.4166659999999993,"midi":76,"time":40.416602,"velocity":0.5039370078740157},{"duration":0.10416650000000516,"midi":57,"time":40.520768499999996,"velocity":0.3937007874015748},{"duration":0.10416649999999805,"midi":53,"time":40.624935,"velocity":0.3937007874015748},{"duration":0.10416649999999805,"midi":57,"time":40.7291015,"velocity":0.3937007874015748},{"duration":0.2083330000000032,"midi":74,"time":40.833268,"velocity":0.5039370078740157},{"duration":0.10416649999999805,"midi":50,"time":40.833268,"velocity":0.5039370078740157},{"duration":0.10416650000000516,"midi":57,"time":40.937434499999995,"velocity":0.3937007874015748},{"duration":0.2083329999999961,"midi":72,"time":41.041601,"velocity":0.5039370078740157},{"duration":0.10416649999999805,"midi":53,"time":41.041601,"velocity":0.3937007874015748},{"duration":0.10416649999999805,"midi":57,"time":41.1457675,"velocity":0.3937007874015748},{"duration":0.10416650000000516,"midi":50,"time":41.249933999999996,"velocity":0.5039370078740157},{"duration":0.2083330000000032,"midi":71,"time":41.249933999999996,"velocity":0.5039370078740157},{"duration":0.10416649999999805,"midi":52,"time":41.3541005,"velocity":0.3937007874015748},{"duration":0.2083329999999961,"midi":72,"time":41.458267,"velocity":0.5039370078740157},{"duration":0.10416649999999805,"midi":55,"time":41.458267,"velocity":0.3937007874015748},{"duration":0.10416649999999805,"midi":56,"time":41.5624335,"velocity":0.3937007874015748},{"duration":0.2083330000000032,"midi":57,"time":41.666599999999995,"velocity":0.5039370078740157},{"duration":0.31249950000000126,"midi":64,"time":41.666599999999995,"velocity":0.3937007874015748},{"duration":0.10416649999999805,"midi":57,"time":41.874933,"velocity":0.3937007874015748},{"duration":0.10416649999999805,"midi":64,"time":41.9790995,"velocity":0.3937007874015748},{"duration":0.034722166666668386,"midi":72,"time":41.9790995,"velocity":0.5039370078740157},{"duration":0.034722166666668386,"midi":74,"time":42.013821666666665,"velocity":0.5039370078740157},{"duration":0.03472216666666128,"midi":75,"time":42.04854383333333,"velocity":0.5039370078740157},{"duration":0.10416650000000516,"midi":57,"time":42.083265999999995,"velocity":0.5039370078740157},{"duration":1.249998000000005,"midi":76,"time":42.083265999999995,"velocity":0.5039370078740157},{"duration":0.10416649999999805,"midi":64,"time":42.1874325,"velocity":0.3937007874015748},{"duration":0.10416649999999805,"midi":60,"time":42.291599,"velocity":0.3937007874015748},{"duration":0.10416650000000516,"midi":64,"time":42.395765499999996,"velocity":0.3937007874015748},{"duration":0.10416649999999805,"midi":57,"time":42.499932,"velocity":0.5039370078740157},{"duration":0.10416649999999805,"midi":64,"time":42.6040985,"velocity":0.3937007874015748},{"duration":0.10416649999999805,"midi":60,"time":42.708265,"velocity":0.3937007874015748},{"duration":0.10416650000000516,"midi":64,"time":42.812431499999995,"velocity":0.3937007874015748},{"duration":0.10416649999999805,"midi":57,"time":42.916598,"velocity":0.5039370078740157},{"duration":0.10416649999999805,"midi":64,"time":43.0207645,"velocity":0.3937007874015748},{"duration":0.10416649999999805,"midi":60,"time":43.124931,"velocity":0.3937007874015748},{"duration":0.10416650000000516,"midi":64,"time":43.229097499999995,"velocity":0.3937007874015748},{"duration":0.4166659999999993,"midi":75,"time":43.333264,"velocity":0.5039370078740157},{"duration":0.10416649999999805,"midi":54,"time":43.333264,"velocity":0.5039370078740157},{"duration":0.10416649999999805,"midi":63,"time":43.4374305,"velocity":0.3937007874015748},{"duration":0.10416650000000516,"midi":59,"time":43.541596999999996,"velocity":0.3937007874015748},{"duration":0.10416649999999805,"midi":63,"time":43.6457635,"velocity":0.3937007874015748},{"duration":0.4166659999999993,"midi":72,"time":43.74993,"velocity":0.5039370078740157},{"duration":0.10416649999999805,"midi":54,"time":43.74993,"velocity":0.5039370078740157},{"duration":0.10416649999999805,"midi":63,"time":43.8540965,"velocity":0.3937007874015748},{"duration":0.10416650000000516,"midi":59,"time":43.958262999999995,"velocity":0.3937007874015748},{"duration":0.10416649999999805,"midi":63,"time":44.0624295,"velocity":0.3937007874015748},{"duration":0.2083329999999961,"midi":71,"time":44.166596,"velocity":0.5039370078740157},{"duration":0.10416649999999805,"midi":54,"time":44.166596,"velocity":0.5039370078740157},{"duration":0.10416649999999805,"midi":63,"time":44.2707625,"velocity":0.3937007874015748},{"duration":0.2083330000000032,"midi":69,"time":44.374928999999995,"velocity":0.5039370078740157},{"duration":0.10416650000000516,"midi":59,"time":44.374928999999995,"velocity":0.3937007874015748},{"duration":0.10416649999999805,"midi":63,"time":44.4790955,"velocity":0.3937007874015748},{"duration":0.2083330000000032,"midi":68,"time":44.583262,"velocity":0.5039370078740157},{"duration":0.10416649999999805,"midi":54,"time":44.583262,"velocity":0.5039370078740157},{"duration":0.10416650000000516,"midi":59,"time":44.687428499999996,"velocity":0.3937007874015748},{"duration":0.10416649999999805,"midi":66,"time":44.791595,"velocity":0.3937007874015748},{"duration":0.2083329999999961,"midi":69,"time":44.791595,"velocity":0.5039370078740157},{"duration":0.10416649999999805,"midi":63,"time":44.8957615,"velocity":0.3937007874015748},{"duration":0.6249990000000025,"midi":71,"time":44.999928,"velocity":0.5039370078740157},{"duration":0.10416649999999805,"midi":56,"time":44.999928,"velocity":0.5039370078740157},{"duration":0.10416650000000516,"midi":64,"time":45.104094499999995,"velocity":0.3937007874015748},{"duration":0.10416649999999805,"midi":62,"time":45.208261,"velocity":0.3937007874015748},{"duration":0.10416649999999805,"midi":64,"time":45.3124275,"velocity":0.3937007874015748},{"duration":0.10416649999999805,"midi":56,"time":45.416593999999996,"velocity":0.5039370078740157},{"duration":0.10416650000000516,"midi":64,"time":45.520760499999994,"velocity":0.3937007874015748},{"duration":0.10416649999999805,"midi":59,"time":45.624927,"velocity":0.3937007874015748},{"duration":0.10416649999999805,"midi":74,"time":45.624927,"velocity":0.5039370078740157},{"duration":0.10416649999999805,"midi":75,"time":45.7290935,"velocity":0.5039370078740157},{"duration":0.10416649999999805,"midi":64,"time":45.7290935,"velocity":0.3937007874015748},{"duration":0.10416650000000516,"midi":56,"time":45.833259999999996,"velocity":0.5039370078740157},{"duration":0.8333319999999986,"midi":76,"time":45.833259999999996,"velocity":0.5039370078740157},{"duration":0.10416649999999805,"midi":64,"time":45.9374265,"velocity":0.3937007874015748},{"duration":0.10416649999999805,"midi":62,"time":46.041593,"velocity":0.3937007874015748},{"duration":0.10416649999999805,"midi":64,"time":46.1457595,"velocity":0.3937007874015748},{"duration":0.10416650000000516,"midi":55,"time":46.249925999999995,"velocity":0.5039370078740157},{"duration":0.10416649999999805,"midi":44,"time":46.3540925,"velocity":0.3937007874015748},{"duration":0.10416649999999805,"midi":52,"time":46.458259,"velocity":0.3937007874015748},{"duration":0.10416649999999805,"midi":40,"time":46.562425499999996,"velocity":0.3937007874015748},{"duration":0.31249950000000126,"midi":65,"time":46.666591999999994,"velocity":0.5039370078740157},{"duration":0.10416650000000516,"midi":48,"time":46.666591999999994,"velocity":0.5039370078740157},{"duration":0.10416649999999805,"midi":57,"time":46.7707585,"velocity":0.3937007874015748},{"duration":0.10416649999999805,"midi":53,"time":46.874925,"velocity":0.3937007874015748},{"duration":0.034722166666668386,"midi":72,"time":46.979091499999996,"velocity":0.5039370078740157},{"duration":0.10416650000000516,"midi":57,"time":46.979091499999996,"velocity":0.3937007874015748},{"duration":0.034722166666668386,"midi":74,"time":47.013813666666664,"velocity":0.5039370078740157},{"duration":0.034722166666668386,"midi":75,"time":47.04853583333333,"velocity":0.5039370078740157},{"duration":0.4166659999999993,"midi":76,"time":47.083258,"velocity":0.5039370078740157},{"duration":0.10416649999999805,"midi":48,"time":47.083258,"velocity":0.5039370078740157},{"duration":0.10416649999999805,"midi":57,"time":47.1874245,"velocity":0.3937007874015748},{"duration":0.10416649999999805,"midi":53,"time":47.291591,"velocity":0.3937007874015748},{"duration":0.10416650000000516,"midi":57,"time":47.395757499999995,"velocity":0.3937007874015748},{"duration":0.10416649999999805,"midi":48,"time":47.499924,"velocity":0.5039370078740157},{"duration":0.2083329999999961,"midi":74,"time":47.499924,"velocity":0.5039370078740157},{"duration":0.10416649999999805,"midi":57,"time":47.6040905,"velocity":0.3937007874015748},{"duration":0.2083330000000032,"midi":72,"time":47.708256999999996,"velocity":0.5039370078740157},{"duration":0.10416650000000516,"midi":53,"time":47.708256999999996,"velocity":0.3937007874015748},{"duration":0.10416649999999805,"midi":57,"time":47.8124235,"velocity":0.3937007874015748},{"duration":0.10416649999999805,"midi":48,"time":47.91659,"velocity":0.5039370078740157},{"duration":0.2083329999999961,"midi":71,"time":47.91659,"velocity":0.5039370078740157},{"duration":0.10416649999999805,"midi":57,"time":48.0207565,"velocity":0.3937007874015748},{"duration":0.2083330000000032,"midi":72,"time":48.124922999999995,"velocity":0.5039370078740157},{"duration":0.10416650000000516,"midi":53,"time":48.124922999999995,"velocity":0.3937007874015748},{"duration":0.10416649999999805,"midi":57,"time":48.2290895,"velocity":0.3937007874015748},{"duration":0.31249950000000126,"midi":64,"time":48.333256,"velocity":0.3937007874015748},{"duration":0.31249950000000126,"midi":60,"time":48.333256,"velocity":0.3937007874015748},{"duration":0.31249950000000126,"midi":81,"time":48.333256,"velocity":0.5039370078740157},{"duration":0.31249950000000126,"midi":45,"time":48.333256,"velocity":0.3937007874015748},{"duration":0.31249950000000126,"midi":72,"time":48.333256,"velocity":0.5039370078740157},{"duration":0.10416649999999805,"midi":69,"time":48.6457555,"velocity":0.5039370078740157},{"duration":0.10416649999999805,"midi":47,"time":48.6457555,"velocity":0.3937007874015748},{"duration":0.10416649999999805,"midi":76,"time":48.6457555,"velocity":0.5039370078740157},{"duration":0.10416649999999805,"midi":57,"time":48.6457555,"velocity":0.3937007874015748},{"duration":0.10416649999999805,"midi":60,"time":48.6457555,"velocity":0.3937007874015748},{"duration":0.31249949999999416,"midi":60,"time":48.958255,"velocity":0.3937007874015748},{"duration":0.31249949999999416,"midi":57,"time":48.958255,"velocity":0.3937007874015748},{"duration":0.31249949999999416,"midi":48,"time":48.958255,"velocity":0.3937007874015748},{"duration":0.6249989999999954,"midi":69,"time":48.958255,"velocity":0.5039370078740157},{"duration":0.6249989999999954,"midi":76,"time":48.958255,"velocity":0.5039370078740157},{"duration":0.10416650000000516,"midi":52,"time":49.270754499999995,"velocity":0.3937007874015748},{"duration":0.10416649999999805,"midi":48,"time":49.374921,"velocity":0.3937007874015748},{"duration":0.10416649999999805,"midi":52,"time":49.4790875,"velocity":0.3937007874015748},{"duration":0.2083330000000032,"midi":74,"time":49.583254,"velocity":0.5039370078740157},{"duration":0.10416649999999805,"midi":45,"time":49.583254,"velocity":0.5039370078740157},{"duration":0.10416650000000516,"midi":52,"time":49.687420499999995,"velocity":0.3937007874015748},{"duration":0.10416649999999805,"midi":50,"time":49.791587,"velocity":0.3937007874015748},{"duration":0.2083329999999961,"midi":72,"time":49.791587,"velocity":0.5039370078740157},{"duration":0.10416649999999805,"midi":48,"time":49.8957535,"velocity":0.3937007874015748},{"duration":0.31249950000000126,"midi":75,"time":49.999919999999996,"velocity":0.5039370078740157},{"duration":0.10416650000000516,"midi":51,"time":49.999919999999996,"velocity":0.5039370078740157},{"duration":0.10416649999999805,"midi":57,"time":50.1040865,"velocity":0.3937007874015748},{"duration":0.10416649999999805,"midi":54,"time":50.208253,"velocity":0.3937007874015748},{"duration":0.10416649999999805,"midi":72,"time":50.3124195,"velocity":0.5039370078740157},{"duration":0.10416649999999805,"midi":57,"time":50.3124195,"velocity":0.3937007874015748},{"duration":0.10416650000000516,"midi":51,"time":50.416585999999995,"velocity":0.5039370078740157},{"duration":0.10416649999999805,"midi":47,"time":50.5207525,"velocity":0.3937007874015748},{"duration":0.2083329999999961,"midi":71,"time":50.624919,"velocity":0.5039370078740157},{"duration":0.10416649999999805,"midi":54,"time":50.624919,"velocity":0.3937007874015748},{"duration":0.10416649999999805,"midi":59,"time":50.7290855,"velocity":0.3937007874015748},{"duration":0.31249950000000126,"midi":69,"time":50.833251999999995,"velocity":0.5039370078740157},{"duration":0.10416650000000516,"midi":50,"time":50.833251999999995,"velocity":0.5039370078740157},{"duration":0.10416649999999805,"midi":57,"time":50.9374185,"velocity":0.3937007874015748},{"duration":0.10416649999999805,"midi":53,"time":51.041585,"velocity":0.3937007874015748},{"duration":0.10416650000000516,"midi":57,"time":51.145751499999996,"velocity":0.3937007874015748},{"duration":0.10416650000000516,"midi":68,"time":51.145751499999996,"velocity":0.5039370078740157},{"duration":0.10416649999999805,"midi":50,"time":51.249918,"velocity":0.5039370078740157},{"duration":0.10416649999999805,"midi":46,"time":51.3540845,"velocity":0.3937007874015748},{"duration":0.10416649999999805,"midi":53,"time":51.458251,"velocity":0.3937007874015748},{"duration":0.10416649999999805,"midi":66,"time":51.458251,"velocity":0.5039370078740157},{"duration":0.10416650000000516,"midi":68,"time":51.562417499999995,"velocity":0.5039370078740157},{"duration":0.10416650000000516,"midi":58,"time":51.562417499999995,"velocity":0.3937007874015748},{"duration":1.249997999999998,"midi":69,"time":51.666584,"velocity":0.5039370078740157},{"duration":0.10416649999999805,"midi":45,"time":51.666584,"velocity":0.5039370078740157},{"duration":0.10416649999999805,"midi":52,"time":51.7707505,"velocity":0.3937007874015748},{"duration":0.10416649999999805,"midi":48,"time":51.874916999999996,"velocity":0.3937007874015748},{"duration":0.10416650000000516,"midi":52,"time":51.979083499999994,"velocity":0.3937007874015748},{"duration":0.10416649999999805,"midi":45,"time":52.08325,"velocity":0.5039370078740157},{"duration":0.10416649999999805,"midi":52,"time":52.1874165,"velocity":0.3937007874015748},{"duration":0.10416650000000516,"midi":48,"time":52.291582999999996,"velocity":0.3937007874015748},{"duration":0.10416649999999805,"midi":52,"time":52.3957495,"velocity":0.3937007874015748},{"duration":0.10416649999999805,"midi":45,"time":52.499916,"velocity":0.5039370078740157},{"duration":0.10416649999999805,"midi":52,"time":52.6040825,"velocity":0.3937007874015748},{"duration":0.10416650000000516,"midi":48,"time":52.708248999999995,"velocity":0.3937007874015748},{"duration":0.10416649999999805,"midi":52,"time":52.8124155,"velocity":0.3937007874015748},{"duration":0.10416649999999805,"midi":45,"time":52.916582,"velocity":0.5039370078740157},{"duration":0.10416649999999805,"midi":52,"time":53.020748499999996,"velocity":0.3937007874015748},{"duration":0.10416650000000516,"midi":48,"time":53.124914999999994,"velocity":0.3937007874015748},{"duration":0.10416650000000516,"midi":69,"time":53.124914999999994,"velocity":0.5039370078740157},{"duration":0.10416649999999805,"midi":52,"time":53.2290815,"velocity":0.3937007874015748},{"duration":0.31249950000000126,"midi":65,"time":53.333248,"velocity":0.5039370078740157},{"duration":0.31249950000000126,"midi":60,"time":53.333248,"velocity":0.5039370078740157},{"duration":0.10416649999999805,"midi":38,"time":53.333248,"velocity":0.5039370078740157},{"duration":0.10416650000000516,"midi":45,"time":53.437414499999996,"velocity":0.3937007874015748},{"duration":0.10416649999999805,"midi":41,"time":53.541581,"velocity":0.3937007874015748},{"duration":0.034722166666668386,"midi":72,"time":53.6457475,"velocity":0.5039370078740157},{"duration":0.10416649999999805,"midi":45,"time":53.6457475,"velocity":0.3937007874015748},{"duration":0.03472216666666128,"midi":74,"time":53.68046966666667,"velocity":0.5039370078740157},{"duration":0.034722166666668386,"midi":75,"time":53.71519183333333,"velocity":0.5039370078740157},{"duration":0.10416649999999805,"midi":38,"time":53.749914,"velocity":0.5039370078740157},{"duration":0.4166659999999993,"midi":67,"time":53.749914,"velocity":0.5039370078740157},{"duration":0.4166659999999993,"midi":76,"time":53.749914,"velocity":0.5039370078740157},{"duration":0.10416650000000516,"midi":45,"time":53.854080499999995,"velocity":0.3937007874015748},{"duration":0.10416649999999805,"midi":41,"time":53.958247,"velocity":0.3937007874015748},{"duration":0.10416649999999805,"midi":45,"time":54.0624135,"velocity":0.3937007874015748},{"duration":0.10416649999999805,"midi":38,"time":54.166579999999996,"velocity":0.5039370078740157},{"duration":0.2083330000000032,"midi":74,"time":54.166579999999996,"velocity":0.5039370078740157},{"duration":0.2083330000000032,"midi":65,"time":54.166579999999996,"velocity":0.5039370078740157},{"duration":0.10416650000000516,"midi":45,"time":54.270746499999994,"velocity":0.3937007874015748},{"duration":0.10416649999999805,"midi":41,"time":54.374913,"velocity":0.3937007874015748},{"duration":0.2083329999999961,"midi":72,"time":54.374913,"velocity":0.5039370078740157},{"duration":0.2083329999999961,"midi":64,"time":54.374913,"velocity":0.5039370078740157},{"duration":0.10416649999999805,"midi":45,"time":54.4790795,"velocity":0.3937007874015748},{"duration":0.2083330000000032,"midi":71,"time":54.583245999999995,"velocity":0.5039370078740157},{"duration":0.10416650000000516,"midi":38,"time":54.583245999999995,"velocity":0.5039370078740157},{"duration":0.2083330000000032,"midi":62,"time":54.583245999999995,"velocity":0.5039370078740157},{"duration":0.10416649999999805,"midi":40,"time":54.6874125,"velocity":0.3937007874015748},{"duration":0.2083329999999961,"midi":64,"time":54.791579,"velocity":0.5039370078740157},{"duration":0.10416649999999805,"midi":43,"time":54.791579,"velocity":0.3937007874015748},{"duration":0.2083329999999961,"midi":72,"time":54.791579,"velocity":0.5039370078740157},{"duration":0.10416649999999805,"midi":44,"time":54.8957455,"velocity":0.3937007874015748},{"duration":0.31249950000000126,"midi":64,"time":54.999911999999995,"velocity":0.5039370078740157},{"duration":0.31249950000000126,"midi":60,"time":54.999911999999995,"velocity":0.5039370078740157},{"duration":0.2083330000000032,"midi":45,"time":54.999911999999995,"velocity":0.5039370078740157},{"duration":0.10416649999999805,"midi":45,"time":55.208245,"velocity":0.3937007874015748},{"duration":0.03472216666667549,"midi":72,"time":55.312411499999996,"velocity":0.5039370078740157},{"duration":0.10416649999999805,"midi":52,"time":55.312411499999996,"velocity":0.3937007874015748},{"duration":0.034722166666654175,"midi":74,"time":55.34713366666667,"velocity":0.5039370078740157},{"duration":0.034722166666668386,"midi":75,"time":55.381855833333326,"velocity":0.5039370078740157},{"duration":1.249998000000005,"midi":69,"time":55.416577999999994,"velocity":0.5039370078740157},{"duration":0.10416650000000516,"midi":45,"time":55.416577999999994,"velocity":0.5039370078740157},{"duration":1.249998000000005,"midi":76,"time":55.416577999999994,"velocity":0.5039370078740157},{"duration":0.10416649999999805,"midi":52,"time":55.5207445,"velocity":0.3937007874015748},{"duration":0.10416649999999805,"midi":48,"time":55.624911,"velocity":0.3937007874015748},{"duration":0.10416650000000516,"midi":52,"time":55.729077499999995,"velocity":0.3937007874015748},{"duration":0.10416649999999805,"midi":45,"time":55.833244,"velocity":0.5039370078740157},{"duration":0.10416649999999805,"midi":52,"time":55.9374105,"velocity":0.3937007874015748},{"duration":0.10416649999999805,"midi":48,"time":56.041577,"velocity":0.3937007874015748},{"duration":0.10416650000000516,"midi":52,"time":56.145743499999995,"velocity":0.3937007874015748},{"duration":0.10416649999999805,"midi":45,"time":56.24991,"velocity":0.5039370078740157},{"duration":0.10416649999999805,"midi":52,"time":56.3540765,"velocity":0.3937007874015748},{"duration":0.10416649999999805,"midi":48,"time":56.458242999999996,"velocity":0.3937007874015748},{"duration":0.10416650000000516,"midi":52,"time":56.562409499999994,"velocity":0.3937007874015748},{"duration":0.10416649999999805,"midi":42,"time":56.666576,"velocity":0.5039370078740157},{"duration":0.4166659999999993,"midi":69,"time":56.666576,"velocity":0.5039370078740157},{"duration":0.4166659999999993,"midi":75,"time":56.666576,"velocity":0.5039370078740157},{"duration":0.10416649999999805,"midi":51,"time":56.7707425,"velocity":0.3937007874015748},{"duration":0.10416650000000516,"midi":47,"time":56.874908999999995,"velocity":0.3937007874015748},{"duration":0.10416649999999805,"midi":51,"time":56.9790755,"velocity":0.3937007874015748},{"duration":0.10416649999999805,"midi":42,"time":57.083242,"velocity":0.5039370078740157},{"duration":0.4166659999999993,"midi":63,"time":57.083242,"velocity":0.5039370078740157},{"duration":0.4166659999999993,"midi":72,"time":57.083242,"velocity":0.5039370078740157},{"duration":0.10416649999999805,"midi":51,"time":57.1874085,"velocity":0.3937007874015748},{"duration":0.10416650000000516,"midi":47,"time":57.291574999999995,"velocity":0.3937007874015748},{"duration":0.10416649999999805,"midi":51,"time":57.3957415,"velocity":0.3937007874015748},{"duration":0.10416649999999805,"midi":42,"time":57.499908,"velocity":0.5039370078740157},{"duration":0.2083329999999961,"midi":71,"time":57.499908,"velocity":0.5039370078740157},{"duration":0.2083329999999961,"midi":62,"time":57.499908,"velocity":0.5039370078740157},{"duration":0.10416649999999805,"midi":51,"time":57.604074499999996,"velocity":0.3937007874015748},{"duration":0.2083330000000032,"midi":60,"time":57.708240999999994,"velocity":0.5039370078740157},{"duration":0.2083330000000032,"midi":69,"time":57.708240999999994,"velocity":0.5039370078740157},{"duration":0.10416650000000516,"midi":47,"time":57.708240999999994,"velocity":0.3937007874015748},{"duration":0.10416649999999805,"midi":51,"time":57.8124075,"velocity":0.3937007874015748},{"duration":0.2083330000000032,"midi":68,"time":57.916574,"velocity":0.5039370078740157},{"duration":0.10416649999999805,"midi":42,"time":57.916574,"velocity":0.5039370078740157},{"duration":0.2083330000000032,"midi":59,"time":57.916574,"velocity":0.5039370078740157},{"duration":0.10416650000000516,"midi":47,"time":58.020740499999995,"velocity":0.3937007874015748},{"duration":0.2083329999999961,"midi":69,"time":58.124907,"velocity":0.5039370078740157},{"duration":0.2083329999999961,"midi":60,"time":58.124907,"velocity":0.5039370078740157},{"duration":0.10416649999999805,"midi":54,"time":58.124907,"velocity":0.3937007874015748},{"duration":0.10416649999999805,"midi":51,"time":58.2290735,"velocity":0.3937007874015748},{"duration":0.6249990000000025,"midi":71,"time":58.333239999999996,"velocity":0.5039370078740157},{"duration":0.6249990000000025,"midi":62,"time":58.333239999999996,"velocity":0.5039370078740157},{"duration":0.10416649999999805,"midi":44,"time":58.333239999999996,"velocity":0.5039370078740157},{"duration":0.10416650000000516,"midi":52,"time":58.437406499999994,"velocity":0.3937007874015748},{"duration":0.10416649999999805,"midi":50,"time":58.541573,"velocity":0.3937007874015748},{"duration":0.10416649999999805,"midi":52,"time":58.6457395,"velocity":0.3937007874015748},{"duration":0.10416649999999805,"midi":44,"time":58.749905999999996,"velocity":0.5039370078740157},{"duration":0.10416650000000516,"midi":52,"time":58.854072499999994,"velocity":0.3937007874015748},{"duration":0.10416649999999805,"midi":66,"time":58.958239,"velocity":0.5039370078740157},{"duration":0.10416649999999805,"midi":47,"time":58.958239,"velocity":0.3937007874015748},{"duration":0.10416649999999805,"midi":74,"time":58.958239,"velocity":0.5039370078740157},{"duration":0.10416649999999805,"midi":75,"time":59.0624055,"velocity":0.5039370078740157},{"duration":0.10416649999999805,"midi":67,"time":59.0624055,"velocity":0.5039370078740157},{"duration":0.10416649999999805,"midi":52,"time":59.0624055,"velocity":0.3937007874015748},{"duration":0.8333320000000057,"midi":76,"time":59.166571999999995,"velocity":0.5039370078740157},{"duration":0.10416650000000516,"midi":44,"time":59.166571999999995,"velocity":0.5039370078740157},{"duration":0.8333320000000057,"midi":68,"time":59.166571999999995,"velocity":0.5039370078740157},{"duration":0.10416649999999805,"midi":52,"time":59.2707385,"velocity":0.3937007874015748},{"duration":0.10416649999999805,"midi":50,"time":59.374905,"velocity":0.3937007874015748},{"duration":0.10416649999999805,"midi":52,"time":59.479071499999996,"velocity":0.3937007874015748},{"duration":0.10416650000000516,"midi":55,"time":59.583237999999994,"velocity":0.5039370078740157},{"duration":0.10416649999999805,"midi":44,"time":59.6874045,"velocity":0.3937007874015748},{"duration":0.10416649999999805,"midi":52,"time":59.791571,"velocity":0.3937007874015748},{"duration":0.10416650000000516,"midi":40,"time":59.895737499999996,"velocity":0.3937007874015748},{"duration":0.31249949999999416,"midi":65,"time":59.999904,"velocity":0.5039370078740157},{"duration":0.31249949999999416,"midi":60,"time":59.999904,"velocity":0.5039370078740157},{"duration":0.10416649999999805,"midi":48,"time":59.999904,"velocity":0.5039370078740157},{"duration":0.10416649999999805,"midi":57,"time":60.1040705,"velocity":0.3937007874015748},{"duration":0.10416649999999805,"midi":53,"time":60.208237,"velocity":0.3937007874015748},{"duration":0.03472216666667549,"midi":72,"time":60.312403499999995,"velocity":0.5039370078740157},{"duration":0.10416650000000516,"midi":57,"time":60.312403499999995,"velocity":0.3937007874015748},{"duration":0.034722166666654175,"midi":74,"time":60.34712566666667,"velocity":0.5039370078740157},{"duration":0.03472216666667549,"midi":75,"time":60.381847833333325,"velocity":0.5039370078740157},{"duration":0.4166659999999993,"midi":67,"time":60.41657,"velocity":0.5039370078740157},{"duration":0.4166659999999993,"midi":76,"time":60.41657,"velocity":0.5039370078740157},{"duration":0.10416649999999805,"midi":48,"time":60.41657,"velocity":0.5039370078740157},{"duration":0.10416649999999805,"midi":57,"time":60.5207365,"velocity":0.3937007874015748},{"duration":0.10416649999999805,"midi":53,"time":60.624902999999996,"velocity":0.3937007874015748},{"duration":0.10416650000000516,"midi":57,"time":60.729069499999994,"velocity":0.3937007874015748},{"duration":0.10416649999999805,"midi":48,"time":60.833236,"velocity":0.5039370078740157},{"duration":0.2083329999999961,"midi":74,"time":60.833236,"velocity":0.5039370078740157},{"duration":0.2083329999999961,"midi":65,"time":60.833236,"velocity":0.5039370078740157},{"duration":0.10416649999999805,"midi":57,"time":60.9374025,"velocity":0.3937007874015748},{"duration":0.2083330000000032,"midi":72,"time":61.041568999999996,"velocity":0.5039370078740157},{"duration":0.2083330000000032,"midi":64,"time":61.041568999999996,"velocity":0.5039370078740157},{"duration":0.10416650000000516,"midi":53,"time":61.041568999999996,"velocity":0.3937007874015748},{"duration":0.10416649999999805,"midi":57,"time":61.1457355,"velocity":0.3937007874015748},{"duration":0.10416649999999805,"midi":48,"time":61.249902,"velocity":0.5039370078740157},{"duration":0.2083329999999961,"midi":71,"time":61.249902,"velocity":0.5039370078740157},{"duration":0.2083329999999961,"midi":62,"time":61.249902,"velocity":0.5039370078740157},{"duration":0.10416649999999805,"midi":57,"time":61.3540685,"velocity":0.3937007874015748},{"duration":0.2083330000000032,"midi":64,"time":61.458234999999995,"velocity":0.5039370078740157},{"duration":0.2083330000000032,"midi":72,"time":61.458234999999995,"velocity":0.5039370078740157},{"duration":0.10416650000000516,"midi":53,"time":61.458234999999995,"velocity":0.3937007874015748},{"duration":0.10416649999999805,"midi":57,"time":61.5624015,"velocity":0.3937007874015748},{"duration":0.31249950000000126,"midi":64,"time":61.666568,"velocity":0.3937007874015748},{"duration":0.31249950000000126,"midi":45,"time":61.666568,"velocity":0.3937007874015748},{"duration":0.31249950000000126,"midi":60,"time":61.666568,"velocity":0.3937007874015748},{"duration":0.31249950000000126,"midi":81,"time":61.666568,"velocity":0.5039370078740157},{"duration":0.31249950000000126,"midi":72,"time":61.666568,"velocity":0.5039370078740157},{"duration":0.31249950000000126,"midi":76,"time":61.666568,"velocity":0.5039370078740157},{"duration":0.10416649999999805,"midi":60,"time":61.9790675,"velocity":0.3937007874015748},{"duration":0.10416649999999805,"midi":57,"time":61.9790675,"velocity":0.3937007874015748},{"duration":0.10416649999999805,"midi":72,"time":61.9790675,"velocity":0.5039370078740157},{"duration":0.10416649999999805,"midi":76,"time":61.9790675,"velocity":0.5039370078740157},{"duration":0.10416649999999805,"midi":69,"time":61.9790675,"velocity":0.5039370078740157},{"duration":0.10416649999999805,"midi":47,"time":61.9790675,"velocity":0.3937007874015748},{"duration":0.31249949999999416,"midi":57,"time":62.291567,"velocity":0.3937007874015748},{"duration":0.31249949999999416,"midi":60,"time":62.291567,"velocity":0.3937007874015748},{"duration":0.31249949999999416,"midi":48,"time":62.291567,"velocity":0.3937007874015748},{"duration":0.6249989999999954,"midi":76,"time":62.291567,"velocity":0.5039370078740157},{"duration":0.6249989999999954,"midi":72,"time":62.291567,"velocity":0.5039370078740157},{"duration":0.6249989999999954,"midi":69,"time":62.291567,"velocity":0.5039370078740157},{"duration":0.10416650000000516,"midi":64,"time":62.604066499999995,"velocity":0.3937007874015748},{"duration":0.10416649999999805,"midi":60,"time":62.708233,"velocity":0.3937007874015748},{"duration":0.10416649999999805,"midi":64,"time":62.8123995,"velocity":0.3937007874015748},{"duration":0.10416649999999805,"midi":57,"time":62.916565999999996,"velocity":0.5039370078740157},{"duration":0.2083330000000032,"midi":74,"time":62.916565999999996,"velocity":0.5039370078740157},{"duration":0.2083330000000032,"midi":68,"time":62.916565999999996,"velocity":0.5039370078740157},{"duration":0.10416650000000516,"midi":64,"time":63.020732499999994,"velocity":0.3937007874015748},{"duration":0.2083329999999961,"midi":69,"time":63.124899,"velocity":0.5039370078740157},{"duration":0.2083329999999961,"midi":72,"time":63.124899,"velocity":0.5039370078740157},{"duration":0.10416649999999805,"midi":62,"time":63.124899,"velocity":0.3937007874015748},{"duration":0.10416649999999805,"midi":60,"time":63.2290655,"velocity":0.3937007874015748},{"duration":0.2083330000000032,"midi":54,"time":63.333231999999995,"velocity":0.3937007874015748},{"duration":0.31249950000000126,"midi":75,"time":63.333231999999995,"velocity":0.5039370078740157},{"duration":0.31249950000000126,"midi":72,"time":63.333231999999995,"velocity":0.5039370078740157},{"duration":0.2083330000000032,"midi":57,"time":63.333231999999995,"velocity":0.3937007874015748},{"duration":0.2083330000000032,"midi":51,"time":63.333231999999995,"velocity":0.3937007874015748},{"duration":0.10416649999999805,"midi":69,"time":63.6457315,"velocity":0.5039370078740157},{"duration":0.10416649999999805,"midi":72,"time":63.6457315,"velocity":0.5039370078740157},{"duration":0.2083329999999961,"midi":51,"time":63.958231,"velocity":0.3937007874015748},{"duration":0.2083329999999961,"midi":57,"time":63.958231,"velocity":0.3937007874015748},{"duration":0.2083329999999961,"midi":68,"time":63.958231,"velocity":0.5039370078740157},{"duration":0.2083329999999961,"midi":71,"time":63.958231,"velocity":0.5039370078740157},{"duration":0.2083329999999961,"midi":54,"time":63.958231,"velocity":0.3937007874015748},{"duration":0.31249950000000126,"midi":64,"time":64.166564,"velocity":0.5039370078740157},{"duration":0.31249950000000126,"midi":69,"time":64.166564,"velocity":0.5039370078740157},{"duration":0.2083329999999961,"midi":53,"time":64.166564,"velocity":0.3937007874015748},{"duration":0.2083329999999961,"midi":50,"time":64.166564,"velocity":0.3937007874015748},{"duration":0.10416650000000516,"midi":68,"time":64.4790635,"velocity":0.5039370078740157},{"duration":0.10416650000000516,"midi":62,"time":64.4790635,"velocity":0.5039370078740157},{"duration":0.10416650000000516,"midi":66,"time":64.791563,"velocity":0.5039370078740157},{"duration":0.10416650000000516,"midi":57,"time":64.791563,"velocity":0.5039370078740157},{"duration":0.2083329999999961,"midi":50,"time":64.791563,"velocity":0.3937007874015748},{"duration":0.2083329999999961,"midi":53,"time":64.791563,"velocity":0.3937007874015748},{"duration":0.10416649999999095,"midi":59,"time":64.8957295,"velocity":0.5039370078740157},{"duration":0.10416649999999095,"midi":68,"time":64.8957295,"velocity":0.5039370078740157},{"duration":1.249998000000005,"midi":69,"time":64.99989599999999,"velocity":0.5039370078740157},{"duration":1.249998000000005,"midi":60,"time":64.99989599999999,"velocity":0.5039370078740157},{"duration":1.6666640000000115,"midi":52,"time":64.99989599999999,"velocity":0.3937007874015748},{"duration":1.6666640000000115,"midi":48,"time":64.99989599999999,"velocity":0.3937007874015748},{"duration":0.10416650000000516,"midi":81,"time":66.458227,"velocity":0.5039370078740157},{"duration":0.05208324999999547,"midi":90,"time":66.66656,"velocity":0.5039370078740157},{"duration":0.4166659999999922,"midi":57,"time":66.66656,"velocity":0.3937007874015748},{"duration":0.36458274999999674,"midi":91,"time":66.71864325,"velocity":0.5039370078740157},{"duration":0.36458274999999674,"midi":79,"time":66.71864325,"velocity":0.5039370078740157},{"duration":0.4166660000000064,"midi":76,"time":67.083226,"velocity":0.3937007874015748},{"duration":0.4166660000000064,"midi":69,"time":67.083226,"velocity":0.3937007874015748},{"duration":0.4166660000000064,"midi":72,"time":67.083226,"velocity":0.3937007874015748},{"duration":0.10416650000000516,"midi":81,"time":67.29155899999999,"velocity":0.5039370078740157},{"duration":0.4166659999999922,"midi":57,"time":67.499892,"velocity":0.3937007874015748},{"duration":0.05208324999999547,"midi":88,"time":67.499892,"velocity":0.5039370078740157},{"duration":0.36458274999999674,"midi":78,"time":67.55197525,"velocity":0.5039370078740157},{"duration":0.36458274999999674,"midi":90,"time":67.55197525,"velocity":0.5039370078740157},{"duration":0.4166660000000064,"midi":66,"time":67.916558,"velocity":0.3937007874015748},{"duration":0.4166660000000064,"midi":69,"time":67.916558,"velocity":0.3937007874015748},{"duration":0.4166660000000064,"midi":75,"time":67.916558,"velocity":0.3937007874015748},{"duration":0.10416650000000516,"midi":81,"time":68.12489099999999,"velocity":0.5039370078740157},{"duration":0.31249950000000126,"midi":89,"time":68.333224,"velocity":0.5039370078740157},{"duration":0.4166659999999922,"midi":56,"time":68.333224,"velocity":0.3937007874015748},{"duration":0.31249950000000126,"midi":77,"time":68.333224,"velocity":0.5039370078740157},{"duration":0.10416649999999095,"midi":88,"time":68.6457235,"velocity":0.5039370078740157},{"duration":0.10416649999999095,"midi":76,"time":68.6457235,"velocity":0.5039370078740157},{"duration":0.4166660000000064,"midi":68,"time":68.74989,"velocity":0.3937007874015748},{"duration":0.4166660000000064,"midi":72,"time":68.74989,"velocity":0.3937007874015748},{"duration":0.4166660000000064,"midi":74,"time":68.74989,"velocity":0.3937007874015748},{"duration":0.2083329999999961,"midi":75,"time":68.958223,"velocity":0.5039370078740157},{"duration":0.2083329999999961,"midi":87,"time":68.958223,"velocity":0.5039370078740157},{"duration":0.4166659999999922,"midi":56,"time":69.166556,"velocity":0.3937007874015748},{"duration":0.4166659999999922,"midi":88,"time":69.166556,"velocity":0.5039370078740157},{"duration":0.4166659999999922,"midi":76,"time":69.166556,"velocity":0.5039370078740157},{"duration":0.4166660000000064,"midi":72,"time":69.58322199999999,"velocity":0.3937007874015748},{"duration":0.4166660000000064,"midi":76,"time":69.58322199999999,"velocity":0.3937007874015748},{"duration":0.4166660000000064,"midi":69,"time":69.58322199999999,"velocity":0.3937007874015748},{"duration":0.10416649999999095,"midi":81,"time":69.791555,"velocity":0.5039370078740157},{"duration":1.249998000000005,"midi":57,"time":69.999888,"velocity":0.3937007874015748},{"duration":1.249998000000005,"midi":65,"time":69.999888,"velocity":0.3937007874015748},{"duration":0.31249950000000126,"midi":86,"time":69.999888,"velocity":0.5039370078740157},{"duration":1.249998000000005,"midi":62,"time":69.999888,"velocity":0.3937007874015748},{"duration":1.249998000000005,"midi":69,"time":69.999888,"velocity":0.3937007874015748},{"duration":0.10416649999999095,"midi":84,"time":70.3123875,"velocity":0.5039370078740157},{"duration":0.2083329999999961,"midi":83,"time":70.624887,"velocity":0.5039370078740157},{"duration":0.4166660000000064,"midi":84,"time":70.83322,"velocity":0.5039370078740157},{"duration":0.4166659999999922,"midi":72,"time":71.249886,"velocity":0.3937007874015748},{"duration":0.4166659999999922,"midi":89,"time":71.249886,"velocity":0.5039370078740157},{"duration":0.31249950000000126,"midi":88,"time":71.666552,"velocity":0.5039370078740157},{"duration":0.4166660000000064,"midi":64,"time":71.666552,"velocity":0.3937007874015748},{"duration":0.4166660000000064,"midi":68,"time":71.666552,"velocity":0.3937007874015748},{"duration":0.4166660000000064,"midi":71,"time":71.666552,"velocity":0.3937007874015748},{"duration":0.31249950000000126,"midi":76,"time":71.666552,"velocity":0.5039370078740157},{"duration":0.31249950000000126,"midi":80,"time":71.666552,"velocity":0.5039370078740157},{"duration":0.10416650000000516,"midi":77,"time":71.9790515,"velocity":0.5039370078740157},{"duration":0.10416650000000516,"midi":89,"time":71.9790515,"velocity":0.5039370078740157},{"duration":0.10416650000000516,"midi":81,"time":71.9790515,"velocity":0.5039370078740157},{"duration":0.10416650000000516,"midi":69,"time":72.291551,"velocity":0.3937007874015748},{"duration":0.6249990000000025,"midi":88,"time":72.291551,"velocity":0.5039370078740157},{"duration":0.6249990000000025,"midi":80,"time":72.291551,"velocity":0.5039370078740157},{"duration":0.6249990000000025,"midi":76,"time":72.291551,"velocity":0.5039370078740157},{"duration":0.10416649999999095,"midi":70,"time":72.3957175,"velocity":0.3937007874015748},{"duration":0.8333319999999986,"midi":71,"time":72.499884,"velocity":0.3937007874015748},{"duration":0.8333319999999986,"midi":64,"time":72.499884,"velocity":0.3937007874015748},{"duration":0.10416650000000516,"midi":69,"time":73.124883,"velocity":0.5039370078740157},{"duration":0.4166660000000064,"midi":45,"time":73.333216,"velocity":0.3937007874015748},{"duration":0.052083250000009684,"midi":78,"time":73.333216,"velocity":0.5039370078740157},{"duration":0.36458274999999674,"midi":79,"time":73.38529925,"velocity":0.5039370078740157},{"duration":0.36458274999999674,"midi":67,"time":73.38529925,"velocity":0.5039370078740157},{"duration":0.4166659999999922,"midi":57,"time":73.749882,"velocity":0.3937007874015748},{"duration":0.4166659999999922,"midi":55,"time":73.749882,"velocity":0.3937007874015748},{"duration":0.4166659999999922,"midi":64,"time":73.749882,"velocity":0.3937007874015748},{"duration":0.10416650000000516,"midi":69,"time":73.958215,"velocity":0.5039370078740157},{"duration":0.052083250000009684,"midi":76,"time":74.16654799999999,"velocity":0.5039370078740157},{"duration":0.4166660000000064,"midi":45,"time":74.16654799999999,"velocity":0.3937007874015748},{"duration":0.36458274999999674,"midi":66,"time":74.21863125,"velocity":0.5039370078740157},{"duration":0.36458274999999674,"midi":78,"time":74.21863125,"velocity":0.5039370078740157},{"duration":0.4166659999999922,"midi":63,"time":74.583214,"velocity":0.3937007874015748},{"duration":0.4166659999999922,"midi":57,"time":74.583214,"velocity":0.3937007874015748},{"duration":0.4166659999999922,"midi":54,"time":74.583214,"velocity":0.3937007874015748},{"duration":0.10416650000000516,"midi":69,"time":74.791547,"velocity":0.5039370078740157},{"duration":0.31249950000000126,"midi":65,"time":74.99987999999999,"velocity":0.5039370078740157},{"duration":0.31249950000000126,"midi":77,"time":74.99987999999999,"velocity":0.5039370078740157},{"duration":0.6249990000000025,"midi":56,"time":74.99987999999999,"velocity":0.3937007874015748},{"duration":0.6249990000000025,"midi":60,"time":74.99987999999999,"velocity":0.3937007874015748},{"duration":0.6249990000000025,"midi":62,"time":74.99987999999999,"velocity":0.3937007874015748},{"duration":0.10416650000000516,"midi":64,"time":75.31237949999999,"velocity":0.5039370078740157},{"duration":0.10416650000000516,"midi":76,"time":75.31237949999999,"velocity":0.5039370078740157},{"duration":0.20833300000001032,"midi":63,"time":75.62487899999999,"velocity":0.5039370078740157},{"duration":0.20833300000001032,"midi":75,"time":75.62487899999999,"velocity":0.5039370078740157},{"duration":0.10416650000000516,"midi":60,"time":75.62487899999999,"velocity":0.3937007874015748},{"duration":0.10416650000000516,"midi":62,"time":75.7290455,"velocity":0.3937007874015748},{"duration":0.4166659999999922,"midi":57,"time":75.833212,"velocity":0.3937007874015748},{"duration":0.4166659999999922,"midi":76,"time":75.833212,"velocity":0.5039370078740157},{"duration":0.4166659999999922,"midi":64,"time":75.833212,"velocity":0.5039370078740157},{"duration":0.4166659999999922,"midi":64,"time":75.833212,"velocity":0.3937007874015748},{"duration":0.4166659999999922,"midi":60,"time":75.833212,"velocity":0.3937007874015748},{"duration":0.4166660000000064,"midi":62,"time":76.249878,"velocity":0.3937007874015748},{"duration":0.4166660000000064,"midi":55,"time":76.249878,"velocity":0.3937007874015748},{"duration":0.10416650000000516,"midi":69,"time":76.45821099999999,"velocity":0.5039370078740157},{"duration":0.31249950000000126,"midi":74,"time":76.666544,"velocity":0.5039370078740157},{"duration":0.8333319999999986,"midi":57,"time":76.666544,"velocity":0.3937007874015748},{"duration":0.8333319999999986,"midi":53,"time":76.666544,"velocity":0.3937007874015748},{"duration":0.8333319999999986,"midi":50,"time":76.666544,"velocity":0.3937007874015748},{"duration":0.31249950000000126,"midi":62,"time":76.666544,"velocity":0.5039370078740157},{"duration":0.10416649999999095,"midi":60,"time":76.9790435,"velocity":0.5039370078740157},{"duration":0.10416649999999095,"midi":72,"time":76.9790435,"velocity":0.5039370078740157},{"duration":0.20833300000001032,"midi":59,"time":77.29154299999999,"velocity":0.5039370078740157},{"duration":0.20833300000001032,"midi":71,"time":77.29154299999999,"velocity":0.5039370078740157},{"duration":0.10416649999999095,"midi":60,"time":77.499876,"velocity":0.5039370078740157},{"duration":0.4166659999999922,"midi":72,"time":77.499876,"velocity":0.5039370078740157},{"duration":0.4166659999999922,"midi":56,"time":77.499876,"velocity":0.3937007874015748},{"duration":0.4166659999999922,"midi":52,"time":77.499876,"velocity":0.3937007874015748},{"duration":0.4166659999999922,"midi":60,"time":77.499876,"velocity":0.3937007874015748},{"duration":0.10416650000000516,"midi":62,"time":77.60404249999999,"velocity":0.3937007874015748},{"duration":0.2083329999999961,"midi":60,"time":77.708209,"velocity":0.3937007874015748},{"duration":0.4166660000000064,"midi":68,"time":77.91654199999999,"velocity":0.5039370078740157},{"duration":0.4166660000000064,"midi":64,"time":77.91654199999999,"velocity":0.5039370078740157},{"duration":0.2083329999999961,"midi":56,"time":78.124875,"velocity":0.3937007874015748},{"duration":0.4166659999999922,"midi":57,"time":78.333208,"velocity":0.3937007874015748},{"duration":1.2499979999999908,"midi":64,"time":78.333208,"velocity":0.5039370078740157},{"duration":1.2499979999999908,"midi":60,"time":78.333208,"velocity":0.5039370078740157},{"duration":1.2499979999999908,"midi":69,"time":78.333208,"velocity":0.5039370078740157},{"duration":0.4166660000000064,"midi":55,"time":78.74987399999999,"velocity":0.3937007874015748},{"duration":0.4166659999999922,"midi":53,"time":79.16654,"velocity":0.3937007874015748},{"duration":0.4166660000000064,"midi":52,"time":79.58320599999999,"velocity":0.3937007874015748},{"duration":0.10416649999999095,"midi":69,"time":79.791539,"velocity":0.5039370078740157},{"duration":0.10416650000000516,"midi":45,"time":79.999872,"velocity":0.5039370078740157},{"duration":0.05208324999999547,"midi":78,"time":79.999872,"velocity":0.5039370078740157},{"duration":0.36458275000001095,"midi":76,"time":80.05195524999999,"velocity":0.5039370078740157},{"duration":0.36458275000001095,"midi":72,"time":80.05195524999999,"velocity":0.5039370078740157},{"duration":0.36458275000001095,"midi":69,"time":80.05195524999999,"velocity":0.5039370078740157},{"duration":0.36458275000001095,"midi":79,"time":80.05195524999999,"velocity":0.5039370078740157},{"duration":0.10416649999999095,"midi":57,"time":80.1040385,"velocity":0.3937007874015748},{"duration":0.10416650000000516,"midi":47,"time":80.20820499999999,"velocity":0.3937007874015748},{"duration":0.10416650000000516,"midi":57,"time":80.3123715,"velocity":0.3937007874015748},{"duration":0.10416649999999095,"midi":48,"time":80.416538,"velocity":0.5039370078740157},{"duration":0.10416650000000516,"midi":57,"time":80.5207045,"velocity":0.3937007874015748},{"duration":0.10416649999999095,"midi":50,"time":80.624871,"velocity":0.3937007874015748},{"duration":0.10416649999999095,"midi":69,"time":80.624871,"velocity":0.5039370078740157},{"duration":0.10416650000000516,"midi":57,"time":80.72903749999999,"velocity":0.3937007874015748},{"duration":0.05208324999999547,"midi":77,"time":80.833204,"velocity":0.5039370078740157},{"duration":0.10416650000000516,"midi":52,"time":80.833204,"velocity":0.5039370078740157},{"duration":0.36458275000001095,"midi":78,"time":80.88528724999999,"velocity":0.5039370078740157},{"duration":0.36458275000001095,"midi":72,"time":80.88528724999999,"velocity":0.5039370078740157},{"duration":0.36458275000001095,"midi":69,"time":80.88528724999999,"velocity":0.5039370078740157},{"duration":0.36458275000001095,"midi":75,"time":80.88528724999999,"velocity":0.5039370078740157},{"duration":0.10416649999999095,"midi":57,"time":80.9373705,"velocity":0.3937007874015748},{"duration":0.10416650000000516,"midi":50,"time":81.04153699999999,"velocity":0.3937007874015748},{"duration":0.10416650000000516,"midi":57,"time":81.1457035,"velocity":0.3937007874015748},{"duration":0.10416649999999095,"midi":48,"time":81.24987,"velocity":0.5039370078740157},{"duration":0.10416650000000516,"midi":57,"time":81.35403649999999,"velocity":0.3937007874015748},{"duration":0.10416650000000516,"midi":47,"time":81.458203,"velocity":0.3937007874015748},{"duration":0.10416650000000516,"midi":69,"time":81.458203,"velocity":0.5039370078740157},{"duration":0.10416649999999095,"midi":57,"time":81.5623695,"velocity":0.3937007874015748},{"duration":0.31249950000000126,"midi":69,"time":81.666536,"velocity":0.5039370078740157},{"duration":0.10416650000000516,"midi":41,"time":81.666536,"velocity":0.5039370078740157},{"duration":0.31249950000000126,"midi":77,"time":81.666536,"velocity":0.5039370078740157},{"duration":0.31249950000000126,"midi":74,"time":81.666536,"velocity":0.5039370078740157},{"duration":0.10416649999999095,"midi":50,"time":81.7707025,"velocity":0.3937007874015748},{"duration":0.10416650000000516,"midi":45,"time":81.87486899999999,"velocity":0.3937007874015748},{"duration":0.10416650000000516,"midi":76,"time":81.9790355,"velocity":0.5039370078740157},{"duration":0.10416650000000516,"midi":50,"time":81.9790355,"velocity":0.3937007874015748},{"duration":0.10416649999999095,"midi":41,"time":82.083202,"velocity":0.5039370078740157},{"duration":0.10416650000000516,"midi":50,"time":82.18736849999999,"velocity":0.3937007874015748},{"duration":0.2083329999999961,"midi":75,"time":82.291535,"velocity":0.5039370078740157},{"duration":0.10416650000000516,"midi":45,"time":82.291535,"velocity":0.3937007874015748},{"duration":0.10416649999999095,"midi":50,"time":82.3957015,"velocity":0.3937007874015748},{"duration":0.4166660000000064,"midi":64,"time":82.49986799999999,"velocity":0.5039370078740157},{"duration":0.10416650000000516,"midi":40,"time":82.49986799999999,"velocity":0.5039370078740157},{"duration":0.4166660000000064,"midi":69,"time":82.49986799999999,"velocity":0.5039370078740157},{"duration":0.4166660000000064,"midi":72,"time":82.49986799999999,"velocity":0.5039370078740157},{"duration":0.4166660000000064,"midi":76,"time":82.49986799999999,"velocity":0.5039370078740157},{"duration":0.10416650000000516,"midi":48,"time":82.6040345,"velocity":0.3937007874015748},{"duration":0.10416649999999095,"midi":45,"time":82.708201,"velocity":0.3937007874015748},{"duration":0.10416650000000516,"midi":48,"time":82.8123675,"velocity":0.3937007874015748},{"duration":0.10416649999999095,"midi":40,"time":82.916534,"velocity":0.5039370078740157},{"duration":0.10416650000000516,"midi":48,"time":83.02070049999999,"velocity":0.3937007874015748},{"duration":0.10416650000000516,"midi":45,"time":83.124867,"velocity":0.3937007874015748},{"duration":0.10416650000000516,"midi":69,"time":83.124867,"velocity":0.5039370078740157},{"duration":0.10416649999999095,"midi":48,"time":83.2290335,"velocity":0.3937007874015748},{"duration":0.10416650000000516,"midi":38,"time":83.33319999999999,"velocity":0.5039370078740157},{"duration":0.31249950000000126,"midi":74,"time":83.33319999999999,"velocity":0.5039370078740157},{"duration":0.31249950000000126,"midi":62,"time":83.33319999999999,"velocity":0.5039370078740157},{"duration":0.31249950000000126,"midi":65,"time":83.33319999999999,"velocity":0.5039370078740157},{"duration":0.31249950000000126,"midi":69,"time":83.33319999999999,"velocity":0.5039370078740157},{"duration":0.10416650000000516,"midi":45,"time":83.4373665,"velocity":0.3937007874015748},{"duration":0.10416649999999095,"midi":41,"time":83.541533,"velocity":0.3937007874015748},{"duration":0.10416650000000516,"midi":45,"time":83.64569949999999,"velocity":0.3937007874015748},{"duration":0.10416650000000516,"midi":72,"time":83.64569949999999,"velocity":0.5039370078740157},{"duration":0.10416650000000516,"midi":60,"time":83.64569949999999,"velocity":0.5039370078740157},{"duration":0.10416650000000516,"midi":38,"time":83.749866,"velocity":0.5039370078740157},{"duration":0.10416649999999095,"midi":45,"time":83.8540325,"velocity":0.3937007874015748},{"duration":0.2083329999999961,"midi":71,"time":83.958199,"velocity":0.5039370078740157},{"duration":0.2083329999999961,"midi":59,"time":83.958199,"velocity":0.5039370078740157},{"duration":0.10416650000000516,"midi":41,"time":83.958199,"velocity":0.3937007874015748},{"duration":0.10416649999999095,"midi":45,"time":84.0623655,"velocity":0.3937007874015748},{"duration":0.10416650000000516,"midi":38,"time":84.16653199999999,"velocity":0.5039370078740157},{"duration":0.4166660000000064,"midi":60,"time":84.16653199999999,"velocity":0.5039370078740157},{"duration":0.4166660000000064,"midi":72,"time":84.16653199999999,"velocity":0.5039370078740157},{"duration":0.10416650000000516,"midi":45,"time":84.2706985,"velocity":0.3937007874015748},{"duration":0.10416649999999095,"midi":41,"time":84.374865,"velocity":0.3937007874015748},{"duration":0.10416650000000516,"midi":45,"time":84.47903149999999,"velocity":0.3937007874015748},{"duration":0.4166660000000064,"midi":77,"time":84.583198,"velocity":0.5039370078740157},{"duration":0.10416650000000516,"midi":38,"time":84.583198,"velocity":0.5039370078740157},{"duration":0.4166660000000064,"midi":65,"time":84.583198,"velocity":0.5039370078740157},{"duration":0.10416649999999095,"midi":45,"time":84.6873645,"velocity":0.3937007874015748},{"duration":0.10416650000000516,"midi":41,"time":84.79153099999999,"velocity":0.3937007874015748},{"duration":0.10416650000000516,"midi":45,"time":84.8956975,"velocity":0.3937007874015748},{"duration":0.31249949999998705,"midi":76,"time":84.999864,"velocity":0.5039370078740157},{"duration":0.10416649999999095,"midi":40,"time":84.999864,"velocity":0.5039370078740157},{"duration":0.31249949999998705,"midi":64,"time":84.999864,"velocity":0.5039370078740157},{"duration":0.10416650000000516,"midi":47,"time":85.1040305,"velocity":0.3937007874015748},{"duration":0.10416649999999095,"midi":44,"time":85.208197,"velocity":0.3937007874015748},{"duration":0.10416650000000516,"midi":77,"time":85.31236349999999,"velocity":0.5039370078740157},{"duration":0.10416650000000516,"midi":47,"time":85.31236349999999,"velocity":0.3937007874015748},{"duration":0.10416650000000516,"midi":65,"time":85.31236349999999,"velocity":0.5039370078740157},{"duration":0.10416650000000516,"midi":40,"time":85.41653,"velocity":0.5039370078740157},{"duration":0.10416649999999095,"midi":47,"time":85.5206965,"velocity":0.3937007874015748},{"duration":0.6249990000000025,"midi":64,"time":85.62486299999999,"velocity":0.5039370078740157},{"duration":0.6249990000000025,"midi":76,"time":85.62486299999999,"velocity":0.5039370078740157},{"duration":0.10416650000000516,"midi":44,"time":85.62486299999999,"velocity":0.3937007874015748},{"duration":0.6249990000000025,"midi":74,"time":85.62486299999999,"velocity":0.5039370078740157},{"duration":0.6249990000000025,"midi":68,"time":85.62486299999999,"velocity":0.5039370078740157},{"duration":0.10416650000000516,"midi":47,"time":85.7290295,"velocity":0.3937007874015748},{"duration":0.10416649999999095,"midi":38,"time":85.833196,"velocity":0.5039370078740157},{"duration":0.10416650000000516,"midi":47,"time":85.93736249999999,"velocity":0.3937007874015748},{"duration":0.10416650000000516,"midi":36,"time":86.041529,"velocity":0.3937007874015748},{"duration":0.10416649999999095,"midi":47,"time":86.1456955,"velocity":0.3937007874015748},{"duration":0.10416650000000516,"midi":35,"time":86.249862,"velocity":0.5039370078740157},{"duration":0.10416649999999095,"midi":47,"time":86.3540285,"velocity":0.3937007874015748},{"duration":0.10416650000000516,"midi":69,"time":86.45819499999999,"velocity":0.5039370078740157},{"duration":0.10416650000000516,"midi":32,"time":86.45819499999999,"velocity":0.3937007874015748},{"duration":0.10416650000000516,"midi":47,"time":86.5623615,"velocity":0.3937007874015748},{"duration":0.05208324999999547,"midi":78,"time":86.666528,"velocity":0.5039370078740157},{"duration":0.10416649999999095,"midi":45,"time":86.666528,"velocity":0.5039370078740157},{"duration":0.36458274999999674,"midi":79,"time":86.71861125,"velocity":0.5039370078740157},{"duration":0.36458274999999674,"midi":76,"time":86.71861125,"velocity":0.5039370078740157},{"duration":0.10416650000000516,"midi":57,"time":86.77069449999999,"velocity":0.3937007874015748},{"duration":0.10416650000000516,"midi":47,"time":86.874861,"velocity":0.3937007874015748},{"duration":0.10416649999999095,"midi":57,"time":86.9790275,"velocity":0.3937007874015748},{"duration":0.10416650000000516,"midi":48,"time":87.08319399999999,"velocity":0.5039370078740157},{"duration":0.10416650000000516,"midi":57,"time":87.1873605,"velocity":0.3937007874015748},{"duration":0.10416649999999095,"midi":50,"time":87.291527,"velocity":0.3937007874015748},{"duration":0.10416649999999095,"midi":69,"time":87.291527,"velocity":0.5039370078740157},{"duration":0.10416650000000516,"midi":57,"time":87.3956935,"velocity":0.3937007874015748},{"duration":0.05208324999999547,"midi":77,"time":87.49986,"velocity":0.5039370078740157},{"duration":0.10416649999999095,"midi":52,"time":87.49986,"velocity":0.5039370078740157},{"duration":0.36458274999999674,"midi":75,"time":87.55194325,"velocity":0.5039370078740157},{"duration":0.36458274999999674,"midi":78,"time":87.55194325,"velocity":0.5039370078740157},{"duration":0.10416650000000516,"midi":57,"time":87.60402649999999,"velocity":0.3937007874015748},{"duration":0.10416650000000516,"midi":50,"time":87.708193,"velocity":0.3937007874015748},{"duration":0.10416649999999095,"midi":57,"time":87.8123595,"velocity":0.3937007874015748},{"duration":0.10416650000000516,"midi":48,"time":87.91652599999999,"velocity":0.5039370078740157},{"duration":0.10416650000000516,"midi":57,"time":88.0206925,"velocity":0.3937007874015748},{"duration":0.10416649999999095,"midi":79,"time":88.124859,"velocity":0.5039370078740157},{"duration":0.10416649999999095,"midi":47,"time":88.124859,"velocity":0.3937007874015748},{"duration":0.10416650000000516,"midi":57,"time":88.22902549999999,"velocity":0.3937007874015748},{"duration":0.10416650000000516,"midi":36,"time":88.333192,"velocity":0.5039370078740157},{"duration":0.31249950000000126,"midi":81,"time":88.333192,"velocity":0.5039370078740157},{"duration":0.31249950000000126,"midi":76,"time":88.333192,"velocity":0.5039370078740157},{"duration":0.10416649999999095,"midi":48,"time":88.4373585,"velocity":0.3937007874015748},{"duration":0.10416650000000516,"midi":40,"time":88.541525,"velocity":0.3937007874015748},{"duration":0.10416649999999095,"midi":52,"time":88.6456915,"velocity":0.3937007874015748},{"duration":0.31249950000000126,"midi":80,"time":88.6456915,"velocity":0.5039370078740157},{"duration":0.31249950000000126,"midi":75,"time":88.6456915,"velocity":0.5039370078740157},{"duration":0.10416650000000516,"midi":43,"time":88.74985799999999,"velocity":0.5039370078740157},{"duration":0.10416650000000516,"midi":52,"time":88.8540245,"velocity":0.3937007874015748},{"duration":0.2083329999999961,"midi":76,"time":88.958191,"velocity":0.5039370078740157},{"duration":0.2083329999999961,"midi":81,"time":88.958191,"velocity":0.5039370078740157},{"duration":0.10416649999999095,"midi":47,"time":88.958191,"velocity":0.3937007874015748},{"duration":0.10416650000000516,"midi":52,"time":89.06235749999999,"velocity":0.3937007874015748},{"duration":0.10416650000000516,"midi":50,"time":89.166524,"velocity":0.5039370078740157},{"duration":0.31249950000000126,"midi":84,"time":89.166524,"velocity":0.5039370078740157},{"duration":0.31249950000000126,"midi":81,"time":89.166524,"velocity":0.5039370078740157},{"duration":0.10416649999999095,"midi":52,"time":89.2706905,"velocity":0.3937007874015748},{"duration":0.10416650000000516,"midi":45,"time":89.37485699999999,"velocity":0.3937007874015748},{"duration":0.31249950000000126,"midi":76,"time":89.4790235,"velocity":0.5039370078740157},{"duration":0.10416650000000516,"midi":52,"time":89.4790235,"velocity":0.3937007874015748},{"duration":0.31249950000000126,"midi":83,"time":89.4790235,"velocity":0.5039370078740157},{"duration":0.10416649999999095,"midi":41,"time":89.58319,"velocity":0.5039370078740157},{"duration":0.10416650000000516,"midi":52,"time":89.68735649999999,"velocity":0.3937007874015748},{"duration":0.10416649999999095,"midi":38,"time":89.791523,"velocity":0.3937007874015748},{"duration":0.2083329999999961,"midi":81,"time":89.791523,"velocity":0.5039370078740157},{"duration":0.2083329999999961,"midi":72,"time":89.791523,"velocity":0.5039370078740157},{"duration":0.10416650000000516,"midi":52,"time":89.89568949999999,"velocity":0.3937007874015748},{"duration":0.31249950000000126,"midi":76,"time":89.999856,"velocity":0.5039370078740157},{"duration":0.10416650000000516,"midi":46,"time":89.999856,"velocity":0.5039370078740157},{"duration":0.31249950000000126,"midi":64,"time":89.999856,"velocity":0.5039370078740157},{"duration":0.10416649999999095,"midi":53,"time":90.1040225,"velocity":0.3937007874015748},{"duration":0.10416650000000516,"midi":50,"time":90.20818899999999,"velocity":0.3937007874015748},{"duration":0.10416650000000516,"midi":63,"time":90.3123555,"velocity":0.5039370078740157},{"duration":0.10416650000000516,"midi":75,"time":90.3123555,"velocity":0.5039370078740157},{"duration":0.10416650000000516,"midi":53,"time":90.3123555,"velocity":0.3937007874015748},{"duration":0.10416649999999095,"midi":46,"time":90.416522,"velocity":0.5039370078740157},{"duration":0.10416650000000516,"midi":53,"time":90.52068849999999,"velocity":0.3937007874015748},{"duration":0.4166659999999922,"midi":62,"time":90.624855,"velocity":0.5039370078740157},{"duration":0.4166659999999922,"midi":74,"time":90.624855,"velocity":0.5039370078740157},{"duration":0.10416650000000516,"midi":50,"time":90.624855,"velocity":0.3937007874015748},{"duration":0.10416649999999095,"midi":53,"time":90.7290215,"velocity":0.3937007874015748},{"duration":0.10416650000000516,"midi":46,"time":90.83318799999999,"velocity":0.5039370078740157},{"duration":0.10416649999999095,"midi":53,"time":90.9373545,"velocity":0.3937007874015748},{"duration":0.10416650000000516,"midi":50,"time":91.04152099999999,"velocity":0.3937007874015748},{"duration":0.20833300000001032,"midi":72,"time":91.04152099999999,"velocity":0.5039370078740157},{"duration":0.20833300000001032,"midi":60,"time":91.04152099999999,"velocity":0.5039370078740157},{"duration":0.10416650000000516,"midi":53,"time":91.1456875,"velocity":0.3937007874015748},{"duration":0.10416649999999095,"midi":46,"time":91.249854,"velocity":0.5039370078740157},{"duration":0.2083329999999961,"midi":62,"time":91.249854,"velocity":0.5039370078740157},{"duration":0.2083329999999961,"midi":74,"time":91.249854,"velocity":0.5039370078740157},{"duration":0.10416650000000516,"midi":53,"time":91.35402049999999,"velocity":0.3937007874015748},{"duration":0.2083329999999961,"midi":76,"time":91.458187,"velocity":0.5039370078740157},{"duration":0.2083329999999961,"midi":64,"time":91.458187,"velocity":0.5039370078740157},{"duration":0.10416650000000516,"midi":50,"time":91.458187,"velocity":0.3937007874015748},{"duration":0.10416649999999095,"midi":53,"time":91.5623535,"velocity":0.3937007874015748},{"duration":1.249998000000005,"midi":69,"time":91.66651999999999,"velocity":0.5039370078740157},{"duration":0.4166660000000064,"midi":45,"time":91.66651999999999,"velocity":0.3937007874015748},{"duration":0.4166660000000064,"midi":48,"time":91.66651999999999,"velocity":0.3937007874015748},{"duration":0.4166660000000064,"midi":52,"time":91.66651999999999,"velocity":0.3937007874015748},{"duration":0.4166659999999922,"midi":44,"time":92.083186,"velocity":0.3937007874015748},{"duration":0.4166659999999922,"midi":52,"time":92.083186,"velocity":0.3937007874015748},{"duration":0.4166659999999922,"midi":48,"time":92.083186,"velocity":0.3937007874015748},{"duration":0.4166660000000064,"midi":43,"time":92.49985199999999,"velocity":0.3937007874015748},{"duration":0.4166660000000064,"midi":48,"time":92.49985199999999,"velocity":0.3937007874015748},{"duration":0.4166660000000064,"midi":52,"time":92.49985199999999,"velocity":0.3937007874015748},{"duration":0.4166659999999922,"midi":48,"time":92.916518,"velocity":0.3937007874015748},{"duration":0.4166659999999922,"midi":42,"time":92.916518,"velocity":0.3937007874015748},{"duration":0.4166659999999922,"midi":52,"time":92.916518,"velocity":0.3937007874015748},{"duration":0.2083329999999961,"midi":67,"time":93.12485099999999,"velocity":0.5039370078740157},{"duration":0.31249950000000126,"midi":65,"time":93.33318399999999,"velocity":0.5039370078740157},{"duration":0.10416650000000516,"midi":38,"time":93.33318399999999,"velocity":0.5039370078740157},{"duration":0.31249950000000126,"midi":60,"time":93.33318399999999,"velocity":0.5039370078740157},{"duration":0.10416650000000516,"midi":45,"time":93.4373505,"velocity":0.3937007874015748},{"duration":0.10416649999999095,"midi":41,"time":93.541517,"velocity":0.3937007874015748},{"duration":0.10416650000000516,"midi":45,"time":93.64568349999999,"velocity":0.3937007874015748},{"duration":0.0347221666666826,"midi":72,"time":93.64568349999999,"velocity":0.5039370078740157},{"duration":0.034722166666654175,"midi":74,"time":93.68040566666667,"velocity":0.5039370078740157},{"duration":0.034722166666668386,"midi":75,"time":93.71512783333333,"velocity":0.5039370078740157},{"duration":0.4166660000000064,"midi":76,"time":93.74985,"velocity":0.5039370078740157},{"duration":0.10416650000000516,"midi":38,"time":93.74985,"velocity":0.5039370078740157},{"duration":0.4166660000000064,"midi":67,"time":93.74985,"velocity":0.5039370078740157},{"duration":0.10416649999999095,"midi":45,"time":93.8540165,"velocity":0.3937007874015748},{"duration":0.10416650000000516,"midi":41,"time":93.95818299999999,"velocity":0.3937007874015748},{"duration":0.10416650000000516,"midi":45,"time":94.0623495,"velocity":0.3937007874015748},{"duration":0.2083329999999961,"midi":65,"time":94.166516,"velocity":0.5039370078740157},{"duration":0.10416649999999095,"midi":38,"time":94.166516,"velocity":0.5039370078740157},{"duration":0.2083329999999961,"midi":74,"time":94.166516,"velocity":0.5039370078740157},{"duration":0.10416650000000516,"midi":45,"time":94.27068249999999,"velocity":0.3937007874015748},{"duration":0.2083329999999961,"midi":72,"time":94.374849,"velocity":0.5039370078740157},{"duration":0.2083329999999961,"midi":64,"time":94.374849,"velocity":0.5039370078740157},{"duration":0.10416650000000516,"midi":41,"time":94.374849,"velocity":0.3937007874015748},{"duration":0.10416649999999095,"midi":45,"time":94.4790155,"velocity":0.3937007874015748},{"duration":0.2083329999999961,"midi":71,"time":94.583182,"velocity":0.5039370078740157},{"duration":0.2083329999999961,"midi":62,"time":94.583182,"velocity":0.5039370078740157},{"duration":0.10416650000000516,"midi":38,"time":94.583182,"velocity":0.5039370078740157},{"duration":0.10416649999999095,"midi":40,"time":94.6873485,"velocity":0.3937007874015748},{"duration":0.20833300000001032,"midi":64,"time":94.79151499999999,"velocity":0.5039370078740157},{"duration":0.10416650000000516,"midi":43,"time":94.79151499999999,"velocity":0.3937007874015748},{"duration":0.20833300000001032,"midi":72,"time":94.79151499999999,"velocity":0.5039370078740157},{"duration":0.10416650000000516,"midi":44,"time":94.8956815,"velocity":0.3937007874015748},{"duration":0.31249950000000126,"midi":60,"time":94.999848,"velocity":0.5039370078740157},{"duration":0.31249950000000126,"midi":64,"time":94.999848,"velocity":0.5039370078740157},{"duration":0.2083329999999961,"midi":45,"time":94.999848,"velocity":0.5039370078740157},{"duration":0.10416650000000516,"midi":45,"time":95.208181,"velocity":0.3937007874015748},{"duration":0.10416649999999095,"midi":52,"time":95.3123475,"velocity":0.3937007874015748},{"duration":0.034722166666668386,"midi":72,"time":95.3123475,"velocity":0.5039370078740157},{"duration":0.034722166666654175,"midi":74,"time":95.34706966666667,"velocity":0.5039370078740157},{"duration":0.034722166666668386,"midi":75,"time":95.38179183333332,"velocity":0.5039370078740157},{"duration":1.249998000000005,"midi":76,"time":95.41651399999999,"velocity":0.5039370078740157},{"duration":1.249998000000005,"midi":69,"time":95.41651399999999,"velocity":0.5039370078740157},{"duration":0.10416650000000516,"midi":45,"time":95.41651399999999,"velocity":0.5039370078740157},{"duration":0.10416650000000516,"midi":52,"time":95.5206805,"velocity":0.3937007874015748},{"duration":0.10416649999999095,"midi":48,"time":95.624847,"velocity":0.3937007874015748},{"duration":0.10416650000000516,"midi":52,"time":95.7290135,"velocity":0.3937007874015748},{"duration":0.10416649999999095,"midi":45,"time":95.83318,"velocity":0.5039370078740157},{"duration":0.10416650000000516,"midi":52,"time":95.93734649999999,"velocity":0.3937007874015748},{"duration":0.10416650000000516,"midi":48,"time":96.041513,"velocity":0.3937007874015748},{"duration":0.10416649999999095,"midi":52,"time":96.1456795,"velocity":0.3937007874015748},{"duration":0.10416650000000516,"midi":45,"time":96.24984599999999,"velocity":0.5039370078740157},{"duration":0.10416650000000516,"midi":52,"time":96.3540125,"velocity":0.3937007874015748},{"duration":0.10416649999999095,"midi":48,"time":96.458179,"velocity":0.3937007874015748},{"duration":0.10416650000000516,"midi":52,"time":96.56234549999999,"velocity":0.3937007874015748},{"duration":0.4166659999999922,"midi":75,"time":96.666512,"velocity":0.5039370078740157},{"duration":0.10416650000000516,"midi":42,"time":96.666512,"velocity":0.5039370078740157},{"duration":0.4166659999999922,"midi":69,"time":96.666512,"velocity":0.5039370078740157},{"duration":0.10416649999999095,"midi":51,"time":96.7706785,"velocity":0.3937007874015748},{"duration":0.10416650000000516,"midi":47,"time":96.874845,"velocity":0.3937007874015748},{"duration":0.10416649999999095,"midi":51,"time":96.9790115,"velocity":0.3937007874015748},{"duration":0.4166660000000064,"midi":72,"time":97.08317799999999,"velocity":0.5039370078740157},{"duration":0.10416650000000516,"midi":42,"time":97.08317799999999,"velocity":0.5039370078740157},{"duration":0.4166660000000064,"midi":63,"time":97.08317799999999,"velocity":0.5039370078740157},{"duration":0.10416650000000516,"midi":51,"time":97.1873445,"velocity":0.3937007874015748},{"duration":0.10416649999999095,"midi":47,"time":97.291511,"velocity":0.3937007874015748},{"duration":0.10416650000000516,"midi":51,"time":97.39567749999999,"velocity":0.3937007874015748},{"duration":0.2083329999999961,"midi":62,"time":97.499844,"velocity":0.5039370078740157},{"duration":0.2083329999999961,"midi":71,"time":97.499844,"velocity":0.5039370078740157},{"duration":0.10416650000000516,"midi":42,"time":97.499844,"velocity":0.5039370078740157},{"duration":0.10416649999999095,"midi":51,"time":97.6040105,"velocity":0.3937007874015748},{"duration":0.10416650000000516,"midi":47,"time":97.70817699999999,"velocity":0.3937007874015748},{"duration":0.20833300000001032,"midi":60,"time":97.70817699999999,"velocity":0.5039370078740157},{"duration":0.20833300000001032,"midi":69,"time":97.70817699999999,"velocity":0.5039370078740157},{"duration":0.10416650000000516,"midi":51,"time":97.8123435,"velocity":0.3937007874015748},{"duration":0.10416649999999095,"midi":42,"time":97.91651,"velocity":0.5039370078740157},{"duration":0.2083329999999961,"midi":59,"time":97.91651,"velocity":0.5039370078740157},{"duration":0.2083329999999961,"midi":68,"time":97.91651,"velocity":0.5039370078740157},{"duration":0.10416650000000516,"midi":47,"time":98.0206765,"velocity":0.3937007874015748},{"duration":0.10416649999999095,"midi":54,"time":98.124843,"velocity":0.3937007874015748},{"duration":0.2083329999999961,"midi":60,"time":98.124843,"velocity":0.5039370078740157},{"duration":0.2083329999999961,"midi":69,"time":98.124843,"velocity":0.5039370078740157},{"duration":0.10416650000000516,"midi":51,"time":98.22900949999999,"velocity":0.3937007874015748},{"duration":0.6249990000000025,"midi":71,"time":98.333176,"velocity":0.5039370078740157},{"duration":0.6249990000000025,"midi":62,"time":98.333176,"velocity":0.5039370078740157},{"duration":0.10416650000000516,"midi":44,"time":98.333176,"velocity":0.5039370078740157},{"duration":0.10416649999999095,"midi":52,"time":98.4373425,"velocity":0.3937007874015748},{"duration":0.10416650000000516,"midi":50,"time":98.54150899999999,"velocity":0.3937007874015748},{"duration":0.10416650000000516,"midi":52,"time":98.6456755,"velocity":0.3937007874015748},{"duration":0.10416649999999095,"midi":44,"time":98.749842,"velocity":0.5039370078740157},{"duration":0.10416650000000516,"midi":52,"time":98.85400849999999,"velocity":0.3937007874015748},{"duration":0.10416650000000516,"midi":66,"time":98.958175,"velocity":0.5039370078740157},{"duration":0.10416650000000516,"midi":74,"time":98.958175,"velocity":0.5039370078740157},{"duration":0.10416650000000516,"midi":47,"time":98.958175,"velocity":0.3937007874015748},{"duration":0.10416649999999095,"midi":75,"time":99.0623415,"velocity":0.5039370078740157},{"duration":0.10416649999999095,"midi":52,"time":99.0623415,"velocity":0.3937007874015748},{"duration":0.10416649999999095,"midi":67,"time":99.0623415,"velocity":0.5039370078740157},{"duration":0.8333319999999986,"midi":68,"time":99.166508,"velocity":0.5039370078740157},{"duration":0.8333319999999986,"midi":76,"time":99.166508,"velocity":0.5039370078740157},{"duration":0.10416650000000516,"midi":44,"time":99.166508,"velocity":0.5039370078740157},{"duration":0.10416649999999095,"midi":52,"time":99.2706745,"velocity":0.3937007874015748},{"duration":0.10416650000000516,"midi":50,"time":99.37484099999999,"velocity":0.3937007874015748},{"duration":0.10416650000000516,"midi":52,"time":99.4790075,"velocity":0.3937007874015748},{"duration":0.10416649999999095,"midi":48,"time":99.583174,"velocity":0.5039370078740157},{"duration":0.10416650000000516,"midi":52,"time":99.68734049999999,"velocity":0.3937007874015748},{"duration":0.10416650000000516,"midi":47,"time":99.791507,"velocity":0.3937007874015748},{"duration":0.10416649999999095,"midi":52,"time":99.8956735,"velocity":0.3937007874015748},{"duration":0.10416650000000516,"midi":48,"time":99.99983999999999,"velocity":0.5039370078740157},{"duration":0.20833300000001032,"midi":65,"time":99.99983999999999,"velocity":0.5039370078740157},{"duration":0.10416650000000516,"midi":57,"time":100.1040065,"velocity":0.3937007874015748},{"duration":0.10416649999999095,"midi":53,"time":100.208173,"velocity":0.3937007874015748},{"duration":0.02604162499999063,"midi":65,"time":100.208173,"velocity":0.5039370078740157},{"duration":0.026041625000004842,"midi":67,"time":100.23421462499999,"velocity":0.5039370078740157},{"duration":0.026041625000004842,"midi":69,"time":100.26025625,"velocity":0.5039370078740157},{"duration":0.02604162499999063,"midi":71,"time":100.286297875,"velocity":0.5039370078740157},{"duration":0.10416650000000516,"midi":57,"time":100.3123395,"velocity":0.3937007874015748},{"duration":0.026041625000004842,"midi":72,"time":100.3123395,"velocity":0.5039370078740157},{"duration":0.02604162499999063,"midi":74,"time":100.338381125,"velocity":0.5039370078740157},{"duration":0.4687492500000019,"midi":76,"time":100.36442274999999,"velocity":0.5039370078740157},{"duration":0.10416649999999095,"midi":48,"time":100.416506,"velocity":0.5039370078740157},{"duration":0.10416650000000516,"midi":57,"time":100.52067249999999,"velocity":0.3937007874015748},{"duration":0.10416650000000516,"midi":53,"time":100.624839,"velocity":0.3937007874015748},{"duration":0.10416649999999095,"midi":57,"time":100.7290055,"velocity":0.3937007874015748},{"duration":0.10416650000000516,"midi":48,"time":100.83317199999999,"velocity":0.5039370078740157},{"duration":0.20833300000001032,"midi":74,"time":100.83317199999999,"velocity":0.5039370078740157},{"duration":0.10416650000000516,"midi":57,"time":100.9373385,"velocity":0.3937007874015748},{"duration":0.10416649999999095,"midi":53,"time":101.041505,"velocity":0.3937007874015748},{"duration":0.2083329999999961,"midi":72,"time":101.041505,"velocity":0.5039370078740157},{"duration":0.10416650000000516,"midi":57,"time":101.14567149999999,"velocity":0.3937007874015748},{"duration":0.2083329999999961,"midi":71,"time":101.249838,"velocity":0.5039370078740157},{"duration":0.10416650000000516,"midi":48,"time":101.249838,"velocity":0.5039370078740157},{"duration":0.10416649999999095,"midi":57,"time":101.3540045,"velocity":0.3937007874015748},{"duration":0.10416650000000516,"midi":53,"time":101.458171,"velocity":0.3937007874015748},{"duration":0.2083329999999961,"midi":72,"time":101.458171,"velocity":0.5039370078740157},{"duration":0.10416649999999095,"midi":57,"time":101.5623375,"velocity":0.3937007874015748},{"duration":0.31249950000000126,"midi":45,"time":101.66650399999999,"velocity":0.3937007874015748},{"duration":0.31249950000000126,"midi":64,"time":101.66650399999999,"velocity":0.3937007874015748},{"duration":0.31249950000000126,"midi":60,"time":101.66650399999999,"velocity":0.3937007874015748},{"duration":0.31249950000000126,"midi":76,"time":101.66650399999999,"velocity":0.5039370078740157},{"duration":0.31249950000000126,"midi":81,"time":101.66650399999999,"velocity":0.5039370078740157},{"duration":0.31249950000000126,"midi":72,"time":101.66650399999999,"velocity":0.5039370078740157},{"duration":0.10416650000000516,"midi":76,"time":101.97900349999999,"velocity":0.5039370078740157},{"duration":0.10416650000000516,"midi":72,"time":101.97900349999999,"velocity":0.5039370078740157},{"duration":0.10416650000000516,"midi":60,"time":101.97900349999999,"velocity":0.3937007874015748},{"duration":0.10416650000000516,"midi":47,"time":101.97900349999999,"velocity":0.3937007874015748},{"duration":0.10416650000000516,"midi":57,"time":101.97900349999999,"velocity":0.3937007874015748},{"duration":0.10416650000000516,"midi":69,"time":101.97900349999999,"velocity":0.5039370078740157},{"duration":0.6249990000000025,"midi":72,"time":102.29150299999999,"velocity":0.5039370078740157},{"duration":0.6249990000000025,"midi":69,"time":102.29150299999999,"velocity":0.5039370078740157},{"duration":0.31249950000000126,"midi":60,"time":102.29150299999999,"velocity":0.3937007874015748},{"duration":0.31249950000000126,"midi":48,"time":102.29150299999999,"velocity":0.3937007874015748},{"duration":0.6249990000000025,"midi":76,"time":102.29150299999999,"velocity":0.5039370078740157},{"duration":0.31249950000000126,"midi":57,"time":102.29150299999999,"velocity":0.3937007874015748},{"duration":0.10416650000000516,"midi":64,"time":102.60400249999999,"velocity":0.3937007874015748},{"duration":0.10416649999999095,"midi":60,"time":102.708169,"velocity":0.3937007874015748},{"duration":0.10416650000000516,"midi":64,"time":102.81233549999999,"velocity":0.3937007874015748},{"duration":0.2083329999999961,"midi":74,"time":102.916502,"velocity":0.5039370078740157},{"duration":0.2083329999999961,"midi":68,"time":102.916502,"velocity":0.5039370078740157},{"duration":0.10416650000000516,"midi":57,"time":102.916502,"velocity":0.5039370078740157},{"duration":0.10416649999999095,"midi":64,"time":103.0206685,"velocity":0.3937007874015748},{"duration":0.10416650000000516,"midi":62,"time":103.12483499999999,"velocity":0.3937007874015748},{"duration":0.20833300000001032,"midi":69,"time":103.12483499999999,"velocity":0.5039370078740157},{"duration":0.20833300000001032,"midi":72,"time":103.12483499999999,"velocity":0.5039370078740157},{"duration":0.10416650000000516,"midi":60,"time":103.2290015,"velocity":0.3937007874015748},{"duration":0.8333319999999986,"midi":54,"time":103.333168,"velocity":0.3937007874015748},{"duration":0.8333319999999986,"midi":57,"time":103.333168,"velocity":0.3937007874015748},{"duration":0.8333319999999986,"midi":51,"time":103.333168,"velocity":0.3937007874015748},{"duration":0.31249950000000126,"midi":75,"time":103.333168,"velocity":0.5039370078740157},{"duration":0.10416649999999095,"midi":72,"time":103.6456675,"velocity":0.5039370078740157},{"duration":0.20833300000001032,"midi":71,"time":103.95816699999999,"velocity":0.5039370078740157},{"duration":0.8333319999999986,"midi":53,"time":104.1665,"velocity":0.3937007874015748},{"duration":0.8333319999999986,"midi":50,"time":104.1665,"velocity":0.3937007874015748},{"duration":0.8333319999999986,"midi":57,"time":104.1665,"velocity":0.3937007874015748},{"duration":0.31249950000000126,"midi":69,"time":104.1665,"velocity":0.5039370078740157},{"duration":0.10416649999999095,"midi":68,"time":104.4789995,"velocity":0.5039370078740157},{"duration":0.10416649999999095,"midi":66,"time":104.791499,"velocity":0.5039370078740157},{"duration":0.10416650000000516,"midi":68,"time":104.89566549999999,"velocity":0.5039370078740157},{"duration":0.8333319999999986,"midi":66,"time":104.999832,"velocity":0.3937007874015748},{"duration":0.8333319999999986,"midi":63,"time":104.999832,"velocity":0.3937007874015748},{"duration":0.31249950000000126,"midi":84,"time":104.999832,"velocity":0.5039370078740157},{"duration":0.8333319999999986,"midi":69,"time":104.999832,"velocity":0.3937007874015748},{"duration":0.10416649999999095,"midi":83,"time":105.3123315,"velocity":0.5039370078740157},{"duration":0.2083329999999961,"midi":81,"time":105.624831,"velocity":0.5039370078740157},{"duration":0.31249950000000126,"midi":80,"time":105.833164,"velocity":0.5039370078740157},{"duration":0.8333319999999986,"midi":65,"time":105.833164,"velocity":0.3937007874015748},{"duration":0.8333319999999986,"midi":62,"time":105.833164,"velocity":0.3937007874015748},{"duration":0.10416649999999095,"midi":78,"time":106.1456635,"velocity":0.5039370078740157},{"duration":0.10416649999999095,"midi":80,"time":106.458163,"velocity":0.5039370078740157},{"duration":1.6666639999999973,"midi":81,"time":106.666496,"velocity":0.3937007874015748},{"duration":0.6249990000000025,"midi":76,"time":106.666496,"velocity":0.3937007874015748},{"duration":0.6249990000000025,"midi":69,"time":106.666496,"velocity":0.3937007874015748},{"duration":0.2083329999999961,"midi":33,"time":106.666496,"velocity":0.3937007874015748},{"duration":0.20833300000001032,"midi":35,"time":106.87482899999999,"velocity":0.3937007874015748},{"duration":0.2083329999999961,"midi":36,"time":107.083162,"velocity":0.3937007874015748},{"duration":1.0416649999999947,"midi":76,"time":107.291495,"velocity":0.3937007874015748},{"duration":0.2083329999999961,"midi":38,"time":107.291495,"velocity":0.3937007874015748},{"duration":1.0416649999999947,"midi":72,"time":107.291495,"velocity":0.3937007874015748},{"duration":0.2083329999999961,"midi":40,"time":107.499828,"velocity":0.3937007874015748},{"duration":0.20833300000001032,"midi":38,"time":107.70816099999999,"velocity":0.3937007874015748},{"duration":0.2083329999999961,"midi":36,"time":107.916494,"velocity":0.3937007874015748},{"duration":0.2083329999999961,"midi":35,"time":108.124827,"velocity":0.3937007874015748},{"duration":1.6666639999999973,"midi":69,"time":108.33315999999999,"velocity":0.3937007874015748},{"duration":0.6249990000000025,"midi":76,"time":108.33315999999999,"velocity":0.3937007874015748},{"duration":1.6666639999999973,"midi":80,"time":108.33315999999999,"velocity":0.3937007874015748},{"duration":0.2083329999999961,"midi":33,"time":108.33315999999999,"velocity":0.3937007874015748},{"duration":0.20833300000001032,"midi":36,"time":108.54149299999999,"velocity":0.3937007874015748},{"duration":0.2083329999999961,"midi":40,"time":108.749826,"velocity":0.3937007874015748},{"duration":1.0416649999999947,"midi":72,"time":108.958159,"velocity":0.3937007874015748},{"duration":1.0416649999999947,"midi":76,"time":108.958159,"velocity":0.3937007874015748},{"duration":0.2083329999999961,"midi":45,"time":108.958159,"velocity":0.3937007874015748},{"duration":0.20833300000001032,"midi":48,"time":109.16649199999999,"velocity":0.3937007874015748},{"duration":0.10416649999999095,"midi":40,"time":109.374825,"velocity":0.3937007874015748},{"duration":0.2083329999999961,"midi":47,"time":109.47899149999999,"velocity":0.3937007874015748},{"duration":0.10416650000000516,"midi":40,"time":109.68732449999999,"velocity":0.3937007874015748},{"duration":0.2083329999999961,"midi":45,"time":109.791491,"velocity":0.3937007874015748},{"duration":1.6666640000000115,"midi":79,"time":109.99982399999999,"velocity":0.3937007874015748},{"duration":0.6249990000000025,"midi":67,"time":109.99982399999999,"velocity":0.3937007874015748},{"duration":0.6249990000000025,"midi":76,"time":109.99982399999999,"velocity":0.3937007874015748},{"duration":0.20833300000001032,"midi":33,"time":109.99982399999999,"velocity":0.3937007874015748},{"duration":0.2083329999999961,"midi":35,"time":110.208157,"velocity":0.3937007874015748},{"duration":0.2083329999999961,"midi":36,"time":110.41649,"velocity":0.3937007874015748},{"duration":1.041665000000009,"midi":76,"time":110.62482299999999,"velocity":0.3937007874015748},{"duration":0.2083329999999961,"midi":38,"time":110.62482299999999,"velocity":0.3937007874015748},{"duration":1.041665000000009,"midi":69,"time":110.62482299999999,"velocity":0.3937007874015748},{"duration":1.041665000000009,"midi":72,"time":110.62482299999999,"velocity":0.3937007874015748},{"duration":0.20833300000001032,"midi":40,"time":110.83315599999999,"velocity":0.3937007874015748},{"duration":0.2083329999999961,"midi":38,"time":111.041489,"velocity":0.3937007874015748},{"duration":0.2083329999999961,"midi":36,"time":111.249822,"velocity":0.3937007874015748},{"duration":0.20833300000001032,"midi":35,"time":111.45815499999999,"velocity":0.3937007874015748},{"duration":0.6249989999999883,"midi":76,"time":111.666488,"velocity":0.3937007874015748},{"duration":1.6666639999999973,"midi":78,"time":111.666488,"velocity":0.3937007874015748},{"duration":1.6666639999999973,"midi":66,"time":111.666488,"velocity":0.3937007874015748},{"duration":0.2083329999999961,"midi":33,"time":111.666488,"velocity":0.3937007874015748},{"duration":0.2083329999999961,"midi":36,"time":111.874821,"velocity":0.3937007874015748},{"duration":0.2083329999999961,"midi":40,"time":112.083154,"velocity":0.3937007874015748},{"duration":1.041665000000009,"midi":76,"time":112.29148699999999,"velocity":0.3937007874015748},{"duration":1.041665000000009,"midi":69,"time":112.29148699999999,"velocity":0.3937007874015748},{"duration":1.041665000000009,"midi":72,"time":112.29148699999999,"velocity":0.3937007874015748},{"duration":0.20833300000001032,"midi":45,"time":112.29148699999999,"velocity":0.3937007874015748},{"duration":0.2083329999999961,"midi":47,"time":112.49982,"velocity":0.3937007874015748},{"duration":0.10416650000000516,"midi":40,"time":112.708153,"velocity":0.3937007874015748},{"duration":0.2083329999999961,"midi":48,"time":112.8123195,"velocity":0.3937007874015748},{"duration":0.10416649999999095,"midi":40,"time":113.0206525,"velocity":0.3937007874015748},{"duration":0.20833300000001032,"midi":45,"time":113.12481899999999,"velocity":0.3937007874015748},{"duration":0.2083329999999961,"midi":57,"time":113.333152,"velocity":0.3937007874015748},{"duration":0.2083329999999961,"midi":45,"time":113.333152,"velocity":0.3937007874015748},{"duration":0.2083329999999961,"midi":69,"time":113.333152,"velocity":0.3937007874015748},{"duration":0.2083329999999961,"midi":72,"time":113.333152,"velocity":0.3937007874015748},{"duration":0.2083329999999961,"midi":63,"time":113.333152,"velocity":0.3937007874015748},{"duration":0.2083329999999961,"midi":75,"time":113.541485,"velocity":0.3937007874015748},{"duration":0.2083329999999961,"midi":63,"time":113.541485,"velocity":0.3937007874015748},{"duration":0.20833300000001032,"midi":74,"time":113.74981799999999,"velocity":0.3937007874015748},{"duration":0.20833300000001032,"midi":62,"time":113.74981799999999,"velocity":0.3937007874015748},{"duration":0.2083329999999961,"midi":75,"time":113.958151,"velocity":0.3937007874015748},{"duration":0.2083329999999961,"midi":63,"time":113.958151,"velocity":0.3937007874015748},{"duration":0.2083329999999961,"midi":79,"time":114.166484,"velocity":0.3937007874015748},{"duration":0.2083329999999961,"midi":67,"time":114.166484,"velocity":0.3937007874015748},{"duration":0.2083329999999961,"midi":63,"time":114.374817,"velocity":0.3937007874015748},{"duration":0.2083329999999961,"midi":75,"time":114.374817,"velocity":0.3937007874015748},{"duration":0.20833300000001032,"midi":74,"time":114.58314999999999,"velocity":0.3937007874015748},{"duration":0.20833300000001032,"midi":62,"time":114.58314999999999,"velocity":0.3937007874015748},{"duration":0.2083329999999961,"midi":75,"time":114.791483,"velocity":0.3937007874015748},{"duration":0.2083329999999961,"midi":63,"time":114.791483,"velocity":0.3937007874015748},{"duration":0.2083329999999961,"midi":57,"time":114.999816,"velocity":0.3937007874015748},{"duration":0.2083329999999961,"midi":45,"time":114.999816,"velocity":0.3937007874015748},{"duration":0.2083329999999961,"midi":81,"time":114.999816,"velocity":0.3937007874015748},{"duration":0.2083329999999961,"midi":72,"time":114.999816,"velocity":0.3937007874015748},{"duration":0.2083329999999961,"midi":86,"time":114.999816,"velocity":0.3937007874015748},{"duration":0.2083329999999961,"midi":63,"time":115.20814899999999,"velocity":0.3937007874015748},{"duration":0.2083329999999961,"midi":75,"time":115.20814899999999,"velocity":0.3937007874015748},{"duration":0.20833300000001032,"midi":74,"time":115.41648199999999,"velocity":0.3937007874015748},{"duration":0.20833300000001032,"midi":62,"time":115.41648199999999,"velocity":0.3937007874015748},{"duration":0.2083329999999961,"midi":63,"time":115.624815,"velocity":0.3937007874015748},{"duration":0.2083329999999961,"midi":75,"time":115.624815,"velocity":0.3937007874015748},{"duration":0.2083329999999961,"midi":86,"time":115.833148,"velocity":0.3937007874015748},{"duration":0.2083329999999961,"midi":74,"time":115.833148,"velocity":0.3937007874015748},{"duration":0.20833300000001032,"midi":75,"time":116.04148099999999,"velocity":0.3937007874015748},{"duration":0.20833300000001032,"midi":63,"time":116.04148099999999,"velocity":0.3937007874015748},{"duration":0.2083329999999961,"midi":76,"time":116.249814,"velocity":0.3937007874015748},{"duration":0.2083329999999961,"midi":88,"time":116.249814,"velocity":0.3937007874015748},{"duration":0.2083329999999961,"midi":76,"time":116.458147,"velocity":0.3937007874015748},{"duration":0.2083329999999961,"midi":64,"time":116.458147,"velocity":0.3937007874015748},{"duration":0.31249950000000126,"midi":64,"time":116.66647999999999,"velocity":0.3937007874015748},{"duration":0.31249950000000126,"midi":59,"time":116.66647999999999,"velocity":0.3937007874015748},{"duration":1.249998000000005,"midi":88,"time":116.66647999999999,"velocity":0.3937007874015748},{"duration":0.31249950000000126,"midi":57,"time":116.66647999999999,"velocity":0.3937007874015748},{"duration":1.249998000000005,"midi":74,"time":116.66647999999999,"velocity":0.3937007874015748},{"duration":0.10416650000000516,"midi":64,"time":116.9789795,"velocity":0.3937007874015748},{"duration":0.10416650000000516,"midi":57,"time":116.9789795,"velocity":0.3937007874015748},{"duration":0.10416650000000516,"midi":59,"time":116.9789795,"velocity":0.3937007874015748},{"duration":0.2083329999999961,"midi":64,"time":117.291479,"velocity":0.3937007874015748},{"duration":0.2083329999999961,"midi":57,"time":117.291479,"velocity":0.3937007874015748},{"duration":0.2083329999999961,"midi":59,"time":117.291479,"velocity":0.3937007874015748},{"duration":0.4166660000000064,"midi":59,"time":117.49981199999999,"velocity":0.3937007874015748},{"duration":0.4166660000000064,"midi":64,"time":117.49981199999999,"velocity":0.3937007874015748},{"duration":0.4166660000000064,"midi":57,"time":117.49981199999999,"velocity":0.3937007874015748},{"duration":0.2083329999999961,"midi":64,"time":117.916478,"velocity":0.3937007874015748},{"duration":0.2083329999999961,"midi":57,"time":117.916478,"velocity":0.3937007874015748},{"duration":0.2083329999999961,"midi":59,"time":117.916478,"velocity":0.3937007874015748},{"duration":0.2083329999999961,"midi":64,"time":118.124811,"velocity":0.3937007874015748},{"duration":0.2083329999999961,"midi":59,"time":118.124811,"velocity":0.3937007874015748},{"duration":0.10416650000000516,"midi":74,"time":118.124811,"velocity":0.3937007874015748},{"duration":0.2083329999999961,"midi":57,"time":118.124811,"velocity":0.3937007874015748},{"duration":0.10416649999999095,"midi":76,"time":118.2289775,"velocity":0.3937007874015748},{"duration":0.20833300000001032,"midi":64,"time":118.33314399999999,"velocity":0.3937007874015748},{"duration":0.20833300000001032,"midi":59,"time":118.33314399999999,"velocity":0.3937007874015748},{"duration":0.20833300000001032,"midi":56,"time":118.33314399999999,"velocity":0.3937007874015748},{"duration":0.4166660000000064,"midi":76,"time":118.33314399999999,"velocity":0.3937007874015748},{"duration":0.4166659999999922,"midi":74,"time":118.74981,"velocity":0.3937007874015748},{"duration":0.4166660000000064,"midi":72,"time":119.16647599999999,"velocity":0.3937007874015748},{"duration":0.4166660000000064,"midi":68,"time":119.583142,"velocity":0.3937007874015748}]}]}
